0, 0, Header, 1, 20, 120
1, 0, Start_track
1, 0, Title_t, "Piano Concerto No.3 in C Minor, Op. 37"
1, 0, Title_t, "Mov't. 3 - Rondo"
1, 0, Text_t, "Ludwig van Beethoven\012"
1, 0, Text_t, "Allegro\012"
1, 0, Time_signature, 2, 2, 24, 8
1, 0, Key_signature, -3, "major"
1, 0, Tempo, 431655
1, 5525, Tempo, 431655
1, 5540, Tempo, 434783
1, 5552, Tempo, 437956
1, 5565, Tempo, 441176
1, 5580, Tempo, 444444
1, 5592, Tempo, 447761
1, 5605, Tempo, 451128
1, 5617, Tempo, 454545
1, 5632, Tempo, 458015
1, 5645, Tempo, 461538
1, 5657, Tempo, 465116
1, 5670, Tempo, 468750
1, 5685, Tempo, 472441
1, 5697, Tempo, 476190
1, 5710, Tempo, 480000
1, 5722, Tempo, 483871
1, 5737, Tempo, 487805
1, 5750, Tempo, 491803
1, 5762, Tempo, 495868
1, 5775, Tempo, 500000
1, 5790, Tempo, 504202
1, 5802, Tempo, 508475
1, 5815, Tempo, 512821
1, 5827, Tempo, 517241
1, 5842, Tempo, 521739
1, 5855, Tempo, 526316
1, 5867, Tempo, 530973
1, 5880, Tempo, 535714
1, 5895, Tempo, 540541
1, 5907, Tempo, 545455
1, 5920, Tempo, 550459
1, 5935, Tempo, 555556
1, 5947, Tempo, 560748
1, 5960, Tempo, 566038
1, 5972, Tempo, 571429
1, 5987, Tempo, 576923
1, 5997, Tempo, 594059
1, 6005, Tempo, 600000
1, 6012, Tempo, 606061
1, 6020, Tempo, 612245
1, 6027, Tempo, 618557
1, 6035, Tempo, 625000
1, 6040, Tempo, 631579
1, 6047, Tempo, 638298
1, 6055, Tempo, 645161
1, 6062, Tempo, 652174
1, 6070, Tempo, 659341
1, 6075, Tempo, 666667
1, 6082, Tempo, 674157
1, 6090, Tempo, 681818
1, 6097, Tempo, 689655
1, 6105, Tempo, 697674
1, 6112, Tempo, 705882
1, 6117, Tempo, 714286
1, 6125, Tempo, 722892
1, 6132, Tempo, 731707
1, 6140, Tempo, 740741
1, 6147, Tempo, 750000
1, 6152, Tempo, 759494
1, 6160, Tempo, 769231
1, 6167, Tempo, 779221
1, 6175, Tempo, 789474
1, 6182, Tempo, 800000
1, 6190, Tempo, 810811
1, 6195, Tempo, 821918
1, 6202, Tempo, 833333
1, 6210, Tempo, 845070
1, 6217, Tempo, 857143
1, 6480, Tempo, 857143
1, 6490, Tempo, 845070
1, 6497, Tempo, 833333
1, 6505, Tempo, 821918
1, 6512, Tempo, 810811
1, 6520, Tempo, 800000
1, 6530, Tempo, 789474
1, 6537, Tempo, 779221
1, 6545, Tempo, 769231
1, 6552, Tempo, 759494
1, 6560, Tempo, 750000
1, 6570, Tempo, 740741
1, 6577, Tempo, 731707
1, 6585, Tempo, 722892
1, 6592, Tempo, 714286
1, 6600, Tempo, 705882
1, 6610, Tempo, 697674
1, 6617, Tempo, 689655
1, 6625, Tempo, 681818
1, 6632, Tempo, 674157
1, 6640, Tempo, 666667
1, 6650, Tempo, 659341
1, 6657, Tempo, 652174
1, 6665, Tempo, 645161
1, 6672, Tempo, 638298
1, 6680, Tempo, 631579
1, 6690, Tempo, 625000
1, 6695, Tempo, 618557
1, 6697, Tempo, 625000
1, 6700, Tempo, 631579
1, 6702, Tempo, 638298
1, 6705, Tempo, 645161
1, 6707, Tempo, 652174
1, 6710, Tempo, 659341
1, 6712, Tempo, 666667
1, 6715, Tempo, 674157
1, 6717, Tempo, 681818
1, 6720, Tempo, 689655
1, 6722, Tempo, 697674
1, 6725, Tempo, 705882
1, 6727, Tempo, 722892
1, 7437, Tempo, 731707
1, 7447, Tempo, 740741
1, 7457, Tempo, 750000
1, 7467, Tempo, 759494
1, 7477, Tempo, 769231
1, 7487, Tempo, 779221
1, 7497, Tempo, 789474
1, 7505, Tempo, 800000
1, 7515, Tempo, 810811
1, 7525, Tempo, 821918
1, 7535, Tempo, 833333
1, 7545, Tempo, 845070
1, 7555, Tempo, 857143
1, 7562, Tempo, 869565
1, 7572, Tempo, 882353
1, 7582, Tempo, 895522
1, 7592, Tempo, 909091
1, 7602, Tempo, 923077
1, 7612, Tempo, 937500
1, 7620, Tempo, 952381
1, 7630, Tempo, 967742
1, 7640, Tempo, 983607
1, 7650, Tempo, 1000000
1, 7660, Tempo, 1016949
1, 7670, Tempo, 1034483
1, 7677, Tempo, 1052632
1, 7680, Tempo, 1071429
1, 7710, Tempo, 1052632
1, 7737, Tempo, 1034483
1, 7765, Tempo, 1016949
1, 7792, Tempo, 1000000
1, 7837, Tempo, 952381
1, 7845, Tempo, 937500
1, 7855, Tempo, 923077
1, 7862, Tempo, 909091
1, 7870, Tempo, 895522
1, 7880, Tempo, 882353
1, 7887, Tempo, 869565
1, 7895, Tempo, 857143
1, 7905, Tempo, 845070
1, 7912, Tempo, 833333
1, 7920, Tempo, 821918
1, 7922, Tempo, 714286
1, 7932, Tempo, 705882
1, 7940, Tempo, 697674
1, 7950, Tempo, 689655
1, 7957, Tempo, 681818
1, 7967, Tempo, 674157
1, 7975, Tempo, 666667
1, 7985, Tempo, 659341
1, 7995, Tempo, 652174
1, 8002, Tempo, 645161
1, 8012, Tempo, 638298
1, 8020, Tempo, 631579
1, 8030, Tempo, 625000
1, 8037, Tempo, 618557
1, 8160, Tempo, 431655
1, 9600, Tempo, 434783
1, 17250, Tempo, 431655
1, 17300, Tempo, 434783
1, 17340, Tempo, 437956
1, 17380, Tempo, 441176
1, 17420, Tempo, 444444
1, 17460, Tempo, 447761
1, 17500, Tempo, 451128
1, 17540, Tempo, 454545
1, 17580, Tempo, 458015
1, 17590, Tempo, 468750
1, 17600, Tempo, 472441
1, 17610, Tempo, 480000
1, 17620, Tempo, 487805
1, 17630, Tempo, 491803
1, 17640, Tempo, 500000
1, 17650, Tempo, 508475
1, 18000, Tempo, 451128
1, 18020, Tempo, 441176
1, 21350, Tempo, 454545
1, 21380, Tempo, 458015
1, 21410, Tempo, 461538
1, 21440, Tempo, 465116
1, 21460, Tempo, 468750
1, 21480, Tempo, 468750
1, 21500, Tempo, 465116
1, 21520, Tempo, 461538
1, 21540, Tempo, 458015
1, 21560, Tempo, 454545
1, 21580, Tempo, 451128
1, 21600, Tempo, 447761
1, 25440, Tempo, 465116
1, 25500, Tempo, 461538
1, 25550, Tempo, 458015
1, 25600, Tempo, 454545
1, 25660, Tempo, 451128
1, 25710, Tempo, 447761
1, 25760, Tempo, 444444
1, 25820, Tempo, 441176
1, 25870, Tempo, 437956
1, 25920, Tempo, 434783
1, 26160, Tempo, 468750
1, 26170, Tempo, 465116
1, 26180, Tempo, 461538
1, 26190, Tempo, 454545
1, 26200, Tempo, 451128
1, 26210, Tempo, 444444
1, 26220, Tempo, 441176
1, 26230, Tempo, 434783
1, 26300, Tempo, 483871
1, 26310, Tempo, 480000
1, 26320, Tempo, 476190
1, 26330, Tempo, 472441
1, 26340, Tempo, 468750
1, 26350, Tempo, 465116
1, 26360, Tempo, 461538
1, 26370, Tempo, 458015
1, 26380, Tempo, 454545
1, 26390, Tempo, 451128
1, 26400, Tempo, 447761
1, 26410, Tempo, 444444
1, 31200, Tempo, 431655
1, 31220, Tempo, 434783
1, 31240, Tempo, 437956
1, 31250, Tempo, 441176
1, 31270, Tempo, 444444
1, 31290, Tempo, 447761
1, 31300, Tempo, 451128
1, 31320, Tempo, 454545
1, 31330, Tempo, 458015
1, 31350, Tempo, 461538
1, 31370, Tempo, 465116
1, 31380, Tempo, 468750
1, 31400, Tempo, 472441
1, 31410, Tempo, 476190
1, 31430, Tempo, 480000
1, 31450, Tempo, 483871
1, 31460, Tempo, 487805
1, 31480, Tempo, 491803
1, 31500, Tempo, 495868
1, 31510, Tempo, 500000
1, 31530, Tempo, 504202
1, 31540, Tempo, 508475
1, 31560, Tempo, 512821
1, 31580, Tempo, 517241
1, 31590, Tempo, 521739
1, 31610, Tempo, 526316
1, 31620, Tempo, 530973
1, 31640, Tempo, 535714
1, 31660, Tempo, 540541
1, 31670, Tempo, 545455
1, 31690, Tempo, 550459
1, 31710, Tempo, 555556
1, 31720, Tempo, 560748
1, 31740, Tempo, 566038
1, 31750, Tempo, 571429
1, 31770, Tempo, 576923
1, 31790, Tempo, 582524
1, 31800, Tempo, 588235
1, 31820, Tempo, 594059
1, 31830, Tempo, 600000
1, 32160, Tempo, 431655
1, 37440, Tempo, 458015
1, 37460, Tempo, 461538
1, 37470, Tempo, 465116
1, 37480, Tempo, 468750
1, 37500, Tempo, 472441
1, 37510, Tempo, 476190
1, 37520, Tempo, 480000
1, 37530, Tempo, 483871
1, 37550, Tempo, 487805
1, 37560, Tempo, 491803
1, 37570, Tempo, 495868
1, 37580, Tempo, 500000
1, 37600, Tempo, 504202
1, 37610, Tempo, 508475
1, 37620, Tempo, 512821
1, 37630, Tempo, 517241
1, 37650, Tempo, 521739
1, 37660, Tempo, 526316
1, 37670, Tempo, 530973
1, 37680, Tempo, 535714
1, 37700, Tempo, 540541
1, 37710, Tempo, 545455
1, 37720, Tempo, 550459
1, 37730, Tempo, 555556
1, 37750, Tempo, 560748
1, 37760, Tempo, 566038
1, 37770, Tempo, 571429
1, 37790, Tempo, 576923
1, 37800, Tempo, 582524
1, 37810, Tempo, 588235
1, 37820, Tempo, 594059
1, 37840, Tempo, 600000
1, 37850, Tempo, 606061
1, 37860, Tempo, 612245
1, 37870, Tempo, 618557
1, 37890, Tempo, 625000
1, 37900, Tempo, 631579
1, 37910, Tempo, 638298
1, 37920, Tempo, 645161
1, 37940, Tempo, 652174
1, 37950, Tempo, 659341
1, 37960, Tempo, 666667
1, 37970, Tempo, 674157
1, 37990, Tempo, 681818
1, 38000, Tempo, 689655
1, 38010, Tempo, 697674
1, 38020, Tempo, 705882
1, 38040, Tempo, 714286
1, 38050, Tempo, 722892
1, 38060, Tempo, 731707
1, 38070, Tempo, 750000
1, 38080, Tempo, 759494
1, 38090, Tempo, 769231
1, 38100, Tempo, 789474
1, 38110, Tempo, 800000
1, 38120, Tempo, 821918
1, 38130, Tempo, 833333
1, 38140, Tempo, 857143
1, 38150, Tempo, 869565
1, 38160, Tempo, 882353
1, 38170, Tempo, 909091
1, 38180, Tempo, 923077
1, 38190, Tempo, 952381
1, 38200, Tempo, 967742
1, 38210, Tempo, 1000000
1, 38220, Tempo, 1016949
1, 38230, Tempo, 1034483
1, 38240, Tempo, 1071429
1, 38250, Tempo, 1090909
1, 38260, Tempo, 1132075
1, 38270, Tempo, 1153846
1, 38280, Tempo, 1200000
1, 38290, Tempo, 1224490
1, 38300, Tempo, 1276596
1, 38390, Tempo, 1250000
1, 38410, Tempo, 1224490
1, 38420, Tempo, 1200000
1, 38440, Tempo, 1176471
1, 38450, Tempo, 1153846
1, 38460, Tempo, 1132075
1, 38480, Tempo, 1111111
1, 38490, Tempo, 1090909
1, 38500, Tempo, 1071429
1, 38520, Tempo, 1052632
1, 38530, Tempo, 1034483
1, 38540, Tempo, 1016949
1, 38560, Tempo, 1000000
1, 38570, Tempo, 983607
1, 38580, Tempo, 967742
1, 38600, Tempo, 952381
1, 38610, Tempo, 937500
1, 38620, Tempo, 923077
1, 38640, Tempo, 909091
1, 38650, Tempo, 895522
1, 38670, Tempo, 882353
1, 38680, Tempo, 869565
1, 38690, Tempo, 857143
1, 38710, Tempo, 845070
1, 38720, Tempo, 833333
1, 38730, Tempo, 821918
1, 38750, Tempo, 810811
1, 38760, Tempo, 800000
1, 38770, Tempo, 789474
1, 38790, Tempo, 779221
1, 38800, Tempo, 769231
1, 38810, Tempo, 759494
1, 38830, Tempo, 750000
1, 38840, Tempo, 740741
1, 38850, Tempo, 731707
1, 38870, Tempo, 722892
1, 38880, Tempo, 714286
1, 38900, Tempo, 705882
1, 38910, Tempo, 697674
1, 38920, Tempo, 689655
1, 38940, Tempo, 681818
1, 38950, Tempo, 674157
1, 38960, Tempo, 666667
1, 38980, Tempo, 659341
1, 38990, Tempo, 652174
1, 39000, Tempo, 645161
1, 39020, Tempo, 638298
1, 39030, Tempo, 631579
1, 39040, Tempo, 625000
1, 39060, Tempo, 618557
1, 39070, Tempo, 612245
1, 39080, Tempo, 606061
1, 39100, Tempo, 600000
1, 39110, Tempo, 594059
1, 39120, Tempo, 588235
1, 39140, Tempo, 582524
1, 39150, Tempo, 576923
1, 39170, Tempo, 571429
1, 39180, Tempo, 566038
1, 39190, Tempo, 560748
1, 39210, Tempo, 555556
1, 39250, Tempo, 560748
1, 39270, Tempo, 566038
1, 39280, Tempo, 571429
1, 39320, Tempo, 576923
1, 39330, Tempo, 582524
1, 39390, Tempo, 588235
1, 39410, Tempo, 594059
1, 39510, Tempo, 588235
1, 39560, Tempo, 582524
1, 39580, Tempo, 576923
1, 39590, Tempo, 645161
1, 39610, Tempo, 638298
1, 39620, Tempo, 631579
1, 39630, Tempo, 625000
1, 39640, Tempo, 618557
1, 39650, Tempo, 612245
1, 39660, Tempo, 606061
1, 39670, Tempo, 600000
1, 39680, Tempo, 594059
1, 39690, Tempo, 588235
1, 39700, Tempo, 582524
1, 39710, Tempo, 576923
1, 39720, Tempo, 571429
1, 39730, Tempo, 566038
1, 39750, Tempo, 550459
1, 39780, Tempo, 545455
1, 39870, Tempo, 550459
1, 41040, Tempo, 550459
1, 41050, Tempo, 555556
1, 41060, Tempo, 560748
1, 41070, Tempo, 571429
1, 41080, Tempo, 576923
1, 41090, Tempo, 582524
1, 41100, Tempo, 594059
1, 41110, Tempo, 600000
1, 41120, Tempo, 606061
1, 41130, Tempo, 618557
1, 41140, Tempo, 625000
1, 41150, Tempo, 631579
1, 41160, Tempo, 645161
1, 41170, Tempo, 652174
1, 41180, Tempo, 659341
1, 41190, Tempo, 674157
1, 41200, Tempo, 681818
1, 41210, Tempo, 689655
1, 41220, Tempo, 705882
1, 41230, Tempo, 714286
1, 41240, Tempo, 722892
1, 41250, Tempo, 740741
1, 41280, Tempo, 441176
1, 48240, Tempo, 451128
1, 55190, Tempo, 491803
1, 55210, Tempo, 487805
1, 55230, Tempo, 483871
1, 55240, Tempo, 480000
1, 55260, Tempo, 476190
1, 55270, Tempo, 472441
1, 55290, Tempo, 468750
1, 55300, Tempo, 465116
1, 55320, Tempo, 461538
1, 55330, Tempo, 458015
1, 55350, Tempo, 454545
1, 55360, Tempo, 451128
1, 59760, Tempo, 444444
1, 63720, Tempo, 444444
1, 63760, Tempo, 441176
1, 63790, Tempo, 437956
1, 63830, Tempo, 434783
1, 63860, Tempo, 431655
1, 64320, Tempo, 441176
1, 65280, Tempo, 441176
1, 65440, Tempo, 437956
1, 65600, Tempo, 434783
1, 65750, Tempo, 431655
1, 74040, Tempo, 512821
1, 74060, Tempo, 508475
1, 74070, Tempo, 504202
1, 74080, Tempo, 500000
1, 74090, Tempo, 495868
1, 74100, Tempo, 491803
1, 74110, Tempo, 487805
1, 74120, Tempo, 483871
1, 74130, Tempo, 480000
1, 74140, Tempo, 476190
1, 74150, Tempo, 472441
1, 74170, Tempo, 468750
1, 74180, Tempo, 465116
1, 74190, Tempo, 461538
1, 74200, Tempo, 458015
1, 74210, Tempo, 454545
1, 74220, Tempo, 451128
1, 74230, Tempo, 447761
1, 74240, Tempo, 444444
1, 74250, Tempo, 441176
1, 74260, Tempo, 437956
1, 74270, Tempo, 434783
1, 75600, Tempo, 431655
1, 75620, Tempo, 434783
1, 75630, Tempo, 437956
1, 75640, Tempo, 441176
1, 75660, Tempo, 444444
1, 75670, Tempo, 447761
1, 75680, Tempo, 451128
1, 75700, Tempo, 454545
1, 75710, Tempo, 458015
1, 75720, Tempo, 461538
1, 75730, Tempo, 465116
1, 75750, Tempo, 468750
1, 75760, Tempo, 472441
1, 75770, Tempo, 476190
1, 75790, Tempo, 480000
1, 75800, Tempo, 483871
1, 75810, Tempo, 487805
1, 75820, Tempo, 491803
1, 75840, Tempo, 504202
1, 75850, Tempo, 508475
1, 75860, Tempo, 512821
1, 75870, Tempo, 517241
1, 75880, Tempo, 521739
1, 75890, Tempo, 526316
1, 75900, Tempo, 530973
1, 75910, Tempo, 540541
1, 75920, Tempo, 545455
1, 75930, Tempo, 550459
1, 75940, Tempo, 555556
1, 75950, Tempo, 560748
1, 75960, Tempo, 566038
1, 75970, Tempo, 576923
1, 75980, Tempo, 560748
1, 75990, Tempo, 545455
1, 76000, Tempo, 530973
1, 76010, Tempo, 517241
1, 76020, Tempo, 504202
1, 76030, Tempo, 487805
1, 76040, Tempo, 476190
1, 76050, Tempo, 465116
1, 76060, Tempo, 454545
1, 76070, Tempo, 444444
1, 76080, Tempo, 431655
1, 89750, Tempo, 434783
1, 89890, Tempo, 437956
1, 90020, Tempo, 441176
1, 90150, Tempo, 444444
1, 90280, Tempo, 447761
1, 90410, Tempo, 451128
1, 90540, Tempo, 454545
1, 90670, Tempo, 458015
1, 90800, Tempo, 461538
1, 90930, Tempo, 465116
1, 90960, Tempo, 461538
1, 90970, Tempo, 428571
1, 92030, Tempo, 437956
1, 92060, Tempo, 441176
1, 92080, Tempo, 444444
1, 92100, Tempo, 447761
1, 92120, Tempo, 451128
1, 92140, Tempo, 454545
1, 92160, Tempo, 458015
1, 92180, Tempo, 461538
1, 92200, Tempo, 465116
1, 92230, Tempo, 468750
1, 92250, Tempo, 472441
1, 92270, Tempo, 476190
1, 92290, Tempo, 480000
1, 92310, Tempo, 483871
1, 92330, Tempo, 487805
1, 92350, Tempo, 491803
1, 92370, Tempo, 495868
1, 92390, Tempo, 500000
1, 92870, Tempo, 437956
1, 97440, Tempo, 431655
1, 102240, Time_signature, 6, 3, 12, 8
1, 102240, Key_signature, 0, "major"
1, 102370, Tempo, 431655
1, 102390, Tempo, 434783
1, 102400, Tempo, 437956
1, 102410, Tempo, 441176
1, 102420, Tempo, 444444
1, 102430, Tempo, 447761
1, 102440, Tempo, 451128
1, 102450, Tempo, 454545
1, 102460, Tempo, 458015
1, 102470, Tempo, 461538
1, 102480, Tempo, 465116
1, 102490, Tempo, 468750
1, 102500, Tempo, 472441
1, 102510, Tempo, 476190
1, 102520, Tempo, 480000
1, 102530, Tempo, 483871
1, 102540, Tempo, 487805
1, 102550, Tempo, 491803
1, 102560, Tempo, 495868
1, 102600, Tempo, 512821
1, 102630, Tempo, 508475
1, 102650, Tempo, 504202
1, 102670, Tempo, 500000
1, 102690, Tempo, 495868
1, 102720, Tempo, 491803
1, 102740, Tempo, 487805
1, 102760, Tempo, 483871
1, 102780, Tempo, 480000
1, 102800, Tempo, 476190
1, 102830, Tempo, 472441
1, 102850, Tempo, 468750
1, 102870, Tempo, 465116
1, 102890, Tempo, 461538
1, 102910, Tempo, 458015
1, 102940, Tempo, 454545
1, 102960, Tempo, 451128
1, 102980, Tempo, 447761
1, 103000, Tempo, 444444
1, 103020, Tempo, 441176
1, 103050, Tempo, 437956
1, 103070, Tempo, 434783
1, 103090, Tempo, 431655
1, 103110, Tempo, 428571
1, 103140, Tempo, 425532
1, 103160, Tempo, 422535
1, 103180, Tempo, 419580
1, 103200, Tempo, 416667
1, 103220, Tempo, 413793
1, 103250, Tempo, 410959
1, 103270, Tempo, 408163
1, 103290, Tempo, 405405
1, 103310, Tempo, 402685
1, 103330, Tempo, 400000
1, 103360, Tempo, 397351
1, 103380, Tempo, 394737
1, 103400, Tempo, 392157
1, 103420, Tempo, 389610
1, 103440, Tempo, 387097
1, 103470, Tempo, 384615
1, 103490, Tempo, 382166
1, 103510, Tempo, 379747
1, 103530, Tempo, 377358
1, 103550, Tempo, 375000
1, 103560, Tempo, 372671
1, 103580, Tempo, 370370
1, 103600, Tempo, 368098
1, 103620, Tempo, 365854
1, 103640, Tempo, 363636
1, 103660, Tempo, 361446
1, 103680, Tempo, 359281
1, 103700, Tempo, 357143
1, 103720, Tempo, 355030
1, 103740, Tempo, 352941
1, 103760, Tempo, 350877
1, 103770, Tempo, 348837
1, 103780, Tempo, 348837
1, 103810, Tempo, 346821
1, 103830, Tempo, 344828
1, 103850, Tempo, 342857
1, 103870, Tempo, 340909
1, 103890, Tempo, 338983
1, 103910, Tempo, 337079
1, 103930, Tempo, 335196
1, 103950, Tempo, 333333
1, 103970, Tempo, 331492
1, 103990, Tempo, 329670
1, 104010, Tempo, 327869
1, 104030, Tempo, 326087
1, 104050, Tempo, 324324
1, 104070, Tempo, 322581
1, 104090, Tempo, 320856
1, 104110, Tempo, 319149
1, 104130, Tempo, 317460
1, 104150, Tempo, 315789
1, 105110, Tempo, 348837
1, 105130, Tempo, 350877
1, 105140, Tempo, 352941
1, 105150, Tempo, 355030
1, 105160, Tempo, 357143
1, 105170, Tempo, 359281
1, 105180, Tempo, 361446
1, 105190, Tempo, 363636
1, 105200, Tempo, 365854
1, 105210, Tempo, 368098
1, 105220, Tempo, 370370
1, 105230, Tempo, 372671
1, 105240, Tempo, 375000
1, 105250, Tempo, 377358
1, 105260, Tempo, 379747
1, 105270, Tempo, 382166
1, 105280, Tempo, 384615
1, 105290, Tempo, 387097
1, 105300, Tempo, 389610
1, 105310, Tempo, 392157
1, 105320, Tempo, 394737
1, 105330, Tempo, 397351
1, 105340, Tempo, 400000
1, 105350, Tempo, 402685
1, 105360, Tempo, 405405
1, 105370, Tempo, 408163
1, 105380, Tempo, 410959
1, 105390, Tempo, 413793
1, 105400, Tempo, 416667
1, 105410, Tempo, 419580
1, 105420, Tempo, 422535
1, 105430, Tempo, 425532
1, 105440, Tempo, 428571
1, 105450, Tempo, 431655
1, 105460, Tempo, 434783
1, 105470, Tempo, 437956
1, 105480, Tempo, 441176
1, 105490, Tempo, 444444
1, 105500, Tempo, 447761
1, 105510, Tempo, 451128
1, 105520, Tempo, 454545
1, 105530, Tempo, 458015
1, 105540, Tempo, 461538
1, 105550, Tempo, 465116
1, 105560, Tempo, 468750
1, 105570, Tempo, 472441
1, 105580, Tempo, 476190
1, 105590, Tempo, 480000
1, 105600, Tempo, 483871
1, 105610, Tempo, 487805
1, 105620, Tempo, 491803
1, 105630, Tempo, 508475
1, 105640, Tempo, 512821
1, 105650, Tempo, 521739
1, 105660, Tempo, 526316
1, 105670, Tempo, 535714
1, 105680, Tempo, 545455
1, 105690, Tempo, 550459
1, 105700, Tempo, 560748
1, 105710, Tempo, 571429
1, 105720, Tempo, 576923
1, 105730, Tempo, 588235
1, 105740, Tempo, 600000
1, 105750, Tempo, 606061
1, 105760, Tempo, 618557
1, 105770, Tempo, 631579
1, 105780, Tempo, 638298
1, 105790, Tempo, 659341
1, 105800, Tempo, 645161
1, 105810, Tempo, 631579
1, 105820, Tempo, 612245
1, 105830, Tempo, 600000
1, 105840, Tempo, 582524
1, 105850, Tempo, 571429
1, 105860, Tempo, 560748
1, 105870, Tempo, 545455
1, 105880, Tempo, 535714
1, 105890, Tempo, 521739
1, 105900, Tempo, 512821
1, 105910, Tempo, 500000
1, 105920, Tempo, 491803
1, 105930, Tempo, 483871
1, 105940, Tempo, 472441
1, 105950, Tempo, 465116
1, 105960, Tempo, 454545
1, 105970, Tempo, 447761
1, 105980, Tempo, 437956
1, 105990, Tempo, 431655
1, 106000, Tempo, 425532
1, 106010, Tempo, 416667
1, 106020, Tempo, 410959
1, 106030, Tempo, 402685
1, 106040, Tempo, 397351
1, 106050, Tempo, 389610
1, 106060, Tempo, 384615
1, 106070, Tempo, 379747
1, 106080, Tempo, 372671
1, 106090, Tempo, 368098
1, 106100, Tempo, 361446
1, 106110, Tempo, 357143
1, 106120, Tempo, 350877
1, 106130, Tempo, 346821
1, 106140, Tempo, 342857
1, 106150, Tempo, 337079
1, 106160, Tempo, 333333
1, 106170, Tempo, 327869
1, 106180, Tempo, 324324
1, 106190, Tempo, 319149
1, 126200, Tempo, 357143
1, 126200, End_track
2, 0, Start_track
2, 0, MIDI_port, 0
2, 0, Title_t, "Flutes"
2, 0, Program_c, 0, 73
2, 0, Control_c, 0, 7, 100
2, 0, Control_c, 0, 10, 40
2, 0, Control_c, 0, 93, 0
2, 0, Control_c, 0, 91, 66
2, 9540, Note_on_c, 0, 79, 85
2, 9600, Note_on_c, 0, 79, 0
2, 9600, Note_on_c, 0, 82, 84
2, 9660, Note_on_c, 0, 82, 0
2, 9660, Note_on_c, 0, 84, 64
2, 9660, Note_on_c, 0, 76, 81
2, 9690, Note_on_c, 0, 76, 0
2, 9690, Note_on_c, 0, 84, 0
2, 9720, Note_on_c, 0, 84, 66
2, 9720, Note_on_c, 0, 76, 81
2, 9750, Note_on_c, 0, 76, 0
2, 9750, Note_on_c, 0, 84, 0
2, 9780, Note_on_c, 0, 84, 76
2, 9780, Note_on_c, 0, 76, 89
2, 9810, Note_on_c, 0, 76, 0
2, 9810, Note_on_c, 0, 84, 0
2, 9825, Note_on_c, 0, 79, 94
2, 9840, Note_on_c, 0, 79, 0
2, 9840, Note_on_c, 0, 77, 85
2, 9840, Note_on_c, 0, 84, 81
2, 9870, Note_on_c, 0, 77, 0
2, 9870, Note_on_c, 0, 76, 89
2, 9900, Note_on_c, 0, 76, 0
2, 9900, Note_on_c, 0, 77, 89
2, 9930, Note_on_c, 0, 77, 0
2, 9930, Note_on_c, 0, 79, 81
2, 9960, Note_on_c, 0, 79, 0
2, 9960, Note_on_c, 0, 84, 0
2, 9960, Note_on_c, 0, 80, 89
2, 9960, Note_on_c, 0, 84, 78
2, 9990, Note_on_c, 0, 80, 0
2, 10020, Note_on_c, 0, 84, 0
2, 10020, Note_on_c, 0, 80, 84
2, 10050, Note_on_c, 0, 80, 0
2, 10080, Note_on_c, 0, 80, 84
2, 10140, Note_on_c, 0, 80, 0
2, 10140, Note_on_c, 0, 74, 80
2, 10140, Note_on_c, 0, 86, 74
2, 10170, Note_on_c, 0, 86, 0
2, 10170, Note_on_c, 0, 74, 0
2, 10200, Note_on_c, 0, 74, 81
2, 10200, Note_on_c, 0, 86, 73
2, 10230, Note_on_c, 0, 86, 0
2, 10230, Note_on_c, 0, 74, 0
2, 10260, Note_on_c, 0, 74, 82
2, 10260, Note_on_c, 0, 86, 80
2, 10290, Note_on_c, 0, 86, 0
2, 10290, Note_on_c, 0, 74, 0
2, 10305, Note_on_c, 0, 89, 72
2, 10305, Note_on_c, 0, 77, 67
2, 10320, Note_on_c, 0, 77, 0
2, 10320, Note_on_c, 0, 89, 0
2, 10320, Note_on_c, 0, 75, 80
2, 10320, Note_on_c, 0, 87, 74
2, 10350, Note_on_c, 0, 87, 0
2, 10350, Note_on_c, 0, 75, 0
2, 10350, Note_on_c, 0, 74, 76
2, 10350, Note_on_c, 0, 86, 72
2, 10380, Note_on_c, 0, 86, 0
2, 10380, Note_on_c, 0, 74, 0
2, 10380, Note_on_c, 0, 75, 85
2, 10380, Note_on_c, 0, 87, 74
2, 10410, Note_on_c, 0, 87, 0
2, 10410, Note_on_c, 0, 75, 0
2, 10410, Note_on_c, 0, 77, 62
2, 10410, Note_on_c, 0, 89, 72
2, 10440, Note_on_c, 0, 89, 0
2, 10440, Note_on_c, 0, 77, 0
2, 10440, Note_on_c, 0, 91, 45
2, 10440, Note_on_c, 0, 79, 65
2, 10470, Note_on_c, 0, 79, 0
2, 10470, Note_on_c, 0, 91, 0
2, 10500, Note_on_c, 0, 91, 58
2, 10500, Note_on_c, 0, 79, 64
2, 10530, Note_on_c, 0, 79, 0
2, 10530, Note_on_c, 0, 91, 0
2, 10560, Note_on_c, 0, 89, 84
2, 10560, Note_on_c, 0, 77, 82
2, 10590, Note_on_c, 0, 77, 0
2, 10590, Note_on_c, 0, 89, 0
2, 10620, Note_on_c, 0, 75, 84
2, 10620, Note_on_c, 0, 87, 74
2, 10650, Note_on_c, 0, 87, 0
2, 10650, Note_on_c, 0, 75, 0
2, 10680, Note_on_c, 0, 86, 64
2, 10680, Note_on_c, 0, 74, 68
2, 10710, Note_on_c, 0, 74, 0
2, 10710, Note_on_c, 0, 86, 0
2, 10740, Note_on_c, 0, 84, 58
2, 10740, Note_on_c, 0, 72, 40
2, 10770, Note_on_c, 0, 72, 0
2, 10770, Note_on_c, 0, 84, 0
2, 10800, Note_on_c, 0, 91, 58
2, 10800, Note_on_c, 0, 79, 72
2, 10980, Note_on_c, 0, 79, 0
2, 10980, Note_on_c, 0, 91, 0
2, 10980, Note_on_c, 0, 79, 61
2, 10980, Note_on_c, 0, 91, 52
2, 11040, Note_on_c, 0, 91, 0
2, 11040, Note_on_c, 0, 79, 0
2, 11040, Note_on_c, 0, 77, 62
2, 11040, Note_on_c, 0, 89, 74
2, 11070, Note_on_c, 0, 89, 0
2, 11070, Note_on_c, 0, 77, 0
2, 11100, Note_on_c, 0, 75, 90
2, 11100, Note_on_c, 0, 87, 76
2, 11130, Note_on_c, 0, 87, 0
2, 11130, Note_on_c, 0, 75, 0
2, 11160, Note_on_c, 0, 74, 65
2, 11160, Note_on_c, 0, 86, 72
2, 11190, Note_on_c, 0, 86, 0
2, 11190, Note_on_c, 0, 74, 0
2, 11220, Note_on_c, 0, 84, 71
2, 11220, Note_on_c, 0, 72, 61
2, 11250, Note_on_c, 0, 72, 0
2, 11250, Note_on_c, 0, 84, 0
2, 11280, Note_on_c, 0, 91, 64
2, 11280, Note_on_c, 0, 79, 68
2, 11460, Note_on_c, 0, 79, 0
2, 11460, Note_on_c, 0, 91, 0
2, 11460, Note_on_c, 0, 91, 68
2, 11460, Note_on_c, 0, 79, 74
2, 11520, Note_on_c, 0, 79, 0
2, 11520, Note_on_c, 0, 91, 0
2, 11520, Note_on_c, 0, 89, 61
2, 11520, Note_on_c, 0, 77, 65
2, 11550, Note_on_c, 0, 77, 0
2, 11550, Note_on_c, 0, 89, 0
2, 11580, Note_on_c, 0, 75, 85
2, 11580, Note_on_c, 0, 87, 76
2, 11610, Note_on_c, 0, 87, 0
2, 11610, Note_on_c, 0, 75, 0
2, 11640, Note_on_c, 0, 86, 72
2, 11640, Note_on_c, 0, 74, 74
2, 11670, Note_on_c, 0, 74, 0
2, 11670, Note_on_c, 0, 86, 0
2, 11700, Note_on_c, 0, 84, 58
2, 11700, Note_on_c, 0, 72, 41
2, 11730, Note_on_c, 0, 72, 0
2, 11730, Note_on_c, 0, 84, 0
2, 11760, Note_on_c, 0, 91, 64
2, 11760, Note_on_c, 0, 79, 60
2, 11820, Control_c, 0, 7, 99
2, 11825, Control_c, 0, 7, 97
2, 11830, Control_c, 0, 7, 94
2, 11835, Control_c, 0, 7, 92
2, 11840, Control_c, 0, 7, 89
2, 11845, Control_c, 0, 7, 87
2, 11850, Control_c, 0, 7, 84
2, 11855, Control_c, 0, 7, 82
2, 11860, Control_c, 0, 7, 79
2, 11865, Control_c, 0, 7, 77
2, 11870, Control_c, 0, 7, 74
2, 11875, Control_c, 0, 7, 72
2, 11880, Control_c, 0, 7, 69
2, 11885, Control_c, 0, 7, 67
2, 11890, Control_c, 0, 7, 64
2, 11940, Note_on_c, 0, 79, 0
2, 11940, Note_on_c, 0, 91, 0
2, 12060, Note_on_c, 0, 83, 70
2, 12060, Note_on_c, 0, 71, 70
2, 12090, Note_on_c, 0, 71, 0
2, 12090, Note_on_c, 0, 83, 0
2, 12120, Note_on_c, 0, 83, 71
2, 12120, Note_on_c, 0, 71, 74
2, 12150, Note_on_c, 0, 71, 0
2, 12150, Note_on_c, 0, 83, 0
2, 12180, Note_on_c, 0, 83, 71
2, 12180, Note_on_c, 0, 71, 80
2, 12210, Note_on_c, 0, 71, 0
2, 12210, Note_on_c, 0, 83, 0
2, 12240, Control_c, 0, 7, 89
2, 12240, Note_on_c, 0, 84, 65
2, 12240, Note_on_c, 0, 72, 62
2, 12360, Note_on_c, 0, 72, 0
2, 12360, Note_on_c, 0, 84, 0
2, 12360, Control_c, 0, 7, 66
2, 12360, Note_on_c, 0, 74, 73
2, 12360, Note_on_c, 0, 86, 62
2, 12390, Note_on_c, 0, 86, 0
2, 12390, Note_on_c, 0, 74, 0
2, 12390, Note_on_c, 0, 84, 76
2, 12390, Note_on_c, 0, 72, 60
2, 12420, Note_on_c, 0, 72, 0
2, 12420, Note_on_c, 0, 84, 0
2, 12420, Note_on_c, 0, 83, 65
2, 12420, Note_on_c, 0, 71, 72
2, 12450, Note_on_c, 0, 71, 0
2, 12450, Note_on_c, 0, 83, 0
2, 12450, Note_on_c, 0, 84, 77
2, 12450, Note_on_c, 0, 72, 43
2, 12480, Note_on_c, 0, 72, 0
2, 12480, Note_on_c, 0, 84, 0
2, 12480, Note_on_c, 0, 86, 65
2, 12480, Note_on_c, 0, 83, 80
2, 12510, Note_on_c, 0, 83, 0
2, 12510, Note_on_c, 0, 86, 0
2, 12540, Note_on_c, 0, 86, 67
2, 12540, Note_on_c, 0, 83, 77
2, 12570, Note_on_c, 0, 83, 0
2, 12570, Note_on_c, 0, 86, 0
2, 12600, Note_on_c, 0, 88, 69
2, 12600, Note_on_c, 0, 84, 80
2, 12630, Note_on_c, 0, 84, 0
2, 12630, Note_on_c, 0, 88, 0
2, 12660, Note_on_c, 0, 84, 78
2, 12660, Note_on_c, 0, 88, 67
2, 12690, Note_on_c, 0, 88, 0
2, 12690, Note_on_c, 0, 84, 0
2, 12720, Note_on_c, 0, 86, 67
2, 12720, Note_on_c, 0, 83, 77
2, 12840, Note_on_c, 0, 83, 0
2, 12840, Note_on_c, 0, 86, 0
2, 12845, Control_c, 0, 7, 64
2, 12850, Control_c, 0, 7, 65
2, 12855, Control_c, 0, 7, 67
2, 12860, Control_c, 0, 7, 68
2, 12865, Control_c, 0, 7, 70
2, 12870, Control_c, 0, 7, 71
2, 12875, Control_c, 0, 7, 73
2, 12880, Control_c, 0, 7, 74
2, 12885, Control_c, 0, 7, 76
2, 12890, Control_c, 0, 7, 77
2, 12895, Control_c, 0, 7, 79
2, 12900, Control_c, 0, 7, 80
2, 12900, Note_on_c, 0, 79, 82
2, 12900, Note_on_c, 0, 79, 67
2, 12905, Control_c, 0, 7, 82
2, 12910, Control_c, 0, 7, 83
2, 12915, Control_c, 0, 7, 85
2, 12920, Control_c, 0, 7, 86
2, 12925, Control_c, 0, 7, 88
2, 12930, Control_c, 0, 7, 89
2, 12935, Control_c, 0, 7, 91
2, 12940, Control_c, 0, 7, 92
2, 12945, Control_c, 0, 7, 94
2, 12950, Control_c, 0, 7, 95
2, 12955, Control_c, 0, 7, 97
2, 12960, Note_on_c, 0, 79, 0
2, 12960, Note_on_c, 0, 79, 0
2, 12960, Control_c, 0, 7, 99
2, 12960, Note_on_c, 0, 80, 76
2, 13020, Note_on_c, 0, 80, 0
2, 13020, Note_on_c, 0, 71, 68
2, 13020, Note_on_c, 0, 83, 67
2, 13050, Note_on_c, 0, 83, 0
2, 13050, Note_on_c, 0, 71, 0
2, 13080, Note_on_c, 0, 71, 67
2, 13080, Note_on_c, 0, 83, 62
2, 13110, Note_on_c, 0, 83, 0
2, 13110, Note_on_c, 0, 71, 0
2, 13140, Note_on_c, 0, 83, 52
2, 13140, Note_on_c, 0, 71, 62
2, 13170, Note_on_c, 0, 71, 0
2, 13170, Note_on_c, 0, 83, 0
2, 13200, Note_on_c, 0, 84, 65
2, 13200, Note_on_c, 0, 72, 32
2, 13320, Note_on_c, 0, 72, 0
2, 13320, Note_on_c, 0, 84, 0
2, 13320, Note_on_c, 0, 74, 57
2, 13320, Note_on_c, 0, 86, 63
2, 13350, Note_on_c, 0, 86, 0
2, 13350, Note_on_c, 0, 74, 0
2, 13350, Note_on_c, 0, 84, 73
2, 13350, Note_on_c, 0, 72, 40
2, 13380, Note_on_c, 0, 72, 0
2, 13380, Note_on_c, 0, 84, 0
2, 13380, Note_on_c, 0, 71, 69
2, 13380, Note_on_c, 0, 83, 71
2, 13410, Note_on_c, 0, 83, 0
2, 13410, Note_on_c, 0, 71, 0
2, 13410, Note_on_c, 0, 84, 61
2, 13410, Note_on_c, 0, 72, 44
2, 13440, Note_on_c, 0, 72, 0
2, 13440, Note_on_c, 0, 84, 0
2, 13440, Note_on_c, 0, 74, 65
2, 13440, Note_on_c, 0, 86, 57
2, 13470, Note_on_c, 0, 86, 0
2, 13470, Note_on_c, 0, 74, 0
2, 13500, Note_on_c, 0, 74, 71
2, 13500, Note_on_c, 0, 86, 65
2, 13530, Note_on_c, 0, 86, 0
2, 13530, Note_on_c, 0, 74, 0
2, 13560, Note_on_c, 0, 67, 72
2, 13560, Note_on_c, 0, 79, 68
2, 13590, Note_on_c, 0, 79, 0
2, 13590, Note_on_c, 0, 67, 0
2, 13620, Note_on_c, 0, 67, 78
2, 13620, Note_on_c, 0, 79, 72
2, 13650, Note_on_c, 0, 79, 0
2, 13650, Note_on_c, 0, 67, 0
2, 13680, Note_on_c, 0, 79, 61
2, 13680, Note_on_c, 0, 91, 56
2, 13800, Note_on_c, 0, 91, 0
2, 13800, Note_on_c, 0, 79, 0
2, 13800, Note_on_c, 0, 89, 64
2, 13800, Note_on_c, 0, 86, 77
2, 13830, Note_on_c, 0, 86, 0
2, 13830, Note_on_c, 0, 89, 0
2, 13830, Note_on_c, 0, 84, 68
2, 13830, Note_on_c, 0, 88, 68
2, 13860, Note_on_c, 0, 88, 0
2, 13860, Note_on_c, 0, 84, 0
2, 13860, Note_on_c, 0, 83, 55
2, 13860, Note_on_c, 0, 86, 72
2, 13890, Note_on_c, 0, 86, 0
2, 13890, Note_on_c, 0, 83, 0
2, 13890, Note_on_c, 0, 84, 44
2, 13890, Note_on_c, 0, 88, 73
2, 13920, Note_on_c, 0, 88, 0
2, 13920, Note_on_c, 0, 84, 0
2, 13920, Note_on_c, 0, 86, 77
2, 13920, Note_on_c, 0, 89, 74
2, 13950, Note_on_c, 0, 89, 0
2, 13950, Note_on_c, 0, 86, 0
2, 13980, Note_on_c, 0, 89, 72
2, 13980, Note_on_c, 0, 86, 84
2, 14010, Note_on_c, 0, 86, 0
2, 14010, Note_on_c, 0, 89, 0
2, 14040, Note_on_c, 0, 83, 61
2, 14040, Note_on_c, 0, 86, 57
2, 14070, Note_on_c, 0, 86, 0
2, 14070, Note_on_c, 0, 83, 0
2, 14100, Note_on_c, 0, 83, 64
2, 14100, Note_on_c, 0, 86, 78
2, 14130, Note_on_c, 0, 86, 0
2, 14130, Note_on_c, 0, 83, 0
2, 14160, Note_on_c, 0, 91, 67
2, 14160, Note_on_c, 0, 88, 81
2, 14280, Note_on_c, 0, 88, 0
2, 14280, Note_on_c, 0, 91, 0
2, 14280, Note_on_c, 0, 89, 72
2, 14280, Note_on_c, 0, 86, 84
2, 14310, Note_on_c, 0, 86, 0
2, 14310, Note_on_c, 0, 89, 0
2, 14310, Note_on_c, 0, 88, 71
2, 14310, Note_on_c, 0, 84, 72
2, 14340, Note_on_c, 0, 84, 0
2, 14340, Note_on_c, 0, 88, 0
2, 14340, Note_on_c, 0, 86, 71
2, 14340, Note_on_c, 0, 83, 74
2, 14370, Note_on_c, 0, 83, 0
2, 14370, Note_on_c, 0, 86, 0
2, 14370, Note_on_c, 0, 84, 62
2, 14370, Note_on_c, 0, 88, 76
2, 14400, Note_on_c, 0, 88, 0
2, 14400, Note_on_c, 0, 84, 0
2, 14400, Note_on_c, 0, 89, 72
2, 14400, Note_on_c, 0, 86, 77
2, 14430, Note_on_c, 0, 86, 0
2, 14430, Note_on_c, 0, 89, 0
2, 14460, Note_on_c, 0, 89, 74
2, 14460, Note_on_c, 0, 86, 80
2, 14490, Note_on_c, 0, 86, 0
2, 14490, Note_on_c, 0, 89, 0
2, 14520, Note_on_c, 0, 83, 73
2, 14520, Note_on_c, 0, 86, 74
2, 14550, Note_on_c, 0, 86, 0
2, 14550, Note_on_c, 0, 83, 0
2, 14580, Note_on_c, 0, 83, 80
2, 14580, Note_on_c, 0, 86, 76
2, 14610, Note_on_c, 0, 86, 0
2, 14610, Note_on_c, 0, 83, 0
2, 14640, Note_on_c, 0, 84, 80
2, 14700, Note_on_c, 0, 84, 0
2, 14760, Note_on_c, 0, 79, 89
2, 14820, Note_on_c, 0, 79, 0
2, 14880, Note_on_c, 0, 72, 77
2, 14940, Note_on_c, 0, 72, 0
2, 19710, Note_on_c, 0, 70, 43
2, 19725, Note_on_c, 0, 70, 0
2, 19740, Note_on_c, 0, 72, 61
2, 19755, Note_on_c, 0, 72, 0
2, 19770, Note_on_c, 0, 74, 61
2, 19785, Note_on_c, 0, 74, 0
2, 19800, Note_on_c, 0, 75, 78
2, 19815, Note_on_c, 0, 75, 0
2, 19830, Note_on_c, 0, 77, 67
2, 19845, Note_on_c, 0, 77, 0
2, 19860, Note_on_c, 0, 79, 68
2, 19875, Note_on_c, 0, 79, 0
2, 19890, Note_on_c, 0, 80, 73
2, 19905, Note_on_c, 0, 80, 0
2, 19920, Note_on_c, 0, 82, 52
2, 20040, Note_on_c, 0, 82, 0
2, 20100, Note_on_c, 0, 89, 59
2, 20115, Note_on_c, 0, 89, 0
2, 20115, Note_on_c, 0, 87, 43
2, 20145, Note_on_c, 0, 87, 0
2, 20160, Note_on_c, 0, 87, 73
2, 20175, Note_on_c, 0, 87, 0
2, 20175, Note_on_c, 0, 86, 62
2, 20205, Note_on_c, 0, 86, 0
2, 20220, Note_on_c, 0, 84, 70
2, 20235, Note_on_c, 0, 84, 0
2, 20235, Note_on_c, 0, 82, 65
2, 20265, Note_on_c, 0, 82, 0
2, 20280, Note_on_c, 0, 82, 61
2, 20295, Note_on_c, 0, 82, 0
2, 20295, Note_on_c, 0, 80, 70
2, 20325, Note_on_c, 0, 80, 0
2, 20340, Note_on_c, 0, 79, 65
2, 20355, Note_on_c, 0, 79, 0
2, 20355, Note_on_c, 0, 77, 61
2, 20385, Note_on_c, 0, 77, 0
2, 20400, Note_on_c, 0, 75, 70
2, 20430, Note_on_c, 0, 75, 0
2, 20460, Note_on_c, 0, 75, 78
2, 20490, Note_on_c, 0, 75, 0
2, 20520, Note_on_c, 0, 77, 49
2, 20550, Note_on_c, 0, 77, 0
2, 20550, Note_on_c, 0, 75, 81
2, 20580, Note_on_c, 0, 75, 0
2, 20580, Note_on_c, 0, 74, 64
2, 20610, Note_on_c, 0, 74, 0
2, 20610, Note_on_c, 0, 75, 73
2, 20640, Note_on_c, 0, 75, 0
2, 20640, Note_on_c, 0, 77, 84
2, 20880, Note_on_c, 0, 77, 0
2, 20880, Note_on_c, 0, 79, 80
2, 20910, Note_on_c, 0, 79, 0
2, 20940, Note_on_c, 0, 79, 85
2, 20970, Note_on_c, 0, 79, 0
2, 21000, Note_on_c, 0, 80, 84
2, 21030, Note_on_c, 0, 80, 0
2, 21030, Note_on_c, 0, 79, 89
2, 21060, Note_on_c, 0, 79, 0
2, 21060, Note_on_c, 0, 77, 84
2, 21090, Note_on_c, 0, 77, 0
2, 21090, Note_on_c, 0, 79, 89
2, 21120, Note_on_c, 0, 79, 0
2, 21120, Note_on_c, 0, 80, 89
2, 21300, Note_on_c, 0, 80, 0
2, 21300, Note_on_c, 0, 84, 89
2, 21360, Note_on_c, 0, 84, 0
2, 21360, Note_on_c, 0, 75, 94
2, 21420, Note_on_c, 0, 75, 0
2, 21420, Note_on_c, 0, 87, 95
2, 21480, Note_on_c, 0, 87, 0
2, 21480, Note_on_c, 0, 86, 99
2, 21540, Note_on_c, 0, 86, 0
2, 21540, Note_on_c, 0, 86, 99
2, 21600, Note_on_c, 0, 86, 0
2, 21600, Note_on_c, 0, 87, 94
2, 21720, Note_on_c, 0, 87, 0
2, 22860, Note_on_c, 0, 82, 60
2, 22920, Note_on_c, 0, 82, 0
2, 22920, Note_on_c, 0, 84, 58
2, 22980, Note_on_c, 0, 84, 0
2, 22980, Note_on_c, 0, 86, 68
2, 23040, Note_on_c, 0, 86, 0
2, 23040, Note_on_c, 0, 87, 74
2, 23100, Note_on_c, 0, 87, 0
2, 24000, Note_on_c, 0, 86, 68
2, 24060, Note_on_c, 0, 86, 0
2, 24120, Note_on_c, 0, 82, 67
2, 24180, Note_on_c, 0, 82, 0
2, 24240, Note_on_c, 0, 91, 58
2, 24300, Note_on_c, 0, 91, 0
2, 24360, Note_on_c, 0, 87, 70
2, 24420, Note_on_c, 0, 87, 0
2, 24480, Note_on_c, 0, 84, 69
2, 24540, Note_on_c, 0, 84, 0
2, 24600, Note_on_c, 0, 77, 61
2, 24660, Note_on_c, 0, 77, 0
2, 24720, Note_on_c, 0, 77, 58
2, 24780, Note_on_c, 0, 77, 0
2, 24840, Note_on_c, 0, 77, 60
2, 24900, Note_on_c, 0, 77, 0
2, 24960, Note_on_c, 0, 77, 65
2, 25020, Note_on_c, 0, 77, 0
2, 28620, Note_on_c, 0, 84, 73
2, 28740, Note_on_c, 0, 84, 0
2, 28740, Note_on_c, 0, 84, 71
2, 28800, Note_on_c, 0, 84, 0
2, 28800, Note_on_c, 0, 83, 72
2, 28920, Note_on_c, 0, 83, 0
2, 29100, Note_on_c, 0, 75, 78
2, 29100, Note_on_c, 0, 84, 62
2, 29220, Note_on_c, 0, 84, 0
2, 29220, Note_on_c, 0, 75, 0
2, 29220, Note_on_c, 0, 84, 65
2, 29220, Note_on_c, 0, 75, 80
2, 29280, Note_on_c, 0, 75, 0
2, 29280, Note_on_c, 0, 84, 0
2, 29280, Note_on_c, 0, 83, 58
2, 29280, Note_on_c, 0, 74, 74
2, 29340, Note_on_c, 0, 74, 0
2, 29340, Note_on_c, 0, 83, 0
2, 29400, Note_on_c, 0, 71, 45
2, 29400, Note_on_c, 0, 74, 44
2, 29460, Note_on_c, 0, 74, 0
2, 29460, Note_on_c, 0, 71, 0
2, 29640, Note_on_c, 0, 74, 45
2, 29640, Note_on_c, 0, 77, 43
2, 29760, Note_on_c, 0, 77, 0
2, 29760, Note_on_c, 0, 74, 0
2, 29880, Note_on_c, 0, 83, 45
2, 29880, Note_on_c, 0, 77, 42
2, 30000, Note_on_c, 0, 77, 0
2, 30000, Note_on_c, 0, 83, 0
2, 30120, Note_on_c, 0, 83, 40
2, 30120, Note_on_c, 0, 86, 38
2, 30240, Note_on_c, 0, 86, 0
2, 30240, Note_on_c, 0, 83, 0
2, 30240, Note_on_c, 0, 89, 52
2, 30240, Note_on_c, 0, 86, 43
2, 30360, Note_on_c, 0, 86, 0
2, 30360, Note_on_c, 0, 89, 0
2, 42660, Note_on_c, 0, 79, 80
2, 42720, Note_on_c, 0, 79, 0
2, 42720, Note_on_c, 0, 82, 84
2, 42780, Note_on_c, 0, 82, 0
2, 42780, Note_on_c, 0, 84, 64
2, 42780, Note_on_c, 0, 76, 81
2, 42810, Note_on_c, 0, 76, 0
2, 42810, Note_on_c, 0, 84, 0
2, 42840, Note_on_c, 0, 84, 66
2, 42840, Note_on_c, 0, 76, 81
2, 42870, Note_on_c, 0, 76, 0
2, 42870, Note_on_c, 0, 84, 0
2, 42900, Note_on_c, 0, 84, 76
2, 42900, Note_on_c, 0, 76, 89
2, 42930, Note_on_c, 0, 76, 0
2, 42930, Note_on_c, 0, 84, 0
2, 42945, Note_on_c, 0, 79, 94
2, 42960, Note_on_c, 0, 79, 0
2, 42960, Note_on_c, 0, 77, 85
2, 42960, Note_on_c, 0, 84, 81
2, 42990, Note_on_c, 0, 77, 0
2, 42990, Note_on_c, 0, 76, 89
2, 43020, Note_on_c, 0, 76, 0
2, 43020, Note_on_c, 0, 77, 89
2, 43050, Note_on_c, 0, 77, 0
2, 43050, Note_on_c, 0, 79, 81
2, 43080, Note_on_c, 0, 79, 0
2, 43080, Note_on_c, 0, 84, 0
2, 43080, Note_on_c, 0, 80, 89
2, 43080, Note_on_c, 0, 84, 78
2, 43110, Note_on_c, 0, 80, 0
2, 43140, Note_on_c, 0, 84, 0
2, 43140, Note_on_c, 0, 80, 84
2, 43170, Note_on_c, 0, 80, 0
2, 43200, Note_on_c, 0, 80, 84
2, 43260, Note_on_c, 0, 80, 0
2, 43260, Note_on_c, 0, 74, 80
2, 43260, Note_on_c, 0, 86, 74
2, 43290, Note_on_c, 0, 86, 0
2, 43290, Note_on_c, 0, 74, 0
2, 43320, Note_on_c, 0, 74, 81
2, 43320, Note_on_c, 0, 86, 73
2, 43350, Note_on_c, 0, 86, 0
2, 43350, Note_on_c, 0, 74, 0
2, 43380, Note_on_c, 0, 74, 82
2, 43380, Note_on_c, 0, 86, 80
2, 43410, Note_on_c, 0, 86, 0
2, 43410, Note_on_c, 0, 74, 0
2, 43425, Note_on_c, 0, 89, 72
2, 43425, Note_on_c, 0, 77, 67
2, 43440, Note_on_c, 0, 77, 0
2, 43440, Note_on_c, 0, 89, 0
2, 43440, Note_on_c, 0, 75, 80
2, 43440, Note_on_c, 0, 87, 74
2, 43470, Note_on_c, 0, 87, 0
2, 43470, Note_on_c, 0, 75, 0
2, 43470, Note_on_c, 0, 74, 76
2, 43470, Note_on_c, 0, 86, 72
2, 43500, Note_on_c, 0, 86, 0
2, 43500, Note_on_c, 0, 74, 0
2, 43500, Note_on_c, 0, 75, 85
2, 43500, Note_on_c, 0, 87, 74
2, 43530, Note_on_c, 0, 87, 0
2, 43530, Note_on_c, 0, 75, 0
2, 43530, Note_on_c, 0, 77, 62
2, 43530, Note_on_c, 0, 89, 72
2, 43560, Note_on_c, 0, 89, 0
2, 43560, Note_on_c, 0, 77, 0
2, 43560, Note_on_c, 0, 91, 45
2, 43560, Note_on_c, 0, 79, 65
2, 43590, Note_on_c, 0, 79, 0
2, 43590, Note_on_c, 0, 91, 0
2, 43620, Note_on_c, 0, 91, 58
2, 43620, Note_on_c, 0, 79, 64
2, 43650, Note_on_c, 0, 79, 0
2, 43650, Note_on_c, 0, 91, 0
2, 43680, Note_on_c, 0, 89, 84
2, 43680, Note_on_c, 0, 77, 82
2, 43710, Note_on_c, 0, 77, 0
2, 43710, Note_on_c, 0, 89, 0
2, 43740, Note_on_c, 0, 75, 84
2, 43740, Note_on_c, 0, 87, 74
2, 43770, Note_on_c, 0, 87, 0
2, 43770, Note_on_c, 0, 75, 0
2, 43800, Note_on_c, 0, 86, 64
2, 43800, Note_on_c, 0, 74, 68
2, 43830, Note_on_c, 0, 74, 0
2, 43830, Note_on_c, 0, 86, 0
2, 43860, Note_on_c, 0, 84, 58
2, 43860, Note_on_c, 0, 72, 40
2, 43890, Note_on_c, 0, 72, 0
2, 43890, Note_on_c, 0, 84, 0
2, 43920, Note_on_c, 0, 91, 58
2, 43920, Note_on_c, 0, 79, 72
2, 44100, Note_on_c, 0, 79, 0
2, 44100, Note_on_c, 0, 91, 0
2, 44100, Note_on_c, 0, 79, 61
2, 44100, Note_on_c, 0, 91, 52
2, 44160, Note_on_c, 0, 91, 0
2, 44160, Note_on_c, 0, 79, 0
2, 44160, Note_on_c, 0, 77, 62
2, 44160, Note_on_c, 0, 89, 74
2, 44190, Note_on_c, 0, 89, 0
2, 44190, Note_on_c, 0, 77, 0
2, 44220, Note_on_c, 0, 75, 90
2, 44220, Note_on_c, 0, 87, 76
2, 44250, Note_on_c, 0, 87, 0
2, 44250, Note_on_c, 0, 75, 0
2, 44280, Note_on_c, 0, 74, 65
2, 44280, Note_on_c, 0, 86, 72
2, 44310, Note_on_c, 0, 86, 0
2, 44310, Note_on_c, 0, 74, 0
2, 44340, Note_on_c, 0, 84, 71
2, 44340, Note_on_c, 0, 72, 61
2, 44370, Note_on_c, 0, 72, 0
2, 44370, Note_on_c, 0, 84, 0
2, 44400, Note_on_c, 0, 91, 64
2, 44400, Note_on_c, 0, 79, 68
2, 44580, Note_on_c, 0, 79, 0
2, 44580, Note_on_c, 0, 91, 0
2, 44580, Note_on_c, 0, 91, 68
2, 44580, Note_on_c, 0, 79, 74
2, 44640, Note_on_c, 0, 79, 0
2, 44640, Note_on_c, 0, 91, 0
2, 44640, Note_on_c, 0, 89, 61
2, 44640, Note_on_c, 0, 77, 65
2, 44670, Note_on_c, 0, 77, 0
2, 44670, Note_on_c, 0, 89, 0
2, 44700, Note_on_c, 0, 75, 85
2, 44700, Note_on_c, 0, 87, 76
2, 44730, Note_on_c, 0, 87, 0
2, 44730, Note_on_c, 0, 75, 0
2, 44760, Note_on_c, 0, 86, 72
2, 44760, Note_on_c, 0, 74, 74
2, 44790, Note_on_c, 0, 74, 0
2, 44790, Note_on_c, 0, 86, 0
2, 44820, Note_on_c, 0, 84, 58
2, 44820, Note_on_c, 0, 72, 41
2, 44850, Note_on_c, 0, 72, 0
2, 44850, Note_on_c, 0, 84, 0
2, 44880, Note_on_c, 0, 91, 64
2, 44880, Note_on_c, 0, 79, 60
2, 44940, Control_c, 0, 7, 99
2, 44945, Control_c, 0, 7, 97
2, 44950, Control_c, 0, 7, 94
2, 44955, Control_c, 0, 7, 92
2, 44960, Control_c, 0, 7, 89
2, 44965, Control_c, 0, 7, 87
2, 44970, Control_c, 0, 7, 84
2, 44975, Control_c, 0, 7, 82
2, 44980, Control_c, 0, 7, 79
2, 44985, Control_c, 0, 7, 77
2, 44990, Control_c, 0, 7, 74
2, 44995, Control_c, 0, 7, 72
2, 45000, Control_c, 0, 7, 69
2, 45005, Control_c, 0, 7, 67
2, 45010, Control_c, 0, 7, 64
2, 45060, Note_on_c, 0, 79, 0
2, 45060, Note_on_c, 0, 91, 0
2, 45180, Note_on_c, 0, 83, 70
2, 45180, Note_on_c, 0, 71, 70
2, 45210, Note_on_c, 0, 71, 0
2, 45210, Note_on_c, 0, 83, 0
2, 45240, Note_on_c, 0, 83, 71
2, 45240, Note_on_c, 0, 71, 74
2, 45270, Note_on_c, 0, 71, 0
2, 45270, Note_on_c, 0, 83, 0
2, 45300, Note_on_c, 0, 83, 71
2, 45300, Note_on_c, 0, 71, 80
2, 45330, Note_on_c, 0, 71, 0
2, 45330, Note_on_c, 0, 83, 0
2, 45360, Control_c, 0, 7, 89
2, 45360, Note_on_c, 0, 84, 65
2, 45360, Note_on_c, 0, 72, 62
2, 45480, Note_on_c, 0, 72, 0
2, 45480, Note_on_c, 0, 84, 0
2, 45480, Control_c, 0, 7, 66
2, 45480, Note_on_c, 0, 74, 73
2, 45480, Note_on_c, 0, 86, 62
2, 45510, Note_on_c, 0, 86, 0
2, 45510, Note_on_c, 0, 74, 0
2, 45510, Note_on_c, 0, 84, 76
2, 45510, Note_on_c, 0, 72, 60
2, 45540, Note_on_c, 0, 72, 0
2, 45540, Note_on_c, 0, 84, 0
2, 45540, Note_on_c, 0, 83, 65
2, 45540, Note_on_c, 0, 71, 72
2, 45570, Note_on_c, 0, 71, 0
2, 45570, Note_on_c, 0, 83, 0
2, 45570, Note_on_c, 0, 84, 77
2, 45570, Note_on_c, 0, 72, 43
2, 45600, Note_on_c, 0, 72, 0
2, 45600, Note_on_c, 0, 84, 0
2, 45600, Note_on_c, 0, 86, 65
2, 45600, Note_on_c, 0, 83, 80
2, 45630, Note_on_c, 0, 83, 0
2, 45630, Note_on_c, 0, 86, 0
2, 45660, Note_on_c, 0, 86, 67
2, 45660, Note_on_c, 0, 83, 77
2, 45690, Note_on_c, 0, 83, 0
2, 45690, Note_on_c, 0, 86, 0
2, 45720, Note_on_c, 0, 88, 69
2, 45720, Note_on_c, 0, 84, 80
2, 45750, Note_on_c, 0, 84, 0
2, 45750, Note_on_c, 0, 88, 0
2, 45780, Note_on_c, 0, 84, 78
2, 45780, Note_on_c, 0, 88, 67
2, 45810, Note_on_c, 0, 88, 0
2, 45810, Note_on_c, 0, 84, 0
2, 45840, Note_on_c, 0, 86, 67
2, 45840, Note_on_c, 0, 83, 77
2, 45960, Note_on_c, 0, 83, 0
2, 45960, Note_on_c, 0, 86, 0
2, 45965, Control_c, 0, 7, 64
2, 45970, Control_c, 0, 7, 65
2, 45975, Control_c, 0, 7, 67
2, 45980, Control_c, 0, 7, 68
2, 45985, Control_c, 0, 7, 70
2, 45990, Control_c, 0, 7, 71
2, 45995, Control_c, 0, 7, 73
2, 46000, Control_c, 0, 7, 74
2, 46005, Control_c, 0, 7, 76
2, 46010, Control_c, 0, 7, 77
2, 46015, Control_c, 0, 7, 79
2, 46020, Control_c, 0, 7, 80
2, 46020, Note_on_c, 0, 79, 82
2, 46020, Note_on_c, 0, 79, 67
2, 46025, Control_c, 0, 7, 82
2, 46030, Control_c, 0, 7, 83
2, 46035, Control_c, 0, 7, 85
2, 46040, Control_c, 0, 7, 86
2, 46045, Control_c, 0, 7, 88
2, 46050, Control_c, 0, 7, 89
2, 46055, Control_c, 0, 7, 91
2, 46060, Control_c, 0, 7, 92
2, 46065, Control_c, 0, 7, 94
2, 46070, Control_c, 0, 7, 95
2, 46075, Control_c, 0, 7, 97
2, 46080, Note_on_c, 0, 79, 0
2, 46080, Note_on_c, 0, 79, 0
2, 46080, Control_c, 0, 7, 99
2, 46080, Note_on_c, 0, 80, 76
2, 46140, Note_on_c, 0, 80, 0
2, 46140, Note_on_c, 0, 71, 68
2, 46140, Note_on_c, 0, 83, 67
2, 46170, Note_on_c, 0, 83, 0
2, 46170, Note_on_c, 0, 71, 0
2, 46200, Note_on_c, 0, 71, 67
2, 46200, Note_on_c, 0, 83, 62
2, 46230, Note_on_c, 0, 83, 0
2, 46230, Note_on_c, 0, 71, 0
2, 46260, Note_on_c, 0, 83, 52
2, 46260, Note_on_c, 0, 71, 62
2, 46290, Note_on_c, 0, 71, 0
2, 46290, Note_on_c, 0, 83, 0
2, 46320, Note_on_c, 0, 84, 65
2, 46320, Note_on_c, 0, 72, 32
2, 46440, Note_on_c, 0, 72, 0
2, 46440, Note_on_c, 0, 84, 0
2, 46440, Note_on_c, 0, 74, 57
2, 46440, Note_on_c, 0, 86, 63
2, 46470, Note_on_c, 0, 86, 0
2, 46470, Note_on_c, 0, 74, 0
2, 46470, Note_on_c, 0, 84, 73
2, 46470, Note_on_c, 0, 72, 40
2, 46500, Note_on_c, 0, 72, 0
2, 46500, Note_on_c, 0, 84, 0
2, 46500, Note_on_c, 0, 71, 69
2, 46500, Note_on_c, 0, 83, 71
2, 46530, Note_on_c, 0, 83, 0
2, 46530, Note_on_c, 0, 71, 0
2, 46530, Note_on_c, 0, 84, 61
2, 46530, Note_on_c, 0, 72, 44
2, 46560, Note_on_c, 0, 72, 0
2, 46560, Note_on_c, 0, 84, 0
2, 46560, Note_on_c, 0, 74, 65
2, 46560, Note_on_c, 0, 86, 57
2, 46590, Note_on_c, 0, 86, 0
2, 46590, Note_on_c, 0, 74, 0
2, 46620, Note_on_c, 0, 74, 71
2, 46620, Note_on_c, 0, 86, 65
2, 46650, Note_on_c, 0, 86, 0
2, 46650, Note_on_c, 0, 74, 0
2, 46680, Note_on_c, 0, 67, 72
2, 46680, Note_on_c, 0, 79, 68
2, 46710, Note_on_c, 0, 79, 0
2, 46710, Note_on_c, 0, 67, 0
2, 46740, Note_on_c, 0, 67, 78
2, 46740, Note_on_c, 0, 79, 72
2, 46770, Note_on_c, 0, 79, 0
2, 46770, Note_on_c, 0, 67, 0
2, 46800, Note_on_c, 0, 79, 61
2, 46800, Note_on_c, 0, 91, 56
2, 46920, Note_on_c, 0, 91, 0
2, 46920, Note_on_c, 0, 79, 0
2, 46920, Note_on_c, 0, 89, 64
2, 46920, Note_on_c, 0, 86, 77
2, 46950, Note_on_c, 0, 86, 0
2, 46950, Note_on_c, 0, 89, 0
2, 46950, Note_on_c, 0, 84, 68
2, 46950, Note_on_c, 0, 88, 68
2, 46980, Note_on_c, 0, 88, 0
2, 46980, Note_on_c, 0, 84, 0
2, 46980, Note_on_c, 0, 83, 55
2, 46980, Note_on_c, 0, 86, 72
2, 47010, Note_on_c, 0, 86, 0
2, 47010, Note_on_c, 0, 83, 0
2, 47010, Note_on_c, 0, 84, 44
2, 47010, Note_on_c, 0, 88, 73
2, 47040, Note_on_c, 0, 88, 0
2, 47040, Note_on_c, 0, 84, 0
2, 47040, Note_on_c, 0, 86, 77
2, 47040, Note_on_c, 0, 89, 74
2, 47070, Note_on_c, 0, 89, 0
2, 47070, Note_on_c, 0, 86, 0
2, 47100, Note_on_c, 0, 89, 72
2, 47100, Note_on_c, 0, 86, 84
2, 47130, Note_on_c, 0, 86, 0
2, 47130, Note_on_c, 0, 89, 0
2, 47160, Note_on_c, 0, 83, 61
2, 47160, Note_on_c, 0, 86, 57
2, 47190, Note_on_c, 0, 86, 0
2, 47190, Note_on_c, 0, 83, 0
2, 47220, Note_on_c, 0, 83, 64
2, 47220, Note_on_c, 0, 86, 78
2, 47250, Note_on_c, 0, 86, 0
2, 47250, Note_on_c, 0, 83, 0
2, 47280, Note_on_c, 0, 91, 67
2, 47280, Note_on_c, 0, 88, 81
2, 47400, Note_on_c, 0, 88, 0
2, 47400, Note_on_c, 0, 91, 0
2, 47400, Note_on_c, 0, 89, 72
2, 47400, Note_on_c, 0, 86, 84
2, 47430, Note_on_c, 0, 86, 0
2, 47430, Note_on_c, 0, 89, 0
2, 47430, Note_on_c, 0, 88, 71
2, 47430, Note_on_c, 0, 84, 72
2, 47460, Note_on_c, 0, 84, 0
2, 47460, Note_on_c, 0, 88, 0
2, 47460, Note_on_c, 0, 86, 71
2, 47460, Note_on_c, 0, 83, 74
2, 47490, Note_on_c, 0, 83, 0
2, 47490, Note_on_c, 0, 86, 0
2, 47490, Note_on_c, 0, 84, 62
2, 47490, Note_on_c, 0, 88, 76
2, 47520, Note_on_c, 0, 88, 0
2, 47520, Note_on_c, 0, 84, 0
2, 47520, Note_on_c, 0, 89, 72
2, 47520, Note_on_c, 0, 86, 77
2, 47550, Note_on_c, 0, 86, 0
2, 47550, Note_on_c, 0, 89, 0
2, 47580, Note_on_c, 0, 89, 74
2, 47580, Note_on_c, 0, 86, 80
2, 47610, Note_on_c, 0, 86, 0
2, 47610, Note_on_c, 0, 89, 0
2, 47640, Note_on_c, 0, 83, 73
2, 47640, Note_on_c, 0, 86, 74
2, 47670, Note_on_c, 0, 86, 0
2, 47670, Note_on_c, 0, 83, 0
2, 47700, Note_on_c, 0, 83, 80
2, 47700, Note_on_c, 0, 86, 76
2, 47730, Note_on_c, 0, 86, 0
2, 47730, Note_on_c, 0, 83, 0
2, 47760, Note_on_c, 0, 84, 80
2, 47820, Note_on_c, 0, 84, 0
2, 47880, Note_on_c, 0, 79, 89
2, 47940, Note_on_c, 0, 79, 0
2, 48000, Note_on_c, 0, 72, 77
2, 48060, Note_on_c, 0, 72, 0
2, 62880, Control_c, 0, 7, 80
2, 63060, Note_on_c, 0, 87, 84
2, 63120, Note_on_c, 0, 87, 0
2, 63120, Note_on_c, 0, 89, 69
2, 63150, Note_on_c, 0, 89, 0
2, 63180, Note_on_c, 0, 77, 94
2, 63210, Note_on_c, 0, 77, 0
2, 63350, Control_c, 0, 7, 100
2, 63540, Note_on_c, 0, 90, 77
2, 63600, Note_on_c, 0, 90, 0
2, 63600, Note_on_c, 0, 91, 74
2, 63630, Note_on_c, 0, 91, 0
2, 64020, Note_on_c, 0, 80, 77
2, 64080, Note_on_c, 0, 80, 0
2, 64080, Note_on_c, 0, 80, 76
2, 64140, Note_on_c, 0, 80, 0
2, 64140, Note_on_c, 0, 89, 71
2, 64170, Note_on_c, 0, 89, 0
2, 64170, Note_on_c, 0, 88, 73
2, 64200, Note_on_c, 0, 88, 0
2, 64200, Note_on_c, 0, 89, 77
2, 64230, Note_on_c, 0, 89, 0
2, 64230, Note_on_c, 0, 87, 78
2, 64260, Note_on_c, 0, 87, 0
2, 64260, Note_on_c, 0, 86, 81
2, 64290, Note_on_c, 0, 86, 0
2, 64290, Note_on_c, 0, 84, 84
2, 64320, Note_on_c, 0, 84, 0
2, 64500, Note_on_c, 0, 86, 86
2, 64560, Note_on_c, 0, 86, 0
2, 64560, Note_on_c, 0, 87, 94
2, 64620, Note_on_c, 0, 87, 0
2, 64620, Note_on_c, 0, 78, 89
2, 64680, Note_on_c, 0, 78, 0
2, 64680, Note_on_c, 0, 78, 84
2, 64710, Note_on_c, 0, 78, 0
2, 64740, Note_on_c, 0, 78, 90
2, 64770, Note_on_c, 0, 78, 0
2, 64800, Note_on_c, 0, 79, 82
2, 64920, Note_on_c, 0, 79, 0
2, 64980, Note_on_c, 0, 86, 81
2, 65040, Note_on_c, 0, 86, 0
2, 65040, Note_on_c, 0, 87, 76
2, 65100, Note_on_c, 0, 87, 0
2, 65100, Note_on_c, 0, 78, 80
2, 65160, Note_on_c, 0, 78, 0
2, 65160, Note_on_c, 0, 78, 69
2, 65190, Note_on_c, 0, 78, 0
2, 65220, Note_on_c, 0, 78, 67
2, 65250, Note_on_c, 0, 78, 0
2, 65280, Note_on_c, 0, 79, 80
2, 65340, Note_on_c, 0, 79, 0
2, 65340, Note_on_c, 0, 79, 65
2, 65400, Note_on_c, 0, 79, 0
2, 65400, Note_on_c, 0, 79, 58
2, 65460, Note_on_c, 0, 79, 0
2, 65460, Note_on_c, 0, 79, 64
2, 65520, Note_on_c, 0, 79, 0
2, 65520, Note_on_c, 0, 79, 54
2, 65580, Note_on_c, 0, 79, 0
2, 65580, Note_on_c, 0, 79, 53
2, 65640, Note_on_c, 0, 79, 0
2, 65640, Note_on_c, 0, 79, 65
2, 65700, Note_on_c, 0, 79, 0
2, 65700, Note_on_c, 0, 79, 76
2, 65760, Note_on_c, 0, 79, 0
2, 65760, Note_on_c, 0, 80, 94
2, 65820, Note_on_c, 0, 80, 0
2, 65820, Note_on_c, 0, 80, 58
2, 65880, Note_on_c, 0, 80, 0
2, 65880, Note_on_c, 0, 80, 59
2, 65940, Note_on_c, 0, 80, 0
2, 65940, Note_on_c, 0, 80, 62
2, 66000, Note_on_c, 0, 80, 0
2, 66000, Note_on_c, 0, 80, 58
2, 66060, Note_on_c, 0, 80, 0
2, 66060, Note_on_c, 0, 80, 54
2, 66120, Note_on_c, 0, 80, 0
2, 66120, Note_on_c, 0, 80, 61
2, 66180, Note_on_c, 0, 80, 0
2, 66180, Note_on_c, 0, 80, 53
2, 66240, Note_on_c, 0, 80, 0
2, 66240, Note_on_c, 0, 80, 46
2, 66300, Note_on_c, 0, 80, 0
2, 77940, Note_on_c, 0, 79, 80
2, 78000, Note_on_c, 0, 79, 0
2, 78000, Note_on_c, 0, 80, 86
2, 78060, Note_on_c, 0, 80, 0
2, 78060, Note_on_c, 0, 71, 69
2, 78060, Note_on_c, 0, 83, 58
2, 78120, Note_on_c, 0, 83, 0
2, 78120, Note_on_c, 0, 71, 0
2, 78120, Note_on_c, 0, 71, 73
2, 78120, Note_on_c, 0, 83, 67
2, 78150, Note_on_c, 0, 83, 0
2, 78150, Note_on_c, 0, 71, 0
2, 78180, Note_on_c, 0, 71, 82
2, 78180, Note_on_c, 0, 83, 66
2, 78210, Note_on_c, 0, 83, 0
2, 78210, Note_on_c, 0, 71, 0
2, 78240, Note_on_c, 0, 84, 72
2, 78240, Note_on_c, 0, 72, 41
2, 78360, Note_on_c, 0, 72, 0
2, 78360, Note_on_c, 0, 84, 0
2, 78360, Note_on_c, 0, 74, 89
2, 78360, Note_on_c, 0, 86, 74
2, 78390, Note_on_c, 0, 86, 0
2, 78390, Note_on_c, 0, 74, 0
2, 78390, Note_on_c, 0, 84, 65
2, 78390, Note_on_c, 0, 72, 35
2, 78420, Note_on_c, 0, 72, 0
2, 78420, Note_on_c, 0, 84, 0
2, 78420, Note_on_c, 0, 83, 70
2, 78420, Note_on_c, 0, 71, 84
2, 78450, Note_on_c, 0, 71, 0
2, 78450, Note_on_c, 0, 83, 0
2, 78450, Note_on_c, 0, 84, 72
2, 78450, Note_on_c, 0, 72, 40
2, 78480, Note_on_c, 0, 72, 0
2, 78480, Note_on_c, 0, 84, 0
2, 78480, Note_on_c, 0, 74, 77
2, 78480, Note_on_c, 0, 86, 58
2, 78510, Note_on_c, 0, 86, 0
2, 78510, Note_on_c, 0, 74, 0
2, 78540, Note_on_c, 0, 86, 72
2, 78540, Note_on_c, 0, 74, 81
2, 78570, Note_on_c, 0, 74, 0
2, 78570, Note_on_c, 0, 86, 0
2, 78600, Note_on_c, 0, 75, 82
2, 78600, Note_on_c, 0, 87, 70
2, 78630, Note_on_c, 0, 87, 0
2, 78630, Note_on_c, 0, 75, 0
2, 78660, Note_on_c, 0, 75, 84
2, 78660, Note_on_c, 0, 87, 74
2, 78690, Note_on_c, 0, 87, 0
2, 78690, Note_on_c, 0, 75, 0
2, 78720, Note_on_c, 0, 74, 78
2, 78720, Note_on_c, 0, 86, 68
2, 78840, Note_on_c, 0, 86, 0
2, 78840, Note_on_c, 0, 74, 0
2, 78900, Note_on_c, 0, 79, 80
2, 78960, Note_on_c, 0, 79, 0
2, 78960, Note_on_c, 0, 80, 84
2, 79020, Note_on_c, 0, 80, 0
2, 79020, Note_on_c, 0, 71, 93
2, 79020, Note_on_c, 0, 83, 81
2, 79080, Note_on_c, 0, 83, 0
2, 79080, Note_on_c, 0, 71, 0
2, 79080, Note_on_c, 0, 83, 74
2, 79080, Note_on_c, 0, 71, 84
2, 79110, Note_on_c, 0, 71, 0
2, 79110, Note_on_c, 0, 83, 0
2, 79140, Note_on_c, 0, 83, 76
2, 79140, Note_on_c, 0, 71, 89
2, 79170, Note_on_c, 0, 71, 0
2, 79170, Note_on_c, 0, 83, 0
2, 79200, Note_on_c, 0, 84, 70
2, 79200, Note_on_c, 0, 72, 44
2, 79320, Note_on_c, 0, 72, 0
2, 79320, Note_on_c, 0, 84, 0
2, 79320, Note_on_c, 0, 86, 80
2, 79320, Note_on_c, 0, 74, 85
2, 79350, Note_on_c, 0, 74, 0
2, 79350, Note_on_c, 0, 86, 0
2, 79350, Note_on_c, 0, 84, 76
2, 79350, Note_on_c, 0, 72, 43
2, 79380, Note_on_c, 0, 72, 0
2, 79380, Note_on_c, 0, 84, 0
2, 79380, Note_on_c, 0, 71, 84
2, 79380, Note_on_c, 0, 83, 77
2, 79410, Note_on_c, 0, 83, 0
2, 79410, Note_on_c, 0, 71, 0
2, 79410, Note_on_c, 0, 84, 77
2, 79410, Note_on_c, 0, 72, 70
2, 79440, Note_on_c, 0, 72, 0
2, 79440, Note_on_c, 0, 84, 0
2, 79440, Note_on_c, 0, 86, 73
2, 79440, Note_on_c, 0, 74, 84
2, 79470, Note_on_c, 0, 74, 0
2, 79470, Note_on_c, 0, 86, 0
2, 79500, Note_on_c, 0, 74, 89
2, 79500, Note_on_c, 0, 86, 77
2, 79530, Note_on_c, 0, 86, 0
2, 79530, Note_on_c, 0, 74, 0
2, 79560, Note_on_c, 0, 79, 73
2, 79560, Note_on_c, 0, 67, 84
2, 79590, Note_on_c, 0, 67, 0
2, 79590, Note_on_c, 0, 79, 0
2, 79620, Note_on_c, 0, 67, 84
2, 79620, Note_on_c, 0, 79, 72
2, 79650, Note_on_c, 0, 79, 0
2, 79650, Note_on_c, 0, 67, 0
2, 79680, Note_on_c, 0, 91, 76
2, 79680, Note_on_c, 0, 79, 89
2, 79800, Note_on_c, 0, 79, 0
2, 79800, Note_on_c, 0, 91, 0
2, 79800, Note_on_c, 0, 89, 78
2, 79800, Note_on_c, 0, 86, 85
2, 79830, Note_on_c, 0, 86, 0
2, 79830, Note_on_c, 0, 89, 0
2, 79830, Note_on_c, 0, 84, 65
2, 79830, Note_on_c, 0, 87, 80
2, 79860, Note_on_c, 0, 87, 0
2, 79860, Note_on_c, 0, 84, 0
2, 79860, Note_on_c, 0, 83, 77
2, 79860, Note_on_c, 0, 86, 80
2, 79890, Note_on_c, 0, 86, 0
2, 79890, Note_on_c, 0, 83, 0
2, 79890, Note_on_c, 0, 84, 72
2, 79890, Note_on_c, 0, 88, 78
2, 79920, Note_on_c, 0, 88, 0
2, 79920, Note_on_c, 0, 84, 0
2, 79920, Note_on_c, 0, 89, 76
2, 79920, Note_on_c, 0, 86, 84
2, 79950, Note_on_c, 0, 86, 0
2, 79950, Note_on_c, 0, 89, 0
2, 79980, Note_on_c, 0, 86, 82
2, 79980, Note_on_c, 0, 89, 77
2, 80010, Note_on_c, 0, 89, 0
2, 80010, Note_on_c, 0, 86, 0
2, 80040, Note_on_c, 0, 83, 76
2, 80040, Note_on_c, 0, 86, 74
2, 80070, Note_on_c, 0, 86, 0
2, 80070, Note_on_c, 0, 83, 0
2, 80100, Note_on_c, 0, 83, 81
2, 80100, Note_on_c, 0, 86, 77
2, 80130, Note_on_c, 0, 86, 0
2, 80130, Note_on_c, 0, 83, 0
2, 80160, Note_on_c, 0, 87, 89
2, 80160, Note_on_c, 0, 91, 73
2, 80280, Note_on_c, 0, 91, 0
2, 80280, Note_on_c, 0, 87, 0
2, 80280, Note_on_c, 0, 89, 84
2, 80280, Note_on_c, 0, 86, 89
2, 80310, Note_on_c, 0, 86, 0
2, 80310, Note_on_c, 0, 89, 0
2, 80310, Note_on_c, 0, 84, 73
2, 80310, Note_on_c, 0, 87, 76
2, 80340, Note_on_c, 0, 87, 0
2, 80340, Note_on_c, 0, 84, 0
2, 80340, Note_on_c, 0, 86, 80
2, 80340, Note_on_c, 0, 83, 82
2, 80370, Note_on_c, 0, 83, 0
2, 80370, Note_on_c, 0, 86, 0
2, 80370, Note_on_c, 0, 87, 65
2, 80370, Note_on_c, 0, 84, 73
2, 80400, Note_on_c, 0, 84, 0
2, 80400, Note_on_c, 0, 87, 0
2, 80400, Note_on_c, 0, 86, 81
2, 80400, Note_on_c, 0, 89, 73
2, 80430, Note_on_c, 0, 89, 0
2, 80430, Note_on_c, 0, 86, 0
2, 80460, Note_on_c, 0, 86, 82
2, 80460, Note_on_c, 0, 89, 76
2, 80490, Note_on_c, 0, 89, 0
2, 80490, Note_on_c, 0, 86, 0
2, 80520, Note_on_c, 0, 83, 78
2, 80520, Note_on_c, 0, 86, 80
2, 80550, Note_on_c, 0, 86, 0
2, 80550, Note_on_c, 0, 83, 0
2, 80580, Note_on_c, 0, 83, 84
2, 80580, Note_on_c, 0, 86, 80
2, 80610, Note_on_c, 0, 86, 0
2, 80610, Note_on_c, 0, 83, 0
2, 80640, Note_on_c, 0, 84, 93
2, 80700, Note_on_c, 0, 84, 0
2, 80760, Note_on_c, 0, 79, 94
2, 80820, Note_on_c, 0, 79, 0
2, 80880, Note_on_c, 0, 72, 74
2, 80940, Note_on_c, 0, 72, 0
2, 85710, Note_on_c, 0, 79, 62
2, 85725, Note_on_c, 0, 79, 0
2, 85740, Note_on_c, 0, 81, 64
2, 85755, Note_on_c, 0, 81, 0
2, 85770, Note_on_c, 0, 83, 72
2, 85785, Note_on_c, 0, 83, 0
2, 85800, Note_on_c, 0, 84, 69
2, 85815, Note_on_c, 0, 84, 0
2, 85830, Note_on_c, 0, 86, 70
2, 85845, Note_on_c, 0, 86, 0
2, 85860, Note_on_c, 0, 88, 73
2, 85875, Note_on_c, 0, 88, 0
2, 85890, Note_on_c, 0, 89, 64
2, 85905, Note_on_c, 0, 89, 0
2, 85920, Note_on_c, 0, 91, 60
2, 86040, Note_on_c, 0, 91, 0
2, 86040, Note_on_c, 0, 89, 65
2, 86055, Note_on_c, 0, 89, 0
2, 86055, Note_on_c, 0, 88, 67
2, 86085, Note_on_c, 0, 88, 0
2, 86100, Note_on_c, 0, 86, 64
2, 86115, Note_on_c, 0, 86, 0
2, 86115, Note_on_c, 0, 84, 72
2, 86145, Note_on_c, 0, 84, 0
2, 86160, Note_on_c, 0, 84, 67
2, 86175, Note_on_c, 0, 84, 0
2, 86175, Note_on_c, 0, 83, 71
2, 86205, Note_on_c, 0, 83, 0
2, 86220, Note_on_c, 0, 81, 76
2, 86235, Note_on_c, 0, 81, 0
2, 86235, Note_on_c, 0, 79, 63
2, 86265, Note_on_c, 0, 79, 0
2, 86280, Note_on_c, 0, 79, 78
2, 86295, Note_on_c, 0, 79, 0
2, 86295, Note_on_c, 0, 77, 80
2, 86325, Note_on_c, 0, 77, 0
2, 86340, Note_on_c, 0, 76, 73
2, 86355, Note_on_c, 0, 76, 0
2, 86355, Note_on_c, 0, 74, 50
2, 86385, Note_on_c, 0, 74, 0
2, 86400, Note_on_c, 0, 72, 65
2, 86430, Note_on_c, 0, 72, 0
2, 86460, Note_on_c, 0, 84, 78
2, 86490, Note_on_c, 0, 84, 0
2, 86520, Note_on_c, 0, 86, 73
2, 86550, Note_on_c, 0, 86, 0
2, 86550, Note_on_c, 0, 84, 70
2, 86580, Note_on_c, 0, 84, 0
2, 86580, Note_on_c, 0, 83, 65
2, 86610, Note_on_c, 0, 83, 0
2, 86610, Note_on_c, 0, 84, 76
2, 86640, Note_on_c, 0, 84, 0
2, 86640, Note_on_c, 0, 86, 110
2, 86880, Note_on_c, 0, 86, 0
2, 86880, Note_on_c, 0, 88, 65
2, 86910, Note_on_c, 0, 88, 0
2, 86940, Note_on_c, 0, 88, 76
2, 86970, Note_on_c, 0, 88, 0
2, 87000, Note_on_c, 0, 89, 67
2, 87030, Note_on_c, 0, 89, 0
2, 87030, Note_on_c, 0, 88, 68
2, 87060, Note_on_c, 0, 88, 0
2, 87060, Note_on_c, 0, 86, 61
2, 87090, Note_on_c, 0, 86, 0
2, 87090, Note_on_c, 0, 88, 69
2, 87120, Note_on_c, 0, 88, 0
2, 87120, Note_on_c, 0, 89, 99
2, 87300, Note_on_c, 0, 89, 0
2, 87360, Note_on_c, 0, 84, 68
2, 87420, Note_on_c, 0, 84, 0
2, 87420, Note_on_c, 0, 84, 69
2, 87450, Note_on_c, 0, 84, 0
2, 87465, Note_on_c, 0, 88, 74
2, 87480, Note_on_c, 0, 88, 0
2, 87480, Note_on_c, 0, 86, 77
2, 87510, Note_on_c, 0, 86, 0
2, 87510, Note_on_c, 0, 84, 84
2, 87540, Note_on_c, 0, 84, 0
2, 87540, Note_on_c, 0, 86, 77
2, 87570, Note_on_c, 0, 86, 0
2, 87570, Note_on_c, 0, 88, 78
2, 87600, Note_on_c, 0, 88, 0
2, 87600, Note_on_c, 0, 84, 78
2, 87660, Note_on_c, 0, 84, 0
2, 88860, Note_on_c, 0, 79, 68
2, 88920, Note_on_c, 0, 79, 0
2, 88920, Note_on_c, 0, 81, 61
2, 88980, Note_on_c, 0, 81, 0
2, 88980, Note_on_c, 0, 83, 69
2, 89040, Note_on_c, 0, 83, 0
2, 89040, Note_on_c, 0, 84, 78
2, 89100, Note_on_c, 0, 84, 0
2, 90000, Note_on_c, 0, 83, 53
2, 90060, Note_on_c, 0, 83, 0
2, 90120, Note_on_c, 0, 91, 61
2, 90180, Note_on_c, 0, 91, 0
2, 90240, Note_on_c, 0, 88, 69
2, 90300, Note_on_c, 0, 88, 0
2, 90360, Note_on_c, 0, 84, 61
2, 90420, Note_on_c, 0, 84, 0
2, 90480, Note_on_c, 0, 81, 61
2, 90540, Note_on_c, 0, 81, 0
2, 90600, Note_on_c, 0, 84, 72
2, 90660, Note_on_c, 0, 84, 0
2, 90720, Note_on_c, 0, 84, 64
2, 90780, Note_on_c, 0, 84, 0
2, 90840, Note_on_c, 0, 84, 61
2, 90900, Note_on_c, 0, 84, 0
2, 90960, Note_on_c, 0, 84, 71
2, 91020, Note_on_c, 0, 84, 0
2, 97140, Note_on_c, 0, 84, 80
2, 97200, Note_on_c, 0, 84, 0
2, 97200, Note_on_c, 0, 87, 73
2, 97260, Note_on_c, 0, 87, 0
2, 97260, Note_on_c, 0, 78, 53
2, 97320, Note_on_c, 0, 78, 0
2, 97320, Note_on_c, 0, 78, 60
2, 97350, Note_on_c, 0, 78, 0
2, 97380, Note_on_c, 0, 78, 48
2, 97410, Note_on_c, 0, 78, 0
2, 97440, Note_on_c, 0, 79, 60
2, 97500, Note_on_c, 0, 79, 0
2, 97500, Note_on_c, 0, 91, 62
2, 97560, Note_on_c, 0, 91, 0
2, 97560, Note_on_c, 0, 91, 71
2, 97620, Note_on_c, 0, 91, 0
2, 97620, Note_on_c, 0, 91, 64
2, 97680, Note_on_c, 0, 91, 0
2, 97740, Note_on_c, 0, 90, 40
2, 97740, Note_on_c, 0, 81, 62
2, 97800, Note_on_c, 0, 81, 0
2, 97800, Note_on_c, 0, 90, 0
2, 97800, Note_on_c, 0, 90, 38
2, 97800, Note_on_c, 0, 81, 61
2, 97860, Note_on_c, 0, 81, 0
2, 97860, Note_on_c, 0, 90, 0
2, 97860, Note_on_c, 0, 90, 38
2, 97860, Note_on_c, 0, 81, 44
2, 97920, Note_on_c, 0, 81, 0
2, 97920, Note_on_c, 0, 90, 0
2, 97980, Note_on_c, 0, 80, 43
2, 97980, Note_on_c, 0, 89, 37
2, 98040, Note_on_c, 0, 89, 0
2, 98040, Note_on_c, 0, 80, 0
2, 98040, Note_on_c, 0, 89, 43
2, 98040, Note_on_c, 0, 80, 38
2, 98100, Note_on_c, 0, 80, 0
2, 98100, Note_on_c, 0, 89, 0
2, 98100, Note_on_c, 0, 89, 42
2, 98100, Note_on_c, 0, 80, 45
2, 98160, Note_on_c, 0, 80, 0
2, 98160, Note_on_c, 0, 89, 0
2, 98220, Note_on_c, 0, 79, 53
2, 98220, Note_on_c, 0, 88, 40
2, 98280, Note_on_c, 0, 88, 0
2, 98280, Note_on_c, 0, 79, 0
2, 98280, Note_on_c, 0, 88, 38
2, 98280, Note_on_c, 0, 79, 58
2, 98340, Note_on_c, 0, 79, 0
2, 98340, Note_on_c, 0, 88, 0
2, 98340, Note_on_c, 0, 88, 43
2, 98340, Note_on_c, 0, 79, 57
2, 98400, Note_on_c, 0, 79, 0
2, 98400, Note_on_c, 0, 88, 0
2, 98400, Note_on_c, 0, 87, 43
2, 98400, Note_on_c, 0, 78, 45
2, 98460, Note_on_c, 0, 78, 0
2, 98460, Note_on_c, 0, 87, 0
2, 98460, Note_on_c, 0, 87, 53
2, 98460, Note_on_c, 0, 78, 58
2, 98520, Note_on_c, 0, 78, 0
2, 98520, Note_on_c, 0, 87, 0
2, 98580, Note_on_c, 0, 77, 51
2, 98580, Note_on_c, 0, 86, 44
2, 98640, Note_on_c, 0, 86, 0
2, 98640, Note_on_c, 0, 77, 0
2, 98700, Note_on_c, 0, 85, 44
2, 98700, Note_on_c, 0, 76, 82
2, 98760, Note_on_c, 0, 76, 0
2, 98760, Note_on_c, 0, 85, 0
2, 98820, Note_on_c, 0, 75, 56
2, 98820, Note_on_c, 0, 84, 53
2, 98880, Note_on_c, 0, 84, 0
2, 98880, Note_on_c, 0, 75, 0
2, 98880, Note_on_c, 0, 74, 61
2, 98880, Note_on_c, 0, 83, 60
2, 99000, Note_on_c, 0, 83, 0
2, 99000, Note_on_c, 0, 74, 0
2, 99000, Note_on_c, 0, 77, 62
2, 99240, Note_on_c, 0, 77, 0
2, 99240, Note_on_c, 0, 77, 69
2, 99480, Note_on_c, 0, 77, 0
2, 99480, Note_on_c, 0, 77, 78
2, 99720, Note_on_c, 0, 77, 0
2, 99720, Note_on_c, 0, 77, 65
2, 99900, Note_on_c, 0, 77, 0
2, 99900, Note_on_c, 0, 84, 72
2, 99960, Note_on_c, 0, 84, 0
2, 99960, Note_on_c, 0, 83, 76
2, 100020, Note_on_c, 0, 83, 0
2, 100020, Note_on_c, 0, 84, 80
2, 100080, Note_on_c, 0, 84, 0
2, 100080, Note_on_c, 0, 83, 85
2, 100140, Note_on_c, 0, 83, 0
2, 100140, Note_on_c, 0, 86, 78
2, 100200, Note_on_c, 0, 86, 0
2, 100200, Note_on_c, 0, 86, 89
2, 100260, Note_on_c, 0, 86, 0
2, 100260, Note_on_c, 0, 86, 86
2, 100320, Note_on_c, 0, 86, 0
2, 100320, Note_on_c, 0, 86, 93
2, 100380, Note_on_c, 0, 86, 0
2, 100380, Note_on_c, 0, 84, 73
2, 100380, Note_on_c, 0, 89, 78
2, 100440, Note_on_c, 0, 89, 0
2, 100440, Note_on_c, 0, 84, 0
2, 100440, Note_on_c, 0, 83, 80
2, 100440, Note_on_c, 0, 89, 72
2, 100500, Note_on_c, 0, 89, 0
2, 100500, Note_on_c, 0, 83, 0
2, 100500, Note_on_c, 0, 84, 74
2, 100500, Note_on_c, 0, 89, 57
2, 100560, Note_on_c, 0, 89, 0
2, 100560, Note_on_c, 0, 84, 0
2, 100560, Note_on_c, 0, 83, 78
2, 100560, Note_on_c, 0, 89, 73
2, 100620, Note_on_c, 0, 89, 0
2, 100620, Note_on_c, 0, 83, 0
2, 100620, Note_on_c, 0, 89, 73
2, 100620, Note_on_c, 0, 84, 73
2, 100680, Note_on_c, 0, 84, 0
2, 100680, Note_on_c, 0, 89, 0
2, 100680, Note_on_c, 0, 89, 74
2, 100680, Note_on_c, 0, 83, 77
2, 100740, Note_on_c, 0, 83, 0
2, 100740, Note_on_c, 0, 89, 0
2, 100740, Note_on_c, 0, 84, 78
2, 100740, Note_on_c, 0, 89, 66
2, 100800, Note_on_c, 0, 89, 0
2, 100800, Note_on_c, 0, 84, 0
2, 100800, Note_on_c, 0, 89, 78
2, 100800, Note_on_c, 0, 86, 84
2, 101040, Note_on_c, 0, 86, 0
2, 101040, Note_on_c, 0, 89, 0
2, 101040, Note_on_c, 0, 83, 84
2, 101040, Note_on_c, 0, 86, 82
2, 101160, Note_on_c, 0, 86, 0
2, 101160, Note_on_c, 0, 83, 0
2, 101160, Note_on_c, 0, 77, 73
2, 101160, Note_on_c, 0, 83, 72
2, 101280, Note_on_c, 0, 83, 0
2, 101280, Note_on_c, 0, 77, 0
2, 101280, Note_on_c, 0, 86, 93
2, 101520, Note_on_c, 0, 86, 0
2, 101520, Note_on_c, 0, 83, 85
2, 101760, Note_on_c, 0, 83, 0
2, 101760, Note_on_c, 0, 77, 89
2, 102360, Note_on_c, 0, 77, 0
2, 108000, Control_c, 0, 7, 90
2, 108030, Note_on_c, 0, 90, 77
2, 108060, Note_on_c, 0, 90, 0
2, 108060, Note_on_c, 0, 91, 77
2, 108120, Note_on_c, 0, 91, 0
2, 108390, Note_on_c, 0, 90, 80
2, 108420, Note_on_c, 0, 90, 0
2, 108420, Note_on_c, 0, 91, 82
2, 108480, Note_on_c, 0, 91, 0
2, 108720, Note_on_c, 0, 86, 62
2, 108750, Note_on_c, 0, 86, 0
2, 108780, Note_on_c, 0, 88, 53
2, 108810, Note_on_c, 0, 88, 0
2, 108840, Note_on_c, 0, 89, 64
2, 108870, Note_on_c, 0, 89, 0
2, 108900, Note_on_c, 0, 79, 65
2, 108930, Note_on_c, 0, 79, 0
2, 108960, Note_on_c, 0, 81, 65
2, 108990, Note_on_c, 0, 81, 0
2, 109020, Note_on_c, 0, 83, 45
2, 109050, Note_on_c, 0, 83, 0
2, 109080, Note_on_c, 0, 84, 86
2, 109200, Note_on_c, 0, 84, 0
2, 110520, Note_on_c, 0, 84, 76
2, 110520, Note_on_c, 0, 72, 77
2, 110580, Control_c, 0, 7, 99
2, 110590, Control_c, 0, 7, 97
2, 110600, Control_c, 0, 7, 95
2, 110610, Control_c, 0, 7, 92
2, 110620, Control_c, 0, 7, 90
2, 110630, Control_c, 0, 7, 87
2, 110640, Control_c, 0, 7, 85
2, 110650, Control_c, 0, 7, 82
2, 110660, Control_c, 0, 7, 80
2, 110670, Control_c, 0, 7, 77
2, 110680, Control_c, 0, 7, 75
2, 110690, Control_c, 0, 7, 72
2, 110700, Control_c, 0, 7, 70
2, 110710, Control_c, 0, 7, 67
2, 111240, Note_on_c, 0, 72, 0
2, 111240, Note_on_c, 0, 84, 0
2, 111240, Note_on_c, 0, 72, 78
2, 111240, Control_c, 0, 7, 100
2, 111240, Note_on_c, 0, 84, 93
2, 111310, Control_c, 0, 7, 99
2, 111320, Control_c, 0, 7, 97
2, 111330, Control_c, 0, 7, 94
2, 111340, Control_c, 0, 7, 91
2, 111350, Control_c, 0, 7, 88
2, 111360, Control_c, 0, 7, 86
2, 111370, Control_c, 0, 7, 83
2, 111380, Control_c, 0, 7, 80
2, 111390, Control_c, 0, 7, 77
2, 111400, Control_c, 0, 7, 75
2, 111410, Control_c, 0, 7, 72
2, 111420, Control_c, 0, 7, 69
2, 111430, Control_c, 0, 7, 66
2, 111960, Note_on_c, 0, 72, 0
2, 111960, Note_on_c, 0, 76, 95
2, 112020, Note_on_c, 0, 76, 0
2, 112020, Note_on_c, 0, 84, 0
2, 112020, Note_on_c, 0, 84, 65
2, 112020, Note_on_c, 0, 88, 76
2, 112080, Note_on_c, 0, 88, 0
2, 112080, Note_on_c, 0, 84, 0
2, 112080, Note_on_c, 0, 84, 69
2, 112080, Note_on_c, 0, 88, 81
2, 112140, Note_on_c, 0, 88, 0
2, 112140, Note_on_c, 0, 84, 0
2, 112140, Note_on_c, 0, 83, 74
2, 112140, Note_on_c, 0, 86, 66
2, 112260, Note_on_c, 0, 86, 0
2, 112260, Note_on_c, 0, 83, 0
2, 112270, Control_c, 0, 7, 100
2, 112320, Note_on_c, 0, 89, 45
2, 112320, Note_on_c, 0, 86, 55
2, 112380, Note_on_c, 0, 86, 0
2, 112380, Note_on_c, 0, 89, 0
2, 112380, Note_on_c, 0, 89, 50
2, 112380, Note_on_c, 0, 86, 64
2, 112440, Note_on_c, 0, 86, 0
2, 112440, Note_on_c, 0, 89, 0
2, 112440, Note_on_c, 0, 89, 57
2, 112440, Note_on_c, 0, 86, 61
2, 112500, Note_on_c, 0, 86, 0
2, 112500, Note_on_c, 0, 89, 0
2, 112500, Note_on_c, 0, 84, 64
2, 112500, Note_on_c, 0, 88, 54
2, 112620, Note_on_c, 0, 88, 0
2, 112620, Note_on_c, 0, 84, 0
2, 112680, Note_on_c, 0, 89, 45
2, 112680, Note_on_c, 0, 84, 44
2, 112740, Note_on_c, 0, 84, 0
2, 112740, Note_on_c, 0, 89, 0
2, 112740, Note_on_c, 0, 84, 50
2, 112740, Note_on_c, 0, 89, 55
2, 112800, Note_on_c, 0, 89, 0
2, 112800, Note_on_c, 0, 84, 0
2, 112800, Note_on_c, 0, 89, 61
2, 112800, Note_on_c, 0, 84, 58
2, 112860, Note_on_c, 0, 84, 0
2, 112860, Note_on_c, 0, 89, 0
2, 112860, Note_on_c, 0, 84, 59
2, 112860, Note_on_c, 0, 88, 53
2, 112920, Note_on_c, 0, 88, 0
2, 112920, Note_on_c, 0, 84, 0
2, 112920, Note_on_c, 0, 88, 53
2, 112920, Note_on_c, 0, 84, 57
2, 112980, Note_on_c, 0, 84, 0
2, 112980, Note_on_c, 0, 88, 0
2, 112980, Note_on_c, 0, 84, 53
2, 112980, Note_on_c, 0, 88, 47
2, 113040, Note_on_c, 0, 88, 0
2, 113040, Note_on_c, 0, 84, 0
2, 113040, Note_on_c, 0, 89, 59
2, 113040, Note_on_c, 0, 86, 72
2, 113160, Note_on_c, 0, 86, 0
2, 113160, Note_on_c, 0, 89, 0
2, 113220, Note_on_c, 0, 83, 58
2, 113220, Note_on_c, 0, 86, 58
2, 113340, Note_on_c, 0, 86, 0
2, 113340, Note_on_c, 0, 83, 0
2, 113400, Note_on_c, 0, 84, 52
2, 113400, Note_on_c, 0, 76, 58
2, 113520, Note_on_c, 0, 76, 0
2, 113520, Note_on_c, 0, 84, 0
2, 113580, Note_on_c, 0, 83, 44
2, 113580, Note_on_c, 0, 79, 54
2, 113640, Note_on_c, 0, 79, 0
2, 113640, Note_on_c, 0, 83, 0
2, 113640, Note_on_c, 0, 83, 47
2, 113640, Note_on_c, 0, 79, 57
2, 113700, Note_on_c, 0, 79, 0
2, 113700, Note_on_c, 0, 83, 0
2, 113700, Note_on_c, 0, 83, 40
2, 113700, Note_on_c, 0, 79, 46
2, 113760, Note_on_c, 0, 79, 0
2, 113760, Note_on_c, 0, 83, 0
2, 113760, Note_on_c, 0, 86, 44
2, 113760, Note_on_c, 0, 81, 55
2, 113880, Note_on_c, 0, 81, 0
2, 113880, Note_on_c, 0, 86, 0
2, 113940, Note_on_c, 0, 84, 53
2, 113940, Note_on_c, 0, 76, 65
2, 114000, Note_on_c, 0, 76, 0
2, 114000, Note_on_c, 0, 84, 0
2, 114000, Note_on_c, 0, 84, 52
2, 114000, Note_on_c, 0, 76, 72
2, 114060, Note_on_c, 0, 76, 0
2, 114060, Note_on_c, 0, 84, 0
2, 114060, Note_on_c, 0, 76, 68
2, 114060, Note_on_c, 0, 84, 46
2, 114120, Note_on_c, 0, 84, 0
2, 114120, Note_on_c, 0, 76, 0
2, 114120, Note_on_c, 0, 84, 43
2, 114120, Note_on_c, 0, 77, 58
2, 114240, Note_on_c, 0, 77, 0
2, 114240, Note_on_c, 0, 84, 0
2, 114300, Note_on_c, 0, 84, 52
2, 114420, Note_on_c, 0, 84, 0
2, 114480, Note_on_c, 0, 84, 53
2, 114480, Note_on_c, 0, 86, 60
2, 114600, Note_on_c, 0, 86, 0
2, 114600, Note_on_c, 0, 84, 0
2, 114660, Note_on_c, 0, 84, 66
2, 114660, Note_on_c, 0, 88, 48
2, 114780, Note_on_c, 0, 88, 0
2, 114780, Note_on_c, 0, 84, 0
2, 114840, Note_on_c, 0, 89, 55
2, 114840, Note_on_c, 0, 84, 64
2, 114960, Note_on_c, 0, 84, 0
2, 114960, Note_on_c, 0, 89, 0
2, 115020, Note_on_c, 0, 84, 58
2, 115020, Note_on_c, 0, 72, 35
2, 115140, Note_on_c, 0, 72, 0
2, 115140, Note_on_c, 0, 84, 0
2, 115200, Note_on_c, 0, 84, 57
2, 115200, Note_on_c, 0, 72, 43
2, 115320, Note_on_c, 0, 72, 0
2, 115320, Note_on_c, 0, 84, 0
2, 115380, Note_on_c, 0, 80, 77
2, 115380, Note_on_c, 0, 86, 64
2, 115500, Note_on_c, 0, 86, 0
2, 115500, Note_on_c, 0, 80, 0
2, 115560, Note_on_c, 0, 87, 69
2, 115560, Note_on_c, 0, 81, 93
2, 115640, Control_c, 0, 7, 99
2, 115650, Control_c, 0, 7, 97
2, 115660, Control_c, 0, 7, 94
2, 115670, Control_c, 0, 7, 92
2, 115680, Control_c, 0, 7, 89
2, 115690, Control_c, 0, 7, 87
2, 115700, Control_c, 0, 7, 84
2, 115710, Control_c, 0, 7, 82
2, 115720, Control_c, 0, 7, 79
2, 115730, Control_c, 0, 7, 77
2, 115740, Control_c, 0, 7, 74
2, 115750, Control_c, 0, 7, 72
2, 115760, Control_c, 0, 7, 69
2, 115770, Control_c, 0, 7, 67
2, 115780, Control_c, 0, 7, 64
2, 116280, Note_on_c, 0, 81, 0
2, 116280, Note_on_c, 0, 87, 0
2, 116280, Note_on_c, 0, 79, 81
2, 116280, Note_on_c, 0, 88, 77
2, 116400, Note_on_c, 0, 88, 0
2, 116400, Note_on_c, 0, 79, 0
2, 116570, Control_c, 0, 7, 100
2, 118620, Note_on_c, 0, 84, 64
2, 118680, Note_on_c, 0, 84, 0
2, 118680, Note_on_c, 0, 83, 51
2, 118740, Note_on_c, 0, 83, 0
2, 118740, Note_on_c, 0, 81, 56
2, 118800, Note_on_c, 0, 81, 0
2, 118800, Note_on_c, 0, 83, 64
2, 118860, Note_on_c, 0, 83, 0
2, 118860, Note_on_c, 0, 83, 42
2, 118920, Note_on_c, 0, 83, 0
2, 118920, Note_on_c, 0, 83, 59
2, 118980, Note_on_c, 0, 83, 0
2, 118980, Note_on_c, 0, 83, 42
2, 119040, Note_on_c, 0, 83, 0
2, 119040, Note_on_c, 0, 83, 43
2, 119100, Note_on_c, 0, 83, 0
2, 119100, Note_on_c, 0, 83, 59
2, 119160, Note_on_c, 0, 83, 0
2, 119160, Note_on_c, 0, 84, 67
2, 119190, Note_on_c, 0, 84, 0
2, 119220, Note_on_c, 0, 91, 76
2, 119400, Note_on_c, 0, 91, 0
2, 119400, Note_on_c, 0, 88, 59
2, 119430, Note_on_c, 0, 88, 0
2, 119460, Note_on_c, 0, 84, 70
2, 119490, Note_on_c, 0, 84, 0
2, 119520, Note_on_c, 0, 83, 73
2, 119550, Note_on_c, 0, 83, 0
2, 119580, Note_on_c, 0, 81, 65
2, 119610, Note_on_c, 0, 81, 0
2, 119640, Note_on_c, 0, 79, 68
2, 119670, Note_on_c, 0, 79, 0
2, 119700, Note_on_c, 0, 77, 71
2, 119730, Note_on_c, 0, 77, 0
2, 119760, Note_on_c, 0, 76, 72
2, 119790, Note_on_c, 0, 76, 0
2, 119820, Note_on_c, 0, 74, 69
2, 119850, Note_on_c, 0, 74, 0
2, 119880, Note_on_c, 0, 72, 77
2, 120000, Note_on_c, 0, 72, 0
2, 120600, Note_on_c, 0, 84, 67
2, 120630, Note_on_c, 0, 84, 0
2, 120660, Note_on_c, 0, 91, 76
2, 120840, Note_on_c, 0, 91, 0
2, 120840, Note_on_c, 0, 88, 59
2, 120870, Note_on_c, 0, 88, 0
2, 120900, Note_on_c, 0, 84, 70
2, 120930, Note_on_c, 0, 84, 0
2, 120960, Note_on_c, 0, 83, 73
2, 120990, Note_on_c, 0, 83, 0
2, 121020, Note_on_c, 0, 81, 65
2, 121050, Note_on_c, 0, 81, 0
2, 121080, Note_on_c, 0, 79, 68
2, 121110, Note_on_c, 0, 79, 0
2, 121140, Note_on_c, 0, 77, 71
2, 121170, Note_on_c, 0, 77, 0
2, 121200, Note_on_c, 0, 76, 72
2, 121230, Note_on_c, 0, 76, 0
2, 121260, Note_on_c, 0, 74, 69
2, 121290, Note_on_c, 0, 74, 0
2, 121320, Note_on_c, 0, 72, 77
2, 121440, Note_on_c, 0, 72, 0
2, 123840, Note_on_c, 0, 83, 51
2, 123840, Note_on_c, 0, 86, 61
2, 123960, Note_on_c, 0, 86, 0
2, 123960, Note_on_c, 0, 83, 0
2, 124200, Note_on_c, 0, 76, 98
2, 124200, Note_on_c, 0, 84, 81
2, 124260, Note_on_c, 0, 84, 0
2, 124260, Note_on_c, 0, 76, 0
2, 124260, Note_on_c, 0, 88, 86
2, 124320, Note_on_c, 0, 88, 0
2, 124320, Note_on_c, 0, 86, 94
2, 124380, Note_on_c, 0, 86, 0
2, 124380, Note_on_c, 0, 84, 89
2, 124440, Note_on_c, 0, 84, 0
2, 124440, Note_on_c, 0, 83, 90
2, 124500, Note_on_c, 0, 83, 0
2, 124500, Note_on_c, 0, 81, 90
2, 124560, Note_on_c, 0, 81, 0
2, 124560, Note_on_c, 0, 79, 85
2, 124620, Note_on_c, 0, 79, 0
2, 124620, Note_on_c, 0, 81, 86
2, 124680, Note_on_c, 0, 81, 0
2, 124680, Note_on_c, 0, 79, 90
2, 124740, Note_on_c, 0, 79, 0
2, 124740, Note_on_c, 0, 77, 89
2, 124800, Note_on_c, 0, 77, 0
2, 124800, Note_on_c, 0, 76, 95
2, 124860, Note_on_c, 0, 76, 0
2, 124860, Note_on_c, 0, 74, 99
2, 124920, Note_on_c, 0, 74, 0
2, 124920, Note_on_c, 0, 72, 76
2, 125040, Note_on_c, 0, 72, 0
2, 125100, Note_on_c, 0, 83, 86
2, 125100, Note_on_c, 0, 86, 82
2, 125220, Note_on_c, 0, 86, 0
2, 125220, Note_on_c, 0, 83, 0
2, 125280, Note_on_c, 0, 84, 85
2, 125280, Note_on_c, 0, 88, 81
2, 125400, Note_on_c, 0, 88, 0
2, 125400, Note_on_c, 0, 84, 0
2, 125460, Note_on_c, 0, 83, 80
2, 125460, Note_on_c, 0, 74, 93
2, 125580, Note_on_c, 0, 74, 0
2, 125580, Note_on_c, 0, 83, 0
2, 125640, Note_on_c, 0, 76, 95
2, 125640, Note_on_c, 0, 84, 82
2, 125760, Note_on_c, 0, 84, 0
2, 125760, Note_on_c, 0, 76, 0
2, 126000, Note_on_c, 0, 84, 84
2, 126000, Note_on_c, 0, 76, 99
2, 126120, Note_on_c, 0, 76, 0
2, 126120, Note_on_c, 0, 84, 0
2, 126360, Note_on_c, 0, 72, 99
2, 126480, Note_on_c, 0, 72, 0
2, 126480, End_track
3, 0, Start_track
3, 0, MIDI_port, 0
3, 0, Title_t, "Oboes"
3, 0, Program_c, 1, 68
3, 0, Control_c, 1, 7, 100
3, 0, Control_c, 1, 10, 58
3, 0, Control_c, 1, 93, 0
3, 0, Control_c, 1, 91, 66
3, 1920, Control_c, 1, 7, 75
3, 2100, Note_on_c, 1, 79, 72
3, 2160, Note_on_c, 1, 79, 0
3, 2160, Note_on_c, 1, 80, 72
3, 2220, Note_on_c, 1, 80, 0
3, 2220, Note_on_c, 1, 71, 64
3, 2280, Note_on_c, 1, 71, 0
3, 2280, Note_on_c, 1, 71, 68
3, 2310, Note_on_c, 1, 71, 0
3, 2340, Note_on_c, 1, 71, 72
3, 2370, Note_on_c, 1, 71, 0
3, 2400, Note_on_c, 1, 72, 81
3, 2520, Note_on_c, 1, 72, 0
3, 2520, Note_on_c, 1, 74, 76
3, 2550, Note_on_c, 1, 74, 0
3, 2550, Note_on_c, 1, 72, 89
3, 2580, Note_on_c, 1, 72, 0
3, 2580, Note_on_c, 1, 71, 57
3, 2610, Note_on_c, 1, 71, 0
3, 2610, Note_on_c, 1, 72, 71
3, 2640, Note_on_c, 1, 72, 0
3, 2640, Note_on_c, 1, 71, 74
3, 2640, Note_on_c, 1, 74, 77
3, 2700, Note_on_c, 1, 74, 0
3, 2700, Note_on_c, 1, 71, 0
3, 2700, Note_on_c, 1, 71, 67
3, 2700, Note_on_c, 1, 74, 66
3, 2760, Note_on_c, 1, 74, 0
3, 2760, Note_on_c, 1, 71, 0
3, 2760, Note_on_c, 1, 75, 73
3, 2760, Note_on_c, 1, 72, 29
3, 2820, Note_on_c, 1, 72, 0
3, 2820, Note_on_c, 1, 75, 0
3, 2820, Note_on_c, 1, 72, 70
3, 2820, Note_on_c, 1, 75, 76
3, 2880, Note_on_c, 1, 75, 0
3, 2880, Note_on_c, 1, 72, 0
3, 2880, Note_on_c, 1, 74, 65
3, 2880, Note_on_c, 1, 71, 56
3, 3000, Note_on_c, 1, 71, 0
3, 3060, Note_on_c, 1, 74, 0
3, 3060, Note_on_c, 1, 79, 74
3, 3120, Note_on_c, 1, 79, 0
3, 3120, Note_on_c, 1, 80, 76
3, 3180, Note_on_c, 1, 80, 0
3, 3180, Note_on_c, 1, 71, 65
3, 3240, Note_on_c, 1, 71, 0
3, 3240, Note_on_c, 1, 71, 76
3, 3270, Note_on_c, 1, 71, 0
3, 3300, Note_on_c, 1, 71, 73
3, 3330, Note_on_c, 1, 71, 0
3, 3360, Note_on_c, 1, 72, 76
3, 3480, Note_on_c, 1, 72, 0
3, 3480, Note_on_c, 1, 74, 84
3, 3510, Note_on_c, 1, 74, 0
3, 3510, Note_on_c, 1, 72, 78
3, 3540, Note_on_c, 1, 72, 0
3, 3540, Note_on_c, 1, 71, 78
3, 3570, Note_on_c, 1, 71, 0
3, 3570, Note_on_c, 1, 72, 84
3, 3600, Note_on_c, 1, 72, 0
3, 3600, Note_on_c, 1, 67, 82
3, 3600, Note_on_c, 1, 74, 77
3, 3660, Note_on_c, 1, 74, 0
3, 3660, Note_on_c, 1, 67, 0
3, 3660, Note_on_c, 1, 70, 76
3, 3660, Note_on_c, 1, 67, 80
3, 3720, Note_on_c, 1, 67, 0
3, 3720, Note_on_c, 1, 70, 0
3, 3720, Note_on_c, 1, 69, 68
3, 3720, Note_on_c, 1, 66, 73
3, 3780, Note_on_c, 1, 66, 0
3, 3780, Note_on_c, 1, 69, 0
3, 3780, Note_on_c, 1, 66, 68
3, 3780, Note_on_c, 1, 74, 73
3, 3840, Note_on_c, 1, 74, 0
3, 3840, Note_on_c, 1, 66, 0
3, 3840, Note_on_c, 1, 67, 77
3, 3960, Note_on_c, 1, 67, 0
3, 4205, Control_c, 1, 7, 99
3, 9600, Control_c, 1, 7, 88
3, 9660, Note_on_c, 1, 72, 50
3, 9660, Note_on_c, 1, 76, 85
3, 9690, Note_on_c, 1, 76, 0
3, 9690, Note_on_c, 1, 72, 0
3, 9720, Note_on_c, 1, 72, 54
3, 9720, Note_on_c, 1, 76, 82
3, 9750, Note_on_c, 1, 76, 0
3, 9750, Note_on_c, 1, 72, 0
3, 9780, Note_on_c, 1, 76, 90
3, 9780, Note_on_c, 1, 72, 71
3, 9810, Note_on_c, 1, 72, 0
3, 9810, Note_on_c, 1, 76, 0
3, 9840, Note_on_c, 1, 72, 78
3, 9840, Note_on_c, 1, 77, 72
3, 9870, Note_on_c, 1, 77, 0
3, 9870, Note_on_c, 1, 72, 0
3, 10140, Note_on_c, 1, 70, 82
3, 10140, Note_on_c, 1, 74, 71
3, 10170, Note_on_c, 1, 74, 0
3, 10170, Note_on_c, 1, 70, 0
3, 10200, Note_on_c, 1, 70, 80
3, 10200, Note_on_c, 1, 74, 77
3, 10230, Note_on_c, 1, 74, 0
3, 10230, Note_on_c, 1, 70, 0
3, 10260, Note_on_c, 1, 70, 84
3, 10260, Note_on_c, 1, 74, 76
3, 10290, Note_on_c, 1, 74, 0
3, 10290, Note_on_c, 1, 70, 0
3, 10320, Note_on_c, 1, 75, 84
3, 10320, Note_on_c, 1, 70, 80
3, 10350, Note_on_c, 1, 70, 0
3, 10350, Note_on_c, 1, 75, 0
3, 10500, Note_on_c, 1, 79, 53
3, 10500, Note_on_c, 1, 67, 61
3, 10560, Note_on_c, 1, 67, 0
3, 10560, Note_on_c, 1, 79, 0
3, 10560, Note_on_c, 1, 77, 72
3, 10560, Note_on_c, 1, 72, 29
3, 10560, Note_on_c, 1, 72, 64
3, 10680, Note_on_c, 1, 72, 0
3, 10680, Note_on_c, 1, 72, 0
3, 10680, Note_on_c, 1, 77, 0
3, 10680, Note_on_c, 1, 78, 78
3, 10680, Note_on_c, 1, 72, 62
3, 10800, Note_on_c, 1, 72, 0
3, 10800, Note_on_c, 1, 78, 0
3, 10800, Note_on_c, 1, 71, 72
3, 10800, Note_on_c, 1, 79, 60
3, 10980, Note_on_c, 1, 79, 0
3, 10980, Note_on_c, 1, 71, 0
3, 10980, Note_on_c, 1, 71, 71
3, 10980, Note_on_c, 1, 79, 50
3, 11040, Note_on_c, 1, 79, 0
3, 11040, Note_on_c, 1, 71, 0
3, 11040, Note_on_c, 1, 77, 68
3, 11070, Note_on_c, 1, 77, 0
3, 11100, Note_on_c, 1, 75, 94
3, 11130, Note_on_c, 1, 75, 0
3, 11160, Note_on_c, 1, 74, 94
3, 11160, Note_on_c, 1, 78, 76
3, 11190, Note_on_c, 1, 74, 0
3, 11220, Note_on_c, 1, 72, 84
3, 11250, Note_on_c, 1, 72, 0
3, 11280, Note_on_c, 1, 78, 0
3, 11280, Note_on_c, 1, 71, 73
3, 11280, Note_on_c, 1, 79, 52
3, 11460, Note_on_c, 1, 79, 0
3, 11460, Note_on_c, 1, 71, 0
3, 11460, Note_on_c, 1, 79, 72
3, 11520, Note_on_c, 1, 79, 0
3, 11520, Note_on_c, 1, 77, 81
3, 11550, Note_on_c, 1, 77, 0
3, 11580, Note_on_c, 1, 75, 89
3, 11610, Note_on_c, 1, 75, 0
3, 11640, Note_on_c, 1, 74, 99
3, 11640, Note_on_c, 1, 78, 72
3, 11670, Note_on_c, 1, 74, 0
3, 11700, Note_on_c, 1, 72, 86
3, 11730, Note_on_c, 1, 72, 0
3, 11760, Note_on_c, 1, 78, 0
3, 11760, Note_on_c, 1, 71, 73
3, 11760, Note_on_c, 1, 79, 64
3, 11825, Control_c, 1, 7, 99
3, 11830, Control_c, 1, 7, 97
3, 11835, Control_c, 1, 7, 94
3, 11840, Control_c, 1, 7, 91
3, 11845, Control_c, 1, 7, 88
3, 11850, Control_c, 1, 7, 86
3, 11855, Control_c, 1, 7, 83
3, 11860, Control_c, 1, 7, 80
3, 11865, Control_c, 1, 7, 77
3, 11870, Control_c, 1, 7, 75
3, 11875, Control_c, 1, 7, 72
3, 11880, Control_c, 1, 7, 69
3, 11885, Control_c, 1, 7, 66
3, 11940, Note_on_c, 1, 79, 0
3, 11940, Note_on_c, 1, 71, 0
3, 11940, Note_on_c, 1, 80, 68
3, 12000, Note_on_c, 1, 80, 0
3, 12000, Note_on_c, 1, 81, 46
3, 12060, Note_on_c, 1, 81, 0
3, 12060, Note_on_c, 1, 71, 50
3, 12120, Note_on_c, 1, 71, 0
3, 12120, Note_on_c, 1, 71, 69
3, 12150, Note_on_c, 1, 71, 0
3, 12180, Note_on_c, 1, 71, 74
3, 12210, Note_on_c, 1, 71, 0
3, 12240, Note_on_c, 1, 67, 84
3, 12240, Control_c, 1, 7, 84
3, 12240, Note_on_c, 1, 72, 76
3, 12360, Note_on_c, 1, 72, 0
3, 12360, Control_c, 1, 7, 64
3, 12360, Note_on_c, 1, 74, 81
3, 12390, Note_on_c, 1, 74, 0
3, 12390, Note_on_c, 1, 72, 81
3, 12420, Note_on_c, 1, 72, 0
3, 12420, Note_on_c, 1, 67, 0
3, 12420, Note_on_c, 1, 67, 58
3, 12420, Note_on_c, 1, 71, 71
3, 12450, Note_on_c, 1, 71, 0
3, 12450, Note_on_c, 1, 72, 78
3, 12480, Note_on_c, 1, 72, 0
3, 12480, Note_on_c, 1, 67, 0
3, 12480, Note_on_c, 1, 74, 61
3, 12480, Note_on_c, 1, 71, 72
3, 12510, Note_on_c, 1, 71, 0
3, 12510, Note_on_c, 1, 74, 0
3, 12540, Note_on_c, 1, 74, 68
3, 12540, Note_on_c, 1, 71, 72
3, 12570, Note_on_c, 1, 71, 0
3, 12570, Note_on_c, 1, 74, 0
3, 12600, Note_on_c, 1, 76, 61
3, 12600, Note_on_c, 1, 72, 72
3, 12630, Note_on_c, 1, 72, 0
3, 12630, Note_on_c, 1, 76, 0
3, 12660, Note_on_c, 1, 76, 71
3, 12660, Note_on_c, 1, 72, 38
3, 12690, Note_on_c, 1, 72, 0
3, 12690, Note_on_c, 1, 76, 0
3, 12720, Note_on_c, 1, 71, 58
3, 12720, Note_on_c, 1, 74, 46
3, 12840, Note_on_c, 1, 74, 0
3, 12840, Note_on_c, 1, 71, 0
3, 12845, Control_c, 1, 7, 66
3, 12850, Control_c, 1, 7, 67
3, 12855, Control_c, 1, 7, 68
3, 12860, Control_c, 1, 7, 70
3, 12865, Control_c, 1, 7, 71
3, 12870, Control_c, 1, 7, 73
3, 12875, Control_c, 1, 7, 74
3, 12880, Control_c, 1, 7, 76
3, 12885, Control_c, 1, 7, 77
3, 12890, Control_c, 1, 7, 78
3, 12895, Control_c, 1, 7, 80
3, 12900, Control_c, 1, 7, 81
3, 12900, Note_on_c, 1, 79, 73
3, 12900, Note_on_c, 1, 79, 69
3, 12905, Control_c, 1, 7, 83
3, 12910, Control_c, 1, 7, 84
3, 12915, Control_c, 1, 7, 86
3, 12920, Control_c, 1, 7, 87
3, 12925, Control_c, 1, 7, 88
3, 12930, Control_c, 1, 7, 90
3, 12935, Control_c, 1, 7, 91
3, 12940, Control_c, 1, 7, 93
3, 12945, Control_c, 1, 7, 94
3, 12950, Control_c, 1, 7, 96
3, 12955, Control_c, 1, 7, 97
3, 12960, Note_on_c, 1, 79, 0
3, 12960, Note_on_c, 1, 79, 0
3, 12960, Control_c, 1, 7, 99
3, 12960, Note_on_c, 1, 80, 80
3, 13020, Note_on_c, 1, 80, 0
3, 13020, Note_on_c, 1, 71, 56
3, 13020, Note_on_c, 1, 83, 65
3, 13080, Note_on_c, 1, 83, 0
3, 13080, Note_on_c, 1, 71, 0
3, 13080, Note_on_c, 1, 83, 60
3, 13080, Note_on_c, 1, 71, 69
3, 13110, Note_on_c, 1, 71, 0
3, 13110, Note_on_c, 1, 83, 0
3, 13140, Note_on_c, 1, 83, 65
3, 13140, Note_on_c, 1, 71, 73
3, 13170, Note_on_c, 1, 71, 0
3, 13170, Note_on_c, 1, 83, 0
3, 13200, Note_on_c, 1, 84, 62
3, 13200, Note_on_c, 1, 72, 31
3, 13320, Note_on_c, 1, 72, 0
3, 13320, Note_on_c, 1, 84, 0
3, 13320, Note_on_c, 1, 74, 77
3, 13350, Note_on_c, 1, 74, 0
3, 13350, Note_on_c, 1, 72, 80
3, 13380, Note_on_c, 1, 72, 0
3, 13380, Note_on_c, 1, 71, 78
3, 13410, Note_on_c, 1, 71, 0
3, 13410, Note_on_c, 1, 72, 81
3, 13440, Note_on_c, 1, 72, 0
3, 13440, Note_on_c, 1, 72, 59
3, 13440, Note_on_c, 1, 74, 80
3, 13470, Note_on_c, 1, 74, 0
3, 13470, Note_on_c, 1, 72, 0
3, 13500, Note_on_c, 1, 74, 84
3, 13500, Note_on_c, 1, 72, 58
3, 13530, Note_on_c, 1, 72, 0
3, 13530, Note_on_c, 1, 74, 0
3, 13560, Note_on_c, 1, 71, 76
3, 13560, Note_on_c, 1, 74, 93
3, 13590, Note_on_c, 1, 74, 0
3, 13590, Note_on_c, 1, 71, 0
3, 13620, Note_on_c, 1, 71, 78
3, 13620, Note_on_c, 1, 74, 80
3, 13650, Note_on_c, 1, 74, 0
3, 13650, Note_on_c, 1, 71, 0
3, 13680, Note_on_c, 1, 79, 72
3, 13680, Note_on_c, 1, 72, 64
3, 13800, Note_on_c, 1, 72, 0
3, 13800, Note_on_c, 1, 79, 0
3, 13800, Note_on_c, 1, 74, 86
3, 13800, Note_on_c, 1, 77, 68
3, 13830, Note_on_c, 1, 77, 0
3, 13830, Note_on_c, 1, 74, 0
3, 13830, Note_on_c, 1, 75, 82
3, 13830, Note_on_c, 1, 72, 62
3, 13860, Note_on_c, 1, 72, 0
3, 13860, Note_on_c, 1, 75, 0
3, 13860, Note_on_c, 1, 71, 71
3, 13860, Note_on_c, 1, 74, 93
3, 13890, Note_on_c, 1, 74, 0
3, 13890, Note_on_c, 1, 71, 0
3, 13890, Note_on_c, 1, 75, 84
3, 13890, Note_on_c, 1, 72, 60
3, 13920, Note_on_c, 1, 72, 0
3, 13920, Note_on_c, 1, 75, 0
3, 13920, Note_on_c, 1, 74, 76
3, 13920, Note_on_c, 1, 77, 68
3, 13950, Note_on_c, 1, 77, 0
3, 13950, Note_on_c, 1, 74, 0
3, 13980, Note_on_c, 1, 74, 89
3, 13980, Note_on_c, 1, 77, 76
3, 14010, Note_on_c, 1, 77, 0
3, 14010, Note_on_c, 1, 74, 0
3, 14040, Note_on_c, 1, 71, 80
3, 14040, Note_on_c, 1, 74, 86
3, 14070, Note_on_c, 1, 74, 0
3, 14070, Note_on_c, 1, 71, 0
3, 14100, Note_on_c, 1, 71, 73
3, 14100, Note_on_c, 1, 74, 81
3, 14130, Note_on_c, 1, 74, 0
3, 14130, Note_on_c, 1, 71, 0
3, 14160, Note_on_c, 1, 79, 68
3, 14160, Note_on_c, 1, 72, 53
3, 14280, Note_on_c, 1, 72, 0
3, 14280, Note_on_c, 1, 79, 0
3, 14280, Note_on_c, 1, 77, 62
3, 14280, Note_on_c, 1, 74, 82
3, 14310, Note_on_c, 1, 74, 0
3, 14310, Note_on_c, 1, 77, 0
3, 14310, Note_on_c, 1, 75, 80
3, 14310, Note_on_c, 1, 72, 29
3, 14340, Note_on_c, 1, 72, 0
3, 14340, Note_on_c, 1, 75, 0
3, 14340, Note_on_c, 1, 71, 76
3, 14340, Note_on_c, 1, 74, 84
3, 14370, Note_on_c, 1, 74, 0
3, 14370, Note_on_c, 1, 71, 0
3, 14370, Note_on_c, 1, 75, 86
3, 14370, Note_on_c, 1, 72, 65
3, 14400, Note_on_c, 1, 72, 0
3, 14400, Note_on_c, 1, 75, 0
3, 14400, Note_on_c, 1, 74, 85
3, 14400, Note_on_c, 1, 77, 67
3, 14430, Note_on_c, 1, 77, 0
3, 14430, Note_on_c, 1, 74, 0
3, 14460, Note_on_c, 1, 77, 76
3, 14460, Note_on_c, 1, 74, 84
3, 14490, Note_on_c, 1, 74, 0
3, 14490, Note_on_c, 1, 77, 0
3, 14520, Note_on_c, 1, 71, 84
3, 14520, Note_on_c, 1, 74, 94
3, 14550, Note_on_c, 1, 74, 0
3, 14550, Note_on_c, 1, 71, 0
3, 14580, Note_on_c, 1, 74, 76
3, 14580, Note_on_c, 1, 71, 78
3, 14610, Note_on_c, 1, 71, 0
3, 14610, Note_on_c, 1, 74, 0
3, 14640, Note_on_c, 1, 72, 76
3, 14700, Note_on_c, 1, 72, 0
3, 14760, Note_on_c, 1, 67, 74
3, 14760, Note_on_c, 1, 79, 74
3, 14820, Note_on_c, 1, 79, 0
3, 14820, Note_on_c, 1, 67, 0
3, 14880, Note_on_c, 1, 60, 84
3, 14880, Note_on_c, 1, 72, 68
3, 14940, Note_on_c, 1, 72, 0
3, 14940, Note_on_c, 1, 60, 0
3, 15120, Note_on_c, 1, 75, 89
3, 15120, Note_on_c, 1, 72, 72
3, 15240, Note_on_c, 1, 72, 0
3, 15240, Note_on_c, 1, 75, 0
3, 15240, Note_on_c, 1, 72, 65
3, 15240, Note_on_c, 1, 75, 89
3, 15330, Note_on_c, 1, 75, 0
3, 15330, Note_on_c, 1, 72, 0
3, 15330, Note_on_c, 1, 72, 57
3, 15330, Note_on_c, 1, 75, 82
3, 15360, Note_on_c, 1, 75, 0
3, 15360, Note_on_c, 1, 72, 0
3, 15360, Note_on_c, 1, 75, 89
3, 15360, Note_on_c, 1, 72, 61
3, 15480, Note_on_c, 1, 72, 0
3, 15480, Note_on_c, 1, 75, 0
3, 16080, Note_on_c, 1, 80, 72
3, 16080, Note_on_c, 1, 72, 76
3, 16200, Note_on_c, 1, 72, 0
3, 16200, Note_on_c, 1, 80, 0
3, 16200, Note_on_c, 1, 80, 84
3, 16200, Note_on_c, 1, 72, 80
3, 16290, Note_on_c, 1, 72, 0
3, 16290, Note_on_c, 1, 80, 0
3, 16290, Note_on_c, 1, 80, 74
3, 16290, Note_on_c, 1, 72, 84
3, 16320, Note_on_c, 1, 72, 0
3, 16320, Note_on_c, 1, 80, 0
3, 16320, Note_on_c, 1, 80, 80
3, 16320, Note_on_c, 1, 72, 85
3, 16440, Note_on_c, 1, 72, 0
3, 16440, Note_on_c, 1, 80, 0
3, 28380, Note_on_c, 1, 71, 69
3, 28380, Note_on_c, 1, 79, 54
3, 28440, Note_on_c, 1, 71, 0
3, 28440, Note_on_c, 1, 74, 64
3, 28500, Note_on_c, 1, 74, 0
3, 28500, Note_on_c, 1, 79, 0
3, 28500, Note_on_c, 1, 71, 61
3, 28500, Note_on_c, 1, 77, 65
3, 28560, Note_on_c, 1, 77, 0
3, 28560, Note_on_c, 1, 71, 0
3, 28560, Note_on_c, 1, 67, 57
3, 28560, Note_on_c, 1, 75, 67
3, 28620, Note_on_c, 1, 75, 0
3, 28620, Note_on_c, 1, 67, 0
3, 28860, Note_on_c, 1, 71, 71
3, 28860, Note_on_c, 1, 79, 65
3, 28890, Note_on_c, 1, 71, 0
3, 28890, Note_on_c, 1, 72, 80
3, 28920, Note_on_c, 1, 72, 0
3, 28920, Note_on_c, 1, 74, 73
3, 28950, Note_on_c, 1, 74, 0
3, 28980, Note_on_c, 1, 79, 0
3, 28980, Note_on_c, 1, 71, 68
3, 28980, Note_on_c, 1, 77, 69
3, 29010, Note_on_c, 1, 71, 0
3, 29040, Note_on_c, 1, 77, 0
3, 29040, Note_on_c, 1, 67, 68
3, 29040, Note_on_c, 1, 75, 72
3, 29100, Note_on_c, 1, 75, 0
3, 29100, Note_on_c, 1, 67, 0
3, 29640, Note_on_c, 1, 65, 45
3, 29640, Note_on_c, 1, 74, 45
3, 29760, Note_on_c, 1, 74, 0
3, 29760, Note_on_c, 1, 65, 0
3, 29880, Note_on_c, 1, 71, 58
3, 29880, Note_on_c, 1, 74, 51
3, 30000, Note_on_c, 1, 74, 0
3, 30000, Note_on_c, 1, 71, 0
3, 30120, Note_on_c, 1, 77, 43
3, 30120, Note_on_c, 1, 74, 44
3, 30240, Note_on_c, 1, 74, 0
3, 30240, Note_on_c, 1, 77, 0
3, 30240, Note_on_c, 1, 77, 44
3, 30240, Note_on_c, 1, 74, 45
3, 30360, Note_on_c, 1, 74, 0
3, 30360, Note_on_c, 1, 77, 0
3, 33840, Control_c, 1, 7, 75
3, 34020, Note_on_c, 1, 79, 72
3, 34080, Note_on_c, 1, 79, 0
3, 34080, Note_on_c, 1, 80, 72
3, 34140, Note_on_c, 1, 80, 0
3, 34140, Note_on_c, 1, 71, 64
3, 34200, Note_on_c, 1, 71, 0
3, 34200, Note_on_c, 1, 71, 68
3, 34230, Note_on_c, 1, 71, 0
3, 34260, Note_on_c, 1, 71, 72
3, 34290, Note_on_c, 1, 71, 0
3, 34320, Note_on_c, 1, 72, 81
3, 34440, Note_on_c, 1, 72, 0
3, 34440, Note_on_c, 1, 74, 76
3, 34470, Note_on_c, 1, 74, 0
3, 34470, Note_on_c, 1, 72, 89
3, 34500, Note_on_c, 1, 72, 0
3, 34500, Note_on_c, 1, 71, 57
3, 34530, Note_on_c, 1, 71, 0
3, 34530, Note_on_c, 1, 72, 71
3, 34560, Note_on_c, 1, 72, 0
3, 34560, Note_on_c, 1, 71, 74
3, 34560, Note_on_c, 1, 74, 77
3, 34620, Note_on_c, 1, 74, 0
3, 34620, Note_on_c, 1, 71, 0
3, 34620, Note_on_c, 1, 71, 67
3, 34620, Note_on_c, 1, 74, 66
3, 34680, Note_on_c, 1, 74, 0
3, 34680, Note_on_c, 1, 71, 0
3, 34680, Note_on_c, 1, 75, 73
3, 34680, Note_on_c, 1, 72, 29
3, 34740, Note_on_c, 1, 72, 0
3, 34740, Note_on_c, 1, 75, 0
3, 34740, Note_on_c, 1, 72, 70
3, 34740, Note_on_c, 1, 75, 76
3, 34800, Note_on_c, 1, 75, 0
3, 34800, Note_on_c, 1, 72, 0
3, 34800, Note_on_c, 1, 74, 65
3, 34800, Note_on_c, 1, 71, 56
3, 34920, Note_on_c, 1, 71, 0
3, 34980, Note_on_c, 1, 74, 0
3, 34980, Note_on_c, 1, 79, 74
3, 35040, Note_on_c, 1, 79, 0
3, 35040, Note_on_c, 1, 80, 76
3, 35100, Note_on_c, 1, 80, 0
3, 35100, Note_on_c, 1, 71, 65
3, 35160, Note_on_c, 1, 71, 0
3, 35160, Note_on_c, 1, 71, 76
3, 35190, Note_on_c, 1, 71, 0
3, 35220, Note_on_c, 1, 71, 73
3, 35250, Note_on_c, 1, 71, 0
3, 35280, Note_on_c, 1, 72, 76
3, 35400, Note_on_c, 1, 72, 0
3, 35400, Note_on_c, 1, 74, 84
3, 35430, Note_on_c, 1, 74, 0
3, 35430, Note_on_c, 1, 72, 78
3, 35460, Note_on_c, 1, 72, 0
3, 35460, Note_on_c, 1, 71, 78
3, 35490, Note_on_c, 1, 71, 0
3, 35490, Note_on_c, 1, 72, 84
3, 35520, Note_on_c, 1, 72, 0
3, 35520, Note_on_c, 1, 67, 82
3, 35520, Note_on_c, 1, 74, 77
3, 35580, Note_on_c, 1, 74, 0
3, 35580, Note_on_c, 1, 67, 0
3, 35580, Note_on_c, 1, 70, 76
3, 35580, Note_on_c, 1, 67, 80
3, 35640, Note_on_c, 1, 67, 0
3, 35640, Note_on_c, 1, 70, 0
3, 35640, Note_on_c, 1, 69, 68
3, 35640, Note_on_c, 1, 66, 73
3, 35700, Note_on_c, 1, 66, 0
3, 35700, Note_on_c, 1, 69, 0
3, 35700, Note_on_c, 1, 66, 68
3, 35700, Note_on_c, 1, 74, 73
3, 35760, Note_on_c, 1, 74, 0
3, 35760, Note_on_c, 1, 66, 0
3, 35760, Note_on_c, 1, 67, 77
3, 35880, Note_on_c, 1, 67, 0
3, 36125, Control_c, 1, 7, 99
3, 42720, Control_c, 1, 7, 88
3, 42780, Note_on_c, 1, 72, 50
3, 42780, Note_on_c, 1, 76, 85
3, 42810, Note_on_c, 1, 76, 0
3, 42810, Note_on_c, 1, 72, 0
3, 42840, Note_on_c, 1, 72, 54
3, 42840, Note_on_c, 1, 76, 82
3, 42870, Note_on_c, 1, 76, 0
3, 42870, Note_on_c, 1, 72, 0
3, 42900, Note_on_c, 1, 76, 90
3, 42900, Note_on_c, 1, 72, 71
3, 42930, Note_on_c, 1, 72, 0
3, 42930, Note_on_c, 1, 76, 0
3, 42960, Note_on_c, 1, 72, 78
3, 42960, Note_on_c, 1, 77, 72
3, 42990, Note_on_c, 1, 77, 0
3, 42990, Note_on_c, 1, 72, 0
3, 43260, Note_on_c, 1, 70, 82
3, 43260, Note_on_c, 1, 74, 71
3, 43290, Note_on_c, 1, 74, 0
3, 43290, Note_on_c, 1, 70, 0
3, 43320, Note_on_c, 1, 70, 80
3, 43320, Note_on_c, 1, 74, 77
3, 43350, Note_on_c, 1, 74, 0
3, 43350, Note_on_c, 1, 70, 0
3, 43380, Note_on_c, 1, 70, 84
3, 43380, Note_on_c, 1, 74, 76
3, 43410, Note_on_c, 1, 74, 0
3, 43410, Note_on_c, 1, 70, 0
3, 43440, Note_on_c, 1, 75, 84
3, 43440, Note_on_c, 1, 70, 80
3, 43470, Note_on_c, 1, 70, 0
3, 43470, Note_on_c, 1, 75, 0
3, 43620, Note_on_c, 1, 79, 53
3, 43620, Note_on_c, 1, 67, 61
3, 43680, Note_on_c, 1, 67, 0
3, 43680, Note_on_c, 1, 79, 0
3, 43680, Note_on_c, 1, 77, 72
3, 43680, Note_on_c, 1, 72, 29
3, 43680, Note_on_c, 1, 72, 64
3, 43800, Note_on_c, 1, 72, 0
3, 43800, Note_on_c, 1, 72, 0
3, 43800, Note_on_c, 1, 77, 0
3, 43800, Note_on_c, 1, 78, 78
3, 43800, Note_on_c, 1, 72, 62
3, 43920, Note_on_c, 1, 72, 0
3, 43920, Note_on_c, 1, 78, 0
3, 43920, Note_on_c, 1, 71, 72
3, 43920, Note_on_c, 1, 79, 60
3, 44100, Note_on_c, 1, 79, 0
3, 44100, Note_on_c, 1, 71, 0
3, 44100, Note_on_c, 1, 71, 71
3, 44100, Note_on_c, 1, 79, 50
3, 44160, Note_on_c, 1, 79, 0
3, 44160, Note_on_c, 1, 71, 0
3, 44160, Note_on_c, 1, 77, 68
3, 44190, Note_on_c, 1, 77, 0
3, 44220, Note_on_c, 1, 75, 94
3, 44250, Note_on_c, 1, 75, 0
3, 44280, Note_on_c, 1, 74, 94
3, 44280, Note_on_c, 1, 78, 76
3, 44310, Note_on_c, 1, 74, 0
3, 44340, Note_on_c, 1, 72, 84
3, 44370, Note_on_c, 1, 72, 0
3, 44400, Note_on_c, 1, 78, 0
3, 44400, Note_on_c, 1, 71, 73
3, 44400, Note_on_c, 1, 79, 52
3, 44580, Note_on_c, 1, 79, 0
3, 44580, Note_on_c, 1, 71, 0
3, 44580, Note_on_c, 1, 79, 72
3, 44640, Note_on_c, 1, 79, 0
3, 44640, Note_on_c, 1, 77, 81
3, 44670, Note_on_c, 1, 77, 0
3, 44700, Note_on_c, 1, 75, 89
3, 44730, Note_on_c, 1, 75, 0
3, 44760, Note_on_c, 1, 74, 99
3, 44760, Note_on_c, 1, 78, 72
3, 44790, Note_on_c, 1, 74, 0
3, 44820, Note_on_c, 1, 72, 86
3, 44850, Note_on_c, 1, 72, 0
3, 44880, Note_on_c, 1, 78, 0
3, 44880, Note_on_c, 1, 71, 73
3, 44880, Note_on_c, 1, 79, 64
3, 44945, Control_c, 1, 7, 99
3, 44950, Control_c, 1, 7, 97
3, 44955, Control_c, 1, 7, 94
3, 44960, Control_c, 1, 7, 91
3, 44965, Control_c, 1, 7, 88
3, 44970, Control_c, 1, 7, 86
3, 44975, Control_c, 1, 7, 83
3, 44980, Control_c, 1, 7, 80
3, 44985, Control_c, 1, 7, 77
3, 44990, Control_c, 1, 7, 75
3, 44995, Control_c, 1, 7, 72
3, 45000, Control_c, 1, 7, 69
3, 45005, Control_c, 1, 7, 66
3, 45060, Note_on_c, 1, 79, 0
3, 45060, Note_on_c, 1, 71, 0
3, 45060, Note_on_c, 1, 80, 68
3, 45120, Note_on_c, 1, 80, 0
3, 45120, Note_on_c, 1, 81, 46
3, 45180, Note_on_c, 1, 81, 0
3, 45180, Note_on_c, 1, 71, 50
3, 45240, Note_on_c, 1, 71, 0
3, 45240, Note_on_c, 1, 71, 69
3, 45270, Note_on_c, 1, 71, 0
3, 45300, Note_on_c, 1, 71, 74
3, 45330, Note_on_c, 1, 71, 0
3, 45360, Note_on_c, 1, 67, 84
3, 45360, Control_c, 1, 7, 84
3, 45360, Note_on_c, 1, 72, 76
3, 45480, Note_on_c, 1, 72, 0
3, 45480, Control_c, 1, 7, 64
3, 45480, Note_on_c, 1, 74, 81
3, 45510, Note_on_c, 1, 74, 0
3, 45510, Note_on_c, 1, 72, 81
3, 45540, Note_on_c, 1, 72, 0
3, 45540, Note_on_c, 1, 67, 0
3, 45540, Note_on_c, 1, 67, 58
3, 45540, Note_on_c, 1, 71, 71
3, 45570, Note_on_c, 1, 71, 0
3, 45570, Note_on_c, 1, 72, 78
3, 45600, Note_on_c, 1, 72, 0
3, 45600, Note_on_c, 1, 67, 0
3, 45600, Note_on_c, 1, 74, 61
3, 45600, Note_on_c, 1, 71, 72
3, 45630, Note_on_c, 1, 71, 0
3, 45630, Note_on_c, 1, 74, 0
3, 45660, Note_on_c, 1, 74, 68
3, 45660, Note_on_c, 1, 71, 72
3, 45690, Note_on_c, 1, 71, 0
3, 45690, Note_on_c, 1, 74, 0
3, 45720, Note_on_c, 1, 76, 61
3, 45720, Note_on_c, 1, 72, 72
3, 45750, Note_on_c, 1, 72, 0
3, 45750, Note_on_c, 1, 76, 0
3, 45780, Note_on_c, 1, 76, 71
3, 45780, Note_on_c, 1, 72, 38
3, 45810, Note_on_c, 1, 72, 0
3, 45810, Note_on_c, 1, 76, 0
3, 45840, Note_on_c, 1, 71, 58
3, 45840, Note_on_c, 1, 74, 46
3, 45960, Note_on_c, 1, 74, 0
3, 45960, Note_on_c, 1, 71, 0
3, 45965, Control_c, 1, 7, 66
3, 45970, Control_c, 1, 7, 67
3, 45975, Control_c, 1, 7, 68
3, 45980, Control_c, 1, 7, 70
3, 45985, Control_c, 1, 7, 71
3, 45990, Control_c, 1, 7, 73
3, 45995, Control_c, 1, 7, 74
3, 46000, Control_c, 1, 7, 76
3, 46005, Control_c, 1, 7, 77
3, 46010, Control_c, 1, 7, 78
3, 46015, Control_c, 1, 7, 80
3, 46020, Control_c, 1, 7, 81
3, 46020, Note_on_c, 1, 79, 73
3, 46020, Note_on_c, 1, 79, 69
3, 46025, Control_c, 1, 7, 83
3, 46030, Control_c, 1, 7, 84
3, 46035, Control_c, 1, 7, 86
3, 46040, Control_c, 1, 7, 87
3, 46045, Control_c, 1, 7, 88
3, 46050, Control_c, 1, 7, 90
3, 46055, Control_c, 1, 7, 91
3, 46060, Control_c, 1, 7, 93
3, 46065, Control_c, 1, 7, 94
3, 46070, Control_c, 1, 7, 96
3, 46075, Control_c, 1, 7, 97
3, 46080, Note_on_c, 1, 79, 0
3, 46080, Note_on_c, 1, 79, 0
3, 46080, Control_c, 1, 7, 99
3, 46080, Note_on_c, 1, 80, 80
3, 46140, Note_on_c, 1, 80, 0
3, 46140, Note_on_c, 1, 71, 56
3, 46140, Note_on_c, 1, 83, 65
3, 46200, Note_on_c, 1, 83, 0
3, 46200, Note_on_c, 1, 71, 0
3, 46200, Note_on_c, 1, 83, 60
3, 46200, Note_on_c, 1, 71, 69
3, 46230, Note_on_c, 1, 71, 0
3, 46230, Note_on_c, 1, 83, 0
3, 46260, Note_on_c, 1, 83, 65
3, 46260, Note_on_c, 1, 71, 73
3, 46290, Note_on_c, 1, 71, 0
3, 46290, Note_on_c, 1, 83, 0
3, 46320, Note_on_c, 1, 84, 62
3, 46320, Note_on_c, 1, 72, 31
3, 46440, Note_on_c, 1, 72, 0
3, 46440, Note_on_c, 1, 84, 0
3, 46440, Note_on_c, 1, 74, 77
3, 46470, Note_on_c, 1, 74, 0
3, 46470, Note_on_c, 1, 72, 80
3, 46500, Note_on_c, 1, 72, 0
3, 46500, Note_on_c, 1, 71, 78
3, 46530, Note_on_c, 1, 71, 0
3, 46530, Note_on_c, 1, 72, 81
3, 46560, Note_on_c, 1, 72, 0
3, 46560, Note_on_c, 1, 72, 59
3, 46560, Note_on_c, 1, 74, 80
3, 46590, Note_on_c, 1, 74, 0
3, 46590, Note_on_c, 1, 72, 0
3, 46620, Note_on_c, 1, 74, 84
3, 46620, Note_on_c, 1, 72, 58
3, 46650, Note_on_c, 1, 72, 0
3, 46650, Note_on_c, 1, 74, 0
3, 46680, Note_on_c, 1, 71, 76
3, 46680, Note_on_c, 1, 74, 93
3, 46710, Note_on_c, 1, 74, 0
3, 46710, Note_on_c, 1, 71, 0
3, 46740, Note_on_c, 1, 71, 78
3, 46740, Note_on_c, 1, 74, 80
3, 46770, Note_on_c, 1, 74, 0
3, 46770, Note_on_c, 1, 71, 0
3, 46800, Note_on_c, 1, 79, 72
3, 46800, Note_on_c, 1, 72, 64
3, 46920, Note_on_c, 1, 72, 0
3, 46920, Note_on_c, 1, 79, 0
3, 46920, Note_on_c, 1, 74, 86
3, 46920, Note_on_c, 1, 77, 68
3, 46950, Note_on_c, 1, 77, 0
3, 46950, Note_on_c, 1, 74, 0
3, 46950, Note_on_c, 1, 75, 82
3, 46950, Note_on_c, 1, 72, 62
3, 46980, Note_on_c, 1, 72, 0
3, 46980, Note_on_c, 1, 75, 0
3, 46980, Note_on_c, 1, 71, 71
3, 46980, Note_on_c, 1, 74, 93
3, 47010, Note_on_c, 1, 74, 0
3, 47010, Note_on_c, 1, 71, 0
3, 47010, Note_on_c, 1, 75, 84
3, 47010, Note_on_c, 1, 72, 60
3, 47040, Note_on_c, 1, 72, 0
3, 47040, Note_on_c, 1, 75, 0
3, 47040, Note_on_c, 1, 74, 76
3, 47040, Note_on_c, 1, 77, 68
3, 47070, Note_on_c, 1, 77, 0
3, 47070, Note_on_c, 1, 74, 0
3, 47100, Note_on_c, 1, 74, 89
3, 47100, Note_on_c, 1, 77, 76
3, 47130, Note_on_c, 1, 77, 0
3, 47130, Note_on_c, 1, 74, 0
3, 47160, Note_on_c, 1, 71, 80
3, 47160, Note_on_c, 1, 74, 86
3, 47190, Note_on_c, 1, 74, 0
3, 47190, Note_on_c, 1, 71, 0
3, 47220, Note_on_c, 1, 71, 73
3, 47220, Note_on_c, 1, 74, 81
3, 47250, Note_on_c, 1, 74, 0
3, 47250, Note_on_c, 1, 71, 0
3, 47280, Note_on_c, 1, 79, 68
3, 47280, Note_on_c, 1, 72, 53
3, 47400, Note_on_c, 1, 72, 0
3, 47400, Note_on_c, 1, 79, 0
3, 47400, Note_on_c, 1, 77, 62
3, 47400, Note_on_c, 1, 74, 82
3, 47430, Note_on_c, 1, 74, 0
3, 47430, Note_on_c, 1, 77, 0
3, 47430, Note_on_c, 1, 75, 80
3, 47430, Note_on_c, 1, 72, 29
3, 47460, Note_on_c, 1, 72, 0
3, 47460, Note_on_c, 1, 75, 0
3, 47460, Note_on_c, 1, 71, 76
3, 47460, Note_on_c, 1, 74, 84
3, 47490, Note_on_c, 1, 74, 0
3, 47490, Note_on_c, 1, 71, 0
3, 47490, Note_on_c, 1, 75, 86
3, 47490, Note_on_c, 1, 72, 65
3, 47520, Note_on_c, 1, 72, 0
3, 47520, Note_on_c, 1, 75, 0
3, 47520, Note_on_c, 1, 74, 85
3, 47520, Note_on_c, 1, 77, 67
3, 47550, Note_on_c, 1, 77, 0
3, 47550, Note_on_c, 1, 74, 0
3, 47580, Note_on_c, 1, 77, 76
3, 47580, Note_on_c, 1, 74, 84
3, 47610, Note_on_c, 1, 74, 0
3, 47610, Note_on_c, 1, 77, 0
3, 47640, Note_on_c, 1, 71, 84
3, 47640, Note_on_c, 1, 74, 94
3, 47670, Note_on_c, 1, 74, 0
3, 47670, Note_on_c, 1, 71, 0
3, 47700, Note_on_c, 1, 74, 76
3, 47700, Note_on_c, 1, 71, 78
3, 47730, Note_on_c, 1, 71, 0
3, 47730, Note_on_c, 1, 74, 0
3, 47760, Note_on_c, 1, 72, 76
3, 47820, Note_on_c, 1, 72, 0
3, 47880, Note_on_c, 1, 67, 74
3, 47880, Note_on_c, 1, 79, 74
3, 47940, Note_on_c, 1, 79, 0
3, 47940, Note_on_c, 1, 67, 0
3, 48000, Note_on_c, 1, 60, 84
3, 48000, Note_on_c, 1, 72, 68
3, 48060, Note_on_c, 1, 72, 0
3, 48060, Note_on_c, 1, 60, 0
3, 62880, Control_c, 1, 7, 81
3, 63060, Note_on_c, 1, 75, 84
3, 63120, Note_on_c, 1, 75, 0
3, 63120, Note_on_c, 1, 77, 69
3, 63150, Note_on_c, 1, 77, 0
3, 63180, Note_on_c, 1, 65, 94
3, 63210, Note_on_c, 1, 65, 0
3, 63350, Control_c, 1, 7, 89
3, 63540, Note_on_c, 1, 78, 77
3, 63600, Note_on_c, 1, 78, 0
3, 63600, Note_on_c, 1, 79, 74
3, 63630, Note_on_c, 1, 79, 0
3, 63660, Note_on_c, 1, 67, 76
3, 63690, Note_on_c, 1, 67, 0
3, 63730, Control_c, 1, 7, 100
3, 63780, Note_on_c, 1, 79, 71
3, 63840, Note_on_c, 1, 79, 0
3, 63840, Note_on_c, 1, 80, 72
3, 63960, Note_on_c, 1, 80, 0
3, 63960, Note_on_c, 1, 77, 64
3, 63960, Note_on_c, 1, 74, 81
3, 64140, Note_on_c, 1, 74, 0
3, 64140, Note_on_c, 1, 77, 0
3, 64140, Note_on_c, 1, 77, 71
3, 64140, Note_on_c, 1, 74, 80
3, 64200, Note_on_c, 1, 74, 0
3, 64200, Note_on_c, 1, 77, 0
3, 64200, Note_on_c, 1, 77, 77
3, 64200, Note_on_c, 1, 74, 80
3, 64260, Note_on_c, 1, 74, 0
3, 64260, Note_on_c, 1, 77, 0
3, 64260, Note_on_c, 1, 75, 82
3, 64260, Note_on_c, 1, 72, 29
3, 64320, Note_on_c, 1, 72, 0
3, 64320, Note_on_c, 1, 75, 0
3, 64320, Note_on_c, 1, 71, 78
3, 64320, Note_on_c, 1, 74, 90
3, 64440, Note_on_c, 1, 74, 0
3, 64440, Note_on_c, 1, 71, 0
3, 64500, Note_on_c, 1, 74, 86
3, 64560, Note_on_c, 1, 74, 0
3, 64560, Note_on_c, 1, 75, 94
3, 64620, Note_on_c, 1, 75, 0
3, 64620, Note_on_c, 1, 66, 89
3, 64680, Note_on_c, 1, 66, 0
3, 64680, Note_on_c, 1, 66, 84
3, 64710, Note_on_c, 1, 66, 0
3, 64740, Note_on_c, 1, 66, 90
3, 64770, Note_on_c, 1, 66, 0
3, 64800, Note_on_c, 1, 67, 82
3, 64920, Note_on_c, 1, 67, 0
3, 64980, Note_on_c, 1, 74, 81
3, 65040, Note_on_c, 1, 74, 0
3, 65040, Note_on_c, 1, 75, 76
3, 65100, Note_on_c, 1, 75, 0
3, 65100, Note_on_c, 1, 66, 80
3, 65160, Note_on_c, 1, 66, 0
3, 65160, Note_on_c, 1, 66, 64
3, 65190, Note_on_c, 1, 66, 0
3, 65220, Note_on_c, 1, 66, 64
3, 65250, Note_on_c, 1, 66, 0
3, 65280, Note_on_c, 1, 67, 76
3, 65340, Note_on_c, 1, 67, 0
3, 72180, Note_on_c, 1, 79, 43
3, 72240, Note_on_c, 1, 79, 0
3, 72240, Note_on_c, 1, 80, 43
3, 72300, Note_on_c, 1, 80, 0
3, 72300, Note_on_c, 1, 71, 50
3, 72360, Note_on_c, 1, 71, 0
3, 73140, Note_on_c, 1, 79, 30
3, 73200, Note_on_c, 1, 79, 0
3, 73200, Note_on_c, 1, 80, 38
3, 73260, Note_on_c, 1, 80, 0
3, 73260, Note_on_c, 1, 71, 50
3, 73320, Note_on_c, 1, 71, 0
3, 73680, Note_on_c, 1, 79, 43
3, 73740, Note_on_c, 1, 79, 0
3, 73740, Note_on_c, 1, 71, 39
3, 73800, Note_on_c, 1, 71, 0
3, 77940, Note_on_c, 1, 67, 76
3, 77940, Note_on_c, 1, 79, 65
3, 78000, Note_on_c, 1, 79, 0
3, 78000, Note_on_c, 1, 67, 0
3, 78000, Note_on_c, 1, 68, 90
3, 78000, Note_on_c, 1, 80, 74
3, 78060, Note_on_c, 1, 80, 0
3, 78060, Note_on_c, 1, 68, 0
3, 78060, Note_on_c, 1, 67, 78
3, 78060, Note_on_c, 1, 79, 74
3, 78120, Note_on_c, 1, 79, 0
3, 78120, Note_on_c, 1, 67, 0
3, 78120, Note_on_c, 1, 67, 71
3, 78120, Note_on_c, 1, 79, 58
3, 78150, Note_on_c, 1, 79, 0
3, 78150, Note_on_c, 1, 67, 0
3, 78180, Note_on_c, 1, 67, 80
3, 78180, Note_on_c, 1, 79, 72
3, 78210, Note_on_c, 1, 79, 0
3, 78210, Note_on_c, 1, 67, 0
3, 78240, Note_on_c, 1, 79, 65
3, 78240, Note_on_c, 1, 67, 78
3, 78480, Note_on_c, 1, 67, 0
3, 78480, Note_on_c, 1, 79, 0
3, 78480, Note_on_c, 1, 67, 78
3, 78480, Note_on_c, 1, 79, 66
3, 78510, Note_on_c, 1, 79, 0
3, 78510, Note_on_c, 1, 67, 0
3, 78540, Note_on_c, 1, 67, 72
3, 78540, Note_on_c, 1, 79, 64
3, 78570, Note_on_c, 1, 79, 0
3, 78570, Note_on_c, 1, 67, 0
3, 78600, Note_on_c, 1, 67, 76
3, 78600, Note_on_c, 1, 79, 61
3, 78630, Note_on_c, 1, 79, 0
3, 78630, Note_on_c, 1, 67, 0
3, 78660, Note_on_c, 1, 67, 76
3, 78660, Note_on_c, 1, 79, 64
3, 78690, Note_on_c, 1, 79, 0
3, 78690, Note_on_c, 1, 67, 0
3, 78720, Note_on_c, 1, 67, 68
3, 78720, Note_on_c, 1, 79, 66
3, 78840, Note_on_c, 1, 79, 0
3, 78840, Note_on_c, 1, 67, 0
3, 78900, Note_on_c, 1, 79, 81
3, 78960, Note_on_c, 1, 79, 0
3, 78960, Note_on_c, 1, 80, 86
3, 79020, Note_on_c, 1, 80, 0
3, 79020, Note_on_c, 1, 67, 78
3, 79020, Note_on_c, 1, 79, 73
3, 79080, Note_on_c, 1, 79, 0
3, 79080, Note_on_c, 1, 67, 0
3, 79080, Note_on_c, 1, 79, 64
3, 79080, Note_on_c, 1, 67, 81
3, 79110, Note_on_c, 1, 67, 0
3, 79110, Note_on_c, 1, 79, 0
3, 79140, Note_on_c, 1, 67, 80
3, 79140, Note_on_c, 1, 79, 72
3, 79170, Note_on_c, 1, 79, 0
3, 79170, Note_on_c, 1, 67, 0
3, 79200, Note_on_c, 1, 84, 72
3, 79200, Note_on_c, 1, 72, 41
3, 79320, Note_on_c, 1, 72, 0
3, 79320, Note_on_c, 1, 84, 0
3, 79320, Note_on_c, 1, 74, 89
3, 79350, Note_on_c, 1, 74, 0
3, 79350, Note_on_c, 1, 72, 80
3, 79380, Note_on_c, 1, 72, 0
3, 79380, Note_on_c, 1, 71, 94
3, 79410, Note_on_c, 1, 71, 0
3, 79410, Note_on_c, 1, 72, 81
3, 79440, Note_on_c, 1, 72, 0
3, 79440, Note_on_c, 1, 74, 94
3, 79440, Note_on_c, 1, 72, 85
3, 79470, Note_on_c, 1, 72, 0
3, 79470, Note_on_c, 1, 74, 0
3, 79500, Note_on_c, 1, 74, 93
3, 79500, Note_on_c, 1, 72, 89
3, 79530, Note_on_c, 1, 72, 0
3, 79530, Note_on_c, 1, 74, 0
3, 79560, Note_on_c, 1, 71, 86
3, 79560, Note_on_c, 1, 74, 84
3, 79590, Note_on_c, 1, 74, 0
3, 79590, Note_on_c, 1, 71, 0
3, 79620, Note_on_c, 1, 71, 89
3, 79620, Note_on_c, 1, 74, 89
3, 79650, Note_on_c, 1, 74, 0
3, 79650, Note_on_c, 1, 71, 0
3, 79680, Note_on_c, 1, 79, 76
3, 79680, Note_on_c, 1, 72, 72
3, 79800, Note_on_c, 1, 72, 0
3, 79800, Note_on_c, 1, 79, 0
3, 79800, Note_on_c, 1, 77, 73
3, 79800, Note_on_c, 1, 74, 86
3, 79830, Note_on_c, 1, 74, 0
3, 79830, Note_on_c, 1, 77, 0
3, 79830, Note_on_c, 1, 75, 84
3, 79830, Note_on_c, 1, 72, 67
3, 79860, Note_on_c, 1, 72, 0
3, 79860, Note_on_c, 1, 75, 0
3, 79860, Note_on_c, 1, 74, 86
3, 79860, Note_on_c, 1, 71, 77
3, 79890, Note_on_c, 1, 71, 0
3, 79890, Note_on_c, 1, 74, 0
3, 79890, Note_on_c, 1, 75, 85
3, 79920, Note_on_c, 1, 75, 0
3, 79920, Note_on_c, 1, 77, 73
3, 79920, Note_on_c, 1, 74, 85
3, 79950, Note_on_c, 1, 74, 0
3, 79950, Note_on_c, 1, 77, 0
3, 79980, Note_on_c, 1, 74, 94
3, 79980, Note_on_c, 1, 77, 80
3, 80010, Note_on_c, 1, 77, 0
3, 80010, Note_on_c, 1, 74, 0
3, 80040, Note_on_c, 1, 71, 90
3, 80040, Note_on_c, 1, 74, 86
3, 80070, Note_on_c, 1, 74, 0
3, 80070, Note_on_c, 1, 71, 0
3, 80100, Note_on_c, 1, 71, 89
3, 80100, Note_on_c, 1, 74, 84
3, 80130, Note_on_c, 1, 74, 0
3, 80130, Note_on_c, 1, 71, 0
3, 80160, Note_on_c, 1, 79, 84
3, 80160, Note_on_c, 1, 72, 85
3, 80280, Note_on_c, 1, 72, 0
3, 80280, Note_on_c, 1, 79, 0
3, 80280, Note_on_c, 1, 77, 72
3, 80280, Note_on_c, 1, 74, 84
3, 80310, Note_on_c, 1, 74, 0
3, 80310, Note_on_c, 1, 77, 0
3, 80310, Note_on_c, 1, 72, 64
3, 80310, Note_on_c, 1, 75, 94
3, 80340, Note_on_c, 1, 75, 0
3, 80340, Note_on_c, 1, 72, 0
3, 80340, Note_on_c, 1, 71, 84
3, 80340, Note_on_c, 1, 74, 90
3, 80370, Note_on_c, 1, 74, 0
3, 80370, Note_on_c, 1, 71, 0
3, 80370, Note_on_c, 1, 75, 86
3, 80370, Note_on_c, 1, 72, 72
3, 80400, Note_on_c, 1, 72, 0
3, 80400, Note_on_c, 1, 75, 0
3, 80400, Note_on_c, 1, 74, 90
3, 80400, Note_on_c, 1, 79, 73
3, 80430, Note_on_c, 1, 79, 0
3, 80430, Note_on_c, 1, 74, 0
3, 80460, Note_on_c, 1, 74, 94
3, 80460, Note_on_c, 1, 79, 77
3, 80490, Note_on_c, 1, 79, 0
3, 80490, Note_on_c, 1, 74, 0
3, 80520, Note_on_c, 1, 71, 85
3, 80520, Note_on_c, 1, 74, 89
3, 80550, Note_on_c, 1, 74, 0
3, 80550, Note_on_c, 1, 71, 0
3, 80580, Note_on_c, 1, 71, 89
3, 80580, Note_on_c, 1, 74, 89
3, 80610, Note_on_c, 1, 74, 0
3, 80610, Note_on_c, 1, 71, 0
3, 80640, Note_on_c, 1, 72, 82
3, 80700, Note_on_c, 1, 72, 0
3, 80760, Note_on_c, 1, 79, 76
3, 80760, Note_on_c, 1, 67, 89
3, 80820, Note_on_c, 1, 67, 0
3, 80820, Note_on_c, 1, 79, 0
3, 80880, Note_on_c, 1, 60, 90
3, 80880, Note_on_c, 1, 72, 70
3, 80940, Note_on_c, 1, 72, 0
3, 80940, Note_on_c, 1, 60, 0
3, 81120, Note_on_c, 1, 75, 84
3, 81120, Note_on_c, 1, 72, 66
3, 81240, Note_on_c, 1, 72, 0
3, 81240, Note_on_c, 1, 75, 0
3, 81240, Note_on_c, 1, 75, 86
3, 81240, Note_on_c, 1, 72, 61
3, 81330, Note_on_c, 1, 72, 0
3, 81330, Note_on_c, 1, 75, 0
3, 81330, Note_on_c, 1, 75, 89
3, 81330, Note_on_c, 1, 72, 67
3, 81360, Note_on_c, 1, 72, 0
3, 81360, Note_on_c, 1, 75, 0
3, 81360, Note_on_c, 1, 75, 85
3, 81360, Note_on_c, 1, 72, 65
3, 81480, Note_on_c, 1, 72, 0
3, 81480, Note_on_c, 1, 75, 0
3, 82080, Note_on_c, 1, 80, 77
3, 82080, Note_on_c, 1, 72, 80
3, 82200, Note_on_c, 1, 72, 0
3, 82200, Note_on_c, 1, 80, 0
3, 82200, Note_on_c, 1, 80, 80
3, 82200, Note_on_c, 1, 72, 78
3, 82290, Note_on_c, 1, 72, 0
3, 82290, Note_on_c, 1, 80, 0
3, 82290, Note_on_c, 1, 80, 77
3, 82290, Note_on_c, 1, 72, 74
3, 82320, Note_on_c, 1, 72, 0
3, 82320, Note_on_c, 1, 80, 0
3, 82320, Note_on_c, 1, 80, 73
3, 82320, Note_on_c, 1, 72, 78
3, 82440, Note_on_c, 1, 72, 0
3, 82440, Note_on_c, 1, 80, 0
3, 85920, Note_on_c, 1, 72, 62
3, 85920, Note_on_c, 1, 64, 48
3, 86160, Note_on_c, 1, 64, 0
3, 86160, Note_on_c, 1, 72, 0
3, 86160, Note_on_c, 1, 65, 69
3, 86160, Note_on_c, 1, 71, 52
3, 86400, Note_on_c, 1, 71, 0
3, 86400, Note_on_c, 1, 65, 0
3, 86400, Note_on_c, 1, 72, 52
3, 86400, Note_on_c, 1, 64, 69
3, 86460, Note_on_c, 1, 64, 0
3, 86460, Note_on_c, 1, 72, 0
3, 86460, Note_on_c, 1, 72, 57
3, 86460, Note_on_c, 1, 64, 66
3, 86520, Note_on_c, 1, 64, 0
3, 86520, Note_on_c, 1, 72, 0
3, 86520, Note_on_c, 1, 72, 54
3, 86520, Note_on_c, 1, 64, 73
3, 86580, Note_on_c, 1, 64, 0
3, 86580, Note_on_c, 1, 72, 0
3, 86580, Note_on_c, 1, 72, 65
3, 86580, Note_on_c, 1, 64, 68
3, 86640, Note_on_c, 1, 64, 0
3, 86640, Note_on_c, 1, 72, 0
3, 86640, Note_on_c, 1, 69, 85
3, 86640, Note_on_c, 1, 74, 77
3, 86880, Note_on_c, 1, 74, 0
3, 86880, Note_on_c, 1, 69, 0
3, 86880, Note_on_c, 1, 76, 85
3, 86880, Note_on_c, 1, 71, 76
3, 87000, Note_on_c, 1, 71, 0
3, 87000, Note_on_c, 1, 73, 62
3, 87120, Note_on_c, 1, 73, 0
3, 87120, Note_on_c, 1, 76, 0
3, 87120, Note_on_c, 1, 77, 65
3, 87120, Note_on_c, 1, 74, 73
3, 87300, Note_on_c, 1, 74, 0
3, 87300, Note_on_c, 1, 77, 0
3, 87300, Note_on_c, 1, 81, 49
3, 87300, Note_on_c, 1, 74, 72
3, 87360, Note_on_c, 1, 74, 0
3, 87360, Note_on_c, 1, 81, 0
3, 87360, Note_on_c, 1, 64, 68
3, 87360, Note_on_c, 1, 72, 54
3, 87420, Note_on_c, 1, 72, 0
3, 87420, Note_on_c, 1, 64, 0
3, 87420, Note_on_c, 1, 64, 67
3, 87420, Note_on_c, 1, 72, 68
3, 87480, Note_on_c, 1, 72, 0
3, 87480, Note_on_c, 1, 64, 0
3, 87480, Note_on_c, 1, 65, 71
3, 87480, Note_on_c, 1, 71, 57
3, 87540, Note_on_c, 1, 71, 0
3, 87540, Note_on_c, 1, 65, 0
3, 87540, Note_on_c, 1, 65, 73
3, 87540, Note_on_c, 1, 71, 62
3, 87600, Note_on_c, 1, 71, 0
3, 87600, Note_on_c, 1, 65, 0
3, 87600, Note_on_c, 1, 72, 54
3, 87600, Note_on_c, 1, 64, 72
3, 87660, Note_on_c, 1, 64, 0
3, 87660, Note_on_c, 1, 72, 0
3, 87900, Note_on_c, 1, 79, 61
3, 88020, Note_on_c, 1, 79, 0
3, 88020, Note_on_c, 1, 77, 66
3, 88080, Note_on_c, 1, 77, 0
3, 88080, Note_on_c, 1, 76, 76
3, 88140, Note_on_c, 1, 76, 0
3, 88860, Note_on_c, 1, 67, 69
3, 88920, Note_on_c, 1, 67, 0
3, 88920, Note_on_c, 1, 69, 76
3, 88980, Note_on_c, 1, 69, 0
3, 88980, Note_on_c, 1, 71, 80
3, 89040, Note_on_c, 1, 71, 0
3, 89040, Note_on_c, 1, 72, 95
3, 89100, Note_on_c, 1, 72, 0
3, 89100, Note_on_c, 1, 67, 71
3, 89160, Note_on_c, 1, 67, 0
3, 89160, Note_on_c, 1, 69, 89
3, 89220, Note_on_c, 1, 69, 0
3, 89220, Note_on_c, 1, 71, 80
3, 89280, Note_on_c, 1, 71, 0
3, 89280, Note_on_c, 1, 72, 80
3, 89340, Note_on_c, 1, 72, 0
3, 89950, Control_c, 1, 7, 86
3, 90000, Note_on_c, 1, 71, 76
3, 90060, Note_on_c, 1, 71, 0
3, 90120, Note_on_c, 1, 79, 71
3, 90180, Note_on_c, 1, 79, 0
3, 90240, Note_on_c, 1, 76, 71
3, 90300, Note_on_c, 1, 76, 0
3, 90360, Note_on_c, 1, 72, 89
3, 90420, Note_on_c, 1, 72, 0
3, 90480, Note_on_c, 1, 69, 76
3, 90540, Note_on_c, 1, 69, 0
3, 90600, Note_on_c, 1, 74, 81
3, 90660, Note_on_c, 1, 74, 0
3, 90720, Note_on_c, 1, 74, 80
3, 90780, Note_on_c, 1, 74, 0
3, 90840, Note_on_c, 1, 74, 73
3, 90900, Note_on_c, 1, 74, 0
3, 90960, Note_on_c, 1, 74, 76
3, 91020, Note_on_c, 1, 74, 0
3, 91080, Control_c, 1, 7, 100
3, 96480, Note_on_c, 1, 82, 64
3, 96540, Note_on_c, 1, 82, 0
3, 96540, Note_on_c, 1, 75, 56
3, 96600, Note_on_c, 1, 75, 0
3, 96600, Note_on_c, 1, 75, 64
3, 96630, Note_on_c, 1, 75, 0
3, 96660, Note_on_c, 1, 75, 65
3, 96690, Note_on_c, 1, 75, 0
3, 96720, Note_on_c, 1, 76, 71
3, 96840, Note_on_c, 1, 76, 0
3, 96900, Note_on_c, 1, 76, 61
3, 96960, Note_on_c, 1, 76, 0
3, 96960, Note_on_c, 1, 84, 61
3, 97020, Note_on_c, 1, 84, 0
3, 97020, Note_on_c, 1, 77, 48
3, 97080, Note_on_c, 1, 77, 0
3, 97080, Note_on_c, 1, 77, 62
3, 97110, Note_on_c, 1, 77, 0
3, 97140, Note_on_c, 1, 77, 54
3, 97170, Note_on_c, 1, 77, 0
3, 97200, Note_on_c, 1, 78, 54
3, 97320, Note_on_c, 1, 78, 0
3, 97320, Note_on_c, 1, 72, 76
3, 97440, Note_on_c, 1, 72, 0
3, 97440, Note_on_c, 1, 71, 71
3, 97500, Note_on_c, 1, 71, 0
3, 97500, Note_on_c, 1, 79, 55
3, 97560, Note_on_c, 1, 79, 0
3, 97560, Note_on_c, 1, 79, 46
3, 97620, Note_on_c, 1, 79, 0
3, 97620, Note_on_c, 1, 79, 46
3, 97680, Note_on_c, 1, 79, 0
3, 97740, Note_on_c, 1, 75, 57
3, 97740, Note_on_c, 1, 78, 45
3, 97800, Note_on_c, 1, 78, 0
3, 97800, Note_on_c, 1, 75, 0
3, 97800, Note_on_c, 1, 75, 69
3, 97800, Note_on_c, 1, 78, 51
3, 97860, Note_on_c, 1, 78, 0
3, 97860, Note_on_c, 1, 75, 0
3, 97860, Note_on_c, 1, 75, 66
3, 97860, Note_on_c, 1, 78, 50
3, 97920, Note_on_c, 1, 78, 0
3, 97920, Note_on_c, 1, 75, 0
3, 97980, Note_on_c, 1, 77, 45
3, 97980, Note_on_c, 1, 74, 57
3, 98040, Note_on_c, 1, 74, 0
3, 98040, Note_on_c, 1, 77, 0
3, 98040, Note_on_c, 1, 77, 45
3, 98040, Note_on_c, 1, 74, 53
3, 98100, Note_on_c, 1, 74, 0
3, 98100, Note_on_c, 1, 77, 0
3, 98100, Note_on_c, 1, 77, 51
3, 98100, Note_on_c, 1, 74, 65
3, 98160, Note_on_c, 1, 74, 0
3, 98160, Note_on_c, 1, 77, 0
3, 98220, Note_on_c, 1, 73, 61
3, 98220, Note_on_c, 1, 76, 68
3, 98280, Note_on_c, 1, 76, 0
3, 98280, Note_on_c, 1, 73, 0
3, 98280, Note_on_c, 1, 73, 53
3, 98280, Note_on_c, 1, 76, 63
3, 98340, Note_on_c, 1, 76, 0
3, 98340, Note_on_c, 1, 73, 0
3, 98340, Note_on_c, 1, 76, 64
3, 98340, Note_on_c, 1, 73, 49
3, 98400, Note_on_c, 1, 73, 0
3, 98400, Note_on_c, 1, 76, 0
3, 98400, Note_on_c, 1, 72, 57
3, 98400, Note_on_c, 1, 75, 58
3, 98460, Note_on_c, 1, 75, 0
3, 98460, Note_on_c, 1, 72, 0
3, 98460, Note_on_c, 1, 72, 53
3, 98460, Note_on_c, 1, 75, 51
3, 98520, Note_on_c, 1, 75, 0
3, 98520, Note_on_c, 1, 72, 0
3, 98580, Note_on_c, 1, 71, 68
3, 98580, Note_on_c, 1, 74, 61
3, 98640, Note_on_c, 1, 74, 0
3, 98640, Note_on_c, 1, 71, 0
3, 98700, Note_on_c, 1, 73, 58
3, 98700, Note_on_c, 1, 70, 72
3, 98760, Note_on_c, 1, 70, 0
3, 98760, Note_on_c, 1, 73, 0
3, 98820, Note_on_c, 1, 69, 72
3, 98820, Note_on_c, 1, 72, 73
3, 98880, Note_on_c, 1, 72, 0
3, 98880, Note_on_c, 1, 69, 0
3, 98880, Note_on_c, 1, 71, 76
3, 98940, Note_on_c, 1, 71, 0
3, 99000, Note_on_c, 1, 77, 43
3, 99000, Note_on_c, 1, 65, 66
3, 99240, Note_on_c, 1, 65, 0
3, 99240, Note_on_c, 1, 77, 0
3, 99240, Note_on_c, 1, 65, 98
3, 99240, Note_on_c, 1, 77, 84
3, 99480, Note_on_c, 1, 77, 0
3, 99480, Note_on_c, 1, 65, 0
3, 99480, Note_on_c, 1, 77, 65
3, 99480, Note_on_c, 1, 65, 74
3, 99720, Note_on_c, 1, 65, 0
3, 99720, Note_on_c, 1, 77, 0
3, 99720, Note_on_c, 1, 65, 78
3, 99720, Note_on_c, 1, 77, 63
3, 99900, Note_on_c, 1, 77, 0
3, 99900, Note_on_c, 1, 65, 0
3, 99900, Note_on_c, 1, 77, 71
3, 99900, Note_on_c, 1, 72, 86
3, 99960, Note_on_c, 1, 72, 0
3, 99960, Note_on_c, 1, 77, 0
3, 99960, Note_on_c, 1, 77, 73
3, 99960, Note_on_c, 1, 71, 70
3, 100020, Note_on_c, 1, 71, 0
3, 100020, Note_on_c, 1, 77, 0
3, 100020, Note_on_c, 1, 77, 65
3, 100020, Note_on_c, 1, 72, 64
3, 100080, Note_on_c, 1, 72, 0
3, 100080, Note_on_c, 1, 77, 0
3, 100080, Note_on_c, 1, 77, 76
3, 100080, Note_on_c, 1, 71, 76
3, 100140, Note_on_c, 1, 71, 0
3, 100140, Note_on_c, 1, 77, 0
3, 100140, Note_on_c, 1, 77, 77
3, 100140, Note_on_c, 1, 72, 63
3, 100200, Note_on_c, 1, 72, 0
3, 100200, Note_on_c, 1, 77, 0
3, 100200, Note_on_c, 1, 77, 77
3, 100200, Note_on_c, 1, 71, 80
3, 100260, Note_on_c, 1, 71, 0
3, 100260, Note_on_c, 1, 77, 0
3, 100260, Note_on_c, 1, 77, 78
3, 100260, Note_on_c, 1, 72, 62
3, 100320, Note_on_c, 1, 72, 0
3, 100320, Note_on_c, 1, 77, 0
3, 100320, Note_on_c, 1, 77, 72
3, 100320, Note_on_c, 1, 71, 73
3, 100380, Note_on_c, 1, 71, 0
3, 100380, Note_on_c, 1, 77, 0
3, 100380, Note_on_c, 1, 84, 70
3, 100380, Note_on_c, 1, 77, 70
3, 100440, Note_on_c, 1, 77, 0
3, 100440, Note_on_c, 1, 84, 0
3, 100440, Note_on_c, 1, 77, 65
3, 100440, Note_on_c, 1, 83, 72
3, 100500, Note_on_c, 1, 83, 0
3, 100500, Note_on_c, 1, 77, 0
3, 100500, Note_on_c, 1, 77, 64
3, 100500, Note_on_c, 1, 84, 74
3, 100560, Note_on_c, 1, 84, 0
3, 100560, Note_on_c, 1, 77, 0
3, 100560, Note_on_c, 1, 77, 61
3, 100560, Note_on_c, 1, 83, 73
3, 100620, Note_on_c, 1, 83, 0
3, 100620, Note_on_c, 1, 77, 0
3, 100620, Note_on_c, 1, 77, 56
3, 100620, Note_on_c, 1, 84, 67
3, 100680, Note_on_c, 1, 84, 0
3, 100680, Note_on_c, 1, 77, 0
3, 100680, Note_on_c, 1, 77, 54
3, 100680, Note_on_c, 1, 83, 69
3, 100740, Note_on_c, 1, 83, 0
3, 100740, Note_on_c, 1, 77, 0
3, 100740, Note_on_c, 1, 77, 56
3, 100740, Note_on_c, 1, 84, 69
3, 100800, Note_on_c, 1, 84, 0
3, 100800, Note_on_c, 1, 77, 0
3, 100800, Note_on_c, 1, 77, 57
3, 100800, Note_on_c, 1, 83, 76
3, 101040, Note_on_c, 1, 83, 0
3, 101040, Note_on_c, 1, 77, 0
3, 101040, Note_on_c, 1, 74, 77
3, 101040, Note_on_c, 1, 77, 76
3, 101160, Note_on_c, 1, 77, 0
3, 101160, Note_on_c, 1, 74, 0
3, 101160, Note_on_c, 1, 71, 76
3, 101160, Note_on_c, 1, 74, 68
3, 101280, Note_on_c, 1, 74, 0
3, 101280, Note_on_c, 1, 71, 0
3, 101280, Note_on_c, 1, 74, 84
3, 101280, Note_on_c, 1, 77, 82
3, 101520, Note_on_c, 1, 77, 0
3, 101520, Note_on_c, 1, 74, 0
3, 101520, Note_on_c, 1, 71, 76
3, 101520, Note_on_c, 1, 74, 89
3, 101760, Note_on_c, 1, 74, 0
3, 101760, Note_on_c, 1, 71, 0
3, 101760, Note_on_c, 1, 65, 82
3, 101760, Note_on_c, 1, 71, 71
3, 102360, Note_on_c, 1, 71, 0
3, 102360, Note_on_c, 1, 65, 0
3, 108000, Control_c, 1, 7, 86
3, 108030, Note_on_c, 1, 78, 72
3, 108060, Note_on_c, 1, 78, 0
3, 108060, Note_on_c, 1, 79, 70
3, 108120, Note_on_c, 1, 79, 0
3, 108390, Note_on_c, 1, 78, 72
3, 108420, Note_on_c, 1, 78, 0
3, 108420, Note_on_c, 1, 79, 77
3, 108480, Note_on_c, 1, 79, 0
3, 108720, Note_on_c, 1, 74, 54
3, 108750, Note_on_c, 1, 74, 0
3, 108780, Note_on_c, 1, 76, 64
3, 108810, Note_on_c, 1, 76, 0
3, 108840, Note_on_c, 1, 77, 64
3, 108870, Note_on_c, 1, 77, 0
3, 108900, Note_on_c, 1, 67, 62
3, 108930, Note_on_c, 1, 67, 0
3, 108960, Note_on_c, 1, 69, 58
3, 108990, Note_on_c, 1, 69, 0
3, 109020, Note_on_c, 1, 71, 73
3, 109050, Note_on_c, 1, 71, 0
3, 109080, Note_on_c, 1, 72, 81
3, 109140, Control_c, 1, 7, 99
3, 109150, Control_c, 1, 7, 98
3, 109160, Control_c, 1, 7, 96
3, 109170, Control_c, 1, 7, 94
3, 109180, Control_c, 1, 7, 92
3, 109190, Control_c, 1, 7, 90
3, 109200, Control_c, 1, 7, 88
3, 109210, Control_c, 1, 7, 86
3, 109220, Control_c, 1, 7, 84
3, 109230, Control_c, 1, 7, 82
3, 109240, Control_c, 1, 7, 81
3, 109250, Control_c, 1, 7, 79
3, 109260, Control_c, 1, 7, 77
3, 109270, Control_c, 1, 7, 75
3, 109280, Control_c, 1, 7, 73
3, 109290, Control_c, 1, 7, 71
3, 109300, Control_c, 1, 7, 69
3, 109310, Control_c, 1, 7, 67
3, 109320, Control_c, 1, 7, 65
3, 109800, Note_on_c, 1, 72, 0
3, 109800, Control_c, 1, 7, 100
3, 109800, Note_on_c, 1, 72, 78
3, 109870, Control_c, 1, 7, 99
3, 109880, Control_c, 1, 7, 96
3, 109890, Control_c, 1, 7, 93
3, 109900, Control_c, 1, 7, 90
3, 109910, Control_c, 1, 7, 87
3, 109920, Control_c, 1, 7, 84
3, 109930, Control_c, 1, 7, 81
3, 109940, Control_c, 1, 7, 78
3, 109950, Control_c, 1, 7, 75
3, 109960, Control_c, 1, 7, 72
3, 109970, Control_c, 1, 7, 69
3, 109980, Control_c, 1, 7, 66
3, 110520, Note_on_c, 1, 72, 0
3, 110520, Control_c, 1, 7, 100
3, 110520, Note_on_c, 1, 72, 84
3, 110570, Control_c, 1, 7, 98
3, 110580, Control_c, 1, 7, 96
3, 110590, Control_c, 1, 7, 93
3, 110600, Control_c, 1, 7, 91
3, 110610, Control_c, 1, 7, 88
3, 110620, Control_c, 1, 7, 86
3, 110630, Control_c, 1, 7, 83
3, 110640, Control_c, 1, 7, 81
3, 110650, Control_c, 1, 7, 78
3, 110660, Control_c, 1, 7, 76
3, 110670, Control_c, 1, 7, 73
3, 110680, Control_c, 1, 7, 71
3, 110690, Control_c, 1, 7, 68
3, 110700, Control_c, 1, 7, 65
3, 111240, Note_on_c, 1, 72, 0
3, 111240, Control_c, 1, 7, 100
3, 111240, Note_on_c, 1, 72, 80
3, 111320, Control_c, 1, 7, 97
3, 111330, Control_c, 1, 7, 94
3, 111340, Control_c, 1, 7, 91
3, 111350, Control_c, 1, 7, 88
3, 111360, Control_c, 1, 7, 85
3, 111370, Control_c, 1, 7, 82
3, 111380, Control_c, 1, 7, 79
3, 111390, Control_c, 1, 7, 76
3, 111400, Control_c, 1, 7, 73
3, 111410, Control_c, 1, 7, 70
3, 111420, Control_c, 1, 7, 67
3, 111430, Control_c, 1, 7, 64
3, 111960, Note_on_c, 1, 72, 0
3, 111960, Control_c, 1, 7, 100
3, 111960, Note_on_c, 1, 72, 76
3, 111960, Note_on_c, 1, 76, 74
3, 112020, Note_on_c, 1, 76, 0
3, 112020, Note_on_c, 1, 72, 0
3, 112020, Note_on_c, 1, 72, 73
3, 112020, Note_on_c, 1, 76, 68
3, 112080, Note_on_c, 1, 76, 0
3, 112080, Note_on_c, 1, 72, 0
3, 112080, Note_on_c, 1, 72, 61
3, 112080, Note_on_c, 1, 76, 72
3, 112140, Note_on_c, 1, 76, 0
3, 112140, Note_on_c, 1, 72, 0
3, 112140, Note_on_c, 1, 74, 61
3, 112140, Note_on_c, 1, 71, 64
3, 112260, Note_on_c, 1, 71, 0
3, 112260, Note_on_c, 1, 74, 0
3, 112320, Note_on_c, 1, 77, 52
3, 112320, Note_on_c, 1, 69, 72
3, 112380, Note_on_c, 1, 69, 0
3, 112380, Note_on_c, 1, 77, 0
3, 112380, Note_on_c, 1, 77, 53
3, 112380, Note_on_c, 1, 69, 64
3, 112440, Note_on_c, 1, 69, 0
3, 112440, Note_on_c, 1, 77, 0
3, 112440, Note_on_c, 1, 77, 46
3, 112440, Note_on_c, 1, 69, 64
3, 112500, Note_on_c, 1, 69, 0
3, 112500, Note_on_c, 1, 77, 0
3, 112500, Note_on_c, 1, 76, 57
3, 112500, Note_on_c, 1, 72, 29
3, 112620, Note_on_c, 1, 72, 0
3, 112620, Note_on_c, 1, 76, 0
3, 112680, Note_on_c, 1, 77, 58
3, 112680, Note_on_c, 1, 81, 50
3, 112740, Note_on_c, 1, 81, 0
3, 112740, Note_on_c, 1, 77, 0
3, 112740, Note_on_c, 1, 77, 50
3, 112740, Note_on_c, 1, 81, 43
3, 112800, Note_on_c, 1, 81, 0
3, 112800, Note_on_c, 1, 77, 0
3, 112800, Note_on_c, 1, 77, 62
3, 112800, Note_on_c, 1, 81, 57
3, 112860, Note_on_c, 1, 81, 0
3, 112860, Note_on_c, 1, 77, 0
3, 112860, Note_on_c, 1, 79, 47
3, 112860, Note_on_c, 1, 76, 73
3, 112920, Note_on_c, 1, 76, 0
3, 112920, Note_on_c, 1, 79, 0
3, 112920, Note_on_c, 1, 79, 54
3, 112920, Note_on_c, 1, 76, 66
3, 112980, Note_on_c, 1, 76, 0
3, 112980, Note_on_c, 1, 79, 0
3, 112980, Note_on_c, 1, 79, 51
3, 112980, Note_on_c, 1, 76, 70
3, 113040, Note_on_c, 1, 76, 0
3, 113040, Note_on_c, 1, 79, 0
3, 113040, Note_on_c, 1, 77, 47
3, 113040, Note_on_c, 1, 69, 71
3, 113160, Note_on_c, 1, 69, 0
3, 113160, Note_on_c, 1, 77, 0
3, 113220, Note_on_c, 1, 71, 60
3, 113220, Note_on_c, 1, 74, 64
3, 113340, Note_on_c, 1, 74, 0
3, 113340, Note_on_c, 1, 71, 0
3, 113400, Note_on_c, 1, 72, 63
3, 113400, Note_on_c, 1, 76, 66
3, 113520, Note_on_c, 1, 76, 0
3, 113520, Note_on_c, 1, 72, 0
3, 113580, Note_on_c, 1, 71, 72
3, 113580, Note_on_c, 1, 74, 66
3, 113640, Note_on_c, 1, 74, 0
3, 113640, Note_on_c, 1, 71, 0
3, 113640, Note_on_c, 1, 74, 59
3, 113640, Note_on_c, 1, 71, 66
3, 113700, Note_on_c, 1, 71, 0
3, 113700, Note_on_c, 1, 74, 0
3, 113700, Note_on_c, 1, 71, 61
3, 113700, Note_on_c, 1, 74, 54
3, 113760, Note_on_c, 1, 74, 0
3, 113760, Note_on_c, 1, 71, 0
3, 113760, Note_on_c, 1, 77, 58
3, 113760, Note_on_c, 1, 69, 72
3, 113880, Note_on_c, 1, 69, 0
3, 113880, Note_on_c, 1, 77, 0
3, 113940, Note_on_c, 1, 72, 69
3, 113940, Note_on_c, 1, 76, 59
3, 114000, Note_on_c, 1, 76, 0
3, 114000, Note_on_c, 1, 72, 0
3, 114000, Note_on_c, 1, 72, 61
3, 114000, Note_on_c, 1, 76, 69
3, 114060, Note_on_c, 1, 76, 0
3, 114060, Note_on_c, 1, 72, 0
3, 114060, Note_on_c, 1, 72, 62
3, 114060, Note_on_c, 1, 76, 66
3, 114120, Note_on_c, 1, 76, 0
3, 114120, Note_on_c, 1, 72, 0
3, 114120, Note_on_c, 1, 72, 62
3, 114120, Note_on_c, 1, 77, 62
3, 114240, Note_on_c, 1, 77, 0
3, 114240, Note_on_c, 1, 72, 0
3, 114300, Note_on_c, 1, 72, 74
3, 114300, Note_on_c, 1, 79, 62
3, 114420, Note_on_c, 1, 79, 0
3, 114420, Note_on_c, 1, 72, 0
3, 114480, Note_on_c, 1, 72, 64
3, 114480, Note_on_c, 1, 74, 48
3, 114600, Note_on_c, 1, 74, 0
3, 114600, Note_on_c, 1, 72, 0
3, 114660, Note_on_c, 1, 72, 74
3, 114660, Note_on_c, 1, 76, 80
3, 114780, Note_on_c, 1, 76, 0
3, 114780, Note_on_c, 1, 72, 0
3, 114840, Note_on_c, 1, 72, 72
3, 114840, Note_on_c, 1, 77, 59
3, 114960, Note_on_c, 1, 77, 0
3, 114960, Note_on_c, 1, 72, 0
3, 115020, Note_on_c, 1, 72, 67
3, 115020, Note_on_c, 1, 79, 65
3, 115140, Note_on_c, 1, 79, 0
3, 115140, Note_on_c, 1, 72, 0
3, 115200, Note_on_c, 1, 72, 66
3, 115200, Note_on_c, 1, 81, 65
3, 115320, Note_on_c, 1, 81, 0
3, 115320, Note_on_c, 1, 72, 0
3, 115380, Note_on_c, 1, 72, 59
3, 115380, Note_on_c, 1, 74, 73
3, 115500, Note_on_c, 1, 74, 0
3, 115500, Note_on_c, 1, 72, 0
3, 115560, Note_on_c, 1, 72, 78
3, 115560, Note_on_c, 1, 75, 82
3, 115630, Control_c, 1, 7, 98
3, 115640, Control_c, 1, 7, 96
3, 115650, Control_c, 1, 7, 93
3, 115660, Control_c, 1, 7, 91
3, 115670, Control_c, 1, 7, 88
3, 115680, Control_c, 1, 7, 85
3, 115690, Control_c, 1, 7, 83
3, 115700, Control_c, 1, 7, 80
3, 115710, Control_c, 1, 7, 78
3, 115720, Control_c, 1, 7, 75
3, 115730, Control_c, 1, 7, 72
3, 115740, Control_c, 1, 7, 70
3, 115750, Control_c, 1, 7, 67
3, 115760, Control_c, 1, 7, 64
3, 116280, Note_on_c, 1, 75, 0
3, 116280, Note_on_c, 1, 72, 0
3, 116280, Note_on_c, 1, 72, 67
3, 116280, Note_on_c, 1, 76, 69
3, 116400, Note_on_c, 1, 76, 0
3, 116400, Note_on_c, 1, 72, 0
3, 116590, Control_c, 1, 7, 100
3, 117720, Note_on_c, 1, 64, 72
3, 117720, Note_on_c, 1, 60, 65
3, 117900, Note_on_c, 1, 60, 0
3, 117900, Note_on_c, 1, 64, 0
3, 117900, Note_on_c, 1, 64, 64
3, 117900, Note_on_c, 1, 67, 66
3, 118080, Note_on_c, 1, 67, 0
3, 118080, Note_on_c, 1, 64, 0
3, 118080, Note_on_c, 1, 67, 47
3, 118080, Note_on_c, 1, 72, 62
3, 118260, Note_on_c, 1, 72, 0
3, 118260, Note_on_c, 1, 67, 0
3, 118260, Note_on_c, 1, 76, 50
3, 118260, Note_on_c, 1, 72, 38
3, 118440, Note_on_c, 1, 72, 0
3, 118440, Note_on_c, 1, 76, 0
3, 118440, Note_on_c, 1, 77, 80
3, 118440, Note_on_c, 1, 72, 89
3, 118620, Note_on_c, 1, 72, 0
3, 118680, Note_on_c, 1, 71, 80
3, 118740, Note_on_c, 1, 71, 0
3, 118740, Note_on_c, 1, 69, 77
3, 118800, Note_on_c, 1, 69, 0
3, 118800, Note_on_c, 1, 71, 80
3, 118860, Note_on_c, 1, 71, 0
3, 118860, Note_on_c, 1, 77, 0
3, 118860, Note_on_c, 1, 77, 72
3, 118860, Note_on_c, 1, 71, 76
3, 118920, Note_on_c, 1, 71, 0
3, 118920, Note_on_c, 1, 77, 0
3, 118920, Note_on_c, 1, 77, 72
3, 118920, Note_on_c, 1, 71, 77
3, 118980, Note_on_c, 1, 71, 0
3, 118980, Note_on_c, 1, 77, 0
3, 118980, Note_on_c, 1, 77, 73
3, 118980, Note_on_c, 1, 71, 76
3, 119040, Note_on_c, 1, 71, 0
3, 119040, Note_on_c, 1, 77, 0
3, 119040, Note_on_c, 1, 77, 70
3, 119040, Note_on_c, 1, 71, 81
3, 119100, Note_on_c, 1, 71, 0
3, 119100, Note_on_c, 1, 77, 0
3, 119100, Note_on_c, 1, 77, 68
3, 119100, Note_on_c, 1, 72, 84
3, 119160, Note_on_c, 1, 72, 0
3, 119160, Note_on_c, 1, 77, 0
3, 119160, Note_on_c, 1, 76, 74
3, 119160, Note_on_c, 1, 72, 72
3, 119220, Note_on_c, 1, 72, 0
3, 119220, Note_on_c, 1, 76, 0
3, 119220, Note_on_c, 1, 79, 84
3, 119400, Note_on_c, 1, 79, 0
3, 119400, Note_on_c, 1, 76, 71
3, 119430, Note_on_c, 1, 76, 0
3, 119460, Note_on_c, 1, 72, 95
3, 119490, Note_on_c, 1, 72, 0
3, 119520, Note_on_c, 1, 71, 73
3, 119550, Note_on_c, 1, 71, 0
3, 119580, Note_on_c, 1, 69, 84
3, 119610, Note_on_c, 1, 69, 0
3, 119640, Note_on_c, 1, 67, 65
3, 119670, Note_on_c, 1, 67, 0
3, 119700, Note_on_c, 1, 65, 80
3, 119730, Note_on_c, 1, 65, 0
3, 119760, Note_on_c, 1, 64, 84
3, 119790, Note_on_c, 1, 64, 0
3, 119820, Note_on_c, 1, 62, 73
3, 119850, Note_on_c, 1, 62, 0
3, 119880, Note_on_c, 1, 60, 44
3, 120000, Note_on_c, 1, 60, 0
3, 120600, Note_on_c, 1, 76, 74
3, 120660, Note_on_c, 1, 76, 0
3, 120660, Note_on_c, 1, 79, 84
3, 120840, Note_on_c, 1, 79, 0
3, 120840, Note_on_c, 1, 76, 71
3, 120870, Note_on_c, 1, 76, 0
3, 120900, Note_on_c, 1, 72, 95
3, 120930, Note_on_c, 1, 72, 0
3, 120960, Note_on_c, 1, 71, 73
3, 120990, Note_on_c, 1, 71, 0
3, 121020, Note_on_c, 1, 69, 84
3, 121050, Note_on_c, 1, 69, 0
3, 121080, Note_on_c, 1, 67, 65
3, 121110, Note_on_c, 1, 67, 0
3, 121140, Note_on_c, 1, 65, 80
3, 121170, Note_on_c, 1, 65, 0
3, 121200, Note_on_c, 1, 64, 84
3, 121230, Note_on_c, 1, 64, 0
3, 121260, Note_on_c, 1, 62, 73
3, 121290, Note_on_c, 1, 62, 0
3, 121320, Note_on_c, 1, 60, 44
3, 121440, Note_on_c, 1, 60, 0
3, 122040, Note_on_c, 1, 72, 65
3, 122040, Note_on_c, 1, 76, 78
3, 122400, Note_on_c, 1, 76, 0
3, 122400, Note_on_c, 1, 74, 85
3, 122560, Note_on_c, 1, 72, 0
3, 122580, Note_on_c, 1, 74, 0
3, 122580, Note_on_c, 1, 71, 65
3, 122580, Note_on_c, 1, 74, 59
3, 122760, Note_on_c, 1, 74, 0
3, 122760, Note_on_c, 1, 71, 0
3, 122760, Note_on_c, 1, 72, 76
3, 122880, Note_on_c, 1, 72, 0
3, 123120, Note_on_c, 1, 74, 73
3, 123120, Note_on_c, 1, 71, 70
3, 123240, Note_on_c, 1, 71, 0
3, 123240, Note_on_c, 1, 74, 0
3, 123480, Note_on_c, 1, 76, 55
3, 123480, Note_on_c, 1, 72, 76
3, 123600, Note_on_c, 1, 72, 0
3, 123600, Note_on_c, 1, 76, 0
3, 123840, Note_on_c, 1, 71, 57
3, 123840, Note_on_c, 1, 74, 46
3, 123960, Note_on_c, 1, 74, 0
3, 123960, Note_on_c, 1, 71, 0
3, 124200, Note_on_c, 1, 76, 89
3, 124200, Note_on_c, 1, 72, 73
3, 124260, Note_on_c, 1, 72, 0
3, 124260, Note_on_c, 1, 76, 0
3, 124260, Note_on_c, 1, 76, 89
3, 124320, Note_on_c, 1, 76, 0
3, 124320, Note_on_c, 1, 74, 99
3, 124380, Note_on_c, 1, 74, 0
3, 124380, Note_on_c, 1, 72, 76
3, 124440, Note_on_c, 1, 72, 0
3, 124440, Note_on_c, 1, 71, 90
3, 124500, Note_on_c, 1, 71, 0
3, 124500, Note_on_c, 1, 69, 95
3, 124560, Note_on_c, 1, 69, 0
3, 124560, Note_on_c, 1, 67, 95
3, 124620, Note_on_c, 1, 67, 0
3, 124620, Note_on_c, 1, 69, 89
3, 124620, Note_on_c, 1, 81, 84
3, 124680, Note_on_c, 1, 81, 0
3, 124680, Note_on_c, 1, 69, 0
3, 124680, Note_on_c, 1, 67, 84
3, 124680, Note_on_c, 1, 79, 81
3, 124740, Note_on_c, 1, 79, 0
3, 124740, Note_on_c, 1, 67, 0
3, 124740, Note_on_c, 1, 65, 89
3, 124740, Note_on_c, 1, 77, 80
3, 124800, Note_on_c, 1, 77, 0
3, 124800, Note_on_c, 1, 65, 0
3, 124800, Note_on_c, 1, 76, 89
3, 124800, Note_on_c, 1, 64, 93
3, 124860, Note_on_c, 1, 64, 0
3, 124860, Note_on_c, 1, 76, 0
3, 124860, Note_on_c, 1, 62, 84
3, 124860, Note_on_c, 1, 74, 89
3, 124920, Note_on_c, 1, 74, 0
3, 124920, Note_on_c, 1, 62, 0
3, 124920, Note_on_c, 1, 60, 85
3, 124920, Note_on_c, 1, 72, 74
3, 125040, Note_on_c, 1, 72, 0
3, 125040, Note_on_c, 1, 60, 0
3, 125100, Note_on_c, 1, 71, 82
3, 125100, Note_on_c, 1, 74, 78
3, 125220, Note_on_c, 1, 74, 0
3, 125220, Note_on_c, 1, 71, 0
3, 125280, Note_on_c, 1, 76, 78
3, 125280, Note_on_c, 1, 72, 80
3, 125400, Note_on_c, 1, 72, 0
3, 125400, Note_on_c, 1, 76, 0
3, 125460, Note_on_c, 1, 74, 89
3, 125460, Note_on_c, 1, 83, 67
3, 125580, Note_on_c, 1, 83, 0
3, 125580, Note_on_c, 1, 74, 0
3, 125640, Note_on_c, 1, 76, 90
3, 125640, Note_on_c, 1, 84, 74
3, 125760, Note_on_c, 1, 84, 0
3, 125760, Note_on_c, 1, 76, 0
3, 126000, Note_on_c, 1, 67, 84
3, 126000, Note_on_c, 1, 76, 81
3, 126120, Note_on_c, 1, 76, 0
3, 126120, Note_on_c, 1, 67, 0
3, 126360, Note_on_c, 1, 64, 84
3, 126360, Note_on_c, 1, 72, 74
3, 126480, Note_on_c, 1, 72, 0
3, 126480, Note_on_c, 1, 64, 0
3, 126480, End_track
4, 0, Start_track
4, 0, MIDI_port, 0
4, 0, Title_t, "Clarinets"
4, 0, Program_c, 2, 71
4, 0, Control_c, 2, 7, 100
4, 0, Control_c, 2, 10, 48
4, 0, Control_c, 2, 93, 0
4, 0, Control_c, 2, 91, 66
4, 9600, Control_c, 2, 7, 89
4, 9660, Note_on_c, 2, 64, 94
4, 9660, Note_on_c, 2, 67, 81
4, 9690, Note_on_c, 2, 67, 0
4, 9690, Note_on_c, 2, 64, 0
4, 9720, Note_on_c, 2, 64, 99
4, 9720, Note_on_c, 2, 67, 81
4, 9750, Note_on_c, 2, 67, 0
4, 9750, Note_on_c, 2, 64, 0
4, 9780, Note_on_c, 2, 64, 99
4, 9780, Note_on_c, 2, 67, 84
4, 9810, Note_on_c, 2, 67, 0
4, 9810, Note_on_c, 2, 64, 0
4, 9840, Note_on_c, 2, 65, 90
4, 9840, Note_on_c, 2, 68, 98
4, 9870, Note_on_c, 2, 68, 0
4, 9870, Note_on_c, 2, 65, 0
4, 9900, Note_on_c, 2, 72, 80
4, 9930, Note_on_c, 2, 72, 0
4, 9930, Note_on_c, 2, 70, 95
4, 9960, Note_on_c, 2, 70, 0
4, 9960, Note_on_c, 2, 68, 99
4, 9990, Note_on_c, 2, 68, 0
4, 9990, Note_on_c, 2, 67, 98
4, 10020, Note_on_c, 2, 67, 0
4, 10020, Note_on_c, 2, 65, 101
4, 10050, Note_on_c, 2, 65, 0
4, 10050, Note_on_c, 2, 63, 94
4, 10080, Note_on_c, 2, 63, 0
4, 10080, Note_on_c, 2, 62, 101
4, 10140, Note_on_c, 2, 62, 0
4, 10140, Note_on_c, 2, 65, 85
4, 10140, Note_on_c, 2, 62, 93
4, 10170, Note_on_c, 2, 62, 0
4, 10170, Note_on_c, 2, 65, 0
4, 10200, Note_on_c, 2, 65, 86
4, 10200, Note_on_c, 2, 62, 90
4, 10230, Note_on_c, 2, 62, 0
4, 10230, Note_on_c, 2, 65, 0
4, 10260, Note_on_c, 2, 62, 95
4, 10260, Note_on_c, 2, 65, 94
4, 10290, Note_on_c, 2, 65, 0
4, 10290, Note_on_c, 2, 62, 0
4, 10320, Note_on_c, 2, 63, 94
4, 10320, Note_on_c, 2, 67, 90
4, 10350, Note_on_c, 2, 67, 0
4, 10350, Note_on_c, 2, 63, 0
4, 10500, Note_on_c, 2, 63, 95
4, 10560, Note_on_c, 2, 63, 0
4, 10560, Note_on_c, 2, 65, 93
4, 10560, Note_on_c, 2, 72, 66
4, 10680, Note_on_c, 2, 72, 0
4, 10680, Note_on_c, 2, 65, 0
4, 10680, Note_on_c, 2, 66, 90
4, 10680, Note_on_c, 2, 72, 76
4, 10800, Note_on_c, 2, 72, 0
4, 10800, Note_on_c, 2, 66, 0
4, 10800, Note_on_c, 2, 67, 94
4, 10800, Note_on_c, 2, 71, 90
4, 10980, Note_on_c, 2, 71, 0
4, 10980, Note_on_c, 2, 67, 0
4, 10980, Note_on_c, 2, 71, 86
4, 10980, Note_on_c, 2, 67, 90
4, 11040, Note_on_c, 2, 67, 0
4, 11040, Note_on_c, 2, 71, 0
4, 11040, Note_on_c, 2, 65, 89
4, 11040, Note_on_c, 2, 72, 74
4, 11160, Note_on_c, 2, 72, 0
4, 11160, Note_on_c, 2, 65, 0
4, 11160, Note_on_c, 2, 66, 93
4, 11160, Note_on_c, 2, 72, 78
4, 11280, Note_on_c, 2, 72, 0
4, 11280, Note_on_c, 2, 66, 0
4, 11280, Note_on_c, 2, 71, 93
4, 11280, Note_on_c, 2, 67, 98
4, 11460, Note_on_c, 2, 67, 0
4, 11460, Note_on_c, 2, 71, 0
4, 11460, Note_on_c, 2, 67, 94
4, 11460, Note_on_c, 2, 71, 89
4, 11520, Note_on_c, 2, 71, 0
4, 11520, Note_on_c, 2, 67, 0
4, 11520, Note_on_c, 2, 65, 93
4, 11520, Note_on_c, 2, 72, 72
4, 11640, Note_on_c, 2, 72, 0
4, 11640, Note_on_c, 2, 65, 0
4, 11640, Note_on_c, 2, 66, 89
4, 11640, Note_on_c, 2, 72, 74
4, 11760, Note_on_c, 2, 72, 0
4, 11760, Note_on_c, 2, 66, 0
4, 11760, Note_on_c, 2, 67, 81
4, 11760, Note_on_c, 2, 71, 86
4, 11830, Control_c, 2, 7, 99
4, 11835, Control_c, 2, 7, 97
4, 11840, Control_c, 2, 7, 95
4, 11845, Control_c, 2, 7, 92
4, 11850, Control_c, 2, 7, 90
4, 11855, Control_c, 2, 7, 88
4, 11860, Control_c, 2, 7, 85
4, 11865, Control_c, 2, 7, 83
4, 11870, Control_c, 2, 7, 81
4, 11875, Control_c, 2, 7, 78
4, 11880, Control_c, 2, 7, 76
4, 11885, Control_c, 2, 7, 74
4, 11890, Control_c, 2, 7, 71
4, 11895, Control_c, 2, 7, 69
4, 11900, Control_c, 2, 7, 66
4, 11940, Note_on_c, 2, 71, 0
4, 11940, Note_on_c, 2, 67, 0
4, 12120, Control_c, 2, 7, 99
4, 12900, Note_on_c, 2, 67, 78
4, 12900, Note_on_c, 2, 79, 70
4, 12960, Note_on_c, 2, 79, 0
4, 12960, Note_on_c, 2, 67, 0
4, 12960, Note_on_c, 2, 68, 84
4, 12960, Note_on_c, 2, 80, 74
4, 13020, Note_on_c, 2, 80, 0
4, 13020, Note_on_c, 2, 68, 0
4, 13020, Note_on_c, 2, 71, 84
4, 13080, Note_on_c, 2, 71, 0
4, 13080, Note_on_c, 2, 71, 80
4, 13110, Note_on_c, 2, 71, 0
4, 13140, Note_on_c, 2, 71, 89
4, 13170, Note_on_c, 2, 71, 0
4, 13200, Note_on_c, 2, 72, 74
4, 13320, Note_on_c, 2, 72, 0
4, 13320, Note_on_c, 2, 74, 99
4, 13350, Note_on_c, 2, 74, 0
4, 13350, Note_on_c, 2, 72, 72
4, 13380, Note_on_c, 2, 72, 0
4, 13380, Note_on_c, 2, 71, 94
4, 13410, Note_on_c, 2, 71, 0
4, 13410, Note_on_c, 2, 72, 76
4, 13440, Note_on_c, 2, 72, 0
4, 13440, Note_on_c, 2, 62, 84
4, 13440, Note_on_c, 2, 72, 64
4, 13470, Note_on_c, 2, 72, 0
4, 13470, Note_on_c, 2, 62, 0
4, 13500, Note_on_c, 2, 62, 86
4, 13500, Note_on_c, 2, 72, 69
4, 13530, Note_on_c, 2, 72, 0
4, 13530, Note_on_c, 2, 62, 0
4, 13560, Note_on_c, 2, 71, 78
4, 13560, Note_on_c, 2, 62, 85
4, 13590, Note_on_c, 2, 62, 0
4, 13590, Note_on_c, 2, 71, 0
4, 13620, Note_on_c, 2, 62, 90
4, 13620, Note_on_c, 2, 71, 81
4, 13650, Note_on_c, 2, 71, 0
4, 13650, Note_on_c, 2, 62, 0
4, 13680, Note_on_c, 2, 67, 78
4, 13680, Note_on_c, 2, 72, 45
4, 13800, Note_on_c, 2, 72, 0
4, 13800, Note_on_c, 2, 67, 0
4, 13800, Note_on_c, 2, 77, 76
4, 13800, Note_on_c, 2, 74, 86
4, 13830, Note_on_c, 2, 74, 0
4, 13830, Note_on_c, 2, 77, 0
4, 13830, Note_on_c, 2, 75, 77
4, 13830, Note_on_c, 2, 72, 36
4, 13860, Note_on_c, 2, 72, 0
4, 13860, Note_on_c, 2, 75, 0
4, 13860, Note_on_c, 2, 71, 76
4, 13860, Note_on_c, 2, 74, 82
4, 13890, Note_on_c, 2, 74, 0
4, 13890, Note_on_c, 2, 71, 0
4, 13890, Note_on_c, 2, 72, 61
4, 13890, Note_on_c, 2, 75, 85
4, 13920, Note_on_c, 2, 75, 0
4, 13920, Note_on_c, 2, 72, 0
4, 13920, Note_on_c, 2, 77, 57
4, 13920, Note_on_c, 2, 74, 84
4, 13950, Note_on_c, 2, 74, 0
4, 13950, Note_on_c, 2, 77, 0
4, 13980, Note_on_c, 2, 65, 78
4, 13980, Note_on_c, 2, 74, 76
4, 14010, Note_on_c, 2, 74, 0
4, 14010, Note_on_c, 2, 65, 0
4, 14040, Note_on_c, 2, 62, 78
4, 14040, Note_on_c, 2, 71, 61
4, 14070, Note_on_c, 2, 71, 0
4, 14070, Note_on_c, 2, 62, 0
4, 14100, Note_on_c, 2, 71, 71
4, 14100, Note_on_c, 2, 62, 78
4, 14130, Note_on_c, 2, 62, 0
4, 14130, Note_on_c, 2, 71, 0
4, 14160, Note_on_c, 2, 75, 71
4, 14160, Note_on_c, 2, 67, 68
4, 14280, Note_on_c, 2, 67, 0
4, 14280, Note_on_c, 2, 75, 0
4, 14280, Note_on_c, 2, 65, 81
4, 14280, Note_on_c, 2, 74, 76
4, 14310, Note_on_c, 2, 74, 0
4, 14310, Note_on_c, 2, 65, 0
4, 14310, Note_on_c, 2, 63, 73
4, 14310, Note_on_c, 2, 72, 45
4, 14340, Note_on_c, 2, 72, 0
4, 14340, Note_on_c, 2, 63, 0
4, 14340, Note_on_c, 2, 71, 73
4, 14340, Note_on_c, 2, 62, 80
4, 14370, Note_on_c, 2, 62, 0
4, 14370, Note_on_c, 2, 71, 0
4, 14370, Note_on_c, 2, 63, 78
4, 14370, Note_on_c, 2, 72, 61
4, 14400, Note_on_c, 2, 72, 0
4, 14400, Note_on_c, 2, 63, 0
4, 14400, Note_on_c, 2, 65, 81
4, 14400, Note_on_c, 2, 74, 65
4, 14430, Note_on_c, 2, 74, 0
4, 14430, Note_on_c, 2, 65, 0
4, 14460, Note_on_c, 2, 65, 82
4, 14460, Note_on_c, 2, 74, 76
4, 14490, Note_on_c, 2, 74, 0
4, 14490, Note_on_c, 2, 65, 0
4, 14520, Note_on_c, 2, 71, 72
4, 14520, Note_on_c, 2, 62, 80
4, 14550, Note_on_c, 2, 62, 0
4, 14550, Note_on_c, 2, 71, 0
4, 14580, Note_on_c, 2, 62, 85
4, 14580, Note_on_c, 2, 71, 77
4, 14610, Note_on_c, 2, 71, 0
4, 14610, Note_on_c, 2, 62, 0
4, 14640, Note_on_c, 2, 63, 77
4, 14640, Note_on_c, 2, 72, 57
4, 14700, Note_on_c, 2, 72, 0
4, 14700, Note_on_c, 2, 63, 0
4, 14760, Note_on_c, 2, 67, 89
4, 14820, Note_on_c, 2, 67, 0
4, 14880, Note_on_c, 2, 60, 94
4, 14940, Note_on_c, 2, 60, 0
4, 15120, Note_on_c, 2, 63, 89
4, 15120, Note_on_c, 2, 67, 80
4, 15240, Note_on_c, 2, 67, 0
4, 15240, Note_on_c, 2, 63, 0
4, 15240, Note_on_c, 2, 63, 81
4, 15240, Note_on_c, 2, 67, 81
4, 15330, Note_on_c, 2, 67, 0
4, 15330, Note_on_c, 2, 63, 0
4, 15330, Note_on_c, 2, 63, 81
4, 15330, Note_on_c, 2, 67, 72
4, 15360, Note_on_c, 2, 67, 0
4, 15360, Note_on_c, 2, 63, 0
4, 15360, Note_on_c, 2, 67, 81
4, 15360, Note_on_c, 2, 63, 89
4, 15480, Note_on_c, 2, 63, 0
4, 15480, Note_on_c, 2, 67, 0
4, 16080, Note_on_c, 2, 65, 64
4, 16080, Note_on_c, 2, 68, 78
4, 16200, Note_on_c, 2, 68, 0
4, 16200, Note_on_c, 2, 65, 0
4, 16200, Note_on_c, 2, 65, 77
4, 16200, Note_on_c, 2, 68, 77
4, 16290, Note_on_c, 2, 68, 0
4, 16290, Note_on_c, 2, 65, 0
4, 16290, Note_on_c, 2, 65, 72
4, 16290, Note_on_c, 2, 68, 81
4, 16320, Note_on_c, 2, 68, 0
4, 16320, Note_on_c, 2, 65, 0
4, 16320, Note_on_c, 2, 65, 53
4, 16320, Note_on_c, 2, 68, 76
4, 16440, Note_on_c, 2, 68, 0
4, 16440, Note_on_c, 2, 65, 0
4, 19920, Note_on_c, 2, 75, 43
4, 19920, Note_on_c, 2, 67, 46
4, 20160, Note_on_c, 2, 67, 0
4, 20160, Note_on_c, 2, 75, 0
4, 20160, Note_on_c, 2, 68, 43
4, 20160, Note_on_c, 2, 74, 43
4, 20400, Note_on_c, 2, 74, 0
4, 20400, Note_on_c, 2, 68, 0
4, 20400, Note_on_c, 2, 75, 44
4, 20400, Note_on_c, 2, 67, 49
4, 20460, Note_on_c, 2, 67, 0
4, 20460, Note_on_c, 2, 75, 0
4, 20460, Note_on_c, 2, 75, 36
4, 20460, Note_on_c, 2, 67, 43
4, 20520, Note_on_c, 2, 67, 0
4, 20520, Note_on_c, 2, 75, 0
4, 20520, Note_on_c, 2, 75, 41
4, 20520, Note_on_c, 2, 67, 53
4, 20580, Note_on_c, 2, 67, 0
4, 20580, Note_on_c, 2, 75, 0
4, 20580, Note_on_c, 2, 75, 43
4, 20580, Note_on_c, 2, 67, 50
4, 20640, Note_on_c, 2, 67, 0
4, 20640, Note_on_c, 2, 75, 0
4, 20640, Note_on_c, 2, 77, 57
4, 20640, Note_on_c, 2, 74, 76
4, 20880, Note_on_c, 2, 74, 0
4, 20880, Note_on_c, 2, 77, 0
4, 20880, Note_on_c, 2, 79, 69
4, 20880, Note_on_c, 2, 75, 84
4, 21000, Note_on_c, 2, 75, 0
4, 21000, Note_on_c, 2, 76, 80
4, 21120, Note_on_c, 2, 76, 0
4, 21120, Note_on_c, 2, 79, 0
4, 21120, Note_on_c, 2, 77, 80
4, 21120, Note_on_c, 2, 80, 84
4, 21300, Note_on_c, 2, 80, 0
4, 21300, Note_on_c, 2, 77, 0
4, 21300, Note_on_c, 2, 77, 84
4, 21300, Note_on_c, 2, 72, 89
4, 21360, Note_on_c, 2, 72, 0
4, 21360, Note_on_c, 2, 77, 0
4, 21360, Note_on_c, 2, 75, 86
4, 21360, Note_on_c, 2, 67, 70
4, 21420, Note_on_c, 2, 67, 0
4, 21420, Note_on_c, 2, 75, 0
4, 21420, Note_on_c, 2, 75, 72
4, 21420, Note_on_c, 2, 67, 70
4, 21480, Note_on_c, 2, 67, 0
4, 21480, Note_on_c, 2, 75, 0
4, 21480, Note_on_c, 2, 68, 73
4, 21480, Note_on_c, 2, 74, 90
4, 21540, Note_on_c, 2, 74, 0
4, 21540, Note_on_c, 2, 68, 0
4, 21540, Note_on_c, 2, 68, 73
4, 21540, Note_on_c, 2, 74, 94
4, 21600, Note_on_c, 2, 74, 0
4, 21600, Note_on_c, 2, 68, 0
4, 21600, Note_on_c, 2, 75, 73
4, 21600, Note_on_c, 2, 67, 82
4, 21720, Note_on_c, 2, 67, 0
4, 21720, Note_on_c, 2, 75, 0
4, 22140, Note_on_c, 2, 82, 73
4, 22260, Note_on_c, 2, 82, 0
4, 22260, Note_on_c, 2, 80, 69
4, 22320, Note_on_c, 2, 80, 0
4, 22320, Note_on_c, 2, 79, 78
4, 22350, Note_on_c, 2, 79, 0
4, 22380, Note_on_c, 2, 77, 62
4, 22380, Note_on_c, 2, 72, 29
4, 22410, Note_on_c, 2, 72, 0
4, 22410, Note_on_c, 2, 77, 0
4, 22440, Note_on_c, 2, 75, 64
4, 22440, Note_on_c, 2, 67, 73
4, 22470, Note_on_c, 2, 67, 0
4, 22470, Note_on_c, 2, 75, 0
4, 22500, Note_on_c, 2, 68, 73
4, 22500, Note_on_c, 2, 74, 67
4, 22530, Note_on_c, 2, 74, 0
4, 22530, Note_on_c, 2, 68, 0
4, 22560, Note_on_c, 2, 75, 61
4, 22560, Note_on_c, 2, 67, 67
4, 22590, Note_on_c, 2, 67, 0
4, 22590, Note_on_c, 2, 75, 0
4, 22860, Note_on_c, 2, 70, 71
4, 22920, Note_on_c, 2, 70, 0
4, 22920, Note_on_c, 2, 72, 84
4, 22980, Note_on_c, 2, 72, 0
4, 22980, Note_on_c, 2, 74, 62
4, 23040, Note_on_c, 2, 74, 0
4, 23040, Note_on_c, 2, 75, 68
4, 23100, Note_on_c, 2, 75, 0
4, 23100, Note_on_c, 2, 70, 61
4, 23160, Note_on_c, 2, 70, 0
4, 23160, Note_on_c, 2, 72, 76
4, 23220, Note_on_c, 2, 72, 0
4, 23220, Note_on_c, 2, 74, 69
4, 23280, Note_on_c, 2, 74, 0
4, 23280, Note_on_c, 2, 75, 76
4, 23340, Note_on_c, 2, 75, 0
4, 23340, Note_on_c, 2, 72, 86
4, 23400, Note_on_c, 2, 72, 0
4, 23400, Note_on_c, 2, 67, 80
4, 23460, Note_on_c, 2, 67, 0
4, 23460, Note_on_c, 2, 68, 81
4, 23520, Note_on_c, 2, 68, 0
4, 23520, Note_on_c, 2, 67, 70
4, 23580, Note_on_c, 2, 67, 0
4, 24000, Note_on_c, 2, 74, 58
4, 24060, Note_on_c, 2, 74, 0
4, 24120, Note_on_c, 2, 70, 78
4, 24180, Note_on_c, 2, 70, 0
4, 24240, Note_on_c, 2, 79, 73
4, 24300, Note_on_c, 2, 79, 0
4, 24360, Note_on_c, 2, 75, 76
4, 24420, Note_on_c, 2, 75, 0
4, 24480, Note_on_c, 2, 72, 84
4, 24540, Note_on_c, 2, 72, 0
4, 24600, Note_on_c, 2, 75, 61
4, 24660, Note_on_c, 2, 75, 0
4, 24720, Note_on_c, 2, 75, 76
4, 24780, Note_on_c, 2, 75, 0
4, 24840, Note_on_c, 2, 75, 69
4, 24900, Note_on_c, 2, 75, 0
4, 24960, Note_on_c, 2, 75, 77
4, 25020, Note_on_c, 2, 75, 0
4, 28620, Note_on_c, 2, 63, 84
4, 28620, Note_on_c, 2, 72, 72
4, 28740, Note_on_c, 2, 72, 0
4, 28740, Note_on_c, 2, 63, 0
4, 28740, Note_on_c, 2, 63, 80
4, 28740, Note_on_c, 2, 72, 81
4, 28800, Note_on_c, 2, 72, 0
4, 28800, Note_on_c, 2, 63, 0
4, 28800, Note_on_c, 2, 71, 74
4, 28800, Note_on_c, 2, 62, 89
4, 28860, Note_on_c, 2, 62, 0
4, 28860, Note_on_c, 2, 71, 0
4, 29100, Note_on_c, 2, 63, 80
4, 29100, Note_on_c, 2, 72, 84
4, 29220, Note_on_c, 2, 72, 0
4, 29220, Note_on_c, 2, 63, 0
4, 29220, Note_on_c, 2, 63, 80
4, 29220, Note_on_c, 2, 72, 84
4, 29280, Note_on_c, 2, 72, 0
4, 29280, Note_on_c, 2, 63, 0
4, 29280, Note_on_c, 2, 71, 67
4, 29280, Note_on_c, 2, 62, 84
4, 29340, Note_on_c, 2, 62, 0
4, 29340, Note_on_c, 2, 71, 0
4, 29400, Note_on_c, 2, 65, 45
4, 29400, Note_on_c, 2, 62, 43
4, 29460, Note_on_c, 2, 62, 0
4, 29460, Note_on_c, 2, 65, 0
4, 29640, Note_on_c, 2, 71, 50
4, 29640, Note_on_c, 2, 62, 53
4, 29760, Note_on_c, 2, 62, 0
4, 29760, Note_on_c, 2, 71, 0
4, 29880, Note_on_c, 2, 65, 50
4, 29880, Note_on_c, 2, 71, 49
4, 30000, Note_on_c, 2, 71, 0
4, 30000, Note_on_c, 2, 65, 0
4, 30120, Note_on_c, 2, 71, 47
4, 30120, Note_on_c, 2, 74, 46
4, 30240, Note_on_c, 2, 74, 0
4, 30240, Note_on_c, 2, 71, 0
4, 30240, Note_on_c, 2, 71, 44
4, 30240, Note_on_c, 2, 62, 43
4, 30360, Note_on_c, 2, 62, 0
4, 30360, Note_on_c, 2, 71, 0
4, 42720, Control_c, 2, 7, 89
4, 42780, Note_on_c, 2, 64, 94
4, 42780, Note_on_c, 2, 67, 81
4, 42810, Note_on_c, 2, 67, 0
4, 42810, Note_on_c, 2, 64, 0
4, 42840, Note_on_c, 2, 64, 99
4, 42840, Note_on_c, 2, 67, 81
4, 42870, Note_on_c, 2, 67, 0
4, 42870, Note_on_c, 2, 64, 0
4, 42900, Note_on_c, 2, 64, 99
4, 42900, Note_on_c, 2, 67, 84
4, 42930, Note_on_c, 2, 67, 0
4, 42930, Note_on_c, 2, 64, 0
4, 42960, Note_on_c, 2, 65, 90
4, 42960, Note_on_c, 2, 68, 98
4, 42990, Note_on_c, 2, 68, 0
4, 42990, Note_on_c, 2, 65, 0
4, 43020, Note_on_c, 2, 72, 80
4, 43050, Note_on_c, 2, 72, 0
4, 43050, Note_on_c, 2, 70, 95
4, 43080, Note_on_c, 2, 70, 0
4, 43080, Note_on_c, 2, 68, 99
4, 43110, Note_on_c, 2, 68, 0
4, 43110, Note_on_c, 2, 67, 98
4, 43140, Note_on_c, 2, 67, 0
4, 43140, Note_on_c, 2, 65, 101
4, 43170, Note_on_c, 2, 65, 0
4, 43170, Note_on_c, 2, 63, 94
4, 43200, Note_on_c, 2, 63, 0
4, 43200, Note_on_c, 2, 62, 101
4, 43260, Note_on_c, 2, 62, 0
4, 43260, Note_on_c, 2, 65, 85
4, 43260, Note_on_c, 2, 62, 93
4, 43290, Note_on_c, 2, 62, 0
4, 43290, Note_on_c, 2, 65, 0
4, 43320, Note_on_c, 2, 65, 86
4, 43320, Note_on_c, 2, 62, 90
4, 43350, Note_on_c, 2, 62, 0
4, 43350, Note_on_c, 2, 65, 0
4, 43380, Note_on_c, 2, 62, 95
4, 43380, Note_on_c, 2, 65, 94
4, 43410, Note_on_c, 2, 65, 0
4, 43410, Note_on_c, 2, 62, 0
4, 43440, Note_on_c, 2, 63, 94
4, 43440, Note_on_c, 2, 67, 90
4, 43470, Note_on_c, 2, 67, 0
4, 43470, Note_on_c, 2, 63, 0
4, 43620, Note_on_c, 2, 63, 95
4, 43680, Note_on_c, 2, 63, 0
4, 43680, Note_on_c, 2, 65, 93
4, 43680, Note_on_c, 2, 72, 66
4, 43800, Note_on_c, 2, 72, 0
4, 43800, Note_on_c, 2, 65, 0
4, 43800, Note_on_c, 2, 66, 90
4, 43800, Note_on_c, 2, 72, 76
4, 43920, Note_on_c, 2, 72, 0
4, 43920, Note_on_c, 2, 66, 0
4, 43920, Note_on_c, 2, 67, 94
4, 43920, Note_on_c, 2, 71, 90
4, 44100, Note_on_c, 2, 71, 0
4, 44100, Note_on_c, 2, 67, 0
4, 44100, Note_on_c, 2, 71, 86
4, 44100, Note_on_c, 2, 67, 90
4, 44160, Note_on_c, 2, 67, 0
4, 44160, Note_on_c, 2, 71, 0
4, 44160, Note_on_c, 2, 65, 89
4, 44160, Note_on_c, 2, 72, 74
4, 44280, Note_on_c, 2, 72, 0
4, 44280, Note_on_c, 2, 65, 0
4, 44280, Note_on_c, 2, 66, 93
4, 44280, Note_on_c, 2, 72, 78
4, 44400, Note_on_c, 2, 72, 0
4, 44400, Note_on_c, 2, 66, 0
4, 44400, Note_on_c, 2, 71, 93
4, 44400, Note_on_c, 2, 67, 98
4, 44580, Note_on_c, 2, 67, 0
4, 44580, Note_on_c, 2, 71, 0
4, 44580, Note_on_c, 2, 67, 94
4, 44580, Note_on_c, 2, 71, 89
4, 44640, Note_on_c, 2, 71, 0
4, 44640, Note_on_c, 2, 67, 0
4, 44640, Note_on_c, 2, 65, 93
4, 44640, Note_on_c, 2, 72, 72
4, 44760, Note_on_c, 2, 72, 0
4, 44760, Note_on_c, 2, 65, 0
4, 44760, Note_on_c, 2, 66, 89
4, 44760, Note_on_c, 2, 72, 74
4, 44880, Note_on_c, 2, 72, 0
4, 44880, Note_on_c, 2, 66, 0
4, 44880, Note_on_c, 2, 67, 81
4, 44880, Note_on_c, 2, 71, 86
4, 44950, Control_c, 2, 7, 99
4, 44955, Control_c, 2, 7, 97
4, 44960, Control_c, 2, 7, 95
4, 44965, Control_c, 2, 7, 92
4, 44970, Control_c, 2, 7, 90
4, 44975, Control_c, 2, 7, 88
4, 44980, Control_c, 2, 7, 85
4, 44985, Control_c, 2, 7, 83
4, 44990, Control_c, 2, 7, 81
4, 44995, Control_c, 2, 7, 78
4, 45000, Control_c, 2, 7, 76
4, 45005, Control_c, 2, 7, 74
4, 45010, Control_c, 2, 7, 71
4, 45015, Control_c, 2, 7, 69
4, 45020, Control_c, 2, 7, 66
4, 45060, Note_on_c, 2, 71, 0
4, 45060, Note_on_c, 2, 67, 0
4, 45240, Control_c, 2, 7, 99
4, 46020, Note_on_c, 2, 67, 78
4, 46020, Note_on_c, 2, 79, 70
4, 46080, Note_on_c, 2, 79, 0
4, 46080, Note_on_c, 2, 67, 0
4, 46080, Note_on_c, 2, 68, 84
4, 46080, Note_on_c, 2, 80, 74
4, 46140, Note_on_c, 2, 80, 0
4, 46140, Note_on_c, 2, 68, 0
4, 46140, Note_on_c, 2, 71, 84
4, 46200, Note_on_c, 2, 71, 0
4, 46200, Note_on_c, 2, 71, 80
4, 46230, Note_on_c, 2, 71, 0
4, 46260, Note_on_c, 2, 71, 89
4, 46290, Note_on_c, 2, 71, 0
4, 46320, Note_on_c, 2, 72, 74
4, 46440, Note_on_c, 2, 72, 0
4, 46440, Note_on_c, 2, 74, 99
4, 46470, Note_on_c, 2, 74, 0
4, 46470, Note_on_c, 2, 72, 72
4, 46500, Note_on_c, 2, 72, 0
4, 46500, Note_on_c, 2, 71, 94
4, 46530, Note_on_c, 2, 71, 0
4, 46530, Note_on_c, 2, 72, 76
4, 46560, Note_on_c, 2, 72, 0
4, 46560, Note_on_c, 2, 62, 84
4, 46560, Note_on_c, 2, 72, 64
4, 46590, Note_on_c, 2, 72, 0
4, 46590, Note_on_c, 2, 62, 0
4, 46620, Note_on_c, 2, 62, 86
4, 46620, Note_on_c, 2, 72, 69
4, 46650, Note_on_c, 2, 72, 0
4, 46650, Note_on_c, 2, 62, 0
4, 46680, Note_on_c, 2, 71, 78
4, 46680, Note_on_c, 2, 62, 85
4, 46710, Note_on_c, 2, 62, 0
4, 46710, Note_on_c, 2, 71, 0
4, 46740, Note_on_c, 2, 62, 90
4, 46740, Note_on_c, 2, 71, 81
4, 46770, Note_on_c, 2, 71, 0
4, 46770, Note_on_c, 2, 62, 0
4, 46800, Note_on_c, 2, 67, 78
4, 46800, Note_on_c, 2, 72, 45
4, 46920, Note_on_c, 2, 72, 0
4, 46920, Note_on_c, 2, 67, 0
4, 46920, Note_on_c, 2, 77, 76
4, 46920, Note_on_c, 2, 74, 86
4, 46950, Note_on_c, 2, 74, 0
4, 46950, Note_on_c, 2, 77, 0
4, 46950, Note_on_c, 2, 75, 77
4, 46950, Note_on_c, 2, 72, 36
4, 46980, Note_on_c, 2, 72, 0
4, 46980, Note_on_c, 2, 75, 0
4, 46980, Note_on_c, 2, 71, 76
4, 46980, Note_on_c, 2, 74, 82
4, 47010, Note_on_c, 2, 74, 0
4, 47010, Note_on_c, 2, 71, 0
4, 47010, Note_on_c, 2, 72, 61
4, 47010, Note_on_c, 2, 75, 85
4, 47040, Note_on_c, 2, 75, 0
4, 47040, Note_on_c, 2, 72, 0
4, 47040, Note_on_c, 2, 77, 57
4, 47040, Note_on_c, 2, 74, 84
4, 47070, Note_on_c, 2, 74, 0
4, 47070, Note_on_c, 2, 77, 0
4, 47100, Note_on_c, 2, 65, 78
4, 47100, Note_on_c, 2, 74, 76
4, 47130, Note_on_c, 2, 74, 0
4, 47130, Note_on_c, 2, 65, 0
4, 47160, Note_on_c, 2, 62, 78
4, 47160, Note_on_c, 2, 71, 61
4, 47190, Note_on_c, 2, 71, 0
4, 47190, Note_on_c, 2, 62, 0
4, 47220, Note_on_c, 2, 71, 71
4, 47220, Note_on_c, 2, 62, 78
4, 47250, Note_on_c, 2, 62, 0
4, 47250, Note_on_c, 2, 71, 0
4, 47280, Note_on_c, 2, 75, 71
4, 47280, Note_on_c, 2, 67, 68
4, 47400, Note_on_c, 2, 67, 0
4, 47400, Note_on_c, 2, 75, 0
4, 47400, Note_on_c, 2, 65, 81
4, 47400, Note_on_c, 2, 74, 76
4, 47430, Note_on_c, 2, 74, 0
4, 47430, Note_on_c, 2, 65, 0
4, 47430, Note_on_c, 2, 63, 73
4, 47430, Note_on_c, 2, 72, 45
4, 47460, Note_on_c, 2, 72, 0
4, 47460, Note_on_c, 2, 63, 0
4, 47460, Note_on_c, 2, 71, 73
4, 47460, Note_on_c, 2, 62, 80
4, 47490, Note_on_c, 2, 62, 0
4, 47490, Note_on_c, 2, 71, 0
4, 47490, Note_on_c, 2, 63, 78
4, 47490, Note_on_c, 2, 72, 61
4, 47520, Note_on_c, 2, 72, 0
4, 47520, Note_on_c, 2, 63, 0
4, 47520, Note_on_c, 2, 65, 81
4, 47520, Note_on_c, 2, 74, 65
4, 47550, Note_on_c, 2, 74, 0
4, 47550, Note_on_c, 2, 65, 0
4, 47580, Note_on_c, 2, 65, 82
4, 47580, Note_on_c, 2, 74, 76
4, 47610, Note_on_c, 2, 74, 0
4, 47610, Note_on_c, 2, 65, 0
4, 47640, Note_on_c, 2, 71, 72
4, 47640, Note_on_c, 2, 62, 80
4, 47670, Note_on_c, 2, 62, 0
4, 47670, Note_on_c, 2, 71, 0
4, 47700, Note_on_c, 2, 62, 85
4, 47700, Note_on_c, 2, 71, 77
4, 47730, Note_on_c, 2, 71, 0
4, 47730, Note_on_c, 2, 62, 0
4, 47760, Note_on_c, 2, 63, 77
4, 47760, Note_on_c, 2, 72, 57
4, 47820, Note_on_c, 2, 72, 0
4, 47820, Note_on_c, 2, 63, 0
4, 47880, Note_on_c, 2, 67, 89
4, 47940, Note_on_c, 2, 67, 0
4, 48000, Note_on_c, 2, 60, 94
4, 48060, Note_on_c, 2, 60, 0
4, 48180, Note_on_c, 2, 63, 65
4, 48240, Note_on_c, 2, 63, 0
4, 48240, Note_on_c, 2, 72, 68
4, 48360, Note_on_c, 2, 72, 0
4, 48360, Note_on_c, 2, 73, 68
4, 48390, Note_on_c, 2, 73, 0
4, 48390, Note_on_c, 2, 72, 67
4, 48420, Note_on_c, 2, 72, 0
4, 48420, Note_on_c, 2, 70, 72
4, 48450, Note_on_c, 2, 70, 0
4, 48450, Note_on_c, 2, 72, 80
4, 48480, Note_on_c, 2, 72, 0
4, 48480, Note_on_c, 2, 73, 67
4, 48600, Note_on_c, 2, 73, 0
4, 48600, Note_on_c, 2, 70, 78
4, 48660, Note_on_c, 2, 70, 0
4, 48660, Note_on_c, 2, 68, 73
4, 48720, Note_on_c, 2, 68, 0
4, 48720, Note_on_c, 2, 67, 76
4, 48780, Note_on_c, 2, 67, 0
4, 48780, Note_on_c, 2, 75, 73
4, 48840, Note_on_c, 2, 75, 0
4, 48840, Note_on_c, 2, 75, 76
4, 48870, Note_on_c, 2, 75, 0
4, 48900, Note_on_c, 2, 75, 86
4, 48930, Note_on_c, 2, 75, 0
4, 48960, Note_on_c, 2, 75, 70
4, 49080, Note_on_c, 2, 75, 0
4, 49080, Note_on_c, 2, 80, 57
4, 49140, Note_on_c, 2, 80, 0
4, 49200, Note_on_c, 2, 72, 81
4, 49320, Note_on_c, 2, 72, 0
4, 49320, Note_on_c, 2, 73, 68
4, 49350, Note_on_c, 2, 73, 0
4, 49350, Note_on_c, 2, 72, 73
4, 49380, Note_on_c, 2, 72, 0
4, 49380, Note_on_c, 2, 70, 77
4, 49410, Note_on_c, 2, 70, 0
4, 49410, Note_on_c, 2, 72, 70
4, 49440, Note_on_c, 2, 72, 0
4, 49440, Note_on_c, 2, 73, 64
4, 49620, Note_on_c, 2, 73, 0
4, 49620, Note_on_c, 2, 75, 80
4, 49650, Note_on_c, 2, 75, 0
4, 49650, Note_on_c, 2, 77, 70
4, 49680, Note_on_c, 2, 77, 0
4, 49680, Note_on_c, 2, 68, 81
4, 49800, Note_on_c, 2, 68, 0
4, 49800, Note_on_c, 2, 70, 72
4, 49890, Note_on_c, 2, 70, 0
4, 49890, Note_on_c, 2, 67, 80
4, 49920, Note_on_c, 2, 67, 0
4, 49920, Note_on_c, 2, 68, 76
4, 50040, Note_on_c, 2, 68, 0
4, 50160, Note_on_c, 2, 75, 53
4, 50640, Note_on_c, 2, 75, 0
4, 50640, Note_on_c, 2, 75, 43
4, 51180, Note_on_c, 2, 75, 0
4, 52020, Note_on_c, 2, 70, 70
4, 52080, Note_on_c, 2, 70, 0
4, 52080, Note_on_c, 2, 75, 52
4, 52200, Note_on_c, 2, 75, 0
4, 52200, Note_on_c, 2, 75, 59
4, 52245, Note_on_c, 2, 75, 0
4, 52260, Note_on_c, 2, 75, 61
4, 52305, Note_on_c, 2, 75, 0
4, 52320, Note_on_c, 2, 75, 76
4, 52380, Note_on_c, 2, 75, 0
4, 52380, Note_on_c, 2, 74, 72
4, 52440, Note_on_c, 2, 74, 0
4, 52440, Note_on_c, 2, 70, 70
4, 52500, Note_on_c, 2, 70, 0
4, 52500, Note_on_c, 2, 72, 84
4, 52560, Note_on_c, 2, 72, 0
4, 52560, Note_on_c, 2, 73, 57
4, 52680, Note_on_c, 2, 73, 0
4, 52680, Note_on_c, 2, 73, 59
4, 52725, Note_on_c, 2, 73, 0
4, 52740, Note_on_c, 2, 73, 54
4, 52785, Note_on_c, 2, 73, 0
4, 52800, Note_on_c, 2, 73, 54
4, 52860, Note_on_c, 2, 73, 0
4, 52860, Note_on_c, 2, 72, 68
4, 52920, Note_on_c, 2, 72, 0
4, 52920, Note_on_c, 2, 70, 53
4, 52980, Note_on_c, 2, 70, 0
4, 52980, Note_on_c, 2, 68, 64
4, 53040, Note_on_c, 2, 68, 0
4, 53640, Control_c, 2, 7, 99
4, 53640, Note_on_c, 2, 73, 86
4, 53650, Control_c, 2, 7, 98
4, 53660, Control_c, 2, 7, 97
4, 53670, Control_c, 2, 7, 96
4, 53680, Control_c, 2, 7, 95
4, 53690, Control_c, 2, 7, 94
4, 53700, Control_c, 2, 7, 93
4, 53710, Control_c, 2, 7, 92
4, 53720, Control_c, 2, 7, 91
4, 53730, Control_c, 2, 7, 90
4, 53740, Control_c, 2, 7, 89
4, 53750, Control_c, 2, 7, 88
4, 53760, Control_c, 2, 7, 87
4, 53770, Control_c, 2, 7, 86
4, 53780, Control_c, 2, 7, 85
4, 53790, Control_c, 2, 7, 84
4, 53800, Control_c, 2, 7, 83
4, 53810, Control_c, 2, 7, 82
4, 53820, Control_c, 2, 7, 80
4, 53830, Control_c, 2, 7, 79
4, 53840, Control_c, 2, 7, 78
4, 53850, Control_c, 2, 7, 77
4, 53860, Control_c, 2, 7, 76
4, 53870, Control_c, 2, 7, 75
4, 53880, Control_c, 2, 7, 74
4, 53890, Control_c, 2, 7, 73
4, 53900, Control_c, 2, 7, 72
4, 53910, Control_c, 2, 7, 71
4, 53920, Control_c, 2, 7, 70
4, 53930, Control_c, 2, 7, 69
4, 53940, Control_c, 2, 7, 68
4, 53950, Control_c, 2, 7, 67
4, 53960, Control_c, 2, 7, 66
4, 53970, Control_c, 2, 7, 65
4, 53980, Control_c, 2, 7, 64
4, 53990, Control_c, 2, 7, 63
4, 54000, Note_on_c, 2, 73, 0
4, 54000, Control_c, 2, 7, 61
4, 54000, Note_on_c, 2, 72, 95
4, 54120, Note_on_c, 2, 72, 0
4, 54350, Control_c, 2, 7, 100
4, 55860, Note_on_c, 2, 70, 57
4, 55920, Note_on_c, 2, 70, 0
4, 55920, Note_on_c, 2, 75, 68
4, 56040, Note_on_c, 2, 75, 0
4, 56040, Note_on_c, 2, 75, 64
4, 56085, Note_on_c, 2, 75, 0
4, 56100, Note_on_c, 2, 75, 60
4, 56145, Note_on_c, 2, 75, 0
4, 56160, Note_on_c, 2, 75, 64
4, 56220, Note_on_c, 2, 75, 0
4, 56220, Note_on_c, 2, 74, 68
4, 56280, Note_on_c, 2, 74, 0
4, 56280, Note_on_c, 2, 70, 71
4, 56340, Note_on_c, 2, 70, 0
4, 56340, Note_on_c, 2, 72, 61
4, 56400, Note_on_c, 2, 72, 0
4, 56400, Note_on_c, 2, 73, 65
4, 56520, Note_on_c, 2, 73, 0
4, 56520, Note_on_c, 2, 73, 57
4, 56565, Note_on_c, 2, 73, 0
4, 56580, Note_on_c, 2, 73, 59
4, 56625, Note_on_c, 2, 73, 0
4, 56640, Note_on_c, 2, 73, 55
4, 56700, Note_on_c, 2, 73, 0
4, 56700, Note_on_c, 2, 72, 80
4, 56760, Note_on_c, 2, 72, 0
4, 56760, Note_on_c, 2, 70, 61
4, 56820, Note_on_c, 2, 70, 0
4, 56820, Note_on_c, 2, 68, 64
4, 56880, Note_on_c, 2, 68, 0
4, 56880, Note_on_c, 2, 79, 56
4, 57120, Note_on_c, 2, 79, 0
4, 57120, Note_on_c, 2, 80, 52
4, 57360, Note_on_c, 2, 80, 0
4, 57360, Note_on_c, 2, 82, 54
4, 57480, Note_on_c, 2, 82, 0
4, 57600, Note_on_c, 2, 75, 80
4, 57780, Note_on_c, 2, 75, 0
4, 57780, Note_on_c, 2, 73, 64
4, 57840, Note_on_c, 2, 73, 0
4, 57840, Note_on_c, 2, 72, 65
4, 57960, Note_on_c, 2, 72, 0
4, 57960, Note_on_c, 2, 73, 72
4, 57990, Note_on_c, 2, 73, 0
4, 57990, Note_on_c, 2, 72, 58
4, 58020, Note_on_c, 2, 72, 0
4, 58020, Note_on_c, 2, 70, 72
4, 58050, Note_on_c, 2, 70, 0
4, 58050, Note_on_c, 2, 72, 61
4, 58080, Note_on_c, 2, 72, 0
4, 58080, Note_on_c, 2, 73, 73
4, 58200, Note_on_c, 2, 73, 0
4, 58200, Note_on_c, 2, 70, 72
4, 58260, Note_on_c, 2, 70, 0
4, 58260, Note_on_c, 2, 68, 73
4, 58320, Note_on_c, 2, 68, 0
4, 58320, Note_on_c, 2, 67, 76
4, 58380, Note_on_c, 2, 67, 0
4, 58380, Note_on_c, 2, 75, 73
4, 58440, Note_on_c, 2, 75, 0
4, 58440, Note_on_c, 2, 75, 77
4, 58485, Note_on_c, 2, 75, 0
4, 58500, Note_on_c, 2, 75, 73
4, 58545, Note_on_c, 2, 75, 0
4, 58560, Note_on_c, 2, 75, 72
4, 58680, Note_on_c, 2, 75, 0
4, 58680, Note_on_c, 2, 80, 81
4, 58740, Note_on_c, 2, 80, 0
4, 58800, Note_on_c, 2, 80, 74
4, 58860, Note_on_c, 2, 80, 0
4, 58860, Note_on_c, 2, 78, 81
4, 58920, Note_on_c, 2, 78, 0
4, 58920, Note_on_c, 2, 77, 68
4, 58980, Note_on_c, 2, 77, 0
4, 58980, Note_on_c, 2, 76, 76
4, 59040, Note_on_c, 2, 76, 0
4, 59040, Note_on_c, 2, 77, 71
4, 59100, Note_on_c, 2, 77, 0
4, 59100, Note_on_c, 2, 69, 74
4, 59160, Note_on_c, 2, 69, 0
4, 59160, Note_on_c, 2, 70, 67
4, 59220, Note_on_c, 2, 70, 0
4, 59220, Note_on_c, 2, 73, 68
4, 59280, Note_on_c, 2, 73, 0
4, 59280, Note_on_c, 2, 68, 69
4, 59400, Note_on_c, 2, 68, 0
4, 59400, Note_on_c, 2, 70, 77
4, 59490, Note_on_c, 2, 70, 0
4, 59490, Note_on_c, 2, 67, 76
4, 59520, Note_on_c, 2, 67, 0
4, 59520, Note_on_c, 2, 68, 74
4, 59580, Note_on_c, 2, 68, 0
4, 62820, Note_on_c, 2, 74, 69
4, 62880, Note_on_c, 2, 74, 0
4, 62880, Note_on_c, 2, 75, 62
4, 62910, Note_on_c, 2, 75, 0
4, 62940, Note_on_c, 2, 63, 68
4, 62970, Note_on_c, 2, 63, 0
4, 63300, Note_on_c, 2, 77, 58
4, 63360, Note_on_c, 2, 77, 0
4, 63360, Note_on_c, 2, 79, 69
4, 63390, Note_on_c, 2, 79, 0
4, 63420, Note_on_c, 2, 67, 81
4, 63450, Note_on_c, 2, 67, 0
4, 64140, Note_on_c, 2, 68, 69
4, 64140, Note_on_c, 2, 80, 81
4, 64170, Note_on_c, 2, 80, 0
4, 64170, Note_on_c, 2, 68, 0
4, 64170, Note_on_c, 2, 79, 71
4, 64170, Note_on_c, 2, 67, 74
4, 64200, Note_on_c, 2, 67, 0
4, 64200, Note_on_c, 2, 79, 0
4, 64200, Note_on_c, 2, 65, 76
4, 64200, Note_on_c, 2, 77, 71
4, 64230, Note_on_c, 2, 77, 0
4, 64230, Note_on_c, 2, 65, 0
4, 64230, Note_on_c, 2, 63, 71
4, 64230, Note_on_c, 2, 75, 80
4, 64260, Note_on_c, 2, 75, 0
4, 64260, Note_on_c, 2, 63, 0
4, 64260, Note_on_c, 2, 61, 74
4, 64260, Note_on_c, 2, 73, 65
4, 64290, Note_on_c, 2, 73, 0
4, 64290, Note_on_c, 2, 61, 0
4, 64290, Note_on_c, 2, 60, 80
4, 64290, Note_on_c, 2, 72, 85
4, 64320, Note_on_c, 2, 72, 0
4, 64320, Note_on_c, 2, 60, 0
4, 64320, Note_on_c, 2, 59, 85
4, 64320, Note_on_c, 2, 71, 72
4, 64440, Note_on_c, 2, 71, 0
4, 64440, Note_on_c, 2, 59, 0
4, 64500, Note_on_c, 2, 70, 81
4, 64500, Note_on_c, 2, 74, 85
4, 64560, Note_on_c, 2, 74, 0
4, 64560, Note_on_c, 2, 70, 0
4, 64560, Note_on_c, 2, 75, 84
4, 64560, Note_on_c, 2, 72, 99
4, 64800, Note_on_c, 2, 72, 0
4, 64800, Note_on_c, 2, 75, 0
4, 64800, Note_on_c, 2, 71, 80
4, 64800, Note_on_c, 2, 74, 72
4, 64920, Note_on_c, 2, 74, 0
4, 64920, Note_on_c, 2, 71, 0
4, 64980, Note_on_c, 2, 71, 82
4, 64980, Note_on_c, 2, 74, 77
4, 65040, Note_on_c, 2, 74, 0
4, 65040, Note_on_c, 2, 71, 0
4, 65040, Note_on_c, 2, 75, 84
4, 65040, Note_on_c, 2, 72, 94
4, 65280, Note_on_c, 2, 72, 0
4, 65280, Note_on_c, 2, 75, 0
4, 65280, Note_on_c, 2, 71, 68
4, 65280, Note_on_c, 2, 74, 72
4, 65340, Note_on_c, 2, 74, 0
4, 65340, Note_on_c, 2, 71, 0
4, 65340, Note_on_c, 2, 67, 61
4, 65400, Note_on_c, 2, 67, 0
4, 65400, Note_on_c, 2, 67, 53
4, 65460, Note_on_c, 2, 67, 0
4, 65460, Note_on_c, 2, 67, 53
4, 65520, Note_on_c, 2, 67, 0
4, 65520, Note_on_c, 2, 67, 50
4, 65580, Note_on_c, 2, 67, 0
4, 65580, Note_on_c, 2, 67, 44
4, 65640, Note_on_c, 2, 67, 0
4, 65640, Note_on_c, 2, 67, 50
4, 65700, Note_on_c, 2, 67, 0
4, 65700, Note_on_c, 2, 67, 65
4, 65760, Note_on_c, 2, 67, 0
4, 65760, Note_on_c, 2, 68, 89
4, 65820, Note_on_c, 2, 68, 0
4, 65820, Note_on_c, 2, 68, 61
4, 65880, Note_on_c, 2, 68, 0
4, 65880, Note_on_c, 2, 68, 51
4, 65940, Note_on_c, 2, 68, 0
4, 65940, Note_on_c, 2, 68, 53
4, 66000, Note_on_c, 2, 68, 0
4, 66000, Note_on_c, 2, 68, 59
4, 66060, Note_on_c, 2, 68, 0
4, 66060, Note_on_c, 2, 68, 56
4, 66120, Note_on_c, 2, 68, 0
4, 66120, Note_on_c, 2, 68, 53
4, 66180, Note_on_c, 2, 68, 0
4, 66180, Note_on_c, 2, 68, 53
4, 66240, Note_on_c, 2, 68, 0
4, 66240, Note_on_c, 2, 68, 61
4, 66300, Note_on_c, 2, 68, 0
4, 77940, Note_on_c, 2, 67, 81
4, 77940, Note_on_c, 2, 79, 72
4, 78000, Note_on_c, 2, 79, 0
4, 78000, Note_on_c, 2, 67, 0
4, 78000, Note_on_c, 2, 68, 93
4, 78000, Note_on_c, 2, 80, 77
4, 78060, Note_on_c, 2, 80, 0
4, 78060, Note_on_c, 2, 68, 0
4, 78060, Note_on_c, 2, 59, 77
4, 78060, Note_on_c, 2, 71, 71
4, 78120, Note_on_c, 2, 71, 0
4, 78120, Note_on_c, 2, 59, 0
4, 78120, Note_on_c, 2, 59, 76
4, 78120, Note_on_c, 2, 71, 61
4, 78150, Note_on_c, 2, 71, 0
4, 78150, Note_on_c, 2, 59, 0
4, 78180, Note_on_c, 2, 59, 80
4, 78180, Note_on_c, 2, 71, 69
4, 78210, Note_on_c, 2, 71, 0
4, 78210, Note_on_c, 2, 59, 0
4, 78240, Note_on_c, 2, 60, 81
4, 78240, Note_on_c, 2, 72, 74
4, 78360, Note_on_c, 2, 72, 0
4, 78360, Note_on_c, 2, 60, 0
4, 78360, Note_on_c, 2, 62, 76
4, 78360, Note_on_c, 2, 74, 81
4, 78390, Note_on_c, 2, 74, 0
4, 78390, Note_on_c, 2, 62, 0
4, 78390, Note_on_c, 2, 72, 72
4, 78390, Note_on_c, 2, 60, 84
4, 78420, Note_on_c, 2, 60, 0
4, 78420, Note_on_c, 2, 72, 0
4, 78420, Note_on_c, 2, 59, 86
4, 78420, Note_on_c, 2, 71, 80
4, 78450, Note_on_c, 2, 71, 0
4, 78450, Note_on_c, 2, 59, 0
4, 78450, Note_on_c, 2, 60, 77
4, 78450, Note_on_c, 2, 72, 68
4, 78480, Note_on_c, 2, 72, 0
4, 78480, Note_on_c, 2, 60, 0
4, 78480, Note_on_c, 2, 62, 76
4, 78480, Note_on_c, 2, 74, 73
4, 78510, Note_on_c, 2, 74, 0
4, 78510, Note_on_c, 2, 62, 0
4, 78540, Note_on_c, 2, 62, 93
4, 78540, Note_on_c, 2, 74, 94
4, 78570, Note_on_c, 2, 74, 0
4, 78570, Note_on_c, 2, 62, 0
4, 78600, Note_on_c, 2, 63, 82
4, 78600, Note_on_c, 2, 75, 85
4, 78630, Note_on_c, 2, 75, 0
4, 78630, Note_on_c, 2, 63, 0
4, 78660, Note_on_c, 2, 63, 82
4, 78660, Note_on_c, 2, 75, 81
4, 78690, Note_on_c, 2, 75, 0
4, 78690, Note_on_c, 2, 63, 0
4, 78720, Note_on_c, 2, 62, 77
4, 78720, Note_on_c, 2, 74, 68
4, 78840, Note_on_c, 2, 74, 0
4, 78840, Note_on_c, 2, 62, 0
4, 78900, Note_on_c, 2, 79, 64
4, 78900, Note_on_c, 2, 67, 80
4, 78960, Note_on_c, 2, 67, 0
4, 78960, Note_on_c, 2, 79, 0
4, 78960, Note_on_c, 2, 68, 90
4, 78960, Note_on_c, 2, 80, 80
4, 79020, Note_on_c, 2, 80, 0
4, 79020, Note_on_c, 2, 68, 0
4, 79020, Note_on_c, 2, 71, 99
4, 79080, Note_on_c, 2, 71, 0
4, 79080, Note_on_c, 2, 71, 99
4, 79110, Note_on_c, 2, 71, 0
4, 79140, Note_on_c, 2, 71, 98
4, 79170, Note_on_c, 2, 71, 0
4, 79200, Note_on_c, 2, 72, 85
4, 79320, Note_on_c, 2, 72, 0
4, 79320, Note_on_c, 2, 74, 99
4, 79350, Note_on_c, 2, 74, 0
4, 79350, Note_on_c, 2, 72, 80
4, 79380, Note_on_c, 2, 72, 0
4, 79380, Note_on_c, 2, 71, 98
4, 79410, Note_on_c, 2, 71, 0
4, 79410, Note_on_c, 2, 72, 76
4, 79440, Note_on_c, 2, 72, 0
4, 79440, Note_on_c, 2, 62, 89
4, 79440, Note_on_c, 2, 72, 68
4, 79470, Note_on_c, 2, 72, 0
4, 79470, Note_on_c, 2, 62, 0
4, 79500, Note_on_c, 2, 62, 90
4, 79500, Note_on_c, 2, 72, 73
4, 79530, Note_on_c, 2, 72, 0
4, 79530, Note_on_c, 2, 62, 0
4, 79560, Note_on_c, 2, 71, 85
4, 79560, Note_on_c, 2, 62, 94
4, 79590, Note_on_c, 2, 62, 0
4, 79590, Note_on_c, 2, 71, 0
4, 79620, Note_on_c, 2, 71, 89
4, 79620, Note_on_c, 2, 62, 94
4, 79650, Note_on_c, 2, 62, 0
4, 79650, Note_on_c, 2, 71, 0
4, 79680, Note_on_c, 2, 67, 90
4, 79680, Note_on_c, 2, 72, 65
4, 79800, Note_on_c, 2, 72, 0
4, 79800, Note_on_c, 2, 67, 0
4, 79800, Note_on_c, 2, 77, 74
4, 79800, Note_on_c, 2, 74, 86
4, 79830, Note_on_c, 2, 74, 0
4, 79830, Note_on_c, 2, 77, 0
4, 79830, Note_on_c, 2, 75, 78
4, 79830, Note_on_c, 2, 72, 29
4, 79860, Note_on_c, 2, 72, 0
4, 79860, Note_on_c, 2, 75, 0
4, 79860, Note_on_c, 2, 71, 84
4, 79860, Note_on_c, 2, 74, 85
4, 79890, Note_on_c, 2, 74, 0
4, 79890, Note_on_c, 2, 71, 0
4, 79890, Note_on_c, 2, 75, 81
4, 79890, Note_on_c, 2, 72, 76
4, 79920, Note_on_c, 2, 72, 0
4, 79920, Note_on_c, 2, 75, 0
4, 79920, Note_on_c, 2, 77, 66
4, 79920, Note_on_c, 2, 74, 85
4, 79950, Note_on_c, 2, 74, 0
4, 79950, Note_on_c, 2, 77, 0
4, 79980, Note_on_c, 2, 74, 74
4, 79980, Note_on_c, 2, 65, 78
4, 80010, Note_on_c, 2, 65, 0
4, 80010, Note_on_c, 2, 74, 0
4, 80040, Note_on_c, 2, 71, 68
4, 80040, Note_on_c, 2, 62, 80
4, 80070, Note_on_c, 2, 62, 0
4, 80070, Note_on_c, 2, 71, 0
4, 80100, Note_on_c, 2, 62, 84
4, 80100, Note_on_c, 2, 71, 76
4, 80130, Note_on_c, 2, 71, 0
4, 80130, Note_on_c, 2, 62, 0
4, 80160, Note_on_c, 2, 75, 74
4, 80160, Note_on_c, 2, 67, 90
4, 80280, Note_on_c, 2, 67, 0
4, 80280, Note_on_c, 2, 75, 0
4, 80280, Note_on_c, 2, 65, 84
4, 80280, Note_on_c, 2, 74, 80
4, 80310, Note_on_c, 2, 74, 0
4, 80310, Note_on_c, 2, 65, 0
4, 80310, Note_on_c, 2, 63, 85
4, 80310, Note_on_c, 2, 72, 76
4, 80340, Note_on_c, 2, 72, 0
4, 80340, Note_on_c, 2, 63, 0
4, 80340, Note_on_c, 2, 71, 77
4, 80340, Note_on_c, 2, 62, 74
4, 80370, Note_on_c, 2, 62, 0
4, 80370, Note_on_c, 2, 71, 0
4, 80370, Note_on_c, 2, 63, 90
4, 80370, Note_on_c, 2, 72, 73
4, 80400, Note_on_c, 2, 72, 0
4, 80400, Note_on_c, 2, 63, 0
4, 80400, Note_on_c, 2, 65, 82
4, 80400, Note_on_c, 2, 74, 73
4, 80430, Note_on_c, 2, 74, 0
4, 80430, Note_on_c, 2, 65, 0
4, 80460, Note_on_c, 2, 65, 86
4, 80460, Note_on_c, 2, 74, 84
4, 80490, Note_on_c, 2, 74, 0
4, 80490, Note_on_c, 2, 65, 0
4, 80520, Note_on_c, 2, 71, 69
4, 80520, Note_on_c, 2, 62, 67
4, 80550, Note_on_c, 2, 62, 0
4, 80550, Note_on_c, 2, 71, 0
4, 80580, Note_on_c, 2, 62, 84
4, 80580, Note_on_c, 2, 71, 72
4, 80610, Note_on_c, 2, 71, 0
4, 80610, Note_on_c, 2, 62, 0
4, 80640, Note_on_c, 2, 63, 81
4, 80640, Note_on_c, 2, 72, 73
4, 80700, Note_on_c, 2, 72, 0
4, 80700, Note_on_c, 2, 63, 0
4, 80760, Note_on_c, 2, 67, 86
4, 80820, Note_on_c, 2, 67, 0
4, 80880, Note_on_c, 2, 60, 89
4, 80940, Note_on_c, 2, 60, 0
4, 81120, Note_on_c, 2, 63, 80
4, 81120, Note_on_c, 2, 67, 72
4, 81240, Note_on_c, 2, 67, 0
4, 81240, Note_on_c, 2, 63, 0
4, 81240, Note_on_c, 2, 63, 84
4, 81240, Note_on_c, 2, 67, 74
4, 81330, Note_on_c, 2, 67, 0
4, 81330, Note_on_c, 2, 63, 0
4, 81330, Note_on_c, 2, 63, 80
4, 81330, Note_on_c, 2, 67, 72
4, 81360, Note_on_c, 2, 67, 0
4, 81360, Note_on_c, 2, 63, 0
4, 81360, Note_on_c, 2, 63, 80
4, 81360, Note_on_c, 2, 67, 67
4, 81480, Note_on_c, 2, 67, 0
4, 81480, Note_on_c, 2, 63, 0
4, 82080, Note_on_c, 2, 65, 81
4, 82080, Note_on_c, 2, 68, 84
4, 82200, Note_on_c, 2, 68, 0
4, 82200, Note_on_c, 2, 65, 0
4, 82200, Note_on_c, 2, 65, 73
4, 82200, Note_on_c, 2, 68, 85
4, 82290, Note_on_c, 2, 68, 0
4, 82290, Note_on_c, 2, 65, 0
4, 82290, Note_on_c, 2, 65, 80
4, 82290, Note_on_c, 2, 68, 85
4, 82320, Note_on_c, 2, 68, 0
4, 82320, Note_on_c, 2, 65, 0
4, 82320, Note_on_c, 2, 65, 82
4, 82320, Note_on_c, 2, 68, 89
4, 82440, Note_on_c, 2, 68, 0
4, 82440, Note_on_c, 2, 65, 0
4, 95760, Note_on_c, 2, 66, 65
4, 95760, Note_on_c, 2, 72, 61
4, 95880, Note_on_c, 2, 72, 0
4, 95880, Note_on_c, 2, 66, 0
4, 96000, Note_on_c, 2, 80, 66
4, 96060, Note_on_c, 2, 80, 0
4, 96060, Note_on_c, 2, 73, 45
4, 96060, Note_on_c, 2, 65, 70
4, 96120, Note_on_c, 2, 65, 0
4, 96120, Note_on_c, 2, 73, 0
4, 96120, Note_on_c, 2, 73, 46
4, 96120, Note_on_c, 2, 65, 74
4, 96150, Note_on_c, 2, 65, 0
4, 96150, Note_on_c, 2, 73, 0
4, 96180, Note_on_c, 2, 73, 53
4, 96180, Note_on_c, 2, 65, 74
4, 96210, Note_on_c, 2, 65, 0
4, 96210, Note_on_c, 2, 73, 0
4, 96240, Note_on_c, 2, 65, 62
4, 96240, Note_on_c, 2, 74, 57
4, 96360, Note_on_c, 2, 74, 0
4, 96360, Note_on_c, 2, 65, 0
4, 97500, Note_on_c, 2, 71, 61
4, 97500, Note_on_c, 2, 74, 60
4, 97560, Note_on_c, 2, 74, 0
4, 97560, Note_on_c, 2, 71, 0
4, 97560, Note_on_c, 2, 71, 57
4, 97560, Note_on_c, 2, 74, 57
4, 97620, Note_on_c, 2, 74, 0
4, 97620, Note_on_c, 2, 71, 0
4, 97620, Note_on_c, 2, 71, 52
4, 97620, Note_on_c, 2, 74, 53
4, 97680, Note_on_c, 2, 74, 0
4, 97680, Note_on_c, 2, 71, 0
4, 97740, Note_on_c, 2, 72, 58
4, 97740, Note_on_c, 2, 69, 59
4, 97800, Note_on_c, 2, 69, 0
4, 97800, Note_on_c, 2, 72, 0
4, 97800, Note_on_c, 2, 72, 57
4, 97800, Note_on_c, 2, 69, 62
4, 97860, Note_on_c, 2, 69, 0
4, 97860, Note_on_c, 2, 72, 0
4, 97860, Note_on_c, 2, 72, 68
4, 97860, Note_on_c, 2, 69, 64
4, 97920, Note_on_c, 2, 69, 0
4, 97920, Note_on_c, 2, 72, 0
4, 97980, Note_on_c, 2, 68, 69
4, 97980, Note_on_c, 2, 71, 60
4, 98040, Note_on_c, 2, 71, 0
4, 98040, Note_on_c, 2, 68, 0
4, 98040, Note_on_c, 2, 68, 64
4, 98040, Note_on_c, 2, 71, 56
4, 98100, Note_on_c, 2, 71, 0
4, 98100, Note_on_c, 2, 68, 0
4, 98100, Note_on_c, 2, 68, 62
4, 98100, Note_on_c, 2, 71, 57
4, 98160, Note_on_c, 2, 71, 0
4, 98160, Note_on_c, 2, 68, 0
4, 98220, Note_on_c, 2, 70, 52
4, 98220, Note_on_c, 2, 67, 55
4, 98280, Note_on_c, 2, 67, 0
4, 98280, Note_on_c, 2, 70, 0
4, 98280, Note_on_c, 2, 70, 54
4, 98280, Note_on_c, 2, 67, 53
4, 98340, Note_on_c, 2, 67, 0
4, 98340, Note_on_c, 2, 70, 0
4, 98340, Note_on_c, 2, 70, 67
4, 98340, Note_on_c, 2, 67, 54
4, 98400, Note_on_c, 2, 67, 0
4, 98400, Note_on_c, 2, 70, 0
4, 98460, Note_on_c, 2, 69, 58
4, 98460, Note_on_c, 2, 66, 74
4, 98520, Note_on_c, 2, 66, 0
4, 98520, Note_on_c, 2, 69, 0
4, 98580, Note_on_c, 2, 65, 62
4, 98580, Note_on_c, 2, 68, 73
4, 98640, Note_on_c, 2, 68, 0
4, 98640, Note_on_c, 2, 65, 0
4, 98700, Note_on_c, 2, 67, 60
4, 98700, Note_on_c, 2, 64, 73
4, 98760, Note_on_c, 2, 64, 0
4, 98760, Note_on_c, 2, 67, 0
4, 98820, Note_on_c, 2, 66, 71
4, 98820, Note_on_c, 2, 63, 73
4, 98880, Note_on_c, 2, 63, 0
4, 98880, Note_on_c, 2, 66, 0
4, 98880, Note_on_c, 2, 62, 72
4, 98880, Note_on_c, 2, 65, 86
4, 98940, Note_on_c, 2, 65, 0
4, 98940, Note_on_c, 2, 62, 0
4, 100380, Note_on_c, 2, 72, 30
4, 100380, Note_on_c, 2, 77, 82
4, 100440, Note_on_c, 2, 77, 0
4, 100440, Note_on_c, 2, 72, 0
4, 100440, Note_on_c, 2, 77, 84
4, 100440, Note_on_c, 2, 74, 94
4, 100500, Note_on_c, 2, 74, 0
4, 100500, Note_on_c, 2, 77, 0
4, 100500, Note_on_c, 2, 72, 80
4, 100500, Note_on_c, 2, 77, 85
4, 100560, Note_on_c, 2, 77, 0
4, 100560, Note_on_c, 2, 72, 0
4, 100560, Note_on_c, 2, 77, 81
4, 100560, Note_on_c, 2, 74, 94
4, 100620, Note_on_c, 2, 74, 0
4, 100620, Note_on_c, 2, 77, 0
4, 100620, Note_on_c, 2, 72, 80
4, 100620, Note_on_c, 2, 77, 85
4, 100680, Note_on_c, 2, 77, 0
4, 100680, Note_on_c, 2, 72, 0
4, 100680, Note_on_c, 2, 74, 94
4, 100680, Note_on_c, 2, 77, 81
4, 100740, Note_on_c, 2, 77, 0
4, 100740, Note_on_c, 2, 74, 0
4, 100740, Note_on_c, 2, 77, 84
4, 100740, Note_on_c, 2, 72, 76
4, 100800, Note_on_c, 2, 72, 0
4, 100800, Note_on_c, 2, 77, 0
4, 100800, Note_on_c, 2, 77, 72
4, 100800, Note_on_c, 2, 74, 94
4, 101040, Note_on_c, 2, 74, 0
4, 101040, Note_on_c, 2, 77, 0
4, 101040, Note_on_c, 2, 74, 82
4, 101040, Note_on_c, 2, 71, 84
4, 101160, Note_on_c, 2, 71, 0
4, 101160, Note_on_c, 2, 74, 0
4, 101160, Note_on_c, 2, 65, 86
4, 101160, Note_on_c, 2, 71, 62
4, 101280, Note_on_c, 2, 71, 0
4, 101280, Note_on_c, 2, 65, 0
4, 101280, Note_on_c, 2, 65, 86
4, 101280, Note_on_c, 2, 74, 85
4, 101520, Note_on_c, 2, 74, 0
4, 101520, Note_on_c, 2, 65, 0
4, 101520, Note_on_c, 2, 71, 65
4, 101520, Note_on_c, 2, 62, 78
4, 101760, Note_on_c, 2, 62, 0
4, 101760, Note_on_c, 2, 71, 0
4, 101760, Note_on_c, 2, 62, 80
4, 101760, Note_on_c, 2, 65, 82
4, 102360, Note_on_c, 2, 65, 0
4, 102360, Note_on_c, 2, 62, 0
4, 102360, End_track
5, 0, Start_track
5, 0, MIDI_port, 0
5, 0, Title_t, "Bassoons"
5, 0, Program_c, 3, 70
5, 0, Control_c, 3, 7, 100
5, 0, Control_c, 3, 10, 89
5, 0, Control_c, 3, 93, 0
5, 0, Control_c, 3, 91, 66
5, 2040, Control_c, 3, 7, 84
5, 2220, Note_on_c, 3, 59, 76
5, 2250, Note_on_c, 3, 59, 0
5, 2280, Note_on_c, 3, 59, 77
5, 2310, Note_on_c, 3, 59, 0
5, 2340, Note_on_c, 3, 59, 89
5, 2370, Note_on_c, 3, 59, 0
5, 2400, Note_on_c, 3, 60, 73
5, 2520, Note_on_c, 3, 60, 0
5, 2520, Note_on_c, 3, 62, 81
5, 2550, Note_on_c, 3, 62, 0
5, 2550, Note_on_c, 3, 60, 81
5, 2580, Note_on_c, 3, 60, 0
5, 2580, Note_on_c, 3, 59, 81
5, 2610, Note_on_c, 3, 59, 0
5, 2610, Note_on_c, 3, 60, 84
5, 2640, Note_on_c, 3, 60, 0
5, 2640, Note_on_c, 3, 59, 71
5, 2640, Note_on_c, 3, 62, 64
5, 2700, Note_on_c, 3, 62, 0
5, 2700, Note_on_c, 3, 59, 0
5, 2700, Note_on_c, 3, 62, 69
5, 2700, Note_on_c, 3, 59, 73
5, 2760, Note_on_c, 3, 59, 0
5, 2760, Note_on_c, 3, 62, 0
5, 2760, Note_on_c, 3, 63, 69
5, 2760, Note_on_c, 3, 60, 74
5, 2820, Note_on_c, 3, 60, 0
5, 2820, Note_on_c, 3, 63, 0
5, 2820, Note_on_c, 3, 63, 57
5, 2820, Note_on_c, 3, 60, 66
5, 2880, Note_on_c, 3, 60, 0
5, 2880, Note_on_c, 3, 63, 0
5, 2880, Note_on_c, 3, 62, 62
5, 2880, Note_on_c, 3, 59, 68
5, 3000, Note_on_c, 3, 59, 0
5, 3000, Note_on_c, 3, 62, 0
5, 3180, Note_on_c, 3, 59, 81
5, 3210, Note_on_c, 3, 59, 0
5, 3240, Note_on_c, 3, 59, 85
5, 3270, Note_on_c, 3, 59, 0
5, 3300, Note_on_c, 3, 59, 84
5, 3330, Note_on_c, 3, 59, 0
5, 3360, Note_on_c, 3, 60, 84
5, 3480, Note_on_c, 3, 60, 0
5, 3480, Note_on_c, 3, 62, 84
5, 3510, Note_on_c, 3, 62, 0
5, 3510, Note_on_c, 3, 60, 86
5, 3540, Note_on_c, 3, 60, 0
5, 3540, Note_on_c, 3, 59, 89
5, 3570, Note_on_c, 3, 59, 0
5, 3570, Note_on_c, 3, 60, 85
5, 3600, Note_on_c, 3, 60, 0
5, 3600, Note_on_c, 3, 55, 71
5, 3600, Note_on_c, 3, 62, 57
5, 3660, Note_on_c, 3, 62, 0
5, 3660, Note_on_c, 3, 55, 0
5, 3660, Note_on_c, 3, 55, 84
5, 3660, Note_on_c, 3, 58, 80
5, 3720, Note_on_c, 3, 58, 0
5, 3720, Note_on_c, 3, 55, 0
5, 3720, Note_on_c, 3, 54, 80
5, 3720, Note_on_c, 3, 57, 89
5, 3780, Note_on_c, 3, 57, 0
5, 3780, Note_on_c, 3, 54, 0
5, 3780, Note_on_c, 3, 54, 81
5, 3780, Note_on_c, 3, 62, 82
5, 3840, Note_on_c, 3, 62, 0
5, 3840, Note_on_c, 3, 54, 0
5, 3840, Note_on_c, 3, 55, 89
5, 3960, Note_on_c, 3, 55, 0
5, 4205, Control_c, 3, 7, 100
5, 9600, Note_on_c, 3, 48, 99
5, 9630, Note_on_c, 3, 48, 0
5, 9630, Note_on_c, 3, 48, 104
5, 9660, Note_on_c, 3, 48, 0
5, 9660, Note_on_c, 3, 52, 94
5, 9690, Note_on_c, 3, 52, 0
5, 9690, Note_on_c, 3, 55, 99
5, 9720, Note_on_c, 3, 55, 0
5, 9720, Note_on_c, 3, 60, 89
5, 9750, Note_on_c, 3, 60, 0
5, 9750, Note_on_c, 3, 58, 99
5, 9780, Note_on_c, 3, 58, 0
5, 9780, Note_on_c, 3, 56, 104
5, 9810, Note_on_c, 3, 56, 0
5, 9810, Note_on_c, 3, 55, 99
5, 9840, Note_on_c, 3, 55, 0
5, 9840, Note_on_c, 3, 56, 94
5, 9870, Note_on_c, 3, 56, 0
5, 9870, Note_on_c, 3, 58, 95
5, 9900, Note_on_c, 3, 58, 0
5, 9900, Note_on_c, 3, 60, 89
5, 9900, Note_on_c, 3, 56, 94
5, 9930, Note_on_c, 3, 56, 0
5, 9930, Note_on_c, 3, 60, 0
5, 9930, Note_on_c, 3, 58, 94
5, 9930, Note_on_c, 3, 55, 93
5, 9960, Note_on_c, 3, 55, 0
5, 9960, Note_on_c, 3, 58, 0
5, 9960, Note_on_c, 3, 56, 95
5, 9960, Note_on_c, 3, 53, 89
5, 9990, Note_on_c, 3, 53, 0
5, 9990, Note_on_c, 3, 56, 0
5, 9990, Note_on_c, 3, 51, 94
5, 9990, Note_on_c, 3, 55, 89
5, 10020, Note_on_c, 3, 55, 0
5, 10020, Note_on_c, 3, 51, 0
5, 10020, Note_on_c, 3, 53, 95
5, 10020, Note_on_c, 3, 50, 94
5, 10050, Note_on_c, 3, 50, 0
5, 10050, Note_on_c, 3, 53, 0
5, 10050, Note_on_c, 3, 51, 93
5, 10050, Note_on_c, 3, 48, 98
5, 10080, Note_on_c, 3, 48, 0
5, 10080, Note_on_c, 3, 51, 0
5, 10080, Note_on_c, 3, 50, 110
5, 10110, Note_on_c, 3, 50, 0
5, 10110, Note_on_c, 3, 46, 95
5, 10140, Note_on_c, 3, 46, 0
5, 10140, Note_on_c, 3, 50, 105
5, 10170, Note_on_c, 3, 50, 0
5, 10170, Note_on_c, 3, 53, 90
5, 10200, Note_on_c, 3, 53, 0
5, 10200, Note_on_c, 3, 58, 99
5, 10230, Note_on_c, 3, 58, 0
5, 10230, Note_on_c, 3, 56, 99
5, 10260, Note_on_c, 3, 56, 0
5, 10260, Note_on_c, 3, 55, 95
5, 10290, Note_on_c, 3, 55, 0
5, 10290, Note_on_c, 3, 53, 99
5, 10320, Note_on_c, 3, 53, 0
5, 10320, Note_on_c, 3, 55, 95
5, 10350, Note_on_c, 3, 55, 0
5, 10350, Note_on_c, 3, 56, 101
5, 10380, Note_on_c, 3, 56, 0
5, 10380, Note_on_c, 3, 55, 99
5, 10410, Note_on_c, 3, 55, 0
5, 10410, Note_on_c, 3, 53, 89
5, 10440, Note_on_c, 3, 53, 0
5, 10440, Note_on_c, 3, 51, 104
5, 10470, Note_on_c, 3, 51, 0
5, 10470, Note_on_c, 3, 50, 107
5, 10500, Note_on_c, 3, 50, 0
5, 10500, Note_on_c, 3, 48, 104
5, 10500, Note_on_c, 3, 67, 99
5, 10530, Note_on_c, 3, 48, 0
5, 10530, Note_on_c, 3, 46, 101
5, 10560, Note_on_c, 3, 46, 0
5, 10560, Note_on_c, 3, 67, 0
5, 10560, Note_on_c, 3, 44, 95
5, 10560, Note_on_c, 3, 65, 104
5, 10590, Note_on_c, 3, 65, 0
5, 10590, Note_on_c, 3, 44, 0
5, 10620, Note_on_c, 3, 56, 98
5, 10620, Note_on_c, 3, 63, 94
5, 10650, Note_on_c, 3, 63, 0
5, 10650, Note_on_c, 3, 56, 0
5, 10680, Note_on_c, 3, 56, 94
5, 10680, Note_on_c, 3, 62, 93
5, 10710, Note_on_c, 3, 62, 0
5, 10710, Note_on_c, 3, 56, 0
5, 10740, Note_on_c, 3, 60, 89
5, 10740, Note_on_c, 3, 56, 95
5, 10770, Note_on_c, 3, 56, 0
5, 10770, Note_on_c, 3, 60, 0
5, 10800, Note_on_c, 3, 43, 95
5, 10800, Note_on_c, 3, 67, 99
5, 10830, Note_on_c, 3, 43, 0
5, 10860, Note_on_c, 3, 55, 90
5, 10890, Note_on_c, 3, 55, 0
5, 10920, Note_on_c, 3, 55, 101
5, 10950, Note_on_c, 3, 55, 0
5, 10980, Note_on_c, 3, 67, 0
5, 10980, Note_on_c, 3, 55, 104
5, 10980, Note_on_c, 3, 67, 95
5, 11010, Note_on_c, 3, 55, 0
5, 11040, Note_on_c, 3, 67, 0
5, 11040, Note_on_c, 3, 44, 99
5, 11040, Note_on_c, 3, 65, 98
5, 11070, Note_on_c, 3, 65, 0
5, 11070, Note_on_c, 3, 44, 0
5, 11100, Note_on_c, 3, 63, 89
5, 11100, Note_on_c, 3, 56, 99
5, 11130, Note_on_c, 3, 56, 0
5, 11130, Note_on_c, 3, 63, 0
5, 11160, Note_on_c, 3, 56, 94
5, 11160, Note_on_c, 3, 62, 98
5, 11190, Note_on_c, 3, 62, 0
5, 11190, Note_on_c, 3, 56, 0
5, 11220, Note_on_c, 3, 60, 95
5, 11220, Note_on_c, 3, 56, 98
5, 11250, Note_on_c, 3, 56, 0
5, 11250, Note_on_c, 3, 60, 0
5, 11280, Note_on_c, 3, 43, 107
5, 11280, Note_on_c, 3, 67, 104
5, 11310, Note_on_c, 3, 43, 0
5, 11340, Note_on_c, 3, 55, 95
5, 11370, Note_on_c, 3, 55, 0
5, 11400, Note_on_c, 3, 55, 95
5, 11430, Note_on_c, 3, 55, 0
5, 11460, Note_on_c, 3, 67, 0
5, 11460, Note_on_c, 3, 55, 94
5, 11460, Note_on_c, 3, 67, 98
5, 11490, Note_on_c, 3, 55, 0
5, 11520, Note_on_c, 3, 67, 0
5, 11520, Note_on_c, 3, 44, 94
5, 11520, Note_on_c, 3, 65, 99
5, 11550, Note_on_c, 3, 65, 0
5, 11550, Note_on_c, 3, 44, 0
5, 11580, Note_on_c, 3, 63, 89
5, 11580, Note_on_c, 3, 56, 94
5, 11610, Note_on_c, 3, 56, 0
5, 11610, Note_on_c, 3, 63, 0
5, 11640, Note_on_c, 3, 56, 94
5, 11640, Note_on_c, 3, 62, 93
5, 11670, Note_on_c, 3, 62, 0
5, 11670, Note_on_c, 3, 56, 0
5, 11700, Note_on_c, 3, 60, 90
5, 11700, Note_on_c, 3, 56, 94
5, 11730, Note_on_c, 3, 56, 0
5, 11730, Note_on_c, 3, 60, 0
5, 11760, Note_on_c, 3, 55, 90
5, 11760, Note_on_c, 3, 67, 82
5, 11830, Control_c, 3, 7, 99
5, 11835, Control_c, 3, 7, 97
5, 11840, Control_c, 3, 7, 94
5, 11845, Control_c, 3, 7, 92
5, 11850, Control_c, 3, 7, 89
5, 11855, Control_c, 3, 7, 87
5, 11860, Control_c, 3, 7, 84
5, 11865, Control_c, 3, 7, 82
5, 11870, Control_c, 3, 7, 79
5, 11875, Control_c, 3, 7, 77
5, 11880, Control_c, 3, 7, 74
5, 11885, Control_c, 3, 7, 72
5, 11890, Control_c, 3, 7, 69
5, 11895, Control_c, 3, 7, 66
5, 11940, Note_on_c, 3, 67, 0
5, 11940, Note_on_c, 3, 55, 0
5, 12000, Control_c, 3, 7, 99
5, 12060, Note_on_c, 3, 65, 43
5, 12060, Note_on_c, 3, 62, 53
5, 12120, Note_on_c, 3, 62, 0
5, 12120, Note_on_c, 3, 65, 0
5, 12120, Note_on_c, 3, 65, 45
5, 12120, Note_on_c, 3, 62, 44
5, 12180, Note_on_c, 3, 62, 0
5, 12180, Note_on_c, 3, 65, 0
5, 12180, Note_on_c, 3, 65, 47
5, 12180, Note_on_c, 3, 62, 53
5, 12240, Note_on_c, 3, 62, 0
5, 12240, Note_on_c, 3, 65, 0
5, 12240, Note_on_c, 3, 64, 47
5, 12240, Note_on_c, 3, 60, 45
5, 12360, Note_on_c, 3, 60, 0
5, 12360, Note_on_c, 3, 64, 0
5, 12360, Note_on_c, 3, 52, 65
5, 12360, Note_on_c, 3, 62, 77
5, 12390, Note_on_c, 3, 62, 0
5, 12390, Note_on_c, 3, 60, 78
5, 12420, Note_on_c, 3, 60, 0
5, 12420, Note_on_c, 3, 52, 0
5, 12420, Note_on_c, 3, 52, 65
5, 12420, Note_on_c, 3, 59, 73
5, 12450, Note_on_c, 3, 59, 0
5, 12450, Note_on_c, 3, 60, 62
5, 12480, Note_on_c, 3, 60, 0
5, 12480, Note_on_c, 3, 52, 0
5, 12480, Note_on_c, 3, 62, 52
5, 12510, Note_on_c, 3, 62, 0
5, 12540, Note_on_c, 3, 59, 50
5, 12540, Note_on_c, 3, 62, 46
5, 12570, Note_on_c, 3, 62, 0
5, 12570, Note_on_c, 3, 59, 0
5, 12660, Note_on_c, 3, 64, 43
5, 12660, Note_on_c, 3, 60, 43
5, 12720, Note_on_c, 3, 60, 0
5, 12720, Note_on_c, 3, 64, 0
5, 12720, Note_on_c, 3, 62, 43
5, 12720, Note_on_c, 3, 59, 52
5, 12840, Note_on_c, 3, 59, 0
5, 12840, Note_on_c, 3, 62, 0
5, 12960, Note_on_c, 3, 62, 95
5, 12960, Note_on_c, 3, 65, 94
5, 13020, Note_on_c, 3, 65, 0
5, 13020, Note_on_c, 3, 62, 0
5, 13020, Note_on_c, 3, 59, 89
5, 13020, Note_on_c, 3, 62, 81
5, 13080, Note_on_c, 3, 62, 0
5, 13080, Note_on_c, 3, 59, 0
5, 13080, Note_on_c, 3, 59, 89
5, 13080, Note_on_c, 3, 62, 85
5, 13110, Note_on_c, 3, 62, 0
5, 13110, Note_on_c, 3, 59, 0
5, 13140, Note_on_c, 3, 59, 94
5, 13140, Note_on_c, 3, 62, 84
5, 13170, Note_on_c, 3, 62, 0
5, 13170, Note_on_c, 3, 59, 0
5, 13200, Note_on_c, 3, 55, 94
5, 13200, Note_on_c, 3, 60, 89
5, 13320, Note_on_c, 3, 60, 0
5, 13320, Note_on_c, 3, 55, 0
5, 13320, Note_on_c, 3, 53, 94
5, 13320, Note_on_c, 3, 62, 90
5, 13350, Note_on_c, 3, 62, 0
5, 13350, Note_on_c, 3, 53, 0
5, 13350, Note_on_c, 3, 51, 93
5, 13350, Note_on_c, 3, 60, 89
5, 13380, Note_on_c, 3, 60, 0
5, 13380, Note_on_c, 3, 51, 0
5, 13380, Note_on_c, 3, 59, 93
5, 13380, Note_on_c, 3, 50, 99
5, 13410, Note_on_c, 3, 50, 0
5, 13410, Note_on_c, 3, 59, 0
5, 13410, Note_on_c, 3, 60, 94
5, 13410, Note_on_c, 3, 48, 99
5, 13440, Note_on_c, 3, 48, 0
5, 13440, Note_on_c, 3, 60, 0
5, 13440, Note_on_c, 3, 53, 98
5, 13440, Note_on_c, 3, 62, 85
5, 13470, Note_on_c, 3, 62, 0
5, 13470, Note_on_c, 3, 53, 0
5, 13500, Note_on_c, 3, 53, 98
5, 13500, Note_on_c, 3, 62, 86
5, 13530, Note_on_c, 3, 62, 0
5, 13530, Note_on_c, 3, 53, 0
5, 13560, Note_on_c, 3, 55, 99
5, 13590, Note_on_c, 3, 55, 0
5, 13620, Note_on_c, 3, 55, 101
5, 13650, Note_on_c, 3, 55, 0
5, 13680, Note_on_c, 3, 67, 89
5, 13680, Note_on_c, 3, 60, 98
5, 13800, Note_on_c, 3, 60, 0
5, 13800, Note_on_c, 3, 67, 0
5, 13800, Note_on_c, 3, 65, 90
5, 13800, Note_on_c, 3, 62, 89
5, 13830, Note_on_c, 3, 62, 0
5, 13830, Note_on_c, 3, 65, 0
5, 13830, Note_on_c, 3, 60, 94
5, 13830, Note_on_c, 3, 63, 94
5, 13860, Note_on_c, 3, 63, 0
5, 13860, Note_on_c, 3, 60, 0
5, 13860, Note_on_c, 3, 62, 94
5, 13860, Note_on_c, 3, 59, 94
5, 13890, Note_on_c, 3, 59, 0
5, 13890, Note_on_c, 3, 62, 0
5, 13890, Note_on_c, 3, 60, 84
5, 13890, Note_on_c, 3, 63, 93
5, 13920, Note_on_c, 3, 63, 0
5, 13920, Note_on_c, 3, 60, 0
5, 13920, Note_on_c, 3, 62, 94
5, 13920, Note_on_c, 3, 65, 90
5, 13950, Note_on_c, 3, 65, 0
5, 13950, Note_on_c, 3, 62, 0
5, 13980, Note_on_c, 3, 62, 95
5, 13980, Note_on_c, 3, 65, 90
5, 14010, Note_on_c, 3, 65, 0
5, 14010, Note_on_c, 3, 62, 0
5, 14040, Note_on_c, 3, 62, 90
5, 14040, Note_on_c, 3, 59, 94
5, 14070, Note_on_c, 3, 59, 0
5, 14070, Note_on_c, 3, 62, 0
5, 14100, Note_on_c, 3, 59, 90
5, 14100, Note_on_c, 3, 62, 94
5, 14130, Note_on_c, 3, 62, 0
5, 14130, Note_on_c, 3, 59, 0
5, 14160, Note_on_c, 3, 63, 95
5, 14160, Note_on_c, 3, 67, 94
5, 14280, Note_on_c, 3, 67, 0
5, 14280, Note_on_c, 3, 63, 0
5, 14280, Note_on_c, 3, 65, 89
5, 14280, Note_on_c, 3, 62, 94
5, 14310, Note_on_c, 3, 62, 0
5, 14310, Note_on_c, 3, 65, 0
5, 14310, Note_on_c, 3, 60, 89
5, 14310, Note_on_c, 3, 63, 93
5, 14340, Note_on_c, 3, 63, 0
5, 14340, Note_on_c, 3, 60, 0
5, 14340, Note_on_c, 3, 62, 95
5, 14340, Note_on_c, 3, 59, 95
5, 14370, Note_on_c, 3, 59, 0
5, 14370, Note_on_c, 3, 62, 0
5, 14370, Note_on_c, 3, 60, 85
5, 14370, Note_on_c, 3, 63, 90
5, 14400, Note_on_c, 3, 63, 0
5, 14400, Note_on_c, 3, 60, 0
5, 14400, Note_on_c, 3, 65, 80
5, 14400, Note_on_c, 3, 62, 90
5, 14430, Note_on_c, 3, 62, 0
5, 14430, Note_on_c, 3, 65, 0
5, 14460, Note_on_c, 3, 62, 101
5, 14460, Note_on_c, 3, 65, 98
5, 14490, Note_on_c, 3, 65, 0
5, 14490, Note_on_c, 3, 62, 0
5, 14520, Note_on_c, 3, 59, 94
5, 14520, Note_on_c, 3, 62, 98
5, 14550, Note_on_c, 3, 62, 0
5, 14550, Note_on_c, 3, 59, 0
5, 14580, Note_on_c, 3, 59, 94
5, 14580, Note_on_c, 3, 62, 98
5, 14610, Note_on_c, 3, 62, 0
5, 14610, Note_on_c, 3, 59, 0
5, 14640, Note_on_c, 3, 60, 99
5, 14700, Note_on_c, 3, 60, 0
5, 14760, Note_on_c, 3, 55, 99
5, 14820, Note_on_c, 3, 55, 0
5, 14880, Note_on_c, 3, 48, 105
5, 14940, Note_on_c, 3, 48, 0
5, 15120, Note_on_c, 3, 48, 101
5, 15120, Note_on_c, 3, 60, 101
5, 15240, Note_on_c, 3, 60, 0
5, 15240, Note_on_c, 3, 48, 0
5, 15240, Note_on_c, 3, 48, 104
5, 15240, Note_on_c, 3, 60, 98
5, 15330, Note_on_c, 3, 60, 0
5, 15330, Note_on_c, 3, 48, 0
5, 15330, Note_on_c, 3, 48, 104
5, 15330, Note_on_c, 3, 60, 98
5, 15360, Note_on_c, 3, 60, 0
5, 15360, Note_on_c, 3, 48, 0
5, 15360, Note_on_c, 3, 48, 99
5, 15360, Note_on_c, 3, 60, 94
5, 15480, Note_on_c, 3, 60, 0
5, 15480, Note_on_c, 3, 48, 0
5, 16080, Note_on_c, 3, 41, 94
5, 16080, Note_on_c, 3, 53, 86
5, 16200, Note_on_c, 3, 53, 0
5, 16200, Note_on_c, 3, 41, 0
5, 16200, Note_on_c, 3, 41, 89
5, 16200, Note_on_c, 3, 53, 84
5, 16290, Note_on_c, 3, 53, 0
5, 16290, Note_on_c, 3, 41, 0
5, 16290, Note_on_c, 3, 41, 94
5, 16290, Note_on_c, 3, 53, 89
5, 16320, Note_on_c, 3, 53, 0
5, 16320, Note_on_c, 3, 41, 0
5, 16320, Note_on_c, 3, 41, 94
5, 16320, Note_on_c, 3, 53, 90
5, 16440, Note_on_c, 3, 53, 0
5, 16440, Note_on_c, 3, 41, 0
5, 20880, Note_on_c, 3, 58, 61
5, 21000, Note_on_c, 3, 60, 74
5, 21120, Note_on_c, 3, 60, 0
5, 21120, Note_on_c, 3, 58, 0
5, 21120, Note_on_c, 3, 56, 77
5, 21120, Note_on_c, 3, 60, 78
5, 21300, Note_on_c, 3, 60, 0
5, 21300, Note_on_c, 3, 56, 0
5, 21300, Note_on_c, 3, 65, 85
5, 21300, Note_on_c, 3, 56, 84
5, 21360, Note_on_c, 3, 56, 0
5, 21360, Note_on_c, 3, 65, 0
5, 21360, Note_on_c, 3, 63, 68
5, 21360, Note_on_c, 3, 55, 90
5, 21420, Note_on_c, 3, 55, 0
5, 21420, Note_on_c, 3, 63, 0
5, 21420, Note_on_c, 3, 63, 73
5, 21420, Note_on_c, 3, 55, 94
5, 21480, Note_on_c, 3, 55, 0
5, 21480, Note_on_c, 3, 63, 0
5, 21480, Note_on_c, 3, 56, 80
5, 21480, Note_on_c, 3, 62, 69
5, 21540, Note_on_c, 3, 62, 0
5, 21540, Note_on_c, 3, 56, 0
5, 21540, Note_on_c, 3, 62, 76
5, 21540, Note_on_c, 3, 56, 84
5, 21600, Note_on_c, 3, 56, 0
5, 21600, Note_on_c, 3, 62, 0
5, 21600, Note_on_c, 3, 55, 89
5, 21600, Note_on_c, 3, 63, 73
5, 21660, Note_on_c, 3, 63, 0
5, 21660, Note_on_c, 3, 55, 0
5, 21660, Note_on_c, 3, 58, 64
5, 21660, Note_on_c, 3, 55, 69
5, 21780, Note_on_c, 3, 55, 0
5, 21780, Note_on_c, 3, 58, 0
5, 21780, Note_on_c, 3, 56, 68
5, 21780, Note_on_c, 3, 53, 67
5, 21840, Note_on_c, 3, 53, 0
5, 21840, Note_on_c, 3, 56, 0
5, 21840, Note_on_c, 3, 51, 78
5, 21840, Note_on_c, 3, 55, 68
5, 21870, Note_on_c, 3, 55, 0
5, 21870, Note_on_c, 3, 51, 0
5, 22140, Note_on_c, 3, 67, 74
5, 22260, Note_on_c, 3, 67, 0
5, 22260, Note_on_c, 3, 65, 71
5, 22320, Note_on_c, 3, 65, 0
5, 22320, Note_on_c, 3, 63, 74
5, 22350, Note_on_c, 3, 63, 0
5, 22380, Note_on_c, 3, 56, 76
5, 22410, Note_on_c, 3, 56, 0
5, 22440, Note_on_c, 3, 58, 84
5, 22470, Note_on_c, 3, 58, 0
5, 22500, Note_on_c, 3, 46, 78
5, 22530, Note_on_c, 3, 46, 0
5, 22560, Note_on_c, 3, 51, 90
5, 22590, Note_on_c, 3, 51, 0
5, 22620, Note_on_c, 3, 58, 77
5, 22680, Note_on_c, 3, 58, 0
5, 22680, Note_on_c, 3, 60, 80
5, 22740, Note_on_c, 3, 60, 0
5, 22740, Note_on_c, 3, 62, 78
5, 22800, Note_on_c, 3, 62, 0
5, 22800, Note_on_c, 3, 63, 80
5, 22860, Note_on_c, 3, 63, 0
5, 23100, Note_on_c, 3, 58, 72
5, 23160, Note_on_c, 3, 58, 0
5, 23160, Note_on_c, 3, 60, 89
5, 23220, Note_on_c, 3, 60, 0
5, 23220, Note_on_c, 3, 62, 74
5, 23280, Note_on_c, 3, 62, 0
5, 23280, Note_on_c, 3, 63, 69
5, 23340, Note_on_c, 3, 63, 0
5, 23340, Note_on_c, 3, 60, 85
5, 23400, Note_on_c, 3, 60, 0
5, 23400, Note_on_c, 3, 55, 80
5, 23460, Note_on_c, 3, 55, 0
5, 23460, Note_on_c, 3, 56, 84
5, 23520, Note_on_c, 3, 56, 0
5, 23520, Note_on_c, 3, 55, 86
5, 23580, Note_on_c, 3, 55, 0
5, 24000, Note_on_c, 3, 50, 80
5, 24000, Note_on_c, 3, 62, 68
5, 24060, Note_on_c, 3, 62, 0
5, 24060, Note_on_c, 3, 50, 0
5, 24120, Note_on_c, 3, 46, 80
5, 24120, Note_on_c, 3, 58, 64
5, 24180, Note_on_c, 3, 58, 0
5, 24180, Note_on_c, 3, 46, 0
5, 24240, Note_on_c, 3, 55, 56
5, 24240, Note_on_c, 3, 67, 68
5, 24300, Note_on_c, 3, 67, 0
5, 24300, Note_on_c, 3, 55, 0
5, 24360, Note_on_c, 3, 51, 85
5, 24360, Note_on_c, 3, 63, 77
5, 24420, Note_on_c, 3, 63, 0
5, 24420, Note_on_c, 3, 51, 0
5, 24480, Note_on_c, 3, 48, 85
5, 24480, Note_on_c, 3, 60, 67
5, 24540, Note_on_c, 3, 60, 0
5, 24540, Note_on_c, 3, 48, 0
5, 24600, Note_on_c, 3, 57, 82
5, 24600, Note_on_c, 3, 60, 66
5, 24660, Note_on_c, 3, 60, 0
5, 24660, Note_on_c, 3, 57, 0
5, 24720, Note_on_c, 3, 57, 81
5, 24720, Note_on_c, 3, 60, 63
5, 24780, Note_on_c, 3, 60, 0
5, 24780, Note_on_c, 3, 57, 0
5, 24840, Note_on_c, 3, 60, 65
5, 24840, Note_on_c, 3, 57, 84
5, 24900, Note_on_c, 3, 57, 0
5, 24900, Note_on_c, 3, 60, 0
5, 24960, Note_on_c, 3, 57, 76
5, 24960, Note_on_c, 3, 60, 65
5, 25020, Note_on_c, 3, 60, 0
5, 25020, Note_on_c, 3, 57, 0
5, 27600, Note_on_c, 3, 43, 63
5, 27600, Note_on_c, 3, 55, 57
5, 27840, Note_on_c, 3, 55, 0
5, 27840, Note_on_c, 3, 43, 0
5, 27840, Note_on_c, 3, 48, 61
5, 27840, Note_on_c, 3, 60, 62
5, 28020, Note_on_c, 3, 60, 0
5, 28020, Note_on_c, 3, 48, 0
5, 28020, Note_on_c, 3, 55, 66
5, 28020, Note_on_c, 3, 62, 53
5, 28080, Note_on_c, 3, 62, 0
5, 28080, Note_on_c, 3, 55, 0
5, 28080, Note_on_c, 3, 60, 64
5, 28080, Note_on_c, 3, 56, 69
5, 28140, Note_on_c, 3, 56, 0
5, 28140, Note_on_c, 3, 60, 0
5, 28140, Note_on_c, 3, 44, 73
5, 28200, Note_on_c, 3, 44, 0
5, 28200, Note_on_c, 3, 44, 72
5, 28260, Note_on_c, 3, 44, 0
5, 28260, Note_on_c, 3, 44, 69
5, 28320, Note_on_c, 3, 44, 0
5, 28320, Note_on_c, 3, 43, 82
5, 28380, Note_on_c, 3, 43, 0
5, 28380, Note_on_c, 3, 55, 82
5, 28440, Note_on_c, 3, 55, 0
5, 28440, Note_on_c, 3, 59, 78
5, 28500, Note_on_c, 3, 59, 0
5, 28500, Note_on_c, 3, 55, 82
5, 28560, Note_on_c, 3, 55, 0
5, 28560, Note_on_c, 3, 60, 70
5, 28620, Note_on_c, 3, 60, 0
5, 28620, Note_on_c, 3, 48, 104
5, 28650, Note_on_c, 3, 48, 0
5, 28650, Note_on_c, 3, 50, 99
5, 28680, Note_on_c, 3, 50, 0
5, 28680, Note_on_c, 3, 51, 89
5, 28710, Note_on_c, 3, 51, 0
5, 28740, Note_on_c, 3, 48, 101
5, 28770, Note_on_c, 3, 48, 0
5, 28800, Note_on_c, 3, 43, 104
5, 28860, Note_on_c, 3, 43, 0
5, 28860, Note_on_c, 3, 55, 74
5, 28890, Note_on_c, 3, 55, 0
5, 28890, Note_on_c, 3, 57, 93
5, 28920, Note_on_c, 3, 57, 0
5, 28920, Note_on_c, 3, 59, 67
5, 28950, Note_on_c, 3, 59, 0
5, 28980, Note_on_c, 3, 55, 81
5, 29010, Note_on_c, 3, 55, 0
5, 29040, Note_on_c, 3, 60, 72
5, 29100, Note_on_c, 3, 60, 0
5, 29100, Note_on_c, 3, 48, 95
5, 29130, Note_on_c, 3, 48, 0
5, 29130, Note_on_c, 3, 50, 99
5, 29160, Note_on_c, 3, 50, 0
5, 29160, Note_on_c, 3, 51, 84
5, 29190, Note_on_c, 3, 51, 0
5, 29220, Note_on_c, 3, 48, 99
5, 29250, Note_on_c, 3, 48, 0
5, 29280, Note_on_c, 3, 43, 86
5, 29340, Note_on_c, 3, 43, 0
5, 29400, Note_on_c, 3, 55, 43
5, 29400, Note_on_c, 3, 43, 45
5, 29460, Note_on_c, 3, 43, 0
5, 29460, Note_on_c, 3, 55, 0
5, 29640, Note_on_c, 3, 55, 43
5, 29640, Note_on_c, 3, 43, 46
5, 29760, Note_on_c, 3, 43, 0
5, 29760, Note_on_c, 3, 55, 0
5, 29880, Note_on_c, 3, 55, 45
5, 29880, Note_on_c, 3, 43, 45
5, 30000, Note_on_c, 3, 43, 0
5, 30000, Note_on_c, 3, 55, 0
5, 30120, Note_on_c, 3, 43, 53
5, 30120, Note_on_c, 3, 55, 45
5, 30240, Note_on_c, 3, 55, 0
5, 30240, Note_on_c, 3, 43, 0
5, 30240, Note_on_c, 3, 43, 45
5, 30240, Note_on_c, 3, 55, 43
5, 30360, Note_on_c, 3, 55, 0
5, 30360, Note_on_c, 3, 43, 0
5, 33960, Control_c, 3, 7, 84
5, 34140, Note_on_c, 3, 59, 76
5, 34170, Note_on_c, 3, 59, 0
5, 34200, Note_on_c, 3, 59, 77
5, 34230, Note_on_c, 3, 59, 0
5, 34260, Note_on_c, 3, 59, 89
5, 34290, Note_on_c, 3, 59, 0
5, 34320, Note_on_c, 3, 60, 73
5, 34440, Note_on_c, 3, 60, 0
5, 34440, Note_on_c, 3, 62, 81
5, 34470, Note_on_c, 3, 62, 0
5, 34470, Note_on_c, 3, 60, 81
5, 34500, Note_on_c, 3, 60, 0
5, 34500, Note_on_c, 3, 59, 81
5, 34530, Note_on_c, 3, 59, 0
5, 34530, Note_on_c, 3, 60, 84
5, 34560, Note_on_c, 3, 60, 0
5, 34560, Note_on_c, 3, 59, 71
5, 34560, Note_on_c, 3, 62, 64
5, 34620, Note_on_c, 3, 62, 0
5, 34620, Note_on_c, 3, 59, 0
5, 34620, Note_on_c, 3, 62, 69
5, 34620, Note_on_c, 3, 59, 73
5, 34680, Note_on_c, 3, 59, 0
5, 34680, Note_on_c, 3, 62, 0
5, 34680, Note_on_c, 3, 63, 69
5, 34680, Note_on_c, 3, 60, 74
5, 34740, Note_on_c, 3, 60, 0
5, 34740, Note_on_c, 3, 63, 0
5, 34740, Note_on_c, 3, 63, 57
5, 34740, Note_on_c, 3, 60, 66
5, 34800, Note_on_c, 3, 60, 0
5, 34800, Note_on_c, 3, 63, 0
5, 34800, Note_on_c, 3, 62, 62
5, 34800, Note_on_c, 3, 59, 68
5, 34920, Note_on_c, 3, 59, 0
5, 34920, Note_on_c, 3, 62, 0
5, 35100, Note_on_c, 3, 59, 81
5, 35130, Note_on_c, 3, 59, 0
5, 35160, Note_on_c, 3, 59, 85
5, 35190, Note_on_c, 3, 59, 0
5, 35220, Note_on_c, 3, 59, 84
5, 35250, Note_on_c, 3, 59, 0
5, 35280, Note_on_c, 3, 60, 84
5, 35400, Note_on_c, 3, 60, 0
5, 35400, Note_on_c, 3, 62, 84
5, 35430, Note_on_c, 3, 62, 0
5, 35430, Note_on_c, 3, 60, 86
5, 35460, Note_on_c, 3, 60, 0
5, 35460, Note_on_c, 3, 59, 89
5, 35490, Note_on_c, 3, 59, 0
5, 35490, Note_on_c, 3, 60, 85
5, 35520, Note_on_c, 3, 60, 0
5, 35520, Note_on_c, 3, 55, 71
5, 35520, Note_on_c, 3, 62, 57
5, 35580, Note_on_c, 3, 62, 0
5, 35580, Note_on_c, 3, 55, 0
5, 35580, Note_on_c, 3, 55, 84
5, 35580, Note_on_c, 3, 58, 80
5, 35640, Note_on_c, 3, 58, 0
5, 35640, Note_on_c, 3, 55, 0
5, 35640, Note_on_c, 3, 54, 80
5, 35640, Note_on_c, 3, 57, 89
5, 35700, Note_on_c, 3, 57, 0
5, 35700, Note_on_c, 3, 54, 0
5, 35700, Note_on_c, 3, 54, 81
5, 35700, Note_on_c, 3, 62, 82
5, 35760, Note_on_c, 3, 62, 0
5, 35760, Note_on_c, 3, 54, 0
5, 35760, Note_on_c, 3, 55, 89
5, 35880, Note_on_c, 3, 55, 0
5, 36125, Control_c, 3, 7, 100
5, 42720, Note_on_c, 3, 48, 99
5, 42750, Note_on_c, 3, 48, 0
5, 42750, Note_on_c, 3, 48, 104
5, 42780, Note_on_c, 3, 48, 0
5, 42780, Note_on_c, 3, 52, 94
5, 42810, Note_on_c, 3, 52, 0
5, 42810, Note_on_c, 3, 55, 99
5, 42840, Note_on_c, 3, 55, 0
5, 42840, Note_on_c, 3, 60, 89
5, 42870, Note_on_c, 3, 60, 0
5, 42870, Note_on_c, 3, 58, 99
5, 42900, Note_on_c, 3, 58, 0
5, 42900, Note_on_c, 3, 56, 104
5, 42930, Note_on_c, 3, 56, 0
5, 42930, Note_on_c, 3, 55, 99
5, 42960, Note_on_c, 3, 55, 0
5, 42960, Note_on_c, 3, 56, 94
5, 42990, Note_on_c, 3, 56, 0
5, 42990, Note_on_c, 3, 58, 95
5, 43020, Note_on_c, 3, 58, 0
5, 43020, Note_on_c, 3, 60, 89
5, 43020, Note_on_c, 3, 56, 94
5, 43050, Note_on_c, 3, 56, 0
5, 43050, Note_on_c, 3, 60, 0
5, 43050, Note_on_c, 3, 58, 94
5, 43050, Note_on_c, 3, 55, 93
5, 43080, Note_on_c, 3, 55, 0
5, 43080, Note_on_c, 3, 58, 0
5, 43080, Note_on_c, 3, 56, 95
5, 43080, Note_on_c, 3, 53, 89
5, 43110, Note_on_c, 3, 53, 0
5, 43110, Note_on_c, 3, 56, 0
5, 43110, Note_on_c, 3, 51, 94
5, 43110, Note_on_c, 3, 55, 89
5, 43140, Note_on_c, 3, 55, 0
5, 43140, Note_on_c, 3, 51, 0
5, 43140, Note_on_c, 3, 53, 95
5, 43140, Note_on_c, 3, 50, 94
5, 43170, Note_on_c, 3, 50, 0
5, 43170, Note_on_c, 3, 53, 0
5, 43170, Note_on_c, 3, 51, 93
5, 43170, Note_on_c, 3, 48, 98
5, 43200, Note_on_c, 3, 48, 0
5, 43200, Note_on_c, 3, 51, 0
5, 43200, Note_on_c, 3, 50, 110
5, 43230, Note_on_c, 3, 50, 0
5, 43230, Note_on_c, 3, 46, 95
5, 43260, Note_on_c, 3, 46, 0
5, 43260, Note_on_c, 3, 50, 105
5, 43290, Note_on_c, 3, 50, 0
5, 43290, Note_on_c, 3, 53, 90
5, 43320, Note_on_c, 3, 53, 0
5, 43320, Note_on_c, 3, 58, 99
5, 43350, Note_on_c, 3, 58, 0
5, 43350, Note_on_c, 3, 56, 99
5, 43380, Note_on_c, 3, 56, 0
5, 43380, Note_on_c, 3, 55, 95
5, 43410, Note_on_c, 3, 55, 0
5, 43410, Note_on_c, 3, 53, 99
5, 43440, Note_on_c, 3, 53, 0
5, 43440, Note_on_c, 3, 55, 95
5, 43470, Note_on_c, 3, 55, 0
5, 43470, Note_on_c, 3, 56, 101
5, 43500, Note_on_c, 3, 56, 0
5, 43500, Note_on_c, 3, 55, 99
5, 43530, Note_on_c, 3, 55, 0
5, 43530, Note_on_c, 3, 53, 89
5, 43560, Note_on_c, 3, 53, 0
5, 43560, Note_on_c, 3, 51, 104
5, 43590, Note_on_c, 3, 51, 0
5, 43590, Note_on_c, 3, 50, 107
5, 43620, Note_on_c, 3, 50, 0
5, 43620, Note_on_c, 3, 48, 104
5, 43620, Note_on_c, 3, 67, 99
5, 43650, Note_on_c, 3, 48, 0
5, 43650, Note_on_c, 3, 46, 101
5, 43680, Note_on_c, 3, 46, 0
5, 43680, Note_on_c, 3, 67, 0
5, 43680, Note_on_c, 3, 44, 95
5, 43680, Note_on_c, 3, 65, 104
5, 43710, Note_on_c, 3, 65, 0
5, 43710, Note_on_c, 3, 44, 0
5, 43740, Note_on_c, 3, 56, 98
5, 43740, Note_on_c, 3, 63, 94
5, 43770, Note_on_c, 3, 63, 0
5, 43770, Note_on_c, 3, 56, 0
5, 43800, Note_on_c, 3, 56, 94
5, 43800, Note_on_c, 3, 62, 93
5, 43830, Note_on_c, 3, 62, 0
5, 43830, Note_on_c, 3, 56, 0
5, 43860, Note_on_c, 3, 60, 89
5, 43860, Note_on_c, 3, 56, 95
5, 43890, Note_on_c, 3, 56, 0
5, 43890, Note_on_c, 3, 60, 0
5, 43920, Note_on_c, 3, 43, 95
5, 43920, Note_on_c, 3, 67, 99
5, 43950, Note_on_c, 3, 43, 0
5, 43980, Note_on_c, 3, 55, 90
5, 44010, Note_on_c, 3, 55, 0
5, 44040, Note_on_c, 3, 55, 101
5, 44070, Note_on_c, 3, 55, 0
5, 44100, Note_on_c, 3, 67, 0
5, 44100, Note_on_c, 3, 55, 104
5, 44100, Note_on_c, 3, 67, 95
5, 44130, Note_on_c, 3, 55, 0
5, 44160, Note_on_c, 3, 67, 0
5, 44160, Note_on_c, 3, 44, 99
5, 44160, Note_on_c, 3, 65, 98
5, 44190, Note_on_c, 3, 65, 0
5, 44190, Note_on_c, 3, 44, 0
5, 44220, Note_on_c, 3, 63, 89
5, 44220, Note_on_c, 3, 56, 99
5, 44250, Note_on_c, 3, 56, 0
5, 44250, Note_on_c, 3, 63, 0
5, 44280, Note_on_c, 3, 56, 94
5, 44280, Note_on_c, 3, 62, 98
5, 44310, Note_on_c, 3, 62, 0
5, 44310, Note_on_c, 3, 56, 0
5, 44340, Note_on_c, 3, 60, 95
5, 44340, Note_on_c, 3, 56, 98
5, 44370, Note_on_c, 3, 56, 0
5, 44370, Note_on_c, 3, 60, 0
5, 44400, Note_on_c, 3, 43, 107
5, 44400, Note_on_c, 3, 67, 104
5, 44430, Note_on_c, 3, 43, 0
5, 44460, Note_on_c, 3, 55, 95
5, 44490, Note_on_c, 3, 55, 0
5, 44520, Note_on_c, 3, 55, 95
5, 44550, Note_on_c, 3, 55, 0
5, 44580, Note_on_c, 3, 67, 0
5, 44580, Note_on_c, 3, 55, 94
5, 44580, Note_on_c, 3, 67, 98
5, 44610, Note_on_c, 3, 55, 0
5, 44640, Note_on_c, 3, 67, 0
5, 44640, Note_on_c, 3, 44, 94
5, 44640, Note_on_c, 3, 65, 99
5, 44670, Note_on_c, 3, 65, 0
5, 44670, Note_on_c, 3, 44, 0
5, 44700, Note_on_c, 3, 63, 89
5, 44700, Note_on_c, 3, 56, 94
5, 44730, Note_on_c, 3, 56, 0
5, 44730, Note_on_c, 3, 63, 0
5, 44760, Note_on_c, 3, 56, 94
5, 44760, Note_on_c, 3, 62, 93
5, 44790, Note_on_c, 3, 62, 0
5, 44790, Note_on_c, 3, 56, 0
5, 44820, Note_on_c, 3, 60, 90
5, 44820, Note_on_c, 3, 56, 94
5, 44850, Note_on_c, 3, 56, 0
5, 44850, Note_on_c, 3, 60, 0
5, 44880, Note_on_c, 3, 55, 90
5, 44880, Note_on_c, 3, 67, 82
5, 44950, Control_c, 3, 7, 99
5, 44955, Control_c, 3, 7, 97
5, 44960, Control_c, 3, 7, 94
5, 44965, Control_c, 3, 7, 92
5, 44970, Control_c, 3, 7, 89
5, 44975, Control_c, 3, 7, 87
5, 44980, Control_c, 3, 7, 84
5, 44985, Control_c, 3, 7, 82
5, 44990, Control_c, 3, 7, 79
5, 44995, Control_c, 3, 7, 77
5, 45000, Control_c, 3, 7, 74
5, 45005, Control_c, 3, 7, 72
5, 45010, Control_c, 3, 7, 69
5, 45015, Control_c, 3, 7, 66
5, 45060, Note_on_c, 3, 67, 0
5, 45060, Note_on_c, 3, 55, 0
5, 45120, Control_c, 3, 7, 99
5, 45180, Note_on_c, 3, 65, 43
5, 45180, Note_on_c, 3, 62, 53
5, 45240, Note_on_c, 3, 62, 0
5, 45240, Note_on_c, 3, 65, 0
5, 45240, Note_on_c, 3, 65, 45
5, 45240, Note_on_c, 3, 62, 44
5, 45300, Note_on_c, 3, 62, 0
5, 45300, Note_on_c, 3, 65, 0
5, 45300, Note_on_c, 3, 65, 47
5, 45300, Note_on_c, 3, 62, 53
5, 45360, Note_on_c, 3, 62, 0
5, 45360, Note_on_c, 3, 65, 0
5, 45360, Note_on_c, 3, 64, 47
5, 45360, Note_on_c, 3, 60, 45
5, 45480, Note_on_c, 3, 60, 0
5, 45480, Note_on_c, 3, 64, 0
5, 45480, Note_on_c, 3, 52, 65
5, 45480, Note_on_c, 3, 62, 77
5, 45510, Note_on_c, 3, 62, 0
5, 45510, Note_on_c, 3, 60, 78
5, 45540, Note_on_c, 3, 60, 0
5, 45540, Note_on_c, 3, 52, 0
5, 45540, Note_on_c, 3, 52, 65
5, 45540, Note_on_c, 3, 59, 73
5, 45570, Note_on_c, 3, 59, 0
5, 45570, Note_on_c, 3, 60, 62
5, 45600, Note_on_c, 3, 60, 0
5, 45600, Note_on_c, 3, 52, 0
5, 45600, Note_on_c, 3, 62, 52
5, 45630, Note_on_c, 3, 62, 0
5, 45660, Note_on_c, 3, 59, 50
5, 45660, Note_on_c, 3, 62, 46
5, 45690, Note_on_c, 3, 62, 0
5, 45690, Note_on_c, 3, 59, 0
5, 45780, Note_on_c, 3, 64, 43
5, 45780, Note_on_c, 3, 60, 43
5, 45840, Note_on_c, 3, 60, 0
5, 45840, Note_on_c, 3, 64, 0
5, 45840, Note_on_c, 3, 62, 43
5, 45840, Note_on_c, 3, 59, 52
5, 45960, Note_on_c, 3, 59, 0
5, 45960, Note_on_c, 3, 62, 0
5, 46080, Note_on_c, 3, 62, 95
5, 46080, Note_on_c, 3, 65, 94
5, 46140, Note_on_c, 3, 65, 0
5, 46140, Note_on_c, 3, 62, 0
5, 46140, Note_on_c, 3, 59, 89
5, 46140, Note_on_c, 3, 62, 81
5, 46200, Note_on_c, 3, 62, 0
5, 46200, Note_on_c, 3, 59, 0
5, 46200, Note_on_c, 3, 59, 89
5, 46200, Note_on_c, 3, 62, 85
5, 46230, Note_on_c, 3, 62, 0
5, 46230, Note_on_c, 3, 59, 0
5, 46260, Note_on_c, 3, 59, 94
5, 46260, Note_on_c, 3, 62, 84
5, 46290, Note_on_c, 3, 62, 0
5, 46290, Note_on_c, 3, 59, 0
5, 46320, Note_on_c, 3, 55, 94
5, 46320, Note_on_c, 3, 60, 89
5, 46440, Note_on_c, 3, 60, 0
5, 46440, Note_on_c, 3, 55, 0
5, 46440, Note_on_c, 3, 53, 94
5, 46440, Note_on_c, 3, 62, 90
5, 46470, Note_on_c, 3, 62, 0
5, 46470, Note_on_c, 3, 53, 0
5, 46470, Note_on_c, 3, 51, 93
5, 46470, Note_on_c, 3, 60, 89
5, 46500, Note_on_c, 3, 60, 0
5, 46500, Note_on_c, 3, 51, 0
5, 46500, Note_on_c, 3, 59, 93
5, 46500, Note_on_c, 3, 50, 99
5, 46530, Note_on_c, 3, 50, 0
5, 46530, Note_on_c, 3, 59, 0
5, 46530, Note_on_c, 3, 60, 94
5, 46530, Note_on_c, 3, 48, 99
5, 46560, Note_on_c, 3, 48, 0
5, 46560, Note_on_c, 3, 60, 0
5, 46560, Note_on_c, 3, 53, 98
5, 46560, Note_on_c, 3, 62, 85
5, 46590, Note_on_c, 3, 62, 0
5, 46590, Note_on_c, 3, 53, 0
5, 46620, Note_on_c, 3, 53, 98
5, 46620, Note_on_c, 3, 62, 86
5, 46650, Note_on_c, 3, 62, 0
5, 46650, Note_on_c, 3, 53, 0
5, 46680, Note_on_c, 3, 55, 99
5, 46710, Note_on_c, 3, 55, 0
5, 46740, Note_on_c, 3, 55, 101
5, 46770, Note_on_c, 3, 55, 0
5, 46800, Note_on_c, 3, 67, 89
5, 46800, Note_on_c, 3, 60, 98
5, 46920, Note_on_c, 3, 60, 0
5, 46920, Note_on_c, 3, 67, 0
5, 46920, Note_on_c, 3, 65, 90
5, 46920, Note_on_c, 3, 62, 89
5, 46950, Note_on_c, 3, 62, 0
5, 46950, Note_on_c, 3, 65, 0
5, 46950, Note_on_c, 3, 60, 94
5, 46950, Note_on_c, 3, 63, 94
5, 46980, Note_on_c, 3, 63, 0
5, 46980, Note_on_c, 3, 60, 0
5, 46980, Note_on_c, 3, 62, 94
5, 46980, Note_on_c, 3, 59, 94
5, 47010, Note_on_c, 3, 59, 0
5, 47010, Note_on_c, 3, 62, 0
5, 47010, Note_on_c, 3, 60, 84
5, 47010, Note_on_c, 3, 63, 93
5, 47040, Note_on_c, 3, 63, 0
5, 47040, Note_on_c, 3, 60, 0
5, 47040, Note_on_c, 3, 62, 94
5, 47040, Note_on_c, 3, 65, 90
5, 47070, Note_on_c, 3, 65, 0
5, 47070, Note_on_c, 3, 62, 0
5, 47100, Note_on_c, 3, 62, 95
5, 47100, Note_on_c, 3, 65, 90
5, 47130, Note_on_c, 3, 65, 0
5, 47130, Note_on_c, 3, 62, 0
5, 47160, Note_on_c, 3, 62, 90
5, 47160, Note_on_c, 3, 59, 94
5, 47190, Note_on_c, 3, 59, 0
5, 47190, Note_on_c, 3, 62, 0
5, 47220, Note_on_c, 3, 59, 90
5, 47220, Note_on_c, 3, 62, 94
5, 47250, Note_on_c, 3, 62, 0
5, 47250, Note_on_c, 3, 59, 0
5, 47280, Note_on_c, 3, 63, 95
5, 47280, Note_on_c, 3, 67, 94
5, 47400, Note_on_c, 3, 67, 0
5, 47400, Note_on_c, 3, 63, 0
5, 47400, Note_on_c, 3, 65, 89
5, 47400, Note_on_c, 3, 62, 94
5, 47430, Note_on_c, 3, 62, 0
5, 47430, Note_on_c, 3, 65, 0
5, 47430, Note_on_c, 3, 60, 89
5, 47430, Note_on_c, 3, 63, 93
5, 47460, Note_on_c, 3, 63, 0
5, 47460, Note_on_c, 3, 60, 0
5, 47460, Note_on_c, 3, 62, 95
5, 47460, Note_on_c, 3, 59, 95
5, 47490, Note_on_c, 3, 59, 0
5, 47490, Note_on_c, 3, 62, 0
5, 47490, Note_on_c, 3, 60, 85
5, 47490, Note_on_c, 3, 63, 90
5, 47520, Note_on_c, 3, 63, 0
5, 47520, Note_on_c, 3, 60, 0
5, 47520, Note_on_c, 3, 65, 80
5, 47520, Note_on_c, 3, 62, 90
5, 47550, Note_on_c, 3, 62, 0
5, 47550, Note_on_c, 3, 65, 0
5, 47580, Note_on_c, 3, 62, 101
5, 47580, Note_on_c, 3, 65, 98
5, 47610, Note_on_c, 3, 65, 0
5, 47610, Note_on_c, 3, 62, 0
5, 47640, Note_on_c, 3, 59, 94
5, 47640, Note_on_c, 3, 62, 98
5, 47670, Note_on_c, 3, 62, 0
5, 47670, Note_on_c, 3, 59, 0
5, 47700, Note_on_c, 3, 59, 94
5, 47700, Note_on_c, 3, 62, 98
5, 47730, Note_on_c, 3, 62, 0
5, 47730, Note_on_c, 3, 59, 0
5, 47760, Note_on_c, 3, 60, 99
5, 47820, Note_on_c, 3, 60, 0
5, 47880, Note_on_c, 3, 55, 99
5, 47940, Note_on_c, 3, 55, 0
5, 48000, Note_on_c, 3, 48, 105
5, 48060, Note_on_c, 3, 48, 0
5, 49200, Note_on_c, 3, 57, 81
5, 49320, Note_on_c, 3, 57, 0
5, 49320, Note_on_c, 3, 58, 57
5, 49350, Note_on_c, 3, 58, 0
5, 49350, Note_on_c, 3, 57, 81
5, 49380, Note_on_c, 3, 57, 0
5, 49380, Note_on_c, 3, 55, 64
5, 49410, Note_on_c, 3, 55, 0
5, 49410, Note_on_c, 3, 57, 86
5, 49440, Note_on_c, 3, 57, 0
5, 49440, Note_on_c, 3, 58, 59
5, 49620, Note_on_c, 3, 58, 0
5, 49620, Note_on_c, 3, 60, 65
5, 49650, Note_on_c, 3, 60, 0
5, 49650, Note_on_c, 3, 61, 69
5, 49680, Note_on_c, 3, 61, 0
5, 49680, Note_on_c, 3, 60, 64
5, 49800, Note_on_c, 3, 60, 0
5, 49800, Note_on_c, 3, 61, 62
5, 49920, Note_on_c, 3, 61, 0
5, 49920, Note_on_c, 3, 60, 53
5, 50040, Note_on_c, 3, 60, 0
5, 50160, Note_on_c, 3, 63, 44
5, 50640, Note_on_c, 3, 63, 0
5, 50640, Note_on_c, 3, 63, 45
5, 51180, Note_on_c, 3, 63, 0
5, 53040, Control_c, 3, 7, 87
5, 53040, Note_on_c, 3, 63, 73
5, 53160, Note_on_c, 3, 63, 0
5, 53160, Note_on_c, 3, 63, 81
5, 53205, Note_on_c, 3, 63, 0
5, 53220, Note_on_c, 3, 63, 80
5, 53265, Note_on_c, 3, 63, 0
5, 53280, Note_on_c, 3, 63, 84
5, 53340, Note_on_c, 3, 63, 0
5, 53340, Note_on_c, 3, 62, 90
5, 53400, Note_on_c, 3, 62, 0
5, 53400, Note_on_c, 3, 58, 78
5, 53460, Note_on_c, 3, 58, 0
5, 53460, Note_on_c, 3, 60, 89
5, 53520, Note_on_c, 3, 60, 0
5, 53520, Note_on_c, 3, 61, 99
5, 53590, Control_c, 3, 7, 97
5, 53610, Control_c, 3, 7, 96
5, 53620, Control_c, 3, 7, 95
5, 53630, Control_c, 3, 7, 94
5, 53650, Control_c, 3, 7, 93
5, 53660, Control_c, 3, 7, 92
5, 53670, Control_c, 3, 7, 91
5, 53690, Control_c, 3, 7, 90
5, 53700, Control_c, 3, 7, 89
5, 53710, Control_c, 3, 7, 88
5, 53730, Control_c, 3, 7, 87
5, 53740, Control_c, 3, 7, 86
5, 53750, Control_c, 3, 7, 85
5, 53770, Control_c, 3, 7, 84
5, 53780, Control_c, 3, 7, 83
5, 53790, Control_c, 3, 7, 82
5, 53810, Control_c, 3, 7, 81
5, 53820, Control_c, 3, 7, 80
5, 53830, Control_c, 3, 7, 79
5, 53850, Control_c, 3, 7, 78
5, 53860, Control_c, 3, 7, 77
5, 53870, Control_c, 3, 7, 76
5, 53890, Control_c, 3, 7, 75
5, 53900, Control_c, 3, 7, 74
5, 53910, Control_c, 3, 7, 73
5, 53930, Control_c, 3, 7, 72
5, 53940, Control_c, 3, 7, 71
5, 53950, Control_c, 3, 7, 70
5, 53970, Control_c, 3, 7, 69
5, 53980, Control_c, 3, 7, 68
5, 53990, Control_c, 3, 7, 67
5, 54000, Note_on_c, 3, 61, 0
5, 54000, Control_c, 3, 7, 66
5, 54000, Note_on_c, 3, 60, 99
5, 54120, Note_on_c, 3, 60, 0
5, 54480, Control_c, 3, 7, 100
5, 55860, Note_on_c, 3, 58, 57
5, 55920, Note_on_c, 3, 58, 0
5, 55920, Note_on_c, 3, 63, 68
5, 56040, Note_on_c, 3, 63, 0
5, 56040, Note_on_c, 3, 63, 64
5, 56085, Note_on_c, 3, 63, 0
5, 56100, Note_on_c, 3, 63, 60
5, 56145, Note_on_c, 3, 63, 0
5, 56160, Note_on_c, 3, 63, 64
5, 56220, Note_on_c, 3, 63, 0
5, 56220, Note_on_c, 3, 62, 68
5, 56280, Note_on_c, 3, 62, 0
5, 56280, Note_on_c, 3, 58, 71
5, 56340, Note_on_c, 3, 58, 0
5, 56340, Note_on_c, 3, 60, 73
5, 56400, Note_on_c, 3, 60, 0
5, 56400, Note_on_c, 3, 61, 65
5, 56520, Note_on_c, 3, 61, 0
5, 56520, Note_on_c, 3, 61, 57
5, 56565, Note_on_c, 3, 61, 0
5, 56580, Note_on_c, 3, 61, 59
5, 56625, Note_on_c, 3, 61, 0
5, 56640, Note_on_c, 3, 61, 55
5, 56700, Note_on_c, 3, 61, 0
5, 56700, Note_on_c, 3, 60, 80
5, 56760, Note_on_c, 3, 60, 0
5, 56760, Note_on_c, 3, 58, 61
5, 56820, Note_on_c, 3, 58, 0
5, 56820, Note_on_c, 3, 56, 64
5, 56880, Note_on_c, 3, 56, 0
5, 56880, Note_on_c, 3, 67, 56
5, 57120, Note_on_c, 3, 67, 0
5, 57120, Note_on_c, 3, 68, 52
5, 57360, Note_on_c, 3, 68, 0
5, 57360, Note_on_c, 3, 70, 54
5, 57480, Note_on_c, 3, 70, 0
5, 57600, Note_on_c, 3, 63, 80
5, 57780, Note_on_c, 3, 63, 0
5, 57780, Note_on_c, 3, 61, 64
5, 57840, Note_on_c, 3, 61, 0
5, 57840, Note_on_c, 3, 60, 65
5, 57960, Note_on_c, 3, 60, 0
5, 57960, Note_on_c, 3, 61, 72
5, 57990, Note_on_c, 3, 61, 0
5, 57990, Note_on_c, 3, 60, 58
5, 58020, Note_on_c, 3, 60, 0
5, 58020, Note_on_c, 3, 58, 72
5, 58050, Note_on_c, 3, 58, 0
5, 58050, Note_on_c, 3, 60, 61
5, 58080, Note_on_c, 3, 60, 0
5, 58080, Note_on_c, 3, 61, 73
5, 58200, Note_on_c, 3, 61, 0
5, 58200, Note_on_c, 3, 58, 72
5, 58260, Note_on_c, 3, 58, 0
5, 58260, Note_on_c, 3, 56, 73
5, 58320, Note_on_c, 3, 56, 0
5, 58320, Note_on_c, 3, 55, 76
5, 58380, Note_on_c, 3, 55, 0
5, 58380, Note_on_c, 3, 63, 73
5, 58440, Note_on_c, 3, 63, 0
5, 58440, Note_on_c, 3, 63, 77
5, 58485, Note_on_c, 3, 63, 0
5, 58500, Note_on_c, 3, 63, 73
5, 58545, Note_on_c, 3, 63, 0
5, 58560, Note_on_c, 3, 63, 66
5, 58980, Note_on_c, 3, 63, 0
5, 58980, Note_on_c, 3, 64, 85
5, 59040, Note_on_c, 3, 64, 0
5, 59040, Note_on_c, 3, 65, 80
5, 59100, Note_on_c, 3, 65, 0
5, 59100, Note_on_c, 3, 57, 80
5, 59160, Note_on_c, 3, 57, 0
5, 59160, Note_on_c, 3, 58, 76
5, 59220, Note_on_c, 3, 58, 0
5, 59220, Note_on_c, 3, 61, 68
5, 59280, Note_on_c, 3, 61, 0
5, 59280, Note_on_c, 3, 60, 74
5, 59400, Note_on_c, 3, 60, 0
5, 59400, Note_on_c, 3, 61, 77
5, 59520, Note_on_c, 3, 61, 0
5, 59520, Note_on_c, 3, 60, 69
5, 59580, Note_on_c, 3, 60, 0
5, 62820, Note_on_c, 3, 62, 57
5, 62880, Note_on_c, 3, 62, 0
5, 62880, Note_on_c, 3, 63, 65
5, 62910, Note_on_c, 3, 63, 0
5, 62940, Note_on_c, 3, 51, 80
5, 62970, Note_on_c, 3, 51, 0
5, 63300, Note_on_c, 3, 65, 78
5, 63360, Note_on_c, 3, 65, 0
5, 63360, Note_on_c, 3, 67, 61
5, 63390, Note_on_c, 3, 67, 0
5, 63420, Note_on_c, 3, 55, 80
5, 63450, Note_on_c, 3, 55, 0
5, 63780, Note_on_c, 3, 67, 73
5, 63840, Note_on_c, 3, 67, 0
5, 63840, Note_on_c, 3, 60, 80
5, 63960, Note_on_c, 3, 60, 0
5, 63960, Note_on_c, 3, 65, 81
5, 63960, Note_on_c, 3, 62, 84
5, 64140, Note_on_c, 3, 62, 0
5, 64140, Note_on_c, 3, 65, 0
5, 64140, Note_on_c, 3, 65, 65
5, 64140, Note_on_c, 3, 62, 76
5, 64200, Note_on_c, 3, 62, 0
5, 64200, Note_on_c, 3, 65, 0
5, 64200, Note_on_c, 3, 62, 76
5, 64200, Note_on_c, 3, 65, 77
5, 64260, Note_on_c, 3, 65, 0
5, 64260, Note_on_c, 3, 62, 0
5, 64260, Note_on_c, 3, 63, 67
5, 64260, Note_on_c, 3, 60, 94
5, 64320, Note_on_c, 3, 60, 0
5, 64320, Note_on_c, 3, 63, 0
5, 64320, Note_on_c, 3, 62, 84
5, 64320, Note_on_c, 3, 59, 80
5, 64440, Note_on_c, 3, 59, 0
5, 64440, Note_on_c, 3, 62, 0
5, 64500, Note_on_c, 3, 62, 95
5, 64560, Note_on_c, 3, 62, 0
5, 64560, Note_on_c, 3, 63, 84
5, 64560, Note_on_c, 3, 43, 95
5, 64620, Note_on_c, 3, 63, 0
5, 64620, Note_on_c, 3, 54, 94
5, 64680, Note_on_c, 3, 54, 0
5, 64680, Note_on_c, 3, 54, 95
5, 64710, Note_on_c, 3, 54, 0
5, 64740, Note_on_c, 3, 54, 95
5, 64770, Note_on_c, 3, 54, 0
5, 64800, Note_on_c, 3, 55, 95
5, 64920, Note_on_c, 3, 55, 0
5, 64980, Note_on_c, 3, 62, 105
5, 65040, Note_on_c, 3, 62, 0
5, 65040, Note_on_c, 3, 63, 73
5, 65100, Note_on_c, 3, 63, 0
5, 65100, Note_on_c, 3, 54, 86
5, 65160, Note_on_c, 3, 54, 0
5, 65160, Note_on_c, 3, 54, 80
5, 65190, Note_on_c, 3, 54, 0
5, 65220, Note_on_c, 3, 54, 93
5, 65250, Note_on_c, 3, 54, 0
5, 65280, Note_on_c, 3, 43, 0
5, 65280, Note_on_c, 3, 43, 93
5, 65280, Note_on_c, 3, 55, 89
5, 65340, Note_on_c, 3, 55, 0
5, 65340, Note_on_c, 3, 43, 0
5, 65340, Note_on_c, 3, 55, 44
5, 65340, Note_on_c, 3, 43, 57
5, 65400, Note_on_c, 3, 43, 0
5, 65400, Note_on_c, 3, 55, 0
5, 65400, Note_on_c, 3, 55, 43
5, 65400, Note_on_c, 3, 43, 43
5, 65460, Note_on_c, 3, 43, 0
5, 65460, Note_on_c, 3, 55, 0
5, 65460, Note_on_c, 3, 55, 43
5, 65460, Note_on_c, 3, 43, 50
5, 65520, Note_on_c, 3, 43, 0
5, 65520, Note_on_c, 3, 55, 0
5, 65520, Note_on_c, 3, 55, 45
5, 65520, Note_on_c, 3, 43, 46
5, 65580, Note_on_c, 3, 43, 0
5, 65580, Note_on_c, 3, 55, 0
5, 65580, Note_on_c, 3, 43, 57
5, 65580, Note_on_c, 3, 55, 46
5, 65640, Note_on_c, 3, 55, 0
5, 65640, Note_on_c, 3, 43, 0
5, 65640, Note_on_c, 3, 55, 46
5, 65640, Note_on_c, 3, 43, 48
5, 65700, Note_on_c, 3, 43, 0
5, 65700, Note_on_c, 3, 55, 0
5, 65700, Note_on_c, 3, 43, 60
5, 65700, Note_on_c, 3, 55, 57
5, 65760, Note_on_c, 3, 55, 0
5, 65760, Note_on_c, 3, 43, 0
5, 65760, Note_on_c, 3, 44, 94
5, 65760, Note_on_c, 3, 56, 85
5, 65820, Note_on_c, 3, 56, 0
5, 65820, Note_on_c, 3, 44, 0
5, 65820, Note_on_c, 3, 44, 57
5, 65820, Note_on_c, 3, 56, 43
5, 65880, Note_on_c, 3, 56, 0
5, 65880, Note_on_c, 3, 44, 0
5, 65880, Note_on_c, 3, 44, 44
5, 65880, Note_on_c, 3, 56, 45
5, 65940, Note_on_c, 3, 56, 0
5, 65940, Note_on_c, 3, 44, 0
5, 65940, Note_on_c, 3, 44, 60
5, 65940, Note_on_c, 3, 56, 52
5, 66000, Note_on_c, 3, 56, 0
5, 66000, Note_on_c, 3, 44, 0
5, 66000, Note_on_c, 3, 44, 46
5, 66000, Note_on_c, 3, 56, 45
5, 66060, Note_on_c, 3, 56, 0
5, 66060, Note_on_c, 3, 44, 0
5, 66060, Note_on_c, 3, 44, 61
5, 66060, Note_on_c, 3, 56, 56
5, 66120, Note_on_c, 3, 56, 0
5, 66120, Note_on_c, 3, 44, 0
5, 66120, Note_on_c, 3, 44, 45
5, 66120, Note_on_c, 3, 56, 52
5, 66180, Note_on_c, 3, 56, 0
5, 66180, Note_on_c, 3, 44, 0
5, 66180, Note_on_c, 3, 44, 47
5, 66180, Note_on_c, 3, 56, 53
5, 66240, Note_on_c, 3, 56, 0
5, 66240, Note_on_c, 3, 44, 0
5, 66240, Note_on_c, 3, 56, 52
5, 66240, Note_on_c, 3, 44, 44
5, 66300, Note_on_c, 3, 44, 0
5, 66300, Note_on_c, 3, 56, 0
5, 78000, Note_on_c, 3, 47, 99
5, 78030, Note_on_c, 3, 47, 0
5, 78030, Note_on_c, 3, 43, 90
5, 78060, Note_on_c, 3, 43, 0
5, 78060, Note_on_c, 3, 47, 101
5, 78090, Note_on_c, 3, 47, 0
5, 78090, Note_on_c, 3, 50, 93
5, 78120, Note_on_c, 3, 50, 0
5, 78120, Note_on_c, 3, 55, 77
5, 78150, Note_on_c, 3, 55, 0
5, 78150, Note_on_c, 3, 53, 90
5, 78180, Note_on_c, 3, 53, 0
5, 78180, Note_on_c, 3, 51, 94
5, 78210, Note_on_c, 3, 51, 0
5, 78210, Note_on_c, 3, 50, 99
5, 78240, Note_on_c, 3, 50, 0
5, 78240, Note_on_c, 3, 51, 94
5, 78270, Note_on_c, 3, 51, 0
5, 78270, Note_on_c, 3, 55, 80
5, 78300, Note_on_c, 3, 55, 0
5, 78300, Note_on_c, 3, 54, 89
5, 78330, Note_on_c, 3, 54, 0
5, 78330, Note_on_c, 3, 55, 80
5, 78360, Note_on_c, 3, 55, 0
5, 78360, Note_on_c, 3, 53, 93
5, 78390, Note_on_c, 3, 53, 0
5, 78390, Note_on_c, 3, 51, 86
5, 78420, Note_on_c, 3, 51, 0
5, 78420, Note_on_c, 3, 50, 93
5, 78450, Note_on_c, 3, 50, 0
5, 78450, Note_on_c, 3, 48, 101
5, 78480, Note_on_c, 3, 48, 0
5, 78480, Note_on_c, 3, 47, 101
5, 78510, Note_on_c, 3, 47, 0
5, 78510, Note_on_c, 3, 43, 86
5, 78540, Note_on_c, 3, 43, 0
5, 78540, Note_on_c, 3, 47, 94
5, 78570, Note_on_c, 3, 47, 0
5, 78570, Note_on_c, 3, 43, 85
5, 78600, Note_on_c, 3, 43, 0
5, 78600, Note_on_c, 3, 48, 95
5, 78630, Note_on_c, 3, 48, 0
5, 78630, Note_on_c, 3, 43, 84
5, 78660, Note_on_c, 3, 43, 0
5, 78660, Note_on_c, 3, 48, 94
5, 78690, Note_on_c, 3, 48, 0
5, 78690, Note_on_c, 3, 43, 84
5, 78720, Note_on_c, 3, 43, 0
5, 78720, Note_on_c, 3, 47, 93
5, 78750, Note_on_c, 3, 47, 0
5, 78750, Note_on_c, 3, 43, 89
5, 78780, Note_on_c, 3, 43, 0
5, 78780, Note_on_c, 3, 47, 95
5, 78810, Note_on_c, 3, 47, 0
5, 78810, Note_on_c, 3, 43, 93
5, 78840, Note_on_c, 3, 43, 0
5, 78840, Note_on_c, 3, 47, 94
5, 78870, Note_on_c, 3, 47, 0
5, 78870, Note_on_c, 3, 43, 94
5, 78900, Note_on_c, 3, 43, 0
5, 78900, Note_on_c, 3, 47, 99
5, 78930, Note_on_c, 3, 47, 0
5, 78930, Note_on_c, 3, 43, 95
5, 78960, Note_on_c, 3, 43, 0
5, 78960, Note_on_c, 3, 47, 95
5, 78990, Note_on_c, 3, 47, 0
5, 78990, Note_on_c, 3, 43, 89
5, 79020, Note_on_c, 3, 43, 0
5, 79020, Note_on_c, 3, 47, 95
5, 79050, Note_on_c, 3, 47, 0
5, 79050, Note_on_c, 3, 50, 98
5, 79080, Note_on_c, 3, 50, 0
5, 79080, Note_on_c, 3, 55, 76
5, 79110, Note_on_c, 3, 55, 0
5, 79110, Note_on_c, 3, 53, 82
5, 79140, Note_on_c, 3, 53, 0
5, 79140, Note_on_c, 3, 51, 89
5, 79170, Note_on_c, 3, 51, 0
5, 79170, Note_on_c, 3, 50, 90
5, 79200, Note_on_c, 3, 50, 0
5, 79200, Note_on_c, 3, 51, 93
5, 79230, Note_on_c, 3, 51, 0
5, 79230, Note_on_c, 3, 55, 76
5, 79260, Note_on_c, 3, 55, 0
5, 79260, Note_on_c, 3, 54, 84
5, 79290, Note_on_c, 3, 54, 0
5, 79290, Note_on_c, 3, 55, 78
5, 79320, Note_on_c, 3, 55, 0
5, 79320, Note_on_c, 3, 53, 80
5, 79350, Note_on_c, 3, 53, 0
5, 79350, Note_on_c, 3, 51, 89
5, 79380, Note_on_c, 3, 51, 0
5, 79380, Note_on_c, 3, 50, 94
5, 79410, Note_on_c, 3, 50, 0
5, 79410, Note_on_c, 3, 48, 94
5, 79440, Note_on_c, 3, 48, 0
5, 79440, Note_on_c, 3, 53, 89
5, 79470, Note_on_c, 3, 53, 0
5, 79470, Note_on_c, 3, 52, 94
5, 79500, Note_on_c, 3, 52, 0
5, 79500, Note_on_c, 3, 53, 89
5, 79530, Note_on_c, 3, 53, 0
5, 79530, Note_on_c, 3, 54, 78
5, 79560, Note_on_c, 3, 54, 0
5, 79560, Note_on_c, 3, 55, 78
5, 79590, Note_on_c, 3, 55, 0
5, 79590, Note_on_c, 3, 53, 80
5, 79620, Note_on_c, 3, 53, 0
5, 79620, Note_on_c, 3, 51, 89
5, 79650, Note_on_c, 3, 51, 0
5, 79650, Note_on_c, 3, 50, 95
5, 79680, Note_on_c, 3, 50, 0
5, 79680, Note_on_c, 3, 51, 86
5, 79710, Note_on_c, 3, 51, 0
5, 79710, Note_on_c, 3, 51, 90
5, 79740, Note_on_c, 3, 51, 0
5, 79740, Note_on_c, 3, 53, 81
5, 79770, Note_on_c, 3, 53, 0
5, 79770, Note_on_c, 3, 55, 85
5, 79800, Note_on_c, 3, 55, 0
5, 79800, Note_on_c, 3, 56, 119
5, 79950, Note_on_c, 3, 56, 0
5, 79950, Note_on_c, 3, 53, 85
5, 79980, Note_on_c, 3, 53, 0
5, 79980, Note_on_c, 3, 52, 98
5, 80010, Note_on_c, 3, 52, 0
5, 80010, Note_on_c, 3, 53, 90
5, 80040, Note_on_c, 3, 53, 0
5, 80040, Note_on_c, 3, 55, 84
5, 80070, Note_on_c, 3, 55, 0
5, 80070, Note_on_c, 3, 54, 84
5, 80100, Note_on_c, 3, 54, 0
5, 80100, Note_on_c, 3, 55, 84
5, 80130, Note_on_c, 3, 55, 0
5, 80130, Note_on_c, 3, 43, 98
5, 80160, Note_on_c, 3, 43, 0
5, 80160, Note_on_c, 3, 48, 95
5, 80190, Note_on_c, 3, 48, 0
5, 80190, Note_on_c, 3, 51, 94
5, 80220, Note_on_c, 3, 51, 0
5, 80220, Note_on_c, 3, 53, 94
5, 80250, Note_on_c, 3, 53, 0
5, 80250, Note_on_c, 3, 55, 89
5, 80280, Note_on_c, 3, 55, 0
5, 80280, Note_on_c, 3, 56, 119
5, 80430, Note_on_c, 3, 56, 0
5, 80430, Note_on_c, 3, 53, 93
5, 80460, Note_on_c, 3, 53, 0
5, 80460, Note_on_c, 3, 52, 95
5, 80490, Note_on_c, 3, 52, 0
5, 80490, Note_on_c, 3, 53, 89
5, 80520, Note_on_c, 3, 53, 0
5, 80520, Note_on_c, 3, 55, 80
5, 80550, Note_on_c, 3, 55, 0
5, 80550, Note_on_c, 3, 54, 84
5, 80580, Note_on_c, 3, 54, 0
5, 80580, Note_on_c, 3, 55, 80
5, 80610, Note_on_c, 3, 55, 0
5, 80610, Note_on_c, 3, 43, 95
5, 80640, Note_on_c, 3, 43, 0
5, 80640, Note_on_c, 3, 48, 99
5, 80700, Note_on_c, 3, 48, 0
5, 80760, Note_on_c, 3, 43, 89
5, 80820, Note_on_c, 3, 43, 0
5, 80880, Note_on_c, 3, 48, 99
5, 80940, Note_on_c, 3, 48, 0
5, 81120, Note_on_c, 3, 60, 80
5, 81120, Note_on_c, 3, 48, 86
5, 81240, Note_on_c, 3, 48, 0
5, 81240, Note_on_c, 3, 60, 0
5, 81240, Note_on_c, 3, 60, 65
5, 81240, Note_on_c, 3, 48, 80
5, 81330, Note_on_c, 3, 48, 0
5, 81330, Note_on_c, 3, 60, 0
5, 81330, Note_on_c, 3, 60, 74
5, 81330, Note_on_c, 3, 48, 80
5, 81360, Note_on_c, 3, 48, 0
5, 81360, Note_on_c, 3, 60, 0
5, 81360, Note_on_c, 3, 60, 74
5, 81360, Note_on_c, 3, 48, 84
5, 81480, Note_on_c, 3, 48, 0
5, 81480, Note_on_c, 3, 60, 0
5, 82080, Note_on_c, 3, 53, 80
5, 82080, Note_on_c, 3, 41, 86
5, 82200, Note_on_c, 3, 41, 0
5, 82200, Note_on_c, 3, 53, 0
5, 82200, Note_on_c, 3, 41, 86
5, 82200, Note_on_c, 3, 53, 82
5, 82290, Note_on_c, 3, 53, 0
5, 82290, Note_on_c, 3, 41, 0
5, 82290, Note_on_c, 3, 53, 82
5, 82290, Note_on_c, 3, 41, 89
5, 82320, Note_on_c, 3, 41, 0
5, 82320, Note_on_c, 3, 53, 0
5, 82320, Note_on_c, 3, 53, 80
5, 82320, Note_on_c, 3, 41, 85
5, 82440, Note_on_c, 3, 41, 0
5, 82440, Note_on_c, 3, 53, 0
5, 85710, Note_on_c, 3, 55, 66
5, 85725, Note_on_c, 3, 55, 0
5, 85740, Note_on_c, 3, 57, 78
5, 85755, Note_on_c, 3, 57, 0
5, 85770, Note_on_c, 3, 59, 56
5, 85785, Note_on_c, 3, 59, 0
5, 85800, Note_on_c, 3, 60, 64
5, 85815, Note_on_c, 3, 60, 0
5, 85830, Note_on_c, 3, 62, 72
5, 85845, Note_on_c, 3, 62, 0
5, 85860, Note_on_c, 3, 64, 69
5, 85875, Note_on_c, 3, 64, 0
5, 85890, Note_on_c, 3, 65, 71
5, 85905, Note_on_c, 3, 65, 0
5, 85920, Note_on_c, 3, 67, 62
5, 85920, Note_on_c, 3, 48, 77
5, 86040, Note_on_c, 3, 48, 0
5, 86040, Note_on_c, 3, 67, 0
5, 86040, Note_on_c, 3, 65, 56
5, 86055, Note_on_c, 3, 65, 0
5, 86055, Note_on_c, 3, 64, 62
5, 86085, Note_on_c, 3, 64, 0
5, 86100, Note_on_c, 3, 62, 70
5, 86115, Note_on_c, 3, 62, 0
5, 86115, Note_on_c, 3, 60, 68
5, 86145, Note_on_c, 3, 60, 0
5, 86160, Note_on_c, 3, 60, 80
5, 86160, Note_on_c, 3, 43, 68
5, 86175, Note_on_c, 3, 60, 0
5, 86175, Note_on_c, 3, 59, 81
5, 86205, Note_on_c, 3, 59, 0
5, 86220, Note_on_c, 3, 59, 77
5, 86250, Note_on_c, 3, 59, 0
5, 86280, Note_on_c, 3, 43, 0
5, 86280, Note_on_c, 3, 59, 76
5, 86310, Note_on_c, 3, 59, 0
5, 86340, Note_on_c, 3, 59, 80
5, 86370, Note_on_c, 3, 59, 0
5, 86400, Note_on_c, 3, 60, 72
5, 86400, Note_on_c, 3, 45, 81
5, 86430, Note_on_c, 3, 60, 0
5, 86460, Note_on_c, 3, 60, 76
5, 86490, Note_on_c, 3, 60, 0
5, 86520, Note_on_c, 3, 45, 0
5, 86520, Note_on_c, 3, 62, 67
5, 86520, Note_on_c, 3, 57, 84
5, 86550, Note_on_c, 3, 62, 0
5, 86550, Note_on_c, 3, 60, 73
5, 86580, Note_on_c, 3, 60, 0
5, 86580, Note_on_c, 3, 59, 64
5, 86610, Note_on_c, 3, 59, 0
5, 86610, Note_on_c, 3, 60, 73
5, 86640, Note_on_c, 3, 60, 0
5, 86640, Note_on_c, 3, 57, 0
5, 86640, Note_on_c, 3, 62, 84
5, 86640, Note_on_c, 3, 57, 99
5, 86880, Note_on_c, 3, 57, 0
5, 86880, Note_on_c, 3, 62, 0
5, 86880, Note_on_c, 3, 59, 76
5, 86880, Note_on_c, 3, 64, 74
5, 87000, Note_on_c, 3, 59, 0
5, 87000, Note_on_c, 3, 61, 68
5, 87120, Note_on_c, 3, 61, 0
5, 87120, Note_on_c, 3, 64, 0
5, 87120, Note_on_c, 3, 65, 84
5, 87120, Note_on_c, 3, 62, 89
5, 87300, Note_on_c, 3, 62, 0
5, 87300, Note_on_c, 3, 65, 0
5, 87300, Note_on_c, 3, 59, 73
5, 87300, Note_on_c, 3, 62, 53
5, 87360, Note_on_c, 3, 62, 0
5, 87360, Note_on_c, 3, 59, 0
5, 87360, Note_on_c, 3, 52, 82
5, 87360, Note_on_c, 3, 60, 65
5, 87480, Note_on_c, 3, 60, 0
5, 87480, Note_on_c, 3, 52, 0
5, 87480, Note_on_c, 3, 59, 70
5, 87480, Note_on_c, 3, 53, 73
5, 87600, Note_on_c, 3, 53, 0
5, 87600, Note_on_c, 3, 59, 0
5, 87600, Note_on_c, 3, 60, 56
5, 87600, Note_on_c, 3, 52, 76
5, 87660, Note_on_c, 3, 52, 0
5, 87660, Note_on_c, 3, 60, 0
5, 87900, Note_on_c, 3, 64, 72
5, 88020, Note_on_c, 3, 64, 0
5, 88020, Note_on_c, 3, 62, 61
5, 88080, Note_on_c, 3, 62, 0
5, 88080, Note_on_c, 3, 60, 61
5, 88140, Note_on_c, 3, 60, 0
5, 88620, Note_on_c, 3, 55, 76
5, 88680, Note_on_c, 3, 55, 0
5, 88680, Note_on_c, 3, 57, 90
5, 88740, Note_on_c, 3, 57, 0
5, 88740, Note_on_c, 3, 59, 84
5, 88800, Note_on_c, 3, 59, 0
5, 88800, Note_on_c, 3, 60, 74
5, 88860, Note_on_c, 3, 60, 0
5, 89100, Note_on_c, 3, 55, 78
5, 89160, Note_on_c, 3, 55, 0
5, 89160, Note_on_c, 3, 57, 84
5, 89220, Note_on_c, 3, 57, 0
5, 89220, Note_on_c, 3, 59, 78
5, 89280, Note_on_c, 3, 59, 0
5, 89280, Note_on_c, 3, 60, 69
5, 89340, Note_on_c, 3, 60, 0
5, 90000, Note_on_c, 3, 47, 78
5, 90000, Note_on_c, 3, 59, 72
5, 90060, Note_on_c, 3, 59, 0
5, 90060, Note_on_c, 3, 47, 0
5, 90120, Note_on_c, 3, 55, 53
5, 90120, Note_on_c, 3, 67, 46
5, 90180, Note_on_c, 3, 67, 0
5, 90180, Note_on_c, 3, 55, 0
5, 90240, Note_on_c, 3, 52, 73
5, 90240, Note_on_c, 3, 64, 67
5, 90300, Note_on_c, 3, 64, 0
5, 90300, Note_on_c, 3, 52, 0
5, 90360, Note_on_c, 3, 48, 69
5, 90360, Note_on_c, 3, 60, 57
5, 90420, Note_on_c, 3, 60, 0
5, 90420, Note_on_c, 3, 48, 0
5, 90480, Note_on_c, 3, 45, 76
5, 90480, Note_on_c, 3, 57, 80
5, 90540, Note_on_c, 3, 57, 0
5, 90540, Note_on_c, 3, 45, 0
5, 90600, Note_on_c, 3, 60, 70
5, 90600, Note_on_c, 3, 54, 63
5, 90660, Note_on_c, 3, 54, 0
5, 90660, Note_on_c, 3, 60, 0
5, 90720, Note_on_c, 3, 54, 65
5, 90720, Note_on_c, 3, 60, 64
5, 90780, Note_on_c, 3, 60, 0
5, 90780, Note_on_c, 3, 54, 0
5, 90840, Note_on_c, 3, 54, 70
5, 90840, Note_on_c, 3, 60, 64
5, 90900, Note_on_c, 3, 60, 0
5, 90900, Note_on_c, 3, 54, 0
5, 90960, Note_on_c, 3, 54, 58
5, 90960, Note_on_c, 3, 60, 64
5, 91020, Note_on_c, 3, 60, 0
5, 91020, Note_on_c, 3, 54, 0
5, 95760, Note_on_c, 3, 63, 49
5, 95760, Note_on_c, 3, 56, 66
5, 95880, Note_on_c, 3, 56, 0
5, 95880, Note_on_c, 3, 63, 0
5, 96000, Note_on_c, 3, 49, 65
5, 96060, Note_on_c, 3, 61, 54
5, 96090, Note_on_c, 3, 61, 0
5, 96120, Note_on_c, 3, 49, 0
5, 96120, Note_on_c, 3, 61, 65
5, 96150, Note_on_c, 3, 61, 0
5, 96180, Note_on_c, 3, 61, 65
5, 96210, Note_on_c, 3, 61, 0
5, 96240, Note_on_c, 3, 46, 64
5, 96240, Note_on_c, 3, 62, 65
5, 96360, Note_on_c, 3, 62, 0
5, 96360, Note_on_c, 3, 46, 0
5, 96480, Note_on_c, 3, 51, 63
5, 96540, Note_on_c, 3, 63, 59
5, 96570, Note_on_c, 3, 63, 0
5, 96600, Note_on_c, 3, 51, 0
5, 96600, Note_on_c, 3, 63, 67
5, 96630, Note_on_c, 3, 63, 0
5, 96660, Note_on_c, 3, 63, 64
5, 96690, Note_on_c, 3, 63, 0
5, 96720, Note_on_c, 3, 43, 72
5, 96720, Note_on_c, 3, 64, 65
5, 96840, Note_on_c, 3, 64, 0
5, 96840, Note_on_c, 3, 43, 0
5, 96960, Note_on_c, 3, 44, 68
5, 97020, Note_on_c, 3, 65, 61
5, 97050, Note_on_c, 3, 65, 0
5, 97080, Note_on_c, 3, 44, 0
5, 97080, Note_on_c, 3, 65, 55
5, 97110, Note_on_c, 3, 65, 0
5, 97140, Note_on_c, 3, 65, 65
5, 97170, Note_on_c, 3, 65, 0
5, 97200, Note_on_c, 3, 56, 69
5, 97200, Note_on_c, 3, 66, 60
5, 97320, Note_on_c, 3, 66, 0
5, 97320, Note_on_c, 3, 56, 0
5, 97320, Note_on_c, 3, 60, 65
5, 97440, Note_on_c, 3, 60, 0
5, 97440, Note_on_c, 3, 55, 57
5, 97440, Note_on_c, 3, 59, 70
5, 97500, Note_on_c, 3, 59, 0
5, 97500, Note_on_c, 3, 55, 0
5, 97500, Note_on_c, 3, 62, 68
5, 97500, Note_on_c, 3, 59, 67
5, 97560, Note_on_c, 3, 59, 0
5, 97560, Note_on_c, 3, 62, 0
5, 97560, Note_on_c, 3, 62, 72
5, 97560, Note_on_c, 3, 59, 68
5, 97620, Note_on_c, 3, 59, 0
5, 97620, Note_on_c, 3, 62, 0
5, 97620, Note_on_c, 3, 59, 62
5, 97620, Note_on_c, 3, 62, 67
5, 97680, Note_on_c, 3, 62, 0
5, 97680, Note_on_c, 3, 59, 0
5, 97740, Note_on_c, 3, 63, 58
5, 97740, Note_on_c, 3, 60, 65
5, 97800, Note_on_c, 3, 60, 0
5, 97800, Note_on_c, 3, 63, 0
5, 97800, Note_on_c, 3, 63, 52
5, 97800, Note_on_c, 3, 60, 53
5, 97860, Note_on_c, 3, 60, 0
5, 97860, Note_on_c, 3, 63, 0
5, 97860, Note_on_c, 3, 63, 65
5, 97860, Note_on_c, 3, 60, 69
5, 97920, Note_on_c, 3, 60, 0
5, 97920, Note_on_c, 3, 63, 0
5, 97980, Note_on_c, 3, 62, 57
5, 97980, Note_on_c, 3, 59, 66
5, 98040, Note_on_c, 3, 59, 0
5, 98040, Note_on_c, 3, 62, 0
5, 98040, Note_on_c, 3, 59, 64
5, 98040, Note_on_c, 3, 62, 62
5, 98100, Note_on_c, 3, 62, 0
5, 98100, Note_on_c, 3, 59, 0
5, 98100, Note_on_c, 3, 62, 64
5, 98100, Note_on_c, 3, 59, 65
5, 98160, Note_on_c, 3, 59, 0
5, 98160, Note_on_c, 3, 62, 0
5, 98220, Note_on_c, 3, 58, 72
5, 98220, Note_on_c, 3, 61, 65
5, 98280, Note_on_c, 3, 61, 0
5, 98280, Note_on_c, 3, 58, 0
5, 98280, Note_on_c, 3, 61, 53
5, 98280, Note_on_c, 3, 58, 55
5, 98340, Note_on_c, 3, 58, 0
5, 98340, Note_on_c, 3, 61, 0
5, 98340, Note_on_c, 3, 61, 64
5, 98340, Note_on_c, 3, 58, 60
5, 98400, Note_on_c, 3, 58, 0
5, 98400, Note_on_c, 3, 61, 0
5, 98400, Note_on_c, 3, 57, 84
5, 98400, Note_on_c, 3, 66, 60
5, 98460, Note_on_c, 3, 66, 0
5, 98460, Note_on_c, 3, 57, 0
5, 98460, Note_on_c, 3, 66, 55
5, 98460, Note_on_c, 3, 57, 85
5, 98520, Note_on_c, 3, 57, 0
5, 98520, Note_on_c, 3, 66, 0
5, 98580, Note_on_c, 3, 56, 74
5, 98580, Note_on_c, 3, 65, 74
5, 98640, Note_on_c, 3, 65, 0
5, 98640, Note_on_c, 3, 56, 0
5, 98700, Note_on_c, 3, 64, 69
5, 98700, Note_on_c, 3, 55, 74
5, 98760, Note_on_c, 3, 55, 0
5, 98760, Note_on_c, 3, 64, 0
5, 98820, Note_on_c, 3, 63, 71
5, 98820, Note_on_c, 3, 54, 76
5, 98880, Note_on_c, 3, 54, 0
5, 98880, Note_on_c, 3, 63, 0
5, 98880, Note_on_c, 3, 62, 64
5, 98880, Note_on_c, 3, 53, 73
5, 98940, Note_on_c, 3, 53, 0
5, 98940, Note_on_c, 3, 62, 0
5, 99000, Note_on_c, 3, 53, 72
5, 99000, Note_on_c, 3, 65, 73
5, 99240, Note_on_c, 3, 65, 0
5, 99240, Note_on_c, 3, 53, 0
5, 99240, Note_on_c, 3, 53, 73
5, 99240, Note_on_c, 3, 65, 65
5, 99480, Note_on_c, 3, 65, 0
5, 99480, Note_on_c, 3, 53, 0
5, 99480, Note_on_c, 3, 53, 77
5, 99480, Note_on_c, 3, 65, 76
5, 99720, Note_on_c, 3, 65, 0
5, 99720, Note_on_c, 3, 53, 0
5, 99720, Note_on_c, 3, 65, 76
5, 99720, Note_on_c, 3, 53, 84
5, 99900, Note_on_c, 3, 53, 0
5, 99900, Note_on_c, 3, 65, 0
5, 99900, Note_on_c, 3, 60, 80
5, 99900, Note_on_c, 3, 56, 82
5, 99960, Note_on_c, 3, 56, 0
5, 99960, Note_on_c, 3, 60, 0
5, 99960, Note_on_c, 3, 55, 95
5, 99960, Note_on_c, 3, 59, 98
5, 100020, Note_on_c, 3, 59, 0
5, 100020, Note_on_c, 3, 55, 0
5, 100020, Note_on_c, 3, 60, 89
5, 100020, Note_on_c, 3, 56, 94
5, 100080, Note_on_c, 3, 56, 0
5, 100080, Note_on_c, 3, 60, 0
5, 100080, Note_on_c, 3, 55, 82
5, 100080, Note_on_c, 3, 59, 99
5, 100140, Note_on_c, 3, 59, 0
5, 100140, Note_on_c, 3, 55, 0
5, 100140, Note_on_c, 3, 60, 89
5, 100140, Note_on_c, 3, 56, 89
5, 100200, Note_on_c, 3, 56, 0
5, 100200, Note_on_c, 3, 60, 0
5, 100200, Note_on_c, 3, 55, 82
5, 100200, Note_on_c, 3, 59, 89
5, 100260, Note_on_c, 3, 59, 0
5, 100260, Note_on_c, 3, 55, 0
5, 100260, Note_on_c, 3, 56, 94
5, 100260, Note_on_c, 3, 60, 90
5, 100320, Note_on_c, 3, 60, 0
5, 100320, Note_on_c, 3, 56, 0
5, 100320, Note_on_c, 3, 55, 89
5, 100320, Note_on_c, 3, 59, 94
5, 100380, Note_on_c, 3, 59, 0
5, 100380, Note_on_c, 3, 55, 0
5, 100380, Note_on_c, 3, 56, 94
5, 100380, Note_on_c, 3, 60, 89
5, 100440, Note_on_c, 3, 60, 0
5, 100440, Note_on_c, 3, 56, 0
5, 100440, Note_on_c, 3, 55, 86
5, 100440, Note_on_c, 3, 59, 95
5, 100500, Note_on_c, 3, 59, 0
5, 100500, Note_on_c, 3, 55, 0
5, 100500, Note_on_c, 3, 60, 86
5, 100500, Note_on_c, 3, 56, 94
5, 100560, Note_on_c, 3, 56, 0
5, 100560, Note_on_c, 3, 60, 0
5, 100560, Note_on_c, 3, 55, 84
5, 100560, Note_on_c, 3, 59, 98
5, 100620, Note_on_c, 3, 59, 0
5, 100620, Note_on_c, 3, 55, 0
5, 100620, Note_on_c, 3, 56, 94
5, 100620, Note_on_c, 3, 60, 90
5, 100680, Note_on_c, 3, 60, 0
5, 100680, Note_on_c, 3, 56, 0
5, 100680, Note_on_c, 3, 55, 90
5, 100680, Note_on_c, 3, 59, 94
5, 100740, Note_on_c, 3, 59, 0
5, 100740, Note_on_c, 3, 55, 0
5, 100740, Note_on_c, 3, 56, 94
5, 100740, Note_on_c, 3, 60, 84
5, 100800, Note_on_c, 3, 60, 0
5, 100800, Note_on_c, 3, 56, 0
5, 100800, Note_on_c, 3, 55, 84
5, 100800, Note_on_c, 3, 59, 95
5, 101040, Note_on_c, 3, 59, 0
5, 101040, Note_on_c, 3, 55, 0
5, 101040, Note_on_c, 3, 59, 85
5, 101040, Note_on_c, 3, 62, 73
5, 101160, Note_on_c, 3, 62, 0
5, 101160, Note_on_c, 3, 59, 0
5, 101160, Note_on_c, 3, 59, 90
5, 101160, Note_on_c, 3, 62, 80
5, 101280, Note_on_c, 3, 62, 0
5, 101280, Note_on_c, 3, 59, 0
5, 101280, Note_on_c, 3, 59, 95
5, 101280, Note_on_c, 3, 62, 89
5, 101520, Note_on_c, 3, 62, 0
5, 101520, Note_on_c, 3, 59, 0
5, 101520, Note_on_c, 3, 53, 94
5, 101520, Note_on_c, 3, 59, 94
5, 101760, Note_on_c, 3, 59, 0
5, 101760, Note_on_c, 3, 53, 0
5, 101760, Note_on_c, 3, 50, 95
5, 101760, Note_on_c, 3, 53, 90
5, 102360, Note_on_c, 3, 53, 0
5, 102360, Note_on_c, 3, 50, 0
5, 108030, Note_on_c, 3, 66, 84
5, 108060, Note_on_c, 3, 66, 0
5, 108060, Note_on_c, 3, 67, 67
5, 108120, Note_on_c, 3, 67, 0
5, 108390, Note_on_c, 3, 66, 82
5, 108420, Note_on_c, 3, 66, 0
5, 108420, Note_on_c, 3, 67, 76
5, 108480, Note_on_c, 3, 67, 0
5, 108600, Note_on_c, 3, 59, 71
5, 108630, Note_on_c, 3, 59, 0
5, 108660, Note_on_c, 3, 60, 62
5, 108690, Note_on_c, 3, 60, 0
5, 108720, Note_on_c, 3, 62, 47
5, 108750, Note_on_c, 3, 62, 0
5, 108780, Note_on_c, 3, 64, 68
5, 108810, Note_on_c, 3, 64, 0
5, 108840, Note_on_c, 3, 65, 61
5, 108870, Note_on_c, 3, 65, 0
5, 108900, Note_on_c, 3, 55, 35
5, 108930, Note_on_c, 3, 55, 0
5, 108960, Note_on_c, 3, 57, 70
5, 108990, Note_on_c, 3, 57, 0
5, 109020, Note_on_c, 3, 59, 69
5, 109050, Note_on_c, 3, 59, 0
5, 109080, Note_on_c, 3, 60, 94
5, 109200, Note_on_c, 3, 60, 0
5, 111960, Note_on_c, 3, 60, 66
5, 111960, Note_on_c, 3, 48, 73
5, 112020, Note_on_c, 3, 48, 0
5, 112020, Note_on_c, 3, 60, 0
5, 112020, Note_on_c, 3, 48, 77
5, 112020, Note_on_c, 3, 60, 68
5, 112080, Note_on_c, 3, 60, 0
5, 112080, Note_on_c, 3, 48, 0
5, 112080, Note_on_c, 3, 60, 68
5, 112080, Note_on_c, 3, 48, 72
5, 112140, Note_on_c, 3, 48, 0
5, 112140, Note_on_c, 3, 60, 0
5, 112140, Note_on_c, 3, 55, 72
5, 112140, Note_on_c, 3, 67, 62
5, 112260, Note_on_c, 3, 67, 0
5, 112260, Note_on_c, 3, 55, 0
5, 112320, Note_on_c, 3, 62, 61
5, 112320, Note_on_c, 3, 50, 72
5, 112380, Note_on_c, 3, 50, 0
5, 112380, Note_on_c, 3, 62, 0
5, 112380, Note_on_c, 3, 62, 64
5, 112380, Note_on_c, 3, 50, 72
5, 112440, Note_on_c, 3, 50, 0
5, 112440, Note_on_c, 3, 62, 0
5, 112440, Note_on_c, 3, 62, 59
5, 112440, Note_on_c, 3, 50, 68
5, 112500, Note_on_c, 3, 50, 0
5, 112500, Note_on_c, 3, 62, 0
5, 112500, Note_on_c, 3, 57, 80
5, 112500, Note_on_c, 3, 60, 45
5, 112620, Note_on_c, 3, 60, 0
5, 112620, Note_on_c, 3, 57, 0
5, 112680, Note_on_c, 3, 65, 59
5, 112680, Note_on_c, 3, 53, 57
5, 112740, Note_on_c, 3, 53, 0
5, 112740, Note_on_c, 3, 65, 0
5, 112740, Note_on_c, 3, 65, 62
5, 112740, Note_on_c, 3, 53, 58
5, 112800, Note_on_c, 3, 53, 0
5, 112800, Note_on_c, 3, 65, 0
5, 112800, Note_on_c, 3, 65, 62
5, 112800, Note_on_c, 3, 53, 57
5, 112860, Note_on_c, 3, 53, 0
5, 112860, Note_on_c, 3, 65, 0
5, 112860, Note_on_c, 3, 60, 62
5, 112860, Note_on_c, 3, 64, 57
5, 112920, Note_on_c, 3, 64, 0
5, 112920, Note_on_c, 3, 60, 0
5, 112920, Note_on_c, 3, 60, 62
5, 112920, Note_on_c, 3, 64, 63
5, 112980, Note_on_c, 3, 64, 0
5, 112980, Note_on_c, 3, 60, 0
5, 112980, Note_on_c, 3, 64, 61
5, 112980, Note_on_c, 3, 60, 66
5, 113040, Note_on_c, 3, 60, 0
5, 113040, Note_on_c, 3, 64, 0
5, 113040, Note_on_c, 3, 65, 73
5, 113040, Note_on_c, 3, 55, 71
5, 113160, Note_on_c, 3, 55, 0
5, 113160, Note_on_c, 3, 65, 0
5, 113220, Note_on_c, 3, 55, 53
5, 113220, Note_on_c, 3, 67, 45
5, 113340, Note_on_c, 3, 67, 0
5, 113340, Note_on_c, 3, 55, 0
5, 113400, Note_on_c, 3, 60, 67
5, 113400, Note_on_c, 3, 48, 68
5, 113520, Note_on_c, 3, 48, 0
5, 113520, Note_on_c, 3, 60, 0
5, 113580, Note_on_c, 3, 55, 61
5, 113580, Note_on_c, 3, 67, 58
5, 113640, Note_on_c, 3, 67, 0
5, 113640, Note_on_c, 3, 55, 0
5, 113640, Note_on_c, 3, 55, 71
5, 113640, Note_on_c, 3, 67, 58
5, 113700, Note_on_c, 3, 67, 0
5, 113700, Note_on_c, 3, 55, 0
5, 113700, Note_on_c, 3, 67, 64
5, 113700, Note_on_c, 3, 55, 66
5, 113760, Note_on_c, 3, 55, 0
5, 113760, Note_on_c, 3, 67, 0
5, 113760, Note_on_c, 3, 62, 57
5, 113760, Note_on_c, 3, 50, 67
5, 113880, Note_on_c, 3, 50, 0
5, 113880, Note_on_c, 3, 62, 0
5, 113940, Note_on_c, 3, 57, 71
5, 113940, Note_on_c, 3, 60, 58
5, 114000, Note_on_c, 3, 60, 0
5, 114000, Note_on_c, 3, 57, 0
5, 114000, Note_on_c, 3, 60, 63
5, 114000, Note_on_c, 3, 57, 76
5, 114060, Note_on_c, 3, 57, 0
5, 114060, Note_on_c, 3, 60, 0
5, 114060, Note_on_c, 3, 60, 63
5, 114060, Note_on_c, 3, 57, 76
5, 114120, Note_on_c, 3, 57, 0
5, 114120, Note_on_c, 3, 60, 0
5, 114120, Note_on_c, 3, 57, 77
5, 114120, Note_on_c, 3, 45, 68
5, 114240, Note_on_c, 3, 45, 0
5, 114240, Note_on_c, 3, 57, 0
5, 114300, Note_on_c, 3, 64, 53
5, 114300, Note_on_c, 3, 52, 72
5, 114420, Note_on_c, 3, 52, 0
5, 114420, Note_on_c, 3, 64, 0
5, 114480, Note_on_c, 3, 65, 68
5, 114480, Note_on_c, 3, 53, 64
5, 114600, Note_on_c, 3, 53, 0
5, 114600, Note_on_c, 3, 65, 0
5, 114660, Note_on_c, 3, 55, 64
5, 114660, Note_on_c, 3, 67, 53
5, 114780, Note_on_c, 3, 67, 0
5, 114780, Note_on_c, 3, 55, 0
5, 114840, Note_on_c, 3, 69, 76
5, 114840, Note_on_c, 3, 57, 84
5, 114960, Note_on_c, 3, 57, 0
5, 114960, Note_on_c, 3, 69, 0
5, 115020, Note_on_c, 3, 64, 82
5, 115020, Note_on_c, 3, 52, 90
5, 115140, Note_on_c, 3, 52, 0
5, 115140, Note_on_c, 3, 64, 0
5, 115200, Note_on_c, 3, 65, 74
5, 115200, Note_on_c, 3, 53, 80
5, 115320, Note_on_c, 3, 53, 0
5, 115320, Note_on_c, 3, 65, 0
5, 115380, Note_on_c, 3, 41, 93
5, 115380, Note_on_c, 3, 53, 86
5, 115500, Note_on_c, 3, 53, 0
5, 115500, Note_on_c, 3, 41, 0
5, 115560, Note_on_c, 3, 42, 93
5, 115560, Note_on_c, 3, 54, 86
5, 115630, Control_c, 3, 7, 99
5, 115640, Control_c, 3, 7, 97
5, 115650, Control_c, 3, 7, 95
5, 115660, Control_c, 3, 7, 93
5, 115670, Control_c, 3, 7, 91
5, 115680, Control_c, 3, 7, 89
5, 115690, Control_c, 3, 7, 87
5, 115700, Control_c, 3, 7, 85
5, 115710, Control_c, 3, 7, 82
5, 115720, Control_c, 3, 7, 80
5, 115730, Control_c, 3, 7, 78
5, 115740, Control_c, 3, 7, 76
5, 115750, Control_c, 3, 7, 74
5, 115760, Control_c, 3, 7, 72
5, 115770, Control_c, 3, 7, 70
5, 115780, Control_c, 3, 7, 67
5, 116280, Note_on_c, 3, 54, 0
5, 116280, Note_on_c, 3, 42, 0
5, 116280, Note_on_c, 3, 55, 89
5, 116280, Note_on_c, 3, 43, 98
5, 116400, Note_on_c, 3, 43, 0
5, 116400, Note_on_c, 3, 55, 0
5, 116530, Control_c, 3, 7, 100
5, 117720, Note_on_c, 3, 52, 72
5, 117720, Note_on_c, 3, 48, 65
5, 117900, Note_on_c, 3, 48, 0
5, 117900, Note_on_c, 3, 52, 0
5, 117900, Note_on_c, 3, 52, 64
5, 117900, Note_on_c, 3, 55, 66
5, 118080, Note_on_c, 3, 55, 0
5, 118080, Note_on_c, 3, 52, 0
5, 118080, Note_on_c, 3, 55, 47
5, 118080, Note_on_c, 3, 60, 62
5, 118260, Note_on_c, 3, 60, 0
5, 118260, Note_on_c, 3, 55, 0
5, 118260, Note_on_c, 3, 64, 50
5, 118260, Note_on_c, 3, 60, 38
5, 118440, Note_on_c, 3, 60, 0
5, 118440, Note_on_c, 3, 64, 0
5, 118440, Note_on_c, 3, 62, 71
5, 118440, Note_on_c, 3, 55, 78
5, 118620, Note_on_c, 3, 62, 0
5, 118620, Note_on_c, 3, 65, 94
5, 118860, Note_on_c, 3, 65, 0
5, 118860, Note_on_c, 3, 55, 0
5, 118860, Note_on_c, 3, 55, 77
5, 118860, Note_on_c, 3, 65, 76
5, 118920, Note_on_c, 3, 65, 0
5, 118920, Note_on_c, 3, 55, 0
5, 118920, Note_on_c, 3, 55, 80
5, 118920, Note_on_c, 3, 65, 67
5, 118980, Note_on_c, 3, 65, 0
5, 118980, Note_on_c, 3, 55, 0
5, 118980, Note_on_c, 3, 55, 81
5, 118980, Note_on_c, 3, 65, 69
5, 119040, Note_on_c, 3, 65, 0
5, 119040, Note_on_c, 3, 55, 0
5, 119040, Note_on_c, 3, 55, 80
5, 119040, Note_on_c, 3, 55, 80
5, 119040, Note_on_c, 3, 65, 71
5, 119100, Note_on_c, 3, 65, 0
5, 119100, Note_on_c, 3, 55, 0
5, 119100, Note_on_c, 3, 55, 0
5, 119100, Note_on_c, 3, 65, 69
5, 119160, Note_on_c, 3, 65, 0
5, 119160, Note_on_c, 3, 48, 85
5, 119160, Note_on_c, 3, 64, 76
5, 119220, Note_on_c, 3, 64, 0
5, 119220, Note_on_c, 3, 67, 81
5, 119280, Note_on_c, 3, 48, 0
5, 119400, Note_on_c, 3, 67, 0
5, 119400, Note_on_c, 3, 64, 67
5, 119430, Note_on_c, 3, 64, 0
5, 119460, Note_on_c, 3, 60, 69
5, 119490, Note_on_c, 3, 60, 0
5, 119520, Note_on_c, 3, 59, 89
5, 119550, Note_on_c, 3, 59, 0
5, 119580, Note_on_c, 3, 57, 93
5, 119610, Note_on_c, 3, 57, 0
5, 119640, Note_on_c, 3, 55, 86
5, 119670, Note_on_c, 3, 55, 0
5, 119700, Note_on_c, 3, 53, 84
5, 119730, Note_on_c, 3, 53, 0
5, 119760, Note_on_c, 3, 52, 89
5, 119790, Note_on_c, 3, 52, 0
5, 119820, Note_on_c, 3, 50, 82
5, 119850, Note_on_c, 3, 50, 0
5, 119880, Note_on_c, 3, 48, 59
5, 120000, Note_on_c, 3, 48, 0
5, 120600, Note_on_c, 3, 64, 76
5, 120660, Note_on_c, 3, 64, 0
5, 120660, Note_on_c, 3, 67, 81
5, 120840, Note_on_c, 3, 67, 0
5, 120840, Note_on_c, 3, 64, 67
5, 120870, Note_on_c, 3, 64, 0
5, 120900, Note_on_c, 3, 60, 69
5, 120930, Note_on_c, 3, 60, 0
5, 120960, Note_on_c, 3, 59, 89
5, 120990, Note_on_c, 3, 59, 0
5, 121020, Note_on_c, 3, 57, 93
5, 121050, Note_on_c, 3, 57, 0
5, 121080, Note_on_c, 3, 55, 86
5, 121110, Note_on_c, 3, 55, 0
5, 121140, Note_on_c, 3, 53, 84
5, 121170, Note_on_c, 3, 53, 0
5, 121200, Note_on_c, 3, 52, 89
5, 121230, Note_on_c, 3, 52, 0
5, 121260, Note_on_c, 3, 50, 82
5, 121290, Note_on_c, 3, 50, 0
5, 121320, Note_on_c, 3, 48, 59
5, 121440, Note_on_c, 3, 48, 0
5, 123840, Note_on_c, 3, 55, 53
5, 123840, Note_on_c, 3, 43, 66
5, 123960, Note_on_c, 3, 43, 0
5, 123960, Note_on_c, 3, 55, 0
5, 124200, Note_on_c, 3, 60, 99
5, 124260, Note_on_c, 3, 60, 0
5, 124260, Note_on_c, 3, 64, 99
5, 124320, Note_on_c, 3, 64, 0
5, 124320, Note_on_c, 3, 62, 95
5, 124380, Note_on_c, 3, 62, 0
5, 124380, Note_on_c, 3, 60, 94
5, 124440, Note_on_c, 3, 60, 0
5, 124440, Note_on_c, 3, 59, 101
5, 124500, Note_on_c, 3, 59, 0
5, 124500, Note_on_c, 3, 57, 104
5, 124560, Note_on_c, 3, 57, 0
5, 124560, Note_on_c, 3, 55, 98
5, 124620, Note_on_c, 3, 55, 0
5, 124620, Note_on_c, 3, 57, 107
5, 124680, Note_on_c, 3, 57, 0
5, 124680, Note_on_c, 3, 55, 95
5, 124740, Note_on_c, 3, 55, 0
5, 124740, Note_on_c, 3, 53, 93
5, 124800, Note_on_c, 3, 53, 0
5, 124800, Note_on_c, 3, 52, 99
5, 124860, Note_on_c, 3, 52, 0
5, 124860, Note_on_c, 3, 50, 99
5, 124920, Note_on_c, 3, 50, 0
5, 124920, Note_on_c, 3, 48, 101
5, 125040, Note_on_c, 3, 48, 0
5, 125100, Note_on_c, 3, 62, 95
5, 125220, Note_on_c, 3, 62, 0
5, 125280, Note_on_c, 3, 64, 95
5, 125400, Note_on_c, 3, 64, 0
5, 125460, Note_on_c, 3, 55, 95
5, 125580, Note_on_c, 3, 55, 0
5, 125640, Note_on_c, 3, 48, 99
5, 125760, Note_on_c, 3, 48, 0
5, 126000, Note_on_c, 3, 60, 93
5, 126120, Note_on_c, 3, 60, 0
5, 126360, Note_on_c, 3, 48, 105
5, 126480, Note_on_c, 3, 48, 0
5, 126480, End_track
6, 0, Start_track
6, 0, MIDI_port, 0
6, 0, Title_t, "French Horns"
6, 0, Program_c, 4, 60
6, 0, Control_c, 4, 7, 100
6, 0, Control_c, 4, 10, 54
6, 0, Control_c, 4, 93, 0
6, 0, Control_c, 4, 91, 66
6, 2160, Note_on_c, 4, 67, 69
6, 2160, Note_on_c, 4, 55, 70
6, 2940, Note_on_c, 4, 55, 0
6, 2940, Note_on_c, 4, 67, 0
6, 2940, Note_on_c, 4, 55, 72
6, 2940, Note_on_c, 4, 67, 62
6, 3000, Note_on_c, 4, 67, 0
6, 3000, Note_on_c, 4, 55, 0
6, 3000, Note_on_c, 4, 55, 81
6, 3000, Note_on_c, 4, 67, 70
6, 3060, Note_on_c, 4, 67, 0
6, 3060, Note_on_c, 4, 55, 0
6, 3060, Note_on_c, 4, 67, 69
6, 3060, Note_on_c, 4, 55, 72
6, 3120, Note_on_c, 4, 55, 0
6, 3120, Note_on_c, 4, 67, 0
6, 3120, Note_on_c, 4, 67, 68
6, 3120, Note_on_c, 4, 55, 70
6, 3660, Note_on_c, 4, 55, 0
6, 3660, Note_on_c, 4, 67, 0
6, 8160, Note_on_c, 4, 55, 58
6, 8160, Note_on_c, 4, 67, 65
6, 8700, Note_on_c, 4, 67, 0
6, 8700, Note_on_c, 4, 55, 0
6, 8700, Note_on_c, 4, 55, 52
6, 8700, Note_on_c, 4, 67, 44
6, 8760, Note_on_c, 4, 67, 0
6, 8760, Note_on_c, 4, 55, 0
6, 8760, Note_on_c, 4, 55, 57
6, 8760, Note_on_c, 4, 67, 59
6, 8820, Note_on_c, 4, 67, 0
6, 8820, Note_on_c, 4, 55, 0
6, 8820, Note_on_c, 4, 55, 65
6, 8820, Note_on_c, 4, 67, 58
6, 8880, Note_on_c, 4, 67, 0
6, 8880, Note_on_c, 4, 55, 0
6, 8880, Note_on_c, 4, 65, 72
6, 9000, Note_on_c, 4, 65, 0
6, 9060, Note_on_c, 4, 68, 72
6, 9060, Note_on_c, 4, 65, 59
6, 9120, Note_on_c, 4, 65, 0
6, 9120, Note_on_c, 4, 68, 0
6, 9120, Note_on_c, 4, 67, 72
6, 9180, Note_on_c, 4, 67, 0
6, 9240, Note_on_c, 4, 55, 72
6, 9240, Note_on_c, 4, 67, 65
6, 9300, Note_on_c, 4, 67, 0
6, 9300, Note_on_c, 4, 55, 0
6, 9360, Note_on_c, 4, 55, 70
6, 9360, Note_on_c, 4, 67, 60
6, 9480, Note_on_c, 4, 67, 0
6, 9480, Note_on_c, 4, 55, 0
6, 9600, Note_on_c, 4, 67, 98
6, 9720, Note_on_c, 4, 67, 0
6, 9720, Note_on_c, 4, 67, 99
6, 9750, Note_on_c, 4, 67, 0
6, 9780, Note_on_c, 4, 67, 95
6, 9810, Note_on_c, 4, 67, 0
6, 9840, Note_on_c, 4, 65, 101
6, 9960, Note_on_c, 4, 65, 0
6, 9960, Note_on_c, 4, 65, 90
6, 9960, Note_on_c, 4, 68, 94
6, 9990, Note_on_c, 4, 68, 0
6, 9990, Note_on_c, 4, 65, 0
6, 10020, Note_on_c, 4, 65, 90
6, 10020, Note_on_c, 4, 68, 99
6, 10050, Note_on_c, 4, 68, 0
6, 10050, Note_on_c, 4, 65, 0
6, 10080, Note_on_c, 4, 65, 94
6, 10080, Note_on_c, 4, 68, 98
6, 10140, Note_on_c, 4, 68, 0
6, 10140, Note_on_c, 4, 65, 0
6, 10140, Note_on_c, 4, 58, 93
6, 10140, Note_on_c, 4, 65, 98
6, 10200, Note_on_c, 4, 65, 0
6, 10200, Note_on_c, 4, 58, 0
6, 10200, Note_on_c, 4, 58, 98
6, 10200, Note_on_c, 4, 65, 95
6, 10260, Note_on_c, 4, 65, 0
6, 10260, Note_on_c, 4, 58, 0
6, 10260, Note_on_c, 4, 58, 93
6, 10260, Note_on_c, 4, 65, 98
6, 10320, Note_on_c, 4, 65, 0
6, 10320, Note_on_c, 4, 58, 0
6, 10320, Note_on_c, 4, 63, 90
6, 10320, Note_on_c, 4, 67, 89
6, 10380, Note_on_c, 4, 67, 0
6, 10380, Note_on_c, 4, 63, 0
6, 10380, Note_on_c, 4, 51, 99
6, 10380, Note_on_c, 4, 63, 85
6, 10440, Note_on_c, 4, 63, 0
6, 10440, Note_on_c, 4, 51, 0
6, 10440, Note_on_c, 4, 51, 98
6, 10440, Note_on_c, 4, 63, 90
6, 10500, Note_on_c, 4, 63, 0
6, 10500, Note_on_c, 4, 51, 0
6, 10500, Note_on_c, 4, 51, 99
6, 10500, Note_on_c, 4, 63, 84
6, 10560, Note_on_c, 4, 63, 0
6, 10560, Note_on_c, 4, 51, 0
6, 10800, Note_on_c, 4, 67, 101
6, 10800, Note_on_c, 4, 55, 110
6, 11040, Note_on_c, 4, 55, 0
6, 11040, Note_on_c, 4, 67, 0
6, 11280, Note_on_c, 4, 67, 107
6, 11280, Note_on_c, 4, 55, 112
6, 11520, Note_on_c, 4, 55, 0
6, 11520, Note_on_c, 4, 67, 0
6, 11760, Note_on_c, 4, 67, 89
6, 11760, Note_on_c, 4, 55, 94
6, 11820, Control_c, 4, 7, 99
6, 11825, Control_c, 4, 7, 97
6, 11830, Control_c, 4, 7, 95
6, 11835, Control_c, 4, 7, 92
6, 11840, Control_c, 4, 7, 90
6, 11845, Control_c, 4, 7, 88
6, 11850, Control_c, 4, 7, 85
6, 11855, Control_c, 4, 7, 83
6, 11860, Control_c, 4, 7, 81
6, 11865, Control_c, 4, 7, 78
6, 11870, Control_c, 4, 7, 76
6, 11875, Control_c, 4, 7, 74
6, 11880, Control_c, 4, 7, 71
6, 11885, Control_c, 4, 7, 69
6, 11890, Control_c, 4, 7, 66
6, 12540, Note_on_c, 4, 55, 0
6, 12540, Note_on_c, 4, 67, 0
6, 12540, Note_on_c, 4, 67, 90
6, 12540, Note_on_c, 4, 55, 94
6, 12600, Note_on_c, 4, 55, 0
6, 12600, Note_on_c, 4, 67, 0
6, 12660, Note_on_c, 4, 67, 84
6, 12660, Note_on_c, 4, 55, 94
6, 12720, Note_on_c, 4, 55, 0
6, 12720, Note_on_c, 4, 67, 0
6, 12720, Control_c, 4, 7, 66
6, 12720, Note_on_c, 4, 55, 89
6, 12720, Note_on_c, 4, 67, 84
6, 12730, Control_c, 4, 7, 67
6, 12735, Control_c, 4, 7, 68
6, 12745, Control_c, 4, 7, 69
6, 12750, Control_c, 4, 7, 70
6, 12760, Control_c, 4, 7, 71
6, 12765, Control_c, 4, 7, 72
6, 12775, Control_c, 4, 7, 73
6, 12780, Note_on_c, 4, 67, 0
6, 12780, Note_on_c, 4, 55, 0
6, 12780, Control_c, 4, 7, 74
6, 12780, Note_on_c, 4, 55, 90
6, 12780, Note_on_c, 4, 67, 85
6, 12790, Control_c, 4, 7, 75
6, 12795, Control_c, 4, 7, 76
6, 12800, Control_c, 4, 7, 77
6, 12810, Control_c, 4, 7, 78
6, 12815, Control_c, 4, 7, 79
6, 12825, Control_c, 4, 7, 80
6, 12830, Control_c, 4, 7, 81
6, 12840, Note_on_c, 4, 67, 0
6, 12840, Note_on_c, 4, 55, 0
6, 12840, Control_c, 4, 7, 82
6, 12840, Note_on_c, 4, 55, 94
6, 12840, Note_on_c, 4, 67, 89
6, 12845, Control_c, 4, 7, 83
6, 12855, Control_c, 4, 7, 84
6, 12860, Control_c, 4, 7, 85
6, 12870, Control_c, 4, 7, 86
6, 12875, Control_c, 4, 7, 87
6, 12880, Control_c, 4, 7, 88
6, 12890, Control_c, 4, 7, 89
6, 12895, Control_c, 4, 7, 90
6, 12900, Note_on_c, 4, 67, 0
6, 12900, Note_on_c, 4, 55, 0
6, 12900, Note_on_c, 4, 55, 94
6, 12900, Note_on_c, 4, 67, 90
6, 12905, Control_c, 4, 7, 91
6, 12910, Control_c, 4, 7, 92
6, 12920, Control_c, 4, 7, 93
6, 12925, Control_c, 4, 7, 94
6, 12935, Control_c, 4, 7, 95
6, 12940, Control_c, 4, 7, 96
6, 12950, Control_c, 4, 7, 97
6, 12955, Control_c, 4, 7, 98
6, 12960, Note_on_c, 4, 67, 0
6, 12960, Note_on_c, 4, 55, 0
6, 12960, Control_c, 4, 7, 99
6, 12960, Note_on_c, 4, 55, 101
6, 12960, Note_on_c, 4, 67, 94
6, 13020, Note_on_c, 4, 67, 0
6, 13020, Note_on_c, 4, 55, 0
6, 13020, Note_on_c, 4, 55, 104
6, 13020, Note_on_c, 4, 67, 99
6, 13080, Note_on_c, 4, 67, 0
6, 13080, Note_on_c, 4, 55, 0
6, 13080, Note_on_c, 4, 55, 99
6, 13080, Note_on_c, 4, 67, 99
6, 13110, Note_on_c, 4, 67, 0
6, 13110, Note_on_c, 4, 55, 0
6, 13140, Note_on_c, 4, 55, 101
6, 13140, Note_on_c, 4, 67, 99
6, 13170, Note_on_c, 4, 67, 0
6, 13170, Note_on_c, 4, 55, 0
6, 13200, Note_on_c, 4, 67, 105
6, 13200, Note_on_c, 4, 55, 107
6, 13440, Note_on_c, 4, 55, 0
6, 13440, Note_on_c, 4, 67, 0
6, 13440, Note_on_c, 4, 70, 95
6, 13440, Note_on_c, 4, 65, 98
6, 13470, Note_on_c, 4, 65, 0
6, 13470, Note_on_c, 4, 70, 0
6, 13500, Note_on_c, 4, 68, 94
6, 13500, Note_on_c, 4, 65, 89
6, 13530, Note_on_c, 4, 65, 0
6, 13530, Note_on_c, 4, 68, 0
6, 13560, Note_on_c, 4, 67, 99
6, 13590, Note_on_c, 4, 67, 0
6, 13620, Note_on_c, 4, 67, 101
6, 13650, Note_on_c, 4, 67, 0
6, 13680, Note_on_c, 4, 67, 94
6, 13680, Note_on_c, 4, 63, 98
6, 13800, Note_on_c, 4, 63, 0
6, 13800, Note_on_c, 4, 67, 0
6, 13920, Note_on_c, 4, 65, 99
6, 13950, Note_on_c, 4, 65, 0
6, 13980, Note_on_c, 4, 65, 104
6, 14010, Note_on_c, 4, 65, 0
6, 14040, Note_on_c, 4, 55, 101
6, 14040, Note_on_c, 4, 67, 98
6, 14070, Note_on_c, 4, 67, 0
6, 14070, Note_on_c, 4, 55, 0
6, 14100, Note_on_c, 4, 55, 104
6, 14100, Note_on_c, 4, 67, 99
6, 14130, Note_on_c, 4, 67, 0
6, 14130, Note_on_c, 4, 55, 0
6, 14160, Note_on_c, 4, 55, 99
6, 14160, Note_on_c, 4, 67, 98
6, 14220, Note_on_c, 4, 67, 0
6, 14220, Note_on_c, 4, 55, 0
6, 14400, Note_on_c, 4, 65, 105
6, 14430, Note_on_c, 4, 65, 0
6, 14460, Note_on_c, 4, 65, 105
6, 14490, Note_on_c, 4, 65, 0
6, 14520, Note_on_c, 4, 67, 99
6, 14520, Note_on_c, 4, 55, 99
6, 14550, Note_on_c, 4, 55, 0
6, 14550, Note_on_c, 4, 67, 0
6, 14580, Note_on_c, 4, 67, 99
6, 14580, Note_on_c, 4, 55, 104
6, 14610, Note_on_c, 4, 55, 0
6, 14610, Note_on_c, 4, 67, 0
6, 14640, Note_on_c, 4, 55, 99
6, 14640, Note_on_c, 4, 67, 99
6, 14700, Note_on_c, 4, 67, 0
6, 14700, Note_on_c, 4, 55, 0
6, 16080, Note_on_c, 4, 65, 86
6, 16080, Note_on_c, 4, 68, 94
6, 16200, Note_on_c, 4, 68, 0
6, 16200, Note_on_c, 4, 65, 0
6, 16200, Note_on_c, 4, 65, 98
6, 16200, Note_on_c, 4, 68, 98
6, 16290, Note_on_c, 4, 68, 0
6, 16290, Note_on_c, 4, 65, 0
6, 16290, Note_on_c, 4, 65, 89
6, 16290, Note_on_c, 4, 68, 98
6, 16320, Note_on_c, 4, 68, 0
6, 16320, Note_on_c, 4, 65, 0
6, 16320, Note_on_c, 4, 65, 95
6, 16320, Note_on_c, 4, 68, 99
6, 16440, Note_on_c, 4, 68, 0
6, 16440, Note_on_c, 4, 65, 0
6, 18000, Note_on_c, 4, 46, 64
6, 18000, Note_on_c, 4, 58, 53
6, 18960, Note_on_c, 4, 58, 0
6, 18960, Note_on_c, 4, 46, 0
6, 19920, Note_on_c, 4, 63, 42
6, 19920, Note_on_c, 4, 55, 49
6, 20160, Note_on_c, 4, 55, 0
6, 20160, Note_on_c, 4, 63, 0
6, 20160, Note_on_c, 4, 58, 47
6, 20160, Note_on_c, 4, 65, 45
6, 20400, Note_on_c, 4, 65, 0
6, 20400, Note_on_c, 4, 58, 0
6, 20400, Note_on_c, 4, 63, 44
6, 20400, Note_on_c, 4, 55, 58
6, 20460, Note_on_c, 4, 55, 0
6, 20460, Note_on_c, 4, 63, 0
6, 20460, Note_on_c, 4, 63, 43
6, 20460, Note_on_c, 4, 55, 58
6, 20520, Note_on_c, 4, 55, 0
6, 20520, Note_on_c, 4, 63, 0
6, 20520, Note_on_c, 4, 63, 52
6, 20520, Note_on_c, 4, 55, 62
6, 20580, Note_on_c, 4, 55, 0
6, 20580, Note_on_c, 4, 63, 0
6, 20580, Note_on_c, 4, 63, 44
6, 20580, Note_on_c, 4, 55, 66
6, 20640, Note_on_c, 4, 55, 0
6, 20640, Note_on_c, 4, 63, 0
6, 20640, Note_on_c, 4, 58, 90
6, 20640, Note_on_c, 4, 65, 94
6, 20880, Note_on_c, 4, 65, 0
6, 20880, Note_on_c, 4, 58, 0
6, 21300, Note_on_c, 4, 68, 95
6, 21300, Note_on_c, 4, 65, 94
6, 21360, Note_on_c, 4, 65, 0
6, 21360, Note_on_c, 4, 68, 0
6, 21360, Note_on_c, 4, 63, 82
6, 21360, Note_on_c, 4, 67, 74
6, 21420, Note_on_c, 4, 67, 0
6, 21420, Note_on_c, 4, 63, 0
6, 21420, Note_on_c, 4, 63, 82
6, 21420, Note_on_c, 4, 67, 80
6, 21480, Note_on_c, 4, 67, 0
6, 21480, Note_on_c, 4, 63, 0
6, 21480, Note_on_c, 4, 65, 72
6, 21480, Note_on_c, 4, 58, 86
6, 21540, Note_on_c, 4, 58, 0
6, 21540, Note_on_c, 4, 65, 0
6, 21540, Note_on_c, 4, 65, 77
6, 21540, Note_on_c, 4, 58, 94
6, 21600, Note_on_c, 4, 58, 0
6, 21600, Note_on_c, 4, 65, 0
6, 21600, Note_on_c, 4, 63, 78
6, 21600, Note_on_c, 4, 55, 94
6, 21660, Note_on_c, 4, 55, 0
6, 21660, Note_on_c, 4, 63, 0
6, 21900, Note_on_c, 4, 70, 73
6, 21900, Note_on_c, 4, 67, 70
6, 22020, Note_on_c, 4, 67, 0
6, 22020, Note_on_c, 4, 70, 0
6, 22020, Note_on_c, 4, 65, 76
6, 22020, Note_on_c, 4, 68, 81
6, 22080, Note_on_c, 4, 68, 0
6, 22080, Note_on_c, 4, 65, 0
6, 22080, Note_on_c, 4, 67, 78
6, 22080, Note_on_c, 4, 63, 84
6, 22110, Note_on_c, 4, 63, 0
6, 22110, Note_on_c, 4, 67, 0
6, 26640, Note_on_c, 4, 46, 73
6, 26640, Note_on_c, 4, 58, 52
6, 26880, Note_on_c, 4, 58, 0
6, 26880, Note_on_c, 4, 46, 0
6, 26880, Note_on_c, 4, 51, 71
6, 26880, Note_on_c, 4, 63, 52
6, 27180, Note_on_c, 4, 63, 0
6, 27180, Note_on_c, 4, 51, 0
6, 27180, Note_on_c, 4, 68, 62
6, 27180, Note_on_c, 4, 65, 81
6, 27240, Note_on_c, 4, 65, 0
6, 27240, Note_on_c, 4, 68, 0
6, 27240, Note_on_c, 4, 67, 44
6, 27240, Note_on_c, 4, 63, 78
6, 27300, Note_on_c, 4, 63, 0
6, 27300, Note_on_c, 4, 67, 0
6, 27300, Note_on_c, 4, 65, 71
6, 27300, Note_on_c, 4, 58, 58
6, 27360, Note_on_c, 4, 58, 0
6, 27360, Note_on_c, 4, 65, 0
6, 27360, Note_on_c, 4, 63, 56
6, 27360, Note_on_c, 4, 55, 80
6, 27480, Note_on_c, 4, 55, 0
6, 27480, Note_on_c, 4, 63, 0
6, 28620, Note_on_c, 4, 67, 89
6, 28620, Note_on_c, 4, 55, 93
6, 28740, Note_on_c, 4, 55, 0
6, 28740, Note_on_c, 4, 67, 0
6, 28740, Note_on_c, 4, 55, 95
6, 28740, Note_on_c, 4, 67, 90
6, 28800, Note_on_c, 4, 67, 0
6, 28800, Note_on_c, 4, 55, 0
6, 28800, Note_on_c, 4, 67, 95
6, 28800, Note_on_c, 4, 55, 98
6, 28860, Note_on_c, 4, 55, 0
6, 28860, Note_on_c, 4, 67, 0
6, 29100, Note_on_c, 4, 67, 86
6, 29100, Note_on_c, 4, 55, 93
6, 29220, Note_on_c, 4, 55, 0
6, 29220, Note_on_c, 4, 67, 0
6, 29220, Note_on_c, 4, 55, 98
6, 29220, Note_on_c, 4, 67, 93
6, 29280, Note_on_c, 4, 67, 0
6, 29280, Note_on_c, 4, 55, 0
6, 29280, Note_on_c, 4, 55, 95
6, 29280, Note_on_c, 4, 67, 94
6, 29340, Note_on_c, 4, 67, 0
6, 29340, Note_on_c, 4, 55, 0
6, 34080, Note_on_c, 4, 67, 69
6, 34080, Note_on_c, 4, 55, 70
6, 34860, Note_on_c, 4, 55, 0
6, 34860, Note_on_c, 4, 67, 0
6, 34860, Note_on_c, 4, 55, 72
6, 34860, Note_on_c, 4, 67, 62
6, 34920, Note_on_c, 4, 67, 0
6, 34920, Note_on_c, 4, 55, 0
6, 34920, Note_on_c, 4, 55, 81
6, 34920, Note_on_c, 4, 67, 70
6, 34980, Note_on_c, 4, 67, 0
6, 34980, Note_on_c, 4, 55, 0
6, 34980, Note_on_c, 4, 67, 69
6, 34980, Note_on_c, 4, 55, 72
6, 35040, Note_on_c, 4, 55, 0
6, 35040, Note_on_c, 4, 67, 0
6, 35040, Note_on_c, 4, 67, 68
6, 35040, Note_on_c, 4, 55, 70
6, 35580, Note_on_c, 4, 55, 0
6, 35580, Note_on_c, 4, 67, 0
6, 41280, Note_on_c, 4, 67, 45
6, 41280, Note_on_c, 4, 55, 52
6, 41820, Note_on_c, 4, 55, 0
6, 41820, Note_on_c, 4, 67, 0
6, 41820, Note_on_c, 4, 55, 57
6, 41820, Note_on_c, 4, 67, 46
6, 41880, Note_on_c, 4, 67, 0
6, 41880, Note_on_c, 4, 55, 0
6, 41880, Note_on_c, 4, 67, 48
6, 41880, Note_on_c, 4, 55, 50
6, 41940, Note_on_c, 4, 55, 0
6, 41940, Note_on_c, 4, 67, 0
6, 41940, Note_on_c, 4, 67, 57
6, 41940, Note_on_c, 4, 55, 58
6, 42000, Note_on_c, 4, 55, 0
6, 42000, Note_on_c, 4, 67, 0
6, 42000, Note_on_c, 4, 65, 67
6, 42120, Note_on_c, 4, 65, 0
6, 42180, Note_on_c, 4, 65, 43
6, 42180, Note_on_c, 4, 68, 46
6, 42240, Note_on_c, 4, 68, 0
6, 42240, Note_on_c, 4, 65, 0
6, 42240, Note_on_c, 4, 67, 76
6, 42300, Note_on_c, 4, 67, 0
6, 42360, Note_on_c, 4, 67, 62
6, 42360, Note_on_c, 4, 55, 65
6, 42420, Note_on_c, 4, 55, 0
6, 42420, Note_on_c, 4, 67, 0
6, 42480, Note_on_c, 4, 67, 57
6, 42480, Note_on_c, 4, 55, 65
6, 42600, Note_on_c, 4, 55, 0
6, 42600, Note_on_c, 4, 67, 0
6, 42720, Note_on_c, 4, 67, 98
6, 42840, Note_on_c, 4, 67, 0
6, 42840, Note_on_c, 4, 67, 99
6, 42870, Note_on_c, 4, 67, 0
6, 42900, Note_on_c, 4, 67, 95
6, 42930, Note_on_c, 4, 67, 0
6, 42960, Note_on_c, 4, 65, 101
6, 43080, Note_on_c, 4, 65, 0
6, 43080, Note_on_c, 4, 65, 90
6, 43080, Note_on_c, 4, 68, 94
6, 43110, Note_on_c, 4, 68, 0
6, 43110, Note_on_c, 4, 65, 0
6, 43140, Note_on_c, 4, 65, 90
6, 43140, Note_on_c, 4, 68, 99
6, 43170, Note_on_c, 4, 68, 0
6, 43170, Note_on_c, 4, 65, 0
6, 43200, Note_on_c, 4, 65, 94
6, 43200, Note_on_c, 4, 68, 98
6, 43260, Note_on_c, 4, 68, 0
6, 43260, Note_on_c, 4, 65, 0
6, 43260, Note_on_c, 4, 58, 93
6, 43260, Note_on_c, 4, 65, 98
6, 43320, Note_on_c, 4, 65, 0
6, 43320, Note_on_c, 4, 58, 0
6, 43320, Note_on_c, 4, 58, 98
6, 43320, Note_on_c, 4, 65, 95
6, 43380, Note_on_c, 4, 65, 0
6, 43380, Note_on_c, 4, 58, 0
6, 43380, Note_on_c, 4, 58, 93
6, 43380, Note_on_c, 4, 65, 98
6, 43440, Note_on_c, 4, 65, 0
6, 43440, Note_on_c, 4, 58, 0
6, 43440, Note_on_c, 4, 63, 90
6, 43440, Note_on_c, 4, 67, 89
6, 43500, Note_on_c, 4, 67, 0
6, 43500, Note_on_c, 4, 63, 0
6, 43500, Note_on_c, 4, 51, 99
6, 43500, Note_on_c, 4, 63, 85
6, 43560, Note_on_c, 4, 63, 0
6, 43560, Note_on_c, 4, 51, 0
6, 43560, Note_on_c, 4, 51, 98
6, 43560, Note_on_c, 4, 63, 90
6, 43620, Note_on_c, 4, 63, 0
6, 43620, Note_on_c, 4, 51, 0
6, 43620, Note_on_c, 4, 51, 99
6, 43620, Note_on_c, 4, 63, 84
6, 43680, Note_on_c, 4, 63, 0
6, 43680, Note_on_c, 4, 51, 0
6, 43920, Note_on_c, 4, 67, 101
6, 43920, Note_on_c, 4, 55, 110
6, 44160, Note_on_c, 4, 55, 0
6, 44160, Note_on_c, 4, 67, 0
6, 44400, Note_on_c, 4, 67, 107
6, 44400, Note_on_c, 4, 55, 112
6, 44640, Note_on_c, 4, 55, 0
6, 44640, Note_on_c, 4, 67, 0
6, 44880, Note_on_c, 4, 67, 89
6, 44880, Note_on_c, 4, 55, 94
6, 44940, Control_c, 4, 7, 99
6, 44945, Control_c, 4, 7, 97
6, 44950, Control_c, 4, 7, 95
6, 44955, Control_c, 4, 7, 92
6, 44960, Control_c, 4, 7, 90
6, 44965, Control_c, 4, 7, 88
6, 44970, Control_c, 4, 7, 85
6, 44975, Control_c, 4, 7, 83
6, 44980, Control_c, 4, 7, 81
6, 44985, Control_c, 4, 7, 78
6, 44990, Control_c, 4, 7, 76
6, 44995, Control_c, 4, 7, 74
6, 45000, Control_c, 4, 7, 71
6, 45005, Control_c, 4, 7, 69
6, 45010, Control_c, 4, 7, 66
6, 45660, Note_on_c, 4, 55, 0
6, 45660, Note_on_c, 4, 67, 0
6, 45660, Note_on_c, 4, 67, 90
6, 45660, Note_on_c, 4, 55, 94
6, 45720, Note_on_c, 4, 55, 0
6, 45720, Note_on_c, 4, 67, 0
6, 45780, Note_on_c, 4, 67, 84
6, 45780, Note_on_c, 4, 55, 94
6, 45840, Note_on_c, 4, 55, 0
6, 45840, Note_on_c, 4, 67, 0
6, 45840, Control_c, 4, 7, 66
6, 45840, Note_on_c, 4, 55, 89
6, 45840, Note_on_c, 4, 67, 84
6, 45850, Control_c, 4, 7, 67
6, 45855, Control_c, 4, 7, 68
6, 45865, Control_c, 4, 7, 69
6, 45870, Control_c, 4, 7, 70
6, 45880, Control_c, 4, 7, 71
6, 45885, Control_c, 4, 7, 72
6, 45895, Control_c, 4, 7, 73
6, 45900, Note_on_c, 4, 67, 0
6, 45900, Note_on_c, 4, 55, 0
6, 45900, Control_c, 4, 7, 74
6, 45900, Note_on_c, 4, 55, 90
6, 45900, Note_on_c, 4, 67, 85
6, 45910, Control_c, 4, 7, 75
6, 45915, Control_c, 4, 7, 76
6, 45920, Control_c, 4, 7, 77
6, 45930, Control_c, 4, 7, 78
6, 45935, Control_c, 4, 7, 79
6, 45945, Control_c, 4, 7, 80
6, 45950, Control_c, 4, 7, 81
6, 45960, Note_on_c, 4, 67, 0
6, 45960, Note_on_c, 4, 55, 0
6, 45960, Control_c, 4, 7, 82
6, 45960, Note_on_c, 4, 55, 94
6, 45960, Note_on_c, 4, 67, 89
6, 45965, Control_c, 4, 7, 83
6, 45975, Control_c, 4, 7, 84
6, 45980, Control_c, 4, 7, 85
6, 45990, Control_c, 4, 7, 86
6, 45995, Control_c, 4, 7, 87
6, 46000, Control_c, 4, 7, 88
6, 46010, Control_c, 4, 7, 89
6, 46015, Control_c, 4, 7, 90
6, 46020, Note_on_c, 4, 67, 0
6, 46020, Note_on_c, 4, 55, 0
6, 46020, Note_on_c, 4, 55, 94
6, 46020, Note_on_c, 4, 67, 90
6, 46025, Control_c, 4, 7, 91
6, 46030, Control_c, 4, 7, 92
6, 46040, Control_c, 4, 7, 93
6, 46045, Control_c, 4, 7, 94
6, 46055, Control_c, 4, 7, 95
6, 46060, Control_c, 4, 7, 96
6, 46070, Control_c, 4, 7, 97
6, 46075, Control_c, 4, 7, 98
6, 46080, Note_on_c, 4, 67, 0
6, 46080, Note_on_c, 4, 55, 0
6, 46080, Control_c, 4, 7, 99
6, 46080, Note_on_c, 4, 55, 101
6, 46080, Note_on_c, 4, 67, 94
6, 46140, Note_on_c, 4, 67, 0
6, 46140, Note_on_c, 4, 55, 0
6, 46140, Note_on_c, 4, 55, 104
6, 46140, Note_on_c, 4, 67, 99
6, 46200, Note_on_c, 4, 67, 0
6, 46200, Note_on_c, 4, 55, 0
6, 46200, Note_on_c, 4, 55, 99
6, 46200, Note_on_c, 4, 67, 99
6, 46230, Note_on_c, 4, 67, 0
6, 46230, Note_on_c, 4, 55, 0
6, 46260, Note_on_c, 4, 55, 101
6, 46260, Note_on_c, 4, 67, 99
6, 46290, Note_on_c, 4, 67, 0
6, 46290, Note_on_c, 4, 55, 0
6, 46320, Note_on_c, 4, 67, 105
6, 46320, Note_on_c, 4, 55, 107
6, 46560, Note_on_c, 4, 55, 0
6, 46560, Note_on_c, 4, 67, 0
6, 46560, Note_on_c, 4, 70, 95
6, 46560, Note_on_c, 4, 65, 98
6, 46590, Note_on_c, 4, 65, 0
6, 46590, Note_on_c, 4, 70, 0
6, 46620, Note_on_c, 4, 68, 94
6, 46620, Note_on_c, 4, 65, 89
6, 46650, Note_on_c, 4, 65, 0
6, 46650, Note_on_c, 4, 68, 0
6, 46680, Note_on_c, 4, 67, 99
6, 46710, Note_on_c, 4, 67, 0
6, 46740, Note_on_c, 4, 67, 101
6, 46770, Note_on_c, 4, 67, 0
6, 46800, Note_on_c, 4, 67, 94
6, 46800, Note_on_c, 4, 63, 98
6, 46920, Note_on_c, 4, 63, 0
6, 46920, Note_on_c, 4, 67, 0
6, 47040, Note_on_c, 4, 65, 99
6, 47070, Note_on_c, 4, 65, 0
6, 47100, Note_on_c, 4, 65, 104
6, 47130, Note_on_c, 4, 65, 0
6, 47160, Note_on_c, 4, 55, 101
6, 47160, Note_on_c, 4, 67, 98
6, 47190, Note_on_c, 4, 67, 0
6, 47190, Note_on_c, 4, 55, 0
6, 47220, Note_on_c, 4, 55, 104
6, 47220, Note_on_c, 4, 67, 99
6, 47250, Note_on_c, 4, 67, 0
6, 47250, Note_on_c, 4, 55, 0
6, 47280, Note_on_c, 4, 55, 99
6, 47280, Note_on_c, 4, 67, 98
6, 47340, Note_on_c, 4, 67, 0
6, 47340, Note_on_c, 4, 55, 0
6, 47520, Note_on_c, 4, 65, 105
6, 47550, Note_on_c, 4, 65, 0
6, 47580, Note_on_c, 4, 65, 105
6, 47610, Note_on_c, 4, 65, 0
6, 47640, Note_on_c, 4, 67, 99
6, 47640, Note_on_c, 4, 55, 99
6, 47670, Note_on_c, 4, 55, 0
6, 47670, Note_on_c, 4, 67, 0
6, 47700, Note_on_c, 4, 67, 99
6, 47700, Note_on_c, 4, 55, 104
6, 47730, Note_on_c, 4, 55, 0
6, 47730, Note_on_c, 4, 67, 0
6, 47760, Note_on_c, 4, 55, 99
6, 47760, Note_on_c, 4, 67, 99
6, 47820, Note_on_c, 4, 67, 0
6, 47820, Note_on_c, 4, 55, 0
6, 48240, Note_on_c, 4, 63, 58
6, 48240, Note_on_c, 4, 51, 46
6, 49200, Note_on_c, 4, 51, 0
6, 49200, Note_on_c, 4, 63, 0
6, 49200, Note_on_c, 4, 65, 72
6, 49440, Note_on_c, 4, 65, 0
6, 49440, Note_on_c, 4, 58, 65
6, 49440, Note_on_c, 4, 65, 61
6, 49680, Note_on_c, 4, 65, 0
6, 49680, Note_on_c, 4, 58, 0
6, 49680, Note_on_c, 4, 63, 64
6, 49800, Note_on_c, 4, 63, 0
6, 49800, Note_on_c, 4, 51, 65
6, 49800, Note_on_c, 4, 63, 60
6, 49920, Note_on_c, 4, 63, 0
6, 49920, Note_on_c, 4, 51, 0
6, 49920, Note_on_c, 4, 51, 70
6, 49920, Note_on_c, 4, 63, 53
6, 50040, Note_on_c, 4, 63, 0
6, 50040, Note_on_c, 4, 51, 0
6, 56880, Note_on_c, 4, 46, 66
6, 56880, Note_on_c, 4, 58, 57
6, 57360, Note_on_c, 4, 58, 0
6, 57360, Note_on_c, 4, 46, 0
6, 57360, Note_on_c, 4, 51, 63
6, 57360, Note_on_c, 4, 63, 54
6, 57720, Note_on_c, 4, 63, 0
6, 57720, Note_on_c, 4, 51, 0
6, 57720, Note_on_c, 4, 51, 99
6, 57720, Note_on_c, 4, 63, 94
6, 57800, Control_c, 4, 7, 99
6, 57810, Control_c, 4, 7, 96
6, 57820, Control_c, 4, 7, 93
6, 57830, Control_c, 4, 7, 90
6, 57840, Control_c, 4, 7, 87
6, 57850, Control_c, 4, 7, 84
6, 57860, Control_c, 4, 7, 80
6, 57870, Control_c, 4, 7, 77
6, 57880, Control_c, 4, 7, 74
6, 57890, Control_c, 4, 7, 71
6, 57900, Control_c, 4, 7, 68
6, 57910, Control_c, 4, 7, 65
6, 57920, Control_c, 4, 7, 61
6, 58800, Note_on_c, 4, 63, 0
6, 58800, Note_on_c, 4, 51, 0
6, 58920, Control_c, 4, 7, 100
6, 59280, Note_on_c, 4, 63, 69
6, 59400, Note_on_c, 4, 63, 0
6, 59400, Note_on_c, 4, 63, 62
6, 59400, Note_on_c, 4, 51, 68
6, 59520, Note_on_c, 4, 51, 0
6, 59520, Note_on_c, 4, 63, 0
6, 59520, Note_on_c, 4, 51, 68
6, 59520, Note_on_c, 4, 63, 57
6, 59580, Note_on_c, 4, 63, 0
6, 59580, Note_on_c, 4, 51, 0
6, 64320, Note_on_c, 4, 67, 94
6, 64320, Note_on_c, 4, 55, 99
6, 64560, Note_on_c, 4, 55, 0
6, 64560, Note_on_c, 4, 67, 0
6, 64560, Note_on_c, 4, 67, 89
6, 64560, Note_on_c, 4, 55, 104
6, 64800, Note_on_c, 4, 55, 0
6, 64800, Note_on_c, 4, 67, 0
6, 64800, Note_on_c, 4, 67, 95
6, 64800, Note_on_c, 4, 55, 105
6, 65040, Note_on_c, 4, 55, 0
6, 65040, Note_on_c, 4, 67, 0
6, 65040, Note_on_c, 4, 55, 95
6, 65040, Note_on_c, 4, 67, 94
6, 65280, Note_on_c, 4, 67, 0
6, 65280, Note_on_c, 4, 55, 0
6, 65280, Note_on_c, 4, 55, 98
6, 65280, Note_on_c, 4, 67, 89
6, 65400, Note_on_c, 4, 67, 0
6, 65400, Note_on_c, 4, 55, 0
6, 74160, Note_on_c, 4, 55, 41
6, 74160, Note_on_c, 4, 67, 41
6, 75180, Note_on_c, 4, 67, 0
6, 75180, Note_on_c, 4, 55, 0
6, 75240, Note_on_c, 4, 55, 44
6, 75240, Note_on_c, 4, 67, 44
6, 75300, Note_on_c, 4, 67, 0
6, 75300, Note_on_c, 4, 55, 0
6, 75360, Note_on_c, 4, 55, 43
6, 75360, Note_on_c, 4, 67, 44
6, 75420, Note_on_c, 4, 67, 0
6, 75420, Note_on_c, 4, 55, 0
6, 75480, Note_on_c, 4, 55, 61
6, 75480, Note_on_c, 4, 67, 44
6, 75540, Note_on_c, 4, 67, 0
6, 75540, Note_on_c, 4, 55, 0
6, 75600, Note_on_c, 4, 55, 45
6, 75600, Note_on_c, 4, 67, 53
6, 75660, Note_on_c, 4, 67, 0
6, 75660, Note_on_c, 4, 55, 0
6, 78000, Note_on_c, 4, 67, 89
6, 78000, Note_on_c, 4, 74, 86
6, 78240, Note_on_c, 4, 74, 0
6, 78240, Note_on_c, 4, 67, 0
6, 78240, Note_on_c, 4, 60, 89
6, 78240, Note_on_c, 4, 72, 66
6, 78480, Note_on_c, 4, 72, 0
6, 78480, Note_on_c, 4, 60, 0
6, 78480, Note_on_c, 4, 67, 95
6, 78480, Note_on_c, 4, 74, 94
6, 78510, Note_on_c, 4, 74, 0
6, 78510, Note_on_c, 4, 67, 0
6, 78540, Note_on_c, 4, 67, 85
6, 78540, Note_on_c, 4, 79, 80
6, 78570, Note_on_c, 4, 79, 0
6, 78570, Note_on_c, 4, 67, 0
6, 78600, Note_on_c, 4, 67, 81
6, 78600, Note_on_c, 4, 79, 73
6, 78630, Note_on_c, 4, 79, 0
6, 78630, Note_on_c, 4, 67, 0
6, 78660, Note_on_c, 4, 67, 80
6, 78660, Note_on_c, 4, 79, 73
6, 78690, Note_on_c, 4, 79, 0
6, 78690, Note_on_c, 4, 67, 0
6, 78720, Note_on_c, 4, 67, 85
6, 78720, Note_on_c, 4, 79, 81
6, 78840, Note_on_c, 4, 79, 0
6, 78840, Note_on_c, 4, 67, 0
6, 78960, Note_on_c, 4, 67, 81
6, 78960, Note_on_c, 4, 79, 82
6, 79020, Note_on_c, 4, 79, 0
6, 79020, Note_on_c, 4, 67, 0
6, 79020, Note_on_c, 4, 67, 94
6, 79020, Note_on_c, 4, 79, 94
6, 79080, Note_on_c, 4, 79, 0
6, 79080, Note_on_c, 4, 67, 0
6, 79080, Note_on_c, 4, 67, 82
6, 79080, Note_on_c, 4, 79, 84
6, 79140, Note_on_c, 4, 79, 0
6, 79140, Note_on_c, 4, 67, 0
6, 79140, Note_on_c, 4, 79, 86
6, 79140, Note_on_c, 4, 67, 93
6, 79200, Note_on_c, 4, 67, 0
6, 79200, Note_on_c, 4, 79, 0
6, 79200, Note_on_c, 4, 60, 85
6, 79200, Note_on_c, 4, 72, 72
6, 79440, Note_on_c, 4, 72, 0
6, 79440, Note_on_c, 4, 60, 0
6, 79440, Note_on_c, 4, 72, 74
6, 79440, Note_on_c, 4, 74, 104
6, 79470, Note_on_c, 4, 74, 0
6, 79470, Note_on_c, 4, 72, 0
6, 79500, Note_on_c, 4, 74, 101
6, 79500, Note_on_c, 4, 72, 101
6, 79530, Note_on_c, 4, 72, 0
6, 79530, Note_on_c, 4, 74, 0
6, 79560, Note_on_c, 4, 74, 95
6, 79560, Note_on_c, 4, 67, 98
6, 79590, Note_on_c, 4, 67, 0
6, 79590, Note_on_c, 4, 74, 0
6, 79620, Note_on_c, 4, 67, 98
6, 79620, Note_on_c, 4, 74, 94
6, 79650, Note_on_c, 4, 74, 0
6, 79650, Note_on_c, 4, 67, 0
6, 79680, Note_on_c, 4, 60, 110
6, 79680, Note_on_c, 4, 72, 93
6, 79860, Note_on_c, 4, 72, 0
6, 79860, Note_on_c, 4, 60, 0
6, 79860, Note_on_c, 4, 60, 94
6, 79860, Note_on_c, 4, 72, 72
6, 79920, Note_on_c, 4, 72, 0
6, 79920, Note_on_c, 4, 60, 0
6, 79920, Note_on_c, 4, 74, 99
6, 79920, Note_on_c, 4, 72, 94
6, 79950, Note_on_c, 4, 72, 0
6, 79950, Note_on_c, 4, 74, 0
6, 79980, Note_on_c, 4, 72, 78
6, 79980, Note_on_c, 4, 74, 101
6, 80010, Note_on_c, 4, 74, 0
6, 80010, Note_on_c, 4, 72, 0
6, 80040, Note_on_c, 4, 67, 95
6, 80040, Note_on_c, 4, 74, 98
6, 80070, Note_on_c, 4, 74, 0
6, 80070, Note_on_c, 4, 67, 0
6, 80100, Note_on_c, 4, 67, 95
6, 80100, Note_on_c, 4, 74, 98
6, 80130, Note_on_c, 4, 74, 0
6, 80130, Note_on_c, 4, 67, 0
6, 80160, Note_on_c, 4, 60, 107
6, 80160, Note_on_c, 4, 72, 93
6, 80340, Note_on_c, 4, 72, 0
6, 80340, Note_on_c, 4, 60, 0
6, 80340, Note_on_c, 4, 60, 95
6, 80340, Note_on_c, 4, 72, 74
6, 80400, Note_on_c, 4, 72, 0
6, 80400, Note_on_c, 4, 60, 0
6, 80400, Note_on_c, 4, 74, 94
6, 80400, Note_on_c, 4, 72, 93
6, 80430, Note_on_c, 4, 72, 0
6, 80430, Note_on_c, 4, 74, 0
6, 80460, Note_on_c, 4, 72, 70
6, 80460, Note_on_c, 4, 74, 98
6, 80490, Note_on_c, 4, 74, 0
6, 80490, Note_on_c, 4, 72, 0
6, 80520, Note_on_c, 4, 74, 94
6, 80520, Note_on_c, 4, 67, 94
6, 80550, Note_on_c, 4, 67, 0
6, 80550, Note_on_c, 4, 74, 0
6, 80580, Note_on_c, 4, 67, 98
6, 80580, Note_on_c, 4, 74, 93
6, 80610, Note_on_c, 4, 74, 0
6, 80610, Note_on_c, 4, 67, 0
6, 80640, Note_on_c, 4, 60, 89
6, 80640, Note_on_c, 4, 72, 72
6, 80700, Note_on_c, 4, 72, 0
6, 80700, Note_on_c, 4, 60, 0
6, 80760, Note_on_c, 4, 79, 86
6, 80760, Note_on_c, 4, 67, 98
6, 80820, Note_on_c, 4, 67, 0
6, 80820, Note_on_c, 4, 79, 0
6, 80880, Note_on_c, 4, 60, 89
6, 80880, Note_on_c, 4, 72, 72
6, 80940, Note_on_c, 4, 72, 0
6, 80940, Note_on_c, 4, 60, 0
6, 82080, Note_on_c, 4, 60, 85
6, 82080, Note_on_c, 4, 77, 84
6, 82200, Note_on_c, 4, 77, 0
6, 82200, Note_on_c, 4, 60, 0
6, 82200, Note_on_c, 4, 60, 89
6, 82200, Note_on_c, 4, 77, 89
6, 82290, Note_on_c, 4, 77, 0
6, 82290, Note_on_c, 4, 60, 0
6, 82290, Note_on_c, 4, 60, 86
6, 82290, Note_on_c, 4, 77, 89
6, 82320, Note_on_c, 4, 77, 0
6, 82320, Note_on_c, 4, 60, 0
6, 82320, Note_on_c, 4, 60, 85
6, 82320, Note_on_c, 4, 77, 84
6, 82440, Note_on_c, 4, 77, 0
6, 82440, Note_on_c, 4, 60, 0
6, 84000, Note_on_c, 4, 67, 68
6, 84000, Note_on_c, 4, 79, 60
6, 84480, Note_on_c, 4, 79, 0
6, 84480, Note_on_c, 4, 67, 0
6, 85920, Note_on_c, 4, 72, 73
6, 85920, Note_on_c, 4, 64, 76
6, 86160, Note_on_c, 4, 64, 0
6, 86160, Note_on_c, 4, 72, 0
6, 86160, Note_on_c, 4, 67, 58
6, 86160, Note_on_c, 4, 74, 53
6, 86400, Note_on_c, 4, 74, 0
6, 86400, Note_on_c, 4, 67, 0
6, 86400, Note_on_c, 4, 64, 76
6, 86400, Note_on_c, 4, 72, 71
6, 86460, Note_on_c, 4, 72, 0
6, 86460, Note_on_c, 4, 64, 0
6, 86460, Note_on_c, 4, 64, 80
6, 86460, Note_on_c, 4, 72, 36
6, 86520, Note_on_c, 4, 72, 0
6, 86520, Note_on_c, 4, 64, 0
6, 86520, Note_on_c, 4, 64, 84
6, 86520, Note_on_c, 4, 72, 58
6, 86580, Note_on_c, 4, 72, 0
6, 86580, Note_on_c, 4, 64, 0
6, 86580, Note_on_c, 4, 64, 86
6, 86580, Note_on_c, 4, 72, 62
6, 86640, Note_on_c, 4, 72, 0
6, 86640, Note_on_c, 4, 64, 0
6, 86640, Note_on_c, 4, 74, 104
6, 86880, Note_on_c, 4, 74, 0
6, 87120, Note_on_c, 4, 74, 86
6, 87120, Note_on_c, 4, 77, 70
6, 87300, Note_on_c, 4, 77, 0
6, 87300, Note_on_c, 4, 74, 0
6, 87300, Note_on_c, 4, 74, 86
6, 87300, Note_on_c, 4, 77, 62
6, 87360, Note_on_c, 4, 77, 0
6, 87360, Note_on_c, 4, 74, 0
6, 87360, Note_on_c, 4, 72, 65
6, 87420, Note_on_c, 4, 72, 0
6, 87420, Note_on_c, 4, 72, 80
6, 87480, Note_on_c, 4, 72, 0
6, 87480, Note_on_c, 4, 67, 84
6, 87480, Note_on_c, 4, 74, 80
6, 87540, Note_on_c, 4, 74, 0
6, 87540, Note_on_c, 4, 67, 0
6, 87540, Note_on_c, 4, 74, 80
6, 87540, Note_on_c, 4, 67, 85
6, 87600, Note_on_c, 4, 67, 0
6, 87600, Note_on_c, 4, 74, 0
6, 87600, Note_on_c, 4, 64, 84
6, 87600, Note_on_c, 4, 72, 47
6, 87660, Note_on_c, 4, 72, 0
6, 87660, Note_on_c, 4, 64, 0
6, 87660, Note_on_c, 4, 79, 45
6, 87660, Note_on_c, 4, 76, 68
6, 87780, Note_on_c, 4, 76, 0
6, 87780, Note_on_c, 4, 79, 0
6, 87780, Note_on_c, 4, 77, 52
6, 87780, Note_on_c, 4, 74, 64
6, 87840, Note_on_c, 4, 74, 0
6, 87840, Note_on_c, 4, 77, 0
6, 87840, Note_on_c, 4, 72, 67
6, 87840, Note_on_c, 4, 76, 71
6, 87870, Note_on_c, 4, 76, 0
6, 87870, Note_on_c, 4, 72, 0
6, 88140, Note_on_c, 4, 76, 71
6, 88140, Note_on_c, 4, 79, 68
6, 88260, Note_on_c, 4, 79, 0
6, 88260, Note_on_c, 4, 76, 0
6, 88260, Note_on_c, 4, 74, 76
6, 88260, Note_on_c, 4, 77, 73
6, 88320, Note_on_c, 4, 77, 0
6, 88320, Note_on_c, 4, 74, 0
6, 88320, Note_on_c, 4, 76, 74
6, 88320, Note_on_c, 4, 72, 69
6, 88350, Note_on_c, 4, 72, 0
6, 88350, Note_on_c, 4, 76, 0
6, 88380, Note_on_c, 4, 77, 64
6, 88380, Note_on_c, 4, 74, 80
6, 88410, Note_on_c, 4, 74, 0
6, 88410, Note_on_c, 4, 77, 0
6, 88440, Note_on_c, 4, 76, 78
6, 88440, Note_on_c, 4, 72, 74
6, 88470, Note_on_c, 4, 72, 0
6, 88470, Note_on_c, 4, 76, 0
6, 88500, Note_on_c, 4, 74, 73
6, 88500, Note_on_c, 4, 67, 85
6, 88530, Note_on_c, 4, 67, 0
6, 88530, Note_on_c, 4, 74, 0
6, 88560, Note_on_c, 4, 64, 93
6, 88560, Note_on_c, 4, 72, 85
6, 88590, Note_on_c, 4, 72, 0
6, 88590, Note_on_c, 4, 64, 0
6, 97200, Note_on_c, 4, 60, 64
6, 97200, Note_on_c, 4, 72, 68
6, 97440, Note_on_c, 4, 72, 0
6, 97440, Note_on_c, 4, 60, 0
6, 97440, Note_on_c, 4, 67, 68
6, 97440, Note_on_c, 4, 74, 64
6, 97500, Note_on_c, 4, 74, 0
6, 97500, Note_on_c, 4, 67, 0
6, 97500, Note_on_c, 4, 55, 53
6, 97500, Note_on_c, 4, 67, 50
6, 97560, Note_on_c, 4, 67, 0
6, 97560, Note_on_c, 4, 55, 0
6, 97560, Note_on_c, 4, 55, 73
6, 97560, Note_on_c, 4, 67, 61
6, 97620, Note_on_c, 4, 67, 0
6, 97620, Note_on_c, 4, 55, 0
6, 97620, Note_on_c, 4, 55, 65
6, 97620, Note_on_c, 4, 67, 56
6, 97680, Note_on_c, 4, 67, 0
6, 97680, Note_on_c, 4, 55, 0
6, 97740, Note_on_c, 4, 55, 63
6, 97740, Note_on_c, 4, 67, 51
6, 97800, Note_on_c, 4, 67, 0
6, 97800, Note_on_c, 4, 55, 0
6, 97800, Note_on_c, 4, 55, 64
6, 97800, Note_on_c, 4, 67, 49
6, 97860, Note_on_c, 4, 67, 0
6, 97860, Note_on_c, 4, 55, 0
6, 97860, Note_on_c, 4, 55, 58
6, 97860, Note_on_c, 4, 67, 46
6, 97920, Note_on_c, 4, 67, 0
6, 97920, Note_on_c, 4, 55, 0
6, 97980, Note_on_c, 4, 67, 46
6, 97980, Note_on_c, 4, 55, 58
6, 98040, Note_on_c, 4, 55, 0
6, 98040, Note_on_c, 4, 67, 0
6, 98040, Note_on_c, 4, 55, 63
6, 98040, Note_on_c, 4, 67, 52
6, 98100, Note_on_c, 4, 67, 0
6, 98100, Note_on_c, 4, 55, 0
6, 98100, Note_on_c, 4, 55, 66
6, 98100, Note_on_c, 4, 67, 61
6, 98160, Note_on_c, 4, 67, 0
6, 98160, Note_on_c, 4, 55, 0
6, 98220, Note_on_c, 4, 55, 73
6, 98220, Note_on_c, 4, 67, 55
6, 98280, Note_on_c, 4, 67, 0
6, 98280, Note_on_c, 4, 55, 0
6, 98280, Note_on_c, 4, 55, 65
6, 98280, Note_on_c, 4, 67, 53
6, 98340, Note_on_c, 4, 67, 0
6, 98340, Note_on_c, 4, 55, 0
6, 98340, Note_on_c, 4, 55, 68
6, 98340, Note_on_c, 4, 67, 53
6, 98400, Note_on_c, 4, 67, 0
6, 98400, Note_on_c, 4, 55, 0
6, 98400, Note_on_c, 4, 55, 68
6, 98400, Note_on_c, 4, 67, 65
6, 98460, Note_on_c, 4, 67, 0
6, 98460, Note_on_c, 4, 55, 0
6, 98460, Note_on_c, 4, 55, 68
6, 98460, Note_on_c, 4, 67, 55
6, 98520, Note_on_c, 4, 67, 0
6, 98520, Note_on_c, 4, 55, 0
6, 98580, Note_on_c, 4, 55, 76
6, 98580, Note_on_c, 4, 67, 50
6, 98640, Note_on_c, 4, 67, 0
6, 98640, Note_on_c, 4, 55, 0
6, 98700, Note_on_c, 4, 55, 74
6, 98700, Note_on_c, 4, 67, 72
6, 98760, Note_on_c, 4, 67, 0
6, 98760, Note_on_c, 4, 55, 0
6, 98820, Note_on_c, 4, 55, 73
6, 98820, Note_on_c, 4, 67, 66
6, 98880, Note_on_c, 4, 67, 0
6, 98880, Note_on_c, 4, 55, 0
6, 98880, Note_on_c, 4, 55, 85
6, 98880, Note_on_c, 4, 67, 80
6, 99840, Note_on_c, 4, 67, 0
6, 99840, Note_on_c, 4, 55, 0
6, 99900, Note_on_c, 4, 77, 72
6, 99900, Note_on_c, 4, 74, 104
6, 99960, Note_on_c, 4, 74, 0
6, 99960, Note_on_c, 4, 77, 0
6, 99960, Note_on_c, 4, 77, 76
6, 99960, Note_on_c, 4, 74, 101
6, 100020, Note_on_c, 4, 74, 0
6, 100020, Note_on_c, 4, 77, 0
6, 100020, Note_on_c, 4, 77, 74
6, 100020, Note_on_c, 4, 74, 99
6, 100080, Note_on_c, 4, 74, 0
6, 100080, Note_on_c, 4, 77, 0
6, 100080, Note_on_c, 4, 74, 95
6, 100080, Note_on_c, 4, 77, 94
6, 100140, Note_on_c, 4, 77, 0
6, 100140, Note_on_c, 4, 74, 0
6, 100140, Note_on_c, 4, 77, 81
6, 100140, Note_on_c, 4, 74, 104
6, 100200, Note_on_c, 4, 74, 0
6, 100200, Note_on_c, 4, 77, 0
6, 100200, Note_on_c, 4, 77, 80
6, 100200, Note_on_c, 4, 74, 104
6, 100260, Note_on_c, 4, 74, 0
6, 100260, Note_on_c, 4, 77, 0
6, 100260, Note_on_c, 4, 77, 82
6, 100260, Note_on_c, 4, 74, 101
6, 100320, Note_on_c, 4, 74, 0
6, 100320, Note_on_c, 4, 77, 0
6, 100320, Note_on_c, 4, 74, 95
6, 100320, Note_on_c, 4, 77, 95
6, 100380, Note_on_c, 4, 77, 0
6, 100380, Note_on_c, 4, 74, 0
6, 100380, Note_on_c, 4, 77, 81
6, 100380, Note_on_c, 4, 74, 101
6, 100440, Note_on_c, 4, 74, 0
6, 100440, Note_on_c, 4, 77, 0
6, 100440, Note_on_c, 4, 77, 80
6, 100440, Note_on_c, 4, 74, 99
6, 100500, Note_on_c, 4, 74, 0
6, 100500, Note_on_c, 4, 77, 0
6, 100500, Note_on_c, 4, 77, 76
6, 100500, Note_on_c, 4, 74, 99
6, 100560, Note_on_c, 4, 74, 0
6, 100560, Note_on_c, 4, 77, 0
6, 100560, Note_on_c, 4, 77, 84
6, 100560, Note_on_c, 4, 74, 99
6, 100620, Note_on_c, 4, 74, 0
6, 100620, Note_on_c, 4, 77, 0
6, 100620, Note_on_c, 4, 77, 81
6, 100620, Note_on_c, 4, 74, 99
6, 100680, Note_on_c, 4, 74, 0
6, 100680, Note_on_c, 4, 77, 0
6, 100680, Note_on_c, 4, 77, 82
6, 100680, Note_on_c, 4, 74, 99
6, 100740, Note_on_c, 4, 74, 0
6, 100740, Note_on_c, 4, 77, 0
6, 100740, Note_on_c, 4, 77, 84
6, 100740, Note_on_c, 4, 74, 104
6, 100800, Note_on_c, 4, 74, 0
6, 100800, Note_on_c, 4, 77, 0
6, 100800, Note_on_c, 4, 77, 76
6, 100800, Note_on_c, 4, 74, 99
6, 101040, Note_on_c, 4, 74, 0
6, 101040, Note_on_c, 4, 77, 0
6, 101040, Note_on_c, 4, 77, 81
6, 101040, Note_on_c, 4, 74, 104
6, 101160, Note_on_c, 4, 74, 0
6, 101160, Note_on_c, 4, 77, 0
6, 101160, Note_on_c, 4, 77, 84
6, 101160, Note_on_c, 4, 74, 104
6, 101280, Note_on_c, 4, 74, 0
6, 101280, Note_on_c, 4, 77, 0
6, 101280, Note_on_c, 4, 77, 98
6, 101280, Note_on_c, 4, 74, 112
6, 101520, Note_on_c, 4, 74, 0
6, 101520, Note_on_c, 4, 77, 0
6, 101520, Note_on_c, 4, 74, 101
6, 101520, Note_on_c, 4, 67, 99
6, 101760, Note_on_c, 4, 67, 0
6, 101760, Note_on_c, 4, 74, 0
6, 101760, Note_on_c, 4, 67, 99
6, 101760, Note_on_c, 4, 74, 110
6, 102360, Note_on_c, 4, 74, 0
6, 102360, Note_on_c, 4, 67, 0
6, 107880, Note_on_c, 4, 67, 58
6, 107880, Note_on_c, 4, 79, 54
6, 107940, Note_on_c, 4, 79, 0
6, 107940, Note_on_c, 4, 67, 0
6, 107940, Note_on_c, 4, 79, 60
6, 107940, Note_on_c, 4, 67, 63
6, 108000, Note_on_c, 4, 67, 0
6, 108000, Note_on_c, 4, 79, 0
6, 108000, Note_on_c, 4, 79, 55
6, 108000, Note_on_c, 4, 67, 51
6, 108120, Note_on_c, 4, 67, 0
6, 108120, Note_on_c, 4, 79, 0
6, 108240, Note_on_c, 4, 67, 49
6, 108240, Note_on_c, 4, 79, 44
6, 108300, Note_on_c, 4, 79, 0
6, 108300, Note_on_c, 4, 67, 0
6, 108300, Note_on_c, 4, 67, 60
6, 108300, Note_on_c, 4, 79, 58
6, 108360, Note_on_c, 4, 79, 0
6, 108360, Note_on_c, 4, 67, 0
6, 108360, Note_on_c, 4, 79, 54
6, 108360, Note_on_c, 4, 67, 62
6, 108480, Note_on_c, 4, 67, 0
6, 108480, Note_on_c, 4, 79, 0
6, 108600, Note_on_c, 4, 67, 53
6, 108600, Note_on_c, 4, 79, 43
6, 108660, Note_on_c, 4, 79, 0
6, 108660, Note_on_c, 4, 67, 0
6, 108660, Note_on_c, 4, 79, 62
6, 108660, Note_on_c, 4, 67, 64
6, 108720, Note_on_c, 4, 67, 0
6, 108720, Note_on_c, 4, 79, 0
6, 108720, Note_on_c, 4, 77, 56
6, 108840, Note_on_c, 4, 77, 0
6, 108900, Note_on_c, 4, 74, 58
6, 108900, Note_on_c, 4, 67, 46
6, 109020, Note_on_c, 4, 67, 0
6, 109020, Note_on_c, 4, 74, 0
6, 109080, Note_on_c, 4, 60, 89
6, 109080, Note_on_c, 4, 72, 73
6, 109140, Control_c, 4, 7, 100
6, 109150, Control_c, 4, 7, 98
6, 109160, Control_c, 4, 7, 96
6, 109170, Control_c, 4, 7, 93
6, 109180, Control_c, 4, 7, 91
6, 109190, Control_c, 4, 7, 88
6, 109200, Control_c, 4, 7, 86
6, 109210, Control_c, 4, 7, 84
6, 109220, Control_c, 4, 7, 81
6, 109230, Control_c, 4, 7, 79
6, 109240, Control_c, 4, 7, 76
6, 109250, Control_c, 4, 7, 74
6, 109260, Control_c, 4, 7, 71
6, 109800, Note_on_c, 4, 72, 0
6, 109800, Note_on_c, 4, 60, 0
6, 109800, Control_c, 4, 7, 100
6, 109800, Note_on_c, 4, 60, 93
6, 109800, Note_on_c, 4, 72, 80
6, 109860, Control_c, 4, 7, 96
6, 109870, Control_c, 4, 7, 93
6, 109880, Control_c, 4, 7, 90
6, 109890, Control_c, 4, 7, 87
6, 109900, Control_c, 4, 7, 84
6, 109910, Control_c, 4, 7, 81
6, 109920, Control_c, 4, 7, 78
6, 109930, Control_c, 4, 7, 75
6, 109940, Control_c, 4, 7, 72
6, 109950, Control_c, 4, 7, 69
6, 109960, Control_c, 4, 7, 66
6, 110520, Note_on_c, 4, 72, 0
6, 110520, Note_on_c, 4, 60, 0
6, 110520, Control_c, 4, 7, 100
6, 110520, Note_on_c, 4, 60, 98
6, 110520, Note_on_c, 4, 72, 81
6, 110590, Control_c, 4, 7, 97
6, 110600, Control_c, 4, 7, 95
6, 110610, Control_c, 4, 7, 92
6, 110620, Control_c, 4, 7, 89
6, 110630, Control_c, 4, 7, 86
6, 110640, Control_c, 4, 7, 83
6, 110650, Control_c, 4, 7, 80
6, 110660, Control_c, 4, 7, 77
6, 110670, Control_c, 4, 7, 74
6, 110680, Control_c, 4, 7, 71
6, 110690, Control_c, 4, 7, 68
6, 110700, Control_c, 4, 7, 65
6, 111240, Note_on_c, 4, 72, 0
6, 111240, Note_on_c, 4, 60, 0
6, 111240, Control_c, 4, 7, 100
6, 111240, Note_on_c, 4, 60, 94
6, 111240, Note_on_c, 4, 72, 72
6, 111320, Control_c, 4, 7, 98
6, 111330, Control_c, 4, 7, 96
6, 111340, Control_c, 4, 7, 93
6, 111350, Control_c, 4, 7, 91
6, 111360, Control_c, 4, 7, 88
6, 111370, Control_c, 4, 7, 86
6, 111380, Control_c, 4, 7, 83
6, 111390, Control_c, 4, 7, 81
6, 111400, Control_c, 4, 7, 78
6, 111410, Control_c, 4, 7, 76
6, 111420, Control_c, 4, 7, 73
6, 111430, Control_c, 4, 7, 71
6, 111440, Control_c, 4, 7, 68
6, 111450, Control_c, 4, 7, 65
6, 111960, Note_on_c, 4, 72, 0
6, 111960, Note_on_c, 4, 60, 0
6, 111960, Control_c, 4, 7, 100
6, 111960, Note_on_c, 4, 60, 86
6, 111960, Note_on_c, 4, 72, 71
6, 112020, Note_on_c, 4, 72, 0
6, 112020, Note_on_c, 4, 60, 0
6, 112020, Note_on_c, 4, 79, 62
6, 112020, Note_on_c, 4, 67, 76
6, 112080, Note_on_c, 4, 67, 0
6, 112080, Note_on_c, 4, 79, 0
6, 112080, Note_on_c, 4, 79, 68
6, 112080, Note_on_c, 4, 67, 68
6, 112140, Note_on_c, 4, 67, 0
6, 112140, Note_on_c, 4, 79, 0
6, 112140, Note_on_c, 4, 79, 63
6, 112140, Note_on_c, 4, 67, 72
6, 112260, Note_on_c, 4, 67, 0
6, 112260, Note_on_c, 4, 79, 0
6, 112320, Note_on_c, 4, 77, 74
6, 112320, Note_on_c, 4, 74, 89
6, 112380, Note_on_c, 4, 74, 0
6, 112380, Note_on_c, 4, 77, 0
6, 112380, Note_on_c, 4, 77, 72
6, 112380, Note_on_c, 4, 74, 90
6, 112440, Note_on_c, 4, 74, 0
6, 112440, Note_on_c, 4, 77, 0
6, 112440, Note_on_c, 4, 77, 67
6, 112440, Note_on_c, 4, 74, 84
6, 112500, Note_on_c, 4, 74, 0
6, 112500, Note_on_c, 4, 77, 0
6, 112500, Note_on_c, 4, 76, 81
6, 112500, Note_on_c, 4, 72, 50
6, 112620, Note_on_c, 4, 72, 0
6, 112620, Note_on_c, 4, 76, 0
6, 112680, Note_on_c, 4, 60, 80
6, 112680, Note_on_c, 4, 72, 63
6, 112740, Note_on_c, 4, 72, 0
6, 112740, Note_on_c, 4, 60, 0
6, 112740, Note_on_c, 4, 60, 76
6, 112740, Note_on_c, 4, 72, 56
6, 112800, Note_on_c, 4, 72, 0
6, 112800, Note_on_c, 4, 60, 0
6, 112800, Note_on_c, 4, 60, 85
6, 112800, Note_on_c, 4, 72, 58
6, 112860, Note_on_c, 4, 72, 0
6, 112860, Note_on_c, 4, 60, 0
6, 112860, Note_on_c, 4, 60, 85
6, 112860, Note_on_c, 4, 72, 53
6, 112920, Note_on_c, 4, 72, 0
6, 112920, Note_on_c, 4, 60, 0
6, 112920, Note_on_c, 4, 60, 81
6, 112920, Note_on_c, 4, 72, 50
6, 112980, Note_on_c, 4, 72, 0
6, 112980, Note_on_c, 4, 60, 0
6, 112980, Note_on_c, 4, 60, 80
6, 112980, Note_on_c, 4, 72, 55
6, 113040, Note_on_c, 4, 72, 0
6, 113040, Note_on_c, 4, 60, 0
6, 113040, Note_on_c, 4, 77, 69
6, 113040, Note_on_c, 4, 74, 76
6, 113160, Note_on_c, 4, 74, 0
6, 113160, Note_on_c, 4, 77, 0
6, 113220, Note_on_c, 4, 67, 82
6, 113220, Note_on_c, 4, 74, 84
6, 113340, Note_on_c, 4, 74, 0
6, 113340, Note_on_c, 4, 67, 0
6, 113400, Note_on_c, 4, 64, 86
6, 113400, Note_on_c, 4, 72, 62
6, 113520, Note_on_c, 4, 72, 0
6, 113520, Note_on_c, 4, 64, 0
6, 113760, Note_on_c, 4, 77, 72
6, 113760, Note_on_c, 4, 74, 84
6, 113880, Note_on_c, 4, 74, 0
6, 113880, Note_on_c, 4, 77, 0
6, 113940, Note_on_c, 4, 76, 80
6, 113940, Note_on_c, 4, 72, 40
6, 114000, Note_on_c, 4, 72, 0
6, 114000, Note_on_c, 4, 76, 0
6, 114000, Note_on_c, 4, 72, 73
6, 114000, Note_on_c, 4, 76, 86
6, 114060, Note_on_c, 4, 76, 0
6, 114060, Note_on_c, 4, 72, 0
6, 114060, Note_on_c, 4, 72, 72
6, 114060, Note_on_c, 4, 76, 89
6, 114120, Note_on_c, 4, 76, 0
6, 114120, Note_on_c, 4, 72, 0
6, 114120, Note_on_c, 4, 60, 85
6, 114120, Note_on_c, 4, 72, 64
6, 114240, Note_on_c, 4, 72, 0
6, 114240, Note_on_c, 4, 60, 0
6, 114300, Note_on_c, 4, 60, 86
6, 114300, Note_on_c, 4, 72, 62
6, 114420, Note_on_c, 4, 72, 0
6, 114420, Note_on_c, 4, 60, 0
6, 114480, Note_on_c, 4, 60, 77
6, 114480, Note_on_c, 4, 72, 61
6, 114600, Note_on_c, 4, 72, 0
6, 114600, Note_on_c, 4, 60, 0
6, 114660, Note_on_c, 4, 60, 85
6, 114660, Note_on_c, 4, 72, 63
6, 114780, Note_on_c, 4, 72, 0
6, 114780, Note_on_c, 4, 60, 0
6, 114840, Note_on_c, 4, 60, 81
6, 114840, Note_on_c, 4, 72, 54
6, 114960, Note_on_c, 4, 72, 0
6, 114960, Note_on_c, 4, 60, 0
6, 115020, Note_on_c, 4, 60, 93
6, 115020, Note_on_c, 4, 72, 61
6, 115140, Note_on_c, 4, 72, 0
6, 115140, Note_on_c, 4, 60, 0
6, 115200, Note_on_c, 4, 60, 95
6, 115200, Note_on_c, 4, 72, 68
6, 115320, Note_on_c, 4, 72, 0
6, 115320, Note_on_c, 4, 60, 0
6, 115380, Note_on_c, 4, 60, 98
6, 115380, Note_on_c, 4, 72, 66
6, 115500, Note_on_c, 4, 72, 0
6, 115500, Note_on_c, 4, 60, 0
6, 115560, Note_on_c, 4, 60, 98
6, 115560, Note_on_c, 4, 72, 80
6, 115620, Control_c, 4, 7, 99
6, 115630, Control_c, 4, 7, 97
6, 115640, Control_c, 4, 7, 94
6, 115650, Control_c, 4, 7, 92
6, 115660, Control_c, 4, 7, 89
6, 115670, Control_c, 4, 7, 87
6, 115680, Control_c, 4, 7, 84
6, 115690, Control_c, 4, 7, 82
6, 115700, Control_c, 4, 7, 79
6, 115710, Control_c, 4, 7, 77
6, 115720, Control_c, 4, 7, 74
6, 115730, Control_c, 4, 7, 72
6, 115740, Control_c, 4, 7, 69
6, 115750, Control_c, 4, 7, 66
6, 116400, Note_on_c, 4, 72, 0
6, 116400, Note_on_c, 4, 60, 0
6, 116630, Control_c, 4, 7, 100
6, 117900, Note_on_c, 4, 67, 64
6, 117900, Note_on_c, 4, 79, 53
6, 118080, Note_on_c, 4, 79, 0
6, 118080, Note_on_c, 4, 67, 0
6, 118080, Note_on_c, 4, 64, 68
6, 118080, Note_on_c, 4, 76, 45
6, 118260, Note_on_c, 4, 76, 0
6, 118260, Note_on_c, 4, 64, 0
6, 118260, Note_on_c, 4, 72, 82
6, 118260, Note_on_c, 4, 60, 45
6, 118440, Note_on_c, 4, 60, 0
6, 118440, Note_on_c, 4, 72, 0
6, 118440, Note_on_c, 4, 55, 69
6, 118440, Note_on_c, 4, 67, 63
6, 118560, Note_on_c, 4, 67, 0
6, 118560, Note_on_c, 4, 55, 0
6, 118620, Note_on_c, 4, 55, 98
6, 118620, Note_on_c, 4, 74, 104
6, 118860, Note_on_c, 4, 74, 0
6, 118860, Note_on_c, 4, 55, 0
6, 118860, Note_on_c, 4, 55, 80
6, 118860, Note_on_c, 4, 74, 84
6, 118920, Note_on_c, 4, 74, 0
6, 118920, Note_on_c, 4, 55, 0
6, 118920, Note_on_c, 4, 55, 80
6, 118920, Note_on_c, 4, 74, 80
6, 118980, Note_on_c, 4, 74, 0
6, 118980, Note_on_c, 4, 55, 0
6, 118980, Note_on_c, 4, 74, 80
6, 118980, Note_on_c, 4, 55, 76
6, 119040, Note_on_c, 4, 55, 0
6, 119040, Note_on_c, 4, 74, 0
6, 119040, Note_on_c, 4, 55, 76
6, 119040, Note_on_c, 4, 74, 72
6, 119100, Note_on_c, 4, 74, 0
6, 119100, Note_on_c, 4, 55, 0
6, 119100, Note_on_c, 4, 55, 78
6, 119100, Note_on_c, 4, 74, 81
6, 119160, Note_on_c, 4, 74, 0
6, 119160, Note_on_c, 4, 55, 0
6, 119160, Note_on_c, 4, 72, 85
6, 119160, Note_on_c, 4, 60, 82
6, 119280, Note_on_c, 4, 60, 0
6, 119280, Note_on_c, 4, 72, 0
6, 119880, Note_on_c, 4, 72, 73
6, 119880, Note_on_c, 4, 76, 72
6, 120240, Note_on_c, 4, 76, 0
6, 120240, Note_on_c, 4, 74, 80
6, 120420, Note_on_c, 4, 74, 0
6, 120420, Note_on_c, 4, 72, 0
6, 120420, Note_on_c, 4, 74, 66
6, 120420, Note_on_c, 4, 67, 61
6, 120600, Note_on_c, 4, 67, 0
6, 120600, Note_on_c, 4, 74, 0
6, 120600, Note_on_c, 4, 64, 93
6, 120600, Note_on_c, 4, 72, 93
6, 120720, Note_on_c, 4, 72, 0
6, 120720, Note_on_c, 4, 64, 0
6, 121320, Note_on_c, 4, 72, 73
6, 121320, Note_on_c, 4, 76, 82
6, 121680, Note_on_c, 4, 76, 0
6, 121680, Note_on_c, 4, 74, 86
6, 121840, Note_on_c, 4, 72, 0
6, 121860, Note_on_c, 4, 74, 0
6, 121860, Note_on_c, 4, 67, 66
6, 121860, Note_on_c, 4, 74, 76
6, 122040, Note_on_c, 4, 74, 0
6, 122040, Note_on_c, 4, 67, 0
6, 122040, Note_on_c, 4, 72, 82
6, 122040, Note_on_c, 4, 76, 94
6, 122400, Note_on_c, 4, 76, 0
6, 122400, Note_on_c, 4, 74, 95
6, 122560, Note_on_c, 4, 72, 0
6, 122580, Note_on_c, 4, 74, 0
6, 122580, Note_on_c, 4, 74, 82
6, 122580, Note_on_c, 4, 67, 89
6, 122760, Note_on_c, 4, 67, 0
6, 122760, Note_on_c, 4, 74, 0
6, 122760, Note_on_c, 4, 64, 95
6, 122760, Note_on_c, 4, 72, 93
6, 122880, Note_on_c, 4, 72, 0
6, 122880, Note_on_c, 4, 64, 0
6, 123120, Note_on_c, 4, 74, 74
6, 123120, Note_on_c, 4, 67, 78
6, 123240, Note_on_c, 4, 67, 0
6, 123240, Note_on_c, 4, 74, 0
6, 123480, Note_on_c, 4, 76, 71
6, 123480, Note_on_c, 4, 72, 73
6, 123600, Note_on_c, 4, 72, 0
6, 123600, Note_on_c, 4, 76, 0
6, 123840, Note_on_c, 4, 67, 58
6, 123840, Note_on_c, 4, 74, 57
6, 123960, Note_on_c, 4, 74, 0
6, 123960, Note_on_c, 4, 67, 0
6, 124200, Note_on_c, 4, 64, 105
6, 124200, Note_on_c, 4, 72, 98
6, 124260, Note_on_c, 4, 72, 0
6, 124260, Note_on_c, 4, 64, 0
6, 124260, Note_on_c, 4, 72, 104
6, 124260, Note_on_c, 4, 64, 105
6, 124320, Note_on_c, 4, 64, 0
6, 124320, Note_on_c, 4, 72, 0
6, 124320, Note_on_c, 4, 72, 105
6, 124320, Note_on_c, 4, 64, 112
6, 124380, Note_on_c, 4, 64, 0
6, 124380, Note_on_c, 4, 72, 0
6, 124380, Note_on_c, 4, 72, 105
6, 124380, Note_on_c, 4, 64, 112
6, 124440, Note_on_c, 4, 64, 0
6, 124440, Note_on_c, 4, 72, 0
6, 124440, Note_on_c, 4, 64, 112
6, 124440, Note_on_c, 4, 72, 105
6, 124500, Note_on_c, 4, 72, 0
6, 124500, Note_on_c, 4, 64, 0
6, 124500, Note_on_c, 4, 72, 105
6, 124500, Note_on_c, 4, 64, 115
6, 124560, Note_on_c, 4, 64, 0
6, 124560, Note_on_c, 4, 72, 0
6, 124560, Note_on_c, 4, 64, 115
6, 124560, Note_on_c, 4, 72, 107
6, 124620, Note_on_c, 4, 72, 0
6, 124620, Note_on_c, 4, 64, 0
6, 124620, Note_on_c, 4, 72, 105
6, 124620, Note_on_c, 4, 64, 112
6, 124680, Note_on_c, 4, 64, 0
6, 124680, Note_on_c, 4, 72, 0
6, 124680, Note_on_c, 4, 64, 115
6, 124680, Note_on_c, 4, 72, 110
6, 124740, Note_on_c, 4, 72, 0
6, 124740, Note_on_c, 4, 64, 0
6, 124740, Note_on_c, 4, 64, 112
6, 124740, Note_on_c, 4, 72, 105
6, 124800, Note_on_c, 4, 72, 0
6, 124800, Note_on_c, 4, 64, 0
6, 124800, Note_on_c, 4, 72, 105
6, 124800, Note_on_c, 4, 64, 112
6, 124860, Note_on_c, 4, 64, 0
6, 124860, Note_on_c, 4, 72, 0
6, 124860, Note_on_c, 4, 64, 110
6, 124860, Note_on_c, 4, 72, 99
6, 124920, Note_on_c, 4, 72, 0
6, 124920, Note_on_c, 4, 64, 0
6, 124920, Note_on_c, 4, 64, 104
6, 124920, Note_on_c, 4, 72, 94
6, 125040, Note_on_c, 4, 72, 0
6, 125040, Note_on_c, 4, 64, 0
6, 125100, Note_on_c, 4, 67, 90
6, 125100, Note_on_c, 4, 74, 93
6, 125220, Note_on_c, 4, 74, 0
6, 125220, Note_on_c, 4, 67, 0
6, 125280, Note_on_c, 4, 72, 80
6, 125280, Note_on_c, 4, 76, 89
6, 125400, Note_on_c, 4, 76, 0
6, 125400, Note_on_c, 4, 72, 0
6, 125460, Note_on_c, 4, 67, 99
6, 125460, Note_on_c, 4, 74, 94
6, 125580, Note_on_c, 4, 74, 0
6, 125580, Note_on_c, 4, 67, 0
6, 125640, Note_on_c, 4, 64, 105
6, 125640, Note_on_c, 4, 72, 69
6, 125760, Note_on_c, 4, 72, 0
6, 125760, Note_on_c, 4, 64, 0
6, 126000, Note_on_c, 4, 60, 99
6, 126000, Note_on_c, 4, 72, 99
6, 126120, Note_on_c, 4, 72, 0
6, 126120, Note_on_c, 4, 60, 0
6, 126360, Note_on_c, 4, 60, 110
6, 126360, Note_on_c, 4, 72, 110
6, 126480, Note_on_c, 4, 72, 0
6, 126480, Note_on_c, 4, 60, 0
6, 126480, End_track
7, 0, Start_track
7, 0, MIDI_port, 0
7, 0, Title_t, "Trumpets"
7, 0, Program_c, 5, 56
7, 0, Control_c, 5, 7, 100
7, 0, Control_c, 5, 10, 77
7, 0, Control_c, 5, 93, 0
7, 0, Control_c, 5, 91, 66
7, 9595, Control_c, 5, 7, 89
7, 9600, Note_on_c, 5, 60, 99
7, 9600, Note_on_c, 5, 72, 85
7, 9720, Note_on_c, 5, 72, 0
7, 9720, Note_on_c, 5, 60, 0
7, 9720, Note_on_c, 5, 60, 98
7, 9720, Note_on_c, 5, 72, 82
7, 9750, Note_on_c, 5, 72, 0
7, 9750, Note_on_c, 5, 60, 0
7, 9780, Note_on_c, 5, 72, 84
7, 9780, Note_on_c, 5, 60, 101
7, 9810, Note_on_c, 5, 60, 0
7, 9810, Note_on_c, 5, 72, 0
7, 9840, Note_on_c, 5, 60, 99
7, 9840, Note_on_c, 5, 72, 84
7, 9900, Note_on_c, 5, 72, 0
7, 9900, Note_on_c, 5, 60, 0
7, 10560, Note_on_c, 5, 60, 98
7, 10560, Note_on_c, 5, 72, 85
7, 10680, Note_on_c, 5, 72, 0
7, 10680, Note_on_c, 5, 60, 0
7, 10680, Note_on_c, 5, 60, 101
7, 10680, Note_on_c, 5, 72, 81
7, 10710, Note_on_c, 5, 72, 0
7, 10710, Note_on_c, 5, 60, 0
7, 10740, Note_on_c, 5, 60, 99
7, 10740, Note_on_c, 5, 72, 84
7, 10770, Note_on_c, 5, 72, 0
7, 10770, Note_on_c, 5, 60, 0
7, 10800, Note_on_c, 5, 55, 94
7, 10800, Note_on_c, 5, 67, 90
7, 10980, Note_on_c, 5, 67, 0
7, 10980, Note_on_c, 5, 55, 0
7, 10980, Note_on_c, 5, 67, 85
7, 10980, Note_on_c, 5, 55, 98
7, 11040, Note_on_c, 5, 55, 0
7, 11040, Note_on_c, 5, 67, 0
7, 11040, Note_on_c, 5, 60, 98
7, 11040, Note_on_c, 5, 72, 84
7, 11100, Note_on_c, 5, 72, 0
7, 11100, Note_on_c, 5, 60, 0
7, 11100, Note_on_c, 5, 60, 101
7, 11100, Note_on_c, 5, 72, 90
7, 11130, Note_on_c, 5, 72, 0
7, 11130, Note_on_c, 5, 60, 0
7, 11130, Note_on_c, 5, 60, 104
7, 11130, Note_on_c, 5, 72, 90
7, 11160, Note_on_c, 5, 72, 0
7, 11160, Note_on_c, 5, 60, 0
7, 11160, Note_on_c, 5, 60, 99
7, 11160, Note_on_c, 5, 72, 84
7, 11190, Note_on_c, 5, 72, 0
7, 11190, Note_on_c, 5, 60, 0
7, 11220, Note_on_c, 5, 60, 105
7, 11220, Note_on_c, 5, 72, 95
7, 11250, Note_on_c, 5, 72, 0
7, 11250, Note_on_c, 5, 60, 0
7, 11280, Note_on_c, 5, 67, 110
7, 11280, Note_on_c, 5, 55, 107
7, 11460, Note_on_c, 5, 55, 0
7, 11460, Note_on_c, 5, 67, 0
7, 11460, Note_on_c, 5, 55, 94
7, 11460, Note_on_c, 5, 67, 93
7, 11520, Note_on_c, 5, 67, 0
7, 11520, Note_on_c, 5, 55, 0
7, 11520, Note_on_c, 5, 60, 90
7, 11520, Note_on_c, 5, 72, 74
7, 11580, Note_on_c, 5, 72, 0
7, 11580, Note_on_c, 5, 60, 0
7, 11580, Note_on_c, 5, 60, 95
7, 11580, Note_on_c, 5, 72, 81
7, 11610, Note_on_c, 5, 72, 0
7, 11610, Note_on_c, 5, 60, 0
7, 11610, Note_on_c, 5, 60, 99
7, 11610, Note_on_c, 5, 72, 85
7, 11640, Note_on_c, 5, 72, 0
7, 11640, Note_on_c, 5, 60, 0
7, 11640, Note_on_c, 5, 60, 98
7, 11640, Note_on_c, 5, 72, 84
7, 11670, Note_on_c, 5, 72, 0
7, 11670, Note_on_c, 5, 60, 0
7, 11700, Note_on_c, 5, 60, 101
7, 11700, Note_on_c, 5, 72, 90
7, 11730, Note_on_c, 5, 72, 0
7, 11730, Note_on_c, 5, 60, 0
7, 11760, Note_on_c, 5, 67, 89
7, 11760, Note_on_c, 5, 55, 94
7, 11820, Control_c, 5, 7, 99
7, 11825, Control_c, 5, 7, 97
7, 11830, Control_c, 5, 7, 94
7, 11835, Control_c, 5, 7, 91
7, 11840, Control_c, 5, 7, 88
7, 11845, Control_c, 5, 7, 86
7, 11850, Control_c, 5, 7, 83
7, 11855, Control_c, 5, 7, 80
7, 11860, Control_c, 5, 7, 77
7, 11865, Control_c, 5, 7, 75
7, 11870, Control_c, 5, 7, 72
7, 11875, Control_c, 5, 7, 69
7, 11880, Control_c, 5, 7, 66
7, 12540, Note_on_c, 5, 55, 0
7, 12540, Note_on_c, 5, 67, 0
7, 12540, Note_on_c, 5, 67, 90
7, 12540, Note_on_c, 5, 55, 94
7, 12600, Note_on_c, 5, 55, 0
7, 12600, Note_on_c, 5, 67, 0
7, 12660, Note_on_c, 5, 67, 84
7, 12660, Note_on_c, 5, 55, 94
7, 12720, Note_on_c, 5, 55, 0
7, 12720, Note_on_c, 5, 67, 0
7, 12720, Note_on_c, 5, 67, 86
7, 12720, Note_on_c, 5, 55, 89
7, 12840, Note_on_c, 5, 55, 0
7, 12840, Note_on_c, 5, 67, 0
7, 12960, Control_c, 5, 7, 99
7, 13020, Note_on_c, 5, 55, 94
7, 13020, Note_on_c, 5, 67, 89
7, 13080, Note_on_c, 5, 67, 0
7, 13080, Note_on_c, 5, 55, 0
7, 13080, Note_on_c, 5, 55, 93
7, 13080, Note_on_c, 5, 67, 89
7, 13110, Note_on_c, 5, 67, 0
7, 13110, Note_on_c, 5, 55, 0
7, 13140, Note_on_c, 5, 55, 95
7, 13140, Note_on_c, 5, 67, 94
7, 13170, Note_on_c, 5, 67, 0
7, 13170, Note_on_c, 5, 55, 0
7, 13200, Note_on_c, 5, 60, 99
7, 13200, Note_on_c, 5, 72, 81
7, 13380, Note_on_c, 5, 72, 0
7, 13380, Note_on_c, 5, 60, 0
7, 13380, Note_on_c, 5, 60, 95
7, 13380, Note_on_c, 5, 72, 80
7, 13440, Note_on_c, 5, 72, 0
7, 13440, Note_on_c, 5, 60, 0
7, 13440, Note_on_c, 5, 72, 64
7, 13440, Note_on_c, 5, 74, 99
7, 13470, Note_on_c, 5, 74, 0
7, 13470, Note_on_c, 5, 72, 0
7, 13500, Note_on_c, 5, 72, 77
7, 13500, Note_on_c, 5, 74, 99
7, 13530, Note_on_c, 5, 74, 0
7, 13530, Note_on_c, 5, 72, 0
7, 13560, Note_on_c, 5, 67, 99
7, 13560, Note_on_c, 5, 74, 98
7, 13590, Note_on_c, 5, 74, 0
7, 13590, Note_on_c, 5, 67, 0
7, 13620, Note_on_c, 5, 67, 99
7, 13620, Note_on_c, 5, 74, 98
7, 13650, Note_on_c, 5, 74, 0
7, 13650, Note_on_c, 5, 67, 0
7, 13680, Note_on_c, 5, 60, 99
7, 13680, Note_on_c, 5, 72, 81
7, 13860, Note_on_c, 5, 72, 0
7, 13860, Note_on_c, 5, 60, 0
7, 13860, Note_on_c, 5, 60, 95
7, 13860, Note_on_c, 5, 72, 86
7, 13920, Note_on_c, 5, 72, 0
7, 13920, Note_on_c, 5, 60, 0
7, 13920, Note_on_c, 5, 74, 99
7, 13920, Note_on_c, 5, 72, 80
7, 13950, Note_on_c, 5, 72, 0
7, 13950, Note_on_c, 5, 74, 0
7, 13980, Note_on_c, 5, 74, 99
7, 13980, Note_on_c, 5, 72, 77
7, 14010, Note_on_c, 5, 72, 0
7, 14010, Note_on_c, 5, 74, 0
7, 14040, Note_on_c, 5, 74, 99
7, 14040, Note_on_c, 5, 67, 98
7, 14070, Note_on_c, 5, 67, 0
7, 14070, Note_on_c, 5, 74, 0
7, 14100, Note_on_c, 5, 67, 94
7, 14100, Note_on_c, 5, 74, 98
7, 14130, Note_on_c, 5, 74, 0
7, 14130, Note_on_c, 5, 67, 0
7, 14160, Note_on_c, 5, 60, 99
7, 14160, Note_on_c, 5, 72, 80
7, 14340, Note_on_c, 5, 72, 0
7, 14340, Note_on_c, 5, 60, 0
7, 14340, Note_on_c, 5, 60, 93
7, 14340, Note_on_c, 5, 72, 84
7, 14400, Note_on_c, 5, 72, 0
7, 14400, Note_on_c, 5, 60, 0
7, 14400, Note_on_c, 5, 72, 74
7, 14400, Note_on_c, 5, 74, 94
7, 14430, Note_on_c, 5, 74, 0
7, 14430, Note_on_c, 5, 72, 0
7, 14460, Note_on_c, 5, 74, 104
7, 14460, Note_on_c, 5, 72, 84
7, 14490, Note_on_c, 5, 72, 0
7, 14490, Note_on_c, 5, 74, 0
7, 14520, Note_on_c, 5, 67, 94
7, 14520, Note_on_c, 5, 74, 98
7, 14550, Note_on_c, 5, 74, 0
7, 14550, Note_on_c, 5, 67, 0
7, 14580, Note_on_c, 5, 67, 98
7, 14580, Note_on_c, 5, 74, 99
7, 14610, Note_on_c, 5, 74, 0
7, 14610, Note_on_c, 5, 67, 0
7, 14640, Note_on_c, 5, 60, 99
7, 14640, Note_on_c, 5, 72, 81
7, 14700, Note_on_c, 5, 72, 0
7, 14700, Note_on_c, 5, 60, 0
7, 14760, Note_on_c, 5, 67, 101
7, 14820, Note_on_c, 5, 67, 0
7, 14880, Note_on_c, 5, 60, 104
7, 14940, Note_on_c, 5, 60, 0
7, 15120, Note_on_c, 5, 60, 94
7, 15120, Note_on_c, 5, 72, 77
7, 15240, Note_on_c, 5, 72, 0
7, 15240, Note_on_c, 5, 60, 0
7, 15240, Note_on_c, 5, 60, 95
7, 15240, Note_on_c, 5, 72, 76
7, 15330, Note_on_c, 5, 72, 0
7, 15330, Note_on_c, 5, 60, 0
7, 15330, Note_on_c, 5, 60, 94
7, 15330, Note_on_c, 5, 72, 74
7, 15360, Note_on_c, 5, 72, 0
7, 15360, Note_on_c, 5, 60, 0
7, 15360, Note_on_c, 5, 60, 94
7, 15360, Note_on_c, 5, 72, 73
7, 15480, Note_on_c, 5, 72, 0
7, 15480, Note_on_c, 5, 60, 0
7, 16080, Note_on_c, 5, 60, 84
7, 16080, Note_on_c, 5, 72, 72
7, 16200, Note_on_c, 5, 72, 0
7, 16200, Note_on_c, 5, 60, 0
7, 16200, Note_on_c, 5, 60, 94
7, 16200, Note_on_c, 5, 72, 74
7, 16290, Note_on_c, 5, 72, 0
7, 16290, Note_on_c, 5, 60, 0
7, 16290, Note_on_c, 5, 60, 98
7, 16290, Note_on_c, 5, 72, 77
7, 16320, Note_on_c, 5, 72, 0
7, 16320, Note_on_c, 5, 60, 0
7, 16320, Note_on_c, 5, 60, 95
7, 16320, Note_on_c, 5, 72, 74
7, 16440, Note_on_c, 5, 72, 0
7, 16440, Note_on_c, 5, 60, 0
7, 42720, Note_on_c, 5, 60, 99
7, 42720, Note_on_c, 5, 72, 85
7, 42840, Note_on_c, 5, 72, 0
7, 42840, Note_on_c, 5, 60, 0
7, 42840, Note_on_c, 5, 60, 98
7, 42840, Note_on_c, 5, 72, 82
7, 42870, Note_on_c, 5, 72, 0
7, 42870, Note_on_c, 5, 60, 0
7, 42900, Note_on_c, 5, 72, 84
7, 42900, Note_on_c, 5, 60, 101
7, 42930, Note_on_c, 5, 60, 0
7, 42930, Note_on_c, 5, 72, 0
7, 42960, Note_on_c, 5, 60, 99
7, 42960, Note_on_c, 5, 72, 84
7, 43020, Note_on_c, 5, 72, 0
7, 43020, Note_on_c, 5, 60, 0
7, 43680, Note_on_c, 5, 60, 98
7, 43680, Note_on_c, 5, 72, 85
7, 43800, Note_on_c, 5, 72, 0
7, 43800, Note_on_c, 5, 60, 0
7, 43800, Note_on_c, 5, 60, 101
7, 43800, Note_on_c, 5, 72, 81
7, 43830, Note_on_c, 5, 72, 0
7, 43830, Note_on_c, 5, 60, 0
7, 43860, Note_on_c, 5, 60, 99
7, 43860, Note_on_c, 5, 72, 84
7, 43890, Note_on_c, 5, 72, 0
7, 43890, Note_on_c, 5, 60, 0
7, 43920, Note_on_c, 5, 55, 94
7, 43920, Note_on_c, 5, 67, 90
7, 44100, Note_on_c, 5, 67, 0
7, 44100, Note_on_c, 5, 55, 0
7, 44100, Note_on_c, 5, 67, 85
7, 44100, Note_on_c, 5, 55, 98
7, 44160, Note_on_c, 5, 55, 0
7, 44160, Note_on_c, 5, 67, 0
7, 44160, Note_on_c, 5, 60, 98
7, 44160, Note_on_c, 5, 72, 84
7, 44220, Note_on_c, 5, 72, 0
7, 44220, Note_on_c, 5, 60, 0
7, 44220, Note_on_c, 5, 60, 101
7, 44220, Note_on_c, 5, 72, 90
7, 44250, Note_on_c, 5, 72, 0
7, 44250, Note_on_c, 5, 60, 0
7, 44250, Note_on_c, 5, 60, 104
7, 44250, Note_on_c, 5, 72, 90
7, 44280, Note_on_c, 5, 72, 0
7, 44280, Note_on_c, 5, 60, 0
7, 44280, Note_on_c, 5, 60, 99
7, 44280, Note_on_c, 5, 72, 84
7, 44310, Note_on_c, 5, 72, 0
7, 44310, Note_on_c, 5, 60, 0
7, 44340, Note_on_c, 5, 60, 105
7, 44340, Note_on_c, 5, 72, 95
7, 44370, Note_on_c, 5, 72, 0
7, 44370, Note_on_c, 5, 60, 0
7, 44400, Note_on_c, 5, 67, 110
7, 44400, Note_on_c, 5, 55, 107
7, 44580, Note_on_c, 5, 55, 0
7, 44580, Note_on_c, 5, 67, 0
7, 44580, Note_on_c, 5, 55, 94
7, 44580, Note_on_c, 5, 67, 93
7, 44640, Note_on_c, 5, 67, 0
7, 44640, Note_on_c, 5, 55, 0
7, 44640, Note_on_c, 5, 60, 90
7, 44640, Note_on_c, 5, 72, 74
7, 44700, Note_on_c, 5, 72, 0
7, 44700, Note_on_c, 5, 60, 0
7, 44700, Note_on_c, 5, 60, 95
7, 44700, Note_on_c, 5, 72, 81
7, 44730, Note_on_c, 5, 72, 0
7, 44730, Note_on_c, 5, 60, 0
7, 44730, Note_on_c, 5, 60, 99
7, 44730, Note_on_c, 5, 72, 85
7, 44760, Note_on_c, 5, 72, 0
7, 44760, Note_on_c, 5, 60, 0
7, 44760, Note_on_c, 5, 60, 98
7, 44760, Note_on_c, 5, 72, 84
7, 44790, Note_on_c, 5, 72, 0
7, 44790, Note_on_c, 5, 60, 0
7, 44820, Note_on_c, 5, 60, 101
7, 44820, Note_on_c, 5, 72, 90
7, 44850, Note_on_c, 5, 72, 0
7, 44850, Note_on_c, 5, 60, 0
7, 44880, Note_on_c, 5, 67, 89
7, 44880, Note_on_c, 5, 55, 94
7, 44940, Control_c, 5, 7, 99
7, 44945, Control_c, 5, 7, 97
7, 44950, Control_c, 5, 7, 94
7, 44955, Control_c, 5, 7, 91
7, 44960, Control_c, 5, 7, 88
7, 44965, Control_c, 5, 7, 86
7, 44970, Control_c, 5, 7, 83
7, 44975, Control_c, 5, 7, 80
7, 44980, Control_c, 5, 7, 77
7, 44985, Control_c, 5, 7, 75
7, 44990, Control_c, 5, 7, 72
7, 44995, Control_c, 5, 7, 69
7, 45000, Control_c, 5, 7, 66
7, 45660, Note_on_c, 5, 55, 0
7, 45660, Note_on_c, 5, 67, 0
7, 45660, Note_on_c, 5, 67, 90
7, 45660, Note_on_c, 5, 55, 94
7, 45720, Note_on_c, 5, 55, 0
7, 45720, Note_on_c, 5, 67, 0
7, 45780, Note_on_c, 5, 67, 84
7, 45780, Note_on_c, 5, 55, 94
7, 45840, Note_on_c, 5, 55, 0
7, 45840, Note_on_c, 5, 67, 0
7, 45840, Note_on_c, 5, 67, 86
7, 45840, Note_on_c, 5, 55, 89
7, 45960, Note_on_c, 5, 55, 0
7, 45960, Note_on_c, 5, 67, 0
7, 46080, Control_c, 5, 7, 99
7, 46140, Note_on_c, 5, 55, 94
7, 46140, Note_on_c, 5, 67, 89
7, 46200, Note_on_c, 5, 67, 0
7, 46200, Note_on_c, 5, 55, 0
7, 46200, Note_on_c, 5, 55, 93
7, 46200, Note_on_c, 5, 67, 89
7, 46230, Note_on_c, 5, 67, 0
7, 46230, Note_on_c, 5, 55, 0
7, 46260, Note_on_c, 5, 55, 95
7, 46260, Note_on_c, 5, 67, 94
7, 46290, Note_on_c, 5, 67, 0
7, 46290, Note_on_c, 5, 55, 0
7, 46320, Note_on_c, 5, 60, 99
7, 46320, Note_on_c, 5, 72, 81
7, 46500, Note_on_c, 5, 72, 0
7, 46500, Note_on_c, 5, 60, 0
7, 46500, Note_on_c, 5, 60, 95
7, 46500, Note_on_c, 5, 72, 80
7, 46560, Note_on_c, 5, 72, 0
7, 46560, Note_on_c, 5, 60, 0
7, 46560, Note_on_c, 5, 72, 64
7, 46560, Note_on_c, 5, 74, 99
7, 46590, Note_on_c, 5, 74, 0
7, 46590, Note_on_c, 5, 72, 0
7, 46620, Note_on_c, 5, 72, 77
7, 46620, Note_on_c, 5, 74, 99
7, 46650, Note_on_c, 5, 74, 0
7, 46650, Note_on_c, 5, 72, 0
7, 46680, Note_on_c, 5, 67, 99
7, 46680, Note_on_c, 5, 74, 98
7, 46710, Note_on_c, 5, 74, 0
7, 46710, Note_on_c, 5, 67, 0
7, 46740, Note_on_c, 5, 67, 99
7, 46740, Note_on_c, 5, 74, 98
7, 46770, Note_on_c, 5, 74, 0
7, 46770, Note_on_c, 5, 67, 0
7, 46800, Note_on_c, 5, 60, 99
7, 46800, Note_on_c, 5, 72, 81
7, 46980, Note_on_c, 5, 72, 0
7, 46980, Note_on_c, 5, 60, 0
7, 46980, Note_on_c, 5, 60, 95
7, 46980, Note_on_c, 5, 72, 86
7, 47040, Note_on_c, 5, 72, 0
7, 47040, Note_on_c, 5, 60, 0
7, 47040, Note_on_c, 5, 74, 99
7, 47040, Note_on_c, 5, 72, 80
7, 47070, Note_on_c, 5, 72, 0
7, 47070, Note_on_c, 5, 74, 0
7, 47100, Note_on_c, 5, 74, 99
7, 47100, Note_on_c, 5, 72, 77
7, 47130, Note_on_c, 5, 72, 0
7, 47130, Note_on_c, 5, 74, 0
7, 47160, Note_on_c, 5, 74, 99
7, 47160, Note_on_c, 5, 67, 98
7, 47190, Note_on_c, 5, 67, 0
7, 47190, Note_on_c, 5, 74, 0
7, 47220, Note_on_c, 5, 67, 94
7, 47220, Note_on_c, 5, 74, 98
7, 47250, Note_on_c, 5, 74, 0
7, 47250, Note_on_c, 5, 67, 0
7, 47280, Note_on_c, 5, 60, 99
7, 47280, Note_on_c, 5, 72, 80
7, 47460, Note_on_c, 5, 72, 0
7, 47460, Note_on_c, 5, 60, 0
7, 47460, Note_on_c, 5, 60, 93
7, 47460, Note_on_c, 5, 72, 84
7, 47520, Note_on_c, 5, 72, 0
7, 47520, Note_on_c, 5, 60, 0
7, 47520, Note_on_c, 5, 72, 74
7, 47520, Note_on_c, 5, 74, 94
7, 47550, Note_on_c, 5, 74, 0
7, 47550, Note_on_c, 5, 72, 0
7, 47580, Note_on_c, 5, 74, 104
7, 47580, Note_on_c, 5, 72, 84
7, 47610, Note_on_c, 5, 72, 0
7, 47610, Note_on_c, 5, 74, 0
7, 47640, Note_on_c, 5, 67, 94
7, 47640, Note_on_c, 5, 74, 98
7, 47670, Note_on_c, 5, 74, 0
7, 47670, Note_on_c, 5, 67, 0
7, 47700, Note_on_c, 5, 67, 98
7, 47700, Note_on_c, 5, 74, 99
7, 47730, Note_on_c, 5, 74, 0
7, 47730, Note_on_c, 5, 67, 0
7, 47760, Note_on_c, 5, 60, 99
7, 47760, Note_on_c, 5, 72, 81
7, 47820, Note_on_c, 5, 72, 0
7, 47820, Note_on_c, 5, 60, 0
7, 47880, Note_on_c, 5, 67, 101
7, 47940, Note_on_c, 5, 67, 0
7, 48000, Note_on_c, 5, 60, 104
7, 48060, Note_on_c, 5, 60, 0
7, 63960, Note_on_c, 5, 60, 95
7, 63960, Note_on_c, 5, 72, 95
7, 64140, Note_on_c, 5, 72, 0
7, 64140, Note_on_c, 5, 60, 0
7, 64140, Note_on_c, 5, 60, 93
7, 64140, Note_on_c, 5, 72, 84
7, 64200, Note_on_c, 5, 72, 0
7, 64200, Note_on_c, 5, 60, 0
7, 64200, Note_on_c, 5, 60, 94
7, 64200, Note_on_c, 5, 72, 89
7, 64260, Note_on_c, 5, 72, 0
7, 64260, Note_on_c, 5, 60, 0
7, 64260, Note_on_c, 5, 60, 94
7, 64260, Note_on_c, 5, 72, 94
7, 64320, Note_on_c, 5, 72, 0
7, 64320, Note_on_c, 5, 60, 0
7, 64320, Note_on_c, 5, 67, 104
7, 64320, Note_on_c, 5, 55, 110
7, 64500, Note_on_c, 5, 55, 0
7, 64500, Note_on_c, 5, 67, 0
7, 64500, Note_on_c, 5, 67, 99
7, 64500, Note_on_c, 5, 55, 107
7, 64560, Note_on_c, 5, 55, 0
7, 64560, Note_on_c, 5, 67, 0
7, 64560, Note_on_c, 5, 60, 105
7, 64560, Note_on_c, 5, 72, 89
7, 64620, Note_on_c, 5, 72, 0
7, 64620, Note_on_c, 5, 60, 0
7, 64620, Note_on_c, 5, 60, 110
7, 64620, Note_on_c, 5, 72, 85
7, 64680, Note_on_c, 5, 72, 0
7, 64680, Note_on_c, 5, 60, 0
7, 64680, Note_on_c, 5, 60, 112
7, 64680, Note_on_c, 5, 72, 98
7, 64740, Note_on_c, 5, 72, 0
7, 64740, Note_on_c, 5, 60, 0
7, 64740, Note_on_c, 5, 60, 112
7, 64740, Note_on_c, 5, 72, 99
7, 64800, Note_on_c, 5, 72, 0
7, 64800, Note_on_c, 5, 60, 0
7, 64800, Note_on_c, 5, 67, 101
7, 64800, Note_on_c, 5, 55, 112
7, 64980, Note_on_c, 5, 55, 0
7, 64980, Note_on_c, 5, 67, 0
7, 64980, Note_on_c, 5, 67, 99
7, 64980, Note_on_c, 5, 55, 115
7, 65040, Note_on_c, 5, 55, 0
7, 65040, Note_on_c, 5, 67, 0
7, 65040, Note_on_c, 5, 60, 95
7, 65040, Note_on_c, 5, 72, 80
7, 65100, Note_on_c, 5, 72, 0
7, 65100, Note_on_c, 5, 60, 0
7, 65100, Note_on_c, 5, 60, 95
7, 65100, Note_on_c, 5, 72, 80
7, 65160, Note_on_c, 5, 72, 0
7, 65160, Note_on_c, 5, 60, 0
7, 65160, Note_on_c, 5, 60, 104
7, 65160, Note_on_c, 5, 72, 90
7, 65220, Note_on_c, 5, 72, 0
7, 65220, Note_on_c, 5, 60, 0
7, 65220, Note_on_c, 5, 60, 99
7, 65220, Note_on_c, 5, 72, 84
7, 65280, Note_on_c, 5, 72, 0
7, 65280, Note_on_c, 5, 60, 0
7, 65280, Note_on_c, 5, 55, 94
7, 65280, Note_on_c, 5, 67, 94
7, 65400, Note_on_c, 5, 67, 0
7, 65400, Note_on_c, 5, 55, 0
7, 78000, Note_on_c, 5, 55, 94
7, 78000, Note_on_c, 5, 67, 89
7, 78240, Note_on_c, 5, 67, 0
7, 78240, Note_on_c, 5, 55, 0
7, 78240, Note_on_c, 5, 55, 94
7, 78240, Note_on_c, 5, 67, 93
7, 78480, Note_on_c, 5, 67, 0
7, 78480, Note_on_c, 5, 55, 0
7, 78480, Note_on_c, 5, 55, 90
7, 78480, Note_on_c, 5, 67, 82
7, 78510, Note_on_c, 5, 67, 0
7, 78510, Note_on_c, 5, 55, 0
7, 78540, Note_on_c, 5, 55, 89
7, 78540, Note_on_c, 5, 67, 84
7, 78570, Note_on_c, 5, 67, 0
7, 78570, Note_on_c, 5, 55, 0
7, 78600, Note_on_c, 5, 55, 94
7, 78600, Note_on_c, 5, 67, 82
7, 78630, Note_on_c, 5, 67, 0
7, 78630, Note_on_c, 5, 55, 0
7, 78660, Note_on_c, 5, 55, 95
7, 78660, Note_on_c, 5, 67, 86
7, 78690, Note_on_c, 5, 67, 0
7, 78690, Note_on_c, 5, 55, 0
7, 78720, Note_on_c, 5, 55, 94
7, 78720, Note_on_c, 5, 67, 85
7, 78840, Note_on_c, 5, 67, 0
7, 78840, Note_on_c, 5, 55, 0
7, 78960, Note_on_c, 5, 55, 104
7, 79020, Note_on_c, 5, 55, 0
7, 79020, Note_on_c, 5, 55, 99
7, 79020, Note_on_c, 5, 67, 98
7, 79080, Note_on_c, 5, 67, 0
7, 79080, Note_on_c, 5, 55, 0
7, 79080, Note_on_c, 5, 67, 99
7, 79080, Note_on_c, 5, 55, 104
7, 79140, Note_on_c, 5, 55, 0
7, 79140, Note_on_c, 5, 67, 0
7, 79140, Note_on_c, 5, 67, 93
7, 79140, Note_on_c, 5, 55, 99
7, 79200, Note_on_c, 5, 55, 0
7, 79200, Note_on_c, 5, 67, 0
7, 79200, Note_on_c, 5, 60, 89
7, 79200, Note_on_c, 5, 72, 73
7, 79380, Note_on_c, 5, 72, 0
7, 79380, Note_on_c, 5, 60, 0
7, 79380, Note_on_c, 5, 60, 94
7, 79380, Note_on_c, 5, 72, 77
7, 79440, Note_on_c, 5, 72, 0
7, 79440, Note_on_c, 5, 60, 0
7, 79440, Note_on_c, 5, 72, 82
7, 79440, Note_on_c, 5, 74, 104
7, 79470, Note_on_c, 5, 74, 0
7, 79470, Note_on_c, 5, 72, 0
7, 79500, Note_on_c, 5, 74, 107
7, 79500, Note_on_c, 5, 72, 85
7, 79530, Note_on_c, 5, 72, 0
7, 79530, Note_on_c, 5, 74, 0
7, 79560, Note_on_c, 5, 67, 101
7, 79560, Note_on_c, 5, 74, 101
7, 79590, Note_on_c, 5, 74, 0
7, 79590, Note_on_c, 5, 67, 0
7, 79620, Note_on_c, 5, 67, 104
7, 79620, Note_on_c, 5, 74, 99
7, 79650, Note_on_c, 5, 74, 0
7, 79650, Note_on_c, 5, 67, 0
7, 79680, Note_on_c, 5, 72, 105
7, 79680, Note_on_c, 5, 60, 117
7, 79860, Note_on_c, 5, 60, 0
7, 79860, Note_on_c, 5, 72, 0
7, 79860, Note_on_c, 5, 60, 94
7, 79860, Note_on_c, 5, 72, 76
7, 79920, Note_on_c, 5, 72, 0
7, 79920, Note_on_c, 5, 60, 0
7, 79920, Note_on_c, 5, 60, 99
7, 79920, Note_on_c, 5, 74, 99
7, 79950, Note_on_c, 5, 74, 0
7, 79950, Note_on_c, 5, 60, 0
7, 79980, Note_on_c, 5, 60, 98
7, 79980, Note_on_c, 5, 74, 89
7, 80010, Note_on_c, 5, 74, 0
7, 80010, Note_on_c, 5, 60, 0
7, 80040, Note_on_c, 5, 74, 105
7, 80040, Note_on_c, 5, 55, 98
7, 80070, Note_on_c, 5, 55, 0
7, 80070, Note_on_c, 5, 74, 0
7, 80100, Note_on_c, 5, 55, 99
7, 80100, Note_on_c, 5, 74, 99
7, 80130, Note_on_c, 5, 74, 0
7, 80130, Note_on_c, 5, 55, 0
7, 80160, Note_on_c, 5, 60, 112
7, 80160, Note_on_c, 5, 72, 117
7, 80340, Note_on_c, 5, 72, 0
7, 80340, Note_on_c, 5, 60, 0
7, 80340, Note_on_c, 5, 60, 94
7, 80340, Note_on_c, 5, 72, 74
7, 80400, Note_on_c, 5, 72, 0
7, 80400, Note_on_c, 5, 60, 0
7, 80400, Note_on_c, 5, 60, 94
7, 80400, Note_on_c, 5, 74, 99
7, 80430, Note_on_c, 5, 74, 0
7, 80430, Note_on_c, 5, 60, 0
7, 80460, Note_on_c, 5, 60, 99
7, 80460, Note_on_c, 5, 74, 86
7, 80490, Note_on_c, 5, 74, 0
7, 80490, Note_on_c, 5, 60, 0
7, 80520, Note_on_c, 5, 55, 101
7, 80520, Note_on_c, 5, 74, 84
7, 80550, Note_on_c, 5, 74, 0
7, 80550, Note_on_c, 5, 55, 0
7, 80580, Note_on_c, 5, 74, 99
7, 80580, Note_on_c, 5, 55, 99
7, 80610, Note_on_c, 5, 55, 0
7, 80610, Note_on_c, 5, 74, 0
7, 80640, Note_on_c, 5, 60, 93
7, 80640, Note_on_c, 5, 72, 78
7, 80700, Note_on_c, 5, 72, 0
7, 80700, Note_on_c, 5, 60, 0
7, 80760, Note_on_c, 5, 55, 94
7, 80760, Note_on_c, 5, 67, 94
7, 80820, Note_on_c, 5, 67, 0
7, 80820, Note_on_c, 5, 55, 0
7, 80880, Note_on_c, 5, 60, 99
7, 80940, Note_on_c, 5, 60, 0
7, 81120, Note_on_c, 5, 60, 94
7, 81120, Note_on_c, 5, 72, 76
7, 81240, Note_on_c, 5, 72, 0
7, 81240, Note_on_c, 5, 60, 0
7, 81240, Note_on_c, 5, 60, 94
7, 81240, Note_on_c, 5, 72, 70
7, 81330, Note_on_c, 5, 72, 0
7, 81330, Note_on_c, 5, 60, 0
7, 81330, Note_on_c, 5, 60, 86
7, 81330, Note_on_c, 5, 72, 73
7, 81360, Note_on_c, 5, 72, 0
7, 81360, Note_on_c, 5, 60, 0
7, 81360, Note_on_c, 5, 60, 89
7, 81360, Note_on_c, 5, 72, 67
7, 81480, Note_on_c, 5, 72, 0
7, 81480, Note_on_c, 5, 60, 0
7, 82080, Note_on_c, 5, 60, 85
7, 82080, Note_on_c, 5, 72, 62
7, 82200, Note_on_c, 5, 72, 0
7, 82200, Note_on_c, 5, 60, 0
7, 82200, Note_on_c, 5, 60, 84
7, 82200, Note_on_c, 5, 72, 73
7, 82290, Note_on_c, 5, 72, 0
7, 82290, Note_on_c, 5, 60, 0
7, 82290, Note_on_c, 5, 60, 89
7, 82290, Note_on_c, 5, 72, 70
7, 82320, Note_on_c, 5, 72, 0
7, 82320, Note_on_c, 5, 60, 0
7, 82320, Note_on_c, 5, 60, 89
7, 82320, Note_on_c, 5, 72, 67
7, 82440, Note_on_c, 5, 72, 0
7, 82440, Note_on_c, 5, 60, 0
7, 98880, Note_on_c, 5, 55, 84
7, 98880, Note_on_c, 5, 67, 70
7, 99840, Note_on_c, 5, 67, 0
7, 99840, Note_on_c, 5, 55, 0
7, 99840, Note_on_c, 5, 67, 93
7, 99840, Note_on_c, 5, 55, 98
7, 99960, Note_on_c, 5, 55, 0
7, 99960, Note_on_c, 5, 67, 0
7, 99960, Note_on_c, 5, 55, 99
7, 99960, Note_on_c, 5, 67, 98
7, 100080, Note_on_c, 5, 67, 0
7, 100080, Note_on_c, 5, 55, 0
7, 100080, Note_on_c, 5, 55, 98
7, 100080, Note_on_c, 5, 67, 99
7, 100200, Note_on_c, 5, 67, 0
7, 100200, Note_on_c, 5, 55, 0
7, 100200, Note_on_c, 5, 55, 101
7, 100200, Note_on_c, 5, 67, 99
7, 100320, Note_on_c, 5, 67, 0
7, 100320, Note_on_c, 5, 55, 0
7, 100320, Note_on_c, 5, 67, 99
7, 100320, Note_on_c, 5, 55, 104
7, 100440, Note_on_c, 5, 55, 0
7, 100440, Note_on_c, 5, 67, 0
7, 100440, Note_on_c, 5, 55, 105
7, 100440, Note_on_c, 5, 67, 104
7, 100560, Note_on_c, 5, 67, 0
7, 100560, Note_on_c, 5, 55, 0
7, 100560, Note_on_c, 5, 67, 95
7, 100560, Note_on_c, 5, 55, 101
7, 100680, Note_on_c, 5, 55, 0
7, 100680, Note_on_c, 5, 67, 0
7, 100680, Note_on_c, 5, 67, 101
7, 100680, Note_on_c, 5, 55, 105
7, 100800, Note_on_c, 5, 55, 0
7, 100800, Note_on_c, 5, 67, 0
7, 100800, Note_on_c, 5, 67, 99
7, 100800, Note_on_c, 5, 74, 99
7, 101040, Note_on_c, 5, 74, 0
7, 101040, Note_on_c, 5, 67, 0
7, 101040, Note_on_c, 5, 74, 99
7, 101040, Note_on_c, 5, 67, 101
7, 101160, Note_on_c, 5, 67, 0
7, 101160, Note_on_c, 5, 74, 0
7, 101160, Note_on_c, 5, 74, 99
7, 101160, Note_on_c, 5, 67, 98
7, 101280, Note_on_c, 5, 67, 0
7, 101280, Note_on_c, 5, 74, 0
7, 101280, Note_on_c, 5, 67, 107
7, 101280, Note_on_c, 5, 74, 110
7, 101520, Note_on_c, 5, 74, 0
7, 101520, Note_on_c, 5, 67, 0
7, 101520, Note_on_c, 5, 67, 105
7, 101520, Note_on_c, 5, 55, 112
7, 101760, Note_on_c, 5, 55, 0
7, 101760, Note_on_c, 5, 67, 0
7, 101760, Note_on_c, 5, 67, 93
7, 101760, Note_on_c, 5, 55, 105
7, 102360, Note_on_c, 5, 55, 0
7, 102360, Note_on_c, 5, 67, 0
7, 123840, Note_on_c, 5, 67, 68
7, 123840, Note_on_c, 5, 74, 68
7, 123960, Note_on_c, 5, 74, 0
7, 123960, Note_on_c, 5, 67, 0
7, 124200, Note_on_c, 5, 64, 105
7, 124200, Note_on_c, 5, 72, 89
7, 124260, Note_on_c, 5, 72, 0
7, 124260, Note_on_c, 5, 64, 0
7, 124260, Note_on_c, 5, 64, 110
7, 124260, Note_on_c, 5, 72, 81
7, 124320, Note_on_c, 5, 72, 0
7, 124320, Note_on_c, 5, 64, 0
7, 124320, Note_on_c, 5, 64, 112
7, 124320, Note_on_c, 5, 72, 80
7, 124380, Note_on_c, 5, 72, 0
7, 124380, Note_on_c, 5, 64, 0
7, 124380, Note_on_c, 5, 64, 112
7, 124380, Note_on_c, 5, 72, 85
7, 124440, Note_on_c, 5, 72, 0
7, 124440, Note_on_c, 5, 64, 0
7, 124440, Note_on_c, 5, 64, 110
7, 124440, Note_on_c, 5, 72, 89
7, 124500, Note_on_c, 5, 72, 0
7, 124500, Note_on_c, 5, 64, 0
7, 124500, Note_on_c, 5, 72, 82
7, 124500, Note_on_c, 5, 64, 110
7, 124560, Note_on_c, 5, 64, 0
7, 124560, Note_on_c, 5, 72, 0
7, 124560, Note_on_c, 5, 64, 112
7, 124560, Note_on_c, 5, 72, 89
7, 124620, Note_on_c, 5, 72, 0
7, 124620, Note_on_c, 5, 64, 0
7, 124620, Note_on_c, 5, 64, 110
7, 124620, Note_on_c, 5, 72, 82
7, 124680, Note_on_c, 5, 72, 0
7, 124680, Note_on_c, 5, 64, 0
7, 124680, Note_on_c, 5, 64, 112
7, 124680, Note_on_c, 5, 72, 81
7, 124740, Note_on_c, 5, 72, 0
7, 124740, Note_on_c, 5, 64, 0
7, 124740, Note_on_c, 5, 64, 107
7, 124740, Note_on_c, 5, 72, 85
7, 124800, Note_on_c, 5, 72, 0
7, 124800, Note_on_c, 5, 64, 0
7, 124800, Note_on_c, 5, 64, 110
7, 124800, Note_on_c, 5, 72, 84
7, 124860, Note_on_c, 5, 72, 0
7, 124860, Note_on_c, 5, 64, 0
7, 124860, Note_on_c, 5, 64, 115
7, 124860, Note_on_c, 5, 72, 85
7, 124920, Note_on_c, 5, 72, 0
7, 124920, Note_on_c, 5, 64, 0
7, 124920, Note_on_c, 5, 64, 112
7, 124920, Note_on_c, 5, 72, 110
7, 125040, Note_on_c, 5, 72, 0
7, 125040, Note_on_c, 5, 64, 0
7, 125100, Note_on_c, 5, 67, 101
7, 125100, Note_on_c, 5, 74, 99
7, 125220, Note_on_c, 5, 74, 0
7, 125220, Note_on_c, 5, 67, 0
7, 125280, Note_on_c, 5, 72, 105
7, 125280, Note_on_c, 5, 76, 99
7, 125400, Note_on_c, 5, 76, 0
7, 125400, Note_on_c, 5, 72, 0
7, 125460, Note_on_c, 5, 67, 99
7, 125460, Note_on_c, 5, 74, 99
7, 125580, Note_on_c, 5, 74, 0
7, 125580, Note_on_c, 5, 67, 0
7, 125640, Note_on_c, 5, 64, 112
7, 125640, Note_on_c, 5, 72, 105
7, 125760, Note_on_c, 5, 72, 0
7, 125760, Note_on_c, 5, 64, 0
7, 126000, Note_on_c, 5, 72, 101
7, 126000, Note_on_c, 5, 60, 112
7, 126120, Note_on_c, 5, 60, 0
7, 126120, Note_on_c, 5, 72, 0
7, 126360, Note_on_c, 5, 60, 119
7, 126360, Note_on_c, 5, 72, 117
7, 126480, Note_on_c, 5, 72, 0
7, 126480, Note_on_c, 5, 60, 0
7, 126480, End_track
8, 0, Start_track
8, 0, MIDI_port, 0
8, 0, Title_t, "Timpani"
8, 0, Program_c, 6, 47
8, 0, Control_c, 6, 7, 100
8, 0, Control_c, 6, 10, 42
8, 0, Control_c, 6, 93, 0
8, 0, Control_c, 6, 91, 66
8, 9600, Note_on_c, 6, 48, 99
8, 9720, Note_on_c, 6, 48, 0
8, 9720, Note_on_c, 6, 48, 99
8, 9750, Note_on_c, 6, 48, 0
8, 9780, Note_on_c, 6, 48, 101
8, 9810, Note_on_c, 6, 48, 0
8, 9840, Note_on_c, 6, 48, 101
8, 9900, Note_on_c, 6, 48, 0
8, 10560, Note_on_c, 6, 48, 104
8, 10680, Note_on_c, 6, 48, 0
8, 10680, Note_on_c, 6, 48, 105
8, 10710, Note_on_c, 6, 48, 0
8, 10740, Note_on_c, 6, 48, 105
8, 10770, Note_on_c, 6, 48, 0
8, 10800, Note_on_c, 6, 43, 119
8, 10980, Note_on_c, 6, 43, 0
8, 10980, Note_on_c, 6, 43, 99
8, 11040, Note_on_c, 6, 43, 0
8, 11040, Note_on_c, 6, 48, 104
8, 11100, Note_on_c, 6, 48, 0
8, 11100, Note_on_c, 6, 48, 99
8, 11130, Note_on_c, 6, 48, 0
8, 11130, Note_on_c, 6, 48, 105
8, 11160, Note_on_c, 6, 48, 0
8, 11160, Note_on_c, 6, 48, 104
8, 11190, Note_on_c, 6, 48, 0
8, 11220, Note_on_c, 6, 48, 104
8, 11250, Note_on_c, 6, 48, 0
8, 11280, Note_on_c, 6, 43, 125
8, 11460, Note_on_c, 6, 43, 0
8, 11460, Note_on_c, 6, 43, 101
8, 11520, Note_on_c, 6, 43, 0
8, 11520, Note_on_c, 6, 48, 104
8, 11550, Note_on_c, 6, 48, 0
8, 11550, Note_on_c, 6, 48, 99
8, 11580, Note_on_c, 6, 48, 0
8, 11580, Note_on_c, 6, 48, 101
8, 11610, Note_on_c, 6, 48, 0
8, 11610, Note_on_c, 6, 48, 104
8, 11640, Note_on_c, 6, 48, 0
8, 11640, Note_on_c, 6, 48, 104
8, 11670, Note_on_c, 6, 48, 0
8, 11670, Note_on_c, 6, 48, 105
8, 11700, Note_on_c, 6, 48, 0
8, 11700, Note_on_c, 6, 48, 101
8, 11730, Note_on_c, 6, 48, 0
8, 11730, Note_on_c, 6, 48, 104
8, 11760, Note_on_c, 6, 48, 0
8, 11760, Note_on_c, 6, 43, 99
8, 11880, Note_on_c, 6, 43, 0
8, 12000, Note_on_c, 6, 43, 69
8, 12120, Note_on_c, 6, 43, 0
8, 12240, Note_on_c, 6, 48, 58
8, 12360, Note_on_c, 6, 48, 0
8, 12540, Note_on_c, 6, 43, 62
8, 12600, Note_on_c, 6, 43, 0
8, 12660, Note_on_c, 6, 48, 78
8, 12720, Note_on_c, 6, 48, 0
8, 12720, Note_on_c, 6, 43, 73
8, 12840, Note_on_c, 6, 43, 0
8, 13020, Note_on_c, 6, 43, 105
8, 13050, Note_on_c, 6, 43, 0
8, 13080, Note_on_c, 6, 43, 105
8, 13110, Note_on_c, 6, 43, 0
8, 13140, Note_on_c, 6, 43, 107
8, 13170, Note_on_c, 6, 43, 0
8, 13200, Note_on_c, 6, 48, 123
8, 13380, Note_on_c, 6, 48, 0
8, 13380, Note_on_c, 6, 48, 105
8, 13410, Note_on_c, 6, 48, 0
8, 13410, Note_on_c, 6, 48, 107
8, 13440, Note_on_c, 6, 48, 0
8, 13440, Note_on_c, 6, 48, 107
8, 13470, Note_on_c, 6, 48, 0
8, 13500, Note_on_c, 6, 48, 110
8, 13530, Note_on_c, 6, 48, 0
8, 13560, Note_on_c, 6, 43, 105
8, 13590, Note_on_c, 6, 43, 0
8, 13620, Note_on_c, 6, 43, 104
8, 13650, Note_on_c, 6, 43, 0
8, 13680, Note_on_c, 6, 48, 125
8, 13800, Note_on_c, 6, 48, 0
8, 13800, Note_on_c, 6, 48, 105
8, 13830, Note_on_c, 6, 48, 0
8, 13830, Note_on_c, 6, 48, 105
8, 13860, Note_on_c, 6, 48, 0
8, 13860, Note_on_c, 6, 48, 105
8, 13890, Note_on_c, 6, 48, 0
8, 13890, Note_on_c, 6, 48, 105
8, 13920, Note_on_c, 6, 48, 0
8, 13920, Note_on_c, 6, 48, 105
8, 13950, Note_on_c, 6, 48, 0
8, 13980, Note_on_c, 6, 48, 105
8, 14010, Note_on_c, 6, 48, 0
8, 14040, Note_on_c, 6, 43, 105
8, 14070, Note_on_c, 6, 43, 0
8, 14100, Note_on_c, 6, 43, 105
8, 14130, Note_on_c, 6, 43, 0
8, 14160, Note_on_c, 6, 48, 125
8, 14280, Note_on_c, 6, 48, 0
8, 14280, Note_on_c, 6, 48, 105
8, 14310, Note_on_c, 6, 48, 0
8, 14310, Note_on_c, 6, 48, 105
8, 14340, Note_on_c, 6, 48, 0
8, 14340, Note_on_c, 6, 48, 110
8, 14370, Note_on_c, 6, 48, 0
8, 14370, Note_on_c, 6, 48, 105
8, 14400, Note_on_c, 6, 48, 0
8, 14400, Note_on_c, 6, 48, 105
8, 14430, Note_on_c, 6, 48, 0
8, 14460, Note_on_c, 6, 48, 110
8, 14490, Note_on_c, 6, 48, 0
8, 14520, Note_on_c, 6, 43, 110
8, 14550, Note_on_c, 6, 43, 0
8, 14580, Note_on_c, 6, 43, 105
8, 14610, Note_on_c, 6, 43, 0
8, 14640, Note_on_c, 6, 48, 107
8, 14700, Note_on_c, 6, 48, 0
8, 14760, Note_on_c, 6, 43, 105
8, 14820, Note_on_c, 6, 43, 0
8, 14880, Note_on_c, 6, 48, 112
8, 14940, Note_on_c, 6, 48, 0
8, 15120, Note_on_c, 6, 48, 95
8, 15240, Note_on_c, 6, 48, 0
8, 15240, Note_on_c, 6, 48, 94
8, 15330, Note_on_c, 6, 48, 0
8, 15330, Note_on_c, 6, 48, 90
8, 15360, Note_on_c, 6, 48, 0
8, 15360, Note_on_c, 6, 48, 94
8, 15480, Note_on_c, 6, 48, 0
8, 16080, Note_on_c, 6, 48, 101
8, 16200, Note_on_c, 6, 48, 0
8, 16200, Note_on_c, 6, 48, 95
8, 16290, Note_on_c, 6, 48, 0
8, 16290, Note_on_c, 6, 48, 94
8, 16320, Note_on_c, 6, 48, 0
8, 16320, Note_on_c, 6, 48, 99
8, 16440, Note_on_c, 6, 48, 0
8, 42720, Note_on_c, 6, 48, 99
8, 42840, Note_on_c, 6, 48, 0
8, 42840, Note_on_c, 6, 48, 99
8, 42870, Note_on_c, 6, 48, 0
8, 42900, Note_on_c, 6, 48, 101
8, 42930, Note_on_c, 6, 48, 0
8, 42960, Note_on_c, 6, 48, 101
8, 43020, Note_on_c, 6, 48, 0
8, 43680, Note_on_c, 6, 48, 104
8, 43800, Note_on_c, 6, 48, 0
8, 43800, Note_on_c, 6, 48, 105
8, 43830, Note_on_c, 6, 48, 0
8, 43860, Note_on_c, 6, 48, 105
8, 43890, Note_on_c, 6, 48, 0
8, 43920, Note_on_c, 6, 43, 119
8, 44100, Note_on_c, 6, 43, 0
8, 44100, Note_on_c, 6, 43, 99
8, 44160, Note_on_c, 6, 43, 0
8, 44160, Note_on_c, 6, 48, 104
8, 44220, Note_on_c, 6, 48, 0
8, 44220, Note_on_c, 6, 48, 99
8, 44250, Note_on_c, 6, 48, 0
8, 44250, Note_on_c, 6, 48, 105
8, 44280, Note_on_c, 6, 48, 0
8, 44280, Note_on_c, 6, 48, 104
8, 44310, Note_on_c, 6, 48, 0
8, 44340, Note_on_c, 6, 48, 104
8, 44370, Note_on_c, 6, 48, 0
8, 44400, Note_on_c, 6, 43, 125
8, 44580, Note_on_c, 6, 43, 0
8, 44580, Note_on_c, 6, 43, 101
8, 44640, Note_on_c, 6, 43, 0
8, 44640, Note_on_c, 6, 48, 104
8, 44670, Note_on_c, 6, 48, 0
8, 44670, Note_on_c, 6, 48, 99
8, 44700, Note_on_c, 6, 48, 0
8, 44700, Note_on_c, 6, 48, 101
8, 44730, Note_on_c, 6, 48, 0
8, 44730, Note_on_c, 6, 48, 104
8, 44760, Note_on_c, 6, 48, 0
8, 44760, Note_on_c, 6, 48, 104
8, 44790, Note_on_c, 6, 48, 0
8, 44790, Note_on_c, 6, 48, 105
8, 44820, Note_on_c, 6, 48, 0
8, 44820, Note_on_c, 6, 48, 101
8, 44850, Note_on_c, 6, 48, 0
8, 44850, Note_on_c, 6, 48, 104
8, 44880, Note_on_c, 6, 48, 0
8, 44880, Note_on_c, 6, 43, 99
8, 45000, Note_on_c, 6, 43, 0
8, 45120, Note_on_c, 6, 43, 69
8, 45240, Note_on_c, 6, 43, 0
8, 45360, Note_on_c, 6, 48, 58
8, 45480, Note_on_c, 6, 48, 0
8, 45660, Note_on_c, 6, 43, 62
8, 45720, Note_on_c, 6, 43, 0
8, 45780, Note_on_c, 6, 48, 78
8, 45840, Note_on_c, 6, 48, 0
8, 45840, Note_on_c, 6, 43, 73
8, 45960, Note_on_c, 6, 43, 0
8, 46140, Note_on_c, 6, 43, 105
8, 46170, Note_on_c, 6, 43, 0
8, 46200, Note_on_c, 6, 43, 105
8, 46230, Note_on_c, 6, 43, 0
8, 46260, Note_on_c, 6, 43, 107
8, 46290, Note_on_c, 6, 43, 0
8, 46320, Note_on_c, 6, 48, 123
8, 46500, Note_on_c, 6, 48, 0
8, 46500, Note_on_c, 6, 48, 105
8, 46530, Note_on_c, 6, 48, 0
8, 46530, Note_on_c, 6, 48, 107
8, 46560, Note_on_c, 6, 48, 0
8, 46560, Note_on_c, 6, 48, 107
8, 46590, Note_on_c, 6, 48, 0
8, 46620, Note_on_c, 6, 48, 110
8, 46650, Note_on_c, 6, 48, 0
8, 46680, Note_on_c, 6, 43, 105
8, 46710, Note_on_c, 6, 43, 0
8, 46740, Note_on_c, 6, 43, 104
8, 46770, Note_on_c, 6, 43, 0
8, 46800, Note_on_c, 6, 48, 125
8, 46920, Note_on_c, 6, 48, 0
8, 46920, Note_on_c, 6, 48, 105
8, 46950, Note_on_c, 6, 48, 0
8, 46950, Note_on_c, 6, 48, 105
8, 46980, Note_on_c, 6, 48, 0
8, 46980, Note_on_c, 6, 48, 105
8, 47010, Note_on_c, 6, 48, 0
8, 47010, Note_on_c, 6, 48, 105
8, 47040, Note_on_c, 6, 48, 0
8, 47040, Note_on_c, 6, 48, 105
8, 47070, Note_on_c, 6, 48, 0
8, 47100, Note_on_c, 6, 48, 105
8, 47130, Note_on_c, 6, 48, 0
8, 47160, Note_on_c, 6, 43, 105
8, 47190, Note_on_c, 6, 43, 0
8, 47220, Note_on_c, 6, 43, 105
8, 47250, Note_on_c, 6, 43, 0
8, 47280, Note_on_c, 6, 48, 125
8, 47400, Note_on_c, 6, 48, 0
8, 47400, Note_on_c, 6, 48, 105
8, 47430, Note_on_c, 6, 48, 0
8, 47430, Note_on_c, 6, 48, 105
8, 47460, Note_on_c, 6, 48, 0
8, 47460, Note_on_c, 6, 48, 110
8, 47490, Note_on_c, 6, 48, 0
8, 47490, Note_on_c, 6, 48, 105
8, 47520, Note_on_c, 6, 48, 0
8, 47520, Note_on_c, 6, 48, 105
8, 47550, Note_on_c, 6, 48, 0
8, 47580, Note_on_c, 6, 48, 110
8, 47610, Note_on_c, 6, 48, 0
8, 47640, Note_on_c, 6, 43, 110
8, 47670, Note_on_c, 6, 43, 0
8, 47700, Note_on_c, 6, 43, 105
8, 47730, Note_on_c, 6, 43, 0
8, 47760, Note_on_c, 6, 48, 107
8, 47820, Note_on_c, 6, 48, 0
8, 47880, Note_on_c, 6, 43, 105
8, 47940, Note_on_c, 6, 43, 0
8, 48000, Note_on_c, 6, 48, 112
8, 48060, Note_on_c, 6, 48, 0
8, 63960, Note_on_c, 6, 48, 94
8, 63990, Note_on_c, 6, 48, 0
8, 63990, Note_on_c, 6, 48, 94
8, 64020, Note_on_c, 6, 48, 0
8, 64020, Note_on_c, 6, 48, 99
8, 64050, Note_on_c, 6, 48, 0
8, 64050, Note_on_c, 6, 48, 93
8, 64080, Note_on_c, 6, 48, 0
8, 64080, Note_on_c, 6, 48, 94
8, 64140, Note_on_c, 6, 48, 0
8, 64140, Note_on_c, 6, 48, 94
8, 64200, Note_on_c, 6, 48, 0
8, 64200, Note_on_c, 6, 48, 95
8, 64260, Note_on_c, 6, 48, 0
8, 64260, Note_on_c, 6, 48, 98
8, 64320, Note_on_c, 6, 48, 0
8, 64320, Note_on_c, 6, 43, 125
8, 64500, Note_on_c, 6, 43, 0
8, 64500, Note_on_c, 6, 43, 125
8, 64560, Note_on_c, 6, 43, 0
8, 64560, Note_on_c, 6, 48, 117
8, 64620, Note_on_c, 6, 48, 0
8, 64620, Note_on_c, 6, 48, 123
8, 64680, Note_on_c, 6, 48, 0
8, 64680, Note_on_c, 6, 48, 119
8, 64740, Note_on_c, 6, 48, 0
8, 64740, Note_on_c, 6, 48, 119
8, 64800, Note_on_c, 6, 48, 0
8, 64800, Note_on_c, 6, 43, 125
8, 64980, Note_on_c, 6, 43, 0
8, 64980, Note_on_c, 6, 43, 125
8, 65040, Note_on_c, 6, 43, 0
8, 65040, Note_on_c, 6, 48, 105
8, 65100, Note_on_c, 6, 48, 0
8, 65100, Note_on_c, 6, 48, 104
8, 65160, Note_on_c, 6, 48, 0
8, 65160, Note_on_c, 6, 48, 105
8, 65220, Note_on_c, 6, 48, 0
8, 65220, Note_on_c, 6, 48, 105
8, 65280, Note_on_c, 6, 48, 0
8, 65280, Note_on_c, 6, 43, 107
8, 65400, Note_on_c, 6, 43, 0
8, 78000, Note_on_c, 6, 43, 104
8, 78120, Note_on_c, 6, 43, 0
8, 78240, Note_on_c, 6, 48, 104
8, 78360, Note_on_c, 6, 48, 0
8, 78480, Note_on_c, 6, 43, 95
8, 78510, Note_on_c, 6, 43, 0
8, 78540, Note_on_c, 6, 43, 99
8, 78570, Note_on_c, 6, 43, 0
8, 78600, Note_on_c, 6, 48, 104
8, 78630, Note_on_c, 6, 48, 0
8, 78660, Note_on_c, 6, 48, 101
8, 78690, Note_on_c, 6, 48, 0
8, 78720, Note_on_c, 6, 43, 101
8, 78840, Note_on_c, 6, 43, 0
8, 78960, Note_on_c, 6, 43, 99
8, 79020, Note_on_c, 6, 43, 0
8, 79020, Note_on_c, 6, 43, 101
8, 79080, Note_on_c, 6, 43, 0
8, 79080, Note_on_c, 6, 43, 104
8, 79140, Note_on_c, 6, 43, 0
8, 79140, Note_on_c, 6, 43, 99
8, 79200, Note_on_c, 6, 43, 0
8, 79200, Note_on_c, 6, 48, 104
8, 79380, Note_on_c, 6, 48, 0
8, 79380, Note_on_c, 6, 48, 99
8, 79440, Note_on_c, 6, 48, 0
8, 79440, Note_on_c, 6, 48, 105
8, 79470, Note_on_c, 6, 48, 0
8, 79500, Note_on_c, 6, 48, 104
8, 79530, Note_on_c, 6, 48, 0
8, 79560, Note_on_c, 6, 43, 99
8, 79590, Note_on_c, 6, 43, 0
8, 79620, Note_on_c, 6, 43, 99
8, 79650, Note_on_c, 6, 43, 0
8, 79680, Note_on_c, 6, 48, 125
8, 79860, Note_on_c, 6, 48, 0
8, 79860, Note_on_c, 6, 48, 95
8, 79920, Note_on_c, 6, 48, 0
8, 79920, Note_on_c, 6, 48, 99
8, 79950, Note_on_c, 6, 48, 0
8, 79980, Note_on_c, 6, 48, 95
8, 80010, Note_on_c, 6, 48, 0
8, 80040, Note_on_c, 6, 43, 99
8, 80070, Note_on_c, 6, 43, 0
8, 80100, Note_on_c, 6, 43, 99
8, 80130, Note_on_c, 6, 43, 0
8, 80160, Note_on_c, 6, 48, 125
8, 80340, Note_on_c, 6, 48, 0
8, 80340, Note_on_c, 6, 48, 95
8, 80400, Note_on_c, 6, 48, 0
8, 80400, Note_on_c, 6, 48, 99
8, 80430, Note_on_c, 6, 48, 0
8, 80460, Note_on_c, 6, 48, 99
8, 80490, Note_on_c, 6, 48, 0
8, 80520, Note_on_c, 6, 43, 94
8, 80550, Note_on_c, 6, 43, 0
8, 80580, Note_on_c, 6, 43, 101
8, 80610, Note_on_c, 6, 43, 0
8, 80640, Note_on_c, 6, 48, 98
8, 80700, Note_on_c, 6, 48, 0
8, 80760, Note_on_c, 6, 43, 99
8, 80820, Note_on_c, 6, 43, 0
8, 80880, Note_on_c, 6, 48, 99
8, 80940, Note_on_c, 6, 48, 0
8, 81120, Note_on_c, 6, 48, 98
8, 81240, Note_on_c, 6, 48, 0
8, 81240, Note_on_c, 6, 48, 99
8, 81330, Note_on_c, 6, 48, 0
8, 81330, Note_on_c, 6, 48, 98
8, 81360, Note_on_c, 6, 48, 0
8, 81360, Note_on_c, 6, 48, 99
8, 81480, Note_on_c, 6, 48, 0
8, 82080, Note_on_c, 6, 48, 98
8, 82200, Note_on_c, 6, 48, 0
8, 82200, Note_on_c, 6, 48, 99
8, 82290, Note_on_c, 6, 48, 0
8, 82290, Note_on_c, 6, 48, 99
8, 82320, Note_on_c, 6, 48, 0
8, 82320, Note_on_c, 6, 48, 94
8, 82440, Note_on_c, 6, 48, 0
8, 97440, Note_on_c, 6, 43, 65
8, 97560, Note_on_c, 6, 43, 0
8, 97560, Note_on_c, 6, 43, 69
8, 97680, Note_on_c, 6, 43, 0
8, 97800, Note_on_c, 6, 43, 71
8, 97920, Note_on_c, 6, 43, 0
8, 98040, Note_on_c, 6, 43, 71
8, 98160, Note_on_c, 6, 43, 0
8, 98280, Note_on_c, 6, 43, 68
8, 98400, Note_on_c, 6, 43, 0
8, 98400, Note_on_c, 6, 43, 72
8, 98460, Note_on_c, 6, 43, 0
8, 98460, Note_on_c, 6, 43, 73
8, 98520, Note_on_c, 6, 43, 0
8, 98580, Note_on_c, 6, 43, 80
8, 98640, Note_on_c, 6, 43, 0
8, 98700, Note_on_c, 6, 43, 82
8, 98760, Note_on_c, 6, 43, 0
8, 98820, Note_on_c, 6, 43, 86
8, 98880, Note_on_c, 6, 43, 0
8, 98880, Note_on_c, 6, 43, 84
8, 98940, Note_on_c, 6, 43, 0
8, 98940, Note_on_c, 6, 43, 85
8, 99000, Note_on_c, 6, 43, 0
8, 99000, Note_on_c, 6, 43, 86
8, 99060, Note_on_c, 6, 43, 0
8, 99060, Note_on_c, 6, 43, 84
8, 99120, Note_on_c, 6, 43, 0
8, 99120, Note_on_c, 6, 43, 84
8, 99180, Note_on_c, 6, 43, 0
8, 99180, Note_on_c, 6, 43, 89
8, 99240, Note_on_c, 6, 43, 0
8, 99240, Note_on_c, 6, 43, 89
8, 99300, Note_on_c, 6, 43, 0
8, 99300, Note_on_c, 6, 43, 93
8, 99360, Note_on_c, 6, 43, 0
8, 99360, Note_on_c, 6, 43, 93
8, 99420, Note_on_c, 6, 43, 0
8, 99420, Note_on_c, 6, 43, 89
8, 99480, Note_on_c, 6, 43, 0
8, 99480, Note_on_c, 6, 43, 86
8, 99540, Note_on_c, 6, 43, 0
8, 99540, Note_on_c, 6, 43, 93
8, 99600, Note_on_c, 6, 43, 0
8, 99600, Note_on_c, 6, 43, 89
8, 99660, Note_on_c, 6, 43, 0
8, 99660, Note_on_c, 6, 43, 94
8, 99720, Note_on_c, 6, 43, 0
8, 99720, Note_on_c, 6, 43, 89
8, 99780, Note_on_c, 6, 43, 0
8, 99780, Note_on_c, 6, 43, 93
8, 99840, Note_on_c, 6, 43, 0
8, 99840, Note_on_c, 6, 43, 112
8, 99960, Note_on_c, 6, 43, 0
8, 99960, Note_on_c, 6, 43, 117
8, 100080, Note_on_c, 6, 43, 0
8, 100080, Note_on_c, 6, 43, 117
8, 100200, Note_on_c, 6, 43, 0
8, 100200, Note_on_c, 6, 43, 119
8, 100320, Note_on_c, 6, 43, 0
8, 100320, Note_on_c, 6, 43, 119
8, 100440, Note_on_c, 6, 43, 0
8, 100440, Note_on_c, 6, 43, 117
8, 100560, Note_on_c, 6, 43, 0
8, 100560, Note_on_c, 6, 43, 119
8, 100680, Note_on_c, 6, 43, 0
8, 100680, Note_on_c, 6, 43, 117
8, 100800, Note_on_c, 6, 43, 0
8, 100800, Note_on_c, 6, 43, 119
8, 101040, Note_on_c, 6, 43, 0
8, 101040, Note_on_c, 6, 43, 125
8, 101160, Note_on_c, 6, 43, 0
8, 101160, Note_on_c, 6, 43, 123
8, 101280, Note_on_c, 6, 43, 0
8, 101280, Note_on_c, 6, 43, 119
8, 101310, Note_on_c, 6, 43, 0
8, 101310, Note_on_c, 6, 43, 119
8, 101340, Note_on_c, 6, 43, 0
8, 101340, Note_on_c, 6, 43, 119
8, 101370, Note_on_c, 6, 43, 0
8, 101370, Note_on_c, 6, 43, 119
8, 101400, Note_on_c, 6, 43, 0
8, 101400, Note_on_c, 6, 43, 123
8, 101430, Note_on_c, 6, 43, 0
8, 101430, Note_on_c, 6, 43, 117
8, 101460, Note_on_c, 6, 43, 0
8, 101460, Note_on_c, 6, 43, 119
8, 101490, Note_on_c, 6, 43, 0
8, 101490, Note_on_c, 6, 43, 119
8, 101520, Note_on_c, 6, 43, 0
8, 101520, Note_on_c, 6, 43, 119
8, 101550, Note_on_c, 6, 43, 0
8, 101550, Note_on_c, 6, 43, 119
8, 101580, Note_on_c, 6, 43, 0
8, 101580, Note_on_c, 6, 43, 125
8, 101610, Note_on_c, 6, 43, 0
8, 101610, Note_on_c, 6, 43, 123
8, 101640, Note_on_c, 6, 43, 0
8, 101640, Note_on_c, 6, 43, 119
8, 101670, Note_on_c, 6, 43, 0
8, 101670, Note_on_c, 6, 43, 119
8, 101700, Note_on_c, 6, 43, 0
8, 101700, Note_on_c, 6, 43, 119
8, 101730, Note_on_c, 6, 43, 0
8, 101730, Note_on_c, 6, 43, 119
8, 101760, Note_on_c, 6, 43, 0
8, 101760, Note_on_c, 6, 43, 125
8, 101790, Note_on_c, 6, 43, 0
8, 101790, Note_on_c, 6, 43, 119
8, 101820, Note_on_c, 6, 43, 0
8, 101820, Note_on_c, 6, 43, 119
8, 101850, Note_on_c, 6, 43, 0
8, 101850, Note_on_c, 6, 43, 119
8, 101880, Note_on_c, 6, 43, 0
8, 101880, Note_on_c, 6, 43, 123
8, 101910, Note_on_c, 6, 43, 0
8, 101910, Note_on_c, 6, 43, 123
8, 101940, Note_on_c, 6, 43, 0
8, 101940, Note_on_c, 6, 43, 125
8, 101970, Note_on_c, 6, 43, 0
8, 101970, Note_on_c, 6, 43, 125
8, 102000, Note_on_c, 6, 43, 0
8, 102000, Note_on_c, 6, 43, 127
8, 102030, Note_on_c, 6, 43, 0
8, 102030, Note_on_c, 6, 43, 119
8, 102060, Note_on_c, 6, 43, 0
8, 102060, Note_on_c, 6, 43, 119
8, 102090, Note_on_c, 6, 43, 0
8, 102090, Note_on_c, 6, 43, 125
8, 102120, Note_on_c, 6, 43, 0
8, 102120, Note_on_c, 6, 43, 123
8, 102150, Note_on_c, 6, 43, 0
8, 102150, Note_on_c, 6, 43, 125
8, 102180, Note_on_c, 6, 43, 0
8, 102180, Note_on_c, 6, 43, 117
8, 102210, Note_on_c, 6, 43, 0
8, 102210, Note_on_c, 6, 43, 127
8, 102240, Note_on_c, 6, 43, 0
8, 102240, Note_on_c, 6, 43, 123
8, 102270, Note_on_c, 6, 43, 0
8, 102270, Note_on_c, 6, 43, 119
8, 102300, Note_on_c, 6, 43, 0
8, 102300, Note_on_c, 6, 43, 125
8, 102330, Note_on_c, 6, 43, 0
8, 102330, Note_on_c, 6, 43, 119
8, 102360, Note_on_c, 6, 43, 0
8, 109080, Note_on_c, 6, 48, 98
8, 109200, Note_on_c, 6, 48, 0
8, 109740, Note_on_c, 6, 48, 98
8, 109760, Note_on_c, 6, 48, 0
8, 109760, Note_on_c, 6, 48, 95
8, 109780, Note_on_c, 6, 48, 0
8, 109780, Note_on_c, 6, 48, 94
8, 109800, Note_on_c, 6, 48, 0
8, 109800, Note_on_c, 6, 48, 99
8, 109920, Note_on_c, 6, 48, 0
8, 110460, Note_on_c, 6, 48, 95
8, 110480, Note_on_c, 6, 48, 0
8, 110480, Note_on_c, 6, 48, 94
8, 110500, Note_on_c, 6, 48, 0
8, 110500, Note_on_c, 6, 48, 95
8, 110520, Note_on_c, 6, 48, 0
8, 110520, Note_on_c, 6, 48, 104
8, 110640, Note_on_c, 6, 48, 0
8, 111180, Note_on_c, 6, 48, 94
8, 111200, Note_on_c, 6, 48, 0
8, 111200, Note_on_c, 6, 48, 95
8, 111220, Note_on_c, 6, 48, 0
8, 111220, Note_on_c, 6, 48, 99
8, 111240, Note_on_c, 6, 48, 0
8, 111240, Note_on_c, 6, 48, 99
8, 111360, Note_on_c, 6, 48, 0
8, 111900, Note_on_c, 6, 48, 99
8, 111920, Note_on_c, 6, 48, 0
8, 111920, Note_on_c, 6, 48, 99
8, 111940, Note_on_c, 6, 48, 0
8, 111940, Note_on_c, 6, 48, 104
8, 111960, Note_on_c, 6, 48, 0
8, 111960, Note_on_c, 6, 48, 105
8, 112080, Note_on_c, 6, 48, 0
8, 123840, Note_on_c, 6, 43, 72
8, 123960, Note_on_c, 6, 43, 0
8, 124200, Note_on_c, 6, 48, 127
8, 124230, Note_on_c, 6, 48, 0
8, 124230, Note_on_c, 6, 48, 115
8, 124260, Note_on_c, 6, 48, 0
8, 124260, Note_on_c, 6, 48, 115
8, 124290, Note_on_c, 6, 48, 0
8, 124290, Note_on_c, 6, 48, 115
8, 124320, Note_on_c, 6, 48, 0
8, 124320, Note_on_c, 6, 48, 112
8, 124350, Note_on_c, 6, 48, 0
8, 124350, Note_on_c, 6, 48, 112
8, 124380, Note_on_c, 6, 48, 0
8, 124380, Note_on_c, 6, 48, 115
8, 124410, Note_on_c, 6, 48, 0
8, 124410, Note_on_c, 6, 48, 119
8, 124440, Note_on_c, 6, 48, 0
8, 124440, Note_on_c, 6, 48, 115
8, 124470, Note_on_c, 6, 48, 0
8, 124470, Note_on_c, 6, 48, 112
8, 124500, Note_on_c, 6, 48, 0
8, 124500, Note_on_c, 6, 48, 115
8, 124530, Note_on_c, 6, 48, 0
8, 124530, Note_on_c, 6, 48, 115
8, 124560, Note_on_c, 6, 48, 0
8, 124560, Note_on_c, 6, 48, 127
8, 124590, Note_on_c, 6, 48, 0
8, 124590, Note_on_c, 6, 48, 119
8, 124620, Note_on_c, 6, 48, 0
8, 124620, Note_on_c, 6, 48, 112
8, 124650, Note_on_c, 6, 48, 0
8, 124650, Note_on_c, 6, 48, 115
8, 124680, Note_on_c, 6, 48, 0
8, 124680, Note_on_c, 6, 48, 115
8, 124710, Note_on_c, 6, 48, 0
8, 124710, Note_on_c, 6, 48, 112
8, 124740, Note_on_c, 6, 48, 0
8, 124740, Note_on_c, 6, 48, 112
8, 124770, Note_on_c, 6, 48, 0
8, 124770, Note_on_c, 6, 48, 112
8, 124800, Note_on_c, 6, 48, 0
8, 124800, Note_on_c, 6, 48, 115
8, 124830, Note_on_c, 6, 48, 0
8, 124830, Note_on_c, 6, 48, 119
8, 124860, Note_on_c, 6, 48, 0
8, 124860, Note_on_c, 6, 48, 119
8, 124890, Note_on_c, 6, 48, 0
8, 124890, Note_on_c, 6, 48, 123
8, 124920, Note_on_c, 6, 48, 0
8, 124920, Note_on_c, 6, 48, 107
8, 125040, Note_on_c, 6, 48, 0
8, 125100, Note_on_c, 6, 43, 107
8, 125220, Note_on_c, 6, 43, 0
8, 125280, Note_on_c, 6, 48, 107
8, 125400, Note_on_c, 6, 48, 0
8, 125460, Note_on_c, 6, 43, 112
8, 125580, Note_on_c, 6, 43, 0
8, 125640, Note_on_c, 6, 48, 112
8, 125760, Note_on_c, 6, 48, 0
8, 126000, Note_on_c, 6, 48, 112
8, 126120, Note_on_c, 6, 48, 0
8, 126360, Note_on_c, 6, 48, 127
8, 126480, Note_on_c, 6, 48, 0
8, 126480, End_track
9, 0, Start_track
9, 0, MIDI_port, 0
9, 0, Title_t, "Piano"
9, 0, Program_c, 7, 0
9, 0, Control_c, 7, 7, 100
9, 0, Control_c, 7, 10, 64
9, 0, Control_c, 7, 93, 0
9, 0, Control_c, 7, 91, 66
9, 180, Note_on_c, 7, 79, 82
9, 240, Note_on_c, 7, 79, 0
9, 240, Note_on_c, 7, 80, 81
9, 240, Note_on_c, 7, 43, 80
9, 270, Note_on_c, 7, 43, 0
9, 270, Note_on_c, 7, 55, 73
9, 300, Note_on_c, 7, 55, 0
9, 300, Note_on_c, 7, 80, 0
9, 300, Note_on_c, 7, 71, 89
9, 300, Note_on_c, 7, 50, 89
9, 330, Note_on_c, 7, 50, 0
9, 330, Note_on_c, 7, 55, 76
9, 360, Note_on_c, 7, 55, 0
9, 360, Note_on_c, 7, 71, 0
9, 360, Note_on_c, 7, 71, 89
9, 360, Note_on_c, 7, 53, 84
9, 390, Note_on_c, 7, 53, 0
9, 390, Note_on_c, 7, 71, 0
9, 390, Note_on_c, 7, 55, 74
9, 420, Note_on_c, 7, 55, 0
9, 420, Note_on_c, 7, 71, 94
9, 420, Note_on_c, 7, 50, 90
9, 450, Note_on_c, 7, 50, 0
9, 450, Note_on_c, 7, 71, 0
9, 450, Note_on_c, 7, 55, 80
9, 480, Note_on_c, 7, 55, 0
9, 480, Note_on_c, 7, 72, 84
9, 480, Note_on_c, 7, 51, 84
9, 510, Note_on_c, 7, 51, 0
9, 510, Note_on_c, 7, 55, 74
9, 540, Note_on_c, 7, 55, 0
9, 540, Note_on_c, 7, 50, 93
9, 570, Note_on_c, 7, 50, 0
9, 570, Note_on_c, 7, 55, 76
9, 600, Note_on_c, 7, 55, 0
9, 600, Note_on_c, 7, 72, 0
9, 600, Note_on_c, 7, 74, 98
9, 600, Note_on_c, 7, 51, 89
9, 630, Note_on_c, 7, 51, 0
9, 630, Note_on_c, 7, 74, 0
9, 630, Note_on_c, 7, 72, 74
9, 630, Note_on_c, 7, 55, 77
9, 660, Note_on_c, 7, 55, 0
9, 660, Note_on_c, 7, 72, 0
9, 660, Note_on_c, 7, 71, 99
9, 660, Note_on_c, 7, 48, 84
9, 690, Note_on_c, 7, 48, 0
9, 690, Note_on_c, 7, 71, 0
9, 690, Note_on_c, 7, 72, 89
9, 690, Note_on_c, 7, 55, 76
9, 720, Note_on_c, 7, 55, 0
9, 720, Note_on_c, 7, 72, 0
9, 720, Note_on_c, 7, 74, 99
9, 720, Note_on_c, 7, 47, 89
9, 750, Note_on_c, 7, 47, 0
9, 750, Note_on_c, 7, 74, 0
9, 750, Note_on_c, 7, 55, 107
9, 780, Note_on_c, 7, 55, 0
9, 780, Note_on_c, 7, 43, 80
9, 780, Note_on_c, 7, 74, 112
9, 810, Note_on_c, 7, 74, 0
9, 810, Note_on_c, 7, 43, 0
9, 810, Note_on_c, 7, 55, 82
9, 840, Note_on_c, 7, 55, 0
9, 840, Note_on_c, 7, 48, 89
9, 840, Note_on_c, 7, 75, 95
9, 870, Note_on_c, 7, 75, 0
9, 870, Note_on_c, 7, 48, 0
9, 870, Note_on_c, 7, 55, 107
9, 900, Note_on_c, 7, 55, 0
9, 900, Note_on_c, 7, 43, 76
9, 900, Note_on_c, 7, 75, 117
9, 930, Note_on_c, 7, 75, 0
9, 930, Note_on_c, 7, 43, 0
9, 930, Note_on_c, 7, 55, 84
9, 960, Note_on_c, 7, 55, 0
9, 960, Note_on_c, 7, 47, 93
9, 960, Note_on_c, 7, 74, 104
9, 990, Note_on_c, 7, 47, 0
9, 990, Note_on_c, 7, 55, 81
9, 1020, Note_on_c, 7, 55, 0
9, 1020, Note_on_c, 7, 43, 89
9, 1050, Note_on_c, 7, 43, 0
9, 1050, Note_on_c, 7, 74, 0
9, 1050, Note_on_c, 7, 75, 95
9, 1050, Note_on_c, 7, 55, 81
9, 1080, Note_on_c, 7, 55, 0
9, 1080, Note_on_c, 7, 75, 0
9, 1080, Note_on_c, 7, 76, 98
9, 1080, Note_on_c, 7, 47, 90
9, 1110, Note_on_c, 7, 47, 0
9, 1110, Note_on_c, 7, 76, 0
9, 1110, Note_on_c, 7, 77, 76
9, 1110, Note_on_c, 7, 55, 84
9, 1140, Note_on_c, 7, 55, 0
9, 1140, Note_on_c, 7, 77, 0
9, 1140, Note_on_c, 7, 78, 89
9, 1140, Note_on_c, 7, 43, 85
9, 1170, Note_on_c, 7, 43, 0
9, 1170, Note_on_c, 7, 78, 0
9, 1170, Note_on_c, 7, 79, 95
9, 1170, Note_on_c, 7, 55, 80
9, 1200, Note_on_c, 7, 55, 0
9, 1200, Note_on_c, 7, 79, 0
9, 1200, Note_on_c, 7, 80, 94
9, 1200, Note_on_c, 7, 47, 90
9, 1230, Note_on_c, 7, 47, 0
9, 1230, Note_on_c, 7, 55, 81
9, 1260, Note_on_c, 7, 55, 0
9, 1260, Note_on_c, 7, 80, 0
9, 1260, Note_on_c, 7, 71, 95
9, 1260, Note_on_c, 7, 50, 95
9, 1290, Note_on_c, 7, 50, 0
9, 1290, Note_on_c, 7, 55, 81
9, 1320, Note_on_c, 7, 55, 0
9, 1320, Note_on_c, 7, 71, 0
9, 1320, Note_on_c, 7, 71, 95
9, 1320, Note_on_c, 7, 53, 81
9, 1350, Note_on_c, 7, 53, 0
9, 1350, Note_on_c, 7, 71, 0
9, 1350, Note_on_c, 7, 55, 81
9, 1380, Note_on_c, 7, 55, 0
9, 1380, Note_on_c, 7, 71, 94
9, 1380, Note_on_c, 7, 50, 104
9, 1410, Note_on_c, 7, 50, 0
9, 1410, Note_on_c, 7, 71, 0
9, 1410, Note_on_c, 7, 55, 80
9, 1440, Note_on_c, 7, 55, 0
9, 1440, Note_on_c, 7, 72, 90
9, 1440, Note_on_c, 7, 51, 86
9, 1470, Note_on_c, 7, 51, 0
9, 1470, Note_on_c, 7, 55, 81
9, 1500, Note_on_c, 7, 55, 0
9, 1500, Note_on_c, 7, 50, 95
9, 1530, Note_on_c, 7, 50, 0
9, 1530, Note_on_c, 7, 55, 76
9, 1560, Note_on_c, 7, 55, 0
9, 1560, Note_on_c, 7, 72, 0
9, 1560, Note_on_c, 7, 51, 89
9, 1560, Note_on_c, 7, 74, 95
9, 1590, Note_on_c, 7, 74, 0
9, 1590, Note_on_c, 7, 51, 0
9, 1590, Note_on_c, 7, 72, 80
9, 1590, Note_on_c, 7, 55, 80
9, 1620, Note_on_c, 7, 55, 0
9, 1620, Note_on_c, 7, 72, 0
9, 1620, Note_on_c, 7, 71, 95
9, 1620, Note_on_c, 7, 48, 89
9, 1650, Note_on_c, 7, 48, 0
9, 1650, Note_on_c, 7, 71, 0
9, 1650, Note_on_c, 7, 72, 86
9, 1650, Note_on_c, 7, 55, 76
9, 1680, Note_on_c, 7, 55, 0
9, 1680, Note_on_c, 7, 72, 0
9, 1680, Note_on_c, 7, 74, 98
9, 1680, Note_on_c, 7, 46, 86
9, 1710, Note_on_c, 7, 46, 0
9, 1710, Note_on_c, 7, 55, 80
9, 1740, Note_on_c, 7, 55, 0
9, 1740, Note_on_c, 7, 74, 0
9, 1740, Note_on_c, 7, 70, 99
9, 1740, Note_on_c, 7, 51, 94
9, 1770, Note_on_c, 7, 51, 0
9, 1770, Note_on_c, 7, 55, 80
9, 1800, Note_on_c, 7, 55, 0
9, 1800, Note_on_c, 7, 70, 0
9, 1800, Note_on_c, 7, 69, 95
9, 1800, Note_on_c, 7, 48, 95
9, 1830, Note_on_c, 7, 48, 0
9, 1830, Note_on_c, 7, 69, 0
9, 1830, Note_on_c, 7, 55, 80
9, 1860, Note_on_c, 7, 55, 0
9, 1860, Note_on_c, 7, 74, 105
9, 1860, Note_on_c, 7, 50, 99
9, 1890, Note_on_c, 7, 50, 0
9, 1890, Note_on_c, 7, 74, 0
9, 1890, Note_on_c, 7, 54, 84
9, 1920, Note_on_c, 7, 54, 0
9, 1920, Note_on_c, 7, 67, 90
9, 1920, Note_on_c, 7, 43, 93
9, 1950, Note_on_c, 7, 43, 0
9, 1950, Note_on_c, 7, 55, 86
9, 1980, Note_on_c, 7, 55, 0
9, 1980, Note_on_c, 7, 67, 0
9, 1980, Note_on_c, 7, 50, 104
9, 2010, Note_on_c, 7, 50, 0
9, 2010, Note_on_c, 7, 46, 94
9, 2040, Note_on_c, 7, 46, 0
9, 2040, Note_on_c, 7, 43, 95
9, 2100, Note_on_c, 7, 43, 0
9, 2160, Note_on_c, 7, 47, 65
9, 2160, Note_on_c, 7, 59, 61
9, 2190, Note_on_c, 7, 59, 0
9, 2190, Note_on_c, 7, 47, 0
9, 2190, Note_on_c, 7, 50, 73
9, 2190, Note_on_c, 7, 62, 65
9, 2220, Note_on_c, 7, 62, 0
9, 2220, Note_on_c, 7, 50, 0
9, 2220, Note_on_c, 7, 65, 67
9, 2220, Note_on_c, 7, 53, 56
9, 2250, Note_on_c, 7, 53, 0
9, 2250, Note_on_c, 7, 65, 0
9, 2250, Note_on_c, 7, 56, 73
9, 2250, Note_on_c, 7, 68, 80
9, 2280, Note_on_c, 7, 68, 0
9, 2280, Note_on_c, 7, 56, 0
9, 2280, Note_on_c, 7, 67, 68
9, 2280, Note_on_c, 7, 55, 68
9, 2310, Note_on_c, 7, 55, 0
9, 2310, Note_on_c, 7, 67, 0
9, 2310, Note_on_c, 7, 65, 74
9, 2310, Note_on_c, 7, 53, 68
9, 2340, Note_on_c, 7, 53, 0
9, 2340, Note_on_c, 7, 65, 0
9, 2340, Note_on_c, 7, 63, 68
9, 2340, Note_on_c, 7, 51, 69
9, 2370, Note_on_c, 7, 51, 0
9, 2370, Note_on_c, 7, 63, 0
9, 2370, Note_on_c, 7, 62, 68
9, 2370, Note_on_c, 7, 50, 80
9, 2400, Note_on_c, 7, 50, 0
9, 2400, Note_on_c, 7, 62, 0
9, 2400, Note_on_c, 7, 63, 63
9, 2400, Note_on_c, 7, 51, 85
9, 2430, Note_on_c, 7, 51, 0
9, 2430, Note_on_c, 7, 63, 0
9, 2430, Note_on_c, 7, 67, 71
9, 2430, Note_on_c, 7, 55, 77
9, 2460, Note_on_c, 7, 55, 0
9, 2460, Note_on_c, 7, 67, 0
9, 2460, Note_on_c, 7, 60, 80
9, 2460, Note_on_c, 7, 72, 67
9, 2490, Note_on_c, 7, 72, 0
9, 2490, Note_on_c, 7, 60, 0
9, 2490, Note_on_c, 7, 75, 86
9, 2490, Note_on_c, 7, 63, 72
9, 2520, Note_on_c, 7, 63, 0
9, 2520, Note_on_c, 7, 75, 0
9, 2520, Note_on_c, 7, 67, 68
9, 2520, Note_on_c, 7, 79, 90
9, 2550, Note_on_c, 7, 79, 0
9, 2550, Note_on_c, 7, 67, 0
9, 2550, Note_on_c, 7, 75, 73
9, 2550, Note_on_c, 7, 63, 66
9, 2580, Note_on_c, 7, 63, 0
9, 2580, Note_on_c, 7, 75, 0
9, 2580, Note_on_c, 7, 62, 76
9, 2580, Note_on_c, 7, 74, 72
9, 2610, Note_on_c, 7, 74, 0
9, 2610, Note_on_c, 7, 62, 0
9, 2610, Note_on_c, 7, 60, 78
9, 2610, Note_on_c, 7, 72, 81
9, 2640, Note_on_c, 7, 72, 0
9, 2640, Note_on_c, 7, 60, 0
9, 2640, Note_on_c, 7, 59, 69
9, 2640, Note_on_c, 7, 71, 76
9, 2670, Note_on_c, 7, 71, 0
9, 2670, Note_on_c, 7, 59, 0
9, 2670, Note_on_c, 7, 74, 80
9, 2670, Note_on_c, 7, 62, 57
9, 2700, Note_on_c, 7, 62, 0
9, 2700, Note_on_c, 7, 74, 0
9, 2700, Note_on_c, 7, 59, 76
9, 2700, Note_on_c, 7, 71, 90
9, 2730, Note_on_c, 7, 71, 0
9, 2730, Note_on_c, 7, 59, 0
9, 2730, Note_on_c, 7, 55, 74
9, 2730, Note_on_c, 7, 67, 70
9, 2760, Note_on_c, 7, 67, 0
9, 2760, Note_on_c, 7, 55, 0
9, 2760, Note_on_c, 7, 60, 89
9, 2760, Note_on_c, 7, 72, 80
9, 2790, Note_on_c, 7, 72, 0
9, 2790, Note_on_c, 7, 60, 0
9, 2790, Note_on_c, 7, 75, 85
9, 2790, Note_on_c, 7, 63, 59
9, 2820, Note_on_c, 7, 63, 0
9, 2820, Note_on_c, 7, 75, 0
9, 2820, Note_on_c, 7, 72, 81
9, 2820, Note_on_c, 7, 60, 84
9, 2850, Note_on_c, 7, 60, 0
9, 2850, Note_on_c, 7, 72, 0
9, 2850, Note_on_c, 7, 55, 82
9, 2850, Note_on_c, 7, 67, 68
9, 2880, Note_on_c, 7, 67, 0
9, 2880, Note_on_c, 7, 55, 0
9, 2880, Note_on_c, 7, 59, 61
9, 2880, Note_on_c, 7, 71, 82
9, 2910, Note_on_c, 7, 71, 0
9, 2910, Note_on_c, 7, 59, 0
9, 2910, Note_on_c, 7, 74, 71
9, 2910, Note_on_c, 7, 62, 63
9, 2940, Note_on_c, 7, 62, 0
9, 2940, Note_on_c, 7, 74, 0
9, 2940, Note_on_c, 7, 59, 66
9, 2940, Note_on_c, 7, 71, 82
9, 2970, Note_on_c, 7, 71, 0
9, 2970, Note_on_c, 7, 59, 0
9, 2970, Note_on_c, 7, 55, 78
9, 2970, Note_on_c, 7, 67, 54
9, 3000, Note_on_c, 7, 67, 0
9, 3000, Note_on_c, 7, 55, 0
9, 3000, Note_on_c, 7, 71, 76
9, 3000, Note_on_c, 7, 59, 63
9, 3030, Note_on_c, 7, 59, 0
9, 3030, Note_on_c, 7, 71, 0
9, 3030, Note_on_c, 7, 55, 72
9, 3030, Note_on_c, 7, 67, 60
9, 3060, Note_on_c, 7, 67, 0
9, 3060, Note_on_c, 7, 55, 0
9, 3060, Note_on_c, 7, 59, 66
9, 3060, Note_on_c, 7, 71, 73
9, 3090, Note_on_c, 7, 71, 0
9, 3090, Note_on_c, 7, 59, 0
9, 3090, Note_on_c, 7, 55, 73
9, 3090, Note_on_c, 7, 67, 62
9, 3120, Note_on_c, 7, 67, 0
9, 3120, Note_on_c, 7, 55, 0
9, 3120, Note_on_c, 7, 59, 80
9, 3120, Note_on_c, 7, 71, 68
9, 3150, Note_on_c, 7, 71, 0
9, 3150, Note_on_c, 7, 59, 0
9, 3150, Note_on_c, 7, 74, 89
9, 3150, Note_on_c, 7, 62, 71
9, 3180, Note_on_c, 7, 62, 0
9, 3180, Note_on_c, 7, 74, 0
9, 3180, Note_on_c, 7, 65, 76
9, 3180, Note_on_c, 7, 77, 80
9, 3210, Note_on_c, 7, 77, 0
9, 3210, Note_on_c, 7, 65, 0
9, 3210, Note_on_c, 7, 68, 73
9, 3210, Note_on_c, 7, 80, 85
9, 3240, Note_on_c, 7, 80, 0
9, 3240, Note_on_c, 7, 68, 0
9, 3240, Note_on_c, 7, 67, 67
9, 3240, Note_on_c, 7, 79, 80
9, 3270, Note_on_c, 7, 79, 0
9, 3270, Note_on_c, 7, 67, 0
9, 3270, Note_on_c, 7, 77, 76
9, 3270, Note_on_c, 7, 65, 76
9, 3300, Note_on_c, 7, 65, 0
9, 3300, Note_on_c, 7, 77, 0
9, 3300, Note_on_c, 7, 63, 74
9, 3300, Note_on_c, 7, 75, 77
9, 3330, Note_on_c, 7, 75, 0
9, 3330, Note_on_c, 7, 63, 0
9, 3330, Note_on_c, 7, 74, 74
9, 3330, Note_on_c, 7, 62, 73
9, 3360, Note_on_c, 7, 62, 0
9, 3360, Note_on_c, 7, 74, 0
9, 3360, Note_on_c, 7, 75, 94
9, 3360, Note_on_c, 7, 63, 84
9, 3390, Note_on_c, 7, 63, 0
9, 3390, Note_on_c, 7, 75, 0
9, 3390, Note_on_c, 7, 65, 76
9, 3390, Note_on_c, 7, 77, 72
9, 3420, Note_on_c, 7, 77, 0
9, 3420, Note_on_c, 7, 65, 0
9, 3420, Note_on_c, 7, 66, 74
9, 3420, Note_on_c, 7, 78, 76
9, 3450, Note_on_c, 7, 78, 0
9, 3450, Note_on_c, 7, 66, 0
9, 3450, Note_on_c, 7, 67, 63
9, 3450, Note_on_c, 7, 79, 89
9, 3480, Note_on_c, 7, 79, 0
9, 3480, Note_on_c, 7, 67, 0
9, 3480, Note_on_c, 7, 77, 80
9, 3480, Note_on_c, 7, 65, 82
9, 3510, Note_on_c, 7, 65, 0
9, 3510, Note_on_c, 7, 77, 0
9, 3510, Note_on_c, 7, 75, 89
9, 3510, Note_on_c, 7, 63, 80
9, 3540, Note_on_c, 7, 63, 0
9, 3540, Note_on_c, 7, 75, 0
9, 3540, Note_on_c, 7, 74, 86
9, 3540, Note_on_c, 7, 62, 82
9, 3570, Note_on_c, 7, 62, 0
9, 3570, Note_on_c, 7, 74, 0
9, 3570, Note_on_c, 7, 60, 65
9, 3570, Note_on_c, 7, 72, 78
9, 3600, Note_on_c, 7, 72, 0
9, 3600, Note_on_c, 7, 60, 0
9, 3600, Note_on_c, 7, 70, 89
9, 3600, Note_on_c, 7, 58, 80
9, 3630, Note_on_c, 7, 58, 0
9, 3630, Note_on_c, 7, 70, 0
9, 3630, Note_on_c, 7, 62, 61
9, 3630, Note_on_c, 7, 74, 93
9, 3660, Note_on_c, 7, 74, 0
9, 3660, Note_on_c, 7, 62, 0
9, 3660, Note_on_c, 7, 67, 68
9, 3660, Note_on_c, 7, 55, 70
9, 3690, Note_on_c, 7, 55, 0
9, 3690, Note_on_c, 7, 67, 0
9, 3690, Note_on_c, 7, 70, 89
9, 3690, Note_on_c, 7, 58, 71
9, 3720, Note_on_c, 7, 58, 0
9, 3720, Note_on_c, 7, 70, 0
9, 3720, Note_on_c, 7, 54, 81
9, 3720, Note_on_c, 7, 66, 80
9, 3750, Note_on_c, 7, 66, 0
9, 3750, Note_on_c, 7, 54, 0
9, 3750, Note_on_c, 7, 72, 89
9, 3750, Note_on_c, 7, 60, 80
9, 3780, Note_on_c, 7, 60, 0
9, 3780, Note_on_c, 7, 72, 0
9, 3780, Note_on_c, 7, 69, 76
9, 3780, Note_on_c, 7, 57, 80
9, 3810, Note_on_c, 7, 57, 0
9, 3810, Note_on_c, 7, 69, 0
9, 3810, Note_on_c, 7, 54, 72
9, 3810, Note_on_c, 7, 66, 77
9, 3840, Note_on_c, 7, 66, 0
9, 3840, Note_on_c, 7, 54, 0
9, 3840, Note_on_c, 7, 67, 86
9, 3840, Note_on_c, 7, 55, 89
9, 3870, Note_on_c, 7, 55, 0
9, 3870, Note_on_c, 7, 67, 0
9, 3870, Note_on_c, 7, 50, 94
9, 3870, Note_on_c, 7, 62, 84
9, 3900, Note_on_c, 7, 62, 0
9, 3900, Note_on_c, 7, 50, 0
9, 3900, Note_on_c, 7, 46, 81
9, 3900, Note_on_c, 7, 58, 77
9, 3930, Note_on_c, 7, 58, 0
9, 3930, Note_on_c, 7, 46, 0
9, 3930, Note_on_c, 7, 62, 89
9, 3930, Note_on_c, 7, 50, 95
9, 3960, Note_on_c, 7, 50, 0
9, 3960, Note_on_c, 7, 62, 0
9, 3960, Note_on_c, 7, 55, 72
9, 3960, Note_on_c, 7, 43, 76
9, 4020, Note_on_c, 7, 43, 0
9, 4020, Note_on_c, 7, 55, 0
9, 4020, Note_on_c, 7, 79, 94
9, 4080, Note_on_c, 7, 79, 0
9, 4080, Note_on_c, 7, 82, 76
9, 4080, Note_on_c, 7, 52, 86
9, 4110, Note_on_c, 7, 52, 0
9, 4110, Note_on_c, 7, 60, 76
9, 4140, Note_on_c, 7, 60, 0
9, 4140, Note_on_c, 7, 82, 0
9, 4140, Note_on_c, 7, 76, 89
9, 4140, Note_on_c, 7, 55, 90
9, 4170, Note_on_c, 7, 55, 0
9, 4170, Note_on_c, 7, 60, 74
9, 4200, Note_on_c, 7, 60, 0
9, 4200, Note_on_c, 7, 76, 0
9, 4200, Note_on_c, 7, 76, 98
9, 4200, Note_on_c, 7, 58, 84
9, 4230, Note_on_c, 7, 58, 0
9, 4230, Note_on_c, 7, 76, 0
9, 4230, Note_on_c, 7, 60, 76
9, 4260, Note_on_c, 7, 60, 0
9, 4260, Note_on_c, 7, 76, 94
9, 4260, Note_on_c, 7, 55, 89
9, 4290, Note_on_c, 7, 55, 0
9, 4290, Note_on_c, 7, 76, 0
9, 4290, Note_on_c, 7, 60, 84
9, 4305, Note_on_c, 7, 79, 84
9, 4320, Note_on_c, 7, 79, 0
9, 4320, Note_on_c, 7, 60, 0
9, 4320, Note_on_c, 7, 77, 84
9, 4320, Note_on_c, 7, 56, 89
9, 4350, Note_on_c, 7, 56, 0
9, 4350, Note_on_c, 7, 77, 0
9, 4350, Note_on_c, 7, 76, 89
9, 4350, Note_on_c, 7, 58, 84
9, 4380, Note_on_c, 7, 58, 0
9, 4380, Note_on_c, 7, 76, 0
9, 4380, Note_on_c, 7, 77, 85
9, 4380, Note_on_c, 7, 56, 85
9, 4410, Note_on_c, 7, 56, 0
9, 4410, Note_on_c, 7, 77, 0
9, 4410, Note_on_c, 7, 79, 86
9, 4410, Note_on_c, 7, 55, 90
9, 4440, Note_on_c, 7, 55, 0
9, 4440, Note_on_c, 7, 79, 0
9, 4440, Note_on_c, 7, 80, 84
9, 4440, Note_on_c, 7, 53, 72
9, 4470, Note_on_c, 7, 53, 0
9, 4470, Note_on_c, 7, 80, 0
9, 4470, Note_on_c, 7, 51, 86
9, 4500, Note_on_c, 7, 51, 0
9, 4500, Note_on_c, 7, 80, 84
9, 4500, Note_on_c, 7, 50, 95
9, 4530, Note_on_c, 7, 50, 0
9, 4530, Note_on_c, 7, 80, 0
9, 4530, Note_on_c, 7, 48, 84
9, 4560, Note_on_c, 7, 48, 0
9, 4560, Note_on_c, 7, 80, 85
9, 4560, Note_on_c, 7, 50, 99
9, 4590, Note_on_c, 7, 50, 0
9, 4590, Note_on_c, 7, 58, 78
9, 4620, Note_on_c, 7, 58, 0
9, 4620, Note_on_c, 7, 80, 0
9, 4620, Note_on_c, 7, 74, 90
9, 4620, Note_on_c, 7, 53, 86
9, 4650, Note_on_c, 7, 53, 0
9, 4650, Note_on_c, 7, 58, 77
9, 4680, Note_on_c, 7, 58, 0
9, 4680, Note_on_c, 7, 74, 0
9, 4680, Note_on_c, 7, 74, 95
9, 4680, Note_on_c, 7, 56, 93
9, 4710, Note_on_c, 7, 56, 0
9, 4710, Note_on_c, 7, 74, 0
9, 4710, Note_on_c, 7, 58, 77
9, 4740, Note_on_c, 7, 58, 0
9, 4740, Note_on_c, 7, 74, 89
9, 4740, Note_on_c, 7, 53, 86
9, 4770, Note_on_c, 7, 53, 0
9, 4770, Note_on_c, 7, 74, 0
9, 4770, Note_on_c, 7, 58, 80
9, 4785, Note_on_c, 7, 77, 81
9, 4800, Note_on_c, 7, 77, 0
9, 4800, Note_on_c, 7, 58, 0
9, 4800, Note_on_c, 7, 75, 94
9, 4800, Note_on_c, 7, 55, 95
9, 4830, Note_on_c, 7, 55, 0
9, 4830, Note_on_c, 7, 75, 0
9, 4830, Note_on_c, 7, 74, 84
9, 4830, Note_on_c, 7, 56, 72
9, 4860, Note_on_c, 7, 56, 0
9, 4860, Note_on_c, 7, 74, 0
9, 4860, Note_on_c, 7, 75, 82
9, 4860, Note_on_c, 7, 55, 86
9, 4890, Note_on_c, 7, 55, 0
9, 4890, Note_on_c, 7, 75, 0
9, 4890, Note_on_c, 7, 77, 82
9, 4890, Note_on_c, 7, 53, 84
9, 4920, Note_on_c, 7, 53, 0
9, 4920, Note_on_c, 7, 77, 0
9, 4920, Note_on_c, 7, 79, 71
9, 4920, Note_on_c, 7, 51, 86
9, 4950, Note_on_c, 7, 51, 0
9, 4950, Note_on_c, 7, 79, 0
9, 4950, Note_on_c, 7, 50, 86
9, 4980, Note_on_c, 7, 50, 0
9, 4980, Note_on_c, 7, 79, 81
9, 4980, Note_on_c, 7, 48, 77
9, 5010, Note_on_c, 7, 48, 0
9, 5010, Note_on_c, 7, 79, 0
9, 5010, Note_on_c, 7, 46, 89
9, 5040, Note_on_c, 7, 46, 0
9, 5040, Note_on_c, 7, 79, 74
9, 5040, Note_on_c, 7, 44, 94
9, 5055, Note_on_c, 7, 79, 0
9, 5055, Note_on_c, 7, 77, 84
9, 5070, Note_on_c, 7, 77, 0
9, 5070, Note_on_c, 7, 44, 0
9, 5070, Note_on_c, 7, 53, 67
9, 5100, Note_on_c, 7, 53, 0
9, 5100, Note_on_c, 7, 77, 86
9, 5100, Note_on_c, 7, 48, 95
9, 5115, Note_on_c, 7, 77, 0
9, 5115, Note_on_c, 7, 75, 90
9, 5130, Note_on_c, 7, 75, 0
9, 5130, Note_on_c, 7, 48, 0
9, 5130, Note_on_c, 7, 53, 89
9, 5160, Note_on_c, 7, 53, 0
9, 5160, Note_on_c, 7, 75, 95
9, 5160, Note_on_c, 7, 44, 95
9, 5175, Note_on_c, 7, 75, 0
9, 5175, Note_on_c, 7, 74, 94
9, 5190, Note_on_c, 7, 74, 0
9, 5190, Note_on_c, 7, 44, 0
9, 5190, Note_on_c, 7, 54, 84
9, 5220, Note_on_c, 7, 54, 0
9, 5220, Note_on_c, 7, 74, 95
9, 5220, Note_on_c, 7, 48, 99
9, 5235, Note_on_c, 7, 74, 0
9, 5235, Note_on_c, 7, 72, 78
9, 5250, Note_on_c, 7, 72, 0
9, 5250, Note_on_c, 7, 48, 0
9, 5250, Note_on_c, 7, 54, 71
9, 5280, Note_on_c, 7, 54, 0
9, 5280, Note_on_c, 7, 72, 89
9, 5280, Note_on_c, 7, 43, 95
9, 5310, Note_on_c, 7, 43, 0
9, 5310, Note_on_c, 7, 72, 0
9, 5310, Note_on_c, 7, 71, 86
9, 5310, Note_on_c, 7, 55, 77
9, 5340, Note_on_c, 7, 55, 0
9, 5340, Note_on_c, 7, 71, 0
9, 5340, Note_on_c, 7, 79, 80
9, 5340, Note_on_c, 7, 50, 94
9, 5355, Note_on_c, 7, 79, 0
9, 5370, Note_on_c, 7, 50, 0
9, 5370, Note_on_c, 7, 79, 84
9, 5370, Note_on_c, 7, 55, 80
9, 5385, Note_on_c, 7, 79, 0
9, 5400, Note_on_c, 7, 55, 0
9, 5400, Note_on_c, 7, 79, 84
9, 5400, Note_on_c, 7, 47, 94
9, 5415, Note_on_c, 7, 79, 0
9, 5430, Note_on_c, 7, 47, 0
9, 5430, Note_on_c, 7, 79, 76
9, 5430, Note_on_c, 7, 55, 76
9, 5445, Note_on_c, 7, 79, 0
9, 5460, Note_on_c, 7, 55, 0
9, 5460, Note_on_c, 7, 79, 74
9, 5460, Note_on_c, 7, 43, 98
9, 5475, Note_on_c, 7, 79, 0
9, 5490, Note_on_c, 7, 43, 0
9, 5490, Note_on_c, 7, 79, 93
9, 5490, Note_on_c, 7, 55, 84
9, 5505, Note_on_c, 7, 79, 0
9, 5520, Note_on_c, 7, 55, 0
9, 5520, Note_on_c, 7, 79, 89
9, 5520, Note_on_c, 7, 44, 94
9, 5535, Note_on_c, 7, 79, 0
9, 5535, Note_on_c, 7, 77, 93
9, 5550, Note_on_c, 7, 77, 0
9, 5550, Note_on_c, 7, 44, 0
9, 5550, Note_on_c, 7, 53, 84
9, 5580, Note_on_c, 7, 53, 0
9, 5580, Note_on_c, 7, 77, 89
9, 5580, Note_on_c, 7, 48, 95
9, 5595, Note_on_c, 7, 77, 0
9, 5595, Note_on_c, 7, 75, 99
9, 5610, Note_on_c, 7, 75, 0
9, 5610, Note_on_c, 7, 48, 0
9, 5610, Note_on_c, 7, 53, 86
9, 5640, Note_on_c, 7, 53, 0
9, 5640, Note_on_c, 7, 75, 98
9, 5640, Note_on_c, 7, 44, 94
9, 5655, Note_on_c, 7, 75, 0
9, 5655, Note_on_c, 7, 74, 99
9, 5670, Note_on_c, 7, 74, 0
9, 5670, Note_on_c, 7, 44, 0
9, 5670, Note_on_c, 7, 54, 76
9, 5700, Note_on_c, 7, 54, 0
9, 5700, Note_on_c, 7, 74, 99
9, 5700, Note_on_c, 7, 48, 98
9, 5715, Note_on_c, 7, 74, 0
9, 5715, Note_on_c, 7, 72, 64
9, 5730, Note_on_c, 7, 72, 0
9, 5730, Note_on_c, 7, 48, 0
9, 5730, Note_on_c, 7, 54, 78
9, 5760, Note_on_c, 7, 54, 0
9, 5760, Note_on_c, 7, 72, 73
9, 5760, Note_on_c, 7, 43, 90
9, 5790, Note_on_c, 7, 43, 0
9, 5790, Note_on_c, 7, 72, 0
9, 5790, Note_on_c, 7, 71, 85
9, 5790, Note_on_c, 7, 55, 80
9, 5820, Note_on_c, 7, 55, 0
9, 5820, Note_on_c, 7, 71, 0
9, 5820, Note_on_c, 7, 79, 74
9, 5820, Note_on_c, 7, 50, 80
9, 5835, Note_on_c, 7, 79, 0
9, 5850, Note_on_c, 7, 50, 0
9, 5850, Note_on_c, 7, 79, 77
9, 5850, Note_on_c, 7, 55, 76
9, 5865, Note_on_c, 7, 79, 0
9, 5880, Note_on_c, 7, 55, 0
9, 5880, Note_on_c, 7, 79, 81
9, 5880, Note_on_c, 7, 47, 77
9, 5895, Note_on_c, 7, 79, 0
9, 5910, Note_on_c, 7, 47, 0
9, 5910, Note_on_c, 7, 79, 77
9, 5910, Note_on_c, 7, 55, 73
9, 5925, Note_on_c, 7, 79, 0
9, 5940, Note_on_c, 7, 55, 0
9, 5940, Note_on_c, 7, 79, 73
9, 5940, Note_on_c, 7, 43, 71
9, 5955, Note_on_c, 7, 79, 0
9, 5970, Note_on_c, 7, 43, 0
9, 5970, Note_on_c, 7, 79, 76
9, 5970, Note_on_c, 7, 55, 61
9, 5985, Note_on_c, 7, 79, 0
9, 6000, Note_on_c, 7, 55, 0
9, 6000, Note_on_c, 7, 79, 76
9, 6000, Note_on_c, 7, 44, 73
9, 6015, Note_on_c, 7, 79, 0
9, 6015, Note_on_c, 7, 77, 72
9, 6030, Note_on_c, 7, 77, 0
9, 6030, Note_on_c, 7, 44, 0
9, 6030, Note_on_c, 7, 53, 63
9, 6060, Note_on_c, 7, 53, 0
9, 6060, Note_on_c, 7, 77, 73
9, 6060, Note_on_c, 7, 48, 59
9, 6075, Note_on_c, 7, 77, 0
9, 6075, Note_on_c, 7, 75, 81
9, 6090, Note_on_c, 7, 75, 0
9, 6090, Note_on_c, 7, 48, 0
9, 6090, Note_on_c, 7, 53, 64
9, 6120, Note_on_c, 7, 53, 0
9, 6120, Note_on_c, 7, 75, 82
9, 6120, Note_on_c, 7, 44, 73
9, 6135, Note_on_c, 7, 75, 0
9, 6135, Note_on_c, 7, 74, 74
9, 6150, Note_on_c, 7, 74, 0
9, 6150, Note_on_c, 7, 44, 0
9, 6150, Note_on_c, 7, 54, 60
9, 6180, Note_on_c, 7, 54, 0
9, 6180, Note_on_c, 7, 74, 64
9, 6180, Note_on_c, 7, 48, 54
9, 6195, Note_on_c, 7, 74, 0
9, 6195, Note_on_c, 7, 72, 69
9, 6210, Note_on_c, 7, 72, 0
9, 6210, Note_on_c, 7, 48, 0
9, 6210, Note_on_c, 7, 54, 43
9, 6225, Note_on_c, 7, 71, 81
9, 6240, Note_on_c, 7, 71, 0
9, 6240, Note_on_c, 7, 54, 0
9, 6240, Note_on_c, 7, 79, 62
9, 6240, Control_c, 7, 64, 68
9, 6240, Note_on_c, 7, 55, 59
9, 6240, Note_on_c, 7, 50, 70
9, 6240, Note_on_c, 7, 47, 69
9, 6240, Note_on_c, 7, 43, 56
9, 6480, Note_on_c, 7, 43, 0
9, 6480, Note_on_c, 7, 50, 0
9, 6480, Note_on_c, 7, 47, 0
9, 6480, Note_on_c, 7, 55, 0
9, 6720, Note_on_c, 7, 79, 0
9, 6720, Note_on_c, 7, 74, 94
9, 6735, Note_on_c, 7, 74, 0
9, 6735, Note_on_c, 7, 71, 89
9, 6750, Note_on_c, 7, 71, 0
9, 6750, Note_on_c, 7, 67, 85
9, 6765, Note_on_c, 7, 67, 0
9, 6765, Note_on_c, 7, 62, 84
9, 6780, Note_on_c, 7, 62, 0
9, 6780, Note_on_c, 7, 59, 84
9, 6795, Note_on_c, 7, 59, 0
9, 6795, Note_on_c, 7, 67, 89
9, 6810, Note_on_c, 7, 67, 0
9, 6810, Note_on_c, 7, 62, 85
9, 6825, Note_on_c, 7, 62, 0
9, 6825, Note_on_c, 7, 59, 81
9, 6840, Note_on_c, 7, 59, 0
9, 6840, Note_on_c, 7, 55, 74
9, 6855, Note_on_c, 7, 55, 0
9, 6855, Note_on_c, 7, 50, 98
9, 6870, Note_on_c, 7, 50, 0
9, 6870, Note_on_c, 7, 47, 81
9, 6885, Note_on_c, 7, 47, 0
9, 6885, Note_on_c, 7, 55, 74
9, 6900, Note_on_c, 7, 55, 0
9, 6900, Note_on_c, 7, 50, 89
9, 6915, Note_on_c, 7, 50, 0
9, 6915, Note_on_c, 7, 47, 86
9, 6930, Note_on_c, 7, 47, 0
9, 6930, Note_on_c, 7, 43, 99
9, 6945, Note_on_c, 7, 43, 0
9, 6945, Note_on_c, 7, 47, 98
9, 6960, Note_on_c, 7, 47, 0
9, 6960, Note_on_c, 7, 50, 90
9, 6975, Note_on_c, 7, 50, 0
9, 6975, Note_on_c, 7, 55, 82
9, 6990, Note_on_c, 7, 55, 0
9, 6990, Note_on_c, 7, 59, 78
9, 7005, Note_on_c, 7, 59, 0
9, 7005, Note_on_c, 7, 62, 86
9, 7020, Note_on_c, 7, 62, 0
9, 7020, Note_on_c, 7, 67, 90
9, 7035, Note_on_c, 7, 67, 0
9, 7035, Note_on_c, 7, 62, 86
9, 7050, Note_on_c, 7, 62, 0
9, 7050, Note_on_c, 7, 59, 80
9, 7065, Note_on_c, 7, 59, 0
9, 7065, Note_on_c, 7, 55, 80
9, 7080, Note_on_c, 7, 55, 0
9, 7080, Note_on_c, 7, 59, 80
9, 7095, Note_on_c, 7, 59, 0
9, 7095, Note_on_c, 7, 62, 84
9, 7110, Note_on_c, 7, 62, 0
9, 7110, Note_on_c, 7, 67, 86
9, 7125, Note_on_c, 7, 67, 0
9, 7125, Note_on_c, 7, 71, 81
9, 7140, Note_on_c, 7, 71, 0
9, 7140, Note_on_c, 7, 74, 99
9, 7155, Note_on_c, 7, 74, 0
9, 7155, Note_on_c, 7, 79, 84
9, 7170, Note_on_c, 7, 79, 0
9, 7170, Note_on_c, 7, 83, 99
9, 7185, Note_on_c, 7, 83, 0
9, 7185, Note_on_c, 7, 86, 99
9, 7200, Note_on_c, 7, 86, 0
9, 7200, Note_on_c, 7, 90, 77
9, 7215, Note_on_c, 7, 90, 0
9, 7215, Note_on_c, 7, 91, 77
9, 7230, Note_on_c, 7, 91, 0
9, 7230, Note_on_c, 7, 90, 74
9, 7245, Note_on_c, 7, 90, 0
9, 7245, Note_on_c, 7, 91, 74
9, 7260, Note_on_c, 7, 91, 0
9, 7260, Note_on_c, 7, 90, 76
9, 7275, Note_on_c, 7, 90, 0
9, 7275, Note_on_c, 7, 91, 80
9, 7290, Note_on_c, 7, 91, 0
9, 7290, Note_on_c, 7, 90, 77
9, 7305, Note_on_c, 7, 90, 0
9, 7305, Note_on_c, 7, 91, 80
9, 7320, Note_on_c, 7, 91, 0
9, 7320, Note_on_c, 7, 90, 80
9, 7335, Note_on_c, 7, 90, 0
9, 7335, Note_on_c, 7, 91, 72
9, 7350, Note_on_c, 7, 91, 0
9, 7350, Note_on_c, 7, 90, 72
9, 7365, Note_on_c, 7, 90, 0
9, 7365, Note_on_c, 7, 91, 77
9, 7380, Note_on_c, 7, 91, 0
9, 7380, Note_on_c, 7, 90, 65
9, 7395, Note_on_c, 7, 90, 0
9, 7395, Note_on_c, 7, 91, 69
9, 7410, Note_on_c, 7, 91, 0
9, 7410, Note_on_c, 7, 90, 71
9, 7425, Note_on_c, 7, 90, 0
9, 7425, Note_on_c, 7, 91, 78
9, 7440, Note_on_c, 7, 91, 0
9, 7440, Note_on_c, 7, 90, 76
9, 7455, Note_on_c, 7, 90, 0
9, 7455, Note_on_c, 7, 91, 77
9, 7470, Note_on_c, 7, 91, 0
9, 7470, Note_on_c, 7, 90, 72
9, 7485, Note_on_c, 7, 90, 0
9, 7485, Note_on_c, 7, 91, 78
9, 7500, Note_on_c, 7, 91, 0
9, 7500, Note_on_c, 7, 90, 74
9, 7515, Note_on_c, 7, 90, 0
9, 7515, Note_on_c, 7, 91, 80
9, 7530, Note_on_c, 7, 91, 0
9, 7530, Note_on_c, 7, 90, 65
9, 7545, Note_on_c, 7, 90, 0
9, 7545, Note_on_c, 7, 91, 81
9, 7560, Note_on_c, 7, 91, 0
9, 7560, Note_on_c, 7, 90, 74
9, 7575, Note_on_c, 7, 90, 0
9, 7575, Note_on_c, 7, 91, 80
9, 7590, Note_on_c, 7, 91, 0
9, 7590, Note_on_c, 7, 90, 77
9, 7605, Note_on_c, 7, 90, 0
9, 7605, Note_on_c, 7, 91, 76
9, 7620, Note_on_c, 7, 91, 0
9, 7620, Note_on_c, 7, 90, 90
9, 7635, Note_on_c, 7, 90, 0
9, 7635, Note_on_c, 7, 91, 80
9, 7650, Note_on_c, 7, 91, 0
9, 7650, Note_on_c, 7, 90, 93
9, 7665, Note_on_c, 7, 90, 0
9, 7665, Note_on_c, 7, 91, 99
9, 7680, Note_on_c, 7, 91, 0
9, 7680, Note_on_c, 7, 79, 93
9, 7695, Note_on_c, 7, 79, 0
9, 7695, Note_on_c, 7, 80, 89
9, 7710, Note_on_c, 7, 80, 0
9, 7710, Note_on_c, 7, 79, 81
9, 7720, Note_on_c, 7, 79, 0
9, 7720, Note_on_c, 7, 80, 81
9, 7730, Note_on_c, 7, 80, 0
9, 7730, Note_on_c, 7, 79, 84
9, 7740, Note_on_c, 7, 79, 0
9, 7740, Note_on_c, 7, 80, 84
9, 7750, Note_on_c, 7, 80, 0
9, 7750, Note_on_c, 7, 79, 89
9, 7760, Note_on_c, 7, 79, 0
9, 7760, Note_on_c, 7, 80, 80
9, 7770, Note_on_c, 7, 80, 0
9, 7770, Note_on_c, 7, 79, 89
9, 7780, Note_on_c, 7, 79, 0
9, 7780, Note_on_c, 7, 80, 80
9, 7790, Note_on_c, 7, 80, 0
9, 7790, Note_on_c, 7, 79, 84
9, 7800, Note_on_c, 7, 79, 0
9, 7800, Note_on_c, 7, 80, 84
9, 7810, Note_on_c, 7, 80, 0
9, 7810, Note_on_c, 7, 79, 89
9, 7820, Note_on_c, 7, 79, 0
9, 7820, Note_on_c, 7, 80, 86
9, 7830, Note_on_c, 7, 80, 0
9, 7830, Note_on_c, 7, 79, 86
9, 7840, Note_on_c, 7, 79, 0
9, 7840, Note_on_c, 7, 80, 84
9, 7850, Note_on_c, 7, 80, 0
9, 7850, Note_on_c, 7, 79, 84
9, 7860, Note_on_c, 7, 79, 0
9, 7860, Note_on_c, 7, 80, 84
9, 7870, Note_on_c, 7, 80, 0
9, 7870, Note_on_c, 7, 79, 89
9, 7880, Note_on_c, 7, 79, 0
9, 7880, Note_on_c, 7, 80, 84
9, 7890, Note_on_c, 7, 80, 0
9, 7890, Note_on_c, 7, 79, 84
9, 7900, Note_on_c, 7, 79, 0
9, 7900, Note_on_c, 7, 80, 78
9, 7910, Note_on_c, 7, 80, 0
9, 7910, Note_on_c, 7, 79, 93
9, 7920, Note_on_c, 7, 79, 0
9, 7995, Note_on_c, 7, 78, 73
9, 8010, Note_on_c, 7, 78, 0
9, 8010, Note_on_c, 7, 79, 85
9, 8025, Note_on_c, 7, 79, 0
9, 8025, Note_on_c, 7, 80, 70
9, 8040, Note_on_c, 7, 80, 0
9, 8040, Control_c, 7, 64, 0
9, 8040, Note_on_c, 7, 81, 76
9, 8055, Note_on_c, 7, 81, 0
9, 8055, Note_on_c, 7, 82, 64
9, 8070, Note_on_c, 7, 82, 0
9, 8070, Note_on_c, 7, 83, 81
9, 8085, Note_on_c, 7, 83, 0
9, 8085, Note_on_c, 7, 84, 85
9, 8100, Note_on_c, 7, 84, 0
9, 8100, Note_on_c, 7, 85, 68
9, 8115, Note_on_c, 7, 85, 0
9, 8115, Note_on_c, 7, 86, 82
9, 8130, Note_on_c, 7, 86, 0
9, 8130, Note_on_c, 7, 87, 90
9, 8145, Note_on_c, 7, 87, 0
9, 8145, Note_on_c, 7, 88, 89
9, 8160, Note_on_c, 7, 88, 0
9, 8160, Note_on_c, 7, 89, 84
9, 8160, Note_on_c, 7, 55, 84
9, 8190, Note_on_c, 7, 55, 0
9, 8190, Note_on_c, 7, 67, 76
9, 8220, Note_on_c, 7, 67, 0
9, 8220, Note_on_c, 7, 89, 0
9, 8220, Note_on_c, 7, 71, 80
9, 8220, Note_on_c, 7, 62, 74
9, 8250, Note_on_c, 7, 62, 0
9, 8250, Note_on_c, 7, 71, 0
9, 8250, Note_on_c, 7, 67, 84
9, 8280, Note_on_c, 7, 67, 0
9, 8280, Note_on_c, 7, 71, 76
9, 8280, Note_on_c, 7, 65, 84
9, 8310, Note_on_c, 7, 65, 0
9, 8310, Note_on_c, 7, 71, 0
9, 8310, Note_on_c, 7, 67, 80
9, 8340, Note_on_c, 7, 67, 0
9, 8340, Note_on_c, 7, 71, 84
9, 8340, Note_on_c, 7, 62, 86
9, 8370, Note_on_c, 7, 62, 0
9, 8370, Note_on_c, 7, 71, 0
9, 8370, Note_on_c, 7, 67, 81
9, 8400, Note_on_c, 7, 67, 0
9, 8400, Note_on_c, 7, 72, 72
9, 8400, Note_on_c, 7, 63, 84
9, 8430, Note_on_c, 7, 63, 0
9, 8430, Note_on_c, 7, 67, 78
9, 8460, Note_on_c, 7, 67, 0
9, 8460, Note_on_c, 7, 62, 89
9, 8490, Note_on_c, 7, 62, 0
9, 8490, Note_on_c, 7, 67, 74
9, 8520, Note_on_c, 7, 67, 0
9, 8520, Note_on_c, 7, 72, 0
9, 8520, Note_on_c, 7, 74, 64
9, 8520, Note_on_c, 7, 63, 81
9, 8550, Note_on_c, 7, 63, 0
9, 8550, Note_on_c, 7, 74, 0
9, 8550, Note_on_c, 7, 72, 82
9, 8550, Note_on_c, 7, 67, 76
9, 8580, Note_on_c, 7, 67, 0
9, 8580, Note_on_c, 7, 72, 0
9, 8580, Note_on_c, 7, 71, 76
9, 8580, Note_on_c, 7, 60, 85
9, 8610, Note_on_c, 7, 60, 0
9, 8610, Note_on_c, 7, 71, 0
9, 8610, Note_on_c, 7, 72, 80
9, 8610, Note_on_c, 7, 67, 80
9, 8640, Note_on_c, 7, 67, 0
9, 8640, Note_on_c, 7, 72, 0
9, 8640, Note_on_c, 7, 74, 94
9, 8640, Note_on_c, 7, 59, 84
9, 8670, Note_on_c, 7, 59, 0
9, 8670, Note_on_c, 7, 74, 0
9, 8670, Note_on_c, 7, 67, 81
9, 8700, Note_on_c, 7, 67, 0
9, 8700, Note_on_c, 7, 74, 119
9, 8700, Note_on_c, 7, 55, 90
9, 8730, Note_on_c, 7, 55, 0
9, 8730, Note_on_c, 7, 74, 0
9, 8730, Note_on_c, 7, 67, 84
9, 8760, Note_on_c, 7, 67, 0
9, 8760, Note_on_c, 7, 76, 89
9, 8760, Note_on_c, 7, 58, 84
9, 8790, Note_on_c, 7, 58, 0
9, 8790, Note_on_c, 7, 76, 0
9, 8790, Note_on_c, 7, 60, 90
9, 8820, Note_on_c, 7, 60, 0
9, 8820, Note_on_c, 7, 76, 117
9, 8820, Note_on_c, 7, 55, 89
9, 8850, Note_on_c, 7, 55, 0
9, 8850, Note_on_c, 7, 76, 0
9, 8850, Note_on_c, 7, 60, 94
9, 8880, Note_on_c, 7, 60, 0
9, 8880, Note_on_c, 7, 77, 78
9, 8880, Note_on_c, 7, 56, 94
9, 8910, Note_on_c, 7, 56, 0
9, 8910, Note_on_c, 7, 65, 74
9, 8940, Note_on_c, 7, 65, 0
9, 8940, Note_on_c, 7, 60, 94
9, 8970, Note_on_c, 7, 60, 0
9, 8970, Note_on_c, 7, 65, 77
9, 9000, Note_on_c, 7, 65, 0
9, 9000, Note_on_c, 7, 53, 93
9, 9030, Note_on_c, 7, 53, 0
9, 9030, Note_on_c, 7, 77, 0
9, 9030, Note_on_c, 7, 65, 82
9, 9045, Note_on_c, 7, 79, 76
9, 9060, Note_on_c, 7, 79, 0
9, 9060, Note_on_c, 7, 65, 0
9, 9060, Note_on_c, 7, 80, 84
9, 9060, Note_on_c, 7, 62, 89
9, 9090, Note_on_c, 7, 62, 0
9, 9090, Note_on_c, 7, 80, 0
9, 9090, Note_on_c, 7, 65, 80
9, 9105, Note_on_c, 7, 77, 81
9, 9120, Note_on_c, 7, 77, 0
9, 9120, Note_on_c, 7, 65, 0
9, 9120, Note_on_c, 7, 75, 89
9, 9120, Note_on_c, 7, 55, 94
9, 9150, Note_on_c, 7, 55, 0
9, 9150, Note_on_c, 7, 75, 0
9, 9150, Note_on_c, 7, 63, 76
9, 9165, Note_on_c, 7, 77, 86
9, 9180, Note_on_c, 7, 77, 0
9, 9180, Note_on_c, 7, 63, 0
9, 9180, Note_on_c, 7, 79, 89
9, 9180, Note_on_c, 7, 60, 95
9, 9210, Note_on_c, 7, 60, 0
9, 9210, Note_on_c, 7, 79, 0
9, 9210, Note_on_c, 7, 63, 81
9, 9225, Note_on_c, 7, 75, 94
9, 9240, Note_on_c, 7, 75, 0
9, 9240, Note_on_c, 7, 63, 0
9, 9240, Note_on_c, 7, 74, 94
9, 9240, Note_on_c, 7, 55, 82
9, 9270, Note_on_c, 7, 55, 0
9, 9270, Note_on_c, 7, 74, 0
9, 9270, Note_on_c, 7, 62, 81
9, 9285, Note_on_c, 7, 75, 94
9, 9300, Note_on_c, 7, 75, 0
9, 9300, Note_on_c, 7, 62, 0
9, 9300, Note_on_c, 7, 77, 89
9, 9300, Note_on_c, 7, 59, 94
9, 9330, Note_on_c, 7, 59, 0
9, 9330, Note_on_c, 7, 77, 0
9, 9330, Note_on_c, 7, 62, 84
9, 9345, Note_on_c, 7, 74, 99
9, 9360, Note_on_c, 7, 74, 0
9, 9360, Note_on_c, 7, 62, 0
9, 9360, Note_on_c, 7, 72, 68
9, 9360, Note_on_c, 7, 48, 95
9, 9390, Note_on_c, 7, 48, 0
9, 9390, Note_on_c, 7, 60, 76
9, 9420, Note_on_c, 7, 60, 0
9, 9420, Note_on_c, 7, 72, 0
9, 9420, Note_on_c, 7, 55, 93
9, 9450, Note_on_c, 7, 55, 0
9, 9450, Note_on_c, 7, 51, 93
9, 9480, Note_on_c, 7, 51, 0
9, 9480, Note_on_c, 7, 48, 84
9, 9540, Note_on_c, 7, 48, 0
9, 15360, Control_c, 7, 7, 82
9, 15540, Note_on_c, 7, 51, 99
9, 15540, Note_on_c, 7, 36, 98
9, 15560, Note_on_c, 7, 36, 0
9, 15560, Note_on_c, 7, 51, 0
9, 15560, Note_on_c, 7, 39, 99
9, 15560, Note_on_c, 7, 55, 104
9, 15580, Note_on_c, 7, 55, 0
9, 15580, Note_on_c, 7, 39, 0
9, 15580, Note_on_c, 7, 60, 104
9, 15580, Note_on_c, 7, 43, 104
9, 15600, Note_on_c, 7, 43, 0
9, 15600, Note_on_c, 7, 60, 0
9, 15600, Note_on_c, 7, 63, 119
9, 15600, Note_on_c, 7, 48, 117
9, 15630, Note_on_c, 7, 48, 0
9, 15630, Note_on_c, 7, 63, 0
9, 15660, Note_on_c, 7, 48, 95
9, 15660, Note_on_c, 7, 63, 101
9, 15680, Note_on_c, 7, 63, 0
9, 15680, Note_on_c, 7, 48, 0
9, 15680, Note_on_c, 7, 51, 99
9, 15680, Note_on_c, 7, 67, 105
9, 15700, Note_on_c, 7, 67, 0
9, 15700, Note_on_c, 7, 51, 0
9, 15700, Note_on_c, 7, 72, 94
9, 15700, Note_on_c, 7, 55, 104
9, 15720, Note_on_c, 7, 55, 0
9, 15720, Note_on_c, 7, 72, 0
9, 15720, Note_on_c, 7, 75, 123
9, 15720, Note_on_c, 7, 60, 117
9, 15750, Note_on_c, 7, 60, 0
9, 15750, Note_on_c, 7, 75, 0
9, 15780, Note_on_c, 7, 60, 95
9, 15780, Note_on_c, 7, 75, 99
9, 15800, Note_on_c, 7, 75, 0
9, 15800, Note_on_c, 7, 60, 0
9, 15800, Note_on_c, 7, 63, 95
9, 15800, Note_on_c, 7, 79, 105
9, 15820, Note_on_c, 7, 79, 0
9, 15820, Note_on_c, 7, 63, 0
9, 15820, Note_on_c, 7, 84, 105
9, 15820, Note_on_c, 7, 67, 99
9, 15840, Note_on_c, 7, 67, 0
9, 15840, Note_on_c, 7, 84, 0
9, 15840, Note_on_c, 7, 87, 119
9, 15840, Note_on_c, 7, 72, 94
9, 15870, Note_on_c, 7, 72, 0
9, 15870, Note_on_c, 7, 87, 0
9, 16500, Note_on_c, 7, 44, 86
9, 16500, Note_on_c, 7, 29, 90
9, 16520, Note_on_c, 7, 29, 0
9, 16520, Note_on_c, 7, 44, 0
9, 16520, Note_on_c, 7, 32, 89
9, 16520, Note_on_c, 7, 48, 94
9, 16540, Note_on_c, 7, 48, 0
9, 16540, Note_on_c, 7, 32, 0
9, 16540, Note_on_c, 7, 53, 99
9, 16540, Note_on_c, 7, 36, 90
9, 16560, Note_on_c, 7, 36, 0
9, 16560, Note_on_c, 7, 53, 0
9, 16560, Note_on_c, 7, 41, 110
9, 16560, Note_on_c, 7, 56, 119
9, 16590, Note_on_c, 7, 56, 0
9, 16590, Note_on_c, 7, 41, 0
9, 16620, Note_on_c, 7, 41, 82
9, 16620, Note_on_c, 7, 56, 98
9, 16640, Note_on_c, 7, 56, 0
9, 16640, Note_on_c, 7, 41, 0
9, 16640, Note_on_c, 7, 44, 93
9, 16640, Note_on_c, 7, 60, 84
9, 16660, Note_on_c, 7, 60, 0
9, 16660, Note_on_c, 7, 44, 0
9, 16660, Note_on_c, 7, 65, 98
9, 16660, Note_on_c, 7, 48, 89
9, 16680, Note_on_c, 7, 48, 0
9, 16680, Note_on_c, 7, 65, 0
9, 16680, Note_on_c, 7, 53, 115
9, 16680, Note_on_c, 7, 68, 117
9, 16710, Note_on_c, 7, 68, 0
9, 16710, Note_on_c, 7, 53, 0
9, 16740, Note_on_c, 7, 53, 93
9, 16740, Note_on_c, 7, 68, 94
9, 16760, Note_on_c, 7, 68, 0
9, 16760, Note_on_c, 7, 53, 0
9, 16760, Note_on_c, 7, 56, 95
9, 16760, Note_on_c, 7, 72, 101
9, 16780, Note_on_c, 7, 72, 0
9, 16780, Note_on_c, 7, 56, 0
9, 16780, Note_on_c, 7, 77, 105
9, 16780, Note_on_c, 7, 60, 90
9, 16800, Note_on_c, 7, 60, 0
9, 16800, Note_on_c, 7, 77, 0
9, 16800, Note_on_c, 7, 80, 115
9, 16800, Note_on_c, 7, 65, 115
9, 16830, Note_on_c, 7, 65, 0
9, 16830, Note_on_c, 7, 80, 0
9, 16980, Note_on_c, 7, 46, 94
9, 17000, Note_on_c, 7, 46, 0
9, 17000, Note_on_c, 7, 50, 107
9, 17020, Note_on_c, 7, 50, 0
9, 17020, Note_on_c, 7, 53, 84
9, 17040, Note_on_c, 7, 53, 0
9, 17040, Note_on_c, 7, 56, 110
9, 17070, Note_on_c, 7, 56, 0
9, 17100, Note_on_c, 7, 46, 94
9, 17100, Note_on_c, 7, 58, 80
9, 17120, Note_on_c, 7, 58, 0
9, 17120, Note_on_c, 7, 46, 0
9, 17120, Note_on_c, 7, 50, 105
9, 17120, Note_on_c, 7, 62, 104
9, 17140, Note_on_c, 7, 62, 0
9, 17140, Note_on_c, 7, 50, 0
9, 17140, Note_on_c, 7, 65, 99
9, 17140, Note_on_c, 7, 53, 89
9, 17160, Note_on_c, 7, 53, 0
9, 17160, Note_on_c, 7, 65, 0
9, 17160, Note_on_c, 7, 68, 105
9, 17160, Note_on_c, 7, 56, 104
9, 17190, Note_on_c, 7, 56, 0
9, 17190, Note_on_c, 7, 68, 0
9, 17220, Note_on_c, 7, 58, 95
9, 17220, Note_on_c, 7, 70, 99
9, 17240, Note_on_c, 7, 70, 0
9, 17240, Note_on_c, 7, 58, 0
9, 17240, Note_on_c, 7, 62, 98
9, 17240, Note_on_c, 7, 74, 112
9, 17260, Note_on_c, 7, 74, 0
9, 17260, Note_on_c, 7, 62, 0
9, 17260, Note_on_c, 7, 77, 105
9, 17260, Note_on_c, 7, 65, 93
9, 17280, Note_on_c, 7, 65, 0
9, 17280, Note_on_c, 7, 77, 0
9, 17280, Note_on_c, 7, 68, 105
9, 17280, Note_on_c, 7, 80, 110
9, 17310, Note_on_c, 7, 80, 0
9, 17310, Note_on_c, 7, 68, 0
9, 17340, Note_on_c, 7, 58, 99
9, 17360, Note_on_c, 7, 58, 0
9, 17360, Note_on_c, 7, 62, 105
9, 17380, Note_on_c, 7, 62, 0
9, 17380, Note_on_c, 7, 65, 112
9, 17400, Note_on_c, 7, 65, 0
9, 17400, Note_on_c, 7, 68, 110
9, 17430, Note_on_c, 7, 68, 0
9, 17460, Note_on_c, 7, 70, 105
9, 17480, Note_on_c, 7, 70, 0
9, 17480, Note_on_c, 7, 74, 112
9, 17500, Note_on_c, 7, 74, 0
9, 17500, Note_on_c, 7, 77, 104
9, 17520, Note_on_c, 7, 77, 0
9, 17520, Note_on_c, 7, 80, 105
9, 17550, Note_on_c, 7, 80, 0
9, 17580, Note_on_c, 7, 58, 104
9, 17600, Note_on_c, 7, 58, 0
9, 17600, Note_on_c, 7, 62, 105
9, 17620, Note_on_c, 7, 62, 0
9, 17620, Note_on_c, 7, 65, 99
9, 17640, Note_on_c, 7, 65, 0
9, 17640, Note_on_c, 7, 68, 105
9, 17670, Note_on_c, 7, 68, 0
9, 17700, Note_on_c, 7, 70, 105
9, 17720, Note_on_c, 7, 70, 0
9, 17720, Note_on_c, 7, 74, 105
9, 17740, Note_on_c, 7, 74, 0
9, 17740, Note_on_c, 7, 77, 104
9, 17760, Note_on_c, 7, 77, 0
9, 17760, Note_on_c, 7, 80, 107
9, 17790, Note_on_c, 7, 80, 0
9, 17820, Note_on_c, 7, 58, 99
9, 17820, Note_on_c, 7, 70, 86
9, 17840, Note_on_c, 7, 70, 0
9, 17840, Note_on_c, 7, 58, 0
9, 17840, Note_on_c, 7, 62, 105
9, 17840, Note_on_c, 7, 74, 112
9, 17860, Note_on_c, 7, 74, 0
9, 17860, Note_on_c, 7, 62, 0
9, 17860, Note_on_c, 7, 77, 99
9, 17860, Note_on_c, 7, 65, 105
9, 17880, Note_on_c, 7, 65, 0
9, 17880, Note_on_c, 7, 77, 0
9, 17880, Note_on_c, 7, 68, 105
9, 17880, Note_on_c, 7, 80, 85
9, 17910, Note_on_c, 7, 80, 0
9, 17910, Note_on_c, 7, 68, 0
9, 17940, Note_on_c, 7, 58, 95
9, 17940, Note_on_c, 7, 70, 98
9, 17960, Note_on_c, 7, 70, 0
9, 17960, Note_on_c, 7, 58, 0
9, 17960, Note_on_c, 7, 75, 105
9, 17960, Note_on_c, 7, 63, 99
9, 17980, Note_on_c, 7, 63, 0
9, 17980, Note_on_c, 7, 75, 0
9, 17980, Note_on_c, 7, 79, 99
9, 17980, Note_on_c, 7, 67, 105
9, 18000, Note_on_c, 7, 67, 0
9, 18000, Note_on_c, 7, 79, 0
9, 18000, Note_on_c, 7, 70, 127
9, 18000, Note_on_c, 7, 82, 119
9, 18060, Note_on_c, 7, 70, 0
9, 18120, Note_on_c, 7, 82, 0
9, 18120, Note_on_c, 7, 80, 94
9, 18135, Note_on_c, 7, 80, 0
9, 18135, Note_on_c, 7, 79, 101
9, 18165, Note_on_c, 7, 79, 0
9, 18180, Note_on_c, 7, 77, 94
9, 18195, Note_on_c, 7, 77, 0
9, 18195, Note_on_c, 7, 75, 105
9, 18225, Note_on_c, 7, 75, 0
9, 18240, Note_on_c, 7, 75, 110
9, 18255, Note_on_c, 7, 75, 0
9, 18255, Note_on_c, 7, 74, 105
9, 18285, Note_on_c, 7, 74, 0
9, 18300, Note_on_c, 7, 72, 105
9, 18315, Note_on_c, 7, 72, 0
9, 18315, Note_on_c, 7, 70, 104
9, 18345, Note_on_c, 7, 70, 0
9, 18360, Note_on_c, 7, 70, 101
9, 18375, Note_on_c, 7, 70, 0
9, 18375, Note_on_c, 7, 68, 104
9, 18405, Note_on_c, 7, 68, 0
9, 18420, Note_on_c, 7, 67, 99
9, 18435, Note_on_c, 7, 67, 0
9, 18435, Note_on_c, 7, 65, 110
9, 18465, Note_on_c, 7, 65, 0
9, 18480, Note_on_c, 7, 63, 99
9, 18510, Note_on_c, 7, 63, 0
9, 18540, Note_on_c, 7, 75, 110
9, 18570, Note_on_c, 7, 75, 0
9, 18600, Note_on_c, 7, 77, 94
9, 18600, Note_on_c, 7, 72, 112
9, 18630, Note_on_c, 7, 77, 0
9, 18630, Note_on_c, 7, 75, 105
9, 18660, Note_on_c, 7, 75, 0
9, 18660, Note_on_c, 7, 74, 104
9, 18690, Note_on_c, 7, 74, 0
9, 18690, Note_on_c, 7, 75, 104
9, 18720, Note_on_c, 7, 75, 0
9, 18720, Note_on_c, 7, 77, 123
9, 18780, Note_on_c, 7, 72, 0
9, 18780, Note_on_c, 7, 70, 99
9, 18810, Note_on_c, 7, 70, 0
9, 18810, Note_on_c, 7, 69, 95
9, 18840, Note_on_c, 7, 69, 0
9, 18840, Note_on_c, 7, 70, 99
9, 18870, Note_on_c, 7, 70, 0
9, 18870, Note_on_c, 7, 68, 95
9, 18900, Note_on_c, 7, 68, 0
9, 18900, Note_on_c, 7, 67, 98
9, 18930, Note_on_c, 7, 67, 0
9, 18930, Note_on_c, 7, 65, 105
9, 18960, Note_on_c, 7, 65, 0
9, 18960, Note_on_c, 7, 77, 0
9, 18960, Note_on_c, 7, 79, 104
9, 18960, Note_on_c, 7, 63, 94
9, 18990, Note_on_c, 7, 63, 0
9, 18990, Note_on_c, 7, 79, 0
9, 18990, Note_on_c, 7, 58, 95
9, 19020, Note_on_c, 7, 58, 0
9, 19020, Note_on_c, 7, 79, 110
9, 19020, Note_on_c, 7, 60, 94
9, 19050, Note_on_c, 7, 60, 0
9, 19050, Note_on_c, 7, 79, 0
9, 19050, Note_on_c, 7, 62, 93
9, 19080, Note_on_c, 7, 62, 0
9, 19080, Note_on_c, 7, 63, 94
9, 19080, Note_on_c, 7, 79, 101
9, 19110, Note_on_c, 7, 79, 0
9, 19110, Note_on_c, 7, 63, 0
9, 19110, Note_on_c, 7, 65, 99
9, 19110, Note_on_c, 7, 80, 95
9, 19140, Note_on_c, 7, 80, 0
9, 19140, Note_on_c, 7, 65, 0
9, 19140, Note_on_c, 7, 63, 99
9, 19140, Note_on_c, 7, 79, 99
9, 19160, Note_on_c, 7, 79, 0
9, 19160, Note_on_c, 7, 80, 95
9, 19170, Note_on_c, 7, 63, 0
9, 19170, Note_on_c, 7, 61, 95
9, 19180, Note_on_c, 7, 80, 0
9, 19180, Note_on_c, 7, 79, 104
9, 19200, Note_on_c, 7, 79, 0
9, 19200, Note_on_c, 7, 61, 0
9, 19200, Note_on_c, 7, 60, 119
9, 19200, Note_on_c, 7, 80, 119
9, 19230, Note_on_c, 7, 60, 0
9, 19230, Note_on_c, 7, 59, 95
9, 19260, Note_on_c, 7, 59, 0
9, 19260, Note_on_c, 7, 60, 99
9, 19290, Note_on_c, 7, 60, 0
9, 19290, Note_on_c, 7, 59, 94
9, 19320, Note_on_c, 7, 59, 0
9, 19320, Note_on_c, 7, 60, 89
9, 19350, Note_on_c, 7, 60, 0
9, 19350, Note_on_c, 7, 58, 94
9, 19380, Note_on_c, 7, 58, 0
9, 19380, Note_on_c, 7, 56, 95
9, 19410, Note_on_c, 7, 56, 0
9, 19410, Note_on_c, 7, 55, 104
9, 19440, Note_on_c, 7, 55, 0
9, 19440, Note_on_c, 7, 80, 0
9, 19440, Note_on_c, 7, 53, 95
9, 19440, Note_on_c, 7, 81, 104
9, 19470, Note_on_c, 7, 81, 0
9, 19470, Note_on_c, 7, 53, 0
9, 19470, Note_on_c, 7, 52, 99
9, 19500, Note_on_c, 7, 52, 0
9, 19500, Note_on_c, 7, 53, 95
9, 19500, Note_on_c, 7, 81, 105
9, 19530, Note_on_c, 7, 81, 0
9, 19530, Note_on_c, 7, 53, 0
9, 19530, Note_on_c, 7, 52, 105
9, 19560, Note_on_c, 7, 52, 0
9, 19560, Note_on_c, 7, 53, 99
9, 19560, Note_on_c, 7, 81, 101
9, 19590, Note_on_c, 7, 81, 0
9, 19590, Note_on_c, 7, 53, 0
9, 19590, Note_on_c, 7, 51, 95
9, 19590, Note_on_c, 7, 82, 98
9, 19620, Note_on_c, 7, 82, 0
9, 19620, Note_on_c, 7, 51, 0
9, 19620, Note_on_c, 7, 50, 105
9, 19620, Note_on_c, 7, 81, 99
9, 19640, Note_on_c, 7, 81, 0
9, 19640, Note_on_c, 7, 82, 99
9, 19650, Note_on_c, 7, 50, 0
9, 19650, Note_on_c, 7, 48, 99
9, 19660, Note_on_c, 7, 82, 0
9, 19660, Note_on_c, 7, 81, 99
9, 19680, Note_on_c, 7, 81, 0
9, 19680, Note_on_c, 7, 48, 0
9, 19680, Note_on_c, 7, 46, 99
9, 19680, Note_on_c, 7, 82, 104
9, 19740, Note_on_c, 7, 82, 0
9, 19740, Note_on_c, 7, 46, 0
9, 21490, Control_c, 7, 7, 100
9, 21660, Note_on_c, 7, 70, 94
9, 21680, Note_on_c, 7, 70, 0
9, 21680, Note_on_c, 7, 81, 82
9, 21700, Note_on_c, 7, 81, 0
9, 21700, Note_on_c, 7, 82, 93
9, 21720, Note_on_c, 7, 82, 0
9, 21720, Note_on_c, 7, 72, 81
9, 21740, Note_on_c, 7, 72, 0
9, 21740, Note_on_c, 7, 83, 94
9, 21760, Note_on_c, 7, 83, 0
9, 21760, Note_on_c, 7, 84, 94
9, 21780, Note_on_c, 7, 84, 0
9, 21780, Note_on_c, 7, 74, 95
9, 21780, Note_on_c, 7, 63, 94
9, 21800, Note_on_c, 7, 74, 0
9, 21800, Note_on_c, 7, 85, 85
9, 21820, Note_on_c, 7, 85, 0
9, 21820, Note_on_c, 7, 86, 99
9, 21840, Note_on_c, 7, 86, 0
9, 21840, Note_on_c, 7, 63, 0
9, 21840, Note_on_c, 7, 75, 99
9, 21840, Note_on_c, 7, 51, 93
9, 21860, Note_on_c, 7, 75, 0
9, 21860, Note_on_c, 7, 86, 99
9, 21880, Note_on_c, 7, 86, 0
9, 21880, Note_on_c, 7, 87, 99
9, 21900, Note_on_c, 7, 87, 0
9, 21900, Note_on_c, 7, 70, 99
9, 21920, Note_on_c, 7, 70, 0
9, 21920, Note_on_c, 7, 81, 95
9, 21940, Note_on_c, 7, 81, 0
9, 21940, Note_on_c, 7, 82, 90
9, 21960, Note_on_c, 7, 82, 0
9, 21960, Note_on_c, 7, 51, 0
9, 21960, Note_on_c, 7, 72, 81
9, 21980, Note_on_c, 7, 72, 0
9, 21980, Note_on_c, 7, 83, 89
9, 22000, Note_on_c, 7, 83, 0
9, 22000, Note_on_c, 7, 84, 93
9, 22020, Note_on_c, 7, 84, 0
9, 22020, Note_on_c, 7, 74, 101
9, 22020, Note_on_c, 7, 63, 76
9, 22040, Note_on_c, 7, 74, 0
9, 22040, Note_on_c, 7, 85, 85
9, 22060, Note_on_c, 7, 85, 0
9, 22060, Note_on_c, 7, 86, 99
9, 22080, Note_on_c, 7, 86, 0
9, 22080, Note_on_c, 7, 63, 0
9, 22080, Note_on_c, 7, 75, 95
9, 22080, Note_on_c, 7, 51, 89
9, 22100, Note_on_c, 7, 75, 0
9, 22100, Note_on_c, 7, 86, 99
9, 22120, Note_on_c, 7, 86, 0
9, 22120, Note_on_c, 7, 87, 99
9, 22140, Note_on_c, 7, 87, 0
9, 22140, Note_on_c, 7, 70, 95
9, 22160, Note_on_c, 7, 70, 0
9, 22160, Note_on_c, 7, 81, 93
9, 22180, Note_on_c, 7, 81, 0
9, 22180, Note_on_c, 7, 82, 90
9, 22200, Note_on_c, 7, 82, 0
9, 22200, Note_on_c, 7, 51, 0
9, 22200, Note_on_c, 7, 72, 81
9, 22220, Note_on_c, 7, 72, 0
9, 22220, Note_on_c, 7, 83, 94
9, 22240, Note_on_c, 7, 83, 0
9, 22240, Note_on_c, 7, 84, 93
9, 22260, Note_on_c, 7, 84, 0
9, 22260, Note_on_c, 7, 74, 99
9, 22260, Note_on_c, 7, 63, 94
9, 22280, Note_on_c, 7, 74, 0
9, 22280, Note_on_c, 7, 85, 84
9, 22300, Note_on_c, 7, 85, 0
9, 22300, Note_on_c, 7, 86, 105
9, 22320, Note_on_c, 7, 86, 0
9, 22320, Note_on_c, 7, 63, 0
9, 22320, Note_on_c, 7, 87, 94
9, 22320, Note_on_c, 7, 51, 93
9, 22340, Note_on_c, 7, 87, 0
9, 22340, Note_on_c, 7, 86, 99
9, 22360, Note_on_c, 7, 86, 0
9, 22360, Note_on_c, 7, 87, 95
9, 22380, Note_on_c, 7, 87, 0
9, 22380, Note_on_c, 7, 51, 0
9, 22380, Note_on_c, 7, 89, 95
9, 22380, Note_on_c, 7, 56, 94
9, 22400, Note_on_c, 7, 89, 0
9, 22400, Note_on_c, 7, 91, 94
9, 22410, Note_on_c, 7, 56, 0
9, 22410, Note_on_c, 7, 53, 94
9, 22420, Note_on_c, 7, 91, 0
9, 22420, Note_on_c, 7, 92, 95
9, 22440, Note_on_c, 7, 92, 0
9, 22440, Note_on_c, 7, 53, 0
9, 22440, Note_on_c, 7, 91, 104
9, 22440, Note_on_c, 7, 58, 93
9, 22460, Note_on_c, 7, 91, 0
9, 22460, Note_on_c, 7, 92, 89
9, 22470, Note_on_c, 7, 58, 0
9, 22470, Note_on_c, 7, 57, 101
9, 22480, Note_on_c, 7, 92, 0
9, 22480, Note_on_c, 7, 94, 94
9, 22500, Note_on_c, 7, 94, 0
9, 22500, Note_on_c, 7, 57, 0
9, 22500, Note_on_c, 7, 82, 76
9, 22500, Note_on_c, 7, 58, 85
9, 22520, Note_on_c, 7, 82, 0
9, 22520, Note_on_c, 7, 84, 99
9, 22530, Note_on_c, 7, 58, 0
9, 22530, Note_on_c, 7, 46, 95
9, 22540, Note_on_c, 7, 84, 0
9, 22540, Note_on_c, 7, 86, 107
9, 22560, Note_on_c, 7, 86, 0
9, 22560, Note_on_c, 7, 46, 0
9, 22560, Note_on_c, 7, 87, 101
9, 22560, Note_on_c, 7, 51, 95
9, 22620, Note_on_c, 7, 51, 0
9, 22620, Note_on_c, 7, 87, 0
9, 22620, Note_on_c, 7, 94, 95
9, 22620, Note_on_c, 7, 55, 94
9, 22640, Note_on_c, 7, 55, 0
9, 22640, Note_on_c, 7, 94, 0
9, 22640, Note_on_c, 7, 82, 70
9, 22640, Note_on_c, 7, 58, 86
9, 22660, Note_on_c, 7, 58, 0
9, 22660, Note_on_c, 7, 82, 0
9, 22660, Note_on_c, 7, 94, 95
9, 22660, Note_on_c, 7, 67, 89
9, 22680, Note_on_c, 7, 67, 0
9, 22680, Note_on_c, 7, 94, 0
9, 22680, Note_on_c, 7, 82, 73
9, 22680, Note_on_c, 7, 55, 89
9, 22700, Note_on_c, 7, 55, 0
9, 22700, Note_on_c, 7, 82, 0
9, 22700, Note_on_c, 7, 94, 81
9, 22700, Note_on_c, 7, 58, 89
9, 22720, Note_on_c, 7, 58, 0
9, 22720, Note_on_c, 7, 94, 0
9, 22720, Note_on_c, 7, 82, 81
9, 22720, Note_on_c, 7, 67, 86
9, 22740, Note_on_c, 7, 67, 0
9, 22740, Note_on_c, 7, 82, 0
9, 22740, Note_on_c, 7, 92, 95
9, 22740, Note_on_c, 7, 53, 94
9, 22760, Note_on_c, 7, 53, 0
9, 22760, Note_on_c, 7, 92, 0
9, 22760, Note_on_c, 7, 80, 81
9, 22760, Note_on_c, 7, 58, 94
9, 22780, Note_on_c, 7, 58, 0
9, 22780, Note_on_c, 7, 80, 0
9, 22780, Note_on_c, 7, 92, 95
9, 22780, Note_on_c, 7, 65, 89
9, 22800, Note_on_c, 7, 65, 0
9, 22800, Note_on_c, 7, 92, 0
9, 22800, Note_on_c, 7, 79, 85
9, 22800, Note_on_c, 7, 51, 99
9, 22820, Note_on_c, 7, 51, 0
9, 22820, Note_on_c, 7, 79, 0
9, 22820, Note_on_c, 7, 91, 95
9, 22820, Note_on_c, 7, 58, 94
9, 22840, Note_on_c, 7, 58, 0
9, 22840, Note_on_c, 7, 91, 0
9, 22840, Note_on_c, 7, 79, 84
9, 22840, Note_on_c, 7, 63, 82
9, 22860, Note_on_c, 7, 63, 0
9, 22860, Note_on_c, 7, 79, 0
9, 22860, Note_on_c, 7, 94, 93
9, 22860, Note_on_c, 7, 55, 94
9, 22880, Note_on_c, 7, 55, 0
9, 22880, Note_on_c, 7, 94, 0
9, 22880, Note_on_c, 7, 82, 81
9, 22880, Note_on_c, 7, 58, 81
9, 22900, Note_on_c, 7, 58, 0
9, 22900, Note_on_c, 7, 82, 0
9, 22900, Note_on_c, 7, 94, 95
9, 22900, Note_on_c, 7, 67, 85
9, 22920, Note_on_c, 7, 67, 0
9, 22920, Note_on_c, 7, 94, 0
9, 22920, Note_on_c, 7, 82, 74
9, 22920, Note_on_c, 7, 55, 95
9, 22940, Note_on_c, 7, 55, 0
9, 22940, Note_on_c, 7, 82, 0
9, 22940, Note_on_c, 7, 94, 84
9, 22940, Note_on_c, 7, 58, 86
9, 22960, Note_on_c, 7, 58, 0
9, 22960, Note_on_c, 7, 94, 0
9, 22960, Note_on_c, 7, 82, 80
9, 22960, Note_on_c, 7, 67, 85
9, 22980, Note_on_c, 7, 67, 0
9, 22980, Note_on_c, 7, 82, 0
9, 22980, Note_on_c, 7, 92, 93
9, 22980, Note_on_c, 7, 53, 89
9, 23000, Note_on_c, 7, 53, 0
9, 23000, Note_on_c, 7, 92, 0
9, 23000, Note_on_c, 7, 80, 93
9, 23000, Note_on_c, 7, 58, 89
9, 23020, Note_on_c, 7, 58, 0
9, 23020, Note_on_c, 7, 80, 0
9, 23020, Note_on_c, 7, 92, 90
9, 23020, Note_on_c, 7, 65, 86
9, 23040, Note_on_c, 7, 65, 0
9, 23040, Note_on_c, 7, 92, 0
9, 23040, Note_on_c, 7, 79, 80
9, 23040, Note_on_c, 7, 51, 94
9, 23060, Note_on_c, 7, 51, 0
9, 23060, Note_on_c, 7, 79, 0
9, 23060, Note_on_c, 7, 91, 89
9, 23060, Note_on_c, 7, 58, 94
9, 23080, Note_on_c, 7, 58, 0
9, 23080, Note_on_c, 7, 91, 0
9, 23080, Note_on_c, 7, 79, 84
9, 23080, Note_on_c, 7, 63, 84
9, 23100, Note_on_c, 7, 63, 0
9, 23100, Note_on_c, 7, 79, 0
9, 23100, Note_on_c, 7, 94, 93
9, 23100, Note_on_c, 7, 55, 90
9, 23120, Note_on_c, 7, 55, 0
9, 23120, Note_on_c, 7, 94, 0
9, 23120, Note_on_c, 7, 82, 76
9, 23120, Note_on_c, 7, 58, 85
9, 23140, Note_on_c, 7, 58, 0
9, 23140, Note_on_c, 7, 82, 0
9, 23140, Note_on_c, 7, 94, 89
9, 23140, Note_on_c, 7, 67, 86
9, 23160, Note_on_c, 7, 67, 0
9, 23160, Note_on_c, 7, 94, 0
9, 23160, Note_on_c, 7, 82, 77
9, 23160, Note_on_c, 7, 55, 95
9, 23180, Note_on_c, 7, 55, 0
9, 23180, Note_on_c, 7, 82, 0
9, 23180, Note_on_c, 7, 94, 86
9, 23180, Note_on_c, 7, 58, 86
9, 23200, Note_on_c, 7, 58, 0
9, 23200, Note_on_c, 7, 94, 0
9, 23200, Note_on_c, 7, 82, 73
9, 23200, Note_on_c, 7, 67, 86
9, 23220, Note_on_c, 7, 67, 0
9, 23220, Note_on_c, 7, 82, 0
9, 23220, Note_on_c, 7, 92, 94
9, 23220, Note_on_c, 7, 53, 94
9, 23240, Note_on_c, 7, 53, 0
9, 23240, Note_on_c, 7, 92, 0
9, 23240, Note_on_c, 7, 80, 80
9, 23240, Note_on_c, 7, 58, 94
9, 23260, Note_on_c, 7, 58, 0
9, 23260, Note_on_c, 7, 80, 0
9, 23260, Note_on_c, 7, 92, 90
9, 23260, Note_on_c, 7, 65, 86
9, 23280, Note_on_c, 7, 65, 0
9, 23280, Note_on_c, 7, 92, 0
9, 23280, Note_on_c, 7, 79, 81
9, 23280, Note_on_c, 7, 51, 98
9, 23300, Note_on_c, 7, 51, 0
9, 23300, Note_on_c, 7, 79, 0
9, 23300, Note_on_c, 7, 91, 94
9, 23300, Note_on_c, 7, 58, 94
9, 23320, Note_on_c, 7, 58, 0
9, 23320, Note_on_c, 7, 91, 0
9, 23320, Note_on_c, 7, 79, 80
9, 23320, Note_on_c, 7, 63, 85
9, 23340, Note_on_c, 7, 63, 0
9, 23340, Note_on_c, 7, 79, 0
9, 23340, Note_on_c, 7, 89, 94
9, 23340, Note_on_c, 7, 44, 94
9, 23360, Note_on_c, 7, 44, 0
9, 23360, Note_on_c, 7, 89, 0
9, 23360, Note_on_c, 7, 77, 81
9, 23360, Note_on_c, 7, 60, 84
9, 23380, Note_on_c, 7, 60, 0
9, 23380, Note_on_c, 7, 77, 0
9, 23380, Note_on_c, 7, 80, 94
9, 23380, Note_on_c, 7, 56, 94
9, 23400, Note_on_c, 7, 56, 0
9, 23400, Note_on_c, 7, 80, 0
9, 23400, Note_on_c, 7, 75, 89
9, 23400, Note_on_c, 7, 46, 98
9, 23420, Note_on_c, 7, 46, 0
9, 23420, Note_on_c, 7, 75, 0
9, 23420, Note_on_c, 7, 79, 94
9, 23420, Note_on_c, 7, 58, 84
9, 23440, Note_on_c, 7, 58, 0
9, 23440, Note_on_c, 7, 79, 0
9, 23440, Note_on_c, 7, 87, 89
9, 23440, Note_on_c, 7, 55, 99
9, 23460, Note_on_c, 7, 55, 0
9, 23460, Note_on_c, 7, 87, 0
9, 23460, Note_on_c, 7, 74, 84
9, 23460, Note_on_c, 7, 46, 99
9, 23480, Note_on_c, 7, 46, 0
9, 23480, Note_on_c, 7, 74, 0
9, 23480, Note_on_c, 7, 77, 86
9, 23480, Note_on_c, 7, 56, 86
9, 23500, Note_on_c, 7, 56, 0
9, 23500, Note_on_c, 7, 77, 0
9, 23500, Note_on_c, 7, 86, 94
9, 23500, Note_on_c, 7, 53, 99
9, 23520, Note_on_c, 7, 53, 0
9, 23520, Note_on_c, 7, 86, 0
9, 23520, Note_on_c, 7, 75, 94
9, 23520, Note_on_c, 7, 55, 76
9, 23520, Note_on_c, 7, 51, 93
9, 23540, Note_on_c, 7, 75, 0
9, 23540, Note_on_c, 7, 77, 95
9, 23560, Note_on_c, 7, 77, 0
9, 23560, Note_on_c, 7, 79, 89
9, 23580, Note_on_c, 7, 79, 0
9, 23580, Note_on_c, 7, 51, 0
9, 23580, Note_on_c, 7, 55, 0
9, 23580, Note_on_c, 7, 77, 93
9, 23600, Note_on_c, 7, 77, 0
9, 23600, Note_on_c, 7, 75, 94
9, 23620, Note_on_c, 7, 75, 0
9, 23620, Note_on_c, 7, 74, 95
9, 23640, Note_on_c, 7, 74, 0
9, 23640, Note_on_c, 7, 72, 95
9, 23660, Note_on_c, 7, 72, 0
9, 23660, Note_on_c, 7, 74, 89
9, 23680, Note_on_c, 7, 74, 0
9, 23680, Note_on_c, 7, 75, 89
9, 23700, Note_on_c, 7, 75, 0
9, 23700, Note_on_c, 7, 74, 93
9, 23720, Note_on_c, 7, 74, 0
9, 23720, Note_on_c, 7, 72, 93
9, 23740, Note_on_c, 7, 72, 0
9, 23740, Note_on_c, 7, 70, 89
9, 23760, Note_on_c, 7, 70, 0
9, 23760, Note_on_c, 7, 68, 86
9, 23780, Note_on_c, 7, 68, 0
9, 23780, Note_on_c, 7, 70, 94
9, 23800, Note_on_c, 7, 70, 0
9, 23800, Note_on_c, 7, 72, 93
9, 23820, Note_on_c, 7, 72, 0
9, 23820, Note_on_c, 7, 70, 86
9, 23840, Note_on_c, 7, 70, 0
9, 23840, Note_on_c, 7, 68, 86
9, 23860, Note_on_c, 7, 68, 0
9, 23860, Note_on_c, 7, 67, 89
9, 23880, Note_on_c, 7, 67, 0
9, 23880, Note_on_c, 7, 65, 85
9, 23880, Note_on_c, 7, 53, 99
9, 23900, Note_on_c, 7, 53, 0
9, 23900, Note_on_c, 7, 65, 0
9, 23900, Note_on_c, 7, 67, 86
9, 23900, Note_on_c, 7, 55, 95
9, 23920, Note_on_c, 7, 55, 0
9, 23920, Note_on_c, 7, 67, 0
9, 23920, Note_on_c, 7, 68, 89
9, 23920, Note_on_c, 7, 56, 84
9, 23940, Note_on_c, 7, 56, 0
9, 23940, Note_on_c, 7, 68, 0
9, 23940, Note_on_c, 7, 67, 94
9, 23940, Note_on_c, 7, 55, 99
9, 23960, Note_on_c, 7, 55, 0
9, 23960, Note_on_c, 7, 67, 0
9, 23960, Note_on_c, 7, 65, 89
9, 23960, Note_on_c, 7, 53, 94
9, 23980, Note_on_c, 7, 53, 0
9, 23980, Note_on_c, 7, 65, 0
9, 23980, Note_on_c, 7, 63, 86
9, 23980, Note_on_c, 7, 51, 95
9, 24000, Note_on_c, 7, 51, 0
9, 24000, Note_on_c, 7, 63, 0
9, 24000, Note_on_c, 7, 62, 94
9, 24000, Note_on_c, 7, 50, 99
9, 24020, Note_on_c, 7, 50, 0
9, 24020, Note_on_c, 7, 62, 0
9, 24020, Note_on_c, 7, 63, 86
9, 24020, Note_on_c, 7, 51, 85
9, 24040, Note_on_c, 7, 51, 0
9, 24040, Note_on_c, 7, 63, 0
9, 24040, Note_on_c, 7, 65, 94
9, 24040, Note_on_c, 7, 53, 81
9, 24060, Note_on_c, 7, 53, 0
9, 24060, Note_on_c, 7, 65, 0
9, 24060, Note_on_c, 7, 63, 82
9, 24060, Note_on_c, 7, 51, 98
9, 24080, Note_on_c, 7, 51, 0
9, 24080, Note_on_c, 7, 63, 0
9, 24080, Note_on_c, 7, 62, 85
9, 24080, Note_on_c, 7, 50, 104
9, 24100, Note_on_c, 7, 50, 0
9, 24100, Note_on_c, 7, 62, 0
9, 24100, Note_on_c, 7, 60, 93
9, 24100, Note_on_c, 7, 48, 82
9, 24120, Note_on_c, 7, 48, 0
9, 24120, Note_on_c, 7, 60, 0
9, 24120, Note_on_c, 7, 58, 89
9, 24120, Note_on_c, 7, 46, 94
9, 24140, Note_on_c, 7, 46, 0
9, 24140, Note_on_c, 7, 58, 0
9, 24140, Note_on_c, 7, 60, 85
9, 24140, Note_on_c, 7, 48, 86
9, 24160, Note_on_c, 7, 48, 0
9, 24160, Note_on_c, 7, 60, 0
9, 24160, Note_on_c, 7, 62, 93
9, 24160, Note_on_c, 7, 50, 93
9, 24180, Note_on_c, 7, 50, 0
9, 24180, Note_on_c, 7, 62, 0
9, 24180, Note_on_c, 7, 60, 89
9, 24180, Note_on_c, 7, 48, 95
9, 24200, Note_on_c, 7, 48, 0
9, 24200, Note_on_c, 7, 60, 0
9, 24200, Note_on_c, 7, 58, 71
9, 24200, Note_on_c, 7, 46, 90
9, 24220, Note_on_c, 7, 46, 0
9, 24220, Note_on_c, 7, 58, 0
9, 24220, Note_on_c, 7, 56, 95
9, 24220, Note_on_c, 7, 44, 94
9, 24240, Note_on_c, 7, 44, 0
9, 24240, Note_on_c, 7, 56, 0
9, 24240, Note_on_c, 7, 55, 99
9, 24240, Note_on_c, 7, 43, 94
9, 24260, Note_on_c, 7, 43, 0
9, 24260, Note_on_c, 7, 55, 0
9, 24260, Note_on_c, 7, 56, 90
9, 24260, Note_on_c, 7, 44, 94
9, 24280, Note_on_c, 7, 44, 0
9, 24280, Note_on_c, 7, 56, 0
9, 24280, Note_on_c, 7, 58, 86
9, 24280, Note_on_c, 7, 46, 95
9, 24300, Note_on_c, 7, 46, 0
9, 24300, Note_on_c, 7, 58, 0
9, 24300, Note_on_c, 7, 56, 89
9, 24300, Note_on_c, 7, 44, 94
9, 24320, Note_on_c, 7, 44, 0
9, 24320, Note_on_c, 7, 56, 0
9, 24320, Note_on_c, 7, 55, 89
9, 24320, Note_on_c, 7, 43, 94
9, 24340, Note_on_c, 7, 43, 0
9, 24340, Note_on_c, 7, 55, 0
9, 24340, Note_on_c, 7, 53, 78
9, 24340, Note_on_c, 7, 41, 104
9, 24360, Note_on_c, 7, 41, 0
9, 24360, Note_on_c, 7, 53, 0
9, 24360, Note_on_c, 7, 51, 89
9, 24360, Note_on_c, 7, 39, 94
9, 24380, Note_on_c, 7, 39, 0
9, 24380, Note_on_c, 7, 51, 0
9, 24380, Note_on_c, 7, 53, 90
9, 24380, Note_on_c, 7, 41, 89
9, 24400, Note_on_c, 7, 41, 0
9, 24400, Note_on_c, 7, 53, 0
9, 24400, Note_on_c, 7, 55, 94
9, 24400, Note_on_c, 7, 43, 90
9, 24420, Note_on_c, 7, 43, 0
9, 24420, Note_on_c, 7, 55, 0
9, 24420, Note_on_c, 7, 53, 93
9, 24420, Note_on_c, 7, 41, 95
9, 24440, Note_on_c, 7, 41, 0
9, 24440, Note_on_c, 7, 53, 0
9, 24440, Note_on_c, 7, 51, 98
9, 24440, Note_on_c, 7, 39, 95
9, 24460, Note_on_c, 7, 39, 0
9, 24460, Note_on_c, 7, 51, 0
9, 24460, Note_on_c, 7, 50, 105
9, 24460, Note_on_c, 7, 38, 104
9, 24480, Note_on_c, 7, 38, 0
9, 24480, Note_on_c, 7, 50, 0
9, 24480, Note_on_c, 7, 36, 94
9, 24480, Note_on_c, 7, 48, 99
9, 24500, Note_on_c, 7, 48, 0
9, 24500, Note_on_c, 7, 36, 0
9, 24500, Note_on_c, 7, 38, 99
9, 24500, Note_on_c, 7, 50, 104
9, 24520, Note_on_c, 7, 50, 0
9, 24520, Note_on_c, 7, 38, 0
9, 24520, Note_on_c, 7, 39, 84
9, 24520, Note_on_c, 7, 51, 82
9, 24540, Note_on_c, 7, 51, 0
9, 24540, Note_on_c, 7, 39, 0
9, 24540, Note_on_c, 7, 38, 105
9, 24540, Note_on_c, 7, 50, 105
9, 24560, Note_on_c, 7, 50, 0
9, 24560, Note_on_c, 7, 38, 0
9, 24560, Note_on_c, 7, 36, 93
9, 24560, Note_on_c, 7, 48, 90
9, 24580, Note_on_c, 7, 48, 0
9, 24580, Note_on_c, 7, 36, 0
9, 24580, Note_on_c, 7, 34, 95
9, 24580, Note_on_c, 7, 46, 93
9, 24600, Note_on_c, 7, 46, 0
9, 24600, Note_on_c, 7, 34, 0
9, 24600, Note_on_c, 7, 33, 119
9, 24600, Note_on_c, 7, 45, 127
9, 24620, Note_on_c, 7, 45, 0
9, 24620, Note_on_c, 7, 33, 0
9, 24620, Note_on_c, 7, 36, 95
9, 24620, Note_on_c, 7, 48, 95
9, 24640, Note_on_c, 7, 48, 0
9, 24640, Note_on_c, 7, 36, 0
9, 24640, Note_on_c, 7, 39, 86
9, 24640, Note_on_c, 7, 51, 90
9, 24660, Note_on_c, 7, 51, 0
9, 24660, Note_on_c, 7, 39, 0
9, 24660, Note_on_c, 7, 38, 84
9, 24660, Note_on_c, 7, 50, 94
9, 24680, Note_on_c, 7, 50, 0
9, 24680, Note_on_c, 7, 38, 0
9, 24680, Note_on_c, 7, 36, 99
9, 24680, Note_on_c, 7, 48, 93
9, 24700, Note_on_c, 7, 48, 0
9, 24700, Note_on_c, 7, 36, 0
9, 24700, Note_on_c, 7, 34, 99
9, 24700, Note_on_c, 7, 46, 95
9, 24720, Note_on_c, 7, 46, 0
9, 24720, Note_on_c, 7, 34, 0
9, 24720, Note_on_c, 7, 33, 127
9, 24720, Note_on_c, 7, 45, 127
9, 24740, Note_on_c, 7, 45, 0
9, 24740, Note_on_c, 7, 33, 0
9, 24740, Note_on_c, 7, 36, 84
9, 24740, Note_on_c, 7, 48, 81
9, 24760, Note_on_c, 7, 48, 0
9, 24760, Note_on_c, 7, 36, 0
9, 24760, Note_on_c, 7, 39, 85
9, 24760, Note_on_c, 7, 51, 89
9, 24780, Note_on_c, 7, 51, 0
9, 24780, Note_on_c, 7, 39, 0
9, 24780, Note_on_c, 7, 38, 95
9, 24780, Note_on_c, 7, 50, 89
9, 24800, Note_on_c, 7, 50, 0
9, 24800, Note_on_c, 7, 38, 0
9, 24800, Note_on_c, 7, 36, 101
9, 24800, Note_on_c, 7, 48, 77
9, 24820, Note_on_c, 7, 48, 0
9, 24820, Note_on_c, 7, 36, 0
9, 24820, Note_on_c, 7, 34, 99
9, 24820, Note_on_c, 7, 46, 86
9, 24840, Note_on_c, 7, 46, 0
9, 24840, Note_on_c, 7, 34, 0
9, 24840, Note_on_c, 7, 33, 125
9, 24840, Note_on_c, 7, 45, 125
9, 24860, Note_on_c, 7, 45, 0
9, 24860, Note_on_c, 7, 33, 0
9, 24860, Note_on_c, 7, 36, 95
9, 24860, Note_on_c, 7, 48, 95
9, 24880, Note_on_c, 7, 48, 0
9, 24880, Note_on_c, 7, 36, 0
9, 24880, Note_on_c, 7, 39, 84
9, 24880, Note_on_c, 7, 51, 86
9, 24900, Note_on_c, 7, 51, 0
9, 24900, Note_on_c, 7, 39, 0
9, 24900, Note_on_c, 7, 38, 95
9, 24900, Note_on_c, 7, 50, 90
9, 24920, Note_on_c, 7, 50, 0
9, 24920, Note_on_c, 7, 38, 0
9, 24920, Note_on_c, 7, 36, 101
9, 24920, Note_on_c, 7, 48, 94
9, 24940, Note_on_c, 7, 48, 0
9, 24940, Note_on_c, 7, 36, 0
9, 24940, Note_on_c, 7, 34, 98
9, 24940, Note_on_c, 7, 46, 94
9, 24960, Note_on_c, 7, 46, 0
9, 24960, Note_on_c, 7, 34, 0
9, 24960, Note_on_c, 7, 33, 104
9, 24960, Note_on_c, 7, 45, 101
9, 25020, Note_on_c, 7, 45, 0
9, 25020, Note_on_c, 7, 33, 0
9, 25020, Note_on_c, 7, 53, 54
9, 25020, Note_on_c, 7, 51, 81
9, 25020, Note_on_c, 7, 45, 84
9, 25065, Note_on_c, 7, 72, 80
9, 25080, Note_on_c, 7, 72, 0
9, 25080, Note_on_c, 7, 53, 0
9, 25080, Note_on_c, 7, 51, 0
9, 25080, Note_on_c, 7, 45, 0
9, 25080, Note_on_c, 7, 84, 95
9, 25110, Note_on_c, 7, 84, 0
9, 25125, Note_on_c, 7, 72, 93
9, 25140, Note_on_c, 7, 72, 0
9, 25140, Note_on_c, 7, 53, 66
9, 25140, Note_on_c, 7, 45, 93
9, 25140, Note_on_c, 7, 51, 86
9, 25140, Note_on_c, 7, 84, 94
9, 25170, Note_on_c, 7, 84, 0
9, 25200, Note_on_c, 7, 53, 0
9, 25200, Note_on_c, 7, 45, 0
9, 25200, Note_on_c, 7, 51, 0
9, 25200, Note_on_c, 7, 63, 86
9, 25260, Note_on_c, 7, 55, 80
9, 25260, Note_on_c, 7, 51, 94
9, 25260, Note_on_c, 7, 46, 78
9, 25320, Note_on_c, 7, 46, 0
9, 25320, Note_on_c, 7, 63, 0
9, 25320, Note_on_c, 7, 55, 0
9, 25320, Note_on_c, 7, 51, 0
9, 25320, Note_on_c, 7, 62, 84
9, 25350, Note_on_c, 7, 62, 0
9, 25350, Note_on_c, 7, 63, 84
9, 25380, Note_on_c, 7, 63, 0
9, 25380, Note_on_c, 7, 56, 70
9, 25380, Note_on_c, 7, 47, 94
9, 25380, Note_on_c, 7, 53, 89
9, 25380, Note_on_c, 7, 65, 81
9, 25410, Note_on_c, 7, 65, 0
9, 25410, Note_on_c, 7, 62, 84
9, 25440, Note_on_c, 7, 62, 0
9, 25440, Note_on_c, 7, 53, 0
9, 25440, Note_on_c, 7, 47, 0
9, 25440, Note_on_c, 7, 56, 0
9, 25440, Note_on_c, 7, 63, 89
9, 25500, Note_on_c, 7, 63, 0
9, 25500, Note_on_c, 7, 48, 94
9, 25500, Note_on_c, 7, 51, 86
9, 25500, Note_on_c, 7, 55, 68
9, 25545, Note_on_c, 7, 75, 99
9, 25560, Note_on_c, 7, 75, 0
9, 25560, Note_on_c, 7, 48, 0
9, 25560, Note_on_c, 7, 51, 0
9, 25560, Note_on_c, 7, 55, 0
9, 25560, Note_on_c, 7, 87, 101
9, 25590, Note_on_c, 7, 87, 0
9, 25605, Note_on_c, 7, 75, 104
9, 25620, Note_on_c, 7, 75, 0
9, 25620, Note_on_c, 7, 54, 64
9, 25620, Note_on_c, 7, 51, 90
9, 25620, Note_on_c, 7, 45, 84
9, 25620, Note_on_c, 7, 48, 99
9, 25620, Note_on_c, 7, 87, 95
9, 25650, Note_on_c, 7, 87, 0
9, 25680, Note_on_c, 7, 45, 0
9, 25680, Note_on_c, 7, 54, 0
9, 25680, Note_on_c, 7, 51, 0
9, 25680, Note_on_c, 7, 48, 0
9, 25680, Note_on_c, 7, 63, 89
9, 25740, Note_on_c, 7, 46, 89
9, 25740, Note_on_c, 7, 51, 86
9, 25740, Note_on_c, 7, 55, 86
9, 25800, Note_on_c, 7, 55, 0
9, 25800, Note_on_c, 7, 63, 0
9, 25800, Note_on_c, 7, 46, 0
9, 25800, Note_on_c, 7, 51, 0
9, 25800, Note_on_c, 7, 62, 99
9, 25830, Note_on_c, 7, 62, 0
9, 25830, Note_on_c, 7, 63, 89
9, 25860, Note_on_c, 7, 63, 0
9, 25860, Note_on_c, 7, 56, 73
9, 25860, Note_on_c, 7, 47, 86
9, 25860, Note_on_c, 7, 53, 93
9, 25860, Note_on_c, 7, 65, 93
9, 25890, Note_on_c, 7, 65, 0
9, 25890, Note_on_c, 7, 62, 98
9, 25920, Note_on_c, 7, 62, 0
9, 25920, Note_on_c, 7, 53, 0
9, 25920, Note_on_c, 7, 47, 0
9, 25920, Note_on_c, 7, 56, 0
9, 25920, Note_on_c, 7, 63, 90
9, 25980, Note_on_c, 7, 63, 0
9, 25980, Note_on_c, 7, 55, 57
9, 25980, Note_on_c, 7, 48, 76
9, 25980, Note_on_c, 7, 51, 82
9, 26025, Note_on_c, 7, 75, 99
9, 26040, Note_on_c, 7, 75, 0
9, 26040, Note_on_c, 7, 55, 0
9, 26040, Note_on_c, 7, 48, 0
9, 26040, Note_on_c, 7, 51, 0
9, 26040, Note_on_c, 7, 90, 89
9, 26070, Note_on_c, 7, 90, 0
9, 26085, Note_on_c, 7, 75, 99
9, 26100, Note_on_c, 7, 75, 0
9, 26100, Note_on_c, 7, 66, 71
9, 26100, Note_on_c, 7, 57, 93
9, 26100, Note_on_c, 7, 63, 85
9, 26100, Note_on_c, 7, 60, 94
9, 26100, Note_on_c, 7, 90, 95
9, 26130, Note_on_c, 7, 90, 0
9, 26160, Note_on_c, 7, 63, 0
9, 26160, Note_on_c, 7, 66, 0
9, 26160, Note_on_c, 7, 57, 0
9, 26160, Note_on_c, 7, 60, 0
9, 26160, Note_on_c, 7, 82, 86
9, 26180, Note_on_c, 7, 82, 0
9, 26180, Note_on_c, 7, 84, 76
9, 26200, Note_on_c, 7, 84, 0
9, 26200, Note_on_c, 7, 82, 89
9, 26220, Note_on_c, 7, 82, 0
9, 26220, Note_on_c, 7, 81, 93
9, 26220, Note_on_c, 7, 58, 85
9, 26220, Note_on_c, 7, 63, 94
9, 26220, Note_on_c, 7, 67, 82
9, 26250, Note_on_c, 7, 81, 0
9, 26250, Note_on_c, 7, 82, 89
9, 26280, Note_on_c, 7, 82, 0
9, 26280, Note_on_c, 7, 67, 0
9, 26280, Note_on_c, 7, 63, 0
9, 26280, Note_on_c, 7, 58, 0
9, 26280, Note_on_c, 7, 70, 93
9, 26300, Note_on_c, 7, 70, 0
9, 26300, Note_on_c, 7, 72, 95
9, 26320, Note_on_c, 7, 72, 0
9, 26320, Note_on_c, 7, 70, 99
9, 26340, Note_on_c, 7, 70, 0
9, 26340, Note_on_c, 7, 69, 90
9, 26340, Note_on_c, 7, 46, 71
9, 26340, Note_on_c, 7, 34, 82
9, 26340, Note_on_c, 7, 41, 98
9, 26340, Note_on_c, 7, 38, 105
9, 26370, Note_on_c, 7, 69, 0
9, 26370, Note_on_c, 7, 70, 95
9, 26400, Note_on_c, 7, 70, 0
9, 26400, Note_on_c, 7, 38, 0
9, 26400, Note_on_c, 7, 46, 0
9, 26400, Note_on_c, 7, 34, 0
9, 26400, Note_on_c, 7, 41, 0
9, 26400, Note_on_c, 7, 51, 72
9, 26400, Note_on_c, 7, 46, 84
9, 26400, Note_on_c, 7, 39, 67
9, 26400, Note_on_c, 7, 43, 90
9, 26400, Note_on_c, 7, 63, 86
9, 26460, Note_on_c, 7, 63, 0
9, 26460, Note_on_c, 7, 39, 0
9, 26460, Note_on_c, 7, 51, 0
9, 26460, Note_on_c, 7, 46, 0
9, 26460, Note_on_c, 7, 43, 0
9, 29280, Note_on_c, 7, 67, 80
9, 29300, Note_on_c, 7, 67, 0
9, 29300, Note_on_c, 7, 66, 62
9, 29320, Note_on_c, 7, 66, 0
9, 29320, Note_on_c, 7, 67, 62
9, 29340, Note_on_c, 7, 67, 0
9, 29340, Note_on_c, 7, 71, 84
9, 29360, Note_on_c, 7, 71, 0
9, 29360, Note_on_c, 7, 70, 64
9, 29380, Note_on_c, 7, 70, 0
9, 29380, Note_on_c, 7, 71, 72
9, 29400, Note_on_c, 7, 71, 0
9, 29400, Note_on_c, 7, 74, 86
9, 29400, Note_on_c, 7, 55, 57
9, 29400, Note_on_c, 7, 43, 65
9, 29420, Note_on_c, 7, 74, 0
9, 29420, Note_on_c, 7, 73, 66
9, 29440, Note_on_c, 7, 73, 0
9, 29440, Note_on_c, 7, 74, 90
9, 29460, Note_on_c, 7, 74, 0
9, 29460, Note_on_c, 7, 43, 0
9, 29460, Note_on_c, 7, 55, 0
9, 29460, Note_on_c, 7, 67, 76
9, 29480, Note_on_c, 7, 67, 0
9, 29480, Note_on_c, 7, 66, 65
9, 29500, Note_on_c, 7, 66, 0
9, 29500, Note_on_c, 7, 67, 80
9, 29520, Note_on_c, 7, 67, 0
9, 29520, Note_on_c, 7, 71, 81
9, 29540, Note_on_c, 7, 71, 0
9, 29540, Note_on_c, 7, 70, 73
9, 29560, Note_on_c, 7, 70, 0
9, 29560, Note_on_c, 7, 71, 84
9, 29580, Note_on_c, 7, 71, 0
9, 29580, Note_on_c, 7, 74, 84
9, 29600, Note_on_c, 7, 74, 0
9, 29600, Note_on_c, 7, 73, 65
9, 29620, Note_on_c, 7, 73, 0
9, 29620, Note_on_c, 7, 74, 84
9, 29640, Note_on_c, 7, 74, 0
9, 29640, Note_on_c, 7, 77, 76
9, 29640, Note_on_c, 7, 43, 76
9, 29640, Note_on_c, 7, 55, 70
9, 29660, Note_on_c, 7, 77, 0
9, 29660, Note_on_c, 7, 76, 86
9, 29680, Note_on_c, 7, 76, 0
9, 29680, Note_on_c, 7, 77, 76
9, 29700, Note_on_c, 7, 77, 0
9, 29700, Note_on_c, 7, 55, 0
9, 29700, Note_on_c, 7, 43, 0
9, 29700, Note_on_c, 7, 80, 78
9, 29720, Note_on_c, 7, 80, 0
9, 29720, Note_on_c, 7, 79, 76
9, 29740, Note_on_c, 7, 79, 0
9, 29740, Note_on_c, 7, 80, 77
9, 29760, Note_on_c, 7, 80, 0
9, 29760, Note_on_c, 7, 83, 73
9, 29780, Note_on_c, 7, 83, 0
9, 29780, Note_on_c, 7, 82, 64
9, 29800, Note_on_c, 7, 82, 0
9, 29800, Note_on_c, 7, 83, 80
9, 29820, Note_on_c, 7, 83, 0
9, 29820, Note_on_c, 7, 86, 81
9, 29840, Note_on_c, 7, 86, 0
9, 29840, Note_on_c, 7, 85, 65
9, 29860, Note_on_c, 7, 85, 0
9, 29860, Note_on_c, 7, 86, 81
9, 29880, Note_on_c, 7, 86, 0
9, 29880, Note_on_c, 7, 89, 78
9, 29880, Note_on_c, 7, 43, 70
9, 29880, Note_on_c, 7, 55, 58
9, 29900, Note_on_c, 7, 89, 0
9, 29900, Note_on_c, 7, 88, 78
9, 29920, Note_on_c, 7, 88, 0
9, 29920, Note_on_c, 7, 89, 81
9, 29940, Note_on_c, 7, 89, 0
9, 29940, Note_on_c, 7, 55, 0
9, 29940, Note_on_c, 7, 43, 0
9, 29940, Note_on_c, 7, 83, 82
9, 29960, Note_on_c, 7, 83, 0
9, 29960, Note_on_c, 7, 82, 61
9, 29980, Note_on_c, 7, 82, 0
9, 29980, Note_on_c, 7, 83, 84
9, 30000, Note_on_c, 7, 83, 0
9, 30000, Note_on_c, 7, 86, 86
9, 30020, Note_on_c, 7, 86, 0
9, 30020, Note_on_c, 7, 85, 65
9, 30040, Note_on_c, 7, 85, 0
9, 30040, Note_on_c, 7, 86, 84
9, 30060, Note_on_c, 7, 86, 0
9, 30060, Note_on_c, 7, 89, 74
9, 30080, Note_on_c, 7, 89, 0
9, 30080, Note_on_c, 7, 88, 77
9, 30100, Note_on_c, 7, 88, 0
9, 30100, Note_on_c, 7, 89, 81
9, 30120, Note_on_c, 7, 89, 0
9, 30120, Note_on_c, 7, 83, 77
9, 30120, Note_on_c, 7, 55, 58
9, 30120, Note_on_c, 7, 43, 68
9, 30140, Note_on_c, 7, 83, 0
9, 30140, Note_on_c, 7, 82, 74
9, 30160, Note_on_c, 7, 82, 0
9, 30160, Note_on_c, 7, 83, 71
9, 30180, Note_on_c, 7, 83, 0
9, 30180, Note_on_c, 7, 43, 0
9, 30180, Note_on_c, 7, 55, 0
9, 30180, Note_on_c, 7, 86, 81
9, 30200, Note_on_c, 7, 86, 0
9, 30200, Note_on_c, 7, 85, 59
9, 30220, Note_on_c, 7, 85, 0
9, 30220, Note_on_c, 7, 86, 86
9, 30240, Note_on_c, 7, 86, 0
9, 30240, Note_on_c, 7, 89, 73
9, 30260, Note_on_c, 7, 89, 0
9, 30260, Note_on_c, 7, 88, 73
9, 30280, Note_on_c, 7, 88, 0
9, 30280, Note_on_c, 7, 87, 76
9, 30300, Note_on_c, 7, 87, 0
9, 30300, Note_on_c, 7, 86, 68
9, 30320, Note_on_c, 7, 86, 0
9, 30320, Note_on_c, 7, 85, 64
9, 30340, Note_on_c, 7, 85, 0
9, 30340, Note_on_c, 7, 84, 73
9, 30360, Note_on_c, 7, 84, 0
9, 30360, Note_on_c, 7, 83, 73
9, 30360, Note_on_c, 7, 65, 51
9, 30360, Note_on_c, 7, 55, 57
9, 30360, Note_on_c, 7, 62, 67
9, 30380, Note_on_c, 7, 83, 0
9, 30380, Note_on_c, 7, 84, 76
9, 30400, Note_on_c, 7, 84, 0
9, 30400, Note_on_c, 7, 85, 77
9, 30420, Note_on_c, 7, 85, 0
9, 30420, Note_on_c, 7, 65, 0
9, 30420, Note_on_c, 7, 55, 0
9, 30420, Note_on_c, 7, 62, 0
9, 30420, Note_on_c, 7, 86, 84
9, 30440, Note_on_c, 7, 86, 0
9, 30440, Note_on_c, 7, 87, 84
9, 30460, Note_on_c, 7, 87, 0
9, 30460, Note_on_c, 7, 88, 93
9, 30480, Note_on_c, 7, 88, 0
9, 30480, Note_on_c, 7, 89, 89
9, 30480, Note_on_c, 7, 65, 51
9, 30480, Note_on_c, 7, 62, 72
9, 30480, Note_on_c, 7, 55, 65
9, 30500, Note_on_c, 7, 89, 0
9, 30500, Note_on_c, 7, 88, 80
9, 30520, Note_on_c, 7, 88, 0
9, 30520, Note_on_c, 7, 87, 77
9, 30540, Note_on_c, 7, 87, 0
9, 30540, Note_on_c, 7, 65, 0
9, 30540, Note_on_c, 7, 62, 0
9, 30540, Note_on_c, 7, 55, 0
9, 30540, Note_on_c, 7, 86, 81
9, 30560, Note_on_c, 7, 86, 0
9, 30560, Note_on_c, 7, 85, 77
9, 30580, Note_on_c, 7, 85, 0
9, 30580, Note_on_c, 7, 84, 80
9, 30600, Note_on_c, 7, 84, 0
9, 30600, Note_on_c, 7, 83, 80
9, 30600, Note_on_c, 7, 65, 69
9, 30600, Note_on_c, 7, 55, 74
9, 30600, Note_on_c, 7, 62, 77
9, 30620, Note_on_c, 7, 83, 0
9, 30620, Note_on_c, 7, 84, 81
9, 30640, Note_on_c, 7, 84, 0
9, 30640, Note_on_c, 7, 85, 73
9, 30660, Note_on_c, 7, 85, 0
9, 30660, Note_on_c, 7, 65, 0
9, 30660, Note_on_c, 7, 55, 0
9, 30660, Note_on_c, 7, 62, 0
9, 30660, Note_on_c, 7, 86, 69
9, 30680, Note_on_c, 7, 86, 0
9, 30680, Note_on_c, 7, 87, 76
9, 30700, Note_on_c, 7, 87, 0
9, 30700, Note_on_c, 7, 88, 86
9, 30720, Note_on_c, 7, 88, 0
9, 30720, Note_on_c, 7, 89, 89
9, 30720, Note_on_c, 7, 65, 74
9, 30720, Note_on_c, 7, 55, 77
9, 30720, Note_on_c, 7, 62, 77
9, 30740, Note_on_c, 7, 89, 0
9, 30740, Note_on_c, 7, 88, 93
9, 30760, Note_on_c, 7, 88, 0
9, 30760, Note_on_c, 7, 87, 80
9, 30780, Note_on_c, 7, 87, 0
9, 30780, Note_on_c, 7, 65, 0
9, 30780, Note_on_c, 7, 55, 0
9, 30780, Note_on_c, 7, 62, 0
9, 30780, Note_on_c, 7, 86, 90
9, 30800, Note_on_c, 7, 86, 0
9, 30800, Note_on_c, 7, 85, 82
9, 30820, Note_on_c, 7, 85, 0
9, 30820, Note_on_c, 7, 84, 73
9, 30840, Note_on_c, 7, 84, 0
9, 30840, Note_on_c, 7, 83, 89
9, 30860, Note_on_c, 7, 83, 0
9, 30860, Note_on_c, 7, 82, 89
9, 30880, Note_on_c, 7, 82, 0
9, 30880, Note_on_c, 7, 81, 89
9, 30900, Note_on_c, 7, 81, 0
9, 30900, Note_on_c, 7, 80, 82
9, 30920, Note_on_c, 7, 80, 0
9, 30920, Note_on_c, 7, 79, 76
9, 30940, Note_on_c, 7, 79, 0
9, 30940, Note_on_c, 7, 78, 89
9, 30960, Note_on_c, 7, 78, 0
9, 30960, Note_on_c, 7, 77, 80
9, 30980, Note_on_c, 7, 77, 0
9, 30980, Note_on_c, 7, 76, 99
9, 31000, Note_on_c, 7, 76, 0
9, 31000, Note_on_c, 7, 75, 101
9, 31020, Note_on_c, 7, 75, 0
9, 31020, Note_on_c, 7, 74, 104
9, 31040, Note_on_c, 7, 74, 0
9, 31040, Note_on_c, 7, 73, 89
9, 31060, Note_on_c, 7, 73, 0
9, 31060, Note_on_c, 7, 72, 95
9, 31080, Note_on_c, 7, 72, 0
9, 31080, Note_on_c, 7, 71, 89
9, 31100, Note_on_c, 7, 71, 0
9, 31100, Note_on_c, 7, 70, 89
9, 31120, Note_on_c, 7, 70, 0
9, 31120, Note_on_c, 7, 69, 99
9, 31140, Note_on_c, 7, 69, 0
9, 31140, Note_on_c, 7, 68, 101
9, 31160, Note_on_c, 7, 68, 0
9, 31160, Note_on_c, 7, 67, 94
9, 31180, Note_on_c, 7, 67, 0
9, 31180, Note_on_c, 7, 66, 101
9, 31200, Note_on_c, 7, 66, 0
9, 31200, Note_on_c, 7, 65, 110
9, 31220, Note_on_c, 7, 65, 0
9, 31220, Note_on_c, 7, 64, 99
9, 31240, Note_on_c, 7, 64, 0
9, 31240, Note_on_c, 7, 63, 104
9, 31260, Note_on_c, 7, 63, 0
9, 31260, Note_on_c, 7, 62, 94
9, 31280, Note_on_c, 7, 62, 0
9, 31280, Note_on_c, 7, 61, 115
9, 31300, Note_on_c, 7, 61, 0
9, 31300, Note_on_c, 7, 60, 94
9, 31320, Note_on_c, 7, 60, 0
9, 31320, Note_on_c, 7, 59, 94
9, 31340, Note_on_c, 7, 59, 0
9, 31340, Note_on_c, 7, 58, 110
9, 31360, Note_on_c, 7, 58, 0
9, 31360, Note_on_c, 7, 57, 105
9, 31380, Note_on_c, 7, 57, 0
9, 31380, Note_on_c, 7, 56, 112
9, 31400, Note_on_c, 7, 56, 0
9, 31400, Note_on_c, 7, 55, 99
9, 31420, Note_on_c, 7, 55, 0
9, 31420, Note_on_c, 7, 54, 89
9, 31440, Note_on_c, 7, 54, 0
9, 31440, Note_on_c, 7, 53, 99
9, 31460, Note_on_c, 7, 53, 0
9, 31460, Note_on_c, 7, 52, 105
9, 31480, Note_on_c, 7, 52, 0
9, 31480, Note_on_c, 7, 51, 115
9, 31500, Note_on_c, 7, 51, 0
9, 31500, Note_on_c, 7, 50, 101
9, 31520, Note_on_c, 7, 50, 0
9, 31520, Note_on_c, 7, 49, 115
9, 31540, Note_on_c, 7, 49, 0
9, 31540, Note_on_c, 7, 48, 110
9, 31560, Note_on_c, 7, 48, 0
9, 31560, Note_on_c, 7, 47, 105
9, 31580, Note_on_c, 7, 47, 0
9, 31580, Note_on_c, 7, 48, 104
9, 31600, Note_on_c, 7, 48, 0
9, 31600, Note_on_c, 7, 49, 94
9, 31620, Note_on_c, 7, 49, 0
9, 31620, Note_on_c, 7, 50, 98
9, 31640, Note_on_c, 7, 50, 0
9, 31640, Note_on_c, 7, 51, 95
9, 31660, Note_on_c, 7, 51, 0
9, 31660, Note_on_c, 7, 52, 99
9, 31680, Note_on_c, 7, 52, 0
9, 31680, Note_on_c, 7, 53, 94
9, 31700, Note_on_c, 7, 53, 0
9, 31700, Note_on_c, 7, 54, 98
9, 31720, Note_on_c, 7, 54, 0
9, 31720, Note_on_c, 7, 55, 89
9, 31740, Note_on_c, 7, 55, 0
9, 31740, Note_on_c, 7, 56, 93
9, 31760, Note_on_c, 7, 56, 0
9, 31760, Note_on_c, 7, 57, 104
9, 31780, Note_on_c, 7, 57, 0
9, 31780, Note_on_c, 7, 58, 101
9, 31800, Note_on_c, 7, 58, 0
9, 31800, Note_on_c, 7, 59, 99
9, 31820, Note_on_c, 7, 59, 0
9, 31820, Note_on_c, 7, 60, 98
9, 31840, Note_on_c, 7, 60, 0
9, 31840, Note_on_c, 7, 61, 93
9, 31860, Note_on_c, 7, 61, 0
9, 31860, Note_on_c, 7, 62, 89
9, 31880, Note_on_c, 7, 62, 0
9, 31880, Note_on_c, 7, 63, 93
9, 31900, Note_on_c, 7, 63, 0
9, 31900, Note_on_c, 7, 64, 99
9, 31920, Note_on_c, 7, 64, 0
9, 31920, Note_on_c, 7, 65, 101
9, 31940, Note_on_c, 7, 65, 0
9, 31940, Note_on_c, 7, 66, 93
9, 31960, Note_on_c, 7, 66, 0
9, 31960, Note_on_c, 7, 67, 89
9, 31980, Note_on_c, 7, 67, 0
9, 31980, Note_on_c, 7, 68, 99
9, 32000, Note_on_c, 7, 68, 0
9, 32000, Note_on_c, 7, 69, 94
9, 32020, Note_on_c, 7, 69, 0
9, 32020, Note_on_c, 7, 70, 95
9, 32040, Note_on_c, 7, 70, 0
9, 32040, Note_on_c, 7, 71, 105
9, 32060, Note_on_c, 7, 71, 0
9, 32060, Note_on_c, 7, 72, 98
9, 32080, Note_on_c, 7, 72, 0
9, 32080, Note_on_c, 7, 73, 112
9, 32100, Note_on_c, 7, 73, 0
9, 32100, Note_on_c, 7, 74, 99
9, 32110, Note_on_c, 7, 74, 0
9, 32110, Note_on_c, 7, 75, 99
9, 32120, Note_on_c, 7, 75, 0
9, 32120, Note_on_c, 7, 76, 105
9, 32130, Note_on_c, 7, 76, 0
9, 32130, Note_on_c, 7, 77, 99
9, 32140, Note_on_c, 7, 77, 0
9, 32140, Note_on_c, 7, 78, 95
9, 32150, Note_on_c, 7, 78, 0
9, 32150, Note_on_c, 7, 79, 104
9, 32160, Note_on_c, 7, 79, 0
9, 32160, Note_on_c, 7, 80, 123
9, 32160, Note_on_c, 7, 55, 95
9, 32190, Note_on_c, 7, 55, 0
9, 32190, Note_on_c, 7, 67, 74
9, 32220, Note_on_c, 7, 67, 0
9, 32220, Note_on_c, 7, 80, 0
9, 32220, Note_on_c, 7, 71, 78
9, 32220, Note_on_c, 7, 62, 81
9, 32250, Note_on_c, 7, 62, 0
9, 32250, Note_on_c, 7, 71, 0
9, 32250, Note_on_c, 7, 67, 73
9, 32280, Note_on_c, 7, 67, 0
9, 32280, Note_on_c, 7, 71, 76
9, 32280, Note_on_c, 7, 65, 84
9, 32280, Note_on_c, 7, 67, 63
9, 32310, Note_on_c, 7, 67, 0
9, 32310, Note_on_c, 7, 65, 0
9, 32310, Note_on_c, 7, 71, 0
9, 32340, Note_on_c, 7, 71, 81
9, 32340, Note_on_c, 7, 62, 84
9, 32370, Note_on_c, 7, 62, 0
9, 32370, Note_on_c, 7, 71, 0
9, 32370, Note_on_c, 7, 67, 78
9, 32400, Note_on_c, 7, 67, 0
9, 32400, Note_on_c, 7, 72, 93
9, 32400, Note_on_c, 7, 63, 76
9, 32430, Note_on_c, 7, 63, 0
9, 32430, Note_on_c, 7, 67, 76
9, 32460, Note_on_c, 7, 67, 0
9, 32460, Note_on_c, 7, 62, 93
9, 32490, Note_on_c, 7, 62, 0
9, 32490, Note_on_c, 7, 67, 67
9, 32520, Note_on_c, 7, 67, 0
9, 32520, Note_on_c, 7, 72, 0
9, 32520, Note_on_c, 7, 74, 80
9, 32520, Note_on_c, 7, 63, 78
9, 32550, Note_on_c, 7, 63, 0
9, 32550, Note_on_c, 7, 74, 0
9, 32550, Note_on_c, 7, 72, 80
9, 32550, Note_on_c, 7, 67, 76
9, 32580, Note_on_c, 7, 67, 0
9, 32580, Note_on_c, 7, 72, 0
9, 32580, Note_on_c, 7, 71, 64
9, 32580, Note_on_c, 7, 60, 78
9, 32610, Note_on_c, 7, 60, 0
9, 32610, Note_on_c, 7, 71, 0
9, 32610, Note_on_c, 7, 72, 81
9, 32610, Note_on_c, 7, 67, 78
9, 32640, Note_on_c, 7, 67, 0
9, 32640, Note_on_c, 7, 72, 0
9, 32640, Note_on_c, 7, 74, 85
9, 32640, Note_on_c, 7, 59, 85
9, 32670, Note_on_c, 7, 59, 0
9, 32670, Note_on_c, 7, 74, 0
9, 32670, Note_on_c, 7, 67, 76
9, 32700, Note_on_c, 7, 67, 0
9, 32700, Note_on_c, 7, 74, 112
9, 32700, Note_on_c, 7, 55, 82
9, 32730, Note_on_c, 7, 55, 0
9, 32730, Note_on_c, 7, 74, 0
9, 32730, Note_on_c, 7, 67, 72
9, 32760, Note_on_c, 7, 67, 0
9, 32760, Note_on_c, 7, 75, 86
9, 32760, Note_on_c, 7, 60, 84
9, 32790, Note_on_c, 7, 60, 0
9, 32790, Note_on_c, 7, 75, 0
9, 32790, Note_on_c, 7, 67, 66
9, 32820, Note_on_c, 7, 67, 0
9, 32820, Note_on_c, 7, 75, 119
9, 32820, Note_on_c, 7, 55, 84
9, 32850, Note_on_c, 7, 55, 0
9, 32850, Note_on_c, 7, 75, 0
9, 32850, Note_on_c, 7, 67, 69
9, 32880, Note_on_c, 7, 67, 0
9, 32880, Note_on_c, 7, 74, 94
9, 32880, Note_on_c, 7, 59, 93
9, 32910, Note_on_c, 7, 59, 0
9, 32910, Note_on_c, 7, 67, 71
9, 32940, Note_on_c, 7, 67, 0
9, 32940, Note_on_c, 7, 55, 81
9, 32970, Note_on_c, 7, 55, 0
9, 32970, Note_on_c, 7, 74, 0
9, 32970, Note_on_c, 7, 75, 90
9, 32970, Note_on_c, 7, 67, 62
9, 33000, Note_on_c, 7, 67, 0
9, 33000, Note_on_c, 7, 75, 0
9, 33000, Note_on_c, 7, 76, 93
9, 33000, Note_on_c, 7, 59, 82
9, 33030, Note_on_c, 7, 59, 0
9, 33030, Note_on_c, 7, 76, 0
9, 33030, Note_on_c, 7, 77, 85
9, 33030, Note_on_c, 7, 67, 74
9, 33060, Note_on_c, 7, 67, 0
9, 33060, Note_on_c, 7, 77, 0
9, 33060, Note_on_c, 7, 78, 80
9, 33060, Note_on_c, 7, 55, 84
9, 33090, Note_on_c, 7, 55, 0
9, 33090, Note_on_c, 7, 78, 0
9, 33090, Note_on_c, 7, 79, 89
9, 33090, Note_on_c, 7, 67, 68
9, 33120, Note_on_c, 7, 67, 0
9, 33120, Note_on_c, 7, 79, 0
9, 33120, Note_on_c, 7, 80, 81
9, 33120, Note_on_c, 7, 59, 90
9, 33150, Note_on_c, 7, 59, 0
9, 33150, Note_on_c, 7, 67, 76
9, 33180, Note_on_c, 7, 67, 0
9, 33180, Note_on_c, 7, 80, 0
9, 33180, Note_on_c, 7, 71, 89
9, 33180, Note_on_c, 7, 62, 86
9, 33210, Note_on_c, 7, 62, 0
9, 33210, Note_on_c, 7, 71, 0
9, 33210, Note_on_c, 7, 67, 80
9, 33240, Note_on_c, 7, 67, 0
9, 33240, Note_on_c, 7, 71, 93
9, 33240, Note_on_c, 7, 65, 77
9, 33270, Note_on_c, 7, 65, 0
9, 33270, Note_on_c, 7, 71, 0
9, 33270, Note_on_c, 7, 67, 78
9, 33300, Note_on_c, 7, 67, 0
9, 33300, Note_on_c, 7, 71, 86
9, 33300, Note_on_c, 7, 62, 89
9, 33330, Note_on_c, 7, 62, 0
9, 33330, Note_on_c, 7, 71, 0
9, 33330, Note_on_c, 7, 67, 74
9, 33360, Note_on_c, 7, 67, 0
9, 33360, Note_on_c, 7, 72, 89
9, 33360, Note_on_c, 7, 63, 76
9, 33390, Note_on_c, 7, 63, 0
9, 33390, Note_on_c, 7, 67, 72
9, 33420, Note_on_c, 7, 67, 0
9, 33420, Note_on_c, 7, 62, 84
9, 33450, Note_on_c, 7, 62, 0
9, 33450, Note_on_c, 7, 67, 68
9, 33480, Note_on_c, 7, 67, 0
9, 33480, Note_on_c, 7, 72, 0
9, 33480, Note_on_c, 7, 74, 84
9, 33480, Note_on_c, 7, 63, 81
9, 33510, Note_on_c, 7, 63, 0
9, 33510, Note_on_c, 7, 74, 0
9, 33510, Note_on_c, 7, 72, 80
9, 33510, Note_on_c, 7, 67, 76
9, 33540, Note_on_c, 7, 67, 0
9, 33540, Note_on_c, 7, 72, 0
9, 33540, Note_on_c, 7, 71, 80
9, 33540, Note_on_c, 7, 60, 80
9, 33570, Note_on_c, 7, 60, 0
9, 33570, Note_on_c, 7, 71, 0
9, 33570, Note_on_c, 7, 72, 81
9, 33570, Note_on_c, 7, 67, 65
9, 33600, Note_on_c, 7, 67, 0
9, 33600, Note_on_c, 7, 72, 0
9, 33600, Note_on_c, 7, 74, 98
9, 33600, Note_on_c, 7, 46, 86
9, 33630, Note_on_c, 7, 46, 0
9, 33630, Note_on_c, 7, 55, 80
9, 33660, Note_on_c, 7, 55, 0
9, 33660, Note_on_c, 7, 74, 0
9, 33660, Note_on_c, 7, 70, 99
9, 33660, Note_on_c, 7, 51, 94
9, 33690, Note_on_c, 7, 51, 0
9, 33690, Note_on_c, 7, 55, 80
9, 33720, Note_on_c, 7, 55, 0
9, 33720, Note_on_c, 7, 70, 0
9, 33720, Note_on_c, 7, 69, 95
9, 33720, Note_on_c, 7, 48, 95
9, 33750, Note_on_c, 7, 48, 0
9, 33750, Note_on_c, 7, 69, 0
9, 33750, Note_on_c, 7, 55, 80
9, 33780, Note_on_c, 7, 55, 0
9, 33780, Note_on_c, 7, 74, 105
9, 33780, Note_on_c, 7, 50, 99
9, 33810, Note_on_c, 7, 50, 0
9, 33810, Note_on_c, 7, 74, 0
9, 33810, Note_on_c, 7, 54, 84
9, 33840, Note_on_c, 7, 54, 0
9, 33840, Note_on_c, 7, 67, 90
9, 33840, Note_on_c, 7, 43, 93
9, 33870, Note_on_c, 7, 43, 0
9, 33870, Note_on_c, 7, 55, 86
9, 33900, Note_on_c, 7, 55, 0
9, 33900, Note_on_c, 7, 67, 0
9, 33900, Note_on_c, 7, 50, 104
9, 33930, Note_on_c, 7, 50, 0
9, 33930, Note_on_c, 7, 46, 94
9, 33960, Note_on_c, 7, 46, 0
9, 33960, Note_on_c, 7, 43, 95
9, 34020, Note_on_c, 7, 43, 0
9, 34080, Note_on_c, 7, 47, 65
9, 34080, Note_on_c, 7, 59, 61
9, 34110, Note_on_c, 7, 59, 0
9, 34110, Note_on_c, 7, 47, 0
9, 34110, Note_on_c, 7, 50, 73
9, 34110, Note_on_c, 7, 62, 65
9, 34140, Note_on_c, 7, 62, 0
9, 34140, Note_on_c, 7, 50, 0
9, 34140, Note_on_c, 7, 65, 67
9, 34140, Note_on_c, 7, 53, 56
9, 34170, Note_on_c, 7, 53, 0
9, 34170, Note_on_c, 7, 65, 0
9, 34170, Note_on_c, 7, 56, 73
9, 34170, Note_on_c, 7, 68, 80
9, 34200, Note_on_c, 7, 68, 0
9, 34200, Note_on_c, 7, 56, 0
9, 34200, Note_on_c, 7, 67, 68
9, 34200, Note_on_c, 7, 55, 68
9, 34230, Note_on_c, 7, 55, 0
9, 34230, Note_on_c, 7, 67, 0
9, 34230, Note_on_c, 7, 65, 74
9, 34230, Note_on_c, 7, 53, 68
9, 34260, Note_on_c, 7, 53, 0
9, 34260, Note_on_c, 7, 65, 0
9, 34260, Note_on_c, 7, 63, 68
9, 34260, Note_on_c, 7, 51, 69
9, 34290, Note_on_c, 7, 51, 0
9, 34290, Note_on_c, 7, 63, 0
9, 34290, Note_on_c, 7, 62, 68
9, 34290, Note_on_c, 7, 50, 80
9, 34320, Note_on_c, 7, 50, 0
9, 34320, Note_on_c, 7, 62, 0
9, 34320, Note_on_c, 7, 63, 63
9, 34320, Note_on_c, 7, 51, 85
9, 34350, Note_on_c, 7, 51, 0
9, 34350, Note_on_c, 7, 63, 0
9, 34350, Note_on_c, 7, 67, 71
9, 34350, Note_on_c, 7, 55, 77
9, 34380, Note_on_c, 7, 55, 0
9, 34380, Note_on_c, 7, 67, 0
9, 34380, Note_on_c, 7, 60, 80
9, 34380, Note_on_c, 7, 72, 67
9, 34410, Note_on_c, 7, 72, 0
9, 34410, Note_on_c, 7, 60, 0
9, 34410, Note_on_c, 7, 75, 86
9, 34410, Note_on_c, 7, 63, 72
9, 34440, Note_on_c, 7, 63, 0
9, 34440, Note_on_c, 7, 75, 0
9, 34440, Note_on_c, 7, 67, 68
9, 34440, Note_on_c, 7, 79, 90
9, 34470, Note_on_c, 7, 79, 0
9, 34470, Note_on_c, 7, 67, 0
9, 34470, Note_on_c, 7, 75, 73
9, 34470, Note_on_c, 7, 63, 66
9, 34500, Note_on_c, 7, 63, 0
9, 34500, Note_on_c, 7, 75, 0
9, 34500, Note_on_c, 7, 62, 76
9, 34500, Note_on_c, 7, 74, 72
9, 34530, Note_on_c, 7, 74, 0
9, 34530, Note_on_c, 7, 62, 0
9, 34530, Note_on_c, 7, 60, 78
9, 34530, Note_on_c, 7, 72, 81
9, 34560, Note_on_c, 7, 72, 0
9, 34560, Note_on_c, 7, 60, 0
9, 34560, Note_on_c, 7, 59, 69
9, 34560, Note_on_c, 7, 71, 76
9, 34590, Note_on_c, 7, 71, 0
9, 34590, Note_on_c, 7, 59, 0
9, 34590, Note_on_c, 7, 74, 80
9, 34590, Note_on_c, 7, 62, 57
9, 34620, Note_on_c, 7, 62, 0
9, 34620, Note_on_c, 7, 74, 0
9, 34620, Note_on_c, 7, 59, 76
9, 34620, Note_on_c, 7, 71, 90
9, 34650, Note_on_c, 7, 71, 0
9, 34650, Note_on_c, 7, 59, 0
9, 34650, Note_on_c, 7, 55, 74
9, 34650, Note_on_c, 7, 67, 70
9, 34680, Note_on_c, 7, 67, 0
9, 34680, Note_on_c, 7, 55, 0
9, 34680, Note_on_c, 7, 60, 89
9, 34680, Note_on_c, 7, 72, 80
9, 34710, Note_on_c, 7, 72, 0
9, 34710, Note_on_c, 7, 60, 0
9, 34710, Note_on_c, 7, 75, 85
9, 34710, Note_on_c, 7, 63, 59
9, 34740, Note_on_c, 7, 63, 0
9, 34740, Note_on_c, 7, 75, 0
9, 34740, Note_on_c, 7, 72, 81
9, 34740, Note_on_c, 7, 60, 84
9, 34770, Note_on_c, 7, 60, 0
9, 34770, Note_on_c, 7, 72, 0
9, 34770, Note_on_c, 7, 55, 82
9, 34770, Note_on_c, 7, 67, 68
9, 34800, Note_on_c, 7, 67, 0
9, 34800, Note_on_c, 7, 55, 0
9, 34800, Note_on_c, 7, 59, 61
9, 34800, Note_on_c, 7, 71, 82
9, 34830, Note_on_c, 7, 71, 0
9, 34830, Note_on_c, 7, 59, 0
9, 34830, Note_on_c, 7, 74, 71
9, 34830, Note_on_c, 7, 62, 63
9, 34860, Note_on_c, 7, 62, 0
9, 34860, Note_on_c, 7, 74, 0
9, 34860, Note_on_c, 7, 59, 66
9, 34860, Note_on_c, 7, 71, 82
9, 34890, Note_on_c, 7, 71, 0
9, 34890, Note_on_c, 7, 59, 0
9, 34890, Note_on_c, 7, 55, 78
9, 34890, Note_on_c, 7, 67, 54
9, 34920, Note_on_c, 7, 67, 0
9, 34920, Note_on_c, 7, 55, 0
9, 34920, Note_on_c, 7, 71, 76
9, 34920, Note_on_c, 7, 59, 63
9, 34950, Note_on_c, 7, 59, 0
9, 34950, Note_on_c, 7, 71, 0
9, 34950, Note_on_c, 7, 55, 72
9, 34950, Note_on_c, 7, 67, 60
9, 34980, Note_on_c, 7, 67, 0
9, 34980, Note_on_c, 7, 55, 0
9, 34980, Note_on_c, 7, 59, 66
9, 34980, Note_on_c, 7, 71, 73
9, 35010, Note_on_c, 7, 71, 0
9, 35010, Note_on_c, 7, 59, 0
9, 35010, Note_on_c, 7, 55, 73
9, 35010, Note_on_c, 7, 67, 62
9, 35040, Note_on_c, 7, 67, 0
9, 35040, Note_on_c, 7, 55, 0
9, 35040, Note_on_c, 7, 59, 80
9, 35040, Note_on_c, 7, 71, 68
9, 35070, Note_on_c, 7, 71, 0
9, 35070, Note_on_c, 7, 59, 0
9, 35070, Note_on_c, 7, 74, 89
9, 35070, Note_on_c, 7, 62, 71
9, 35100, Note_on_c, 7, 62, 0
9, 35100, Note_on_c, 7, 74, 0
9, 35100, Note_on_c, 7, 65, 76
9, 35100, Note_on_c, 7, 77, 80
9, 35130, Note_on_c, 7, 77, 0
9, 35130, Note_on_c, 7, 65, 0
9, 35130, Note_on_c, 7, 68, 73
9, 35130, Note_on_c, 7, 80, 85
9, 35160, Note_on_c, 7, 80, 0
9, 35160, Note_on_c, 7, 68, 0
9, 35160, Note_on_c, 7, 67, 67
9, 35160, Note_on_c, 7, 79, 80
9, 35190, Note_on_c, 7, 79, 0
9, 35190, Note_on_c, 7, 67, 0
9, 35190, Note_on_c, 7, 77, 76
9, 35190, Note_on_c, 7, 65, 76
9, 35220, Note_on_c, 7, 65, 0
9, 35220, Note_on_c, 7, 77, 0
9, 35220, Note_on_c, 7, 63, 74
9, 35220, Note_on_c, 7, 75, 77
9, 35250, Note_on_c, 7, 75, 0
9, 35250, Note_on_c, 7, 63, 0
9, 35250, Note_on_c, 7, 74, 74
9, 35250, Note_on_c, 7, 62, 73
9, 35280, Note_on_c, 7, 62, 0
9, 35280, Note_on_c, 7, 74, 0
9, 35280, Note_on_c, 7, 75, 94
9, 35280, Note_on_c, 7, 63, 84
9, 35310, Note_on_c, 7, 63, 0
9, 35310, Note_on_c, 7, 75, 0
9, 35310, Note_on_c, 7, 65, 76
9, 35310, Note_on_c, 7, 77, 72
9, 35340, Note_on_c, 7, 77, 0
9, 35340, Note_on_c, 7, 65, 0
9, 35340, Note_on_c, 7, 66, 74
9, 35340, Note_on_c, 7, 78, 76
9, 35370, Note_on_c, 7, 78, 0
9, 35370, Note_on_c, 7, 66, 0
9, 35370, Note_on_c, 7, 67, 63
9, 35370, Note_on_c, 7, 79, 89
9, 35400, Note_on_c, 7, 79, 0
9, 35400, Note_on_c, 7, 67, 0
9, 35400, Note_on_c, 7, 77, 80
9, 35400, Note_on_c, 7, 65, 82
9, 35430, Note_on_c, 7, 65, 0
9, 35430, Note_on_c, 7, 77, 0
9, 35430, Note_on_c, 7, 75, 89
9, 35430, Note_on_c, 7, 63, 80
9, 35460, Note_on_c, 7, 63, 0
9, 35460, Note_on_c, 7, 75, 0
9, 35460, Note_on_c, 7, 74, 86
9, 35460, Note_on_c, 7, 62, 82
9, 35490, Note_on_c, 7, 62, 0
9, 35490, Note_on_c, 7, 74, 0
9, 35490, Note_on_c, 7, 60, 65
9, 35490, Note_on_c, 7, 72, 78
9, 35520, Note_on_c, 7, 72, 0
9, 35520, Note_on_c, 7, 60, 0
9, 35520, Note_on_c, 7, 70, 89
9, 35520, Note_on_c, 7, 58, 80
9, 35550, Note_on_c, 7, 58, 0
9, 35550, Note_on_c, 7, 70, 0
9, 35550, Note_on_c, 7, 62, 61
9, 35550, Note_on_c, 7, 74, 93
9, 35580, Note_on_c, 7, 74, 0
9, 35580, Note_on_c, 7, 62, 0
9, 35580, Note_on_c, 7, 67, 68
9, 35580, Note_on_c, 7, 55, 70
9, 35610, Note_on_c, 7, 55, 0
9, 35610, Note_on_c, 7, 67, 0
9, 35610, Note_on_c, 7, 70, 89
9, 35610, Note_on_c, 7, 58, 71
9, 35640, Note_on_c, 7, 58, 0
9, 35640, Note_on_c, 7, 70, 0
9, 35640, Note_on_c, 7, 54, 81
9, 35640, Note_on_c, 7, 66, 80
9, 35670, Note_on_c, 7, 66, 0
9, 35670, Note_on_c, 7, 54, 0
9, 35670, Note_on_c, 7, 72, 89
9, 35670, Note_on_c, 7, 60, 80
9, 35700, Note_on_c, 7, 60, 0
9, 35700, Note_on_c, 7, 72, 0
9, 35700, Note_on_c, 7, 69, 76
9, 35700, Note_on_c, 7, 57, 80
9, 35730, Note_on_c, 7, 57, 0
9, 35730, Note_on_c, 7, 69, 0
9, 35730, Note_on_c, 7, 54, 72
9, 35730, Note_on_c, 7, 66, 77
9, 35760, Note_on_c, 7, 66, 0
9, 35760, Note_on_c, 7, 54, 0
9, 35760, Note_on_c, 7, 67, 86
9, 35760, Note_on_c, 7, 55, 89
9, 35790, Note_on_c, 7, 55, 0
9, 35790, Note_on_c, 7, 67, 0
9, 35790, Note_on_c, 7, 50, 94
9, 35790, Note_on_c, 7, 62, 84
9, 35820, Note_on_c, 7, 62, 0
9, 35820, Note_on_c, 7, 50, 0
9, 35820, Note_on_c, 7, 46, 81
9, 35820, Note_on_c, 7, 58, 77
9, 35850, Note_on_c, 7, 58, 0
9, 35850, Note_on_c, 7, 46, 0
9, 35850, Note_on_c, 7, 62, 89
9, 35850, Note_on_c, 7, 50, 95
9, 35880, Note_on_c, 7, 50, 0
9, 35880, Note_on_c, 7, 62, 0
9, 35880, Note_on_c, 7, 55, 72
9, 35880, Note_on_c, 7, 43, 76
9, 35940, Note_on_c, 7, 43, 0
9, 35940, Note_on_c, 7, 55, 0
9, 35940, Note_on_c, 7, 79, 94
9, 36000, Note_on_c, 7, 79, 0
9, 36000, Note_on_c, 7, 82, 76
9, 36000, Note_on_c, 7, 52, 86
9, 36030, Note_on_c, 7, 52, 0
9, 36030, Note_on_c, 7, 60, 76
9, 36060, Note_on_c, 7, 60, 0
9, 36060, Note_on_c, 7, 82, 0
9, 36060, Note_on_c, 7, 76, 89
9, 36060, Note_on_c, 7, 55, 90
9, 36090, Note_on_c, 7, 55, 0
9, 36090, Note_on_c, 7, 60, 74
9, 36120, Note_on_c, 7, 60, 0
9, 36120, Note_on_c, 7, 76, 0
9, 36120, Note_on_c, 7, 76, 98
9, 36120, Note_on_c, 7, 58, 84
9, 36150, Note_on_c, 7, 58, 0
9, 36150, Note_on_c, 7, 76, 0
9, 36150, Note_on_c, 7, 60, 76
9, 36180, Note_on_c, 7, 60, 0
9, 36180, Note_on_c, 7, 76, 94
9, 36180, Note_on_c, 7, 55, 89
9, 36210, Note_on_c, 7, 55, 0
9, 36210, Note_on_c, 7, 76, 0
9, 36210, Note_on_c, 7, 60, 84
9, 36225, Note_on_c, 7, 79, 84
9, 36240, Note_on_c, 7, 79, 0
9, 36240, Note_on_c, 7, 60, 0
9, 36240, Note_on_c, 7, 77, 84
9, 36240, Note_on_c, 7, 56, 89
9, 36270, Note_on_c, 7, 56, 0
9, 36270, Note_on_c, 7, 77, 0
9, 36270, Note_on_c, 7, 76, 89
9, 36270, Note_on_c, 7, 58, 84
9, 36300, Note_on_c, 7, 58, 0
9, 36300, Note_on_c, 7, 76, 0
9, 36300, Note_on_c, 7, 77, 85
9, 36300, Note_on_c, 7, 56, 85
9, 36330, Note_on_c, 7, 56, 0
9, 36330, Note_on_c, 7, 77, 0
9, 36330, Note_on_c, 7, 79, 86
9, 36330, Note_on_c, 7, 55, 90
9, 36360, Note_on_c, 7, 55, 0
9, 36360, Note_on_c, 7, 79, 0
9, 36360, Note_on_c, 7, 80, 84
9, 36360, Note_on_c, 7, 53, 72
9, 36390, Note_on_c, 7, 53, 0
9, 36390, Note_on_c, 7, 80, 0
9, 36390, Note_on_c, 7, 51, 86
9, 36420, Note_on_c, 7, 51, 0
9, 36420, Note_on_c, 7, 80, 84
9, 36420, Note_on_c, 7, 50, 95
9, 36450, Note_on_c, 7, 50, 0
9, 36450, Note_on_c, 7, 80, 0
9, 36450, Note_on_c, 7, 48, 84
9, 36480, Note_on_c, 7, 48, 0
9, 36480, Note_on_c, 7, 80, 85
9, 36480, Note_on_c, 7, 50, 99
9, 36510, Note_on_c, 7, 50, 0
9, 36510, Note_on_c, 7, 58, 78
9, 36540, Note_on_c, 7, 58, 0
9, 36540, Note_on_c, 7, 80, 0
9, 36540, Note_on_c, 7, 74, 90
9, 36540, Note_on_c, 7, 53, 86
9, 36570, Note_on_c, 7, 53, 0
9, 36570, Note_on_c, 7, 58, 77
9, 36600, Note_on_c, 7, 58, 0
9, 36600, Note_on_c, 7, 74, 0
9, 36600, Note_on_c, 7, 74, 95
9, 36600, Note_on_c, 7, 56, 93
9, 36630, Note_on_c, 7, 56, 0
9, 36630, Note_on_c, 7, 74, 0
9, 36630, Note_on_c, 7, 58, 77
9, 36660, Note_on_c, 7, 58, 0
9, 36660, Note_on_c, 7, 74, 89
9, 36660, Note_on_c, 7, 53, 86
9, 36690, Note_on_c, 7, 53, 0
9, 36690, Note_on_c, 7, 74, 0
9, 36690, Note_on_c, 7, 58, 80
9, 36705, Note_on_c, 7, 77, 81
9, 36720, Note_on_c, 7, 77, 0
9, 36720, Note_on_c, 7, 58, 0
9, 36720, Note_on_c, 7, 75, 94
9, 36720, Note_on_c, 7, 55, 95
9, 36750, Note_on_c, 7, 55, 0
9, 36750, Note_on_c, 7, 75, 0
9, 36750, Note_on_c, 7, 74, 84
9, 36750, Note_on_c, 7, 56, 72
9, 36780, Note_on_c, 7, 56, 0
9, 36780, Note_on_c, 7, 74, 0
9, 36780, Note_on_c, 7, 75, 82
9, 36780, Note_on_c, 7, 55, 86
9, 36810, Note_on_c, 7, 55, 0
9, 36810, Note_on_c, 7, 75, 0
9, 36810, Note_on_c, 7, 77, 82
9, 36810, Note_on_c, 7, 53, 84
9, 36840, Note_on_c, 7, 53, 0
9, 36840, Note_on_c, 7, 77, 0
9, 36840, Note_on_c, 7, 79, 71
9, 36840, Note_on_c, 7, 51, 86
9, 36870, Note_on_c, 7, 51, 0
9, 36870, Note_on_c, 7, 79, 0
9, 36870, Note_on_c, 7, 50, 86
9, 36900, Note_on_c, 7, 50, 0
9, 36900, Note_on_c, 7, 79, 81
9, 36900, Note_on_c, 7, 48, 77
9, 36930, Note_on_c, 7, 48, 0
9, 36930, Note_on_c, 7, 79, 0
9, 36930, Note_on_c, 7, 46, 89
9, 36960, Note_on_c, 7, 46, 0
9, 36960, Note_on_c, 7, 79, 74
9, 36960, Note_on_c, 7, 44, 94
9, 36975, Note_on_c, 7, 79, 0
9, 36975, Note_on_c, 7, 77, 84
9, 36990, Note_on_c, 7, 77, 0
9, 36990, Note_on_c, 7, 44, 0
9, 36990, Note_on_c, 7, 53, 67
9, 37020, Note_on_c, 7, 53, 0
9, 37020, Note_on_c, 7, 77, 86
9, 37020, Note_on_c, 7, 48, 95
9, 37035, Note_on_c, 7, 77, 0
9, 37035, Note_on_c, 7, 75, 90
9, 37050, Note_on_c, 7, 75, 0
9, 37050, Note_on_c, 7, 48, 0
9, 37050, Note_on_c, 7, 53, 89
9, 37080, Note_on_c, 7, 53, 0
9, 37080, Note_on_c, 7, 75, 95
9, 37080, Note_on_c, 7, 44, 95
9, 37095, Note_on_c, 7, 75, 0
9, 37095, Note_on_c, 7, 74, 94
9, 37110, Note_on_c, 7, 74, 0
9, 37110, Note_on_c, 7, 44, 0
9, 37110, Note_on_c, 7, 54, 84
9, 37140, Note_on_c, 7, 54, 0
9, 37140, Note_on_c, 7, 74, 95
9, 37140, Note_on_c, 7, 48, 99
9, 37155, Note_on_c, 7, 74, 0
9, 37155, Note_on_c, 7, 72, 78
9, 37170, Note_on_c, 7, 72, 0
9, 37170, Note_on_c, 7, 48, 0
9, 37170, Note_on_c, 7, 54, 71
9, 37200, Note_on_c, 7, 54, 0
9, 37200, Note_on_c, 7, 72, 89
9, 37200, Note_on_c, 7, 43, 95
9, 37230, Note_on_c, 7, 43, 0
9, 37230, Note_on_c, 7, 72, 0
9, 37230, Note_on_c, 7, 71, 86
9, 37230, Note_on_c, 7, 55, 77
9, 37260, Note_on_c, 7, 55, 0
9, 37260, Note_on_c, 7, 71, 0
9, 37260, Note_on_c, 7, 79, 80
9, 37260, Note_on_c, 7, 50, 94
9, 37275, Note_on_c, 7, 79, 0
9, 37290, Note_on_c, 7, 50, 0
9, 37290, Note_on_c, 7, 79, 84
9, 37290, Note_on_c, 7, 55, 80
9, 37305, Note_on_c, 7, 79, 0
9, 37320, Note_on_c, 7, 55, 0
9, 37320, Note_on_c, 7, 79, 84
9, 37320, Note_on_c, 7, 47, 94
9, 37335, Note_on_c, 7, 79, 0
9, 37350, Note_on_c, 7, 47, 0
9, 37350, Note_on_c, 7, 79, 76
9, 37350, Note_on_c, 7, 55, 76
9, 37365, Note_on_c, 7, 79, 0
9, 37380, Note_on_c, 7, 55, 0
9, 37380, Note_on_c, 7, 79, 74
9, 37380, Note_on_c, 7, 43, 98
9, 37395, Note_on_c, 7, 79, 0
9, 37410, Note_on_c, 7, 43, 0
9, 37410, Note_on_c, 7, 79, 93
9, 37410, Note_on_c, 7, 55, 84
9, 37425, Note_on_c, 7, 79, 0
9, 37440, Note_on_c, 7, 55, 0
9, 37440, Note_on_c, 7, 79, 89
9, 37440, Note_on_c, 7, 44, 94
9, 37455, Note_on_c, 7, 79, 0
9, 37455, Note_on_c, 7, 77, 93
9, 37470, Note_on_c, 7, 77, 0
9, 37470, Note_on_c, 7, 44, 0
9, 37470, Note_on_c, 7, 53, 84
9, 37500, Note_on_c, 7, 53, 0
9, 37500, Note_on_c, 7, 77, 89
9, 37500, Note_on_c, 7, 48, 95
9, 37515, Note_on_c, 7, 77, 0
9, 37515, Note_on_c, 7, 75, 99
9, 37530, Note_on_c, 7, 75, 0
9, 37530, Note_on_c, 7, 48, 0
9, 37530, Note_on_c, 7, 53, 86
9, 37560, Note_on_c, 7, 53, 0
9, 37560, Note_on_c, 7, 75, 98
9, 37560, Note_on_c, 7, 44, 94
9, 37575, Note_on_c, 7, 75, 0
9, 37575, Note_on_c, 7, 74, 99
9, 37590, Note_on_c, 7, 74, 0
9, 37590, Note_on_c, 7, 44, 0
9, 37590, Note_on_c, 7, 54, 76
9, 37620, Note_on_c, 7, 54, 0
9, 37620, Note_on_c, 7, 74, 99
9, 37620, Note_on_c, 7, 48, 98
9, 37635, Note_on_c, 7, 74, 0
9, 37635, Note_on_c, 7, 72, 64
9, 37650, Note_on_c, 7, 72, 0
9, 37650, Note_on_c, 7, 48, 0
9, 37650, Note_on_c, 7, 54, 78
9, 37680, Note_on_c, 7, 54, 0
9, 37680, Note_on_c, 7, 72, 73
9, 37680, Note_on_c, 7, 43, 90
9, 37710, Note_on_c, 7, 43, 0
9, 37710, Note_on_c, 7, 72, 0
9, 37710, Note_on_c, 7, 71, 85
9, 37710, Note_on_c, 7, 55, 80
9, 37740, Note_on_c, 7, 55, 0
9, 37740, Note_on_c, 7, 71, 0
9, 37740, Note_on_c, 7, 79, 74
9, 37740, Note_on_c, 7, 50, 80
9, 37755, Note_on_c, 7, 79, 0
9, 37770, Note_on_c, 7, 50, 0
9, 37770, Note_on_c, 7, 79, 77
9, 37770, Note_on_c, 7, 55, 76
9, 37785, Note_on_c, 7, 79, 0
9, 37800, Note_on_c, 7, 55, 0
9, 37800, Note_on_c, 7, 79, 81
9, 37800, Note_on_c, 7, 47, 77
9, 37815, Note_on_c, 7, 79, 0
9, 37830, Note_on_c, 7, 47, 0
9, 37830, Note_on_c, 7, 79, 77
9, 37830, Note_on_c, 7, 55, 73
9, 37845, Note_on_c, 7, 79, 0
9, 37860, Note_on_c, 7, 55, 0
9, 37860, Note_on_c, 7, 79, 73
9, 37860, Note_on_c, 7, 43, 71
9, 37875, Note_on_c, 7, 79, 0
9, 37890, Note_on_c, 7, 43, 0
9, 37890, Note_on_c, 7, 79, 76
9, 37890, Note_on_c, 7, 55, 61
9, 37905, Note_on_c, 7, 79, 0
9, 37920, Note_on_c, 7, 55, 0
9, 37920, Note_on_c, 7, 79, 76
9, 37920, Note_on_c, 7, 44, 73
9, 37935, Note_on_c, 7, 79, 0
9, 37935, Note_on_c, 7, 77, 72
9, 37950, Note_on_c, 7, 77, 0
9, 37950, Note_on_c, 7, 44, 0
9, 37950, Note_on_c, 7, 53, 63
9, 37980, Note_on_c, 7, 53, 0
9, 37980, Note_on_c, 7, 77, 73
9, 37980, Note_on_c, 7, 48, 59
9, 37995, Note_on_c, 7, 77, 0
9, 37995, Note_on_c, 7, 75, 81
9, 38010, Note_on_c, 7, 75, 0
9, 38010, Note_on_c, 7, 48, 0
9, 38010, Note_on_c, 7, 53, 64
9, 38040, Note_on_c, 7, 53, 0
9, 38040, Note_on_c, 7, 75, 82
9, 38040, Note_on_c, 7, 44, 73
9, 38055, Note_on_c, 7, 75, 0
9, 38055, Note_on_c, 7, 74, 74
9, 38070, Note_on_c, 7, 74, 0
9, 38070, Note_on_c, 7, 44, 0
9, 38070, Note_on_c, 7, 54, 60
9, 38100, Note_on_c, 7, 54, 0
9, 38100, Note_on_c, 7, 74, 64
9, 38100, Note_on_c, 7, 48, 54
9, 38115, Note_on_c, 7, 74, 0
9, 38115, Note_on_c, 7, 72, 69
9, 38130, Note_on_c, 7, 72, 0
9, 38130, Note_on_c, 7, 48, 0
9, 38130, Note_on_c, 7, 54, 43
9, 38145, Note_on_c, 7, 71, 81
9, 38160, Note_on_c, 7, 71, 0
9, 38160, Note_on_c, 7, 54, 0
9, 38160, Note_on_c, 7, 55, 39
9, 38160, Note_on_c, 7, 50, 45
9, 38160, Note_on_c, 7, 47, 43
9, 38160, Note_on_c, 7, 43, 43
9, 38160, Note_on_c, 7, 79, 72
9, 38400, Note_on_c, 7, 79, 0
9, 38400, Note_on_c, 7, 47, 0
9, 38400, Note_on_c, 7, 55, 0
9, 38400, Note_on_c, 7, 50, 0
9, 38400, Note_on_c, 7, 43, 0
9, 38400, Note_on_c, 7, 67, 62
9, 38415, Note_on_c, 7, 67, 0
9, 38415, Note_on_c, 7, 79, 61
9, 38430, Note_on_c, 7, 79, 0
9, 38430, Note_on_c, 7, 68, 71
9, 38445, Note_on_c, 7, 68, 0
9, 38445, Note_on_c, 7, 79, 68
9, 38460, Note_on_c, 7, 79, 0
9, 38460, Note_on_c, 7, 69, 76
9, 38475, Note_on_c, 7, 69, 0
9, 38475, Note_on_c, 7, 79, 73
9, 38490, Note_on_c, 7, 79, 0
9, 38490, Note_on_c, 7, 70, 84
9, 38505, Note_on_c, 7, 70, 0
9, 38505, Note_on_c, 7, 79, 78
9, 38520, Note_on_c, 7, 79, 0
9, 38520, Note_on_c, 7, 71, 86
9, 38535, Note_on_c, 7, 71, 0
9, 38535, Note_on_c, 7, 79, 81
9, 38550, Note_on_c, 7, 79, 0
9, 38550, Note_on_c, 7, 72, 94
9, 38565, Note_on_c, 7, 72, 0
9, 38565, Note_on_c, 7, 79, 90
9, 38580, Note_on_c, 7, 79, 0
9, 38580, Note_on_c, 7, 73, 81
9, 38595, Note_on_c, 7, 73, 0
9, 38595, Note_on_c, 7, 79, 89
9, 38610, Note_on_c, 7, 79, 0
9, 38610, Note_on_c, 7, 74, 95
9, 38625, Note_on_c, 7, 74, 0
9, 38625, Note_on_c, 7, 79, 94
9, 38640, Note_on_c, 7, 79, 0
9, 38640, Note_on_c, 7, 75, 101
9, 38655, Note_on_c, 7, 75, 0
9, 38655, Note_on_c, 7, 79, 94
9, 38670, Note_on_c, 7, 79, 0
9, 38670, Note_on_c, 7, 76, 95
9, 38685, Note_on_c, 7, 76, 0
9, 38685, Note_on_c, 7, 79, 94
9, 38700, Note_on_c, 7, 79, 0
9, 38700, Note_on_c, 7, 77, 95
9, 38715, Note_on_c, 7, 77, 0
9, 38715, Note_on_c, 7, 79, 95
9, 38730, Note_on_c, 7, 79, 0
9, 38730, Note_on_c, 7, 78, 90
9, 38745, Note_on_c, 7, 78, 0
9, 38745, Note_on_c, 7, 79, 99
9, 38760, Note_on_c, 7, 79, 0
9, 38760, Note_on_c, 7, 80, 95
9, 38775, Note_on_c, 7, 80, 0
9, 38775, Note_on_c, 7, 79, 99
9, 38790, Note_on_c, 7, 79, 0
9, 38790, Note_on_c, 7, 81, 94
9, 38805, Note_on_c, 7, 81, 0
9, 38805, Note_on_c, 7, 79, 94
9, 38820, Note_on_c, 7, 79, 0
9, 38820, Note_on_c, 7, 82, 95
9, 38835, Note_on_c, 7, 82, 0
9, 38835, Note_on_c, 7, 79, 86
9, 38850, Note_on_c, 7, 79, 0
9, 38850, Note_on_c, 7, 83, 99
9, 38865, Note_on_c, 7, 83, 0
9, 38865, Note_on_c, 7, 79, 90
9, 38880, Note_on_c, 7, 79, 0
9, 38880, Note_on_c, 7, 84, 93
9, 38895, Note_on_c, 7, 84, 0
9, 38895, Note_on_c, 7, 79, 95
9, 38910, Note_on_c, 7, 79, 0
9, 38910, Note_on_c, 7, 85, 89
9, 38925, Note_on_c, 7, 85, 0
9, 38925, Note_on_c, 7, 79, 89
9, 38940, Note_on_c, 7, 79, 0
9, 38940, Note_on_c, 7, 86, 104
9, 38955, Note_on_c, 7, 86, 0
9, 38955, Note_on_c, 7, 79, 89
9, 38970, Note_on_c, 7, 79, 0
9, 38970, Note_on_c, 7, 87, 94
9, 38985, Note_on_c, 7, 87, 0
9, 38985, Note_on_c, 7, 79, 89
9, 39000, Note_on_c, 7, 79, 0
9, 39000, Note_on_c, 7, 88, 99
9, 39015, Note_on_c, 7, 88, 0
9, 39015, Note_on_c, 7, 79, 90
9, 39030, Note_on_c, 7, 79, 0
9, 39030, Note_on_c, 7, 89, 99
9, 39045, Note_on_c, 7, 89, 0
9, 39045, Note_on_c, 7, 79, 93
9, 39060, Note_on_c, 7, 79, 0
9, 39060, Note_on_c, 7, 90, 95
9, 39075, Note_on_c, 7, 90, 0
9, 39075, Note_on_c, 7, 79, 89
9, 39090, Note_on_c, 7, 79, 0
9, 39090, Note_on_c, 7, 91, 95
9, 39105, Note_on_c, 7, 91, 0
9, 39105, Note_on_c, 7, 79, 94
9, 39120, Note_on_c, 7, 79, 0
9, 39120, Note_on_c, 7, 90, 85
9, 39135, Note_on_c, 7, 90, 0
9, 39135, Note_on_c, 7, 91, 95
9, 39150, Note_on_c, 7, 91, 0
9, 39150, Note_on_c, 7, 90, 89
9, 39165, Note_on_c, 7, 90, 0
9, 39165, Note_on_c, 7, 91, 93
9, 39180, Note_on_c, 7, 91, 0
9, 39180, Note_on_c, 7, 90, 86
9, 39195, Note_on_c, 7, 90, 0
9, 39195, Note_on_c, 7, 91, 89
9, 39210, Note_on_c, 7, 91, 0
9, 39210, Note_on_c, 7, 90, 89
9, 39225, Note_on_c, 7, 90, 0
9, 39225, Note_on_c, 7, 91, 93
9, 39240, Note_on_c, 7, 91, 0
9, 39240, Note_on_c, 7, 90, 86
9, 39255, Note_on_c, 7, 90, 0
9, 39255, Note_on_c, 7, 91, 90
9, 39270, Note_on_c, 7, 91, 0
9, 39270, Note_on_c, 7, 90, 85
9, 39285, Note_on_c, 7, 90, 0
9, 39285, Note_on_c, 7, 91, 86
9, 39300, Note_on_c, 7, 91, 0
9, 39300, Note_on_c, 7, 90, 81
9, 39315, Note_on_c, 7, 90, 0
9, 39315, Note_on_c, 7, 91, 94
9, 39330, Note_on_c, 7, 91, 0
9, 39330, Note_on_c, 7, 90, 90
9, 39345, Note_on_c, 7, 90, 0
9, 39345, Note_on_c, 7, 91, 86
9, 39360, Note_on_c, 7, 91, 0
9, 39360, Note_on_c, 7, 90, 84
9, 39375, Note_on_c, 7, 90, 0
9, 39375, Note_on_c, 7, 91, 84
9, 39390, Note_on_c, 7, 91, 0
9, 39390, Note_on_c, 7, 90, 89
9, 39405, Note_on_c, 7, 90, 0
9, 39405, Note_on_c, 7, 91, 84
9, 39420, Note_on_c, 7, 91, 0
9, 39420, Note_on_c, 7, 90, 84
9, 39435, Note_on_c, 7, 90, 0
9, 39435, Note_on_c, 7, 91, 93
9, 39450, Note_on_c, 7, 91, 0
9, 39450, Note_on_c, 7, 90, 93
9, 39465, Note_on_c, 7, 90, 0
9, 39465, Note_on_c, 7, 91, 90
9, 39480, Note_on_c, 7, 91, 0
9, 39480, Note_on_c, 7, 90, 86
9, 39495, Note_on_c, 7, 90, 0
9, 39495, Note_on_c, 7, 91, 89
9, 39510, Note_on_c, 7, 91, 0
9, 39510, Note_on_c, 7, 90, 89
9, 39525, Note_on_c, 7, 90, 0
9, 39525, Note_on_c, 7, 91, 89
9, 39540, Note_on_c, 7, 91, 0
9, 39540, Note_on_c, 7, 90, 84
9, 39555, Note_on_c, 7, 90, 0
9, 39555, Note_on_c, 7, 91, 93
9, 39570, Note_on_c, 7, 91, 0
9, 39570, Note_on_c, 7, 90, 73
9, 39585, Note_on_c, 7, 90, 0
9, 39585, Note_on_c, 7, 91, 99
9, 39600, Note_on_c, 7, 91, 0
9, 39600, Note_on_c, 7, 88, 89
9, 39615, Note_on_c, 7, 88, 0
9, 39615, Note_on_c, 7, 89, 94
9, 39630, Note_on_c, 7, 89, 0
9, 39630, Note_on_c, 7, 88, 89
9, 39645, Note_on_c, 7, 88, 0
9, 39645, Note_on_c, 7, 89, 89
9, 39660, Note_on_c, 7, 89, 0
9, 39660, Note_on_c, 7, 88, 89
9, 39675, Note_on_c, 7, 88, 0
9, 39675, Note_on_c, 7, 89, 84
9, 39690, Note_on_c, 7, 89, 0
9, 39690, Note_on_c, 7, 88, 89
9, 39705, Note_on_c, 7, 88, 0
9, 39705, Note_on_c, 7, 89, 86
9, 39720, Note_on_c, 7, 89, 0
9, 39720, Note_on_c, 7, 88, 95
9, 39735, Note_on_c, 7, 88, 0
9, 39735, Note_on_c, 7, 89, 89
9, 39750, Note_on_c, 7, 89, 0
9, 39750, Note_on_c, 7, 88, 99
9, 39765, Note_on_c, 7, 88, 0
9, 39765, Note_on_c, 7, 89, 89
9, 39780, Note_on_c, 7, 89, 0
9, 39780, Note_on_c, 7, 88, 94
9, 39795, Note_on_c, 7, 88, 0
9, 39795, Note_on_c, 7, 89, 89
9, 39810, Note_on_c, 7, 89, 0
9, 39810, Note_on_c, 7, 88, 94
9, 39825, Note_on_c, 7, 88, 0
9, 39825, Note_on_c, 7, 89, 86
9, 39840, Note_on_c, 7, 89, 0
9, 39840, Note_on_c, 7, 88, 95
9, 39855, Note_on_c, 7, 88, 0
9, 39855, Note_on_c, 7, 89, 94
9, 39870, Note_on_c, 7, 89, 0
9, 39870, Note_on_c, 7, 88, 95
9, 39885, Note_on_c, 7, 88, 0
9, 39885, Note_on_c, 7, 89, 89
9, 39900, Note_on_c, 7, 89, 0
9, 39900, Note_on_c, 7, 88, 94
9, 39915, Note_on_c, 7, 88, 0
9, 39915, Note_on_c, 7, 89, 94
9, 39930, Note_on_c, 7, 89, 0
9, 39930, Note_on_c, 7, 88, 94
9, 39945, Note_on_c, 7, 88, 0
9, 39945, Note_on_c, 7, 89, 94
9, 39960, Note_on_c, 7, 89, 0
9, 39960, Note_on_c, 7, 88, 94
9, 39975, Note_on_c, 7, 88, 0
9, 39975, Note_on_c, 7, 89, 93
9, 39990, Note_on_c, 7, 89, 0
9, 39990, Note_on_c, 7, 88, 94
9, 40005, Note_on_c, 7, 88, 0
9, 40005, Note_on_c, 7, 89, 93
9, 40020, Note_on_c, 7, 89, 0
9, 40020, Note_on_c, 7, 88, 98
9, 40035, Note_on_c, 7, 88, 0
9, 40035, Note_on_c, 7, 89, 98
9, 40050, Note_on_c, 7, 89, 0
9, 40050, Note_on_c, 7, 88, 99
9, 40065, Note_on_c, 7, 88, 0
9, 40065, Note_on_c, 7, 89, 105
9, 40080, Note_on_c, 7, 89, 0
9, 40080, Note_on_c, 7, 89, 95
9, 40110, Note_on_c, 7, 89, 0
9, 40110, Note_on_c, 7, 91, 90
9, 40140, Note_on_c, 7, 91, 0
9, 40140, Note_on_c, 7, 89, 90
9, 40170, Note_on_c, 7, 89, 0
9, 40170, Note_on_c, 7, 91, 93
9, 40200, Note_on_c, 7, 91, 0
9, 40200, Note_on_c, 7, 89, 94
9, 40220, Note_on_c, 7, 89, 0
9, 40220, Note_on_c, 7, 91, 89
9, 40240, Note_on_c, 7, 91, 0
9, 40240, Note_on_c, 7, 89, 95
9, 40260, Note_on_c, 7, 89, 0
9, 40260, Note_on_c, 7, 91, 90
9, 40280, Note_on_c, 7, 91, 0
9, 40280, Note_on_c, 7, 89, 94
9, 40300, Note_on_c, 7, 89, 0
9, 40300, Note_on_c, 7, 91, 93
9, 40320, Note_on_c, 7, 91, 0
9, 40320, Note_on_c, 7, 89, 94
9, 40335, Note_on_c, 7, 89, 0
9, 40335, Note_on_c, 7, 91, 95
9, 40350, Note_on_c, 7, 91, 0
9, 40350, Note_on_c, 7, 89, 94
9, 40365, Note_on_c, 7, 89, 0
9, 40365, Note_on_c, 7, 91, 89
9, 40380, Note_on_c, 7, 91, 0
9, 40380, Note_on_c, 7, 89, 94
9, 40395, Note_on_c, 7, 89, 0
9, 40395, Note_on_c, 7, 91, 94
9, 40410, Note_on_c, 7, 91, 0
9, 40410, Note_on_c, 7, 89, 98
9, 40420, Note_on_c, 7, 89, 0
9, 40420, Note_on_c, 7, 91, 94
9, 40430, Note_on_c, 7, 91, 0
9, 40430, Note_on_c, 7, 89, 99
9, 40440, Note_on_c, 7, 89, 0
9, 40440, Note_on_c, 7, 87, 93
9, 40455, Note_on_c, 7, 87, 0
9, 40455, Note_on_c, 7, 86, 94
9, 40470, Note_on_c, 7, 86, 0
9, 40470, Note_on_c, 7, 84, 84
9, 40485, Note_on_c, 7, 84, 0
9, 40485, Note_on_c, 7, 83, 93
9, 40500, Note_on_c, 7, 83, 0
9, 40500, Note_on_c, 7, 80, 94
9, 40515, Note_on_c, 7, 80, 0
9, 40515, Note_on_c, 7, 79, 95
9, 40530, Note_on_c, 7, 79, 0
9, 40530, Note_on_c, 7, 77, 84
9, 40545, Note_on_c, 7, 77, 0
9, 40545, Note_on_c, 7, 75, 95
9, 40560, Note_on_c, 7, 75, 0
9, 40560, Note_on_c, 7, 74, 95
9, 40575, Note_on_c, 7, 74, 0
9, 40575, Note_on_c, 7, 72, 74
9, 40590, Note_on_c, 7, 72, 0
9, 40590, Note_on_c, 7, 71, 105
9, 40605, Note_on_c, 7, 71, 0
9, 40605, Note_on_c, 7, 68, 90
9, 40620, Note_on_c, 7, 68, 0
9, 40620, Note_on_c, 7, 67, 95
9, 40635, Note_on_c, 7, 67, 0
9, 40635, Note_on_c, 7, 65, 90
9, 40650, Note_on_c, 7, 65, 0
9, 40650, Note_on_c, 7, 63, 89
9, 40665, Note_on_c, 7, 63, 0
9, 40665, Note_on_c, 7, 62, 93
9, 40680, Note_on_c, 7, 62, 0
9, 40680, Note_on_c, 7, 60, 84
9, 40695, Note_on_c, 7, 60, 0
9, 40695, Note_on_c, 7, 59, 99
9, 40710, Note_on_c, 7, 59, 0
9, 40710, Note_on_c, 7, 56, 93
9, 40725, Note_on_c, 7, 56, 0
9, 40725, Note_on_c, 7, 55, 98
9, 40740, Note_on_c, 7, 55, 0
9, 40740, Note_on_c, 7, 53, 94
9, 40755, Note_on_c, 7, 53, 0
9, 40755, Note_on_c, 7, 51, 99
9, 40770, Note_on_c, 7, 51, 0
9, 40770, Note_on_c, 7, 50, 105
9, 40785, Note_on_c, 7, 50, 0
9, 40785, Note_on_c, 7, 48, 95
9, 40800, Note_on_c, 7, 48, 0
9, 40800, Note_on_c, 7, 47, 105
9, 40815, Note_on_c, 7, 47, 0
9, 40815, Note_on_c, 7, 48, 94
9, 40830, Note_on_c, 7, 48, 0
9, 40830, Note_on_c, 7, 50, 99
9, 40845, Note_on_c, 7, 50, 0
9, 40845, Note_on_c, 7, 51, 94
9, 40860, Note_on_c, 7, 51, 0
9, 40860, Note_on_c, 7, 53, 89
9, 40875, Note_on_c, 7, 53, 0
9, 40875, Note_on_c, 7, 55, 98
9, 40890, Note_on_c, 7, 55, 0
9, 40890, Note_on_c, 7, 57, 105
9, 40905, Note_on_c, 7, 57, 0
9, 40905, Note_on_c, 7, 59, 99
9, 40920, Note_on_c, 7, 59, 0
9, 40920, Note_on_c, 7, 60, 95
9, 40935, Note_on_c, 7, 60, 0
9, 40935, Note_on_c, 7, 62, 99
9, 40950, Note_on_c, 7, 62, 0
9, 40950, Note_on_c, 7, 63, 95
9, 40965, Note_on_c, 7, 63, 0
9, 40965, Note_on_c, 7, 65, 99
9, 40980, Note_on_c, 7, 65, 0
9, 40980, Note_on_c, 7, 67, 95
9, 40995, Note_on_c, 7, 67, 0
9, 40995, Note_on_c, 7, 69, 98
9, 41010, Note_on_c, 7, 69, 0
9, 41010, Note_on_c, 7, 71, 105
9, 41025, Note_on_c, 7, 71, 0
9, 41025, Note_on_c, 7, 72, 104
9, 41040, Note_on_c, 7, 72, 0
9, 41040, Note_on_c, 7, 73, 93
9, 41055, Note_on_c, 7, 73, 0
9, 41055, Note_on_c, 7, 74, 105
9, 41070, Note_on_c, 7, 74, 0
9, 41070, Note_on_c, 7, 75, 105
9, 41085, Note_on_c, 7, 75, 0
9, 41085, Note_on_c, 7, 76, 104
9, 41100, Note_on_c, 7, 76, 0
9, 41100, Note_on_c, 7, 77, 99
9, 41115, Note_on_c, 7, 77, 0
9, 41115, Note_on_c, 7, 78, 105
9, 41130, Note_on_c, 7, 78, 0
9, 41130, Note_on_c, 7, 79, 99
9, 41145, Note_on_c, 7, 79, 0
9, 41145, Note_on_c, 7, 80, 99
9, 41160, Note_on_c, 7, 80, 0
9, 41160, Note_on_c, 7, 81, 104
9, 41175, Note_on_c, 7, 81, 0
9, 41175, Note_on_c, 7, 82, 99
9, 41190, Note_on_c, 7, 82, 0
9, 41190, Note_on_c, 7, 83, 99
9, 41205, Note_on_c, 7, 83, 0
9, 41205, Note_on_c, 7, 84, 98
9, 41220, Note_on_c, 7, 84, 0
9, 41220, Note_on_c, 7, 85, 95
9, 41235, Note_on_c, 7, 85, 0
9, 41235, Note_on_c, 7, 86, 110
9, 41250, Note_on_c, 7, 86, 0
9, 41250, Note_on_c, 7, 87, 105
9, 41265, Note_on_c, 7, 87, 0
9, 41265, Note_on_c, 7, 88, 107
9, 41280, Note_on_c, 7, 88, 0
9, 41280, Note_on_c, 7, 89, 117
9, 41280, Note_on_c, 7, 55, 78
9, 41310, Note_on_c, 7, 55, 0
9, 41310, Note_on_c, 7, 67, 78
9, 41340, Note_on_c, 7, 67, 0
9, 41340, Note_on_c, 7, 89, 0
9, 41340, Note_on_c, 7, 71, 89
9, 41340, Note_on_c, 7, 62, 81
9, 41355, Note_on_c, 7, 71, 0
9, 41370, Note_on_c, 7, 62, 0
9, 41370, Note_on_c, 7, 67, 78
9, 41400, Note_on_c, 7, 67, 0
9, 41400, Note_on_c, 7, 71, 80
9, 41400, Note_on_c, 7, 65, 80
9, 41430, Note_on_c, 7, 65, 0
9, 41430, Note_on_c, 7, 71, 0
9, 41430, Note_on_c, 7, 67, 76
9, 41460, Note_on_c, 7, 67, 0
9, 41460, Note_on_c, 7, 71, 84
9, 41460, Note_on_c, 7, 62, 80
9, 41490, Note_on_c, 7, 62, 0
9, 41490, Note_on_c, 7, 71, 0
9, 41490, Note_on_c, 7, 67, 69
9, 41520, Note_on_c, 7, 67, 0
9, 41520, Note_on_c, 7, 72, 94
9, 41520, Note_on_c, 7, 63, 76
9, 41550, Note_on_c, 7, 63, 0
9, 41550, Note_on_c, 7, 67, 70
9, 41580, Note_on_c, 7, 67, 0
9, 41580, Note_on_c, 7, 62, 77
9, 41610, Note_on_c, 7, 62, 0
9, 41610, Note_on_c, 7, 67, 74
9, 41640, Note_on_c, 7, 67, 0
9, 41640, Note_on_c, 7, 72, 0
9, 41640, Note_on_c, 7, 74, 84
9, 41640, Note_on_c, 7, 63, 76
9, 41670, Note_on_c, 7, 63, 0
9, 41670, Note_on_c, 7, 74, 0
9, 41670, Note_on_c, 7, 72, 94
9, 41670, Note_on_c, 7, 67, 74
9, 41700, Note_on_c, 7, 67, 0
9, 41700, Note_on_c, 7, 72, 0
9, 41700, Note_on_c, 7, 71, 84
9, 41700, Note_on_c, 7, 60, 89
9, 41730, Note_on_c, 7, 60, 0
9, 41730, Note_on_c, 7, 71, 0
9, 41730, Note_on_c, 7, 72, 85
9, 41730, Note_on_c, 7, 67, 80
9, 41760, Note_on_c, 7, 67, 0
9, 41760, Note_on_c, 7, 72, 0
9, 41760, Note_on_c, 7, 74, 80
9, 41760, Note_on_c, 7, 59, 82
9, 41790, Note_on_c, 7, 59, 0
9, 41790, Note_on_c, 7, 74, 0
9, 41790, Note_on_c, 7, 67, 76
9, 41820, Note_on_c, 7, 67, 0
9, 41820, Note_on_c, 7, 74, 117
9, 41820, Note_on_c, 7, 55, 89
9, 41850, Note_on_c, 7, 55, 0
9, 41850, Note_on_c, 7, 74, 0
9, 41850, Note_on_c, 7, 67, 80
9, 41880, Note_on_c, 7, 67, 0
9, 41880, Note_on_c, 7, 76, 77
9, 41880, Note_on_c, 7, 58, 80
9, 41910, Note_on_c, 7, 58, 0
9, 41910, Note_on_c, 7, 76, 0
9, 41910, Note_on_c, 7, 60, 84
9, 41940, Note_on_c, 7, 60, 0
9, 41940, Note_on_c, 7, 76, 119
9, 41940, Note_on_c, 7, 55, 84
9, 41970, Note_on_c, 7, 55, 0
9, 41970, Note_on_c, 7, 76, 0
9, 41970, Note_on_c, 7, 60, 89
9, 42000, Note_on_c, 7, 60, 0
9, 42000, Note_on_c, 7, 77, 76
9, 42000, Note_on_c, 7, 56, 82
9, 42030, Note_on_c, 7, 56, 0
9, 42030, Note_on_c, 7, 65, 80
9, 42060, Note_on_c, 7, 65, 0
9, 42060, Note_on_c, 7, 60, 85
9, 42090, Note_on_c, 7, 60, 0
9, 42090, Note_on_c, 7, 65, 81
9, 42120, Note_on_c, 7, 65, 0
9, 42120, Note_on_c, 7, 53, 89
9, 42150, Note_on_c, 7, 53, 0
9, 42150, Note_on_c, 7, 77, 0
9, 42150, Note_on_c, 7, 65, 81
9, 42165, Note_on_c, 7, 79, 86
9, 42180, Note_on_c, 7, 79, 0
9, 42180, Note_on_c, 7, 65, 0
9, 42180, Note_on_c, 7, 80, 76
9, 42180, Note_on_c, 7, 62, 84
9, 42210, Note_on_c, 7, 62, 0
9, 42210, Note_on_c, 7, 80, 0
9, 42210, Note_on_c, 7, 65, 81
9, 42225, Note_on_c, 7, 77, 80
9, 42240, Note_on_c, 7, 77, 0
9, 42240, Note_on_c, 7, 65, 0
9, 42240, Note_on_c, 7, 75, 84
9, 42240, Note_on_c, 7, 55, 90
9, 42270, Note_on_c, 7, 55, 0
9, 42270, Note_on_c, 7, 75, 0
9, 42270, Note_on_c, 7, 63, 73
9, 42285, Note_on_c, 7, 77, 71
9, 42300, Note_on_c, 7, 77, 0
9, 42300, Note_on_c, 7, 63, 0
9, 42300, Note_on_c, 7, 79, 78
9, 42300, Note_on_c, 7, 60, 84
9, 42330, Note_on_c, 7, 60, 0
9, 42330, Note_on_c, 7, 79, 0
9, 42330, Note_on_c, 7, 63, 78
9, 42345, Note_on_c, 7, 75, 86
9, 42360, Note_on_c, 7, 75, 0
9, 42360, Note_on_c, 7, 63, 0
9, 42360, Note_on_c, 7, 74, 86
9, 42360, Note_on_c, 7, 55, 80
9, 42390, Note_on_c, 7, 55, 0
9, 42390, Note_on_c, 7, 74, 0
9, 42390, Note_on_c, 7, 62, 71
9, 42405, Note_on_c, 7, 75, 89
9, 42420, Note_on_c, 7, 75, 0
9, 42420, Note_on_c, 7, 62, 0
9, 42420, Note_on_c, 7, 77, 73
9, 42420, Note_on_c, 7, 59, 85
9, 42450, Note_on_c, 7, 59, 0
9, 42450, Note_on_c, 7, 77, 0
9, 42450, Note_on_c, 7, 62, 80
9, 42465, Note_on_c, 7, 74, 84
9, 42480, Note_on_c, 7, 74, 0
9, 42480, Note_on_c, 7, 62, 0
9, 42480, Note_on_c, 7, 72, 65
9, 42480, Note_on_c, 7, 48, 89
9, 42510, Note_on_c, 7, 48, 0
9, 42510, Note_on_c, 7, 60, 76
9, 42540, Note_on_c, 7, 60, 0
9, 42540, Note_on_c, 7, 72, 0
9, 42540, Note_on_c, 7, 55, 85
9, 42570, Note_on_c, 7, 55, 0
9, 42570, Note_on_c, 7, 51, 82
9, 42600, Note_on_c, 7, 51, 0
9, 42600, Note_on_c, 7, 48, 84
9, 42660, Note_on_c, 7, 48, 0
9, 49920, Control_c, 7, 7, 100
9, 49940, Control_c, 7, 7, 101
9, 49950, Control_c, 7, 7, 102
9, 49950, Note_on_c, 7, 72, 73
9, 49965, Note_on_c, 7, 72, 0
9, 49970, Control_c, 7, 7, 103
9, 49980, Control_c, 7, 7, 104
9, 49980, Note_on_c, 7, 73, 69
9, 49995, Note_on_c, 7, 73, 0
9, 50000, Control_c, 7, 7, 105
9, 50010, Control_c, 7, 7, 106
9, 50010, Note_on_c, 7, 75, 84
9, 50020, Control_c, 7, 7, 107
9, 50025, Note_on_c, 7, 75, 0
9, 50040, Control_c, 7, 7, 108
9, 50040, Note_on_c, 7, 77, 76
9, 50050, Control_c, 7, 7, 109
9, 50055, Note_on_c, 7, 77, 0
9, 50070, Control_c, 7, 7, 110
9, 50070, Note_on_c, 7, 79, 71
9, 50080, Control_c, 7, 7, 111
9, 50085, Note_on_c, 7, 79, 0
9, 50090, Control_c, 7, 7, 112
9, 50100, Note_on_c, 7, 80, 74
9, 50110, Control_c, 7, 7, 113
9, 50115, Note_on_c, 7, 80, 0
9, 50120, Control_c, 7, 7, 114
9, 50130, Note_on_c, 7, 82, 76
9, 50140, Control_c, 7, 7, 115
9, 50145, Note_on_c, 7, 82, 0
9, 50150, Control_c, 7, 7, 116
9, 50160, Control_c, 7, 7, 117
9, 50160, Note_on_c, 7, 84, 71
9, 50160, Note_on_c, 7, 51, 73
9, 50180, Note_on_c, 7, 51, 0
9, 50180, Note_on_c, 7, 56, 69
9, 50200, Note_on_c, 7, 56, 0
9, 50200, Note_on_c, 7, 60, 40
9, 50220, Note_on_c, 7, 60, 0
9, 50220, Note_on_c, 7, 63, 45
9, 50240, Note_on_c, 7, 63, 0
9, 50240, Note_on_c, 7, 60, 68
9, 50260, Note_on_c, 7, 60, 0
9, 50260, Note_on_c, 7, 56, 57
9, 50280, Note_on_c, 7, 56, 0
9, 50280, Note_on_c, 7, 84, 0
9, 50280, Note_on_c, 7, 85, 66
9, 50280, Note_on_c, 7, 51, 45
9, 50300, Note_on_c, 7, 51, 0
9, 50300, Note_on_c, 7, 56, 76
9, 50310, Note_on_c, 7, 85, 0
9, 50310, Note_on_c, 7, 84, 81
9, 50320, Note_on_c, 7, 56, 0
9, 50320, Note_on_c, 7, 60, 81
9, 50340, Note_on_c, 7, 60, 0
9, 50340, Note_on_c, 7, 84, 0
9, 50340, Note_on_c, 7, 82, 71
9, 50340, Note_on_c, 7, 63, 57
9, 50360, Note_on_c, 7, 63, 0
9, 50360, Note_on_c, 7, 60, 65
9, 50370, Note_on_c, 7, 82, 0
9, 50370, Note_on_c, 7, 84, 80
9, 50380, Note_on_c, 7, 60, 0
9, 50380, Note_on_c, 7, 56, 63
9, 50400, Note_on_c, 7, 56, 0
9, 50400, Note_on_c, 7, 84, 0
9, 50400, Note_on_c, 7, 85, 74
9, 50400, Note_on_c, 7, 51, 68
9, 50420, Note_on_c, 7, 51, 0
9, 50420, Note_on_c, 7, 58, 72
9, 50440, Note_on_c, 7, 58, 0
9, 50440, Note_on_c, 7, 61, 64
9, 50460, Note_on_c, 7, 61, 0
9, 50460, Note_on_c, 7, 63, 61
9, 50480, Note_on_c, 7, 63, 0
9, 50480, Note_on_c, 7, 61, 61
9, 50500, Note_on_c, 7, 61, 0
9, 50500, Note_on_c, 7, 58, 58
9, 50520, Note_on_c, 7, 58, 0
9, 50520, Note_on_c, 7, 85, 0
9, 50520, Note_on_c, 7, 82, 65
9, 50520, Note_on_c, 7, 51, 48
9, 50540, Note_on_c, 7, 51, 0
9, 50540, Note_on_c, 7, 58, 65
9, 50560, Note_on_c, 7, 58, 0
9, 50560, Note_on_c, 7, 61, 65
9, 50580, Note_on_c, 7, 61, 0
9, 50580, Note_on_c, 7, 82, 0
9, 50580, Note_on_c, 7, 80, 73
9, 50580, Note_on_c, 7, 63, 63
9, 50600, Note_on_c, 7, 63, 0
9, 50600, Note_on_c, 7, 61, 66
9, 50620, Note_on_c, 7, 61, 0
9, 50620, Note_on_c, 7, 58, 70
9, 50640, Note_on_c, 7, 58, 0
9, 50640, Note_on_c, 7, 80, 0
9, 50640, Note_on_c, 7, 79, 78
9, 50640, Note_on_c, 7, 51, 71
9, 50660, Note_on_c, 7, 51, 0
9, 50660, Note_on_c, 7, 55, 45
9, 50680, Note_on_c, 7, 55, 0
9, 50680, Note_on_c, 7, 58, 71
9, 50700, Note_on_c, 7, 58, 0
9, 50700, Note_on_c, 7, 79, 0
9, 50700, Note_on_c, 7, 87, 72
9, 50700, Note_on_c, 7, 63, 61
9, 50720, Note_on_c, 7, 63, 0
9, 50720, Note_on_c, 7, 58, 73
9, 50740, Note_on_c, 7, 58, 0
9, 50740, Note_on_c, 7, 55, 68
9, 50760, Note_on_c, 7, 55, 0
9, 50760, Note_on_c, 7, 87, 0
9, 50760, Note_on_c, 7, 87, 77
9, 50760, Note_on_c, 7, 51, 81
9, 50780, Note_on_c, 7, 51, 0
9, 50780, Note_on_c, 7, 55, 71
9, 50790, Note_on_c, 7, 87, 0
9, 50800, Note_on_c, 7, 55, 0
9, 50800, Note_on_c, 7, 58, 67
9, 50820, Note_on_c, 7, 58, 0
9, 50820, Note_on_c, 7, 87, 76
9, 50820, Note_on_c, 7, 49, 73
9, 50840, Note_on_c, 7, 49, 0
9, 50840, Note_on_c, 7, 55, 76
9, 50850, Note_on_c, 7, 87, 0
9, 50860, Note_on_c, 7, 55, 0
9, 50860, Note_on_c, 7, 58, 61
9, 50880, Note_on_c, 7, 58, 0
9, 50880, Note_on_c, 7, 87, 67
9, 50880, Note_on_c, 7, 48, 65
9, 50900, Note_on_c, 7, 48, 0
9, 50900, Note_on_c, 7, 51, 73
9, 50920, Note_on_c, 7, 51, 0
9, 50920, Note_on_c, 7, 56, 65
9, 50940, Note_on_c, 7, 56, 0
9, 50940, Note_on_c, 7, 60, 62
9, 50960, Note_on_c, 7, 60, 0
9, 50960, Note_on_c, 7, 56, 64
9, 50980, Note_on_c, 7, 56, 0
9, 50980, Note_on_c, 7, 51, 48
9, 51000, Note_on_c, 7, 51, 0
9, 51000, Note_on_c, 7, 48, 74
9, 51020, Note_on_c, 7, 48, 0
9, 51020, Note_on_c, 7, 51, 80
9, 51030, Note_on_c, 7, 87, 0
9, 51030, Note_on_c, 7, 86, 53
9, 51040, Note_on_c, 7, 51, 0
9, 51040, Note_on_c, 7, 56, 65
9, 51060, Note_on_c, 7, 56, 0
9, 51060, Note_on_c, 7, 86, 0
9, 51060, Note_on_c, 7, 87, 65
9, 51060, Note_on_c, 7, 60, 57
9, 51080, Note_on_c, 7, 60, 0
9, 51080, Note_on_c, 7, 56, 71
9, 51090, Note_on_c, 7, 87, 0
9, 51090, Note_on_c, 7, 86, 55
9, 51100, Note_on_c, 7, 56, 0
9, 51100, Note_on_c, 7, 51, 73
9, 51120, Note_on_c, 7, 51, 0
9, 51120, Note_on_c, 7, 86, 0
9, 51120, Note_on_c, 7, 87, 71
9, 51120, Note_on_c, 7, 48, 69
9, 51140, Note_on_c, 7, 48, 0
9, 51140, Note_on_c, 7, 51, 74
9, 51150, Note_on_c, 7, 87, 0
9, 51150, Note_on_c, 7, 85, 73
9, 51160, Note_on_c, 7, 51, 0
9, 51160, Note_on_c, 7, 53, 68
9, 51180, Note_on_c, 7, 53, 0
9, 51180, Note_on_c, 7, 85, 0
9, 51180, Note_on_c, 7, 84, 71
9, 51180, Note_on_c, 7, 57, 77
9, 51200, Note_on_c, 7, 57, 0
9, 51200, Note_on_c, 7, 53, 67
9, 51210, Note_on_c, 7, 84, 0
9, 51210, Note_on_c, 7, 82, 29
9, 51220, Note_on_c, 7, 53, 0
9, 51220, Note_on_c, 7, 51, 76
9, 51240, Note_on_c, 7, 51, 0
9, 51240, Note_on_c, 7, 82, 0
9, 51240, Note_on_c, 7, 81, 61
9, 51240, Note_on_c, 7, 48, 68
9, 51260, Note_on_c, 7, 48, 0
9, 51260, Note_on_c, 7, 51, 76
9, 51270, Note_on_c, 7, 81, 0
9, 51270, Note_on_c, 7, 82, 72
9, 51280, Note_on_c, 7, 51, 0
9, 51280, Note_on_c, 7, 53, 61
9, 51300, Note_on_c, 7, 53, 0
9, 51300, Note_on_c, 7, 82, 0
9, 51300, Note_on_c, 7, 84, 71
9, 51300, Note_on_c, 7, 57, 61
9, 51320, Note_on_c, 7, 57, 0
9, 51320, Note_on_c, 7, 53, 72
9, 51330, Note_on_c, 7, 84, 0
9, 51330, Note_on_c, 7, 81, 29
9, 51340, Note_on_c, 7, 53, 0
9, 51340, Note_on_c, 7, 51, 76
9, 51360, Note_on_c, 7, 51, 0
9, 51360, Note_on_c, 7, 81, 0
9, 51360, Note_on_c, 7, 82, 68
9, 51360, Note_on_c, 7, 49, 73
9, 51380, Note_on_c, 7, 49, 0
9, 51380, Note_on_c, 7, 53, 72
9, 51390, Note_on_c, 7, 82, 0
9, 51390, Note_on_c, 7, 83, 71
9, 51400, Note_on_c, 7, 53, 0
9, 51400, Note_on_c, 7, 56, 78
9, 51420, Note_on_c, 7, 56, 0
9, 51420, Note_on_c, 7, 83, 0
9, 51420, Note_on_c, 7, 84, 73
9, 51420, Note_on_c, 7, 51, 73
9, 51440, Note_on_c, 7, 51, 0
9, 51440, Note_on_c, 7, 57, 71
9, 51450, Note_on_c, 7, 84, 0
9, 51450, Note_on_c, 7, 85, 68
9, 51460, Note_on_c, 7, 57, 0
9, 51460, Note_on_c, 7, 60, 74
9, 51480, Note_on_c, 7, 60, 0
9, 51480, Note_on_c, 7, 85, 0
9, 51480, Note_on_c, 7, 86, 82
9, 51480, Note_on_c, 7, 53, 64
9, 51500, Note_on_c, 7, 53, 0
9, 51500, Note_on_c, 7, 58, 78
9, 51510, Note_on_c, 7, 86, 0
9, 51510, Note_on_c, 7, 87, 80
9, 51520, Note_on_c, 7, 58, 0
9, 51520, Note_on_c, 7, 61, 71
9, 51540, Note_on_c, 7, 61, 0
9, 51540, Note_on_c, 7, 87, 0
9, 51540, Note_on_c, 7, 88, 72
9, 51540, Note_on_c, 7, 50, 81
9, 51560, Note_on_c, 7, 50, 0
9, 51560, Note_on_c, 7, 53, 84
9, 51570, Note_on_c, 7, 88, 0
9, 51570, Note_on_c, 7, 89, 69
9, 51580, Note_on_c, 7, 53, 0
9, 51580, Note_on_c, 7, 58, 73
9, 51585, Note_on_c, 7, 89, 0
9, 51585, Note_on_c, 7, 82, 67
9, 51600, Note_on_c, 7, 82, 0
9, 51600, Note_on_c, 7, 58, 0
9, 51600, Control_c, 7, 7, 100
9, 51600, Note_on_c, 7, 80, 69
9, 51600, Note_on_c, 7, 51, 80
9, 51620, Note_on_c, 7, 51, 0
9, 51620, Note_on_c, 7, 80, 0
9, 51620, Note_on_c, 7, 79, 72
9, 51620, Note_on_c, 7, 56, 71
9, 51640, Note_on_c, 7, 56, 0
9, 51640, Note_on_c, 7, 79, 0
9, 51640, Note_on_c, 7, 80, 71
9, 51640, Note_on_c, 7, 60, 76
9, 51660, Note_on_c, 7, 60, 0
9, 51660, Note_on_c, 7, 80, 0
9, 51660, Note_on_c, 7, 87, 69
9, 51660, Note_on_c, 7, 51, 80
9, 51680, Note_on_c, 7, 51, 0
9, 51680, Note_on_c, 7, 87, 0
9, 51680, Note_on_c, 7, 84, 74
9, 51680, Note_on_c, 7, 56, 71
9, 51700, Note_on_c, 7, 56, 0
9, 51700, Note_on_c, 7, 84, 0
9, 51700, Note_on_c, 7, 80, 70
9, 51700, Note_on_c, 7, 60, 69
9, 51710, Note_on_c, 7, 80, 0
9, 51710, Note_on_c, 7, 80, 82
9, 51720, Note_on_c, 7, 80, 0
9, 51720, Note_on_c, 7, 60, 0
9, 51720, Note_on_c, 7, 79, 73
9, 51720, Note_on_c, 7, 51, 80
9, 51740, Note_on_c, 7, 51, 0
9, 51740, Note_on_c, 7, 79, 0
9, 51740, Note_on_c, 7, 78, 74
9, 51740, Note_on_c, 7, 58, 68
9, 51760, Note_on_c, 7, 58, 0
9, 51760, Note_on_c, 7, 78, 0
9, 51760, Note_on_c, 7, 79, 80
9, 51760, Note_on_c, 7, 61, 65
9, 51780, Note_on_c, 7, 61, 0
9, 51780, Note_on_c, 7, 79, 0
9, 51780, Note_on_c, 7, 85, 74
9, 51780, Note_on_c, 7, 51, 77
9, 51800, Note_on_c, 7, 51, 0
9, 51800, Note_on_c, 7, 85, 0
9, 51800, Note_on_c, 7, 82, 78
9, 51800, Note_on_c, 7, 58, 80
9, 51820, Note_on_c, 7, 58, 0
9, 51820, Note_on_c, 7, 82, 0
9, 51820, Note_on_c, 7, 79, 71
9, 51820, Note_on_c, 7, 61, 67
9, 51840, Note_on_c, 7, 61, 0
9, 51840, Note_on_c, 7, 79, 0
9, 51840, Note_on_c, 7, 80, 74
9, 51840, Note_on_c, 7, 60, 65
9, 51840, Note_on_c, 7, 56, 64
9, 51855, Note_on_c, 7, 80, 0
9, 51870, Note_on_c, 7, 74, 76
9, 51900, Note_on_c, 7, 74, 0
9, 51900, Note_on_c, 7, 56, 0
9, 51900, Note_on_c, 7, 60, 0
9, 51900, Note_on_c, 7, 77, 65
9, 51930, Note_on_c, 7, 77, 0
9, 51930, Note_on_c, 7, 75, 84
9, 51960, Note_on_c, 7, 75, 0
9, 51960, Note_on_c, 7, 73, 74
9, 51990, Note_on_c, 7, 73, 0
9, 51990, Note_on_c, 7, 72, 84
9, 52020, Note_on_c, 7, 72, 0
9, 52020, Note_on_c, 7, 70, 76
9, 52050, Note_on_c, 7, 70, 0
9, 52050, Note_on_c, 7, 68, 74
9, 52080, Note_on_c, 7, 68, 0
9, 52080, Note_on_c, 7, 67, 73
9, 52140, Note_on_c, 7, 67, 0
9, 53040, Note_on_c, 7, 51, 65
9, 53070, Note_on_c, 7, 55, 73
9, 53085, Note_on_c, 7, 55, 0
9, 53100, Note_on_c, 7, 51, 0
9, 53100, Note_on_c, 7, 58, 81
9, 53115, Note_on_c, 7, 58, 0
9, 53130, Note_on_c, 7, 63, 82
9, 53145, Note_on_c, 7, 63, 0
9, 53160, Note_on_c, 7, 67, 93
9, 53175, Note_on_c, 7, 67, 0
9, 53190, Note_on_c, 7, 70, 84
9, 53205, Note_on_c, 7, 70, 0
9, 53220, Note_on_c, 7, 75, 89
9, 53235, Note_on_c, 7, 75, 0
9, 53250, Note_on_c, 7, 79, 90
9, 53265, Note_on_c, 7, 79, 0
9, 53280, Note_on_c, 7, 80, 86
9, 53310, Note_on_c, 7, 34, 81
9, 53325, Note_on_c, 7, 34, 0
9, 53340, Note_on_c, 7, 80, 0
9, 53340, Note_on_c, 7, 38, 94
9, 53355, Note_on_c, 7, 38, 0
9, 53370, Note_on_c, 7, 41, 77
9, 53385, Note_on_c, 7, 41, 0
9, 53400, Note_on_c, 7, 46, 73
9, 53415, Note_on_c, 7, 46, 0
9, 53430, Note_on_c, 7, 50, 81
9, 53445, Note_on_c, 7, 50, 0
9, 53460, Note_on_c, 7, 53, 80
9, 53475, Note_on_c, 7, 53, 0
9, 53490, Note_on_c, 7, 58, 90
9, 53505, Note_on_c, 7, 58, 0
9, 53520, Note_on_c, 7, 51, 64
9, 53540, Note_on_c, 7, 55, 72
9, 53560, Note_on_c, 7, 55, 0
9, 53560, Note_on_c, 7, 63, 76
9, 53580, Note_on_c, 7, 63, 0
9, 53580, Note_on_c, 7, 51, 0
9, 53580, Note_on_c, 7, 51, 78
9, 53580, Note_on_c, 7, 67, 73
9, 53600, Note_on_c, 7, 67, 0
9, 53600, Note_on_c, 7, 63, 77
9, 53620, Note_on_c, 7, 63, 0
9, 53620, Note_on_c, 7, 55, 80
9, 53640, Note_on_c, 7, 55, 0
9, 53640, Note_on_c, 7, 51, 0
9, 53640, Note_on_c, 7, 39, 89
9, 53660, Note_on_c, 7, 67, 81
9, 53680, Note_on_c, 7, 67, 0
9, 53680, Note_on_c, 7, 75, 86
9, 53700, Note_on_c, 7, 75, 0
9, 53700, Note_on_c, 7, 39, 0
9, 53700, Note_on_c, 7, 51, 81
9, 53700, Note_on_c, 7, 79, 81
9, 53720, Note_on_c, 7, 79, 0
9, 53720, Note_on_c, 7, 75, 94
9, 53740, Note_on_c, 7, 75, 0
9, 53740, Note_on_c, 7, 67, 89
9, 53760, Note_on_c, 7, 67, 0
9, 53760, Note_on_c, 7, 51, 0
9, 53760, Note_on_c, 7, 41, 74
9, 53780, Note_on_c, 7, 68, 90
9, 53800, Note_on_c, 7, 68, 0
9, 53800, Note_on_c, 7, 75, 95
9, 53820, Note_on_c, 7, 75, 0
9, 53820, Note_on_c, 7, 41, 0
9, 53820, Note_on_c, 7, 53, 71
9, 53820, Note_on_c, 7, 80, 84
9, 53840, Note_on_c, 7, 80, 0
9, 53840, Note_on_c, 7, 75, 90
9, 53860, Note_on_c, 7, 75, 0
9, 53860, Note_on_c, 7, 68, 81
9, 53880, Note_on_c, 7, 68, 0
9, 53880, Note_on_c, 7, 53, 0
9, 53880, Note_on_c, 7, 43, 89
9, 53900, Note_on_c, 7, 70, 84
9, 53920, Note_on_c, 7, 70, 0
9, 53920, Note_on_c, 7, 75, 82
9, 53940, Note_on_c, 7, 75, 0
9, 53940, Note_on_c, 7, 43, 0
9, 53940, Note_on_c, 7, 55, 68
9, 53940, Note_on_c, 7, 82, 77
9, 53960, Note_on_c, 7, 82, 0
9, 53960, Note_on_c, 7, 75, 84
9, 53980, Note_on_c, 7, 75, 0
9, 53980, Note_on_c, 7, 70, 93
9, 54000, Note_on_c, 7, 70, 0
9, 54000, Note_on_c, 7, 55, 0
9, 54000, Note_on_c, 7, 84, 81
9, 54000, Note_on_c, 7, 44, 81
9, 54020, Note_on_c, 7, 44, 0
9, 54020, Note_on_c, 7, 56, 80
9, 54040, Note_on_c, 7, 56, 0
9, 54040, Note_on_c, 7, 60, 78
9, 54060, Note_on_c, 7, 60, 0
9, 54060, Note_on_c, 7, 63, 73
9, 54080, Note_on_c, 7, 63, 0
9, 54080, Note_on_c, 7, 60, 89
9, 54100, Note_on_c, 7, 60, 0
9, 54100, Note_on_c, 7, 56, 86
9, 54120, Note_on_c, 7, 56, 0
9, 54120, Note_on_c, 7, 84, 0
9, 54120, Note_on_c, 7, 85, 82
9, 54120, Note_on_c, 7, 51, 90
9, 54140, Note_on_c, 7, 51, 0
9, 54140, Note_on_c, 7, 56, 84
9, 54150, Note_on_c, 7, 85, 0
9, 54150, Note_on_c, 7, 84, 81
9, 54160, Note_on_c, 7, 56, 0
9, 54160, Note_on_c, 7, 60, 84
9, 54180, Note_on_c, 7, 60, 0
9, 54180, Note_on_c, 7, 84, 0
9, 54180, Note_on_c, 7, 82, 82
9, 54180, Note_on_c, 7, 63, 80
9, 54200, Note_on_c, 7, 63, 0
9, 54200, Note_on_c, 7, 60, 89
9, 54210, Note_on_c, 7, 82, 0
9, 54210, Note_on_c, 7, 84, 80
9, 54220, Note_on_c, 7, 60, 0
9, 54220, Note_on_c, 7, 56, 82
9, 54240, Note_on_c, 7, 56, 0
9, 54240, Note_on_c, 7, 84, 0
9, 54240, Note_on_c, 7, 85, 81
9, 54240, Note_on_c, 7, 51, 89
9, 54260, Note_on_c, 7, 51, 0
9, 54260, Note_on_c, 7, 58, 76
9, 54280, Note_on_c, 7, 58, 0
9, 54280, Note_on_c, 7, 61, 80
9, 54300, Note_on_c, 7, 61, 0
9, 54300, Note_on_c, 7, 63, 80
9, 54320, Note_on_c, 7, 63, 0
9, 54320, Note_on_c, 7, 61, 84
9, 54340, Note_on_c, 7, 61, 0
9, 54340, Note_on_c, 7, 58, 76
9, 54360, Note_on_c, 7, 58, 0
9, 54360, Note_on_c, 7, 85, 0
9, 54360, Note_on_c, 7, 82, 84
9, 54360, Note_on_c, 7, 51, 85
9, 54380, Note_on_c, 7, 51, 0
9, 54380, Note_on_c, 7, 58, 80
9, 54400, Note_on_c, 7, 58, 0
9, 54400, Note_on_c, 7, 61, 82
9, 54420, Note_on_c, 7, 61, 0
9, 54420, Note_on_c, 7, 82, 0
9, 54420, Note_on_c, 7, 80, 84
9, 54420, Note_on_c, 7, 63, 77
9, 54440, Note_on_c, 7, 63, 0
9, 54440, Note_on_c, 7, 61, 90
9, 54460, Note_on_c, 7, 61, 0
9, 54460, Note_on_c, 7, 58, 90
9, 54480, Note_on_c, 7, 58, 0
9, 54480, Note_on_c, 7, 80, 0
9, 54480, Note_on_c, 7, 79, 89
9, 54480, Note_on_c, 7, 51, 84
9, 54500, Note_on_c, 7, 51, 0
9, 54500, Note_on_c, 7, 55, 89
9, 54520, Note_on_c, 7, 55, 0
9, 54520, Note_on_c, 7, 58, 86
9, 54540, Note_on_c, 7, 58, 0
9, 54540, Note_on_c, 7, 79, 0
9, 54540, Note_on_c, 7, 87, 99
9, 54540, Note_on_c, 7, 63, 77
9, 54560, Note_on_c, 7, 63, 0
9, 54560, Note_on_c, 7, 58, 84
9, 54580, Note_on_c, 7, 58, 0
9, 54580, Note_on_c, 7, 55, 86
9, 54600, Note_on_c, 7, 55, 0
9, 54600, Note_on_c, 7, 87, 0
9, 54600, Note_on_c, 7, 87, 89
9, 54600, Note_on_c, 7, 51, 89
9, 54620, Note_on_c, 7, 51, 0
9, 54620, Note_on_c, 7, 55, 89
9, 54630, Note_on_c, 7, 87, 0
9, 54640, Note_on_c, 7, 55, 0
9, 54640, Note_on_c, 7, 58, 72
9, 54660, Note_on_c, 7, 58, 0
9, 54660, Note_on_c, 7, 87, 93
9, 54660, Note_on_c, 7, 49, 82
9, 54680, Note_on_c, 7, 49, 0
9, 54680, Note_on_c, 7, 55, 86
9, 54690, Note_on_c, 7, 87, 0
9, 54700, Note_on_c, 7, 55, 0
9, 54700, Note_on_c, 7, 58, 73
9, 54720, Note_on_c, 7, 58, 0
9, 54720, Note_on_c, 7, 87, 81
9, 54720, Note_on_c, 7, 48, 94
9, 54740, Note_on_c, 7, 48, 0
9, 54740, Note_on_c, 7, 87, 0
9, 54740, Note_on_c, 7, 89, 89
9, 54740, Note_on_c, 7, 51, 95
9, 54760, Note_on_c, 7, 51, 0
9, 54760, Note_on_c, 7, 89, 0
9, 54760, Note_on_c, 7, 87, 80
9, 54760, Note_on_c, 7, 56, 89
9, 54780, Note_on_c, 7, 56, 0
9, 54780, Note_on_c, 7, 87, 0
9, 54780, Note_on_c, 7, 89, 99
9, 54780, Note_on_c, 7, 60, 74
9, 54800, Note_on_c, 7, 60, 0
9, 54800, Note_on_c, 7, 89, 0
9, 54800, Note_on_c, 7, 87, 80
9, 54800, Note_on_c, 7, 56, 94
9, 54820, Note_on_c, 7, 56, 0
9, 54820, Note_on_c, 7, 87, 0
9, 54820, Note_on_c, 7, 89, 84
9, 54820, Note_on_c, 7, 51, 74
9, 54840, Note_on_c, 7, 51, 0
9, 54840, Note_on_c, 7, 89, 0
9, 54840, Note_on_c, 7, 87, 84
9, 54840, Note_on_c, 7, 48, 89
9, 54855, Note_on_c, 7, 87, 0
9, 54855, Note_on_c, 7, 89, 90
9, 54860, Note_on_c, 7, 48, 0
9, 54860, Note_on_c, 7, 51, 95
9, 54870, Note_on_c, 7, 89, 0
9, 54870, Note_on_c, 7, 87, 85
9, 54880, Note_on_c, 7, 51, 0
9, 54880, Note_on_c, 7, 56, 89
9, 54885, Note_on_c, 7, 87, 0
9, 54885, Note_on_c, 7, 89, 94
9, 54900, Note_on_c, 7, 89, 0
9, 54900, Note_on_c, 7, 56, 0
9, 54900, Note_on_c, 7, 87, 84
9, 54900, Note_on_c, 7, 60, 77
9, 54920, Note_on_c, 7, 60, 0
9, 54920, Note_on_c, 7, 87, 0
9, 54920, Note_on_c, 7, 89, 86
9, 54920, Note_on_c, 7, 56, 93
9, 54940, Note_on_c, 7, 56, 0
9, 54940, Note_on_c, 7, 89, 0
9, 54940, Note_on_c, 7, 87, 82
9, 54940, Note_on_c, 7, 51, 89
9, 54960, Note_on_c, 7, 51, 0
9, 54960, Note_on_c, 7, 87, 0
9, 54960, Note_on_c, 7, 89, 93
9, 54960, Note_on_c, 7, 48, 90
9, 54980, Note_on_c, 7, 48, 0
9, 54980, Note_on_c, 7, 89, 0
9, 54980, Note_on_c, 7, 87, 85
9, 54980, Note_on_c, 7, 51, 89
9, 55000, Note_on_c, 7, 51, 0
9, 55000, Note_on_c, 7, 87, 0
9, 55000, Note_on_c, 7, 89, 86
9, 55000, Note_on_c, 7, 54, 82
9, 55020, Note_on_c, 7, 54, 0
9, 55020, Note_on_c, 7, 89, 0
9, 55020, Note_on_c, 7, 87, 84
9, 55020, Note_on_c, 7, 56, 81
9, 55035, Note_on_c, 7, 87, 0
9, 55035, Note_on_c, 7, 89, 89
9, 55040, Note_on_c, 7, 56, 0
9, 55040, Note_on_c, 7, 54, 89
9, 55050, Note_on_c, 7, 89, 0
9, 55050, Note_on_c, 7, 87, 84
9, 55060, Note_on_c, 7, 54, 0
9, 55060, Note_on_c, 7, 51, 95
9, 55065, Note_on_c, 7, 87, 0
9, 55065, Note_on_c, 7, 89, 89
9, 55080, Note_on_c, 7, 89, 0
9, 55080, Note_on_c, 7, 51, 0
9, 55080, Note_on_c, 7, 87, 85
9, 55080, Note_on_c, 7, 48, 90
9, 55100, Note_on_c, 7, 48, 0
9, 55100, Note_on_c, 7, 87, 0
9, 55100, Note_on_c, 7, 89, 86
9, 55100, Note_on_c, 7, 54, 89
9, 55120, Note_on_c, 7, 54, 0
9, 55120, Note_on_c, 7, 89, 0
9, 55120, Note_on_c, 7, 87, 84
9, 55120, Note_on_c, 7, 56, 81
9, 55140, Note_on_c, 7, 56, 0
9, 55140, Note_on_c, 7, 87, 0
9, 55140, Note_on_c, 7, 48, 95
9, 55140, Note_on_c, 7, 88, 82
9, 55160, Note_on_c, 7, 88, 0
9, 55160, Note_on_c, 7, 48, 0
9, 55160, Note_on_c, 7, 54, 81
9, 55160, Note_on_c, 7, 89, 93
9, 55180, Note_on_c, 7, 89, 0
9, 55180, Note_on_c, 7, 54, 0
9, 55180, Note_on_c, 7, 56, 78
9, 55180, Note_on_c, 7, 88, 89
9, 55200, Note_on_c, 7, 88, 0
9, 55200, Note_on_c, 7, 56, 0
9, 55200, Note_on_c, 7, 89, 89
9, 55200, Note_on_c, 7, 49, 89
9, 55215, Note_on_c, 7, 89, 0
9, 55215, Note_on_c, 7, 88, 84
9, 55220, Note_on_c, 7, 49, 0
9, 55220, Note_on_c, 7, 53, 81
9, 55230, Note_on_c, 7, 88, 0
9, 55230, Note_on_c, 7, 89, 89
9, 55240, Note_on_c, 7, 53, 0
9, 55240, Note_on_c, 7, 56, 84
9, 55245, Note_on_c, 7, 89, 0
9, 55245, Note_on_c, 7, 88, 86
9, 55260, Note_on_c, 7, 88, 0
9, 55260, Note_on_c, 7, 56, 0
9, 55260, Note_on_c, 7, 89, 86
9, 55260, Note_on_c, 7, 49, 86
9, 55275, Note_on_c, 7, 89, 0
9, 55275, Note_on_c, 7, 88, 86
9, 55280, Note_on_c, 7, 49, 0
9, 55280, Note_on_c, 7, 53, 94
9, 55290, Note_on_c, 7, 88, 0
9, 55290, Note_on_c, 7, 89, 93
9, 55300, Note_on_c, 7, 53, 0
9, 55300, Note_on_c, 7, 57, 99
9, 55305, Note_on_c, 7, 89, 0
9, 55305, Note_on_c, 7, 88, 85
9, 55320, Note_on_c, 7, 88, 0
9, 55320, Note_on_c, 7, 57, 0
9, 55320, Note_on_c, 7, 89, 86
9, 55320, Note_on_c, 7, 49, 94
9, 55340, Note_on_c, 7, 49, 0
9, 55340, Note_on_c, 7, 89, 0
9, 55340, Note_on_c, 7, 87, 90
9, 55340, Note_on_c, 7, 53, 86
9, 55360, Note_on_c, 7, 53, 0
9, 55360, Note_on_c, 7, 87, 0
9, 55360, Note_on_c, 7, 85, 82
9, 55360, Note_on_c, 7, 58, 77
9, 55380, Note_on_c, 7, 58, 0
9, 55380, Note_on_c, 7, 85, 0
9, 55380, Note_on_c, 7, 84, 80
9, 55380, Note_on_c, 7, 49, 89
9, 55400, Note_on_c, 7, 49, 0
9, 55400, Note_on_c, 7, 84, 0
9, 55400, Note_on_c, 7, 85, 89
9, 55400, Note_on_c, 7, 53, 93
9, 55420, Note_on_c, 7, 53, 0
9, 55420, Note_on_c, 7, 85, 0
9, 55420, Note_on_c, 7, 61, 81
9, 55420, Note_on_c, 7, 82, 84
9, 55430, Note_on_c, 7, 82, 0
9, 55430, Note_on_c, 7, 82, 84
9, 55440, Note_on_c, 7, 82, 0
9, 55440, Note_on_c, 7, 61, 0
9, 55440, Note_on_c, 7, 51, 89
9, 55440, Note_on_c, 7, 80, 86
9, 55460, Note_on_c, 7, 80, 0
9, 55460, Note_on_c, 7, 51, 0
9, 55460, Note_on_c, 7, 60, 89
9, 55460, Note_on_c, 7, 79, 84
9, 55480, Note_on_c, 7, 79, 0
9, 55480, Note_on_c, 7, 60, 0
9, 55480, Note_on_c, 7, 63, 76
9, 55480, Note_on_c, 7, 80, 93
9, 55500, Note_on_c, 7, 80, 0
9, 55500, Note_on_c, 7, 63, 0
9, 55500, Note_on_c, 7, 51, 94
9, 55500, Note_on_c, 7, 87, 81
9, 55520, Note_on_c, 7, 87, 0
9, 55520, Note_on_c, 7, 51, 0
9, 55520, Note_on_c, 7, 56, 84
9, 55520, Note_on_c, 7, 84, 89
9, 55540, Note_on_c, 7, 84, 0
9, 55540, Note_on_c, 7, 56, 0
9, 55540, Note_on_c, 7, 60, 89
9, 55540, Note_on_c, 7, 80, 89
9, 55550, Note_on_c, 7, 80, 0
9, 55550, Note_on_c, 7, 80, 86
9, 55560, Note_on_c, 7, 80, 0
9, 55560, Note_on_c, 7, 60, 0
9, 55560, Note_on_c, 7, 51, 94
9, 55560, Note_on_c, 7, 79, 90
9, 55580, Note_on_c, 7, 79, 0
9, 55580, Note_on_c, 7, 51, 0
9, 55580, Note_on_c, 7, 58, 90
9, 55580, Note_on_c, 7, 78, 77
9, 55600, Note_on_c, 7, 78, 0
9, 55600, Note_on_c, 7, 58, 0
9, 55600, Note_on_c, 7, 61, 73
9, 55600, Note_on_c, 7, 79, 89
9, 55620, Note_on_c, 7, 79, 0
9, 55620, Note_on_c, 7, 61, 0
9, 55620, Note_on_c, 7, 51, 94
9, 55620, Note_on_c, 7, 85, 85
9, 55640, Note_on_c, 7, 85, 0
9, 55640, Note_on_c, 7, 51, 0
9, 55640, Note_on_c, 7, 58, 94
9, 55640, Note_on_c, 7, 82, 94
9, 55660, Note_on_c, 7, 82, 0
9, 55660, Note_on_c, 7, 58, 0
9, 55660, Note_on_c, 7, 61, 74
9, 55660, Note_on_c, 7, 79, 85
9, 55680, Note_on_c, 7, 79, 0
9, 55680, Note_on_c, 7, 61, 0
9, 55680, Note_on_c, 7, 56, 82
9, 55680, Note_on_c, 7, 60, 82
9, 55680, Note_on_c, 7, 80, 95
9, 55695, Note_on_c, 7, 80, 0
9, 55710, Note_on_c, 7, 75, 95
9, 55740, Note_on_c, 7, 75, 0
9, 55740, Note_on_c, 7, 60, 0
9, 55740, Note_on_c, 7, 56, 0
9, 55740, Note_on_c, 7, 77, 76
9, 55770, Note_on_c, 7, 77, 0
9, 55770, Note_on_c, 7, 75, 98
9, 55800, Note_on_c, 7, 75, 0
9, 55800, Note_on_c, 7, 73, 89
9, 55830, Note_on_c, 7, 73, 0
9, 55830, Note_on_c, 7, 72, 93
9, 55860, Note_on_c, 7, 72, 0
9, 55860, Note_on_c, 7, 70, 90
9, 55890, Note_on_c, 7, 70, 0
9, 55890, Note_on_c, 7, 68, 89
9, 55920, Note_on_c, 7, 68, 0
9, 55920, Note_on_c, 7, 67, 89
9, 55980, Note_on_c, 7, 67, 0
9, 57360, Note_on_c, 7, 31, 80
9, 57375, Note_on_c, 7, 31, 0
9, 57375, Note_on_c, 7, 32, 84
9, 57390, Note_on_c, 7, 32, 0
9, 57390, Note_on_c, 7, 34, 85
9, 57405, Note_on_c, 7, 34, 0
9, 57405, Note_on_c, 7, 36, 86
9, 57420, Note_on_c, 7, 36, 0
9, 57420, Note_on_c, 7, 37, 81
9, 57435, Note_on_c, 7, 37, 0
9, 57435, Note_on_c, 7, 39, 82
9, 57450, Note_on_c, 7, 39, 0
9, 57450, Note_on_c, 7, 41, 74
9, 57465, Note_on_c, 7, 41, 0
9, 57465, Note_on_c, 7, 43, 89
9, 57480, Note_on_c, 7, 43, 0
9, 57480, Note_on_c, 7, 44, 84
9, 57495, Note_on_c, 7, 44, 0
9, 57495, Note_on_c, 7, 46, 84
9, 57510, Note_on_c, 7, 46, 0
9, 57510, Note_on_c, 7, 48, 73
9, 57525, Note_on_c, 7, 48, 0
9, 57525, Note_on_c, 7, 49, 84
9, 57540, Note_on_c, 7, 49, 0
9, 57540, Note_on_c, 7, 51, 81
9, 57555, Note_on_c, 7, 51, 0
9, 57555, Note_on_c, 7, 53, 81
9, 57570, Note_on_c, 7, 53, 0
9, 57570, Note_on_c, 7, 55, 86
9, 57585, Note_on_c, 7, 55, 0
9, 57585, Note_on_c, 7, 56, 93
9, 57600, Note_on_c, 7, 56, 0
9, 57600, Note_on_c, 7, 58, 81
9, 57615, Note_on_c, 7, 58, 0
9, 57615, Note_on_c, 7, 60, 84
9, 57630, Note_on_c, 7, 60, 0
9, 57630, Note_on_c, 7, 61, 84
9, 57645, Note_on_c, 7, 61, 0
9, 57645, Note_on_c, 7, 63, 85
9, 57660, Note_on_c, 7, 63, 0
9, 57660, Note_on_c, 7, 65, 89
9, 57675, Note_on_c, 7, 65, 0
9, 57675, Note_on_c, 7, 67, 82
9, 57690, Note_on_c, 7, 67, 0
9, 57690, Note_on_c, 7, 68, 93
9, 57705, Note_on_c, 7, 68, 0
9, 57705, Note_on_c, 7, 70, 93
9, 57720, Note_on_c, 7, 70, 0
9, 57720, Note_on_c, 7, 72, 86
9, 57735, Note_on_c, 7, 72, 0
9, 57735, Note_on_c, 7, 73, 84
9, 57750, Note_on_c, 7, 73, 0
9, 57750, Note_on_c, 7, 75, 99
9, 57765, Note_on_c, 7, 75, 0
9, 57765, Note_on_c, 7, 77, 86
9, 57780, Note_on_c, 7, 77, 0
9, 57780, Note_on_c, 7, 79, 86
9, 57792, Note_on_c, 7, 79, 0
9, 57792, Note_on_c, 7, 80, 86
9, 57804, Note_on_c, 7, 80, 0
9, 57804, Note_on_c, 7, 82, 89
9, 57816, Note_on_c, 7, 82, 0
9, 57816, Note_on_c, 7, 84, 90
9, 57828, Note_on_c, 7, 84, 0
9, 57828, Note_on_c, 7, 85, 89
9, 57840, Note_on_c, 7, 85, 0
9, 57840, Note_on_c, 7, 87, 81
9, 57840, Note_on_c, 7, 51, 73
9, 57860, Note_on_c, 7, 51, 0
9, 57860, Note_on_c, 7, 87, 0
9, 57860, Note_on_c, 7, 89, 76
9, 57860, Note_on_c, 7, 56, 67
9, 57880, Note_on_c, 7, 56, 0
9, 57880, Note_on_c, 7, 89, 0
9, 57880, Note_on_c, 7, 87, 84
9, 57880, Note_on_c, 7, 60, 80
9, 57900, Note_on_c, 7, 60, 0
9, 57900, Note_on_c, 7, 87, 0
9, 57900, Note_on_c, 7, 89, 84
9, 57900, Note_on_c, 7, 63, 72
9, 57920, Note_on_c, 7, 63, 0
9, 57920, Note_on_c, 7, 89, 0
9, 57920, Note_on_c, 7, 87, 80
9, 57920, Note_on_c, 7, 60, 84
9, 57940, Note_on_c, 7, 60, 0
9, 57940, Note_on_c, 7, 87, 0
9, 57940, Note_on_c, 7, 89, 77
9, 57940, Note_on_c, 7, 56, 76
9, 57960, Note_on_c, 7, 56, 0
9, 57960, Note_on_c, 7, 89, 0
9, 57960, Note_on_c, 7, 87, 76
9, 57960, Note_on_c, 7, 51, 77
9, 57975, Note_on_c, 7, 87, 0
9, 57975, Note_on_c, 7, 89, 76
9, 57980, Note_on_c, 7, 51, 0
9, 57980, Note_on_c, 7, 56, 82
9, 57990, Note_on_c, 7, 89, 0
9, 57990, Note_on_c, 7, 87, 78
9, 58000, Note_on_c, 7, 56, 0
9, 58000, Note_on_c, 7, 60, 80
9, 58005, Note_on_c, 7, 87, 0
9, 58005, Note_on_c, 7, 89, 81
9, 58020, Note_on_c, 7, 89, 0
9, 58020, Note_on_c, 7, 60, 0
9, 58020, Note_on_c, 7, 87, 82
9, 58020, Note_on_c, 7, 63, 72
9, 58040, Note_on_c, 7, 63, 0
9, 58040, Note_on_c, 7, 87, 0
9, 58040, Note_on_c, 7, 89, 80
9, 58040, Note_on_c, 7, 60, 84
9, 58060, Note_on_c, 7, 60, 0
9, 58060, Note_on_c, 7, 89, 0
9, 58060, Note_on_c, 7, 87, 80
9, 58060, Note_on_c, 7, 56, 80
9, 58080, Note_on_c, 7, 56, 0
9, 58080, Note_on_c, 7, 87, 0
9, 58080, Note_on_c, 7, 89, 70
9, 58080, Note_on_c, 7, 51, 71
9, 58095, Note_on_c, 7, 89, 0
9, 58095, Note_on_c, 7, 87, 81
9, 58100, Note_on_c, 7, 51, 0
9, 58100, Note_on_c, 7, 58, 73
9, 58110, Note_on_c, 7, 87, 0
9, 58110, Note_on_c, 7, 89, 84
9, 58120, Note_on_c, 7, 58, 0
9, 58120, Note_on_c, 7, 61, 73
9, 58125, Note_on_c, 7, 89, 0
9, 58125, Note_on_c, 7, 87, 76
9, 58140, Note_on_c, 7, 87, 0
9, 58140, Note_on_c, 7, 61, 0
9, 58140, Note_on_c, 7, 89, 84
9, 58140, Note_on_c, 7, 63, 68
9, 58160, Note_on_c, 7, 63, 0
9, 58160, Note_on_c, 7, 89, 0
9, 58160, Note_on_c, 7, 87, 81
9, 58160, Note_on_c, 7, 61, 77
9, 58180, Note_on_c, 7, 61, 0
9, 58180, Note_on_c, 7, 87, 0
9, 58180, Note_on_c, 7, 89, 74
9, 58180, Note_on_c, 7, 58, 80
9, 58200, Note_on_c, 7, 58, 0
9, 58200, Note_on_c, 7, 89, 0
9, 58200, Note_on_c, 7, 87, 81
9, 58200, Note_on_c, 7, 51, 74
9, 58220, Note_on_c, 7, 51, 0
9, 58220, Note_on_c, 7, 87, 0
9, 58220, Note_on_c, 7, 89, 69
9, 58220, Note_on_c, 7, 58, 84
9, 58240, Note_on_c, 7, 58, 0
9, 58240, Note_on_c, 7, 89, 0
9, 58240, Note_on_c, 7, 87, 84
9, 58240, Note_on_c, 7, 61, 78
9, 58260, Note_on_c, 7, 61, 0
9, 58260, Note_on_c, 7, 87, 0
9, 58260, Note_on_c, 7, 89, 77
9, 58260, Note_on_c, 7, 63, 61
9, 58275, Note_on_c, 7, 89, 0
9, 58275, Note_on_c, 7, 87, 78
9, 58280, Note_on_c, 7, 63, 0
9, 58280, Note_on_c, 7, 61, 76
9, 58290, Note_on_c, 7, 87, 0
9, 58290, Note_on_c, 7, 89, 77
9, 58300, Note_on_c, 7, 61, 0
9, 58300, Note_on_c, 7, 58, 85
9, 58305, Note_on_c, 7, 89, 0
9, 58305, Note_on_c, 7, 87, 78
9, 58320, Note_on_c, 7, 87, 0
9, 58320, Note_on_c, 7, 58, 0
9, 58320, Note_on_c, 7, 89, 76
9, 58320, Note_on_c, 7, 51, 84
9, 58335, Note_on_c, 7, 89, 0
9, 58335, Note_on_c, 7, 87, 81
9, 58340, Note_on_c, 7, 51, 0
9, 58340, Note_on_c, 7, 55, 73
9, 58350, Note_on_c, 7, 87, 0
9, 58350, Note_on_c, 7, 89, 67
9, 58360, Note_on_c, 7, 55, 0
9, 58360, Note_on_c, 7, 58, 81
9, 58365, Note_on_c, 7, 89, 0
9, 58365, Note_on_c, 7, 87, 80
9, 58380, Note_on_c, 7, 87, 0
9, 58380, Note_on_c, 7, 58, 0
9, 58380, Note_on_c, 7, 89, 77
9, 58380, Note_on_c, 7, 63, 71
9, 58400, Note_on_c, 7, 63, 0
9, 58400, Note_on_c, 7, 89, 0
9, 58400, Note_on_c, 7, 87, 78
9, 58400, Note_on_c, 7, 58, 81
9, 58420, Note_on_c, 7, 58, 0
9, 58420, Note_on_c, 7, 87, 0
9, 58420, Note_on_c, 7, 89, 70
9, 58420, Note_on_c, 7, 55, 84
9, 58440, Note_on_c, 7, 55, 0
9, 58440, Note_on_c, 7, 89, 0
9, 58440, Note_on_c, 7, 87, 77
9, 58440, Note_on_c, 7, 51, 84
9, 58460, Note_on_c, 7, 51, 0
9, 58460, Note_on_c, 7, 87, 0
9, 58460, Note_on_c, 7, 89, 76
9, 58460, Note_on_c, 7, 55, 85
9, 58480, Note_on_c, 7, 55, 0
9, 58480, Note_on_c, 7, 89, 0
9, 58480, Note_on_c, 7, 87, 81
9, 58480, Note_on_c, 7, 58, 72
9, 58500, Note_on_c, 7, 58, 0
9, 58500, Note_on_c, 7, 87, 0
9, 58500, Note_on_c, 7, 89, 78
9, 58500, Note_on_c, 7, 49, 76
9, 58515, Note_on_c, 7, 89, 0
9, 58515, Note_on_c, 7, 87, 81
9, 58520, Note_on_c, 7, 49, 0
9, 58520, Note_on_c, 7, 55, 81
9, 58530, Note_on_c, 7, 87, 0
9, 58530, Note_on_c, 7, 89, 71
9, 58540, Note_on_c, 7, 55, 0
9, 58540, Note_on_c, 7, 58, 69
9, 58545, Note_on_c, 7, 89, 0
9, 58545, Note_on_c, 7, 87, 80
9, 58560, Note_on_c, 7, 87, 0
9, 58560, Note_on_c, 7, 58, 0
9, 58560, Note_on_c, 7, 89, 73
9, 58560, Note_on_c, 7, 48, 86
9, 58580, Note_on_c, 7, 48, 0
9, 58580, Note_on_c, 7, 89, 0
9, 58580, Note_on_c, 7, 87, 80
9, 58580, Note_on_c, 7, 51, 84
9, 58600, Note_on_c, 7, 51, 0
9, 58600, Note_on_c, 7, 87, 0
9, 58600, Note_on_c, 7, 89, 81
9, 58600, Note_on_c, 7, 56, 74
9, 58620, Note_on_c, 7, 56, 0
9, 58620, Note_on_c, 7, 89, 0
9, 58620, Note_on_c, 7, 87, 77
9, 58620, Note_on_c, 7, 60, 71
9, 58635, Note_on_c, 7, 87, 0
9, 58635, Note_on_c, 7, 89, 77
9, 58640, Note_on_c, 7, 60, 0
9, 58640, Note_on_c, 7, 56, 69
9, 58650, Note_on_c, 7, 89, 0
9, 58650, Note_on_c, 7, 87, 82
9, 58660, Note_on_c, 7, 56, 0
9, 58660, Note_on_c, 7, 51, 78
9, 58665, Note_on_c, 7, 87, 0
9, 58665, Note_on_c, 7, 89, 84
9, 58680, Note_on_c, 7, 89, 0
9, 58680, Note_on_c, 7, 51, 0
9, 58680, Note_on_c, 7, 87, 84
9, 58680, Note_on_c, 7, 48, 77
9, 58700, Note_on_c, 7, 48, 0
9, 58700, Note_on_c, 7, 87, 0
9, 58700, Note_on_c, 7, 89, 80
9, 58700, Note_on_c, 7, 51, 85
9, 58720, Note_on_c, 7, 51, 0
9, 58720, Note_on_c, 7, 89, 0
9, 58720, Note_on_c, 7, 87, 81
9, 58720, Note_on_c, 7, 56, 68
9, 58740, Note_on_c, 7, 56, 0
9, 58740, Note_on_c, 7, 87, 0
9, 58740, Note_on_c, 7, 89, 85
9, 58740, Note_on_c, 7, 60, 64
9, 58760, Note_on_c, 7, 60, 0
9, 58760, Note_on_c, 7, 89, 0
9, 58760, Note_on_c, 7, 87, 82
9, 58760, Note_on_c, 7, 56, 82
9, 58780, Note_on_c, 7, 56, 0
9, 58780, Note_on_c, 7, 87, 0
9, 58780, Note_on_c, 7, 89, 81
9, 58780, Note_on_c, 7, 51, 81
9, 58800, Note_on_c, 7, 51, 0
9, 58800, Note_on_c, 7, 89, 0
9, 58800, Note_on_c, 7, 87, 69
9, 58800, Note_on_c, 7, 48, 84
9, 58815, Note_on_c, 7, 87, 0
9, 58815, Note_on_c, 7, 89, 69
9, 58820, Note_on_c, 7, 48, 0
9, 58820, Note_on_c, 7, 51, 86
9, 58830, Note_on_c, 7, 89, 0
9, 58830, Note_on_c, 7, 87, 78
9, 58840, Note_on_c, 7, 51, 0
9, 58840, Note_on_c, 7, 54, 81
9, 58845, Note_on_c, 7, 87, 0
9, 58845, Note_on_c, 7, 89, 76
9, 58860, Note_on_c, 7, 89, 0
9, 58860, Note_on_c, 7, 54, 0
9, 58860, Note_on_c, 7, 87, 70
9, 58860, Note_on_c, 7, 56, 78
9, 58880, Note_on_c, 7, 56, 0
9, 58880, Note_on_c, 7, 87, 0
9, 58880, Note_on_c, 7, 89, 49
9, 58880, Note_on_c, 7, 54, 84
9, 58900, Note_on_c, 7, 54, 0
9, 58900, Note_on_c, 7, 89, 0
9, 58900, Note_on_c, 7, 87, 77
9, 58900, Note_on_c, 7, 51, 86
9, 58920, Note_on_c, 7, 51, 0
9, 58920, Note_on_c, 7, 87, 0
9, 58920, Note_on_c, 7, 89, 73
9, 58920, Note_on_c, 7, 48, 86
9, 58940, Note_on_c, 7, 48, 0
9, 58940, Note_on_c, 7, 89, 0
9, 58940, Note_on_c, 7, 87, 84
9, 58940, Note_on_c, 7, 51, 85
9, 58960, Note_on_c, 7, 51, 0
9, 58960, Note_on_c, 7, 87, 0
9, 58960, Note_on_c, 7, 89, 82
9, 58960, Note_on_c, 7, 56, 73
9, 58980, Note_on_c, 7, 56, 0
9, 58980, Note_on_c, 7, 89, 0
9, 58980, Note_on_c, 7, 88, 89
9, 58980, Note_on_c, 7, 48, 93
9, 59000, Note_on_c, 7, 48, 0
9, 59000, Note_on_c, 7, 88, 0
9, 59000, Note_on_c, 7, 89, 81
9, 59000, Note_on_c, 7, 54, 80
9, 59020, Note_on_c, 7, 54, 0
9, 59020, Note_on_c, 7, 89, 0
9, 59020, Note_on_c, 7, 88, 81
9, 59020, Note_on_c, 7, 56, 76
9, 59040, Note_on_c, 7, 56, 0
9, 59040, Note_on_c, 7, 88, 0
9, 59040, Note_on_c, 7, 89, 78
9, 59040, Note_on_c, 7, 49, 71
9, 59055, Note_on_c, 7, 89, 0
9, 59055, Note_on_c, 7, 88, 84
9, 59060, Note_on_c, 7, 49, 0
9, 59060, Note_on_c, 7, 53, 80
9, 59070, Note_on_c, 7, 88, 0
9, 59070, Note_on_c, 7, 89, 78
9, 59080, Note_on_c, 7, 53, 0
9, 59080, Note_on_c, 7, 56, 76
9, 59085, Note_on_c, 7, 89, 0
9, 59085, Note_on_c, 7, 88, 86
9, 59100, Note_on_c, 7, 88, 0
9, 59100, Note_on_c, 7, 56, 0
9, 59100, Note_on_c, 7, 89, 73
9, 59100, Note_on_c, 7, 49, 77
9, 59115, Note_on_c, 7, 89, 0
9, 59115, Note_on_c, 7, 88, 73
9, 59120, Note_on_c, 7, 49, 0
9, 59120, Note_on_c, 7, 53, 89
9, 59130, Note_on_c, 7, 88, 0
9, 59130, Note_on_c, 7, 89, 74
9, 59140, Note_on_c, 7, 53, 0
9, 59140, Note_on_c, 7, 57, 94
9, 59145, Note_on_c, 7, 89, 0
9, 59145, Note_on_c, 7, 88, 85
9, 59160, Note_on_c, 7, 88, 0
9, 59160, Note_on_c, 7, 57, 0
9, 59160, Note_on_c, 7, 89, 74
9, 59160, Note_on_c, 7, 49, 84
9, 59180, Note_on_c, 7, 49, 0
9, 59180, Note_on_c, 7, 89, 0
9, 59180, Note_on_c, 7, 87, 80
9, 59180, Note_on_c, 7, 53, 76
9, 59200, Note_on_c, 7, 53, 0
9, 59200, Note_on_c, 7, 87, 0
9, 59200, Note_on_c, 7, 85, 76
9, 59200, Note_on_c, 7, 58, 72
9, 59220, Note_on_c, 7, 58, 0
9, 59220, Note_on_c, 7, 85, 0
9, 59220, Note_on_c, 7, 84, 84
9, 59220, Note_on_c, 7, 49, 81
9, 59240, Note_on_c, 7, 49, 0
9, 59240, Note_on_c, 7, 84, 0
9, 59240, Note_on_c, 7, 85, 80
9, 59240, Note_on_c, 7, 53, 80
9, 59260, Note_on_c, 7, 53, 0
9, 59260, Note_on_c, 7, 85, 0
9, 59260, Note_on_c, 7, 82, 76
9, 59260, Note_on_c, 7, 61, 71
9, 59270, Note_on_c, 7, 82, 0
9, 59270, Note_on_c, 7, 82, 72
9, 59280, Note_on_c, 7, 82, 0
9, 59280, Note_on_c, 7, 61, 0
9, 59280, Note_on_c, 7, 80, 84
9, 59280, Note_on_c, 7, 51, 89
9, 59300, Note_on_c, 7, 51, 0
9, 59300, Note_on_c, 7, 80, 0
9, 59300, Note_on_c, 7, 79, 86
9, 59300, Note_on_c, 7, 59, 76
9, 59320, Note_on_c, 7, 59, 0
9, 59320, Note_on_c, 7, 79, 0
9, 59320, Note_on_c, 7, 80, 89
9, 59320, Note_on_c, 7, 60, 86
9, 59340, Note_on_c, 7, 60, 0
9, 59340, Note_on_c, 7, 80, 0
9, 59340, Note_on_c, 7, 87, 78
9, 59340, Note_on_c, 7, 51, 89
9, 59360, Note_on_c, 7, 51, 0
9, 59360, Note_on_c, 7, 87, 0
9, 59360, Note_on_c, 7, 84, 81
9, 59360, Note_on_c, 7, 56, 84
9, 59380, Note_on_c, 7, 56, 0
9, 59380, Note_on_c, 7, 84, 0
9, 59380, Note_on_c, 7, 80, 84
9, 59380, Note_on_c, 7, 60, 82
9, 59390, Note_on_c, 7, 80, 0
9, 59390, Note_on_c, 7, 80, 80
9, 59400, Note_on_c, 7, 80, 0
9, 59400, Note_on_c, 7, 60, 0
9, 59400, Note_on_c, 7, 79, 82
9, 59400, Note_on_c, 7, 51, 84
9, 59420, Note_on_c, 7, 51, 0
9, 59420, Note_on_c, 7, 79, 0
9, 59420, Note_on_c, 7, 77, 80
9, 59420, Note_on_c, 7, 58, 73
9, 59440, Note_on_c, 7, 58, 0
9, 59440, Note_on_c, 7, 77, 0
9, 59440, Note_on_c, 7, 79, 85
9, 59440, Note_on_c, 7, 61, 68
9, 59460, Note_on_c, 7, 61, 0
9, 59460, Note_on_c, 7, 79, 0
9, 59460, Note_on_c, 7, 85, 73
9, 59460, Note_on_c, 7, 51, 84
9, 59480, Note_on_c, 7, 51, 0
9, 59480, Note_on_c, 7, 85, 0
9, 59480, Note_on_c, 7, 82, 86
9, 59480, Note_on_c, 7, 58, 81
9, 59500, Note_on_c, 7, 58, 0
9, 59500, Note_on_c, 7, 82, 0
9, 59500, Note_on_c, 7, 79, 80
9, 59500, Note_on_c, 7, 61, 71
9, 59520, Note_on_c, 7, 61, 0
9, 59520, Note_on_c, 7, 79, 0
9, 59520, Note_on_c, 7, 80, 78
9, 59520, Note_on_c, 7, 60, 72
9, 59520, Note_on_c, 7, 56, 71
9, 59540, Note_on_c, 7, 80, 0
9, 59540, Note_on_c, 7, 75, 93
9, 59560, Note_on_c, 7, 75, 0
9, 59560, Note_on_c, 7, 72, 86
9, 59580, Note_on_c, 7, 72, 0
9, 59580, Note_on_c, 7, 56, 0
9, 59580, Note_on_c, 7, 60, 0
9, 59580, Note_on_c, 7, 68, 82
9, 59600, Note_on_c, 7, 68, 0
9, 59600, Note_on_c, 7, 63, 89
9, 59620, Note_on_c, 7, 63, 0
9, 59620, Note_on_c, 7, 60, 93
9, 59640, Note_on_c, 7, 60, 0
9, 59640, Note_on_c, 7, 56, 77
9, 59700, Note_on_c, 7, 56, 0
9, 66240, Note_on_c, 7, 32, 98
9, 66240, Note_on_c, 7, 44, 93
9, 66300, Note_on_c, 7, 44, 0
9, 66300, Note_on_c, 7, 32, 0
9, 66300, Note_on_c, 7, 56, 93
9, 66300, Note_on_c, 7, 68, 84
9, 66360, Note_on_c, 7, 68, 0
9, 66360, Note_on_c, 7, 56, 0
9, 66360, Note_on_c, 7, 32, 68
9, 66360, Note_on_c, 7, 44, 60
9, 66420, Note_on_c, 7, 44, 0
9, 66420, Note_on_c, 7, 32, 0
9, 66420, Note_on_c, 7, 56, 61
9, 66420, Note_on_c, 7, 68, 61
9, 66480, Note_on_c, 7, 68, 0
9, 66480, Note_on_c, 7, 56, 0
9, 66480, Note_on_c, 7, 32, 57
9, 66480, Note_on_c, 7, 44, 41
9, 66540, Note_on_c, 7, 44, 0
9, 66540, Note_on_c, 7, 32, 0
9, 66540, Note_on_c, 7, 56, 61
9, 66540, Note_on_c, 7, 68, 62
9, 66600, Note_on_c, 7, 68, 0
9, 66600, Note_on_c, 7, 56, 0
9, 66600, Note_on_c, 7, 32, 72
9, 66600, Note_on_c, 7, 44, 55
9, 66660, Note_on_c, 7, 44, 0
9, 66660, Note_on_c, 7, 32, 0
9, 66660, Note_on_c, 7, 68, 53
9, 66660, Note_on_c, 7, 56, 39
9, 66720, Note_on_c, 7, 56, 0
9, 66720, Note_on_c, 7, 68, 0
9, 66720, Note_on_c, 7, 32, 43
9, 66720, Note_on_c, 7, 44, 45
9, 66720, Control_c, 7, 64, 89
9, 66780, Note_on_c, 7, 44, 0
9, 66780, Note_on_c, 7, 32, 0
9, 66780, Note_on_c, 7, 68, 49
9, 66780, Note_on_c, 7, 56, 38
9, 66840, Note_on_c, 7, 56, 0
9, 66840, Note_on_c, 7, 68, 0
9, 66840, Note_on_c, 7, 44, 44
9, 66840, Note_on_c, 7, 32, 36
9, 66900, Note_on_c, 7, 32, 0
9, 66900, Note_on_c, 7, 44, 0
9, 66900, Note_on_c, 7, 68, 45
9, 66900, Note_on_c, 7, 56, 35
9, 66960, Note_on_c, 7, 56, 0
9, 66960, Note_on_c, 7, 68, 0
9, 66960, Note_on_c, 7, 32, 43
9, 66960, Note_on_c, 7, 44, 38
9, 67020, Note_on_c, 7, 44, 0
9, 67020, Note_on_c, 7, 32, 0
9, 67020, Note_on_c, 7, 68, 45
9, 67020, Note_on_c, 7, 56, 35
9, 67080, Note_on_c, 7, 56, 0
9, 67080, Note_on_c, 7, 68, 0
9, 67080, Note_on_c, 7, 44, 40
9, 67080, Note_on_c, 7, 32, 38
9, 67140, Note_on_c, 7, 32, 0
9, 67140, Note_on_c, 7, 44, 0
9, 67140, Note_on_c, 7, 68, 50
9, 67140, Note_on_c, 7, 56, 38
9, 67180, Control_c, 7, 64, 0
9, 67200, Note_on_c, 7, 56, 0
9, 67200, Note_on_c, 7, 68, 0
9, 67200, Control_c, 7, 64, 89
9, 67200, Note_on_c, 7, 52, 39
9, 67200, Note_on_c, 7, 40, 42
9, 67260, Note_on_c, 7, 40, 0
9, 67260, Note_on_c, 7, 52, 0
9, 67260, Note_on_c, 7, 68, 40
9, 67260, Note_on_c, 7, 56, 36
9, 67320, Note_on_c, 7, 56, 0
9, 67320, Note_on_c, 7, 68, 0
9, 67320, Note_on_c, 7, 40, 39
9, 67320, Note_on_c, 7, 52, 39
9, 67380, Note_on_c, 7, 52, 0
9, 67380, Note_on_c, 7, 40, 0
9, 67380, Note_on_c, 7, 56, 38
9, 67380, Note_on_c, 7, 68, 38
9, 67440, Note_on_c, 7, 68, 0
9, 67440, Note_on_c, 7, 56, 0
9, 67440, Note_on_c, 7, 40, 40
9, 67440, Note_on_c, 7, 52, 42
9, 67500, Note_on_c, 7, 52, 0
9, 67500, Note_on_c, 7, 40, 0
9, 67500, Note_on_c, 7, 56, 42
9, 67500, Note_on_c, 7, 68, 56
9, 67560, Note_on_c, 7, 68, 0
9, 67560, Note_on_c, 7, 56, 0
9, 67560, Note_on_c, 7, 40, 40
9, 67560, Note_on_c, 7, 52, 40
9, 67620, Note_on_c, 7, 52, 0
9, 67620, Note_on_c, 7, 40, 0
9, 67620, Note_on_c, 7, 56, 36
9, 67620, Note_on_c, 7, 68, 37
9, 67680, Note_on_c, 7, 68, 0
9, 67680, Note_on_c, 7, 56, 0
9, 67680, Note_on_c, 7, 52, 45
9, 67680, Note_on_c, 7, 40, 45
9, 67740, Note_on_c, 7, 40, 0
9, 67740, Note_on_c, 7, 52, 0
9, 67740, Note_on_c, 7, 56, 39
9, 67740, Note_on_c, 7, 68, 40
9, 67800, Note_on_c, 7, 68, 0
9, 67800, Note_on_c, 7, 56, 0
9, 67800, Note_on_c, 7, 52, 50
9, 67800, Note_on_c, 7, 40, 40
9, 67860, Note_on_c, 7, 40, 0
9, 67860, Note_on_c, 7, 52, 0
9, 67860, Note_on_c, 7, 56, 38
9, 67860, Note_on_c, 7, 68, 39
9, 67920, Note_on_c, 7, 68, 0
9, 67920, Note_on_c, 7, 56, 0
9, 67920, Control_c, 7, 64, 0
9, 67920, Note_on_c, 7, 52, 42
9, 67920, Note_on_c, 7, 40, 38
9, 67980, Note_on_c, 7, 40, 0
9, 67980, Note_on_c, 7, 52, 0
9, 67980, Note_on_c, 7, 56, 37
9, 67980, Note_on_c, 7, 68, 33
9, 68040, Note_on_c, 7, 68, 0
9, 68040, Note_on_c, 7, 56, 0
9, 68040, Note_on_c, 7, 52, 32
9, 68070, Note_on_c, 7, 52, 0
9, 68070, Note_on_c, 7, 56, 43
9, 68100, Note_on_c, 7, 56, 0
9, 68100, Note_on_c, 7, 59, 35
9, 68100, Note_on_c, 7, 83, 43
9, 68130, Note_on_c, 7, 59, 0
9, 68130, Note_on_c, 7, 64, 37
9, 68160, Note_on_c, 7, 64, 0
9, 68160, Note_on_c, 7, 83, 0
9, 68160, Note_on_c, 7, 52, 42
9, 68160, Note_on_c, 7, 85, 47
9, 68190, Note_on_c, 7, 52, 0
9, 68190, Note_on_c, 7, 54, 40
9, 68220, Note_on_c, 7, 54, 0
9, 68220, Note_on_c, 7, 85, 0
9, 68220, Note_on_c, 7, 57, 50
9, 68220, Note_on_c, 7, 75, 52
9, 68250, Note_on_c, 7, 57, 0
9, 68250, Note_on_c, 7, 63, 44
9, 68280, Note_on_c, 7, 63, 0
9, 68280, Note_on_c, 7, 75, 0
9, 68280, Note_on_c, 7, 52, 54
9, 68280, Note_on_c, 7, 75, 42
9, 68310, Note_on_c, 7, 75, 0
9, 68310, Note_on_c, 7, 52, 0
9, 68310, Note_on_c, 7, 54, 43
9, 68340, Note_on_c, 7, 54, 0
9, 68340, Note_on_c, 7, 57, 35
9, 68340, Note_on_c, 7, 75, 46
9, 68370, Note_on_c, 7, 75, 0
9, 68370, Note_on_c, 7, 57, 0
9, 68370, Note_on_c, 7, 63, 45
9, 68400, Note_on_c, 7, 63, 0
9, 68400, Note_on_c, 7, 52, 43
9, 68400, Note_on_c, 7, 76, 44
9, 68430, Note_on_c, 7, 52, 0
9, 68430, Note_on_c, 7, 56, 42
9, 68460, Note_on_c, 7, 56, 0
9, 68460, Note_on_c, 7, 59, 58
9, 68490, Note_on_c, 7, 59, 0
9, 68490, Note_on_c, 7, 64, 49
9, 68520, Note_on_c, 7, 64, 0
9, 68520, Note_on_c, 7, 76, 0
9, 68520, Note_on_c, 7, 52, 42
9, 68520, Note_on_c, 7, 78, 41
9, 68550, Note_on_c, 7, 78, 0
9, 68550, Note_on_c, 7, 52, 0
9, 68550, Note_on_c, 7, 56, 40
9, 68550, Note_on_c, 7, 76, 43
9, 68580, Note_on_c, 7, 76, 0
9, 68580, Note_on_c, 7, 56, 0
9, 68580, Note_on_c, 7, 59, 42
9, 68580, Note_on_c, 7, 75, 58
9, 68610, Note_on_c, 7, 75, 0
9, 68610, Note_on_c, 7, 59, 0
9, 68610, Note_on_c, 7, 64, 40
9, 68610, Note_on_c, 7, 76, 45
9, 68640, Note_on_c, 7, 76, 0
9, 68640, Note_on_c, 7, 64, 0
9, 68640, Note_on_c, 7, 52, 44
9, 68640, Note_on_c, 7, 78, 43
9, 68670, Note_on_c, 7, 78, 0
9, 68670, Note_on_c, 7, 52, 0
9, 68670, Note_on_c, 7, 57, 39
9, 68700, Note_on_c, 7, 57, 0
9, 68700, Note_on_c, 7, 59, 44
9, 68700, Note_on_c, 7, 78, 41
9, 68730, Note_on_c, 7, 78, 0
9, 68730, Note_on_c, 7, 59, 0
9, 68730, Note_on_c, 7, 63, 53
9, 68760, Note_on_c, 7, 63, 0
9, 68760, Note_on_c, 7, 52, 41
9, 68760, Note_on_c, 7, 80, 35
9, 68790, Note_on_c, 7, 80, 0
9, 68790, Note_on_c, 7, 52, 0
9, 68790, Note_on_c, 7, 57, 53
9, 68790, Note_on_c, 7, 78, 60
9, 68820, Note_on_c, 7, 78, 0
9, 68820, Note_on_c, 7, 57, 0
9, 68820, Note_on_c, 7, 59, 39
9, 68820, Note_on_c, 7, 76, 44
9, 68850, Note_on_c, 7, 76, 0
9, 68850, Note_on_c, 7, 59, 0
9, 68850, Note_on_c, 7, 63, 34
9, 68850, Note_on_c, 7, 78, 45
9, 68880, Note_on_c, 7, 78, 0
9, 68880, Note_on_c, 7, 63, 0
9, 68880, Note_on_c, 7, 52, 40
9, 68880, Note_on_c, 7, 80, 54
9, 68910, Note_on_c, 7, 52, 0
9, 68910, Note_on_c, 7, 56, 42
9, 68940, Note_on_c, 7, 56, 0
9, 68940, Note_on_c, 7, 59, 40
9, 68970, Note_on_c, 7, 59, 0
9, 68970, Note_on_c, 7, 64, 40
9, 69000, Note_on_c, 7, 64, 0
9, 69000, Note_on_c, 7, 80, 0
9, 69000, Note_on_c, 7, 52, 43
9, 69000, Note_on_c, 7, 76, 63
9, 69030, Note_on_c, 7, 76, 0
9, 69030, Note_on_c, 7, 52, 0
9, 69030, Note_on_c, 7, 56, 39
9, 69060, Note_on_c, 7, 56, 0
9, 69060, Note_on_c, 7, 59, 43
9, 69060, Note_on_c, 7, 83, 59
9, 69090, Note_on_c, 7, 59, 0
9, 69090, Note_on_c, 7, 64, 44
9, 69120, Note_on_c, 7, 64, 0
9, 69120, Note_on_c, 7, 83, 0
9, 69120, Note_on_c, 7, 52, 38
9, 69120, Note_on_c, 7, 87, 40
9, 69150, Note_on_c, 7, 87, 0
9, 69150, Note_on_c, 7, 52, 0
9, 69150, Note_on_c, 7, 54, 40
9, 69150, Note_on_c, 7, 85, 48
9, 69180, Note_on_c, 7, 85, 0
9, 69180, Note_on_c, 7, 54, 0
9, 69180, Note_on_c, 7, 57, 52
9, 69180, Note_on_c, 7, 83, 54
9, 69210, Note_on_c, 7, 83, 0
9, 69210, Note_on_c, 7, 57, 0
9, 69210, Note_on_c, 7, 63, 40
9, 69210, Note_on_c, 7, 81, 45
9, 69240, Note_on_c, 7, 81, 0
9, 69240, Note_on_c, 7, 63, 0
9, 69240, Note_on_c, 7, 52, 41
9, 69240, Note_on_c, 7, 80, 43
9, 69270, Note_on_c, 7, 80, 0
9, 69270, Note_on_c, 7, 52, 0
9, 69270, Note_on_c, 7, 54, 44
9, 69270, Note_on_c, 7, 78, 57
9, 69300, Note_on_c, 7, 78, 0
9, 69300, Note_on_c, 7, 54, 0
9, 69300, Note_on_c, 7, 57, 62
9, 69300, Note_on_c, 7, 76, 59
9, 69330, Note_on_c, 7, 76, 0
9, 69330, Note_on_c, 7, 57, 0
9, 69330, Note_on_c, 7, 63, 38
9, 69330, Note_on_c, 7, 75, 58
9, 69360, Note_on_c, 7, 75, 0
9, 69360, Note_on_c, 7, 63, 0
9, 69360, Note_on_c, 7, 52, 60
9, 69360, Note_on_c, 7, 76, 50
9, 69390, Note_on_c, 7, 76, 0
9, 69390, Note_on_c, 7, 52, 0
9, 69390, Note_on_c, 7, 56, 40
9, 69390, Note_on_c, 7, 78, 43
9, 69420, Note_on_c, 7, 78, 0
9, 69420, Note_on_c, 7, 56, 0
9, 69420, Note_on_c, 7, 59, 35
9, 69420, Note_on_c, 7, 80, 42
9, 69450, Note_on_c, 7, 80, 0
9, 69450, Note_on_c, 7, 59, 0
9, 69450, Note_on_c, 7, 64, 38
9, 69450, Note_on_c, 7, 81, 45
9, 69480, Note_on_c, 7, 81, 0
9, 69480, Note_on_c, 7, 64, 0
9, 69480, Note_on_c, 7, 52, 40
9, 69480, Note_on_c, 7, 83, 55
9, 69510, Note_on_c, 7, 83, 0
9, 69510, Note_on_c, 7, 52, 0
9, 69510, Note_on_c, 7, 56, 40
9, 69510, Note_on_c, 7, 80, 44
9, 69540, Note_on_c, 7, 80, 0
9, 69540, Note_on_c, 7, 56, 0
9, 69540, Note_on_c, 7, 59, 29
9, 69540, Note_on_c, 7, 78, 44
9, 69570, Note_on_c, 7, 78, 0
9, 69570, Note_on_c, 7, 59, 0
9, 69570, Note_on_c, 7, 64, 35
9, 69570, Note_on_c, 7, 76, 72
9, 69600, Note_on_c, 7, 76, 0
9, 69600, Note_on_c, 7, 64, 0
9, 69600, Note_on_c, 7, 52, 43
9, 69600, Note_on_c, 7, 75, 53
9, 69630, Note_on_c, 7, 75, 0
9, 69630, Note_on_c, 7, 52, 0
9, 69630, Note_on_c, 7, 54, 45
9, 69630, Note_on_c, 7, 76, 46
9, 69660, Note_on_c, 7, 76, 0
9, 69660, Note_on_c, 7, 54, 0
9, 69660, Note_on_c, 7, 57, 52
9, 69660, Note_on_c, 7, 78, 43
9, 69690, Note_on_c, 7, 78, 0
9, 69690, Note_on_c, 7, 57, 0
9, 69690, Note_on_c, 7, 63, 30
9, 69690, Note_on_c, 7, 80, 46
9, 69720, Note_on_c, 7, 80, 0
9, 69720, Note_on_c, 7, 63, 0
9, 69720, Note_on_c, 7, 52, 46
9, 69720, Note_on_c, 7, 81, 43
9, 69750, Note_on_c, 7, 81, 0
9, 69750, Note_on_c, 7, 52, 0
9, 69750, Note_on_c, 7, 54, 50
9, 69750, Note_on_c, 7, 78, 58
9, 69780, Note_on_c, 7, 78, 0
9, 69780, Note_on_c, 7, 54, 0
9, 69780, Note_on_c, 7, 57, 37
9, 69780, Note_on_c, 7, 76, 62
9, 69810, Note_on_c, 7, 76, 0
9, 69810, Note_on_c, 7, 57, 0
9, 69810, Note_on_c, 7, 63, 29
9, 69810, Note_on_c, 7, 75, 60
9, 69840, Note_on_c, 7, 75, 0
9, 69840, Note_on_c, 7, 63, 0
9, 69840, Note_on_c, 7, 52, 43
9, 69840, Note_on_c, 7, 76, 64
9, 69870, Note_on_c, 7, 76, 0
9, 69870, Note_on_c, 7, 52, 0
9, 69870, Note_on_c, 7, 56, 42
9, 69870, Note_on_c, 7, 78, 43
9, 69900, Note_on_c, 7, 78, 0
9, 69900, Note_on_c, 7, 56, 0
9, 69900, Note_on_c, 7, 59, 38
9, 69900, Note_on_c, 7, 80, 43
9, 69930, Note_on_c, 7, 80, 0
9, 69930, Note_on_c, 7, 59, 0
9, 69930, Note_on_c, 7, 64, 35
9, 69930, Note_on_c, 7, 81, 43
9, 69960, Note_on_c, 7, 81, 0
9, 69960, Note_on_c, 7, 64, 0
9, 69960, Note_on_c, 7, 52, 38
9, 69960, Note_on_c, 7, 83, 53
9, 69990, Note_on_c, 7, 83, 0
9, 69990, Note_on_c, 7, 52, 0
9, 69990, Note_on_c, 7, 56, 38
9, 69990, Note_on_c, 7, 80, 43
9, 70020, Note_on_c, 7, 80, 0
9, 70020, Note_on_c, 7, 56, 0
9, 70020, Note_on_c, 7, 59, 31
9, 70020, Note_on_c, 7, 78, 45
9, 70050, Note_on_c, 7, 78, 0
9, 70050, Note_on_c, 7, 59, 0
9, 70050, Note_on_c, 7, 64, 43
9, 70050, Note_on_c, 7, 76, 58
9, 70080, Note_on_c, 7, 76, 0
9, 70080, Note_on_c, 7, 64, 0
9, 70080, Note_on_c, 7, 52, 41
9, 70080, Note_on_c, 7, 75, 60
9, 70110, Note_on_c, 7, 75, 0
9, 70110, Note_on_c, 7, 52, 0
9, 70110, Note_on_c, 7, 54, 43
9, 70110, Note_on_c, 7, 76, 54
9, 70140, Note_on_c, 7, 76, 0
9, 70140, Note_on_c, 7, 54, 0
9, 70140, Note_on_c, 7, 57, 37
9, 70140, Note_on_c, 7, 78, 62
9, 70170, Note_on_c, 7, 78, 0
9, 70170, Note_on_c, 7, 57, 0
9, 70170, Note_on_c, 7, 63, 35
9, 70170, Note_on_c, 7, 80, 53
9, 70200, Note_on_c, 7, 80, 0
9, 70200, Note_on_c, 7, 63, 0
9, 70200, Note_on_c, 7, 52, 42
9, 70200, Note_on_c, 7, 81, 43
9, 70230, Note_on_c, 7, 81, 0
9, 70230, Note_on_c, 7, 52, 0
9, 70230, Note_on_c, 7, 54, 39
9, 70230, Note_on_c, 7, 78, 61
9, 70260, Note_on_c, 7, 78, 0
9, 70260, Note_on_c, 7, 54, 0
9, 70260, Note_on_c, 7, 57, 39
9, 70260, Note_on_c, 7, 76, 50
9, 70290, Note_on_c, 7, 76, 0
9, 70290, Note_on_c, 7, 57, 0
9, 70290, Note_on_c, 7, 63, 40
9, 70290, Note_on_c, 7, 75, 50
9, 70320, Note_on_c, 7, 75, 0
9, 70320, Note_on_c, 7, 63, 0
9, 70320, Note_on_c, 7, 52, 52
9, 70320, Note_on_c, 7, 56, 32
9, 70320, Note_on_c, 7, 59, 40
9, 70320, Note_on_c, 7, 64, 40
9, 70320, Note_on_c, 7, 76, 52
9, 70380, Note_on_c, 7, 76, 0
9, 70380, Note_on_c, 7, 59, 0
9, 70380, Note_on_c, 7, 52, 0
9, 70380, Note_on_c, 7, 56, 0
9, 70380, Note_on_c, 7, 64, 0
9, 72240, Control_c, 7, 64, 90
9, 72240, Note_on_c, 7, 35, 43
9, 72255, Note_on_c, 7, 35, 0
9, 72255, Note_on_c, 7, 38, 52
9, 72270, Note_on_c, 7, 38, 0
9, 72270, Note_on_c, 7, 41, 43
9, 72285, Note_on_c, 7, 41, 0
9, 72285, Note_on_c, 7, 44, 44
9, 72300, Note_on_c, 7, 44, 0
9, 72300, Note_on_c, 7, 47, 36
9, 72320, Note_on_c, 7, 47, 0
9, 72320, Note_on_c, 7, 50, 36
9, 72340, Note_on_c, 7, 50, 0
9, 72340, Note_on_c, 7, 53, 43
9, 72360, Note_on_c, 7, 53, 0
9, 72360, Note_on_c, 7, 56, 38
9, 72380, Note_on_c, 7, 56, 0
9, 72380, Note_on_c, 7, 59, 54
9, 72400, Note_on_c, 7, 59, 0
9, 72400, Note_on_c, 7, 62, 53
9, 72420, Note_on_c, 7, 62, 0
9, 72420, Note_on_c, 7, 65, 57
9, 72440, Note_on_c, 7, 65, 0
9, 72440, Note_on_c, 7, 68, 40
9, 72460, Note_on_c, 7, 68, 0
9, 72460, Note_on_c, 7, 71, 69
9, 72480, Note_on_c, 7, 71, 0
9, 72480, Note_on_c, 7, 74, 43
9, 72492, Note_on_c, 7, 74, 0
9, 72492, Note_on_c, 7, 77, 57
9, 72504, Note_on_c, 7, 77, 0
9, 72504, Note_on_c, 7, 80, 46
9, 72516, Note_on_c, 7, 80, 0
9, 72516, Note_on_c, 7, 83, 47
9, 72528, Note_on_c, 7, 83, 0
9, 72528, Note_on_c, 7, 86, 50
9, 72540, Note_on_c, 7, 86, 0
9, 72540, Note_on_c, 7, 89, 69
9, 72600, Note_on_c, 7, 89, 0
9, 72700, Control_c, 7, 64, 0
9, 73200, Control_c, 7, 64, 89
9, 73200, Note_on_c, 7, 31, 43
9, 73220, Note_on_c, 7, 31, 0
9, 73220, Note_on_c, 7, 35, 46
9, 73240, Note_on_c, 7, 35, 0
9, 73240, Note_on_c, 7, 38, 39
9, 73260, Note_on_c, 7, 38, 0
9, 73260, Note_on_c, 7, 43, 53
9, 73280, Note_on_c, 7, 43, 0
9, 73280, Note_on_c, 7, 47, 43
9, 73300, Note_on_c, 7, 47, 0
9, 73300, Note_on_c, 7, 50, 45
9, 73320, Note_on_c, 7, 50, 0
9, 73320, Note_on_c, 7, 55, 62
9, 73340, Note_on_c, 7, 55, 0
9, 73340, Note_on_c, 7, 59, 59
9, 73360, Note_on_c, 7, 59, 0
9, 73360, Note_on_c, 7, 62, 68
9, 73380, Note_on_c, 7, 62, 0
9, 73380, Note_on_c, 7, 67, 65
9, 73400, Note_on_c, 7, 67, 0
9, 73400, Note_on_c, 7, 71, 52
9, 73420, Note_on_c, 7, 71, 0
9, 73420, Note_on_c, 7, 74, 68
9, 73440, Note_on_c, 7, 74, 0
9, 73440, Note_on_c, 7, 77, 62
9, 73500, Note_on_c, 7, 77, 0
9, 73670, Control_c, 7, 7, 76
9, 73680, Note_on_c, 7, 31, 89
9, 73695, Note_on_c, 7, 31, 0
9, 73695, Note_on_c, 7, 35, 94
9, 73710, Note_on_c, 7, 35, 0
9, 73710, Note_on_c, 7, 38, 99
9, 73725, Note_on_c, 7, 38, 0
9, 73725, Note_on_c, 7, 41, 82
9, 73740, Note_on_c, 7, 41, 0
9, 73740, Note_on_c, 7, 43, 84
9, 73755, Note_on_c, 7, 43, 0
9, 73755, Note_on_c, 7, 47, 89
9, 73770, Note_on_c, 7, 47, 0
9, 73770, Note_on_c, 7, 50, 94
9, 73785, Note_on_c, 7, 50, 0
9, 73785, Note_on_c, 7, 53, 80
9, 73800, Note_on_c, 7, 53, 0
9, 73800, Note_on_c, 7, 43, 68
9, 73815, Note_on_c, 7, 43, 0
9, 73815, Note_on_c, 7, 47, 94
9, 73830, Note_on_c, 7, 47, 0
9, 73830, Note_on_c, 7, 50, 90
9, 73845, Note_on_c, 7, 50, 0
9, 73845, Note_on_c, 7, 53, 85
9, 73860, Note_on_c, 7, 53, 0
9, 73860, Note_on_c, 7, 55, 78
9, 73875, Note_on_c, 7, 55, 0
9, 73875, Note_on_c, 7, 59, 86
9, 73890, Note_on_c, 7, 59, 0
9, 73890, Note_on_c, 7, 62, 95
9, 73905, Note_on_c, 7, 62, 0
9, 73905, Note_on_c, 7, 65, 90
9, 73920, Note_on_c, 7, 65, 0
9, 73920, Note_on_c, 7, 55, 81
9, 73935, Note_on_c, 7, 55, 0
9, 73935, Note_on_c, 7, 59, 94
9, 73950, Note_on_c, 7, 59, 0
9, 73950, Note_on_c, 7, 62, 89
9, 73965, Note_on_c, 7, 62, 0
9, 73965, Note_on_c, 7, 65, 90
9, 73980, Note_on_c, 7, 65, 0
9, 73980, Note_on_c, 7, 67, 89
9, 73990, Note_on_c, 7, 67, 0
9, 73990, Note_on_c, 7, 71, 81
9, 74000, Note_on_c, 7, 71, 0
9, 74000, Note_on_c, 7, 74, 94
9, 74010, Note_on_c, 7, 74, 0
9, 74010, Note_on_c, 7, 79, 94
9, 74020, Note_on_c, 7, 79, 0
9, 74020, Note_on_c, 7, 83, 95
9, 74030, Note_on_c, 7, 83, 0
9, 74030, Note_on_c, 7, 86, 95
9, 74040, Note_on_c, 7, 86, 0
9, 74040, Control_c, 7, 64, 0
9, 74040, Note_on_c, 7, 89, 89
9, 74055, Note_on_c, 7, 89, 0
9, 74055, Note_on_c, 7, 88, 84
9, 74070, Note_on_c, 7, 88, 0
9, 74070, Note_on_c, 7, 89, 89
9, 74085, Note_on_c, 7, 89, 0
9, 74085, Note_on_c, 7, 88, 81
9, 74100, Note_on_c, 7, 88, 0
9, 74100, Note_on_c, 7, 89, 89
9, 74115, Note_on_c, 7, 89, 0
9, 74115, Note_on_c, 7, 88, 84
9, 74130, Note_on_c, 7, 88, 0
9, 74130, Note_on_c, 7, 89, 86
9, 74145, Note_on_c, 7, 89, 0
9, 74145, Note_on_c, 7, 88, 84
9, 74150, Control_c, 7, 7, 73
9, 74160, Note_on_c, 7, 88, 0
9, 74160, Note_on_c, 7, 89, 98
9, 74160, Note_on_c, 7, 68, 84
9, 74180, Note_on_c, 7, 68, 0
9, 74180, Note_on_c, 7, 89, 0
9, 74180, Note_on_c, 7, 83, 86
9, 74180, Note_on_c, 7, 71, 89
9, 74200, Note_on_c, 7, 71, 0
9, 74200, Note_on_c, 7, 83, 0
9, 74200, Note_on_c, 7, 80, 67
9, 74200, Note_on_c, 7, 77, 84
9, 74220, Note_on_c, 7, 77, 0
9, 74220, Note_on_c, 7, 80, 0
9, 74220, Note_on_c, 7, 87, 80
9, 74220, Note_on_c, 7, 67, 90
9, 74230, Control_c, 7, 7, 74
9, 74240, Note_on_c, 7, 67, 0
9, 74240, Note_on_c, 7, 87, 0
9, 74240, Note_on_c, 7, 82, 94
9, 74240, Note_on_c, 7, 70, 94
9, 74260, Note_on_c, 7, 70, 0
9, 74260, Note_on_c, 7, 82, 0
9, 74260, Note_on_c, 7, 79, 80
9, 74260, Note_on_c, 7, 75, 84
9, 74280, Note_on_c, 7, 75, 0
9, 74280, Note_on_c, 7, 79, 0
9, 74280, Note_on_c, 7, 86, 89
9, 74280, Note_on_c, 7, 65, 82
9, 74300, Note_on_c, 7, 65, 0
9, 74300, Note_on_c, 7, 86, 0
9, 74300, Control_c, 7, 7, 75
9, 74300, Note_on_c, 7, 80, 86
9, 74300, Note_on_c, 7, 68, 89
9, 74320, Note_on_c, 7, 68, 0
9, 74320, Note_on_c, 7, 80, 0
9, 74320, Note_on_c, 7, 77, 73
9, 74320, Note_on_c, 7, 74, 90
9, 74340, Note_on_c, 7, 74, 0
9, 74340, Note_on_c, 7, 77, 0
9, 74340, Note_on_c, 7, 84, 78
9, 74340, Note_on_c, 7, 63, 89
9, 74360, Note_on_c, 7, 63, 0
9, 74360, Note_on_c, 7, 84, 0
9, 74360, Note_on_c, 7, 79, 86
9, 74360, Note_on_c, 7, 67, 89
9, 74370, Control_c, 7, 7, 76
9, 74380, Note_on_c, 7, 67, 0
9, 74380, Note_on_c, 7, 79, 0
9, 74380, Note_on_c, 7, 75, 81
9, 74380, Note_on_c, 7, 72, 84
9, 74400, Note_on_c, 7, 72, 0
9, 74400, Note_on_c, 7, 75, 0
9, 74400, Note_on_c, 7, 83, 89
9, 74400, Note_on_c, 7, 62, 84
9, 74420, Note_on_c, 7, 62, 0
9, 74420, Note_on_c, 7, 83, 0
9, 74420, Note_on_c, 7, 77, 84
9, 74420, Note_on_c, 7, 65, 86
9, 74440, Note_on_c, 7, 65, 0
9, 74440, Note_on_c, 7, 77, 0
9, 74440, Control_c, 7, 7, 77
9, 74440, Note_on_c, 7, 74, 81
9, 74440, Note_on_c, 7, 71, 84
9, 74460, Note_on_c, 7, 71, 0
9, 74460, Note_on_c, 7, 74, 0
9, 74460, Note_on_c, 7, 80, 89
9, 74460, Note_on_c, 7, 60, 89
9, 74480, Note_on_c, 7, 60, 0
9, 74480, Note_on_c, 7, 80, 0
9, 74480, Note_on_c, 7, 75, 93
9, 74480, Note_on_c, 7, 63, 89
9, 74500, Note_on_c, 7, 63, 0
9, 74500, Note_on_c, 7, 75, 0
9, 74500, Note_on_c, 7, 72, 86
9, 74500, Note_on_c, 7, 68, 84
9, 74510, Control_c, 7, 7, 78
9, 74520, Note_on_c, 7, 68, 0
9, 74520, Note_on_c, 7, 72, 0
9, 74520, Note_on_c, 7, 79, 95
9, 74520, Note_on_c, 7, 59, 82
9, 74540, Note_on_c, 7, 59, 0
9, 74540, Note_on_c, 7, 79, 0
9, 74540, Note_on_c, 7, 74, 98
9, 74540, Note_on_c, 7, 62, 86
9, 74560, Note_on_c, 7, 62, 0
9, 74560, Note_on_c, 7, 74, 0
9, 74560, Note_on_c, 7, 71, 77
9, 74560, Note_on_c, 7, 67, 84
9, 74580, Note_on_c, 7, 67, 0
9, 74580, Note_on_c, 7, 71, 0
9, 74580, Control_c, 7, 7, 79
9, 74580, Note_on_c, 7, 78, 93
9, 74580, Note_on_c, 7, 57, 90
9, 74600, Note_on_c, 7, 57, 0
9, 74600, Note_on_c, 7, 78, 0
9, 74600, Note_on_c, 7, 72, 94
9, 74600, Note_on_c, 7, 60, 81
9, 74620, Note_on_c, 7, 60, 0
9, 74620, Note_on_c, 7, 72, 0
9, 74620, Note_on_c, 7, 69, 81
9, 74620, Note_on_c, 7, 66, 73
9, 74640, Note_on_c, 7, 66, 0
9, 74640, Note_on_c, 7, 69, 0
9, 74640, Note_on_c, 7, 77, 94
9, 74640, Note_on_c, 7, 56, 89
9, 74660, Note_on_c, 7, 56, 0
9, 74660, Note_on_c, 7, 77, 0
9, 74660, Control_c, 7, 7, 80
9, 74660, Note_on_c, 7, 72, 89
9, 74660, Note_on_c, 7, 60, 93
9, 74680, Note_on_c, 7, 60, 0
9, 74680, Note_on_c, 7, 72, 0
9, 74680, Note_on_c, 7, 68, 82
9, 74680, Note_on_c, 7, 65, 89
9, 74700, Note_on_c, 7, 65, 0
9, 74700, Note_on_c, 7, 68, 0
9, 74700, Note_on_c, 7, 75, 99
9, 74700, Note_on_c, 7, 55, 82
9, 74720, Note_on_c, 7, 55, 0
9, 74720, Note_on_c, 7, 75, 0
9, 74720, Note_on_c, 7, 70, 95
9, 74720, Note_on_c, 7, 58, 89
9, 74730, Control_c, 7, 7, 81
9, 74740, Note_on_c, 7, 58, 0
9, 74740, Note_on_c, 7, 70, 0
9, 74740, Note_on_c, 7, 67, 90
9, 74740, Note_on_c, 7, 63, 78
9, 74760, Note_on_c, 7, 63, 0
9, 74760, Note_on_c, 7, 67, 0
9, 74760, Note_on_c, 7, 74, 99
9, 74760, Note_on_c, 7, 53, 89
9, 74780, Note_on_c, 7, 53, 0
9, 74780, Note_on_c, 7, 74, 0
9, 74780, Note_on_c, 7, 68, 95
9, 74780, Note_on_c, 7, 56, 84
9, 74800, Note_on_c, 7, 56, 0
9, 74800, Note_on_c, 7, 68, 0
9, 74800, Control_c, 7, 7, 82
9, 74800, Note_on_c, 7, 65, 89
9, 74800, Note_on_c, 7, 62, 82
9, 74820, Note_on_c, 7, 62, 0
9, 74820, Note_on_c, 7, 65, 0
9, 74820, Note_on_c, 7, 72, 78
9, 74820, Note_on_c, 7, 51, 89
9, 74840, Note_on_c, 7, 51, 0
9, 74840, Note_on_c, 7, 72, 0
9, 74840, Note_on_c, 7, 67, 90
9, 74840, Note_on_c, 7, 55, 90
9, 74860, Note_on_c, 7, 55, 0
9, 74860, Note_on_c, 7, 67, 0
9, 74860, Note_on_c, 7, 63, 76
9, 74860, Note_on_c, 7, 60, 78
9, 74870, Control_c, 7, 7, 83
9, 74880, Note_on_c, 7, 60, 0
9, 74880, Note_on_c, 7, 63, 0
9, 74880, Note_on_c, 7, 71, 95
9, 74880, Note_on_c, 7, 50, 76
9, 74880, Note_on_c, 7, 52, 73
9, 74900, Note_on_c, 7, 52, 0
9, 74900, Note_on_c, 7, 50, 0
9, 74900, Note_on_c, 7, 71, 0
9, 74900, Note_on_c, 7, 65, 94
9, 74900, Note_on_c, 7, 53, 84
9, 74920, Note_on_c, 7, 53, 0
9, 74920, Note_on_c, 7, 65, 0
9, 74920, Note_on_c, 7, 62, 86
9, 74920, Note_on_c, 7, 59, 93
9, 74940, Note_on_c, 7, 59, 0
9, 74940, Note_on_c, 7, 62, 0
9, 74940, Control_c, 7, 7, 84
9, 74940, Note_on_c, 7, 67, 90
9, 74940, Note_on_c, 7, 48, 94
9, 74960, Note_on_c, 7, 48, 0
9, 74960, Note_on_c, 7, 67, 0
9, 74960, Note_on_c, 7, 63, 86
9, 74960, Note_on_c, 7, 51, 94
9, 74980, Note_on_c, 7, 51, 0
9, 74980, Note_on_c, 7, 63, 0
9, 74980, Note_on_c, 7, 60, 80
9, 74980, Note_on_c, 7, 56, 84
9, 75000, Note_on_c, 7, 56, 0
9, 75000, Note_on_c, 7, 60, 0
9, 75000, Note_on_c, 7, 67, 90
9, 75000, Note_on_c, 7, 47, 98
9, 75010, Control_c, 7, 7, 85
9, 75020, Note_on_c, 7, 47, 0
9, 75020, Note_on_c, 7, 67, 0
9, 75020, Note_on_c, 7, 62, 84
9, 75020, Note_on_c, 7, 50, 94
9, 75040, Note_on_c, 7, 50, 0
9, 75040, Note_on_c, 7, 62, 0
9, 75040, Note_on_c, 7, 59, 80
9, 75040, Note_on_c, 7, 55, 81
9, 75060, Note_on_c, 7, 55, 0
9, 75060, Note_on_c, 7, 59, 0
9, 75060, Note_on_c, 7, 66, 94
9, 75060, Note_on_c, 7, 45, 94
9, 75080, Note_on_c, 7, 45, 0
9, 75080, Note_on_c, 7, 66, 0
9, 75080, Control_c, 7, 7, 86
9, 75080, Note_on_c, 7, 60, 84
9, 75080, Note_on_c, 7, 48, 89
9, 75100, Note_on_c, 7, 48, 0
9, 75100, Note_on_c, 7, 60, 0
9, 75100, Note_on_c, 7, 57, 80
9, 75100, Note_on_c, 7, 54, 84
9, 75110, Control_c, 7, 7, 82
9, 75120, Note_on_c, 7, 54, 0
9, 75120, Note_on_c, 7, 57, 0
9, 75120, Note_on_c, 7, 65, 93
9, 75120, Note_on_c, 7, 44, 94
9, 75130, Control_c, 7, 7, 83
9, 75140, Note_on_c, 7, 44, 0
9, 75140, Note_on_c, 7, 65, 0
9, 75140, Note_on_c, 7, 60, 89
9, 75140, Note_on_c, 7, 48, 93
9, 75160, Note_on_c, 7, 48, 0
9, 75160, Note_on_c, 7, 60, 0
9, 75160, Note_on_c, 7, 56, 84
9, 75160, Note_on_c, 7, 53, 81
9, 75180, Note_on_c, 7, 53, 0
9, 75180, Note_on_c, 7, 56, 0
9, 75180, Note_on_c, 7, 65, 123
9, 75180, Note_on_c, 7, 44, 94
9, 75200, Note_on_c, 7, 44, 0
9, 75200, Note_on_c, 7, 65, 0
9, 75200, Note_on_c, 7, 60, 84
9, 75200, Note_on_c, 7, 48, 90
9, 75220, Note_on_c, 7, 48, 0
9, 75220, Note_on_c, 7, 60, 0
9, 75220, Note_on_c, 7, 56, 78
9, 75220, Note_on_c, 7, 53, 84
9, 75240, Note_on_c, 7, 53, 0
9, 75240, Note_on_c, 7, 56, 0
9, 75240, Note_on_c, 7, 65, 99
9, 75240, Note_on_c, 7, 43, 89
9, 75260, Note_on_c, 7, 43, 0
9, 75260, Note_on_c, 7, 65, 0
9, 75260, Note_on_c, 7, 59, 89
9, 75260, Note_on_c, 7, 47, 90
9, 75280, Note_on_c, 7, 47, 0
9, 75280, Note_on_c, 7, 59, 0
9, 75280, Note_on_c, 7, 55, 81
9, 75280, Note_on_c, 7, 53, 76
9, 75300, Note_on_c, 7, 53, 0
9, 75300, Note_on_c, 7, 55, 0
9, 75300, Note_on_c, 7, 65, 119
9, 75300, Note_on_c, 7, 44, 90
9, 75320, Note_on_c, 7, 44, 0
9, 75320, Note_on_c, 7, 65, 0
9, 75320, Note_on_c, 7, 60, 84
9, 75320, Note_on_c, 7, 48, 90
9, 75340, Note_on_c, 7, 48, 0
9, 75340, Note_on_c, 7, 60, 0
9, 75340, Note_on_c, 7, 56, 78
9, 75340, Note_on_c, 7, 53, 84
9, 75360, Note_on_c, 7, 53, 0
9, 75360, Note_on_c, 7, 56, 0
9, 75360, Note_on_c, 7, 65, 95
9, 75360, Note_on_c, 7, 43, 94
9, 75380, Note_on_c, 7, 43, 0
9, 75380, Note_on_c, 7, 65, 0
9, 75380, Note_on_c, 7, 59, 89
9, 75380, Note_on_c, 7, 47, 86
9, 75400, Note_on_c, 7, 47, 0
9, 75400, Note_on_c, 7, 59, 0
9, 75400, Note_on_c, 7, 55, 78
9, 75400, Note_on_c, 7, 53, 74
9, 75420, Note_on_c, 7, 53, 0
9, 75420, Note_on_c, 7, 55, 0
9, 75420, Note_on_c, 7, 65, 123
9, 75420, Note_on_c, 7, 44, 93
9, 75440, Note_on_c, 7, 44, 0
9, 75440, Note_on_c, 7, 65, 0
9, 75440, Note_on_c, 7, 60, 74
9, 75440, Note_on_c, 7, 48, 86
9, 75460, Note_on_c, 7, 48, 0
9, 75460, Note_on_c, 7, 60, 0
9, 75460, Note_on_c, 7, 56, 80
9, 75460, Note_on_c, 7, 53, 81
9, 75480, Note_on_c, 7, 53, 0
9, 75480, Note_on_c, 7, 56, 0
9, 75480, Note_on_c, 7, 65, 93
9, 75480, Note_on_c, 7, 43, 93
9, 75500, Note_on_c, 7, 43, 0
9, 75500, Note_on_c, 7, 65, 0
9, 75500, Note_on_c, 7, 59, 89
9, 75500, Note_on_c, 7, 47, 90
9, 75520, Note_on_c, 7, 47, 0
9, 75520, Note_on_c, 7, 59, 0
9, 75520, Note_on_c, 7, 55, 82
9, 75520, Note_on_c, 7, 53, 76
9, 75540, Note_on_c, 7, 53, 0
9, 75540, Note_on_c, 7, 55, 0
9, 75540, Note_on_c, 7, 65, 119
9, 75540, Note_on_c, 7, 44, 94
9, 75560, Note_on_c, 7, 44, 0
9, 75560, Note_on_c, 7, 65, 0
9, 75560, Note_on_c, 7, 60, 76
9, 75560, Note_on_c, 7, 48, 99
9, 75580, Note_on_c, 7, 48, 0
9, 75580, Note_on_c, 7, 60, 0
9, 75580, Note_on_c, 7, 56, 82
9, 75580, Note_on_c, 7, 53, 84
9, 75600, Note_on_c, 7, 53, 0
9, 75600, Note_on_c, 7, 56, 0
9, 75600, Control_c, 7, 7, 82
9, 75600, Note_on_c, 7, 43, 72
9, 75600, Note_on_c, 7, 53, 44
9, 75600, Note_on_c, 7, 50, 76
9, 75600, Note_on_c, 7, 47, 67
9, 75600, Note_on_c, 7, 65, 89
9, 75615, Note_on_c, 7, 65, 0
9, 75615, Note_on_c, 7, 55, 77
9, 75620, Control_c, 7, 7, 82
9, 75630, Note_on_c, 7, 55, 0
9, 75630, Note_on_c, 7, 56, 86
9, 75640, Control_c, 7, 7, 83
9, 75645, Note_on_c, 7, 56, 0
9, 75645, Note_on_c, 7, 57, 93
9, 75660, Note_on_c, 7, 57, 0
9, 75660, Note_on_c, 7, 47, 0
9, 75660, Note_on_c, 7, 43, 0
9, 75660, Note_on_c, 7, 53, 0
9, 75660, Note_on_c, 7, 50, 0
9, 75660, Control_c, 7, 7, 84
9, 75660, Note_on_c, 7, 58, 84
9, 75675, Note_on_c, 7, 58, 0
9, 75675, Note_on_c, 7, 59, 86
9, 75680, Control_c, 7, 7, 85
9, 75690, Note_on_c, 7, 59, 0
9, 75690, Note_on_c, 7, 60, 86
9, 75700, Control_c, 7, 7, 86
9, 75705, Note_on_c, 7, 60, 0
9, 75705, Note_on_c, 7, 61, 86
9, 75720, Note_on_c, 7, 61, 0
9, 75720, Control_c, 7, 7, 87
9, 75720, Note_on_c, 7, 62, 80
9, 75740, Note_on_c, 7, 62, 0
9, 75740, Note_on_c, 7, 63, 85
9, 75750, Control_c, 7, 7, 88
9, 75760, Note_on_c, 7, 63, 0
9, 75760, Note_on_c, 7, 64, 85
9, 75770, Control_c, 7, 7, 89
9, 75780, Note_on_c, 7, 64, 0
9, 75780, Note_on_c, 7, 65, 94
9, 75790, Control_c, 7, 7, 90
9, 75800, Note_on_c, 7, 65, 0
9, 75800, Note_on_c, 7, 66, 81
9, 75810, Control_c, 7, 7, 91
9, 75820, Note_on_c, 7, 66, 0
9, 75820, Note_on_c, 7, 67, 84
9, 75830, Control_c, 7, 7, 92
9, 75840, Note_on_c, 7, 67, 0
9, 75840, Note_on_c, 7, 68, 80
9, 75850, Control_c, 7, 7, 93
9, 75860, Note_on_c, 7, 68, 0
9, 75860, Note_on_c, 7, 69, 84
9, 75870, Control_c, 7, 7, 97
9, 75880, Note_on_c, 7, 69, 0
9, 75880, Note_on_c, 7, 70, 90
9, 75900, Note_on_c, 7, 70, 0
9, 75900, Note_on_c, 7, 71, 89
9, 75920, Note_on_c, 7, 71, 0
9, 75920, Note_on_c, 7, 72, 90
9, 75940, Note_on_c, 7, 72, 0
9, 75940, Control_c, 7, 7, 98
9, 75940, Note_on_c, 7, 73, 82
9, 75960, Note_on_c, 7, 73, 0
9, 75960, Note_on_c, 7, 74, 89
9, 75980, Note_on_c, 7, 74, 0
9, 75980, Note_on_c, 7, 75, 90
9, 76000, Note_on_c, 7, 75, 0
9, 76000, Note_on_c, 7, 76, 94
9, 76010, Control_c, 7, 7, 99
9, 76020, Note_on_c, 7, 76, 0
9, 76020, Note_on_c, 7, 77, 89
9, 76040, Note_on_c, 7, 77, 0
9, 76040, Note_on_c, 7, 78, 76
9, 76060, Note_on_c, 7, 78, 0
9, 76060, Note_on_c, 7, 79, 89
9, 76080, Note_on_c, 7, 79, 0
9, 76080, Control_c, 7, 7, 100
9, 76080, Note_on_c, 7, 80, 80
9, 76080, Note_on_c, 7, 55, 76
9, 76110, Note_on_c, 7, 55, 0
9, 76110, Note_on_c, 7, 67, 76
9, 76140, Note_on_c, 7, 67, 0
9, 76140, Note_on_c, 7, 80, 0
9, 76140, Note_on_c, 7, 71, 89
9, 76140, Note_on_c, 7, 62, 86
9, 76170, Note_on_c, 7, 62, 0
9, 76170, Note_on_c, 7, 67, 77
9, 76200, Note_on_c, 7, 67, 0
9, 76200, Note_on_c, 7, 71, 0
9, 76200, Note_on_c, 7, 71, 89
9, 76200, Note_on_c, 7, 65, 84
9, 76230, Note_on_c, 7, 65, 0
9, 76230, Note_on_c, 7, 71, 0
9, 76230, Note_on_c, 7, 67, 76
9, 76260, Note_on_c, 7, 67, 0
9, 76260, Note_on_c, 7, 71, 89
9, 76260, Note_on_c, 7, 62, 93
9, 76290, Note_on_c, 7, 62, 0
9, 76290, Note_on_c, 7, 71, 0
9, 76290, Note_on_c, 7, 67, 76
9, 76320, Note_on_c, 7, 67, 0
9, 76320, Note_on_c, 7, 72, 99
9, 76320, Note_on_c, 7, 63, 86
9, 76350, Note_on_c, 7, 63, 0
9, 76350, Note_on_c, 7, 67, 76
9, 76380, Note_on_c, 7, 67, 0
9, 76380, Note_on_c, 7, 62, 81
9, 76410, Note_on_c, 7, 62, 0
9, 76410, Note_on_c, 7, 67, 74
9, 76440, Note_on_c, 7, 67, 0
9, 76440, Note_on_c, 7, 72, 0
9, 76440, Note_on_c, 7, 74, 82
9, 76440, Note_on_c, 7, 63, 86
9, 76470, Note_on_c, 7, 63, 0
9, 76470, Note_on_c, 7, 74, 0
9, 76470, Note_on_c, 7, 72, 93
9, 76470, Note_on_c, 7, 67, 74
9, 76500, Note_on_c, 7, 67, 0
9, 76500, Note_on_c, 7, 72, 0
9, 76500, Note_on_c, 7, 71, 93
9, 76500, Note_on_c, 7, 60, 84
9, 76530, Note_on_c, 7, 60, 0
9, 76530, Note_on_c, 7, 71, 0
9, 76530, Note_on_c, 7, 72, 98
9, 76530, Note_on_c, 7, 67, 76
9, 76560, Note_on_c, 7, 67, 0
9, 76560, Note_on_c, 7, 72, 0
9, 76560, Note_on_c, 7, 74, 93
9, 76560, Note_on_c, 7, 59, 84
9, 76590, Note_on_c, 7, 59, 0
9, 76590, Note_on_c, 7, 74, 0
9, 76590, Note_on_c, 7, 67, 95
9, 76620, Note_on_c, 7, 67, 0
9, 76620, Note_on_c, 7, 74, 125
9, 76620, Note_on_c, 7, 55, 84
9, 76650, Note_on_c, 7, 55, 0
9, 76650, Note_on_c, 7, 74, 0
9, 76650, Note_on_c, 7, 67, 71
9, 76680, Note_on_c, 7, 67, 0
9, 76680, Note_on_c, 7, 75, 89
9, 76680, Note_on_c, 7, 60, 89
9, 76710, Note_on_c, 7, 60, 0
9, 76710, Note_on_c, 7, 75, 0
9, 76710, Note_on_c, 7, 67, 105
9, 76740, Note_on_c, 7, 67, 0
9, 76740, Note_on_c, 7, 75, 127
9, 76740, Note_on_c, 7, 55, 84
9, 76770, Note_on_c, 7, 55, 0
9, 76770, Note_on_c, 7, 75, 0
9, 76770, Note_on_c, 7, 67, 74
9, 76800, Note_on_c, 7, 67, 0
9, 76800, Note_on_c, 7, 74, 94
9, 76800, Note_on_c, 7, 59, 94
9, 76830, Note_on_c, 7, 59, 0
9, 76830, Note_on_c, 7, 67, 74
9, 76860, Note_on_c, 7, 67, 0
9, 76860, Note_on_c, 7, 55, 81
9, 76890, Note_on_c, 7, 55, 0
9, 76890, Note_on_c, 7, 74, 0
9, 76890, Note_on_c, 7, 75, 99
9, 76890, Note_on_c, 7, 67, 73
9, 76920, Note_on_c, 7, 67, 0
9, 76920, Note_on_c, 7, 75, 0
9, 76920, Note_on_c, 7, 76, 98
9, 76920, Note_on_c, 7, 59, 84
9, 76950, Note_on_c, 7, 59, 0
9, 76950, Note_on_c, 7, 76, 0
9, 76950, Note_on_c, 7, 77, 89
9, 76950, Note_on_c, 7, 67, 76
9, 76980, Note_on_c, 7, 67, 0
9, 76980, Note_on_c, 7, 77, 0
9, 76980, Note_on_c, 7, 78, 86
9, 76980, Note_on_c, 7, 55, 82
9, 77010, Note_on_c, 7, 55, 0
9, 77010, Note_on_c, 7, 78, 0
9, 77010, Note_on_c, 7, 79, 95
9, 77010, Note_on_c, 7, 67, 68
9, 77040, Note_on_c, 7, 67, 0
9, 77040, Note_on_c, 7, 79, 0
9, 77040, Note_on_c, 7, 80, 84
9, 77040, Note_on_c, 7, 59, 85
9, 77070, Note_on_c, 7, 59, 0
9, 77070, Note_on_c, 7, 67, 71
9, 77100, Note_on_c, 7, 67, 0
9, 77100, Note_on_c, 7, 80, 0
9, 77100, Note_on_c, 7, 71, 94
9, 77100, Note_on_c, 7, 62, 84
9, 77130, Note_on_c, 7, 62, 0
9, 77130, Note_on_c, 7, 67, 73
9, 77160, Note_on_c, 7, 67, 0
9, 77160, Note_on_c, 7, 71, 0
9, 77160, Note_on_c, 7, 71, 93
9, 77160, Note_on_c, 7, 65, 53
9, 77190, Note_on_c, 7, 65, 0
9, 77190, Note_on_c, 7, 71, 0
9, 77190, Note_on_c, 7, 67, 81
9, 77220, Note_on_c, 7, 67, 0
9, 77220, Note_on_c, 7, 71, 95
9, 77220, Note_on_c, 7, 62, 89
9, 77250, Note_on_c, 7, 62, 0
9, 77250, Note_on_c, 7, 71, 0
9, 77250, Note_on_c, 7, 67, 73
9, 77280, Note_on_c, 7, 67, 0
9, 77280, Note_on_c, 7, 72, 101
9, 77280, Note_on_c, 7, 63, 77
9, 77310, Note_on_c, 7, 63, 0
9, 77310, Note_on_c, 7, 67, 71
9, 77340, Note_on_c, 7, 67, 0
9, 77340, Note_on_c, 7, 62, 84
9, 77370, Note_on_c, 7, 62, 0
9, 77370, Note_on_c, 7, 67, 73
9, 77400, Note_on_c, 7, 67, 0
9, 77400, Note_on_c, 7, 72, 0
9, 77400, Note_on_c, 7, 74, 94
9, 77400, Note_on_c, 7, 63, 80
9, 77430, Note_on_c, 7, 63, 0
9, 77430, Note_on_c, 7, 74, 0
9, 77430, Note_on_c, 7, 72, 81
9, 77430, Note_on_c, 7, 67, 72
9, 77460, Note_on_c, 7, 67, 0
9, 77460, Note_on_c, 7, 72, 0
9, 77460, Note_on_c, 7, 71, 99
9, 77460, Note_on_c, 7, 60, 81
9, 77490, Note_on_c, 7, 60, 0
9, 77490, Note_on_c, 7, 71, 0
9, 77490, Note_on_c, 7, 72, 84
9, 77490, Note_on_c, 7, 67, 80
9, 77520, Note_on_c, 7, 67, 0
9, 77520, Note_on_c, 7, 72, 0
9, 77520, Note_on_c, 7, 74, 95
9, 77520, Note_on_c, 7, 58, 78
9, 77550, Note_on_c, 7, 58, 0
9, 77550, Note_on_c, 7, 62, 85
9, 77580, Note_on_c, 7, 62, 0
9, 77580, Note_on_c, 7, 74, 0
9, 77580, Note_on_c, 7, 70, 95
9, 77580, Note_on_c, 7, 55, 86
9, 77610, Note_on_c, 7, 55, 0
9, 77610, Note_on_c, 7, 58, 84
9, 77640, Note_on_c, 7, 58, 0
9, 77640, Note_on_c, 7, 70, 0
9, 77640, Note_on_c, 7, 69, 93
9, 77640, Note_on_c, 7, 57, 104
9, 77670, Note_on_c, 7, 57, 0
9, 77670, Note_on_c, 7, 69, 0
9, 77670, Note_on_c, 7, 60, 89
9, 77700, Note_on_c, 7, 60, 0
9, 77700, Note_on_c, 7, 74, 99
9, 77700, Note_on_c, 7, 54, 89
9, 77730, Note_on_c, 7, 54, 0
9, 77730, Note_on_c, 7, 74, 0
9, 77730, Note_on_c, 7, 57, 104
9, 77760, Note_on_c, 7, 57, 0
9, 77760, Note_on_c, 7, 67, 94
9, 77760, Note_on_c, 7, 55, 84
9, 77790, Note_on_c, 7, 55, 0
9, 77790, Note_on_c, 7, 50, 99
9, 77820, Note_on_c, 7, 50, 0
9, 77820, Note_on_c, 7, 67, 0
9, 77820, Note_on_c, 7, 46, 93
9, 77850, Note_on_c, 7, 46, 0
9, 77850, Note_on_c, 7, 50, 99
9, 77880, Note_on_c, 7, 50, 0
9, 77880, Note_on_c, 7, 43, 95
9, 77940, Note_on_c, 7, 43, 0
9, 81540, Note_on_c, 7, 36, 94
9, 81540, Note_on_c, 7, 51, 90
9, 81560, Note_on_c, 7, 51, 0
9, 81560, Note_on_c, 7, 36, 0
9, 81560, Note_on_c, 7, 39, 90
9, 81560, Note_on_c, 7, 55, 94
9, 81580, Note_on_c, 7, 55, 0
9, 81580, Note_on_c, 7, 39, 0
9, 81580, Note_on_c, 7, 60, 95
9, 81580, Note_on_c, 7, 43, 95
9, 81600, Note_on_c, 7, 43, 0
9, 81600, Note_on_c, 7, 60, 0
9, 81600, Note_on_c, 7, 63, 117
9, 81600, Note_on_c, 7, 48, 115
9, 81630, Note_on_c, 7, 48, 0
9, 81630, Note_on_c, 7, 63, 0
9, 81660, Note_on_c, 7, 48, 89
9, 81660, Note_on_c, 7, 63, 85
9, 81680, Note_on_c, 7, 63, 0
9, 81680, Note_on_c, 7, 48, 0
9, 81680, Note_on_c, 7, 51, 95
9, 81680, Note_on_c, 7, 67, 101
9, 81700, Note_on_c, 7, 67, 0
9, 81700, Note_on_c, 7, 51, 0
9, 81700, Note_on_c, 7, 72, 90
9, 81700, Note_on_c, 7, 55, 94
9, 81720, Note_on_c, 7, 55, 0
9, 81720, Note_on_c, 7, 72, 0
9, 81720, Note_on_c, 7, 75, 119
9, 81720, Note_on_c, 7, 60, 117
9, 81750, Note_on_c, 7, 60, 0
9, 81750, Note_on_c, 7, 75, 0
9, 81780, Note_on_c, 7, 60, 94
9, 81780, Note_on_c, 7, 75, 89
9, 81800, Note_on_c, 7, 75, 0
9, 81800, Note_on_c, 7, 60, 0
9, 81800, Note_on_c, 7, 63, 93
9, 81800, Note_on_c, 7, 79, 98
9, 81820, Note_on_c, 7, 79, 0
9, 81820, Note_on_c, 7, 63, 0
9, 81820, Note_on_c, 7, 84, 104
9, 81820, Note_on_c, 7, 67, 94
9, 81840, Note_on_c, 7, 67, 0
9, 81840, Note_on_c, 7, 84, 0
9, 81840, Note_on_c, 7, 87, 119
9, 81840, Note_on_c, 7, 72, 94
9, 81870, Note_on_c, 7, 72, 0
9, 81870, Note_on_c, 7, 87, 0
9, 82500, Note_on_c, 7, 44, 80
9, 82500, Note_on_c, 7, 29, 84
9, 82520, Note_on_c, 7, 29, 0
9, 82520, Note_on_c, 7, 44, 0
9, 82520, Note_on_c, 7, 32, 89
9, 82520, Note_on_c, 7, 48, 95
9, 82540, Note_on_c, 7, 48, 0
9, 82540, Note_on_c, 7, 32, 0
9, 82540, Note_on_c, 7, 53, 104
9, 82540, Note_on_c, 7, 36, 90
9, 82560, Note_on_c, 7, 36, 0
9, 82560, Note_on_c, 7, 53, 0
9, 82560, Note_on_c, 7, 56, 123
9, 82560, Note_on_c, 7, 41, 115
9, 82590, Note_on_c, 7, 41, 0
9, 82590, Note_on_c, 7, 56, 0
9, 82620, Note_on_c, 7, 56, 80
9, 82620, Note_on_c, 7, 41, 82
9, 82640, Note_on_c, 7, 41, 0
9, 82640, Note_on_c, 7, 56, 0
9, 82640, Note_on_c, 7, 44, 95
9, 82640, Note_on_c, 7, 60, 90
9, 82640, Note_on_c, 7, 60, 90
9, 82660, Note_on_c, 7, 60, 0
9, 82660, Note_on_c, 7, 60, 0
9, 82660, Note_on_c, 7, 44, 0
9, 82660, Note_on_c, 7, 65, 104
9, 82660, Note_on_c, 7, 48, 90
9, 82680, Note_on_c, 7, 48, 0
9, 82680, Note_on_c, 7, 65, 0
9, 82680, Note_on_c, 7, 68, 117
9, 82680, Note_on_c, 7, 53, 117
9, 82710, Note_on_c, 7, 53, 0
9, 82710, Note_on_c, 7, 68, 0
9, 82740, Note_on_c, 7, 53, 95
9, 82740, Note_on_c, 7, 68, 89
9, 82760, Note_on_c, 7, 68, 0
9, 82760, Note_on_c, 7, 53, 0
9, 82760, Note_on_c, 7, 56, 95
9, 82760, Note_on_c, 7, 72, 101
9, 82780, Note_on_c, 7, 72, 0
9, 82780, Note_on_c, 7, 56, 0
9, 82780, Note_on_c, 7, 77, 107
9, 82780, Note_on_c, 7, 60, 80
9, 82800, Note_on_c, 7, 60, 0
9, 82800, Note_on_c, 7, 77, 0
9, 82800, Note_on_c, 7, 65, 115
9, 82800, Note_on_c, 7, 80, 119
9, 82830, Note_on_c, 7, 80, 0
9, 82830, Note_on_c, 7, 65, 0
9, 82980, Note_on_c, 7, 38, 93
9, 82980, Note_on_c, 7, 53, 84
9, 83000, Note_on_c, 7, 53, 0
9, 83000, Note_on_c, 7, 38, 0
9, 83000, Note_on_c, 7, 41, 90
9, 83000, Note_on_c, 7, 59, 99
9, 83020, Note_on_c, 7, 59, 0
9, 83020, Note_on_c, 7, 41, 0
9, 83020, Note_on_c, 7, 47, 93
9, 83020, Note_on_c, 7, 62, 93
9, 83040, Note_on_c, 7, 62, 0
9, 83040, Note_on_c, 7, 47, 0
9, 83040, Note_on_c, 7, 65, 119
9, 83040, Note_on_c, 7, 50, 119
9, 83070, Note_on_c, 7, 50, 0
9, 83070, Note_on_c, 7, 65, 0
9, 83100, Note_on_c, 7, 65, 93
9, 83100, Note_on_c, 7, 50, 99
9, 83120, Note_on_c, 7, 50, 0
9, 83120, Note_on_c, 7, 65, 0
9, 83120, Note_on_c, 7, 71, 99
9, 83120, Note_on_c, 7, 53, 99
9, 83140, Note_on_c, 7, 53, 0
9, 83140, Note_on_c, 7, 71, 0
9, 83140, Note_on_c, 7, 74, 105
9, 83140, Note_on_c, 7, 59, 94
9, 83160, Note_on_c, 7, 59, 0
9, 83160, Note_on_c, 7, 74, 0
9, 83160, Note_on_c, 7, 77, 112
9, 83160, Note_on_c, 7, 62, 112
9, 83190, Note_on_c, 7, 62, 0
9, 83190, Note_on_c, 7, 77, 0
9, 83220, Note_on_c, 7, 77, 89
9, 83220, Note_on_c, 7, 62, 98
9, 83240, Note_on_c, 7, 62, 0
9, 83240, Note_on_c, 7, 77, 0
9, 83240, Note_on_c, 7, 65, 94
9, 83240, Note_on_c, 7, 83, 94
9, 83260, Note_on_c, 7, 83, 0
9, 83260, Note_on_c, 7, 65, 0
9, 83260, Note_on_c, 7, 86, 104
9, 83260, Note_on_c, 7, 71, 99
9, 83280, Note_on_c, 7, 71, 0
9, 83280, Note_on_c, 7, 86, 0
9, 83280, Note_on_c, 7, 89, 107
9, 83280, Note_on_c, 7, 74, 107
9, 83310, Note_on_c, 7, 74, 0
9, 83310, Note_on_c, 7, 89, 0
9, 83340, Note_on_c, 7, 67, 89
9, 83360, Note_on_c, 7, 67, 0
9, 83360, Note_on_c, 7, 71, 104
9, 83380, Note_on_c, 7, 71, 0
9, 83380, Note_on_c, 7, 74, 95
9, 83400, Note_on_c, 7, 74, 0
9, 83400, Note_on_c, 7, 77, 95
9, 83430, Note_on_c, 7, 77, 0
9, 83460, Note_on_c, 7, 79, 95
9, 83480, Note_on_c, 7, 79, 0
9, 83480, Note_on_c, 7, 83, 98
9, 83500, Note_on_c, 7, 83, 0
9, 83500, Note_on_c, 7, 86, 105
9, 83520, Note_on_c, 7, 86, 0
9, 83520, Note_on_c, 7, 89, 104
9, 83550, Note_on_c, 7, 89, 0
9, 83580, Note_on_c, 7, 67, 94
9, 83600, Note_on_c, 7, 67, 0
9, 83600, Note_on_c, 7, 71, 99
9, 83620, Note_on_c, 7, 71, 0
9, 83620, Note_on_c, 7, 74, 104
9, 83640, Note_on_c, 7, 74, 0
9, 83640, Note_on_c, 7, 77, 95
9, 83670, Note_on_c, 7, 77, 0
9, 83700, Note_on_c, 7, 79, 98
9, 83720, Note_on_c, 7, 79, 0
9, 83720, Note_on_c, 7, 83, 99
9, 83740, Note_on_c, 7, 83, 0
9, 83740, Note_on_c, 7, 86, 101
9, 83760, Note_on_c, 7, 86, 0
9, 83760, Note_on_c, 7, 89, 105
9, 83790, Note_on_c, 7, 89, 0
9, 83820, Note_on_c, 7, 67, 95
9, 83820, Note_on_c, 7, 79, 81
9, 83840, Note_on_c, 7, 79, 0
9, 83840, Note_on_c, 7, 67, 0
9, 83840, Note_on_c, 7, 71, 93
9, 83840, Note_on_c, 7, 83, 95
9, 83860, Note_on_c, 7, 83, 0
9, 83860, Note_on_c, 7, 71, 0
9, 83860, Note_on_c, 7, 86, 98
9, 83860, Note_on_c, 7, 74, 99
9, 83880, Note_on_c, 7, 74, 0
9, 83880, Note_on_c, 7, 86, 0
9, 83880, Note_on_c, 7, 89, 99
9, 83880, Note_on_c, 7, 77, 89
9, 83940, Note_on_c, 7, 77, 0
9, 83940, Note_on_c, 7, 89, 0
9, 83940, Note_on_c, 7, 67, 89
9, 83940, Note_on_c, 7, 79, 84
9, 83960, Note_on_c, 7, 79, 0
9, 83960, Note_on_c, 7, 67, 0
9, 83960, Note_on_c, 7, 84, 90
9, 83960, Note_on_c, 7, 72, 89
9, 83980, Note_on_c, 7, 72, 0
9, 83980, Note_on_c, 7, 84, 0
9, 83980, Note_on_c, 7, 88, 99
9, 83980, Note_on_c, 7, 76, 94
9, 84000, Note_on_c, 7, 76, 0
9, 84000, Note_on_c, 7, 88, 0
9, 84000, Note_on_c, 7, 79, 95
9, 84000, Note_on_c, 7, 91, 99
9, 84060, Note_on_c, 7, 79, 0
9, 84120, Note_on_c, 7, 91, 0
9, 84120, Note_on_c, 7, 89, 94
9, 84135, Note_on_c, 7, 89, 0
9, 84135, Note_on_c, 7, 88, 95
9, 84165, Note_on_c, 7, 88, 0
9, 84180, Note_on_c, 7, 86, 99
9, 84195, Note_on_c, 7, 86, 0
9, 84195, Note_on_c, 7, 84, 89
9, 84225, Note_on_c, 7, 84, 0
9, 84240, Note_on_c, 7, 84, 94
9, 84255, Note_on_c, 7, 84, 0
9, 84255, Note_on_c, 7, 83, 99
9, 84285, Note_on_c, 7, 83, 0
9, 84300, Note_on_c, 7, 81, 99
9, 84315, Note_on_c, 7, 81, 0
9, 84315, Note_on_c, 7, 79, 90
9, 84345, Note_on_c, 7, 79, 0
9, 84360, Note_on_c, 7, 79, 95
9, 84375, Note_on_c, 7, 79, 0
9, 84375, Note_on_c, 7, 77, 89
9, 84405, Note_on_c, 7, 77, 0
9, 84420, Note_on_c, 7, 76, 99
9, 84435, Note_on_c, 7, 76, 0
9, 84435, Note_on_c, 7, 74, 105
9, 84465, Note_on_c, 7, 74, 0
9, 84480, Note_on_c, 7, 72, 89
9, 84510, Note_on_c, 7, 72, 0
9, 84540, Note_on_c, 7, 72, 86
9, 84570, Note_on_c, 7, 72, 0
9, 84600, Note_on_c, 7, 74, 98
9, 84600, Note_on_c, 7, 69, 112
9, 84630, Note_on_c, 7, 74, 0
9, 84630, Note_on_c, 7, 72, 99
9, 84660, Note_on_c, 7, 72, 0
9, 84660, Note_on_c, 7, 71, 93
9, 84690, Note_on_c, 7, 71, 0
9, 84690, Note_on_c, 7, 72, 95
9, 84720, Note_on_c, 7, 72, 0
9, 84720, Note_on_c, 7, 74, 119
9, 84780, Note_on_c, 7, 69, 0
9, 84780, Note_on_c, 7, 67, 84
9, 84810, Note_on_c, 7, 67, 0
9, 84810, Note_on_c, 7, 66, 89
9, 84840, Note_on_c, 7, 66, 0
9, 84840, Note_on_c, 7, 67, 94
9, 84870, Note_on_c, 7, 67, 0
9, 84870, Note_on_c, 7, 65, 90
9, 84900, Note_on_c, 7, 65, 0
9, 84900, Note_on_c, 7, 64, 95
9, 84930, Note_on_c, 7, 64, 0
9, 84930, Note_on_c, 7, 62, 99
9, 84960, Note_on_c, 7, 62, 0
9, 84960, Note_on_c, 7, 74, 0
9, 84960, Note_on_c, 7, 76, 99
9, 84960, Note_on_c, 7, 60, 94
9, 84990, Note_on_c, 7, 60, 0
9, 84990, Note_on_c, 7, 76, 0
9, 84990, Note_on_c, 7, 55, 90
9, 85020, Note_on_c, 7, 55, 0
9, 85020, Note_on_c, 7, 76, 95
9, 85020, Note_on_c, 7, 57, 101
9, 85050, Note_on_c, 7, 57, 0
9, 85050, Note_on_c, 7, 76, 0
9, 85050, Note_on_c, 7, 59, 94
9, 85080, Note_on_c, 7, 59, 0
9, 85080, Note_on_c, 7, 76, 99
9, 85080, Note_on_c, 7, 60, 90
9, 85100, Note_on_c, 7, 76, 0
9, 85100, Note_on_c, 7, 77, 89
9, 85110, Note_on_c, 7, 60, 0
9, 85110, Note_on_c, 7, 62, 89
9, 85120, Note_on_c, 7, 77, 0
9, 85120, Note_on_c, 7, 76, 99
9, 85140, Note_on_c, 7, 76, 0
9, 85140, Note_on_c, 7, 62, 0
9, 85140, Note_on_c, 7, 77, 98
9, 85140, Note_on_c, 7, 60, 93
9, 85155, Note_on_c, 7, 77, 0
9, 85155, Note_on_c, 7, 76, 98
9, 85170, Note_on_c, 7, 76, 0
9, 85170, Note_on_c, 7, 60, 0
9, 85170, Note_on_c, 7, 77, 93
9, 85170, Note_on_c, 7, 58, 89
9, 85185, Note_on_c, 7, 77, 0
9, 85185, Note_on_c, 7, 76, 99
9, 85200, Note_on_c, 7, 76, 0
9, 85200, Note_on_c, 7, 58, 0
9, 85200, Note_on_c, 7, 77, 123
9, 85200, Note_on_c, 7, 57, 105
9, 85230, Note_on_c, 7, 57, 0
9, 85230, Note_on_c, 7, 56, 93
9, 85260, Note_on_c, 7, 56, 0
9, 85260, Note_on_c, 7, 57, 104
9, 85290, Note_on_c, 7, 57, 0
9, 85290, Note_on_c, 7, 56, 89
9, 85320, Note_on_c, 7, 56, 0
9, 85320, Note_on_c, 7, 57, 104
9, 85350, Note_on_c, 7, 57, 0
9, 85350, Note_on_c, 7, 55, 93
9, 85380, Note_on_c, 7, 55, 0
9, 85380, Note_on_c, 7, 53, 94
9, 85410, Note_on_c, 7, 53, 0
9, 85410, Note_on_c, 7, 52, 99
9, 85440, Note_on_c, 7, 52, 0
9, 85440, Note_on_c, 7, 77, 0
9, 85440, Note_on_c, 7, 78, 93
9, 85440, Note_on_c, 7, 50, 101
9, 85470, Note_on_c, 7, 50, 0
9, 85470, Note_on_c, 7, 78, 0
9, 85470, Note_on_c, 7, 49, 89
9, 85500, Note_on_c, 7, 49, 0
9, 85500, Note_on_c, 7, 78, 95
9, 85500, Note_on_c, 7, 50, 101
9, 85530, Note_on_c, 7, 50, 0
9, 85530, Note_on_c, 7, 78, 0
9, 85530, Note_on_c, 7, 49, 89
9, 85560, Note_on_c, 7, 49, 0
9, 85560, Note_on_c, 7, 78, 86
9, 85560, Note_on_c, 7, 50, 104
9, 85580, Note_on_c, 7, 78, 0
9, 85580, Note_on_c, 7, 79, 99
9, 85590, Note_on_c, 7, 50, 0
9, 85590, Note_on_c, 7, 48, 95
9, 85600, Note_on_c, 7, 79, 0
9, 85600, Note_on_c, 7, 78, 89
9, 85620, Note_on_c, 7, 78, 0
9, 85620, Note_on_c, 7, 48, 0
9, 85620, Note_on_c, 7, 79, 99
9, 85620, Note_on_c, 7, 47, 94
9, 85635, Note_on_c, 7, 79, 0
9, 85635, Note_on_c, 7, 78, 84
9, 85650, Note_on_c, 7, 78, 0
9, 85650, Note_on_c, 7, 47, 0
9, 85650, Note_on_c, 7, 79, 99
9, 85650, Note_on_c, 7, 45, 105
9, 85665, Note_on_c, 7, 79, 0
9, 85665, Note_on_c, 7, 78, 86
9, 85680, Note_on_c, 7, 78, 0
9, 85680, Note_on_c, 7, 45, 0
9, 85680, Note_on_c, 7, 79, 99
9, 85680, Note_on_c, 7, 43, 93
9, 85740, Note_on_c, 7, 43, 0
9, 85740, Note_on_c, 7, 79, 0
9, 87660, Note_on_c, 7, 79, 80
9, 87680, Note_on_c, 7, 79, 0
9, 87680, Note_on_c, 7, 90, 73
9, 87700, Note_on_c, 7, 90, 0
9, 87700, Note_on_c, 7, 91, 86
9, 87720, Note_on_c, 7, 91, 0
9, 87720, Note_on_c, 7, 81, 86
9, 87740, Note_on_c, 7, 81, 0
9, 87740, Note_on_c, 7, 92, 82
9, 87760, Note_on_c, 7, 92, 0
9, 87760, Note_on_c, 7, 93, 95
9, 87780, Note_on_c, 7, 93, 0
9, 87780, Note_on_c, 7, 83, 86
9, 87780, Note_on_c, 7, 60, 68
9, 87800, Note_on_c, 7, 83, 0
9, 87800, Note_on_c, 7, 94, 81
9, 87820, Note_on_c, 7, 94, 0
9, 87820, Note_on_c, 7, 95, 89
9, 87840, Note_on_c, 7, 95, 0
9, 87840, Note_on_c, 7, 60, 0
9, 87840, Note_on_c, 7, 84, 85
9, 87840, Note_on_c, 7, 48, 94
9, 87860, Note_on_c, 7, 84, 0
9, 87860, Note_on_c, 7, 95, 84
9, 87880, Note_on_c, 7, 95, 0
9, 87880, Note_on_c, 7, 96, 94
9, 87900, Note_on_c, 7, 96, 0
9, 87900, Note_on_c, 7, 79, 93
9, 87920, Note_on_c, 7, 79, 0
9, 87920, Note_on_c, 7, 90, 74
9, 87940, Note_on_c, 7, 90, 0
9, 87940, Note_on_c, 7, 91, 90
9, 87960, Note_on_c, 7, 91, 0
9, 87960, Note_on_c, 7, 48, 0
9, 87960, Note_on_c, 7, 81, 90
9, 87980, Note_on_c, 7, 81, 0
9, 87980, Note_on_c, 7, 92, 72
9, 88000, Note_on_c, 7, 92, 0
9, 88000, Note_on_c, 7, 93, 89
9, 88020, Note_on_c, 7, 93, 0
9, 88020, Note_on_c, 7, 83, 85
9, 88020, Note_on_c, 7, 60, 77
9, 88040, Note_on_c, 7, 83, 0
9, 88040, Note_on_c, 7, 94, 78
9, 88060, Note_on_c, 7, 94, 0
9, 88060, Note_on_c, 7, 95, 80
9, 88080, Note_on_c, 7, 95, 0
9, 88080, Note_on_c, 7, 60, 0
9, 88080, Note_on_c, 7, 84, 89
9, 88080, Note_on_c, 7, 48, 82
9, 88100, Note_on_c, 7, 84, 0
9, 88100, Note_on_c, 7, 95, 80
9, 88120, Note_on_c, 7, 95, 0
9, 88120, Note_on_c, 7, 96, 86
9, 88140, Note_on_c, 7, 96, 0
9, 88140, Note_on_c, 7, 79, 85
9, 88160, Note_on_c, 7, 79, 0
9, 88160, Note_on_c, 7, 90, 69
9, 88180, Note_on_c, 7, 90, 0
9, 88180, Note_on_c, 7, 91, 90
9, 88200, Note_on_c, 7, 91, 0
9, 88200, Note_on_c, 7, 48, 0
9, 88200, Note_on_c, 7, 81, 86
9, 88220, Note_on_c, 7, 81, 0
9, 88220, Note_on_c, 7, 92, 74
9, 88240, Note_on_c, 7, 92, 0
9, 88240, Note_on_c, 7, 93, 93
9, 88260, Note_on_c, 7, 93, 0
9, 88260, Note_on_c, 7, 83, 90
9, 88260, Note_on_c, 7, 60, 69
9, 88280, Note_on_c, 7, 83, 0
9, 88280, Note_on_c, 7, 94, 86
9, 88300, Note_on_c, 7, 94, 0
9, 88300, Note_on_c, 7, 95, 89
9, 88320, Note_on_c, 7, 95, 0
9, 88320, Note_on_c, 7, 60, 0
9, 88320, Note_on_c, 7, 96, 101
9, 88320, Note_on_c, 7, 48, 84
9, 88340, Note_on_c, 7, 96, 0
9, 88340, Note_on_c, 7, 91, 94
9, 88360, Note_on_c, 7, 91, 0
9, 88360, Note_on_c, 7, 88, 81
9, 88380, Note_on_c, 7, 88, 0
9, 88380, Note_on_c, 7, 48, 0
9, 88380, Note_on_c, 7, 93, 90
9, 88380, Note_on_c, 7, 53, 93
9, 88400, Note_on_c, 7, 93, 0
9, 88400, Note_on_c, 7, 89, 94
9, 88420, Note_on_c, 7, 89, 0
9, 88420, Note_on_c, 7, 86, 84
9, 88440, Note_on_c, 7, 86, 0
9, 88440, Note_on_c, 7, 53, 0
9, 88440, Note_on_c, 7, 91, 93
9, 88440, Note_on_c, 7, 55, 84
9, 88460, Note_on_c, 7, 91, 0
9, 88460, Note_on_c, 7, 88, 94
9, 88480, Note_on_c, 7, 88, 0
9, 88480, Note_on_c, 7, 84, 76
9, 88500, Note_on_c, 7, 84, 0
9, 88500, Note_on_c, 7, 55, 0
9, 88500, Note_on_c, 7, 89, 95
9, 88500, Note_on_c, 7, 43, 89
9, 88520, Note_on_c, 7, 89, 0
9, 88520, Note_on_c, 7, 86, 93
9, 88540, Note_on_c, 7, 86, 0
9, 88540, Note_on_c, 7, 83, 86
9, 88560, Note_on_c, 7, 83, 0
9, 88560, Note_on_c, 7, 43, 0
9, 88560, Note_on_c, 7, 84, 74
9, 88560, Note_on_c, 7, 48, 86
9, 88620, Note_on_c, 7, 48, 0
9, 88620, Note_on_c, 7, 84, 0
9, 88620, Note_on_c, 7, 91, 62
9, 88620, Note_on_c, 7, 64, 89
9, 88640, Note_on_c, 7, 64, 0
9, 88640, Note_on_c, 7, 91, 0
9, 88640, Note_on_c, 7, 79, 81
9, 88640, Note_on_c, 7, 67, 89
9, 88660, Note_on_c, 7, 67, 0
9, 88660, Note_on_c, 7, 79, 0
9, 88660, Note_on_c, 7, 91, 84
9, 88660, Note_on_c, 7, 76, 94
9, 88680, Note_on_c, 7, 76, 0
9, 88680, Note_on_c, 7, 91, 0
9, 88680, Note_on_c, 7, 79, 80
9, 88680, Note_on_c, 7, 64, 94
9, 88700, Note_on_c, 7, 64, 0
9, 88700, Note_on_c, 7, 79, 0
9, 88700, Note_on_c, 7, 91, 84
9, 88700, Note_on_c, 7, 67, 86
9, 88720, Note_on_c, 7, 67, 0
9, 88720, Note_on_c, 7, 91, 0
9, 88720, Note_on_c, 7, 79, 76
9, 88720, Note_on_c, 7, 76, 86
9, 88740, Note_on_c, 7, 76, 0
9, 88740, Note_on_c, 7, 79, 0
9, 88740, Note_on_c, 7, 89, 89
9, 88740, Note_on_c, 7, 62, 86
9, 88760, Note_on_c, 7, 62, 0
9, 88760, Note_on_c, 7, 89, 0
9, 88760, Note_on_c, 7, 77, 71
9, 88760, Note_on_c, 7, 65, 89
9, 88780, Note_on_c, 7, 65, 0
9, 88780, Note_on_c, 7, 77, 0
9, 88780, Note_on_c, 7, 89, 90
9, 88780, Note_on_c, 7, 74, 89
9, 88800, Note_on_c, 7, 74, 0
9, 88800, Note_on_c, 7, 89, 0
9, 88800, Note_on_c, 7, 76, 89
9, 88800, Note_on_c, 7, 60, 93
9, 88820, Note_on_c, 7, 60, 0
9, 88820, Note_on_c, 7, 76, 0
9, 88820, Note_on_c, 7, 88, 89
9, 88820, Note_on_c, 7, 67, 89
9, 88840, Note_on_c, 7, 67, 0
9, 88840, Note_on_c, 7, 88, 0
9, 88840, Note_on_c, 7, 76, 85
9, 88840, Note_on_c, 7, 72, 101
9, 88860, Note_on_c, 7, 72, 0
9, 88860, Note_on_c, 7, 76, 0
9, 88860, Note_on_c, 7, 91, 94
9, 88860, Note_on_c, 7, 64, 94
9, 88880, Note_on_c, 7, 64, 0
9, 88880, Note_on_c, 7, 91, 0
9, 88880, Note_on_c, 7, 79, 77
9, 88880, Note_on_c, 7, 67, 89
9, 88900, Note_on_c, 7, 67, 0
9, 88900, Note_on_c, 7, 79, 0
9, 88900, Note_on_c, 7, 91, 90
9, 88900, Note_on_c, 7, 76, 94
9, 88920, Note_on_c, 7, 76, 0
9, 88920, Note_on_c, 7, 91, 0
9, 88920, Note_on_c, 7, 79, 73
9, 88920, Note_on_c, 7, 64, 90
9, 88940, Note_on_c, 7, 64, 0
9, 88940, Note_on_c, 7, 79, 0
9, 88940, Note_on_c, 7, 91, 84
9, 88940, Note_on_c, 7, 67, 84
9, 88960, Note_on_c, 7, 67, 0
9, 88960, Note_on_c, 7, 91, 0
9, 88960, Note_on_c, 7, 79, 71
9, 88960, Note_on_c, 7, 76, 89
9, 88980, Note_on_c, 7, 76, 0
9, 88980, Note_on_c, 7, 79, 0
9, 88980, Note_on_c, 7, 89, 94
9, 88980, Note_on_c, 7, 62, 89
9, 89000, Note_on_c, 7, 62, 0
9, 89000, Note_on_c, 7, 89, 0
9, 89000, Note_on_c, 7, 77, 76
9, 89000, Note_on_c, 7, 67, 94
9, 89020, Note_on_c, 7, 67, 0
9, 89020, Note_on_c, 7, 77, 0
9, 89020, Note_on_c, 7, 89, 94
9, 89020, Note_on_c, 7, 74, 84
9, 89040, Note_on_c, 7, 74, 0
9, 89040, Note_on_c, 7, 89, 0
9, 89040, Note_on_c, 7, 76, 85
9, 89040, Note_on_c, 7, 60, 85
9, 89060, Note_on_c, 7, 60, 0
9, 89060, Note_on_c, 7, 76, 0
9, 89060, Note_on_c, 7, 88, 89
9, 89060, Note_on_c, 7, 67, 89
9, 89080, Note_on_c, 7, 67, 0
9, 89080, Note_on_c, 7, 88, 0
9, 89080, Note_on_c, 7, 76, 90
9, 89080, Note_on_c, 7, 72, 95
9, 89100, Note_on_c, 7, 72, 0
9, 89100, Note_on_c, 7, 76, 0
9, 89100, Note_on_c, 7, 91, 94
9, 89100, Note_on_c, 7, 64, 93
9, 89120, Note_on_c, 7, 64, 0
9, 89120, Note_on_c, 7, 91, 0
9, 89120, Note_on_c, 7, 79, 78
9, 89120, Note_on_c, 7, 67, 89
9, 89140, Note_on_c, 7, 67, 0
9, 89140, Note_on_c, 7, 79, 0
9, 89140, Note_on_c, 7, 91, 90
9, 89140, Note_on_c, 7, 76, 89
9, 89160, Note_on_c, 7, 76, 0
9, 89160, Note_on_c, 7, 91, 0
9, 89160, Note_on_c, 7, 79, 76
9, 89160, Note_on_c, 7, 64, 94
9, 89180, Note_on_c, 7, 64, 0
9, 89180, Note_on_c, 7, 79, 0
9, 89180, Note_on_c, 7, 91, 89
9, 89180, Note_on_c, 7, 67, 81
9, 89200, Note_on_c, 7, 67, 0
9, 89200, Note_on_c, 7, 91, 0
9, 89200, Note_on_c, 7, 79, 78
9, 89200, Note_on_c, 7, 76, 84
9, 89220, Note_on_c, 7, 76, 0
9, 89220, Note_on_c, 7, 79, 0
9, 89220, Note_on_c, 7, 89, 94
9, 89220, Note_on_c, 7, 62, 85
9, 89240, Note_on_c, 7, 62, 0
9, 89240, Note_on_c, 7, 89, 0
9, 89240, Note_on_c, 7, 77, 73
9, 89240, Note_on_c, 7, 67, 90
9, 89260, Note_on_c, 7, 67, 0
9, 89260, Note_on_c, 7, 77, 0
9, 89260, Note_on_c, 7, 89, 94
9, 89260, Note_on_c, 7, 74, 84
9, 89280, Note_on_c, 7, 74, 0
9, 89280, Note_on_c, 7, 89, 0
9, 89280, Note_on_c, 7, 76, 89
9, 89280, Note_on_c, 7, 60, 81
9, 89300, Note_on_c, 7, 60, 0
9, 89300, Note_on_c, 7, 76, 0
9, 89300, Note_on_c, 7, 79, 86
9, 89300, Note_on_c, 7, 67, 84
9, 89320, Note_on_c, 7, 67, 0
9, 89320, Note_on_c, 7, 79, 0
9, 89320, Note_on_c, 7, 88, 94
9, 89320, Note_on_c, 7, 64, 99
9, 89340, Note_on_c, 7, 64, 0
9, 89340, Note_on_c, 7, 88, 0
9, 89340, Note_on_c, 7, 74, 76
9, 89340, Note_on_c, 7, 53, 84
9, 89360, Note_on_c, 7, 53, 0
9, 89360, Note_on_c, 7, 74, 0
9, 89360, Note_on_c, 7, 77, 89
9, 89360, Note_on_c, 7, 69, 84
9, 89380, Note_on_c, 7, 69, 0
9, 89380, Note_on_c, 7, 77, 0
9, 89380, Note_on_c, 7, 86, 98
9, 89380, Note_on_c, 7, 65, 95
9, 89400, Note_on_c, 7, 65, 0
9, 89400, Note_on_c, 7, 86, 0
9, 89400, Note_on_c, 7, 72, 93
9, 89400, Note_on_c, 7, 55, 89
9, 89420, Note_on_c, 7, 55, 0
9, 89420, Note_on_c, 7, 72, 0
9, 89420, Note_on_c, 7, 76, 94
9, 89420, Note_on_c, 7, 67, 81
9, 89440, Note_on_c, 7, 67, 0
9, 89440, Note_on_c, 7, 76, 0
9, 89440, Note_on_c, 7, 84, 94
9, 89440, Note_on_c, 7, 64, 99
9, 89460, Note_on_c, 7, 64, 0
9, 89460, Note_on_c, 7, 84, 0
9, 89460, Note_on_c, 7, 71, 86
9, 89460, Note_on_c, 7, 55, 89
9, 89480, Note_on_c, 7, 55, 0
9, 89480, Note_on_c, 7, 71, 0
9, 89480, Note_on_c, 7, 74, 95
9, 89480, Note_on_c, 7, 65, 86
9, 89500, Note_on_c, 7, 65, 0
9, 89500, Note_on_c, 7, 74, 0
9, 89500, Note_on_c, 7, 83, 99
9, 89500, Note_on_c, 7, 62, 90
9, 89520, Note_on_c, 7, 62, 0
9, 89520, Note_on_c, 7, 83, 0
9, 89520, Note_on_c, 7, 72, 80
9, 89520, Note_on_c, 7, 60, 78
9, 89520, Note_on_c, 7, 64, 78
9, 89540, Note_on_c, 7, 72, 0
9, 89540, Note_on_c, 7, 74, 81
9, 89560, Note_on_c, 7, 74, 0
9, 89560, Note_on_c, 7, 76, 95
9, 89580, Note_on_c, 7, 76, 0
9, 89580, Note_on_c, 7, 64, 0
9, 89580, Note_on_c, 7, 60, 0
9, 89580, Note_on_c, 7, 74, 86
9, 89600, Note_on_c, 7, 74, 0
9, 89600, Note_on_c, 7, 72, 93
9, 89620, Note_on_c, 7, 72, 0
9, 89620, Note_on_c, 7, 71, 73
9, 89640, Note_on_c, 7, 71, 0
9, 89640, Note_on_c, 7, 69, 84
9, 89660, Note_on_c, 7, 69, 0
9, 89660, Note_on_c, 7, 71, 81
9, 89680, Note_on_c, 7, 71, 0
9, 89680, Note_on_c, 7, 72, 86
9, 89700, Note_on_c, 7, 72, 0
9, 89700, Note_on_c, 7, 71, 80
9, 89720, Note_on_c, 7, 71, 0
9, 89720, Note_on_c, 7, 69, 77
9, 89740, Note_on_c, 7, 69, 0
9, 89740, Note_on_c, 7, 67, 73
9, 89760, Note_on_c, 7, 67, 0
9, 89760, Note_on_c, 7, 65, 78
9, 89780, Note_on_c, 7, 65, 0
9, 89780, Note_on_c, 7, 67, 78
9, 89800, Note_on_c, 7, 67, 0
9, 89800, Note_on_c, 7, 69, 89
9, 89820, Note_on_c, 7, 69, 0
9, 89820, Note_on_c, 7, 67, 78
9, 89840, Note_on_c, 7, 67, 0
9, 89840, Note_on_c, 7, 65, 76
9, 89860, Note_on_c, 7, 65, 0
9, 89860, Note_on_c, 7, 64, 89
9, 89880, Note_on_c, 7, 64, 0
9, 89880, Note_on_c, 7, 62, 74
9, 89880, Note_on_c, 7, 50, 90
9, 89900, Note_on_c, 7, 50, 0
9, 89900, Note_on_c, 7, 62, 0
9, 89900, Note_on_c, 7, 64, 81
9, 89900, Note_on_c, 7, 52, 89
9, 89920, Note_on_c, 7, 52, 0
9, 89920, Note_on_c, 7, 64, 0
9, 89920, Note_on_c, 7, 65, 86
9, 89920, Note_on_c, 7, 53, 78
9, 89940, Note_on_c, 7, 53, 0
9, 89940, Note_on_c, 7, 65, 0
9, 89940, Note_on_c, 7, 64, 81
9, 89940, Note_on_c, 7, 52, 89
9, 89960, Note_on_c, 7, 52, 0
9, 89960, Note_on_c, 7, 64, 0
9, 89960, Note_on_c, 7, 62, 77
9, 89960, Note_on_c, 7, 50, 93
9, 89980, Note_on_c, 7, 50, 0
9, 89980, Note_on_c, 7, 62, 0
9, 89980, Note_on_c, 7, 60, 82
9, 89980, Note_on_c, 7, 48, 89
9, 90000, Note_on_c, 7, 48, 0
9, 90000, Note_on_c, 7, 60, 0
9, 90000, Note_on_c, 7, 59, 84
9, 90000, Note_on_c, 7, 47, 89
9, 90020, Note_on_c, 7, 47, 0
9, 90020, Note_on_c, 7, 59, 0
9, 90020, Note_on_c, 7, 60, 74
9, 90020, Note_on_c, 7, 48, 89
9, 90040, Note_on_c, 7, 48, 0
9, 90040, Note_on_c, 7, 60, 0
9, 90040, Note_on_c, 7, 62, 84
9, 90040, Note_on_c, 7, 50, 82
9, 90060, Note_on_c, 7, 50, 0
9, 90060, Note_on_c, 7, 62, 0
9, 90060, Note_on_c, 7, 60, 86
9, 90060, Note_on_c, 7, 48, 89
9, 90080, Note_on_c, 7, 48, 0
9, 90080, Note_on_c, 7, 60, 0
9, 90080, Note_on_c, 7, 59, 84
9, 90080, Note_on_c, 7, 47, 85
9, 90100, Note_on_c, 7, 47, 0
9, 90100, Note_on_c, 7, 59, 0
9, 90100, Note_on_c, 7, 57, 94
9, 90100, Note_on_c, 7, 45, 90
9, 90120, Note_on_c, 7, 45, 0
9, 90120, Note_on_c, 7, 57, 0
9, 90120, Note_on_c, 7, 55, 85
9, 90120, Note_on_c, 7, 43, 85
9, 90140, Note_on_c, 7, 43, 0
9, 90140, Note_on_c, 7, 55, 0
9, 90140, Note_on_c, 7, 57, 95
9, 90140, Note_on_c, 7, 45, 86
9, 90160, Note_on_c, 7, 45, 0
9, 90160, Note_on_c, 7, 57, 0
9, 90160, Note_on_c, 7, 59, 89
9, 90160, Note_on_c, 7, 47, 81
9, 90180, Note_on_c, 7, 47, 0
9, 90180, Note_on_c, 7, 59, 0
9, 90180, Note_on_c, 7, 57, 95
9, 90180, Note_on_c, 7, 45, 89
9, 90200, Note_on_c, 7, 45, 0
9, 90200, Note_on_c, 7, 57, 0
9, 90200, Note_on_c, 7, 55, 84
9, 90200, Note_on_c, 7, 43, 82
9, 90220, Note_on_c, 7, 43, 0
9, 90220, Note_on_c, 7, 55, 0
9, 90220, Note_on_c, 7, 53, 81
9, 90220, Note_on_c, 7, 41, 86
9, 90240, Note_on_c, 7, 41, 0
9, 90240, Note_on_c, 7, 53, 0
9, 90240, Note_on_c, 7, 40, 93
9, 90240, Note_on_c, 7, 52, 85
9, 90260, Note_on_c, 7, 52, 0
9, 90260, Note_on_c, 7, 40, 0
9, 90260, Note_on_c, 7, 53, 93
9, 90260, Note_on_c, 7, 41, 81
9, 90280, Note_on_c, 7, 41, 0
9, 90280, Note_on_c, 7, 53, 0
9, 90280, Note_on_c, 7, 55, 90
9, 90280, Note_on_c, 7, 43, 76
9, 90300, Note_on_c, 7, 43, 0
9, 90300, Note_on_c, 7, 55, 0
9, 90300, Note_on_c, 7, 53, 89
9, 90300, Note_on_c, 7, 41, 76
9, 90320, Note_on_c, 7, 41, 0
9, 90320, Note_on_c, 7, 53, 0
9, 90320, Note_on_c, 7, 40, 89
9, 90320, Note_on_c, 7, 52, 86
9, 90340, Note_on_c, 7, 52, 0
9, 90340, Note_on_c, 7, 40, 0
9, 90340, Note_on_c, 7, 50, 77
9, 90340, Note_on_c, 7, 38, 90
9, 90360, Note_on_c, 7, 38, 0
9, 90360, Note_on_c, 7, 50, 0
9, 90360, Note_on_c, 7, 36, 84
9, 90360, Note_on_c, 7, 48, 81
9, 90380, Note_on_c, 7, 48, 0
9, 90380, Note_on_c, 7, 36, 0
9, 90380, Note_on_c, 7, 38, 86
9, 90380, Note_on_c, 7, 50, 80
9, 90400, Note_on_c, 7, 50, 0
9, 90400, Note_on_c, 7, 38, 0
9, 90400, Note_on_c, 7, 52, 94
9, 90400, Note_on_c, 7, 40, 84
9, 90420, Note_on_c, 7, 40, 0
9, 90420, Note_on_c, 7, 52, 0
9, 90420, Note_on_c, 7, 50, 81
9, 90420, Note_on_c, 7, 38, 89
9, 90440, Note_on_c, 7, 38, 0
9, 90440, Note_on_c, 7, 50, 0
9, 90440, Note_on_c, 7, 48, 74
9, 90440, Note_on_c, 7, 36, 84
9, 90460, Note_on_c, 7, 36, 0
9, 90460, Note_on_c, 7, 48, 0
9, 90460, Note_on_c, 7, 47, 81
9, 90460, Note_on_c, 7, 35, 84
9, 90480, Note_on_c, 7, 35, 0
9, 90480, Note_on_c, 7, 47, 0
9, 90480, Note_on_c, 7, 33, 84
9, 90480, Note_on_c, 7, 45, 86
9, 90500, Note_on_c, 7, 45, 0
9, 90500, Note_on_c, 7, 33, 0
9, 90500, Note_on_c, 7, 47, 80
9, 90500, Note_on_c, 7, 35, 72
9, 90520, Note_on_c, 7, 35, 0
9, 90520, Note_on_c, 7, 47, 0
9, 90520, Note_on_c, 7, 48, 85
9, 90520, Note_on_c, 7, 36, 80
9, 90540, Note_on_c, 7, 36, 0
9, 90540, Note_on_c, 7, 48, 0
9, 90540, Note_on_c, 7, 47, 89
9, 90540, Note_on_c, 7, 35, 85
9, 90560, Note_on_c, 7, 35, 0
9, 90560, Note_on_c, 7, 47, 0
9, 90560, Note_on_c, 7, 33, 84
9, 90560, Note_on_c, 7, 45, 90
9, 90580, Note_on_c, 7, 45, 0
9, 90580, Note_on_c, 7, 33, 0
9, 90580, Note_on_c, 7, 31, 84
9, 90580, Note_on_c, 7, 43, 84
9, 90600, Note_on_c, 7, 43, 0
9, 90600, Note_on_c, 7, 31, 0
9, 90600, Note_on_c, 7, 42, 119
9, 90600, Note_on_c, 7, 30, 125
9, 90620, Note_on_c, 7, 30, 0
9, 90620, Note_on_c, 7, 42, 0
9, 90620, Note_on_c, 7, 33, 90
9, 90620, Note_on_c, 7, 45, 94
9, 90640, Note_on_c, 7, 45, 0
9, 90640, Note_on_c, 7, 33, 0
9, 90640, Note_on_c, 7, 48, 86
9, 90640, Note_on_c, 7, 36, 84
9, 90660, Note_on_c, 7, 36, 0
9, 90660, Note_on_c, 7, 48, 0
9, 90660, Note_on_c, 7, 47, 94
9, 90660, Note_on_c, 7, 35, 89
9, 90680, Note_on_c, 7, 35, 0
9, 90680, Note_on_c, 7, 47, 0
9, 90680, Note_on_c, 7, 33, 94
9, 90680, Note_on_c, 7, 45, 93
9, 90700, Note_on_c, 7, 45, 0
9, 90700, Note_on_c, 7, 33, 0
9, 90700, Note_on_c, 7, 43, 82
9, 90700, Note_on_c, 7, 31, 90
9, 90720, Note_on_c, 7, 31, 0
9, 90720, Note_on_c, 7, 43, 0
9, 90720, Note_on_c, 7, 42, 119
9, 90720, Note_on_c, 7, 30, 117
9, 90740, Note_on_c, 7, 30, 0
9, 90740, Note_on_c, 7, 42, 0
9, 90740, Note_on_c, 7, 45, 94
9, 90740, Note_on_c, 7, 33, 90
9, 90760, Note_on_c, 7, 33, 0
9, 90760, Note_on_c, 7, 45, 0
9, 90760, Note_on_c, 7, 48, 85
9, 90760, Note_on_c, 7, 36, 85
9, 90780, Note_on_c, 7, 36, 0
9, 90780, Note_on_c, 7, 48, 0
9, 90780, Note_on_c, 7, 47, 89
9, 90780, Note_on_c, 7, 35, 86
9, 90800, Note_on_c, 7, 35, 0
9, 90800, Note_on_c, 7, 47, 0
9, 90800, Note_on_c, 7, 33, 86
9, 90800, Note_on_c, 7, 45, 85
9, 90820, Note_on_c, 7, 45, 0
9, 90820, Note_on_c, 7, 33, 0
9, 90820, Note_on_c, 7, 31, 84
9, 90820, Note_on_c, 7, 43, 82
9, 90840, Note_on_c, 7, 43, 0
9, 90840, Note_on_c, 7, 31, 0
9, 90840, Note_on_c, 7, 42, 119
9, 90840, Note_on_c, 7, 30, 115
9, 90860, Note_on_c, 7, 30, 0
9, 90860, Note_on_c, 7, 42, 0
9, 90860, Note_on_c, 7, 33, 90
9, 90860, Note_on_c, 7, 45, 98
9, 90880, Note_on_c, 7, 45, 0
9, 90880, Note_on_c, 7, 33, 0
9, 90880, Note_on_c, 7, 48, 84
9, 90880, Note_on_c, 7, 36, 74
9, 90900, Note_on_c, 7, 36, 0
9, 90900, Note_on_c, 7, 48, 0
9, 90900, Note_on_c, 7, 47, 90
9, 90900, Note_on_c, 7, 35, 93
9, 90920, Note_on_c, 7, 35, 0
9, 90920, Note_on_c, 7, 47, 0
9, 90920, Note_on_c, 7, 33, 84
9, 90920, Note_on_c, 7, 45, 89
9, 90940, Note_on_c, 7, 45, 0
9, 90940, Note_on_c, 7, 33, 0
9, 90940, Note_on_c, 7, 43, 82
9, 90940, Note_on_c, 7, 31, 85
9, 90960, Note_on_c, 7, 31, 0
9, 90960, Note_on_c, 7, 43, 0
9, 90960, Note_on_c, 7, 30, 86
9, 90960, Note_on_c, 7, 42, 72
9, 91020, Note_on_c, 7, 42, 0
9, 91020, Note_on_c, 7, 30, 0
9, 91020, Note_on_c, 7, 42, 77
9, 91020, Note_on_c, 7, 50, 72
9, 91020, Note_on_c, 7, 48, 80
9, 91065, Note_on_c, 7, 72, 78
9, 91080, Note_on_c, 7, 72, 0
9, 91080, Note_on_c, 7, 42, 0
9, 91080, Note_on_c, 7, 50, 0
9, 91080, Note_on_c, 7, 48, 0
9, 91080, Note_on_c, 7, 84, 90
9, 91110, Note_on_c, 7, 84, 0
9, 91125, Note_on_c, 7, 72, 76
9, 91140, Note_on_c, 7, 72, 0
9, 91140, Note_on_c, 7, 42, 77
9, 91140, Note_on_c, 7, 50, 72
9, 91140, Note_on_c, 7, 48, 84
9, 91140, Note_on_c, 7, 84, 89
9, 91170, Note_on_c, 7, 84, 0
9, 91200, Note_on_c, 7, 42, 0
9, 91200, Note_on_c, 7, 50, 0
9, 91200, Note_on_c, 7, 48, 0
9, 91200, Note_on_c, 7, 60, 89
9, 91260, Note_on_c, 7, 52, 78
9, 91260, Note_on_c, 7, 43, 81
9, 91260, Note_on_c, 7, 48, 77
9, 91320, Note_on_c, 7, 48, 0
9, 91320, Note_on_c, 7, 60, 0
9, 91320, Note_on_c, 7, 52, 0
9, 91320, Note_on_c, 7, 43, 0
9, 91320, Note_on_c, 7, 59, 90
9, 91350, Note_on_c, 7, 59, 0
9, 91350, Note_on_c, 7, 60, 84
9, 91380, Note_on_c, 7, 60, 0
9, 91380, Note_on_c, 7, 62, 81
9, 91380, Note_on_c, 7, 44, 74
9, 91380, Note_on_c, 7, 53, 61
9, 91380, Note_on_c, 7, 50, 94
9, 91410, Note_on_c, 7, 62, 0
9, 91410, Note_on_c, 7, 59, 89
9, 91440, Note_on_c, 7, 59, 0
9, 91440, Note_on_c, 7, 50, 0
9, 91440, Note_on_c, 7, 53, 0
9, 91440, Note_on_c, 7, 44, 0
9, 91440, Note_on_c, 7, 60, 84
9, 91500, Note_on_c, 7, 60, 0
9, 91500, Note_on_c, 7, 52, 72
9, 91500, Note_on_c, 7, 45, 78
9, 91500, Note_on_c, 7, 48, 81
9, 91545, Note_on_c, 7, 72, 81
9, 91560, Note_on_c, 7, 72, 0
9, 91560, Note_on_c, 7, 52, 0
9, 91560, Note_on_c, 7, 45, 0
9, 91560, Note_on_c, 7, 48, 0
9, 91560, Note_on_c, 7, 84, 93
9, 91590, Note_on_c, 7, 84, 0
9, 91605, Note_on_c, 7, 72, 89
9, 91620, Note_on_c, 7, 72, 0
9, 91620, Note_on_c, 7, 84, 89
9, 91620, Note_on_c, 7, 54, 70
9, 91620, Note_on_c, 7, 60, 76
9, 91620, Note_on_c, 7, 62, 50
9, 91650, Note_on_c, 7, 84, 0
9, 91680, Note_on_c, 7, 54, 0
9, 91680, Note_on_c, 7, 60, 0
9, 91680, Note_on_c, 7, 62, 0
9, 91680, Note_on_c, 7, 72, 89
9, 91740, Note_on_c, 7, 55, 78
9, 91740, Note_on_c, 7, 60, 77
9, 91740, Note_on_c, 7, 64, 68
9, 91800, Note_on_c, 7, 64, 0
9, 91800, Note_on_c, 7, 72, 0
9, 91800, Note_on_c, 7, 55, 0
9, 91800, Note_on_c, 7, 60, 0
9, 91800, Note_on_c, 7, 71, 95
9, 91830, Note_on_c, 7, 71, 0
9, 91830, Note_on_c, 7, 72, 86
9, 91860, Note_on_c, 7, 72, 0
9, 91860, Note_on_c, 7, 74, 94
9, 91860, Note_on_c, 7, 56, 67
9, 91860, Note_on_c, 7, 65, 44
9, 91860, Note_on_c, 7, 62, 84
9, 91890, Note_on_c, 7, 74, 0
9, 91890, Note_on_c, 7, 71, 95
9, 91920, Note_on_c, 7, 71, 0
9, 91920, Note_on_c, 7, 62, 0
9, 91920, Note_on_c, 7, 65, 0
9, 91920, Note_on_c, 7, 56, 0
9, 91920, Note_on_c, 7, 72, 98
9, 91980, Note_on_c, 7, 72, 0
9, 91980, Note_on_c, 7, 57, 82
9, 91980, Note_on_c, 7, 60, 86
9, 91980, Note_on_c, 7, 64, 80
9, 92025, Note_on_c, 7, 72, 105
9, 92040, Note_on_c, 7, 72, 0
9, 92040, Note_on_c, 7, 57, 0
9, 92040, Note_on_c, 7, 60, 0
9, 92040, Note_on_c, 7, 64, 0
9, 92040, Note_on_c, 7, 84, 123
9, 92100, Note_on_c, 7, 84, 0
9, 92100, Note_on_c, 7, 63, 57
9, 92100, Note_on_c, 7, 54, 70
9, 92100, Note_on_c, 7, 60, 84
9, 92100, Note_on_c, 7, 57, 99
9, 92145, Note_on_c, 7, 72, 101
9, 92160, Note_on_c, 7, 72, 0
9, 92160, Note_on_c, 7, 60, 0
9, 92160, Note_on_c, 7, 63, 0
9, 92160, Note_on_c, 7, 54, 0
9, 92160, Note_on_c, 7, 57, 0
9, 92160, Note_on_c, 7, 84, 119
9, 92220, Note_on_c, 7, 84, 0
9, 92220, Note_on_c, 7, 63, 48
9, 92220, Note_on_c, 7, 54, 64
9, 92220, Note_on_c, 7, 60, 84
9, 92220, Note_on_c, 7, 57, 94
9, 92265, Note_on_c, 7, 72, 105
9, 92280, Note_on_c, 7, 72, 0
9, 92280, Note_on_c, 7, 60, 0
9, 92280, Note_on_c, 7, 63, 0
9, 92280, Note_on_c, 7, 54, 0
9, 92280, Note_on_c, 7, 57, 0
9, 92280, Note_on_c, 7, 84, 119
9, 92340, Note_on_c, 7, 84, 0
9, 92340, Note_on_c, 7, 63, 57
9, 92340, Note_on_c, 7, 54, 73
9, 92340, Note_on_c, 7, 60, 89
9, 92340, Note_on_c, 7, 57, 99
9, 92385, Note_on_c, 7, 72, 101
9, 92400, Note_on_c, 7, 72, 0
9, 92400, Note_on_c, 7, 60, 0
9, 92400, Note_on_c, 7, 63, 0
9, 92400, Note_on_c, 7, 54, 0
9, 92400, Note_on_c, 7, 57, 0
9, 92400, Note_on_c, 7, 84, 119
9, 92460, Note_on_c, 7, 84, 0
9, 92460, Note_on_c, 7, 63, 45
9, 92460, Note_on_c, 7, 54, 74
9, 92460, Note_on_c, 7, 60, 86
9, 92460, Note_on_c, 7, 57, 98
9, 92505, Note_on_c, 7, 72, 105
9, 92520, Note_on_c, 7, 72, 0
9, 92520, Note_on_c, 7, 60, 0
9, 92520, Note_on_c, 7, 63, 0
9, 92520, Note_on_c, 7, 54, 0
9, 92520, Note_on_c, 7, 57, 0
9, 92520, Note_on_c, 7, 87, 119
9, 92580, Note_on_c, 7, 87, 0
9, 92580, Note_on_c, 7, 63, 57
9, 92580, Note_on_c, 7, 54, 73
9, 92580, Note_on_c, 7, 60, 89
9, 92580, Note_on_c, 7, 56, 94
9, 92625, Note_on_c, 7, 72, 101
9, 92640, Note_on_c, 7, 72, 0
9, 92640, Note_on_c, 7, 60, 0
9, 92640, Note_on_c, 7, 63, 0
9, 92640, Note_on_c, 7, 54, 0
9, 92640, Note_on_c, 7, 56, 0
9, 92640, Note_on_c, 7, 87, 123
9, 92700, Note_on_c, 7, 87, 0
9, 92700, Note_on_c, 7, 63, 50
9, 92700, Note_on_c, 7, 54, 65
9, 92700, Note_on_c, 7, 60, 85
9, 92700, Note_on_c, 7, 56, 85
9, 92745, Note_on_c, 7, 72, 104
9, 92760, Note_on_c, 7, 72, 0
9, 92760, Note_on_c, 7, 60, 0
9, 92760, Note_on_c, 7, 63, 0
9, 92760, Note_on_c, 7, 54, 0
9, 92760, Note_on_c, 7, 56, 0
9, 92760, Note_on_c, 7, 87, 119
9, 92820, Note_on_c, 7, 87, 0
9, 92820, Note_on_c, 7, 63, 50
9, 92820, Note_on_c, 7, 54, 61
9, 92820, Note_on_c, 7, 60, 84
9, 92820, Note_on_c, 7, 56, 80
9, 92865, Note_on_c, 7, 72, 105
9, 92880, Note_on_c, 7, 72, 0
9, 92880, Note_on_c, 7, 60, 0
9, 92880, Note_on_c, 7, 63, 0
9, 92880, Note_on_c, 7, 54, 0
9, 92880, Note_on_c, 7, 56, 0
9, 92880, Note_on_c, 7, 87, 119
9, 92940, Note_on_c, 7, 87, 0
9, 92940, Note_on_c, 7, 63, 44
9, 92940, Note_on_c, 7, 54, 50
9, 92940, Note_on_c, 7, 60, 72
9, 92940, Note_on_c, 7, 56, 74
9, 93000, Note_on_c, 7, 56, 0
9, 93000, Note_on_c, 7, 63, 0
9, 93000, Note_on_c, 7, 54, 0
9, 93000, Note_on_c, 7, 60, 0
9, 93000, Note_on_c, 7, 85, 74
9, 93030, Note_on_c, 7, 85, 0
9, 93030, Note_on_c, 7, 84, 62
9, 93060, Note_on_c, 7, 84, 0
9, 93060, Note_on_c, 7, 82, 80
9, 93090, Note_on_c, 7, 82, 0
9, 93090, Note_on_c, 7, 80, 84
9, 93120, Note_on_c, 7, 80, 0
9, 93120, Note_on_c, 7, 79, 53
9, 93150, Note_on_c, 7, 79, 0
9, 93150, Note_on_c, 7, 80, 76
9, 93180, Note_on_c, 7, 80, 0
9, 93180, Note_on_c, 7, 82, 84
9, 93210, Note_on_c, 7, 82, 0
9, 93210, Note_on_c, 7, 83, 86
9, 93240, Note_on_c, 7, 83, 0
9, 93240, Note_on_c, 7, 84, 84
9, 93270, Note_on_c, 7, 84, 0
9, 93270, Note_on_c, 7, 85, 81
9, 93300, Note_on_c, 7, 85, 0
9, 93300, Note_on_c, 7, 86, 86
9, 93330, Note_on_c, 7, 86, 0
9, 93330, Note_on_c, 7, 87, 93
9, 93360, Note_on_c, 7, 87, 0
9, 93360, Note_on_c, 7, 89, 77
9, 93390, Note_on_c, 7, 89, 0
9, 93390, Note_on_c, 7, 87, 76
9, 93420, Note_on_c, 7, 87, 0
9, 93420, Note_on_c, 7, 56, 43
9, 93420, Note_on_c, 7, 54, 50
9, 93420, Note_on_c, 7, 51, 63
9, 93420, Note_on_c, 7, 48, 62
9, 93420, Note_on_c, 7, 85, 78
9, 93450, Note_on_c, 7, 85, 0
9, 93450, Note_on_c, 7, 84, 81
9, 93480, Note_on_c, 7, 84, 0
9, 93480, Note_on_c, 7, 48, 0
9, 93480, Note_on_c, 7, 56, 0
9, 93480, Note_on_c, 7, 54, 0
9, 93480, Note_on_c, 7, 51, 0
9, 93480, Note_on_c, 7, 82, 80
9, 93510, Note_on_c, 7, 82, 0
9, 93510, Note_on_c, 7, 80, 76
9, 93540, Note_on_c, 7, 80, 0
9, 93540, Note_on_c, 7, 79, 84
9, 93570, Note_on_c, 7, 79, 0
9, 93570, Note_on_c, 7, 80, 81
9, 93600, Note_on_c, 7, 80, 0
9, 93600, Note_on_c, 7, 82, 76
9, 93630, Note_on_c, 7, 82, 0
9, 93630, Note_on_c, 7, 83, 68
9, 93660, Note_on_c, 7, 83, 0
9, 93660, Note_on_c, 7, 84, 77
9, 93690, Note_on_c, 7, 84, 0
9, 93690, Note_on_c, 7, 85, 77
9, 93720, Note_on_c, 7, 85, 0
9, 93720, Note_on_c, 7, 86, 61
9, 93750, Note_on_c, 7, 86, 0
9, 93750, Note_on_c, 7, 87, 58
9, 93780, Note_on_c, 7, 87, 0
9, 93780, Note_on_c, 7, 88, 52
9, 93810, Note_on_c, 7, 88, 0
9, 93810, Note_on_c, 7, 89, 72
9, 93840, Note_on_c, 7, 89, 0
9, 93840, Note_on_c, 7, 90, 62
9, 93860, Note_on_c, 7, 90, 0
9, 93860, Note_on_c, 7, 89, 45
9, 93880, Note_on_c, 7, 89, 0
9, 93880, Note_on_c, 7, 87, 40
9, 93900, Note_on_c, 7, 87, 0
9, 93900, Note_on_c, 7, 85, 61
9, 93900, Note_on_c, 7, 44, 53
9, 93900, Note_on_c, 7, 48, 46
9, 93900, Note_on_c, 7, 51, 44
9, 93900, Note_on_c, 7, 54, 43
9, 93920, Note_on_c, 7, 85, 0
9, 93920, Note_on_c, 7, 84, 41
9, 93940, Note_on_c, 7, 84, 0
9, 93940, Note_on_c, 7, 82, 43
9, 93960, Note_on_c, 7, 82, 0
9, 93960, Note_on_c, 7, 51, 0
9, 93960, Note_on_c, 7, 44, 0
9, 93960, Note_on_c, 7, 48, 0
9, 93960, Note_on_c, 7, 54, 0
9, 93960, Note_on_c, 7, 80, 42
9, 93980, Note_on_c, 7, 80, 0
9, 93980, Note_on_c, 7, 78, 62
9, 94000, Note_on_c, 7, 78, 0
9, 94000, Note_on_c, 7, 77, 64
9, 94020, Note_on_c, 7, 77, 0
9, 94020, Note_on_c, 7, 75, 53
9, 94020, Note_on_c, 7, 44, 43
9, 94020, Note_on_c, 7, 48, 46
9, 94020, Note_on_c, 7, 51, 45
9, 94020, Note_on_c, 7, 54, 45
9, 94040, Note_on_c, 7, 75, 0
9, 94040, Note_on_c, 7, 73, 53
9, 94060, Note_on_c, 7, 73, 0
9, 94060, Note_on_c, 7, 72, 77
9, 94080, Note_on_c, 7, 72, 0
9, 94080, Note_on_c, 7, 51, 0
9, 94080, Note_on_c, 7, 44, 0
9, 94080, Note_on_c, 7, 48, 0
9, 94080, Note_on_c, 7, 54, 0
9, 94080, Note_on_c, 7, 70, 63
9, 94100, Note_on_c, 7, 70, 0
9, 94100, Note_on_c, 7, 68, 67
9, 94120, Note_on_c, 7, 68, 0
9, 94120, Note_on_c, 7, 66, 67
9, 94140, Note_on_c, 7, 66, 0
9, 94140, Note_on_c, 7, 65, 65
9, 94140, Note_on_c, 7, 48, 43
9, 94140, Note_on_c, 7, 44, 35
9, 94140, Note_on_c, 7, 51, 38
9, 94140, Note_on_c, 7, 54, 42
9, 94160, Note_on_c, 7, 65, 0
9, 94160, Note_on_c, 7, 63, 73
9, 94180, Note_on_c, 7, 63, 0
9, 94180, Note_on_c, 7, 61, 57
9, 94200, Note_on_c, 7, 61, 0
9, 94200, Note_on_c, 7, 51, 0
9, 94200, Note_on_c, 7, 48, 0
9, 94200, Note_on_c, 7, 44, 0
9, 94200, Note_on_c, 7, 54, 0
9, 94200, Note_on_c, 7, 60, 59
9, 94220, Note_on_c, 7, 60, 0
9, 94220, Note_on_c, 7, 58, 61
9, 94240, Note_on_c, 7, 58, 0
9, 94240, Note_on_c, 7, 56, 45
9, 94260, Note_on_c, 7, 56, 0
9, 94260, Note_on_c, 7, 54, 42
9, 94275, Note_on_c, 7, 54, 0
9, 94275, Note_on_c, 7, 53, 55
9, 94290, Note_on_c, 7, 53, 0
9, 94290, Note_on_c, 7, 51, 60
9, 94305, Note_on_c, 7, 51, 0
9, 94305, Note_on_c, 7, 49, 55
9, 94320, Note_on_c, 7, 49, 0
9, 94320, Note_on_c, 7, 48, 48
9, 94340, Note_on_c, 7, 48, 0
9, 94340, Note_on_c, 7, 46, 68
9, 94360, Note_on_c, 7, 46, 0
9, 94360, Note_on_c, 7, 44, 53
9, 94380, Note_on_c, 7, 44, 0
9, 94380, Note_on_c, 7, 43, 53
9, 94400, Note_on_c, 7, 43, 0
9, 94400, Note_on_c, 7, 44, 54
9, 94420, Note_on_c, 7, 44, 0
9, 94420, Note_on_c, 7, 46, 67
9, 94440, Note_on_c, 7, 46, 0
9, 94440, Note_on_c, 7, 48, 54
9, 94460, Note_on_c, 7, 48, 0
9, 94460, Note_on_c, 7, 49, 50
9, 94480, Note_on_c, 7, 49, 0
9, 94480, Note_on_c, 7, 51, 59
9, 94500, Note_on_c, 7, 51, 0
9, 94500, Note_on_c, 7, 53, 65
9, 94520, Note_on_c, 7, 53, 0
9, 94520, Note_on_c, 7, 54, 58
9, 94540, Note_on_c, 7, 54, 0
9, 94540, Note_on_c, 7, 56, 54
9, 94560, Note_on_c, 7, 56, 0
9, 94560, Note_on_c, 7, 58, 57
9, 94580, Note_on_c, 7, 58, 0
9, 94580, Note_on_c, 7, 60, 61
9, 94600, Note_on_c, 7, 60, 0
9, 94600, Note_on_c, 7, 61, 54
9, 94620, Note_on_c, 7, 61, 0
9, 94620, Note_on_c, 7, 63, 63
9, 94640, Note_on_c, 7, 63, 0
9, 94640, Note_on_c, 7, 65, 61
9, 94660, Note_on_c, 7, 65, 0
9, 94660, Note_on_c, 7, 66, 64
9, 94680, Note_on_c, 7, 66, 0
9, 94680, Note_on_c, 7, 68, 68
9, 94700, Note_on_c, 7, 68, 0
9, 94700, Note_on_c, 7, 70, 71
9, 94720, Note_on_c, 7, 70, 0
9, 94720, Note_on_c, 7, 72, 69
9, 94740, Note_on_c, 7, 72, 0
9, 94740, Note_on_c, 7, 73, 46
9, 94752, Note_on_c, 7, 73, 0
9, 94752, Note_on_c, 7, 75, 72
9, 94764, Note_on_c, 7, 75, 0
9, 94764, Note_on_c, 7, 77, 68
9, 94776, Note_on_c, 7, 77, 0
9, 94776, Note_on_c, 7, 78, 57
9, 94788, Note_on_c, 7, 78, 0
9, 94788, Note_on_c, 7, 80, 74
9, 94800, Note_on_c, 7, 80, 0
9, 94800, Note_on_c, 7, 82, 68
9, 94800, Note_on_c, 7, 56, 73
9, 94830, Note_on_c, 7, 56, 0
9, 94830, Note_on_c, 7, 66, 62
9, 94860, Note_on_c, 7, 66, 0
9, 94860, Note_on_c, 7, 82, 0
9, 94860, Note_on_c, 7, 72, 77
9, 94860, Note_on_c, 7, 63, 56
9, 94890, Note_on_c, 7, 63, 0
9, 94890, Note_on_c, 7, 66, 64
9, 94920, Note_on_c, 7, 66, 0
9, 94920, Note_on_c, 7, 72, 0
9, 94920, Note_on_c, 7, 72, 74
9, 94920, Note_on_c, 7, 56, 76
9, 94950, Note_on_c, 7, 56, 0
9, 94950, Note_on_c, 7, 72, 0
9, 94950, Note_on_c, 7, 66, 53
9, 94980, Note_on_c, 7, 66, 0
9, 94980, Note_on_c, 7, 72, 80
9, 94980, Note_on_c, 7, 63, 78
9, 95010, Note_on_c, 7, 63, 0
9, 95010, Note_on_c, 7, 72, 0
9, 95010, Note_on_c, 7, 66, 46
9, 95040, Note_on_c, 7, 66, 0
9, 95040, Note_on_c, 7, 73, 77
9, 95040, Note_on_c, 7, 56, 71
9, 95070, Note_on_c, 7, 56, 0
9, 95070, Note_on_c, 7, 65, 68
9, 95100, Note_on_c, 7, 65, 0
9, 95100, Note_on_c, 7, 61, 64
9, 95130, Note_on_c, 7, 61, 0
9, 95130, Note_on_c, 7, 65, 68
9, 95160, Note_on_c, 7, 65, 0
9, 95160, Note_on_c, 7, 73, 0
9, 95160, Note_on_c, 7, 75, 86
9, 95160, Note_on_c, 7, 56, 29
9, 95190, Note_on_c, 7, 56, 0
9, 95190, Note_on_c, 7, 75, 0
9, 95190, Note_on_c, 7, 73, 80
9, 95190, Note_on_c, 7, 65, 67
9, 95220, Note_on_c, 7, 65, 0
9, 95220, Note_on_c, 7, 73, 0
9, 95220, Note_on_c, 7, 72, 80
9, 95220, Note_on_c, 7, 61, 53
9, 95250, Note_on_c, 7, 61, 0
9, 95250, Note_on_c, 7, 72, 0
9, 95250, Note_on_c, 7, 73, 84
9, 95250, Note_on_c, 7, 65, 65
9, 95280, Note_on_c, 7, 65, 0
9, 95280, Note_on_c, 7, 73, 0
9, 95280, Note_on_c, 7, 75, 93
9, 95280, Note_on_c, 7, 56, 76
9, 95310, Note_on_c, 7, 56, 0
9, 95310, Note_on_c, 7, 75, 0
9, 95310, Note_on_c, 7, 66, 62
9, 95340, Note_on_c, 7, 66, 0
9, 95340, Note_on_c, 7, 75, 90
9, 95340, Note_on_c, 7, 60, 73
9, 95370, Note_on_c, 7, 60, 0
9, 95370, Note_on_c, 7, 75, 0
9, 95370, Note_on_c, 7, 66, 46
9, 95400, Note_on_c, 7, 66, 0
9, 95400, Note_on_c, 7, 77, 72
9, 95400, Note_on_c, 7, 56, 61
9, 95430, Note_on_c, 7, 56, 0
9, 95430, Note_on_c, 7, 77, 0
9, 95430, Note_on_c, 7, 75, 89
9, 95430, Note_on_c, 7, 66, 64
9, 95460, Note_on_c, 7, 66, 0
9, 95460, Note_on_c, 7, 75, 0
9, 95460, Note_on_c, 7, 73, 77
9, 95460, Note_on_c, 7, 60, 64
9, 95490, Note_on_c, 7, 60, 0
9, 95490, Note_on_c, 7, 73, 0
9, 95490, Note_on_c, 7, 75, 93
9, 95490, Note_on_c, 7, 66, 67
9, 95520, Note_on_c, 7, 66, 0
9, 95520, Note_on_c, 7, 75, 0
9, 95520, Note_on_c, 7, 77, 81
9, 95520, Note_on_c, 7, 56, 63
9, 95550, Note_on_c, 7, 56, 0
9, 95550, Note_on_c, 7, 65, 76
9, 95580, Note_on_c, 7, 65, 0
9, 95580, Note_on_c, 7, 61, 57
9, 95610, Note_on_c, 7, 61, 0
9, 95610, Note_on_c, 7, 65, 59
9, 95640, Note_on_c, 7, 65, 0
9, 95640, Note_on_c, 7, 77, 0
9, 95640, Note_on_c, 7, 73, 76
9, 95640, Note_on_c, 7, 56, 53
9, 95670, Note_on_c, 7, 56, 0
9, 95670, Note_on_c, 7, 65, 58
9, 95700, Note_on_c, 7, 65, 0
9, 95700, Note_on_c, 7, 73, 0
9, 95700, Note_on_c, 7, 61, 44
9, 95730, Note_on_c, 7, 61, 0
9, 95730, Note_on_c, 7, 65, 64
9, 95760, Note_on_c, 7, 65, 0
9, 96000, Note_on_c, 7, 49, 82
9, 96000, Note_on_c, 7, 61, 73
9, 96020, Note_on_c, 7, 61, 0
9, 96020, Note_on_c, 7, 49, 0
9, 96020, Note_on_c, 7, 65, 90
9, 96020, Note_on_c, 7, 53, 72
9, 96040, Note_on_c, 7, 53, 0
9, 96040, Note_on_c, 7, 65, 0
9, 96040, Note_on_c, 7, 56, 73
9, 96040, Note_on_c, 7, 68, 90
9, 96060, Note_on_c, 7, 68, 0
9, 96060, Note_on_c, 7, 56, 0
9, 96060, Note_on_c, 7, 61, 78
9, 96060, Note_on_c, 7, 73, 76
9, 96080, Note_on_c, 7, 73, 0
9, 96080, Note_on_c, 7, 61, 0
9, 96080, Note_on_c, 7, 65, 94
9, 96080, Note_on_c, 7, 77, 90
9, 96100, Note_on_c, 7, 77, 0
9, 96100, Note_on_c, 7, 65, 0
9, 96100, Note_on_c, 7, 80, 86
9, 96100, Note_on_c, 7, 68, 80
9, 96120, Note_on_c, 7, 68, 0
9, 96120, Note_on_c, 7, 80, 0
9, 96120, Note_on_c, 7, 73, 89
9, 96120, Note_on_c, 7, 85, 70
9, 96180, Note_on_c, 7, 85, 0
9, 96180, Note_on_c, 7, 73, 0
9, 96480, Note_on_c, 7, 51, 94
9, 96480, Note_on_c, 7, 63, 73
9, 96500, Note_on_c, 7, 63, 0
9, 96500, Note_on_c, 7, 51, 0
9, 96500, Note_on_c, 7, 66, 90
9, 96500, Note_on_c, 7, 54, 93
9, 96520, Note_on_c, 7, 54, 0
9, 96520, Note_on_c, 7, 66, 0
9, 96520, Note_on_c, 7, 70, 86
9, 96520, Note_on_c, 7, 58, 81
9, 96540, Note_on_c, 7, 58, 0
9, 96540, Note_on_c, 7, 70, 0
9, 96540, Note_on_c, 7, 63, 94
9, 96540, Note_on_c, 7, 75, 99
9, 96560, Note_on_c, 7, 75, 0
9, 96560, Note_on_c, 7, 63, 0
9, 96560, Note_on_c, 7, 78, 89
9, 96560, Note_on_c, 7, 66, 94
9, 96580, Note_on_c, 7, 66, 0
9, 96580, Note_on_c, 7, 78, 0
9, 96580, Note_on_c, 7, 82, 82
9, 96580, Note_on_c, 7, 70, 84
9, 96600, Note_on_c, 7, 70, 0
9, 96600, Note_on_c, 7, 82, 0
9, 96600, Note_on_c, 7, 75, 99
9, 96600, Note_on_c, 7, 87, 85
9, 96660, Note_on_c, 7, 87, 0
9, 96660, Note_on_c, 7, 75, 0
9, 96960, Note_on_c, 7, 53, 81
9, 96960, Note_on_c, 7, 65, 85
9, 96980, Note_on_c, 7, 65, 0
9, 96980, Note_on_c, 7, 53, 0
9, 96980, Note_on_c, 7, 68, 89
9, 96980, Note_on_c, 7, 56, 84
9, 97000, Note_on_c, 7, 56, 0
9, 97000, Note_on_c, 7, 68, 0
9, 97000, Note_on_c, 7, 72, 71
9, 97000, Note_on_c, 7, 60, 78
9, 97020, Note_on_c, 7, 60, 0
9, 97020, Note_on_c, 7, 72, 0
9, 97020, Note_on_c, 7, 65, 93
9, 97020, Note_on_c, 7, 77, 80
9, 97040, Note_on_c, 7, 77, 0
9, 97040, Note_on_c, 7, 65, 0
9, 97040, Note_on_c, 7, 68, 89
9, 97040, Note_on_c, 7, 80, 89
9, 97060, Note_on_c, 7, 80, 0
9, 97060, Note_on_c, 7, 68, 0
9, 97060, Note_on_c, 7, 84, 89
9, 97060, Note_on_c, 7, 72, 66
9, 97080, Note_on_c, 7, 72, 0
9, 97080, Note_on_c, 7, 84, 0
9, 97080, Note_on_c, 7, 89, 104
9, 97080, Note_on_c, 7, 77, 73
9, 97100, Note_on_c, 7, 77, 0
9, 97100, Note_on_c, 7, 89, 0
9, 97100, Note_on_c, 7, 84, 93
9, 97100, Note_on_c, 7, 72, 81
9, 97120, Note_on_c, 7, 72, 0
9, 97120, Note_on_c, 7, 84, 0
9, 97120, Note_on_c, 7, 68, 94
9, 97120, Note_on_c, 7, 80, 80
9, 97140, Note_on_c, 7, 80, 0
9, 97140, Note_on_c, 7, 68, 0
9, 97140, Note_on_c, 7, 84, 95
9, 97140, Note_on_c, 7, 72, 64
9, 97160, Note_on_c, 7, 72, 0
9, 97160, Note_on_c, 7, 84, 0
9, 97160, Note_on_c, 7, 68, 85
9, 97160, Note_on_c, 7, 80, 85
9, 97180, Note_on_c, 7, 80, 0
9, 97180, Note_on_c, 7, 68, 0
9, 97180, Note_on_c, 7, 65, 94
9, 97180, Note_on_c, 7, 77, 85
9, 97200, Note_on_c, 7, 77, 0
9, 97200, Note_on_c, 7, 65, 0
9, 97200, Note_on_c, 7, 72, 66
9, 97200, Note_on_c, 7, 84, 89
9, 97220, Note_on_c, 7, 84, 0
9, 97220, Note_on_c, 7, 72, 0
9, 97220, Note_on_c, 7, 60, 82
9, 97220, Note_on_c, 7, 72, 64
9, 97240, Note_on_c, 7, 72, 0
9, 97240, Note_on_c, 7, 60, 0
9, 97240, Note_on_c, 7, 62, 84
9, 97240, Note_on_c, 7, 74, 98
9, 97260, Note_on_c, 7, 74, 0
9, 97260, Note_on_c, 7, 62, 0
9, 97260, Note_on_c, 7, 63, 89
9, 97260, Note_on_c, 7, 75, 99
9, 97280, Note_on_c, 7, 75, 0
9, 97280, Note_on_c, 7, 63, 0
9, 97280, Note_on_c, 7, 74, 98
9, 97280, Note_on_c, 7, 62, 89
9, 97300, Note_on_c, 7, 62, 0
9, 97300, Note_on_c, 7, 74, 0
9, 97300, Note_on_c, 7, 60, 93
9, 97300, Note_on_c, 7, 72, 68
9, 97320, Note_on_c, 7, 72, 0
9, 97320, Note_on_c, 7, 60, 0
9, 97320, Note_on_c, 7, 63, 89
9, 97320, Note_on_c, 7, 75, 99
9, 97340, Note_on_c, 7, 75, 0
9, 97340, Note_on_c, 7, 63, 0
9, 97340, Note_on_c, 7, 74, 101
9, 97340, Note_on_c, 7, 62, 95
9, 97360, Note_on_c, 7, 62, 0
9, 97360, Note_on_c, 7, 74, 0
9, 97360, Note_on_c, 7, 60, 94
9, 97360, Note_on_c, 7, 72, 77
9, 97380, Note_on_c, 7, 72, 0
9, 97380, Note_on_c, 7, 60, 0
9, 97380, Note_on_c, 7, 63, 95
9, 97380, Note_on_c, 7, 75, 117
9, 97400, Note_on_c, 7, 75, 0
9, 97400, Note_on_c, 7, 63, 0
9, 97400, Note_on_c, 7, 74, 105
9, 97400, Note_on_c, 7, 62, 98
9, 97420, Note_on_c, 7, 62, 0
9, 97420, Note_on_c, 7, 74, 0
9, 97420, Note_on_c, 7, 72, 80
9, 97420, Note_on_c, 7, 60, 95
9, 97440, Note_on_c, 7, 60, 0
9, 97440, Note_on_c, 7, 72, 0
9, 97440, Note_on_c, 7, 71, 99
9, 97440, Note_on_c, 7, 59, 104
9, 97460, Note_on_c, 7, 59, 0
9, 97460, Note_on_c, 7, 71, 0
9, 102600, Note_on_c, 7, 43, 93
9, 102630, Note_on_c, 7, 43, 0
9, 102630, Note_on_c, 7, 47, 95
9, 102660, Note_on_c, 7, 47, 0
9, 102660, Note_on_c, 7, 45, 95
9, 102690, Note_on_c, 7, 45, 0
9, 102690, Note_on_c, 7, 48, 89
9, 102720, Note_on_c, 7, 48, 0
9, 102720, Note_on_c, 7, 47, 94
9, 102750, Note_on_c, 7, 47, 0
9, 102750, Note_on_c, 7, 50, 99
9, 102780, Note_on_c, 7, 50, 0
9, 102780, Note_on_c, 7, 48, 93
9, 102810, Note_on_c, 7, 48, 0
9, 102810, Note_on_c, 7, 52, 94
9, 102840, Note_on_c, 7, 52, 0
9, 102840, Note_on_c, 7, 50, 95
9, 102870, Note_on_c, 7, 50, 0
9, 102870, Note_on_c, 7, 53, 81
9, 102900, Note_on_c, 7, 53, 0
9, 102900, Note_on_c, 7, 52, 101
9, 102930, Note_on_c, 7, 52, 0
9, 102930, Note_on_c, 7, 55, 93
9, 102960, Note_on_c, 7, 55, 0
9, 102960, Note_on_c, 7, 53, 93
9, 102990, Note_on_c, 7, 53, 0
9, 102990, Note_on_c, 7, 57, 99
9, 103020, Note_on_c, 7, 57, 0
9, 103020, Note_on_c, 7, 55, 94
9, 103050, Note_on_c, 7, 55, 0
9, 103050, Note_on_c, 7, 59, 86
9, 103080, Note_on_c, 7, 59, 0
9, 103080, Note_on_c, 7, 57, 104
9, 103110, Note_on_c, 7, 57, 0
9, 103110, Note_on_c, 7, 60, 86
9, 103140, Note_on_c, 7, 60, 0
9, 103140, Note_on_c, 7, 59, 99
9, 103170, Note_on_c, 7, 59, 0
9, 103170, Note_on_c, 7, 62, 80
9, 103200, Note_on_c, 7, 62, 0
9, 103200, Note_on_c, 7, 60, 95
9, 103230, Note_on_c, 7, 60, 0
9, 103230, Note_on_c, 7, 64, 90
9, 103260, Note_on_c, 7, 64, 0
9, 103260, Note_on_c, 7, 62, 94
9, 103290, Note_on_c, 7, 62, 0
9, 103290, Note_on_c, 7, 65, 90
9, 103320, Note_on_c, 7, 65, 0
9, 103320, Note_on_c, 7, 64, 99
9, 103350, Note_on_c, 7, 64, 0
9, 103350, Note_on_c, 7, 67, 86
9, 103380, Note_on_c, 7, 67, 0
9, 103380, Note_on_c, 7, 65, 99
9, 103410, Note_on_c, 7, 65, 0
9, 103410, Note_on_c, 7, 69, 93
9, 103440, Note_on_c, 7, 69, 0
9, 103440, Note_on_c, 7, 67, 90
9, 103470, Note_on_c, 7, 67, 0
9, 103470, Note_on_c, 7, 71, 90
9, 103500, Note_on_c, 7, 71, 0
9, 103500, Note_on_c, 7, 69, 104
9, 103530, Note_on_c, 7, 69, 0
9, 103530, Note_on_c, 7, 72, 104
9, 103560, Note_on_c, 7, 72, 0
9, 103560, Note_on_c, 7, 71, 99
9, 103590, Note_on_c, 7, 71, 0
9, 103590, Note_on_c, 7, 74, 101
9, 103620, Note_on_c, 7, 74, 0
9, 103620, Note_on_c, 7, 72, 95
9, 103650, Note_on_c, 7, 72, 0
9, 103650, Note_on_c, 7, 76, 99
9, 103680, Note_on_c, 7, 76, 0
9, 103680, Note_on_c, 7, 74, 95
9, 103710, Note_on_c, 7, 74, 0
9, 103710, Note_on_c, 7, 77, 101
9, 103740, Note_on_c, 7, 77, 0
9, 103740, Note_on_c, 7, 76, 98
9, 103770, Note_on_c, 7, 76, 0
9, 103770, Note_on_c, 7, 79, 99
9, 103800, Note_on_c, 7, 79, 0
9, 103800, Note_on_c, 7, 77, 89
9, 103830, Note_on_c, 7, 77, 0
9, 103830, Note_on_c, 7, 81, 104
9, 103860, Note_on_c, 7, 81, 0
9, 103860, Note_on_c, 7, 79, 93
9, 103890, Note_on_c, 7, 79, 0
9, 103890, Note_on_c, 7, 83, 105
9, 103920, Note_on_c, 7, 83, 0
9, 103920, Note_on_c, 7, 81, 93
9, 103950, Note_on_c, 7, 81, 0
9, 103950, Note_on_c, 7, 84, 98
9, 103980, Note_on_c, 7, 84, 0
9, 103980, Note_on_c, 7, 83, 94
9, 104010, Note_on_c, 7, 83, 0
9, 104010, Note_on_c, 7, 86, 105
9, 104040, Note_on_c, 7, 86, 0
9, 104040, Note_on_c, 7, 84, 89
9, 104070, Note_on_c, 7, 84, 0
9, 104070, Note_on_c, 7, 88, 105
9, 104100, Note_on_c, 7, 88, 0
9, 104100, Note_on_c, 7, 86, 98
9, 104130, Note_on_c, 7, 86, 0
9, 104130, Note_on_c, 7, 89, 107
9, 104160, Note_on_c, 7, 89, 0
9, 104160, Note_on_c, 7, 88, 101
9, 104190, Note_on_c, 7, 88, 0
9, 104190, Note_on_c, 7, 86, 105
9, 104220, Note_on_c, 7, 86, 0
9, 104220, Note_on_c, 7, 84, 95
9, 104250, Note_on_c, 7, 84, 0
9, 104250, Note_on_c, 7, 83, 101
9, 104280, Note_on_c, 7, 83, 0
9, 104280, Note_on_c, 7, 81, 104
9, 104310, Note_on_c, 7, 81, 0
9, 104310, Note_on_c, 7, 79, 89
9, 104340, Note_on_c, 7, 79, 0
9, 104340, Note_on_c, 7, 83, 104
9, 104370, Note_on_c, 7, 83, 0
9, 104370, Note_on_c, 7, 86, 105
9, 104400, Note_on_c, 7, 86, 0
9, 104400, Note_on_c, 7, 84, 95
9, 104430, Note_on_c, 7, 84, 0
9, 104430, Note_on_c, 7, 83, 94
9, 104460, Note_on_c, 7, 83, 0
9, 104460, Note_on_c, 7, 81, 99
9, 104490, Note_on_c, 7, 81, 0
9, 104490, Note_on_c, 7, 79, 99
9, 104520, Note_on_c, 7, 79, 0
9, 104520, Note_on_c, 7, 77, 94
9, 104550, Note_on_c, 7, 77, 0
9, 104550, Note_on_c, 7, 76, 104
9, 104580, Note_on_c, 7, 76, 0
9, 104580, Note_on_c, 7, 74, 94
9, 104610, Note_on_c, 7, 74, 0
9, 104610, Note_on_c, 7, 77, 94
9, 104640, Note_on_c, 7, 77, 0
9, 104640, Note_on_c, 7, 81, 99
9, 104670, Note_on_c, 7, 81, 0
9, 104670, Note_on_c, 7, 79, 99
9, 104700, Note_on_c, 7, 79, 0
9, 104700, Note_on_c, 7, 77, 93
9, 104730, Note_on_c, 7, 77, 0
9, 104730, Note_on_c, 7, 76, 101
9, 104760, Note_on_c, 7, 76, 0
9, 104760, Note_on_c, 7, 74, 110
9, 104790, Note_on_c, 7, 74, 0
9, 104790, Note_on_c, 7, 72, 89
9, 104820, Note_on_c, 7, 72, 0
9, 104820, Note_on_c, 7, 71, 99
9, 104850, Note_on_c, 7, 71, 0
9, 104850, Note_on_c, 7, 74, 99
9, 104880, Note_on_c, 7, 74, 0
9, 104880, Note_on_c, 7, 77, 94
9, 104910, Note_on_c, 7, 77, 0
9, 104910, Note_on_c, 7, 76, 105
9, 104940, Note_on_c, 7, 76, 0
9, 104940, Note_on_c, 7, 74, 110
9, 104970, Note_on_c, 7, 74, 0
9, 104970, Note_on_c, 7, 72, 99
9, 105000, Note_on_c, 7, 72, 0
9, 105000, Note_on_c, 7, 71, 104
9, 105030, Note_on_c, 7, 71, 0
9, 105030, Note_on_c, 7, 69, 99
9, 105060, Note_on_c, 7, 69, 0
9, 105060, Note_on_c, 7, 67, 89
9, 105090, Note_on_c, 7, 67, 0
9, 105090, Note_on_c, 7, 69, 101
9, 105120, Note_on_c, 7, 69, 0
9, 105120, Note_on_c, 7, 71, 101
9, 105150, Note_on_c, 7, 71, 0
9, 105150, Note_on_c, 7, 72, 86
9, 105180, Note_on_c, 7, 72, 0
9, 105180, Note_on_c, 7, 73, 86
9, 105210, Note_on_c, 7, 73, 0
9, 105210, Note_on_c, 7, 74, 95
9, 105240, Note_on_c, 7, 74, 0
9, 105240, Note_on_c, 7, 67, 74
9, 105270, Note_on_c, 7, 67, 0
9, 105270, Note_on_c, 7, 69, 86
9, 105300, Note_on_c, 7, 69, 0
9, 105300, Note_on_c, 7, 71, 73
9, 105330, Note_on_c, 7, 71, 0
9, 105330, Note_on_c, 7, 72, 70
9, 105360, Note_on_c, 7, 72, 0
9, 105360, Note_on_c, 7, 74, 93
9, 105390, Note_on_c, 7, 74, 0
9, 105390, Note_on_c, 7, 75, 84
9, 105420, Note_on_c, 7, 75, 0
9, 105420, Note_on_c, 7, 76, 78
9, 105450, Note_on_c, 7, 76, 0
9, 105450, Note_on_c, 7, 77, 60
9, 105480, Note_on_c, 7, 77, 0
9, 105480, Note_on_c, 7, 67, 68
9, 105510, Note_on_c, 7, 67, 0
9, 105510, Note_on_c, 7, 69, 78
9, 105540, Note_on_c, 7, 69, 0
9, 105540, Note_on_c, 7, 71, 65
9, 105570, Note_on_c, 7, 71, 0
9, 105570, Note_on_c, 7, 72, 84
9, 105600, Note_on_c, 7, 72, 0
9, 105600, Note_on_c, 7, 73, 57
9, 105630, Note_on_c, 7, 73, 0
9, 105630, Note_on_c, 7, 74, 69
9, 105660, Note_on_c, 7, 74, 0
9, 105660, Note_on_c, 7, 75, 62
9, 105690, Note_on_c, 7, 75, 0
9, 105690, Note_on_c, 7, 76, 61
9, 105720, Note_on_c, 7, 76, 0
9, 105720, Note_on_c, 7, 77, 53
9, 105750, Note_on_c, 7, 77, 0
9, 105750, Note_on_c, 7, 78, 50
9, 105780, Note_on_c, 7, 78, 0
9, 105780, Note_on_c, 7, 79, 42
9, 106140, Note_on_c, 7, 79, 0
9, 106320, Note_on_c, 7, 80, 73
9, 106380, Note_on_c, 7, 80, 0
9, 106380, Note_on_c, 7, 81, 80
9, 106410, Note_on_c, 7, 81, 0
9, 106440, Note_on_c, 7, 71, 84
9, 106440, Note_on_c, 7, 55, 54
9, 106440, Note_on_c, 7, 65, 53
9, 106440, Note_on_c, 7, 62, 67
9, 106470, Note_on_c, 7, 62, 0
9, 106470, Note_on_c, 7, 71, 0
9, 106470, Note_on_c, 7, 55, 0
9, 106470, Note_on_c, 7, 65, 0
9, 106500, Note_on_c, 7, 72, 80
9, 106500, Note_on_c, 7, 64, 64
9, 106500, Note_on_c, 7, 55, 61
9, 106500, Note_on_c, 7, 60, 70
9, 106530, Note_on_c, 7, 60, 0
9, 106530, Note_on_c, 7, 72, 0
9, 106530, Note_on_c, 7, 64, 0
9, 106530, Note_on_c, 7, 55, 0
9, 106560, Note_on_c, 7, 74, 89
9, 106560, Note_on_c, 7, 62, 53
9, 106560, Note_on_c, 7, 55, 46
9, 106560, Note_on_c, 7, 59, 62
9, 106590, Note_on_c, 7, 74, 0
9, 106680, Note_on_c, 7, 62, 0
9, 106680, Note_on_c, 7, 55, 0
9, 106680, Note_on_c, 7, 59, 0
9, 106680, Note_on_c, 7, 80, 72
9, 106740, Note_on_c, 7, 80, 0
9, 106740, Note_on_c, 7, 81, 85
9, 106770, Note_on_c, 7, 81, 0
9, 106800, Note_on_c, 7, 71, 86
9, 106800, Note_on_c, 7, 65, 62
9, 106800, Note_on_c, 7, 55, 44
9, 106800, Note_on_c, 7, 62, 63
9, 106830, Note_on_c, 7, 62, 0
9, 106830, Note_on_c, 7, 71, 0
9, 106830, Note_on_c, 7, 65, 0
9, 106830, Note_on_c, 7, 55, 0
9, 106860, Note_on_c, 7, 72, 69
9, 106860, Note_on_c, 7, 55, 65
9, 106860, Note_on_c, 7, 64, 68
9, 106860, Note_on_c, 7, 60, 73
9, 106890, Note_on_c, 7, 60, 0
9, 106890, Note_on_c, 7, 72, 0
9, 106890, Note_on_c, 7, 55, 0
9, 106890, Note_on_c, 7, 64, 0
9, 106920, Note_on_c, 7, 74, 95
9, 106920, Note_on_c, 7, 62, 44
9, 106920, Note_on_c, 7, 55, 45
9, 106920, Note_on_c, 7, 59, 63
9, 106950, Note_on_c, 7, 74, 0
9, 107040, Note_on_c, 7, 62, 0
9, 107040, Note_on_c, 7, 55, 0
9, 107040, Note_on_c, 7, 59, 0
9, 107040, Note_on_c, 7, 80, 80
9, 107100, Note_on_c, 7, 80, 0
9, 107100, Note_on_c, 7, 81, 82
9, 107130, Note_on_c, 7, 81, 0
9, 107160, Note_on_c, 7, 71, 93
9, 107160, Note_on_c, 7, 55, 62
9, 107160, Note_on_c, 7, 65, 61
9, 107160, Note_on_c, 7, 62, 70
9, 107190, Note_on_c, 7, 62, 0
9, 107190, Note_on_c, 7, 71, 0
9, 107190, Note_on_c, 7, 55, 0
9, 107190, Note_on_c, 7, 65, 0
9, 107220, Note_on_c, 7, 72, 73
9, 107220, Note_on_c, 7, 64, 64
9, 107220, Note_on_c, 7, 57, 80
9, 107220, Note_on_c, 7, 60, 68
9, 107250, Note_on_c, 7, 60, 0
9, 107250, Note_on_c, 7, 72, 0
9, 107250, Note_on_c, 7, 64, 0
9, 107250, Note_on_c, 7, 57, 0
9, 107280, Note_on_c, 7, 74, 86
9, 107280, Note_on_c, 7, 62, 52
9, 107280, Note_on_c, 7, 53, 70
9, 107280, Note_on_c, 7, 57, 81
9, 107310, Note_on_c, 7, 74, 0
9, 107340, Note_on_c, 7, 76, 85
9, 107370, Note_on_c, 7, 76, 0
9, 107400, Note_on_c, 7, 57, 0
9, 107400, Note_on_c, 7, 53, 0
9, 107400, Note_on_c, 7, 62, 0
9, 107400, Note_on_c, 7, 77, 80
9, 107430, Note_on_c, 7, 77, 0
9, 107460, Note_on_c, 7, 67, 80
9, 107460, Note_on_c, 7, 65, 64
9, 107460, Note_on_c, 7, 55, 65
9, 107460, Note_on_c, 7, 62, 68
9, 107490, Note_on_c, 7, 67, 0
9, 107520, Note_on_c, 7, 69, 80
9, 107550, Note_on_c, 7, 69, 0
9, 107580, Note_on_c, 7, 62, 0
9, 107580, Note_on_c, 7, 55, 0
9, 107580, Note_on_c, 7, 65, 0
9, 107580, Note_on_c, 7, 71, 81
9, 107610, Note_on_c, 7, 71, 0
9, 107640, Note_on_c, 7, 72, 73
9, 107640, Note_on_c, 7, 60, 67
9, 107640, Note_on_c, 7, 64, 70
9, 107760, Note_on_c, 7, 64, 0
9, 107760, Note_on_c, 7, 60, 0
9, 107760, Note_on_c, 7, 72, 0
9, 109260, Note_on_c, 7, 45, 84
9, 109260, Note_on_c, 7, 65, 73
9, 109290, Note_on_c, 7, 65, 0
9, 109290, Note_on_c, 7, 45, 0
9, 109290, Note_on_c, 7, 77, 74
9, 109290, Note_on_c, 7, 57, 74
9, 109320, Note_on_c, 7, 57, 0
9, 109320, Note_on_c, 7, 77, 0
9, 109320, Note_on_c, 7, 48, 77
9, 109320, Note_on_c, 7, 72, 95
9, 109350, Note_on_c, 7, 72, 0
9, 109350, Note_on_c, 7, 48, 0
9, 109350, Note_on_c, 7, 57, 80
9, 109350, Note_on_c, 7, 77, 81
9, 109380, Note_on_c, 7, 77, 0
9, 109380, Note_on_c, 7, 57, 0
9, 109380, Note_on_c, 7, 45, 80
9, 109380, Note_on_c, 7, 65, 77
9, 109410, Note_on_c, 7, 65, 0
9, 109410, Note_on_c, 7, 45, 0
9, 109410, Note_on_c, 7, 77, 71
9, 109410, Note_on_c, 7, 57, 69
9, 109440, Note_on_c, 7, 57, 0
9, 109440, Note_on_c, 7, 77, 0
9, 109440, Note_on_c, 7, 48, 80
9, 109440, Note_on_c, 7, 72, 95
9, 109470, Note_on_c, 7, 72, 0
9, 109470, Note_on_c, 7, 48, 0
9, 109470, Note_on_c, 7, 55, 65
9, 109470, Note_on_c, 7, 76, 89
9, 109500, Note_on_c, 7, 76, 0
9, 109500, Note_on_c, 7, 55, 0
9, 109500, Note_on_c, 7, 43, 76
9, 109500, Note_on_c, 7, 64, 73
9, 109530, Note_on_c, 7, 64, 0
9, 109530, Note_on_c, 7, 43, 0
9, 109530, Note_on_c, 7, 76, 89
9, 109530, Note_on_c, 7, 55, 65
9, 109560, Note_on_c, 7, 55, 0
9, 109560, Note_on_c, 7, 76, 0
9, 109560, Note_on_c, 7, 48, 77
9, 109560, Note_on_c, 7, 72, 90
9, 109590, Note_on_c, 7, 72, 0
9, 109590, Note_on_c, 7, 48, 0
9, 109590, Note_on_c, 7, 55, 67
9, 109590, Note_on_c, 7, 76, 90
9, 109620, Note_on_c, 7, 76, 0
9, 109620, Note_on_c, 7, 55, 0
9, 109620, Note_on_c, 7, 41, 82
9, 109620, Note_on_c, 7, 62, 65
9, 109650, Note_on_c, 7, 62, 0
9, 109650, Note_on_c, 7, 41, 0
9, 109650, Note_on_c, 7, 53, 72
9, 109650, Note_on_c, 7, 74, 82
9, 109680, Note_on_c, 7, 74, 0
9, 109680, Note_on_c, 7, 53, 0
9, 109680, Note_on_c, 7, 48, 81
9, 109680, Note_on_c, 7, 72, 85
9, 109710, Note_on_c, 7, 72, 0
9, 109710, Note_on_c, 7, 48, 0
9, 109710, Note_on_c, 7, 53, 72
9, 109710, Note_on_c, 7, 74, 89
9, 109740, Note_on_c, 7, 74, 0
9, 109740, Note_on_c, 7, 53, 0
9, 109740, Note_on_c, 7, 41, 81
9, 109740, Note_on_c, 7, 62, 69
9, 109770, Note_on_c, 7, 62, 0
9, 109770, Note_on_c, 7, 41, 0
9, 109770, Note_on_c, 7, 74, 94
9, 109770, Note_on_c, 7, 53, 67
9, 109800, Note_on_c, 7, 53, 0
9, 109800, Note_on_c, 7, 74, 0
9, 109800, Note_on_c, 7, 48, 82
9, 109800, Note_on_c, 7, 71, 84
9, 109830, Note_on_c, 7, 71, 0
9, 109830, Note_on_c, 7, 48, 0
9, 109830, Note_on_c, 7, 72, 69
9, 109830, Note_on_c, 7, 52, 84
9, 109860, Note_on_c, 7, 52, 0
9, 109860, Note_on_c, 7, 72, 0
9, 109860, Note_on_c, 7, 40, 89
9, 109860, Note_on_c, 7, 60, 82
9, 109890, Note_on_c, 7, 60, 0
9, 109890, Note_on_c, 7, 40, 0
9, 109890, Note_on_c, 7, 72, 56
9, 109890, Note_on_c, 7, 52, 74
9, 109920, Note_on_c, 7, 52, 0
9, 109920, Note_on_c, 7, 72, 0
9, 109920, Note_on_c, 7, 48, 80
9, 109920, Note_on_c, 7, 71, 84
9, 109950, Note_on_c, 7, 71, 0
9, 109950, Note_on_c, 7, 48, 0
9, 109950, Note_on_c, 7, 52, 77
9, 109950, Note_on_c, 7, 72, 76
9, 109980, Note_on_c, 7, 72, 0
9, 109980, Note_on_c, 7, 52, 0
9, 109980, Note_on_c, 7, 69, 76
9, 109980, Note_on_c, 7, 41, 84
9, 110010, Note_on_c, 7, 41, 0
9, 110010, Note_on_c, 7, 69, 0
9, 110010, Note_on_c, 7, 53, 73
9, 110010, Note_on_c, 7, 81, 76
9, 110040, Note_on_c, 7, 81, 0
9, 110040, Note_on_c, 7, 53, 0
9, 110040, Note_on_c, 7, 48, 80
9, 110040, Note_on_c, 7, 72, 38
9, 110070, Note_on_c, 7, 72, 0
9, 110070, Note_on_c, 7, 48, 0
9, 110070, Note_on_c, 7, 53, 62
9, 110070, Note_on_c, 7, 81, 66
9, 110100, Note_on_c, 7, 81, 0
9, 110100, Note_on_c, 7, 53, 0
9, 110100, Note_on_c, 7, 69, 74
9, 110100, Note_on_c, 7, 41, 82
9, 110130, Note_on_c, 7, 41, 0
9, 110130, Note_on_c, 7, 69, 0
9, 110130, Note_on_c, 7, 81, 81
9, 110130, Note_on_c, 7, 53, 71
9, 110160, Note_on_c, 7, 53, 0
9, 110160, Note_on_c, 7, 81, 0
9, 110160, Note_on_c, 7, 48, 85
9, 110160, Note_on_c, 7, 72, 76
9, 110190, Note_on_c, 7, 72, 0
9, 110190, Note_on_c, 7, 48, 0
9, 110190, Note_on_c, 7, 79, 84
9, 110190, Note_on_c, 7, 52, 76
9, 110220, Note_on_c, 7, 52, 0
9, 110220, Note_on_c, 7, 79, 0
9, 110220, Note_on_c, 7, 40, 76
9, 110220, Note_on_c, 7, 67, 67
9, 110250, Note_on_c, 7, 67, 0
9, 110250, Note_on_c, 7, 40, 0
9, 110250, Note_on_c, 7, 79, 78
9, 110250, Note_on_c, 7, 52, 81
9, 110280, Note_on_c, 7, 52, 0
9, 110280, Note_on_c, 7, 79, 0
9, 110280, Note_on_c, 7, 48, 82
9, 110280, Note_on_c, 7, 72, 85
9, 110310, Note_on_c, 7, 72, 0
9, 110310, Note_on_c, 7, 48, 0
9, 110310, Note_on_c, 7, 79, 84
9, 110310, Note_on_c, 7, 52, 82
9, 110340, Note_on_c, 7, 52, 0
9, 110340, Note_on_c, 7, 79, 0
9, 110340, Note_on_c, 7, 67, 71
9, 110340, Note_on_c, 7, 38, 84
9, 110370, Note_on_c, 7, 38, 0
9, 110370, Note_on_c, 7, 67, 0
9, 110370, Note_on_c, 7, 77, 84
9, 110370, Note_on_c, 7, 50, 72
9, 110400, Note_on_c, 7, 50, 0
9, 110400, Note_on_c, 7, 77, 0
9, 110400, Note_on_c, 7, 48, 72
9, 110400, Note_on_c, 7, 72, 85
9, 110430, Note_on_c, 7, 72, 0
9, 110430, Note_on_c, 7, 48, 0
9, 110430, Note_on_c, 7, 50, 77
9, 110430, Note_on_c, 7, 77, 84
9, 110460, Note_on_c, 7, 77, 0
9, 110460, Note_on_c, 7, 50, 0
9, 110460, Note_on_c, 7, 38, 73
9, 110460, Note_on_c, 7, 65, 74
9, 110490, Note_on_c, 7, 65, 0
9, 110490, Note_on_c, 7, 38, 0
9, 110490, Note_on_c, 7, 50, 74
9, 110490, Note_on_c, 7, 77, 84
9, 110520, Note_on_c, 7, 77, 0
9, 110520, Note_on_c, 7, 50, 0
9, 110520, Note_on_c, 7, 47, 81
9, 110520, Note_on_c, 7, 72, 95
9, 110550, Note_on_c, 7, 72, 0
9, 110550, Note_on_c, 7, 47, 0
9, 110550, Note_on_c, 7, 48, 76
9, 110550, Note_on_c, 7, 76, 95
9, 110580, Note_on_c, 7, 76, 0
9, 110580, Note_on_c, 7, 48, 0
9, 110580, Note_on_c, 7, 36, 78
9, 110580, Note_on_c, 7, 67, 62
9, 110610, Note_on_c, 7, 67, 0
9, 110610, Note_on_c, 7, 36, 0
9, 110610, Note_on_c, 7, 48, 76
9, 110610, Note_on_c, 7, 76, 76
9, 110640, Note_on_c, 7, 76, 0
9, 110640, Note_on_c, 7, 48, 0
9, 110640, Note_on_c, 7, 47, 77
9, 110640, Note_on_c, 7, 72, 64
9, 110670, Note_on_c, 7, 72, 0
9, 110670, Note_on_c, 7, 47, 0
9, 110670, Note_on_c, 7, 48, 80
9, 110670, Note_on_c, 7, 76, 93
9, 110700, Note_on_c, 7, 76, 0
9, 110700, Note_on_c, 7, 48, 0
9, 110700, Note_on_c, 7, 45, 81
9, 110700, Note_on_c, 7, 72, 81
9, 110730, Note_on_c, 7, 72, 0
9, 110730, Note_on_c, 7, 45, 0
9, 110730, Note_on_c, 7, 84, 90
9, 110730, Note_on_c, 7, 48, 77
9, 110760, Note_on_c, 7, 48, 0
9, 110760, Note_on_c, 7, 84, 0
9, 110760, Note_on_c, 7, 77, 73
9, 110760, Note_on_c, 7, 48, 78
9, 110790, Note_on_c, 7, 48, 0
9, 110790, Note_on_c, 7, 77, 0
9, 110790, Note_on_c, 7, 84, 77
9, 110790, Note_on_c, 7, 57, 76
9, 110820, Note_on_c, 7, 57, 0
9, 110820, Note_on_c, 7, 84, 0
9, 110820, Note_on_c, 7, 45, 77
9, 110820, Note_on_c, 7, 72, 72
9, 110850, Note_on_c, 7, 72, 0
9, 110850, Note_on_c, 7, 45, 0
9, 110850, Note_on_c, 7, 57, 71
9, 110850, Note_on_c, 7, 84, 76
9, 110880, Note_on_c, 7, 84, 0
9, 110880, Note_on_c, 7, 57, 0
9, 110880, Note_on_c, 7, 48, 77
9, 110880, Note_on_c, 7, 76, 77
9, 110910, Note_on_c, 7, 76, 0
9, 110910, Note_on_c, 7, 48, 0
9, 110910, Note_on_c, 7, 55, 78
9, 110910, Note_on_c, 7, 84, 94
9, 110940, Note_on_c, 7, 84, 0
9, 110940, Note_on_c, 7, 55, 0
9, 110940, Note_on_c, 7, 43, 76
9, 110940, Note_on_c, 7, 72, 70
9, 110970, Note_on_c, 7, 72, 0
9, 110970, Note_on_c, 7, 43, 0
9, 110970, Note_on_c, 7, 55, 65
9, 110970, Note_on_c, 7, 84, 85
9, 111000, Note_on_c, 7, 84, 0
9, 111000, Note_on_c, 7, 55, 0
9, 111000, Note_on_c, 7, 76, 73
9, 111000, Note_on_c, 7, 48, 64
9, 111030, Note_on_c, 7, 48, 0
9, 111030, Note_on_c, 7, 76, 0
9, 111030, Note_on_c, 7, 55, 70
9, 111030, Note_on_c, 7, 84, 80
9, 111060, Note_on_c, 7, 84, 0
9, 111060, Note_on_c, 7, 55, 0
9, 111060, Note_on_c, 7, 41, 74
9, 111060, Note_on_c, 7, 72, 51
9, 111090, Note_on_c, 7, 72, 0
9, 111090, Note_on_c, 7, 41, 0
9, 111090, Note_on_c, 7, 53, 70
9, 111090, Note_on_c, 7, 84, 82
9, 111120, Note_on_c, 7, 84, 0
9, 111120, Note_on_c, 7, 53, 0
9, 111120, Note_on_c, 7, 48, 80
9, 111120, Note_on_c, 7, 74, 78
9, 111150, Note_on_c, 7, 74, 0
9, 111150, Note_on_c, 7, 48, 0
9, 111150, Note_on_c, 7, 53, 73
9, 111150, Note_on_c, 7, 84, 84
9, 111180, Note_on_c, 7, 84, 0
9, 111180, Note_on_c, 7, 53, 0
9, 111180, Note_on_c, 7, 41, 78
9, 111180, Note_on_c, 7, 72, 81
9, 111210, Note_on_c, 7, 72, 0
9, 111210, Note_on_c, 7, 41, 0
9, 111210, Note_on_c, 7, 53, 64
9, 111210, Note_on_c, 7, 84, 84
9, 111240, Note_on_c, 7, 84, 0
9, 111240, Note_on_c, 7, 53, 0
9, 111240, Note_on_c, 7, 48, 71
9, 111240, Note_on_c, 7, 79, 85
9, 111270, Note_on_c, 7, 79, 0
9, 111270, Note_on_c, 7, 48, 0
9, 111270, Note_on_c, 7, 52, 77
9, 111270, Note_on_c, 7, 84, 89
9, 111300, Note_on_c, 7, 84, 0
9, 111300, Note_on_c, 7, 52, 0
9, 111300, Note_on_c, 7, 40, 86
9, 111300, Note_on_c, 7, 72, 80
9, 111330, Note_on_c, 7, 72, 0
9, 111330, Note_on_c, 7, 40, 0
9, 111330, Note_on_c, 7, 84, 82
9, 111330, Note_on_c, 7, 52, 80
9, 111360, Note_on_c, 7, 52, 0
9, 111360, Note_on_c, 7, 84, 0
9, 111360, Note_on_c, 7, 48, 77
9, 111360, Note_on_c, 7, 79, 84
9, 111390, Note_on_c, 7, 79, 0
9, 111390, Note_on_c, 7, 48, 0
9, 111390, Note_on_c, 7, 84, 80
9, 111390, Note_on_c, 7, 52, 73
9, 111420, Note_on_c, 7, 52, 0
9, 111420, Note_on_c, 7, 84, 0
9, 111420, Note_on_c, 7, 41, 85
9, 111420, Note_on_c, 7, 72, 73
9, 111450, Note_on_c, 7, 72, 0
9, 111450, Note_on_c, 7, 41, 0
9, 111450, Note_on_c, 7, 84, 86
9, 111450, Note_on_c, 7, 53, 67
9, 111480, Note_on_c, 7, 53, 0
9, 111480, Note_on_c, 7, 84, 0
9, 111480, Note_on_c, 7, 48, 78
9, 111480, Note_on_c, 7, 81, 89
9, 111510, Note_on_c, 7, 81, 0
9, 111510, Note_on_c, 7, 48, 0
9, 111510, Note_on_c, 7, 84, 85
9, 111510, Note_on_c, 7, 53, 70
9, 111540, Note_on_c, 7, 53, 0
9, 111540, Note_on_c, 7, 84, 0
9, 111540, Note_on_c, 7, 41, 84
9, 111540, Note_on_c, 7, 72, 80
9, 111570, Note_on_c, 7, 72, 0
9, 111570, Note_on_c, 7, 41, 0
9, 111570, Note_on_c, 7, 84, 86
9, 111570, Note_on_c, 7, 53, 63
9, 111600, Note_on_c, 7, 53, 0
9, 111600, Note_on_c, 7, 84, 0
9, 111600, Note_on_c, 7, 48, 78
9, 111600, Note_on_c, 7, 79, 81
9, 111630, Note_on_c, 7, 79, 0
9, 111630, Note_on_c, 7, 48, 0
9, 111630, Note_on_c, 7, 84, 85
9, 111630, Note_on_c, 7, 52, 84
9, 111660, Note_on_c, 7, 52, 0
9, 111660, Note_on_c, 7, 84, 0
9, 111660, Note_on_c, 7, 40, 81
9, 111660, Note_on_c, 7, 72, 76
9, 111690, Note_on_c, 7, 72, 0
9, 111690, Note_on_c, 7, 40, 0
9, 111690, Note_on_c, 7, 84, 82
9, 111690, Note_on_c, 7, 52, 76
9, 111720, Note_on_c, 7, 52, 0
9, 111720, Note_on_c, 7, 84, 0
9, 111720, Note_on_c, 7, 48, 73
9, 111720, Note_on_c, 7, 79, 85
9, 111750, Note_on_c, 7, 79, 0
9, 111750, Note_on_c, 7, 48, 0
9, 111750, Note_on_c, 7, 84, 80
9, 111750, Note_on_c, 7, 52, 81
9, 111780, Note_on_c, 7, 52, 0
9, 111780, Note_on_c, 7, 84, 0
9, 111780, Note_on_c, 7, 38, 85
9, 111780, Note_on_c, 7, 72, 73
9, 111810, Note_on_c, 7, 72, 0
9, 111810, Note_on_c, 7, 38, 0
9, 111810, Note_on_c, 7, 84, 89
9, 111810, Note_on_c, 7, 50, 74
9, 111840, Note_on_c, 7, 50, 0
9, 111840, Note_on_c, 7, 84, 0
9, 111840, Note_on_c, 7, 77, 71
9, 111840, Note_on_c, 7, 48, 86
9, 111870, Note_on_c, 7, 48, 0
9, 111870, Note_on_c, 7, 77, 0
9, 111870, Note_on_c, 7, 84, 86
9, 111870, Note_on_c, 7, 50, 76
9, 111900, Note_on_c, 7, 50, 0
9, 111900, Note_on_c, 7, 84, 0
9, 111900, Note_on_c, 7, 38, 89
9, 111900, Note_on_c, 7, 72, 80
9, 111930, Note_on_c, 7, 72, 0
9, 111930, Note_on_c, 7, 38, 0
9, 111930, Note_on_c, 7, 84, 84
9, 111930, Note_on_c, 7, 50, 81
9, 111960, Note_on_c, 7, 50, 0
9, 111960, Note_on_c, 7, 84, 0
9, 111960, Note_on_c, 7, 48, 72
9, 111960, Note_on_c, 7, 36, 74
9, 111960, Note_on_c, 7, 72, 64
9, 111990, Note_on_c, 7, 72, 0
9, 111990, Note_on_c, 7, 36, 0
9, 111990, Note_on_c, 7, 48, 0
9, 111990, Note_on_c, 7, 47, 76
9, 111990, Note_on_c, 7, 71, 82
9, 112020, Note_on_c, 7, 71, 0
9, 112020, Note_on_c, 7, 47, 0
9, 112020, Note_on_c, 7, 48, 76
9, 112020, Note_on_c, 7, 72, 66
9, 112050, Note_on_c, 7, 72, 0
9, 112050, Note_on_c, 7, 48, 0
9, 112050, Note_on_c, 7, 50, 80
9, 112050, Note_on_c, 7, 74, 98
9, 112080, Note_on_c, 7, 74, 0
9, 112080, Note_on_c, 7, 50, 0
9, 112080, Note_on_c, 7, 52, 89
9, 112080, Note_on_c, 7, 76, 89
9, 112110, Note_on_c, 7, 76, 0
9, 112110, Note_on_c, 7, 52, 0
9, 112110, Note_on_c, 7, 53, 80
9, 112110, Note_on_c, 7, 77, 65
9, 112140, Note_on_c, 7, 77, 0
9, 112140, Note_on_c, 7, 53, 0
9, 112140, Note_on_c, 7, 55, 107
9, 112140, Note_on_c, 7, 79, 112
9, 112170, Note_on_c, 7, 79, 0
9, 112170, Note_on_c, 7, 55, 0
9, 112170, Note_on_c, 7, 54, 77
9, 112170, Note_on_c, 7, 78, 84
9, 112200, Note_on_c, 7, 78, 0
9, 112200, Note_on_c, 7, 54, 0
9, 112200, Note_on_c, 7, 79, 80
9, 112200, Note_on_c, 7, 55, 78
9, 112230, Note_on_c, 7, 55, 0
9, 112230, Note_on_c, 7, 79, 0
9, 112230, Note_on_c, 7, 50, 94
9, 112230, Note_on_c, 7, 74, 94
9, 112260, Note_on_c, 7, 74, 0
9, 112260, Note_on_c, 7, 50, 0
9, 112260, Note_on_c, 7, 47, 85
9, 112260, Note_on_c, 7, 71, 85
9, 112290, Note_on_c, 7, 71, 0
9, 112290, Note_on_c, 7, 47, 0
9, 112290, Note_on_c, 7, 43, 86
9, 112290, Note_on_c, 7, 67, 77
9, 112320, Note_on_c, 7, 67, 0
9, 112320, Note_on_c, 7, 43, 0
9, 112320, Note_on_c, 7, 50, 89
9, 112320, Note_on_c, 7, 74, 86
9, 112350, Note_on_c, 7, 74, 0
9, 112350, Note_on_c, 7, 50, 0
9, 112350, Note_on_c, 7, 49, 84
9, 112350, Note_on_c, 7, 73, 80
9, 112380, Note_on_c, 7, 73, 0
9, 112380, Note_on_c, 7, 49, 0
9, 112380, Note_on_c, 7, 74, 94
9, 112380, Note_on_c, 7, 50, 89
9, 112410, Note_on_c, 7, 50, 0
9, 112410, Note_on_c, 7, 74, 0
9, 112410, Note_on_c, 7, 76, 89
9, 112410, Note_on_c, 7, 52, 95
9, 112440, Note_on_c, 7, 52, 0
9, 112440, Note_on_c, 7, 76, 0
9, 112440, Note_on_c, 7, 53, 80
9, 112440, Note_on_c, 7, 77, 84
9, 112470, Note_on_c, 7, 77, 0
9, 112470, Note_on_c, 7, 53, 0
9, 112470, Note_on_c, 7, 55, 85
9, 112470, Note_on_c, 7, 79, 90
9, 112500, Note_on_c, 7, 79, 0
9, 112500, Note_on_c, 7, 55, 0
9, 112500, Note_on_c, 7, 57, 110
9, 112500, Note_on_c, 7, 81, 112
9, 112530, Note_on_c, 7, 81, 0
9, 112530, Note_on_c, 7, 57, 0
9, 112530, Note_on_c, 7, 56, 80
9, 112530, Note_on_c, 7, 80, 84
9, 112560, Note_on_c, 7, 80, 0
9, 112560, Note_on_c, 7, 56, 0
9, 112560, Note_on_c, 7, 81, 84
9, 112560, Note_on_c, 7, 57, 89
9, 112590, Note_on_c, 7, 57, 0
9, 112590, Note_on_c, 7, 81, 0
9, 112590, Note_on_c, 7, 76, 94
9, 112590, Note_on_c, 7, 52, 98
9, 112620, Note_on_c, 7, 52, 0
9, 112620, Note_on_c, 7, 76, 0
9, 112620, Note_on_c, 7, 48, 93
9, 112620, Note_on_c, 7, 72, 81
9, 112650, Note_on_c, 7, 72, 0
9, 112650, Note_on_c, 7, 48, 0
9, 112650, Note_on_c, 7, 69, 84
9, 112650, Note_on_c, 7, 45, 90
9, 112680, Note_on_c, 7, 45, 0
9, 112680, Note_on_c, 7, 69, 0
9, 112680, Note_on_c, 7, 53, 85
9, 112680, Note_on_c, 7, 77, 84
9, 112710, Note_on_c, 7, 77, 0
9, 112710, Note_on_c, 7, 53, 0
9, 112710, Note_on_c, 7, 52, 90
9, 112710, Note_on_c, 7, 76, 89
9, 112740, Note_on_c, 7, 76, 0
9, 112740, Note_on_c, 7, 52, 0
9, 112740, Note_on_c, 7, 53, 80
9, 112740, Note_on_c, 7, 77, 89
9, 112770, Note_on_c, 7, 77, 0
9, 112770, Note_on_c, 7, 53, 0
9, 112770, Note_on_c, 7, 79, 84
9, 112770, Note_on_c, 7, 55, 73
9, 112800, Note_on_c, 7, 55, 0
9, 112800, Note_on_c, 7, 79, 0
9, 112800, Note_on_c, 7, 57, 93
9, 112800, Note_on_c, 7, 81, 85
9, 112830, Note_on_c, 7, 81, 0
9, 112830, Note_on_c, 7, 57, 0
9, 112830, Note_on_c, 7, 83, 94
9, 112830, Note_on_c, 7, 59, 93
9, 112860, Note_on_c, 7, 59, 0
9, 112860, Note_on_c, 7, 83, 0
9, 112860, Note_on_c, 7, 60, 115
9, 112860, Note_on_c, 7, 84, 117
9, 112890, Note_on_c, 7, 84, 0
9, 112890, Note_on_c, 7, 60, 0
9, 112890, Note_on_c, 7, 59, 80
9, 112890, Note_on_c, 7, 83, 94
9, 112920, Note_on_c, 7, 83, 0
9, 112920, Note_on_c, 7, 59, 0
9, 112920, Note_on_c, 7, 60, 76
9, 112920, Note_on_c, 7, 84, 89
9, 112950, Note_on_c, 7, 84, 0
9, 112950, Note_on_c, 7, 60, 0
9, 112950, Note_on_c, 7, 55, 73
9, 112950, Note_on_c, 7, 79, 90
9, 112980, Note_on_c, 7, 79, 0
9, 112980, Note_on_c, 7, 55, 0
9, 112980, Note_on_c, 7, 76, 90
9, 112980, Note_on_c, 7, 52, 89
9, 113010, Note_on_c, 7, 52, 0
9, 113010, Note_on_c, 7, 76, 0
9, 113010, Note_on_c, 7, 48, 90
9, 113010, Note_on_c, 7, 72, 65
9, 113040, Note_on_c, 7, 72, 0
9, 113040, Note_on_c, 7, 48, 0
9, 113040, Note_on_c, 7, 77, 112
9, 113040, Note_on_c, 7, 53, 104
9, 113070, Note_on_c, 7, 53, 0
9, 113070, Note_on_c, 7, 77, 0
9, 113070, Note_on_c, 7, 52, 86
9, 113070, Note_on_c, 7, 76, 89
9, 113100, Note_on_c, 7, 76, 0
9, 113100, Note_on_c, 7, 52, 0
9, 113100, Note_on_c, 7, 77, 89
9, 113100, Note_on_c, 7, 53, 73
9, 113130, Note_on_c, 7, 53, 0
9, 113130, Note_on_c, 7, 77, 0
9, 113130, Note_on_c, 7, 74, 93
9, 113130, Note_on_c, 7, 50, 90
9, 113160, Note_on_c, 7, 50, 0
9, 113160, Note_on_c, 7, 74, 0
9, 113160, Note_on_c, 7, 45, 86
9, 113160, Note_on_c, 7, 69, 90
9, 113190, Note_on_c, 7, 69, 0
9, 113190, Note_on_c, 7, 45, 0
9, 113190, Note_on_c, 7, 65, 86
9, 113190, Note_on_c, 7, 41, 93
9, 113220, Note_on_c, 7, 41, 0
9, 113220, Note_on_c, 7, 65, 0
9, 113220, Note_on_c, 7, 55, 107
9, 113220, Note_on_c, 7, 79, 115
9, 113250, Note_on_c, 7, 79, 0
9, 113250, Note_on_c, 7, 55, 0
9, 113250, Note_on_c, 7, 54, 85
9, 113250, Note_on_c, 7, 78, 85
9, 113280, Note_on_c, 7, 78, 0
9, 113280, Note_on_c, 7, 54, 0
9, 113280, Note_on_c, 7, 79, 81
9, 113280, Note_on_c, 7, 55, 80
9, 113310, Note_on_c, 7, 55, 0
9, 113310, Note_on_c, 7, 79, 0
9, 113310, Note_on_c, 7, 74, 99
9, 113310, Note_on_c, 7, 50, 98
9, 113340, Note_on_c, 7, 50, 0
9, 113340, Note_on_c, 7, 74, 0
9, 113340, Note_on_c, 7, 47, 86
9, 113340, Note_on_c, 7, 71, 86
9, 113370, Note_on_c, 7, 71, 0
9, 113370, Note_on_c, 7, 47, 0
9, 113370, Note_on_c, 7, 43, 86
9, 113370, Note_on_c, 7, 67, 82
9, 113400, Note_on_c, 7, 67, 0
9, 113400, Note_on_c, 7, 43, 0
9, 113400, Note_on_c, 7, 48, 81
9, 113400, Note_on_c, 7, 60, 84
9, 113430, Note_on_c, 7, 60, 0
9, 113430, Note_on_c, 7, 48, 0
9, 113430, Note_on_c, 7, 47, 84
9, 113430, Note_on_c, 7, 59, 84
9, 113460, Note_on_c, 7, 59, 0
9, 113460, Note_on_c, 7, 47, 0
9, 113460, Note_on_c, 7, 48, 74
9, 113460, Note_on_c, 7, 60, 82
9, 113490, Note_on_c, 7, 60, 0
9, 113490, Note_on_c, 7, 48, 0
9, 113490, Note_on_c, 7, 50, 89
9, 113490, Note_on_c, 7, 62, 89
9, 113520, Note_on_c, 7, 62, 0
9, 113520, Note_on_c, 7, 50, 0
9, 113520, Note_on_c, 7, 52, 94
9, 113520, Note_on_c, 7, 64, 90
9, 113550, Note_on_c, 7, 64, 0
9, 113550, Note_on_c, 7, 52, 0
9, 113550, Note_on_c, 7, 65, 84
9, 113550, Note_on_c, 7, 53, 81
9, 113580, Note_on_c, 7, 53, 0
9, 113580, Note_on_c, 7, 65, 0
9, 113580, Note_on_c, 7, 67, 112
9, 113580, Note_on_c, 7, 55, 110
9, 113610, Note_on_c, 7, 55, 0
9, 113610, Note_on_c, 7, 67, 0
9, 113610, Note_on_c, 7, 66, 82
9, 113610, Note_on_c, 7, 54, 81
9, 113640, Note_on_c, 7, 54, 0
9, 113640, Note_on_c, 7, 66, 0
9, 113640, Note_on_c, 7, 67, 86
9, 113640, Note_on_c, 7, 55, 89
9, 113670, Note_on_c, 7, 55, 0
9, 113670, Note_on_c, 7, 67, 0
9, 113670, Note_on_c, 7, 50, 86
9, 113670, Note_on_c, 7, 62, 86
9, 113700, Note_on_c, 7, 62, 0
9, 113700, Note_on_c, 7, 50, 0
9, 113700, Note_on_c, 7, 59, 89
9, 113700, Note_on_c, 7, 47, 85
9, 113730, Note_on_c, 7, 47, 0
9, 113730, Note_on_c, 7, 59, 0
9, 113730, Note_on_c, 7, 43, 89
9, 113730, Note_on_c, 7, 55, 81
9, 113760, Note_on_c, 7, 55, 0
9, 113760, Note_on_c, 7, 43, 0
9, 113760, Note_on_c, 7, 62, 85
9, 113760, Note_on_c, 7, 50, 94
9, 113790, Note_on_c, 7, 50, 0
9, 113790, Note_on_c, 7, 62, 0
9, 113790, Note_on_c, 7, 61, 82
9, 113790, Note_on_c, 7, 49, 85
9, 113820, Note_on_c, 7, 49, 0
9, 113820, Note_on_c, 7, 61, 0
9, 113820, Note_on_c, 7, 50, 95
9, 113820, Note_on_c, 7, 62, 89
9, 113850, Note_on_c, 7, 62, 0
9, 113850, Note_on_c, 7, 50, 0
9, 113850, Note_on_c, 7, 64, 94
9, 113850, Note_on_c, 7, 52, 93
9, 113880, Note_on_c, 7, 52, 0
9, 113880, Note_on_c, 7, 64, 0
9, 113880, Note_on_c, 7, 65, 89
9, 113880, Note_on_c, 7, 53, 84
9, 113910, Note_on_c, 7, 53, 0
9, 113910, Note_on_c, 7, 65, 0
9, 113910, Note_on_c, 7, 55, 89
9, 113910, Note_on_c, 7, 67, 81
9, 113940, Note_on_c, 7, 67, 0
9, 113940, Note_on_c, 7, 55, 0
9, 113940, Note_on_c, 7, 57, 115
9, 113940, Note_on_c, 7, 69, 115
9, 113970, Note_on_c, 7, 69, 0
9, 113970, Note_on_c, 7, 57, 0
9, 113970, Note_on_c, 7, 56, 73
9, 113970, Note_on_c, 7, 68, 84
9, 114000, Note_on_c, 7, 68, 0
9, 114000, Note_on_c, 7, 56, 0
9, 114000, Note_on_c, 7, 69, 89
9, 114000, Note_on_c, 7, 57, 95
9, 114030, Note_on_c, 7, 57, 0
9, 114030, Note_on_c, 7, 69, 0
9, 114030, Note_on_c, 7, 64, 89
9, 114030, Note_on_c, 7, 52, 90
9, 114060, Note_on_c, 7, 52, 0
9, 114060, Note_on_c, 7, 64, 0
9, 114060, Note_on_c, 7, 48, 84
9, 114060, Note_on_c, 7, 60, 82
9, 114090, Note_on_c, 7, 60, 0
9, 114090, Note_on_c, 7, 48, 0
9, 114090, Note_on_c, 7, 45, 89
9, 114090, Note_on_c, 7, 57, 89
9, 114120, Note_on_c, 7, 57, 0
9, 114120, Note_on_c, 7, 45, 0
9, 114120, Note_on_c, 7, 65, 90
9, 114120, Note_on_c, 7, 53, 81
9, 114150, Note_on_c, 7, 53, 0
9, 114150, Note_on_c, 7, 65, 0
9, 114150, Note_on_c, 7, 52, 90
9, 114150, Note_on_c, 7, 64, 84
9, 114180, Note_on_c, 7, 64, 0
9, 114180, Note_on_c, 7, 52, 0
9, 114180, Note_on_c, 7, 53, 80
9, 114180, Note_on_c, 7, 65, 89
9, 114210, Note_on_c, 7, 65, 0
9, 114210, Note_on_c, 7, 53, 0
9, 114210, Note_on_c, 7, 67, 89
9, 114210, Note_on_c, 7, 55, 77
9, 114240, Note_on_c, 7, 55, 0
9, 114240, Note_on_c, 7, 67, 0
9, 114240, Note_on_c, 7, 57, 98
9, 114240, Note_on_c, 7, 69, 93
9, 114270, Note_on_c, 7, 69, 0
9, 114270, Note_on_c, 7, 57, 0
9, 114270, Note_on_c, 7, 71, 89
9, 114270, Note_on_c, 7, 59, 89
9, 114300, Note_on_c, 7, 59, 0
9, 114300, Note_on_c, 7, 71, 0
9, 114300, Note_on_c, 7, 60, 104
9, 114300, Note_on_c, 7, 72, 105
9, 114330, Note_on_c, 7, 72, 0
9, 114330, Note_on_c, 7, 60, 0
9, 114330, Note_on_c, 7, 59, 86
9, 114330, Note_on_c, 7, 71, 84
9, 114360, Note_on_c, 7, 71, 0
9, 114360, Note_on_c, 7, 59, 0
9, 114360, Note_on_c, 7, 60, 89
9, 114360, Note_on_c, 7, 72, 85
9, 114390, Note_on_c, 7, 72, 0
9, 114390, Note_on_c, 7, 60, 0
9, 114390, Note_on_c, 7, 59, 90
9, 114390, Note_on_c, 7, 71, 90
9, 114420, Note_on_c, 7, 71, 0
9, 114420, Note_on_c, 7, 59, 0
9, 114420, Note_on_c, 7, 60, 93
9, 114420, Note_on_c, 7, 72, 93
9, 114450, Note_on_c, 7, 72, 0
9, 114450, Note_on_c, 7, 60, 0
9, 114450, Note_on_c, 7, 61, 72
9, 114450, Note_on_c, 7, 73, 84
9, 114480, Note_on_c, 7, 73, 0
9, 114480, Note_on_c, 7, 61, 0
9, 114480, Note_on_c, 7, 74, 119
9, 114480, Note_on_c, 7, 62, 112
9, 114510, Note_on_c, 7, 62, 0
9, 114510, Note_on_c, 7, 74, 0
9, 114510, Note_on_c, 7, 61, 80
9, 114510, Note_on_c, 7, 73, 81
9, 114540, Note_on_c, 7, 73, 0
9, 114540, Note_on_c, 7, 61, 0
9, 114540, Note_on_c, 7, 62, 86
9, 114540, Note_on_c, 7, 74, 94
9, 114570, Note_on_c, 7, 74, 0
9, 114570, Note_on_c, 7, 62, 0
9, 114570, Note_on_c, 7, 61, 76
9, 114570, Note_on_c, 7, 73, 80
9, 114600, Note_on_c, 7, 73, 0
9, 114600, Note_on_c, 7, 61, 0
9, 114600, Note_on_c, 7, 62, 84
9, 114600, Note_on_c, 7, 74, 93
9, 114630, Note_on_c, 7, 74, 0
9, 114630, Note_on_c, 7, 62, 0
9, 114630, Note_on_c, 7, 63, 84
9, 114630, Note_on_c, 7, 75, 98
9, 114660, Note_on_c, 7, 75, 0
9, 114660, Note_on_c, 7, 63, 0
9, 114660, Note_on_c, 7, 64, 107
9, 114660, Note_on_c, 7, 76, 112
9, 114690, Note_on_c, 7, 76, 0
9, 114690, Note_on_c, 7, 64, 0
9, 114690, Note_on_c, 7, 75, 90
9, 114690, Note_on_c, 7, 63, 90
9, 114720, Note_on_c, 7, 63, 0
9, 114720, Note_on_c, 7, 75, 0
9, 114720, Note_on_c, 7, 76, 95
9, 114720, Note_on_c, 7, 64, 98
9, 114750, Note_on_c, 7, 64, 0
9, 114750, Note_on_c, 7, 76, 0
9, 114750, Note_on_c, 7, 75, 93
9, 114750, Note_on_c, 7, 63, 89
9, 114780, Note_on_c, 7, 63, 0
9, 114780, Note_on_c, 7, 75, 0
9, 114780, Note_on_c, 7, 76, 94
9, 114780, Note_on_c, 7, 64, 90
9, 114810, Note_on_c, 7, 64, 0
9, 114810, Note_on_c, 7, 76, 0
9, 114810, Note_on_c, 7, 60, 85
9, 114810, Note_on_c, 7, 72, 85
9, 114840, Note_on_c, 7, 72, 0
9, 114840, Note_on_c, 7, 60, 0
9, 114840, Note_on_c, 7, 77, 110
9, 114840, Note_on_c, 7, 65, 115
9, 114870, Note_on_c, 7, 65, 0
9, 114870, Note_on_c, 7, 77, 0
9, 114870, Note_on_c, 7, 76, 94
9, 114870, Note_on_c, 7, 64, 89
9, 114900, Note_on_c, 7, 64, 0
9, 114900, Note_on_c, 7, 76, 0
9, 114900, Note_on_c, 7, 77, 94
9, 114900, Note_on_c, 7, 65, 90
9, 114930, Note_on_c, 7, 65, 0
9, 114930, Note_on_c, 7, 77, 0
9, 114930, Note_on_c, 7, 64, 86
9, 114930, Note_on_c, 7, 76, 94
9, 114960, Note_on_c, 7, 76, 0
9, 114960, Note_on_c, 7, 64, 0
9, 114960, Note_on_c, 7, 65, 89
9, 114960, Note_on_c, 7, 77, 89
9, 114990, Note_on_c, 7, 77, 0
9, 114990, Note_on_c, 7, 65, 0
9, 114990, Note_on_c, 7, 78, 81
9, 114990, Note_on_c, 7, 66, 93
9, 115020, Note_on_c, 7, 66, 0
9, 115020, Note_on_c, 7, 78, 0
9, 115020, Note_on_c, 7, 79, 115
9, 115020, Note_on_c, 7, 67, 112
9, 115050, Note_on_c, 7, 67, 0
9, 115050, Note_on_c, 7, 79, 0
9, 115050, Note_on_c, 7, 66, 84
9, 115050, Note_on_c, 7, 78, 85
9, 115080, Note_on_c, 7, 78, 0
9, 115080, Note_on_c, 7, 66, 0
9, 115080, Note_on_c, 7, 67, 86
9, 115080, Note_on_c, 7, 79, 93
9, 115110, Note_on_c, 7, 79, 0
9, 115110, Note_on_c, 7, 67, 0
9, 115110, Note_on_c, 7, 66, 81
9, 115110, Note_on_c, 7, 78, 81
9, 115140, Note_on_c, 7, 78, 0
9, 115140, Note_on_c, 7, 66, 0
9, 115140, Note_on_c, 7, 67, 81
9, 115140, Note_on_c, 7, 79, 90
9, 115170, Note_on_c, 7, 79, 0
9, 115170, Note_on_c, 7, 67, 0
9, 115170, Note_on_c, 7, 80, 90
9, 115170, Note_on_c, 7, 68, 89
9, 115200, Note_on_c, 7, 68, 0
9, 115200, Note_on_c, 7, 80, 0
9, 115200, Note_on_c, 7, 69, 112
9, 115200, Note_on_c, 7, 81, 117
9, 115230, Note_on_c, 7, 81, 0
9, 115230, Note_on_c, 7, 69, 0
9, 115230, Note_on_c, 7, 80, 86
9, 115230, Note_on_c, 7, 68, 89
9, 115260, Note_on_c, 7, 68, 0
9, 115260, Note_on_c, 7, 80, 0
9, 115260, Note_on_c, 7, 81, 94
9, 115260, Note_on_c, 7, 69, 89
9, 115290, Note_on_c, 7, 69, 0
9, 115290, Note_on_c, 7, 81, 0
9, 115290, Note_on_c, 7, 68, 80
9, 115290, Note_on_c, 7, 80, 82
9, 115320, Note_on_c, 7, 80, 0
9, 115320, Note_on_c, 7, 68, 0
9, 115320, Note_on_c, 7, 81, 89
9, 115320, Note_on_c, 7, 69, 94
9, 115350, Note_on_c, 7, 69, 0
9, 115350, Note_on_c, 7, 81, 0
9, 115350, Note_on_c, 7, 83, 89
9, 115350, Note_on_c, 7, 71, 89
9, 115380, Note_on_c, 7, 71, 0
9, 115380, Note_on_c, 7, 83, 0
9, 115380, Note_on_c, 7, 84, 112
9, 115380, Note_on_c, 7, 72, 94
9, 115410, Note_on_c, 7, 72, 0
9, 115410, Note_on_c, 7, 84, 0
9, 115410, Note_on_c, 7, 83, 89
9, 115410, Note_on_c, 7, 71, 85
9, 115440, Note_on_c, 7, 71, 0
9, 115440, Note_on_c, 7, 83, 0
9, 115440, Note_on_c, 7, 84, 86
9, 115440, Note_on_c, 7, 72, 73
9, 115470, Note_on_c, 7, 72, 0
9, 115470, Note_on_c, 7, 84, 0
9, 115470, Note_on_c, 7, 71, 84
9, 115470, Note_on_c, 7, 83, 93
9, 115500, Note_on_c, 7, 83, 0
9, 115500, Note_on_c, 7, 71, 0
9, 115500, Note_on_c, 7, 84, 95
9, 115500, Note_on_c, 7, 72, 77
9, 115530, Note_on_c, 7, 72, 0
9, 115530, Note_on_c, 7, 84, 0
9, 115530, Note_on_c, 7, 86, 99
9, 115530, Note_on_c, 7, 74, 99
9, 115560, Note_on_c, 7, 74, 0
9, 115560, Note_on_c, 7, 86, 0
9, 115560, Control_c, 7, 64, 94
9, 115560, Note_on_c, 7, 87, 98
9, 115560, Note_on_c, 7, 75, 99
9, 115590, Note_on_c, 7, 87, 0
9, 115590, Note_on_c, 7, 84, 95
9, 115620, Note_on_c, 7, 84, 0
9, 115620, Note_on_c, 7, 81, 98
9, 115650, Note_on_c, 7, 81, 0
9, 115650, Note_on_c, 7, 78, 90
9, 115680, Note_on_c, 7, 78, 0
9, 115680, Note_on_c, 7, 75, 0
9, 115680, Note_on_c, 7, 75, 90
9, 115710, Note_on_c, 7, 75, 0
9, 115710, Note_on_c, 7, 72, 95
9, 115740, Note_on_c, 7, 72, 0
9, 115740, Note_on_c, 7, 69, 104
9, 115770, Note_on_c, 7, 69, 0
9, 115770, Note_on_c, 7, 66, 94
9, 115800, Note_on_c, 7, 66, 0
9, 115800, Note_on_c, 7, 63, 81
9, 115830, Note_on_c, 7, 63, 0
9, 115830, Note_on_c, 7, 60, 99
9, 115860, Note_on_c, 7, 60, 0
9, 115860, Note_on_c, 7, 57, 105
9, 115890, Note_on_c, 7, 57, 0
9, 115890, Note_on_c, 7, 54, 95
9, 115920, Note_on_c, 7, 54, 0
9, 115920, Note_on_c, 7, 51, 81
9, 115950, Note_on_c, 7, 51, 0
9, 115950, Note_on_c, 7, 48, 98
9, 115980, Note_on_c, 7, 48, 0
9, 115980, Note_on_c, 7, 45, 110
9, 116010, Note_on_c, 7, 45, 0
9, 116010, Note_on_c, 7, 42, 99
9, 116040, Note_on_c, 7, 42, 0
9, 116040, Note_on_c, 7, 39, 95
9, 116070, Note_on_c, 7, 39, 0
9, 116070, Note_on_c, 7, 36, 104
9, 116100, Note_on_c, 7, 36, 0
9, 116100, Control_c, 7, 64, 0
9, 116100, Note_on_c, 7, 33, 95
9, 116160, Note_on_c, 7, 33, 0
9, 116160, Note_on_c, 7, 36, 99
9, 116160, Note_on_c, 7, 48, 95
9, 116220, Note_on_c, 7, 48, 0
9, 116220, Note_on_c, 7, 36, 0
9, 116220, Note_on_c, 7, 30, 94
9, 116220, Note_on_c, 7, 42, 95
9, 116280, Note_on_c, 7, 42, 0
9, 116280, Note_on_c, 7, 30, 0
9, 116280, Note_on_c, 7, 31, 99
9, 116280, Note_on_c, 7, 43, 90
9, 116310, Note_on_c, 7, 43, 0
9, 116310, Note_on_c, 7, 40, 94
9, 116340, Note_on_c, 7, 40, 0
9, 116340, Control_c, 7, 64, 94
9, 116340, Note_on_c, 7, 48, 89
9, 116370, Note_on_c, 7, 48, 0
9, 116370, Note_on_c, 7, 43, 95
9, 116400, Note_on_c, 7, 43, 0
9, 116400, Note_on_c, 7, 31, 0
9, 116400, Note_on_c, 7, 52, 93
9, 116430, Note_on_c, 7, 52, 0
9, 116430, Note_on_c, 7, 48, 99
9, 116460, Note_on_c, 7, 48, 0
9, 116460, Note_on_c, 7, 55, 86
9, 116490, Note_on_c, 7, 55, 0
9, 116490, Note_on_c, 7, 52, 105
9, 116520, Note_on_c, 7, 52, 0
9, 116520, Note_on_c, 7, 60, 89
9, 116550, Note_on_c, 7, 60, 0
9, 116550, Note_on_c, 7, 55, 93
9, 116580, Note_on_c, 7, 55, 0
9, 116580, Note_on_c, 7, 64, 89
9, 116610, Note_on_c, 7, 64, 0
9, 116610, Note_on_c, 7, 60, 94
9, 116640, Note_on_c, 7, 60, 0
9, 116640, Note_on_c, 7, 55, 90
9, 116670, Note_on_c, 7, 55, 0
9, 116670, Note_on_c, 7, 52, 101
9, 116700, Note_on_c, 7, 52, 0
9, 116700, Note_on_c, 7, 60, 89
9, 116730, Note_on_c, 7, 60, 0
9, 116730, Note_on_c, 7, 55, 90
9, 116760, Note_on_c, 7, 55, 0
9, 116760, Note_on_c, 7, 64, 95
9, 116790, Note_on_c, 7, 64, 0
9, 116790, Note_on_c, 7, 60, 89
9, 116820, Note_on_c, 7, 60, 0
9, 116820, Note_on_c, 7, 67, 94
9, 116850, Note_on_c, 7, 67, 0
9, 116850, Note_on_c, 7, 64, 95
9, 116880, Note_on_c, 7, 64, 0
9, 116880, Note_on_c, 7, 72, 94
9, 116910, Note_on_c, 7, 72, 0
9, 116910, Note_on_c, 7, 67, 77
9, 116940, Note_on_c, 7, 67, 0
9, 116940, Note_on_c, 7, 76, 99
9, 116970, Note_on_c, 7, 76, 0
9, 116970, Note_on_c, 7, 72, 95
9, 117000, Note_on_c, 7, 72, 0
9, 117000, Note_on_c, 7, 67, 94
9, 117030, Note_on_c, 7, 67, 0
9, 117030, Note_on_c, 7, 64, 95
9, 117060, Note_on_c, 7, 64, 0
9, 117060, Note_on_c, 7, 72, 95
9, 117090, Note_on_c, 7, 72, 0
9, 117090, Note_on_c, 7, 67, 86
9, 117120, Note_on_c, 7, 67, 0
9, 117120, Note_on_c, 7, 76, 104
9, 117150, Note_on_c, 7, 76, 0
9, 117150, Note_on_c, 7, 72, 90
9, 117180, Note_on_c, 7, 72, 0
9, 117180, Note_on_c, 7, 79, 95
9, 117210, Note_on_c, 7, 79, 0
9, 117210, Note_on_c, 7, 76, 95
9, 117240, Note_on_c, 7, 76, 0
9, 117240, Note_on_c, 7, 84, 99
9, 117270, Note_on_c, 7, 84, 0
9, 117270, Note_on_c, 7, 79, 89
9, 117300, Note_on_c, 7, 79, 0
9, 117300, Note_on_c, 7, 88, 101
9, 117330, Note_on_c, 7, 88, 0
9, 117330, Note_on_c, 7, 84, 95
9, 117360, Note_on_c, 7, 84, 0
9, 117360, Note_on_c, 7, 79, 94
9, 117390, Note_on_c, 7, 79, 0
9, 117390, Note_on_c, 7, 76, 94
9, 117420, Note_on_c, 7, 76, 0
9, 117420, Note_on_c, 7, 84, 98
9, 117450, Note_on_c, 7, 84, 0
9, 117450, Note_on_c, 7, 79, 84
9, 117480, Note_on_c, 7, 79, 0
9, 117480, Note_on_c, 7, 88, 95
9, 117510, Note_on_c, 7, 88, 0
9, 117510, Note_on_c, 7, 84, 89
9, 117540, Note_on_c, 7, 84, 0
9, 117540, Note_on_c, 7, 91, 104
9, 117570, Note_on_c, 7, 91, 0
9, 117570, Note_on_c, 7, 88, 86
9, 117600, Note_on_c, 7, 88, 0
9, 117600, Note_on_c, 7, 96, 101
9, 117630, Note_on_c, 7, 96, 0
9, 117630, Note_on_c, 7, 91, 99
9, 117660, Note_on_c, 7, 91, 0
9, 117660, Note_on_c, 7, 88, 89
9, 117690, Note_on_c, 7, 88, 0
9, 117690, Note_on_c, 7, 84, 74
9, 117720, Note_on_c, 7, 84, 0
9, 117720, Note_on_c, 7, 91, 95
9, 117750, Note_on_c, 7, 91, 0
9, 117750, Note_on_c, 7, 88, 94
9, 117780, Note_on_c, 7, 88, 0
9, 117780, Note_on_c, 7, 96, 105
9, 117810, Note_on_c, 7, 96, 0
9, 117810, Note_on_c, 7, 91, 99
9, 117840, Note_on_c, 7, 91, 0
9, 117840, Note_on_c, 7, 88, 93
9, 117870, Note_on_c, 7, 88, 0
9, 117870, Note_on_c, 7, 84, 86
9, 117900, Note_on_c, 7, 84, 0
9, 117900, Note_on_c, 7, 91, 99
9, 117930, Note_on_c, 7, 91, 0
9, 117930, Note_on_c, 7, 88, 89
9, 117960, Note_on_c, 7, 88, 0
9, 117960, Note_on_c, 7, 96, 99
9, 117990, Note_on_c, 7, 96, 0
9, 117990, Note_on_c, 7, 91, 95
9, 118020, Note_on_c, 7, 91, 0
9, 118020, Note_on_c, 7, 88, 89
9, 118050, Note_on_c, 7, 88, 0
9, 118050, Note_on_c, 7, 84, 94
9, 118080, Note_on_c, 7, 84, 0
9, 118080, Note_on_c, 7, 91, 95
9, 118110, Note_on_c, 7, 91, 0
9, 118110, Note_on_c, 7, 88, 94
9, 118140, Note_on_c, 7, 88, 0
9, 118140, Note_on_c, 7, 96, 99
9, 118170, Note_on_c, 7, 96, 0
9, 118170, Note_on_c, 7, 91, 99
9, 118200, Note_on_c, 7, 91, 0
9, 118200, Note_on_c, 7, 88, 94
9, 118230, Note_on_c, 7, 88, 0
9, 118230, Note_on_c, 7, 84, 89
9, 118260, Note_on_c, 7, 84, 0
9, 118260, Note_on_c, 7, 91, 95
9, 118290, Note_on_c, 7, 91, 0
9, 118290, Note_on_c, 7, 88, 89
9, 118320, Note_on_c, 7, 88, 0
9, 118320, Note_on_c, 7, 96, 98
9, 118350, Note_on_c, 7, 96, 0
9, 118350, Note_on_c, 7, 91, 99
9, 118380, Note_on_c, 7, 91, 0
9, 118380, Note_on_c, 7, 88, 94
9, 118410, Note_on_c, 7, 88, 0
9, 118410, Note_on_c, 7, 84, 90
9, 118430, Control_c, 7, 64, 0
9, 118440, Note_on_c, 7, 84, 0
9, 118440, Note_on_c, 7, 79, 94
9, 118440, Note_on_c, 7, 91, 98
9, 118500, Note_on_c, 7, 91, 0
9, 118500, Note_on_c, 7, 79, 0
9, 118500, Note_on_c, 7, 93, 93
9, 118500, Note_on_c, 7, 81, 89
9, 118560, Note_on_c, 7, 81, 0
9, 118560, Note_on_c, 7, 93, 0
9, 118560, Note_on_c, 7, 79, 89
9, 118560, Note_on_c, 7, 91, 93
9, 118620, Note_on_c, 7, 91, 0
9, 118620, Note_on_c, 7, 79, 0
9, 118620, Note_on_c, 7, 93, 94
9, 118620, Note_on_c, 7, 81, 93
9, 118650, Note_on_c, 7, 81, 0
9, 118650, Note_on_c, 7, 93, 0
9, 118650, Note_on_c, 7, 79, 89
9, 118650, Note_on_c, 7, 91, 90
9, 118680, Note_on_c, 7, 91, 0
9, 118680, Note_on_c, 7, 79, 0
9, 118680, Note_on_c, 7, 93, 94
9, 118680, Note_on_c, 7, 81, 93
9, 118710, Note_on_c, 7, 81, 0
9, 118710, Note_on_c, 7, 93, 0
9, 118710, Note_on_c, 7, 79, 93
9, 118710, Note_on_c, 7, 91, 90
9, 118740, Note_on_c, 7, 91, 0
9, 118740, Note_on_c, 7, 79, 0
9, 118740, Note_on_c, 7, 93, 89
9, 118740, Note_on_c, 7, 81, 89
9, 118770, Note_on_c, 7, 81, 0
9, 118770, Note_on_c, 7, 93, 0
9, 118770, Note_on_c, 7, 79, 89
9, 118770, Note_on_c, 7, 91, 94
9, 118800, Note_on_c, 7, 91, 0
9, 118800, Note_on_c, 7, 79, 0
9, 118800, Control_c, 7, 64, 94
9, 118800, Note_on_c, 7, 93, 80
9, 118800, Note_on_c, 7, 81, 82
9, 118830, Note_on_c, 7, 81, 0
9, 118830, Note_on_c, 7, 93, 0
9, 118830, Note_on_c, 7, 79, 86
9, 118830, Note_on_c, 7, 91, 93
9, 118860, Note_on_c, 7, 91, 0
9, 118860, Note_on_c, 7, 79, 0
9, 118860, Note_on_c, 7, 93, 90
9, 118860, Note_on_c, 7, 81, 84
9, 118880, Note_on_c, 7, 81, 0
9, 118880, Note_on_c, 7, 93, 0
9, 118880, Note_on_c, 7, 79, 89
9, 118880, Note_on_c, 7, 91, 89
9, 118900, Note_on_c, 7, 91, 0
9, 118900, Note_on_c, 7, 79, 0
9, 118900, Note_on_c, 7, 93, 89
9, 118900, Note_on_c, 7, 81, 85
9, 118920, Note_on_c, 7, 81, 0
9, 118920, Note_on_c, 7, 93, 0
9, 118920, Note_on_c, 7, 79, 84
9, 118920, Note_on_c, 7, 91, 89
9, 118940, Note_on_c, 7, 91, 0
9, 118940, Note_on_c, 7, 79, 0
9, 118940, Note_on_c, 7, 93, 90
9, 118940, Note_on_c, 7, 81, 84
9, 118960, Note_on_c, 7, 81, 0
9, 118960, Note_on_c, 7, 93, 0
9, 118960, Note_on_c, 7, 79, 89
9, 118960, Note_on_c, 7, 91, 93
9, 118980, Note_on_c, 7, 91, 0
9, 118980, Note_on_c, 7, 79, 0
9, 118980, Note_on_c, 7, 93, 84
9, 118980, Note_on_c, 7, 81, 89
9, 119010, Note_on_c, 7, 81, 0
9, 119010, Note_on_c, 7, 93, 0
9, 119010, Note_on_c, 7, 79, 89
9, 119010, Note_on_c, 7, 91, 90
9, 119040, Note_on_c, 7, 91, 0
9, 119040, Note_on_c, 7, 79, 0
9, 119040, Note_on_c, 7, 93, 86
9, 119040, Note_on_c, 7, 81, 86
9, 119070, Note_on_c, 7, 81, 0
9, 119070, Note_on_c, 7, 93, 0
9, 119070, Note_on_c, 7, 79, 93
9, 119070, Note_on_c, 7, 91, 89
9, 119100, Note_on_c, 7, 91, 0
9, 119100, Note_on_c, 7, 79, 0
9, 119100, Note_on_c, 7, 78, 84
9, 119100, Note_on_c, 7, 90, 86
9, 119130, Note_on_c, 7, 90, 0
9, 119130, Note_on_c, 7, 78, 0
9, 119130, Note_on_c, 7, 79, 94
9, 119130, Note_on_c, 7, 91, 94
9, 119160, Note_on_c, 7, 91, 0
9, 119160, Note_on_c, 7, 79, 0
9, 119160, Note_on_c, 7, 72, 82
9, 119160, Note_on_c, 7, 84, 93
9, 119280, Note_on_c, 7, 84, 0
9, 119280, Note_on_c, 7, 72, 0
9, 119280, Control_c, 7, 64, 0
9, 119880, Note_on_c, 7, 84, 89
9, 119880, Note_on_c, 7, 72, 89
9, 119880, Note_on_c, 7, 48, 95
9, 119910, Note_on_c, 7, 72, 0
9, 119910, Note_on_c, 7, 84, 0
9, 119940, Note_on_c, 7, 48, 0
9, 119940, Note_on_c, 7, 84, 93
9, 119940, Note_on_c, 7, 72, 85
9, 119940, Note_on_c, 7, 60, 94
9, 119970, Note_on_c, 7, 72, 0
9, 119970, Note_on_c, 7, 84, 0
9, 120000, Note_on_c, 7, 60, 0
9, 120000, Note_on_c, 7, 84, 78
9, 120000, Note_on_c, 7, 72, 86
9, 120000, Note_on_c, 7, 64, 89
9, 120030, Note_on_c, 7, 72, 0
9, 120030, Note_on_c, 7, 84, 0
9, 120045, Note_on_c, 7, 86, 95
9, 120045, Note_on_c, 7, 74, 104
9, 120060, Note_on_c, 7, 74, 0
9, 120060, Note_on_c, 7, 86, 0
9, 120060, Note_on_c, 7, 64, 0
9, 120060, Note_on_c, 7, 84, 82
9, 120060, Note_on_c, 7, 72, 90
9, 120060, Note_on_c, 7, 57, 99
9, 120120, Note_on_c, 7, 57, 0
9, 120120, Note_on_c, 7, 72, 0
9, 120120, Note_on_c, 7, 84, 0
9, 120120, Note_on_c, 7, 83, 90
9, 120120, Note_on_c, 7, 71, 94
9, 120120, Note_on_c, 7, 60, 94
9, 120180, Note_on_c, 7, 60, 0
9, 120180, Note_on_c, 7, 71, 0
9, 120180, Note_on_c, 7, 83, 0
9, 120180, Note_on_c, 7, 84, 81
9, 120180, Note_on_c, 7, 72, 82
9, 120180, Note_on_c, 7, 64, 94
9, 120210, Note_on_c, 7, 72, 0
9, 120210, Note_on_c, 7, 84, 0
9, 120240, Note_on_c, 7, 64, 0
9, 120240, Note_on_c, 7, 74, 101
9, 120240, Note_on_c, 7, 86, 99
9, 120240, Note_on_c, 7, 53, 89
9, 120270, Note_on_c, 7, 86, 0
9, 120270, Note_on_c, 7, 74, 0
9, 120300, Note_on_c, 7, 53, 0
9, 120300, Note_on_c, 7, 76, 99
9, 120300, Note_on_c, 7, 88, 95
9, 120300, Note_on_c, 7, 57, 99
9, 120330, Note_on_c, 7, 88, 0
9, 120330, Note_on_c, 7, 76, 0
9, 120360, Note_on_c, 7, 57, 0
9, 120360, Note_on_c, 7, 89, 98
9, 120360, Note_on_c, 7, 77, 94
9, 120360, Note_on_c, 7, 62, 80
9, 120390, Note_on_c, 7, 77, 0
9, 120390, Note_on_c, 7, 89, 0
9, 120420, Note_on_c, 7, 62, 0
9, 120420, Note_on_c, 7, 79, 89
9, 120420, Note_on_c, 7, 67, 89
9, 120420, Note_on_c, 7, 55, 94
9, 120450, Note_on_c, 7, 67, 0
9, 120450, Note_on_c, 7, 79, 0
9, 120480, Note_on_c, 7, 55, 0
9, 120480, Note_on_c, 7, 81, 98
9, 120480, Note_on_c, 7, 69, 101
9, 120480, Note_on_c, 7, 62, 94
9, 120510, Note_on_c, 7, 69, 0
9, 120510, Note_on_c, 7, 81, 0
9, 120540, Note_on_c, 7, 62, 0
9, 120540, Note_on_c, 7, 83, 89
9, 120540, Note_on_c, 7, 71, 98
9, 120540, Note_on_c, 7, 65, 86
9, 120570, Note_on_c, 7, 71, 0
9, 120570, Note_on_c, 7, 83, 0
9, 120600, Note_on_c, 7, 65, 0
9, 120600, Note_on_c, 7, 84, 85
9, 120600, Note_on_c, 7, 72, 99
9, 120600, Note_on_c, 7, 48, 99
9, 120600, Note_on_c, 7, 60, 84
9, 120720, Note_on_c, 7, 60, 0
9, 120720, Note_on_c, 7, 84, 0
9, 120720, Note_on_c, 7, 72, 0
9, 120720, Note_on_c, 7, 48, 0
9, 121320, Note_on_c, 7, 84, 81
9, 121320, Note_on_c, 7, 72, 68
9, 121320, Note_on_c, 7, 48, 94
9, 121350, Note_on_c, 7, 72, 0
9, 121350, Note_on_c, 7, 84, 0
9, 121380, Note_on_c, 7, 48, 0
9, 121380, Note_on_c, 7, 84, 89
9, 121380, Note_on_c, 7, 72, 73
9, 121380, Note_on_c, 7, 60, 94
9, 121410, Note_on_c, 7, 72, 0
9, 121410, Note_on_c, 7, 84, 0
9, 121440, Note_on_c, 7, 60, 0
9, 121440, Note_on_c, 7, 84, 90
9, 121440, Note_on_c, 7, 72, 76
9, 121440, Note_on_c, 7, 64, 93
9, 121470, Note_on_c, 7, 72, 0
9, 121470, Note_on_c, 7, 84, 0
9, 121485, Note_on_c, 7, 74, 101
9, 121485, Note_on_c, 7, 86, 94
9, 121500, Note_on_c, 7, 86, 0
9, 121500, Note_on_c, 7, 74, 0
9, 121500, Note_on_c, 7, 64, 0
9, 121500, Note_on_c, 7, 84, 85
9, 121500, Note_on_c, 7, 72, 84
9, 121500, Note_on_c, 7, 57, 98
9, 121560, Note_on_c, 7, 57, 0
9, 121560, Note_on_c, 7, 72, 0
9, 121560, Note_on_c, 7, 84, 0
9, 121560, Note_on_c, 7, 83, 86
9, 121560, Note_on_c, 7, 71, 90
9, 121560, Note_on_c, 7, 60, 94
9, 121620, Note_on_c, 7, 60, 0
9, 121620, Note_on_c, 7, 71, 0
9, 121620, Note_on_c, 7, 83, 0
9, 121620, Note_on_c, 7, 84, 84
9, 121620, Note_on_c, 7, 72, 89
9, 121620, Note_on_c, 7, 64, 89
9, 121650, Note_on_c, 7, 72, 0
9, 121650, Note_on_c, 7, 84, 0
9, 121680, Note_on_c, 7, 64, 0
9, 121680, Note_on_c, 7, 74, 94
9, 121680, Note_on_c, 7, 86, 90
9, 121680, Note_on_c, 7, 53, 90
9, 121710, Note_on_c, 7, 86, 0
9, 121710, Note_on_c, 7, 74, 0
9, 121740, Note_on_c, 7, 53, 0
9, 121740, Note_on_c, 7, 76, 94
9, 121740, Note_on_c, 7, 88, 93
9, 121740, Note_on_c, 7, 57, 101
9, 121770, Note_on_c, 7, 88, 0
9, 121770, Note_on_c, 7, 76, 0
9, 121800, Note_on_c, 7, 57, 0
9, 121800, Note_on_c, 7, 77, 85
9, 121800, Note_on_c, 7, 89, 99
9, 121800, Note_on_c, 7, 62, 89
9, 121830, Note_on_c, 7, 89, 0
9, 121830, Note_on_c, 7, 77, 0
9, 121860, Note_on_c, 7, 62, 0
9, 121860, Note_on_c, 7, 79, 85
9, 121860, Note_on_c, 7, 67, 86
9, 121860, Note_on_c, 7, 55, 94
9, 121890, Note_on_c, 7, 67, 0
9, 121890, Note_on_c, 7, 79, 0
9, 121920, Note_on_c, 7, 55, 0
9, 121920, Note_on_c, 7, 81, 86
9, 121920, Note_on_c, 7, 69, 94
9, 121920, Note_on_c, 7, 62, 95
9, 121950, Note_on_c, 7, 69, 0
9, 121950, Note_on_c, 7, 81, 0
9, 121980, Note_on_c, 7, 62, 0
9, 121980, Note_on_c, 7, 83, 90
9, 121980, Note_on_c, 7, 71, 95
9, 121980, Note_on_c, 7, 65, 89
9, 122010, Note_on_c, 7, 71, 0
9, 122010, Note_on_c, 7, 83, 0
9, 122040, Note_on_c, 7, 65, 0
9, 122040, Note_on_c, 7, 72, 89
9, 122040, Note_on_c, 7, 48, 94
9, 122070, Note_on_c, 7, 72, 0
9, 122070, Note_on_c, 7, 84, 95
9, 122100, Note_on_c, 7, 84, 0
9, 122100, Note_on_c, 7, 48, 0
9, 122100, Note_on_c, 7, 72, 89
9, 122100, Note_on_c, 7, 60, 99
9, 122130, Note_on_c, 7, 72, 0
9, 122130, Note_on_c, 7, 84, 85
9, 122160, Note_on_c, 7, 84, 0
9, 122160, Note_on_c, 7, 60, 0
9, 122160, Note_on_c, 7, 72, 89
9, 122160, Note_on_c, 7, 64, 89
9, 122190, Note_on_c, 7, 72, 0
9, 122190, Note_on_c, 7, 84, 95
9, 122220, Note_on_c, 7, 84, 0
9, 122220, Note_on_c, 7, 64, 0
9, 122220, Note_on_c, 7, 72, 90
9, 122220, Note_on_c, 7, 57, 86
9, 122250, Note_on_c, 7, 72, 0
9, 122250, Note_on_c, 7, 84, 95
9, 122280, Note_on_c, 7, 84, 0
9, 122280, Note_on_c, 7, 57, 0
9, 122280, Note_on_c, 7, 71, 104
9, 122280, Note_on_c, 7, 60, 90
9, 122310, Note_on_c, 7, 71, 0
9, 122310, Note_on_c, 7, 83, 94
9, 122340, Note_on_c, 7, 83, 0
9, 122340, Note_on_c, 7, 60, 0
9, 122340, Note_on_c, 7, 72, 80
9, 122340, Note_on_c, 7, 64, 94
9, 122370, Note_on_c, 7, 72, 0
9, 122370, Note_on_c, 7, 84, 99
9, 122400, Note_on_c, 7, 84, 0
9, 122400, Note_on_c, 7, 64, 0
9, 122400, Note_on_c, 7, 74, 104
9, 122400, Note_on_c, 7, 53, 89
9, 122430, Note_on_c, 7, 74, 0
9, 122430, Note_on_c, 7, 86, 99
9, 122460, Note_on_c, 7, 86, 0
9, 122460, Note_on_c, 7, 53, 0
9, 122460, Note_on_c, 7, 76, 99
9, 122460, Note_on_c, 7, 57, 99
9, 122490, Note_on_c, 7, 76, 0
9, 122490, Note_on_c, 7, 88, 98
9, 122520, Note_on_c, 7, 88, 0
9, 122520, Note_on_c, 7, 57, 0
9, 122520, Note_on_c, 7, 77, 94
9, 122520, Note_on_c, 7, 62, 81
9, 122550, Note_on_c, 7, 77, 0
9, 122550, Note_on_c, 7, 89, 99
9, 122580, Note_on_c, 7, 89, 0
9, 122580, Note_on_c, 7, 62, 0
9, 122580, Note_on_c, 7, 67, 94
9, 122580, Note_on_c, 7, 55, 93
9, 122610, Note_on_c, 7, 67, 0
9, 122610, Note_on_c, 7, 79, 93
9, 122640, Note_on_c, 7, 79, 0
9, 122640, Note_on_c, 7, 55, 0
9, 122640, Note_on_c, 7, 69, 89
9, 122640, Note_on_c, 7, 62, 89
9, 122670, Note_on_c, 7, 69, 0
9, 122670, Note_on_c, 7, 81, 98
9, 122700, Note_on_c, 7, 81, 0
9, 122700, Note_on_c, 7, 62, 0
9, 122700, Note_on_c, 7, 71, 99
9, 122700, Note_on_c, 7, 65, 95
9, 122730, Note_on_c, 7, 71, 0
9, 122730, Note_on_c, 7, 83, 95
9, 122760, Note_on_c, 7, 83, 0
9, 122760, Note_on_c, 7, 65, 0
9, 122760, Note_on_c, 7, 72, 94
9, 122760, Note_on_c, 7, 48, 99
9, 122790, Note_on_c, 7, 48, 0
9, 122790, Note_on_c, 7, 72, 0
9, 122790, Note_on_c, 7, 84, 90
9, 122790, Note_on_c, 7, 60, 89
9, 122820, Note_on_c, 7, 60, 0
9, 122820, Note_on_c, 7, 84, 0
9, 122820, Note_on_c, 7, 76, 99
9, 122820, Note_on_c, 7, 52, 104
9, 122850, Note_on_c, 7, 52, 0
9, 122850, Note_on_c, 7, 76, 0
9, 122850, Note_on_c, 7, 88, 98
9, 122850, Note_on_c, 7, 64, 95
9, 122880, Note_on_c, 7, 64, 0
9, 122880, Note_on_c, 7, 88, 0
9, 122880, Note_on_c, 7, 74, 99
9, 122880, Note_on_c, 7, 50, 98
9, 122910, Note_on_c, 7, 50, 0
9, 122910, Note_on_c, 7, 74, 0
9, 122910, Note_on_c, 7, 86, 101
9, 122910, Note_on_c, 7, 62, 90
9, 122940, Note_on_c, 7, 62, 0
9, 122940, Note_on_c, 7, 86, 0
9, 122940, Note_on_c, 7, 72, 93
9, 122940, Note_on_c, 7, 48, 98
9, 122970, Note_on_c, 7, 48, 0
9, 122970, Note_on_c, 7, 72, 0
9, 122970, Note_on_c, 7, 84, 84
9, 122970, Note_on_c, 7, 60, 89
9, 123000, Note_on_c, 7, 60, 0
9, 123000, Note_on_c, 7, 84, 0
9, 123000, Note_on_c, 7, 71, 99
9, 123000, Note_on_c, 7, 47, 101
9, 123030, Note_on_c, 7, 47, 0
9, 123030, Note_on_c, 7, 71, 0
9, 123030, Note_on_c, 7, 83, 95
9, 123030, Note_on_c, 7, 59, 99
9, 123060, Note_on_c, 7, 59, 0
9, 123060, Note_on_c, 7, 83, 0
9, 123060, Note_on_c, 7, 69, 101
9, 123060, Note_on_c, 7, 45, 101
9, 123090, Note_on_c, 7, 45, 0
9, 123090, Note_on_c, 7, 69, 0
9, 123090, Note_on_c, 7, 81, 95
9, 123090, Note_on_c, 7, 57, 105
9, 123120, Note_on_c, 7, 57, 0
9, 123120, Note_on_c, 7, 81, 0
9, 123120, Note_on_c, 7, 67, 95
9, 123120, Note_on_c, 7, 43, 99
9, 123150, Note_on_c, 7, 43, 0
9, 123150, Note_on_c, 7, 67, 0
9, 123150, Note_on_c, 7, 79, 99
9, 123150, Note_on_c, 7, 55, 94
9, 123180, Note_on_c, 7, 55, 0
9, 123180, Note_on_c, 7, 79, 0
9, 123180, Note_on_c, 7, 69, 99
9, 123180, Note_on_c, 7, 45, 99
9, 123210, Note_on_c, 7, 45, 0
9, 123210, Note_on_c, 7, 69, 0
9, 123210, Note_on_c, 7, 81, 95
9, 123210, Note_on_c, 7, 57, 104
9, 123240, Note_on_c, 7, 57, 0
9, 123240, Note_on_c, 7, 81, 0
9, 123240, Note_on_c, 7, 67, 99
9, 123240, Note_on_c, 7, 43, 99
9, 123270, Note_on_c, 7, 43, 0
9, 123270, Note_on_c, 7, 67, 0
9, 123270, Note_on_c, 7, 79, 93
9, 123270, Note_on_c, 7, 55, 94
9, 123300, Note_on_c, 7, 55, 0
9, 123300, Note_on_c, 7, 79, 0
9, 123300, Note_on_c, 7, 65, 101
9, 123300, Note_on_c, 7, 41, 93
9, 123330, Note_on_c, 7, 41, 0
9, 123330, Note_on_c, 7, 65, 0
9, 123330, Note_on_c, 7, 77, 94
9, 123330, Note_on_c, 7, 53, 86
9, 123360, Note_on_c, 7, 53, 0
9, 123360, Note_on_c, 7, 77, 0
9, 123360, Note_on_c, 7, 64, 104
9, 123360, Note_on_c, 7, 40, 104
9, 123390, Note_on_c, 7, 40, 0
9, 123390, Note_on_c, 7, 64, 0
9, 123390, Note_on_c, 7, 76, 94
9, 123390, Note_on_c, 7, 52, 90
9, 123420, Note_on_c, 7, 52, 0
9, 123420, Note_on_c, 7, 76, 0
9, 123420, Note_on_c, 7, 62, 94
9, 123420, Note_on_c, 7, 38, 104
9, 123450, Note_on_c, 7, 38, 0
9, 123450, Note_on_c, 7, 62, 0
9, 123450, Note_on_c, 7, 74, 98
9, 123450, Note_on_c, 7, 50, 104
9, 123480, Note_on_c, 7, 50, 0
9, 123480, Note_on_c, 7, 74, 0
9, 123480, Note_on_c, 7, 60, 99
9, 123480, Note_on_c, 7, 36, 101
9, 123510, Note_on_c, 7, 36, 0
9, 123510, Note_on_c, 7, 60, 0
9, 123510, Note_on_c, 7, 72, 84
9, 123510, Note_on_c, 7, 48, 94
9, 123540, Note_on_c, 7, 48, 0
9, 123540, Note_on_c, 7, 72, 0
9, 123540, Note_on_c, 7, 64, 104
9, 123540, Note_on_c, 7, 40, 98
9, 123570, Note_on_c, 7, 40, 0
9, 123570, Note_on_c, 7, 64, 0
9, 123570, Note_on_c, 7, 76, 101
9, 123570, Note_on_c, 7, 52, 98
9, 123600, Note_on_c, 7, 52, 0
9, 123600, Note_on_c, 7, 76, 0
9, 123600, Note_on_c, 7, 62, 105
9, 123600, Note_on_c, 7, 38, 107
9, 123630, Note_on_c, 7, 38, 0
9, 123630, Note_on_c, 7, 62, 0
9, 123630, Note_on_c, 7, 74, 104
9, 123630, Note_on_c, 7, 50, 94
9, 123660, Note_on_c, 7, 50, 0
9, 123660, Note_on_c, 7, 74, 0
9, 123660, Note_on_c, 7, 60, 107
9, 123660, Note_on_c, 7, 36, 104
9, 123690, Note_on_c, 7, 36, 0
9, 123690, Note_on_c, 7, 60, 0
9, 123690, Note_on_c, 7, 72, 82
9, 123690, Note_on_c, 7, 48, 94
9, 123720, Note_on_c, 7, 48, 0
9, 123720, Note_on_c, 7, 72, 0
9, 123720, Note_on_c, 7, 59, 105
9, 123720, Note_on_c, 7, 35, 104
9, 123750, Note_on_c, 7, 35, 0
9, 123750, Note_on_c, 7, 59, 0
9, 123750, Note_on_c, 7, 71, 99
9, 123750, Note_on_c, 7, 47, 99
9, 123780, Note_on_c, 7, 47, 0
9, 123780, Note_on_c, 7, 71, 0
9, 123780, Note_on_c, 7, 57, 110
9, 123780, Note_on_c, 7, 33, 110
9, 123810, Note_on_c, 7, 33, 0
9, 123810, Note_on_c, 7, 57, 0
9, 123810, Note_on_c, 7, 69, 115
9, 123810, Note_on_c, 7, 45, 105
9, 123840, Note_on_c, 7, 45, 0
9, 123840, Note_on_c, 7, 69, 0
9, 123840, Note_on_c, 7, 55, 112
9, 123840, Note_on_c, 7, 31, 117
9, 123870, Note_on_c, 7, 31, 0
9, 123870, Note_on_c, 7, 55, 0
9, 123870, Note_on_c, 7, 67, 110
9, 123870, Note_on_c, 7, 43, 105
9, 123900, Note_on_c, 7, 43, 0
9, 123900, Note_on_c, 7, 67, 0
9, 123900, Note_on_c, 7, 57, 115
9, 123900, Note_on_c, 7, 33, 110
9, 123930, Note_on_c, 7, 33, 0
9, 123930, Note_on_c, 7, 57, 0
9, 123930, Note_on_c, 7, 69, 115
9, 123930, Note_on_c, 7, 45, 115
9, 123960, Note_on_c, 7, 45, 0
9, 123960, Note_on_c, 7, 69, 0
9, 123960, Note_on_c, 7, 55, 105
9, 123960, Note_on_c, 7, 31, 119
9, 123990, Note_on_c, 7, 31, 0
9, 123990, Note_on_c, 7, 55, 0
9, 123990, Note_on_c, 7, 67, 117
9, 123990, Note_on_c, 7, 43, 119
9, 124020, Note_on_c, 7, 43, 0
9, 124020, Note_on_c, 7, 67, 0
9, 124020, Note_on_c, 7, 53, 119
9, 124020, Note_on_c, 7, 29, 117
9, 124050, Note_on_c, 7, 29, 0
9, 124050, Note_on_c, 7, 53, 0
9, 124050, Note_on_c, 7, 65, 123
9, 124050, Note_on_c, 7, 41, 117
9, 124080, Note_on_c, 7, 41, 0
9, 124080, Note_on_c, 7, 65, 0
9, 124080, Note_on_c, 7, 52, 127
9, 124080, Note_on_c, 7, 40, 123
9, 124110, Note_on_c, 7, 52, 0
9, 124110, Note_on_c, 7, 64, 127
9, 124140, Note_on_c, 7, 64, 0
9, 124140, Note_on_c, 7, 40, 0
9, 124140, Note_on_c, 7, 50, 127
9, 124140, Note_on_c, 7, 38, 119
9, 124170, Note_on_c, 7, 50, 0
9, 124170, Note_on_c, 7, 62, 125
9, 124200, Note_on_c, 7, 62, 0
9, 124200, Note_on_c, 7, 38, 0
9, 124200, Note_on_c, 7, 48, 125
9, 124200, Note_on_c, 7, 60, 125
9, 124200, Note_on_c, 7, 36, 125
9, 124260, Note_on_c, 7, 36, 0
9, 124260, Note_on_c, 7, 60, 0
9, 124260, Note_on_c, 7, 48, 0
9, 124260, End_track
10, 0, Start_track
10, 0, MIDI_port, 0
10, 0, Title_t, "1st Violins"
10, 0, Program_c, 8, 48
10, 0, Control_c, 8, 7, 100
10, 0, Control_c, 8, 10, 26
10, 0, Control_c, 8, 93, 0
10, 0, Control_c, 8, 91, 66
10, 1920, Program_c, 8, 45
10, 2035, Control_c, 8, 7, 83
10, 2160, Note_on_c, 8, 71, 86
10, 2220, Note_on_c, 8, 71, 0
10, 2400, Note_on_c, 8, 72, 89
10, 2460, Note_on_c, 8, 72, 0
10, 2640, Note_on_c, 8, 71, 84
10, 2760, Note_on_c, 8, 71, 0
10, 2760, Note_on_c, 8, 72, 90
10, 2880, Note_on_c, 8, 72, 0
10, 2880, Note_on_c, 8, 71, 89
10, 3000, Note_on_c, 8, 71, 0
10, 3120, Note_on_c, 8, 71, 90
10, 3240, Note_on_c, 8, 71, 0
10, 3360, Note_on_c, 8, 72, 69
10, 3480, Note_on_c, 8, 72, 0
10, 3540, Note_on_c, 8, 72, 73
10, 3600, Note_on_c, 8, 72, 0
10, 3600, Note_on_c, 8, 70, 89
10, 3720, Note_on_c, 8, 70, 0
10, 3720, Note_on_c, 8, 69, 93
10, 3840, Note_on_c, 8, 69, 0
10, 3840, Note_on_c, 8, 67, 86
10, 3960, Note_on_c, 8, 67, 0
10, 4800, Control_c, 8, 7, 99
10, 5040, Note_on_c, 8, 65, 80
10, 5100, Note_on_c, 8, 65, 0
10, 5160, Note_on_c, 8, 66, 69
10, 5220, Note_on_c, 8, 66, 0
10, 5280, Note_on_c, 8, 67, 82
10, 5340, Note_on_c, 8, 67, 0
10, 5520, Control_c, 8, 7, 99
10, 5520, Note_on_c, 8, 65, 84
10, 5545, Control_c, 8, 7, 98
10, 5565, Control_c, 8, 7, 97
10, 5580, Note_on_c, 8, 65, 0
10, 5585, Control_c, 8, 7, 96
10, 5610, Control_c, 8, 7, 95
10, 5630, Control_c, 8, 7, 94
10, 5640, Note_on_c, 8, 66, 80
10, 5650, Control_c, 8, 7, 93
10, 5675, Control_c, 8, 7, 92
10, 5695, Control_c, 8, 7, 91
10, 5700, Note_on_c, 8, 66, 0
10, 5715, Control_c, 8, 7, 90
10, 5740, Control_c, 8, 7, 89
10, 5760, Control_c, 8, 7, 88
10, 5760, Note_on_c, 8, 67, 81
10, 5780, Control_c, 8, 7, 87
10, 5805, Control_c, 8, 7, 86
10, 5825, Control_c, 8, 7, 85
10, 5845, Control_c, 8, 7, 84
10, 5870, Control_c, 8, 7, 83
10, 5880, Note_on_c, 8, 67, 0
10, 5890, Control_c, 8, 7, 82
10, 5910, Control_c, 8, 7, 81
10, 5935, Control_c, 8, 7, 80
10, 5955, Control_c, 8, 7, 79
10, 5975, Control_c, 8, 7, 78
10, 6000, Control_c, 8, 7, 77
10, 6000, Note_on_c, 8, 65, 80
10, 6020, Control_c, 8, 7, 76
10, 6040, Control_c, 8, 7, 75
10, 6065, Control_c, 8, 7, 74
10, 6085, Control_c, 8, 7, 73
10, 6105, Control_c, 8, 7, 72
10, 6120, Note_on_c, 8, 65, 0
10, 6120, Note_on_c, 8, 66, 78
10, 6130, Control_c, 8, 7, 71
10, 6150, Control_c, 8, 7, 70
10, 6170, Control_c, 8, 7, 69
10, 6195, Control_c, 8, 7, 68
10, 6215, Control_c, 8, 7, 67
10, 6235, Control_c, 8, 7, 66
10, 6240, Note_on_c, 8, 66, 0
10, 6240, Note_on_c, 8, 67, 74
10, 6360, Note_on_c, 8, 67, 0
10, 6625, Control_c, 8, 7, 99
10, 8160, Note_on_c, 8, 62, 77
10, 8220, Note_on_c, 8, 62, 0
10, 8400, Note_on_c, 8, 63, 77
10, 8460, Note_on_c, 8, 63, 0
10, 8640, Note_on_c, 8, 62, 82
10, 8700, Note_on_c, 8, 62, 0
10, 8760, Note_on_c, 8, 64, 84
10, 8820, Note_on_c, 8, 64, 0
10, 8880, Note_on_c, 8, 65, 84
10, 9000, Note_on_c, 8, 65, 0
10, 9060, Note_on_c, 8, 68, 84
10, 9120, Note_on_c, 8, 68, 0
10, 9120, Note_on_c, 8, 67, 84
10, 9180, Note_on_c, 8, 67, 0
10, 9240, Note_on_c, 8, 67, 86
10, 9300, Note_on_c, 8, 67, 0
10, 9360, Note_on_c, 8, 67, 84
10, 9480, Note_on_c, 8, 67, 0
10, 9480, Program_c, 8, 48
10, 9540, Note_on_c, 8, 79, 99
10, 9600, Note_on_c, 8, 79, 0
10, 9600, Note_on_c, 8, 82, 94
10, 9660, Note_on_c, 8, 82, 0
10, 9660, Note_on_c, 8, 76, 99
10, 9720, Note_on_c, 8, 76, 0
10, 9720, Note_on_c, 8, 76, 99
10, 9750, Note_on_c, 8, 76, 0
10, 9780, Note_on_c, 8, 76, 105
10, 9810, Note_on_c, 8, 76, 0
10, 9825, Note_on_c, 8, 79, 93
10, 9840, Note_on_c, 8, 79, 0
10, 9840, Note_on_c, 8, 77, 94
10, 9870, Note_on_c, 8, 77, 0
10, 9870, Note_on_c, 8, 76, 99
10, 9900, Note_on_c, 8, 76, 0
10, 9900, Note_on_c, 8, 77, 93
10, 9930, Note_on_c, 8, 77, 0
10, 9930, Note_on_c, 8, 79, 94
10, 9960, Note_on_c, 8, 79, 0
10, 9960, Note_on_c, 8, 80, 94
10, 9990, Note_on_c, 8, 80, 0
10, 10020, Note_on_c, 8, 80, 95
10, 10050, Note_on_c, 8, 80, 0
10, 10080, Note_on_c, 8, 80, 99
10, 10140, Note_on_c, 8, 80, 0
10, 10140, Note_on_c, 8, 74, 105
10, 10200, Note_on_c, 8, 74, 0
10, 10200, Note_on_c, 8, 74, 104
10, 10230, Note_on_c, 8, 74, 0
10, 10260, Note_on_c, 8, 74, 105
10, 10290, Note_on_c, 8, 74, 0
10, 10305, Note_on_c, 8, 77, 95
10, 10320, Note_on_c, 8, 77, 0
10, 10320, Note_on_c, 8, 75, 98
10, 10350, Note_on_c, 8, 75, 0
10, 10350, Note_on_c, 8, 74, 105
10, 10380, Note_on_c, 8, 74, 0
10, 10380, Note_on_c, 8, 75, 101
10, 10410, Note_on_c, 8, 75, 0
10, 10410, Note_on_c, 8, 77, 99
10, 10440, Note_on_c, 8, 77, 0
10, 10440, Note_on_c, 8, 79, 99
10, 10470, Note_on_c, 8, 79, 0
10, 10500, Note_on_c, 8, 79, 99
10, 10530, Note_on_c, 8, 79, 0
10, 10560, Note_on_c, 8, 77, 95
10, 10590, Note_on_c, 8, 77, 0
10, 10620, Note_on_c, 8, 75, 101
10, 10650, Note_on_c, 8, 75, 0
10, 10680, Note_on_c, 8, 74, 105
10, 10710, Note_on_c, 8, 74, 0
10, 10740, Note_on_c, 8, 72, 98
10, 10770, Note_on_c, 8, 72, 0
10, 10800, Note_on_c, 8, 71, 119
10, 10860, Note_on_c, 8, 71, 0
10, 10860, Note_on_c, 8, 79, 95
10, 10880, Note_on_c, 8, 79, 0
10, 10880, Note_on_c, 8, 79, 90
10, 10900, Note_on_c, 8, 79, 0
10, 10900, Note_on_c, 8, 79, 94
10, 10920, Note_on_c, 8, 79, 0
10, 10920, Note_on_c, 8, 79, 89
10, 10980, Note_on_c, 8, 79, 0
10, 10980, Note_on_c, 8, 79, 95
10, 11040, Note_on_c, 8, 79, 0
10, 11040, Note_on_c, 8, 77, 90
10, 11070, Note_on_c, 8, 77, 0
10, 11100, Note_on_c, 8, 75, 101
10, 11130, Note_on_c, 8, 75, 0
10, 11160, Note_on_c, 8, 74, 105
10, 11190, Note_on_c, 8, 74, 0
10, 11220, Note_on_c, 8, 72, 101
10, 11250, Note_on_c, 8, 72, 0
10, 11280, Note_on_c, 8, 71, 119
10, 11340, Note_on_c, 8, 71, 0
10, 11340, Note_on_c, 8, 79, 94
10, 11360, Note_on_c, 8, 79, 0
10, 11360, Note_on_c, 8, 79, 94
10, 11380, Note_on_c, 8, 79, 0
10, 11380, Note_on_c, 8, 79, 98
10, 11400, Note_on_c, 8, 79, 0
10, 11400, Note_on_c, 8, 79, 90
10, 11460, Note_on_c, 8, 79, 0
10, 11460, Note_on_c, 8, 79, 95
10, 11520, Note_on_c, 8, 79, 0
10, 11520, Note_on_c, 8, 77, 95
10, 11550, Note_on_c, 8, 77, 0
10, 11580, Note_on_c, 8, 75, 101
10, 11610, Note_on_c, 8, 75, 0
10, 11640, Note_on_c, 8, 74, 105
10, 11670, Note_on_c, 8, 74, 0
10, 11700, Note_on_c, 8, 72, 95
10, 11730, Note_on_c, 8, 72, 0
10, 11760, Note_on_c, 8, 79, 99
10, 11790, Note_on_c, 8, 79, 0
10, 11790, Note_on_c, 8, 79, 95
10, 11820, Note_on_c, 8, 79, 0
10, 11820, Note_on_c, 8, 79, 58
10, 11850, Note_on_c, 8, 79, 0
10, 11850, Note_on_c, 8, 79, 58
10, 11880, Note_on_c, 8, 79, 0
10, 11880, Note_on_c, 8, 79, 43
10, 11910, Note_on_c, 8, 79, 0
10, 11910, Note_on_c, 8, 79, 43
10, 11940, Note_on_c, 8, 79, 0
10, 11940, Note_on_c, 8, 79, 45
10, 11970, Note_on_c, 8, 79, 0
10, 11970, Note_on_c, 8, 79, 52
10, 12000, Note_on_c, 8, 79, 0
10, 12000, Note_on_c, 8, 79, 62
10, 12030, Note_on_c, 8, 79, 0
10, 12030, Note_on_c, 8, 79, 52
10, 12060, Note_on_c, 8, 79, 0
10, 12060, Note_on_c, 8, 79, 43
10, 12090, Note_on_c, 8, 79, 0
10, 12090, Note_on_c, 8, 79, 43
10, 12120, Note_on_c, 8, 79, 0
10, 12120, Note_on_c, 8, 79, 43
10, 12150, Note_on_c, 8, 79, 0
10, 12150, Note_on_c, 8, 79, 45
10, 12180, Note_on_c, 8, 79, 0
10, 12180, Note_on_c, 8, 79, 44
10, 12210, Note_on_c, 8, 79, 0
10, 12210, Note_on_c, 8, 79, 57
10, 12240, Note_on_c, 8, 79, 0
10, 12240, Note_on_c, 8, 79, 46
10, 12270, Note_on_c, 8, 79, 0
10, 12270, Note_on_c, 8, 79, 46
10, 12300, Note_on_c, 8, 79, 0
10, 12300, Note_on_c, 8, 79, 44
10, 12330, Note_on_c, 8, 79, 0
10, 12330, Note_on_c, 8, 79, 50
10, 12360, Note_on_c, 8, 79, 0
10, 12360, Note_on_c, 8, 79, 53
10, 12390, Note_on_c, 8, 79, 0
10, 12390, Note_on_c, 8, 79, 49
10, 12420, Note_on_c, 8, 79, 0
10, 12420, Note_on_c, 8, 79, 44
10, 12450, Note_on_c, 8, 79, 0
10, 12450, Note_on_c, 8, 79, 53
10, 12480, Note_on_c, 8, 79, 0
10, 12480, Note_on_c, 8, 79, 49
10, 12510, Note_on_c, 8, 79, 0
10, 12510, Note_on_c, 8, 79, 46
10, 12540, Note_on_c, 8, 79, 0
10, 12540, Note_on_c, 8, 79, 52
10, 12570, Note_on_c, 8, 79, 0
10, 12570, Note_on_c, 8, 79, 62
10, 12600, Note_on_c, 8, 79, 0
10, 12600, Note_on_c, 8, 79, 59
10, 12630, Note_on_c, 8, 79, 0
10, 12630, Note_on_c, 8, 79, 55
10, 12660, Note_on_c, 8, 79, 0
10, 12660, Note_on_c, 8, 79, 57
10, 12690, Note_on_c, 8, 79, 0
10, 12690, Note_on_c, 8, 79, 57
10, 12720, Note_on_c, 8, 79, 0
10, 12720, Note_on_c, 8, 79, 45
10, 12750, Note_on_c, 8, 79, 0
10, 12750, Note_on_c, 8, 79, 50
10, 12780, Note_on_c, 8, 79, 0
10, 12780, Note_on_c, 8, 79, 76
10, 12810, Note_on_c, 8, 79, 0
10, 12810, Note_on_c, 8, 79, 74
10, 12840, Note_on_c, 8, 79, 0
10, 12840, Note_on_c, 8, 79, 84
10, 12870, Note_on_c, 8, 79, 0
10, 12870, Note_on_c, 8, 79, 99
10, 12900, Note_on_c, 8, 79, 0
10, 12900, Note_on_c, 8, 79, 105
10, 12930, Note_on_c, 8, 79, 0
10, 12930, Note_on_c, 8, 79, 107
10, 12960, Note_on_c, 8, 79, 0
10, 12960, Note_on_c, 8, 80, 104
10, 13020, Note_on_c, 8, 80, 0
10, 13020, Note_on_c, 8, 71, 101
10, 13080, Note_on_c, 8, 71, 0
10, 13080, Note_on_c, 8, 71, 105
10, 13110, Note_on_c, 8, 71, 0
10, 13140, Note_on_c, 8, 71, 105
10, 13170, Note_on_c, 8, 71, 0
10, 13200, Note_on_c, 8, 72, 107
10, 13320, Note_on_c, 8, 72, 0
10, 13320, Note_on_c, 8, 74, 105
10, 13350, Note_on_c, 8, 74, 0
10, 13350, Note_on_c, 8, 72, 101
10, 13380, Note_on_c, 8, 72, 0
10, 13380, Note_on_c, 8, 71, 105
10, 13410, Note_on_c, 8, 71, 0
10, 13410, Note_on_c, 8, 72, 94
10, 13440, Note_on_c, 8, 72, 0
10, 13440, Note_on_c, 8, 74, 112
10, 13470, Note_on_c, 8, 74, 0
10, 13500, Note_on_c, 8, 74, 107
10, 13530, Note_on_c, 8, 74, 0
10, 13560, Note_on_c, 8, 67, 105
10, 13590, Note_on_c, 8, 67, 0
10, 13620, Note_on_c, 8, 67, 105
10, 13650, Note_on_c, 8, 67, 0
10, 13680, Note_on_c, 8, 79, 125
10, 13800, Note_on_c, 8, 79, 0
10, 13800, Note_on_c, 8, 77, 99
10, 13830, Note_on_c, 8, 77, 0
10, 13830, Note_on_c, 8, 75, 104
10, 13860, Note_on_c, 8, 75, 0
10, 13860, Note_on_c, 8, 74, 112
10, 13890, Note_on_c, 8, 74, 0
10, 13890, Note_on_c, 8, 75, 105
10, 13920, Note_on_c, 8, 75, 0
10, 13920, Note_on_c, 8, 77, 101
10, 13950, Note_on_c, 8, 77, 0
10, 13980, Note_on_c, 8, 77, 104
10, 14010, Note_on_c, 8, 77, 0
10, 14040, Note_on_c, 8, 74, 110
10, 14070, Note_on_c, 8, 74, 0
10, 14100, Note_on_c, 8, 74, 112
10, 14130, Note_on_c, 8, 74, 0
10, 14160, Note_on_c, 8, 79, 107
10, 14280, Note_on_c, 8, 79, 0
10, 14280, Note_on_c, 8, 77, 99
10, 14310, Note_on_c, 8, 77, 0
10, 14310, Note_on_c, 8, 75, 99
10, 14340, Note_on_c, 8, 75, 0
10, 14340, Note_on_c, 8, 74, 105
10, 14370, Note_on_c, 8, 74, 0
10, 14370, Note_on_c, 8, 75, 101
10, 14400, Note_on_c, 8, 75, 0
10, 14400, Note_on_c, 8, 77, 101
10, 14430, Note_on_c, 8, 77, 0
10, 14460, Note_on_c, 8, 77, 101
10, 14490, Note_on_c, 8, 77, 0
10, 14520, Note_on_c, 8, 74, 110
10, 14550, Note_on_c, 8, 74, 0
10, 14580, Note_on_c, 8, 74, 112
10, 14610, Note_on_c, 8, 74, 0
10, 14640, Note_on_c, 8, 72, 90
10, 14700, Note_on_c, 8, 72, 0
10, 14760, Note_on_c, 8, 67, 104
10, 14820, Note_on_c, 8, 67, 0
10, 14880, Note_on_c, 8, 60, 105
10, 14940, Note_on_c, 8, 60, 0
10, 18060, Note_on_c, 8, 63, 36
10, 18120, Note_on_c, 8, 63, 0
10, 18120, Note_on_c, 8, 63, 62
10, 18180, Note_on_c, 8, 63, 0
10, 18180, Note_on_c, 8, 63, 62
10, 18240, Note_on_c, 8, 63, 0
10, 18300, Note_on_c, 8, 62, 52
10, 18360, Note_on_c, 8, 62, 0
10, 18360, Note_on_c, 8, 62, 48
10, 18420, Note_on_c, 8, 62, 0
10, 18420, Note_on_c, 8, 62, 47
10, 18480, Note_on_c, 8, 62, 0
10, 18540, Note_on_c, 8, 63, 59
10, 18540, Note_on_c, 8, 63, 42
10, 18600, Note_on_c, 8, 63, 0
10, 18600, Note_on_c, 8, 63, 0
10, 18660, Note_on_c, 8, 63, 65
10, 18720, Note_on_c, 8, 63, 0
10, 18780, Note_on_c, 8, 65, 66
10, 18840, Note_on_c, 8, 65, 0
10, 18840, Note_on_c, 8, 65, 57
10, 18900, Note_on_c, 8, 65, 0
10, 18900, Note_on_c, 8, 65, 52
10, 18960, Note_on_c, 8, 65, 0
10, 19020, Note_on_c, 8, 67, 44
10, 19080, Note_on_c, 8, 67, 0
10, 19080, Note_on_c, 8, 67, 57
10, 19140, Note_on_c, 8, 67, 0
10, 19140, Note_on_c, 8, 67, 71
10, 19200, Note_on_c, 8, 67, 0
10, 19260, Note_on_c, 8, 68, 72
10, 19320, Note_on_c, 8, 68, 0
10, 19320, Note_on_c, 8, 68, 73
10, 19380, Note_on_c, 8, 68, 0
10, 19380, Note_on_c, 8, 68, 78
10, 19440, Note_on_c, 8, 68, 0
10, 19500, Note_on_c, 8, 69, 68
10, 19560, Note_on_c, 8, 69, 0
10, 19560, Note_on_c, 8, 69, 65
10, 19620, Note_on_c, 8, 69, 0
10, 19620, Note_on_c, 8, 69, 76
10, 19680, Note_on_c, 8, 69, 0
10, 19680, Note_on_c, 8, 70, 50
10, 19695, Note_on_c, 8, 70, 0
10, 19710, Note_on_c, 8, 70, 57
10, 19725, Note_on_c, 8, 70, 0
10, 19740, Note_on_c, 8, 72, 73
10, 19755, Note_on_c, 8, 72, 0
10, 19770, Note_on_c, 8, 74, 72
10, 19785, Note_on_c, 8, 74, 0
10, 19800, Note_on_c, 8, 75, 69
10, 19815, Note_on_c, 8, 75, 0
10, 19830, Note_on_c, 8, 77, 68
10, 19845, Note_on_c, 8, 77, 0
10, 19860, Note_on_c, 8, 79, 72
10, 19875, Note_on_c, 8, 79, 0
10, 19890, Note_on_c, 8, 80, 74
10, 19905, Note_on_c, 8, 80, 0
10, 19920, Note_on_c, 8, 82, 58
10, 20040, Note_on_c, 8, 82, 0
10, 20040, Note_on_c, 8, 80, 56
10, 20055, Note_on_c, 8, 80, 0
10, 20055, Note_on_c, 8, 79, 68
10, 20085, Note_on_c, 8, 79, 0
10, 20100, Note_on_c, 8, 77, 69
10, 20115, Note_on_c, 8, 77, 0
10, 20115, Note_on_c, 8, 75, 64
10, 20145, Note_on_c, 8, 75, 0
10, 20160, Note_on_c, 8, 75, 62
10, 20175, Note_on_c, 8, 75, 0
10, 20175, Note_on_c, 8, 74, 72
10, 20205, Note_on_c, 8, 74, 0
10, 20220, Note_on_c, 8, 72, 81
10, 20235, Note_on_c, 8, 72, 0
10, 20235, Note_on_c, 8, 70, 58
10, 20265, Note_on_c, 8, 70, 0
10, 20280, Note_on_c, 8, 70, 61
10, 20295, Note_on_c, 8, 70, 0
10, 20295, Note_on_c, 8, 68, 52
10, 20325, Note_on_c, 8, 68, 0
10, 20340, Note_on_c, 8, 67, 65
10, 20355, Note_on_c, 8, 67, 0
10, 20355, Note_on_c, 8, 65, 70
10, 20385, Note_on_c, 8, 65, 0
10, 20400, Note_on_c, 8, 63, 62
10, 20430, Note_on_c, 8, 63, 0
10, 20460, Note_on_c, 8, 75, 84
10, 20490, Note_on_c, 8, 75, 0
10, 20520, Note_on_c, 8, 77, 68
10, 20550, Note_on_c, 8, 77, 0
10, 20550, Note_on_c, 8, 75, 81
10, 20580, Note_on_c, 8, 75, 0
10, 20580, Note_on_c, 8, 74, 70
10, 20610, Note_on_c, 8, 74, 0
10, 20610, Note_on_c, 8, 75, 76
10, 20640, Note_on_c, 8, 75, 0
10, 20640, Note_on_c, 8, 77, 95
10, 20880, Note_on_c, 8, 77, 0
10, 20880, Note_on_c, 8, 79, 93
10, 20910, Note_on_c, 8, 79, 0
10, 20940, Note_on_c, 8, 79, 89
10, 20970, Note_on_c, 8, 79, 0
10, 21000, Note_on_c, 8, 80, 86
10, 21030, Note_on_c, 8, 80, 0
10, 21030, Note_on_c, 8, 79, 89
10, 21060, Note_on_c, 8, 79, 0
10, 21060, Note_on_c, 8, 77, 85
10, 21090, Note_on_c, 8, 77, 0
10, 21090, Note_on_c, 8, 79, 86
10, 21120, Note_on_c, 8, 79, 0
10, 21120, Note_on_c, 8, 80, 99
10, 21300, Note_on_c, 8, 80, 0
10, 21300, Note_on_c, 8, 84, 89
10, 21360, Note_on_c, 8, 84, 0
10, 21360, Control_c, 8, 7, 126
10, 21360, Note_on_c, 8, 75, 90
10, 21420, Note_on_c, 8, 75, 0
10, 21420, Note_on_c, 8, 75, 80
10, 21450, Note_on_c, 8, 75, 0
10, 21465, Note_on_c, 8, 79, 84
10, 21480, Note_on_c, 8, 79, 0
10, 21480, Note_on_c, 8, 77, 89
10, 21510, Note_on_c, 8, 77, 0
10, 21510, Note_on_c, 8, 75, 94
10, 21540, Note_on_c, 8, 75, 0
10, 21540, Note_on_c, 8, 77, 89
10, 21570, Note_on_c, 8, 77, 0
10, 21570, Note_on_c, 8, 79, 81
10, 21600, Note_on_c, 8, 79, 0
10, 21600, Note_on_c, 8, 75, 94
10, 21720, Note_on_c, 8, 75, 0
10, 21840, Control_c, 8, 7, 100
10, 22560, Note_on_c, 8, 63, 72
10, 22680, Note_on_c, 8, 63, 0
10, 22740, Note_on_c, 8, 75, 65
10, 22800, Note_on_c, 8, 75, 0
10, 22800, Note_on_c, 8, 63, 73
10, 22920, Note_on_c, 8, 63, 0
10, 22980, Note_on_c, 8, 75, 74
10, 23040, Note_on_c, 8, 75, 0
10, 23040, Note_on_c, 8, 63, 67
10, 23100, Note_on_c, 8, 63, 0
10, 23100, Note_on_c, 8, 70, 69
10, 23220, Note_on_c, 8, 70, 0
10, 23220, Note_on_c, 8, 68, 76
10, 23280, Note_on_c, 8, 68, 0
10, 23280, Note_on_c, 8, 67, 64
10, 23310, Note_on_c, 8, 67, 0
10, 23340, Note_on_c, 8, 65, 65
10, 23370, Note_on_c, 8, 65, 0
10, 23400, Note_on_c, 8, 63, 73
10, 23430, Note_on_c, 8, 63, 0
10, 23460, Note_on_c, 8, 62, 76
10, 23490, Note_on_c, 8, 62, 0
10, 23520, Note_on_c, 8, 63, 73
10, 23580, Note_on_c, 8, 63, 0
10, 23640, Note_on_c, 8, 60, 74
10, 23700, Note_on_c, 8, 60, 0
10, 23760, Note_on_c, 8, 68, 78
10, 23820, Note_on_c, 8, 68, 0
10, 23880, Note_on_c, 8, 65, 74
10, 23940, Note_on_c, 8, 65, 0
10, 24000, Note_on_c, 8, 62, 71
10, 24060, Note_on_c, 8, 62, 0
10, 26160, Note_on_c, 8, 67, 64
10, 26280, Note_on_c, 8, 67, 0
10, 26280, Note_on_c, 8, 68, 69
10, 26400, Note_on_c, 8, 68, 0
10, 26400, Note_on_c, 8, 67, 72
10, 26460, Note_on_c, 8, 67, 0
10, 26460, Note_on_c, 8, 75, 81
10, 26490, Note_on_c, 8, 75, 0
10, 26520, Note_on_c, 8, 79, 77
10, 26550, Note_on_c, 8, 79, 0
10, 26580, Note_on_c, 8, 80, 74
10, 26610, Note_on_c, 8, 80, 0
10, 26640, Note_on_c, 8, 82, 71
10, 26820, Note_on_c, 8, 82, 0
10, 26820, Note_on_c, 8, 80, 72
10, 26880, Note_on_c, 8, 80, 0
10, 26880, Note_on_c, 8, 79, 65
10, 27060, Note_on_c, 8, 79, 0
10, 27060, Note_on_c, 8, 79, 70
10, 27120, Note_on_c, 8, 79, 0
10, 27120, Note_on_c, 8, 77, 73
10, 27180, Note_on_c, 8, 77, 0
10, 27180, Note_on_c, 8, 80, 65
10, 27240, Note_on_c, 8, 80, 0
10, 27240, Note_on_c, 8, 75, 81
10, 27270, Note_on_c, 8, 75, 0
10, 27300, Note_on_c, 8, 74, 82
10, 27330, Note_on_c, 8, 74, 0
10, 27360, Note_on_c, 8, 75, 90
10, 27390, Note_on_c, 8, 75, 0
10, 27420, Note_on_c, 8, 72, 90
10, 27450, Note_on_c, 8, 72, 0
10, 27480, Note_on_c, 8, 75, 89
10, 27510, Note_on_c, 8, 75, 0
10, 27540, Note_on_c, 8, 77, 82
10, 27570, Note_on_c, 8, 77, 0
10, 27600, Note_on_c, 8, 79, 72
10, 27780, Note_on_c, 8, 79, 0
10, 27780, Note_on_c, 8, 77, 72
10, 27840, Note_on_c, 8, 77, 0
10, 27840, Note_on_c, 8, 75, 73
10, 28020, Note_on_c, 8, 75, 0
10, 28020, Note_on_c, 8, 71, 76
10, 28080, Note_on_c, 8, 71, 0
10, 28080, Note_on_c, 8, 72, 86
10, 28140, Note_on_c, 8, 72, 0
10, 28140, Note_on_c, 8, 66, 52
10, 28200, Note_on_c, 8, 66, 0
10, 28200, Note_on_c, 8, 66, 57
10, 28260, Note_on_c, 8, 66, 0
10, 28260, Note_on_c, 8, 66, 69
10, 28320, Note_on_c, 8, 66, 0
10, 28320, Note_on_c, 8, 67, 85
10, 28380, Note_on_c, 8, 67, 0
10, 28620, Note_on_c, 8, 48, 99
10, 28650, Note_on_c, 8, 48, 0
10, 28650, Note_on_c, 8, 50, 105
10, 28680, Note_on_c, 8, 50, 0
10, 28680, Note_on_c, 8, 51, 90
10, 28710, Note_on_c, 8, 51, 0
10, 28740, Note_on_c, 8, 48, 105
10, 28770, Note_on_c, 8, 48, 0
10, 28800, Note_on_c, 8, 43, 94
10, 28860, Note_on_c, 8, 43, 0
10, 29100, Note_on_c, 8, 48, 104
10, 29130, Note_on_c, 8, 48, 0
10, 29130, Note_on_c, 8, 50, 105
10, 29160, Note_on_c, 8, 50, 0
10, 29160, Note_on_c, 8, 51, 94
10, 29190, Note_on_c, 8, 51, 0
10, 29220, Note_on_c, 8, 48, 105
10, 29250, Note_on_c, 8, 48, 0
10, 29280, Note_on_c, 8, 43, 98
10, 29340, Note_on_c, 8, 43, 0
10, 29520, Note_on_c, 8, 65, 35
10, 29640, Note_on_c, 8, 65, 0
10, 29760, Note_on_c, 8, 71, 45
10, 29880, Note_on_c, 8, 71, 0
10, 30000, Note_on_c, 8, 74, 53
10, 30120, Note_on_c, 8, 74, 0
10, 30240, Note_on_c, 8, 77, 45
10, 30300, Note_on_c, 8, 77, 0
10, 31920, Program_c, 8, 45
10, 32160, Note_on_c, 8, 62, 67
10, 32280, Note_on_c, 8, 62, 0
10, 32400, Note_on_c, 8, 63, 74
10, 32520, Note_on_c, 8, 63, 0
10, 32640, Note_on_c, 8, 62, 84
10, 32760, Note_on_c, 8, 62, 0
10, 32760, Note_on_c, 8, 63, 85
10, 32880, Note_on_c, 8, 63, 0
10, 32880, Note_on_c, 8, 62, 84
10, 33000, Note_on_c, 8, 62, 0
10, 33120, Note_on_c, 8, 65, 84
10, 33240, Note_on_c, 8, 65, 0
10, 33360, Note_on_c, 8, 63, 80
10, 33480, Note_on_c, 8, 63, 0
10, 33540, Note_on_c, 8, 60, 85
10, 33600, Note_on_c, 8, 60, 0
10, 33600, Note_on_c, 8, 62, 73
10, 33720, Note_on_c, 8, 62, 0
10, 33720, Note_on_c, 8, 62, 81
10, 33840, Note_on_c, 8, 62, 0
10, 33840, Note_on_c, 8, 62, 69
10, 33840, Program_c, 8, 45
10, 33900, Note_on_c, 8, 62, 0
10, 33955, Control_c, 8, 7, 83
10, 34080, Note_on_c, 8, 71, 86
10, 34140, Note_on_c, 8, 71, 0
10, 34320, Note_on_c, 8, 72, 89
10, 34380, Note_on_c, 8, 72, 0
10, 34560, Note_on_c, 8, 71, 84
10, 34680, Note_on_c, 8, 71, 0
10, 34680, Note_on_c, 8, 72, 90
10, 34800, Note_on_c, 8, 72, 0
10, 34800, Note_on_c, 8, 71, 89
10, 34920, Note_on_c, 8, 71, 0
10, 35040, Note_on_c, 8, 71, 90
10, 35160, Note_on_c, 8, 71, 0
10, 35280, Note_on_c, 8, 72, 69
10, 35400, Note_on_c, 8, 72, 0
10, 35460, Note_on_c, 8, 72, 73
10, 35520, Note_on_c, 8, 72, 0
10, 35520, Note_on_c, 8, 70, 89
10, 35640, Note_on_c, 8, 70, 0
10, 35640, Note_on_c, 8, 69, 93
10, 35760, Note_on_c, 8, 69, 0
10, 35760, Note_on_c, 8, 67, 86
10, 35880, Note_on_c, 8, 67, 0
10, 36000, Note_on_c, 8, 70, 65
10, 36120, Note_on_c, 8, 70, 0
10, 36240, Note_on_c, 8, 68, 73
10, 36360, Note_on_c, 8, 68, 0
10, 36480, Note_on_c, 8, 68, 78
10, 36600, Note_on_c, 8, 68, 0
10, 36720, Control_c, 8, 7, 99
10, 36720, Note_on_c, 8, 67, 57
10, 36840, Note_on_c, 8, 67, 0
10, 36960, Note_on_c, 8, 65, 80
10, 37020, Note_on_c, 8, 65, 0
10, 37080, Note_on_c, 8, 66, 69
10, 37140, Note_on_c, 8, 66, 0
10, 37200, Note_on_c, 8, 67, 82
10, 37260, Note_on_c, 8, 67, 0
10, 37440, Control_c, 8, 7, 99
10, 37440, Note_on_c, 8, 65, 84
10, 37465, Control_c, 8, 7, 98
10, 37485, Control_c, 8, 7, 97
10, 37500, Note_on_c, 8, 65, 0
10, 37505, Control_c, 8, 7, 96
10, 37530, Control_c, 8, 7, 95
10, 37550, Control_c, 8, 7, 94
10, 37560, Note_on_c, 8, 66, 80
10, 37570, Control_c, 8, 7, 93
10, 37595, Control_c, 8, 7, 92
10, 37615, Control_c, 8, 7, 91
10, 37620, Note_on_c, 8, 66, 0
10, 37635, Control_c, 8, 7, 90
10, 37660, Control_c, 8, 7, 89
10, 37680, Control_c, 8, 7, 88
10, 37680, Note_on_c, 8, 67, 81
10, 37700, Control_c, 8, 7, 87
10, 37725, Control_c, 8, 7, 86
10, 37745, Control_c, 8, 7, 85
10, 37765, Control_c, 8, 7, 84
10, 37790, Control_c, 8, 7, 83
10, 37800, Note_on_c, 8, 67, 0
10, 37810, Control_c, 8, 7, 82
10, 37830, Control_c, 8, 7, 81
10, 37855, Control_c, 8, 7, 80
10, 37875, Control_c, 8, 7, 79
10, 37895, Control_c, 8, 7, 78
10, 37920, Control_c, 8, 7, 77
10, 37920, Note_on_c, 8, 65, 80
10, 37940, Control_c, 8, 7, 76
10, 37960, Control_c, 8, 7, 75
10, 37985, Control_c, 8, 7, 74
10, 38005, Control_c, 8, 7, 73
10, 38025, Control_c, 8, 7, 72
10, 38040, Note_on_c, 8, 65, 0
10, 38040, Note_on_c, 8, 66, 78
10, 38050, Control_c, 8, 7, 71
10, 38070, Control_c, 8, 7, 70
10, 38090, Control_c, 8, 7, 69
10, 38115, Control_c, 8, 7, 68
10, 38135, Control_c, 8, 7, 67
10, 38155, Control_c, 8, 7, 66
10, 38160, Note_on_c, 8, 66, 0
10, 38160, Note_on_c, 8, 67, 73
10, 38220, Note_on_c, 8, 67, 0
10, 41270, Control_c, 8, 7, 100
10, 41280, Note_on_c, 8, 62, 90
10, 41340, Note_on_c, 8, 62, 0
10, 41520, Note_on_c, 8, 63, 90
10, 41580, Note_on_c, 8, 63, 0
10, 41760, Note_on_c, 8, 62, 94
10, 41820, Note_on_c, 8, 62, 0
10, 41880, Note_on_c, 8, 64, 95
10, 41940, Note_on_c, 8, 64, 0
10, 42000, Note_on_c, 8, 65, 90
10, 42120, Note_on_c, 8, 65, 0
10, 42180, Note_on_c, 8, 68, 90
10, 42240, Note_on_c, 8, 68, 0
10, 42240, Note_on_c, 8, 67, 84
10, 42300, Note_on_c, 8, 67, 0
10, 42360, Note_on_c, 8, 67, 94
10, 42420, Note_on_c, 8, 67, 0
10, 42480, Note_on_c, 8, 67, 93
10, 42600, Note_on_c, 8, 67, 0
10, 42600, Program_c, 8, 48
10, 42660, Note_on_c, 8, 79, 81
10, 42720, Note_on_c, 8, 79, 0
10, 42720, Note_on_c, 8, 82, 94
10, 42780, Note_on_c, 8, 82, 0
10, 42780, Note_on_c, 8, 76, 99
10, 42840, Note_on_c, 8, 76, 0
10, 42840, Note_on_c, 8, 76, 99
10, 42870, Note_on_c, 8, 76, 0
10, 42900, Note_on_c, 8, 76, 105
10, 42930, Note_on_c, 8, 76, 0
10, 42945, Note_on_c, 8, 79, 93
10, 42960, Note_on_c, 8, 79, 0
10, 42960, Note_on_c, 8, 77, 94
10, 42990, Note_on_c, 8, 77, 0
10, 42990, Note_on_c, 8, 76, 99
10, 43020, Note_on_c, 8, 76, 0
10, 43020, Note_on_c, 8, 77, 93
10, 43050, Note_on_c, 8, 77, 0
10, 43050, Note_on_c, 8, 79, 94
10, 43080, Note_on_c, 8, 79, 0
10, 43080, Note_on_c, 8, 80, 94
10, 43110, Note_on_c, 8, 80, 0
10, 43140, Note_on_c, 8, 80, 95
10, 43170, Note_on_c, 8, 80, 0
10, 43200, Note_on_c, 8, 80, 99
10, 43260, Note_on_c, 8, 80, 0
10, 43260, Note_on_c, 8, 74, 105
10, 43320, Note_on_c, 8, 74, 0
10, 43320, Note_on_c, 8, 74, 104
10, 43350, Note_on_c, 8, 74, 0
10, 43380, Note_on_c, 8, 74, 105
10, 43410, Note_on_c, 8, 74, 0
10, 43425, Note_on_c, 8, 77, 95
10, 43440, Note_on_c, 8, 77, 0
10, 43440, Note_on_c, 8, 75, 98
10, 43470, Note_on_c, 8, 75, 0
10, 43470, Note_on_c, 8, 74, 105
10, 43500, Note_on_c, 8, 74, 0
10, 43500, Note_on_c, 8, 75, 101
10, 43530, Note_on_c, 8, 75, 0
10, 43530, Note_on_c, 8, 77, 99
10, 43560, Note_on_c, 8, 77, 0
10, 43560, Note_on_c, 8, 79, 99
10, 43590, Note_on_c, 8, 79, 0
10, 43620, Note_on_c, 8, 79, 99
10, 43650, Note_on_c, 8, 79, 0
10, 43680, Note_on_c, 8, 77, 95
10, 43710, Note_on_c, 8, 77, 0
10, 43740, Note_on_c, 8, 75, 101
10, 43770, Note_on_c, 8, 75, 0
10, 43800, Note_on_c, 8, 74, 105
10, 43830, Note_on_c, 8, 74, 0
10, 43860, Note_on_c, 8, 72, 98
10, 43890, Note_on_c, 8, 72, 0
10, 43920, Note_on_c, 8, 71, 119
10, 43980, Note_on_c, 8, 71, 0
10, 43980, Note_on_c, 8, 79, 95
10, 44000, Note_on_c, 8, 79, 0
10, 44000, Note_on_c, 8, 79, 90
10, 44020, Note_on_c, 8, 79, 0
10, 44020, Note_on_c, 8, 79, 94
10, 44040, Note_on_c, 8, 79, 0
10, 44040, Note_on_c, 8, 79, 89
10, 44100, Note_on_c, 8, 79, 0
10, 44100, Note_on_c, 8, 79, 95
10, 44160, Note_on_c, 8, 79, 0
10, 44160, Note_on_c, 8, 77, 90
10, 44190, Note_on_c, 8, 77, 0
10, 44220, Note_on_c, 8, 75, 101
10, 44250, Note_on_c, 8, 75, 0
10, 44280, Note_on_c, 8, 74, 105
10, 44310, Note_on_c, 8, 74, 0
10, 44340, Note_on_c, 8, 72, 101
10, 44370, Note_on_c, 8, 72, 0
10, 44400, Note_on_c, 8, 71, 119
10, 44460, Note_on_c, 8, 71, 0
10, 44460, Note_on_c, 8, 79, 94
10, 44480, Note_on_c, 8, 79, 0
10, 44480, Note_on_c, 8, 79, 94
10, 44500, Note_on_c, 8, 79, 0
10, 44500, Note_on_c, 8, 79, 98
10, 44520, Note_on_c, 8, 79, 0
10, 44520, Note_on_c, 8, 79, 90
10, 44580, Note_on_c, 8, 79, 0
10, 44580, Note_on_c, 8, 79, 95
10, 44640, Note_on_c, 8, 79, 0
10, 44640, Note_on_c, 8, 77, 95
10, 44670, Note_on_c, 8, 77, 0
10, 44700, Note_on_c, 8, 75, 101
10, 44730, Note_on_c, 8, 75, 0
10, 44760, Note_on_c, 8, 74, 105
10, 44790, Note_on_c, 8, 74, 0
10, 44820, Note_on_c, 8, 72, 95
10, 44850, Note_on_c, 8, 72, 0
10, 44880, Note_on_c, 8, 79, 99
10, 44910, Note_on_c, 8, 79, 0
10, 44910, Note_on_c, 8, 79, 95
10, 44940, Note_on_c, 8, 79, 0
10, 44940, Note_on_c, 8, 79, 58
10, 44970, Note_on_c, 8, 79, 0
10, 44970, Note_on_c, 8, 79, 58
10, 45000, Note_on_c, 8, 79, 0
10, 45000, Note_on_c, 8, 79, 43
10, 45030, Note_on_c, 8, 79, 0
10, 45030, Note_on_c, 8, 79, 43
10, 45060, Note_on_c, 8, 79, 0
10, 45060, Note_on_c, 8, 79, 45
10, 45090, Note_on_c, 8, 79, 0
10, 45090, Note_on_c, 8, 79, 52
10, 45120, Note_on_c, 8, 79, 0
10, 45120, Note_on_c, 8, 79, 62
10, 45150, Note_on_c, 8, 79, 0
10, 45150, Note_on_c, 8, 79, 52
10, 45180, Note_on_c, 8, 79, 0
10, 45180, Note_on_c, 8, 79, 43
10, 45210, Note_on_c, 8, 79, 0
10, 45210, Note_on_c, 8, 79, 43
10, 45240, Note_on_c, 8, 79, 0
10, 45240, Note_on_c, 8, 79, 43
10, 45270, Note_on_c, 8, 79, 0
10, 45270, Note_on_c, 8, 79, 45
10, 45300, Note_on_c, 8, 79, 0
10, 45300, Note_on_c, 8, 79, 44
10, 45330, Note_on_c, 8, 79, 0
10, 45330, Note_on_c, 8, 79, 57
10, 45360, Note_on_c, 8, 79, 0
10, 45360, Note_on_c, 8, 79, 46
10, 45390, Note_on_c, 8, 79, 0
10, 45390, Note_on_c, 8, 79, 46
10, 45420, Note_on_c, 8, 79, 0
10, 45420, Note_on_c, 8, 79, 44
10, 45450, Note_on_c, 8, 79, 0
10, 45450, Note_on_c, 8, 79, 50
10, 45480, Note_on_c, 8, 79, 0
10, 45480, Note_on_c, 8, 79, 53
10, 45510, Note_on_c, 8, 79, 0
10, 45510, Note_on_c, 8, 79, 49
10, 45540, Note_on_c, 8, 79, 0
10, 45540, Note_on_c, 8, 79, 44
10, 45570, Note_on_c, 8, 79, 0
10, 45570, Note_on_c, 8, 79, 53
10, 45600, Note_on_c, 8, 79, 0
10, 45600, Note_on_c, 8, 79, 49
10, 45630, Note_on_c, 8, 79, 0
10, 45630, Note_on_c, 8, 79, 46
10, 45660, Note_on_c, 8, 79, 0
10, 45660, Note_on_c, 8, 79, 52
10, 45690, Note_on_c, 8, 79, 0
10, 45690, Note_on_c, 8, 79, 62
10, 45720, Note_on_c, 8, 79, 0
10, 45720, Note_on_c, 8, 79, 59
10, 45750, Note_on_c, 8, 79, 0
10, 45750, Note_on_c, 8, 79, 55
10, 45780, Note_on_c, 8, 79, 0
10, 45780, Note_on_c, 8, 79, 57
10, 45810, Note_on_c, 8, 79, 0
10, 45810, Note_on_c, 8, 79, 57
10, 45840, Note_on_c, 8, 79, 0
10, 45840, Note_on_c, 8, 79, 45
10, 45870, Note_on_c, 8, 79, 0
10, 45870, Note_on_c, 8, 79, 50
10, 45900, Note_on_c, 8, 79, 0
10, 45900, Note_on_c, 8, 79, 76
10, 45930, Note_on_c, 8, 79, 0
10, 45930, Note_on_c, 8, 79, 74
10, 45960, Note_on_c, 8, 79, 0
10, 45960, Note_on_c, 8, 79, 84
10, 45990, Note_on_c, 8, 79, 0
10, 45990, Note_on_c, 8, 79, 99
10, 46020, Note_on_c, 8, 79, 0
10, 46020, Note_on_c, 8, 79, 105
10, 46050, Note_on_c, 8, 79, 0
10, 46050, Note_on_c, 8, 79, 107
10, 46080, Note_on_c, 8, 79, 0
10, 46080, Note_on_c, 8, 80, 104
10, 46140, Note_on_c, 8, 80, 0
10, 46140, Note_on_c, 8, 71, 101
10, 46200, Note_on_c, 8, 71, 0
10, 46200, Note_on_c, 8, 71, 105
10, 46230, Note_on_c, 8, 71, 0
10, 46260, Note_on_c, 8, 71, 105
10, 46290, Note_on_c, 8, 71, 0
10, 46320, Note_on_c, 8, 72, 107
10, 46440, Note_on_c, 8, 72, 0
10, 46440, Note_on_c, 8, 74, 105
10, 46470, Note_on_c, 8, 74, 0
10, 46470, Note_on_c, 8, 72, 101
10, 46500, Note_on_c, 8, 72, 0
10, 46500, Note_on_c, 8, 71, 105
10, 46530, Note_on_c, 8, 71, 0
10, 46530, Note_on_c, 8, 72, 94
10, 46560, Note_on_c, 8, 72, 0
10, 46560, Note_on_c, 8, 74, 112
10, 46590, Note_on_c, 8, 74, 0
10, 46620, Note_on_c, 8, 74, 107
10, 46650, Note_on_c, 8, 74, 0
10, 46680, Note_on_c, 8, 67, 105
10, 46710, Note_on_c, 8, 67, 0
10, 46740, Note_on_c, 8, 67, 105
10, 46770, Note_on_c, 8, 67, 0
10, 46800, Note_on_c, 8, 79, 125
10, 46920, Note_on_c, 8, 79, 0
10, 46920, Note_on_c, 8, 77, 99
10, 46950, Note_on_c, 8, 77, 0
10, 46950, Note_on_c, 8, 75, 104
10, 46980, Note_on_c, 8, 75, 0
10, 46980, Note_on_c, 8, 74, 112
10, 47010, Note_on_c, 8, 74, 0
10, 47010, Note_on_c, 8, 75, 105
10, 47040, Note_on_c, 8, 75, 0
10, 47040, Note_on_c, 8, 77, 101
10, 47070, Note_on_c, 8, 77, 0
10, 47100, Note_on_c, 8, 77, 104
10, 47130, Note_on_c, 8, 77, 0
10, 47160, Note_on_c, 8, 74, 110
10, 47190, Note_on_c, 8, 74, 0
10, 47220, Note_on_c, 8, 74, 112
10, 47250, Note_on_c, 8, 74, 0
10, 47280, Note_on_c, 8, 79, 107
10, 47400, Note_on_c, 8, 79, 0
10, 47400, Note_on_c, 8, 77, 99
10, 47430, Note_on_c, 8, 77, 0
10, 47430, Note_on_c, 8, 75, 99
10, 47460, Note_on_c, 8, 75, 0
10, 47460, Note_on_c, 8, 74, 105
10, 47490, Note_on_c, 8, 74, 0
10, 47490, Note_on_c, 8, 75, 101
10, 47520, Note_on_c, 8, 75, 0
10, 47520, Note_on_c, 8, 77, 101
10, 47550, Note_on_c, 8, 77, 0
10, 47580, Note_on_c, 8, 77, 101
10, 47610, Note_on_c, 8, 77, 0
10, 47640, Note_on_c, 8, 74, 110
10, 47670, Note_on_c, 8, 74, 0
10, 47700, Note_on_c, 8, 74, 112
10, 47730, Note_on_c, 8, 74, 0
10, 47760, Note_on_c, 8, 72, 90
10, 47820, Note_on_c, 8, 72, 0
10, 47880, Note_on_c, 8, 67, 104
10, 47940, Note_on_c, 8, 67, 0
10, 48000, Note_on_c, 8, 60, 105
10, 48060, Note_on_c, 8, 60, 0
10, 48240, Note_on_c, 8, 60, 56
10, 48300, Note_on_c, 8, 60, 0
10, 48300, Note_on_c, 8, 63, 56
10, 48360, Note_on_c, 8, 63, 0
10, 48360, Note_on_c, 8, 60, 44
10, 48420, Note_on_c, 8, 60, 0
10, 48420, Note_on_c, 8, 63, 53
10, 48480, Note_on_c, 8, 63, 0
10, 48480, Note_on_c, 8, 61, 65
10, 48540, Note_on_c, 8, 61, 0
10, 48540, Note_on_c, 8, 63, 52
10, 48600, Note_on_c, 8, 63, 0
10, 48600, Note_on_c, 8, 61, 59
10, 48660, Note_on_c, 8, 61, 0
10, 48660, Note_on_c, 8, 63, 64
10, 48720, Note_on_c, 8, 63, 0
10, 48720, Note_on_c, 8, 58, 54
10, 48780, Note_on_c, 8, 58, 0
10, 48780, Note_on_c, 8, 67, 40
10, 48840, Note_on_c, 8, 67, 0
10, 48840, Note_on_c, 8, 68, 73
10, 48900, Note_on_c, 8, 68, 0
10, 48900, Note_on_c, 8, 70, 67
10, 48960, Note_on_c, 8, 70, 0
10, 48960, Control_c, 8, 7, 81
10, 48960, Note_on_c, 8, 72, 76
10, 49020, Note_on_c, 8, 72, 0
10, 49020, Note_on_c, 8, 73, 74
10, 49080, Note_on_c, 8, 73, 0
10, 49080, Note_on_c, 8, 75, 84
10, 49140, Note_on_c, 8, 75, 0
10, 49140, Note_on_c, 8, 75, 76
10, 49200, Note_on_c, 8, 75, 0
10, 49200, Note_on_c, 8, 72, 84
10, 49320, Note_on_c, 8, 72, 0
10, 49680, Control_c, 8, 7, 100
10, 49680, Note_on_c, 8, 60, 56
10, 49740, Note_on_c, 8, 60, 0
10, 49740, Note_on_c, 8, 63, 64
10, 49800, Note_on_c, 8, 63, 0
10, 49800, Note_on_c, 8, 61, 65
10, 49860, Note_on_c, 8, 61, 0
10, 49860, Note_on_c, 8, 63, 67
10, 49920, Note_on_c, 8, 63, 0
10, 49920, Note_on_c, 8, 60, 43
10, 50040, Note_on_c, 8, 60, 0
10, 50160, Note_on_c, 8, 72, 50
10, 50400, Note_on_c, 8, 72, 0
10, 50400, Note_on_c, 8, 73, 49
10, 50640, Note_on_c, 8, 73, 0
10, 50640, Note_on_c, 8, 67, 45
10, 50880, Note_on_c, 8, 67, 0
10, 50880, Note_on_c, 8, 68, 50
10, 51120, Note_on_c, 8, 68, 0
10, 51120, Note_on_c, 8, 69, 61
10, 51360, Note_on_c, 8, 69, 0
10, 51360, Note_on_c, 8, 70, 50
10, 51540, Note_on_c, 8, 70, 0
10, 51540, Note_on_c, 8, 77, 50
10, 51600, Note_on_c, 8, 77, 0
10, 51600, Note_on_c, 8, 68, 44
10, 51720, Note_on_c, 8, 68, 0
10, 51720, Note_on_c, 8, 67, 43
10, 51840, Note_on_c, 8, 67, 0
10, 51840, Note_on_c, 8, 68, 46
10, 51900, Note_on_c, 8, 68, 0
10, 52140, Note_on_c, 8, 70, 60
10, 52170, Note_on_c, 8, 70, 0
10, 52200, Note_on_c, 8, 67, 76
10, 52230, Note_on_c, 8, 67, 0
10, 52260, Note_on_c, 8, 70, 69
10, 52290, Note_on_c, 8, 70, 0
10, 52320, Note_on_c, 8, 65, 61
10, 52440, Note_on_c, 8, 65, 0
10, 52620, Note_on_c, 8, 70, 61
10, 52650, Note_on_c, 8, 70, 0
10, 52680, Note_on_c, 8, 67, 61
10, 52710, Note_on_c, 8, 67, 0
10, 52740, Note_on_c, 8, 70, 66
10, 52770, Note_on_c, 8, 70, 0
10, 52800, Note_on_c, 8, 63, 45
10, 52920, Note_on_c, 8, 63, 0
10, 53030, Control_c, 8, 7, 93
10, 53040, Note_on_c, 8, 67, 69
10, 53280, Note_on_c, 8, 67, 0
10, 53280, Note_on_c, 8, 68, 71
10, 53520, Note_on_c, 8, 68, 0
10, 53520, Note_on_c, 8, 70, 57
10, 53580, Note_on_c, 8, 70, 0
10, 53700, Note_on_c, 8, 67, 99
10, 53760, Note_on_c, 8, 67, 0
10, 53760, Note_on_c, 8, 68, 73
10, 53880, Note_on_c, 8, 68, 0
10, 53880, Note_on_c, 8, 70, 52
10, 54000, Note_on_c, 8, 70, 0
10, 54000, Note_on_c, 8, 72, 74
10, 54240, Note_on_c, 8, 72, 0
10, 54240, Note_on_c, 8, 73, 71
10, 54480, Note_on_c, 8, 73, 0
10, 54480, Note_on_c, 8, 67, 68
10, 54720, Note_on_c, 8, 67, 0
10, 54720, Note_on_c, 8, 68, 60
10, 54960, Note_on_c, 8, 68, 0
10, 54960, Note_on_c, 8, 75, 63
10, 55140, Note_on_c, 8, 75, 0
10, 55140, Note_on_c, 8, 76, 77
10, 55200, Note_on_c, 8, 76, 0
10, 55200, Note_on_c, 8, 77, 72
10, 55260, Note_on_c, 8, 77, 0
10, 55260, Note_on_c, 8, 69, 70
10, 55320, Note_on_c, 8, 69, 0
10, 55320, Note_on_c, 8, 70, 77
10, 55380, Note_on_c, 8, 70, 0
10, 55380, Note_on_c, 8, 73, 61
10, 55440, Note_on_c, 8, 73, 0
10, 55440, Note_on_c, 8, 68, 62
10, 55560, Note_on_c, 8, 68, 0
10, 55560, Note_on_c, 8, 67, 69
10, 55680, Note_on_c, 8, 67, 0
10, 55680, Note_on_c, 8, 68, 72
10, 55800, Note_on_c, 8, 68, 0
10, 55910, Control_c, 8, 7, 100
10, 55980, Note_on_c, 8, 70, 65
10, 56010, Note_on_c, 8, 70, 0
10, 56040, Note_on_c, 8, 67, 82
10, 56070, Note_on_c, 8, 67, 0
10, 56100, Note_on_c, 8, 70, 69
10, 56130, Note_on_c, 8, 70, 0
10, 56160, Note_on_c, 8, 65, 68
10, 56280, Note_on_c, 8, 65, 0
10, 56460, Note_on_c, 8, 70, 73
10, 56490, Note_on_c, 8, 70, 0
10, 56520, Note_on_c, 8, 67, 74
10, 56550, Note_on_c, 8, 67, 0
10, 56580, Note_on_c, 8, 70, 81
10, 56610, Note_on_c, 8, 70, 0
10, 56640, Note_on_c, 8, 63, 66
10, 56760, Note_on_c, 8, 63, 0
10, 56880, Note_on_c, 8, 67, 64
10, 56880, Note_on_c, 8, 58, 43
10, 57120, Note_on_c, 8, 67, 0
10, 57120, Note_on_c, 8, 68, 65
10, 57360, Note_on_c, 8, 68, 0
10, 57360, Note_on_c, 8, 58, 0
10, 57360, Note_on_c, 8, 70, 65
10, 57480, Note_on_c, 8, 70, 0
10, 57480, Note_on_c, 8, 67, 101
10, 57530, Control_c, 8, 7, 96
10, 57540, Control_c, 8, 7, 92
10, 57550, Control_c, 8, 7, 88
10, 57560, Control_c, 8, 7, 83
10, 57570, Control_c, 8, 7, 79
10, 57580, Control_c, 8, 7, 74
10, 57590, Control_c, 8, 7, 70
10, 57600, Control_c, 8, 7, 65
10, 57720, Note_on_c, 8, 67, 0
10, 57720, Note_on_c, 8, 68, 72
10, 57780, Note_on_c, 8, 68, 0
10, 57780, Note_on_c, 8, 70, 60
10, 57840, Note_on_c, 8, 70, 0
10, 57840, Control_c, 8, 7, 100
10, 57840, Note_on_c, 8, 72, 71
10, 58080, Note_on_c, 8, 72, 0
10, 58080, Note_on_c, 8, 73, 45
10, 58320, Note_on_c, 8, 73, 0
10, 58320, Note_on_c, 8, 67, 46
10, 58560, Note_on_c, 8, 67, 0
10, 58560, Note_on_c, 8, 68, 62
10, 58800, Note_on_c, 8, 68, 0
10, 58800, Note_on_c, 8, 68, 65
10, 59100, Note_on_c, 8, 68, 0
10, 59100, Note_on_c, 8, 69, 62
10, 59160, Note_on_c, 8, 69, 0
10, 59160, Note_on_c, 8, 70, 62
10, 59220, Note_on_c, 8, 70, 0
10, 59220, Note_on_c, 8, 73, 71
10, 59280, Note_on_c, 8, 73, 0
10, 59280, Note_on_c, 8, 68, 68
10, 59340, Note_on_c, 8, 68, 0
10, 59340, Note_on_c, 8, 68, 72
10, 59400, Note_on_c, 8, 68, 0
10, 59460, Note_on_c, 8, 67, 67
10, 59520, Note_on_c, 8, 67, 0
10, 59520, Note_on_c, 8, 68, 78
10, 59640, Note_on_c, 8, 68, 0
10, 61620, Note_on_c, 8, 84, 52
10, 61680, Note_on_c, 8, 84, 0
10, 61680, Note_on_c, 8, 85, 46
10, 61740, Note_on_c, 8, 85, 0
10, 61740, Note_on_c, 8, 76, 69
10, 61800, Note_on_c, 8, 76, 0
10, 61800, Note_on_c, 8, 76, 43
10, 61830, Note_on_c, 8, 76, 0
10, 61860, Note_on_c, 8, 76, 48
10, 61890, Note_on_c, 8, 76, 0
10, 61920, Note_on_c, 8, 77, 45
10, 62040, Note_on_c, 8, 77, 0
10, 62040, Note_on_c, 8, 79, 50
10, 62070, Note_on_c, 8, 79, 0
10, 62070, Note_on_c, 8, 77, 46
10, 62100, Note_on_c, 8, 77, 0
10, 62100, Note_on_c, 8, 76, 43
10, 62130, Note_on_c, 8, 76, 0
10, 62130, Note_on_c, 8, 77, 58
10, 62160, Note_on_c, 8, 77, 0
10, 62160, Note_on_c, 8, 79, 43
10, 62190, Note_on_c, 8, 79, 0
10, 62220, Note_on_c, 8, 79, 45
10, 62250, Note_on_c, 8, 79, 0
10, 62280, Note_on_c, 8, 80, 54
10, 62310, Note_on_c, 8, 80, 0
10, 62310, Note_on_c, 8, 79, 64
10, 62340, Note_on_c, 8, 79, 0
10, 62340, Note_on_c, 8, 77, 46
10, 62370, Note_on_c, 8, 77, 0
10, 62370, Note_on_c, 8, 79, 45
10, 62400, Note_on_c, 8, 79, 0
10, 62400, Note_on_c, 8, 80, 43
10, 62415, Note_on_c, 8, 80, 0
10, 62430, Note_on_c, 8, 80, 46
10, 62445, Note_on_c, 8, 80, 0
10, 62460, Note_on_c, 8, 80, 67
10, 62475, Note_on_c, 8, 80, 0
10, 62490, Note_on_c, 8, 79, 58
10, 62505, Note_on_c, 8, 79, 0
10, 62520, Note_on_c, 8, 77, 54
10, 62535, Note_on_c, 8, 77, 0
10, 62550, Note_on_c, 8, 75, 70
10, 62565, Note_on_c, 8, 75, 0
10, 62580, Note_on_c, 8, 74, 65
10, 62595, Note_on_c, 8, 74, 0
10, 62610, Note_on_c, 8, 72, 76
10, 62625, Note_on_c, 8, 72, 0
10, 62640, Note_on_c, 8, 71, 64
10, 62670, Note_on_c, 8, 71, 0
10, 62670, Note_on_c, 8, 74, 61
10, 62700, Note_on_c, 8, 74, 0
10, 62700, Note_on_c, 8, 75, 63
10, 62730, Note_on_c, 8, 75, 0
10, 62730, Note_on_c, 8, 77, 64
10, 62760, Note_on_c, 8, 77, 0
10, 62760, Note_on_c, 8, 79, 45
10, 62790, Note_on_c, 8, 79, 0
10, 62790, Note_on_c, 8, 80, 61
10, 62820, Note_on_c, 8, 80, 0
10, 62820, Note_on_c, 8, 79, 61
10, 62850, Note_on_c, 8, 79, 0
10, 62850, Note_on_c, 8, 77, 43
10, 62880, Note_on_c, 8, 77, 0
10, 62880, Note_on_c, 8, 75, 73
10, 62910, Note_on_c, 8, 75, 0
10, 62910, Note_on_c, 8, 74, 80
10, 62940, Note_on_c, 8, 74, 0
10, 62940, Note_on_c, 8, 72, 61
10, 62970, Note_on_c, 8, 72, 0
10, 62970, Note_on_c, 8, 70, 82
10, 63000, Note_on_c, 8, 70, 0
10, 63000, Note_on_c, 8, 68, 76
10, 63030, Note_on_c, 8, 68, 0
10, 63030, Note_on_c, 8, 75, 89
10, 63060, Note_on_c, 8, 75, 0
10, 63060, Note_on_c, 8, 80, 74
10, 63090, Note_on_c, 8, 80, 0
10, 63090, Note_on_c, 8, 79, 65
10, 63120, Note_on_c, 8, 79, 0
10, 63120, Note_on_c, 8, 77, 66
10, 63150, Note_on_c, 8, 77, 0
10, 63150, Note_on_c, 8, 75, 76
10, 63180, Note_on_c, 8, 75, 0
10, 63180, Note_on_c, 8, 74, 68
10, 63210, Note_on_c, 8, 74, 0
10, 63210, Note_on_c, 8, 72, 76
10, 63240, Note_on_c, 8, 72, 0
10, 63240, Note_on_c, 8, 70, 89
10, 63270, Note_on_c, 8, 70, 0
10, 63270, Note_on_c, 8, 77, 81
10, 63300, Note_on_c, 8, 77, 0
10, 63300, Note_on_c, 8, 82, 76
10, 63330, Note_on_c, 8, 82, 0
10, 63330, Note_on_c, 8, 80, 84
10, 63360, Note_on_c, 8, 80, 0
10, 63360, Note_on_c, 8, 79, 70
10, 63390, Note_on_c, 8, 79, 0
10, 63390, Note_on_c, 8, 80, 76
10, 63420, Note_on_c, 8, 80, 0
10, 63420, Note_on_c, 8, 82, 67
10, 63450, Note_on_c, 8, 82, 0
10, 63450, Note_on_c, 8, 80, 84
10, 63480, Note_on_c, 8, 80, 0
10, 63480, Note_on_c, 8, 79, 76
10, 63510, Note_on_c, 8, 79, 0
10, 63510, Note_on_c, 8, 77, 78
10, 63540, Note_on_c, 8, 77, 0
10, 63540, Note_on_c, 8, 75, 89
10, 63570, Note_on_c, 8, 75, 0
10, 63570, Note_on_c, 8, 73, 81
10, 63600, Note_on_c, 8, 73, 0
10, 63600, Note_on_c, 8, 72, 86
10, 63630, Note_on_c, 8, 72, 0
10, 63630, Note_on_c, 8, 79, 80
10, 63660, Note_on_c, 8, 79, 0
10, 63660, Note_on_c, 8, 84, 76
10, 63690, Note_on_c, 8, 84, 0
10, 63690, Note_on_c, 8, 79, 71
10, 63720, Note_on_c, 8, 79, 0
10, 63720, Note_on_c, 8, 84, 70
10, 63750, Note_on_c, 8, 84, 0
10, 63750, Note_on_c, 8, 79, 73
10, 63780, Note_on_c, 8, 79, 0
10, 63780, Note_on_c, 8, 84, 74
10, 63810, Note_on_c, 8, 84, 0
10, 63810, Note_on_c, 8, 82, 76
10, 63840, Note_on_c, 8, 82, 0
10, 63840, Note_on_c, 8, 80, 82
10, 63870, Note_on_c, 8, 80, 0
10, 63870, Note_on_c, 8, 82, 86
10, 63900, Note_on_c, 8, 82, 0
10, 63900, Note_on_c, 8, 84, 78
10, 63930, Note_on_c, 8, 84, 0
10, 63930, Note_on_c, 8, 82, 82
10, 63960, Note_on_c, 8, 82, 0
10, 63960, Note_on_c, 8, 80, 89
10, 63990, Note_on_c, 8, 80, 0
10, 63990, Note_on_c, 8, 79, 76
10, 64020, Note_on_c, 8, 79, 0
10, 64020, Note_on_c, 8, 77, 82
10, 64050, Note_on_c, 8, 77, 0
10, 64050, Note_on_c, 8, 75, 93
10, 64080, Note_on_c, 8, 75, 0
10, 64080, Note_on_c, 8, 74, 95
10, 64110, Note_on_c, 8, 74, 0
10, 64110, Note_on_c, 8, 77, 95
10, 64140, Note_on_c, 8, 77, 0
10, 64140, Note_on_c, 8, 80, 80
10, 64170, Note_on_c, 8, 80, 0
10, 64170, Note_on_c, 8, 79, 80
10, 64200, Note_on_c, 8, 79, 0
10, 64200, Note_on_c, 8, 77, 78
10, 64230, Note_on_c, 8, 77, 0
10, 64230, Note_on_c, 8, 75, 89
10, 64260, Note_on_c, 8, 75, 0
10, 64260, Note_on_c, 8, 74, 95
10, 64290, Note_on_c, 8, 74, 0
10, 64290, Note_on_c, 8, 72, 81
10, 64320, Note_on_c, 8, 72, 0
10, 64320, Note_on_c, 8, 71, 105
10, 64350, Note_on_c, 8, 71, 0
10, 64350, Note_on_c, 8, 79, 104
10, 64380, Note_on_c, 8, 79, 0
10, 64380, Note_on_c, 8, 79, 104
10, 64410, Note_on_c, 8, 79, 0
10, 64410, Note_on_c, 8, 79, 99
10, 64440, Note_on_c, 8, 79, 0
10, 64440, Note_on_c, 8, 79, 105
10, 64470, Note_on_c, 8, 79, 0
10, 64470, Note_on_c, 8, 74, 105
10, 64500, Note_on_c, 8, 74, 0
10, 64500, Note_on_c, 8, 71, 105
10, 64530, Note_on_c, 8, 71, 0
10, 64530, Note_on_c, 8, 67, 104
10, 64560, Note_on_c, 8, 67, 0
10, 64560, Note_on_c, 8, 66, 101
10, 64590, Note_on_c, 8, 66, 0
10, 64590, Note_on_c, 8, 75, 105
10, 64620, Note_on_c, 8, 75, 0
10, 64620, Note_on_c, 8, 75, 105
10, 64650, Note_on_c, 8, 75, 0
10, 64650, Note_on_c, 8, 75, 104
10, 64680, Note_on_c, 8, 75, 0
10, 64680, Note_on_c, 8, 75, 105
10, 64710, Note_on_c, 8, 75, 0
10, 64710, Note_on_c, 8, 72, 95
10, 64740, Note_on_c, 8, 72, 0
10, 64740, Note_on_c, 8, 69, 104
10, 64770, Note_on_c, 8, 69, 0
10, 64770, Note_on_c, 8, 66, 101
10, 64800, Note_on_c, 8, 66, 0
10, 64800, Note_on_c, 8, 67, 105
10, 64830, Note_on_c, 8, 67, 0
10, 64830, Note_on_c, 8, 79, 104
10, 64860, Note_on_c, 8, 79, 0
10, 64860, Note_on_c, 8, 79, 99
10, 64890, Note_on_c, 8, 79, 0
10, 64890, Note_on_c, 8, 79, 99
10, 64920, Note_on_c, 8, 79, 0
10, 64920, Note_on_c, 8, 79, 104
10, 64950, Note_on_c, 8, 79, 0
10, 64950, Note_on_c, 8, 74, 105
10, 64980, Note_on_c, 8, 74, 0
10, 64980, Note_on_c, 8, 71, 105
10, 65010, Note_on_c, 8, 71, 0
10, 65010, Note_on_c, 8, 67, 99
10, 65040, Note_on_c, 8, 67, 0
10, 65040, Note_on_c, 8, 66, 104
10, 65070, Note_on_c, 8, 66, 0
10, 65070, Note_on_c, 8, 75, 101
10, 65100, Note_on_c, 8, 75, 0
10, 65100, Note_on_c, 8, 75, 112
10, 65130, Note_on_c, 8, 75, 0
10, 65130, Note_on_c, 8, 75, 98
10, 65160, Note_on_c, 8, 75, 0
10, 65160, Note_on_c, 8, 75, 94
10, 65190, Note_on_c, 8, 75, 0
10, 65190, Note_on_c, 8, 72, 99
10, 65220, Note_on_c, 8, 72, 0
10, 65220, Note_on_c, 8, 69, 105
10, 65250, Note_on_c, 8, 69, 0
10, 65250, Note_on_c, 8, 66, 104
10, 65280, Note_on_c, 8, 66, 0
10, 65280, Note_on_c, 8, 67, 89
10, 65340, Note_on_c, 8, 67, 0
10, 65340, Note_on_c, 8, 67, 52
10, 65400, Note_on_c, 8, 67, 0
10, 65400, Note_on_c, 8, 67, 73
10, 65460, Note_on_c, 8, 67, 0
10, 65460, Note_on_c, 8, 67, 56
10, 65520, Note_on_c, 8, 67, 0
10, 65520, Note_on_c, 8, 67, 57
10, 65580, Note_on_c, 8, 67, 0
10, 65580, Note_on_c, 8, 67, 64
10, 65640, Note_on_c, 8, 67, 0
10, 65640, Note_on_c, 8, 67, 57
10, 65700, Note_on_c, 8, 67, 0
10, 65700, Note_on_c, 8, 67, 67
10, 65760, Note_on_c, 8, 67, 0
10, 65760, Note_on_c, 8, 68, 101
10, 65820, Note_on_c, 8, 68, 0
10, 65820, Note_on_c, 8, 68, 65
10, 65880, Note_on_c, 8, 68, 0
10, 65880, Note_on_c, 8, 68, 72
10, 65940, Note_on_c, 8, 68, 0
10, 65940, Note_on_c, 8, 68, 62
10, 66000, Note_on_c, 8, 68, 0
10, 66000, Note_on_c, 8, 68, 53
10, 66060, Note_on_c, 8, 68, 0
10, 66060, Note_on_c, 8, 68, 68
10, 66120, Note_on_c, 8, 68, 0
10, 66120, Note_on_c, 8, 68, 72
10, 66180, Note_on_c, 8, 68, 0
10, 66180, Note_on_c, 8, 68, 66
10, 66240, Note_on_c, 8, 68, 0
10, 66240, Note_on_c, 8, 68, 64
10, 66300, Note_on_c, 8, 68, 0
10, 68160, Note_on_c, 8, 69, 38
10, 68400, Note_on_c, 8, 69, 0
10, 68400, Note_on_c, 8, 68, 29
10, 68640, Note_on_c, 8, 68, 0
10, 68640, Note_on_c, 8, 66, 40
10, 68880, Note_on_c, 8, 66, 0
10, 68880, Note_on_c, 8, 64, 38
10, 69000, Note_on_c, 8, 64, 0
10, 69000, Note_on_c, 8, 68, 35
10, 69120, Note_on_c, 8, 68, 0
10, 69120, Note_on_c, 8, 69, 40
10, 69360, Note_on_c, 8, 69, 0
10, 69360, Note_on_c, 8, 68, 37
10, 69600, Note_on_c, 8, 68, 0
10, 69600, Note_on_c, 8, 66, 36
10, 69840, Note_on_c, 8, 66, 0
10, 69840, Note_on_c, 8, 64, 34
10, 70080, Note_on_c, 8, 64, 0
10, 70080, Note_on_c, 8, 66, 31
10, 70320, Note_on_c, 8, 66, 0
10, 70320, Note_on_c, 8, 64, 38
10, 70380, Note_on_c, 8, 64, 0
10, 70380, Note_on_c, 8, 76, 32
10, 70440, Note_on_c, 8, 76, 0
10, 70440, Note_on_c, 8, 76, 32
10, 70500, Note_on_c, 8, 76, 0
10, 70500, Note_on_c, 8, 76, 38
10, 70560, Note_on_c, 8, 76, 0
10, 70560, Note_on_c, 8, 76, 35
10, 70620, Note_on_c, 8, 76, 0
10, 70620, Note_on_c, 8, 76, 38
10, 70680, Note_on_c, 8, 76, 0
10, 70680, Note_on_c, 8, 76, 35
10, 70740, Note_on_c, 8, 76, 0
10, 70740, Note_on_c, 8, 76, 38
10, 70800, Note_on_c, 8, 76, 0
10, 70800, Note_on_c, 8, 77, 29
10, 70860, Note_on_c, 8, 77, 0
10, 70860, Note_on_c, 8, 77, 39
10, 70920, Note_on_c, 8, 77, 0
10, 70920, Note_on_c, 8, 77, 29
10, 70980, Note_on_c, 8, 77, 0
10, 70980, Note_on_c, 8, 77, 32
10, 71040, Note_on_c, 8, 77, 0
10, 71040, Note_on_c, 8, 77, 33
10, 71100, Note_on_c, 8, 77, 0
10, 71100, Note_on_c, 8, 77, 32
10, 71160, Note_on_c, 8, 77, 0
10, 71160, Note_on_c, 8, 77, 33
10, 71220, Note_on_c, 8, 77, 0
10, 71220, Note_on_c, 8, 77, 37
10, 71280, Note_on_c, 8, 77, 0
10, 71280, Note_on_c, 8, 77, 32
10, 71340, Note_on_c, 8, 77, 0
10, 71340, Note_on_c, 8, 77, 33
10, 71400, Note_on_c, 8, 77, 0
10, 71400, Note_on_c, 8, 77, 30
10, 71460, Note_on_c, 8, 77, 0
10, 71460, Note_on_c, 8, 77, 36
10, 71520, Note_on_c, 8, 77, 0
10, 71520, Note_on_c, 8, 77, 33
10, 71580, Note_on_c, 8, 77, 0
10, 71580, Note_on_c, 8, 77, 34
10, 71640, Note_on_c, 8, 77, 0
10, 71640, Note_on_c, 8, 77, 35
10, 71700, Note_on_c, 8, 77, 0
10, 71700, Note_on_c, 8, 77, 29
10, 71760, Note_on_c, 8, 77, 0
10, 71760, Note_on_c, 8, 77, 31
10, 71820, Note_on_c, 8, 77, 0
10, 71820, Note_on_c, 8, 77, 32
10, 71880, Note_on_c, 8, 77, 0
10, 71880, Note_on_c, 8, 77, 32
10, 71940, Note_on_c, 8, 77, 0
10, 71940, Note_on_c, 8, 77, 29
10, 72000, Note_on_c, 8, 77, 0
10, 72000, Note_on_c, 8, 77, 35
10, 72060, Note_on_c, 8, 77, 0
10, 72060, Note_on_c, 8, 77, 33
10, 72120, Note_on_c, 8, 77, 0
10, 72120, Note_on_c, 8, 77, 32
10, 72180, Note_on_c, 8, 77, 0
10, 72180, Note_on_c, 8, 77, 33
10, 72240, Note_on_c, 8, 77, 0
10, 72240, Note_on_c, 8, 77, 31
10, 72300, Note_on_c, 8, 77, 0
10, 72300, Note_on_c, 8, 77, 38
10, 72360, Note_on_c, 8, 77, 0
10, 72360, Note_on_c, 8, 77, 33
10, 72420, Note_on_c, 8, 77, 0
10, 72420, Note_on_c, 8, 77, 37
10, 72480, Note_on_c, 8, 77, 0
10, 72480, Note_on_c, 8, 77, 35
10, 72540, Note_on_c, 8, 77, 0
10, 72540, Note_on_c, 8, 77, 33
10, 72600, Note_on_c, 8, 77, 0
10, 72600, Note_on_c, 8, 77, 35
10, 72660, Note_on_c, 8, 77, 0
10, 72660, Note_on_c, 8, 77, 33
10, 72720, Note_on_c, 8, 77, 0
10, 72720, Note_on_c, 8, 77, 36
10, 72780, Note_on_c, 8, 77, 0
10, 72780, Note_on_c, 8, 77, 33
10, 72840, Note_on_c, 8, 77, 0
10, 72840, Note_on_c, 8, 77, 35
10, 72900, Note_on_c, 8, 77, 0
10, 72900, Note_on_c, 8, 77, 35
10, 72960, Note_on_c, 8, 77, 0
10, 72960, Note_on_c, 8, 77, 32
10, 73020, Note_on_c, 8, 77, 0
10, 73020, Note_on_c, 8, 77, 30
10, 73080, Note_on_c, 8, 77, 0
10, 73080, Note_on_c, 8, 77, 33
10, 73140, Note_on_c, 8, 77, 0
10, 73140, Note_on_c, 8, 77, 35
10, 73200, Note_on_c, 8, 77, 0
10, 73200, Note_on_c, 8, 77, 36
10, 73260, Note_on_c, 8, 77, 0
10, 73260, Note_on_c, 8, 77, 32
10, 73320, Note_on_c, 8, 77, 0
10, 73320, Note_on_c, 8, 77, 35
10, 73380, Note_on_c, 8, 77, 0
10, 73380, Note_on_c, 8, 77, 31
10, 73440, Note_on_c, 8, 77, 0
10, 73440, Note_on_c, 8, 77, 34
10, 73500, Note_on_c, 8, 77, 0
10, 73500, Note_on_c, 8, 77, 36
10, 73560, Note_on_c, 8, 77, 0
10, 73560, Note_on_c, 8, 77, 35
10, 73620, Note_on_c, 8, 77, 0
10, 73620, Note_on_c, 8, 77, 32
10, 73680, Note_on_c, 8, 77, 0
10, 73680, Note_on_c, 8, 77, 35
10, 73740, Note_on_c, 8, 77, 0
10, 73740, Note_on_c, 8, 77, 35
10, 73800, Note_on_c, 8, 77, 0
10, 73800, Note_on_c, 8, 77, 30
10, 73860, Note_on_c, 8, 77, 0
10, 73860, Note_on_c, 8, 77, 37
10, 73920, Note_on_c, 8, 77, 0
10, 73920, Note_on_c, 8, 77, 33
10, 73980, Note_on_c, 8, 77, 0
10, 73980, Note_on_c, 8, 77, 35
10, 74040, Note_on_c, 8, 77, 0
10, 74040, Note_on_c, 8, 77, 37
10, 74100, Note_on_c, 8, 77, 0
10, 74100, Note_on_c, 8, 77, 38
10, 74160, Note_on_c, 8, 77, 0
10, 74160, Note_on_c, 8, 77, 34
10, 74220, Note_on_c, 8, 77, 0
10, 75840, Program_c, 8, 45
10, 76080, Note_on_c, 8, 59, 84
10, 76080, Note_on_c, 8, 67, 66
10, 76200, Note_on_c, 8, 67, 0
10, 76200, Note_on_c, 8, 59, 0
10, 76320, Note_on_c, 8, 67, 74
10, 76320, Note_on_c, 8, 60, 81
10, 76440, Note_on_c, 8, 60, 0
10, 76440, Note_on_c, 8, 67, 0
10, 76560, Note_on_c, 8, 59, 86
10, 76560, Note_on_c, 8, 67, 65
10, 76680, Note_on_c, 8, 67, 0
10, 76680, Note_on_c, 8, 59, 0
10, 76680, Note_on_c, 8, 60, 81
10, 76680, Note_on_c, 8, 67, 70
10, 76800, Note_on_c, 8, 67, 0
10, 76800, Note_on_c, 8, 60, 0
10, 76800, Note_on_c, 8, 59, 86
10, 76800, Note_on_c, 8, 67, 70
10, 76920, Note_on_c, 8, 67, 0
10, 76920, Note_on_c, 8, 59, 0
10, 77040, Note_on_c, 8, 59, 82
10, 77040, Note_on_c, 8, 67, 67
10, 77160, Note_on_c, 8, 67, 0
10, 77160, Note_on_c, 8, 59, 0
10, 77280, Note_on_c, 8, 60, 84
10, 77280, Note_on_c, 8, 67, 72
10, 77400, Note_on_c, 8, 67, 0
10, 77400, Note_on_c, 8, 60, 0
10, 77460, Note_on_c, 8, 60, 80
10, 77460, Note_on_c, 8, 67, 65
10, 77520, Note_on_c, 8, 67, 0
10, 77520, Note_on_c, 8, 60, 0
10, 77520, Note_on_c, 8, 67, 81
10, 77640, Note_on_c, 8, 67, 0
10, 77640, Note_on_c, 8, 66, 74
10, 77760, Note_on_c, 8, 66, 0
10, 77760, Note_on_c, 8, 67, 80
10, 77880, Note_on_c, 8, 67, 0
10, 77880, Program_c, 8, 48
10, 77940, Note_on_c, 8, 79, 84
10, 78000, Note_on_c, 8, 79, 0
10, 78000, Note_on_c, 8, 80, 84
10, 78060, Note_on_c, 8, 80, 0
10, 78060, Note_on_c, 8, 71, 104
10, 78120, Note_on_c, 8, 71, 0
10, 78120, Note_on_c, 8, 71, 104
10, 78150, Note_on_c, 8, 71, 0
10, 78180, Note_on_c, 8, 71, 105
10, 78210, Note_on_c, 8, 71, 0
10, 78240, Note_on_c, 8, 72, 90
10, 78360, Note_on_c, 8, 72, 0
10, 78360, Note_on_c, 8, 74, 94
10, 78390, Note_on_c, 8, 74, 0
10, 78390, Note_on_c, 8, 72, 89
10, 78420, Note_on_c, 8, 72, 0
10, 78420, Note_on_c, 8, 71, 90
10, 78450, Note_on_c, 8, 71, 0
10, 78450, Note_on_c, 8, 72, 93
10, 78480, Note_on_c, 8, 72, 0
10, 78480, Note_on_c, 8, 74, 101
10, 78510, Note_on_c, 8, 74, 0
10, 78540, Note_on_c, 8, 74, 105
10, 78570, Note_on_c, 8, 74, 0
10, 78600, Note_on_c, 8, 75, 99
10, 78630, Note_on_c, 8, 75, 0
10, 78660, Note_on_c, 8, 75, 104
10, 78690, Note_on_c, 8, 75, 0
10, 78720, Note_on_c, 8, 74, 104
10, 78810, Note_on_c, 8, 74, 0
10, 78810, Note_on_c, 8, 75, 94
10, 78840, Note_on_c, 8, 75, 0
10, 78840, Note_on_c, 8, 76, 104
10, 78870, Note_on_c, 8, 76, 0
10, 78870, Note_on_c, 8, 77, 94
10, 78900, Note_on_c, 8, 77, 0
10, 78900, Note_on_c, 8, 78, 86
10, 78930, Note_on_c, 8, 78, 0
10, 78930, Note_on_c, 8, 79, 95
10, 78960, Note_on_c, 8, 79, 0
10, 78960, Note_on_c, 8, 80, 93
10, 79020, Note_on_c, 8, 80, 0
10, 79020, Note_on_c, 8, 71, 99
10, 79080, Note_on_c, 8, 71, 0
10, 79080, Note_on_c, 8, 71, 99
10, 79110, Note_on_c, 8, 71, 0
10, 79140, Note_on_c, 8, 71, 99
10, 79170, Note_on_c, 8, 71, 0
10, 79200, Note_on_c, 8, 72, 86
10, 79320, Note_on_c, 8, 72, 0
10, 79320, Note_on_c, 8, 74, 99
10, 79350, Note_on_c, 8, 74, 0
10, 79350, Note_on_c, 8, 72, 90
10, 79380, Note_on_c, 8, 72, 0
10, 79380, Note_on_c, 8, 71, 93
10, 79410, Note_on_c, 8, 71, 0
10, 79410, Note_on_c, 8, 72, 95
10, 79440, Note_on_c, 8, 72, 0
10, 79440, Note_on_c, 8, 74, 85
10, 79470, Note_on_c, 8, 74, 0
10, 79500, Note_on_c, 8, 74, 94
10, 79530, Note_on_c, 8, 74, 0
10, 79560, Note_on_c, 8, 67, 95
10, 79590, Note_on_c, 8, 67, 0
10, 79620, Note_on_c, 8, 67, 95
10, 79650, Note_on_c, 8, 67, 0
10, 79680, Note_on_c, 8, 79, 107
10, 79800, Note_on_c, 8, 79, 0
10, 79800, Note_on_c, 8, 77, 94
10, 79830, Note_on_c, 8, 77, 0
10, 79830, Note_on_c, 8, 75, 94
10, 79860, Note_on_c, 8, 75, 0
10, 79860, Note_on_c, 8, 74, 95
10, 79890, Note_on_c, 8, 74, 0
10, 79890, Note_on_c, 8, 75, 94
10, 79920, Note_on_c, 8, 75, 0
10, 79920, Note_on_c, 8, 77, 89
10, 79950, Note_on_c, 8, 77, 0
10, 79980, Note_on_c, 8, 77, 93
10, 80010, Note_on_c, 8, 77, 0
10, 80040, Note_on_c, 8, 74, 99
10, 80070, Note_on_c, 8, 74, 0
10, 80100, Note_on_c, 8, 74, 105
10, 80130, Note_on_c, 8, 74, 0
10, 80160, Note_on_c, 8, 79, 99
10, 80280, Note_on_c, 8, 79, 0
10, 80280, Note_on_c, 8, 77, 89
10, 80310, Note_on_c, 8, 77, 0
10, 80310, Note_on_c, 8, 75, 94
10, 80340, Note_on_c, 8, 75, 0
10, 80340, Note_on_c, 8, 74, 101
10, 80370, Note_on_c, 8, 74, 0
10, 80370, Note_on_c, 8, 75, 95
10, 80400, Note_on_c, 8, 75, 0
10, 80400, Note_on_c, 8, 77, 95
10, 80430, Note_on_c, 8, 77, 0
10, 80460, Note_on_c, 8, 77, 94
10, 80490, Note_on_c, 8, 77, 0
10, 80520, Note_on_c, 8, 74, 105
10, 80550, Note_on_c, 8, 74, 0
10, 80580, Note_on_c, 8, 74, 105
10, 80610, Note_on_c, 8, 74, 0
10, 80640, Note_on_c, 8, 72, 90
10, 80700, Note_on_c, 8, 72, 0
10, 80760, Note_on_c, 8, 67, 94
10, 80820, Note_on_c, 8, 67, 0
10, 80880, Note_on_c, 8, 60, 98
10, 80940, Note_on_c, 8, 60, 0
10, 84060, Note_on_c, 8, 67, 62
10, 84120, Note_on_c, 8, 67, 0
10, 84120, Note_on_c, 8, 67, 62
10, 84180, Note_on_c, 8, 67, 0
10, 84180, Note_on_c, 8, 67, 66
10, 84240, Note_on_c, 8, 67, 0
10, 84300, Note_on_c, 8, 71, 72
10, 84360, Note_on_c, 8, 71, 0
10, 84360, Note_on_c, 8, 71, 73
10, 84420, Note_on_c, 8, 71, 0
10, 84420, Note_on_c, 8, 71, 64
10, 84480, Note_on_c, 8, 71, 0
10, 84540, Note_on_c, 8, 72, 73
10, 84600, Note_on_c, 8, 72, 0
10, 84600, Note_on_c, 8, 64, 50
10, 84660, Note_on_c, 8, 64, 0
10, 84660, Note_on_c, 8, 64, 64
10, 84720, Note_on_c, 8, 64, 0
10, 84780, Note_on_c, 8, 67, 62
10, 84840, Note_on_c, 8, 67, 0
10, 84840, Note_on_c, 8, 67, 68
10, 84900, Note_on_c, 8, 67, 0
10, 84900, Note_on_c, 8, 67, 66
10, 84960, Note_on_c, 8, 67, 0
10, 85020, Note_on_c, 8, 67, 63
10, 85080, Note_on_c, 8, 67, 0
10, 85080, Note_on_c, 8, 67, 62
10, 85140, Note_on_c, 8, 67, 0
10, 85140, Note_on_c, 8, 67, 68
10, 85200, Note_on_c, 8, 67, 0
10, 85260, Note_on_c, 8, 65, 64
10, 85320, Note_on_c, 8, 65, 0
10, 85320, Note_on_c, 8, 65, 62
10, 85380, Note_on_c, 8, 65, 0
10, 85380, Note_on_c, 8, 65, 67
10, 85440, Note_on_c, 8, 65, 0
10, 85500, Note_on_c, 8, 66, 69
10, 85560, Note_on_c, 8, 66, 0
10, 85560, Note_on_c, 8, 66, 64
10, 85620, Note_on_c, 8, 66, 0
10, 85620, Note_on_c, 8, 66, 66
10, 85680, Note_on_c, 8, 66, 0
10, 85680, Note_on_c, 8, 67, 65
10, 85695, Note_on_c, 8, 67, 0
10, 85710, Note_on_c, 8, 67, 62
10, 85725, Note_on_c, 8, 67, 0
10, 85740, Note_on_c, 8, 69, 64
10, 85755, Note_on_c, 8, 69, 0
10, 85770, Note_on_c, 8, 71, 72
10, 85785, Note_on_c, 8, 71, 0
10, 85800, Note_on_c, 8, 72, 69
10, 85815, Note_on_c, 8, 72, 0
10, 85830, Note_on_c, 8, 74, 70
10, 85845, Note_on_c, 8, 74, 0
10, 85860, Note_on_c, 8, 76, 73
10, 85875, Note_on_c, 8, 76, 0
10, 85890, Note_on_c, 8, 77, 64
10, 85905, Note_on_c, 8, 77, 0
10, 85920, Note_on_c, 8, 79, 60
10, 86040, Note_on_c, 8, 79, 0
10, 86040, Note_on_c, 8, 77, 65
10, 86055, Note_on_c, 8, 77, 0
10, 86055, Note_on_c, 8, 76, 67
10, 86085, Note_on_c, 8, 76, 0
10, 86100, Note_on_c, 8, 74, 64
10, 86115, Note_on_c, 8, 74, 0
10, 86115, Note_on_c, 8, 72, 72
10, 86145, Note_on_c, 8, 72, 0
10, 86160, Note_on_c, 8, 72, 67
10, 86175, Note_on_c, 8, 72, 0
10, 86175, Note_on_c, 8, 71, 71
10, 86205, Note_on_c, 8, 71, 0
10, 86220, Note_on_c, 8, 69, 76
10, 86235, Note_on_c, 8, 69, 0
10, 86235, Note_on_c, 8, 67, 63
10, 86265, Note_on_c, 8, 67, 0
10, 86280, Note_on_c, 8, 67, 78
10, 86295, Note_on_c, 8, 67, 0
10, 86295, Note_on_c, 8, 65, 80
10, 86325, Note_on_c, 8, 65, 0
10, 86340, Note_on_c, 8, 64, 73
10, 86355, Note_on_c, 8, 64, 0
10, 86355, Note_on_c, 8, 62, 50
10, 86385, Note_on_c, 8, 62, 0
10, 86400, Note_on_c, 8, 60, 65
10, 86430, Note_on_c, 8, 60, 0
10, 86460, Note_on_c, 8, 72, 78
10, 86490, Note_on_c, 8, 72, 0
10, 86520, Note_on_c, 8, 74, 73
10, 86550, Note_on_c, 8, 74, 0
10, 86550, Note_on_c, 8, 72, 70
10, 86580, Note_on_c, 8, 72, 0
10, 86580, Note_on_c, 8, 71, 65
10, 86610, Note_on_c, 8, 71, 0
10, 86610, Note_on_c, 8, 72, 76
10, 86640, Note_on_c, 8, 72, 0
10, 86640, Note_on_c, 8, 74, 110
10, 86880, Note_on_c, 8, 74, 0
10, 86880, Note_on_c, 8, 76, 65
10, 86910, Note_on_c, 8, 76, 0
10, 86940, Note_on_c, 8, 76, 76
10, 86970, Note_on_c, 8, 76, 0
10, 87000, Note_on_c, 8, 77, 67
10, 87030, Note_on_c, 8, 77, 0
10, 87030, Note_on_c, 8, 76, 68
10, 87060, Note_on_c, 8, 76, 0
10, 87060, Note_on_c, 8, 74, 61
10, 87090, Note_on_c, 8, 74, 0
10, 87090, Note_on_c, 8, 76, 69
10, 87120, Note_on_c, 8, 76, 0
10, 87120, Note_on_c, 8, 77, 99
10, 87300, Note_on_c, 8, 77, 0
10, 87300, Note_on_c, 8, 79, 49
10, 87330, Note_on_c, 8, 79, 0
10, 87330, Note_on_c, 8, 81, 65
10, 87360, Note_on_c, 8, 81, 0
10, 87360, Note_on_c, 8, 72, 68
10, 87420, Note_on_c, 8, 72, 0
10, 87420, Note_on_c, 8, 72, 69
10, 87450, Note_on_c, 8, 72, 0
10, 87465, Note_on_c, 8, 76, 74
10, 87480, Note_on_c, 8, 76, 0
10, 87480, Note_on_c, 8, 74, 77
10, 87510, Note_on_c, 8, 74, 0
10, 87510, Note_on_c, 8, 72, 84
10, 87540, Note_on_c, 8, 72, 0
10, 87540, Note_on_c, 8, 74, 77
10, 87570, Note_on_c, 8, 74, 0
10, 87570, Note_on_c, 8, 76, 78
10, 87600, Note_on_c, 8, 76, 0
10, 87600, Note_on_c, 8, 72, 78
10, 87660, Note_on_c, 8, 72, 0
10, 88740, Note_on_c, 8, 72, 65
10, 88800, Note_on_c, 8, 72, 0
10, 88800, Note_on_c, 8, 60, 78
10, 88860, Note_on_c, 8, 60, 0
10, 88980, Note_on_c, 8, 72, 71
10, 89040, Note_on_c, 8, 72, 0
10, 89040, Note_on_c, 8, 60, 71
10, 89100, Note_on_c, 8, 60, 0
10, 89220, Note_on_c, 8, 72, 68
10, 89280, Note_on_c, 8, 72, 0
10, 89280, Note_on_c, 8, 60, 77
10, 89340, Note_on_c, 8, 60, 0
10, 89340, Note_on_c, 8, 69, 80
10, 89370, Note_on_c, 8, 69, 0
10, 89400, Note_on_c, 8, 67, 80
10, 89430, Note_on_c, 8, 67, 0
10, 89460, Note_on_c, 8, 65, 85
10, 89490, Note_on_c, 8, 65, 0
10, 89520, Note_on_c, 8, 64, 70
10, 89580, Note_on_c, 8, 64, 0
10, 89640, Note_on_c, 8, 69, 71
10, 89700, Note_on_c, 8, 69, 0
10, 89760, Note_on_c, 8, 65, 66
10, 89820, Note_on_c, 8, 65, 0
10, 89880, Note_on_c, 8, 62, 64
10, 89940, Note_on_c, 8, 62, 0
10, 90000, Note_on_c, 8, 59, 78
10, 90060, Note_on_c, 8, 59, 0
10, 92880, Note_on_c, 8, 63, 68
10, 92940, Note_on_c, 8, 63, 0
10, 93360, Note_on_c, 8, 66, 64
10, 93420, Note_on_c, 8, 66, 0
10, 93840, Note_on_c, 8, 66, 40
10, 93900, Note_on_c, 8, 66, 0
10, 94800, Note_on_c, 8, 66, 43
10, 95040, Note_on_c, 8, 66, 0
10, 95040, Note_on_c, 8, 65, 44
10, 95280, Note_on_c, 8, 65, 0
10, 95280, Note_on_c, 8, 66, 38
10, 95520, Note_on_c, 8, 66, 0
10, 95520, Note_on_c, 8, 65, 45
10, 95700, Note_on_c, 8, 65, 0
10, 95700, Note_on_c, 8, 80, 46
10, 95760, Note_on_c, 8, 80, 0
10, 95760, Note_on_c, 8, 82, 65
10, 95820, Note_on_c, 8, 82, 0
10, 95820, Note_on_c, 8, 72, 71
10, 95880, Note_on_c, 8, 72, 0
10, 95880, Note_on_c, 8, 72, 65
10, 95910, Note_on_c, 8, 72, 0
10, 95940, Note_on_c, 8, 72, 68
10, 95970, Note_on_c, 8, 72, 0
10, 96000, Note_on_c, 8, 73, 61
10, 96120, Note_on_c, 8, 73, 0
10, 96180, Note_on_c, 8, 80, 71
10, 96240, Note_on_c, 8, 80, 0
10, 96240, Note_on_c, 8, 83, 86
10, 96300, Note_on_c, 8, 83, 0
10, 96300, Note_on_c, 8, 74, 80
10, 96360, Note_on_c, 8, 74, 0
10, 96360, Note_on_c, 8, 74, 64
10, 96390, Note_on_c, 8, 74, 0
10, 96420, Note_on_c, 8, 74, 73
10, 96450, Note_on_c, 8, 74, 0
10, 96480, Note_on_c, 8, 75, 74
10, 96600, Note_on_c, 8, 75, 0
10, 96660, Note_on_c, 8, 82, 61
10, 96720, Note_on_c, 8, 82, 0
10, 96720, Note_on_c, 8, 85, 76
10, 96780, Note_on_c, 8, 85, 0
10, 96780, Note_on_c, 8, 76, 64
10, 96840, Note_on_c, 8, 76, 0
10, 96840, Note_on_c, 8, 76, 69
10, 96870, Note_on_c, 8, 76, 0
10, 96900, Note_on_c, 8, 76, 68
10, 96930, Note_on_c, 8, 76, 0
10, 96960, Note_on_c, 8, 77, 72
10, 97080, Note_on_c, 8, 77, 0
10, 97140, Note_on_c, 8, 72, 84
10, 97200, Note_on_c, 8, 72, 0
10, 97200, Note_on_c, 8, 75, 63
10, 97260, Note_on_c, 8, 75, 0
10, 97260, Note_on_c, 8, 66, 61
10, 97320, Note_on_c, 8, 66, 0
10, 97320, Note_on_c, 8, 66, 62
10, 97350, Note_on_c, 8, 66, 0
10, 97380, Note_on_c, 8, 66, 64
10, 97410, Note_on_c, 8, 66, 0
10, 97440, Note_on_c, 8, 67, 72
10, 97560, Note_on_c, 8, 67, 0
10, 97560, Note_on_c, 8, 79, 78
10, 97680, Note_on_c, 8, 79, 0
10, 97800, Note_on_c, 8, 78, 53
10, 97920, Note_on_c, 8, 78, 0
10, 98040, Note_on_c, 8, 77, 65
10, 98160, Note_on_c, 8, 77, 0
10, 98280, Note_on_c, 8, 76, 64
10, 98400, Note_on_c, 8, 76, 0
10, 98400, Note_on_c, 8, 75, 76
10, 98430, Note_on_c, 8, 75, 0
10, 98430, Note_on_c, 8, 66, 62
10, 98460, Note_on_c, 8, 66, 0
10, 98460, Note_on_c, 8, 66, 74
10, 98490, Note_on_c, 8, 66, 0
10, 98490, Note_on_c, 8, 66, 76
10, 98520, Note_on_c, 8, 66, 0
10, 98520, Note_on_c, 8, 74, 76
10, 98550, Note_on_c, 8, 74, 0
10, 98550, Note_on_c, 8, 65, 84
10, 98580, Note_on_c, 8, 65, 0
10, 98580, Note_on_c, 8, 65, 82
10, 98610, Note_on_c, 8, 65, 0
10, 98610, Note_on_c, 8, 65, 78
10, 98640, Note_on_c, 8, 65, 0
10, 98640, Note_on_c, 8, 73, 72
10, 98670, Note_on_c, 8, 73, 0
10, 98670, Note_on_c, 8, 64, 94
10, 98700, Note_on_c, 8, 64, 0
10, 98700, Note_on_c, 8, 64, 94
10, 98730, Note_on_c, 8, 64, 0
10, 98730, Note_on_c, 8, 64, 85
10, 98760, Note_on_c, 8, 64, 0
10, 98760, Note_on_c, 8, 72, 72
10, 98790, Note_on_c, 8, 72, 0
10, 98790, Note_on_c, 8, 63, 89
10, 98820, Note_on_c, 8, 63, 0
10, 98820, Note_on_c, 8, 63, 89
10, 98850, Note_on_c, 8, 63, 0
10, 98850, Note_on_c, 8, 63, 86
10, 98880, Note_on_c, 8, 63, 0
10, 98880, Note_on_c, 8, 71, 86
10, 98910, Note_on_c, 8, 71, 0
10, 98910, Note_on_c, 8, 71, 94
10, 98940, Note_on_c, 8, 71, 0
10, 98940, Note_on_c, 8, 72, 93
10, 98970, Note_on_c, 8, 72, 0
10, 98970, Note_on_c, 8, 72, 89
10, 99000, Note_on_c, 8, 72, 0
10, 99000, Note_on_c, 8, 71, 94
10, 99030, Note_on_c, 8, 71, 0
10, 99030, Note_on_c, 8, 71, 99
10, 99060, Note_on_c, 8, 71, 0
10, 99060, Note_on_c, 8, 75, 94
10, 99090, Note_on_c, 8, 75, 0
10, 99090, Note_on_c, 8, 75, 90
10, 99120, Note_on_c, 8, 75, 0
10, 99120, Note_on_c, 8, 74, 95
10, 99150, Note_on_c, 8, 74, 0
10, 99150, Note_on_c, 8, 74, 98
10, 99180, Note_on_c, 8, 74, 0
10, 99180, Note_on_c, 8, 72, 93
10, 99210, Note_on_c, 8, 72, 0
10, 99210, Note_on_c, 8, 72, 86
10, 99240, Note_on_c, 8, 72, 0
10, 99240, Note_on_c, 8, 71, 94
10, 99270, Note_on_c, 8, 71, 0
10, 99270, Note_on_c, 8, 71, 99
10, 99300, Note_on_c, 8, 71, 0
10, 99300, Note_on_c, 8, 68, 84
10, 99330, Note_on_c, 8, 68, 0
10, 99330, Note_on_c, 8, 68, 90
10, 99360, Note_on_c, 8, 68, 0
10, 99360, Note_on_c, 8, 67, 89
10, 99390, Note_on_c, 8, 67, 0
10, 99390, Note_on_c, 8, 67, 94
10, 99420, Note_on_c, 8, 67, 0
10, 99420, Note_on_c, 8, 72, 81
10, 99450, Note_on_c, 8, 72, 0
10, 99450, Note_on_c, 8, 72, 82
10, 99480, Note_on_c, 8, 72, 0
10, 99480, Note_on_c, 8, 71, 99
10, 99510, Note_on_c, 8, 71, 0
10, 99510, Note_on_c, 8, 71, 98
10, 99540, Note_on_c, 8, 71, 0
10, 99540, Note_on_c, 8, 75, 101
10, 99570, Note_on_c, 8, 75, 0
10, 99570, Note_on_c, 8, 75, 95
10, 99600, Note_on_c, 8, 75, 0
10, 99600, Note_on_c, 8, 74, 99
10, 99630, Note_on_c, 8, 74, 0
10, 99630, Note_on_c, 8, 74, 99
10, 99660, Note_on_c, 8, 74, 0
10, 99660, Note_on_c, 8, 72, 95
10, 99690, Note_on_c, 8, 72, 0
10, 99690, Note_on_c, 8, 72, 93
10, 99720, Note_on_c, 8, 72, 0
10, 99720, Note_on_c, 8, 71, 89
10, 99750, Note_on_c, 8, 71, 0
10, 99750, Note_on_c, 8, 71, 95
10, 99780, Note_on_c, 8, 71, 0
10, 99780, Note_on_c, 8, 68, 93
10, 99810, Note_on_c, 8, 68, 0
10, 99810, Note_on_c, 8, 68, 93
10, 99840, Note_on_c, 8, 68, 0
10, 99840, Note_on_c, 8, 67, 104
10, 99870, Note_on_c, 8, 67, 0
10, 99870, Note_on_c, 8, 67, 105
10, 99900, Note_on_c, 8, 67, 0
10, 99900, Note_on_c, 8, 72, 101
10, 99930, Note_on_c, 8, 72, 0
10, 99930, Note_on_c, 8, 72, 93
10, 99960, Note_on_c, 8, 72, 0
10, 99960, Note_on_c, 8, 71, 105
10, 99990, Note_on_c, 8, 71, 0
10, 99990, Note_on_c, 8, 71, 104
10, 100020, Note_on_c, 8, 71, 0
10, 100020, Note_on_c, 8, 72, 95
10, 100050, Note_on_c, 8, 72, 0
10, 100050, Note_on_c, 8, 72, 94
10, 100080, Note_on_c, 8, 72, 0
10, 100080, Note_on_c, 8, 71, 105
10, 100110, Note_on_c, 8, 71, 0
10, 100110, Note_on_c, 8, 77, 101
10, 100140, Note_on_c, 8, 77, 0
10, 100140, Note_on_c, 8, 77, 99
10, 100170, Note_on_c, 8, 77, 0
10, 100170, Note_on_c, 8, 77, 95
10, 100200, Note_on_c, 8, 77, 0
10, 100200, Note_on_c, 8, 77, 99
10, 100230, Note_on_c, 8, 77, 0
10, 100230, Note_on_c, 8, 77, 99
10, 100260, Note_on_c, 8, 77, 0
10, 100260, Note_on_c, 8, 77, 98
10, 100290, Note_on_c, 8, 77, 0
10, 100290, Note_on_c, 8, 77, 95
10, 100320, Note_on_c, 8, 77, 0
10, 100320, Note_on_c, 8, 77, 98
10, 100350, Note_on_c, 8, 77, 0
10, 100350, Note_on_c, 8, 77, 99
10, 100380, Note_on_c, 8, 77, 0
10, 100380, Note_on_c, 8, 84, 99
10, 100410, Note_on_c, 8, 84, 0
10, 100410, Note_on_c, 8, 84, 101
10, 100440, Note_on_c, 8, 84, 0
10, 100440, Note_on_c, 8, 83, 99
10, 100470, Note_on_c, 8, 83, 0
10, 100470, Note_on_c, 8, 83, 99
10, 100500, Note_on_c, 8, 83, 0
10, 100500, Note_on_c, 8, 84, 95
10, 100530, Note_on_c, 8, 84, 0
10, 100530, Note_on_c, 8, 84, 104
10, 100560, Note_on_c, 8, 84, 0
10, 100560, Note_on_c, 8, 83, 105
10, 100590, Note_on_c, 8, 83, 0
10, 100590, Note_on_c, 8, 86, 107
10, 100620, Note_on_c, 8, 86, 0
10, 100620, Note_on_c, 8, 86, 105
10, 100650, Note_on_c, 8, 86, 0
10, 100650, Note_on_c, 8, 86, 110
10, 100680, Note_on_c, 8, 86, 0
10, 100680, Note_on_c, 8, 86, 105
10, 100710, Note_on_c, 8, 86, 0
10, 100710, Note_on_c, 8, 86, 105
10, 100740, Note_on_c, 8, 86, 0
10, 100740, Note_on_c, 8, 86, 110
10, 100770, Note_on_c, 8, 86, 0
10, 100770, Note_on_c, 8, 86, 107
10, 100800, Note_on_c, 8, 86, 0
10, 100800, Note_on_c, 8, 86, 110
10, 101040, Note_on_c, 8, 86, 0
10, 101040, Note_on_c, 8, 83, 105
10, 101160, Note_on_c, 8, 83, 0
10, 101160, Note_on_c, 8, 77, 99
10, 101280, Note_on_c, 8, 77, 0
10, 101280, Note_on_c, 8, 74, 115
10, 101520, Note_on_c, 8, 74, 0
10, 101520, Note_on_c, 8, 62, 94
10, 101520, Note_on_c, 8, 71, 105
10, 101520, Note_on_c, 8, 55, 104
10, 101760, Note_on_c, 8, 55, 0
10, 101760, Note_on_c, 8, 71, 0
10, 101760, Note_on_c, 8, 62, 0
10, 101760, Note_on_c, 8, 55, 104
10, 101760, Note_on_c, 8, 65, 110
10, 102360, Note_on_c, 8, 65, 0
10, 102360, Note_on_c, 8, 55, 0
10, 106560, Note_on_c, 8, 62, 67
10, 106680, Note_on_c, 8, 62, 0
10, 106920, Note_on_c, 8, 62, 64
10, 107040, Note_on_c, 8, 62, 0
10, 107160, Note_on_c, 8, 65, 52
10, 107220, Note_on_c, 8, 65, 0
10, 107220, Note_on_c, 8, 64, 72
10, 107280, Note_on_c, 8, 64, 0
10, 107280, Note_on_c, 8, 62, 56
10, 107400, Note_on_c, 8, 62, 0
10, 107460, Note_on_c, 8, 65, 58
10, 107580, Note_on_c, 8, 65, 0
10, 107640, Note_on_c, 8, 64, 67
10, 107700, Note_on_c, 8, 64, 0
10, 107760, Note_on_c, 8, 80, 54
10, 107820, Note_on_c, 8, 80, 0
10, 107820, Note_on_c, 8, 81, 61
10, 107850, Note_on_c, 8, 81, 0
10, 107880, Note_on_c, 8, 71, 72
10, 107910, Note_on_c, 8, 71, 0
10, 107940, Note_on_c, 8, 72, 73
10, 107970, Note_on_c, 8, 72, 0
10, 108000, Note_on_c, 8, 74, 71
10, 108060, Note_on_c, 8, 74, 0
10, 108120, Note_on_c, 8, 80, 67
10, 108180, Note_on_c, 8, 80, 0
10, 108180, Note_on_c, 8, 81, 72
10, 108210, Note_on_c, 8, 81, 0
10, 108240, Note_on_c, 8, 71, 74
10, 108270, Note_on_c, 8, 71, 0
10, 108300, Note_on_c, 8, 72, 95
10, 108330, Note_on_c, 8, 72, 0
10, 108360, Note_on_c, 8, 74, 62
10, 108420, Note_on_c, 8, 74, 0
10, 108480, Note_on_c, 8, 80, 64
10, 108540, Note_on_c, 8, 80, 0
10, 108540, Note_on_c, 8, 81, 65
10, 108570, Note_on_c, 8, 81, 0
10, 108600, Note_on_c, 8, 71, 68
10, 108630, Note_on_c, 8, 71, 0
10, 108660, Note_on_c, 8, 72, 73
10, 108690, Note_on_c, 8, 72, 0
10, 108720, Note_on_c, 8, 74, 80
10, 108750, Note_on_c, 8, 74, 0
10, 108780, Note_on_c, 8, 76, 72
10, 108810, Note_on_c, 8, 76, 0
10, 108840, Note_on_c, 8, 77, 65
10, 108870, Note_on_c, 8, 77, 0
10, 108900, Note_on_c, 8, 67, 62
10, 108930, Note_on_c, 8, 67, 0
10, 108960, Note_on_c, 8, 69, 73
10, 108990, Note_on_c, 8, 69, 0
10, 109020, Note_on_c, 8, 71, 73
10, 109050, Note_on_c, 8, 71, 0
10, 109080, Note_on_c, 8, 72, 86
10, 109200, Note_on_c, 8, 72, 0
10, 119160, Note_on_c, 8, 72, 67
10, 119190, Note_on_c, 8, 72, 0
10, 119220, Note_on_c, 8, 79, 76
10, 119400, Note_on_c, 8, 79, 0
10, 119400, Note_on_c, 8, 76, 59
10, 119430, Note_on_c, 8, 76, 0
10, 119460, Note_on_c, 8, 72, 70
10, 119490, Note_on_c, 8, 72, 0
10, 119520, Note_on_c, 8, 71, 73
10, 119550, Note_on_c, 8, 71, 0
10, 119580, Note_on_c, 8, 69, 65
10, 119610, Note_on_c, 8, 69, 0
10, 119640, Note_on_c, 8, 67, 68
10, 119670, Note_on_c, 8, 67, 0
10, 119700, Note_on_c, 8, 65, 71
10, 119730, Note_on_c, 8, 65, 0
10, 119760, Note_on_c, 8, 64, 72
10, 119790, Note_on_c, 8, 64, 0
10, 119820, Note_on_c, 8, 62, 69
10, 119850, Note_on_c, 8, 62, 0
10, 119880, Note_on_c, 8, 60, 62
10, 119940, Note_on_c, 8, 60, 0
10, 119940, Note_on_c, 8, 64, 64
10, 120000, Note_on_c, 8, 64, 0
10, 120000, Note_on_c, 8, 64, 45
10, 120060, Note_on_c, 8, 64, 0
10, 120120, Note_on_c, 8, 64, 60
10, 120180, Note_on_c, 8, 64, 0
10, 120180, Note_on_c, 8, 64, 66
10, 120240, Note_on_c, 8, 64, 0
10, 120300, Note_on_c, 8, 62, 53
10, 120360, Note_on_c, 8, 62, 0
10, 120360, Note_on_c, 8, 62, 66
10, 120420, Note_on_c, 8, 62, 0
10, 120480, Note_on_c, 8, 65, 69
10, 120540, Note_on_c, 8, 65, 0
10, 120540, Note_on_c, 8, 65, 69
10, 120600, Note_on_c, 8, 65, 0
10, 120600, Note_on_c, 8, 64, 93
10, 120660, Note_on_c, 8, 64, 0
10, 120660, Note_on_c, 8, 79, 86
10, 120840, Note_on_c, 8, 79, 0
10, 120840, Note_on_c, 8, 76, 90
10, 120870, Note_on_c, 8, 76, 0
10, 120900, Note_on_c, 8, 72, 86
10, 120930, Note_on_c, 8, 72, 0
10, 120960, Note_on_c, 8, 71, 84
10, 120990, Note_on_c, 8, 71, 0
10, 121020, Note_on_c, 8, 69, 86
10, 121050, Note_on_c, 8, 69, 0
10, 121080, Note_on_c, 8, 67, 81
10, 121110, Note_on_c, 8, 67, 0
10, 121140, Note_on_c, 8, 65, 93
10, 121170, Note_on_c, 8, 65, 0
10, 121200, Note_on_c, 8, 64, 86
10, 121230, Note_on_c, 8, 64, 0
10, 121260, Note_on_c, 8, 62, 86
10, 121290, Note_on_c, 8, 62, 0
10, 121320, Note_on_c, 8, 60, 74
10, 121380, Note_on_c, 8, 60, 0
10, 121380, Note_on_c, 8, 72, 61
10, 121440, Note_on_c, 8, 72, 0
10, 121440, Note_on_c, 8, 72, 71
10, 121500, Note_on_c, 8, 72, 0
10, 121560, Note_on_c, 8, 72, 63
10, 121620, Note_on_c, 8, 72, 0
10, 121620, Note_on_c, 8, 72, 71
10, 121680, Note_on_c, 8, 72, 0
10, 121740, Note_on_c, 8, 72, 65
10, 121800, Note_on_c, 8, 72, 0
10, 121800, Note_on_c, 8, 72, 70
10, 121860, Note_on_c, 8, 72, 0
10, 121920, Note_on_c, 8, 71, 72
10, 121980, Note_on_c, 8, 71, 0
10, 121980, Note_on_c, 8, 71, 69
10, 122040, Note_on_c, 8, 71, 0
10, 122100, Note_on_c, 8, 72, 69
10, 122160, Note_on_c, 8, 72, 0
10, 122160, Note_on_c, 8, 72, 66
10, 122220, Note_on_c, 8, 72, 0
10, 122280, Note_on_c, 8, 72, 65
10, 122340, Note_on_c, 8, 72, 0
10, 122340, Note_on_c, 8, 72, 69
10, 122400, Note_on_c, 8, 72, 0
10, 122460, Note_on_c, 8, 72, 64
10, 122520, Note_on_c, 8, 72, 0
10, 122520, Note_on_c, 8, 72, 73
10, 122580, Note_on_c, 8, 72, 0
10, 122640, Note_on_c, 8, 71, 80
10, 122700, Note_on_c, 8, 71, 0
10, 122700, Note_on_c, 8, 71, 67
10, 122760, Note_on_c, 8, 71, 0
10, 122760, Note_on_c, 8, 72, 68
10, 122880, Note_on_c, 8, 72, 0
10, 123840, Note_on_c, 8, 83, 68
10, 123840, Note_on_c, 8, 74, 52
10, 123840, Note_on_c, 8, 67, 59
10, 123960, Note_on_c, 8, 67, 0
10, 123960, Note_on_c, 8, 74, 0
10, 123960, Note_on_c, 8, 83, 0
10, 124200, Note_on_c, 8, 84, 95
10, 124200, Note_on_c, 8, 76, 94
10, 124200, Note_on_c, 8, 67, 99
10, 124260, Note_on_c, 8, 67, 0
10, 124260, Note_on_c, 8, 76, 0
10, 124260, Note_on_c, 8, 84, 0
10, 124260, Note_on_c, 8, 76, 99
10, 124290, Note_on_c, 8, 76, 0
10, 124290, Note_on_c, 8, 76, 99
10, 124320, Note_on_c, 8, 76, 0
10, 124320, Note_on_c, 8, 74, 104
10, 124350, Note_on_c, 8, 74, 0
10, 124350, Note_on_c, 8, 74, 110
10, 124380, Note_on_c, 8, 74, 0
10, 124380, Note_on_c, 8, 72, 95
10, 124410, Note_on_c, 8, 72, 0
10, 124410, Note_on_c, 8, 72, 99
10, 124440, Note_on_c, 8, 72, 0
10, 124440, Note_on_c, 8, 71, 99
10, 124470, Note_on_c, 8, 71, 0
10, 124470, Note_on_c, 8, 71, 99
10, 124500, Note_on_c, 8, 71, 0
10, 124500, Note_on_c, 8, 69, 104
10, 124530, Note_on_c, 8, 69, 0
10, 124530, Note_on_c, 8, 69, 105
10, 124560, Note_on_c, 8, 69, 0
10, 124560, Note_on_c, 8, 67, 99
10, 124590, Note_on_c, 8, 67, 0
10, 124590, Note_on_c, 8, 67, 105
10, 124620, Note_on_c, 8, 67, 0
10, 124620, Note_on_c, 8, 69, 105
10, 124650, Note_on_c, 8, 69, 0
10, 124650, Note_on_c, 8, 69, 105
10, 124680, Note_on_c, 8, 69, 0
10, 124680, Note_on_c, 8, 67, 99
10, 124710, Note_on_c, 8, 67, 0
10, 124710, Note_on_c, 8, 67, 101
10, 124740, Note_on_c, 8, 67, 0
10, 124740, Note_on_c, 8, 65, 105
10, 124770, Note_on_c, 8, 65, 0
10, 124770, Note_on_c, 8, 65, 99
10, 124800, Note_on_c, 8, 65, 0
10, 124800, Note_on_c, 8, 64, 105
10, 124830, Note_on_c, 8, 64, 0
10, 124830, Note_on_c, 8, 64, 105
10, 124860, Note_on_c, 8, 64, 0
10, 124860, Note_on_c, 8, 62, 99
10, 124890, Note_on_c, 8, 62, 0
10, 124890, Note_on_c, 8, 62, 104
10, 124920, Note_on_c, 8, 62, 0
10, 124920, Note_on_c, 8, 60, 99
10, 125040, Note_on_c, 8, 60, 0
10, 125100, Note_on_c, 8, 67, 89
10, 125100, Note_on_c, 8, 74, 80
10, 125100, Note_on_c, 8, 83, 90
10, 125220, Note_on_c, 8, 83, 0
10, 125220, Note_on_c, 8, 74, 0
10, 125220, Note_on_c, 8, 67, 0
10, 125280, Note_on_c, 8, 76, 86
10, 125280, Note_on_c, 8, 84, 94
10, 125280, Note_on_c, 8, 67, 99
10, 125400, Note_on_c, 8, 67, 0
10, 125400, Note_on_c, 8, 84, 0
10, 125400, Note_on_c, 8, 76, 0
10, 125460, Note_on_c, 8, 55, 93
10, 125460, Note_on_c, 8, 62, 84
10, 125460, Note_on_c, 8, 71, 89
10, 125580, Note_on_c, 8, 71, 0
10, 125580, Note_on_c, 8, 62, 0
10, 125580, Note_on_c, 8, 55, 0
10, 125640, Note_on_c, 8, 55, 94
10, 125640, Note_on_c, 8, 64, 93
10, 125640, Note_on_c, 8, 72, 84
10, 125760, Note_on_c, 8, 72, 0
10, 125760, Note_on_c, 8, 64, 0
10, 125760, Note_on_c, 8, 55, 0
10, 126000, Note_on_c, 8, 67, 90
10, 126000, Note_on_c, 8, 76, 93
10, 126000, Note_on_c, 8, 84, 90
10, 126120, Note_on_c, 8, 84, 0
10, 126120, Note_on_c, 8, 76, 0
10, 126120, Note_on_c, 8, 67, 0
10, 126360, Note_on_c, 8, 60, 117
10, 126480, Note_on_c, 8, 60, 0
10, 126480, End_track
11, 0, Start_track
11, 0, MIDI_port, 0
11, 0, Title_t, "2nd Violins"
11, 0, Program_c, 10, 48
11, 0, Control_c, 10, 7, 100
11, 0, Control_c, 10, 10, 13
11, 0, Control_c, 10, 93, 0
11, 0, Control_c, 10, 91, 66
11, 1920, Program_c, 10, 45
11, 2040, Control_c, 10, 7, 83
11, 2160, Note_on_c, 10, 62, 80
11, 2220, Note_on_c, 10, 62, 0
11, 2400, Note_on_c, 10, 63, 86
11, 2460, Note_on_c, 10, 63, 0
11, 2640, Note_on_c, 10, 62, 81
11, 2760, Note_on_c, 10, 62, 0
11, 2760, Note_on_c, 10, 63, 84
11, 2880, Note_on_c, 10, 63, 0
11, 2880, Note_on_c, 10, 62, 82
11, 3000, Note_on_c, 10, 62, 0
11, 3120, Note_on_c, 10, 62, 89
11, 3240, Note_on_c, 10, 62, 0
11, 3360, Note_on_c, 10, 63, 82
11, 3480, Note_on_c, 10, 63, 0
11, 3540, Note_on_c, 10, 67, 89
11, 3600, Note_on_c, 10, 67, 0
11, 3600, Note_on_c, 10, 67, 85
11, 3720, Note_on_c, 10, 67, 0
11, 3720, Note_on_c, 10, 66, 90
11, 3840, Note_on_c, 10, 66, 0
11, 3840, Note_on_c, 10, 58, 90
11, 3960, Note_on_c, 10, 58, 0
11, 4800, Control_c, 10, 7, 99
11, 5040, Note_on_c, 10, 60, 72
11, 5100, Note_on_c, 10, 60, 0
11, 5160, Note_on_c, 10, 60, 74
11, 5220, Note_on_c, 10, 60, 0
11, 5280, Note_on_c, 10, 59, 81
11, 5340, Note_on_c, 10, 59, 0
11, 5520, Control_c, 10, 7, 99
11, 5520, Note_on_c, 10, 60, 72
11, 5545, Control_c, 10, 7, 98
11, 5565, Control_c, 10, 7, 97
11, 5580, Note_on_c, 10, 60, 0
11, 5585, Control_c, 10, 7, 96
11, 5610, Control_c, 10, 7, 95
11, 5630, Control_c, 10, 7, 94
11, 5640, Note_on_c, 10, 60, 80
11, 5650, Control_c, 10, 7, 93
11, 5675, Control_c, 10, 7, 92
11, 5695, Control_c, 10, 7, 91
11, 5700, Note_on_c, 10, 60, 0
11, 5715, Control_c, 10, 7, 90
11, 5740, Control_c, 10, 7, 89
11, 5760, Control_c, 10, 7, 88
11, 5760, Note_on_c, 10, 59, 67
11, 5780, Control_c, 10, 7, 87
11, 5800, Control_c, 10, 7, 86
11, 5825, Control_c, 10, 7, 85
11, 5845, Control_c, 10, 7, 84
11, 5865, Control_c, 10, 7, 83
11, 5880, Note_on_c, 10, 59, 0
11, 5890, Control_c, 10, 7, 82
11, 5910, Control_c, 10, 7, 81
11, 5930, Control_c, 10, 7, 80
11, 5955, Control_c, 10, 7, 79
11, 5975, Control_c, 10, 7, 78
11, 5995, Control_c, 10, 7, 77
11, 6000, Note_on_c, 10, 60, 74
11, 6015, Control_c, 10, 7, 76
11, 6040, Control_c, 10, 7, 75
11, 6060, Control_c, 10, 7, 74
11, 6080, Control_c, 10, 7, 73
11, 6105, Control_c, 10, 7, 72
11, 6120, Note_on_c, 10, 60, 0
11, 6120, Note_on_c, 10, 60, 77
11, 6125, Control_c, 10, 7, 71
11, 6145, Control_c, 10, 7, 70
11, 6170, Control_c, 10, 7, 69
11, 6190, Control_c, 10, 7, 68
11, 6210, Control_c, 10, 7, 67
11, 6230, Control_c, 10, 7, 66
11, 6240, Note_on_c, 10, 60, 0
11, 6240, Note_on_c, 10, 59, 81
11, 6360, Note_on_c, 10, 59, 0
11, 6570, Control_c, 10, 7, 99
11, 8160, Note_on_c, 10, 59, 71
11, 8220, Note_on_c, 10, 59, 0
11, 8400, Note_on_c, 10, 60, 76
11, 8460, Note_on_c, 10, 60, 0
11, 8640, Note_on_c, 10, 55, 73
11, 8700, Note_on_c, 10, 55, 0
11, 8760, Note_on_c, 10, 55, 78
11, 8820, Note_on_c, 10, 55, 0
11, 8880, Note_on_c, 10, 60, 73
11, 9000, Note_on_c, 10, 60, 0
11, 9060, Note_on_c, 10, 62, 78
11, 9120, Note_on_c, 10, 62, 0
11, 9120, Note_on_c, 10, 63, 81
11, 9180, Note_on_c, 10, 63, 0
11, 9240, Note_on_c, 10, 65, 89
11, 9300, Note_on_c, 10, 65, 0
11, 9360, Note_on_c, 10, 63, 78
11, 9480, Note_on_c, 10, 63, 0
11, 9480, Program_c, 10, 48
11, 9540, Note_on_c, 10, 67, 101
11, 9600, Note_on_c, 10, 67, 0
11, 9600, Note_on_c, 10, 70, 84
11, 9660, Note_on_c, 10, 70, 0
11, 9660, Note_on_c, 10, 64, 99
11, 9720, Note_on_c, 10, 64, 0
11, 9720, Note_on_c, 10, 64, 99
11, 9750, Note_on_c, 10, 64, 0
11, 9780, Note_on_c, 10, 64, 105
11, 9810, Note_on_c, 10, 64, 0
11, 9825, Note_on_c, 10, 67, 98
11, 9840, Note_on_c, 10, 67, 0
11, 9840, Note_on_c, 10, 65, 99
11, 9870, Note_on_c, 10, 65, 0
11, 9870, Note_on_c, 10, 64, 104
11, 9900, Note_on_c, 10, 64, 0
11, 9900, Note_on_c, 10, 65, 101
11, 9930, Note_on_c, 10, 65, 0
11, 9930, Note_on_c, 10, 67, 94
11, 9960, Note_on_c, 10, 67, 0
11, 9960, Note_on_c, 10, 68, 99
11, 9990, Note_on_c, 10, 68, 0
11, 10020, Note_on_c, 10, 68, 99
11, 10050, Note_on_c, 10, 68, 0
11, 10080, Note_on_c, 10, 68, 101
11, 10140, Note_on_c, 10, 68, 0
11, 10140, Note_on_c, 10, 62, 99
11, 10200, Note_on_c, 10, 62, 0
11, 10200, Note_on_c, 10, 62, 98
11, 10230, Note_on_c, 10, 62, 0
11, 10260, Note_on_c, 10, 62, 99
11, 10290, Note_on_c, 10, 62, 0
11, 10305, Note_on_c, 10, 65, 99
11, 10320, Note_on_c, 10, 65, 0
11, 10320, Note_on_c, 10, 63, 94
11, 10350, Note_on_c, 10, 63, 0
11, 10350, Note_on_c, 10, 62, 99
11, 10380, Note_on_c, 10, 62, 0
11, 10380, Note_on_c, 10, 63, 94
11, 10410, Note_on_c, 10, 63, 0
11, 10410, Note_on_c, 10, 65, 99
11, 10440, Note_on_c, 10, 65, 0
11, 10440, Note_on_c, 10, 67, 98
11, 10470, Note_on_c, 10, 67, 0
11, 10500, Note_on_c, 10, 67, 104
11, 10530, Note_on_c, 10, 67, 0
11, 10560, Note_on_c, 10, 65, 105
11, 10590, Note_on_c, 10, 65, 0
11, 10620, Note_on_c, 10, 65, 99
11, 10650, Note_on_c, 10, 65, 0
11, 10680, Note_on_c, 10, 66, 98
11, 10710, Note_on_c, 10, 66, 0
11, 10740, Note_on_c, 10, 66, 99
11, 10770, Note_on_c, 10, 66, 0
11, 10800, Note_on_c, 10, 67, 117
11, 10860, Note_on_c, 10, 67, 0
11, 10860, Note_on_c, 10, 67, 99
11, 10880, Note_on_c, 10, 67, 0
11, 10880, Note_on_c, 10, 67, 99
11, 10900, Note_on_c, 10, 67, 0
11, 10900, Note_on_c, 10, 67, 99
11, 10920, Note_on_c, 10, 67, 0
11, 10920, Note_on_c, 10, 67, 95
11, 10980, Note_on_c, 10, 67, 0
11, 10980, Note_on_c, 10, 67, 94
11, 11040, Note_on_c, 10, 67, 0
11, 11040, Note_on_c, 10, 65, 99
11, 11070, Note_on_c, 10, 65, 0
11, 11100, Note_on_c, 10, 65, 99
11, 11130, Note_on_c, 10, 65, 0
11, 11160, Note_on_c, 10, 66, 95
11, 11190, Note_on_c, 10, 66, 0
11, 11220, Note_on_c, 10, 66, 95
11, 11250, Note_on_c, 10, 66, 0
11, 11280, Note_on_c, 10, 67, 119
11, 11340, Note_on_c, 10, 67, 0
11, 11340, Note_on_c, 10, 67, 99
11, 11360, Note_on_c, 10, 67, 0
11, 11360, Note_on_c, 10, 67, 94
11, 11380, Note_on_c, 10, 67, 0
11, 11380, Note_on_c, 10, 67, 95
11, 11400, Note_on_c, 10, 67, 0
11, 11400, Note_on_c, 10, 67, 94
11, 11460, Note_on_c, 10, 67, 0
11, 11460, Note_on_c, 10, 67, 95
11, 11520, Note_on_c, 10, 67, 0
11, 11520, Note_on_c, 10, 65, 99
11, 11550, Note_on_c, 10, 65, 0
11, 11580, Note_on_c, 10, 65, 104
11, 11610, Note_on_c, 10, 65, 0
11, 11640, Note_on_c, 10, 66, 94
11, 11670, Note_on_c, 10, 66, 0
11, 11700, Note_on_c, 10, 66, 95
11, 11730, Note_on_c, 10, 66, 0
11, 11760, Note_on_c, 10, 67, 99
11, 11790, Note_on_c, 10, 67, 0
11, 11790, Note_on_c, 10, 67, 95
11, 11820, Note_on_c, 10, 67, 0
11, 11820, Note_on_c, 10, 67, 58
11, 11850, Note_on_c, 10, 67, 0
11, 11850, Note_on_c, 10, 67, 58
11, 11880, Note_on_c, 10, 67, 0
11, 11880, Note_on_c, 10, 67, 43
11, 11910, Note_on_c, 10, 67, 0
11, 11910, Note_on_c, 10, 67, 43
11, 11940, Note_on_c, 10, 67, 0
11, 11940, Note_on_c, 10, 67, 45
11, 11970, Note_on_c, 10, 67, 0
11, 11970, Note_on_c, 10, 67, 52
11, 12000, Note_on_c, 10, 67, 0
11, 12000, Note_on_c, 10, 67, 62
11, 12030, Note_on_c, 10, 67, 0
11, 12030, Note_on_c, 10, 67, 52
11, 12060, Note_on_c, 10, 67, 0
11, 12060, Note_on_c, 10, 67, 43
11, 12090, Note_on_c, 10, 67, 0
11, 12090, Note_on_c, 10, 67, 43
11, 12120, Note_on_c, 10, 67, 0
11, 12120, Note_on_c, 10, 67, 43
11, 12150, Note_on_c, 10, 67, 0
11, 12150, Note_on_c, 10, 67, 45
11, 12180, Note_on_c, 10, 67, 0
11, 12180, Note_on_c, 10, 67, 44
11, 12210, Note_on_c, 10, 67, 0
11, 12210, Note_on_c, 10, 67, 57
11, 12240, Note_on_c, 10, 67, 0
11, 12240, Note_on_c, 10, 67, 46
11, 12270, Note_on_c, 10, 67, 0
11, 12270, Note_on_c, 10, 67, 46
11, 12300, Note_on_c, 10, 67, 0
11, 12300, Note_on_c, 10, 67, 44
11, 12330, Note_on_c, 10, 67, 0
11, 12330, Note_on_c, 10, 67, 50
11, 12360, Note_on_c, 10, 67, 0
11, 12360, Note_on_c, 10, 67, 53
11, 12390, Note_on_c, 10, 67, 0
11, 12390, Note_on_c, 10, 67, 49
11, 12420, Note_on_c, 10, 67, 0
11, 12420, Note_on_c, 10, 67, 44
11, 12450, Note_on_c, 10, 67, 0
11, 12450, Note_on_c, 10, 67, 53
11, 12480, Note_on_c, 10, 67, 0
11, 12480, Note_on_c, 10, 67, 49
11, 12510, Note_on_c, 10, 67, 0
11, 12510, Note_on_c, 10, 67, 46
11, 12540, Note_on_c, 10, 67, 0
11, 12540, Note_on_c, 10, 67, 52
11, 12570, Note_on_c, 10, 67, 0
11, 12570, Note_on_c, 10, 67, 62
11, 12600, Note_on_c, 10, 67, 0
11, 12600, Note_on_c, 10, 67, 59
11, 12630, Note_on_c, 10, 67, 0
11, 12630, Note_on_c, 10, 67, 55
11, 12660, Note_on_c, 10, 67, 0
11, 12660, Note_on_c, 10, 67, 57
11, 12690, Note_on_c, 10, 67, 0
11, 12690, Note_on_c, 10, 67, 57
11, 12720, Note_on_c, 10, 67, 0
11, 12720, Note_on_c, 10, 67, 45
11, 12750, Note_on_c, 10, 67, 0
11, 12750, Note_on_c, 10, 67, 50
11, 12780, Note_on_c, 10, 67, 0
11, 12780, Note_on_c, 10, 67, 76
11, 12810, Note_on_c, 10, 67, 0
11, 12810, Note_on_c, 10, 67, 74
11, 12840, Note_on_c, 10, 67, 0
11, 12840, Note_on_c, 10, 67, 84
11, 12870, Note_on_c, 10, 67, 0
11, 12870, Note_on_c, 10, 67, 99
11, 12900, Note_on_c, 10, 67, 0
11, 12900, Note_on_c, 10, 67, 105
11, 12930, Note_on_c, 10, 67, 0
11, 12930, Note_on_c, 10, 67, 107
11, 12960, Note_on_c, 10, 67, 0
11, 12960, Note_on_c, 10, 68, 99
11, 13020, Note_on_c, 10, 68, 0
11, 13020, Note_on_c, 10, 59, 104
11, 13080, Note_on_c, 10, 59, 0
11, 13080, Note_on_c, 10, 59, 105
11, 13110, Note_on_c, 10, 59, 0
11, 13140, Note_on_c, 10, 59, 105
11, 13170, Note_on_c, 10, 59, 0
11, 13200, Note_on_c, 10, 60, 119
11, 13320, Note_on_c, 10, 60, 0
11, 13320, Note_on_c, 10, 62, 99
11, 13350, Note_on_c, 10, 62, 0
11, 13350, Note_on_c, 10, 60, 104
11, 13380, Note_on_c, 10, 60, 0
11, 13380, Note_on_c, 10, 59, 110
11, 13410, Note_on_c, 10, 59, 0
11, 13410, Note_on_c, 10, 60, 99
11, 13440, Note_on_c, 10, 60, 0
11, 13440, Note_on_c, 10, 60, 105
11, 13470, Note_on_c, 10, 60, 0
11, 13470, Note_on_c, 10, 72, 93
11, 13500, Note_on_c, 10, 72, 0
11, 13500, Note_on_c, 10, 72, 94
11, 13530, Note_on_c, 10, 72, 0
11, 13530, Note_on_c, 10, 72, 98
11, 13560, Note_on_c, 10, 72, 0
11, 13560, Note_on_c, 10, 71, 99
11, 13590, Note_on_c, 10, 71, 0
11, 13590, Note_on_c, 10, 71, 104
11, 13620, Note_on_c, 10, 71, 0
11, 13620, Note_on_c, 10, 71, 105
11, 13650, Note_on_c, 10, 71, 0
11, 13650, Note_on_c, 10, 71, 105
11, 13680, Note_on_c, 10, 71, 0
11, 13680, Note_on_c, 10, 60, 125
11, 13710, Note_on_c, 10, 60, 0
11, 13710, Note_on_c, 10, 72, 82
11, 13740, Note_on_c, 10, 72, 0
11, 13740, Note_on_c, 10, 72, 90
11, 13770, Note_on_c, 10, 72, 0
11, 13770, Note_on_c, 10, 72, 93
11, 13800, Note_on_c, 10, 72, 0
11, 13800, Note_on_c, 10, 72, 89
11, 13830, Note_on_c, 10, 72, 0
11, 13830, Note_on_c, 10, 72, 90
11, 13860, Note_on_c, 10, 72, 0
11, 13860, Note_on_c, 10, 71, 104
11, 13890, Note_on_c, 10, 71, 0
11, 13890, Note_on_c, 10, 72, 94
11, 13920, Note_on_c, 10, 72, 0
11, 13920, Note_on_c, 10, 74, 110
11, 13950, Note_on_c, 10, 74, 0
11, 13980, Note_on_c, 10, 74, 105
11, 14010, Note_on_c, 10, 74, 0
11, 14040, Note_on_c, 10, 71, 105
11, 14070, Note_on_c, 10, 71, 0
11, 14100, Note_on_c, 10, 71, 105
11, 14130, Note_on_c, 10, 71, 0
11, 14160, Note_on_c, 10, 75, 125
11, 14190, Note_on_c, 10, 75, 0
11, 14190, Note_on_c, 10, 72, 86
11, 14220, Note_on_c, 10, 72, 0
11, 14220, Note_on_c, 10, 72, 93
11, 14250, Note_on_c, 10, 72, 0
11, 14250, Note_on_c, 10, 72, 94
11, 14280, Note_on_c, 10, 72, 0
11, 14280, Note_on_c, 10, 72, 94
11, 14310, Note_on_c, 10, 72, 0
11, 14310, Note_on_c, 10, 72, 94
11, 14340, Note_on_c, 10, 72, 0
11, 14340, Note_on_c, 10, 71, 105
11, 14370, Note_on_c, 10, 71, 0
11, 14370, Note_on_c, 10, 72, 94
11, 14400, Note_on_c, 10, 72, 0
11, 14400, Note_on_c, 10, 74, 107
11, 14430, Note_on_c, 10, 74, 0
11, 14460, Note_on_c, 10, 62, 101
11, 14490, Note_on_c, 10, 62, 0
11, 14520, Note_on_c, 10, 59, 99
11, 14550, Note_on_c, 10, 59, 0
11, 14580, Note_on_c, 10, 59, 105
11, 14610, Note_on_c, 10, 59, 0
11, 14640, Note_on_c, 10, 60, 105
11, 14700, Note_on_c, 10, 60, 0
11, 14760, Note_on_c, 10, 67, 104
11, 14820, Note_on_c, 10, 67, 0
11, 14880, Note_on_c, 10, 60, 107
11, 14940, Note_on_c, 10, 60, 0
11, 18060, Note_on_c, 10, 55, 43
11, 18120, Note_on_c, 10, 55, 0
11, 18120, Note_on_c, 10, 55, 52
11, 18180, Note_on_c, 10, 55, 0
11, 18180, Note_on_c, 10, 55, 43
11, 18240, Note_on_c, 10, 55, 0
11, 18300, Note_on_c, 10, 56, 38
11, 18360, Note_on_c, 10, 56, 0
11, 18360, Note_on_c, 10, 56, 49
11, 18420, Note_on_c, 10, 56, 0
11, 18420, Note_on_c, 10, 56, 56
11, 18480, Note_on_c, 10, 56, 0
11, 18540, Note_on_c, 10, 55, 62
11, 18600, Note_on_c, 10, 55, 0
11, 18600, Note_on_c, 10, 55, 45
11, 18660, Note_on_c, 10, 55, 0
11, 18660, Note_on_c, 10, 55, 58
11, 18720, Note_on_c, 10, 55, 0
11, 18780, Note_on_c, 10, 62, 46
11, 18840, Note_on_c, 10, 62, 0
11, 18840, Note_on_c, 10, 62, 45
11, 18900, Note_on_c, 10, 62, 0
11, 18900, Note_on_c, 10, 62, 45
11, 18960, Note_on_c, 10, 62, 0
11, 19020, Note_on_c, 10, 63, 44
11, 19080, Note_on_c, 10, 63, 0
11, 19080, Note_on_c, 10, 63, 49
11, 19140, Note_on_c, 10, 63, 0
11, 19140, Note_on_c, 10, 63, 60
11, 19200, Note_on_c, 10, 63, 0
11, 19260, Note_on_c, 10, 63, 43
11, 19320, Note_on_c, 10, 63, 0
11, 19320, Note_on_c, 10, 63, 41
11, 19380, Note_on_c, 10, 63, 0
11, 19380, Note_on_c, 10, 63, 45
11, 19440, Note_on_c, 10, 63, 0
11, 19500, Note_on_c, 10, 63, 49
11, 19560, Note_on_c, 10, 63, 0
11, 19560, Note_on_c, 10, 63, 43
11, 19620, Note_on_c, 10, 63, 0
11, 19620, Note_on_c, 10, 63, 45
11, 19680, Note_on_c, 10, 63, 0
11, 19680, Note_on_c, 10, 62, 29
11, 19800, Note_on_c, 10, 62, 0
11, 19920, Note_on_c, 10, 55, 73
11, 19935, Note_on_c, 10, 55, 0
11, 19950, Note_on_c, 10, 63, 64
11, 19965, Note_on_c, 10, 63, 0
11, 19980, Note_on_c, 10, 58, 76
11, 19995, Note_on_c, 10, 58, 0
11, 20010, Note_on_c, 10, 63, 64
11, 20025, Note_on_c, 10, 63, 0
11, 20040, Note_on_c, 10, 55, 73
11, 20055, Note_on_c, 10, 55, 0
11, 20070, Note_on_c, 10, 63, 58
11, 20085, Note_on_c, 10, 63, 0
11, 20100, Note_on_c, 10, 58, 68
11, 20115, Note_on_c, 10, 58, 0
11, 20130, Note_on_c, 10, 63, 57
11, 20145, Note_on_c, 10, 63, 0
11, 20160, Note_on_c, 10, 56, 69
11, 20175, Note_on_c, 10, 56, 0
11, 20190, Note_on_c, 10, 62, 71
11, 20205, Note_on_c, 10, 62, 0
11, 20220, Note_on_c, 10, 58, 73
11, 20235, Note_on_c, 10, 58, 0
11, 20250, Note_on_c, 10, 62, 72
11, 20265, Note_on_c, 10, 62, 0
11, 20280, Note_on_c, 10, 56, 71
11, 20295, Note_on_c, 10, 56, 0
11, 20310, Note_on_c, 10, 62, 74
11, 20325, Note_on_c, 10, 62, 0
11, 20340, Note_on_c, 10, 58, 80
11, 20355, Note_on_c, 10, 58, 0
11, 20370, Note_on_c, 10, 56, 76
11, 20385, Note_on_c, 10, 56, 0
11, 20400, Note_on_c, 10, 55, 80
11, 20415, Note_on_c, 10, 55, 0
11, 20430, Note_on_c, 10, 63, 69
11, 20445, Note_on_c, 10, 63, 0
11, 20460, Note_on_c, 10, 60, 84
11, 20475, Note_on_c, 10, 60, 0
11, 20490, Note_on_c, 10, 63, 71
11, 20505, Note_on_c, 10, 63, 0
11, 20520, Note_on_c, 10, 55, 84
11, 20535, Note_on_c, 10, 55, 0
11, 20550, Note_on_c, 10, 63, 69
11, 20565, Note_on_c, 10, 63, 0
11, 20580, Note_on_c, 10, 60, 84
11, 20595, Note_on_c, 10, 60, 0
11, 20610, Note_on_c, 10, 63, 62
11, 20625, Note_on_c, 10, 63, 0
11, 20640, Note_on_c, 10, 58, 104
11, 20670, Note_on_c, 10, 58, 0
11, 20670, Note_on_c, 10, 62, 95
11, 20700, Note_on_c, 10, 62, 0
11, 20700, Note_on_c, 10, 65, 86
11, 20730, Note_on_c, 10, 65, 0
11, 20730, Note_on_c, 10, 63, 95
11, 20760, Note_on_c, 10, 63, 0
11, 20760, Note_on_c, 10, 62, 104
11, 20790, Note_on_c, 10, 62, 0
11, 20790, Note_on_c, 10, 60, 95
11, 20820, Note_on_c, 10, 60, 0
11, 20820, Note_on_c, 10, 58, 89
11, 20850, Note_on_c, 10, 58, 0
11, 20850, Note_on_c, 10, 62, 89
11, 20880, Note_on_c, 10, 62, 0
11, 20880, Note_on_c, 10, 58, 104
11, 20910, Note_on_c, 10, 58, 0
11, 20910, Note_on_c, 10, 63, 85
11, 20940, Note_on_c, 10, 63, 0
11, 20940, Note_on_c, 10, 62, 104
11, 20970, Note_on_c, 10, 62, 0
11, 20970, Note_on_c, 10, 63, 86
11, 21000, Note_on_c, 10, 63, 0
11, 21000, Note_on_c, 10, 58, 99
11, 21030, Note_on_c, 10, 58, 0
11, 21030, Note_on_c, 10, 64, 95
11, 21060, Note_on_c, 10, 64, 0
11, 21060, Note_on_c, 10, 62, 99
11, 21090, Note_on_c, 10, 62, 0
11, 21090, Note_on_c, 10, 64, 99
11, 21120, Note_on_c, 10, 64, 0
11, 21120, Note_on_c, 10, 60, 119
11, 21150, Note_on_c, 10, 60, 0
11, 21150, Note_on_c, 10, 65, 99
11, 21180, Note_on_c, 10, 65, 0
11, 21180, Note_on_c, 10, 68, 99
11, 21210, Note_on_c, 10, 68, 0
11, 21210, Note_on_c, 10, 72, 76
11, 21240, Note_on_c, 10, 72, 0
11, 21240, Note_on_c, 10, 68, 101
11, 21270, Note_on_c, 10, 68, 0
11, 21270, Note_on_c, 10, 65, 105
11, 21300, Note_on_c, 10, 65, 0
11, 21300, Note_on_c, 10, 60, 99
11, 21330, Note_on_c, 10, 60, 0
11, 21330, Note_on_c, 10, 56, 95
11, 21360, Note_on_c, 10, 56, 0
11, 21360, Note_on_c, 10, 55, 104
11, 21390, Note_on_c, 10, 55, 0
11, 21390, Note_on_c, 10, 63, 94
11, 21420, Note_on_c, 10, 63, 0
11, 21420, Note_on_c, 10, 58, 99
11, 21450, Note_on_c, 10, 58, 0
11, 21450, Note_on_c, 10, 55, 101
11, 21480, Note_on_c, 10, 55, 0
11, 21480, Note_on_c, 10, 56, 99
11, 21510, Note_on_c, 10, 56, 0
11, 21510, Note_on_c, 10, 62, 94
11, 21540, Note_on_c, 10, 62, 0
11, 21540, Note_on_c, 10, 58, 99
11, 21570, Note_on_c, 10, 58, 0
11, 21570, Note_on_c, 10, 56, 101
11, 21600, Note_on_c, 10, 56, 0
11, 21600, Note_on_c, 10, 55, 99
11, 21720, Note_on_c, 10, 55, 0
11, 22560, Note_on_c, 10, 63, 67
11, 22680, Note_on_c, 10, 63, 0
11, 22740, Note_on_c, 10, 75, 67
11, 22800, Note_on_c, 10, 75, 0
11, 22800, Note_on_c, 10, 63, 68
11, 22920, Note_on_c, 10, 63, 0
11, 22980, Note_on_c, 10, 75, 71
11, 23040, Note_on_c, 10, 75, 0
11, 23040, Note_on_c, 10, 63, 66
11, 23100, Note_on_c, 10, 63, 0
11, 23100, Note_on_c, 10, 58, 74
11, 23220, Note_on_c, 10, 58, 0
11, 23220, Note_on_c, 10, 58, 80
11, 23280, Note_on_c, 10, 58, 0
11, 23280, Note_on_c, 10, 58, 45
11, 23310, Note_on_c, 10, 58, 0
11, 23340, Note_on_c, 10, 60, 73
11, 23370, Note_on_c, 10, 60, 0
11, 23400, Note_on_c, 10, 55, 69
11, 23430, Note_on_c, 10, 55, 0
11, 23460, Note_on_c, 10, 56, 76
11, 23490, Note_on_c, 10, 56, 0
11, 23520, Note_on_c, 10, 63, 69
11, 23580, Note_on_c, 10, 63, 0
11, 23640, Note_on_c, 10, 60, 80
11, 23700, Note_on_c, 10, 60, 0
11, 23760, Note_on_c, 10, 68, 77
11, 23820, Note_on_c, 10, 68, 0
11, 23880, Note_on_c, 10, 65, 80
11, 23940, Note_on_c, 10, 65, 0
11, 24000, Note_on_c, 10, 62, 72
11, 24060, Note_on_c, 10, 62, 0
11, 26160, Note_on_c, 10, 63, 68
11, 26280, Note_on_c, 10, 63, 0
11, 26280, Note_on_c, 10, 65, 59
11, 26400, Note_on_c, 10, 65, 0
11, 26400, Note_on_c, 10, 63, 69
11, 26460, Note_on_c, 10, 63, 0
11, 26700, Note_on_c, 10, 74, 74
11, 26730, Note_on_c, 10, 74, 0
11, 26760, Note_on_c, 10, 75, 86
11, 26790, Note_on_c, 10, 75, 0
11, 26820, Note_on_c, 10, 77, 72
11, 26850, Note_on_c, 10, 77, 0
11, 26880, Note_on_c, 10, 70, 73
11, 26940, Note_on_c, 10, 70, 0
11, 26940, Note_on_c, 10, 67, 78
11, 27000, Note_on_c, 10, 67, 0
11, 27000, Note_on_c, 10, 68, 74
11, 27060, Note_on_c, 10, 68, 0
11, 27060, Note_on_c, 10, 70, 84
11, 27120, Note_on_c, 10, 70, 0
11, 27120, Note_on_c, 10, 72, 82
11, 27180, Note_on_c, 10, 72, 0
11, 27180, Note_on_c, 10, 72, 78
11, 27240, Note_on_c, 10, 72, 0
11, 27240, Note_on_c, 10, 67, 76
11, 27300, Note_on_c, 10, 67, 0
11, 27300, Note_on_c, 10, 68, 74
11, 27360, Note_on_c, 10, 68, 0
11, 27360, Note_on_c, 10, 67, 76
11, 27420, Note_on_c, 10, 67, 0
11, 27660, Note_on_c, 10, 71, 78
11, 27690, Note_on_c, 10, 71, 0
11, 27720, Note_on_c, 10, 72, 85
11, 27750, Note_on_c, 10, 72, 0
11, 27780, Note_on_c, 10, 74, 76
11, 27810, Note_on_c, 10, 74, 0
11, 27840, Note_on_c, 10, 67, 80
11, 28020, Note_on_c, 10, 67, 0
11, 28020, Note_on_c, 10, 65, 76
11, 28080, Note_on_c, 10, 65, 0
11, 28080, Note_on_c, 10, 63, 74
11, 28140, Note_on_c, 10, 63, 0
11, 28140, Note_on_c, 10, 60, 74
11, 28200, Note_on_c, 10, 60, 0
11, 28200, Note_on_c, 10, 62, 73
11, 28260, Note_on_c, 10, 62, 0
11, 28260, Note_on_c, 10, 63, 82
11, 28320, Note_on_c, 10, 63, 0
11, 28320, Note_on_c, 10, 59, 76
11, 28380, Note_on_c, 10, 59, 0
11, 28620, Note_on_c, 10, 48, 99
11, 28650, Note_on_c, 10, 48, 0
11, 28650, Note_on_c, 10, 50, 105
11, 28680, Note_on_c, 10, 50, 0
11, 28680, Note_on_c, 10, 51, 90
11, 28710, Note_on_c, 10, 51, 0
11, 28740, Note_on_c, 10, 48, 105
11, 28770, Note_on_c, 10, 48, 0
11, 28800, Note_on_c, 10, 43, 94
11, 28860, Note_on_c, 10, 43, 0
11, 29100, Note_on_c, 10, 48, 104
11, 29130, Note_on_c, 10, 48, 0
11, 29130, Note_on_c, 10, 50, 105
11, 29160, Note_on_c, 10, 50, 0
11, 29160, Note_on_c, 10, 51, 94
11, 29190, Note_on_c, 10, 51, 0
11, 29220, Note_on_c, 10, 48, 105
11, 29250, Note_on_c, 10, 48, 0
11, 29280, Note_on_c, 10, 43, 98
11, 29340, Note_on_c, 10, 43, 0
11, 29520, Note_on_c, 10, 62, 42
11, 29640, Note_on_c, 10, 62, 0
11, 29760, Note_on_c, 10, 65, 45
11, 29880, Note_on_c, 10, 65, 0
11, 30000, Note_on_c, 10, 71, 45
11, 30120, Note_on_c, 10, 71, 0
11, 30240, Note_on_c, 10, 74, 43
11, 30300, Note_on_c, 10, 74, 0
11, 31800, Program_c, 10, 45
11, 32160, Note_on_c, 10, 59, 68
11, 32280, Note_on_c, 10, 59, 0
11, 32400, Note_on_c, 10, 60, 68
11, 32520, Note_on_c, 10, 60, 0
11, 32640, Note_on_c, 10, 59, 81
11, 32760, Note_on_c, 10, 59, 0
11, 32760, Note_on_c, 10, 60, 73
11, 32880, Note_on_c, 10, 60, 0
11, 32880, Note_on_c, 10, 59, 77
11, 33000, Note_on_c, 10, 59, 0
11, 33120, Note_on_c, 10, 62, 60
11, 33240, Note_on_c, 10, 62, 0
11, 33360, Note_on_c, 10, 60, 69
11, 33480, Note_on_c, 10, 60, 0
11, 33540, Note_on_c, 10, 60, 72
11, 33600, Note_on_c, 10, 60, 0
11, 33600, Note_on_c, 10, 58, 80
11, 33720, Note_on_c, 10, 58, 0
11, 33720, Note_on_c, 10, 57, 84
11, 33840, Note_on_c, 10, 57, 0
11, 33840, Note_on_c, 10, 58, 69
11, 33840, Program_c, 10, 45
11, 33900, Note_on_c, 10, 58, 0
11, 33960, Control_c, 10, 7, 83
11, 34080, Note_on_c, 10, 62, 80
11, 34140, Note_on_c, 10, 62, 0
11, 34320, Note_on_c, 10, 63, 86
11, 34380, Note_on_c, 10, 63, 0
11, 34560, Note_on_c, 10, 62, 81
11, 34680, Note_on_c, 10, 62, 0
11, 34680, Note_on_c, 10, 63, 84
11, 34800, Note_on_c, 10, 63, 0
11, 34800, Note_on_c, 10, 62, 82
11, 34920, Note_on_c, 10, 62, 0
11, 35040, Note_on_c, 10, 62, 89
11, 35160, Note_on_c, 10, 62, 0
11, 35280, Note_on_c, 10, 63, 82
11, 35400, Note_on_c, 10, 63, 0
11, 35460, Note_on_c, 10, 67, 89
11, 35520, Note_on_c, 10, 67, 0
11, 35520, Note_on_c, 10, 67, 85
11, 35640, Note_on_c, 10, 67, 0
11, 35640, Note_on_c, 10, 66, 90
11, 35760, Note_on_c, 10, 66, 0
11, 35760, Note_on_c, 10, 58, 90
11, 35880, Note_on_c, 10, 58, 0
11, 36000, Note_on_c, 10, 67, 53
11, 36120, Note_on_c, 10, 67, 0
11, 36240, Note_on_c, 10, 65, 76
11, 36360, Note_on_c, 10, 65, 0
11, 36480, Note_on_c, 10, 65, 68
11, 36600, Note_on_c, 10, 65, 0
11, 36720, Control_c, 10, 7, 99
11, 36720, Note_on_c, 10, 63, 64
11, 36840, Note_on_c, 10, 63, 0
11, 36960, Note_on_c, 10, 60, 72
11, 37020, Note_on_c, 10, 60, 0
11, 37080, Note_on_c, 10, 60, 74
11, 37140, Note_on_c, 10, 60, 0
11, 37200, Note_on_c, 10, 59, 81
11, 37260, Note_on_c, 10, 59, 0
11, 37440, Control_c, 10, 7, 99
11, 37440, Note_on_c, 10, 60, 72
11, 37465, Control_c, 10, 7, 98
11, 37485, Control_c, 10, 7, 97
11, 37500, Note_on_c, 10, 60, 0
11, 37505, Control_c, 10, 7, 96
11, 37530, Control_c, 10, 7, 95
11, 37550, Control_c, 10, 7, 94
11, 37560, Note_on_c, 10, 60, 80
11, 37570, Control_c, 10, 7, 93
11, 37595, Control_c, 10, 7, 92
11, 37615, Control_c, 10, 7, 91
11, 37620, Note_on_c, 10, 60, 0
11, 37635, Control_c, 10, 7, 90
11, 37660, Control_c, 10, 7, 89
11, 37680, Control_c, 10, 7, 88
11, 37680, Note_on_c, 10, 59, 67
11, 37700, Control_c, 10, 7, 87
11, 37720, Control_c, 10, 7, 86
11, 37745, Control_c, 10, 7, 85
11, 37765, Control_c, 10, 7, 84
11, 37785, Control_c, 10, 7, 83
11, 37800, Note_on_c, 10, 59, 0
11, 37810, Control_c, 10, 7, 82
11, 37830, Control_c, 10, 7, 81
11, 37850, Control_c, 10, 7, 80
11, 37875, Control_c, 10, 7, 79
11, 37895, Control_c, 10, 7, 78
11, 37915, Control_c, 10, 7, 77
11, 37920, Note_on_c, 10, 60, 74
11, 37935, Control_c, 10, 7, 76
11, 37960, Control_c, 10, 7, 75
11, 37980, Control_c, 10, 7, 74
11, 38000, Control_c, 10, 7, 73
11, 38025, Control_c, 10, 7, 72
11, 38040, Note_on_c, 10, 60, 0
11, 38040, Note_on_c, 10, 60, 77
11, 38045, Control_c, 10, 7, 71
11, 38065, Control_c, 10, 7, 70
11, 38090, Control_c, 10, 7, 69
11, 38110, Control_c, 10, 7, 68
11, 38130, Control_c, 10, 7, 67
11, 38150, Control_c, 10, 7, 66
11, 38160, Note_on_c, 10, 60, 0
11, 38160, Note_on_c, 10, 59, 69
11, 38220, Note_on_c, 10, 59, 0
11, 41250, Control_c, 10, 7, 100
11, 41280, Note_on_c, 10, 59, 84
11, 41340, Note_on_c, 10, 59, 0
11, 41520, Note_on_c, 10, 60, 78
11, 41580, Note_on_c, 10, 60, 0
11, 41760, Note_on_c, 10, 55, 81
11, 41820, Note_on_c, 10, 55, 0
11, 41880, Note_on_c, 10, 55, 85
11, 41940, Note_on_c, 10, 55, 0
11, 42000, Note_on_c, 10, 60, 81
11, 42120, Note_on_c, 10, 60, 0
11, 42180, Note_on_c, 10, 62, 85
11, 42240, Note_on_c, 10, 62, 0
11, 42240, Note_on_c, 10, 63, 86
11, 42300, Note_on_c, 10, 63, 0
11, 42360, Note_on_c, 10, 65, 95
11, 42420, Note_on_c, 10, 65, 0
11, 42480, Note_on_c, 10, 63, 93
11, 42600, Note_on_c, 10, 63, 0
11, 42600, Program_c, 10, 48
11, 42660, Note_on_c, 10, 67, 84
11, 42720, Note_on_c, 10, 67, 0
11, 42720, Note_on_c, 10, 70, 84
11, 42780, Note_on_c, 10, 70, 0
11, 42780, Note_on_c, 10, 64, 99
11, 42840, Note_on_c, 10, 64, 0
11, 42840, Note_on_c, 10, 64, 99
11, 42870, Note_on_c, 10, 64, 0
11, 42900, Note_on_c, 10, 64, 105
11, 42930, Note_on_c, 10, 64, 0
11, 42945, Note_on_c, 10, 67, 98
11, 42960, Note_on_c, 10, 67, 0
11, 42960, Note_on_c, 10, 65, 99
11, 42990, Note_on_c, 10, 65, 0
11, 42990, Note_on_c, 10, 64, 104
11, 43020, Note_on_c, 10, 64, 0
11, 43020, Note_on_c, 10, 65, 101
11, 43050, Note_on_c, 10, 65, 0
11, 43050, Note_on_c, 10, 67, 94
11, 43080, Note_on_c, 10, 67, 0
11, 43080, Note_on_c, 10, 68, 99
11, 43110, Note_on_c, 10, 68, 0
11, 43140, Note_on_c, 10, 68, 99
11, 43170, Note_on_c, 10, 68, 0
11, 43200, Note_on_c, 10, 68, 101
11, 43260, Note_on_c, 10, 68, 0
11, 43260, Note_on_c, 10, 62, 99
11, 43320, Note_on_c, 10, 62, 0
11, 43320, Note_on_c, 10, 62, 98
11, 43350, Note_on_c, 10, 62, 0
11, 43380, Note_on_c, 10, 62, 99
11, 43410, Note_on_c, 10, 62, 0
11, 43425, Note_on_c, 10, 65, 99
11, 43440, Note_on_c, 10, 65, 0
11, 43440, Note_on_c, 10, 63, 94
11, 43470, Note_on_c, 10, 63, 0
11, 43470, Note_on_c, 10, 62, 99
11, 43500, Note_on_c, 10, 62, 0
11, 43500, Note_on_c, 10, 63, 94
11, 43530, Note_on_c, 10, 63, 0
11, 43530, Note_on_c, 10, 65, 99
11, 43560, Note_on_c, 10, 65, 0
11, 43560, Note_on_c, 10, 67, 98
11, 43590, Note_on_c, 10, 67, 0
11, 43620, Note_on_c, 10, 67, 104
11, 43650, Note_on_c, 10, 67, 0
11, 43680, Note_on_c, 10, 65, 105
11, 43710, Note_on_c, 10, 65, 0
11, 43740, Note_on_c, 10, 65, 99
11, 43770, Note_on_c, 10, 65, 0
11, 43800, Note_on_c, 10, 66, 98
11, 43830, Note_on_c, 10, 66, 0
11, 43860, Note_on_c, 10, 66, 99
11, 43890, Note_on_c, 10, 66, 0
11, 43920, Note_on_c, 10, 67, 117
11, 43980, Note_on_c, 10, 67, 0
11, 43980, Note_on_c, 10, 67, 99
11, 44000, Note_on_c, 10, 67, 0
11, 44000, Note_on_c, 10, 67, 99
11, 44020, Note_on_c, 10, 67, 0
11, 44020, Note_on_c, 10, 67, 99
11, 44040, Note_on_c, 10, 67, 0
11, 44040, Note_on_c, 10, 67, 95
11, 44100, Note_on_c, 10, 67, 0
11, 44100, Note_on_c, 10, 67, 94
11, 44160, Note_on_c, 10, 67, 0
11, 44160, Note_on_c, 10, 65, 99
11, 44190, Note_on_c, 10, 65, 0
11, 44220, Note_on_c, 10, 65, 99
11, 44250, Note_on_c, 10, 65, 0
11, 44280, Note_on_c, 10, 66, 95
11, 44310, Note_on_c, 10, 66, 0
11, 44340, Note_on_c, 10, 66, 95
11, 44370, Note_on_c, 10, 66, 0
11, 44400, Note_on_c, 10, 67, 119
11, 44460, Note_on_c, 10, 67, 0
11, 44460, Note_on_c, 10, 67, 99
11, 44480, Note_on_c, 10, 67, 0
11, 44480, Note_on_c, 10, 67, 94
11, 44500, Note_on_c, 10, 67, 0
11, 44500, Note_on_c, 10, 67, 95
11, 44520, Note_on_c, 10, 67, 0
11, 44520, Note_on_c, 10, 67, 94
11, 44580, Note_on_c, 10, 67, 0
11, 44580, Note_on_c, 10, 67, 95
11, 44640, Note_on_c, 10, 67, 0
11, 44640, Note_on_c, 10, 65, 99
11, 44670, Note_on_c, 10, 65, 0
11, 44700, Note_on_c, 10, 65, 104
11, 44730, Note_on_c, 10, 65, 0
11, 44760, Note_on_c, 10, 66, 94
11, 44790, Note_on_c, 10, 66, 0
11, 44820, Note_on_c, 10, 66, 95
11, 44850, Note_on_c, 10, 66, 0
11, 44880, Note_on_c, 10, 67, 99
11, 44910, Note_on_c, 10, 67, 0
11, 44910, Note_on_c, 10, 67, 95
11, 44940, Note_on_c, 10, 67, 0
11, 44940, Note_on_c, 10, 67, 58
11, 44970, Note_on_c, 10, 67, 0
11, 44970, Note_on_c, 10, 67, 58
11, 45000, Note_on_c, 10, 67, 0
11, 45000, Note_on_c, 10, 67, 43
11, 45030, Note_on_c, 10, 67, 0
11, 45030, Note_on_c, 10, 67, 43
11, 45060, Note_on_c, 10, 67, 0
11, 45060, Note_on_c, 10, 67, 45
11, 45090, Note_on_c, 10, 67, 0
11, 45090, Note_on_c, 10, 67, 52
11, 45120, Note_on_c, 10, 67, 0
11, 45120, Note_on_c, 10, 67, 62
11, 45150, Note_on_c, 10, 67, 0
11, 45150, Note_on_c, 10, 67, 52
11, 45180, Note_on_c, 10, 67, 0
11, 45180, Note_on_c, 10, 67, 43
11, 45210, Note_on_c, 10, 67, 0
11, 45210, Note_on_c, 10, 67, 43
11, 45240, Note_on_c, 10, 67, 0
11, 45240, Note_on_c, 10, 67, 43
11, 45270, Note_on_c, 10, 67, 0
11, 45270, Note_on_c, 10, 67, 45
11, 45300, Note_on_c, 10, 67, 0
11, 45300, Note_on_c, 10, 67, 44
11, 45330, Note_on_c, 10, 67, 0
11, 45330, Note_on_c, 10, 67, 57
11, 45360, Note_on_c, 10, 67, 0
11, 45360, Note_on_c, 10, 67, 46
11, 45390, Note_on_c, 10, 67, 0
11, 45390, Note_on_c, 10, 67, 46
11, 45420, Note_on_c, 10, 67, 0
11, 45420, Note_on_c, 10, 67, 44
11, 45450, Note_on_c, 10, 67, 0
11, 45450, Note_on_c, 10, 67, 50
11, 45480, Note_on_c, 10, 67, 0
11, 45480, Note_on_c, 10, 67, 53
11, 45510, Note_on_c, 10, 67, 0
11, 45510, Note_on_c, 10, 67, 49
11, 45540, Note_on_c, 10, 67, 0
11, 45540, Note_on_c, 10, 67, 44
11, 45570, Note_on_c, 10, 67, 0
11, 45570, Note_on_c, 10, 67, 53
11, 45600, Note_on_c, 10, 67, 0
11, 45600, Note_on_c, 10, 67, 49
11, 45630, Note_on_c, 10, 67, 0
11, 45630, Note_on_c, 10, 67, 46
11, 45660, Note_on_c, 10, 67, 0
11, 45660, Note_on_c, 10, 67, 52
11, 45690, Note_on_c, 10, 67, 0
11, 45690, Note_on_c, 10, 67, 62
11, 45720, Note_on_c, 10, 67, 0
11, 45720, Note_on_c, 10, 67, 59
11, 45750, Note_on_c, 10, 67, 0
11, 45750, Note_on_c, 10, 67, 55
11, 45780, Note_on_c, 10, 67, 0
11, 45780, Note_on_c, 10, 67, 57
11, 45810, Note_on_c, 10, 67, 0
11, 45810, Note_on_c, 10, 67, 57
11, 45840, Note_on_c, 10, 67, 0
11, 45840, Note_on_c, 10, 67, 45
11, 45870, Note_on_c, 10, 67, 0
11, 45870, Note_on_c, 10, 67, 50
11, 45900, Note_on_c, 10, 67, 0
11, 45900, Note_on_c, 10, 67, 76
11, 45930, Note_on_c, 10, 67, 0
11, 45930, Note_on_c, 10, 67, 74
11, 45960, Note_on_c, 10, 67, 0
11, 45960, Note_on_c, 10, 67, 84
11, 45990, Note_on_c, 10, 67, 0
11, 45990, Note_on_c, 10, 67, 99
11, 46020, Note_on_c, 10, 67, 0
11, 46020, Note_on_c, 10, 67, 105
11, 46050, Note_on_c, 10, 67, 0
11, 46050, Note_on_c, 10, 67, 107
11, 46080, Note_on_c, 10, 67, 0
11, 46080, Note_on_c, 10, 68, 99
11, 46140, Note_on_c, 10, 68, 0
11, 46140, Note_on_c, 10, 59, 104
11, 46200, Note_on_c, 10, 59, 0
11, 46200, Note_on_c, 10, 59, 105
11, 46230, Note_on_c, 10, 59, 0
11, 46260, Note_on_c, 10, 59, 105
11, 46290, Note_on_c, 10, 59, 0
11, 46320, Note_on_c, 10, 60, 119
11, 46440, Note_on_c, 10, 60, 0
11, 46440, Note_on_c, 10, 62, 99
11, 46470, Note_on_c, 10, 62, 0
11, 46470, Note_on_c, 10, 60, 104
11, 46500, Note_on_c, 10, 60, 0
11, 46500, Note_on_c, 10, 59, 110
11, 46530, Note_on_c, 10, 59, 0
11, 46530, Note_on_c, 10, 60, 99
11, 46560, Note_on_c, 10, 60, 0
11, 46560, Note_on_c, 10, 60, 105
11, 46590, Note_on_c, 10, 60, 0
11, 46590, Note_on_c, 10, 72, 93
11, 46620, Note_on_c, 10, 72, 0
11, 46620, Note_on_c, 10, 72, 94
11, 46650, Note_on_c, 10, 72, 0
11, 46650, Note_on_c, 10, 72, 98
11, 46680, Note_on_c, 10, 72, 0
11, 46680, Note_on_c, 10, 71, 99
11, 46710, Note_on_c, 10, 71, 0
11, 46710, Note_on_c, 10, 71, 104
11, 46740, Note_on_c, 10, 71, 0
11, 46740, Note_on_c, 10, 71, 105
11, 46770, Note_on_c, 10, 71, 0
11, 46770, Note_on_c, 10, 71, 105
11, 46800, Note_on_c, 10, 71, 0
11, 46800, Note_on_c, 10, 60, 125
11, 46830, Note_on_c, 10, 60, 0
11, 46830, Note_on_c, 10, 72, 82
11, 46860, Note_on_c, 10, 72, 0
11, 46860, Note_on_c, 10, 72, 90
11, 46890, Note_on_c, 10, 72, 0
11, 46890, Note_on_c, 10, 72, 93
11, 46920, Note_on_c, 10, 72, 0
11, 46920, Note_on_c, 10, 72, 89
11, 46950, Note_on_c, 10, 72, 0
11, 46950, Note_on_c, 10, 72, 90
11, 46980, Note_on_c, 10, 72, 0
11, 46980, Note_on_c, 10, 71, 104
11, 47010, Note_on_c, 10, 71, 0
11, 47010, Note_on_c, 10, 72, 94
11, 47040, Note_on_c, 10, 72, 0
11, 47040, Note_on_c, 10, 74, 110
11, 47070, Note_on_c, 10, 74, 0
11, 47100, Note_on_c, 10, 74, 105
11, 47130, Note_on_c, 10, 74, 0
11, 47160, Note_on_c, 10, 71, 105
11, 47190, Note_on_c, 10, 71, 0
11, 47220, Note_on_c, 10, 71, 105
11, 47250, Note_on_c, 10, 71, 0
11, 47280, Note_on_c, 10, 75, 125
11, 47310, Note_on_c, 10, 75, 0
11, 47310, Note_on_c, 10, 72, 86
11, 47340, Note_on_c, 10, 72, 0
11, 47340, Note_on_c, 10, 72, 93
11, 47370, Note_on_c, 10, 72, 0
11, 47370, Note_on_c, 10, 72, 94
11, 47400, Note_on_c, 10, 72, 0
11, 47400, Note_on_c, 10, 72, 94
11, 47430, Note_on_c, 10, 72, 0
11, 47430, Note_on_c, 10, 72, 94
11, 47460, Note_on_c, 10, 72, 0
11, 47460, Note_on_c, 10, 71, 105
11, 47490, Note_on_c, 10, 71, 0
11, 47490, Note_on_c, 10, 72, 94
11, 47520, Note_on_c, 10, 72, 0
11, 47520, Note_on_c, 10, 74, 107
11, 47550, Note_on_c, 10, 74, 0
11, 47580, Note_on_c, 10, 62, 101
11, 47610, Note_on_c, 10, 62, 0
11, 47640, Note_on_c, 10, 59, 99
11, 47670, Note_on_c, 10, 59, 0
11, 47700, Note_on_c, 10, 59, 105
11, 47730, Note_on_c, 10, 59, 0
11, 47760, Note_on_c, 10, 60, 105
11, 47820, Note_on_c, 10, 60, 0
11, 47880, Note_on_c, 10, 67, 104
11, 47940, Note_on_c, 10, 67, 0
11, 48000, Note_on_c, 10, 60, 107
11, 48060, Note_on_c, 10, 60, 0
11, 48240, Note_on_c, 10, 60, 65
11, 48300, Note_on_c, 10, 60, 0
11, 48300, Note_on_c, 10, 63, 59
11, 48360, Note_on_c, 10, 63, 0
11, 48360, Note_on_c, 10, 60, 44
11, 48420, Note_on_c, 10, 60, 0
11, 48420, Note_on_c, 10, 63, 45
11, 48480, Note_on_c, 10, 63, 0
11, 48480, Note_on_c, 10, 61, 59
11, 48540, Note_on_c, 10, 61, 0
11, 48540, Note_on_c, 10, 63, 48
11, 48600, Note_on_c, 10, 63, 0
11, 48600, Note_on_c, 10, 61, 60
11, 48660, Note_on_c, 10, 61, 0
11, 48660, Note_on_c, 10, 63, 45
11, 48720, Note_on_c, 10, 63, 0
11, 48780, Note_on_c, 10, 63, 38
11, 48840, Note_on_c, 10, 63, 0
11, 48840, Note_on_c, 10, 65, 43
11, 48900, Note_on_c, 10, 65, 0
11, 48900, Note_on_c, 10, 67, 46
11, 48960, Note_on_c, 10, 67, 0
11, 48960, Note_on_c, 10, 68, 55
11, 49020, Note_on_c, 10, 68, 0
11, 49020, Note_on_c, 10, 70, 57
11, 49080, Note_on_c, 10, 70, 0
11, 49080, Note_on_c, 10, 72, 64
11, 49140, Note_on_c, 10, 72, 0
11, 49140, Note_on_c, 10, 72, 63
11, 49200, Note_on_c, 10, 72, 0
11, 49200, Note_on_c, 10, 69, 74
11, 49320, Note_on_c, 10, 69, 0
11, 49680, Note_on_c, 10, 56, 65
11, 49740, Note_on_c, 10, 56, 0
11, 49740, Note_on_c, 10, 60, 65
11, 49800, Note_on_c, 10, 60, 0
11, 49800, Note_on_c, 10, 58, 64
11, 49860, Note_on_c, 10, 58, 0
11, 49860, Note_on_c, 10, 61, 65
11, 49920, Note_on_c, 10, 61, 0
11, 49920, Note_on_c, 10, 60, 47
11, 50040, Note_on_c, 10, 60, 0
11, 50160, Note_on_c, 10, 60, 54
11, 50400, Note_on_c, 10, 60, 0
11, 50400, Note_on_c, 10, 61, 46
11, 50640, Note_on_c, 10, 61, 0
11, 50640, Note_on_c, 10, 58, 50
11, 50880, Note_on_c, 10, 58, 0
11, 50880, Note_on_c, 10, 60, 43
11, 51120, Note_on_c, 10, 60, 0
11, 51120, Note_on_c, 10, 60, 47
11, 51360, Note_on_c, 10, 60, 0
11, 51360, Note_on_c, 10, 65, 55
11, 51420, Note_on_c, 10, 65, 0
11, 51420, Note_on_c, 10, 63, 66
11, 51480, Note_on_c, 10, 63, 0
11, 51480, Note_on_c, 10, 61, 65
11, 51540, Note_on_c, 10, 61, 0
11, 51540, Note_on_c, 10, 65, 51
11, 51600, Note_on_c, 10, 65, 0
11, 51600, Note_on_c, 10, 60, 43
11, 51720, Note_on_c, 10, 60, 0
11, 51720, Note_on_c, 10, 61, 62
11, 51840, Note_on_c, 10, 61, 0
11, 51840, Note_on_c, 10, 60, 57
11, 51900, Note_on_c, 10, 60, 0
11, 52140, Note_on_c, 10, 58, 44
11, 52170, Note_on_c, 10, 58, 0
11, 52200, Note_on_c, 10, 58, 43
11, 52230, Note_on_c, 10, 58, 0
11, 52260, Note_on_c, 10, 58, 51
11, 52290, Note_on_c, 10, 58, 0
11, 52320, Note_on_c, 10, 58, 44
11, 52440, Note_on_c, 10, 58, 0
11, 52620, Note_on_c, 10, 63, 45
11, 52650, Note_on_c, 10, 63, 0
11, 52680, Note_on_c, 10, 63, 45
11, 52710, Note_on_c, 10, 63, 0
11, 52740, Note_on_c, 10, 63, 45
11, 52770, Note_on_c, 10, 63, 0
11, 52800, Note_on_c, 10, 63, 52
11, 52920, Note_on_c, 10, 63, 0
11, 53040, Note_on_c, 10, 63, 65
11, 53280, Note_on_c, 10, 63, 0
11, 53280, Note_on_c, 10, 65, 71
11, 53520, Note_on_c, 10, 65, 0
11, 53520, Note_on_c, 10, 67, 69
11, 53580, Note_on_c, 10, 67, 0
11, 53700, Note_on_c, 10, 55, 94
11, 53760, Note_on_c, 10, 55, 0
11, 53760, Note_on_c, 10, 56, 77
11, 53880, Note_on_c, 10, 56, 0
11, 53880, Note_on_c, 10, 58, 53
11, 54000, Note_on_c, 10, 58, 0
11, 54000, Note_on_c, 10, 60, 71
11, 54240, Note_on_c, 10, 60, 0
11, 54240, Note_on_c, 10, 61, 65
11, 54480, Note_on_c, 10, 61, 0
11, 54480, Note_on_c, 10, 58, 62
11, 54720, Note_on_c, 10, 58, 0
11, 54720, Note_on_c, 10, 63, 42
11, 54960, Note_on_c, 10, 63, 0
11, 54960, Note_on_c, 10, 68, 49
11, 55080, Note_on_c, 10, 68, 0
11, 55080, Note_on_c, 10, 66, 65
11, 55200, Note_on_c, 10, 66, 0
11, 55200, Note_on_c, 10, 65, 76
11, 55260, Note_on_c, 10, 65, 0
11, 55260, Note_on_c, 10, 57, 80
11, 55320, Note_on_c, 10, 57, 0
11, 55320, Note_on_c, 10, 58, 58
11, 55380, Note_on_c, 10, 58, 0
11, 55380, Note_on_c, 10, 61, 64
11, 55440, Note_on_c, 10, 61, 0
11, 55440, Note_on_c, 10, 60, 64
11, 55560, Note_on_c, 10, 60, 0
11, 55560, Note_on_c, 10, 61, 68
11, 55680, Note_on_c, 10, 61, 0
11, 55680, Note_on_c, 10, 60, 57
11, 55800, Note_on_c, 10, 60, 0
11, 55980, Note_on_c, 10, 58, 54
11, 56010, Note_on_c, 10, 58, 0
11, 56040, Note_on_c, 10, 58, 44
11, 56070, Note_on_c, 10, 58, 0
11, 56100, Note_on_c, 10, 58, 58
11, 56130, Note_on_c, 10, 58, 0
11, 56160, Note_on_c, 10, 58, 53
11, 56280, Note_on_c, 10, 58, 0
11, 56460, Note_on_c, 10, 63, 43
11, 56490, Note_on_c, 10, 63, 0
11, 56520, Note_on_c, 10, 63, 52
11, 56550, Note_on_c, 10, 63, 0
11, 56580, Note_on_c, 10, 63, 51
11, 56610, Note_on_c, 10, 63, 0
11, 56640, Note_on_c, 10, 63, 43
11, 56760, Note_on_c, 10, 63, 0
11, 56880, Note_on_c, 10, 63, 48
11, 57120, Note_on_c, 10, 63, 0
11, 57120, Note_on_c, 10, 65, 55
11, 57360, Note_on_c, 10, 65, 0
11, 57360, Note_on_c, 10, 67, 50
11, 57480, Note_on_c, 10, 67, 0
11, 57480, Note_on_c, 10, 55, 93
11, 57540, Control_c, 10, 7, 97
11, 57550, Control_c, 10, 7, 94
11, 57560, Control_c, 10, 7, 90
11, 57570, Control_c, 10, 7, 86
11, 57580, Control_c, 10, 7, 83
11, 57590, Control_c, 10, 7, 79
11, 57600, Control_c, 10, 7, 75
11, 57610, Control_c, 10, 7, 72
11, 57620, Control_c, 10, 7, 68
11, 57630, Control_c, 10, 7, 64
11, 57720, Note_on_c, 10, 55, 0
11, 57720, Note_on_c, 10, 56, 72
11, 57780, Note_on_c, 10, 56, 0
11, 57780, Note_on_c, 10, 58, 45
11, 57840, Note_on_c, 10, 58, 0
11, 57840, Control_c, 10, 7, 101
11, 57840, Note_on_c, 10, 60, 63
11, 58080, Note_on_c, 10, 60, 0
11, 58080, Note_on_c, 10, 61, 45
11, 58320, Note_on_c, 10, 61, 0
11, 58320, Note_on_c, 10, 58, 45
11, 58560, Note_on_c, 10, 58, 0
11, 58560, Note_on_c, 10, 63, 46
11, 58980, Note_on_c, 10, 63, 0
11, 58980, Note_on_c, 10, 64, 62
11, 59040, Note_on_c, 10, 64, 0
11, 59040, Note_on_c, 10, 65, 67
11, 59220, Note_on_c, 10, 65, 0
11, 59220, Note_on_c, 10, 65, 60
11, 59280, Note_on_c, 10, 65, 0
11, 59280, Note_on_c, 10, 60, 46
11, 59340, Note_on_c, 10, 60, 0
11, 59340, Note_on_c, 10, 60, 65
11, 59400, Note_on_c, 10, 60, 0
11, 59460, Note_on_c, 10, 61, 61
11, 59520, Note_on_c, 10, 61, 0
11, 59520, Note_on_c, 10, 60, 59
11, 59640, Note_on_c, 10, 60, 0
11, 60660, Note_on_c, 10, 67, 53
11, 60720, Note_on_c, 10, 67, 0
11, 60720, Note_on_c, 10, 68, 51
11, 60780, Note_on_c, 10, 68, 0
11, 60780, Note_on_c, 10, 59, 56
11, 60840, Note_on_c, 10, 59, 0
11, 60840, Note_on_c, 10, 59, 43
11, 60870, Note_on_c, 10, 59, 0
11, 60900, Note_on_c, 10, 59, 46
11, 60930, Note_on_c, 10, 59, 0
11, 60960, Note_on_c, 10, 60, 43
11, 61080, Note_on_c, 10, 60, 0
11, 61080, Note_on_c, 10, 62, 38
11, 61110, Note_on_c, 10, 62, 0
11, 61110, Note_on_c, 10, 60, 67
11, 61140, Note_on_c, 10, 60, 0
11, 61140, Note_on_c, 10, 59, 50
11, 61170, Note_on_c, 10, 59, 0
11, 61170, Note_on_c, 10, 60, 44
11, 61200, Note_on_c, 10, 60, 0
11, 61200, Note_on_c, 10, 62, 54
11, 61230, Note_on_c, 10, 62, 0
11, 61260, Note_on_c, 10, 62, 57
11, 61290, Note_on_c, 10, 62, 0
11, 61320, Note_on_c, 10, 63, 58
11, 61350, Note_on_c, 10, 63, 0
11, 61350, Note_on_c, 10, 62, 57
11, 61380, Note_on_c, 10, 62, 0
11, 61380, Note_on_c, 10, 60, 60
11, 61410, Note_on_c, 10, 60, 0
11, 61410, Note_on_c, 10, 62, 47
11, 61440, Note_on_c, 10, 62, 0
11, 61440, Note_on_c, 10, 63, 48
11, 61500, Note_on_c, 10, 63, 0
11, 61500, Note_on_c, 10, 64, 62
11, 61560, Note_on_c, 10, 64, 0
11, 61560, Note_on_c, 10, 65, 59
11, 61620, Note_on_c, 10, 65, 0
11, 61620, Note_on_c, 10, 67, 46
11, 61650, Note_on_c, 10, 67, 0
11, 61650, Note_on_c, 10, 68, 38
11, 61680, Note_on_c, 10, 68, 0
11, 61680, Note_on_c, 10, 70, 43
11, 61710, Note_on_c, 10, 70, 0
11, 61710, Note_on_c, 10, 67, 57
11, 61740, Note_on_c, 10, 67, 0
11, 61740, Note_on_c, 10, 68, 71
11, 61770, Note_on_c, 10, 68, 0
11, 61770, Note_on_c, 10, 70, 72
11, 61800, Note_on_c, 10, 70, 0
11, 61800, Note_on_c, 10, 72, 59
11, 61830, Note_on_c, 10, 72, 0
11, 61830, Note_on_c, 10, 70, 73
11, 61860, Note_on_c, 10, 70, 0
11, 61860, Note_on_c, 10, 68, 77
11, 61890, Note_on_c, 10, 68, 0
11, 61890, Note_on_c, 10, 67, 71
11, 61920, Note_on_c, 10, 67, 0
11, 61920, Note_on_c, 10, 68, 72
11, 61950, Note_on_c, 10, 68, 0
11, 61950, Note_on_c, 10, 70, 72
11, 61980, Note_on_c, 10, 70, 0
11, 61980, Note_on_c, 10, 68, 73
11, 62010, Note_on_c, 10, 68, 0
11, 62010, Note_on_c, 10, 67, 65
11, 62040, Note_on_c, 10, 67, 0
11, 62040, Note_on_c, 10, 68, 78
11, 62070, Note_on_c, 10, 68, 0
11, 62070, Note_on_c, 10, 65, 78
11, 62100, Note_on_c, 10, 65, 0
11, 62100, Note_on_c, 10, 67, 55
11, 62130, Note_on_c, 10, 67, 0
11, 62130, Note_on_c, 10, 68, 67
11, 62160, Note_on_c, 10, 68, 0
11, 62160, Note_on_c, 10, 70, 63
11, 62190, Note_on_c, 10, 70, 0
11, 62190, Note_on_c, 10, 67, 65
11, 62220, Note_on_c, 10, 67, 0
11, 62220, Note_on_c, 10, 68, 68
11, 62250, Note_on_c, 10, 68, 0
11, 62250, Note_on_c, 10, 70, 73
11, 62280, Note_on_c, 10, 70, 0
11, 62280, Note_on_c, 10, 72, 51
11, 62430, Note_on_c, 10, 72, 0
11, 62430, Note_on_c, 10, 72, 76
11, 62445, Note_on_c, 10, 72, 0
11, 62460, Note_on_c, 10, 72, 71
11, 62475, Note_on_c, 10, 72, 0
11, 62490, Note_on_c, 10, 70, 86
11, 62505, Note_on_c, 10, 70, 0
11, 62520, Note_on_c, 10, 68, 84
11, 62535, Note_on_c, 10, 68, 0
11, 62550, Note_on_c, 10, 67, 86
11, 62565, Note_on_c, 10, 67, 0
11, 62580, Note_on_c, 10, 65, 90
11, 62595, Note_on_c, 10, 65, 0
11, 62610, Note_on_c, 10, 63, 71
11, 62625, Note_on_c, 10, 63, 0
11, 62640, Note_on_c, 10, 62, 54
11, 62670, Note_on_c, 10, 62, 0
11, 62670, Note_on_c, 10, 62, 64
11, 62700, Note_on_c, 10, 62, 0
11, 62700, Note_on_c, 10, 63, 77
11, 62730, Note_on_c, 10, 63, 0
11, 62730, Note_on_c, 10, 65, 66
11, 62760, Note_on_c, 10, 65, 0
11, 62760, Note_on_c, 10, 67, 57
11, 62790, Note_on_c, 10, 67, 0
11, 62790, Note_on_c, 10, 68, 65
11, 62820, Note_on_c, 10, 68, 0
11, 62820, Note_on_c, 10, 67, 66
11, 62850, Note_on_c, 10, 67, 0
11, 62850, Note_on_c, 10, 65, 68
11, 62880, Note_on_c, 10, 65, 0
11, 62880, Note_on_c, 10, 63, 65
11, 62910, Note_on_c, 10, 63, 0
11, 62910, Note_on_c, 10, 62, 61
11, 62940, Note_on_c, 10, 62, 0
11, 62940, Note_on_c, 10, 60, 71
11, 62970, Note_on_c, 10, 60, 0
11, 62970, Note_on_c, 10, 58, 74
11, 63000, Note_on_c, 10, 58, 0
11, 63000, Note_on_c, 10, 56, 72
11, 63030, Note_on_c, 10, 56, 0
11, 63030, Note_on_c, 10, 63, 76
11, 63060, Note_on_c, 10, 63, 0
11, 63060, Note_on_c, 10, 68, 73
11, 63090, Note_on_c, 10, 68, 0
11, 63090, Note_on_c, 10, 67, 73
11, 63120, Note_on_c, 10, 67, 0
11, 63120, Note_on_c, 10, 65, 74
11, 63150, Note_on_c, 10, 65, 0
11, 63150, Note_on_c, 10, 63, 64
11, 63180, Note_on_c, 10, 63, 0
11, 63180, Note_on_c, 10, 62, 41
11, 63210, Note_on_c, 10, 62, 0
11, 63210, Note_on_c, 10, 60, 85
11, 63240, Note_on_c, 10, 60, 0
11, 63240, Note_on_c, 10, 58, 74
11, 63270, Note_on_c, 10, 58, 0
11, 63270, Note_on_c, 10, 65, 90
11, 63300, Note_on_c, 10, 65, 0
11, 63300, Note_on_c, 10, 70, 77
11, 63330, Note_on_c, 10, 70, 0
11, 63330, Note_on_c, 10, 68, 77
11, 63360, Note_on_c, 10, 68, 0
11, 63360, Note_on_c, 10, 67, 71
11, 63390, Note_on_c, 10, 67, 0
11, 63390, Note_on_c, 10, 68, 84
11, 63420, Note_on_c, 10, 68, 0
11, 63420, Note_on_c, 10, 70, 81
11, 63450, Note_on_c, 10, 70, 0
11, 63450, Note_on_c, 10, 68, 86
11, 63480, Note_on_c, 10, 68, 0
11, 63480, Note_on_c, 10, 67, 84
11, 63510, Note_on_c, 10, 67, 0
11, 63510, Note_on_c, 10, 65, 89
11, 63540, Note_on_c, 10, 65, 0
11, 63540, Note_on_c, 10, 63, 82
11, 63570, Note_on_c, 10, 63, 0
11, 63570, Note_on_c, 10, 61, 81
11, 63600, Note_on_c, 10, 61, 0
11, 63600, Note_on_c, 10, 60, 85
11, 63630, Note_on_c, 10, 60, 0
11, 63630, Note_on_c, 10, 67, 89
11, 63660, Note_on_c, 10, 67, 0
11, 63660, Note_on_c, 10, 72, 68
11, 63690, Note_on_c, 10, 72, 0
11, 63690, Note_on_c, 10, 67, 90
11, 63720, Note_on_c, 10, 67, 0
11, 63720, Note_on_c, 10, 72, 74
11, 63750, Note_on_c, 10, 72, 0
11, 63750, Note_on_c, 10, 67, 95
11, 63780, Note_on_c, 10, 67, 0
11, 63780, Note_on_c, 10, 72, 73
11, 63810, Note_on_c, 10, 72, 0
11, 63810, Note_on_c, 10, 70, 93
11, 63840, Note_on_c, 10, 70, 0
11, 63840, Note_on_c, 10, 68, 85
11, 63870, Note_on_c, 10, 68, 0
11, 63870, Note_on_c, 10, 70, 98
11, 63900, Note_on_c, 10, 70, 0
11, 63900, Note_on_c, 10, 72, 76
11, 63930, Note_on_c, 10, 72, 0
11, 63930, Note_on_c, 10, 70, 95
11, 63960, Note_on_c, 10, 70, 0
11, 63960, Note_on_c, 10, 68, 95
11, 63990, Note_on_c, 10, 68, 0
11, 63990, Note_on_c, 10, 67, 94
11, 64020, Note_on_c, 10, 67, 0
11, 64020, Note_on_c, 10, 65, 99
11, 64050, Note_on_c, 10, 65, 0
11, 64050, Note_on_c, 10, 63, 93
11, 64080, Note_on_c, 10, 63, 0
11, 64080, Note_on_c, 10, 62, 94
11, 64110, Note_on_c, 10, 62, 0
11, 64110, Note_on_c, 10, 65, 98
11, 64140, Note_on_c, 10, 65, 0
11, 64140, Note_on_c, 10, 68, 82
11, 64170, Note_on_c, 10, 68, 0
11, 64170, Note_on_c, 10, 67, 99
11, 64200, Note_on_c, 10, 67, 0
11, 64200, Note_on_c, 10, 65, 94
11, 64230, Note_on_c, 10, 65, 0
11, 64230, Note_on_c, 10, 63, 84
11, 64260, Note_on_c, 10, 63, 0
11, 64260, Note_on_c, 10, 62, 94
11, 64290, Note_on_c, 10, 62, 0
11, 64290, Note_on_c, 10, 60, 95
11, 64320, Note_on_c, 10, 60, 0
11, 64320, Note_on_c, 10, 59, 107
11, 64350, Note_on_c, 10, 59, 0
11, 64350, Note_on_c, 10, 67, 95
11, 64380, Note_on_c, 10, 67, 0
11, 64380, Note_on_c, 10, 67, 93
11, 64410, Note_on_c, 10, 67, 0
11, 64410, Note_on_c, 10, 67, 98
11, 64440, Note_on_c, 10, 67, 0
11, 64440, Note_on_c, 10, 67, 99
11, 64470, Note_on_c, 10, 67, 0
11, 64470, Note_on_c, 10, 74, 99
11, 64500, Note_on_c, 10, 74, 0
11, 64500, Note_on_c, 10, 71, 105
11, 64530, Note_on_c, 10, 71, 0
11, 64530, Note_on_c, 10, 67, 105
11, 64560, Note_on_c, 10, 67, 0
11, 64560, Note_on_c, 10, 66, 104
11, 64590, Note_on_c, 10, 66, 0
11, 64590, Note_on_c, 10, 75, 104
11, 64620, Note_on_c, 10, 75, 0
11, 64620, Note_on_c, 10, 75, 99
11, 64650, Note_on_c, 10, 75, 0
11, 64650, Note_on_c, 10, 75, 93
11, 64680, Note_on_c, 10, 75, 0
11, 64680, Note_on_c, 10, 75, 89
11, 64710, Note_on_c, 10, 75, 0
11, 64710, Note_on_c, 10, 72, 99
11, 64740, Note_on_c, 10, 72, 0
11, 64740, Note_on_c, 10, 69, 105
11, 64770, Note_on_c, 10, 69, 0
11, 64770, Note_on_c, 10, 66, 104
11, 64800, Note_on_c, 10, 66, 0
11, 64800, Note_on_c, 10, 67, 95
11, 64830, Note_on_c, 10, 67, 0
11, 64830, Note_on_c, 10, 79, 93
11, 64860, Note_on_c, 10, 79, 0
11, 64860, Note_on_c, 10, 79, 89
11, 64890, Note_on_c, 10, 79, 0
11, 64890, Note_on_c, 10, 79, 89
11, 64920, Note_on_c, 10, 79, 0
11, 64920, Note_on_c, 10, 79, 84
11, 64950, Note_on_c, 10, 79, 0
11, 64950, Note_on_c, 10, 74, 101
11, 64980, Note_on_c, 10, 74, 0
11, 64980, Note_on_c, 10, 71, 104
11, 65010, Note_on_c, 10, 71, 0
11, 65010, Note_on_c, 10, 67, 98
11, 65040, Note_on_c, 10, 67, 0
11, 65040, Note_on_c, 10, 66, 104
11, 65070, Note_on_c, 10, 66, 0
11, 65070, Note_on_c, 10, 75, 101
11, 65100, Note_on_c, 10, 75, 0
11, 65100, Note_on_c, 10, 75, 112
11, 65130, Note_on_c, 10, 75, 0
11, 65130, Note_on_c, 10, 75, 98
11, 65160, Note_on_c, 10, 75, 0
11, 65160, Note_on_c, 10, 75, 94
11, 65190, Note_on_c, 10, 75, 0
11, 65190, Note_on_c, 10, 72, 99
11, 65220, Note_on_c, 10, 72, 0
11, 65220, Note_on_c, 10, 69, 105
11, 65250, Note_on_c, 10, 69, 0
11, 65250, Note_on_c, 10, 66, 104
11, 65280, Note_on_c, 10, 66, 0
11, 65280, Note_on_c, 10, 67, 89
11, 65340, Note_on_c, 10, 67, 0
11, 65340, Note_on_c, 10, 67, 52
11, 65400, Note_on_c, 10, 67, 0
11, 65400, Note_on_c, 10, 67, 73
11, 65460, Note_on_c, 10, 67, 0
11, 65460, Note_on_c, 10, 67, 56
11, 65520, Note_on_c, 10, 67, 0
11, 65520, Note_on_c, 10, 67, 57
11, 65580, Note_on_c, 10, 67, 0
11, 65580, Note_on_c, 10, 67, 64
11, 65640, Note_on_c, 10, 67, 0
11, 65640, Note_on_c, 10, 67, 57
11, 65700, Note_on_c, 10, 67, 0
11, 65700, Note_on_c, 10, 67, 67
11, 65760, Note_on_c, 10, 67, 0
11, 65760, Note_on_c, 10, 68, 101
11, 65820, Note_on_c, 10, 68, 0
11, 65820, Note_on_c, 10, 68, 65
11, 65880, Note_on_c, 10, 68, 0
11, 65880, Note_on_c, 10, 68, 72
11, 65940, Note_on_c, 10, 68, 0
11, 65940, Note_on_c, 10, 68, 62
11, 66000, Note_on_c, 10, 68, 0
11, 66000, Note_on_c, 10, 68, 53
11, 66060, Note_on_c, 10, 68, 0
11, 66060, Note_on_c, 10, 68, 68
11, 66120, Note_on_c, 10, 68, 0
11, 66120, Note_on_c, 10, 68, 72
11, 66180, Note_on_c, 10, 68, 0
11, 66180, Note_on_c, 10, 68, 66
11, 66240, Note_on_c, 10, 68, 0
11, 66240, Note_on_c, 10, 68, 64
11, 66300, Note_on_c, 10, 68, 0
11, 68160, Note_on_c, 10, 66, 29
11, 68400, Note_on_c, 10, 66, 0
11, 68400, Note_on_c, 10, 64, 29
11, 68640, Note_on_c, 10, 64, 0
11, 68640, Note_on_c, 10, 57, 32
11, 68880, Note_on_c, 10, 57, 0
11, 68880, Note_on_c, 10, 56, 29
11, 69000, Note_on_c, 10, 56, 0
11, 69000, Note_on_c, 10, 64, 38
11, 69120, Note_on_c, 10, 64, 0
11, 69120, Note_on_c, 10, 66, 29
11, 69360, Note_on_c, 10, 66, 0
11, 69360, Note_on_c, 10, 64, 40
11, 69600, Note_on_c, 10, 64, 0
11, 69600, Note_on_c, 10, 63, 29
11, 69840, Note_on_c, 10, 63, 0
11, 69840, Note_on_c, 10, 59, 32
11, 70080, Note_on_c, 10, 59, 0
11, 70080, Note_on_c, 10, 63, 35
11, 70320, Note_on_c, 10, 63, 0
11, 70320, Note_on_c, 10, 59, 40
11, 70380, Note_on_c, 10, 59, 0
11, 70800, Note_on_c, 10, 76, 29
11, 70860, Note_on_c, 10, 76, 0
11, 70860, Note_on_c, 10, 76, 42
11, 70920, Note_on_c, 10, 76, 0
11, 70920, Note_on_c, 10, 76, 39
11, 70980, Note_on_c, 10, 76, 0
11, 70980, Note_on_c, 10, 76, 31
11, 71040, Note_on_c, 10, 76, 0
11, 71040, Note_on_c, 10, 76, 37
11, 71100, Note_on_c, 10, 76, 0
11, 71100, Note_on_c, 10, 76, 37
11, 71160, Note_on_c, 10, 76, 0
11, 71160, Note_on_c, 10, 76, 38
11, 71220, Note_on_c, 10, 76, 0
11, 71220, Note_on_c, 10, 76, 38
11, 71280, Note_on_c, 10, 76, 0
11, 71280, Note_on_c, 10, 74, 29
11, 71340, Note_on_c, 10, 74, 0
11, 71340, Note_on_c, 10, 74, 35
11, 71400, Note_on_c, 10, 74, 0
11, 71400, Note_on_c, 10, 74, 39
11, 71460, Note_on_c, 10, 74, 0
11, 71460, Note_on_c, 10, 74, 42
11, 71520, Note_on_c, 10, 74, 0
11, 71520, Note_on_c, 10, 74, 41
11, 71580, Note_on_c, 10, 74, 0
11, 71580, Note_on_c, 10, 74, 40
11, 71640, Note_on_c, 10, 74, 0
11, 71640, Note_on_c, 10, 74, 41
11, 71700, Note_on_c, 10, 74, 0
11, 71700, Note_on_c, 10, 74, 39
11, 71760, Note_on_c, 10, 74, 0
11, 71760, Note_on_c, 10, 74, 40
11, 71820, Note_on_c, 10, 74, 0
11, 71820, Note_on_c, 10, 74, 40
11, 71880, Note_on_c, 10, 74, 0
11, 71880, Note_on_c, 10, 74, 40
11, 71940, Note_on_c, 10, 74, 0
11, 71940, Note_on_c, 10, 74, 40
11, 72000, Note_on_c, 10, 74, 0
11, 72000, Note_on_c, 10, 74, 39
11, 72060, Note_on_c, 10, 74, 0
11, 72060, Note_on_c, 10, 74, 38
11, 72120, Note_on_c, 10, 74, 0
11, 72120, Note_on_c, 10, 74, 39
11, 72180, Note_on_c, 10, 74, 0
11, 72180, Note_on_c, 10, 74, 38
11, 72240, Note_on_c, 10, 74, 0
11, 72240, Note_on_c, 10, 74, 39
11, 72300, Note_on_c, 10, 74, 0
11, 72300, Note_on_c, 10, 74, 38
11, 72360, Note_on_c, 10, 74, 0
11, 72360, Note_on_c, 10, 74, 38
11, 72420, Note_on_c, 10, 74, 0
11, 72420, Note_on_c, 10, 74, 40
11, 72480, Note_on_c, 10, 74, 0
11, 72480, Note_on_c, 10, 74, 40
11, 72540, Note_on_c, 10, 74, 0
11, 72540, Note_on_c, 10, 74, 40
11, 72600, Note_on_c, 10, 74, 0
11, 72600, Note_on_c, 10, 74, 38
11, 72660, Note_on_c, 10, 74, 0
11, 72660, Note_on_c, 10, 74, 40
11, 72720, Note_on_c, 10, 74, 0
11, 72720, Note_on_c, 10, 74, 40
11, 72780, Note_on_c, 10, 74, 0
11, 72780, Note_on_c, 10, 74, 40
11, 72840, Note_on_c, 10, 74, 0
11, 72840, Note_on_c, 10, 74, 41
11, 72900, Note_on_c, 10, 74, 0
11, 72900, Note_on_c, 10, 74, 40
11, 72960, Note_on_c, 10, 74, 0
11, 72960, Note_on_c, 10, 74, 41
11, 73020, Note_on_c, 10, 74, 0
11, 73020, Note_on_c, 10, 74, 40
11, 73080, Note_on_c, 10, 74, 0
11, 73080, Note_on_c, 10, 74, 40
11, 73140, Note_on_c, 10, 74, 0
11, 73140, Note_on_c, 10, 74, 40
11, 73200, Note_on_c, 10, 74, 0
11, 73200, Note_on_c, 10, 74, 40
11, 73260, Note_on_c, 10, 74, 0
11, 73260, Note_on_c, 10, 74, 40
11, 73320, Note_on_c, 10, 74, 0
11, 73320, Note_on_c, 10, 74, 42
11, 73380, Note_on_c, 10, 74, 0
11, 73380, Note_on_c, 10, 74, 42
11, 73440, Note_on_c, 10, 74, 0
11, 73440, Note_on_c, 10, 74, 40
11, 73500, Note_on_c, 10, 74, 0
11, 73500, Note_on_c, 10, 74, 37
11, 73560, Note_on_c, 10, 74, 0
11, 73560, Note_on_c, 10, 74, 41
11, 73620, Note_on_c, 10, 74, 0
11, 73620, Note_on_c, 10, 74, 40
11, 73680, Note_on_c, 10, 74, 0
11, 73680, Note_on_c, 10, 74, 39
11, 73740, Note_on_c, 10, 74, 0
11, 73740, Note_on_c, 10, 74, 40
11, 73800, Note_on_c, 10, 74, 0
11, 73800, Note_on_c, 10, 74, 40
11, 73860, Note_on_c, 10, 74, 0
11, 73860, Note_on_c, 10, 74, 42
11, 73920, Note_on_c, 10, 74, 0
11, 73920, Note_on_c, 10, 74, 35
11, 73980, Note_on_c, 10, 74, 0
11, 73980, Note_on_c, 10, 74, 41
11, 74040, Note_on_c, 10, 74, 0
11, 74040, Note_on_c, 10, 74, 43
11, 74100, Note_on_c, 10, 74, 0
11, 74100, Note_on_c, 10, 74, 40
11, 74160, Note_on_c, 10, 74, 0
11, 74160, Note_on_c, 10, 74, 40
11, 74220, Note_on_c, 10, 74, 0
11, 75960, Program_c, 10, 45
11, 76080, Note_on_c, 10, 62, 74
11, 76200, Note_on_c, 10, 62, 0
11, 76320, Note_on_c, 10, 63, 76
11, 76440, Note_on_c, 10, 63, 0
11, 76560, Note_on_c, 10, 62, 80
11, 76680, Note_on_c, 10, 62, 0
11, 76680, Note_on_c, 10, 63, 74
11, 76800, Note_on_c, 10, 63, 0
11, 76800, Note_on_c, 10, 62, 82
11, 76920, Note_on_c, 10, 62, 0
11, 77040, Note_on_c, 10, 62, 84
11, 77160, Note_on_c, 10, 62, 0
11, 77280, Note_on_c, 10, 63, 94
11, 77400, Note_on_c, 10, 63, 0
11, 77460, Note_on_c, 10, 63, 80
11, 77520, Note_on_c, 10, 63, 0
11, 77520, Note_on_c, 10, 58, 74
11, 77640, Note_on_c, 10, 58, 0
11, 77640, Note_on_c, 10, 60, 81
11, 77760, Note_on_c, 10, 60, 0
11, 77760, Note_on_c, 10, 58, 73
11, 77880, Note_on_c, 10, 58, 0
11, 77880, Program_c, 10, 48
11, 77940, Note_on_c, 10, 67, 84
11, 78000, Note_on_c, 10, 67, 0
11, 78000, Note_on_c, 10, 68, 84
11, 78060, Note_on_c, 10, 68, 0
11, 78060, Note_on_c, 10, 59, 104
11, 78120, Note_on_c, 10, 59, 0
11, 78120, Note_on_c, 10, 59, 104
11, 78150, Note_on_c, 10, 59, 0
11, 78180, Note_on_c, 10, 59, 105
11, 78210, Note_on_c, 10, 59, 0
11, 78240, Note_on_c, 10, 60, 93
11, 78360, Note_on_c, 10, 60, 0
11, 78360, Note_on_c, 10, 62, 94
11, 78390, Note_on_c, 10, 62, 0
11, 78390, Note_on_c, 10, 60, 89
11, 78420, Note_on_c, 10, 60, 0
11, 78420, Note_on_c, 10, 59, 90
11, 78450, Note_on_c, 10, 59, 0
11, 78450, Note_on_c, 10, 60, 93
11, 78480, Note_on_c, 10, 60, 0
11, 78480, Note_on_c, 10, 62, 101
11, 78510, Note_on_c, 10, 62, 0
11, 78540, Note_on_c, 10, 62, 105
11, 78570, Note_on_c, 10, 62, 0
11, 78600, Note_on_c, 10, 63, 99
11, 78630, Note_on_c, 10, 63, 0
11, 78660, Note_on_c, 10, 63, 104
11, 78690, Note_on_c, 10, 63, 0
11, 78720, Note_on_c, 10, 62, 104
11, 78810, Note_on_c, 10, 62, 0
11, 78810, Note_on_c, 10, 63, 94
11, 78840, Note_on_c, 10, 63, 0
11, 78840, Note_on_c, 10, 64, 104
11, 78870, Note_on_c, 10, 64, 0
11, 78870, Note_on_c, 10, 65, 94
11, 78900, Note_on_c, 10, 65, 0
11, 78900, Note_on_c, 10, 66, 86
11, 78930, Note_on_c, 10, 66, 0
11, 78930, Note_on_c, 10, 67, 95
11, 78960, Note_on_c, 10, 67, 0
11, 78960, Note_on_c, 10, 68, 93
11, 79020, Note_on_c, 10, 68, 0
11, 79020, Note_on_c, 10, 59, 99
11, 79080, Note_on_c, 10, 59, 0
11, 79080, Note_on_c, 10, 59, 99
11, 79110, Note_on_c, 10, 59, 0
11, 79140, Note_on_c, 10, 59, 99
11, 79170, Note_on_c, 10, 59, 0
11, 79200, Note_on_c, 10, 60, 86
11, 79320, Note_on_c, 10, 60, 0
11, 79320, Note_on_c, 10, 62, 99
11, 79350, Note_on_c, 10, 62, 0
11, 79350, Note_on_c, 10, 60, 90
11, 79380, Note_on_c, 10, 60, 0
11, 79380, Note_on_c, 10, 59, 93
11, 79410, Note_on_c, 10, 59, 0
11, 79410, Note_on_c, 10, 60, 95
11, 79440, Note_on_c, 10, 60, 0
11, 79440, Note_on_c, 10, 60, 94
11, 79470, Note_on_c, 10, 60, 0
11, 79470, Note_on_c, 10, 72, 64
11, 79500, Note_on_c, 10, 72, 0
11, 79500, Note_on_c, 10, 72, 69
11, 79530, Note_on_c, 10, 72, 0
11, 79530, Note_on_c, 10, 72, 80
11, 79560, Note_on_c, 10, 72, 0
11, 79560, Note_on_c, 10, 71, 74
11, 79590, Note_on_c, 10, 71, 0
11, 79590, Note_on_c, 10, 59, 93
11, 79620, Note_on_c, 10, 59, 0
11, 79620, Note_on_c, 10, 59, 98
11, 79650, Note_on_c, 10, 59, 0
11, 79650, Note_on_c, 10, 59, 95
11, 79680, Note_on_c, 10, 59, 0
11, 79680, Note_on_c, 10, 60, 99
11, 79710, Note_on_c, 10, 60, 0
11, 79710, Note_on_c, 10, 72, 94
11, 79740, Note_on_c, 10, 72, 0
11, 79740, Note_on_c, 10, 72, 89
11, 79770, Note_on_c, 10, 72, 0
11, 79770, Note_on_c, 10, 72, 86
11, 79800, Note_on_c, 10, 72, 0
11, 79800, Note_on_c, 10, 72, 81
11, 79830, Note_on_c, 10, 72, 0
11, 79830, Note_on_c, 10, 72, 80
11, 79860, Note_on_c, 10, 72, 0
11, 79860, Note_on_c, 10, 71, 99
11, 79890, Note_on_c, 10, 71, 0
11, 79890, Note_on_c, 10, 72, 82
11, 79920, Note_on_c, 10, 72, 0
11, 79920, Note_on_c, 10, 74, 82
11, 79950, Note_on_c, 10, 74, 0
11, 79980, Note_on_c, 10, 62, 99
11, 80010, Note_on_c, 10, 62, 0
11, 80040, Note_on_c, 10, 59, 99
11, 80070, Note_on_c, 10, 59, 0
11, 80100, Note_on_c, 10, 59, 95
11, 80130, Note_on_c, 10, 59, 0
11, 80160, Note_on_c, 10, 63, 93
11, 80190, Note_on_c, 10, 63, 0
11, 80190, Note_on_c, 10, 72, 76
11, 80220, Note_on_c, 10, 72, 0
11, 80220, Note_on_c, 10, 72, 85
11, 80250, Note_on_c, 10, 72, 0
11, 80250, Note_on_c, 10, 72, 89
11, 80280, Note_on_c, 10, 72, 0
11, 80280, Note_on_c, 10, 74, 98
11, 80310, Note_on_c, 10, 74, 0
11, 80310, Note_on_c, 10, 72, 90
11, 80340, Note_on_c, 10, 72, 0
11, 80340, Note_on_c, 10, 71, 95
11, 80370, Note_on_c, 10, 71, 0
11, 80370, Note_on_c, 10, 72, 86
11, 80400, Note_on_c, 10, 72, 0
11, 80400, Note_on_c, 10, 74, 104
11, 80430, Note_on_c, 10, 74, 0
11, 80460, Note_on_c, 10, 74, 104
11, 80490, Note_on_c, 10, 74, 0
11, 80520, Note_on_c, 10, 71, 99
11, 80550, Note_on_c, 10, 71, 0
11, 80580, Note_on_c, 10, 71, 99
11, 80610, Note_on_c, 10, 71, 0
11, 80640, Note_on_c, 10, 72, 89
11, 80700, Note_on_c, 10, 72, 0
11, 80760, Note_on_c, 10, 67, 98
11, 80820, Note_on_c, 10, 67, 0
11, 80880, Note_on_c, 10, 60, 98
11, 80940, Note_on_c, 10, 60, 0
11, 84060, Note_on_c, 10, 64, 54
11, 84120, Note_on_c, 10, 64, 0
11, 84120, Note_on_c, 10, 64, 62
11, 84180, Note_on_c, 10, 64, 0
11, 84180, Note_on_c, 10, 64, 70
11, 84240, Note_on_c, 10, 64, 0
11, 84300, Note_on_c, 10, 65, 53
11, 84360, Note_on_c, 10, 65, 0
11, 84360, Note_on_c, 10, 65, 67
11, 84420, Note_on_c, 10, 65, 0
11, 84420, Note_on_c, 10, 65, 72
11, 84480, Note_on_c, 10, 65, 0
11, 84540, Note_on_c, 10, 64, 60
11, 84600, Note_on_c, 10, 64, 0
11, 84600, Note_on_c, 10, 60, 58
11, 84660, Note_on_c, 10, 60, 0
11, 84660, Note_on_c, 10, 60, 62
11, 84720, Note_on_c, 10, 60, 0
11, 84780, Note_on_c, 10, 59, 50
11, 84840, Note_on_c, 10, 59, 0
11, 84840, Note_on_c, 10, 59, 63
11, 84900, Note_on_c, 10, 59, 0
11, 84900, Note_on_c, 10, 59, 72
11, 84960, Note_on_c, 10, 59, 0
11, 85020, Note_on_c, 10, 60, 62
11, 85080, Note_on_c, 10, 60, 0
11, 85080, Note_on_c, 10, 60, 65
11, 85140, Note_on_c, 10, 60, 0
11, 85140, Note_on_c, 10, 60, 68
11, 85200, Note_on_c, 10, 60, 0
11, 85260, Note_on_c, 10, 60, 61
11, 85320, Note_on_c, 10, 60, 0
11, 85320, Note_on_c, 10, 60, 62
11, 85380, Note_on_c, 10, 60, 0
11, 85380, Note_on_c, 10, 60, 74
11, 85440, Note_on_c, 10, 60, 0
11, 85500, Note_on_c, 10, 60, 64
11, 85560, Note_on_c, 10, 60, 0
11, 85560, Note_on_c, 10, 60, 65
11, 85620, Note_on_c, 10, 60, 0
11, 85620, Note_on_c, 10, 60, 71
11, 85680, Note_on_c, 10, 60, 0
11, 85680, Note_on_c, 10, 59, 66
11, 85800, Note_on_c, 10, 59, 0
11, 85920, Note_on_c, 10, 64, 69
11, 85935, Note_on_c, 10, 64, 0
11, 85950, Note_on_c, 10, 72, 57
11, 85965, Note_on_c, 10, 72, 0
11, 85980, Note_on_c, 10, 67, 43
11, 85995, Note_on_c, 10, 67, 0
11, 86010, Note_on_c, 10, 72, 59
11, 86025, Note_on_c, 10, 72, 0
11, 86040, Note_on_c, 10, 64, 72
11, 86055, Note_on_c, 10, 64, 0
11, 86070, Note_on_c, 10, 72, 55
11, 86085, Note_on_c, 10, 72, 0
11, 86100, Note_on_c, 10, 67, 62
11, 86115, Note_on_c, 10, 67, 0
11, 86130, Note_on_c, 10, 72, 61
11, 86145, Note_on_c, 10, 72, 0
11, 86160, Note_on_c, 10, 65, 72
11, 86175, Note_on_c, 10, 65, 0
11, 86190, Note_on_c, 10, 71, 65
11, 86205, Note_on_c, 10, 71, 0
11, 86220, Note_on_c, 10, 67, 73
11, 86235, Note_on_c, 10, 67, 0
11, 86250, Note_on_c, 10, 71, 65
11, 86265, Note_on_c, 10, 71, 0
11, 86280, Note_on_c, 10, 65, 59
11, 86295, Note_on_c, 10, 65, 0
11, 86310, Note_on_c, 10, 71, 68
11, 86325, Note_on_c, 10, 71, 0
11, 86340, Note_on_c, 10, 67, 55
11, 86355, Note_on_c, 10, 67, 0
11, 86370, Note_on_c, 10, 65, 67
11, 86385, Note_on_c, 10, 65, 0
11, 86400, Note_on_c, 10, 64, 80
11, 86415, Note_on_c, 10, 64, 0
11, 86430, Note_on_c, 10, 72, 56
11, 86445, Note_on_c, 10, 72, 0
11, 86460, Note_on_c, 10, 69, 77
11, 86475, Note_on_c, 10, 69, 0
11, 86490, Note_on_c, 10, 72, 62
11, 86505, Note_on_c, 10, 72, 0
11, 86520, Note_on_c, 10, 64, 68
11, 86535, Note_on_c, 10, 64, 0
11, 86550, Note_on_c, 10, 72, 53
11, 86565, Note_on_c, 10, 72, 0
11, 86580, Note_on_c, 10, 69, 89
11, 86595, Note_on_c, 10, 69, 0
11, 86610, Note_on_c, 10, 72, 58
11, 86625, Note_on_c, 10, 72, 0
11, 86640, Note_on_c, 10, 65, 104
11, 86655, Note_on_c, 10, 65, 0
11, 86670, Note_on_c, 10, 69, 71
11, 86685, Note_on_c, 10, 69, 0
11, 86700, Note_on_c, 10, 74, 45
11, 86715, Note_on_c, 10, 74, 0
11, 86730, Note_on_c, 10, 73, 59
11, 86745, Note_on_c, 10, 73, 0
11, 86760, Note_on_c, 10, 74, 66
11, 86775, Note_on_c, 10, 74, 0
11, 86790, Note_on_c, 10, 72, 44
11, 86805, Note_on_c, 10, 72, 0
11, 86820, Note_on_c, 10, 71, 68
11, 86835, Note_on_c, 10, 71, 0
11, 86850, Note_on_c, 10, 69, 80
11, 86865, Note_on_c, 10, 69, 0
11, 86880, Note_on_c, 10, 68, 63
11, 86895, Note_on_c, 10, 68, 0
11, 86910, Note_on_c, 10, 71, 43
11, 86925, Note_on_c, 10, 71, 0
11, 86940, Note_on_c, 10, 68, 68
11, 86955, Note_on_c, 10, 68, 0
11, 86970, Note_on_c, 10, 71, 66
11, 86985, Note_on_c, 10, 71, 0
11, 87000, Note_on_c, 10, 67, 64
11, 87015, Note_on_c, 10, 67, 0
11, 87030, Note_on_c, 10, 73, 58
11, 87045, Note_on_c, 10, 73, 0
11, 87060, Note_on_c, 10, 67, 68
11, 87075, Note_on_c, 10, 67, 0
11, 87090, Note_on_c, 10, 73, 62
11, 87105, Note_on_c, 10, 73, 0
11, 87120, Note_on_c, 10, 69, 119
11, 87135, Note_on_c, 10, 69, 0
11, 87150, Note_on_c, 10, 74, 59
11, 87165, Note_on_c, 10, 74, 0
11, 87180, Note_on_c, 10, 77, 58
11, 87195, Note_on_c, 10, 77, 0
11, 87210, Note_on_c, 10, 81, 53
11, 87225, Note_on_c, 10, 81, 0
11, 87240, Note_on_c, 10, 77, 72
11, 87255, Note_on_c, 10, 77, 0
11, 87270, Note_on_c, 10, 74, 61
11, 87285, Note_on_c, 10, 74, 0
11, 87300, Note_on_c, 10, 69, 67
11, 87315, Note_on_c, 10, 69, 0
11, 87330, Note_on_c, 10, 65, 53
11, 87345, Note_on_c, 10, 65, 0
11, 87360, Note_on_c, 10, 64, 73
11, 87375, Note_on_c, 10, 64, 0
11, 87390, Note_on_c, 10, 67, 59
11, 87405, Note_on_c, 10, 67, 0
11, 87420, Note_on_c, 10, 64, 50
11, 87435, Note_on_c, 10, 64, 0
11, 87450, Note_on_c, 10, 67, 58
11, 87465, Note_on_c, 10, 67, 0
11, 87480, Note_on_c, 10, 65, 62
11, 87495, Note_on_c, 10, 65, 0
11, 87510, Note_on_c, 10, 67, 62
11, 87525, Note_on_c, 10, 67, 0
11, 87540, Note_on_c, 10, 65, 63
11, 87555, Note_on_c, 10, 65, 0
11, 87570, Note_on_c, 10, 67, 67
11, 87585, Note_on_c, 10, 67, 0
11, 87600, Note_on_c, 10, 64, 65
11, 87660, Note_on_c, 10, 64, 0
11, 88740, Note_on_c, 10, 72, 73
11, 88800, Note_on_c, 10, 72, 0
11, 88800, Note_on_c, 10, 60, 78
11, 88860, Note_on_c, 10, 60, 0
11, 88980, Note_on_c, 10, 72, 71
11, 89040, Note_on_c, 10, 72, 0
11, 89040, Note_on_c, 10, 60, 76
11, 89100, Note_on_c, 10, 60, 0
11, 89220, Note_on_c, 10, 72, 81
11, 89280, Note_on_c, 10, 72, 0
11, 89280, Note_on_c, 10, 60, 68
11, 89340, Note_on_c, 10, 60, 0
11, 89340, Note_on_c, 10, 65, 84
11, 89370, Note_on_c, 10, 65, 0
11, 89400, Note_on_c, 10, 64, 77
11, 89430, Note_on_c, 10, 64, 0
11, 89460, Note_on_c, 10, 62, 74
11, 89490, Note_on_c, 10, 62, 0
11, 89520, Note_on_c, 10, 60, 74
11, 89580, Note_on_c, 10, 60, 0
11, 89640, Note_on_c, 10, 69, 73
11, 89700, Note_on_c, 10, 69, 0
11, 89760, Note_on_c, 10, 65, 73
11, 89820, Note_on_c, 10, 65, 0
11, 89880, Note_on_c, 10, 62, 68
11, 89940, Note_on_c, 10, 62, 0
11, 90000, Note_on_c, 10, 59, 72
11, 90060, Note_on_c, 10, 59, 0
11, 92880, Note_on_c, 10, 60, 65
11, 92940, Note_on_c, 10, 60, 0
11, 93360, Note_on_c, 10, 63, 58
11, 93420, Note_on_c, 10, 63, 0
11, 93840, Note_on_c, 10, 63, 39
11, 93900, Note_on_c, 10, 63, 0
11, 94800, Note_on_c, 10, 63, 32
11, 95040, Note_on_c, 10, 63, 0
11, 95040, Note_on_c, 10, 61, 40
11, 95280, Note_on_c, 10, 61, 0
11, 95280, Note_on_c, 10, 60, 43
11, 95520, Note_on_c, 10, 60, 0
11, 95520, Note_on_c, 10, 61, 41
11, 95700, Note_on_c, 10, 61, 0
11, 95820, Note_on_c, 10, 66, 52
11, 95820, Note_on_c, 10, 56, 57
11, 95880, Note_on_c, 10, 56, 0
11, 95880, Note_on_c, 10, 66, 0
11, 95880, Note_on_c, 10, 66, 60
11, 95880, Note_on_c, 10, 56, 62
11, 95940, Note_on_c, 10, 56, 0
11, 95940, Note_on_c, 10, 66, 0
11, 95940, Note_on_c, 10, 66, 64
11, 95940, Note_on_c, 10, 56, 72
11, 96000, Note_on_c, 10, 56, 0
11, 96000, Note_on_c, 10, 66, 0
11, 96060, Note_on_c, 10, 56, 48
11, 96060, Note_on_c, 10, 65, 61
11, 96120, Note_on_c, 10, 65, 0
11, 96120, Note_on_c, 10, 56, 0
11, 96120, Note_on_c, 10, 65, 70
11, 96120, Note_on_c, 10, 56, 54
11, 96180, Note_on_c, 10, 56, 0
11, 96180, Note_on_c, 10, 65, 0
11, 96180, Note_on_c, 10, 65, 69
11, 96180, Note_on_c, 10, 56, 52
11, 96240, Note_on_c, 10, 56, 0
11, 96240, Note_on_c, 10, 65, 0
11, 96300, Note_on_c, 10, 68, 50
11, 96300, Note_on_c, 10, 58, 58
11, 96360, Note_on_c, 10, 58, 0
11, 96360, Note_on_c, 10, 68, 0
11, 96360, Note_on_c, 10, 58, 72
11, 96360, Note_on_c, 10, 68, 68
11, 96420, Note_on_c, 10, 68, 0
11, 96420, Note_on_c, 10, 58, 0
11, 96420, Note_on_c, 10, 58, 80
11, 96420, Note_on_c, 10, 68, 72
11, 96480, Note_on_c, 10, 68, 0
11, 96480, Note_on_c, 10, 58, 0
11, 96540, Note_on_c, 10, 66, 59
11, 96540, Note_on_c, 10, 58, 62
11, 96600, Note_on_c, 10, 58, 0
11, 96600, Note_on_c, 10, 66, 0
11, 96600, Note_on_c, 10, 66, 62
11, 96600, Note_on_c, 10, 58, 64
11, 96660, Note_on_c, 10, 58, 0
11, 96660, Note_on_c, 10, 66, 0
11, 96660, Note_on_c, 10, 66, 63
11, 96660, Note_on_c, 10, 58, 72
11, 96720, Note_on_c, 10, 58, 0
11, 96720, Note_on_c, 10, 66, 0
11, 96780, Note_on_c, 10, 70, 54
11, 96840, Note_on_c, 10, 70, 0
11, 96840, Note_on_c, 10, 64, 78
11, 96900, Note_on_c, 10, 64, 0
11, 96900, Note_on_c, 10, 64, 81
11, 96960, Note_on_c, 10, 64, 0
11, 97020, Note_on_c, 10, 65, 71
11, 97080, Note_on_c, 10, 65, 0
11, 97080, Note_on_c, 10, 65, 64
11, 97140, Note_on_c, 10, 65, 0
11, 97140, Note_on_c, 10, 65, 72
11, 97200, Note_on_c, 10, 65, 0
11, 97260, Note_on_c, 10, 66, 63
11, 97320, Note_on_c, 10, 66, 0
11, 97320, Note_on_c, 10, 66, 64
11, 97380, Note_on_c, 10, 66, 0
11, 97380, Note_on_c, 10, 66, 76
11, 97440, Note_on_c, 10, 66, 0
11, 97440, Note_on_c, 10, 67, 65
11, 97560, Note_on_c, 10, 67, 0
11, 97560, Note_on_c, 10, 74, 68
11, 97680, Note_on_c, 10, 74, 0
11, 97800, Note_on_c, 10, 72, 59
11, 97920, Note_on_c, 10, 72, 0
11, 98040, Note_on_c, 10, 71, 57
11, 98160, Note_on_c, 10, 71, 0
11, 98280, Note_on_c, 10, 70, 76
11, 98400, Note_on_c, 10, 70, 0
11, 98400, Note_on_c, 10, 60, 71
11, 98430, Note_on_c, 10, 60, 0
11, 98430, Note_on_c, 10, 69, 69
11, 98460, Note_on_c, 10, 69, 0
11, 98460, Note_on_c, 10, 69, 85
11, 98490, Note_on_c, 10, 69, 0
11, 98490, Note_on_c, 10, 69, 84
11, 98520, Note_on_c, 10, 69, 0
11, 98520, Note_on_c, 10, 59, 84
11, 98550, Note_on_c, 10, 59, 0
11, 98550, Note_on_c, 10, 68, 84
11, 98580, Note_on_c, 10, 68, 0
11, 98580, Note_on_c, 10, 68, 81
11, 98610, Note_on_c, 10, 68, 0
11, 98610, Note_on_c, 10, 68, 81
11, 98640, Note_on_c, 10, 68, 0
11, 98640, Note_on_c, 10, 58, 93
11, 98670, Note_on_c, 10, 58, 0
11, 98670, Note_on_c, 10, 67, 86
11, 98700, Note_on_c, 10, 67, 0
11, 98700, Note_on_c, 10, 67, 81
11, 98730, Note_on_c, 10, 67, 0
11, 98730, Note_on_c, 10, 67, 89
11, 98760, Note_on_c, 10, 67, 0
11, 98760, Note_on_c, 10, 57, 105
11, 98790, Note_on_c, 10, 57, 0
11, 98790, Note_on_c, 10, 66, 98
11, 98820, Note_on_c, 10, 66, 0
11, 98820, Note_on_c, 10, 66, 84
11, 98850, Note_on_c, 10, 66, 0
11, 98850, Note_on_c, 10, 66, 80
11, 98880, Note_on_c, 10, 66, 0
11, 98880, Note_on_c, 10, 65, 95
11, 98940, Note_on_c, 10, 65, 0
11, 98940, Note_on_c, 10, 60, 90
11, 98970, Note_on_c, 10, 60, 0
11, 98970, Note_on_c, 10, 60, 86
11, 99000, Note_on_c, 10, 60, 0
11, 99000, Note_on_c, 10, 59, 95
11, 99030, Note_on_c, 10, 59, 0
11, 99030, Note_on_c, 10, 59, 98
11, 99060, Note_on_c, 10, 59, 0
11, 99060, Note_on_c, 10, 63, 89
11, 99090, Note_on_c, 10, 63, 0
11, 99090, Note_on_c, 10, 63, 94
11, 99120, Note_on_c, 10, 63, 0
11, 99120, Note_on_c, 10, 62, 94
11, 99150, Note_on_c, 10, 62, 0
11, 99150, Note_on_c, 10, 62, 94
11, 99180, Note_on_c, 10, 62, 0
11, 99180, Note_on_c, 10, 60, 90
11, 99210, Note_on_c, 10, 60, 0
11, 99210, Note_on_c, 10, 60, 93
11, 99240, Note_on_c, 10, 60, 0
11, 99240, Note_on_c, 10, 59, 95
11, 99270, Note_on_c, 10, 59, 0
11, 99270, Note_on_c, 10, 59, 99
11, 99300, Note_on_c, 10, 59, 0
11, 99300, Note_on_c, 10, 56, 95
11, 99330, Note_on_c, 10, 56, 0
11, 99330, Note_on_c, 10, 56, 94
11, 99360, Note_on_c, 10, 56, 0
11, 99360, Note_on_c, 10, 55, 94
11, 99390, Note_on_c, 10, 55, 0
11, 99390, Note_on_c, 10, 55, 94
11, 99420, Note_on_c, 10, 55, 0
11, 99420, Note_on_c, 10, 60, 90
11, 99450, Note_on_c, 10, 60, 0
11, 99450, Note_on_c, 10, 60, 94
11, 99480, Note_on_c, 10, 60, 0
11, 99480, Note_on_c, 10, 59, 99
11, 99510, Note_on_c, 10, 59, 0
11, 99510, Note_on_c, 10, 59, 95
11, 99540, Note_on_c, 10, 59, 0
11, 99540, Note_on_c, 10, 63, 94
11, 99570, Note_on_c, 10, 63, 0
11, 99570, Note_on_c, 10, 63, 89
11, 99600, Note_on_c, 10, 63, 0
11, 99600, Note_on_c, 10, 62, 95
11, 99630, Note_on_c, 10, 62, 0
11, 99630, Note_on_c, 10, 62, 95
11, 99660, Note_on_c, 10, 62, 0
11, 99660, Note_on_c, 10, 60, 94
11, 99690, Note_on_c, 10, 60, 0
11, 99690, Note_on_c, 10, 60, 94
11, 99720, Note_on_c, 10, 60, 0
11, 99720, Note_on_c, 10, 59, 99
11, 99750, Note_on_c, 10, 59, 0
11, 99750, Note_on_c, 10, 59, 99
11, 99780, Note_on_c, 10, 59, 0
11, 99780, Note_on_c, 10, 56, 94
11, 99810, Note_on_c, 10, 56, 0
11, 99810, Note_on_c, 10, 56, 101
11, 99840, Note_on_c, 10, 56, 0
11, 99840, Note_on_c, 10, 55, 105
11, 99870, Note_on_c, 10, 55, 0
11, 99870, Note_on_c, 10, 55, 105
11, 99900, Note_on_c, 10, 55, 0
11, 99900, Note_on_c, 10, 60, 104
11, 99930, Note_on_c, 10, 60, 0
11, 99930, Note_on_c, 10, 60, 107
11, 99960, Note_on_c, 10, 60, 0
11, 99960, Note_on_c, 10, 59, 99
11, 99990, Note_on_c, 10, 59, 0
11, 99990, Note_on_c, 10, 59, 110
11, 100020, Note_on_c, 10, 59, 0
11, 100020, Note_on_c, 10, 60, 99
11, 100050, Note_on_c, 10, 60, 0
11, 100050, Note_on_c, 10, 60, 105
11, 100080, Note_on_c, 10, 60, 0
11, 100080, Note_on_c, 10, 59, 112
11, 100110, Note_on_c, 10, 59, 0
11, 100110, Note_on_c, 10, 71, 101
11, 100140, Note_on_c, 10, 71, 0
11, 100140, Note_on_c, 10, 72, 94
11, 100170, Note_on_c, 10, 72, 0
11, 100170, Note_on_c, 10, 72, 93
11, 100200, Note_on_c, 10, 72, 0
11, 100200, Note_on_c, 10, 71, 105
11, 100230, Note_on_c, 10, 71, 0
11, 100230, Note_on_c, 10, 71, 107
11, 100260, Note_on_c, 10, 71, 0
11, 100260, Note_on_c, 10, 72, 104
11, 100290, Note_on_c, 10, 72, 0
11, 100290, Note_on_c, 10, 72, 105
11, 100320, Note_on_c, 10, 72, 0
11, 100320, Note_on_c, 10, 71, 112
11, 100350, Note_on_c, 10, 71, 0
11, 100350, Note_on_c, 10, 77, 101
11, 100380, Note_on_c, 10, 77, 0
11, 100380, Note_on_c, 10, 77, 101
11, 100410, Note_on_c, 10, 77, 0
11, 100410, Note_on_c, 10, 77, 98
11, 100440, Note_on_c, 10, 77, 0
11, 100440, Note_on_c, 10, 77, 99
11, 100470, Note_on_c, 10, 77, 0
11, 100470, Note_on_c, 10, 77, 99
11, 100500, Note_on_c, 10, 77, 0
11, 100500, Note_on_c, 10, 77, 98
11, 100530, Note_on_c, 10, 77, 0
11, 100530, Note_on_c, 10, 77, 98
11, 100560, Note_on_c, 10, 77, 0
11, 100560, Note_on_c, 10, 77, 99
11, 100590, Note_on_c, 10, 77, 0
11, 100590, Note_on_c, 10, 77, 99
11, 100620, Note_on_c, 10, 77, 0
11, 100620, Note_on_c, 10, 77, 99
11, 100650, Note_on_c, 10, 77, 0
11, 100650, Note_on_c, 10, 77, 101
11, 100680, Note_on_c, 10, 77, 0
11, 100680, Note_on_c, 10, 77, 99
11, 100710, Note_on_c, 10, 77, 0
11, 100710, Note_on_c, 10, 77, 99
11, 100740, Note_on_c, 10, 77, 0
11, 100740, Note_on_c, 10, 77, 101
11, 100770, Note_on_c, 10, 77, 0
11, 100770, Note_on_c, 10, 77, 98
11, 100800, Note_on_c, 10, 77, 0
11, 100800, Note_on_c, 10, 77, 99
11, 101040, Note_on_c, 10, 77, 0
11, 101040, Note_on_c, 10, 55, 93
11, 101040, Note_on_c, 10, 65, 84
11, 101040, Note_on_c, 10, 74, 94
11, 101160, Note_on_c, 10, 74, 0
11, 101160, Note_on_c, 10, 65, 0
11, 101160, Note_on_c, 10, 55, 0
11, 101160, Note_on_c, 10, 55, 86
11, 101160, Note_on_c, 10, 62, 89
11, 101160, Note_on_c, 10, 71, 95
11, 101280, Note_on_c, 10, 71, 0
11, 101280, Note_on_c, 10, 62, 0
11, 101280, Note_on_c, 10, 55, 0
11, 101280, Note_on_c, 10, 74, 119
11, 101520, Note_on_c, 10, 74, 0
11, 101520, Note_on_c, 10, 71, 104
11, 101520, Note_on_c, 10, 62, 93
11, 101520, Note_on_c, 10, 55, 101
11, 101760, Note_on_c, 10, 55, 0
11, 101760, Note_on_c, 10, 62, 0
11, 101760, Note_on_c, 10, 71, 0
11, 101760, Note_on_c, 10, 55, 99
11, 101760, Note_on_c, 10, 65, 104
11, 102360, Note_on_c, 10, 65, 0
11, 102360, Note_on_c, 10, 55, 0
11, 106560, Note_on_c, 10, 59, 62
11, 106680, Note_on_c, 10, 59, 0
11, 106920, Note_on_c, 10, 59, 59
11, 107040, Note_on_c, 10, 59, 0
11, 107160, Note_on_c, 10, 62, 52
11, 107220, Note_on_c, 10, 62, 0
11, 107220, Note_on_c, 10, 60, 62
11, 107280, Note_on_c, 10, 60, 0
11, 107280, Note_on_c, 10, 57, 64
11, 107400, Note_on_c, 10, 57, 0
11, 107460, Note_on_c, 10, 59, 51
11, 107580, Note_on_c, 10, 59, 0
11, 107640, Note_on_c, 10, 60, 44
11, 107700, Note_on_c, 10, 60, 0
11, 107760, Note_on_c, 10, 68, 65
11, 107820, Note_on_c, 10, 68, 0
11, 107820, Note_on_c, 10, 69, 62
11, 107850, Note_on_c, 10, 69, 0
11, 107880, Note_on_c, 10, 59, 62
11, 107910, Note_on_c, 10, 59, 0
11, 107940, Note_on_c, 10, 60, 64
11, 107970, Note_on_c, 10, 60, 0
11, 108000, Note_on_c, 10, 62, 46
11, 108060, Note_on_c, 10, 62, 0
11, 108120, Note_on_c, 10, 68, 52
11, 108180, Note_on_c, 10, 68, 0
11, 108180, Note_on_c, 10, 69, 53
11, 108210, Note_on_c, 10, 69, 0
11, 108240, Note_on_c, 10, 59, 58
11, 108270, Note_on_c, 10, 59, 0
11, 108300, Note_on_c, 10, 60, 61
11, 108330, Note_on_c, 10, 60, 0
11, 108360, Note_on_c, 10, 62, 62
11, 108420, Note_on_c, 10, 62, 0
11, 108480, Note_on_c, 10, 68, 66
11, 108540, Note_on_c, 10, 68, 0
11, 108540, Note_on_c, 10, 69, 53
11, 108570, Note_on_c, 10, 69, 0
11, 108600, Note_on_c, 10, 59, 65
11, 108630, Note_on_c, 10, 59, 0
11, 108660, Note_on_c, 10, 60, 56
11, 108690, Note_on_c, 10, 60, 0
11, 108720, Note_on_c, 10, 62, 68
11, 108750, Note_on_c, 10, 62, 0
11, 108780, Note_on_c, 10, 64, 65
11, 108810, Note_on_c, 10, 64, 0
11, 108840, Note_on_c, 10, 65, 55
11, 108870, Note_on_c, 10, 65, 0
11, 108900, Note_on_c, 10, 55, 64
11, 108930, Note_on_c, 10, 55, 0
11, 108960, Note_on_c, 10, 57, 77
11, 108990, Note_on_c, 10, 57, 0
11, 109020, Note_on_c, 10, 59, 73
11, 109050, Note_on_c, 10, 59, 0
11, 109080, Note_on_c, 10, 60, 86
11, 109200, Note_on_c, 10, 60, 0
11, 119160, Note_on_c, 10, 55, 82
11, 119160, Note_on_c, 10, 64, 80
11, 119220, Note_on_c, 10, 64, 0
11, 119220, Note_on_c, 10, 55, 0
11, 119220, Note_on_c, 10, 55, 104
11, 119220, Note_on_c, 10, 64, 104
11, 119280, Note_on_c, 10, 64, 0
11, 119280, Note_on_c, 10, 55, 0
11, 119280, Note_on_c, 10, 64, 71
11, 119280, Note_on_c, 10, 55, 64
11, 119340, Note_on_c, 10, 55, 0
11, 119340, Note_on_c, 10, 64, 0
11, 119340, Note_on_c, 10, 55, 71
11, 119340, Note_on_c, 10, 64, 68
11, 119400, Note_on_c, 10, 64, 0
11, 119400, Note_on_c, 10, 55, 0
11, 119400, Note_on_c, 10, 64, 69
11, 119400, Note_on_c, 10, 55, 62
11, 119460, Note_on_c, 10, 55, 0
11, 119460, Note_on_c, 10, 64, 0
11, 119460, Note_on_c, 10, 64, 69
11, 119460, Note_on_c, 10, 55, 73
11, 119520, Note_on_c, 10, 55, 0
11, 119520, Note_on_c, 10, 64, 0
11, 119520, Note_on_c, 10, 65, 66
11, 119520, Note_on_c, 10, 55, 68
11, 119580, Note_on_c, 10, 55, 0
11, 119580, Note_on_c, 10, 65, 0
11, 119580, Note_on_c, 10, 65, 73
11, 119580, Note_on_c, 10, 55, 74
11, 119640, Note_on_c, 10, 55, 0
11, 119640, Note_on_c, 10, 65, 0
11, 119640, Note_on_c, 10, 65, 68
11, 119640, Note_on_c, 10, 55, 74
11, 119700, Note_on_c, 10, 55, 0
11, 119700, Note_on_c, 10, 65, 0
11, 119700, Note_on_c, 10, 65, 71
11, 119700, Note_on_c, 10, 55, 71
11, 119760, Note_on_c, 10, 55, 0
11, 119760, Note_on_c, 10, 65, 0
11, 119760, Note_on_c, 10, 65, 59
11, 119760, Note_on_c, 10, 55, 66
11, 119820, Note_on_c, 10, 55, 0
11, 119820, Note_on_c, 10, 65, 0
11, 119820, Note_on_c, 10, 65, 59
11, 119820, Note_on_c, 10, 55, 58
11, 119880, Note_on_c, 10, 55, 0
11, 119880, Note_on_c, 10, 65, 0
11, 119880, Note_on_c, 10, 64, 43
11, 119880, Note_on_c, 10, 55, 43
11, 119940, Note_on_c, 10, 55, 0
11, 119940, Note_on_c, 10, 64, 0
11, 119940, Note_on_c, 10, 60, 47
11, 120000, Note_on_c, 10, 60, 0
11, 120000, Note_on_c, 10, 60, 43
11, 120060, Note_on_c, 10, 60, 0
11, 120120, Note_on_c, 10, 60, 43
11, 120180, Note_on_c, 10, 60, 0
11, 120180, Note_on_c, 10, 60, 53
11, 120240, Note_on_c, 10, 60, 0
11, 120300, Note_on_c, 10, 60, 50
11, 120360, Note_on_c, 10, 60, 0
11, 120360, Note_on_c, 10, 60, 62
11, 120420, Note_on_c, 10, 60, 0
11, 120480, Note_on_c, 10, 59, 64
11, 120540, Note_on_c, 10, 59, 0
11, 120540, Note_on_c, 10, 62, 51
11, 120600, Note_on_c, 10, 62, 0
11, 120600, Note_on_c, 10, 60, 84
11, 120660, Note_on_c, 10, 60, 0
11, 120660, Note_on_c, 10, 55, 98
11, 120660, Note_on_c, 10, 64, 95
11, 120720, Note_on_c, 10, 64, 0
11, 120720, Note_on_c, 10, 55, 0
11, 120720, Note_on_c, 10, 55, 61
11, 120720, Note_on_c, 10, 64, 65
11, 120780, Note_on_c, 10, 64, 0
11, 120780, Note_on_c, 10, 55, 0
11, 120780, Note_on_c, 10, 64, 65
11, 120780, Note_on_c, 10, 55, 55
11, 120840, Note_on_c, 10, 55, 0
11, 120840, Note_on_c, 10, 64, 0
11, 120840, Note_on_c, 10, 64, 51
11, 120840, Note_on_c, 10, 55, 45
11, 120900, Note_on_c, 10, 55, 0
11, 120900, Note_on_c, 10, 64, 0
11, 120900, Note_on_c, 10, 64, 61
11, 120900, Note_on_c, 10, 55, 61
11, 120960, Note_on_c, 10, 55, 0
11, 120960, Note_on_c, 10, 64, 0
11, 120960, Note_on_c, 10, 65, 62
11, 120960, Note_on_c, 10, 55, 46
11, 121020, Note_on_c, 10, 55, 0
11, 121020, Note_on_c, 10, 65, 0
11, 121020, Note_on_c, 10, 65, 49
11, 121020, Note_on_c, 10, 55, 49
11, 121080, Note_on_c, 10, 55, 0
11, 121080, Note_on_c, 10, 65, 0
11, 121080, Note_on_c, 10, 65, 51
11, 121080, Note_on_c, 10, 55, 51
11, 121140, Note_on_c, 10, 55, 0
11, 121140, Note_on_c, 10, 65, 0
11, 121140, Note_on_c, 10, 65, 60
11, 121140, Note_on_c, 10, 55, 64
11, 121200, Note_on_c, 10, 55, 0
11, 121200, Note_on_c, 10, 65, 0
11, 121200, Note_on_c, 10, 65, 66
11, 121200, Note_on_c, 10, 55, 68
11, 121260, Note_on_c, 10, 55, 0
11, 121260, Note_on_c, 10, 65, 0
11, 121260, Note_on_c, 10, 65, 68
11, 121260, Note_on_c, 10, 55, 70
11, 121320, Note_on_c, 10, 55, 0
11, 121320, Note_on_c, 10, 65, 0
11, 121320, Note_on_c, 10, 64, 61
11, 121380, Note_on_c, 10, 64, 0
11, 121380, Note_on_c, 10, 64, 68
11, 121440, Note_on_c, 10, 64, 0
11, 121440, Note_on_c, 10, 64, 77
11, 121500, Note_on_c, 10, 64, 0
11, 121560, Note_on_c, 10, 64, 64
11, 121620, Note_on_c, 10, 64, 0
11, 121620, Note_on_c, 10, 64, 76
11, 121680, Note_on_c, 10, 64, 0
11, 121740, Note_on_c, 10, 62, 68
11, 121800, Note_on_c, 10, 62, 0
11, 121800, Note_on_c, 10, 62, 73
11, 121860, Note_on_c, 10, 62, 0
11, 121920, Note_on_c, 10, 62, 65
11, 121980, Note_on_c, 10, 62, 0
11, 121980, Note_on_c, 10, 62, 67
11, 122040, Note_on_c, 10, 62, 0
11, 122100, Note_on_c, 10, 64, 58
11, 122160, Note_on_c, 10, 64, 0
11, 122160, Note_on_c, 10, 64, 76
11, 122220, Note_on_c, 10, 64, 0
11, 122280, Note_on_c, 10, 64, 68
11, 122340, Note_on_c, 10, 64, 0
11, 122340, Note_on_c, 10, 64, 78
11, 122400, Note_on_c, 10, 64, 0
11, 122460, Note_on_c, 10, 62, 68
11, 122520, Note_on_c, 10, 62, 0
11, 122520, Note_on_c, 10, 62, 72
11, 122580, Note_on_c, 10, 62, 0
11, 122640, Note_on_c, 10, 62, 69
11, 122700, Note_on_c, 10, 62, 0
11, 122700, Note_on_c, 10, 62, 69
11, 122760, Note_on_c, 10, 62, 0
11, 122760, Note_on_c, 10, 60, 58
11, 122880, Note_on_c, 10, 60, 0
11, 123840, Note_on_c, 10, 62, 45
11, 123840, Note_on_c, 10, 55, 60
11, 123840, Note_on_c, 10, 71, 70
11, 123960, Note_on_c, 10, 71, 0
11, 123960, Note_on_c, 10, 55, 0
11, 123960, Note_on_c, 10, 62, 0
11, 124200, Note_on_c, 10, 60, 98
11, 124260, Note_on_c, 10, 60, 0
11, 124260, Note_on_c, 10, 76, 99
11, 124290, Note_on_c, 10, 76, 0
11, 124290, Note_on_c, 10, 76, 99
11, 124320, Note_on_c, 10, 76, 0
11, 124320, Note_on_c, 10, 74, 104
11, 124350, Note_on_c, 10, 74, 0
11, 124350, Note_on_c, 10, 74, 110
11, 124380, Note_on_c, 10, 74, 0
11, 124380, Note_on_c, 10, 72, 95
11, 124410, Note_on_c, 10, 72, 0
11, 124410, Note_on_c, 10, 72, 99
11, 124440, Note_on_c, 10, 72, 0
11, 124440, Note_on_c, 10, 71, 99
11, 124470, Note_on_c, 10, 71, 0
11, 124470, Note_on_c, 10, 71, 99
11, 124500, Note_on_c, 10, 71, 0
11, 124500, Note_on_c, 10, 69, 104
11, 124530, Note_on_c, 10, 69, 0
11, 124530, Note_on_c, 10, 69, 105
11, 124560, Note_on_c, 10, 69, 0
11, 124560, Note_on_c, 10, 67, 99
11, 124590, Note_on_c, 10, 67, 0
11, 124590, Note_on_c, 10, 67, 105
11, 124620, Note_on_c, 10, 67, 0
11, 124620, Note_on_c, 10, 69, 105
11, 124650, Note_on_c, 10, 69, 0
11, 124650, Note_on_c, 10, 69, 105
11, 124680, Note_on_c, 10, 69, 0
11, 124680, Note_on_c, 10, 67, 99
11, 124710, Note_on_c, 10, 67, 0
11, 124710, Note_on_c, 10, 67, 101
11, 124740, Note_on_c, 10, 67, 0
11, 124740, Note_on_c, 10, 65, 105
11, 124770, Note_on_c, 10, 65, 0
11, 124770, Note_on_c, 10, 65, 99
11, 124800, Note_on_c, 10, 65, 0
11, 124800, Note_on_c, 10, 64, 105
11, 124830, Note_on_c, 10, 64, 0
11, 124830, Note_on_c, 10, 64, 105
11, 124860, Note_on_c, 10, 64, 0
11, 124860, Note_on_c, 10, 62, 99
11, 124890, Note_on_c, 10, 62, 0
11, 124890, Note_on_c, 10, 62, 104
11, 124920, Note_on_c, 10, 62, 0
11, 124920, Note_on_c, 10, 60, 99
11, 125040, Note_on_c, 10, 60, 0
11, 125100, Note_on_c, 10, 67, 89
11, 125100, Note_on_c, 10, 74, 80
11, 125100, Note_on_c, 10, 83, 90
11, 125220, Note_on_c, 10, 83, 0
11, 125220, Note_on_c, 10, 74, 0
11, 125220, Note_on_c, 10, 67, 0
11, 125280, Note_on_c, 10, 76, 86
11, 125280, Note_on_c, 10, 84, 94
11, 125280, Note_on_c, 10, 67, 99
11, 125400, Note_on_c, 10, 67, 0
11, 125400, Note_on_c, 10, 84, 0
11, 125400, Note_on_c, 10, 76, 0
11, 125460, Note_on_c, 10, 55, 93
11, 125460, Note_on_c, 10, 62, 84
11, 125460, Note_on_c, 10, 71, 89
11, 125580, Note_on_c, 10, 71, 0
11, 125580, Note_on_c, 10, 62, 0
11, 125580, Note_on_c, 10, 55, 0
11, 125640, Note_on_c, 10, 55, 94
11, 125640, Note_on_c, 10, 64, 93
11, 125640, Note_on_c, 10, 72, 84
11, 125760, Note_on_c, 10, 72, 0
11, 125760, Note_on_c, 10, 64, 0
11, 125760, Note_on_c, 10, 55, 0
11, 126000, Note_on_c, 10, 67, 90
11, 126000, Note_on_c, 10, 76, 93
11, 126000, Note_on_c, 10, 84, 90
11, 126120, Note_on_c, 10, 84, 0
11, 126120, Note_on_c, 10, 76, 0
11, 126120, Note_on_c, 10, 67, 0
11, 126360, Note_on_c, 10, 60, 117
11, 126480, Note_on_c, 10, 60, 0
11, 126480, End_track
12, 0, Start_track
12, 0, MIDI_port, 0
12, 0, Title_t, "Violas"
12, 0, Program_c, 11, 48
12, 0, Control_c, 11, 7, 100
12, 0, Control_c, 11, 10, 64
12, 0, Control_c, 11, 93, 0
12, 0, Control_c, 11, 91, 66
12, 2040, Program_c, 11, 45
12, 2160, Note_on_c, 11, 67, 74
12, 2220, Note_on_c, 11, 67, 0
12, 2400, Note_on_c, 11, 67, 69
12, 2460, Note_on_c, 11, 67, 0
12, 2640, Note_on_c, 11, 67, 77
12, 2760, Note_on_c, 11, 67, 0
12, 2760, Note_on_c, 11, 67, 74
12, 2880, Note_on_c, 11, 67, 0
12, 2880, Note_on_c, 11, 67, 80
12, 3000, Note_on_c, 11, 67, 0
12, 3120, Note_on_c, 11, 67, 78
12, 3240, Note_on_c, 11, 67, 0
12, 3350, Control_c, 11, 7, 84
12, 3360, Note_on_c, 11, 67, 90
12, 3480, Note_on_c, 11, 67, 0
12, 3540, Note_on_c, 11, 60, 90
12, 3600, Note_on_c, 11, 60, 0
12, 3600, Note_on_c, 11, 62, 89
12, 3720, Note_on_c, 11, 62, 0
12, 3720, Note_on_c, 11, 60, 89
12, 3840, Note_on_c, 11, 60, 0
12, 3840, Note_on_c, 11, 58, 93
12, 3960, Note_on_c, 11, 58, 0
12, 4800, Control_c, 11, 7, 99
12, 5040, Note_on_c, 11, 60, 82
12, 5100, Note_on_c, 11, 60, 0
12, 5160, Note_on_c, 11, 60, 78
12, 5220, Note_on_c, 11, 60, 0
12, 5280, Note_on_c, 11, 62, 74
12, 5340, Note_on_c, 11, 62, 0
12, 5520, Control_c, 11, 7, 99
12, 5520, Note_on_c, 11, 60, 81
12, 5545, Control_c, 11, 7, 98
12, 5565, Control_c, 11, 7, 97
12, 5580, Note_on_c, 11, 60, 0
12, 5585, Control_c, 11, 7, 96
12, 5610, Control_c, 11, 7, 95
12, 5630, Control_c, 11, 7, 94
12, 5640, Note_on_c, 11, 60, 80
12, 5650, Control_c, 11, 7, 93
12, 5675, Control_c, 11, 7, 92
12, 5695, Control_c, 11, 7, 91
12, 5700, Note_on_c, 11, 60, 0
12, 5715, Control_c, 11, 7, 90
12, 5740, Control_c, 11, 7, 89
12, 5760, Control_c, 11, 7, 88
12, 5760, Note_on_c, 11, 62, 76
12, 5780, Control_c, 11, 7, 87
12, 5800, Control_c, 11, 7, 86
12, 5825, Control_c, 11, 7, 85
12, 5845, Control_c, 11, 7, 84
12, 5865, Control_c, 11, 7, 83
12, 5880, Note_on_c, 11, 62, 0
12, 5890, Control_c, 11, 7, 82
12, 5910, Control_c, 11, 7, 81
12, 5930, Control_c, 11, 7, 80
12, 5955, Control_c, 11, 7, 79
12, 5975, Control_c, 11, 7, 78
12, 5995, Control_c, 11, 7, 77
12, 6000, Note_on_c, 11, 60, 76
12, 6015, Control_c, 11, 7, 76
12, 6040, Control_c, 11, 7, 75
12, 6060, Control_c, 11, 7, 74
12, 6080, Control_c, 11, 7, 73
12, 6105, Control_c, 11, 7, 72
12, 6120, Note_on_c, 11, 60, 0
12, 6120, Note_on_c, 11, 60, 71
12, 6125, Control_c, 11, 7, 71
12, 6145, Control_c, 11, 7, 70
12, 6170, Control_c, 11, 7, 69
12, 6190, Control_c, 11, 7, 68
12, 6210, Control_c, 11, 7, 67
12, 6230, Control_c, 11, 7, 66
12, 6240, Note_on_c, 11, 60, 0
12, 6240, Note_on_c, 11, 62, 67
12, 6360, Note_on_c, 11, 62, 0
12, 6580, Control_c, 11, 7, 99
12, 8160, Note_on_c, 11, 55, 80
12, 8220, Note_on_c, 11, 55, 0
12, 8400, Note_on_c, 11, 55, 80
12, 8460, Note_on_c, 11, 55, 0
12, 8640, Note_on_c, 11, 55, 81
12, 8700, Note_on_c, 11, 55, 0
12, 8760, Note_on_c, 11, 55, 78
12, 8820, Note_on_c, 11, 55, 0
12, 8880, Note_on_c, 11, 56, 67
12, 9000, Note_on_c, 11, 56, 0
12, 9060, Note_on_c, 11, 60, 74
12, 9120, Note_on_c, 11, 60, 0
12, 9120, Note_on_c, 11, 60, 85
12, 9180, Note_on_c, 11, 60, 0
12, 9240, Note_on_c, 11, 59, 86
12, 9300, Note_on_c, 11, 59, 0
12, 9360, Note_on_c, 11, 60, 84
12, 9480, Note_on_c, 11, 60, 0
12, 9480, Program_c, 11, 48
12, 9600, Note_on_c, 11, 60, 99
12, 9630, Note_on_c, 11, 60, 0
12, 9630, Note_on_c, 11, 60, 99
12, 9660, Note_on_c, 11, 60, 0
12, 9660, Note_on_c, 11, 64, 105
12, 9690, Note_on_c, 11, 64, 0
12, 9690, Note_on_c, 11, 67, 95
12, 9720, Note_on_c, 11, 67, 0
12, 9720, Note_on_c, 11, 72, 86
12, 9750, Note_on_c, 11, 72, 0
12, 9750, Note_on_c, 11, 70, 95
12, 9780, Note_on_c, 11, 70, 0
12, 9780, Note_on_c, 11, 68, 99
12, 9810, Note_on_c, 11, 68, 0
12, 9810, Note_on_c, 11, 67, 95
12, 9840, Note_on_c, 11, 67, 0
12, 9840, Note_on_c, 11, 68, 94
12, 9870, Note_on_c, 11, 68, 0
12, 9870, Note_on_c, 11, 70, 95
12, 9900, Note_on_c, 11, 70, 0
12, 9900, Note_on_c, 11, 68, 95
12, 9930, Note_on_c, 11, 68, 0
12, 9930, Note_on_c, 11, 67, 95
12, 9960, Note_on_c, 11, 67, 0
12, 9960, Note_on_c, 11, 65, 86
12, 9990, Note_on_c, 11, 65, 0
12, 9990, Note_on_c, 11, 63, 98
12, 10020, Note_on_c, 11, 63, 0
12, 10020, Note_on_c, 11, 62, 105
12, 10050, Note_on_c, 11, 62, 0
12, 10050, Note_on_c, 11, 60, 93
12, 10080, Note_on_c, 11, 60, 0
12, 10080, Note_on_c, 11, 62, 104
12, 10110, Note_on_c, 11, 62, 0
12, 10110, Note_on_c, 11, 58, 95
12, 10140, Note_on_c, 11, 58, 0
12, 10140, Note_on_c, 11, 62, 105
12, 10170, Note_on_c, 11, 62, 0
12, 10170, Note_on_c, 11, 65, 93
12, 10200, Note_on_c, 11, 65, 0
12, 10200, Note_on_c, 11, 70, 86
12, 10230, Note_on_c, 11, 70, 0
12, 10230, Note_on_c, 11, 68, 104
12, 10260, Note_on_c, 11, 68, 0
12, 10260, Note_on_c, 11, 67, 99
12, 10290, Note_on_c, 11, 67, 0
12, 10290, Note_on_c, 11, 65, 94
12, 10320, Note_on_c, 11, 65, 0
12, 10320, Note_on_c, 11, 67, 99
12, 10350, Note_on_c, 11, 67, 0
12, 10350, Note_on_c, 11, 68, 95
12, 10380, Note_on_c, 11, 68, 0
12, 10380, Note_on_c, 11, 67, 95
12, 10410, Note_on_c, 11, 67, 0
12, 10410, Note_on_c, 11, 65, 95
12, 10440, Note_on_c, 11, 65, 0
12, 10440, Note_on_c, 11, 63, 95
12, 10470, Note_on_c, 11, 63, 0
12, 10470, Note_on_c, 11, 62, 99
12, 10500, Note_on_c, 11, 62, 0
12, 10500, Note_on_c, 11, 60, 105
12, 10530, Note_on_c, 11, 60, 0
12, 10530, Note_on_c, 11, 58, 99
12, 10560, Note_on_c, 11, 58, 0
12, 10560, Note_on_c, 11, 56, 105
12, 10590, Note_on_c, 11, 56, 0
12, 10590, Note_on_c, 11, 68, 105
12, 10620, Note_on_c, 11, 68, 0
12, 10620, Note_on_c, 11, 68, 105
12, 10650, Note_on_c, 11, 68, 0
12, 10650, Note_on_c, 11, 68, 107
12, 10680, Note_on_c, 11, 68, 0
12, 10680, Note_on_c, 11, 56, 99
12, 10710, Note_on_c, 11, 56, 0
12, 10710, Note_on_c, 11, 68, 99
12, 10740, Note_on_c, 11, 68, 0
12, 10740, Note_on_c, 11, 68, 104
12, 10770, Note_on_c, 11, 68, 0
12, 10770, Note_on_c, 11, 68, 105
12, 10800, Note_on_c, 11, 68, 0
12, 10800, Note_on_c, 11, 55, 123
12, 10830, Note_on_c, 11, 55, 0
12, 10830, Note_on_c, 11, 67, 112
12, 10860, Note_on_c, 11, 67, 0
12, 10860, Note_on_c, 11, 67, 95
12, 10890, Note_on_c, 11, 67, 0
12, 10890, Note_on_c, 11, 67, 81
12, 10920, Note_on_c, 11, 67, 0
12, 10920, Note_on_c, 11, 55, 104
12, 10950, Note_on_c, 11, 55, 0
12, 10950, Note_on_c, 11, 67, 89
12, 10980, Note_on_c, 11, 67, 0
12, 10980, Note_on_c, 11, 67, 93
12, 11010, Note_on_c, 11, 67, 0
12, 11010, Note_on_c, 11, 67, 93
12, 11040, Note_on_c, 11, 67, 0
12, 11040, Note_on_c, 11, 56, 99
12, 11070, Note_on_c, 11, 56, 0
12, 11070, Note_on_c, 11, 68, 105
12, 11100, Note_on_c, 11, 68, 0
12, 11100, Note_on_c, 11, 68, 99
12, 11130, Note_on_c, 11, 68, 0
12, 11130, Note_on_c, 11, 68, 95
12, 11160, Note_on_c, 11, 68, 0
12, 11160, Note_on_c, 11, 56, 99
12, 11190, Note_on_c, 11, 56, 0
12, 11190, Note_on_c, 11, 68, 90
12, 11220, Note_on_c, 11, 68, 0
12, 11220, Note_on_c, 11, 68, 95
12, 11250, Note_on_c, 11, 68, 0
12, 11250, Note_on_c, 11, 68, 84
12, 11280, Note_on_c, 11, 68, 0
12, 11280, Note_on_c, 11, 55, 123
12, 11310, Note_on_c, 11, 55, 0
12, 11310, Note_on_c, 11, 67, 99
12, 11340, Note_on_c, 11, 67, 0
12, 11340, Note_on_c, 11, 67, 86
12, 11370, Note_on_c, 11, 67, 0
12, 11370, Note_on_c, 11, 67, 94
12, 11400, Note_on_c, 11, 67, 0
12, 11400, Note_on_c, 11, 55, 99
12, 11430, Note_on_c, 11, 55, 0
12, 11430, Note_on_c, 11, 67, 90
12, 11460, Note_on_c, 11, 67, 0
12, 11460, Note_on_c, 11, 67, 89
12, 11490, Note_on_c, 11, 67, 0
12, 11490, Note_on_c, 11, 67, 90
12, 11520, Note_on_c, 11, 67, 0
12, 11520, Note_on_c, 11, 56, 99
12, 11550, Note_on_c, 11, 56, 0
12, 11550, Note_on_c, 11, 68, 99
12, 11580, Note_on_c, 11, 68, 0
12, 11580, Note_on_c, 11, 68, 93
12, 11610, Note_on_c, 11, 68, 0
12, 11610, Note_on_c, 11, 68, 99
12, 11640, Note_on_c, 11, 68, 0
12, 11640, Note_on_c, 11, 56, 99
12, 11670, Note_on_c, 11, 56, 0
12, 11670, Note_on_c, 11, 68, 86
12, 11700, Note_on_c, 11, 68, 0
12, 11700, Note_on_c, 11, 68, 98
12, 11730, Note_on_c, 11, 68, 0
12, 11730, Note_on_c, 11, 68, 104
12, 11760, Note_on_c, 11, 68, 0
12, 11760, Note_on_c, 11, 67, 99
12, 11880, Note_on_c, 11, 67, 0
12, 11880, Program_c, 11, 45
12, 12000, Note_on_c, 11, 55, 76
12, 12120, Note_on_c, 11, 55, 0
12, 12240, Note_on_c, 11, 60, 76
12, 12360, Note_on_c, 11, 60, 0
12, 12480, Note_on_c, 11, 55, 74
12, 12600, Note_on_c, 11, 55, 0
12, 12600, Note_on_c, 11, 60, 80
12, 12720, Note_on_c, 11, 60, 0
12, 12720, Note_on_c, 11, 67, 73
12, 12840, Note_on_c, 11, 67, 0
12, 12840, Program_c, 11, 48
12, 12960, Note_on_c, 11, 59, 105
12, 12990, Note_on_c, 11, 59, 0
12, 12990, Note_on_c, 11, 55, 105
12, 13020, Note_on_c, 11, 55, 0
12, 13020, Note_on_c, 11, 59, 104
12, 13050, Note_on_c, 11, 59, 0
12, 13050, Note_on_c, 11, 62, 105
12, 13080, Note_on_c, 11, 62, 0
12, 13080, Note_on_c, 11, 67, 95
12, 13110, Note_on_c, 11, 67, 0
12, 13110, Note_on_c, 11, 65, 105
12, 13140, Note_on_c, 11, 65, 0
12, 13140, Note_on_c, 11, 63, 101
12, 13170, Note_on_c, 11, 63, 0
12, 13170, Note_on_c, 11, 62, 105
12, 13200, Note_on_c, 11, 62, 0
12, 13200, Note_on_c, 11, 63, 99
12, 13230, Note_on_c, 11, 63, 0
12, 13230, Note_on_c, 11, 67, 94
12, 13260, Note_on_c, 11, 67, 0
12, 13260, Note_on_c, 11, 66, 95
12, 13290, Note_on_c, 11, 66, 0
12, 13290, Note_on_c, 11, 67, 99
12, 13320, Note_on_c, 11, 67, 0
12, 13320, Note_on_c, 11, 65, 105
12, 13350, Note_on_c, 11, 65, 0
12, 13350, Note_on_c, 11, 63, 105
12, 13380, Note_on_c, 11, 63, 0
12, 13380, Note_on_c, 11, 62, 107
12, 13410, Note_on_c, 11, 62, 0
12, 13410, Note_on_c, 11, 60, 105
12, 13440, Note_on_c, 11, 60, 0
12, 13440, Note_on_c, 11, 53, 104
12, 13470, Note_on_c, 11, 53, 0
12, 13470, Note_on_c, 11, 65, 99
12, 13500, Note_on_c, 11, 65, 0
12, 13500, Note_on_c, 11, 65, 101
12, 13530, Note_on_c, 11, 65, 0
12, 13530, Note_on_c, 11, 65, 99
12, 13560, Note_on_c, 11, 65, 0
12, 13560, Note_on_c, 11, 55, 104
12, 13590, Note_on_c, 11, 55, 0
12, 13590, Note_on_c, 11, 67, 99
12, 13620, Note_on_c, 11, 67, 0
12, 13620, Note_on_c, 11, 67, 99
12, 13650, Note_on_c, 11, 67, 0
12, 13650, Note_on_c, 11, 67, 101
12, 13680, Note_on_c, 11, 67, 0
12, 13680, Note_on_c, 11, 63, 105
12, 13710, Note_on_c, 11, 63, 0
12, 13710, Note_on_c, 11, 63, 104
12, 13740, Note_on_c, 11, 63, 0
12, 13740, Note_on_c, 11, 65, 99
12, 13770, Note_on_c, 11, 65, 0
12, 13770, Note_on_c, 11, 67, 104
12, 13800, Note_on_c, 11, 67, 0
12, 13800, Note_on_c, 11, 68, 101
12, 13950, Note_on_c, 11, 68, 0
12, 13950, Note_on_c, 11, 65, 99
12, 13980, Note_on_c, 11, 65, 0
12, 13980, Note_on_c, 11, 64, 105
12, 14010, Note_on_c, 11, 64, 0
12, 14010, Note_on_c, 11, 65, 99
12, 14040, Note_on_c, 11, 65, 0
12, 14040, Note_on_c, 11, 67, 94
12, 14070, Note_on_c, 11, 67, 0
12, 14070, Note_on_c, 11, 66, 95
12, 14100, Note_on_c, 11, 66, 0
12, 14100, Note_on_c, 11, 67, 93
12, 14130, Note_on_c, 11, 67, 0
12, 14130, Note_on_c, 11, 55, 101
12, 14160, Note_on_c, 11, 55, 0
12, 14160, Note_on_c, 11, 60, 104
12, 14190, Note_on_c, 11, 60, 0
12, 14190, Note_on_c, 11, 63, 99
12, 14220, Note_on_c, 11, 63, 0
12, 14220, Note_on_c, 11, 65, 101
12, 14250, Note_on_c, 11, 65, 0
12, 14250, Note_on_c, 11, 67, 104
12, 14280, Note_on_c, 11, 67, 0
12, 14280, Note_on_c, 11, 68, 115
12, 14430, Note_on_c, 11, 68, 0
12, 14430, Note_on_c, 11, 65, 99
12, 14460, Note_on_c, 11, 65, 0
12, 14460, Note_on_c, 11, 64, 107
12, 14490, Note_on_c, 11, 64, 0
12, 14490, Note_on_c, 11, 65, 105
12, 14520, Note_on_c, 11, 65, 0
12, 14520, Note_on_c, 11, 67, 104
12, 14550, Note_on_c, 11, 67, 0
12, 14550, Note_on_c, 11, 66, 99
12, 14580, Note_on_c, 11, 66, 0
12, 14580, Note_on_c, 11, 67, 101
12, 14610, Note_on_c, 11, 67, 0
12, 14610, Note_on_c, 11, 55, 105
12, 14640, Note_on_c, 11, 55, 0
12, 14640, Note_on_c, 11, 60, 110
12, 14700, Note_on_c, 11, 60, 0
12, 14760, Note_on_c, 11, 55, 107
12, 14820, Note_on_c, 11, 55, 0
12, 14880, Note_on_c, 11, 48, 101
12, 14940, Note_on_c, 11, 48, 0
12, 18060, Note_on_c, 11, 58, 40
12, 18120, Note_on_c, 11, 58, 0
12, 18120, Note_on_c, 11, 58, 40
12, 18180, Note_on_c, 11, 58, 0
12, 18180, Note_on_c, 11, 58, 62
12, 18240, Note_on_c, 11, 58, 0
12, 18300, Note_on_c, 11, 58, 42
12, 18360, Note_on_c, 11, 58, 0
12, 18360, Note_on_c, 11, 58, 43
12, 18420, Note_on_c, 11, 58, 0
12, 18420, Note_on_c, 11, 58, 48
12, 18480, Note_on_c, 11, 58, 0
12, 18540, Note_on_c, 11, 60, 42
12, 18600, Note_on_c, 11, 60, 0
12, 18600, Note_on_c, 11, 60, 42
12, 18660, Note_on_c, 11, 60, 0
12, 18660, Note_on_c, 11, 60, 44
12, 18720, Note_on_c, 11, 60, 0
12, 18780, Note_on_c, 11, 58, 45
12, 18840, Note_on_c, 11, 58, 0
12, 18840, Note_on_c, 11, 58, 45
12, 18900, Note_on_c, 11, 58, 0
12, 18900, Note_on_c, 11, 58, 40
12, 18960, Note_on_c, 11, 58, 0
12, 19020, Note_on_c, 11, 58, 44
12, 19080, Note_on_c, 11, 58, 0
12, 19080, Note_on_c, 11, 58, 43
12, 19140, Note_on_c, 11, 58, 0
12, 19140, Note_on_c, 11, 58, 52
12, 19200, Note_on_c, 11, 58, 0
12, 19260, Note_on_c, 11, 60, 50
12, 19320, Note_on_c, 11, 60, 0
12, 19320, Note_on_c, 11, 60, 42
12, 19380, Note_on_c, 11, 60, 0
12, 19380, Note_on_c, 11, 60, 43
12, 19440, Note_on_c, 11, 60, 0
12, 19500, Note_on_c, 11, 60, 45
12, 19560, Note_on_c, 11, 60, 0
12, 19560, Note_on_c, 11, 60, 54
12, 19620, Note_on_c, 11, 60, 0
12, 19620, Note_on_c, 11, 60, 44
12, 19680, Note_on_c, 11, 60, 0
12, 19680, Note_on_c, 11, 58, 50
12, 19800, Note_on_c, 11, 58, 0
12, 19920, Note_on_c, 11, 63, 62
12, 20040, Note_on_c, 11, 63, 0
12, 20160, Note_on_c, 11, 58, 73
12, 20280, Note_on_c, 11, 58, 0
12, 20400, Note_on_c, 11, 60, 62
12, 20520, Note_on_c, 11, 60, 0
12, 20520, Note_on_c, 11, 60, 64
12, 20640, Note_on_c, 11, 60, 0
12, 20640, Note_on_c, 11, 58, 94
12, 20820, Note_on_c, 11, 58, 0
12, 20820, Note_on_c, 11, 56, 94
12, 20880, Note_on_c, 11, 56, 0
12, 20880, Note_on_c, 11, 55, 95
12, 21000, Note_on_c, 11, 55, 0
12, 21000, Note_on_c, 11, 60, 94
12, 21120, Note_on_c, 11, 60, 0
12, 21120, Note_on_c, 11, 65, 99
12, 21300, Note_on_c, 11, 65, 0
12, 21300, Note_on_c, 11, 68, 73
12, 21360, Note_on_c, 11, 68, 0
12, 21360, Note_on_c, 11, 70, 73
12, 21420, Note_on_c, 11, 70, 0
12, 21420, Note_on_c, 11, 70, 74
12, 21480, Note_on_c, 11, 70, 0
12, 21480, Note_on_c, 11, 58, 80
12, 21540, Note_on_c, 11, 58, 0
12, 21540, Note_on_c, 11, 58, 84
12, 21600, Note_on_c, 11, 58, 0
12, 21600, Note_on_c, 11, 63, 74
12, 21720, Note_on_c, 11, 63, 0
12, 22560, Note_on_c, 11, 51, 68
12, 22680, Note_on_c, 11, 51, 0
12, 22740, Note_on_c, 11, 63, 64
12, 22800, Note_on_c, 11, 63, 0
12, 22800, Note_on_c, 11, 51, 68
12, 22920, Note_on_c, 11, 51, 0
12, 22980, Note_on_c, 11, 63, 58
12, 23040, Note_on_c, 11, 63, 0
12, 23040, Note_on_c, 11, 51, 62
12, 23160, Note_on_c, 11, 51, 0
12, 23220, Note_on_c, 11, 62, 62
12, 23280, Note_on_c, 11, 62, 0
12, 23280, Note_on_c, 11, 63, 64
12, 23310, Note_on_c, 11, 63, 0
12, 23340, Note_on_c, 11, 56, 68
12, 23370, Note_on_c, 11, 56, 0
12, 23400, Note_on_c, 11, 58, 59
12, 23430, Note_on_c, 11, 58, 0
12, 23460, Note_on_c, 11, 58, 61
12, 23490, Note_on_c, 11, 58, 0
12, 23520, Note_on_c, 11, 51, 67
12, 23580, Note_on_c, 11, 51, 0
12, 23640, Note_on_c, 11, 48, 72
12, 23700, Note_on_c, 11, 48, 0
12, 23760, Note_on_c, 11, 56, 67
12, 23820, Note_on_c, 11, 56, 0
12, 23880, Note_on_c, 11, 53, 72
12, 23940, Note_on_c, 11, 53, 0
12, 24000, Note_on_c, 11, 50, 71
12, 24060, Note_on_c, 11, 50, 0
12, 26160, Note_on_c, 11, 58, 45
12, 26280, Note_on_c, 11, 58, 0
12, 26280, Note_on_c, 11, 58, 45
12, 26400, Note_on_c, 11, 58, 0
12, 26400, Note_on_c, 11, 58, 64
12, 26460, Note_on_c, 11, 58, 0
12, 26700, Note_on_c, 11, 58, 67
12, 26730, Note_on_c, 11, 58, 0
12, 26760, Note_on_c, 11, 60, 82
12, 26790, Note_on_c, 11, 60, 0
12, 26820, Note_on_c, 11, 62, 69
12, 26850, Note_on_c, 11, 62, 0
12, 26880, Note_on_c, 11, 63, 67
12, 26940, Note_on_c, 11, 63, 0
12, 26940, Note_on_c, 11, 51, 86
12, 27000, Note_on_c, 11, 51, 0
12, 27000, Note_on_c, 11, 63, 62
12, 27060, Note_on_c, 11, 63, 0
12, 27060, Note_on_c, 11, 63, 63
12, 27120, Note_on_c, 11, 63, 0
12, 27120, Note_on_c, 11, 68, 71
12, 27180, Note_on_c, 11, 68, 0
12, 27180, Note_on_c, 11, 65, 71
12, 27240, Note_on_c, 11, 65, 0
12, 27240, Note_on_c, 11, 70, 69
12, 27300, Note_on_c, 11, 70, 0
12, 27300, Note_on_c, 11, 58, 77
12, 27360, Note_on_c, 11, 58, 0
12, 27360, Note_on_c, 11, 63, 62
12, 27420, Note_on_c, 11, 63, 0
12, 27660, Note_on_c, 11, 55, 71
12, 27690, Note_on_c, 11, 55, 0
12, 27720, Note_on_c, 11, 57, 80
12, 27750, Note_on_c, 11, 57, 0
12, 27780, Note_on_c, 11, 59, 81
12, 27810, Note_on_c, 11, 59, 0
12, 27840, Note_on_c, 11, 60, 72
12, 28020, Note_on_c, 11, 60, 0
12, 28020, Note_on_c, 11, 62, 68
12, 28080, Note_on_c, 11, 62, 0
12, 28080, Note_on_c, 11, 60, 64
12, 28140, Note_on_c, 11, 60, 0
12, 28140, Note_on_c, 11, 51, 71
12, 28200, Note_on_c, 11, 51, 0
12, 28200, Note_on_c, 11, 50, 76
12, 28260, Note_on_c, 11, 50, 0
12, 28260, Note_on_c, 11, 48, 66
12, 28320, Note_on_c, 11, 48, 0
12, 28320, Note_on_c, 11, 50, 74
12, 28380, Note_on_c, 11, 50, 0
12, 28620, Note_on_c, 11, 48, 99
12, 28650, Note_on_c, 11, 48, 0
12, 28650, Note_on_c, 11, 50, 105
12, 28680, Note_on_c, 11, 50, 0
12, 28680, Note_on_c, 11, 51, 90
12, 28710, Note_on_c, 11, 51, 0
12, 28740, Note_on_c, 11, 48, 105
12, 28770, Note_on_c, 11, 48, 0
12, 28800, Note_on_c, 11, 43, 94
12, 28860, Note_on_c, 11, 43, 0
12, 29100, Note_on_c, 11, 48, 104
12, 29130, Note_on_c, 11, 48, 0
12, 29130, Note_on_c, 11, 50, 105
12, 29160, Note_on_c, 11, 50, 0
12, 29160, Note_on_c, 11, 51, 94
12, 29190, Note_on_c, 11, 51, 0
12, 29220, Note_on_c, 11, 48, 105
12, 29250, Note_on_c, 11, 48, 0
12, 29280, Note_on_c, 11, 43, 98
12, 29340, Note_on_c, 11, 43, 0
12, 29520, Note_on_c, 11, 55, 45
12, 29640, Note_on_c, 11, 55, 0
12, 29760, Note_on_c, 11, 62, 41
12, 29880, Note_on_c, 11, 62, 0
12, 30000, Note_on_c, 11, 65, 45
12, 30120, Note_on_c, 11, 65, 0
12, 30240, Note_on_c, 11, 67, 52
12, 30300, Note_on_c, 11, 67, 0
12, 31680, Program_c, 11, 45
12, 32160, Note_on_c, 11, 55, 68
12, 32280, Note_on_c, 11, 55, 0
12, 32400, Note_on_c, 11, 55, 52
12, 32520, Note_on_c, 11, 55, 0
12, 32640, Note_on_c, 11, 55, 63
12, 32760, Note_on_c, 11, 55, 0
12, 32760, Note_on_c, 11, 55, 68
12, 32880, Note_on_c, 11, 55, 0
12, 32880, Note_on_c, 11, 55, 72
12, 33000, Note_on_c, 11, 55, 0
12, 33120, Note_on_c, 11, 55, 62
12, 33240, Note_on_c, 11, 55, 0
12, 33360, Note_on_c, 11, 55, 65
12, 33480, Note_on_c, 11, 55, 0
12, 33540, Note_on_c, 11, 55, 61
12, 33600, Note_on_c, 11, 55, 0
12, 33600, Note_on_c, 11, 55, 65
12, 33720, Note_on_c, 11, 55, 0
12, 33720, Note_on_c, 11, 54, 61
12, 33840, Note_on_c, 11, 54, 0
12, 33840, Note_on_c, 11, 55, 69
12, 33900, Note_on_c, 11, 55, 0
12, 33960, Program_c, 11, 45
12, 34080, Note_on_c, 11, 67, 74
12, 34140, Note_on_c, 11, 67, 0
12, 34320, Note_on_c, 11, 67, 69
12, 34380, Note_on_c, 11, 67, 0
12, 34560, Note_on_c, 11, 67, 77
12, 34680, Note_on_c, 11, 67, 0
12, 34680, Note_on_c, 11, 67, 74
12, 34800, Note_on_c, 11, 67, 0
12, 34800, Note_on_c, 11, 67, 80
12, 34920, Note_on_c, 11, 67, 0
12, 35040, Note_on_c, 11, 67, 78
12, 35160, Note_on_c, 11, 67, 0
12, 35270, Control_c, 11, 7, 84
12, 35280, Note_on_c, 11, 67, 90
12, 35400, Note_on_c, 11, 67, 0
12, 35460, Note_on_c, 11, 60, 90
12, 35520, Note_on_c, 11, 60, 0
12, 35520, Note_on_c, 11, 62, 89
12, 35640, Note_on_c, 11, 62, 0
12, 35640, Note_on_c, 11, 60, 89
12, 35760, Note_on_c, 11, 60, 0
12, 35760, Note_on_c, 11, 58, 93
12, 35880, Note_on_c, 11, 58, 0
12, 36000, Note_on_c, 11, 60, 69
12, 36120, Note_on_c, 11, 60, 0
12, 36240, Note_on_c, 11, 60, 67
12, 36360, Note_on_c, 11, 60, 0
12, 36480, Note_on_c, 11, 58, 67
12, 36600, Note_on_c, 11, 58, 0
12, 36720, Control_c, 11, 7, 99
12, 36720, Note_on_c, 11, 58, 64
12, 36840, Note_on_c, 11, 58, 0
12, 36960, Note_on_c, 11, 60, 82
12, 37020, Note_on_c, 11, 60, 0
12, 37080, Note_on_c, 11, 60, 78
12, 37140, Note_on_c, 11, 60, 0
12, 37200, Note_on_c, 11, 62, 74
12, 37260, Note_on_c, 11, 62, 0
12, 37440, Control_c, 11, 7, 99
12, 37440, Note_on_c, 11, 60, 81
12, 37465, Control_c, 11, 7, 98
12, 37485, Control_c, 11, 7, 97
12, 37500, Note_on_c, 11, 60, 0
12, 37505, Control_c, 11, 7, 96
12, 37530, Control_c, 11, 7, 95
12, 37550, Control_c, 11, 7, 94
12, 37560, Note_on_c, 11, 60, 80
12, 37570, Control_c, 11, 7, 93
12, 37595, Control_c, 11, 7, 92
12, 37615, Control_c, 11, 7, 91
12, 37620, Note_on_c, 11, 60, 0
12, 37635, Control_c, 11, 7, 90
12, 37660, Control_c, 11, 7, 89
12, 37680, Control_c, 11, 7, 88
12, 37680, Note_on_c, 11, 62, 76
12, 37700, Control_c, 11, 7, 87
12, 37720, Control_c, 11, 7, 86
12, 37745, Control_c, 11, 7, 85
12, 37765, Control_c, 11, 7, 84
12, 37785, Control_c, 11, 7, 83
12, 37800, Note_on_c, 11, 62, 0
12, 37810, Control_c, 11, 7, 82
12, 37830, Control_c, 11, 7, 81
12, 37850, Control_c, 11, 7, 80
12, 37875, Control_c, 11, 7, 79
12, 37895, Control_c, 11, 7, 78
12, 37915, Control_c, 11, 7, 77
12, 37920, Note_on_c, 11, 60, 76
12, 37935, Control_c, 11, 7, 76
12, 37960, Control_c, 11, 7, 75
12, 37980, Control_c, 11, 7, 74
12, 38000, Control_c, 11, 7, 73
12, 38025, Control_c, 11, 7, 72
12, 38040, Note_on_c, 11, 60, 0
12, 38040, Note_on_c, 11, 60, 71
12, 38045, Control_c, 11, 7, 71
12, 38065, Control_c, 11, 7, 70
12, 38090, Control_c, 11, 7, 69
12, 38110, Control_c, 11, 7, 68
12, 38130, Control_c, 11, 7, 67
12, 38150, Control_c, 11, 7, 66
12, 38160, Note_on_c, 11, 60, 0
12, 38160, Note_on_c, 11, 62, 61
12, 38220, Note_on_c, 11, 62, 0
12, 41250, Control_c, 11, 7, 100
12, 41280, Note_on_c, 11, 55, 82
12, 41340, Note_on_c, 11, 55, 0
12, 41520, Note_on_c, 11, 55, 86
12, 41580, Note_on_c, 11, 55, 0
12, 41760, Note_on_c, 11, 55, 81
12, 41820, Note_on_c, 11, 55, 0
12, 41880, Note_on_c, 11, 55, 80
12, 41940, Note_on_c, 11, 55, 0
12, 42000, Note_on_c, 11, 56, 81
12, 42120, Note_on_c, 11, 56, 0
12, 42180, Note_on_c, 11, 60, 86
12, 42240, Note_on_c, 11, 60, 0
12, 42240, Note_on_c, 11, 60, 84
12, 42300, Note_on_c, 11, 60, 0
12, 42360, Note_on_c, 11, 59, 95
12, 42420, Note_on_c, 11, 59, 0
12, 42480, Note_on_c, 11, 60, 80
12, 42600, Note_on_c, 11, 60, 0
12, 42600, Program_c, 11, 48
12, 42720, Note_on_c, 11, 60, 99
12, 42750, Note_on_c, 11, 60, 0
12, 42750, Note_on_c, 11, 60, 99
12, 42780, Note_on_c, 11, 60, 0
12, 42780, Note_on_c, 11, 64, 105
12, 42810, Note_on_c, 11, 64, 0
12, 42810, Note_on_c, 11, 67, 95
12, 42840, Note_on_c, 11, 67, 0
12, 42840, Note_on_c, 11, 72, 86
12, 42870, Note_on_c, 11, 72, 0
12, 42870, Note_on_c, 11, 70, 95
12, 42900, Note_on_c, 11, 70, 0
12, 42900, Note_on_c, 11, 68, 99
12, 42930, Note_on_c, 11, 68, 0
12, 42930, Note_on_c, 11, 67, 95
12, 42960, Note_on_c, 11, 67, 0
12, 42960, Note_on_c, 11, 68, 94
12, 42990, Note_on_c, 11, 68, 0
12, 42990, Note_on_c, 11, 70, 95
12, 43020, Note_on_c, 11, 70, 0
12, 43020, Note_on_c, 11, 68, 95
12, 43050, Note_on_c, 11, 68, 0
12, 43050, Note_on_c, 11, 67, 95
12, 43080, Note_on_c, 11, 67, 0
12, 43080, Note_on_c, 11, 65, 86
12, 43110, Note_on_c, 11, 65, 0
12, 43110, Note_on_c, 11, 63, 98
12, 43140, Note_on_c, 11, 63, 0
12, 43140, Note_on_c, 11, 62, 105
12, 43170, Note_on_c, 11, 62, 0
12, 43170, Note_on_c, 11, 60, 93
12, 43200, Note_on_c, 11, 60, 0
12, 43200, Note_on_c, 11, 62, 104
12, 43230, Note_on_c, 11, 62, 0
12, 43230, Note_on_c, 11, 58, 95
12, 43260, Note_on_c, 11, 58, 0
12, 43260, Note_on_c, 11, 62, 105
12, 43290, Note_on_c, 11, 62, 0
12, 43290, Note_on_c, 11, 65, 93
12, 43320, Note_on_c, 11, 65, 0
12, 43320, Note_on_c, 11, 70, 86
12, 43350, Note_on_c, 11, 70, 0
12, 43350, Note_on_c, 11, 68, 104
12, 43380, Note_on_c, 11, 68, 0
12, 43380, Note_on_c, 11, 67, 99
12, 43410, Note_on_c, 11, 67, 0
12, 43410, Note_on_c, 11, 65, 94
12, 43440, Note_on_c, 11, 65, 0
12, 43440, Note_on_c, 11, 67, 99
12, 43470, Note_on_c, 11, 67, 0
12, 43470, Note_on_c, 11, 68, 95
12, 43500, Note_on_c, 11, 68, 0
12, 43500, Note_on_c, 11, 67, 95
12, 43530, Note_on_c, 11, 67, 0
12, 43530, Note_on_c, 11, 65, 95
12, 43560, Note_on_c, 11, 65, 0
12, 43560, Note_on_c, 11, 63, 95
12, 43590, Note_on_c, 11, 63, 0
12, 43590, Note_on_c, 11, 62, 99
12, 43620, Note_on_c, 11, 62, 0
12, 43620, Note_on_c, 11, 60, 105
12, 43650, Note_on_c, 11, 60, 0
12, 43650, Note_on_c, 11, 58, 99
12, 43680, Note_on_c, 11, 58, 0
12, 43680, Note_on_c, 11, 56, 105
12, 43710, Note_on_c, 11, 56, 0
12, 43710, Note_on_c, 11, 68, 105
12, 43740, Note_on_c, 11, 68, 0
12, 43740, Note_on_c, 11, 68, 105
12, 43770, Note_on_c, 11, 68, 0
12, 43770, Note_on_c, 11, 68, 107
12, 43800, Note_on_c, 11, 68, 0
12, 43800, Note_on_c, 11, 56, 99
12, 43830, Note_on_c, 11, 56, 0
12, 43830, Note_on_c, 11, 68, 99
12, 43860, Note_on_c, 11, 68, 0
12, 43860, Note_on_c, 11, 68, 104
12, 43890, Note_on_c, 11, 68, 0
12, 43890, Note_on_c, 11, 68, 105
12, 43920, Note_on_c, 11, 68, 0
12, 43920, Note_on_c, 11, 55, 123
12, 43950, Note_on_c, 11, 55, 0
12, 43950, Note_on_c, 11, 67, 112
12, 43980, Note_on_c, 11, 67, 0
12, 43980, Note_on_c, 11, 67, 95
12, 44010, Note_on_c, 11, 67, 0
12, 44010, Note_on_c, 11, 67, 81
12, 44040, Note_on_c, 11, 67, 0
12, 44040, Note_on_c, 11, 55, 104
12, 44070, Note_on_c, 11, 55, 0
12, 44070, Note_on_c, 11, 67, 89
12, 44100, Note_on_c, 11, 67, 0
12, 44100, Note_on_c, 11, 67, 93
12, 44130, Note_on_c, 11, 67, 0
12, 44130, Note_on_c, 11, 67, 93
12, 44160, Note_on_c, 11, 67, 0
12, 44160, Note_on_c, 11, 56, 99
12, 44190, Note_on_c, 11, 56, 0
12, 44190, Note_on_c, 11, 68, 105
12, 44220, Note_on_c, 11, 68, 0
12, 44220, Note_on_c, 11, 68, 99
12, 44250, Note_on_c, 11, 68, 0
12, 44250, Note_on_c, 11, 68, 95
12, 44280, Note_on_c, 11, 68, 0
12, 44280, Note_on_c, 11, 56, 99
12, 44310, Note_on_c, 11, 56, 0
12, 44310, Note_on_c, 11, 68, 90
12, 44340, Note_on_c, 11, 68, 0
12, 44340, Note_on_c, 11, 68, 95
12, 44370, Note_on_c, 11, 68, 0
12, 44370, Note_on_c, 11, 68, 84
12, 44400, Note_on_c, 11, 68, 0
12, 44400, Note_on_c, 11, 55, 123
12, 44430, Note_on_c, 11, 55, 0
12, 44430, Note_on_c, 11, 67, 99
12, 44460, Note_on_c, 11, 67, 0
12, 44460, Note_on_c, 11, 67, 86
12, 44490, Note_on_c, 11, 67, 0
12, 44490, Note_on_c, 11, 67, 94
12, 44520, Note_on_c, 11, 67, 0
12, 44520, Note_on_c, 11, 55, 99
12, 44550, Note_on_c, 11, 55, 0
12, 44550, Note_on_c, 11, 67, 90
12, 44580, Note_on_c, 11, 67, 0
12, 44580, Note_on_c, 11, 67, 89
12, 44610, Note_on_c, 11, 67, 0
12, 44610, Note_on_c, 11, 67, 90
12, 44640, Note_on_c, 11, 67, 0
12, 44640, Note_on_c, 11, 56, 99
12, 44670, Note_on_c, 11, 56, 0
12, 44670, Note_on_c, 11, 68, 99
12, 44700, Note_on_c, 11, 68, 0
12, 44700, Note_on_c, 11, 68, 93
12, 44730, Note_on_c, 11, 68, 0
12, 44730, Note_on_c, 11, 68, 99
12, 44760, Note_on_c, 11, 68, 0
12, 44760, Note_on_c, 11, 56, 99
12, 44790, Note_on_c, 11, 56, 0
12, 44790, Note_on_c, 11, 68, 86
12, 44820, Note_on_c, 11, 68, 0
12, 44820, Note_on_c, 11, 68, 98
12, 44850, Note_on_c, 11, 68, 0
12, 44850, Note_on_c, 11, 68, 104
12, 44880, Note_on_c, 11, 68, 0
12, 44880, Note_on_c, 11, 67, 99
12, 45000, Note_on_c, 11, 67, 0
12, 45000, Program_c, 11, 45
12, 45120, Note_on_c, 11, 55, 76
12, 45240, Note_on_c, 11, 55, 0
12, 45360, Note_on_c, 11, 60, 76
12, 45480, Note_on_c, 11, 60, 0
12, 45600, Note_on_c, 11, 55, 74
12, 45720, Note_on_c, 11, 55, 0
12, 45720, Note_on_c, 11, 60, 80
12, 45840, Note_on_c, 11, 60, 0
12, 45840, Note_on_c, 11, 67, 73
12, 45960, Note_on_c, 11, 67, 0
12, 45960, Program_c, 11, 48
12, 46080, Note_on_c, 11, 59, 105
12, 46110, Note_on_c, 11, 59, 0
12, 46110, Note_on_c, 11, 55, 105
12, 46140, Note_on_c, 11, 55, 0
12, 46140, Note_on_c, 11, 59, 104
12, 46170, Note_on_c, 11, 59, 0
12, 46170, Note_on_c, 11, 62, 105
12, 46200, Note_on_c, 11, 62, 0
12, 46200, Note_on_c, 11, 67, 95
12, 46230, Note_on_c, 11, 67, 0
12, 46230, Note_on_c, 11, 65, 105
12, 46260, Note_on_c, 11, 65, 0
12, 46260, Note_on_c, 11, 63, 101
12, 46290, Note_on_c, 11, 63, 0
12, 46290, Note_on_c, 11, 62, 105
12, 46320, Note_on_c, 11, 62, 0
12, 46320, Note_on_c, 11, 63, 99
12, 46350, Note_on_c, 11, 63, 0
12, 46350, Note_on_c, 11, 67, 94
12, 46380, Note_on_c, 11, 67, 0
12, 46380, Note_on_c, 11, 66, 95
12, 46410, Note_on_c, 11, 66, 0
12, 46410, Note_on_c, 11, 67, 99
12, 46440, Note_on_c, 11, 67, 0
12, 46440, Note_on_c, 11, 65, 105
12, 46470, Note_on_c, 11, 65, 0
12, 46470, Note_on_c, 11, 63, 105
12, 46500, Note_on_c, 11, 63, 0
12, 46500, Note_on_c, 11, 62, 107
12, 46530, Note_on_c, 11, 62, 0
12, 46530, Note_on_c, 11, 60, 105
12, 46560, Note_on_c, 11, 60, 0
12, 46560, Note_on_c, 11, 53, 104
12, 46590, Note_on_c, 11, 53, 0
12, 46590, Note_on_c, 11, 65, 99
12, 46620, Note_on_c, 11, 65, 0
12, 46620, Note_on_c, 11, 65, 101
12, 46650, Note_on_c, 11, 65, 0
12, 46650, Note_on_c, 11, 65, 99
12, 46680, Note_on_c, 11, 65, 0
12, 46680, Note_on_c, 11, 55, 104
12, 46710, Note_on_c, 11, 55, 0
12, 46710, Note_on_c, 11, 67, 99
12, 46740, Note_on_c, 11, 67, 0
12, 46740, Note_on_c, 11, 67, 99
12, 46770, Note_on_c, 11, 67, 0
12, 46770, Note_on_c, 11, 67, 101
12, 46800, Note_on_c, 11, 67, 0
12, 46800, Note_on_c, 11, 63, 105
12, 46830, Note_on_c, 11, 63, 0
12, 46830, Note_on_c, 11, 63, 104
12, 46860, Note_on_c, 11, 63, 0
12, 46860, Note_on_c, 11, 65, 99
12, 46890, Note_on_c, 11, 65, 0
12, 46890, Note_on_c, 11, 67, 104
12, 46920, Note_on_c, 11, 67, 0
12, 46920, Note_on_c, 11, 68, 101
12, 47070, Note_on_c, 11, 68, 0
12, 47070, Note_on_c, 11, 65, 99
12, 47100, Note_on_c, 11, 65, 0
12, 47100, Note_on_c, 11, 64, 105
12, 47130, Note_on_c, 11, 64, 0
12, 47130, Note_on_c, 11, 65, 99
12, 47160, Note_on_c, 11, 65, 0
12, 47160, Note_on_c, 11, 67, 94
12, 47190, Note_on_c, 11, 67, 0
12, 47190, Note_on_c, 11, 66, 95
12, 47220, Note_on_c, 11, 66, 0
12, 47220, Note_on_c, 11, 67, 93
12, 47250, Note_on_c, 11, 67, 0
12, 47250, Note_on_c, 11, 55, 101
12, 47280, Note_on_c, 11, 55, 0
12, 47280, Note_on_c, 11, 60, 104
12, 47310, Note_on_c, 11, 60, 0
12, 47310, Note_on_c, 11, 63, 99
12, 47340, Note_on_c, 11, 63, 0
12, 47340, Note_on_c, 11, 65, 101
12, 47370, Note_on_c, 11, 65, 0
12, 47370, Note_on_c, 11, 67, 104
12, 47400, Note_on_c, 11, 67, 0
12, 47400, Note_on_c, 11, 68, 115
12, 47550, Note_on_c, 11, 68, 0
12, 47550, Note_on_c, 11, 65, 99
12, 47580, Note_on_c, 11, 65, 0
12, 47580, Note_on_c, 11, 64, 107
12, 47610, Note_on_c, 11, 64, 0
12, 47610, Note_on_c, 11, 65, 105
12, 47640, Note_on_c, 11, 65, 0
12, 47640, Note_on_c, 11, 67, 104
12, 47670, Note_on_c, 11, 67, 0
12, 47670, Note_on_c, 11, 66, 99
12, 47700, Note_on_c, 11, 66, 0
12, 47700, Note_on_c, 11, 67, 101
12, 47730, Note_on_c, 11, 67, 0
12, 47730, Note_on_c, 11, 55, 105
12, 47760, Note_on_c, 11, 55, 0
12, 47760, Note_on_c, 11, 60, 110
12, 47820, Note_on_c, 11, 60, 0
12, 47880, Note_on_c, 11, 55, 107
12, 47940, Note_on_c, 11, 55, 0
12, 48000, Note_on_c, 11, 48, 101
12, 48060, Note_on_c, 11, 48, 0
12, 48240, Note_on_c, 11, 56, 46
12, 48300, Note_on_c, 11, 56, 0
12, 48300, Note_on_c, 11, 51, 57
12, 48360, Note_on_c, 11, 51, 0
12, 48360, Note_on_c, 11, 56, 52
12, 48420, Note_on_c, 11, 56, 0
12, 48420, Note_on_c, 11, 51, 52
12, 48480, Note_on_c, 11, 51, 0
12, 48480, Note_on_c, 11, 58, 45
12, 48540, Note_on_c, 11, 58, 0
12, 48540, Note_on_c, 11, 51, 63
12, 48600, Note_on_c, 11, 51, 0
12, 48600, Note_on_c, 11, 58, 46
12, 48660, Note_on_c, 11, 58, 0
12, 48660, Note_on_c, 11, 51, 45
12, 48720, Note_on_c, 11, 51, 0
12, 48720, Note_on_c, 11, 55, 61
12, 48780, Note_on_c, 11, 55, 0
12, 48780, Note_on_c, 11, 63, 44
12, 48840, Note_on_c, 11, 63, 0
12, 48840, Note_on_c, 11, 62, 44
12, 48900, Note_on_c, 11, 62, 0
12, 48900, Note_on_c, 11, 61, 46
12, 48960, Note_on_c, 11, 61, 0
12, 48960, Note_on_c, 11, 60, 43
12, 49020, Note_on_c, 11, 60, 0
12, 49020, Note_on_c, 11, 58, 52
12, 49080, Note_on_c, 11, 58, 0
12, 49080, Note_on_c, 11, 56, 58
12, 49140, Note_on_c, 11, 56, 0
12, 49140, Note_on_c, 11, 55, 46
12, 49200, Note_on_c, 11, 55, 0
12, 49200, Note_on_c, 11, 65, 65
12, 49260, Note_on_c, 11, 65, 0
12, 49260, Note_on_c, 11, 66, 63
12, 49320, Note_on_c, 11, 66, 0
12, 49320, Note_on_c, 11, 65, 53
12, 49380, Note_on_c, 11, 65, 0
12, 49380, Note_on_c, 11, 63, 40
12, 49440, Note_on_c, 11, 63, 0
12, 49440, Note_on_c, 11, 61, 43
12, 49500, Note_on_c, 11, 61, 0
12, 49500, Note_on_c, 11, 60, 29
12, 49560, Note_on_c, 11, 60, 0
12, 49560, Note_on_c, 11, 58, 60
12, 49620, Note_on_c, 11, 58, 0
12, 49620, Note_on_c, 11, 61, 58
12, 49680, Note_on_c, 11, 61, 0
12, 49680, Note_on_c, 11, 60, 53
12, 49740, Note_on_c, 11, 60, 0
12, 49740, Note_on_c, 11, 51, 64
12, 49800, Note_on_c, 11, 51, 0
12, 49800, Note_on_c, 11, 55, 56
12, 49860, Note_on_c, 11, 55, 0
12, 49860, Note_on_c, 11, 51, 65
12, 49920, Note_on_c, 11, 51, 0
12, 49920, Note_on_c, 11, 56, 58
12, 50040, Note_on_c, 11, 56, 0
12, 50160, Note_on_c, 11, 63, 41
12, 50400, Note_on_c, 11, 63, 0
12, 50400, Note_on_c, 11, 63, 40
12, 50640, Note_on_c, 11, 63, 0
12, 50640, Note_on_c, 11, 63, 53
12, 50880, Note_on_c, 11, 63, 0
12, 50880, Note_on_c, 11, 63, 38
12, 51120, Note_on_c, 11, 63, 0
12, 51120, Note_on_c, 11, 65, 48
12, 51180, Note_on_c, 11, 65, 0
12, 51180, Note_on_c, 11, 66, 49
12, 51240, Note_on_c, 11, 66, 0
12, 51240, Note_on_c, 11, 65, 53
12, 51300, Note_on_c, 11, 65, 0
12, 51300, Note_on_c, 11, 63, 38
12, 51360, Note_on_c, 11, 63, 0
12, 51360, Note_on_c, 11, 61, 64
12, 51420, Note_on_c, 11, 61, 0
12, 51420, Note_on_c, 11, 60, 45
12, 51480, Note_on_c, 11, 60, 0
12, 51480, Note_on_c, 11, 58, 53
12, 51540, Note_on_c, 11, 58, 0
12, 51540, Note_on_c, 11, 61, 52
12, 51600, Note_on_c, 11, 61, 0
12, 51600, Note_on_c, 11, 63, 43
12, 51720, Note_on_c, 11, 63, 0
12, 51720, Note_on_c, 11, 58, 57
12, 51840, Note_on_c, 11, 58, 0
12, 51840, Note_on_c, 11, 60, 44
12, 51900, Note_on_c, 11, 60, 0
12, 52140, Note_on_c, 11, 55, 41
12, 52170, Note_on_c, 11, 55, 0
12, 52200, Note_on_c, 11, 51, 56
12, 52230, Note_on_c, 11, 51, 0
12, 52260, Note_on_c, 11, 55, 46
12, 52290, Note_on_c, 11, 55, 0
12, 52320, Note_on_c, 11, 58, 54
12, 52440, Note_on_c, 11, 58, 0
12, 52620, Note_on_c, 11, 55, 44
12, 52650, Note_on_c, 11, 55, 0
12, 52680, Note_on_c, 11, 51, 58
12, 52710, Note_on_c, 11, 51, 0
12, 52740, Note_on_c, 11, 55, 46
12, 52770, Note_on_c, 11, 55, 0
12, 52800, Note_on_c, 11, 56, 43
12, 52920, Note_on_c, 11, 56, 0
12, 53040, Note_on_c, 11, 58, 45
12, 53580, Note_on_c, 11, 58, 0
12, 53700, Note_on_c, 11, 63, 99
12, 53760, Control_c, 11, 7, 100
12, 53780, Control_c, 11, 7, 99
12, 53790, Control_c, 11, 7, 98
12, 53800, Control_c, 11, 7, 97
12, 53810, Control_c, 11, 7, 96
12, 53830, Control_c, 11, 7, 95
12, 53840, Control_c, 11, 7, 94
12, 53850, Control_c, 11, 7, 93
12, 53860, Control_c, 11, 7, 92
12, 53870, Control_c, 11, 7, 91
12, 53890, Control_c, 11, 7, 90
12, 53900, Control_c, 11, 7, 89
12, 53910, Control_c, 11, 7, 88
12, 53920, Control_c, 11, 7, 87
12, 53930, Control_c, 11, 7, 86
12, 53950, Control_c, 11, 7, 85
12, 53960, Control_c, 11, 7, 84
12, 53970, Control_c, 11, 7, 83
12, 53980, Control_c, 11, 7, 82
12, 53990, Control_c, 11, 7, 81
12, 54010, Control_c, 11, 7, 80
12, 54020, Control_c, 11, 7, 79
12, 54030, Control_c, 11, 7, 78
12, 54040, Control_c, 11, 7, 77
12, 54060, Control_c, 11, 7, 76
12, 54070, Control_c, 11, 7, 75
12, 54080, Control_c, 11, 7, 74
12, 54090, Control_c, 11, 7, 73
12, 54100, Control_c, 11, 7, 72
12, 54120, Control_c, 11, 7, 71
12, 54130, Control_c, 11, 7, 70
12, 54140, Control_c, 11, 7, 69
12, 54150, Control_c, 11, 7, 68
12, 54160, Control_c, 11, 7, 67
12, 54180, Control_c, 11, 7, 66
12, 54190, Control_c, 11, 7, 65
12, 54200, Control_c, 11, 7, 64
12, 54210, Control_c, 11, 7, 63
12, 54220, Control_c, 11, 7, 62
12, 54240, Note_on_c, 11, 63, 0
12, 54240, Control_c, 11, 7, 100
12, 54240, Note_on_c, 11, 63, 46
12, 54480, Note_on_c, 11, 63, 0
12, 54480, Note_on_c, 11, 63, 45
12, 54720, Note_on_c, 11, 63, 0
12, 54720, Note_on_c, 11, 63, 53
12, 54960, Note_on_c, 11, 63, 0
12, 54960, Note_on_c, 11, 56, 43
12, 55260, Note_on_c, 11, 56, 0
12, 55260, Note_on_c, 11, 57, 70
12, 55320, Note_on_c, 11, 57, 0
12, 55320, Note_on_c, 11, 58, 50
12, 55380, Note_on_c, 11, 58, 0
12, 55380, Note_on_c, 11, 61, 48
12, 55440, Note_on_c, 11, 61, 0
12, 55440, Note_on_c, 11, 63, 50
12, 55560, Note_on_c, 11, 63, 0
12, 55560, Note_on_c, 11, 58, 57
12, 55680, Note_on_c, 11, 58, 0
12, 55680, Note_on_c, 11, 60, 52
12, 55800, Note_on_c, 11, 60, 0
12, 55980, Note_on_c, 11, 55, 65
12, 56010, Note_on_c, 11, 55, 0
12, 56040, Note_on_c, 11, 51, 73
12, 56070, Note_on_c, 11, 51, 0
12, 56100, Note_on_c, 11, 55, 69
12, 56130, Note_on_c, 11, 55, 0
12, 56160, Note_on_c, 11, 58, 64
12, 56280, Note_on_c, 11, 58, 0
12, 56460, Note_on_c, 11, 55, 61
12, 56490, Note_on_c, 11, 55, 0
12, 56520, Note_on_c, 11, 51, 76
12, 56550, Note_on_c, 11, 51, 0
12, 56580, Note_on_c, 11, 55, 64
12, 56610, Note_on_c, 11, 55, 0
12, 56640, Note_on_c, 11, 56, 59
12, 56760, Note_on_c, 11, 56, 0
12, 56880, Note_on_c, 11, 63, 54
12, 57000, Note_on_c, 11, 63, 0
12, 57000, Note_on_c, 11, 63, 45
12, 57045, Note_on_c, 11, 63, 0
12, 57060, Note_on_c, 11, 63, 46
12, 57105, Note_on_c, 11, 63, 0
12, 57120, Note_on_c, 11, 63, 61
12, 57180, Note_on_c, 11, 63, 0
12, 57180, Note_on_c, 11, 62, 51
12, 57240, Note_on_c, 11, 62, 0
12, 57240, Note_on_c, 11, 58, 66
12, 57300, Note_on_c, 11, 58, 0
12, 57300, Note_on_c, 11, 60, 71
12, 57360, Note_on_c, 11, 60, 0
12, 57360, Note_on_c, 11, 61, 80
12, 57430, Control_c, 11, 7, 96
12, 57440, Control_c, 11, 7, 94
12, 57450, Control_c, 11, 7, 92
12, 57460, Control_c, 11, 7, 90
12, 57470, Control_c, 11, 7, 88
12, 57480, Control_c, 11, 7, 86
12, 57490, Control_c, 11, 7, 83
12, 57500, Control_c, 11, 7, 81
12, 57510, Control_c, 11, 7, 79
12, 57520, Control_c, 11, 7, 77
12, 57530, Control_c, 11, 7, 75
12, 57540, Control_c, 11, 7, 72
12, 57550, Control_c, 11, 7, 70
12, 57560, Control_c, 11, 7, 68
12, 57570, Control_c, 11, 7, 66
12, 57580, Control_c, 11, 7, 64
12, 57590, Control_c, 11, 7, 61
12, 57720, Note_on_c, 11, 61, 0
12, 57720, Note_on_c, 11, 60, 72
12, 57780, Note_on_c, 11, 60, 0
12, 57780, Note_on_c, 11, 58, 72
12, 57840, Note_on_c, 11, 58, 0
12, 57840, Control_c, 11, 7, 100
12, 57840, Note_on_c, 11, 56, 65
12, 57960, Note_on_c, 11, 56, 0
12, 57960, Note_on_c, 11, 63, 52
12, 58380, Note_on_c, 11, 63, 0
12, 58380, Note_on_c, 11, 51, 69
12, 58440, Note_on_c, 11, 51, 0
12, 58440, Note_on_c, 11, 63, 32
12, 58500, Note_on_c, 11, 63, 0
12, 58500, Note_on_c, 11, 63, 45
12, 58560, Note_on_c, 11, 63, 0
12, 58560, Note_on_c, 11, 63, 51
12, 58800, Note_on_c, 11, 63, 0
12, 58800, Note_on_c, 11, 60, 72
12, 59040, Note_on_c, 11, 60, 0
12, 59040, Note_on_c, 11, 61, 54
12, 59220, Note_on_c, 11, 61, 0
12, 59220, Note_on_c, 11, 58, 60
12, 59280, Note_on_c, 11, 58, 0
12, 59280, Note_on_c, 11, 63, 56
12, 59340, Note_on_c, 11, 63, 0
12, 59340, Note_on_c, 11, 63, 65
12, 59400, Note_on_c, 11, 63, 0
12, 59460, Note_on_c, 11, 58, 68
12, 59520, Note_on_c, 11, 58, 0
12, 59520, Note_on_c, 11, 60, 45
12, 59640, Note_on_c, 11, 60, 0
12, 60660, Note_on_c, 11, 51, 40
12, 60720, Note_on_c, 11, 51, 0
12, 60720, Note_on_c, 11, 53, 41
12, 60750, Note_on_c, 11, 53, 0
12, 60750, Note_on_c, 11, 50, 44
12, 60780, Note_on_c, 11, 50, 0
12, 60780, Note_on_c, 11, 51, 52
12, 60810, Note_on_c, 11, 51, 0
12, 60810, Note_on_c, 11, 53, 50
12, 60840, Note_on_c, 11, 53, 0
12, 60840, Note_on_c, 11, 55, 59
12, 60870, Note_on_c, 11, 55, 0
12, 60870, Note_on_c, 11, 53, 43
12, 60900, Note_on_c, 11, 53, 0
12, 60900, Note_on_c, 11, 51, 45
12, 60930, Note_on_c, 11, 51, 0
12, 60930, Note_on_c, 11, 50, 38
12, 60960, Note_on_c, 11, 50, 0
12, 60960, Note_on_c, 11, 51, 63
12, 60990, Note_on_c, 11, 51, 0
12, 60990, Note_on_c, 11, 53, 53
12, 61020, Note_on_c, 11, 53, 0
12, 61020, Note_on_c, 11, 51, 54
12, 61050, Note_on_c, 11, 51, 0
12, 61050, Note_on_c, 11, 50, 67
12, 61080, Note_on_c, 11, 50, 0
12, 61080, Note_on_c, 11, 51, 67
12, 61110, Note_on_c, 11, 51, 0
12, 61110, Note_on_c, 11, 48, 46
12, 61140, Note_on_c, 11, 48, 0
12, 61140, Note_on_c, 11, 50, 40
12, 61170, Note_on_c, 11, 50, 0
12, 61170, Note_on_c, 11, 51, 62
12, 61200, Note_on_c, 11, 51, 0
12, 61200, Note_on_c, 11, 53, 56
12, 61230, Note_on_c, 11, 53, 0
12, 61230, Note_on_c, 11, 50, 31
12, 61260, Note_on_c, 11, 50, 0
12, 61260, Note_on_c, 11, 51, 61
12, 61290, Note_on_c, 11, 51, 0
12, 61290, Note_on_c, 11, 53, 46
12, 61320, Note_on_c, 11, 53, 0
12, 61320, Note_on_c, 11, 55, 48
12, 61350, Note_on_c, 11, 55, 0
12, 61350, Note_on_c, 11, 53, 52
12, 61380, Note_on_c, 11, 53, 0
12, 61380, Note_on_c, 11, 51, 54
12, 61410, Note_on_c, 11, 51, 0
12, 61410, Note_on_c, 11, 50, 46
12, 61440, Note_on_c, 11, 50, 0
12, 61440, Note_on_c, 11, 48, 48
12, 61470, Note_on_c, 11, 48, 0
12, 61470, Note_on_c, 11, 55, 71
12, 61500, Note_on_c, 11, 55, 0
12, 61500, Note_on_c, 11, 60, 62
12, 61530, Note_on_c, 11, 60, 0
12, 61530, Note_on_c, 11, 58, 62
12, 61560, Note_on_c, 11, 58, 0
12, 61560, Note_on_c, 11, 56, 39
12, 61590, Note_on_c, 11, 56, 0
12, 61590, Note_on_c, 11, 56, 58
12, 61620, Note_on_c, 11, 56, 0
12, 61620, Note_on_c, 11, 55, 55
12, 61650, Note_on_c, 11, 55, 0
12, 61650, Note_on_c, 11, 53, 43
12, 61680, Note_on_c, 11, 53, 0
12, 61680, Note_on_c, 11, 52, 55
12, 61740, Note_on_c, 11, 52, 0
12, 61740, Note_on_c, 11, 60, 41
12, 61800, Note_on_c, 11, 60, 0
12, 61800, Note_on_c, 11, 60, 45
12, 61830, Note_on_c, 11, 60, 0
12, 61860, Note_on_c, 11, 60, 59
12, 61890, Note_on_c, 11, 60, 0
12, 61920, Note_on_c, 11, 53, 42
12, 62040, Note_on_c, 11, 53, 0
12, 62100, Note_on_c, 11, 65, 48
12, 62220, Note_on_c, 11, 65, 0
12, 62220, Note_on_c, 11, 65, 43
12, 62280, Note_on_c, 11, 65, 0
12, 62280, Note_on_c, 11, 64, 40
12, 62340, Note_on_c, 11, 64, 0
12, 62340, Note_on_c, 11, 60, 44
12, 62400, Note_on_c, 11, 60, 0
12, 62400, Note_on_c, 11, 65, 38
12, 62460, Note_on_c, 11, 65, 0
12, 62460, Note_on_c, 11, 53, 36
12, 62520, Note_on_c, 11, 53, 0
12, 62520, Note_on_c, 11, 65, 43
12, 62580, Note_on_c, 11, 65, 0
12, 62580, Note_on_c, 11, 65, 40
12, 62640, Note_on_c, 11, 65, 0
12, 62640, Note_on_c, 11, 68, 58
12, 62700, Note_on_c, 11, 68, 0
12, 62700, Note_on_c, 11, 59, 67
12, 62760, Note_on_c, 11, 59, 0
12, 62760, Note_on_c, 11, 59, 84
12, 62790, Note_on_c, 11, 59, 0
12, 62820, Note_on_c, 11, 59, 71
12, 62850, Note_on_c, 11, 59, 0
12, 62880, Note_on_c, 11, 60, 67
12, 63000, Note_on_c, 11, 60, 0
12, 63000, Note_on_c, 11, 62, 78
12, 63030, Note_on_c, 11, 62, 0
12, 63030, Note_on_c, 11, 60, 64
12, 63060, Note_on_c, 11, 60, 0
12, 63060, Note_on_c, 11, 59, 68
12, 63090, Note_on_c, 11, 59, 0
12, 63090, Note_on_c, 11, 60, 69
12, 63120, Note_on_c, 11, 60, 0
12, 63120, Note_on_c, 11, 62, 65
12, 63150, Note_on_c, 11, 62, 0
12, 63180, Note_on_c, 11, 62, 69
12, 63210, Note_on_c, 11, 62, 0
12, 63240, Note_on_c, 11, 63, 74
12, 63270, Note_on_c, 11, 63, 0
12, 63270, Note_on_c, 11, 62, 90
12, 63300, Note_on_c, 11, 62, 0
12, 63300, Note_on_c, 11, 60, 73
12, 63330, Note_on_c, 11, 60, 0
12, 63330, Note_on_c, 11, 62, 86
12, 63360, Note_on_c, 11, 62, 0
12, 63360, Note_on_c, 11, 63, 76
12, 63540, Note_on_c, 11, 63, 0
12, 63540, Note_on_c, 11, 63, 74
12, 63600, Note_on_c, 11, 63, 0
12, 63600, Note_on_c, 11, 64, 84
12, 63630, Note_on_c, 11, 64, 0
12, 63660, Note_on_c, 11, 64, 90
12, 63690, Note_on_c, 11, 64, 0
12, 63720, Note_on_c, 11, 65, 72
12, 63750, Note_on_c, 11, 65, 0
12, 63750, Note_on_c, 11, 64, 95
12, 63780, Note_on_c, 11, 64, 0
12, 63780, Note_on_c, 11, 62, 95
12, 63810, Note_on_c, 11, 62, 0
12, 63810, Note_on_c, 11, 64, 94
12, 63840, Note_on_c, 11, 64, 0
12, 63840, Note_on_c, 11, 65, 73
12, 64020, Note_on_c, 11, 65, 0
12, 64020, Note_on_c, 11, 65, 80
12, 64080, Note_on_c, 11, 65, 0
12, 64080, Note_on_c, 11, 65, 86
12, 64140, Note_on_c, 11, 65, 0
12, 64140, Note_on_c, 11, 65, 89
12, 64200, Note_on_c, 11, 65, 0
12, 64200, Note_on_c, 11, 65, 85
12, 64260, Note_on_c, 11, 65, 0
12, 64260, Note_on_c, 11, 66, 90
12, 64320, Note_on_c, 11, 66, 0
12, 64320, Note_on_c, 11, 62, 98
12, 64380, Note_on_c, 11, 62, 0
12, 64380, Note_on_c, 11, 62, 95
12, 64380, Note_on_c, 11, 59, 98
12, 64440, Note_on_c, 11, 59, 0
12, 64440, Note_on_c, 11, 62, 0
12, 64440, Note_on_c, 11, 59, 89
12, 64440, Note_on_c, 11, 62, 99
12, 64500, Note_on_c, 11, 62, 0
12, 64500, Note_on_c, 11, 59, 0
12, 64500, Note_on_c, 11, 59, 93
12, 64500, Note_on_c, 11, 62, 98
12, 64560, Note_on_c, 11, 62, 0
12, 64560, Note_on_c, 11, 59, 0
12, 64560, Note_on_c, 11, 60, 86
12, 64560, Note_on_c, 11, 63, 94
12, 64620, Note_on_c, 11, 63, 0
12, 64620, Note_on_c, 11, 60, 0
12, 64620, Note_on_c, 11, 60, 93
12, 64620, Note_on_c, 11, 63, 94
12, 64680, Note_on_c, 11, 63, 0
12, 64680, Note_on_c, 11, 60, 0
12, 64680, Note_on_c, 11, 60, 93
12, 64680, Note_on_c, 11, 63, 95
12, 64740, Note_on_c, 11, 63, 0
12, 64740, Note_on_c, 11, 60, 0
12, 64740, Note_on_c, 11, 60, 90
12, 64740, Note_on_c, 11, 63, 98
12, 64800, Note_on_c, 11, 63, 0
12, 64800, Note_on_c, 11, 60, 0
12, 64800, Note_on_c, 11, 59, 94
12, 64800, Note_on_c, 11, 62, 98
12, 64860, Note_on_c, 11, 62, 0
12, 64860, Note_on_c, 11, 59, 0
12, 64860, Note_on_c, 11, 59, 94
12, 64860, Note_on_c, 11, 62, 99
12, 64920, Note_on_c, 11, 62, 0
12, 64920, Note_on_c, 11, 59, 0
12, 64920, Note_on_c, 11, 59, 94
12, 64920, Note_on_c, 11, 62, 98
12, 64980, Note_on_c, 11, 62, 0
12, 64980, Note_on_c, 11, 59, 0
12, 64980, Note_on_c, 11, 59, 94
12, 64980, Note_on_c, 11, 62, 99
12, 65040, Note_on_c, 11, 62, 0
12, 65040, Note_on_c, 11, 59, 0
12, 65040, Note_on_c, 11, 60, 86
12, 65040, Note_on_c, 11, 63, 94
12, 65070, Note_on_c, 11, 63, 0
12, 65070, Note_on_c, 11, 60, 0
12, 65070, Note_on_c, 11, 60, 85
12, 65070, Note_on_c, 11, 63, 95
12, 65100, Note_on_c, 11, 63, 0
12, 65100, Note_on_c, 11, 60, 0
12, 65100, Note_on_c, 11, 60, 84
12, 65100, Note_on_c, 11, 63, 93
12, 65130, Note_on_c, 11, 63, 0
12, 65130, Note_on_c, 11, 60, 0
12, 65130, Note_on_c, 11, 60, 84
12, 65130, Note_on_c, 11, 63, 93
12, 65160, Note_on_c, 11, 63, 0
12, 65160, Note_on_c, 11, 60, 0
12, 65160, Note_on_c, 11, 60, 89
12, 65160, Note_on_c, 11, 63, 93
12, 65190, Note_on_c, 11, 63, 0
12, 65190, Note_on_c, 11, 60, 0
12, 65190, Note_on_c, 11, 60, 89
12, 65190, Note_on_c, 11, 63, 93
12, 65220, Note_on_c, 11, 63, 0
12, 65220, Note_on_c, 11, 60, 0
12, 65220, Note_on_c, 11, 60, 84
12, 65220, Note_on_c, 11, 63, 95
12, 65250, Note_on_c, 11, 63, 0
12, 65250, Note_on_c, 11, 60, 0
12, 65250, Note_on_c, 11, 60, 89
12, 65250, Note_on_c, 11, 63, 94
12, 65280, Note_on_c, 11, 63, 0
12, 65280, Note_on_c, 11, 60, 0
12, 65280, Note_on_c, 11, 62, 72
12, 65280, Note_on_c, 11, 59, 80
12, 65340, Note_on_c, 11, 59, 0
12, 65340, Note_on_c, 11, 62, 0
12, 65340, Note_on_c, 11, 55, 55
12, 65400, Note_on_c, 11, 55, 0
12, 65400, Note_on_c, 11, 55, 50
12, 65460, Note_on_c, 11, 55, 0
12, 65460, Note_on_c, 11, 55, 49
12, 65520, Note_on_c, 11, 55, 0
12, 65520, Note_on_c, 11, 55, 50
12, 65580, Note_on_c, 11, 55, 0
12, 65580, Note_on_c, 11, 55, 46
12, 65640, Note_on_c, 11, 55, 0
12, 65640, Note_on_c, 11, 55, 47
12, 65700, Note_on_c, 11, 55, 0
12, 65700, Note_on_c, 11, 55, 57
12, 65760, Note_on_c, 11, 55, 0
12, 65760, Note_on_c, 11, 56, 74
12, 65820, Note_on_c, 11, 56, 0
12, 65820, Note_on_c, 11, 56, 41
12, 65880, Note_on_c, 11, 56, 0
12, 65880, Note_on_c, 11, 56, 46
12, 65940, Note_on_c, 11, 56, 0
12, 65940, Note_on_c, 11, 56, 53
12, 66000, Note_on_c, 11, 56, 0
12, 66000, Note_on_c, 11, 56, 45
12, 66060, Note_on_c, 11, 56, 0
12, 66060, Note_on_c, 11, 56, 47
12, 66120, Note_on_c, 11, 56, 0
12, 66120, Note_on_c, 11, 56, 45
12, 66180, Note_on_c, 11, 56, 0
12, 66180, Note_on_c, 11, 56, 58
12, 66240, Note_on_c, 11, 56, 0
12, 66240, Note_on_c, 11, 56, 50
12, 66300, Note_on_c, 11, 56, 0
12, 68160, Note_on_c, 11, 59, 38
12, 68640, Note_on_c, 11, 59, 0
12, 68640, Note_on_c, 11, 63, 29
12, 68880, Note_on_c, 11, 63, 0
12, 68880, Note_on_c, 11, 59, 29
12, 69000, Note_on_c, 11, 59, 0
12, 69000, Note_on_c, 11, 64, 36
12, 69120, Note_on_c, 11, 64, 0
12, 69120, Note_on_c, 11, 59, 29
12, 69600, Note_on_c, 11, 59, 0
12, 69600, Note_on_c, 11, 57, 38
12, 69840, Note_on_c, 11, 57, 0
12, 69840, Note_on_c, 11, 56, 29
12, 70080, Note_on_c, 11, 56, 0
12, 70080, Note_on_c, 11, 57, 35
12, 70320, Note_on_c, 11, 57, 0
12, 70320, Note_on_c, 11, 56, 31
12, 70380, Note_on_c, 11, 56, 0
12, 71940, Note_on_c, 11, 67, 33
12, 72000, Note_on_c, 11, 67, 0
12, 72000, Note_on_c, 11, 68, 30
12, 72060, Note_on_c, 11, 68, 0
12, 72060, Note_on_c, 11, 59, 29
12, 72120, Note_on_c, 11, 59, 0
12, 72900, Note_on_c, 11, 67, 33
12, 72960, Note_on_c, 11, 67, 0
12, 72960, Note_on_c, 11, 68, 46
12, 73020, Note_on_c, 11, 68, 0
12, 73020, Note_on_c, 11, 59, 50
12, 73080, Note_on_c, 11, 59, 0
12, 73440, Note_on_c, 11, 68, 42
12, 73500, Note_on_c, 11, 68, 0
12, 73500, Note_on_c, 11, 59, 33
12, 73560, Note_on_c, 11, 59, 0
12, 73920, Note_on_c, 11, 67, 29
12, 73980, Note_on_c, 11, 67, 0
12, 73980, Note_on_c, 11, 59, 30
12, 74040, Note_on_c, 11, 59, 0
12, 74040, Note_on_c, 11, 67, 43
12, 74100, Note_on_c, 11, 67, 0
12, 74100, Note_on_c, 11, 59, 43
12, 74160, Note_on_c, 11, 59, 0
12, 74160, Note_on_c, 11, 67, 41
12, 74220, Note_on_c, 11, 67, 0
12, 75720, Program_c, 11, 45
12, 76080, Note_on_c, 11, 55, 74
12, 76200, Note_on_c, 11, 55, 0
12, 76320, Note_on_c, 11, 55, 74
12, 76440, Note_on_c, 11, 55, 0
12, 76560, Note_on_c, 11, 55, 68
12, 76680, Note_on_c, 11, 55, 0
12, 76680, Note_on_c, 11, 55, 73
12, 76800, Note_on_c, 11, 55, 0
12, 76800, Note_on_c, 11, 55, 78
12, 76920, Note_on_c, 11, 55, 0
12, 77040, Note_on_c, 11, 55, 76
12, 77160, Note_on_c, 11, 55, 0
12, 77280, Note_on_c, 11, 55, 81
12, 77400, Note_on_c, 11, 55, 0
12, 77460, Note_on_c, 11, 55, 73
12, 77520, Note_on_c, 11, 55, 0
12, 77520, Note_on_c, 11, 62, 66
12, 77640, Note_on_c, 11, 62, 0
12, 77640, Note_on_c, 11, 62, 82
12, 77760, Note_on_c, 11, 62, 0
12, 77760, Note_on_c, 11, 62, 86
12, 77880, Note_on_c, 11, 62, 0
12, 77880, Program_c, 11, 48
12, 78000, Note_on_c, 11, 59, 99
12, 78030, Note_on_c, 11, 59, 0
12, 78030, Note_on_c, 11, 55, 90
12, 78060, Note_on_c, 11, 55, 0
12, 78060, Note_on_c, 11, 59, 101
12, 78090, Note_on_c, 11, 59, 0
12, 78090, Note_on_c, 11, 62, 93
12, 78120, Note_on_c, 11, 62, 0
12, 78120, Note_on_c, 11, 67, 77
12, 78150, Note_on_c, 11, 67, 0
12, 78150, Note_on_c, 11, 65, 90
12, 78180, Note_on_c, 11, 65, 0
12, 78180, Note_on_c, 11, 63, 94
12, 78210, Note_on_c, 11, 63, 0
12, 78210, Note_on_c, 11, 62, 99
12, 78240, Note_on_c, 11, 62, 0
12, 78240, Note_on_c, 11, 63, 94
12, 78270, Note_on_c, 11, 63, 0
12, 78270, Note_on_c, 11, 67, 80
12, 78300, Note_on_c, 11, 67, 0
12, 78300, Note_on_c, 11, 66, 89
12, 78330, Note_on_c, 11, 66, 0
12, 78330, Note_on_c, 11, 67, 80
12, 78360, Note_on_c, 11, 67, 0
12, 78360, Note_on_c, 11, 65, 93
12, 78390, Note_on_c, 11, 65, 0
12, 78390, Note_on_c, 11, 63, 86
12, 78420, Note_on_c, 11, 63, 0
12, 78420, Note_on_c, 11, 62, 93
12, 78450, Note_on_c, 11, 62, 0
12, 78450, Note_on_c, 11, 60, 101
12, 78480, Note_on_c, 11, 60, 0
12, 78480, Note_on_c, 11, 59, 101
12, 78510, Note_on_c, 11, 59, 0
12, 78510, Note_on_c, 11, 55, 86
12, 78540, Note_on_c, 11, 55, 0
12, 78540, Note_on_c, 11, 59, 94
12, 78570, Note_on_c, 11, 59, 0
12, 78570, Note_on_c, 11, 55, 85
12, 78600, Note_on_c, 11, 55, 0
12, 78600, Note_on_c, 11, 60, 95
12, 78630, Note_on_c, 11, 60, 0
12, 78630, Note_on_c, 11, 55, 84
12, 78660, Note_on_c, 11, 55, 0
12, 78660, Note_on_c, 11, 60, 94
12, 78690, Note_on_c, 11, 60, 0
12, 78690, Note_on_c, 11, 55, 84
12, 78720, Note_on_c, 11, 55, 0
12, 78720, Note_on_c, 11, 59, 93
12, 78750, Note_on_c, 11, 59, 0
12, 78750, Note_on_c, 11, 55, 89
12, 78780, Note_on_c, 11, 55, 0
12, 78780, Note_on_c, 11, 59, 95
12, 78810, Note_on_c, 11, 59, 0
12, 78810, Note_on_c, 11, 55, 93
12, 78840, Note_on_c, 11, 55, 0
12, 78840, Note_on_c, 11, 59, 94
12, 78870, Note_on_c, 11, 59, 0
12, 78870, Note_on_c, 11, 55, 94
12, 78900, Note_on_c, 11, 55, 0
12, 78900, Note_on_c, 11, 59, 99
12, 78930, Note_on_c, 11, 59, 0
12, 78930, Note_on_c, 11, 55, 95
12, 78960, Note_on_c, 11, 55, 0
12, 78960, Note_on_c, 11, 59, 95
12, 78990, Note_on_c, 11, 59, 0
12, 78990, Note_on_c, 11, 55, 89
12, 79020, Note_on_c, 11, 55, 0
12, 79020, Note_on_c, 11, 59, 95
12, 79050, Note_on_c, 11, 59, 0
12, 79050, Note_on_c, 11, 62, 98
12, 79080, Note_on_c, 11, 62, 0
12, 79080, Note_on_c, 11, 67, 76
12, 79110, Note_on_c, 11, 67, 0
12, 79110, Note_on_c, 11, 65, 82
12, 79140, Note_on_c, 11, 65, 0
12, 79140, Note_on_c, 11, 63, 89
12, 79170, Note_on_c, 11, 63, 0
12, 79170, Note_on_c, 11, 62, 90
12, 79200, Note_on_c, 11, 62, 0
12, 79200, Note_on_c, 11, 63, 93
12, 79230, Note_on_c, 11, 63, 0
12, 79230, Note_on_c, 11, 67, 76
12, 79260, Note_on_c, 11, 67, 0
12, 79260, Note_on_c, 11, 66, 84
12, 79290, Note_on_c, 11, 66, 0
12, 79290, Note_on_c, 11, 67, 78
12, 79320, Note_on_c, 11, 67, 0
12, 79320, Note_on_c, 11, 65, 80
12, 79350, Note_on_c, 11, 65, 0
12, 79350, Note_on_c, 11, 63, 89
12, 79380, Note_on_c, 11, 63, 0
12, 79380, Note_on_c, 11, 62, 94
12, 79410, Note_on_c, 11, 62, 0
12, 79410, Note_on_c, 11, 60, 94
12, 79440, Note_on_c, 11, 60, 0
12, 79440, Note_on_c, 11, 65, 89
12, 79470, Note_on_c, 11, 65, 0
12, 79470, Note_on_c, 11, 64, 94
12, 79500, Note_on_c, 11, 64, 0
12, 79500, Note_on_c, 11, 65, 89
12, 79530, Note_on_c, 11, 65, 0
12, 79530, Note_on_c, 11, 66, 78
12, 79560, Note_on_c, 11, 66, 0
12, 79560, Note_on_c, 11, 67, 78
12, 79590, Note_on_c, 11, 67, 0
12, 79590, Note_on_c, 11, 65, 80
12, 79620, Note_on_c, 11, 65, 0
12, 79620, Note_on_c, 11, 63, 89
12, 79650, Note_on_c, 11, 63, 0
12, 79650, Note_on_c, 11, 62, 95
12, 79680, Note_on_c, 11, 62, 0
12, 79680, Note_on_c, 11, 63, 86
12, 79710, Note_on_c, 11, 63, 0
12, 79710, Note_on_c, 11, 63, 90
12, 79740, Note_on_c, 11, 63, 0
12, 79740, Note_on_c, 11, 65, 81
12, 79770, Note_on_c, 11, 65, 0
12, 79770, Note_on_c, 11, 67, 85
12, 79800, Note_on_c, 11, 67, 0
12, 79800, Note_on_c, 11, 68, 119
12, 79950, Note_on_c, 11, 68, 0
12, 79950, Note_on_c, 11, 65, 85
12, 79980, Note_on_c, 11, 65, 0
12, 79980, Note_on_c, 11, 64, 98
12, 80010, Note_on_c, 11, 64, 0
12, 80010, Note_on_c, 11, 65, 90
12, 80040, Note_on_c, 11, 65, 0
12, 80040, Note_on_c, 11, 67, 84
12, 80070, Note_on_c, 11, 67, 0
12, 80070, Note_on_c, 11, 66, 84
12, 80100, Note_on_c, 11, 66, 0
12, 80100, Note_on_c, 11, 67, 84
12, 80130, Note_on_c, 11, 67, 0
12, 80130, Note_on_c, 11, 55, 98
12, 80160, Note_on_c, 11, 55, 0
12, 80160, Note_on_c, 11, 60, 95
12, 80190, Note_on_c, 11, 60, 0
12, 80190, Note_on_c, 11, 63, 94
12, 80220, Note_on_c, 11, 63, 0
12, 80220, Note_on_c, 11, 65, 94
12, 80250, Note_on_c, 11, 65, 0
12, 80250, Note_on_c, 11, 67, 89
12, 80280, Note_on_c, 11, 67, 0
12, 80280, Note_on_c, 11, 68, 119
12, 80430, Note_on_c, 11, 68, 0
12, 80430, Note_on_c, 11, 65, 93
12, 80460, Note_on_c, 11, 65, 0
12, 80460, Note_on_c, 11, 64, 95
12, 80490, Note_on_c, 11, 64, 0
12, 80490, Note_on_c, 11, 65, 89
12, 80520, Note_on_c, 11, 65, 0
12, 80520, Note_on_c, 11, 67, 80
12, 80550, Note_on_c, 11, 67, 0
12, 80550, Note_on_c, 11, 66, 84
12, 80580, Note_on_c, 11, 66, 0
12, 80580, Note_on_c, 11, 67, 80
12, 80610, Note_on_c, 11, 67, 0
12, 80610, Note_on_c, 11, 55, 95
12, 80640, Note_on_c, 11, 55, 0
12, 80640, Note_on_c, 11, 60, 99
12, 80700, Note_on_c, 11, 60, 0
12, 80760, Note_on_c, 11, 55, 89
12, 80820, Note_on_c, 11, 55, 0
12, 80880, Note_on_c, 11, 48, 89
12, 80940, Note_on_c, 11, 48, 0
12, 84060, Note_on_c, 11, 60, 64
12, 84120, Note_on_c, 11, 60, 0
12, 84120, Note_on_c, 11, 60, 60
12, 84180, Note_on_c, 11, 60, 0
12, 84180, Note_on_c, 11, 60, 67
12, 84240, Note_on_c, 11, 60, 0
12, 84300, Note_on_c, 11, 62, 58
12, 84360, Note_on_c, 11, 62, 0
12, 84360, Note_on_c, 11, 62, 64
12, 84420, Note_on_c, 11, 62, 0
12, 84420, Note_on_c, 11, 62, 65
12, 84480, Note_on_c, 11, 62, 0
12, 84540, Note_on_c, 11, 60, 57
12, 84600, Note_on_c, 11, 60, 0
12, 84600, Note_on_c, 11, 60, 67
12, 84660, Note_on_c, 11, 60, 0
12, 84660, Note_on_c, 11, 60, 67
12, 84720, Note_on_c, 11, 60, 0
12, 84780, Note_on_c, 11, 62, 62
12, 84840, Note_on_c, 11, 62, 0
12, 84840, Note_on_c, 11, 62, 69
12, 84900, Note_on_c, 11, 62, 0
12, 84900, Note_on_c, 11, 62, 69
12, 84960, Note_on_c, 11, 62, 0
12, 85020, Note_on_c, 11, 64, 69
12, 85080, Note_on_c, 11, 64, 0
12, 85080, Note_on_c, 11, 64, 69
12, 85140, Note_on_c, 11, 64, 0
12, 85140, Note_on_c, 11, 64, 72
12, 85200, Note_on_c, 11, 64, 0
12, 85260, Note_on_c, 11, 57, 65
12, 85320, Note_on_c, 11, 57, 0
12, 85320, Note_on_c, 11, 57, 80
12, 85380, Note_on_c, 11, 57, 0
12, 85380, Note_on_c, 11, 57, 77
12, 85440, Note_on_c, 11, 57, 0
12, 85500, Note_on_c, 11, 57, 70
12, 85560, Note_on_c, 11, 57, 0
12, 85560, Note_on_c, 11, 57, 76
12, 85620, Note_on_c, 11, 57, 0
12, 85620, Note_on_c, 11, 57, 81
12, 85680, Note_on_c, 11, 57, 0
12, 85680, Note_on_c, 11, 55, 73
12, 85800, Note_on_c, 11, 55, 0
12, 85920, Note_on_c, 11, 52, 69
12, 85935, Note_on_c, 11, 52, 0
12, 85950, Note_on_c, 11, 60, 57
12, 85965, Note_on_c, 11, 60, 0
12, 85980, Note_on_c, 11, 55, 43
12, 85995, Note_on_c, 11, 55, 0
12, 86010, Note_on_c, 11, 60, 59
12, 86025, Note_on_c, 11, 60, 0
12, 86040, Note_on_c, 11, 52, 72
12, 86055, Note_on_c, 11, 52, 0
12, 86070, Note_on_c, 11, 60, 55
12, 86085, Note_on_c, 11, 60, 0
12, 86100, Note_on_c, 11, 55, 62
12, 86115, Note_on_c, 11, 55, 0
12, 86130, Note_on_c, 11, 60, 61
12, 86145, Note_on_c, 11, 60, 0
12, 86160, Note_on_c, 11, 53, 72
12, 86175, Note_on_c, 11, 53, 0
12, 86190, Note_on_c, 11, 59, 65
12, 86205, Note_on_c, 11, 59, 0
12, 86220, Note_on_c, 11, 55, 73
12, 86235, Note_on_c, 11, 55, 0
12, 86250, Note_on_c, 11, 59, 65
12, 86265, Note_on_c, 11, 59, 0
12, 86280, Note_on_c, 11, 53, 59
12, 86295, Note_on_c, 11, 53, 0
12, 86310, Note_on_c, 11, 59, 68
12, 86325, Note_on_c, 11, 59, 0
12, 86340, Note_on_c, 11, 55, 55
12, 86355, Note_on_c, 11, 55, 0
12, 86370, Note_on_c, 11, 53, 67
12, 86385, Note_on_c, 11, 53, 0
12, 86400, Note_on_c, 11, 52, 80
12, 86415, Note_on_c, 11, 52, 0
12, 86430, Note_on_c, 11, 60, 56
12, 86445, Note_on_c, 11, 60, 0
12, 86460, Note_on_c, 11, 57, 77
12, 86475, Note_on_c, 11, 57, 0
12, 86490, Note_on_c, 11, 60, 62
12, 86505, Note_on_c, 11, 60, 0
12, 86520, Note_on_c, 11, 52, 68
12, 86535, Note_on_c, 11, 52, 0
12, 86550, Note_on_c, 11, 60, 53
12, 86565, Note_on_c, 11, 60, 0
12, 86580, Note_on_c, 11, 57, 89
12, 86595, Note_on_c, 11, 57, 0
12, 86610, Note_on_c, 11, 60, 58
12, 86625, Note_on_c, 11, 60, 0
12, 86640, Note_on_c, 11, 53, 104
12, 86655, Note_on_c, 11, 53, 0
12, 86670, Note_on_c, 11, 57, 71
12, 86685, Note_on_c, 11, 57, 0
12, 86700, Note_on_c, 11, 62, 45
12, 86715, Note_on_c, 11, 62, 0
12, 86730, Note_on_c, 11, 61, 59
12, 86745, Note_on_c, 11, 61, 0
12, 86760, Note_on_c, 11, 62, 66
12, 86775, Note_on_c, 11, 62, 0
12, 86790, Note_on_c, 11, 60, 44
12, 86805, Note_on_c, 11, 60, 0
12, 86820, Note_on_c, 11, 59, 68
12, 86835, Note_on_c, 11, 59, 0
12, 86850, Note_on_c, 11, 57, 80
12, 86865, Note_on_c, 11, 57, 0
12, 86880, Note_on_c, 11, 56, 63
12, 86895, Note_on_c, 11, 56, 0
12, 86910, Note_on_c, 11, 59, 43
12, 86925, Note_on_c, 11, 59, 0
12, 86940, Note_on_c, 11, 56, 68
12, 86955, Note_on_c, 11, 56, 0
12, 86970, Note_on_c, 11, 59, 66
12, 86985, Note_on_c, 11, 59, 0
12, 87000, Note_on_c, 11, 55, 64
12, 87015, Note_on_c, 11, 55, 0
12, 87030, Note_on_c, 11, 61, 58
12, 87045, Note_on_c, 11, 61, 0
12, 87060, Note_on_c, 11, 55, 68
12, 87075, Note_on_c, 11, 55, 0
12, 87090, Note_on_c, 11, 61, 62
12, 87105, Note_on_c, 11, 61, 0
12, 87120, Note_on_c, 11, 57, 119
12, 87135, Note_on_c, 11, 57, 0
12, 87150, Note_on_c, 11, 62, 59
12, 87165, Note_on_c, 11, 62, 0
12, 87180, Note_on_c, 11, 65, 58
12, 87195, Note_on_c, 11, 65, 0
12, 87210, Note_on_c, 11, 69, 53
12, 87225, Note_on_c, 11, 69, 0
12, 87240, Note_on_c, 11, 65, 72
12, 87255, Note_on_c, 11, 65, 0
12, 87270, Note_on_c, 11, 62, 61
12, 87285, Note_on_c, 11, 62, 0
12, 87300, Note_on_c, 11, 57, 67
12, 87315, Note_on_c, 11, 57, 0
12, 87330, Note_on_c, 11, 53, 53
12, 87345, Note_on_c, 11, 53, 0
12, 87360, Note_on_c, 11, 52, 73
12, 87375, Note_on_c, 11, 52, 0
12, 87390, Note_on_c, 11, 55, 59
12, 87405, Note_on_c, 11, 55, 0
12, 87420, Note_on_c, 11, 52, 50
12, 87435, Note_on_c, 11, 52, 0
12, 87450, Note_on_c, 11, 55, 58
12, 87465, Note_on_c, 11, 55, 0
12, 87480, Note_on_c, 11, 53, 62
12, 87495, Note_on_c, 11, 53, 0
12, 87510, Note_on_c, 11, 55, 62
12, 87525, Note_on_c, 11, 55, 0
12, 87540, Note_on_c, 11, 53, 63
12, 87555, Note_on_c, 11, 53, 0
12, 87570, Note_on_c, 11, 55, 67
12, 87585, Note_on_c, 11, 55, 0
12, 87600, Note_on_c, 11, 52, 65
12, 87660, Note_on_c, 11, 52, 0
12, 88740, Note_on_c, 11, 60, 66
12, 88800, Note_on_c, 11, 60, 0
12, 88800, Note_on_c, 11, 48, 68
12, 88860, Note_on_c, 11, 48, 0
12, 88980, Note_on_c, 11, 60, 71
12, 89040, Note_on_c, 11, 60, 0
12, 89040, Note_on_c, 11, 48, 76
12, 89100, Note_on_c, 11, 48, 0
12, 89220, Note_on_c, 11, 60, 61
12, 89280, Note_on_c, 11, 60, 0
12, 89280, Note_on_c, 11, 48, 76
12, 89340, Note_on_c, 11, 48, 0
12, 89520, Note_on_c, 11, 60, 65
12, 89580, Note_on_c, 11, 60, 0
12, 89640, Note_on_c, 11, 57, 84
12, 89700, Note_on_c, 11, 57, 0
12, 89760, Note_on_c, 11, 53, 72
12, 89820, Note_on_c, 11, 53, 0
12, 89880, Note_on_c, 11, 50, 84
12, 89940, Note_on_c, 11, 50, 0
12, 90000, Note_on_c, 11, 59, 67
12, 90060, Note_on_c, 11, 59, 0
12, 92880, Note_on_c, 11, 56, 64
12, 92940, Note_on_c, 11, 56, 0
12, 93360, Note_on_c, 11, 56, 61
12, 93420, Note_on_c, 11, 56, 0
12, 93840, Note_on_c, 11, 56, 38
12, 93900, Note_on_c, 11, 56, 0
12, 94800, Note_on_c, 11, 56, 35
12, 95280, Note_on_c, 11, 56, 0
12, 95280, Note_on_c, 11, 56, 43
12, 95520, Note_on_c, 11, 56, 0
12, 95520, Note_on_c, 11, 56, 33
12, 95700, Note_on_c, 11, 56, 0
12, 95820, Note_on_c, 11, 63, 42
12, 95880, Note_on_c, 11, 63, 0
12, 95880, Note_on_c, 11, 63, 53
12, 95940, Note_on_c, 11, 63, 0
12, 95940, Note_on_c, 11, 63, 57
12, 96000, Note_on_c, 11, 63, 0
12, 96060, Note_on_c, 11, 61, 43
12, 96120, Note_on_c, 11, 61, 0
12, 96120, Note_on_c, 11, 61, 56
12, 96180, Note_on_c, 11, 61, 0
12, 96180, Note_on_c, 11, 61, 58
12, 96240, Note_on_c, 11, 61, 0
12, 96300, Note_on_c, 11, 65, 53
12, 96360, Note_on_c, 11, 65, 0
12, 96360, Note_on_c, 11, 65, 65
12, 96420, Note_on_c, 11, 65, 0
12, 96420, Note_on_c, 11, 65, 49
12, 96480, Note_on_c, 11, 65, 0
12, 96540, Note_on_c, 11, 63, 51
12, 96600, Note_on_c, 11, 63, 0
12, 96600, Note_on_c, 11, 63, 56
12, 96660, Note_on_c, 11, 63, 0
12, 96660, Note_on_c, 11, 63, 65
12, 96720, Note_on_c, 11, 63, 0
12, 96780, Note_on_c, 11, 61, 44
12, 96780, Note_on_c, 11, 58, 64
12, 96840, Note_on_c, 11, 58, 0
12, 96840, Note_on_c, 11, 61, 0
12, 96840, Note_on_c, 11, 61, 54
12, 96840, Note_on_c, 11, 58, 67
12, 96900, Note_on_c, 11, 58, 0
12, 96900, Note_on_c, 11, 61, 0
12, 96900, Note_on_c, 11, 61, 46
12, 96900, Note_on_c, 11, 58, 67
12, 96960, Note_on_c, 11, 58, 0
12, 96960, Note_on_c, 11, 61, 0
12, 97020, Note_on_c, 11, 60, 53
12, 97020, Note_on_c, 11, 56, 64
12, 97080, Note_on_c, 11, 56, 0
12, 97080, Note_on_c, 11, 60, 0
12, 97080, Note_on_c, 11, 60, 53
12, 97080, Note_on_c, 11, 56, 65
12, 97140, Note_on_c, 11, 56, 0
12, 97140, Note_on_c, 11, 60, 0
12, 97140, Note_on_c, 11, 60, 46
12, 97140, Note_on_c, 11, 56, 61
12, 97200, Note_on_c, 11, 56, 0
12, 97200, Note_on_c, 11, 60, 0
12, 97260, Note_on_c, 11, 56, 69
12, 97260, Note_on_c, 11, 60, 57
12, 97320, Note_on_c, 11, 60, 0
12, 97320, Note_on_c, 11, 56, 0
12, 97320, Note_on_c, 11, 56, 60
12, 97320, Note_on_c, 11, 60, 50
12, 97380, Note_on_c, 11, 60, 0
12, 97380, Note_on_c, 11, 56, 0
12, 97380, Note_on_c, 11, 60, 46
12, 97380, Note_on_c, 11, 56, 57
12, 97440, Note_on_c, 11, 56, 0
12, 97440, Note_on_c, 11, 60, 0
12, 97440, Note_on_c, 11, 55, 53
12, 97440, Note_on_c, 11, 59, 54
12, 97560, Note_on_c, 11, 59, 0
12, 97560, Note_on_c, 11, 55, 0
12, 97560, Note_on_c, 11, 71, 62
12, 97680, Note_on_c, 11, 71, 0
12, 97800, Note_on_c, 11, 69, 63
12, 97920, Note_on_c, 11, 69, 0
12, 98040, Note_on_c, 11, 68, 62
12, 98160, Note_on_c, 11, 68, 0
12, 98280, Note_on_c, 11, 67, 58
12, 98400, Note_on_c, 11, 67, 0
12, 98400, Note_on_c, 11, 57, 67
12, 98430, Note_on_c, 11, 57, 0
12, 98430, Note_on_c, 11, 60, 71
12, 98460, Note_on_c, 11, 60, 0
12, 98460, Note_on_c, 11, 60, 68
12, 98490, Note_on_c, 11, 60, 0
12, 98490, Note_on_c, 11, 60, 69
12, 98520, Note_on_c, 11, 60, 0
12, 98520, Note_on_c, 11, 56, 68
12, 98550, Note_on_c, 11, 56, 0
12, 98550, Note_on_c, 11, 59, 63
12, 98580, Note_on_c, 11, 59, 0
12, 98580, Note_on_c, 11, 59, 78
12, 98610, Note_on_c, 11, 59, 0
12, 98610, Note_on_c, 11, 59, 77
12, 98640, Note_on_c, 11, 59, 0
12, 98640, Note_on_c, 11, 55, 84
12, 98670, Note_on_c, 11, 55, 0
12, 98670, Note_on_c, 11, 58, 76
12, 98700, Note_on_c, 11, 58, 0
12, 98700, Note_on_c, 11, 58, 81
12, 98730, Note_on_c, 11, 58, 0
12, 98730, Note_on_c, 11, 58, 81
12, 98760, Note_on_c, 11, 58, 0
12, 98760, Note_on_c, 11, 54, 93
12, 98790, Note_on_c, 11, 54, 0
12, 98790, Note_on_c, 11, 57, 89
12, 98820, Note_on_c, 11, 57, 0
12, 98820, Note_on_c, 11, 57, 93
12, 98850, Note_on_c, 11, 57, 0
12, 98850, Note_on_c, 11, 57, 89
12, 98880, Note_on_c, 11, 57, 0
12, 98880, Note_on_c, 11, 62, 80
12, 98940, Note_on_c, 11, 62, 0
12, 98940, Note_on_c, 11, 56, 82
12, 99000, Note_on_c, 11, 56, 0
12, 99000, Note_on_c, 11, 55, 89
12, 99060, Note_on_c, 11, 55, 0
12, 99060, Note_on_c, 11, 60, 80
12, 99120, Note_on_c, 11, 60, 0
12, 99120, Note_on_c, 11, 59, 94
12, 99180, Note_on_c, 11, 59, 0
12, 99180, Note_on_c, 11, 63, 73
12, 99240, Note_on_c, 11, 63, 0
12, 99240, Note_on_c, 11, 62, 81
12, 99300, Note_on_c, 11, 62, 0
12, 99300, Note_on_c, 11, 60, 89
12, 99360, Note_on_c, 11, 60, 0
12, 99360, Note_on_c, 11, 59, 89
12, 99420, Note_on_c, 11, 59, 0
12, 99420, Note_on_c, 11, 56, 85
12, 99480, Note_on_c, 11, 56, 0
12, 99480, Note_on_c, 11, 55, 86
12, 99540, Note_on_c, 11, 55, 0
12, 99540, Note_on_c, 11, 60, 85
12, 99600, Note_on_c, 11, 60, 0
12, 99600, Note_on_c, 11, 59, 95
12, 99660, Note_on_c, 11, 59, 0
12, 99660, Note_on_c, 11, 63, 86
12, 99720, Note_on_c, 11, 63, 0
12, 99720, Note_on_c, 11, 62, 85
12, 99780, Note_on_c, 11, 62, 0
12, 99780, Note_on_c, 11, 60, 90
12, 99840, Note_on_c, 11, 60, 0
12, 99840, Note_on_c, 11, 59, 104
12, 99900, Note_on_c, 11, 59, 0
12, 99900, Note_on_c, 11, 56, 99
12, 99960, Note_on_c, 11, 56, 0
12, 99960, Note_on_c, 11, 55, 105
12, 100020, Note_on_c, 11, 55, 0
12, 100020, Note_on_c, 11, 56, 94
12, 100080, Note_on_c, 11, 56, 0
12, 100080, Note_on_c, 11, 55, 99
12, 100140, Note_on_c, 11, 55, 0
12, 100140, Note_on_c, 11, 56, 99
12, 100200, Note_on_c, 11, 56, 0
12, 100200, Note_on_c, 11, 55, 99
12, 100260, Note_on_c, 11, 55, 0
12, 100260, Note_on_c, 11, 56, 95
12, 100320, Note_on_c, 11, 56, 0
12, 100320, Note_on_c, 11, 55, 99
12, 100380, Note_on_c, 11, 55, 0
12, 100380, Note_on_c, 11, 60, 99
12, 100410, Note_on_c, 11, 60, 0
12, 100410, Note_on_c, 11, 60, 95
12, 100440, Note_on_c, 11, 60, 0
12, 100440, Note_on_c, 11, 62, 99
12, 100470, Note_on_c, 11, 62, 0
12, 100470, Note_on_c, 11, 62, 99
12, 100500, Note_on_c, 11, 62, 0
12, 100500, Note_on_c, 11, 60, 99
12, 100530, Note_on_c, 11, 60, 0
12, 100530, Note_on_c, 11, 60, 99
12, 100560, Note_on_c, 11, 60, 0
12, 100560, Note_on_c, 11, 62, 99
12, 100590, Note_on_c, 11, 62, 0
12, 100590, Note_on_c, 11, 62, 99
12, 100620, Note_on_c, 11, 62, 0
12, 100620, Note_on_c, 11, 72, 86
12, 100650, Note_on_c, 11, 72, 0
12, 100650, Note_on_c, 11, 72, 89
12, 100680, Note_on_c, 11, 72, 0
12, 100680, Note_on_c, 11, 71, 99
12, 100710, Note_on_c, 11, 71, 0
12, 100710, Note_on_c, 11, 71, 101
12, 100740, Note_on_c, 11, 71, 0
12, 100740, Note_on_c, 11, 72, 93
12, 100770, Note_on_c, 11, 72, 0
12, 100770, Note_on_c, 11, 72, 90
12, 100800, Note_on_c, 11, 72, 0
12, 100800, Note_on_c, 11, 71, 107
12, 100830, Note_on_c, 11, 71, 0
12, 100830, Note_on_c, 11, 55, 95
12, 100860, Note_on_c, 11, 55, 0
12, 100860, Note_on_c, 11, 57, 110
12, 100890, Note_on_c, 11, 57, 0
12, 100890, Note_on_c, 11, 59, 94
12, 100920, Note_on_c, 11, 59, 0
12, 100920, Note_on_c, 11, 60, 94
12, 100950, Note_on_c, 11, 60, 0
12, 100950, Note_on_c, 11, 62, 94
12, 100980, Note_on_c, 11, 62, 0
12, 100980, Note_on_c, 11, 64, 99
12, 101010, Note_on_c, 11, 64, 0
12, 101010, Note_on_c, 11, 66, 95
12, 101040, Note_on_c, 11, 66, 0
12, 101040, Note_on_c, 11, 67, 95
12, 101070, Note_on_c, 11, 67, 0
12, 101070, Note_on_c, 11, 55, 99
12, 101100, Note_on_c, 11, 55, 0
12, 101100, Note_on_c, 11, 57, 107
12, 101130, Note_on_c, 11, 57, 0
12, 101130, Note_on_c, 11, 59, 104
12, 101160, Note_on_c, 11, 59, 0
12, 101160, Note_on_c, 11, 60, 99
12, 101190, Note_on_c, 11, 60, 0
12, 101190, Note_on_c, 11, 62, 98
12, 101220, Note_on_c, 11, 62, 0
12, 101220, Note_on_c, 11, 64, 101
12, 101250, Note_on_c, 11, 64, 0
12, 101250, Note_on_c, 11, 66, 101
12, 101280, Note_on_c, 11, 66, 0
12, 101280, Note_on_c, 11, 67, 90
12, 101280, Note_on_c, 11, 55, 93
12, 101520, Note_on_c, 11, 55, 0
12, 101520, Note_on_c, 11, 67, 0
12, 101520, Note_on_c, 11, 65, 104
12, 101520, Note_on_c, 11, 55, 84
12, 101760, Note_on_c, 11, 55, 0
12, 101760, Note_on_c, 11, 65, 0
12, 101760, Note_on_c, 11, 55, 105
12, 101760, Note_on_c, 11, 62, 98
12, 102360, Note_on_c, 11, 62, 0
12, 102360, Note_on_c, 11, 55, 0
12, 106560, Note_on_c, 11, 55, 54
12, 106680, Note_on_c, 11, 55, 0
12, 106920, Note_on_c, 11, 55, 54
12, 107040, Note_on_c, 11, 55, 0
12, 107160, Note_on_c, 11, 59, 55
12, 107220, Note_on_c, 11, 59, 0
12, 107220, Note_on_c, 11, 60, 66
12, 107280, Note_on_c, 11, 60, 0
12, 107280, Note_on_c, 11, 53, 63
12, 107400, Note_on_c, 11, 53, 0
12, 107460, Note_on_c, 11, 62, 44
12, 107580, Note_on_c, 11, 62, 0
12, 107640, Note_on_c, 11, 55, 49
12, 107700, Note_on_c, 11, 55, 0
12, 107880, Note_on_c, 11, 65, 43
12, 107880, Note_on_c, 11, 62, 43
12, 107910, Note_on_c, 11, 62, 0
12, 107910, Note_on_c, 11, 65, 0
12, 107940, Note_on_c, 11, 64, 45
12, 107940, Note_on_c, 11, 60, 43
12, 107970, Note_on_c, 11, 60, 0
12, 107970, Note_on_c, 11, 64, 0
12, 108000, Note_on_c, 11, 62, 44
12, 108000, Note_on_c, 11, 59, 51
12, 108120, Note_on_c, 11, 59, 0
12, 108120, Note_on_c, 11, 62, 0
12, 108240, Note_on_c, 11, 62, 43
12, 108240, Note_on_c, 11, 65, 42
12, 108270, Note_on_c, 11, 65, 0
12, 108270, Note_on_c, 11, 62, 0
12, 108300, Note_on_c, 11, 64, 49
12, 108300, Note_on_c, 11, 60, 53
12, 108330, Note_on_c, 11, 60, 0
12, 108330, Note_on_c, 11, 64, 0
12, 108360, Note_on_c, 11, 62, 43
12, 108360, Note_on_c, 11, 59, 51
12, 108480, Note_on_c, 11, 59, 0
12, 108480, Note_on_c, 11, 62, 0
12, 108600, Note_on_c, 11, 65, 40
12, 108600, Note_on_c, 11, 62, 42
12, 108630, Note_on_c, 11, 62, 0
12, 108630, Note_on_c, 11, 65, 0
12, 108660, Note_on_c, 11, 64, 43
12, 108660, Note_on_c, 11, 60, 45
12, 108690, Note_on_c, 11, 60, 0
12, 108690, Note_on_c, 11, 64, 0
12, 108720, Note_on_c, 11, 65, 52
12, 108720, Note_on_c, 11, 69, 43
12, 108840, Note_on_c, 11, 69, 0
12, 108840, Note_on_c, 11, 65, 0
12, 108900, Note_on_c, 11, 65, 43
12, 108900, Note_on_c, 11, 62, 45
12, 109020, Note_on_c, 11, 62, 0
12, 109020, Note_on_c, 11, 65, 0
12, 109080, Note_on_c, 11, 60, 70
12, 109080, Note_on_c, 11, 64, 76
12, 109200, Note_on_c, 11, 64, 0
12, 109200, Note_on_c, 11, 60, 0
12, 119160, Note_on_c, 11, 60, 86
12, 119220, Note_on_c, 11, 60, 0
12, 119220, Note_on_c, 11, 60, 105
12, 119280, Note_on_c, 11, 60, 0
12, 119280, Note_on_c, 11, 60, 76
12, 119340, Note_on_c, 11, 60, 0
12, 119340, Note_on_c, 11, 60, 73
12, 119400, Note_on_c, 11, 60, 0
12, 119400, Note_on_c, 11, 60, 73
12, 119460, Note_on_c, 11, 60, 0
12, 119460, Note_on_c, 11, 60, 78
12, 119520, Note_on_c, 11, 60, 0
12, 119520, Note_on_c, 11, 62, 81
12, 119580, Note_on_c, 11, 62, 0
12, 119580, Note_on_c, 11, 62, 80
12, 119640, Note_on_c, 11, 62, 0
12, 119640, Note_on_c, 11, 62, 80
12, 119700, Note_on_c, 11, 62, 0
12, 119700, Note_on_c, 11, 62, 71
12, 119760, Note_on_c, 11, 62, 0
12, 119760, Note_on_c, 11, 62, 73
12, 119820, Note_on_c, 11, 62, 0
12, 119820, Note_on_c, 11, 62, 80
12, 119880, Note_on_c, 11, 62, 0
12, 119880, Note_on_c, 11, 55, 59
12, 119940, Note_on_c, 11, 55, 0
12, 119940, Note_on_c, 11, 55, 58
12, 120000, Note_on_c, 11, 55, 0
12, 120000, Note_on_c, 11, 55, 43
12, 120060, Note_on_c, 11, 55, 0
12, 120120, Note_on_c, 11, 57, 62
12, 120180, Note_on_c, 11, 57, 0
12, 120180, Note_on_c, 11, 57, 68
12, 120240, Note_on_c, 11, 57, 0
12, 120300, Note_on_c, 11, 57, 73
12, 120360, Note_on_c, 11, 57, 0
12, 120360, Note_on_c, 11, 57, 65
12, 120420, Note_on_c, 11, 57, 0
12, 120480, Note_on_c, 11, 55, 67
12, 120540, Note_on_c, 11, 55, 0
12, 120540, Note_on_c, 11, 55, 70
12, 120600, Note_on_c, 11, 55, 0
12, 120600, Note_on_c, 11, 55, 93
12, 120660, Note_on_c, 11, 55, 0
12, 120660, Note_on_c, 11, 60, 104
12, 120720, Note_on_c, 11, 60, 0
12, 120720, Note_on_c, 11, 60, 71
12, 120780, Note_on_c, 11, 60, 0
12, 120780, Note_on_c, 11, 60, 68
12, 120840, Note_on_c, 11, 60, 0
12, 120840, Note_on_c, 11, 60, 68
12, 120900, Note_on_c, 11, 60, 0
12, 120900, Note_on_c, 11, 60, 65
12, 120960, Note_on_c, 11, 60, 0
12, 120960, Note_on_c, 11, 62, 62
12, 121020, Note_on_c, 11, 62, 0
12, 121020, Note_on_c, 11, 62, 67
12, 121080, Note_on_c, 11, 62, 0
12, 121080, Note_on_c, 11, 62, 67
12, 121140, Note_on_c, 11, 62, 0
12, 121140, Note_on_c, 11, 62, 68
12, 121200, Note_on_c, 11, 62, 0
12, 121200, Note_on_c, 11, 62, 73
12, 121260, Note_on_c, 11, 62, 0
12, 121260, Note_on_c, 11, 62, 86
12, 121320, Note_on_c, 11, 62, 0
12, 121320, Note_on_c, 11, 60, 62
12, 121380, Note_on_c, 11, 60, 0
12, 121380, Note_on_c, 11, 67, 66
12, 121440, Note_on_c, 11, 67, 0
12, 121440, Note_on_c, 11, 67, 64
12, 121500, Note_on_c, 11, 67, 0
12, 121560, Note_on_c, 11, 69, 58
12, 121620, Note_on_c, 11, 69, 0
12, 121620, Note_on_c, 11, 69, 61
12, 121680, Note_on_c, 11, 69, 0
12, 121740, Note_on_c, 11, 69, 55
12, 121800, Note_on_c, 11, 69, 0
12, 121800, Note_on_c, 11, 69, 72
12, 121860, Note_on_c, 11, 69, 0
12, 121920, Note_on_c, 11, 65, 50
12, 121980, Note_on_c, 11, 65, 0
12, 121980, Note_on_c, 11, 65, 73
12, 122040, Note_on_c, 11, 65, 0
12, 122100, Note_on_c, 11, 60, 57
12, 122160, Note_on_c, 11, 60, 0
12, 122160, Note_on_c, 11, 60, 51
12, 122220, Note_on_c, 11, 60, 0
12, 122280, Note_on_c, 11, 69, 52
12, 122340, Note_on_c, 11, 69, 0
12, 122340, Note_on_c, 11, 69, 68
12, 122400, Note_on_c, 11, 69, 0
12, 122460, Note_on_c, 11, 69, 64
12, 122520, Note_on_c, 11, 69, 0
12, 122520, Note_on_c, 11, 69, 65
12, 122580, Note_on_c, 11, 69, 0
12, 122640, Note_on_c, 11, 65, 61
12, 122700, Note_on_c, 11, 65, 0
12, 122700, Note_on_c, 11, 65, 54
12, 122760, Note_on_c, 11, 65, 0
12, 122760, Note_on_c, 11, 64, 62
12, 122880, Note_on_c, 11, 64, 0
12, 123840, Note_on_c, 11, 55, 62
12, 123840, Note_on_c, 11, 67, 44
12, 123960, Note_on_c, 11, 67, 0
12, 123960, Note_on_c, 11, 55, 0
12, 124200, Note_on_c, 11, 60, 98
12, 124260, Note_on_c, 11, 60, 0
12, 124260, Note_on_c, 11, 64, 99
12, 124290, Note_on_c, 11, 64, 0
12, 124290, Note_on_c, 11, 64, 99
12, 124320, Note_on_c, 11, 64, 0
12, 124320, Note_on_c, 11, 62, 98
12, 124350, Note_on_c, 11, 62, 0
12, 124350, Note_on_c, 11, 62, 99
12, 124380, Note_on_c, 11, 62, 0
12, 124380, Note_on_c, 11, 60, 99
12, 124410, Note_on_c, 11, 60, 0
12, 124410, Note_on_c, 11, 60, 101
12, 124440, Note_on_c, 11, 60, 0
12, 124440, Note_on_c, 11, 59, 99
12, 124470, Note_on_c, 11, 59, 0
12, 124470, Note_on_c, 11, 59, 107
12, 124500, Note_on_c, 11, 59, 0
12, 124500, Note_on_c, 11, 57, 110
12, 124530, Note_on_c, 11, 57, 0
12, 124530, Note_on_c, 11, 57, 112
12, 124560, Note_on_c, 11, 57, 0
12, 124560, Note_on_c, 11, 55, 99
12, 124590, Note_on_c, 11, 55, 0
12, 124590, Note_on_c, 11, 55, 99
12, 124620, Note_on_c, 11, 55, 0
12, 124620, Note_on_c, 11, 57, 105
12, 124650, Note_on_c, 11, 57, 0
12, 124650, Note_on_c, 11, 57, 107
12, 124680, Note_on_c, 11, 57, 0
12, 124680, Note_on_c, 11, 55, 99
12, 124710, Note_on_c, 11, 55, 0
12, 124710, Note_on_c, 11, 55, 101
12, 124740, Note_on_c, 11, 55, 0
12, 124740, Note_on_c, 11, 53, 99
12, 124770, Note_on_c, 11, 53, 0
12, 124770, Note_on_c, 11, 53, 99
12, 124800, Note_on_c, 11, 53, 0
12, 124800, Note_on_c, 11, 52, 105
12, 124830, Note_on_c, 11, 52, 0
12, 124830, Note_on_c, 11, 52, 105
12, 124860, Note_on_c, 11, 52, 0
12, 124860, Note_on_c, 11, 50, 110
12, 124890, Note_on_c, 11, 50, 0
12, 124890, Note_on_c, 11, 50, 105
12, 124920, Note_on_c, 11, 50, 0
12, 124920, Note_on_c, 11, 48, 105
12, 125040, Note_on_c, 11, 48, 0
12, 125100, Note_on_c, 11, 67, 94
12, 125220, Note_on_c, 11, 67, 0
12, 125280, Note_on_c, 11, 72, 81
12, 125400, Note_on_c, 11, 72, 0
12, 125460, Note_on_c, 11, 55, 99
12, 125580, Note_on_c, 11, 55, 0
12, 125640, Note_on_c, 11, 60, 99
12, 125760, Note_on_c, 11, 60, 0
12, 126000, Note_on_c, 11, 55, 89
12, 126000, Note_on_c, 11, 64, 89
12, 126000, Note_on_c, 11, 72, 80
12, 126120, Note_on_c, 11, 72, 0
12, 126120, Note_on_c, 11, 64, 0
12, 126120, Note_on_c, 11, 55, 0
12, 126360, Note_on_c, 11, 48, 104
12, 126480, Note_on_c, 11, 48, 0
12, 126480, End_track
13, 0, Start_track
13, 0, MIDI_port, 0
13, 0, Title_t, "Cellos"
13, 0, Program_c, 12, 48
13, 0, Control_c, 12, 7, 100
13, 0, Control_c, 12, 10, 98
13, 0, Control_c, 12, 93, 0
13, 0, Control_c, 12, 91, 66
13, 2040, Program_c, 12, 45
13, 2160, Note_on_c, 12, 55, 74
13, 2220, Note_on_c, 12, 55, 0
13, 2400, Note_on_c, 12, 60, 81
13, 2460, Note_on_c, 12, 60, 0
13, 2640, Note_on_c, 12, 55, 68
13, 2760, Note_on_c, 12, 55, 0
13, 2760, Note_on_c, 12, 60, 81
13, 2880, Note_on_c, 12, 60, 0
13, 2880, Note_on_c, 12, 55, 80
13, 3000, Note_on_c, 12, 55, 0
13, 3120, Note_on_c, 12, 55, 82
13, 3240, Note_on_c, 12, 55, 0
13, 3360, Note_on_c, 12, 60, 89
13, 3480, Note_on_c, 12, 60, 0
13, 3540, Note_on_c, 12, 63, 74
13, 3600, Note_on_c, 12, 63, 0
13, 3600, Note_on_c, 12, 62, 86
13, 3720, Note_on_c, 12, 62, 0
13, 3720, Note_on_c, 12, 50, 95
13, 3840, Note_on_c, 12, 50, 0
13, 3840, Note_on_c, 12, 55, 86
13, 3960, Note_on_c, 12, 55, 0
13, 5040, Note_on_c, 12, 56, 74
13, 5100, Note_on_c, 12, 56, 0
13, 5160, Note_on_c, 12, 56, 73
13, 5220, Note_on_c, 12, 56, 0
13, 5280, Note_on_c, 12, 55, 84
13, 5340, Note_on_c, 12, 55, 0
13, 5520, Control_c, 12, 7, 99
13, 5520, Note_on_c, 12, 56, 72
13, 5545, Control_c, 12, 7, 98
13, 5565, Control_c, 12, 7, 97
13, 5580, Note_on_c, 12, 56, 0
13, 5585, Control_c, 12, 7, 96
13, 5610, Control_c, 12, 7, 95
13, 5630, Control_c, 12, 7, 94
13, 5640, Note_on_c, 12, 56, 80
13, 5650, Control_c, 12, 7, 93
13, 5675, Control_c, 12, 7, 92
13, 5695, Control_c, 12, 7, 91
13, 5700, Note_on_c, 12, 56, 0
13, 5715, Control_c, 12, 7, 90
13, 5740, Control_c, 12, 7, 89
13, 5760, Control_c, 12, 7, 88
13, 5760, Note_on_c, 12, 55, 80
13, 5780, Control_c, 12, 7, 87
13, 5805, Control_c, 12, 7, 86
13, 5825, Control_c, 12, 7, 85
13, 5845, Control_c, 12, 7, 84
13, 5870, Control_c, 12, 7, 83
13, 5880, Note_on_c, 12, 55, 0
13, 5890, Control_c, 12, 7, 82
13, 5910, Control_c, 12, 7, 81
13, 5935, Control_c, 12, 7, 80
13, 5955, Control_c, 12, 7, 79
13, 5975, Control_c, 12, 7, 78
13, 6000, Control_c, 12, 7, 77
13, 6000, Note_on_c, 12, 56, 78
13, 6020, Control_c, 12, 7, 76
13, 6040, Control_c, 12, 7, 75
13, 6065, Control_c, 12, 7, 74
13, 6085, Control_c, 12, 7, 73
13, 6105, Control_c, 12, 7, 72
13, 6120, Note_on_c, 12, 56, 0
13, 6120, Note_on_c, 12, 56, 80
13, 6130, Control_c, 12, 7, 71
13, 6150, Control_c, 12, 7, 70
13, 6170, Control_c, 12, 7, 69
13, 6195, Control_c, 12, 7, 68
13, 6215, Control_c, 12, 7, 67
13, 6235, Control_c, 12, 7, 66
13, 6240, Note_on_c, 12, 56, 0
13, 6240, Note_on_c, 12, 55, 81
13, 6360, Note_on_c, 12, 55, 0
13, 6570, Control_c, 12, 7, 99
13, 8160, Note_on_c, 12, 55, 64
13, 8220, Note_on_c, 12, 55, 0
13, 8400, Note_on_c, 12, 60, 84
13, 8460, Note_on_c, 12, 60, 0
13, 8640, Note_on_c, 12, 59, 78
13, 8700, Note_on_c, 12, 59, 0
13, 8760, Note_on_c, 12, 58, 81
13, 8820, Note_on_c, 12, 58, 0
13, 8880, Note_on_c, 12, 56, 76
13, 9000, Note_on_c, 12, 56, 0
13, 9060, Note_on_c, 12, 53, 76
13, 9120, Note_on_c, 12, 53, 0
13, 9120, Note_on_c, 12, 55, 84
13, 9180, Note_on_c, 12, 55, 0
13, 9240, Note_on_c, 12, 43, 84
13, 9300, Note_on_c, 12, 43, 0
13, 9360, Note_on_c, 12, 48, 82
13, 9480, Note_on_c, 12, 48, 0
13, 9480, Program_c, 12, 48
13, 9600, Note_on_c, 12, 48, 99
13, 9630, Note_on_c, 12, 48, 0
13, 9630, Note_on_c, 12, 48, 99
13, 9660, Note_on_c, 12, 48, 0
13, 9660, Note_on_c, 12, 52, 105
13, 9690, Note_on_c, 12, 52, 0
13, 9690, Note_on_c, 12, 55, 95
13, 9720, Note_on_c, 12, 55, 0
13, 9720, Note_on_c, 12, 60, 86
13, 9750, Note_on_c, 12, 60, 0
13, 9750, Note_on_c, 12, 58, 95
13, 9780, Note_on_c, 12, 58, 0
13, 9780, Note_on_c, 12, 56, 99
13, 9810, Note_on_c, 12, 56, 0
13, 9810, Note_on_c, 12, 55, 95
13, 9840, Note_on_c, 12, 55, 0
13, 9840, Note_on_c, 12, 56, 94
13, 9870, Note_on_c, 12, 56, 0
13, 9870, Note_on_c, 12, 58, 95
13, 9900, Note_on_c, 12, 58, 0
13, 9900, Note_on_c, 12, 56, 95
13, 9930, Note_on_c, 12, 56, 0
13, 9930, Note_on_c, 12, 55, 95
13, 9960, Note_on_c, 12, 55, 0
13, 9960, Note_on_c, 12, 53, 86
13, 9990, Note_on_c, 12, 53, 0
13, 9990, Note_on_c, 12, 51, 98
13, 10020, Note_on_c, 12, 51, 0
13, 10020, Note_on_c, 12, 50, 105
13, 10050, Note_on_c, 12, 50, 0
13, 10050, Note_on_c, 12, 48, 93
13, 10080, Note_on_c, 12, 48, 0
13, 10080, Note_on_c, 12, 50, 104
13, 10110, Note_on_c, 12, 50, 0
13, 10110, Note_on_c, 12, 46, 95
13, 10140, Note_on_c, 12, 46, 0
13, 10140, Note_on_c, 12, 50, 105
13, 10170, Note_on_c, 12, 50, 0
13, 10170, Note_on_c, 12, 53, 93
13, 10200, Note_on_c, 12, 53, 0
13, 10200, Note_on_c, 12, 58, 86
13, 10230, Note_on_c, 12, 58, 0
13, 10230, Note_on_c, 12, 56, 104
13, 10260, Note_on_c, 12, 56, 0
13, 10260, Note_on_c, 12, 55, 99
13, 10290, Note_on_c, 12, 55, 0
13, 10290, Note_on_c, 12, 53, 94
13, 10320, Note_on_c, 12, 53, 0
13, 10320, Note_on_c, 12, 55, 99
13, 10350, Note_on_c, 12, 55, 0
13, 10350, Note_on_c, 12, 56, 95
13, 10380, Note_on_c, 12, 56, 0
13, 10380, Note_on_c, 12, 55, 95
13, 10410, Note_on_c, 12, 55, 0
13, 10410, Note_on_c, 12, 53, 95
13, 10440, Note_on_c, 12, 53, 0
13, 10440, Note_on_c, 12, 51, 95
13, 10470, Note_on_c, 12, 51, 0
13, 10470, Note_on_c, 12, 50, 99
13, 10500, Note_on_c, 12, 50, 0
13, 10500, Note_on_c, 12, 48, 105
13, 10530, Note_on_c, 12, 48, 0
13, 10530, Note_on_c, 12, 46, 99
13, 10560, Note_on_c, 12, 46, 0
13, 10560, Note_on_c, 12, 44, 105
13, 10590, Note_on_c, 12, 44, 0
13, 10590, Note_on_c, 12, 56, 105
13, 10620, Note_on_c, 12, 56, 0
13, 10620, Note_on_c, 12, 56, 105
13, 10650, Note_on_c, 12, 56, 0
13, 10650, Note_on_c, 12, 56, 107
13, 10680, Note_on_c, 12, 56, 0
13, 10680, Note_on_c, 12, 44, 99
13, 10710, Note_on_c, 12, 44, 0
13, 10710, Note_on_c, 12, 56, 99
13, 10740, Note_on_c, 12, 56, 0
13, 10740, Note_on_c, 12, 56, 104
13, 10770, Note_on_c, 12, 56, 0
13, 10770, Note_on_c, 12, 56, 105
13, 10800, Note_on_c, 12, 56, 0
13, 10800, Note_on_c, 12, 43, 123
13, 10830, Note_on_c, 12, 43, 0
13, 10830, Note_on_c, 12, 55, 112
13, 10860, Note_on_c, 12, 55, 0
13, 10860, Note_on_c, 12, 55, 95
13, 10890, Note_on_c, 12, 55, 0
13, 10890, Note_on_c, 12, 55, 81
13, 10920, Note_on_c, 12, 55, 0
13, 10920, Note_on_c, 12, 43, 104
13, 10950, Note_on_c, 12, 43, 0
13, 10950, Note_on_c, 12, 55, 89
13, 10980, Note_on_c, 12, 55, 0
13, 10980, Note_on_c, 12, 55, 93
13, 11010, Note_on_c, 12, 55, 0
13, 11010, Note_on_c, 12, 55, 93
13, 11040, Note_on_c, 12, 55, 0
13, 11040, Note_on_c, 12, 44, 99
13, 11070, Note_on_c, 12, 44, 0
13, 11070, Note_on_c, 12, 56, 105
13, 11100, Note_on_c, 12, 56, 0
13, 11100, Note_on_c, 12, 56, 99
13, 11130, Note_on_c, 12, 56, 0
13, 11130, Note_on_c, 12, 56, 95
13, 11160, Note_on_c, 12, 56, 0
13, 11160, Note_on_c, 12, 44, 99
13, 11190, Note_on_c, 12, 44, 0
13, 11190, Note_on_c, 12, 56, 90
13, 11220, Note_on_c, 12, 56, 0
13, 11220, Note_on_c, 12, 56, 95
13, 11250, Note_on_c, 12, 56, 0
13, 11250, Note_on_c, 12, 56, 84
13, 11280, Note_on_c, 12, 56, 0
13, 11280, Note_on_c, 12, 43, 123
13, 11310, Note_on_c, 12, 43, 0
13, 11310, Note_on_c, 12, 55, 99
13, 11340, Note_on_c, 12, 55, 0
13, 11340, Note_on_c, 12, 55, 86
13, 11370, Note_on_c, 12, 55, 0
13, 11370, Note_on_c, 12, 55, 94
13, 11400, Note_on_c, 12, 55, 0
13, 11400, Note_on_c, 12, 43, 99
13, 11430, Note_on_c, 12, 43, 0
13, 11430, Note_on_c, 12, 55, 90
13, 11460, Note_on_c, 12, 55, 0
13, 11460, Note_on_c, 12, 55, 89
13, 11490, Note_on_c, 12, 55, 0
13, 11490, Note_on_c, 12, 55, 90
13, 11520, Note_on_c, 12, 55, 0
13, 11520, Note_on_c, 12, 44, 99
13, 11550, Note_on_c, 12, 44, 0
13, 11550, Note_on_c, 12, 56, 99
13, 11580, Note_on_c, 12, 56, 0
13, 11580, Note_on_c, 12, 56, 93
13, 11610, Note_on_c, 12, 56, 0
13, 11610, Note_on_c, 12, 56, 99
13, 11640, Note_on_c, 12, 56, 0
13, 11640, Note_on_c, 12, 44, 99
13, 11670, Note_on_c, 12, 44, 0
13, 11670, Note_on_c, 12, 56, 86
13, 11700, Note_on_c, 12, 56, 0
13, 11700, Note_on_c, 12, 56, 98
13, 11730, Note_on_c, 12, 56, 0
13, 11730, Note_on_c, 12, 56, 104
13, 11760, Note_on_c, 12, 56, 0
13, 11760, Note_on_c, 12, 55, 99
13, 11880, Note_on_c, 12, 55, 0
13, 11880, Program_c, 12, 45
13, 12000, Note_on_c, 12, 55, 66
13, 12120, Note_on_c, 12, 55, 0
13, 12240, Note_on_c, 12, 60, 73
13, 12360, Note_on_c, 12, 60, 0
13, 12480, Note_on_c, 12, 55, 74
13, 12600, Note_on_c, 12, 55, 0
13, 12600, Note_on_c, 12, 48, 76
13, 12720, Note_on_c, 12, 48, 0
13, 12720, Note_on_c, 12, 55, 61
13, 12840, Note_on_c, 12, 55, 0
13, 12840, Program_c, 12, 48
13, 12960, Note_on_c, 12, 47, 105
13, 12990, Note_on_c, 12, 47, 0
13, 12990, Note_on_c, 12, 43, 105
13, 13020, Note_on_c, 12, 43, 0
13, 13020, Note_on_c, 12, 47, 104
13, 13050, Note_on_c, 12, 47, 0
13, 13050, Note_on_c, 12, 50, 105
13, 13080, Note_on_c, 12, 50, 0
13, 13080, Note_on_c, 12, 55, 95
13, 13110, Note_on_c, 12, 55, 0
13, 13110, Note_on_c, 12, 53, 105
13, 13140, Note_on_c, 12, 53, 0
13, 13140, Note_on_c, 12, 51, 101
13, 13170, Note_on_c, 12, 51, 0
13, 13170, Note_on_c, 12, 50, 105
13, 13200, Note_on_c, 12, 50, 0
13, 13200, Note_on_c, 12, 51, 99
13, 13230, Note_on_c, 12, 51, 0
13, 13230, Note_on_c, 12, 55, 94
13, 13260, Note_on_c, 12, 55, 0
13, 13260, Note_on_c, 12, 54, 95
13, 13290, Note_on_c, 12, 54, 0
13, 13290, Note_on_c, 12, 55, 99
13, 13320, Note_on_c, 12, 55, 0
13, 13320, Note_on_c, 12, 53, 105
13, 13350, Note_on_c, 12, 53, 0
13, 13350, Note_on_c, 12, 51, 105
13, 13380, Note_on_c, 12, 51, 0
13, 13380, Note_on_c, 12, 50, 107
13, 13410, Note_on_c, 12, 50, 0
13, 13410, Note_on_c, 12, 48, 105
13, 13440, Note_on_c, 12, 48, 0
13, 13440, Note_on_c, 12, 41, 104
13, 13470, Note_on_c, 12, 41, 0
13, 13470, Note_on_c, 12, 53, 99
13, 13500, Note_on_c, 12, 53, 0
13, 13500, Note_on_c, 12, 53, 101
13, 13530, Note_on_c, 12, 53, 0
13, 13530, Note_on_c, 12, 53, 99
13, 13560, Note_on_c, 12, 53, 0
13, 13560, Note_on_c, 12, 43, 104
13, 13590, Note_on_c, 12, 43, 0
13, 13590, Note_on_c, 12, 55, 99
13, 13620, Note_on_c, 12, 55, 0
13, 13620, Note_on_c, 12, 55, 99
13, 13650, Note_on_c, 12, 55, 0
13, 13650, Note_on_c, 12, 55, 101
13, 13680, Note_on_c, 12, 55, 0
13, 13680, Note_on_c, 12, 51, 105
13, 13710, Note_on_c, 12, 51, 0
13, 13710, Note_on_c, 12, 51, 104
13, 13740, Note_on_c, 12, 51, 0
13, 13740, Note_on_c, 12, 53, 99
13, 13770, Note_on_c, 12, 53, 0
13, 13770, Note_on_c, 12, 55, 104
13, 13800, Note_on_c, 12, 55, 0
13, 13800, Note_on_c, 12, 56, 101
13, 13950, Note_on_c, 12, 56, 0
13, 13950, Note_on_c, 12, 53, 99
13, 13980, Note_on_c, 12, 53, 0
13, 13980, Note_on_c, 12, 52, 105
13, 14010, Note_on_c, 12, 52, 0
13, 14010, Note_on_c, 12, 53, 99
13, 14040, Note_on_c, 12, 53, 0
13, 14040, Note_on_c, 12, 55, 94
13, 14070, Note_on_c, 12, 55, 0
13, 14070, Note_on_c, 12, 54, 95
13, 14100, Note_on_c, 12, 54, 0
13, 14100, Note_on_c, 12, 55, 93
13, 14130, Note_on_c, 12, 55, 0
13, 14130, Note_on_c, 12, 43, 101
13, 14160, Note_on_c, 12, 43, 0
13, 14160, Note_on_c, 12, 48, 104
13, 14190, Note_on_c, 12, 48, 0
13, 14190, Note_on_c, 12, 51, 99
13, 14220, Note_on_c, 12, 51, 0
13, 14220, Note_on_c, 12, 53, 101
13, 14250, Note_on_c, 12, 53, 0
13, 14250, Note_on_c, 12, 55, 104
13, 14280, Note_on_c, 12, 55, 0
13, 14280, Note_on_c, 12, 56, 115
13, 14430, Note_on_c, 12, 56, 0
13, 14430, Note_on_c, 12, 53, 99
13, 14460, Note_on_c, 12, 53, 0
13, 14460, Note_on_c, 12, 52, 107
13, 14490, Note_on_c, 12, 52, 0
13, 14490, Note_on_c, 12, 53, 105
13, 14520, Note_on_c, 12, 53, 0
13, 14520, Note_on_c, 12, 55, 104
13, 14550, Note_on_c, 12, 55, 0
13, 14550, Note_on_c, 12, 54, 99
13, 14580, Note_on_c, 12, 54, 0
13, 14580, Note_on_c, 12, 55, 101
13, 14610, Note_on_c, 12, 55, 0
13, 14610, Note_on_c, 12, 43, 105
13, 14640, Note_on_c, 12, 43, 0
13, 14640, Note_on_c, 12, 48, 110
13, 14700, Note_on_c, 12, 48, 0
13, 14760, Note_on_c, 12, 43, 107
13, 14820, Note_on_c, 12, 43, 0
13, 14880, Note_on_c, 12, 48, 107
13, 14940, Note_on_c, 12, 48, 0
13, 18000, Note_on_c, 12, 51, 45
13, 18120, Note_on_c, 12, 51, 0
13, 18240, Note_on_c, 12, 46, 65
13, 18360, Note_on_c, 12, 46, 0
13, 18480, Note_on_c, 12, 48, 71
13, 18600, Note_on_c, 12, 48, 0
13, 18720, Note_on_c, 12, 46, 71
13, 18840, Note_on_c, 12, 46, 0
13, 18960, Note_on_c, 12, 51, 72
13, 19080, Note_on_c, 12, 51, 0
13, 19200, Note_on_c, 12, 48, 69
13, 19320, Note_on_c, 12, 48, 0
13, 19440, Note_on_c, 12, 53, 53
13, 19560, Note_on_c, 12, 53, 0
13, 19560, Note_on_c, 12, 53, 59
13, 19680, Note_on_c, 12, 53, 0
13, 19680, Note_on_c, 12, 46, 64
13, 19800, Note_on_c, 12, 46, 0
13, 19920, Note_on_c, 12, 51, 53
13, 20040, Note_on_c, 12, 51, 0
13, 20160, Note_on_c, 12, 46, 64
13, 20280, Note_on_c, 12, 46, 0
13, 20400, Note_on_c, 12, 48, 61
13, 20520, Note_on_c, 12, 48, 0
13, 20520, Note_on_c, 12, 60, 62
13, 20640, Note_on_c, 12, 60, 0
13, 20640, Note_on_c, 12, 58, 95
13, 20820, Note_on_c, 12, 58, 0
13, 20820, Note_on_c, 12, 56, 84
13, 20880, Note_on_c, 12, 56, 0
13, 20880, Note_on_c, 12, 55, 81
13, 21000, Note_on_c, 12, 55, 0
13, 21000, Note_on_c, 12, 48, 94
13, 21120, Note_on_c, 12, 48, 0
13, 21120, Note_on_c, 12, 53, 101
13, 21300, Note_on_c, 12, 53, 0
13, 21300, Note_on_c, 12, 56, 84
13, 21360, Note_on_c, 12, 56, 0
13, 21360, Note_on_c, 12, 58, 93
13, 21420, Note_on_c, 12, 58, 0
13, 21420, Note_on_c, 12, 58, 95
13, 21480, Note_on_c, 12, 58, 0
13, 21480, Note_on_c, 12, 46, 84
13, 21540, Note_on_c, 12, 46, 0
13, 21540, Note_on_c, 12, 46, 85
13, 21600, Note_on_c, 12, 46, 0
13, 21600, Note_on_c, 12, 51, 86
13, 21720, Note_on_c, 12, 51, 0
13, 22560, Note_on_c, 12, 51, 64
13, 22680, Note_on_c, 12, 51, 0
13, 22740, Note_on_c, 12, 63, 44
13, 22800, Note_on_c, 12, 63, 0
13, 22800, Note_on_c, 12, 51, 85
13, 22920, Note_on_c, 12, 51, 0
13, 22980, Note_on_c, 12, 63, 60
13, 23040, Note_on_c, 12, 63, 0
13, 23040, Note_on_c, 12, 51, 72
13, 23160, Note_on_c, 12, 51, 0
13, 23220, Note_on_c, 12, 51, 73
13, 23280, Note_on_c, 12, 51, 0
13, 23280, Note_on_c, 12, 51, 68
13, 23310, Note_on_c, 12, 51, 0
13, 23340, Note_on_c, 12, 56, 62
13, 23370, Note_on_c, 12, 56, 0
13, 23400, Note_on_c, 12, 58, 69
13, 23430, Note_on_c, 12, 58, 0
13, 23460, Note_on_c, 12, 46, 71
13, 23490, Note_on_c, 12, 46, 0
13, 23520, Note_on_c, 12, 51, 68
13, 23580, Note_on_c, 12, 51, 0
13, 23640, Note_on_c, 12, 48, 74
13, 23700, Note_on_c, 12, 48, 0
13, 23760, Note_on_c, 12, 56, 76
13, 23820, Note_on_c, 12, 56, 0
13, 23880, Note_on_c, 12, 53, 73
13, 23940, Note_on_c, 12, 53, 0
13, 24000, Note_on_c, 12, 50, 74
13, 24060, Note_on_c, 12, 50, 0
13, 26160, Note_on_c, 12, 58, 67
13, 26220, Note_on_c, 12, 58, 0
13, 26280, Note_on_c, 12, 46, 80
13, 26340, Note_on_c, 12, 46, 0
13, 26400, Note_on_c, 12, 51, 70
13, 26460, Note_on_c, 12, 51, 0
13, 26940, Note_on_c, 12, 51, 77
13, 26970, Note_on_c, 12, 51, 0
13, 27000, Note_on_c, 12, 53, 72
13, 27030, Note_on_c, 12, 53, 0
13, 27060, Note_on_c, 12, 55, 76
13, 27090, Note_on_c, 12, 55, 0
13, 27120, Note_on_c, 12, 56, 80
13, 27180, Note_on_c, 12, 56, 0
13, 27180, Note_on_c, 12, 53, 71
13, 27240, Note_on_c, 12, 53, 0
13, 27240, Note_on_c, 12, 58, 69
13, 27300, Note_on_c, 12, 58, 0
13, 27300, Note_on_c, 12, 46, 77
13, 27360, Note_on_c, 12, 46, 0
13, 27360, Note_on_c, 12, 51, 71
13, 27420, Note_on_c, 12, 51, 0
13, 27900, Note_on_c, 12, 48, 58
13, 27930, Note_on_c, 12, 48, 0
13, 27960, Note_on_c, 12, 51, 81
13, 27990, Note_on_c, 12, 51, 0
13, 28020, Note_on_c, 12, 55, 69
13, 28050, Note_on_c, 12, 55, 0
13, 28080, Note_on_c, 12, 56, 69
13, 28140, Note_on_c, 12, 56, 0
13, 28140, Note_on_c, 12, 44, 84
13, 28200, Note_on_c, 12, 44, 0
13, 28200, Note_on_c, 12, 44, 64
13, 28260, Note_on_c, 12, 44, 0
13, 28260, Note_on_c, 12, 44, 53
13, 28320, Note_on_c, 12, 44, 0
13, 28320, Note_on_c, 12, 43, 73
13, 28380, Note_on_c, 12, 43, 0
13, 28620, Note_on_c, 12, 48, 99
13, 28650, Note_on_c, 12, 48, 0
13, 28650, Note_on_c, 12, 50, 105
13, 28680, Note_on_c, 12, 50, 0
13, 28680, Note_on_c, 12, 51, 90
13, 28710, Note_on_c, 12, 51, 0
13, 28740, Note_on_c, 12, 48, 105
13, 28770, Note_on_c, 12, 48, 0
13, 28800, Note_on_c, 12, 43, 94
13, 28860, Note_on_c, 12, 43, 0
13, 29100, Note_on_c, 12, 48, 104
13, 29130, Note_on_c, 12, 48, 0
13, 29130, Note_on_c, 12, 50, 105
13, 29160, Note_on_c, 12, 50, 0
13, 29160, Note_on_c, 12, 51, 94
13, 29190, Note_on_c, 12, 51, 0
13, 29220, Note_on_c, 12, 48, 105
13, 29250, Note_on_c, 12, 48, 0
13, 29280, Note_on_c, 12, 43, 98
13, 29340, Note_on_c, 12, 43, 0
13, 29520, Note_on_c, 12, 55, 46
13, 29640, Note_on_c, 12, 55, 0
13, 29760, Note_on_c, 12, 55, 44
13, 29880, Note_on_c, 12, 55, 0
13, 30000, Note_on_c, 12, 55, 62
13, 30120, Note_on_c, 12, 55, 0
13, 30240, Note_on_c, 12, 55, 45
13, 30300, Note_on_c, 12, 55, 0
13, 32040, Program_c, 12, 45
13, 32160, Note_on_c, 12, 43, 57
13, 32280, Note_on_c, 12, 43, 0
13, 32400, Note_on_c, 12, 48, 69
13, 32520, Note_on_c, 12, 48, 0
13, 32640, Note_on_c, 12, 55, 55
13, 32760, Note_on_c, 12, 55, 0
13, 32760, Note_on_c, 12, 48, 74
13, 32880, Note_on_c, 12, 48, 0
13, 32880, Note_on_c, 12, 55, 68
13, 33000, Note_on_c, 12, 55, 0
13, 33120, Note_on_c, 12, 43, 71
13, 33240, Note_on_c, 12, 43, 0
13, 33360, Note_on_c, 12, 48, 65
13, 33480, Note_on_c, 12, 48, 0
13, 33540, Note_on_c, 12, 51, 71
13, 33600, Note_on_c, 12, 51, 0
13, 33600, Note_on_c, 12, 50, 89
13, 33720, Note_on_c, 12, 50, 0
13, 33720, Note_on_c, 12, 50, 85
13, 33840, Note_on_c, 12, 50, 0
13, 33840, Note_on_c, 12, 55, 69
13, 33900, Note_on_c, 12, 55, 0
13, 33960, Program_c, 12, 45
13, 34080, Note_on_c, 12, 55, 74
13, 34140, Note_on_c, 12, 55, 0
13, 34320, Note_on_c, 12, 60, 81
13, 34380, Note_on_c, 12, 60, 0
13, 34560, Note_on_c, 12, 55, 68
13, 34680, Note_on_c, 12, 55, 0
13, 34680, Note_on_c, 12, 60, 81
13, 34800, Note_on_c, 12, 60, 0
13, 34800, Note_on_c, 12, 55, 80
13, 34920, Note_on_c, 12, 55, 0
13, 35040, Note_on_c, 12, 55, 82
13, 35160, Note_on_c, 12, 55, 0
13, 35280, Note_on_c, 12, 60, 89
13, 35400, Note_on_c, 12, 60, 0
13, 35460, Note_on_c, 12, 63, 74
13, 35520, Note_on_c, 12, 63, 0
13, 35520, Note_on_c, 12, 62, 86
13, 35640, Note_on_c, 12, 62, 0
13, 35640, Note_on_c, 12, 50, 95
13, 35760, Note_on_c, 12, 50, 0
13, 35760, Note_on_c, 12, 55, 86
13, 35880, Note_on_c, 12, 55, 0
13, 36000, Note_on_c, 12, 48, 69
13, 36120, Note_on_c, 12, 48, 0
13, 36240, Note_on_c, 12, 53, 80
13, 36360, Note_on_c, 12, 53, 0
13, 36480, Note_on_c, 12, 46, 80
13, 36600, Note_on_c, 12, 46, 0
13, 36720, Note_on_c, 12, 51, 68
13, 36840, Note_on_c, 12, 51, 0
13, 36960, Note_on_c, 12, 56, 74
13, 37020, Note_on_c, 12, 56, 0
13, 37080, Note_on_c, 12, 56, 73
13, 37140, Note_on_c, 12, 56, 0
13, 37200, Note_on_c, 12, 55, 84
13, 37260, Note_on_c, 12, 55, 0
13, 37440, Control_c, 12, 7, 99
13, 37440, Note_on_c, 12, 56, 72
13, 37465, Control_c, 12, 7, 98
13, 37485, Control_c, 12, 7, 97
13, 37500, Note_on_c, 12, 56, 0
13, 37505, Control_c, 12, 7, 96
13, 37530, Control_c, 12, 7, 95
13, 37550, Control_c, 12, 7, 94
13, 37560, Note_on_c, 12, 56, 80
13, 37570, Control_c, 12, 7, 93
13, 37595, Control_c, 12, 7, 92
13, 37615, Control_c, 12, 7, 91
13, 37620, Note_on_c, 12, 56, 0
13, 37635, Control_c, 12, 7, 90
13, 37660, Control_c, 12, 7, 89
13, 37680, Control_c, 12, 7, 88
13, 37680, Note_on_c, 12, 55, 80
13, 37700, Control_c, 12, 7, 87
13, 37725, Control_c, 12, 7, 86
13, 37745, Control_c, 12, 7, 85
13, 37765, Control_c, 12, 7, 84
13, 37790, Control_c, 12, 7, 83
13, 37800, Note_on_c, 12, 55, 0
13, 37810, Control_c, 12, 7, 82
13, 37830, Control_c, 12, 7, 81
13, 37855, Control_c, 12, 7, 80
13, 37875, Control_c, 12, 7, 79
13, 37895, Control_c, 12, 7, 78
13, 37920, Control_c, 12, 7, 77
13, 37920, Note_on_c, 12, 56, 78
13, 37940, Control_c, 12, 7, 76
13, 37960, Control_c, 12, 7, 75
13, 37985, Control_c, 12, 7, 74
13, 38005, Control_c, 12, 7, 73
13, 38025, Control_c, 12, 7, 72
13, 38040, Note_on_c, 12, 56, 0
13, 38040, Note_on_c, 12, 56, 80
13, 38050, Control_c, 12, 7, 71
13, 38070, Control_c, 12, 7, 70
13, 38090, Control_c, 12, 7, 69
13, 38115, Control_c, 12, 7, 68
13, 38135, Control_c, 12, 7, 67
13, 38155, Control_c, 12, 7, 66
13, 38160, Note_on_c, 12, 56, 0
13, 38160, Note_on_c, 12, 55, 65
13, 38220, Note_on_c, 12, 55, 0
13, 41180, Control_c, 12, 7, 100
13, 41280, Note_on_c, 12, 55, 80
13, 41340, Note_on_c, 12, 55, 0
13, 41520, Note_on_c, 12, 60, 78
13, 41580, Note_on_c, 12, 60, 0
13, 41760, Note_on_c, 12, 59, 84
13, 41820, Note_on_c, 12, 59, 0
13, 41880, Note_on_c, 12, 58, 84
13, 41940, Note_on_c, 12, 58, 0
13, 42000, Note_on_c, 12, 56, 81
13, 42120, Note_on_c, 12, 56, 0
13, 42180, Note_on_c, 12, 53, 80
13, 42240, Note_on_c, 12, 53, 0
13, 42240, Note_on_c, 12, 55, 86
13, 42300, Note_on_c, 12, 55, 0
13, 42360, Note_on_c, 12, 43, 89
13, 42420, Note_on_c, 12, 43, 0
13, 42480, Note_on_c, 12, 48, 85
13, 42600, Note_on_c, 12, 48, 0
13, 42600, Program_c, 12, 48
13, 42720, Note_on_c, 12, 48, 99
13, 42750, Note_on_c, 12, 48, 0
13, 42750, Note_on_c, 12, 48, 99
13, 42780, Note_on_c, 12, 48, 0
13, 42780, Note_on_c, 12, 52, 105
13, 42810, Note_on_c, 12, 52, 0
13, 42810, Note_on_c, 12, 55, 95
13, 42840, Note_on_c, 12, 55, 0
13, 42840, Note_on_c, 12, 60, 86
13, 42870, Note_on_c, 12, 60, 0
13, 42870, Note_on_c, 12, 58, 95
13, 42900, Note_on_c, 12, 58, 0
13, 42900, Note_on_c, 12, 56, 99
13, 42930, Note_on_c, 12, 56, 0
13, 42930, Note_on_c, 12, 55, 95
13, 42960, Note_on_c, 12, 55, 0
13, 42960, Note_on_c, 12, 56, 94
13, 42990, Note_on_c, 12, 56, 0
13, 42990, Note_on_c, 12, 58, 95
13, 43020, Note_on_c, 12, 58, 0
13, 43020, Note_on_c, 12, 56, 95
13, 43050, Note_on_c, 12, 56, 0
13, 43050, Note_on_c, 12, 55, 95
13, 43080, Note_on_c, 12, 55, 0
13, 43080, Note_on_c, 12, 53, 86
13, 43110, Note_on_c, 12, 53, 0
13, 43110, Note_on_c, 12, 51, 98
13, 43140, Note_on_c, 12, 51, 0
13, 43140, Note_on_c, 12, 50, 105
13, 43170, Note_on_c, 12, 50, 0
13, 43170, Note_on_c, 12, 48, 93
13, 43200, Note_on_c, 12, 48, 0
13, 43200, Note_on_c, 12, 50, 104
13, 43230, Note_on_c, 12, 50, 0
13, 43230, Note_on_c, 12, 46, 95
13, 43260, Note_on_c, 12, 46, 0
13, 43260, Note_on_c, 12, 50, 105
13, 43290, Note_on_c, 12, 50, 0
13, 43290, Note_on_c, 12, 53, 93
13, 43320, Note_on_c, 12, 53, 0
13, 43320, Note_on_c, 12, 58, 86
13, 43350, Note_on_c, 12, 58, 0
13, 43350, Note_on_c, 12, 56, 104
13, 43380, Note_on_c, 12, 56, 0
13, 43380, Note_on_c, 12, 55, 99
13, 43410, Note_on_c, 12, 55, 0
13, 43410, Note_on_c, 12, 53, 94
13, 43440, Note_on_c, 12, 53, 0
13, 43440, Note_on_c, 12, 55, 99
13, 43470, Note_on_c, 12, 55, 0
13, 43470, Note_on_c, 12, 56, 95
13, 43500, Note_on_c, 12, 56, 0
13, 43500, Note_on_c, 12, 55, 95
13, 43530, Note_on_c, 12, 55, 0
13, 43530, Note_on_c, 12, 53, 95
13, 43560, Note_on_c, 12, 53, 0
13, 43560, Note_on_c, 12, 51, 95
13, 43590, Note_on_c, 12, 51, 0
13, 43590, Note_on_c, 12, 50, 99
13, 43620, Note_on_c, 12, 50, 0
13, 43620, Note_on_c, 12, 48, 105
13, 43650, Note_on_c, 12, 48, 0
13, 43650, Note_on_c, 12, 46, 99
13, 43680, Note_on_c, 12, 46, 0
13, 43680, Note_on_c, 12, 44, 105
13, 43710, Note_on_c, 12, 44, 0
13, 43710, Note_on_c, 12, 56, 105
13, 43740, Note_on_c, 12, 56, 0
13, 43740, Note_on_c, 12, 56, 105
13, 43770, Note_on_c, 12, 56, 0
13, 43770, Note_on_c, 12, 56, 107
13, 43800, Note_on_c, 12, 56, 0
13, 43800, Note_on_c, 12, 44, 99
13, 43830, Note_on_c, 12, 44, 0
13, 43830, Note_on_c, 12, 56, 99
13, 43860, Note_on_c, 12, 56, 0
13, 43860, Note_on_c, 12, 56, 104
13, 43890, Note_on_c, 12, 56, 0
13, 43890, Note_on_c, 12, 56, 105
13, 43920, Note_on_c, 12, 56, 0
13, 43920, Note_on_c, 12, 43, 123
13, 43950, Note_on_c, 12, 43, 0
13, 43950, Note_on_c, 12, 55, 112
13, 43980, Note_on_c, 12, 55, 0
13, 43980, Note_on_c, 12, 55, 95
13, 44010, Note_on_c, 12, 55, 0
13, 44010, Note_on_c, 12, 55, 81
13, 44040, Note_on_c, 12, 55, 0
13, 44040, Note_on_c, 12, 43, 104
13, 44070, Note_on_c, 12, 43, 0
13, 44070, Note_on_c, 12, 55, 89
13, 44100, Note_on_c, 12, 55, 0
13, 44100, Note_on_c, 12, 55, 93
13, 44130, Note_on_c, 12, 55, 0
13, 44130, Note_on_c, 12, 55, 93
13, 44160, Note_on_c, 12, 55, 0
13, 44160, Note_on_c, 12, 44, 99
13, 44190, Note_on_c, 12, 44, 0
13, 44190, Note_on_c, 12, 56, 105
13, 44220, Note_on_c, 12, 56, 0
13, 44220, Note_on_c, 12, 56, 99
13, 44250, Note_on_c, 12, 56, 0
13, 44250, Note_on_c, 12, 56, 95
13, 44280, Note_on_c, 12, 56, 0
13, 44280, Note_on_c, 12, 44, 99
13, 44310, Note_on_c, 12, 44, 0
13, 44310, Note_on_c, 12, 56, 90
13, 44340, Note_on_c, 12, 56, 0
13, 44340, Note_on_c, 12, 56, 95
13, 44370, Note_on_c, 12, 56, 0
13, 44370, Note_on_c, 12, 56, 84
13, 44400, Note_on_c, 12, 56, 0
13, 44400, Note_on_c, 12, 43, 123
13, 44430, Note_on_c, 12, 43, 0
13, 44430, Note_on_c, 12, 55, 99
13, 44460, Note_on_c, 12, 55, 0
13, 44460, Note_on_c, 12, 55, 86
13, 44490, Note_on_c, 12, 55, 0
13, 44490, Note_on_c, 12, 55, 94
13, 44520, Note_on_c, 12, 55, 0
13, 44520, Note_on_c, 12, 43, 99
13, 44550, Note_on_c, 12, 43, 0
13, 44550, Note_on_c, 12, 55, 90
13, 44580, Note_on_c, 12, 55, 0
13, 44580, Note_on_c, 12, 55, 89
13, 44610, Note_on_c, 12, 55, 0
13, 44610, Note_on_c, 12, 55, 90
13, 44640, Note_on_c, 12, 55, 0
13, 44640, Note_on_c, 12, 44, 99
13, 44670, Note_on_c, 12, 44, 0
13, 44670, Note_on_c, 12, 56, 99
13, 44700, Note_on_c, 12, 56, 0
13, 44700, Note_on_c, 12, 56, 93
13, 44730, Note_on_c, 12, 56, 0
13, 44730, Note_on_c, 12, 56, 99
13, 44760, Note_on_c, 12, 56, 0
13, 44760, Note_on_c, 12, 44, 99
13, 44790, Note_on_c, 12, 44, 0
13, 44790, Note_on_c, 12, 56, 86
13, 44820, Note_on_c, 12, 56, 0
13, 44820, Note_on_c, 12, 56, 98
13, 44850, Note_on_c, 12, 56, 0
13, 44850, Note_on_c, 12, 56, 104
13, 44880, Note_on_c, 12, 56, 0
13, 44880, Note_on_c, 12, 55, 99
13, 45000, Note_on_c, 12, 55, 0
13, 45000, Program_c, 12, 45
13, 45120, Note_on_c, 12, 55, 66
13, 45240, Note_on_c, 12, 55, 0
13, 45360, Note_on_c, 12, 60, 73
13, 45480, Note_on_c, 12, 60, 0
13, 45600, Note_on_c, 12, 55, 74
13, 45720, Note_on_c, 12, 55, 0
13, 45720, Note_on_c, 12, 48, 76
13, 45840, Note_on_c, 12, 48, 0
13, 45840, Note_on_c, 12, 55, 61
13, 45960, Note_on_c, 12, 55, 0
13, 45960, Program_c, 12, 48
13, 46080, Note_on_c, 12, 47, 105
13, 46110, Note_on_c, 12, 47, 0
13, 46110, Note_on_c, 12, 43, 105
13, 46140, Note_on_c, 12, 43, 0
13, 46140, Note_on_c, 12, 47, 104
13, 46170, Note_on_c, 12, 47, 0
13, 46170, Note_on_c, 12, 50, 105
13, 46200, Note_on_c, 12, 50, 0
13, 46200, Note_on_c, 12, 55, 95
13, 46230, Note_on_c, 12, 55, 0
13, 46230, Note_on_c, 12, 53, 105
13, 46260, Note_on_c, 12, 53, 0
13, 46260, Note_on_c, 12, 51, 101
13, 46290, Note_on_c, 12, 51, 0
13, 46290, Note_on_c, 12, 50, 105
13, 46320, Note_on_c, 12, 50, 0
13, 46320, Note_on_c, 12, 51, 99
13, 46350, Note_on_c, 12, 51, 0
13, 46350, Note_on_c, 12, 55, 94
13, 46380, Note_on_c, 12, 55, 0
13, 46380, Note_on_c, 12, 54, 95
13, 46410, Note_on_c, 12, 54, 0
13, 46410, Note_on_c, 12, 55, 99
13, 46440, Note_on_c, 12, 55, 0
13, 46440, Note_on_c, 12, 53, 105
13, 46470, Note_on_c, 12, 53, 0
13, 46470, Note_on_c, 12, 51, 105
13, 46500, Note_on_c, 12, 51, 0
13, 46500, Note_on_c, 12, 50, 107
13, 46530, Note_on_c, 12, 50, 0
13, 46530, Note_on_c, 12, 48, 105
13, 46560, Note_on_c, 12, 48, 0
13, 46560, Note_on_c, 12, 41, 104
13, 46590, Note_on_c, 12, 41, 0
13, 46590, Note_on_c, 12, 53, 99
13, 46620, Note_on_c, 12, 53, 0
13, 46620, Note_on_c, 12, 53, 101
13, 46650, Note_on_c, 12, 53, 0
13, 46650, Note_on_c, 12, 53, 99
13, 46680, Note_on_c, 12, 53, 0
13, 46680, Note_on_c, 12, 43, 104
13, 46710, Note_on_c, 12, 43, 0
13, 46710, Note_on_c, 12, 55, 99
13, 46740, Note_on_c, 12, 55, 0
13, 46740, Note_on_c, 12, 55, 99
13, 46770, Note_on_c, 12, 55, 0
13, 46770, Note_on_c, 12, 55, 101
13, 46800, Note_on_c, 12, 55, 0
13, 46800, Note_on_c, 12, 51, 105
13, 46830, Note_on_c, 12, 51, 0
13, 46830, Note_on_c, 12, 51, 104
13, 46860, Note_on_c, 12, 51, 0
13, 46860, Note_on_c, 12, 53, 99
13, 46890, Note_on_c, 12, 53, 0
13, 46890, Note_on_c, 12, 55, 104
13, 46920, Note_on_c, 12, 55, 0
13, 46920, Note_on_c, 12, 56, 101
13, 47070, Note_on_c, 12, 56, 0
13, 47070, Note_on_c, 12, 53, 99
13, 47100, Note_on_c, 12, 53, 0
13, 47100, Note_on_c, 12, 52, 105
13, 47130, Note_on_c, 12, 52, 0
13, 47130, Note_on_c, 12, 53, 99
13, 47160, Note_on_c, 12, 53, 0
13, 47160, Note_on_c, 12, 55, 94
13, 47190, Note_on_c, 12, 55, 0
13, 47190, Note_on_c, 12, 54, 95
13, 47220, Note_on_c, 12, 54, 0
13, 47220, Note_on_c, 12, 55, 93
13, 47250, Note_on_c, 12, 55, 0
13, 47250, Note_on_c, 12, 43, 101
13, 47280, Note_on_c, 12, 43, 0
13, 47280, Note_on_c, 12, 48, 104
13, 47310, Note_on_c, 12, 48, 0
13, 47310, Note_on_c, 12, 51, 99
13, 47340, Note_on_c, 12, 51, 0
13, 47340, Note_on_c, 12, 53, 101
13, 47370, Note_on_c, 12, 53, 0
13, 47370, Note_on_c, 12, 55, 104
13, 47400, Note_on_c, 12, 55, 0
13, 47400, Note_on_c, 12, 56, 115
13, 47550, Note_on_c, 12, 56, 0
13, 47550, Note_on_c, 12, 53, 99
13, 47580, Note_on_c, 12, 53, 0
13, 47580, Note_on_c, 12, 52, 107
13, 47610, Note_on_c, 12, 52, 0
13, 47610, Note_on_c, 12, 53, 105
13, 47640, Note_on_c, 12, 53, 0
13, 47640, Note_on_c, 12, 55, 104
13, 47670, Note_on_c, 12, 55, 0
13, 47670, Note_on_c, 12, 54, 99
13, 47700, Note_on_c, 12, 54, 0
13, 47700, Note_on_c, 12, 55, 101
13, 47730, Note_on_c, 12, 55, 0
13, 47730, Note_on_c, 12, 43, 105
13, 47760, Note_on_c, 12, 43, 0
13, 47760, Note_on_c, 12, 48, 110
13, 47820, Note_on_c, 12, 48, 0
13, 47880, Note_on_c, 12, 43, 107
13, 47940, Note_on_c, 12, 43, 0
13, 48000, Note_on_c, 12, 48, 107
13, 48060, Note_on_c, 12, 48, 0
13, 48240, Note_on_c, 12, 56, 45
13, 48360, Note_on_c, 12, 56, 0
13, 48480, Note_on_c, 12, 58, 56
13, 48600, Note_on_c, 12, 58, 0
13, 48780, Note_on_c, 12, 63, 46
13, 48840, Note_on_c, 12, 63, 0
13, 48840, Note_on_c, 12, 62, 43
13, 48900, Note_on_c, 12, 62, 0
13, 48900, Note_on_c, 12, 61, 52
13, 48960, Note_on_c, 12, 61, 0
13, 48960, Note_on_c, 12, 60, 43
13, 49020, Note_on_c, 12, 60, 0
13, 49020, Note_on_c, 12, 58, 69
13, 49080, Note_on_c, 12, 58, 0
13, 49080, Note_on_c, 12, 56, 62
13, 49140, Note_on_c, 12, 56, 0
13, 49140, Note_on_c, 12, 55, 65
13, 49200, Note_on_c, 12, 55, 0
13, 49200, Note_on_c, 12, 53, 71
13, 49260, Note_on_c, 12, 53, 0
13, 49260, Note_on_c, 12, 54, 58
13, 49320, Note_on_c, 12, 54, 0
13, 49320, Note_on_c, 12, 53, 43
13, 49380, Note_on_c, 12, 53, 0
13, 49380, Note_on_c, 12, 51, 70
13, 49440, Note_on_c, 12, 51, 0
13, 49440, Note_on_c, 12, 49, 71
13, 49500, Note_on_c, 12, 49, 0
13, 49500, Note_on_c, 12, 48, 68
13, 49560, Note_on_c, 12, 48, 0
13, 49560, Note_on_c, 12, 46, 74
13, 49620, Note_on_c, 12, 46, 0
13, 49620, Note_on_c, 12, 49, 65
13, 49680, Note_on_c, 12, 49, 0
13, 49680, Note_on_c, 12, 51, 57
13, 49800, Note_on_c, 12, 51, 0
13, 49800, Note_on_c, 12, 51, 58
13, 49920, Note_on_c, 12, 51, 0
13, 49920, Note_on_c, 12, 56, 52
13, 50040, Note_on_c, 12, 56, 0
13, 50160, Note_on_c, 12, 56, 45
13, 50400, Note_on_c, 12, 56, 0
13, 50400, Note_on_c, 12, 58, 61
13, 50640, Note_on_c, 12, 58, 0
13, 50640, Note_on_c, 12, 51, 60
13, 50820, Note_on_c, 12, 51, 0
13, 50820, Note_on_c, 12, 49, 53
13, 50880, Note_on_c, 12, 49, 0
13, 50880, Note_on_c, 12, 48, 45
13, 51120, Note_on_c, 12, 48, 0
13, 51120, Note_on_c, 12, 65, 50
13, 51180, Note_on_c, 12, 65, 0
13, 51180, Note_on_c, 12, 66, 62
13, 51240, Note_on_c, 12, 66, 0
13, 51240, Note_on_c, 12, 65, 59
13, 51300, Note_on_c, 12, 65, 0
13, 51300, Note_on_c, 12, 63, 49
13, 51300, Note_on_c, 12, 61, 59
13, 51360, Note_on_c, 12, 61, 0
13, 51360, Note_on_c, 12, 63, 0
13, 51420, Note_on_c, 12, 60, 65
13, 51480, Note_on_c, 12, 60, 0
13, 51480, Note_on_c, 12, 58, 56
13, 51540, Note_on_c, 12, 58, 0
13, 51540, Note_on_c, 12, 61, 60
13, 51600, Note_on_c, 12, 61, 0
13, 51600, Note_on_c, 12, 63, 46
13, 51720, Note_on_c, 12, 63, 0
13, 51720, Note_on_c, 12, 51, 62
13, 51840, Note_on_c, 12, 51, 0
13, 51840, Note_on_c, 12, 56, 55
13, 51900, Note_on_c, 12, 56, 0
13, 52140, Note_on_c, 12, 55, 41
13, 52170, Note_on_c, 12, 55, 0
13, 52200, Note_on_c, 12, 51, 56
13, 52230, Note_on_c, 12, 51, 0
13, 52260, Note_on_c, 12, 55, 46
13, 52290, Note_on_c, 12, 55, 0
13, 52320, Note_on_c, 12, 58, 54
13, 52440, Note_on_c, 12, 58, 0
13, 52620, Note_on_c, 12, 55, 44
13, 52650, Note_on_c, 12, 55, 0
13, 52680, Note_on_c, 12, 51, 58
13, 52710, Note_on_c, 12, 51, 0
13, 52740, Note_on_c, 12, 55, 46
13, 52770, Note_on_c, 12, 55, 0
13, 52800, Note_on_c, 12, 56, 43
13, 52920, Note_on_c, 12, 56, 0
13, 53040, Note_on_c, 12, 63, 52
13, 53280, Note_on_c, 12, 63, 0
13, 53280, Note_on_c, 12, 58, 70
13, 53520, Note_on_c, 12, 58, 0
13, 53520, Note_on_c, 12, 51, 53
13, 53580, Note_on_c, 12, 51, 0
13, 53700, Note_on_c, 12, 51, 110
13, 53760, Note_on_c, 12, 51, 0
13, 53760, Note_on_c, 12, 53, 81
13, 53880, Note_on_c, 12, 53, 0
13, 53880, Note_on_c, 12, 55, 44
13, 54000, Note_on_c, 12, 55, 0
13, 54000, Note_on_c, 12, 56, 53
13, 54240, Note_on_c, 12, 56, 0
13, 54240, Note_on_c, 12, 58, 45
13, 54480, Note_on_c, 12, 58, 0
13, 54480, Note_on_c, 12, 51, 62
13, 54660, Note_on_c, 12, 51, 0
13, 54660, Note_on_c, 12, 49, 62
13, 54720, Note_on_c, 12, 49, 0
13, 54720, Note_on_c, 12, 48, 64
13, 54960, Note_on_c, 12, 48, 0
13, 54960, Note_on_c, 12, 48, 53
13, 55200, Note_on_c, 12, 48, 0
13, 55200, Note_on_c, 12, 49, 60
13, 55440, Note_on_c, 12, 49, 0
13, 55440, Note_on_c, 12, 51, 62
13, 55560, Note_on_c, 12, 51, 0
13, 55560, Note_on_c, 12, 51, 59
13, 55680, Note_on_c, 12, 51, 0
13, 55680, Note_on_c, 12, 56, 72
13, 55800, Note_on_c, 12, 56, 0
13, 55980, Note_on_c, 12, 55, 76
13, 56010, Note_on_c, 12, 55, 0
13, 56040, Note_on_c, 12, 51, 74
13, 56070, Note_on_c, 12, 51, 0
13, 56100, Note_on_c, 12, 55, 74
13, 56130, Note_on_c, 12, 55, 0
13, 56160, Note_on_c, 12, 58, 73
13, 56280, Note_on_c, 12, 58, 0
13, 56460, Note_on_c, 12, 55, 71
13, 56490, Note_on_c, 12, 55, 0
13, 56520, Note_on_c, 12, 51, 73
13, 56550, Note_on_c, 12, 51, 0
13, 56580, Note_on_c, 12, 55, 72
13, 56610, Note_on_c, 12, 55, 0
13, 56640, Note_on_c, 12, 56, 68
13, 56760, Note_on_c, 12, 56, 0
13, 56880, Note_on_c, 12, 51, 71
13, 57000, Note_on_c, 12, 51, 0
13, 57000, Note_on_c, 12, 51, 67
13, 57045, Note_on_c, 12, 51, 0
13, 57060, Note_on_c, 12, 51, 72
13, 57105, Note_on_c, 12, 51, 0
13, 57120, Note_on_c, 12, 51, 76
13, 57180, Note_on_c, 12, 51, 0
13, 57180, Note_on_c, 12, 50, 74
13, 57240, Note_on_c, 12, 50, 0
13, 57240, Note_on_c, 12, 46, 63
13, 57300, Note_on_c, 12, 46, 0
13, 57300, Note_on_c, 12, 48, 80
13, 57360, Note_on_c, 12, 48, 0
13, 57360, Control_c, 12, 7, 110
13, 57360, Note_on_c, 12, 49, 95
13, 57370, Control_c, 12, 7, 109
13, 57380, Control_c, 12, 7, 108
13, 57390, Control_c, 12, 7, 107
13, 57400, Control_c, 12, 7, 106
13, 57410, Control_c, 12, 7, 105
13, 57420, Control_c, 12, 7, 104
13, 57430, Control_c, 12, 7, 103
13, 57440, Control_c, 12, 7, 102
13, 57450, Control_c, 12, 7, 101
13, 57460, Control_c, 12, 7, 100
13, 57470, Control_c, 12, 7, 99
13, 57480, Control_c, 12, 7, 98
13, 57490, Control_c, 12, 7, 97
13, 57500, Control_c, 12, 7, 96
13, 57510, Control_c, 12, 7, 95
13, 57520, Control_c, 12, 7, 94
13, 57530, Control_c, 12, 7, 93
13, 57540, Control_c, 12, 7, 92
13, 57550, Control_c, 12, 7, 91
13, 57560, Control_c, 12, 7, 90
13, 57570, Control_c, 12, 7, 89
13, 57580, Control_c, 12, 7, 88
13, 57590, Control_c, 12, 7, 87
13, 57600, Control_c, 12, 7, 86
13, 57610, Control_c, 12, 7, 85
13, 57620, Control_c, 12, 7, 84
13, 57630, Control_c, 12, 7, 83
13, 57640, Control_c, 12, 7, 82
13, 57650, Control_c, 12, 7, 81
13, 57660, Control_c, 12, 7, 80
13, 57670, Control_c, 12, 7, 79
13, 57680, Control_c, 12, 7, 78
13, 57690, Control_c, 12, 7, 77
13, 57700, Control_c, 12, 7, 76
13, 57710, Control_c, 12, 7, 75
13, 57720, Note_on_c, 12, 49, 0
13, 57720, Control_c, 12, 7, 74
13, 57720, Note_on_c, 12, 48, 93
13, 57730, Control_c, 12, 7, 73
13, 57740, Control_c, 12, 7, 72
13, 57750, Control_c, 12, 7, 71
13, 57760, Control_c, 12, 7, 70
13, 57770, Control_c, 12, 7, 69
13, 57780, Note_on_c, 12, 48, 0
13, 57780, Control_c, 12, 7, 68
13, 57780, Note_on_c, 12, 46, 86
13, 57790, Control_c, 12, 7, 67
13, 57800, Control_c, 12, 7, 66
13, 57840, Note_on_c, 12, 46, 0
13, 57840, Control_c, 12, 7, 100
13, 57840, Note_on_c, 12, 44, 58
13, 57960, Note_on_c, 12, 44, 0
13, 57960, Note_on_c, 12, 56, 59
13, 58080, Note_on_c, 12, 56, 0
13, 58080, Note_on_c, 12, 58, 53
13, 58320, Note_on_c, 12, 58, 0
13, 58320, Note_on_c, 12, 51, 56
13, 58500, Note_on_c, 12, 51, 0
13, 58500, Note_on_c, 12, 49, 50
13, 58560, Note_on_c, 12, 49, 0
13, 58560, Note_on_c, 12, 48, 53
13, 58800, Note_on_c, 12, 48, 0
13, 58800, Note_on_c, 12, 60, 61
13, 59040, Note_on_c, 12, 60, 0
13, 59040, Note_on_c, 12, 61, 52
13, 59280, Note_on_c, 12, 61, 0
13, 59280, Note_on_c, 12, 51, 61
13, 59400, Note_on_c, 12, 51, 0
13, 59400, Note_on_c, 12, 51, 69
13, 59520, Note_on_c, 12, 51, 0
13, 59520, Note_on_c, 12, 56, 59
13, 59640, Note_on_c, 12, 56, 0
13, 59700, Note_on_c, 12, 60, 54
13, 59760, Note_on_c, 12, 60, 0
13, 59760, Note_on_c, 12, 61, 56
13, 59820, Note_on_c, 12, 61, 0
13, 59820, Note_on_c, 12, 52, 43
13, 59880, Note_on_c, 12, 52, 0
13, 59880, Note_on_c, 12, 52, 71
13, 59910, Note_on_c, 12, 52, 0
13, 59940, Note_on_c, 12, 52, 55
13, 59970, Note_on_c, 12, 52, 0
13, 60000, Note_on_c, 12, 53, 48
13, 60120, Note_on_c, 12, 53, 0
13, 60120, Note_on_c, 12, 55, 48
13, 60150, Note_on_c, 12, 55, 0
13, 60150, Note_on_c, 12, 53, 64
13, 60180, Note_on_c, 12, 53, 0
13, 60180, Note_on_c, 12, 52, 65
13, 60210, Note_on_c, 12, 52, 0
13, 60210, Note_on_c, 12, 53, 57
13, 60240, Note_on_c, 12, 53, 0
13, 60240, Note_on_c, 12, 55, 58
13, 60270, Note_on_c, 12, 55, 0
13, 60300, Note_on_c, 12, 55, 61
13, 60330, Note_on_c, 12, 55, 0
13, 60360, Note_on_c, 12, 56, 65
13, 60390, Note_on_c, 12, 56, 0
13, 60390, Note_on_c, 12, 55, 44
13, 60420, Note_on_c, 12, 55, 0
13, 60420, Note_on_c, 12, 53, 54
13, 60450, Note_on_c, 12, 53, 0
13, 60450, Note_on_c, 12, 55, 57
13, 60480, Note_on_c, 12, 55, 0
13, 60480, Note_on_c, 12, 56, 62
13, 60510, Note_on_c, 12, 56, 0
13, 60540, Note_on_c, 12, 56, 65
13, 60570, Note_on_c, 12, 56, 0
13, 60600, Note_on_c, 12, 55, 58
13, 60630, Note_on_c, 12, 55, 0
13, 60660, Note_on_c, 12, 51, 64
13, 60690, Note_on_c, 12, 51, 0
13, 60720, Note_on_c, 12, 53, 52
13, 60750, Note_on_c, 12, 53, 0
13, 60750, Note_on_c, 12, 50, 62
13, 60780, Note_on_c, 12, 50, 0
13, 60780, Note_on_c, 12, 51, 64
13, 60810, Note_on_c, 12, 51, 0
13, 60810, Note_on_c, 12, 53, 72
13, 60840, Note_on_c, 12, 53, 0
13, 60840, Note_on_c, 12, 55, 58
13, 60870, Note_on_c, 12, 55, 0
13, 60870, Note_on_c, 12, 53, 58
13, 60900, Note_on_c, 12, 53, 0
13, 60900, Note_on_c, 12, 51, 62
13, 60930, Note_on_c, 12, 51, 0
13, 60930, Note_on_c, 12, 50, 54
13, 60960, Note_on_c, 12, 50, 0
13, 60960, Note_on_c, 12, 51, 71
13, 60990, Note_on_c, 12, 51, 0
13, 60990, Note_on_c, 12, 53, 45
13, 61020, Note_on_c, 12, 53, 0
13, 61020, Note_on_c, 12, 51, 53
13, 61050, Note_on_c, 12, 51, 0
13, 61050, Note_on_c, 12, 50, 62
13, 61080, Note_on_c, 12, 50, 0
13, 61080, Note_on_c, 12, 51, 56
13, 61110, Note_on_c, 12, 51, 0
13, 61110, Note_on_c, 12, 48, 59
13, 61140, Note_on_c, 12, 48, 0
13, 61140, Note_on_c, 12, 50, 52
13, 61170, Note_on_c, 12, 50, 0
13, 61170, Note_on_c, 12, 51, 58
13, 61200, Note_on_c, 12, 51, 0
13, 61200, Note_on_c, 12, 53, 38
13, 61230, Note_on_c, 12, 53, 0
13, 61230, Note_on_c, 12, 50, 45
13, 61260, Note_on_c, 12, 50, 0
13, 61260, Note_on_c, 12, 51, 71
13, 61290, Note_on_c, 12, 51, 0
13, 61290, Note_on_c, 12, 53, 46
13, 61320, Note_on_c, 12, 53, 0
13, 61320, Note_on_c, 12, 55, 45
13, 61350, Note_on_c, 12, 55, 0
13, 61350, Note_on_c, 12, 53, 43
13, 61380, Note_on_c, 12, 53, 0
13, 61380, Note_on_c, 12, 51, 61
13, 61410, Note_on_c, 12, 51, 0
13, 61410, Note_on_c, 12, 50, 71
13, 61440, Note_on_c, 12, 50, 0
13, 61440, Note_on_c, 12, 48, 57
13, 61470, Note_on_c, 12, 48, 0
13, 61470, Note_on_c, 12, 55, 55
13, 61500, Note_on_c, 12, 55, 0
13, 61500, Note_on_c, 12, 60, 52
13, 61530, Note_on_c, 12, 60, 0
13, 61530, Note_on_c, 12, 58, 48
13, 61560, Note_on_c, 12, 58, 0
13, 61560, Note_on_c, 12, 56, 60
13, 61590, Note_on_c, 12, 56, 0
13, 61590, Note_on_c, 12, 56, 43
13, 61620, Note_on_c, 12, 56, 0
13, 61620, Note_on_c, 12, 55, 43
13, 61650, Note_on_c, 12, 55, 0
13, 61650, Note_on_c, 12, 53, 52
13, 61680, Note_on_c, 12, 53, 0
13, 61680, Note_on_c, 12, 52, 61
13, 61740, Note_on_c, 12, 52, 0
13, 61740, Note_on_c, 12, 60, 40
13, 61800, Note_on_c, 12, 60, 0
13, 61800, Note_on_c, 12, 60, 46
13, 61830, Note_on_c, 12, 60, 0
13, 61860, Note_on_c, 12, 60, 56
13, 61890, Note_on_c, 12, 60, 0
13, 61920, Note_on_c, 12, 53, 44
13, 62040, Note_on_c, 12, 53, 0
13, 62100, Note_on_c, 12, 65, 53
13, 62220, Note_on_c, 12, 65, 0
13, 62220, Note_on_c, 12, 65, 45
13, 62280, Note_on_c, 12, 65, 0
13, 62280, Note_on_c, 12, 64, 43
13, 62340, Note_on_c, 12, 64, 0
13, 62340, Note_on_c, 12, 60, 51
13, 62400, Note_on_c, 12, 60, 0
13, 62400, Note_on_c, 12, 65, 54
13, 62460, Note_on_c, 12, 65, 0
13, 62460, Note_on_c, 12, 53, 50
13, 62520, Note_on_c, 12, 53, 0
13, 62520, Note_on_c, 12, 65, 45
13, 62580, Note_on_c, 12, 65, 0
13, 62580, Note_on_c, 12, 65, 54
13, 62640, Note_on_c, 12, 65, 0
13, 62640, Note_on_c, 12, 56, 58
13, 62700, Note_on_c, 12, 56, 0
13, 62700, Note_on_c, 12, 47, 67
13, 62760, Note_on_c, 12, 47, 0
13, 62760, Note_on_c, 12, 47, 84
13, 62790, Note_on_c, 12, 47, 0
13, 62820, Note_on_c, 12, 47, 71
13, 62850, Note_on_c, 12, 47, 0
13, 62880, Note_on_c, 12, 48, 67
13, 63000, Note_on_c, 12, 48, 0
13, 63000, Note_on_c, 12, 50, 78
13, 63030, Note_on_c, 12, 50, 0
13, 63030, Note_on_c, 12, 48, 64
13, 63060, Note_on_c, 12, 48, 0
13, 63060, Note_on_c, 12, 47, 68
13, 63090, Note_on_c, 12, 47, 0
13, 63090, Note_on_c, 12, 48, 69
13, 63120, Note_on_c, 12, 48, 0
13, 63120, Note_on_c, 12, 50, 65
13, 63150, Note_on_c, 12, 50, 0
13, 63180, Note_on_c, 12, 50, 69
13, 63210, Note_on_c, 12, 50, 0
13, 63240, Note_on_c, 12, 51, 74
13, 63270, Note_on_c, 12, 51, 0
13, 63270, Note_on_c, 12, 50, 90
13, 63300, Note_on_c, 12, 50, 0
13, 63300, Note_on_c, 12, 48, 73
13, 63330, Note_on_c, 12, 48, 0
13, 63330, Note_on_c, 12, 50, 86
13, 63360, Note_on_c, 12, 50, 0
13, 63360, Note_on_c, 12, 51, 76
13, 63540, Note_on_c, 12, 51, 0
13, 63540, Note_on_c, 12, 51, 74
13, 63600, Note_on_c, 12, 51, 0
13, 63600, Note_on_c, 12, 52, 84
13, 63630, Note_on_c, 12, 52, 0
13, 63660, Note_on_c, 12, 52, 90
13, 63690, Note_on_c, 12, 52, 0
13, 63720, Note_on_c, 12, 53, 72
13, 63750, Note_on_c, 12, 53, 0
13, 63750, Note_on_c, 12, 52, 95
13, 63780, Note_on_c, 12, 52, 0
13, 63780, Note_on_c, 12, 50, 95
13, 63810, Note_on_c, 12, 50, 0
13, 63810, Note_on_c, 12, 52, 94
13, 63840, Note_on_c, 12, 52, 0
13, 63840, Note_on_c, 12, 53, 73
13, 64020, Note_on_c, 12, 53, 0
13, 64020, Note_on_c, 12, 53, 80
13, 64080, Note_on_c, 12, 53, 0
13, 64080, Note_on_c, 12, 53, 86
13, 64140, Note_on_c, 12, 53, 0
13, 64140, Note_on_c, 12, 53, 89
13, 64200, Note_on_c, 12, 53, 0
13, 64200, Note_on_c, 12, 53, 85
13, 64260, Note_on_c, 12, 53, 0
13, 64260, Note_on_c, 12, 54, 90
13, 64320, Note_on_c, 12, 54, 0
13, 64320, Note_on_c, 12, 43, 112
13, 64380, Note_on_c, 12, 43, 0
13, 64380, Note_on_c, 12, 55, 99
13, 64440, Note_on_c, 12, 55, 0
13, 64440, Note_on_c, 12, 55, 101
13, 64500, Note_on_c, 12, 55, 0
13, 64500, Note_on_c, 12, 55, 98
13, 64560, Note_on_c, 12, 55, 0
13, 64560, Note_on_c, 12, 43, 105
13, 64620, Note_on_c, 12, 43, 0
13, 64620, Note_on_c, 12, 55, 95
13, 64680, Note_on_c, 12, 55, 0
13, 64680, Note_on_c, 12, 55, 93
13, 64740, Note_on_c, 12, 55, 0
13, 64740, Note_on_c, 12, 55, 95
13, 64800, Note_on_c, 12, 55, 0
13, 64800, Note_on_c, 12, 43, 105
13, 64860, Note_on_c, 12, 43, 0
13, 64860, Note_on_c, 12, 55, 99
13, 64920, Note_on_c, 12, 55, 0
13, 64920, Note_on_c, 12, 55, 99
13, 64980, Note_on_c, 12, 55, 0
13, 64980, Note_on_c, 12, 55, 99
13, 65040, Note_on_c, 12, 55, 0
13, 65040, Note_on_c, 12, 43, 105
13, 65100, Note_on_c, 12, 43, 0
13, 65100, Note_on_c, 12, 55, 115
13, 65160, Note_on_c, 12, 55, 0
13, 65160, Note_on_c, 12, 55, 105
13, 65220, Note_on_c, 12, 55, 0
13, 65220, Note_on_c, 12, 55, 105
13, 65280, Note_on_c, 12, 55, 0
13, 65280, Note_on_c, 12, 43, 94
13, 65340, Note_on_c, 12, 43, 0
13, 65340, Note_on_c, 12, 55, 45
13, 65400, Note_on_c, 12, 55, 0
13, 65400, Note_on_c, 12, 55, 45
13, 65460, Note_on_c, 12, 55, 0
13, 65460, Note_on_c, 12, 55, 43
13, 65520, Note_on_c, 12, 55, 0
13, 65520, Note_on_c, 12, 55, 45
13, 65580, Note_on_c, 12, 55, 0
13, 65580, Note_on_c, 12, 55, 45
13, 65640, Note_on_c, 12, 55, 0
13, 65640, Note_on_c, 12, 55, 43
13, 65700, Note_on_c, 12, 55, 0
13, 65700, Note_on_c, 12, 55, 52
13, 65760, Note_on_c, 12, 55, 0
13, 65760, Note_on_c, 12, 56, 98
13, 65820, Note_on_c, 12, 56, 0
13, 65820, Note_on_c, 12, 56, 43
13, 65880, Note_on_c, 12, 56, 0
13, 65880, Note_on_c, 12, 56, 43
13, 65940, Note_on_c, 12, 56, 0
13, 65940, Note_on_c, 12, 56, 44
13, 66000, Note_on_c, 12, 56, 0
13, 66000, Note_on_c, 12, 56, 43
13, 66060, Note_on_c, 12, 56, 0
13, 66060, Note_on_c, 12, 56, 46
13, 66120, Note_on_c, 12, 56, 0
13, 66120, Note_on_c, 12, 56, 47
13, 66180, Note_on_c, 12, 56, 0
13, 66180, Note_on_c, 12, 56, 54
13, 66240, Note_on_c, 12, 56, 0
13, 66240, Note_on_c, 12, 56, 44
13, 66300, Note_on_c, 12, 56, 0
13, 68160, Note_on_c, 12, 52, 44
13, 68280, Note_on_c, 12, 52, 0
13, 68280, Note_on_c, 12, 52, 40
13, 68400, Note_on_c, 12, 52, 0
13, 68400, Note_on_c, 12, 52, 40
13, 68520, Note_on_c, 12, 52, 0
13, 68520, Note_on_c, 12, 52, 41
13, 68640, Note_on_c, 12, 52, 0
13, 68640, Note_on_c, 12, 52, 40
13, 68760, Note_on_c, 12, 52, 0
13, 68760, Note_on_c, 12, 52, 40
13, 68880, Note_on_c, 12, 52, 0
13, 68880, Note_on_c, 12, 52, 42
13, 69000, Note_on_c, 12, 52, 0
13, 69000, Note_on_c, 12, 52, 41
13, 69120, Note_on_c, 12, 52, 0
13, 69120, Note_on_c, 12, 52, 42
13, 69240, Note_on_c, 12, 52, 0
13, 69240, Note_on_c, 12, 52, 40
13, 69360, Note_on_c, 12, 52, 0
13, 69360, Note_on_c, 12, 52, 40
13, 69480, Note_on_c, 12, 52, 0
13, 69480, Note_on_c, 12, 52, 42
13, 69600, Note_on_c, 12, 52, 0
13, 69600, Note_on_c, 12, 52, 40
13, 69720, Note_on_c, 12, 52, 0
13, 69720, Note_on_c, 12, 52, 40
13, 69840, Note_on_c, 12, 52, 0
13, 69840, Note_on_c, 12, 52, 41
13, 69960, Note_on_c, 12, 52, 0
13, 69960, Note_on_c, 12, 52, 40
13, 70080, Note_on_c, 12, 52, 0
13, 70080, Note_on_c, 12, 52, 40
13, 70200, Note_on_c, 12, 52, 0
13, 70200, Note_on_c, 12, 52, 41
13, 70320, Note_on_c, 12, 52, 0
13, 70320, Note_on_c, 12, 52, 43
13, 70380, Note_on_c, 12, 52, 0
13, 71700, Note_on_c, 12, 55, 43
13, 71760, Note_on_c, 12, 55, 0
13, 71760, Note_on_c, 12, 56, 50
13, 71820, Note_on_c, 12, 56, 0
13, 71820, Note_on_c, 12, 47, 37
13, 71880, Note_on_c, 12, 47, 0
13, 72660, Note_on_c, 12, 55, 40
13, 72720, Note_on_c, 12, 55, 0
13, 72720, Note_on_c, 12, 56, 40
13, 72780, Note_on_c, 12, 56, 0
13, 72780, Note_on_c, 12, 47, 39
13, 72840, Note_on_c, 12, 47, 0
13, 73440, Note_on_c, 12, 56, 40
13, 73500, Note_on_c, 12, 56, 0
13, 73500, Note_on_c, 12, 47, 43
13, 73560, Note_on_c, 12, 47, 0
13, 73920, Note_on_c, 12, 55, 40
13, 73980, Note_on_c, 12, 55, 0
13, 73980, Note_on_c, 12, 47, 40
13, 74040, Note_on_c, 12, 47, 0
13, 74040, Note_on_c, 12, 55, 44
13, 74100, Note_on_c, 12, 55, 0
13, 74100, Note_on_c, 12, 47, 42
13, 74160, Note_on_c, 12, 47, 0
13, 74160, Note_on_c, 12, 55, 38
13, 74220, Note_on_c, 12, 55, 0
13, 75840, Program_c, 12, 45
13, 76080, Note_on_c, 12, 55, 84
13, 76200, Note_on_c, 12, 55, 0
13, 76320, Note_on_c, 12, 60, 76
13, 76440, Note_on_c, 12, 60, 0
13, 76560, Note_on_c, 12, 55, 90
13, 76680, Note_on_c, 12, 55, 0
13, 76680, Note_on_c, 12, 48, 85
13, 76800, Note_on_c, 12, 48, 0
13, 76800, Note_on_c, 12, 55, 86
13, 76920, Note_on_c, 12, 55, 0
13, 77040, Note_on_c, 12, 55, 86
13, 77160, Note_on_c, 12, 55, 0
13, 77280, Note_on_c, 12, 48, 93
13, 77400, Note_on_c, 12, 48, 0
13, 77460, Note_on_c, 12, 51, 89
13, 77520, Note_on_c, 12, 51, 0
13, 77520, Note_on_c, 12, 50, 95
13, 77640, Note_on_c, 12, 50, 0
13, 77640, Note_on_c, 12, 50, 94
13, 77760, Note_on_c, 12, 50, 0
13, 77760, Note_on_c, 12, 55, 86
13, 77880, Note_on_c, 12, 55, 0
13, 77880, Program_c, 12, 48
13, 78000, Note_on_c, 12, 47, 99
13, 78030, Note_on_c, 12, 47, 0
13, 78030, Note_on_c, 12, 43, 90
13, 78060, Note_on_c, 12, 43, 0
13, 78060, Note_on_c, 12, 47, 101
13, 78090, Note_on_c, 12, 47, 0
13, 78090, Note_on_c, 12, 50, 93
13, 78120, Note_on_c, 12, 50, 0
13, 78120, Note_on_c, 12, 55, 77
13, 78150, Note_on_c, 12, 55, 0
13, 78150, Note_on_c, 12, 53, 90
13, 78180, Note_on_c, 12, 53, 0
13, 78180, Note_on_c, 12, 51, 94
13, 78210, Note_on_c, 12, 51, 0
13, 78210, Note_on_c, 12, 50, 99
13, 78240, Note_on_c, 12, 50, 0
13, 78240, Note_on_c, 12, 51, 94
13, 78270, Note_on_c, 12, 51, 0
13, 78270, Note_on_c, 12, 55, 80
13, 78300, Note_on_c, 12, 55, 0
13, 78300, Note_on_c, 12, 54, 89
13, 78330, Note_on_c, 12, 54, 0
13, 78330, Note_on_c, 12, 55, 80
13, 78360, Note_on_c, 12, 55, 0
13, 78360, Note_on_c, 12, 53, 93
13, 78390, Note_on_c, 12, 53, 0
13, 78390, Note_on_c, 12, 51, 86
13, 78420, Note_on_c, 12, 51, 0
13, 78420, Note_on_c, 12, 50, 93
13, 78450, Note_on_c, 12, 50, 0
13, 78450, Note_on_c, 12, 48, 101
13, 78480, Note_on_c, 12, 48, 0
13, 78480, Note_on_c, 12, 47, 101
13, 78510, Note_on_c, 12, 47, 0
13, 78510, Note_on_c, 12, 43, 86
13, 78540, Note_on_c, 12, 43, 0
13, 78540, Note_on_c, 12, 47, 94
13, 78570, Note_on_c, 12, 47, 0
13, 78570, Note_on_c, 12, 43, 85
13, 78600, Note_on_c, 12, 43, 0
13, 78600, Note_on_c, 12, 48, 95
13, 78630, Note_on_c, 12, 48, 0
13, 78630, Note_on_c, 12, 43, 84
13, 78660, Note_on_c, 12, 43, 0
13, 78660, Note_on_c, 12, 48, 94
13, 78690, Note_on_c, 12, 48, 0
13, 78690, Note_on_c, 12, 43, 84
13, 78720, Note_on_c, 12, 43, 0
13, 78720, Note_on_c, 12, 47, 93
13, 78750, Note_on_c, 12, 47, 0
13, 78750, Note_on_c, 12, 43, 89
13, 78780, Note_on_c, 12, 43, 0
13, 78780, Note_on_c, 12, 47, 95
13, 78810, Note_on_c, 12, 47, 0
13, 78810, Note_on_c, 12, 43, 93
13, 78840, Note_on_c, 12, 43, 0
13, 78840, Note_on_c, 12, 47, 94
13, 78870, Note_on_c, 12, 47, 0
13, 78870, Note_on_c, 12, 43, 94
13, 78900, Note_on_c, 12, 43, 0
13, 78900, Note_on_c, 12, 47, 99
13, 78930, Note_on_c, 12, 47, 0
13, 78930, Note_on_c, 12, 43, 95
13, 78960, Note_on_c, 12, 43, 0
13, 78960, Note_on_c, 12, 47, 95
13, 78990, Note_on_c, 12, 47, 0
13, 78990, Note_on_c, 12, 43, 89
13, 79020, Note_on_c, 12, 43, 0
13, 79020, Note_on_c, 12, 47, 95
13, 79050, Note_on_c, 12, 47, 0
13, 79050, Note_on_c, 12, 50, 98
13, 79080, Note_on_c, 12, 50, 0
13, 79080, Note_on_c, 12, 55, 76
13, 79110, Note_on_c, 12, 55, 0
13, 79110, Note_on_c, 12, 53, 82
13, 79140, Note_on_c, 12, 53, 0
13, 79140, Note_on_c, 12, 51, 89
13, 79170, Note_on_c, 12, 51, 0
13, 79170, Note_on_c, 12, 50, 90
13, 79200, Note_on_c, 12, 50, 0
13, 79200, Note_on_c, 12, 51, 93
13, 79230, Note_on_c, 12, 51, 0
13, 79230, Note_on_c, 12, 55, 76
13, 79260, Note_on_c, 12, 55, 0
13, 79260, Note_on_c, 12, 54, 84
13, 79290, Note_on_c, 12, 54, 0
13, 79290, Note_on_c, 12, 55, 78
13, 79320, Note_on_c, 12, 55, 0
13, 79320, Note_on_c, 12, 53, 80
13, 79350, Note_on_c, 12, 53, 0
13, 79350, Note_on_c, 12, 51, 89
13, 79380, Note_on_c, 12, 51, 0
13, 79380, Note_on_c, 12, 50, 94
13, 79410, Note_on_c, 12, 50, 0
13, 79410, Note_on_c, 12, 48, 94
13, 79440, Note_on_c, 12, 48, 0
13, 79440, Note_on_c, 12, 53, 89
13, 79470, Note_on_c, 12, 53, 0
13, 79470, Note_on_c, 12, 52, 94
13, 79500, Note_on_c, 12, 52, 0
13, 79500, Note_on_c, 12, 53, 89
13, 79530, Note_on_c, 12, 53, 0
13, 79530, Note_on_c, 12, 54, 78
13, 79560, Note_on_c, 12, 54, 0
13, 79560, Note_on_c, 12, 55, 78
13, 79590, Note_on_c, 12, 55, 0
13, 79590, Note_on_c, 12, 53, 80
13, 79620, Note_on_c, 12, 53, 0
13, 79620, Note_on_c, 12, 51, 89
13, 79650, Note_on_c, 12, 51, 0
13, 79650, Note_on_c, 12, 50, 95
13, 79680, Note_on_c, 12, 50, 0
13, 79680, Note_on_c, 12, 51, 86
13, 79710, Note_on_c, 12, 51, 0
13, 79710, Note_on_c, 12, 51, 90
13, 79740, Note_on_c, 12, 51, 0
13, 79740, Note_on_c, 12, 53, 81
13, 79770, Note_on_c, 12, 53, 0
13, 79770, Note_on_c, 12, 55, 85
13, 79800, Note_on_c, 12, 55, 0
13, 79800, Note_on_c, 12, 56, 119
13, 79950, Note_on_c, 12, 56, 0
13, 79950, Note_on_c, 12, 53, 85
13, 79980, Note_on_c, 12, 53, 0
13, 79980, Note_on_c, 12, 52, 98
13, 80010, Note_on_c, 12, 52, 0
13, 80010, Note_on_c, 12, 53, 90
13, 80040, Note_on_c, 12, 53, 0
13, 80040, Note_on_c, 12, 55, 84
13, 80070, Note_on_c, 12, 55, 0
13, 80070, Note_on_c, 12, 54, 84
13, 80100, Note_on_c, 12, 54, 0
13, 80100, Note_on_c, 12, 55, 84
13, 80130, Note_on_c, 12, 55, 0
13, 80130, Note_on_c, 12, 43, 98
13, 80160, Note_on_c, 12, 43, 0
13, 80160, Note_on_c, 12, 48, 95
13, 80190, Note_on_c, 12, 48, 0
13, 80190, Note_on_c, 12, 51, 94
13, 80220, Note_on_c, 12, 51, 0
13, 80220, Note_on_c, 12, 53, 94
13, 80250, Note_on_c, 12, 53, 0
13, 80250, Note_on_c, 12, 55, 89
13, 80280, Note_on_c, 12, 55, 0
13, 80280, Note_on_c, 12, 56, 119
13, 80430, Note_on_c, 12, 56, 0
13, 80430, Note_on_c, 12, 53, 93
13, 80460, Note_on_c, 12, 53, 0
13, 80460, Note_on_c, 12, 52, 95
13, 80490, Note_on_c, 12, 52, 0
13, 80490, Note_on_c, 12, 53, 89
13, 80520, Note_on_c, 12, 53, 0
13, 80520, Note_on_c, 12, 55, 80
13, 80550, Note_on_c, 12, 55, 0
13, 80550, Note_on_c, 12, 54, 84
13, 80580, Note_on_c, 12, 54, 0
13, 80580, Note_on_c, 12, 55, 80
13, 80610, Note_on_c, 12, 55, 0
13, 80610, Note_on_c, 12, 43, 95
13, 80640, Note_on_c, 12, 43, 0
13, 80640, Note_on_c, 12, 48, 99
13, 80700, Note_on_c, 12, 48, 0
13, 80760, Note_on_c, 12, 43, 89
13, 80820, Note_on_c, 12, 43, 0
13, 80880, Note_on_c, 12, 48, 99
13, 80940, Note_on_c, 12, 48, 0
13, 84000, Note_on_c, 12, 48, 76
13, 84120, Note_on_c, 12, 48, 0
13, 84240, Note_on_c, 12, 55, 66
13, 84360, Note_on_c, 12, 55, 0
13, 84480, Note_on_c, 12, 57, 72
13, 84600, Note_on_c, 12, 57, 0
13, 84720, Note_on_c, 12, 55, 61
13, 84840, Note_on_c, 12, 55, 0
13, 84960, Note_on_c, 12, 48, 67
13, 85080, Note_on_c, 12, 48, 0
13, 85200, Note_on_c, 12, 57, 71
13, 85320, Note_on_c, 12, 57, 0
13, 85440, Note_on_c, 12, 50, 57
13, 85560, Note_on_c, 12, 50, 0
13, 85560, Note_on_c, 12, 50, 84
13, 85680, Note_on_c, 12, 50, 0
13, 85680, Note_on_c, 12, 55, 65
13, 85800, Note_on_c, 12, 55, 0
13, 85920, Note_on_c, 12, 48, 64
13, 86040, Note_on_c, 12, 48, 0
13, 86160, Note_on_c, 12, 43, 67
13, 86280, Note_on_c, 12, 43, 0
13, 86400, Note_on_c, 12, 57, 76
13, 86520, Note_on_c, 12, 57, 0
13, 86520, Note_on_c, 12, 57, 86
13, 86640, Note_on_c, 12, 57, 0
13, 86640, Note_on_c, 12, 53, 99
13, 86880, Note_on_c, 12, 53, 0
13, 86880, Note_on_c, 12, 52, 68
13, 87000, Note_on_c, 12, 52, 0
13, 87000, Note_on_c, 12, 57, 80
13, 87120, Note_on_c, 12, 57, 0
13, 87120, Note_on_c, 12, 50, 115
13, 87300, Note_on_c, 12, 50, 0
13, 87300, Note_on_c, 12, 53, 71
13, 87360, Note_on_c, 12, 53, 0
13, 87360, Note_on_c, 12, 55, 65
13, 87420, Note_on_c, 12, 55, 0
13, 87420, Note_on_c, 12, 55, 77
13, 87480, Note_on_c, 12, 55, 0
13, 87480, Note_on_c, 12, 43, 81
13, 87540, Note_on_c, 12, 43, 0
13, 87540, Note_on_c, 12, 43, 81
13, 87600, Note_on_c, 12, 43, 0
13, 87600, Note_on_c, 12, 48, 82
13, 87660, Note_on_c, 12, 48, 0
13, 88740, Note_on_c, 12, 60, 66
13, 88800, Note_on_c, 12, 60, 0
13, 88800, Note_on_c, 12, 48, 68
13, 88860, Note_on_c, 12, 48, 0
13, 88980, Note_on_c, 12, 60, 71
13, 89040, Note_on_c, 12, 60, 0
13, 89040, Note_on_c, 12, 48, 76
13, 89100, Note_on_c, 12, 48, 0
13, 89220, Note_on_c, 12, 60, 61
13, 89280, Note_on_c, 12, 60, 0
13, 89280, Note_on_c, 12, 48, 76
13, 89340, Note_on_c, 12, 48, 0
13, 89340, Note_on_c, 12, 53, 77
13, 89370, Note_on_c, 12, 53, 0
13, 89400, Note_on_c, 12, 55, 73
13, 89430, Note_on_c, 12, 55, 0
13, 89460, Note_on_c, 12, 43, 80
13, 89490, Note_on_c, 12, 43, 0
13, 89520, Note_on_c, 12, 48, 82
13, 89580, Note_on_c, 12, 48, 0
13, 89640, Note_on_c, 12, 57, 74
13, 89700, Note_on_c, 12, 57, 0
13, 89760, Note_on_c, 12, 53, 69
13, 89820, Note_on_c, 12, 53, 0
13, 89880, Note_on_c, 12, 50, 78
13, 89940, Note_on_c, 12, 50, 0
13, 90000, Note_on_c, 12, 47, 84
13, 90060, Note_on_c, 12, 47, 0
13, 92880, Note_on_c, 12, 54, 58
13, 92940, Note_on_c, 12, 54, 0
13, 93360, Note_on_c, 12, 48, 71
13, 93420, Note_on_c, 12, 48, 0
13, 93840, Note_on_c, 12, 44, 40
13, 93900, Note_on_c, 12, 44, 0
13, 94800, Note_on_c, 12, 44, 40
13, 94920, Note_on_c, 12, 44, 0
13, 94920, Note_on_c, 12, 44, 43
13, 95040, Note_on_c, 12, 44, 0
13, 95040, Note_on_c, 12, 44, 43
13, 95160, Note_on_c, 12, 44, 0
13, 95160, Note_on_c, 12, 44, 43
13, 95280, Note_on_c, 12, 44, 0
13, 95280, Note_on_c, 12, 44, 41
13, 95400, Note_on_c, 12, 44, 0
13, 95400, Note_on_c, 12, 44, 41
13, 95520, Note_on_c, 12, 44, 0
13, 95520, Note_on_c, 12, 44, 42
13, 95640, Note_on_c, 12, 44, 0
13, 95640, Note_on_c, 12, 44, 41
13, 95760, Note_on_c, 12, 44, 0
13, 95760, Note_on_c, 12, 44, 62
13, 95880, Note_on_c, 12, 44, 0
13, 96000, Note_on_c, 12, 49, 65
13, 96120, Note_on_c, 12, 49, 0
13, 96240, Note_on_c, 12, 46, 61
13, 96360, Note_on_c, 12, 46, 0
13, 96480, Note_on_c, 12, 51, 53
13, 96600, Note_on_c, 12, 51, 0
13, 96720, Note_on_c, 12, 43, 74
13, 96840, Note_on_c, 12, 43, 0
13, 96960, Note_on_c, 12, 44, 59
13, 97080, Note_on_c, 12, 44, 0
13, 97200, Note_on_c, 12, 56, 61
13, 97320, Note_on_c, 12, 56, 0
13, 97440, Note_on_c, 12, 55, 70
13, 97560, Note_on_c, 12, 55, 0
13, 97680, Note_on_c, 12, 55, 60
13, 97800, Note_on_c, 12, 55, 0
13, 97920, Note_on_c, 12, 55, 59
13, 98040, Note_on_c, 12, 55, 0
13, 98160, Note_on_c, 12, 55, 62
13, 98280, Note_on_c, 12, 55, 0
13, 98400, Note_on_c, 12, 55, 62
13, 98520, Note_on_c, 12, 55, 0
13, 98520, Note_on_c, 12, 55, 72
13, 98640, Note_on_c, 12, 55, 0
13, 98640, Note_on_c, 12, 55, 78
13, 98760, Note_on_c, 12, 55, 0
13, 98760, Note_on_c, 12, 55, 89
13, 98880, Note_on_c, 12, 55, 0
13, 98880, Note_on_c, 12, 43, 90
13, 98940, Note_on_c, 12, 43, 0
13, 98940, Note_on_c, 12, 56, 84
13, 99000, Note_on_c, 12, 56, 0
13, 99000, Note_on_c, 12, 55, 90
13, 99060, Note_on_c, 12, 55, 0
13, 99060, Note_on_c, 12, 60, 81
13, 99120, Note_on_c, 12, 60, 0
13, 99120, Note_on_c, 12, 59, 93
13, 99180, Note_on_c, 12, 59, 0
13, 99180, Note_on_c, 12, 63, 81
13, 99240, Note_on_c, 12, 63, 0
13, 99240, Note_on_c, 12, 62, 82
13, 99300, Note_on_c, 12, 62, 0
13, 99300, Note_on_c, 12, 60, 86
13, 99360, Note_on_c, 12, 60, 0
13, 99360, Note_on_c, 12, 59, 81
13, 99420, Note_on_c, 12, 59, 0
13, 99420, Note_on_c, 12, 56, 89
13, 99480, Note_on_c, 12, 56, 0
13, 99480, Note_on_c, 12, 55, 94
13, 99540, Note_on_c, 12, 55, 0
13, 99540, Note_on_c, 12, 60, 80
13, 99600, Note_on_c, 12, 60, 0
13, 99600, Note_on_c, 12, 59, 95
13, 99660, Note_on_c, 12, 59, 0
13, 99660, Note_on_c, 12, 63, 89
13, 99720, Note_on_c, 12, 63, 0
13, 99720, Note_on_c, 12, 62, 84
13, 99780, Note_on_c, 12, 62, 0
13, 99780, Note_on_c, 12, 60, 94
13, 99840, Note_on_c, 12, 60, 0
13, 99840, Note_on_c, 12, 59, 105
13, 99900, Note_on_c, 12, 59, 0
13, 99900, Note_on_c, 12, 56, 99
13, 99960, Note_on_c, 12, 56, 0
13, 99960, Note_on_c, 12, 55, 105
13, 100020, Note_on_c, 12, 55, 0
13, 100020, Note_on_c, 12, 56, 105
13, 100080, Note_on_c, 12, 56, 0
13, 100080, Note_on_c, 12, 55, 105
13, 100140, Note_on_c, 12, 55, 0
13, 100140, Note_on_c, 12, 56, 105
13, 100200, Note_on_c, 12, 56, 0
13, 100200, Note_on_c, 12, 55, 104
13, 100260, Note_on_c, 12, 55, 0
13, 100260, Note_on_c, 12, 56, 104
13, 100320, Note_on_c, 12, 56, 0
13, 100320, Note_on_c, 12, 55, 105
13, 100380, Note_on_c, 12, 55, 0
13, 100380, Note_on_c, 12, 56, 99
13, 100440, Note_on_c, 12, 56, 0
13, 100440, Note_on_c, 12, 55, 101
13, 100500, Note_on_c, 12, 55, 0
13, 100500, Note_on_c, 12, 56, 99
13, 100560, Note_on_c, 12, 56, 0
13, 100560, Note_on_c, 12, 55, 105
13, 100620, Note_on_c, 12, 55, 0
13, 100620, Note_on_c, 12, 56, 99
13, 100680, Note_on_c, 12, 56, 0
13, 100680, Note_on_c, 12, 55, 101
13, 100740, Note_on_c, 12, 55, 0
13, 100740, Note_on_c, 12, 56, 99
13, 100800, Note_on_c, 12, 56, 0
13, 100800, Note_on_c, 12, 55, 105
13, 100830, Note_on_c, 12, 55, 0
13, 100830, Note_on_c, 12, 43, 104
13, 100860, Note_on_c, 12, 43, 0
13, 100860, Note_on_c, 12, 45, 110
13, 100890, Note_on_c, 12, 45, 0
13, 100890, Note_on_c, 12, 47, 107
13, 100920, Note_on_c, 12, 47, 0
13, 100920, Note_on_c, 12, 48, 110
13, 100950, Note_on_c, 12, 48, 0
13, 100950, Note_on_c, 12, 50, 112
13, 100980, Note_on_c, 12, 50, 0
13, 100980, Note_on_c, 12, 52, 110
13, 101010, Note_on_c, 12, 52, 0
13, 101010, Note_on_c, 12, 54, 104
13, 101040, Note_on_c, 12, 54, 0
13, 101040, Note_on_c, 12, 55, 107
13, 101070, Note_on_c, 12, 55, 0
13, 101070, Note_on_c, 12, 43, 105
13, 101100, Note_on_c, 12, 43, 0
13, 101100, Note_on_c, 12, 45, 107
13, 101130, Note_on_c, 12, 45, 0
13, 101130, Note_on_c, 12, 47, 110
13, 101160, Note_on_c, 12, 47, 0
13, 101160, Note_on_c, 12, 48, 110
13, 101190, Note_on_c, 12, 48, 0
13, 101190, Note_on_c, 12, 50, 112
13, 101220, Note_on_c, 12, 50, 0
13, 101220, Note_on_c, 12, 52, 112
13, 101250, Note_on_c, 12, 52, 0
13, 101250, Note_on_c, 12, 54, 105
13, 101280, Note_on_c, 12, 54, 0
13, 101280, Note_on_c, 12, 55, 119
13, 101520, Note_on_c, 12, 55, 0
13, 101520, Note_on_c, 12, 43, 123
13, 101760, Note_on_c, 12, 43, 0
13, 101760, Note_on_c, 12, 43, 125
13, 102360, Note_on_c, 12, 43, 0
13, 106560, Note_on_c, 12, 55, 62
13, 106680, Note_on_c, 12, 55, 0
13, 106920, Note_on_c, 12, 55, 53
13, 107040, Note_on_c, 12, 55, 0
13, 107160, Note_on_c, 12, 55, 54
13, 107220, Note_on_c, 12, 55, 0
13, 107220, Note_on_c, 12, 57, 65
13, 107280, Note_on_c, 12, 57, 0
13, 107280, Note_on_c, 12, 53, 65
13, 107400, Note_on_c, 12, 53, 0
13, 107460, Note_on_c, 12, 55, 55
13, 107580, Note_on_c, 12, 55, 0
13, 107640, Note_on_c, 12, 48, 64
13, 107760, Note_on_c, 12, 48, 0
13, 108000, Note_on_c, 12, 55, 65
13, 108120, Note_on_c, 12, 55, 0
13, 108360, Note_on_c, 12, 55, 58
13, 108480, Note_on_c, 12, 55, 0
13, 108600, Note_on_c, 12, 55, 62
13, 108630, Note_on_c, 12, 55, 0
13, 108660, Note_on_c, 12, 57, 69
13, 108690, Note_on_c, 12, 57, 0
13, 108720, Note_on_c, 12, 53, 52
13, 108840, Note_on_c, 12, 53, 0
13, 108900, Note_on_c, 12, 55, 56
13, 109020, Note_on_c, 12, 55, 0
13, 109080, Note_on_c, 12, 48, 95
13, 109200, Note_on_c, 12, 48, 0
13, 119160, Note_on_c, 12, 48, 86
13, 119280, Note_on_c, 12, 48, 0
13, 119520, Note_on_c, 12, 55, 78
13, 119640, Note_on_c, 12, 55, 0
13, 119880, Note_on_c, 12, 48, 52
13, 120000, Note_on_c, 12, 48, 0
13, 120060, Note_on_c, 12, 57, 45
13, 120180, Note_on_c, 12, 57, 0
13, 120240, Note_on_c, 12, 53, 45
13, 120360, Note_on_c, 12, 53, 0
13, 120420, Note_on_c, 12, 55, 43
13, 120540, Note_on_c, 12, 55, 0
13, 120600, Note_on_c, 12, 48, 81
13, 120720, Note_on_c, 12, 48, 0
13, 120960, Note_on_c, 12, 55, 81
13, 121080, Note_on_c, 12, 55, 0
13, 121320, Note_on_c, 12, 48, 62
13, 121440, Note_on_c, 12, 48, 0
13, 121500, Note_on_c, 12, 57, 58
13, 121620, Note_on_c, 12, 57, 0
13, 121680, Note_on_c, 12, 53, 62
13, 121800, Note_on_c, 12, 53, 0
13, 121860, Note_on_c, 12, 55, 60
13, 121980, Note_on_c, 12, 55, 0
13, 122040, Note_on_c, 12, 48, 64
13, 122160, Note_on_c, 12, 48, 0
13, 122220, Note_on_c, 12, 57, 64
13, 122340, Note_on_c, 12, 57, 0
13, 122400, Note_on_c, 12, 53, 65
13, 122520, Note_on_c, 12, 53, 0
13, 122580, Note_on_c, 12, 55, 61
13, 122700, Note_on_c, 12, 55, 0
13, 122760, Note_on_c, 12, 48, 77
13, 122880, Note_on_c, 12, 48, 0
13, 123840, Note_on_c, 12, 55, 73
13, 123960, Note_on_c, 12, 55, 0
13, 124200, Note_on_c, 12, 60, 105
13, 124260, Note_on_c, 12, 60, 0
13, 124260, Note_on_c, 12, 64, 99
13, 124320, Note_on_c, 12, 64, 0
13, 124320, Note_on_c, 12, 62, 104
13, 124380, Note_on_c, 12, 62, 0
13, 124380, Note_on_c, 12, 60, 105
13, 124440, Note_on_c, 12, 60, 0
13, 124440, Note_on_c, 12, 59, 105
13, 124500, Note_on_c, 12, 59, 0
13, 124500, Note_on_c, 12, 57, 112
13, 124560, Note_on_c, 12, 57, 0
13, 124560, Note_on_c, 12, 55, 104
13, 124620, Note_on_c, 12, 55, 0
13, 124620, Note_on_c, 12, 57, 110
13, 124680, Note_on_c, 12, 57, 0
13, 124680, Note_on_c, 12, 55, 99
13, 124740, Note_on_c, 12, 55, 0
13, 124740, Note_on_c, 12, 53, 99
13, 124800, Note_on_c, 12, 53, 0
13, 124800, Note_on_c, 12, 52, 107
13, 124860, Note_on_c, 12, 52, 0
13, 124860, Note_on_c, 12, 50, 112
13, 124920, Note_on_c, 12, 50, 0
13, 124920, Note_on_c, 12, 48, 101
13, 125040, Note_on_c, 12, 48, 0
13, 125100, Note_on_c, 12, 55, 104
13, 125220, Note_on_c, 12, 55, 0
13, 125280, Note_on_c, 12, 60, 104
13, 125400, Note_on_c, 12, 60, 0
13, 125460, Note_on_c, 12, 43, 105
13, 125580, Note_on_c, 12, 43, 0
13, 125640, Note_on_c, 12, 48, 104
13, 125760, Note_on_c, 12, 48, 0
13, 126000, Note_on_c, 12, 60, 104
13, 126120, Note_on_c, 12, 60, 0
13, 126360, Note_on_c, 12, 48, 123
13, 126480, Note_on_c, 12, 48, 0
13, 126480, End_track
14, 0, Start_track
14, 0, MIDI_port, 0
14, 0, Title_t, "Contrabasses"
14, 0, Program_c, 13, 48
14, 0, Control_c, 13, 7, 100
14, 0, Control_c, 13, 10, 113
14, 0, Control_c, 13, 93, 0
14, 0, Control_c, 13, 91, 66
14, 2040, Program_c, 13, 45
14, 2160, Note_on_c, 13, 43, 86
14, 2220, Note_on_c, 13, 43, 0
14, 2400, Note_on_c, 13, 48, 93
14, 2460, Note_on_c, 13, 48, 0
14, 2640, Note_on_c, 13, 43, 84
14, 2760, Note_on_c, 13, 43, 0
14, 2760, Note_on_c, 13, 48, 94
14, 2880, Note_on_c, 13, 48, 0
14, 2880, Note_on_c, 13, 43, 94
14, 3000, Note_on_c, 13, 43, 0
14, 3120, Note_on_c, 13, 43, 94
14, 3240, Note_on_c, 13, 43, 0
14, 3360, Note_on_c, 13, 48, 86
14, 3480, Note_on_c, 13, 48, 0
14, 3540, Note_on_c, 13, 51, 94
14, 3600, Note_on_c, 13, 51, 0
14, 3600, Note_on_c, 13, 50, 105
14, 3720, Note_on_c, 13, 50, 0
14, 3720, Note_on_c, 13, 38, 98
14, 3840, Note_on_c, 13, 38, 0
14, 3840, Note_on_c, 13, 43, 93
14, 3960, Note_on_c, 13, 43, 0
14, 5040, Note_on_c, 13, 44, 72
14, 5100, Note_on_c, 13, 44, 0
14, 5160, Note_on_c, 13, 44, 81
14, 5220, Note_on_c, 13, 44, 0
14, 5280, Note_on_c, 13, 43, 89
14, 5340, Note_on_c, 13, 43, 0
14, 5520, Control_c, 13, 7, 99
14, 5520, Note_on_c, 13, 44, 78
14, 5545, Control_c, 13, 7, 98
14, 5565, Control_c, 13, 7, 97
14, 5580, Note_on_c, 13, 44, 0
14, 5585, Control_c, 13, 7, 96
14, 5610, Control_c, 13, 7, 95
14, 5630, Control_c, 13, 7, 94
14, 5640, Note_on_c, 13, 44, 82
14, 5650, Control_c, 13, 7, 93
14, 5675, Control_c, 13, 7, 92
14, 5695, Control_c, 13, 7, 91
14, 5700, Note_on_c, 13, 44, 0
14, 5715, Control_c, 13, 7, 90
14, 5740, Control_c, 13, 7, 89
14, 5760, Control_c, 13, 7, 88
14, 5760, Note_on_c, 13, 43, 89
14, 5780, Control_c, 13, 7, 87
14, 5800, Control_c, 13, 7, 86
14, 5825, Control_c, 13, 7, 85
14, 5845, Control_c, 13, 7, 84
14, 5865, Control_c, 13, 7, 83
14, 5880, Note_on_c, 13, 43, 0
14, 5890, Control_c, 13, 7, 82
14, 5910, Control_c, 13, 7, 81
14, 5930, Control_c, 13, 7, 80
14, 5955, Control_c, 13, 7, 79
14, 5975, Control_c, 13, 7, 78
14, 5995, Control_c, 13, 7, 77
14, 6000, Note_on_c, 13, 44, 81
14, 6015, Control_c, 13, 7, 76
14, 6040, Control_c, 13, 7, 75
14, 6060, Control_c, 13, 7, 74
14, 6080, Control_c, 13, 7, 73
14, 6105, Control_c, 13, 7, 72
14, 6120, Note_on_c, 13, 44, 0
14, 6120, Note_on_c, 13, 44, 81
14, 6125, Control_c, 13, 7, 71
14, 6145, Control_c, 13, 7, 70
14, 6170, Control_c, 13, 7, 69
14, 6190, Control_c, 13, 7, 68
14, 6210, Control_c, 13, 7, 67
14, 6230, Control_c, 13, 7, 66
14, 6240, Note_on_c, 13, 44, 0
14, 6240, Note_on_c, 13, 43, 90
14, 6360, Note_on_c, 13, 43, 0
14, 6600, Control_c, 13, 7, 99
14, 8160, Note_on_c, 13, 43, 85
14, 8220, Note_on_c, 13, 43, 0
14, 8400, Note_on_c, 13, 48, 89
14, 8460, Note_on_c, 13, 48, 0
14, 8640, Note_on_c, 13, 47, 86
14, 8700, Note_on_c, 13, 47, 0
14, 8760, Note_on_c, 13, 46, 85
14, 8820, Note_on_c, 13, 46, 0
14, 8880, Note_on_c, 13, 44, 80
14, 9000, Note_on_c, 13, 44, 0
14, 9060, Note_on_c, 13, 41, 86
14, 9120, Note_on_c, 13, 41, 0
14, 9120, Note_on_c, 13, 43, 86
14, 9180, Note_on_c, 13, 43, 0
14, 9238, Note_on_c, 13, 31, 100
14, 9298, Note_on_c, 13, 31, 0
14, 9360, Note_on_c, 13, 36, 84
14, 9480, Note_on_c, 13, 36, 0
14, 9480, Program_c, 13, 48
14, 9600, Note_on_c, 13, 36, 99
14, 9630, Note_on_c, 13, 36, 0
14, 9630, Note_on_c, 13, 36, 99
14, 9660, Note_on_c, 13, 36, 0
14, 9660, Note_on_c, 13, 40, 105
14, 9690, Note_on_c, 13, 40, 0
14, 9690, Note_on_c, 13, 43, 95
14, 9720, Note_on_c, 13, 43, 0
14, 9720, Note_on_c, 13, 48, 86
14, 9750, Note_on_c, 13, 48, 0
14, 9750, Note_on_c, 13, 46, 95
14, 9780, Note_on_c, 13, 46, 0
14, 9780, Note_on_c, 13, 44, 99
14, 9810, Note_on_c, 13, 44, 0
14, 9810, Note_on_c, 13, 43, 95
14, 9840, Note_on_c, 13, 43, 0
14, 9840, Note_on_c, 13, 44, 94
14, 9870, Note_on_c, 13, 44, 0
14, 9870, Note_on_c, 13, 46, 95
14, 9900, Note_on_c, 13, 46, 0
14, 9900, Note_on_c, 13, 44, 95
14, 9930, Note_on_c, 13, 44, 0
14, 9930, Note_on_c, 13, 43, 95
14, 9960, Note_on_c, 13, 43, 0
14, 9960, Note_on_c, 13, 41, 86
14, 9990, Note_on_c, 13, 41, 0
14, 9990, Note_on_c, 13, 39, 98
14, 10020, Note_on_c, 13, 39, 0
14, 10020, Note_on_c, 13, 38, 105
14, 10050, Note_on_c, 13, 38, 0
14, 10050, Note_on_c, 13, 36, 93
14, 10080, Note_on_c, 13, 36, 0
14, 10080, Note_on_c, 13, 38, 104
14, 10110, Note_on_c, 13, 38, 0
14, 10110, Note_on_c, 13, 34, 95
14, 10140, Note_on_c, 13, 34, 0
14, 10140, Note_on_c, 13, 38, 105
14, 10170, Note_on_c, 13, 38, 0
14, 10170, Note_on_c, 13, 41, 93
14, 10200, Note_on_c, 13, 41, 0
14, 10200, Note_on_c, 13, 46, 86
14, 10230, Note_on_c, 13, 46, 0
14, 10230, Note_on_c, 13, 44, 104
14, 10260, Note_on_c, 13, 44, 0
14, 10260, Note_on_c, 13, 43, 99
14, 10290, Note_on_c, 13, 43, 0
14, 10290, Note_on_c, 13, 41, 94
14, 10320, Note_on_c, 13, 41, 0
14, 10320, Note_on_c, 13, 43, 99
14, 10350, Note_on_c, 13, 43, 0
14, 10350, Note_on_c, 13, 44, 95
14, 10380, Note_on_c, 13, 44, 0
14, 10380, Note_on_c, 13, 43, 95
14, 10410, Note_on_c, 13, 43, 0
14, 10410, Note_on_c, 13, 41, 95
14, 10440, Note_on_c, 13, 41, 0
14, 10440, Note_on_c, 13, 39, 95
14, 10470, Note_on_c, 13, 39, 0
14, 10470, Note_on_c, 13, 38, 99
14, 10500, Note_on_c, 13, 38, 0
14, 10500, Note_on_c, 13, 36, 105
14, 10530, Note_on_c, 13, 36, 0
14, 10530, Note_on_c, 13, 34, 99
14, 10560, Note_on_c, 13, 34, 0
14, 10560, Note_on_c, 13, 32, 105
14, 10590, Note_on_c, 13, 32, 0
14, 10590, Note_on_c, 13, 44, 105
14, 10620, Note_on_c, 13, 44, 0
14, 10620, Note_on_c, 13, 44, 105
14, 10650, Note_on_c, 13, 44, 0
14, 10650, Note_on_c, 13, 44, 107
14, 10680, Note_on_c, 13, 44, 0
14, 10680, Note_on_c, 13, 32, 99
14, 10710, Note_on_c, 13, 32, 0
14, 10710, Note_on_c, 13, 44, 99
14, 10740, Note_on_c, 13, 44, 0
14, 10740, Note_on_c, 13, 44, 104
14, 10770, Note_on_c, 13, 44, 0
14, 10770, Note_on_c, 13, 44, 105
14, 10800, Note_on_c, 13, 44, 0
14, 10800, Note_on_c, 13, 31, 123
14, 10830, Note_on_c, 13, 31, 0
14, 10830, Note_on_c, 13, 43, 112
14, 10860, Note_on_c, 13, 43, 0
14, 10860, Note_on_c, 13, 43, 95
14, 10890, Note_on_c, 13, 43, 0
14, 10890, Note_on_c, 13, 43, 81
14, 10920, Note_on_c, 13, 43, 0
14, 10920, Note_on_c, 13, 31, 104
14, 10950, Note_on_c, 13, 31, 0
14, 10950, Note_on_c, 13, 43, 89
14, 10980, Note_on_c, 13, 43, 0
14, 10980, Note_on_c, 13, 43, 93
14, 11010, Note_on_c, 13, 43, 0
14, 11010, Note_on_c, 13, 43, 93
14, 11040, Note_on_c, 13, 43, 0
14, 11040, Note_on_c, 13, 32, 99
14, 11070, Note_on_c, 13, 32, 0
14, 11070, Note_on_c, 13, 44, 105
14, 11100, Note_on_c, 13, 44, 0
14, 11100, Note_on_c, 13, 44, 99
14, 11130, Note_on_c, 13, 44, 0
14, 11130, Note_on_c, 13, 44, 95
14, 11160, Note_on_c, 13, 44, 0
14, 11160, Note_on_c, 13, 32, 99
14, 11190, Note_on_c, 13, 32, 0
14, 11190, Note_on_c, 13, 44, 90
14, 11220, Note_on_c, 13, 44, 0
14, 11220, Note_on_c, 13, 44, 95
14, 11250, Note_on_c, 13, 44, 0
14, 11250, Note_on_c, 13, 44, 84
14, 11280, Note_on_c, 13, 44, 0
14, 11280, Note_on_c, 13, 31, 123
14, 11310, Note_on_c, 13, 31, 0
14, 11310, Note_on_c, 13, 43, 99
14, 11340, Note_on_c, 13, 43, 0
14, 11340, Note_on_c, 13, 43, 86
14, 11370, Note_on_c, 13, 43, 0
14, 11370, Note_on_c, 13, 43, 94
14, 11400, Note_on_c, 13, 43, 0
14, 11400, Note_on_c, 13, 31, 99
14, 11430, Note_on_c, 13, 31, 0
14, 11430, Note_on_c, 13, 43, 90
14, 11460, Note_on_c, 13, 43, 0
14, 11460, Note_on_c, 13, 43, 89
14, 11490, Note_on_c, 13, 43, 0
14, 11490, Note_on_c, 13, 43, 90
14, 11520, Note_on_c, 13, 43, 0
14, 11520, Note_on_c, 13, 32, 99
14, 11550, Note_on_c, 13, 32, 0
14, 11550, Note_on_c, 13, 44, 99
14, 11580, Note_on_c, 13, 44, 0
14, 11580, Note_on_c, 13, 44, 93
14, 11610, Note_on_c, 13, 44, 0
14, 11610, Note_on_c, 13, 44, 99
14, 11640, Note_on_c, 13, 44, 0
14, 11640, Note_on_c, 13, 32, 99
14, 11670, Note_on_c, 13, 32, 0
14, 11670, Note_on_c, 13, 44, 86
14, 11700, Note_on_c, 13, 44, 0
14, 11700, Note_on_c, 13, 44, 98
14, 11730, Note_on_c, 13, 44, 0
14, 11730, Note_on_c, 13, 44, 104
14, 11760, Note_on_c, 13, 44, 0
14, 11760, Note_on_c, 13, 43, 99
14, 11880, Note_on_c, 13, 43, 0
14, 11880, Program_c, 13, 45
14, 12000, Note_on_c, 13, 43, 69
14, 12120, Note_on_c, 13, 43, 0
14, 12240, Note_on_c, 13, 48, 81
14, 12360, Note_on_c, 13, 48, 0
14, 12480, Note_on_c, 13, 43, 80
14, 12600, Note_on_c, 13, 43, 0
14, 12600, Note_on_c, 13, 36, 85
14, 12720, Note_on_c, 13, 36, 0
14, 12720, Note_on_c, 13, 43, 82
14, 12840, Note_on_c, 13, 43, 0
14, 12840, Program_c, 13, 48
14, 12960, Note_on_c, 13, 35, 105
14, 12990, Note_on_c, 13, 35, 0
14, 12990, Note_on_c, 13, 31, 105
14, 13020, Note_on_c, 13, 31, 0
14, 13020, Note_on_c, 13, 35, 104
14, 13050, Note_on_c, 13, 35, 0
14, 13050, Note_on_c, 13, 38, 105
14, 13080, Note_on_c, 13, 38, 0
14, 13080, Note_on_c, 13, 43, 95
14, 13110, Note_on_c, 13, 43, 0
14, 13110, Note_on_c, 13, 41, 105
14, 13140, Note_on_c, 13, 41, 0
14, 13140, Note_on_c, 13, 39, 101
14, 13170, Note_on_c, 13, 39, 0
14, 13170, Note_on_c, 13, 38, 105
14, 13200, Note_on_c, 13, 38, 0
14, 13200, Note_on_c, 13, 39, 99
14, 13230, Note_on_c, 13, 39, 0
14, 13230, Note_on_c, 13, 43, 94
14, 13260, Note_on_c, 13, 43, 0
14, 13260, Note_on_c, 13, 42, 95
14, 13290, Note_on_c, 13, 42, 0
14, 13290, Note_on_c, 13, 43, 99
14, 13320, Note_on_c, 13, 43, 0
14, 13320, Note_on_c, 13, 41, 105
14, 13350, Note_on_c, 13, 41, 0
14, 13350, Note_on_c, 13, 39, 105
14, 13380, Note_on_c, 13, 39, 0
14, 13380, Note_on_c, 13, 38, 107
14, 13410, Note_on_c, 13, 38, 0
14, 13410, Note_on_c, 13, 36, 105
14, 13440, Note_on_c, 13, 36, 0
14, 13440, Note_on_c, 13, 29, 104
14, 13470, Note_on_c, 13, 29, 0
14, 13470, Note_on_c, 13, 41, 99
14, 13500, Note_on_c, 13, 41, 0
14, 13500, Note_on_c, 13, 41, 101
14, 13530, Note_on_c, 13, 41, 0
14, 13530, Note_on_c, 13, 41, 99
14, 13560, Note_on_c, 13, 41, 0
14, 13560, Note_on_c, 13, 31, 104
14, 13590, Note_on_c, 13, 31, 0
14, 13590, Note_on_c, 13, 43, 99
14, 13620, Note_on_c, 13, 43, 0
14, 13620, Note_on_c, 13, 43, 99
14, 13650, Note_on_c, 13, 43, 0
14, 13650, Note_on_c, 13, 43, 101
14, 13680, Note_on_c, 13, 43, 0
14, 13680, Note_on_c, 13, 39, 105
14, 13710, Note_on_c, 13, 39, 0
14, 13710, Note_on_c, 13, 39, 104
14, 13740, Note_on_c, 13, 39, 0
14, 13740, Note_on_c, 13, 41, 99
14, 13770, Note_on_c, 13, 41, 0
14, 13770, Note_on_c, 13, 43, 104
14, 13800, Note_on_c, 13, 43, 0
14, 13800, Note_on_c, 13, 44, 101
14, 13950, Note_on_c, 13, 44, 0
14, 13950, Note_on_c, 13, 41, 99
14, 13980, Note_on_c, 13, 41, 0
14, 13980, Note_on_c, 13, 40, 105
14, 14010, Note_on_c, 13, 40, 0
14, 14010, Note_on_c, 13, 41, 99
14, 14040, Note_on_c, 13, 41, 0
14, 14040, Note_on_c, 13, 43, 94
14, 14070, Note_on_c, 13, 43, 0
14, 14070, Note_on_c, 13, 42, 95
14, 14100, Note_on_c, 13, 42, 0
14, 14100, Note_on_c, 13, 43, 93
14, 14130, Note_on_c, 13, 43, 0
14, 14130, Note_on_c, 13, 31, 101
14, 14160, Note_on_c, 13, 31, 0
14, 14160, Note_on_c, 13, 36, 104
14, 14190, Note_on_c, 13, 36, 0
14, 14190, Note_on_c, 13, 39, 99
14, 14220, Note_on_c, 13, 39, 0
14, 14220, Note_on_c, 13, 41, 101
14, 14250, Note_on_c, 13, 41, 0
14, 14250, Note_on_c, 13, 43, 104
14, 14280, Note_on_c, 13, 43, 0
14, 14280, Note_on_c, 13, 44, 115
14, 14430, Note_on_c, 13, 44, 0
14, 14430, Note_on_c, 13, 41, 99
14, 14460, Note_on_c, 13, 41, 0
14, 14460, Note_on_c, 13, 40, 107
14, 14490, Note_on_c, 13, 40, 0
14, 14490, Note_on_c, 13, 41, 105
14, 14520, Note_on_c, 13, 41, 0
14, 14520, Note_on_c, 13, 43, 104
14, 14550, Note_on_c, 13, 43, 0
14, 14550, Note_on_c, 13, 42, 99
14, 14580, Note_on_c, 13, 42, 0
14, 14580, Note_on_c, 13, 43, 101
14, 14610, Note_on_c, 13, 43, 0
14, 14610, Note_on_c, 13, 31, 105
14, 14640, Note_on_c, 13, 31, 0
14, 14640, Note_on_c, 13, 36, 110
14, 14700, Note_on_c, 13, 36, 0
14, 14760, Note_on_c, 13, 31, 107
14, 14820, Note_on_c, 13, 31, 0
14, 14880, Note_on_c, 13, 36, 107
14, 14940, Note_on_c, 13, 36, 0
14, 18000, Note_on_c, 13, 39, 45
14, 18120, Note_on_c, 13, 39, 0
14, 18240, Note_on_c, 13, 34, 65
14, 18360, Note_on_c, 13, 34, 0
14, 18480, Note_on_c, 13, 36, 71
14, 18600, Note_on_c, 13, 36, 0
14, 18720, Note_on_c, 13, 34, 71
14, 18840, Note_on_c, 13, 34, 0
14, 18960, Note_on_c, 13, 39, 72
14, 19080, Note_on_c, 13, 39, 0
14, 19200, Note_on_c, 13, 36, 69
14, 19320, Note_on_c, 13, 36, 0
14, 19440, Note_on_c, 13, 41, 53
14, 19560, Note_on_c, 13, 41, 0
14, 19560, Note_on_c, 13, 41, 59
14, 19680, Note_on_c, 13, 41, 0
14, 19680, Note_on_c, 13, 34, 64
14, 19800, Note_on_c, 13, 34, 0
14, 19920, Note_on_c, 13, 39, 53
14, 20040, Note_on_c, 13, 39, 0
14, 20160, Note_on_c, 13, 34, 64
14, 20280, Note_on_c, 13, 34, 0
14, 20400, Note_on_c, 13, 36, 61
14, 20520, Note_on_c, 13, 36, 0
14, 20520, Note_on_c, 13, 48, 62
14, 20640, Note_on_c, 13, 48, 0
14, 20640, Note_on_c, 13, 46, 95
14, 20820, Note_on_c, 13, 46, 0
14, 20820, Note_on_c, 13, 44, 84
14, 20880, Note_on_c, 13, 44, 0
14, 20880, Note_on_c, 13, 43, 81
14, 21000, Note_on_c, 13, 43, 0
14, 21000, Note_on_c, 13, 36, 94
14, 21120, Note_on_c, 13, 36, 0
14, 21120, Note_on_c, 13, 41, 101
14, 21300, Note_on_c, 13, 41, 0
14, 21300, Note_on_c, 13, 44, 84
14, 21360, Note_on_c, 13, 44, 0
14, 21360, Note_on_c, 13, 46, 93
14, 21420, Note_on_c, 13, 46, 0
14, 21420, Note_on_c, 13, 46, 95
14, 21480, Note_on_c, 13, 46, 0
14, 21480, Note_on_c, 13, 34, 84
14, 21540, Note_on_c, 13, 34, 0
14, 21540, Note_on_c, 13, 34, 85
14, 21600, Note_on_c, 13, 34, 0
14, 21600, Note_on_c, 13, 39, 86
14, 21720, Note_on_c, 13, 39, 0
14, 22560, Note_on_c, 13, 39, 64
14, 22680, Note_on_c, 13, 39, 0
14, 22740, Note_on_c, 13, 51, 44
14, 22800, Note_on_c, 13, 51, 0
14, 22800, Note_on_c, 13, 39, 85
14, 22920, Note_on_c, 13, 39, 0
14, 22980, Note_on_c, 13, 51, 60
14, 23040, Note_on_c, 13, 51, 0
14, 23040, Note_on_c, 13, 39, 72
14, 23160, Note_on_c, 13, 39, 0
14, 23220, Note_on_c, 13, 39, 73
14, 23280, Note_on_c, 13, 39, 0
14, 23280, Note_on_c, 13, 39, 68
14, 23310, Note_on_c, 13, 39, 0
14, 23340, Note_on_c, 13, 44, 62
14, 23370, Note_on_c, 13, 44, 0
14, 23400, Note_on_c, 13, 46, 69
14, 23430, Note_on_c, 13, 46, 0
14, 23460, Note_on_c, 13, 34, 71
14, 23490, Note_on_c, 13, 34, 0
14, 23520, Note_on_c, 13, 39, 68
14, 23580, Note_on_c, 13, 39, 0
14, 23640, Note_on_c, 13, 36, 74
14, 23700, Note_on_c, 13, 36, 0
14, 23760, Note_on_c, 13, 44, 76
14, 23820, Note_on_c, 13, 44, 0
14, 23880, Note_on_c, 13, 41, 73
14, 23940, Note_on_c, 13, 41, 0
14, 24000, Note_on_c, 13, 38, 74
14, 24060, Note_on_c, 13, 38, 0
14, 26160, Note_on_c, 13, 46, 67
14, 26220, Note_on_c, 13, 46, 0
14, 26280, Note_on_c, 13, 34, 80
14, 26340, Note_on_c, 13, 34, 0
14, 26400, Note_on_c, 13, 39, 70
14, 26460, Note_on_c, 13, 39, 0
14, 26940, Note_on_c, 13, 39, 77
14, 26970, Note_on_c, 13, 39, 0
14, 27000, Note_on_c, 13, 41, 72
14, 27030, Note_on_c, 13, 41, 0
14, 27060, Note_on_c, 13, 43, 76
14, 27090, Note_on_c, 13, 43, 0
14, 27120, Note_on_c, 13, 44, 80
14, 27180, Note_on_c, 13, 44, 0
14, 27180, Note_on_c, 13, 41, 71
14, 27240, Note_on_c, 13, 41, 0
14, 27240, Note_on_c, 13, 46, 69
14, 27300, Note_on_c, 13, 46, 0
14, 27300, Note_on_c, 13, 34, 77
14, 27360, Note_on_c, 13, 34, 0
14, 27360, Note_on_c, 13, 39, 71
14, 27420, Note_on_c, 13, 39, 0
14, 27900, Note_on_c, 13, 36, 58
14, 27930, Note_on_c, 13, 36, 0
14, 27960, Note_on_c, 13, 39, 81
14, 27990, Note_on_c, 13, 39, 0
14, 28020, Note_on_c, 13, 43, 69
14, 28050, Note_on_c, 13, 43, 0
14, 28080, Note_on_c, 13, 44, 69
14, 28140, Note_on_c, 13, 44, 0
14, 28140, Note_on_c, 13, 32, 84
14, 28200, Note_on_c, 13, 32, 0
14, 28200, Note_on_c, 13, 32, 64
14, 28260, Note_on_c, 13, 32, 0
14, 28260, Note_on_c, 13, 32, 53
14, 28320, Note_on_c, 13, 32, 0
14, 28320, Note_on_c, 13, 31, 73
14, 28380, Note_on_c, 13, 31, 0
14, 28620, Note_on_c, 13, 36, 99
14, 28650, Note_on_c, 13, 36, 0
14, 28650, Note_on_c, 13, 38, 105
14, 28680, Note_on_c, 13, 38, 0
14, 28680, Note_on_c, 13, 39, 90
14, 28710, Note_on_c, 13, 39, 0
14, 28740, Note_on_c, 13, 36, 105
14, 28770, Note_on_c, 13, 36, 0
14, 28800, Note_on_c, 13, 31, 94
14, 28860, Note_on_c, 13, 31, 0
14, 29100, Note_on_c, 13, 36, 104
14, 29130, Note_on_c, 13, 36, 0
14, 29130, Note_on_c, 13, 38, 105
14, 29160, Note_on_c, 13, 38, 0
14, 29160, Note_on_c, 13, 39, 94
14, 29190, Note_on_c, 13, 39, 0
14, 29220, Note_on_c, 13, 36, 105
14, 29250, Note_on_c, 13, 36, 0
14, 29280, Note_on_c, 13, 31, 98
14, 29340, Note_on_c, 13, 31, 0
14, 29520, Note_on_c, 13, 43, 55
14, 29640, Note_on_c, 13, 43, 0
14, 29760, Note_on_c, 13, 43, 61
14, 29880, Note_on_c, 13, 43, 0
14, 30000, Note_on_c, 13, 43, 52
14, 30120, Note_on_c, 13, 43, 0
14, 30240, Note_on_c, 13, 43, 65
14, 30300, Note_on_c, 13, 43, 0
14, 32040, Program_c, 13, 45
14, 32160, Note_on_c, 13, 31, 57
14, 32280, Note_on_c, 13, 31, 0
14, 32400, Note_on_c, 13, 36, 69
14, 32520, Note_on_c, 13, 36, 0
14, 32640, Note_on_c, 13, 43, 90
14, 32760, Note_on_c, 13, 43, 0
14, 32760, Note_on_c, 13, 36, 74
14, 32880, Note_on_c, 13, 36, 0
14, 32880, Note_on_c, 13, 43, 68
14, 33000, Note_on_c, 13, 43, 0
14, 33120, Note_on_c, 13, 31, 71
14, 33240, Note_on_c, 13, 31, 0
14, 33360, Note_on_c, 13, 36, 65
14, 33480, Note_on_c, 13, 36, 0
14, 33540, Note_on_c, 13, 39, 71
14, 33600, Note_on_c, 13, 39, 0
14, 33600, Note_on_c, 13, 38, 89
14, 33720, Note_on_c, 13, 38, 0
14, 33720, Note_on_c, 13, 38, 85
14, 33840, Note_on_c, 13, 38, 0
14, 33840, Note_on_c, 13, 43, 69
14, 33900, Note_on_c, 13, 43, 0
14, 33960, Program_c, 13, 45
14, 34080, Note_on_c, 13, 43, 86
14, 34140, Note_on_c, 13, 43, 0
14, 34320, Note_on_c, 13, 48, 93
14, 34380, Note_on_c, 13, 48, 0
14, 34560, Note_on_c, 13, 43, 84
14, 34680, Note_on_c, 13, 43, 0
14, 34680, Note_on_c, 13, 48, 94
14, 34800, Note_on_c, 13, 48, 0
14, 34800, Note_on_c, 13, 43, 94
14, 34920, Note_on_c, 13, 43, 0
14, 35040, Note_on_c, 13, 43, 94
14, 35160, Note_on_c, 13, 43, 0
14, 35280, Note_on_c, 13, 48, 86
14, 35400, Note_on_c, 13, 48, 0
14, 35460, Note_on_c, 13, 51, 94
14, 35520, Note_on_c, 13, 51, 0
14, 35520, Note_on_c, 13, 50, 105
14, 35640, Note_on_c, 13, 50, 0
14, 35640, Note_on_c, 13, 38, 98
14, 35760, Note_on_c, 13, 38, 0
14, 35760, Note_on_c, 13, 43, 93
14, 35880, Note_on_c, 13, 43, 0
14, 36000, Note_on_c, 13, 36, 69
14, 36120, Note_on_c, 13, 36, 0
14, 36240, Note_on_c, 13, 41, 80
14, 36360, Note_on_c, 13, 41, 0
14, 36480, Note_on_c, 13, 34, 80
14, 36600, Note_on_c, 13, 34, 0
14, 36720, Note_on_c, 13, 39, 68
14, 36840, Note_on_c, 13, 39, 0
14, 36960, Note_on_c, 13, 44, 72
14, 37020, Note_on_c, 13, 44, 0
14, 37080, Note_on_c, 13, 44, 81
14, 37140, Note_on_c, 13, 44, 0
14, 37200, Note_on_c, 13, 43, 89
14, 37260, Note_on_c, 13, 43, 0
14, 37440, Control_c, 13, 7, 99
14, 37440, Note_on_c, 13, 44, 78
14, 37465, Control_c, 13, 7, 98
14, 37485, Control_c, 13, 7, 97
14, 37500, Note_on_c, 13, 44, 0
14, 37505, Control_c, 13, 7, 96
14, 37530, Control_c, 13, 7, 95
14, 37550, Control_c, 13, 7, 94
14, 37560, Note_on_c, 13, 44, 82
14, 37570, Control_c, 13, 7, 93
14, 37595, Control_c, 13, 7, 92
14, 37615, Control_c, 13, 7, 91
14, 37620, Note_on_c, 13, 44, 0
14, 37635, Control_c, 13, 7, 90
14, 37660, Control_c, 13, 7, 89
14, 37680, Control_c, 13, 7, 88
14, 37680, Note_on_c, 13, 43, 89
14, 37700, Control_c, 13, 7, 87
14, 37720, Control_c, 13, 7, 86
14, 37745, Control_c, 13, 7, 85
14, 37765, Control_c, 13, 7, 84
14, 37785, Control_c, 13, 7, 83
14, 37800, Note_on_c, 13, 43, 0
14, 37810, Control_c, 13, 7, 82
14, 37830, Control_c, 13, 7, 81
14, 37850, Control_c, 13, 7, 80
14, 37875, Control_c, 13, 7, 79
14, 37895, Control_c, 13, 7, 78
14, 37915, Control_c, 13, 7, 77
14, 37920, Note_on_c, 13, 44, 81
14, 37935, Control_c, 13, 7, 76
14, 37960, Control_c, 13, 7, 75
14, 37980, Control_c, 13, 7, 74
14, 38000, Control_c, 13, 7, 73
14, 38025, Control_c, 13, 7, 72
14, 38040, Note_on_c, 13, 44, 0
14, 38040, Note_on_c, 13, 44, 81
14, 38045, Control_c, 13, 7, 71
14, 38065, Control_c, 13, 7, 70
14, 38090, Control_c, 13, 7, 69
14, 38110, Control_c, 13, 7, 68
14, 38130, Control_c, 13, 7, 67
14, 38150, Control_c, 13, 7, 66
14, 38160, Note_on_c, 13, 44, 0
14, 38160, Note_on_c, 13, 43, 76
14, 38220, Note_on_c, 13, 43, 0
14, 41120, Control_c, 13, 7, 100
14, 41280, Note_on_c, 13, 43, 80
14, 41340, Note_on_c, 13, 43, 0
14, 41520, Note_on_c, 13, 48, 78
14, 41580, Note_on_c, 13, 48, 0
14, 41760, Note_on_c, 13, 47, 84
14, 41820, Note_on_c, 13, 47, 0
14, 41880, Note_on_c, 13, 46, 84
14, 41940, Note_on_c, 13, 46, 0
14, 42000, Note_on_c, 13, 44, 81
14, 42120, Note_on_c, 13, 44, 0
14, 42180, Note_on_c, 13, 41, 80
14, 42240, Note_on_c, 13, 41, 0
14, 42240, Note_on_c, 13, 43, 86
14, 42300, Note_on_c, 13, 43, 0
14, 42360, Note_on_c, 13, 31, 89
14, 42420, Note_on_c, 13, 31, 0
14, 42480, Note_on_c, 13, 36, 85
14, 42600, Note_on_c, 13, 36, 0
14, 42600, Program_c, 13, 48
14, 42720, Note_on_c, 13, 36, 99
14, 42750, Note_on_c, 13, 36, 0
14, 42750, Note_on_c, 13, 36, 99
14, 42780, Note_on_c, 13, 36, 0
14, 42780, Note_on_c, 13, 40, 105
14, 42810, Note_on_c, 13, 40, 0
14, 42810, Note_on_c, 13, 43, 95
14, 42840, Note_on_c, 13, 43, 0
14, 42840, Note_on_c, 13, 48, 86
14, 42870, Note_on_c, 13, 48, 0
14, 42870, Note_on_c, 13, 46, 95
14, 42900, Note_on_c, 13, 46, 0
14, 42900, Note_on_c, 13, 44, 99
14, 42930, Note_on_c, 13, 44, 0
14, 42930, Note_on_c, 13, 43, 95
14, 42960, Note_on_c, 13, 43, 0
14, 42960, Note_on_c, 13, 44, 94
14, 42990, Note_on_c, 13, 44, 0
14, 42990, Note_on_c, 13, 46, 95
14, 43020, Note_on_c, 13, 46, 0
14, 43020, Note_on_c, 13, 44, 95
14, 43050, Note_on_c, 13, 44, 0
14, 43050, Note_on_c, 13, 43, 95
14, 43080, Note_on_c, 13, 43, 0
14, 43080, Note_on_c, 13, 41, 86
14, 43110, Note_on_c, 13, 41, 0
14, 43110, Note_on_c, 13, 39, 98
14, 43140, Note_on_c, 13, 39, 0
14, 43140, Note_on_c, 13, 38, 105
14, 43170, Note_on_c, 13, 38, 0
14, 43170, Note_on_c, 13, 36, 93
14, 43200, Note_on_c, 13, 36, 0
14, 43200, Note_on_c, 13, 38, 104
14, 43230, Note_on_c, 13, 38, 0
14, 43230, Note_on_c, 13, 34, 95
14, 43260, Note_on_c, 13, 34, 0
14, 43260, Note_on_c, 13, 38, 105
14, 43290, Note_on_c, 13, 38, 0
14, 43290, Note_on_c, 13, 41, 93
14, 43320, Note_on_c, 13, 41, 0
14, 43320, Note_on_c, 13, 46, 86
14, 43350, Note_on_c, 13, 46, 0
14, 43350, Note_on_c, 13, 44, 104
14, 43380, Note_on_c, 13, 44, 0
14, 43380, Note_on_c, 13, 43, 99
14, 43410, Note_on_c, 13, 43, 0
14, 43410, Note_on_c, 13, 41, 94
14, 43440, Note_on_c, 13, 41, 0
14, 43440, Note_on_c, 13, 43, 99
14, 43470, Note_on_c, 13, 43, 0
14, 43470, Note_on_c, 13, 44, 95
14, 43500, Note_on_c, 13, 44, 0
14, 43500, Note_on_c, 13, 43, 95
14, 43530, Note_on_c, 13, 43, 0
14, 43530, Note_on_c, 13, 41, 95
14, 43560, Note_on_c, 13, 41, 0
14, 43560, Note_on_c, 13, 39, 95
14, 43590, Note_on_c, 13, 39, 0
14, 43590, Note_on_c, 13, 38, 99
14, 43620, Note_on_c, 13, 38, 0
14, 43620, Note_on_c, 13, 36, 105
14, 43650, Note_on_c, 13, 36, 0
14, 43650, Note_on_c, 13, 34, 99
14, 43680, Note_on_c, 13, 34, 0
14, 43680, Note_on_c, 13, 32, 105
14, 43710, Note_on_c, 13, 32, 0
14, 43710, Note_on_c, 13, 44, 105
14, 43740, Note_on_c, 13, 44, 0
14, 43740, Note_on_c, 13, 44, 105
14, 43770, Note_on_c, 13, 44, 0
14, 43770, Note_on_c, 13, 44, 107
14, 43800, Note_on_c, 13, 44, 0
14, 43800, Note_on_c, 13, 32, 99
14, 43830, Note_on_c, 13, 32, 0
14, 43830, Note_on_c, 13, 44, 99
14, 43860, Note_on_c, 13, 44, 0
14, 43860, Note_on_c, 13, 44, 104
14, 43890, Note_on_c, 13, 44, 0
14, 43890, Note_on_c, 13, 44, 105
14, 43920, Note_on_c, 13, 44, 0
14, 43920, Note_on_c, 13, 31, 123
14, 43950, Note_on_c, 13, 31, 0
14, 43950, Note_on_c, 13, 43, 112
14, 43980, Note_on_c, 13, 43, 0
14, 43980, Note_on_c, 13, 43, 95
14, 44010, Note_on_c, 13, 43, 0
14, 44010, Note_on_c, 13, 43, 81
14, 44040, Note_on_c, 13, 43, 0
14, 44040, Note_on_c, 13, 31, 104
14, 44070, Note_on_c, 13, 31, 0
14, 44070, Note_on_c, 13, 43, 89
14, 44100, Note_on_c, 13, 43, 0
14, 44100, Note_on_c, 13, 43, 93
14, 44130, Note_on_c, 13, 43, 0
14, 44130, Note_on_c, 13, 43, 93
14, 44160, Note_on_c, 13, 43, 0
14, 44160, Note_on_c, 13, 32, 99
14, 44190, Note_on_c, 13, 32, 0
14, 44190, Note_on_c, 13, 44, 105
14, 44220, Note_on_c, 13, 44, 0
14, 44220, Note_on_c, 13, 44, 99
14, 44250, Note_on_c, 13, 44, 0
14, 44250, Note_on_c, 13, 44, 95
14, 44280, Note_on_c, 13, 44, 0
14, 44280, Note_on_c, 13, 32, 99
14, 44310, Note_on_c, 13, 32, 0
14, 44310, Note_on_c, 13, 44, 90
14, 44340, Note_on_c, 13, 44, 0
14, 44340, Note_on_c, 13, 44, 95
14, 44370, Note_on_c, 13, 44, 0
14, 44370, Note_on_c, 13, 44, 84
14, 44400, Note_on_c, 13, 44, 0
14, 44400, Note_on_c, 13, 31, 123
14, 44430, Note_on_c, 13, 31, 0
14, 44430, Note_on_c, 13, 43, 99
14, 44460, Note_on_c, 13, 43, 0
14, 44460, Note_on_c, 13, 43, 86
14, 44490, Note_on_c, 13, 43, 0
14, 44490, Note_on_c, 13, 43, 94
14, 44520, Note_on_c, 13, 43, 0
14, 44520, Note_on_c, 13, 31, 99
14, 44550, Note_on_c, 13, 31, 0
14, 44550, Note_on_c, 13, 43, 90
14, 44580, Note_on_c, 13, 43, 0
14, 44580, Note_on_c, 13, 43, 89
14, 44610, Note_on_c, 13, 43, 0
14, 44610, Note_on_c, 13, 43, 90
14, 44640, Note_on_c, 13, 43, 0
14, 44640, Note_on_c, 13, 32, 99
14, 44670, Note_on_c, 13, 32, 0
14, 44670, Note_on_c, 13, 44, 99
14, 44700, Note_on_c, 13, 44, 0
14, 44700, Note_on_c, 13, 44, 93
14, 44730, Note_on_c, 13, 44, 0
14, 44730, Note_on_c, 13, 44, 99
14, 44760, Note_on_c, 13, 44, 0
14, 44760, Note_on_c, 13, 32, 99
14, 44790, Note_on_c, 13, 32, 0
14, 44790, Note_on_c, 13, 44, 86
14, 44820, Note_on_c, 13, 44, 0
14, 44820, Note_on_c, 13, 44, 98
14, 44850, Note_on_c, 13, 44, 0
14, 44850, Note_on_c, 13, 44, 104
14, 44880, Note_on_c, 13, 44, 0
14, 44880, Note_on_c, 13, 43, 99
14, 45000, Note_on_c, 13, 43, 0
14, 45000, Program_c, 13, 45
14, 45120, Note_on_c, 13, 43, 69
14, 45240, Note_on_c, 13, 43, 0
14, 45360, Note_on_c, 13, 48, 81
14, 45480, Note_on_c, 13, 48, 0
14, 45600, Note_on_c, 13, 43, 80
14, 45720, Note_on_c, 13, 43, 0
14, 45720, Note_on_c, 13, 36, 85
14, 45840, Note_on_c, 13, 36, 0
14, 45840, Note_on_c, 13, 43, 82
14, 45960, Note_on_c, 13, 43, 0
14, 45960, Program_c, 13, 48
14, 46080, Note_on_c, 13, 35, 105
14, 46110, Note_on_c, 13, 35, 0
14, 46110, Note_on_c, 13, 31, 105
14, 46140, Note_on_c, 13, 31, 0
14, 46140, Note_on_c, 13, 35, 104
14, 46170, Note_on_c, 13, 35, 0
14, 46170, Note_on_c, 13, 38, 105
14, 46200, Note_on_c, 13, 38, 0
14, 46200, Note_on_c, 13, 43, 95
14, 46230, Note_on_c, 13, 43, 0
14, 46230, Note_on_c, 13, 41, 105
14, 46260, Note_on_c, 13, 41, 0
14, 46260, Note_on_c, 13, 39, 101
14, 46290, Note_on_c, 13, 39, 0
14, 46290, Note_on_c, 13, 38, 105
14, 46320, Note_on_c, 13, 38, 0
14, 46320, Note_on_c, 13, 39, 99
14, 46350, Note_on_c, 13, 39, 0
14, 46350, Note_on_c, 13, 43, 94
14, 46380, Note_on_c, 13, 43, 0
14, 46380, Note_on_c, 13, 42, 95
14, 46410, Note_on_c, 13, 42, 0
14, 46410, Note_on_c, 13, 43, 99
14, 46440, Note_on_c, 13, 43, 0
14, 46440, Note_on_c, 13, 41, 105
14, 46470, Note_on_c, 13, 41, 0
14, 46470, Note_on_c, 13, 39, 105
14, 46500, Note_on_c, 13, 39, 0
14, 46500, Note_on_c, 13, 38, 107
14, 46530, Note_on_c, 13, 38, 0
14, 46530, Note_on_c, 13, 36, 105
14, 46560, Note_on_c, 13, 36, 0
14, 46560, Note_on_c, 13, 29, 104
14, 46590, Note_on_c, 13, 29, 0
14, 46590, Note_on_c, 13, 41, 99
14, 46620, Note_on_c, 13, 41, 0
14, 46620, Note_on_c, 13, 41, 101
14, 46650, Note_on_c, 13, 41, 0
14, 46650, Note_on_c, 13, 41, 99
14, 46680, Note_on_c, 13, 41, 0
14, 46680, Note_on_c, 13, 31, 104
14, 46710, Note_on_c, 13, 31, 0
14, 46710, Note_on_c, 13, 43, 99
14, 46740, Note_on_c, 13, 43, 0
14, 46740, Note_on_c, 13, 43, 99
14, 46770, Note_on_c, 13, 43, 0
14, 46770, Note_on_c, 13, 43, 101
14, 46800, Note_on_c, 13, 43, 0
14, 46800, Note_on_c, 13, 39, 105
14, 46830, Note_on_c, 13, 39, 0
14, 46830, Note_on_c, 13, 39, 104
14, 46860, Note_on_c, 13, 39, 0
14, 46860, Note_on_c, 13, 41, 99
14, 46890, Note_on_c, 13, 41, 0
14, 46890, Note_on_c, 13, 43, 104
14, 46920, Note_on_c, 13, 43, 0
14, 46920, Note_on_c, 13, 44, 101
14, 47070, Note_on_c, 13, 44, 0
14, 47070, Note_on_c, 13, 41, 99
14, 47100, Note_on_c, 13, 41, 0
14, 47100, Note_on_c, 13, 40, 105
14, 47130, Note_on_c, 13, 40, 0
14, 47130, Note_on_c, 13, 41, 99
14, 47160, Note_on_c, 13, 41, 0
14, 47160, Note_on_c, 13, 43, 94
14, 47190, Note_on_c, 13, 43, 0
14, 47190, Note_on_c, 13, 42, 95
14, 47220, Note_on_c, 13, 42, 0
14, 47220, Note_on_c, 13, 43, 93
14, 47250, Note_on_c, 13, 43, 0
14, 47250, Note_on_c, 13, 31, 101
14, 47280, Note_on_c, 13, 31, 0
14, 47280, Note_on_c, 13, 36, 104
14, 47310, Note_on_c, 13, 36, 0
14, 47310, Note_on_c, 13, 39, 99
14, 47340, Note_on_c, 13, 39, 0
14, 47340, Note_on_c, 13, 41, 101
14, 47370, Note_on_c, 13, 41, 0
14, 47370, Note_on_c, 13, 43, 104
14, 47400, Note_on_c, 13, 43, 0
14, 47400, Note_on_c, 13, 44, 115
14, 47550, Note_on_c, 13, 44, 0
14, 47550, Note_on_c, 13, 41, 99
14, 47580, Note_on_c, 13, 41, 0
14, 47580, Note_on_c, 13, 40, 107
14, 47610, Note_on_c, 13, 40, 0
14, 47610, Note_on_c, 13, 41, 105
14, 47640, Note_on_c, 13, 41, 0
14, 47640, Note_on_c, 13, 43, 104
14, 47670, Note_on_c, 13, 43, 0
14, 47670, Note_on_c, 13, 42, 99
14, 47700, Note_on_c, 13, 42, 0
14, 47700, Note_on_c, 13, 43, 101
14, 47730, Note_on_c, 13, 43, 0
14, 47730, Note_on_c, 13, 31, 105
14, 47760, Note_on_c, 13, 31, 0
14, 47760, Note_on_c, 13, 36, 110
14, 47820, Note_on_c, 13, 36, 0
14, 47880, Note_on_c, 13, 31, 107
14, 47940, Note_on_c, 13, 31, 0
14, 48000, Note_on_c, 13, 36, 107
14, 48060, Note_on_c, 13, 36, 0
14, 48240, Note_on_c, 13, 44, 43
14, 48360, Note_on_c, 13, 44, 0
14, 48480, Note_on_c, 13, 46, 63
14, 48600, Note_on_c, 13, 46, 0
14, 48720, Note_on_c, 13, 39, 58
14, 48840, Note_on_c, 13, 39, 0
14, 48960, Note_on_c, 13, 44, 44
14, 49080, Note_on_c, 13, 44, 0
14, 49200, Note_on_c, 13, 41, 66
14, 49320, Note_on_c, 13, 41, 0
14, 49440, Note_on_c, 13, 34, 47
14, 49560, Note_on_c, 13, 34, 0
14, 49680, Note_on_c, 13, 39, 55
14, 49800, Note_on_c, 13, 39, 0
14, 49800, Note_on_c, 13, 39, 48
14, 49920, Note_on_c, 13, 39, 0
14, 49920, Note_on_c, 13, 44, 63
14, 50040, Note_on_c, 13, 44, 0
14, 50160, Note_on_c, 13, 44, 45
14, 50400, Note_on_c, 13, 44, 0
14, 50400, Note_on_c, 13, 46, 61
14, 50640, Note_on_c, 13, 46, 0
14, 50640, Note_on_c, 13, 39, 60
14, 50820, Note_on_c, 13, 39, 0
14, 50820, Note_on_c, 13, 37, 53
14, 50880, Note_on_c, 13, 37, 0
14, 50880, Note_on_c, 13, 36, 58
14, 51120, Note_on_c, 13, 36, 0
14, 51120, Note_on_c, 13, 41, 45
14, 51360, Note_on_c, 13, 41, 0
14, 51360, Note_on_c, 13, 34, 68
14, 51540, Note_on_c, 13, 34, 0
14, 51540, Note_on_c, 13, 37, 50
14, 51600, Note_on_c, 13, 37, 0
14, 51600, Note_on_c, 13, 39, 45
14, 51720, Note_on_c, 13, 39, 0
14, 51720, Note_on_c, 13, 39, 65
14, 51840, Note_on_c, 13, 39, 0
14, 51840, Note_on_c, 13, 44, 44
14, 51900, Note_on_c, 13, 44, 0
14, 52140, Note_on_c, 13, 43, 41
14, 52170, Note_on_c, 13, 43, 0
14, 52200, Note_on_c, 13, 39, 56
14, 52230, Note_on_c, 13, 39, 0
14, 52260, Note_on_c, 13, 43, 46
14, 52290, Note_on_c, 13, 43, 0
14, 52320, Note_on_c, 13, 46, 54
14, 52440, Note_on_c, 13, 46, 0
14, 52620, Note_on_c, 13, 43, 44
14, 52650, Note_on_c, 13, 43, 0
14, 52680, Note_on_c, 13, 39, 58
14, 52710, Note_on_c, 13, 39, 0
14, 52740, Note_on_c, 13, 43, 46
14, 52770, Note_on_c, 13, 43, 0
14, 52800, Note_on_c, 13, 44, 43
14, 52920, Note_on_c, 13, 44, 0
14, 53040, Note_on_c, 13, 51, 52
14, 53280, Note_on_c, 13, 51, 0
14, 53280, Note_on_c, 13, 46, 70
14, 53520, Note_on_c, 13, 46, 0
14, 53520, Note_on_c, 13, 39, 53
14, 53580, Note_on_c, 13, 39, 0
14, 53700, Note_on_c, 13, 39, 110
14, 53760, Note_on_c, 13, 39, 0
14, 53760, Note_on_c, 13, 41, 81
14, 53880, Note_on_c, 13, 41, 0
14, 53880, Note_on_c, 13, 43, 44
14, 54000, Note_on_c, 13, 43, 0
14, 54000, Note_on_c, 13, 44, 53
14, 54240, Note_on_c, 13, 44, 0
14, 54240, Note_on_c, 13, 46, 45
14, 54480, Note_on_c, 13, 46, 0
14, 54480, Note_on_c, 13, 39, 62
14, 54660, Note_on_c, 13, 39, 0
14, 54660, Note_on_c, 13, 37, 62
14, 54720, Note_on_c, 13, 37, 0
14, 54720, Note_on_c, 13, 36, 64
14, 54960, Note_on_c, 13, 36, 0
14, 54960, Note_on_c, 13, 36, 53
14, 55200, Note_on_c, 13, 36, 0
14, 55200, Note_on_c, 13, 37, 60
14, 55440, Note_on_c, 13, 37, 0
14, 55440, Note_on_c, 13, 39, 62
14, 55560, Note_on_c, 13, 39, 0
14, 55560, Note_on_c, 13, 39, 59
14, 55680, Note_on_c, 13, 39, 0
14, 55680, Note_on_c, 13, 44, 72
14, 55800, Note_on_c, 13, 44, 0
14, 55980, Note_on_c, 13, 43, 76
14, 56010, Note_on_c, 13, 43, 0
14, 56040, Note_on_c, 13, 39, 74
14, 56070, Note_on_c, 13, 39, 0
14, 56100, Note_on_c, 13, 43, 74
14, 56130, Note_on_c, 13, 43, 0
14, 56160, Note_on_c, 13, 46, 73
14, 56280, Note_on_c, 13, 46, 0
14, 56460, Note_on_c, 13, 43, 71
14, 56490, Note_on_c, 13, 43, 0
14, 56520, Note_on_c, 13, 39, 73
14, 56550, Note_on_c, 13, 39, 0
14, 56580, Note_on_c, 13, 43, 72
14, 56610, Note_on_c, 13, 43, 0
14, 56640, Note_on_c, 13, 44, 68
14, 56760, Note_on_c, 13, 44, 0
14, 56880, Note_on_c, 13, 39, 71
14, 57000, Note_on_c, 13, 39, 0
14, 57000, Note_on_c, 13, 39, 67
14, 57045, Note_on_c, 13, 39, 0
14, 57060, Note_on_c, 13, 39, 72
14, 57105, Note_on_c, 13, 39, 0
14, 57120, Note_on_c, 13, 39, 76
14, 57180, Note_on_c, 13, 39, 0
14, 57180, Note_on_c, 13, 38, 74
14, 57240, Note_on_c, 13, 38, 0
14, 57240, Note_on_c, 13, 34, 100
14, 57300, Note_on_c, 13, 34, 0
14, 57300, Note_on_c, 13, 36, 80
14, 57360, Note_on_c, 13, 36, 0
14, 57360, Control_c, 13, 7, 111
14, 57360, Control_c, 13, 7, 110
14, 57360, Note_on_c, 13, 37, 95
14, 57370, Control_c, 13, 7, 110
14, 57370, Control_c, 13, 7, 109
14, 57380, Control_c, 13, 7, 109
14, 57380, Control_c, 13, 7, 108
14, 57390, Control_c, 13, 7, 108
14, 57390, Control_c, 13, 7, 107
14, 57400, Control_c, 13, 7, 107
14, 57400, Control_c, 13, 7, 106
14, 57410, Control_c, 13, 7, 106
14, 57410, Control_c, 13, 7, 105
14, 57420, Control_c, 13, 7, 105
14, 57420, Control_c, 13, 7, 104
14, 57430, Control_c, 13, 7, 103
14, 57430, Control_c, 13, 7, 103
14, 57440, Control_c, 13, 7, 102
14, 57440, Control_c, 13, 7, 102
14, 57450, Control_c, 13, 7, 101
14, 57450, Control_c, 13, 7, 101
14, 57460, Control_c, 13, 7, 100
14, 57460, Control_c, 13, 7, 100
14, 57470, Control_c, 13, 7, 99
14, 57470, Control_c, 13, 7, 99
14, 57480, Control_c, 13, 7, 98
14, 57480, Control_c, 13, 7, 98
14, 57490, Control_c, 13, 7, 97
14, 57490, Control_c, 13, 7, 97
14, 57500, Control_c, 13, 7, 95
14, 57500, Control_c, 13, 7, 96
14, 57510, Control_c, 13, 7, 94
14, 57510, Control_c, 13, 7, 95
14, 57520, Control_c, 13, 7, 93
14, 57520, Control_c, 13, 7, 94
14, 57530, Control_c, 13, 7, 92
14, 57530, Control_c, 13, 7, 93
14, 57540, Control_c, 13, 7, 91
14, 57540, Control_c, 13, 7, 92
14, 57550, Control_c, 13, 7, 90
14, 57550, Control_c, 13, 7, 91
14, 57560, Control_c, 13, 7, 88
14, 57560, Control_c, 13, 7, 90
14, 57570, Control_c, 13, 7, 87
14, 57570, Control_c, 13, 7, 89
14, 57580, Control_c, 13, 7, 86
14, 57580, Control_c, 13, 7, 88
14, 57590, Control_c, 13, 7, 85
14, 57590, Control_c, 13, 7, 87
14, 57600, Control_c, 13, 7, 84
14, 57600, Control_c, 13, 7, 86
14, 57610, Control_c, 13, 7, 83
14, 57610, Control_c, 13, 7, 85
14, 57620, Control_c, 13, 7, 82
14, 57620, Control_c, 13, 7, 84
14, 57630, Control_c, 13, 7, 80
14, 57630, Control_c, 13, 7, 83
14, 57640, Control_c, 13, 7, 79
14, 57640, Control_c, 13, 7, 82
14, 57650, Control_c, 13, 7, 78
14, 57650, Control_c, 13, 7, 81
14, 57660, Control_c, 13, 7, 77
14, 57660, Control_c, 13, 7, 80
14, 57670, Control_c, 13, 7, 76
14, 57670, Control_c, 13, 7, 79
14, 57680, Control_c, 13, 7, 75
14, 57680, Control_c, 13, 7, 78
14, 57690, Control_c, 13, 7, 74
14, 57690, Control_c, 13, 7, 77
14, 57700, Control_c, 13, 7, 72
14, 57700, Control_c, 13, 7, 76
14, 57710, Control_c, 13, 7, 71
14, 57710, Control_c, 13, 7, 75
14, 57720, Note_on_c, 13, 37, 0
14, 57720, Control_c, 13, 7, 70
14, 57720, Control_c, 13, 7, 74
14, 57720, Note_on_c, 13, 36, 93
14, 57730, Control_c, 13, 7, 69
14, 57730, Control_c, 13, 7, 73
14, 57740, Control_c, 13, 7, 68
14, 57740, Control_c, 13, 7, 72
14, 57750, Control_c, 13, 7, 67
14, 57750, Control_c, 13, 7, 71
14, 57760, Control_c, 13, 7, 65
14, 57760, Control_c, 13, 7, 70
14, 57770, Control_c, 13, 7, 69
14, 57780, Note_on_c, 13, 36, 0
14, 57780, Control_c, 13, 7, 68
14, 57780, Note_on_c, 13, 34, 86
14, 57790, Control_c, 13, 7, 67
14, 57800, Control_c, 13, 7, 66
14, 57840, Note_on_c, 13, 34, 0
14, 57840, Control_c, 13, 7, 100
14, 57840, Control_c, 13, 7, 100
14, 57840, Note_on_c, 13, 32, 58
14, 57960, Note_on_c, 13, 32, 0
14, 57960, Note_on_c, 13, 44, 59
14, 58080, Note_on_c, 13, 44, 0
14, 58080, Note_on_c, 13, 46, 53
14, 58320, Note_on_c, 13, 46, 0
14, 58320, Note_on_c, 13, 39, 56
14, 58500, Note_on_c, 13, 39, 0
14, 58500, Note_on_c, 13, 37, 50
14, 58560, Note_on_c, 13, 37, 0
14, 58560, Note_on_c, 13, 36, 53
14, 58800, Note_on_c, 13, 36, 0
14, 58800, Note_on_c, 13, 48, 61
14, 59040, Note_on_c, 13, 48, 0
14, 59040, Note_on_c, 13, 49, 52
14, 59280, Note_on_c, 13, 49, 0
14, 59280, Note_on_c, 13, 39, 61
14, 59400, Note_on_c, 13, 39, 0
14, 59400, Note_on_c, 13, 39, 69
14, 59520, Note_on_c, 13, 39, 0
14, 59520, Note_on_c, 13, 44, 59
14, 59640, Note_on_c, 13, 44, 0
14, 62580, Note_on_c, 13, 41, 53
14, 62640, Note_on_c, 13, 41, 0
14, 62640, Note_on_c, 13, 44, 58
14, 62700, Note_on_c, 13, 44, 0
14, 62700, Note_on_c, 13, 35, 67
14, 62760, Note_on_c, 13, 35, 0
14, 62760, Note_on_c, 13, 35, 84
14, 62790, Note_on_c, 13, 35, 0
14, 62820, Note_on_c, 13, 35, 71
14, 62850, Note_on_c, 13, 35, 0
14, 62880, Note_on_c, 13, 36, 67
14, 63000, Note_on_c, 13, 36, 0
14, 63000, Note_on_c, 13, 38, 78
14, 63030, Note_on_c, 13, 38, 0
14, 63030, Note_on_c, 13, 36, 64
14, 63060, Note_on_c, 13, 36, 0
14, 63060, Note_on_c, 13, 35, 68
14, 63090, Note_on_c, 13, 35, 0
14, 63090, Note_on_c, 13, 36, 69
14, 63120, Note_on_c, 13, 36, 0
14, 63120, Note_on_c, 13, 38, 65
14, 63150, Note_on_c, 13, 38, 0
14, 63180, Note_on_c, 13, 38, 69
14, 63210, Note_on_c, 13, 38, 0
14, 63240, Note_on_c, 13, 39, 74
14, 63270, Note_on_c, 13, 39, 0
14, 63270, Note_on_c, 13, 38, 90
14, 63300, Note_on_c, 13, 38, 0
14, 63300, Note_on_c, 13, 36, 73
14, 63330, Note_on_c, 13, 36, 0
14, 63330, Note_on_c, 13, 38, 86
14, 63360, Note_on_c, 13, 38, 0
14, 63360, Note_on_c, 13, 39, 76
14, 63540, Note_on_c, 13, 39, 0
14, 63540, Note_on_c, 13, 39, 74
14, 63600, Note_on_c, 13, 39, 0
14, 63600, Note_on_c, 13, 40, 84
14, 63630, Note_on_c, 13, 40, 0
14, 63660, Note_on_c, 13, 40, 90
14, 63690, Note_on_c, 13, 40, 0
14, 63720, Note_on_c, 13, 41, 72
14, 63750, Note_on_c, 13, 41, 0
14, 63750, Note_on_c, 13, 40, 95
14, 63780, Note_on_c, 13, 40, 0
14, 63780, Note_on_c, 13, 38, 95
14, 63810, Note_on_c, 13, 38, 0
14, 63810, Note_on_c, 13, 40, 94
14, 63840, Note_on_c, 13, 40, 0
14, 63840, Note_on_c, 13, 41, 73
14, 64020, Note_on_c, 13, 41, 0
14, 64020, Note_on_c, 13, 41, 80
14, 64080, Note_on_c, 13, 41, 0
14, 64080, Note_on_c, 13, 41, 86
14, 64140, Note_on_c, 13, 41, 0
14, 64140, Note_on_c, 13, 41, 89
14, 64200, Note_on_c, 13, 41, 0
14, 64200, Note_on_c, 13, 41, 85
14, 64260, Note_on_c, 13, 41, 0
14, 64260, Note_on_c, 13, 42, 90
14, 64320, Note_on_c, 13, 42, 0
14, 64320, Note_on_c, 13, 31, 112
14, 64380, Note_on_c, 13, 31, 0
14, 64380, Note_on_c, 13, 43, 99
14, 64440, Note_on_c, 13, 43, 0
14, 64440, Note_on_c, 13, 43, 101
14, 64500, Note_on_c, 13, 43, 0
14, 64500, Note_on_c, 13, 43, 98
14, 64560, Note_on_c, 13, 43, 0
14, 64560, Note_on_c, 13, 31, 105
14, 64620, Note_on_c, 13, 31, 0
14, 64620, Note_on_c, 13, 43, 95
14, 64680, Note_on_c, 13, 43, 0
14, 64680, Note_on_c, 13, 43, 93
14, 64740, Note_on_c, 13, 43, 0
14, 64740, Note_on_c, 13, 43, 95
14, 64800, Note_on_c, 13, 43, 0
14, 64800, Note_on_c, 13, 31, 105
14, 64860, Note_on_c, 13, 31, 0
14, 64860, Note_on_c, 13, 43, 99
14, 64920, Note_on_c, 13, 43, 0
14, 64920, Note_on_c, 13, 43, 99
14, 64980, Note_on_c, 13, 43, 0
14, 64980, Note_on_c, 13, 43, 99
14, 65040, Note_on_c, 13, 43, 0
14, 65040, Note_on_c, 13, 31, 115
14, 65100, Note_on_c, 13, 31, 0
14, 65100, Note_on_c, 13, 43, 104
14, 65160, Note_on_c, 13, 43, 0
14, 65160, Note_on_c, 13, 43, 104
14, 65220, Note_on_c, 13, 43, 0
14, 65220, Note_on_c, 13, 43, 104
14, 65280, Note_on_c, 13, 43, 0
14, 65280, Note_on_c, 13, 31, 94
14, 65340, Note_on_c, 13, 31, 0
14, 65340, Note_on_c, 13, 43, 58
14, 65400, Note_on_c, 13, 43, 0
14, 65400, Note_on_c, 13, 43, 59
14, 65460, Note_on_c, 13, 43, 0
14, 65460, Note_on_c, 13, 43, 57
14, 65520, Note_on_c, 13, 43, 0
14, 65520, Note_on_c, 13, 43, 69
14, 65580, Note_on_c, 13, 43, 0
14, 65580, Note_on_c, 13, 43, 46
14, 65640, Note_on_c, 13, 43, 0
14, 65640, Note_on_c, 13, 43, 59
14, 65700, Note_on_c, 13, 43, 0
14, 65700, Note_on_c, 13, 43, 62
14, 65760, Note_on_c, 13, 43, 0
14, 65760, Note_on_c, 13, 44, 90
14, 65820, Note_on_c, 13, 44, 0
14, 65820, Note_on_c, 13, 44, 45
14, 65880, Note_on_c, 13, 44, 0
14, 65880, Note_on_c, 13, 44, 43
14, 65940, Note_on_c, 13, 44, 0
14, 65940, Note_on_c, 13, 44, 43
14, 66000, Note_on_c, 13, 44, 0
14, 66000, Note_on_c, 13, 44, 52
14, 66060, Note_on_c, 13, 44, 0
14, 66060, Note_on_c, 13, 44, 48
14, 66120, Note_on_c, 13, 44, 0
14, 66120, Note_on_c, 13, 44, 45
14, 66180, Note_on_c, 13, 44, 0
14, 66180, Note_on_c, 13, 44, 45
14, 66240, Note_on_c, 13, 44, 0
14, 66240, Note_on_c, 13, 44, 48
14, 66300, Note_on_c, 13, 44, 0
14, 68160, Note_on_c, 13, 40, 44
14, 68280, Note_on_c, 13, 40, 0
14, 68280, Note_on_c, 13, 40, 40
14, 68400, Note_on_c, 13, 40, 0
14, 68400, Note_on_c, 13, 40, 40
14, 68520, Note_on_c, 13, 40, 0
14, 68520, Note_on_c, 13, 40, 41
14, 68640, Note_on_c, 13, 40, 0
14, 68640, Note_on_c, 13, 40, 40
14, 68760, Note_on_c, 13, 40, 0
14, 68760, Note_on_c, 13, 40, 40
14, 68880, Note_on_c, 13, 40, 0
14, 68880, Note_on_c, 13, 40, 42
14, 69000, Note_on_c, 13, 40, 0
14, 69000, Note_on_c, 13, 40, 41
14, 69120, Note_on_c, 13, 40, 0
14, 69120, Note_on_c, 13, 40, 42
14, 69240, Note_on_c, 13, 40, 0
14, 69240, Note_on_c, 13, 40, 40
14, 69360, Note_on_c, 13, 40, 0
14, 69360, Note_on_c, 13, 40, 40
14, 69480, Note_on_c, 13, 40, 0
14, 69480, Note_on_c, 13, 40, 42
14, 69600, Note_on_c, 13, 40, 0
14, 69600, Note_on_c, 13, 40, 40
14, 69720, Note_on_c, 13, 40, 0
14, 69720, Note_on_c, 13, 40, 40
14, 69840, Note_on_c, 13, 40, 0
14, 69840, Note_on_c, 13, 40, 41
14, 69960, Note_on_c, 13, 40, 0
14, 69960, Note_on_c, 13, 40, 40
14, 70080, Note_on_c, 13, 40, 0
14, 70080, Note_on_c, 13, 40, 40
14, 70200, Note_on_c, 13, 40, 0
14, 70200, Note_on_c, 13, 40, 41
14, 70320, Note_on_c, 13, 40, 0
14, 70320, Note_on_c, 13, 40, 43
14, 70380, Note_on_c, 13, 40, 0
14, 75960, Program_c, 13, 45
14, 76080, Note_on_c, 13, 43, 84
14, 76200, Note_on_c, 13, 43, 0
14, 76320, Note_on_c, 13, 48, 76
14, 76440, Note_on_c, 13, 48, 0
14, 76560, Note_on_c, 13, 43, 90
14, 76680, Note_on_c, 13, 43, 0
14, 76680, Note_on_c, 13, 36, 85
14, 76800, Note_on_c, 13, 36, 0
14, 76800, Note_on_c, 13, 43, 86
14, 76920, Note_on_c, 13, 43, 0
14, 77040, Note_on_c, 13, 43, 86
14, 77160, Note_on_c, 13, 43, 0
14, 77280, Note_on_c, 13, 36, 93
14, 77400, Note_on_c, 13, 36, 0
14, 77460, Note_on_c, 13, 39, 89
14, 77520, Note_on_c, 13, 39, 0
14, 77520, Note_on_c, 13, 38, 95
14, 77640, Note_on_c, 13, 38, 0
14, 77640, Note_on_c, 13, 38, 94
14, 77760, Note_on_c, 13, 38, 0
14, 77760, Note_on_c, 13, 43, 86
14, 77880, Note_on_c, 13, 43, 0
14, 77880, Program_c, 13, 48
14, 78000, Note_on_c, 13, 35, 99
14, 78030, Note_on_c, 13, 35, 0
14, 78030, Note_on_c, 13, 31, 90
14, 78060, Note_on_c, 13, 31, 0
14, 78060, Note_on_c, 13, 35, 101
14, 78090, Note_on_c, 13, 35, 0
14, 78090, Note_on_c, 13, 38, 93
14, 78120, Note_on_c, 13, 38, 0
14, 78120, Note_on_c, 13, 43, 77
14, 78150, Note_on_c, 13, 43, 0
14, 78150, Note_on_c, 13, 41, 90
14, 78180, Note_on_c, 13, 41, 0
14, 78180, Note_on_c, 13, 39, 94
14, 78210, Note_on_c, 13, 39, 0
14, 78210, Note_on_c, 13, 38, 99
14, 78240, Note_on_c, 13, 38, 0
14, 78240, Note_on_c, 13, 39, 94
14, 78270, Note_on_c, 13, 39, 0
14, 78270, Note_on_c, 13, 43, 80
14, 78300, Note_on_c, 13, 43, 0
14, 78300, Note_on_c, 13, 42, 89
14, 78330, Note_on_c, 13, 42, 0
14, 78330, Note_on_c, 13, 43, 80
14, 78360, Note_on_c, 13, 43, 0
14, 78360, Note_on_c, 13, 41, 93
14, 78390, Note_on_c, 13, 41, 0
14, 78390, Note_on_c, 13, 39, 86
14, 78420, Note_on_c, 13, 39, 0
14, 78420, Note_on_c, 13, 38, 93
14, 78450, Note_on_c, 13, 38, 0
14, 78450, Note_on_c, 13, 36, 101
14, 78480, Note_on_c, 13, 36, 0
14, 78480, Note_on_c, 13, 35, 101
14, 78510, Note_on_c, 13, 35, 0
14, 78510, Note_on_c, 13, 31, 86
14, 78540, Note_on_c, 13, 31, 0
14, 78540, Note_on_c, 13, 35, 94
14, 78570, Note_on_c, 13, 35, 0
14, 78570, Note_on_c, 13, 31, 85
14, 78600, Note_on_c, 13, 31, 0
14, 78600, Note_on_c, 13, 36, 95
14, 78630, Note_on_c, 13, 36, 0
14, 78630, Note_on_c, 13, 31, 84
14, 78660, Note_on_c, 13, 31, 0
14, 78660, Note_on_c, 13, 36, 94
14, 78690, Note_on_c, 13, 36, 0
14, 78690, Note_on_c, 13, 31, 84
14, 78720, Note_on_c, 13, 31, 0
14, 78720, Note_on_c, 13, 35, 93
14, 78750, Note_on_c, 13, 35, 0
14, 78750, Note_on_c, 13, 31, 89
14, 78780, Note_on_c, 13, 31, 0
14, 78780, Note_on_c, 13, 35, 95
14, 78810, Note_on_c, 13, 35, 0
14, 78810, Note_on_c, 13, 31, 93
14, 78840, Note_on_c, 13, 31, 0
14, 78840, Note_on_c, 13, 35, 94
14, 78870, Note_on_c, 13, 35, 0
14, 78870, Note_on_c, 13, 31, 94
14, 78900, Note_on_c, 13, 31, 0
14, 78900, Note_on_c, 13, 35, 99
14, 78930, Note_on_c, 13, 35, 0
14, 78930, Note_on_c, 13, 31, 95
14, 78960, Note_on_c, 13, 31, 0
14, 78960, Note_on_c, 13, 35, 95
14, 78990, Note_on_c, 13, 35, 0
14, 78990, Note_on_c, 13, 31, 89
14, 79020, Note_on_c, 13, 31, 0
14, 79020, Note_on_c, 13, 35, 95
14, 79050, Note_on_c, 13, 35, 0
14, 79050, Note_on_c, 13, 38, 98
14, 79080, Note_on_c, 13, 38, 0
14, 79080, Note_on_c, 13, 43, 76
14, 79110, Note_on_c, 13, 43, 0
14, 79110, Note_on_c, 13, 41, 82
14, 79140, Note_on_c, 13, 41, 0
14, 79140, Note_on_c, 13, 39, 89
14, 79170, Note_on_c, 13, 39, 0
14, 79170, Note_on_c, 13, 38, 90
14, 79200, Note_on_c, 13, 38, 0
14, 79200, Note_on_c, 13, 39, 93
14, 79230, Note_on_c, 13, 39, 0
14, 79230, Note_on_c, 13, 43, 76
14, 79260, Note_on_c, 13, 43, 0
14, 79260, Note_on_c, 13, 42, 84
14, 79290, Note_on_c, 13, 42, 0
14, 79290, Note_on_c, 13, 43, 78
14, 79320, Note_on_c, 13, 43, 0
14, 79320, Note_on_c, 13, 41, 80
14, 79350, Note_on_c, 13, 41, 0
14, 79350, Note_on_c, 13, 39, 89
14, 79380, Note_on_c, 13, 39, 0
14, 79380, Note_on_c, 13, 38, 94
14, 79410, Note_on_c, 13, 38, 0
14, 79410, Note_on_c, 13, 36, 94
14, 79440, Note_on_c, 13, 36, 0
14, 79440, Note_on_c, 13, 41, 89
14, 79470, Note_on_c, 13, 41, 0
14, 79470, Note_on_c, 13, 40, 94
14, 79500, Note_on_c, 13, 40, 0
14, 79500, Note_on_c, 13, 41, 89
14, 79530, Note_on_c, 13, 41, 0
14, 79530, Note_on_c, 13, 42, 78
14, 79560, Note_on_c, 13, 42, 0
14, 79560, Note_on_c, 13, 43, 78
14, 79590, Note_on_c, 13, 43, 0
14, 79590, Note_on_c, 13, 41, 80
14, 79620, Note_on_c, 13, 41, 0
14, 79620, Note_on_c, 13, 39, 89
14, 79650, Note_on_c, 13, 39, 0
14, 79650, Note_on_c, 13, 38, 95
14, 79680, Note_on_c, 13, 38, 0
14, 79680, Note_on_c, 13, 39, 86
14, 79710, Note_on_c, 13, 39, 0
14, 79710, Note_on_c, 13, 39, 90
14, 79740, Note_on_c, 13, 39, 0
14, 79740, Note_on_c, 13, 41, 81
14, 79770, Note_on_c, 13, 41, 0
14, 79770, Note_on_c, 13, 43, 85
14, 79800, Note_on_c, 13, 43, 0
14, 79800, Note_on_c, 13, 44, 119
14, 79950, Note_on_c, 13, 44, 0
14, 79950, Note_on_c, 13, 41, 85
14, 79980, Note_on_c, 13, 41, 0
14, 79980, Note_on_c, 13, 40, 98
14, 80010, Note_on_c, 13, 40, 0
14, 80010, Note_on_c, 13, 41, 90
14, 80040, Note_on_c, 13, 41, 0
14, 80040, Note_on_c, 13, 43, 84
14, 80070, Note_on_c, 13, 43, 0
14, 80070, Note_on_c, 13, 42, 84
14, 80100, Note_on_c, 13, 42, 0
14, 80100, Note_on_c, 13, 43, 84
14, 80130, Note_on_c, 13, 43, 0
14, 80130, Note_on_c, 13, 31, 98
14, 80160, Note_on_c, 13, 31, 0
14, 80160, Note_on_c, 13, 36, 95
14, 80190, Note_on_c, 13, 36, 0
14, 80190, Note_on_c, 13, 39, 94
14, 80220, Note_on_c, 13, 39, 0
14, 80220, Note_on_c, 13, 41, 94
14, 80250, Note_on_c, 13, 41, 0
14, 80250, Note_on_c, 13, 43, 89
14, 80280, Note_on_c, 13, 43, 0
14, 80280, Note_on_c, 13, 44, 119
14, 80430, Note_on_c, 13, 44, 0
14, 80430, Note_on_c, 13, 41, 93
14, 80460, Note_on_c, 13, 41, 0
14, 80460, Note_on_c, 13, 40, 95
14, 80490, Note_on_c, 13, 40, 0
14, 80490, Note_on_c, 13, 41, 89
14, 80520, Note_on_c, 13, 41, 0
14, 80520, Note_on_c, 13, 43, 80
14, 80550, Note_on_c, 13, 43, 0
14, 80550, Note_on_c, 13, 42, 84
14, 80580, Note_on_c, 13, 42, 0
14, 80580, Note_on_c, 13, 43, 80
14, 80610, Note_on_c, 13, 43, 0
14, 80610, Note_on_c, 13, 31, 95
14, 80640, Note_on_c, 13, 31, 0
14, 80640, Note_on_c, 13, 36, 99
14, 80700, Note_on_c, 13, 36, 0
14, 80760, Note_on_c, 13, 31, 89
14, 80820, Note_on_c, 13, 31, 0
14, 80880, Note_on_c, 13, 36, 99
14, 80940, Note_on_c, 13, 36, 0
14, 84000, Note_on_c, 13, 36, 76
14, 84120, Note_on_c, 13, 36, 0
14, 84240, Note_on_c, 13, 43, 66
14, 84360, Note_on_c, 13, 43, 0
14, 84480, Note_on_c, 13, 45, 72
14, 84600, Note_on_c, 13, 45, 0
14, 84720, Note_on_c, 13, 43, 61
14, 84840, Note_on_c, 13, 43, 0
14, 84960, Note_on_c, 13, 36, 67
14, 85080, Note_on_c, 13, 36, 0
14, 85200, Note_on_c, 13, 45, 71
14, 85320, Note_on_c, 13, 45, 0
14, 85440, Note_on_c, 13, 38, 57
14, 85560, Note_on_c, 13, 38, 0
14, 85560, Note_on_c, 13, 38, 84
14, 85680, Note_on_c, 13, 38, 0
14, 85680, Note_on_c, 13, 43, 65
14, 85800, Note_on_c, 13, 43, 0
14, 85920, Note_on_c, 13, 36, 64
14, 86040, Note_on_c, 13, 36, 0
14, 86160, Note_on_c, 13, 31, 67
14, 86280, Note_on_c, 13, 31, 0
14, 86400, Note_on_c, 13, 45, 76
14, 86520, Note_on_c, 13, 45, 0
14, 86520, Note_on_c, 13, 45, 86
14, 86640, Note_on_c, 13, 45, 0
14, 86640, Note_on_c, 13, 41, 99
14, 86880, Note_on_c, 13, 41, 0
14, 86880, Note_on_c, 13, 40, 68
14, 87000, Note_on_c, 13, 40, 0
14, 87000, Note_on_c, 13, 45, 80
14, 87120, Note_on_c, 13, 45, 0
14, 87120, Note_on_c, 13, 38, 115
14, 87300, Note_on_c, 13, 38, 0
14, 87300, Note_on_c, 13, 41, 71
14, 87360, Note_on_c, 13, 41, 0
14, 87360, Note_on_c, 13, 43, 65
14, 87420, Note_on_c, 13, 43, 0
14, 87420, Note_on_c, 13, 43, 77
14, 87480, Note_on_c, 13, 43, 0
14, 87480, Note_on_c, 13, 31, 81
14, 87540, Note_on_c, 13, 31, 0
14, 87540, Note_on_c, 13, 31, 81
14, 87600, Note_on_c, 13, 31, 0
14, 87600, Note_on_c, 13, 36, 82
14, 87660, Note_on_c, 13, 36, 0
14, 88740, Note_on_c, 13, 48, 66
14, 88800, Note_on_c, 13, 48, 0
14, 88800, Note_on_c, 13, 36, 68
14, 88860, Note_on_c, 13, 36, 0
14, 88980, Note_on_c, 13, 48, 71
14, 89040, Note_on_c, 13, 48, 0
14, 89040, Note_on_c, 13, 36, 76
14, 89100, Note_on_c, 13, 36, 0
14, 89220, Note_on_c, 13, 48, 61
14, 89280, Note_on_c, 13, 48, 0
14, 89280, Note_on_c, 13, 36, 76
14, 89340, Note_on_c, 13, 36, 0
14, 89340, Note_on_c, 13, 41, 77
14, 89370, Note_on_c, 13, 41, 0
14, 89400, Note_on_c, 13, 43, 73
14, 89430, Note_on_c, 13, 43, 0
14, 89460, Note_on_c, 13, 31, 80
14, 89490, Note_on_c, 13, 31, 0
14, 89520, Note_on_c, 13, 36, 82
14, 89580, Note_on_c, 13, 36, 0
14, 89640, Note_on_c, 13, 45, 74
14, 89700, Note_on_c, 13, 45, 0
14, 89760, Note_on_c, 13, 41, 69
14, 89820, Note_on_c, 13, 41, 0
14, 89880, Note_on_c, 13, 38, 78
14, 89940, Note_on_c, 13, 38, 0
14, 90000, Note_on_c, 13, 35, 84
14, 90060, Note_on_c, 13, 35, 0
14, 92880, Note_on_c, 13, 42, 71
14, 92940, Note_on_c, 13, 42, 0
14, 93360, Note_on_c, 13, 36, 82
14, 93420, Note_on_c, 13, 36, 0
14, 93840, Note_on_c, 13, 32, 43
14, 93900, Note_on_c, 13, 32, 0
14, 94800, Note_on_c, 13, 32, 40
14, 94920, Note_on_c, 13, 32, 0
14, 94920, Note_on_c, 13, 32, 43
14, 95040, Note_on_c, 13, 32, 0
14, 95040, Note_on_c, 13, 32, 43
14, 95160, Note_on_c, 13, 32, 0
14, 95160, Note_on_c, 13, 32, 43
14, 95280, Note_on_c, 13, 32, 0
14, 95280, Note_on_c, 13, 32, 41
14, 95400, Note_on_c, 13, 32, 0
14, 95400, Note_on_c, 13, 32, 41
14, 95520, Note_on_c, 13, 32, 0
14, 95520, Note_on_c, 13, 32, 42
14, 95640, Note_on_c, 13, 32, 0
14, 95640, Note_on_c, 13, 32, 41
14, 95760, Note_on_c, 13, 32, 0
14, 95760, Note_on_c, 13, 32, 62
14, 95880, Note_on_c, 13, 32, 0
14, 96000, Note_on_c, 13, 37, 65
14, 96120, Note_on_c, 13, 37, 0
14, 96240, Note_on_c, 13, 34, 61
14, 96360, Note_on_c, 13, 34, 0
14, 96480, Note_on_c, 13, 39, 53
14, 96600, Note_on_c, 13, 39, 0
14, 96720, Note_on_c, 13, 31, 74
14, 96840, Note_on_c, 13, 31, 0
14, 96960, Note_on_c, 13, 32, 59
14, 97080, Note_on_c, 13, 32, 0
14, 97200, Note_on_c, 13, 44, 61
14, 97320, Note_on_c, 13, 44, 0
14, 97440, Note_on_c, 13, 43, 70
14, 97560, Note_on_c, 13, 43, 0
14, 97680, Note_on_c, 13, 43, 60
14, 97800, Note_on_c, 13, 43, 0
14, 97920, Note_on_c, 13, 43, 59
14, 98040, Note_on_c, 13, 43, 0
14, 98160, Note_on_c, 13, 43, 62
14, 98280, Note_on_c, 13, 43, 0
14, 98400, Note_on_c, 13, 43, 62
14, 98520, Note_on_c, 13, 43, 0
14, 98520, Note_on_c, 13, 43, 72
14, 98640, Note_on_c, 13, 43, 0
14, 98640, Note_on_c, 13, 43, 78
14, 98760, Note_on_c, 13, 43, 0
14, 98760, Note_on_c, 13, 43, 89
14, 98880, Note_on_c, 13, 43, 0
14, 98880, Note_on_c, 13, 31, 90
14, 98940, Note_on_c, 13, 31, 0
14, 98940, Note_on_c, 13, 44, 84
14, 99000, Note_on_c, 13, 44, 0
14, 99000, Note_on_c, 13, 43, 90
14, 99060, Note_on_c, 13, 43, 0
14, 99060, Note_on_c, 13, 48, 81
14, 99120, Note_on_c, 13, 48, 0
14, 99120, Note_on_c, 13, 47, 93
14, 99180, Note_on_c, 13, 47, 0
14, 99180, Note_on_c, 13, 51, 81
14, 99240, Note_on_c, 13, 51, 0
14, 99240, Note_on_c, 13, 50, 82
14, 99300, Note_on_c, 13, 50, 0
14, 99300, Note_on_c, 13, 48, 86
14, 99360, Note_on_c, 13, 48, 0
14, 99360, Note_on_c, 13, 47, 81
14, 99420, Note_on_c, 13, 47, 0
14, 99420, Note_on_c, 13, 44, 89
14, 99480, Note_on_c, 13, 44, 0
14, 99480, Note_on_c, 13, 43, 94
14, 99540, Note_on_c, 13, 43, 0
14, 99540, Note_on_c, 13, 48, 80
14, 99600, Note_on_c, 13, 48, 0
14, 99600, Note_on_c, 13, 47, 95
14, 99660, Note_on_c, 13, 47, 0
14, 99660, Note_on_c, 13, 51, 89
14, 99720, Note_on_c, 13, 51, 0
14, 99720, Note_on_c, 13, 50, 84
14, 99780, Note_on_c, 13, 50, 0
14, 99780, Note_on_c, 13, 48, 94
14, 99840, Note_on_c, 13, 48, 0
14, 99840, Note_on_c, 13, 47, 105
14, 99900, Note_on_c, 13, 47, 0
14, 99900, Note_on_c, 13, 44, 99
14, 99960, Note_on_c, 13, 44, 0
14, 99960, Note_on_c, 13, 43, 105
14, 100020, Note_on_c, 13, 43, 0
14, 100020, Note_on_c, 13, 44, 105
14, 100080, Note_on_c, 13, 44, 0
14, 100080, Note_on_c, 13, 43, 105
14, 100140, Note_on_c, 13, 43, 0
14, 100140, Note_on_c, 13, 44, 105
14, 100200, Note_on_c, 13, 44, 0
14, 100200, Note_on_c, 13, 43, 104
14, 100260, Note_on_c, 13, 43, 0
14, 100260, Note_on_c, 13, 44, 104
14, 100320, Note_on_c, 13, 44, 0
14, 100320, Note_on_c, 13, 43, 105
14, 100380, Note_on_c, 13, 43, 0
14, 100380, Note_on_c, 13, 44, 99
14, 100440, Note_on_c, 13, 44, 0
14, 100440, Note_on_c, 13, 43, 101
14, 100500, Note_on_c, 13, 43, 0
14, 100500, Note_on_c, 13, 44, 99
14, 100560, Note_on_c, 13, 44, 0
14, 100560, Note_on_c, 13, 43, 105
14, 100620, Note_on_c, 13, 43, 0
14, 100620, Note_on_c, 13, 44, 99
14, 100680, Note_on_c, 13, 44, 0
14, 100680, Note_on_c, 13, 43, 101
14, 100740, Note_on_c, 13, 43, 0
14, 100740, Note_on_c, 13, 44, 99
14, 100800, Note_on_c, 13, 44, 0
14, 100800, Note_on_c, 13, 43, 105
14, 100830, Note_on_c, 13, 43, 0
14, 100830, Note_on_c, 13, 31, 104
14, 100860, Note_on_c, 13, 31, 0
14, 100860, Note_on_c, 13, 33, 110
14, 100890, Note_on_c, 13, 33, 0
14, 100890, Note_on_c, 13, 35, 107
14, 100920, Note_on_c, 13, 35, 0
14, 100920, Note_on_c, 13, 36, 110
14, 100950, Note_on_c, 13, 36, 0
14, 100950, Note_on_c, 13, 38, 112
14, 100980, Note_on_c, 13, 38, 0
14, 100980, Note_on_c, 13, 40, 110
14, 101010, Note_on_c, 13, 40, 0
14, 101010, Note_on_c, 13, 42, 104
14, 101040, Note_on_c, 13, 42, 0
14, 101040, Note_on_c, 13, 43, 107
14, 101070, Note_on_c, 13, 43, 0
14, 101070, Note_on_c, 13, 31, 105
14, 101100, Note_on_c, 13, 31, 0
14, 101100, Note_on_c, 13, 33, 107
14, 101130, Note_on_c, 13, 33, 0
14, 101130, Note_on_c, 13, 35, 110
14, 101160, Note_on_c, 13, 35, 0
14, 101160, Note_on_c, 13, 36, 110
14, 101190, Note_on_c, 13, 36, 0
14, 101190, Note_on_c, 13, 38, 112
14, 101220, Note_on_c, 13, 38, 0
14, 101220, Note_on_c, 13, 40, 112
14, 101250, Note_on_c, 13, 40, 0
14, 101250, Note_on_c, 13, 42, 105
14, 101280, Note_on_c, 13, 42, 0
14, 101280, Note_on_c, 13, 43, 119
14, 101520, Note_on_c, 13, 43, 0
14, 101520, Note_on_c, 13, 31, 123
14, 101760, Note_on_c, 13, 31, 0
14, 101760, Note_on_c, 13, 31, 125
14, 102360, Note_on_c, 13, 31, 0
14, 106560, Note_on_c, 13, 43, 62
14, 106680, Note_on_c, 13, 43, 0
14, 106920, Note_on_c, 13, 43, 53
14, 107040, Note_on_c, 13, 43, 0
14, 107160, Note_on_c, 13, 43, 54
14, 107220, Note_on_c, 13, 43, 0
14, 107220, Note_on_c, 13, 45, 65
14, 107280, Note_on_c, 13, 45, 0
14, 107280, Note_on_c, 13, 41, 65
14, 107400, Note_on_c, 13, 41, 0
14, 107460, Note_on_c, 13, 43, 55
14, 107580, Note_on_c, 13, 43, 0
14, 107640, Note_on_c, 13, 36, 64
14, 107760, Note_on_c, 13, 36, 0
14, 108000, Note_on_c, 13, 43, 65
14, 108120, Note_on_c, 13, 43, 0
14, 108360, Note_on_c, 13, 43, 58
14, 108480, Note_on_c, 13, 43, 0
14, 108600, Note_on_c, 13, 43, 62
14, 108630, Note_on_c, 13, 43, 0
14, 108660, Note_on_c, 13, 45, 69
14, 108690, Note_on_c, 13, 45, 0
14, 108720, Note_on_c, 13, 41, 52
14, 108840, Note_on_c, 13, 41, 0
14, 108900, Note_on_c, 13, 43, 56
14, 109020, Note_on_c, 13, 43, 0
14, 109080, Note_on_c, 13, 36, 95
14, 109200, Note_on_c, 13, 36, 0
14, 119160, Note_on_c, 13, 36, 86
14, 119280, Note_on_c, 13, 36, 0
14, 119520, Note_on_c, 13, 43, 78
14, 119640, Note_on_c, 13, 43, 0
14, 119880, Note_on_c, 13, 36, 52
14, 120000, Note_on_c, 13, 36, 0
14, 120060, Note_on_c, 13, 45, 45
14, 120180, Note_on_c, 13, 45, 0
14, 120240, Note_on_c, 13, 41, 45
14, 120360, Note_on_c, 13, 41, 0
14, 120420, Note_on_c, 13, 43, 43
14, 120540, Note_on_c, 13, 43, 0
14, 120600, Note_on_c, 13, 36, 81
14, 120720, Note_on_c, 13, 36, 0
14, 120960, Note_on_c, 13, 43, 81
14, 121080, Note_on_c, 13, 43, 0
14, 121320, Note_on_c, 13, 36, 62
14, 121440, Note_on_c, 13, 36, 0
14, 121500, Note_on_c, 13, 45, 58
14, 121620, Note_on_c, 13, 45, 0
14, 121680, Note_on_c, 13, 41, 62
14, 121800, Note_on_c, 13, 41, 0
14, 121860, Note_on_c, 13, 43, 60
14, 121980, Note_on_c, 13, 43, 0
14, 122040, Note_on_c, 13, 36, 64
14, 122160, Note_on_c, 13, 36, 0
14, 122220, Note_on_c, 13, 45, 64
14, 122340, Note_on_c, 13, 45, 0
14, 122400, Note_on_c, 13, 41, 65
14, 122520, Note_on_c, 13, 41, 0
14, 122580, Note_on_c, 13, 43, 61
14, 122700, Note_on_c, 13, 43, 0
14, 122760, Note_on_c, 13, 36, 77
14, 122880, Note_on_c, 13, 36, 0
14, 123840, Note_on_c, 13, 43, 74
14, 123960, Note_on_c, 13, 43, 0
14, 124200, Note_on_c, 13, 48, 105
14, 124260, Note_on_c, 13, 48, 0
14, 124260, Note_on_c, 13, 52, 99
14, 124320, Note_on_c, 13, 52, 0
14, 124320, Note_on_c, 13, 50, 104
14, 124380, Note_on_c, 13, 50, 0
14, 124380, Note_on_c, 13, 48, 105
14, 124440, Note_on_c, 13, 48, 0
14, 124440, Note_on_c, 13, 47, 105
14, 124500, Note_on_c, 13, 47, 0
14, 124500, Note_on_c, 13, 45, 112
14, 124560, Note_on_c, 13, 45, 0
14, 124560, Note_on_c, 13, 43, 104
14, 124620, Note_on_c, 13, 43, 0
14, 124620, Note_on_c, 13, 45, 110
14, 124680, Note_on_c, 13, 45, 0
14, 124680, Note_on_c, 13, 43, 99
14, 124740, Note_on_c, 13, 43, 0
14, 124740, Note_on_c, 13, 41, 99
14, 124800, Note_on_c, 13, 41, 0
14, 124800, Note_on_c, 13, 40, 107
14, 124860, Note_on_c, 13, 40, 0
14, 124860, Note_on_c, 13, 38, 112
14, 124920, Note_on_c, 13, 38, 0
14, 124920, Note_on_c, 13, 36, 101
14, 125040, Note_on_c, 13, 36, 0
14, 125100, Note_on_c, 13, 43, 104
14, 125220, Note_on_c, 13, 43, 0
14, 125280, Note_on_c, 13, 48, 104
14, 125400, Note_on_c, 13, 48, 0
14, 125460, Note_on_c, 13, 31, 105
14, 125580, Note_on_c, 13, 31, 0
14, 125640, Note_on_c, 13, 36, 104
14, 125760, Note_on_c, 13, 36, 0
14, 126000, Note_on_c, 13, 48, 104
14, 126120, Note_on_c, 13, 48, 0
14, 126360, Note_on_c, 13, 36, 123
14, 126480, Note_on_c, 13, 36, 0
14, 126480, End_track
15, 0, Start_track
15, 0, MIDI_port, 0
15, 0, Title_t, "Ludwig van Beethoven"
15, 0, End_track
16, 0, Start_track
16, 0, MIDI_port, 0
16, 0, Title_t, "Piano Concerto No. 3"
16, 0, End_track
17, 0, Start_track
17, 0, MIDI_port, 0
17, 0, Title_t, "in C minor, Op. 37"
17, 0, End_track
18, 0, Start_track
18, 0, MIDI_port, 0
18, 0, Title_t, "Mov't. 3 - Rondo"
18, 0, End_track
19, 0, Start_track
19, 0, MIDI_port, 0
19, 0, Title_t, "Sequenced by Bill Nemitz"
19, 0, End_track
20, 0, Start_track
20, 0, MIDI_port, 0
20, 0, Title_t, "Email at billnem@ix.netcom.com"
20, 0, End_track
0, 0, End_of_file