0, 0, Header, 1, 5, 192
1, 0, Start_track
1, 0, Title_t, "String Quartet No.16 - I"
1, 0, Text_t, "By Ludwig van Beethoven"
1, 0, Copyright_t, "Copyright \251 2001 by S.E.Edwards"
1, 0, Copyright_t, "All Rights Reserved"
1, 0, Text_t, "Generated by NoteWorthy Composer"
1, 0, Tempo, 923076
1, 0, Key_signature, -1, "major"
1, 0, Time_signature, 2, 2, 24, 8
1, 33054, Tempo, 937500
1, 33085, Tempo, 952380
1, 33116, Tempo, 967741
1, 33146, Tempo, 983606
1, 33177, Tempo, 1000000
1, 33208, Tempo, 1016949
1, 33239, Tempo, 1034482
1, 33269, Tempo, 1052631
1, 33300, Tempo, 1071428
1, 33331, Tempo, 1090909
1, 33361, Tempo, 1111111
1, 33392, Tempo, 1132075
1, 33423, Tempo, 1153846
1, 33454, Tempo, 1176470
1, 33484, Tempo, 1200000
1, 33515, Tempo, 1224489
1, 33546, Tempo, 1250000
1, 33576, Tempo, 1276595
1, 33607, Tempo, 1304347
1, 33638, Tempo, 1333333
1, 33669, Tempo, 1363636
1, 33699, Tempo, 1395348
1, 33730, Tempo, 1428571
1, 33761, Tempo, 1463414
1, 33792, Tempo, 1500000
1, 33792, Tempo, 923076
1, 35328, Key_signature, 1, "major"
1, 38400, Key_signature, -1, "major"
1, 38400, End_track
2, 0, Start_track
2, 0, MIDI_port, 0
2, 0, Title_t, "Violino I."
2, 0, Program_c, 1, 0
2, 0, Control_c, 1, 7, 127
2, 0, Control_c, 1, 10, 64
2, 480, Note_on_c, 1, 67, 30
2, 504, Note_on_c, 1, 67, 0
2, 504, Note_on_c, 1, 69, 30
2, 528, Note_on_c, 1, 69, 0
2, 528, Note_on_c, 1, 70, 30
2, 560, Note_on_c, 1, 70, 0
2, 1248, Note_on_c, 1, 76, 30
2, 1272, Note_on_c, 1, 76, 0
2, 1272, Note_on_c, 1, 77, 30
2, 1296, Note_on_c, 1, 77, 0
2, 1296, Note_on_c, 1, 79, 84
2, 1328, Note_on_c, 1, 79, 0
2, 1800, Note_on_c, 1, 70, 45
2, 1824, Note_on_c, 1, 70, 0
2, 1824, Note_on_c, 1, 60, 45
2, 1872, Note_on_c, 1, 60, 0
2, 1872, Note_on_c, 1, 67, 45
2, 1918, Note_on_c, 1, 67, 0
2, 1920, Note_on_c, 1, 69, 45
2, 1992, Note_on_c, 1, 69, 0
2, 1992, Note_on_c, 1, 70, 45
2, 2016, Note_on_c, 1, 70, 0
2, 2016, Note_on_c, 1, 72, 45
2, 2176, Note_on_c, 1, 72, 0
2, 2352, Note_on_c, 1, 74, 45
2, 2400, Note_on_c, 1, 74, 0
2, 2400, Note_on_c, 1, 70, 45
2, 2448, Note_on_c, 1, 70, 0
2, 2448, Note_on_c, 1, 67, 45
2, 2496, Note_on_c, 1, 67, 0
2, 2496, Note_on_c, 1, 65, 45
2, 2528, Note_on_c, 1, 65, 0
2, 2784, Note_on_c, 1, 69, 45
2, 2856, Note_on_c, 1, 69, 0
2, 2856, Note_on_c, 1, 70, 45
2, 2880, Note_on_c, 1, 70, 0
2, 2880, Note_on_c, 1, 72, 45
2, 2926, Note_on_c, 1, 72, 0
2, 2952, Note_on_c, 1, 77, 45
2, 2976, Note_on_c, 1, 77, 0
2, 2976, Note_on_c, 1, 76, 45
2, 3024, Note_on_c, 1, 76, 0
2, 3024, Note_on_c, 1, 74, 45
2, 3072, Note_on_c, 1, 74, 0
2, 3072, Note_on_c, 1, 72, 45
2, 3104, Note_on_c, 1, 72, 0
2, 3144, Note_on_c, 1, 86, 45
2, 3168, Note_on_c, 1, 86, 0
2, 3168, Note_on_c, 1, 82, 46
2, 3216, Note_on_c, 1, 82, 0
2, 3216, Note_on_c, 1, 79, 48
2, 3264, Note_on_c, 1, 79, 0
2, 3264, Note_on_c, 1, 77, 50
2, 3296, Note_on_c, 1, 77, 0
2, 3336, Note_on_c, 1, 79, 53
2, 3360, Note_on_c, 1, 79, 0
2, 3360, Note_on_c, 1, 76, 54
2, 3408, Note_on_c, 1, 76, 0
2, 3408, Note_on_c, 1, 72, 57
2, 3456, Note_on_c, 1, 72, 0
2, 3456, Note_on_c, 1, 77, 45
2, 3550, Note_on_c, 1, 77, 0
2, 3648, Note_on_c, 1, 72, 75
2, 3840, Note_on_c, 1, 72, 0
2, 3840, Note_on_c, 1, 62, 60
2, 4000, Note_on_c, 1, 62, 0
2, 4032, Note_on_c, 1, 69, 75
2, 4224, Note_on_c, 1, 69, 0
2, 4224, Note_on_c, 1, 67, 60
2, 4384, Note_on_c, 1, 67, 0
2, 4416, Note_on_c, 1, 74, 75
2, 4608, Note_on_c, 1, 74, 0
2, 4608, Note_on_c, 1, 64, 60
2, 4768, Note_on_c, 1, 64, 0
2, 4800, Note_on_c, 1, 70, 75
2, 4992, Note_on_c, 1, 70, 0
2, 4992, Note_on_c, 1, 69, 60
2, 5152, Note_on_c, 1, 69, 0
2, 5184, Note_on_c, 1, 81, 45
2, 5376, Note_on_c, 1, 81, 0
2, 5376, Note_on_c, 1, 77, 45
2, 5600, Note_on_c, 1, 77, 0
2, 5600, Note_on_c, 1, 76, 58
2, 5632, Note_on_c, 1, 76, 0
2, 5632, Note_on_c, 1, 74, 60
2, 5664, Note_on_c, 1, 74, 0
2, 5664, Note_on_c, 1, 72, 62
2, 5696, Note_on_c, 1, 72, 0
2, 5696, Note_on_c, 1, 71, 64
2, 5728, Note_on_c, 1, 71, 0
2, 5728, Note_on_c, 1, 74, 66
2, 5758, Note_on_c, 1, 74, 0
2, 5760, Note_on_c, 1, 67, 68
2, 5792, Note_on_c, 1, 67, 0
2, 5792, Note_on_c, 1, 66, 70
2, 5824, Note_on_c, 1, 66, 0
2, 5824, Note_on_c, 1, 67, 72
2, 5856, Note_on_c, 1, 67, 0
2, 5856, Note_on_c, 1, 69, 74
2, 5888, Note_on_c, 1, 69, 0
2, 5888, Note_on_c, 1, 71, 76
2, 5920, Note_on_c, 1, 71, 0
2, 5920, Note_on_c, 1, 72, 78
2, 5952, Note_on_c, 1, 72, 0
2, 5952, Note_on_c, 1, 74, 80
2, 5984, Note_on_c, 1, 74, 0
2, 5984, Note_on_c, 1, 76, 82
2, 6016, Note_on_c, 1, 76, 0
2, 6016, Note_on_c, 1, 77, 84
2, 6048, Note_on_c, 1, 77, 0
2, 6048, Note_on_c, 1, 79, 86
2, 6080, Note_on_c, 1, 79, 0
2, 6080, Note_on_c, 1, 81, 88
2, 6112, Note_on_c, 1, 81, 0
2, 6112, Note_on_c, 1, 83, 90
2, 6142, Note_on_c, 1, 83, 0
2, 6144, Note_on_c, 1, 84, 92
2, 6238, Note_on_c, 1, 84, 0
2, 6240, Note_on_c, 1, 83, 45
2, 6312, Note_on_c, 1, 83, 0
2, 6312, Note_on_c, 1, 86, 45
2, 6334, Note_on_c, 1, 86, 0
2, 6336, Note_on_c, 1, 84, 45
2, 6368, Note_on_c, 1, 84, 0
2, 6432, Note_on_c, 1, 84, 45
2, 6464, Note_on_c, 1, 84, 0
2, 6528, Note_on_c, 1, 84, 45
2, 6984, Note_on_c, 1, 84, 0
2, 6984, Note_on_c, 1, 78, 45
2, 7006, Note_on_c, 1, 78, 0
2, 7008, Note_on_c, 1, 82, 45
2, 7040, Note_on_c, 1, 82, 0
2, 7104, Note_on_c, 1, 82, 45
2, 7136, Note_on_c, 1, 82, 0
2, 7200, Note_on_c, 1, 82, 45
2, 7232, Note_on_c, 1, 82, 0
2, 7296, Note_on_c, 1, 82, 45
2, 7776, Note_on_c, 1, 82, 0
2, 7776, Note_on_c, 1, 79, 45
2, 7848, Note_on_c, 1, 79, 0
2, 7848, Note_on_c, 1, 82, 45
2, 7870, Note_on_c, 1, 82, 0
2, 7872, Note_on_c, 1, 81, 45
2, 7904, Note_on_c, 1, 81, 0
2, 7968, Note_on_c, 1, 81, 45
2, 8000, Note_on_c, 1, 81, 0
2, 8064, Note_on_c, 1, 81, 45
2, 8158, Note_on_c, 1, 81, 0
2, 8160, Note_on_c, 1, 64, 45
2, 8232, Note_on_c, 1, 64, 0
2, 8232, Note_on_c, 1, 67, 45
2, 8254, Note_on_c, 1, 67, 0
2, 8256, Note_on_c, 1, 65, 45
2, 8288, Note_on_c, 1, 65, 0
2, 8352, Note_on_c, 1, 65, 45
2, 8384, Note_on_c, 1, 65, 0
2, 9024, Note_on_c, 1, 79, 75
2, 9216, Note_on_c, 1, 79, 0
2, 9216, Note_on_c, 1, 72, 45
2, 9454, Note_on_c, 1, 72, 0
2, 9456, Note_on_c, 1, 77, 45
2, 9504, Note_on_c, 1, 77, 0
2, 9504, Note_on_c, 1, 76, 45
2, 9552, Note_on_c, 1, 76, 0
2, 9552, Note_on_c, 1, 77, 45
2, 9600, Note_on_c, 1, 77, 0
2, 9600, Note_on_c, 1, 72, 45
2, 9632, Note_on_c, 1, 72, 0
2, 9648, Note_on_c, 1, 74, 45
2, 9696, Note_on_c, 1, 74, 0
2, 9696, Note_on_c, 1, 69, 45
2, 9744, Note_on_c, 1, 69, 0
2, 9744, Note_on_c, 1, 70, 45
2, 9792, Note_on_c, 1, 70, 0
2, 9792, Note_on_c, 1, 69, 45
2, 9824, Note_on_c, 1, 69, 0
2, 9840, Note_on_c, 1, 82, 45
2, 9888, Note_on_c, 1, 82, 0
2, 9888, Note_on_c, 1, 77, 45
2, 9936, Note_on_c, 1, 77, 0
2, 9936, Note_on_c, 1, 79, 45
2, 9984, Note_on_c, 1, 79, 0
2, 9984, Note_on_c, 1, 81, 45
2, 10078, Note_on_c, 1, 81, 0
2, 10752, Note_on_c, 1, 74, 45
2, 10990, Note_on_c, 1, 74, 0
2, 10992, Note_on_c, 1, 79, 45
2, 11040, Note_on_c, 1, 79, 0
2, 11040, Note_on_c, 1, 78, 45
2, 11088, Note_on_c, 1, 78, 0
2, 11088, Note_on_c, 1, 79, 45
2, 11136, Note_on_c, 1, 79, 0
2, 11136, Note_on_c, 1, 78, 45
2, 11168, Note_on_c, 1, 78, 0
2, 11184, Note_on_c, 1, 79, 45
2, 11232, Note_on_c, 1, 79, 0
2, 11232, Note_on_c, 1, 74, 45
2, 11280, Note_on_c, 1, 74, 0
2, 11280, Note_on_c, 1, 76, 45
2, 11328, Note_on_c, 1, 76, 0
2, 11328, Note_on_c, 1, 74, 45
2, 11360, Note_on_c, 1, 74, 0
2, 11376, Note_on_c, 1, 76, 45
2, 11424, Note_on_c, 1, 76, 0
2, 11424, Note_on_c, 1, 71, 45
2, 11472, Note_on_c, 1, 71, 0
2, 11472, Note_on_c, 1, 72, 45
2, 11518, Note_on_c, 1, 72, 0
2, 11520, Note_on_c, 1, 74, 45
2, 11568, Note_on_c, 1, 74, 0
2, 11568, Note_on_c, 1, 71, 45
2, 11616, Note_on_c, 1, 71, 0
2, 11616, Note_on_c, 1, 74, 45
2, 11662, Note_on_c, 1, 74, 0
2, 11664, Note_on_c, 1, 74, 45
2, 11696, Note_on_c, 1, 74, 0
2, 11712, Note_on_c, 1, 74, 45
2, 11760, Note_on_c, 1, 74, 0
2, 11760, Note_on_c, 1, 71, 45
2, 11808, Note_on_c, 1, 71, 0
2, 11808, Note_on_c, 1, 79, 45
2, 11854, Note_on_c, 1, 79, 0
2, 11880, Note_on_c, 1, 79, 45
2, 11896, Note_on_c, 1, 79, 0
2, 11904, Note_on_c, 1, 79, 45
2, 12096, Note_on_c, 1, 79, 0
2, 12096, Note_on_c, 1, 78, 45
2, 12256, Note_on_c, 1, 78, 0
2, 12288, Note_on_c, 1, 62, 45
2, 12336, Note_on_c, 1, 62, 0
2, 12336, Note_on_c, 1, 55, 45
2, 12384, Note_on_c, 1, 55, 0
2, 12384, Note_on_c, 1, 62, 45
2, 12430, Note_on_c, 1, 62, 0
2, 12432, Note_on_c, 1, 62, 45
2, 12464, Note_on_c, 1, 62, 0
2, 12480, Note_on_c, 1, 62, 45
2, 12528, Note_on_c, 1, 62, 0
2, 12528, Note_on_c, 1, 59, 45
2, 12576, Note_on_c, 1, 59, 0
2, 12576, Note_on_c, 1, 65, 45
2, 12622, Note_on_c, 1, 65, 0
2, 12648, Note_on_c, 1, 65, 45
2, 12664, Note_on_c, 1, 65, 0
2, 12672, Note_on_c, 1, 65, 45
2, 12864, Note_on_c, 1, 65, 0
2, 12864, Note_on_c, 1, 64, 45
2, 13102, Note_on_c, 1, 64, 0
2, 13104, Note_on_c, 1, 64, 47
2, 13152, Note_on_c, 1, 64, 0
2, 13152, Note_on_c, 1, 76, 49
2, 13198, Note_on_c, 1, 76, 0
2, 13200, Note_on_c, 1, 76, 51
2, 13232, Note_on_c, 1, 76, 0
2, 13248, Note_on_c, 1, 76, 53
2, 13296, Note_on_c, 1, 76, 0
2, 13296, Note_on_c, 1, 64, 55
2, 13344, Note_on_c, 1, 64, 0
2, 13344, Note_on_c, 1, 76, 57
2, 13390, Note_on_c, 1, 76, 0
2, 13416, Note_on_c, 1, 76, 60
2, 13432, Note_on_c, 1, 76, 0
2, 13440, Note_on_c, 1, 76, 61
2, 13584, Note_on_c, 1, 76, 0
2, 13584, Note_on_c, 1, 73, 68
2, 13630, Note_on_c, 1, 73, 0
2, 13632, Note_on_c, 1, 76, 70
2, 13680, Note_on_c, 1, 76, 0
2, 13680, Note_on_c, 1, 74, 72
2, 13728, Note_on_c, 1, 74, 0
2, 13728, Note_on_c, 1, 83, 75
2, 13774, Note_on_c, 1, 83, 0
2, 13776, Note_on_c, 1, 81, 60
2, 13808, Note_on_c, 1, 81, 0
2, 13824, Note_on_c, 1, 74, 45
2, 13872, Note_on_c, 1, 74, 0
2, 13872, Note_on_c, 1, 72, 45
2, 13918, Note_on_c, 1, 72, 0
2, 13920, Note_on_c, 1, 81, 45
2, 13968, Note_on_c, 1, 81, 0
2, 13968, Note_on_c, 1, 79, 45
2, 14014, Note_on_c, 1, 79, 0
2, 14016, Note_on_c, 1, 72, 45
2, 14064, Note_on_c, 1, 72, 0
2, 14064, Note_on_c, 1, 71, 45
2, 14110, Note_on_c, 1, 71, 0
2, 14112, Note_on_c, 1, 81, 45
2, 14160, Note_on_c, 1, 81, 0
2, 14160, Note_on_c, 1, 79, 45
2, 14206, Note_on_c, 1, 79, 0
2, 14208, Note_on_c, 1, 79, 45
2, 14928, Note_on_c, 1, 79, 0
2, 14976, Note_on_c, 1, 79, 45
2, 15008, Note_on_c, 1, 79, 0
2, 15072, Note_on_c, 1, 83, 45
2, 15104, Note_on_c, 1, 83, 0
2, 15168, Note_on_c, 1, 86, 51
2, 15200, Note_on_c, 1, 86, 0
2, 15264, Note_on_c, 1, 89, 57
2, 15296, Note_on_c, 1, 89, 0
2, 15360, Note_on_c, 1, 88, 63
2, 15392, Note_on_c, 1, 88, 0
2, 15456, Note_on_c, 1, 91, 69
2, 15488, Note_on_c, 1, 91, 0
2, 15552, Note_on_c, 1, 96, 105
2, 15712, Note_on_c, 1, 96, 0
2, 16032, Note_on_c, 1, 88, 92
2, 16062, Note_on_c, 1, 88, 0
2, 16064, Note_on_c, 1, 86, 92
2, 16094, Note_on_c, 1, 86, 0
2, 16096, Note_on_c, 1, 84, 92
2, 16126, Note_on_c, 1, 84, 0
2, 16128, Note_on_c, 1, 89, 92
2, 16158, Note_on_c, 1, 89, 0
2, 16160, Note_on_c, 1, 86, 92
2, 16190, Note_on_c, 1, 86, 0
2, 16192, Note_on_c, 1, 83, 92
2, 16222, Note_on_c, 1, 83, 0
2, 16224, Note_on_c, 1, 77, 92
2, 16254, Note_on_c, 1, 77, 0
2, 16256, Note_on_c, 1, 74, 92
2, 16286, Note_on_c, 1, 74, 0
2, 16288, Note_on_c, 1, 71, 92
2, 16318, Note_on_c, 1, 71, 0
2, 16320, Note_on_c, 1, 67, 92
2, 16350, Note_on_c, 1, 67, 0
2, 16352, Note_on_c, 1, 71, 82
2, 16382, Note_on_c, 1, 71, 0
2, 16384, Note_on_c, 1, 74, 72
2, 16414, Note_on_c, 1, 74, 0
2, 16416, Note_on_c, 1, 79, 62
2, 16446, Note_on_c, 1, 79, 0
2, 16448, Note_on_c, 1, 83, 52
2, 16478, Note_on_c, 1, 83, 0
2, 16480, Note_on_c, 1, 86, 41
2, 16510, Note_on_c, 1, 86, 0
2, 16512, Note_on_c, 1, 89, 30
2, 16542, Note_on_c, 1, 89, 0
2, 16544, Note_on_c, 1, 86, 30
2, 16574, Note_on_c, 1, 86, 0
2, 16576, Note_on_c, 1, 83, 30
2, 16606, Note_on_c, 1, 83, 0
2, 16608, Note_on_c, 1, 79, 30
2, 16638, Note_on_c, 1, 79, 0
2, 16640, Note_on_c, 1, 84, 30
2, 16670, Note_on_c, 1, 84, 0
2, 16672, Note_on_c, 1, 88, 30
2, 16702, Note_on_c, 1, 88, 0
2, 16704, Note_on_c, 1, 88, 30
2, 16734, Note_on_c, 1, 88, 0
2, 16736, Note_on_c, 1, 84, 30
2, 16766, Note_on_c, 1, 84, 0
2, 16768, Note_on_c, 1, 81, 30
2, 16798, Note_on_c, 1, 81, 0
2, 16800, Note_on_c, 1, 77, 30
2, 16830, Note_on_c, 1, 77, 0
2, 16832, Note_on_c, 1, 82, 30
2, 16862, Note_on_c, 1, 82, 0
2, 16864, Note_on_c, 1, 86, 30
2, 16894, Note_on_c, 1, 86, 0
2, 16896, Note_on_c, 1, 86, 30
2, 16926, Note_on_c, 1, 86, 0
2, 16928, Note_on_c, 1, 83, 30
2, 16958, Note_on_c, 1, 83, 0
2, 16960, Note_on_c, 1, 80, 30
2, 16990, Note_on_c, 1, 80, 0
2, 16992, Note_on_c, 1, 76, 30
2, 17022, Note_on_c, 1, 76, 0
2, 17024, Note_on_c, 1, 81, 30
2, 17054, Note_on_c, 1, 81, 0
2, 17056, Note_on_c, 1, 84, 30
2, 17086, Note_on_c, 1, 84, 0
2, 17088, Note_on_c, 1, 84, 30
2, 17118, Note_on_c, 1, 84, 0
2, 17120, Note_on_c, 1, 81, 30
2, 17150, Note_on_c, 1, 81, 0
2, 17152, Note_on_c, 1, 78, 30
2, 17182, Note_on_c, 1, 78, 0
2, 17184, Note_on_c, 1, 83, 30
2, 17214, Note_on_c, 1, 83, 0
2, 17216, Note_on_c, 1, 79, 30
2, 17246, Note_on_c, 1, 79, 0
2, 17248, Note_on_c, 1, 74, 30
2, 17278, Note_on_c, 1, 74, 0
2, 17280, Note_on_c, 1, 84, 30
2, 17376, Note_on_c, 1, 84, 0
2, 17376, Note_on_c, 1, 79, 52
2, 17472, Note_on_c, 1, 79, 0
2, 17472, Note_on_c, 1, 84, 75
2, 17566, Note_on_c, 1, 84, 0
2, 17568, Note_on_c, 1, 81, 60
2, 17600, Note_on_c, 1, 81, 0
2, 17664, Note_on_c, 1, 79, 45
2, 17952, Note_on_c, 1, 79, 0
2, 17952, Note_on_c, 1, 81, 45
2, 18000, Note_on_c, 1, 81, 0
2, 18000, Note_on_c, 1, 83, 45
2, 18046, Note_on_c, 1, 83, 0
2, 18048, Note_on_c, 1, 84, 45
2, 18144, Note_on_c, 1, 84, 0
2, 18144, Note_on_c, 1, 86, 48
2, 18240, Note_on_c, 1, 86, 0
2, 18240, Note_on_c, 1, 88, 51
2, 18272, Note_on_c, 1, 88, 0
2, 18336, Note_on_c, 1, 88, 55
2, 18368, Note_on_c, 1, 88, 0
2, 18432, Note_on_c, 1, 88, 59
2, 18528, Note_on_c, 1, 88, 0
2, 18528, Note_on_c, 1, 86, 63
2, 18624, Note_on_c, 1, 86, 0
2, 18624, Note_on_c, 1, 84, 67
2, 18720, Note_on_c, 1, 84, 0
2, 18720, Note_on_c, 1, 81, 71
2, 18814, Note_on_c, 1, 81, 0
2, 18816, Note_on_c, 1, 81, 30
2, 18864, Note_on_c, 1, 81, 0
2, 18864, Note_on_c, 1, 80, 30
2, 18910, Note_on_c, 1, 80, 0
2, 18912, Note_on_c, 1, 80, 30
2, 18944, Note_on_c, 1, 80, 0
2, 18960, Note_on_c, 1, 81, 30
2, 18992, Note_on_c, 1, 81, 0
2, 19008, Note_on_c, 1, 81, 30
2, 19056, Note_on_c, 1, 81, 0
2, 19056, Note_on_c, 1, 79, 30
2, 19102, Note_on_c, 1, 79, 0
2, 19104, Note_on_c, 1, 79, 30
2, 19136, Note_on_c, 1, 79, 0
2, 19152, Note_on_c, 1, 79, 30
2, 19184, Note_on_c, 1, 79, 0
2, 19200, Note_on_c, 1, 79, 30
2, 19248, Note_on_c, 1, 79, 0
2, 19248, Note_on_c, 1, 76, 30
2, 19294, Note_on_c, 1, 76, 0
2, 19296, Note_on_c, 1, 76, 30
2, 19328, Note_on_c, 1, 76, 0
2, 19344, Note_on_c, 1, 77, 30
2, 19376, Note_on_c, 1, 77, 0
2, 19392, Note_on_c, 1, 77, 30
2, 19424, Note_on_c, 1, 77, 0
2, 19440, Note_on_c, 1, 78, 30
2, 19472, Note_on_c, 1, 78, 0
2, 19488, Note_on_c, 1, 78, 30
2, 19520, Note_on_c, 1, 78, 0
2, 19536, Note_on_c, 1, 79, 30
2, 19568, Note_on_c, 1, 79, 0
2, 19584, Note_on_c, 1, 81, 30
2, 19616, Note_on_c, 1, 81, 0
2, 19616, Note_on_c, 1, 80, 30
2, 19646, Note_on_c, 1, 80, 0
2, 19648, Note_on_c, 1, 80, 30
2, 19669, Note_on_c, 1, 80, 0
2, 19680, Note_on_c, 1, 80, 30
2, 19712, Note_on_c, 1, 80, 0
2, 19712, Note_on_c, 1, 81, 30
2, 19742, Note_on_c, 1, 81, 0
2, 19744, Note_on_c, 1, 81, 30
2, 19765, Note_on_c, 1, 81, 0
2, 19776, Note_on_c, 1, 81, 30
2, 19808, Note_on_c, 1, 81, 0
2, 19808, Note_on_c, 1, 80, 30
2, 19838, Note_on_c, 1, 80, 0
2, 19840, Note_on_c, 1, 80, 30
2, 19861, Note_on_c, 1, 80, 0
2, 19872, Note_on_c, 1, 80, 30
2, 19904, Note_on_c, 1, 80, 0
2, 19904, Note_on_c, 1, 79, 30
2, 19934, Note_on_c, 1, 79, 0
2, 19936, Note_on_c, 1, 79, 30
2, 19957, Note_on_c, 1, 79, 0
2, 19968, Note_on_c, 1, 79, 30
2, 19998, Note_on_c, 1, 79, 0
2, 20000, Note_on_c, 1, 76, 32
2, 20030, Note_on_c, 1, 76, 0
2, 20032, Note_on_c, 1, 77, 34
2, 20062, Note_on_c, 1, 77, 0
2, 20064, Note_on_c, 1, 77, 36
2, 20094, Note_on_c, 1, 77, 0
2, 20096, Note_on_c, 1, 78, 39
2, 20126, Note_on_c, 1, 78, 0
2, 20128, Note_on_c, 1, 79, 42
2, 20158, Note_on_c, 1, 79, 0
2, 20160, Note_on_c, 1, 79, 45
2, 20192, Note_on_c, 1, 79, 0
2, 20192, Note_on_c, 1, 81, 45
2, 20224, Note_on_c, 1, 81, 0
2, 20224, Note_on_c, 1, 79, 45
2, 20256, Note_on_c, 1, 79, 0
2, 20256, Note_on_c, 1, 77, 45
2, 20288, Note_on_c, 1, 77, 0
2, 20288, Note_on_c, 1, 76, 45
2, 20320, Note_on_c, 1, 76, 0
2, 20320, Note_on_c, 1, 74, 45
2, 20350, Note_on_c, 1, 74, 0
2, 20352, Note_on_c, 1, 72, 45
2, 20544, Note_on_c, 1, 72, 0
2, 20544, Note_on_c, 1, 71, 60
2, 20576, Note_on_c, 1, 71, 0
2, 20576, Note_on_c, 1, 81, 62
2, 20608, Note_on_c, 1, 81, 0
2, 20608, Note_on_c, 1, 79, 64
2, 20640, Note_on_c, 1, 79, 0
2, 20640, Note_on_c, 1, 77, 66
2, 20672, Note_on_c, 1, 77, 0
2, 20672, Note_on_c, 1, 76, 69
2, 20704, Note_on_c, 1, 76, 0
2, 20704, Note_on_c, 1, 74, 72
2, 20734, Note_on_c, 1, 74, 0
2, 20736, Note_on_c, 1, 72, 45
2, 20768, Note_on_c, 1, 72, 0
2, 20832, Note_on_c, 1, 74, 45
2, 20864, Note_on_c, 1, 74, 0
2, 20928, Note_on_c, 1, 67, 45
2, 20960, Note_on_c, 1, 67, 0
2, 21152, Note_on_c, 1, 79, 47
2, 21184, Note_on_c, 1, 79, 0
2, 21184, Note_on_c, 1, 77, 49
2, 21216, Note_on_c, 1, 77, 0
2, 21216, Note_on_c, 1, 76, 51
2, 21248, Note_on_c, 1, 76, 0
2, 21248, Note_on_c, 1, 74, 53
2, 21280, Note_on_c, 1, 74, 0
2, 21280, Note_on_c, 1, 72, 55
2, 21312, Note_on_c, 1, 72, 0
2, 21312, Note_on_c, 1, 71, 57
2, 21344, Note_on_c, 1, 71, 0
2, 21344, Note_on_c, 1, 81, 59
2, 21376, Note_on_c, 1, 81, 0
2, 21376, Note_on_c, 1, 79, 61
2, 21408, Note_on_c, 1, 79, 0
2, 21408, Note_on_c, 1, 77, 63
2, 21440, Note_on_c, 1, 77, 0
2, 21440, Note_on_c, 1, 76, 65
2, 21472, Note_on_c, 1, 76, 0
2, 21472, Note_on_c, 1, 74, 67
2, 21502, Note_on_c, 1, 74, 0
2, 21504, Note_on_c, 1, 72, 69
2, 21536, Note_on_c, 1, 72, 0
2, 21600, Note_on_c, 1, 86, 76
2, 21632, Note_on_c, 1, 86, 0
2, 21696, Note_on_c, 1, 79, 84
2, 21728, Note_on_c, 1, 79, 0
2, 21792, Note_on_c, 1, 83, 92
2, 21824, Note_on_c, 1, 83, 0
2, 21888, Note_on_c, 1, 85, 92
2, 21920, Note_on_c, 1, 85, 0
2, 22152, Note_on_c, 1, 76, 45
2, 22176, Note_on_c, 1, 76, 0
2, 22224, Note_on_c, 1, 73, 45
2, 22272, Note_on_c, 1, 73, 0
2, 22272, Note_on_c, 1, 74, 45
2, 22366, Note_on_c, 1, 74, 0
2, 22560, Note_on_c, 1, 65, 45
2, 22656, Note_on_c, 1, 65, 0
2, 22656, Note_on_c, 1, 64, 45
2, 22750, Note_on_c, 1, 64, 0
2, 22920, Note_on_c, 1, 88, 45
2, 22944, Note_on_c, 1, 88, 0
2, 22944, Note_on_c, 1, 81, 45
2, 22992, Note_on_c, 1, 81, 0
2, 22992, Note_on_c, 1, 85, 45
2, 23040, Note_on_c, 1, 85, 0
2, 23040, Note_on_c, 1, 86, 45
2, 23134, Note_on_c, 1, 86, 0
2, 23328, Note_on_c, 1, 59, 45
2, 23424, Note_on_c, 1, 59, 0
2, 23424, Note_on_c, 1, 58, 45
2, 23518, Note_on_c, 1, 58, 0
2, 25152, Note_on_c, 1, 79, 45
2, 25344, Note_on_c, 1, 79, 0
2, 25344, Note_on_c, 1, 69, 45
2, 25504, Note_on_c, 1, 69, 0
2, 25536, Note_on_c, 1, 76, 45
2, 25728, Note_on_c, 1, 76, 0
2, 25728, Note_on_c, 1, 74, 45
2, 25888, Note_on_c, 1, 74, 0
2, 25920, Note_on_c, 1, 81, 45
2, 26112, Note_on_c, 1, 81, 0
2, 26112, Note_on_c, 1, 71, 45
2, 26272, Note_on_c, 1, 71, 0
2, 26304, Note_on_c, 1, 77, 45
2, 26496, Note_on_c, 1, 77, 0
2, 26496, Note_on_c, 1, 75, 45
2, 26656, Note_on_c, 1, 75, 0
2, 27296, Note_on_c, 1, 70, 45
2, 27326, Note_on_c, 1, 70, 0
2, 27328, Note_on_c, 1, 73, 45
2, 27358, Note_on_c, 1, 73, 0
2, 27360, Note_on_c, 1, 79, 45
2, 27390, Note_on_c, 1, 79, 0
2, 27392, Note_on_c, 1, 82, 45
2, 27422, Note_on_c, 1, 82, 0
2, 27424, Note_on_c, 1, 85, 45
2, 27454, Note_on_c, 1, 85, 0
2, 27456, Note_on_c, 1, 85, 45
2, 27550, Note_on_c, 1, 85, 0
2, 27648, Note_on_c, 1, 84, 45
2, 27672, Note_on_c, 1, 84, 0
2, 27672, Note_on_c, 1, 85, 45
2, 27696, Note_on_c, 1, 85, 0
2, 27696, Note_on_c, 1, 87, 45
2, 27840, Note_on_c, 1, 87, 0
2, 27840, Note_on_c, 1, 82, 45
2, 28008, Note_on_c, 1, 82, 0
2, 28008, Note_on_c, 1, 84, 45
2, 28030, Note_on_c, 1, 84, 0
2, 28032, Note_on_c, 1, 80, 45
2, 28192, Note_on_c, 1, 80, 0
2, 28832, Note_on_c, 1, 73, 45
2, 28862, Note_on_c, 1, 73, 0
2, 28864, Note_on_c, 1, 77, 45
2, 28894, Note_on_c, 1, 77, 0
2, 28896, Note_on_c, 1, 82, 45
2, 28926, Note_on_c, 1, 82, 0
2, 28928, Note_on_c, 1, 85, 45
2, 28958, Note_on_c, 1, 85, 0
2, 28960, Note_on_c, 1, 89, 45
2, 28990, Note_on_c, 1, 89, 0
2, 28992, Note_on_c, 1, 89, 45
2, 29086, Note_on_c, 1, 89, 0
2, 29184, Note_on_c, 1, 75, 45
2, 29376, Note_on_c, 1, 75, 0
2, 29376, Note_on_c, 1, 82, 45
2, 29536, Note_on_c, 1, 82, 0
2, 29568, Note_on_c, 1, 84, 45
2, 29592, Note_on_c, 1, 84, 0
2, 29592, Note_on_c, 1, 85, 45
2, 29616, Note_on_c, 1, 85, 0
2, 29616, Note_on_c, 1, 87, 45
2, 29760, Note_on_c, 1, 87, 0
2, 29760, Note_on_c, 1, 82, 56
2, 29928, Note_on_c, 1, 82, 0
2, 29928, Note_on_c, 1, 84, 66
2, 29950, Note_on_c, 1, 84, 0
2, 29952, Note_on_c, 1, 81, 67
2, 29976, Note_on_c, 1, 81, 0
2, 29976, Note_on_c, 1, 82, 67
2, 30000, Note_on_c, 1, 82, 0
2, 30000, Note_on_c, 1, 84, 67
2, 30142, Note_on_c, 1, 84, 0
2, 30144, Note_on_c, 1, 70, 79
2, 30144, Note_on_c, 1, 79, 79
2, 30312, Note_on_c, 1, 70, 0
2, 30312, Note_on_c, 1, 79, 0
2, 30312, Note_on_c, 1, 72, 90
2, 30312, Note_on_c, 1, 81, 90
2, 30334, Note_on_c, 1, 72, 0
2, 30334, Note_on_c, 1, 81, 0
2, 30336, Note_on_c, 1, 81, 92
2, 30382, Note_on_c, 1, 81, 0
2, 30408, Note_on_c, 1, 84, 92
2, 30432, Note_on_c, 1, 84, 0
2, 30432, Note_on_c, 1, 77, 92
2, 30480, Note_on_c, 1, 77, 0
2, 30480, Note_on_c, 1, 81, 92
2, 30528, Note_on_c, 1, 81, 0
2, 30528, Note_on_c, 1, 84, 92
2, 30560, Note_on_c, 1, 84, 0
2, 31368, Note_on_c, 1, 75, 45
2, 31392, Note_on_c, 1, 75, 0
2, 31392, Note_on_c, 1, 65, 45
2, 31440, Note_on_c, 1, 65, 0
2, 31440, Note_on_c, 1, 72, 45
2, 31486, Note_on_c, 1, 72, 0
2, 31488, Note_on_c, 1, 74, 45
2, 31560, Note_on_c, 1, 74, 0
2, 31560, Note_on_c, 1, 75, 57
2, 31582, Note_on_c, 1, 75, 0
2, 31584, Note_on_c, 1, 77, 61
2, 31750, Note_on_c, 1, 77, 0
2, 31752, Note_on_c, 1, 79, 92
2, 31776, Note_on_c, 1, 79, 0
2, 31776, Note_on_c, 1, 72, 92
2, 31824, Note_on_c, 1, 72, 0
2, 31824, Note_on_c, 1, 76, 92
2, 31872, Note_on_c, 1, 76, 0
2, 31872, Note_on_c, 1, 79, 92
2, 31904, Note_on_c, 1, 79, 0
2, 32136, Note_on_c, 1, 67, 45
2, 32160, Note_on_c, 1, 67, 0
2, 32160, Note_on_c, 1, 60, 45
2, 32208, Note_on_c, 1, 60, 0
2, 32208, Note_on_c, 1, 64, 45
2, 32254, Note_on_c, 1, 64, 0
2, 32256, Note_on_c, 1, 65, 45
2, 32302, Note_on_c, 1, 65, 0
2, 32328, Note_on_c, 1, 69, 45
2, 32352, Note_on_c, 1, 69, 0
2, 32400, Note_on_c, 1, 65, 45
2, 32446, Note_on_c, 1, 65, 0
2, 32448, Note_on_c, 1, 67, 45
2, 32494, Note_on_c, 1, 67, 0
2, 32520, Note_on_c, 1, 70, 45
2, 32544, Note_on_c, 1, 70, 0
2, 32544, Note_on_c, 1, 60, 45
2, 32592, Note_on_c, 1, 60, 0
2, 32592, Note_on_c, 1, 67, 45
2, 32638, Note_on_c, 1, 67, 0
2, 32640, Note_on_c, 1, 69, 45
2, 32712, Note_on_c, 1, 69, 0
2, 32712, Note_on_c, 1, 70, 45
2, 32734, Note_on_c, 1, 70, 0
2, 32736, Note_on_c, 1, 72, 45
2, 32896, Note_on_c, 1, 72, 0
2, 33024, Note_on_c, 1, 69, 45
2, 33096, Note_on_c, 1, 69, 0
2, 33096, Note_on_c, 1, 71, 45
2, 33118, Note_on_c, 1, 71, 0
2, 33120, Note_on_c, 1, 72, 45
2, 33280, Note_on_c, 1, 72, 0
2, 33408, Note_on_c, 1, 69, 45
2, 33480, Note_on_c, 1, 69, 0
2, 33480, Note_on_c, 1, 71, 45
2, 33502, Note_on_c, 1, 71, 0
2, 33504, Note_on_c, 1, 72, 45
2, 33598, Note_on_c, 1, 72, 0
2, 33600, Note_on_c, 1, 72, 45
2, 33672, Note_on_c, 1, 72, 0
2, 33672, Note_on_c, 1, 74, 45
2, 33694, Note_on_c, 1, 74, 0
2, 33696, Note_on_c, 1, 76, 45
2, 33790, Note_on_c, 1, 76, 0
2, 33792, Note_on_c, 1, 72, 45
2, 33822, Note_on_c, 1, 72, 0
2, 33824, Note_on_c, 1, 74, 45
2, 33854, Note_on_c, 1, 74, 0
2, 33856, Note_on_c, 1, 76, 45
2, 33886, Note_on_c, 1, 76, 0
2, 33888, Note_on_c, 1, 76, 45
2, 33918, Note_on_c, 1, 76, 0
2, 33920, Note_on_c, 1, 76, 45
2, 33950, Note_on_c, 1, 76, 0
2, 33952, Note_on_c, 1, 76, 45
2, 33982, Note_on_c, 1, 76, 0
2, 33984, Note_on_c, 1, 74, 45
2, 34014, Note_on_c, 1, 74, 0
2, 34016, Note_on_c, 1, 72, 45
2, 34046, Note_on_c, 1, 72, 0
2, 34048, Note_on_c, 1, 71, 45
2, 34078, Note_on_c, 1, 71, 0
2, 34080, Note_on_c, 1, 71, 45
2, 34110, Note_on_c, 1, 71, 0
2, 34112, Note_on_c, 1, 71, 45
2, 34142, Note_on_c, 1, 71, 0
2, 34144, Note_on_c, 1, 71, 45
2, 34174, Note_on_c, 1, 71, 0
2, 34176, Note_on_c, 1, 72, 45
2, 34206, Note_on_c, 1, 72, 0
2, 34208, Note_on_c, 1, 71, 45
2, 34238, Note_on_c, 1, 71, 0
2, 34240, Note_on_c, 1, 69, 45
2, 34270, Note_on_c, 1, 69, 0
2, 34272, Note_on_c, 1, 71, 45
2, 34302, Note_on_c, 1, 71, 0
2, 34304, Note_on_c, 1, 69, 45
2, 34334, Note_on_c, 1, 69, 0
2, 34336, Note_on_c, 1, 68, 45
2, 34366, Note_on_c, 1, 68, 0
2, 34368, Note_on_c, 1, 69, 45
2, 34398, Note_on_c, 1, 69, 0
2, 34400, Note_on_c, 1, 73, 45
2, 34430, Note_on_c, 1, 73, 0
2, 34432, Note_on_c, 1, 74, 45
2, 34462, Note_on_c, 1, 74, 0
2, 34464, Note_on_c, 1, 76, 45
2, 34494, Note_on_c, 1, 76, 0
2, 34496, Note_on_c, 1, 77, 45
2, 34526, Note_on_c, 1, 77, 0
2, 34528, Note_on_c, 1, 79, 45
2, 34558, Note_on_c, 1, 79, 0
2, 34560, Note_on_c, 1, 77, 45
2, 34592, Note_on_c, 1, 77, 0
2, 34656, Note_on_c, 1, 86, 45
2, 34688, Note_on_c, 1, 86, 0
2, 34752, Note_on_c, 1, 81, 45
2, 34784, Note_on_c, 1, 81, 0
2, 34848, Note_on_c, 1, 85, 45
2, 34880, Note_on_c, 1, 85, 0
2, 34944, Note_on_c, 1, 86, 45
2, 34976, Note_on_c, 1, 86, 0
2, 35040, Note_on_c, 1, 81, 45
2, 35072, Note_on_c, 1, 81, 0
2, 35136, Note_on_c, 1, 86, 45
2, 35168, Note_on_c, 1, 86, 0
2, 35424, Note_on_c, 1, 83, 45
2, 35448, Note_on_c, 1, 83, 0
2, 35448, Note_on_c, 1, 84, 45
2, 35472, Note_on_c, 1, 84, 0
2, 35472, Note_on_c, 1, 86, 45
2, 35504, Note_on_c, 1, 86, 0
2, 35616, Note_on_c, 1, 81, 45
2, 35640, Note_on_c, 1, 81, 0
2, 35640, Note_on_c, 1, 84, 45
2, 35664, Note_on_c, 1, 84, 0
2, 35664, Note_on_c, 1, 86, 45
2, 35696, Note_on_c, 1, 86, 0
2, 35808, Note_on_c, 1, 74, 45
2, 35832, Note_on_c, 1, 74, 0
2, 35832, Note_on_c, 1, 84, 45
2, 35856, Note_on_c, 1, 84, 0
2, 35856, Note_on_c, 1, 86, 45
2, 35888, Note_on_c, 1, 86, 0
2, 36000, Note_on_c, 1, 74, 45
2, 36024, Note_on_c, 1, 74, 0
2, 36024, Note_on_c, 1, 83, 45
2, 36048, Note_on_c, 1, 83, 0
2, 36048, Note_on_c, 1, 86, 45
2, 36080, Note_on_c, 1, 86, 0
2, 36096, Note_on_c, 1, 83, 45
2, 36126, Note_on_c, 1, 83, 0
2, 36128, Note_on_c, 1, 81, 45
2, 36158, Note_on_c, 1, 81, 0
2, 36160, Note_on_c, 1, 79, 45
2, 36190, Note_on_c, 1, 79, 0
2, 36192, Note_on_c, 1, 78, 45
2, 36222, Note_on_c, 1, 78, 0
2, 36224, Note_on_c, 1, 79, 45
2, 36254, Note_on_c, 1, 79, 0
2, 36256, Note_on_c, 1, 81, 45
2, 36286, Note_on_c, 1, 81, 0
2, 36288, Note_on_c, 1, 79, 45
2, 36318, Note_on_c, 1, 79, 0
2, 36320, Note_on_c, 1, 81, 45
2, 36350, Note_on_c, 1, 81, 0
2, 36352, Note_on_c, 1, 83, 45
2, 36382, Note_on_c, 1, 83, 0
2, 36384, Note_on_c, 1, 83, 45
2, 36414, Note_on_c, 1, 83, 0
2, 36416, Note_on_c, 1, 81, 45
2, 36446, Note_on_c, 1, 81, 0
2, 36448, Note_on_c, 1, 79, 45
2, 36478, Note_on_c, 1, 79, 0
2, 36480, Note_on_c, 1, 86, 45
2, 36510, Note_on_c, 1, 86, 0
2, 36512, Note_on_c, 1, 84, 45
2, 36542, Note_on_c, 1, 84, 0
2, 36544, Note_on_c, 1, 83, 45
2, 36574, Note_on_c, 1, 83, 0
2, 36576, Note_on_c, 1, 81, 45
2, 36606, Note_on_c, 1, 81, 0
2, 36608, Note_on_c, 1, 83, 45
2, 36638, Note_on_c, 1, 83, 0
2, 36640, Note_on_c, 1, 84, 45
2, 36670, Note_on_c, 1, 84, 0
2, 36672, Note_on_c, 1, 83, 45
2, 36702, Note_on_c, 1, 83, 0
2, 36704, Note_on_c, 1, 84, 45
2, 36734, Note_on_c, 1, 84, 0
2, 36736, Note_on_c, 1, 86, 45
2, 36766, Note_on_c, 1, 86, 0
2, 36768, Note_on_c, 1, 86, 45
2, 36798, Note_on_c, 1, 86, 0
2, 36800, Note_on_c, 1, 84, 45
2, 36830, Note_on_c, 1, 84, 0
2, 36832, Note_on_c, 1, 83, 45
2, 36862, Note_on_c, 1, 83, 0
2, 36864, Note_on_c, 1, 67, 45
2, 36894, Note_on_c, 1, 67, 0
2, 36896, Note_on_c, 1, 62, 45
2, 36926, Note_on_c, 1, 62, 0
2, 36928, Note_on_c, 1, 64, 45
2, 36958, Note_on_c, 1, 64, 0
2, 36960, Note_on_c, 1, 65, 45
2, 36990, Note_on_c, 1, 65, 0
2, 36992, Note_on_c, 1, 64, 45
2, 37022, Note_on_c, 1, 64, 0
2, 37024, Note_on_c, 1, 62, 45
2, 37054, Note_on_c, 1, 62, 0
2, 37056, Note_on_c, 1, 64, 45
2, 37086, Note_on_c, 1, 64, 0
2, 37088, Note_on_c, 1, 62, 45
2, 37118, Note_on_c, 1, 62, 0
2, 37120, Note_on_c, 1, 60, 45
2, 37150, Note_on_c, 1, 60, 0
2, 37152, Note_on_c, 1, 60, 45
2, 37182, Note_on_c, 1, 60, 0
2, 37184, Note_on_c, 1, 62, 45
2, 37214, Note_on_c, 1, 62, 0
2, 37216, Note_on_c, 1, 64, 45
2, 37246, Note_on_c, 1, 64, 0
2, 37248, Note_on_c, 1, 79, 45
2, 37278, Note_on_c, 1, 79, 0
2, 37280, Note_on_c, 1, 77, 45
2, 37310, Note_on_c, 1, 77, 0
2, 37312, Note_on_c, 1, 76, 45
2, 37342, Note_on_c, 1, 76, 0
2, 37344, Note_on_c, 1, 74, 45
2, 37374, Note_on_c, 1, 74, 0
2, 37376, Note_on_c, 1, 76, 45
2, 37406, Note_on_c, 1, 76, 0
2, 37408, Note_on_c, 1, 77, 45
2, 37438, Note_on_c, 1, 77, 0
2, 37440, Note_on_c, 1, 76, 45
2, 37470, Note_on_c, 1, 76, 0
2, 37472, Note_on_c, 1, 77, 45
2, 37502, Note_on_c, 1, 77, 0
2, 37504, Note_on_c, 1, 79, 45
2, 37534, Note_on_c, 1, 79, 0
2, 37536, Note_on_c, 1, 79, 45
2, 37566, Note_on_c, 1, 79, 0
2, 37568, Note_on_c, 1, 77, 45
2, 37598, Note_on_c, 1, 77, 0
2, 37600, Note_on_c, 1, 76, 45
2, 37630, Note_on_c, 1, 76, 0
2, 37632, Note_on_c, 1, 88, 45
2, 37662, Note_on_c, 1, 88, 0
2, 37664, Note_on_c, 1, 86, 46
2, 37694, Note_on_c, 1, 86, 0
2, 37696, Note_on_c, 1, 84, 48
2, 37726, Note_on_c, 1, 84, 0
2, 37728, Note_on_c, 1, 83, 50
2, 37758, Note_on_c, 1, 83, 0
2, 37760, Note_on_c, 1, 84, 52
2, 37790, Note_on_c, 1, 84, 0
2, 37792, Note_on_c, 1, 86, 54
2, 37822, Note_on_c, 1, 86, 0
2, 37824, Note_on_c, 1, 84, 56
2, 37854, Note_on_c, 1, 84, 0
2, 37856, Note_on_c, 1, 86, 58
2, 37886, Note_on_c, 1, 86, 0
2, 37888, Note_on_c, 1, 88, 60
2, 37918, Note_on_c, 1, 88, 0
2, 37920, Note_on_c, 1, 88, 62
2, 37950, Note_on_c, 1, 88, 0
2, 37952, Note_on_c, 1, 86, 64
2, 37982, Note_on_c, 1, 86, 0
2, 37984, Note_on_c, 1, 84, 66
2, 38014, Note_on_c, 1, 84, 0
2, 38016, Note_on_c, 1, 91, 68
2, 38046, Note_on_c, 1, 91, 0
2, 38048, Note_on_c, 1, 89, 70
2, 38078, Note_on_c, 1, 89, 0
2, 38080, Note_on_c, 1, 88, 72
2, 38110, Note_on_c, 1, 88, 0
2, 38112, Note_on_c, 1, 86, 74
2, 38142, Note_on_c, 1, 86, 0
2, 38144, Note_on_c, 1, 88, 76
2, 38174, Note_on_c, 1, 88, 0
2, 38176, Note_on_c, 1, 89, 78
2, 38206, Note_on_c, 1, 89, 0
2, 38208, Note_on_c, 1, 88, 80
2, 38238, Note_on_c, 1, 88, 0
2, 38240, Note_on_c, 1, 89, 82
2, 38270, Note_on_c, 1, 89, 0
2, 38272, Note_on_c, 1, 91, 84
2, 38302, Note_on_c, 1, 91, 0
2, 38304, Note_on_c, 1, 91, 86
2, 38334, Note_on_c, 1, 91, 0
2, 38336, Note_on_c, 1, 93, 88
2, 38366, Note_on_c, 1, 93, 0
2, 38368, Note_on_c, 1, 94, 90
2, 38398, Note_on_c, 1, 94, 0
2, 38400, Note_on_c, 1, 94, 92
2, 38494, Note_on_c, 1, 94, 0
2, 38592, Note_on_c, 1, 82, 127
2, 38880, Note_on_c, 1, 82, 0
2, 38880, Note_on_c, 1, 77, 92
2, 38952, Note_on_c, 1, 77, 0
2, 38952, Note_on_c, 1, 79, 92
2, 38976, Note_on_c, 1, 79, 0
2, 38976, Note_on_c, 1, 76, 92
2, 39070, Note_on_c, 1, 76, 0
2, 39432, Note_on_c, 1, 67, 45
2, 39456, Note_on_c, 1, 67, 0
2, 39456, Note_on_c, 1, 60, 45
2, 39504, Note_on_c, 1, 60, 0
2, 39504, Note_on_c, 1, 64, 45
2, 39552, Note_on_c, 1, 64, 0
2, 39552, Note_on_c, 1, 65, 45
2, 39584, Note_on_c, 1, 65, 0
2, 39624, Note_on_c, 1, 69, 45
2, 39648, Note_on_c, 1, 69, 0
2, 39648, Note_on_c, 1, 60, 45
2, 39696, Note_on_c, 1, 60, 0
2, 39696, Note_on_c, 1, 65, 45
2, 39744, Note_on_c, 1, 65, 0
2, 39744, Note_on_c, 1, 67, 45
2, 39776, Note_on_c, 1, 67, 0
2, 39816, Note_on_c, 1, 70, 45
2, 39840, Note_on_c, 1, 70, 0
2, 39840, Note_on_c, 1, 60, 45
2, 39888, Note_on_c, 1, 60, 0
2, 39888, Note_on_c, 1, 67, 45
2, 39934, Note_on_c, 1, 67, 0
2, 39936, Note_on_c, 1, 69, 45
2, 40008, Note_on_c, 1, 69, 0
2, 40008, Note_on_c, 1, 70, 45
2, 40030, Note_on_c, 1, 70, 0
2, 40032, Note_on_c, 1, 72, 45
2, 40174, Note_on_c, 1, 72, 0
2, 40176, Note_on_c, 1, 77, 45
2, 40224, Note_on_c, 1, 77, 0
2, 40224, Note_on_c, 1, 76, 45
2, 40272, Note_on_c, 1, 76, 0
2, 40272, Note_on_c, 1, 74, 45
2, 40320, Note_on_c, 1, 74, 0
2, 40320, Note_on_c, 1, 72, 45
2, 40352, Note_on_c, 1, 72, 0
2, 40368, Note_on_c, 1, 74, 45
2, 40416, Note_on_c, 1, 74, 0
2, 40416, Note_on_c, 1, 70, 45
2, 40464, Note_on_c, 1, 70, 0
2, 40464, Note_on_c, 1, 67, 45
2, 40512, Note_on_c, 1, 67, 0
2, 40512, Note_on_c, 1, 65, 45
2, 40544, Note_on_c, 1, 65, 0
2, 40560, Note_on_c, 1, 67, 45
2, 40608, Note_on_c, 1, 67, 0
2, 40608, Note_on_c, 1, 64, 45
2, 40656, Note_on_c, 1, 64, 0
2, 40656, Note_on_c, 1, 60, 45
2, 40702, Note_on_c, 1, 60, 0
2, 40704, Note_on_c, 1, 69, 45
2, 40776, Note_on_c, 1, 69, 0
2, 40776, Note_on_c, 1, 70, 49
2, 40798, Note_on_c, 1, 70, 0
2, 40800, Note_on_c, 1, 72, 50
2, 40960, Note_on_c, 1, 72, 0
2, 41160, Note_on_c, 1, 86, 45
2, 41184, Note_on_c, 1, 86, 0
2, 41184, Note_on_c, 1, 82, 45
2, 41232, Note_on_c, 1, 82, 0
2, 41232, Note_on_c, 1, 79, 45
2, 41280, Note_on_c, 1, 79, 0
2, 41280, Note_on_c, 1, 77, 45
2, 41312, Note_on_c, 1, 77, 0
2, 41352, Note_on_c, 1, 79, 45
2, 41376, Note_on_c, 1, 79, 0
2, 41376, Note_on_c, 1, 76, 45
2, 41424, Note_on_c, 1, 76, 0
2, 41424, Note_on_c, 1, 72, 45
2, 41472, Note_on_c, 1, 72, 0
2, 41472, Note_on_c, 1, 77, 45
2, 41566, Note_on_c, 1, 77, 0
2, 41664, Note_on_c, 1, 71, 45
2, 41760, Note_on_c, 1, 71, 0
2, 41760, Note_on_c, 1, 72, 45
2, 41856, Note_on_c, 1, 72, 0
2, 41856, Note_on_c, 1, 61, 45
2, 41952, Note_on_c, 1, 61, 0
2, 41952, Note_on_c, 1, 62, 45
2, 42048, Note_on_c, 1, 62, 0
2, 42048, Note_on_c, 1, 69, 45
2, 42144, Note_on_c, 1, 69, 0
2, 42144, Note_on_c, 1, 70, 45
2, 42240, Note_on_c, 1, 70, 0
2, 42240, Note_on_c, 1, 69, 45
2, 42336, Note_on_c, 1, 69, 0
2, 42336, Note_on_c, 1, 67, 45
2, 42432, Note_on_c, 1, 67, 0
2, 42432, Note_on_c, 1, 73, 45
2, 42528, Note_on_c, 1, 73, 0
2, 42528, Note_on_c, 1, 74, 45
2, 42624, Note_on_c, 1, 74, 0
2, 42624, Note_on_c, 1, 63, 45
2, 42720, Note_on_c, 1, 63, 0
2, 42720, Note_on_c, 1, 64, 45
2, 42816, Note_on_c, 1, 64, 0
2, 42816, Note_on_c, 1, 72, 45
2, 42912, Note_on_c, 1, 72, 0
2, 42912, Note_on_c, 1, 70, 45
2, 43006, Note_on_c, 1, 70, 0
2, 43008, Note_on_c, 1, 70, 45
2, 43104, Note_on_c, 1, 70, 0
2, 43104, Note_on_c, 1, 69, 45
2, 43198, Note_on_c, 1, 69, 0
2, 43968, Note_on_c, 1, 78, 45
2, 44064, Note_on_c, 1, 78, 0
2, 44064, Note_on_c, 1, 79, 45
2, 44160, Note_on_c, 1, 79, 0
2, 44160, Note_on_c, 1, 68, 45
2, 44256, Note_on_c, 1, 68, 0
2, 44256, Note_on_c, 1, 69, 45
2, 44352, Note_on_c, 1, 69, 0
2, 44352, Note_on_c, 1, 77, 45
2, 44448, Note_on_c, 1, 77, 0
2, 44448, Note_on_c, 1, 75, 45
2, 44542, Note_on_c, 1, 75, 0
2, 44544, Note_on_c, 1, 75, 45
2, 44640, Note_on_c, 1, 75, 0
2, 44640, Note_on_c, 1, 74, 45
2, 44734, Note_on_c, 1, 74, 0
2, 44736, Note_on_c, 1, 77, 45
2, 44832, Note_on_c, 1, 77, 0
2, 44832, Note_on_c, 1, 75, 48
2, 44926, Note_on_c, 1, 75, 0
2, 44928, Note_on_c, 1, 75, 51
2, 45024, Note_on_c, 1, 75, 0
2, 45024, Note_on_c, 1, 74, 54
2, 45120, Note_on_c, 1, 74, 0
2, 45120, Note_on_c, 1, 84, 57
2, 45216, Note_on_c, 1, 84, 0
2, 45216, Note_on_c, 1, 82, 60
2, 45312, Note_on_c, 1, 82, 0
2, 45312, Note_on_c, 1, 81, 63
2, 45408, Note_on_c, 1, 81, 0
2, 45408, Note_on_c, 1, 79, 66
2, 45536, Note_on_c, 1, 79, 0
2, 45536, Note_on_c, 1, 77, 70
2, 45568, Note_on_c, 1, 77, 0
2, 45568, Note_on_c, 1, 75, 71
2, 45600, Note_on_c, 1, 75, 0
2, 45600, Note_on_c, 1, 74, 72
2, 45632, Note_on_c, 1, 74, 0
2, 45632, Note_on_c, 1, 72, 73
2, 45664, Note_on_c, 1, 72, 0
2, 45664, Note_on_c, 1, 75, 74
2, 45694, Note_on_c, 1, 75, 0
2, 45696, Note_on_c, 1, 70, 75
2, 45728, Note_on_c, 1, 70, 0
2, 45728, Note_on_c, 1, 69, 76
2, 45760, Note_on_c, 1, 69, 0
2, 45760, Note_on_c, 1, 72, 77
2, 45792, Note_on_c, 1, 72, 0
2, 45792, Note_on_c, 1, 65, 78
2, 45824, Note_on_c, 1, 65, 0
2, 45824, Note_on_c, 1, 69, 79
2, 45856, Note_on_c, 1, 69, 0
2, 45856, Note_on_c, 1, 70, 80
2, 45888, Note_on_c, 1, 70, 0
2, 45888, Note_on_c, 1, 72, 81
2, 45920, Note_on_c, 1, 72, 0
2, 45920, Note_on_c, 1, 74, 82
2, 45952, Note_on_c, 1, 74, 0
2, 45952, Note_on_c, 1, 75, 84
2, 45984, Note_on_c, 1, 75, 0
2, 45984, Note_on_c, 1, 77, 86
2, 46016, Note_on_c, 1, 77, 0
2, 46016, Note_on_c, 1, 79, 88
2, 46048, Note_on_c, 1, 79, 0
2, 46048, Note_on_c, 1, 81, 90
2, 46078, Note_on_c, 1, 81, 0
2, 46080, Note_on_c, 1, 82, 92
2, 46112, Note_on_c, 1, 82, 0
2, 46176, Note_on_c, 1, 81, 45
2, 46248, Note_on_c, 1, 81, 0
2, 46248, Note_on_c, 1, 84, 45
2, 46270, Note_on_c, 1, 84, 0
2, 46272, Note_on_c, 1, 82, 45
2, 46304, Note_on_c, 1, 82, 0
2, 46368, Note_on_c, 1, 82, 45
2, 46400, Note_on_c, 1, 82, 0
2, 46464, Note_on_c, 1, 82, 45
2, 46942, Note_on_c, 1, 82, 0
2, 46944, Note_on_c, 1, 79, 45
2, 47016, Note_on_c, 1, 79, 0
2, 47016, Note_on_c, 1, 82, 45
2, 47038, Note_on_c, 1, 82, 0
2, 47040, Note_on_c, 1, 81, 45
2, 47072, Note_on_c, 1, 81, 0
2, 47136, Note_on_c, 1, 80, 45
2, 47168, Note_on_c, 1, 80, 0
2, 47232, Note_on_c, 1, 74, 45
2, 47424, Note_on_c, 1, 74, 0
2, 47424, Note_on_c, 1, 79, 45
2, 47584, Note_on_c, 1, 79, 0
2, 47616, Note_on_c, 1, 72, 45
2, 47854, Note_on_c, 1, 72, 0
2, 47856, Note_on_c, 1, 77, 45
2, 47904, Note_on_c, 1, 77, 0
2, 47904, Note_on_c, 1, 76, 45
2, 47952, Note_on_c, 1, 76, 0
2, 47952, Note_on_c, 1, 77, 45
2, 48000, Note_on_c, 1, 77, 0
2, 48000, Note_on_c, 1, 72, 45
2, 48032, Note_on_c, 1, 72, 0
2, 48048, Note_on_c, 1, 74, 45
2, 48096, Note_on_c, 1, 74, 0
2, 48096, Note_on_c, 1, 69, 45
2, 48144, Note_on_c, 1, 69, 0
2, 48144, Note_on_c, 1, 70, 45
2, 48192, Note_on_c, 1, 70, 0
2, 48192, Note_on_c, 1, 69, 45
2, 48224, Note_on_c, 1, 69, 0
2, 48240, Note_on_c, 1, 70, 45
2, 48288, Note_on_c, 1, 70, 0
2, 48288, Note_on_c, 1, 65, 45
2, 48336, Note_on_c, 1, 65, 0
2, 48336, Note_on_c, 1, 67, 45
2, 48382, Note_on_c, 1, 67, 0
2, 48384, Note_on_c, 1, 69, 45
2, 48430, Note_on_c, 1, 69, 0
2, 48432, Note_on_c, 1, 69, 45
2, 48478, Note_on_c, 1, 69, 0
2, 48480, Note_on_c, 1, 69, 45
2, 48526, Note_on_c, 1, 69, 0
2, 48528, Note_on_c, 1, 69, 45
2, 48574, Note_on_c, 1, 69, 0
2, 48576, Note_on_c, 1, 69, 45
2, 48670, Note_on_c, 1, 69, 0
2, 49008, Note_on_c, 1, 69, 45
2, 49056, Note_on_c, 1, 69, 0
2, 49056, Note_on_c, 1, 65, 45
2, 49104, Note_on_c, 1, 65, 0
2, 49104, Note_on_c, 1, 67, 45
2, 49150, Note_on_c, 1, 67, 0
2, 49152, Note_on_c, 1, 67, 45
2, 49200, Note_on_c, 1, 67, 0
2, 49200, Note_on_c, 1, 64, 45
2, 49248, Note_on_c, 1, 64, 0
2, 49248, Note_on_c, 1, 67, 45
2, 49294, Note_on_c, 1, 67, 0
2, 49296, Note_on_c, 1, 67, 45
2, 49328, Note_on_c, 1, 67, 0
2, 49344, Note_on_c, 1, 67, 45
2, 49392, Note_on_c, 1, 67, 0
2, 49392, Note_on_c, 1, 64, 45
2, 49440, Note_on_c, 1, 64, 0
2, 49440, Note_on_c, 1, 72, 45
2, 49486, Note_on_c, 1, 72, 0
2, 49512, Note_on_c, 1, 72, 45
2, 49528, Note_on_c, 1, 72, 0
2, 49536, Note_on_c, 1, 72, 45
2, 49728, Note_on_c, 1, 72, 0
2, 49728, Note_on_c, 1, 71, 45
2, 49888, Note_on_c, 1, 71, 0
2, 49968, Note_on_c, 1, 60, 45
2, 50016, Note_on_c, 1, 60, 0
2, 50016, Note_on_c, 1, 67, 45
2, 50062, Note_on_c, 1, 67, 0
2, 50064, Note_on_c, 1, 67, 45
2, 50096, Note_on_c, 1, 67, 0
2, 50112, Note_on_c, 1, 67, 45
2, 50160, Note_on_c, 1, 67, 0
2, 50160, Note_on_c, 1, 60, 45
2, 50208, Note_on_c, 1, 60, 0
2, 50208, Note_on_c, 1, 70, 45
2, 50254, Note_on_c, 1, 70, 0
2, 50280, Note_on_c, 1, 70, 45
2, 50296, Note_on_c, 1, 70, 0
2, 50304, Note_on_c, 1, 70, 45
2, 50496, Note_on_c, 1, 70, 0
2, 50496, Note_on_c, 1, 69, 45
2, 50734, Note_on_c, 1, 69, 0
2, 50736, Note_on_c, 1, 57, 47
2, 50784, Note_on_c, 1, 57, 0
2, 50784, Note_on_c, 1, 69, 49
2, 50830, Note_on_c, 1, 69, 0
2, 50832, Note_on_c, 1, 69, 51
2, 50864, Note_on_c, 1, 69, 0
2, 50880, Note_on_c, 1, 69, 53
2, 50912, Note_on_c, 1, 69, 0
2, 50928, Note_on_c, 1, 69, 55
2, 50976, Note_on_c, 1, 69, 0
2, 50976, Note_on_c, 1, 81, 57
2, 51022, Note_on_c, 1, 81, 0
2, 51048, Note_on_c, 1, 81, 61
2, 51064, Note_on_c, 1, 81, 0
2, 51072, Note_on_c, 1, 81, 62
2, 51312, Note_on_c, 1, 81, 0
2, 51312, Note_on_c, 1, 79, 68
2, 51360, Note_on_c, 1, 79, 0
2, 51360, Note_on_c, 1, 88, 61
2, 51408, Note_on_c, 1, 88, 0
2, 51408, Note_on_c, 1, 86, 53
2, 51454, Note_on_c, 1, 86, 0
2, 51456, Note_on_c, 1, 79, 45
2, 51504, Note_on_c, 1, 79, 0
2, 51504, Note_on_c, 1, 77, 45
2, 51550, Note_on_c, 1, 77, 0
2, 51552, Note_on_c, 1, 86, 45
2, 51600, Note_on_c, 1, 86, 0
2, 51600, Note_on_c, 1, 84, 45
2, 51646, Note_on_c, 1, 84, 0
2, 51648, Note_on_c, 1, 77, 45
2, 51696, Note_on_c, 1, 77, 0
2, 51696, Note_on_c, 1, 76, 45
2, 51742, Note_on_c, 1, 76, 0
2, 51744, Note_on_c, 1, 86, 45
2, 51792, Note_on_c, 1, 86, 0
2, 51792, Note_on_c, 1, 84, 45
2, 51838, Note_on_c, 1, 84, 0
2, 51840, Note_on_c, 1, 84, 45
2, 52318, Note_on_c, 1, 84, 0
2, 52320, Note_on_c, 1, 88, 63
2, 52352, Note_on_c, 1, 88, 0
2, 52416, Note_on_c, 1, 91, 67
2, 52448, Note_on_c, 1, 91, 0
2, 52512, Note_on_c, 1, 94, 71
2, 52544, Note_on_c, 1, 94, 0
2, 52608, Note_on_c, 1, 72, 45
2, 52640, Note_on_c, 1, 72, 0
2, 52704, Note_on_c, 1, 76, 50
2, 52736, Note_on_c, 1, 76, 0
2, 52800, Note_on_c, 1, 79, 56
2, 52832, Note_on_c, 1, 79, 0
2, 52896, Note_on_c, 1, 82, 62
2, 52928, Note_on_c, 1, 82, 0
2, 52992, Note_on_c, 1, 81, 68
2, 53024, Note_on_c, 1, 81, 0
2, 53088, Note_on_c, 1, 84, 74
2, 53120, Note_on_c, 1, 84, 0
2, 53184, Note_on_c, 1, 89, 112
2, 53632, Note_on_c, 1, 89, 0
2, 53664, Note_on_c, 1, 86, 92
2, 53694, Note_on_c, 1, 86, 0
2, 53696, Note_on_c, 1, 84, 92
2, 53726, Note_on_c, 1, 84, 0
2, 53728, Note_on_c, 1, 82, 92
2, 53758, Note_on_c, 1, 82, 0
2, 53760, Note_on_c, 1, 87, 92
2, 53790, Note_on_c, 1, 87, 0
2, 53792, Note_on_c, 1, 84, 92
2, 53822, Note_on_c, 1, 84, 0
2, 53824, Note_on_c, 1, 81, 92
2, 53854, Note_on_c, 1, 81, 0
2, 53856, Note_on_c, 1, 75, 92
2, 53886, Note_on_c, 1, 75, 0
2, 53888, Note_on_c, 1, 72, 92
2, 53918, Note_on_c, 1, 72, 0
2, 53920, Note_on_c, 1, 69, 92
2, 53950, Note_on_c, 1, 69, 0
2, 53952, Note_on_c, 1, 65, 92
2, 54046, Note_on_c, 1, 65, 0
2, 54144, Note_on_c, 1, 77, 92
2, 54176, Note_on_c, 1, 77, 0
2, 54240, Note_on_c, 1, 81, 92
2, 54272, Note_on_c, 1, 81, 0
2, 54336, Note_on_c, 1, 84, 92
2, 54368, Note_on_c, 1, 84, 0
2, 54432, Note_on_c, 1, 87, 92
2, 54464, Note_on_c, 1, 87, 0
2, 54528, Note_on_c, 1, 86, 92
2, 54560, Note_on_c, 1, 86, 0
2, 54624, Note_on_c, 1, 89, 92
2, 54656, Note_on_c, 1, 89, 0
2, 54720, Note_on_c, 1, 94, 127
2, 54942, Note_on_c, 1, 94, 0
2, 54944, Note_on_c, 1, 79, 92
2, 54974, Note_on_c, 1, 79, 0
2, 54976, Note_on_c, 1, 76, 92
2, 55006, Note_on_c, 1, 76, 0
2, 55008, Note_on_c, 1, 70, 92
2, 55038, Note_on_c, 1, 70, 0
2, 55040, Note_on_c, 1, 67, 92
2, 55070, Note_on_c, 1, 67, 0
2, 55072, Note_on_c, 1, 64, 92
2, 55102, Note_on_c, 1, 64, 0
2, 55104, Note_on_c, 1, 58, 92
2, 55134, Note_on_c, 1, 58, 0
2, 55136, Note_on_c, 1, 64, 82
2, 55166, Note_on_c, 1, 64, 0
2, 55168, Note_on_c, 1, 67, 72
2, 55198, Note_on_c, 1, 67, 0
2, 55200, Note_on_c, 1, 70, 62
2, 55230, Note_on_c, 1, 70, 0
2, 55232, Note_on_c, 1, 76, 52
2, 55262, Note_on_c, 1, 76, 0
2, 55264, Note_on_c, 1, 79, 41
2, 55294, Note_on_c, 1, 79, 0
2, 55296, Note_on_c, 1, 82, 30
2, 55326, Note_on_c, 1, 82, 0
2, 55328, Note_on_c, 1, 79, 30
2, 55358, Note_on_c, 1, 79, 0
2, 55360, Note_on_c, 1, 76, 30
2, 55390, Note_on_c, 1, 76, 0
2, 55392, Note_on_c, 1, 72, 30
2, 55422, Note_on_c, 1, 72, 0
2, 55424, Note_on_c, 1, 77, 30
2, 55454, Note_on_c, 1, 77, 0
2, 55456, Note_on_c, 1, 81, 30
2, 55486, Note_on_c, 1, 81, 0
2, 55488, Note_on_c, 1, 81, 30
2, 55518, Note_on_c, 1, 81, 0
2, 55520, Note_on_c, 1, 77, 30
2, 55550, Note_on_c, 1, 77, 0
2, 55552, Note_on_c, 1, 74, 30
2, 55582, Note_on_c, 1, 74, 0
2, 55584, Note_on_c, 1, 70, 30
2, 55614, Note_on_c, 1, 70, 0
2, 55616, Note_on_c, 1, 75, 30
2, 55646, Note_on_c, 1, 75, 0
2, 55648, Note_on_c, 1, 79, 30
2, 55678, Note_on_c, 1, 79, 0
2, 55680, Note_on_c, 1, 79, 30
2, 55710, Note_on_c, 1, 79, 0
2, 55712, Note_on_c, 1, 76, 30
2, 55742, Note_on_c, 1, 76, 0
2, 55744, Note_on_c, 1, 73, 30
2, 55774, Note_on_c, 1, 73, 0
2, 55776, Note_on_c, 1, 69, 30
2, 55806, Note_on_c, 1, 69, 0
2, 55808, Note_on_c, 1, 74, 30
2, 55838, Note_on_c, 1, 74, 0
2, 55840, Note_on_c, 1, 77, 30
2, 55870, Note_on_c, 1, 77, 0
2, 55872, Note_on_c, 1, 77, 30
2, 55902, Note_on_c, 1, 77, 0
2, 55904, Note_on_c, 1, 74, 30
2, 55934, Note_on_c, 1, 74, 0
2, 55936, Note_on_c, 1, 71, 30
2, 55966, Note_on_c, 1, 71, 0
2, 55968, Note_on_c, 1, 76, 30
2, 55998, Note_on_c, 1, 76, 0
2, 56000, Note_on_c, 1, 72, 30
2, 56030, Note_on_c, 1, 72, 0
2, 56032, Note_on_c, 1, 67, 30
2, 56062, Note_on_c, 1, 67, 0
2, 56064, Note_on_c, 1, 77, 30
2, 56160, Note_on_c, 1, 77, 0
2, 56160, Note_on_c, 1, 72, 52
2, 56256, Note_on_c, 1, 72, 0
2, 56256, Note_on_c, 1, 77, 75
2, 56350, Note_on_c, 1, 77, 0
2, 56352, Note_on_c, 1, 74, 60
2, 56384, Note_on_c, 1, 74, 0
2, 56448, Note_on_c, 1, 72, 45
2, 56736, Note_on_c, 1, 72, 0
2, 56736, Note_on_c, 1, 74, 45
2, 56784, Note_on_c, 1, 74, 0
2, 56784, Note_on_c, 1, 76, 45
2, 56830, Note_on_c, 1, 76, 0
2, 56832, Note_on_c, 1, 77, 45
2, 56928, Note_on_c, 1, 77, 0
2, 56928, Note_on_c, 1, 79, 48
2, 57024, Note_on_c, 1, 79, 0
2, 57024, Note_on_c, 1, 81, 51
2, 57118, Note_on_c, 1, 81, 0
2, 57120, Note_on_c, 1, 81, 55
2, 57152, Note_on_c, 1, 81, 0
2, 57216, Note_on_c, 1, 81, 59
2, 57312, Note_on_c, 1, 81, 0
2, 57312, Note_on_c, 1, 79, 63
2, 57408, Note_on_c, 1, 79, 0
2, 57408, Note_on_c, 1, 77, 67
2, 57504, Note_on_c, 1, 77, 0
2, 57504, Note_on_c, 1, 74, 71
2, 57598, Note_on_c, 1, 74, 0
2, 57600, Note_on_c, 1, 74, 30
2, 57648, Note_on_c, 1, 74, 0
2, 57648, Note_on_c, 1, 73, 30
2, 57694, Note_on_c, 1, 73, 0
2, 57696, Note_on_c, 1, 73, 30
2, 57728, Note_on_c, 1, 73, 0
2, 57744, Note_on_c, 1, 74, 30
2, 57776, Note_on_c, 1, 74, 0
2, 57792, Note_on_c, 1, 74, 30
2, 57840, Note_on_c, 1, 74, 0
2, 57840, Note_on_c, 1, 72, 30
2, 57886, Note_on_c, 1, 72, 0
2, 57888, Note_on_c, 1, 72, 30
2, 57920, Note_on_c, 1, 72, 0
2, 57936, Note_on_c, 1, 72, 30
2, 57968, Note_on_c, 1, 72, 0
2, 57984, Note_on_c, 1, 72, 30
2, 58032, Note_on_c, 1, 72, 0
2, 58032, Note_on_c, 1, 69, 30
2, 58078, Note_on_c, 1, 69, 0
2, 58080, Note_on_c, 1, 69, 30
2, 58112, Note_on_c, 1, 69, 0
2, 58128, Note_on_c, 1, 70, 30
2, 58160, Note_on_c, 1, 70, 0
2, 58176, Note_on_c, 1, 70, 30
2, 58208, Note_on_c, 1, 70, 0
2, 58224, Note_on_c, 1, 71, 30
2, 58256, Note_on_c, 1, 71, 0
2, 58272, Note_on_c, 1, 71, 30
2, 58304, Note_on_c, 1, 71, 0
2, 58320, Note_on_c, 1, 72, 30
2, 58352, Note_on_c, 1, 72, 0
2, 58368, Note_on_c, 1, 72, 30
2, 58398, Note_on_c, 1, 72, 0
2, 58400, Note_on_c, 1, 73, 30
2, 58430, Note_on_c, 1, 73, 0
2, 58432, Note_on_c, 1, 73, 30
2, 58462, Note_on_c, 1, 73, 0
2, 58464, Note_on_c, 1, 73, 30
2, 58494, Note_on_c, 1, 73, 0
2, 58496, Note_on_c, 1, 74, 30
2, 58526, Note_on_c, 1, 74, 0
2, 58528, Note_on_c, 1, 86, 30
2, 58558, Note_on_c, 1, 86, 0
2, 58560, Note_on_c, 1, 86, 30
2, 58590, Note_on_c, 1, 86, 0
2, 58592, Note_on_c, 1, 85, 30
2, 58622, Note_on_c, 1, 85, 0
2, 58624, Note_on_c, 1, 85, 30
2, 58654, Note_on_c, 1, 85, 0
2, 58656, Note_on_c, 1, 85, 30
2, 58686, Note_on_c, 1, 85, 0
2, 58688, Note_on_c, 1, 84, 30
2, 58718, Note_on_c, 1, 84, 0
2, 58720, Note_on_c, 1, 84, 30
2, 58750, Note_on_c, 1, 84, 0
2, 58752, Note_on_c, 1, 84, 30
2, 58782, Note_on_c, 1, 84, 0
2, 58784, Note_on_c, 1, 81, 32
2, 58814, Note_on_c, 1, 81, 0
2, 58816, Note_on_c, 1, 82, 34
2, 58846, Note_on_c, 1, 82, 0
2, 58848, Note_on_c, 1, 82, 36
2, 58878, Note_on_c, 1, 82, 0
2, 58880, Note_on_c, 1, 83, 39
2, 58910, Note_on_c, 1, 83, 0
2, 58912, Note_on_c, 1, 84, 42
2, 58942, Note_on_c, 1, 84, 0
2, 58944, Note_on_c, 1, 84, 45
2, 58976, Note_on_c, 1, 84, 0
2, 58976, Note_on_c, 1, 86, 45
2, 59008, Note_on_c, 1, 86, 0
2, 59008, Note_on_c, 1, 84, 45
2, 59040, Note_on_c, 1, 84, 0
2, 59040, Note_on_c, 1, 82, 45
2, 59072, Note_on_c, 1, 82, 0
2, 59072, Note_on_c, 1, 81, 45
2, 59104, Note_on_c, 1, 81, 0
2, 59104, Note_on_c, 1, 79, 45
2, 59134, Note_on_c, 1, 79, 0
2, 59136, Note_on_c, 1, 77, 45
2, 59296, Note_on_c, 1, 77, 0
2, 59328, Note_on_c, 1, 76, 60
2, 59360, Note_on_c, 1, 76, 0
2, 59360, Note_on_c, 1, 86, 62
2, 59392, Note_on_c, 1, 86, 0
2, 59392, Note_on_c, 1, 84, 64
2, 59424, Note_on_c, 1, 84, 0
2, 59424, Note_on_c, 1, 82, 66
2, 59456, Note_on_c, 1, 82, 0
2, 59456, Note_on_c, 1, 81, 69
2, 59488, Note_on_c, 1, 81, 0
2, 59488, Note_on_c, 1, 79, 72
2, 59518, Note_on_c, 1, 79, 0
2, 59520, Note_on_c, 1, 77, 45
2, 59552, Note_on_c, 1, 77, 0
2, 59616, Note_on_c, 1, 79, 45
2, 59648, Note_on_c, 1, 79, 0
2, 59712, Note_on_c, 1, 72, 45
2, 59744, Note_on_c, 1, 72, 0
2, 59936, Note_on_c, 1, 84, 46
2, 59968, Note_on_c, 1, 84, 0
2, 59968, Note_on_c, 1, 82, 48
2, 60000, Note_on_c, 1, 82, 0
2, 60000, Note_on_c, 1, 81, 50
2, 60032, Note_on_c, 1, 81, 0
2, 60032, Note_on_c, 1, 79, 52
2, 60064, Note_on_c, 1, 79, 0
2, 60064, Note_on_c, 1, 77, 54
2, 60096, Note_on_c, 1, 77, 0
2, 60096, Note_on_c, 1, 76, 56
2, 60128, Note_on_c, 1, 76, 0
2, 60128, Note_on_c, 1, 86, 58
2, 60160, Note_on_c, 1, 86, 0
2, 60160, Note_on_c, 1, 84, 60
2, 60192, Note_on_c, 1, 84, 0
2, 60192, Note_on_c, 1, 82, 62
2, 60224, Note_on_c, 1, 82, 0
2, 60224, Note_on_c, 1, 81, 64
2, 60256, Note_on_c, 1, 81, 0
2, 60256, Note_on_c, 1, 79, 66
2, 60286, Note_on_c, 1, 79, 0
2, 60288, Note_on_c, 1, 77, 68
2, 60320, Note_on_c, 1, 77, 0
2, 60384, Note_on_c, 1, 79, 74
2, 60416, Note_on_c, 1, 79, 0
2, 60480, Note_on_c, 1, 72, 80
2, 60512, Note_on_c, 1, 72, 0
2, 60576, Note_on_c, 1, 76, 86
2, 60576, Note_on_c, 1, 88, 86
2, 60608, Note_on_c, 1, 76, 0
2, 60608, Note_on_c, 1, 88, 0
2, 60672, Note_on_c, 1, 78, 92
2, 60672, Note_on_c, 1, 90, 92
2, 60704, Note_on_c, 1, 78, 0
2, 60704, Note_on_c, 1, 90, 0
2, 60936, Note_on_c, 1, 81, 45
2, 60960, Note_on_c, 1, 81, 0
2, 60960, Note_on_c, 1, 74, 45
2, 61008, Note_on_c, 1, 74, 0
2, 61008, Note_on_c, 1, 78, 45
2, 61056, Note_on_c, 1, 78, 0
2, 61056, Note_on_c, 1, 79, 45
2, 61088, Note_on_c, 1, 79, 0
2, 61704, Note_on_c, 1, 81, 45
2, 61728, Note_on_c, 1, 81, 0
2, 61776, Note_on_c, 1, 78, 45
2, 61824, Note_on_c, 1, 78, 0
2, 61824, Note_on_c, 1, 79, 45
2, 61856, Note_on_c, 1, 79, 0
2, 62592, Note_on_c, 1, 74, 45
2, 62616, Note_on_c, 1, 74, 0
2, 62616, Note_on_c, 1, 76, 45
2, 62640, Note_on_c, 1, 76, 0
2, 62640, Note_on_c, 1, 77, 45
2, 62784, Note_on_c, 1, 77, 0
2, 62784, Note_on_c, 1, 72, 45
2, 62952, Note_on_c, 1, 72, 0
2, 62952, Note_on_c, 1, 74, 45
2, 62974, Note_on_c, 1, 74, 0
2, 62976, Note_on_c, 1, 71, 45
2, 63070, Note_on_c, 1, 71, 0
2, 63936, Note_on_c, 1, 78, 45
2, 64032, Note_on_c, 1, 78, 0
2, 64032, Note_on_c, 1, 79, 45
2, 64128, Note_on_c, 1, 79, 0
2, 64128, Note_on_c, 1, 68, 45
2, 64224, Note_on_c, 1, 68, 0
2, 64224, Note_on_c, 1, 69, 45
2, 64320, Note_on_c, 1, 69, 0
2, 64320, Note_on_c, 1, 76, 45
2, 64416, Note_on_c, 1, 76, 0
2, 64416, Note_on_c, 1, 77, 45
2, 64512, Note_on_c, 1, 77, 0
2, 64512, Note_on_c, 1, 76, 45
2, 64608, Note_on_c, 1, 76, 0
2, 64608, Note_on_c, 1, 74, 45
2, 64702, Note_on_c, 1, 74, 0
2, 64896, Note_on_c, 1, 79, 45
2, 64920, Note_on_c, 1, 79, 0
2, 64920, Note_on_c, 1, 81, 45
2, 64944, Note_on_c, 1, 81, 0
2, 64944, Note_on_c, 1, 82, 45
2, 65088, Note_on_c, 1, 82, 0
2, 65088, Note_on_c, 1, 77, 45
2, 65256, Note_on_c, 1, 77, 0
2, 65256, Note_on_c, 1, 79, 45
2, 65278, Note_on_c, 1, 79, 0
2, 65280, Note_on_c, 1, 77, 45
2, 65304, Note_on_c, 1, 77, 0
2, 65304, Note_on_c, 1, 79, 45
2, 65328, Note_on_c, 1, 79, 0
2, 65328, Note_on_c, 1, 81, 45
2, 65472, Note_on_c, 1, 81, 0
2, 65472, Note_on_c, 1, 76, 45
2, 65640, Note_on_c, 1, 76, 0
2, 65640, Note_on_c, 1, 77, 45
2, 65662, Note_on_c, 1, 77, 0
2, 65664, Note_on_c, 1, 79, 45
2, 65688, Note_on_c, 1, 79, 0
2, 65688, Note_on_c, 1, 81, 45
2, 65712, Note_on_c, 1, 81, 0
2, 65712, Note_on_c, 1, 82, 45
2, 65856, Note_on_c, 1, 82, 0
2, 65856, Note_on_c, 1, 77, 50
2, 66024, Note_on_c, 1, 77, 0
2, 66024, Note_on_c, 1, 79, 55
2, 66046, Note_on_c, 1, 79, 0
2, 66048, Note_on_c, 1, 77, 55
2, 66072, Note_on_c, 1, 77, 0
2, 66072, Note_on_c, 1, 79, 55
2, 66096, Note_on_c, 1, 79, 0
2, 66096, Note_on_c, 1, 81, 55
2, 66240, Note_on_c, 1, 81, 0
2, 66240, Note_on_c, 1, 76, 61
2, 66408, Note_on_c, 1, 76, 0
2, 66408, Note_on_c, 1, 77, 66
2, 66430, Note_on_c, 1, 77, 0
2, 66432, Note_on_c, 1, 75, 66
2, 66528, Note_on_c, 1, 75, 0
2, 66528, Note_on_c, 1, 76, 69
2, 66624, Note_on_c, 1, 76, 0
2, 66624, Note_on_c, 1, 84, 72
2, 66720, Note_on_c, 1, 84, 0
2, 66720, Note_on_c, 1, 82, 75
2, 66814, Note_on_c, 1, 82, 0
2, 66816, Note_on_c, 1, 76, 78
2, 66912, Note_on_c, 1, 76, 0
2, 66912, Note_on_c, 1, 77, 81
2, 67008, Note_on_c, 1, 77, 0
2, 67008, Note_on_c, 1, 84, 84
2, 67104, Note_on_c, 1, 84, 0
2, 67104, Note_on_c, 1, 81, 88
2, 67198, Note_on_c, 1, 81, 0
2, 67200, Note_on_c, 1, 79, 92
2, 67224, Note_on_c, 1, 79, 0
2, 67224, Note_on_c, 1, 81, 92
2, 67248, Note_on_c, 1, 81, 0
2, 67248, Note_on_c, 1, 82, 92
2, 67280, Note_on_c, 1, 82, 0
2, 67296, Note_on_c, 1, 76, 92
2, 67320, Note_on_c, 1, 76, 0
2, 67320, Note_on_c, 1, 77, 92
2, 67344, Note_on_c, 1, 77, 0
2, 67344, Note_on_c, 1, 79, 92
2, 67376, Note_on_c, 1, 79, 0
2, 67392, Note_on_c, 1, 72, 92
2, 67416, Note_on_c, 1, 72, 0
2, 67416, Note_on_c, 1, 74, 92
2, 67440, Note_on_c, 1, 74, 0
2, 67440, Note_on_c, 1, 76, 92
2, 67472, Note_on_c, 1, 76, 0
2, 67488, Note_on_c, 1, 67, 92
2, 67512, Note_on_c, 1, 67, 0
2, 67512, Note_on_c, 1, 69, 92
2, 67536, Note_on_c, 1, 69, 0
2, 67536, Note_on_c, 1, 70, 92
2, 67568, Note_on_c, 1, 70, 0
2, 67584, Note_on_c, 1, 64, 92
2, 67608, Note_on_c, 1, 64, 0
2, 67608, Note_on_c, 1, 65, 92
2, 67632, Note_on_c, 1, 65, 0
2, 67632, Note_on_c, 1, 67, 92
2, 67664, Note_on_c, 1, 67, 0
2, 67680, Note_on_c, 1, 60, 92
2, 67704, Note_on_c, 1, 60, 0
2, 67704, Note_on_c, 1, 62, 92
2, 67728, Note_on_c, 1, 62, 0
2, 67728, Note_on_c, 1, 64, 92
2, 67760, Note_on_c, 1, 64, 0
2, 67776, Note_on_c, 1, 55, 92
2, 67800, Note_on_c, 1, 55, 0
2, 67800, Note_on_c, 1, 57, 92
2, 67824, Note_on_c, 1, 57, 0
2, 67824, Note_on_c, 1, 58, 92
2, 67856, Note_on_c, 1, 58, 0
2, 68576, Note_on_c, 1, 86, 45
2, 68608, Note_on_c, 1, 86, 0
2, 68608, Note_on_c, 1, 84, 45
2, 68640, Note_on_c, 1, 84, 0
2, 68640, Note_on_c, 1, 82, 45
2, 68672, Note_on_c, 1, 82, 0
2, 68672, Note_on_c, 1, 81, 45
2, 68704, Note_on_c, 1, 81, 0
2, 68704, Note_on_c, 1, 79, 45
2, 68734, Note_on_c, 1, 79, 0
2, 68736, Note_on_c, 1, 77, 45
2, 68768, Note_on_c, 1, 77, 0
2, 68768, Note_on_c, 1, 72, 47
2, 68800, Note_on_c, 1, 72, 0
2, 68800, Note_on_c, 1, 76, 49
2, 68832, Note_on_c, 1, 76, 0
2, 68832, Note_on_c, 1, 77, 51
2, 68864, Note_on_c, 1, 77, 0
2, 68864, Note_on_c, 1, 79, 53
2, 68896, Note_on_c, 1, 79, 0
2, 68896, Note_on_c, 1, 81, 55
2, 68928, Note_on_c, 1, 81, 0
2, 68928, Note_on_c, 1, 76, 57
2, 68960, Note_on_c, 1, 76, 0
2, 68960, Note_on_c, 1, 86, 59
2, 68992, Note_on_c, 1, 86, 0
2, 68992, Note_on_c, 1, 84, 61
2, 69024, Note_on_c, 1, 84, 0
2, 69024, Note_on_c, 1, 82, 63
2, 69056, Note_on_c, 1, 82, 0
2, 69056, Note_on_c, 1, 81, 65
2, 69088, Note_on_c, 1, 81, 0
2, 69088, Note_on_c, 1, 79, 67
2, 69118, Note_on_c, 1, 79, 0
2, 69120, Note_on_c, 1, 77, 69
2, 69152, Note_on_c, 1, 77, 0
2, 69216, Note_on_c, 1, 79, 76
2, 69248, Note_on_c, 1, 79, 0
2, 69312, Note_on_c, 1, 72, 84
2, 69344, Note_on_c, 1, 72, 0
2, 69408, Note_on_c, 1, 84, 92
2, 69440, Note_on_c, 1, 84, 0
2, 69504, Note_on_c, 1, 81, 45
2, 69528, Note_on_c, 1, 81, 0
2, 69528, Note_on_c, 1, 82, 45
2, 69552, Note_on_c, 1, 82, 0
2, 69552, Note_on_c, 1, 84, 45
2, 69696, Note_on_c, 1, 84, 0
2, 69696, Note_on_c, 1, 79, 75
2, 69864, Note_on_c, 1, 79, 0
2, 69864, Note_on_c, 1, 81, 49
2, 69886, Note_on_c, 1, 81, 0
2, 69888, Note_on_c, 1, 78, 45
2, 69920, Note_on_c, 1, 78, 0
2, 70272, Note_on_c, 1, 84, 92
2, 70296, Note_on_c, 1, 84, 0
2, 70296, Note_on_c, 1, 86, 92
2, 70320, Note_on_c, 1, 86, 0
2, 70320, Note_on_c, 1, 87, 92
2, 70462, Note_on_c, 1, 87, 0
2, 70464, Note_on_c, 1, 82, 92
2, 70632, Note_on_c, 1, 82, 0
2, 70632, Note_on_c, 1, 84, 92
2, 70654, Note_on_c, 1, 84, 0
2, 70656, Note_on_c, 1, 81, 92
2, 70688, Note_on_c, 1, 81, 0
2, 70752, Note_on_c, 1, 84, 92
2, 70776, Note_on_c, 1, 84, 0
2, 70776, Note_on_c, 1, 86, 92
2, 70800, Note_on_c, 1, 86, 0
2, 70800, Note_on_c, 1, 87, 127
2, 70832, Note_on_c, 1, 87, 0
2, 71304, Note_on_c, 1, 75, 45
2, 71328, Note_on_c, 1, 75, 0
2, 71328, Note_on_c, 1, 65, 45
2, 71376, Note_on_c, 1, 65, 0
2, 71376, Note_on_c, 1, 72, 45
2, 71422, Note_on_c, 1, 72, 0
2, 71424, Note_on_c, 1, 74, 45
2, 71496, Note_on_c, 1, 74, 0
2, 71496, Note_on_c, 1, 75, 45
2, 71518, Note_on_c, 1, 75, 0
2, 71520, Note_on_c, 1, 77, 45
2, 71662, Note_on_c, 1, 77, 0
2, 71688, Note_on_c, 1, 79, 45
2, 71712, Note_on_c, 1, 79, 0
2, 71712, Note_on_c, 1, 72, 45
2, 71760, Note_on_c, 1, 72, 0
2, 71760, Note_on_c, 1, 76, 45
2, 71808, Note_on_c, 1, 76, 0
2, 71808, Note_on_c, 1, 77, 45
2, 71840, Note_on_c, 1, 77, 0
2, 72096, Note_on_c, 1, 79, 45
2, 72190, Note_on_c, 1, 79, 0
2, 72288, Note_on_c, 1, 81, 45
2, 72360, Note_on_c, 1, 81, 0
2, 72360, Note_on_c, 1, 82, 45
2, 72382, Note_on_c, 1, 82, 0
2, 72384, Note_on_c, 1, 84, 45
2, 72416, Note_on_c, 1, 84, 0
2, 72480, Note_on_c, 1, 86, 45
2, 72512, Note_on_c, 1, 86, 0
2, 72816, Note_on_c, 1, 79, 45
2, 72864, Note_on_c, 1, 79, 0
2, 72864, Note_on_c, 1, 76, 45
2, 72912, Note_on_c, 1, 76, 0
2, 72912, Note_on_c, 1, 72, 45
2, 72958, Note_on_c, 1, 72, 0
2, 72960, Note_on_c, 1, 81, 45
2, 73032, Note_on_c, 1, 81, 0
2, 73032, Note_on_c, 1, 82, 48
2, 73054, Note_on_c, 1, 82, 0
2, 73056, Note_on_c, 1, 84, 49
2, 73560, Note_on_c, 1, 84, 0
2, 73608, Note_on_c, 1, 89, 45
2, 73632, Note_on_c, 1, 89, 0
2, 73632, Note_on_c, 1, 88, 45
2, 73680, Note_on_c, 1, 88, 0
2, 73680, Note_on_c, 1, 86, 45
2, 73728, Note_on_c, 1, 86, 0
2, 73728, Note_on_c, 1, 84, 45
2, 73760, Note_on_c, 1, 84, 0
2, 73800, Note_on_c, 1, 86, 45
2, 73824, Note_on_c, 1, 86, 0
2, 73824, Note_on_c, 1, 82, 45
2, 73872, Note_on_c, 1, 82, 0
2, 73872, Note_on_c, 1, 79, 45
2, 73920, Note_on_c, 1, 79, 0
2, 73920, Note_on_c, 1, 77, 45
2, 73952, Note_on_c, 1, 77, 0
2, 73992, Note_on_c, 1, 79, 45
2, 74016, Note_on_c, 1, 79, 0
2, 74016, Note_on_c, 1, 76, 45
2, 74064, Note_on_c, 1, 76, 0
2, 74064, Note_on_c, 1, 72, 45
2, 74112, Note_on_c, 1, 72, 0
2, 74112, Note_on_c, 1, 69, 45
2, 74112, Note_on_c, 1, 77, 45
2, 74206, Note_on_c, 1, 69, 0
2, 74206, Note_on_c, 1, 77, 0
2, 74496, Control_c, 1, 7, 0
2, 74496, Note_on_c, 1, 70, 60
2, 75216, Note_on_c, 1, 70, 0
2, 75216, End_track
3, 0, Start_track
3, 0, MIDI_port, 0
3, 0, Title_t, "Violino II."
3, 0, Program_c, 2, 0
3, 0, Control_c, 2, 7, 127
3, 0, Control_c, 2, 10, 64
3, 960, Note_on_c, 2, 58, 30
3, 1120, Note_on_c, 2, 58, 0
3, 1152, Note_on_c, 2, 55, 30
3, 1152, Note_on_c, 2, 64, 30
3, 1246, Note_on_c, 2, 55, 0
3, 1246, Note_on_c, 2, 64, 0
3, 1248, Note_on_c, 2, 67, 30
3, 1272, Note_on_c, 2, 67, 0
3, 1272, Note_on_c, 2, 69, 30
3, 1296, Note_on_c, 2, 69, 0
3, 1296, Note_on_c, 2, 70, 84
3, 1328, Note_on_c, 2, 70, 0
3, 1608, Note_on_c, 2, 69, 45
3, 1632, Note_on_c, 2, 69, 0
3, 1632, Note_on_c, 2, 60, 45
3, 1680, Note_on_c, 2, 60, 0
3, 1680, Note_on_c, 2, 65, 45
3, 1728, Note_on_c, 2, 65, 0
3, 1728, Note_on_c, 2, 67, 45
3, 1760, Note_on_c, 2, 67, 0
3, 2016, Note_on_c, 2, 57, 45
3, 2088, Note_on_c, 2, 57, 0
3, 2088, Note_on_c, 2, 58, 45
3, 2112, Note_on_c, 2, 58, 0
3, 2112, Note_on_c, 2, 60, 45
3, 2144, Note_on_c, 2, 60, 0
3, 2784, Note_on_c, 2, 65, 45
3, 2856, Note_on_c, 2, 65, 0
3, 2856, Note_on_c, 2, 67, 45
3, 2880, Note_on_c, 2, 67, 0
3, 2880, Note_on_c, 2, 65, 45
3, 2912, Note_on_c, 2, 65, 0
3, 3144, Note_on_c, 2, 74, 45
3, 3168, Note_on_c, 2, 74, 0
3, 3168, Note_on_c, 2, 70, 46
3, 3216, Note_on_c, 2, 70, 0
3, 3216, Note_on_c, 2, 67, 48
3, 3264, Note_on_c, 2, 67, 0
3, 3264, Note_on_c, 2, 65, 50
3, 3310, Note_on_c, 2, 65, 0
3, 3336, Note_on_c, 2, 67, 53
3, 3360, Note_on_c, 2, 67, 0
3, 3360, Note_on_c, 2, 64, 54
3, 3408, Note_on_c, 2, 64, 0
3, 3408, Note_on_c, 2, 60, 57
3, 3456, Note_on_c, 2, 60, 0
3, 3456, Note_on_c, 2, 65, 45
3, 3550, Note_on_c, 2, 65, 0
3, 5184, Note_on_c, 2, 57, 45
3, 5376, Note_on_c, 2, 57, 0
3, 5376, Note_on_c, 2, 59, 45
3, 5854, Note_on_c, 2, 59, 0
3, 5856, Note_on_c, 2, 59, 74
3, 5856, Note_on_c, 2, 65, 74
3, 5888, Note_on_c, 2, 59, 0
3, 5888, Note_on_c, 2, 65, 0
3, 5952, Note_on_c, 2, 59, 80
3, 5952, Note_on_c, 2, 65, 80
3, 5984, Note_on_c, 2, 59, 0
3, 5984, Note_on_c, 2, 65, 0
3, 6048, Note_on_c, 2, 59, 86
3, 6048, Note_on_c, 2, 65, 86
3, 6080, Note_on_c, 2, 59, 0
3, 6080, Note_on_c, 2, 65, 0
3, 6144, Note_on_c, 2, 55, 92
3, 6144, Note_on_c, 2, 64, 92
3, 6238, Note_on_c, 2, 55, 0
3, 6238, Note_on_c, 2, 64, 0
3, 6432, Note_on_c, 2, 59, 45
3, 6504, Note_on_c, 2, 59, 0
3, 6504, Note_on_c, 2, 62, 45
3, 6526, Note_on_c, 2, 62, 0
3, 6528, Note_on_c, 2, 60, 45
3, 6560, Note_on_c, 2, 60, 0
3, 6624, Note_on_c, 2, 67, 45
3, 6696, Note_on_c, 2, 67, 0
3, 6696, Note_on_c, 2, 70, 45
3, 6718, Note_on_c, 2, 70, 0
3, 6720, Note_on_c, 2, 69, 45
3, 6752, Note_on_c, 2, 69, 0
3, 6816, Note_on_c, 2, 63, 45
3, 7008, Note_on_c, 2, 63, 0
3, 7008, Note_on_c, 2, 62, 45
3, 7102, Note_on_c, 2, 62, 0
3, 7104, Note_on_c, 2, 62, 45
3, 7136, Note_on_c, 2, 62, 0
3, 7200, Note_on_c, 2, 67, 45
3, 7232, Note_on_c, 2, 67, 0
3, 7296, Note_on_c, 2, 67, 45
3, 7390, Note_on_c, 2, 67, 0
3, 7584, Note_on_c, 2, 67, 45
3, 7656, Note_on_c, 2, 67, 0
3, 7656, Note_on_c, 2, 70, 45
3, 7678, Note_on_c, 2, 70, 0
3, 7680, Note_on_c, 2, 60, 45
3, 7712, Note_on_c, 2, 60, 0
3, 7776, Note_on_c, 2, 60, 45
3, 7808, Note_on_c, 2, 60, 0
3, 7872, Note_on_c, 2, 69, 45
3, 7904, Note_on_c, 2, 69, 0
3, 7968, Note_on_c, 2, 69, 45
3, 8000, Note_on_c, 2, 69, 0
3, 8256, Note_on_c, 2, 77, 45
3, 8448, Note_on_c, 2, 77, 0
3, 8448, Note_on_c, 2, 71, 45
3, 8542, Note_on_c, 2, 71, 0
3, 8544, Note_on_c, 2, 73, 45
3, 8616, Note_on_c, 2, 73, 0
3, 8616, Note_on_c, 2, 76, 45
3, 8638, Note_on_c, 2, 76, 0
3, 8640, Note_on_c, 2, 74, 45
3, 8672, Note_on_c, 2, 74, 0
3, 8736, Note_on_c, 2, 74, 45
3, 8768, Note_on_c, 2, 74, 0
3, 8832, Note_on_c, 2, 74, 45
3, 8926, Note_on_c, 2, 74, 0
3, 8928, Note_on_c, 2, 74, 45
3, 9000, Note_on_c, 2, 74, 0
3, 9000, Note_on_c, 2, 77, 45
3, 9022, Note_on_c, 2, 77, 0
3, 9024, Note_on_c, 2, 76, 45
3, 9056, Note_on_c, 2, 76, 0
3, 9120, Note_on_c, 2, 76, 45
3, 9152, Note_on_c, 2, 76, 0
3, 9216, Note_on_c, 2, 69, 45
3, 9262, Note_on_c, 2, 69, 0
3, 9264, Note_on_c, 2, 65, 45
3, 9264, Note_on_c, 2, 69, 45
3, 9310, Note_on_c, 2, 65, 0
3, 9310, Note_on_c, 2, 69, 0
3, 9312, Note_on_c, 2, 65, 45
3, 9312, Note_on_c, 2, 69, 45
3, 9358, Note_on_c, 2, 65, 0
3, 9358, Note_on_c, 2, 69, 0
3, 9360, Note_on_c, 2, 65, 45
3, 9360, Note_on_c, 2, 69, 45
3, 9406, Note_on_c, 2, 65, 0
3, 9406, Note_on_c, 2, 69, 0
3, 9408, Note_on_c, 2, 65, 45
3, 9408, Note_on_c, 2, 69, 45
3, 9502, Note_on_c, 2, 65, 0
3, 9502, Note_on_c, 2, 69, 0
3, 9984, Note_on_c, 2, 69, 45
3, 10222, Note_on_c, 2, 69, 0
3, 10224, Note_on_c, 2, 74, 45
3, 10272, Note_on_c, 2, 74, 0
3, 10272, Note_on_c, 2, 73, 45
3, 10320, Note_on_c, 2, 73, 0
3, 10320, Note_on_c, 2, 74, 45
3, 10368, Note_on_c, 2, 74, 0
3, 10368, Note_on_c, 2, 69, 45
3, 10400, Note_on_c, 2, 69, 0
3, 10416, Note_on_c, 2, 70, 45
3, 10464, Note_on_c, 2, 70, 0
3, 10464, Note_on_c, 2, 65, 45
3, 10512, Note_on_c, 2, 65, 0
3, 10512, Note_on_c, 2, 67, 45
3, 10560, Note_on_c, 2, 67, 0
3, 10560, Note_on_c, 2, 65, 45
3, 10592, Note_on_c, 2, 65, 0
3, 10608, Note_on_c, 2, 67, 45
3, 10656, Note_on_c, 2, 67, 0
3, 10656, Note_on_c, 2, 64, 45
3, 10704, Note_on_c, 2, 64, 0
3, 10704, Note_on_c, 2, 65, 45
3, 10752, Note_on_c, 2, 65, 0
3, 10752, Note_on_c, 2, 67, 45
3, 10798, Note_on_c, 2, 67, 0
3, 10800, Note_on_c, 2, 59, 45
3, 10846, Note_on_c, 2, 59, 0
3, 10848, Note_on_c, 2, 59, 45
3, 10894, Note_on_c, 2, 59, 0
3, 10896, Note_on_c, 2, 59, 45
3, 10942, Note_on_c, 2, 59, 0
3, 10944, Note_on_c, 2, 59, 45
3, 11038, Note_on_c, 2, 59, 0
3, 11376, Note_on_c, 2, 64, 45
3, 11424, Note_on_c, 2, 64, 0
3, 11424, Note_on_c, 2, 59, 45
3, 11472, Note_on_c, 2, 59, 0
3, 11472, Note_on_c, 2, 60, 45
3, 11520, Note_on_c, 2, 60, 0
3, 11520, Note_on_c, 2, 62, 45
3, 11552, Note_on_c, 2, 62, 0
3, 11712, Note_on_c, 2, 71, 45
3, 11760, Note_on_c, 2, 71, 0
3, 11760, Note_on_c, 2, 67, 45
3, 11808, Note_on_c, 2, 67, 0
3, 11808, Note_on_c, 2, 71, 45
3, 11854, Note_on_c, 2, 71, 0
3, 11856, Note_on_c, 2, 71, 45
3, 11888, Note_on_c, 2, 71, 0
3, 11904, Note_on_c, 2, 69, 45
3, 11952, Note_on_c, 2, 69, 0
3, 11952, Note_on_c, 2, 62, 45
3, 12000, Note_on_c, 2, 62, 0
3, 12000, Note_on_c, 2, 69, 45
3, 12046, Note_on_c, 2, 69, 0
3, 12048, Note_on_c, 2, 69, 45
3, 12080, Note_on_c, 2, 69, 0
3, 12096, Note_on_c, 2, 69, 45
3, 12144, Note_on_c, 2, 69, 0
3, 12144, Note_on_c, 2, 66, 45
3, 12192, Note_on_c, 2, 66, 0
3, 12192, Note_on_c, 2, 72, 45
3, 12238, Note_on_c, 2, 72, 0
3, 12264, Note_on_c, 2, 72, 45
3, 12280, Note_on_c, 2, 72, 0
3, 12288, Note_on_c, 2, 72, 45
3, 12480, Note_on_c, 2, 72, 0
3, 12480, Note_on_c, 2, 71, 45
3, 12640, Note_on_c, 2, 71, 0
3, 13104, Note_on_c, 2, 60, 47
3, 13152, Note_on_c, 2, 60, 0
3, 13152, Note_on_c, 2, 72, 49
3, 13198, Note_on_c, 2, 72, 0
3, 13200, Note_on_c, 2, 72, 51
3, 13232, Note_on_c, 2, 72, 0
3, 13248, Note_on_c, 2, 72, 53
3, 13296, Note_on_c, 2, 72, 0
3, 13296, Note_on_c, 2, 60, 55
3, 13344, Note_on_c, 2, 60, 0
3, 13344, Note_on_c, 2, 72, 57
3, 13390, Note_on_c, 2, 72, 0
3, 13416, Note_on_c, 2, 72, 60
3, 13432, Note_on_c, 2, 72, 0
3, 13440, Note_on_c, 2, 73, 61
3, 13680, Note_on_c, 2, 73, 0
3, 13680, Note_on_c, 2, 62, 72
3, 13728, Note_on_c, 2, 62, 0
3, 13728, Note_on_c, 2, 74, 75
3, 13774, Note_on_c, 2, 74, 0
3, 13776, Note_on_c, 2, 74, 60
3, 13808, Note_on_c, 2, 74, 0
3, 13872, Note_on_c, 2, 67, 45
3, 13904, Note_on_c, 2, 67, 0
3, 13920, Note_on_c, 2, 72, 45
3, 13952, Note_on_c, 2, 72, 0
3, 13968, Note_on_c, 2, 72, 45
3, 14000, Note_on_c, 2, 72, 0
3, 14064, Note_on_c, 2, 62, 45
3, 14096, Note_on_c, 2, 62, 0
3, 14112, Note_on_c, 2, 71, 45
3, 14144, Note_on_c, 2, 71, 0
3, 14160, Note_on_c, 2, 71, 45
3, 14192, Note_on_c, 2, 71, 0
3, 14208, Note_on_c, 2, 60, 45
3, 14240, Note_on_c, 2, 60, 0
3, 14304, Note_on_c, 2, 64, 48
3, 14336, Note_on_c, 2, 64, 0
3, 14400, Note_on_c, 2, 67, 51
3, 14432, Note_on_c, 2, 67, 0
3, 14496, Note_on_c, 2, 72, 55
3, 14528, Note_on_c, 2, 72, 0
3, 14592, Note_on_c, 2, 71, 59
3, 14624, Note_on_c, 2, 71, 0
3, 14688, Note_on_c, 2, 74, 63
3, 14720, Note_on_c, 2, 74, 0
3, 14784, Note_on_c, 2, 77, 67
3, 14944, Note_on_c, 2, 77, 0
3, 14976, Note_on_c, 2, 77, 45
3, 15006, Note_on_c, 2, 77, 0
3, 15008, Note_on_c, 2, 74, 45
3, 15038, Note_on_c, 2, 74, 0
3, 15040, Note_on_c, 2, 76, 45
3, 15070, Note_on_c, 2, 76, 0
3, 15072, Note_on_c, 2, 74, 45
3, 15102, Note_on_c, 2, 74, 0
3, 15104, Note_on_c, 2, 71, 47
3, 15134, Note_on_c, 2, 71, 0
3, 15136, Note_on_c, 2, 72, 49
3, 15166, Note_on_c, 2, 72, 0
3, 15168, Note_on_c, 2, 71, 51
3, 15198, Note_on_c, 2, 71, 0
3, 15200, Note_on_c, 2, 67, 53
3, 15230, Note_on_c, 2, 67, 0
3, 15232, Note_on_c, 2, 69, 55
3, 15262, Note_on_c, 2, 69, 0
3, 15264, Note_on_c, 2, 67, 57
3, 15358, Note_on_c, 2, 67, 0
3, 15552, Note_on_c, 2, 64, 78
3, 15582, Note_on_c, 2, 64, 0
3, 15584, Note_on_c, 2, 67, 80
3, 15614, Note_on_c, 2, 67, 0
3, 15616, Note_on_c, 2, 72, 82
3, 15646, Note_on_c, 2, 72, 0
3, 15648, Note_on_c, 2, 76, 84
3, 15678, Note_on_c, 2, 76, 0
3, 15680, Note_on_c, 2, 79, 86
3, 15710, Note_on_c, 2, 79, 0
3, 15712, Note_on_c, 2, 83, 89
3, 15742, Note_on_c, 2, 83, 0
3, 15744, Note_on_c, 2, 84, 92
3, 15774, Note_on_c, 2, 84, 0
3, 15776, Note_on_c, 2, 79, 92
3, 15806, Note_on_c, 2, 79, 0
3, 15808, Note_on_c, 2, 81, 92
3, 15838, Note_on_c, 2, 81, 0
3, 15840, Note_on_c, 2, 79, 92
3, 15870, Note_on_c, 2, 79, 0
3, 15872, Note_on_c, 2, 76, 92
3, 15902, Note_on_c, 2, 76, 0
3, 15904, Note_on_c, 2, 77, 92
3, 15934, Note_on_c, 2, 77, 0
3, 15936, Note_on_c, 2, 76, 92
3, 15966, Note_on_c, 2, 76, 0
3, 15968, Note_on_c, 2, 72, 92
3, 15998, Note_on_c, 2, 72, 0
3, 16000, Note_on_c, 2, 74, 92
3, 16030, Note_on_c, 2, 74, 0
3, 16032, Note_on_c, 2, 72, 92
3, 16126, Note_on_c, 2, 72, 0
3, 16320, Note_on_c, 2, 77, 92
3, 16350, Note_on_c, 2, 77, 0
3, 16352, Note_on_c, 2, 74, 82
3, 16382, Note_on_c, 2, 74, 0
3, 16384, Note_on_c, 2, 71, 72
3, 16414, Note_on_c, 2, 71, 0
3, 16416, Note_on_c, 2, 74, 62
3, 16446, Note_on_c, 2, 74, 0
3, 16448, Note_on_c, 2, 71, 52
3, 16478, Note_on_c, 2, 71, 0
3, 16480, Note_on_c, 2, 67, 41
3, 16510, Note_on_c, 2, 67, 0
3, 16512, Note_on_c, 2, 71, 30
3, 16542, Note_on_c, 2, 71, 0
3, 16544, Note_on_c, 2, 72, 30
3, 16574, Note_on_c, 2, 72, 0
3, 16576, Note_on_c, 2, 74, 30
3, 16606, Note_on_c, 2, 74, 0
3, 16608, Note_on_c, 2, 76, 30
3, 16638, Note_on_c, 2, 76, 0
3, 16640, Note_on_c, 2, 77, 30
3, 16670, Note_on_c, 2, 77, 0
3, 16672, Note_on_c, 2, 76, 30
3, 16702, Note_on_c, 2, 76, 0
3, 16896, Note_on_c, 2, 68, 30
3, 16926, Note_on_c, 2, 68, 0
3, 16928, Note_on_c, 2, 69, 30
3, 16958, Note_on_c, 2, 69, 0
3, 16960, Note_on_c, 2, 71, 30
3, 16990, Note_on_c, 2, 71, 0
3, 16992, Note_on_c, 2, 72, 30
3, 17022, Note_on_c, 2, 72, 0
3, 17024, Note_on_c, 2, 74, 30
3, 17054, Note_on_c, 2, 74, 0
3, 17056, Note_on_c, 2, 72, 30
3, 17086, Note_on_c, 2, 72, 0
3, 17088, Note_on_c, 2, 69, 30
3, 17118, Note_on_c, 2, 69, 0
3, 17120, Note_on_c, 2, 69, 30
3, 17150, Note_on_c, 2, 69, 0
3, 17152, Note_on_c, 2, 69, 30
3, 17182, Note_on_c, 2, 69, 0
3, 17184, Note_on_c, 2, 67, 30
3, 17214, Note_on_c, 2, 67, 0
3, 17216, Note_on_c, 2, 67, 30
3, 17246, Note_on_c, 2, 67, 0
3, 17248, Note_on_c, 2, 67, 30
3, 17278, Note_on_c, 2, 67, 0
3, 17280, Note_on_c, 2, 72, 30
3, 17376, Note_on_c, 2, 72, 0
3, 17376, Note_on_c, 2, 67, 52
3, 17472, Note_on_c, 2, 67, 0
3, 17472, Note_on_c, 2, 72, 75
3, 17566, Note_on_c, 2, 72, 0
3, 17568, Note_on_c, 2, 69, 60
3, 17600, Note_on_c, 2, 69, 0
3, 17664, Note_on_c, 2, 67, 45
3, 17952, Note_on_c, 2, 67, 0
3, 17952, Note_on_c, 2, 69, 45
3, 18000, Note_on_c, 2, 69, 0
3, 18000, Note_on_c, 2, 71, 45
3, 18046, Note_on_c, 2, 71, 0
3, 18048, Note_on_c, 2, 72, 45
3, 18144, Note_on_c, 2, 72, 0
3, 18144, Note_on_c, 2, 74, 48
3, 18240, Note_on_c, 2, 74, 0
3, 18240, Note_on_c, 2, 76, 51
3, 18272, Note_on_c, 2, 76, 0
3, 18336, Note_on_c, 2, 76, 55
3, 18368, Note_on_c, 2, 76, 0
3, 18432, Note_on_c, 2, 76, 59
3, 18528, Note_on_c, 2, 76, 0
3, 18528, Note_on_c, 2, 74, 63
3, 18624, Note_on_c, 2, 74, 0
3, 18624, Note_on_c, 2, 72, 67
3, 18720, Note_on_c, 2, 72, 0
3, 18720, Note_on_c, 2, 69, 71
3, 18814, Note_on_c, 2, 69, 0
3, 18816, Note_on_c, 2, 62, 30
3, 18816, Note_on_c, 2, 71, 30
3, 18862, Note_on_c, 2, 62, 0
3, 18862, Note_on_c, 2, 71, 0
3, 18864, Note_on_c, 2, 74, 30
3, 18910, Note_on_c, 2, 74, 0
3, 18912, Note_on_c, 2, 74, 30
3, 18958, Note_on_c, 2, 74, 0
3, 18960, Note_on_c, 2, 74, 30
3, 19006, Note_on_c, 2, 74, 0
3, 19008, Note_on_c, 2, 74, 30
3, 19054, Note_on_c, 2, 74, 0
3, 19056, Note_on_c, 2, 74, 30
3, 19102, Note_on_c, 2, 74, 0
3, 19104, Note_on_c, 2, 74, 30
3, 19150, Note_on_c, 2, 74, 0
3, 19152, Note_on_c, 2, 74, 30
3, 19198, Note_on_c, 2, 74, 0
3, 19200, Note_on_c, 2, 72, 30
3, 19246, Note_on_c, 2, 72, 0
3, 19248, Note_on_c, 2, 72, 30
3, 19294, Note_on_c, 2, 72, 0
3, 19296, Note_on_c, 2, 72, 30
3, 19342, Note_on_c, 2, 72, 0
3, 19344, Note_on_c, 2, 72, 30
3, 19390, Note_on_c, 2, 72, 0
3, 19392, Note_on_c, 2, 72, 30
3, 19438, Note_on_c, 2, 72, 0
3, 19440, Note_on_c, 2, 72, 30
3, 19486, Note_on_c, 2, 72, 0
3, 19488, Note_on_c, 2, 76, 30
3, 19534, Note_on_c, 2, 76, 0
3, 19536, Note_on_c, 2, 76, 30
3, 19582, Note_on_c, 2, 76, 0
3, 19584, Note_on_c, 2, 76, 30
3, 19614, Note_on_c, 2, 76, 0
3, 19616, Note_on_c, 2, 76, 30
3, 19646, Note_on_c, 2, 76, 0
3, 19648, Note_on_c, 2, 74, 30
3, 19678, Note_on_c, 2, 74, 0
3, 19680, Note_on_c, 2, 74, 30
3, 19710, Note_on_c, 2, 74, 0
3, 19712, Note_on_c, 2, 74, 30
3, 19742, Note_on_c, 2, 74, 0
3, 19744, Note_on_c, 2, 74, 30
3, 19774, Note_on_c, 2, 74, 0
3, 19776, Note_on_c, 2, 74, 30
3, 19806, Note_on_c, 2, 74, 0
3, 19808, Note_on_c, 2, 74, 30
3, 19838, Note_on_c, 2, 74, 0
3, 19840, Note_on_c, 2, 74, 30
3, 19870, Note_on_c, 2, 74, 0
3, 19872, Note_on_c, 2, 74, 30
3, 19902, Note_on_c, 2, 74, 0
3, 19904, Note_on_c, 2, 74, 30
3, 19934, Note_on_c, 2, 74, 0
3, 19936, Note_on_c, 2, 74, 30
3, 19966, Note_on_c, 2, 74, 0
3, 19968, Note_on_c, 2, 72, 30
3, 19998, Note_on_c, 2, 72, 0
3, 20000, Note_on_c, 2, 72, 32
3, 20030, Note_on_c, 2, 72, 0
3, 20032, Note_on_c, 2, 72, 34
3, 20062, Note_on_c, 2, 72, 0
3, 20064, Note_on_c, 2, 74, 36
3, 20094, Note_on_c, 2, 74, 0
3, 20096, Note_on_c, 2, 74, 39
3, 20126, Note_on_c, 2, 74, 0
3, 20128, Note_on_c, 2, 74, 42
3, 20158, Note_on_c, 2, 74, 0
3, 20160, Note_on_c, 2, 69, 45
3, 20190, Note_on_c, 2, 69, 0
3, 20192, Note_on_c, 2, 69, 45
3, 20222, Note_on_c, 2, 69, 0
3, 20224, Note_on_c, 2, 69, 45
3, 20254, Note_on_c, 2, 69, 0
3, 20256, Note_on_c, 2, 71, 45
3, 20286, Note_on_c, 2, 71, 0
3, 20288, Note_on_c, 2, 71, 45
3, 20318, Note_on_c, 2, 71, 0
3, 20320, Note_on_c, 2, 71, 45
3, 20350, Note_on_c, 2, 71, 0
3, 20352, Note_on_c, 2, 64, 45
3, 20544, Note_on_c, 2, 64, 0
3, 20544, Note_on_c, 2, 65, 60
3, 20704, Note_on_c, 2, 65, 0
3, 20736, Note_on_c, 2, 67, 45
3, 20768, Note_on_c, 2, 67, 0
3, 20832, Note_on_c, 2, 57, 45
3, 20832, Note_on_c, 2, 62, 45
3, 20864, Note_on_c, 2, 57, 0
3, 20864, Note_on_c, 2, 62, 0
3, 20928, Note_on_c, 2, 59, 45
3, 20928, Note_on_c, 2, 62, 45
3, 20960, Note_on_c, 2, 59, 0
3, 20960, Note_on_c, 2, 62, 0
3, 20960, Note_on_c, 2, 69, 45
3, 20992, Note_on_c, 2, 69, 0
3, 20992, Note_on_c, 2, 67, 45
3, 21024, Note_on_c, 2, 67, 0
3, 21024, Note_on_c, 2, 65, 45
3, 21056, Note_on_c, 2, 65, 0
3, 21056, Note_on_c, 2, 64, 45
3, 21088, Note_on_c, 2, 64, 0
3, 21088, Note_on_c, 2, 62, 45
3, 21118, Note_on_c, 2, 62, 0
3, 21120, Note_on_c, 2, 64, 45
3, 21312, Note_on_c, 2, 64, 0
3, 21312, Note_on_c, 2, 67, 58
3, 21536, Note_on_c, 2, 67, 0
3, 21536, Note_on_c, 2, 69, 73
3, 21568, Note_on_c, 2, 69, 0
3, 21568, Note_on_c, 2, 67, 75
3, 21600, Note_on_c, 2, 67, 0
3, 21600, Note_on_c, 2, 65, 77
3, 21632, Note_on_c, 2, 65, 0
3, 21632, Note_on_c, 2, 64, 79
3, 21664, Note_on_c, 2, 64, 0
3, 21664, Note_on_c, 2, 62, 81
3, 21694, Note_on_c, 2, 62, 0
3, 21696, Note_on_c, 2, 64, 83
3, 21728, Note_on_c, 2, 64, 0
3, 21792, Note_on_c, 2, 74, 92
3, 21824, Note_on_c, 2, 74, 0
3, 21888, Note_on_c, 2, 67, 92
3, 21888, Note_on_c, 2, 69, 92
3, 21920, Note_on_c, 2, 67, 0
3, 21920, Note_on_c, 2, 69, 0
3, 22176, Note_on_c, 2, 69, 45
3, 22272, Note_on_c, 2, 69, 0
3, 22272, Note_on_c, 2, 69, 45
3, 22366, Note_on_c, 2, 69, 0
3, 22536, Note_on_c, 2, 62, 45
3, 22560, Note_on_c, 2, 62, 0
3, 22560, Note_on_c, 2, 55, 45
3, 22608, Note_on_c, 2, 55, 0
3, 22608, Note_on_c, 2, 59, 45
3, 22656, Note_on_c, 2, 59, 0
3, 22656, Note_on_c, 2, 60, 45
3, 22750, Note_on_c, 2, 60, 0
3, 22944, Note_on_c, 2, 76, 45
3, 23040, Note_on_c, 2, 76, 0
3, 23040, Note_on_c, 2, 74, 45
3, 23134, Note_on_c, 2, 74, 0
3, 23304, Note_on_c, 2, 62, 45
3, 23328, Note_on_c, 2, 62, 0
3, 23376, Note_on_c, 2, 59, 45
3, 23424, Note_on_c, 2, 59, 0
3, 23424, Note_on_c, 2, 62, 45
3, 23518, Note_on_c, 2, 62, 0
3, 25344, Note_on_c, 2, 62, 45
3, 25368, Note_on_c, 2, 62, 0
3, 25368, Note_on_c, 2, 64, 45
3, 25392, Note_on_c, 2, 64, 0
3, 25392, Note_on_c, 2, 65, 45
3, 25536, Note_on_c, 2, 65, 0
3, 25536, Note_on_c, 2, 60, 45
3, 25704, Note_on_c, 2, 60, 0
3, 25704, Note_on_c, 2, 62, 45
3, 25726, Note_on_c, 2, 62, 0
3, 25728, Note_on_c, 2, 59, 45
3, 25888, Note_on_c, 2, 59, 0
3, 26496, Note_on_c, 2, 60, 45
3, 26526, Note_on_c, 2, 60, 0
3, 26528, Note_on_c, 2, 63, 45
3, 26558, Note_on_c, 2, 63, 0
3, 26560, Note_on_c, 2, 67, 45
3, 26590, Note_on_c, 2, 67, 0
3, 26592, Note_on_c, 2, 72, 45
3, 26622, Note_on_c, 2, 72, 0
3, 26624, Note_on_c, 2, 75, 45
3, 26654, Note_on_c, 2, 75, 0
3, 26656, Note_on_c, 2, 79, 45
3, 26686, Note_on_c, 2, 79, 0
3, 26688, Note_on_c, 2, 84, 45
3, 26782, Note_on_c, 2, 84, 0
3, 26880, Note_on_c, 2, 70, 45
3, 26904, Note_on_c, 2, 70, 0
3, 26904, Note_on_c, 2, 72, 45
3, 26928, Note_on_c, 2, 72, 0
3, 26928, Note_on_c, 2, 73, 45
3, 27072, Note_on_c, 2, 73, 0
3, 27072, Note_on_c, 2, 69, 45
3, 27240, Note_on_c, 2, 69, 0
3, 27240, Note_on_c, 2, 70, 45
3, 27262, Note_on_c, 2, 70, 0
3, 27264, Note_on_c, 2, 67, 45
3, 27456, Note_on_c, 2, 67, 0
3, 27456, Note_on_c, 2, 73, 45
3, 27648, Note_on_c, 2, 73, 0
3, 27648, Note_on_c, 2, 63, 45
3, 27840, Note_on_c, 2, 63, 0
3, 27840, Note_on_c, 2, 70, 45
3, 28032, Note_on_c, 2, 70, 0
3, 28032, Note_on_c, 2, 68, 45
3, 28192, Note_on_c, 2, 68, 0
3, 28224, Note_on_c, 2, 75, 45
3, 28416, Note_on_c, 2, 75, 0
3, 28416, Note_on_c, 2, 65, 45
3, 28608, Note_on_c, 2, 65, 0
3, 28608, Note_on_c, 2, 72, 45
3, 28800, Note_on_c, 2, 72, 0
3, 28800, Note_on_c, 2, 70, 45
3, 28992, Note_on_c, 2, 70, 0
3, 28992, Note_on_c, 2, 77, 45
3, 29184, Note_on_c, 2, 77, 0
3, 29184, Note_on_c, 2, 67, 45
3, 29344, Note_on_c, 2, 67, 0
3, 29376, Note_on_c, 2, 63, 45
3, 29376, Note_on_c, 2, 73, 45
3, 29536, Note_on_c, 2, 63, 0
3, 29536, Note_on_c, 2, 73, 0
3, 29568, Note_on_c, 2, 72, 45
3, 29598, Note_on_c, 2, 72, 0
3, 29600, Note_on_c, 2, 63, 46
3, 29630, Note_on_c, 2, 63, 0
3, 29632, Note_on_c, 2, 68, 48
3, 29662, Note_on_c, 2, 68, 0
3, 29664, Note_on_c, 2, 72, 50
3, 29694, Note_on_c, 2, 72, 0
3, 29696, Note_on_c, 2, 75, 52
3, 29726, Note_on_c, 2, 75, 0
3, 29728, Note_on_c, 2, 80, 54
3, 29758, Note_on_c, 2, 80, 0
3, 29760, Note_on_c, 2, 75, 56
3, 29854, Note_on_c, 2, 75, 0
3, 29952, Note_on_c, 2, 72, 68
3, 29976, Note_on_c, 2, 72, 0
3, 29976, Note_on_c, 2, 73, 68
3, 30000, Note_on_c, 2, 73, 0
3, 30000, Note_on_c, 2, 75, 68
3, 30144, Note_on_c, 2, 75, 0
3, 30144, Note_on_c, 2, 76, 80
3, 30312, Note_on_c, 2, 76, 0
3, 30312, Note_on_c, 2, 77, 90
3, 30334, Note_on_c, 2, 77, 0
3, 30336, Note_on_c, 2, 69, 92
3, 30336, Note_on_c, 2, 77, 92
3, 30382, Note_on_c, 2, 69, 0
3, 30382, Note_on_c, 2, 77, 0
3, 30408, Note_on_c, 2, 72, 92
3, 30432, Note_on_c, 2, 72, 0
3, 30432, Note_on_c, 2, 65, 92
3, 30480, Note_on_c, 2, 65, 0
3, 30480, Note_on_c, 2, 69, 92
3, 30528, Note_on_c, 2, 69, 0
3, 30528, Note_on_c, 2, 72, 92
3, 30560, Note_on_c, 2, 72, 0
3, 31176, Note_on_c, 2, 74, 45
3, 31200, Note_on_c, 2, 74, 0
3, 31200, Note_on_c, 2, 65, 45
3, 31248, Note_on_c, 2, 65, 0
3, 31248, Note_on_c, 2, 70, 45
3, 31296, Note_on_c, 2, 70, 0
3, 31296, Note_on_c, 2, 72, 45
3, 31328, Note_on_c, 2, 72, 0
3, 31584, Note_on_c, 2, 62, 45
3, 31656, Note_on_c, 2, 62, 0
3, 31656, Note_on_c, 2, 63, 65
3, 31678, Note_on_c, 2, 63, 0
3, 31680, Note_on_c, 2, 65, 71
3, 31750, Note_on_c, 2, 65, 0
3, 31752, Note_on_c, 2, 67, 92
3, 31776, Note_on_c, 2, 67, 0
3, 31776, Note_on_c, 2, 60, 92
3, 31824, Note_on_c, 2, 60, 0
3, 31824, Note_on_c, 2, 64, 92
3, 31872, Note_on_c, 2, 64, 0
3, 31872, Note_on_c, 2, 67, 92
3, 31904, Note_on_c, 2, 67, 0
3, 32352, Note_on_c, 2, 60, 45
3, 32384, Note_on_c, 2, 60, 0
3, 32448, Note_on_c, 2, 60, 45
3, 32480, Note_on_c, 2, 60, 0
3, 32544, Note_on_c, 2, 55, 45
3, 32576, Note_on_c, 2, 55, 0
3, 32736, Note_on_c, 2, 69, 45
3, 32992, Note_on_c, 2, 69, 0
3, 33120, Note_on_c, 2, 81, 45
3, 33192, Note_on_c, 2, 81, 0
3, 33192, Note_on_c, 2, 83, 45
3, 33214, Note_on_c, 2, 83, 0
3, 33216, Note_on_c, 2, 84, 45
3, 33376, Note_on_c, 2, 84, 0
3, 33600, Note_on_c, 2, 81, 45
3, 33672, Note_on_c, 2, 81, 0
3, 33672, Note_on_c, 2, 83, 45
3, 33694, Note_on_c, 2, 83, 0
3, 33696, Note_on_c, 2, 72, 45
3, 33768, Note_on_c, 2, 72, 0
3, 33768, Note_on_c, 2, 74, 45
3, 33790, Note_on_c, 2, 74, 0
3, 33792, Note_on_c, 2, 69, 45
3, 33792, Note_on_c, 2, 76, 45
3, 33886, Note_on_c, 2, 69, 0
3, 33886, Note_on_c, 2, 76, 0
3, 33984, Note_on_c, 2, 56, 45
3, 34078, Note_on_c, 2, 56, 0
3, 34368, Note_on_c, 2, 61, 45
3, 34392, Note_on_c, 2, 61, 0
3, 34392, Note_on_c, 2, 62, 45
3, 34416, Note_on_c, 2, 62, 0
3, 34416, Note_on_c, 2, 64, 45
3, 34462, Note_on_c, 2, 64, 0
3, 34560, Note_on_c, 2, 65, 45
3, 34590, Note_on_c, 2, 65, 0
3, 34592, Note_on_c, 2, 67, 45
3, 34622, Note_on_c, 2, 67, 0
3, 34624, Note_on_c, 2, 69, 45
3, 34654, Note_on_c, 2, 69, 0
3, 34656, Note_on_c, 2, 69, 45
3, 34686, Note_on_c, 2, 69, 0
3, 34688, Note_on_c, 2, 69, 45
3, 34718, Note_on_c, 2, 69, 0
3, 34720, Note_on_c, 2, 69, 45
3, 34750, Note_on_c, 2, 69, 0
3, 34752, Note_on_c, 2, 67, 45
3, 34782, Note_on_c, 2, 67, 0
3, 34784, Note_on_c, 2, 65, 45
3, 34814, Note_on_c, 2, 65, 0
3, 34816, Note_on_c, 2, 64, 45
3, 34846, Note_on_c, 2, 64, 0
3, 34848, Note_on_c, 2, 64, 45
3, 34878, Note_on_c, 2, 64, 0
3, 34880, Note_on_c, 2, 64, 45
3, 34910, Note_on_c, 2, 64, 0
3, 34912, Note_on_c, 2, 64, 45
3, 34942, Note_on_c, 2, 64, 0
3, 34944, Note_on_c, 2, 65, 45
3, 34974, Note_on_c, 2, 65, 0
3, 34976, Note_on_c, 2, 64, 45
3, 35006, Note_on_c, 2, 64, 0
3, 35008, Note_on_c, 2, 62, 45
3, 35038, Note_on_c, 2, 62, 0
3, 35040, Note_on_c, 2, 64, 45
3, 35070, Note_on_c, 2, 64, 0
3, 35072, Note_on_c, 2, 62, 45
3, 35102, Note_on_c, 2, 62, 0
3, 35104, Note_on_c, 2, 61, 45
3, 35134, Note_on_c, 2, 61, 0
3, 35136, Note_on_c, 2, 62, 45
3, 35166, Note_on_c, 2, 62, 0
3, 35168, Note_on_c, 2, 64, 45
3, 35198, Note_on_c, 2, 64, 0
3, 35200, Note_on_c, 2, 66, 45
3, 35230, Note_on_c, 2, 66, 0
3, 35232, Note_on_c, 2, 66, 45
3, 35262, Note_on_c, 2, 66, 0
3, 35264, Note_on_c, 2, 64, 45
3, 35294, Note_on_c, 2, 64, 0
3, 35296, Note_on_c, 2, 62, 45
3, 35326, Note_on_c, 2, 62, 0
3, 35328, Note_on_c, 2, 62, 45
3, 35360, Note_on_c, 2, 62, 0
3, 35424, Note_on_c, 2, 59, 45
3, 35456, Note_on_c, 2, 59, 0
3, 35520, Note_on_c, 2, 66, 45
3, 35552, Note_on_c, 2, 66, 0
3, 35616, Note_on_c, 2, 57, 45
3, 35616, Note_on_c, 2, 62, 45
3, 35648, Note_on_c, 2, 57, 0
3, 35648, Note_on_c, 2, 62, 0
3, 35712, Note_on_c, 2, 59, 45
3, 35712, Note_on_c, 2, 62, 45
3, 35744, Note_on_c, 2, 59, 0
3, 35744, Note_on_c, 2, 62, 0
3, 35808, Note_on_c, 2, 60, 45
3, 35808, Note_on_c, 2, 62, 45
3, 35840, Note_on_c, 2, 60, 0
3, 35840, Note_on_c, 2, 62, 0
3, 35904, Note_on_c, 2, 71, 45
3, 35934, Note_on_c, 2, 71, 0
3, 35936, Note_on_c, 2, 69, 45
3, 35966, Note_on_c, 2, 69, 0
3, 35968, Note_on_c, 2, 67, 45
3, 35998, Note_on_c, 2, 67, 0
3, 36000, Note_on_c, 2, 67, 45
3, 36030, Note_on_c, 2, 67, 0
3, 36032, Note_on_c, 2, 69, 45
3, 36062, Note_on_c, 2, 69, 0
3, 36064, Note_on_c, 2, 71, 45
3, 36094, Note_on_c, 2, 71, 0
3, 36096, Note_on_c, 2, 74, 45
3, 36126, Note_on_c, 2, 74, 0
3, 36128, Note_on_c, 2, 72, 45
3, 36158, Note_on_c, 2, 72, 0
3, 36160, Note_on_c, 2, 71, 45
3, 36190, Note_on_c, 2, 71, 0
3, 36192, Note_on_c, 2, 69, 45
3, 36222, Note_on_c, 2, 69, 0
3, 36224, Note_on_c, 2, 71, 45
3, 36254, Note_on_c, 2, 71, 0
3, 36256, Note_on_c, 2, 72, 45
3, 36286, Note_on_c, 2, 72, 0
3, 36288, Note_on_c, 2, 71, 45
3, 36318, Note_on_c, 2, 71, 0
3, 36320, Note_on_c, 2, 69, 45
3, 36350, Note_on_c, 2, 69, 0
3, 36352, Note_on_c, 2, 67, 45
3, 36382, Note_on_c, 2, 67, 0
3, 36384, Note_on_c, 2, 67, 45
3, 36414, Note_on_c, 2, 67, 0
3, 36416, Note_on_c, 2, 66, 45
3, 36446, Note_on_c, 2, 66, 0
3, 36448, Note_on_c, 2, 67, 45
3, 36478, Note_on_c, 2, 67, 0
3, 36480, Note_on_c, 2, 71, 45
3, 36510, Note_on_c, 2, 71, 0
3, 36512, Note_on_c, 2, 72, 45
3, 36542, Note_on_c, 2, 72, 0
3, 36544, Note_on_c, 2, 74, 45
3, 36574, Note_on_c, 2, 74, 0
3, 36576, Note_on_c, 2, 76, 45
3, 36606, Note_on_c, 2, 76, 0
3, 36608, Note_on_c, 2, 74, 45
3, 36638, Note_on_c, 2, 74, 0
3, 36640, Note_on_c, 2, 78, 45
3, 36670, Note_on_c, 2, 78, 0
3, 36672, Note_on_c, 2, 79, 45
3, 36702, Note_on_c, 2, 79, 0
3, 36704, Note_on_c, 2, 69, 45
3, 36734, Note_on_c, 2, 69, 0
3, 36736, Note_on_c, 2, 71, 45
3, 36766, Note_on_c, 2, 71, 0
3, 36768, Note_on_c, 2, 71, 45
3, 36798, Note_on_c, 2, 71, 0
3, 36800, Note_on_c, 2, 69, 45
3, 36830, Note_on_c, 2, 69, 0
3, 36832, Note_on_c, 2, 67, 45
3, 36862, Note_on_c, 2, 67, 0
3, 36864, Note_on_c, 2, 76, 45
3, 36894, Note_on_c, 2, 76, 0
3, 36896, Note_on_c, 2, 74, 45
3, 36926, Note_on_c, 2, 74, 0
3, 36928, Note_on_c, 2, 72, 45
3, 36958, Note_on_c, 2, 72, 0
3, 36960, Note_on_c, 2, 71, 45
3, 36990, Note_on_c, 2, 71, 0
3, 36992, Note_on_c, 2, 72, 45
3, 37022, Note_on_c, 2, 72, 0
3, 37024, Note_on_c, 2, 74, 45
3, 37054, Note_on_c, 2, 74, 0
3, 37056, Note_on_c, 2, 72, 45
3, 37086, Note_on_c, 2, 72, 0
3, 37088, Note_on_c, 2, 74, 45
3, 37118, Note_on_c, 2, 74, 0
3, 37120, Note_on_c, 2, 76, 45
3, 37150, Note_on_c, 2, 76, 0
3, 37152, Note_on_c, 2, 76, 45
3, 37182, Note_on_c, 2, 76, 0
3, 37184, Note_on_c, 2, 74, 45
3, 37214, Note_on_c, 2, 74, 0
3, 37216, Note_on_c, 2, 72, 45
3, 37246, Note_on_c, 2, 72, 0
3, 37248, Note_on_c, 2, 64, 45
3, 37278, Note_on_c, 2, 64, 0
3, 37280, Note_on_c, 2, 62, 45
3, 37310, Note_on_c, 2, 62, 0
3, 37344, Note_on_c, 2, 59, 45
3, 37374, Note_on_c, 2, 59, 0
3, 37408, Note_on_c, 2, 62, 45
3, 37438, Note_on_c, 2, 62, 0
3, 37472, Note_on_c, 2, 62, 45
3, 37502, Note_on_c, 2, 62, 0
3, 37504, Note_on_c, 2, 64, 45
3, 37534, Note_on_c, 2, 64, 0
3, 37536, Note_on_c, 2, 64, 45
3, 37566, Note_on_c, 2, 64, 0
3, 37568, Note_on_c, 2, 62, 45
3, 37598, Note_on_c, 2, 62, 0
3, 37632, Note_on_c, 2, 72, 45
3, 37662, Note_on_c, 2, 72, 0
3, 37664, Note_on_c, 2, 74, 46
3, 37694, Note_on_c, 2, 74, 0
3, 37696, Note_on_c, 2, 76, 48
3, 37726, Note_on_c, 2, 76, 0
3, 37728, Note_on_c, 2, 77, 50
3, 37758, Note_on_c, 2, 77, 0
3, 37760, Note_on_c, 2, 76, 52
3, 37790, Note_on_c, 2, 76, 0
3, 37792, Note_on_c, 2, 74, 54
3, 37822, Note_on_c, 2, 74, 0
3, 37824, Note_on_c, 2, 76, 56
3, 37854, Note_on_c, 2, 76, 0
3, 37856, Note_on_c, 2, 74, 58
3, 37886, Note_on_c, 2, 74, 0
3, 37888, Note_on_c, 2, 72, 60
3, 37918, Note_on_c, 2, 72, 0
3, 37920, Note_on_c, 2, 72, 62
3, 37950, Note_on_c, 2, 72, 0
3, 37952, Note_on_c, 2, 74, 64
3, 37982, Note_on_c, 2, 74, 0
3, 37984, Note_on_c, 2, 76, 66
3, 38014, Note_on_c, 2, 76, 0
3, 38016, Note_on_c, 2, 64, 68
3, 38046, Note_on_c, 2, 64, 0
3, 38048, Note_on_c, 2, 62, 70
3, 38078, Note_on_c, 2, 62, 0
3, 38080, Note_on_c, 2, 60, 72
3, 38110, Note_on_c, 2, 60, 0
3, 38112, Note_on_c, 2, 68, 74
3, 38142, Note_on_c, 2, 68, 0
3, 38144, Note_on_c, 2, 67, 76
3, 38174, Note_on_c, 2, 67, 0
3, 38176, Note_on_c, 2, 65, 78
3, 38206, Note_on_c, 2, 65, 0
3, 38208, Note_on_c, 2, 67, 80
3, 38238, Note_on_c, 2, 67, 0
3, 38240, Note_on_c, 2, 65, 82
3, 38270, Note_on_c, 2, 65, 0
3, 38272, Note_on_c, 2, 64, 84
3, 38302, Note_on_c, 2, 64, 0
3, 38304, Note_on_c, 2, 76, 86
3, 38334, Note_on_c, 2, 76, 0
3, 38336, Note_on_c, 2, 77, 88
3, 38366, Note_on_c, 2, 77, 0
3, 38368, Note_on_c, 2, 79, 90
3, 38398, Note_on_c, 2, 79, 0
3, 38400, Note_on_c, 2, 79, 92
3, 38430, Note_on_c, 2, 79, 0
3, 38432, Note_on_c, 2, 81, 92
3, 38462, Note_on_c, 2, 81, 0
3, 38464, Note_on_c, 2, 82, 92
3, 38494, Note_on_c, 2, 82, 0
3, 38496, Note_on_c, 2, 82, 92
3, 38526, Note_on_c, 2, 82, 0
3, 38528, Note_on_c, 2, 82, 92
3, 38558, Note_on_c, 2, 82, 0
3, 38560, Note_on_c, 2, 82, 92
3, 38590, Note_on_c, 2, 82, 0
3, 38592, Note_on_c, 2, 70, 127
3, 38880, Note_on_c, 2, 70, 0
3, 38880, Note_on_c, 2, 65, 92
3, 38952, Note_on_c, 2, 65, 0
3, 38952, Note_on_c, 2, 67, 92
3, 38976, Note_on_c, 2, 67, 0
3, 38976, Note_on_c, 2, 64, 92
3, 39022, Note_on_c, 2, 64, 0
3, 39048, Note_on_c, 2, 70, 92
3, 39072, Note_on_c, 2, 70, 0
3, 39072, Note_on_c, 2, 65, 92
3, 39120, Note_on_c, 2, 65, 0
3, 39120, Note_on_c, 2, 67, 92
3, 39168, Note_on_c, 2, 67, 0
3, 39168, Note_on_c, 2, 64, 92
3, 39262, Note_on_c, 2, 64, 0
3, 39624, Note_on_c, 2, 81, 45
3, 39648, Note_on_c, 2, 81, 0
3, 39648, Note_on_c, 2, 72, 45
3, 39696, Note_on_c, 2, 72, 0
3, 39696, Note_on_c, 2, 77, 45
3, 39744, Note_on_c, 2, 77, 0
3, 39744, Note_on_c, 2, 79, 45
3, 39776, Note_on_c, 2, 79, 0
3, 40032, Note_on_c, 2, 81, 45
3, 40104, Note_on_c, 2, 81, 0
3, 40104, Note_on_c, 2, 82, 56
3, 40126, Note_on_c, 2, 82, 0
3, 40128, Note_on_c, 2, 84, 59
3, 40222, Note_on_c, 2, 84, 0
3, 40800, Note_on_c, 2, 69, 45
3, 40872, Note_on_c, 2, 69, 0
3, 40872, Note_on_c, 2, 70, 57
3, 40896, Note_on_c, 2, 70, 0
3, 40896, Note_on_c, 2, 72, 61
3, 40942, Note_on_c, 2, 72, 0
3, 40968, Note_on_c, 2, 77, 45
3, 40992, Note_on_c, 2, 77, 0
3, 40992, Note_on_c, 2, 76, 45
3, 41040, Note_on_c, 2, 76, 0
3, 41040, Note_on_c, 2, 74, 45
3, 41088, Note_on_c, 2, 74, 0
3, 41088, Note_on_c, 2, 72, 45
3, 41134, Note_on_c, 2, 72, 0
3, 41160, Note_on_c, 2, 74, 45
3, 41184, Note_on_c, 2, 74, 0
3, 41184, Note_on_c, 2, 70, 45
3, 41232, Note_on_c, 2, 70, 0
3, 41232, Note_on_c, 2, 67, 45
3, 41280, Note_on_c, 2, 67, 0
3, 41280, Note_on_c, 2, 65, 45
3, 41326, Note_on_c, 2, 65, 0
3, 41352, Note_on_c, 2, 70, 45
3, 41376, Note_on_c, 2, 70, 0
3, 41376, Note_on_c, 2, 67, 45
3, 41424, Note_on_c, 2, 67, 0
3, 41424, Note_on_c, 2, 58, 45
3, 41472, Note_on_c, 2, 58, 0
3, 41472, Note_on_c, 2, 57, 45
3, 41566, Note_on_c, 2, 57, 0
3, 43392, Note_on_c, 2, 72, 45
3, 43416, Note_on_c, 2, 72, 0
3, 43416, Note_on_c, 2, 74, 45
3, 43440, Note_on_c, 2, 74, 0
3, 43440, Note_on_c, 2, 75, 45
3, 43584, Note_on_c, 2, 75, 0
3, 43584, Note_on_c, 2, 70, 45
3, 43752, Note_on_c, 2, 70, 0
3, 43752, Note_on_c, 2, 72, 45
3, 43774, Note_on_c, 2, 72, 0
3, 43776, Note_on_c, 2, 69, 45
3, 43870, Note_on_c, 2, 69, 0
3, 43968, Note_on_c, 2, 66, 45
3, 44064, Note_on_c, 2, 66, 0
3, 44064, Note_on_c, 2, 67, 45
3, 44160, Note_on_c, 2, 67, 0
3, 44160, Note_on_c, 2, 56, 45
3, 44256, Note_on_c, 2, 56, 0
3, 44256, Note_on_c, 2, 57, 45
3, 44352, Note_on_c, 2, 57, 0
3, 44352, Note_on_c, 2, 65, 45
3, 44448, Note_on_c, 2, 65, 0
3, 44448, Note_on_c, 2, 63, 45
3, 44542, Note_on_c, 2, 63, 0
3, 44544, Note_on_c, 2, 63, 45
3, 44640, Note_on_c, 2, 63, 0
3, 44640, Note_on_c, 2, 62, 45
3, 44734, Note_on_c, 2, 62, 0
3, 44736, Note_on_c, 2, 65, 45
3, 44832, Note_on_c, 2, 65, 0
3, 44832, Note_on_c, 2, 63, 48
3, 44926, Note_on_c, 2, 63, 0
3, 44928, Note_on_c, 2, 63, 51
3, 45024, Note_on_c, 2, 63, 0
3, 45024, Note_on_c, 2, 62, 54
3, 45120, Note_on_c, 2, 62, 0
3, 45120, Note_on_c, 2, 72, 57
3, 45216, Note_on_c, 2, 72, 0
3, 45216, Note_on_c, 2, 70, 60
3, 45312, Note_on_c, 2, 70, 0
3, 45312, Note_on_c, 2, 69, 63
3, 45408, Note_on_c, 2, 69, 0
3, 45408, Note_on_c, 2, 67, 66
3, 45502, Note_on_c, 2, 67, 0
3, 45504, Note_on_c, 2, 58, 69
3, 45600, Note_on_c, 2, 58, 0
3, 45600, Note_on_c, 2, 57, 72
3, 45694, Note_on_c, 2, 57, 0
3, 45696, Note_on_c, 2, 63, 76
3, 45728, Note_on_c, 2, 63, 0
3, 45792, Note_on_c, 2, 63, 80
3, 45824, Note_on_c, 2, 63, 0
3, 45888, Note_on_c, 2, 63, 84
3, 45920, Note_on_c, 2, 63, 0
3, 45984, Note_on_c, 2, 63, 88
3, 46016, Note_on_c, 2, 63, 0
3, 46080, Note_on_c, 2, 55, 92
3, 46080, Note_on_c, 2, 64, 92
3, 46112, Note_on_c, 2, 55, 0
3, 46112, Note_on_c, 2, 64, 0
3, 46368, Note_on_c, 2, 55, 45
3, 46558, Note_on_c, 2, 55, 0
3, 46560, Note_on_c, 2, 66, 45
3, 46632, Note_on_c, 2, 66, 0
3, 46632, Note_on_c, 2, 69, 45
3, 46654, Note_on_c, 2, 69, 0
3, 46656, Note_on_c, 2, 67, 45
3, 46688, Note_on_c, 2, 67, 0
3, 46752, Note_on_c, 2, 67, 45
3, 46784, Note_on_c, 2, 67, 0
3, 46848, Note_on_c, 2, 67, 45
3, 46942, Note_on_c, 2, 67, 0
3, 46944, Note_on_c, 2, 64, 45
3, 47016, Note_on_c, 2, 64, 0
3, 47016, Note_on_c, 2, 67, 45
3, 47038, Note_on_c, 2, 67, 0
3, 47040, Note_on_c, 2, 65, 45
3, 47072, Note_on_c, 2, 65, 0
3, 47136, Note_on_c, 2, 60, 45
3, 47168, Note_on_c, 2, 60, 0
3, 47232, Note_on_c, 2, 59, 45
3, 47424, Note_on_c, 2, 59, 0
3, 47424, Note_on_c, 2, 58, 45
3, 47584, Note_on_c, 2, 58, 0
3, 47616, Note_on_c, 2, 57, 45
3, 47662, Note_on_c, 2, 57, 0
3, 47664, Note_on_c, 2, 69, 45
3, 47710, Note_on_c, 2, 69, 0
3, 47712, Note_on_c, 2, 69, 45
3, 47758, Note_on_c, 2, 69, 0
3, 47760, Note_on_c, 2, 69, 45
3, 47806, Note_on_c, 2, 69, 0
3, 47808, Note_on_c, 2, 69, 45
3, 47902, Note_on_c, 2, 69, 0
3, 48240, Note_on_c, 2, 82, 45
3, 48288, Note_on_c, 2, 82, 0
3, 48288, Note_on_c, 2, 77, 45
3, 48336, Note_on_c, 2, 77, 0
3, 48336, Note_on_c, 2, 79, 45
3, 48382, Note_on_c, 2, 79, 0
3, 48384, Note_on_c, 2, 81, 45
3, 48622, Note_on_c, 2, 81, 0
3, 48624, Note_on_c, 2, 86, 45
3, 48672, Note_on_c, 2, 86, 0
3, 48672, Note_on_c, 2, 85, 45
3, 48720, Note_on_c, 2, 85, 0
3, 48720, Note_on_c, 2, 86, 45
3, 48768, Note_on_c, 2, 86, 0
3, 48768, Note_on_c, 2, 81, 45
3, 48800, Note_on_c, 2, 81, 0
3, 48816, Note_on_c, 2, 82, 45
3, 48864, Note_on_c, 2, 82, 0
3, 48864, Note_on_c, 2, 77, 45
3, 48912, Note_on_c, 2, 77, 0
3, 48912, Note_on_c, 2, 79, 45
3, 48960, Note_on_c, 2, 79, 0
3, 48960, Note_on_c, 2, 81, 45
3, 48992, Note_on_c, 2, 81, 0
3, 49008, Note_on_c, 2, 77, 45
3, 49056, Note_on_c, 2, 77, 0
3, 49056, Note_on_c, 2, 79, 45
3, 49104, Note_on_c, 2, 79, 0
3, 49104, Note_on_c, 2, 77, 45
3, 49150, Note_on_c, 2, 77, 0
3, 49152, Note_on_c, 2, 76, 45
3, 49390, Note_on_c, 2, 76, 0
3, 49392, Note_on_c, 2, 55, 45
3, 49440, Note_on_c, 2, 55, 0
3, 49440, Note_on_c, 2, 64, 45
3, 49486, Note_on_c, 2, 64, 0
3, 49512, Note_on_c, 2, 64, 45
3, 49528, Note_on_c, 2, 64, 0
3, 49536, Note_on_c, 2, 62, 45
3, 49584, Note_on_c, 2, 62, 0
3, 49584, Note_on_c, 2, 67, 45
3, 49632, Note_on_c, 2, 67, 0
3, 49632, Note_on_c, 2, 74, 45
3, 49678, Note_on_c, 2, 74, 0
3, 49680, Note_on_c, 2, 74, 45
3, 49712, Note_on_c, 2, 74, 0
3, 49728, Note_on_c, 2, 74, 45
3, 49776, Note_on_c, 2, 74, 0
3, 49776, Note_on_c, 2, 67, 45
3, 49824, Note_on_c, 2, 67, 0
3, 49824, Note_on_c, 2, 77, 45
3, 49870, Note_on_c, 2, 77, 0
3, 49896, Note_on_c, 2, 77, 45
3, 49912, Note_on_c, 2, 77, 0
3, 49920, Note_on_c, 2, 77, 45
3, 50112, Note_on_c, 2, 77, 0
3, 50112, Note_on_c, 2, 76, 45
3, 50272, Note_on_c, 2, 76, 0
3, 50544, Note_on_c, 2, 57, 45
3, 50592, Note_on_c, 2, 57, 0
3, 50592, Note_on_c, 2, 65, 45
3, 50638, Note_on_c, 2, 65, 0
3, 50664, Note_on_c, 2, 65, 45
3, 50680, Note_on_c, 2, 65, 0
3, 50688, Note_on_c, 2, 65, 45
3, 50926, Note_on_c, 2, 65, 0
3, 50928, Note_on_c, 2, 65, 57
3, 50976, Note_on_c, 2, 65, 0
3, 50976, Note_on_c, 2, 77, 59
3, 51022, Note_on_c, 2, 77, 0
3, 51048, Note_on_c, 2, 77, 62
3, 51064, Note_on_c, 2, 77, 0
3, 51072, Note_on_c, 2, 78, 63
3, 51168, Note_on_c, 2, 78, 0
3, 51168, Note_on_c, 2, 66, 69
3, 51264, Note_on_c, 2, 66, 0
3, 51264, Note_on_c, 2, 67, 75
3, 51360, Note_on_c, 2, 67, 0
3, 51360, Note_on_c, 2, 64, 60
3, 51454, Note_on_c, 2, 64, 0
3, 51504, Note_on_c, 2, 60, 45
3, 51536, Note_on_c, 2, 60, 0
3, 51552, Note_on_c, 2, 65, 45
3, 51584, Note_on_c, 2, 65, 0
3, 51600, Note_on_c, 2, 65, 45
3, 51632, Note_on_c, 2, 65, 0
3, 51696, Note_on_c, 2, 55, 45
3, 51728, Note_on_c, 2, 55, 0
3, 51744, Note_on_c, 2, 64, 45
3, 51776, Note_on_c, 2, 64, 0
3, 51792, Note_on_c, 2, 64, 45
3, 51824, Note_on_c, 2, 64, 0
3, 51840, Note_on_c, 2, 77, 45
3, 51870, Note_on_c, 2, 77, 0
3, 51872, Note_on_c, 2, 72, 46
3, 51902, Note_on_c, 2, 72, 0
3, 51904, Note_on_c, 2, 74, 47
3, 51934, Note_on_c, 2, 74, 0
3, 51936, Note_on_c, 2, 72, 48
3, 51966, Note_on_c, 2, 72, 0
3, 51968, Note_on_c, 2, 69, 49
3, 51998, Note_on_c, 2, 69, 0
3, 52000, Note_on_c, 2, 70, 50
3, 52030, Note_on_c, 2, 70, 0
3, 52032, Note_on_c, 2, 69, 51
3, 52062, Note_on_c, 2, 69, 0
3, 52064, Note_on_c, 2, 65, 52
3, 52094, Note_on_c, 2, 65, 0
3, 52096, Note_on_c, 2, 67, 53
3, 52126, Note_on_c, 2, 67, 0
3, 52128, Note_on_c, 2, 57, 54
3, 52222, Note_on_c, 2, 57, 0
3, 52320, Note_on_c, 2, 55, 62
3, 52320, Note_on_c, 2, 64, 62
3, 52414, Note_on_c, 2, 55, 0
3, 52414, Note_on_c, 2, 64, 0
3, 52416, Note_on_c, 2, 60, 66
3, 52446, Note_on_c, 2, 60, 0
3, 52448, Note_on_c, 2, 64, 67
3, 52478, Note_on_c, 2, 64, 0
3, 52480, Note_on_c, 2, 67, 68
3, 52510, Note_on_c, 2, 67, 0
3, 52512, Note_on_c, 2, 72, 69
3, 52542, Note_on_c, 2, 72, 0
3, 52544, Note_on_c, 2, 76, 71
3, 52574, Note_on_c, 2, 76, 0
3, 52576, Note_on_c, 2, 79, 73
3, 52606, Note_on_c, 2, 79, 0
3, 52608, Note_on_c, 2, 82, 45
3, 52638, Note_on_c, 2, 82, 0
3, 52640, Note_on_c, 2, 79, 46
3, 52670, Note_on_c, 2, 79, 0
3, 52672, Note_on_c, 2, 81, 48
3, 52702, Note_on_c, 2, 81, 0
3, 52704, Note_on_c, 2, 79, 50
3, 52734, Note_on_c, 2, 79, 0
3, 52736, Note_on_c, 2, 76, 52
3, 52766, Note_on_c, 2, 76, 0
3, 52768, Note_on_c, 2, 77, 54
3, 52798, Note_on_c, 2, 77, 0
3, 52800, Note_on_c, 2, 76, 56
3, 52830, Note_on_c, 2, 76, 0
3, 52832, Note_on_c, 2, 72, 58
3, 52862, Note_on_c, 2, 72, 0
3, 52864, Note_on_c, 2, 74, 60
3, 52894, Note_on_c, 2, 74, 0
3, 52896, Note_on_c, 2, 67, 62
3, 52896, Note_on_c, 2, 72, 62
3, 52926, Note_on_c, 2, 67, 0
3, 52926, Note_on_c, 2, 72, 0
3, 52928, Note_on_c, 2, 65, 64
3, 52958, Note_on_c, 2, 65, 0
3, 52960, Note_on_c, 2, 64, 66
3, 52990, Note_on_c, 2, 64, 0
3, 53184, Note_on_c, 2, 69, 80
3, 53214, Note_on_c, 2, 69, 0
3, 53216, Note_on_c, 2, 72, 82
3, 53246, Note_on_c, 2, 72, 0
3, 53248, Note_on_c, 2, 75, 84
3, 53278, Note_on_c, 2, 75, 0
3, 53280, Note_on_c, 2, 81, 86
3, 53310, Note_on_c, 2, 81, 0
3, 53312, Note_on_c, 2, 84, 88
3, 53342, Note_on_c, 2, 84, 0
3, 53344, Note_on_c, 2, 87, 90
3, 53374, Note_on_c, 2, 87, 0
3, 53376, Note_on_c, 2, 86, 92
3, 53408, Note_on_c, 2, 86, 0
3, 53472, Note_on_c, 2, 74, 92
3, 53504, Note_on_c, 2, 74, 0
3, 53568, Note_on_c, 2, 77, 92
3, 53600, Note_on_c, 2, 77, 0
3, 53664, Note_on_c, 2, 82, 92
3, 53696, Note_on_c, 2, 82, 0
3, 53760, Note_on_c, 2, 81, 92
3, 53792, Note_on_c, 2, 81, 0
3, 53856, Note_on_c, 2, 84, 92
3, 53888, Note_on_c, 2, 84, 0
3, 53952, Note_on_c, 2, 87, 127
3, 54112, Note_on_c, 2, 87, 0
3, 54432, Note_on_c, 2, 81, 92
3, 54462, Note_on_c, 2, 81, 0
3, 54464, Note_on_c, 2, 79, 92
3, 54494, Note_on_c, 2, 79, 0
3, 54496, Note_on_c, 2, 77, 92
3, 54526, Note_on_c, 2, 77, 0
3, 54528, Note_on_c, 2, 82, 92
3, 54558, Note_on_c, 2, 82, 0
3, 54560, Note_on_c, 2, 77, 92
3, 54590, Note_on_c, 2, 77, 0
3, 54592, Note_on_c, 2, 74, 92
3, 54622, Note_on_c, 2, 74, 0
3, 54624, Note_on_c, 2, 70, 92
3, 54654, Note_on_c, 2, 70, 0
3, 54656, Note_on_c, 2, 65, 92
3, 54686, Note_on_c, 2, 65, 0
3, 54688, Note_on_c, 2, 62, 92
3, 54718, Note_on_c, 2, 62, 0
3, 54720, Note_on_c, 2, 58, 92
3, 54814, Note_on_c, 2, 58, 0
3, 55104, Note_on_c, 2, 64, 92
3, 55136, Note_on_c, 2, 64, 0
3, 55200, Note_on_c, 2, 67, 61
3, 55232, Note_on_c, 2, 67, 0
3, 55296, Note_on_c, 2, 64, 30
3, 55326, Note_on_c, 2, 64, 0
3, 55328, Note_on_c, 2, 65, 30
3, 55358, Note_on_c, 2, 65, 0
3, 55360, Note_on_c, 2, 67, 30
3, 55390, Note_on_c, 2, 67, 0
3, 55392, Note_on_c, 2, 69, 30
3, 55422, Note_on_c, 2, 69, 0
3, 55424, Note_on_c, 2, 70, 30
3, 55454, Note_on_c, 2, 70, 0
3, 55456, Note_on_c, 2, 69, 30
3, 55486, Note_on_c, 2, 69, 0
3, 55488, Note_on_c, 2, 70, 30
3, 55518, Note_on_c, 2, 70, 0
3, 55520, Note_on_c, 2, 72, 30
3, 55550, Note_on_c, 2, 72, 0
3, 55584, Note_on_c, 2, 75, 30
3, 55614, Note_on_c, 2, 75, 0
3, 55616, Note_on_c, 2, 70, 30
3, 55646, Note_on_c, 2, 70, 0
3, 55648, Note_on_c, 2, 70, 30
3, 55678, Note_on_c, 2, 70, 0
3, 55680, Note_on_c, 2, 69, 30
3, 55710, Note_on_c, 2, 69, 0
3, 55712, Note_on_c, 2, 71, 30
3, 55742, Note_on_c, 2, 71, 0
3, 55808, Note_on_c, 2, 69, 30
3, 55838, Note_on_c, 2, 69, 0
3, 55840, Note_on_c, 2, 69, 30
3, 55870, Note_on_c, 2, 69, 0
3, 55872, Note_on_c, 2, 71, 30
3, 55902, Note_on_c, 2, 71, 0
3, 55904, Note_on_c, 2, 72, 30
3, 55934, Note_on_c, 2, 72, 0
3, 55936, Note_on_c, 2, 74, 30
3, 55966, Note_on_c, 2, 74, 0
3, 55968, Note_on_c, 2, 67, 30
3, 55998, Note_on_c, 2, 67, 0
3, 56000, Note_on_c, 2, 67, 30
3, 56030, Note_on_c, 2, 67, 0
3, 56064, Note_on_c, 2, 65, 30
3, 56160, Note_on_c, 2, 65, 0
3, 56160, Note_on_c, 2, 60, 52
3, 56256, Note_on_c, 2, 60, 0
3, 56256, Note_on_c, 2, 65, 75
3, 56350, Note_on_c, 2, 65, 0
3, 56352, Note_on_c, 2, 62, 60
3, 56384, Note_on_c, 2, 62, 0
3, 56448, Note_on_c, 2, 60, 45
3, 56640, Note_on_c, 2, 60, 0
3, 56640, Note_on_c, 2, 67, 45
3, 56688, Note_on_c, 2, 67, 0
3, 56688, Note_on_c, 2, 60, 45
3, 56736, Note_on_c, 2, 60, 0
3, 56736, Note_on_c, 2, 62, 45
3, 56784, Note_on_c, 2, 62, 0
3, 56784, Note_on_c, 2, 64, 45
3, 56830, Note_on_c, 2, 64, 0
3, 56832, Note_on_c, 2, 65, 45
3, 56928, Note_on_c, 2, 65, 0
3, 56928, Note_on_c, 2, 61, 48
3, 57024, Note_on_c, 2, 61, 0
3, 57024, Note_on_c, 2, 73, 51
3, 57118, Note_on_c, 2, 73, 0
3, 57120, Note_on_c, 2, 77, 55
3, 57152, Note_on_c, 2, 77, 0
3, 57216, Note_on_c, 2, 76, 59
3, 57312, Note_on_c, 2, 76, 0
3, 57312, Note_on_c, 2, 73, 63
3, 57408, Note_on_c, 2, 73, 0
3, 57408, Note_on_c, 2, 69, 67
3, 57504, Note_on_c, 2, 69, 0
3, 57504, Note_on_c, 2, 71, 71
3, 57598, Note_on_c, 2, 71, 0
3, 57600, Note_on_c, 2, 69, 30
3, 57632, Note_on_c, 2, 69, 0
3, 57648, Note_on_c, 2, 69, 30
3, 57680, Note_on_c, 2, 69, 0
3, 57696, Note_on_c, 2, 67, 30
3, 57728, Note_on_c, 2, 67, 0
3, 57744, Note_on_c, 2, 67, 30
3, 57776, Note_on_c, 2, 67, 0
3, 57792, Note_on_c, 2, 67, 30
3, 57838, Note_on_c, 2, 67, 0
3, 57840, Note_on_c, 2, 67, 30
3, 57886, Note_on_c, 2, 67, 0
3, 57888, Note_on_c, 2, 67, 30
3, 57934, Note_on_c, 2, 67, 0
3, 57936, Note_on_c, 2, 67, 30
3, 57982, Note_on_c, 2, 67, 0
3, 57984, Note_on_c, 2, 65, 30
3, 58030, Note_on_c, 2, 65, 0
3, 58032, Note_on_c, 2, 65, 30
3, 58078, Note_on_c, 2, 65, 0
3, 58080, Note_on_c, 2, 65, 30
3, 58126, Note_on_c, 2, 65, 0
3, 58128, Note_on_c, 2, 65, 30
3, 58174, Note_on_c, 2, 65, 0
3, 58176, Note_on_c, 2, 65, 30
3, 58222, Note_on_c, 2, 65, 0
3, 58224, Note_on_c, 2, 65, 30
3, 58270, Note_on_c, 2, 65, 0
3, 58272, Note_on_c, 2, 65, 30
3, 58318, Note_on_c, 2, 65, 0
3, 58320, Note_on_c, 2, 69, 30
3, 58366, Note_on_c, 2, 69, 0
3, 58368, Note_on_c, 2, 77, 30
3, 58398, Note_on_c, 2, 77, 0
3, 58400, Note_on_c, 2, 77, 30
3, 58430, Note_on_c, 2, 77, 0
3, 58432, Note_on_c, 2, 77, 30
3, 58462, Note_on_c, 2, 77, 0
3, 58464, Note_on_c, 2, 77, 30
3, 58494, Note_on_c, 2, 77, 0
3, 58496, Note_on_c, 2, 77, 30
3, 58526, Note_on_c, 2, 77, 0
3, 58528, Note_on_c, 2, 77, 30
3, 58558, Note_on_c, 2, 77, 0
3, 58560, Note_on_c, 2, 70, 30
3, 58560, Note_on_c, 2, 77, 30
3, 58590, Note_on_c, 2, 70, 0
3, 58590, Note_on_c, 2, 77, 0
3, 58592, Note_on_c, 2, 70, 30
3, 58592, Note_on_c, 2, 77, 30
3, 58622, Note_on_c, 2, 70, 0
3, 58622, Note_on_c, 2, 77, 0
3, 58624, Note_on_c, 2, 70, 30
3, 58624, Note_on_c, 2, 77, 30
3, 58654, Note_on_c, 2, 70, 0
3, 58654, Note_on_c, 2, 77, 0
3, 58656, Note_on_c, 2, 70, 30
3, 58656, Note_on_c, 2, 77, 30
3, 58686, Note_on_c, 2, 70, 0
3, 58686, Note_on_c, 2, 77, 0
3, 58688, Note_on_c, 2, 70, 30
3, 58688, Note_on_c, 2, 77, 30
3, 58718, Note_on_c, 2, 70, 0
3, 58718, Note_on_c, 2, 77, 0
3, 58720, Note_on_c, 2, 70, 30
3, 58720, Note_on_c, 2, 77, 30
3, 58750, Note_on_c, 2, 70, 0
3, 58750, Note_on_c, 2, 77, 0
3, 58752, Note_on_c, 2, 69, 30
3, 58752, Note_on_c, 2, 77, 30
3, 58782, Note_on_c, 2, 69, 0
3, 58782, Note_on_c, 2, 77, 0
3, 58784, Note_on_c, 2, 69, 32
3, 58784, Note_on_c, 2, 77, 32
3, 58814, Note_on_c, 2, 69, 0
3, 58814, Note_on_c, 2, 77, 0
3, 58816, Note_on_c, 2, 69, 34
3, 58816, Note_on_c, 2, 77, 34
3, 58846, Note_on_c, 2, 69, 0
3, 58846, Note_on_c, 2, 77, 0
3, 58848, Note_on_c, 2, 69, 36
3, 58848, Note_on_c, 2, 77, 36
3, 58878, Note_on_c, 2, 69, 0
3, 58878, Note_on_c, 2, 77, 0
3, 58880, Note_on_c, 2, 69, 39
3, 58880, Note_on_c, 2, 77, 39
3, 58910, Note_on_c, 2, 69, 0
3, 58910, Note_on_c, 2, 77, 0
3, 58912, Note_on_c, 2, 69, 42
3, 58912, Note_on_c, 2, 77, 42
3, 58942, Note_on_c, 2, 69, 0
3, 58942, Note_on_c, 2, 77, 0
3, 58944, Note_on_c, 2, 70, 45
3, 58944, Note_on_c, 2, 77, 45
3, 58974, Note_on_c, 2, 70, 0
3, 58974, Note_on_c, 2, 77, 0
3, 58976, Note_on_c, 2, 70, 45
3, 58976, Note_on_c, 2, 77, 45
3, 59006, Note_on_c, 2, 70, 0
3, 59006, Note_on_c, 2, 77, 0
3, 59008, Note_on_c, 2, 70, 45
3, 59008, Note_on_c, 2, 77, 45
3, 59038, Note_on_c, 2, 70, 0
3, 59038, Note_on_c, 2, 77, 0
3, 59040, Note_on_c, 2, 72, 45
3, 59070, Note_on_c, 2, 72, 0
3, 59072, Note_on_c, 2, 72, 45
3, 59102, Note_on_c, 2, 72, 0
3, 59104, Note_on_c, 2, 72, 45
3, 59134, Note_on_c, 2, 72, 0
3, 59136, Note_on_c, 2, 72, 45
3, 59552, Note_on_c, 2, 72, 0
3, 59616, Note_on_c, 2, 67, 45
3, 59648, Note_on_c, 2, 67, 0
3, 59712, Note_on_c, 2, 55, 45
3, 59744, Note_on_c, 2, 55, 0
3, 59744, Note_on_c, 2, 65, 45
3, 59776, Note_on_c, 2, 65, 0
3, 59776, Note_on_c, 2, 64, 45
3, 59808, Note_on_c, 2, 64, 0
3, 59808, Note_on_c, 2, 62, 45
3, 59840, Note_on_c, 2, 62, 0
3, 59840, Note_on_c, 2, 60, 45
3, 59872, Note_on_c, 2, 60, 0
3, 59872, Note_on_c, 2, 58, 45
3, 59902, Note_on_c, 2, 58, 0
3, 59904, Note_on_c, 2, 57, 45
3, 60096, Note_on_c, 2, 57, 0
3, 60096, Note_on_c, 2, 58, 56
3, 60256, Note_on_c, 2, 58, 0
3, 60288, Note_on_c, 2, 60, 68
3, 60320, Note_on_c, 2, 60, 0
3, 60384, Note_on_c, 2, 62, 74
3, 60416, Note_on_c, 2, 62, 0
3, 60480, Note_on_c, 2, 55, 80
3, 60512, Note_on_c, 2, 55, 0
3, 60512, Note_on_c, 2, 74, 82
3, 60544, Note_on_c, 2, 74, 0
3, 60544, Note_on_c, 2, 72, 84
3, 60576, Note_on_c, 2, 72, 0
3, 60576, Note_on_c, 2, 70, 86
3, 60608, Note_on_c, 2, 70, 0
3, 60608, Note_on_c, 2, 69, 88
3, 60640, Note_on_c, 2, 69, 0
3, 60640, Note_on_c, 2, 67, 90
3, 60670, Note_on_c, 2, 67, 0
3, 60672, Note_on_c, 2, 72, 92
3, 60704, Note_on_c, 2, 72, 0
3, 60960, Note_on_c, 2, 60, 45
3, 60960, Note_on_c, 2, 62, 45
3, 61056, Note_on_c, 2, 60, 0
3, 61056, Note_on_c, 2, 58, 45
3, 61088, Note_on_c, 2, 58, 0
3, 61088, Note_on_c, 2, 62, 0
3, 61320, Note_on_c, 2, 67, 45
3, 61344, Note_on_c, 2, 67, 0
3, 61344, Note_on_c, 2, 60, 45
3, 61392, Note_on_c, 2, 60, 0
3, 61392, Note_on_c, 2, 64, 45
3, 61440, Note_on_c, 2, 64, 0
3, 61440, Note_on_c, 2, 65, 45
3, 61472, Note_on_c, 2, 65, 0
3, 61728, Note_on_c, 2, 74, 45
3, 61824, Note_on_c, 2, 74, 0
3, 61824, Note_on_c, 2, 74, 45
3, 61856, Note_on_c, 2, 74, 0
3, 62088, Note_on_c, 2, 67, 45
3, 62112, Note_on_c, 2, 67, 0
3, 62112, Note_on_c, 2, 60, 45
3, 62160, Note_on_c, 2, 60, 0
3, 62160, Note_on_c, 2, 64, 45
3, 62208, Note_on_c, 2, 64, 0
3, 62208, Note_on_c, 2, 67, 45
3, 62240, Note_on_c, 2, 67, 0
3, 62400, Note_on_c, 2, 66, 45
3, 62496, Note_on_c, 2, 66, 0
3, 62496, Note_on_c, 2, 67, 45
3, 62592, Note_on_c, 2, 67, 0
3, 62592, Note_on_c, 2, 56, 45
3, 62688, Note_on_c, 2, 56, 0
3, 62688, Note_on_c, 2, 57, 45
3, 62784, Note_on_c, 2, 57, 0
3, 62784, Note_on_c, 2, 64, 45
3, 62880, Note_on_c, 2, 64, 0
3, 62880, Note_on_c, 2, 65, 45
3, 62976, Note_on_c, 2, 65, 0
3, 62976, Note_on_c, 2, 64, 45
3, 63072, Note_on_c, 2, 64, 0
3, 63072, Note_on_c, 2, 62, 45
3, 63166, Note_on_c, 2, 62, 0
3, 64128, Note_on_c, 2, 62, 45
3, 64152, Note_on_c, 2, 62, 0
3, 64152, Note_on_c, 2, 64, 45
3, 64176, Note_on_c, 2, 64, 0
3, 64176, Note_on_c, 2, 65, 45
3, 64320, Note_on_c, 2, 65, 0
3, 64320, Note_on_c, 2, 60, 45
3, 64488, Note_on_c, 2, 60, 0
3, 64488, Note_on_c, 2, 62, 45
3, 64510, Note_on_c, 2, 62, 0
3, 64512, Note_on_c, 2, 59, 45
3, 64672, Note_on_c, 2, 59, 0
3, 64704, Note_on_c, 2, 74, 45
3, 64728, Note_on_c, 2, 74, 0
3, 64728, Note_on_c, 2, 76, 45
3, 64752, Note_on_c, 2, 76, 0
3, 64752, Note_on_c, 2, 77, 45
3, 64798, Note_on_c, 2, 77, 0
3, 65088, Note_on_c, 2, 64, 45
3, 65118, Note_on_c, 2, 64, 0
3, 65120, Note_on_c, 2, 67, 45
3, 65150, Note_on_c, 2, 67, 0
3, 65152, Note_on_c, 2, 72, 45
3, 65182, Note_on_c, 2, 72, 0
3, 65184, Note_on_c, 2, 76, 45
3, 65214, Note_on_c, 2, 76, 0
3, 65216, Note_on_c, 2, 79, 45
3, 65246, Note_on_c, 2, 79, 0
3, 65248, Note_on_c, 2, 84, 45
3, 65278, Note_on_c, 2, 84, 0
3, 65280, Note_on_c, 2, 84, 45
3, 65374, Note_on_c, 2, 84, 0
3, 65472, Note_on_c, 2, 65, 45
3, 65502, Note_on_c, 2, 65, 0
3, 65504, Note_on_c, 2, 69, 45
3, 65534, Note_on_c, 2, 69, 0
3, 65536, Note_on_c, 2, 72, 45
3, 65566, Note_on_c, 2, 72, 0
3, 65568, Note_on_c, 2, 77, 45
3, 65598, Note_on_c, 2, 77, 0
3, 65600, Note_on_c, 2, 81, 45
3, 65630, Note_on_c, 2, 81, 0
3, 65632, Note_on_c, 2, 84, 45
3, 65662, Note_on_c, 2, 84, 0
3, 65664, Note_on_c, 2, 63, 45
3, 65760, Note_on_c, 2, 63, 0
3, 65760, Note_on_c, 2, 64, 47
3, 65856, Note_on_c, 2, 64, 0
3, 65856, Note_on_c, 2, 72, 50
3, 65952, Note_on_c, 2, 72, 0
3, 65952, Note_on_c, 2, 70, 53
3, 66046, Note_on_c, 2, 70, 0
3, 66048, Note_on_c, 2, 64, 56
3, 66144, Note_on_c, 2, 64, 0
3, 66144, Note_on_c, 2, 65, 59
3, 66240, Note_on_c, 2, 65, 0
3, 66240, Note_on_c, 2, 72, 62
3, 66336, Note_on_c, 2, 72, 0
3, 66336, Note_on_c, 2, 69, 65
3, 66430, Note_on_c, 2, 69, 0
3, 66432, Note_on_c, 2, 67, 68
3, 66456, Note_on_c, 2, 67, 0
3, 66456, Note_on_c, 2, 69, 68
3, 66480, Note_on_c, 2, 69, 0
3, 66480, Note_on_c, 2, 70, 68
3, 66622, Note_on_c, 2, 70, 0
3, 66624, Note_on_c, 2, 65, 74
3, 66792, Note_on_c, 2, 65, 0
3, 66792, Note_on_c, 2, 67, 79
3, 66814, Note_on_c, 2, 67, 0
3, 66816, Note_on_c, 2, 65, 79
3, 66840, Note_on_c, 2, 65, 0
3, 66840, Note_on_c, 2, 67, 79
3, 66864, Note_on_c, 2, 67, 0
3, 66864, Note_on_c, 2, 69, 79
3, 67006, Note_on_c, 2, 69, 0
3, 67008, Note_on_c, 2, 64, 85
3, 67176, Note_on_c, 2, 64, 0
3, 67176, Note_on_c, 2, 65, 91
3, 67198, Note_on_c, 2, 65, 0
3, 67200, Note_on_c, 2, 67, 92
3, 67224, Note_on_c, 2, 67, 0
3, 67224, Note_on_c, 2, 69, 92
3, 67248, Note_on_c, 2, 69, 0
3, 67248, Note_on_c, 2, 70, 92
3, 67280, Note_on_c, 2, 70, 0
3, 68000, Note_on_c, 2, 72, 45
3, 68032, Note_on_c, 2, 72, 0
3, 68032, Note_on_c, 2, 70, 45
3, 68064, Note_on_c, 2, 70, 0
3, 68064, Note_on_c, 2, 69, 45
3, 68096, Note_on_c, 2, 69, 0
3, 68096, Note_on_c, 2, 67, 45
3, 68128, Note_on_c, 2, 67, 0
3, 68128, Note_on_c, 2, 65, 45
3, 68160, Note_on_c, 2, 65, 0
3, 68160, Note_on_c, 2, 64, 45
3, 68192, Note_on_c, 2, 64, 0
3, 68192, Note_on_c, 2, 74, 45
3, 68224, Note_on_c, 2, 74, 0
3, 68224, Note_on_c, 2, 72, 45
3, 68256, Note_on_c, 2, 72, 0
3, 68256, Note_on_c, 2, 70, 45
3, 68288, Note_on_c, 2, 70, 0
3, 68288, Note_on_c, 2, 69, 45
3, 68320, Note_on_c, 2, 69, 0
3, 68320, Note_on_c, 2, 67, 45
3, 68350, Note_on_c, 2, 67, 0
3, 68352, Note_on_c, 2, 65, 45
3, 68384, Note_on_c, 2, 65, 0
3, 68448, Note_on_c, 2, 67, 45
3, 68480, Note_on_c, 2, 67, 0
3, 68544, Note_on_c, 2, 60, 45
3, 68574, Note_on_c, 2, 60, 0
3, 68576, Note_on_c, 2, 74, 45
3, 68608, Note_on_c, 2, 74, 0
3, 68608, Note_on_c, 2, 72, 45
3, 68640, Note_on_c, 2, 72, 0
3, 68640, Note_on_c, 2, 70, 45
3, 68672, Note_on_c, 2, 70, 0
3, 68672, Note_on_c, 2, 69, 45
3, 68704, Note_on_c, 2, 69, 0
3, 68704, Note_on_c, 2, 67, 45
3, 68734, Note_on_c, 2, 67, 0
3, 68736, Note_on_c, 2, 57, 45
3, 68928, Note_on_c, 2, 57, 0
3, 68928, Note_on_c, 2, 58, 58
3, 69088, Note_on_c, 2, 58, 0
3, 69120, Note_on_c, 2, 60, 71
3, 69152, Note_on_c, 2, 60, 0
3, 69216, Note_on_c, 2, 62, 78
3, 69248, Note_on_c, 2, 62, 0
3, 69408, Note_on_c, 2, 63, 92
3, 69440, Note_on_c, 2, 63, 0
3, 69504, Note_on_c, 2, 63, 45
3, 69792, Note_on_c, 2, 63, 0
3, 69792, Note_on_c, 2, 60, 75
3, 69886, Note_on_c, 2, 60, 0
3, 69888, Note_on_c, 2, 69, 45
3, 69920, Note_on_c, 2, 69, 0
3, 69984, Note_on_c, 2, 81, 45
3, 70008, Note_on_c, 2, 81, 0
3, 70008, Note_on_c, 2, 82, 45
3, 70032, Note_on_c, 2, 82, 0
3, 70032, Note_on_c, 2, 84, 45
3, 70064, Note_on_c, 2, 84, 0
3, 70272, Note_on_c, 2, 72, 92
3, 70296, Note_on_c, 2, 72, 0
3, 70296, Note_on_c, 2, 74, 92
3, 70320, Note_on_c, 2, 74, 0
3, 70320, Note_on_c, 2, 75, 92
3, 70462, Note_on_c, 2, 75, 0
3, 70464, Note_on_c, 2, 70, 92
3, 70632, Note_on_c, 2, 70, 0
3, 70632, Note_on_c, 2, 72, 92
3, 70654, Note_on_c, 2, 72, 0
3, 70656, Note_on_c, 2, 69, 92
3, 70688, Note_on_c, 2, 69, 0
3, 71112, Note_on_c, 2, 74, 45
3, 71136, Note_on_c, 2, 74, 0
3, 71136, Note_on_c, 2, 65, 45
3, 71184, Note_on_c, 2, 65, 0
3, 71184, Note_on_c, 2, 70, 45
3, 71232, Note_on_c, 2, 70, 0
3, 71232, Note_on_c, 2, 72, 45
3, 71264, Note_on_c, 2, 72, 0
3, 71328, Note_on_c, 2, 57, 45
3, 71360, Note_on_c, 2, 57, 0
3, 71520, Note_on_c, 2, 62, 45
3, 71592, Note_on_c, 2, 62, 0
3, 71592, Note_on_c, 2, 63, 45
3, 71614, Note_on_c, 2, 63, 0
3, 71616, Note_on_c, 2, 65, 45
3, 71648, Note_on_c, 2, 65, 0
3, 71712, Note_on_c, 2, 60, 45
3, 71712, Note_on_c, 2, 64, 45
3, 71744, Note_on_c, 2, 60, 0
3, 71744, Note_on_c, 2, 64, 0
3, 71880, Note_on_c, 2, 69, 45
3, 71904, Note_on_c, 2, 69, 0
3, 71904, Note_on_c, 2, 60, 45
3, 71952, Note_on_c, 2, 60, 0
3, 71952, Note_on_c, 2, 65, 45
3, 72000, Note_on_c, 2, 65, 0
3, 72000, Note_on_c, 2, 67, 45
3, 72032, Note_on_c, 2, 67, 0
3, 72096, Note_on_c, 2, 64, 45
3, 72128, Note_on_c, 2, 64, 0
3, 72624, Note_on_c, 2, 74, 45
3, 72672, Note_on_c, 2, 74, 0
3, 72672, Note_on_c, 2, 70, 45
3, 72720, Note_on_c, 2, 70, 0
3, 72720, Note_on_c, 2, 67, 45
3, 72768, Note_on_c, 2, 67, 0
3, 72768, Note_on_c, 2, 65, 45
3, 72800, Note_on_c, 2, 65, 0
3, 72816, Note_on_c, 2, 67, 45
3, 72864, Note_on_c, 2, 67, 0
3, 72864, Note_on_c, 2, 60, 45
3, 72912, Note_on_c, 2, 60, 0
3, 72912, Note_on_c, 2, 67, 45
3, 72958, Note_on_c, 2, 67, 0
3, 72960, Note_on_c, 2, 69, 45
3, 73032, Note_on_c, 2, 69, 0
3, 73032, Note_on_c, 2, 70, 48
3, 73054, Note_on_c, 2, 70, 0
3, 73056, Note_on_c, 2, 65, 49
3, 73056, Note_on_c, 2, 72, 49
3, 73560, Note_on_c, 2, 65, 0
3, 73560, Note_on_c, 2, 72, 0
3, 73608, Note_on_c, 2, 77, 45
3, 73632, Note_on_c, 2, 77, 0
3, 73632, Note_on_c, 2, 76, 45
3, 73680, Note_on_c, 2, 76, 0
3, 73680, Note_on_c, 2, 74, 45
3, 73728, Note_on_c, 2, 74, 0
3, 73728, Note_on_c, 2, 72, 45
3, 73760, Note_on_c, 2, 72, 0
3, 73800, Note_on_c, 2, 74, 45
3, 73824, Note_on_c, 2, 74, 0
3, 73824, Note_on_c, 2, 70, 45
3, 73872, Note_on_c, 2, 70, 0
3, 73872, Note_on_c, 2, 67, 45
3, 73920, Note_on_c, 2, 67, 0
3, 73920, Note_on_c, 2, 65, 45
3, 73952, Note_on_c, 2, 65, 0
3, 73992, Note_on_c, 2, 67, 45
3, 74016, Note_on_c, 2, 67, 0
3, 74016, Note_on_c, 2, 64, 45
3, 74064, Note_on_c, 2, 64, 0
3, 74064, Note_on_c, 2, 60, 45
3, 74112, Note_on_c, 2, 60, 0
3, 74112, Note_on_c, 2, 57, 45
3, 74112, Note_on_c, 2, 65, 45
3, 74206, Note_on_c, 2, 57, 0
3, 74206, Note_on_c, 2, 65, 0
3, 74206, End_track
4, 0, Start_track
4, 0, MIDI_port, 0
4, 0, Title_t, "Viola."
4, 0, Program_c, 3, 0
4, 0, Control_c, 3, 7, 127
4, 0, Control_c, 3, 10, 64
4, 0, Note_on_c, 3, 55, 45
4, 24, Note_on_c, 3, 55, 0
4, 24, Note_on_c, 3, 57, 45
4, 48, Note_on_c, 3, 57, 0
4, 48, Note_on_c, 3, 58, 45
4, 190, Note_on_c, 3, 58, 0
4, 192, Note_on_c, 3, 53, 45
4, 360, Note_on_c, 3, 53, 0
4, 360, Note_on_c, 3, 55, 75
4, 382, Note_on_c, 3, 55, 0
4, 384, Note_on_c, 3, 52, 45
4, 478, Note_on_c, 3, 52, 0
4, 768, Note_on_c, 3, 55, 45
4, 792, Note_on_c, 3, 55, 0
4, 792, Note_on_c, 3, 57, 45
4, 816, Note_on_c, 3, 57, 0
4, 816, Note_on_c, 3, 58, 45
4, 958, Note_on_c, 3, 58, 0
4, 960, Note_on_c, 3, 53, 45
4, 1128, Note_on_c, 3, 53, 0
4, 1128, Note_on_c, 3, 55, 75
4, 1150, Note_on_c, 3, 55, 0
4, 1152, Note_on_c, 3, 52, 45
4, 1246, Note_on_c, 3, 52, 0
4, 1416, Note_on_c, 3, 55, 45
4, 1440, Note_on_c, 3, 55, 0
4, 1440, Note_on_c, 3, 48, 45
4, 1488, Note_on_c, 3, 48, 0
4, 1488, Note_on_c, 3, 52, 45
4, 1536, Note_on_c, 3, 52, 0
4, 1536, Note_on_c, 3, 53, 45
4, 1568, Note_on_c, 3, 53, 0
4, 2016, Note_on_c, 3, 53, 45
4, 2088, Note_on_c, 3, 53, 0
4, 2088, Note_on_c, 3, 55, 45
4, 2112, Note_on_c, 3, 55, 0
4, 2112, Note_on_c, 3, 57, 45
4, 2144, Note_on_c, 3, 57, 0
4, 2160, Note_on_c, 3, 65, 45
4, 2208, Note_on_c, 3, 65, 0
4, 2208, Note_on_c, 3, 64, 45
4, 2256, Note_on_c, 3, 64, 0
4, 2256, Note_on_c, 3, 62, 45
4, 2304, Note_on_c, 3, 62, 0
4, 2304, Note_on_c, 3, 60, 45
4, 2398, Note_on_c, 3, 60, 0
4, 2544, Note_on_c, 3, 55, 45
4, 2592, Note_on_c, 3, 55, 0
4, 2592, Note_on_c, 3, 52, 45
4, 2640, Note_on_c, 3, 52, 0
4, 2640, Note_on_c, 3, 48, 45
4, 2686, Note_on_c, 3, 48, 0
4, 2688, Note_on_c, 3, 57, 45
4, 2760, Note_on_c, 3, 57, 0
4, 2760, Note_on_c, 3, 58, 45
4, 2782, Note_on_c, 3, 58, 0
4, 2784, Note_on_c, 3, 60, 45
4, 2926, Note_on_c, 3, 60, 0
4, 2952, Note_on_c, 3, 65, 45
4, 2976, Note_on_c, 3, 65, 0
4, 2976, Note_on_c, 3, 64, 45
4, 3024, Note_on_c, 3, 64, 0
4, 3024, Note_on_c, 3, 62, 45
4, 3072, Note_on_c, 3, 62, 0
4, 3072, Note_on_c, 3, 60, 45
4, 3104, Note_on_c, 3, 60, 0
4, 3144, Note_on_c, 3, 62, 45
4, 3168, Note_on_c, 3, 62, 0
4, 3168, Note_on_c, 3, 58, 46
4, 3216, Note_on_c, 3, 58, 0
4, 3216, Note_on_c, 3, 55, 48
4, 3264, Note_on_c, 3, 55, 0
4, 3264, Note_on_c, 3, 53, 50
4, 3310, Note_on_c, 3, 53, 0
4, 3336, Note_on_c, 3, 55, 53
4, 3360, Note_on_c, 3, 55, 0
4, 3360, Note_on_c, 3, 52, 54
4, 3408, Note_on_c, 3, 52, 0
4, 3408, Note_on_c, 3, 48, 57
4, 3456, Note_on_c, 3, 48, 0
4, 3456, Note_on_c, 3, 53, 45
4, 3550, Note_on_c, 3, 53, 0
4, 3648, Note_on_c, 3, 60, 75
4, 3840, Note_on_c, 3, 60, 0
4, 3840, Note_on_c, 3, 50, 60
4, 4000, Note_on_c, 3, 50, 0
4, 4032, Note_on_c, 3, 57, 75
4, 4224, Note_on_c, 3, 57, 0
4, 4224, Note_on_c, 3, 55, 60
4, 4384, Note_on_c, 3, 55, 0
4, 4416, Note_on_c, 3, 62, 75
4, 4608, Note_on_c, 3, 62, 0
4, 4608, Note_on_c, 3, 52, 60
4, 4768, Note_on_c, 3, 52, 0
4, 4800, Note_on_c, 3, 58, 75
4, 4992, Note_on_c, 3, 58, 0
4, 4992, Note_on_c, 3, 57, 60
4, 5152, Note_on_c, 3, 57, 0
4, 5184, Note_on_c, 3, 53, 45
4, 5344, Note_on_c, 3, 53, 0
4, 5376, Note_on_c, 3, 50, 45
4, 5854, Note_on_c, 3, 50, 0
4, 5856, Note_on_c, 3, 55, 74
4, 5856, Note_on_c, 3, 62, 74
4, 5888, Note_on_c, 3, 55, 0
4, 5888, Note_on_c, 3, 62, 0
4, 5952, Note_on_c, 3, 55, 80
4, 5952, Note_on_c, 3, 62, 80
4, 5984, Note_on_c, 3, 55, 0
4, 5984, Note_on_c, 3, 62, 0
4, 6048, Note_on_c, 3, 55, 86
4, 6048, Note_on_c, 3, 62, 86
4, 6080, Note_on_c, 3, 55, 0
4, 6080, Note_on_c, 3, 62, 0
4, 6144, Note_on_c, 3, 52, 92
4, 6238, Note_on_c, 3, 52, 0
4, 6432, Note_on_c, 3, 50, 45
4, 6504, Note_on_c, 3, 50, 0
4, 6504, Note_on_c, 3, 53, 45
4, 6526, Note_on_c, 3, 53, 0
4, 6528, Note_on_c, 3, 52, 45
4, 6560, Note_on_c, 3, 52, 0
4, 6624, Note_on_c, 3, 52, 45
4, 6656, Note_on_c, 3, 52, 0
4, 6720, Note_on_c, 3, 51, 45
4, 7008, Note_on_c, 3, 51, 0
4, 7008, Note_on_c, 3, 54, 45
4, 7080, Note_on_c, 3, 54, 0
4, 7080, Note_on_c, 3, 58, 45
4, 7102, Note_on_c, 3, 58, 0
4, 7104, Note_on_c, 3, 50, 45
4, 7136, Note_on_c, 3, 50, 0
4, 7200, Note_on_c, 3, 50, 45
4, 7232, Note_on_c, 3, 50, 0
4, 7296, Note_on_c, 3, 50, 45
4, 7390, Note_on_c, 3, 50, 0
4, 7392, Note_on_c, 3, 50, 45
4, 7464, Note_on_c, 3, 50, 0
4, 7464, Note_on_c, 3, 53, 45
4, 7486, Note_on_c, 3, 53, 0
4, 7488, Note_on_c, 3, 52, 45
4, 7520, Note_on_c, 3, 52, 0
4, 7584, Note_on_c, 3, 52, 45
4, 7616, Note_on_c, 3, 52, 0
4, 7680, Note_on_c, 3, 52, 45
4, 7752, Note_on_c, 3, 52, 0
4, 7752, Note_on_c, 3, 55, 45
4, 7774, Note_on_c, 3, 55, 0
4, 7776, Note_on_c, 3, 53, 45
4, 7870, Note_on_c, 3, 53, 0
4, 7872, Note_on_c, 3, 72, 45
4, 8064, Note_on_c, 3, 72, 0
4, 8064, Note_on_c, 3, 65, 45
4, 8224, Note_on_c, 3, 65, 0
4, 8256, Note_on_c, 3, 69, 45
4, 8448, Note_on_c, 3, 69, 0
4, 8448, Note_on_c, 3, 62, 45
4, 8542, Note_on_c, 3, 62, 0
4, 8544, Note_on_c, 3, 64, 45
4, 8616, Note_on_c, 3, 64, 0
4, 8616, Note_on_c, 3, 67, 45
4, 8638, Note_on_c, 3, 67, 0
4, 8640, Note_on_c, 3, 65, 45
4, 8672, Note_on_c, 3, 65, 0
4, 8736, Note_on_c, 3, 65, 45
4, 8768, Note_on_c, 3, 65, 0
4, 8832, Note_on_c, 3, 65, 45
4, 8928, Note_on_c, 3, 65, 0
4, 8928, Note_on_c, 3, 62, 45
4, 9000, Note_on_c, 3, 62, 0
4, 9000, Note_on_c, 3, 59, 45
4, 9022, Note_on_c, 3, 59, 0
4, 9024, Note_on_c, 3, 58, 45
4, 9056, Note_on_c, 3, 58, 0
4, 9120, Note_on_c, 3, 58, 45
4, 9152, Note_on_c, 3, 58, 0
4, 9216, Note_on_c, 3, 57, 45
4, 9262, Note_on_c, 3, 57, 0
4, 9264, Note_on_c, 3, 57, 45
4, 9310, Note_on_c, 3, 57, 0
4, 9312, Note_on_c, 3, 57, 45
4, 9358, Note_on_c, 3, 57, 0
4, 9360, Note_on_c, 3, 57, 45
4, 9406, Note_on_c, 3, 57, 0
4, 9408, Note_on_c, 3, 57, 45
4, 9502, Note_on_c, 3, 57, 0
4, 9984, Note_on_c, 3, 53, 45
4, 9984, Note_on_c, 3, 57, 45
4, 10030, Note_on_c, 3, 53, 0
4, 10030, Note_on_c, 3, 57, 0
4, 10032, Note_on_c, 3, 65, 45
4, 10078, Note_on_c, 3, 65, 0
4, 10080, Note_on_c, 3, 65, 45
4, 10126, Note_on_c, 3, 65, 0
4, 10128, Note_on_c, 3, 65, 45
4, 10174, Note_on_c, 3, 65, 0
4, 10176, Note_on_c, 3, 65, 45
4, 10270, Note_on_c, 3, 65, 0
4, 10752, Note_on_c, 3, 62, 45
4, 10798, Note_on_c, 3, 62, 0
4, 10800, Note_on_c, 3, 71, 45
4, 10846, Note_on_c, 3, 71, 0
4, 10848, Note_on_c, 3, 71, 45
4, 10894, Note_on_c, 3, 71, 0
4, 10896, Note_on_c, 3, 71, 45
4, 10942, Note_on_c, 3, 71, 0
4, 10944, Note_on_c, 3, 71, 45
4, 11038, Note_on_c, 3, 71, 0
4, 11184, Note_on_c, 3, 67, 45
4, 11232, Note_on_c, 3, 67, 0
4, 11232, Note_on_c, 3, 62, 45
4, 11280, Note_on_c, 3, 62, 0
4, 11280, Note_on_c, 3, 64, 45
4, 11328, Note_on_c, 3, 64, 0
4, 11328, Note_on_c, 3, 62, 45
4, 11360, Note_on_c, 3, 62, 0
4, 11376, Note_on_c, 3, 59, 45
4, 11424, Note_on_c, 3, 59, 0
4, 11424, Note_on_c, 3, 55, 45
4, 11472, Note_on_c, 3, 55, 0
4, 11472, Note_on_c, 3, 57, 45
4, 11520, Note_on_c, 3, 57, 0
4, 11520, Note_on_c, 3, 59, 45
4, 11552, Note_on_c, 3, 59, 0
4, 12288, Note_on_c, 3, 55, 45
4, 12624, Note_on_c, 3, 55, 0
4, 12672, Note_on_c, 3, 48, 45
4, 12910, Note_on_c, 3, 48, 0
4, 12912, Note_on_c, 3, 48, 45
4, 12960, Note_on_c, 3, 48, 0
4, 12960, Note_on_c, 3, 52, 45
4, 13006, Note_on_c, 3, 52, 0
4, 13032, Note_on_c, 3, 52, 45
4, 13048, Note_on_c, 3, 52, 0
4, 13056, Note_on_c, 3, 52, 45
4, 13486, Note_on_c, 3, 52, 0
4, 13488, Note_on_c, 3, 52, 64
4, 13536, Note_on_c, 3, 52, 0
4, 13536, Note_on_c, 3, 58, 66
4, 13582, Note_on_c, 3, 58, 0
4, 13584, Note_on_c, 3, 58, 68
4, 13616, Note_on_c, 3, 58, 0
4, 13632, Note_on_c, 3, 57, 70
4, 13664, Note_on_c, 3, 57, 0
4, 13680, Note_on_c, 3, 57, 72
4, 13728, Note_on_c, 3, 57, 0
4, 13728, Note_on_c, 3, 62, 75
4, 13774, Note_on_c, 3, 62, 0
4, 13776, Note_on_c, 3, 62, 60
4, 13808, Note_on_c, 3, 62, 0
4, 13872, Note_on_c, 3, 55, 45
4, 13904, Note_on_c, 3, 55, 0
4, 13920, Note_on_c, 3, 67, 45
4, 13952, Note_on_c, 3, 67, 0
4, 13968, Note_on_c, 3, 67, 45
4, 14000, Note_on_c, 3, 67, 0
4, 14064, Note_on_c, 3, 55, 45
4, 14096, Note_on_c, 3, 55, 0
4, 14112, Note_on_c, 3, 62, 45
4, 14144, Note_on_c, 3, 62, 0
4, 14160, Note_on_c, 3, 62, 45
4, 14192, Note_on_c, 3, 62, 0
4, 14240, Note_on_c, 3, 55, 46
4, 14270, Note_on_c, 3, 55, 0
4, 14272, Note_on_c, 3, 57, 47
4, 14302, Note_on_c, 3, 57, 0
4, 14304, Note_on_c, 3, 55, 48
4, 14334, Note_on_c, 3, 55, 0
4, 14336, Note_on_c, 3, 52, 49
4, 14366, Note_on_c, 3, 52, 0
4, 14368, Note_on_c, 3, 53, 50
4, 14398, Note_on_c, 3, 53, 0
4, 14400, Note_on_c, 3, 52, 51
4, 14430, Note_on_c, 3, 52, 0
4, 14432, Note_on_c, 3, 48, 52
4, 14462, Note_on_c, 3, 48, 0
4, 14464, Note_on_c, 3, 50, 53
4, 14494, Note_on_c, 3, 50, 0
4, 14496, Note_on_c, 3, 48, 54
4, 14590, Note_on_c, 3, 48, 0
4, 14784, Note_on_c, 3, 55, 66
4, 14814, Note_on_c, 3, 55, 0
4, 14816, Note_on_c, 3, 59, 67
4, 14846, Note_on_c, 3, 59, 0
4, 14848, Note_on_c, 3, 62, 68
4, 14878, Note_on_c, 3, 62, 0
4, 14880, Note_on_c, 3, 67, 69
4, 14910, Note_on_c, 3, 67, 0
4, 14912, Note_on_c, 3, 71, 71
4, 14942, Note_on_c, 3, 71, 0
4, 14944, Note_on_c, 3, 74, 73
4, 14974, Note_on_c, 3, 74, 0
4, 14976, Note_on_c, 3, 71, 45
4, 15070, Note_on_c, 3, 71, 0
4, 15264, Note_on_c, 3, 71, 45
4, 15294, Note_on_c, 3, 71, 0
4, 15296, Note_on_c, 3, 69, 47
4, 15326, Note_on_c, 3, 69, 0
4, 15328, Note_on_c, 3, 67, 49
4, 15358, Note_on_c, 3, 67, 0
4, 15360, Note_on_c, 3, 72, 51
4, 15390, Note_on_c, 3, 72, 0
4, 15392, Note_on_c, 3, 67, 53
4, 15422, Note_on_c, 3, 67, 0
4, 15424, Note_on_c, 3, 64, 55
4, 15454, Note_on_c, 3, 64, 0
4, 15456, Note_on_c, 3, 60, 57
4, 15486, Note_on_c, 3, 60, 0
4, 15488, Note_on_c, 3, 55, 59
4, 15518, Note_on_c, 3, 55, 0
4, 15520, Note_on_c, 3, 52, 61
4, 15550, Note_on_c, 3, 52, 0
4, 15552, Note_on_c, 3, 48, 63
4, 15646, Note_on_c, 3, 48, 0
4, 15936, Note_on_c, 3, 48, 92
4, 15968, Note_on_c, 3, 48, 0
4, 16032, Note_on_c, 3, 52, 92
4, 16064, Note_on_c, 3, 52, 0
4, 16128, Note_on_c, 3, 55, 92
4, 16160, Note_on_c, 3, 55, 0
4, 16224, Note_on_c, 3, 59, 92
4, 16256, Note_on_c, 3, 59, 0
4, 16320, Note_on_c, 3, 62, 92
4, 16352, Note_on_c, 3, 62, 0
4, 16416, Note_on_c, 3, 65, 61
4, 16448, Note_on_c, 3, 65, 0
4, 16512, Note_on_c, 3, 67, 30
4, 16542, Note_on_c, 3, 67, 0
4, 16544, Note_on_c, 3, 69, 30
4, 16574, Note_on_c, 3, 69, 0
4, 16576, Note_on_c, 3, 71, 30
4, 16606, Note_on_c, 3, 71, 0
4, 16608, Note_on_c, 3, 72, 30
4, 16638, Note_on_c, 3, 72, 0
4, 16640, Note_on_c, 3, 74, 30
4, 16670, Note_on_c, 3, 74, 0
4, 16672, Note_on_c, 3, 72, 30
4, 16702, Note_on_c, 3, 72, 0
4, 16704, Note_on_c, 3, 57, 30
4, 16734, Note_on_c, 3, 57, 0
4, 16736, Note_on_c, 3, 58, 30
4, 16766, Note_on_c, 3, 58, 0
4, 16768, Note_on_c, 3, 60, 30
4, 16798, Note_on_c, 3, 60, 0
4, 16800, Note_on_c, 3, 62, 30
4, 16830, Note_on_c, 3, 62, 0
4, 16832, Note_on_c, 3, 64, 30
4, 16862, Note_on_c, 3, 64, 0
4, 16864, Note_on_c, 3, 62, 30
4, 16894, Note_on_c, 3, 62, 0
4, 16896, Note_on_c, 3, 64, 30
4, 16926, Note_on_c, 3, 64, 0
4, 16928, Note_on_c, 3, 64, 30
4, 16958, Note_on_c, 3, 64, 0
4, 16960, Note_on_c, 3, 64, 30
4, 16990, Note_on_c, 3, 64, 0
4, 16992, Note_on_c, 3, 64, 30
4, 17022, Note_on_c, 3, 64, 0
4, 17024, Note_on_c, 3, 64, 30
4, 17054, Note_on_c, 3, 64, 0
4, 17056, Note_on_c, 3, 64, 30
4, 17086, Note_on_c, 3, 64, 0
4, 17088, Note_on_c, 3, 66, 30
4, 17118, Note_on_c, 3, 66, 0
4, 17120, Note_on_c, 3, 64, 30
4, 17150, Note_on_c, 3, 64, 0
4, 17152, Note_on_c, 3, 62, 30
4, 17182, Note_on_c, 3, 62, 0
4, 17184, Note_on_c, 3, 62, 30
4, 17214, Note_on_c, 3, 62, 0
4, 17216, Note_on_c, 3, 62, 30
4, 17246, Note_on_c, 3, 62, 0
4, 17248, Note_on_c, 3, 62, 30
4, 17278, Note_on_c, 3, 62, 0
4, 17280, Note_on_c, 3, 60, 30
4, 17376, Note_on_c, 3, 60, 0
4, 17376, Note_on_c, 3, 55, 52
4, 17472, Note_on_c, 3, 55, 0
4, 17472, Note_on_c, 3, 60, 75
4, 17566, Note_on_c, 3, 60, 0
4, 17568, Note_on_c, 3, 57, 60
4, 17600, Note_on_c, 3, 57, 0
4, 17664, Note_on_c, 3, 55, 45
4, 17952, Note_on_c, 3, 55, 0
4, 17952, Note_on_c, 3, 57, 45
4, 18000, Note_on_c, 3, 57, 0
4, 18000, Note_on_c, 3, 59, 45
4, 18046, Note_on_c, 3, 59, 0
4, 18048, Note_on_c, 3, 60, 45
4, 18144, Note_on_c, 3, 60, 0
4, 18144, Note_on_c, 3, 62, 48
4, 18240, Note_on_c, 3, 62, 0
4, 18240, Note_on_c, 3, 64, 51
4, 18272, Note_on_c, 3, 64, 0
4, 18336, Note_on_c, 3, 60, 55
4, 18368, Note_on_c, 3, 60, 0
4, 18432, Note_on_c, 3, 59, 59
4, 18528, Note_on_c, 3, 59, 0
4, 18528, Note_on_c, 3, 56, 63
4, 18624, Note_on_c, 3, 56, 0
4, 18624, Note_on_c, 3, 57, 67
4, 18720, Note_on_c, 3, 57, 0
4, 18720, Note_on_c, 3, 50, 71
4, 18814, Note_on_c, 3, 50, 0
4, 18816, Note_on_c, 3, 50, 30
4, 18862, Note_on_c, 3, 50, 0
4, 18864, Note_on_c, 3, 59, 30
4, 18910, Note_on_c, 3, 59, 0
4, 18912, Note_on_c, 3, 59, 30
4, 18958, Note_on_c, 3, 59, 0
4, 18960, Note_on_c, 3, 71, 30
4, 19006, Note_on_c, 3, 71, 0
4, 19008, Note_on_c, 3, 71, 30
4, 19054, Note_on_c, 3, 71, 0
4, 19056, Note_on_c, 3, 71, 30
4, 19102, Note_on_c, 3, 71, 0
4, 19104, Note_on_c, 3, 71, 30
4, 19150, Note_on_c, 3, 71, 0
4, 19152, Note_on_c, 3, 71, 30
4, 19198, Note_on_c, 3, 71, 0
4, 19200, Note_on_c, 3, 64, 30
4, 19246, Note_on_c, 3, 64, 0
4, 19248, Note_on_c, 3, 64, 30
4, 19294, Note_on_c, 3, 64, 0
4, 19296, Note_on_c, 3, 64, 30
4, 19342, Note_on_c, 3, 64, 0
4, 19344, Note_on_c, 3, 64, 30
4, 19390, Note_on_c, 3, 64, 0
4, 19392, Note_on_c, 3, 64, 30
4, 19438, Note_on_c, 3, 64, 0
4, 19440, Note_on_c, 3, 60, 30
4, 19486, Note_on_c, 3, 60, 0
4, 19488, Note_on_c, 3, 60, 30
4, 19534, Note_on_c, 3, 60, 0
4, 19536, Note_on_c, 3, 72, 30
4, 19582, Note_on_c, 3, 72, 0
4, 19584, Note_on_c, 3, 72, 30
4, 19614, Note_on_c, 3, 72, 0
4, 19616, Note_on_c, 3, 71, 30
4, 19646, Note_on_c, 3, 71, 0
4, 19648, Note_on_c, 3, 71, 30
4, 19678, Note_on_c, 3, 71, 0
4, 19680, Note_on_c, 3, 71, 30
4, 19710, Note_on_c, 3, 71, 0
4, 19712, Note_on_c, 3, 71, 30
4, 19742, Note_on_c, 3, 71, 0
4, 19744, Note_on_c, 3, 71, 30
4, 19774, Note_on_c, 3, 71, 0
4, 19776, Note_on_c, 3, 71, 30
4, 19806, Note_on_c, 3, 71, 0
4, 19808, Note_on_c, 3, 71, 30
4, 19838, Note_on_c, 3, 71, 0
4, 19840, Note_on_c, 3, 71, 30
4, 19870, Note_on_c, 3, 71, 0
4, 19872, Note_on_c, 3, 71, 30
4, 19902, Note_on_c, 3, 71, 0
4, 19904, Note_on_c, 3, 71, 30
4, 19934, Note_on_c, 3, 71, 0
4, 19936, Note_on_c, 3, 71, 30
4, 19966, Note_on_c, 3, 71, 0
4, 19968, Note_on_c, 3, 64, 30
4, 19998, Note_on_c, 3, 64, 0
4, 20000, Note_on_c, 3, 64, 32
4, 20030, Note_on_c, 3, 64, 0
4, 20032, Note_on_c, 3, 64, 34
4, 20062, Note_on_c, 3, 64, 0
4, 20064, Note_on_c, 3, 59, 36
4, 20094, Note_on_c, 3, 59, 0
4, 20096, Note_on_c, 3, 59, 39
4, 20126, Note_on_c, 3, 59, 0
4, 20128, Note_on_c, 3, 59, 42
4, 20158, Note_on_c, 3, 59, 0
4, 20160, Note_on_c, 3, 60, 45
4, 20190, Note_on_c, 3, 60, 0
4, 20192, Note_on_c, 3, 60, 45
4, 20222, Note_on_c, 3, 60, 0
4, 20224, Note_on_c, 3, 60, 45
4, 20254, Note_on_c, 3, 60, 0
4, 20256, Note_on_c, 3, 62, 45
4, 20286, Note_on_c, 3, 62, 0
4, 20288, Note_on_c, 3, 62, 45
4, 20318, Note_on_c, 3, 62, 0
4, 20320, Note_on_c, 3, 62, 45
4, 20350, Note_on_c, 3, 62, 0
4, 20352, Note_on_c, 3, 48, 45
4, 20544, Note_on_c, 3, 48, 0
4, 20544, Note_on_c, 3, 50, 60
4, 20704, Note_on_c, 3, 50, 0
4, 20736, Note_on_c, 3, 52, 45
4, 20768, Note_on_c, 3, 52, 0
4, 20832, Note_on_c, 3, 53, 45
4, 20864, Note_on_c, 3, 53, 0
4, 20928, Note_on_c, 3, 55, 45
4, 20960, Note_on_c, 3, 55, 0
4, 21120, Note_on_c, 3, 52, 45
4, 21120, Note_on_c, 3, 55, 45
4, 21312, Note_on_c, 3, 52, 0
4, 21312, Note_on_c, 3, 53, 56
4, 21456, Note_on_c, 3, 55, 0
4, 21472, Note_on_c, 3, 53, 0
4, 21504, Note_on_c, 3, 55, 68
4, 21536, Note_on_c, 3, 55, 0
4, 21600, Note_on_c, 3, 57, 74
4, 21632, Note_on_c, 3, 57, 0
4, 21728, Note_on_c, 3, 57, 82
4, 21760, Note_on_c, 3, 57, 0
4, 21760, Note_on_c, 3, 55, 84
4, 21792, Note_on_c, 3, 55, 0
4, 21792, Note_on_c, 3, 53, 86
4, 21824, Note_on_c, 3, 53, 0
4, 21824, Note_on_c, 3, 52, 88
4, 21856, Note_on_c, 3, 52, 0
4, 21856, Note_on_c, 3, 50, 90
4, 21886, Note_on_c, 3, 50, 0
4, 21888, Note_on_c, 3, 52, 92
4, 21920, Note_on_c, 3, 52, 0
4, 22176, Note_on_c, 3, 67, 45
4, 22272, Note_on_c, 3, 67, 0
4, 22272, Note_on_c, 3, 65, 45
4, 22366, Note_on_c, 3, 65, 0
4, 22560, Note_on_c, 3, 50, 45
4, 22656, Note_on_c, 3, 50, 0
4, 22656, Note_on_c, 3, 48, 45
4, 22750, Note_on_c, 3, 48, 0
4, 22944, Note_on_c, 3, 67, 45
4, 23040, Note_on_c, 3, 67, 0
4, 23040, Note_on_c, 3, 65, 45
4, 23134, Note_on_c, 3, 65, 0
4, 23328, Note_on_c, 3, 50, 45
4, 23328, Note_on_c, 3, 55, 45
4, 23424, Note_on_c, 3, 50, 0
4, 23424, Note_on_c, 3, 55, 0
4, 23424, Note_on_c, 3, 50, 45
4, 23424, Note_on_c, 3, 55, 45
4, 23518, Note_on_c, 3, 50, 0
4, 23518, Note_on_c, 3, 55, 0
4, 24576, Note_on_c, 3, 59, 45
4, 24600, Note_on_c, 3, 59, 0
4, 24600, Note_on_c, 3, 60, 45
4, 24624, Note_on_c, 3, 60, 0
4, 24624, Note_on_c, 3, 62, 45
4, 24768, Note_on_c, 3, 62, 0
4, 24768, Note_on_c, 3, 57, 45
4, 24936, Note_on_c, 3, 57, 0
4, 24936, Note_on_c, 3, 59, 45
4, 24958, Note_on_c, 3, 59, 0
4, 24960, Note_on_c, 3, 55, 45
4, 25054, Note_on_c, 3, 55, 0
4, 26688, Note_on_c, 3, 63, 45
4, 26880, Note_on_c, 3, 63, 0
4, 26880, Note_on_c, 3, 53, 45
4, 27072, Note_on_c, 3, 53, 0
4, 27072, Note_on_c, 3, 60, 45
4, 27264, Note_on_c, 3, 60, 0
4, 27264, Note_on_c, 3, 58, 45
4, 27424, Note_on_c, 3, 58, 0
4, 27456, Note_on_c, 3, 65, 45
4, 27648, Note_on_c, 3, 65, 0
4, 27648, Note_on_c, 3, 55, 45
4, 27840, Note_on_c, 3, 55, 0
4, 27840, Note_on_c, 3, 61, 45
4, 28000, Note_on_c, 3, 61, 0
4, 28032, Note_on_c, 3, 48, 45
4, 28062, Note_on_c, 3, 48, 0
4, 28064, Note_on_c, 3, 51, 45
4, 28094, Note_on_c, 3, 51, 0
4, 28096, Note_on_c, 3, 56, 45
4, 28126, Note_on_c, 3, 56, 0
4, 28128, Note_on_c, 3, 60, 45
4, 28158, Note_on_c, 3, 60, 0
4, 28160, Note_on_c, 3, 63, 45
4, 28190, Note_on_c, 3, 63, 0
4, 28192, Note_on_c, 3, 68, 45
4, 28222, Note_on_c, 3, 68, 0
4, 28224, Note_on_c, 3, 67, 45
4, 28392, Note_on_c, 3, 67, 0
4, 28392, Note_on_c, 3, 68, 45
4, 28414, Note_on_c, 3, 68, 0
4, 28416, Note_on_c, 3, 49, 45
4, 28440, Note_on_c, 3, 49, 0
4, 28440, Note_on_c, 3, 51, 45
4, 28464, Note_on_c, 3, 51, 0
4, 28464, Note_on_c, 3, 53, 45
4, 28608, Note_on_c, 3, 53, 0
4, 28608, Note_on_c, 3, 48, 45
4, 28776, Note_on_c, 3, 48, 0
4, 28776, Note_on_c, 3, 49, 45
4, 28798, Note_on_c, 3, 49, 0
4, 28800, Note_on_c, 3, 49, 45
4, 28896, Note_on_c, 3, 49, 0
4, 28896, Note_on_c, 3, 61, 45
4, 28992, Note_on_c, 3, 61, 0
4, 28992, Note_on_c, 3, 60, 45
4, 29160, Note_on_c, 3, 60, 0
4, 29160, Note_on_c, 3, 61, 45
4, 29182, Note_on_c, 3, 61, 0
4, 29184, Note_on_c, 3, 58, 45
4, 29208, Note_on_c, 3, 58, 0
4, 29208, Note_on_c, 3, 60, 45
4, 29232, Note_on_c, 3, 60, 0
4, 29232, Note_on_c, 3, 61, 45
4, 29376, Note_on_c, 3, 61, 0
4, 29376, Note_on_c, 3, 56, 45
4, 29544, Note_on_c, 3, 56, 0
4, 29544, Note_on_c, 3, 58, 45
4, 29566, Note_on_c, 3, 58, 0
4, 29568, Note_on_c, 3, 56, 45
4, 29592, Note_on_c, 3, 56, 0
4, 29592, Note_on_c, 3, 58, 45
4, 29616, Note_on_c, 3, 58, 0
4, 29616, Note_on_c, 3, 60, 45
4, 29760, Note_on_c, 3, 60, 0
4, 29760, Note_on_c, 3, 61, 56
4, 29928, Note_on_c, 3, 61, 0
4, 29928, Note_on_c, 3, 63, 66
4, 29950, Note_on_c, 3, 63, 0
4, 29952, Note_on_c, 3, 63, 67
4, 30112, Note_on_c, 3, 63, 0
4, 30144, Note_on_c, 3, 53, 79
4, 30174, Note_on_c, 3, 53, 0
4, 30176, Note_on_c, 3, 57, 81
4, 30206, Note_on_c, 3, 57, 0
4, 30208, Note_on_c, 3, 60, 83
4, 30238, Note_on_c, 3, 60, 0
4, 30240, Note_on_c, 3, 65, 85
4, 30270, Note_on_c, 3, 65, 0
4, 30272, Note_on_c, 3, 69, 87
4, 30302, Note_on_c, 3, 69, 0
4, 30304, Note_on_c, 3, 72, 89
4, 30334, Note_on_c, 3, 72, 0
4, 30336, Note_on_c, 3, 72, 92
4, 30382, Note_on_c, 3, 72, 0
4, 30408, Note_on_c, 3, 60, 92
4, 30432, Note_on_c, 3, 60, 0
4, 30432, Note_on_c, 3, 53, 92
4, 30480, Note_on_c, 3, 53, 0
4, 30480, Note_on_c, 3, 57, 92
4, 30528, Note_on_c, 3, 57, 0
4, 30528, Note_on_c, 3, 60, 92
4, 30560, Note_on_c, 3, 60, 0
4, 30984, Note_on_c, 3, 60, 45
4, 31008, Note_on_c, 3, 60, 0
4, 31008, Note_on_c, 3, 53, 45
4, 31056, Note_on_c, 3, 53, 0
4, 31056, Note_on_c, 3, 57, 45
4, 31104, Note_on_c, 3, 57, 0
4, 31104, Note_on_c, 3, 58, 45
4, 31136, Note_on_c, 3, 58, 0
4, 31584, Note_on_c, 3, 58, 45
4, 31656, Note_on_c, 3, 58, 0
4, 31656, Note_on_c, 3, 60, 65
4, 31678, Note_on_c, 3, 60, 0
4, 31680, Note_on_c, 3, 62, 71
4, 31750, Note_on_c, 3, 62, 0
4, 31752, Note_on_c, 3, 55, 92
4, 31776, Note_on_c, 3, 55, 0
4, 31776, Note_on_c, 3, 48, 92
4, 31824, Note_on_c, 3, 48, 0
4, 31824, Note_on_c, 3, 52, 92
4, 31872, Note_on_c, 3, 52, 0
4, 31872, Note_on_c, 3, 55, 92
4, 31904, Note_on_c, 3, 55, 0
4, 32352, Note_on_c, 3, 57, 45
4, 32384, Note_on_c, 3, 57, 0
4, 32448, Note_on_c, 3, 55, 45
4, 32480, Note_on_c, 3, 55, 0
4, 32544, Note_on_c, 3, 52, 45
4, 32576, Note_on_c, 3, 52, 0
4, 32736, Note_on_c, 3, 57, 45
4, 32808, Note_on_c, 3, 57, 0
4, 32808, Note_on_c, 3, 58, 45
4, 32830, Note_on_c, 3, 58, 0
4, 32832, Note_on_c, 3, 60, 45
4, 32992, Note_on_c, 3, 60, 0
4, 33120, Note_on_c, 3, 69, 45
4, 33376, Note_on_c, 3, 69, 0
4, 33504, Note_on_c, 3, 57, 45
4, 33576, Note_on_c, 3, 57, 0
4, 33576, Note_on_c, 3, 59, 45
4, 33598, Note_on_c, 3, 59, 0
4, 33600, Note_on_c, 3, 60, 45
4, 33760, Note_on_c, 3, 60, 0
4, 33792, Note_on_c, 3, 52, 45
4, 33824, Note_on_c, 3, 52, 0
4, 33888, Note_on_c, 3, 57, 45
4, 33920, Note_on_c, 3, 57, 0
4, 33984, Note_on_c, 3, 52, 45
4, 34016, Note_on_c, 3, 52, 0
4, 34080, Note_on_c, 3, 56, 45
4, 34112, Note_on_c, 3, 56, 0
4, 34176, Note_on_c, 3, 52, 45
4, 34208, Note_on_c, 3, 52, 0
4, 34272, Note_on_c, 3, 56, 45
4, 34304, Note_on_c, 3, 56, 0
4, 34368, Note_on_c, 3, 52, 45
4, 34400, Note_on_c, 3, 52, 0
4, 34464, Note_on_c, 3, 61, 45
4, 34496, Note_on_c, 3, 61, 0
4, 34560, Note_on_c, 3, 62, 45
4, 34592, Note_on_c, 3, 62, 0
4, 34656, Note_on_c, 3, 62, 45
4, 34680, Note_on_c, 3, 62, 0
4, 34680, Note_on_c, 3, 64, 45
4, 34704, Note_on_c, 3, 64, 0
4, 34704, Note_on_c, 3, 65, 45
4, 34736, Note_on_c, 3, 65, 0
4, 34752, Note_on_c, 3, 64, 45
4, 34784, Note_on_c, 3, 64, 0
4, 34848, Note_on_c, 3, 64, 45
4, 34872, Note_on_c, 3, 64, 0
4, 34872, Note_on_c, 3, 67, 45
4, 34896, Note_on_c, 3, 67, 0
4, 34896, Note_on_c, 3, 69, 45
4, 34928, Note_on_c, 3, 69, 0
4, 34944, Note_on_c, 3, 69, 45
4, 34974, Note_on_c, 3, 69, 0
4, 34976, Note_on_c, 3, 67, 45
4, 35006, Note_on_c, 3, 67, 0
4, 35008, Note_on_c, 3, 65, 45
4, 35038, Note_on_c, 3, 65, 0
4, 35040, Note_on_c, 3, 67, 45
4, 35070, Note_on_c, 3, 67, 0
4, 35072, Note_on_c, 3, 65, 45
4, 35102, Note_on_c, 3, 65, 0
4, 35104, Note_on_c, 3, 64, 45
4, 35134, Note_on_c, 3, 64, 0
4, 35136, Note_on_c, 3, 66, 45
4, 35166, Note_on_c, 3, 66, 0
4, 35168, Note_on_c, 3, 67, 45
4, 35198, Note_on_c, 3, 67, 0
4, 35200, Note_on_c, 3, 69, 45
4, 35230, Note_on_c, 3, 69, 0
4, 35232, Note_on_c, 3, 69, 45
4, 35262, Note_on_c, 3, 69, 0
4, 35264, Note_on_c, 3, 67, 45
4, 35294, Note_on_c, 3, 67, 0
4, 35296, Note_on_c, 3, 66, 45
4, 35326, Note_on_c, 3, 66, 0
4, 35328, Note_on_c, 3, 71, 45
4, 35358, Note_on_c, 3, 71, 0
4, 35360, Note_on_c, 3, 72, 45
4, 35390, Note_on_c, 3, 72, 0
4, 35392, Note_on_c, 3, 74, 45
4, 35422, Note_on_c, 3, 74, 0
4, 35424, Note_on_c, 3, 74, 45
4, 35454, Note_on_c, 3, 74, 0
4, 35456, Note_on_c, 3, 74, 45
4, 35486, Note_on_c, 3, 74, 0
4, 35488, Note_on_c, 3, 74, 45
4, 35518, Note_on_c, 3, 74, 0
4, 35520, Note_on_c, 3, 72, 45
4, 35550, Note_on_c, 3, 72, 0
4, 35552, Note_on_c, 3, 71, 45
4, 35582, Note_on_c, 3, 71, 0
4, 35584, Note_on_c, 3, 69, 45
4, 35614, Note_on_c, 3, 69, 0
4, 35616, Note_on_c, 3, 69, 45
4, 35646, Note_on_c, 3, 69, 0
4, 35648, Note_on_c, 3, 69, 45
4, 35678, Note_on_c, 3, 69, 0
4, 35680, Note_on_c, 3, 69, 45
4, 35710, Note_on_c, 3, 69, 0
4, 35712, Note_on_c, 3, 71, 45
4, 35742, Note_on_c, 3, 71, 0
4, 35744, Note_on_c, 3, 69, 45
4, 35774, Note_on_c, 3, 69, 0
4, 35776, Note_on_c, 3, 67, 45
4, 35806, Note_on_c, 3, 67, 0
4, 35808, Note_on_c, 3, 69, 45
4, 35838, Note_on_c, 3, 69, 0
4, 35840, Note_on_c, 3, 67, 45
4, 35870, Note_on_c, 3, 67, 0
4, 35872, Note_on_c, 3, 66, 45
4, 35902, Note_on_c, 3, 66, 0
4, 35904, Note_on_c, 3, 67, 45
4, 35998, Note_on_c, 3, 67, 0
4, 36096, Note_on_c, 3, 55, 45
4, 36126, Note_on_c, 3, 55, 0
4, 36128, Note_on_c, 3, 57, 45
4, 36158, Note_on_c, 3, 57, 0
4, 36160, Note_on_c, 3, 59, 45
4, 36190, Note_on_c, 3, 59, 0
4, 36192, Note_on_c, 3, 57, 45
4, 36222, Note_on_c, 3, 57, 0
4, 36224, Note_on_c, 3, 59, 45
4, 36254, Note_on_c, 3, 59, 0
4, 36256, Note_on_c, 3, 60, 45
4, 36286, Note_on_c, 3, 60, 0
4, 36288, Note_on_c, 3, 59, 45
4, 36318, Note_on_c, 3, 59, 0
4, 36320, Note_on_c, 3, 60, 45
4, 36350, Note_on_c, 3, 60, 0
4, 36352, Note_on_c, 3, 62, 45
4, 36382, Note_on_c, 3, 62, 0
4, 36384, Note_on_c, 3, 59, 45
4, 36414, Note_on_c, 3, 59, 0
4, 36416, Note_on_c, 3, 60, 45
4, 36446, Note_on_c, 3, 60, 0
4, 36448, Note_on_c, 3, 59, 45
4, 36478, Note_on_c, 3, 59, 0
4, 36480, Note_on_c, 3, 67, 45
4, 36510, Note_on_c, 3, 67, 0
4, 36512, Note_on_c, 3, 69, 45
4, 36542, Note_on_c, 3, 69, 0
4, 36544, Note_on_c, 3, 71, 45
4, 36574, Note_on_c, 3, 71, 0
4, 36576, Note_on_c, 3, 72, 45
4, 36606, Note_on_c, 3, 72, 0
4, 36608, Note_on_c, 3, 71, 45
4, 36638, Note_on_c, 3, 71, 0
4, 36640, Note_on_c, 3, 69, 45
4, 36670, Note_on_c, 3, 69, 0
4, 36672, Note_on_c, 3, 67, 45
4, 36702, Note_on_c, 3, 67, 0
4, 36704, Note_on_c, 3, 63, 45
4, 36734, Note_on_c, 3, 63, 0
4, 36736, Note_on_c, 3, 62, 45
4, 36766, Note_on_c, 3, 62, 0
4, 36768, Note_on_c, 3, 59, 45
4, 36798, Note_on_c, 3, 59, 0
4, 36800, Note_on_c, 3, 60, 45
4, 36830, Note_on_c, 3, 60, 0
4, 36832, Note_on_c, 3, 62, 45
4, 36862, Note_on_c, 3, 62, 0
4, 36864, Note_on_c, 3, 52, 45
4, 36894, Note_on_c, 3, 52, 0
4, 36896, Note_on_c, 3, 53, 45
4, 36926, Note_on_c, 3, 53, 0
4, 36928, Note_on_c, 3, 55, 45
4, 36958, Note_on_c, 3, 55, 0
4, 36960, Note_on_c, 3, 56, 45
4, 36990, Note_on_c, 3, 56, 0
4, 36992, Note_on_c, 3, 55, 45
4, 37022, Note_on_c, 3, 55, 0
4, 37024, Note_on_c, 3, 53, 45
4, 37054, Note_on_c, 3, 53, 0
4, 37056, Note_on_c, 3, 55, 45
4, 37086, Note_on_c, 3, 55, 0
4, 37088, Note_on_c, 3, 53, 45
4, 37118, Note_on_c, 3, 53, 0
4, 37120, Note_on_c, 3, 52, 45
4, 37150, Note_on_c, 3, 52, 0
4, 37152, Note_on_c, 3, 52, 45
4, 37182, Note_on_c, 3, 52, 0
4, 37184, Note_on_c, 3, 53, 45
4, 37214, Note_on_c, 3, 53, 0
4, 37216, Note_on_c, 3, 55, 45
4, 37246, Note_on_c, 3, 55, 0
4, 37248, Note_on_c, 3, 72, 45
4, 37280, Note_on_c, 3, 72, 0
4, 37344, Note_on_c, 3, 67, 45
4, 37376, Note_on_c, 3, 67, 0
4, 37440, Note_on_c, 3, 72, 45
4, 37472, Note_on_c, 3, 72, 0
4, 37536, Note_on_c, 3, 72, 45
4, 37560, Note_on_c, 3, 72, 0
4, 37560, Note_on_c, 3, 74, 45
4, 37584, Note_on_c, 3, 74, 0
4, 37584, Note_on_c, 3, 76, 45
4, 37616, Note_on_c, 3, 76, 0
4, 37632, Note_on_c, 3, 64, 45
4, 37662, Note_on_c, 3, 64, 0
4, 37664, Note_on_c, 3, 65, 46
4, 37694, Note_on_c, 3, 65, 0
4, 37696, Note_on_c, 3, 67, 48
4, 37726, Note_on_c, 3, 67, 0
4, 37728, Note_on_c, 3, 68, 50
4, 37758, Note_on_c, 3, 68, 0
4, 37760, Note_on_c, 3, 67, 52
4, 37790, Note_on_c, 3, 67, 0
4, 37792, Note_on_c, 3, 65, 54
4, 37822, Note_on_c, 3, 65, 0
4, 37824, Note_on_c, 3, 67, 56
4, 37854, Note_on_c, 3, 67, 0
4, 37856, Note_on_c, 3, 65, 58
4, 37886, Note_on_c, 3, 65, 0
4, 37888, Note_on_c, 3, 64, 60
4, 37918, Note_on_c, 3, 64, 0
4, 37920, Note_on_c, 3, 64, 62
4, 37950, Note_on_c, 3, 64, 0
4, 37952, Note_on_c, 3, 65, 64
4, 37982, Note_on_c, 3, 65, 0
4, 37984, Note_on_c, 3, 67, 66
4, 38014, Note_on_c, 3, 67, 0
4, 38016, Note_on_c, 3, 55, 68
4, 38046, Note_on_c, 3, 55, 0
4, 38048, Note_on_c, 3, 55, 70
4, 38078, Note_on_c, 3, 55, 0
4, 38080, Note_on_c, 3, 55, 72
4, 38110, Note_on_c, 3, 55, 0
4, 38112, Note_on_c, 3, 53, 74
4, 38142, Note_on_c, 3, 53, 0
4, 38144, Note_on_c, 3, 52, 76
4, 38174, Note_on_c, 3, 52, 0
4, 38176, Note_on_c, 3, 50, 78
4, 38206, Note_on_c, 3, 50, 0
4, 38208, Note_on_c, 3, 52, 80
4, 38238, Note_on_c, 3, 52, 0
4, 38240, Note_on_c, 3, 50, 82
4, 38270, Note_on_c, 3, 50, 0
4, 38272, Note_on_c, 3, 48, 84
4, 38302, Note_on_c, 3, 48, 0
4, 38304, Note_on_c, 3, 58, 86
4, 38334, Note_on_c, 3, 58, 0
4, 38336, Note_on_c, 3, 58, 88
4, 38366, Note_on_c, 3, 58, 0
4, 38368, Note_on_c, 3, 58, 90
4, 38398, Note_on_c, 3, 58, 0
4, 38400, Note_on_c, 3, 55, 92
4, 38424, Note_on_c, 3, 55, 0
4, 38424, Note_on_c, 3, 57, 92
4, 38448, Note_on_c, 3, 57, 0
4, 38448, Note_on_c, 3, 58, 92
4, 38590, Note_on_c, 3, 58, 0
4, 38592, Note_on_c, 3, 53, 92
4, 38760, Note_on_c, 3, 53, 0
4, 38760, Note_on_c, 3, 55, 92
4, 38784, Note_on_c, 3, 55, 0
4, 38784, Note_on_c, 3, 52, 92
4, 38878, Note_on_c, 3, 52, 0
4, 39048, Note_on_c, 3, 58, 92
4, 39072, Note_on_c, 3, 58, 0
4, 39072, Note_on_c, 3, 53, 92
4, 39120, Note_on_c, 3, 53, 0
4, 39120, Note_on_c, 3, 55, 92
4, 39168, Note_on_c, 3, 55, 0
4, 39168, Note_on_c, 3, 52, 92
4, 39262, Note_on_c, 3, 52, 0
4, 39432, Note_on_c, 3, 55, 45
4, 39456, Note_on_c, 3, 55, 0
4, 39456, Note_on_c, 3, 48, 45
4, 39504, Note_on_c, 3, 48, 0
4, 39504, Note_on_c, 3, 52, 45
4, 39552, Note_on_c, 3, 52, 0
4, 39552, Note_on_c, 3, 53, 45
4, 39584, Note_on_c, 3, 53, 0
4, 39624, Note_on_c, 3, 57, 45
4, 39648, Note_on_c, 3, 57, 0
4, 39648, Note_on_c, 3, 48, 45
4, 39696, Note_on_c, 3, 48, 0
4, 39696, Note_on_c, 3, 53, 45
4, 39744, Note_on_c, 3, 53, 0
4, 39744, Note_on_c, 3, 55, 45
4, 39776, Note_on_c, 3, 55, 0
4, 39816, Note_on_c, 3, 58, 45
4, 39840, Note_on_c, 3, 58, 0
4, 39840, Note_on_c, 3, 48, 45
4, 39888, Note_on_c, 3, 48, 0
4, 39888, Note_on_c, 3, 55, 45
4, 39934, Note_on_c, 3, 55, 0
4, 39936, Note_on_c, 3, 57, 45
4, 40008, Note_on_c, 3, 57, 0
4, 40008, Note_on_c, 3, 58, 45
4, 40030, Note_on_c, 3, 58, 0
4, 40032, Note_on_c, 3, 60, 45
4, 40174, Note_on_c, 3, 60, 0
4, 40176, Note_on_c, 3, 65, 45
4, 40224, Note_on_c, 3, 65, 0
4, 40224, Note_on_c, 3, 64, 45
4, 40272, Note_on_c, 3, 64, 0
4, 40272, Note_on_c, 3, 62, 45
4, 40320, Note_on_c, 3, 62, 0
4, 40320, Note_on_c, 3, 60, 45
4, 40352, Note_on_c, 3, 60, 0
4, 40368, Note_on_c, 3, 62, 45
4, 40416, Note_on_c, 3, 62, 0
4, 40416, Note_on_c, 3, 58, 45
4, 40464, Note_on_c, 3, 58, 0
4, 40464, Note_on_c, 3, 55, 45
4, 40512, Note_on_c, 3, 55, 0
4, 40512, Note_on_c, 3, 53, 45
4, 40544, Note_on_c, 3, 53, 0
4, 40560, Note_on_c, 3, 55, 45
4, 40608, Note_on_c, 3, 55, 0
4, 40608, Note_on_c, 3, 52, 45
4, 40656, Note_on_c, 3, 52, 0
4, 40656, Note_on_c, 3, 48, 45
4, 40702, Note_on_c, 3, 48, 0
4, 40704, Note_on_c, 3, 57, 45
4, 40776, Note_on_c, 3, 57, 0
4, 40776, Note_on_c, 3, 58, 45
4, 40798, Note_on_c, 3, 58, 0
4, 40800, Note_on_c, 3, 60, 45
4, 40942, Note_on_c, 3, 60, 0
4, 40968, Note_on_c, 3, 65, 45
4, 40992, Note_on_c, 3, 65, 0
4, 40992, Note_on_c, 3, 64, 45
4, 41040, Note_on_c, 3, 64, 0
4, 41040, Note_on_c, 3, 62, 45
4, 41088, Note_on_c, 3, 62, 0
4, 41088, Note_on_c, 3, 60, 45
4, 41134, Note_on_c, 3, 60, 0
4, 41160, Note_on_c, 3, 50, 45
4, 41184, Note_on_c, 3, 50, 0
4, 41184, Note_on_c, 3, 58, 45
4, 41232, Note_on_c, 3, 58, 0
4, 41232, Note_on_c, 3, 62, 45
4, 41280, Note_on_c, 3, 62, 0
4, 41280, Note_on_c, 3, 57, 45
4, 41326, Note_on_c, 3, 57, 0
4, 41352, Note_on_c, 3, 52, 45
4, 41376, Note_on_c, 3, 52, 0
4, 41376, Note_on_c, 3, 55, 45
4, 41424, Note_on_c, 3, 55, 0
4, 41424, Note_on_c, 3, 64, 45
4, 41472, Note_on_c, 3, 64, 0
4, 41472, Note_on_c, 3, 65, 45
4, 41566, Note_on_c, 3, 65, 0
4, 41664, Note_on_c, 3, 59, 45
4, 41760, Note_on_c, 3, 59, 0
4, 41760, Note_on_c, 3, 60, 45
4, 41856, Note_on_c, 3, 60, 0
4, 41856, Note_on_c, 3, 49, 45
4, 41952, Note_on_c, 3, 49, 0
4, 41952, Note_on_c, 3, 50, 45
4, 42048, Note_on_c, 3, 50, 0
4, 42048, Note_on_c, 3, 57, 45
4, 42144, Note_on_c, 3, 57, 0
4, 42144, Note_on_c, 3, 58, 45
4, 42240, Note_on_c, 3, 58, 0
4, 42240, Note_on_c, 3, 57, 45
4, 42336, Note_on_c, 3, 57, 0
4, 42336, Note_on_c, 3, 55, 45
4, 42432, Note_on_c, 3, 55, 0
4, 42432, Note_on_c, 3, 61, 45
4, 42528, Note_on_c, 3, 61, 0
4, 42528, Note_on_c, 3, 62, 45
4, 42624, Note_on_c, 3, 62, 0
4, 42624, Note_on_c, 3, 51, 45
4, 42720, Note_on_c, 3, 51, 0
4, 42720, Note_on_c, 3, 52, 45
4, 42816, Note_on_c, 3, 52, 0
4, 42816, Note_on_c, 3, 60, 45
4, 42912, Note_on_c, 3, 60, 0
4, 42912, Note_on_c, 3, 58, 45
4, 43006, Note_on_c, 3, 58, 0
4, 43008, Note_on_c, 3, 58, 45
4, 43104, Note_on_c, 3, 58, 0
4, 43104, Note_on_c, 3, 57, 45
4, 43198, Note_on_c, 3, 57, 0
4, 43200, Note_on_c, 3, 64, 45
4, 43296, Note_on_c, 3, 64, 0
4, 43296, Note_on_c, 3, 65, 45
4, 43392, Note_on_c, 3, 65, 0
4, 43392, Note_on_c, 3, 54, 45
4, 43488, Note_on_c, 3, 54, 0
4, 43488, Note_on_c, 3, 55, 45
4, 43584, Note_on_c, 3, 55, 0
4, 43584, Note_on_c, 3, 62, 45
4, 43680, Note_on_c, 3, 62, 0
4, 43680, Note_on_c, 3, 63, 45
4, 43776, Note_on_c, 3, 63, 0
4, 43776, Note_on_c, 3, 62, 45
4, 43872, Note_on_c, 3, 62, 0
4, 43872, Note_on_c, 3, 60, 45
4, 43966, Note_on_c, 3, 60, 0
4, 44736, Note_on_c, 3, 53, 45
4, 44832, Note_on_c, 3, 53, 0
4, 44832, Note_on_c, 3, 51, 48
4, 44926, Note_on_c, 3, 51, 0
4, 44928, Note_on_c, 3, 51, 51
4, 45024, Note_on_c, 3, 51, 0
4, 45024, Note_on_c, 3, 50, 54
4, 45120, Note_on_c, 3, 50, 0
4, 45120, Note_on_c, 3, 60, 57
4, 45216, Note_on_c, 3, 60, 0
4, 45216, Note_on_c, 3, 58, 60
4, 45312, Note_on_c, 3, 58, 0
4, 45312, Note_on_c, 3, 54, 63
4, 45408, Note_on_c, 3, 54, 0
4, 45408, Note_on_c, 3, 55, 66
4, 45502, Note_on_c, 3, 55, 0
4, 45504, Note_on_c, 3, 55, 69
4, 45600, Note_on_c, 3, 55, 0
4, 45600, Note_on_c, 3, 51, 72
4, 45694, Note_on_c, 3, 51, 0
4, 45696, Note_on_c, 3, 48, 76
4, 45728, Note_on_c, 3, 48, 0
4, 45792, Note_on_c, 3, 60, 80
4, 45824, Note_on_c, 3, 60, 0
4, 45888, Note_on_c, 3, 60, 84
4, 45920, Note_on_c, 3, 60, 0
4, 45984, Note_on_c, 3, 60, 88
4, 46016, Note_on_c, 3, 60, 0
4, 46080, Note_on_c, 3, 58, 92
4, 46174, Note_on_c, 3, 58, 0
4, 46272, Note_on_c, 3, 52, 45
4, 46558, Note_on_c, 3, 52, 0
4, 46560, Note_on_c, 3, 51, 45
4, 46632, Note_on_c, 3, 51, 0
4, 46632, Note_on_c, 3, 53, 45
4, 46654, Note_on_c, 3, 53, 0
4, 46656, Note_on_c, 3, 52, 45
4, 46688, Note_on_c, 3, 52, 0
4, 46752, Note_on_c, 3, 52, 45
4, 46784, Note_on_c, 3, 52, 0
4, 46848, Note_on_c, 3, 52, 45
4, 46942, Note_on_c, 3, 52, 0
4, 46944, Note_on_c, 3, 55, 45
4, 47016, Note_on_c, 3, 55, 0
4, 47016, Note_on_c, 3, 52, 45
4, 47038, Note_on_c, 3, 52, 0
4, 47040, Note_on_c, 3, 53, 45
4, 47072, Note_on_c, 3, 53, 0
4, 47136, Note_on_c, 3, 53, 45
4, 47168, Note_on_c, 3, 53, 0
4, 47232, Note_on_c, 3, 53, 45
4, 47232, Note_on_c, 3, 55, 45
4, 47424, Note_on_c, 3, 53, 0
4, 47424, Note_on_c, 3, 52, 45
4, 47568, Note_on_c, 3, 55, 0
4, 47584, Note_on_c, 3, 52, 0
4, 47664, Note_on_c, 3, 60, 45
4, 47710, Note_on_c, 3, 60, 0
4, 47712, Note_on_c, 3, 60, 45
4, 47758, Note_on_c, 3, 60, 0
4, 47760, Note_on_c, 3, 60, 45
4, 47806, Note_on_c, 3, 60, 0
4, 47808, Note_on_c, 3, 65, 45
4, 47902, Note_on_c, 3, 65, 0
4, 48384, Note_on_c, 3, 53, 45
4, 48430, Note_on_c, 3, 53, 0
4, 48432, Note_on_c, 3, 65, 45
4, 48478, Note_on_c, 3, 65, 0
4, 48480, Note_on_c, 3, 65, 45
4, 48526, Note_on_c, 3, 65, 0
4, 48528, Note_on_c, 3, 65, 45
4, 48574, Note_on_c, 3, 65, 0
4, 48576, Note_on_c, 3, 65, 45
4, 48670, Note_on_c, 3, 65, 0
4, 49008, Note_on_c, 3, 57, 45
4, 49054, Note_on_c, 3, 57, 0
4, 49056, Note_on_c, 3, 59, 45
4, 49102, Note_on_c, 3, 59, 0
4, 49104, Note_on_c, 3, 59, 45
4, 49150, Note_on_c, 3, 59, 0
4, 49152, Note_on_c, 3, 60, 45
4, 49488, Note_on_c, 3, 60, 0
4, 49536, Note_on_c, 3, 55, 45
4, 49872, Note_on_c, 3, 55, 0
4, 50160, Note_on_c, 3, 48, 45
4, 50208, Note_on_c, 3, 48, 0
4, 50208, Note_on_c, 3, 55, 45
4, 50254, Note_on_c, 3, 55, 0
4, 50280, Note_on_c, 3, 55, 45
4, 50296, Note_on_c, 3, 55, 0
4, 50304, Note_on_c, 3, 55, 45
4, 50352, Note_on_c, 3, 55, 0
4, 50352, Note_on_c, 3, 48, 45
4, 50400, Note_on_c, 3, 48, 0
4, 50400, Note_on_c, 3, 53, 45
4, 50446, Note_on_c, 3, 53, 0
4, 50448, Note_on_c, 3, 53, 45
4, 50480, Note_on_c, 3, 53, 0
4, 50496, Note_on_c, 3, 53, 45
4, 50544, Note_on_c, 3, 53, 0
4, 50544, Note_on_c, 3, 48, 45
4, 50592, Note_on_c, 3, 48, 0
4, 50592, Note_on_c, 3, 57, 45
4, 50638, Note_on_c, 3, 57, 0
4, 50664, Note_on_c, 3, 57, 45
4, 50680, Note_on_c, 3, 57, 0
4, 50688, Note_on_c, 3, 53, 45
4, 50688, Note_on_c, 3, 57, 45
4, 51024, Note_on_c, 3, 53, 0
4, 51024, Note_on_c, 3, 57, 0
4, 51072, Note_on_c, 3, 51, 65
4, 51264, Note_on_c, 3, 51, 0
4, 51264, Note_on_c, 3, 50, 75
4, 51360, Note_on_c, 3, 50, 0
4, 51360, Note_on_c, 3, 55, 60
4, 51454, Note_on_c, 3, 55, 0
4, 51504, Note_on_c, 3, 53, 45
4, 51536, Note_on_c, 3, 53, 0
4, 51552, Note_on_c, 3, 48, 45
4, 51584, Note_on_c, 3, 48, 0
4, 51600, Note_on_c, 3, 48, 45
4, 51632, Note_on_c, 3, 48, 0
4, 51696, Note_on_c, 3, 48, 45
4, 51728, Note_on_c, 3, 48, 0
4, 51744, Note_on_c, 3, 55, 45
4, 51776, Note_on_c, 3, 55, 0
4, 51792, Note_on_c, 3, 55, 45
4, 51824, Note_on_c, 3, 55, 0
4, 51840, Note_on_c, 3, 57, 45
4, 52096, Note_on_c, 3, 57, 0
4, 52128, Note_on_c, 3, 69, 56
4, 52158, Note_on_c, 3, 69, 0
4, 52160, Note_on_c, 3, 67, 57
4, 52190, Note_on_c, 3, 67, 0
4, 52192, Note_on_c, 3, 65, 58
4, 52222, Note_on_c, 3, 65, 0
4, 52224, Note_on_c, 3, 70, 59
4, 52254, Note_on_c, 3, 70, 0
4, 52256, Note_on_c, 3, 67, 60
4, 52286, Note_on_c, 3, 67, 0
4, 52288, Note_on_c, 3, 64, 61
4, 52318, Note_on_c, 3, 64, 0
4, 52320, Note_on_c, 3, 58, 62
4, 52350, Note_on_c, 3, 58, 0
4, 52352, Note_on_c, 3, 55, 63
4, 52382, Note_on_c, 3, 55, 0
4, 52384, Note_on_c, 3, 52, 64
4, 52414, Note_on_c, 3, 52, 0
4, 52416, Note_on_c, 3, 48, 65
4, 52510, Note_on_c, 3, 48, 0
4, 52608, Note_on_c, 3, 67, 45
4, 52638, Note_on_c, 3, 67, 0
4, 52640, Note_on_c, 3, 64, 46
4, 52670, Note_on_c, 3, 64, 0
4, 52672, Note_on_c, 3, 65, 48
4, 52702, Note_on_c, 3, 65, 0
4, 52704, Note_on_c, 3, 58, 50
4, 52734, Note_on_c, 3, 58, 0
4, 52736, Note_on_c, 3, 55, 52
4, 52766, Note_on_c, 3, 55, 0
4, 52768, Note_on_c, 3, 57, 54
4, 52798, Note_on_c, 3, 57, 0
4, 52800, Note_on_c, 3, 55, 56
4, 52830, Note_on_c, 3, 55, 0
4, 52832, Note_on_c, 3, 52, 58
4, 52862, Note_on_c, 3, 52, 0
4, 52864, Note_on_c, 3, 53, 60
4, 52894, Note_on_c, 3, 53, 0
4, 52896, Note_on_c, 3, 52, 62
4, 52990, Note_on_c, 3, 52, 0
4, 53184, Note_on_c, 3, 65, 80
4, 53216, Note_on_c, 3, 65, 0
4, 53280, Note_on_c, 3, 72, 86
4, 53312, Note_on_c, 3, 72, 0
4, 53376, Note_on_c, 3, 70, 92
4, 53406, Note_on_c, 3, 70, 0
4, 53408, Note_on_c, 3, 65, 92
4, 53438, Note_on_c, 3, 65, 0
4, 53440, Note_on_c, 3, 67, 92
4, 53470, Note_on_c, 3, 67, 0
4, 53472, Note_on_c, 3, 65, 92
4, 53502, Note_on_c, 3, 65, 0
4, 53504, Note_on_c, 3, 62, 92
4, 53534, Note_on_c, 3, 62, 0
4, 53536, Note_on_c, 3, 63, 92
4, 53566, Note_on_c, 3, 63, 0
4, 53568, Note_on_c, 3, 62, 92
4, 53598, Note_on_c, 3, 62, 0
4, 53600, Note_on_c, 3, 58, 92
4, 53630, Note_on_c, 3, 58, 0
4, 53632, Note_on_c, 3, 60, 92
4, 53662, Note_on_c, 3, 60, 0
4, 53664, Note_on_c, 3, 58, 92
4, 53758, Note_on_c, 3, 58, 0
4, 53952, Note_on_c, 3, 53, 92
4, 53982, Note_on_c, 3, 53, 0
4, 53984, Note_on_c, 3, 57, 92
4, 54014, Note_on_c, 3, 57, 0
4, 54016, Note_on_c, 3, 60, 92
4, 54046, Note_on_c, 3, 60, 0
4, 54048, Note_on_c, 3, 65, 92
4, 54078, Note_on_c, 3, 65, 0
4, 54080, Note_on_c, 3, 69, 92
4, 54110, Note_on_c, 3, 69, 0
4, 54112, Note_on_c, 3, 72, 92
4, 54142, Note_on_c, 3, 72, 0
4, 54144, Note_on_c, 3, 75, 92
4, 54174, Note_on_c, 3, 75, 0
4, 54176, Note_on_c, 3, 72, 92
4, 54206, Note_on_c, 3, 72, 0
4, 54208, Note_on_c, 3, 74, 92
4, 54238, Note_on_c, 3, 74, 0
4, 54240, Note_on_c, 3, 72, 92
4, 54270, Note_on_c, 3, 72, 0
4, 54272, Note_on_c, 3, 69, 92
4, 54302, Note_on_c, 3, 69, 0
4, 54304, Note_on_c, 3, 70, 92
4, 54334, Note_on_c, 3, 70, 0
4, 54336, Note_on_c, 3, 69, 92
4, 54366, Note_on_c, 3, 69, 0
4, 54368, Note_on_c, 3, 65, 92
4, 54398, Note_on_c, 3, 65, 0
4, 54400, Note_on_c, 3, 67, 92
4, 54430, Note_on_c, 3, 67, 0
4, 54432, Note_on_c, 3, 65, 92
4, 54526, Note_on_c, 3, 65, 0
4, 54720, Note_on_c, 3, 70, 92
4, 54750, Note_on_c, 3, 70, 0
4, 54752, Note_on_c, 3, 65, 92
4, 54782, Note_on_c, 3, 65, 0
4, 54784, Note_on_c, 3, 62, 92
4, 54814, Note_on_c, 3, 62, 0
4, 54816, Note_on_c, 3, 58, 92
4, 54846, Note_on_c, 3, 58, 0
4, 54848, Note_on_c, 3, 53, 92
4, 54878, Note_on_c, 3, 53, 0
4, 54880, Note_on_c, 3, 50, 92
4, 54910, Note_on_c, 3, 50, 0
4, 54912, Note_on_c, 3, 52, 92
4, 54944, Note_on_c, 3, 52, 0
4, 55008, Note_on_c, 3, 55, 92
4, 55040, Note_on_c, 3, 55, 0
4, 55104, Note_on_c, 3, 52, 92
4, 55104, Note_on_c, 3, 55, 92
4, 55264, Note_on_c, 3, 52, 0
4, 55264, Note_on_c, 3, 55, 0
4, 55296, Note_on_c, 3, 67, 30
4, 55326, Note_on_c, 3, 67, 0
4, 55328, Note_on_c, 3, 62, 30
4, 55358, Note_on_c, 3, 62, 0
4, 55360, Note_on_c, 3, 64, 30
4, 55390, Note_on_c, 3, 64, 0
4, 55424, Note_on_c, 3, 67, 30
4, 55454, Note_on_c, 3, 67, 0
4, 55520, Note_on_c, 3, 70, 30
4, 55550, Note_on_c, 3, 70, 0
4, 55552, Note_on_c, 3, 70, 30
4, 55582, Note_on_c, 3, 70, 0
4, 55584, Note_on_c, 3, 70, 30
4, 55614, Note_on_c, 3, 70, 0
4, 55616, Note_on_c, 3, 67, 30
4, 55646, Note_on_c, 3, 67, 0
4, 55648, Note_on_c, 3, 67, 30
4, 55678, Note_on_c, 3, 67, 0
4, 55680, Note_on_c, 3, 67, 30
4, 55710, Note_on_c, 3, 67, 0
4, 55712, Note_on_c, 3, 67, 30
4, 55742, Note_on_c, 3, 67, 0
4, 55744, Note_on_c, 3, 67, 30
4, 55774, Note_on_c, 3, 67, 0
4, 55776, Note_on_c, 3, 67, 30
4, 55806, Note_on_c, 3, 67, 0
4, 55808, Note_on_c, 3, 65, 30
4, 55838, Note_on_c, 3, 65, 0
4, 55840, Note_on_c, 3, 65, 30
4, 55870, Note_on_c, 3, 65, 0
4, 55872, Note_on_c, 3, 62, 30
4, 55872, Note_on_c, 3, 65, 30
4, 55902, Note_on_c, 3, 62, 0
4, 55902, Note_on_c, 3, 65, 0
4, 55904, Note_on_c, 3, 62, 30
4, 55904, Note_on_c, 3, 65, 30
4, 55934, Note_on_c, 3, 62, 0
4, 55934, Note_on_c, 3, 65, 0
4, 55936, Note_on_c, 3, 62, 30
4, 55936, Note_on_c, 3, 65, 30
4, 55966, Note_on_c, 3, 62, 0
4, 55966, Note_on_c, 3, 65, 0
4, 55968, Note_on_c, 3, 64, 30
4, 55998, Note_on_c, 3, 64, 0
4, 56000, Note_on_c, 3, 65, 30
4, 56030, Note_on_c, 3, 65, 0
4, 56032, Note_on_c, 3, 64, 30
4, 56062, Note_on_c, 3, 64, 0
4, 56064, Note_on_c, 3, 56, 30
4, 56544, Note_on_c, 3, 56, 0
4, 56544, Note_on_c, 3, 57, 45
4, 56640, Note_on_c, 3, 57, 0
4, 56640, Note_on_c, 3, 58, 45
4, 56734, Note_on_c, 3, 58, 0
4, 56736, Note_on_c, 3, 55, 45
4, 56768, Note_on_c, 3, 55, 0
4, 56832, Note_on_c, 3, 53, 45
4, 56928, Note_on_c, 3, 53, 0
4, 56928, Note_on_c, 3, 64, 48
4, 57024, Note_on_c, 3, 64, 0
4, 57024, Note_on_c, 3, 67, 51
4, 57118, Note_on_c, 3, 67, 0
4, 57120, Note_on_c, 3, 62, 55
4, 57152, Note_on_c, 3, 62, 0
4, 57216, Note_on_c, 3, 61, 59
4, 57312, Note_on_c, 3, 61, 0
4, 57312, Note_on_c, 3, 64, 63
4, 57408, Note_on_c, 3, 64, 0
4, 57408, Note_on_c, 3, 65, 67
4, 57502, Note_on_c, 3, 65, 0
4, 57504, Note_on_c, 3, 65, 71
4, 57536, Note_on_c, 3, 65, 0
4, 57600, Note_on_c, 3, 65, 30
4, 57632, Note_on_c, 3, 65, 0
4, 57648, Note_on_c, 3, 64, 30
4, 57680, Note_on_c, 3, 64, 0
4, 57696, Note_on_c, 3, 64, 30
4, 57728, Note_on_c, 3, 64, 0
4, 57744, Note_on_c, 3, 64, 30
4, 57776, Note_on_c, 3, 64, 0
4, 57792, Note_on_c, 3, 64, 30
4, 57838, Note_on_c, 3, 64, 0
4, 57840, Note_on_c, 3, 64, 30
4, 57886, Note_on_c, 3, 64, 0
4, 57888, Note_on_c, 3, 64, 30
4, 57934, Note_on_c, 3, 64, 0
4, 57936, Note_on_c, 3, 64, 30
4, 57982, Note_on_c, 3, 64, 0
4, 57984, Note_on_c, 3, 57, 30
4, 58030, Note_on_c, 3, 57, 0
4, 58032, Note_on_c, 3, 53, 30
4, 58078, Note_on_c, 3, 53, 0
4, 58080, Note_on_c, 3, 53, 30
4, 58126, Note_on_c, 3, 53, 0
4, 58128, Note_on_c, 3, 53, 30
4, 58174, Note_on_c, 3, 53, 0
4, 58176, Note_on_c, 3, 53, 30
4, 58222, Note_on_c, 3, 53, 0
4, 58224, Note_on_c, 3, 53, 30
4, 58270, Note_on_c, 3, 53, 0
4, 58272, Note_on_c, 3, 53, 30
4, 58318, Note_on_c, 3, 53, 0
4, 58320, Note_on_c, 3, 65, 30
4, 58366, Note_on_c, 3, 65, 0
4, 58368, Note_on_c, 3, 69, 30
4, 58398, Note_on_c, 3, 69, 0
4, 58400, Note_on_c, 3, 69, 30
4, 58430, Note_on_c, 3, 69, 0
4, 58432, Note_on_c, 3, 69, 30
4, 58462, Note_on_c, 3, 69, 0
4, 58464, Note_on_c, 3, 65, 30
4, 58494, Note_on_c, 3, 65, 0
4, 58496, Note_on_c, 3, 65, 30
4, 58526, Note_on_c, 3, 65, 0
4, 58528, Note_on_c, 3, 65, 30
4, 58558, Note_on_c, 3, 65, 0
4, 58560, Note_on_c, 3, 65, 30
4, 58590, Note_on_c, 3, 65, 0
4, 58592, Note_on_c, 3, 65, 30
4, 58622, Note_on_c, 3, 65, 0
4, 58624, Note_on_c, 3, 65, 30
4, 58654, Note_on_c, 3, 65, 0
4, 58656, Note_on_c, 3, 65, 30
4, 58686, Note_on_c, 3, 65, 0
4, 58688, Note_on_c, 3, 65, 30
4, 58718, Note_on_c, 3, 65, 0
4, 58720, Note_on_c, 3, 65, 30
4, 58750, Note_on_c, 3, 65, 0
4, 58752, Note_on_c, 3, 65, 30
4, 58782, Note_on_c, 3, 65, 0
4, 58784, Note_on_c, 3, 65, 32
4, 58814, Note_on_c, 3, 65, 0
4, 58816, Note_on_c, 3, 65, 34
4, 58846, Note_on_c, 3, 65, 0
4, 58848, Note_on_c, 3, 65, 36
4, 58878, Note_on_c, 3, 65, 0
4, 58880, Note_on_c, 3, 65, 39
4, 58910, Note_on_c, 3, 65, 0
4, 58912, Note_on_c, 3, 65, 42
4, 58942, Note_on_c, 3, 65, 0
4, 58944, Note_on_c, 3, 65, 45
4, 58974, Note_on_c, 3, 65, 0
4, 58976, Note_on_c, 3, 65, 45
4, 59006, Note_on_c, 3, 65, 0
4, 59008, Note_on_c, 3, 65, 45
4, 59038, Note_on_c, 3, 65, 0
4, 59040, Note_on_c, 3, 67, 45
4, 59040, Note_on_c, 3, 70, 45
4, 59070, Note_on_c, 3, 67, 0
4, 59070, Note_on_c, 3, 70, 0
4, 59072, Note_on_c, 3, 67, 45
4, 59072, Note_on_c, 3, 70, 45
4, 59102, Note_on_c, 3, 67, 0
4, 59102, Note_on_c, 3, 70, 0
4, 59104, Note_on_c, 3, 67, 45
4, 59104, Note_on_c, 3, 70, 45
4, 59134, Note_on_c, 3, 67, 0
4, 59134, Note_on_c, 3, 70, 0
4, 59136, Note_on_c, 3, 57, 45
4, 59328, Note_on_c, 3, 57, 0
4, 59328, Note_on_c, 3, 58, 60
4, 59488, Note_on_c, 3, 58, 0
4, 59520, Note_on_c, 3, 60, 45
4, 59552, Note_on_c, 3, 60, 0
4, 59616, Note_on_c, 3, 62, 45
4, 59648, Note_on_c, 3, 62, 0
4, 59712, Note_on_c, 3, 64, 45
4, 59744, Note_on_c, 3, 64, 0
4, 59808, Note_on_c, 3, 72, 45
4, 60128, Note_on_c, 3, 72, 0
4, 60128, Note_on_c, 3, 74, 58
4, 60160, Note_on_c, 3, 74, 0
4, 60160, Note_on_c, 3, 72, 60
4, 60192, Note_on_c, 3, 72, 0
4, 60192, Note_on_c, 3, 70, 62
4, 60224, Note_on_c, 3, 70, 0
4, 60224, Note_on_c, 3, 69, 64
4, 60256, Note_on_c, 3, 69, 0
4, 60256, Note_on_c, 3, 67, 66
4, 60286, Note_on_c, 3, 67, 0
4, 60288, Note_on_c, 3, 65, 68
4, 60320, Note_on_c, 3, 65, 0
4, 60320, Note_on_c, 3, 69, 70
4, 60352, Note_on_c, 3, 69, 0
4, 60352, Note_on_c, 3, 67, 72
4, 60384, Note_on_c, 3, 67, 0
4, 60384, Note_on_c, 3, 65, 74
4, 60416, Note_on_c, 3, 65, 0
4, 60416, Note_on_c, 3, 64, 76
4, 60448, Note_on_c, 3, 64, 0
4, 60448, Note_on_c, 3, 62, 78
4, 60478, Note_on_c, 3, 62, 0
4, 60480, Note_on_c, 3, 60, 80
4, 60512, Note_on_c, 3, 60, 0
4, 60512, Note_on_c, 3, 62, 82
4, 60544, Note_on_c, 3, 62, 0
4, 60544, Note_on_c, 3, 60, 84
4, 60576, Note_on_c, 3, 60, 0
4, 60576, Note_on_c, 3, 58, 86
4, 60608, Note_on_c, 3, 58, 0
4, 60608, Note_on_c, 3, 57, 88
4, 60640, Note_on_c, 3, 57, 0
4, 60640, Note_on_c, 3, 55, 90
4, 60670, Note_on_c, 3, 55, 0
4, 60672, Note_on_c, 3, 48, 92
4, 60672, Note_on_c, 3, 60, 92
4, 60704, Note_on_c, 3, 48, 0
4, 60704, Note_on_c, 3, 60, 0
4, 60960, Note_on_c, 3, 69, 45
4, 61056, Note_on_c, 3, 69, 0
4, 61056, Note_on_c, 3, 67, 45
4, 61088, Note_on_c, 3, 67, 0
4, 61320, Note_on_c, 3, 58, 45
4, 61344, Note_on_c, 3, 58, 0
4, 61344, Note_on_c, 3, 52, 45
4, 61392, Note_on_c, 3, 52, 0
4, 61392, Note_on_c, 3, 55, 45
4, 61440, Note_on_c, 3, 55, 0
4, 61440, Note_on_c, 3, 48, 45
4, 61440, Note_on_c, 3, 57, 45
4, 61472, Note_on_c, 3, 48, 0
4, 61472, Note_on_c, 3, 57, 0
4, 61728, Note_on_c, 3, 72, 45
4, 61824, Note_on_c, 3, 72, 0
4, 61824, Note_on_c, 3, 70, 45
4, 61856, Note_on_c, 3, 70, 0
4, 62088, Note_on_c, 3, 58, 45
4, 62112, Note_on_c, 3, 58, 0
4, 62112, Note_on_c, 3, 52, 45
4, 62160, Note_on_c, 3, 52, 0
4, 62160, Note_on_c, 3, 55, 45
4, 62206, Note_on_c, 3, 55, 0
4, 62208, Note_on_c, 3, 52, 45
4, 62208, Note_on_c, 3, 55, 45
4, 62240, Note_on_c, 3, 52, 0
4, 62240, Note_on_c, 3, 55, 0
4, 63168, Note_on_c, 3, 61, 45
4, 63264, Note_on_c, 3, 61, 0
4, 63264, Note_on_c, 3, 62, 45
4, 63360, Note_on_c, 3, 62, 0
4, 63360, Note_on_c, 3, 51, 45
4, 63456, Note_on_c, 3, 51, 0
4, 63456, Note_on_c, 3, 52, 45
4, 63552, Note_on_c, 3, 52, 0
4, 63552, Note_on_c, 3, 60, 45
4, 63648, Note_on_c, 3, 60, 0
4, 63648, Note_on_c, 3, 58, 45
4, 63742, Note_on_c, 3, 58, 0
4, 63744, Note_on_c, 3, 58, 45
4, 63840, Note_on_c, 3, 58, 0
4, 63840, Note_on_c, 3, 57, 45
4, 63934, Note_on_c, 3, 57, 0
4, 64512, Note_on_c, 3, 64, 45
4, 64536, Note_on_c, 3, 64, 0
4, 64536, Note_on_c, 3, 66, 45
4, 64560, Note_on_c, 3, 66, 0
4, 64560, Note_on_c, 3, 67, 45
4, 64606, Note_on_c, 3, 67, 0
4, 65664, Note_on_c, 3, 48, 45
4, 65694, Note_on_c, 3, 48, 0
4, 65696, Note_on_c, 3, 52, 45
4, 65726, Note_on_c, 3, 52, 0
4, 65728, Note_on_c, 3, 55, 45
4, 65758, Note_on_c, 3, 55, 0
4, 65760, Note_on_c, 3, 60, 46
4, 65790, Note_on_c, 3, 60, 0
4, 65792, Note_on_c, 3, 64, 47
4, 65822, Note_on_c, 3, 64, 0
4, 65824, Note_on_c, 3, 67, 48
4, 65854, Note_on_c, 3, 67, 0
4, 65856, Note_on_c, 3, 70, 49
4, 65950, Note_on_c, 3, 70, 0
4, 66240, Note_on_c, 3, 65, 61
4, 66264, Note_on_c, 3, 65, 0
4, 66264, Note_on_c, 3, 67, 61
4, 66288, Note_on_c, 3, 67, 0
4, 66288, Note_on_c, 3, 69, 61
4, 66334, Note_on_c, 3, 69, 0
4, 66432, Note_on_c, 3, 55, 67
4, 66456, Note_on_c, 3, 55, 0
4, 66456, Note_on_c, 3, 57, 67
4, 66480, Note_on_c, 3, 57, 0
4, 66480, Note_on_c, 3, 58, 67
4, 66622, Note_on_c, 3, 58, 0
4, 66624, Note_on_c, 3, 53, 73
4, 66792, Note_on_c, 3, 53, 0
4, 66792, Note_on_c, 3, 55, 78
4, 66814, Note_on_c, 3, 55, 0
4, 66816, Note_on_c, 3, 53, 78
4, 66840, Note_on_c, 3, 53, 0
4, 66840, Note_on_c, 3, 55, 78
4, 66864, Note_on_c, 3, 55, 0
4, 66864, Note_on_c, 3, 57, 78
4, 67006, Note_on_c, 3, 57, 0
4, 67008, Note_on_c, 3, 52, 85
4, 67176, Note_on_c, 3, 52, 0
4, 67176, Note_on_c, 3, 53, 91
4, 67198, Note_on_c, 3, 53, 0
4, 67776, Note_on_c, 3, 58, 45
4, 67808, Note_on_c, 3, 58, 0
4, 67808, Note_on_c, 3, 62, 45
4, 67840, Note_on_c, 3, 62, 0
4, 67840, Note_on_c, 3, 60, 45
4, 67872, Note_on_c, 3, 60, 0
4, 67872, Note_on_c, 3, 58, 45
4, 67904, Note_on_c, 3, 58, 0
4, 67904, Note_on_c, 3, 57, 45
4, 67936, Note_on_c, 3, 57, 0
4, 67936, Note_on_c, 3, 55, 45
4, 67966, Note_on_c, 3, 55, 0
4, 67968, Note_on_c, 3, 53, 45
4, 68160, Note_on_c, 3, 53, 0
4, 68160, Note_on_c, 3, 52, 45
4, 68192, Note_on_c, 3, 52, 0
4, 68192, Note_on_c, 3, 62, 45
4, 68224, Note_on_c, 3, 62, 0
4, 68224, Note_on_c, 3, 60, 45
4, 68256, Note_on_c, 3, 60, 0
4, 68256, Note_on_c, 3, 58, 45
4, 68288, Note_on_c, 3, 58, 0
4, 68288, Note_on_c, 3, 57, 45
4, 68320, Note_on_c, 3, 57, 0
4, 68320, Note_on_c, 3, 55, 45
4, 68350, Note_on_c, 3, 55, 0
4, 68352, Note_on_c, 3, 53, 45
4, 68384, Note_on_c, 3, 53, 0
4, 68448, Note_on_c, 3, 55, 45
4, 68480, Note_on_c, 3, 55, 0
4, 68640, Note_on_c, 3, 53, 45
4, 68688, Note_on_c, 3, 53, 0
4, 68688, Note_on_c, 3, 55, 45
4, 68734, Note_on_c, 3, 55, 0
4, 68800, Note_on_c, 3, 70, 49
4, 68832, Note_on_c, 3, 70, 0
4, 68832, Note_on_c, 3, 69, 51
4, 68864, Note_on_c, 3, 69, 0
4, 68864, Note_on_c, 3, 67, 53
4, 68896, Note_on_c, 3, 67, 0
4, 68896, Note_on_c, 3, 65, 55
4, 68928, Note_on_c, 3, 65, 0
4, 68928, Note_on_c, 3, 64, 57
4, 69088, Note_on_c, 3, 64, 0
4, 69120, Note_on_c, 3, 65, 71
4, 69152, Note_on_c, 3, 65, 0
4, 69216, Note_on_c, 3, 74, 78
4, 69248, Note_on_c, 3, 74, 0
4, 69408, Note_on_c, 3, 51, 92
4, 69440, Note_on_c, 3, 51, 0
4, 69504, Note_on_c, 3, 51, 45
4, 69840, Note_on_c, 3, 51, 0
4, 69888, Note_on_c, 3, 51, 45
4, 69920, Note_on_c, 3, 51, 0
4, 69984, Note_on_c, 3, 69, 45
4, 70008, Note_on_c, 3, 69, 0
4, 70008, Note_on_c, 3, 70, 45
4, 70032, Note_on_c, 3, 70, 0
4, 70032, Note_on_c, 3, 72, 45
4, 70064, Note_on_c, 3, 72, 0
4, 70272, Note_on_c, 3, 60, 92
4, 70296, Note_on_c, 3, 60, 0
4, 70296, Note_on_c, 3, 62, 92
4, 70320, Note_on_c, 3, 62, 0
4, 70320, Note_on_c, 3, 63, 92
4, 70462, Note_on_c, 3, 63, 0
4, 70464, Note_on_c, 3, 58, 92
4, 70632, Note_on_c, 3, 58, 0
4, 70632, Note_on_c, 3, 60, 92
4, 70654, Note_on_c, 3, 60, 0
4, 70656, Note_on_c, 3, 57, 92
4, 70688, Note_on_c, 3, 57, 0
4, 70752, Note_on_c, 3, 72, 92
4, 70776, Note_on_c, 3, 72, 0
4, 70776, Note_on_c, 3, 74, 92
4, 70800, Note_on_c, 3, 74, 0
4, 70800, Note_on_c, 3, 75, 127
4, 70832, Note_on_c, 3, 75, 0
4, 70920, Note_on_c, 3, 60, 45
4, 70944, Note_on_c, 3, 60, 0
4, 70944, Note_on_c, 3, 53, 45
4, 70992, Note_on_c, 3, 53, 0
4, 70992, Note_on_c, 3, 57, 45
4, 71038, Note_on_c, 3, 57, 0
4, 71040, Note_on_c, 3, 58, 45
4, 71134, Note_on_c, 3, 58, 0
4, 71712, Note_on_c, 3, 55, 45
4, 71744, Note_on_c, 3, 55, 0
4, 72072, Note_on_c, 3, 58, 45
4, 72096, Note_on_c, 3, 58, 0
4, 72144, Note_on_c, 3, 55, 45
4, 72190, Note_on_c, 3, 55, 0
4, 72192, Note_on_c, 3, 57, 45
4, 72264, Note_on_c, 3, 57, 0
4, 72264, Note_on_c, 3, 58, 45
4, 72286, Note_on_c, 3, 58, 0
4, 72288, Note_on_c, 3, 60, 45
4, 72384, Note_on_c, 3, 60, 0
4, 72384, Note_on_c, 3, 60, 45
4, 72430, Note_on_c, 3, 60, 0
4, 72432, Note_on_c, 3, 65, 45
4, 72480, Note_on_c, 3, 65, 0
4, 72480, Note_on_c, 3, 64, 45
4, 72528, Note_on_c, 3, 64, 0
4, 72528, Note_on_c, 3, 62, 45
4, 72576, Note_on_c, 3, 62, 0
4, 72576, Note_on_c, 3, 60, 45
4, 72608, Note_on_c, 3, 60, 0
4, 72624, Note_on_c, 3, 58, 45
4, 72672, Note_on_c, 3, 58, 0
4, 72672, Note_on_c, 3, 50, 45
4, 72720, Note_on_c, 3, 50, 0
4, 72720, Note_on_c, 3, 58, 45
4, 72768, Note_on_c, 3, 58, 0
4, 72768, Note_on_c, 3, 57, 45
4, 72800, Note_on_c, 3, 57, 0
4, 72816, Note_on_c, 3, 58, 45
4, 72864, Note_on_c, 3, 58, 0
4, 72864, Note_on_c, 3, 55, 45
4, 72912, Note_on_c, 3, 55, 0
4, 72912, Note_on_c, 3, 64, 45
4, 72958, Note_on_c, 3, 64, 0
4, 72960, Note_on_c, 3, 65, 45
4, 73032, Note_on_c, 3, 65, 0
4, 73032, Note_on_c, 3, 67, 48
4, 73054, Note_on_c, 3, 67, 0
4, 73056, Note_on_c, 3, 57, 49
4, 73128, Note_on_c, 3, 57, 0
4, 73128, Note_on_c, 3, 58, 52
4, 73150, Note_on_c, 3, 58, 0
4, 73152, Note_on_c, 3, 53, 53
4, 73152, Note_on_c, 3, 60, 53
4, 73560, Note_on_c, 3, 53, 0
4, 73560, Note_on_c, 3, 60, 0
4, 73608, Note_on_c, 3, 65, 45
4, 73632, Note_on_c, 3, 65, 0
4, 73632, Note_on_c, 3, 64, 45
4, 73680, Note_on_c, 3, 64, 0
4, 73680, Note_on_c, 3, 62, 45
4, 73728, Note_on_c, 3, 62, 0
4, 73728, Note_on_c, 3, 60, 45
4, 73760, Note_on_c, 3, 60, 0
4, 73800, Note_on_c, 3, 62, 45
4, 73824, Note_on_c, 3, 62, 0
4, 73824, Note_on_c, 3, 58, 45
4, 73872, Note_on_c, 3, 58, 0
4, 73872, Note_on_c, 3, 55, 45
4, 73920, Note_on_c, 3, 55, 0
4, 73920, Note_on_c, 3, 53, 45
4, 73952, Note_on_c, 3, 53, 0
4, 73992, Note_on_c, 3, 55, 45
4, 74016, Note_on_c, 3, 55, 0
4, 74016, Note_on_c, 3, 52, 45
4, 74064, Note_on_c, 3, 52, 0
4, 74064, Note_on_c, 3, 48, 45
4, 74112, Note_on_c, 3, 48, 0
4, 74112, Note_on_c, 3, 53, 45
4, 74206, Note_on_c, 3, 53, 0
4, 74206, End_track
5, 0, Start_track
5, 0, MIDI_port, 0
5, 0, Title_t, "Violoncello."
5, 0, Program_c, 4, 0
5, 0, Control_c, 4, 7, 127
5, 0, Control_c, 4, 10, 64
5, 192, Note_on_c, 4, 37, 45
5, 384, Note_on_c, 4, 37, 0
5, 384, Note_on_c, 4, 36, 45
5, 478, Note_on_c, 4, 36, 0
5, 960, Note_on_c, 4, 37, 45
5, 1152, Note_on_c, 4, 37, 0
5, 1152, Note_on_c, 4, 36, 45
5, 1246, Note_on_c, 4, 36, 0
5, 1440, Note_on_c, 4, 46, 45
5, 1534, Note_on_c, 4, 46, 0
5, 1536, Note_on_c, 4, 45, 45
5, 1630, Note_on_c, 4, 45, 0
5, 1632, Note_on_c, 4, 41, 45
5, 1726, Note_on_c, 4, 41, 0
5, 1728, Note_on_c, 4, 40, 45
5, 1822, Note_on_c, 4, 40, 0
5, 1824, Note_on_c, 4, 36, 45
5, 1918, Note_on_c, 4, 36, 0
5, 2016, Note_on_c, 4, 41, 45
5, 2110, Note_on_c, 4, 41, 0
5, 2400, Note_on_c, 4, 46, 45
5, 2494, Note_on_c, 4, 46, 0
5, 2496, Note_on_c, 4, 48, 45
5, 2590, Note_on_c, 4, 48, 0
5, 2592, Note_on_c, 4, 48, 45
5, 2686, Note_on_c, 4, 48, 0
5, 2880, Note_on_c, 4, 45, 45
5, 2974, Note_on_c, 4, 45, 0
5, 2976, Note_on_c, 4, 46, 45
5, 3070, Note_on_c, 4, 46, 0
5, 3168, Note_on_c, 4, 46, 45
5, 3262, Note_on_c, 4, 46, 0
5, 3264, Note_on_c, 4, 48, 45
5, 3358, Note_on_c, 4, 48, 0
5, 3360, Note_on_c, 4, 36, 45
5, 3454, Note_on_c, 4, 36, 0
5, 3456, Note_on_c, 4, 41, 45
5, 3550, Note_on_c, 4, 41, 0
5, 3648, Note_on_c, 4, 48, 75
5, 3840, Note_on_c, 4, 48, 0
5, 3840, Note_on_c, 4, 38, 60
5, 4000, Note_on_c, 4, 38, 0
5, 4032, Note_on_c, 4, 45, 75
5, 4224, Note_on_c, 4, 45, 0
5, 4224, Note_on_c, 4, 43, 60
5, 4384, Note_on_c, 4, 43, 0
5, 4416, Note_on_c, 4, 50, 75
5, 4608, Note_on_c, 4, 50, 0
5, 4608, Note_on_c, 4, 40, 60
5, 4768, Note_on_c, 4, 40, 0
5, 4800, Note_on_c, 4, 46, 75
5, 4992, Note_on_c, 4, 46, 0
5, 4992, Note_on_c, 4, 45, 60
5, 5152, Note_on_c, 4, 45, 0
5, 5184, Note_on_c, 4, 38, 45
5, 5344, Note_on_c, 4, 38, 0
5, 5376, Note_on_c, 4, 43, 45
5, 5854, Note_on_c, 4, 43, 0
5, 5856, Note_on_c, 4, 43, 74
5, 5888, Note_on_c, 4, 43, 0
5, 5952, Note_on_c, 4, 43, 80
5, 5984, Note_on_c, 4, 43, 0
5, 6048, Note_on_c, 4, 43, 86
5, 6080, Note_on_c, 4, 43, 0
5, 6144, Note_on_c, 4, 36, 92
5, 6238, Note_on_c, 4, 36, 0
5, 6624, Note_on_c, 4, 40, 45
5, 6696, Note_on_c, 4, 40, 0
5, 6696, Note_on_c, 4, 43, 45
5, 6718, Note_on_c, 4, 43, 0
5, 6720, Note_on_c, 4, 42, 45
5, 6752, Note_on_c, 4, 42, 0
5, 6816, Note_on_c, 4, 42, 45
5, 6848, Note_on_c, 4, 42, 0
5, 6912, Note_on_c, 4, 42, 45
5, 7104, Note_on_c, 4, 42, 0
5, 7104, Note_on_c, 4, 46, 45
5, 7368, Note_on_c, 4, 46, 0
5, 7368, Note_on_c, 4, 38, 45
5, 7390, Note_on_c, 4, 38, 0
5, 7392, Note_on_c, 4, 43, 45
5, 7424, Note_on_c, 4, 43, 0
5, 7488, Note_on_c, 4, 43, 45
5, 7520, Note_on_c, 4, 43, 0
5, 7584, Note_on_c, 4, 43, 45
5, 7616, Note_on_c, 4, 43, 0
5, 7680, Note_on_c, 4, 43, 45
5, 7776, Note_on_c, 4, 43, 0
5, 7776, Note_on_c, 4, 41, 45
5, 7870, Note_on_c, 4, 41, 0
5, 7872, Note_on_c, 4, 41, 45
5, 7904, Note_on_c, 4, 41, 0
5, 7968, Note_on_c, 4, 41, 45
5, 8000, Note_on_c, 4, 41, 0
5, 8160, Note_on_c, 4, 61, 45
5, 8232, Note_on_c, 4, 61, 0
5, 8232, Note_on_c, 4, 64, 45
5, 8254, Note_on_c, 4, 64, 0
5, 8256, Note_on_c, 4, 62, 45
5, 8288, Note_on_c, 4, 62, 0
5, 8352, Note_on_c, 4, 62, 45
5, 8384, Note_on_c, 4, 62, 0
5, 8640, Note_on_c, 4, 56, 45
5, 8832, Note_on_c, 4, 56, 0
5, 8832, Note_on_c, 4, 47, 45
5, 8926, Note_on_c, 4, 47, 0
5, 8928, Note_on_c, 4, 47, 45
5, 9000, Note_on_c, 4, 47, 0
5, 9000, Note_on_c, 4, 50, 45
5, 9022, Note_on_c, 4, 50, 0
5, 9024, Note_on_c, 4, 48, 45
5, 9056, Note_on_c, 4, 48, 0
5, 9120, Note_on_c, 4, 48, 45
5, 9152, Note_on_c, 4, 48, 0
5, 9216, Note_on_c, 4, 53, 45
5, 9262, Note_on_c, 4, 53, 0
5, 9264, Note_on_c, 4, 53, 45
5, 9310, Note_on_c, 4, 53, 0
5, 9312, Note_on_c, 4, 53, 45
5, 9358, Note_on_c, 4, 53, 0
5, 9360, Note_on_c, 4, 53, 45
5, 9406, Note_on_c, 4, 53, 0
5, 9408, Note_on_c, 4, 53, 45
5, 9502, Note_on_c, 4, 53, 0
5, 9984, Note_on_c, 4, 50, 45
5, 10030, Note_on_c, 4, 50, 0
5, 10032, Note_on_c, 4, 62, 45
5, 10078, Note_on_c, 4, 62, 0
5, 10080, Note_on_c, 4, 62, 45
5, 10126, Note_on_c, 4, 62, 0
5, 10128, Note_on_c, 4, 62, 45
5, 10174, Note_on_c, 4, 62, 0
5, 10176, Note_on_c, 4, 62, 45
5, 10270, Note_on_c, 4, 62, 0
5, 10752, Note_on_c, 4, 59, 45
5, 10798, Note_on_c, 4, 59, 0
5, 10800, Note_on_c, 4, 55, 45
5, 10846, Note_on_c, 4, 55, 0
5, 10848, Note_on_c, 4, 55, 45
5, 10894, Note_on_c, 4, 55, 0
5, 10896, Note_on_c, 4, 55, 45
5, 10942, Note_on_c, 4, 55, 0
5, 10944, Note_on_c, 4, 55, 45
5, 11038, Note_on_c, 4, 55, 0
5, 11520, Note_on_c, 4, 67, 45
5, 11856, Note_on_c, 4, 67, 0
5, 11904, Note_on_c, 4, 62, 45
5, 12240, Note_on_c, 4, 62, 0
5, 12672, Note_on_c, 4, 43, 45
5, 12720, Note_on_c, 4, 43, 0
5, 12720, Note_on_c, 4, 36, 45
5, 12768, Note_on_c, 4, 36, 0
5, 12768, Note_on_c, 4, 43, 45
5, 12814, Note_on_c, 4, 43, 0
5, 12816, Note_on_c, 4, 43, 45
5, 12848, Note_on_c, 4, 43, 0
5, 12864, Note_on_c, 4, 43, 45
5, 12912, Note_on_c, 4, 43, 0
5, 12912, Note_on_c, 4, 36, 45
5, 12960, Note_on_c, 4, 36, 0
5, 12960, Note_on_c, 4, 48, 45
5, 13006, Note_on_c, 4, 48, 0
5, 13032, Note_on_c, 4, 48, 45
5, 13048, Note_on_c, 4, 48, 0
5, 13056, Note_on_c, 4, 48, 45
5, 13248, Note_on_c, 4, 48, 0
5, 13248, Note_on_c, 4, 44, 53
5, 13440, Note_on_c, 4, 44, 0
5, 13440, Note_on_c, 4, 43, 61
5, 13632, Note_on_c, 4, 43, 0
5, 13632, Note_on_c, 4, 42, 70
5, 13728, Note_on_c, 4, 42, 0
5, 13728, Note_on_c, 4, 41, 75
5, 13918, Note_on_c, 4, 41, 0
5, 13920, Note_on_c, 4, 40, 45
5, 13952, Note_on_c, 4, 40, 0
5, 14016, Note_on_c, 4, 41, 45
5, 14048, Note_on_c, 4, 41, 0
5, 14112, Note_on_c, 4, 43, 45
5, 14144, Note_on_c, 4, 43, 0
5, 14496, Note_on_c, 4, 64, 45
5, 14526, Note_on_c, 4, 64, 0
5, 14528, Note_on_c, 4, 62, 47
5, 14558, Note_on_c, 4, 62, 0
5, 14560, Note_on_c, 4, 60, 49
5, 14590, Note_on_c, 4, 60, 0
5, 14592, Note_on_c, 4, 65, 51
5, 14622, Note_on_c, 4, 65, 0
5, 14624, Note_on_c, 4, 62, 53
5, 14654, Note_on_c, 4, 62, 0
5, 14656, Note_on_c, 4, 59, 55
5, 14686, Note_on_c, 4, 59, 0
5, 14688, Note_on_c, 4, 55, 57
5, 14718, Note_on_c, 4, 55, 0
5, 14720, Note_on_c, 4, 50, 59
5, 14750, Note_on_c, 4, 50, 0
5, 14752, Note_on_c, 4, 47, 61
5, 14782, Note_on_c, 4, 47, 0
5, 14784, Note_on_c, 4, 43, 63
5, 14878, Note_on_c, 4, 43, 0
5, 15552, Note_on_c, 4, 60, 45
5, 15582, Note_on_c, 4, 60, 0
5, 15584, Note_on_c, 4, 55, 52
5, 15614, Note_on_c, 4, 55, 0
5, 15616, Note_on_c, 4, 52, 60
5, 15646, Note_on_c, 4, 52, 0
5, 15648, Note_on_c, 4, 48, 68
5, 15678, Note_on_c, 4, 48, 0
5, 15680, Note_on_c, 4, 43, 76
5, 15710, Note_on_c, 4, 43, 0
5, 15712, Note_on_c, 4, 40, 84
5, 15742, Note_on_c, 4, 40, 0
5, 15744, Note_on_c, 4, 36, 92
5, 15776, Note_on_c, 4, 36, 0
5, 15840, Note_on_c, 4, 40, 92
5, 15872, Note_on_c, 4, 40, 0
5, 15936, Note_on_c, 4, 43, 92
5, 15968, Note_on_c, 4, 43, 0
5, 16032, Note_on_c, 4, 48, 92
5, 16064, Note_on_c, 4, 48, 0
5, 16128, Note_on_c, 4, 47, 92
5, 16160, Note_on_c, 4, 47, 0
5, 16224, Note_on_c, 4, 50, 92
5, 16256, Note_on_c, 4, 50, 0
5, 16320, Note_on_c, 4, 53, 92
5, 16352, Note_on_c, 4, 53, 0
5, 16368, Note_on_c, 4, 55, 77
5, 16400, Note_on_c, 4, 55, 0
5, 16416, Note_on_c, 4, 59, 62
5, 16448, Note_on_c, 4, 59, 0
5, 16464, Note_on_c, 4, 62, 46
5, 16496, Note_on_c, 4, 62, 0
5, 16608, Note_on_c, 4, 60, 30
5, 16702, Note_on_c, 4, 60, 0
5, 16704, Note_on_c, 4, 53, 30
5, 16734, Note_on_c, 4, 53, 0
5, 16736, Note_on_c, 4, 55, 30
5, 16766, Note_on_c, 4, 55, 0
5, 16768, Note_on_c, 4, 57, 30
5, 16798, Note_on_c, 4, 57, 0
5, 16800, Note_on_c, 4, 58, 30
5, 16830, Note_on_c, 4, 58, 0
5, 16832, Note_on_c, 4, 60, 30
5, 16862, Note_on_c, 4, 60, 0
5, 16864, Note_on_c, 4, 58, 30
5, 16894, Note_on_c, 4, 58, 0
5, 16896, Note_on_c, 4, 59, 30
5, 16990, Note_on_c, 4, 59, 0
5, 16992, Note_on_c, 4, 57, 30
5, 17086, Note_on_c, 4, 57, 0
5, 17088, Note_on_c, 4, 50, 30
5, 17118, Note_on_c, 4, 50, 0
5, 17120, Note_on_c, 4, 52, 30
5, 17150, Note_on_c, 4, 52, 0
5, 17152, Note_on_c, 4, 54, 30
5, 17182, Note_on_c, 4, 54, 0
5, 17184, Note_on_c, 4, 55, 30
5, 17214, Note_on_c, 4, 55, 0
5, 17216, Note_on_c, 4, 57, 30
5, 17246, Note_on_c, 4, 57, 0
5, 17248, Note_on_c, 4, 55, 30
5, 17278, Note_on_c, 4, 55, 0
5, 17280, Note_on_c, 4, 51, 30
5, 17760, Note_on_c, 4, 51, 0
5, 17760, Note_on_c, 4, 52, 45
5, 17856, Note_on_c, 4, 52, 0
5, 17856, Note_on_c, 4, 53, 45
5, 17950, Note_on_c, 4, 53, 0
5, 17952, Note_on_c, 4, 50, 45
5, 17984, Note_on_c, 4, 50, 0
5, 18048, Note_on_c, 4, 48, 45
5, 18144, Note_on_c, 4, 48, 0
5, 18144, Note_on_c, 4, 47, 48
5, 18240, Note_on_c, 4, 47, 0
5, 18240, Note_on_c, 4, 48, 51
5, 18272, Note_on_c, 4, 48, 0
5, 18336, Note_on_c, 4, 45, 55
5, 18368, Note_on_c, 4, 45, 0
5, 18432, Note_on_c, 4, 44, 59
5, 18528, Note_on_c, 4, 44, 0
5, 18528, Note_on_c, 4, 40, 63
5, 18624, Note_on_c, 4, 40, 0
5, 18624, Note_on_c, 4, 41, 67
5, 18784, Note_on_c, 4, 41, 0
5, 18816, Note_on_c, 4, 40, 30
5, 18910, Note_on_c, 4, 40, 0
5, 18912, Note_on_c, 4, 64, 30
5, 18944, Note_on_c, 4, 64, 0
5, 19008, Note_on_c, 4, 65, 30
5, 19040, Note_on_c, 4, 65, 0
5, 19104, Note_on_c, 4, 65, 30
5, 19136, Note_on_c, 4, 65, 0
5, 19200, Note_on_c, 4, 67, 30
5, 19294, Note_on_c, 4, 67, 0
5, 19296, Note_on_c, 4, 67, 30
5, 19390, Note_on_c, 4, 67, 0
5, 19392, Note_on_c, 4, 69, 30
5, 19486, Note_on_c, 4, 69, 0
5, 19488, Note_on_c, 4, 69, 30
5, 19582, Note_on_c, 4, 69, 0
5, 19584, Note_on_c, 4, 64, 30
5, 19614, Note_on_c, 4, 64, 0
5, 19616, Note_on_c, 4, 64, 30
5, 19646, Note_on_c, 4, 64, 0
5, 19648, Note_on_c, 4, 64, 30
5, 19678, Note_on_c, 4, 64, 0
5, 19680, Note_on_c, 4, 64, 30
5, 19710, Note_on_c, 4, 64, 0
5, 19712, Note_on_c, 4, 64, 30
5, 19742, Note_on_c, 4, 64, 0
5, 19744, Note_on_c, 4, 64, 30
5, 19774, Note_on_c, 4, 64, 0
5, 19776, Note_on_c, 4, 65, 30
5, 19806, Note_on_c, 4, 65, 0
5, 19808, Note_on_c, 4, 65, 30
5, 19838, Note_on_c, 4, 65, 0
5, 19840, Note_on_c, 4, 65, 30
5, 19870, Note_on_c, 4, 65, 0
5, 19872, Note_on_c, 4, 65, 30
5, 19902, Note_on_c, 4, 65, 0
5, 19904, Note_on_c, 4, 65, 30
5, 19934, Note_on_c, 4, 65, 0
5, 19936, Note_on_c, 4, 65, 30
5, 19966, Note_on_c, 4, 65, 0
5, 19968, Note_on_c, 4, 67, 30
5, 19998, Note_on_c, 4, 67, 0
5, 20000, Note_on_c, 4, 67, 32
5, 20030, Note_on_c, 4, 67, 0
5, 20032, Note_on_c, 4, 67, 34
5, 20062, Note_on_c, 4, 67, 0
5, 20064, Note_on_c, 4, 67, 36
5, 20094, Note_on_c, 4, 67, 0
5, 20096, Note_on_c, 4, 67, 39
5, 20126, Note_on_c, 4, 67, 0
5, 20128, Note_on_c, 4, 67, 42
5, 20158, Note_on_c, 4, 67, 0
5, 20160, Note_on_c, 4, 67, 45
5, 20190, Note_on_c, 4, 67, 0
5, 20192, Note_on_c, 4, 67, 45
5, 20222, Note_on_c, 4, 67, 0
5, 20224, Note_on_c, 4, 67, 45
5, 20254, Note_on_c, 4, 67, 0
5, 20256, Note_on_c, 4, 67, 45
5, 20286, Note_on_c, 4, 67, 0
5, 20288, Note_on_c, 4, 67, 45
5, 20318, Note_on_c, 4, 67, 0
5, 20320, Note_on_c, 4, 67, 45
5, 20350, Note_on_c, 4, 67, 0
5, 20352, Note_on_c, 4, 67, 45
5, 20958, Note_on_c, 4, 67, 0
5, 20960, Note_on_c, 4, 43, 45
5, 20990, Note_on_c, 4, 43, 0
5, 20992, Note_on_c, 4, 43, 45
5, 21022, Note_on_c, 4, 43, 0
5, 21024, Note_on_c, 4, 43, 45
5, 21054, Note_on_c, 4, 43, 0
5, 21056, Note_on_c, 4, 45, 45
5, 21086, Note_on_c, 4, 45, 0
5, 21088, Note_on_c, 4, 47, 45
5, 21118, Note_on_c, 4, 47, 0
5, 21120, Note_on_c, 4, 48, 45
5, 21312, Note_on_c, 4, 48, 0
5, 21312, Note_on_c, 4, 50, 58
5, 21504, Note_on_c, 4, 50, 0
5, 21504, Note_on_c, 4, 52, 71
5, 21536, Note_on_c, 4, 52, 0
5, 21600, Note_on_c, 4, 53, 78
5, 21632, Note_on_c, 4, 53, 0
5, 21696, Note_on_c, 4, 55, 85
5, 21728, Note_on_c, 4, 55, 0
5, 21792, Note_on_c, 4, 43, 92
5, 21824, Note_on_c, 4, 43, 0
5, 21888, Note_on_c, 4, 40, 92
5, 21920, Note_on_c, 4, 40, 0
5, 22560, Note_on_c, 4, 43, 45
5, 22656, Note_on_c, 4, 43, 0
5, 22656, Note_on_c, 4, 36, 45
5, 22750, Note_on_c, 4, 36, 0
5, 22944, Note_on_c, 4, 69, 45
5, 23040, Note_on_c, 4, 69, 0
5, 23040, Note_on_c, 4, 69, 45
5, 23134, Note_on_c, 4, 69, 0
5, 23328, Note_on_c, 4, 43, 45
5, 23424, Note_on_c, 4, 43, 0
5, 23424, Note_on_c, 4, 43, 45
5, 23518, Note_on_c, 4, 43, 0
5, 23616, Note_on_c, 4, 50, 75
5, 23808, Note_on_c, 4, 50, 0
5, 23808, Note_on_c, 4, 40, 60
5, 23968, Note_on_c, 4, 40, 0
5, 24000, Note_on_c, 4, 47, 75
5, 24192, Note_on_c, 4, 47, 0
5, 24192, Note_on_c, 4, 45, 60
5, 24352, Note_on_c, 4, 45, 0
5, 24384, Note_on_c, 4, 52, 75
5, 24576, Note_on_c, 4, 52, 0
5, 24576, Note_on_c, 4, 42, 60
5, 24736, Note_on_c, 4, 42, 0
5, 24768, Note_on_c, 4, 48, 75
5, 24960, Note_on_c, 4, 48, 0
5, 24960, Note_on_c, 4, 47, 60
5, 25120, Note_on_c, 4, 47, 0
5, 25728, Note_on_c, 4, 43, 45
5, 25758, Note_on_c, 4, 43, 0
5, 25760, Note_on_c, 4, 47, 45
5, 25790, Note_on_c, 4, 47, 0
5, 25792, Note_on_c, 4, 50, 45
5, 25822, Note_on_c, 4, 50, 0
5, 25824, Note_on_c, 4, 55, 45
5, 25854, Note_on_c, 4, 55, 0
5, 25856, Note_on_c, 4, 59, 45
5, 25886, Note_on_c, 4, 59, 0
5, 25888, Note_on_c, 4, 62, 45
5, 25918, Note_on_c, 4, 62, 0
5, 25920, Note_on_c, 4, 65, 45
5, 26014, Note_on_c, 4, 65, 0
5, 26112, Note_on_c, 4, 40, 45
5, 26136, Note_on_c, 4, 40, 0
5, 26136, Note_on_c, 4, 41, 45
5, 26160, Note_on_c, 4, 41, 0
5, 26160, Note_on_c, 4, 43, 45
5, 26304, Note_on_c, 4, 43, 0
5, 26304, Note_on_c, 4, 38, 45
5, 26472, Note_on_c, 4, 38, 0
5, 26472, Note_on_c, 4, 39, 45
5, 26494, Note_on_c, 4, 39, 0
5, 26496, Note_on_c, 4, 36, 45
5, 26656, Note_on_c, 4, 36, 0
5, 27456, Note_on_c, 4, 39, 45
5, 27984, Note_on_c, 4, 39, 0
5, 28032, Note_on_c, 4, 48, 45
5, 28056, Note_on_c, 4, 48, 0
5, 28056, Note_on_c, 4, 49, 45
5, 28080, Note_on_c, 4, 49, 0
5, 28080, Note_on_c, 4, 51, 45
5, 28224, Note_on_c, 4, 51, 0
5, 28224, Note_on_c, 4, 46, 45
5, 28392, Note_on_c, 4, 46, 0
5, 28392, Note_on_c, 4, 48, 45
5, 28414, Note_on_c, 4, 48, 0
5, 28416, Note_on_c, 4, 46, 45
5, 28440, Note_on_c, 4, 46, 0
5, 28440, Note_on_c, 4, 48, 45
5, 28464, Note_on_c, 4, 48, 0
5, 28464, Note_on_c, 4, 49, 45
5, 28608, Note_on_c, 4, 49, 0
5, 28608, Note_on_c, 4, 44, 45
5, 28768, Note_on_c, 4, 44, 0
5, 28800, Note_on_c, 4, 43, 45
5, 28992, Note_on_c, 4, 43, 0
5, 28992, Note_on_c, 4, 45, 45
5, 29160, Note_on_c, 4, 45, 0
5, 29160, Note_on_c, 4, 46, 45
5, 29182, Note_on_c, 4, 46, 0
5, 29184, Note_on_c, 4, 46, 45
5, 29376, Note_on_c, 4, 46, 0
5, 29376, Note_on_c, 4, 41, 45
5, 29544, Note_on_c, 4, 41, 0
5, 29544, Note_on_c, 4, 43, 45
5, 29566, Note_on_c, 4, 43, 0
5, 29568, Note_on_c, 4, 44, 45
5, 29760, Note_on_c, 4, 44, 0
5, 29760, Note_on_c, 4, 42, 56
5, 29920, Note_on_c, 4, 42, 0
5, 29952, Note_on_c, 4, 41, 68
5, 29982, Note_on_c, 4, 41, 0
5, 29984, Note_on_c, 4, 45, 70
5, 30014, Note_on_c, 4, 45, 0
5, 30016, Note_on_c, 4, 48, 72
5, 30046, Note_on_c, 4, 48, 0
5, 30048, Note_on_c, 4, 53, 74
5, 30078, Note_on_c, 4, 53, 0
5, 30080, Note_on_c, 4, 57, 76
5, 30110, Note_on_c, 4, 57, 0
5, 30112, Note_on_c, 4, 60, 78
5, 30142, Note_on_c, 4, 60, 0
5, 30144, Note_on_c, 4, 65, 80
5, 30238, Note_on_c, 4, 65, 0
5, 30336, Note_on_c, 4, 65, 92
5, 30382, Note_on_c, 4, 65, 0
5, 30408, Note_on_c, 4, 48, 92
5, 30432, Note_on_c, 4, 48, 0
5, 30432, Note_on_c, 4, 41, 92
5, 30480, Note_on_c, 4, 41, 0
5, 30480, Note_on_c, 4, 45, 92
5, 30528, Note_on_c, 4, 45, 0
5, 30528, Note_on_c, 4, 48, 92
5, 30560, Note_on_c, 4, 48, 0
5, 31200, Note_on_c, 4, 46, 45
5, 31294, Note_on_c, 4, 46, 0
5, 31296, Note_on_c, 4, 45, 45
5, 31390, Note_on_c, 4, 45, 0
5, 31392, Note_on_c, 4, 41, 45
5, 31486, Note_on_c, 4, 41, 0
5, 31584, Note_on_c, 4, 46, 45
5, 31678, Note_on_c, 4, 46, 0
5, 31752, Note_on_c, 4, 43, 92
5, 31776, Note_on_c, 4, 43, 0
5, 31776, Note_on_c, 4, 36, 92
5, 31824, Note_on_c, 4, 36, 0
5, 31824, Note_on_c, 4, 40, 92
5, 31872, Note_on_c, 4, 40, 0
5, 31872, Note_on_c, 4, 43, 92
5, 31904, Note_on_c, 4, 43, 0
5, 32160, Note_on_c, 4, 58, 45
5, 32254, Note_on_c, 4, 58, 0
5, 32256, Note_on_c, 4, 57, 45
5, 32350, Note_on_c, 4, 57, 0
5, 32352, Note_on_c, 4, 53, 45
5, 32446, Note_on_c, 4, 53, 0
5, 32448, Note_on_c, 4, 52, 45
5, 32542, Note_on_c, 4, 52, 0
5, 32544, Note_on_c, 4, 48, 45
5, 32638, Note_on_c, 4, 48, 0
5, 32736, Note_on_c, 4, 53, 45
5, 32992, Note_on_c, 4, 53, 0
5, 33120, Note_on_c, 4, 65, 45
5, 33376, Note_on_c, 4, 65, 0
5, 33504, Note_on_c, 4, 53, 45
5, 33694, Note_on_c, 4, 53, 0
5, 33696, Note_on_c, 4, 52, 45
5, 33790, Note_on_c, 4, 52, 0
5, 33984, Note_on_c, 4, 36, 45
5, 34008, Note_on_c, 4, 36, 0
5, 34008, Note_on_c, 4, 38, 45
5, 34032, Note_on_c, 4, 38, 0
5, 34032, Note_on_c, 4, 40, 45
5, 34064, Note_on_c, 4, 40, 0
5, 34176, Note_on_c, 4, 45, 45
5, 34208, Note_on_c, 4, 45, 0
5, 34272, Note_on_c, 4, 40, 45
5, 34304, Note_on_c, 4, 40, 0
5, 34368, Note_on_c, 4, 45, 45
5, 34400, Note_on_c, 4, 45, 0
5, 35136, Note_on_c, 4, 38, 45
5, 35160, Note_on_c, 4, 38, 0
5, 35160, Note_on_c, 4, 40, 45
5, 35184, Note_on_c, 4, 40, 0
5, 35184, Note_on_c, 4, 42, 92
5, 35216, Note_on_c, 4, 42, 0
5, 35328, Note_on_c, 4, 38, 45
5, 35360, Note_on_c, 4, 38, 0
5, 35424, Note_on_c, 4, 43, 45
5, 35456, Note_on_c, 4, 43, 0
5, 35520, Note_on_c, 4, 38, 45
5, 35552, Note_on_c, 4, 38, 0
5, 35616, Note_on_c, 4, 42, 45
5, 35648, Note_on_c, 4, 42, 0
5, 35712, Note_on_c, 4, 43, 45
5, 35744, Note_on_c, 4, 43, 0
5, 35808, Note_on_c, 4, 38, 45
5, 35840, Note_on_c, 4, 38, 0
5, 35904, Note_on_c, 4, 43, 45
5, 35936, Note_on_c, 4, 43, 0
5, 36096, Note_on_c, 4, 43, 45
5, 36190, Note_on_c, 4, 43, 0
5, 36192, Note_on_c, 4, 38, 45
5, 36286, Note_on_c, 4, 38, 0
5, 36288, Note_on_c, 4, 43, 45
5, 36382, Note_on_c, 4, 43, 0
5, 36384, Note_on_c, 4, 64, 45
5, 36408, Note_on_c, 4, 64, 0
5, 36408, Note_on_c, 4, 66, 45
5, 36432, Note_on_c, 4, 66, 0
5, 36432, Note_on_c, 4, 67, 45
5, 36464, Note_on_c, 4, 67, 0
5, 36480, Note_on_c, 4, 43, 45
5, 36512, Note_on_c, 4, 43, 0
5, 36576, Note_on_c, 4, 38, 45
5, 36608, Note_on_c, 4, 38, 0
5, 36672, Note_on_c, 4, 43, 45
5, 36704, Note_on_c, 4, 43, 0
5, 36768, Note_on_c, 4, 64, 45
5, 36792, Note_on_c, 4, 64, 0
5, 36792, Note_on_c, 4, 66, 45
5, 36816, Note_on_c, 4, 66, 0
5, 36816, Note_on_c, 4, 67, 45
5, 36848, Note_on_c, 4, 67, 0
5, 36864, Note_on_c, 4, 48, 45
5, 36896, Note_on_c, 4, 48, 0
5, 36960, Note_on_c, 4, 43, 45
5, 36992, Note_on_c, 4, 43, 0
5, 37056, Note_on_c, 4, 48, 45
5, 37088, Note_on_c, 4, 48, 0
5, 37152, Note_on_c, 4, 57, 45
5, 37176, Note_on_c, 4, 57, 0
5, 37176, Note_on_c, 4, 59, 45
5, 37200, Note_on_c, 4, 59, 0
5, 37200, Note_on_c, 4, 60, 45
5, 37232, Note_on_c, 4, 60, 0
5, 37248, Note_on_c, 4, 60, 45
5, 37278, Note_on_c, 4, 60, 0
5, 37280, Note_on_c, 4, 60, 45
5, 37310, Note_on_c, 4, 60, 0
5, 37312, Note_on_c, 4, 60, 45
5, 37342, Note_on_c, 4, 60, 0
5, 37344, Note_on_c, 4, 60, 45
5, 37374, Note_on_c, 4, 60, 0
5, 37376, Note_on_c, 4, 60, 45
5, 37406, Note_on_c, 4, 60, 0
5, 37408, Note_on_c, 4, 60, 45
5, 37438, Note_on_c, 4, 60, 0
5, 37440, Note_on_c, 4, 60, 45
5, 37470, Note_on_c, 4, 60, 0
5, 37472, Note_on_c, 4, 60, 45
5, 37502, Note_on_c, 4, 60, 0
5, 37504, Note_on_c, 4, 60, 45
5, 37534, Note_on_c, 4, 60, 0
5, 37536, Note_on_c, 4, 60, 45
5, 37566, Note_on_c, 4, 60, 0
5, 37568, Note_on_c, 4, 60, 45
5, 37598, Note_on_c, 4, 60, 0
5, 37600, Note_on_c, 4, 60, 45
5, 37630, Note_on_c, 4, 60, 0
5, 37632, Note_on_c, 4, 60, 45
5, 37664, Note_on_c, 4, 60, 0
5, 37728, Note_on_c, 4, 55, 50
5, 37760, Note_on_c, 4, 55, 0
5, 37824, Note_on_c, 4, 60, 56
5, 37856, Note_on_c, 4, 60, 0
5, 37920, Note_on_c, 4, 45, 62
5, 37944, Note_on_c, 4, 45, 0
5, 37944, Note_on_c, 4, 47, 62
5, 37968, Note_on_c, 4, 47, 0
5, 37968, Note_on_c, 4, 48, 62
5, 38000, Note_on_c, 4, 48, 0
5, 38016, Note_on_c, 4, 48, 68
5, 38046, Note_on_c, 4, 48, 0
5, 38048, Note_on_c, 4, 48, 70
5, 38078, Note_on_c, 4, 48, 0
5, 38080, Note_on_c, 4, 48, 72
5, 38110, Note_on_c, 4, 48, 0
5, 38112, Note_on_c, 4, 43, 74
5, 38142, Note_on_c, 4, 43, 0
5, 38144, Note_on_c, 4, 43, 76
5, 38174, Note_on_c, 4, 43, 0
5, 38176, Note_on_c, 4, 43, 78
5, 38206, Note_on_c, 4, 43, 0
5, 38208, Note_on_c, 4, 48, 80
5, 38238, Note_on_c, 4, 48, 0
5, 38240, Note_on_c, 4, 36, 82
5, 38270, Note_on_c, 4, 36, 0
5, 38272, Note_on_c, 4, 36, 84
5, 38302, Note_on_c, 4, 36, 0
5, 38304, Note_on_c, 4, 37, 86
5, 38334, Note_on_c, 4, 37, 0
5, 38336, Note_on_c, 4, 37, 88
5, 38366, Note_on_c, 4, 37, 0
5, 38368, Note_on_c, 4, 37, 90
5, 38398, Note_on_c, 4, 37, 0
5, 38400, Note_on_c, 4, 37, 92
5, 38430, Note_on_c, 4, 37, 0
5, 38432, Note_on_c, 4, 37, 92
5, 38462, Note_on_c, 4, 37, 0
5, 38464, Note_on_c, 4, 37, 92
5, 38494, Note_on_c, 4, 37, 0
5, 38496, Note_on_c, 4, 37, 92
5, 38526, Note_on_c, 4, 37, 0
5, 38528, Note_on_c, 4, 37, 92
5, 38558, Note_on_c, 4, 37, 0
5, 38560, Note_on_c, 4, 37, 92
5, 38590, Note_on_c, 4, 37, 0
5, 38592, Note_on_c, 4, 37, 92
5, 38622, Note_on_c, 4, 37, 0
5, 38624, Note_on_c, 4, 37, 92
5, 38654, Note_on_c, 4, 37, 0
5, 38656, Note_on_c, 4, 37, 92
5, 38686, Note_on_c, 4, 37, 0
5, 38688, Note_on_c, 4, 37, 92
5, 38718, Note_on_c, 4, 37, 0
5, 38720, Note_on_c, 4, 37, 92
5, 38750, Note_on_c, 4, 37, 0
5, 38752, Note_on_c, 4, 37, 92
5, 38782, Note_on_c, 4, 37, 0
5, 38784, Note_on_c, 4, 37, 92
5, 38814, Note_on_c, 4, 37, 0
5, 38816, Note_on_c, 4, 37, 92
5, 38846, Note_on_c, 4, 37, 0
5, 38848, Note_on_c, 4, 37, 92
5, 38878, Note_on_c, 4, 37, 0
5, 38880, Note_on_c, 4, 37, 92
5, 38910, Note_on_c, 4, 37, 0
5, 38912, Note_on_c, 4, 37, 92
5, 38942, Note_on_c, 4, 37, 0
5, 38944, Note_on_c, 4, 37, 92
5, 38974, Note_on_c, 4, 37, 0
5, 38976, Note_on_c, 4, 36, 92
5, 39022, Note_on_c, 4, 36, 0
5, 39048, Note_on_c, 4, 46, 92
5, 39072, Note_on_c, 4, 46, 0
5, 39072, Note_on_c, 4, 41, 92
5, 39120, Note_on_c, 4, 41, 0
5, 39120, Note_on_c, 4, 43, 92
5, 39168, Note_on_c, 4, 43, 0
5, 39168, Note_on_c, 4, 40, 92
5, 39262, Note_on_c, 4, 40, 0
5, 39456, Note_on_c, 4, 46, 45
5, 39550, Note_on_c, 4, 46, 0
5, 39552, Note_on_c, 4, 45, 45
5, 39646, Note_on_c, 4, 45, 0
5, 39648, Note_on_c, 4, 41, 45
5, 39742, Note_on_c, 4, 41, 0
5, 39744, Note_on_c, 4, 40, 45
5, 39838, Note_on_c, 4, 40, 0
5, 39840, Note_on_c, 4, 36, 45
5, 39934, Note_on_c, 4, 36, 0
5, 40032, Note_on_c, 4, 53, 45
5, 40104, Note_on_c, 4, 53, 0
5, 40104, Note_on_c, 4, 55, 56
5, 40126, Note_on_c, 4, 55, 0
5, 40128, Note_on_c, 4, 57, 59
5, 40160, Note_on_c, 4, 57, 0
5, 40224, Note_on_c, 4, 46, 45
5, 40318, Note_on_c, 4, 46, 0
5, 40416, Note_on_c, 4, 46, 45
5, 40510, Note_on_c, 4, 46, 0
5, 40512, Note_on_c, 4, 48, 45
5, 40606, Note_on_c, 4, 48, 0
5, 40608, Note_on_c, 4, 36, 45
5, 40702, Note_on_c, 4, 36, 0
5, 40800, Note_on_c, 4, 65, 45
5, 40872, Note_on_c, 4, 65, 0
5, 40872, Note_on_c, 4, 67, 51
5, 40896, Note_on_c, 4, 67, 0
5, 40896, Note_on_c, 4, 69, 53
5, 40990, Note_on_c, 4, 69, 0
5, 40992, Note_on_c, 4, 58, 61
5, 41086, Note_on_c, 4, 58, 0
5, 41160, Note_on_c, 4, 43, 45
5, 41182, Note_on_c, 4, 43, 0
5, 41184, Note_on_c, 4, 43, 45
5, 41232, Note_on_c, 4, 43, 0
5, 41232, Note_on_c, 4, 46, 45
5, 41280, Note_on_c, 4, 46, 0
5, 41280, Note_on_c, 4, 48, 45
5, 41326, Note_on_c, 4, 48, 0
5, 41352, Note_on_c, 4, 36, 45
5, 41376, Note_on_c, 4, 36, 0
5, 41376, Note_on_c, 4, 40, 45
5, 41424, Note_on_c, 4, 40, 0
5, 41424, Note_on_c, 4, 43, 45
5, 41472, Note_on_c, 4, 43, 0
5, 41472, Note_on_c, 4, 41, 45
5, 41566, Note_on_c, 4, 41, 0
5, 41664, Note_on_c, 4, 47, 45
5, 41760, Note_on_c, 4, 47, 0
5, 41760, Note_on_c, 4, 48, 45
5, 41856, Note_on_c, 4, 48, 0
5, 41856, Note_on_c, 4, 37, 45
5, 41952, Note_on_c, 4, 37, 0
5, 41952, Note_on_c, 4, 38, 45
5, 42048, Note_on_c, 4, 38, 0
5, 42048, Note_on_c, 4, 45, 45
5, 42144, Note_on_c, 4, 45, 0
5, 42144, Note_on_c, 4, 46, 45
5, 42240, Note_on_c, 4, 46, 0
5, 42240, Note_on_c, 4, 45, 45
5, 42336, Note_on_c, 4, 45, 0
5, 42336, Note_on_c, 4, 43, 45
5, 42432, Note_on_c, 4, 43, 0
5, 42432, Note_on_c, 4, 49, 45
5, 42528, Note_on_c, 4, 49, 0
5, 42528, Note_on_c, 4, 50, 45
5, 42624, Note_on_c, 4, 50, 0
5, 42624, Note_on_c, 4, 39, 45
5, 42720, Note_on_c, 4, 39, 0
5, 42720, Note_on_c, 4, 40, 45
5, 42816, Note_on_c, 4, 40, 0
5, 42816, Note_on_c, 4, 48, 45
5, 42912, Note_on_c, 4, 48, 0
5, 42912, Note_on_c, 4, 46, 45
5, 43006, Note_on_c, 4, 46, 0
5, 43008, Note_on_c, 4, 46, 45
5, 43104, Note_on_c, 4, 46, 0
5, 43104, Note_on_c, 4, 45, 45
5, 43198, Note_on_c, 4, 45, 0
5, 44160, Note_on_c, 4, 50, 45
5, 44184, Note_on_c, 4, 50, 0
5, 44184, Note_on_c, 4, 51, 45
5, 44208, Note_on_c, 4, 51, 0
5, 44208, Note_on_c, 4, 53, 45
5, 44352, Note_on_c, 4, 53, 0
5, 44352, Note_on_c, 4, 48, 45
5, 44520, Note_on_c, 4, 48, 0
5, 44520, Note_on_c, 4, 50, 45
5, 44542, Note_on_c, 4, 50, 0
5, 44544, Note_on_c, 4, 46, 45
5, 44704, Note_on_c, 4, 46, 0
5, 44736, Note_on_c, 4, 41, 45
5, 44832, Note_on_c, 4, 41, 0
5, 44832, Note_on_c, 4, 39, 48
5, 44926, Note_on_c, 4, 39, 0
5, 44928, Note_on_c, 4, 39, 51
5, 45024, Note_on_c, 4, 39, 0
5, 45024, Note_on_c, 4, 38, 54
5, 45120, Note_on_c, 4, 38, 0
5, 45120, Note_on_c, 4, 48, 57
5, 45216, Note_on_c, 4, 48, 0
5, 45216, Note_on_c, 4, 46, 60
5, 45312, Note_on_c, 4, 46, 0
5, 45312, Note_on_c, 4, 38, 63
5, 45408, Note_on_c, 4, 38, 0
5, 45408, Note_on_c, 4, 39, 66
5, 45502, Note_on_c, 4, 39, 0
5, 45504, Note_on_c, 4, 39, 69
5, 45600, Note_on_c, 4, 39, 0
5, 45600, Note_on_c, 4, 41, 72
5, 45694, Note_on_c, 4, 41, 0
5, 45696, Note_on_c, 4, 41, 76
5, 45728, Note_on_c, 4, 41, 0
5, 45792, Note_on_c, 4, 41, 80
5, 45824, Note_on_c, 4, 41, 0
5, 45888, Note_on_c, 4, 41, 84
5, 45920, Note_on_c, 4, 41, 0
5, 45984, Note_on_c, 4, 41, 88
5, 46016, Note_on_c, 4, 41, 0
5, 46080, Note_on_c, 4, 43, 92
5, 46174, Note_on_c, 4, 43, 0
5, 46272, Note_on_c, 4, 36, 45
5, 47326, Note_on_c, 4, 36, 0
5, 47328, Note_on_c, 4, 47, 45
5, 47400, Note_on_c, 4, 47, 0
5, 47400, Note_on_c, 4, 50, 45
5, 47422, Note_on_c, 4, 50, 0
5, 47424, Note_on_c, 4, 48, 45
5, 47456, Note_on_c, 4, 48, 0
5, 47520, Note_on_c, 4, 48, 45
5, 47552, Note_on_c, 4, 48, 0
5, 47616, Note_on_c, 4, 53, 45
5, 47662, Note_on_c, 4, 53, 0
5, 47664, Note_on_c, 4, 53, 45
5, 47710, Note_on_c, 4, 53, 0
5, 47712, Note_on_c, 4, 53, 45
5, 47758, Note_on_c, 4, 53, 0
5, 47760, Note_on_c, 4, 53, 45
5, 47806, Note_on_c, 4, 53, 0
5, 47808, Note_on_c, 4, 53, 45
5, 47902, Note_on_c, 4, 53, 0
5, 48384, Note_on_c, 4, 50, 45
5, 48430, Note_on_c, 4, 50, 0
5, 48432, Note_on_c, 4, 62, 45
5, 48478, Note_on_c, 4, 62, 0
5, 48480, Note_on_c, 4, 62, 45
5, 48526, Note_on_c, 4, 62, 0
5, 48528, Note_on_c, 4, 62, 45
5, 48574, Note_on_c, 4, 62, 0
5, 48576, Note_on_c, 4, 62, 45
5, 48670, Note_on_c, 4, 62, 0
5, 49008, Note_on_c, 4, 50, 45
5, 49054, Note_on_c, 4, 50, 0
5, 49056, Note_on_c, 4, 50, 45
5, 49102, Note_on_c, 4, 50, 0
5, 49104, Note_on_c, 4, 50, 45
5, 49150, Note_on_c, 4, 50, 0
5, 49152, Note_on_c, 4, 48, 45
5, 49246, Note_on_c, 4, 48, 0
5, 49920, Note_on_c, 4, 48, 45
5, 50256, Note_on_c, 4, 48, 0
5, 50304, Note_on_c, 4, 41, 45
5, 50640, Note_on_c, 4, 41, 0
5, 50688, Note_on_c, 4, 41, 45
5, 50880, Note_on_c, 4, 41, 0
5, 50880, Note_on_c, 4, 37, 55
5, 51072, Note_on_c, 4, 37, 0
5, 51072, Note_on_c, 4, 36, 65
5, 51168, Note_on_c, 4, 36, 0
5, 51168, Note_on_c, 4, 48, 70
5, 51264, Note_on_c, 4, 48, 0
5, 51264, Note_on_c, 4, 47, 75
5, 51360, Note_on_c, 4, 47, 0
5, 51360, Note_on_c, 4, 46, 60
5, 51550, Note_on_c, 4, 46, 0
5, 51552, Note_on_c, 4, 45, 45
5, 51584, Note_on_c, 4, 45, 0
5, 51648, Note_on_c, 4, 46, 45
5, 51680, Note_on_c, 4, 46, 0
5, 51744, Note_on_c, 4, 48, 45
5, 51776, Note_on_c, 4, 48, 0
5, 51840, Note_on_c, 4, 53, 45
5, 51872, Note_on_c, 4, 53, 0
5, 51936, Note_on_c, 4, 57, 48
5, 51968, Note_on_c, 4, 57, 0
5, 52032, Note_on_c, 4, 60, 51
5, 52064, Note_on_c, 4, 60, 0
5, 52128, Note_on_c, 4, 65, 55
5, 52160, Note_on_c, 4, 65, 0
5, 52224, Note_on_c, 4, 64, 59
5, 52256, Note_on_c, 4, 64, 0
5, 52320, Note_on_c, 4, 67, 63
5, 52352, Note_on_c, 4, 67, 0
5, 52416, Note_on_c, 4, 70, 93
5, 52576, Note_on_c, 4, 70, 0
5, 52896, Note_on_c, 4, 64, 62
5, 52926, Note_on_c, 4, 64, 0
5, 52928, Note_on_c, 4, 62, 64
5, 52958, Note_on_c, 4, 62, 0
5, 52960, Note_on_c, 4, 60, 66
5, 52990, Note_on_c, 4, 60, 0
5, 52992, Note_on_c, 4, 65, 68
5, 53022, Note_on_c, 4, 65, 0
5, 53024, Note_on_c, 4, 60, 70
5, 53054, Note_on_c, 4, 60, 0
5, 53056, Note_on_c, 4, 57, 72
5, 53086, Note_on_c, 4, 57, 0
5, 53088, Note_on_c, 4, 53, 74
5, 53118, Note_on_c, 4, 53, 0
5, 53120, Note_on_c, 4, 48, 76
5, 53150, Note_on_c, 4, 48, 0
5, 53152, Note_on_c, 4, 45, 78
5, 53182, Note_on_c, 4, 45, 0
5, 53184, Note_on_c, 4, 41, 80
5, 53278, Note_on_c, 4, 41, 0
5, 53760, Note_on_c, 4, 41, 92
5, 53792, Note_on_c, 4, 41, 0
5, 53856, Note_on_c, 4, 45, 92
5, 53888, Note_on_c, 4, 45, 0
5, 53952, Note_on_c, 4, 48, 92
5, 53984, Note_on_c, 4, 48, 0
5, 54048, Note_on_c, 4, 53, 92
5, 54080, Note_on_c, 4, 53, 0
5, 54144, Note_on_c, 4, 57, 92
5, 54176, Note_on_c, 4, 57, 0
5, 54240, Note_on_c, 4, 60, 92
5, 54272, Note_on_c, 4, 60, 0
5, 54336, Note_on_c, 4, 63, 127
5, 54496, Note_on_c, 4, 63, 0
5, 54528, Note_on_c, 4, 53, 92
5, 54560, Note_on_c, 4, 53, 0
5, 54624, Note_on_c, 4, 58, 92
5, 54656, Note_on_c, 4, 58, 0
5, 54720, Note_on_c, 4, 62, 127
5, 54880, Note_on_c, 4, 62, 0
5, 54912, Note_on_c, 4, 36, 92
5, 54944, Note_on_c, 4, 36, 0
5, 55008, Note_on_c, 4, 40, 92
5, 55040, Note_on_c, 4, 40, 0
5, 55104, Note_on_c, 4, 43, 92
5, 55136, Note_on_c, 4, 43, 0
5, 55200, Note_on_c, 4, 48, 61
5, 55232, Note_on_c, 4, 48, 0
5, 55296, Note_on_c, 4, 60, 30
5, 55326, Note_on_c, 4, 60, 0
5, 55328, Note_on_c, 4, 60, 30
5, 55358, Note_on_c, 4, 60, 0
5, 55360, Note_on_c, 4, 60, 30
5, 55390, Note_on_c, 4, 60, 0
5, 55392, Note_on_c, 4, 65, 30
5, 55422, Note_on_c, 4, 65, 0
5, 55424, Note_on_c, 4, 65, 30
5, 55454, Note_on_c, 4, 65, 0
5, 55456, Note_on_c, 4, 65, 30
5, 55486, Note_on_c, 4, 65, 0
5, 55488, Note_on_c, 4, 65, 30
5, 55518, Note_on_c, 4, 65, 0
5, 55520, Note_on_c, 4, 65, 30
5, 55550, Note_on_c, 4, 65, 0
5, 55552, Note_on_c, 4, 65, 30
5, 55582, Note_on_c, 4, 65, 0
5, 55584, Note_on_c, 4, 65, 30
5, 55614, Note_on_c, 4, 65, 0
5, 55616, Note_on_c, 4, 63, 30
5, 55646, Note_on_c, 4, 63, 0
5, 55648, Note_on_c, 4, 63, 30
5, 55678, Note_on_c, 4, 63, 0
5, 55680, Note_on_c, 4, 64, 30
5, 55710, Note_on_c, 4, 64, 0
5, 55712, Note_on_c, 4, 64, 30
5, 55742, Note_on_c, 4, 64, 0
5, 55744, Note_on_c, 4, 64, 30
5, 55774, Note_on_c, 4, 64, 0
5, 55776, Note_on_c, 4, 64, 30
5, 55806, Note_on_c, 4, 64, 0
5, 55808, Note_on_c, 4, 62, 30
5, 55838, Note_on_c, 4, 62, 0
5, 55840, Note_on_c, 4, 62, 30
5, 55870, Note_on_c, 4, 62, 0
5, 55872, Note_on_c, 4, 55, 30
5, 55902, Note_on_c, 4, 55, 0
5, 55904, Note_on_c, 4, 57, 30
5, 55934, Note_on_c, 4, 57, 0
5, 55936, Note_on_c, 4, 59, 30
5, 55966, Note_on_c, 4, 59, 0
5, 55968, Note_on_c, 4, 60, 30
5, 55998, Note_on_c, 4, 60, 0
5, 56000, Note_on_c, 4, 62, 30
5, 56030, Note_on_c, 4, 62, 0
5, 56032, Note_on_c, 4, 60, 30
5, 56062, Note_on_c, 4, 60, 0
5, 56064, Note_on_c, 4, 44, 30
5, 56544, Note_on_c, 4, 44, 0
5, 56544, Note_on_c, 4, 45, 45
5, 56640, Note_on_c, 4, 45, 0
5, 56640, Note_on_c, 4, 46, 45
5, 56734, Note_on_c, 4, 46, 0
5, 56736, Note_on_c, 4, 43, 45
5, 56768, Note_on_c, 4, 43, 0
5, 56832, Note_on_c, 4, 41, 45
5, 56928, Note_on_c, 4, 41, 0
5, 56928, Note_on_c, 4, 52, 48
5, 57024, Note_on_c, 4, 52, 0
5, 57024, Note_on_c, 4, 55, 51
5, 57118, Note_on_c, 4, 55, 0
5, 57120, Note_on_c, 4, 50, 55
5, 57152, Note_on_c, 4, 50, 0
5, 57216, Note_on_c, 4, 49, 59
5, 57312, Note_on_c, 4, 49, 0
5, 57312, Note_on_c, 4, 57, 63
5, 57408, Note_on_c, 4, 57, 0
5, 57408, Note_on_c, 4, 62, 67
5, 57502, Note_on_c, 4, 62, 0
5, 57504, Note_on_c, 4, 56, 71
5, 57536, Note_on_c, 4, 56, 0
5, 57600, Note_on_c, 4, 57, 30
5, 57694, Note_on_c, 4, 57, 0
5, 57696, Note_on_c, 4, 57, 30
5, 57790, Note_on_c, 4, 57, 0
5, 57792, Note_on_c, 4, 58, 30
5, 57886, Note_on_c, 4, 58, 0
5, 57888, Note_on_c, 4, 58, 30
5, 57982, Note_on_c, 4, 58, 0
5, 57984, Note_on_c, 4, 60, 30
5, 58078, Note_on_c, 4, 60, 0
5, 58080, Note_on_c, 4, 60, 30
5, 58174, Note_on_c, 4, 60, 0
5, 58176, Note_on_c, 4, 62, 30
5, 58270, Note_on_c, 4, 62, 0
5, 58272, Note_on_c, 4, 62, 30
5, 58366, Note_on_c, 4, 62, 0
5, 58464, Note_on_c, 4, 69, 30
5, 58494, Note_on_c, 4, 69, 0
5, 58496, Note_on_c, 4, 69, 30
5, 58526, Note_on_c, 4, 69, 0
5, 58528, Note_on_c, 4, 69, 30
5, 58558, Note_on_c, 4, 69, 0
5, 58656, Note_on_c, 4, 58, 30
5, 58686, Note_on_c, 4, 58, 0
5, 58688, Note_on_c, 4, 58, 30
5, 58718, Note_on_c, 4, 58, 0
5, 58720, Note_on_c, 4, 58, 30
5, 58750, Note_on_c, 4, 58, 0
5, 58848, Note_on_c, 4, 60, 37
5, 58878, Note_on_c, 4, 60, 0
5, 58880, Note_on_c, 4, 60, 39
5, 58910, Note_on_c, 4, 60, 0
5, 58912, Note_on_c, 4, 60, 42
5, 58942, Note_on_c, 4, 60, 0
5, 58944, Note_on_c, 4, 62, 45
5, 58974, Note_on_c, 4, 62, 0
5, 58976, Note_on_c, 4, 62, 45
5, 59006, Note_on_c, 4, 62, 0
5, 59008, Note_on_c, 4, 62, 45
5, 59038, Note_on_c, 4, 62, 0
5, 59040, Note_on_c, 4, 64, 45
5, 59070, Note_on_c, 4, 64, 0
5, 59072, Note_on_c, 4, 64, 45
5, 59102, Note_on_c, 4, 64, 0
5, 59104, Note_on_c, 4, 64, 45
5, 59134, Note_on_c, 4, 64, 0
5, 59136, Note_on_c, 4, 53, 45
5, 59328, Note_on_c, 4, 53, 0
5, 59328, Note_on_c, 4, 55, 60
5, 59488, Note_on_c, 4, 55, 0
5, 59520, Note_on_c, 4, 57, 45
5, 59552, Note_on_c, 4, 57, 0
5, 59616, Note_on_c, 4, 58, 45
5, 59648, Note_on_c, 4, 58, 0
5, 59712, Note_on_c, 4, 60, 45
5, 59744, Note_on_c, 4, 60, 0
5, 59744, Note_on_c, 4, 50, 45
5, 59776, Note_on_c, 4, 50, 0
5, 59776, Note_on_c, 4, 48, 45
5, 59808, Note_on_c, 4, 48, 0
5, 59808, Note_on_c, 4, 46, 45
5, 59840, Note_on_c, 4, 46, 0
5, 59840, Note_on_c, 4, 45, 45
5, 59872, Note_on_c, 4, 45, 0
5, 59872, Note_on_c, 4, 43, 45
5, 59902, Note_on_c, 4, 43, 0
5, 59904, Note_on_c, 4, 41, 45
5, 60096, Note_on_c, 4, 41, 0
5, 60096, Note_on_c, 4, 43, 56
5, 60256, Note_on_c, 4, 43, 0
5, 60288, Note_on_c, 4, 45, 68
5, 60320, Note_on_c, 4, 45, 0
5, 60384, Note_on_c, 4, 46, 74
5, 60416, Note_on_c, 4, 46, 0
5, 60480, Note_on_c, 4, 48, 80
5, 60512, Note_on_c, 4, 48, 0
5, 60576, Note_on_c, 4, 60, 86
5, 60608, Note_on_c, 4, 60, 0
5, 60672, Note_on_c, 4, 45, 92
5, 60704, Note_on_c, 4, 45, 0
5, 61344, Note_on_c, 4, 48, 45
5, 61440, Note_on_c, 4, 48, 0
5, 61440, Note_on_c, 4, 41, 45
5, 61472, Note_on_c, 4, 41, 0
5, 62112, Note_on_c, 4, 48, 45
5, 62208, Note_on_c, 4, 48, 0
5, 62208, Note_on_c, 4, 36, 45
5, 62240, Note_on_c, 4, 36, 0
5, 62976, Note_on_c, 4, 40, 45
5, 63000, Note_on_c, 4, 40, 0
5, 63000, Note_on_c, 4, 42, 45
5, 63024, Note_on_c, 4, 42, 0
5, 63024, Note_on_c, 4, 43, 45
5, 63070, Note_on_c, 4, 43, 0
5, 63360, Note_on_c, 4, 45, 45
5, 63384, Note_on_c, 4, 45, 0
5, 63384, Note_on_c, 4, 46, 45
5, 63408, Note_on_c, 4, 46, 0
5, 63408, Note_on_c, 4, 48, 45
5, 63552, Note_on_c, 4, 48, 0
5, 63552, Note_on_c, 4, 43, 45
5, 63720, Note_on_c, 4, 43, 0
5, 63720, Note_on_c, 4, 45, 45
5, 63742, Note_on_c, 4, 45, 0
5, 63744, Note_on_c, 4, 41, 45
5, 63838, Note_on_c, 4, 41, 0
5, 63936, Note_on_c, 4, 36, 45
5, 63960, Note_on_c, 4, 36, 0
5, 63960, Note_on_c, 4, 38, 45
5, 63984, Note_on_c, 4, 38, 0
5, 63984, Note_on_c, 4, 40, 45
5, 64030, Note_on_c, 4, 40, 0
5, 64704, Note_on_c, 4, 61, 45
5, 64800, Note_on_c, 4, 61, 0
5, 64800, Note_on_c, 4, 62, 45
5, 64896, Note_on_c, 4, 62, 0
5, 64896, Note_on_c, 4, 51, 45
5, 64992, Note_on_c, 4, 51, 0
5, 64992, Note_on_c, 4, 52, 45
5, 65088, Note_on_c, 4, 52, 0
5, 65088, Note_on_c, 4, 60, 45
5, 65184, Note_on_c, 4, 60, 0
5, 65184, Note_on_c, 4, 58, 45
5, 65278, Note_on_c, 4, 58, 0
5, 65280, Note_on_c, 4, 52, 45
5, 65376, Note_on_c, 4, 52, 0
5, 65376, Note_on_c, 4, 53, 45
5, 65472, Note_on_c, 4, 53, 0
5, 65472, Note_on_c, 4, 60, 45
5, 65568, Note_on_c, 4, 60, 0
5, 65568, Note_on_c, 4, 57, 45
5, 65662, Note_on_c, 4, 57, 0
5, 65856, Note_on_c, 4, 60, 50
5, 65880, Note_on_c, 4, 60, 0
5, 65880, Note_on_c, 4, 62, 50
5, 65904, Note_on_c, 4, 62, 0
5, 65904, Note_on_c, 4, 64, 50
5, 65950, Note_on_c, 4, 64, 0
5, 66048, Note_on_c, 4, 36, 56
5, 66078, Note_on_c, 4, 36, 0
5, 66080, Note_on_c, 4, 41, 57
5, 66110, Note_on_c, 4, 41, 0
5, 66112, Note_on_c, 4, 45, 58
5, 66142, Note_on_c, 4, 45, 0
5, 66144, Note_on_c, 4, 48, 59
5, 66174, Note_on_c, 4, 48, 0
5, 66176, Note_on_c, 4, 53, 60
5, 66206, Note_on_c, 4, 53, 0
5, 66208, Note_on_c, 4, 57, 61
5, 66238, Note_on_c, 4, 57, 0
5, 66240, Note_on_c, 4, 57, 61
5, 66334, Note_on_c, 4, 57, 0
5, 66432, Note_on_c, 4, 36, 67
5, 66462, Note_on_c, 4, 36, 0
5, 66464, Note_on_c, 4, 40, 68
5, 66494, Note_on_c, 4, 40, 0
5, 66496, Note_on_c, 4, 43, 69
5, 66526, Note_on_c, 4, 43, 0
5, 66528, Note_on_c, 4, 48, 70
5, 66558, Note_on_c, 4, 48, 0
5, 66560, Note_on_c, 4, 52, 71
5, 66590, Note_on_c, 4, 52, 0
5, 66592, Note_on_c, 4, 55, 72
5, 66622, Note_on_c, 4, 55, 0
5, 66624, Note_on_c, 4, 55, 73
5, 66648, Note_on_c, 4, 55, 0
5, 66648, Note_on_c, 4, 57, 73
5, 66672, Note_on_c, 4, 57, 0
5, 66672, Note_on_c, 4, 58, 73
5, 66718, Note_on_c, 4, 58, 0
5, 66816, Note_on_c, 4, 36, 79
5, 66846, Note_on_c, 4, 36, 0
5, 66848, Note_on_c, 4, 41, 80
5, 66878, Note_on_c, 4, 41, 0
5, 66880, Note_on_c, 4, 45, 81
5, 66910, Note_on_c, 4, 45, 0
5, 66912, Note_on_c, 4, 48, 82
5, 66942, Note_on_c, 4, 48, 0
5, 66944, Note_on_c, 4, 53, 83
5, 66974, Note_on_c, 4, 53, 0
5, 66976, Note_on_c, 4, 57, 84
5, 67006, Note_on_c, 4, 57, 0
5, 67008, Note_on_c, 4, 53, 85
5, 67032, Note_on_c, 4, 53, 0
5, 67032, Note_on_c, 4, 55, 85
5, 67056, Note_on_c, 4, 55, 0
5, 67056, Note_on_c, 4, 57, 85
5, 67102, Note_on_c, 4, 57, 0
5, 67200, Note_on_c, 4, 55, 92
5, 67224, Note_on_c, 4, 55, 0
5, 67224, Note_on_c, 4, 57, 92
5, 67248, Note_on_c, 4, 57, 0
5, 67248, Note_on_c, 4, 58, 92
5, 67280, Note_on_c, 4, 58, 0
5, 67296, Note_on_c, 4, 64, 92
5, 67320, Note_on_c, 4, 64, 0
5, 67320, Note_on_c, 4, 65, 92
5, 67344, Note_on_c, 4, 65, 0
5, 67344, Note_on_c, 4, 67, 92
5, 67376, Note_on_c, 4, 67, 0
5, 67392, Note_on_c, 4, 60, 92
5, 67416, Note_on_c, 4, 60, 0
5, 67416, Note_on_c, 4, 62, 92
5, 67440, Note_on_c, 4, 62, 0
5, 67440, Note_on_c, 4, 64, 92
5, 67472, Note_on_c, 4, 64, 0
5, 67488, Note_on_c, 4, 55, 92
5, 67512, Note_on_c, 4, 55, 0
5, 67512, Note_on_c, 4, 57, 92
5, 67536, Note_on_c, 4, 57, 0
5, 67536, Note_on_c, 4, 58, 92
5, 67568, Note_on_c, 4, 58, 0
5, 67584, Note_on_c, 4, 52, 92
5, 67608, Note_on_c, 4, 52, 0
5, 67608, Note_on_c, 4, 53, 92
5, 67632, Note_on_c, 4, 53, 0
5, 67632, Note_on_c, 4, 55, 92
5, 67664, Note_on_c, 4, 55, 0
5, 67680, Note_on_c, 4, 48, 92
5, 67704, Note_on_c, 4, 48, 0
5, 67704, Note_on_c, 4, 50, 92
5, 67728, Note_on_c, 4, 50, 0
5, 67728, Note_on_c, 4, 52, 92
5, 67760, Note_on_c, 4, 52, 0
5, 67776, Note_on_c, 4, 46, 45
5, 67808, Note_on_c, 4, 46, 0
5, 67808, Note_on_c, 4, 50, 45
5, 67840, Note_on_c, 4, 50, 0
5, 67840, Note_on_c, 4, 48, 45
5, 67872, Note_on_c, 4, 48, 0
5, 67872, Note_on_c, 4, 46, 45
5, 67904, Note_on_c, 4, 46, 0
5, 67904, Note_on_c, 4, 45, 45
5, 67936, Note_on_c, 4, 45, 0
5, 67936, Note_on_c, 4, 43, 45
5, 67966, Note_on_c, 4, 43, 0
5, 67968, Note_on_c, 4, 41, 45
5, 68160, Note_on_c, 4, 41, 0
5, 68160, Note_on_c, 4, 43, 45
5, 68320, Note_on_c, 4, 43, 0
5, 68352, Note_on_c, 4, 45, 45
5, 68384, Note_on_c, 4, 45, 0
5, 68448, Note_on_c, 4, 46, 45
5, 68480, Note_on_c, 4, 46, 0
5, 68544, Note_on_c, 4, 48, 45
5, 68576, Note_on_c, 4, 48, 0
5, 68640, Note_on_c, 4, 50, 45
5, 68688, Note_on_c, 4, 50, 0
5, 68688, Note_on_c, 4, 52, 45
5, 68734, Note_on_c, 4, 52, 0
5, 68736, Note_on_c, 4, 53, 45
5, 68928, Note_on_c, 4, 53, 0
5, 68928, Note_on_c, 4, 55, 58
5, 69088, Note_on_c, 4, 55, 0
5, 69120, Note_on_c, 4, 57, 71
5, 69152, Note_on_c, 4, 57, 0
5, 69216, Note_on_c, 4, 58, 78
5, 69248, Note_on_c, 4, 58, 0
5, 69312, Note_on_c, 4, 60, 85
5, 69344, Note_on_c, 4, 60, 0
5, 69408, Note_on_c, 4, 39, 92
5, 69440, Note_on_c, 4, 39, 0
5, 69504, Note_on_c, 4, 39, 45
5, 69840, Note_on_c, 4, 39, 0
5, 69888, Note_on_c, 4, 39, 45
5, 69920, Note_on_c, 4, 39, 0
5, 70272, Note_on_c, 4, 48, 92
5, 70296, Note_on_c, 4, 48, 0
5, 70296, Note_on_c, 4, 50, 92
5, 70320, Note_on_c, 4, 50, 0
5, 70320, Note_on_c, 4, 51, 92
5, 70462, Note_on_c, 4, 51, 0
5, 70464, Note_on_c, 4, 46, 92
5, 70632, Note_on_c, 4, 46, 0
5, 70632, Note_on_c, 4, 48, 92
5, 70654, Note_on_c, 4, 48, 0
5, 70656, Note_on_c, 4, 45, 92
5, 70688, Note_on_c, 4, 45, 0
5, 70848, Note_on_c, 4, 48, 92
5, 70872, Note_on_c, 4, 48, 0
5, 70872, Note_on_c, 4, 50, 92
5, 70896, Note_on_c, 4, 50, 0
5, 70896, Note_on_c, 4, 51, 92
5, 70942, Note_on_c, 4, 51, 0
5, 71040, Note_on_c, 4, 50, 45
5, 71134, Note_on_c, 4, 50, 0
5, 71136, Note_on_c, 4, 50, 45
5, 71230, Note_on_c, 4, 50, 0
5, 71232, Note_on_c, 4, 45, 45
5, 71326, Note_on_c, 4, 45, 0
5, 71328, Note_on_c, 4, 41, 45
5, 71422, Note_on_c, 4, 41, 0
5, 71520, Note_on_c, 4, 58, 45
5, 71592, Note_on_c, 4, 58, 0
5, 71592, Note_on_c, 4, 60, 45
5, 71616, Note_on_c, 4, 60, 0
5, 71616, Note_on_c, 4, 62, 45
5, 71648, Note_on_c, 4, 62, 0
5, 71712, Note_on_c, 4, 58, 45
5, 71806, Note_on_c, 4, 58, 0
5, 71904, Note_on_c, 4, 57, 45
5, 71998, Note_on_c, 4, 57, 0
5, 72000, Note_on_c, 4, 52, 45
5, 72094, Note_on_c, 4, 52, 0
5, 72096, Note_on_c, 4, 48, 45
5, 72190, Note_on_c, 4, 48, 0
5, 72288, Note_on_c, 4, 53, 45
5, 72360, Note_on_c, 4, 53, 0
5, 72360, Note_on_c, 4, 55, 45
5, 72384, Note_on_c, 4, 55, 0
5, 72384, Note_on_c, 4, 57, 45
5, 72478, Note_on_c, 4, 57, 0
5, 72480, Note_on_c, 4, 58, 45
5, 72574, Note_on_c, 4, 58, 0
5, 72672, Note_on_c, 4, 43, 45
5, 72720, Note_on_c, 4, 43, 0
5, 72720, Note_on_c, 4, 46, 45
5, 72768, Note_on_c, 4, 46, 0
5, 72768, Note_on_c, 4, 48, 45
5, 72800, Note_on_c, 4, 48, 0
5, 72864, Note_on_c, 4, 46, 45
5, 72896, Note_on_c, 4, 46, 0
5, 72960, Note_on_c, 4, 45, 45
5, 73054, Note_on_c, 4, 45, 0
5, 73056, Note_on_c, 4, 41, 49
5, 73128, Note_on_c, 4, 41, 0
5, 73128, Note_on_c, 4, 43, 52
5, 73150, Note_on_c, 4, 43, 0
5, 73152, Note_on_c, 4, 45, 53
5, 73560, Note_on_c, 4, 45, 0
5, 73632, Note_on_c, 4, 46, 45
5, 73726, Note_on_c, 4, 46, 0
5, 73824, Note_on_c, 4, 46, 45
5, 73918, Note_on_c, 4, 46, 0
5, 73920, Note_on_c, 4, 48, 45
5, 73966, Note_on_c, 4, 48, 0
5, 73992, Note_on_c, 4, 43, 45
5, 74016, Note_on_c, 4, 43, 0
5, 74016, Note_on_c, 4, 40, 45
5, 74064, Note_on_c, 4, 40, 0
5, 74064, Note_on_c, 4, 36, 45
5, 74112, Note_on_c, 4, 36, 0
5, 74112, Note_on_c, 4, 41, 45
5, 74206, Note_on_c, 4, 41, 0
5, 74206, End_track
0, 0, End_of_file