0, 0, Header, 1, 16, 120
1, 0, Start_track
1, 0, Time_signature, 2, 2, 24, 8
1, 0, Key_signature, -3, "major"
1, 0, Tempo, 1538462
1, 0, Marker_t, "Beethoven's Symphony No.3 (""Eroica"") 2nd Movement Funeral March"
1, 0, End_track
2, 0, Start_track
2, 0, MIDI_port, 0
2, 0, Title_t, "Flutes"
2, 0, Program_c, 0, 73
2, 10800, Note_on_c, 0, 91, 48
2, 10800, Note_on_c, 0, 79, 48
2, 10919, Note_on_c, 0, 79, 0
2, 10920, Note_on_c, 0, 86, 51
2, 10920, Note_on_c, 0, 79, 56
2, 10929, Note_on_c, 0, 91, 0
2, 10980, Note_on_c, 0, 89, 54
2, 10989, Note_on_c, 0, 86, 0
2, 11040, Note_on_c, 0, 87, 56
2, 11049, Note_on_c, 0, 89, 0
2, 11160, Note_on_c, 0, 86, 52
2, 11169, Note_on_c, 0, 87, 0
2, 11220, Note_on_c, 0, 84, 48
2, 11220, Note_on_c, 0, 78, 48
2, 11229, Note_on_c, 0, 86, 0
2, 11229, Note_on_c, 0, 79, 0
2, 11279, Note_on_c, 0, 84, 0
2, 11279, Note_on_c, 0, 78, 0
2, 11280, Note_on_c, 0, 83, 48
2, 11280, Note_on_c, 0, 79, 48
2, 11339, Note_on_c, 0, 79, 0
2, 11339, Note_on_c, 0, 83, 0
2, 12060, Note_on_c, 0, 79, 96
2, 12119, Note_on_c, 0, 79, 0
2, 12120, Note_on_c, 0, 79, 100
2, 12180, Note_on_c, 0, 84, 104
2, 12239, Note_on_c, 0, 84, 0
2, 12239, Note_on_c, 0, 79, 0
2, 12240, Note_on_c, 0, 77, 48
2, 12240, Note_on_c, 0, 84, 48
2, 12299, Note_on_c, 0, 84, 0
2, 12299, Note_on_c, 0, 77, 0
2, 12720, Note_on_c, 0, 89, 48
2, 12839, Note_on_c, 0, 89, 0
2, 12840, Note_on_c, 0, 87, 72
2, 12855, Note_on_c, 0, 86, 76
2, 12856, Note_on_c, 0, 87, 0
2, 12899, Note_on_c, 0, 86, 0
2, 12900, Note_on_c, 0, 80, 84
2, 12900, Note_on_c, 0, 84, 84
2, 12915, Note_on_c, 0, 83, 88
2, 12916, Note_on_c, 0, 84, 0
2, 12959, Note_on_c, 0, 83, 0
2, 12959, Note_on_c, 0, 80, 0
2, 12960, Note_on_c, 0, 79, 96
2, 12960, Note_on_c, 0, 84, 96
2, 12989, Note_on_c, 0, 84, 0
2, 12989, Note_on_c, 0, 79, 0
2, 13020, Note_on_c, 0, 80, 96
2, 13020, Note_on_c, 0, 84, 96
2, 13049, Note_on_c, 0, 84, 0
2, 13049, Note_on_c, 0, 80, 0
2, 13260, Note_on_c, 0, 72, 96
2, 13260, Note_on_c, 0, 91, 96
2, 13320, Note_on_c, 0, 74, 96
2, 13329, Note_on_c, 0, 72, 0
2, 13379, Note_on_c, 0, 74, 0
2, 13380, Note_on_c, 0, 74, 80
2, 13380, Note_on_c, 0, 89, 80
2, 13389, Note_on_c, 0, 91, 0
2, 13425, Note_on_c, 0, 77, 72
2, 13425, Note_on_c, 0, 86, 72
2, 13426, Note_on_c, 0, 89, 0
2, 13426, Note_on_c, 0, 74, 0
2, 13439, Note_on_c, 0, 77, 0
2, 13439, Note_on_c, 0, 86, 0
2, 13440, Note_on_c, 0, 75, 48
2, 13440, Note_on_c, 0, 84, 48
2, 13499, Note_on_c, 0, 84, 0
2, 13499, Note_on_c, 0, 75, 0
2, 14400, Note_on_c, 0, 86, 96
2, 14400, Note_on_c, 0, 84, 96
2, 14519, Note_on_c, 0, 84, 0
2, 14519, Note_on_c, 0, 86, 0
2, 14520, Note_on_c, 0, 84, 96
2, 14520, Note_on_c, 0, 86, 96
2, 14624, Note_on_c, 0, 86, 0
2, 14624, Note_on_c, 0, 84, 0
2, 14625, Note_on_c, 0, 86, 96
2, 14625, Note_on_c, 0, 84, 96
2, 14639, Note_on_c, 0, 84, 0
2, 14639, Note_on_c, 0, 86, 0
2, 14640, Note_on_c, 0, 84, 112
2, 14640, Note_on_c, 0, 87, 112
2, 14820, Note_on_c, 0, 86, 64
2, 14820, Note_on_c, 0, 75, 64
2, 14829, Note_on_c, 0, 87, 0
2, 14829, Note_on_c, 0, 84, 0
2, 14850, Note_on_c, 0, 84, 56
2, 14854, Note_on_c, 0, 86, 0
2, 14879, Note_on_c, 0, 84, 0
2, 14879, Note_on_c, 0, 75, 0
2, 14880, Note_on_c, 0, 75, 48
2, 14880, Note_on_c, 0, 84, 48
2, 15000, Note_on_c, 0, 83, 48
2, 15000, Note_on_c, 0, 77, 48
2, 15009, Note_on_c, 0, 84, 0
2, 15009, Note_on_c, 0, 75, 0
2, 15119, Note_on_c, 0, 83, 0
2, 15119, Note_on_c, 0, 77, 0
2, 15120, Note_on_c, 0, 75, 48
2, 15120, Note_on_c, 0, 84, 48
2, 15179, Note_on_c, 0, 84, 0
2, 15179, Note_on_c, 0, 75, 0
2, 15360, Note_on_c, 0, 87, 48
2, 15360, Note_on_c, 0, 84, 48
2, 15480, Note_on_c, 0, 83, 48
2, 15480, Note_on_c, 0, 86, 48
2, 15489, Note_on_c, 0, 84, 0
2, 15489, Note_on_c, 0, 87, 0
2, 15585, Note_on_c, 0, 84, 48
2, 15586, Note_on_c, 0, 83, 0
2, 15586, Note_on_c, 0, 86, 0
2, 15599, Note_on_c, 0, 84, 0
2, 15600, Note_on_c, 0, 84, 48
2, 15659, Note_on_c, 0, 84, 0
2, 15780, Note_on_c, 0, 75, 96
2, 15780, Note_on_c, 0, 87, 96
2, 15840, Note_on_c, 0, 84, 64
2, 15840, Note_on_c, 0, 72, 64
2, 15849, Note_on_c, 0, 87, 0
2, 15849, Note_on_c, 0, 75, 0
2, 15899, Note_on_c, 0, 84, 0
2, 15899, Note_on_c, 0, 72, 0
2, 15900, Note_on_c, 0, 80, 96
2, 15944, Note_on_c, 0, 80, 0
2, 15945, Note_on_c, 0, 77, 96
2, 15959, Note_on_c, 0, 77, 0
2, 15960, Note_on_c, 0, 74, 96
2, 15989, Note_on_c, 0, 74, 0
2, 16020, Note_on_c, 0, 79, 96
2, 16049, Note_on_c, 0, 79, 0
2, 16080, Note_on_c, 0, 72, 48
2, 16109, Note_on_c, 0, 72, 0
2, 16200, Note_on_c, 0, 72, 48
2, 16200, Note_on_c, 0, 75, 48
2, 16229, Note_on_c, 0, 75, 0
2, 16229, Note_on_c, 0, 72, 0
2, 16320, Note_on_c, 0, 72, 48
2, 16349, Note_on_c, 0, 72, 0
2, 17040, Note_on_c, 0, 81, 48
2, 17160, Note_on_c, 0, 86, 48
2, 17169, Note_on_c, 0, 81, 0
2, 17280, Note_on_c, 0, 89, 48
2, 17289, Note_on_c, 0, 86, 0
2, 17420, Note_on_c, 0, 88, 48
2, 17421, Note_on_c, 0, 89, 0
2, 17429, Note_on_c, 0, 88, 0
2, 17440, Note_on_c, 0, 86, 48
2, 17449, Note_on_c, 0, 86, 0
2, 17460, Note_on_c, 0, 84, 48
2, 17469, Note_on_c, 0, 84, 0
2, 17480, Note_on_c, 0, 83, 48
2, 17489, Note_on_c, 0, 83, 0
2, 17500, Note_on_c, 0, 81, 48
2, 17509, Note_on_c, 0, 81, 0
2, 17520, Note_on_c, 0, 81, 48
2, 17550, Note_on_c, 0, 79, 48
2, 17559, Note_on_c, 0, 81, 0
2, 17639, Note_on_c, 0, 79, 0
2, 18150, Note_on_c, 0, 83, 113
2, 18180, Note_on_c, 0, 84, 118
2, 18189, Note_on_c, 0, 83, 0
2, 18210, Note_on_c, 0, 78, 123
2, 18219, Note_on_c, 0, 84, 0
2, 18239, Note_on_c, 0, 78, 0
2, 18240, Note_on_c, 0, 79, 127
2, 18419, Note_on_c, 0, 79, 0
2, 18420, Note_on_c, 0, 86, 127
2, 18420, Note_on_c, 0, 83, 127
2, 18449, Note_on_c, 0, 83, 0
2, 18449, Note_on_c, 0, 86, 0
2, 18480, Note_on_c, 0, 91, 127
2, 18480, Note_on_c, 0, 79, 127
2, 18659, Note_on_c, 0, 79, 0
2, 18659, Note_on_c, 0, 91, 0
2, 18660, Note_on_c, 0, 86, 127
2, 18660, Note_on_c, 0, 83, 127
2, 18689, Note_on_c, 0, 83, 0
2, 18689, Note_on_c, 0, 86, 0
2, 18720, Note_on_c, 0, 79, 127
2, 18720, Note_on_c, 0, 91, 127
2, 18749, Note_on_c, 0, 91, 0
2, 18749, Note_on_c, 0, 79, 0
2, 18780, Note_on_c, 0, 86, 127
2, 18780, Note_on_c, 0, 83, 127
2, 18809, Note_on_c, 0, 83, 0
2, 18809, Note_on_c, 0, 86, 0
2, 18840, Note_on_c, 0, 91, 127
2, 18840, Note_on_c, 0, 79, 127
2, 18869, Note_on_c, 0, 79, 0
2, 18869, Note_on_c, 0, 91, 0
2, 18900, Note_on_c, 0, 83, 127
2, 18900, Note_on_c, 0, 86, 127
2, 18929, Note_on_c, 0, 86, 0
2, 18929, Note_on_c, 0, 83, 0
2, 18960, Note_on_c, 0, 91, 127
2, 18960, Note_on_c, 0, 79, 127
2, 18989, Note_on_c, 0, 79, 0
2, 18989, Note_on_c, 0, 91, 0
2, 19440, Note_on_c, 0, 84, 48
2, 19440, Note_on_c, 0, 82, 48
2, 19680, Note_on_c, 0, 81, 48
2, 19680, Note_on_c, 0, 84, 48
2, 19689, Note_on_c, 0, 84, 0
2, 19689, Note_on_c, 0, 82, 0
2, 19697, Note_on_c, 0, 84, 0
2, 19700, Note_on_c, 0, 84, 51
2, 19717, Note_on_c, 0, 84, 0
2, 19720, Note_on_c, 0, 84, 54
2, 19737, Note_on_c, 0, 84, 0
2, 19739, Note_on_c, 0, 81, 0
2, 19740, Note_on_c, 0, 84, 56
2, 19757, Note_on_c, 0, 84, 0
2, 19760, Note_on_c, 0, 84, 59
2, 19777, Note_on_c, 0, 84, 0
2, 19780, Note_on_c, 0, 84, 62
2, 19797, Note_on_c, 0, 84, 0
2, 19820, Note_on_c, 0, 84, 67
2, 19837, Note_on_c, 0, 84, 0
2, 19840, Note_on_c, 0, 84, 70
2, 19857, Note_on_c, 0, 84, 0
2, 19860, Note_on_c, 0, 84, 72
2, 19877, Note_on_c, 0, 84, 0
2, 19880, Note_on_c, 0, 84, 75
2, 19897, Note_on_c, 0, 84, 0
2, 19900, Note_on_c, 0, 84, 78
2, 19917, Note_on_c, 0, 84, 0
2, 19940, Note_on_c, 0, 84, 83
2, 19957, Note_on_c, 0, 84, 0
2, 19960, Note_on_c, 0, 84, 86
2, 19977, Note_on_c, 0, 84, 0
2, 19980, Note_on_c, 0, 84, 88
2, 19997, Note_on_c, 0, 84, 0
2, 20000, Note_on_c, 0, 84, 91
2, 20017, Note_on_c, 0, 84, 0
2, 20020, Note_on_c, 0, 84, 94
2, 20037, Note_on_c, 0, 84, 0
2, 20060, Note_on_c, 0, 84, 99
2, 20077, Note_on_c, 0, 84, 0
2, 20080, Note_on_c, 0, 84, 102
2, 20097, Note_on_c, 0, 84, 0
2, 20100, Note_on_c, 0, 84, 104
2, 20117, Note_on_c, 0, 84, 0
2, 20120, Note_on_c, 0, 84, 107
2, 20137, Note_on_c, 0, 84, 0
2, 20140, Note_on_c, 0, 84, 110
2, 20157, Note_on_c, 0, 84, 0
2, 20160, Note_on_c, 0, 84, 48
2, 20179, Note_on_c, 0, 84, 0
2, 20180, Note_on_c, 0, 92, 48
2, 20200, Note_on_c, 0, 93, 48
2, 20209, Note_on_c, 0, 92, 0
2, 20219, Note_on_c, 0, 93, 0
2, 20240, Note_on_c, 0, 93, 48
2, 20260, Note_on_c, 0, 91, 48
2, 20269, Note_on_c, 0, 93, 0
2, 20279, Note_on_c, 0, 91, 0
2, 20300, Note_on_c, 0, 91, 48
2, 20320, Note_on_c, 0, 89, 48
2, 20329, Note_on_c, 0, 91, 0
2, 20339, Note_on_c, 0, 89, 0
2, 20360, Note_on_c, 0, 89, 48
2, 20380, Note_on_c, 0, 88, 48
2, 20389, Note_on_c, 0, 89, 0
2, 20399, Note_on_c, 0, 88, 0
2, 20420, Note_on_c, 0, 88, 48
2, 20440, Note_on_c, 0, 86, 48
2, 20449, Note_on_c, 0, 88, 0
2, 20459, Note_on_c, 0, 86, 0
2, 20480, Note_on_c, 0, 86, 48
2, 20500, Note_on_c, 0, 85, 48
2, 20509, Note_on_c, 0, 86, 0
2, 20519, Note_on_c, 0, 85, 0
2, 20540, Note_on_c, 0, 85, 48
2, 20560, Note_on_c, 0, 86, 48
2, 20569, Note_on_c, 0, 85, 0
2, 20579, Note_on_c, 0, 86, 0
2, 20600, Note_on_c, 0, 86, 48
2, 20620, Note_on_c, 0, 84, 48
2, 20629, Note_on_c, 0, 86, 0
2, 20639, Note_on_c, 0, 84, 0
2, 20640, Note_on_c, 0, 83, 48
2, 20699, Note_on_c, 0, 83, 0
2, 20760, Note_on_c, 0, 72, 48
2, 20769, Note_on_c, 0, 72, 0
2, 20780, Note_on_c, 0, 76, 48
2, 20789, Note_on_c, 0, 76, 0
2, 20800, Note_on_c, 0, 79, 48
2, 20809, Note_on_c, 0, 79, 0
2, 20820, Note_on_c, 0, 84, 48
2, 20829, Note_on_c, 0, 84, 0
2, 20840, Note_on_c, 0, 88, 48
2, 20849, Note_on_c, 0, 88, 0
2, 20860, Note_on_c, 0, 84, 48
2, 20869, Note_on_c, 0, 84, 0
2, 20880, Note_on_c, 0, 91, 48
2, 20939, Note_on_c, 0, 91, 0
2, 21000, Note_on_c, 0, 72, 48
2, 21009, Note_on_c, 0, 72, 0
2, 21020, Note_on_c, 0, 76, 48
2, 21029, Note_on_c, 0, 76, 0
2, 21040, Note_on_c, 0, 79, 48
2, 21049, Note_on_c, 0, 79, 0
2, 21060, Note_on_c, 0, 84, 48
2, 21069, Note_on_c, 0, 84, 0
2, 21080, Note_on_c, 0, 88, 48
2, 21089, Note_on_c, 0, 88, 0
2, 21100, Note_on_c, 0, 84, 48
2, 21109, Note_on_c, 0, 84, 0
2, 21120, Note_on_c, 0, 91, 48
2, 21129, Note_on_c, 0, 91, 0
2, 21140, Note_on_c, 0, 90, 48
2, 21149, Note_on_c, 0, 90, 0
2, 21160, Note_on_c, 0, 91, 48
2, 21169, Note_on_c, 0, 91, 0
2, 21180, Note_on_c, 0, 86, 48
2, 21189, Note_on_c, 0, 86, 0
2, 21200, Note_on_c, 0, 85, 48
2, 21209, Note_on_c, 0, 85, 0
2, 21220, Note_on_c, 0, 86, 48
2, 21229, Note_on_c, 0, 86, 0
2, 21240, Note_on_c, 0, 83, 48
2, 21249, Note_on_c, 0, 83, 0
2, 21260, Note_on_c, 0, 82, 48
2, 21269, Note_on_c, 0, 82, 0
2, 21280, Note_on_c, 0, 83, 48
2, 21289, Note_on_c, 0, 83, 0
2, 21300, Note_on_c, 0, 79, 48
2, 21309, Note_on_c, 0, 79, 0
2, 21320, Note_on_c, 0, 78, 48
2, 21329, Note_on_c, 0, 78, 0
2, 21340, Note_on_c, 0, 79, 48
2, 21349, Note_on_c, 0, 79, 0
2, 21360, Note_on_c, 0, 77, 48
2, 21419, Note_on_c, 0, 77, 0
2, 21860, Note_on_c, 0, 72, 48
2, 21869, Note_on_c, 0, 72, 0
2, 21880, Note_on_c, 0, 76, 48
2, 21889, Note_on_c, 0, 76, 0
2, 21900, Note_on_c, 0, 79, 48
2, 21909, Note_on_c, 0, 79, 0
2, 21920, Note_on_c, 0, 84, 48
2, 21929, Note_on_c, 0, 84, 0
2, 21940, Note_on_c, 0, 88, 48
2, 21949, Note_on_c, 0, 88, 0
2, 21960, Note_on_c, 0, 91, 48
2, 21969, Note_on_c, 0, 91, 0
2, 21980, Note_on_c, 0, 88, 48
2, 21989, Note_on_c, 0, 88, 0
2, 22000, Note_on_c, 0, 84, 48
2, 22009, Note_on_c, 0, 84, 0
2, 22020, Note_on_c, 0, 79, 48
2, 22029, Note_on_c, 0, 79, 0
2, 22040, Note_on_c, 0, 76, 48
2, 22049, Note_on_c, 0, 76, 0
2, 22060, Note_on_c, 0, 72, 48
2, 22069, Note_on_c, 0, 72, 0
2, 22080, Note_on_c, 0, 77, 48
2, 22139, Note_on_c, 0, 77, 0
2, 22320, Note_on_c, 0, 69, 59
2, 22329, Note_on_c, 0, 69, 0
2, 22340, Note_on_c, 0, 72, 60
2, 22349, Note_on_c, 0, 72, 0
2, 22360, Note_on_c, 0, 77, 60
2, 22369, Note_on_c, 0, 77, 0
2, 22380, Note_on_c, 0, 81, 61
2, 22389, Note_on_c, 0, 81, 0
2, 22400, Note_on_c, 0, 84, 62
2, 22409, Note_on_c, 0, 84, 0
2, 22420, Note_on_c, 0, 89, 63
2, 22429, Note_on_c, 0, 89, 0
2, 22440, Note_on_c, 0, 93, 64
2, 22499, Note_on_c, 0, 93, 0
2, 22580, Note_on_c, 0, 76, 71
2, 22589, Note_on_c, 0, 76, 0
2, 22600, Note_on_c, 0, 79, 72
2, 22609, Note_on_c, 0, 79, 0
2, 22620, Note_on_c, 0, 84, 72
2, 22629, Note_on_c, 0, 84, 0
2, 22640, Note_on_c, 0, 88, 73
2, 22649, Note_on_c, 0, 88, 0
2, 22660, Note_on_c, 0, 91, 74
2, 22669, Note_on_c, 0, 91, 0
2, 22700, Note_on_c, 0, 74, 76
2, 22709, Note_on_c, 0, 74, 0
2, 22720, Note_on_c, 0, 79, 76
2, 22729, Note_on_c, 0, 79, 0
2, 22740, Note_on_c, 0, 83, 77
2, 22749, Note_on_c, 0, 83, 0
2, 22760, Note_on_c, 0, 86, 78
2, 22769, Note_on_c, 0, 86, 0
2, 22780, Note_on_c, 0, 91, 79
2, 22789, Note_on_c, 0, 91, 0
2, 22820, Note_on_c, 0, 79, 80
2, 22829, Note_on_c, 0, 79, 0
2, 22840, Note_on_c, 0, 84, 81
2, 22849, Note_on_c, 0, 84, 0
2, 22860, Note_on_c, 0, 88, 82
2, 22869, Note_on_c, 0, 88, 0
2, 22880, Note_on_c, 0, 91, 83
2, 22889, Note_on_c, 0, 91, 0
2, 22900, Note_on_c, 0, 92, 84
2, 22909, Note_on_c, 0, 92, 0
2, 22920, Note_on_c, 0, 93, 84
2, 22950, Note_on_c, 0, 89, 87
2, 22959, Note_on_c, 0, 93, 0
2, 22980, Note_on_c, 0, 88, 90
2, 22989, Note_on_c, 0, 89, 0
2, 23010, Note_on_c, 0, 86, 93
2, 23019, Note_on_c, 0, 88, 0
2, 23039, Note_on_c, 0, 86, 0
2, 23040, Note_on_c, 0, 84, 96
2, 23099, Note_on_c, 0, 84, 0
2, 23100, Note_on_c, 0, 88, 112
2, 23100, Note_on_c, 0, 84, 112
2, 23219, Note_on_c, 0, 88, 0
2, 23220, Note_on_c, 0, 91, 112
2, 23220, Note_on_c, 0, 88, 112
2, 23229, Note_on_c, 0, 84, 0
2, 23279, Note_on_c, 0, 88, 0
2, 23279, Note_on_c, 0, 91, 0
2, 23280, Note_on_c, 0, 91, 112
2, 23280, Note_on_c, 0, 83, 112
2, 23459, Note_on_c, 0, 83, 0
2, 23459, Note_on_c, 0, 91, 0
2, 23460, Note_on_c, 0, 83, 112
2, 23460, Note_on_c, 0, 89, 112
2, 23505, Note_on_c, 0, 77, 112
2, 23505, Note_on_c, 0, 86, 112
2, 23509, Note_on_c, 0, 89, 0
2, 23509, Note_on_c, 0, 83, 0
2, 23519, Note_on_c, 0, 77, 0
2, 23519, Note_on_c, 0, 86, 0
2, 23520, Note_on_c, 0, 84, 127
2, 23520, Note_on_c, 0, 76, 127
2, 23699, Note_on_c, 0, 76, 0
2, 23699, Note_on_c, 0, 84, 0
2, 23700, Note_on_c, 0, 79, 127
2, 23700, Note_on_c, 0, 88, 127
2, 23729, Note_on_c, 0, 88, 0
2, 23729, Note_on_c, 0, 79, 0
2, 23760, Note_on_c, 0, 84, 127
2, 23760, Note_on_c, 0, 76, 127
2, 23939, Note_on_c, 0, 76, 0
2, 23939, Note_on_c, 0, 84, 0
2, 23940, Note_on_c, 0, 79, 127
2, 23940, Note_on_c, 0, 88, 127
2, 23969, Note_on_c, 0, 88, 0
2, 23969, Note_on_c, 0, 79, 0
2, 24000, Note_on_c, 0, 84, 127
2, 24000, Note_on_c, 0, 76, 127
2, 24029, Note_on_c, 0, 76, 0
2, 24029, Note_on_c, 0, 84, 0
2, 24060, Note_on_c, 0, 88, 127
2, 24060, Note_on_c, 0, 79, 127
2, 24089, Note_on_c, 0, 79, 0
2, 24089, Note_on_c, 0, 88, 0
2, 24120, Note_on_c, 0, 84, 127
2, 24120, Note_on_c, 0, 76, 127
2, 24149, Note_on_c, 0, 76, 0
2, 24149, Note_on_c, 0, 84, 0
2, 24180, Note_on_c, 0, 79, 127
2, 24180, Note_on_c, 0, 88, 127
2, 24209, Note_on_c, 0, 88, 0
2, 24209, Note_on_c, 0, 79, 0
2, 24240, Note_on_c, 0, 84, 127
2, 24240, Note_on_c, 0, 76, 127
2, 24299, Note_on_c, 0, 76, 0
2, 24299, Note_on_c, 0, 84, 0
2, 28080, Note_on_c, 0, 84, 96
2, 28319, Note_on_c, 0, 84, 0
2, 28320, Note_on_c, 0, 80, 96
2, 28559, Note_on_c, 0, 80, 0
2, 28560, Note_on_c, 0, 83, 112
2, 28739, Note_on_c, 0, 83, 0
2, 28740, Note_on_c, 0, 83, 96
2, 28749, Note_on_c, 0, 83, 0
2, 28750, Note_on_c, 0, 84, 96
2, 28759, Note_on_c, 0, 84, 0
2, 28760, Note_on_c, 0, 83, 96
2, 28769, Note_on_c, 0, 83, 0
2, 28770, Note_on_c, 0, 84, 96
2, 28777, Note_on_c, 0, 84, 0
2, 28778, Note_on_c, 0, 83, 96
2, 28785, Note_on_c, 0, 83, 0
2, 28786, Note_on_c, 0, 81, 96
2, 28792, Note_on_c, 0, 83, 96
2, 28793, Note_on_c, 0, 81, 0
2, 28799, Note_on_c, 0, 83, 0
2, 28800, Note_on_c, 0, 84, 96
2, 28979, Note_on_c, 0, 84, 0
2, 28980, Note_on_c, 0, 84, 96
2, 29039, Note_on_c, 0, 84, 0
2, 29040, Note_on_c, 0, 84, 96
2, 29099, Note_on_c, 0, 84, 0
2, 29580, Note_on_c, 0, 79, 96
2, 29640, Note_on_c, 0, 80, 96
2, 29649, Note_on_c, 0, 79, 0
2, 29700, Note_on_c, 0, 84, 96
2, 29709, Note_on_c, 0, 80, 0
2, 29819, Note_on_c, 0, 84, 0
2, 31200, Note_on_c, 0, 77, 127
2, 31320, Note_on_c, 0, 79, 127
2, 31329, Note_on_c, 0, 77, 0
2, 31380, Note_on_c, 0, 80, 127
2, 31389, Note_on_c, 0, 79, 0
2, 31439, Note_on_c, 0, 80, 0
2, 31440, Note_on_c, 0, 82, 127
2, 31619, Note_on_c, 0, 82, 0
2, 31620, Note_on_c, 0, 80, 127
2, 31679, Note_on_c, 0, 80, 0
2, 31680, Note_on_c, 0, 79, 127
2, 31740, Note_on_c, 0, 85, 127
2, 31749, Note_on_c, 0, 79, 0
2, 31800, Note_on_c, 0, 84, 127
2, 31809, Note_on_c, 0, 85, 0
2, 31860, Note_on_c, 0, 82, 127
2, 31869, Note_on_c, 0, 84, 0
2, 31919, Note_on_c, 0, 82, 0
2, 31920, Note_on_c, 0, 80, 127
2, 32219, Note_on_c, 0, 80, 0
2, 32220, Note_on_c, 0, 86, 127
2, 32220, Note_on_c, 0, 74, 127
2, 32280, Note_on_c, 0, 87, 127
2, 32280, Note_on_c, 0, 75, 127
2, 32289, Note_on_c, 0, 74, 0
2, 32289, Note_on_c, 0, 86, 0
2, 32340, Note_on_c, 0, 77, 127
2, 32340, Note_on_c, 0, 89, 127
2, 32349, Note_on_c, 0, 87, 0
2, 32349, Note_on_c, 0, 75, 0
2, 32399, Note_on_c, 0, 77, 0
2, 32399, Note_on_c, 0, 89, 0
2, 32400, Note_on_c, 0, 91, 127
2, 32400, Note_on_c, 0, 79, 127
2, 32459, Note_on_c, 0, 79, 0
2, 32459, Note_on_c, 0, 91, 0
2, 33870, Note_on_c, 0, 80, 127
2, 33870, Note_on_c, 0, 77, 127
2, 33884, Note_on_c, 0, 77, 0
2, 33884, Note_on_c, 0, 80, 0
2, 33900, Note_on_c, 0, 82, 127
2, 33900, Note_on_c, 0, 79, 127
2, 33914, Note_on_c, 0, 79, 0
2, 33914, Note_on_c, 0, 82, 0
2, 33930, Note_on_c, 0, 84, 127
2, 33930, Note_on_c, 0, 80, 127
2, 33944, Note_on_c, 0, 80, 0
2, 33944, Note_on_c, 0, 84, 0
2, 33960, Note_on_c, 0, 86, 127
2, 33960, Note_on_c, 0, 82, 127
2, 33974, Note_on_c, 0, 82, 0
2, 33974, Note_on_c, 0, 86, 0
2, 33990, Note_on_c, 0, 87, 127
2, 33990, Note_on_c, 0, 84, 127
2, 34004, Note_on_c, 0, 84, 0
2, 34004, Note_on_c, 0, 87, 0
2, 34020, Note_on_c, 0, 89, 127
2, 34020, Note_on_c, 0, 86, 127
2, 34034, Note_on_c, 0, 86, 0
2, 34034, Note_on_c, 0, 89, 0
2, 34050, Note_on_c, 0, 87, 127
2, 34050, Note_on_c, 0, 91, 127
2, 34064, Note_on_c, 0, 91, 0
2, 34064, Note_on_c, 0, 87, 0
2, 34080, Note_on_c, 0, 89, 127
2, 34080, Note_on_c, 0, 92, 127
2, 34109, Note_on_c, 0, 92, 0
2, 34109, Note_on_c, 0, 89, 0
2, 34350, Note_on_c, 0, 83, 127
2, 34364, Note_on_c, 0, 83, 0
2, 34380, Note_on_c, 0, 81, 127
2, 34394, Note_on_c, 0, 81, 0
2, 34410, Note_on_c, 0, 79, 127
2, 34410, Note_on_c, 0, 83, 127
2, 34424, Note_on_c, 0, 83, 0
2, 34424, Note_on_c, 0, 79, 0
2, 34440, Note_on_c, 0, 81, 127
2, 34440, Note_on_c, 0, 84, 127
2, 34454, Note_on_c, 0, 84, 0
2, 34454, Note_on_c, 0, 81, 0
2, 34470, Note_on_c, 0, 83, 127
2, 34470, Note_on_c, 0, 86, 127
2, 34484, Note_on_c, 0, 86, 0
2, 34484, Note_on_c, 0, 83, 0
2, 34500, Note_on_c, 0, 84, 127
2, 34500, Note_on_c, 0, 87, 127
2, 34514, Note_on_c, 0, 87, 0
2, 34514, Note_on_c, 0, 84, 0
2, 34530, Note_on_c, 0, 86, 127
2, 34530, Note_on_c, 0, 89, 127
2, 34544, Note_on_c, 0, 89, 0
2, 34544, Note_on_c, 0, 86, 0
2, 34560, Note_on_c, 0, 87, 127
2, 34560, Note_on_c, 0, 91, 127
2, 34619, Note_on_c, 0, 91, 0
2, 34619, Note_on_c, 0, 87, 0
2, 34620, Note_on_c, 0, 79, 127
2, 34620, Note_on_c, 0, 91, 127
2, 34739, Note_on_c, 0, 91, 0
2, 34739, Note_on_c, 0, 79, 0
2, 34740, Note_on_c, 0, 91, 127
2, 34740, Note_on_c, 0, 79, 127
2, 34770, Note_on_c, 0, 73, 127
2, 34770, Note_on_c, 0, 85, 127
2, 34779, Note_on_c, 0, 79, 0
2, 34779, Note_on_c, 0, 91, 0
2, 34799, Note_on_c, 0, 73, 0
2, 34799, Note_on_c, 0, 85, 0
2, 34800, Note_on_c, 0, 86, 127
2, 34800, Note_on_c, 0, 74, 127
2, 34859, Note_on_c, 0, 74, 0
2, 34859, Note_on_c, 0, 86, 0
2, 34920, Note_on_c, 0, 86, 127
2, 35040, Note_on_c, 0, 87, 127
2, 35159, Note_on_c, 0, 86, 0
2, 35160, Note_on_c, 0, 84, 127
2, 35279, Note_on_c, 0, 87, 0
2, 35280, Note_on_c, 0, 86, 127
2, 35399, Note_on_c, 0, 84, 0
2, 35400, Note_on_c, 0, 82, 127
2, 35519, Note_on_c, 0, 86, 0
2, 35520, Note_on_c, 0, 84, 127
2, 35639, Note_on_c, 0, 82, 0
2, 35640, Note_on_c, 0, 81, 127
2, 35819, Note_on_c, 0, 81, 0
2, 35819, Note_on_c, 0, 84, 0
2, 35820, Note_on_c, 0, 82, 127
2, 35820, Note_on_c, 0, 79, 127
2, 35879, Note_on_c, 0, 79, 0
2, 35879, Note_on_c, 0, 82, 0
2, 35880, Note_on_c, 0, 79, 127
2, 35880, Note_on_c, 0, 82, 127
2, 35939, Note_on_c, 0, 82, 0
2, 35940, Note_on_c, 0, 82, 127
2, 35940, Note_on_c, 0, 91, 127
2, 35949, Note_on_c, 0, 79, 0
2, 35999, Note_on_c, 0, 91, 0
2, 35999, Note_on_c, 0, 82, 0
2, 36000, Note_on_c, 0, 91, 127
2, 36000, Note_on_c, 0, 82, 127
2, 36000, Note_on_c, 0, 79, 120
2, 36000, Note_on_c, 0, 70, 127
2, 36029, Note_on_c, 0, 70, 0
2, 36029, Note_on_c, 0, 91, 0
2, 36029, Note_on_c, 0, 82, 0
2, 36029, Note_on_c, 0, 79, 0
2, 36840, Note_on_c, 0, 78, 48
2, 36840, Note_on_c, 0, 74, 48
2, 36959, Note_on_c, 0, 74, 0
2, 36960, Note_on_c, 0, 74, 48
2, 36960, Note_on_c, 0, 79, 48
2, 36962, Note_on_c, 0, 78, 0
2, 37019, Note_on_c, 0, 79, 0
2, 37019, Note_on_c, 0, 74, 0
2, 39840, Note_on_c, 0, 86, 127
2, 39840, Note_on_c, 0, 83, 127
2, 40199, Note_on_c, 0, 83, 0
2, 40199, Note_on_c, 0, 86, 0
2, 40200, Note_on_c, 0, 74, 127
2, 40210, Note_on_c, 0, 74, 0
2, 40220, Note_on_c, 0, 77, 127
2, 40230, Note_on_c, 0, 77, 0
2, 40240, Note_on_c, 0, 80, 127
2, 40250, Note_on_c, 0, 80, 0
2, 40260, Note_on_c, 0, 71, 127
2, 40260, Note_on_c, 0, 83, 127
2, 40270, Note_on_c, 0, 83, 0
2, 40270, Note_on_c, 0, 71, 0
2, 40280, Note_on_c, 0, 74, 127
2, 40280, Note_on_c, 0, 86, 127
2, 40281, Note_on_c, 0, 74, 127
2, 40287, Note_on_c, 0, 74, 0
2, 40290, Note_on_c, 0, 86, 0
2, 40290, Note_on_c, 0, 74, 0
2, 40300, Note_on_c, 0, 77, 127
2, 40300, Note_on_c, 0, 89, 127
2, 40310, Note_on_c, 0, 89, 0
2, 40310, Note_on_c, 0, 77, 0
2, 40320, Note_on_c, 0, 92, 126
2, 40320, Note_on_c, 0, 80, 126
2, 40339, Note_on_c, 0, 92, 0
2, 40340, Note_on_c, 0, 92, 113
2, 40359, Note_on_c, 0, 92, 0
2, 40360, Note_on_c, 0, 92, 100
2, 40379, Note_on_c, 0, 92, 0
2, 40379, Note_on_c, 0, 80, 0
2, 40380, Note_on_c, 0, 92, 87
2, 40399, Note_on_c, 0, 92, 0
2, 40400, Note_on_c, 0, 92, 74
2, 40419, Note_on_c, 0, 92, 0
2, 40420, Note_on_c, 0, 92, 61
2, 40439, Note_on_c, 0, 92, 0
2, 40440, Note_on_c, 0, 92, 48
2, 40459, Note_on_c, 0, 92, 0
2, 40460, Note_on_c, 0, 92, 48
2, 40479, Note_on_c, 0, 92, 0
2, 40480, Note_on_c, 0, 92, 48
2, 40499, Note_on_c, 0, 92, 0
2, 40500, Note_on_c, 0, 91, 48
2, 40519, Note_on_c, 0, 91, 0
2, 40520, Note_on_c, 0, 91, 48
2, 40539, Note_on_c, 0, 91, 0
2, 40540, Note_on_c, 0, 91, 48
2, 40559, Note_on_c, 0, 91, 0
2, 40580, Note_on_c, 0, 90, 48
2, 40599, Note_on_c, 0, 90, 0
2, 40600, Note_on_c, 0, 90, 48
2, 40619, Note_on_c, 0, 90, 0
2, 40640, Note_on_c, 0, 91, 48
2, 40659, Note_on_c, 0, 91, 0
2, 40660, Note_on_c, 0, 91, 48
2, 40679, Note_on_c, 0, 91, 0
2, 40700, Note_on_c, 0, 92, 48
2, 40719, Note_on_c, 0, 92, 0
2, 40720, Note_on_c, 0, 92, 48
2, 40739, Note_on_c, 0, 92, 0
2, 40760, Note_on_c, 0, 91, 48
2, 40779, Note_on_c, 0, 91, 0
2, 40780, Note_on_c, 0, 91, 48
2, 40799, Note_on_c, 0, 91, 0
2, 40820, Note_on_c, 0, 89, 48
2, 40839, Note_on_c, 0, 89, 0
2, 40840, Note_on_c, 0, 89, 48
2, 40859, Note_on_c, 0, 89, 0
2, 40880, Note_on_c, 0, 87, 48
2, 40899, Note_on_c, 0, 87, 0
2, 40900, Note_on_c, 0, 87, 48
2, 40919, Note_on_c, 0, 87, 0
2, 40940, Note_on_c, 0, 86, 48
2, 40959, Note_on_c, 0, 86, 0
2, 40960, Note_on_c, 0, 86, 48
2, 40979, Note_on_c, 0, 86, 0
2, 41000, Note_on_c, 0, 84, 48
2, 41019, Note_on_c, 0, 84, 0
2, 41020, Note_on_c, 0, 84, 48
2, 41039, Note_on_c, 0, 84, 0
2, 41060, Note_on_c, 0, 83, 48
2, 41079, Note_on_c, 0, 83, 0
2, 41080, Note_on_c, 0, 83, 48
2, 41099, Note_on_c, 0, 83, 0
2, 41120, Note_on_c, 0, 80, 48
2, 41139, Note_on_c, 0, 80, 0
2, 41140, Note_on_c, 0, 80, 48
2, 41159, Note_on_c, 0, 80, 0
2, 41180, Note_on_c, 0, 79, 48
2, 41199, Note_on_c, 0, 79, 0
2, 41200, Note_on_c, 0, 79, 48
2, 41219, Note_on_c, 0, 79, 0
2, 41240, Note_on_c, 0, 83, 48
2, 41259, Note_on_c, 0, 83, 0
2, 41260, Note_on_c, 0, 83, 48
2, 41279, Note_on_c, 0, 83, 0
2, 41300, Note_on_c, 0, 79, 48
2, 41319, Note_on_c, 0, 79, 0
2, 41320, Note_on_c, 0, 79, 48
2, 41339, Note_on_c, 0, 79, 0
2, 41360, Note_on_c, 0, 86, 48
2, 41379, Note_on_c, 0, 86, 0
2, 41380, Note_on_c, 0, 86, 48
2, 41399, Note_on_c, 0, 86, 0
2, 41420, Note_on_c, 0, 79, 48
2, 41439, Note_on_c, 0, 79, 0
2, 41440, Note_on_c, 0, 79, 48
2, 41459, Note_on_c, 0, 79, 0
2, 41480, Note_on_c, 0, 91, 48
2, 41499, Note_on_c, 0, 91, 0
2, 41500, Note_on_c, 0, 91, 48
2, 41519, Note_on_c, 0, 91, 0
2, 41540, Note_on_c, 0, 79, 48
2, 41559, Note_on_c, 0, 79, 0
2, 41560, Note_on_c, 0, 79, 48
2, 41579, Note_on_c, 0, 79, 0
2, 41600, Note_on_c, 0, 80, 48
2, 41619, Note_on_c, 0, 80, 0
2, 41620, Note_on_c, 0, 80, 48
2, 41639, Note_on_c, 0, 80, 0
2, 41660, Note_on_c, 0, 79, 48
2, 41679, Note_on_c, 0, 79, 0
2, 41680, Note_on_c, 0, 79, 48
2, 41699, Note_on_c, 0, 79, 0
2, 41720, Note_on_c, 0, 84, 48
2, 41739, Note_on_c, 0, 84, 0
2, 41740, Note_on_c, 0, 84, 48
2, 41759, Note_on_c, 0, 84, 0
2, 41780, Note_on_c, 0, 79, 48
2, 41799, Note_on_c, 0, 79, 0
2, 41800, Note_on_c, 0, 79, 48
2, 41819, Note_on_c, 0, 79, 0
2, 41840, Note_on_c, 0, 87, 48
2, 41859, Note_on_c, 0, 87, 0
2, 41860, Note_on_c, 0, 87, 48
2, 41879, Note_on_c, 0, 87, 0
2, 41900, Note_on_c, 0, 79, 48
2, 41919, Note_on_c, 0, 79, 0
2, 41920, Note_on_c, 0, 79, 48
2, 41939, Note_on_c, 0, 79, 0
2, 41960, Note_on_c, 0, 91, 48
2, 41979, Note_on_c, 0, 91, 0
2, 41980, Note_on_c, 0, 91, 48
2, 41999, Note_on_c, 0, 91, 0
2, 42020, Note_on_c, 0, 79, 48
2, 42039, Note_on_c, 0, 79, 0
2, 42040, Note_on_c, 0, 79, 48
2, 42059, Note_on_c, 0, 79, 0
2, 42080, Note_on_c, 0, 80, 48
2, 42099, Note_on_c, 0, 80, 0
2, 42100, Note_on_c, 0, 80, 48
2, 42119, Note_on_c, 0, 80, 0
2, 42140, Note_on_c, 0, 79, 48
2, 42159, Note_on_c, 0, 79, 0
2, 42160, Note_on_c, 0, 79, 48
2, 42179, Note_on_c, 0, 79, 0
2, 42200, Note_on_c, 0, 84, 48
2, 42219, Note_on_c, 0, 84, 0
2, 42220, Note_on_c, 0, 84, 48
2, 42239, Note_on_c, 0, 84, 0
2, 42243, Note_on_c, 0, 78, 96
2, 42260, Note_on_c, 0, 79, 48
2, 42279, Note_on_c, 0, 79, 0
2, 42280, Note_on_c, 0, 79, 48
2, 42299, Note_on_c, 0, 79, 0
2, 42320, Note_on_c, 0, 87, 48
2, 42339, Note_on_c, 0, 87, 0
2, 42340, Note_on_c, 0, 87, 48
2, 42359, Note_on_c, 0, 87, 0
2, 42380, Note_on_c, 0, 79, 48
2, 42399, Note_on_c, 0, 79, 0
2, 42400, Note_on_c, 0, 79, 48
2, 42419, Note_on_c, 0, 79, 0
2, 42420, Note_on_c, 0, 79, 48
2, 42422, Note_on_c, 0, 78, 0
2, 42440, Note_on_c, 0, 91, 48
2, 42459, Note_on_c, 0, 91, 0
2, 42460, Note_on_c, 0, 91, 48
2, 42479, Note_on_c, 0, 91, 0
2, 42479, Note_on_c, 0, 79, 0
2, 42480, Note_on_c, 0, 77, 48
2, 42499, Note_on_c, 0, 77, 0
2, 42500, Note_on_c, 0, 77, 48
2, 42519, Note_on_c, 0, 77, 0
2, 42560, Note_on_c, 0, 86, 48
2, 42579, Note_on_c, 0, 86, 0
2, 42580, Note_on_c, 0, 86, 48
2, 42599, Note_on_c, 0, 86, 0
2, 42620, Note_on_c, 0, 83, 48
2, 42639, Note_on_c, 0, 83, 0
2, 42640, Note_on_c, 0, 83, 48
2, 42659, Note_on_c, 0, 83, 0
2, 42680, Note_on_c, 0, 89, 48
2, 42699, Note_on_c, 0, 89, 0
2, 42700, Note_on_c, 0, 89, 48
2, 42719, Note_on_c, 0, 89, 0
2, 42740, Note_on_c, 0, 86, 49
2, 42759, Note_on_c, 0, 86, 0
2, 42760, Note_on_c, 0, 86, 50
2, 42779, Note_on_c, 0, 86, 0
2, 42800, Note_on_c, 0, 92, 53
2, 42819, Note_on_c, 0, 92, 0
2, 42820, Note_on_c, 0, 92, 54
2, 42839, Note_on_c, 0, 92, 0
2, 42860, Note_on_c, 0, 92, 56
2, 42879, Note_on_c, 0, 92, 0
2, 42880, Note_on_c, 0, 92, 58
2, 42899, Note_on_c, 0, 92, 0
2, 42920, Note_on_c, 0, 92, 60
2, 42939, Note_on_c, 0, 92, 0
2, 42940, Note_on_c, 0, 92, 61
2, 42959, Note_on_c, 0, 92, 0
2, 42980, Note_on_c, 0, 92, 61
2, 42999, Note_on_c, 0, 92, 0
2, 43000, Note_on_c, 0, 92, 60
2, 43019, Note_on_c, 0, 92, 0
2, 43040, Note_on_c, 0, 89, 58
2, 43059, Note_on_c, 0, 89, 0
2, 43060, Note_on_c, 0, 89, 57
2, 43079, Note_on_c, 0, 89, 0
2, 43100, Note_on_c, 0, 87, 54
2, 43119, Note_on_c, 0, 87, 0
2, 43120, Note_on_c, 0, 87, 53
2, 43139, Note_on_c, 0, 87, 0
2, 43160, Note_on_c, 0, 86, 51
2, 43179, Note_on_c, 0, 86, 0
2, 43180, Note_on_c, 0, 86, 50
2, 43199, Note_on_c, 0, 86, 0
2, 43200, Note_on_c, 0, 87, 49
2, 43259, Note_on_c, 0, 87, 0
2, 44520, Note_on_c, 0, 72, 48
2, 44520, Note_on_c, 0, 84, 48
2, 44684, Note_on_c, 0, 72, 0
2, 44686, Note_on_c, 0, 84, 0
2, 44700, Note_on_c, 0, 72, 71
2, 44700, Note_on_c, 0, 84, 71
2, 44759, Note_on_c, 0, 72, 0
2, 44760, Note_on_c, 0, 78, 94
2, 44760, Note_on_c, 0, 87, 94
2, 44762, Note_on_c, 0, 84, 0
2, 44820, Note_on_c, 0, 76, 71
2, 44820, Note_on_c, 0, 84, 71
2, 44822, Note_on_c, 0, 87, 0
2, 44825, Note_on_c, 0, 78, 0
2, 44850, Note_on_c, 0, 72, 60
2, 44852, Note_on_c, 0, 76, 0
2, 44880, Note_on_c, 0, 71, 49
2, 44880, Note_on_c, 0, 83, 49
2, 44882, Note_on_c, 0, 72, 0
2, 44882, Note_on_c, 0, 84, 0
2, 44939, Note_on_c, 0, 71, 0
2, 44944, Note_on_c, 0, 83, 0
2, 45360, Note_on_c, 0, 91, 48
2, 45480, Note_on_c, 0, 79, 50
2, 45480, Note_on_c, 0, 86, 50
2, 45482, Note_on_c, 0, 91, 0
2, 45540, Note_on_c, 0, 89, 57
2, 45542, Note_on_c, 0, 86, 0
2, 45600, Note_on_c, 0, 87, 64
2, 45602, Note_on_c, 0, 89, 0
2, 45720, Note_on_c, 0, 86, 56
2, 45722, Note_on_c, 0, 87, 0
2, 45780, Note_on_c, 0, 84, 52
2, 45780, Note_on_c, 0, 78, 52
2, 45782, Note_on_c, 0, 86, 0
2, 45782, Note_on_c, 0, 79, 0
2, 45839, Note_on_c, 0, 84, 0
2, 45840, Note_on_c, 0, 79, 48
2, 45840, Note_on_c, 0, 83, 48
2, 45842, Note_on_c, 0, 78, 0
2, 45899, Note_on_c, 0, 83, 0
2, 45899, Note_on_c, 0, 79, 0
2, 46590, Note_on_c, 0, 81, 49
2, 46604, Note_on_c, 0, 81, 0
2, 46620, Note_on_c, 0, 82, 51
2, 46634, Note_on_c, 0, 82, 0
2, 46650, Note_on_c, 0, 83, 53
2, 46664, Note_on_c, 0, 83, 0
2, 46680, Note_on_c, 0, 84, 55
2, 46694, Note_on_c, 0, 84, 0
2, 46710, Note_on_c, 0, 85, 57
2, 46724, Note_on_c, 0, 85, 0
2, 46740, Note_on_c, 0, 86, 59
2, 46754, Note_on_c, 0, 86, 0
2, 46770, Note_on_c, 0, 88, 61
2, 46784, Note_on_c, 0, 88, 0
2, 46800, Note_on_c, 0, 89, 47
2, 46859, Note_on_c, 0, 89, 0
2, 47280, Note_on_c, 0, 89, 48
2, 47400, Note_on_c, 0, 87, 71
2, 47403, Note_on_c, 0, 89, 0
2, 47415, Note_on_c, 0, 86, 74
2, 47417, Note_on_c, 0, 87, 0
2, 47459, Note_on_c, 0, 86, 0
2, 47460, Note_on_c, 0, 74, 83
2, 47460, Note_on_c, 0, 84, 83
2, 47475, Note_on_c, 0, 83, 86
2, 47477, Note_on_c, 0, 84, 0
2, 47519, Note_on_c, 0, 74, 0
2, 47520, Note_on_c, 0, 83, 0
2, 47520, Note_on_c, 0, 79, 94
2, 47520, Note_on_c, 0, 84, 94
2, 47549, Note_on_c, 0, 84, 0
2, 47549, Note_on_c, 0, 79, 0
2, 47580, Note_on_c, 0, 80, 95
2, 47580, Note_on_c, 0, 72, 95
2, 47609, Note_on_c, 0, 72, 0
2, 47609, Note_on_c, 0, 80, 0
2, 47820, Note_on_c, 0, 84, 64
2, 47820, Note_on_c, 0, 91, 64
2, 47880, Note_on_c, 0, 83, 59
2, 47882, Note_on_c, 0, 84, 0
2, 47939, Note_on_c, 0, 83, 0
2, 47939, Note_on_c, 0, 91, 0
2, 47940, Note_on_c, 0, 83, 54
2, 47940, Note_on_c, 0, 89, 54
2, 47984, Note_on_c, 0, 89, 0
2, 47984, Note_on_c, 0, 83, 0
2, 47985, Note_on_c, 0, 86, 50
2, 47985, Note_on_c, 0, 77, 50
2, 47991, Note_on_c, 0, 77, 0
2, 47993, Note_on_c, 0, 86, 0
2, 48000, Note_on_c, 0, 75, 49
2, 48000, Note_on_c, 0, 84, 49
2, 48059, Note_on_c, 0, 84, 0
2, 48059, Note_on_c, 0, 75, 0
2, 48960, Note_on_c, 0, 84, 95
2, 48960, Note_on_c, 0, 86, 95
2, 49079, Note_on_c, 0, 86, 0
2, 49079, Note_on_c, 0, 84, 0
2, 49080, Note_on_c, 0, 86, 95
2, 49080, Note_on_c, 0, 84, 95
2, 49184, Note_on_c, 0, 84, 0
2, 49184, Note_on_c, 0, 86, 0
2, 49185, Note_on_c, 0, 84, 95
2, 49185, Note_on_c, 0, 86, 95
2, 49199, Note_on_c, 0, 86, 0
2, 49199, Note_on_c, 0, 84, 0
2, 49200, Note_on_c, 0, 87, 110
2, 49200, Note_on_c, 0, 84, 110
2, 49379, Note_on_c, 0, 84, 0
2, 49380, Note_on_c, 0, 86, 65
2, 49388, Note_on_c, 0, 87, 0
2, 49410, Note_on_c, 0, 84, 57
2, 49412, Note_on_c, 0, 86, 0
2, 49439, Note_on_c, 0, 84, 0
2, 49440, Note_on_c, 0, 79, 48
2, 49440, Note_on_c, 0, 84, 48
2, 49560, Note_on_c, 0, 83, 48
2, 49562, Note_on_c, 0, 84, 0
2, 49679, Note_on_c, 0, 83, 0
2, 49679, Note_on_c, 0, 79, 0
2, 49680, Note_on_c, 0, 84, 49
2, 49739, Note_on_c, 0, 84, 0
2, 49740, Note_on_c, 0, 90, 64
2, 49860, Note_on_c, 0, 91, 53
2, 49862, Note_on_c, 0, 90, 0
2, 49919, Note_on_c, 0, 91, 0
2, 49920, Note_on_c, 0, 84, 48
2, 49920, Note_on_c, 0, 87, 48
2, 50039, Note_on_c, 0, 87, 0
2, 50039, Note_on_c, 0, 84, 0
2, 50040, Note_on_c, 0, 77, 71
2, 50040, Note_on_c, 0, 84, 71
2, 50145, Note_on_c, 0, 84, 92
2, 50145, Note_on_c, 0, 75, 92
2, 50146, Note_on_c, 0, 84, 0
2, 50148, Note_on_c, 0, 77, 0
2, 50149, Note_on_c, 0, 75, 0
2, 50151, Note_on_c, 0, 84, 0
2, 50160, Note_on_c, 0, 75, 95
2, 50160, Note_on_c, 0, 84, 95
2, 50219, Note_on_c, 0, 84, 0
2, 50219, Note_on_c, 0, 75, 0
2, 54240, Note_on_c, 0, 84, 48
2, 54240, Note_on_c, 0, 72, 48
2, 54419, Note_on_c, 0, 72, 0
2, 54419, Note_on_c, 0, 84, 0
2, 54420, Note_on_c, 0, 72, 54
2, 54420, Note_on_c, 0, 84, 54
2, 54479, Note_on_c, 0, 84, 0
2, 54479, Note_on_c, 0, 72, 0
2, 54480, Note_on_c, 0, 72, 56
2, 54480, Note_on_c, 0, 84, 56
2, 54509, Note_on_c, 0, 84, 0
2, 54509, Note_on_c, 0, 72, 0
2, 54540, Note_on_c, 0, 72, 58
2, 54540, Note_on_c, 0, 84, 58
2, 54569, Note_on_c, 0, 84, 0
2, 54569, Note_on_c, 0, 72, 0
2, 54600, Note_on_c, 0, 72, 59
2, 54600, Note_on_c, 0, 84, 59
2, 54629, Note_on_c, 0, 84, 0
2, 54629, Note_on_c, 0, 72, 0
2, 54660, Note_on_c, 0, 72, 61
2, 54660, Note_on_c, 0, 84, 61
2, 54689, Note_on_c, 0, 84, 0
2, 54689, Note_on_c, 0, 72, 0
2, 54720, Note_on_c, 0, 84, 48
2, 54720, Note_on_c, 0, 72, 48
2, 54749, Note_on_c, 0, 72, 0
2, 54749, Note_on_c, 0, 84, 0
2, 56720, Note_on_c, 0, 80, 47
2, 56740, Note_on_c, 0, 79, 49
2, 56742, Note_on_c, 0, 80, 0
2, 56759, Note_on_c, 0, 79, 0
2, 56760, Note_on_c, 0, 77, 50
2, 56770, Note_on_c, 0, 77, 0
2, 56780, Note_on_c, 0, 86, 52
2, 56800, Note_on_c, 0, 84, 54
2, 56802, Note_on_c, 0, 86, 0
2, 56819, Note_on_c, 0, 84, 0
2, 56820, Note_on_c, 0, 83, 56
2, 56830, Note_on_c, 0, 83, 0
2, 56840, Note_on_c, 0, 89, 58
2, 56860, Note_on_c, 0, 87, 60
2, 56862, Note_on_c, 0, 89, 0
2, 56879, Note_on_c, 0, 87, 0
2, 56880, Note_on_c, 0, 86, 62
2, 56894, Note_on_c, 0, 86, 0
2, 56910, Note_on_c, 0, 84, 61
2, 56924, Note_on_c, 0, 84, 0
2, 56940, Note_on_c, 0, 83, 59
2, 56954, Note_on_c, 0, 83, 0
2, 56970, Note_on_c, 0, 80, 57
2, 56984, Note_on_c, 0, 80, 0
2, 57000, Note_on_c, 0, 79, 55
2, 57014, Note_on_c, 0, 79, 0
2, 57030, Note_on_c, 0, 77, 53
2, 57044, Note_on_c, 0, 77, 0
2, 57060, Note_on_c, 0, 75, 51
2, 57074, Note_on_c, 0, 75, 0
2, 57090, Note_on_c, 0, 74, 49
2, 57104, Note_on_c, 0, 74, 0
2, 57104, End_track
3, 0, Start_track
3, 0, MIDI_port, 0
3, 0, Title_t, "Oboes"
3, 0, Program_c, 1, 68
3, 2100, Note_on_c, 1, 67, 56
3, 2144, Note_on_c, 1, 67, 0
3, 2145, Note_on_c, 1, 67, 56
3, 2159, Note_on_c, 1, 67, 0
3, 2160, Note_on_c, 1, 67, 56
3, 2279, Note_on_c, 1, 67, 0
3, 2280, Note_on_c, 1, 74, 56
3, 2290, Note_on_c, 1, 72, 56
3, 2291, Note_on_c, 1, 74, 0
3, 2325, Note_on_c, 1, 71, 56
3, 2336, Note_on_c, 1, 72, 0
3, 2340, Note_on_c, 1, 72, 56
3, 2341, Note_on_c, 1, 71, 0
3, 2385, Note_on_c, 1, 74, 56
3, 2386, Note_on_c, 1, 72, 0
3, 2399, Note_on_c, 1, 74, 0
3, 2400, Note_on_c, 1, 75, 56
3, 2520, Note_on_c, 1, 72, 56
3, 2529, Note_on_c, 1, 75, 0
3, 2579, Note_on_c, 1, 72, 0
3, 2640, Note_on_c, 1, 79, 56
3, 2759, Note_on_c, 1, 79, 0
3, 2760, Note_on_c, 1, 77, 56
3, 2775, Note_on_c, 1, 75, 56
3, 2779, Note_on_c, 1, 77, 0
3, 2819, Note_on_c, 1, 75, 0
3, 2820, Note_on_c, 1, 74, 56
3, 2835, Note_on_c, 1, 72, 56
3, 2839, Note_on_c, 1, 74, 0
3, 2879, Note_on_c, 1, 72, 0
3, 2880, Note_on_c, 1, 72, 48
3, 2880, Note_on_c, 1, 75, 56
3, 3000, Note_on_c, 1, 71, 48
3, 3000, Note_on_c, 1, 74, 56
3, 3009, Note_on_c, 1, 75, 0
3, 3009, Note_on_c, 1, 72, 0
3, 3059, Note_on_c, 1, 71, 0
3, 3059, Note_on_c, 1, 74, 0
3, 3060, Note_on_c, 1, 74, 56
3, 3104, Note_on_c, 1, 74, 0
3, 3105, Note_on_c, 1, 74, 56
3, 3119, Note_on_c, 1, 74, 0
3, 3120, Note_on_c, 1, 71, 48
3, 3120, Note_on_c, 1, 74, 56
3, 3239, Note_on_c, 1, 74, 0
3, 3239, Note_on_c, 1, 71, 0
3, 3240, Note_on_c, 1, 74, 56
3, 3285, Note_on_c, 1, 75, 56
3, 3286, Note_on_c, 1, 74, 0
3, 3300, Note_on_c, 1, 77, 56
3, 3301, Note_on_c, 1, 75, 0
3, 3345, Note_on_c, 1, 79, 56
3, 3346, Note_on_c, 1, 77, 0
3, 3359, Note_on_c, 1, 79, 0
3, 3360, Note_on_c, 1, 74, 48
3, 3360, Note_on_c, 1, 80, 56
3, 3479, Note_on_c, 1, 74, 0
3, 3660, Note_on_c, 1, 77, 56
3, 3660, Note_on_c, 1, 70, 48
3, 3669, Note_on_c, 1, 80, 0
3, 3720, Note_on_c, 1, 75, 56
3, 3729, Note_on_c, 1, 77, 0
3, 3779, Note_on_c, 1, 70, 0
3, 3780, Note_on_c, 1, 70, 48
3, 3780, Note_on_c, 1, 74, 56
3, 3789, Note_on_c, 1, 75, 0
3, 3839, Note_on_c, 1, 74, 0
3, 3839, Note_on_c, 1, 70, 0
3, 3840, Note_on_c, 1, 70, 48
3, 3840, Note_on_c, 1, 75, 56
3, 3899, Note_on_c, 1, 75, 0
3, 3899, Note_on_c, 1, 70, 0
3, 3900, Note_on_c, 1, 72, 48
3, 3900, Note_on_c, 1, 75, 56
3, 3944, Note_on_c, 1, 75, 0
3, 3944, Note_on_c, 1, 72, 0
3, 3945, Note_on_c, 1, 75, 56
3, 3945, Note_on_c, 1, 72, 48
3, 3959, Note_on_c, 1, 72, 0
3, 3959, Note_on_c, 1, 75, 0
3, 3960, Note_on_c, 1, 70, 48
3, 3960, Note_on_c, 1, 75, 56
3, 4019, Note_on_c, 1, 75, 0
3, 4019, Note_on_c, 1, 70, 0
3, 8820, Note_on_c, 1, 70, 48
3, 8879, Note_on_c, 1, 70, 0
3, 8880, Note_on_c, 1, 75, 48
3, 9000, Note_on_c, 1, 74, 48
3, 9009, Note_on_c, 1, 75, 0
3, 9060, Note_on_c, 1, 72, 48
3, 9069, Note_on_c, 1, 74, 0
3, 9119, Note_on_c, 1, 72, 0
3, 9120, Note_on_c, 1, 70, 48
3, 9269, Note_on_c, 1, 70, 0
3, 9270, Note_on_c, 1, 70, 53
3, 9279, Note_on_c, 1, 70, 0
3, 9285, Note_on_c, 1, 72, 57
3, 9294, Note_on_c, 1, 72, 0
3, 9300, Note_on_c, 1, 74, 62
3, 9309, Note_on_c, 1, 74, 0
3, 9315, Note_on_c, 1, 75, 67
3, 9324, Note_on_c, 1, 75, 0
3, 9330, Note_on_c, 1, 77, 71
3, 9339, Note_on_c, 1, 77, 0
3, 9345, Note_on_c, 1, 79, 76
3, 9354, Note_on_c, 1, 79, 0
3, 9360, Note_on_c, 1, 80, 80
3, 9480, Note_on_c, 1, 79, 88
3, 9489, Note_on_c, 1, 80, 0
3, 9540, Note_on_c, 1, 72, 92
3, 9540, Note_on_c, 1, 77, 92
3, 9549, Note_on_c, 1, 79, 0
3, 9599, Note_on_c, 1, 77, 0
3, 9599, Note_on_c, 1, 72, 0
3, 9600, Note_on_c, 1, 73, 92
3, 9600, Note_on_c, 1, 76, 92
3, 9659, Note_on_c, 1, 76, 0
3, 9659, Note_on_c, 1, 73, 0
3, 9705, Note_on_c, 1, 82, 96
3, 9705, Note_on_c, 1, 79, 96
3, 9714, Note_on_c, 1, 79, 0
3, 9714, Note_on_c, 1, 82, 0
3, 9720, Note_on_c, 1, 79, 96
3, 9720, Note_on_c, 1, 82, 96
3, 9839, Note_on_c, 1, 82, 0
3, 9839, Note_on_c, 1, 79, 0
3, 9960, Note_on_c, 1, 77, 48
3, 9960, Note_on_c, 1, 80, 48
3, 10020, Note_on_c, 1, 75, 48
3, 10020, Note_on_c, 1, 79, 48
3, 10029, Note_on_c, 1, 80, 0
3, 10029, Note_on_c, 1, 77, 0
3, 10079, Note_on_c, 1, 75, 0
3, 10079, Note_on_c, 1, 79, 0
3, 10080, Note_on_c, 1, 75, 48
3, 10080, Note_on_c, 1, 78, 48
3, 10139, Note_on_c, 1, 75, 0
3, 10200, Note_on_c, 1, 72, 56
3, 10200, Note_on_c, 1, 84, 64
3, 10209, Note_on_c, 1, 78, 0
3, 10290, Note_on_c, 1, 77, 52
3, 10299, Note_on_c, 1, 84, 0
3, 10319, Note_on_c, 1, 77, 0
3, 10320, Note_on_c, 1, 71, 48
3, 10320, Note_on_c, 1, 79, 48
3, 10329, Note_on_c, 1, 72, 0
3, 10379, Note_on_c, 1, 71, 0
3, 10560, Note_on_c, 1, 72, 48
3, 10680, Note_on_c, 1, 71, 48
3, 10689, Note_on_c, 1, 72, 0
3, 10740, Note_on_c, 1, 72, 48
3, 10749, Note_on_c, 1, 71, 0
3, 10799, Note_on_c, 1, 72, 0
3, 10799, Note_on_c, 1, 79, 0
3, 10800, Note_on_c, 1, 79, 48
3, 10800, Note_on_c, 1, 74, 48
3, 10919, Note_on_c, 1, 74, 0
3, 10920, Note_on_c, 1, 74, 52
3, 10929, Note_on_c, 1, 79, 0
3, 10980, Note_on_c, 1, 77, 52
3, 10989, Note_on_c, 1, 74, 0
3, 11040, Note_on_c, 1, 75, 56
3, 11049, Note_on_c, 1, 77, 0
3, 11160, Note_on_c, 1, 74, 52
3, 11169, Note_on_c, 1, 75, 0
3, 11220, Note_on_c, 1, 72, 48
3, 11229, Note_on_c, 1, 74, 0
3, 11279, Note_on_c, 1, 72, 0
3, 11280, Note_on_c, 1, 71, 48
3, 11339, Note_on_c, 1, 71, 0
3, 11820, Note_on_c, 1, 77, 60
3, 11864, Note_on_c, 1, 77, 0
3, 11880, Note_on_c, 1, 77, 56
3, 11924, Note_on_c, 1, 77, 0
3, 11940, Note_on_c, 1, 77, 52
3, 11984, Note_on_c, 1, 77, 0
3, 12000, Note_on_c, 1, 77, 48
3, 12120, Note_on_c, 1, 76, 96
3, 12129, Note_on_c, 1, 77, 0
3, 12180, Note_on_c, 1, 72, 104
3, 12224, Note_on_c, 1, 72, 0
3, 12225, Note_on_c, 1, 72, 104
3, 12239, Note_on_c, 1, 72, 0
3, 12239, Note_on_c, 1, 76, 0
3, 12240, Note_on_c, 1, 77, 48
3, 12240, Note_on_c, 1, 72, 48
3, 12299, Note_on_c, 1, 77, 0
3, 12359, Note_on_c, 1, 72, 0
3, 12360, Note_on_c, 1, 79, 48
3, 12370, Note_on_c, 1, 77, 48
3, 12371, Note_on_c, 1, 79, 0
3, 12405, Note_on_c, 1, 76, 48
3, 12406, Note_on_c, 1, 77, 0
3, 12420, Note_on_c, 1, 77, 48
3, 12421, Note_on_c, 1, 76, 0
3, 12465, Note_on_c, 1, 79, 48
3, 12466, Note_on_c, 1, 77, 0
3, 12479, Note_on_c, 1, 79, 0
3, 12480, Note_on_c, 1, 80, 48
3, 12600, Note_on_c, 1, 77, 48
3, 12609, Note_on_c, 1, 80, 0
3, 12659, Note_on_c, 1, 77, 0
3, 12720, Note_on_c, 1, 65, 48
3, 12720, Note_on_c, 1, 77, 48
3, 12839, Note_on_c, 1, 77, 0
3, 12840, Note_on_c, 1, 75, 72
3, 12855, Note_on_c, 1, 74, 80
3, 12856, Note_on_c, 1, 75, 0
3, 12899, Note_on_c, 1, 65, 0
3, 12900, Note_on_c, 1, 72, 84
3, 12900, Note_on_c, 1, 62, 88
3, 12901, Note_on_c, 1, 74, 0
3, 12915, Note_on_c, 1, 71, 88
3, 12916, Note_on_c, 1, 72, 0
3, 12959, Note_on_c, 1, 71, 0
3, 12959, Note_on_c, 1, 62, 0
3, 12960, Note_on_c, 1, 72, 96
3, 12960, Note_on_c, 1, 67, 96
3, 12989, Note_on_c, 1, 67, 0
3, 12989, Note_on_c, 1, 72, 0
3, 13020, Note_on_c, 1, 80, 96
3, 13020, Note_on_c, 1, 72, 96
3, 13049, Note_on_c, 1, 72, 0
3, 13049, Note_on_c, 1, 80, 0
3, 13140, Note_on_c, 1, 78, 48
3, 13259, Note_on_c, 1, 78, 0
3, 13260, Note_on_c, 1, 79, 48
3, 13380, Note_on_c, 1, 77, 56
3, 13389, Note_on_c, 1, 79, 0
3, 13425, Note_on_c, 1, 74, 50
3, 13426, Note_on_c, 1, 77, 0
3, 13439, Note_on_c, 1, 74, 0
3, 13440, Note_on_c, 1, 72, 48
3, 13499, Note_on_c, 1, 72, 0
3, 14400, Note_on_c, 1, 80, 96
3, 14400, Note_on_c, 1, 72, 96
3, 14519, Note_on_c, 1, 72, 0
3, 14519, Note_on_c, 1, 80, 0
3, 14520, Note_on_c, 1, 72, 96
3, 14520, Note_on_c, 1, 80, 96
3, 14624, Note_on_c, 1, 80, 0
3, 14624, Note_on_c, 1, 72, 0
3, 14625, Note_on_c, 1, 80, 96
3, 14625, Note_on_c, 1, 72, 96
3, 14639, Note_on_c, 1, 72, 0
3, 14639, Note_on_c, 1, 80, 0
3, 14640, Note_on_c, 1, 72, 112
3, 14640, Note_on_c, 1, 81, 112
3, 14879, Note_on_c, 1, 81, 0
3, 14879, Note_on_c, 1, 72, 0
3, 14880, Note_on_c, 1, 75, 48
3, 14880, Note_on_c, 1, 72, 48
3, 14939, Note_on_c, 1, 75, 0
3, 14940, Note_on_c, 1, 79, 48
3, 15000, Note_on_c, 1, 74, 48
3, 15009, Note_on_c, 1, 72, 0
3, 15059, Note_on_c, 1, 79, 0
3, 15060, Note_on_c, 1, 79, 48
3, 15119, Note_on_c, 1, 79, 0
3, 15119, Note_on_c, 1, 74, 0
3, 15120, Note_on_c, 1, 75, 48
3, 15120, Note_on_c, 1, 79, 48
3, 15179, Note_on_c, 1, 79, 0
3, 15179, Note_on_c, 1, 75, 0
3, 15360, Note_on_c, 1, 75, 48
3, 15360, Note_on_c, 1, 72, 48
3, 15419, Note_on_c, 1, 75, 0
3, 15420, Note_on_c, 1, 79, 48
3, 15480, Note_on_c, 1, 71, 48
3, 15489, Note_on_c, 1, 72, 0
3, 15539, Note_on_c, 1, 79, 0
3, 15540, Note_on_c, 1, 79, 48
3, 15585, Note_on_c, 1, 72, 48
3, 15586, Note_on_c, 1, 71, 0
3, 15599, Note_on_c, 1, 72, 0
3, 15599, Note_on_c, 1, 79, 0
3, 15600, Note_on_c, 1, 72, 48
3, 15600, Note_on_c, 1, 79, 48
3, 15659, Note_on_c, 1, 79, 0
3, 15659, Note_on_c, 1, 72, 0
3, 16560, Note_on_c, 1, 72, 48
3, 16680, Note_on_c, 1, 76, 48
3, 16689, Note_on_c, 1, 72, 0
3, 16799, Note_on_c, 1, 76, 0
3, 16800, Note_on_c, 1, 79, 48
3, 16940, Note_on_c, 1, 77, 48
3, 16941, Note_on_c, 1, 79, 0
3, 16949, Note_on_c, 1, 77, 0
3, 16960, Note_on_c, 1, 76, 48
3, 16969, Note_on_c, 1, 76, 0
3, 16980, Note_on_c, 1, 74, 48
3, 16989, Note_on_c, 1, 74, 0
3, 17000, Note_on_c, 1, 72, 48
3, 17009, Note_on_c, 1, 72, 0
3, 17020, Note_on_c, 1, 71, 48
3, 17029, Note_on_c, 1, 71, 0
3, 17040, Note_on_c, 1, 71, 48
3, 17070, Note_on_c, 1, 69, 48
3, 17079, Note_on_c, 1, 71, 0
3, 17159, Note_on_c, 1, 69, 0
3, 17820, Note_on_c, 1, 77, 48
3, 17940, Note_on_c, 1, 76, 78
3, 17949, Note_on_c, 1, 77, 0
3, 17970, Note_on_c, 1, 74, 83
3, 17979, Note_on_c, 1, 76, 0
3, 17999, Note_on_c, 1, 74, 0
3, 18000, Note_on_c, 1, 74, 88
3, 18030, Note_on_c, 1, 72, 93
3, 18039, Note_on_c, 1, 74, 0
3, 18060, Note_on_c, 1, 71, 98
3, 18069, Note_on_c, 1, 72, 0
3, 18090, Note_on_c, 1, 69, 103
3, 18099, Note_on_c, 1, 71, 0
3, 18119, Note_on_c, 1, 69, 0
3, 18120, Note_on_c, 1, 67, 108
3, 18150, Note_on_c, 1, 74, 113
3, 18159, Note_on_c, 1, 67, 0
3, 18180, Note_on_c, 1, 71, 118
3, 18189, Note_on_c, 1, 74, 0
3, 18210, Note_on_c, 1, 67, 123
3, 18219, Note_on_c, 1, 71, 0
3, 18239, Note_on_c, 1, 67, 0
3, 18240, Note_on_c, 1, 71, 127
3, 18240, Note_on_c, 1, 67, 127
3, 18419, Note_on_c, 1, 67, 0
3, 18419, Note_on_c, 1, 71, 0
3, 18420, Note_on_c, 1, 83, 127
3, 18420, Note_on_c, 1, 74, 127
3, 18449, Note_on_c, 1, 74, 0
3, 18449, Note_on_c, 1, 83, 0
3, 18480, Note_on_c, 1, 71, 127
3, 18480, Note_on_c, 1, 79, 127
3, 18659, Note_on_c, 1, 79, 0
3, 18659, Note_on_c, 1, 71, 0
3, 18660, Note_on_c, 1, 83, 127
3, 18660, Note_on_c, 1, 74, 127
3, 18689, Note_on_c, 1, 74, 0
3, 18689, Note_on_c, 1, 83, 0
3, 18720, Note_on_c, 1, 79, 127
3, 18720, Note_on_c, 1, 71, 127
3, 18749, Note_on_c, 1, 71, 0
3, 18749, Note_on_c, 1, 79, 0
3, 18780, Note_on_c, 1, 83, 127
3, 18780, Note_on_c, 1, 74, 127
3, 18809, Note_on_c, 1, 74, 0
3, 18809, Note_on_c, 1, 83, 0
3, 18840, Note_on_c, 1, 79, 127
3, 18840, Note_on_c, 1, 71, 127
3, 18869, Note_on_c, 1, 71, 0
3, 18869, Note_on_c, 1, 79, 0
3, 18900, Note_on_c, 1, 83, 127
3, 18900, Note_on_c, 1, 74, 127
3, 18929, Note_on_c, 1, 74, 0
3, 18929, Note_on_c, 1, 83, 0
3, 18960, Note_on_c, 1, 79, 127
3, 18960, Note_on_c, 1, 71, 127
3, 18989, Note_on_c, 1, 71, 0
3, 18989, Note_on_c, 1, 79, 0
3, 19200, Note_on_c, 1, 72, 48
3, 19200, Note_on_c, 1, 70, 48
3, 19619, Note_on_c, 1, 72, 0
3, 19620, Note_on_c, 1, 76, 48
3, 19679, Note_on_c, 1, 76, 0
3, 19679, Note_on_c, 1, 70, 0
3, 19680, Note_on_c, 1, 69, 48
3, 19680, Note_on_c, 1, 77, 48
3, 19689, Note_on_c, 1, 77, 0
3, 19699, Note_on_c, 1, 69, 0
3, 19700, Note_on_c, 1, 69, 51
3, 19720, Note_on_c, 1, 72, 54
3, 19729, Note_on_c, 1, 72, 0
3, 19739, Note_on_c, 1, 69, 0
3, 19740, Note_on_c, 1, 72, 56
3, 19740, Note_on_c, 1, 77, 56
3, 19749, Note_on_c, 1, 77, 0
3, 19760, Note_on_c, 1, 81, 59
3, 19769, Note_on_c, 1, 81, 0
3, 19780, Note_on_c, 1, 84, 62
3, 19789, Note_on_c, 1, 84, 0
3, 19799, Note_on_c, 1, 72, 0
3, 19820, Note_on_c, 1, 82, 67
3, 19829, Note_on_c, 1, 82, 0
3, 19840, Note_on_c, 1, 79, 70
3, 19849, Note_on_c, 1, 79, 0
3, 19860, Note_on_c, 1, 72, 72
3, 19860, Note_on_c, 1, 76, 72
3, 19869, Note_on_c, 1, 76, 0
3, 19879, Note_on_c, 1, 72, 0
3, 19880, Note_on_c, 1, 72, 75
3, 19900, Note_on_c, 1, 70, 78
3, 19909, Note_on_c, 1, 70, 0
3, 19919, Note_on_c, 1, 72, 0
3, 19920, Note_on_c, 1, 69, 80
3, 19920, Note_on_c, 1, 77, 80
3, 19929, Note_on_c, 1, 77, 0
3, 19939, Note_on_c, 1, 69, 0
3, 19940, Note_on_c, 1, 69, 83
3, 19960, Note_on_c, 1, 72, 86
3, 19969, Note_on_c, 1, 72, 0
3, 19979, Note_on_c, 1, 69, 0
3, 19980, Note_on_c, 1, 72, 88
3, 19980, Note_on_c, 1, 77, 88
3, 19989, Note_on_c, 1, 77, 0
3, 20000, Note_on_c, 1, 81, 91
3, 20009, Note_on_c, 1, 81, 0
3, 20020, Note_on_c, 1, 84, 94
3, 20029, Note_on_c, 1, 84, 0
3, 20039, Note_on_c, 1, 72, 0
3, 20060, Note_on_c, 1, 82, 99
3, 20069, Note_on_c, 1, 82, 0
3, 20080, Note_on_c, 1, 79, 102
3, 20089, Note_on_c, 1, 79, 0
3, 20100, Note_on_c, 1, 72, 104
3, 20100, Note_on_c, 1, 76, 104
3, 20109, Note_on_c, 1, 76, 0
3, 20119, Note_on_c, 1, 72, 0
3, 20120, Note_on_c, 1, 72, 107
3, 20140, Note_on_c, 1, 70, 110
3, 20149, Note_on_c, 1, 70, 0
3, 20159, Note_on_c, 1, 72, 0
3, 20160, Note_on_c, 1, 69, 48
3, 20160, Note_on_c, 1, 72, 48
3, 20219, Note_on_c, 1, 72, 0
3, 20219, Note_on_c, 1, 69, 0
3, 20460, Note_on_c, 1, 82, 48
3, 20460, Note_on_c, 1, 67, 48
3, 20520, Note_on_c, 1, 69, 48
3, 20520, Note_on_c, 1, 81, 48
3, 20529, Note_on_c, 1, 67, 0
3, 20529, Note_on_c, 1, 82, 0
3, 20579, Note_on_c, 1, 69, 0
3, 20579, Note_on_c, 1, 81, 0
3, 20580, Note_on_c, 1, 81, 48
3, 20580, Note_on_c, 1, 69, 48
3, 20639, Note_on_c, 1, 69, 0
3, 20639, Note_on_c, 1, 81, 0
3, 20640, Note_on_c, 1, 71, 48
3, 20640, Note_on_c, 1, 74, 48
3, 20699, Note_on_c, 1, 74, 0
3, 20699, Note_on_c, 1, 71, 0
3, 20760, Note_on_c, 1, 60, 48
3, 20769, Note_on_c, 1, 60, 0
3, 20780, Note_on_c, 1, 64, 48
3, 20789, Note_on_c, 1, 64, 0
3, 20800, Note_on_c, 1, 67, 48
3, 20809, Note_on_c, 1, 67, 0
3, 20820, Note_on_c, 1, 72, 48
3, 20829, Note_on_c, 1, 72, 0
3, 20840, Note_on_c, 1, 76, 48
3, 20849, Note_on_c, 1, 76, 0
3, 20860, Note_on_c, 1, 72, 48
3, 20869, Note_on_c, 1, 72, 0
3, 20880, Note_on_c, 1, 79, 48
3, 20939, Note_on_c, 1, 79, 0
3, 21000, Note_on_c, 1, 60, 48
3, 21009, Note_on_c, 1, 60, 0
3, 21020, Note_on_c, 1, 64, 48
3, 21029, Note_on_c, 1, 64, 0
3, 21040, Note_on_c, 1, 67, 48
3, 21049, Note_on_c, 1, 67, 0
3, 21060, Note_on_c, 1, 72, 48
3, 21069, Note_on_c, 1, 72, 0
3, 21080, Note_on_c, 1, 76, 48
3, 21089, Note_on_c, 1, 76, 0
3, 21100, Note_on_c, 1, 72, 48
3, 21109, Note_on_c, 1, 72, 0
3, 21120, Note_on_c, 1, 79, 48
3, 21179, Note_on_c, 1, 79, 0
3, 21360, Note_on_c, 1, 67, 48
3, 21540, Note_on_c, 1, 69, 48
3, 21549, Note_on_c, 1, 67, 0
3, 21570, Note_on_c, 1, 71, 48
3, 21579, Note_on_c, 1, 69, 0
3, 21599, Note_on_c, 1, 71, 0
3, 21600, Note_on_c, 1, 72, 48
3, 21720, Note_on_c, 1, 76, 48
3, 21729, Note_on_c, 1, 72, 0
3, 21840, Note_on_c, 1, 79, 48
3, 21849, Note_on_c, 1, 76, 0
3, 22079, Note_on_c, 1, 79, 0
3, 22080, Note_on_c, 1, 77, 48
3, 22200, Note_on_c, 1, 81, 62
3, 22209, Note_on_c, 1, 77, 0
3, 22319, Note_on_c, 1, 81, 0
3, 22320, Note_on_c, 1, 84, 67
3, 22470, Note_on_c, 1, 81, 72
3, 22479, Note_on_c, 1, 84, 0
3, 22500, Note_on_c, 1, 77, 74
3, 22509, Note_on_c, 1, 81, 0
3, 22530, Note_on_c, 1, 74, 75
3, 22539, Note_on_c, 1, 77, 0
3, 22559, Note_on_c, 1, 74, 0
3, 22560, Note_on_c, 1, 74, 76
3, 22620, Note_on_c, 1, 72, 79
3, 22629, Note_on_c, 1, 74, 0
3, 22740, Note_on_c, 1, 71, 84
3, 22749, Note_on_c, 1, 72, 0
3, 22770, Note_on_c, 1, 79, 85
3, 22779, Note_on_c, 1, 71, 0
3, 22799, Note_on_c, 1, 79, 0
3, 22800, Note_on_c, 1, 79, 87
3, 22830, Note_on_c, 1, 78, 88
3, 22839, Note_on_c, 1, 79, 0
3, 22860, Note_on_c, 1, 79, 89
3, 22869, Note_on_c, 1, 78, 0
3, 22890, Note_on_c, 1, 80, 90
3, 22899, Note_on_c, 1, 79, 0
3, 22920, Note_on_c, 1, 81, 92
3, 22929, Note_on_c, 1, 80, 0
3, 22950, Note_on_c, 1, 77, 93
3, 22959, Note_on_c, 1, 81, 0
3, 22980, Note_on_c, 1, 76, 94
3, 22989, Note_on_c, 1, 77, 0
3, 23010, Note_on_c, 1, 74, 95
3, 23019, Note_on_c, 1, 76, 0
3, 23039, Note_on_c, 1, 74, 0
3, 23040, Note_on_c, 1, 72, 96
3, 23099, Note_on_c, 1, 72, 0
3, 23100, Note_on_c, 1, 76, 112
3, 23100, Note_on_c, 1, 72, 112
3, 23219, Note_on_c, 1, 76, 0
3, 23220, Note_on_c, 1, 76, 112
3, 23220, Note_on_c, 1, 79, 112
3, 23229, Note_on_c, 1, 72, 0
3, 23279, Note_on_c, 1, 79, 0
3, 23279, Note_on_c, 1, 76, 0
3, 23280, Note_on_c, 1, 79, 112
3, 23280, Note_on_c, 1, 77, 112
3, 23459, Note_on_c, 1, 77, 0
3, 23459, Note_on_c, 1, 79, 0
3, 23460, Note_on_c, 1, 74, 112
3, 23460, Note_on_c, 1, 77, 112
3, 23504, Note_on_c, 1, 74, 0
3, 23505, Note_on_c, 1, 71, 112
3, 23505, Note_on_c, 1, 74, 112
3, 23506, Note_on_c, 1, 77, 0
3, 23519, Note_on_c, 1, 74, 0
3, 23519, Note_on_c, 1, 71, 0
3, 23520, Note_on_c, 1, 64, 127
3, 23520, Note_on_c, 1, 72, 127
3, 23699, Note_on_c, 1, 72, 0
3, 23699, Note_on_c, 1, 64, 0
3, 23700, Note_on_c, 1, 79, 127
3, 23700, Note_on_c, 1, 76, 127
3, 23729, Note_on_c, 1, 76, 0
3, 23729, Note_on_c, 1, 79, 0
3, 23760, Note_on_c, 1, 72, 127
3, 23760, Note_on_c, 1, 76, 127
3, 23939, Note_on_c, 1, 76, 0
3, 23939, Note_on_c, 1, 72, 0
3, 23940, Note_on_c, 1, 79, 127
3, 23940, Note_on_c, 1, 76, 127
3, 23969, Note_on_c, 1, 76, 0
3, 23969, Note_on_c, 1, 79, 0
3, 24000, Note_on_c, 1, 76, 127
3, 24000, Note_on_c, 1, 72, 127
3, 24029, Note_on_c, 1, 72, 0
3, 24029, Note_on_c, 1, 76, 0
3, 24060, Note_on_c, 1, 79, 127
3, 24060, Note_on_c, 1, 76, 127
3, 24089, Note_on_c, 1, 76, 0
3, 24089, Note_on_c, 1, 79, 0
3, 24120, Note_on_c, 1, 76, 127
3, 24120, Note_on_c, 1, 72, 127
3, 24149, Note_on_c, 1, 72, 0
3, 24149, Note_on_c, 1, 76, 0
3, 24180, Note_on_c, 1, 79, 127
3, 24180, Note_on_c, 1, 76, 127
3, 24209, Note_on_c, 1, 76, 0
3, 24209, Note_on_c, 1, 79, 0
3, 24240, Note_on_c, 1, 72, 127
3, 24240, Note_on_c, 1, 76, 127
3, 24269, Note_on_c, 1, 76, 0
3, 24269, Note_on_c, 1, 72, 0
3, 28800, Note_on_c, 1, 76, 96
3, 28860, Note_on_c, 1, 72, 96
3, 28920, Note_on_c, 1, 77, 96
3, 28929, Note_on_c, 1, 76, 0
3, 28979, Note_on_c, 1, 72, 0
3, 28980, Note_on_c, 1, 79, 96
3, 28980, Note_on_c, 1, 72, 96
3, 28989, Note_on_c, 1, 77, 0
3, 29039, Note_on_c, 1, 72, 0
3, 29039, Note_on_c, 1, 79, 0
3, 29040, Note_on_c, 1, 77, 96
3, 29040, Note_on_c, 1, 72, 96
3, 29099, Note_on_c, 1, 72, 0
3, 29099, Note_on_c, 1, 77, 0
3, 29580, Note_on_c, 1, 67, 96
3, 29640, Note_on_c, 1, 68, 96
3, 29649, Note_on_c, 1, 67, 0
3, 29700, Note_on_c, 1, 72, 96
3, 29709, Note_on_c, 1, 68, 0
3, 29819, Note_on_c, 1, 72, 0
3, 31200, Note_on_c, 1, 77, 127
3, 31320, Note_on_c, 1, 79, 127
3, 31329, Note_on_c, 1, 77, 0
3, 31380, Note_on_c, 1, 80, 127
3, 31389, Note_on_c, 1, 79, 0
3, 31439, Note_on_c, 1, 80, 0
3, 31440, Note_on_c, 1, 82, 127
3, 31619, Note_on_c, 1, 82, 0
3, 31620, Note_on_c, 1, 80, 127
3, 31679, Note_on_c, 1, 80, 0
3, 31680, Note_on_c, 1, 79, 127
3, 31740, Note_on_c, 1, 76, 127
3, 31749, Note_on_c, 1, 79, 0
3, 31800, Note_on_c, 1, 77, 127
3, 31809, Note_on_c, 1, 76, 0
3, 31860, Note_on_c, 1, 79, 127
3, 31869, Note_on_c, 1, 77, 0
3, 31919, Note_on_c, 1, 79, 0
3, 31920, Note_on_c, 1, 80, 127
3, 31980, Note_on_c, 1, 79, 127
3, 32040, Note_on_c, 1, 77, 127
3, 32049, Note_on_c, 1, 79, 0
3, 32100, Note_on_c, 1, 75, 127
3, 32109, Note_on_c, 1, 77, 0
3, 32159, Note_on_c, 1, 75, 0
3, 32160, Note_on_c, 1, 74, 127
3, 32220, Note_on_c, 1, 84, 127
3, 32229, Note_on_c, 1, 80, 0
3, 32280, Note_on_c, 1, 82, 127
3, 32280, Note_on_c, 1, 75, 127
3, 32289, Note_on_c, 1, 84, 0
3, 32289, Note_on_c, 1, 74, 0
3, 32340, Note_on_c, 1, 80, 127
3, 32340, Note_on_c, 1, 77, 127
3, 32349, Note_on_c, 1, 82, 0
3, 32349, Note_on_c, 1, 75, 0
3, 32399, Note_on_c, 1, 80, 0
3, 32399, Note_on_c, 1, 77, 0
3, 32400, Note_on_c, 1, 79, 127
3, 32459, Note_on_c, 1, 79, 0
3, 33240, Note_on_c, 1, 75, 127
3, 33540, Note_on_c, 1, 74, 127
3, 33549, Note_on_c, 1, 75, 0
3, 33599, Note_on_c, 1, 74, 0
3, 33600, Note_on_c, 1, 72, 127
3, 33659, Note_on_c, 1, 72, 0
3, 33660, Note_on_c, 1, 75, 127
3, 33660, Note_on_c, 1, 79, 127
3, 33674, Note_on_c, 1, 79, 0
3, 33674, Note_on_c, 1, 75, 0
3, 33690, Note_on_c, 1, 74, 127
3, 33690, Note_on_c, 1, 77, 127
3, 33704, Note_on_c, 1, 77, 0
3, 33704, Note_on_c, 1, 74, 0
3, 33720, Note_on_c, 1, 72, 127
3, 33720, Note_on_c, 1, 75, 127
3, 33734, Note_on_c, 1, 75, 0
3, 33734, Note_on_c, 1, 72, 0
3, 33750, Note_on_c, 1, 70, 127
3, 33750, Note_on_c, 1, 74, 127
3, 33764, Note_on_c, 1, 74, 0
3, 33764, Note_on_c, 1, 70, 0
3, 33780, Note_on_c, 1, 68, 127
3, 33780, Note_on_c, 1, 72, 127
3, 33794, Note_on_c, 1, 72, 0
3, 33794, Note_on_c, 1, 68, 0
3, 33810, Note_on_c, 1, 67, 127
3, 33810, Note_on_c, 1, 70, 127
3, 33824, Note_on_c, 1, 70, 0
3, 33824, Note_on_c, 1, 67, 0
3, 33840, Note_on_c, 1, 65, 127
3, 33840, Note_on_c, 1, 68, 127
3, 33899, Note_on_c, 1, 68, 0
3, 33899, Note_on_c, 1, 65, 0
3, 34110, Note_on_c, 1, 77, 127
3, 34110, Note_on_c, 1, 80, 127
3, 34124, Note_on_c, 1, 80, 0
3, 34124, Note_on_c, 1, 77, 0
3, 34140, Note_on_c, 1, 80, 127
3, 34140, Note_on_c, 1, 77, 127
3, 34154, Note_on_c, 1, 77, 0
3, 34154, Note_on_c, 1, 80, 0
3, 34170, Note_on_c, 1, 75, 127
3, 34170, Note_on_c, 1, 79, 127
3, 34184, Note_on_c, 1, 79, 0
3, 34184, Note_on_c, 1, 75, 0
3, 34200, Note_on_c, 1, 74, 127
3, 34200, Note_on_c, 1, 77, 127
3, 34214, Note_on_c, 1, 77, 0
3, 34214, Note_on_c, 1, 74, 0
3, 34230, Note_on_c, 1, 72, 127
3, 34230, Note_on_c, 1, 75, 127
3, 34244, Note_on_c, 1, 75, 0
3, 34244, Note_on_c, 1, 72, 0
3, 34260, Note_on_c, 1, 71, 127
3, 34260, Note_on_c, 1, 74, 127
3, 34274, Note_on_c, 1, 74, 0
3, 34274, Note_on_c, 1, 71, 0
3, 34290, Note_on_c, 1, 69, 127
3, 34290, Note_on_c, 1, 72, 127
3, 34304, Note_on_c, 1, 72, 0
3, 34304, Note_on_c, 1, 69, 0
3, 34320, Note_on_c, 1, 67, 127
3, 34320, Note_on_c, 1, 71, 127
3, 34379, Note_on_c, 1, 71, 0
3, 34379, Note_on_c, 1, 67, 0
3, 34500, Note_on_c, 1, 79, 127
3, 34500, Note_on_c, 1, 67, 127
3, 34589, Note_on_c, 1, 67, 0
3, 34589, Note_on_c, 1, 79, 0
3, 34590, Note_on_c, 1, 66, 127
3, 34590, Note_on_c, 1, 78, 127
3, 34620, Note_on_c, 1, 79, 127
3, 34620, Note_on_c, 1, 67, 127
3, 34629, Note_on_c, 1, 78, 0
3, 34629, Note_on_c, 1, 66, 0
3, 34650, Note_on_c, 1, 69, 127
3, 34650, Note_on_c, 1, 81, 127
3, 34659, Note_on_c, 1, 79, 0
3, 34659, Note_on_c, 1, 67, 0
3, 34680, Note_on_c, 1, 70, 127
3, 34680, Note_on_c, 1, 82, 127
3, 34689, Note_on_c, 1, 69, 0
3, 34689, Note_on_c, 1, 81, 0
3, 34740, Note_on_c, 1, 79, 127
3, 34740, Note_on_c, 1, 67, 127
3, 34749, Note_on_c, 1, 70, 0
3, 34749, Note_on_c, 1, 82, 0
3, 34799, Note_on_c, 1, 79, 0
3, 34799, Note_on_c, 1, 67, 0
3, 34800, Note_on_c, 1, 66, 127
3, 34800, Note_on_c, 1, 78, 127
3, 34859, Note_on_c, 1, 78, 0
3, 34859, Note_on_c, 1, 66, 0
3, 34980, Note_on_c, 1, 74, 127
3, 35099, Note_on_c, 1, 74, 0
3, 35100, Note_on_c, 1, 72, 127
3, 35130, Note_on_c, 1, 70, 127
3, 35139, Note_on_c, 1, 72, 0
3, 35160, Note_on_c, 1, 68, 127
3, 35169, Note_on_c, 1, 70, 0
3, 35220, Note_on_c, 1, 72, 127
3, 35229, Note_on_c, 1, 68, 0
3, 35339, Note_on_c, 1, 72, 0
3, 35340, Note_on_c, 1, 70, 127
3, 35370, Note_on_c, 1, 69, 127
3, 35379, Note_on_c, 1, 70, 0
3, 35400, Note_on_c, 1, 67, 127
3, 35409, Note_on_c, 1, 69, 0
3, 35460, Note_on_c, 1, 70, 127
3, 35469, Note_on_c, 1, 67, 0
3, 35579, Note_on_c, 1, 70, 0
3, 35580, Note_on_c, 1, 69, 127
3, 35610, Note_on_c, 1, 67, 127
3, 35619, Note_on_c, 1, 69, 0
3, 35640, Note_on_c, 1, 66, 127
3, 35649, Note_on_c, 1, 67, 0
3, 35700, Note_on_c, 1, 69, 127
3, 35709, Note_on_c, 1, 66, 0
3, 35819, Note_on_c, 1, 69, 0
3, 35820, Note_on_c, 1, 74, 127
3, 35879, Note_on_c, 1, 74, 0
3, 35880, Note_on_c, 1, 67, 127
3, 35880, Note_on_c, 1, 74, 127
3, 35940, Note_on_c, 1, 79, 127
3, 35940, Note_on_c, 1, 70, 127
3, 35949, Note_on_c, 1, 74, 0
3, 35949, Note_on_c, 1, 67, 0
3, 35999, Note_on_c, 1, 79, 0
3, 35999, Note_on_c, 1, 70, 0
3, 36000, Note_on_c, 1, 79, 127
3, 36000, Note_on_c, 1, 76, 127
3, 36029, Note_on_c, 1, 76, 0
3, 36029, Note_on_c, 1, 79, 0
3, 36840, Note_on_c, 1, 72, 48
3, 36960, Note_on_c, 1, 70, 48
3, 36962, Note_on_c, 1, 72, 0
3, 37019, Note_on_c, 1, 70, 0
3, 39840, Note_on_c, 1, 77, 127
3, 39840, Note_on_c, 1, 74, 127
3, 40139, Note_on_c, 1, 74, 0
3, 40139, Note_on_c, 1, 77, 0
3, 40140, Note_on_c, 1, 77, 127
3, 40140, Note_on_c, 1, 74, 127
3, 40199, Note_on_c, 1, 74, 0
3, 40199, Note_on_c, 1, 77, 0
3, 40200, Note_on_c, 1, 74, 127
3, 40200, Note_on_c, 1, 77, 127
3, 40259, Note_on_c, 1, 77, 0
3, 40259, Note_on_c, 1, 74, 0
3, 40260, Note_on_c, 1, 77, 127
3, 40260, Note_on_c, 1, 74, 127
3, 40319, Note_on_c, 1, 74, 0
3, 40319, Note_on_c, 1, 77, 0
3, 40320, Note_on_c, 1, 74, 127
3, 40320, Note_on_c, 1, 77, 127
3, 40379, Note_on_c, 1, 77, 0
3, 40379, Note_on_c, 1, 74, 0
3, 41520, Note_on_c, 1, 72, 64
3, 41624, Note_on_c, 1, 72, 0
3, 41625, Note_on_c, 1, 74, 64
3, 41633, Note_on_c, 1, 74, 0
3, 41640, Note_on_c, 1, 72, 64
3, 41684, Note_on_c, 1, 72, 0
3, 41685, Note_on_c, 1, 71, 64
3, 41699, Note_on_c, 1, 71, 0
3, 41700, Note_on_c, 1, 72, 64
3, 41744, Note_on_c, 1, 72, 0
3, 41745, Note_on_c, 1, 74, 64
3, 41759, Note_on_c, 1, 74, 0
3, 41760, Note_on_c, 1, 75, 64
3, 41880, Note_on_c, 1, 72, 64
3, 41881, Note_on_c, 1, 75, 0
3, 41942, Note_on_c, 1, 72, 0
3, 42000, Note_on_c, 1, 79, 64
3, 42120, Note_on_c, 1, 77, 64
3, 42124, Note_on_c, 1, 79, 0
3, 42130, Note_on_c, 1, 77, 0
3, 42135, Note_on_c, 1, 75, 64
3, 42180, Note_on_c, 1, 74, 64
3, 42184, Note_on_c, 1, 75, 0
3, 42193, Note_on_c, 1, 74, 0
3, 42195, Note_on_c, 1, 72, 64
3, 42240, Note_on_c, 1, 75, 64
3, 42247, Note_on_c, 1, 72, 0
3, 42296, Note_on_c, 1, 66, 96
3, 42360, Note_on_c, 1, 74, 63
3, 42365, Note_on_c, 1, 75, 0
3, 42417, Note_on_c, 1, 66, 0
3, 42419, Note_on_c, 1, 74, 0
3, 42426, Note_on_c, 1, 67, 63
3, 42456, Note_on_c, 1, 67, 0
3, 42480, Note_on_c, 1, 74, 63
3, 42599, Note_on_c, 1, 74, 0
3, 42600, Note_on_c, 1, 74, 63
3, 42645, Note_on_c, 1, 74, 0
3, 42645, Note_on_c, 1, 75, 63
3, 42659, Note_on_c, 1, 75, 0
3, 42660, Note_on_c, 1, 77, 63
3, 42705, Note_on_c, 1, 77, 0
3, 42705, Note_on_c, 1, 79, 63
3, 42719, Note_on_c, 1, 79, 0
3, 42720, Note_on_c, 1, 80, 63
3, 42840, Note_on_c, 1, 77, 55
3, 43019, Note_on_c, 1, 77, 0
3, 43020, Note_on_c, 1, 70, 63
3, 43020, Note_on_c, 1, 77, 63
3, 43027, Note_on_c, 1, 80, 0
3, 43079, Note_on_c, 1, 77, 0
3, 43079, Note_on_c, 1, 70, 0
3, 43080, Note_on_c, 1, 70, 59
3, 43080, Note_on_c, 1, 75, 59
3, 43139, Note_on_c, 1, 70, 0
3, 43140, Note_on_c, 1, 70, 54
3, 43140, Note_on_c, 1, 74, 54
3, 43141, Note_on_c, 1, 75, 0
3, 43194, Note_on_c, 1, 74, 0
3, 43199, Note_on_c, 1, 70, 0
3, 43200, Note_on_c, 1, 70, 48
3, 43200, Note_on_c, 1, 75, 48
3, 43259, Note_on_c, 1, 75, 0
3, 43259, Note_on_c, 1, 70, 0
3, 43260, Note_on_c, 1, 72, 48
3, 43260, Note_on_c, 1, 75, 48
3, 43304, Note_on_c, 1, 75, 0
3, 43304, Note_on_c, 1, 72, 0
3, 43305, Note_on_c, 1, 72, 48
3, 43305, Note_on_c, 1, 75, 48
3, 43312, Note_on_c, 1, 75, 0
3, 43312, Note_on_c, 1, 72, 0
3, 43320, Note_on_c, 1, 70, 48
3, 43320, Note_on_c, 1, 75, 48
3, 43379, Note_on_c, 1, 75, 0
3, 43379, Note_on_c, 1, 70, 0
3, 44400, Note_on_c, 1, 79, 48
3, 44400, Note_on_c, 1, 82, 48
3, 44520, Note_on_c, 1, 80, 48
3, 44520, Note_on_c, 1, 77, 48
3, 44522, Note_on_c, 1, 82, 0
3, 44522, Note_on_c, 1, 79, 0
3, 44580, Note_on_c, 1, 79, 48
3, 44580, Note_on_c, 1, 75, 48
3, 44583, Note_on_c, 1, 80, 0
3, 44583, Note_on_c, 1, 77, 0
3, 44639, Note_on_c, 1, 79, 0
3, 44639, Note_on_c, 1, 75, 0
3, 44640, Note_on_c, 1, 78, 48
3, 44640, Note_on_c, 1, 75, 48
3, 44700, Note_on_c, 1, 72, 72
3, 44702, Note_on_c, 1, 75, 0
3, 44760, Note_on_c, 1, 84, 96
3, 44762, Note_on_c, 1, 78, 0
3, 44819, Note_on_c, 1, 72, 0
3, 44820, Note_on_c, 1, 75, 72
3, 44850, Note_on_c, 1, 78, 60
3, 44852, Note_on_c, 1, 84, 0
3, 44879, Note_on_c, 1, 78, 0
3, 44879, Note_on_c, 1, 75, 0
3, 44880, Note_on_c, 1, 71, 48
3, 44880, Note_on_c, 1, 79, 48
3, 44939, Note_on_c, 1, 79, 0
3, 44941, Note_on_c, 1, 71, 0
3, 45120, Note_on_c, 1, 79, 47
3, 45240, Note_on_c, 1, 77, 47
3, 45242, Note_on_c, 1, 79, 0
3, 45300, Note_on_c, 1, 75, 47
3, 45303, Note_on_c, 1, 77, 0
3, 45359, Note_on_c, 1, 75, 0
3, 45360, Note_on_c, 1, 74, 47
3, 45540, Note_on_c, 1, 77, 52
3, 45542, Note_on_c, 1, 74, 0
3, 45600, Note_on_c, 1, 75, 55
3, 45602, Note_on_c, 1, 77, 0
3, 45720, Note_on_c, 1, 74, 52
3, 45722, Note_on_c, 1, 75, 0
3, 45780, Note_on_c, 1, 72, 50
3, 45782, Note_on_c, 1, 74, 0
3, 45840, Note_on_c, 1, 71, 49
3, 45842, Note_on_c, 1, 72, 0
3, 45899, Note_on_c, 1, 71, 0
3, 46350, Note_on_c, 1, 74, 49
3, 46372, Note_on_c, 1, 74, 0
3, 46380, Note_on_c, 1, 75, 50
3, 46402, Note_on_c, 1, 75, 0
3, 46410, Note_on_c, 1, 74, 51
3, 46432, Note_on_c, 1, 74, 0
3, 46440, Note_on_c, 1, 75, 52
3, 46462, Note_on_c, 1, 75, 0
3, 46470, Note_on_c, 1, 76, 52
3, 46492, Note_on_c, 1, 76, 0
3, 46500, Note_on_c, 1, 77, 53
3, 46522, Note_on_c, 1, 77, 0
3, 46530, Note_on_c, 1, 78, 54
3, 46552, Note_on_c, 1, 78, 0
3, 46560, Note_on_c, 1, 79, 55
3, 46680, Note_on_c, 1, 70, 59
3, 46740, Note_on_c, 1, 72, 61
3, 46747, Note_on_c, 1, 79, 0
3, 46784, Note_on_c, 1, 72, 0
3, 46785, Note_on_c, 1, 72, 62
3, 46799, Note_on_c, 1, 72, 0
3, 46800, Note_on_c, 1, 68, 48
3, 46800, Note_on_c, 1, 72, 48
3, 46802, Note_on_c, 1, 70, 0
3, 46859, Note_on_c, 1, 68, 0
3, 46905, Note_on_c, 1, 79, 48
3, 46912, Note_on_c, 1, 72, 0
3, 46920, Note_on_c, 1, 77, 48
3, 46922, Note_on_c, 1, 79, 0
3, 46965, Note_on_c, 1, 76, 49
3, 46967, Note_on_c, 1, 77, 0
3, 46980, Note_on_c, 1, 77, 49
3, 46982, Note_on_c, 1, 76, 0
3, 47024, Note_on_c, 1, 79, 49
3, 47027, Note_on_c, 1, 77, 0
3, 47040, Note_on_c, 1, 80, 49
3, 47042, Note_on_c, 1, 79, 0
3, 47160, Note_on_c, 1, 77, 50
3, 47162, Note_on_c, 1, 80, 0
3, 47219, Note_on_c, 1, 77, 0
3, 47280, Note_on_c, 1, 77, 49
3, 47399, Note_on_c, 1, 77, 0
3, 47400, Note_on_c, 1, 75, 72
3, 47415, Note_on_c, 1, 74, 75
3, 47417, Note_on_c, 1, 75, 0
3, 47459, Note_on_c, 1, 74, 0
3, 47460, Note_on_c, 1, 72, 83
3, 47460, Note_on_c, 1, 74, 83
3, 47475, Note_on_c, 1, 71, 86
3, 47477, Note_on_c, 1, 72, 0
3, 47519, Note_on_c, 1, 71, 0
3, 47519, Note_on_c, 1, 74, 0
3, 47520, Note_on_c, 1, 67, 96
3, 47520, Note_on_c, 1, 72, 96
3, 47549, Note_on_c, 1, 72, 0
3, 47549, Note_on_c, 1, 67, 0
3, 47580, Note_on_c, 1, 80, 96
3, 47580, Note_on_c, 1, 72, 96
3, 47609, Note_on_c, 1, 72, 0
3, 47609, Note_on_c, 1, 80, 0
3, 47700, Note_on_c, 1, 78, 48
3, 47820, Note_on_c, 1, 78, 0
3, 47820, Note_on_c, 1, 75, 48
3, 47820, Note_on_c, 1, 79, 48
3, 47880, Note_on_c, 1, 71, 48
3, 47882, Note_on_c, 1, 75, 0
3, 47939, Note_on_c, 1, 71, 0
3, 47939, Note_on_c, 1, 79, 0
3, 47940, Note_on_c, 1, 77, 48
3, 47940, Note_on_c, 1, 74, 48
3, 47984, Note_on_c, 1, 74, 0
3, 47985, Note_on_c, 1, 71, 48
3, 47985, Note_on_c, 1, 74, 48
3, 47987, Note_on_c, 1, 77, 0
3, 47999, Note_on_c, 1, 74, 0
3, 47999, Note_on_c, 1, 71, 0
3, 48000, Note_on_c, 1, 72, 48
3, 48057, Note_on_c, 1, 72, 0
3, 48660, Note_on_c, 1, 78, 62
3, 48810, Note_on_c, 1, 79, 48
3, 48812, Note_on_c, 1, 78, 0
3, 48839, Note_on_c, 1, 79, 0
3, 48840, Note_on_c, 1, 79, 48
3, 48899, Note_on_c, 1, 79, 0
3, 48960, Note_on_c, 1, 80, 96
3, 48960, Note_on_c, 1, 72, 96
3, 49079, Note_on_c, 1, 72, 0
3, 49079, Note_on_c, 1, 80, 0
3, 49080, Note_on_c, 1, 80, 96
3, 49080, Note_on_c, 1, 72, 96
3, 49184, Note_on_c, 1, 72, 0
3, 49184, Note_on_c, 1, 80, 0
3, 49185, Note_on_c, 1, 80, 96
3, 49185, Note_on_c, 1, 72, 96
3, 49189, Note_on_c, 1, 72, 0
3, 49199, Note_on_c, 1, 80, 0
3, 49200, Note_on_c, 1, 81, 112
3, 49200, Note_on_c, 1, 72, 112
3, 49439, Note_on_c, 1, 81, 0
3, 49440, Note_on_c, 1, 75, 48
3, 49440, Note_on_c, 1, 79, 48
3, 49442, Note_on_c, 1, 72, 0
3, 49560, Note_on_c, 1, 77, 48
3, 49562, Note_on_c, 1, 75, 0
3, 49679, Note_on_c, 1, 77, 0
3, 49679, Note_on_c, 1, 79, 0
3, 49680, Note_on_c, 1, 75, 48
3, 49680, Note_on_c, 1, 79, 48
3, 49739, Note_on_c, 1, 79, 0
3, 49739, Note_on_c, 1, 75, 0
3, 49740, Note_on_c, 1, 78, 64
3, 49860, Note_on_c, 1, 79, 53
3, 49862, Note_on_c, 1, 78, 0
3, 49919, Note_on_c, 1, 79, 0
3, 49920, Note_on_c, 1, 72, 48
3, 49920, Note_on_c, 1, 75, 48
3, 49979, Note_on_c, 1, 72, 0
3, 49980, Note_on_c, 1, 67, 59
3, 50039, Note_on_c, 1, 67, 0
3, 50040, Note_on_c, 1, 67, 71
3, 50040, Note_on_c, 1, 74, 71
3, 50042, Note_on_c, 1, 75, 0
3, 50099, Note_on_c, 1, 67, 0
3, 50100, Note_on_c, 1, 67, 82
3, 50145, Note_on_c, 1, 72, 91
3, 50149, Note_on_c, 1, 74, 0
3, 50152, Note_on_c, 1, 72, 0
3, 50159, Note_on_c, 1, 67, 0
3, 50160, Note_on_c, 1, 72, 94
3, 50220, Note_on_c, 1, 72, 0
3, 51600, Note_on_c, 1, 80, 32
3, 52139, Note_on_c, 1, 80, 0
3, 53940, Note_on_c, 1, 83, 48
3, 54000, Note_on_c, 1, 84, 48
3, 54002, Note_on_c, 1, 83, 0
3, 54120, Note_on_c, 1, 79, 48
3, 54122, Note_on_c, 1, 84, 0
3, 54180, Note_on_c, 1, 82, 48
3, 54182, Note_on_c, 1, 79, 0
3, 54239, Note_on_c, 1, 82, 0
3, 54240, Note_on_c, 1, 72, 48
3, 54240, Note_on_c, 1, 80, 48
3, 54360, Note_on_c, 1, 79, 52
3, 54362, Note_on_c, 1, 80, 0
3, 54419, Note_on_c, 1, 72, 0
3, 54420, Note_on_c, 1, 72, 53
3, 54420, Note_on_c, 1, 77, 53
3, 54422, Note_on_c, 1, 79, 0
3, 54479, Note_on_c, 1, 77, 0
3, 54479, Note_on_c, 1, 72, 0
3, 54480, Note_on_c, 1, 72, 55
3, 54480, Note_on_c, 1, 76, 55
3, 54539, Note_on_c, 1, 72, 0
3, 54540, Note_on_c, 1, 77, 57
3, 54540, Note_on_c, 1, 72, 57
3, 54542, Note_on_c, 1, 76, 0
3, 54600, Note_on_c, 1, 79, 59
3, 54600, Note_on_c, 1, 76, 59
3, 54602, Note_on_c, 1, 72, 0
3, 54602, Note_on_c, 1, 77, 0
3, 54657, Note_on_c, 1, 79, 0
3, 54660, Note_on_c, 1, 80, 61
3, 54660, Note_on_c, 1, 77, 61
3, 54662, Note_on_c, 1, 76, 0
3, 54719, Note_on_c, 1, 77, 0
3, 54719, Note_on_c, 1, 80, 0
3, 54720, Note_on_c, 1, 76, 48
3, 54720, Note_on_c, 1, 79, 48
3, 54840, Note_on_c, 1, 75, 55
3, 54842, Note_on_c, 1, 76, 0
3, 54959, Note_on_c, 1, 75, 0
3, 54959, Note_on_c, 1, 79, 0
3, 55080, Note_on_c, 1, 77, 47
3, 55139, Note_on_c, 1, 77, 0
3, 55320, Note_on_c, 1, 75, 47
3, 55379, Note_on_c, 1, 75, 0
3, 55740, Note_on_c, 1, 79, 48
3, 55860, Note_on_c, 1, 79, 0
3, 55860, Note_on_c, 1, 80, 63
3, 55919, Note_on_c, 1, 80, 0
3, 55920, Note_on_c, 1, 80, 70
3, 56010, Note_on_c, 1, 71, 49
3, 56012, Note_on_c, 1, 80, 0
3, 56039, Note_on_c, 1, 71, 0
3, 56220, Note_on_c, 1, 79, 48
3, 56309, Note_on_c, 1, 79, 0
3, 56310, Note_on_c, 1, 80, 59
3, 56325, Note_on_c, 1, 80, 0
3, 56340, Note_on_c, 1, 80, 63
3, 56347, Note_on_c, 1, 80, 0
3, 56370, Note_on_c, 1, 80, 67
3, 56381, Note_on_c, 1, 80, 0
3, 56400, Note_on_c, 1, 80, 71
3, 56490, Note_on_c, 1, 71, 54
3, 56492, Note_on_c, 1, 80, 0
3, 56519, Note_on_c, 1, 71, 0
3, 58080, Note_on_c, 1, 71, 32
3, 58080, Note_on_c, 1, 77, 32
3, 58320, Note_on_c, 1, 72, 32
3, 58320, Note_on_c, 1, 75, 32
3, 58322, Note_on_c, 1, 77, 0
3, 58322, Note_on_c, 1, 71, 0
3, 58379, Note_on_c, 1, 72, 0
3, 58379, Note_on_c, 1, 75, 0
3, 58560, Note_on_c, 1, 77, 32
3, 58560, Note_on_c, 1, 71, 32
3, 58800, Note_on_c, 1, 75, 32
3, 58800, Note_on_c, 1, 72, 32
3, 58802, Note_on_c, 1, 71, 0
3, 58802, Note_on_c, 1, 77, 0
3, 58859, Note_on_c, 1, 75, 0
3, 58859, Note_on_c, 1, 72, 0
3, 59100, Note_on_c, 1, 79, 95
3, 59100, Note_on_c, 1, 72, 95
3, 59219, Note_on_c, 1, 72, 0
3, 59220, Note_on_c, 1, 72, 64
3, 59220, Note_on_c, 1, 75, 64
3, 59222, Note_on_c, 1, 79, 0
3, 59279, Note_on_c, 1, 75, 0
3, 59279, Note_on_c, 1, 72, 0
3, 59280, Note_on_c, 1, 72, 49
3, 59998, Note_on_c, 1, 72, 0
3, 59998, End_track
4, 0, Start_track
4, 0, MIDI_port, 0
4, 0, Title_t, "Clarinets"
4, 0, Program_c, 2, 71
4, 2160, Note_on_c, 2, 67, 48
4, 2160, Note_on_c, 2, 63, 48
4, 2399, Note_on_c, 2, 63, 0
4, 2399, Note_on_c, 2, 67, 0
4, 2400, Note_on_c, 2, 63, 48
4, 2400, Note_on_c, 2, 67, 48
4, 2639, Note_on_c, 2, 67, 0
4, 2639, Note_on_c, 2, 63, 0
4, 2640, Note_on_c, 2, 67, 48
4, 2640, Note_on_c, 2, 63, 48
4, 2759, Note_on_c, 2, 63, 0
4, 2759, Note_on_c, 2, 67, 0
4, 2760, Note_on_c, 2, 72, 48
4, 2760, Note_on_c, 2, 67, 48
4, 2819, Note_on_c, 2, 67, 0
4, 2819, Note_on_c, 2, 72, 0
4, 2820, Note_on_c, 2, 67, 48
4, 2820, Note_on_c, 2, 72, 48
4, 2879, Note_on_c, 2, 72, 0
4, 2879, Note_on_c, 2, 67, 0
4, 2880, Note_on_c, 2, 72, 48
4, 2880, Note_on_c, 2, 67, 48
4, 2940, Note_on_c, 2, 63, 56
4, 2940, Note_on_c, 2, 69, 56
4, 2949, Note_on_c, 2, 67, 0
4, 2949, Note_on_c, 2, 72, 0
4, 3000, Note_on_c, 2, 71, 48
4, 3000, Note_on_c, 2, 62, 48
4, 3009, Note_on_c, 2, 63, 0
4, 3009, Note_on_c, 2, 69, 0
4, 3059, Note_on_c, 2, 71, 0
4, 3059, Note_on_c, 2, 62, 0
4, 3120, Note_on_c, 2, 68, 48
4, 3120, Note_on_c, 2, 62, 48
4, 3239, Note_on_c, 2, 62, 0
4, 3239, Note_on_c, 2, 68, 0
4, 3360, Note_on_c, 2, 68, 48
4, 3360, Note_on_c, 2, 65, 48
4, 3419, Note_on_c, 2, 65, 0
4, 3419, Note_on_c, 2, 68, 0
4, 3480, Note_on_c, 2, 68, 48
4, 3659, Note_on_c, 2, 68, 0
4, 3660, Note_on_c, 2, 65, 48
4, 3660, Note_on_c, 2, 68, 48
4, 3720, Note_on_c, 2, 63, 48
4, 3720, Note_on_c, 2, 67, 48
4, 3729, Note_on_c, 2, 68, 0
4, 3729, Note_on_c, 2, 65, 0
4, 3780, Note_on_c, 2, 62, 48
4, 3780, Note_on_c, 2, 65, 48
4, 3789, Note_on_c, 2, 63, 0
4, 3789, Note_on_c, 2, 67, 0
4, 3839, Note_on_c, 2, 62, 0
4, 3839, Note_on_c, 2, 65, 0
4, 3840, Note_on_c, 2, 67, 48
4, 3840, Note_on_c, 2, 63, 48
4, 3899, Note_on_c, 2, 63, 0
4, 3899, Note_on_c, 2, 67, 0
4, 3900, Note_on_c, 2, 63, 48
4, 3900, Note_on_c, 2, 68, 48
4, 3944, Note_on_c, 2, 68, 0
4, 3944, Note_on_c, 2, 63, 0
4, 3945, Note_on_c, 2, 68, 48
4, 3945, Note_on_c, 2, 63, 48
4, 3959, Note_on_c, 2, 63, 0
4, 3959, Note_on_c, 2, 68, 0
4, 3960, Note_on_c, 2, 63, 48
4, 3960, Note_on_c, 2, 67, 48
4, 4019, Note_on_c, 2, 67, 0
4, 4019, Note_on_c, 2, 63, 0
4, 8880, Note_on_c, 2, 67, 48
4, 8880, Note_on_c, 2, 70, 48
4, 9000, Note_on_c, 2, 65, 48
4, 9000, Note_on_c, 2, 68, 48
4, 9009, Note_on_c, 2, 70, 0
4, 9009, Note_on_c, 2, 67, 0
4, 9060, Note_on_c, 2, 63, 48
4, 9060, Note_on_c, 2, 67, 48
4, 9069, Note_on_c, 2, 65, 0
4, 9069, Note_on_c, 2, 68, 0
4, 9119, Note_on_c, 2, 63, 0
4, 9119, Note_on_c, 2, 67, 0
4, 9120, Note_on_c, 2, 62, 48
4, 9120, Note_on_c, 2, 65, 48
4, 9359, Note_on_c, 2, 65, 0
4, 9359, Note_on_c, 2, 62, 0
4, 9360, Note_on_c, 2, 68, 80
4, 9480, Note_on_c, 2, 67, 88
4, 9489, Note_on_c, 2, 68, 0
4, 9540, Note_on_c, 2, 65, 92
4, 9540, Note_on_c, 2, 68, 92
4, 9549, Note_on_c, 2, 67, 0
4, 9599, Note_on_c, 2, 68, 0
4, 9599, Note_on_c, 2, 65, 0
4, 9600, Note_on_c, 2, 64, 92
4, 9600, Note_on_c, 2, 70, 92
4, 9659, Note_on_c, 2, 70, 0
4, 9659, Note_on_c, 2, 64, 0
4, 9705, Note_on_c, 2, 70, 96
4, 9705, Note_on_c, 2, 72, 96
4, 9714, Note_on_c, 2, 72, 0
4, 9714, Note_on_c, 2, 70, 0
4, 9720, Note_on_c, 2, 72, 96
4, 9720, Note_on_c, 2, 70, 96
4, 9839, Note_on_c, 2, 70, 0
4, 9839, Note_on_c, 2, 72, 0
4, 9960, Note_on_c, 2, 72, 48
4, 9960, Note_on_c, 2, 68, 48
4, 10004, Note_on_c, 2, 68, 0
4, 10004, Note_on_c, 2, 72, 0
4, 10020, Note_on_c, 2, 67, 48
4, 10020, Note_on_c, 2, 72, 48
4, 10064, Note_on_c, 2, 72, 0
4, 10064, Note_on_c, 2, 67, 0
4, 10080, Note_on_c, 2, 72, 48
4, 10080, Note_on_c, 2, 66, 48
4, 10109, Note_on_c, 2, 72, 0
4, 10140, Note_on_c, 2, 72, 48
4, 10200, Note_on_c, 2, 75, 56
4, 10209, Note_on_c, 2, 72, 0
4, 10260, Note_on_c, 2, 72, 56
4, 10269, Note_on_c, 2, 75, 0
4, 10320, Note_on_c, 2, 67, 56
4, 10320, Note_on_c, 2, 71, 56
4, 10329, Note_on_c, 2, 72, 0
4, 10329, Note_on_c, 2, 66, 0
4, 10379, Note_on_c, 2, 67, 0
4, 10379, Note_on_c, 2, 71, 0
4, 10560, Note_on_c, 2, 67, 48
4, 10560, Note_on_c, 2, 79, 48
4, 10680, Note_on_c, 2, 77, 48
4, 10680, Note_on_c, 2, 65, 48
4, 10689, Note_on_c, 2, 79, 0
4, 10689, Note_on_c, 2, 67, 0
4, 10740, Note_on_c, 2, 75, 48
4, 10740, Note_on_c, 2, 63, 48
4, 10749, Note_on_c, 2, 77, 0
4, 10749, Note_on_c, 2, 65, 0
4, 10799, Note_on_c, 2, 75, 0
4, 10799, Note_on_c, 2, 63, 0
4, 10800, Note_on_c, 2, 62, 48
4, 10800, Note_on_c, 2, 74, 48
4, 10919, Note_on_c, 2, 62, 0
4, 10920, Note_on_c, 2, 67, 52
4, 10920, Note_on_c, 2, 62, 48
4, 10929, Note_on_c, 2, 74, 0
4, 10980, Note_on_c, 2, 65, 52
4, 10989, Note_on_c, 2, 62, 0
4, 11039, Note_on_c, 2, 65, 0
4, 11040, Note_on_c, 2, 63, 56
4, 11160, Note_on_c, 2, 62, 52
4, 11169, Note_on_c, 2, 63, 0
4, 11220, Note_on_c, 2, 66, 48
4, 11220, Note_on_c, 2, 60, 48
4, 11229, Note_on_c, 2, 62, 0
4, 11229, Note_on_c, 2, 67, 0
4, 11279, Note_on_c, 2, 66, 0
4, 11279, Note_on_c, 2, 60, 0
4, 11280, Note_on_c, 2, 67, 48
4, 11339, Note_on_c, 2, 67, 0
4, 11340, Note_on_c, 2, 68, 48
4, 11400, Note_on_c, 2, 67, 50
4, 11409, Note_on_c, 2, 68, 0
4, 11460, Note_on_c, 2, 72, 52
4, 11469, Note_on_c, 2, 67, 0
4, 11520, Note_on_c, 2, 71, 54
4, 11529, Note_on_c, 2, 72, 0
4, 11580, Note_on_c, 2, 75, 56
4, 11589, Note_on_c, 2, 71, 0
4, 11640, Note_on_c, 2, 74, 58
4, 11649, Note_on_c, 2, 75, 0
4, 11700, Note_on_c, 2, 67, 58
4, 11700, Note_on_c, 2, 72, 58
4, 11709, Note_on_c, 2, 74, 0
4, 11759, Note_on_c, 2, 72, 0
4, 11759, Note_on_c, 2, 67, 0
4, 11760, Note_on_c, 2, 65, 64
4, 11760, Note_on_c, 2, 71, 64
4, 11880, Note_on_c, 2, 63, 56
4, 11880, Note_on_c, 2, 68, 56
4, 11889, Note_on_c, 2, 71, 0
4, 11889, Note_on_c, 2, 65, 0
4, 12000, Note_on_c, 2, 67, 48
4, 12000, Note_on_c, 2, 62, 48
4, 12009, Note_on_c, 2, 63, 0
4, 12009, Note_on_c, 2, 68, 0
4, 12119, Note_on_c, 2, 67, 0
4, 12119, Note_on_c, 2, 62, 0
4, 12120, Note_on_c, 2, 60, 96
4, 12120, Note_on_c, 2, 67, 96
4, 12239, Note_on_c, 2, 67, 0
4, 12239, Note_on_c, 2, 60, 0
4, 12240, Note_on_c, 2, 65, 48
4, 12240, Note_on_c, 2, 60, 48
4, 12359, Note_on_c, 2, 60, 0
4, 12359, Note_on_c, 2, 65, 0
4, 12480, Note_on_c, 2, 68, 48
4, 12480, Note_on_c, 2, 65, 48
4, 12599, Note_on_c, 2, 65, 0
4, 12599, Note_on_c, 2, 68, 0
4, 12720, Note_on_c, 2, 65, 48
4, 12720, Note_on_c, 2, 68, 48
4, 12899, Note_on_c, 2, 68, 0
4, 12899, Note_on_c, 2, 65, 0
4, 12900, Note_on_c, 2, 62, 88
4, 12900, Note_on_c, 2, 68, 88
4, 12959, Note_on_c, 2, 68, 0
4, 12959, Note_on_c, 2, 62, 0
4, 12960, Note_on_c, 2, 67, 96
4, 12989, Note_on_c, 2, 67, 0
4, 13020, Note_on_c, 2, 65, 96
4, 13020, Note_on_c, 2, 68, 96
4, 13049, Note_on_c, 2, 68, 0
4, 13049, Note_on_c, 2, 65, 0
4, 13140, Note_on_c, 2, 72, 48
4, 13140, Note_on_c, 2, 66, 48
4, 13259, Note_on_c, 2, 66, 0
4, 13259, Note_on_c, 2, 72, 0
4, 13260, Note_on_c, 2, 72, 52
4, 13260, Note_on_c, 2, 67, 52
4, 13320, Note_on_c, 2, 65, 56
4, 13320, Note_on_c, 2, 71, 56
4, 13329, Note_on_c, 2, 67, 0
4, 13329, Note_on_c, 2, 72, 0
4, 13379, Note_on_c, 2, 65, 0
4, 13379, Note_on_c, 2, 71, 0
4, 13380, Note_on_c, 2, 71, 52
4, 13380, Note_on_c, 2, 65, 52
4, 13425, Note_on_c, 2, 74, 49
4, 13426, Note_on_c, 2, 71, 0
4, 13439, Note_on_c, 2, 74, 0
4, 13439, Note_on_c, 2, 65, 0
4, 13440, Note_on_c, 2, 63, 48
4, 13440, Note_on_c, 2, 72, 48
4, 13499, Note_on_c, 2, 72, 0
4, 13499, Note_on_c, 2, 63, 0
4, 14400, Note_on_c, 2, 74, 96
4, 14400, Note_on_c, 2, 68, 96
4, 14519, Note_on_c, 2, 68, 0
4, 14519, Note_on_c, 2, 74, 0
4, 14520, Note_on_c, 2, 68, 96
4, 14520, Note_on_c, 2, 74, 96
4, 14624, Note_on_c, 2, 74, 0
4, 14624, Note_on_c, 2, 68, 0
4, 14625, Note_on_c, 2, 74, 96
4, 14625, Note_on_c, 2, 68, 96
4, 14639, Note_on_c, 2, 68, 0
4, 14639, Note_on_c, 2, 74, 0
4, 14640, Note_on_c, 2, 77, 112
4, 14640, Note_on_c, 2, 69, 112
4, 14820, Note_on_c, 2, 74, 64
4, 14829, Note_on_c, 2, 77, 0
4, 14850, Note_on_c, 2, 72, 56
4, 14859, Note_on_c, 2, 74, 0
4, 14879, Note_on_c, 2, 72, 0
4, 14879, Note_on_c, 2, 69, 0
4, 14880, Note_on_c, 2, 63, 48
4, 14880, Note_on_c, 2, 72, 48
4, 15000, Note_on_c, 2, 71, 48
4, 15000, Note_on_c, 2, 65, 48
4, 15009, Note_on_c, 2, 72, 0
4, 15009, Note_on_c, 2, 63, 0
4, 15119, Note_on_c, 2, 71, 0
4, 15119, Note_on_c, 2, 65, 0
4, 15120, Note_on_c, 2, 72, 48
4, 15120, Note_on_c, 2, 63, 48
4, 15179, Note_on_c, 2, 63, 0
4, 15179, Note_on_c, 2, 72, 0
4, 15360, Note_on_c, 2, 67, 48
4, 15360, Note_on_c, 2, 75, 48
4, 15480, Note_on_c, 2, 65, 48
4, 15480, Note_on_c, 2, 74, 48
4, 15489, Note_on_c, 2, 75, 0
4, 15489, Note_on_c, 2, 67, 0
4, 15585, Note_on_c, 2, 63, 48
4, 15585, Note_on_c, 2, 72, 48
4, 15586, Note_on_c, 2, 65, 0
4, 15586, Note_on_c, 2, 74, 0
4, 15599, Note_on_c, 2, 63, 0
4, 15599, Note_on_c, 2, 72, 0
4, 15600, Note_on_c, 2, 72, 48
4, 15600, Note_on_c, 2, 63, 48
4, 15659, Note_on_c, 2, 63, 0
4, 15659, Note_on_c, 2, 72, 0
4, 15780, Note_on_c, 2, 63, 96
4, 15780, Note_on_c, 2, 75, 96
4, 15840, Note_on_c, 2, 72, 64
4, 15840, Note_on_c, 2, 60, 64
4, 15849, Note_on_c, 2, 75, 0
4, 15849, Note_on_c, 2, 63, 0
4, 15899, Note_on_c, 2, 72, 0
4, 15899, Note_on_c, 2, 60, 0
4, 15900, Note_on_c, 2, 68, 96
4, 15944, Note_on_c, 2, 68, 0
4, 15945, Note_on_c, 2, 65, 96
4, 15959, Note_on_c, 2, 65, 0
4, 15960, Note_on_c, 2, 62, 96
4, 15989, Note_on_c, 2, 62, 0
4, 16020, Note_on_c, 2, 67, 96
4, 16049, Note_on_c, 2, 67, 0
4, 16080, Note_on_c, 2, 60, 48
4, 16109, Note_on_c, 2, 60, 0
4, 16200, Note_on_c, 2, 68, 48
4, 16200, Note_on_c, 2, 65, 48
4, 16229, Note_on_c, 2, 65, 0
4, 16229, Note_on_c, 2, 68, 0
4, 16320, Note_on_c, 2, 65, 48
4, 16320, Note_on_c, 2, 68, 48
4, 16349, Note_on_c, 2, 68, 0
4, 16349, Note_on_c, 2, 65, 0
4, 23280, Note_on_c, 2, 65, 112
4, 23280, Note_on_c, 2, 71, 112
4, 23519, Note_on_c, 2, 71, 0
4, 23519, Note_on_c, 2, 65, 0
4, 23520, Note_on_c, 2, 72, 127
4, 23520, Note_on_c, 2, 64, 127
4, 23699, Note_on_c, 2, 64, 0
4, 23699, Note_on_c, 2, 72, 0
4, 23700, Note_on_c, 2, 67, 127
4, 23700, Note_on_c, 2, 76, 127
4, 23729, Note_on_c, 2, 76, 0
4, 23729, Note_on_c, 2, 67, 0
4, 23760, Note_on_c, 2, 72, 127
4, 23760, Note_on_c, 2, 64, 127
4, 23939, Note_on_c, 2, 64, 0
4, 23939, Note_on_c, 2, 72, 0
4, 23940, Note_on_c, 2, 76, 127
4, 23940, Note_on_c, 2, 67, 127
4, 23969, Note_on_c, 2, 67, 0
4, 23969, Note_on_c, 2, 76, 0
4, 24000, Note_on_c, 2, 72, 127
4, 24000, Note_on_c, 2, 64, 127
4, 24029, Note_on_c, 2, 64, 0
4, 24029, Note_on_c, 2, 72, 0
4, 24060, Note_on_c, 2, 76, 127
4, 24060, Note_on_c, 2, 67, 127
4, 24089, Note_on_c, 2, 67, 0
4, 24089, Note_on_c, 2, 76, 0
4, 24120, Note_on_c, 2, 72, 127
4, 24120, Note_on_c, 2, 64, 127
4, 24149, Note_on_c, 2, 64, 0
4, 24149, Note_on_c, 2, 72, 0
4, 24180, Note_on_c, 2, 76, 127
4, 24180, Note_on_c, 2, 67, 127
4, 24209, Note_on_c, 2, 67, 0
4, 24209, Note_on_c, 2, 76, 0
4, 24240, Note_on_c, 2, 72, 127
4, 24240, Note_on_c, 2, 64, 127
4, 24269, Note_on_c, 2, 64, 0
4, 24269, Note_on_c, 2, 72, 0
4, 29040, Note_on_c, 2, 77, 96
4, 29279, Note_on_c, 2, 77, 0
4, 29280, Note_on_c, 2, 73, 112
4, 29519, Note_on_c, 2, 73, 0
4, 29520, Note_on_c, 2, 76, 112
4, 29699, Note_on_c, 2, 76, 0
4, 29700, Note_on_c, 2, 76, 96
4, 29709, Note_on_c, 2, 76, 0
4, 29710, Note_on_c, 2, 77, 96
4, 29719, Note_on_c, 2, 77, 0
4, 29720, Note_on_c, 2, 76, 96
4, 29729, Note_on_c, 2, 76, 0
4, 29730, Note_on_c, 2, 77, 96
4, 29737, Note_on_c, 2, 77, 0
4, 29738, Note_on_c, 2, 76, 96
4, 29745, Note_on_c, 2, 76, 0
4, 29746, Note_on_c, 2, 74, 96
4, 29752, Note_on_c, 2, 76, 96
4, 29753, Note_on_c, 2, 74, 0
4, 29759, Note_on_c, 2, 76, 0
4, 29760, Note_on_c, 2, 77, 96
4, 29819, Note_on_c, 2, 77, 0
4, 31200, Note_on_c, 2, 65, 127
4, 31320, Note_on_c, 2, 67, 127
4, 31329, Note_on_c, 2, 65, 0
4, 31380, Note_on_c, 2, 68, 127
4, 31389, Note_on_c, 2, 67, 0
4, 31439, Note_on_c, 2, 68, 0
4, 31440, Note_on_c, 2, 70, 127
4, 31619, Note_on_c, 2, 70, 0
4, 31620, Note_on_c, 2, 68, 127
4, 31679, Note_on_c, 2, 68, 0
4, 31680, Note_on_c, 2, 67, 127
4, 31740, Note_on_c, 2, 73, 127
4, 31749, Note_on_c, 2, 67, 0
4, 31800, Note_on_c, 2, 72, 127
4, 31809, Note_on_c, 2, 73, 0
4, 31860, Note_on_c, 2, 70, 127
4, 31869, Note_on_c, 2, 72, 0
4, 31919, Note_on_c, 2, 70, 0
4, 31920, Note_on_c, 2, 68, 127
4, 31980, Note_on_c, 2, 67, 127
4, 32039, Note_on_c, 2, 67, 0
4, 32040, Note_on_c, 2, 65, 127
4, 32099, Note_on_c, 2, 65, 0
4, 32100, Note_on_c, 2, 63, 127
4, 32159, Note_on_c, 2, 63, 0
4, 32160, Note_on_c, 2, 62, 127
4, 32219, Note_on_c, 2, 68, 0
4, 32220, Note_on_c, 2, 72, 127
4, 32280, Note_on_c, 2, 63, 127
4, 32280, Note_on_c, 2, 70, 127
4, 32289, Note_on_c, 2, 72, 0
4, 32289, Note_on_c, 2, 62, 0
4, 32340, Note_on_c, 2, 68, 127
4, 32340, Note_on_c, 2, 65, 127
4, 32349, Note_on_c, 2, 63, 0
4, 32349, Note_on_c, 2, 70, 0
4, 32399, Note_on_c, 2, 68, 0
4, 32399, Note_on_c, 2, 65, 0
4, 32400, Note_on_c, 2, 63, 127
4, 32520, Note_on_c, 2, 65, 127
4, 32529, Note_on_c, 2, 63, 0
4, 32580, Note_on_c, 2, 67, 127
4, 32589, Note_on_c, 2, 65, 0
4, 32639, Note_on_c, 2, 67, 0
4, 32640, Note_on_c, 2, 68, 127
4, 32820, Note_on_c, 2, 67, 127
4, 32829, Note_on_c, 2, 68, 0
4, 32879, Note_on_c, 2, 67, 0
4, 32880, Note_on_c, 2, 65, 127
4, 33000, Note_on_c, 2, 67, 127
4, 33009, Note_on_c, 2, 65, 0
4, 33060, Note_on_c, 2, 68, 127
4, 33069, Note_on_c, 2, 67, 0
4, 33119, Note_on_c, 2, 68, 0
4, 33120, Note_on_c, 2, 70, 127
4, 33300, Note_on_c, 2, 68, 127
4, 33309, Note_on_c, 2, 70, 0
4, 33359, Note_on_c, 2, 68, 0
4, 33360, Note_on_c, 2, 67, 127
4, 33480, Note_on_c, 2, 69, 127
4, 33489, Note_on_c, 2, 67, 0
4, 33540, Note_on_c, 2, 71, 127
4, 33549, Note_on_c, 2, 69, 0
4, 33599, Note_on_c, 2, 71, 0
4, 33600, Note_on_c, 2, 60, 127
4, 33600, Note_on_c, 2, 72, 127
4, 33869, Note_on_c, 2, 72, 0
4, 33869, Note_on_c, 2, 60, 0
4, 33870, Note_on_c, 2, 68, 127
4, 33870, Note_on_c, 2, 65, 127
4, 33884, Note_on_c, 2, 65, 0
4, 33884, Note_on_c, 2, 68, 0
4, 33900, Note_on_c, 2, 70, 127
4, 33900, Note_on_c, 2, 67, 127
4, 33914, Note_on_c, 2, 67, 0
4, 33914, Note_on_c, 2, 70, 0
4, 33930, Note_on_c, 2, 72, 127
4, 33930, Note_on_c, 2, 68, 127
4, 33944, Note_on_c, 2, 68, 0
4, 33944, Note_on_c, 2, 72, 0
4, 33960, Note_on_c, 2, 70, 127
4, 33960, Note_on_c, 2, 74, 127
4, 33974, Note_on_c, 2, 74, 0
4, 33974, Note_on_c, 2, 70, 0
4, 33990, Note_on_c, 2, 72, 127
4, 33990, Note_on_c, 2, 75, 127
4, 34004, Note_on_c, 2, 75, 0
4, 34004, Note_on_c, 2, 72, 0
4, 34020, Note_on_c, 2, 74, 127
4, 34020, Note_on_c, 2, 77, 127
4, 34034, Note_on_c, 2, 77, 0
4, 34034, Note_on_c, 2, 74, 0
4, 34050, Note_on_c, 2, 75, 127
4, 34050, Note_on_c, 2, 79, 127
4, 34064, Note_on_c, 2, 79, 0
4, 34064, Note_on_c, 2, 75, 0
4, 34080, Note_on_c, 2, 77, 127
4, 34080, Note_on_c, 2, 80, 127
4, 34094, Note_on_c, 2, 80, 0
4, 34094, Note_on_c, 2, 77, 0
4, 34110, Note_on_c, 2, 68, 127
4, 34124, Note_on_c, 2, 68, 0
4, 34140, Note_on_c, 2, 68, 127
4, 34154, Note_on_c, 2, 68, 0
4, 34170, Note_on_c, 2, 67, 127
4, 34184, Note_on_c, 2, 67, 0
4, 34200, Note_on_c, 2, 65, 127
4, 34214, Note_on_c, 2, 65, 0
4, 34230, Note_on_c, 2, 75, 127
4, 34244, Note_on_c, 2, 75, 0
4, 34260, Note_on_c, 2, 74, 127
4, 34274, Note_on_c, 2, 74, 0
4, 34290, Note_on_c, 2, 72, 127
4, 34304, Note_on_c, 2, 72, 0
4, 34320, Note_on_c, 2, 71, 127
4, 34349, Note_on_c, 2, 71, 0
4, 34350, Note_on_c, 2, 71, 127
4, 34379, Note_on_c, 2, 71, 0
4, 34380, Note_on_c, 2, 69, 127
4, 34394, Note_on_c, 2, 69, 0
4, 34410, Note_on_c, 2, 67, 127
4, 34410, Note_on_c, 2, 71, 127
4, 34424, Note_on_c, 2, 71, 0
4, 34424, Note_on_c, 2, 67, 0
4, 34440, Note_on_c, 2, 72, 127
4, 34440, Note_on_c, 2, 69, 127
4, 34454, Note_on_c, 2, 69, 0
4, 34454, Note_on_c, 2, 72, 0
4, 34470, Note_on_c, 2, 74, 127
4, 34470, Note_on_c, 2, 71, 127
4, 34484, Note_on_c, 2, 71, 0
4, 34484, Note_on_c, 2, 74, 0
4, 34500, Note_on_c, 2, 75, 127
4, 34500, Note_on_c, 2, 72, 127
4, 34514, Note_on_c, 2, 72, 0
4, 34514, Note_on_c, 2, 75, 0
4, 34530, Note_on_c, 2, 77, 127
4, 34530, Note_on_c, 2, 74, 127
4, 34544, Note_on_c, 2, 74, 0
4, 34544, Note_on_c, 2, 77, 0
4, 34980, Note_on_c, 2, 74, 127
4, 35099, Note_on_c, 2, 74, 0
4, 35100, Note_on_c, 2, 72, 127
4, 35130, Note_on_c, 2, 70, 127
4, 35139, Note_on_c, 2, 72, 0
4, 35160, Note_on_c, 2, 68, 127
4, 35169, Note_on_c, 2, 70, 0
4, 35220, Note_on_c, 2, 72, 127
4, 35229, Note_on_c, 2, 68, 0
4, 35339, Note_on_c, 2, 72, 0
4, 35340, Note_on_c, 2, 70, 127
4, 35370, Note_on_c, 2, 69, 127
4, 35379, Note_on_c, 2, 70, 0
4, 35400, Note_on_c, 2, 67, 127
4, 35409, Note_on_c, 2, 69, 0
4, 35460, Note_on_c, 2, 70, 127
4, 35469, Note_on_c, 2, 67, 0
4, 35579, Note_on_c, 2, 70, 0
4, 35580, Note_on_c, 2, 69, 127
4, 35610, Note_on_c, 2, 67, 127
4, 35619, Note_on_c, 2, 69, 0
4, 35640, Note_on_c, 2, 66, 127
4, 35649, Note_on_c, 2, 67, 0
4, 35700, Note_on_c, 2, 69, 127
4, 35709, Note_on_c, 2, 66, 0
4, 35819, Note_on_c, 2, 69, 0
4, 35820, Note_on_c, 2, 67, 127
4, 35850, Note_on_c, 2, 69, 127
4, 35859, Note_on_c, 2, 67, 0
4, 35880, Note_on_c, 2, 70, 127
4, 35889, Note_on_c, 2, 69, 0
4, 35939, Note_on_c, 2, 70, 0
4, 35940, Note_on_c, 2, 67, 127
4, 35940, Note_on_c, 2, 70, 127
4, 35999, Note_on_c, 2, 70, 0
4, 35999, Note_on_c, 2, 67, 0
4, 36000, Note_on_c, 2, 70, 127
4, 36000, Note_on_c, 2, 67, 127
4, 36029, Note_on_c, 2, 67, 0
4, 36029, Note_on_c, 2, 70, 0
4, 36840, Note_on_c, 2, 72, 48
4, 36840, Note_on_c, 2, 66, 48
4, 36960, Note_on_c, 2, 67, 48
4, 36960, Note_on_c, 2, 70, 48
4, 36962, Note_on_c, 2, 66, 0
4, 36962, Note_on_c, 2, 72, 0
4, 37019, Note_on_c, 2, 67, 0
4, 37019, Note_on_c, 2, 70, 0
4, 39840, Note_on_c, 2, 71, 127
4, 39840, Note_on_c, 2, 68, 127
4, 40139, Note_on_c, 2, 68, 0
4, 40139, Note_on_c, 2, 71, 0
4, 40140, Note_on_c, 2, 68, 127
4, 40140, Note_on_c, 2, 71, 127
4, 40199, Note_on_c, 2, 71, 0
4, 40199, Note_on_c, 2, 68, 0
4, 40200, Note_on_c, 2, 71, 127
4, 40200, Note_on_c, 2, 68, 127
4, 40259, Note_on_c, 2, 68, 0
4, 40259, Note_on_c, 2, 71, 0
4, 40260, Note_on_c, 2, 68, 127
4, 40260, Note_on_c, 2, 71, 127
4, 40319, Note_on_c, 2, 71, 0
4, 40319, Note_on_c, 2, 68, 0
4, 40320, Note_on_c, 2, 71, 127
4, 40320, Note_on_c, 2, 68, 127
4, 40379, Note_on_c, 2, 68, 0
4, 40379, Note_on_c, 2, 71, 0
4, 41520, Note_on_c, 2, 60, 64
4, 41625, Note_on_c, 2, 62, 64
4, 41626, Note_on_c, 2, 60, 0
4, 41640, Note_on_c, 2, 60, 64
4, 41642, Note_on_c, 2, 62, 0
4, 41685, Note_on_c, 2, 59, 64
4, 41687, Note_on_c, 2, 60, 0
4, 41700, Note_on_c, 2, 60, 64
4, 41702, Note_on_c, 2, 59, 0
4, 41745, Note_on_c, 2, 62, 64
4, 41747, Note_on_c, 2, 60, 0
4, 41760, Note_on_c, 2, 63, 64
4, 41762, Note_on_c, 2, 62, 0
4, 41880, Note_on_c, 2, 60, 64
4, 41882, Note_on_c, 2, 63, 0
4, 41939, Note_on_c, 2, 60, 0
4, 42000, Note_on_c, 2, 67, 64
4, 42119, Note_on_c, 2, 67, 0
4, 42120, Note_on_c, 2, 65, 64
4, 42135, Note_on_c, 2, 63, 64
4, 42137, Note_on_c, 2, 65, 0
4, 42180, Note_on_c, 2, 63, 0
4, 42180, Note_on_c, 2, 62, 64
4, 42195, Note_on_c, 2, 60, 64
4, 42197, Note_on_c, 2, 62, 0
4, 42239, Note_on_c, 2, 60, 0
4, 42240, Note_on_c, 2, 63, 64
4, 42360, Note_on_c, 2, 62, 64
4, 42362, Note_on_c, 2, 63, 0
4, 42419, Note_on_c, 2, 62, 0
4, 42480, Note_on_c, 2, 62, 64
4, 42599, Note_on_c, 2, 62, 0
4, 42600, Note_on_c, 2, 62, 64
4, 42645, Note_on_c, 2, 63, 64
4, 42647, Note_on_c, 2, 62, 0
4, 42660, Note_on_c, 2, 65, 64
4, 42662, Note_on_c, 2, 63, 0
4, 42705, Note_on_c, 2, 67, 64
4, 42707, Note_on_c, 2, 65, 0
4, 42720, Note_on_c, 2, 67, 0
4, 42720, Note_on_c, 2, 68, 64
4, 42840, Note_on_c, 2, 65, 55
4, 43019, Note_on_c, 2, 65, 0
4, 43019, Note_on_c, 2, 68, 0
4, 43020, Note_on_c, 2, 68, 55
4, 43020, Note_on_c, 2, 65, 55
4, 43080, Note_on_c, 2, 63, 53
4, 43080, Note_on_c, 2, 67, 53
4, 43082, Note_on_c, 2, 65, 0
4, 43082, Note_on_c, 2, 68, 0
4, 43140, Note_on_c, 2, 62, 50
4, 43140, Note_on_c, 2, 65, 50
4, 43142, Note_on_c, 2, 63, 0
4, 43142, Note_on_c, 2, 67, 0
4, 43199, Note_on_c, 2, 62, 0
4, 43199, Note_on_c, 2, 65, 0
4, 43200, Note_on_c, 2, 63, 48
4, 43201, Note_on_c, 2, 67, 48
4, 43259, Note_on_c, 2, 63, 0
4, 43260, Note_on_c, 2, 67, 0
4, 43260, Note_on_c, 2, 63, 47
4, 43260, Note_on_c, 2, 68, 47
4, 43304, Note_on_c, 2, 68, 0
4, 43304, Note_on_c, 2, 63, 0
4, 43305, Note_on_c, 2, 68, 47
4, 43305, Note_on_c, 2, 63, 47
4, 43309, Note_on_c, 2, 63, 0
4, 43311, Note_on_c, 2, 68, 0
4, 43320, Note_on_c, 2, 67, 47
4, 43320, Note_on_c, 2, 63, 47
4, 43365, Note_on_c, 2, 67, 0
4, 43371, Note_on_c, 2, 63, 0
4, 44400, Note_on_c, 2, 72, 47
4, 44400, Note_on_c, 2, 70, 47
4, 44519, Note_on_c, 2, 72, 0
4, 44520, Note_on_c, 2, 68, 47
4, 44520, Note_on_c, 2, 72, 47
4, 44522, Note_on_c, 2, 70, 0
4, 44579, Note_on_c, 2, 72, 0
4, 44580, Note_on_c, 2, 67, 47
4, 44580, Note_on_c, 2, 72, 47
4, 44582, Note_on_c, 2, 68, 0
4, 44640, Note_on_c, 2, 66, 53
4, 44643, Note_on_c, 2, 67, 0
4, 44759, Note_on_c, 2, 66, 0
4, 44759, Note_on_c, 2, 72, 0
4, 44760, Note_on_c, 2, 60, 94
4, 44760, Note_on_c, 2, 72, 94
4, 44850, Note_on_c, 2, 66, 61
4, 44852, Note_on_c, 2, 72, 0
4, 44879, Note_on_c, 2, 66, 0
4, 44880, Note_on_c, 2, 59, 49
4, 44880, Note_on_c, 2, 67, 49
4, 44882, Note_on_c, 2, 60, 0
4, 44939, Note_on_c, 2, 67, 0
4, 44944, Note_on_c, 2, 59, 0
4, 45120, Note_on_c, 2, 67, 48
4, 45240, Note_on_c, 2, 65, 48
4, 45242, Note_on_c, 2, 67, 0
4, 45300, Note_on_c, 2, 63, 49
4, 45302, Note_on_c, 2, 65, 0
4, 45359, Note_on_c, 2, 63, 0
4, 45360, Note_on_c, 2, 62, 47
4, 45480, Note_on_c, 2, 67, 55
4, 45482, Note_on_c, 2, 62, 0
4, 45539, Note_on_c, 2, 67, 0
4, 45540, Note_on_c, 2, 79, 59
4, 45540, Note_on_c, 2, 67, 59
4, 45780, Note_on_c, 2, 78, 53
4, 45780, Note_on_c, 2, 66, 53
4, 45782, Note_on_c, 2, 67, 0
4, 45782, Note_on_c, 2, 79, 0
4, 45840, Note_on_c, 2, 79, 49
4, 45840, Note_on_c, 2, 67, 49
4, 45842, Note_on_c, 2, 78, 0
4, 45842, Note_on_c, 2, 66, 0
4, 45899, Note_on_c, 2, 79, 0
4, 45899, Note_on_c, 2, 67, 0
4, 46590, Note_on_c, 2, 69, 49
4, 46604, Note_on_c, 2, 69, 0
4, 46620, Note_on_c, 2, 70, 51
4, 46635, Note_on_c, 2, 70, 0
4, 46650, Note_on_c, 2, 71, 53
4, 46666, Note_on_c, 2, 71, 0
4, 46680, Note_on_c, 2, 60, 56
4, 46680, Note_on_c, 2, 72, 56
4, 46693, Note_on_c, 2, 72, 0
4, 46710, Note_on_c, 2, 73, 58
4, 46719, Note_on_c, 2, 73, 0
4, 46740, Note_on_c, 2, 74, 60
4, 46754, Note_on_c, 2, 74, 0
4, 46770, Note_on_c, 2, 76, 63
4, 46784, Note_on_c, 2, 76, 0
4, 46784, Note_on_c, 2, 60, 0
4, 46785, Note_on_c, 2, 60, 64
4, 46790, Note_on_c, 2, 60, 0
4, 46800, Note_on_c, 2, 77, 48
4, 46800, Note_on_c, 2, 60, 48
4, 46904, Note_on_c, 2, 60, 0
4, 46904, Note_on_c, 2, 77, 0
4, 46905, Note_on_c, 2, 67, 48
4, 46920, Note_on_c, 2, 65, 48
4, 46923, Note_on_c, 2, 67, 0
4, 46965, Note_on_c, 2, 64, 1
4, 46967, Note_on_c, 2, 65, 0
4, 46980, Note_on_c, 2, 65, 48
4, 46982, Note_on_c, 2, 64, 0
4, 47025, Note_on_c, 2, 67, 48
4, 47027, Note_on_c, 2, 65, 0
4, 47040, Note_on_c, 2, 68, 48
4, 47042, Note_on_c, 2, 67, 0
4, 47160, Note_on_c, 2, 65, 48
4, 47162, Note_on_c, 2, 68, 0
4, 47219, Note_on_c, 2, 65, 0
4, 47280, Note_on_c, 2, 65, 48
4, 47280, Note_on_c, 2, 71, 48
4, 47400, Note_on_c, 2, 63, 72
4, 47405, Note_on_c, 2, 65, 0
4, 47415, Note_on_c, 2, 62, 75
4, 47417, Note_on_c, 2, 63, 0
4, 47460, Note_on_c, 2, 60, 83
4, 47460, Note_on_c, 2, 80, 83
4, 47462, Note_on_c, 2, 62, 0
4, 47466, Note_on_c, 2, 71, 0
4, 47475, Note_on_c, 2, 59, 86
4, 47477, Note_on_c, 2, 60, 0
4, 47519, Note_on_c, 2, 80, 0
4, 47520, Note_on_c, 2, 58, 95
4, 47520, Note_on_c, 2, 79, 95
4, 47522, Note_on_c, 2, 59, 0
4, 47549, Note_on_c, 2, 79, 0
4, 47549, Note_on_c, 2, 58, 0
4, 47580, Note_on_c, 2, 72, 96
4, 47580, Note_on_c, 2, 68, 96
4, 47609, Note_on_c, 2, 68, 0
4, 47609, Note_on_c, 2, 72, 0
4, 47640, Note_on_c, 2, 72, 48
4, 47640, Note_on_c, 2, 66, 48
4, 47819, Note_on_c, 2, 66, 0
4, 47819, Note_on_c, 2, 72, 0
4, 47820, Note_on_c, 2, 72, 55
4, 47820, Note_on_c, 2, 67, 55
4, 47880, Note_on_c, 2, 65, 53
4, 47880, Note_on_c, 2, 71, 53
4, 47882, Note_on_c, 2, 67, 0
4, 47882, Note_on_c, 2, 72, 0
4, 47939, Note_on_c, 2, 65, 0
4, 47939, Note_on_c, 2, 71, 0
4, 47940, Note_on_c, 2, 65, 50
4, 47940, Note_on_c, 2, 71, 50
4, 47984, Note_on_c, 2, 65, 0
4, 47985, Note_on_c, 2, 67, 48
4, 47985, Note_on_c, 2, 65, 48
4, 47987, Note_on_c, 2, 71, 0
4, 47991, Note_on_c, 2, 65, 0
4, 47991, Note_on_c, 2, 67, 0
4, 48000, Note_on_c, 2, 67, 47
4, 48000, Note_on_c, 2, 63, 47
4, 48059, Note_on_c, 2, 63, 0
4, 48059, Note_on_c, 2, 67, 0
4, 48660, Note_on_c, 2, 66, 64
4, 48810, Note_on_c, 2, 67, 47
4, 48811, Note_on_c, 2, 66, 0
4, 48839, Note_on_c, 2, 67, 0
4, 48840, Note_on_c, 2, 67, 47
4, 48899, Note_on_c, 2, 67, 0
4, 48960, Note_on_c, 2, 74, 95
4, 48960, Note_on_c, 2, 68, 95
4, 49079, Note_on_c, 2, 68, 0
4, 49079, Note_on_c, 2, 74, 0
4, 49080, Note_on_c, 2, 74, 95
4, 49080, Note_on_c, 2, 68, 95
4, 49184, Note_on_c, 2, 68, 0
4, 49184, Note_on_c, 2, 74, 0
4, 49185, Note_on_c, 2, 74, 95
4, 49185, Note_on_c, 2, 68, 95
4, 49190, Note_on_c, 2, 74, 0
4, 49191, Note_on_c, 2, 68, 0
4, 49200, Note_on_c, 2, 75, 110
4, 49200, Note_on_c, 2, 69, 110
4, 49380, Note_on_c, 2, 74, 64
4, 49382, Note_on_c, 2, 75, 0
4, 49410, Note_on_c, 2, 72, 57
4, 49412, Note_on_c, 2, 74, 0
4, 49439, Note_on_c, 2, 72, 0
4, 49439, Note_on_c, 2, 69, 0
4, 49440, Note_on_c, 2, 63, 49
4, 49440, Note_on_c, 2, 72, 49
4, 49560, Note_on_c, 2, 65, 48
4, 49560, Note_on_c, 2, 71, 48
4, 49562, Note_on_c, 2, 72, 0
4, 49562, Note_on_c, 2, 63, 0
4, 49680, Note_on_c, 2, 72, 48
4, 49680, Note_on_c, 2, 63, 48
4, 49681, Note_on_c, 2, 65, 0
4, 49683, Note_on_c, 2, 71, 0
4, 49739, Note_on_c, 2, 72, 0
4, 49739, Note_on_c, 2, 63, 0
4, 49740, Note_on_c, 2, 66, 64
4, 49860, Note_on_c, 2, 67, 47
4, 49861, Note_on_c, 2, 66, 0
4, 49919, Note_on_c, 2, 67, 0
4, 49920, Note_on_c, 2, 72, 47
4, 49920, Note_on_c, 2, 67, 47
4, 50040, Note_on_c, 2, 65, 71
4, 50040, Note_on_c, 2, 71, 71
4, 50042, Note_on_c, 2, 67, 0
4, 50042, Note_on_c, 2, 72, 0
4, 50145, Note_on_c, 2, 72, 91
4, 50145, Note_on_c, 2, 63, 91
4, 50146, Note_on_c, 2, 65, 0
4, 50146, Note_on_c, 2, 71, 0
4, 50150, Note_on_c, 2, 72, 0
4, 50159, Note_on_c, 2, 63, 0
4, 50160, Note_on_c, 2, 72, 94
4, 50160, Note_on_c, 2, 63, 94
4, 50219, Note_on_c, 2, 63, 0
4, 50219, Note_on_c, 2, 72, 0
4, 51840, Note_on_c, 2, 78, 32
4, 52080, Note_on_c, 2, 77, 32
4, 52082, Note_on_c, 2, 78, 0
4, 52139, Note_on_c, 2, 77, 0
4, 52920, Note_on_c, 2, 72, 32
4, 53040, Note_on_c, 2, 65, 31
4, 53042, Note_on_c, 2, 72, 0
4, 53159, Note_on_c, 2, 65, 0
4, 53250, Note_on_c, 2, 65, 32
4, 53280, Note_on_c, 2, 67, 32
4, 53282, Note_on_c, 2, 65, 0
4, 53399, Note_on_c, 2, 67, 0
4, 53490, Note_on_c, 2, 67, 32
4, 53520, Note_on_c, 2, 60, 32
4, 53522, Note_on_c, 2, 67, 0
4, 53579, Note_on_c, 2, 60, 0
4, 53940, Note_on_c, 2, 71, 35
4, 54000, Note_on_c, 2, 72, 36
4, 54002, Note_on_c, 2, 71, 0
4, 54120, Note_on_c, 2, 67, 39
4, 54122, Note_on_c, 2, 72, 0
4, 54180, Note_on_c, 2, 70, 40
4, 54182, Note_on_c, 2, 67, 0
4, 54240, Note_on_c, 2, 68, 41
4, 54242, Note_on_c, 2, 70, 0
4, 54360, Note_on_c, 2, 67, 44
4, 54362, Note_on_c, 2, 68, 0
4, 54420, Note_on_c, 2, 65, 45
4, 54422, Note_on_c, 2, 67, 0
4, 54480, Note_on_c, 2, 64, 48
4, 54482, Note_on_c, 2, 65, 0
4, 54540, Note_on_c, 2, 72, 48
4, 54540, Note_on_c, 2, 68, 48
4, 54542, Note_on_c, 2, 64, 0
4, 54599, Note_on_c, 2, 72, 0
4, 54600, Note_on_c, 2, 67, 48
4, 54600, Note_on_c, 2, 72, 48
4, 54602, Note_on_c, 2, 68, 0
4, 54659, Note_on_c, 2, 72, 0
4, 54660, Note_on_c, 2, 72, 48
4, 54660, Note_on_c, 2, 65, 48
4, 54662, Note_on_c, 2, 67, 0
4, 54719, Note_on_c, 2, 72, 0
4, 54720, Note_on_c, 2, 64, 48
4, 54720, Note_on_c, 2, 72, 48
4, 54722, Note_on_c, 2, 65, 0
4, 54839, Note_on_c, 2, 72, 0
4, 54840, Note_on_c, 2, 72, 48
4, 54842, Note_on_c, 2, 64, 0
4, 54959, Note_on_c, 2, 72, 0
4, 55080, Note_on_c, 2, 73, 48
4, 55080, Note_on_c, 2, 68, 48
4, 55139, Note_on_c, 2, 68, 0
4, 55139, Note_on_c, 2, 73, 0
4, 55320, Note_on_c, 2, 63, 48
4, 55320, Note_on_c, 2, 72, 48
4, 55379, Note_on_c, 2, 72, 0
4, 55379, Note_on_c, 2, 63, 0
4, 55740, Note_on_c, 2, 67, 63
4, 55860, Note_on_c, 2, 68, 48
4, 55862, Note_on_c, 2, 67, 0
4, 55919, Note_on_c, 2, 68, 0
4, 55920, Note_on_c, 2, 68, 64
4, 56010, Note_on_c, 2, 59, 47
4, 56012, Note_on_c, 2, 68, 0
4, 56039, Note_on_c, 2, 59, 0
4, 56220, Note_on_c, 2, 67, 47
4, 56310, Note_on_c, 2, 68, 55
4, 56312, Note_on_c, 2, 67, 0
4, 56325, Note_on_c, 2, 68, 0
4, 56340, Note_on_c, 2, 68, 57
4, 56355, Note_on_c, 2, 68, 0
4, 56370, Note_on_c, 2, 68, 60
4, 56385, Note_on_c, 2, 68, 0
4, 56400, Note_on_c, 2, 68, 62
4, 56490, Note_on_c, 2, 59, 48
4, 56492, Note_on_c, 2, 68, 0
4, 56519, Note_on_c, 2, 59, 0
4, 59100, Note_on_c, 2, 67, 94
4, 59100, Note_on_c, 2, 72, 94
4, 59219, Note_on_c, 2, 72, 0
4, 59220, Note_on_c, 2, 63, 64
4, 59220, Note_on_c, 2, 72, 64
4, 59222, Note_on_c, 2, 67, 0
4, 59279, Note_on_c, 2, 72, 0
4, 59279, Note_on_c, 2, 63, 0
4, 59280, Note_on_c, 2, 67, 48
4, 59280, Note_on_c, 2, 63, 48
4, 59998, Note_on_c, 2, 63, 0
4, 59998, Note_on_c, 2, 67, 0
4, 59998, End_track
5, 0, Start_track
5, 0, MIDI_port, 0
5, 0, Title_t, "Bassoons"
5, 0, Program_c, 3, 70
5, 2160, Note_on_c, 3, 60, 48
5, 2160, Note_on_c, 3, 48, 48
5, 2399, Note_on_c, 3, 48, 0
5, 2399, Note_on_c, 3, 60, 0
5, 2400, Note_on_c, 3, 48, 48
5, 2400, Note_on_c, 3, 60, 48
5, 2639, Note_on_c, 3, 60, 0
5, 2639, Note_on_c, 3, 48, 0
5, 2640, Note_on_c, 3, 60, 48
5, 2640, Note_on_c, 3, 48, 48
5, 2759, Note_on_c, 3, 48, 0
5, 2759, Note_on_c, 3, 60, 0
5, 2760, Note_on_c, 3, 51, 48
5, 2760, Note_on_c, 3, 63, 48
5, 2819, Note_on_c, 3, 63, 0
5, 2819, Note_on_c, 3, 51, 0
5, 2820, Note_on_c, 3, 63, 48
5, 2820, Note_on_c, 3, 51, 48
5, 2879, Note_on_c, 3, 51, 0
5, 2879, Note_on_c, 3, 63, 0
5, 2880, Note_on_c, 3, 63, 48
5, 2880, Note_on_c, 3, 60, 48
5, 2940, Note_on_c, 3, 66, 56
5, 2949, Note_on_c, 3, 63, 0
5, 3000, Note_on_c, 3, 67, 48
5, 3000, Note_on_c, 3, 59, 48
5, 3009, Note_on_c, 3, 66, 0
5, 3009, Note_on_c, 3, 60, 0
5, 3059, Note_on_c, 3, 67, 0
5, 3059, Note_on_c, 3, 59, 0
5, 3120, Note_on_c, 3, 53, 48
5, 3120, Note_on_c, 3, 59, 48
5, 3239, Note_on_c, 3, 59, 0
5, 3239, Note_on_c, 3, 53, 0
5, 3360, Note_on_c, 3, 47, 48
5, 3360, Note_on_c, 3, 59, 48
5, 3479, Note_on_c, 3, 59, 0
5, 3479, Note_on_c, 3, 47, 0
5, 3600, Note_on_c, 3, 58, 48
5, 3600, Note_on_c, 3, 46, 48
5, 3660, Note_on_c, 3, 53, 48
5, 3660, Note_on_c, 3, 50, 48
5, 3669, Note_on_c, 3, 46, 0
5, 3669, Note_on_c, 3, 58, 0
5, 3720, Note_on_c, 3, 55, 48
5, 3720, Note_on_c, 3, 51, 48
5, 3729, Note_on_c, 3, 53, 0
5, 3729, Note_on_c, 3, 50, 0
5, 3780, Note_on_c, 3, 56, 48
5, 3780, Note_on_c, 3, 53, 48
5, 3789, Note_on_c, 3, 55, 0
5, 3789, Note_on_c, 3, 51, 0
5, 3839, Note_on_c, 3, 56, 0
5, 3839, Note_on_c, 3, 53, 0
5, 3840, Note_on_c, 3, 55, 48
5, 3840, Note_on_c, 3, 51, 48
5, 3899, Note_on_c, 3, 51, 0
5, 3899, Note_on_c, 3, 55, 0
5, 3900, Note_on_c, 3, 60, 48
5, 3900, Note_on_c, 3, 56, 48
5, 3944, Note_on_c, 3, 56, 0
5, 3944, Note_on_c, 3, 60, 0
5, 3945, Note_on_c, 3, 56, 48
5, 3945, Note_on_c, 3, 60, 48
5, 3959, Note_on_c, 3, 60, 0
5, 3959, Note_on_c, 3, 56, 0
5, 3960, Note_on_c, 3, 51, 48
5, 3960, Note_on_c, 3, 58, 48
5, 4019, Note_on_c, 3, 58, 0
5, 4019, Note_on_c, 3, 51, 0
5, 6000, Note_on_c, 3, 55, 48
5, 6420, Note_on_c, 3, 54, 52
5, 6429, Note_on_c, 3, 55, 0
5, 6480, Note_on_c, 3, 55, 48
5, 6489, Note_on_c, 3, 54, 0
5, 6539, Note_on_c, 3, 55, 0
5, 8880, Note_on_c, 3, 51, 48
5, 9119, Note_on_c, 3, 51, 0
5, 9120, Note_on_c, 3, 58, 48
5, 9359, Note_on_c, 3, 58, 0
5, 9360, Note_on_c, 3, 63, 80
5, 9360, Note_on_c, 3, 60, 80
5, 9480, Note_on_c, 3, 58, 88
5, 9480, Note_on_c, 3, 62, 88
5, 9489, Note_on_c, 3, 60, 0
5, 9489, Note_on_c, 3, 63, 0
5, 9540, Note_on_c, 3, 56, 88
5, 9540, Note_on_c, 3, 60, 88
5, 9549, Note_on_c, 3, 58, 0
5, 9549, Note_on_c, 3, 62, 0
5, 9599, Note_on_c, 3, 56, 0
5, 9599, Note_on_c, 3, 60, 0
5, 9600, Note_on_c, 3, 55, 92
5, 9600, Note_on_c, 3, 61, 92
5, 9659, Note_on_c, 3, 61, 0
5, 9659, Note_on_c, 3, 55, 0
5, 9705, Note_on_c, 3, 52, 96
5, 9705, Note_on_c, 3, 60, 96
5, 9714, Note_on_c, 3, 60, 0
5, 9714, Note_on_c, 3, 52, 0
5, 9720, Note_on_c, 3, 60, 96
5, 9720, Note_on_c, 3, 52, 96
5, 9839, Note_on_c, 3, 52, 0
5, 9839, Note_on_c, 3, 60, 0
5, 9960, Note_on_c, 3, 60, 48
5, 9960, Note_on_c, 3, 53, 48
5, 10004, Note_on_c, 3, 53, 0
5, 10004, Note_on_c, 3, 60, 0
5, 10020, Note_on_c, 3, 55, 48
5, 10020, Note_on_c, 3, 60, 48
5, 10064, Note_on_c, 3, 60, 0
5, 10064, Note_on_c, 3, 55, 0
5, 10080, Note_on_c, 3, 60, 48
5, 10080, Note_on_c, 3, 56, 48
5, 10109, Note_on_c, 3, 60, 0
5, 10140, Note_on_c, 3, 60, 48
5, 10200, Note_on_c, 3, 63, 56
5, 10209, Note_on_c, 3, 60, 0
5, 10260, Note_on_c, 3, 60, 48
5, 10269, Note_on_c, 3, 63, 0
5, 10320, Note_on_c, 3, 55, 48
5, 10320, Note_on_c, 3, 67, 48
5, 10329, Note_on_c, 3, 60, 0
5, 10329, Note_on_c, 3, 56, 0
5, 10379, Note_on_c, 3, 55, 0
5, 10440, Note_on_c, 3, 62, 48
5, 10449, Note_on_c, 3, 67, 0
5, 10500, Note_on_c, 3, 65, 48
5, 10509, Note_on_c, 3, 62, 0
5, 10560, Note_on_c, 3, 63, 48
5, 10569, Note_on_c, 3, 65, 0
5, 10680, Note_on_c, 3, 62, 48
5, 10689, Note_on_c, 3, 63, 0
5, 10740, Note_on_c, 3, 60, 48
5, 10749, Note_on_c, 3, 62, 0
5, 10799, Note_on_c, 3, 60, 0
5, 10800, Note_on_c, 3, 55, 48
5, 10800, Note_on_c, 3, 59, 48
5, 10919, Note_on_c, 3, 59, 0
5, 10919, Note_on_c, 3, 55, 0
5, 10920, Note_on_c, 3, 59, 52
5, 10980, Note_on_c, 3, 62, 52
5, 10989, Note_on_c, 3, 59, 0
5, 11040, Note_on_c, 3, 55, 56
5, 11040, Note_on_c, 3, 60, 56
5, 11049, Note_on_c, 3, 62, 0
5, 11160, Note_on_c, 3, 58, 52
5, 11169, Note_on_c, 3, 60, 0
5, 11220, Note_on_c, 3, 56, 52
5, 11229, Note_on_c, 3, 58, 0
5, 11279, Note_on_c, 3, 56, 0
5, 11279, Note_on_c, 3, 55, 0
5, 11280, Note_on_c, 3, 55, 48
5, 11339, Note_on_c, 3, 55, 0
5, 11460, Note_on_c, 3, 63, 52
5, 11520, Note_on_c, 3, 62, 56
5, 11529, Note_on_c, 3, 63, 0
5, 11580, Note_on_c, 3, 67, 58
5, 11589, Note_on_c, 3, 62, 0
5, 11640, Note_on_c, 3, 65, 60
5, 11649, Note_on_c, 3, 67, 0
5, 11700, Note_on_c, 3, 63, 62
5, 11709, Note_on_c, 3, 65, 0
5, 11759, Note_on_c, 3, 63, 0
5, 11760, Note_on_c, 3, 62, 64
5, 11880, Note_on_c, 3, 60, 56
5, 11889, Note_on_c, 3, 62, 0
5, 12000, Note_on_c, 3, 59, 48
5, 12009, Note_on_c, 3, 60, 0
5, 12119, Note_on_c, 3, 59, 0
5, 12120, Note_on_c, 3, 48, 96
5, 12120, Note_on_c, 3, 58, 96
5, 12239, Note_on_c, 3, 58, 0
5, 12239, Note_on_c, 3, 48, 0
5, 12240, Note_on_c, 3, 56, 48
5, 12240, Note_on_c, 3, 53, 48
5, 12359, Note_on_c, 3, 53, 0
5, 12359, Note_on_c, 3, 56, 0
5, 12480, Note_on_c, 3, 61, 48
5, 12480, Note_on_c, 3, 49, 48
5, 12599, Note_on_c, 3, 49, 0
5, 12599, Note_on_c, 3, 61, 0
5, 12720, Note_on_c, 3, 47, 48
5, 12720, Note_on_c, 3, 59, 48
5, 12899, Note_on_c, 3, 59, 0
5, 12899, Note_on_c, 3, 47, 0
5, 12900, Note_on_c, 3, 65, 88
5, 12900, Note_on_c, 3, 53, 88
5, 12959, Note_on_c, 3, 53, 0
5, 12959, Note_on_c, 3, 65, 0
5, 12960, Note_on_c, 3, 51, 96
5, 12960, Note_on_c, 3, 63, 96
5, 12989, Note_on_c, 3, 63, 0
5, 12989, Note_on_c, 3, 51, 0
5, 13020, Note_on_c, 3, 65, 96
5, 13020, Note_on_c, 3, 53, 96
5, 13049, Note_on_c, 3, 53, 0
5, 13049, Note_on_c, 3, 65, 0
5, 13140, Note_on_c, 3, 63, 48
5, 13140, Note_on_c, 3, 56, 48
5, 13259, Note_on_c, 3, 56, 0
5, 13259, Note_on_c, 3, 63, 0
5, 13260, Note_on_c, 3, 63, 48
5, 13260, Note_on_c, 3, 55, 48
5, 13320, Note_on_c, 3, 62, 48
5, 13329, Note_on_c, 3, 63, 0
5, 13379, Note_on_c, 3, 62, 0
5, 13379, Note_on_c, 3, 55, 0
5, 13380, Note_on_c, 3, 43, 56
5, 13380, Note_on_c, 3, 62, 56
5, 13425, Note_on_c, 3, 59, 50
5, 13426, Note_on_c, 3, 62, 0
5, 13439, Note_on_c, 3, 59, 0
5, 13439, Note_on_c, 3, 43, 0
5, 13440, Note_on_c, 3, 48, 48
5, 13440, Note_on_c, 3, 60, 48
5, 13499, Note_on_c, 3, 60, 0
5, 13499, Note_on_c, 3, 48, 0
5, 13500, Note_on_c, 3, 51, 48
5, 13560, Note_on_c, 3, 55, 48
5, 13569, Note_on_c, 3, 51, 0
5, 13620, Note_on_c, 3, 59, 48
5, 13629, Note_on_c, 3, 55, 0
5, 13679, Note_on_c, 3, 59, 0
5, 13680, Note_on_c, 3, 60, 48
5, 13740, Note_on_c, 3, 55, 48
5, 13749, Note_on_c, 3, 60, 0
5, 13800, Note_on_c, 3, 51, 48
5, 13809, Note_on_c, 3, 55, 0
5, 13860, Note_on_c, 3, 48, 48
5, 13869, Note_on_c, 3, 51, 0
5, 13919, Note_on_c, 3, 48, 0
5, 13920, Note_on_c, 3, 47, 48
5, 13980, Note_on_c, 3, 43, 48
5, 13989, Note_on_c, 3, 47, 0
5, 14040, Note_on_c, 3, 48, 96
5, 14049, Note_on_c, 3, 43, 0
5, 14100, Note_on_c, 3, 51, 48
5, 14109, Note_on_c, 3, 48, 0
5, 14159, Note_on_c, 3, 51, 0
5, 14160, Note_on_c, 3, 55, 48
5, 14280, Note_on_c, 3, 43, 48
5, 14289, Note_on_c, 3, 55, 0
5, 14309, Note_on_c, 3, 43, 0
5, 14400, Note_on_c, 3, 62, 96
5, 14400, Note_on_c, 3, 53, 96
5, 14519, Note_on_c, 3, 53, 0
5, 14519, Note_on_c, 3, 62, 0
5, 14520, Note_on_c, 3, 53, 96
5, 14520, Note_on_c, 3, 62, 96
5, 14624, Note_on_c, 3, 62, 0
5, 14624, Note_on_c, 3, 53, 0
5, 14625, Note_on_c, 3, 62, 96
5, 14625, Note_on_c, 3, 53, 96
5, 14639, Note_on_c, 3, 53, 0
5, 14639, Note_on_c, 3, 62, 0
5, 14640, Note_on_c, 3, 63, 112
5, 14640, Note_on_c, 3, 54, 112
5, 14820, Note_on_c, 3, 62, 64
5, 14829, Note_on_c, 3, 63, 0
5, 14850, Note_on_c, 3, 60, 56
5, 14859, Note_on_c, 3, 62, 0
5, 14879, Note_on_c, 3, 60, 0
5, 14879, Note_on_c, 3, 54, 0
5, 14880, Note_on_c, 3, 55, 48
5, 14880, Note_on_c, 3, 60, 48
5, 14999, Note_on_c, 3, 55, 0
5, 15000, Note_on_c, 3, 59, 48
5, 15000, Note_on_c, 3, 55, 48
5, 15009, Note_on_c, 3, 60, 0
5, 15119, Note_on_c, 3, 55, 0
5, 15119, Note_on_c, 3, 59, 0
5, 15120, Note_on_c, 3, 48, 48
5, 15120, Note_on_c, 3, 60, 48
5, 15179, Note_on_c, 3, 60, 0
5, 15179, Note_on_c, 3, 48, 0
5, 15360, Note_on_c, 3, 63, 48
5, 15360, Note_on_c, 3, 60, 48
5, 15480, Note_on_c, 3, 59, 48
5, 15480, Note_on_c, 3, 62, 48
5, 15489, Note_on_c, 3, 60, 0
5, 15489, Note_on_c, 3, 63, 0
5, 15585, Note_on_c, 3, 60, 48
5, 15586, Note_on_c, 3, 59, 0
5, 15586, Note_on_c, 3, 62, 0
5, 15599, Note_on_c, 3, 60, 0
5, 15600, Note_on_c, 3, 60, 48
5, 15659, Note_on_c, 3, 60, 0
5, 15780, Note_on_c, 3, 51, 96
5, 15780, Note_on_c, 3, 63, 96
5, 15840, Note_on_c, 3, 48, 64
5, 15840, Note_on_c, 3, 60, 64
5, 15849, Note_on_c, 3, 63, 0
5, 15849, Note_on_c, 3, 51, 0
5, 15899, Note_on_c, 3, 48, 0
5, 15899, Note_on_c, 3, 60, 0
5, 15900, Note_on_c, 3, 44, 96
5, 15900, Note_on_c, 3, 56, 96
5, 15945, Note_on_c, 3, 53, 96
5, 15946, Note_on_c, 3, 56, 0
5, 15946, Note_on_c, 3, 44, 0
5, 15959, Note_on_c, 3, 53, 0
5, 15960, Note_on_c, 3, 50, 96
5, 15989, Note_on_c, 3, 50, 0
5, 16020, Note_on_c, 3, 55, 96
5, 16049, Note_on_c, 3, 55, 0
5, 16080, Note_on_c, 3, 48, 48
5, 16109, Note_on_c, 3, 48, 0
5, 16200, Note_on_c, 3, 48, 48
5, 16229, Note_on_c, 3, 48, 0
5, 16320, Note_on_c, 3, 48, 48
5, 16349, Note_on_c, 3, 48, 0
5, 17520, Note_on_c, 3, 59, 48
5, 17640, Note_on_c, 3, 62, 48
5, 17649, Note_on_c, 3, 59, 0
5, 17759, Note_on_c, 3, 62, 0
5, 17760, Note_on_c, 3, 65, 48
5, 17940, Note_on_c, 3, 64, 78
5, 17949, Note_on_c, 3, 65, 0
5, 17970, Note_on_c, 3, 62, 83
5, 17979, Note_on_c, 3, 64, 0
5, 17999, Note_on_c, 3, 62, 0
5, 18000, Note_on_c, 3, 62, 88
5, 18030, Note_on_c, 3, 60, 93
5, 18039, Note_on_c, 3, 62, 0
5, 18060, Note_on_c, 3, 59, 98
5, 18069, Note_on_c, 3, 60, 0
5, 18090, Note_on_c, 3, 57, 103
5, 18099, Note_on_c, 3, 59, 0
5, 18119, Note_on_c, 3, 57, 0
5, 18120, Note_on_c, 3, 55, 108
5, 18149, Note_on_c, 3, 55, 0
5, 18150, Note_on_c, 3, 55, 113
5, 18180, Note_on_c, 3, 57, 118
5, 18189, Note_on_c, 3, 55, 0
5, 18210, Note_on_c, 3, 60, 123
5, 18219, Note_on_c, 3, 57, 0
5, 18239, Note_on_c, 3, 60, 0
5, 18240, Note_on_c, 3, 59, 127
5, 18240, Note_on_c, 3, 55, 127
5, 18419, Note_on_c, 3, 55, 0
5, 18419, Note_on_c, 3, 59, 0
5, 18420, Note_on_c, 3, 62, 127
5, 18420, Note_on_c, 3, 59, 127
5, 18449, Note_on_c, 3, 59, 0
5, 18449, Note_on_c, 3, 62, 0
5, 18480, Note_on_c, 3, 59, 127
5, 18480, Note_on_c, 3, 55, 127
5, 18659, Note_on_c, 3, 55, 0
5, 18659, Note_on_c, 3, 59, 0
5, 18660, Note_on_c, 3, 62, 127
5, 18660, Note_on_c, 3, 59, 127
5, 18689, Note_on_c, 3, 59, 0
5, 18689, Note_on_c, 3, 62, 0
5, 18720, Note_on_c, 3, 59, 127
5, 18720, Note_on_c, 3, 55, 127
5, 18749, Note_on_c, 3, 55, 0
5, 18749, Note_on_c, 3, 59, 0
5, 18780, Note_on_c, 3, 62, 127
5, 18780, Note_on_c, 3, 59, 127
5, 18809, Note_on_c, 3, 59, 0
5, 18809, Note_on_c, 3, 62, 0
5, 18840, Note_on_c, 3, 55, 127
5, 18840, Note_on_c, 3, 59, 127
5, 18869, Note_on_c, 3, 59, 0
5, 18869, Note_on_c, 3, 55, 0
5, 18900, Note_on_c, 3, 62, 127
5, 18900, Note_on_c, 3, 59, 127
5, 18929, Note_on_c, 3, 59, 0
5, 18929, Note_on_c, 3, 62, 0
5, 18960, Note_on_c, 3, 55, 127
5, 18960, Note_on_c, 3, 59, 127
5, 18989, Note_on_c, 3, 59, 0
5, 18989, Note_on_c, 3, 55, 0
5, 19200, Note_on_c, 3, 58, 48
5, 19200, Note_on_c, 3, 48, 48
5, 19259, Note_on_c, 3, 48, 0
5, 19320, Note_on_c, 3, 55, 48
5, 19329, Note_on_c, 3, 58, 0
5, 19380, Note_on_c, 3, 52, 48
5, 19389, Note_on_c, 3, 55, 0
5, 19439, Note_on_c, 3, 52, 0
5, 19440, Note_on_c, 3, 48, 48
5, 19500, Note_on_c, 3, 55, 48
5, 19500, Note_on_c, 3, 52, 48
5, 19509, Note_on_c, 3, 48, 0
5, 19529, Note_on_c, 3, 55, 0
5, 19559, Note_on_c, 3, 52, 0
5, 19560, Note_on_c, 3, 52, 48
5, 19560, Note_on_c, 3, 55, 48
5, 19589, Note_on_c, 3, 52, 0
5, 19620, Note_on_c, 3, 48, 48
5, 19620, Note_on_c, 3, 58, 48
5, 19629, Note_on_c, 3, 55, 0
5, 19649, Note_on_c, 3, 48, 0
5, 19679, Note_on_c, 3, 58, 0
5, 19680, Note_on_c, 3, 57, 48
5, 19680, Note_on_c, 3, 53, 48
5, 19739, Note_on_c, 3, 53, 0
5, 19740, Note_on_c, 3, 53, 56
5, 19749, Note_on_c, 3, 57, 0
5, 19800, Note_on_c, 3, 52, 64
5, 19800, Note_on_c, 3, 48, 64
5, 19809, Note_on_c, 3, 53, 0
5, 19859, Note_on_c, 3, 48, 0
5, 19860, Note_on_c, 3, 58, 72
5, 19869, Note_on_c, 3, 52, 0
5, 19919, Note_on_c, 3, 58, 0
5, 19920, Note_on_c, 3, 57, 80
5, 19920, Note_on_c, 3, 53, 80
5, 19979, Note_on_c, 3, 53, 0
5, 19980, Note_on_c, 3, 53, 88
5, 19989, Note_on_c, 3, 57, 0
5, 20040, Note_on_c, 3, 52, 96
5, 20040, Note_on_c, 3, 48, 96
5, 20049, Note_on_c, 3, 53, 0
5, 20099, Note_on_c, 3, 48, 0
5, 20100, Note_on_c, 3, 58, 104
5, 20109, Note_on_c, 3, 52, 0
5, 20159, Note_on_c, 3, 58, 0
5, 20160, Note_on_c, 3, 57, 48
5, 20160, Note_on_c, 3, 53, 48
5, 20219, Note_on_c, 3, 53, 0
5, 20219, Note_on_c, 3, 57, 0
5, 20460, Note_on_c, 3, 67, 48
5, 20520, Note_on_c, 3, 65, 48
5, 20529, Note_on_c, 3, 67, 0
5, 20580, Note_on_c, 3, 62, 48
5, 20589, Note_on_c, 3, 65, 0
5, 20639, Note_on_c, 3, 62, 0
5, 20640, Note_on_c, 3, 59, 48
5, 20640, Note_on_c, 3, 62, 48
5, 20760, Note_on_c, 3, 64, 48
5, 20760, Note_on_c, 3, 60, 48
5, 20769, Note_on_c, 3, 62, 0
5, 20769, Note_on_c, 3, 59, 0
5, 20879, Note_on_c, 3, 64, 0
5, 20879, Note_on_c, 3, 60, 0
5, 20880, Note_on_c, 3, 59, 48
5, 20880, Note_on_c, 3, 62, 48
5, 21000, Note_on_c, 3, 64, 48
5, 21000, Note_on_c, 3, 60, 48
5, 21009, Note_on_c, 3, 62, 0
5, 21009, Note_on_c, 3, 59, 0
5, 21119, Note_on_c, 3, 64, 0
5, 21119, Note_on_c, 3, 60, 0
5, 21120, Note_on_c, 3, 62, 48
5, 21120, Note_on_c, 3, 59, 48
5, 21179, Note_on_c, 3, 59, 0
5, 21179, Note_on_c, 3, 62, 0
5, 21360, Note_on_c, 3, 55, 48
5, 21540, Note_on_c, 3, 57, 48
5, 21549, Note_on_c, 3, 55, 0
5, 21570, Note_on_c, 3, 59, 48
5, 21579, Note_on_c, 3, 57, 0
5, 21599, Note_on_c, 3, 59, 0
5, 21600, Note_on_c, 3, 60, 48
5, 21659, Note_on_c, 3, 60, 0
5, 22080, Note_on_c, 3, 53, 48
5, 22080, Note_on_c, 3, 45, 48
5, 22200, Note_on_c, 3, 57, 54
5, 22209, Note_on_c, 3, 53, 0
5, 22319, Note_on_c, 3, 57, 0
5, 22319, Note_on_c, 3, 45, 0
5, 22320, Note_on_c, 3, 60, 67
5, 22320, Note_on_c, 3, 41, 67
5, 22379, Note_on_c, 3, 41, 0
5, 22380, Note_on_c, 3, 53, 72
5, 22470, Note_on_c, 3, 57, 72
5, 22479, Note_on_c, 3, 60, 0
5, 22499, Note_on_c, 3, 53, 0
5, 22500, Note_on_c, 3, 65, 74
5, 22500, Note_on_c, 3, 53, 74
5, 22509, Note_on_c, 3, 57, 0
5, 22530, Note_on_c, 3, 62, 75
5, 22539, Note_on_c, 3, 65, 0
5, 22559, Note_on_c, 3, 62, 0
5, 22559, Note_on_c, 3, 53, 0
5, 22560, Note_on_c, 3, 62, 76
5, 22560, Note_on_c, 3, 55, 76
5, 22620, Note_on_c, 3, 60, 79
5, 22629, Note_on_c, 3, 62, 0
5, 22679, Note_on_c, 3, 55, 0
5, 22680, Note_on_c, 3, 53, 81
5, 22740, Note_on_c, 3, 59, 84
5, 22749, Note_on_c, 3, 60, 0
5, 22770, Note_on_c, 3, 67, 84
5, 22779, Note_on_c, 3, 59, 0
5, 22799, Note_on_c, 3, 67, 0
5, 22799, Note_on_c, 3, 53, 0
5, 22800, Note_on_c, 3, 67, 86
5, 22800, Note_on_c, 3, 52, 86
5, 22830, Note_on_c, 3, 66, 87
5, 22839, Note_on_c, 3, 67, 0
5, 22860, Note_on_c, 3, 67, 88
5, 22869, Note_on_c, 3, 66, 0
5, 22890, Note_on_c, 3, 68, 89
5, 22899, Note_on_c, 3, 67, 0
5, 22920, Note_on_c, 3, 69, 91
5, 22920, Note_on_c, 3, 53, 91
5, 22929, Note_on_c, 3, 68, 0
5, 22929, Note_on_c, 3, 52, 0
5, 22950, Note_on_c, 3, 65, 92
5, 22950, Note_on_c, 3, 57, 92
5, 22959, Note_on_c, 3, 69, 0
5, 22959, Note_on_c, 3, 53, 0
5, 22980, Note_on_c, 3, 64, 93
5, 22980, Note_on_c, 3, 55, 93
5, 22989, Note_on_c, 3, 65, 0
5, 22989, Note_on_c, 3, 57, 0
5, 23010, Note_on_c, 3, 62, 94
5, 23010, Note_on_c, 3, 53, 94
5, 23019, Note_on_c, 3, 64, 0
5, 23019, Note_on_c, 3, 55, 0
5, 23039, Note_on_c, 3, 62, 0
5, 23039, Note_on_c, 3, 53, 0
5, 23040, Note_on_c, 3, 60, 96
5, 23040, Note_on_c, 3, 52, 96
5, 23099, Note_on_c, 3, 52, 0
5, 23099, Note_on_c, 3, 60, 0
5, 23100, Note_on_c, 3, 64, 112
5, 23100, Note_on_c, 3, 60, 112
5, 23219, Note_on_c, 3, 64, 0
5, 23220, Note_on_c, 3, 67, 112
5, 23220, Note_on_c, 3, 64, 112
5, 23229, Note_on_c, 3, 60, 0
5, 23279, Note_on_c, 3, 64, 0
5, 23279, Note_on_c, 3, 67, 0
5, 23280, Note_on_c, 3, 67, 112
5, 23280, Note_on_c, 3, 65, 112
5, 23459, Note_on_c, 3, 65, 0
5, 23459, Note_on_c, 3, 67, 0
5, 23460, Note_on_c, 3, 59, 112
5, 23460, Note_on_c, 3, 65, 112
5, 23505, Note_on_c, 3, 53, 112
5, 23505, Note_on_c, 3, 62, 112
5, 23506, Note_on_c, 3, 65, 0
5, 23506, Note_on_c, 3, 59, 0
5, 23519, Note_on_c, 3, 53, 0
5, 23519, Note_on_c, 3, 62, 0
5, 23520, Note_on_c, 3, 60, 127
5, 23520, Note_on_c, 3, 52, 127
5, 23699, Note_on_c, 3, 52, 0
5, 23699, Note_on_c, 3, 60, 0
5, 23700, Note_on_c, 3, 52, 127
5, 23700, Note_on_c, 3, 60, 127
5, 23729, Note_on_c, 3, 60, 0
5, 23729, Note_on_c, 3, 52, 0
5, 23760, Note_on_c, 3, 60, 127
5, 23760, Note_on_c, 3, 52, 127
5, 23939, Note_on_c, 3, 52, 0
5, 23939, Note_on_c, 3, 60, 0
5, 23940, Note_on_c, 3, 52, 127
5, 23940, Note_on_c, 3, 60, 127
5, 23969, Note_on_c, 3, 60, 0
5, 23969, Note_on_c, 3, 52, 0
5, 24000, Note_on_c, 3, 60, 127
5, 24000, Note_on_c, 3, 52, 127
5, 24029, Note_on_c, 3, 52, 0
5, 24029, Note_on_c, 3, 60, 0
5, 24060, Note_on_c, 3, 52, 127
5, 24060, Note_on_c, 3, 55, 127
5, 24089, Note_on_c, 3, 55, 0
5, 24089, Note_on_c, 3, 52, 0
5, 24120, Note_on_c, 3, 60, 127
5, 24120, Note_on_c, 3, 52, 127
5, 24149, Note_on_c, 3, 52, 0
5, 24149, Note_on_c, 3, 60, 0
5, 24180, Note_on_c, 3, 52, 127
5, 24180, Note_on_c, 3, 55, 127
5, 24209, Note_on_c, 3, 55, 0
5, 24209, Note_on_c, 3, 52, 0
5, 24240, Note_on_c, 3, 52, 127
5, 24240, Note_on_c, 3, 60, 127
5, 24269, Note_on_c, 3, 60, 0
5, 24269, Note_on_c, 3, 52, 0
5, 27180, Note_on_c, 3, 65, 48
5, 27299, Note_on_c, 3, 65, 0
5, 27300, Note_on_c, 3, 60, 50
5, 27359, Note_on_c, 3, 60, 0
5, 27360, Note_on_c, 3, 65, 96
5, 27599, Note_on_c, 3, 65, 0
5, 27600, Note_on_c, 3, 61, 112
5, 27839, Note_on_c, 3, 61, 0
5, 27840, Note_on_c, 3, 64, 112
5, 28019, Note_on_c, 3, 64, 0
5, 28020, Note_on_c, 3, 64, 96
5, 28029, Note_on_c, 3, 64, 0
5, 28030, Note_on_c, 3, 65, 96
5, 28039, Note_on_c, 3, 65, 0
5, 28040, Note_on_c, 3, 64, 96
5, 28049, Note_on_c, 3, 64, 0
5, 28050, Note_on_c, 3, 65, 96
5, 28057, Note_on_c, 3, 65, 0
5, 28058, Note_on_c, 3, 64, 96
5, 28065, Note_on_c, 3, 64, 0
5, 28066, Note_on_c, 3, 62, 96
5, 28072, Note_on_c, 3, 64, 96
5, 28073, Note_on_c, 3, 62, 0
5, 28079, Note_on_c, 3, 64, 0
5, 28080, Note_on_c, 3, 65, 96
5, 28139, Note_on_c, 3, 65, 0
5, 28800, Note_on_c, 3, 60, 96
5, 28920, Note_on_c, 3, 62, 96
5, 28929, Note_on_c, 3, 60, 0
5, 28980, Note_on_c, 3, 64, 96
5, 28989, Note_on_c, 3, 62, 0
5, 29039, Note_on_c, 3, 64, 0
5, 29040, Note_on_c, 3, 65, 96
5, 29099, Note_on_c, 3, 65, 0
5, 31200, Note_on_c, 3, 53, 127
5, 31320, Note_on_c, 3, 55, 127
5, 31380, Note_on_c, 3, 56, 127
5, 31389, Note_on_c, 3, 55, 0
5, 31439, Note_on_c, 3, 56, 0
5, 31439, Note_on_c, 3, 53, 0
5, 31440, Note_on_c, 3, 46, 127
5, 31440, Note_on_c, 3, 58, 127
5, 31619, Note_on_c, 3, 58, 0
5, 31620, Note_on_c, 3, 56, 127
5, 31679, Note_on_c, 3, 56, 0
5, 31679, Note_on_c, 3, 46, 0
5, 31680, Note_on_c, 3, 55, 127
5, 31680, Note_on_c, 3, 48, 127
5, 31740, Note_on_c, 3, 61, 127
5, 31749, Note_on_c, 3, 55, 0
5, 31800, Note_on_c, 3, 60, 127
5, 31809, Note_on_c, 3, 61, 0
5, 31860, Note_on_c, 3, 58, 127
5, 31869, Note_on_c, 3, 60, 0
5, 31919, Note_on_c, 3, 58, 0
5, 31919, Note_on_c, 3, 48, 0
5, 31920, Note_on_c, 3, 53, 127
5, 31920, Note_on_c, 3, 56, 127
5, 31979, Note_on_c, 3, 56, 0
5, 31979, Note_on_c, 3, 53, 0
5, 32220, Note_on_c, 3, 58, 127
5, 32220, Note_on_c, 3, 46, 127
5, 32340, Note_on_c, 3, 48, 127
5, 32340, Note_on_c, 3, 60, 127
5, 32349, Note_on_c, 3, 46, 0
5, 32349, Note_on_c, 3, 58, 0
5, 32370, Note_on_c, 3, 62, 127
5, 32370, Note_on_c, 3, 50, 127
5, 32379, Note_on_c, 3, 48, 0
5, 32379, Note_on_c, 3, 60, 0
5, 32399, Note_on_c, 3, 62, 0
5, 32399, Note_on_c, 3, 50, 0
5, 32400, Note_on_c, 3, 51, 127
5, 32400, Note_on_c, 3, 63, 127
5, 32459, Note_on_c, 3, 63, 0
5, 32459, Note_on_c, 3, 51, 0
5, 32520, Note_on_c, 3, 63, 127
5, 32520, Note_on_c, 3, 51, 127
5, 32759, Note_on_c, 3, 51, 0
5, 32759, Note_on_c, 3, 63, 0
5, 32760, Note_on_c, 3, 50, 127
5, 32760, Note_on_c, 3, 62, 127
5, 32939, Note_on_c, 3, 62, 0
5, 32939, Note_on_c, 3, 50, 0
5, 32940, Note_on_c, 3, 63, 127
5, 32940, Note_on_c, 3, 51, 127
5, 32969, Note_on_c, 3, 51, 0
5, 32969, Note_on_c, 3, 63, 0
5, 33000, Note_on_c, 3, 53, 127
5, 33000, Note_on_c, 3, 65, 127
5, 33240, Note_on_c, 3, 63, 127
5, 33240, Note_on_c, 3, 51, 127
5, 33249, Note_on_c, 3, 65, 0
5, 33249, Note_on_c, 3, 53, 0
5, 33299, Note_on_c, 3, 63, 0
5, 33299, Note_on_c, 3, 51, 0
5, 33480, Note_on_c, 3, 67, 127
5, 33629, Note_on_c, 3, 67, 0
5, 33630, Note_on_c, 3, 65, 127
5, 33659, Note_on_c, 3, 65, 0
5, 33660, Note_on_c, 3, 67, 127
5, 33660, Note_on_c, 3, 63, 127
5, 33674, Note_on_c, 3, 63, 0
5, 33674, Note_on_c, 3, 67, 0
5, 33690, Note_on_c, 3, 65, 127
5, 33690, Note_on_c, 3, 62, 127
5, 33704, Note_on_c, 3, 62, 0
5, 33704, Note_on_c, 3, 65, 0
5, 33720, Note_on_c, 3, 63, 127
5, 33720, Note_on_c, 3, 60, 127
5, 33734, Note_on_c, 3, 60, 0
5, 33734, Note_on_c, 3, 63, 0
5, 33750, Note_on_c, 3, 62, 127
5, 33750, Note_on_c, 3, 58, 127
5, 33764, Note_on_c, 3, 58, 0
5, 33764, Note_on_c, 3, 62, 0
5, 33780, Note_on_c, 3, 60, 127
5, 33780, Note_on_c, 3, 56, 127
5, 33794, Note_on_c, 3, 56, 0
5, 33794, Note_on_c, 3, 60, 0
5, 33810, Note_on_c, 3, 58, 127
5, 33810, Note_on_c, 3, 55, 127
5, 33824, Note_on_c, 3, 55, 0
5, 33824, Note_on_c, 3, 58, 0
5, 33840, Note_on_c, 3, 56, 127
5, 33840, Note_on_c, 3, 53, 127
5, 33899, Note_on_c, 3, 53, 0
5, 33899, Note_on_c, 3, 56, 0
5, 34110, Note_on_c, 3, 65, 127
5, 34124, Note_on_c, 3, 65, 0
5, 34140, Note_on_c, 3, 65, 127
5, 34154, Note_on_c, 3, 65, 0
5, 34170, Note_on_c, 3, 63, 127
5, 34170, Note_on_c, 3, 67, 127
5, 34184, Note_on_c, 3, 67, 0
5, 34184, Note_on_c, 3, 63, 0
5, 34200, Note_on_c, 3, 62, 127
5, 34200, Note_on_c, 3, 65, 127
5, 34214, Note_on_c, 3, 65, 0
5, 34214, Note_on_c, 3, 62, 0
5, 34230, Note_on_c, 3, 60, 127
5, 34230, Note_on_c, 3, 63, 127
5, 34244, Note_on_c, 3, 63, 0
5, 34244, Note_on_c, 3, 60, 0
5, 34260, Note_on_c, 3, 59, 127
5, 34260, Note_on_c, 3, 62, 127
5, 34274, Note_on_c, 3, 62, 0
5, 34274, Note_on_c, 3, 59, 0
5, 34290, Note_on_c, 3, 57, 127
5, 34290, Note_on_c, 3, 60, 127
5, 34304, Note_on_c, 3, 60, 0
5, 34304, Note_on_c, 3, 57, 0
5, 34320, Note_on_c, 3, 59, 127
5, 34320, Note_on_c, 3, 55, 127
5, 34379, Note_on_c, 3, 55, 0
5, 34379, Note_on_c, 3, 59, 0
5, 34470, Note_on_c, 3, 59, 127
5, 34470, Note_on_c, 3, 62, 127
5, 34484, Note_on_c, 3, 62, 0
5, 34484, Note_on_c, 3, 59, 0
5, 34500, Note_on_c, 3, 57, 127
5, 34500, Note_on_c, 3, 60, 127
5, 34514, Note_on_c, 3, 60, 0
5, 34514, Note_on_c, 3, 57, 0
5, 34530, Note_on_c, 3, 55, 127
5, 34530, Note_on_c, 3, 59, 127
5, 34544, Note_on_c, 3, 59, 0
5, 34544, Note_on_c, 3, 55, 0
5, 34560, Note_on_c, 3, 60, 127
5, 34560, Note_on_c, 3, 55, 127
5, 34619, Note_on_c, 3, 55, 0
5, 34619, Note_on_c, 3, 60, 0
5, 34620, Note_on_c, 3, 55, 127
5, 34620, Note_on_c, 3, 61, 127
5, 34739, Note_on_c, 3, 61, 0
5, 34739, Note_on_c, 3, 55, 0
5, 34740, Note_on_c, 3, 55, 127
5, 34799, Note_on_c, 3, 55, 0
5, 34800, Note_on_c, 3, 50, 127
5, 34800, Note_on_c, 3, 62, 127
5, 34859, Note_on_c, 3, 62, 0
5, 34859, Note_on_c, 3, 50, 0
5, 34920, Note_on_c, 3, 62, 127
5, 35040, Note_on_c, 3, 63, 127
5, 35159, Note_on_c, 3, 62, 0
5, 35160, Note_on_c, 3, 60, 127
5, 35279, Note_on_c, 3, 63, 0
5, 35280, Note_on_c, 3, 62, 127
5, 35399, Note_on_c, 3, 60, 0
5, 35400, Note_on_c, 3, 58, 127
5, 35519, Note_on_c, 3, 62, 0
5, 35520, Note_on_c, 3, 60, 127
5, 35639, Note_on_c, 3, 58, 0
5, 35640, Note_on_c, 3, 57, 127
5, 35819, Note_on_c, 3, 57, 0
5, 35819, Note_on_c, 3, 60, 0
5, 35820, Note_on_c, 3, 58, 127
5, 35820, Note_on_c, 3, 55, 127
5, 35879, Note_on_c, 3, 55, 0
5, 35879, Note_on_c, 3, 58, 0
5, 35880, Note_on_c, 3, 55, 127
5, 35880, Note_on_c, 3, 58, 127
5, 35939, Note_on_c, 3, 58, 0
5, 35939, Note_on_c, 3, 55, 0
5, 35940, Note_on_c, 3, 61, 127
5, 35940, Note_on_c, 3, 55, 127
5, 35970, Note_on_c, 3, 62, 127
5, 35979, Note_on_c, 3, 61, 0
5, 35999, Note_on_c, 3, 62, 0
5, 35999, Note_on_c, 3, 55, 0
5, 36000, Note_on_c, 3, 55, 127
5, 36000, Note_on_c, 3, 64, 127
5, 36029, Note_on_c, 3, 64, 0
5, 36029, Note_on_c, 3, 55, 0
5, 36840, Note_on_c, 3, 62, 48
5, 36959, Note_on_c, 3, 62, 0
5, 36960, Note_on_c, 3, 55, 48
5, 36960, Note_on_c, 3, 62, 48
5, 37019, Note_on_c, 3, 62, 0
5, 37019, Note_on_c, 3, 55, 0
5, 39840, Note_on_c, 3, 62, 127
5, 39840, Note_on_c, 3, 65, 127
5, 40139, Note_on_c, 3, 65, 0
5, 40139, Note_on_c, 3, 62, 0
5, 40140, Note_on_c, 3, 65, 127
5, 40140, Note_on_c, 3, 62, 127
5, 40199, Note_on_c, 3, 62, 0
5, 40199, Note_on_c, 3, 65, 0
5, 40200, Note_on_c, 3, 65, 127
5, 40200, Note_on_c, 3, 62, 127
5, 40259, Note_on_c, 3, 62, 0
5, 40259, Note_on_c, 3, 65, 0
5, 40260, Note_on_c, 3, 65, 127
5, 40260, Note_on_c, 3, 62, 127
5, 40319, Note_on_c, 3, 62, 0
5, 40319, Note_on_c, 3, 65, 0
5, 40320, Note_on_c, 3, 65, 127
5, 40320, Note_on_c, 3, 62, 127
5, 40379, Note_on_c, 3, 62, 0
5, 40379, Note_on_c, 3, 65, 0
5, 41100, Note_on_c, 3, 56, 48
5, 41160, Note_on_c, 3, 55, 48
5, 41162, Note_on_c, 3, 56, 0
5, 41220, Note_on_c, 3, 59, 48
5, 41222, Note_on_c, 3, 55, 0
5, 41280, Note_on_c, 3, 55, 48
5, 41282, Note_on_c, 3, 59, 0
5, 41340, Note_on_c, 3, 62, 48
5, 41342, Note_on_c, 3, 55, 0
5, 41400, Note_on_c, 3, 55, 48
5, 41402, Note_on_c, 3, 62, 0
5, 41460, Note_on_c, 3, 67, 48
5, 41462, Note_on_c, 3, 55, 0
5, 41519, Note_on_c, 3, 67, 0
5, 41520, Note_on_c, 3, 55, 48
5, 41580, Note_on_c, 3, 60, 48
5, 41580, Note_on_c, 3, 56, 48
5, 41582, Note_on_c, 3, 55, 0
5, 41624, Note_on_c, 3, 60, 0
5, 41625, Note_on_c, 3, 60, 48
5, 41636, Note_on_c, 3, 60, 0
5, 41640, Note_on_c, 3, 60, 48
5, 41640, Note_on_c, 3, 55, 48
5, 41642, Note_on_c, 3, 56, 0
5, 41699, Note_on_c, 3, 60, 0
5, 41700, Note_on_c, 3, 60, 48
5, 41702, Note_on_c, 3, 55, 0
5, 41759, Note_on_c, 3, 60, 0
5, 41760, Note_on_c, 3, 55, 48
5, 41820, Note_on_c, 3, 60, 48
5, 41820, Note_on_c, 3, 63, 48
5, 41822, Note_on_c, 3, 55, 0
5, 41864, Note_on_c, 3, 60, 0
5, 41865, Note_on_c, 3, 60, 48
5, 41880, Note_on_c, 3, 60, 0
5, 41880, Note_on_c, 3, 55, 48
5, 41882, Note_on_c, 3, 63, 0
5, 41940, Note_on_c, 3, 67, 48
5, 41940, Note_on_c, 3, 60, 48
5, 41942, Note_on_c, 3, 55, 0
5, 41999, Note_on_c, 3, 60, 0
5, 41999, Note_on_c, 3, 67, 0
5, 42000, Note_on_c, 3, 55, 48
5, 42060, Note_on_c, 3, 60, 48
5, 42060, Note_on_c, 3, 56, 48
5, 42062, Note_on_c, 3, 55, 0
5, 42104, Note_on_c, 3, 60, 0
5, 42105, Note_on_c, 3, 60, 48
5, 42119, Note_on_c, 3, 60, 0
5, 42120, Note_on_c, 3, 60, 48
5, 42120, Note_on_c, 3, 55, 48
5, 42122, Note_on_c, 3, 56, 0
5, 42179, Note_on_c, 3, 60, 0
5, 42180, Note_on_c, 3, 60, 48
5, 42182, Note_on_c, 3, 55, 0
5, 42240, Note_on_c, 3, 55, 48
5, 42242, Note_on_c, 3, 60, 0
5, 42300, Note_on_c, 3, 63, 48
5, 42300, Note_on_c, 3, 60, 48
5, 42302, Note_on_c, 3, 55, 0
5, 42344, Note_on_c, 3, 60, 0
5, 42345, Note_on_c, 3, 60, 48
5, 42360, Note_on_c, 3, 59, 48
5, 42360, Note_on_c, 3, 55, 48
5, 42362, Note_on_c, 3, 60, 0
5, 42362, Note_on_c, 3, 63, 0
5, 42419, Note_on_c, 3, 59, 0
5, 42420, Note_on_c, 3, 67, 48
5, 42420, Note_on_c, 3, 59, 48
5, 42422, Note_on_c, 3, 55, 0
5, 42479, Note_on_c, 3, 59, 0
5, 42479, Note_on_c, 3, 67, 0
5, 42540, Note_on_c, 3, 62, 48
5, 42540, Note_on_c, 3, 59, 48
5, 42584, Note_on_c, 3, 59, 0
5, 42584, Note_on_c, 3, 62, 0
5, 42585, Note_on_c, 3, 62, 48
5, 42585, Note_on_c, 3, 59, 48
5, 42591, Note_on_c, 3, 62, 0
5, 42592, Note_on_c, 3, 59, 0
5, 42600, Note_on_c, 3, 59, 48
5, 42600, Note_on_c, 3, 62, 48
5, 42659, Note_on_c, 3, 62, 0
5, 42659, Note_on_c, 3, 59, 0
5, 42660, Note_on_c, 3, 62, 48
5, 42660, Note_on_c, 3, 59, 48
5, 42719, Note_on_c, 3, 59, 0
5, 42719, Note_on_c, 3, 62, 0
5, 42780, Note_on_c, 3, 62, 52
5, 42780, Note_on_c, 3, 59, 52
5, 42824, Note_on_c, 3, 59, 0
5, 42824, Note_on_c, 3, 62, 0
5, 42825, Note_on_c, 3, 59, 55
5, 42825, Note_on_c, 3, 62, 55
5, 42831, Note_on_c, 3, 59, 0
5, 42832, Note_on_c, 3, 62, 0
5, 42840, Note_on_c, 3, 62, 56
5, 42840, Note_on_c, 3, 59, 56
5, 42899, Note_on_c, 3, 59, 0
5, 42899, Note_on_c, 3, 62, 0
5, 42900, Note_on_c, 3, 59, 60
5, 42900, Note_on_c, 3, 62, 60
5, 42959, Note_on_c, 3, 62, 0
5, 42959, Note_on_c, 3, 59, 0
5, 42960, Note_on_c, 3, 62, 64
5, 42960, Note_on_c, 3, 58, 64
5, 43019, Note_on_c, 3, 58, 0
5, 43019, Note_on_c, 3, 62, 0
5, 43020, Note_on_c, 3, 50, 60
5, 43020, Note_on_c, 3, 53, 60
5, 43080, Note_on_c, 3, 55, 56
5, 43080, Note_on_c, 3, 51, 56
5, 43082, Note_on_c, 3, 53, 0
5, 43082, Note_on_c, 3, 50, 0
5, 43140, Note_on_c, 3, 56, 52
5, 43140, Note_on_c, 3, 53, 52
5, 43142, Note_on_c, 3, 55, 0
5, 43142, Note_on_c, 3, 51, 0
5, 43200, Note_on_c, 3, 55, 48
5, 43200, Note_on_c, 3, 51, 48
5, 43202, Note_on_c, 3, 56, 0
5, 43202, Note_on_c, 3, 53, 0
5, 43259, Note_on_c, 3, 55, 0
5, 43259, Note_on_c, 3, 51, 0
5, 43260, Note_on_c, 3, 60, 47
5, 43260, Note_on_c, 3, 56, 47
5, 43304, Note_on_c, 3, 56, 0
5, 43304, Note_on_c, 3, 60, 0
5, 43305, Note_on_c, 3, 60, 47
5, 43305, Note_on_c, 3, 56, 47
5, 43314, Note_on_c, 3, 56, 0
5, 43314, Note_on_c, 3, 60, 0
5, 43320, Note_on_c, 3, 51, 47
5, 43320, Note_on_c, 3, 58, 47
5, 43379, Note_on_c, 3, 58, 0
5, 43379, Note_on_c, 3, 51, 0
5, 44400, Note_on_c, 3, 60, 48
5, 44400, Note_on_c, 3, 52, 48
5, 44519, Note_on_c, 3, 60, 0
5, 44520, Note_on_c, 3, 60, 48
5, 44520, Note_on_c, 3, 53, 48
5, 44522, Note_on_c, 3, 52, 0
5, 44579, Note_on_c, 3, 60, 0
5, 44580, Note_on_c, 3, 55, 48
5, 44580, Note_on_c, 3, 60, 48
5, 44582, Note_on_c, 3, 53, 0
5, 44639, Note_on_c, 3, 60, 0
5, 44640, Note_on_c, 3, 60, 48
5, 44640, Note_on_c, 3, 56, 48
5, 44642, Note_on_c, 3, 55, 0
5, 44759, Note_on_c, 3, 56, 0
5, 44759, Note_on_c, 3, 60, 0
5, 44760, Note_on_c, 3, 44, 90
5, 44760, Note_on_c, 3, 56, 90
5, 44879, Note_on_c, 3, 56, 0
5, 44879, Note_on_c, 3, 44, 0
5, 44880, Note_on_c, 3, 55, 50
5, 44880, Note_on_c, 3, 43, 50
5, 44939, Note_on_c, 3, 43, 0
5, 44939, Note_on_c, 3, 55, 0
5, 45120, Note_on_c, 3, 60, 48
5, 45240, Note_on_c, 3, 59, 48
5, 45242, Note_on_c, 3, 60, 0
5, 45300, Note_on_c, 3, 60, 48
5, 45302, Note_on_c, 3, 59, 0
5, 45359, Note_on_c, 3, 60, 0
5, 45360, Note_on_c, 3, 59, 48
5, 45360, Note_on_c, 3, 55, 48
5, 45540, Note_on_c, 3, 65, 60
5, 45540, Note_on_c, 3, 62, 60
5, 45542, Note_on_c, 3, 55, 0
5, 45542, Note_on_c, 3, 59, 0
5, 45600, Note_on_c, 3, 63, 64
5, 45600, Note_on_c, 3, 60, 64
5, 45602, Note_on_c, 3, 65, 0
5, 45602, Note_on_c, 3, 62, 0
5, 45720, Note_on_c, 3, 62, 56
5, 45720, Note_on_c, 3, 58, 56
5, 45722, Note_on_c, 3, 63, 0
5, 45722, Note_on_c, 3, 60, 0
5, 45780, Note_on_c, 3, 60, 52
5, 45780, Note_on_c, 3, 56, 52
5, 45782, Note_on_c, 3, 62, 0
5, 45782, Note_on_c, 3, 58, 0
5, 45840, Note_on_c, 3, 55, 48
5, 45840, Note_on_c, 3, 59, 48
5, 45842, Note_on_c, 3, 60, 0
5, 45842, Note_on_c, 3, 56, 0
5, 45899, Note_on_c, 3, 55, 0
5, 45899, Note_on_c, 3, 59, 0
5, 46350, Note_on_c, 3, 62, 53
5, 46372, Note_on_c, 3, 62, 0
5, 46380, Note_on_c, 3, 63, 56
5, 46402, Note_on_c, 3, 63, 0
5, 46410, Note_on_c, 3, 62, 60
5, 46432, Note_on_c, 3, 62, 0
5, 46440, Note_on_c, 3, 63, 64
5, 46462, Note_on_c, 3, 63, 0
5, 46470, Note_on_c, 3, 64, 68
5, 46492, Note_on_c, 3, 64, 0
5, 46500, Note_on_c, 3, 65, 72
5, 46522, Note_on_c, 3, 65, 0
5, 46530, Note_on_c, 3, 66, 75
5, 46552, Note_on_c, 3, 66, 0
5, 46560, Note_on_c, 3, 67, 79
5, 46680, Note_on_c, 3, 48, 95
5, 46739, Note_on_c, 3, 67, 0
5, 46740, Note_on_c, 3, 58, 70
5, 46799, Note_on_c, 3, 58, 0
5, 46799, Note_on_c, 3, 48, 0
5, 46800, Note_on_c, 3, 56, 48
5, 46800, Note_on_c, 3, 53, 48
5, 46859, Note_on_c, 3, 53, 0
5, 46859, Note_on_c, 3, 56, 0
5, 46860, Note_on_c, 3, 53, 48
5, 46860, Note_on_c, 3, 60, 48
5, 46904, Note_on_c, 3, 60, 0
5, 46904, Note_on_c, 3, 53, 0
5, 46905, Note_on_c, 3, 53, 48
5, 46905, Note_on_c, 3, 60, 48
5, 46911, Note_on_c, 3, 60, 0
5, 46912, Note_on_c, 3, 53, 0
5, 46920, Note_on_c, 3, 53, 48
5, 46921, Note_on_c, 3, 60, 48
5, 46979, Note_on_c, 3, 53, 0
5, 46980, Note_on_c, 3, 60, 0
5, 46980, Note_on_c, 3, 60, 48
5, 46981, Note_on_c, 3, 53, 48
5, 47039, Note_on_c, 3, 60, 0
5, 47040, Note_on_c, 3, 53, 0
5, 47100, Note_on_c, 3, 61, 48
5, 47144, Note_on_c, 3, 61, 0
5, 47145, Note_on_c, 3, 61, 48
5, 47151, Note_on_c, 3, 61, 0
5, 47160, Note_on_c, 3, 61, 48
5, 47219, Note_on_c, 3, 61, 0
5, 47220, Note_on_c, 3, 61, 48
5, 47279, Note_on_c, 3, 61, 0
5, 47340, Note_on_c, 3, 62, 59
5, 47340, Note_on_c, 3, 65, 59
5, 47384, Note_on_c, 3, 65, 0
5, 47384, Note_on_c, 3, 62, 0
5, 47385, Note_on_c, 3, 62, 68
5, 47385, Note_on_c, 3, 65, 68
5, 47392, Note_on_c, 3, 62, 0
5, 47393, Note_on_c, 3, 65, 0
5, 47400, Note_on_c, 3, 62, 71
5, 47400, Note_on_c, 3, 65, 71
5, 47459, Note_on_c, 3, 65, 0
5, 47459, Note_on_c, 3, 62, 0
5, 47460, Note_on_c, 3, 65, 84
5, 47460, Note_on_c, 3, 53, 84
5, 47519, Note_on_c, 3, 53, 0
5, 47519, Note_on_c, 3, 65, 0
5, 47520, Note_on_c, 3, 63, 96
5, 47520, Note_on_c, 3, 51, 96
5, 47549, Note_on_c, 3, 63, 0
5, 47564, Note_on_c, 3, 51, 0
5, 47580, Note_on_c, 3, 60, 96
5, 47580, Note_on_c, 3, 53, 96
5, 47609, Note_on_c, 3, 53, 0
5, 47609, Note_on_c, 3, 60, 0
5, 47700, Note_on_c, 3, 56, 48
5, 47700, Note_on_c, 3, 60, 48
5, 47819, Note_on_c, 3, 60, 0
5, 47819, Note_on_c, 3, 56, 0
5, 47820, Note_on_c, 3, 63, 54
5, 47820, Note_on_c, 3, 55, 54
5, 47880, Note_on_c, 3, 62, 51
5, 47882, Note_on_c, 3, 63, 0
5, 47939, Note_on_c, 3, 62, 0
5, 47939, Note_on_c, 3, 55, 0
5, 47940, Note_on_c, 3, 62, 48
5, 47940, Note_on_c, 3, 55, 48
5, 47985, Note_on_c, 3, 59, 47
5, 47987, Note_on_c, 3, 62, 0
5, 47993, Note_on_c, 3, 59, 0
5, 47999, Note_on_c, 3, 55, 0
5, 48000, Note_on_c, 3, 48, 47
5, 48000, Note_on_c, 3, 60, 47
5, 48059, Note_on_c, 3, 60, 0
5, 48060, Note_on_c, 3, 51, 47
5, 48062, Note_on_c, 3, 48, 0
5, 48120, Note_on_c, 3, 55, 48
5, 48122, Note_on_c, 3, 51, 0
5, 48180, Note_on_c, 3, 59, 48
5, 48182, Note_on_c, 3, 55, 0
5, 48239, Note_on_c, 3, 59, 0
5, 48240, Note_on_c, 3, 60, 48
5, 48300, Note_on_c, 3, 55, 48
5, 48302, Note_on_c, 3, 60, 0
5, 48360, Note_on_c, 3, 51, 48
5, 48362, Note_on_c, 3, 55, 0
5, 48420, Note_on_c, 3, 48, 48
5, 48422, Note_on_c, 3, 51, 0
5, 48479, Note_on_c, 3, 48, 0
5, 48480, Note_on_c, 3, 47, 48
5, 48540, Note_on_c, 3, 43, 48
5, 48542, Note_on_c, 3, 47, 0
5, 48600, Note_on_c, 3, 48, 48
5, 48602, Note_on_c, 3, 43, 0
5, 48660, Note_on_c, 3, 48, 0
5, 48660, Note_on_c, 3, 51, 48
5, 48719, Note_on_c, 3, 51, 0
5, 48720, Note_on_c, 3, 55, 48
5, 48840, Note_on_c, 3, 43, 48
5, 48842, Note_on_c, 3, 55, 0
5, 48899, Note_on_c, 3, 43, 0
5, 48960, Note_on_c, 3, 62, 96
5, 48960, Note_on_c, 3, 53, 96
5, 49079, Note_on_c, 3, 53, 0
5, 49079, Note_on_c, 3, 62, 0
5, 49080, Note_on_c, 3, 62, 96
5, 49080, Note_on_c, 3, 53, 96
5, 49184, Note_on_c, 3, 53, 0
5, 49184, Note_on_c, 3, 62, 0
5, 49185, Note_on_c, 3, 62, 96
5, 49185, Note_on_c, 3, 53, 96
5, 49191, Note_on_c, 3, 53, 0
5, 49192, Note_on_c, 3, 62, 0
5, 49200, Note_on_c, 3, 54, 109
5, 49200, Note_on_c, 3, 63, 109
5, 49380, Note_on_c, 3, 62, 61
5, 49382, Note_on_c, 3, 63, 0
5, 49410, Note_on_c, 3, 60, 53
5, 49416, Note_on_c, 3, 62, 0
5, 49439, Note_on_c, 3, 60, 0
5, 49439, Note_on_c, 3, 54, 0
5, 49440, Note_on_c, 3, 55, 47
5, 49440, Note_on_c, 3, 60, 47
5, 49560, Note_on_c, 3, 59, 47
5, 49563, Note_on_c, 3, 60, 0
5, 49679, Note_on_c, 3, 59, 0
5, 49679, Note_on_c, 3, 55, 0
5, 49680, Note_on_c, 3, 48, 64
5, 49680, Note_on_c, 3, 60, 64
5, 49739, Note_on_c, 3, 60, 0
5, 49739, Note_on_c, 3, 48, 0
5, 49740, Note_on_c, 3, 65, 60
5, 49740, Note_on_c, 3, 55, 60
5, 49800, Note_on_c, 3, 63, 56
5, 49800, Note_on_c, 3, 51, 56
5, 49802, Note_on_c, 3, 55, 0
5, 49802, Note_on_c, 3, 65, 0
5, 49860, Note_on_c, 3, 60, 51
5, 49860, Note_on_c, 3, 48, 51
5, 49862, Note_on_c, 3, 63, 0
5, 49862, Note_on_c, 3, 51, 0
5, 49919, Note_on_c, 3, 60, 0
5, 49919, Note_on_c, 3, 48, 0
5, 49920, Note_on_c, 3, 63, 49
5, 49920, Note_on_c, 3, 55, 49
5, 50039, Note_on_c, 3, 55, 0
5, 50040, Note_on_c, 3, 62, 72
5, 50040, Note_on_c, 3, 55, 72
5, 50044, Note_on_c, 3, 63, 0
5, 50145, Note_on_c, 3, 62, 0
5, 50145, Note_on_c, 3, 60, 91
5, 50153, Note_on_c, 3, 60, 0
5, 50159, Note_on_c, 3, 55, 0
5, 50160, Note_on_c, 3, 60, 94
5, 50160, Note_on_c, 3, 56, 94
5, 50219, Note_on_c, 3, 56, 0
5, 50219, Note_on_c, 3, 60, 0
5, 52920, Note_on_c, 3, 60, 31
5, 53040, Note_on_c, 3, 53, 31
5, 53042, Note_on_c, 3, 60, 0
5, 53099, Note_on_c, 3, 53, 0
5, 53250, Note_on_c, 3, 53, 31
5, 53279, Note_on_c, 3, 53, 0
5, 53280, Note_on_c, 3, 55, 31
5, 53399, Note_on_c, 3, 55, 0
5, 53490, Note_on_c, 3, 55, 32
5, 53519, Note_on_c, 3, 55, 0
5, 53520, Note_on_c, 3, 48, 32
5, 53579, Note_on_c, 3, 48, 0
5, 54240, Note_on_c, 3, 60, 40
5, 54360, Note_on_c, 3, 58, 41
5, 54362, Note_on_c, 3, 60, 0
5, 54420, Note_on_c, 3, 53, 42
5, 54420, Note_on_c, 3, 56, 42
5, 54422, Note_on_c, 3, 58, 0
5, 54480, Note_on_c, 3, 58, 43
5, 54480, Note_on_c, 3, 55, 43
5, 54482, Note_on_c, 3, 56, 0
5, 54482, Note_on_c, 3, 53, 0
5, 54540, Note_on_c, 3, 53, 44
5, 54540, Note_on_c, 3, 56, 44
5, 54542, Note_on_c, 3, 58, 0
5, 54542, Note_on_c, 3, 55, 0
5, 54600, Note_on_c, 3, 55, 45
5, 54600, Note_on_c, 3, 52, 45
5, 54602, Note_on_c, 3, 53, 0
5, 54602, Note_on_c, 3, 56, 0
5, 54660, Note_on_c, 3, 53, 46
5, 54662, Note_on_c, 3, 55, 0
5, 54662, Note_on_c, 3, 52, 0
5, 54719, Note_on_c, 3, 53, 0
5, 54720, Note_on_c, 3, 60, 47
5, 54720, Note_on_c, 3, 48, 47
5, 54839, Note_on_c, 3, 60, 0
5, 54840, Note_on_c, 3, 60, 60
5, 54840, Note_on_c, 3, 63, 60
5, 54842, Note_on_c, 3, 48, 0
5, 54959, Note_on_c, 3, 63, 0
5, 54959, Note_on_c, 3, 60, 0
5, 55080, Note_on_c, 3, 61, 48
5, 55080, Note_on_c, 3, 56, 48
5, 55139, Note_on_c, 3, 56, 0
5, 55139, Note_on_c, 3, 61, 0
5, 55320, Note_on_c, 3, 60, 48
5, 55320, Note_on_c, 3, 55, 48
5, 55379, Note_on_c, 3, 55, 0
5, 55379, Note_on_c, 3, 60, 0
5, 59100, Note_on_c, 3, 63, 110
5, 59100, Note_on_c, 3, 60, 110
5, 59219, Note_on_c, 3, 60, 0
5, 59220, Note_on_c, 3, 55, 70
5, 59220, Note_on_c, 3, 60, 70
5, 59222, Note_on_c, 3, 63, 0
5, 59279, Note_on_c, 3, 60, 0
5, 59279, Note_on_c, 3, 55, 0
5, 59280, Note_on_c, 3, 60, 50
5, 59280, Note_on_c, 3, 55, 50
5, 59998, Note_on_c, 3, 55, 0
5, 59998, Note_on_c, 3, 60, 0
5, 59998, End_track
6, 0, Start_track
6, 0, MIDI_port, 0
6, 0, Title_t, "French Horns"
6, 0, Program_c, 4, 60
6, 2160, Note_on_c, 4, 63, 48
6, 2160, Note_on_c, 4, 67, 48
6, 2160, Note_on_c, 4, 55, 48
6, 2399, Note_on_c, 4, 55, 0
6, 2399, Note_on_c, 4, 67, 0
6, 2399, Note_on_c, 4, 63, 0
6, 2400, Note_on_c, 4, 55, 48
6, 2400, Note_on_c, 4, 67, 48
6, 2400, Note_on_c, 4, 63, 48
6, 2639, Note_on_c, 4, 63, 0
6, 2639, Note_on_c, 4, 67, 0
6, 2639, Note_on_c, 4, 55, 0
6, 2640, Note_on_c, 4, 67, 48
6, 2640, Note_on_c, 4, 63, 48
6, 2640, Note_on_c, 4, 55, 48
6, 2759, Note_on_c, 4, 55, 0
6, 2759, Note_on_c, 4, 63, 0
6, 2759, Note_on_c, 4, 67, 0
6, 2760, Note_on_c, 4, 55, 48
6, 2760, Note_on_c, 4, 63, 48
6, 2760, Note_on_c, 4, 67, 48
6, 2819, Note_on_c, 4, 67, 0
6, 2819, Note_on_c, 4, 63, 0
6, 2819, Note_on_c, 4, 55, 0
6, 2820, Note_on_c, 4, 67, 48
6, 2820, Note_on_c, 4, 63, 48
6, 2820, Note_on_c, 4, 55, 48
6, 2879, Note_on_c, 4, 55, 0
6, 2879, Note_on_c, 4, 63, 0
6, 2879, Note_on_c, 4, 67, 0
6, 2880, Note_on_c, 4, 67, 48
6, 2880, Note_on_c, 4, 55, 48
6, 3059, Note_on_c, 4, 55, 0
6, 3059, Note_on_c, 4, 67, 0
6, 3360, Note_on_c, 4, 65, 48
6, 3659, Note_on_c, 4, 65, 0
6, 3660, Note_on_c, 4, 58, 48
6, 3719, Note_on_c, 4, 58, 0
6, 3720, Note_on_c, 4, 58, 48
6, 3779, Note_on_c, 4, 58, 0
6, 3780, Note_on_c, 4, 58, 48
6, 3839, Note_on_c, 4, 58, 0
6, 3840, Note_on_c, 4, 63, 48
6, 3899, Note_on_c, 4, 63, 0
6, 3900, Note_on_c, 4, 63, 48
6, 3944, Note_on_c, 4, 63, 0
6, 3945, Note_on_c, 4, 63, 48
6, 3959, Note_on_c, 4, 63, 0
6, 3960, Note_on_c, 4, 63, 48
6, 4019, Note_on_c, 4, 63, 0
6, 5160, Note_on_c, 4, 48, 48
6, 5160, Note_on_c, 4, 60, 48
6, 5204, Note_on_c, 4, 60, 0
6, 5204, Note_on_c, 4, 48, 0
6, 5220, Note_on_c, 4, 60, 48
6, 5220, Note_on_c, 4, 48, 48
6, 5264, Note_on_c, 4, 48, 0
6, 5264, Note_on_c, 4, 60, 0
6, 5280, Note_on_c, 4, 48, 48
6, 5280, Note_on_c, 4, 60, 48
6, 5459, Note_on_c, 4, 60, 0
6, 5459, Note_on_c, 4, 48, 0
6, 5460, Note_on_c, 4, 60, 48
6, 5460, Note_on_c, 4, 48, 48
6, 5519, Note_on_c, 4, 48, 0
6, 5519, Note_on_c, 4, 60, 0
6, 5520, Note_on_c, 4, 55, 32
6, 5520, Note_on_c, 4, 67, 32
6, 5759, Note_on_c, 4, 67, 0
6, 5759, Note_on_c, 4, 55, 0
6, 5760, Note_on_c, 4, 67, 32
6, 5760, Note_on_c, 4, 55, 32
6, 5999, Note_on_c, 4, 55, 0
6, 5999, Note_on_c, 4, 67, 0
6, 6000, Note_on_c, 4, 55, 32
6, 6000, Note_on_c, 4, 67, 32
6, 6419, Note_on_c, 4, 67, 0
6, 6419, Note_on_c, 4, 55, 0
6, 6420, Note_on_c, 4, 67, 32
6, 6420, Note_on_c, 4, 55, 32
6, 6479, Note_on_c, 4, 55, 0
6, 6479, Note_on_c, 4, 67, 0
6, 6480, Note_on_c, 4, 55, 32
6, 6480, Note_on_c, 4, 67, 32
6, 6539, Note_on_c, 4, 67, 0
6, 6539, Note_on_c, 4, 55, 0
6, 7320, Note_on_c, 4, 48, 96
6, 7320, Note_on_c, 4, 60, 96
6, 7439, Note_on_c, 4, 60, 0
6, 7439, Note_on_c, 4, 48, 0
6, 7440, Note_on_c, 4, 60, 48
6, 7440, Note_on_c, 4, 48, 48
6, 7559, Note_on_c, 4, 48, 0
6, 7559, Note_on_c, 4, 60, 0
6, 8880, Note_on_c, 4, 63, 48
6, 9119, Note_on_c, 4, 63, 0
6, 9120, Note_on_c, 4, 58, 48
6, 9359, Note_on_c, 4, 58, 0
6, 9360, Note_on_c, 4, 63, 80
6, 9479, Note_on_c, 4, 63, 0
6, 9480, Note_on_c, 4, 58, 88
6, 9599, Note_on_c, 4, 58, 0
6, 9600, Note_on_c, 4, 58, 92
6, 9659, Note_on_c, 4, 58, 0
6, 9705, Note_on_c, 4, 67, 96
6, 9714, Note_on_c, 4, 67, 0
6, 9720, Note_on_c, 4, 67, 96
6, 9839, Note_on_c, 4, 67, 0
6, 9840, Note_on_c, 4, 48, 96
6, 9840, Note_on_c, 4, 60, 96
6, 9869, Note_on_c, 4, 60, 0
6, 9869, Note_on_c, 4, 48, 0
6, 9870, Note_on_c, 4, 60, 48
6, 9870, Note_on_c, 4, 48, 48
6, 9960, Note_on_c, 4, 65, 48
6, 10020, Note_on_c, 4, 63, 48
6, 10029, Note_on_c, 4, 65, 0
6, 10079, Note_on_c, 4, 63, 0
6, 10080, Note_on_c, 4, 63, 48
6, 10139, Note_on_c, 4, 48, 0
6, 10139, Note_on_c, 4, 60, 0
6, 10140, Note_on_c, 4, 48, 48
6, 10140, Note_on_c, 4, 60, 48
6, 10199, Note_on_c, 4, 60, 0
6, 10199, Note_on_c, 4, 48, 0
6, 10200, Note_on_c, 4, 60, 44
6, 10200, Note_on_c, 4, 48, 44
6, 10259, Note_on_c, 4, 48, 0
6, 10259, Note_on_c, 4, 60, 0
6, 10259, Note_on_c, 4, 63, 0
6, 10260, Note_on_c, 4, 48, 40
6, 10260, Note_on_c, 4, 60, 40
6, 10260, Note_on_c, 4, 63, 40
6, 10319, Note_on_c, 4, 63, 0
6, 10319, Note_on_c, 4, 60, 0
6, 10319, Note_on_c, 4, 48, 0
6, 10320, Note_on_c, 4, 67, 48
6, 10320, Note_on_c, 4, 55, 48
6, 10559, Note_on_c, 4, 55, 0
6, 10559, Note_on_c, 4, 67, 0
6, 10560, Note_on_c, 4, 55, 48
6, 10560, Note_on_c, 4, 67, 48
6, 10799, Note_on_c, 4, 67, 0
6, 10799, Note_on_c, 4, 55, 0
6, 10800, Note_on_c, 4, 67, 48
6, 10800, Note_on_c, 4, 55, 48
6, 11039, Note_on_c, 4, 55, 0
6, 11039, Note_on_c, 4, 67, 0
6, 11040, Note_on_c, 4, 55, 56
6, 11040, Note_on_c, 4, 67, 56
6, 11339, Note_on_c, 4, 67, 0
6, 11339, Note_on_c, 4, 55, 0
6, 11880, Note_on_c, 4, 65, 48
6, 11999, Note_on_c, 4, 65, 0
6, 12000, Note_on_c, 4, 65, 56
6, 12119, Note_on_c, 4, 65, 0
6, 12120, Note_on_c, 4, 67, 96
6, 12239, Note_on_c, 4, 67, 0
6, 12240, Note_on_c, 4, 65, 48
6, 12479, Note_on_c, 4, 65, 0
6, 12480, Note_on_c, 4, 68, 48
6, 12480, Note_on_c, 4, 65, 48
6, 12719, Note_on_c, 4, 65, 0
6, 12719, Note_on_c, 4, 68, 0
6, 12720, Note_on_c, 4, 62, 48
6, 12720, Note_on_c, 4, 65, 48
6, 12720, Note_on_c, 4, 68, 48
6, 12899, Note_on_c, 4, 68, 0
6, 12899, Note_on_c, 4, 65, 0
6, 12899, Note_on_c, 4, 62, 0
6, 12900, Note_on_c, 4, 68, 88
6, 12900, Note_on_c, 4, 65, 88
6, 12900, Note_on_c, 4, 62, 88
6, 12959, Note_on_c, 4, 62, 0
6, 12959, Note_on_c, 4, 65, 0
6, 12959, Note_on_c, 4, 68, 0
6, 12960, Note_on_c, 4, 67, 96
6, 12960, Note_on_c, 4, 48, 96
6, 12960, Note_on_c, 4, 60, 96
6, 12989, Note_on_c, 4, 60, 0
6, 12989, Note_on_c, 4, 48, 0
6, 12989, Note_on_c, 4, 67, 0
6, 13020, Note_on_c, 4, 48, 96
6, 13020, Note_on_c, 4, 60, 96
6, 13020, Note_on_c, 4, 65, 96
6, 13049, Note_on_c, 4, 65, 0
6, 13049, Note_on_c, 4, 60, 0
6, 13049, Note_on_c, 4, 48, 0
6, 13260, Note_on_c, 4, 63, 48
6, 13260, Note_on_c, 4, 67, 64
6, 13260, Note_on_c, 4, 55, 64
6, 13320, Note_on_c, 4, 65, 56
6, 13329, Note_on_c, 4, 63, 0
6, 13379, Note_on_c, 4, 67, 0
6, 13379, Note_on_c, 4, 55, 0
6, 13379, Note_on_c, 4, 65, 0
6, 13380, Note_on_c, 4, 67, 52
6, 13380, Note_on_c, 4, 55, 52
6, 13380, Note_on_c, 4, 65, 52
6, 13439, Note_on_c, 4, 65, 0
6, 13439, Note_on_c, 4, 55, 0
6, 13439, Note_on_c, 4, 67, 0
6, 13440, Note_on_c, 4, 63, 48
6, 13440, Note_on_c, 4, 48, 48
6, 13440, Note_on_c, 4, 60, 48
6, 13499, Note_on_c, 4, 60, 0
6, 13499, Note_on_c, 4, 48, 0
6, 13499, Note_on_c, 4, 63, 0
6, 14400, Note_on_c, 4, 60, 96
6, 14519, Note_on_c, 4, 60, 0
6, 14520, Note_on_c, 4, 60, 96
6, 14624, Note_on_c, 4, 60, 0
6, 14625, Note_on_c, 4, 60, 96
6, 14639, Note_on_c, 4, 60, 0
6, 14640, Note_on_c, 4, 63, 112
6, 14640, Note_on_c, 4, 60, 112
6, 14819, Note_on_c, 4, 60, 0
6, 14820, Note_on_c, 4, 48, 64
6, 14820, Note_on_c, 4, 60, 64
6, 14879, Note_on_c, 4, 60, 0
6, 14879, Note_on_c, 4, 48, 0
6, 14879, Note_on_c, 4, 63, 0
6, 14880, Note_on_c, 4, 63, 48
6, 14880, Note_on_c, 4, 60, 48
6, 14880, Note_on_c, 4, 48, 48
6, 14939, Note_on_c, 4, 63, 0
6, 14940, Note_on_c, 4, 67, 48
6, 15000, Note_on_c, 4, 62, 48
6, 15000, Note_on_c, 4, 55, 48
6, 15009, Note_on_c, 4, 48, 0
6, 15009, Note_on_c, 4, 60, 0
6, 15059, Note_on_c, 4, 67, 0
6, 15060, Note_on_c, 4, 67, 48
6, 15119, Note_on_c, 4, 67, 0
6, 15119, Note_on_c, 4, 62, 0
6, 15119, Note_on_c, 4, 55, 0
6, 15120, Note_on_c, 4, 48, 48
6, 15120, Note_on_c, 4, 60, 48
6, 15120, Note_on_c, 4, 67, 48
6, 15179, Note_on_c, 4, 67, 0
6, 15179, Note_on_c, 4, 60, 0
6, 15179, Note_on_c, 4, 48, 0
6, 15360, Note_on_c, 4, 63, 48
6, 15360, Note_on_c, 4, 60, 48
6, 15360, Note_on_c, 4, 48, 48
6, 15419, Note_on_c, 4, 63, 0
6, 15420, Note_on_c, 4, 67, 48
6, 15480, Note_on_c, 4, 62, 48
6, 15480, Note_on_c, 4, 55, 48
6, 15489, Note_on_c, 4, 48, 0
6, 15489, Note_on_c, 4, 60, 0
6, 15539, Note_on_c, 4, 67, 0
6, 15540, Note_on_c, 4, 67, 48
6, 15599, Note_on_c, 4, 67, 0
6, 15599, Note_on_c, 4, 62, 0
6, 15599, Note_on_c, 4, 55, 0
6, 15600, Note_on_c, 4, 48, 48
6, 15600, Note_on_c, 4, 60, 48
6, 15600, Note_on_c, 4, 67, 48
6, 15659, Note_on_c, 4, 67, 0
6, 15659, Note_on_c, 4, 60, 0
6, 15659, Note_on_c, 4, 48, 0
6, 16020, Note_on_c, 4, 55, 96
6, 16020, Note_on_c, 4, 67, 96
6, 16049, Note_on_c, 4, 67, 0
6, 16049, Note_on_c, 4, 55, 0
6, 16080, Note_on_c, 4, 63, 48
6, 16080, Note_on_c, 4, 48, 48
6, 16080, Note_on_c, 4, 60, 48
6, 16109, Note_on_c, 4, 60, 0
6, 16109, Note_on_c, 4, 48, 0
6, 16109, Note_on_c, 4, 63, 0
6, 16200, Note_on_c, 4, 48, 48
6, 16200, Note_on_c, 4, 60, 48
6, 16229, Note_on_c, 4, 60, 0
6, 16229, Note_on_c, 4, 48, 0
6, 16320, Note_on_c, 4, 60, 48
6, 16320, Note_on_c, 4, 48, 48
6, 16349, Note_on_c, 4, 48, 0
6, 16349, Note_on_c, 4, 60, 0
6, 16560, Note_on_c, 4, 60, 48
6, 17039, Note_on_c, 4, 60, 0
6, 17040, Note_on_c, 4, 62, 48
6, 17040, Note_on_c, 4, 60, 48
6, 17519, Note_on_c, 4, 60, 0
6, 17519, Note_on_c, 4, 62, 0
6, 17520, Note_on_c, 4, 55, 48
6, 17520, Note_on_c, 4, 62, 48
6, 17759, Note_on_c, 4, 62, 0
6, 17759, Note_on_c, 4, 55, 0
6, 17760, Note_on_c, 4, 62, 48
6, 17819, Note_on_c, 4, 62, 0
6, 17940, Note_on_c, 4, 52, 78
6, 17940, Note_on_c, 4, 64, 78
6, 18059, Note_on_c, 4, 64, 0
6, 18059, Note_on_c, 4, 52, 0
6, 18180, Note_on_c, 4, 62, 118
6, 18239, Note_on_c, 4, 62, 0
6, 18240, Note_on_c, 4, 67, 127
6, 18240, Note_on_c, 4, 55, 127
6, 18240, Note_on_c, 4, 62, 127
6, 18419, Note_on_c, 4, 62, 0
6, 18419, Note_on_c, 4, 55, 0
6, 18419, Note_on_c, 4, 67, 0
6, 18420, Note_on_c, 4, 55, 127
6, 18420, Note_on_c, 4, 62, 127
6, 18420, Note_on_c, 4, 67, 127
6, 18449, Note_on_c, 4, 67, 0
6, 18449, Note_on_c, 4, 62, 0
6, 18449, Note_on_c, 4, 55, 0
6, 18480, Note_on_c, 4, 67, 127
6, 18480, Note_on_c, 4, 55, 127
6, 18480, Note_on_c, 4, 62, 127
6, 18659, Note_on_c, 4, 62, 0
6, 18659, Note_on_c, 4, 55, 0
6, 18659, Note_on_c, 4, 67, 0
6, 18660, Note_on_c, 4, 55, 127
6, 18660, Note_on_c, 4, 62, 127
6, 18660, Note_on_c, 4, 67, 127
6, 18689, Note_on_c, 4, 67, 0
6, 18689, Note_on_c, 4, 62, 0
6, 18689, Note_on_c, 4, 55, 0
6, 18720, Note_on_c, 4, 55, 127
6, 18720, Note_on_c, 4, 62, 127
6, 18720, Note_on_c, 4, 67, 127
6, 18749, Note_on_c, 4, 67, 0
6, 18749, Note_on_c, 4, 62, 0
6, 18749, Note_on_c, 4, 55, 0
6, 18780, Note_on_c, 4, 67, 127
6, 18780, Note_on_c, 4, 62, 127
6, 18780, Note_on_c, 4, 55, 127
6, 18809, Note_on_c, 4, 55, 0
6, 18809, Note_on_c, 4, 62, 0
6, 18809, Note_on_c, 4, 67, 0
6, 18840, Note_on_c, 4, 55, 127
6, 18840, Note_on_c, 4, 62, 127
6, 18840, Note_on_c, 4, 67, 127
6, 18869, Note_on_c, 4, 67, 0
6, 18869, Note_on_c, 4, 62, 0
6, 18869, Note_on_c, 4, 55, 0
6, 18900, Note_on_c, 4, 67, 127
6, 18900, Note_on_c, 4, 62, 127
6, 18900, Note_on_c, 4, 55, 127
6, 18929, Note_on_c, 4, 55, 0
6, 18929, Note_on_c, 4, 62, 0
6, 18929, Note_on_c, 4, 67, 0
6, 18960, Note_on_c, 4, 55, 127
6, 18960, Note_on_c, 4, 62, 127
6, 18960, Note_on_c, 4, 67, 127
6, 18989, Note_on_c, 4, 67, 0
6, 18989, Note_on_c, 4, 62, 0
6, 18989, Note_on_c, 4, 55, 0
6, 19200, Note_on_c, 4, 58, 48
6, 19200, Note_on_c, 4, 48, 48
6, 19200, Note_on_c, 4, 60, 48
6, 19499, Note_on_c, 4, 60, 0
6, 19499, Note_on_c, 4, 48, 0
6, 19500, Note_on_c, 4, 48, 48
6, 19500, Note_on_c, 4, 60, 48
6, 19559, Note_on_c, 4, 60, 0
6, 19559, Note_on_c, 4, 48, 0
6, 19560, Note_on_c, 4, 60, 48
6, 19560, Note_on_c, 4, 48, 48
6, 19619, Note_on_c, 4, 48, 0
6, 19619, Note_on_c, 4, 60, 0
6, 19619, Note_on_c, 4, 58, 0
6, 19620, Note_on_c, 4, 67, 48
6, 19620, Note_on_c, 4, 48, 48
6, 19620, Note_on_c, 4, 60, 48
6, 19649, Note_on_c, 4, 67, 0
6, 19679, Note_on_c, 4, 60, 0
6, 19679, Note_on_c, 4, 48, 0
6, 19680, Note_on_c, 4, 48, 48
6, 19680, Note_on_c, 4, 60, 48
6, 19680, Note_on_c, 4, 65, 48
6, 19739, Note_on_c, 4, 65, 0
6, 19799, Note_on_c, 4, 60, 0
6, 19799, Note_on_c, 4, 48, 0
6, 19800, Note_on_c, 4, 60, 64
6, 19800, Note_on_c, 4, 48, 64
6, 19919, Note_on_c, 4, 48, 0
6, 19919, Note_on_c, 4, 60, 0
6, 19920, Note_on_c, 4, 48, 80
6, 19920, Note_on_c, 4, 60, 80
6, 20039, Note_on_c, 4, 60, 0
6, 20039, Note_on_c, 4, 48, 0
6, 20040, Note_on_c, 4, 60, 96
6, 20040, Note_on_c, 4, 48, 96
6, 20219, Note_on_c, 4, 48, 0
6, 20219, Note_on_c, 4, 60, 0
6, 20640, Note_on_c, 4, 67, 48
6, 20640, Note_on_c, 4, 62, 48
6, 20640, Note_on_c, 4, 55, 48
6, 20759, Note_on_c, 4, 55, 0
6, 20759, Note_on_c, 4, 62, 0
6, 20759, Note_on_c, 4, 67, 0
6, 20760, Note_on_c, 4, 67, 48
6, 20760, Note_on_c, 4, 48, 48
6, 20760, Note_on_c, 4, 64, 48
6, 20779, Note_on_c, 4, 48, 0
6, 20780, Note_on_c, 4, 52, 48
6, 20799, Note_on_c, 4, 52, 0
6, 20800, Note_on_c, 4, 55, 48
6, 20819, Note_on_c, 4, 55, 0
6, 20819, Note_on_c, 4, 64, 0
6, 20820, Note_on_c, 4, 60, 48
6, 20839, Note_on_c, 4, 60, 0
6, 20840, Note_on_c, 4, 52, 48
6, 20840, Note_on_c, 4, 64, 48
6, 20859, Note_on_c, 4, 64, 0
6, 20859, Note_on_c, 4, 52, 0
6, 20860, Note_on_c, 4, 48, 48
6, 20860, Note_on_c, 4, 60, 48
6, 20879, Note_on_c, 4, 60, 0
6, 20879, Note_on_c, 4, 48, 0
6, 20879, Note_on_c, 4, 67, 0
6, 20880, Note_on_c, 4, 67, 48
6, 20880, Note_on_c, 4, 62, 48
6, 20880, Note_on_c, 4, 55, 48
6, 20999, Note_on_c, 4, 55, 0
6, 20999, Note_on_c, 4, 62, 0
6, 20999, Note_on_c, 4, 67, 0
6, 21000, Note_on_c, 4, 67, 48
6, 21000, Note_on_c, 4, 48, 48
6, 21000, Note_on_c, 4, 64, 48
6, 21019, Note_on_c, 4, 48, 0
6, 21020, Note_on_c, 4, 52, 48
6, 21039, Note_on_c, 4, 52, 0
6, 21040, Note_on_c, 4, 55, 48
6, 21059, Note_on_c, 4, 55, 0
6, 21059, Note_on_c, 4, 64, 0
6, 21060, Note_on_c, 4, 60, 48
6, 21079, Note_on_c, 4, 60, 0
6, 21080, Note_on_c, 4, 52, 48
6, 21080, Note_on_c, 4, 64, 48
6, 21099, Note_on_c, 4, 64, 0
6, 21099, Note_on_c, 4, 52, 0
6, 21100, Note_on_c, 4, 48, 48
6, 21100, Note_on_c, 4, 60, 48
6, 21119, Note_on_c, 4, 60, 0
6, 21119, Note_on_c, 4, 48, 0
6, 21119, Note_on_c, 4, 67, 0
6, 21120, Note_on_c, 4, 55, 48
6, 21120, Note_on_c, 4, 62, 48
6, 21120, Note_on_c, 4, 67, 48
6, 21179, Note_on_c, 4, 67, 0
6, 21599, Note_on_c, 4, 62, 0
6, 21599, Note_on_c, 4, 55, 0
6, 21600, Note_on_c, 4, 48, 48
6, 21600, Note_on_c, 4, 60, 48
6, 21720, Note_on_c, 4, 64, 48
6, 21720, Note_on_c, 4, 52, 48
6, 21729, Note_on_c, 4, 60, 0
6, 21729, Note_on_c, 4, 48, 0
6, 21840, Note_on_c, 4, 55, 48
6, 21840, Note_on_c, 4, 67, 48
6, 21849, Note_on_c, 4, 64, 0
6, 21849, Note_on_c, 4, 52, 0
6, 22079, Note_on_c, 4, 55, 0
6, 22079, Note_on_c, 4, 67, 0
6, 22080, Note_on_c, 4, 48, 48
6, 22080, Note_on_c, 4, 60, 48
6, 22379, Note_on_c, 4, 60, 0
6, 22379, Note_on_c, 4, 48, 0
6, 22380, Note_on_c, 4, 60, 69
6, 22380, Note_on_c, 4, 48, 69
6, 22424, Note_on_c, 4, 48, 0
6, 22424, Note_on_c, 4, 60, 0
6, 22425, Note_on_c, 4, 48, 71
6, 22425, Note_on_c, 4, 60, 71
6, 22439, Note_on_c, 4, 60, 0
6, 22439, Note_on_c, 4, 48, 0
6, 22440, Note_on_c, 4, 60, 72
6, 22440, Note_on_c, 4, 48, 72
6, 22499, Note_on_c, 4, 48, 0
6, 22499, Note_on_c, 4, 60, 0
6, 22500, Note_on_c, 4, 48, 74
6, 22500, Note_on_c, 4, 60, 74
6, 22559, Note_on_c, 4, 60, 0
6, 22559, Note_on_c, 4, 48, 0
6, 22620, Note_on_c, 4, 64, 79
6, 22620, Note_on_c, 4, 60, 79
6, 22679, Note_on_c, 4, 60, 0
6, 22679, Note_on_c, 4, 64, 0
6, 22740, Note_on_c, 4, 62, 84
6, 22740, Note_on_c, 4, 55, 84
6, 22799, Note_on_c, 4, 55, 0
6, 22799, Note_on_c, 4, 62, 0
6, 22860, Note_on_c, 4, 48, 88
6, 22860, Note_on_c, 4, 60, 88
6, 22919, Note_on_c, 4, 60, 0
6, 22919, Note_on_c, 4, 48, 0
6, 22980, Note_on_c, 4, 60, 93
6, 22980, Note_on_c, 4, 48, 93
6, 23039, Note_on_c, 4, 48, 0
6, 23039, Note_on_c, 4, 60, 0
6, 23040, Note_on_c, 4, 60, 96
6, 23040, Note_on_c, 4, 52, 96
6, 23060, Note_on_c, 4, 67, 96
6, 23079, Note_on_c, 4, 67, 0
6, 23080, Note_on_c, 4, 67, 96
6, 23099, Note_on_c, 4, 67, 0
6, 23099, Note_on_c, 4, 52, 0
6, 23099, Note_on_c, 4, 60, 0
6, 23100, Note_on_c, 4, 64, 112
6, 23100, Note_on_c, 4, 60, 112
6, 23100, Note_on_c, 4, 67, 112
6, 23119, Note_on_c, 4, 67, 0
6, 23120, Note_on_c, 4, 67, 112
6, 23139, Note_on_c, 4, 67, 0
6, 23140, Note_on_c, 4, 67, 112
6, 23159, Note_on_c, 4, 67, 0
6, 23160, Note_on_c, 4, 67, 112
6, 23179, Note_on_c, 4, 67, 0
6, 23180, Note_on_c, 4, 67, 112
6, 23199, Note_on_c, 4, 67, 0
6, 23200, Note_on_c, 4, 67, 112
6, 23219, Note_on_c, 4, 67, 0
6, 23219, Note_on_c, 4, 60, 0
6, 23219, Note_on_c, 4, 64, 0
6, 23220, Note_on_c, 4, 64, 112
6, 23220, Note_on_c, 4, 67, 112
6, 23239, Note_on_c, 4, 67, 0
6, 23240, Note_on_c, 4, 67, 112
6, 23249, Note_on_c, 4, 64, 0
6, 23250, Note_on_c, 4, 64, 112
6, 23250, Note_on_c, 4, 60, 112
6, 23259, Note_on_c, 4, 67, 0
6, 23260, Note_on_c, 4, 67, 112
6, 23279, Note_on_c, 4, 67, 0
6, 23279, Note_on_c, 4, 60, 0
6, 23279, Note_on_c, 4, 64, 0
6, 23280, Note_on_c, 4, 67, 112
6, 23280, Note_on_c, 4, 62, 112
6, 23280, Note_on_c, 4, 55, 112
6, 23459, Note_on_c, 4, 55, 0
6, 23459, Note_on_c, 4, 62, 0
6, 23459, Note_on_c, 4, 67, 0
6, 23460, Note_on_c, 4, 67, 112
6, 23460, Note_on_c, 4, 55, 112
6, 23460, Note_on_c, 4, 62, 112
6, 23519, Note_on_c, 4, 62, 0
6, 23519, Note_on_c, 4, 55, 0
6, 23519, Note_on_c, 4, 67, 0
6, 23520, Note_on_c, 4, 67, 127
6, 23520, Note_on_c, 4, 52, 127
6, 23520, Note_on_c, 4, 60, 127
6, 23699, Note_on_c, 4, 60, 0
6, 23699, Note_on_c, 4, 52, 0
6, 23699, Note_on_c, 4, 67, 0
6, 23700, Note_on_c, 4, 67, 127
6, 23700, Note_on_c, 4, 64, 127
6, 23700, Note_on_c, 4, 55, 127
6, 23729, Note_on_c, 4, 55, 0
6, 23729, Note_on_c, 4, 64, 0
6, 23729, Note_on_c, 4, 67, 0
6, 23760, Note_on_c, 4, 52, 127
6, 23760, Note_on_c, 4, 60, 127
6, 23760, Note_on_c, 4, 67, 127
6, 23939, Note_on_c, 4, 67, 0
6, 23939, Note_on_c, 4, 60, 0
6, 23939, Note_on_c, 4, 52, 0
6, 23940, Note_on_c, 4, 67, 127
6, 23940, Note_on_c, 4, 64, 127
6, 23940, Note_on_c, 4, 55, 127
6, 23969, Note_on_c, 4, 55, 0
6, 23969, Note_on_c, 4, 64, 0
6, 23969, Note_on_c, 4, 67, 0
6, 24000, Note_on_c, 4, 52, 127
6, 24000, Note_on_c, 4, 60, 127
6, 24000, Note_on_c, 4, 67, 127
6, 24029, Note_on_c, 4, 67, 0
6, 24029, Note_on_c, 4, 60, 0
6, 24029, Note_on_c, 4, 52, 0
6, 24060, Note_on_c, 4, 55, 127
6, 24060, Note_on_c, 4, 64, 127
6, 24060, Note_on_c, 4, 67, 127
6, 24089, Note_on_c, 4, 67, 0
6, 24089, Note_on_c, 4, 64, 0
6, 24089, Note_on_c, 4, 55, 0
6, 24120, Note_on_c, 4, 52, 127
6, 24120, Note_on_c, 4, 60, 127
6, 24120, Note_on_c, 4, 67, 127
6, 24149, Note_on_c, 4, 67, 0
6, 24149, Note_on_c, 4, 60, 0
6, 24149, Note_on_c, 4, 52, 0
6, 24180, Note_on_c, 4, 55, 127
6, 24180, Note_on_c, 4, 64, 127
6, 24180, Note_on_c, 4, 67, 127
6, 24209, Note_on_c, 4, 67, 0
6, 24209, Note_on_c, 4, 64, 0
6, 24209, Note_on_c, 4, 55, 0
6, 24240, Note_on_c, 4, 60, 127
6, 24240, Note_on_c, 4, 52, 127
6, 24240, Note_on_c, 4, 67, 127
6, 24269, Note_on_c, 4, 67, 0
6, 24269, Note_on_c, 4, 52, 0
6, 24269, Note_on_c, 4, 60, 0
6, 30060, Note_on_c, 4, 67, 96
6, 30060, Note_on_c, 4, 55, 96
6, 30179, Note_on_c, 4, 55, 0
6, 30179, Note_on_c, 4, 67, 0
6, 30180, Note_on_c, 4, 67, 96
6, 30180, Note_on_c, 4, 55, 96
6, 30239, Note_on_c, 4, 55, 0
6, 30239, Note_on_c, 4, 67, 0
6, 30240, Note_on_c, 4, 43, 96
6, 30240, Note_on_c, 4, 55, 96
6, 30359, Note_on_c, 4, 55, 0
6, 30359, Note_on_c, 4, 43, 0
6, 30360, Note_on_c, 4, 55, 96
6, 30360, Note_on_c, 4, 43, 96
6, 30419, Note_on_c, 4, 43, 0
6, 30419, Note_on_c, 4, 55, 0
6, 30420, Note_on_c, 4, 43, 96
6, 30420, Note_on_c, 4, 55, 96
6, 30479, Note_on_c, 4, 55, 0
6, 30479, Note_on_c, 4, 43, 0
6, 30480, Note_on_c, 4, 55, 112
6, 30480, Note_on_c, 4, 43, 112
6, 30659, Note_on_c, 4, 43, 0
6, 30659, Note_on_c, 4, 55, 0
6, 30660, Note_on_c, 4, 43, 96
6, 30660, Note_on_c, 4, 55, 96
6, 30719, Note_on_c, 4, 55, 0
6, 30719, Note_on_c, 4, 43, 0
6, 30720, Note_on_c, 4, 55, 96
6, 30720, Note_on_c, 4, 43, 96
6, 30779, Note_on_c, 4, 43, 0
6, 30779, Note_on_c, 4, 55, 0
6, 30780, Note_on_c, 4, 43, 96
6, 30780, Note_on_c, 4, 55, 96
6, 30839, Note_on_c, 4, 55, 0
6, 30839, Note_on_c, 4, 43, 0
6, 30840, Note_on_c, 4, 55, 96
6, 30840, Note_on_c, 4, 43, 96
6, 30899, Note_on_c, 4, 43, 0
6, 30899, Note_on_c, 4, 55, 0
6, 30900, Note_on_c, 4, 67, 96
6, 30900, Note_on_c, 4, 55, 96
6, 31019, Note_on_c, 4, 55, 0
6, 31019, Note_on_c, 4, 67, 0
6, 31020, Note_on_c, 4, 60, 96
6, 31020, Note_on_c, 4, 48, 96
6, 31079, Note_on_c, 4, 48, 0
6, 31079, Note_on_c, 4, 60, 0
6, 31080, Note_on_c, 4, 60, 96
6, 31080, Note_on_c, 4, 48, 96
6, 31139, Note_on_c, 4, 48, 0
6, 31139, Note_on_c, 4, 60, 0
6, 31140, Note_on_c, 4, 60, 96
6, 31140, Note_on_c, 4, 48, 96
6, 31199, Note_on_c, 4, 48, 0
6, 31199, Note_on_c, 4, 60, 0
6, 31200, Note_on_c, 4, 65, 127
6, 31200, Note_on_c, 4, 60, 127
6, 31200, Note_on_c, 4, 48, 127
6, 31259, Note_on_c, 4, 48, 0
6, 31259, Note_on_c, 4, 60, 0
6, 31319, Note_on_c, 4, 65, 0
6, 31320, Note_on_c, 4, 65, 127
6, 31439, Note_on_c, 4, 65, 0
6, 31440, Note_on_c, 4, 65, 127
6, 31440, Note_on_c, 4, 58, 127
6, 31679, Note_on_c, 4, 58, 0
6, 31679, Note_on_c, 4, 65, 0
6, 31680, Note_on_c, 4, 48, 127
6, 31680, Note_on_c, 4, 60, 127
6, 31680, Note_on_c, 4, 58, 127
6, 31859, Note_on_c, 4, 58, 0
6, 31859, Note_on_c, 4, 60, 0
6, 31859, Note_on_c, 4, 48, 0
6, 31860, Note_on_c, 4, 67, 127
6, 31860, Note_on_c, 4, 48, 127
6, 31860, Note_on_c, 4, 60, 127
6, 31919, Note_on_c, 4, 60, 0
6, 31919, Note_on_c, 4, 48, 0
6, 31919, Note_on_c, 4, 67, 0
6, 31920, Note_on_c, 4, 68, 127
6, 31920, Note_on_c, 4, 48, 127
6, 31920, Note_on_c, 4, 60, 127
6, 31979, Note_on_c, 4, 60, 0
6, 31979, Note_on_c, 4, 48, 0
6, 31979, Note_on_c, 4, 68, 0
6, 32040, Note_on_c, 4, 65, 127
6, 32219, Note_on_c, 4, 65, 0
6, 32220, Note_on_c, 4, 58, 127
6, 32339, Note_on_c, 4, 58, 0
6, 32340, Note_on_c, 4, 58, 127
6, 32399, Note_on_c, 4, 58, 0
6, 32400, Note_on_c, 4, 63, 127
6, 32520, Note_on_c, 4, 65, 127
6, 32529, Note_on_c, 4, 63, 0
6, 32580, Note_on_c, 4, 67, 127
6, 32589, Note_on_c, 4, 65, 0
6, 32639, Note_on_c, 4, 67, 0
6, 32640, Note_on_c, 4, 68, 127
6, 32820, Note_on_c, 4, 67, 127
6, 32829, Note_on_c, 4, 68, 0
6, 32879, Note_on_c, 4, 67, 0
6, 32880, Note_on_c, 4, 65, 127
6, 33000, Note_on_c, 4, 67, 127
6, 33009, Note_on_c, 4, 65, 0
6, 33060, Note_on_c, 4, 68, 127
6, 33069, Note_on_c, 4, 67, 0
6, 33119, Note_on_c, 4, 68, 0
6, 33120, Note_on_c, 4, 70, 127
6, 33300, Note_on_c, 4, 68, 127
6, 33309, Note_on_c, 4, 70, 0
6, 33359, Note_on_c, 4, 68, 0
6, 33360, Note_on_c, 4, 67, 127
6, 33479, Note_on_c, 4, 67, 0
6, 33480, Note_on_c, 4, 55, 127
6, 33539, Note_on_c, 4, 55, 0
6, 33540, Note_on_c, 4, 55, 127
6, 33599, Note_on_c, 4, 55, 0
6, 33600, Note_on_c, 4, 48, 127
6, 33600, Note_on_c, 4, 60, 127
6, 33600, Note_on_c, 4, 55, 127
6, 33659, Note_on_c, 4, 55, 0
6, 33959, Note_on_c, 4, 60, 0
6, 33959, Note_on_c, 4, 48, 0
6, 33960, Note_on_c, 4, 68, 127
6, 33960, Note_on_c, 4, 65, 127
6, 34199, Note_on_c, 4, 65, 0
6, 34199, Note_on_c, 4, 68, 0
6, 34200, Note_on_c, 4, 65, 127
6, 34200, Note_on_c, 4, 62, 127
6, 34379, Note_on_c, 4, 65, 0
6, 34380, Note_on_c, 4, 67, 127
6, 34439, Note_on_c, 4, 67, 0
6, 34439, Note_on_c, 4, 62, 0
6, 34440, Note_on_c, 4, 67, 127
6, 34560, Note_on_c, 4, 55, 127
6, 34619, Note_on_c, 4, 55, 0
6, 34620, Note_on_c, 4, 55, 127
6, 34679, Note_on_c, 4, 55, 0
6, 34679, Note_on_c, 4, 67, 0
6, 34680, Note_on_c, 4, 67, 127
6, 34680, Note_on_c, 4, 55, 127
6, 34680, Note_on_c, 4, 58, 127
6, 34739, Note_on_c, 4, 58, 0
6, 34739, Note_on_c, 4, 55, 0
6, 34740, Note_on_c, 4, 55, 127
6, 34799, Note_on_c, 4, 55, 0
6, 34799, Note_on_c, 4, 67, 0
6, 34800, Note_on_c, 4, 62, 127
6, 34859, Note_on_c, 4, 62, 0
6, 34860, Note_on_c, 4, 62, 127
6, 35819, Note_on_c, 4, 62, 0
6, 35820, Note_on_c, 4, 43, 127
6, 35820, Note_on_c, 4, 55, 127
6, 35849, Note_on_c, 4, 55, 0
6, 35849, Note_on_c, 4, 43, 0
6, 35880, Note_on_c, 4, 55, 127
6, 35880, Note_on_c, 4, 43, 127
6, 35909, Note_on_c, 4, 43, 0
6, 35909, Note_on_c, 4, 55, 0
6, 35940, Note_on_c, 4, 43, 127
6, 35940, Note_on_c, 4, 55, 127
6, 35969, Note_on_c, 4, 55, 0
6, 35969, Note_on_c, 4, 43, 0
6, 36000, Note_on_c, 4, 58, 127
6, 36000, Note_on_c, 4, 62, 127
6, 36000, Note_on_c, 4, 43, 124
6, 36000, Note_on_c, 4, 55, 124
6, 36029, Note_on_c, 4, 55, 0
6, 36029, Note_on_c, 4, 58, 0
6, 36029, Note_on_c, 4, 62, 0
6, 36029, Note_on_c, 4, 43, 0
6, 38160, Note_on_c, 4, 60, 124
6, 38160, Note_on_c, 4, 48, 124
6, 38399, Note_on_c, 4, 48, 0
6, 38399, Note_on_c, 4, 60, 0
6, 38400, Note_on_c, 4, 60, 124
6, 38400, Note_on_c, 4, 63, 127
6, 38400, Note_on_c, 4, 48, 124
6, 38639, Note_on_c, 4, 48, 0
6, 38639, Note_on_c, 4, 63, 0
6, 38639, Note_on_c, 4, 60, 0
6, 38640, Note_on_c, 4, 60, 124
6, 38640, Note_on_c, 4, 63, 127
6, 38641, Note_on_c, 4, 48, 124
6, 38759, Note_on_c, 4, 63, 0
6, 38759, Note_on_c, 4, 60, 0
6, 38760, Note_on_c, 4, 48, 0
6, 38760, Note_on_c, 4, 63, 127
6, 38760, Note_on_c, 4, 48, 124
6, 38760, Note_on_c, 4, 60, 124
6, 38864, Note_on_c, 4, 60, 0
6, 38864, Note_on_c, 4, 48, 0
6, 38864, Note_on_c, 4, 63, 0
6, 38865, Note_on_c, 4, 63, 127
6, 38865, Note_on_c, 4, 48, 124
6, 38865, Note_on_c, 4, 60, 124
6, 38879, Note_on_c, 4, 60, 0
6, 38879, Note_on_c, 4, 48, 0
6, 38879, Note_on_c, 4, 63, 0
6, 38880, Note_on_c, 4, 63, 127
6, 38880, Note_on_c, 4, 48, 124
6, 38880, Note_on_c, 4, 60, 124
6, 39119, Note_on_c, 4, 60, 0
6, 39119, Note_on_c, 4, 48, 0
6, 39119, Note_on_c, 4, 63, 0
6, 39120, Note_on_c, 4, 63, 127
6, 39120, Note_on_c, 4, 48, 124
6, 39120, Note_on_c, 4, 60, 124
6, 39239, Note_on_c, 4, 60, 0
6, 39239, Note_on_c, 4, 48, 0
6, 39239, Note_on_c, 4, 63, 0
6, 39240, Note_on_c, 4, 63, 127
6, 39240, Note_on_c, 4, 60, 124
6, 39240, Note_on_c, 4, 48, 124
6, 39344, Note_on_c, 4, 48, 0
6, 39344, Note_on_c, 4, 60, 0
6, 39344, Note_on_c, 4, 63, 0
6, 39345, Note_on_c, 4, 63, 127
6, 39345, Note_on_c, 4, 48, 124
6, 39345, Note_on_c, 4, 60, 124
6, 39349, Note_on_c, 4, 48, 0
6, 39350, Note_on_c, 4, 63, 0
6, 39359, Note_on_c, 4, 60, 0
6, 39360, Note_on_c, 4, 63, 127
6, 39360, Note_on_c, 4, 48, 124
6, 39360, Note_on_c, 4, 60, 124
6, 39659, Note_on_c, 4, 60, 0
6, 39659, Note_on_c, 4, 48, 0
6, 39659, Note_on_c, 4, 63, 0
6, 39660, Note_on_c, 4, 63, 127
6, 39660, Note_on_c, 4, 60, 124
6, 39661, Note_on_c, 4, 48, 124
6, 39719, Note_on_c, 4, 60, 0
6, 39719, Note_on_c, 4, 63, 0
6, 39720, Note_on_c, 4, 48, 0
6, 39720, Note_on_c, 4, 63, 127
6, 39720, Note_on_c, 4, 48, 124
6, 39720, Note_on_c, 4, 60, 124
6, 39779, Note_on_c, 4, 60, 0
6, 39779, Note_on_c, 4, 48, 0
6, 39779, Note_on_c, 4, 63, 0
6, 39780, Note_on_c, 4, 63, 127
6, 39780, Note_on_c, 4, 60, 124
6, 39780, Note_on_c, 4, 48, 124
6, 39839, Note_on_c, 4, 48, 0
6, 39839, Note_on_c, 4, 60, 0
6, 39839, Note_on_c, 4, 63, 0
6, 39840, Note_on_c, 4, 68, 127
6, 39840, Note_on_c, 4, 65, 124
6, 40139, Note_on_c, 4, 65, 0
6, 40139, Note_on_c, 4, 68, 0
6, 40140, Note_on_c, 4, 68, 127
6, 40140, Note_on_c, 4, 65, 124
6, 40199, Note_on_c, 4, 65, 0
6, 40199, Note_on_c, 4, 68, 0
6, 40200, Note_on_c, 4, 68, 127
6, 40200, Note_on_c, 4, 65, 124
6, 40259, Note_on_c, 4, 65, 0
6, 40259, Note_on_c, 4, 68, 0
6, 40260, Note_on_c, 4, 68, 127
6, 40260, Note_on_c, 4, 65, 124
6, 40319, Note_on_c, 4, 65, 0
6, 40319, Note_on_c, 4, 68, 0
6, 40320, Note_on_c, 4, 68, 127
6, 40320, Note_on_c, 4, 65, 124
6, 40379, Note_on_c, 4, 65, 0
6, 40379, Note_on_c, 4, 68, 0
6, 41580, Note_on_c, 4, 63, 48
6, 41580, Note_on_c, 4, 55, 48
6, 41580, Note_on_c, 4, 67, 48
6, 41624, Note_on_c, 4, 67, 0
6, 41624, Note_on_c, 4, 55, 0
6, 41624, Note_on_c, 4, 63, 0
6, 41625, Note_on_c, 4, 63, 48
6, 41625, Note_on_c, 4, 55, 48
6, 41625, Note_on_c, 4, 67, 48
6, 41630, Note_on_c, 4, 67, 0
6, 41630, Note_on_c, 4, 55, 0
6, 41639, Note_on_c, 4, 63, 0
6, 41640, Note_on_c, 4, 63, 48
6, 41640, Note_on_c, 4, 55, 48
6, 41640, Note_on_c, 4, 67, 48
6, 41699, Note_on_c, 4, 67, 0
6, 41699, Note_on_c, 4, 55, 0
6, 41699, Note_on_c, 4, 63, 0
6, 41700, Note_on_c, 4, 63, 48
6, 41700, Note_on_c, 4, 55, 48
6, 41700, Note_on_c, 4, 67, 48
6, 41759, Note_on_c, 4, 67, 0
6, 41759, Note_on_c, 4, 55, 0
6, 41759, Note_on_c, 4, 63, 0
6, 41820, Note_on_c, 4, 63, 48
6, 41820, Note_on_c, 4, 55, 48
6, 41820, Note_on_c, 4, 67, 48
6, 41863, Note_on_c, 4, 63, 0
6, 41864, Note_on_c, 4, 67, 0
6, 41864, Note_on_c, 4, 55, 0
6, 41865, Note_on_c, 4, 63, 48
6, 41865, Note_on_c, 4, 55, 48
6, 41865, Note_on_c, 4, 67, 48
6, 41870, Note_on_c, 4, 67, 0
6, 41870, Note_on_c, 4, 63, 0
6, 41871, Note_on_c, 4, 55, 0
6, 41880, Note_on_c, 4, 63, 48
6, 41880, Note_on_c, 4, 55, 48
6, 41880, Note_on_c, 4, 67, 48
6, 41939, Note_on_c, 4, 67, 0
6, 41939, Note_on_c, 4, 55, 0
6, 41939, Note_on_c, 4, 63, 0
6, 41940, Note_on_c, 4, 63, 48
6, 41940, Note_on_c, 4, 55, 48
6, 41940, Note_on_c, 4, 67, 48
6, 41999, Note_on_c, 4, 67, 0
6, 41999, Note_on_c, 4, 55, 0
6, 41999, Note_on_c, 4, 63, 0
6, 42060, Note_on_c, 4, 63, 48
6, 42060, Note_on_c, 4, 55, 48
6, 42060, Note_on_c, 4, 67, 48
6, 42104, Note_on_c, 4, 67, 0
6, 42104, Note_on_c, 4, 63, 0
6, 42105, Note_on_c, 4, 55, 0
6, 42105, Note_on_c, 4, 63, 48
6, 42105, Note_on_c, 4, 55, 48
6, 42105, Note_on_c, 4, 67, 48
6, 42109, Note_on_c, 4, 67, 0
6, 42110, Note_on_c, 4, 63, 0
6, 42119, Note_on_c, 4, 55, 0
6, 42120, Note_on_c, 4, 63, 48
6, 42120, Note_on_c, 4, 55, 48
6, 42120, Note_on_c, 4, 67, 48
6, 42179, Note_on_c, 4, 67, 0
6, 42179, Note_on_c, 4, 55, 0
6, 42179, Note_on_c, 4, 63, 0
6, 42180, Note_on_c, 4, 63, 48
6, 42180, Note_on_c, 4, 55, 48
6, 42180, Note_on_c, 4, 67, 48
6, 42239, Note_on_c, 4, 67, 0
6, 42239, Note_on_c, 4, 55, 0
6, 42239, Note_on_c, 4, 63, 0
6, 42285, Note_on_c, 4, 55, 49
6, 42285, Note_on_c, 4, 67, 49
6, 42300, Note_on_c, 4, 63, 48
6, 42344, Note_on_c, 4, 63, 0
6, 42344, Note_on_c, 4, 67, 0
6, 42344, Note_on_c, 4, 55, 0
6, 42345, Note_on_c, 4, 63, 48
6, 42345, Note_on_c, 4, 55, 49
6, 42345, Note_on_c, 4, 67, 49
6, 42349, Note_on_c, 4, 67, 0
6, 42350, Note_on_c, 4, 55, 0
6, 42351, Note_on_c, 4, 63, 0
6, 42360, Note_on_c, 4, 67, 48
6, 42360, Note_on_c, 4, 55, 49
6, 42360, Note_on_c, 4, 67, 49
6, 42419, Note_on_c, 4, 67, 0
6, 42419, Note_on_c, 4, 55, 0
6, 42419, Note_on_c, 4, 67, 0
6, 42420, Note_on_c, 4, 67, 48
6, 42420, Note_on_c, 4, 55, 48
6, 42420, Note_on_c, 4, 67, 48
6, 42479, Note_on_c, 4, 67, 0
6, 42479, Note_on_c, 4, 55, 0
6, 42479, Note_on_c, 4, 67, 0
6, 42540, Note_on_c, 4, 68, 48
6, 42540, Note_on_c, 4, 65, 48
6, 42584, Note_on_c, 4, 65, 0
6, 42584, Note_on_c, 4, 68, 0
6, 42585, Note_on_c, 4, 68, 48
6, 42585, Note_on_c, 4, 65, 48
6, 42590, Note_on_c, 4, 65, 0
6, 42591, Note_on_c, 4, 68, 0
6, 42600, Note_on_c, 4, 68, 48
6, 42600, Note_on_c, 4, 65, 48
6, 42659, Note_on_c, 4, 65, 0
6, 42659, Note_on_c, 4, 68, 0
6, 42660, Note_on_c, 4, 68, 48
6, 42660, Note_on_c, 4, 65, 48
6, 42719, Note_on_c, 4, 65, 0
6, 42719, Note_on_c, 4, 68, 0
6, 42765, Note_on_c, 4, 68, 50
6, 42780, Note_on_c, 4, 65, 51
6, 42824, Note_on_c, 4, 65, 0
6, 42824, Note_on_c, 4, 68, 0
6, 42825, Note_on_c, 4, 68, 54
6, 42825, Note_on_c, 4, 65, 54
6, 42830, Note_on_c, 4, 65, 0
6, 42839, Note_on_c, 4, 68, 0
6, 42840, Note_on_c, 4, 68, 55
6, 42840, Note_on_c, 4, 65, 55
6, 42899, Note_on_c, 4, 65, 0
6, 42899, Note_on_c, 4, 68, 0
6, 42900, Note_on_c, 4, 68, 59
6, 42900, Note_on_c, 4, 65, 59
6, 42959, Note_on_c, 4, 65, 0
6, 42959, Note_on_c, 4, 68, 0
6, 42960, Note_on_c, 4, 70, 62
6, 42961, Note_on_c, 4, 65, 50
6, 43019, Note_on_c, 4, 70, 0
6, 43020, Note_on_c, 4, 65, 0
6, 43020, Note_on_c, 4, 58, 60
6, 43064, Note_on_c, 4, 58, 0
6, 43065, Note_on_c, 4, 58, 57
6, 43079, Note_on_c, 4, 58, 0
6, 43080, Note_on_c, 4, 58, 56
6, 43139, Note_on_c, 4, 58, 0
6, 43140, Note_on_c, 4, 58, 52
6, 43184, Note_on_c, 4, 58, 0
6, 43185, Note_on_c, 4, 58, 50
6, 43190, Note_on_c, 4, 58, 0
6, 43200, Note_on_c, 4, 63, 48
6, 43259, Note_on_c, 4, 63, 0
6, 43260, Note_on_c, 4, 63, 48
6, 43304, Note_on_c, 4, 63, 0
6, 43305, Note_on_c, 4, 63, 48
6, 43319, Note_on_c, 4, 63, 0
6, 43320, Note_on_c, 4, 63, 48
6, 43380, Note_on_c, 4, 63, 0
6, 43440, Note_on_c, 4, 63, 48
6, 43679, Note_on_c, 4, 63, 0
6, 43680, Note_on_c, 4, 58, 55
6, 43919, Note_on_c, 4, 58, 0
6, 44280, Note_on_c, 4, 36, 48
6, 44400, Note_on_c, 4, 67, 48
6, 44520, Note_on_c, 4, 65, 48
6, 44521, Note_on_c, 4, 67, 0
6, 44580, Note_on_c, 4, 63, 48
6, 44581, Note_on_c, 4, 65, 0
6, 44639, Note_on_c, 4, 63, 0
6, 44640, Note_on_c, 4, 63, 55
6, 44759, Note_on_c, 4, 63, 0
6, 44760, Note_on_c, 4, 63, 97
6, 44879, Note_on_c, 4, 63, 0
6, 44879, Note_on_c, 4, 36, 0
6, 44880, Note_on_c, 4, 67, 49
6, 44880, Note_on_c, 4, 55, 48
6, 44880, Note_on_c, 4, 43, 48
6, 44939, Note_on_c, 4, 67, 0
6, 45119, Note_on_c, 4, 43, 0
6, 45119, Note_on_c, 4, 55, 0
6, 45120, Note_on_c, 4, 43, 48
6, 45120, Note_on_c, 4, 55, 48
6, 45359, Note_on_c, 4, 55, 0
6, 45359, Note_on_c, 4, 43, 0
6, 45360, Note_on_c, 4, 55, 47
6, 45360, Note_on_c, 4, 43, 47
6, 45599, Note_on_c, 4, 43, 0
6, 45599, Note_on_c, 4, 55, 0
6, 45600, Note_on_c, 4, 43, 63
6, 45600, Note_on_c, 4, 55, 63
6, 45779, Note_on_c, 4, 55, 0
6, 45779, Note_on_c, 4, 43, 0
6, 45780, Note_on_c, 4, 43, 52
6, 45780, Note_on_c, 4, 55, 52
6, 45839, Note_on_c, 4, 55, 0
6, 45839, Note_on_c, 4, 43, 0
6, 45840, Note_on_c, 4, 43, 48
6, 45840, Note_on_c, 4, 55, 48
6, 45899, Note_on_c, 4, 55, 0
6, 45899, Note_on_c, 4, 43, 0
6, 46680, Note_on_c, 4, 67, 96
6, 46680, Note_on_c, 4, 60, 96
6, 46680, Note_on_c, 4, 48, 96
6, 46799, Note_on_c, 4, 48, 0
6, 46799, Note_on_c, 4, 60, 0
6, 46799, Note_on_c, 4, 67, 0
6, 46800, Note_on_c, 4, 65, 48
6, 46800, Note_on_c, 4, 48, 47
6, 46801, Note_on_c, 4, 60, 47
6, 46859, Note_on_c, 4, 48, 0
6, 46859, Note_on_c, 4, 65, 0
6, 46860, Note_on_c, 4, 60, 0
6, 46860, Note_on_c, 4, 68, 48
6, 46860, Note_on_c, 4, 65, 47
6, 46904, Note_on_c, 4, 65, 0
6, 46904, Note_on_c, 4, 68, 0
6, 46905, Note_on_c, 4, 68, 48
6, 46905, Note_on_c, 4, 65, 47
6, 46909, Note_on_c, 4, 68, 0
6, 46910, Note_on_c, 4, 65, 0
6, 46920, Note_on_c, 4, 68, 48
6, 46920, Note_on_c, 4, 65, 47
6, 46979, Note_on_c, 4, 65, 0
6, 46979, Note_on_c, 4, 68, 0
6, 46980, Note_on_c, 4, 68, 48
6, 46980, Note_on_c, 4, 65, 47
6, 47039, Note_on_c, 4, 65, 0
6, 47039, Note_on_c, 4, 68, 0
6, 47100, Note_on_c, 4, 68, 48
6, 47100, Note_on_c, 4, 65, 47
6, 47144, Note_on_c, 4, 65, 0
6, 47144, Note_on_c, 4, 68, 0
6, 47145, Note_on_c, 4, 68, 48
6, 47145, Note_on_c, 4, 65, 47
6, 47150, Note_on_c, 4, 65, 0
6, 47150, Note_on_c, 4, 68, 0
6, 47160, Note_on_c, 4, 68, 48
6, 47160, Note_on_c, 4, 65, 47
6, 47219, Note_on_c, 4, 65, 0
6, 47219, Note_on_c, 4, 68, 0
6, 47220, Note_on_c, 4, 68, 48
6, 47220, Note_on_c, 4, 65, 47
6, 47279, Note_on_c, 4, 65, 0
6, 47279, Note_on_c, 4, 68, 0
6, 47340, Note_on_c, 4, 68, 59
6, 47340, Note_on_c, 4, 65, 56
6, 47384, Note_on_c, 4, 65, 0
6, 47384, Note_on_c, 4, 68, 0
6, 47385, Note_on_c, 4, 68, 67
6, 47385, Note_on_c, 4, 65, 65
6, 47391, Note_on_c, 4, 65, 0
6, 47391, Note_on_c, 4, 68, 0
6, 47400, Note_on_c, 4, 68, 70
6, 47400, Note_on_c, 4, 65, 69
6, 47459, Note_on_c, 4, 65, 0
6, 47459, Note_on_c, 4, 68, 0
6, 47460, Note_on_c, 4, 68, 82
6, 47460, Note_on_c, 4, 65, 81
6, 47504, Note_on_c, 4, 65, 0
6, 47504, Note_on_c, 4, 68, 0
6, 47505, Note_on_c, 4, 68, 91
6, 47505, Note_on_c, 4, 65, 90
6, 47511, Note_on_c, 4, 68, 0
6, 47512, Note_on_c, 4, 65, 0
6, 47520, Note_on_c, 4, 67, 95
6, 47520, Note_on_c, 4, 48, 95
6, 47520, Note_on_c, 4, 60, 95
6, 47549, Note_on_c, 4, 60, 0
6, 47549, Note_on_c, 4, 48, 0
6, 47549, Note_on_c, 4, 67, 0
6, 47580, Note_on_c, 4, 65, 95
6, 47580, Note_on_c, 4, 60, 95
6, 47580, Note_on_c, 4, 48, 95
6, 47609, Note_on_c, 4, 48, 0
6, 47609, Note_on_c, 4, 60, 0
6, 47609, Note_on_c, 4, 65, 0
6, 47700, Note_on_c, 4, 63, 48
6, 47700, Note_on_c, 4, 48, 47
6, 47700, Note_on_c, 4, 60, 47
6, 47819, Note_on_c, 4, 60, 0
6, 47819, Note_on_c, 4, 48, 0
6, 47819, Note_on_c, 4, 63, 0
6, 47820, Note_on_c, 4, 67, 63
6, 47820, Note_on_c, 4, 48, 64
6, 47820, Note_on_c, 4, 60, 64
6, 47939, Note_on_c, 4, 60, 0
6, 47939, Note_on_c, 4, 48, 0
6, 47939, Note_on_c, 4, 67, 0
6, 47940, Note_on_c, 4, 67, 53
6, 47940, Note_on_c, 4, 62, 53
6, 47940, Note_on_c, 4, 55, 53
6, 47999, Note_on_c, 4, 55, 0
6, 47999, Note_on_c, 4, 62, 0
6, 47999, Note_on_c, 4, 67, 0
6, 48000, Note_on_c, 4, 67, 48
6, 48000, Note_on_c, 4, 48, 48
6, 48000, Note_on_c, 4, 60, 48
6, 48059, Note_on_c, 4, 60, 0
6, 48059, Note_on_c, 4, 48, 0
6, 48060, Note_on_c, 4, 67, 0
6, 48960, Note_on_c, 4, 60, 95
6, 49079, Note_on_c, 4, 60, 0
6, 49080, Note_on_c, 4, 60, 94
6, 49184, Note_on_c, 4, 60, 0
6, 49185, Note_on_c, 4, 60, 94
6, 49189, Note_on_c, 4, 60, 0
6, 49200, Note_on_c, 4, 60, 109
6, 49439, Note_on_c, 4, 60, 0
6, 49440, Note_on_c, 4, 63, 48
6, 49440, Note_on_c, 4, 48, 48
6, 49440, Note_on_c, 4, 60, 48
6, 49560, Note_on_c, 4, 65, 48
6, 49560, Note_on_c, 4, 62, 48
6, 49560, Note_on_c, 4, 55, 48
6, 49561, Note_on_c, 4, 63, 0
6, 49562, Note_on_c, 4, 60, 0
6, 49563, Note_on_c, 4, 48, 0
6, 49680, Note_on_c, 4, 63, 48
6, 49680, Note_on_c, 4, 48, 48
6, 49680, Note_on_c, 4, 60, 48
6, 49682, Note_on_c, 4, 65, 0
6, 49682, Note_on_c, 4, 62, 0
6, 49682, Note_on_c, 4, 55, 0
6, 49739, Note_on_c, 4, 63, 0
6, 49739, Note_on_c, 4, 48, 0
6, 49739, Note_on_c, 4, 60, 0
6, 49830, Note_on_c, 4, 67, 48
6, 49859, Note_on_c, 4, 67, 0
6, 49860, Note_on_c, 4, 67, 48
6, 49889, Note_on_c, 4, 67, 0
6, 49890, Note_on_c, 4, 67, 48
6, 49919, Note_on_c, 4, 67, 0
6, 49920, Note_on_c, 4, 63, 49
6, 49920, Note_on_c, 4, 60, 47
6, 49920, Note_on_c, 4, 48, 47
6, 50039, Note_on_c, 4, 48, 0
6, 50039, Note_on_c, 4, 60, 0
6, 50040, Note_on_c, 4, 65, 71
6, 50040, Note_on_c, 4, 55, 71
6, 50040, Note_on_c, 4, 62, 71
6, 50043, Note_on_c, 4, 63, 0
6, 50099, Note_on_c, 4, 62, 0
6, 50099, Note_on_c, 4, 55, 0
6, 50100, Note_on_c, 4, 67, 83
6, 50100, Note_on_c, 4, 55, 83
6, 50159, Note_on_c, 4, 55, 0
6, 50159, Note_on_c, 4, 67, 0
6, 50160, Note_on_c, 4, 63, 94
6, 50160, Note_on_c, 4, 48, 95
6, 50160, Note_on_c, 4, 60, 95
6, 50162, Note_on_c, 4, 65, 0
6, 50219, Note_on_c, 4, 63, 0
6, 50219, Note_on_c, 4, 48, 0
6, 50219, Note_on_c, 4, 60, 0
6, 53520, Note_on_c, 4, 60, 32
6, 53520, Note_on_c, 4, 48, 32
6, 53759, Note_on_c, 4, 48, 0
6, 53759, Note_on_c, 4, 60, 0
6, 53760, Note_on_c, 4, 60, 32
6, 53760, Note_on_c, 4, 48, 32
6, 53999, Note_on_c, 4, 48, 0
6, 53999, Note_on_c, 4, 60, 0
6, 54000, Note_on_c, 4, 60, 31
6, 54000, Note_on_c, 4, 48, 31
6, 54179, Note_on_c, 4, 48, 0
6, 54179, Note_on_c, 4, 60, 0
6, 54180, Note_on_c, 4, 60, 35
6, 54180, Note_on_c, 4, 48, 35
6, 54239, Note_on_c, 4, 48, 0
6, 54239, Note_on_c, 4, 60, 0
6, 54240, Note_on_c, 4, 60, 36
6, 54240, Note_on_c, 4, 48, 36
6, 54359, Note_on_c, 4, 48, 0
6, 54359, Note_on_c, 4, 60, 0
6, 54360, Note_on_c, 4, 60, 39
6, 54360, Note_on_c, 4, 48, 39
6, 54419, Note_on_c, 4, 48, 0
6, 54419, Note_on_c, 4, 60, 0
6, 54420, Note_on_c, 4, 60, 40
6, 54420, Note_on_c, 4, 48, 40
6, 54479, Note_on_c, 4, 48, 0
6, 54479, Note_on_c, 4, 60, 0
6, 54480, Note_on_c, 4, 60, 42
6, 54480, Note_on_c, 4, 48, 42
6, 54539, Note_on_c, 4, 48, 0
6, 54539, Note_on_c, 4, 60, 0
6, 54540, Note_on_c, 4, 60, 43
6, 54540, Note_on_c, 4, 48, 43
6, 54599, Note_on_c, 4, 48, 0
6, 54599, Note_on_c, 4, 60, 0
6, 54600, Note_on_c, 4, 60, 45
6, 54600, Note_on_c, 4, 48, 45
6, 54659, Note_on_c, 4, 48, 0
6, 54659, Note_on_c, 4, 60, 0
6, 54660, Note_on_c, 4, 60, 46
6, 54660, Note_on_c, 4, 48, 46
6, 54719, Note_on_c, 4, 48, 0
6, 54719, Note_on_c, 4, 60, 0
6, 54720, Note_on_c, 4, 60, 47
6, 54720, Note_on_c, 4, 48, 47
6, 54959, Note_on_c, 4, 48, 0
6, 54959, Note_on_c, 4, 60, 0
6, 55080, Note_on_c, 4, 60, 46
6, 55080, Note_on_c, 4, 48, 46
6, 55139, Note_on_c, 4, 48, 0
6, 55139, Note_on_c, 4, 60, 0
6, 55320, Note_on_c, 4, 60, 47
6, 55320, Note_on_c, 4, 48, 47
6, 55379, Note_on_c, 4, 60, 0
6, 55440, Note_on_c, 4, 47, 47
6, 55442, Note_on_c, 4, 48, 0
6, 55680, Note_on_c, 4, 48, 48
6, 55681, Note_on_c, 4, 47, 0
6, 55744, Note_on_c, 4, 48, 0
6, 55920, Note_on_c, 4, 47, 48
6, 56160, Note_on_c, 4, 48, 48
6, 56162, Note_on_c, 4, 47, 0
6, 56208, Note_on_c, 4, 48, 0
6, 56400, Note_on_c, 4, 47, 48
6, 57119, Note_on_c, 4, 47, 0
6, 58080, Note_on_c, 4, 62, 31
6, 58080, Note_on_c, 4, 55, 31
6, 58320, Note_on_c, 4, 60, 31
6, 58320, Note_on_c, 4, 48, 31
6, 58322, Note_on_c, 4, 55, 0
6, 58322, Note_on_c, 4, 62, 0
6, 58379, Note_on_c, 4, 60, 0
6, 58379, Note_on_c, 4, 48, 0
6, 58560, Note_on_c, 4, 62, 31
6, 58560, Note_on_c, 4, 55, 31
6, 58800, Note_on_c, 4, 48, 31
6, 58800, Note_on_c, 4, 60, 31
6, 58802, Note_on_c, 4, 55, 0
6, 58802, Note_on_c, 4, 62, 0
6, 58859, Note_on_c, 4, 48, 0
6, 58859, Note_on_c, 4, 60, 0
6, 59100, Note_on_c, 4, 63, 94
6, 59100, Note_on_c, 4, 55, 96
6, 59100, Note_on_c, 4, 48, 96
6, 59219, Note_on_c, 4, 48, 0
6, 59219, Note_on_c, 4, 55, 0
6, 59219, Note_on_c, 4, 63, 0
6, 59220, Note_on_c, 4, 63, 63
6, 59220, Note_on_c, 4, 48, 64
6, 59220, Note_on_c, 4, 55, 64
6, 59279, Note_on_c, 4, 55, 0
6, 59279, Note_on_c, 4, 48, 0
6, 59279, Note_on_c, 4, 63, 0
6, 59280, Note_on_c, 4, 63, 50
6, 59280, Note_on_c, 4, 48, 48
6, 59280, Note_on_c, 4, 55, 48
6, 59998, Note_on_c, 4, 55, 0
6, 59998, Note_on_c, 4, 48, 0
6, 59998, Note_on_c, 4, 63, 0
6, 59998, End_track
7, 0, Start_track
7, 0, MIDI_port, 0
7, 0, Title_t, "Trumpets"
7, 0, Program_c, 5, 56
7, 18240, Note_on_c, 5, 55, 127
7, 18240, Note_on_c, 5, 67, 127
7, 18419, Note_on_c, 5, 67, 0
7, 18419, Note_on_c, 5, 55, 0
7, 18420, Note_on_c, 5, 67, 127
7, 18420, Note_on_c, 5, 55, 127
7, 18449, Note_on_c, 5, 55, 0
7, 18449, Note_on_c, 5, 67, 0
7, 18480, Note_on_c, 5, 67, 127
7, 18480, Note_on_c, 5, 55, 127
7, 18659, Note_on_c, 5, 55, 0
7, 18659, Note_on_c, 5, 67, 0
7, 18660, Note_on_c, 5, 55, 127
7, 18660, Note_on_c, 5, 67, 127
7, 18689, Note_on_c, 5, 67, 0
7, 18689, Note_on_c, 5, 55, 0
7, 18720, Note_on_c, 5, 67, 127
7, 18720, Note_on_c, 5, 55, 127
7, 18749, Note_on_c, 5, 55, 0
7, 18749, Note_on_c, 5, 67, 0
7, 18780, Note_on_c, 5, 55, 127
7, 18780, Note_on_c, 5, 67, 127
7, 18809, Note_on_c, 5, 67, 0
7, 18809, Note_on_c, 5, 55, 0
7, 18840, Note_on_c, 5, 67, 127
7, 18840, Note_on_c, 5, 55, 127
7, 18869, Note_on_c, 5, 55, 0
7, 18869, Note_on_c, 5, 67, 0
7, 18900, Note_on_c, 5, 55, 127
7, 18900, Note_on_c, 5, 67, 127
7, 18929, Note_on_c, 5, 67, 0
7, 18929, Note_on_c, 5, 55, 0
7, 18960, Note_on_c, 5, 67, 127
7, 18960, Note_on_c, 5, 55, 127
7, 18989, Note_on_c, 5, 55, 0
7, 18989, Note_on_c, 5, 67, 0
7, 21900, Note_on_c, 5, 72, 48
7, 21900, Note_on_c, 5, 60, 48
7, 21944, Note_on_c, 5, 60, 0
7, 21944, Note_on_c, 5, 72, 0
7, 21945, Note_on_c, 5, 60, 48
7, 21945, Note_on_c, 5, 72, 48
7, 21959, Note_on_c, 5, 72, 0
7, 21959, Note_on_c, 5, 60, 0
7, 21960, Note_on_c, 5, 72, 48
7, 21960, Note_on_c, 5, 60, 48
7, 22019, Note_on_c, 5, 60, 0
7, 22019, Note_on_c, 5, 72, 0
7, 22020, Note_on_c, 5, 60, 48
7, 22020, Note_on_c, 5, 72, 48
7, 22079, Note_on_c, 5, 72, 0
7, 22079, Note_on_c, 5, 60, 0
7, 22080, Note_on_c, 5, 72, 48
7, 22080, Note_on_c, 5, 60, 48
7, 22139, Note_on_c, 5, 60, 0
7, 22139, Note_on_c, 5, 72, 0
7, 22380, Note_on_c, 5, 72, 69
7, 22380, Note_on_c, 5, 60, 69
7, 22424, Note_on_c, 5, 60, 0
7, 22424, Note_on_c, 5, 72, 0
7, 22425, Note_on_c, 5, 60, 71
7, 22425, Note_on_c, 5, 72, 71
7, 22439, Note_on_c, 5, 72, 0
7, 22439, Note_on_c, 5, 60, 0
7, 22440, Note_on_c, 5, 72, 72
7, 22440, Note_on_c, 5, 60, 72
7, 22499, Note_on_c, 5, 60, 0
7, 22499, Note_on_c, 5, 72, 0
7, 22500, Note_on_c, 5, 60, 74
7, 22500, Note_on_c, 5, 72, 74
7, 22559, Note_on_c, 5, 72, 0
7, 22559, Note_on_c, 5, 60, 0
7, 22560, Note_on_c, 5, 72, 76
7, 22560, Note_on_c, 5, 60, 76
7, 22619, Note_on_c, 5, 60, 0
7, 22619, Note_on_c, 5, 72, 0
7, 22620, Note_on_c, 5, 60, 79
7, 22620, Note_on_c, 5, 72, 79
7, 22679, Note_on_c, 5, 72, 0
7, 22679, Note_on_c, 5, 60, 0
7, 22740, Note_on_c, 5, 67, 84
7, 22740, Note_on_c, 5, 55, 84
7, 22799, Note_on_c, 5, 55, 0
7, 22799, Note_on_c, 5, 67, 0
7, 22860, Note_on_c, 5, 72, 88
7, 22860, Note_on_c, 5, 60, 88
7, 22919, Note_on_c, 5, 60, 0
7, 22919, Note_on_c, 5, 72, 0
7, 22980, Note_on_c, 5, 60, 93
7, 22980, Note_on_c, 5, 72, 93
7, 23039, Note_on_c, 5, 72, 0
7, 23039, Note_on_c, 5, 60, 0
7, 23040, Note_on_c, 5, 60, 96
7, 23040, Note_on_c, 5, 72, 96
7, 23059, Note_on_c, 5, 72, 0
7, 23059, Note_on_c, 5, 60, 0
7, 23060, Note_on_c, 5, 60, 96
7, 23079, Note_on_c, 5, 60, 0
7, 23080, Note_on_c, 5, 64, 96
7, 23099, Note_on_c, 5, 64, 0
7, 23100, Note_on_c, 5, 67, 96
7, 23119, Note_on_c, 5, 67, 0
7, 23120, Note_on_c, 5, 64, 96
7, 23139, Note_on_c, 5, 64, 0
7, 23140, Note_on_c, 5, 67, 96
7, 23159, Note_on_c, 5, 67, 0
7, 23160, Note_on_c, 5, 60, 112
7, 23160, Note_on_c, 5, 72, 112
7, 23179, Note_on_c, 5, 72, 0
7, 23179, Note_on_c, 5, 60, 0
7, 23180, Note_on_c, 5, 67, 112
7, 23180, Note_on_c, 5, 55, 112
7, 23199, Note_on_c, 5, 55, 0
7, 23199, Note_on_c, 5, 67, 0
7, 23200, Note_on_c, 5, 72, 112
7, 23200, Note_on_c, 5, 60, 112
7, 23219, Note_on_c, 5, 60, 0
7, 23219, Note_on_c, 5, 72, 0
7, 23220, Note_on_c, 5, 64, 112
7, 23220, Note_on_c, 5, 76, 112
7, 23239, Note_on_c, 5, 76, 0
7, 23239, Note_on_c, 5, 64, 0
7, 23240, Note_on_c, 5, 60, 112
7, 23240, Note_on_c, 5, 72, 112
7, 23259, Note_on_c, 5, 72, 0
7, 23259, Note_on_c, 5, 60, 0
7, 23260, Note_on_c, 5, 76, 112
7, 23260, Note_on_c, 5, 64, 112
7, 23279, Note_on_c, 5, 64, 0
7, 23279, Note_on_c, 5, 76, 0
7, 23280, Note_on_c, 5, 79, 112
7, 23280, Note_on_c, 5, 67, 112
7, 23459, Note_on_c, 5, 67, 0
7, 23459, Note_on_c, 5, 79, 0
7, 23460, Note_on_c, 5, 55, 112
7, 23460, Note_on_c, 5, 67, 112
7, 23519, Note_on_c, 5, 67, 0
7, 23519, Note_on_c, 5, 55, 0
7, 23520, Note_on_c, 5, 72, 127
7, 23520, Note_on_c, 5, 60, 127
7, 23699, Note_on_c, 5, 60, 0
7, 23699, Note_on_c, 5, 72, 0
7, 23700, Note_on_c, 5, 64, 127
7, 23700, Note_on_c, 5, 67, 127
7, 23729, Note_on_c, 5, 67, 0
7, 23729, Note_on_c, 5, 64, 0
7, 23760, Note_on_c, 5, 60, 127
7, 23760, Note_on_c, 5, 72, 127
7, 23939, Note_on_c, 5, 72, 0
7, 23939, Note_on_c, 5, 60, 0
7, 23940, Note_on_c, 5, 64, 127
7, 23940, Note_on_c, 5, 67, 127
7, 23969, Note_on_c, 5, 67, 0
7, 23969, Note_on_c, 5, 64, 0
7, 24000, Note_on_c, 5, 60, 127
7, 24000, Note_on_c, 5, 72, 127
7, 24029, Note_on_c, 5, 72, 0
7, 24029, Note_on_c, 5, 60, 0
7, 24060, Note_on_c, 5, 64, 127
7, 24060, Note_on_c, 5, 67, 127
7, 24089, Note_on_c, 5, 67, 0
7, 24089, Note_on_c, 5, 64, 0
7, 24120, Note_on_c, 5, 60, 127
7, 24120, Note_on_c, 5, 72, 127
7, 24149, Note_on_c, 5, 72, 0
7, 24149, Note_on_c, 5, 60, 0
7, 24180, Note_on_c, 5, 64, 127
7, 24180, Note_on_c, 5, 67, 127
7, 24209, Note_on_c, 5, 67, 0
7, 24209, Note_on_c, 5, 64, 0
7, 24240, Note_on_c, 5, 60, 127
7, 24240, Note_on_c, 5, 72, 127
7, 24269, Note_on_c, 5, 72, 0
7, 24269, Note_on_c, 5, 60, 0
7, 31020, Note_on_c, 5, 72, 96
7, 31020, Note_on_c, 5, 60, 96
7, 31079, Note_on_c, 5, 60, 0
7, 31079, Note_on_c, 5, 72, 0
7, 31080, Note_on_c, 5, 72, 96
7, 31080, Note_on_c, 5, 60, 96
7, 31139, Note_on_c, 5, 60, 0
7, 31139, Note_on_c, 5, 72, 0
7, 31140, Note_on_c, 5, 72, 96
7, 31140, Note_on_c, 5, 60, 96
7, 31199, Note_on_c, 5, 60, 0
7, 31199, Note_on_c, 5, 72, 0
7, 31200, Note_on_c, 5, 77, 127
7, 31439, Note_on_c, 5, 77, 0
7, 31440, Note_on_c, 5, 77, 127
7, 31679, Note_on_c, 5, 77, 0
7, 31680, Note_on_c, 5, 60, 127
7, 31680, Note_on_c, 5, 72, 127
7, 31859, Note_on_c, 5, 72, 0
7, 31859, Note_on_c, 5, 60, 0
7, 31860, Note_on_c, 5, 72, 127
7, 31860, Note_on_c, 5, 60, 127
7, 31919, Note_on_c, 5, 60, 0
7, 31919, Note_on_c, 5, 72, 0
7, 31920, Note_on_c, 5, 60, 127
7, 31920, Note_on_c, 5, 72, 127
7, 31979, Note_on_c, 5, 72, 0
7, 31979, Note_on_c, 5, 60, 0
7, 33600, Note_on_c, 5, 72, 127
7, 33600, Note_on_c, 5, 60, 127
7, 33959, Note_on_c, 5, 60, 0
7, 33959, Note_on_c, 5, 72, 0
7, 33960, Note_on_c, 5, 77, 127
7, 34199, Note_on_c, 5, 77, 0
7, 34200, Note_on_c, 5, 74, 127
7, 34439, Note_on_c, 5, 74, 0
7, 34440, Note_on_c, 5, 79, 127
7, 34560, Note_on_c, 5, 67, 127
7, 34679, Note_on_c, 5, 67, 0
7, 34679, Note_on_c, 5, 79, 0
7, 34680, Note_on_c, 5, 79, 127
7, 34680, Note_on_c, 5, 67, 127
7, 34799, Note_on_c, 5, 67, 0
7, 34799, Note_on_c, 5, 79, 0
7, 34800, Note_on_c, 5, 74, 127
7, 34859, Note_on_c, 5, 74, 0
7, 35640, Note_on_c, 5, 74, 127
7, 35819, Note_on_c, 5, 74, 0
7, 35820, Note_on_c, 5, 55, 127
7, 35820, Note_on_c, 5, 67, 127
7, 35849, Note_on_c, 5, 67, 0
7, 35849, Note_on_c, 5, 55, 0
7, 35880, Note_on_c, 5, 67, 127
7, 35880, Note_on_c, 5, 55, 127
7, 35909, Note_on_c, 5, 55, 0
7, 35909, Note_on_c, 5, 67, 0
7, 35940, Note_on_c, 5, 55, 127
7, 35940, Note_on_c, 5, 67, 127
7, 35969, Note_on_c, 5, 67, 0
7, 35969, Note_on_c, 5, 55, 0
7, 36000, Note_on_c, 5, 55, 127
7, 36000, Note_on_c, 5, 67, 127
7, 36030, Note_on_c, 5, 67, 0
7, 36030, Note_on_c, 5, 55, 0
7, 38400, Note_on_c, 5, 72, 127
7, 38400, Note_on_c, 5, 60, 127
7, 38639, Note_on_c, 5, 60, 0
7, 38639, Note_on_c, 5, 72, 0
7, 38640, Note_on_c, 5, 72, 127
7, 38640, Note_on_c, 5, 60, 127
7, 38759, Note_on_c, 5, 60, 0
7, 38759, Note_on_c, 5, 72, 0
7, 38760, Note_on_c, 5, 72, 127
7, 38760, Note_on_c, 5, 60, 127
7, 38864, Note_on_c, 5, 60, 0
7, 38864, Note_on_c, 5, 72, 0
7, 38865, Note_on_c, 5, 72, 127
7, 38865, Note_on_c, 5, 60, 127
7, 38879, Note_on_c, 5, 60, 0
7, 38879, Note_on_c, 5, 72, 0
7, 38880, Note_on_c, 5, 60, 127
7, 38880, Note_on_c, 5, 72, 127
7, 39119, Note_on_c, 5, 72, 0
7, 39119, Note_on_c, 5, 60, 0
7, 39120, Note_on_c, 5, 72, 127
7, 39120, Note_on_c, 5, 60, 127
7, 39239, Note_on_c, 5, 60, 0
7, 39239, Note_on_c, 5, 72, 0
7, 39240, Note_on_c, 5, 72, 127
7, 39240, Note_on_c, 5, 60, 127
7, 39344, Note_on_c, 5, 60, 0
7, 39344, Note_on_c, 5, 72, 0
7, 39345, Note_on_c, 5, 72, 127
7, 39345, Note_on_c, 5, 60, 127
7, 39350, Note_on_c, 5, 60, 0
7, 39351, Note_on_c, 5, 72, 0
7, 39360, Note_on_c, 5, 72, 127
7, 39360, Note_on_c, 5, 60, 127
7, 39659, Note_on_c, 5, 60, 0
7, 39659, Note_on_c, 5, 72, 0
7, 39660, Note_on_c, 5, 72, 127
7, 39660, Note_on_c, 5, 60, 127
7, 39719, Note_on_c, 5, 60, 0
7, 39719, Note_on_c, 5, 72, 0
7, 39720, Note_on_c, 5, 72, 127
7, 39720, Note_on_c, 5, 60, 127
7, 39779, Note_on_c, 5, 60, 0
7, 39779, Note_on_c, 5, 72, 0
7, 39780, Note_on_c, 5, 72, 127
7, 39780, Note_on_c, 5, 60, 127
7, 39839, Note_on_c, 5, 60, 0
7, 39839, Note_on_c, 5, 72, 0
7, 39840, Note_on_c, 5, 77, 127
7, 40139, Note_on_c, 5, 77, 0
7, 40140, Note_on_c, 5, 77, 127
7, 40199, Note_on_c, 5, 77, 0
7, 40200, Note_on_c, 5, 77, 127
7, 40259, Note_on_c, 5, 77, 0
7, 40260, Note_on_c, 5, 77, 127
7, 40319, Note_on_c, 5, 77, 0
7, 40320, Note_on_c, 5, 77, 127
7, 40379, Note_on_c, 5, 77, 0
7, 41520, Note_on_c, 5, 55, 47
7, 41520, Note_on_c, 5, 67, 47
7, 41759, Note_on_c, 5, 67, 0
7, 41759, Note_on_c, 5, 55, 0
7, 41760, Note_on_c, 5, 67, 48
7, 41760, Note_on_c, 5, 55, 48
7, 41999, Note_on_c, 5, 55, 0
7, 41999, Note_on_c, 5, 67, 0
7, 42000, Note_on_c, 5, 55, 48
7, 42000, Note_on_c, 5, 67, 48
7, 42119, Note_on_c, 5, 67, 0
7, 42119, Note_on_c, 5, 55, 0
7, 42120, Note_on_c, 5, 55, 48
7, 42120, Note_on_c, 5, 67, 48
7, 42239, Note_on_c, 5, 67, 0
7, 42239, Note_on_c, 5, 55, 0
7, 42240, Note_on_c, 5, 67, 48
7, 42240, Note_on_c, 5, 55, 48
7, 42419, Note_on_c, 5, 55, 0
7, 42419, Note_on_c, 5, 67, 0
7, 42419, End_track
8, 0, Start_track
8, 0, MIDI_port, 0
8, 0, Title_t, "Timpani"
8, 0, Program_c, 6, 47
8, 2160, Note_on_c, 6, 48, 32
8, 2219, Note_on_c, 6, 48, 0
8, 2400, Note_on_c, 6, 48, 32
8, 2459, Note_on_c, 6, 48, 0
8, 2640, Note_on_c, 6, 48, 32
8, 2699, Note_on_c, 6, 48, 0
8, 2760, Note_on_c, 6, 48, 32
8, 2819, Note_on_c, 6, 48, 0
8, 2880, Note_on_c, 6, 43, 32
8, 2939, Note_on_c, 6, 43, 0
8, 2940, Note_on_c, 6, 43, 32
8, 2999, Note_on_c, 6, 43, 0
8, 3000, Note_on_c, 6, 43, 32
8, 3059, Note_on_c, 6, 43, 0
8, 5520, Note_on_c, 6, 43, 32
8, 5579, Note_on_c, 6, 43, 0
8, 5760, Note_on_c, 6, 43, 32
8, 5819, Note_on_c, 6, 43, 0
8, 6000, Note_on_c, 6, 43, 32
8, 6059, Note_on_c, 6, 43, 0
8, 6240, Note_on_c, 6, 43, 32
8, 6299, Note_on_c, 6, 43, 0
8, 6360, Note_on_c, 6, 43, 32
8, 6419, Note_on_c, 6, 43, 0
8, 6480, Note_on_c, 6, 43, 32
8, 6539, Note_on_c, 6, 43, 0
8, 9840, Note_on_c, 6, 48, 48
8, 9899, Note_on_c, 6, 48, 0
8, 9960, Note_on_c, 6, 48, 48
8, 10019, Note_on_c, 6, 48, 0
8, 10020, Note_on_c, 6, 48, 48
8, 10079, Note_on_c, 6, 48, 0
8, 10080, Note_on_c, 6, 48, 48
8, 10139, Note_on_c, 6, 48, 0
8, 10200, Note_on_c, 6, 48, 48
8, 10259, Note_on_c, 6, 48, 0
8, 10320, Note_on_c, 6, 43, 48
8, 10379, Note_on_c, 6, 43, 0
8, 10560, Note_on_c, 6, 43, 48
8, 10619, Note_on_c, 6, 43, 0
8, 10800, Note_on_c, 6, 43, 48
8, 10859, Note_on_c, 6, 43, 0
8, 11040, Note_on_c, 6, 43, 48
8, 11099, Note_on_c, 6, 43, 0
8, 11160, Note_on_c, 6, 43, 48
8, 11219, Note_on_c, 6, 43, 0
8, 11280, Note_on_c, 6, 43, 48
8, 11339, Note_on_c, 6, 43, 0
8, 12120, Note_on_c, 6, 48, 96
8, 12179, Note_on_c, 6, 48, 0
8, 12240, Note_on_c, 6, 48, 48
8, 12299, Note_on_c, 6, 48, 0
8, 12900, Note_on_c, 6, 43, 48
8, 12959, Note_on_c, 6, 43, 0
8, 12960, Note_on_c, 6, 48, 96
8, 12989, Note_on_c, 6, 48, 0
8, 13020, Note_on_c, 6, 48, 96
8, 13049, Note_on_c, 6, 48, 0
8, 13140, Note_on_c, 6, 48, 48
8, 13199, Note_on_c, 6, 48, 0
8, 13200, Note_on_c, 6, 48, 48
8, 13259, Note_on_c, 6, 48, 0
8, 13260, Note_on_c, 6, 43, 48
8, 13319, Note_on_c, 6, 43, 0
8, 13320, Note_on_c, 6, 43, 56
8, 13379, Note_on_c, 6, 43, 0
8, 13380, Note_on_c, 6, 43, 48
8, 13439, Note_on_c, 6, 43, 0
8, 13440, Note_on_c, 6, 48, 48
8, 13499, Note_on_c, 6, 48, 0
8, 14820, Note_on_c, 6, 48, 48
8, 14879, Note_on_c, 6, 48, 0
8, 14880, Note_on_c, 6, 43, 48
8, 14939, Note_on_c, 6, 43, 0
8, 15000, Note_on_c, 6, 43, 48
8, 15059, Note_on_c, 6, 43, 0
8, 15120, Note_on_c, 6, 48, 48
8, 15179, Note_on_c, 6, 48, 0
8, 15360, Note_on_c, 6, 43, 48
8, 15419, Note_on_c, 6, 43, 0
8, 15480, Note_on_c, 6, 43, 48
8, 15539, Note_on_c, 6, 43, 0
8, 15600, Note_on_c, 6, 48, 48
8, 15659, Note_on_c, 6, 48, 0
8, 16020, Note_on_c, 6, 43, 96
8, 16079, Note_on_c, 6, 43, 0
8, 16080, Note_on_c, 6, 48, 48
8, 16139, Note_on_c, 6, 48, 0
8, 16200, Note_on_c, 6, 48, 48
8, 16259, Note_on_c, 6, 48, 0
8, 16320, Note_on_c, 6, 48, 48
8, 16379, Note_on_c, 6, 48, 0
8, 18240, Note_on_c, 6, 43, 127
8, 18249, Note_on_c, 6, 43, 0
8, 18250, Note_on_c, 6, 43, 127
8, 18259, Note_on_c, 6, 43, 0
8, 18260, Note_on_c, 6, 43, 127
8, 18269, Note_on_c, 6, 43, 0
8, 18270, Note_on_c, 6, 43, 127
8, 18279, Note_on_c, 6, 43, 0
8, 18280, Note_on_c, 6, 43, 127
8, 18289, Note_on_c, 6, 43, 0
8, 18290, Note_on_c, 6, 43, 127
8, 18299, Note_on_c, 6, 43, 0
8, 18300, Note_on_c, 6, 43, 127
8, 18309, Note_on_c, 6, 43, 0
8, 18310, Note_on_c, 6, 43, 127
8, 18319, Note_on_c, 6, 43, 0
8, 18320, Note_on_c, 6, 43, 127
8, 18329, Note_on_c, 6, 43, 0
8, 18330, Note_on_c, 6, 43, 127
8, 18339, Note_on_c, 6, 43, 0
8, 18340, Note_on_c, 6, 43, 127
8, 18349, Note_on_c, 6, 43, 0
8, 18350, Note_on_c, 6, 43, 127
8, 18359, Note_on_c, 6, 43, 0
8, 18360, Note_on_c, 6, 43, 127
8, 18419, Note_on_c, 6, 43, 0
8, 18480, Note_on_c, 6, 43, 127
8, 18489, Note_on_c, 6, 43, 0
8, 18490, Note_on_c, 6, 43, 127
8, 18499, Note_on_c, 6, 43, 0
8, 18500, Note_on_c, 6, 43, 127
8, 18509, Note_on_c, 6, 43, 0
8, 18510, Note_on_c, 6, 43, 127
8, 18519, Note_on_c, 6, 43, 0
8, 18520, Note_on_c, 6, 43, 127
8, 18529, Note_on_c, 6, 43, 0
8, 18530, Note_on_c, 6, 43, 127
8, 18539, Note_on_c, 6, 43, 0
8, 18540, Note_on_c, 6, 43, 127
8, 18549, Note_on_c, 6, 43, 0
8, 18550, Note_on_c, 6, 43, 127
8, 18559, Note_on_c, 6, 43, 0
8, 18560, Note_on_c, 6, 43, 127
8, 18569, Note_on_c, 6, 43, 0
8, 18570, Note_on_c, 6, 43, 127
8, 18579, Note_on_c, 6, 43, 0
8, 18580, Note_on_c, 6, 43, 127
8, 18589, Note_on_c, 6, 43, 0
8, 18590, Note_on_c, 6, 43, 127
8, 18599, Note_on_c, 6, 43, 0
8, 18600, Note_on_c, 6, 43, 127
8, 18659, Note_on_c, 6, 43, 0
8, 18720, Note_on_c, 6, 43, 127
8, 18729, Note_on_c, 6, 43, 0
8, 18730, Note_on_c, 6, 43, 127
8, 18739, Note_on_c, 6, 43, 0
8, 18740, Note_on_c, 6, 43, 127
8, 18749, Note_on_c, 6, 43, 0
8, 18750, Note_on_c, 6, 43, 127
8, 18759, Note_on_c, 6, 43, 0
8, 18760, Note_on_c, 6, 43, 127
8, 18769, Note_on_c, 6, 43, 0
8, 18770, Note_on_c, 6, 43, 127
8, 18779, Note_on_c, 6, 43, 0
8, 18780, Note_on_c, 6, 43, 127
8, 18789, Note_on_c, 6, 43, 0
8, 18790, Note_on_c, 6, 43, 127
8, 18799, Note_on_c, 6, 43, 0
8, 18800, Note_on_c, 6, 43, 127
8, 18809, Note_on_c, 6, 43, 0
8, 18810, Note_on_c, 6, 43, 127
8, 18819, Note_on_c, 6, 43, 0
8, 18820, Note_on_c, 6, 43, 127
8, 18829, Note_on_c, 6, 43, 0
8, 18830, Note_on_c, 6, 43, 127
8, 18839, Note_on_c, 6, 43, 0
8, 18840, Note_on_c, 6, 43, 127
8, 18849, Note_on_c, 6, 43, 0
8, 18850, Note_on_c, 6, 43, 127
8, 18859, Note_on_c, 6, 43, 0
8, 18860, Note_on_c, 6, 43, 127
8, 18869, Note_on_c, 6, 43, 0
8, 18870, Note_on_c, 6, 43, 127
8, 18879, Note_on_c, 6, 43, 0
8, 18880, Note_on_c, 6, 43, 127
8, 18889, Note_on_c, 6, 43, 0
8, 18890, Note_on_c, 6, 43, 127
8, 18899, Note_on_c, 6, 43, 0
8, 18900, Note_on_c, 6, 43, 127
8, 18909, Note_on_c, 6, 43, 0
8, 18910, Note_on_c, 6, 43, 127
8, 18919, Note_on_c, 6, 43, 0
8, 18920, Note_on_c, 6, 43, 127
8, 18929, Note_on_c, 6, 43, 0
8, 18930, Note_on_c, 6, 43, 127
8, 18939, Note_on_c, 6, 43, 0
8, 18940, Note_on_c, 6, 43, 127
8, 18949, Note_on_c, 6, 43, 0
8, 18950, Note_on_c, 6, 43, 127
8, 18959, Note_on_c, 6, 43, 0
8, 18960, Note_on_c, 6, 43, 127
8, 19019, Note_on_c, 6, 43, 0
8, 19200, Note_on_c, 6, 48, 48
8, 19259, Note_on_c, 6, 48, 0
8, 19260, Note_on_c, 6, 48, 48
8, 19319, Note_on_c, 6, 48, 0
8, 19440, Note_on_c, 6, 48, 48
8, 19499, Note_on_c, 6, 48, 0
8, 19620, Note_on_c, 6, 48, 48
8, 19679, Note_on_c, 6, 48, 0
8, 19680, Note_on_c, 6, 48, 48
8, 19739, Note_on_c, 6, 48, 0
8, 19800, Note_on_c, 6, 48, 64
8, 19859, Note_on_c, 6, 48, 0
8, 19920, Note_on_c, 6, 48, 80
8, 19979, Note_on_c, 6, 48, 0
8, 20040, Note_on_c, 6, 48, 96
8, 20099, Note_on_c, 6, 48, 0
8, 20160, Note_on_c, 6, 48, 48
8, 20219, Note_on_c, 6, 48, 0
8, 21600, Note_on_c, 6, 48, 48
8, 21659, Note_on_c, 6, 48, 0
8, 21840, Note_on_c, 6, 48, 48
8, 21899, Note_on_c, 6, 48, 0
8, 22080, Note_on_c, 6, 48, 48
8, 22139, Note_on_c, 6, 48, 0
8, 22380, Note_on_c, 6, 48, 69
8, 22424, Note_on_c, 6, 48, 0
8, 22425, Note_on_c, 6, 48, 71
8, 22439, Note_on_c, 6, 48, 0
8, 22440, Note_on_c, 6, 48, 72
8, 22499, Note_on_c, 6, 48, 0
8, 22500, Note_on_c, 6, 48, 74
8, 22559, Note_on_c, 6, 48, 0
8, 22560, Note_on_c, 6, 48, 76
8, 22619, Note_on_c, 6, 48, 0
8, 22680, Note_on_c, 6, 43, 81
8, 22739, Note_on_c, 6, 43, 0
8, 22800, Note_on_c, 6, 48, 86
8, 22859, Note_on_c, 6, 48, 0
8, 22920, Note_on_c, 6, 48, 91
8, 22979, Note_on_c, 6, 48, 0
8, 23040, Note_on_c, 6, 43, 96
8, 23099, Note_on_c, 6, 43, 0
8, 23160, Note_on_c, 6, 43, 112
8, 23179, Note_on_c, 6, 43, 0
8, 23180, Note_on_c, 6, 43, 112
8, 23199, Note_on_c, 6, 43, 0
8, 23200, Note_on_c, 6, 43, 112
8, 23219, Note_on_c, 6, 43, 0
8, 23220, Note_on_c, 6, 43, 112
8, 23239, Note_on_c, 6, 43, 0
8, 23240, Note_on_c, 6, 43, 112
8, 23259, Note_on_c, 6, 43, 0
8, 23260, Note_on_c, 6, 43, 112
8, 23279, Note_on_c, 6, 43, 0
8, 23280, Note_on_c, 6, 43, 112
8, 23299, Note_on_c, 6, 43, 0
8, 23300, Note_on_c, 6, 43, 112
8, 23319, Note_on_c, 6, 43, 0
8, 23320, Note_on_c, 6, 43, 112
8, 23339, Note_on_c, 6, 43, 0
8, 23340, Note_on_c, 6, 43, 112
8, 23359, Note_on_c, 6, 43, 0
8, 23360, Note_on_c, 6, 43, 112
8, 23379, Note_on_c, 6, 43, 0
8, 23380, Note_on_c, 6, 43, 112
8, 23399, Note_on_c, 6, 43, 0
8, 23400, Note_on_c, 6, 43, 112
8, 23419, Note_on_c, 6, 43, 0
8, 23420, Note_on_c, 6, 43, 112
8, 23439, Note_on_c, 6, 43, 0
8, 23440, Note_on_c, 6, 43, 112
8, 23459, Note_on_c, 6, 43, 0
8, 23460, Note_on_c, 6, 43, 112
8, 23479, Note_on_c, 6, 43, 0
8, 23480, Note_on_c, 6, 43, 112
8, 23499, Note_on_c, 6, 43, 0
8, 23500, Note_on_c, 6, 43, 112
8, 23519, Note_on_c, 6, 43, 0
8, 23520, Note_on_c, 6, 48, 127
8, 23529, Note_on_c, 6, 48, 0
8, 23530, Note_on_c, 6, 48, 127
8, 23539, Note_on_c, 6, 48, 0
8, 23540, Note_on_c, 6, 48, 127
8, 23549, Note_on_c, 6, 48, 0
8, 23550, Note_on_c, 6, 48, 127
8, 23559, Note_on_c, 6, 48, 0
8, 23560, Note_on_c, 6, 48, 127
8, 23569, Note_on_c, 6, 48, 0
8, 23570, Note_on_c, 6, 48, 127
8, 23579, Note_on_c, 6, 48, 0
8, 23580, Note_on_c, 6, 48, 127
8, 23589, Note_on_c, 6, 48, 0
8, 23590, Note_on_c, 6, 48, 127
8, 23599, Note_on_c, 6, 48, 0
8, 23600, Note_on_c, 6, 48, 127
8, 23609, Note_on_c, 6, 48, 0
8, 23610, Note_on_c, 6, 48, 127
8, 23619, Note_on_c, 6, 48, 0
8, 23620, Note_on_c, 6, 48, 127
8, 23629, Note_on_c, 6, 48, 0
8, 23630, Note_on_c, 6, 48, 127
8, 23639, Note_on_c, 6, 48, 0
8, 23640, Note_on_c, 6, 48, 127
8, 23699, Note_on_c, 6, 48, 0
8, 23760, Note_on_c, 6, 48, 127
8, 23769, Note_on_c, 6, 48, 0
8, 23770, Note_on_c, 6, 48, 127
8, 23779, Note_on_c, 6, 48, 0
8, 23780, Note_on_c, 6, 48, 127
8, 23789, Note_on_c, 6, 48, 0
8, 23790, Note_on_c, 6, 48, 127
8, 23799, Note_on_c, 6, 48, 0
8, 23800, Note_on_c, 6, 48, 127
8, 23809, Note_on_c, 6, 48, 0
8, 23810, Note_on_c, 6, 48, 127
8, 23819, Note_on_c, 6, 48, 0
8, 23820, Note_on_c, 6, 48, 127
8, 23829, Note_on_c, 6, 48, 0
8, 23830, Note_on_c, 6, 48, 127
8, 23839, Note_on_c, 6, 48, 0
8, 23840, Note_on_c, 6, 48, 127
8, 23849, Note_on_c, 6, 48, 0
8, 23850, Note_on_c, 6, 48, 127
8, 23859, Note_on_c, 6, 48, 0
8, 23860, Note_on_c, 6, 48, 127
8, 23869, Note_on_c, 6, 48, 0
8, 23870, Note_on_c, 6, 48, 127
8, 23879, Note_on_c, 6, 48, 0
8, 23880, Note_on_c, 6, 48, 127
8, 23939, Note_on_c, 6, 48, 0
8, 24000, Note_on_c, 6, 48, 127
8, 24009, Note_on_c, 6, 48, 0
8, 24010, Note_on_c, 6, 48, 127
8, 24019, Note_on_c, 6, 48, 0
8, 24020, Note_on_c, 6, 48, 127
8, 24029, Note_on_c, 6, 48, 0
8, 24030, Note_on_c, 6, 48, 127
8, 24039, Note_on_c, 6, 48, 0
8, 24040, Note_on_c, 6, 48, 127
8, 24049, Note_on_c, 6, 48, 0
8, 24050, Note_on_c, 6, 48, 127
8, 24059, Note_on_c, 6, 48, 0
8, 24060, Note_on_c, 6, 48, 127
8, 24069, Note_on_c, 6, 48, 0
8, 24070, Note_on_c, 6, 48, 127
8, 24079, Note_on_c, 6, 48, 0
8, 24080, Note_on_c, 6, 48, 127
8, 24089, Note_on_c, 6, 48, 0
8, 24090, Note_on_c, 6, 48, 127
8, 24099, Note_on_c, 6, 48, 0
8, 24100, Note_on_c, 6, 48, 127
8, 24109, Note_on_c, 6, 48, 0
8, 24110, Note_on_c, 6, 48, 127
8, 24119, Note_on_c, 6, 48, 0
8, 24120, Note_on_c, 6, 48, 127
8, 24129, Note_on_c, 6, 48, 0
8, 24130, Note_on_c, 6, 48, 127
8, 24139, Note_on_c, 6, 48, 0
8, 24140, Note_on_c, 6, 48, 127
8, 24149, Note_on_c, 6, 48, 0
8, 24150, Note_on_c, 6, 48, 127
8, 24159, Note_on_c, 6, 48, 0
8, 24160, Note_on_c, 6, 48, 127
8, 24169, Note_on_c, 6, 48, 0
8, 24170, Note_on_c, 6, 48, 127
8, 24179, Note_on_c, 6, 48, 0
8, 24180, Note_on_c, 6, 48, 127
8, 24189, Note_on_c, 6, 48, 0
8, 24190, Note_on_c, 6, 48, 127
8, 24199, Note_on_c, 6, 48, 0
8, 24200, Note_on_c, 6, 48, 127
8, 24209, Note_on_c, 6, 48, 0
8, 24210, Note_on_c, 6, 48, 127
8, 24219, Note_on_c, 6, 48, 0
8, 24220, Note_on_c, 6, 48, 127
8, 24229, Note_on_c, 6, 48, 0
8, 24230, Note_on_c, 6, 48, 127
8, 24239, Note_on_c, 6, 48, 0
8, 24240, Note_on_c, 6, 48, 127
8, 24269, Note_on_c, 6, 48, 0
8, 30240, Note_on_c, 6, 43, 96
8, 30299, Note_on_c, 6, 43, 0
8, 30480, Note_on_c, 6, 43, 96
8, 30539, Note_on_c, 6, 43, 0
8, 30660, Note_on_c, 6, 43, 96
8, 30719, Note_on_c, 6, 43, 0
8, 30720, Note_on_c, 6, 43, 96
8, 30779, Note_on_c, 6, 43, 0
8, 30780, Note_on_c, 6, 43, 96
8, 30839, Note_on_c, 6, 43, 0
8, 30840, Note_on_c, 6, 43, 96
8, 30899, Note_on_c, 6, 43, 0
8, 30900, Note_on_c, 6, 43, 96
8, 30959, Note_on_c, 6, 43, 0
8, 30960, Note_on_c, 6, 48, 96
8, 31019, Note_on_c, 6, 48, 0
8, 31020, Note_on_c, 6, 48, 96
8, 31079, Note_on_c, 6, 48, 0
8, 31080, Note_on_c, 6, 48, 96
8, 31139, Note_on_c, 6, 48, 0
8, 31140, Note_on_c, 6, 48, 96
8, 31199, Note_on_c, 6, 48, 0
8, 31200, Note_on_c, 6, 48, 127
8, 31259, Note_on_c, 6, 48, 0
8, 31680, Note_on_c, 6, 48, 127
8, 31689, Note_on_c, 6, 48, 0
8, 31690, Note_on_c, 6, 48, 127
8, 31699, Note_on_c, 6, 48, 0
8, 31700, Note_on_c, 6, 48, 127
8, 31709, Note_on_c, 6, 48, 0
8, 31710, Note_on_c, 6, 48, 127
8, 31719, Note_on_c, 6, 48, 0
8, 31720, Note_on_c, 6, 48, 127
8, 31729, Note_on_c, 6, 48, 0
8, 31730, Note_on_c, 6, 48, 127
8, 31739, Note_on_c, 6, 48, 0
8, 31740, Note_on_c, 6, 48, 127
8, 31749, Note_on_c, 6, 48, 0
8, 31750, Note_on_c, 6, 48, 127
8, 31759, Note_on_c, 6, 48, 0
8, 31760, Note_on_c, 6, 48, 127
8, 31769, Note_on_c, 6, 48, 0
8, 31770, Note_on_c, 6, 48, 127
8, 31779, Note_on_c, 6, 48, 0
8, 31780, Note_on_c, 6, 48, 127
8, 31789, Note_on_c, 6, 48, 0
8, 31790, Note_on_c, 6, 48, 127
8, 31799, Note_on_c, 6, 48, 0
8, 31800, Note_on_c, 6, 48, 127
8, 31809, Note_on_c, 6, 48, 0
8, 31810, Note_on_c, 6, 48, 127
8, 31819, Note_on_c, 6, 48, 0
8, 31820, Note_on_c, 6, 48, 127
8, 31829, Note_on_c, 6, 48, 0
8, 31830, Note_on_c, 6, 48, 127
8, 31839, Note_on_c, 6, 48, 0
8, 31840, Note_on_c, 6, 48, 127
8, 31849, Note_on_c, 6, 48, 0
8, 31850, Note_on_c, 6, 48, 127
8, 31859, Note_on_c, 6, 48, 0
8, 31860, Note_on_c, 6, 48, 127
8, 31869, Note_on_c, 6, 48, 0
8, 31870, Note_on_c, 6, 48, 127
8, 31879, Note_on_c, 6, 48, 0
8, 31880, Note_on_c, 6, 48, 127
8, 31889, Note_on_c, 6, 48, 0
8, 31890, Note_on_c, 6, 48, 127
8, 31899, Note_on_c, 6, 48, 0
8, 31900, Note_on_c, 6, 48, 127
8, 31909, Note_on_c, 6, 48, 0
8, 31910, Note_on_c, 6, 48, 127
8, 31919, Note_on_c, 6, 48, 0
8, 31920, Note_on_c, 6, 48, 127
8, 31979, Note_on_c, 6, 48, 0
8, 33480, Note_on_c, 6, 43, 127
8, 33489, Note_on_c, 6, 43, 0
8, 33490, Note_on_c, 6, 43, 127
8, 33499, Note_on_c, 6, 43, 0
8, 33500, Note_on_c, 6, 43, 127
8, 33509, Note_on_c, 6, 43, 0
8, 33510, Note_on_c, 6, 43, 127
8, 33519, Note_on_c, 6, 43, 0
8, 33520, Note_on_c, 6, 43, 127
8, 33529, Note_on_c, 6, 43, 0
8, 33530, Note_on_c, 6, 43, 127
8, 33539, Note_on_c, 6, 43, 0
8, 33540, Note_on_c, 6, 43, 127
8, 33549, Note_on_c, 6, 43, 0
8, 33550, Note_on_c, 6, 43, 127
8, 33559, Note_on_c, 6, 43, 0
8, 33560, Note_on_c, 6, 43, 127
8, 33569, Note_on_c, 6, 43, 0
8, 33570, Note_on_c, 6, 43, 127
8, 33579, Note_on_c, 6, 43, 0
8, 33580, Note_on_c, 6, 43, 127
8, 33589, Note_on_c, 6, 43, 0
8, 33590, Note_on_c, 6, 43, 127
8, 33599, Note_on_c, 6, 43, 0
8, 33600, Note_on_c, 6, 48, 127
8, 33719, Note_on_c, 6, 48, 0
8, 33720, Note_on_c, 6, 48, 127
8, 33779, Note_on_c, 6, 48, 0
8, 33780, Note_on_c, 6, 48, 127
8, 33839, Note_on_c, 6, 48, 0
8, 33840, Note_on_c, 6, 48, 127
8, 33899, Note_on_c, 6, 48, 0
8, 34320, Note_on_c, 6, 43, 127
8, 34379, Note_on_c, 6, 43, 0
8, 34380, Note_on_c, 6, 43, 127
8, 34439, Note_on_c, 6, 43, 0
8, 34440, Note_on_c, 6, 43, 127
8, 34499, Note_on_c, 6, 43, 0
8, 34500, Note_on_c, 6, 43, 127
8, 34559, Note_on_c, 6, 43, 0
8, 34560, Note_on_c, 6, 48, 127
8, 34619, Note_on_c, 6, 48, 0
8, 34680, Note_on_c, 6, 43, 127
8, 34739, Note_on_c, 6, 43, 0
8, 35820, Note_on_c, 6, 43, 127
8, 35849, Note_on_c, 6, 43, 0
8, 35880, Note_on_c, 6, 43, 127
8, 35909, Note_on_c, 6, 43, 0
8, 35940, Note_on_c, 6, 43, 127
8, 35969, Note_on_c, 6, 43, 0
8, 36000, Note_on_c, 6, 43, 127
8, 36029, Note_on_c, 6, 43, 0
8, 36960, Note_on_c, 6, 43, 48
8, 37020, Note_on_c, 6, 43, 0
8, 41520, Note_on_c, 6, 48, 48
8, 41579, Note_on_c, 6, 48, 0
8, 41760, Note_on_c, 6, 48, 48
8, 41819, Note_on_c, 6, 48, 0
8, 42000, Note_on_c, 6, 48, 48
8, 42059, Note_on_c, 6, 48, 0
8, 42120, Note_on_c, 6, 48, 48
8, 42179, Note_on_c, 6, 48, 0
8, 42240, Note_on_c, 6, 43, 48
8, 42299, Note_on_c, 6, 43, 0
8, 44400, Note_on_c, 6, 48, 32
8, 44459, Note_on_c, 6, 48, 0
8, 44520, Note_on_c, 6, 48, 32
8, 44579, Note_on_c, 6, 48, 0
8, 44580, Note_on_c, 6, 48, 32
8, 44639, Note_on_c, 6, 48, 0
8, 44640, Note_on_c, 6, 48, 32
8, 44699, Note_on_c, 6, 48, 0
8, 44760, Note_on_c, 6, 48, 32
8, 44819, Note_on_c, 6, 48, 0
8, 44880, Note_on_c, 6, 43, 32
8, 44939, Note_on_c, 6, 43, 0
8, 45120, Note_on_c, 6, 43, 32
8, 45179, Note_on_c, 6, 43, 0
8, 45360, Note_on_c, 6, 43, 32
8, 45419, Note_on_c, 6, 43, 0
8, 45600, Note_on_c, 6, 43, 32
8, 45659, Note_on_c, 6, 43, 0
8, 45720, Note_on_c, 6, 43, 32
8, 45779, Note_on_c, 6, 43, 0
8, 45840, Note_on_c, 6, 43, 32
8, 45899, Note_on_c, 6, 43, 0
8, 46680, Note_on_c, 6, 48, 96
8, 46739, Note_on_c, 6, 48, 0
8, 46800, Note_on_c, 6, 48, 47
8, 46859, Note_on_c, 6, 48, 0
8, 47460, Note_on_c, 6, 43, 96
8, 47519, Note_on_c, 6, 43, 0
8, 47520, Note_on_c, 6, 48, 96
8, 47549, Note_on_c, 6, 48, 0
8, 47580, Note_on_c, 6, 48, 96
8, 47609, Note_on_c, 6, 48, 0
8, 47700, Note_on_c, 6, 48, 47
8, 47744, Note_on_c, 6, 48, 0
8, 47745, Note_on_c, 6, 48, 47
8, 47753, Note_on_c, 6, 48, 0
8, 47760, Note_on_c, 6, 48, 47
8, 47819, Note_on_c, 6, 48, 0
8, 47821, Note_on_c, 6, 43, 47
8, 47880, Note_on_c, 6, 43, 0
8, 47970, Note_on_c, 6, 43, 48
8, 47980, Note_on_c, 6, 43, 0
8, 47980, Note_on_c, 6, 43, 48
8, 47990, Note_on_c, 6, 43, 0
8, 47990, Note_on_c, 6, 43, 48
8, 48000, Note_on_c, 6, 43, 0
8, 48000, Note_on_c, 6, 43, 48
8, 48060, Note_on_c, 6, 43, 0
8, 48210, Note_on_c, 6, 43, 48
8, 48220, Note_on_c, 6, 43, 0
8, 48220, Note_on_c, 6, 43, 48
8, 48230, Note_on_c, 6, 43, 0
8, 48230, Note_on_c, 6, 43, 48
8, 48240, Note_on_c, 6, 43, 0
8, 48240, Note_on_c, 6, 43, 48
8, 48299, Note_on_c, 6, 43, 0
8, 48450, Note_on_c, 6, 43, 48
8, 48459, Note_on_c, 6, 43, 0
8, 48460, Note_on_c, 6, 43, 48
8, 48469, Note_on_c, 6, 43, 0
8, 48470, Note_on_c, 6, 43, 48
8, 48479, Note_on_c, 6, 43, 0
8, 48480, Note_on_c, 6, 43, 48
8, 48539, Note_on_c, 6, 43, 0
8, 48690, Note_on_c, 6, 43, 48
8, 48699, Note_on_c, 6, 43, 0
8, 48700, Note_on_c, 6, 43, 48
8, 48709, Note_on_c, 6, 43, 0
8, 48710, Note_on_c, 6, 43, 48
8, 48719, Note_on_c, 6, 43, 0
8, 48720, Note_on_c, 6, 43, 48
8, 48779, Note_on_c, 6, 43, 0
8, 48930, Note_on_c, 6, 43, 48
8, 48939, Note_on_c, 6, 43, 0
8, 48940, Note_on_c, 6, 43, 48
8, 48949, Note_on_c, 6, 43, 0
8, 48950, Note_on_c, 6, 43, 48
8, 48959, Note_on_c, 6, 43, 0
8, 48960, Note_on_c, 6, 43, 95
8, 49019, Note_on_c, 6, 43, 0
8, 49170, Note_on_c, 6, 43, 95
8, 49179, Note_on_c, 6, 43, 0
8, 49180, Note_on_c, 6, 43, 95
8, 49189, Note_on_c, 6, 43, 0
8, 49190, Note_on_c, 6, 43, 95
8, 49199, Note_on_c, 6, 43, 0
8, 49200, Note_on_c, 6, 43, 112
8, 49259, Note_on_c, 6, 43, 0
8, 49410, Note_on_c, 6, 43, 56
8, 49419, Note_on_c, 6, 43, 0
8, 49420, Note_on_c, 6, 43, 54
8, 49429, Note_on_c, 6, 43, 0
8, 49430, Note_on_c, 6, 43, 51
8, 49439, Note_on_c, 6, 43, 0
8, 49440, Note_on_c, 6, 43, 48
8, 49499, Note_on_c, 6, 43, 0
8, 49530, Note_on_c, 6, 43, 48
8, 49539, Note_on_c, 6, 43, 0
8, 49540, Note_on_c, 6, 43, 48
8, 49549, Note_on_c, 6, 43, 0
8, 49550, Note_on_c, 6, 43, 48
8, 49559, Note_on_c, 6, 43, 0
8, 49560, Note_on_c, 6, 43, 48
8, 49619, Note_on_c, 6, 43, 0
8, 49650, Note_on_c, 6, 43, 48
8, 49659, Note_on_c, 6, 43, 0
8, 49660, Note_on_c, 6, 43, 48
8, 49669, Note_on_c, 6, 43, 0
8, 49670, Note_on_c, 6, 43, 48
8, 49679, Note_on_c, 6, 43, 0
8, 49681, Note_on_c, 6, 43, 48
8, 49740, Note_on_c, 6, 43, 0
8, 49890, Note_on_c, 6, 43, 48
8, 49899, Note_on_c, 6, 43, 0
8, 49900, Note_on_c, 6, 43, 48
8, 49909, Note_on_c, 6, 43, 0
8, 49910, Note_on_c, 6, 43, 48
8, 49919, Note_on_c, 6, 43, 0
8, 49920, Note_on_c, 6, 43, 48
8, 49979, Note_on_c, 6, 43, 0
8, 50010, Note_on_c, 6, 43, 65
8, 50019, Note_on_c, 6, 43, 0
8, 50020, Note_on_c, 6, 43, 67
8, 50029, Note_on_c, 6, 43, 0
8, 50030, Note_on_c, 6, 43, 69
8, 50039, Note_on_c, 6, 43, 0
8, 50040, Note_on_c, 6, 43, 71
8, 50099, Note_on_c, 6, 43, 0
8, 50130, Note_on_c, 6, 43, 89
8, 50139, Note_on_c, 6, 43, 0
8, 50140, Note_on_c, 6, 43, 91
8, 50149, Note_on_c, 6, 43, 0
8, 50150, Note_on_c, 6, 43, 93
8, 50159, Note_on_c, 6, 43, 0
8, 50160, Note_on_c, 6, 48, 95
8, 50219, Note_on_c, 6, 48, 0
8, 53520, Note_on_c, 6, 48, 32
8, 53579, Note_on_c, 6, 48, 0
8, 53760, Note_on_c, 6, 48, 32
8, 53819, Note_on_c, 6, 48, 0
8, 54000, Note_on_c, 6, 48, 32
8, 54059, Note_on_c, 6, 48, 0
8, 54120, Note_on_c, 6, 48, 32
8, 54179, Note_on_c, 6, 48, 0
8, 54180, Note_on_c, 6, 48, 32
8, 54239, Note_on_c, 6, 48, 0
8, 54240, Note_on_c, 6, 48, 32
8, 54299, Note_on_c, 6, 48, 0
8, 54360, Note_on_c, 6, 48, 32
8, 54419, Note_on_c, 6, 48, 0
8, 54420, Note_on_c, 6, 48, 32
8, 54479, Note_on_c, 6, 48, 0
8, 54480, Note_on_c, 6, 48, 32
8, 54487, Note_on_c, 6, 48, 0
8, 54490, Note_on_c, 6, 48, 32
8, 54497, Note_on_c, 6, 48, 0
8, 54500, Note_on_c, 6, 48, 32
8, 54509, Note_on_c, 6, 48, 0
8, 54510, Note_on_c, 6, 48, 32
8, 54515, Note_on_c, 6, 48, 0
8, 54520, Note_on_c, 6, 48, 32
8, 54525, Note_on_c, 6, 48, 0
8, 54530, Note_on_c, 6, 48, 32
8, 54540, Note_on_c, 6, 48, 0
8, 54540, Note_on_c, 6, 48, 32
8, 54545, Note_on_c, 6, 48, 0
8, 54550, Note_on_c, 6, 48, 32
8, 54555, Note_on_c, 6, 48, 0
8, 54560, Note_on_c, 6, 48, 32
8, 54566, Note_on_c, 6, 48, 0
8, 54570, Note_on_c, 6, 48, 32
8, 54576, Note_on_c, 6, 48, 0
8, 54580, Note_on_c, 6, 48, 32
8, 54589, Note_on_c, 6, 48, 0
8, 54590, Note_on_c, 6, 48, 32
8, 54599, Note_on_c, 6, 48, 0
8, 54600, Note_on_c, 6, 48, 32
8, 54609, Note_on_c, 6, 48, 0
8, 54610, Note_on_c, 6, 48, 32
8, 54619, Note_on_c, 6, 48, 0
8, 54620, Note_on_c, 6, 48, 32
8, 54629, Note_on_c, 6, 48, 0
8, 54630, Note_on_c, 6, 48, 32
8, 54640, Note_on_c, 6, 48, 32
8, 54643, Note_on_c, 6, 48, 0
8, 54646, Note_on_c, 6, 48, 0
8, 54650, Note_on_c, 6, 48, 32
8, 54659, Note_on_c, 6, 48, 0
8, 54660, Note_on_c, 6, 48, 32
8, 54669, Note_on_c, 6, 48, 0
8, 54670, Note_on_c, 6, 48, 32
8, 54679, Note_on_c, 6, 48, 0
8, 54680, Note_on_c, 6, 48, 32
8, 54689, Note_on_c, 6, 48, 0
8, 54690, Note_on_c, 6, 48, 32
8, 54699, Note_on_c, 6, 48, 0
8, 54700, Note_on_c, 6, 48, 32
8, 54706, Note_on_c, 6, 48, 0
8, 54710, Note_on_c, 6, 48, 32
8, 54720, Note_on_c, 6, 48, 0
8, 54721, Note_on_c, 6, 48, 48
8, 54790, Note_on_c, 6, 48, 0
8, 55083, Note_on_c, 6, 48, 48
8, 55142, Note_on_c, 6, 48, 0
8, 55320, Note_on_c, 6, 48, 48
8, 55379, Note_on_c, 6, 48, 0
8, 55560, Note_on_c, 6, 43, 32
8, 55619, Note_on_c, 6, 43, 0
8, 55800, Note_on_c, 6, 43, 32
8, 55859, Note_on_c, 6, 43, 0
8, 56040, Note_on_c, 6, 43, 32
8, 56099, Note_on_c, 6, 43, 0
8, 56520, Note_on_c, 6, 43, 32
8, 56579, Note_on_c, 6, 43, 0
8, 56580, Note_on_c, 6, 43, 32
8, 56639, Note_on_c, 6, 43, 0
8, 57120, Note_on_c, 6, 48, 32
8, 57179, Note_on_c, 6, 48, 0
8, 57179, End_track
9, 0, Start_track
9, 0, MIDI_port, 0
9, 0, Title_t, "Violins"
9, 0, Program_c, 7, 48
9, 180, Note_on_c, 7, 55, 32
9, 219, Note_on_c, 7, 55, 0
9, 225, Note_on_c, 7, 55, 32
9, 236, Note_on_c, 7, 55, 0
9, 240, Note_on_c, 7, 55, 32
9, 359, Note_on_c, 7, 55, 0
9, 360, Note_on_c, 7, 62, 32
9, 370, Note_on_c, 7, 60, 32
9, 371, Note_on_c, 7, 62, 0
9, 405, Note_on_c, 7, 59, 32
9, 411, Note_on_c, 7, 60, 0
9, 420, Note_on_c, 7, 60, 32
9, 421, Note_on_c, 7, 59, 0
9, 465, Note_on_c, 7, 62, 32
9, 466, Note_on_c, 7, 60, 0
9, 479, Note_on_c, 7, 62, 0
9, 480, Note_on_c, 7, 55, 32
9, 480, Note_on_c, 7, 63, 32
9, 599, Note_on_c, 7, 55, 0
9, 600, Note_on_c, 7, 60, 32
9, 609, Note_on_c, 7, 63, 0
9, 659, Note_on_c, 7, 60, 0
9, 720, Note_on_c, 7, 55, 32
9, 720, Note_on_c, 7, 67, 32
9, 829, Note_on_c, 7, 55, 0
9, 839, Note_on_c, 7, 67, 0
9, 840, Note_on_c, 7, 65, 32
9, 840, Note_on_c, 7, 55, 32
9, 855, Note_on_c, 7, 63, 32
9, 859, Note_on_c, 7, 65, 0
9, 899, Note_on_c, 7, 63, 0
9, 900, Note_on_c, 7, 62, 32
9, 915, Note_on_c, 7, 60, 32
9, 919, Note_on_c, 7, 62, 0
9, 949, Note_on_c, 7, 55, 0
9, 959, Note_on_c, 7, 60, 0
9, 960, Note_on_c, 7, 55, 32
9, 960, Note_on_c, 7, 63, 32
9, 1020, Note_on_c, 7, 66, 32
9, 1029, Note_on_c, 7, 55, 0
9, 1080, Note_on_c, 7, 67, 32
9, 1080, Note_on_c, 7, 62, 32
9, 1089, Note_on_c, 7, 66, 0
9, 1089, Note_on_c, 7, 63, 0
9, 1139, Note_on_c, 7, 67, 0
9, 1139, Note_on_c, 7, 62, 0
9, 1200, Note_on_c, 7, 59, 32
9, 1200, Note_on_c, 7, 62, 32
9, 1314, Note_on_c, 7, 62, 0
9, 1319, Note_on_c, 7, 59, 0
9, 1320, Note_on_c, 7, 62, 32
9, 1365, Note_on_c, 7, 63, 32
9, 1366, Note_on_c, 7, 62, 0
9, 1380, Note_on_c, 7, 65, 32
9, 1381, Note_on_c, 7, 63, 0
9, 1425, Note_on_c, 7, 67, 32
9, 1426, Note_on_c, 7, 65, 0
9, 1439, Note_on_c, 7, 67, 0
9, 1440, Note_on_c, 7, 56, 64
9, 1440, Note_on_c, 7, 68, 64
9, 1620, Note_on_c, 7, 55, 40
9, 1620, Note_on_c, 7, 67, 40
9, 1629, Note_on_c, 7, 68, 0
9, 1629, Note_on_c, 7, 56, 0
9, 1650, Note_on_c, 7, 65, 36
9, 1659, Note_on_c, 7, 67, 0
9, 1674, Note_on_c, 7, 65, 0
9, 1674, Note_on_c, 7, 55, 0
9, 1680, Note_on_c, 7, 55, 32
9, 1680, Note_on_c, 7, 65, 32
9, 1710, Note_on_c, 7, 63, 32
9, 1719, Note_on_c, 7, 65, 0
9, 1739, Note_on_c, 7, 63, 0
9, 1740, Note_on_c, 7, 56, 32
9, 1740, Note_on_c, 7, 65, 32
9, 1749, Note_on_c, 7, 55, 0
9, 1759, Note_on_c, 7, 65, 0
9, 1770, Note_on_c, 7, 62, 32
9, 1789, Note_on_c, 7, 62, 0
9, 1799, Note_on_c, 7, 56, 0
9, 1800, Note_on_c, 7, 55, 32
9, 1800, Note_on_c, 7, 60, 32
9, 1854, Note_on_c, 7, 55, 0
9, 1860, Note_on_c, 7, 55, 32
9, 1860, Note_on_c, 7, 62, 32
9, 1869, Note_on_c, 7, 60, 0
9, 1905, Note_on_c, 7, 59, 32
9, 1906, Note_on_c, 7, 62, 0
9, 1914, Note_on_c, 7, 55, 0
9, 1919, Note_on_c, 7, 59, 0
9, 1920, Note_on_c, 7, 55, 32
9, 1920, Note_on_c, 7, 60, 36
9, 1974, Note_on_c, 7, 60, 0
9, 1979, Note_on_c, 7, 55, 0
9, 1980, Note_on_c, 7, 56, 32
9, 1980, Note_on_c, 7, 60, 36
9, 2019, Note_on_c, 7, 60, 0
9, 2019, Note_on_c, 7, 56, 0
9, 2025, Note_on_c, 7, 56, 32
9, 2025, Note_on_c, 7, 60, 36
9, 2034, Note_on_c, 7, 60, 0
9, 2034, Note_on_c, 7, 56, 0
9, 2040, Note_on_c, 7, 55, 32
9, 2040, Note_on_c, 7, 60, 36
9, 2099, Note_on_c, 7, 60, 0
9, 2099, Note_on_c, 7, 55, 0
9, 2130, Note_on_c, 7, 60, 32
9, 2130, Note_on_c, 7, 63, 32
9, 2137, Note_on_c, 7, 63, 0
9, 2137, Note_on_c, 7, 60, 0
9, 2140, Note_on_c, 7, 60, 32
9, 2140, Note_on_c, 7, 63, 32
9, 2147, Note_on_c, 7, 63, 0
9, 2147, Note_on_c, 7, 60, 0
9, 2150, Note_on_c, 7, 60, 32
9, 2150, Note_on_c, 7, 63, 32
9, 2157, Note_on_c, 7, 63, 0
9, 2157, Note_on_c, 7, 60, 0
9, 2160, Note_on_c, 7, 60, 32
9, 2160, Note_on_c, 7, 63, 32
9, 2219, Note_on_c, 7, 63, 0
9, 2219, Note_on_c, 7, 60, 0
9, 2370, Note_on_c, 7, 60, 32
9, 2370, Note_on_c, 7, 63, 32
9, 2377, Note_on_c, 7, 63, 0
9, 2377, Note_on_c, 7, 60, 0
9, 2380, Note_on_c, 7, 60, 32
9, 2380, Note_on_c, 7, 63, 32
9, 2387, Note_on_c, 7, 63, 0
9, 2387, Note_on_c, 7, 60, 0
9, 2390, Note_on_c, 7, 60, 32
9, 2390, Note_on_c, 7, 63, 32
9, 2397, Note_on_c, 7, 63, 0
9, 2397, Note_on_c, 7, 60, 0
9, 2400, Note_on_c, 7, 60, 32
9, 2400, Note_on_c, 7, 63, 32
9, 2459, Note_on_c, 7, 63, 0
9, 2459, Note_on_c, 7, 60, 0
9, 2610, Note_on_c, 7, 60, 32
9, 2610, Note_on_c, 7, 63, 32
9, 2617, Note_on_c, 7, 63, 0
9, 2617, Note_on_c, 7, 60, 0
9, 2620, Note_on_c, 7, 60, 32
9, 2620, Note_on_c, 7, 63, 32
9, 2627, Note_on_c, 7, 63, 0
9, 2627, Note_on_c, 7, 60, 0
9, 2630, Note_on_c, 7, 60, 32
9, 2630, Note_on_c, 7, 63, 32
9, 2637, Note_on_c, 7, 63, 0
9, 2637, Note_on_c, 7, 60, 0
9, 2640, Note_on_c, 7, 60, 32
9, 2640, Note_on_c, 7, 63, 32
9, 2699, Note_on_c, 7, 63, 0
9, 2699, Note_on_c, 7, 60, 0
9, 2730, Note_on_c, 7, 63, 32
9, 2730, Note_on_c, 7, 60, 32
9, 2737, Note_on_c, 7, 60, 0
9, 2737, Note_on_c, 7, 63, 0
9, 2740, Note_on_c, 7, 63, 32
9, 2740, Note_on_c, 7, 60, 32
9, 2747, Note_on_c, 7, 60, 0
9, 2747, Note_on_c, 7, 63, 0
9, 2750, Note_on_c, 7, 63, 32
9, 2750, Note_on_c, 7, 60, 32
9, 2757, Note_on_c, 7, 60, 0
9, 2757, Note_on_c, 7, 63, 0
9, 2760, Note_on_c, 7, 67, 32
9, 2760, Note_on_c, 7, 60, 32
9, 2819, Note_on_c, 7, 60, 0
9, 2819, Note_on_c, 7, 67, 0
9, 2850, Note_on_c, 7, 60, 32
9, 2850, Note_on_c, 7, 67, 32
9, 2857, Note_on_c, 7, 67, 0
9, 2857, Note_on_c, 7, 60, 0
9, 2860, Note_on_c, 7, 67, 32
9, 2860, Note_on_c, 7, 60, 32
9, 2867, Note_on_c, 7, 60, 0
9, 2867, Note_on_c, 7, 67, 0
9, 2870, Note_on_c, 7, 60, 32
9, 2870, Note_on_c, 7, 67, 32
9, 2877, Note_on_c, 7, 67, 0
9, 2877, Note_on_c, 7, 60, 0
9, 2880, Note_on_c, 7, 67, 32
9, 2880, Note_on_c, 7, 63, 32
9, 2939, Note_on_c, 7, 63, 0
9, 2939, Note_on_c, 7, 67, 0
9, 2970, Note_on_c, 7, 66, 32
9, 2970, Note_on_c, 7, 69, 32
9, 2977, Note_on_c, 7, 69, 0
9, 2977, Note_on_c, 7, 66, 0
9, 2980, Note_on_c, 7, 69, 36
9, 2980, Note_on_c, 7, 66, 36
9, 2987, Note_on_c, 7, 66, 0
9, 2987, Note_on_c, 7, 69, 0
9, 2990, Note_on_c, 7, 66, 40
9, 2990, Note_on_c, 7, 69, 40
9, 2997, Note_on_c, 7, 69, 0
9, 2997, Note_on_c, 7, 66, 0
9, 3000, Note_on_c, 7, 67, 36
9, 3000, Note_on_c, 7, 71, 36
9, 3059, Note_on_c, 7, 71, 0
9, 3059, Note_on_c, 7, 67, 0
9, 3090, Note_on_c, 7, 59, 32
9, 3090, Note_on_c, 7, 62, 32
9, 3097, Note_on_c, 7, 62, 0
9, 3097, Note_on_c, 7, 59, 0
9, 3100, Note_on_c, 7, 62, 32
9, 3100, Note_on_c, 7, 59, 32
9, 3107, Note_on_c, 7, 59, 0
9, 3107, Note_on_c, 7, 62, 0
9, 3110, Note_on_c, 7, 59, 32
9, 3110, Note_on_c, 7, 62, 32
9, 3117, Note_on_c, 7, 62, 0
9, 3117, Note_on_c, 7, 59, 0
9, 3120, Note_on_c, 7, 59, 32
9, 3120, Note_on_c, 7, 62, 32
9, 3179, Note_on_c, 7, 62, 0
9, 3179, Note_on_c, 7, 59, 0
9, 3330, Note_on_c, 7, 65, 32
9, 3330, Note_on_c, 7, 62, 32
9, 3337, Note_on_c, 7, 62, 0
9, 3337, Note_on_c, 7, 65, 0
9, 3340, Note_on_c, 7, 62, 32
9, 3340, Note_on_c, 7, 65, 32
9, 3347, Note_on_c, 7, 65, 0
9, 3347, Note_on_c, 7, 62, 0
9, 3350, Note_on_c, 7, 65, 32
9, 3350, Note_on_c, 7, 62, 32
9, 3357, Note_on_c, 7, 62, 0
9, 3357, Note_on_c, 7, 65, 0
9, 3360, Note_on_c, 7, 62, 32
9, 3360, Note_on_c, 7, 65, 32
9, 3419, Note_on_c, 7, 65, 0
9, 3419, Note_on_c, 7, 62, 0
9, 3570, Note_on_c, 7, 65, 32
9, 3570, Note_on_c, 7, 68, 32
9, 3577, Note_on_c, 7, 68, 0
9, 3577, Note_on_c, 7, 65, 0
9, 3580, Note_on_c, 7, 68, 32
9, 3580, Note_on_c, 7, 65, 32
9, 3587, Note_on_c, 7, 65, 0
9, 3587, Note_on_c, 7, 68, 0
9, 3590, Note_on_c, 7, 65, 32
9, 3590, Note_on_c, 7, 68, 32
9, 3597, Note_on_c, 7, 68, 0
9, 3597, Note_on_c, 7, 65, 0
9, 3600, Note_on_c, 7, 68, 32
9, 3600, Note_on_c, 7, 65, 32
9, 3659, Note_on_c, 7, 65, 0
9, 3659, Note_on_c, 7, 68, 0
9, 3690, Note_on_c, 7, 65, 32
9, 3690, Note_on_c, 7, 68, 32
9, 3697, Note_on_c, 7, 68, 0
9, 3697, Note_on_c, 7, 65, 0
9, 3700, Note_on_c, 7, 68, 32
9, 3700, Note_on_c, 7, 65, 32
9, 3707, Note_on_c, 7, 65, 0
9, 3707, Note_on_c, 7, 68, 0
9, 3710, Note_on_c, 7, 65, 32
9, 3710, Note_on_c, 7, 68, 32
9, 3717, Note_on_c, 7, 68, 0
9, 3717, Note_on_c, 7, 65, 0
9, 3720, Note_on_c, 7, 63, 32
9, 3720, Note_on_c, 7, 67, 32
9, 3779, Note_on_c, 7, 67, 0
9, 3779, Note_on_c, 7, 63, 0
9, 3810, Note_on_c, 7, 65, 32
9, 3810, Note_on_c, 7, 68, 32
9, 3817, Note_on_c, 7, 68, 0
9, 3817, Note_on_c, 7, 65, 0
9, 3820, Note_on_c, 7, 68, 32
9, 3820, Note_on_c, 7, 65, 32
9, 3827, Note_on_c, 7, 65, 0
9, 3827, Note_on_c, 7, 68, 0
9, 3830, Note_on_c, 7, 65, 32
9, 3830, Note_on_c, 7, 68, 32
9, 3837, Note_on_c, 7, 68, 0
9, 3837, Note_on_c, 7, 65, 0
9, 3840, Note_on_c, 7, 63, 48
9, 3840, Note_on_c, 7, 67, 48
9, 3899, Note_on_c, 7, 67, 0
9, 3899, Note_on_c, 7, 63, 0
9, 4020, Note_on_c, 7, 58, 48
9, 4079, Note_on_c, 7, 58, 0
9, 4080, Note_on_c, 7, 58, 48
9, 4080, Note_on_c, 7, 63, 48
9, 4200, Note_on_c, 7, 56, 48
9, 4200, Note_on_c, 7, 62, 48
9, 4209, Note_on_c, 7, 63, 0
9, 4209, Note_on_c, 7, 58, 0
9, 4260, Note_on_c, 7, 55, 48
9, 4260, Note_on_c, 7, 60, 48
9, 4269, Note_on_c, 7, 56, 0
9, 4269, Note_on_c, 7, 62, 0
9, 4319, Note_on_c, 7, 55, 0
9, 4319, Note_on_c, 7, 60, 0
9, 4320, Note_on_c, 7, 56, 48
9, 4320, Note_on_c, 7, 58, 48
9, 4379, Note_on_c, 7, 56, 0
9, 4464, Note_on_c, 7, 58, 0
9, 4470, Note_on_c, 7, 58, 53
9, 4477, Note_on_c, 7, 58, 0
9, 4485, Note_on_c, 7, 60, 57
9, 4492, Note_on_c, 7, 60, 0
9, 4500, Note_on_c, 7, 62, 62
9, 4507, Note_on_c, 7, 62, 0
9, 4515, Note_on_c, 7, 63, 67
9, 4522, Note_on_c, 7, 63, 0
9, 4530, Note_on_c, 7, 65, 71
9, 4537, Note_on_c, 7, 65, 0
9, 4545, Note_on_c, 7, 67, 76
9, 4552, Note_on_c, 7, 67, 0
9, 4560, Note_on_c, 7, 63, 80
9, 4560, Note_on_c, 7, 68, 80
9, 4680, Note_on_c, 7, 62, 88
9, 4680, Note_on_c, 7, 67, 88
9, 4689, Note_on_c, 7, 68, 0
9, 4689, Note_on_c, 7, 63, 0
9, 4740, Note_on_c, 7, 60, 92
9, 4740, Note_on_c, 7, 65, 92
9, 4749, Note_on_c, 7, 62, 0
9, 4749, Note_on_c, 7, 67, 0
9, 4799, Note_on_c, 7, 60, 0
9, 4799, Note_on_c, 7, 65, 0
9, 4800, Note_on_c, 7, 58, 92
9, 4800, Note_on_c, 7, 64, 92
9, 4859, Note_on_c, 7, 64, 0
9, 4859, Note_on_c, 7, 58, 0
9, 4905, Note_on_c, 7, 67, 96
9, 4905, Note_on_c, 7, 70, 96
9, 4914, Note_on_c, 7, 70, 0
9, 4914, Note_on_c, 7, 67, 0
9, 4920, Note_on_c, 7, 67, 96
9, 4920, Note_on_c, 7, 70, 96
9, 5039, Note_on_c, 7, 70, 0
9, 5039, Note_on_c, 7, 67, 0
9, 5160, Note_on_c, 7, 65, 48
9, 5160, Note_on_c, 7, 68, 48
9, 5220, Note_on_c, 7, 63, 48
9, 5220, Note_on_c, 7, 67, 48
9, 5229, Note_on_c, 7, 68, 0
9, 5229, Note_on_c, 7, 65, 0
9, 5274, Note_on_c, 7, 63, 0
9, 5279, Note_on_c, 7, 67, 0
9, 5280, Note_on_c, 7, 66, 48
9, 5280, Note_on_c, 7, 63, 48
9, 5334, Note_on_c, 7, 63, 0
9, 5340, Note_on_c, 7, 63, 48
9, 5399, Note_on_c, 7, 66, 0
9, 5400, Note_on_c, 7, 72, 96
9, 5400, Note_on_c, 7, 60, 96
9, 5409, Note_on_c, 7, 63, 0
9, 5460, Note_on_c, 7, 63, 64
9, 5469, Note_on_c, 7, 60, 0
9, 5490, Note_on_c, 7, 66, 64
9, 5499, Note_on_c, 7, 72, 0
9, 5519, Note_on_c, 7, 66, 0
9, 5519, Note_on_c, 7, 63, 0
9, 5520, Note_on_c, 7, 67, 48
9, 5520, Note_on_c, 7, 59, 48
9, 5579, Note_on_c, 7, 59, 0
9, 5759, Note_on_c, 7, 67, 0
9, 5760, Note_on_c, 7, 67, 48
9, 5880, Note_on_c, 7, 65, 48
9, 5934, Note_on_c, 7, 67, 0
9, 5940, Note_on_c, 7, 67, 48
9, 5940, Note_on_c, 7, 63, 48
9, 5949, Note_on_c, 7, 65, 0
9, 5999, Note_on_c, 7, 63, 0
9, 5999, Note_on_c, 7, 67, 0
9, 6000, Note_on_c, 7, 79, 48
9, 6000, Note_on_c, 7, 62, 48
9, 6120, Note_on_c, 7, 74, 52
9, 6129, Note_on_c, 7, 79, 0
9, 6180, Note_on_c, 7, 77, 52
9, 6180, Note_on_c, 7, 65, 54
9, 6189, Note_on_c, 7, 74, 0
9, 6189, Note_on_c, 7, 62, 0
9, 6240, Note_on_c, 7, 75, 56
9, 6240, Note_on_c, 7, 63, 56
9, 6249, Note_on_c, 7, 77, 0
9, 6249, Note_on_c, 7, 65, 0
9, 6360, Note_on_c, 7, 74, 52
9, 6360, Note_on_c, 7, 62, 52
9, 6369, Note_on_c, 7, 75, 0
9, 6369, Note_on_c, 7, 63, 0
9, 6420, Note_on_c, 7, 72, 52
9, 6420, Note_on_c, 7, 60, 52
9, 6429, Note_on_c, 7, 74, 0
9, 6429, Note_on_c, 7, 62, 0
9, 6480, Note_on_c, 7, 71, 48
9, 6480, Note_on_c, 7, 59, 48
9, 6489, Note_on_c, 7, 72, 0
9, 6489, Note_on_c, 7, 60, 0
9, 6539, Note_on_c, 7, 71, 0
9, 6539, Note_on_c, 7, 59, 0
9, 7320, Note_on_c, 7, 58, 96
9, 7380, Note_on_c, 7, 60, 96
9, 7419, Note_on_c, 7, 60, 0
9, 7425, Note_on_c, 7, 60, 96
9, 7434, Note_on_c, 7, 60, 0
9, 7440, Note_on_c, 7, 60, 48
9, 7440, Note_on_c, 7, 56, 48
9, 7449, Note_on_c, 7, 58, 0
9, 7559, Note_on_c, 7, 56, 0
9, 7559, Note_on_c, 7, 60, 0
9, 7560, Note_on_c, 7, 67, 48
9, 7570, Note_on_c, 7, 65, 48
9, 7571, Note_on_c, 7, 67, 0
9, 7605, Note_on_c, 7, 64, 48
9, 7606, Note_on_c, 7, 65, 0
9, 7620, Note_on_c, 7, 65, 48
9, 7621, Note_on_c, 7, 64, 0
9, 7665, Note_on_c, 7, 67, 48
9, 7666, Note_on_c, 7, 65, 0
9, 7679, Note_on_c, 7, 67, 0
9, 7680, Note_on_c, 7, 56, 48
9, 7680, Note_on_c, 7, 65, 48
9, 7680, Note_on_c, 7, 68, 48
9, 7799, Note_on_c, 7, 65, 0
9, 7800, Note_on_c, 7, 65, 48
9, 7809, Note_on_c, 7, 68, 0
9, 7859, Note_on_c, 7, 65, 0
9, 7859, Note_on_c, 7, 56, 0
9, 7920, Note_on_c, 7, 56, 48
9, 7920, Note_on_c, 7, 65, 48
9, 7920, Note_on_c, 7, 77, 48
9, 8039, Note_on_c, 7, 77, 0
9, 8039, Note_on_c, 7, 65, 0
9, 8039, Note_on_c, 7, 56, 0
9, 8040, Note_on_c, 7, 63, 72
9, 8040, Note_on_c, 7, 75, 72
9, 8055, Note_on_c, 7, 62, 76
9, 8055, Note_on_c, 7, 74, 76
9, 8056, Note_on_c, 7, 75, 0
9, 8056, Note_on_c, 7, 63, 0
9, 8100, Note_on_c, 7, 60, 84
9, 8100, Note_on_c, 7, 72, 84
9, 8101, Note_on_c, 7, 62, 0
9, 8101, Note_on_c, 7, 74, 0
9, 8115, Note_on_c, 7, 59, 88
9, 8115, Note_on_c, 7, 71, 88
9, 8116, Note_on_c, 7, 60, 0
9, 8116, Note_on_c, 7, 72, 0
9, 8160, Note_on_c, 7, 60, 96
9, 8160, Note_on_c, 7, 72, 96
9, 8161, Note_on_c, 7, 59, 0
9, 8161, Note_on_c, 7, 71, 0
9, 8189, Note_on_c, 7, 60, 0
9, 8189, Note_on_c, 7, 72, 0
9, 8220, Note_on_c, 7, 60, 96
9, 8220, Note_on_c, 7, 68, 96
9, 8249, Note_on_c, 7, 68, 0
9, 8249, Note_on_c, 7, 60, 0
9, 8340, Note_on_c, 7, 66, 48
9, 8340, Note_on_c, 7, 60, 48
9, 8459, Note_on_c, 7, 60, 0
9, 8459, Note_on_c, 7, 66, 0
9, 8460, Note_on_c, 7, 55, 64
9, 8460, Note_on_c, 7, 67, 64
9, 8574, Note_on_c, 7, 55, 0
9, 8580, Note_on_c, 7, 65, 56
9, 8580, Note_on_c, 7, 55, 52
9, 8589, Note_on_c, 7, 67, 0
9, 8625, Note_on_c, 7, 62, 50
9, 8626, Note_on_c, 7, 65, 0
9, 8634, Note_on_c, 7, 55, 0
9, 8639, Note_on_c, 7, 62, 0
9, 8640, Note_on_c, 7, 60, 48
9, 8640, Note_on_c, 7, 55, 48
9, 8699, Note_on_c, 7, 55, 0
9, 8699, Note_on_c, 7, 60, 0
9, 8850, Note_on_c, 7, 58, 48
9, 8850, Note_on_c, 7, 68, 48
9, 8850, Note_on_c, 7, 65, 48
9, 8857, Note_on_c, 7, 65, 0
9, 8857, Note_on_c, 7, 68, 0
9, 8857, Note_on_c, 7, 58, 0
9, 8860, Note_on_c, 7, 68, 48
9, 8860, Note_on_c, 7, 65, 48
9, 8860, Note_on_c, 7, 58, 48
9, 8867, Note_on_c, 7, 58, 0
9, 8867, Note_on_c, 7, 65, 0
9, 8867, Note_on_c, 7, 68, 0
9, 8870, Note_on_c, 7, 68, 48
9, 8870, Note_on_c, 7, 65, 48
9, 8870, Note_on_c, 7, 58, 48
9, 8877, Note_on_c, 7, 58, 0
9, 8877, Note_on_c, 7, 65, 0
9, 8877, Note_on_c, 7, 68, 0
9, 8880, Note_on_c, 7, 67, 48
9, 8880, Note_on_c, 7, 63, 48
9, 8880, Note_on_c, 7, 58, 48
9, 8939, Note_on_c, 7, 58, 0
9, 8939, Note_on_c, 7, 63, 0
9, 8939, Note_on_c, 7, 67, 0
9, 9090, Note_on_c, 7, 63, 48
9, 9090, Note_on_c, 7, 58, 48
9, 9097, Note_on_c, 7, 58, 0
9, 9097, Note_on_c, 7, 63, 0
9, 9100, Note_on_c, 7, 63, 48
9, 9100, Note_on_c, 7, 58, 48
9, 9107, Note_on_c, 7, 58, 0
9, 9107, Note_on_c, 7, 63, 0
9, 9110, Note_on_c, 7, 63, 48
9, 9110, Note_on_c, 7, 58, 48
9, 9117, Note_on_c, 7, 58, 0
9, 9117, Note_on_c, 7, 63, 0
9, 9120, Note_on_c, 7, 65, 48
9, 9120, Note_on_c, 7, 62, 48
9, 9179, Note_on_c, 7, 62, 0
9, 9179, Note_on_c, 7, 65, 0
9, 9330, Note_on_c, 7, 65, 67
9, 9330, Note_on_c, 7, 62, 67
9, 9337, Note_on_c, 7, 62, 0
9, 9337, Note_on_c, 7, 65, 0
9, 9340, Note_on_c, 7, 65, 72
9, 9340, Note_on_c, 7, 62, 72
9, 9347, Note_on_c, 7, 62, 0
9, 9347, Note_on_c, 7, 65, 0
9, 9350, Note_on_c, 7, 65, 78
9, 9350, Note_on_c, 7, 62, 78
9, 9357, Note_on_c, 7, 62, 0
9, 9357, Note_on_c, 7, 65, 0
9, 9360, Note_on_c, 7, 68, 80
9, 9360, Note_on_c, 7, 63, 80
9, 9419, Note_on_c, 7, 63, 0
9, 9419, Note_on_c, 7, 68, 0
9, 9450, Note_on_c, 7, 63, 84
9, 9450, Note_on_c, 7, 68, 84
9, 9457, Note_on_c, 7, 68, 0
9, 9457, Note_on_c, 7, 63, 0
9, 9460, Note_on_c, 7, 63, 84
9, 9460, Note_on_c, 7, 68, 84
9, 9467, Note_on_c, 7, 68, 0
9, 9467, Note_on_c, 7, 63, 0
9, 9470, Note_on_c, 7, 63, 84
9, 9470, Note_on_c, 7, 68, 84
9, 9477, Note_on_c, 7, 68, 0
9, 9477, Note_on_c, 7, 63, 0
9, 9480, Note_on_c, 7, 62, 88
9, 9480, Note_on_c, 7, 67, 88
9, 9539, Note_on_c, 7, 67, 0
9, 9539, Note_on_c, 7, 62, 0
9, 9570, Note_on_c, 7, 65, 90
9, 9570, Note_on_c, 7, 60, 90
9, 9577, Note_on_c, 7, 60, 0
9, 9577, Note_on_c, 7, 65, 0
9, 9580, Note_on_c, 7, 65, 90
9, 9580, Note_on_c, 7, 60, 90
9, 9587, Note_on_c, 7, 60, 0
9, 9587, Note_on_c, 7, 65, 0
9, 9590, Note_on_c, 7, 65, 90
9, 9590, Note_on_c, 7, 60, 90
9, 9597, Note_on_c, 7, 60, 0
9, 9597, Note_on_c, 7, 65, 0
9, 9600, Note_on_c, 7, 64, 92
9, 9600, Note_on_c, 7, 61, 92
9, 9659, Note_on_c, 7, 61, 0
9, 9659, Note_on_c, 7, 64, 0
9, 9690, Note_on_c, 7, 70, 96
9, 9690, Note_on_c, 7, 60, 96
9, 9697, Note_on_c, 7, 60, 0
9, 9697, Note_on_c, 7, 70, 0
9, 9700, Note_on_c, 7, 70, 96
9, 9700, Note_on_c, 7, 60, 96
9, 9707, Note_on_c, 7, 60, 0
9, 9707, Note_on_c, 7, 70, 0
9, 9710, Note_on_c, 7, 70, 96
9, 9710, Note_on_c, 7, 60, 96
9, 9717, Note_on_c, 7, 60, 0
9, 9717, Note_on_c, 7, 70, 0
9, 9720, Note_on_c, 7, 70, 96
9, 9720, Note_on_c, 7, 60, 96
9, 9779, Note_on_c, 7, 60, 0
9, 9779, Note_on_c, 7, 70, 0
9, 9810, Note_on_c, 7, 60, 96
9, 9810, Note_on_c, 7, 70, 96
9, 9817, Note_on_c, 7, 70, 0
9, 9817, Note_on_c, 7, 60, 0
9, 9820, Note_on_c, 7, 60, 96
9, 9820, Note_on_c, 7, 70, 96
9, 9827, Note_on_c, 7, 70, 0
9, 9827, Note_on_c, 7, 60, 0
9, 9830, Note_on_c, 7, 60, 96
9, 9830, Note_on_c, 7, 70, 96
9, 9837, Note_on_c, 7, 70, 0
9, 9837, Note_on_c, 7, 60, 0
9, 9840, Note_on_c, 7, 70, 48
9, 9840, Note_on_c, 7, 60, 48
9, 9899, Note_on_c, 7, 60, 0
9, 9899, Note_on_c, 7, 70, 0
9, 9930, Note_on_c, 7, 70, 48
9, 9930, Note_on_c, 7, 67, 48
9, 9937, Note_on_c, 7, 67, 0
9, 9937, Note_on_c, 7, 70, 0
9, 9940, Note_on_c, 7, 67, 48
9, 9940, Note_on_c, 7, 70, 48
9, 9947, Note_on_c, 7, 70, 0
9, 9947, Note_on_c, 7, 67, 0
9, 9950, Note_on_c, 7, 70, 48
9, 9950, Note_on_c, 7, 67, 48
9, 9957, Note_on_c, 7, 67, 0
9, 9957, Note_on_c, 7, 70, 0
9, 9960, Note_on_c, 7, 65, 48
9, 9960, Note_on_c, 7, 68, 48
9, 10019, Note_on_c, 7, 68, 0
9, 10019, Note_on_c, 7, 65, 0
9, 10050, Note_on_c, 7, 67, 48
9, 10050, Note_on_c, 7, 63, 48
9, 10057, Note_on_c, 7, 63, 0
9, 10057, Note_on_c, 7, 67, 0
9, 10060, Note_on_c, 7, 63, 48
9, 10060, Note_on_c, 7, 67, 48
9, 10067, Note_on_c, 7, 67, 0
9, 10067, Note_on_c, 7, 63, 0
9, 10070, Note_on_c, 7, 67, 48
9, 10070, Note_on_c, 7, 63, 48
9, 10077, Note_on_c, 7, 63, 0
9, 10077, Note_on_c, 7, 67, 0
9, 10080, Note_on_c, 7, 63, 48
9, 10080, Note_on_c, 7, 66, 48
9, 10139, Note_on_c, 7, 66, 0
9, 10139, Note_on_c, 7, 63, 0
9, 10170, Note_on_c, 7, 66, 48
9, 10170, Note_on_c, 7, 60, 48
9, 10177, Note_on_c, 7, 60, 0
9, 10177, Note_on_c, 7, 66, 0
9, 10180, Note_on_c, 7, 66, 48
9, 10180, Note_on_c, 7, 60, 48
9, 10187, Note_on_c, 7, 60, 0
9, 10187, Note_on_c, 7, 66, 0
9, 10190, Note_on_c, 7, 66, 48
9, 10190, Note_on_c, 7, 60, 48
9, 10197, Note_on_c, 7, 60, 0
9, 10197, Note_on_c, 7, 66, 0
9, 10200, Note_on_c, 7, 66, 56
9, 10200, Note_on_c, 7, 60, 56
9, 10259, Note_on_c, 7, 60, 0
9, 10259, Note_on_c, 7, 66, 0
9, 10290, Note_on_c, 7, 60, 48
9, 10290, Note_on_c, 7, 66, 48
9, 10297, Note_on_c, 7, 66, 0
9, 10297, Note_on_c, 7, 60, 0
9, 10300, Note_on_c, 7, 66, 48
9, 10300, Note_on_c, 7, 60, 48
9, 10307, Note_on_c, 7, 60, 0
9, 10307, Note_on_c, 7, 66, 0
9, 10310, Note_on_c, 7, 60, 48
9, 10310, Note_on_c, 7, 66, 48
9, 10317, Note_on_c, 7, 66, 0
9, 10317, Note_on_c, 7, 60, 0
9, 10320, Note_on_c, 7, 67, 48
9, 10320, Note_on_c, 7, 59, 48
9, 10379, Note_on_c, 7, 59, 0
9, 10379, Note_on_c, 7, 67, 0
9, 10530, Note_on_c, 7, 67, 48
9, 10537, Note_on_c, 7, 67, 0
9, 10540, Note_on_c, 7, 67, 48
9, 10547, Note_on_c, 7, 67, 0
9, 10550, Note_on_c, 7, 67, 48
9, 10557, Note_on_c, 7, 67, 0
9, 10560, Note_on_c, 7, 67, 48
9, 10619, Note_on_c, 7, 67, 0
9, 10770, Note_on_c, 7, 67, 48
9, 10777, Note_on_c, 7, 67, 0
9, 10780, Note_on_c, 7, 67, 48
9, 10787, Note_on_c, 7, 67, 0
9, 10790, Note_on_c, 7, 67, 48
9, 10797, Note_on_c, 7, 67, 0
9, 10800, Note_on_c, 7, 67, 48
9, 10859, Note_on_c, 7, 67, 0
9, 11010, Note_on_c, 7, 67, 48
9, 11017, Note_on_c, 7, 67, 0
9, 11020, Note_on_c, 7, 67, 52
9, 11027, Note_on_c, 7, 67, 0
9, 11030, Note_on_c, 7, 67, 54
9, 11037, Note_on_c, 7, 67, 0
9, 11040, Note_on_c, 7, 67, 56
9, 11099, Note_on_c, 7, 67, 0
9, 11130, Note_on_c, 7, 67, 54
9, 11137, Note_on_c, 7, 67, 0
9, 11140, Note_on_c, 7, 67, 54
9, 11147, Note_on_c, 7, 67, 0
9, 11150, Note_on_c, 7, 67, 56
9, 11157, Note_on_c, 7, 67, 0
9, 11160, Note_on_c, 7, 67, 52
9, 11219, Note_on_c, 7, 67, 0
9, 11250, Note_on_c, 7, 67, 52
9, 11257, Note_on_c, 7, 67, 0
9, 11260, Note_on_c, 7, 67, 52
9, 11267, Note_on_c, 7, 67, 0
9, 11270, Note_on_c, 7, 67, 52
9, 11277, Note_on_c, 7, 67, 0
9, 11280, Note_on_c, 7, 67, 48
9, 11339, Note_on_c, 7, 67, 0
9, 12210, Note_on_c, 7, 70, 96
9, 12210, Note_on_c, 7, 67, 96
9, 12217, Note_on_c, 7, 67, 0
9, 12217, Note_on_c, 7, 70, 0
9, 12220, Note_on_c, 7, 70, 96
9, 12220, Note_on_c, 7, 67, 96
9, 12227, Note_on_c, 7, 67, 0
9, 12227, Note_on_c, 7, 70, 0
9, 12230, Note_on_c, 7, 70, 96
9, 12230, Note_on_c, 7, 67, 96
9, 12237, Note_on_c, 7, 67, 0
9, 12237, Note_on_c, 7, 70, 0
9, 12240, Note_on_c, 7, 68, 48
9, 12240, Note_on_c, 7, 60, 48
9, 12299, Note_on_c, 7, 60, 0
9, 12299, Note_on_c, 7, 68, 0
9, 12450, Note_on_c, 7, 65, 48
9, 12450, Note_on_c, 7, 68, 48
9, 12457, Note_on_c, 7, 68, 0
9, 12457, Note_on_c, 7, 65, 0
9, 12460, Note_on_c, 7, 68, 48
9, 12460, Note_on_c, 7, 65, 48
9, 12467, Note_on_c, 7, 65, 0
9, 12467, Note_on_c, 7, 68, 0
9, 12470, Note_on_c, 7, 65, 48
9, 12470, Note_on_c, 7, 68, 48
9, 12477, Note_on_c, 7, 68, 0
9, 12477, Note_on_c, 7, 65, 0
9, 12480, Note_on_c, 7, 68, 48
9, 12480, Note_on_c, 7, 65, 48
9, 12539, Note_on_c, 7, 65, 0
9, 12539, Note_on_c, 7, 68, 0
9, 12690, Note_on_c, 7, 65, 48
9, 12690, Note_on_c, 7, 68, 48
9, 12697, Note_on_c, 7, 68, 0
9, 12697, Note_on_c, 7, 65, 0
9, 12700, Note_on_c, 7, 68, 48
9, 12700, Note_on_c, 7, 65, 48
9, 12707, Note_on_c, 7, 65, 0
9, 12707, Note_on_c, 7, 68, 0
9, 12710, Note_on_c, 7, 65, 48
9, 12710, Note_on_c, 7, 68, 48
9, 12717, Note_on_c, 7, 68, 0
9, 12717, Note_on_c, 7, 65, 0
9, 12720, Note_on_c, 7, 68, 48
9, 12720, Note_on_c, 7, 65, 48
9, 12779, Note_on_c, 7, 65, 0
9, 12779, Note_on_c, 7, 68, 0
9, 12810, Note_on_c, 7, 65, 68
9, 12810, Note_on_c, 7, 68, 68
9, 12817, Note_on_c, 7, 68, 0
9, 12817, Note_on_c, 7, 65, 0
9, 12820, Note_on_c, 7, 68, 68
9, 12820, Note_on_c, 7, 65, 68
9, 12827, Note_on_c, 7, 65, 0
9, 12827, Note_on_c, 7, 68, 0
9, 12830, Note_on_c, 7, 65, 68
9, 12830, Note_on_c, 7, 68, 68
9, 12837, Note_on_c, 7, 68, 0
9, 12837, Note_on_c, 7, 65, 0
9, 12840, Note_on_c, 7, 71, 72
9, 12840, Note_on_c, 7, 62, 72
9, 12899, Note_on_c, 7, 62, 0
9, 12899, Note_on_c, 7, 71, 0
9, 12930, Note_on_c, 7, 62, 92
9, 12930, Note_on_c, 7, 71, 92
9, 12937, Note_on_c, 7, 71, 0
9, 12937, Note_on_c, 7, 62, 0
9, 12940, Note_on_c, 7, 71, 92
9, 12940, Note_on_c, 7, 62, 92
9, 12947, Note_on_c, 7, 62, 0
9, 12947, Note_on_c, 7, 71, 0
9, 12950, Note_on_c, 7, 62, 92
9, 12950, Note_on_c, 7, 71, 92
9, 12957, Note_on_c, 7, 71, 0
9, 12957, Note_on_c, 7, 62, 0
9, 12960, Note_on_c, 7, 72, 96
9, 12960, Note_on_c, 7, 60, 96
9, 12989, Note_on_c, 7, 60, 0
9, 12989, Note_on_c, 7, 72, 0
9, 13020, Note_on_c, 7, 60, 96
9, 13020, Note_on_c, 7, 68, 96
9, 13049, Note_on_c, 7, 68, 0
9, 13049, Note_on_c, 7, 60, 0
9, 13170, Note_on_c, 7, 60, 48
9, 13170, Note_on_c, 7, 63, 48
9, 13177, Note_on_c, 7, 63, 0
9, 13177, Note_on_c, 7, 60, 0
9, 13180, Note_on_c, 7, 63, 48
9, 13180, Note_on_c, 7, 60, 48
9, 13187, Note_on_c, 7, 60, 0
9, 13187, Note_on_c, 7, 63, 0
9, 13190, Note_on_c, 7, 60, 48
9, 13190, Note_on_c, 7, 63, 48
9, 13197, Note_on_c, 7, 63, 0
9, 13197, Note_on_c, 7, 60, 0
9, 13200, Note_on_c, 7, 63, 48
9, 13200, Note_on_c, 7, 60, 48
9, 13259, Note_on_c, 7, 60, 0
9, 13259, Note_on_c, 7, 63, 0
9, 13290, Note_on_c, 7, 60, 52
9, 13290, Note_on_c, 7, 63, 52
9, 13297, Note_on_c, 7, 63, 0
9, 13297, Note_on_c, 7, 60, 0
9, 13300, Note_on_c, 7, 60, 52
9, 13300, Note_on_c, 7, 63, 52
9, 13307, Note_on_c, 7, 63, 0
9, 13307, Note_on_c, 7, 60, 0
9, 13310, Note_on_c, 7, 60, 52
9, 13310, Note_on_c, 7, 63, 52
9, 13317, Note_on_c, 7, 63, 0
9, 13317, Note_on_c, 7, 60, 0
9, 13320, Note_on_c, 7, 59, 56
9, 13320, Note_on_c, 7, 65, 56
9, 13379, Note_on_c, 7, 65, 0
9, 13379, Note_on_c, 7, 59, 0
9, 13410, Note_on_c, 7, 65, 52
9, 13410, Note_on_c, 7, 71, 52
9, 13417, Note_on_c, 7, 71, 0
9, 13417, Note_on_c, 7, 65, 0
9, 13420, Note_on_c, 7, 71, 52
9, 13420, Note_on_c, 7, 65, 52
9, 13427, Note_on_c, 7, 65, 0
9, 13427, Note_on_c, 7, 71, 0
9, 13430, Note_on_c, 7, 65, 52
9, 13430, Note_on_c, 7, 71, 52
9, 13437, Note_on_c, 7, 71, 0
9, 13437, Note_on_c, 7, 65, 0
9, 13440, Note_on_c, 7, 72, 48
9, 13440, Note_on_c, 7, 63, 48
9, 13499, Note_on_c, 7, 63, 0
9, 13500, Note_on_c, 7, 63, 48
9, 13560, Note_on_c, 7, 67, 48
9, 13560, Note_on_c, 7, 62, 48
9, 13569, Note_on_c, 7, 63, 0
9, 13569, Note_on_c, 7, 72, 0
9, 13620, Note_on_c, 7, 65, 48
9, 13629, Note_on_c, 7, 62, 0
9, 13679, Note_on_c, 7, 65, 0
9, 13679, Note_on_c, 7, 67, 0
9, 13680, Note_on_c, 7, 63, 48
9, 13740, Note_on_c, 7, 67, 48
9, 13740, Note_on_c, 7, 62, 48
9, 13749, Note_on_c, 7, 63, 0
9, 13800, Note_on_c, 7, 60, 48
9, 13800, Note_on_c, 7, 72, 48
9, 13809, Note_on_c, 7, 62, 0
9, 13809, Note_on_c, 7, 67, 0
9, 13860, Note_on_c, 7, 63, 48
9, 13869, Note_on_c, 7, 60, 0
9, 13919, Note_on_c, 7, 63, 0
9, 13919, Note_on_c, 7, 72, 0
9, 13920, Note_on_c, 7, 74, 48
9, 13920, Note_on_c, 7, 65, 48
9, 13980, Note_on_c, 7, 67, 48
9, 13989, Note_on_c, 7, 65, 0
9, 14039, Note_on_c, 7, 67, 0
9, 14040, Note_on_c, 7, 67, 96
9, 14040, Note_on_c, 7, 75, 96
9, 14049, Note_on_c, 7, 74, 0
9, 14130, Note_on_c, 7, 74, 48
9, 14130, Note_on_c, 7, 65, 48
9, 14132, Note_on_c, 7, 75, 0
9, 14132, Note_on_c, 7, 67, 0
9, 14145, Note_on_c, 7, 63, 48
9, 14145, Note_on_c, 7, 72, 48
9, 14146, Note_on_c, 7, 74, 0
9, 14146, Note_on_c, 7, 65, 0
9, 14154, Note_on_c, 7, 63, 0
9, 14154, Note_on_c, 7, 72, 0
9, 14160, Note_on_c, 7, 63, 48
9, 14160, Note_on_c, 7, 72, 48
9, 14220, Note_on_c, 7, 62, 48
9, 14220, Note_on_c, 7, 71, 48
9, 14229, Note_on_c, 7, 72, 0
9, 14229, Note_on_c, 7, 63, 0
9, 14249, Note_on_c, 7, 62, 0
9, 14249, Note_on_c, 7, 71, 0
9, 14280, Note_on_c, 7, 71, 48
9, 14280, Note_on_c, 7, 62, 48
9, 14309, Note_on_c, 7, 62, 0
9, 14309, Note_on_c, 7, 71, 0
9, 14850, Note_on_c, 7, 63, 48
9, 14850, Note_on_c, 7, 69, 48
9, 14857, Note_on_c, 7, 69, 0
9, 14857, Note_on_c, 7, 63, 0
9, 14860, Note_on_c, 7, 69, 48
9, 14860, Note_on_c, 7, 63, 48
9, 14867, Note_on_c, 7, 63, 0
9, 14867, Note_on_c, 7, 69, 0
9, 14870, Note_on_c, 7, 63, 48
9, 14870, Note_on_c, 7, 69, 48
9, 14877, Note_on_c, 7, 69, 0
9, 14877, Note_on_c, 7, 63, 0
9, 14880, Note_on_c, 7, 67, 48
9, 14880, Note_on_c, 7, 63, 48
9, 14939, Note_on_c, 7, 63, 0
9, 14939, Note_on_c, 7, 67, 0
9, 14970, Note_on_c, 7, 67, 48
9, 14970, Note_on_c, 7, 63, 48
9, 14977, Note_on_c, 7, 63, 0
9, 14977, Note_on_c, 7, 67, 0
9, 14980, Note_on_c, 7, 63, 48
9, 14980, Note_on_c, 7, 67, 48
9, 14987, Note_on_c, 7, 67, 0
9, 14987, Note_on_c, 7, 63, 0
9, 14990, Note_on_c, 7, 67, 48
9, 14990, Note_on_c, 7, 63, 48
9, 14997, Note_on_c, 7, 63, 0
9, 14997, Note_on_c, 7, 67, 0
9, 15000, Note_on_c, 7, 65, 48
9, 15000, Note_on_c, 7, 67, 48
9, 15059, Note_on_c, 7, 67, 0
9, 15059, Note_on_c, 7, 65, 0
9, 15090, Note_on_c, 7, 67, 48
9, 15090, Note_on_c, 7, 65, 48
9, 15097, Note_on_c, 7, 65, 0
9, 15097, Note_on_c, 7, 67, 0
9, 15100, Note_on_c, 7, 67, 48
9, 15100, Note_on_c, 7, 65, 48
9, 15107, Note_on_c, 7, 65, 0
9, 15107, Note_on_c, 7, 67, 0
9, 15110, Note_on_c, 7, 67, 48
9, 15110, Note_on_c, 7, 65, 48
9, 15117, Note_on_c, 7, 65, 0
9, 15117, Note_on_c, 7, 67, 0
9, 15120, Note_on_c, 7, 63, 48
9, 15120, Note_on_c, 7, 67, 48
9, 15179, Note_on_c, 7, 67, 0
9, 15179, Note_on_c, 7, 63, 0
9, 15180, Note_on_c, 7, 78, 96
9, 15180, Note_on_c, 7, 66, 96
9, 15300, Note_on_c, 7, 67, 48
9, 15300, Note_on_c, 7, 79, 48
9, 15309, Note_on_c, 7, 66, 0
9, 15309, Note_on_c, 7, 78, 0
9, 15354, Note_on_c, 7, 67, 0
9, 15359, Note_on_c, 7, 79, 0
9, 15360, Note_on_c, 7, 63, 48
9, 15360, Note_on_c, 7, 67, 48
9, 15419, Note_on_c, 7, 67, 0
9, 15419, Note_on_c, 7, 63, 0
9, 15450, Note_on_c, 7, 67, 48
9, 15450, Note_on_c, 7, 63, 48
9, 15457, Note_on_c, 7, 63, 0
9, 15457, Note_on_c, 7, 67, 0
9, 15460, Note_on_c, 7, 63, 48
9, 15460, Note_on_c, 7, 67, 48
9, 15467, Note_on_c, 7, 67, 0
9, 15467, Note_on_c, 7, 63, 0
9, 15470, Note_on_c, 7, 67, 48
9, 15470, Note_on_c, 7, 63, 48
9, 15477, Note_on_c, 7, 63, 0
9, 15477, Note_on_c, 7, 67, 0
9, 15480, Note_on_c, 7, 65, 48
9, 15480, Note_on_c, 7, 67, 48
9, 15539, Note_on_c, 7, 67, 0
9, 15539, Note_on_c, 7, 65, 0
9, 15570, Note_on_c, 7, 67, 48
9, 15570, Note_on_c, 7, 65, 48
9, 15577, Note_on_c, 7, 65, 0
9, 15577, Note_on_c, 7, 67, 0
9, 15580, Note_on_c, 7, 65, 48
9, 15580, Note_on_c, 7, 67, 48
9, 15587, Note_on_c, 7, 67, 0
9, 15587, Note_on_c, 7, 65, 0
9, 15590, Note_on_c, 7, 67, 48
9, 15590, Note_on_c, 7, 65, 48
9, 15597, Note_on_c, 7, 65, 0
9, 15597, Note_on_c, 7, 67, 0
9, 15600, Note_on_c, 7, 63, 48
9, 15600, Note_on_c, 7, 67, 48
9, 15659, Note_on_c, 7, 67, 0
9, 15659, Note_on_c, 7, 63, 0
9, 15660, Note_on_c, 7, 68, 96
9, 15660, Note_on_c, 7, 80, 96
9, 15720, Note_on_c, 7, 79, 48
9, 15720, Note_on_c, 7, 67, 48
9, 15729, Note_on_c, 7, 80, 0
9, 15729, Note_on_c, 7, 68, 0
9, 15780, Note_on_c, 7, 75, 96
9, 15780, Note_on_c, 7, 63, 96
9, 15789, Note_on_c, 7, 79, 0
9, 15789, Note_on_c, 7, 67, 0
9, 15840, Note_on_c, 7, 72, 64
9, 15840, Note_on_c, 7, 60, 64
9, 15849, Note_on_c, 7, 75, 0
9, 15849, Note_on_c, 7, 63, 0
9, 15899, Note_on_c, 7, 72, 0
9, 15899, Note_on_c, 7, 60, 0
9, 15900, Note_on_c, 7, 68, 96
9, 15944, Note_on_c, 7, 68, 0
9, 15945, Note_on_c, 7, 65, 96
9, 15959, Note_on_c, 7, 65, 0
9, 15960, Note_on_c, 7, 62, 96
9, 15989, Note_on_c, 7, 62, 0
9, 16020, Note_on_c, 7, 67, 96
9, 16049, Note_on_c, 7, 67, 0
9, 16080, Note_on_c, 7, 60, 48
9, 16109, Note_on_c, 7, 60, 0
9, 16200, Note_on_c, 7, 63, 48
9, 16200, Note_on_c, 7, 60, 48
9, 16229, Note_on_c, 7, 60, 0
9, 16229, Note_on_c, 7, 63, 0
9, 16320, Note_on_c, 7, 55, 48
9, 16320, Note_on_c, 7, 60, 48
9, 16349, Note_on_c, 7, 60, 0
9, 16349, Note_on_c, 7, 55, 0
9, 16560, Note_on_c, 7, 67, 48
9, 16560, Note_on_c, 7, 55, 48
9, 16580, Note_on_c, 7, 72, 48
9, 16580, Note_on_c, 7, 60, 48
9, 16582, Note_on_c, 7, 55, 0
9, 16582, Note_on_c, 7, 67, 0
9, 16599, Note_on_c, 7, 72, 0
9, 16599, Note_on_c, 7, 60, 0
9, 16600, Note_on_c, 7, 76, 48
9, 16600, Note_on_c, 7, 64, 48
9, 16609, Note_on_c, 7, 64, 0
9, 16609, Note_on_c, 7, 76, 0
9, 16620, Note_on_c, 7, 67, 48
9, 16620, Note_on_c, 7, 55, 48
9, 16640, Note_on_c, 7, 72, 48
9, 16640, Note_on_c, 7, 60, 48
9, 16642, Note_on_c, 7, 55, 0
9, 16642, Note_on_c, 7, 67, 0
9, 16659, Note_on_c, 7, 72, 0
9, 16659, Note_on_c, 7, 60, 0
9, 16660, Note_on_c, 7, 76, 48
9, 16660, Note_on_c, 7, 64, 48
9, 16669, Note_on_c, 7, 64, 0
9, 16669, Note_on_c, 7, 76, 0
9, 16680, Note_on_c, 7, 67, 48
9, 16680, Note_on_c, 7, 55, 48
9, 16700, Note_on_c, 7, 72, 48
9, 16700, Note_on_c, 7, 60, 48
9, 16702, Note_on_c, 7, 55, 0
9, 16702, Note_on_c, 7, 67, 0
9, 16719, Note_on_c, 7, 72, 0
9, 16719, Note_on_c, 7, 60, 0
9, 16720, Note_on_c, 7, 76, 48
9, 16720, Note_on_c, 7, 64, 48
9, 16729, Note_on_c, 7, 64, 0
9, 16729, Note_on_c, 7, 76, 0
9, 16740, Note_on_c, 7, 67, 48
9, 16740, Note_on_c, 7, 55, 48
9, 16760, Note_on_c, 7, 72, 48
9, 16760, Note_on_c, 7, 60, 48
9, 16762, Note_on_c, 7, 55, 0
9, 16762, Note_on_c, 7, 67, 0
9, 16779, Note_on_c, 7, 72, 0
9, 16779, Note_on_c, 7, 60, 0
9, 16780, Note_on_c, 7, 76, 48
9, 16780, Note_on_c, 7, 64, 48
9, 16789, Note_on_c, 7, 64, 0
9, 16789, Note_on_c, 7, 76, 0
9, 16800, Note_on_c, 7, 67, 48
9, 16800, Note_on_c, 7, 55, 48
9, 16820, Note_on_c, 7, 72, 48
9, 16820, Note_on_c, 7, 60, 48
9, 16822, Note_on_c, 7, 55, 0
9, 16822, Note_on_c, 7, 67, 0
9, 16839, Note_on_c, 7, 72, 0
9, 16839, Note_on_c, 7, 60, 0
9, 16840, Note_on_c, 7, 76, 48
9, 16840, Note_on_c, 7, 64, 48
9, 16849, Note_on_c, 7, 64, 0
9, 16849, Note_on_c, 7, 76, 0
9, 16860, Note_on_c, 7, 67, 48
9, 16860, Note_on_c, 7, 55, 48
9, 16880, Note_on_c, 7, 72, 48
9, 16880, Note_on_c, 7, 60, 48
9, 16882, Note_on_c, 7, 55, 0
9, 16882, Note_on_c, 7, 67, 0
9, 16899, Note_on_c, 7, 72, 0
9, 16899, Note_on_c, 7, 60, 0
9, 16900, Note_on_c, 7, 76, 48
9, 16900, Note_on_c, 7, 64, 48
9, 16909, Note_on_c, 7, 64, 0
9, 16909, Note_on_c, 7, 76, 0
9, 16920, Note_on_c, 7, 67, 48
9, 16920, Note_on_c, 7, 55, 48
9, 16940, Note_on_c, 7, 72, 48
9, 16940, Note_on_c, 7, 60, 48
9, 16942, Note_on_c, 7, 55, 0
9, 16942, Note_on_c, 7, 67, 0
9, 16959, Note_on_c, 7, 72, 0
9, 16959, Note_on_c, 7, 60, 0
9, 16960, Note_on_c, 7, 76, 48
9, 16960, Note_on_c, 7, 64, 48
9, 16969, Note_on_c, 7, 64, 0
9, 16969, Note_on_c, 7, 76, 0
9, 16980, Note_on_c, 7, 67, 48
9, 16980, Note_on_c, 7, 55, 48
9, 17000, Note_on_c, 7, 72, 48
9, 17000, Note_on_c, 7, 60, 48
9, 17002, Note_on_c, 7, 55, 0
9, 17002, Note_on_c, 7, 67, 0
9, 17019, Note_on_c, 7, 72, 0
9, 17019, Note_on_c, 7, 60, 0
9, 17020, Note_on_c, 7, 76, 48
9, 17020, Note_on_c, 7, 64, 48
9, 17029, Note_on_c, 7, 64, 0
9, 17029, Note_on_c, 7, 76, 0
9, 17040, Note_on_c, 7, 69, 48
9, 17040, Note_on_c, 7, 57, 48
9, 17060, Note_on_c, 7, 72, 48
9, 17060, Note_on_c, 7, 60, 48
9, 17062, Note_on_c, 7, 57, 0
9, 17062, Note_on_c, 7, 69, 0
9, 17079, Note_on_c, 7, 72, 0
9, 17079, Note_on_c, 7, 60, 0
9, 17080, Note_on_c, 7, 74, 48
9, 17080, Note_on_c, 7, 62, 48
9, 17089, Note_on_c, 7, 62, 0
9, 17089, Note_on_c, 7, 74, 0
9, 17100, Note_on_c, 7, 69, 48
9, 17100, Note_on_c, 7, 57, 48
9, 17120, Note_on_c, 7, 72, 48
9, 17120, Note_on_c, 7, 60, 48
9, 17122, Note_on_c, 7, 57, 0
9, 17122, Note_on_c, 7, 69, 0
9, 17139, Note_on_c, 7, 72, 0
9, 17139, Note_on_c, 7, 60, 0
9, 17140, Note_on_c, 7, 74, 48
9, 17140, Note_on_c, 7, 62, 48
9, 17149, Note_on_c, 7, 62, 0
9, 17149, Note_on_c, 7, 74, 0
9, 17160, Note_on_c, 7, 69, 48
9, 17160, Note_on_c, 7, 57, 48
9, 17180, Note_on_c, 7, 72, 48
9, 17180, Note_on_c, 7, 60, 48
9, 17182, Note_on_c, 7, 57, 0
9, 17182, Note_on_c, 7, 69, 0
9, 17199, Note_on_c, 7, 72, 0
9, 17199, Note_on_c, 7, 60, 0
9, 17200, Note_on_c, 7, 74, 48
9, 17200, Note_on_c, 7, 62, 48
9, 17209, Note_on_c, 7, 62, 0
9, 17209, Note_on_c, 7, 74, 0
9, 17220, Note_on_c, 7, 69, 48
9, 17220, Note_on_c, 7, 57, 48
9, 17240, Note_on_c, 7, 72, 48
9, 17240, Note_on_c, 7, 60, 48
9, 17242, Note_on_c, 7, 57, 0
9, 17242, Note_on_c, 7, 69, 0
9, 17259, Note_on_c, 7, 72, 0
9, 17259, Note_on_c, 7, 60, 0
9, 17260, Note_on_c, 7, 74, 48
9, 17260, Note_on_c, 7, 62, 48
9, 17269, Note_on_c, 7, 62, 0
9, 17269, Note_on_c, 7, 74, 0
9, 17280, Note_on_c, 7, 69, 48
9, 17280, Note_on_c, 7, 57, 48
9, 17300, Note_on_c, 7, 72, 48
9, 17300, Note_on_c, 7, 60, 48
9, 17302, Note_on_c, 7, 57, 0
9, 17302, Note_on_c, 7, 69, 0
9, 17319, Note_on_c, 7, 72, 0
9, 17319, Note_on_c, 7, 60, 0
9, 17320, Note_on_c, 7, 74, 48
9, 17320, Note_on_c, 7, 62, 48
9, 17329, Note_on_c, 7, 62, 0
9, 17329, Note_on_c, 7, 74, 0
9, 17340, Note_on_c, 7, 69, 48
9, 17340, Note_on_c, 7, 57, 48
9, 17360, Note_on_c, 7, 72, 48
9, 17360, Note_on_c, 7, 60, 48
9, 17362, Note_on_c, 7, 57, 0
9, 17362, Note_on_c, 7, 69, 0
9, 17379, Note_on_c, 7, 72, 0
9, 17379, Note_on_c, 7, 60, 0
9, 17380, Note_on_c, 7, 74, 48
9, 17380, Note_on_c, 7, 62, 48
9, 17389, Note_on_c, 7, 62, 0
9, 17389, Note_on_c, 7, 74, 0
9, 17400, Note_on_c, 7, 69, 48
9, 17400, Note_on_c, 7, 57, 48
9, 17420, Note_on_c, 7, 72, 48
9, 17420, Note_on_c, 7, 60, 48
9, 17422, Note_on_c, 7, 57, 0
9, 17422, Note_on_c, 7, 69, 0
9, 17439, Note_on_c, 7, 72, 0
9, 17439, Note_on_c, 7, 60, 0
9, 17440, Note_on_c, 7, 74, 48
9, 17440, Note_on_c, 7, 62, 48
9, 17449, Note_on_c, 7, 62, 0
9, 17449, Note_on_c, 7, 74, 0
9, 17460, Note_on_c, 7, 69, 48
9, 17460, Note_on_c, 7, 57, 48
9, 17480, Note_on_c, 7, 72, 48
9, 17480, Note_on_c, 7, 60, 48
9, 17482, Note_on_c, 7, 57, 0
9, 17482, Note_on_c, 7, 69, 0
9, 17499, Note_on_c, 7, 72, 0
9, 17499, Note_on_c, 7, 60, 0
9, 17500, Note_on_c, 7, 74, 48
9, 17500, Note_on_c, 7, 62, 48
9, 17509, Note_on_c, 7, 62, 0
9, 17509, Note_on_c, 7, 74, 0
9, 17520, Note_on_c, 7, 69, 48
9, 17520, Note_on_c, 7, 57, 48
9, 17540, Note_on_c, 7, 72, 48
9, 17540, Note_on_c, 7, 60, 48
9, 17542, Note_on_c, 7, 57, 0
9, 17542, Note_on_c, 7, 69, 0
9, 17559, Note_on_c, 7, 72, 0
9, 17559, Note_on_c, 7, 60, 0
9, 17560, Note_on_c, 7, 74, 48
9, 17560, Note_on_c, 7, 62, 48
9, 17569, Note_on_c, 7, 62, 0
9, 17569, Note_on_c, 7, 74, 0
9, 17580, Note_on_c, 7, 69, 48
9, 17580, Note_on_c, 7, 57, 48
9, 17580, Note_on_c, 7, 69, 48
9, 17580, Note_on_c, 7, 57, 48
9, 17600, Note_on_c, 7, 72, 48
9, 17600, Note_on_c, 7, 60, 48
9, 17602, Note_on_c, 7, 57, 0
9, 17602, Note_on_c, 7, 69, 0
9, 17602, Note_on_c, 7, 69, 0
9, 17602, Note_on_c, 7, 57, 0
9, 17619, Note_on_c, 7, 60, 0
9, 17619, Note_on_c, 7, 72, 0
9, 17620, Note_on_c, 7, 74, 48
9, 17620, Note_on_c, 7, 62, 48
9, 17629, Note_on_c, 7, 62, 0
9, 17629, Note_on_c, 7, 74, 0
9, 17640, Note_on_c, 7, 69, 48
9, 17640, Note_on_c, 7, 57, 48
9, 17640, Note_on_c, 7, 69, 48
9, 17640, Note_on_c, 7, 57, 48
9, 17660, Note_on_c, 7, 72, 48
9, 17660, Note_on_c, 7, 60, 48
9, 17662, Note_on_c, 7, 57, 0
9, 17662, Note_on_c, 7, 69, 0
9, 17662, Note_on_c, 7, 69, 0
9, 17662, Note_on_c, 7, 57, 0
9, 17679, Note_on_c, 7, 60, 0
9, 17679, Note_on_c, 7, 72, 0
9, 17680, Note_on_c, 7, 74, 48
9, 17680, Note_on_c, 7, 62, 48
9, 17689, Note_on_c, 7, 62, 0
9, 17689, Note_on_c, 7, 74, 0
9, 17700, Note_on_c, 7, 69, 48
9, 17700, Note_on_c, 7, 57, 48
9, 17700, Note_on_c, 7, 69, 48
9, 17700, Note_on_c, 7, 57, 48
9, 17720, Note_on_c, 7, 72, 48
9, 17720, Note_on_c, 7, 60, 48
9, 17722, Note_on_c, 7, 57, 0
9, 17722, Note_on_c, 7, 69, 0
9, 17722, Note_on_c, 7, 69, 0
9, 17722, Note_on_c, 7, 57, 0
9, 17739, Note_on_c, 7, 60, 0
9, 17739, Note_on_c, 7, 72, 0
9, 17740, Note_on_c, 7, 74, 48
9, 17740, Note_on_c, 7, 62, 48
9, 17749, Note_on_c, 7, 62, 0
9, 17749, Note_on_c, 7, 74, 0
9, 17760, Note_on_c, 7, 71, 48
9, 17760, Note_on_c, 7, 59, 48
9, 17780, Note_on_c, 7, 74, 51
9, 17780, Note_on_c, 7, 62, 51
9, 17782, Note_on_c, 7, 59, 0
9, 17782, Note_on_c, 7, 71, 0
9, 17799, Note_on_c, 7, 74, 0
9, 17799, Note_on_c, 7, 62, 0
9, 17800, Note_on_c, 7, 65, 54
9, 17800, Note_on_c, 7, 77, 54
9, 17809, Note_on_c, 7, 77, 0
9, 17809, Note_on_c, 7, 65, 0
9, 17820, Note_on_c, 7, 71, 58
9, 17820, Note_on_c, 7, 59, 58
9, 17840, Note_on_c, 7, 74, 61
9, 17840, Note_on_c, 7, 62, 61
9, 17842, Note_on_c, 7, 59, 0
9, 17842, Note_on_c, 7, 71, 0
9, 17859, Note_on_c, 7, 74, 0
9, 17859, Note_on_c, 7, 62, 0
9, 17860, Note_on_c, 7, 65, 64
9, 17860, Note_on_c, 7, 77, 64
9, 17869, Note_on_c, 7, 77, 0
9, 17869, Note_on_c, 7, 65, 0
9, 17880, Note_on_c, 7, 71, 68
9, 17880, Note_on_c, 7, 59, 68
9, 17900, Note_on_c, 7, 74, 71
9, 17900, Note_on_c, 7, 62, 71
9, 17902, Note_on_c, 7, 59, 0
9, 17902, Note_on_c, 7, 71, 0
9, 17919, Note_on_c, 7, 74, 0
9, 17919, Note_on_c, 7, 62, 0
9, 17920, Note_on_c, 7, 65, 74
9, 17920, Note_on_c, 7, 77, 74
9, 17929, Note_on_c, 7, 77, 0
9, 17929, Note_on_c, 7, 65, 0
9, 17940, Note_on_c, 7, 71, 78
9, 17940, Note_on_c, 7, 59, 78
9, 17960, Note_on_c, 7, 74, 81
9, 17960, Note_on_c, 7, 62, 81
9, 17962, Note_on_c, 7, 59, 0
9, 17962, Note_on_c, 7, 71, 0
9, 17979, Note_on_c, 7, 74, 0
9, 17979, Note_on_c, 7, 62, 0
9, 17980, Note_on_c, 7, 65, 84
9, 17980, Note_on_c, 7, 77, 84
9, 17989, Note_on_c, 7, 77, 0
9, 17989, Note_on_c, 7, 65, 0
9, 18000, Note_on_c, 7, 69, 88
9, 18000, Note_on_c, 7, 57, 88
9, 18020, Note_on_c, 7, 72, 91
9, 18020, Note_on_c, 7, 60, 91
9, 18022, Note_on_c, 7, 57, 0
9, 18022, Note_on_c, 7, 69, 0
9, 18039, Note_on_c, 7, 72, 0
9, 18039, Note_on_c, 7, 60, 0
9, 18040, Note_on_c, 7, 64, 94
9, 18040, Note_on_c, 7, 76, 94
9, 18049, Note_on_c, 7, 76, 0
9, 18049, Note_on_c, 7, 64, 0
9, 18060, Note_on_c, 7, 64, 98
9, 18060, Note_on_c, 7, 57, 98
9, 18080, Note_on_c, 7, 60, 101
9, 18080, Note_on_c, 7, 69, 101
9, 18082, Note_on_c, 7, 57, 0
9, 18082, Note_on_c, 7, 64, 0
9, 18099, Note_on_c, 7, 60, 0
9, 18099, Note_on_c, 7, 69, 0
9, 18100, Note_on_c, 7, 72, 104
9, 18100, Note_on_c, 7, 64, 104
9, 18109, Note_on_c, 7, 64, 0
9, 18109, Note_on_c, 7, 72, 0
9, 18120, Note_on_c, 7, 62, 108
9, 18120, Note_on_c, 7, 59, 108
9, 18139, Note_on_c, 7, 62, 0
9, 18140, Note_on_c, 7, 62, 111
9, 18140, Note_on_c, 7, 67, 111
9, 18142, Note_on_c, 7, 59, 0
9, 18159, Note_on_c, 7, 67, 0
9, 18159, Note_on_c, 7, 62, 0
9, 18160, Note_on_c, 7, 62, 114
9, 18160, Note_on_c, 7, 71, 114
9, 18169, Note_on_c, 7, 71, 0
9, 18169, Note_on_c, 7, 62, 0
9, 18180, Note_on_c, 7, 60, 118
9, 18200, Note_on_c, 7, 66, 121
9, 18200, Note_on_c, 7, 62, 121
9, 18202, Note_on_c, 7, 60, 0
9, 18219, Note_on_c, 7, 62, 0
9, 18219, Note_on_c, 7, 66, 0
9, 18220, Note_on_c, 7, 62, 124
9, 18220, Note_on_c, 7, 69, 124
9, 18229, Note_on_c, 7, 69, 0
9, 18229, Note_on_c, 7, 62, 0
9, 18240, Note_on_c, 7, 67, 127
9, 18240, Note_on_c, 7, 59, 127
9, 18247, Note_on_c, 7, 59, 0
9, 18247, Note_on_c, 7, 67, 0
9, 18250, Note_on_c, 7, 79, 127
9, 18250, Note_on_c, 7, 71, 127
9, 18257, Note_on_c, 7, 71, 0
9, 18257, Note_on_c, 7, 79, 0
9, 18260, Note_on_c, 7, 79, 127
9, 18260, Note_on_c, 7, 71, 127
9, 18267, Note_on_c, 7, 71, 0
9, 18267, Note_on_c, 7, 79, 0
9, 18270, Note_on_c, 7, 79, 127
9, 18270, Note_on_c, 7, 71, 127
9, 18277, Note_on_c, 7, 71, 0
9, 18277, Note_on_c, 7, 79, 0
9, 18280, Note_on_c, 7, 79, 127
9, 18280, Note_on_c, 7, 71, 127
9, 18287, Note_on_c, 7, 71, 0
9, 18287, Note_on_c, 7, 79, 0
9, 18290, Note_on_c, 7, 79, 127
9, 18290, Note_on_c, 7, 71, 127
9, 18297, Note_on_c, 7, 71, 0
9, 18297, Note_on_c, 7, 79, 0
9, 18300, Note_on_c, 7, 79, 127
9, 18300, Note_on_c, 7, 71, 127
9, 18307, Note_on_c, 7, 71, 0
9, 18307, Note_on_c, 7, 79, 0
9, 18310, Note_on_c, 7, 79, 127
9, 18310, Note_on_c, 7, 71, 127
9, 18317, Note_on_c, 7, 71, 0
9, 18317, Note_on_c, 7, 79, 0
9, 18320, Note_on_c, 7, 79, 127
9, 18320, Note_on_c, 7, 71, 127
9, 18327, Note_on_c, 7, 71, 0
9, 18327, Note_on_c, 7, 79, 0
9, 18330, Note_on_c, 7, 79, 127
9, 18330, Note_on_c, 7, 71, 127
9, 18337, Note_on_c, 7, 71, 0
9, 18337, Note_on_c, 7, 79, 0
9, 18340, Note_on_c, 7, 79, 127
9, 18340, Note_on_c, 7, 71, 127
9, 18347, Note_on_c, 7, 71, 0
9, 18347, Note_on_c, 7, 79, 0
9, 18350, Note_on_c, 7, 79, 127
9, 18350, Note_on_c, 7, 71, 127
9, 18357, Note_on_c, 7, 71, 0
9, 18357, Note_on_c, 7, 79, 0
9, 18360, Note_on_c, 7, 79, 127
9, 18360, Note_on_c, 7, 71, 127
9, 18389, Note_on_c, 7, 71, 0
9, 18389, Note_on_c, 7, 79, 0
9, 18480, Note_on_c, 7, 67, 127
9, 18480, Note_on_c, 7, 59, 127
9, 18487, Note_on_c, 7, 59, 0
9, 18487, Note_on_c, 7, 67, 0
9, 18490, Note_on_c, 7, 79, 127
9, 18490, Note_on_c, 7, 71, 127
9, 18497, Note_on_c, 7, 71, 0
9, 18497, Note_on_c, 7, 79, 0
9, 18500, Note_on_c, 7, 79, 127
9, 18500, Note_on_c, 7, 71, 127
9, 18507, Note_on_c, 7, 71, 0
9, 18507, Note_on_c, 7, 79, 0
9, 18510, Note_on_c, 7, 79, 127
9, 18510, Note_on_c, 7, 71, 127
9, 18517, Note_on_c, 7, 71, 0
9, 18517, Note_on_c, 7, 79, 0
9, 18520, Note_on_c, 7, 79, 127
9, 18520, Note_on_c, 7, 71, 127
9, 18527, Note_on_c, 7, 71, 0
9, 18527, Note_on_c, 7, 79, 0
9, 18530, Note_on_c, 7, 79, 127
9, 18530, Note_on_c, 7, 71, 127
9, 18537, Note_on_c, 7, 71, 0
9, 18537, Note_on_c, 7, 79, 0
9, 18540, Note_on_c, 7, 79, 127
9, 18540, Note_on_c, 7, 71, 127
9, 18547, Note_on_c, 7, 71, 0
9, 18547, Note_on_c, 7, 79, 0
9, 18550, Note_on_c, 7, 79, 127
9, 18550, Note_on_c, 7, 71, 127
9, 18557, Note_on_c, 7, 71, 0
9, 18557, Note_on_c, 7, 79, 0
9, 18560, Note_on_c, 7, 79, 127
9, 18560, Note_on_c, 7, 71, 127
9, 18567, Note_on_c, 7, 71, 0
9, 18567, Note_on_c, 7, 79, 0
9, 18570, Note_on_c, 7, 79, 127
9, 18570, Note_on_c, 7, 71, 127
9, 18577, Note_on_c, 7, 71, 0
9, 18577, Note_on_c, 7, 79, 0
9, 18580, Note_on_c, 7, 79, 127
9, 18580, Note_on_c, 7, 71, 127
9, 18587, Note_on_c, 7, 71, 0
9, 18587, Note_on_c, 7, 79, 0
9, 18590, Note_on_c, 7, 79, 127
9, 18590, Note_on_c, 7, 71, 127
9, 18597, Note_on_c, 7, 71, 0
9, 18597, Note_on_c, 7, 79, 0
9, 18600, Note_on_c, 7, 79, 127
9, 18600, Note_on_c, 7, 71, 127
9, 18629, Note_on_c, 7, 71, 0
9, 18629, Note_on_c, 7, 79, 0
9, 18720, Note_on_c, 7, 55, 127
9, 18720, Note_on_c, 7, 62, 127
9, 18720, Note_on_c, 7, 71, 127
9, 18720, Note_on_c, 7, 79, 127
9, 18749, Note_on_c, 7, 79, 0
9, 18749, Note_on_c, 7, 55, 0
9, 18749, Note_on_c, 7, 62, 0
9, 18749, Note_on_c, 7, 71, 0
9, 18780, Note_on_c, 7, 74, 127
9, 18809, Note_on_c, 7, 74, 0
9, 18840, Note_on_c, 7, 55, 127
9, 18840, Note_on_c, 7, 62, 127
9, 18840, Note_on_c, 7, 71, 127
9, 18840, Note_on_c, 7, 79, 127
9, 18869, Note_on_c, 7, 79, 0
9, 18869, Note_on_c, 7, 55, 0
9, 18869, Note_on_c, 7, 62, 0
9, 18869, Note_on_c, 7, 71, 0
9, 18900, Note_on_c, 7, 74, 127
9, 18929, Note_on_c, 7, 74, 0
9, 18960, Note_on_c, 7, 79, 127
9, 18960, Note_on_c, 7, 71, 127
9, 18960, Note_on_c, 7, 62, 127
9, 18960, Note_on_c, 7, 55, 127
9, 18960, Note_on_c, 7, 67, 127
9, 19080, Note_on_c, 7, 65, 127
9, 19080, Note_on_c, 7, 77, 127
9, 19089, Note_on_c, 7, 67, 0
9, 19089, Note_on_c, 7, 55, 0
9, 19089, Note_on_c, 7, 79, 0
9, 19089, Note_on_c, 7, 62, 0
9, 19089, Note_on_c, 7, 71, 0
9, 19110, Note_on_c, 7, 76, 108
9, 19110, Note_on_c, 7, 64, 108
9, 19119, Note_on_c, 7, 77, 0
9, 19119, Note_on_c, 7, 65, 0
9, 19140, Note_on_c, 7, 65, 88
9, 19140, Note_on_c, 7, 77, 88
9, 19149, Note_on_c, 7, 76, 0
9, 19149, Note_on_c, 7, 64, 0
9, 19170, Note_on_c, 7, 74, 68
9, 19170, Note_on_c, 7, 62, 68
9, 19179, Note_on_c, 7, 65, 0
9, 19179, Note_on_c, 7, 77, 0
9, 19199, Note_on_c, 7, 74, 0
9, 19199, Note_on_c, 7, 62, 0
9, 19200, Note_on_c, 7, 72, 48
9, 19200, Note_on_c, 7, 60, 48
9, 19320, Note_on_c, 7, 76, 48
9, 19320, Note_on_c, 7, 64, 48
9, 19329, Note_on_c, 7, 60, 0
9, 19329, Note_on_c, 7, 72, 0
9, 19380, Note_on_c, 7, 79, 48
9, 19380, Note_on_c, 7, 67, 48
9, 19389, Note_on_c, 7, 76, 0
9, 19389, Note_on_c, 7, 64, 0
9, 19439, Note_on_c, 7, 79, 0
9, 19439, Note_on_c, 7, 67, 0
9, 19440, Note_on_c, 7, 82, 48
9, 19440, Note_on_c, 7, 70, 48
9, 19620, Note_on_c, 7, 64, 48
9, 19620, Note_on_c, 7, 76, 48
9, 19629, Note_on_c, 7, 70, 0
9, 19629, Note_on_c, 7, 82, 0
9, 19679, Note_on_c, 7, 64, 0
9, 19679, Note_on_c, 7, 76, 0
9, 19680, Note_on_c, 7, 65, 48
9, 19680, Note_on_c, 7, 77, 48
9, 19740, Note_on_c, 7, 81, 56
9, 19740, Note_on_c, 7, 69, 56
9, 19749, Note_on_c, 7, 77, 0
9, 19749, Note_on_c, 7, 65, 0
9, 19800, Note_on_c, 7, 70, 64
9, 19800, Note_on_c, 7, 82, 64
9, 19809, Note_on_c, 7, 81, 0
9, 19809, Note_on_c, 7, 69, 0
9, 19860, Note_on_c, 7, 76, 72
9, 19860, Note_on_c, 7, 64, 72
9, 19869, Note_on_c, 7, 70, 0
9, 19869, Note_on_c, 7, 82, 0
9, 19919, Note_on_c, 7, 76, 0
9, 19919, Note_on_c, 7, 64, 0
9, 19920, Note_on_c, 7, 65, 80
9, 19920, Note_on_c, 7, 77, 80
9, 19980, Note_on_c, 7, 81, 88
9, 19980, Note_on_c, 7, 69, 88
9, 19989, Note_on_c, 7, 77, 0
9, 19989, Note_on_c, 7, 65, 0
9, 20040, Note_on_c, 7, 70, 96
9, 20040, Note_on_c, 7, 82, 96
9, 20049, Note_on_c, 7, 81, 0
9, 20049, Note_on_c, 7, 69, 0
9, 20100, Note_on_c, 7, 76, 104
9, 20100, Note_on_c, 7, 64, 104
9, 20109, Note_on_c, 7, 70, 0
9, 20109, Note_on_c, 7, 82, 0
9, 20159, Note_on_c, 7, 76, 0
9, 20159, Note_on_c, 7, 64, 0
9, 20160, Note_on_c, 7, 65, 48
9, 20160, Note_on_c, 7, 77, 48
9, 20179, Note_on_c, 7, 77, 0
9, 20179, Note_on_c, 7, 65, 0
9, 20180, Note_on_c, 7, 69, 48
9, 20180, Note_on_c, 7, 80, 48
9, 20199, Note_on_c, 7, 69, 0
9, 20200, Note_on_c, 7, 81, 48
9, 20200, Note_on_c, 7, 69, 48
9, 20202, Note_on_c, 7, 80, 0
9, 20219, Note_on_c, 7, 69, 0
9, 20219, Note_on_c, 7, 81, 0
9, 20240, Note_on_c, 7, 81, 48
9, 20240, Note_on_c, 7, 64, 48
9, 20259, Note_on_c, 7, 64, 0
9, 20260, Note_on_c, 7, 64, 48
9, 20260, Note_on_c, 7, 79, 48
9, 20262, Note_on_c, 7, 81, 0
9, 20279, Note_on_c, 7, 79, 0
9, 20279, Note_on_c, 7, 64, 0
9, 20300, Note_on_c, 7, 79, 48
9, 20300, Note_on_c, 7, 65, 48
9, 20319, Note_on_c, 7, 65, 0
9, 20320, Note_on_c, 7, 65, 48
9, 20320, Note_on_c, 7, 77, 48
9, 20322, Note_on_c, 7, 79, 0
9, 20339, Note_on_c, 7, 77, 0
9, 20339, Note_on_c, 7, 65, 0
9, 20360, Note_on_c, 7, 77, 48
9, 20360, Note_on_c, 7, 67, 48
9, 20379, Note_on_c, 7, 67, 0
9, 20380, Note_on_c, 7, 67, 48
9, 20380, Note_on_c, 7, 76, 48
9, 20382, Note_on_c, 7, 77, 0
9, 20399, Note_on_c, 7, 76, 0
9, 20399, Note_on_c, 7, 67, 0
9, 20420, Note_on_c, 7, 76, 48
9, 20420, Note_on_c, 7, 69, 48
9, 20439, Note_on_c, 7, 69, 0
9, 20440, Note_on_c, 7, 69, 48
9, 20440, Note_on_c, 7, 74, 48
9, 20442, Note_on_c, 7, 76, 0
9, 20459, Note_on_c, 7, 74, 0
9, 20459, Note_on_c, 7, 69, 0
9, 20480, Note_on_c, 7, 67, 48
9, 20480, Note_on_c, 7, 74, 48
9, 20499, Note_on_c, 7, 67, 0
9, 20500, Note_on_c, 7, 73, 48
9, 20500, Note_on_c, 7, 67, 48
9, 20502, Note_on_c, 7, 74, 0
9, 20519, Note_on_c, 7, 67, 0
9, 20519, Note_on_c, 7, 73, 0
9, 20540, Note_on_c, 7, 69, 48
9, 20540, Note_on_c, 7, 73, 48
9, 20559, Note_on_c, 7, 69, 0
9, 20560, Note_on_c, 7, 74, 48
9, 20560, Note_on_c, 7, 69, 48
9, 20562, Note_on_c, 7, 73, 0
9, 20579, Note_on_c, 7, 69, 0
9, 20579, Note_on_c, 7, 74, 0
9, 20600, Note_on_c, 7, 74, 48
9, 20600, Note_on_c, 7, 69, 48
9, 20619, Note_on_c, 7, 69, 0
9, 20620, Note_on_c, 7, 72, 48
9, 20620, Note_on_c, 7, 62, 48
9, 20622, Note_on_c, 7, 74, 0
9, 20639, Note_on_c, 7, 62, 0
9, 20639, Note_on_c, 7, 72, 0
9, 20640, Note_on_c, 7, 71, 48
9, 20640, Note_on_c, 7, 62, 48
9, 20649, Note_on_c, 7, 62, 0
9, 20649, Note_on_c, 7, 71, 0
9, 20660, Note_on_c, 7, 59, 48
9, 20660, Note_on_c, 7, 71, 48
9, 20669, Note_on_c, 7, 71, 0
9, 20669, Note_on_c, 7, 59, 0
9, 20680, Note_on_c, 7, 62, 48
9, 20680, Note_on_c, 7, 74, 48
9, 20689, Note_on_c, 7, 74, 0
9, 20689, Note_on_c, 7, 62, 0
9, 20700, Note_on_c, 7, 67, 48
9, 20700, Note_on_c, 7, 79, 48
9, 20709, Note_on_c, 7, 79, 0
9, 20709, Note_on_c, 7, 67, 0
9, 20720, Note_on_c, 7, 69, 48
9, 20720, Note_on_c, 7, 81, 48
9, 20729, Note_on_c, 7, 81, 0
9, 20729, Note_on_c, 7, 69, 0
9, 20740, Note_on_c, 7, 71, 48
9, 20740, Note_on_c, 7, 83, 48
9, 20749, Note_on_c, 7, 83, 0
9, 20749, Note_on_c, 7, 71, 0
9, 20760, Note_on_c, 7, 84, 48
9, 20760, Note_on_c, 7, 72, 48
9, 20789, Note_on_c, 7, 72, 0
9, 20789, Note_on_c, 7, 84, 0
9, 20860, Note_on_c, 7, 72, 48
9, 20860, Note_on_c, 7, 60, 48
9, 20879, Note_on_c, 7, 60, 0
9, 20879, Note_on_c, 7, 72, 0
9, 20880, Note_on_c, 7, 55, 48
9, 20880, Note_on_c, 7, 67, 48
9, 20899, Note_on_c, 7, 67, 0
9, 20899, Note_on_c, 7, 55, 0
9, 20900, Note_on_c, 7, 59, 48
9, 20900, Note_on_c, 7, 71, 48
9, 20919, Note_on_c, 7, 71, 0
9, 20919, Note_on_c, 7, 59, 0
9, 20920, Note_on_c, 7, 62, 48
9, 20920, Note_on_c, 7, 74, 48
9, 20939, Note_on_c, 7, 74, 0
9, 20939, Note_on_c, 7, 62, 0
9, 20940, Note_on_c, 7, 67, 48
9, 20940, Note_on_c, 7, 79, 48
9, 20959, Note_on_c, 7, 79, 0
9, 20959, Note_on_c, 7, 67, 0
9, 20960, Note_on_c, 7, 69, 48
9, 20960, Note_on_c, 7, 81, 48
9, 20979, Note_on_c, 7, 81, 0
9, 20979, Note_on_c, 7, 69, 0
9, 20980, Note_on_c, 7, 71, 48
9, 20980, Note_on_c, 7, 83, 48
9, 20999, Note_on_c, 7, 83, 0
9, 20999, Note_on_c, 7, 71, 0
9, 21000, Note_on_c, 7, 72, 48
9, 21000, Note_on_c, 7, 84, 48
9, 21019, Note_on_c, 7, 84, 0
9, 21019, Note_on_c, 7, 72, 0
9, 21020, Note_on_c, 7, 67, 48
9, 21020, Note_on_c, 7, 79, 48
9, 21039, Note_on_c, 7, 79, 0
9, 21039, Note_on_c, 7, 67, 0
9, 21040, Note_on_c, 7, 64, 48
9, 21040, Note_on_c, 7, 76, 48
9, 21059, Note_on_c, 7, 76, 0
9, 21059, Note_on_c, 7, 64, 0
9, 21060, Note_on_c, 7, 67, 48
9, 21060, Note_on_c, 7, 79, 48
9, 21079, Note_on_c, 7, 79, 0
9, 21079, Note_on_c, 7, 67, 0
9, 21080, Note_on_c, 7, 64, 48
9, 21080, Note_on_c, 7, 76, 48
9, 21099, Note_on_c, 7, 76, 0
9, 21099, Note_on_c, 7, 64, 0
9, 21100, Note_on_c, 7, 60, 48
9, 21100, Note_on_c, 7, 72, 48
9, 21119, Note_on_c, 7, 72, 0
9, 21119, Note_on_c, 7, 60, 0
9, 21120, Note_on_c, 7, 67, 48
9, 21120, Note_on_c, 7, 59, 48
9, 21137, Note_on_c, 7, 67, 0
9, 21139, Note_on_c, 7, 59, 0
9, 21140, Note_on_c, 7, 55, 48
9, 21140, Note_on_c, 7, 67, 48
9, 21157, Note_on_c, 7, 67, 0
9, 21157, Note_on_c, 7, 55, 0
9, 21160, Note_on_c, 7, 67, 48
9, 21160, Note_on_c, 7, 55, 48
9, 21177, Note_on_c, 7, 55, 0
9, 21177, Note_on_c, 7, 67, 0
9, 21180, Note_on_c, 7, 55, 48
9, 21180, Note_on_c, 7, 67, 48
9, 21197, Note_on_c, 7, 67, 0
9, 21197, Note_on_c, 7, 55, 0
9, 21200, Note_on_c, 7, 67, 48
9, 21200, Note_on_c, 7, 55, 48
9, 21217, Note_on_c, 7, 55, 0
9, 21217, Note_on_c, 7, 67, 0
9, 21220, Note_on_c, 7, 55, 48
9, 21220, Note_on_c, 7, 67, 48
9, 21237, Note_on_c, 7, 67, 0
9, 21237, Note_on_c, 7, 55, 0
9, 21240, Note_on_c, 7, 67, 48
9, 21240, Note_on_c, 7, 55, 48
9, 21257, Note_on_c, 7, 55, 0
9, 21257, Note_on_c, 7, 67, 0
9, 21260, Note_on_c, 7, 55, 48
9, 21260, Note_on_c, 7, 67, 48
9, 21277, Note_on_c, 7, 67, 0
9, 21277, Note_on_c, 7, 55, 0
9, 21280, Note_on_c, 7, 67, 48
9, 21280, Note_on_c, 7, 55, 48
9, 21297, Note_on_c, 7, 55, 0
9, 21297, Note_on_c, 7, 67, 0
9, 21300, Note_on_c, 7, 55, 48
9, 21300, Note_on_c, 7, 67, 48
9, 21317, Note_on_c, 7, 67, 0
9, 21317, Note_on_c, 7, 55, 0
9, 21320, Note_on_c, 7, 67, 48
9, 21320, Note_on_c, 7, 55, 48
9, 21337, Note_on_c, 7, 55, 0
9, 21337, Note_on_c, 7, 67, 0
9, 21340, Note_on_c, 7, 55, 48
9, 21340, Note_on_c, 7, 67, 48
9, 21357, Note_on_c, 7, 67, 0
9, 21357, Note_on_c, 7, 55, 0
9, 21360, Note_on_c, 7, 77, 48
9, 21360, Note_on_c, 7, 67, 48
9, 21360, Note_on_c, 7, 55, 48
9, 21369, Note_on_c, 7, 77, 0
9, 21377, Note_on_c, 7, 55, 0
9, 21377, Note_on_c, 7, 67, 0
9, 21380, Note_on_c, 7, 76, 48
9, 21380, Note_on_c, 7, 55, 48
9, 21380, Note_on_c, 7, 67, 48
9, 21389, Note_on_c, 7, 76, 0
9, 21397, Note_on_c, 7, 67, 0
9, 21397, Note_on_c, 7, 55, 0
9, 21400, Note_on_c, 7, 77, 48
9, 21400, Note_on_c, 7, 67, 48
9, 21400, Note_on_c, 7, 55, 48
9, 21409, Note_on_c, 7, 77, 0
9, 21417, Note_on_c, 7, 55, 0
9, 21417, Note_on_c, 7, 67, 0
9, 21420, Note_on_c, 7, 74, 48
9, 21420, Note_on_c, 7, 55, 48
9, 21420, Note_on_c, 7, 67, 48
9, 21429, Note_on_c, 7, 74, 0
9, 21437, Note_on_c, 7, 67, 0
9, 21437, Note_on_c, 7, 55, 0
9, 21440, Note_on_c, 7, 73, 48
9, 21440, Note_on_c, 7, 67, 48
9, 21440, Note_on_c, 7, 55, 48
9, 21449, Note_on_c, 7, 73, 0
9, 21457, Note_on_c, 7, 55, 0
9, 21457, Note_on_c, 7, 67, 0
9, 21460, Note_on_c, 7, 74, 48
9, 21460, Note_on_c, 7, 55, 48
9, 21460, Note_on_c, 7, 67, 48
9, 21469, Note_on_c, 7, 74, 0
9, 21477, Note_on_c, 7, 67, 0
9, 21477, Note_on_c, 7, 55, 0
9, 21480, Note_on_c, 7, 71, 48
9, 21480, Note_on_c, 7, 67, 48
9, 21480, Note_on_c, 7, 55, 48
9, 21489, Note_on_c, 7, 71, 0
9, 21497, Note_on_c, 7, 55, 0
9, 21497, Note_on_c, 7, 67, 0
9, 21500, Note_on_c, 7, 70, 48
9, 21500, Note_on_c, 7, 55, 48
9, 21500, Note_on_c, 7, 67, 48
9, 21509, Note_on_c, 7, 70, 0
9, 21517, Note_on_c, 7, 67, 0
9, 21517, Note_on_c, 7, 55, 0
9, 21520, Note_on_c, 7, 71, 48
9, 21520, Note_on_c, 7, 67, 48
9, 21520, Note_on_c, 7, 55, 48
9, 21529, Note_on_c, 7, 71, 0
9, 21537, Note_on_c, 7, 55, 0
9, 21537, Note_on_c, 7, 67, 0
9, 21540, Note_on_c, 7, 65, 48
9, 21540, Note_on_c, 7, 55, 48
9, 21540, Note_on_c, 7, 67, 48
9, 21549, Note_on_c, 7, 65, 0
9, 21557, Note_on_c, 7, 67, 0
9, 21557, Note_on_c, 7, 55, 0
9, 21560, Note_on_c, 7, 64, 48
9, 21560, Note_on_c, 7, 67, 48
9, 21560, Note_on_c, 7, 55, 48
9, 21569, Note_on_c, 7, 64, 0
9, 21577, Note_on_c, 7, 55, 0
9, 21577, Note_on_c, 7, 67, 0
9, 21580, Note_on_c, 7, 65, 48
9, 21580, Note_on_c, 7, 55, 48
9, 21580, Note_on_c, 7, 67, 48
9, 21589, Note_on_c, 7, 65, 0
9, 21597, Note_on_c, 7, 67, 0
9, 21597, Note_on_c, 7, 55, 0
9, 21600, Note_on_c, 7, 67, 48
9, 21600, Note_on_c, 7, 55, 48
9, 21600, Note_on_c, 7, 64, 48
9, 21619, Note_on_c, 7, 67, 0
9, 21620, Note_on_c, 7, 67, 48
9, 21622, Note_on_c, 7, 64, 0
9, 21622, Note_on_c, 7, 55, 0
9, 21639, Note_on_c, 7, 67, 0
9, 21640, Note_on_c, 7, 72, 48
9, 21649, Note_on_c, 7, 72, 0
9, 21660, Note_on_c, 7, 64, 48
9, 21680, Note_on_c, 7, 67, 48
9, 21682, Note_on_c, 7, 64, 0
9, 21699, Note_on_c, 7, 67, 0
9, 21700, Note_on_c, 7, 72, 48
9, 21709, Note_on_c, 7, 72, 0
9, 21720, Note_on_c, 7, 64, 48
9, 21740, Note_on_c, 7, 67, 48
9, 21742, Note_on_c, 7, 64, 0
9, 21759, Note_on_c, 7, 67, 0
9, 21760, Note_on_c, 7, 72, 48
9, 21769, Note_on_c, 7, 72, 0
9, 21780, Note_on_c, 7, 64, 48
9, 21800, Note_on_c, 7, 67, 48
9, 21802, Note_on_c, 7, 64, 0
9, 21819, Note_on_c, 7, 67, 0
9, 21820, Note_on_c, 7, 72, 48
9, 21829, Note_on_c, 7, 72, 0
9, 21840, Note_on_c, 7, 67, 48
9, 21840, Note_on_c, 7, 64, 48
9, 21859, Note_on_c, 7, 67, 0
9, 21860, Note_on_c, 7, 72, 48
9, 21860, Note_on_c, 7, 67, 48
9, 21862, Note_on_c, 7, 64, 0
9, 21879, Note_on_c, 7, 67, 0
9, 21879, Note_on_c, 7, 72, 0
9, 21880, Note_on_c, 7, 76, 48
9, 21880, Note_on_c, 7, 72, 48
9, 21889, Note_on_c, 7, 72, 0
9, 21889, Note_on_c, 7, 76, 0
9, 21900, Note_on_c, 7, 67, 49
9, 21900, Note_on_c, 7, 64, 49
9, 21919, Note_on_c, 7, 67, 0
9, 21920, Note_on_c, 7, 72, 50
9, 21920, Note_on_c, 7, 67, 50
9, 21922, Note_on_c, 7, 64, 0
9, 21939, Note_on_c, 7, 67, 0
9, 21939, Note_on_c, 7, 72, 0
9, 21940, Note_on_c, 7, 76, 52
9, 21940, Note_on_c, 7, 72, 52
9, 21949, Note_on_c, 7, 72, 0
9, 21949, Note_on_c, 7, 76, 0
9, 21960, Note_on_c, 7, 67, 52
9, 21960, Note_on_c, 7, 64, 52
9, 21979, Note_on_c, 7, 67, 0
9, 21980, Note_on_c, 7, 72, 53
9, 21980, Note_on_c, 7, 67, 53
9, 21982, Note_on_c, 7, 64, 0
9, 21999, Note_on_c, 7, 67, 0
9, 21999, Note_on_c, 7, 72, 0
9, 22000, Note_on_c, 7, 76, 54
9, 22000, Note_on_c, 7, 72, 54
9, 22009, Note_on_c, 7, 72, 0
9, 22009, Note_on_c, 7, 76, 0
9, 22020, Note_on_c, 7, 67, 55
9, 22020, Note_on_c, 7, 64, 55
9, 22039, Note_on_c, 7, 67, 0
9, 22040, Note_on_c, 7, 72, 56
9, 22040, Note_on_c, 7, 67, 56
9, 22042, Note_on_c, 7, 64, 0
9, 22059, Note_on_c, 7, 67, 0
9, 22059, Note_on_c, 7, 72, 0
9, 22060, Note_on_c, 7, 76, 56
9, 22060, Note_on_c, 7, 72, 56
9, 22069, Note_on_c, 7, 72, 0
9, 22069, Note_on_c, 7, 76, 0
9, 22080, Note_on_c, 7, 77, 57
9, 22080, Note_on_c, 7, 72, 57
9, 22099, Note_on_c, 7, 72, 0
9, 22100, Note_on_c, 7, 72, 58
9, 22100, Note_on_c, 7, 69, 58
9, 22102, Note_on_c, 7, 77, 0
9, 22119, Note_on_c, 7, 69, 0
9, 22119, Note_on_c, 7, 72, 0
9, 22120, Note_on_c, 7, 69, 59
9, 22120, Note_on_c, 7, 65, 59
9, 22129, Note_on_c, 7, 65, 0
9, 22129, Note_on_c, 7, 69, 0
9, 22140, Note_on_c, 7, 77, 60
9, 22140, Note_on_c, 7, 72, 60
9, 22159, Note_on_c, 7, 72, 0
9, 22160, Note_on_c, 7, 72, 60
9, 22160, Note_on_c, 7, 69, 60
9, 22162, Note_on_c, 7, 77, 0
9, 22179, Note_on_c, 7, 69, 0
9, 22179, Note_on_c, 7, 72, 0
9, 22180, Note_on_c, 7, 69, 61
9, 22180, Note_on_c, 7, 65, 61
9, 22189, Note_on_c, 7, 65, 0
9, 22189, Note_on_c, 7, 69, 0
9, 22200, Note_on_c, 7, 77, 62
9, 22200, Note_on_c, 7, 72, 62
9, 22219, Note_on_c, 7, 72, 0
9, 22220, Note_on_c, 7, 72, 63
9, 22220, Note_on_c, 7, 69, 63
9, 22222, Note_on_c, 7, 77, 0
9, 22239, Note_on_c, 7, 69, 0
9, 22239, Note_on_c, 7, 72, 0
9, 22240, Note_on_c, 7, 69, 64
9, 22240, Note_on_c, 7, 65, 64
9, 22249, Note_on_c, 7, 65, 0
9, 22249, Note_on_c, 7, 69, 0
9, 22260, Note_on_c, 7, 77, 64
9, 22260, Note_on_c, 7, 72, 64
9, 22279, Note_on_c, 7, 72, 0
9, 22280, Note_on_c, 7, 72, 65
9, 22280, Note_on_c, 7, 69, 65
9, 22282, Note_on_c, 7, 77, 0
9, 22299, Note_on_c, 7, 69, 0
9, 22299, Note_on_c, 7, 72, 0
9, 22300, Note_on_c, 7, 69, 66
9, 22300, Note_on_c, 7, 65, 66
9, 22309, Note_on_c, 7, 65, 0
9, 22309, Note_on_c, 7, 69, 0
9, 22320, Note_on_c, 7, 81, 67
9, 22320, Note_on_c, 7, 77, 67
9, 22339, Note_on_c, 7, 77, 0
9, 22340, Note_on_c, 7, 77, 68
9, 22340, Note_on_c, 7, 72, 68
9, 22342, Note_on_c, 7, 81, 0
9, 22359, Note_on_c, 7, 72, 0
9, 22359, Note_on_c, 7, 77, 0
9, 22360, Note_on_c, 7, 72, 68
9, 22360, Note_on_c, 7, 69, 68
9, 22369, Note_on_c, 7, 69, 0
9, 22369, Note_on_c, 7, 72, 0
9, 22380, Note_on_c, 7, 81, 69
9, 22380, Note_on_c, 7, 77, 69
9, 22399, Note_on_c, 7, 77, 0
9, 22400, Note_on_c, 7, 77, 70
9, 22400, Note_on_c, 7, 72, 70
9, 22402, Note_on_c, 7, 81, 0
9, 22419, Note_on_c, 7, 72, 0
9, 22419, Note_on_c, 7, 77, 0
9, 22420, Note_on_c, 7, 72, 71
9, 22420, Note_on_c, 7, 69, 71
9, 22429, Note_on_c, 7, 69, 0
9, 22429, Note_on_c, 7, 72, 0
9, 22440, Note_on_c, 7, 81, 72
9, 22440, Note_on_c, 7, 77, 72
9, 22459, Note_on_c, 7, 77, 0
9, 22460, Note_on_c, 7, 77, 72
9, 22460, Note_on_c, 7, 72, 72
9, 22462, Note_on_c, 7, 81, 0
9, 22479, Note_on_c, 7, 72, 0
9, 22479, Note_on_c, 7, 77, 0
9, 22480, Note_on_c, 7, 72, 73
9, 22480, Note_on_c, 7, 69, 73
9, 22489, Note_on_c, 7, 69, 0
9, 22489, Note_on_c, 7, 72, 0
9, 22500, Note_on_c, 7, 81, 74
9, 22500, Note_on_c, 7, 77, 74
9, 22519, Note_on_c, 7, 77, 0
9, 22520, Note_on_c, 7, 77, 75
9, 22520, Note_on_c, 7, 72, 75
9, 22522, Note_on_c, 7, 81, 0
9, 22539, Note_on_c, 7, 72, 0
9, 22539, Note_on_c, 7, 77, 0
9, 22540, Note_on_c, 7, 72, 76
9, 22540, Note_on_c, 7, 69, 76
9, 22549, Note_on_c, 7, 69, 0
9, 22549, Note_on_c, 7, 72, 0
9, 22560, Note_on_c, 7, 79, 76
9, 22560, Note_on_c, 7, 76, 76
9, 22579, Note_on_c, 7, 76, 0
9, 22580, Note_on_c, 7, 76, 77
9, 22580, Note_on_c, 7, 72, 77
9, 22582, Note_on_c, 7, 79, 0
9, 22599, Note_on_c, 7, 72, 0
9, 22599, Note_on_c, 7, 76, 0
9, 22600, Note_on_c, 7, 72, 78
9, 22600, Note_on_c, 7, 67, 78
9, 22609, Note_on_c, 7, 67, 0
9, 22609, Note_on_c, 7, 72, 0
9, 22620, Note_on_c, 7, 79, 79
9, 22620, Note_on_c, 7, 76, 79
9, 22639, Note_on_c, 7, 76, 0
9, 22640, Note_on_c, 7, 76, 80
9, 22640, Note_on_c, 7, 72, 80
9, 22642, Note_on_c, 7, 79, 0
9, 22659, Note_on_c, 7, 72, 0
9, 22659, Note_on_c, 7, 76, 0
9, 22660, Note_on_c, 7, 72, 80
9, 22660, Note_on_c, 7, 67, 80
9, 22669, Note_on_c, 7, 67, 0
9, 22669, Note_on_c, 7, 72, 0
9, 22680, Note_on_c, 7, 74, 81
9, 22680, Note_on_c, 7, 79, 81
9, 22699, Note_on_c, 7, 74, 0
9, 22700, Note_on_c, 7, 71, 82
9, 22700, Note_on_c, 7, 74, 82
9, 22702, Note_on_c, 7, 79, 0
9, 22719, Note_on_c, 7, 74, 0
9, 22719, Note_on_c, 7, 71, 0
9, 22720, Note_on_c, 7, 71, 83
9, 22720, Note_on_c, 7, 67, 83
9, 22729, Note_on_c, 7, 67, 0
9, 22729, Note_on_c, 7, 71, 0
9, 22740, Note_on_c, 7, 74, 84
9, 22740, Note_on_c, 7, 79, 84
9, 22759, Note_on_c, 7, 74, 0
9, 22760, Note_on_c, 7, 71, 84
9, 22760, Note_on_c, 7, 74, 84
9, 22762, Note_on_c, 7, 79, 0
9, 22779, Note_on_c, 7, 74, 0
9, 22779, Note_on_c, 7, 71, 0
9, 22780, Note_on_c, 7, 71, 85
9, 22780, Note_on_c, 7, 67, 85
9, 22789, Note_on_c, 7, 67, 0
9, 22789, Note_on_c, 7, 71, 0
9, 22800, Note_on_c, 7, 79, 86
9, 22800, Note_on_c, 7, 76, 86
9, 22819, Note_on_c, 7, 76, 0
9, 22820, Note_on_c, 7, 76, 87
9, 22820, Note_on_c, 7, 72, 87
9, 22822, Note_on_c, 7, 79, 0
9, 22839, Note_on_c, 7, 72, 0
9, 22839, Note_on_c, 7, 76, 0
9, 22840, Note_on_c, 7, 72, 88
9, 22840, Note_on_c, 7, 67, 88
9, 22849, Note_on_c, 7, 67, 0
9, 22849, Note_on_c, 7, 72, 0
9, 22860, Note_on_c, 7, 79, 88
9, 22860, Note_on_c, 7, 76, 88
9, 22879, Note_on_c, 7, 76, 0
9, 22880, Note_on_c, 7, 76, 89
9, 22880, Note_on_c, 7, 72, 89
9, 22882, Note_on_c, 7, 79, 0
9, 22899, Note_on_c, 7, 72, 0
9, 22899, Note_on_c, 7, 76, 0
9, 22900, Note_on_c, 7, 72, 90
9, 22900, Note_on_c, 7, 67, 90
9, 22909, Note_on_c, 7, 67, 0
9, 22909, Note_on_c, 7, 72, 0
9, 22920, Note_on_c, 7, 72, 91
9, 22920, Note_on_c, 7, 81, 91
9, 22940, Note_on_c, 7, 69, 92
9, 22940, Note_on_c, 7, 77, 92
9, 22942, Note_on_c, 7, 81, 0
9, 22942, Note_on_c, 7, 72, 0
9, 22959, Note_on_c, 7, 69, 0
9, 22959, Note_on_c, 7, 77, 0
9, 22960, Note_on_c, 7, 65, 92
9, 22960, Note_on_c, 7, 72, 92
9, 22969, Note_on_c, 7, 72, 0
9, 22969, Note_on_c, 7, 65, 0
9, 22980, Note_on_c, 7, 72, 93
9, 22980, Note_on_c, 7, 81, 93
9, 23000, Note_on_c, 7, 77, 94
9, 23000, Note_on_c, 7, 69, 94
9, 23002, Note_on_c, 7, 81, 0
9, 23002, Note_on_c, 7, 72, 0
9, 23019, Note_on_c, 7, 77, 0
9, 23019, Note_on_c, 7, 69, 0
9, 23020, Note_on_c, 7, 65, 95
9, 23020, Note_on_c, 7, 72, 95
9, 23029, Note_on_c, 7, 72, 0
9, 23029, Note_on_c, 7, 65, 0
9, 23040, Note_on_c, 7, 72, 96
9, 23040, Note_on_c, 7, 64, 96
9, 23059, Note_on_c, 7, 64, 0
9, 23059, Note_on_c, 7, 72, 0
9, 23060, Note_on_c, 7, 84, 96
9, 23060, Note_on_c, 7, 79, 96
9, 23060, Note_on_c, 7, 72, 96
9, 23060, Note_on_c, 7, 76, 96
9, 23079, Note_on_c, 7, 76, 0
9, 23079, Note_on_c, 7, 84, 0
9, 23079, Note_on_c, 7, 79, 0
9, 23079, Note_on_c, 7, 72, 0
9, 23080, Note_on_c, 7, 72, 96
9, 23080, Note_on_c, 7, 76, 96
9, 23080, Note_on_c, 7, 79, 96
9, 23080, Note_on_c, 7, 84, 96
9, 23099, Note_on_c, 7, 84, 0
9, 23099, Note_on_c, 7, 72, 0
9, 23099, Note_on_c, 7, 76, 0
9, 23099, Note_on_c, 7, 79, 0
9, 23100, Note_on_c, 7, 84, 96
9, 23100, Note_on_c, 7, 79, 96
9, 23100, Note_on_c, 7, 76, 96
9, 23100, Note_on_c, 7, 72, 96
9, 23119, Note_on_c, 7, 72, 0
9, 23119, Note_on_c, 7, 84, 0
9, 23119, Note_on_c, 7, 79, 0
9, 23119, Note_on_c, 7, 76, 0
9, 23120, Note_on_c, 7, 72, 96
9, 23120, Note_on_c, 7, 76, 96
9, 23120, Note_on_c, 7, 79, 96
9, 23120, Note_on_c, 7, 84, 96
9, 23139, Note_on_c, 7, 84, 0
9, 23139, Note_on_c, 7, 72, 0
9, 23139, Note_on_c, 7, 76, 0
9, 23139, Note_on_c, 7, 79, 0
9, 23140, Note_on_c, 7, 84, 96
9, 23140, Note_on_c, 7, 79, 96
9, 23140, Note_on_c, 7, 76, 96
9, 23140, Note_on_c, 7, 72, 96
9, 23159, Note_on_c, 7, 72, 0
9, 23159, Note_on_c, 7, 84, 0
9, 23159, Note_on_c, 7, 79, 0
9, 23159, Note_on_c, 7, 76, 0
9, 23160, Note_on_c, 7, 72, 112
9, 23160, Note_on_c, 7, 76, 112
9, 23160, Note_on_c, 7, 79, 112
9, 23160, Note_on_c, 7, 84, 112
9, 23179, Note_on_c, 7, 84, 0
9, 23179, Note_on_c, 7, 72, 0
9, 23179, Note_on_c, 7, 76, 0
9, 23179, Note_on_c, 7, 79, 0
9, 23180, Note_on_c, 7, 84, 112
9, 23180, Note_on_c, 7, 79, 112
9, 23180, Note_on_c, 7, 76, 112
9, 23180, Note_on_c, 7, 72, 112
9, 23199, Note_on_c, 7, 72, 0
9, 23199, Note_on_c, 7, 84, 0
9, 23199, Note_on_c, 7, 79, 0
9, 23199, Note_on_c, 7, 76, 0
9, 23200, Note_on_c, 7, 72, 112
9, 23200, Note_on_c, 7, 76, 112
9, 23200, Note_on_c, 7, 79, 112
9, 23200, Note_on_c, 7, 84, 112
9, 23219, Note_on_c, 7, 84, 0
9, 23219, Note_on_c, 7, 72, 0
9, 23219, Note_on_c, 7, 76, 0
9, 23219, Note_on_c, 7, 79, 0
9, 23220, Note_on_c, 7, 84, 112
9, 23220, Note_on_c, 7, 79, 112
9, 23220, Note_on_c, 7, 76, 112
9, 23220, Note_on_c, 7, 72, 112
9, 23239, Note_on_c, 7, 72, 0
9, 23239, Note_on_c, 7, 84, 0
9, 23239, Note_on_c, 7, 79, 0
9, 23239, Note_on_c, 7, 76, 0
9, 23240, Note_on_c, 7, 72, 112
9, 23240, Note_on_c, 7, 76, 112
9, 23240, Note_on_c, 7, 79, 112
9, 23240, Note_on_c, 7, 84, 112
9, 23259, Note_on_c, 7, 84, 0
9, 23259, Note_on_c, 7, 72, 0
9, 23259, Note_on_c, 7, 76, 0
9, 23259, Note_on_c, 7, 79, 0
9, 23260, Note_on_c, 7, 84, 112
9, 23260, Note_on_c, 7, 79, 112
9, 23260, Note_on_c, 7, 76, 112
9, 23260, Note_on_c, 7, 72, 112
9, 23279, Note_on_c, 7, 72, 0
9, 23279, Note_on_c, 7, 84, 0
9, 23279, Note_on_c, 7, 79, 0
9, 23279, Note_on_c, 7, 76, 0
9, 23280, Note_on_c, 7, 83, 112
9, 23280, Note_on_c, 7, 79, 112
9, 23280, Note_on_c, 7, 74, 112
9, 23280, Note_on_c, 7, 71, 112
9, 23299, Note_on_c, 7, 71, 0
9, 23299, Note_on_c, 7, 83, 0
9, 23299, Note_on_c, 7, 79, 0
9, 23299, Note_on_c, 7, 74, 0
9, 23300, Note_on_c, 7, 71, 112
9, 23300, Note_on_c, 7, 74, 112
9, 23300, Note_on_c, 7, 79, 112
9, 23300, Note_on_c, 7, 83, 112
9, 23319, Note_on_c, 7, 83, 0
9, 23319, Note_on_c, 7, 71, 0
9, 23319, Note_on_c, 7, 74, 0
9, 23319, Note_on_c, 7, 79, 0
9, 23320, Note_on_c, 7, 83, 112
9, 23320, Note_on_c, 7, 79, 112
9, 23320, Note_on_c, 7, 74, 112
9, 23320, Note_on_c, 7, 71, 112
9, 23339, Note_on_c, 7, 71, 0
9, 23339, Note_on_c, 7, 83, 0
9, 23339, Note_on_c, 7, 79, 0
9, 23339, Note_on_c, 7, 74, 0
9, 23340, Note_on_c, 7, 71, 112
9, 23340, Note_on_c, 7, 74, 112
9, 23340, Note_on_c, 7, 79, 112
9, 23340, Note_on_c, 7, 83, 112
9, 23359, Note_on_c, 7, 83, 0
9, 23359, Note_on_c, 7, 71, 0
9, 23359, Note_on_c, 7, 74, 0
9, 23359, Note_on_c, 7, 79, 0
9, 23360, Note_on_c, 7, 83, 112
9, 23360, Note_on_c, 7, 79, 112
9, 23360, Note_on_c, 7, 74, 112
9, 23360, Note_on_c, 7, 71, 112
9, 23379, Note_on_c, 7, 71, 0
9, 23379, Note_on_c, 7, 83, 0
9, 23379, Note_on_c, 7, 79, 0
9, 23379, Note_on_c, 7, 74, 0
9, 23380, Note_on_c, 7, 71, 112
9, 23380, Note_on_c, 7, 74, 112
9, 23380, Note_on_c, 7, 79, 112
9, 23380, Note_on_c, 7, 83, 112
9, 23399, Note_on_c, 7, 83, 0
9, 23399, Note_on_c, 7, 71, 0
9, 23399, Note_on_c, 7, 74, 0
9, 23399, Note_on_c, 7, 79, 0
9, 23400, Note_on_c, 7, 83, 112
9, 23400, Note_on_c, 7, 79, 112
9, 23400, Note_on_c, 7, 74, 112
9, 23400, Note_on_c, 7, 71, 112
9, 23419, Note_on_c, 7, 71, 0
9, 23419, Note_on_c, 7, 83, 0
9, 23419, Note_on_c, 7, 79, 0
9, 23419, Note_on_c, 7, 74, 0
9, 23420, Note_on_c, 7, 71, 112
9, 23420, Note_on_c, 7, 74, 112
9, 23420, Note_on_c, 7, 79, 112
9, 23420, Note_on_c, 7, 83, 112
9, 23439, Note_on_c, 7, 83, 0
9, 23439, Note_on_c, 7, 71, 0
9, 23439, Note_on_c, 7, 74, 0
9, 23439, Note_on_c, 7, 79, 0
9, 23440, Note_on_c, 7, 83, 112
9, 23440, Note_on_c, 7, 79, 112
9, 23440, Note_on_c, 7, 74, 112
9, 23440, Note_on_c, 7, 71, 112
9, 23459, Note_on_c, 7, 71, 0
9, 23459, Note_on_c, 7, 83, 0
9, 23459, Note_on_c, 7, 79, 0
9, 23459, Note_on_c, 7, 74, 0
9, 23460, Note_on_c, 7, 71, 112
9, 23460, Note_on_c, 7, 74, 112
9, 23460, Note_on_c, 7, 79, 112
9, 23460, Note_on_c, 7, 83, 112
9, 23479, Note_on_c, 7, 83, 0
9, 23479, Note_on_c, 7, 71, 0
9, 23479, Note_on_c, 7, 74, 0
9, 23479, Note_on_c, 7, 79, 0
9, 23480, Note_on_c, 7, 83, 112
9, 23480, Note_on_c, 7, 79, 112
9, 23480, Note_on_c, 7, 74, 112
9, 23480, Note_on_c, 7, 71, 112
9, 23499, Note_on_c, 7, 71, 0
9, 23499, Note_on_c, 7, 83, 0
9, 23499, Note_on_c, 7, 79, 0
9, 23499, Note_on_c, 7, 74, 0
9, 23500, Note_on_c, 7, 71, 112
9, 23500, Note_on_c, 7, 74, 112
9, 23500, Note_on_c, 7, 79, 112
9, 23500, Note_on_c, 7, 83, 112
9, 23519, Note_on_c, 7, 83, 0
9, 23519, Note_on_c, 7, 71, 0
9, 23519, Note_on_c, 7, 74, 0
9, 23519, Note_on_c, 7, 79, 0
9, 23520, Note_on_c, 7, 72, 127
9, 23520, Note_on_c, 7, 76, 127
9, 23520, Note_on_c, 7, 79, 127
9, 23520, Note_on_c, 7, 84, 127
9, 23529, Note_on_c, 7, 84, 0
9, 23529, Note_on_c, 7, 72, 0
9, 23529, Note_on_c, 7, 76, 0
9, 23529, Note_on_c, 7, 79, 0
9, 23530, Note_on_c, 7, 72, 127
9, 23530, Note_on_c, 7, 76, 127
9, 23530, Note_on_c, 7, 79, 127
9, 23530, Note_on_c, 7, 84, 127
9, 23539, Note_on_c, 7, 84, 0
9, 23539, Note_on_c, 7, 72, 0
9, 23539, Note_on_c, 7, 76, 0
9, 23539, Note_on_c, 7, 79, 0
9, 23540, Note_on_c, 7, 72, 127
9, 23540, Note_on_c, 7, 76, 127
9, 23540, Note_on_c, 7, 79, 127
9, 23540, Note_on_c, 7, 84, 127
9, 23549, Note_on_c, 7, 84, 0
9, 23549, Note_on_c, 7, 72, 0
9, 23549, Note_on_c, 7, 76, 0
9, 23549, Note_on_c, 7, 79, 0
9, 23550, Note_on_c, 7, 72, 127
9, 23550, Note_on_c, 7, 76, 127
9, 23550, Note_on_c, 7, 79, 127
9, 23550, Note_on_c, 7, 84, 127
9, 23559, Note_on_c, 7, 84, 0
9, 23559, Note_on_c, 7, 72, 0
9, 23559, Note_on_c, 7, 76, 0
9, 23559, Note_on_c, 7, 79, 0
9, 23560, Note_on_c, 7, 72, 127
9, 23560, Note_on_c, 7, 76, 127
9, 23560, Note_on_c, 7, 79, 127
9, 23560, Note_on_c, 7, 84, 127
9, 23569, Note_on_c, 7, 84, 0
9, 23569, Note_on_c, 7, 72, 0
9, 23569, Note_on_c, 7, 76, 0
9, 23569, Note_on_c, 7, 79, 0
9, 23570, Note_on_c, 7, 72, 127
9, 23570, Note_on_c, 7, 76, 127
9, 23570, Note_on_c, 7, 79, 127
9, 23570, Note_on_c, 7, 84, 127
9, 23579, Note_on_c, 7, 84, 0
9, 23579, Note_on_c, 7, 72, 0
9, 23579, Note_on_c, 7, 76, 0
9, 23579, Note_on_c, 7, 79, 0
9, 23580, Note_on_c, 7, 72, 127
9, 23580, Note_on_c, 7, 76, 127
9, 23580, Note_on_c, 7, 79, 127
9, 23580, Note_on_c, 7, 84, 127
9, 23589, Note_on_c, 7, 84, 0
9, 23589, Note_on_c, 7, 72, 0
9, 23589, Note_on_c, 7, 76, 0
9, 23589, Note_on_c, 7, 79, 0
9, 23590, Note_on_c, 7, 72, 127
9, 23590, Note_on_c, 7, 76, 127
9, 23590, Note_on_c, 7, 79, 127
9, 23590, Note_on_c, 7, 84, 127
9, 23599, Note_on_c, 7, 84, 0
9, 23599, Note_on_c, 7, 72, 0
9, 23599, Note_on_c, 7, 76, 0
9, 23599, Note_on_c, 7, 79, 0
9, 23600, Note_on_c, 7, 72, 127
9, 23600, Note_on_c, 7, 76, 127
9, 23600, Note_on_c, 7, 79, 127
9, 23600, Note_on_c, 7, 84, 127
9, 23609, Note_on_c, 7, 84, 0
9, 23609, Note_on_c, 7, 72, 0
9, 23609, Note_on_c, 7, 76, 0
9, 23609, Note_on_c, 7, 79, 0
9, 23610, Note_on_c, 7, 72, 127
9, 23610, Note_on_c, 7, 76, 127
9, 23610, Note_on_c, 7, 79, 127
9, 23610, Note_on_c, 7, 84, 127
9, 23619, Note_on_c, 7, 84, 0
9, 23619, Note_on_c, 7, 72, 0
9, 23619, Note_on_c, 7, 76, 0
9, 23619, Note_on_c, 7, 79, 0
9, 23620, Note_on_c, 7, 72, 127
9, 23620, Note_on_c, 7, 76, 127
9, 23620, Note_on_c, 7, 79, 127
9, 23620, Note_on_c, 7, 84, 127
9, 23629, Note_on_c, 7, 84, 0
9, 23629, Note_on_c, 7, 72, 0
9, 23629, Note_on_c, 7, 76, 0
9, 23629, Note_on_c, 7, 79, 0
9, 23630, Note_on_c, 7, 72, 127
9, 23630, Note_on_c, 7, 76, 127
9, 23630, Note_on_c, 7, 79, 127
9, 23630, Note_on_c, 7, 84, 127
9, 23639, Note_on_c, 7, 84, 0
9, 23639, Note_on_c, 7, 72, 0
9, 23639, Note_on_c, 7, 76, 0
9, 23639, Note_on_c, 7, 79, 0
9, 23640, Note_on_c, 7, 72, 127
9, 23640, Note_on_c, 7, 76, 127
9, 23640, Note_on_c, 7, 79, 127
9, 23640, Note_on_c, 7, 84, 127
9, 23669, Note_on_c, 7, 84, 0
9, 23669, Note_on_c, 7, 72, 0
9, 23669, Note_on_c, 7, 76, 0
9, 23669, Note_on_c, 7, 79, 0
9, 23700, Note_on_c, 7, 67, 127
9, 23729, Note_on_c, 7, 67, 0
9, 23760, Note_on_c, 7, 72, 127
9, 23760, Note_on_c, 7, 76, 127
9, 23760, Note_on_c, 7, 79, 127
9, 23760, Note_on_c, 7, 84, 127
9, 23769, Note_on_c, 7, 84, 0
9, 23769, Note_on_c, 7, 72, 0
9, 23769, Note_on_c, 7, 76, 0
9, 23769, Note_on_c, 7, 79, 0
9, 23770, Note_on_c, 7, 72, 127
9, 23770, Note_on_c, 7, 76, 127
9, 23770, Note_on_c, 7, 79, 127
9, 23770, Note_on_c, 7, 84, 127
9, 23779, Note_on_c, 7, 84, 0
9, 23779, Note_on_c, 7, 72, 0
9, 23779, Note_on_c, 7, 76, 0
9, 23779, Note_on_c, 7, 79, 0
9, 23780, Note_on_c, 7, 72, 127
9, 23780, Note_on_c, 7, 76, 127
9, 23780, Note_on_c, 7, 79, 127
9, 23780, Note_on_c, 7, 84, 127
9, 23789, Note_on_c, 7, 84, 0
9, 23789, Note_on_c, 7, 72, 0
9, 23789, Note_on_c, 7, 76, 0
9, 23789, Note_on_c, 7, 79, 0
9, 23790, Note_on_c, 7, 72, 127
9, 23790, Note_on_c, 7, 76, 127
9, 23790, Note_on_c, 7, 79, 127
9, 23790, Note_on_c, 7, 84, 127
9, 23799, Note_on_c, 7, 84, 0
9, 23799, Note_on_c, 7, 72, 0
9, 23799, Note_on_c, 7, 76, 0
9, 23799, Note_on_c, 7, 79, 0
9, 23800, Note_on_c, 7, 72, 127
9, 23800, Note_on_c, 7, 76, 127
9, 23800, Note_on_c, 7, 79, 127
9, 23800, Note_on_c, 7, 84, 127
9, 23809, Note_on_c, 7, 84, 0
9, 23809, Note_on_c, 7, 72, 0
9, 23809, Note_on_c, 7, 76, 0
9, 23809, Note_on_c, 7, 79, 0
9, 23810, Note_on_c, 7, 72, 127
9, 23810, Note_on_c, 7, 76, 127
9, 23810, Note_on_c, 7, 79, 127
9, 23810, Note_on_c, 7, 84, 127
9, 23819, Note_on_c, 7, 84, 0
9, 23819, Note_on_c, 7, 72, 0
9, 23819, Note_on_c, 7, 76, 0
9, 23819, Note_on_c, 7, 79, 0
9, 23820, Note_on_c, 7, 72, 127
9, 23820, Note_on_c, 7, 76, 127
9, 23820, Note_on_c, 7, 79, 127
9, 23820, Note_on_c, 7, 84, 127
9, 23829, Note_on_c, 7, 84, 0
9, 23829, Note_on_c, 7, 72, 0
9, 23829, Note_on_c, 7, 76, 0
9, 23829, Note_on_c, 7, 79, 0
9, 23830, Note_on_c, 7, 72, 127
9, 23830, Note_on_c, 7, 76, 127
9, 23830, Note_on_c, 7, 79, 127
9, 23830, Note_on_c, 7, 84, 127
9, 23839, Note_on_c, 7, 84, 0
9, 23839, Note_on_c, 7, 72, 0
9, 23839, Note_on_c, 7, 76, 0
9, 23839, Note_on_c, 7, 79, 0
9, 23840, Note_on_c, 7, 72, 127
9, 23840, Note_on_c, 7, 76, 127
9, 23840, Note_on_c, 7, 79, 127
9, 23840, Note_on_c, 7, 84, 127
9, 23849, Note_on_c, 7, 84, 0
9, 23849, Note_on_c, 7, 72, 0
9, 23849, Note_on_c, 7, 76, 0
9, 23849, Note_on_c, 7, 79, 0
9, 23850, Note_on_c, 7, 72, 127
9, 23850, Note_on_c, 7, 76, 127
9, 23850, Note_on_c, 7, 79, 127
9, 23850, Note_on_c, 7, 84, 127
9, 23859, Note_on_c, 7, 84, 0
9, 23859, Note_on_c, 7, 72, 0
9, 23859, Note_on_c, 7, 76, 0
9, 23859, Note_on_c, 7, 79, 0
9, 23860, Note_on_c, 7, 72, 127
9, 23860, Note_on_c, 7, 76, 127
9, 23860, Note_on_c, 7, 79, 127
9, 23860, Note_on_c, 7, 84, 127
9, 23869, Note_on_c, 7, 84, 0
9, 23869, Note_on_c, 7, 72, 0
9, 23869, Note_on_c, 7, 76, 0
9, 23869, Note_on_c, 7, 79, 0
9, 23870, Note_on_c, 7, 72, 127
9, 23870, Note_on_c, 7, 76, 127
9, 23870, Note_on_c, 7, 79, 127
9, 23870, Note_on_c, 7, 84, 127
9, 23879, Note_on_c, 7, 84, 0
9, 23879, Note_on_c, 7, 72, 0
9, 23879, Note_on_c, 7, 76, 0
9, 23879, Note_on_c, 7, 79, 0
9, 23880, Note_on_c, 7, 72, 127
9, 23880, Note_on_c, 7, 76, 127
9, 23880, Note_on_c, 7, 79, 127
9, 23880, Note_on_c, 7, 84, 127
9, 23909, Note_on_c, 7, 84, 0
9, 23909, Note_on_c, 7, 72, 0
9, 23909, Note_on_c, 7, 76, 0
9, 23909, Note_on_c, 7, 79, 0
9, 23940, Note_on_c, 7, 67, 127
9, 23969, Note_on_c, 7, 67, 0
9, 24000, Note_on_c, 7, 60, 127
9, 24000, Note_on_c, 7, 64, 127
9, 24000, Note_on_c, 7, 67, 127
9, 24000, Note_on_c, 7, 72, 127
9, 24000, Note_on_c, 7, 76, 127
9, 24000, Note_on_c, 7, 79, 127
9, 24000, Note_on_c, 7, 84, 127
9, 24029, Note_on_c, 7, 84, 0
9, 24029, Note_on_c, 7, 76, 0
9, 24029, Note_on_c, 7, 64, 0
9, 24029, Note_on_c, 7, 67, 0
9, 24029, Note_on_c, 7, 60, 0
9, 24029, Note_on_c, 7, 79, 0
9, 24029, Note_on_c, 7, 72, 0
9, 24060, Note_on_c, 7, 67, 127
9, 24089, Note_on_c, 7, 67, 0
9, 24120, Note_on_c, 7, 60, 127
9, 24120, Note_on_c, 7, 64, 127
9, 24120, Note_on_c, 7, 67, 127
9, 24120, Note_on_c, 7, 72, 127
9, 24120, Note_on_c, 7, 76, 127
9, 24120, Note_on_c, 7, 79, 127
9, 24120, Note_on_c, 7, 84, 127
9, 24149, Note_on_c, 7, 84, 0
9, 24149, Note_on_c, 7, 76, 0
9, 24149, Note_on_c, 7, 64, 0
9, 24149, Note_on_c, 7, 67, 0
9, 24149, Note_on_c, 7, 60, 0
9, 24149, Note_on_c, 7, 79, 0
9, 24149, Note_on_c, 7, 72, 0
9, 24180, Note_on_c, 7, 67, 127
9, 24209, Note_on_c, 7, 67, 0
9, 24240, Note_on_c, 7, 84, 96
9, 24240, Note_on_c, 7, 72, 96
9, 24269, Note_on_c, 7, 72, 0
9, 24269, Note_on_c, 7, 84, 0
9, 24270, Note_on_c, 7, 84, 48
9, 24270, Note_on_c, 7, 72, 48
9, 24480, Note_on_c, 7, 68, 48
9, 24480, Note_on_c, 7, 80, 48
9, 24489, Note_on_c, 7, 72, 0
9, 24489, Note_on_c, 7, 84, 0
9, 24660, Note_on_c, 7, 77, 48
9, 24660, Note_on_c, 7, 65, 48
9, 24669, Note_on_c, 7, 68, 0
9, 24669, Note_on_c, 7, 80, 0
9, 24719, Note_on_c, 7, 77, 0
9, 24719, Note_on_c, 7, 65, 0
9, 24720, Note_on_c, 7, 73, 48
9, 24720, Note_on_c, 7, 61, 48
9, 24780, Note_on_c, 7, 56, 48
9, 24780, Note_on_c, 7, 68, 48
9, 24789, Note_on_c, 7, 61, 0
9, 24789, Note_on_c, 7, 73, 0
9, 24825, Note_on_c, 7, 65, 48
9, 24826, Note_on_c, 7, 56, 0
9, 24826, Note_on_c, 7, 68, 0
9, 24839, Note_on_c, 7, 65, 0
9, 24840, Note_on_c, 7, 61, 48
9, 24869, Note_on_c, 7, 61, 0
9, 24900, Note_on_c, 7, 60, 48
9, 24929, Note_on_c, 7, 60, 0
9, 24960, Note_on_c, 7, 59, 48
9, 25019, Note_on_c, 7, 59, 0
9, 25140, Note_on_c, 7, 55, 48
9, 25179, Note_on_c, 7, 55, 0
9, 25185, Note_on_c, 7, 55, 48
9, 25194, Note_on_c, 7, 55, 0
9, 25200, Note_on_c, 7, 55, 48
9, 25319, Note_on_c, 7, 55, 0
9, 25320, Note_on_c, 7, 62, 48
9, 25330, Note_on_c, 7, 60, 48
9, 25331, Note_on_c, 7, 62, 0
9, 25365, Note_on_c, 7, 59, 48
9, 25371, Note_on_c, 7, 60, 0
9, 25380, Note_on_c, 7, 60, 48
9, 25381, Note_on_c, 7, 59, 0
9, 25425, Note_on_c, 7, 62, 48
9, 25426, Note_on_c, 7, 60, 0
9, 25439, Note_on_c, 7, 62, 0
9, 25440, Note_on_c, 7, 55, 48
9, 25440, Note_on_c, 7, 63, 48
9, 25559, Note_on_c, 7, 55, 0
9, 25560, Note_on_c, 7, 60, 48
9, 25569, Note_on_c, 7, 63, 0
9, 25619, Note_on_c, 7, 60, 0
9, 25680, Note_on_c, 7, 55, 48
9, 25680, Note_on_c, 7, 67, 48
9, 25789, Note_on_c, 7, 55, 0
9, 25799, Note_on_c, 7, 67, 0
9, 25800, Note_on_c, 7, 65, 48
9, 25800, Note_on_c, 7, 55, 48
9, 25815, Note_on_c, 7, 63, 48
9, 25819, Note_on_c, 7, 65, 0
9, 25859, Note_on_c, 7, 63, 0
9, 25860, Note_on_c, 7, 62, 48
9, 25875, Note_on_c, 7, 60, 48
9, 25879, Note_on_c, 7, 62, 0
9, 25909, Note_on_c, 7, 55, 0
9, 25919, Note_on_c, 7, 60, 0
9, 25920, Note_on_c, 7, 55, 48
9, 25920, Note_on_c, 7, 63, 48
9, 25980, Note_on_c, 7, 66, 48
9, 25989, Note_on_c, 7, 55, 0
9, 26040, Note_on_c, 7, 67, 48
9, 26040, Note_on_c, 7, 62, 48
9, 26049, Note_on_c, 7, 66, 0
9, 26049, Note_on_c, 7, 63, 0
9, 26099, Note_on_c, 7, 67, 0
9, 26099, Note_on_c, 7, 62, 0
9, 26160, Note_on_c, 7, 59, 48
9, 26160, Note_on_c, 7, 62, 48
9, 26274, Note_on_c, 7, 62, 0
9, 26279, Note_on_c, 7, 59, 0
9, 26280, Note_on_c, 7, 62, 48
9, 26325, Note_on_c, 7, 63, 48
9, 26326, Note_on_c, 7, 62, 0
9, 26340, Note_on_c, 7, 65, 48
9, 26341, Note_on_c, 7, 63, 0
9, 26385, Note_on_c, 7, 67, 48
9, 26386, Note_on_c, 7, 65, 0
9, 26399, Note_on_c, 7, 67, 0
9, 26400, Note_on_c, 7, 65, 48
9, 26400, Note_on_c, 7, 68, 48
9, 26459, Note_on_c, 7, 65, 0
9, 26639, Note_on_c, 7, 68, 0
9, 26640, Note_on_c, 7, 67, 48
9, 26640, Note_on_c, 7, 64, 48
9, 26759, Note_on_c, 7, 64, 0
9, 26759, Note_on_c, 7, 67, 0
9, 26760, Note_on_c, 7, 67, 48
9, 26805, Note_on_c, 7, 68, 48
9, 26806, Note_on_c, 7, 67, 0
9, 26820, Note_on_c, 7, 70, 48
9, 26821, Note_on_c, 7, 68, 0
9, 26865, Note_on_c, 7, 72, 48
9, 26866, Note_on_c, 7, 70, 0
9, 26879, Note_on_c, 7, 72, 0
9, 26880, Note_on_c, 7, 67, 64
9, 26880, Note_on_c, 7, 73, 64
9, 27060, Note_on_c, 7, 72, 56
9, 27060, Note_on_c, 7, 60, 56
9, 27069, Note_on_c, 7, 73, 0
9, 27069, Note_on_c, 7, 67, 0
9, 27090, Note_on_c, 7, 70, 52
9, 27099, Note_on_c, 7, 72, 0
9, 27119, Note_on_c, 7, 70, 0
9, 27119, Note_on_c, 7, 60, 0
9, 27120, Note_on_c, 7, 60, 48
9, 27120, Note_on_c, 7, 70, 48
9, 27150, Note_on_c, 7, 68, 48
9, 27159, Note_on_c, 7, 70, 0
9, 27179, Note_on_c, 7, 68, 0
9, 27179, Note_on_c, 7, 60, 0
9, 27180, Note_on_c, 7, 61, 48
9, 27180, Note_on_c, 7, 70, 48
9, 27199, Note_on_c, 7, 70, 0
9, 27199, Note_on_c, 7, 61, 0
9, 27210, Note_on_c, 7, 58, 48
9, 27210, Note_on_c, 7, 67, 48
9, 27229, Note_on_c, 7, 67, 0
9, 27229, Note_on_c, 7, 58, 0
9, 27240, Note_on_c, 7, 56, 48
9, 27240, Note_on_c, 7, 65, 48
9, 27300, Note_on_c, 7, 58, 48
9, 27300, Note_on_c, 7, 67, 48
9, 27309, Note_on_c, 7, 65, 0
9, 27309, Note_on_c, 7, 56, 0
9, 27345, Note_on_c, 7, 55, 48
9, 27345, Note_on_c, 7, 64, 48
9, 27346, Note_on_c, 7, 58, 0
9, 27346, Note_on_c, 7, 67, 0
9, 27359, Note_on_c, 7, 55, 0
9, 27359, Note_on_c, 7, 64, 0
9, 27360, Note_on_c, 7, 56, 96
9, 27360, Note_on_c, 7, 65, 96
9, 27419, Note_on_c, 7, 56, 0
9, 27480, Note_on_c, 7, 67, 96
9, 27540, Note_on_c, 7, 68, 96
9, 27549, Note_on_c, 7, 67, 0
9, 27599, Note_on_c, 7, 68, 0
9, 27599, Note_on_c, 7, 65, 0
9, 27600, Note_on_c, 7, 70, 112
9, 27779, Note_on_c, 7, 70, 0
9, 27780, Note_on_c, 7, 68, 96
9, 27789, Note_on_c, 7, 68, 0
9, 27790, Note_on_c, 7, 70, 96
9, 27799, Note_on_c, 7, 70, 0
9, 27800, Note_on_c, 7, 68, 96
9, 27809, Note_on_c, 7, 68, 0
9, 27810, Note_on_c, 7, 70, 96
9, 27817, Note_on_c, 7, 70, 0
9, 27818, Note_on_c, 7, 68, 96
9, 27825, Note_on_c, 7, 68, 0
9, 27826, Note_on_c, 7, 67, 96
9, 27832, Note_on_c, 7, 68, 96
9, 27833, Note_on_c, 7, 67, 0
9, 27839, Note_on_c, 7, 68, 0
9, 27840, Note_on_c, 7, 67, 96
9, 27900, Note_on_c, 7, 73, 96
9, 27909, Note_on_c, 7, 67, 0
9, 27960, Note_on_c, 7, 72, 112
9, 27969, Note_on_c, 7, 73, 0
9, 28020, Note_on_c, 7, 70, 96
9, 28029, Note_on_c, 7, 72, 0
9, 28079, Note_on_c, 7, 70, 0
9, 28080, Note_on_c, 7, 72, 96
9, 28080, Note_on_c, 7, 68, 96
9, 28110, Note_on_c, 7, 70, 96
9, 28119, Note_on_c, 7, 68, 0
9, 28139, Note_on_c, 7, 70, 0
9, 28140, Note_on_c, 7, 68, 96
9, 28154, Note_on_c, 7, 68, 0
9, 28170, Note_on_c, 7, 67, 96
9, 28184, Note_on_c, 7, 67, 0
9, 28200, Note_on_c, 7, 74, 96
9, 28200, Note_on_c, 7, 65, 96
9, 28209, Note_on_c, 7, 72, 0
9, 28214, Note_on_c, 7, 65, 0
9, 28230, Note_on_c, 7, 63, 96
9, 28244, Note_on_c, 7, 63, 0
9, 28260, Note_on_c, 7, 75, 96
9, 28260, Note_on_c, 7, 62, 96
9, 28269, Note_on_c, 7, 74, 0
9, 28274, Note_on_c, 7, 62, 0
9, 28290, Note_on_c, 7, 60, 96
9, 28304, Note_on_c, 7, 60, 0
9, 28319, Note_on_c, 7, 75, 0
9, 28320, Note_on_c, 7, 77, 112
9, 28320, Note_on_c, 7, 59, 96
9, 28334, Note_on_c, 7, 59, 0
9, 28350, Note_on_c, 7, 60, 96
9, 28364, Note_on_c, 7, 60, 0
9, 28380, Note_on_c, 7, 62, 96
9, 28394, Note_on_c, 7, 62, 0
9, 28410, Note_on_c, 7, 60, 96
9, 28424, Note_on_c, 7, 60, 0
9, 28440, Note_on_c, 7, 59, 96
9, 28454, Note_on_c, 7, 59, 0
9, 28470, Note_on_c, 7, 55, 96
9, 28484, Note_on_c, 7, 55, 0
9, 28499, Note_on_c, 7, 77, 0
9, 28500, Note_on_c, 7, 75, 96
9, 28500, Note_on_c, 7, 60, 96
9, 28509, Note_on_c, 7, 75, 0
9, 28510, Note_on_c, 7, 77, 96
9, 28514, Note_on_c, 7, 60, 0
9, 28519, Note_on_c, 7, 77, 0
9, 28520, Note_on_c, 7, 75, 96
9, 28529, Note_on_c, 7, 75, 0
9, 28530, Note_on_c, 7, 77, 96
9, 28530, Note_on_c, 7, 55, 96
9, 28537, Note_on_c, 7, 77, 0
9, 28538, Note_on_c, 7, 75, 96
9, 28544, Note_on_c, 7, 55, 0
9, 28545, Note_on_c, 7, 75, 0
9, 28546, Note_on_c, 7, 74, 96
9, 28552, Note_on_c, 7, 75, 96
9, 28553, Note_on_c, 7, 74, 0
9, 28559, Note_on_c, 7, 75, 0
9, 28560, Note_on_c, 7, 74, 96
9, 28560, Note_on_c, 7, 65, 96
9, 28574, Note_on_c, 7, 65, 0
9, 28590, Note_on_c, 7, 55, 96
9, 28604, Note_on_c, 7, 55, 0
9, 28620, Note_on_c, 7, 80, 96
9, 28620, Note_on_c, 7, 65, 96
9, 28629, Note_on_c, 7, 74, 0
9, 28634, Note_on_c, 7, 65, 0
9, 28650, Note_on_c, 7, 55, 96
9, 28664, Note_on_c, 7, 55, 0
9, 28680, Note_on_c, 7, 79, 112
9, 28680, Note_on_c, 7, 63, 96
9, 28689, Note_on_c, 7, 80, 0
9, 28694, Note_on_c, 7, 63, 0
9, 28710, Note_on_c, 7, 55, 96
9, 28724, Note_on_c, 7, 55, 0
9, 28740, Note_on_c, 7, 77, 96
9, 28740, Note_on_c, 7, 62, 96
9, 28749, Note_on_c, 7, 79, 0
9, 28754, Note_on_c, 7, 62, 0
9, 28770, Note_on_c, 7, 55, 96
9, 28784, Note_on_c, 7, 55, 0
9, 28799, Note_on_c, 7, 77, 0
9, 28800, Note_on_c, 7, 76, 96
9, 28800, Note_on_c, 7, 60, 96
9, 28814, Note_on_c, 7, 60, 0
9, 28830, Note_on_c, 7, 72, 96
9, 28844, Note_on_c, 7, 72, 0
9, 28860, Note_on_c, 7, 85, 96
9, 28860, Note_on_c, 7, 70, 96
9, 28869, Note_on_c, 7, 76, 0
9, 28874, Note_on_c, 7, 70, 0
9, 28890, Note_on_c, 7, 72, 96
9, 28904, Note_on_c, 7, 72, 0
9, 28920, Note_on_c, 7, 84, 112
9, 28920, Note_on_c, 7, 68, 96
9, 28929, Note_on_c, 7, 85, 0
9, 28934, Note_on_c, 7, 68, 0
9, 28950, Note_on_c, 7, 72, 96
9, 28964, Note_on_c, 7, 72, 0
9, 28980, Note_on_c, 7, 82, 96
9, 28980, Note_on_c, 7, 67, 96
9, 28989, Note_on_c, 7, 84, 0
9, 28994, Note_on_c, 7, 67, 0
9, 29010, Note_on_c, 7, 72, 96
9, 29024, Note_on_c, 7, 72, 0
9, 29039, Note_on_c, 7, 82, 0
9, 29040, Note_on_c, 7, 80, 96
9, 29040, Note_on_c, 7, 65, 96
9, 29054, Note_on_c, 7, 80, 0
9, 29070, Note_on_c, 7, 72, 96
9, 29084, Note_on_c, 7, 72, 0
9, 29099, Note_on_c, 7, 65, 0
9, 29100, Note_on_c, 7, 73, 96
9, 29114, Note_on_c, 7, 73, 0
9, 29130, Note_on_c, 7, 72, 96
9, 29144, Note_on_c, 7, 72, 0
9, 29160, Note_on_c, 7, 70, 96
9, 29174, Note_on_c, 7, 70, 0
9, 29190, Note_on_c, 7, 68, 96
9, 29204, Note_on_c, 7, 68, 0
9, 29220, Note_on_c, 7, 67, 96
9, 29234, Note_on_c, 7, 67, 0
9, 29250, Note_on_c, 7, 65, 96
9, 29264, Note_on_c, 7, 65, 0
9, 29280, Note_on_c, 7, 64, 96
9, 29294, Note_on_c, 7, 64, 0
9, 29310, Note_on_c, 7, 65, 96
9, 29324, Note_on_c, 7, 65, 0
9, 29340, Note_on_c, 7, 67, 96
9, 29354, Note_on_c, 7, 67, 0
9, 29370, Note_on_c, 7, 65, 96
9, 29384, Note_on_c, 7, 65, 0
9, 29400, Note_on_c, 7, 64, 96
9, 29414, Note_on_c, 7, 64, 0
9, 29430, Note_on_c, 7, 60, 96
9, 29444, Note_on_c, 7, 60, 0
9, 29460, Note_on_c, 7, 65, 96
9, 29474, Note_on_c, 7, 65, 0
9, 29490, Note_on_c, 7, 60, 96
9, 29504, Note_on_c, 7, 60, 0
9, 29520, Note_on_c, 7, 70, 96
9, 29534, Note_on_c, 7, 70, 0
9, 29550, Note_on_c, 7, 60, 96
9, 29564, Note_on_c, 7, 60, 0
9, 29580, Note_on_c, 7, 70, 96
9, 29594, Note_on_c, 7, 70, 0
9, 29610, Note_on_c, 7, 60, 96
9, 29624, Note_on_c, 7, 60, 0
9, 29640, Note_on_c, 7, 68, 96
9, 29670, Note_on_c, 7, 60, 96
9, 29684, Note_on_c, 7, 60, 0
9, 29699, Note_on_c, 7, 68, 0
9, 29700, Note_on_c, 7, 67, 96
9, 29714, Note_on_c, 7, 67, 0
9, 29730, Note_on_c, 7, 60, 96
9, 29744, Note_on_c, 7, 60, 0
9, 29760, Note_on_c, 7, 65, 96
9, 29819, Note_on_c, 7, 65, 0
9, 29820, Note_on_c, 7, 60, 112
9, 29820, Note_on_c, 7, 77, 96
9, 29850, Note_on_c, 7, 79, 96
9, 29859, Note_on_c, 7, 77, 0
9, 29879, Note_on_c, 7, 79, 0
9, 29880, Note_on_c, 7, 80, 112
9, 29940, Note_on_c, 7, 62, 96
9, 29949, Note_on_c, 7, 60, 0
9, 29970, Note_on_c, 7, 63, 96
9, 29979, Note_on_c, 7, 62, 0
9, 29999, Note_on_c, 7, 63, 0
9, 30000, Note_on_c, 7, 65, 96
9, 30059, Note_on_c, 7, 65, 0
9, 30059, Note_on_c, 7, 80, 0
9, 30060, Note_on_c, 7, 74, 96
9, 30060, Note_on_c, 7, 79, 96
9, 30089, Note_on_c, 7, 74, 0
9, 30120, Note_on_c, 7, 67, 96
9, 30149, Note_on_c, 7, 67, 0
9, 30174, Note_on_c, 7, 79, 0
9, 30180, Note_on_c, 7, 79, 96
9, 30180, Note_on_c, 7, 77, 96
9, 30209, Note_on_c, 7, 79, 0
9, 30240, Note_on_c, 7, 72, 112
9, 30299, Note_on_c, 7, 77, 0
9, 30300, Note_on_c, 7, 76, 96
9, 30360, Note_on_c, 7, 77, 96
9, 30369, Note_on_c, 7, 76, 0
9, 30420, Note_on_c, 7, 79, 96
9, 30429, Note_on_c, 7, 77, 0
9, 30479, Note_on_c, 7, 79, 0
9, 30479, Note_on_c, 7, 72, 0
9, 30480, Note_on_c, 7, 68, 112
9, 30480, Note_on_c, 7, 80, 112
9, 30659, Note_on_c, 7, 80, 0
9, 30660, Note_on_c, 7, 79, 96
9, 30719, Note_on_c, 7, 79, 0
9, 30719, Note_on_c, 7, 68, 0
9, 30720, Note_on_c, 7, 71, 112
9, 30720, Note_on_c, 7, 77, 96
9, 30774, Note_on_c, 7, 77, 0
9, 30780, Note_on_c, 7, 77, 96
9, 30840, Note_on_c, 7, 79, 96
9, 30849, Note_on_c, 7, 77, 0
9, 30899, Note_on_c, 7, 71, 0
9, 30900, Note_on_c, 7, 71, 96
9, 30900, Note_on_c, 7, 80, 96
9, 30909, Note_on_c, 7, 71, 0
9, 30909, Note_on_c, 7, 79, 0
9, 30910, Note_on_c, 7, 72, 96
9, 30919, Note_on_c, 7, 72, 0
9, 30920, Note_on_c, 7, 71, 96
9, 30929, Note_on_c, 7, 71, 0
9, 30930, Note_on_c, 7, 72, 96
9, 30937, Note_on_c, 7, 72, 0
9, 30938, Note_on_c, 7, 71, 96
9, 30945, Note_on_c, 7, 71, 0
9, 30946, Note_on_c, 7, 69, 96
9, 30952, Note_on_c, 7, 71, 96
9, 30953, Note_on_c, 7, 69, 0
9, 30959, Note_on_c, 7, 71, 0
9, 30959, Note_on_c, 7, 80, 0
9, 30960, Note_on_c, 7, 72, 96
9, 30960, Note_on_c, 7, 79, 96
9, 30974, Note_on_c, 7, 79, 0
9, 30974, Note_on_c, 7, 72, 0
9, 30990, Note_on_c, 7, 67, 96
9, 30990, Note_on_c, 7, 82, 96
9, 31004, Note_on_c, 7, 82, 0
9, 31004, Note_on_c, 7, 67, 0
9, 31020, Note_on_c, 7, 64, 96
9, 31020, Note_on_c, 7, 79, 96
9, 31034, Note_on_c, 7, 79, 0
9, 31034, Note_on_c, 7, 64, 0
9, 31050, Note_on_c, 7, 65, 96
9, 31050, Note_on_c, 7, 80, 96
9, 31064, Note_on_c, 7, 80, 0
9, 31064, Note_on_c, 7, 65, 0
9, 31080, Note_on_c, 7, 67, 96
9, 31080, Note_on_c, 7, 82, 96
9, 31094, Note_on_c, 7, 82, 0
9, 31094, Note_on_c, 7, 67, 0
9, 31110, Note_on_c, 7, 76, 96
9, 31110, Note_on_c, 7, 84, 96
9, 31124, Note_on_c, 7, 84, 0
9, 31124, Note_on_c, 7, 76, 0
9, 31140, Note_on_c, 7, 77, 96
9, 31140, Note_on_c, 7, 86, 96
9, 31154, Note_on_c, 7, 86, 0
9, 31154, Note_on_c, 7, 77, 0
9, 31170, Note_on_c, 7, 79, 96
9, 31170, Note_on_c, 7, 88, 96
9, 31184, Note_on_c, 7, 88, 0
9, 31184, Note_on_c, 7, 79, 0
9, 31200, Note_on_c, 7, 72, 127
9, 31200, Note_on_c, 7, 89, 127
9, 31259, Note_on_c, 7, 72, 0
9, 31320, Note_on_c, 7, 77, 127
9, 31439, Note_on_c, 7, 77, 0
9, 31439, Note_on_c, 7, 89, 0
9, 31440, Note_on_c, 7, 85, 127
9, 31440, Note_on_c, 7, 73, 127
9, 31679, Note_on_c, 7, 73, 0
9, 31679, Note_on_c, 7, 85, 0
9, 31680, Note_on_c, 7, 88, 127
9, 31680, Note_on_c, 7, 76, 127
9, 31859, Note_on_c, 7, 76, 0
9, 31859, Note_on_c, 7, 88, 0
9, 31860, Note_on_c, 7, 76, 127
9, 31860, Note_on_c, 7, 88, 127
9, 31869, Note_on_c, 7, 88, 0
9, 31869, Note_on_c, 7, 76, 0
9, 31870, Note_on_c, 7, 77, 127
9, 31870, Note_on_c, 7, 89, 127
9, 31879, Note_on_c, 7, 89, 0
9, 31879, Note_on_c, 7, 77, 0
9, 31880, Note_on_c, 7, 88, 127
9, 31880, Note_on_c, 7, 76, 127
9, 31889, Note_on_c, 7, 76, 0
9, 31889, Note_on_c, 7, 88, 0
9, 31890, Note_on_c, 7, 77, 127
9, 31890, Note_on_c, 7, 89, 127
9, 31897, Note_on_c, 7, 89, 0
9, 31897, Note_on_c, 7, 77, 0
9, 31898, Note_on_c, 7, 76, 127
9, 31898, Note_on_c, 7, 88, 127
9, 31905, Note_on_c, 7, 88, 0
9, 31905, Note_on_c, 7, 76, 0
9, 31906, Note_on_c, 7, 74, 127
9, 31906, Note_on_c, 7, 86, 127
9, 31912, Note_on_c, 7, 76, 127
9, 31912, Note_on_c, 7, 88, 127
9, 31913, Note_on_c, 7, 86, 0
9, 31913, Note_on_c, 7, 74, 0
9, 31919, Note_on_c, 7, 76, 0
9, 31919, Note_on_c, 7, 88, 0
9, 31920, Note_on_c, 7, 77, 127
9, 31920, Note_on_c, 7, 89, 127
9, 32039, Note_on_c, 7, 89, 0
9, 32039, Note_on_c, 7, 77, 0
9, 32040, Note_on_c, 7, 77, 127
9, 32100, Note_on_c, 7, 79, 127
9, 32100, Note_on_c, 7, 75, 127
9, 32109, Note_on_c, 7, 77, 0
9, 32130, Note_on_c, 7, 80, 127
9, 32139, Note_on_c, 7, 79, 0
9, 32159, Note_on_c, 7, 80, 0
9, 32159, Note_on_c, 7, 75, 0
9, 32160, Note_on_c, 7, 74, 127
9, 32160, Note_on_c, 7, 82, 127
9, 32189, Note_on_c, 7, 74, 0
9, 32220, Note_on_c, 7, 74, 127
9, 32280, Note_on_c, 7, 75, 127
9, 32289, Note_on_c, 7, 74, 0
9, 32340, Note_on_c, 7, 77, 127
9, 32349, Note_on_c, 7, 75, 0
9, 32400, Note_on_c, 7, 79, 127
9, 32409, Note_on_c, 7, 77, 0
9, 32429, Note_on_c, 7, 79, 0
9, 32430, Note_on_c, 7, 68, 127
9, 32444, Note_on_c, 7, 68, 0
9, 32459, Note_on_c, 7, 82, 0
9, 32460, Note_on_c, 7, 67, 127
9, 32474, Note_on_c, 7, 67, 0
9, 32490, Note_on_c, 7, 65, 127
9, 32504, Note_on_c, 7, 65, 0
9, 32520, Note_on_c, 7, 63, 127
9, 32534, Note_on_c, 7, 63, 0
9, 32550, Note_on_c, 7, 62, 127
9, 32564, Note_on_c, 7, 62, 0
9, 32580, Note_on_c, 7, 60, 127
9, 32594, Note_on_c, 7, 60, 0
9, 32610, Note_on_c, 7, 58, 127
9, 32624, Note_on_c, 7, 58, 0
9, 32640, Note_on_c, 7, 56, 127
9, 32670, Note_on_c, 7, 68, 127
9, 32684, Note_on_c, 7, 68, 0
9, 32699, Note_on_c, 7, 56, 0
9, 32700, Note_on_c, 7, 70, 127
9, 32714, Note_on_c, 7, 70, 0
9, 32730, Note_on_c, 7, 72, 127
9, 32744, Note_on_c, 7, 72, 0
9, 32760, Note_on_c, 7, 74, 127
9, 32774, Note_on_c, 7, 74, 0
9, 32790, Note_on_c, 7, 75, 127
9, 32804, Note_on_c, 7, 75, 0
9, 32820, Note_on_c, 7, 77, 127
9, 32834, Note_on_c, 7, 77, 0
9, 32850, Note_on_c, 7, 79, 127
9, 32864, Note_on_c, 7, 79, 0
9, 32880, Note_on_c, 7, 80, 127
9, 32910, Note_on_c, 7, 70, 127
9, 32924, Note_on_c, 7, 70, 0
9, 32939, Note_on_c, 7, 80, 0
9, 32940, Note_on_c, 7, 68, 127
9, 32954, Note_on_c, 7, 68, 0
9, 32970, Note_on_c, 7, 67, 127
9, 32984, Note_on_c, 7, 67, 0
9, 33000, Note_on_c, 7, 65, 127
9, 33014, Note_on_c, 7, 65, 0
9, 33030, Note_on_c, 7, 63, 127
9, 33044, Note_on_c, 7, 63, 0
9, 33060, Note_on_c, 7, 62, 127
9, 33074, Note_on_c, 7, 62, 0
9, 33090, Note_on_c, 7, 60, 127
9, 33104, Note_on_c, 7, 60, 0
9, 33120, Note_on_c, 7, 58, 127
9, 33150, Note_on_c, 7, 70, 127
9, 33164, Note_on_c, 7, 70, 0
9, 33179, Note_on_c, 7, 58, 0
9, 33180, Note_on_c, 7, 72, 127
9, 33194, Note_on_c, 7, 72, 0
9, 33210, Note_on_c, 7, 74, 127
9, 33224, Note_on_c, 7, 74, 0
9, 33240, Note_on_c, 7, 75, 127
9, 33254, Note_on_c, 7, 75, 0
9, 33270, Note_on_c, 7, 77, 127
9, 33284, Note_on_c, 7, 77, 0
9, 33300, Note_on_c, 7, 79, 127
9, 33314, Note_on_c, 7, 79, 0
9, 33330, Note_on_c, 7, 80, 127
9, 33344, Note_on_c, 7, 80, 0
9, 33360, Note_on_c, 7, 82, 127
9, 33389, Note_on_c, 7, 82, 0
9, 33420, Note_on_c, 7, 79, 127
9, 33420, Note_on_c, 7, 83, 127
9, 33449, Note_on_c, 7, 83, 0
9, 33480, Note_on_c, 7, 84, 127
9, 33509, Note_on_c, 7, 84, 0
9, 33539, Note_on_c, 7, 79, 0
9, 33540, Note_on_c, 7, 77, 127
9, 33540, Note_on_c, 7, 86, 127
9, 33569, Note_on_c, 7, 86, 0
9, 33569, Note_on_c, 7, 77, 0
9, 33600, Note_on_c, 7, 75, 127
9, 33600, Note_on_c, 7, 87, 127
9, 33629, Note_on_c, 7, 87, 0
9, 33629, Note_on_c, 7, 75, 0
9, 33720, Note_on_c, 7, 75, 127
9, 33900, Note_on_c, 7, 72, 127
9, 33909, Note_on_c, 7, 75, 0
9, 33930, Note_on_c, 7, 70, 127
9, 33939, Note_on_c, 7, 72, 0
9, 33959, Note_on_c, 7, 70, 0
9, 33960, Note_on_c, 7, 80, 127
9, 33960, Note_on_c, 7, 68, 127
9, 34019, Note_on_c, 7, 68, 0
9, 34140, Note_on_c, 7, 77, 127
9, 34149, Note_on_c, 7, 80, 0
9, 34170, Note_on_c, 7, 75, 127
9, 34179, Note_on_c, 7, 77, 0
9, 34199, Note_on_c, 7, 75, 0
9, 34200, Note_on_c, 7, 77, 127
9, 34200, Note_on_c, 7, 74, 127
9, 34259, Note_on_c, 7, 74, 0
9, 34379, Note_on_c, 7, 77, 0
9, 34380, Note_on_c, 7, 74, 127
9, 34410, Note_on_c, 7, 72, 127
9, 34419, Note_on_c, 7, 74, 0
9, 34439, Note_on_c, 7, 72, 0
9, 34440, Note_on_c, 7, 79, 127
9, 34440, Note_on_c, 7, 71, 127
9, 34499, Note_on_c, 7, 71, 0
9, 34500, Note_on_c, 7, 71, 127
9, 34560, Note_on_c, 7, 72, 127
9, 34569, Note_on_c, 7, 71, 0
9, 34574, Note_on_c, 7, 72, 0
9, 34589, Note_on_c, 7, 79, 0
9, 34590, Note_on_c, 7, 66, 127
9, 34590, Note_on_c, 7, 78, 127
9, 34604, Note_on_c, 7, 78, 0
9, 34604, Note_on_c, 7, 66, 0
9, 34620, Note_on_c, 7, 67, 127
9, 34620, Note_on_c, 7, 79, 127
9, 34634, Note_on_c, 7, 79, 0
9, 34634, Note_on_c, 7, 67, 0
9, 34650, Note_on_c, 7, 69, 127
9, 34650, Note_on_c, 7, 81, 127
9, 34664, Note_on_c, 7, 81, 0
9, 34664, Note_on_c, 7, 69, 0
9, 34680, Note_on_c, 7, 82, 127
9, 34680, Note_on_c, 7, 70, 127
9, 34694, Note_on_c, 7, 70, 0
9, 34694, Note_on_c, 7, 82, 0
9, 34710, Note_on_c, 7, 71, 127
9, 34710, Note_on_c, 7, 83, 127
9, 34724, Note_on_c, 7, 83, 0
9, 34724, Note_on_c, 7, 71, 0
9, 34740, Note_on_c, 7, 84, 127
9, 34740, Note_on_c, 7, 72, 127
9, 34754, Note_on_c, 7, 72, 0
9, 34754, Note_on_c, 7, 84, 0
9, 34770, Note_on_c, 7, 73, 127
9, 34770, Note_on_c, 7, 85, 127
9, 34784, Note_on_c, 7, 85, 0
9, 34784, Note_on_c, 7, 73, 0
9, 34800, Note_on_c, 7, 74, 127
9, 34800, Note_on_c, 7, 86, 127
9, 34817, Note_on_c, 7, 86, 0
9, 34820, Note_on_c, 7, 86, 127
9, 34837, Note_on_c, 7, 86, 0
9, 34840, Note_on_c, 7, 86, 127
9, 34857, Note_on_c, 7, 86, 0
9, 34860, Note_on_c, 7, 86, 127
9, 34877, Note_on_c, 7, 86, 0
9, 34880, Note_on_c, 7, 86, 127
9, 34897, Note_on_c, 7, 86, 0
9, 34900, Note_on_c, 7, 86, 127
9, 34917, Note_on_c, 7, 86, 0
9, 34920, Note_on_c, 7, 86, 127
9, 34937, Note_on_c, 7, 86, 0
9, 34940, Note_on_c, 7, 86, 127
9, 34957, Note_on_c, 7, 86, 0
9, 34960, Note_on_c, 7, 86, 127
9, 34977, Note_on_c, 7, 86, 0
9, 34979, Note_on_c, 7, 74, 0
9, 34980, Note_on_c, 7, 76, 127
9, 34980, Note_on_c, 7, 86, 127
9, 34997, Note_on_c, 7, 86, 0
9, 35000, Note_on_c, 7, 86, 127
9, 35010, Note_on_c, 7, 77, 127
9, 35017, Note_on_c, 7, 86, 0
9, 35019, Note_on_c, 7, 76, 0
9, 35020, Note_on_c, 7, 86, 127
9, 35037, Note_on_c, 7, 86, 0
9, 35039, Note_on_c, 7, 77, 0
9, 35040, Note_on_c, 7, 79, 127
9, 35040, Note_on_c, 7, 87, 127
9, 35057, Note_on_c, 7, 87, 0
9, 35060, Note_on_c, 7, 87, 127
9, 35077, Note_on_c, 7, 87, 0
9, 35080, Note_on_c, 7, 87, 127
9, 35097, Note_on_c, 7, 87, 0
9, 35100, Note_on_c, 7, 81, 127
9, 35100, Note_on_c, 7, 87, 127
9, 35109, Note_on_c, 7, 79, 0
9, 35117, Note_on_c, 7, 87, 0
9, 35120, Note_on_c, 7, 87, 127
9, 35130, Note_on_c, 7, 82, 127
9, 35137, Note_on_c, 7, 87, 0
9, 35139, Note_on_c, 7, 81, 0
9, 35140, Note_on_c, 7, 87, 127
9, 35157, Note_on_c, 7, 87, 0
9, 35160, Note_on_c, 7, 84, 127
9, 35160, Note_on_c, 7, 87, 127
9, 35169, Note_on_c, 7, 82, 0
9, 35177, Note_on_c, 7, 87, 0
9, 35180, Note_on_c, 7, 87, 127
9, 35197, Note_on_c, 7, 87, 0
9, 35200, Note_on_c, 7, 87, 127
9, 35217, Note_on_c, 7, 87, 0
9, 35220, Note_on_c, 7, 80, 127
9, 35220, Note_on_c, 7, 87, 127
9, 35229, Note_on_c, 7, 84, 0
9, 35237, Note_on_c, 7, 87, 0
9, 35240, Note_on_c, 7, 87, 127
9, 35250, Note_on_c, 7, 79, 127
9, 35257, Note_on_c, 7, 87, 0
9, 35259, Note_on_c, 7, 80, 0
9, 35260, Note_on_c, 7, 87, 127
9, 35277, Note_on_c, 7, 87, 0
9, 35279, Note_on_c, 7, 79, 0
9, 35280, Note_on_c, 7, 78, 127
9, 35280, Note_on_c, 7, 87, 127
9, 35300, Note_on_c, 7, 86, 127
9, 35309, Note_on_c, 7, 87, 0
9, 35317, Note_on_c, 7, 86, 0
9, 35320, Note_on_c, 7, 86, 127
9, 35337, Note_on_c, 7, 86, 0
9, 35340, Note_on_c, 7, 79, 127
9, 35340, Note_on_c, 7, 86, 127
9, 35349, Note_on_c, 7, 78, 0
9, 35357, Note_on_c, 7, 86, 0
9, 35360, Note_on_c, 7, 86, 127
9, 35370, Note_on_c, 7, 81, 127
9, 35377, Note_on_c, 7, 86, 0
9, 35379, Note_on_c, 7, 79, 0
9, 35380, Note_on_c, 7, 86, 127
9, 35397, Note_on_c, 7, 86, 0
9, 35400, Note_on_c, 7, 82, 127
9, 35400, Note_on_c, 7, 86, 127
9, 35409, Note_on_c, 7, 81, 0
9, 35417, Note_on_c, 7, 86, 0
9, 35420, Note_on_c, 7, 86, 127
9, 35437, Note_on_c, 7, 86, 0
9, 35440, Note_on_c, 7, 86, 127
9, 35457, Note_on_c, 7, 86, 0
9, 35460, Note_on_c, 7, 79, 127
9, 35460, Note_on_c, 7, 86, 127
9, 35469, Note_on_c, 7, 82, 0
9, 35477, Note_on_c, 7, 86, 0
9, 35480, Note_on_c, 7, 86, 127
9, 35490, Note_on_c, 7, 77, 127
9, 35497, Note_on_c, 7, 86, 0
9, 35499, Note_on_c, 7, 79, 0
9, 35500, Note_on_c, 7, 86, 127
9, 35517, Note_on_c, 7, 86, 0
9, 35519, Note_on_c, 7, 77, 0
9, 35520, Note_on_c, 7, 76, 127
9, 35520, Note_on_c, 7, 86, 127
9, 35540, Note_on_c, 7, 84, 127
9, 35549, Note_on_c, 7, 86, 0
9, 35557, Note_on_c, 7, 84, 0
9, 35560, Note_on_c, 7, 84, 127
9, 35577, Note_on_c, 7, 84, 0
9, 35580, Note_on_c, 7, 78, 127
9, 35580, Note_on_c, 7, 84, 127
9, 35589, Note_on_c, 7, 76, 0
9, 35597, Note_on_c, 7, 84, 0
9, 35600, Note_on_c, 7, 84, 127
9, 35610, Note_on_c, 7, 79, 127
9, 35617, Note_on_c, 7, 84, 0
9, 35619, Note_on_c, 7, 78, 0
9, 35620, Note_on_c, 7, 84, 127
9, 35637, Note_on_c, 7, 84, 0
9, 35640, Note_on_c, 7, 81, 127
9, 35640, Note_on_c, 7, 84, 127
9, 35649, Note_on_c, 7, 79, 0
9, 35657, Note_on_c, 7, 84, 0
9, 35660, Note_on_c, 7, 84, 127
9, 35677, Note_on_c, 7, 84, 0
9, 35680, Note_on_c, 7, 84, 127
9, 35697, Note_on_c, 7, 84, 0
9, 35700, Note_on_c, 7, 78, 127
9, 35700, Note_on_c, 7, 84, 127
9, 35709, Note_on_c, 7, 81, 0
9, 35717, Note_on_c, 7, 84, 0
9, 35720, Note_on_c, 7, 84, 127
9, 35730, Note_on_c, 7, 75, 127
9, 35737, Note_on_c, 7, 84, 0
9, 35739, Note_on_c, 7, 78, 0
9, 35740, Note_on_c, 7, 84, 127
9, 35757, Note_on_c, 7, 84, 0
9, 35759, Note_on_c, 7, 75, 0
9, 35760, Note_on_c, 7, 74, 127
9, 35760, Note_on_c, 7, 84, 127
9, 35777, Note_on_c, 7, 84, 0
9, 35777, Note_on_c, 7, 74, 0
9, 35780, Note_on_c, 7, 81, 127
9, 35780, Note_on_c, 7, 84, 127
9, 35797, Note_on_c, 7, 84, 0
9, 35797, Note_on_c, 7, 81, 0
9, 35800, Note_on_c, 7, 81, 127
9, 35800, Note_on_c, 7, 84, 127
9, 35817, Note_on_c, 7, 84, 0
9, 35817, Note_on_c, 7, 81, 0
9, 35820, Note_on_c, 7, 81, 127
9, 35820, Note_on_c, 7, 82, 127
9, 35837, Note_on_c, 7, 82, 0
9, 35837, Note_on_c, 7, 81, 0
9, 35840, Note_on_c, 7, 79, 127
9, 35840, Note_on_c, 7, 82, 127
9, 35857, Note_on_c, 7, 82, 0
9, 35857, Note_on_c, 7, 79, 0
9, 35860, Note_on_c, 7, 79, 127
9, 35860, Note_on_c, 7, 82, 127
9, 35877, Note_on_c, 7, 82, 0
9, 35877, Note_on_c, 7, 79, 0
9, 35880, Note_on_c, 7, 79, 127
9, 35880, Note_on_c, 7, 82, 127
9, 35897, Note_on_c, 7, 82, 0
9, 35897, Note_on_c, 7, 79, 0
9, 35900, Note_on_c, 7, 79, 127
9, 35900, Note_on_c, 7, 82, 127
9, 35917, Note_on_c, 7, 82, 0
9, 35917, Note_on_c, 7, 79, 0
9, 35920, Note_on_c, 7, 79, 127
9, 35920, Note_on_c, 7, 82, 127
9, 35937, Note_on_c, 7, 82, 0
9, 35937, Note_on_c, 7, 79, 0
9, 35940, Note_on_c, 7, 79, 127
9, 35940, Note_on_c, 7, 82, 127
9, 35957, Note_on_c, 7, 82, 0
9, 35957, Note_on_c, 7, 79, 0
9, 35960, Note_on_c, 7, 79, 127
9, 35960, Note_on_c, 7, 82, 127
9, 35977, Note_on_c, 7, 82, 0
9, 35977, Note_on_c, 7, 79, 0
9, 35980, Note_on_c, 7, 79, 127
9, 35980, Note_on_c, 7, 82, 127
9, 35997, Note_on_c, 7, 82, 0
9, 35997, Note_on_c, 7, 79, 0
9, 36000, Note_on_c, 7, 64, 127
9, 36000, Note_on_c, 7, 82, 127
9, 36029, Note_on_c, 7, 82, 0
9, 36030, Note_on_c, 7, 64, 0
9, 36120, Note_on_c, 7, 64, 127
9, 36120, Note_on_c, 7, 58, 127
9, 36120, Note_on_c, 7, 67, 127
9, 36299, Note_on_c, 7, 67, 0
9, 36299, Note_on_c, 7, 58, 0
9, 36299, Note_on_c, 7, 64, 0
9, 36300, Note_on_c, 7, 64, 127
9, 36300, Note_on_c, 7, 58, 127
9, 36300, Note_on_c, 7, 67, 127
9, 36329, Note_on_c, 7, 67, 0
9, 36329, Note_on_c, 7, 58, 0
9, 36329, Note_on_c, 7, 64, 0
9, 36360, Note_on_c, 7, 64, 127
9, 36360, Note_on_c, 7, 67, 127
9, 36360, Note_on_c, 7, 58, 127
9, 36389, Note_on_c, 7, 58, 0
9, 36389, Note_on_c, 7, 67, 0
9, 36389, Note_on_c, 7, 64, 0
9, 36420, Note_on_c, 7, 64, 127
9, 36420, Note_on_c, 7, 67, 127
9, 36420, Note_on_c, 7, 58, 127
9, 36449, Note_on_c, 7, 58, 0
9, 36449, Note_on_c, 7, 67, 0
9, 36449, Note_on_c, 7, 64, 0
9, 36480, Note_on_c, 7, 57, 108
9, 36482, Note_on_c, 7, 57, 122
9, 36483, Note_on_c, 7, 67, 122
9, 36719, Note_on_c, 7, 57, 0
9, 36720, Note_on_c, 7, 62, 47
9, 36720, Note_on_c, 7, 57, 47
9, 36720, Note_on_c, 7, 66, 47
9, 36721, Note_on_c, 7, 57, 0
9, 36722, Note_on_c, 7, 67, 0
9, 36900, Note_on_c, 7, 62, 0
9, 36900, Note_on_c, 7, 60, 47
9, 36959, Note_on_c, 7, 57, 0
9, 36959, Note_on_c, 7, 66, 0
9, 36960, Note_on_c, 7, 60, 0
9, 36960, Note_on_c, 7, 58, 47
9, 36961, Note_on_c, 7, 67, 47
9, 37065, Note_on_c, 7, 67, 0
9, 37065, Note_on_c, 7, 69, 47
9, 37076, Note_on_c, 7, 69, 0
9, 37080, Note_on_c, 7, 67, 47
9, 37082, Note_on_c, 7, 58, 0
9, 37124, Note_on_c, 7, 67, 0
9, 37125, Note_on_c, 7, 66, 47
9, 37139, Note_on_c, 7, 66, 0
9, 37140, Note_on_c, 7, 67, 47
9, 37185, Note_on_c, 7, 67, 0
9, 37185, Note_on_c, 7, 69, 47
9, 37199, Note_on_c, 7, 69, 0
9, 37200, Note_on_c, 7, 62, 48
9, 37200, Note_on_c, 7, 58, 48
9, 37200, Note_on_c, 7, 70, 47
9, 37319, Note_on_c, 7, 70, 0
9, 37320, Note_on_c, 7, 58, 0
9, 37320, Note_on_c, 7, 67, 47
9, 37321, Note_on_c, 7, 62, 0
9, 37379, Note_on_c, 7, 67, 0
9, 37440, Note_on_c, 7, 62, 48
9, 37440, Note_on_c, 7, 59, 48
9, 37440, Note_on_c, 7, 74, 47
9, 37559, Note_on_c, 7, 59, 0
9, 37559, Note_on_c, 7, 62, 0
9, 37560, Note_on_c, 7, 71, 47
9, 37561, Note_on_c, 7, 74, 0
9, 37619, Note_on_c, 7, 71, 0
9, 37680, Note_on_c, 7, 80, 47
9, 37915, Note_on_c, 7, 80, 0
9, 38160, Note_on_c, 7, 63, 127
9, 38160, Note_on_c, 7, 60, 127
9, 38160, Note_on_c, 7, 60, 126
9, 38160, Note_on_c, 7, 63, 126
9, 38375, Note_on_c, 7, 63, 0
9, 38386, Note_on_c, 7, 60, 0
9, 38399, Note_on_c, 7, 60, 0
9, 38399, Note_on_c, 7, 63, 0
9, 38400, Note_on_c, 7, 60, 127
9, 38400, Note_on_c, 7, 63, 127
9, 38400, Note_on_c, 7, 63, 126
9, 38400, Note_on_c, 7, 60, 126
9, 38418, Note_on_c, 7, 60, 0
9, 38418, Note_on_c, 7, 63, 0
9, 38419, Note_on_c, 7, 63, 0
9, 38419, Note_on_c, 7, 60, 0
9, 38420, Note_on_c, 7, 63, 127
9, 38420, Note_on_c, 7, 60, 127
9, 38420, Note_on_c, 7, 63, 126
9, 38420, Note_on_c, 7, 60, 126
9, 38438, Note_on_c, 7, 60, 0
9, 38438, Note_on_c, 7, 63, 0
9, 38439, Note_on_c, 7, 60, 0
9, 38439, Note_on_c, 7, 63, 0
9, 38440, Note_on_c, 7, 63, 127
9, 38440, Note_on_c, 7, 60, 127
9, 38440, Note_on_c, 7, 60, 126
9, 38440, Note_on_c, 7, 63, 126
9, 38458, Note_on_c, 7, 63, 0
9, 38458, Note_on_c, 7, 60, 0
9, 38459, Note_on_c, 7, 60, 0
9, 38459, Note_on_c, 7, 63, 0
9, 38460, Note_on_c, 7, 60, 127
9, 38460, Note_on_c, 7, 63, 127
9, 38460, Note_on_c, 7, 63, 126
9, 38460, Note_on_c, 7, 60, 126
9, 38478, Note_on_c, 7, 60, 0
9, 38478, Note_on_c, 7, 63, 0
9, 38479, Note_on_c, 7, 63, 0
9, 38479, Note_on_c, 7, 60, 0
9, 38480, Note_on_c, 7, 63, 127
9, 38480, Note_on_c, 7, 60, 127
9, 38480, Note_on_c, 7, 60, 126
9, 38480, Note_on_c, 7, 63, 126
9, 38498, Note_on_c, 7, 63, 0
9, 38498, Note_on_c, 7, 60, 0
9, 38499, Note_on_c, 7, 60, 0
9, 38499, Note_on_c, 7, 63, 0
9, 38500, Note_on_c, 7, 60, 127
9, 38500, Note_on_c, 7, 63, 127
9, 38500, Note_on_c, 7, 63, 126
9, 38500, Note_on_c, 7, 60, 126
9, 38518, Note_on_c, 7, 60, 0
9, 38518, Note_on_c, 7, 63, 0
9, 38519, Note_on_c, 7, 63, 0
9, 38519, Note_on_c, 7, 60, 0
9, 38520, Note_on_c, 7, 63, 127
9, 38520, Note_on_c, 7, 60, 127
9, 38520, Note_on_c, 7, 63, 126
9, 38520, Note_on_c, 7, 60, 126
9, 38529, Note_on_c, 7, 63, 0
9, 38531, Note_on_c, 7, 60, 0
9, 38539, Note_on_c, 7, 60, 0
9, 38539, Note_on_c, 7, 63, 0
9, 38540, Note_on_c, 7, 63, 127
9, 38540, Note_on_c, 7, 60, 127
9, 38540, Note_on_c, 7, 60, 126
9, 38540, Note_on_c, 7, 63, 126
9, 38558, Note_on_c, 7, 63, 0
9, 38558, Note_on_c, 7, 60, 0
9, 38559, Note_on_c, 7, 60, 0
9, 38559, Note_on_c, 7, 63, 0
9, 38560, Note_on_c, 7, 60, 127
9, 38560, Note_on_c, 7, 63, 127
9, 38560, Note_on_c, 7, 60, 126
9, 38560, Note_on_c, 7, 63, 126
9, 38578, Note_on_c, 7, 63, 0
9, 38578, Note_on_c, 7, 60, 0
9, 38579, Note_on_c, 7, 63, 0
9, 38579, Note_on_c, 7, 60, 0
9, 38580, Note_on_c, 7, 60, 127
9, 38580, Note_on_c, 7, 63, 127
9, 38580, Note_on_c, 7, 63, 126
9, 38580, Note_on_c, 7, 60, 126
9, 38598, Note_on_c, 7, 60, 0
9, 38598, Note_on_c, 7, 63, 0
9, 38599, Note_on_c, 7, 63, 0
9, 38599, Note_on_c, 7, 60, 0
9, 38600, Note_on_c, 7, 63, 127
9, 38600, Note_on_c, 7, 60, 127
9, 38600, Note_on_c, 7, 60, 126
9, 38600, Note_on_c, 7, 63, 126
9, 38618, Note_on_c, 7, 63, 0
9, 38618, Note_on_c, 7, 60, 0
9, 38619, Note_on_c, 7, 60, 0
9, 38619, Note_on_c, 7, 63, 0
9, 38620, Note_on_c, 7, 63, 127
9, 38620, Note_on_c, 7, 60, 127
9, 38620, Note_on_c, 7, 63, 126
9, 38620, Note_on_c, 7, 60, 126
9, 38638, Note_on_c, 7, 60, 0
9, 38638, Note_on_c, 7, 63, 0
9, 38639, Note_on_c, 7, 60, 0
9, 38639, Note_on_c, 7, 63, 0
9, 38640, Note_on_c, 7, 60, 127
9, 38640, Note_on_c, 7, 63, 127
9, 38640, Note_on_c, 7, 63, 127
9, 38640, Note_on_c, 7, 60, 127
9, 38658, Note_on_c, 7, 60, 0
9, 38658, Note_on_c, 7, 63, 0
9, 38659, Note_on_c, 7, 63, 0
9, 38659, Note_on_c, 7, 60, 0
9, 38660, Note_on_c, 7, 63, 127
9, 38660, Note_on_c, 7, 60, 127
9, 38660, Note_on_c, 7, 63, 127
9, 38660, Note_on_c, 7, 60, 127
9, 38678, Note_on_c, 7, 60, 0
9, 38678, Note_on_c, 7, 63, 0
9, 38679, Note_on_c, 7, 60, 0
9, 38679, Note_on_c, 7, 63, 0
9, 38680, Note_on_c, 7, 63, 127
9, 38680, Note_on_c, 7, 60, 127
9, 38680, Note_on_c, 7, 63, 127
9, 38680, Note_on_c, 7, 60, 127
9, 38698, Note_on_c, 7, 60, 0
9, 38698, Note_on_c, 7, 63, 0
9, 38699, Note_on_c, 7, 60, 0
9, 38699, Note_on_c, 7, 63, 0
9, 38700, Note_on_c, 7, 60, 127
9, 38700, Note_on_c, 7, 63, 127
9, 38700, Note_on_c, 7, 63, 127
9, 38700, Note_on_c, 7, 60, 127
9, 38718, Note_on_c, 7, 60, 0
9, 38718, Note_on_c, 7, 63, 0
9, 38719, Note_on_c, 7, 63, 0
9, 38719, Note_on_c, 7, 60, 0
9, 38720, Note_on_c, 7, 63, 127
9, 38720, Note_on_c, 7, 60, 127
9, 38720, Note_on_c, 7, 63, 127
9, 38720, Note_on_c, 7, 60, 127
9, 38738, Note_on_c, 7, 60, 0
9, 38738, Note_on_c, 7, 63, 0
9, 38739, Note_on_c, 7, 60, 0
9, 38739, Note_on_c, 7, 63, 0
9, 38740, Note_on_c, 7, 60, 127
9, 38740, Note_on_c, 7, 63, 127
9, 38740, Note_on_c, 7, 63, 127
9, 38740, Note_on_c, 7, 60, 127
9, 38758, Note_on_c, 7, 60, 0
9, 38758, Note_on_c, 7, 63, 0
9, 38759, Note_on_c, 7, 63, 0
9, 38759, Note_on_c, 7, 60, 0
9, 38760, Note_on_c, 7, 63, 127
9, 38760, Note_on_c, 7, 60, 127
9, 38760, Note_on_c, 7, 63, 127
9, 38760, Note_on_c, 7, 60, 127
9, 38769, Note_on_c, 7, 63, 0
9, 38771, Note_on_c, 7, 60, 0
9, 38779, Note_on_c, 7, 60, 0
9, 38779, Note_on_c, 7, 63, 0
9, 38780, Note_on_c, 7, 63, 127
9, 38780, Note_on_c, 7, 60, 127
9, 38780, Note_on_c, 7, 60, 127
9, 38780, Note_on_c, 7, 63, 127
9, 38798, Note_on_c, 7, 63, 0
9, 38798, Note_on_c, 7, 60, 0
9, 38799, Note_on_c, 7, 60, 0
9, 38799, Note_on_c, 7, 63, 0
9, 38800, Note_on_c, 7, 60, 127
9, 38800, Note_on_c, 7, 63, 127
9, 38800, Note_on_c, 7, 63, 127
9, 38800, Note_on_c, 7, 60, 127
9, 38818, Note_on_c, 7, 60, 0
9, 38818, Note_on_c, 7, 63, 0
9, 38819, Note_on_c, 7, 63, 0
9, 38819, Note_on_c, 7, 60, 0
9, 38820, Note_on_c, 7, 60, 127
9, 38820, Note_on_c, 7, 63, 127
9, 38820, Note_on_c, 7, 60, 127
9, 38820, Note_on_c, 7, 63, 127
9, 38838, Note_on_c, 7, 63, 0
9, 38838, Note_on_c, 7, 60, 0
9, 38839, Note_on_c, 7, 63, 0
9, 38839, Note_on_c, 7, 60, 0
9, 38840, Note_on_c, 7, 63, 127
9, 38840, Note_on_c, 7, 60, 127
9, 38840, Note_on_c, 7, 63, 127
9, 38841, Note_on_c, 7, 60, 127
9, 38858, Note_on_c, 7, 60, 0
9, 38858, Note_on_c, 7, 63, 0
9, 38859, Note_on_c, 7, 63, 0
9, 38860, Note_on_c, 7, 60, 0
9, 38860, Note_on_c, 7, 63, 127
9, 38860, Note_on_c, 7, 60, 127
9, 38860, Note_on_c, 7, 63, 127
9, 38860, Note_on_c, 7, 60, 127
9, 38878, Note_on_c, 7, 60, 0
9, 38878, Note_on_c, 7, 63, 0
9, 38879, Note_on_c, 7, 60, 0
9, 38879, Note_on_c, 7, 63, 0
9, 38880, Note_on_c, 7, 60, 127
9, 38880, Note_on_c, 7, 63, 127
9, 38880, Note_on_c, 7, 63, 127
9, 38880, Note_on_c, 7, 60, 127
9, 38898, Note_on_c, 7, 60, 0
9, 38898, Note_on_c, 7, 63, 0
9, 38899, Note_on_c, 7, 63, 0
9, 38899, Note_on_c, 7, 60, 0
9, 38900, Note_on_c, 7, 63, 127
9, 38900, Note_on_c, 7, 60, 127
9, 38900, Note_on_c, 7, 72, 127
9, 38900, Note_on_c, 7, 63, 127
9, 38918, Note_on_c, 7, 63, 0
9, 38918, Note_on_c, 7, 60, 0
9, 38919, Note_on_c, 7, 72, 0
9, 38919, Note_on_c, 7, 63, 0
9, 38920, Note_on_c, 7, 63, 127
9, 38920, Note_on_c, 7, 60, 127
9, 38920, Note_on_c, 7, 72, 127
9, 38920, Note_on_c, 7, 63, 127
9, 38938, Note_on_c, 7, 63, 0
9, 38938, Note_on_c, 7, 60, 0
9, 38939, Note_on_c, 7, 72, 0
9, 38939, Note_on_c, 7, 63, 0
9, 38940, Note_on_c, 7, 60, 127
9, 38940, Note_on_c, 7, 63, 127
9, 38940, Note_on_c, 7, 72, 127
9, 38940, Note_on_c, 7, 63, 127
9, 38958, Note_on_c, 7, 63, 0
9, 38958, Note_on_c, 7, 60, 0
9, 38959, Note_on_c, 7, 72, 0
9, 38959, Note_on_c, 7, 63, 0
9, 38960, Note_on_c, 7, 63, 127
9, 38960, Note_on_c, 7, 60, 127
9, 38960, Note_on_c, 7, 72, 127
9, 38960, Note_on_c, 7, 63, 127
9, 38978, Note_on_c, 7, 63, 0
9, 38978, Note_on_c, 7, 60, 0
9, 38979, Note_on_c, 7, 72, 0
9, 38979, Note_on_c, 7, 63, 0
9, 38980, Note_on_c, 7, 60, 127
9, 38980, Note_on_c, 7, 63, 127
9, 38980, Note_on_c, 7, 72, 127
9, 38980, Note_on_c, 7, 63, 127
9, 38998, Note_on_c, 7, 63, 0
9, 38998, Note_on_c, 7, 60, 0
9, 38999, Note_on_c, 7, 72, 0
9, 38999, Note_on_c, 7, 63, 0
9, 39000, Note_on_c, 7, 63, 127
9, 39000, Note_on_c, 7, 60, 127
9, 39000, Note_on_c, 7, 63, 127
9, 39000, Note_on_c, 7, 72, 127
9, 39009, Note_on_c, 7, 63, 0
9, 39011, Note_on_c, 7, 60, 0
9, 39019, Note_on_c, 7, 63, 0
9, 39019, Note_on_c, 7, 72, 0
9, 39020, Note_on_c, 7, 63, 127
9, 39020, Note_on_c, 7, 60, 127
9, 39020, Note_on_c, 7, 63, 127
9, 39020, Note_on_c, 7, 72, 127
9, 39038, Note_on_c, 7, 63, 0
9, 39038, Note_on_c, 7, 60, 0
9, 39039, Note_on_c, 7, 63, 0
9, 39039, Note_on_c, 7, 72, 0
9, 39040, Note_on_c, 7, 60, 127
9, 39040, Note_on_c, 7, 63, 127
9, 39040, Note_on_c, 7, 63, 127
9, 39040, Note_on_c, 7, 72, 127
9, 39058, Note_on_c, 7, 63, 0
9, 39058, Note_on_c, 7, 60, 0
9, 39059, Note_on_c, 7, 63, 0
9, 39059, Note_on_c, 7, 72, 0
9, 39060, Note_on_c, 7, 60, 127
9, 39060, Note_on_c, 7, 63, 127
9, 39060, Note_on_c, 7, 63, 127
9, 39060, Note_on_c, 7, 72, 127
9, 39078, Note_on_c, 7, 63, 0
9, 39078, Note_on_c, 7, 60, 0
9, 39079, Note_on_c, 7, 63, 0
9, 39079, Note_on_c, 7, 72, 0
9, 39080, Note_on_c, 7, 63, 127
9, 39080, Note_on_c, 7, 60, 127
9, 39080, Note_on_c, 7, 63, 127
9, 39080, Note_on_c, 7, 72, 127
9, 39098, Note_on_c, 7, 63, 0
9, 39098, Note_on_c, 7, 60, 0
9, 39099, Note_on_c, 7, 63, 0
9, 39099, Note_on_c, 7, 72, 0
9, 39100, Note_on_c, 7, 63, 127
9, 39100, Note_on_c, 7, 60, 127
9, 39100, Note_on_c, 7, 63, 127
9, 39100, Note_on_c, 7, 72, 127
9, 39118, Note_on_c, 7, 63, 0
9, 39118, Note_on_c, 7, 60, 0
9, 39119, Note_on_c, 7, 63, 0
9, 39119, Note_on_c, 7, 72, 0
9, 39120, Note_on_c, 7, 60, 127
9, 39120, Note_on_c, 7, 63, 127
9, 39120, Note_on_c, 7, 72, 127
9, 39120, Note_on_c, 7, 63, 127
9, 39138, Note_on_c, 7, 63, 0
9, 39138, Note_on_c, 7, 60, 0
9, 39139, Note_on_c, 7, 72, 0
9, 39139, Note_on_c, 7, 63, 0
9, 39140, Note_on_c, 7, 63, 127
9, 39140, Note_on_c, 7, 60, 127
9, 39140, Note_on_c, 7, 72, 127
9, 39140, Note_on_c, 7, 63, 127
9, 39158, Note_on_c, 7, 63, 0
9, 39158, Note_on_c, 7, 60, 0
9, 39159, Note_on_c, 7, 72, 0
9, 39159, Note_on_c, 7, 63, 0
9, 39160, Note_on_c, 7, 63, 127
9, 39160, Note_on_c, 7, 60, 127
9, 39160, Note_on_c, 7, 72, 127
9, 39160, Note_on_c, 7, 63, 127
9, 39178, Note_on_c, 7, 63, 0
9, 39178, Note_on_c, 7, 60, 0
9, 39179, Note_on_c, 7, 72, 0
9, 39179, Note_on_c, 7, 63, 0
9, 39180, Note_on_c, 7, 60, 127
9, 39180, Note_on_c, 7, 63, 127
9, 39180, Note_on_c, 7, 72, 127
9, 39180, Note_on_c, 7, 63, 127
9, 39198, Note_on_c, 7, 63, 0
9, 39198, Note_on_c, 7, 60, 0
9, 39199, Note_on_c, 7, 72, 0
9, 39199, Note_on_c, 7, 63, 0
9, 39200, Note_on_c, 7, 63, 127
9, 39200, Note_on_c, 7, 60, 127
9, 39200, Note_on_c, 7, 72, 127
9, 39200, Note_on_c, 7, 63, 127
9, 39218, Note_on_c, 7, 63, 0
9, 39218, Note_on_c, 7, 60, 0
9, 39219, Note_on_c, 7, 72, 0
9, 39219, Note_on_c, 7, 63, 0
9, 39220, Note_on_c, 7, 60, 127
9, 39220, Note_on_c, 7, 63, 127
9, 39220, Note_on_c, 7, 72, 127
9, 39220, Note_on_c, 7, 63, 127
9, 39238, Note_on_c, 7, 63, 0
9, 39238, Note_on_c, 7, 60, 0
9, 39239, Note_on_c, 7, 72, 0
9, 39239, Note_on_c, 7, 63, 0
9, 39240, Note_on_c, 7, 63, 127
9, 39240, Note_on_c, 7, 60, 127
9, 39240, Note_on_c, 7, 72, 127
9, 39240, Note_on_c, 7, 63, 127
9, 39249, Note_on_c, 7, 63, 0
9, 39251, Note_on_c, 7, 60, 0
9, 39259, Note_on_c, 7, 72, 0
9, 39259, Note_on_c, 7, 63, 0
9, 39260, Note_on_c, 7, 63, 127
9, 39260, Note_on_c, 7, 60, 127
9, 39260, Note_on_c, 7, 72, 127
9, 39260, Note_on_c, 7, 63, 127
9, 39278, Note_on_c, 7, 63, 0
9, 39278, Note_on_c, 7, 60, 0
9, 39279, Note_on_c, 7, 72, 0
9, 39279, Note_on_c, 7, 63, 0
9, 39280, Note_on_c, 7, 60, 127
9, 39280, Note_on_c, 7, 63, 127
9, 39280, Note_on_c, 7, 72, 127
9, 39280, Note_on_c, 7, 63, 127
9, 39298, Note_on_c, 7, 63, 0
9, 39298, Note_on_c, 7, 60, 0
9, 39299, Note_on_c, 7, 72, 0
9, 39299, Note_on_c, 7, 63, 0
9, 39300, Note_on_c, 7, 60, 127
9, 39300, Note_on_c, 7, 63, 127
9, 39300, Note_on_c, 7, 72, 127
9, 39300, Note_on_c, 7, 63, 127
9, 39318, Note_on_c, 7, 63, 0
9, 39318, Note_on_c, 7, 60, 0
9, 39319, Note_on_c, 7, 72, 0
9, 39319, Note_on_c, 7, 63, 0
9, 39320, Note_on_c, 7, 63, 127
9, 39320, Note_on_c, 7, 60, 127
9, 39320, Note_on_c, 7, 72, 127
9, 39320, Note_on_c, 7, 63, 127
9, 39338, Note_on_c, 7, 63, 0
9, 39338, Note_on_c, 7, 60, 0
9, 39339, Note_on_c, 7, 72, 0
9, 39339, Note_on_c, 7, 63, 0
9, 39340, Note_on_c, 7, 63, 127
9, 39340, Note_on_c, 7, 60, 127
9, 39340, Note_on_c, 7, 72, 127
9, 39340, Note_on_c, 7, 63, 127
9, 39358, Note_on_c, 7, 63, 0
9, 39358, Note_on_c, 7, 60, 0
9, 39359, Note_on_c, 7, 72, 0
9, 39359, Note_on_c, 7, 63, 0
9, 39360, Note_on_c, 7, 60, 127
9, 39360, Note_on_c, 7, 63, 127
9, 39360, Note_on_c, 7, 72, 127
9, 39360, Note_on_c, 7, 63, 127
9, 39379, Note_on_c, 7, 63, 0
9, 39379, Note_on_c, 7, 72, 0
9, 39380, Note_on_c, 7, 72, 127
9, 39380, Note_on_c, 7, 63, 127
9, 39399, Note_on_c, 7, 63, 0
9, 39399, Note_on_c, 7, 72, 0
9, 39400, Note_on_c, 7, 72, 127
9, 39400, Note_on_c, 7, 63, 127
9, 39419, Note_on_c, 7, 63, 0
9, 39419, Note_on_c, 7, 60, 0
9, 39419, Note_on_c, 7, 63, 0
9, 39419, Note_on_c, 7, 72, 0
9, 39420, Note_on_c, 7, 72, 127
9, 39420, Note_on_c, 7, 63, 127
9, 39439, Note_on_c, 7, 63, 0
9, 39439, Note_on_c, 7, 72, 0
9, 39440, Note_on_c, 7, 72, 127
9, 39440, Note_on_c, 7, 63, 127
9, 39459, Note_on_c, 7, 63, 0
9, 39459, Note_on_c, 7, 72, 0
9, 39460, Note_on_c, 7, 72, 127
9, 39460, Note_on_c, 7, 63, 127
9, 39479, Note_on_c, 7, 63, 0
9, 39479, Note_on_c, 7, 72, 0
9, 39480, Note_on_c, 7, 57, 127
9, 39480, Note_on_c, 7, 72, 127
9, 39480, Note_on_c, 7, 63, 127
9, 39490, Note_on_c, 7, 57, 0
9, 39499, Note_on_c, 7, 63, 0
9, 39499, Note_on_c, 7, 72, 0
9, 39500, Note_on_c, 7, 60, 127
9, 39500, Note_on_c, 7, 72, 127
9, 39500, Note_on_c, 7, 63, 127
9, 39510, Note_on_c, 7, 60, 0
9, 39519, Note_on_c, 7, 63, 0
9, 39519, Note_on_c, 7, 72, 0
9, 39520, Note_on_c, 7, 63, 127
9, 39520, Note_on_c, 7, 72, 127
9, 39520, Note_on_c, 7, 63, 127
9, 39530, Note_on_c, 7, 63, 0
9, 39539, Note_on_c, 7, 72, 0
9, 39539, Note_on_c, 7, 63, 0
9, 39540, Note_on_c, 7, 66, 127
9, 39540, Note_on_c, 7, 72, 127
9, 39540, Note_on_c, 7, 63, 127
9, 39550, Note_on_c, 7, 66, 0
9, 39559, Note_on_c, 7, 63, 0
9, 39559, Note_on_c, 7, 72, 0
9, 39560, Note_on_c, 7, 69, 127
9, 39560, Note_on_c, 7, 72, 127
9, 39560, Note_on_c, 7, 63, 127
9, 39570, Note_on_c, 7, 69, 0
9, 39579, Note_on_c, 7, 63, 0
9, 39579, Note_on_c, 7, 72, 0
9, 39580, Note_on_c, 7, 72, 127
9, 39580, Note_on_c, 7, 72, 127
9, 39580, Note_on_c, 7, 63, 127
9, 39590, Note_on_c, 7, 72, 0
9, 39599, Note_on_c, 7, 63, 0
9, 39599, Note_on_c, 7, 72, 0
9, 39600, Note_on_c, 7, 75, 127
9, 39600, Note_on_c, 7, 69, 127
9, 39610, Note_on_c, 7, 69, 0
9, 39620, Note_on_c, 7, 75, 0
9, 39620, Note_on_c, 7, 63, 127
9, 39620, Note_on_c, 7, 72, 127
9, 39620, Note_on_c, 7, 72, 127
9, 39630, Note_on_c, 7, 72, 0
9, 39638, Note_on_c, 7, 72, 0
9, 39638, Note_on_c, 7, 63, 0
9, 39640, Note_on_c, 7, 63, 127
9, 39640, Note_on_c, 7, 72, 127
9, 39640, Note_on_c, 7, 75, 127
9, 39650, Note_on_c, 7, 75, 0
9, 39658, Note_on_c, 7, 72, 0
9, 39658, Note_on_c, 7, 63, 0
9, 39660, Note_on_c, 7, 63, 127
9, 39660, Note_on_c, 7, 72, 127
9, 39660, Note_on_c, 7, 78, 127
9, 39670, Note_on_c, 7, 78, 0
9, 39678, Note_on_c, 7, 72, 0
9, 39678, Note_on_c, 7, 63, 0
9, 39680, Note_on_c, 7, 63, 127
9, 39680, Note_on_c, 7, 72, 127
9, 39680, Note_on_c, 7, 81, 127
9, 39690, Note_on_c, 7, 81, 0
9, 39698, Note_on_c, 7, 72, 0
9, 39698, Note_on_c, 7, 63, 0
9, 39700, Note_on_c, 7, 63, 127
9, 39700, Note_on_c, 7, 72, 127
9, 39700, Note_on_c, 7, 84, 127
9, 39710, Note_on_c, 7, 84, 0
9, 39718, Note_on_c, 7, 72, 0
9, 39718, Note_on_c, 7, 63, 0
9, 39720, Note_on_c, 7, 63, 127
9, 39720, Note_on_c, 7, 72, 127
9, 39720, Note_on_c, 7, 87, 127
9, 39738, Note_on_c, 7, 72, 0
9, 39738, Note_on_c, 7, 63, 0
9, 39740, Note_on_c, 7, 63, 127
9, 39740, Note_on_c, 7, 72, 127
9, 39750, Note_on_c, 7, 87, 0
9, 39758, Note_on_c, 7, 72, 0
9, 39758, Note_on_c, 7, 63, 0
9, 39760, Note_on_c, 7, 63, 127
9, 39760, Note_on_c, 7, 72, 127
9, 39778, Note_on_c, 7, 72, 0
9, 39778, Note_on_c, 7, 63, 0
9, 39780, Note_on_c, 7, 63, 127
9, 39780, Note_on_c, 7, 72, 127
9, 39798, Note_on_c, 7, 72, 0
9, 39798, Note_on_c, 7, 63, 0
9, 39800, Note_on_c, 7, 63, 127
9, 39800, Note_on_c, 7, 72, 127
9, 39818, Note_on_c, 7, 72, 0
9, 39818, Note_on_c, 7, 63, 0
9, 39820, Note_on_c, 7, 63, 127
9, 39820, Note_on_c, 7, 72, 127
9, 39838, Note_on_c, 7, 72, 0
9, 39838, Note_on_c, 7, 63, 0
9, 39840, Note_on_c, 7, 71, 127
9, 39840, Note_on_c, 7, 62, 127
9, 39859, Note_on_c, 7, 62, 0
9, 39859, Note_on_c, 7, 71, 0
9, 39860, Note_on_c, 7, 71, 127
9, 39860, Note_on_c, 7, 62, 127
9, 39879, Note_on_c, 7, 62, 0
9, 39879, Note_on_c, 7, 71, 0
9, 39880, Note_on_c, 7, 71, 127
9, 39880, Note_on_c, 7, 62, 127
9, 39899, Note_on_c, 7, 62, 0
9, 39899, Note_on_c, 7, 71, 0
9, 39900, Note_on_c, 7, 71, 127
9, 39900, Note_on_c, 7, 62, 127
9, 39919, Note_on_c, 7, 62, 0
9, 39919, Note_on_c, 7, 71, 0
9, 39920, Note_on_c, 7, 71, 127
9, 39920, Note_on_c, 7, 62, 127
9, 39939, Note_on_c, 7, 62, 0
9, 39939, Note_on_c, 7, 71, 0
9, 39940, Note_on_c, 7, 71, 127
9, 39940, Note_on_c, 7, 62, 127
9, 39959, Note_on_c, 7, 62, 0
9, 39959, Note_on_c, 7, 71, 0
9, 39960, Note_on_c, 7, 56, 127
9, 39960, Note_on_c, 7, 71, 127
9, 39960, Note_on_c, 7, 62, 127
9, 39970, Note_on_c, 7, 56, 0
9, 39979, Note_on_c, 7, 62, 0
9, 39979, Note_on_c, 7, 71, 0
9, 39980, Note_on_c, 7, 59, 127
9, 39980, Note_on_c, 7, 71, 127
9, 39980, Note_on_c, 7, 62, 127
9, 39990, Note_on_c, 7, 59, 0
9, 39999, Note_on_c, 7, 62, 0
9, 39999, Note_on_c, 7, 71, 0
9, 40000, Note_on_c, 7, 62, 127
9, 40000, Note_on_c, 7, 71, 127
9, 40000, Note_on_c, 7, 62, 127
9, 40010, Note_on_c, 7, 62, 0
9, 40019, Note_on_c, 7, 71, 0
9, 40019, Note_on_c, 7, 62, 0
9, 40020, Note_on_c, 7, 65, 127
9, 40020, Note_on_c, 7, 71, 127
9, 40020, Note_on_c, 7, 62, 127
9, 40030, Note_on_c, 7, 65, 0
9, 40039, Note_on_c, 7, 62, 0
9, 40039, Note_on_c, 7, 71, 0
9, 40040, Note_on_c, 7, 68, 127
9, 40040, Note_on_c, 7, 71, 127
9, 40040, Note_on_c, 7, 62, 127
9, 40050, Note_on_c, 7, 68, 0
9, 40059, Note_on_c, 7, 62, 0
9, 40059, Note_on_c, 7, 71, 0
9, 40060, Note_on_c, 7, 71, 127
9, 40060, Note_on_c, 7, 71, 127
9, 40060, Note_on_c, 7, 62, 127
9, 40070, Note_on_c, 7, 71, 0
9, 40079, Note_on_c, 7, 62, 0
9, 40079, Note_on_c, 7, 71, 0
9, 40080, Note_on_c, 7, 72, 127
9, 40080, Note_on_c, 7, 62, 127
9, 40090, Note_on_c, 7, 62, 0
9, 40100, Note_on_c, 7, 72, 0
9, 40100, Note_on_c, 7, 62, 127
9, 40100, Note_on_c, 7, 59, 127
9, 40100, Note_on_c, 7, 65, 127
9, 40110, Note_on_c, 7, 65, 0
9, 40118, Note_on_c, 7, 59, 0
9, 40118, Note_on_c, 7, 62, 0
9, 40120, Note_on_c, 7, 59, 127
9, 40120, Note_on_c, 7, 62, 127
9, 40120, Note_on_c, 7, 68, 127
9, 40130, Note_on_c, 7, 68, 0
9, 40138, Note_on_c, 7, 62, 0
9, 40138, Note_on_c, 7, 59, 0
9, 40140, Note_on_c, 7, 59, 127
9, 40140, Note_on_c, 7, 62, 127
9, 40140, Note_on_c, 7, 71, 127
9, 40150, Note_on_c, 7, 71, 0
9, 40158, Note_on_c, 7, 62, 0
9, 40158, Note_on_c, 7, 59, 0
9, 40160, Note_on_c, 7, 62, 127
9, 40160, Note_on_c, 7, 59, 127
9, 40160, Note_on_c, 7, 74, 127
9, 40170, Note_on_c, 7, 74, 0
9, 40178, Note_on_c, 7, 59, 0
9, 40178, Note_on_c, 7, 62, 0
9, 40180, Note_on_c, 7, 59, 127
9, 40180, Note_on_c, 7, 62, 127
9, 40180, Note_on_c, 7, 77, 127
9, 40190, Note_on_c, 7, 77, 0
9, 40198, Note_on_c, 7, 62, 0
9, 40198, Note_on_c, 7, 59, 0
9, 40200, Note_on_c, 7, 59, 127
9, 40200, Note_on_c, 7, 62, 127
9, 40200, Note_on_c, 7, 80, 127
9, 40218, Note_on_c, 7, 62, 0
9, 40218, Note_on_c, 7, 59, 0
9, 40219, Note_on_c, 7, 80, 0
9, 40220, Note_on_c, 7, 59, 127
9, 40220, Note_on_c, 7, 62, 127
9, 40220, Note_on_c, 7, 80, 127
9, 40238, Note_on_c, 7, 62, 0
9, 40238, Note_on_c, 7, 59, 0
9, 40239, Note_on_c, 7, 80, 0
9, 40240, Note_on_c, 7, 62, 127
9, 40240, Note_on_c, 7, 59, 127
9, 40240, Note_on_c, 7, 80, 127
9, 40258, Note_on_c, 7, 59, 0
9, 40258, Note_on_c, 7, 62, 0
9, 40259, Note_on_c, 7, 80, 0
9, 40260, Note_on_c, 7, 62, 127
9, 40260, Note_on_c, 7, 59, 127
9, 40260, Note_on_c, 7, 80, 127
9, 40278, Note_on_c, 7, 59, 0
9, 40278, Note_on_c, 7, 62, 0
9, 40279, Note_on_c, 7, 80, 0
9, 40280, Note_on_c, 7, 59, 127
9, 40280, Note_on_c, 7, 62, 127
9, 40280, Note_on_c, 7, 80, 127
9, 40298, Note_on_c, 7, 62, 0
9, 40298, Note_on_c, 7, 59, 0
9, 40299, Note_on_c, 7, 80, 0
9, 40300, Note_on_c, 7, 59, 127
9, 40300, Note_on_c, 7, 62, 127
9, 40300, Note_on_c, 7, 80, 127
9, 40318, Note_on_c, 7, 62, 0
9, 40318, Note_on_c, 7, 59, 0
9, 40319, Note_on_c, 7, 80, 0
9, 40320, Note_on_c, 7, 59, 127
9, 40320, Note_on_c, 7, 62, 127
9, 40321, Note_on_c, 7, 80, 127
9, 40338, Note_on_c, 7, 62, 0
9, 40338, Note_on_c, 7, 59, 0
9, 40340, Note_on_c, 7, 80, 0
9, 40340, Note_on_c, 7, 55, 127
9, 40340, Note_on_c, 7, 65, 127
9, 40340, Note_on_c, 7, 80, 127
9, 40358, Note_on_c, 7, 65, 0
9, 40358, Note_on_c, 7, 55, 0
9, 40359, Note_on_c, 7, 80, 0
9, 40360, Note_on_c, 7, 55, 127
9, 40360, Note_on_c, 7, 65, 127
9, 40360, Note_on_c, 7, 80, 127
9, 40378, Note_on_c, 7, 65, 0
9, 40378, Note_on_c, 7, 55, 0
9, 40379, Note_on_c, 7, 80, 0
9, 40380, Note_on_c, 7, 55, 127
9, 40380, Note_on_c, 7, 65, 127
9, 40380, Note_on_c, 7, 80, 127
9, 40398, Note_on_c, 7, 65, 0
9, 40398, Note_on_c, 7, 55, 0
9, 40399, Note_on_c, 7, 80, 0
9, 40400, Note_on_c, 7, 55, 127
9, 40400, Note_on_c, 7, 65, 127
9, 40400, Note_on_c, 7, 80, 127
9, 40418, Note_on_c, 7, 65, 0
9, 40418, Note_on_c, 7, 55, 0
9, 40419, Note_on_c, 7, 80, 0
9, 40420, Note_on_c, 7, 55, 127
9, 40420, Note_on_c, 7, 65, 127
9, 40420, Note_on_c, 7, 80, 127
9, 40438, Note_on_c, 7, 65, 0
9, 40438, Note_on_c, 7, 55, 0
9, 40439, Note_on_c, 7, 80, 0
9, 40440, Note_on_c, 7, 55, 127
9, 40440, Note_on_c, 7, 65, 127
9, 40440, Note_on_c, 7, 80, 126
9, 40458, Note_on_c, 7, 65, 0
9, 40458, Note_on_c, 7, 55, 0
9, 40459, Note_on_c, 7, 80, 0
9, 40460, Note_on_c, 7, 55, 114
9, 40460, Note_on_c, 7, 65, 114
9, 40460, Note_on_c, 7, 80, 114
9, 40478, Note_on_c, 7, 65, 0
9, 40478, Note_on_c, 7, 55, 0
9, 40479, Note_on_c, 7, 80, 0
9, 40480, Note_on_c, 7, 55, 101
9, 40480, Note_on_c, 7, 65, 101
9, 40480, Note_on_c, 7, 80, 101
9, 40498, Note_on_c, 7, 65, 0
9, 40498, Note_on_c, 7, 55, 0
9, 40499, Note_on_c, 7, 80, 0
9, 40500, Note_on_c, 7, 55, 88
9, 40500, Note_on_c, 7, 65, 88
9, 40500, Note_on_c, 7, 79, 88
9, 40518, Note_on_c, 7, 65, 0
9, 40518, Note_on_c, 7, 55, 0
9, 40519, Note_on_c, 7, 79, 0
9, 40520, Note_on_c, 7, 55, 75
9, 40520, Note_on_c, 7, 65, 75
9, 40520, Note_on_c, 7, 79, 75
9, 40538, Note_on_c, 7, 65, 0
9, 40538, Note_on_c, 7, 55, 0
9, 40539, Note_on_c, 7, 79, 0
9, 40540, Note_on_c, 7, 55, 62
9, 40540, Note_on_c, 7, 65, 62
9, 40540, Note_on_c, 7, 79, 62
9, 40558, Note_on_c, 7, 65, 0
9, 40558, Note_on_c, 7, 55, 0
9, 40559, Note_on_c, 7, 79, 0
9, 40560, Note_on_c, 7, 65, 47
9, 40560, Note_on_c, 7, 55, 47
9, 40578, Note_on_c, 7, 55, 0
9, 40578, Note_on_c, 7, 65, 0
9, 40580, Note_on_c, 7, 65, 47
9, 40580, Note_on_c, 7, 55, 47
9, 40580, Note_on_c, 7, 78, 47
9, 40598, Note_on_c, 7, 55, 0
9, 40598, Note_on_c, 7, 65, 0
9, 40599, Note_on_c, 7, 78, 0
9, 40600, Note_on_c, 7, 65, 47
9, 40600, Note_on_c, 7, 55, 47
9, 40600, Note_on_c, 7, 78, 47
9, 40618, Note_on_c, 7, 55, 0
9, 40618, Note_on_c, 7, 65, 0
9, 40619, Note_on_c, 7, 78, 0
9, 40620, Note_on_c, 7, 65, 47
9, 40620, Note_on_c, 7, 55, 47
9, 40638, Note_on_c, 7, 55, 0
9, 40638, Note_on_c, 7, 65, 0
9, 40640, Note_on_c, 7, 65, 47
9, 40640, Note_on_c, 7, 55, 47
9, 40640, Note_on_c, 7, 79, 47
9, 40658, Note_on_c, 7, 55, 0
9, 40658, Note_on_c, 7, 65, 0
9, 40659, Note_on_c, 7, 79, 0
9, 40660, Note_on_c, 7, 65, 47
9, 40660, Note_on_c, 7, 55, 47
9, 40660, Note_on_c, 7, 79, 47
9, 40678, Note_on_c, 7, 55, 0
9, 40678, Note_on_c, 7, 65, 0
9, 40679, Note_on_c, 7, 79, 0
9, 40680, Note_on_c, 7, 65, 47
9, 40680, Note_on_c, 7, 55, 47
9, 40698, Note_on_c, 7, 55, 0
9, 40698, Note_on_c, 7, 65, 0
9, 40700, Note_on_c, 7, 65, 47
9, 40700, Note_on_c, 7, 55, 47
9, 40700, Note_on_c, 7, 80, 47
9, 40718, Note_on_c, 7, 55, 0
9, 40718, Note_on_c, 7, 65, 0
9, 40719, Note_on_c, 7, 80, 0
9, 40720, Note_on_c, 7, 65, 47
9, 40720, Note_on_c, 7, 55, 47
9, 40720, Note_on_c, 7, 80, 47
9, 40738, Note_on_c, 7, 55, 0
9, 40738, Note_on_c, 7, 65, 0
9, 40739, Note_on_c, 7, 80, 0
9, 40740, Note_on_c, 7, 65, 47
9, 40740, Note_on_c, 7, 55, 47
9, 40758, Note_on_c, 7, 55, 0
9, 40758, Note_on_c, 7, 65, 0
9, 40760, Note_on_c, 7, 65, 47
9, 40760, Note_on_c, 7, 55, 47
9, 40760, Note_on_c, 7, 79, 47
9, 40778, Note_on_c, 7, 55, 0
9, 40778, Note_on_c, 7, 65, 0
9, 40779, Note_on_c, 7, 79, 0
9, 40780, Note_on_c, 7, 65, 47
9, 40780, Note_on_c, 7, 55, 47
9, 40780, Note_on_c, 7, 79, 47
9, 40798, Note_on_c, 7, 55, 0
9, 40798, Note_on_c, 7, 65, 0
9, 40799, Note_on_c, 7, 79, 0
9, 40800, Note_on_c, 7, 65, 47
9, 40800, Note_on_c, 7, 55, 47
9, 40818, Note_on_c, 7, 55, 0
9, 40818, Note_on_c, 7, 65, 0
9, 40820, Note_on_c, 7, 65, 47
9, 40820, Note_on_c, 7, 55, 47
9, 40820, Note_on_c, 7, 77, 47
9, 40838, Note_on_c, 7, 55, 0
9, 40838, Note_on_c, 7, 65, 0
9, 40839, Note_on_c, 7, 77, 0
9, 40840, Note_on_c, 7, 65, 47
9, 40840, Note_on_c, 7, 55, 47
9, 40840, Note_on_c, 7, 77, 47
9, 40858, Note_on_c, 7, 55, 0
9, 40858, Note_on_c, 7, 65, 0
9, 40859, Note_on_c, 7, 77, 0
9, 40860, Note_on_c, 7, 65, 47
9, 40860, Note_on_c, 7, 55, 47
9, 40878, Note_on_c, 7, 55, 0
9, 40878, Note_on_c, 7, 65, 0
9, 40880, Note_on_c, 7, 65, 47
9, 40880, Note_on_c, 7, 55, 47
9, 40880, Note_on_c, 7, 75, 47
9, 40898, Note_on_c, 7, 55, 0
9, 40898, Note_on_c, 7, 65, 0
9, 40899, Note_on_c, 7, 75, 0
9, 40900, Note_on_c, 7, 65, 47
9, 40900, Note_on_c, 7, 55, 47
9, 40900, Note_on_c, 7, 75, 47
9, 40918, Note_on_c, 7, 55, 0
9, 40918, Note_on_c, 7, 65, 0
9, 40919, Note_on_c, 7, 75, 0
9, 40920, Note_on_c, 7, 65, 46
9, 40920, Note_on_c, 7, 55, 46
9, 40938, Note_on_c, 7, 55, 0
9, 40938, Note_on_c, 7, 65, 0
9, 40940, Note_on_c, 7, 65, 46
9, 40940, Note_on_c, 7, 55, 46
9, 40940, Note_on_c, 7, 74, 48
9, 40958, Note_on_c, 7, 55, 0
9, 40958, Note_on_c, 7, 65, 0
9, 40959, Note_on_c, 7, 74, 0
9, 40960, Note_on_c, 7, 65, 46
9, 40960, Note_on_c, 7, 55, 46
9, 40960, Note_on_c, 7, 74, 48
9, 40978, Note_on_c, 7, 55, 0
9, 40978, Note_on_c, 7, 65, 0
9, 40979, Note_on_c, 7, 74, 0
9, 40980, Note_on_c, 7, 65, 46
9, 40980, Note_on_c, 7, 55, 46
9, 40998, Note_on_c, 7, 55, 0
9, 40998, Note_on_c, 7, 65, 0
9, 41000, Note_on_c, 7, 65, 46
9, 41000, Note_on_c, 7, 55, 46
9, 41000, Note_on_c, 7, 72, 48
9, 41018, Note_on_c, 7, 55, 0
9, 41018, Note_on_c, 7, 65, 0
9, 41019, Note_on_c, 7, 72, 0
9, 41020, Note_on_c, 7, 65, 46
9, 41020, Note_on_c, 7, 55, 46
9, 41020, Note_on_c, 7, 72, 48
9, 41038, Note_on_c, 7, 55, 0
9, 41038, Note_on_c, 7, 65, 0
9, 41039, Note_on_c, 7, 72, 0
9, 41040, Note_on_c, 7, 65, 46
9, 41040, Note_on_c, 7, 55, 46
9, 41058, Note_on_c, 7, 55, 0
9, 41058, Note_on_c, 7, 65, 0
9, 41060, Note_on_c, 7, 65, 46
9, 41060, Note_on_c, 7, 55, 46
9, 41060, Note_on_c, 7, 71, 48
9, 41078, Note_on_c, 7, 55, 0
9, 41078, Note_on_c, 7, 65, 0
9, 41079, Note_on_c, 7, 71, 0
9, 41080, Note_on_c, 7, 65, 46
9, 41080, Note_on_c, 7, 55, 46
9, 41080, Note_on_c, 7, 71, 48
9, 41098, Note_on_c, 7, 55, 0
9, 41098, Note_on_c, 7, 65, 0
9, 41099, Note_on_c, 7, 71, 0
9, 41100, Note_on_c, 7, 65, 46
9, 41100, Note_on_c, 7, 55, 46
9, 41118, Note_on_c, 7, 55, 0
9, 41118, Note_on_c, 7, 65, 0
9, 41120, Note_on_c, 7, 65, 46
9, 41120, Note_on_c, 7, 55, 46
9, 41120, Note_on_c, 7, 68, 48
9, 41138, Note_on_c, 7, 55, 0
9, 41138, Note_on_c, 7, 65, 0
9, 41139, Note_on_c, 7, 68, 0
9, 41140, Note_on_c, 7, 65, 46
9, 41140, Note_on_c, 7, 55, 46
9, 41140, Note_on_c, 7, 68, 48
9, 41158, Note_on_c, 7, 55, 0
9, 41158, Note_on_c, 7, 65, 0
9, 41159, Note_on_c, 7, 68, 0
9, 41160, Note_on_c, 7, 65, 46
9, 41160, Note_on_c, 7, 55, 46
9, 41178, Note_on_c, 7, 55, 0
9, 41178, Note_on_c, 7, 65, 0
9, 41180, Note_on_c, 7, 65, 46
9, 41180, Note_on_c, 7, 55, 46
9, 41180, Note_on_c, 7, 67, 48
9, 41198, Note_on_c, 7, 55, 0
9, 41198, Note_on_c, 7, 65, 0
9, 41199, Note_on_c, 7, 67, 0
9, 41200, Note_on_c, 7, 65, 46
9, 41200, Note_on_c, 7, 55, 46
9, 41200, Note_on_c, 7, 67, 48
9, 41218, Note_on_c, 7, 55, 0
9, 41218, Note_on_c, 7, 65, 0
9, 41219, Note_on_c, 7, 67, 0
9, 41220, Note_on_c, 7, 65, 46
9, 41220, Note_on_c, 7, 55, 46
9, 41238, Note_on_c, 7, 55, 0
9, 41238, Note_on_c, 7, 65, 0
9, 41240, Note_on_c, 7, 65, 46
9, 41240, Note_on_c, 7, 55, 46
9, 41240, Note_on_c, 7, 71, 48
9, 41258, Note_on_c, 7, 55, 0
9, 41258, Note_on_c, 7, 65, 0
9, 41259, Note_on_c, 7, 71, 0
9, 41260, Note_on_c, 7, 65, 46
9, 41260, Note_on_c, 7, 55, 46
9, 41260, Note_on_c, 7, 71, 48
9, 41278, Note_on_c, 7, 55, 0
9, 41278, Note_on_c, 7, 65, 0
9, 41279, Note_on_c, 7, 71, 0
9, 41280, Note_on_c, 7, 65, 46
9, 41280, Note_on_c, 7, 55, 46
9, 41298, Note_on_c, 7, 55, 0
9, 41298, Note_on_c, 7, 65, 0
9, 41300, Note_on_c, 7, 65, 46
9, 41300, Note_on_c, 7, 55, 46
9, 41300, Note_on_c, 7, 67, 48
9, 41318, Note_on_c, 7, 55, 0
9, 41318, Note_on_c, 7, 65, 0
9, 41319, Note_on_c, 7, 67, 0
9, 41320, Note_on_c, 7, 65, 46
9, 41320, Note_on_c, 7, 55, 46
9, 41320, Note_on_c, 7, 67, 48
9, 41338, Note_on_c, 7, 55, 0
9, 41338, Note_on_c, 7, 65, 0
9, 41339, Note_on_c, 7, 67, 0
9, 41340, Note_on_c, 7, 65, 46
9, 41340, Note_on_c, 7, 55, 46
9, 41358, Note_on_c, 7, 55, 0
9, 41358, Note_on_c, 7, 65, 0
9, 41360, Note_on_c, 7, 65, 46
9, 41360, Note_on_c, 7, 55, 46
9, 41360, Note_on_c, 7, 74, 48
9, 41378, Note_on_c, 7, 55, 0
9, 41378, Note_on_c, 7, 65, 0
9, 41379, Note_on_c, 7, 74, 0
9, 41380, Note_on_c, 7, 65, 46
9, 41380, Note_on_c, 7, 55, 46
9, 41380, Note_on_c, 7, 74, 48
9, 41398, Note_on_c, 7, 55, 0
9, 41398, Note_on_c, 7, 65, 0
9, 41399, Note_on_c, 7, 74, 0
9, 41400, Note_on_c, 7, 65, 47
9, 41400, Note_on_c, 7, 55, 47
9, 41418, Note_on_c, 7, 55, 0
9, 41418, Note_on_c, 7, 65, 0
9, 41420, Note_on_c, 7, 65, 47
9, 41420, Note_on_c, 7, 55, 47
9, 41421, Note_on_c, 7, 67, 48
9, 41438, Note_on_c, 7, 55, 0
9, 41438, Note_on_c, 7, 65, 0
9, 41440, Note_on_c, 7, 67, 0
9, 41440, Note_on_c, 7, 65, 47
9, 41440, Note_on_c, 7, 55, 47
9, 41440, Note_on_c, 7, 67, 48
9, 41458, Note_on_c, 7, 55, 0
9, 41458, Note_on_c, 7, 65, 0
9, 41459, Note_on_c, 7, 67, 0
9, 41460, Note_on_c, 7, 65, 47
9, 41460, Note_on_c, 7, 55, 47
9, 41478, Note_on_c, 7, 55, 0
9, 41478, Note_on_c, 7, 65, 0
9, 41480, Note_on_c, 7, 65, 47
9, 41480, Note_on_c, 7, 55, 47
9, 41480, Note_on_c, 7, 79, 48
9, 41498, Note_on_c, 7, 79, 0
9, 41498, Note_on_c, 7, 55, 0
9, 41498, Note_on_c, 7, 65, 0
9, 41500, Note_on_c, 7, 65, 47
9, 41500, Note_on_c, 7, 55, 47
9, 41500, Note_on_c, 7, 79, 48
9, 41518, Note_on_c, 7, 79, 0
9, 41518, Note_on_c, 7, 55, 0
9, 41518, Note_on_c, 7, 65, 0
9, 41520, Note_on_c, 7, 55, 47
9, 41520, Note_on_c, 7, 63, 47
9, 41538, Note_on_c, 7, 63, 0
9, 41538, Note_on_c, 7, 55, 0
9, 41539, Note_on_c, 7, 67, 48
9, 41540, Note_on_c, 7, 55, 47
9, 41540, Note_on_c, 7, 63, 47
9, 41558, Note_on_c, 7, 63, 0
9, 41558, Note_on_c, 7, 55, 0
9, 41558, Note_on_c, 7, 67, 0
9, 41559, Note_on_c, 7, 67, 48
9, 41560, Note_on_c, 7, 55, 47
9, 41560, Note_on_c, 7, 63, 47
9, 41578, Note_on_c, 7, 63, 0
9, 41578, Note_on_c, 7, 55, 0
9, 41578, Note_on_c, 7, 67, 0
9, 41580, Note_on_c, 7, 55, 47
9, 41580, Note_on_c, 7, 63, 47
9, 41598, Note_on_c, 7, 63, 0
9, 41598, Note_on_c, 7, 55, 0
9, 41600, Note_on_c, 7, 55, 47
9, 41600, Note_on_c, 7, 63, 47
9, 41600, Note_on_c, 7, 68, 48
9, 41618, Note_on_c, 7, 63, 0
9, 41618, Note_on_c, 7, 55, 0
9, 41619, Note_on_c, 7, 68, 0
9, 41620, Note_on_c, 7, 55, 47
9, 41620, Note_on_c, 7, 63, 47
9, 41620, Note_on_c, 7, 68, 48
9, 41638, Note_on_c, 7, 63, 0
9, 41638, Note_on_c, 7, 55, 0
9, 41639, Note_on_c, 7, 68, 0
9, 41640, Note_on_c, 7, 55, 47
9, 41640, Note_on_c, 7, 63, 47
9, 41658, Note_on_c, 7, 63, 0
9, 41658, Note_on_c, 7, 55, 0
9, 41660, Note_on_c, 7, 55, 47
9, 41660, Note_on_c, 7, 63, 47
9, 41660, Note_on_c, 7, 67, 48
9, 41678, Note_on_c, 7, 63, 0
9, 41678, Note_on_c, 7, 55, 0
9, 41679, Note_on_c, 7, 67, 0
9, 41680, Note_on_c, 7, 55, 47
9, 41680, Note_on_c, 7, 63, 47
9, 41680, Note_on_c, 7, 67, 48
9, 41698, Note_on_c, 7, 63, 0
9, 41698, Note_on_c, 7, 55, 0
9, 41699, Note_on_c, 7, 67, 0
9, 41700, Note_on_c, 7, 55, 47
9, 41700, Note_on_c, 7, 63, 47
9, 41718, Note_on_c, 7, 63, 0
9, 41718, Note_on_c, 7, 55, 0
9, 41720, Note_on_c, 7, 55, 47
9, 41720, Note_on_c, 7, 63, 47
9, 41720, Note_on_c, 7, 72, 48
9, 41738, Note_on_c, 7, 63, 0
9, 41738, Note_on_c, 7, 55, 0
9, 41739, Note_on_c, 7, 72, 0
9, 41740, Note_on_c, 7, 55, 47
9, 41740, Note_on_c, 7, 63, 47
9, 41740, Note_on_c, 7, 72, 48
9, 41758, Note_on_c, 7, 55, 0
9, 41759, Note_on_c, 7, 72, 0
9, 41759, Note_on_c, 7, 63, 0
9, 41760, Note_on_c, 7, 55, 47
9, 41760, Note_on_c, 7, 63, 47
9, 41778, Note_on_c, 7, 63, 0
9, 41778, Note_on_c, 7, 55, 0
9, 41780, Note_on_c, 7, 55, 47
9, 41780, Note_on_c, 7, 63, 47
9, 41780, Note_on_c, 7, 67, 48
9, 41798, Note_on_c, 7, 63, 0
9, 41798, Note_on_c, 7, 55, 0
9, 41799, Note_on_c, 7, 67, 0
9, 41800, Note_on_c, 7, 55, 47
9, 41800, Note_on_c, 7, 63, 47
9, 41800, Note_on_c, 7, 67, 48
9, 41818, Note_on_c, 7, 63, 0
9, 41818, Note_on_c, 7, 55, 0
9, 41819, Note_on_c, 7, 67, 0
9, 41820, Note_on_c, 7, 55, 47
9, 41820, Note_on_c, 7, 63, 47
9, 41838, Note_on_c, 7, 63, 0
9, 41838, Note_on_c, 7, 55, 0
9, 41840, Note_on_c, 7, 55, 47
9, 41840, Note_on_c, 7, 63, 47
9, 41840, Note_on_c, 7, 75, 48
9, 41858, Note_on_c, 7, 63, 0
9, 41858, Note_on_c, 7, 55, 0
9, 41859, Note_on_c, 7, 75, 0
9, 41860, Note_on_c, 7, 55, 47
9, 41860, Note_on_c, 7, 63, 47
9, 41860, Note_on_c, 7, 75, 48
9, 41878, Note_on_c, 7, 63, 0
9, 41878, Note_on_c, 7, 55, 0
9, 41879, Note_on_c, 7, 75, 0
9, 41880, Note_on_c, 7, 55, 47
9, 41880, Note_on_c, 7, 63, 47
9, 41898, Note_on_c, 7, 63, 0
9, 41898, Note_on_c, 7, 55, 0
9, 41900, Note_on_c, 7, 55, 47
9, 41900, Note_on_c, 7, 63, 47
9, 41900, Note_on_c, 7, 67, 48
9, 41918, Note_on_c, 7, 63, 0
9, 41918, Note_on_c, 7, 55, 0
9, 41919, Note_on_c, 7, 67, 0
9, 41920, Note_on_c, 7, 55, 47
9, 41920, Note_on_c, 7, 63, 47
9, 41920, Note_on_c, 7, 67, 48
9, 41938, Note_on_c, 7, 63, 0
9, 41938, Note_on_c, 7, 55, 0
9, 41939, Note_on_c, 7, 67, 0
9, 41940, Note_on_c, 7, 55, 47
9, 41940, Note_on_c, 7, 63, 47
9, 41958, Note_on_c, 7, 63, 0
9, 41958, Note_on_c, 7, 55, 0
9, 41960, Note_on_c, 7, 55, 47
9, 41960, Note_on_c, 7, 63, 47
9, 41960, Note_on_c, 7, 79, 48
9, 41978, Note_on_c, 7, 63, 0
9, 41978, Note_on_c, 7, 55, 0
9, 41979, Note_on_c, 7, 79, 0
9, 41980, Note_on_c, 7, 55, 47
9, 41980, Note_on_c, 7, 63, 47
9, 41980, Note_on_c, 7, 79, 48
9, 41998, Note_on_c, 7, 55, 0
9, 41999, Note_on_c, 7, 79, 0
9, 41999, Note_on_c, 7, 63, 0
9, 42000, Note_on_c, 7, 55, 47
9, 42000, Note_on_c, 7, 63, 47
9, 42018, Note_on_c, 7, 63, 0
9, 42018, Note_on_c, 7, 55, 0
9, 42020, Note_on_c, 7, 55, 47
9, 42020, Note_on_c, 7, 63, 47
9, 42020, Note_on_c, 7, 67, 48
9, 42038, Note_on_c, 7, 63, 0
9, 42038, Note_on_c, 7, 55, 0
9, 42039, Note_on_c, 7, 67, 0
9, 42040, Note_on_c, 7, 55, 47
9, 42040, Note_on_c, 7, 63, 47
9, 42040, Note_on_c, 7, 67, 48
9, 42058, Note_on_c, 7, 63, 0
9, 42058, Note_on_c, 7, 55, 0
9, 42059, Note_on_c, 7, 67, 0
9, 42060, Note_on_c, 7, 55, 47
9, 42060, Note_on_c, 7, 63, 47
9, 42078, Note_on_c, 7, 63, 0
9, 42078, Note_on_c, 7, 55, 0
9, 42080, Note_on_c, 7, 55, 47
9, 42080, Note_on_c, 7, 63, 47
9, 42080, Note_on_c, 7, 68, 48
9, 42098, Note_on_c, 7, 63, 0
9, 42098, Note_on_c, 7, 55, 0
9, 42099, Note_on_c, 7, 68, 0
9, 42100, Note_on_c, 7, 55, 47
9, 42100, Note_on_c, 7, 63, 47
9, 42100, Note_on_c, 7, 68, 48
9, 42118, Note_on_c, 7, 63, 0
9, 42118, Note_on_c, 7, 55, 0
9, 42119, Note_on_c, 7, 68, 0
9, 42120, Note_on_c, 7, 55, 47
9, 42120, Note_on_c, 7, 63, 47
9, 42138, Note_on_c, 7, 63, 0
9, 42138, Note_on_c, 7, 55, 0
9, 42140, Note_on_c, 7, 55, 47
9, 42140, Note_on_c, 7, 63, 47
9, 42140, Note_on_c, 7, 67, 48
9, 42158, Note_on_c, 7, 63, 0
9, 42158, Note_on_c, 7, 55, 0
9, 42159, Note_on_c, 7, 67, 0
9, 42160, Note_on_c, 7, 55, 47
9, 42160, Note_on_c, 7, 63, 47
9, 42160, Note_on_c, 7, 67, 48
9, 42178, Note_on_c, 7, 63, 0
9, 42178, Note_on_c, 7, 55, 0
9, 42179, Note_on_c, 7, 67, 0
9, 42180, Note_on_c, 7, 55, 47
9, 42180, Note_on_c, 7, 63, 47
9, 42198, Note_on_c, 7, 63, 0
9, 42198, Note_on_c, 7, 55, 0
9, 42200, Note_on_c, 7, 55, 47
9, 42200, Note_on_c, 7, 63, 47
9, 42200, Note_on_c, 7, 72, 48
9, 42218, Note_on_c, 7, 63, 0
9, 42218, Note_on_c, 7, 55, 0
9, 42219, Note_on_c, 7, 72, 0
9, 42220, Note_on_c, 7, 55, 47
9, 42220, Note_on_c, 7, 63, 47
9, 42220, Note_on_c, 7, 72, 48
9, 42238, Note_on_c, 7, 55, 0
9, 42239, Note_on_c, 7, 72, 0
9, 42239, Note_on_c, 7, 63, 0
9, 42240, Note_on_c, 7, 63, 47
9, 42240, Note_on_c, 7, 55, 47
9, 42258, Note_on_c, 7, 55, 0
9, 42258, Note_on_c, 7, 63, 0
9, 42260, Note_on_c, 7, 63, 47
9, 42260, Note_on_c, 7, 55, 47
9, 42260, Note_on_c, 7, 67, 48
9, 42278, Note_on_c, 7, 55, 0
9, 42278, Note_on_c, 7, 63, 0
9, 42279, Note_on_c, 7, 67, 0
9, 42280, Note_on_c, 7, 55, 47
9, 42280, Note_on_c, 7, 63, 47
9, 42280, Note_on_c, 7, 67, 48
9, 42298, Note_on_c, 7, 63, 0
9, 42298, Note_on_c, 7, 55, 0
9, 42299, Note_on_c, 7, 67, 0
9, 42300, Note_on_c, 7, 63, 47
9, 42300, Note_on_c, 7, 55, 47
9, 42318, Note_on_c, 7, 55, 0
9, 42318, Note_on_c, 7, 63, 0
9, 42320, Note_on_c, 7, 55, 47
9, 42320, Note_on_c, 7, 63, 47
9, 42320, Note_on_c, 7, 75, 48
9, 42338, Note_on_c, 7, 63, 0
9, 42338, Note_on_c, 7, 55, 0
9, 42339, Note_on_c, 7, 75, 0
9, 42340, Note_on_c, 7, 63, 47
9, 42340, Note_on_c, 7, 55, 47
9, 42340, Note_on_c, 7, 75, 48
9, 42358, Note_on_c, 7, 55, 0
9, 42358, Note_on_c, 7, 63, 0
9, 42359, Note_on_c, 7, 75, 0
9, 42360, Note_on_c, 7, 55, 47
9, 42360, Note_on_c, 7, 62, 47
9, 42378, Note_on_c, 7, 62, 0
9, 42378, Note_on_c, 7, 55, 0
9, 42380, Note_on_c, 7, 62, 47
9, 42380, Note_on_c, 7, 55, 47
9, 42380, Note_on_c, 7, 67, 48
9, 42398, Note_on_c, 7, 55, 0
9, 42398, Note_on_c, 7, 62, 0
9, 42399, Note_on_c, 7, 67, 0
9, 42400, Note_on_c, 7, 55, 47
9, 42400, Note_on_c, 7, 62, 47
9, 42400, Note_on_c, 7, 67, 48
9, 42418, Note_on_c, 7, 62, 0
9, 42418, Note_on_c, 7, 55, 0
9, 42419, Note_on_c, 7, 67, 0
9, 42420, Note_on_c, 7, 62, 47
9, 42420, Note_on_c, 7, 55, 47
9, 42438, Note_on_c, 7, 55, 0
9, 42438, Note_on_c, 7, 62, 0
9, 42440, Note_on_c, 7, 62, 47
9, 42440, Note_on_c, 7, 55, 47
9, 42440, Note_on_c, 7, 79, 48
9, 42458, Note_on_c, 7, 55, 0
9, 42458, Note_on_c, 7, 62, 0
9, 42459, Note_on_c, 7, 79, 0
9, 42460, Note_on_c, 7, 62, 47
9, 42460, Note_on_c, 7, 55, 47
9, 42460, Note_on_c, 7, 79, 48
9, 42478, Note_on_c, 7, 55, 0
9, 42478, Note_on_c, 7, 62, 0
9, 42479, Note_on_c, 7, 79, 0
9, 42480, Note_on_c, 7, 62, 47
9, 42480, Note_on_c, 7, 59, 47
9, 42498, Note_on_c, 7, 59, 0
9, 42498, Note_on_c, 7, 62, 0
9, 42500, Note_on_c, 7, 62, 47
9, 42500, Note_on_c, 7, 59, 47
9, 42500, Note_on_c, 7, 65, 48
9, 42518, Note_on_c, 7, 59, 0
9, 42518, Note_on_c, 7, 62, 0
9, 42519, Note_on_c, 7, 65, 0
9, 42520, Note_on_c, 7, 62, 47
9, 42520, Note_on_c, 7, 59, 47
9, 42520, Note_on_c, 7, 65, 48
9, 42538, Note_on_c, 7, 59, 0
9, 42538, Note_on_c, 7, 62, 0
9, 42539, Note_on_c, 7, 65, 0
9, 42540, Note_on_c, 7, 62, 47
9, 42540, Note_on_c, 7, 59, 47
9, 42558, Note_on_c, 7, 59, 0
9, 42558, Note_on_c, 7, 62, 0
9, 42560, Note_on_c, 7, 62, 47
9, 42560, Note_on_c, 7, 59, 47
9, 42560, Note_on_c, 7, 74, 48
9, 42578, Note_on_c, 7, 59, 0
9, 42578, Note_on_c, 7, 62, 0
9, 42579, Note_on_c, 7, 74, 0
9, 42580, Note_on_c, 7, 59, 47
9, 42580, Note_on_c, 7, 62, 47
9, 42580, Note_on_c, 7, 74, 48
9, 42598, Note_on_c, 7, 62, 0
9, 42598, Note_on_c, 7, 59, 0
9, 42599, Note_on_c, 7, 74, 0
9, 42600, Note_on_c, 7, 59, 47
9, 42600, Note_on_c, 7, 62, 47
9, 42618, Note_on_c, 7, 62, 0
9, 42618, Note_on_c, 7, 59, 0
9, 42620, Note_on_c, 7, 62, 47
9, 42620, Note_on_c, 7, 59, 47
9, 42620, Note_on_c, 7, 71, 48
9, 42638, Note_on_c, 7, 59, 0
9, 42638, Note_on_c, 7, 62, 0
9, 42639, Note_on_c, 7, 71, 0
9, 42640, Note_on_c, 7, 59, 47
9, 42640, Note_on_c, 7, 62, 47
9, 42640, Note_on_c, 7, 71, 48
9, 42658, Note_on_c, 7, 62, 0
9, 42658, Note_on_c, 7, 59, 0
9, 42659, Note_on_c, 7, 71, 0
9, 42660, Note_on_c, 7, 62, 47
9, 42660, Note_on_c, 7, 59, 47
9, 42678, Note_on_c, 7, 59, 0
9, 42678, Note_on_c, 7, 62, 0
9, 42680, Note_on_c, 7, 59, 47
9, 42680, Note_on_c, 7, 62, 47
9, 42680, Note_on_c, 7, 77, 48
9, 42698, Note_on_c, 7, 62, 0
9, 42698, Note_on_c, 7, 59, 0
9, 42699, Note_on_c, 7, 77, 0
9, 42700, Note_on_c, 7, 62, 47
9, 42700, Note_on_c, 7, 59, 47
9, 42700, Note_on_c, 7, 77, 48
9, 42718, Note_on_c, 7, 59, 0
9, 42718, Note_on_c, 7, 62, 0
9, 42719, Note_on_c, 7, 77, 0
9, 42720, Note_on_c, 7, 62, 46
9, 42720, Note_on_c, 7, 59, 46
9, 42738, Note_on_c, 7, 59, 0
9, 42738, Note_on_c, 7, 62, 0
9, 42740, Note_on_c, 7, 59, 48
9, 42740, Note_on_c, 7, 68, 48
9, 42740, Note_on_c, 7, 74, 49
9, 42758, Note_on_c, 7, 68, 0
9, 42758, Note_on_c, 7, 59, 0
9, 42759, Note_on_c, 7, 74, 0
9, 42760, Note_on_c, 7, 59, 49
9, 42760, Note_on_c, 7, 68, 49
9, 42760, Note_on_c, 7, 74, 50
9, 42778, Note_on_c, 7, 68, 0
9, 42778, Note_on_c, 7, 59, 0
9, 42779, Note_on_c, 7, 74, 0
9, 42780, Note_on_c, 7, 59, 51
9, 42780, Note_on_c, 7, 68, 51
9, 42798, Note_on_c, 7, 68, 0
9, 42798, Note_on_c, 7, 59, 0
9, 42800, Note_on_c, 7, 59, 52
9, 42800, Note_on_c, 7, 68, 52
9, 42800, Note_on_c, 7, 80, 53
9, 42818, Note_on_c, 7, 68, 0
9, 42818, Note_on_c, 7, 59, 0
9, 42819, Note_on_c, 7, 80, 0
9, 42820, Note_on_c, 7, 59, 53
9, 42820, Note_on_c, 7, 68, 53
9, 42820, Note_on_c, 7, 80, 54
9, 42838, Note_on_c, 7, 68, 0
9, 42838, Note_on_c, 7, 59, 0
9, 42839, Note_on_c, 7, 80, 0
9, 42840, Note_on_c, 7, 68, 55
9, 42840, Note_on_c, 7, 59, 55
9, 42858, Note_on_c, 7, 59, 0
9, 42858, Note_on_c, 7, 68, 0
9, 42860, Note_on_c, 7, 59, 56
9, 42860, Note_on_c, 7, 68, 56
9, 42860, Note_on_c, 7, 80, 57
9, 42878, Note_on_c, 7, 68, 0
9, 42878, Note_on_c, 7, 59, 0
9, 42879, Note_on_c, 7, 80, 0
9, 42880, Note_on_c, 7, 59, 58
9, 42880, Note_on_c, 7, 68, 58
9, 42880, Note_on_c, 7, 80, 58
9, 42898, Note_on_c, 7, 68, 0
9, 42898, Note_on_c, 7, 59, 0
9, 42899, Note_on_c, 7, 80, 0
9, 42900, Note_on_c, 7, 59, 59
9, 42900, Note_on_c, 7, 68, 59
9, 42918, Note_on_c, 7, 68, 0
9, 42918, Note_on_c, 7, 59, 0
9, 42920, Note_on_c, 7, 59, 61
9, 42920, Note_on_c, 7, 68, 61
9, 42920, Note_on_c, 7, 80, 61
9, 42938, Note_on_c, 7, 68, 0
9, 42938, Note_on_c, 7, 59, 0
9, 42939, Note_on_c, 7, 80, 0
9, 42940, Note_on_c, 7, 59, 62
9, 42940, Note_on_c, 7, 68, 62
9, 42940, Note_on_c, 7, 80, 62
9, 42958, Note_on_c, 7, 68, 0
9, 42958, Note_on_c, 7, 59, 0
9, 42959, Note_on_c, 7, 80, 0
9, 42960, Note_on_c, 7, 58, 63
9, 42960, Note_on_c, 7, 68, 63
9, 42978, Note_on_c, 7, 68, 0
9, 42978, Note_on_c, 7, 58, 0
9, 42980, Note_on_c, 7, 58, 62
9, 42980, Note_on_c, 7, 68, 62
9, 42980, Note_on_c, 7, 80, 61
9, 42998, Note_on_c, 7, 68, 0
9, 42998, Note_on_c, 7, 58, 0
9, 42999, Note_on_c, 7, 80, 0
9, 43000, Note_on_c, 7, 58, 61
9, 43000, Note_on_c, 7, 68, 61
9, 43000, Note_on_c, 7, 80, 60
9, 43018, Note_on_c, 7, 68, 0
9, 43018, Note_on_c, 7, 58, 0
9, 43019, Note_on_c, 7, 80, 0
9, 43040, Note_on_c, 7, 62, 58
9, 43040, Note_on_c, 7, 65, 57
9, 43058, Note_on_c, 7, 62, 0
9, 43059, Note_on_c, 7, 65, 0
9, 43060, Note_on_c, 7, 62, 57
9, 43060, Note_on_c, 7, 65, 56
9, 43078, Note_on_c, 7, 62, 0
9, 43079, Note_on_c, 7, 65, 0
9, 43100, Note_on_c, 7, 63, 54
9, 43100, Note_on_c, 7, 67, 53
9, 43118, Note_on_c, 7, 63, 0
9, 43119, Note_on_c, 7, 67, 0
9, 43120, Note_on_c, 7, 63, 53
9, 43120, Note_on_c, 7, 67, 52
9, 43138, Note_on_c, 7, 63, 0
9, 43139, Note_on_c, 7, 67, 0
9, 43160, Note_on_c, 7, 65, 50
9, 43160, Note_on_c, 7, 68, 49
9, 43178, Note_on_c, 7, 65, 0
9, 43179, Note_on_c, 7, 68, 0
9, 43180, Note_on_c, 7, 65, 49
9, 43180, Note_on_c, 7, 68, 48
9, 43198, Note_on_c, 7, 65, 0
9, 43199, Note_on_c, 7, 68, 0
9, 43220, Note_on_c, 7, 63, 47
9, 43220, Note_on_c, 7, 67, 47
9, 43238, Note_on_c, 7, 63, 0
9, 43239, Note_on_c, 7, 67, 0
9, 43240, Note_on_c, 7, 63, 47
9, 43240, Note_on_c, 7, 67, 47
9, 43258, Note_on_c, 7, 63, 0
9, 43259, Note_on_c, 7, 67, 0
9, 43280, Note_on_c, 7, 63, 47
9, 43280, Note_on_c, 7, 68, 47
9, 43298, Note_on_c, 7, 63, 0
9, 43299, Note_on_c, 7, 68, 0
9, 43300, Note_on_c, 7, 63, 47
9, 43300, Note_on_c, 7, 68, 47
9, 43318, Note_on_c, 7, 63, 0
9, 43319, Note_on_c, 7, 68, 0
9, 43320, Note_on_c, 7, 63, 47
9, 43320, Note_on_c, 7, 67, 47
9, 43379, Note_on_c, 7, 63, 0
9, 43380, Note_on_c, 7, 58, 47
9, 43385, Note_on_c, 7, 67, 0
9, 43440, Note_on_c, 7, 58, 0
9, 43440, Note_on_c, 7, 58, 47
9, 43440, Note_on_c, 7, 63, 47
9, 43560, Note_on_c, 7, 56, 47
9, 43560, Note_on_c, 7, 62, 47
9, 43561, Note_on_c, 7, 63, 0
9, 43561, Note_on_c, 7, 58, 0
9, 43620, Note_on_c, 7, 55, 47
9, 43620, Note_on_c, 7, 60, 47
9, 43621, Note_on_c, 7, 56, 0
9, 43621, Note_on_c, 7, 62, 0
9, 43680, Note_on_c, 7, 56, 48
9, 43680, Note_on_c, 7, 58, 47
9, 43682, Note_on_c, 7, 55, 0
9, 43684, Note_on_c, 7, 60, 0
9, 43829, Note_on_c, 7, 58, 0
9, 43830, Note_on_c, 7, 58, 47
9, 43837, Note_on_c, 7, 58, 0
9, 43845, Note_on_c, 7, 60, 54
9, 43852, Note_on_c, 7, 60, 0
9, 43860, Note_on_c, 7, 62, 61
9, 43867, Note_on_c, 7, 62, 0
9, 43875, Note_on_c, 7, 63, 68
9, 43882, Note_on_c, 7, 63, 0
9, 43890, Note_on_c, 7, 65, 75
9, 43897, Note_on_c, 7, 65, 0
9, 43905, Note_on_c, 7, 67, 82
9, 43912, Note_on_c, 7, 67, 0
9, 43919, Note_on_c, 7, 56, 0
9, 43920, Note_on_c, 7, 63, 95
9, 43920, Note_on_c, 7, 70, 95
9, 44010, Note_on_c, 7, 68, 78
9, 44011, Note_on_c, 7, 70, 0
9, 44040, Note_on_c, 7, 62, 71
9, 44040, Note_on_c, 7, 67, 72
9, 44041, Note_on_c, 7, 68, 0
9, 44041, Note_on_c, 7, 63, 0
9, 44100, Note_on_c, 7, 60, 60
9, 44100, Note_on_c, 7, 65, 60
9, 44101, Note_on_c, 7, 62, 0
9, 44101, Note_on_c, 7, 67, 0
9, 44160, Note_on_c, 7, 58, 48
9, 44160, Note_on_c, 7, 64, 48
9, 44161, Note_on_c, 7, 60, 0
9, 44161, Note_on_c, 7, 65, 0
9, 44219, Note_on_c, 7, 58, 0
9, 44220, Note_on_c, 7, 64, 0
9, 44265, Note_on_c, 7, 67, 97
9, 44265, Note_on_c, 7, 70, 95
9, 44272, Note_on_c, 7, 70, 0
9, 44272, Note_on_c, 7, 67, 0
9, 44280, Note_on_c, 7, 67, 97
9, 44280, Note_on_c, 7, 70, 95
9, 44400, Note_on_c, 7, 70, 0
9, 44400, Note_on_c, 7, 67, 0
9, 44520, Note_on_c, 7, 65, 47
9, 44520, Note_on_c, 7, 68, 48
9, 44580, Note_on_c, 7, 63, 47
9, 44580, Note_on_c, 7, 67, 48
9, 44582, Note_on_c, 7, 68, 0
9, 44582, Note_on_c, 7, 65, 0
9, 44640, Note_on_c, 7, 66, 48
9, 44641, Note_on_c, 7, 67, 0
9, 44700, Note_on_c, 7, 60, 47
9, 44703, Note_on_c, 7, 63, 0
9, 44759, Note_on_c, 7, 60, 0
9, 44760, Note_on_c, 7, 60, 47
9, 44760, Note_on_c, 7, 72, 48
9, 44761, Note_on_c, 7, 66, 0
9, 44820, Note_on_c, 7, 63, 47
9, 44821, Note_on_c, 7, 60, 0
9, 44850, Note_on_c, 7, 66, 48
9, 44851, Note_on_c, 7, 72, 0
9, 44879, Note_on_c, 7, 66, 0
9, 44880, Note_on_c, 7, 59, 47
9, 44880, Note_on_c, 7, 67, 48
9, 44881, Note_on_c, 7, 63, 0
9, 44899, Note_on_c, 7, 67, 0
9, 44900, Note_on_c, 7, 67, 48
9, 44919, Note_on_c, 7, 67, 0
9, 44920, Note_on_c, 7, 67, 48
9, 44939, Note_on_c, 7, 67, 0
9, 44940, Note_on_c, 7, 59, 0
9, 44940, Note_on_c, 7, 67, 48
9, 44959, Note_on_c, 7, 67, 0
9, 44960, Note_on_c, 7, 67, 48
9, 44979, Note_on_c, 7, 67, 0
9, 44980, Note_on_c, 7, 67, 48
9, 44999, Note_on_c, 7, 67, 0
9, 45020, Note_on_c, 7, 67, 48
9, 45039, Note_on_c, 7, 67, 0
9, 45040, Note_on_c, 7, 67, 48
9, 45059, Note_on_c, 7, 67, 0
9, 45080, Note_on_c, 7, 67, 48
9, 45099, Note_on_c, 7, 67, 0
9, 45100, Note_on_c, 7, 67, 48
9, 45119, Note_on_c, 7, 67, 0
9, 45120, Note_on_c, 7, 67, 48
9, 45139, Note_on_c, 7, 67, 0
9, 45140, Note_on_c, 7, 67, 48
9, 45159, Note_on_c, 7, 67, 0
9, 45160, Note_on_c, 7, 67, 48
9, 45179, Note_on_c, 7, 67, 0
9, 45180, Note_on_c, 7, 67, 48
9, 45199, Note_on_c, 7, 67, 0
9, 45200, Note_on_c, 7, 67, 48
9, 45219, Note_on_c, 7, 67, 0
9, 45220, Note_on_c, 7, 67, 48
9, 45239, Note_on_c, 7, 67, 0
9, 45260, Note_on_c, 7, 67, 48
9, 45279, Note_on_c, 7, 67, 0
9, 45280, Note_on_c, 7, 67, 48
9, 45299, Note_on_c, 7, 67, 0
9, 45320, Note_on_c, 7, 67, 48
9, 45339, Note_on_c, 7, 67, 0
9, 45340, Note_on_c, 7, 67, 48
9, 45359, Note_on_c, 7, 67, 0
9, 45360, Note_on_c, 7, 67, 46
9, 45362, Note_on_c, 7, 79, 48
9, 45378, Note_on_c, 7, 67, 0
9, 45380, Note_on_c, 7, 67, 47
9, 45398, Note_on_c, 7, 67, 0
9, 45400, Note_on_c, 7, 67, 48
9, 45418, Note_on_c, 7, 67, 0
9, 45420, Note_on_c, 7, 67, 50
9, 45438, Note_on_c, 7, 67, 0
9, 45440, Note_on_c, 7, 67, 51
9, 45458, Note_on_c, 7, 67, 0
9, 45460, Note_on_c, 7, 67, 53
9, 45478, Note_on_c, 7, 67, 0
9, 45480, Note_on_c, 7, 74, 55
9, 45484, Note_on_c, 7, 79, 0
9, 45500, Note_on_c, 7, 67, 55
9, 45518, Note_on_c, 7, 67, 0
9, 45520, Note_on_c, 7, 67, 57
9, 45538, Note_on_c, 7, 67, 0
9, 45540, Note_on_c, 7, 77, 59
9, 45541, Note_on_c, 7, 74, 0
9, 45560, Note_on_c, 7, 67, 59
9, 45578, Note_on_c, 7, 67, 0
9, 45580, Note_on_c, 7, 67, 61
9, 45598, Note_on_c, 7, 67, 0
9, 45600, Note_on_c, 7, 67, 63
9, 45600, Note_on_c, 7, 75, 63
9, 45601, Note_on_c, 7, 77, 0
9, 45618, Note_on_c, 7, 67, 0
9, 45620, Note_on_c, 7, 67, 62
9, 45638, Note_on_c, 7, 67, 0
9, 45640, Note_on_c, 7, 67, 61
9, 45658, Note_on_c, 7, 67, 0
9, 45660, Note_on_c, 7, 67, 59
9, 45678, Note_on_c, 7, 67, 0
9, 45680, Note_on_c, 7, 67, 58
9, 45698, Note_on_c, 7, 67, 0
9, 45700, Note_on_c, 7, 67, 57
9, 45718, Note_on_c, 7, 67, 0
9, 45720, Note_on_c, 7, 74, 56
9, 45721, Note_on_c, 7, 75, 0
9, 45740, Note_on_c, 7, 67, 54
9, 45758, Note_on_c, 7, 67, 0
9, 45760, Note_on_c, 7, 67, 53
9, 45778, Note_on_c, 7, 67, 0
9, 45780, Note_on_c, 7, 72, 52
9, 45781, Note_on_c, 7, 74, 0
9, 45800, Note_on_c, 7, 66, 50
9, 45818, Note_on_c, 7, 66, 0
9, 45820, Note_on_c, 7, 66, 49
9, 45838, Note_on_c, 7, 66, 0
9, 45840, Note_on_c, 7, 67, 48
9, 45840, Note_on_c, 7, 71, 48
9, 45841, Note_on_c, 7, 72, 0
9, 45852, Note_on_c, 7, 71, 0
9, 45855, Note_on_c, 7, 67, 0
9, 45855, Note_on_c, 7, 55, 47
9, 45855, Note_on_c, 7, 67, 48
9, 45867, Note_on_c, 7, 67, 0
9, 45867, Note_on_c, 7, 55, 0
9, 45870, Note_on_c, 7, 55, 47
9, 45870, Note_on_c, 7, 67, 48
9, 45882, Note_on_c, 7, 67, 0
9, 45882, Note_on_c, 7, 55, 0
9, 45885, Note_on_c, 7, 55, 47
9, 45885, Note_on_c, 7, 67, 48
9, 45897, Note_on_c, 7, 67, 0
9, 45897, Note_on_c, 7, 55, 0
9, 45915, Note_on_c, 7, 56, 47
9, 45915, Note_on_c, 7, 68, 48
9, 45927, Note_on_c, 7, 68, 0
9, 45927, Note_on_c, 7, 56, 0
9, 45930, Note_on_c, 7, 56, 47
9, 45930, Note_on_c, 7, 68, 48
9, 45942, Note_on_c, 7, 68, 0
9, 45942, Note_on_c, 7, 56, 0
9, 45945, Note_on_c, 7, 56, 47
9, 45945, Note_on_c, 7, 68, 48
9, 45957, Note_on_c, 7, 68, 0
9, 45957, Note_on_c, 7, 56, 0
9, 45975, Note_on_c, 7, 55, 47
9, 45975, Note_on_c, 7, 67, 48
9, 45987, Note_on_c, 7, 67, 0
9, 45987, Note_on_c, 7, 55, 0
9, 45990, Note_on_c, 7, 55, 47
9, 45990, Note_on_c, 7, 67, 48
9, 46002, Note_on_c, 7, 55, 0
9, 46004, Note_on_c, 7, 67, 0
9, 46005, Note_on_c, 7, 55, 47
9, 46005, Note_on_c, 7, 67, 48
9, 46017, Note_on_c, 7, 67, 0
9, 46017, Note_on_c, 7, 55, 0
9, 46035, Note_on_c, 7, 60, 47
9, 46035, Note_on_c, 7, 72, 48
9, 46047, Note_on_c, 7, 72, 0
9, 46047, Note_on_c, 7, 60, 0
9, 46050, Note_on_c, 7, 60, 47
9, 46050, Note_on_c, 7, 60, 47
9, 46050, Note_on_c, 7, 72, 48
9, 46056, Note_on_c, 7, 60, 0
9, 46062, Note_on_c, 7, 72, 0
9, 46062, Note_on_c, 7, 60, 0
9, 46065, Note_on_c, 7, 60, 47
9, 46065, Note_on_c, 7, 72, 48
9, 46073, Note_on_c, 7, 72, 0
9, 46077, Note_on_c, 7, 60, 0
9, 46095, Note_on_c, 7, 59, 47
9, 46095, Note_on_c, 7, 71, 48
9, 46107, Note_on_c, 7, 71, 0
9, 46109, Note_on_c, 7, 59, 0
9, 46110, Note_on_c, 7, 59, 47
9, 46110, Note_on_c, 7, 71, 48
9, 46122, Note_on_c, 7, 71, 0
9, 46122, Note_on_c, 7, 59, 0
9, 46125, Note_on_c, 7, 59, 47
9, 46125, Note_on_c, 7, 71, 48
9, 46130, Note_on_c, 7, 71, 0
9, 46137, Note_on_c, 7, 59, 0
9, 46155, Note_on_c, 7, 63, 47
9, 46155, Note_on_c, 7, 75, 48
9, 46167, Note_on_c, 7, 75, 0
9, 46167, Note_on_c, 7, 63, 0
9, 46170, Note_on_c, 7, 63, 47
9, 46170, Note_on_c, 7, 75, 48
9, 46176, Note_on_c, 7, 75, 0
9, 46182, Note_on_c, 7, 63, 0
9, 46185, Note_on_c, 7, 63, 47
9, 46185, Note_on_c, 7, 75, 48
9, 46197, Note_on_c, 7, 75, 0
9, 46197, Note_on_c, 7, 63, 0
9, 46215, Note_on_c, 7, 62, 47
9, 46215, Note_on_c, 7, 74, 48
9, 46227, Note_on_c, 7, 74, 0
9, 46227, Note_on_c, 7, 62, 0
9, 46230, Note_on_c, 7, 62, 47
9, 46230, Note_on_c, 7, 74, 48
9, 46236, Note_on_c, 7, 74, 0
9, 46242, Note_on_c, 7, 62, 0
9, 46245, Note_on_c, 7, 62, 47
9, 46245, Note_on_c, 7, 74, 48
9, 46257, Note_on_c, 7, 74, 0
9, 46257, Note_on_c, 7, 62, 0
9, 46275, Note_on_c, 7, 60, 47
9, 46275, Note_on_c, 7, 72, 48
9, 46287, Note_on_c, 7, 72, 0
9, 46287, Note_on_c, 7, 60, 0
9, 46290, Note_on_c, 7, 60, 47
9, 46290, Note_on_c, 7, 72, 48
9, 46302, Note_on_c, 7, 72, 0
9, 46302, Note_on_c, 7, 60, 0
9, 46305, Note_on_c, 7, 60, 47
9, 46305, Note_on_c, 7, 72, 48
9, 46317, Note_on_c, 7, 72, 0
9, 46317, Note_on_c, 7, 60, 0
9, 46335, Note_on_c, 7, 59, 47
9, 46335, Note_on_c, 7, 71, 49
9, 46347, Note_on_c, 7, 71, 0
9, 46347, Note_on_c, 7, 59, 0
9, 46350, Note_on_c, 7, 59, 47
9, 46350, Note_on_c, 7, 71, 51
9, 46362, Note_on_c, 7, 71, 0
9, 46362, Note_on_c, 7, 59, 0
9, 46365, Note_on_c, 7, 59, 47
9, 46365, Note_on_c, 7, 71, 53
9, 46377, Note_on_c, 7, 71, 0
9, 46377, Note_on_c, 7, 59, 0
9, 46380, Note_on_c, 7, 59, 47
9, 46380, Note_on_c, 7, 71, 55
9, 46392, Note_on_c, 7, 71, 0
9, 46392, Note_on_c, 7, 59, 0
9, 46395, Note_on_c, 7, 59, 47
9, 46395, Note_on_c, 7, 71, 57
9, 46407, Note_on_c, 7, 71, 0
9, 46407, Note_on_c, 7, 59, 0
9, 46410, Note_on_c, 7, 59, 47
9, 46410, Note_on_c, 7, 71, 59
9, 46422, Note_on_c, 7, 71, 0
9, 46422, Note_on_c, 7, 59, 0
9, 46425, Note_on_c, 7, 59, 47
9, 46425, Note_on_c, 7, 71, 61
9, 46435, Note_on_c, 7, 71, 0
9, 46437, Note_on_c, 7, 59, 0
9, 46455, Note_on_c, 7, 56, 47
9, 46455, Note_on_c, 7, 68, 65
9, 46467, Note_on_c, 7, 68, 0
9, 46467, Note_on_c, 7, 56, 0
9, 46470, Note_on_c, 7, 56, 47
9, 46470, Note_on_c, 7, 68, 67
9, 46482, Note_on_c, 7, 68, 0
9, 46482, Note_on_c, 7, 56, 0
9, 46485, Note_on_c, 7, 56, 47
9, 46485, Note_on_c, 7, 68, 69
9, 46497, Note_on_c, 7, 68, 0
9, 46497, Note_on_c, 7, 56, 0
9, 46500, Note_on_c, 7, 56, 47
9, 46500, Note_on_c, 7, 68, 71
9, 46512, Note_on_c, 7, 68, 0
9, 46512, Note_on_c, 7, 56, 0
9, 46515, Note_on_c, 7, 56, 47
9, 46515, Note_on_c, 7, 68, 73
9, 46527, Note_on_c, 7, 68, 0
9, 46527, Note_on_c, 7, 56, 0
9, 46530, Note_on_c, 7, 56, 47
9, 46530, Note_on_c, 7, 68, 75
9, 46542, Note_on_c, 7, 68, 0
9, 46542, Note_on_c, 7, 56, 0
9, 46545, Note_on_c, 7, 56, 47
9, 46545, Note_on_c, 7, 68, 77
9, 46557, Note_on_c, 7, 68, 0
9, 46557, Note_on_c, 7, 56, 0
9, 46575, Note_on_c, 7, 55, 47
9, 46575, Note_on_c, 7, 67, 81
9, 46587, Note_on_c, 7, 67, 0
9, 46587, Note_on_c, 7, 55, 0
9, 46590, Note_on_c, 7, 55, 47
9, 46590, Note_on_c, 7, 67, 83
9, 46602, Note_on_c, 7, 67, 0
9, 46602, Note_on_c, 7, 55, 0
9, 46605, Note_on_c, 7, 55, 47
9, 46605, Note_on_c, 7, 67, 85
9, 46617, Note_on_c, 7, 67, 0
9, 46617, Note_on_c, 7, 55, 0
9, 46620, Note_on_c, 7, 55, 47
9, 46620, Note_on_c, 7, 67, 87
9, 46632, Note_on_c, 7, 67, 0
9, 46632, Note_on_c, 7, 55, 0
9, 46635, Note_on_c, 7, 55, 47
9, 46635, Note_on_c, 7, 67, 89
9, 46647, Note_on_c, 7, 67, 0
9, 46647, Note_on_c, 7, 55, 0
9, 46650, Note_on_c, 7, 55, 47
9, 46650, Note_on_c, 7, 67, 91
9, 46662, Note_on_c, 7, 67, 0
9, 46662, Note_on_c, 7, 55, 0
9, 46665, Note_on_c, 7, 55, 47
9, 46665, Note_on_c, 7, 67, 93
9, 46677, Note_on_c, 7, 67, 0
9, 46677, Note_on_c, 7, 55, 0
9, 46680, Note_on_c, 7, 58, 95
9, 46680, Note_on_c, 7, 55, 95
9, 46680, Note_on_c, 7, 64, 95
9, 46692, Note_on_c, 7, 64, 0
9, 46692, Note_on_c, 7, 55, 0
9, 46692, Note_on_c, 7, 58, 0
9, 46695, Note_on_c, 7, 58, 95
9, 46695, Note_on_c, 7, 55, 95
9, 46695, Note_on_c, 7, 64, 95
9, 46707, Note_on_c, 7, 64, 0
9, 46707, Note_on_c, 7, 55, 0
9, 46707, Note_on_c, 7, 58, 0
9, 46710, Note_on_c, 7, 58, 95
9, 46710, Note_on_c, 7, 55, 95
9, 46710, Note_on_c, 7, 64, 95
9, 46722, Note_on_c, 7, 64, 0
9, 46722, Note_on_c, 7, 55, 0
9, 46722, Note_on_c, 7, 58, 0
9, 46725, Note_on_c, 7, 58, 95
9, 46725, Note_on_c, 7, 55, 95
9, 46725, Note_on_c, 7, 64, 95
9, 46737, Note_on_c, 7, 64, 0
9, 46737, Note_on_c, 7, 55, 0
9, 46737, Note_on_c, 7, 58, 0
9, 46740, Note_on_c, 7, 58, 95
9, 46740, Note_on_c, 7, 64, 95
9, 46740, Note_on_c, 7, 55, 95
9, 46752, Note_on_c, 7, 55, 0
9, 46752, Note_on_c, 7, 64, 0
9, 46752, Note_on_c, 7, 58, 0
9, 46755, Note_on_c, 7, 58, 95
9, 46755, Note_on_c, 7, 55, 95
9, 46755, Note_on_c, 7, 64, 95
9, 46767, Note_on_c, 7, 64, 0
9, 46767, Note_on_c, 7, 55, 0
9, 46767, Note_on_c, 7, 58, 0
9, 46770, Note_on_c, 7, 58, 95
9, 46770, Note_on_c, 7, 55, 95
9, 46770, Note_on_c, 7, 64, 95
9, 46782, Note_on_c, 7, 64, 0
9, 46782, Note_on_c, 7, 55, 0
9, 46782, Note_on_c, 7, 58, 0
9, 46785, Note_on_c, 7, 58, 95
9, 46785, Note_on_c, 7, 55, 95
9, 46785, Note_on_c, 7, 64, 95
9, 46797, Note_on_c, 7, 64, 0
9, 46797, Note_on_c, 7, 55, 0
9, 46797, Note_on_c, 7, 58, 0
9, 46800, Note_on_c, 7, 56, 47
9, 46800, Note_on_c, 7, 65, 47
9, 46812, Note_on_c, 7, 65, 0
9, 46814, Note_on_c, 7, 56, 0
9, 46815, Note_on_c, 7, 65, 47
9, 46815, Note_on_c, 7, 68, 47
9, 46827, Note_on_c, 7, 68, 0
9, 46827, Note_on_c, 7, 65, 0
9, 46830, Note_on_c, 7, 65, 47
9, 46830, Note_on_c, 7, 68, 47
9, 46842, Note_on_c, 7, 68, 0
9, 46842, Note_on_c, 7, 65, 0
9, 46845, Note_on_c, 7, 65, 47
9, 46845, Note_on_c, 7, 68, 47
9, 46857, Note_on_c, 7, 68, 0
9, 46857, Note_on_c, 7, 65, 0
9, 46860, Note_on_c, 7, 65, 47
9, 46872, Note_on_c, 7, 65, 0
9, 46875, Note_on_c, 7, 65, 47
9, 46875, Note_on_c, 7, 68, 47
9, 46887, Note_on_c, 7, 68, 0
9, 46887, Note_on_c, 7, 65, 0
9, 46890, Note_on_c, 7, 65, 47
9, 46890, Note_on_c, 7, 68, 47
9, 46902, Note_on_c, 7, 68, 0
9, 46902, Note_on_c, 7, 65, 0
9, 46905, Note_on_c, 7, 65, 47
9, 46905, Note_on_c, 7, 68, 47
9, 46917, Note_on_c, 7, 68, 0
9, 46917, Note_on_c, 7, 65, 0
9, 46935, Note_on_c, 7, 65, 47
9, 46935, Note_on_c, 7, 68, 47
9, 46947, Note_on_c, 7, 68, 0
9, 46947, Note_on_c, 7, 65, 0
9, 46950, Note_on_c, 7, 65, 47
9, 46950, Note_on_c, 7, 68, 47
9, 46962, Note_on_c, 7, 68, 0
9, 46962, Note_on_c, 7, 65, 0
9, 46965, Note_on_c, 7, 65, 47
9, 46965, Note_on_c, 7, 68, 47
9, 46977, Note_on_c, 7, 68, 0
9, 46977, Note_on_c, 7, 65, 0
9, 46995, Note_on_c, 7, 65, 47
9, 46995, Note_on_c, 7, 68, 47
9, 47007, Note_on_c, 7, 68, 0
9, 47007, Note_on_c, 7, 65, 0
9, 47010, Note_on_c, 7, 65, 47
9, 47010, Note_on_c, 7, 68, 47
9, 47022, Note_on_c, 7, 68, 0
9, 47022, Note_on_c, 7, 65, 0
9, 47025, Note_on_c, 7, 65, 47
9, 47025, Note_on_c, 7, 68, 47
9, 47037, Note_on_c, 7, 68, 0
9, 47037, Note_on_c, 7, 65, 0
9, 47055, Note_on_c, 7, 65, 47
9, 47055, Note_on_c, 7, 68, 47
9, 47067, Note_on_c, 7, 68, 0
9, 47067, Note_on_c, 7, 65, 0
9, 47070, Note_on_c, 7, 65, 47
9, 47070, Note_on_c, 7, 68, 47
9, 47082, Note_on_c, 7, 68, 0
9, 47082, Note_on_c, 7, 65, 0
9, 47085, Note_on_c, 7, 65, 47
9, 47085, Note_on_c, 7, 68, 47
9, 47097, Note_on_c, 7, 68, 0
9, 47097, Note_on_c, 7, 65, 0
9, 47115, Note_on_c, 7, 65, 47
9, 47115, Note_on_c, 7, 68, 47
9, 47127, Note_on_c, 7, 68, 0
9, 47127, Note_on_c, 7, 65, 0
9, 47130, Note_on_c, 7, 65, 47
9, 47130, Note_on_c, 7, 68, 47
9, 47142, Note_on_c, 7, 68, 0
9, 47142, Note_on_c, 7, 65, 0
9, 47145, Note_on_c, 7, 65, 47
9, 47145, Note_on_c, 7, 68, 47
9, 47157, Note_on_c, 7, 68, 0
9, 47157, Note_on_c, 7, 65, 0
9, 47175, Note_on_c, 7, 65, 47
9, 47175, Note_on_c, 7, 68, 47
9, 47187, Note_on_c, 7, 68, 0
9, 47187, Note_on_c, 7, 65, 0
9, 47190, Note_on_c, 7, 65, 47
9, 47190, Note_on_c, 7, 68, 47
9, 47202, Note_on_c, 7, 65, 0
9, 47204, Note_on_c, 7, 68, 0
9, 47205, Note_on_c, 7, 65, 47
9, 47205, Note_on_c, 7, 68, 47
9, 47217, Note_on_c, 7, 68, 0
9, 47217, Note_on_c, 7, 65, 0
9, 47235, Note_on_c, 7, 65, 47
9, 47235, Note_on_c, 7, 68, 47
9, 47247, Note_on_c, 7, 68, 0
9, 47247, Note_on_c, 7, 65, 0
9, 47250, Note_on_c, 7, 65, 47
9, 47250, Note_on_c, 7, 68, 47
9, 47262, Note_on_c, 7, 68, 0
9, 47262, Note_on_c, 7, 65, 0
9, 47265, Note_on_c, 7, 65, 47
9, 47265, Note_on_c, 7, 68, 47
9, 47277, Note_on_c, 7, 68, 0
9, 47277, Note_on_c, 7, 65, 0
9, 47295, Note_on_c, 7, 62, 50
9, 47295, Note_on_c, 7, 68, 49
9, 47307, Note_on_c, 7, 68, 0
9, 47307, Note_on_c, 7, 62, 0
9, 47310, Note_on_c, 7, 62, 53
9, 47310, Note_on_c, 7, 68, 52
9, 47322, Note_on_c, 7, 68, 0
9, 47322, Note_on_c, 7, 62, 0
9, 47325, Note_on_c, 7, 62, 56
9, 47325, Note_on_c, 7, 68, 55
9, 47337, Note_on_c, 7, 68, 0
9, 47337, Note_on_c, 7, 62, 0
9, 47355, Note_on_c, 7, 62, 62
9, 47355, Note_on_c, 7, 68, 61
9, 47367, Note_on_c, 7, 68, 0
9, 47367, Note_on_c, 7, 62, 0
9, 47370, Note_on_c, 7, 62, 65
9, 47370, Note_on_c, 7, 68, 64
9, 47382, Note_on_c, 7, 68, 0
9, 47382, Note_on_c, 7, 62, 0
9, 47385, Note_on_c, 7, 62, 68
9, 47385, Note_on_c, 7, 68, 67
9, 47397, Note_on_c, 7, 68, 0
9, 47397, Note_on_c, 7, 62, 0
9, 47415, Note_on_c, 7, 62, 74
9, 47415, Note_on_c, 7, 71, 73
9, 47427, Note_on_c, 7, 71, 0
9, 47427, Note_on_c, 7, 62, 0
9, 47430, Note_on_c, 7, 62, 77
9, 47430, Note_on_c, 7, 71, 76
9, 47442, Note_on_c, 7, 71, 0
9, 47442, Note_on_c, 7, 62, 0
9, 47445, Note_on_c, 7, 62, 80
9, 47445, Note_on_c, 7, 71, 79
9, 47457, Note_on_c, 7, 71, 0
9, 47457, Note_on_c, 7, 62, 0
9, 47475, Note_on_c, 7, 62, 86
9, 47475, Note_on_c, 7, 71, 85
9, 47487, Note_on_c, 7, 71, 0
9, 47487, Note_on_c, 7, 62, 0
9, 47490, Note_on_c, 7, 62, 89
9, 47490, Note_on_c, 7, 71, 88
9, 47502, Note_on_c, 7, 71, 0
9, 47502, Note_on_c, 7, 62, 0
9, 47505, Note_on_c, 7, 62, 92
9, 47505, Note_on_c, 7, 71, 91
9, 47517, Note_on_c, 7, 71, 0
9, 47517, Note_on_c, 7, 62, 0
9, 47535, Note_on_c, 7, 60, 95
9, 47535, Note_on_c, 7, 72, 95
9, 47547, Note_on_c, 7, 72, 0
9, 47547, Note_on_c, 7, 60, 0
9, 47550, Note_on_c, 7, 60, 95
9, 47550, Note_on_c, 7, 72, 95
9, 47562, Note_on_c, 7, 72, 0
9, 47562, Note_on_c, 7, 60, 0
9, 47565, Note_on_c, 7, 60, 95
9, 47565, Note_on_c, 7, 72, 95
9, 47577, Note_on_c, 7, 72, 0
9, 47577, Note_on_c, 7, 60, 0
9, 47580, Note_on_c, 7, 60, 95
9, 47580, Note_on_c, 7, 68, 95
9, 47592, Note_on_c, 7, 68, 0
9, 47592, Note_on_c, 7, 60, 0
9, 47595, Note_on_c, 7, 60, 95
9, 47595, Note_on_c, 7, 68, 95
9, 47607, Note_on_c, 7, 68, 0
9, 47607, Note_on_c, 7, 60, 0
9, 47610, Note_on_c, 7, 60, 95
9, 47610, Note_on_c, 7, 68, 95
9, 47622, Note_on_c, 7, 68, 0
9, 47622, Note_on_c, 7, 60, 0
9, 47625, Note_on_c, 7, 60, 95
9, 47625, Note_on_c, 7, 68, 95
9, 47637, Note_on_c, 7, 68, 0
9, 47637, Note_on_c, 7, 60, 0
9, 47640, Note_on_c, 7, 60, 95
9, 47640, Note_on_c, 7, 68, 95
9, 47652, Note_on_c, 7, 68, 0
9, 47652, Note_on_c, 7, 60, 0
9, 47655, Note_on_c, 7, 60, 95
9, 47655, Note_on_c, 7, 68, 95
9, 47667, Note_on_c, 7, 68, 0
9, 47667, Note_on_c, 7, 60, 0
9, 47670, Note_on_c, 7, 60, 95
9, 47670, Note_on_c, 7, 68, 95
9, 47682, Note_on_c, 7, 68, 0
9, 47682, Note_on_c, 7, 60, 0
9, 47685, Note_on_c, 7, 60, 95
9, 47685, Note_on_c, 7, 68, 95
9, 47697, Note_on_c, 7, 68, 0
9, 47697, Note_on_c, 7, 60, 0
9, 47700, Note_on_c, 7, 60, 47
9, 47700, Note_on_c, 7, 66, 48
9, 47712, Note_on_c, 7, 66, 0
9, 47712, Note_on_c, 7, 60, 0
9, 47715, Note_on_c, 7, 60, 47
9, 47715, Note_on_c, 7, 66, 48
9, 47727, Note_on_c, 7, 66, 0
9, 47727, Note_on_c, 7, 60, 0
9, 47730, Note_on_c, 7, 60, 47
9, 47730, Note_on_c, 7, 66, 48
9, 47742, Note_on_c, 7, 66, 0
9, 47742, Note_on_c, 7, 60, 0
9, 47745, Note_on_c, 7, 60, 47
9, 47745, Note_on_c, 7, 66, 48
9, 47757, Note_on_c, 7, 66, 0
9, 47757, Note_on_c, 7, 60, 0
9, 47760, Note_on_c, 7, 60, 46
9, 47760, Note_on_c, 7, 66, 48
9, 47772, Note_on_c, 7, 66, 0
9, 47772, Note_on_c, 7, 60, 0
9, 47775, Note_on_c, 7, 60, 50
9, 47775, Note_on_c, 7, 66, 50
9, 47787, Note_on_c, 7, 66, 0
9, 47789, Note_on_c, 7, 60, 0
9, 47790, Note_on_c, 7, 60, 54
9, 47790, Note_on_c, 7, 66, 54
9, 47802, Note_on_c, 7, 66, 0
9, 47802, Note_on_c, 7, 60, 0
9, 47805, Note_on_c, 7, 60, 58
9, 47805, Note_on_c, 7, 66, 58
9, 47811, Note_on_c, 7, 60, 0
9, 47817, Note_on_c, 7, 66, 0
9, 47820, Note_on_c, 7, 60, 63
9, 47820, Note_on_c, 7, 67, 62
9, 47832, Note_on_c, 7, 67, 0
9, 47832, Note_on_c, 7, 60, 0
9, 47835, Note_on_c, 7, 60, 60
9, 47835, Note_on_c, 7, 67, 60
9, 47847, Note_on_c, 7, 67, 0
9, 47847, Note_on_c, 7, 60, 0
9, 47850, Note_on_c, 7, 60, 56
9, 47850, Note_on_c, 7, 67, 56
9, 47862, Note_on_c, 7, 67, 0
9, 47862, Note_on_c, 7, 60, 0
9, 47865, Note_on_c, 7, 60, 52
9, 47865, Note_on_c, 7, 67, 53
9, 47877, Note_on_c, 7, 67, 0
9, 47877, Note_on_c, 7, 60, 0
9, 47895, Note_on_c, 7, 67, 48
9, 47896, Note_on_c, 7, 59, 47
9, 47907, Note_on_c, 7, 67, 0
9, 47908, Note_on_c, 7, 59, 0
9, 47910, Note_on_c, 7, 67, 48
9, 47911, Note_on_c, 7, 59, 47
9, 47922, Note_on_c, 7, 67, 0
9, 47923, Note_on_c, 7, 59, 0
9, 47925, Note_on_c, 7, 59, 47
9, 47925, Note_on_c, 7, 67, 48
9, 47937, Note_on_c, 7, 67, 0
9, 47937, Note_on_c, 7, 59, 0
9, 47955, Note_on_c, 7, 60, 47
9, 47955, Note_on_c, 7, 71, 48
9, 47967, Note_on_c, 7, 71, 0
9, 47967, Note_on_c, 7, 60, 0
9, 47970, Note_on_c, 7, 60, 47
9, 47970, Note_on_c, 7, 71, 48
9, 47982, Note_on_c, 7, 71, 0
9, 47982, Note_on_c, 7, 60, 0
9, 47985, Note_on_c, 7, 60, 47
9, 47985, Note_on_c, 7, 71, 48
9, 47997, Note_on_c, 7, 71, 0
9, 47997, Note_on_c, 7, 60, 0
9, 48000, Note_on_c, 7, 63, 47
9, 48000, Note_on_c, 7, 72, 49
9, 48012, Note_on_c, 7, 63, 0
9, 48014, Note_on_c, 7, 63, 47
9, 48029, Note_on_c, 7, 63, 0
9, 48030, Note_on_c, 7, 67, 47
9, 48045, Note_on_c, 7, 67, 0
9, 48045, Note_on_c, 7, 63, 47
9, 48060, Note_on_c, 7, 63, 0
9, 48060, Note_on_c, 7, 67, 47
9, 48075, Note_on_c, 7, 67, 0
9, 48075, Note_on_c, 7, 63, 47
9, 48090, Note_on_c, 7, 63, 0
9, 48090, Note_on_c, 7, 67, 47
9, 48105, Note_on_c, 7, 67, 0
9, 48105, Note_on_c, 7, 63, 47
9, 48120, Note_on_c, 7, 63, 0
9, 48120, Note_on_c, 7, 67, 49
9, 48124, Note_on_c, 7, 72, 0
9, 48135, Note_on_c, 7, 65, 47
9, 48149, Note_on_c, 7, 67, 0
9, 48150, Note_on_c, 7, 65, 0
9, 48150, Note_on_c, 7, 67, 47
9, 48165, Note_on_c, 7, 65, 47
9, 48179, Note_on_c, 7, 67, 0
9, 48180, Note_on_c, 7, 65, 0
9, 48180, Note_on_c, 7, 67, 47
9, 48195, Note_on_c, 7, 65, 47
9, 48209, Note_on_c, 7, 67, 0
9, 48210, Note_on_c, 7, 65, 0
9, 48210, Note_on_c, 7, 67, 47
9, 48225, Note_on_c, 7, 65, 47
9, 48239, Note_on_c, 7, 67, 0
9, 48240, Note_on_c, 7, 65, 0
9, 48240, Note_on_c, 7, 63, 49
9, 48254, Note_on_c, 7, 63, 0
9, 48255, Note_on_c, 7, 63, 47
9, 48270, Note_on_c, 7, 67, 47
9, 48284, Note_on_c, 7, 63, 0
9, 48285, Note_on_c, 7, 63, 47
9, 48286, Note_on_c, 7, 67, 0
9, 48300, Note_on_c, 7, 63, 0
9, 48300, Note_on_c, 7, 67, 49
9, 48315, Note_on_c, 7, 63, 47
9, 48329, Note_on_c, 7, 67, 0
9, 48330, Note_on_c, 7, 63, 0
9, 48330, Note_on_c, 7, 67, 47
9, 48345, Note_on_c, 7, 63, 47
9, 48359, Note_on_c, 7, 67, 0
9, 48360, Note_on_c, 7, 63, 0
9, 48360, Note_on_c, 7, 72, 49
9, 48375, Note_on_c, 7, 63, 47
9, 48390, Note_on_c, 7, 63, 0
9, 48390, Note_on_c, 7, 67, 47
9, 48405, Note_on_c, 7, 67, 0
9, 48405, Note_on_c, 7, 63, 47
9, 48420, Note_on_c, 7, 63, 0
9, 48435, Note_on_c, 7, 63, 47
9, 48450, Note_on_c, 7, 63, 0
9, 48450, Note_on_c, 7, 67, 47
9, 48465, Note_on_c, 7, 63, 47
9, 48466, Note_on_c, 7, 67, 0
9, 48480, Note_on_c, 7, 63, 0
9, 48480, Note_on_c, 7, 74, 49
9, 48482, Note_on_c, 7, 72, 0
9, 48495, Note_on_c, 7, 65, 47
9, 48510, Note_on_c, 7, 65, 0
9, 48510, Note_on_c, 7, 67, 47
9, 48525, Note_on_c, 7, 67, 0
9, 48525, Note_on_c, 7, 65, 47
9, 48540, Note_on_c, 7, 65, 0
9, 48555, Note_on_c, 7, 65, 47
9, 48570, Note_on_c, 7, 65, 0
9, 48570, Note_on_c, 7, 67, 47
9, 48585, Note_on_c, 7, 67, 0
9, 48585, Note_on_c, 7, 65, 47
9, 48600, Note_on_c, 7, 65, 0
9, 48600, Note_on_c, 7, 75, 48
9, 48603, Note_on_c, 7, 74, 0
9, 48616, Note_on_c, 7, 63, 47
9, 48619, Note_on_c, 7, 63, 0
9, 48629, Note_on_c, 7, 67, 47
9, 48642, Note_on_c, 7, 63, 47
9, 48645, Note_on_c, 7, 67, 0
9, 48649, Note_on_c, 7, 63, 0
9, 48677, Note_on_c, 7, 63, 47
9, 48690, Note_on_c, 7, 74, 48
9, 48691, Note_on_c, 7, 75, 0
9, 48692, Note_on_c, 7, 67, 47
9, 48695, Note_on_c, 7, 63, 0
9, 48705, Note_on_c, 7, 72, 48
9, 48706, Note_on_c, 7, 74, 0
9, 48707, Note_on_c, 7, 63, 47
9, 48708, Note_on_c, 7, 67, 0
9, 48715, Note_on_c, 7, 63, 0
9, 48720, Note_on_c, 7, 72, 0
9, 48720, Note_on_c, 7, 72, 48
9, 48735, Note_on_c, 7, 63, 47
9, 48750, Note_on_c, 7, 67, 47
9, 48751, Note_on_c, 7, 63, 0
9, 48765, Note_on_c, 7, 67, 0
9, 48765, Note_on_c, 7, 63, 47
9, 48780, Note_on_c, 7, 63, 0
9, 48780, Note_on_c, 7, 71, 48
9, 48781, Note_on_c, 7, 72, 0
9, 48795, Note_on_c, 7, 62, 47
9, 48810, Note_on_c, 7, 62, 0
9, 48810, Note_on_c, 7, 71, 0
9, 48810, Note_on_c, 7, 67, 47
9, 48824, Note_on_c, 7, 62, 47
9, 48825, Note_on_c, 7, 67, 0
9, 48839, Note_on_c, 7, 62, 0
9, 48840, Note_on_c, 7, 71, 48
9, 48855, Note_on_c, 7, 62, 47
9, 48870, Note_on_c, 7, 67, 47
9, 48871, Note_on_c, 7, 62, 0
9, 48885, Note_on_c, 7, 67, 0
9, 48885, Note_on_c, 7, 62, 47
9, 48899, Note_on_c, 7, 71, 0
9, 48900, Note_on_c, 7, 62, 0
9, 48900, Note_on_c, 7, 67, 47
9, 48915, Note_on_c, 7, 67, 0
9, 48915, Note_on_c, 7, 62, 47
9, 48930, Note_on_c, 7, 62, 0
9, 48930, Note_on_c, 7, 67, 47
9, 48945, Note_on_c, 7, 67, 0
9, 48945, Note_on_c, 7, 62, 47
9, 48960, Note_on_c, 7, 62, 0
9, 48975, Note_on_c, 7, 72, 95
9, 48975, Note_on_c, 7, 74, 95
9, 48990, Note_on_c, 7, 74, 0
9, 48990, Note_on_c, 7, 72, 0
9, 48990, Note_on_c, 7, 62, 95
9, 48990, Note_on_c, 7, 72, 95
9, 49005, Note_on_c, 7, 72, 0
9, 49005, Note_on_c, 7, 62, 0
9, 49005, Note_on_c, 7, 72, 95
9, 49005, Note_on_c, 7, 74, 95
9, 49020, Note_on_c, 7, 74, 0
9, 49020, Note_on_c, 7, 72, 0
9, 49035, Note_on_c, 7, 72, 95
9, 49035, Note_on_c, 7, 74, 95
9, 49049, Note_on_c, 7, 62, 95
9, 49050, Note_on_c, 7, 72, 0
9, 49050, Note_on_c, 7, 72, 95
9, 49051, Note_on_c, 7, 74, 0
9, 49064, Note_on_c, 7, 62, 0
9, 49065, Note_on_c, 7, 72, 0
9, 49065, Note_on_c, 7, 72, 95
9, 49065, Note_on_c, 7, 74, 95
9, 49080, Note_on_c, 7, 74, 0
9, 49080, Note_on_c, 7, 72, 0
9, 49095, Note_on_c, 7, 72, 95
9, 49095, Note_on_c, 7, 74, 95
9, 49109, Note_on_c, 7, 62, 95
9, 49110, Note_on_c, 7, 74, 0
9, 49110, Note_on_c, 7, 72, 95
9, 49111, Note_on_c, 7, 72, 0
9, 49125, Note_on_c, 7, 72, 0
9, 49125, Note_on_c, 7, 72, 95
9, 49125, Note_on_c, 7, 74, 95
9, 49126, Note_on_c, 7, 62, 0
9, 49132, Note_on_c, 7, 72, 0
9, 49140, Note_on_c, 7, 74, 0
9, 49154, Note_on_c, 7, 72, 95
9, 49155, Note_on_c, 7, 74, 95
9, 49169, Note_on_c, 7, 62, 95
9, 49170, Note_on_c, 7, 74, 0
9, 49170, Note_on_c, 7, 72, 95
9, 49172, Note_on_c, 7, 72, 0
9, 49185, Note_on_c, 7, 62, 0
9, 49185, Note_on_c, 7, 72, 0
9, 49185, Note_on_c, 7, 72, 95
9, 49185, Note_on_c, 7, 74, 95
9, 49195, Note_on_c, 7, 72, 0
9, 49200, Note_on_c, 7, 74, 0
9, 49215, Note_on_c, 7, 72, 107
9, 49215, Note_on_c, 7, 75, 106
9, 49230, Note_on_c, 7, 75, 0
9, 49230, Note_on_c, 7, 72, 0
9, 49230, Note_on_c, 7, 63, 103
9, 49230, Note_on_c, 7, 72, 102
9, 49245, Note_on_c, 7, 72, 0
9, 49245, Note_on_c, 7, 63, 0
9, 49245, Note_on_c, 7, 72, 99
9, 49245, Note_on_c, 7, 75, 98
9, 49260, Note_on_c, 7, 75, 0
9, 49260, Note_on_c, 7, 72, 0
9, 49275, Note_on_c, 7, 72, 91
9, 49275, Note_on_c, 7, 75, 91
9, 49290, Note_on_c, 7, 75, 0
9, 49290, Note_on_c, 7, 72, 0
9, 49290, Note_on_c, 7, 63, 87
9, 49290, Note_on_c, 7, 72, 87
9, 49305, Note_on_c, 7, 72, 0
9, 49305, Note_on_c, 7, 63, 0
9, 49305, Note_on_c, 7, 72, 83
9, 49305, Note_on_c, 7, 75, 83
9, 49320, Note_on_c, 7, 75, 0
9, 49320, Note_on_c, 7, 72, 0
9, 49335, Note_on_c, 7, 72, 75
9, 49335, Note_on_c, 7, 75, 75
9, 49350, Note_on_c, 7, 75, 0
9, 49350, Note_on_c, 7, 72, 0
9, 49350, Note_on_c, 7, 63, 71
9, 49350, Note_on_c, 7, 72, 71
9, 49365, Note_on_c, 7, 72, 0
9, 49365, Note_on_c, 7, 63, 0
9, 49365, Note_on_c, 7, 72, 67
9, 49365, Note_on_c, 7, 75, 67
9, 49380, Note_on_c, 7, 75, 0
9, 49380, Note_on_c, 7, 72, 0
9, 49395, Note_on_c, 7, 72, 59
9, 49395, Note_on_c, 7, 75, 59
9, 49410, Note_on_c, 7, 75, 0
9, 49410, Note_on_c, 7, 72, 0
9, 49410, Note_on_c, 7, 63, 55
9, 49410, Note_on_c, 7, 72, 55
9, 49425, Note_on_c, 7, 72, 0
9, 49425, Note_on_c, 7, 63, 0
9, 49425, Note_on_c, 7, 72, 51
9, 49425, Note_on_c, 7, 75, 51
9, 49440, Note_on_c, 7, 75, 0
9, 49440, Note_on_c, 7, 72, 0
9, 49455, Note_on_c, 7, 63, 48
9, 49455, Note_on_c, 7, 72, 48
9, 49470, Note_on_c, 7, 72, 0
9, 49470, Note_on_c, 7, 63, 0
9, 49470, Note_on_c, 7, 60, 48
9, 49470, Note_on_c, 7, 63, 48
9, 49485, Note_on_c, 7, 63, 0
9, 49485, Note_on_c, 7, 60, 0
9, 49485, Note_on_c, 7, 63, 48
9, 49485, Note_on_c, 7, 72, 48
9, 49500, Note_on_c, 7, 72, 0
9, 49500, Note_on_c, 7, 63, 0
9, 49515, Note_on_c, 7, 63, 48
9, 49515, Note_on_c, 7, 72, 48
9, 49530, Note_on_c, 7, 72, 0
9, 49530, Note_on_c, 7, 63, 0
9, 49530, Note_on_c, 7, 60, 48
9, 49530, Note_on_c, 7, 63, 48
9, 49545, Note_on_c, 7, 63, 0
9, 49545, Note_on_c, 7, 60, 0
9, 49545, Note_on_c, 7, 63, 48
9, 49545, Note_on_c, 7, 72, 48
9, 49560, Note_on_c, 7, 72, 0
9, 49560, Note_on_c, 7, 63, 0
9, 49575, Note_on_c, 7, 65, 48
9, 49575, Note_on_c, 7, 71, 48
9, 49590, Note_on_c, 7, 71, 0
9, 49590, Note_on_c, 7, 65, 0
9, 49590, Note_on_c, 7, 59, 48
9, 49590, Note_on_c, 7, 65, 48
9, 49605, Note_on_c, 7, 65, 0
9, 49605, Note_on_c, 7, 59, 0
9, 49605, Note_on_c, 7, 65, 48
9, 49605, Note_on_c, 7, 71, 48
9, 49620, Note_on_c, 7, 71, 0
9, 49620, Note_on_c, 7, 65, 0
9, 49635, Note_on_c, 7, 65, 48
9, 49635, Note_on_c, 7, 71, 48
9, 49650, Note_on_c, 7, 71, 0
9, 49650, Note_on_c, 7, 65, 0
9, 49650, Note_on_c, 7, 59, 48
9, 49650, Note_on_c, 7, 65, 48
9, 49665, Note_on_c, 7, 65, 0
9, 49665, Note_on_c, 7, 59, 0
9, 49665, Note_on_c, 7, 65, 48
9, 49665, Note_on_c, 7, 71, 48
9, 49680, Note_on_c, 7, 71, 0
9, 49680, Note_on_c, 7, 65, 0
9, 49695, Note_on_c, 7, 63, 48
9, 49695, Note_on_c, 7, 72, 48
9, 49710, Note_on_c, 7, 72, 0
9, 49710, Note_on_c, 7, 63, 0
9, 49710, Note_on_c, 7, 60, 48
9, 49710, Note_on_c, 7, 63, 48
9, 49725, Note_on_c, 7, 63, 0
9, 49725, Note_on_c, 7, 60, 0
9, 49725, Note_on_c, 7, 63, 48
9, 49725, Note_on_c, 7, 72, 48
9, 49740, Note_on_c, 7, 72, 0
9, 49740, Note_on_c, 7, 63, 0
9, 49740, Note_on_c, 7, 60, 48
9, 49740, Note_on_c, 7, 63, 48
9, 49755, Note_on_c, 7, 63, 0
9, 49755, Note_on_c, 7, 60, 0
9, 49755, Note_on_c, 7, 63, 48
9, 49755, Note_on_c, 7, 72, 48
9, 49770, Note_on_c, 7, 72, 0
9, 49770, Note_on_c, 7, 63, 0
9, 49770, Note_on_c, 7, 60, 48
9, 49770, Note_on_c, 7, 63, 48
9, 49785, Note_on_c, 7, 63, 0
9, 49785, Note_on_c, 7, 60, 0
9, 49785, Note_on_c, 7, 63, 48
9, 49785, Note_on_c, 7, 72, 48
9, 49800, Note_on_c, 7, 72, 0
9, 49800, Note_on_c, 7, 63, 0
9, 49800, Note_on_c, 7, 60, 49
9, 49800, Note_on_c, 7, 63, 48
9, 49815, Note_on_c, 7, 63, 0
9, 49815, Note_on_c, 7, 60, 0
9, 49815, Note_on_c, 7, 63, 49
9, 49815, Note_on_c, 7, 72, 48
9, 49830, Note_on_c, 7, 72, 0
9, 49830, Note_on_c, 7, 63, 0
9, 49830, Note_on_c, 7, 60, 49
9, 49830, Note_on_c, 7, 63, 48
9, 49845, Note_on_c, 7, 63, 0
9, 49845, Note_on_c, 7, 60, 0
9, 49845, Note_on_c, 7, 63, 49
9, 49845, Note_on_c, 7, 72, 48
9, 49860, Note_on_c, 7, 72, 0
9, 49860, Note_on_c, 7, 63, 0
9, 49860, Note_on_c, 7, 60, 49
9, 49860, Note_on_c, 7, 63, 48
9, 49875, Note_on_c, 7, 63, 0
9, 49875, Note_on_c, 7, 60, 0
9, 49875, Note_on_c, 7, 63, 49
9, 49875, Note_on_c, 7, 72, 48
9, 49890, Note_on_c, 7, 72, 0
9, 49890, Note_on_c, 7, 63, 0
9, 49890, Note_on_c, 7, 60, 49
9, 49890, Note_on_c, 7, 63, 48
9, 49905, Note_on_c, 7, 63, 0
9, 49905, Note_on_c, 7, 60, 0
9, 49905, Note_on_c, 7, 63, 49
9, 49905, Note_on_c, 7, 72, 48
9, 49920, Note_on_c, 7, 72, 0
9, 49920, Note_on_c, 7, 63, 0
9, 49935, Note_on_c, 7, 63, 49
9, 49935, Note_on_c, 7, 72, 49
9, 49950, Note_on_c, 7, 72, 0
9, 49950, Note_on_c, 7, 63, 0
9, 49950, Note_on_c, 7, 60, 52
9, 49950, Note_on_c, 7, 63, 52
9, 49965, Note_on_c, 7, 63, 0
9, 49965, Note_on_c, 7, 60, 0
9, 49965, Note_on_c, 7, 63, 55
9, 49965, Note_on_c, 7, 72, 55
9, 49980, Note_on_c, 7, 72, 0
9, 49980, Note_on_c, 7, 63, 0
9, 49995, Note_on_c, 7, 63, 61
9, 49995, Note_on_c, 7, 72, 61
9, 50010, Note_on_c, 7, 72, 0
9, 50010, Note_on_c, 7, 63, 0
9, 50010, Note_on_c, 7, 60, 64
9, 50010, Note_on_c, 7, 63, 64
9, 50025, Note_on_c, 7, 63, 0
9, 50025, Note_on_c, 7, 60, 0
9, 50025, Note_on_c, 7, 63, 67
9, 50025, Note_on_c, 7, 72, 67
9, 50040, Note_on_c, 7, 72, 0
9, 50040, Note_on_c, 7, 63, 0
9, 50055, Note_on_c, 7, 65, 73
9, 50055, Note_on_c, 7, 71, 73
9, 50070, Note_on_c, 7, 71, 0
9, 50070, Note_on_c, 7, 65, 0
9, 50070, Note_on_c, 7, 59, 76
9, 50070, Note_on_c, 7, 65, 76
9, 50085, Note_on_c, 7, 65, 0
9, 50085, Note_on_c, 7, 59, 0
9, 50085, Note_on_c, 7, 65, 79
9, 50085, Note_on_c, 7, 71, 79
9, 50100, Note_on_c, 7, 71, 0
9, 50100, Note_on_c, 7, 65, 0
9, 50115, Note_on_c, 7, 65, 85
9, 50115, Note_on_c, 7, 71, 85
9, 50130, Note_on_c, 7, 71, 0
9, 50130, Note_on_c, 7, 65, 0
9, 50130, Note_on_c, 7, 59, 88
9, 50130, Note_on_c, 7, 65, 88
9, 50145, Note_on_c, 7, 65, 0
9, 50145, Note_on_c, 7, 59, 0
9, 50145, Note_on_c, 7, 65, 91
9, 50145, Note_on_c, 7, 71, 91
9, 50160, Note_on_c, 7, 71, 0
9, 50160, Note_on_c, 7, 65, 0
9, 50160, Note_on_c, 7, 63, 94
9, 50160, Note_on_c, 7, 56, 94
9, 50160, Note_on_c, 7, 63, 94
9, 50160, Note_on_c, 7, 72, 94
9, 50219, Note_on_c, 7, 72, 0
9, 50219, Note_on_c, 7, 63, 0
9, 50219, Note_on_c, 7, 56, 0
9, 50219, Note_on_c, 7, 63, 0
9, 50220, Note_on_c, 7, 60, 90
9, 50250, Note_on_c, 7, 60, 0
9, 50280, Note_on_c, 7, 56, 84
9, 50309, Note_on_c, 7, 56, 0
9, 50340, Note_on_c, 7, 60, 78
9, 50369, Note_on_c, 7, 60, 0
9, 50401, Note_on_c, 7, 56, 72
9, 50430, Note_on_c, 7, 56, 0
9, 50460, Note_on_c, 7, 60, 66
9, 50489, Note_on_c, 7, 60, 0
9, 50520, Note_on_c, 7, 56, 60
9, 50549, Note_on_c, 7, 56, 0
9, 50580, Note_on_c, 7, 60, 54
9, 50609, Note_on_c, 7, 60, 0
9, 50640, Note_on_c, 7, 56, 46
9, 50669, Note_on_c, 7, 56, 0
9, 50700, Note_on_c, 7, 63, 46
9, 50700, Note_on_c, 7, 60, 48
9, 50729, Note_on_c, 7, 60, 0
9, 50729, Note_on_c, 7, 63, 0
9, 50760, Note_on_c, 7, 60, 46
9, 50760, Note_on_c, 7, 56, 48
9, 50789, Note_on_c, 7, 56, 0
9, 50789, Note_on_c, 7, 60, 0
9, 50820, Note_on_c, 7, 63, 46
9, 50820, Note_on_c, 7, 60, 48
9, 50849, Note_on_c, 7, 60, 0
9, 50849, Note_on_c, 7, 63, 0
9, 50880, Note_on_c, 7, 60, 46
9, 50880, Note_on_c, 7, 56, 48
9, 50909, Note_on_c, 7, 56, 0
9, 50909, Note_on_c, 7, 60, 0
9, 50940, Note_on_c, 7, 63, 46
9, 50940, Note_on_c, 7, 60, 48
9, 50969, Note_on_c, 7, 60, 0
9, 50969, Note_on_c, 7, 63, 0
9, 51000, Note_on_c, 7, 60, 46
9, 51000, Note_on_c, 7, 56, 48
9, 51029, Note_on_c, 7, 56, 0
9, 51029, Note_on_c, 7, 60, 0
9, 51060, Note_on_c, 7, 63, 47
9, 51060, Note_on_c, 7, 72, 48
9, 51089, Note_on_c, 7, 72, 0
9, 51089, Note_on_c, 7, 63, 0
9, 51120, Note_on_c, 7, 60, 31
9, 51120, Note_on_c, 7, 68, 31
9, 51150, Note_on_c, 7, 60, 0
9, 51150, Note_on_c, 7, 66, 31
9, 51150, Note_on_c, 7, 56, 31
9, 51209, Note_on_c, 7, 56, 0
9, 51209, Note_on_c, 7, 66, 0
9, 51210, Note_on_c, 7, 66, 31
9, 51210, Note_on_c, 7, 56, 31
9, 51269, Note_on_c, 7, 56, 0
9, 51269, Note_on_c, 7, 66, 0
9, 51270, Note_on_c, 7, 66, 31
9, 51270, Note_on_c, 7, 56, 31
9, 51300, Note_on_c, 7, 72, 31
9, 51302, Note_on_c, 7, 68, 0
9, 51329, Note_on_c, 7, 66, 0
9, 51329, Note_on_c, 7, 56, 0
9, 51330, Note_on_c, 7, 66, 31
9, 51330, Note_on_c, 7, 56, 31
9, 51360, Note_on_c, 7, 75, 31
9, 51361, Note_on_c, 7, 72, 0
9, 51389, Note_on_c, 7, 66, 0
9, 51389, Note_on_c, 7, 56, 0
9, 51390, Note_on_c, 7, 63, 31
9, 51390, Note_on_c, 7, 56, 31
9, 51420, Note_on_c, 7, 72, 31
9, 51423, Note_on_c, 7, 75, 0
9, 51449, Note_on_c, 7, 63, 0
9, 51449, Note_on_c, 7, 56, 0
9, 51450, Note_on_c, 7, 63, 31
9, 51450, Note_on_c, 7, 56, 31
9, 51480, Note_on_c, 7, 68, 31
9, 51481, Note_on_c, 7, 72, 0
9, 51509, Note_on_c, 7, 63, 0
9, 51509, Note_on_c, 7, 56, 0
9, 51510, Note_on_c, 7, 63, 31
9, 51510, Note_on_c, 7, 56, 31
9, 51540, Note_on_c, 7, 66, 31
9, 51541, Note_on_c, 7, 68, 0
9, 51569, Note_on_c, 7, 63, 0
9, 51569, Note_on_c, 7, 56, 0
9, 51570, Note_on_c, 7, 63, 31
9, 51570, Note_on_c, 7, 56, 31
9, 51599, Note_on_c, 7, 56, 0
9, 51600, Note_on_c, 7, 61, 31
9, 51601, Note_on_c, 7, 63, 0
9, 51629, Note_on_c, 7, 61, 0
9, 51630, Note_on_c, 7, 65, 31
9, 51630, Note_on_c, 7, 56, 31
9, 51630, Note_on_c, 7, 65, 31
9, 51632, Note_on_c, 7, 66, 0
9, 51689, Note_on_c, 7, 65, 0
9, 51689, Note_on_c, 7, 56, 0
9, 51690, Note_on_c, 7, 65, 31
9, 51690, Note_on_c, 7, 56, 31
9, 51690, Note_on_c, 7, 68, 31
9, 51691, Note_on_c, 7, 65, 0
9, 51749, Note_on_c, 7, 65, 0
9, 51749, Note_on_c, 7, 56, 0
9, 51750, Note_on_c, 7, 65, 31
9, 51750, Note_on_c, 7, 56, 31
9, 51750, Note_on_c, 7, 73, 31
9, 51751, Note_on_c, 7, 68, 0
9, 51809, Note_on_c, 7, 65, 0
9, 51809, Note_on_c, 7, 56, 0
9, 51810, Note_on_c, 7, 65, 31
9, 51810, Note_on_c, 7, 56, 31
9, 51810, Note_on_c, 7, 77, 31
9, 51811, Note_on_c, 7, 73, 0
9, 51840, Note_on_c, 7, 66, 31
9, 51841, Note_on_c, 7, 65, 0
9, 51869, Note_on_c, 7, 66, 0
9, 51869, Note_on_c, 7, 56, 0
9, 51870, Note_on_c, 7, 66, 31
9, 51870, Note_on_c, 7, 56, 31
9, 51870, Note_on_c, 7, 75, 31
9, 51871, Note_on_c, 7, 77, 0
9, 51929, Note_on_c, 7, 66, 0
9, 51929, Note_on_c, 7, 56, 0
9, 51930, Note_on_c, 7, 66, 31
9, 51930, Note_on_c, 7, 56, 31
9, 51930, Note_on_c, 7, 72, 31
9, 51932, Note_on_c, 7, 75, 0
9, 51989, Note_on_c, 7, 66, 0
9, 51989, Note_on_c, 7, 56, 0
9, 51990, Note_on_c, 7, 66, 31
9, 51990, Note_on_c, 7, 56, 31
9, 51990, Note_on_c, 7, 68, 31
9, 51992, Note_on_c, 7, 72, 0
9, 52049, Note_on_c, 7, 66, 0
9, 52049, Note_on_c, 7, 56, 0
9, 52050, Note_on_c, 7, 63, 31
9, 52050, Note_on_c, 7, 66, 31
9, 52051, Note_on_c, 7, 68, 0
9, 52079, Note_on_c, 7, 66, 0
9, 52079, Note_on_c, 7, 63, 0
9, 52080, Note_on_c, 7, 63, 31
9, 52080, Note_on_c, 7, 66, 31
9, 52109, Note_on_c, 7, 63, 0
9, 52110, Note_on_c, 7, 61, 31
9, 52110, Note_on_c, 7, 65, 31
9, 52112, Note_on_c, 7, 66, 0
9, 52139, Note_on_c, 7, 65, 0
9, 52140, Note_on_c, 7, 61, 0
9, 52170, Note_on_c, 7, 61, 31
9, 52170, Note_on_c, 7, 65, 31
9, 52200, Note_on_c, 7, 61, 0
9, 52200, Note_on_c, 7, 60, 31
9, 52200, Note_on_c, 7, 64, 31
9, 52202, Note_on_c, 7, 65, 0
9, 52227, Note_on_c, 7, 65, 31
9, 52230, Note_on_c, 7, 60, 0
9, 52230, Note_on_c, 7, 61, 31
9, 52232, Note_on_c, 7, 64, 0
9, 52256, Note_on_c, 7, 65, 0
9, 52260, Note_on_c, 7, 61, 0
9, 52290, Note_on_c, 7, 61, 31
9, 52290, Note_on_c, 7, 65, 31
9, 52319, Note_on_c, 7, 65, 0
9, 52319, Note_on_c, 7, 61, 0
9, 52320, Note_on_c, 7, 61, 31
9, 52320, Note_on_c, 7, 65, 31
9, 52349, Note_on_c, 7, 65, 0
9, 52349, Note_on_c, 7, 61, 0
9, 52350, Note_on_c, 7, 62, 31
9, 52350, Note_on_c, 7, 65, 31
9, 52379, Note_on_c, 7, 65, 0
9, 52379, Note_on_c, 7, 62, 0
9, 52410, Note_on_c, 7, 74, 31
9, 52410, Note_on_c, 7, 77, 55
9, 52439, Note_on_c, 7, 77, 0
9, 52439, Note_on_c, 7, 74, 0
9, 52440, Note_on_c, 7, 74, 31
9, 52440, Note_on_c, 7, 77, 31
9, 52469, Note_on_c, 7, 74, 0
9, 52470, Note_on_c, 7, 65, 31
9, 52471, Note_on_c, 7, 62, 31
9, 52472, Note_on_c, 7, 77, 0
9, 52500, Note_on_c, 7, 62, 0
9, 52500, Note_on_c, 7, 65, 0
9, 52530, Note_on_c, 7, 62, 31
9, 52530, Note_on_c, 7, 65, 31
9, 52559, Note_on_c, 7, 65, 0
9, 52559, Note_on_c, 7, 62, 0
9, 52560, Note_on_c, 7, 62, 31
9, 52560, Note_on_c, 7, 65, 31
9, 52587, Note_on_c, 7, 63, 31
9, 52588, Note_on_c, 7, 60, 31
9, 52589, Note_on_c, 7, 62, 0
9, 52592, Note_on_c, 7, 65, 0
9, 52616, Note_on_c, 7, 63, 0
9, 52617, Note_on_c, 7, 60, 0
9, 52650, Note_on_c, 7, 60, 31
9, 52650, Note_on_c, 7, 63, 31
9, 52679, Note_on_c, 7, 63, 0
9, 52679, Note_on_c, 7, 60, 0
9, 52680, Note_on_c, 7, 59, 31
9, 52680, Note_on_c, 7, 63, 31
9, 52709, Note_on_c, 7, 63, 0
9, 52709, Note_on_c, 7, 59, 0
9, 52710, Note_on_c, 7, 60, 31
9, 52710, Note_on_c, 7, 63, 31
9, 52739, Note_on_c, 7, 63, 0
9, 52739, Note_on_c, 7, 60, 0
9, 52770, Note_on_c, 7, 60, 31
9, 52770, Note_on_c, 7, 63, 31
9, 52799, Note_on_c, 7, 63, 0
9, 52799, Note_on_c, 7, 60, 0
9, 52800, Note_on_c, 7, 60, 31
9, 52800, Note_on_c, 7, 63, 31
9, 52829, Note_on_c, 7, 60, 0
9, 52830, Note_on_c, 7, 72, 31
9, 52830, Note_on_c, 7, 75, 32
9, 52832, Note_on_c, 7, 63, 0
9, 52859, Note_on_c, 7, 75, 0
9, 52859, Note_on_c, 7, 72, 0
9, 52890, Note_on_c, 7, 72, 31
9, 52890, Note_on_c, 7, 75, 55
9, 52919, Note_on_c, 7, 75, 0
9, 52919, Note_on_c, 7, 72, 0
9, 52920, Note_on_c, 7, 72, 31
9, 52920, Note_on_c, 7, 75, 31
9, 52949, Note_on_c, 7, 72, 0
9, 52950, Note_on_c, 7, 60, 31
9, 52950, Note_on_c, 7, 63, 35
9, 52952, Note_on_c, 7, 75, 0
9, 52979, Note_on_c, 7, 63, 0
9, 52979, Note_on_c, 7, 60, 0
9, 53010, Note_on_c, 7, 60, 31
9, 53010, Note_on_c, 7, 63, 43
9, 53039, Note_on_c, 7, 63, 0
9, 53039, Note_on_c, 7, 60, 0
9, 53040, Note_on_c, 7, 60, 31
9, 53040, Note_on_c, 7, 63, 47
9, 53069, Note_on_c, 7, 60, 0
9, 53070, Note_on_c, 7, 60, 31
9, 53070, Note_on_c, 7, 62, 45
9, 53072, Note_on_c, 7, 63, 0
9, 53099, Note_on_c, 7, 62, 0
9, 53099, Note_on_c, 7, 60, 0
9, 53130, Note_on_c, 7, 60, 31
9, 53130, Note_on_c, 7, 62, 41
9, 53159, Note_on_c, 7, 60, 0
9, 53160, Note_on_c, 7, 60, 31
9, 53160, Note_on_c, 7, 61, 39
9, 53162, Note_on_c, 7, 62, 0
9, 53189, Note_on_c, 7, 60, 0
9, 53190, Note_on_c, 7, 60, 31
9, 53190, Note_on_c, 7, 62, 37
9, 53192, Note_on_c, 7, 61, 0
9, 53219, Note_on_c, 7, 62, 0
9, 53219, Note_on_c, 7, 60, 0
9, 53250, Note_on_c, 7, 62, 33
9, 53258, Note_on_c, 7, 60, 31
9, 53279, Note_on_c, 7, 62, 0
9, 53280, Note_on_c, 7, 60, 31
9, 53280, Note_on_c, 7, 62, 31
9, 53287, Note_on_c, 7, 60, 0
9, 53309, Note_on_c, 7, 62, 0
9, 53309, Note_on_c, 7, 60, 0
9, 53310, Note_on_c, 7, 59, 31
9, 53310, Note_on_c, 7, 62, 31
9, 53339, Note_on_c, 7, 62, 0
9, 53339, Note_on_c, 7, 59, 0
9, 53370, Note_on_c, 7, 59, 31
9, 53370, Note_on_c, 7, 62, 31
9, 53399, Note_on_c, 7, 62, 0
9, 53399, Note_on_c, 7, 59, 0
9, 53400, Note_on_c, 7, 60, 31
9, 53400, Note_on_c, 7, 62, 31
9, 53429, Note_on_c, 7, 62, 0
9, 53429, Note_on_c, 7, 60, 0
9, 53430, Note_on_c, 7, 59, 31
9, 53430, Note_on_c, 7, 62, 31
9, 53459, Note_on_c, 7, 62, 0
9, 53459, Note_on_c, 7, 59, 0
9, 53490, Note_on_c, 7, 59, 31
9, 53490, Note_on_c, 7, 62, 31
9, 53519, Note_on_c, 7, 59, 0
9, 53520, Note_on_c, 7, 60, 31
9, 53522, Note_on_c, 7, 62, 0
9, 53759, Note_on_c, 7, 60, 0
9, 53760, Note_on_c, 7, 60, 31
9, 53880, Note_on_c, 7, 58, 31
9, 53939, Note_on_c, 7, 60, 0
9, 53940, Note_on_c, 7, 56, 31
9, 53940, Note_on_c, 7, 71, 32
9, 53941, Note_on_c, 7, 58, 0
9, 54000, Note_on_c, 7, 55, 31
9, 54000, Note_on_c, 7, 72, 31
9, 54001, Note_on_c, 7, 71, 0
9, 54001, Note_on_c, 7, 56, 0
9, 54060, Note_on_c, 7, 60, 32
9, 54061, Note_on_c, 7, 55, 0
9, 54120, Note_on_c, 7, 67, 33
9, 54124, Note_on_c, 7, 72, 0
9, 54180, Note_on_c, 7, 64, 34
9, 54180, Note_on_c, 7, 70, 34
9, 54182, Note_on_c, 7, 67, 0
9, 54187, Note_on_c, 7, 60, 0
9, 54240, Note_on_c, 7, 64, 0
9, 54240, Note_on_c, 7, 65, 36
9, 54240, Note_on_c, 7, 68, 36
9, 54242, Note_on_c, 7, 70, 0
9, 54360, Note_on_c, 7, 64, 38
9, 54360, Note_on_c, 7, 67, 38
9, 54362, Note_on_c, 7, 68, 0
9, 54362, Note_on_c, 7, 65, 0
9, 54420, Note_on_c, 7, 60, 40
9, 54420, Note_on_c, 7, 65, 40
9, 54421, Note_on_c, 7, 64, 0
9, 54422, Note_on_c, 7, 67, 0
9, 54478, Note_on_c, 7, 60, 0
9, 54480, Note_on_c, 7, 60, 41
9, 54480, Note_on_c, 7, 64, 41
9, 54482, Note_on_c, 7, 65, 0
9, 54538, Note_on_c, 7, 60, 0
9, 54540, Note_on_c, 7, 60, 42
9, 54540, Note_on_c, 7, 65, 42
9, 54542, Note_on_c, 7, 64, 0
9, 54598, Note_on_c, 7, 60, 0
9, 54600, Note_on_c, 7, 60, 44
9, 54600, Note_on_c, 7, 67, 44
9, 54602, Note_on_c, 7, 65, 0
9, 54658, Note_on_c, 7, 60, 0
9, 54660, Note_on_c, 7, 60, 45
9, 54660, Note_on_c, 7, 68, 45
9, 54662, Note_on_c, 7, 67, 0
9, 54718, Note_on_c, 7, 60, 0
9, 54720, Note_on_c, 7, 64, 46
9, 54720, Note_on_c, 7, 67, 46
9, 54722, Note_on_c, 7, 68, 0
9, 54840, Note_on_c, 7, 64, 0
9, 54840, Note_on_c, 7, 63, 46
9, 54960, Note_on_c, 7, 61, 46
9, 54960, Note_on_c, 7, 65, 47
9, 54962, Note_on_c, 7, 63, 0
9, 54962, Note_on_c, 7, 67, 0
9, 55019, Note_on_c, 7, 61, 0
9, 55020, Note_on_c, 7, 65, 0
9, 55200, Note_on_c, 7, 60, 48
9, 55200, Note_on_c, 7, 63, 47
9, 55259, Note_on_c, 7, 63, 0
9, 55259, Note_on_c, 7, 60, 0
9, 55440, Note_on_c, 7, 56, 47
9, 55440, Note_on_c, 7, 62, 47
9, 55620, Note_on_c, 7, 65, 53
9, 55622, Note_on_c, 7, 62, 0
9, 55650, Note_on_c, 7, 63, 50
9, 55652, Note_on_c, 7, 65, 0
9, 55680, Note_on_c, 7, 55, 47
9, 55680, Note_on_c, 7, 60, 47
9, 55682, Note_on_c, 7, 63, 0
9, 55682, Note_on_c, 7, 56, 0
9, 55739, Note_on_c, 7, 55, 0
9, 55759, Note_on_c, 7, 60, 0
9, 55760, Note_on_c, 7, 72, 47
9, 55780, Note_on_c, 7, 71, 47
9, 55782, Note_on_c, 7, 72, 0
9, 55798, Note_on_c, 7, 71, 0
9, 55800, Note_on_c, 7, 74, 47
9, 55820, Note_on_c, 7, 72, 47
9, 55822, Note_on_c, 7, 74, 0
9, 55838, Note_on_c, 7, 72, 0
9, 55840, Note_on_c, 7, 75, 47
9, 55850, Note_on_c, 7, 75, 0
9, 55860, Note_on_c, 7, 72, 47
9, 55870, Note_on_c, 7, 72, 0
9, 55880, Note_on_c, 7, 67, 47
9, 55890, Note_on_c, 7, 67, 0
9, 55900, Note_on_c, 7, 63, 47
9, 55910, Note_on_c, 7, 63, 0
9, 55920, Note_on_c, 7, 56, 47
9, 55920, Note_on_c, 7, 62, 47
9, 56100, Note_on_c, 7, 65, 55
9, 56101, Note_on_c, 7, 62, 0
9, 56130, Note_on_c, 7, 63, 51
9, 56132, Note_on_c, 7, 65, 0
9, 56160, Note_on_c, 7, 63, 0
9, 56160, Note_on_c, 7, 55, 47
9, 56160, Note_on_c, 7, 60, 47
9, 56161, Note_on_c, 7, 56, 0
9, 56180, Note_on_c, 7, 60, 0
9, 56180, Note_on_c, 7, 72, 48
9, 56200, Note_on_c, 7, 71, 48
9, 56202, Note_on_c, 7, 72, 0
9, 56218, Note_on_c, 7, 71, 0
9, 56220, Note_on_c, 7, 74, 48
9, 56223, Note_on_c, 7, 55, 0
9, 56240, Note_on_c, 7, 72, 48
9, 56242, Note_on_c, 7, 74, 0
9, 56258, Note_on_c, 7, 72, 0
9, 56260, Note_on_c, 7, 75, 48
9, 56270, Note_on_c, 7, 75, 0
9, 56280, Note_on_c, 7, 72, 48
9, 56290, Note_on_c, 7, 72, 0
9, 56300, Note_on_c, 7, 79, 48
9, 56310, Note_on_c, 7, 79, 0
9, 56320, Note_on_c, 7, 75, 48
9, 56330, Note_on_c, 7, 75, 0
9, 56340, Note_on_c, 7, 72, 48
9, 56350, Note_on_c, 7, 72, 0
9, 56360, Note_on_c, 7, 67, 48
9, 56370, Note_on_c, 7, 67, 0
9, 56380, Note_on_c, 7, 63, 48
9, 56390, Note_on_c, 7, 63, 0
9, 56400, Note_on_c, 7, 56, 47
9, 56400, Note_on_c, 7, 62, 48
9, 56479, Note_on_c, 7, 62, 0
9, 56480, Note_on_c, 7, 65, 48
9, 56500, Note_on_c, 7, 63, 48
9, 56502, Note_on_c, 7, 65, 0
9, 56510, Note_on_c, 7, 63, 0
9, 56520, Note_on_c, 7, 62, 48
9, 56530, Note_on_c, 7, 62, 0
9, 56540, Note_on_c, 7, 68, 48
9, 56560, Note_on_c, 7, 67, 48
9, 56562, Note_on_c, 7, 68, 0
9, 56578, Note_on_c, 7, 67, 0
9, 56580, Note_on_c, 7, 65, 48
9, 56590, Note_on_c, 7, 65, 0
9, 56600, Note_on_c, 7, 74, 48
9, 56620, Note_on_c, 7, 72, 48
9, 56622, Note_on_c, 7, 74, 0
9, 56638, Note_on_c, 7, 72, 0
9, 56640, Note_on_c, 7, 71, 48
9, 56650, Note_on_c, 7, 71, 0
9, 56660, Note_on_c, 7, 78, 49
9, 56680, Note_on_c, 7, 77, 50
9, 56682, Note_on_c, 7, 78, 0
9, 56698, Note_on_c, 7, 77, 0
9, 56700, Note_on_c, 7, 74, 51
9, 56710, Note_on_c, 7, 74, 0
9, 56720, Note_on_c, 7, 80, 53
9, 56740, Note_on_c, 7, 79, 54
9, 56742, Note_on_c, 7, 80, 0
9, 56758, Note_on_c, 7, 79, 0
9, 56760, Note_on_c, 7, 77, 55
9, 56770, Note_on_c, 7, 77, 0
9, 56780, Note_on_c, 7, 77, 56
9, 56800, Note_on_c, 7, 75, 58
9, 56802, Note_on_c, 7, 77, 0
9, 56818, Note_on_c, 7, 75, 0
9, 56820, Note_on_c, 7, 74, 59
9, 56830, Note_on_c, 7, 74, 0
9, 56840, Note_on_c, 7, 77, 60
9, 56860, Note_on_c, 7, 75, 61
9, 56862, Note_on_c, 7, 77, 0
9, 56878, Note_on_c, 7, 75, 0
9, 56880, Note_on_c, 7, 74, 63
9, 56895, Note_on_c, 7, 74, 0
9, 56910, Note_on_c, 7, 72, 61
9, 56925, Note_on_c, 7, 72, 0
9, 56940, Note_on_c, 7, 55, 47
9, 56940, Note_on_c, 7, 71, 59
9, 56941, Note_on_c, 7, 56, 0
9, 56955, Note_on_c, 7, 71, 0
9, 56970, Note_on_c, 7, 68, 57
9, 56985, Note_on_c, 7, 68, 0
9, 57000, Note_on_c, 7, 67, 55
9, 57015, Note_on_c, 7, 67, 0
9, 57030, Note_on_c, 7, 65, 53
9, 57045, Note_on_c, 7, 65, 0
9, 57058, Note_on_c, 7, 55, 0
9, 57060, Note_on_c, 7, 55, 47
9, 57060, Note_on_c, 7, 63, 51
9, 57074, Note_on_c, 7, 63, 0
9, 57090, Note_on_c, 7, 62, 49
9, 57104, Note_on_c, 7, 62, 0
9, 57118, Note_on_c, 7, 55, 0
9, 57240, Note_on_c, 7, 60, 47
9, 57350, Note_on_c, 7, 62, 47
9, 57351, Note_on_c, 7, 60, 0
9, 57360, Note_on_c, 7, 60, 47
9, 57361, Note_on_c, 7, 62, 0
9, 57405, Note_on_c, 7, 59, 47
9, 57406, Note_on_c, 7, 60, 0
9, 57420, Note_on_c, 7, 60, 47
9, 57421, Note_on_c, 7, 59, 0
9, 57465, Note_on_c, 7, 62, 47
9, 57466, Note_on_c, 7, 60, 0
9, 57480, Note_on_c, 7, 62, 0
9, 57600, Note_on_c, 7, 63, 40
9, 57660, Note_on_c, 7, 60, 40
9, 57661, Note_on_c, 7, 63, 0
9, 57720, Note_on_c, 7, 60, 0
9, 57750, Note_on_c, 7, 67, 40
9, 57765, Note_on_c, 7, 67, 0
9, 57780, Note_on_c, 7, 65, 40
9, 57794, Note_on_c, 7, 65, 0
9, 57810, Note_on_c, 7, 63, 40
9, 57824, Note_on_c, 7, 63, 0
9, 57840, Note_on_c, 7, 62, 35
9, 57855, Note_on_c, 7, 62, 0
9, 57870, Note_on_c, 7, 60, 35
9, 57884, Note_on_c, 7, 60, 0
9, 57900, Note_on_c, 7, 63, 35
9, 57915, Note_on_c, 7, 62, 35
9, 57916, Note_on_c, 7, 63, 0
9, 57930, Note_on_c, 7, 62, 0
9, 57990, Note_on_c, 7, 63, 34
9, 58005, Note_on_c, 7, 63, 0
9, 58020, Note_on_c, 7, 65, 34
9, 58035, Note_on_c, 7, 65, 0
9, 58050, Note_on_c, 7, 67, 34
9, 58064, Note_on_c, 7, 67, 0
9, 58140, Note_on_c, 7, 68, 33
9, 58260, Note_on_c, 7, 67, 32
9, 58261, Note_on_c, 7, 68, 0
9, 58290, Note_on_c, 7, 65, 32
9, 58291, Note_on_c, 7, 67, 0
9, 58320, Note_on_c, 7, 65, 0
9, 58440, Note_on_c, 7, 65, 31
9, 58470, Note_on_c, 7, 63, 31
9, 58471, Note_on_c, 7, 65, 0
9, 58498, Note_on_c, 7, 63, 0
9, 58500, Note_on_c, 7, 65, 31
9, 58515, Note_on_c, 7, 65, 0
9, 58530, Note_on_c, 7, 62, 31
9, 58545, Note_on_c, 7, 62, 0
9, 58710, Note_on_c, 7, 60, 31
9, 58740, Note_on_c, 7, 60, 0
9, 58740, Note_on_c, 7, 62, 31
9, 58770, Note_on_c, 7, 62, 0
9, 58770, Note_on_c, 7, 59, 31
9, 58800, Note_on_c, 7, 59, 0
9, 58860, Note_on_c, 7, 60, 31
9, 58920, Note_on_c, 7, 60, 0
9, 58980, Note_on_c, 7, 56, 31
9, 58980, Note_on_c, 7, 60, 31
9, 59007, Note_on_c, 7, 56, 0
9, 59009, Note_on_c, 7, 60, 0
9, 59010, Note_on_c, 7, 56, 31
9, 59010, Note_on_c, 7, 60, 31
9, 59037, Note_on_c, 7, 56, 0
9, 59039, Note_on_c, 7, 60, 0
9, 59040, Note_on_c, 7, 55, 31
9, 59040, Note_on_c, 7, 60, 31
9, 59099, Note_on_c, 7, 60, 0
9, 59100, Note_on_c, 7, 55, 0
9, 59160, Note_on_c, 7, 72, 95
9, 59160, Note_on_c, 7, 63, 95
9, 59160, Note_on_c, 7, 55, 95
9, 59160, Note_on_c, 7, 72, 95
9, 59160, Note_on_c, 7, 55, 95
9, 59160, Note_on_c, 7, 63, 95
9, 59219, Note_on_c, 7, 63, 0
9, 59219, Note_on_c, 7, 55, 0
9, 59219, Note_on_c, 7, 55, 0
9, 59220, Note_on_c, 7, 72, 0
9, 59220, Note_on_c, 7, 72, 0
9, 59220, Note_on_c, 7, 63, 0
9, 59280, Note_on_c, 7, 60, 49
9, 59280, Note_on_c, 7, 60, 47
9, 59998, Note_on_c, 7, 60, 0
9, 60000, Note_on_c, 7, 60, 0
9, 60000, End_track
10, 0, Start_track
10, 0, MIDI_port, 0
10, 0, Title_t, "Viola"
10, 0, Program_c, 7, 48
10, 240, Note_on_c, 7, 51, 32
10, 359, Note_on_c, 7, 51, 0
10, 480, Note_on_c, 7, 51, 32
10, 599, Note_on_c, 7, 51, 0
10, 720, Note_on_c, 7, 51, 32
10, 829, Note_on_c, 7, 51, 0
10, 840, Note_on_c, 7, 51, 32
10, 949, Note_on_c, 7, 51, 0
10, 960, Note_on_c, 7, 51, 32
10, 1080, Note_on_c, 7, 50, 32
10, 1089, Note_on_c, 7, 51, 0
10, 1139, Note_on_c, 7, 50, 0
10, 1200, Note_on_c, 7, 53, 32
10, 1319, Note_on_c, 7, 53, 0
10, 1440, Note_on_c, 7, 53, 64
10, 1614, Note_on_c, 7, 53, 0
10, 1620, Note_on_c, 7, 53, 40
10, 1650, Note_on_c, 7, 55, 36
10, 1659, Note_on_c, 7, 53, 0
10, 1674, Note_on_c, 7, 55, 0
10, 1680, Note_on_c, 7, 55, 32
10, 1740, Note_on_c, 7, 50, 32
10, 1749, Note_on_c, 7, 55, 0
10, 1799, Note_on_c, 7, 50, 0
10, 1800, Note_on_c, 7, 51, 32
10, 1860, Note_on_c, 7, 53, 32
10, 1869, Note_on_c, 7, 51, 0
10, 1919, Note_on_c, 7, 53, 0
10, 1920, Note_on_c, 7, 51, 32
10, 1979, Note_on_c, 7, 51, 0
10, 1980, Note_on_c, 7, 53, 32
10, 2019, Note_on_c, 7, 53, 0
10, 2025, Note_on_c, 7, 53, 32
10, 2034, Note_on_c, 7, 53, 0
10, 2040, Note_on_c, 7, 51, 32
10, 2099, Note_on_c, 7, 51, 0
10, 2130, Note_on_c, 7, 55, 32
10, 2137, Note_on_c, 7, 55, 0
10, 2140, Note_on_c, 7, 55, 32
10, 2147, Note_on_c, 7, 55, 0
10, 2150, Note_on_c, 7, 55, 32
10, 2157, Note_on_c, 7, 55, 0
10, 2160, Note_on_c, 7, 55, 32
10, 2219, Note_on_c, 7, 55, 0
10, 2370, Note_on_c, 7, 55, 32
10, 2377, Note_on_c, 7, 55, 0
10, 2380, Note_on_c, 7, 55, 32
10, 2387, Note_on_c, 7, 55, 0
10, 2390, Note_on_c, 7, 55, 32
10, 2397, Note_on_c, 7, 55, 0
10, 2400, Note_on_c, 7, 55, 32
10, 2459, Note_on_c, 7, 55, 0
10, 2610, Note_on_c, 7, 55, 32
10, 2617, Note_on_c, 7, 55, 0
10, 2620, Note_on_c, 7, 55, 32
10, 2627, Note_on_c, 7, 55, 0
10, 2630, Note_on_c, 7, 55, 32
10, 2637, Note_on_c, 7, 55, 0
10, 2640, Note_on_c, 7, 55, 32
10, 2699, Note_on_c, 7, 55, 0
10, 2730, Note_on_c, 7, 55, 32
10, 2737, Note_on_c, 7, 55, 0
10, 2740, Note_on_c, 7, 55, 32
10, 2747, Note_on_c, 7, 55, 0
10, 2750, Note_on_c, 7, 55, 32
10, 2757, Note_on_c, 7, 55, 0
10, 2760, Note_on_c, 7, 55, 32
10, 2819, Note_on_c, 7, 55, 0
10, 2850, Note_on_c, 7, 55, 32
10, 2857, Note_on_c, 7, 55, 0
10, 2860, Note_on_c, 7, 55, 32
10, 2867, Note_on_c, 7, 55, 0
10, 2870, Note_on_c, 7, 55, 32
10, 2877, Note_on_c, 7, 55, 0
10, 2880, Note_on_c, 7, 60, 32
10, 2939, Note_on_c, 7, 60, 0
10, 2970, Note_on_c, 7, 63, 32
10, 2970, Note_on_c, 7, 60, 32
10, 2977, Note_on_c, 7, 60, 0
10, 2977, Note_on_c, 7, 63, 0
10, 2980, Note_on_c, 7, 60, 36
10, 2980, Note_on_c, 7, 63, 36
10, 2987, Note_on_c, 7, 63, 0
10, 2987, Note_on_c, 7, 60, 0
10, 2990, Note_on_c, 7, 63, 40
10, 2990, Note_on_c, 7, 60, 40
10, 2997, Note_on_c, 7, 60, 0
10, 2997, Note_on_c, 7, 63, 0
10, 3000, Note_on_c, 7, 59, 36
10, 3000, Note_on_c, 7, 62, 36
10, 3059, Note_on_c, 7, 62, 0
10, 3059, Note_on_c, 7, 59, 0
10, 3090, Note_on_c, 7, 55, 32
10, 3097, Note_on_c, 7, 55, 0
10, 3100, Note_on_c, 7, 55, 32
10, 3107, Note_on_c, 7, 55, 0
10, 3110, Note_on_c, 7, 55, 32
10, 3117, Note_on_c, 7, 55, 0
10, 3120, Note_on_c, 7, 56, 32
10, 3179, Note_on_c, 7, 56, 0
10, 3330, Note_on_c, 7, 56, 32
10, 3337, Note_on_c, 7, 56, 0
10, 3340, Note_on_c, 7, 56, 32
10, 3347, Note_on_c, 7, 56, 0
10, 3350, Note_on_c, 7, 56, 32
10, 3357, Note_on_c, 7, 56, 0
10, 3360, Note_on_c, 7, 56, 32
10, 3419, Note_on_c, 7, 56, 0
10, 3570, Note_on_c, 7, 62, 32
10, 3577, Note_on_c, 7, 62, 0
10, 3580, Note_on_c, 7, 62, 32
10, 3587, Note_on_c, 7, 62, 0
10, 3590, Note_on_c, 7, 62, 32
10, 3597, Note_on_c, 7, 62, 0
10, 3600, Note_on_c, 7, 62, 32
10, 3659, Note_on_c, 7, 62, 0
10, 3690, Note_on_c, 7, 58, 32
10, 3697, Note_on_c, 7, 58, 0
10, 3700, Note_on_c, 7, 58, 32
10, 3707, Note_on_c, 7, 58, 0
10, 3710, Note_on_c, 7, 58, 32
10, 3717, Note_on_c, 7, 58, 0
10, 3720, Note_on_c, 7, 58, 32
10, 3779, Note_on_c, 7, 58, 0
10, 3810, Note_on_c, 7, 58, 32
10, 3817, Note_on_c, 7, 58, 0
10, 3820, Note_on_c, 7, 58, 32
10, 3827, Note_on_c, 7, 58, 0
10, 3830, Note_on_c, 7, 58, 32
10, 3837, Note_on_c, 7, 58, 0
10, 3840, Note_on_c, 7, 58, 48
10, 3899, Note_on_c, 7, 58, 0
10, 4080, Note_on_c, 7, 51, 48
10, 4200, Note_on_c, 7, 53, 48
10, 4209, Note_on_c, 7, 51, 0
10, 4260, Note_on_c, 7, 55, 48
10, 4269, Note_on_c, 7, 53, 0
10, 4319, Note_on_c, 7, 55, 0
10, 4320, Note_on_c, 7, 53, 48
10, 4379, Note_on_c, 7, 53, 0
10, 4560, Note_on_c, 7, 51, 80
10, 4680, Note_on_c, 7, 55, 88
10, 4689, Note_on_c, 7, 51, 0
10, 4740, Note_on_c, 7, 48, 92
10, 4749, Note_on_c, 7, 55, 0
10, 4799, Note_on_c, 7, 48, 0
10, 4800, Note_on_c, 7, 49, 92
10, 4859, Note_on_c, 7, 49, 0
10, 4905, Note_on_c, 7, 60, 96
10, 4905, Note_on_c, 7, 48, 96
10, 4914, Note_on_c, 7, 48, 0
10, 4914, Note_on_c, 7, 60, 0
10, 4920, Note_on_c, 7, 48, 96
10, 4920, Note_on_c, 7, 60, 96
10, 5039, Note_on_c, 7, 60, 0
10, 5039, Note_on_c, 7, 48, 0
10, 5160, Note_on_c, 7, 60, 48
10, 5160, Note_on_c, 7, 48, 48
10, 5204, Note_on_c, 7, 48, 0
10, 5204, Note_on_c, 7, 60, 0
10, 5220, Note_on_c, 7, 48, 48
10, 5220, Note_on_c, 7, 60, 48
10, 5264, Note_on_c, 7, 60, 0
10, 5264, Note_on_c, 7, 48, 0
10, 5280, Note_on_c, 7, 60, 48
10, 5280, Note_on_c, 7, 48, 48
10, 5334, Note_on_c, 7, 48, 0
10, 5339, Note_on_c, 7, 60, 0
10, 5340, Note_on_c, 7, 48, 48
10, 5400, Note_on_c, 7, 51, 96
10, 5409, Note_on_c, 7, 48, 0
10, 5460, Note_on_c, 7, 48, 64
10, 5469, Note_on_c, 7, 51, 0
10, 5519, Note_on_c, 7, 48, 0
10, 5520, Note_on_c, 7, 50, 48
10, 5579, Note_on_c, 7, 50, 0
10, 5760, Note_on_c, 7, 60, 48
10, 5880, Note_on_c, 7, 59, 48
10, 5889, Note_on_c, 7, 60, 0
10, 5940, Note_on_c, 7, 60, 48
10, 5949, Note_on_c, 7, 59, 0
10, 5999, Note_on_c, 7, 60, 0
10, 6000, Note_on_c, 7, 62, 48
10, 6060, Note_on_c, 7, 55, 52
10, 6069, Note_on_c, 7, 62, 0
10, 6120, Note_on_c, 7, 67, 54
10, 6129, Note_on_c, 7, 55, 0
10, 6294, Note_on_c, 7, 67, 0
10, 6300, Note_on_c, 7, 67, 56
10, 6420, Note_on_c, 7, 66, 50
10, 6429, Note_on_c, 7, 67, 0
10, 6480, Note_on_c, 7, 67, 48
10, 6489, Note_on_c, 7, 66, 0
10, 6539, Note_on_c, 7, 67, 0
10, 7320, Note_on_c, 7, 52, 96
10, 7440, Note_on_c, 7, 53, 48
10, 7449, Note_on_c, 7, 52, 0
10, 7559, Note_on_c, 7, 53, 0
10, 7680, Note_on_c, 7, 61, 48
10, 7859, Note_on_c, 7, 61, 0
10, 7920, Note_on_c, 7, 62, 48
10, 7979, Note_on_c, 7, 62, 0
10, 8010, Note_on_c, 7, 62, 68
10, 8017, Note_on_c, 7, 62, 0
10, 8020, Note_on_c, 7, 62, 69
10, 8027, Note_on_c, 7, 62, 0
10, 8030, Note_on_c, 7, 62, 70
10, 8037, Note_on_c, 7, 62, 0
10, 8040, Note_on_c, 7, 68, 72
10, 8099, Note_on_c, 7, 68, 0
10, 8130, Note_on_c, 7, 68, 92
10, 8137, Note_on_c, 7, 68, 0
10, 8140, Note_on_c, 7, 68, 92
10, 8147, Note_on_c, 7, 68, 0
10, 8150, Note_on_c, 7, 68, 92
10, 8157, Note_on_c, 7, 68, 0
10, 8160, Note_on_c, 7, 67, 96
10, 8189, Note_on_c, 7, 67, 0
10, 8220, Note_on_c, 7, 60, 96
10, 8249, Note_on_c, 7, 60, 0
10, 8340, Note_on_c, 7, 51, 48
10, 8454, Note_on_c, 7, 51, 0
10, 8460, Note_on_c, 7, 51, 96
10, 8580, Note_on_c, 7, 50, 64
10, 8589, Note_on_c, 7, 51, 0
10, 8625, Note_on_c, 7, 53, 52
10, 8626, Note_on_c, 7, 50, 0
10, 8640, Note_on_c, 7, 51, 48
10, 8641, Note_on_c, 7, 53, 0
10, 8669, Note_on_c, 7, 51, 0
10, 8700, Note_on_c, 7, 56, 48
10, 8722, Note_on_c, 7, 56, 0
10, 8745, Note_on_c, 7, 56, 48
10, 8752, Note_on_c, 7, 56, 0
10, 8760, Note_on_c, 7, 50, 48
10, 8789, Note_on_c, 7, 50, 0
10, 8820, Note_on_c, 7, 58, 48
10, 8842, Note_on_c, 7, 58, 0
10, 8865, Note_on_c, 7, 58, 48
10, 8872, Note_on_c, 7, 58, 0
10, 8880, Note_on_c, 7, 51, 48
10, 8939, Note_on_c, 7, 51, 0
10, 9090, Note_on_c, 7, 55, 48
10, 9097, Note_on_c, 7, 55, 0
10, 9100, Note_on_c, 7, 55, 48
10, 9107, Note_on_c, 7, 55, 0
10, 9110, Note_on_c, 7, 55, 48
10, 9117, Note_on_c, 7, 55, 0
10, 9120, Note_on_c, 7, 58, 48
10, 9179, Note_on_c, 7, 58, 0
10, 9330, Note_on_c, 7, 58, 67
10, 9337, Note_on_c, 7, 58, 0
10, 9340, Note_on_c, 7, 58, 72
10, 9347, Note_on_c, 7, 58, 0
10, 9350, Note_on_c, 7, 58, 76
10, 9357, Note_on_c, 7, 58, 0
10, 9360, Note_on_c, 7, 60, 80
10, 9419, Note_on_c, 7, 60, 0
10, 9450, Note_on_c, 7, 60, 84
10, 9457, Note_on_c, 7, 60, 0
10, 9460, Note_on_c, 7, 60, 84
10, 9467, Note_on_c, 7, 60, 0
10, 9470, Note_on_c, 7, 60, 84
10, 9477, Note_on_c, 7, 60, 0
10, 9480, Note_on_c, 7, 58, 88
10, 9539, Note_on_c, 7, 58, 0
10, 9570, Note_on_c, 7, 56, 88
10, 9577, Note_on_c, 7, 56, 0
10, 9580, Note_on_c, 7, 56, 88
10, 9587, Note_on_c, 7, 56, 0
10, 9590, Note_on_c, 7, 56, 88
10, 9597, Note_on_c, 7, 56, 0
10, 9600, Note_on_c, 7, 55, 92
10, 9600, Note_on_c, 7, 58, 92
10, 9659, Note_on_c, 7, 58, 0
10, 9659, Note_on_c, 7, 55, 0
10, 9690, Note_on_c, 7, 67, 96
10, 9697, Note_on_c, 7, 67, 0
10, 9700, Note_on_c, 7, 67, 96
10, 9707, Note_on_c, 7, 67, 0
10, 9710, Note_on_c, 7, 67, 96
10, 9717, Note_on_c, 7, 67, 0
10, 9720, Note_on_c, 7, 67, 96
10, 9779, Note_on_c, 7, 67, 0
10, 9810, Note_on_c, 7, 67, 96
10, 9817, Note_on_c, 7, 67, 0
10, 9820, Note_on_c, 7, 67, 96
10, 9827, Note_on_c, 7, 67, 0
10, 9830, Note_on_c, 7, 67, 96
10, 9837, Note_on_c, 7, 67, 0
10, 9840, Note_on_c, 7, 67, 48
10, 9899, Note_on_c, 7, 67, 0
10, 9930, Note_on_c, 7, 60, 48
10, 9937, Note_on_c, 7, 60, 0
10, 9940, Note_on_c, 7, 60, 48
10, 9947, Note_on_c, 7, 60, 0
10, 9950, Note_on_c, 7, 60, 48
10, 9957, Note_on_c, 7, 60, 0
10, 9960, Note_on_c, 7, 60, 48
10, 10019, Note_on_c, 7, 60, 0
10, 10050, Note_on_c, 7, 60, 48
10, 10057, Note_on_c, 7, 60, 0
10, 10060, Note_on_c, 7, 60, 48
10, 10067, Note_on_c, 7, 60, 0
10, 10070, Note_on_c, 7, 60, 48
10, 10077, Note_on_c, 7, 60, 0
10, 10080, Note_on_c, 7, 60, 48
10, 10139, Note_on_c, 7, 60, 0
10, 10170, Note_on_c, 7, 48, 48
10, 10177, Note_on_c, 7, 48, 0
10, 10180, Note_on_c, 7, 48, 48
10, 10187, Note_on_c, 7, 48, 0
10, 10190, Note_on_c, 7, 48, 48
10, 10197, Note_on_c, 7, 48, 0
10, 10200, Note_on_c, 7, 51, 48
10, 10259, Note_on_c, 7, 51, 0
10, 10290, Note_on_c, 7, 48, 48
10, 10297, Note_on_c, 7, 48, 0
10, 10300, Note_on_c, 7, 48, 48
10, 10307, Note_on_c, 7, 48, 0
10, 10310, Note_on_c, 7, 48, 48
10, 10317, Note_on_c, 7, 48, 0
10, 10320, Note_on_c, 7, 50, 48
10, 10379, Note_on_c, 7, 50, 0
10, 10530, Note_on_c, 7, 55, 48
10, 10537, Note_on_c, 7, 55, 0
10, 10540, Note_on_c, 7, 55, 48
10, 10547, Note_on_c, 7, 55, 0
10, 10550, Note_on_c, 7, 55, 48
10, 10557, Note_on_c, 7, 55, 0
10, 10560, Note_on_c, 7, 55, 48
10, 10619, Note_on_c, 7, 55, 0
10, 10770, Note_on_c, 7, 55, 48
10, 10777, Note_on_c, 7, 55, 0
10, 10780, Note_on_c, 7, 55, 48
10, 10787, Note_on_c, 7, 55, 0
10, 10790, Note_on_c, 7, 55, 48
10, 10797, Note_on_c, 7, 55, 0
10, 10800, Note_on_c, 7, 55, 48
10, 10859, Note_on_c, 7, 55, 0
10, 11010, Note_on_c, 7, 55, 52
10, 11017, Note_on_c, 7, 55, 0
10, 11020, Note_on_c, 7, 55, 52
10, 11027, Note_on_c, 7, 55, 0
10, 11030, Note_on_c, 7, 55, 52
10, 11037, Note_on_c, 7, 55, 0
10, 11040, Note_on_c, 7, 55, 56
10, 11099, Note_on_c, 7, 55, 0
10, 11130, Note_on_c, 7, 55, 56
10, 11137, Note_on_c, 7, 55, 0
10, 11140, Note_on_c, 7, 55, 56
10, 11147, Note_on_c, 7, 55, 0
10, 11150, Note_on_c, 7, 55, 56
10, 11157, Note_on_c, 7, 55, 0
10, 11160, Note_on_c, 7, 55, 52
10, 11219, Note_on_c, 7, 55, 0
10, 11250, Note_on_c, 7, 55, 52
10, 11257, Note_on_c, 7, 55, 0
10, 11260, Note_on_c, 7, 55, 52
10, 11267, Note_on_c, 7, 55, 0
10, 11270, Note_on_c, 7, 55, 52
10, 11277, Note_on_c, 7, 55, 0
10, 11280, Note_on_c, 7, 55, 48
10, 11339, Note_on_c, 7, 55, 0
10, 12210, Note_on_c, 7, 60, 96
10, 12217, Note_on_c, 7, 60, 0
10, 12220, Note_on_c, 7, 60, 96
10, 12227, Note_on_c, 7, 60, 0
10, 12230, Note_on_c, 7, 60, 96
10, 12237, Note_on_c, 7, 60, 0
10, 12240, Note_on_c, 7, 65, 48
10, 12299, Note_on_c, 7, 65, 0
10, 12450, Note_on_c, 7, 65, 48
10, 12457, Note_on_c, 7, 65, 0
10, 12460, Note_on_c, 7, 65, 48
10, 12467, Note_on_c, 7, 65, 0
10, 12470, Note_on_c, 7, 65, 48
10, 12477, Note_on_c, 7, 65, 0
10, 12480, Note_on_c, 7, 61, 48
10, 12539, Note_on_c, 7, 61, 0
10, 12690, Note_on_c, 7, 61, 48
10, 12697, Note_on_c, 7, 61, 0
10, 12700, Note_on_c, 7, 61, 48
10, 12707, Note_on_c, 7, 61, 0
10, 12710, Note_on_c, 7, 61, 48
10, 12717, Note_on_c, 7, 61, 0
10, 12720, Note_on_c, 7, 62, 48
10, 12779, Note_on_c, 7, 62, 0
10, 12810, Note_on_c, 7, 62, 68
10, 12817, Note_on_c, 7, 62, 0
10, 12820, Note_on_c, 7, 62, 68
10, 12827, Note_on_c, 7, 62, 0
10, 12830, Note_on_c, 7, 62, 68
10, 12837, Note_on_c, 7, 62, 0
10, 12840, Note_on_c, 7, 56, 72
10, 12899, Note_on_c, 7, 56, 0
10, 12930, Note_on_c, 7, 56, 92
10, 12937, Note_on_c, 7, 56, 0
10, 12940, Note_on_c, 7, 56, 92
10, 12947, Note_on_c, 7, 56, 0
10, 12950, Note_on_c, 7, 56, 92
10, 12957, Note_on_c, 7, 56, 0
10, 12960, Note_on_c, 7, 55, 96
10, 12989, Note_on_c, 7, 55, 0
10, 13020, Note_on_c, 7, 53, 96
10, 13049, Note_on_c, 7, 53, 0
10, 13170, Note_on_c, 7, 56, 48
10, 13177, Note_on_c, 7, 56, 0
10, 13180, Note_on_c, 7, 56, 48
10, 13187, Note_on_c, 7, 56, 0
10, 13190, Note_on_c, 7, 56, 48
10, 13197, Note_on_c, 7, 56, 0
10, 13200, Note_on_c, 7, 56, 48
10, 13259, Note_on_c, 7, 56, 0
10, 13290, Note_on_c, 7, 55, 52
10, 13297, Note_on_c, 7, 55, 0
10, 13300, Note_on_c, 7, 55, 52
10, 13307, Note_on_c, 7, 55, 0
10, 13310, Note_on_c, 7, 55, 52
10, 13317, Note_on_c, 7, 55, 0
10, 13320, Note_on_c, 7, 55, 56
10, 13379, Note_on_c, 7, 55, 0
10, 13410, Note_on_c, 7, 55, 52
10, 13417, Note_on_c, 7, 55, 0
10, 13420, Note_on_c, 7, 55, 52
10, 13427, Note_on_c, 7, 55, 0
10, 13430, Note_on_c, 7, 55, 52
10, 13437, Note_on_c, 7, 55, 0
10, 13440, Note_on_c, 7, 55, 48
10, 13500, Note_on_c, 7, 60, 48
10, 13509, Note_on_c, 7, 55, 0
10, 13560, Note_on_c, 7, 59, 48
10, 13569, Note_on_c, 7, 60, 0
10, 13620, Note_on_c, 7, 62, 48
10, 13629, Note_on_c, 7, 59, 0
10, 13679, Note_on_c, 7, 62, 0
10, 13680, Note_on_c, 7, 60, 48
10, 13740, Note_on_c, 7, 59, 48
10, 13749, Note_on_c, 7, 60, 0
10, 13800, Note_on_c, 7, 55, 48
10, 13809, Note_on_c, 7, 59, 0
10, 13854, Note_on_c, 7, 55, 0
10, 13860, Note_on_c, 7, 55, 48
10, 13914, Note_on_c, 7, 55, 0
10, 13920, Note_on_c, 7, 55, 48
10, 13980, Note_on_c, 7, 59, 48
10, 13989, Note_on_c, 7, 55, 0
10, 14040, Note_on_c, 7, 60, 96
10, 14049, Note_on_c, 7, 59, 0
10, 14100, Note_on_c, 7, 55, 48
10, 14109, Note_on_c, 7, 60, 0
10, 14154, Note_on_c, 7, 55, 0
10, 14160, Note_on_c, 7, 55, 48
10, 14274, Note_on_c, 7, 55, 0
10, 14280, Note_on_c, 7, 55, 48
10, 14309, Note_on_c, 7, 55, 0
10, 14850, Note_on_c, 7, 60, 48
10, 14857, Note_on_c, 7, 60, 0
10, 14860, Note_on_c, 7, 60, 48
10, 14867, Note_on_c, 7, 60, 0
10, 14870, Note_on_c, 7, 60, 48
10, 14877, Note_on_c, 7, 60, 0
10, 14880, Note_on_c, 7, 60, 48
10, 14939, Note_on_c, 7, 60, 0
10, 14970, Note_on_c, 7, 60, 48
10, 14977, Note_on_c, 7, 60, 0
10, 14980, Note_on_c, 7, 60, 48
10, 14987, Note_on_c, 7, 60, 0
10, 14990, Note_on_c, 7, 60, 48
10, 14997, Note_on_c, 7, 60, 0
10, 15000, Note_on_c, 7, 62, 48
10, 15059, Note_on_c, 7, 62, 0
10, 15090, Note_on_c, 7, 62, 48
10, 15097, Note_on_c, 7, 62, 0
10, 15100, Note_on_c, 7, 62, 48
10, 15107, Note_on_c, 7, 62, 0
10, 15110, Note_on_c, 7, 62, 48
10, 15117, Note_on_c, 7, 62, 0
10, 15120, Note_on_c, 7, 60, 48
10, 15179, Note_on_c, 7, 60, 0
10, 15360, Note_on_c, 7, 60, 48
10, 15419, Note_on_c, 7, 60, 0
10, 15450, Note_on_c, 7, 60, 48
10, 15457, Note_on_c, 7, 60, 0
10, 15460, Note_on_c, 7, 60, 48
10, 15467, Note_on_c, 7, 60, 0
10, 15470, Note_on_c, 7, 60, 48
10, 15477, Note_on_c, 7, 60, 0
10, 15480, Note_on_c, 7, 59, 48
10, 15539, Note_on_c, 7, 59, 0
10, 15570, Note_on_c, 7, 55, 48
10, 15577, Note_on_c, 7, 55, 0
10, 15580, Note_on_c, 7, 55, 48
10, 15587, Note_on_c, 7, 55, 0
10, 15590, Note_on_c, 7, 55, 48
10, 15597, Note_on_c, 7, 55, 0
10, 15600, Note_on_c, 7, 60, 48
10, 15659, Note_on_c, 7, 60, 0
10, 15660, Note_on_c, 7, 68, 96
10, 15720, Note_on_c, 7, 67, 48
10, 15729, Note_on_c, 7, 68, 0
10, 15780, Note_on_c, 7, 63, 96
10, 15789, Note_on_c, 7, 67, 0
10, 15840, Note_on_c, 7, 60, 64
10, 15849, Note_on_c, 7, 63, 0
10, 15899, Note_on_c, 7, 60, 0
10, 15900, Note_on_c, 7, 56, 96
10, 15944, Note_on_c, 7, 56, 0
10, 15945, Note_on_c, 7, 53, 96
10, 15959, Note_on_c, 7, 53, 0
10, 15960, Note_on_c, 7, 50, 96
10, 15989, Note_on_c, 7, 50, 0
10, 16020, Note_on_c, 7, 55, 96
10, 16049, Note_on_c, 7, 55, 0
10, 16080, Note_on_c, 7, 48, 48
10, 16109, Note_on_c, 7, 48, 0
10, 16200, Note_on_c, 7, 55, 48
10, 16229, Note_on_c, 7, 55, 0
10, 16320, Note_on_c, 7, 51, 48
10, 16349, Note_on_c, 7, 51, 0
10, 16620, Note_on_c, 7, 55, 48
10, 16649, Note_on_c, 7, 55, 0
10, 16680, Note_on_c, 7, 57, 48
10, 16709, Note_on_c, 7, 57, 0
10, 16740, Note_on_c, 7, 59, 48
10, 16769, Note_on_c, 7, 59, 0
10, 16800, Note_on_c, 7, 60, 48
10, 17094, Note_on_c, 7, 60, 0
10, 17100, Note_on_c, 7, 60, 48
10, 17129, Note_on_c, 7, 60, 0
10, 17160, Note_on_c, 7, 62, 48
10, 17189, Note_on_c, 7, 62, 0
10, 17220, Note_on_c, 7, 64, 48
10, 17249, Note_on_c, 7, 64, 0
10, 17280, Note_on_c, 7, 65, 48
10, 17574, Note_on_c, 7, 65, 0
10, 17580, Note_on_c, 7, 65, 48
10, 17609, Note_on_c, 7, 65, 0
10, 17640, Note_on_c, 7, 62, 48
10, 17669, Note_on_c, 7, 62, 0
10, 17700, Note_on_c, 7, 59, 48
10, 17729, Note_on_c, 7, 59, 0
10, 17760, Note_on_c, 7, 56, 48
10, 17789, Note_on_c, 7, 56, 0
10, 17820, Note_on_c, 7, 68, 58
10, 17849, Note_on_c, 7, 68, 0
10, 17880, Note_on_c, 7, 71, 68
10, 17909, Note_on_c, 7, 71, 0
10, 17940, Note_on_c, 7, 64, 78
10, 17969, Note_on_c, 7, 64, 0
10, 18000, Note_on_c, 7, 72, 88
10, 18059, Note_on_c, 7, 72, 0
10, 18060, Note_on_c, 7, 52, 98
10, 18080, Note_on_c, 7, 57, 101
10, 18082, Note_on_c, 7, 52, 0
10, 18099, Note_on_c, 7, 57, 0
10, 18100, Note_on_c, 7, 60, 104
10, 18109, Note_on_c, 7, 60, 0
10, 18120, Note_on_c, 7, 50, 108
10, 18140, Note_on_c, 7, 55, 111
10, 18142, Note_on_c, 7, 50, 0
10, 18159, Note_on_c, 7, 55, 0
10, 18160, Note_on_c, 7, 59, 114
10, 18169, Note_on_c, 7, 59, 0
10, 18180, Note_on_c, 7, 50, 118
10, 18200, Note_on_c, 7, 57, 121
10, 18202, Note_on_c, 7, 50, 0
10, 18219, Note_on_c, 7, 57, 0
10, 18220, Note_on_c, 7, 60, 124
10, 18229, Note_on_c, 7, 60, 0
10, 18240, Note_on_c, 7, 55, 127
10, 18247, Note_on_c, 7, 55, 0
10, 18250, Note_on_c, 7, 62, 127
10, 18257, Note_on_c, 7, 62, 0
10, 18260, Note_on_c, 7, 62, 127
10, 18267, Note_on_c, 7, 62, 0
10, 18270, Note_on_c, 7, 62, 127
10, 18277, Note_on_c, 7, 62, 0
10, 18280, Note_on_c, 7, 62, 127
10, 18287, Note_on_c, 7, 62, 0
10, 18290, Note_on_c, 7, 62, 127
10, 18297, Note_on_c, 7, 62, 0
10, 18300, Note_on_c, 7, 62, 127
10, 18307, Note_on_c, 7, 62, 0
10, 18310, Note_on_c, 7, 62, 127
10, 18317, Note_on_c, 7, 62, 0
10, 18320, Note_on_c, 7, 62, 127
10, 18327, Note_on_c, 7, 62, 0
10, 18330, Note_on_c, 7, 62, 127
10, 18337, Note_on_c, 7, 62, 0
10, 18340, Note_on_c, 7, 62, 127
10, 18347, Note_on_c, 7, 62, 0
10, 18350, Note_on_c, 7, 62, 127
10, 18357, Note_on_c, 7, 62, 0
10, 18360, Note_on_c, 7, 62, 127
10, 18389, Note_on_c, 7, 62, 0
10, 18480, Note_on_c, 7, 55, 127
10, 18487, Note_on_c, 7, 55, 0
10, 18490, Note_on_c, 7, 62, 127
10, 18497, Note_on_c, 7, 62, 0
10, 18500, Note_on_c, 7, 62, 127
10, 18507, Note_on_c, 7, 62, 0
10, 18510, Note_on_c, 7, 62, 127
10, 18517, Note_on_c, 7, 62, 0
10, 18520, Note_on_c, 7, 62, 127
10, 18527, Note_on_c, 7, 62, 0
10, 18530, Note_on_c, 7, 62, 127
10, 18537, Note_on_c, 7, 62, 0
10, 18540, Note_on_c, 7, 62, 127
10, 18547, Note_on_c, 7, 62, 0
10, 18550, Note_on_c, 7, 62, 127
10, 18557, Note_on_c, 7, 62, 0
10, 18560, Note_on_c, 7, 62, 127
10, 18567, Note_on_c, 7, 62, 0
10, 18570, Note_on_c, 7, 62, 127
10, 18577, Note_on_c, 7, 62, 0
10, 18580, Note_on_c, 7, 62, 127
10, 18587, Note_on_c, 7, 62, 0
10, 18590, Note_on_c, 7, 62, 127
10, 18597, Note_on_c, 7, 62, 0
10, 18600, Note_on_c, 7, 62, 127
10, 18629, Note_on_c, 7, 62, 0
10, 18720, Note_on_c, 7, 67, 127
10, 18720, Note_on_c, 7, 55, 127
10, 18749, Note_on_c, 7, 55, 0
10, 18749, Note_on_c, 7, 67, 0
10, 18780, Note_on_c, 7, 59, 127
10, 18809, Note_on_c, 7, 59, 0
10, 18840, Note_on_c, 7, 55, 127
10, 18840, Note_on_c, 7, 67, 127
10, 18869, Note_on_c, 7, 67, 0
10, 18869, Note_on_c, 7, 55, 0
10, 18900, Note_on_c, 7, 59, 127
10, 18929, Note_on_c, 7, 59, 0
10, 18960, Note_on_c, 7, 55, 127
10, 18960, Note_on_c, 7, 67, 127
10, 18989, Note_on_c, 7, 67, 0
10, 18989, Note_on_c, 7, 55, 0
10, 19200, Note_on_c, 7, 52, 48
10, 19220, Note_on_c, 7, 55, 48
10, 19222, Note_on_c, 7, 52, 0
10, 19239, Note_on_c, 7, 55, 0
10, 19240, Note_on_c, 7, 60, 48
10, 19249, Note_on_c, 7, 60, 0
10, 19260, Note_on_c, 7, 52, 48
10, 19280, Note_on_c, 7, 55, 48
10, 19282, Note_on_c, 7, 52, 0
10, 19299, Note_on_c, 7, 55, 0
10, 19300, Note_on_c, 7, 60, 48
10, 19309, Note_on_c, 7, 60, 0
10, 19320, Note_on_c, 7, 52, 48
10, 19340, Note_on_c, 7, 55, 48
10, 19342, Note_on_c, 7, 52, 0
10, 19360, Note_on_c, 7, 60, 48
10, 19369, Note_on_c, 7, 60, 0
10, 19389, Note_on_c, 7, 55, 0
10, 19400, Note_on_c, 7, 55, 48
10, 19419, Note_on_c, 7, 55, 0
10, 19420, Note_on_c, 7, 60, 48
10, 19429, Note_on_c, 7, 60, 0
10, 19440, Note_on_c, 7, 52, 48
10, 19460, Note_on_c, 7, 55, 48
10, 19462, Note_on_c, 7, 52, 0
10, 19479, Note_on_c, 7, 55, 0
10, 19480, Note_on_c, 7, 60, 48
10, 19489, Note_on_c, 7, 60, 0
10, 19520, Note_on_c, 7, 55, 48
10, 19539, Note_on_c, 7, 55, 0
10, 19540, Note_on_c, 7, 60, 48
10, 19549, Note_on_c, 7, 60, 0
10, 19560, Note_on_c, 7, 52, 48
10, 19580, Note_on_c, 7, 55, 48
10, 19582, Note_on_c, 7, 52, 0
10, 19600, Note_on_c, 7, 60, 48
10, 19609, Note_on_c, 7, 60, 0
10, 19619, Note_on_c, 7, 55, 0
10, 19620, Note_on_c, 7, 55, 48
10, 19640, Note_on_c, 7, 58, 48
10, 19642, Note_on_c, 7, 55, 0
10, 19660, Note_on_c, 7, 60, 48
10, 19669, Note_on_c, 7, 60, 0
10, 19684, Note_on_c, 7, 58, 0
10, 19700, Note_on_c, 7, 60, 51
10, 19719, Note_on_c, 7, 60, 0
10, 19720, Note_on_c, 7, 57, 54
10, 19749, Note_on_c, 7, 57, 0
10, 19760, Note_on_c, 7, 57, 59
10, 19779, Note_on_c, 7, 57, 0
10, 19780, Note_on_c, 7, 60, 62
10, 19789, Note_on_c, 7, 60, 0
10, 19820, Note_on_c, 7, 55, 67
10, 19839, Note_on_c, 7, 55, 0
10, 19840, Note_on_c, 7, 60, 70
10, 19849, Note_on_c, 7, 60, 0
10, 19860, Note_on_c, 7, 55, 72
10, 19880, Note_on_c, 7, 58, 75
10, 19882, Note_on_c, 7, 55, 0
10, 19900, Note_on_c, 7, 60, 78
10, 19909, Note_on_c, 7, 60, 0
10, 19919, Note_on_c, 7, 58, 0
10, 19920, Note_on_c, 7, 53, 80
10, 19940, Note_on_c, 7, 57, 83
10, 19942, Note_on_c, 7, 53, 0
10, 19960, Note_on_c, 7, 60, 86
10, 19969, Note_on_c, 7, 60, 0
10, 19979, Note_on_c, 7, 57, 0
10, 20000, Note_on_c, 7, 57, 91
10, 20019, Note_on_c, 7, 57, 0
10, 20020, Note_on_c, 7, 60, 94
10, 20029, Note_on_c, 7, 60, 0
10, 20060, Note_on_c, 7, 55, 99
10, 20079, Note_on_c, 7, 55, 0
10, 20080, Note_on_c, 7, 60, 102
10, 20089, Note_on_c, 7, 60, 0
10, 20100, Note_on_c, 7, 55, 104
10, 20120, Note_on_c, 7, 58, 107
10, 20122, Note_on_c, 7, 55, 0
10, 20140, Note_on_c, 7, 60, 110
10, 20149, Note_on_c, 7, 60, 0
10, 20159, Note_on_c, 7, 58, 0
10, 20160, Note_on_c, 7, 57, 48
10, 20177, Note_on_c, 7, 57, 0
10, 20180, Note_on_c, 7, 57, 48
10, 20197, Note_on_c, 7, 57, 0
10, 20200, Note_on_c, 7, 57, 48
10, 20217, Note_on_c, 7, 57, 0
10, 20240, Note_on_c, 7, 57, 48
10, 20257, Note_on_c, 7, 57, 0
10, 20260, Note_on_c, 7, 57, 48
10, 20277, Note_on_c, 7, 57, 0
10, 20300, Note_on_c, 7, 57, 48
10, 20317, Note_on_c, 7, 57, 0
10, 20320, Note_on_c, 7, 57, 48
10, 20337, Note_on_c, 7, 57, 0
10, 20360, Note_on_c, 7, 55, 48
10, 20377, Note_on_c, 7, 55, 0
10, 20380, Note_on_c, 7, 55, 48
10, 20397, Note_on_c, 7, 55, 0
10, 20420, Note_on_c, 7, 57, 48
10, 20437, Note_on_c, 7, 57, 0
10, 20440, Note_on_c, 7, 57, 48
10, 20457, Note_on_c, 7, 57, 0
10, 20480, Note_on_c, 7, 55, 48
10, 20497, Note_on_c, 7, 55, 0
10, 20500, Note_on_c, 7, 55, 48
10, 20517, Note_on_c, 7, 55, 0
10, 20540, Note_on_c, 7, 57, 48
10, 20557, Note_on_c, 7, 57, 0
10, 20560, Note_on_c, 7, 57, 48
10, 20577, Note_on_c, 7, 57, 0
10, 20600, Note_on_c, 7, 57, 48
10, 20617, Note_on_c, 7, 57, 0
10, 20620, Note_on_c, 7, 57, 48
10, 20637, Note_on_c, 7, 57, 0
10, 20640, Note_on_c, 7, 50, 48
10, 20660, Note_on_c, 7, 55, 48
10, 20662, Note_on_c, 7, 50, 0
10, 20679, Note_on_c, 7, 55, 0
10, 20680, Note_on_c, 7, 59, 48
10, 20689, Note_on_c, 7, 59, 0
10, 20700, Note_on_c, 7, 50, 48
10, 20720, Note_on_c, 7, 55, 48
10, 20722, Note_on_c, 7, 50, 0
10, 20739, Note_on_c, 7, 55, 0
10, 20740, Note_on_c, 7, 59, 48
10, 20749, Note_on_c, 7, 59, 0
10, 20760, Note_on_c, 7, 52, 48
10, 20780, Note_on_c, 7, 55, 48
10, 20789, Note_on_c, 7, 52, 0
10, 20799, Note_on_c, 7, 55, 0
10, 20800, Note_on_c, 7, 60, 48
10, 20809, Note_on_c, 7, 60, 0
10, 20820, Note_on_c, 7, 52, 48
10, 20840, Note_on_c, 7, 55, 48
10, 20842, Note_on_c, 7, 52, 0
10, 20859, Note_on_c, 7, 55, 0
10, 20860, Note_on_c, 7, 60, 48
10, 20869, Note_on_c, 7, 60, 0
10, 20880, Note_on_c, 7, 50, 48
10, 20900, Note_on_c, 7, 55, 48
10, 20902, Note_on_c, 7, 50, 0
10, 20919, Note_on_c, 7, 55, 0
10, 20920, Note_on_c, 7, 59, 48
10, 20929, Note_on_c, 7, 59, 0
10, 20940, Note_on_c, 7, 50, 48
10, 20960, Note_on_c, 7, 55, 48
10, 20962, Note_on_c, 7, 50, 0
10, 20979, Note_on_c, 7, 55, 0
10, 20980, Note_on_c, 7, 59, 48
10, 20989, Note_on_c, 7, 59, 0
10, 21000, Note_on_c, 7, 52, 48
10, 21020, Note_on_c, 7, 55, 48
10, 21029, Note_on_c, 7, 52, 0
10, 21039, Note_on_c, 7, 55, 0
10, 21040, Note_on_c, 7, 60, 48
10, 21049, Note_on_c, 7, 60, 0
10, 21060, Note_on_c, 7, 52, 48
10, 21080, Note_on_c, 7, 55, 48
10, 21082, Note_on_c, 7, 52, 0
10, 21099, Note_on_c, 7, 55, 0
10, 21100, Note_on_c, 7, 60, 48
10, 21109, Note_on_c, 7, 60, 0
10, 21120, Note_on_c, 7, 50, 48
10, 21120, Note_on_c, 7, 59, 48
10, 21179, Note_on_c, 7, 59, 0
10, 21179, Note_on_c, 7, 50, 0
10, 21300, Note_on_c, 7, 67, 48
10, 21309, Note_on_c, 7, 67, 0
10, 21320, Note_on_c, 7, 66, 48
10, 21329, Note_on_c, 7, 66, 0
10, 21340, Note_on_c, 7, 67, 48
10, 21349, Note_on_c, 7, 67, 0
10, 21360, Note_on_c, 7, 65, 48
10, 21369, Note_on_c, 7, 65, 0
10, 21380, Note_on_c, 7, 64, 48
10, 21389, Note_on_c, 7, 64, 0
10, 21400, Note_on_c, 7, 65, 48
10, 21409, Note_on_c, 7, 65, 0
10, 21420, Note_on_c, 7, 62, 48
10, 21429, Note_on_c, 7, 62, 0
10, 21440, Note_on_c, 7, 61, 48
10, 21449, Note_on_c, 7, 61, 0
10, 21460, Note_on_c, 7, 62, 48
10, 21469, Note_on_c, 7, 62, 0
10, 21480, Note_on_c, 7, 59, 48
10, 21489, Note_on_c, 7, 59, 0
10, 21500, Note_on_c, 7, 58, 48
10, 21509, Note_on_c, 7, 58, 0
10, 21520, Note_on_c, 7, 59, 48
10, 21529, Note_on_c, 7, 59, 0
10, 21540, Note_on_c, 7, 53, 48
10, 21549, Note_on_c, 7, 53, 0
10, 21560, Note_on_c, 7, 52, 48
10, 21569, Note_on_c, 7, 52, 0
10, 21580, Note_on_c, 7, 53, 48
10, 21589, Note_on_c, 7, 53, 0
10, 21600, Note_on_c, 7, 52, 48
10, 21620, Note_on_c, 7, 55, 48
10, 21622, Note_on_c, 7, 52, 0
10, 21639, Note_on_c, 7, 55, 0
10, 21640, Note_on_c, 7, 60, 48
10, 21649, Note_on_c, 7, 60, 0
10, 21660, Note_on_c, 7, 52, 48
10, 21680, Note_on_c, 7, 55, 48
10, 21682, Note_on_c, 7, 52, 0
10, 21699, Note_on_c, 7, 55, 0
10, 21700, Note_on_c, 7, 60, 48
10, 21709, Note_on_c, 7, 60, 0
10, 21720, Note_on_c, 7, 52, 48
10, 21740, Note_on_c, 7, 55, 48
10, 21742, Note_on_c, 7, 52, 0
10, 21759, Note_on_c, 7, 55, 0
10, 21760, Note_on_c, 7, 60, 48
10, 21769, Note_on_c, 7, 60, 0
10, 21780, Note_on_c, 7, 52, 48
10, 21800, Note_on_c, 7, 55, 48
10, 21802, Note_on_c, 7, 52, 0
10, 21819, Note_on_c, 7, 55, 0
10, 21820, Note_on_c, 7, 60, 48
10, 21829, Note_on_c, 7, 60, 0
10, 21840, Note_on_c, 7, 52, 48
10, 21860, Note_on_c, 7, 55, 48
10, 21862, Note_on_c, 7, 52, 0
10, 21879, Note_on_c, 7, 55, 0
10, 21880, Note_on_c, 7, 60, 48
10, 21889, Note_on_c, 7, 60, 0
10, 21900, Note_on_c, 7, 52, 48
10, 21920, Note_on_c, 7, 55, 48
10, 21922, Note_on_c, 7, 52, 0
10, 21939, Note_on_c, 7, 55, 0
10, 21940, Note_on_c, 7, 60, 48
10, 21949, Note_on_c, 7, 60, 0
10, 21960, Note_on_c, 7, 52, 48
10, 21980, Note_on_c, 7, 55, 48
10, 21982, Note_on_c, 7, 52, 0
10, 21999, Note_on_c, 7, 55, 0
10, 22000, Note_on_c, 7, 60, 48
10, 22009, Note_on_c, 7, 60, 0
10, 22020, Note_on_c, 7, 52, 48
10, 22040, Note_on_c, 7, 55, 48
10, 22042, Note_on_c, 7, 52, 0
10, 22059, Note_on_c, 7, 55, 0
10, 22060, Note_on_c, 7, 60, 48
10, 22069, Note_on_c, 7, 60, 0
10, 22080, Note_on_c, 7, 48, 48
10, 22100, Note_on_c, 7, 53, 49
10, 22102, Note_on_c, 7, 48, 0
10, 22119, Note_on_c, 7, 53, 0
10, 22120, Note_on_c, 7, 57, 50
10, 22129, Note_on_c, 7, 57, 0
10, 22140, Note_on_c, 7, 48, 51
10, 22160, Note_on_c, 7, 53, 52
10, 22162, Note_on_c, 7, 48, 0
10, 22179, Note_on_c, 7, 53, 0
10, 22180, Note_on_c, 7, 57, 53
10, 22189, Note_on_c, 7, 57, 0
10, 22200, Note_on_c, 7, 48, 54
10, 22220, Note_on_c, 7, 53, 55
10, 22222, Note_on_c, 7, 48, 0
10, 22239, Note_on_c, 7, 53, 0
10, 22240, Note_on_c, 7, 57, 56
10, 22249, Note_on_c, 7, 57, 0
10, 22260, Note_on_c, 7, 48, 57
10, 22280, Note_on_c, 7, 53, 58
10, 22282, Note_on_c, 7, 48, 0
10, 22299, Note_on_c, 7, 53, 0
10, 22300, Note_on_c, 7, 57, 59
10, 22309, Note_on_c, 7, 57, 0
10, 22320, Note_on_c, 7, 53, 60
10, 22340, Note_on_c, 7, 57, 61
10, 22342, Note_on_c, 7, 53, 0
10, 22359, Note_on_c, 7, 57, 0
10, 22360, Note_on_c, 7, 62, 62
10, 22369, Note_on_c, 7, 62, 0
10, 22380, Note_on_c, 7, 53, 63
10, 22400, Note_on_c, 7, 57, 64
10, 22402, Note_on_c, 7, 53, 0
10, 22419, Note_on_c, 7, 57, 0
10, 22420, Note_on_c, 7, 62, 65
10, 22429, Note_on_c, 7, 62, 0
10, 22440, Note_on_c, 7, 53, 66
10, 22460, Note_on_c, 7, 57, 67
10, 22462, Note_on_c, 7, 53, 0
10, 22479, Note_on_c, 7, 57, 0
10, 22480, Note_on_c, 7, 62, 68
10, 22489, Note_on_c, 7, 62, 0
10, 22500, Note_on_c, 7, 53, 69
10, 22520, Note_on_c, 7, 57, 70
10, 22522, Note_on_c, 7, 53, 0
10, 22539, Note_on_c, 7, 57, 0
10, 22540, Note_on_c, 7, 62, 71
10, 22549, Note_on_c, 7, 62, 0
10, 22560, Note_on_c, 7, 52, 72
10, 22580, Note_on_c, 7, 55, 73
10, 22582, Note_on_c, 7, 52, 0
10, 22599, Note_on_c, 7, 55, 0
10, 22600, Note_on_c, 7, 60, 74
10, 22609, Note_on_c, 7, 60, 0
10, 22620, Note_on_c, 7, 52, 75
10, 22640, Note_on_c, 7, 55, 76
10, 22642, Note_on_c, 7, 52, 0
10, 22659, Note_on_c, 7, 55, 0
10, 22660, Note_on_c, 7, 60, 77
10, 22669, Note_on_c, 7, 60, 0
10, 22680, Note_on_c, 7, 50, 78
10, 22700, Note_on_c, 7, 55, 79
10, 22702, Note_on_c, 7, 50, 0
10, 22719, Note_on_c, 7, 55, 0
10, 22720, Note_on_c, 7, 59, 80
10, 22729, Note_on_c, 7, 59, 0
10, 22740, Note_on_c, 7, 50, 81
10, 22760, Note_on_c, 7, 55, 82
10, 22762, Note_on_c, 7, 50, 0
10, 22779, Note_on_c, 7, 55, 0
10, 22780, Note_on_c, 7, 59, 83
10, 22789, Note_on_c, 7, 59, 0
10, 22800, Note_on_c, 7, 55, 84
10, 22820, Note_on_c, 7, 60, 85
10, 22822, Note_on_c, 7, 55, 0
10, 22839, Note_on_c, 7, 60, 0
10, 22840, Note_on_c, 7, 64, 86
10, 22849, Note_on_c, 7, 64, 0
10, 22860, Note_on_c, 7, 55, 87
10, 22880, Note_on_c, 7, 60, 88
10, 22882, Note_on_c, 7, 55, 0
10, 22899, Note_on_c, 7, 60, 0
10, 22900, Note_on_c, 7, 64, 89
10, 22909, Note_on_c, 7, 64, 0
10, 22920, Note_on_c, 7, 50, 90
10, 22940, Note_on_c, 7, 57, 91
10, 22942, Note_on_c, 7, 50, 0
10, 22959, Note_on_c, 7, 57, 0
10, 22960, Note_on_c, 7, 60, 92
10, 22969, Note_on_c, 7, 60, 0
10, 22980, Note_on_c, 7, 50, 93
10, 23000, Note_on_c, 7, 57, 94
10, 23002, Note_on_c, 7, 50, 0
10, 23019, Note_on_c, 7, 57, 0
10, 23020, Note_on_c, 7, 60, 95
10, 23029, Note_on_c, 7, 60, 0
10, 23040, Note_on_c, 7, 60, 96
10, 23040, Note_on_c, 7, 52, 96
10, 23057, Note_on_c, 7, 52, 0
10, 23057, Note_on_c, 7, 60, 0
10, 23060, Note_on_c, 7, 55, 96
10, 23060, Note_on_c, 7, 64, 96
10, 23077, Note_on_c, 7, 64, 0
10, 23077, Note_on_c, 7, 55, 0
10, 23080, Note_on_c, 7, 64, 96
10, 23080, Note_on_c, 7, 55, 96
10, 23097, Note_on_c, 7, 55, 0
10, 23097, Note_on_c, 7, 64, 0
10, 23100, Note_on_c, 7, 55, 96
10, 23100, Note_on_c, 7, 64, 96
10, 23117, Note_on_c, 7, 64, 0
10, 23117, Note_on_c, 7, 55, 0
10, 23120, Note_on_c, 7, 64, 96
10, 23120, Note_on_c, 7, 55, 96
10, 23137, Note_on_c, 7, 55, 0
10, 23137, Note_on_c, 7, 64, 0
10, 23140, Note_on_c, 7, 55, 96
10, 23140, Note_on_c, 7, 64, 96
10, 23157, Note_on_c, 7, 64, 0
10, 23157, Note_on_c, 7, 55, 0
10, 23160, Note_on_c, 7, 64, 112
10, 23160, Note_on_c, 7, 55, 112
10, 23177, Note_on_c, 7, 55, 0
10, 23177, Note_on_c, 7, 64, 0
10, 23180, Note_on_c, 7, 55, 112
10, 23180, Note_on_c, 7, 64, 112
10, 23197, Note_on_c, 7, 64, 0
10, 23197, Note_on_c, 7, 55, 0
10, 23200, Note_on_c, 7, 64, 112
10, 23200, Note_on_c, 7, 55, 112
10, 23217, Note_on_c, 7, 55, 0
10, 23217, Note_on_c, 7, 64, 0
10, 23220, Note_on_c, 7, 55, 112
10, 23220, Note_on_c, 7, 64, 112
10, 23237, Note_on_c, 7, 64, 0
10, 23237, Note_on_c, 7, 55, 0
10, 23240, Note_on_c, 7, 64, 112
10, 23240, Note_on_c, 7, 55, 112
10, 23257, Note_on_c, 7, 55, 0
10, 23257, Note_on_c, 7, 64, 0
10, 23260, Note_on_c, 7, 55, 112
10, 23260, Note_on_c, 7, 64, 112
10, 23277, Note_on_c, 7, 64, 0
10, 23277, Note_on_c, 7, 55, 0
10, 23280, Note_on_c, 7, 65, 112
10, 23280, Note_on_c, 7, 55, 112
10, 23297, Note_on_c, 7, 55, 0
10, 23297, Note_on_c, 7, 65, 0
10, 23300, Note_on_c, 7, 55, 112
10, 23300, Note_on_c, 7, 65, 112
10, 23317, Note_on_c, 7, 65, 0
10, 23317, Note_on_c, 7, 55, 0
10, 23320, Note_on_c, 7, 65, 112
10, 23320, Note_on_c, 7, 55, 112
10, 23337, Note_on_c, 7, 55, 0
10, 23337, Note_on_c, 7, 65, 0
10, 23340, Note_on_c, 7, 55, 112
10, 23340, Note_on_c, 7, 65, 112
10, 23357, Note_on_c, 7, 65, 0
10, 23357, Note_on_c, 7, 55, 0
10, 23360, Note_on_c, 7, 65, 112
10, 23360, Note_on_c, 7, 55, 112
10, 23377, Note_on_c, 7, 55, 0
10, 23377, Note_on_c, 7, 65, 0
10, 23380, Note_on_c, 7, 55, 112
10, 23380, Note_on_c, 7, 65, 112
10, 23397, Note_on_c, 7, 65, 0
10, 23397, Note_on_c, 7, 55, 0
10, 23400, Note_on_c, 7, 65, 112
10, 23400, Note_on_c, 7, 55, 112
10, 23417, Note_on_c, 7, 55, 0
10, 23417, Note_on_c, 7, 65, 0
10, 23420, Note_on_c, 7, 55, 112
10, 23420, Note_on_c, 7, 65, 112
10, 23437, Note_on_c, 7, 65, 0
10, 23437, Note_on_c, 7, 55, 0
10, 23440, Note_on_c, 7, 65, 112
10, 23440, Note_on_c, 7, 55, 112
10, 23457, Note_on_c, 7, 55, 0
10, 23457, Note_on_c, 7, 65, 0
10, 23460, Note_on_c, 7, 55, 112
10, 23460, Note_on_c, 7, 65, 112
10, 23477, Note_on_c, 7, 65, 0
10, 23477, Note_on_c, 7, 55, 0
10, 23480, Note_on_c, 7, 65, 112
10, 23480, Note_on_c, 7, 55, 112
10, 23497, Note_on_c, 7, 55, 0
10, 23497, Note_on_c, 7, 65, 0
10, 23500, Note_on_c, 7, 55, 112
10, 23500, Note_on_c, 7, 65, 112
10, 23517, Note_on_c, 7, 65, 0
10, 23517, Note_on_c, 7, 55, 0
10, 23520, Note_on_c, 7, 64, 127
10, 23520, Note_on_c, 7, 55, 127
10, 23527, Note_on_c, 7, 55, 0
10, 23527, Note_on_c, 7, 64, 0
10, 23530, Note_on_c, 7, 55, 127
10, 23530, Note_on_c, 7, 64, 127
10, 23537, Note_on_c, 7, 64, 0
10, 23537, Note_on_c, 7, 55, 0
10, 23540, Note_on_c, 7, 64, 127
10, 23540, Note_on_c, 7, 55, 127
10, 23547, Note_on_c, 7, 55, 0
10, 23547, Note_on_c, 7, 64, 0
10, 23550, Note_on_c, 7, 55, 127
10, 23550, Note_on_c, 7, 64, 127
10, 23557, Note_on_c, 7, 64, 0
10, 23557, Note_on_c, 7, 55, 0
10, 23560, Note_on_c, 7, 64, 127
10, 23560, Note_on_c, 7, 55, 127
10, 23567, Note_on_c, 7, 55, 0
10, 23567, Note_on_c, 7, 64, 0
10, 23570, Note_on_c, 7, 55, 127
10, 23570, Note_on_c, 7, 64, 127
10, 23577, Note_on_c, 7, 64, 0
10, 23577, Note_on_c, 7, 55, 0
10, 23580, Note_on_c, 7, 64, 127
10, 23580, Note_on_c, 7, 55, 127
10, 23587, Note_on_c, 7, 55, 0
10, 23587, Note_on_c, 7, 64, 0
10, 23590, Note_on_c, 7, 55, 127
10, 23590, Note_on_c, 7, 64, 127
10, 23597, Note_on_c, 7, 64, 0
10, 23597, Note_on_c, 7, 55, 0
10, 23600, Note_on_c, 7, 64, 127
10, 23600, Note_on_c, 7, 55, 127
10, 23607, Note_on_c, 7, 55, 0
10, 23607, Note_on_c, 7, 64, 0
10, 23610, Note_on_c, 7, 55, 127
10, 23610, Note_on_c, 7, 64, 127
10, 23617, Note_on_c, 7, 64, 0
10, 23617, Note_on_c, 7, 55, 0
10, 23620, Note_on_c, 7, 64, 127
10, 23620, Note_on_c, 7, 55, 127
10, 23627, Note_on_c, 7, 55, 0
10, 23627, Note_on_c, 7, 64, 0
10, 23630, Note_on_c, 7, 55, 127
10, 23630, Note_on_c, 7, 64, 127
10, 23637, Note_on_c, 7, 64, 0
10, 23637, Note_on_c, 7, 55, 0
10, 23640, Note_on_c, 7, 64, 127
10, 23640, Note_on_c, 7, 55, 127
10, 23669, Note_on_c, 7, 55, 0
10, 23669, Note_on_c, 7, 64, 0
10, 23700, Note_on_c, 7, 52, 127
10, 23700, Note_on_c, 7, 55, 127
10, 23729, Note_on_c, 7, 55, 0
10, 23729, Note_on_c, 7, 52, 0
10, 23760, Note_on_c, 7, 64, 127
10, 23760, Note_on_c, 7, 55, 127
10, 23767, Note_on_c, 7, 55, 0
10, 23767, Note_on_c, 7, 64, 0
10, 23770, Note_on_c, 7, 55, 127
10, 23770, Note_on_c, 7, 64, 127
10, 23777, Note_on_c, 7, 64, 0
10, 23777, Note_on_c, 7, 55, 0
10, 23780, Note_on_c, 7, 64, 127
10, 23780, Note_on_c, 7, 55, 127
10, 23787, Note_on_c, 7, 55, 0
10, 23787, Note_on_c, 7, 64, 0
10, 23790, Note_on_c, 7, 55, 127
10, 23790, Note_on_c, 7, 64, 127
10, 23797, Note_on_c, 7, 64, 0
10, 23797, Note_on_c, 7, 55, 0
10, 23800, Note_on_c, 7, 64, 127
10, 23800, Note_on_c, 7, 55, 127
10, 23807, Note_on_c, 7, 55, 0
10, 23807, Note_on_c, 7, 64, 0
10, 23810, Note_on_c, 7, 55, 127
10, 23810, Note_on_c, 7, 64, 127
10, 23817, Note_on_c, 7, 64, 0
10, 23817, Note_on_c, 7, 55, 0
10, 23820, Note_on_c, 7, 64, 127
10, 23820, Note_on_c, 7, 55, 127
10, 23827, Note_on_c, 7, 55, 0
10, 23827, Note_on_c, 7, 64, 0
10, 23830, Note_on_c, 7, 55, 127
10, 23830, Note_on_c, 7, 64, 127
10, 23837, Note_on_c, 7, 64, 0
10, 23837, Note_on_c, 7, 55, 0
10, 23840, Note_on_c, 7, 64, 127
10, 23840, Note_on_c, 7, 55, 127
10, 23847, Note_on_c, 7, 55, 0
10, 23847, Note_on_c, 7, 64, 0
10, 23850, Note_on_c, 7, 55, 127
10, 23850, Note_on_c, 7, 64, 127
10, 23857, Note_on_c, 7, 64, 0
10, 23857, Note_on_c, 7, 55, 0
10, 23860, Note_on_c, 7, 64, 127
10, 23860, Note_on_c, 7, 55, 127
10, 23867, Note_on_c, 7, 55, 0
10, 23867, Note_on_c, 7, 64, 0
10, 23870, Note_on_c, 7, 55, 127
10, 23870, Note_on_c, 7, 64, 127
10, 23877, Note_on_c, 7, 64, 0
10, 23877, Note_on_c, 7, 55, 0
10, 23880, Note_on_c, 7, 64, 127
10, 23880, Note_on_c, 7, 55, 127
10, 23909, Note_on_c, 7, 55, 0
10, 23909, Note_on_c, 7, 64, 0
10, 23940, Note_on_c, 7, 52, 127
10, 23940, Note_on_c, 7, 55, 127
10, 23969, Note_on_c, 7, 55, 0
10, 23969, Note_on_c, 7, 52, 0
10, 24000, Note_on_c, 7, 72, 127
10, 24000, Note_on_c, 7, 64, 127
10, 24000, Note_on_c, 7, 55, 127
10, 24029, Note_on_c, 7, 55, 0
10, 24029, Note_on_c, 7, 64, 0
10, 24029, Note_on_c, 7, 72, 0
10, 24060, Note_on_c, 7, 52, 127
10, 24060, Note_on_c, 7, 55, 127
10, 24089, Note_on_c, 7, 55, 0
10, 24089, Note_on_c, 7, 52, 0
10, 24120, Note_on_c, 7, 72, 127
10, 24120, Note_on_c, 7, 64, 127
10, 24120, Note_on_c, 7, 55, 127
10, 24149, Note_on_c, 7, 55, 0
10, 24149, Note_on_c, 7, 64, 0
10, 24149, Note_on_c, 7, 72, 0
10, 24180, Note_on_c, 7, 52, 127
10, 24180, Note_on_c, 7, 55, 127
10, 24209, Note_on_c, 7, 55, 0
10, 24209, Note_on_c, 7, 52, 0
10, 24240, Note_on_c, 7, 60, 96
10, 24269, Note_on_c, 7, 60, 0
10, 24270, Note_on_c, 7, 60, 48
10, 24480, Note_on_c, 7, 56, 48
10, 24489, Note_on_c, 7, 60, 0
10, 24660, Note_on_c, 7, 53, 48
10, 24669, Note_on_c, 7, 56, 0
10, 24719, Note_on_c, 7, 53, 0
10, 24720, Note_on_c, 7, 49, 48
10, 24780, Note_on_c, 7, 56, 52
10, 24789, Note_on_c, 7, 49, 0
10, 24825, Note_on_c, 7, 65, 52
10, 24826, Note_on_c, 7, 56, 0
10, 24839, Note_on_c, 7, 65, 0
10, 24840, Note_on_c, 7, 61, 56
10, 24869, Note_on_c, 7, 61, 0
10, 24900, Note_on_c, 7, 60, 56
10, 24929, Note_on_c, 7, 60, 0
10, 24960, Note_on_c, 7, 59, 48
10, 24989, Note_on_c, 7, 59, 0
10, 25200, Note_on_c, 7, 51, 48
10, 25319, Note_on_c, 7, 51, 0
10, 25440, Note_on_c, 7, 51, 48
10, 25559, Note_on_c, 7, 51, 0
10, 25680, Note_on_c, 7, 51, 48
10, 25789, Note_on_c, 7, 51, 0
10, 25800, Note_on_c, 7, 51, 48
10, 25909, Note_on_c, 7, 51, 0
10, 25920, Note_on_c, 7, 51, 48
10, 26040, Note_on_c, 7, 50, 48
10, 26049, Note_on_c, 7, 51, 0
10, 26099, Note_on_c, 7, 50, 0
10, 26160, Note_on_c, 7, 53, 48
10, 26279, Note_on_c, 7, 53, 0
10, 26400, Note_on_c, 7, 62, 48
10, 26459, Note_on_c, 7, 62, 0
10, 26640, Note_on_c, 7, 58, 48
10, 26759, Note_on_c, 7, 58, 0
10, 26880, Note_on_c, 7, 58, 96
10, 27060, Note_on_c, 7, 56, 56
10, 27069, Note_on_c, 7, 58, 0
10, 27090, Note_on_c, 7, 55, 52
10, 27099, Note_on_c, 7, 56, 0
10, 27119, Note_on_c, 7, 55, 0
10, 27120, Note_on_c, 7, 53, 48
10, 27179, Note_on_c, 7, 53, 0
10, 27180, Note_on_c, 7, 65, 48
10, 27199, Note_on_c, 7, 65, 0
10, 27210, Note_on_c, 7, 61, 48
10, 27229, Note_on_c, 7, 61, 0
10, 27240, Note_on_c, 7, 60, 48
10, 27294, Note_on_c, 7, 60, 0
10, 27300, Note_on_c, 7, 60, 48
10, 27359, Note_on_c, 7, 60, 0
10, 27360, Note_on_c, 7, 65, 96
10, 27599, Note_on_c, 7, 65, 0
10, 27600, Note_on_c, 7, 61, 112
10, 27839, Note_on_c, 7, 61, 0
10, 27840, Note_on_c, 7, 64, 112
10, 28019, Note_on_c, 7, 64, 0
10, 28020, Note_on_c, 7, 64, 112
10, 28029, Note_on_c, 7, 64, 0
10, 28030, Note_on_c, 7, 65, 112
10, 28039, Note_on_c, 7, 65, 0
10, 28040, Note_on_c, 7, 64, 112
10, 28049, Note_on_c, 7, 64, 0
10, 28050, Note_on_c, 7, 65, 112
10, 28059, Note_on_c, 7, 65, 0
10, 28060, Note_on_c, 7, 64, 112
10, 28067, Note_on_c, 7, 64, 0
10, 28068, Note_on_c, 7, 62, 112
10, 28072, Note_on_c, 7, 64, 112
10, 28075, Note_on_c, 7, 62, 0
10, 28080, Note_on_c, 7, 65, 96
10, 28081, Note_on_c, 7, 64, 0
10, 28139, Note_on_c, 7, 65, 0
10, 29040, Note_on_c, 7, 53, 96
10, 29160, Note_on_c, 7, 55, 96
10, 29169, Note_on_c, 7, 53, 0
10, 29220, Note_on_c, 7, 56, 96
10, 29229, Note_on_c, 7, 55, 0
10, 29279, Note_on_c, 7, 56, 0
10, 29280, Note_on_c, 7, 58, 112
10, 29459, Note_on_c, 7, 58, 0
10, 29460, Note_on_c, 7, 56, 96
10, 29469, Note_on_c, 7, 56, 0
10, 29470, Note_on_c, 7, 58, 96
10, 29479, Note_on_c, 7, 58, 0
10, 29480, Note_on_c, 7, 56, 96
10, 29489, Note_on_c, 7, 56, 0
10, 29490, Note_on_c, 7, 58, 96
10, 29497, Note_on_c, 7, 58, 0
10, 29498, Note_on_c, 7, 56, 96
10, 29505, Note_on_c, 7, 56, 0
10, 29506, Note_on_c, 7, 55, 96
10, 29512, Note_on_c, 7, 56, 96
10, 29513, Note_on_c, 7, 55, 0
10, 29519, Note_on_c, 7, 56, 0
10, 29520, Note_on_c, 7, 55, 96
10, 29580, Note_on_c, 7, 61, 96
10, 29589, Note_on_c, 7, 55, 0
10, 29640, Note_on_c, 7, 60, 96
10, 29649, Note_on_c, 7, 61, 0
10, 29700, Note_on_c, 7, 58, 96
10, 29709, Note_on_c, 7, 60, 0
10, 29759, Note_on_c, 7, 58, 0
10, 29760, Note_on_c, 7, 56, 96
10, 29819, Note_on_c, 7, 56, 0
10, 30060, Note_on_c, 7, 59, 96
10, 30120, Note_on_c, 7, 60, 96
10, 30129, Note_on_c, 7, 59, 0
10, 30180, Note_on_c, 7, 62, 96
10, 30189, Note_on_c, 7, 60, 0
10, 30239, Note_on_c, 7, 62, 0
10, 30240, Note_on_c, 7, 63, 96
10, 30254, Note_on_c, 7, 63, 0
10, 30270, Note_on_c, 7, 67, 96
10, 30284, Note_on_c, 7, 67, 0
10, 30300, Note_on_c, 7, 68, 96
10, 30314, Note_on_c, 7, 68, 0
10, 30330, Note_on_c, 7, 67, 96
10, 30344, Note_on_c, 7, 67, 0
10, 30360, Note_on_c, 7, 65, 96
10, 30374, Note_on_c, 7, 65, 0
10, 30390, Note_on_c, 7, 63, 96
10, 30404, Note_on_c, 7, 63, 0
10, 30420, Note_on_c, 7, 62, 96
10, 30434, Note_on_c, 7, 62, 0
10, 30450, Note_on_c, 7, 60, 96
10, 30464, Note_on_c, 7, 60, 0
10, 30480, Note_on_c, 7, 59, 96
10, 30494, Note_on_c, 7, 59, 0
10, 30510, Note_on_c, 7, 60, 96
10, 30524, Note_on_c, 7, 60, 0
10, 30540, Note_on_c, 7, 62, 96
10, 30554, Note_on_c, 7, 62, 0
10, 30570, Note_on_c, 7, 60, 96
10, 30584, Note_on_c, 7, 60, 0
10, 30600, Note_on_c, 7, 59, 96
10, 30614, Note_on_c, 7, 59, 0
10, 30630, Note_on_c, 7, 55, 96
10, 30644, Note_on_c, 7, 55, 0
10, 30660, Note_on_c, 7, 60, 96
10, 30674, Note_on_c, 7, 60, 0
10, 30690, Note_on_c, 7, 55, 96
10, 30704, Note_on_c, 7, 55, 0
10, 30720, Note_on_c, 7, 65, 96
10, 30734, Note_on_c, 7, 65, 0
10, 30750, Note_on_c, 7, 55, 96
10, 30764, Note_on_c, 7, 55, 0
10, 30780, Note_on_c, 7, 65, 96
10, 30794, Note_on_c, 7, 65, 0
10, 30810, Note_on_c, 7, 55, 96
10, 30824, Note_on_c, 7, 55, 0
10, 30840, Note_on_c, 7, 63, 96
10, 30854, Note_on_c, 7, 63, 0
10, 30870, Note_on_c, 7, 55, 96
10, 30884, Note_on_c, 7, 55, 0
10, 30900, Note_on_c, 7, 62, 96
10, 30914, Note_on_c, 7, 62, 0
10, 30930, Note_on_c, 7, 55, 96
10, 30944, Note_on_c, 7, 55, 0
10, 30960, Note_on_c, 7, 60, 96
10, 30974, Note_on_c, 7, 60, 0
10, 30990, Note_on_c, 7, 60, 96
10, 31004, Note_on_c, 7, 60, 0
10, 31020, Note_on_c, 7, 58, 96
10, 31034, Note_on_c, 7, 58, 0
10, 31050, Note_on_c, 7, 60, 96
10, 31064, Note_on_c, 7, 60, 0
10, 31080, Note_on_c, 7, 56, 96
10, 31094, Note_on_c, 7, 56, 0
10, 31110, Note_on_c, 7, 60, 96
10, 31124, Note_on_c, 7, 60, 0
10, 31140, Note_on_c, 7, 55, 96
10, 31154, Note_on_c, 7, 55, 0
10, 31170, Note_on_c, 7, 60, 96
10, 31184, Note_on_c, 7, 60, 0
10, 31200, Note_on_c, 7, 53, 127
10, 31259, Note_on_c, 7, 53, 0
10, 31350, Note_on_c, 7, 60, 127
10, 31364, Note_on_c, 7, 60, 0
10, 31380, Note_on_c, 7, 58, 127
10, 31394, Note_on_c, 7, 58, 0
10, 31410, Note_on_c, 7, 56, 127
10, 31424, Note_on_c, 7, 56, 0
10, 31440, Note_on_c, 7, 61, 127
10, 31499, Note_on_c, 7, 61, 0
10, 31590, Note_on_c, 7, 70, 127
10, 31604, Note_on_c, 7, 70, 0
10, 31620, Note_on_c, 7, 72, 127
10, 31634, Note_on_c, 7, 72, 0
10, 31650, Note_on_c, 7, 73, 127
10, 31664, Note_on_c, 7, 73, 0
10, 31680, Note_on_c, 7, 58, 127
10, 31739, Note_on_c, 7, 58, 0
10, 31830, Note_on_c, 7, 60, 127
10, 31844, Note_on_c, 7, 60, 0
10, 31860, Note_on_c, 7, 48, 127
10, 31874, Note_on_c, 7, 48, 0
10, 31890, Note_on_c, 7, 60, 127
10, 31904, Note_on_c, 7, 60, 0
10, 31920, Note_on_c, 7, 53, 127
10, 31934, Note_on_c, 7, 53, 0
10, 31950, Note_on_c, 7, 65, 127
10, 31964, Note_on_c, 7, 65, 0
10, 31980, Note_on_c, 7, 63, 127
10, 31994, Note_on_c, 7, 63, 0
10, 32010, Note_on_c, 7, 65, 127
10, 32024, Note_on_c, 7, 65, 0
10, 32040, Note_on_c, 7, 62, 127
10, 32054, Note_on_c, 7, 62, 0
10, 32070, Note_on_c, 7, 65, 127
10, 32084, Note_on_c, 7, 65, 0
10, 32100, Note_on_c, 7, 60, 127
10, 32114, Note_on_c, 7, 60, 0
10, 32130, Note_on_c, 7, 65, 127
10, 32144, Note_on_c, 7, 65, 0
10, 32160, Note_on_c, 7, 58, 127
10, 32189, Note_on_c, 7, 58, 0
10, 32220, Note_on_c, 7, 58, 127
10, 32249, Note_on_c, 7, 58, 0
10, 32340, Note_on_c, 7, 60, 127
10, 32370, Note_on_c, 7, 62, 127
10, 32379, Note_on_c, 7, 60, 0
10, 32399, Note_on_c, 7, 62, 0
10, 32400, Note_on_c, 7, 63, 127
10, 32459, Note_on_c, 7, 63, 0
10, 32670, Note_on_c, 7, 53, 127
10, 32684, Note_on_c, 7, 53, 0
10, 32700, Note_on_c, 7, 55, 127
10, 32714, Note_on_c, 7, 55, 0
10, 32730, Note_on_c, 7, 56, 127
10, 32744, Note_on_c, 7, 56, 0
10, 32760, Note_on_c, 7, 58, 127
10, 32774, Note_on_c, 7, 58, 0
10, 32790, Note_on_c, 7, 60, 127
10, 32804, Note_on_c, 7, 60, 0
10, 32820, Note_on_c, 7, 62, 127
10, 32834, Note_on_c, 7, 62, 0
10, 32850, Note_on_c, 7, 63, 127
10, 32864, Note_on_c, 7, 63, 0
10, 32880, Note_on_c, 7, 65, 127
10, 32939, Note_on_c, 7, 65, 0
10, 33150, Note_on_c, 7, 55, 127
10, 33164, Note_on_c, 7, 55, 0
10, 33180, Note_on_c, 7, 56, 127
10, 33194, Note_on_c, 7, 56, 0
10, 33210, Note_on_c, 7, 58, 127
10, 33224, Note_on_c, 7, 58, 0
10, 33240, Note_on_c, 7, 60, 127
10, 33254, Note_on_c, 7, 60, 0
10, 33270, Note_on_c, 7, 62, 127
10, 33284, Note_on_c, 7, 62, 0
10, 33300, Note_on_c, 7, 63, 127
10, 33314, Note_on_c, 7, 63, 0
10, 33330, Note_on_c, 7, 65, 127
10, 33344, Note_on_c, 7, 65, 0
10, 33360, Note_on_c, 7, 67, 127
10, 33480, Note_on_c, 7, 69, 127
10, 33489, Note_on_c, 7, 67, 0
10, 33540, Note_on_c, 7, 71, 127
10, 33549, Note_on_c, 7, 69, 0
10, 33599, Note_on_c, 7, 71, 0
10, 33600, Note_on_c, 7, 72, 127
10, 33719, Note_on_c, 7, 72, 0
10, 33720, Note_on_c, 7, 60, 127
10, 33900, Note_on_c, 7, 56, 127
10, 33909, Note_on_c, 7, 60, 0
10, 33930, Note_on_c, 7, 55, 127
10, 33939, Note_on_c, 7, 56, 0
10, 33959, Note_on_c, 7, 55, 0
10, 33960, Note_on_c, 7, 53, 127
10, 34019, Note_on_c, 7, 53, 0
10, 34200, Note_on_c, 7, 62, 127
10, 34379, Note_on_c, 7, 62, 0
10, 34380, Note_on_c, 7, 59, 127
10, 34410, Note_on_c, 7, 57, 127
10, 34419, Note_on_c, 7, 59, 0
10, 34439, Note_on_c, 7, 57, 0
10, 34440, Note_on_c, 7, 55, 127
10, 34469, Note_on_c, 7, 55, 0
10, 34500, Note_on_c, 7, 62, 127
10, 34529, Note_on_c, 7, 62, 0
10, 34560, Note_on_c, 7, 60, 127
10, 34619, Note_on_c, 7, 60, 0
10, 34620, Note_on_c, 7, 61, 127
10, 34739, Note_on_c, 7, 61, 0
10, 34740, Note_on_c, 7, 55, 127
10, 34799, Note_on_c, 7, 55, 0
10, 34800, Note_on_c, 7, 54, 127
10, 34979, Note_on_c, 7, 54, 0
10, 34980, Note_on_c, 7, 55, 127
10, 35010, Note_on_c, 7, 57, 127
10, 35019, Note_on_c, 7, 55, 0
10, 35039, Note_on_c, 7, 57, 0
10, 35040, Note_on_c, 7, 58, 127
10, 35100, Note_on_c, 7, 60, 127
10, 35109, Note_on_c, 7, 58, 0
10, 35130, Note_on_c, 7, 62, 127
10, 35139, Note_on_c, 7, 60, 0
10, 35160, Note_on_c, 7, 63, 127
10, 35169, Note_on_c, 7, 62, 0
10, 35220, Note_on_c, 7, 60, 127
10, 35229, Note_on_c, 7, 63, 0
10, 35250, Note_on_c, 7, 58, 127
10, 35259, Note_on_c, 7, 60, 0
10, 35279, Note_on_c, 7, 58, 0
10, 35280, Note_on_c, 7, 57, 127
10, 35340, Note_on_c, 7, 58, 127
10, 35349, Note_on_c, 7, 57, 0
10, 35370, Note_on_c, 7, 60, 127
10, 35379, Note_on_c, 7, 58, 0
10, 35400, Note_on_c, 7, 62, 127
10, 35409, Note_on_c, 7, 60, 0
10, 35460, Note_on_c, 7, 58, 127
10, 35469, Note_on_c, 7, 62, 0
10, 35490, Note_on_c, 7, 57, 127
10, 35499, Note_on_c, 7, 58, 0
10, 35519, Note_on_c, 7, 57, 0
10, 35520, Note_on_c, 7, 55, 127
10, 35580, Note_on_c, 7, 57, 127
10, 35589, Note_on_c, 7, 55, 0
10, 35610, Note_on_c, 7, 58, 127
10, 35619, Note_on_c, 7, 57, 0
10, 35640, Note_on_c, 7, 60, 127
10, 35649, Note_on_c, 7, 58, 0
10, 35700, Note_on_c, 7, 57, 127
10, 35709, Note_on_c, 7, 60, 0
10, 35730, Note_on_c, 7, 55, 127
10, 35739, Note_on_c, 7, 57, 0
10, 35759, Note_on_c, 7, 55, 0
10, 35760, Note_on_c, 7, 54, 127
10, 35820, Note_on_c, 7, 55, 127
10, 35829, Note_on_c, 7, 54, 0
10, 35850, Note_on_c, 7, 57, 127
10, 35859, Note_on_c, 7, 55, 0
10, 35880, Note_on_c, 7, 58, 127
10, 35889, Note_on_c, 7, 57, 0
10, 35910, Note_on_c, 7, 60, 127
10, 35940, Note_on_c, 7, 61, 127
10, 35949, Note_on_c, 7, 60, 0
10, 35949, Note_on_c, 7, 58, 0
10, 35970, Note_on_c, 7, 62, 127
10, 35979, Note_on_c, 7, 61, 0
10, 35999, Note_on_c, 7, 62, 0
10, 36000, Note_on_c, 7, 64, 127
10, 36030, Note_on_c, 7, 64, 0
10, 36120, Note_on_c, 7, 55, 127
10, 36292, Note_on_c, 7, 55, 0
10, 36299, Note_on_c, 7, 55, 127
10, 36329, Note_on_c, 7, 55, 0
10, 36360, Note_on_c, 7, 55, 127
10, 36390, Note_on_c, 7, 55, 0
10, 36422, Note_on_c, 7, 55, 127
10, 36452, Note_on_c, 7, 55, 0
10, 36480, Note_on_c, 7, 62, 112
10, 36720, Note_on_c, 7, 62, 0
10, 36720, Note_on_c, 7, 50, 48
10, 36960, Note_on_c, 7, 50, 0
10, 36960, Note_on_c, 7, 55, 48
10, 37080, Note_on_c, 7, 55, 0
10, 37193, Note_on_c, 7, 55, 12
10, 37306, Note_on_c, 7, 55, 0
10, 37440, Note_on_c, 7, 56, 48
10, 37560, Note_on_c, 7, 56, 0
10, 38160, Note_on_c, 7, 51, 127
10, 38160, Note_on_c, 7, 48, 127
10, 38400, Note_on_c, 7, 48, 0
10, 38400, Note_on_c, 7, 51, 0
10, 38400, Note_on_c, 7, 48, 127
10, 38400, Note_on_c, 7, 51, 127
10, 38418, Note_on_c, 7, 51, 0
10, 38418, Note_on_c, 7, 48, 0
10, 38421, Note_on_c, 7, 48, 127
10, 38421, Note_on_c, 7, 51, 127
10, 38439, Note_on_c, 7, 51, 0
10, 38439, Note_on_c, 7, 48, 0
10, 38440, Note_on_c, 7, 48, 127
10, 38440, Note_on_c, 7, 51, 127
10, 38458, Note_on_c, 7, 51, 0
10, 38458, Note_on_c, 7, 48, 0
10, 38460, Note_on_c, 7, 51, 127
10, 38460, Note_on_c, 7, 48, 127
10, 38478, Note_on_c, 7, 48, 0
10, 38478, Note_on_c, 7, 51, 0
10, 38480, Note_on_c, 7, 51, 127
10, 38480, Note_on_c, 7, 48, 127
10, 38498, Note_on_c, 7, 48, 0
10, 38498, Note_on_c, 7, 51, 0
10, 38500, Note_on_c, 7, 48, 127
10, 38500, Note_on_c, 7, 51, 127
10, 38518, Note_on_c, 7, 51, 0
10, 38518, Note_on_c, 7, 48, 0
10, 38520, Note_on_c, 7, 51, 127
10, 38520, Note_on_c, 7, 48, 127
10, 38538, Note_on_c, 7, 48, 0
10, 38538, Note_on_c, 7, 51, 0
10, 38540, Note_on_c, 7, 51, 127
10, 38540, Note_on_c, 7, 48, 127
10, 38558, Note_on_c, 7, 48, 0
10, 38558, Note_on_c, 7, 51, 0
10, 38560, Note_on_c, 7, 51, 127
10, 38560, Note_on_c, 7, 48, 127
10, 38578, Note_on_c, 7, 48, 0
10, 38578, Note_on_c, 7, 51, 0
10, 38580, Note_on_c, 7, 48, 127
10, 38580, Note_on_c, 7, 51, 127
10, 38598, Note_on_c, 7, 51, 0
10, 38598, Note_on_c, 7, 48, 0
10, 38600, Note_on_c, 7, 51, 127
10, 38600, Note_on_c, 7, 48, 127
10, 38618, Note_on_c, 7, 48, 0
10, 38618, Note_on_c, 7, 51, 0
10, 38620, Note_on_c, 7, 48, 127
10, 38620, Note_on_c, 7, 51, 127
10, 38638, Note_on_c, 7, 51, 0
10, 38638, Note_on_c, 7, 48, 0
10, 38640, Note_on_c, 7, 48, 127
10, 38640, Note_on_c, 7, 51, 127
10, 38658, Note_on_c, 7, 51, 0
10, 38658, Note_on_c, 7, 48, 0
10, 38660, Note_on_c, 7, 48, 127
10, 38660, Note_on_c, 7, 51, 127
10, 38678, Note_on_c, 7, 51, 0
10, 38678, Note_on_c, 7, 48, 0
10, 38680, Note_on_c, 7, 48, 127
10, 38680, Note_on_c, 7, 51, 127
10, 38698, Note_on_c, 7, 51, 0
10, 38698, Note_on_c, 7, 48, 0
10, 38700, Note_on_c, 7, 48, 127
10, 38700, Note_on_c, 7, 51, 127
10, 38718, Note_on_c, 7, 51, 0
10, 38718, Note_on_c, 7, 48, 0
10, 38722, Note_on_c, 7, 48, 127
10, 38722, Note_on_c, 7, 51, 127
10, 38740, Note_on_c, 7, 51, 0
10, 38740, Note_on_c, 7, 48, 0
10, 38740, Note_on_c, 7, 48, 127
10, 38740, Note_on_c, 7, 51, 127
10, 38758, Note_on_c, 7, 51, 0
10, 38758, Note_on_c, 7, 48, 0
10, 38760, Note_on_c, 7, 48, 127
10, 38760, Note_on_c, 7, 51, 127
10, 38778, Note_on_c, 7, 51, 0
10, 38778, Note_on_c, 7, 48, 0
10, 38780, Note_on_c, 7, 48, 127
10, 38780, Note_on_c, 7, 51, 127
10, 38798, Note_on_c, 7, 51, 0
10, 38798, Note_on_c, 7, 48, 0
10, 38800, Note_on_c, 7, 48, 127
10, 38800, Note_on_c, 7, 51, 127
10, 38818, Note_on_c, 7, 51, 0
10, 38818, Note_on_c, 7, 48, 0
10, 38820, Note_on_c, 7, 48, 127
10, 38820, Note_on_c, 7, 51, 127
10, 38838, Note_on_c, 7, 51, 0
10, 38838, Note_on_c, 7, 48, 0
10, 38840, Note_on_c, 7, 48, 127
10, 38840, Note_on_c, 7, 51, 127
10, 38858, Note_on_c, 7, 51, 0
10, 38858, Note_on_c, 7, 48, 0
10, 38858, Note_on_c, 7, 48, 127
10, 38860, Note_on_c, 7, 51, 127
10, 38876, Note_on_c, 7, 48, 0
10, 38878, Note_on_c, 7, 51, 0
10, 38880, Note_on_c, 7, 48, 127
10, 38880, Note_on_c, 7, 51, 127
10, 38898, Note_on_c, 7, 51, 0
10, 38898, Note_on_c, 7, 48, 0
10, 38901, Note_on_c, 7, 48, 127
10, 38901, Note_on_c, 7, 51, 127
10, 38919, Note_on_c, 7, 51, 0
10, 38919, Note_on_c, 7, 48, 0
10, 38921, Note_on_c, 7, 48, 127
10, 38921, Note_on_c, 7, 51, 127
10, 38939, Note_on_c, 7, 51, 0
10, 38939, Note_on_c, 7, 48, 0
10, 38940, Note_on_c, 7, 51, 127
10, 38940, Note_on_c, 7, 48, 127
10, 38958, Note_on_c, 7, 48, 0
10, 38958, Note_on_c, 7, 51, 0
10, 38960, Note_on_c, 7, 51, 127
10, 38960, Note_on_c, 7, 48, 127
10, 38978, Note_on_c, 7, 48, 0
10, 38978, Note_on_c, 7, 51, 0
10, 38980, Note_on_c, 7, 48, 127
10, 38980, Note_on_c, 7, 51, 127
10, 38998, Note_on_c, 7, 51, 0
10, 38998, Note_on_c, 7, 48, 0
10, 39000, Note_on_c, 7, 51, 127
10, 39000, Note_on_c, 7, 48, 127
10, 39018, Note_on_c, 7, 48, 0
10, 39018, Note_on_c, 7, 51, 0
10, 39020, Note_on_c, 7, 51, 127
10, 39020, Note_on_c, 7, 48, 127
10, 39038, Note_on_c, 7, 48, 0
10, 39038, Note_on_c, 7, 51, 0
10, 39040, Note_on_c, 7, 51, 127
10, 39040, Note_on_c, 7, 48, 127
10, 39058, Note_on_c, 7, 48, 0
10, 39058, Note_on_c, 7, 51, 0
10, 39060, Note_on_c, 7, 51, 127
10, 39060, Note_on_c, 7, 48, 127
10, 39078, Note_on_c, 7, 48, 0
10, 39078, Note_on_c, 7, 51, 0
10, 39080, Note_on_c, 7, 51, 127
10, 39080, Note_on_c, 7, 48, 127
10, 39098, Note_on_c, 7, 48, 0
10, 39098, Note_on_c, 7, 51, 0
10, 39100, Note_on_c, 7, 48, 127
10, 39100, Note_on_c, 7, 51, 127
10, 39118, Note_on_c, 7, 51, 0
10, 39118, Note_on_c, 7, 48, 0
10, 39120, Note_on_c, 7, 48, 127
10, 39120, Note_on_c, 7, 51, 127
10, 39138, Note_on_c, 7, 51, 0
10, 39138, Note_on_c, 7, 48, 0
10, 39140, Note_on_c, 7, 48, 127
10, 39140, Note_on_c, 7, 51, 127
10, 39158, Note_on_c, 7, 51, 0
10, 39158, Note_on_c, 7, 48, 0
10, 39160, Note_on_c, 7, 48, 127
10, 39160, Note_on_c, 7, 51, 127
10, 39178, Note_on_c, 7, 51, 0
10, 39178, Note_on_c, 7, 48, 0
10, 39180, Note_on_c, 7, 51, 127
10, 39180, Note_on_c, 7, 48, 127
10, 39198, Note_on_c, 7, 48, 0
10, 39198, Note_on_c, 7, 51, 0
10, 39202, Note_on_c, 7, 48, 127
10, 39202, Note_on_c, 7, 51, 127
10, 39220, Note_on_c, 7, 51, 0
10, 39220, Note_on_c, 7, 48, 0
10, 39220, Note_on_c, 7, 48, 127
10, 39220, Note_on_c, 7, 51, 127
10, 39238, Note_on_c, 7, 51, 0
10, 39238, Note_on_c, 7, 48, 0
10, 39240, Note_on_c, 7, 48, 127
10, 39240, Note_on_c, 7, 51, 127
10, 39258, Note_on_c, 7, 51, 0
10, 39258, Note_on_c, 7, 48, 0
10, 39260, Note_on_c, 7, 48, 127
10, 39260, Note_on_c, 7, 51, 127
10, 39278, Note_on_c, 7, 51, 0
10, 39278, Note_on_c, 7, 48, 0
10, 39280, Note_on_c, 7, 48, 127
10, 39280, Note_on_c, 7, 51, 127
10, 39298, Note_on_c, 7, 51, 0
10, 39298, Note_on_c, 7, 48, 0
10, 39300, Note_on_c, 7, 48, 127
10, 39300, Note_on_c, 7, 51, 127
10, 39318, Note_on_c, 7, 51, 0
10, 39318, Note_on_c, 7, 48, 0
10, 39320, Note_on_c, 7, 48, 127
10, 39320, Note_on_c, 7, 51, 127
10, 39338, Note_on_c, 7, 51, 0
10, 39338, Note_on_c, 7, 48, 0
10, 39338, Note_on_c, 7, 48, 127
10, 39340, Note_on_c, 7, 51, 127
10, 39356, Note_on_c, 7, 48, 0
10, 39358, Note_on_c, 7, 51, 0
10, 39360, Note_on_c, 7, 48, 127
10, 39360, Note_on_c, 7, 51, 127
10, 39378, Note_on_c, 7, 51, 0
10, 39378, Note_on_c, 7, 48, 0
10, 39380, Note_on_c, 7, 54, 127
10, 39380, Note_on_c, 7, 57, 127
10, 39398, Note_on_c, 7, 57, 0
10, 39398, Note_on_c, 7, 54, 0
10, 39400, Note_on_c, 7, 57, 127
10, 39400, Note_on_c, 7, 54, 127
10, 39418, Note_on_c, 7, 54, 0
10, 39418, Note_on_c, 7, 57, 0
10, 39420, Note_on_c, 7, 57, 127
10, 39420, Note_on_c, 7, 54, 127
10, 39438, Note_on_c, 7, 54, 0
10, 39438, Note_on_c, 7, 57, 0
10, 39440, Note_on_c, 7, 57, 127
10, 39440, Note_on_c, 7, 54, 127
10, 39458, Note_on_c, 7, 54, 0
10, 39458, Note_on_c, 7, 57, 0
10, 39460, Note_on_c, 7, 57, 127
10, 39460, Note_on_c, 7, 54, 127
10, 39478, Note_on_c, 7, 54, 0
10, 39478, Note_on_c, 7, 57, 0
10, 39480, Note_on_c, 7, 57, 127
10, 39480, Note_on_c, 7, 54, 127
10, 39498, Note_on_c, 7, 54, 0
10, 39498, Note_on_c, 7, 57, 0
10, 39500, Note_on_c, 7, 57, 127
10, 39500, Note_on_c, 7, 54, 127
10, 39518, Note_on_c, 7, 54, 0
10, 39518, Note_on_c, 7, 57, 0
10, 39520, Note_on_c, 7, 57, 127
10, 39520, Note_on_c, 7, 54, 127
10, 39538, Note_on_c, 7, 54, 0
10, 39538, Note_on_c, 7, 57, 0
10, 39540, Note_on_c, 7, 57, 127
10, 39540, Note_on_c, 7, 54, 127
10, 39558, Note_on_c, 7, 54, 0
10, 39558, Note_on_c, 7, 57, 0
10, 39560, Note_on_c, 7, 57, 127
10, 39560, Note_on_c, 7, 54, 127
10, 39578, Note_on_c, 7, 54, 0
10, 39578, Note_on_c, 7, 57, 0
10, 39580, Note_on_c, 7, 57, 127
10, 39580, Note_on_c, 7, 54, 127
10, 39598, Note_on_c, 7, 54, 0
10, 39598, Note_on_c, 7, 57, 0
10, 39600, Note_on_c, 7, 57, 127
10, 39600, Note_on_c, 7, 54, 127
10, 39618, Note_on_c, 7, 54, 0
10, 39618, Note_on_c, 7, 57, 0
10, 39620, Note_on_c, 7, 57, 127
10, 39620, Note_on_c, 7, 54, 127
10, 39638, Note_on_c, 7, 54, 0
10, 39638, Note_on_c, 7, 57, 0
10, 39640, Note_on_c, 7, 57, 127
10, 39640, Note_on_c, 7, 54, 127
10, 39658, Note_on_c, 7, 54, 0
10, 39658, Note_on_c, 7, 57, 0
10, 39660, Note_on_c, 7, 57, 127
10, 39660, Note_on_c, 7, 54, 127
10, 39678, Note_on_c, 7, 54, 0
10, 39678, Note_on_c, 7, 57, 0
10, 39680, Note_on_c, 7, 57, 127
10, 39680, Note_on_c, 7, 54, 127
10, 39698, Note_on_c, 7, 54, 0
10, 39698, Note_on_c, 7, 57, 0
10, 39700, Note_on_c, 7, 57, 127
10, 39700, Note_on_c, 7, 54, 127
10, 39718, Note_on_c, 7, 54, 0
10, 39718, Note_on_c, 7, 57, 0
10, 39720, Note_on_c, 7, 57, 127
10, 39720, Note_on_c, 7, 54, 127
10, 39738, Note_on_c, 7, 54, 0
10, 39738, Note_on_c, 7, 57, 0
10, 39740, Note_on_c, 7, 57, 127
10, 39740, Note_on_c, 7, 54, 127
10, 39758, Note_on_c, 7, 54, 0
10, 39758, Note_on_c, 7, 57, 0
10, 39760, Note_on_c, 7, 57, 127
10, 39760, Note_on_c, 7, 54, 127
10, 39778, Note_on_c, 7, 54, 0
10, 39778, Note_on_c, 7, 57, 0
10, 39780, Note_on_c, 7, 57, 127
10, 39780, Note_on_c, 7, 54, 127
10, 39798, Note_on_c, 7, 54, 0
10, 39798, Note_on_c, 7, 57, 0
10, 39800, Note_on_c, 7, 57, 127
10, 39800, Note_on_c, 7, 54, 127
10, 39818, Note_on_c, 7, 54, 0
10, 39818, Note_on_c, 7, 57, 0
10, 39820, Note_on_c, 7, 57, 127
10, 39820, Note_on_c, 7, 54, 127
10, 39838, Note_on_c, 7, 54, 0
10, 39838, Note_on_c, 7, 57, 0
10, 39840, Note_on_c, 7, 56, 127
10, 39840, Note_on_c, 7, 53, 127
10, 39858, Note_on_c, 7, 53, 0
10, 39858, Note_on_c, 7, 56, 0
10, 39860, Note_on_c, 7, 56, 127
10, 39860, Note_on_c, 7, 53, 127
10, 39878, Note_on_c, 7, 53, 0
10, 39878, Note_on_c, 7, 56, 0
10, 39880, Note_on_c, 7, 53, 127
10, 39880, Note_on_c, 7, 56, 127
10, 39898, Note_on_c, 7, 56, 0
10, 39898, Note_on_c, 7, 53, 0
10, 39900, Note_on_c, 7, 56, 127
10, 39900, Note_on_c, 7, 53, 127
10, 39918, Note_on_c, 7, 53, 0
10, 39918, Note_on_c, 7, 56, 0
10, 39920, Note_on_c, 7, 53, 127
10, 39920, Note_on_c, 7, 56, 127
10, 39938, Note_on_c, 7, 56, 0
10, 39938, Note_on_c, 7, 53, 0
10, 39940, Note_on_c, 7, 56, 127
10, 39940, Note_on_c, 7, 53, 127
10, 39958, Note_on_c, 7, 53, 0
10, 39958, Note_on_c, 7, 56, 0
10, 39960, Note_on_c, 7, 53, 110
10, 39960, Note_on_c, 7, 56, 127
10, 39978, Note_on_c, 7, 56, 0
10, 39978, Note_on_c, 7, 53, 0
10, 39980, Note_on_c, 7, 56, 127
10, 39980, Note_on_c, 7, 53, 127
10, 39998, Note_on_c, 7, 53, 0
10, 39998, Note_on_c, 7, 56, 0
10, 40000, Note_on_c, 7, 53, 127
10, 40000, Note_on_c, 7, 56, 127
10, 40018, Note_on_c, 7, 56, 0
10, 40018, Note_on_c, 7, 53, 0
10, 40020, Note_on_c, 7, 56, 127
10, 40020, Note_on_c, 7, 53, 127
10, 40038, Note_on_c, 7, 53, 0
10, 40038, Note_on_c, 7, 56, 0
10, 40040, Note_on_c, 7, 53, 127
10, 40040, Note_on_c, 7, 56, 127
10, 40058, Note_on_c, 7, 56, 0
10, 40058, Note_on_c, 7, 53, 0
10, 40060, Note_on_c, 7, 53, 127
10, 40060, Note_on_c, 7, 56, 127
10, 40078, Note_on_c, 7, 56, 0
10, 40078, Note_on_c, 7, 53, 0
10, 40080, Note_on_c, 7, 53, 127
10, 40080, Note_on_c, 7, 56, 127
10, 40098, Note_on_c, 7, 56, 0
10, 40098, Note_on_c, 7, 53, 0
10, 40100, Note_on_c, 7, 53, 127
10, 40100, Note_on_c, 7, 56, 127
10, 40118, Note_on_c, 7, 56, 0
10, 40118, Note_on_c, 7, 53, 0
10, 40120, Note_on_c, 7, 56, 127
10, 40120, Note_on_c, 7, 53, 127
10, 40138, Note_on_c, 7, 53, 0
10, 40138, Note_on_c, 7, 56, 0
10, 40140, Note_on_c, 7, 53, 127
10, 40140, Note_on_c, 7, 56, 127
10, 40158, Note_on_c, 7, 56, 0
10, 40158, Note_on_c, 7, 53, 0
10, 40160, Note_on_c, 7, 56, 127
10, 40160, Note_on_c, 7, 53, 127
10, 40178, Note_on_c, 7, 53, 0
10, 40178, Note_on_c, 7, 56, 0
10, 40180, Note_on_c, 7, 53, 127
10, 40180, Note_on_c, 7, 56, 127
10, 40198, Note_on_c, 7, 56, 0
10, 40198, Note_on_c, 7, 53, 0
10, 40200, Note_on_c, 7, 53, 127
10, 40200, Note_on_c, 7, 56, 127
10, 40218, Note_on_c, 7, 56, 0
10, 40218, Note_on_c, 7, 53, 0
10, 40220, Note_on_c, 7, 56, 127
10, 40220, Note_on_c, 7, 53, 127
10, 40238, Note_on_c, 7, 53, 0
10, 40238, Note_on_c, 7, 56, 0
10, 40240, Note_on_c, 7, 53, 127
10, 40240, Note_on_c, 7, 56, 127
10, 40258, Note_on_c, 7, 56, 0
10, 40258, Note_on_c, 7, 53, 0
10, 40260, Note_on_c, 7, 53, 127
10, 40260, Note_on_c, 7, 56, 127
10, 40278, Note_on_c, 7, 56, 0
10, 40278, Note_on_c, 7, 53, 0
10, 40280, Note_on_c, 7, 56, 127
10, 40280, Note_on_c, 7, 53, 127
10, 40298, Note_on_c, 7, 53, 0
10, 40298, Note_on_c, 7, 56, 0
10, 40300, Note_on_c, 7, 53, 127
10, 40300, Note_on_c, 7, 56, 127
10, 40318, Note_on_c, 7, 56, 0
10, 40318, Note_on_c, 7, 53, 0
10, 40320, Note_on_c, 7, 55, 127
10, 40320, Note_on_c, 7, 53, 127
10, 40338, Note_on_c, 7, 53, 0
10, 40338, Note_on_c, 7, 55, 0
10, 40340, Note_on_c, 7, 62, 127
10, 40340, Note_on_c, 7, 59, 127
10, 40358, Note_on_c, 7, 59, 0
10, 40358, Note_on_c, 7, 62, 0
10, 40360, Note_on_c, 7, 62, 127
10, 40360, Note_on_c, 7, 59, 127
10, 40378, Note_on_c, 7, 59, 0
10, 40378, Note_on_c, 7, 62, 0
10, 40380, Note_on_c, 7, 59, 127
10, 40380, Note_on_c, 7, 62, 127
10, 40398, Note_on_c, 7, 62, 0
10, 40398, Note_on_c, 7, 59, 0
10, 40400, Note_on_c, 7, 62, 127
10, 40400, Note_on_c, 7, 59, 127
10, 40418, Note_on_c, 7, 59, 0
10, 40418, Note_on_c, 7, 62, 0
10, 40420, Note_on_c, 7, 59, 127
10, 40420, Note_on_c, 7, 62, 127
10, 40438, Note_on_c, 7, 62, 0
10, 40438, Note_on_c, 7, 59, 0
10, 40440, Note_on_c, 7, 62, 127
10, 40440, Note_on_c, 7, 59, 127
10, 40458, Note_on_c, 7, 59, 0
10, 40458, Note_on_c, 7, 62, 0
10, 40460, Note_on_c, 7, 59, 116
10, 40460, Note_on_c, 7, 62, 116
10, 40478, Note_on_c, 7, 62, 0
10, 40478, Note_on_c, 7, 59, 0
10, 40480, Note_on_c, 7, 62, 102
10, 40480, Note_on_c, 7, 59, 102
10, 40498, Note_on_c, 7, 59, 0
10, 40498, Note_on_c, 7, 62, 0
10, 40500, Note_on_c, 7, 59, 93
10, 40500, Note_on_c, 7, 62, 89
10, 40518, Note_on_c, 7, 62, 0
10, 40518, Note_on_c, 7, 59, 0
10, 40520, Note_on_c, 7, 62, 80
10, 40520, Note_on_c, 7, 59, 80
10, 40538, Note_on_c, 7, 59, 0
10, 40538, Note_on_c, 7, 62, 0
10, 40540, Note_on_c, 7, 62, 67
10, 40540, Note_on_c, 7, 59, 67
10, 40558, Note_on_c, 7, 59, 0
10, 40558, Note_on_c, 7, 62, 0
10, 40560, Note_on_c, 7, 62, 53
10, 40560, Note_on_c, 7, 59, 53
10, 40578, Note_on_c, 7, 59, 0
10, 40578, Note_on_c, 7, 62, 0
10, 40580, Note_on_c, 7, 62, 47
10, 40580, Note_on_c, 7, 59, 47
10, 40598, Note_on_c, 7, 59, 0
10, 40598, Note_on_c, 7, 62, 0
10, 40600, Note_on_c, 7, 62, 47
10, 40600, Note_on_c, 7, 59, 47
10, 40618, Note_on_c, 7, 59, 0
10, 40618, Note_on_c, 7, 62, 0
10, 40620, Note_on_c, 7, 59, 47
10, 40620, Note_on_c, 7, 62, 47
10, 40638, Note_on_c, 7, 62, 0
10, 40638, Note_on_c, 7, 59, 0
10, 40640, Note_on_c, 7, 62, 47
10, 40640, Note_on_c, 7, 59, 47
10, 40658, Note_on_c, 7, 59, 0
10, 40658, Note_on_c, 7, 62, 0
10, 40660, Note_on_c, 7, 62, 47
10, 40660, Note_on_c, 7, 59, 47
10, 40678, Note_on_c, 7, 59, 0
10, 40678, Note_on_c, 7, 62, 0
10, 40680, Note_on_c, 7, 62, 47
10, 40680, Note_on_c, 7, 59, 47
10, 40698, Note_on_c, 7, 59, 0
10, 40698, Note_on_c, 7, 62, 0
10, 40700, Note_on_c, 7, 62, 47
10, 40700, Note_on_c, 7, 59, 47
10, 40718, Note_on_c, 7, 59, 0
10, 40718, Note_on_c, 7, 62, 0
10, 40720, Note_on_c, 7, 62, 47
10, 40720, Note_on_c, 7, 59, 47
10, 40738, Note_on_c, 7, 59, 0
10, 40738, Note_on_c, 7, 62, 0
10, 40740, Note_on_c, 7, 59, 47
10, 40740, Note_on_c, 7, 62, 47
10, 40758, Note_on_c, 7, 62, 0
10, 40758, Note_on_c, 7, 59, 0
10, 40760, Note_on_c, 7, 62, 47
10, 40760, Note_on_c, 7, 59, 47
10, 40778, Note_on_c, 7, 59, 0
10, 40778, Note_on_c, 7, 62, 0
10, 40780, Note_on_c, 7, 62, 46
10, 40780, Note_on_c, 7, 59, 46
10, 40798, Note_on_c, 7, 59, 0
10, 40798, Note_on_c, 7, 62, 0
10, 40800, Note_on_c, 7, 62, 47
10, 40800, Note_on_c, 7, 59, 47
10, 40818, Note_on_c, 7, 59, 0
10, 40818, Note_on_c, 7, 62, 0
10, 40820, Note_on_c, 7, 62, 47
10, 40820, Note_on_c, 7, 59, 47
10, 40838, Note_on_c, 7, 59, 0
10, 40838, Note_on_c, 7, 62, 0
10, 40840, Note_on_c, 7, 62, 47
10, 40840, Note_on_c, 7, 59, 47
10, 40858, Note_on_c, 7, 59, 0
10, 40858, Note_on_c, 7, 62, 0
10, 40860, Note_on_c, 7, 59, 47
10, 40860, Note_on_c, 7, 62, 47
10, 40878, Note_on_c, 7, 62, 0
10, 40878, Note_on_c, 7, 59, 0
10, 40880, Note_on_c, 7, 62, 47
10, 40880, Note_on_c, 7, 59, 47
10, 40898, Note_on_c, 7, 59, 0
10, 40898, Note_on_c, 7, 62, 0
10, 40900, Note_on_c, 7, 62, 47
10, 40900, Note_on_c, 7, 59, 47
10, 40918, Note_on_c, 7, 59, 0
10, 40918, Note_on_c, 7, 62, 0
10, 40920, Note_on_c, 7, 62, 47
10, 40920, Note_on_c, 7, 59, 47
10, 40938, Note_on_c, 7, 59, 0
10, 40938, Note_on_c, 7, 62, 0
10, 40940, Note_on_c, 7, 62, 47
10, 40940, Note_on_c, 7, 59, 47
10, 40958, Note_on_c, 7, 59, 0
10, 40958, Note_on_c, 7, 62, 0
10, 40960, Note_on_c, 7, 62, 47
10, 40960, Note_on_c, 7, 59, 47
10, 40978, Note_on_c, 7, 59, 0
10, 40978, Note_on_c, 7, 62, 0
10, 40980, Note_on_c, 7, 59, 47
10, 40980, Note_on_c, 7, 62, 47
10, 40998, Note_on_c, 7, 62, 0
10, 40998, Note_on_c, 7, 59, 0
10, 41000, Note_on_c, 7, 62, 47
10, 41000, Note_on_c, 7, 59, 47
10, 41018, Note_on_c, 7, 59, 0
10, 41018, Note_on_c, 7, 62, 0
10, 41020, Note_on_c, 7, 62, 47
10, 41020, Note_on_c, 7, 59, 47
10, 41038, Note_on_c, 7, 59, 0
10, 41038, Note_on_c, 7, 62, 0
10, 41040, Note_on_c, 7, 62, 47
10, 41040, Note_on_c, 7, 59, 47
10, 41058, Note_on_c, 7, 59, 0
10, 41058, Note_on_c, 7, 62, 0
10, 41060, Note_on_c, 7, 62, 47
10, 41060, Note_on_c, 7, 59, 47
10, 41078, Note_on_c, 7, 59, 0
10, 41078, Note_on_c, 7, 62, 0
10, 41080, Note_on_c, 7, 62, 47
10, 41080, Note_on_c, 7, 59, 47
10, 41098, Note_on_c, 7, 59, 0
10, 41098, Note_on_c, 7, 62, 0
10, 41100, Note_on_c, 7, 59, 47
10, 41100, Note_on_c, 7, 62, 47
10, 41118, Note_on_c, 7, 62, 0
10, 41118, Note_on_c, 7, 59, 0
10, 41120, Note_on_c, 7, 62, 47
10, 41120, Note_on_c, 7, 59, 47
10, 41138, Note_on_c, 7, 59, 0
10, 41138, Note_on_c, 7, 62, 0
10, 41140, Note_on_c, 7, 62, 47
10, 41140, Note_on_c, 7, 59, 47
10, 41158, Note_on_c, 7, 59, 0
10, 41158, Note_on_c, 7, 62, 0
10, 41160, Note_on_c, 7, 62, 47
10, 41160, Note_on_c, 7, 59, 47
10, 41178, Note_on_c, 7, 59, 0
10, 41178, Note_on_c, 7, 62, 0
10, 41180, Note_on_c, 7, 62, 47
10, 41180, Note_on_c, 7, 59, 47
10, 41198, Note_on_c, 7, 59, 0
10, 41198, Note_on_c, 7, 62, 0
10, 41200, Note_on_c, 7, 62, 47
10, 41200, Note_on_c, 7, 59, 47
10, 41218, Note_on_c, 7, 59, 0
10, 41218, Note_on_c, 7, 62, 0
10, 41220, Note_on_c, 7, 59, 47
10, 41220, Note_on_c, 7, 62, 47
10, 41238, Note_on_c, 7, 62, 0
10, 41238, Note_on_c, 7, 59, 0
10, 41240, Note_on_c, 7, 62, 47
10, 41240, Note_on_c, 7, 59, 47
10, 41258, Note_on_c, 7, 59, 0
10, 41258, Note_on_c, 7, 62, 0
10, 41260, Note_on_c, 7, 62, 47
10, 41260, Note_on_c, 7, 59, 47
10, 41278, Note_on_c, 7, 59, 0
10, 41278, Note_on_c, 7, 62, 0
10, 41280, Note_on_c, 7, 62, 47
10, 41280, Note_on_c, 7, 59, 47
10, 41298, Note_on_c, 7, 59, 0
10, 41298, Note_on_c, 7, 62, 0
10, 41300, Note_on_c, 7, 62, 47
10, 41300, Note_on_c, 7, 59, 47
10, 41318, Note_on_c, 7, 59, 0
10, 41318, Note_on_c, 7, 62, 0
10, 41320, Note_on_c, 7, 62, 47
10, 41320, Note_on_c, 7, 59, 47
10, 41338, Note_on_c, 7, 59, 0
10, 41338, Note_on_c, 7, 62, 0
10, 41340, Note_on_c, 7, 59, 47
10, 41340, Note_on_c, 7, 62, 47
10, 41358, Note_on_c, 7, 62, 0
10, 41358, Note_on_c, 7, 59, 0
10, 41360, Note_on_c, 7, 62, 47
10, 41360, Note_on_c, 7, 59, 47
10, 41378, Note_on_c, 7, 59, 0
10, 41378, Note_on_c, 7, 62, 0
10, 41380, Note_on_c, 7, 62, 47
10, 41380, Note_on_c, 7, 59, 47
10, 41398, Note_on_c, 7, 59, 0
10, 41398, Note_on_c, 7, 62, 0
10, 41400, Note_on_c, 7, 62, 47
10, 41400, Note_on_c, 7, 59, 47
10, 41418, Note_on_c, 7, 59, 0
10, 41418, Note_on_c, 7, 62, 0
10, 41420, Note_on_c, 7, 62, 47
10, 41420, Note_on_c, 7, 59, 47
10, 41438, Note_on_c, 7, 59, 0
10, 41438, Note_on_c, 7, 62, 0
10, 41440, Note_on_c, 7, 62, 47
10, 41440, Note_on_c, 7, 59, 47
10, 41458, Note_on_c, 7, 59, 0
10, 41458, Note_on_c, 7, 62, 0
10, 41460, Note_on_c, 7, 59, 47
10, 41460, Note_on_c, 7, 62, 47
10, 41478, Note_on_c, 7, 62, 0
10, 41478, Note_on_c, 7, 59, 0
10, 41480, Note_on_c, 7, 62, 47
10, 41480, Note_on_c, 7, 59, 47
10, 41498, Note_on_c, 7, 59, 0
10, 41498, Note_on_c, 7, 62, 0
10, 41500, Note_on_c, 7, 62, 47
10, 41500, Note_on_c, 7, 59, 47
10, 41518, Note_on_c, 7, 59, 0
10, 41518, Note_on_c, 7, 62, 0
10, 41520, Note_on_c, 7, 60, 48
10, 41538, Note_on_c, 7, 60, 0
10, 41540, Note_on_c, 7, 60, 48
10, 41558, Note_on_c, 7, 60, 0
10, 41560, Note_on_c, 7, 60, 48
10, 41578, Note_on_c, 7, 60, 0
10, 41580, Note_on_c, 7, 60, 48
10, 41598, Note_on_c, 7, 60, 0
10, 41600, Note_on_c, 7, 60, 48
10, 41618, Note_on_c, 7, 60, 0
10, 41620, Note_on_c, 7, 60, 48
10, 41638, Note_on_c, 7, 60, 0
10, 41640, Note_on_c, 7, 60, 48
10, 41658, Note_on_c, 7, 60, 0
10, 41660, Note_on_c, 7, 60, 48
10, 41678, Note_on_c, 7, 60, 0
10, 41680, Note_on_c, 7, 60, 48
10, 41698, Note_on_c, 7, 60, 0
10, 41700, Note_on_c, 7, 60, 48
10, 41718, Note_on_c, 7, 60, 0
10, 41720, Note_on_c, 7, 60, 48
10, 41738, Note_on_c, 7, 60, 0
10, 41740, Note_on_c, 7, 60, 48
10, 41758, Note_on_c, 7, 60, 0
10, 41760, Note_on_c, 7, 60, 48
10, 41778, Note_on_c, 7, 60, 0
10, 41780, Note_on_c, 7, 60, 48
10, 41798, Note_on_c, 7, 60, 0
10, 41800, Note_on_c, 7, 60, 48
10, 41818, Note_on_c, 7, 60, 0
10, 41820, Note_on_c, 7, 60, 48
10, 41838, Note_on_c, 7, 60, 0
10, 41840, Note_on_c, 7, 60, 48
10, 41858, Note_on_c, 7, 60, 0
10, 41860, Note_on_c, 7, 60, 48
10, 41878, Note_on_c, 7, 60, 0
10, 41880, Note_on_c, 7, 60, 48
10, 41898, Note_on_c, 7, 60, 0
10, 41900, Note_on_c, 7, 60, 48
10, 41918, Note_on_c, 7, 60, 0
10, 41920, Note_on_c, 7, 60, 48
10, 41938, Note_on_c, 7, 60, 0
10, 41940, Note_on_c, 7, 60, 48
10, 41958, Note_on_c, 7, 60, 0
10, 41960, Note_on_c, 7, 60, 48
10, 41978, Note_on_c, 7, 60, 0
10, 41980, Note_on_c, 7, 60, 48
10, 41998, Note_on_c, 7, 60, 0
10, 42000, Note_on_c, 7, 60, 48
10, 42018, Note_on_c, 7, 60, 0
10, 42020, Note_on_c, 7, 60, 48
10, 42038, Note_on_c, 7, 60, 0
10, 42040, Note_on_c, 7, 60, 48
10, 42058, Note_on_c, 7, 60, 0
10, 42060, Note_on_c, 7, 60, 48
10, 42078, Note_on_c, 7, 60, 0
10, 42080, Note_on_c, 7, 60, 48
10, 42098, Note_on_c, 7, 60, 0
10, 42100, Note_on_c, 7, 60, 48
10, 42118, Note_on_c, 7, 60, 0
10, 42120, Note_on_c, 7, 60, 48
10, 42138, Note_on_c, 7, 60, 0
10, 42140, Note_on_c, 7, 60, 48
10, 42158, Note_on_c, 7, 60, 0
10, 42160, Note_on_c, 7, 60, 48
10, 42178, Note_on_c, 7, 60, 0
10, 42180, Note_on_c, 7, 60, 48
10, 42198, Note_on_c, 7, 60, 0
10, 42200, Note_on_c, 7, 60, 48
10, 42218, Note_on_c, 7, 60, 0
10, 42220, Note_on_c, 7, 60, 48
10, 42238, Note_on_c, 7, 60, 0
10, 42240, Note_on_c, 7, 60, 48
10, 42258, Note_on_c, 7, 60, 0
10, 42260, Note_on_c, 7, 60, 48
10, 42278, Note_on_c, 7, 60, 0
10, 42280, Note_on_c, 7, 60, 48
10, 42298, Note_on_c, 7, 60, 0
10, 42300, Note_on_c, 7, 60, 48
10, 42318, Note_on_c, 7, 60, 0
10, 42320, Note_on_c, 7, 60, 48
10, 42338, Note_on_c, 7, 60, 0
10, 42340, Note_on_c, 7, 60, 48
10, 42358, Note_on_c, 7, 60, 0
10, 42360, Note_on_c, 7, 59, 48
10, 42378, Note_on_c, 7, 59, 0
10, 42380, Note_on_c, 7, 59, 48
10, 42398, Note_on_c, 7, 59, 0
10, 42400, Note_on_c, 7, 59, 48
10, 42418, Note_on_c, 7, 59, 0
10, 42420, Note_on_c, 7, 59, 48
10, 42438, Note_on_c, 7, 59, 0
10, 42440, Note_on_c, 7, 59, 48
10, 42458, Note_on_c, 7, 59, 0
10, 42460, Note_on_c, 7, 59, 48
10, 42478, Note_on_c, 7, 59, 0
10, 42480, Note_on_c, 7, 56, 47
10, 42480, Note_on_c, 7, 53, 47
10, 42498, Note_on_c, 7, 53, 0
10, 42498, Note_on_c, 7, 56, 0
10, 42500, Note_on_c, 7, 53, 47
10, 42500, Note_on_c, 7, 56, 47
10, 42518, Note_on_c, 7, 56, 0
10, 42518, Note_on_c, 7, 53, 0
10, 42520, Note_on_c, 7, 53, 47
10, 42520, Note_on_c, 7, 56, 47
10, 42538, Note_on_c, 7, 56, 0
10, 42538, Note_on_c, 7, 53, 0
10, 42540, Note_on_c, 7, 56, 47
10, 42540, Note_on_c, 7, 53, 47
10, 42558, Note_on_c, 7, 53, 0
10, 42558, Note_on_c, 7, 56, 0
10, 42560, Note_on_c, 7, 53, 47
10, 42560, Note_on_c, 7, 56, 47
10, 42578, Note_on_c, 7, 56, 0
10, 42578, Note_on_c, 7, 53, 0
10, 42580, Note_on_c, 7, 56, 47
10, 42580, Note_on_c, 7, 53, 47
10, 42598, Note_on_c, 7, 53, 0
10, 42598, Note_on_c, 7, 56, 0
10, 42600, Note_on_c, 7, 56, 47
10, 42600, Note_on_c, 7, 53, 47
10, 42618, Note_on_c, 7, 53, 0
10, 42618, Note_on_c, 7, 56, 0
10, 42620, Note_on_c, 7, 53, 47
10, 42620, Note_on_c, 7, 56, 47
10, 42638, Note_on_c, 7, 56, 0
10, 42638, Note_on_c, 7, 53, 0
10, 42640, Note_on_c, 7, 56, 47
10, 42640, Note_on_c, 7, 53, 47
10, 42658, Note_on_c, 7, 53, 0
10, 42658, Note_on_c, 7, 56, 0
10, 42660, Note_on_c, 7, 56, 47
10, 42660, Note_on_c, 7, 53, 47
10, 42678, Note_on_c, 7, 53, 0
10, 42678, Note_on_c, 7, 56, 0
10, 42680, Note_on_c, 7, 53, 47
10, 42680, Note_on_c, 7, 56, 47
10, 42698, Note_on_c, 7, 56, 0
10, 42698, Note_on_c, 7, 53, 0
10, 42700, Note_on_c, 7, 53, 47
10, 42700, Note_on_c, 7, 56, 47
10, 42718, Note_on_c, 7, 56, 0
10, 42718, Note_on_c, 7, 53, 0
10, 42720, Note_on_c, 7, 56, 47
10, 42720, Note_on_c, 7, 53, 47
10, 42738, Note_on_c, 7, 53, 0
10, 42738, Note_on_c, 7, 56, 0
10, 42740, Note_on_c, 7, 62, 47
10, 42740, Note_on_c, 7, 59, 47
10, 42758, Note_on_c, 7, 59, 0
10, 42758, Note_on_c, 7, 62, 0
10, 42760, Note_on_c, 7, 59, 48
10, 42760, Note_on_c, 7, 62, 48
10, 42778, Note_on_c, 7, 62, 0
10, 42778, Note_on_c, 7, 59, 0
10, 42780, Note_on_c, 7, 62, 50
10, 42780, Note_on_c, 7, 59, 50
10, 42798, Note_on_c, 7, 59, 0
10, 42798, Note_on_c, 7, 62, 0
10, 42800, Note_on_c, 7, 59, 51
10, 42800, Note_on_c, 7, 62, 51
10, 42818, Note_on_c, 7, 62, 0
10, 42818, Note_on_c, 7, 59, 0
10, 42820, Note_on_c, 7, 62, 52
10, 42820, Note_on_c, 7, 59, 52
10, 42838, Note_on_c, 7, 59, 0
10, 42838, Note_on_c, 7, 62, 0
10, 42840, Note_on_c, 7, 62, 54
10, 42840, Note_on_c, 7, 59, 54
10, 42858, Note_on_c, 7, 59, 0
10, 42858, Note_on_c, 7, 62, 0
10, 42860, Note_on_c, 7, 62, 55
10, 42860, Note_on_c, 7, 59, 55
10, 42878, Note_on_c, 7, 59, 0
10, 42878, Note_on_c, 7, 62, 0
10, 42880, Note_on_c, 7, 62, 57
10, 42880, Note_on_c, 7, 59, 57
10, 42898, Note_on_c, 7, 59, 0
10, 42898, Note_on_c, 7, 62, 0
10, 42900, Note_on_c, 7, 62, 58
10, 42900, Note_on_c, 7, 59, 58
10, 42918, Note_on_c, 7, 59, 0
10, 42918, Note_on_c, 7, 62, 0
10, 42920, Note_on_c, 7, 62, 59
10, 42920, Note_on_c, 7, 59, 59
10, 42938, Note_on_c, 7, 59, 0
10, 42938, Note_on_c, 7, 62, 0
10, 42940, Note_on_c, 7, 62, 61
10, 42940, Note_on_c, 7, 59, 61
10, 42958, Note_on_c, 7, 59, 0
10, 42958, Note_on_c, 7, 62, 0
10, 42960, Note_on_c, 7, 62, 62
10, 42960, Note_on_c, 7, 58, 62
10, 42978, Note_on_c, 7, 58, 0
10, 42978, Note_on_c, 7, 62, 0
10, 42980, Note_on_c, 7, 58, 62
10, 42980, Note_on_c, 7, 62, 62
10, 42998, Note_on_c, 7, 62, 0
10, 42998, Note_on_c, 7, 58, 0
10, 43000, Note_on_c, 7, 62, 61
10, 43000, Note_on_c, 7, 58, 61
10, 43018, Note_on_c, 7, 58, 0
10, 43018, Note_on_c, 7, 62, 0
10, 43040, Note_on_c, 7, 58, 58
10, 43058, Note_on_c, 7, 58, 0
10, 43060, Note_on_c, 7, 58, 57
10, 43078, Note_on_c, 7, 58, 0
10, 43100, Note_on_c, 7, 58, 54
10, 43118, Note_on_c, 7, 58, 0
10, 43120, Note_on_c, 7, 58, 53
10, 43138, Note_on_c, 7, 58, 0
10, 43160, Note_on_c, 7, 58, 50
10, 43178, Note_on_c, 7, 58, 0
10, 43180, Note_on_c, 7, 58, 49
10, 43198, Note_on_c, 7, 58, 0
10, 43220, Note_on_c, 7, 58, 46
10, 43238, Note_on_c, 7, 58, 0
10, 43240, Note_on_c, 7, 58, 46
10, 43258, Note_on_c, 7, 58, 0
10, 43280, Note_on_c, 7, 60, 46
10, 43298, Note_on_c, 7, 60, 0
10, 43300, Note_on_c, 7, 60, 46
10, 43318, Note_on_c, 7, 60, 0
10, 43320, Note_on_c, 7, 58, 46
10, 43338, Note_on_c, 7, 58, 0
10, 43340, Note_on_c, 7, 60, 46
10, 43358, Note_on_c, 7, 60, 0
10, 43360, Note_on_c, 7, 58, 46
10, 43378, Note_on_c, 7, 58, 0
10, 43380, Note_on_c, 7, 56, 46
10, 43398, Note_on_c, 7, 56, 0
10, 43400, Note_on_c, 7, 55, 46
10, 43418, Note_on_c, 7, 55, 0
10, 43420, Note_on_c, 7, 53, 46
10, 43438, Note_on_c, 7, 53, 0
10, 43440, Note_on_c, 7, 58, 46
10, 43560, Note_on_c, 7, 56, 46
10, 43561, Note_on_c, 7, 58, 0
10, 43620, Note_on_c, 7, 55, 46
10, 43621, Note_on_c, 7, 56, 0
10, 43680, Note_on_c, 7, 55, 0
10, 43680, Note_on_c, 7, 53, 46
10, 43920, Note_on_c, 7, 53, 0
10, 43920, Note_on_c, 7, 56, 83
10, 44035, Note_on_c, 7, 56, 0
10, 44040, Note_on_c, 7, 58, 65
10, 44100, Note_on_c, 7, 53, 56
10, 44102, Note_on_c, 7, 58, 0
10, 44160, Note_on_c, 7, 53, 0
10, 44160, Note_on_c, 7, 55, 46
10, 44220, Note_on_c, 7, 55, 0
10, 44265, Note_on_c, 7, 60, 97
10, 44272, Note_on_c, 7, 60, 0
10, 44280, Note_on_c, 7, 60, 97
10, 44400, Note_on_c, 7, 60, 0
10, 44520, Note_on_c, 7, 60, 52
10, 44520, Note_on_c, 7, 48, 43
10, 44580, Note_on_c, 7, 48, 0
10, 44580, Note_on_c, 7, 60, 0
10, 44580, Note_on_c, 7, 48, 52
10, 44580, Note_on_c, 7, 60, 52
10, 44640, Note_on_c, 7, 60, 0
10, 44640, Note_on_c, 7, 48, 0
10, 44640, Note_on_c, 7, 60, 52
10, 44700, Note_on_c, 7, 60, 0
10, 44700, Note_on_c, 7, 48, 72
10, 44760, Note_on_c, 7, 51, 95
10, 44761, Note_on_c, 7, 48, 0
10, 44820, Note_on_c, 7, 48, 72
10, 44824, Note_on_c, 7, 51, 0
10, 44880, Note_on_c, 7, 48, 0
10, 44880, Note_on_c, 7, 50, 47
10, 44898, Note_on_c, 7, 50, 0
10, 44900, Note_on_c, 7, 55, 47
10, 44918, Note_on_c, 7, 55, 0
10, 44920, Note_on_c, 7, 55, 47
10, 44938, Note_on_c, 7, 55, 0
10, 44940, Note_on_c, 7, 55, 47
10, 44958, Note_on_c, 7, 55, 0
10, 44960, Note_on_c, 7, 55, 47
10, 44978, Note_on_c, 7, 55, 0
10, 44980, Note_on_c, 7, 55, 47
10, 44998, Note_on_c, 7, 55, 0
10, 45020, Note_on_c, 7, 55, 47
10, 45038, Note_on_c, 7, 55, 0
10, 45040, Note_on_c, 7, 55, 47
10, 45058, Note_on_c, 7, 55, 0
10, 45080, Note_on_c, 7, 55, 47
10, 45098, Note_on_c, 7, 55, 0
10, 45100, Note_on_c, 7, 55, 47
10, 45118, Note_on_c, 7, 55, 0
10, 45120, Note_on_c, 7, 55, 47
10, 45138, Note_on_c, 7, 55, 0
10, 45140, Note_on_c, 7, 55, 46
10, 45158, Note_on_c, 7, 55, 0
10, 45160, Note_on_c, 7, 55, 46
10, 45178, Note_on_c, 7, 55, 0
10, 45180, Note_on_c, 7, 55, 46
10, 45198, Note_on_c, 7, 55, 0
10, 45200, Note_on_c, 7, 55, 46
10, 45218, Note_on_c, 7, 55, 0
10, 45220, Note_on_c, 7, 55, 46
10, 45238, Note_on_c, 7, 55, 0
10, 45260, Note_on_c, 7, 55, 46
10, 45278, Note_on_c, 7, 55, 0
10, 45280, Note_on_c, 7, 55, 46
10, 45298, Note_on_c, 7, 55, 0
10, 45320, Note_on_c, 7, 55, 46
10, 45338, Note_on_c, 7, 55, 0
10, 45340, Note_on_c, 7, 55, 46
10, 45358, Note_on_c, 7, 55, 0
10, 45360, Note_on_c, 7, 55, 46
10, 45378, Note_on_c, 7, 55, 0
10, 45380, Note_on_c, 7, 55, 48
10, 45398, Note_on_c, 7, 55, 0
10, 45400, Note_on_c, 7, 55, 50
10, 45418, Note_on_c, 7, 55, 0
10, 45420, Note_on_c, 7, 55, 51
10, 45438, Note_on_c, 7, 55, 0
10, 45440, Note_on_c, 7, 55, 52
10, 45458, Note_on_c, 7, 55, 0
10, 45460, Note_on_c, 7, 55, 54
10, 45478, Note_on_c, 7, 55, 0
10, 45500, Note_on_c, 7, 55, 57
10, 45518, Note_on_c, 7, 55, 0
10, 45520, Note_on_c, 7, 55, 58
10, 45538, Note_on_c, 7, 55, 0
10, 45560, Note_on_c, 7, 55, 61
10, 45578, Note_on_c, 7, 55, 0
10, 45580, Note_on_c, 7, 55, 62
10, 45598, Note_on_c, 7, 55, 0
10, 45600, Note_on_c, 7, 55, 63
10, 45618, Note_on_c, 7, 55, 0
10, 45620, Note_on_c, 7, 55, 62
10, 45638, Note_on_c, 7, 55, 0
10, 45640, Note_on_c, 7, 55, 61
10, 45658, Note_on_c, 7, 55, 0
10, 45660, Note_on_c, 7, 55, 59
10, 45678, Note_on_c, 7, 55, 0
10, 45680, Note_on_c, 7, 55, 58
10, 45698, Note_on_c, 7, 55, 0
10, 45700, Note_on_c, 7, 55, 56
10, 45718, Note_on_c, 7, 55, 0
10, 45740, Note_on_c, 7, 55, 54
10, 45758, Note_on_c, 7, 55, 0
10, 45760, Note_on_c, 7, 55, 52
10, 45778, Note_on_c, 7, 55, 0
10, 45800, Note_on_c, 7, 54, 49
10, 45818, Note_on_c, 7, 54, 0
10, 45820, Note_on_c, 7, 54, 48
10, 45838, Note_on_c, 7, 54, 0
10, 45840, Note_on_c, 7, 55, 47
10, 45900, Note_on_c, 7, 55, 0
10, 46680, Note_on_c, 7, 60, 95
10, 46692, Note_on_c, 7, 60, 0
10, 46695, Note_on_c, 7, 60, 95
10, 46700, Note_on_c, 7, 60, 0
10, 46710, Note_on_c, 7, 60, 95
10, 46722, Note_on_c, 7, 60, 0
10, 46725, Note_on_c, 7, 60, 95
10, 46737, Note_on_c, 7, 60, 0
10, 46740, Note_on_c, 7, 60, 95
10, 46752, Note_on_c, 7, 60, 0
10, 46755, Note_on_c, 7, 60, 95
10, 46767, Note_on_c, 7, 60, 0
10, 46770, Note_on_c, 7, 60, 95
10, 46782, Note_on_c, 7, 60, 0
10, 46785, Note_on_c, 7, 60, 95
10, 46797, Note_on_c, 7, 60, 0
10, 46800, Note_on_c, 7, 60, 47
10, 46812, Note_on_c, 7, 60, 0
10, 46815, Note_on_c, 7, 60, 47
10, 46827, Note_on_c, 7, 60, 0
10, 46830, Note_on_c, 7, 60, 47
10, 46842, Note_on_c, 7, 60, 0
10, 46845, Note_on_c, 7, 60, 47
10, 46857, Note_on_c, 7, 60, 0
10, 46875, Note_on_c, 7, 60, 47
10, 46887, Note_on_c, 7, 60, 0
10, 46890, Note_on_c, 7, 60, 47
10, 46902, Note_on_c, 7, 60, 0
10, 46905, Note_on_c, 7, 60, 47
10, 46917, Note_on_c, 7, 60, 0
10, 46935, Note_on_c, 7, 60, 47
10, 46947, Note_on_c, 7, 60, 0
10, 46950, Note_on_c, 7, 60, 47
10, 46962, Note_on_c, 7, 60, 0
10, 46965, Note_on_c, 7, 60, 47
10, 46977, Note_on_c, 7, 60, 0
10, 46995, Note_on_c, 7, 56, 47
10, 47007, Note_on_c, 7, 56, 0
10, 47010, Note_on_c, 7, 56, 47
10, 47022, Note_on_c, 7, 56, 0
10, 47025, Note_on_c, 7, 56, 47
10, 47037, Note_on_c, 7, 56, 0
10, 47055, Note_on_c, 7, 56, 47
10, 47067, Note_on_c, 7, 56, 0
10, 47070, Note_on_c, 7, 56, 47
10, 47082, Note_on_c, 7, 56, 0
10, 47085, Note_on_c, 7, 56, 47
10, 47097, Note_on_c, 7, 56, 0
10, 47115, Note_on_c, 7, 56, 47
10, 47127, Note_on_c, 7, 56, 0
10, 47130, Note_on_c, 7, 56, 47
10, 47142, Note_on_c, 7, 56, 0
10, 47145, Note_on_c, 7, 56, 47
10, 47157, Note_on_c, 7, 56, 0
10, 47175, Note_on_c, 7, 56, 47
10, 47187, Note_on_c, 7, 56, 0
10, 47190, Note_on_c, 7, 56, 47
10, 47202, Note_on_c, 7, 56, 0
10, 47205, Note_on_c, 7, 56, 47
10, 47217, Note_on_c, 7, 56, 0
10, 47235, Note_on_c, 7, 56, 47
10, 47247, Note_on_c, 7, 56, 0
10, 47250, Note_on_c, 7, 56, 47
10, 47262, Note_on_c, 7, 56, 0
10, 47265, Note_on_c, 7, 56, 47
10, 47277, Note_on_c, 7, 56, 0
10, 47295, Note_on_c, 7, 56, 49
10, 47307, Note_on_c, 7, 56, 0
10, 47310, Note_on_c, 7, 56, 52
10, 47322, Note_on_c, 7, 56, 0
10, 47325, Note_on_c, 7, 56, 55
10, 47337, Note_on_c, 7, 56, 0
10, 47355, Note_on_c, 7, 56, 61
10, 47367, Note_on_c, 7, 56, 0
10, 47370, Note_on_c, 7, 56, 64
10, 47382, Note_on_c, 7, 56, 0
10, 47385, Note_on_c, 7, 56, 67
10, 47397, Note_on_c, 7, 56, 0
10, 47415, Note_on_c, 7, 56, 73
10, 47427, Note_on_c, 7, 56, 0
10, 47430, Note_on_c, 7, 56, 76
10, 47442, Note_on_c, 7, 56, 0
10, 47445, Note_on_c, 7, 56, 79
10, 47457, Note_on_c, 7, 56, 0
10, 47475, Note_on_c, 7, 56, 85
10, 47487, Note_on_c, 7, 56, 0
10, 47490, Note_on_c, 7, 56, 88
10, 47502, Note_on_c, 7, 56, 0
10, 47505, Note_on_c, 7, 56, 91
10, 47517, Note_on_c, 7, 56, 0
10, 47535, Note_on_c, 7, 55, 95
10, 47547, Note_on_c, 7, 55, 0
10, 47550, Note_on_c, 7, 55, 95
10, 47562, Note_on_c, 7, 55, 0
10, 47565, Note_on_c, 7, 55, 95
10, 47577, Note_on_c, 7, 55, 0
10, 47580, Note_on_c, 7, 53, 95
10, 47592, Note_on_c, 7, 53, 0
10, 47595, Note_on_c, 7, 53, 95
10, 47607, Note_on_c, 7, 53, 0
10, 47610, Note_on_c, 7, 53, 95
10, 47622, Note_on_c, 7, 53, 0
10, 47625, Note_on_c, 7, 53, 95
10, 47637, Note_on_c, 7, 53, 0
10, 47640, Note_on_c, 7, 53, 94
10, 47652, Note_on_c, 7, 53, 0
10, 47655, Note_on_c, 7, 53, 94
10, 47667, Note_on_c, 7, 53, 0
10, 47670, Note_on_c, 7, 53, 94
10, 47682, Note_on_c, 7, 53, 0
10, 47685, Note_on_c, 7, 53, 94
10, 47697, Note_on_c, 7, 53, 0
10, 47700, Note_on_c, 7, 51, 94
10, 47712, Note_on_c, 7, 51, 0
10, 47715, Note_on_c, 7, 51, 47
10, 47727, Note_on_c, 7, 51, 0
10, 47730, Note_on_c, 7, 51, 47
10, 47742, Note_on_c, 7, 51, 0
10, 47745, Note_on_c, 7, 51, 47
10, 47757, Note_on_c, 7, 51, 0
10, 47760, Note_on_c, 7, 51, 46
10, 47772, Note_on_c, 7, 51, 0
10, 47775, Note_on_c, 7, 51, 50
10, 47787, Note_on_c, 7, 51, 0
10, 47790, Note_on_c, 7, 51, 54
10, 47802, Note_on_c, 7, 51, 0
10, 47805, Note_on_c, 7, 51, 58
10, 47817, Note_on_c, 7, 51, 0
10, 47820, Note_on_c, 7, 51, 62
10, 47832, Note_on_c, 7, 51, 0
10, 47835, Note_on_c, 7, 51, 60
10, 47847, Note_on_c, 7, 51, 0
10, 47850, Note_on_c, 7, 51, 56
10, 47862, Note_on_c, 7, 51, 0
10, 47865, Note_on_c, 7, 51, 52
10, 47877, Note_on_c, 7, 51, 0
10, 47895, Note_on_c, 7, 50, 48
10, 47907, Note_on_c, 7, 50, 0
10, 47910, Note_on_c, 7, 50, 48
10, 47922, Note_on_c, 7, 50, 0
10, 47925, Note_on_c, 7, 50, 48
10, 47937, Note_on_c, 7, 50, 0
10, 47955, Note_on_c, 7, 55, 48
10, 47967, Note_on_c, 7, 55, 0
10, 47970, Note_on_c, 7, 55, 48
10, 47982, Note_on_c, 7, 55, 0
10, 47985, Note_on_c, 7, 55, 48
10, 47997, Note_on_c, 7, 55, 0
10, 48000, Note_on_c, 7, 48, 48
10, 48012, Note_on_c, 7, 48, 0
10, 48015, Note_on_c, 7, 60, 48
10, 48030, Note_on_c, 7, 60, 0
10, 48030, Note_on_c, 7, 63, 48
10, 48045, Note_on_c, 7, 63, 0
10, 48045, Note_on_c, 7, 60, 48
10, 48060, Note_on_c, 7, 60, 0
10, 48060, Note_on_c, 7, 63, 48
10, 48075, Note_on_c, 7, 63, 0
10, 48075, Note_on_c, 7, 60, 48
10, 48090, Note_on_c, 7, 60, 0
10, 48090, Note_on_c, 7, 63, 47
10, 48105, Note_on_c, 7, 63, 0
10, 48105, Note_on_c, 7, 60, 47
10, 48120, Note_on_c, 7, 60, 0
10, 48135, Note_on_c, 7, 62, 47
10, 48150, Note_on_c, 7, 62, 0
10, 48150, Note_on_c, 7, 65, 47
10, 48165, Note_on_c, 7, 65, 0
10, 48165, Note_on_c, 7, 62, 47
10, 48180, Note_on_c, 7, 62, 0
10, 48180, Note_on_c, 7, 65, 47
10, 48195, Note_on_c, 7, 65, 0
10, 48195, Note_on_c, 7, 62, 47
10, 48210, Note_on_c, 7, 62, 0
10, 48210, Note_on_c, 7, 65, 47
10, 48225, Note_on_c, 7, 65, 0
10, 48225, Note_on_c, 7, 62, 47
10, 48240, Note_on_c, 7, 62, 0
10, 48255, Note_on_c, 7, 60, 46
10, 48270, Note_on_c, 7, 60, 0
10, 48270, Note_on_c, 7, 63, 46
10, 48285, Note_on_c, 7, 63, 0
10, 48285, Note_on_c, 7, 60, 46
10, 48300, Note_on_c, 7, 60, 0
10, 48315, Note_on_c, 7, 60, 46
10, 48330, Note_on_c, 7, 60, 0
10, 48330, Note_on_c, 7, 63, 46
10, 48345, Note_on_c, 7, 63, 0
10, 48345, Note_on_c, 7, 60, 46
10, 48360, Note_on_c, 7, 60, 0
10, 48375, Note_on_c, 7, 60, 46
10, 48390, Note_on_c, 7, 60, 0
10, 48390, Note_on_c, 7, 63, 46
10, 48405, Note_on_c, 7, 63, 0
10, 48405, Note_on_c, 7, 60, 46
10, 48420, Note_on_c, 7, 60, 0
10, 48435, Note_on_c, 7, 60, 46
10, 48450, Note_on_c, 7, 60, 0
10, 48450, Note_on_c, 7, 63, 46
10, 48465, Note_on_c, 7, 63, 0
10, 48465, Note_on_c, 7, 60, 46
10, 48480, Note_on_c, 7, 60, 0
10, 48495, Note_on_c, 7, 55, 46
10, 48510, Note_on_c, 7, 55, 0
10, 48510, Note_on_c, 7, 62, 46
10, 48525, Note_on_c, 7, 55, 46
10, 48526, Note_on_c, 7, 62, 0
10, 48540, Note_on_c, 7, 55, 0
10, 48555, Note_on_c, 7, 55, 46
10, 48570, Note_on_c, 7, 62, 46
10, 48571, Note_on_c, 7, 55, 0
10, 48585, Note_on_c, 7, 55, 46
10, 48586, Note_on_c, 7, 62, 0
10, 48600, Note_on_c, 7, 55, 0
10, 48615, Note_on_c, 7, 55, 46
10, 48630, Note_on_c, 7, 55, 0
10, 48630, Note_on_c, 7, 60, 46
10, 48645, Note_on_c, 7, 60, 0
10, 48645, Note_on_c, 7, 55, 46
10, 48660, Note_on_c, 7, 55, 0
10, 48675, Note_on_c, 7, 55, 46
10, 48690, Note_on_c, 7, 55, 0
10, 48690, Note_on_c, 7, 60, 46
10, 48705, Note_on_c, 7, 60, 0
10, 48705, Note_on_c, 7, 55, 46
10, 48720, Note_on_c, 7, 55, 0
10, 48735, Note_on_c, 7, 55, 46
10, 48750, Note_on_c, 7, 60, 46
10, 48752, Note_on_c, 7, 55, 0
10, 48765, Note_on_c, 7, 55, 46
10, 48767, Note_on_c, 7, 60, 0
10, 48780, Note_on_c, 7, 55, 0
10, 48795, Note_on_c, 7, 55, 46
10, 48810, Note_on_c, 7, 59, 46
10, 48812, Note_on_c, 7, 55, 0
10, 48825, Note_on_c, 7, 55, 46
10, 48826, Note_on_c, 7, 59, 0
10, 48840, Note_on_c, 7, 55, 0
10, 48855, Note_on_c, 7, 55, 46
10, 48870, Note_on_c, 7, 55, 0
10, 48870, Note_on_c, 7, 59, 46
10, 48885, Note_on_c, 7, 55, 46
10, 48887, Note_on_c, 7, 59, 0
10, 48900, Note_on_c, 7, 59, 46
10, 48901, Note_on_c, 7, 55, 0
10, 48915, Note_on_c, 7, 59, 0
10, 48915, Note_on_c, 7, 55, 46
10, 48930, Note_on_c, 7, 55, 0
10, 48930, Note_on_c, 7, 59, 46
10, 48945, Note_on_c, 7, 59, 0
10, 48945, Note_on_c, 7, 55, 46
10, 48960, Note_on_c, 7, 55, 0
10, 48975, Note_on_c, 7, 56, 95
10, 48983, Note_on_c, 7, 56, 0
10, 48990, Note_on_c, 7, 60, 95
10, 49003, Note_on_c, 7, 60, 0
10, 49005, Note_on_c, 7, 56, 95
10, 49013, Note_on_c, 7, 56, 0
10, 49035, Note_on_c, 7, 56, 95
10, 49050, Note_on_c, 7, 56, 0
10, 49050, Note_on_c, 7, 60, 95
10, 49053, Note_on_c, 7, 60, 0
10, 49065, Note_on_c, 7, 56, 95
10, 49072, Note_on_c, 7, 56, 0
10, 49095, Note_on_c, 7, 56, 95
10, 49110, Note_on_c, 7, 56, 0
10, 49110, Note_on_c, 7, 60, 95
10, 49113, Note_on_c, 7, 60, 0
10, 49125, Note_on_c, 7, 56, 95
10, 49140, Note_on_c, 7, 56, 0
10, 49155, Note_on_c, 7, 56, 95
10, 49170, Note_on_c, 7, 60, 95
10, 49171, Note_on_c, 7, 56, 0
10, 49185, Note_on_c, 7, 56, 95
10, 49186, Note_on_c, 7, 60, 0
10, 49200, Note_on_c, 7, 56, 0
10, 49215, Note_on_c, 7, 57, 107
10, 49219, Note_on_c, 7, 57, 0
10, 49230, Note_on_c, 7, 60, 103
10, 49240, Note_on_c, 7, 60, 0
10, 49245, Note_on_c, 7, 57, 99
10, 49252, Note_on_c, 7, 57, 0
10, 49275, Note_on_c, 7, 57, 91
10, 49290, Note_on_c, 7, 57, 0
10, 49290, Note_on_c, 7, 60, 87
10, 49305, Note_on_c, 7, 57, 83
10, 49306, Note_on_c, 7, 60, 0
10, 49320, Note_on_c, 7, 57, 0
10, 49335, Note_on_c, 7, 57, 75
10, 49350, Note_on_c, 7, 57, 0
10, 49350, Note_on_c, 7, 60, 71
10, 49365, Note_on_c, 7, 60, 0
10, 49365, Note_on_c, 7, 57, 67
10, 49380, Note_on_c, 7, 57, 0
10, 49395, Note_on_c, 7, 57, 59
10, 49410, Note_on_c, 7, 57, 0
10, 49410, Note_on_c, 7, 60, 55
10, 49425, Note_on_c, 7, 60, 0
10, 49425, Note_on_c, 7, 57, 51
10, 49440, Note_on_c, 7, 57, 0
10, 49455, Note_on_c, 7, 55, 47
10, 49470, Note_on_c, 7, 60, 47
10, 49471, Note_on_c, 7, 55, 0
10, 49485, Note_on_c, 7, 60, 0
10, 49485, Note_on_c, 7, 55, 47
10, 49500, Note_on_c, 7, 55, 0
10, 49515, Note_on_c, 7, 55, 47
10, 49530, Note_on_c, 7, 55, 0
10, 49530, Note_on_c, 7, 60, 47
10, 49545, Note_on_c, 7, 60, 0
10, 49545, Note_on_c, 7, 55, 47
10, 49560, Note_on_c, 7, 55, 0
10, 49575, Note_on_c, 7, 55, 47
10, 49590, Note_on_c, 7, 55, 0
10, 49590, Note_on_c, 7, 62, 47
10, 49605, Note_on_c, 7, 62, 0
10, 49605, Note_on_c, 7, 55, 47
10, 49620, Note_on_c, 7, 55, 0
10, 49635, Note_on_c, 7, 55, 47
10, 49650, Note_on_c, 7, 55, 0
10, 49650, Note_on_c, 7, 62, 47
10, 49665, Note_on_c, 7, 55, 47
10, 49668, Note_on_c, 7, 62, 0
10, 49680, Note_on_c, 7, 55, 0
10, 49695, Note_on_c, 7, 55, 46
10, 49710, Note_on_c, 7, 55, 0
10, 49710, Note_on_c, 7, 56, 46
10, 49725, Note_on_c, 7, 56, 0
10, 49725, Note_on_c, 7, 55, 46
10, 49740, Note_on_c, 7, 56, 46
10, 49742, Note_on_c, 7, 55, 0
10, 49755, Note_on_c, 7, 56, 0
10, 49755, Note_on_c, 7, 55, 46
10, 49770, Note_on_c, 7, 56, 46
10, 49771, Note_on_c, 7, 55, 0
10, 49785, Note_on_c, 7, 55, 46
10, 49786, Note_on_c, 7, 56, 0
10, 49800, Note_on_c, 7, 56, 46
10, 49802, Note_on_c, 7, 55, 0
10, 49815, Note_on_c, 7, 56, 0
10, 49815, Note_on_c, 7, 55, 46
10, 49830, Note_on_c, 7, 56, 46
10, 49831, Note_on_c, 7, 55, 0
10, 49845, Note_on_c, 7, 55, 46
10, 49846, Note_on_c, 7, 56, 0
10, 49860, Note_on_c, 7, 56, 46
10, 49861, Note_on_c, 7, 55, 0
10, 49875, Note_on_c, 7, 55, 46
10, 49876, Note_on_c, 7, 56, 0
10, 49890, Note_on_c, 7, 56, 46
10, 49892, Note_on_c, 7, 55, 0
10, 49905, Note_on_c, 7, 56, 0
10, 49905, Note_on_c, 7, 55, 46
10, 49920, Note_on_c, 7, 55, 0
10, 49935, Note_on_c, 7, 55, 48
10, 49950, Note_on_c, 7, 55, 0
10, 49950, Note_on_c, 7, 60, 51
10, 49965, Note_on_c, 7, 55, 54
10, 49966, Note_on_c, 7, 60, 0
10, 49980, Note_on_c, 7, 55, 0
10, 49995, Note_on_c, 7, 55, 60
10, 50010, Note_on_c, 7, 55, 0
10, 50010, Note_on_c, 7, 60, 63
10, 50025, Note_on_c, 7, 55, 66
10, 50026, Note_on_c, 7, 60, 0
10, 50040, Note_on_c, 7, 55, 0
10, 50055, Note_on_c, 7, 55, 72
10, 50070, Note_on_c, 7, 62, 75
10, 50071, Note_on_c, 7, 55, 0
10, 50085, Note_on_c, 7, 55, 78
10, 50086, Note_on_c, 7, 62, 0
10, 50101, Note_on_c, 7, 55, 0
10, 50115, Note_on_c, 7, 55, 84
10, 50130, Note_on_c, 7, 62, 87
10, 50131, Note_on_c, 7, 55, 0
10, 50145, Note_on_c, 7, 55, 90
10, 50147, Note_on_c, 7, 62, 0
10, 50160, Note_on_c, 7, 56, 93
10, 50161, Note_on_c, 7, 55, 0
10, 50220, Note_on_c, 7, 56, 0
10, 51180, Note_on_c, 7, 56, 31
10, 51210, Note_on_c, 7, 56, 0
10, 51240, Note_on_c, 7, 48, 31
10, 51270, Note_on_c, 7, 48, 0
10, 51300, Note_on_c, 7, 56, 31
10, 51330, Note_on_c, 7, 56, 0
10, 51360, Note_on_c, 7, 48, 31
10, 51390, Note_on_c, 7, 48, 0
10, 51420, Note_on_c, 7, 56, 31
10, 51450, Note_on_c, 7, 56, 0
10, 51480, Note_on_c, 7, 48, 31
10, 51510, Note_on_c, 7, 48, 0
10, 51540, Note_on_c, 7, 56, 31
10, 51570, Note_on_c, 7, 56, 0
10, 51600, Note_on_c, 7, 49, 31
10, 51630, Note_on_c, 7, 49, 0
10, 51660, Note_on_c, 7, 56, 31
10, 51690, Note_on_c, 7, 56, 0
10, 51720, Note_on_c, 7, 49, 31
10, 51750, Note_on_c, 7, 49, 0
10, 51784, Note_on_c, 7, 56, 31
10, 51814, Note_on_c, 7, 56, 0
10, 51840, Note_on_c, 7, 48, 31
10, 51870, Note_on_c, 7, 48, 0
10, 51900, Note_on_c, 7, 56, 31
10, 51930, Note_on_c, 7, 56, 0
10, 51960, Note_on_c, 7, 48, 31
10, 51990, Note_on_c, 7, 48, 0
10, 52020, Note_on_c, 7, 56, 31
10, 52050, Note_on_c, 7, 56, 0
10, 52080, Note_on_c, 7, 49, 31
10, 52110, Note_on_c, 7, 49, 0
10, 52140, Note_on_c, 7, 56, 31
10, 52170, Note_on_c, 7, 56, 0
10, 52200, Note_on_c, 7, 49, 31
10, 52230, Note_on_c, 7, 49, 0
10, 52260, Note_on_c, 7, 56, 31
10, 52290, Note_on_c, 7, 56, 0
10, 52380, Note_on_c, 7, 56, 31
10, 52440, Note_on_c, 7, 56, 0
10, 52495, Note_on_c, 7, 55, 31
10, 52555, Note_on_c, 7, 55, 0
10, 52560, Note_on_c, 7, 55, 31
10, 52620, Note_on_c, 7, 55, 0
10, 53520, Note_on_c, 7, 60, 31
10, 53640, Note_on_c, 7, 55, 31
10, 53641, Note_on_c, 7, 60, 0
10, 53700, Note_on_c, 7, 58, 31
10, 53701, Note_on_c, 7, 55, 0
10, 53760, Note_on_c, 7, 58, 0
10, 53760, Note_on_c, 7, 56, 31
10, 53880, Note_on_c, 7, 55, 31
10, 53881, Note_on_c, 7, 56, 0
10, 53940, Note_on_c, 7, 53, 31
10, 53941, Note_on_c, 7, 55, 0
10, 54000, Note_on_c, 7, 52, 32
10, 54001, Note_on_c, 7, 53, 0
10, 54120, Note_on_c, 7, 55, 33
10, 54126, Note_on_c, 7, 52, 0
10, 54180, Note_on_c, 7, 60, 34
10, 54181, Note_on_c, 7, 55, 0
10, 54240, Note_on_c, 7, 60, 0
10, 54240, Note_on_c, 7, 60, 36
10, 54360, Note_on_c, 7, 58, 38
10, 54361, Note_on_c, 7, 60, 0
10, 54420, Note_on_c, 7, 56, 40
10, 54421, Note_on_c, 7, 58, 0
10, 54480, Note_on_c, 7, 56, 0
10, 54480, Note_on_c, 7, 58, 41
10, 54540, Note_on_c, 7, 56, 42
10, 54541, Note_on_c, 7, 58, 0
10, 54600, Note_on_c, 7, 55, 44
10, 54601, Note_on_c, 7, 56, 0
10, 54660, Note_on_c, 7, 53, 45
10, 54661, Note_on_c, 7, 55, 0
10, 54720, Note_on_c, 7, 53, 0
10, 54720, Note_on_c, 7, 60, 47
10, 54960, Note_on_c, 7, 56, 48
10, 54961, Note_on_c, 7, 60, 0
10, 55020, Note_on_c, 7, 56, 0
10, 55200, Note_on_c, 7, 55, 47
10, 55260, Note_on_c, 7, 55, 0
10, 55440, Note_on_c, 7, 53, 47
10, 55680, Note_on_c, 7, 51, 47
10, 55683, Note_on_c, 7, 53, 0
10, 55740, Note_on_c, 7, 51, 0
10, 55920, Note_on_c, 7, 53, 47
10, 56160, Note_on_c, 7, 51, 47
10, 56162, Note_on_c, 7, 53, 0
10, 56220, Note_on_c, 7, 51, 0
10, 56400, Note_on_c, 7, 53, 47
10, 57060, Note_on_c, 7, 53, 0
10, 57060, Note_on_c, 7, 53, 47
10, 57120, Note_on_c, 7, 53, 0
10, 58980, Note_on_c, 7, 53, 31
10, 59008, Note_on_c, 7, 53, 0
10, 59010, Note_on_c, 7, 53, 31
10, 59038, Note_on_c, 7, 53, 0
10, 59040, Note_on_c, 7, 51, 31
10, 59100, Note_on_c, 7, 51, 0
10, 59160, Note_on_c, 7, 60, 97
10, 59160, Note_on_c, 7, 48, 97
10, 59220, Note_on_c, 7, 48, 0
10, 59220, Note_on_c, 7, 60, 0
10, 59280, Note_on_c, 7, 48, 52
10, 59998, Note_on_c, 7, 48, 0
10, 59998, End_track
11, 0, Start_track
11, 0, MIDI_port, 0
11, 0, Title_t, "Cello"
11, 0, Program_c, 7, 48
11, 240, Note_on_c, 7, 48, 32
11, 359, Note_on_c, 7, 48, 0
11, 480, Note_on_c, 7, 48, 32
11, 599, Note_on_c, 7, 48, 0
11, 720, Note_on_c, 7, 48, 32
11, 829, Note_on_c, 7, 48, 0
11, 840, Note_on_c, 7, 48, 32
11, 949, Note_on_c, 7, 48, 0
11, 960, Note_on_c, 7, 48, 32
11, 1080, Note_on_c, 7, 47, 32
11, 1089, Note_on_c, 7, 48, 0
11, 1139, Note_on_c, 7, 47, 0
11, 1200, Note_on_c, 7, 47, 32
11, 1319, Note_on_c, 7, 47, 0
11, 1440, Note_on_c, 7, 50, 64
11, 1614, Note_on_c, 7, 50, 0
11, 1620, Note_on_c, 7, 50, 40
11, 1679, Note_on_c, 7, 50, 0
11, 1680, Note_on_c, 7, 48, 32
11, 1734, Note_on_c, 7, 48, 0
11, 1740, Note_on_c, 7, 48, 32
11, 1794, Note_on_c, 7, 48, 0
11, 1800, Note_on_c, 7, 48, 32
11, 1860, Note_on_c, 7, 47, 32
11, 1864, Note_on_c, 7, 48, 0
11, 1905, Note_on_c, 7, 50, 32
11, 1906, Note_on_c, 7, 47, 0
11, 1919, Note_on_c, 7, 50, 0
11, 1920, Note_on_c, 7, 48, 32
11, 1979, Note_on_c, 7, 48, 0
11, 1980, Note_on_c, 7, 53, 32
11, 2019, Note_on_c, 7, 53, 0
11, 2025, Note_on_c, 7, 53, 32
11, 2034, Note_on_c, 7, 53, 0
11, 2040, Note_on_c, 7, 48, 32
11, 2099, Note_on_c, 7, 48, 0
11, 2130, Note_on_c, 7, 48, 32
11, 2137, Note_on_c, 7, 48, 0
11, 2140, Note_on_c, 7, 48, 32
11, 2147, Note_on_c, 7, 48, 0
11, 2150, Note_on_c, 7, 48, 32
11, 2157, Note_on_c, 7, 48, 0
11, 2160, Note_on_c, 7, 48, 32
11, 2219, Note_on_c, 7, 48, 0
11, 2370, Note_on_c, 7, 48, 32
11, 2377, Note_on_c, 7, 48, 0
11, 2380, Note_on_c, 7, 48, 32
11, 2387, Note_on_c, 7, 48, 0
11, 2390, Note_on_c, 7, 48, 32
11, 2397, Note_on_c, 7, 48, 0
11, 2400, Note_on_c, 7, 48, 32
11, 2459, Note_on_c, 7, 48, 0
11, 2610, Note_on_c, 7, 48, 32
11, 2617, Note_on_c, 7, 48, 0
11, 2620, Note_on_c, 7, 48, 32
11, 2627, Note_on_c, 7, 48, 0
11, 2630, Note_on_c, 7, 48, 32
11, 2637, Note_on_c, 7, 48, 0
11, 2640, Note_on_c, 7, 48, 32
11, 2699, Note_on_c, 7, 48, 0
11, 2730, Note_on_c, 7, 48, 32
11, 2737, Note_on_c, 7, 48, 0
11, 2740, Note_on_c, 7, 48, 32
11, 2747, Note_on_c, 7, 48, 0
11, 2750, Note_on_c, 7, 48, 32
11, 2757, Note_on_c, 7, 48, 0
11, 2760, Note_on_c, 7, 51, 32
11, 2819, Note_on_c, 7, 51, 0
11, 2850, Note_on_c, 7, 51, 32
11, 2857, Note_on_c, 7, 51, 0
11, 2860, Note_on_c, 7, 51, 32
11, 2867, Note_on_c, 7, 51, 0
11, 2870, Note_on_c, 7, 51, 32
11, 2877, Note_on_c, 7, 51, 0
11, 2880, Note_on_c, 7, 55, 32
11, 2939, Note_on_c, 7, 55, 0
11, 2970, Note_on_c, 7, 55, 32
11, 2977, Note_on_c, 7, 55, 0
11, 2980, Note_on_c, 7, 55, 36
11, 2987, Note_on_c, 7, 55, 0
11, 2990, Note_on_c, 7, 55, 40
11, 2997, Note_on_c, 7, 55, 0
11, 3000, Note_on_c, 7, 55, 36
11, 3059, Note_on_c, 7, 55, 0
11, 3090, Note_on_c, 7, 55, 32
11, 3097, Note_on_c, 7, 55, 0
11, 3100, Note_on_c, 7, 55, 32
11, 3107, Note_on_c, 7, 55, 0
11, 3110, Note_on_c, 7, 55, 32
11, 3117, Note_on_c, 7, 55, 0
11, 3120, Note_on_c, 7, 53, 32
11, 3179, Note_on_c, 7, 53, 0
11, 3330, Note_on_c, 7, 47, 32
11, 3337, Note_on_c, 7, 47, 0
11, 3340, Note_on_c, 7, 47, 32
11, 3347, Note_on_c, 7, 47, 0
11, 3350, Note_on_c, 7, 47, 32
11, 3357, Note_on_c, 7, 47, 0
11, 3360, Note_on_c, 7, 47, 32
11, 3419, Note_on_c, 7, 47, 0
11, 3570, Note_on_c, 7, 47, 32
11, 3577, Note_on_c, 7, 47, 0
11, 3580, Note_on_c, 7, 47, 32
11, 3587, Note_on_c, 7, 47, 0
11, 3590, Note_on_c, 7, 47, 32
11, 3597, Note_on_c, 7, 47, 0
11, 3600, Note_on_c, 7, 46, 32
11, 3659, Note_on_c, 7, 46, 0
11, 3690, Note_on_c, 7, 46, 32
11, 3697, Note_on_c, 7, 46, 0
11, 3700, Note_on_c, 7, 46, 32
11, 3707, Note_on_c, 7, 46, 0
11, 3710, Note_on_c, 7, 46, 32
11, 3717, Note_on_c, 7, 46, 0
11, 3720, Note_on_c, 7, 46, 32
11, 3779, Note_on_c, 7, 46, 0
11, 3810, Note_on_c, 7, 46, 32
11, 3817, Note_on_c, 7, 46, 0
11, 3820, Note_on_c, 7, 46, 32
11, 3827, Note_on_c, 7, 46, 0
11, 3830, Note_on_c, 7, 46, 32
11, 3837, Note_on_c, 7, 46, 0
11, 3840, Note_on_c, 7, 51, 48
11, 3899, Note_on_c, 7, 51, 0
11, 4080, Note_on_c, 7, 46, 48
11, 4189, Note_on_c, 7, 46, 0
11, 4200, Note_on_c, 7, 46, 48
11, 4254, Note_on_c, 7, 46, 0
11, 4260, Note_on_c, 7, 46, 48
11, 4314, Note_on_c, 7, 46, 0
11, 4320, Note_on_c, 7, 46, 48
11, 4379, Note_on_c, 7, 46, 0
11, 4560, Note_on_c, 7, 48, 80
11, 4680, Note_on_c, 7, 46, 88
11, 4689, Note_on_c, 7, 48, 0
11, 4740, Note_on_c, 7, 44, 92
11, 4749, Note_on_c, 7, 46, 0
11, 4799, Note_on_c, 7, 44, 0
11, 4800, Note_on_c, 7, 43, 92
11, 4859, Note_on_c, 7, 43, 0
11, 4905, Note_on_c, 7, 52, 96
11, 4914, Note_on_c, 7, 52, 0
11, 4920, Note_on_c, 7, 52, 96
11, 5039, Note_on_c, 7, 52, 0
11, 5160, Note_on_c, 7, 53, 48
11, 5220, Note_on_c, 7, 55, 48
11, 5229, Note_on_c, 7, 53, 0
11, 5279, Note_on_c, 7, 55, 0
11, 5280, Note_on_c, 7, 56, 48
11, 5399, Note_on_c, 7, 56, 0
11, 5400, Note_on_c, 7, 56, 96
11, 5520, Note_on_c, 7, 55, 48
11, 5529, Note_on_c, 7, 56, 0
11, 5640, Note_on_c, 7, 50, 48
11, 5649, Note_on_c, 7, 55, 0
11, 5700, Note_on_c, 7, 53, 48
11, 5709, Note_on_c, 7, 50, 0
11, 5760, Note_on_c, 7, 51, 48
11, 5769, Note_on_c, 7, 53, 0
11, 5880, Note_on_c, 7, 50, 48
11, 5889, Note_on_c, 7, 51, 0
11, 5940, Note_on_c, 7, 48, 48
11, 5949, Note_on_c, 7, 50, 0
11, 5999, Note_on_c, 7, 48, 0
11, 6000, Note_on_c, 7, 47, 48
11, 6179, Note_on_c, 7, 47, 0
11, 6180, Note_on_c, 7, 50, 52
11, 6240, Note_on_c, 7, 48, 56
11, 6249, Note_on_c, 7, 50, 0
11, 6360, Note_on_c, 7, 46, 52
11, 6369, Note_on_c, 7, 48, 0
11, 6420, Note_on_c, 7, 44, 52
11, 6429, Note_on_c, 7, 46, 0
11, 6479, Note_on_c, 7, 44, 0
11, 6480, Note_on_c, 7, 43, 48
11, 6540, Note_on_c, 7, 44, 48
11, 6549, Note_on_c, 7, 43, 0
11, 6600, Note_on_c, 7, 43, 48
11, 6609, Note_on_c, 7, 44, 0
11, 6660, Note_on_c, 7, 48, 48
11, 6669, Note_on_c, 7, 43, 0
11, 6720, Note_on_c, 7, 47, 48
11, 6729, Note_on_c, 7, 48, 0
11, 6780, Note_on_c, 7, 51, 48
11, 6789, Note_on_c, 7, 47, 0
11, 6840, Note_on_c, 7, 50, 48
11, 6849, Note_on_c, 7, 51, 0
11, 6900, Note_on_c, 7, 48, 48
11, 6909, Note_on_c, 7, 50, 0
11, 6959, Note_on_c, 7, 48, 0
11, 6960, Note_on_c, 7, 47, 48
11, 7080, Note_on_c, 7, 44, 48
11, 7089, Note_on_c, 7, 47, 0
11, 7200, Note_on_c, 7, 43, 48
11, 7209, Note_on_c, 7, 44, 0
11, 7319, Note_on_c, 7, 43, 0
11, 7320, Note_on_c, 7, 36, 96
11, 7320, Note_on_c, 7, 43, 96
11, 7439, Note_on_c, 7, 43, 0
11, 7439, Note_on_c, 7, 36, 0
11, 7440, Note_on_c, 7, 41, 48
11, 7559, Note_on_c, 7, 41, 0
11, 7650, Note_on_c, 7, 53, 48
11, 7665, Note_on_c, 7, 51, 48
11, 7666, Note_on_c, 7, 53, 0
11, 7680, Note_on_c, 7, 49, 48
11, 7681, Note_on_c, 7, 51, 0
11, 7799, Note_on_c, 7, 49, 0
11, 7890, Note_on_c, 7, 49, 48
11, 7905, Note_on_c, 7, 48, 48
11, 7906, Note_on_c, 7, 49, 0
11, 7920, Note_on_c, 7, 47, 52
11, 7921, Note_on_c, 7, 48, 0
11, 7979, Note_on_c, 7, 47, 0
11, 8010, Note_on_c, 7, 47, 68
11, 8017, Note_on_c, 7, 47, 0
11, 8020, Note_on_c, 7, 47, 68
11, 8027, Note_on_c, 7, 47, 0
11, 8030, Note_on_c, 7, 47, 68
11, 8037, Note_on_c, 7, 47, 0
11, 8040, Note_on_c, 7, 53, 72
11, 8099, Note_on_c, 7, 53, 0
11, 8130, Note_on_c, 7, 53, 92
11, 8137, Note_on_c, 7, 53, 0
11, 8140, Note_on_c, 7, 53, 92
11, 8147, Note_on_c, 7, 53, 0
11, 8150, Note_on_c, 7, 53, 92
11, 8157, Note_on_c, 7, 53, 0
11, 8160, Note_on_c, 7, 51, 96
11, 8189, Note_on_c, 7, 51, 0
11, 8220, Note_on_c, 7, 53, 96
11, 8249, Note_on_c, 7, 53, 0
11, 8340, Note_on_c, 7, 51, 48
11, 8459, Note_on_c, 7, 51, 0
11, 8460, Note_on_c, 7, 48, 96
11, 8580, Note_on_c, 7, 47, 56
11, 8589, Note_on_c, 7, 48, 0
11, 8639, Note_on_c, 7, 47, 0
11, 8640, Note_on_c, 7, 48, 48
11, 8669, Note_on_c, 7, 48, 0
11, 8700, Note_on_c, 7, 56, 48
11, 8722, Note_on_c, 7, 56, 0
11, 8745, Note_on_c, 7, 56, 48
11, 8752, Note_on_c, 7, 56, 0
11, 8760, Note_on_c, 7, 50, 48
11, 8789, Note_on_c, 7, 50, 0
11, 8820, Note_on_c, 7, 58, 48
11, 8842, Note_on_c, 7, 58, 0
11, 8865, Note_on_c, 7, 58, 48
11, 8872, Note_on_c, 7, 58, 0
11, 8880, Note_on_c, 7, 51, 48
11, 8939, Note_on_c, 7, 51, 0
11, 9090, Note_on_c, 7, 51, 48
11, 9097, Note_on_c, 7, 51, 0
11, 9100, Note_on_c, 7, 51, 48
11, 9107, Note_on_c, 7, 51, 0
11, 9110, Note_on_c, 7, 51, 48
11, 9117, Note_on_c, 7, 51, 0
11, 9120, Note_on_c, 7, 46, 48
11, 9179, Note_on_c, 7, 46, 0
11, 9330, Note_on_c, 7, 46, 67
11, 9337, Note_on_c, 7, 46, 0
11, 9340, Note_on_c, 7, 46, 72
11, 9347, Note_on_c, 7, 46, 0
11, 9350, Note_on_c, 7, 46, 76
11, 9357, Note_on_c, 7, 46, 0
11, 9360, Note_on_c, 7, 48, 80
11, 9419, Note_on_c, 7, 48, 0
11, 9450, Note_on_c, 7, 48, 84
11, 9457, Note_on_c, 7, 48, 0
11, 9460, Note_on_c, 7, 48, 84
11, 9467, Note_on_c, 7, 48, 0
11, 9470, Note_on_c, 7, 48, 84
11, 9477, Note_on_c, 7, 48, 0
11, 9480, Note_on_c, 7, 46, 88
11, 9539, Note_on_c, 7, 46, 0
11, 9570, Note_on_c, 7, 44, 88
11, 9577, Note_on_c, 7, 44, 0
11, 9580, Note_on_c, 7, 44, 88
11, 9587, Note_on_c, 7, 44, 0
11, 9590, Note_on_c, 7, 44, 88
11, 9597, Note_on_c, 7, 44, 0
11, 9600, Note_on_c, 7, 43, 92
11, 9659, Note_on_c, 7, 43, 0
11, 9690, Note_on_c, 7, 52, 96
11, 9697, Note_on_c, 7, 52, 0
11, 9700, Note_on_c, 7, 52, 96
11, 9707, Note_on_c, 7, 52, 0
11, 9710, Note_on_c, 7, 52, 96
11, 9717, Note_on_c, 7, 52, 0
11, 9720, Note_on_c, 7, 52, 96
11, 9779, Note_on_c, 7, 52, 0
11, 9810, Note_on_c, 7, 52, 96
11, 9817, Note_on_c, 7, 52, 0
11, 9820, Note_on_c, 7, 52, 96
11, 9827, Note_on_c, 7, 52, 0
11, 9830, Note_on_c, 7, 52, 96
11, 9837, Note_on_c, 7, 52, 0
11, 9840, Note_on_c, 7, 52, 48
11, 9899, Note_on_c, 7, 52, 0
11, 9930, Note_on_c, 7, 52, 48
11, 9937, Note_on_c, 7, 52, 0
11, 9940, Note_on_c, 7, 52, 48
11, 9947, Note_on_c, 7, 52, 0
11, 9950, Note_on_c, 7, 52, 48
11, 9957, Note_on_c, 7, 52, 0
11, 9960, Note_on_c, 7, 53, 48
11, 10019, Note_on_c, 7, 53, 0
11, 10050, Note_on_c, 7, 55, 48
11, 10057, Note_on_c, 7, 55, 0
11, 10060, Note_on_c, 7, 55, 48
11, 10067, Note_on_c, 7, 55, 0
11, 10070, Note_on_c, 7, 55, 48
11, 10077, Note_on_c, 7, 55, 0
11, 10080, Note_on_c, 7, 56, 48
11, 10139, Note_on_c, 7, 56, 0
11, 10170, Note_on_c, 7, 44, 48
11, 10177, Note_on_c, 7, 44, 0
11, 10180, Note_on_c, 7, 44, 48
11, 10187, Note_on_c, 7, 44, 0
11, 10190, Note_on_c, 7, 44, 48
11, 10197, Note_on_c, 7, 44, 0
11, 10200, Note_on_c, 7, 44, 56
11, 10259, Note_on_c, 7, 44, 0
11, 10290, Note_on_c, 7, 44, 48
11, 10297, Note_on_c, 7, 44, 0
11, 10300, Note_on_c, 7, 44, 48
11, 10307, Note_on_c, 7, 44, 0
11, 10310, Note_on_c, 7, 44, 48
11, 10317, Note_on_c, 7, 44, 0
11, 10320, Note_on_c, 7, 43, 48
11, 10379, Note_on_c, 7, 43, 0
11, 10530, Note_on_c, 7, 43, 48
11, 10537, Note_on_c, 7, 43, 0
11, 10540, Note_on_c, 7, 43, 48
11, 10547, Note_on_c, 7, 43, 0
11, 10550, Note_on_c, 7, 43, 48
11, 10557, Note_on_c, 7, 43, 0
11, 10560, Note_on_c, 7, 43, 48
11, 10619, Note_on_c, 7, 43, 0
11, 10770, Note_on_c, 7, 43, 48
11, 10777, Note_on_c, 7, 43, 0
11, 10780, Note_on_c, 7, 43, 48
11, 10787, Note_on_c, 7, 43, 0
11, 10790, Note_on_c, 7, 43, 48
11, 10797, Note_on_c, 7, 43, 0
11, 10800, Note_on_c, 7, 43, 48
11, 10859, Note_on_c, 7, 43, 0
11, 11010, Note_on_c, 7, 43, 48
11, 11017, Note_on_c, 7, 43, 0
11, 11020, Note_on_c, 7, 43, 52
11, 11027, Note_on_c, 7, 43, 0
11, 11030, Note_on_c, 7, 43, 52
11, 11037, Note_on_c, 7, 43, 0
11, 11040, Note_on_c, 7, 43, 56
11, 11099, Note_on_c, 7, 43, 0
11, 11130, Note_on_c, 7, 43, 54
11, 11137, Note_on_c, 7, 43, 0
11, 11140, Note_on_c, 7, 43, 54
11, 11147, Note_on_c, 7, 43, 0
11, 11150, Note_on_c, 7, 43, 54
11, 11157, Note_on_c, 7, 43, 0
11, 11160, Note_on_c, 7, 43, 52
11, 11219, Note_on_c, 7, 43, 0
11, 11250, Note_on_c, 7, 43, 50
11, 11257, Note_on_c, 7, 43, 0
11, 11260, Note_on_c, 7, 43, 50
11, 11267, Note_on_c, 7, 43, 0
11, 11270, Note_on_c, 7, 43, 50
11, 11277, Note_on_c, 7, 43, 0
11, 11280, Note_on_c, 7, 43, 48
11, 11339, Note_on_c, 7, 43, 0
11, 12210, Note_on_c, 7, 48, 96
11, 12217, Note_on_c, 7, 48, 0
11, 12220, Note_on_c, 7, 48, 96
11, 12227, Note_on_c, 7, 48, 0
11, 12230, Note_on_c, 7, 48, 96
11, 12237, Note_on_c, 7, 48, 0
11, 12240, Note_on_c, 7, 53, 48
11, 12299, Note_on_c, 7, 53, 0
11, 12450, Note_on_c, 7, 53, 48
11, 12457, Note_on_c, 7, 53, 0
11, 12460, Note_on_c, 7, 53, 48
11, 12467, Note_on_c, 7, 53, 0
11, 12470, Note_on_c, 7, 53, 48
11, 12477, Note_on_c, 7, 53, 0
11, 12480, Note_on_c, 7, 49, 48
11, 12539, Note_on_c, 7, 49, 0
11, 12690, Note_on_c, 7, 49, 48
11, 12697, Note_on_c, 7, 49, 0
11, 12700, Note_on_c, 7, 49, 48
11, 12707, Note_on_c, 7, 49, 0
11, 12710, Note_on_c, 7, 49, 48
11, 12717, Note_on_c, 7, 49, 0
11, 12720, Note_on_c, 7, 47, 48
11, 12779, Note_on_c, 7, 47, 0
11, 12810, Note_on_c, 7, 47, 68
11, 12817, Note_on_c, 7, 47, 0
11, 12820, Note_on_c, 7, 47, 68
11, 12827, Note_on_c, 7, 47, 0
11, 12830, Note_on_c, 7, 47, 68
11, 12837, Note_on_c, 7, 47, 0
11, 12840, Note_on_c, 7, 53, 72
11, 12899, Note_on_c, 7, 53, 0
11, 12930, Note_on_c, 7, 53, 92
11, 12937, Note_on_c, 7, 53, 0
11, 12940, Note_on_c, 7, 53, 92
11, 12947, Note_on_c, 7, 53, 0
11, 12950, Note_on_c, 7, 53, 92
11, 12957, Note_on_c, 7, 53, 0
11, 12960, Note_on_c, 7, 51, 96
11, 12989, Note_on_c, 7, 51, 0
11, 13020, Note_on_c, 7, 53, 96
11, 13049, Note_on_c, 7, 53, 0
11, 13170, Note_on_c, 7, 56, 48
11, 13177, Note_on_c, 7, 56, 0
11, 13180, Note_on_c, 7, 56, 48
11, 13187, Note_on_c, 7, 56, 0
11, 13190, Note_on_c, 7, 56, 48
11, 13197, Note_on_c, 7, 56, 0
11, 13200, Note_on_c, 7, 56, 48
11, 13259, Note_on_c, 7, 56, 0
11, 13290, Note_on_c, 7, 55, 52
11, 13297, Note_on_c, 7, 55, 0
11, 13300, Note_on_c, 7, 55, 52
11, 13307, Note_on_c, 7, 55, 0
11, 13310, Note_on_c, 7, 55, 52
11, 13317, Note_on_c, 7, 55, 0
11, 13320, Note_on_c, 7, 55, 56
11, 13379, Note_on_c, 7, 55, 0
11, 13410, Note_on_c, 7, 43, 52
11, 13417, Note_on_c, 7, 43, 0
11, 13420, Note_on_c, 7, 43, 52
11, 13427, Note_on_c, 7, 43, 0
11, 13430, Note_on_c, 7, 43, 52
11, 13437, Note_on_c, 7, 43, 0
11, 13440, Note_on_c, 7, 48, 48
11, 13469, Note_on_c, 7, 48, 0
11, 13530, Note_on_c, 7, 48, 48
11, 13537, Note_on_c, 7, 48, 0
11, 13537, Note_on_c, 7, 50, 48
11, 13545, Note_on_c, 7, 50, 0
11, 13545, Note_on_c, 7, 51, 48
11, 13552, Note_on_c, 7, 51, 0
11, 13552, Note_on_c, 7, 53, 48
11, 13560, Note_on_c, 7, 53, 0
11, 13560, Note_on_c, 7, 55, 48
11, 13589, Note_on_c, 7, 55, 0
11, 13650, Note_on_c, 7, 55, 48
11, 13660, Note_on_c, 7, 57, 48
11, 13661, Note_on_c, 7, 55, 0
11, 13670, Note_on_c, 7, 59, 48
11, 13671, Note_on_c, 7, 57, 0
11, 13679, Note_on_c, 7, 59, 0
11, 13680, Note_on_c, 7, 60, 48
11, 13740, Note_on_c, 7, 55, 48
11, 13749, Note_on_c, 7, 60, 0
11, 13800, Note_on_c, 7, 51, 48
11, 13809, Note_on_c, 7, 55, 0
11, 13860, Note_on_c, 7, 48, 48
11, 13869, Note_on_c, 7, 51, 0
11, 13919, Note_on_c, 7, 48, 0
11, 13920, Note_on_c, 7, 47, 48
11, 13980, Note_on_c, 7, 43, 48
11, 13989, Note_on_c, 7, 47, 0
11, 14040, Note_on_c, 7, 48, 96
11, 14049, Note_on_c, 7, 43, 0
11, 14100, Note_on_c, 7, 51, 48
11, 14109, Note_on_c, 7, 48, 0
11, 14159, Note_on_c, 7, 51, 0
11, 14160, Note_on_c, 7, 55, 48
11, 14280, Note_on_c, 7, 43, 48
11, 14289, Note_on_c, 7, 55, 0
11, 14309, Note_on_c, 7, 43, 0
11, 14850, Note_on_c, 7, 54, 48
11, 14857, Note_on_c, 7, 54, 0
11, 14860, Note_on_c, 7, 54, 48
11, 14867, Note_on_c, 7, 54, 0
11, 14870, Note_on_c, 7, 54, 48
11, 14877, Note_on_c, 7, 54, 0
11, 14880, Note_on_c, 7, 55, 48
11, 14939, Note_on_c, 7, 55, 0
11, 14970, Note_on_c, 7, 55, 48
11, 14977, Note_on_c, 7, 55, 0
11, 14980, Note_on_c, 7, 55, 48
11, 14987, Note_on_c, 7, 55, 0
11, 14990, Note_on_c, 7, 55, 48
11, 14997, Note_on_c, 7, 55, 0
11, 15000, Note_on_c, 7, 43, 48
11, 15059, Note_on_c, 7, 43, 0
11, 15090, Note_on_c, 7, 43, 48
11, 15097, Note_on_c, 7, 43, 0
11, 15100, Note_on_c, 7, 43, 48
11, 15107, Note_on_c, 7, 43, 0
11, 15110, Note_on_c, 7, 43, 48
11, 15117, Note_on_c, 7, 43, 0
11, 15120, Note_on_c, 7, 48, 48
11, 15179, Note_on_c, 7, 48, 0
11, 15360, Note_on_c, 7, 55, 48
11, 15419, Note_on_c, 7, 55, 0
11, 15450, Note_on_c, 7, 55, 48
11, 15457, Note_on_c, 7, 55, 0
11, 15460, Note_on_c, 7, 55, 48
11, 15467, Note_on_c, 7, 55, 0
11, 15470, Note_on_c, 7, 55, 48
11, 15477, Note_on_c, 7, 55, 0
11, 15480, Note_on_c, 7, 43, 48
11, 15539, Note_on_c, 7, 43, 0
11, 15570, Note_on_c, 7, 43, 48
11, 15577, Note_on_c, 7, 43, 0
11, 15580, Note_on_c, 7, 43, 48
11, 15587, Note_on_c, 7, 43, 0
11, 15590, Note_on_c, 7, 43, 48
11, 15597, Note_on_c, 7, 43, 0
11, 15600, Note_on_c, 7, 48, 48
11, 15659, Note_on_c, 7, 48, 0
11, 15660, Note_on_c, 7, 56, 96
11, 15720, Note_on_c, 7, 55, 48
11, 15729, Note_on_c, 7, 56, 0
11, 15780, Note_on_c, 7, 51, 96
11, 15789, Note_on_c, 7, 55, 0
11, 15840, Note_on_c, 7, 48, 64
11, 15849, Note_on_c, 7, 51, 0
11, 15899, Note_on_c, 7, 48, 0
11, 15900, Note_on_c, 7, 44, 96
11, 15944, Note_on_c, 7, 44, 0
11, 15945, Note_on_c, 7, 53, 96
11, 15959, Note_on_c, 7, 53, 0
11, 15960, Note_on_c, 7, 50, 96
11, 15989, Note_on_c, 7, 50, 0
11, 16020, Note_on_c, 7, 55, 96
11, 16049, Note_on_c, 7, 55, 0
11, 16080, Note_on_c, 7, 48, 48
11, 16109, Note_on_c, 7, 48, 0
11, 16200, Note_on_c, 7, 48, 48
11, 16229, Note_on_c, 7, 48, 0
11, 16320, Note_on_c, 7, 48, 48
11, 16349, Note_on_c, 7, 48, 0
11, 16380, Note_on_c, 7, 43, 48
11, 16409, Note_on_c, 7, 43, 0
11, 16440, Note_on_c, 7, 45, 48
11, 16469, Note_on_c, 7, 45, 0
11, 16500, Note_on_c, 7, 47, 48
11, 16529, Note_on_c, 7, 47, 0
11, 16560, Note_on_c, 7, 48, 48
11, 16854, Note_on_c, 7, 48, 0
11, 16860, Note_on_c, 7, 48, 48
11, 16889, Note_on_c, 7, 48, 0
11, 16920, Note_on_c, 7, 50, 48
11, 16949, Note_on_c, 7, 50, 0
11, 16980, Note_on_c, 7, 52, 48
11, 17009, Note_on_c, 7, 52, 0
11, 17040, Note_on_c, 7, 53, 48
11, 17339, Note_on_c, 7, 53, 0
11, 17340, Note_on_c, 7, 50, 48
11, 17369, Note_on_c, 7, 50, 0
11, 17400, Note_on_c, 7, 52, 48
11, 17429, Note_on_c, 7, 52, 0
11, 17460, Note_on_c, 7, 53, 48
11, 17489, Note_on_c, 7, 53, 0
11, 17520, Note_on_c, 7, 55, 48
11, 17759, Note_on_c, 7, 55, 0
11, 17760, Note_on_c, 7, 56, 48
11, 17789, Note_on_c, 7, 56, 0
11, 17820, Note_on_c, 7, 62, 58
11, 17849, Note_on_c, 7, 62, 0
11, 17880, Note_on_c, 7, 59, 68
11, 17909, Note_on_c, 7, 59, 0
11, 17940, Note_on_c, 7, 56, 78
11, 17969, Note_on_c, 7, 56, 0
11, 18000, Note_on_c, 7, 57, 88
11, 18029, Note_on_c, 7, 57, 0
11, 18060, Note_on_c, 7, 48, 98
11, 18089, Note_on_c, 7, 48, 0
11, 18120, Note_on_c, 7, 50, 108
11, 18149, Note_on_c, 7, 50, 0
11, 18180, Note_on_c, 7, 50, 118
11, 18209, Note_on_c, 7, 50, 0
11, 18240, Note_on_c, 7, 43, 127
11, 18247, Note_on_c, 7, 43, 0
11, 18250, Note_on_c, 7, 43, 127
11, 18257, Note_on_c, 7, 43, 0
11, 18260, Note_on_c, 7, 43, 127
11, 18267, Note_on_c, 7, 43, 0
11, 18270, Note_on_c, 7, 43, 127
11, 18277, Note_on_c, 7, 43, 0
11, 18280, Note_on_c, 7, 43, 127
11, 18287, Note_on_c, 7, 43, 0
11, 18290, Note_on_c, 7, 43, 127
11, 18297, Note_on_c, 7, 43, 0
11, 18300, Note_on_c, 7, 43, 127
11, 18307, Note_on_c, 7, 43, 0
11, 18310, Note_on_c, 7, 43, 127
11, 18317, Note_on_c, 7, 43, 0
11, 18320, Note_on_c, 7, 43, 127
11, 18327, Note_on_c, 7, 43, 0
11, 18330, Note_on_c, 7, 43, 127
11, 18337, Note_on_c, 7, 43, 0
11, 18340, Note_on_c, 7, 43, 127
11, 18347, Note_on_c, 7, 43, 0
11, 18350, Note_on_c, 7, 43, 127
11, 18357, Note_on_c, 7, 43, 0
11, 18360, Note_on_c, 7, 43, 127
11, 18389, Note_on_c, 7, 43, 0
11, 18480, Note_on_c, 7, 55, 127
11, 18480, Note_on_c, 7, 43, 127
11, 18487, Note_on_c, 7, 43, 0
11, 18487, Note_on_c, 7, 55, 0
11, 18490, Note_on_c, 7, 55, 127
11, 18490, Note_on_c, 7, 43, 127
11, 18497, Note_on_c, 7, 43, 0
11, 18497, Note_on_c, 7, 55, 0
11, 18500, Note_on_c, 7, 55, 127
11, 18500, Note_on_c, 7, 43, 127
11, 18507, Note_on_c, 7, 43, 0
11, 18507, Note_on_c, 7, 55, 0
11, 18510, Note_on_c, 7, 55, 127
11, 18510, Note_on_c, 7, 43, 127
11, 18517, Note_on_c, 7, 43, 0
11, 18517, Note_on_c, 7, 55, 0
11, 18520, Note_on_c, 7, 55, 127
11, 18520, Note_on_c, 7, 43, 127
11, 18527, Note_on_c, 7, 43, 0
11, 18527, Note_on_c, 7, 55, 0
11, 18530, Note_on_c, 7, 55, 127
11, 18530, Note_on_c, 7, 43, 127
11, 18537, Note_on_c, 7, 43, 0
11, 18537, Note_on_c, 7, 55, 0
11, 18540, Note_on_c, 7, 55, 127
11, 18540, Note_on_c, 7, 43, 127
11, 18547, Note_on_c, 7, 43, 0
11, 18547, Note_on_c, 7, 55, 0
11, 18550, Note_on_c, 7, 55, 127
11, 18550, Note_on_c, 7, 43, 127
11, 18557, Note_on_c, 7, 43, 0
11, 18557, Note_on_c, 7, 55, 0
11, 18560, Note_on_c, 7, 55, 127
11, 18560, Note_on_c, 7, 43, 127
11, 18567, Note_on_c, 7, 43, 0
11, 18567, Note_on_c, 7, 55, 0
11, 18570, Note_on_c, 7, 55, 127
11, 18570, Note_on_c, 7, 43, 127
11, 18577, Note_on_c, 7, 43, 0
11, 18577, Note_on_c, 7, 55, 0
11, 18580, Note_on_c, 7, 55, 127
11, 18580, Note_on_c, 7, 43, 127
11, 18587, Note_on_c, 7, 43, 0
11, 18587, Note_on_c, 7, 55, 0
11, 18590, Note_on_c, 7, 55, 127
11, 18590, Note_on_c, 7, 43, 127
11, 18597, Note_on_c, 7, 43, 0
11, 18597, Note_on_c, 7, 55, 0
11, 18600, Note_on_c, 7, 55, 127
11, 18600, Note_on_c, 7, 43, 127
11, 18600, Note_on_c, 7, 43, 127
11, 18607, Note_on_c, 7, 43, 0
11, 18629, Note_on_c, 7, 43, 0
11, 18629, Note_on_c, 7, 55, 0
11, 18720, Note_on_c, 7, 43, 127
11, 18720, Note_on_c, 7, 55, 127
11, 18749, Note_on_c, 7, 55, 0
11, 18749, Note_on_c, 7, 43, 0
11, 18840, Note_on_c, 7, 55, 127
11, 18840, Note_on_c, 7, 43, 127
11, 18869, Note_on_c, 7, 43, 0
11, 18869, Note_on_c, 7, 55, 0
11, 18960, Note_on_c, 7, 43, 127
11, 18960, Note_on_c, 7, 55, 127
11, 18989, Note_on_c, 7, 55, 0
11, 18989, Note_on_c, 7, 43, 0
11, 19200, Note_on_c, 7, 58, 48
11, 19320, Note_on_c, 7, 55, 48
11, 19329, Note_on_c, 7, 58, 0
11, 19339, Note_on_c, 7, 55, 0
11, 19380, Note_on_c, 7, 52, 48
11, 19439, Note_on_c, 7, 52, 0
11, 19440, Note_on_c, 7, 48, 48
11, 19500, Note_on_c, 7, 52, 48
11, 19509, Note_on_c, 7, 48, 0
11, 19560, Note_on_c, 7, 55, 48
11, 19569, Note_on_c, 7, 52, 0
11, 19579, Note_on_c, 7, 55, 0
11, 19620, Note_on_c, 7, 58, 48
11, 19639, Note_on_c, 7, 58, 0
11, 19680, Note_on_c, 7, 57, 48
11, 19719, Note_on_c, 7, 57, 0
11, 19740, Note_on_c, 7, 53, 56
11, 19800, Note_on_c, 7, 52, 64
11, 19809, Note_on_c, 7, 53, 0
11, 19860, Note_on_c, 7, 58, 72
11, 19869, Note_on_c, 7, 52, 0
11, 19879, Note_on_c, 7, 58, 0
11, 19920, Note_on_c, 7, 57, 80
11, 19939, Note_on_c, 7, 57, 0
11, 19980, Note_on_c, 7, 53, 88
11, 20040, Note_on_c, 7, 52, 96
11, 20049, Note_on_c, 7, 53, 0
11, 20100, Note_on_c, 7, 58, 104
11, 20109, Note_on_c, 7, 52, 0
11, 20119, Note_on_c, 7, 58, 0
11, 20160, Note_on_c, 7, 57, 48
11, 20189, Note_on_c, 7, 57, 0
11, 20220, Note_on_c, 7, 49, 48
11, 20249, Note_on_c, 7, 49, 0
11, 20280, Note_on_c, 7, 50, 48
11, 20309, Note_on_c, 7, 50, 0
11, 20340, Note_on_c, 7, 52, 48
11, 20369, Note_on_c, 7, 52, 0
11, 20400, Note_on_c, 7, 53, 48
11, 20429, Note_on_c, 7, 53, 0
11, 20460, Note_on_c, 7, 52, 48
11, 20489, Note_on_c, 7, 52, 0
11, 20520, Note_on_c, 7, 53, 48
11, 20549, Note_on_c, 7, 53, 0
11, 20580, Note_on_c, 7, 54, 48
11, 20609, Note_on_c, 7, 54, 0
11, 20640, Note_on_c, 7, 55, 48
11, 20659, Note_on_c, 7, 55, 0
11, 20700, Note_on_c, 7, 53, 48
11, 20729, Note_on_c, 7, 53, 0
11, 20760, Note_on_c, 7, 52, 48
11, 20789, Note_on_c, 7, 52, 0
11, 20820, Note_on_c, 7, 48, 48
11, 20849, Note_on_c, 7, 48, 0
11, 20880, Note_on_c, 7, 55, 48
11, 20899, Note_on_c, 7, 55, 0
11, 20940, Note_on_c, 7, 53, 48
11, 20969, Note_on_c, 7, 53, 0
11, 21000, Note_on_c, 7, 52, 48
11, 21029, Note_on_c, 7, 52, 0
11, 21060, Note_on_c, 7, 48, 48
11, 21089, Note_on_c, 7, 48, 0
11, 21120, Note_on_c, 7, 43, 48
11, 21179, Note_on_c, 7, 43, 0
11, 21300, Note_on_c, 7, 67, 48
11, 21309, Note_on_c, 7, 67, 0
11, 21320, Note_on_c, 7, 66, 48
11, 21329, Note_on_c, 7, 66, 0
11, 21340, Note_on_c, 7, 67, 48
11, 21349, Note_on_c, 7, 67, 0
11, 21360, Note_on_c, 7, 65, 48
11, 21369, Note_on_c, 7, 65, 0
11, 21380, Note_on_c, 7, 64, 48
11, 21389, Note_on_c, 7, 64, 0
11, 21400, Note_on_c, 7, 65, 48
11, 21409, Note_on_c, 7, 65, 0
11, 21420, Note_on_c, 7, 62, 48
11, 21429, Note_on_c, 7, 62, 0
11, 21440, Note_on_c, 7, 61, 48
11, 21449, Note_on_c, 7, 61, 0
11, 21460, Note_on_c, 7, 62, 48
11, 21469, Note_on_c, 7, 62, 0
11, 21480, Note_on_c, 7, 59, 48
11, 21489, Note_on_c, 7, 59, 0
11, 21500, Note_on_c, 7, 58, 48
11, 21509, Note_on_c, 7, 58, 0
11, 21520, Note_on_c, 7, 59, 48
11, 21529, Note_on_c, 7, 59, 0
11, 21540, Note_on_c, 7, 53, 48
11, 21549, Note_on_c, 7, 53, 0
11, 21560, Note_on_c, 7, 52, 48
11, 21569, Note_on_c, 7, 52, 0
11, 21580, Note_on_c, 7, 53, 48
11, 21589, Note_on_c, 7, 53, 0
11, 21600, Note_on_c, 7, 52, 48
11, 21659, Note_on_c, 7, 52, 0
11, 21840, Note_on_c, 7, 48, 48
11, 21860, Note_on_c, 7, 52, 48
11, 21862, Note_on_c, 7, 48, 0
11, 21879, Note_on_c, 7, 52, 0
11, 21880, Note_on_c, 7, 55, 48
11, 21889, Note_on_c, 7, 55, 0
11, 21900, Note_on_c, 7, 48, 48
11, 21920, Note_on_c, 7, 52, 48
11, 21922, Note_on_c, 7, 48, 0
11, 21939, Note_on_c, 7, 52, 0
11, 21940, Note_on_c, 7, 55, 48
11, 21949, Note_on_c, 7, 55, 0
11, 21960, Note_on_c, 7, 48, 48
11, 21980, Note_on_c, 7, 52, 48
11, 21982, Note_on_c, 7, 48, 0
11, 21999, Note_on_c, 7, 52, 0
11, 22000, Note_on_c, 7, 55, 48
11, 22009, Note_on_c, 7, 55, 0
11, 22020, Note_on_c, 7, 48, 48
11, 22040, Note_on_c, 7, 52, 48
11, 22042, Note_on_c, 7, 48, 0
11, 22059, Note_on_c, 7, 52, 0
11, 22060, Note_on_c, 7, 55, 48
11, 22069, Note_on_c, 7, 55, 0
11, 22080, Note_on_c, 7, 45, 48
11, 22100, Note_on_c, 7, 48, 49
11, 22102, Note_on_c, 7, 45, 0
11, 22119, Note_on_c, 7, 48, 0
11, 22120, Note_on_c, 7, 53, 50
11, 22129, Note_on_c, 7, 53, 0
11, 22140, Note_on_c, 7, 45, 51
11, 22160, Note_on_c, 7, 48, 52
11, 22162, Note_on_c, 7, 45, 0
11, 22179, Note_on_c, 7, 48, 0
11, 22180, Note_on_c, 7, 53, 53
11, 22189, Note_on_c, 7, 53, 0
11, 22200, Note_on_c, 7, 45, 54
11, 22220, Note_on_c, 7, 48, 55
11, 22222, Note_on_c, 7, 45, 0
11, 22239, Note_on_c, 7, 48, 0
11, 22240, Note_on_c, 7, 53, 56
11, 22249, Note_on_c, 7, 53, 0
11, 22260, Note_on_c, 7, 45, 57
11, 22280, Note_on_c, 7, 48, 58
11, 22282, Note_on_c, 7, 45, 0
11, 22299, Note_on_c, 7, 48, 0
11, 22300, Note_on_c, 7, 53, 59
11, 22309, Note_on_c, 7, 53, 0
11, 22320, Note_on_c, 7, 41, 60
11, 22340, Note_on_c, 7, 45, 61
11, 22342, Note_on_c, 7, 41, 0
11, 22359, Note_on_c, 7, 45, 0
11, 22360, Note_on_c, 7, 50, 62
11, 22369, Note_on_c, 7, 50, 0
11, 22380, Note_on_c, 7, 41, 63
11, 22400, Note_on_c, 7, 45, 64
11, 22402, Note_on_c, 7, 41, 0
11, 22419, Note_on_c, 7, 45, 0
11, 22420, Note_on_c, 7, 50, 65
11, 22429, Note_on_c, 7, 50, 0
11, 22440, Note_on_c, 7, 41, 66
11, 22460, Note_on_c, 7, 45, 67
11, 22462, Note_on_c, 7, 41, 0
11, 22479, Note_on_c, 7, 45, 0
11, 22480, Note_on_c, 7, 50, 68
11, 22489, Note_on_c, 7, 50, 0
11, 22500, Note_on_c, 7, 41, 69
11, 22520, Note_on_c, 7, 45, 70
11, 22522, Note_on_c, 7, 41, 0
11, 22539, Note_on_c, 7, 45, 0
11, 22540, Note_on_c, 7, 50, 71
11, 22549, Note_on_c, 7, 50, 0
11, 22560, Note_on_c, 7, 43, 72
11, 22580, Note_on_c, 7, 48, 73
11, 22582, Note_on_c, 7, 43, 0
11, 22599, Note_on_c, 7, 48, 0
11, 22600, Note_on_c, 7, 52, 74
11, 22609, Note_on_c, 7, 52, 0
11, 22620, Note_on_c, 7, 43, 75
11, 22640, Note_on_c, 7, 48, 76
11, 22642, Note_on_c, 7, 43, 0
11, 22659, Note_on_c, 7, 48, 0
11, 22660, Note_on_c, 7, 52, 77
11, 22669, Note_on_c, 7, 52, 0
11, 22680, Note_on_c, 7, 43, 78
11, 22700, Note_on_c, 7, 47, 79
11, 22702, Note_on_c, 7, 43, 0
11, 22719, Note_on_c, 7, 47, 0
11, 22720, Note_on_c, 7, 50, 80
11, 22729, Note_on_c, 7, 50, 0
11, 22740, Note_on_c, 7, 43, 81
11, 22760, Note_on_c, 7, 47, 82
11, 22762, Note_on_c, 7, 43, 0
11, 22779, Note_on_c, 7, 47, 0
11, 22780, Note_on_c, 7, 50, 83
11, 22789, Note_on_c, 7, 50, 0
11, 22800, Note_on_c, 7, 40, 84
11, 22820, Note_on_c, 7, 43, 85
11, 22822, Note_on_c, 7, 40, 0
11, 22839, Note_on_c, 7, 43, 0
11, 22840, Note_on_c, 7, 48, 86
11, 22849, Note_on_c, 7, 48, 0
11, 22860, Note_on_c, 7, 40, 87
11, 22880, Note_on_c, 7, 43, 88
11, 22882, Note_on_c, 7, 40, 0
11, 22899, Note_on_c, 7, 43, 0
11, 22900, Note_on_c, 7, 48, 89
11, 22909, Note_on_c, 7, 48, 0
11, 22920, Note_on_c, 7, 41, 90
11, 22940, Note_on_c, 7, 45, 91
11, 22942, Note_on_c, 7, 41, 0
11, 22959, Note_on_c, 7, 45, 0
11, 22960, Note_on_c, 7, 50, 92
11, 22969, Note_on_c, 7, 50, 0
11, 22980, Note_on_c, 7, 41, 93
11, 23000, Note_on_c, 7, 45, 94
11, 23002, Note_on_c, 7, 41, 0
11, 23019, Note_on_c, 7, 45, 0
11, 23020, Note_on_c, 7, 50, 95
11, 23029, Note_on_c, 7, 50, 0
11, 23040, Note_on_c, 7, 43, 96
11, 23057, Note_on_c, 7, 43, 0
11, 23060, Note_on_c, 7, 55, 96
11, 23077, Note_on_c, 7, 55, 0
11, 23080, Note_on_c, 7, 55, 96
11, 23097, Note_on_c, 7, 55, 0
11, 23100, Note_on_c, 7, 55, 96
11, 23117, Note_on_c, 7, 55, 0
11, 23120, Note_on_c, 7, 55, 96
11, 23137, Note_on_c, 7, 55, 0
11, 23140, Note_on_c, 7, 55, 96
11, 23157, Note_on_c, 7, 55, 0
11, 23160, Note_on_c, 7, 55, 112
11, 23177, Note_on_c, 7, 55, 0
11, 23180, Note_on_c, 7, 55, 112
11, 23197, Note_on_c, 7, 55, 0
11, 23200, Note_on_c, 7, 55, 112
11, 23217, Note_on_c, 7, 55, 0
11, 23220, Note_on_c, 7, 55, 112
11, 23237, Note_on_c, 7, 55, 0
11, 23240, Note_on_c, 7, 55, 112
11, 23257, Note_on_c, 7, 55, 0
11, 23260, Note_on_c, 7, 55, 112
11, 23277, Note_on_c, 7, 55, 0
11, 23280, Note_on_c, 7, 43, 112
11, 23297, Note_on_c, 7, 43, 0
11, 23300, Note_on_c, 7, 43, 112
11, 23317, Note_on_c, 7, 43, 0
11, 23320, Note_on_c, 7, 43, 112
11, 23337, Note_on_c, 7, 43, 0
11, 23340, Note_on_c, 7, 43, 112
11, 23357, Note_on_c, 7, 43, 0
11, 23360, Note_on_c, 7, 43, 112
11, 23377, Note_on_c, 7, 43, 0
11, 23380, Note_on_c, 7, 43, 112
11, 23397, Note_on_c, 7, 43, 0
11, 23400, Note_on_c, 7, 43, 112
11, 23417, Note_on_c, 7, 43, 0
11, 23420, Note_on_c, 7, 43, 112
11, 23437, Note_on_c, 7, 43, 0
11, 23440, Note_on_c, 7, 43, 112
11, 23457, Note_on_c, 7, 43, 0
11, 23460, Note_on_c, 7, 43, 112
11, 23477, Note_on_c, 7, 43, 0
11, 23480, Note_on_c, 7, 43, 112
11, 23497, Note_on_c, 7, 43, 0
11, 23500, Note_on_c, 7, 43, 112
11, 23517, Note_on_c, 7, 43, 0
11, 23520, Note_on_c, 7, 48, 127
11, 23527, Note_on_c, 7, 48, 0
11, 23530, Note_on_c, 7, 60, 127
11, 23537, Note_on_c, 7, 60, 0
11, 23540, Note_on_c, 7, 60, 127
11, 23547, Note_on_c, 7, 60, 0
11, 23550, Note_on_c, 7, 60, 127
11, 23557, Note_on_c, 7, 60, 0
11, 23560, Note_on_c, 7, 60, 127
11, 23567, Note_on_c, 7, 60, 0
11, 23570, Note_on_c, 7, 60, 127
11, 23577, Note_on_c, 7, 60, 0
11, 23580, Note_on_c, 7, 60, 127
11, 23587, Note_on_c, 7, 60, 0
11, 23590, Note_on_c, 7, 60, 127
11, 23597, Note_on_c, 7, 60, 0
11, 23600, Note_on_c, 7, 60, 127
11, 23607, Note_on_c, 7, 60, 0
11, 23610, Note_on_c, 7, 60, 127
11, 23617, Note_on_c, 7, 60, 0
11, 23620, Note_on_c, 7, 60, 127
11, 23627, Note_on_c, 7, 60, 0
11, 23630, Note_on_c, 7, 60, 127
11, 23637, Note_on_c, 7, 60, 0
11, 23640, Note_on_c, 7, 60, 127
11, 23669, Note_on_c, 7, 60, 0
11, 23760, Note_on_c, 7, 48, 127
11, 23767, Note_on_c, 7, 48, 0
11, 23770, Note_on_c, 7, 60, 127
11, 23777, Note_on_c, 7, 60, 0
11, 23780, Note_on_c, 7, 60, 127
11, 23787, Note_on_c, 7, 60, 0
11, 23790, Note_on_c, 7, 60, 127
11, 23797, Note_on_c, 7, 60, 0
11, 23800, Note_on_c, 7, 60, 127
11, 23807, Note_on_c, 7, 60, 0
11, 23810, Note_on_c, 7, 60, 127
11, 23817, Note_on_c, 7, 60, 0
11, 23820, Note_on_c, 7, 60, 127
11, 23827, Note_on_c, 7, 60, 0
11, 23830, Note_on_c, 7, 60, 127
11, 23837, Note_on_c, 7, 60, 0
11, 23840, Note_on_c, 7, 60, 127
11, 23847, Note_on_c, 7, 60, 0
11, 23850, Note_on_c, 7, 60, 127
11, 23857, Note_on_c, 7, 60, 0
11, 23860, Note_on_c, 7, 60, 127
11, 23867, Note_on_c, 7, 60, 0
11, 23870, Note_on_c, 7, 60, 127
11, 23877, Note_on_c, 7, 60, 0
11, 23880, Note_on_c, 7, 60, 127
11, 23909, Note_on_c, 7, 60, 0
11, 24000, Note_on_c, 7, 48, 127
11, 24029, Note_on_c, 7, 48, 0
11, 24120, Note_on_c, 7, 48, 127
11, 24149, Note_on_c, 7, 48, 0
11, 24240, Note_on_c, 7, 60, 96
11, 24269, Note_on_c, 7, 60, 0
11, 24270, Note_on_c, 7, 60, 48
11, 24480, Note_on_c, 7, 56, 48
11, 24489, Note_on_c, 7, 60, 0
11, 24660, Note_on_c, 7, 53, 48
11, 24669, Note_on_c, 7, 56, 0
11, 24719, Note_on_c, 7, 53, 0
11, 24720, Note_on_c, 7, 49, 48
11, 24780, Note_on_c, 7, 56, 56
11, 24789, Note_on_c, 7, 49, 0
11, 24825, Note_on_c, 7, 53, 56
11, 24826, Note_on_c, 7, 56, 0
11, 24839, Note_on_c, 7, 53, 0
11, 24840, Note_on_c, 7, 49, 64
11, 24869, Note_on_c, 7, 49, 0
11, 24900, Note_on_c, 7, 48, 64
11, 24929, Note_on_c, 7, 48, 0
11, 24960, Note_on_c, 7, 47, 48
11, 25019, Note_on_c, 7, 47, 0
11, 25200, Note_on_c, 7, 48, 48
11, 25319, Note_on_c, 7, 48, 0
11, 25440, Note_on_c, 7, 48, 48
11, 25559, Note_on_c, 7, 48, 0
11, 25680, Note_on_c, 7, 48, 48
11, 25789, Note_on_c, 7, 48, 0
11, 25800, Note_on_c, 7, 48, 48
11, 25909, Note_on_c, 7, 48, 0
11, 25920, Note_on_c, 7, 48, 48
11, 26040, Note_on_c, 7, 47, 48
11, 26049, Note_on_c, 7, 48, 0
11, 26099, Note_on_c, 7, 47, 0
11, 26160, Note_on_c, 7, 47, 48
11, 26279, Note_on_c, 7, 47, 0
11, 26340, Note_on_c, 7, 53, 48
11, 26355, Note_on_c, 7, 51, 48
11, 26359, Note_on_c, 7, 53, 0
11, 26370, Note_on_c, 7, 50, 48
11, 26374, Note_on_c, 7, 51, 0
11, 26385, Note_on_c, 7, 48, 48
11, 26389, Note_on_c, 7, 50, 0
11, 26400, Note_on_c, 7, 47, 48
11, 26404, Note_on_c, 7, 48, 0
11, 26459, Note_on_c, 7, 47, 0
11, 26610, Note_on_c, 7, 58, 48
11, 26625, Note_on_c, 7, 60, 48
11, 26629, Note_on_c, 7, 58, 0
11, 26640, Note_on_c, 7, 61, 48
11, 26644, Note_on_c, 7, 60, 0
11, 26699, Note_on_c, 7, 61, 0
11, 26820, Note_on_c, 7, 58, 48
11, 26835, Note_on_c, 7, 56, 48
11, 26839, Note_on_c, 7, 58, 0
11, 26850, Note_on_c, 7, 55, 48
11, 26854, Note_on_c, 7, 56, 0
11, 26865, Note_on_c, 7, 53, 48
11, 26869, Note_on_c, 7, 55, 0
11, 26880, Note_on_c, 7, 52, 64
11, 26884, Note_on_c, 7, 53, 0
11, 27089, Note_on_c, 7, 52, 0
11, 27090, Note_on_c, 7, 48, 52
11, 27100, Note_on_c, 7, 50, 52
11, 27101, Note_on_c, 7, 48, 0
11, 27110, Note_on_c, 7, 52, 52
11, 27111, Note_on_c, 7, 50, 0
11, 27120, Note_on_c, 7, 53, 48
11, 27121, Note_on_c, 7, 52, 0
11, 27179, Note_on_c, 7, 53, 0
11, 27210, Note_on_c, 7, 46, 48
11, 27217, Note_on_c, 7, 46, 0
11, 27220, Note_on_c, 7, 46, 48
11, 27227, Note_on_c, 7, 46, 0
11, 27230, Note_on_c, 7, 46, 48
11, 27237, Note_on_c, 7, 46, 0
11, 27240, Note_on_c, 7, 48, 48
11, 27299, Note_on_c, 7, 48, 0
11, 27330, Note_on_c, 7, 48, 48
11, 27337, Note_on_c, 7, 48, 0
11, 27340, Note_on_c, 7, 48, 48
11, 27347, Note_on_c, 7, 48, 0
11, 27350, Note_on_c, 7, 48, 48
11, 27357, Note_on_c, 7, 48, 0
11, 27360, Note_on_c, 7, 41, 96
11, 27419, Note_on_c, 7, 41, 0
11, 29040, Note_on_c, 7, 53, 96
11, 29160, Note_on_c, 7, 55, 96
11, 29169, Note_on_c, 7, 53, 0
11, 29220, Note_on_c, 7, 56, 96
11, 29229, Note_on_c, 7, 55, 0
11, 29279, Note_on_c, 7, 56, 0
11, 29280, Note_on_c, 7, 58, 112
11, 29459, Note_on_c, 7, 58, 0
11, 29460, Note_on_c, 7, 56, 96
11, 29470, Note_on_c, 7, 58, 96
11, 29471, Note_on_c, 7, 56, 0
11, 29480, Note_on_c, 7, 56, 96
11, 29481, Note_on_c, 7, 58, 0
11, 29490, Note_on_c, 7, 58, 96
11, 29491, Note_on_c, 7, 56, 0
11, 29498, Note_on_c, 7, 56, 96
11, 29499, Note_on_c, 7, 58, 0
11, 29505, Note_on_c, 7, 55, 96
11, 29507, Note_on_c, 7, 56, 0
11, 29512, Note_on_c, 7, 56, 96
11, 29516, Note_on_c, 7, 55, 0
11, 29520, Note_on_c, 7, 55, 96
11, 29523, Note_on_c, 7, 56, 0
11, 29580, Note_on_c, 7, 61, 96
11, 29589, Note_on_c, 7, 55, 0
11, 29640, Note_on_c, 7, 60, 96
11, 29649, Note_on_c, 7, 61, 0
11, 29700, Note_on_c, 7, 58, 96
11, 29709, Note_on_c, 7, 60, 0
11, 29759, Note_on_c, 7, 58, 0
11, 29760, Note_on_c, 7, 56, 96
11, 29790, Note_on_c, 7, 58, 96
11, 29799, Note_on_c, 7, 56, 0
11, 29819, Note_on_c, 7, 58, 0
11, 29820, Note_on_c, 7, 56, 96
11, 29834, Note_on_c, 7, 56, 0
11, 29850, Note_on_c, 7, 55, 96
11, 29864, Note_on_c, 7, 55, 0
11, 29880, Note_on_c, 7, 53, 96
11, 29894, Note_on_c, 7, 53, 0
11, 29910, Note_on_c, 7, 51, 96
11, 29924, Note_on_c, 7, 51, 0
11, 29940, Note_on_c, 7, 50, 96
11, 29954, Note_on_c, 7, 50, 0
11, 29970, Note_on_c, 7, 48, 96
11, 29984, Note_on_c, 7, 48, 0
11, 30000, Note_on_c, 7, 47, 96
11, 30014, Note_on_c, 7, 47, 0
11, 30030, Note_on_c, 7, 43, 96
11, 30044, Note_on_c, 7, 43, 0
11, 30060, Note_on_c, 7, 44, 96
11, 30074, Note_on_c, 7, 44, 0
11, 30090, Note_on_c, 7, 43, 96
11, 30104, Note_on_c, 7, 43, 0
11, 30120, Note_on_c, 7, 44, 96
11, 30134, Note_on_c, 7, 44, 0
11, 30150, Note_on_c, 7, 45, 96
11, 30164, Note_on_c, 7, 45, 0
11, 30180, Note_on_c, 7, 46, 96
11, 30194, Note_on_c, 7, 46, 0
11, 30210, Note_on_c, 7, 47, 96
11, 30224, Note_on_c, 7, 47, 0
11, 30240, Note_on_c, 7, 48, 96
11, 30360, Note_on_c, 7, 50, 96
11, 30369, Note_on_c, 7, 48, 0
11, 30420, Note_on_c, 7, 51, 96
11, 30429, Note_on_c, 7, 50, 0
11, 30479, Note_on_c, 7, 51, 0
11, 30480, Note_on_c, 7, 53, 112
11, 30659, Note_on_c, 7, 53, 0
11, 30660, Note_on_c, 7, 51, 96
11, 30719, Note_on_c, 7, 51, 0
11, 30720, Note_on_c, 7, 50, 96
11, 30780, Note_on_c, 7, 56, 96
11, 30789, Note_on_c, 7, 50, 0
11, 30840, Note_on_c, 7, 55, 96
11, 30849, Note_on_c, 7, 56, 0
11, 30900, Note_on_c, 7, 53, 96
11, 30909, Note_on_c, 7, 55, 0
11, 30959, Note_on_c, 7, 53, 0
11, 30960, Note_on_c, 7, 52, 96
11, 31020, Note_on_c, 7, 61, 96
11, 31029, Note_on_c, 7, 52, 0
11, 31080, Note_on_c, 7, 60, 96
11, 31089, Note_on_c, 7, 61, 0
11, 31140, Note_on_c, 7, 58, 96
11, 31149, Note_on_c, 7, 60, 0
11, 31199, Note_on_c, 7, 58, 0
11, 31200, Note_on_c, 7, 56, 127
11, 31214, Note_on_c, 7, 56, 0
11, 31230, Note_on_c, 7, 60, 127
11, 31244, Note_on_c, 7, 60, 0
11, 31260, Note_on_c, 7, 61, 127
11, 31274, Note_on_c, 7, 61, 0
11, 31290, Note_on_c, 7, 60, 127
11, 31304, Note_on_c, 7, 60, 0
11, 31320, Note_on_c, 7, 58, 127
11, 31334, Note_on_c, 7, 58, 0
11, 31350, Note_on_c, 7, 56, 127
11, 31364, Note_on_c, 7, 56, 0
11, 31380, Note_on_c, 7, 55, 127
11, 31394, Note_on_c, 7, 55, 0
11, 31410, Note_on_c, 7, 53, 127
11, 31424, Note_on_c, 7, 53, 0
11, 31440, Note_on_c, 7, 58, 127
11, 31454, Note_on_c, 7, 58, 0
11, 31470, Note_on_c, 7, 46, 127
11, 31484, Note_on_c, 7, 46, 0
11, 31500, Note_on_c, 7, 48, 127
11, 31514, Note_on_c, 7, 48, 0
11, 31530, Note_on_c, 7, 46, 127
11, 31544, Note_on_c, 7, 46, 0
11, 31560, Note_on_c, 7, 58, 127
11, 31574, Note_on_c, 7, 58, 0
11, 31590, Note_on_c, 7, 46, 127
11, 31604, Note_on_c, 7, 46, 0
11, 31620, Note_on_c, 7, 58, 127
11, 31634, Note_on_c, 7, 58, 0
11, 31650, Note_on_c, 7, 46, 127
11, 31664, Note_on_c, 7, 46, 0
11, 31680, Note_on_c, 7, 58, 127
11, 31710, Note_on_c, 7, 48, 127
11, 31724, Note_on_c, 7, 48, 0
11, 31739, Note_on_c, 7, 58, 0
11, 31740, Note_on_c, 7, 58, 127
11, 31754, Note_on_c, 7, 58, 0
11, 31770, Note_on_c, 7, 48, 127
11, 31784, Note_on_c, 7, 48, 0
11, 31800, Note_on_c, 7, 56, 127
11, 31814, Note_on_c, 7, 56, 0
11, 31830, Note_on_c, 7, 48, 127
11, 31844, Note_on_c, 7, 48, 0
11, 31860, Note_on_c, 7, 55, 127
11, 31874, Note_on_c, 7, 55, 0
11, 31890, Note_on_c, 7, 48, 127
11, 31904, Note_on_c, 7, 48, 0
11, 31920, Note_on_c, 7, 53, 127
11, 31979, Note_on_c, 7, 53, 0
11, 32160, Note_on_c, 7, 46, 127
11, 32174, Note_on_c, 7, 46, 0
11, 32190, Note_on_c, 7, 58, 127
11, 32204, Note_on_c, 7, 58, 0
11, 32220, Note_on_c, 7, 56, 127
11, 32234, Note_on_c, 7, 56, 0
11, 32250, Note_on_c, 7, 58, 127
11, 32280, Note_on_c, 7, 55, 127
11, 32294, Note_on_c, 7, 55, 0
11, 32309, Note_on_c, 7, 58, 0
11, 32310, Note_on_c, 7, 58, 127
11, 32339, Note_on_c, 7, 58, 0
11, 32340, Note_on_c, 7, 53, 127
11, 32354, Note_on_c, 7, 53, 0
11, 32370, Note_on_c, 7, 58, 127
11, 32384, Note_on_c, 7, 58, 0
11, 32400, Note_on_c, 7, 51, 127
11, 32414, Note_on_c, 7, 51, 0
11, 32430, Note_on_c, 7, 53, 127
11, 32444, Note_on_c, 7, 53, 0
11, 32460, Note_on_c, 7, 51, 127
11, 32474, Note_on_c, 7, 51, 0
11, 32490, Note_on_c, 7, 50, 127
11, 32504, Note_on_c, 7, 50, 0
11, 32520, Note_on_c, 7, 48, 127
11, 32534, Note_on_c, 7, 48, 0
11, 32550, Note_on_c, 7, 46, 127
11, 32564, Note_on_c, 7, 46, 0
11, 32580, Note_on_c, 7, 44, 127
11, 32594, Note_on_c, 7, 44, 0
11, 32610, Note_on_c, 7, 43, 127
11, 32624, Note_on_c, 7, 43, 0
11, 32640, Note_on_c, 7, 41, 127
11, 32699, Note_on_c, 7, 41, 0
11, 32910, Note_on_c, 7, 55, 127
11, 32924, Note_on_c, 7, 55, 0
11, 32940, Note_on_c, 7, 53, 127
11, 32954, Note_on_c, 7, 53, 0
11, 32970, Note_on_c, 7, 51, 127
11, 32984, Note_on_c, 7, 51, 0
11, 33000, Note_on_c, 7, 50, 127
11, 33014, Note_on_c, 7, 50, 0
11, 33030, Note_on_c, 7, 48, 127
11, 33044, Note_on_c, 7, 48, 0
11, 33060, Note_on_c, 7, 46, 127
11, 33074, Note_on_c, 7, 46, 0
11, 33090, Note_on_c, 7, 44, 127
11, 33104, Note_on_c, 7, 44, 0
11, 33120, Note_on_c, 7, 43, 127
11, 33179, Note_on_c, 7, 43, 0
11, 33480, Note_on_c, 7, 48, 96
11, 33720, Note_on_c, 7, 50, 96
11, 33729, Note_on_c, 7, 48, 0
11, 33780, Note_on_c, 7, 51, 96
11, 33789, Note_on_c, 7, 50, 0
11, 33839, Note_on_c, 7, 51, 0
11, 33840, Note_on_c, 7, 53, 112
11, 34020, Note_on_c, 7, 51, 96
11, 34029, Note_on_c, 7, 53, 0
11, 34079, Note_on_c, 7, 51, 0
11, 34080, Note_on_c, 7, 50, 96
11, 34200, Note_on_c, 7, 51, 96
11, 34209, Note_on_c, 7, 50, 0
11, 34260, Note_on_c, 7, 53, 96
11, 34269, Note_on_c, 7, 51, 0
11, 34319, Note_on_c, 7, 53, 0
11, 34320, Note_on_c, 7, 55, 112
11, 34500, Note_on_c, 7, 53, 96
11, 34509, Note_on_c, 7, 55, 0
11, 34559, Note_on_c, 7, 53, 0
11, 34560, Note_on_c, 7, 51, 127
11, 34569, Note_on_c, 7, 51, 0
11, 34570, Note_on_c, 7, 53, 127
11, 34579, Note_on_c, 7, 53, 0
11, 34580, Note_on_c, 7, 51, 127
11, 34589, Note_on_c, 7, 51, 0
11, 34590, Note_on_c, 7, 53, 127
11, 34599, Note_on_c, 7, 53, 0
11, 34600, Note_on_c, 7, 51, 127
11, 34609, Note_on_c, 7, 51, 0
11, 34610, Note_on_c, 7, 53, 127
11, 34619, Note_on_c, 7, 53, 0
11, 34620, Note_on_c, 7, 51, 127
11, 34629, Note_on_c, 7, 51, 0
11, 34630, Note_on_c, 7, 53, 127
11, 34639, Note_on_c, 7, 53, 0
11, 34640, Note_on_c, 7, 51, 127
11, 34649, Note_on_c, 7, 51, 0
11, 34650, Note_on_c, 7, 53, 127
11, 34657, Note_on_c, 7, 53, 0
11, 34657, Note_on_c, 7, 51, 127
11, 34664, Note_on_c, 7, 51, 0
11, 34664, Note_on_c, 7, 53, 127
11, 34671, Note_on_c, 7, 53, 0
11, 34672, Note_on_c, 7, 51, 127
11, 34679, Note_on_c, 7, 51, 0
11, 34680, Note_on_c, 7, 53, 127
11, 34689, Note_on_c, 7, 53, 0
11, 34690, Note_on_c, 7, 51, 127
11, 34699, Note_on_c, 7, 51, 0
11, 34700, Note_on_c, 7, 53, 127
11, 34709, Note_on_c, 7, 53, 0
11, 34710, Note_on_c, 7, 51, 127
11, 34719, Note_on_c, 7, 51, 0
11, 34720, Note_on_c, 7, 53, 127
11, 34729, Note_on_c, 7, 53, 0
11, 34730, Note_on_c, 7, 51, 127
11, 34739, Note_on_c, 7, 51, 0
11, 34740, Note_on_c, 7, 53, 127
11, 34749, Note_on_c, 7, 53, 0
11, 34750, Note_on_c, 7, 51, 127
11, 34759, Note_on_c, 7, 51, 0
11, 34760, Note_on_c, 7, 53, 127
11, 34769, Note_on_c, 7, 53, 0
11, 34770, Note_on_c, 7, 51, 127
11, 34779, Note_on_c, 7, 51, 0
11, 34780, Note_on_c, 7, 53, 127
11, 34789, Note_on_c, 7, 53, 0
11, 34790, Note_on_c, 7, 51, 127
11, 34799, Note_on_c, 7, 51, 0
11, 34800, Note_on_c, 7, 50, 127
11, 34859, Note_on_c, 7, 50, 0
11, 34860, Note_on_c, 7, 54, 127
11, 34979, Note_on_c, 7, 54, 0
11, 34980, Note_on_c, 7, 55, 127
11, 35010, Note_on_c, 7, 57, 127
11, 35019, Note_on_c, 7, 55, 0
11, 35039, Note_on_c, 7, 57, 0
11, 35040, Note_on_c, 7, 58, 127
11, 35100, Note_on_c, 7, 60, 127
11, 35109, Note_on_c, 7, 58, 0
11, 35130, Note_on_c, 7, 62, 127
11, 35139, Note_on_c, 7, 60, 0
11, 35159, Note_on_c, 7, 62, 0
11, 35160, Note_on_c, 7, 63, 127
11, 35220, Note_on_c, 7, 60, 127
11, 35229, Note_on_c, 7, 63, 0
11, 35250, Note_on_c, 7, 58, 127
11, 35259, Note_on_c, 7, 60, 0
11, 35279, Note_on_c, 7, 58, 0
11, 35280, Note_on_c, 7, 57, 127
11, 35340, Note_on_c, 7, 58, 127
11, 35349, Note_on_c, 7, 57, 0
11, 35370, Note_on_c, 7, 60, 127
11, 35379, Note_on_c, 7, 58, 0
11, 35400, Note_on_c, 7, 62, 127
11, 35409, Note_on_c, 7, 60, 0
11, 35460, Note_on_c, 7, 58, 127
11, 35469, Note_on_c, 7, 62, 0
11, 35490, Note_on_c, 7, 57, 127
11, 35499, Note_on_c, 7, 58, 0
11, 35519, Note_on_c, 7, 57, 0
11, 35520, Note_on_c, 7, 55, 127
11, 35580, Note_on_c, 7, 57, 127
11, 35589, Note_on_c, 7, 55, 0
11, 35610, Note_on_c, 7, 58, 127
11, 35619, Note_on_c, 7, 57, 0
11, 35640, Note_on_c, 7, 60, 127
11, 35649, Note_on_c, 7, 58, 0
11, 35700, Note_on_c, 7, 57, 127
11, 35709, Note_on_c, 7, 60, 0
11, 35730, Note_on_c, 7, 55, 127
11, 35739, Note_on_c, 7, 57, 0
11, 35759, Note_on_c, 7, 55, 0
11, 35760, Note_on_c, 7, 54, 127
11, 35820, Note_on_c, 7, 55, 127
11, 35829, Note_on_c, 7, 54, 0
11, 35850, Note_on_c, 7, 57, 127
11, 35859, Note_on_c, 7, 55, 0
11, 35880, Note_on_c, 7, 58, 127
11, 35889, Note_on_c, 7, 57, 0
11, 35940, Note_on_c, 7, 55, 127
11, 35949, Note_on_c, 7, 58, 0
11, 35970, Note_on_c, 7, 53, 127
11, 35979, Note_on_c, 7, 55, 0
11, 35999, Note_on_c, 7, 53, 0
11, 36000, Note_on_c, 7, 52, 127
11, 36029, Note_on_c, 7, 52, 0
11, 36120, Note_on_c, 7, 49, 127
11, 36299, Note_on_c, 7, 49, 0
11, 36300, Note_on_c, 7, 49, 127
11, 36330, Note_on_c, 7, 49, 0
11, 36360, Note_on_c, 7, 49, 127
11, 36377, Note_on_c, 7, 49, 0
11, 36421, Note_on_c, 7, 49, 127
11, 36435, Note_on_c, 7, 49, 0
11, 36485, Note_on_c, 7, 50, 96
11, 36716, Note_on_c, 7, 38, 48
11, 36716, Note_on_c, 7, 45, 48
11, 36725, Note_on_c, 7, 50, 0
11, 36929, Note_on_c, 7, 38, 0
11, 36956, Note_on_c, 7, 45, 0
11, 36961, Note_on_c, 7, 43, 48
11, 37081, Note_on_c, 7, 43, 0
11, 37185, Note_on_c, 7, 55, 43
11, 37305, Note_on_c, 7, 55, 0
11, 37440, Note_on_c, 7, 53, 48
11, 37563, Note_on_c, 7, 53, 0
11, 37920, Note_on_c, 7, 44, 127
11, 38160, Note_on_c, 7, 44, 0
11, 38166, Note_on_c, 7, 44, 127
11, 38400, Note_on_c, 7, 44, 127
11, 38406, Note_on_c, 7, 44, 0
11, 38409, Note_on_c, 7, 44, 0
11, 38420, Note_on_c, 7, 43, 127
11, 38428, Note_on_c, 7, 43, 0
11, 38440, Note_on_c, 7, 44, 127
11, 38447, Note_on_c, 7, 44, 0
11, 38460, Note_on_c, 7, 48, 127
11, 38470, Note_on_c, 7, 48, 0
11, 38480, Note_on_c, 7, 47, 127
11, 38487, Note_on_c, 7, 47, 0
11, 38500, Note_on_c, 7, 48, 127
11, 38507, Note_on_c, 7, 48, 0
11, 38520, Note_on_c, 7, 44, 127
11, 38530, Note_on_c, 7, 44, 0
11, 38540, Note_on_c, 7, 43, 127
11, 38547, Note_on_c, 7, 43, 0
11, 38560, Note_on_c, 7, 44, 127
11, 38566, Note_on_c, 7, 44, 0
11, 38578, Note_on_c, 7, 48, 127
11, 38587, Note_on_c, 7, 48, 0
11, 38599, Note_on_c, 7, 47, 127
11, 38605, Note_on_c, 7, 47, 0
11, 38618, Note_on_c, 7, 48, 127
11, 38625, Note_on_c, 7, 48, 0
11, 38641, Note_on_c, 7, 44, 127
11, 38649, Note_on_c, 7, 44, 0
11, 38660, Note_on_c, 7, 43, 127
11, 38668, Note_on_c, 7, 43, 0
11, 38680, Note_on_c, 7, 44, 127
11, 38687, Note_on_c, 7, 44, 0
11, 38701, Note_on_c, 7, 48, 127
11, 38709, Note_on_c, 7, 48, 0
11, 38721, Note_on_c, 7, 47, 127
11, 38727, Note_on_c, 7, 47, 0
11, 38741, Note_on_c, 7, 48, 127
11, 38746, Note_on_c, 7, 48, 0
11, 38760, Note_on_c, 7, 44, 127
11, 38770, Note_on_c, 7, 44, 0
11, 38780, Note_on_c, 7, 43, 127
11, 38787, Note_on_c, 7, 43, 0
11, 38803, Note_on_c, 7, 44, 127
11, 38810, Note_on_c, 7, 44, 0
11, 38820, Note_on_c, 7, 48, 127
11, 38829, Note_on_c, 7, 48, 0
11, 38840, Note_on_c, 7, 47, 127
11, 38846, Note_on_c, 7, 47, 0
11, 38863, Note_on_c, 7, 48, 127
11, 38869, Note_on_c, 7, 48, 0
11, 38881, Note_on_c, 7, 43, 127
11, 38891, Note_on_c, 7, 43, 0
11, 38902, Note_on_c, 7, 42, 127
11, 38908, Note_on_c, 7, 42, 0
11, 38922, Note_on_c, 7, 43, 127
11, 38928, Note_on_c, 7, 43, 0
11, 38941, Note_on_c, 7, 48, 127
11, 38948, Note_on_c, 7, 48, 0
11, 38960, Note_on_c, 7, 47, 127
11, 38965, Note_on_c, 7, 47, 0
11, 38982, Note_on_c, 7, 48, 127
11, 38988, Note_on_c, 7, 48, 0
11, 39000, Note_on_c, 7, 43, 127
11, 39008, Note_on_c, 7, 43, 0
11, 39020, Note_on_c, 7, 42, 127
11, 39027, Note_on_c, 7, 42, 0
11, 39043, Note_on_c, 7, 43, 127
11, 39050, Note_on_c, 7, 43, 0
11, 39060, Note_on_c, 7, 48, 127
11, 39066, Note_on_c, 7, 48, 0
11, 39080, Note_on_c, 7, 47, 127
11, 39085, Note_on_c, 7, 47, 0
11, 39101, Note_on_c, 7, 48, 127
11, 39107, Note_on_c, 7, 48, 0
11, 39122, Note_on_c, 7, 43, 127
11, 39129, Note_on_c, 7, 43, 0
11, 39139, Note_on_c, 7, 42, 127
11, 39145, Note_on_c, 7, 42, 0
11, 39159, Note_on_c, 7, 43, 127
11, 39166, Note_on_c, 7, 43, 0
11, 39180, Note_on_c, 7, 48, 127
11, 39188, Note_on_c, 7, 48, 0
11, 39200, Note_on_c, 7, 47, 127
11, 39205, Note_on_c, 7, 47, 0
11, 39220, Note_on_c, 7, 48, 127
11, 39227, Note_on_c, 7, 48, 0
11, 39240, Note_on_c, 7, 43, 127
11, 39248, Note_on_c, 7, 43, 0
11, 39260, Note_on_c, 7, 42, 127
11, 39266, Note_on_c, 7, 42, 0
11, 39280, Note_on_c, 7, 43, 127
11, 39287, Note_on_c, 7, 43, 0
11, 39300, Note_on_c, 7, 48, 127
11, 39307, Note_on_c, 7, 48, 0
11, 39320, Note_on_c, 7, 47, 127
11, 39326, Note_on_c, 7, 47, 0
11, 39341, Note_on_c, 7, 48, 127
11, 39348, Note_on_c, 7, 48, 0
11, 39360, Note_on_c, 7, 42, 127
11, 39366, Note_on_c, 7, 42, 0
11, 39380, Note_on_c, 7, 45, 127
11, 39387, Note_on_c, 7, 45, 0
11, 39402, Note_on_c, 7, 48, 127
11, 39410, Note_on_c, 7, 48, 0
11, 39420, Note_on_c, 7, 52, 127
11, 39428, Note_on_c, 7, 52, 0
11, 39440, Note_on_c, 7, 54, 127
11, 39446, Note_on_c, 7, 54, 0
11, 39460, Note_on_c, 7, 57, 127
11, 39467, Note_on_c, 7, 57, 0
11, 39480, Note_on_c, 7, 60, 127
11, 39540, Note_on_c, 7, 60, 0
11, 39847, Note_on_c, 7, 41, 127
11, 39856, Note_on_c, 7, 41, 0
11, 39860, Note_on_c, 7, 44, 127
11, 39868, Note_on_c, 7, 44, 0
11, 39880, Note_on_c, 7, 47, 127
11, 39886, Note_on_c, 7, 47, 0
11, 39902, Note_on_c, 7, 50, 127
11, 39909, Note_on_c, 7, 50, 0
11, 39920, Note_on_c, 7, 53, 127
11, 39926, Note_on_c, 7, 53, 0
11, 39939, Note_on_c, 7, 56, 127
11, 39945, Note_on_c, 7, 56, 0
11, 39963, Note_on_c, 7, 59, 127
11, 40023, Note_on_c, 7, 59, 0
11, 40323, Note_on_c, 7, 43, 127
11, 40383, Note_on_c, 7, 43, 0
11, 40801, Note_on_c, 7, 43, 48
11, 40861, Note_on_c, 7, 43, 0
11, 41044, Note_on_c, 7, 43, 48
11, 41100, Note_on_c, 7, 44, 56
11, 41104, Note_on_c, 7, 43, 0
11, 41160, Note_on_c, 7, 44, 0
11, 41160, Note_on_c, 7, 43, 48
11, 41220, Note_on_c, 7, 43, 0
11, 41220, Note_on_c, 7, 47, 56
11, 41280, Note_on_c, 7, 47, 0
11, 41280, Note_on_c, 7, 43, 48
11, 41340, Note_on_c, 7, 43, 0
11, 41340, Note_on_c, 7, 50, 56
11, 41400, Note_on_c, 7, 50, 0
11, 41400, Note_on_c, 7, 43, 48
11, 41460, Note_on_c, 7, 43, 0
11, 41460, Note_on_c, 7, 55, 56
11, 41515, Note_on_c, 7, 55, 0
11, 41520, Note_on_c, 7, 43, 48
11, 41580, Note_on_c, 7, 43, 0
11, 41580, Note_on_c, 7, 44, 56
11, 41640, Note_on_c, 7, 43, 48
11, 41642, Note_on_c, 7, 44, 0
11, 41700, Note_on_c, 7, 48, 56
11, 41705, Note_on_c, 7, 43, 0
11, 41759, Note_on_c, 7, 48, 0
11, 41760, Note_on_c, 7, 43, 48
11, 41820, Note_on_c, 7, 43, 0
11, 41820, Note_on_c, 7, 51, 56
11, 41880, Note_on_c, 7, 51, 0
11, 41880, Note_on_c, 7, 43, 48
11, 41940, Note_on_c, 7, 43, 0
11, 41940, Note_on_c, 7, 55, 56
11, 41996, Note_on_c, 7, 55, 0
11, 42000, Note_on_c, 7, 43, 48
11, 42060, Note_on_c, 7, 44, 56
11, 42062, Note_on_c, 7, 43, 0
11, 42122, Note_on_c, 7, 44, 0
11, 42125, Note_on_c, 7, 43, 44
11, 42180, Note_on_c, 7, 48, 56
11, 42187, Note_on_c, 7, 43, 0
11, 42240, Note_on_c, 7, 48, 0
11, 42240, Note_on_c, 7, 43, 48
11, 42300, Note_on_c, 7, 51, 56
11, 42302, Note_on_c, 7, 43, 0
11, 42360, Note_on_c, 7, 51, 0
11, 42362, Note_on_c, 7, 43, 78
11, 42423, Note_on_c, 7, 55, 56
11, 42425, Note_on_c, 7, 43, 0
11, 42479, Note_on_c, 7, 55, 0
11, 42480, Note_on_c, 7, 41, 48
11, 42528, Note_on_c, 7, 41, 0
11, 42540, Note_on_c, 7, 47, 56
11, 42600, Note_on_c, 7, 47, 0
11, 42600, Note_on_c, 7, 41, 48
11, 42648, Note_on_c, 7, 41, 0
11, 42660, Note_on_c, 7, 50, 56
11, 42720, Note_on_c, 7, 47, 48
11, 42722, Note_on_c, 7, 50, 0
11, 42780, Note_on_c, 7, 47, 0
11, 42780, Note_on_c, 7, 53, 52
11, 42840, Note_on_c, 7, 53, 0
11, 42841, Note_on_c, 7, 50, 56
11, 42899, Note_on_c, 7, 47, 60
11, 42903, Note_on_c, 7, 50, 0
11, 42958, Note_on_c, 7, 47, 0
11, 42960, Note_on_c, 7, 46, 60
11, 43020, Note_on_c, 7, 58, 56
11, 43022, Note_on_c, 7, 46, 0
11, 43080, Note_on_c, 7, 46, 52
11, 43085, Note_on_c, 7, 58, 0
11, 43140, Note_on_c, 7, 58, 52
11, 43143, Note_on_c, 7, 46, 0
11, 43199, Note_on_c, 7, 58, 0
11, 43202, Note_on_c, 7, 51, 48
11, 43258, Note_on_c, 7, 51, 0
11, 43259, Note_on_c, 7, 56, 48
11, 43319, Note_on_c, 7, 56, 0
11, 43320, Note_on_c, 7, 51, 48
11, 43340, Note_on_c, 7, 51, 0
11, 43340, Note_on_c, 7, 48, 48
11, 43360, Note_on_c, 7, 48, 0
11, 43362, Note_on_c, 7, 46, 48
11, 43380, Note_on_c, 7, 44, 48
11, 43382, Note_on_c, 7, 46, 0
11, 43400, Note_on_c, 7, 44, 0
11, 43401, Note_on_c, 7, 43, 48
11, 43420, Note_on_c, 7, 41, 48
11, 43421, Note_on_c, 7, 43, 0
11, 43437, Note_on_c, 7, 55, 48
11, 43440, Note_on_c, 7, 41, 0
11, 43557, Note_on_c, 7, 53, 48
11, 43561, Note_on_c, 7, 55, 0
11, 43617, Note_on_c, 7, 51, 48
11, 43621, Note_on_c, 7, 53, 0
11, 43677, Note_on_c, 7, 50, 48
11, 43678, Note_on_c, 7, 51, 0
11, 43919, Note_on_c, 7, 50, 0
11, 43920, Note_on_c, 7, 51, 64
11, 44040, Note_on_c, 7, 51, 0
11, 44040, Note_on_c, 7, 50, 56
11, 44100, Note_on_c, 7, 48, 52
11, 44102, Note_on_c, 7, 50, 0
11, 44160, Note_on_c, 7, 49, 48
11, 44162, Note_on_c, 7, 48, 0
11, 44220, Note_on_c, 7, 49, 0
11, 44265, Note_on_c, 7, 52, 96
11, 44272, Note_on_c, 7, 52, 0
11, 44280, Note_on_c, 7, 52, 96
11, 44400, Note_on_c, 7, 52, 0
11, 44517, Note_on_c, 7, 53, 48
11, 44577, Note_on_c, 7, 53, 0
11, 44580, Note_on_c, 7, 55, 48
11, 44640, Note_on_c, 7, 55, 0
11, 44641, Note_on_c, 7, 56, 56
11, 44759, Note_on_c, 7, 44, 96
11, 44778, Note_on_c, 7, 56, 0
11, 44876, Note_on_c, 7, 44, 0
11, 44886, Note_on_c, 7, 55, 48
11, 45001, Note_on_c, 7, 50, 46
11, 45007, Note_on_c, 7, 55, 0
11, 45060, Note_on_c, 7, 53, 42
11, 45065, Note_on_c, 7, 50, 0
11, 45120, Note_on_c, 7, 53, 0
11, 45121, Note_on_c, 7, 51, 48
11, 45247, Note_on_c, 7, 50, 48
11, 45249, Note_on_c, 7, 51, 0
11, 45298, Note_on_c, 7, 48, 48
11, 45307, Note_on_c, 7, 50, 0
11, 45356, Note_on_c, 7, 48, 0
11, 45360, Note_on_c, 7, 47, 50
11, 45538, Note_on_c, 7, 50, 44
11, 45543, Note_on_c, 7, 47, 0
11, 45600, Note_on_c, 7, 48, 52
11, 45604, Note_on_c, 7, 50, 0
11, 45720, Note_on_c, 7, 46, 52
11, 45729, Note_on_c, 7, 48, 0
11, 45780, Note_on_c, 7, 44, 50
11, 45784, Note_on_c, 7, 46, 0
11, 45840, Note_on_c, 7, 44, 0
11, 45840, Note_on_c, 7, 43, 48
11, 45900, Note_on_c, 7, 43, 0
11, 45901, Note_on_c, 7, 44, 50
11, 45961, Note_on_c, 7, 43, 48
11, 45962, Note_on_c, 7, 44, 0
11, 46019, Note_on_c, 7, 48, 48
11, 46026, Note_on_c, 7, 43, 0
11, 46078, Note_on_c, 7, 48, 0
11, 46080, Note_on_c, 7, 47, 48
11, 46142, Note_on_c, 7, 47, 0
11, 46142, Note_on_c, 7, 51, 48
11, 46199, Note_on_c, 7, 50, 48
11, 46204, Note_on_c, 7, 51, 0
11, 46260, Note_on_c, 7, 48, 48
11, 46265, Note_on_c, 7, 50, 0
11, 46319, Note_on_c, 7, 47, 47
11, 46320, Note_on_c, 7, 48, 0
11, 46440, Note_on_c, 7, 44, 64
11, 46444, Note_on_c, 7, 47, 0
11, 46560, Note_on_c, 7, 44, 0
11, 46560, Note_on_c, 7, 43, 80
11, 46680, Note_on_c, 7, 43, 0
11, 46680, Note_on_c, 7, 36, 81
11, 46680, Note_on_c, 7, 43, 96
11, 46800, Note_on_c, 7, 43, 0
11, 46800, Note_on_c, 7, 36, 0
11, 46800, Note_on_c, 7, 41, 48
11, 46813, Note_on_c, 7, 41, 0
11, 46858, Note_on_c, 7, 44, 48
11, 46871, Note_on_c, 7, 44, 0
11, 46925, Note_on_c, 7, 41, 48
11, 46937, Note_on_c, 7, 41, 0
11, 46980, Note_on_c, 7, 53, 48
11, 46994, Note_on_c, 7, 53, 0
11, 47040, Note_on_c, 7, 49, 48
11, 47053, Note_on_c, 7, 49, 0
11, 47104, Note_on_c, 7, 53, 48
11, 47112, Note_on_c, 7, 53, 0
11, 47159, Note_on_c, 7, 49, 48
11, 47173, Note_on_c, 7, 49, 0
11, 47224, Note_on_c, 7, 61, 48
11, 47237, Note_on_c, 7, 61, 0
11, 47286, Note_on_c, 7, 47, 48
11, 47298, Note_on_c, 7, 47, 0
11, 47344, Note_on_c, 7, 59, 60
11, 47359, Note_on_c, 7, 59, 0
11, 47401, Note_on_c, 7, 41, 72
11, 47413, Note_on_c, 7, 41, 0
11, 47457, Note_on_c, 7, 53, 84
11, 47466, Note_on_c, 7, 53, 0
11, 47520, Note_on_c, 7, 51, 96
11, 47538, Note_on_c, 7, 51, 0
11, 47580, Note_on_c, 7, 53, 96
11, 47596, Note_on_c, 7, 53, 0
11, 47696, Note_on_c, 7, 56, 48
11, 47816, Note_on_c, 7, 56, 0
11, 47817, Note_on_c, 7, 55, 56
11, 47845, Note_on_c, 7, 55, 0
11, 47873, Note_on_c, 7, 43, 48
11, 47906, Note_on_c, 7, 43, 0
11, 47938, Note_on_c, 7, 55, 48
11, 47964, Note_on_c, 7, 55, 0
11, 47996, Note_on_c, 7, 48, 48
11, 48050, Note_on_c, 7, 48, 0
11, 48090, Note_on_c, 7, 48, 46
11, 48097, Note_on_c, 7, 50, 48
11, 48100, Note_on_c, 7, 48, 0
11, 48105, Note_on_c, 7, 51, 48
11, 48107, Note_on_c, 7, 50, 0
11, 48112, Note_on_c, 7, 53, 50
11, 48115, Note_on_c, 7, 51, 0
11, 48116, Note_on_c, 7, 55, 48
11, 48122, Note_on_c, 7, 53, 0
11, 48176, Note_on_c, 7, 55, 0
11, 48210, Note_on_c, 7, 55, 48
11, 48220, Note_on_c, 7, 55, 0
11, 48221, Note_on_c, 7, 57, 48
11, 48229, Note_on_c, 7, 59, 54
11, 48233, Note_on_c, 7, 57, 0
11, 48239, Note_on_c, 7, 60, 48
11, 48241, Note_on_c, 7, 59, 0
11, 48298, Note_on_c, 7, 55, 48
11, 48301, Note_on_c, 7, 60, 0
11, 48356, Note_on_c, 7, 55, 0
11, 48362, Note_on_c, 7, 51, 48
11, 48416, Note_on_c, 7, 48, 48
11, 48428, Note_on_c, 7, 51, 0
11, 48470, Note_on_c, 7, 48, 0
11, 48480, Note_on_c, 7, 47, 48
11, 48541, Note_on_c, 7, 43, 48
11, 48542, Note_on_c, 7, 47, 0
11, 48599, Note_on_c, 7, 48, 46
11, 48602, Note_on_c, 7, 43, 0
11, 48662, Note_on_c, 7, 51, 48
11, 48667, Note_on_c, 7, 48, 0
11, 48721, Note_on_c, 7, 55, 48
11, 48725, Note_on_c, 7, 51, 0
11, 48840, Note_on_c, 7, 43, 48
11, 48841, Note_on_c, 7, 55, 0
11, 48900, Note_on_c, 7, 43, 0
11, 48960, Note_on_c, 7, 41, 96
11, 49020, Note_on_c, 7, 41, 0
11, 49020, Note_on_c, 7, 53, 96
11, 49076, Note_on_c, 7, 53, 0
11, 49080, Note_on_c, 7, 53, 96
11, 49136, Note_on_c, 7, 53, 0
11, 49143, Note_on_c, 7, 53, 96
11, 49199, Note_on_c, 7, 53, 0
11, 49200, Note_on_c, 7, 42, 112
11, 49256, Note_on_c, 7, 42, 0
11, 49257, Note_on_c, 7, 54, 96
11, 49313, Note_on_c, 7, 54, 0
11, 49320, Note_on_c, 7, 54, 80
11, 49376, Note_on_c, 7, 54, 0
11, 49380, Note_on_c, 7, 54, 64
11, 49436, Note_on_c, 7, 54, 0
11, 49437, Note_on_c, 7, 43, 48
11, 49498, Note_on_c, 7, 55, 48
11, 49501, Note_on_c, 7, 43, 0
11, 49554, Note_on_c, 7, 55, 0
11, 49559, Note_on_c, 7, 43, 50
11, 49615, Note_on_c, 7, 43, 0
11, 49616, Note_on_c, 7, 55, 50
11, 49676, Note_on_c, 7, 48, 43
11, 49679, Note_on_c, 7, 55, 0
11, 49736, Note_on_c, 7, 48, 0
11, 49740, Note_on_c, 7, 55, 50
11, 49797, Note_on_c, 7, 51, 48
11, 49802, Note_on_c, 7, 55, 0
11, 49857, Note_on_c, 7, 48, 48
11, 49862, Note_on_c, 7, 51, 0
11, 49913, Note_on_c, 7, 48, 0
11, 49920, Note_on_c, 7, 43, 56
11, 49976, Note_on_c, 7, 43, 0
11, 49977, Note_on_c, 7, 55, 64
11, 50033, Note_on_c, 7, 55, 0
11, 50040, Note_on_c, 7, 43, 72
11, 50096, Note_on_c, 7, 43, 0
11, 50099, Note_on_c, 7, 55, 80
11, 50155, Note_on_c, 7, 55, 0
11, 50164, Note_on_c, 7, 44, 97
11, 50224, Note_on_c, 7, 44, 0
11, 52017, Note_on_c, 7, 48, 32
11, 52036, Note_on_c, 7, 48, 0
11, 52082, Note_on_c, 7, 49, 32
11, 52100, Note_on_c, 7, 49, 0
11, 52140, Note_on_c, 7, 56, 32
11, 52153, Note_on_c, 7, 56, 0
11, 52200, Note_on_c, 7, 49, 32
11, 52211, Note_on_c, 7, 49, 0
11, 52260, Note_on_c, 7, 56, 32
11, 52272, Note_on_c, 7, 56, 0
11, 52314, Note_on_c, 7, 47, 32
11, 52333, Note_on_c, 7, 47, 0
11, 52380, Note_on_c, 7, 56, 32
11, 52390, Note_on_c, 7, 56, 0
11, 52440, Note_on_c, 7, 47, 32
11, 52451, Note_on_c, 7, 47, 0
11, 52502, Note_on_c, 7, 55, 32
11, 52514, Note_on_c, 7, 55, 0
11, 52559, Note_on_c, 7, 48, 32
11, 52572, Note_on_c, 7, 48, 0
11, 52617, Note_on_c, 7, 51, 32
11, 52628, Note_on_c, 7, 51, 0
11, 52674, Note_on_c, 7, 48, 32
11, 52686, Note_on_c, 7, 48, 0
11, 52739, Note_on_c, 7, 51, 32
11, 52752, Note_on_c, 7, 51, 0
11, 52799, Note_on_c, 7, 44, 32
11, 52813, Note_on_c, 7, 44, 0
11, 52859, Note_on_c, 7, 48, 36
11, 52871, Note_on_c, 7, 48, 0
11, 52917, Note_on_c, 7, 44, 40
11, 52927, Note_on_c, 7, 44, 0
11, 52977, Note_on_c, 7, 48, 44
11, 52989, Note_on_c, 7, 48, 0
11, 53038, Note_on_c, 7, 41, 48
11, 53052, Note_on_c, 7, 41, 0
11, 53098, Note_on_c, 7, 44, 44
11, 53108, Note_on_c, 7, 44, 0
11, 53158, Note_on_c, 7, 41, 40
11, 53168, Note_on_c, 7, 41, 0
11, 53219, Note_on_c, 7, 44, 36
11, 53231, Note_on_c, 7, 44, 0
11, 53276, Note_on_c, 7, 42, 32
11, 53288, Note_on_c, 7, 42, 0
11, 53336, Note_on_c, 7, 43, 32
11, 53346, Note_on_c, 7, 43, 0
11, 53399, Note_on_c, 7, 42, 32
11, 53407, Note_on_c, 7, 42, 0
11, 53459, Note_on_c, 7, 43, 32
11, 53467, Note_on_c, 7, 43, 0
11, 53520, Note_on_c, 7, 48, 32
11, 53638, Note_on_c, 7, 55, 32
11, 53646, Note_on_c, 7, 48, 0
11, 53697, Note_on_c, 7, 55, 0
11, 53697, Note_on_c, 7, 58, 32
11, 53759, Note_on_c, 7, 58, 0
11, 53760, Note_on_c, 7, 56, 32
11, 53878, Note_on_c, 7, 55, 32
11, 53881, Note_on_c, 7, 56, 0
11, 53938, Note_on_c, 7, 53, 32
11, 53941, Note_on_c, 7, 55, 0
11, 54000, Note_on_c, 7, 48, 32
11, 54002, Note_on_c, 7, 53, 0
11, 54118, Note_on_c, 7, 52, 34
11, 54131, Note_on_c, 7, 48, 0
11, 54181, Note_on_c, 7, 52, 0
11, 54182, Note_on_c, 7, 55, 35
11, 54239, Note_on_c, 7, 53, 36
11, 54242, Note_on_c, 7, 55, 0
11, 54364, Note_on_c, 7, 55, 38
11, 54366, Note_on_c, 7, 53, 0
11, 54417, Note_on_c, 7, 56, 39
11, 54424, Note_on_c, 7, 55, 0
11, 54478, Note_on_c, 7, 55, 40
11, 54485, Note_on_c, 7, 56, 0
11, 54537, Note_on_c, 7, 53, 42
11, 54541, Note_on_c, 7, 55, 0
11, 54598, Note_on_c, 7, 52, 44
11, 54606, Note_on_c, 7, 53, 0
11, 54660, Note_on_c, 7, 53, 46
11, 54661, Note_on_c, 7, 52, 0
11, 54719, Note_on_c, 7, 48, 48
11, 54720, Note_on_c, 7, 53, 0
11, 54779, Note_on_c, 7, 48, 0
11, 54962, Note_on_c, 7, 48, 46
11, 55022, Note_on_c, 7, 48, 0
11, 55202, Note_on_c, 7, 48, 48
11, 55262, Note_on_c, 7, 48, 0
11, 55439, Note_on_c, 7, 47, 48
11, 55680, Note_on_c, 7, 47, 0
11, 55680, Note_on_c, 7, 48, 48
11, 55738, Note_on_c, 7, 48, 0
11, 55921, Note_on_c, 7, 47, 56
11, 56157, Note_on_c, 7, 48, 48
11, 56164, Note_on_c, 7, 47, 0
11, 56217, Note_on_c, 7, 48, 0
11, 56400, Note_on_c, 7, 47, 48
11, 57120, Note_on_c, 7, 47, 0
11, 59130, Note_on_c, 7, 43, 96
11, 59140, Note_on_c, 7, 45, 96
11, 59141, Note_on_c, 7, 43, 0
11, 59150, Note_on_c, 7, 47, 96
11, 59151, Note_on_c, 7, 45, 0
11, 59160, Note_on_c, 7, 48, 96
11, 59162, Note_on_c, 7, 47, 0
11, 59190, Note_on_c, 7, 48, 0
11, 59250, Note_on_c, 7, 43, 96
11, 59262, Note_on_c, 7, 45, 80
11, 59265, Note_on_c, 7, 43, 0
11, 59271, Note_on_c, 7, 47, 64
11, 59276, Note_on_c, 7, 45, 0
11, 59280, Note_on_c, 7, 48, 48
11, 59281, Note_on_c, 7, 47, 0
11, 60000, Note_on_c, 7, 48, 0
11, 60000, End_track
12, 0, Start_track
12, 0, MIDI_port, 0
12, 0, Title_t, "Double Bass"
12, 0, Program_c, 7, 48
12, 240, Note_on_c, 7, 31, 32
12, 250, Note_on_c, 7, 33, 32
12, 251, Note_on_c, 7, 31, 0
12, 260, Note_on_c, 7, 35, 32
12, 261, Note_on_c, 7, 33, 0
12, 270, Note_on_c, 7, 36, 32
12, 271, Note_on_c, 7, 35, 0
12, 299, Note_on_c, 7, 36, 0
12, 480, Note_on_c, 7, 31, 32
12, 490, Note_on_c, 7, 33, 32
12, 491, Note_on_c, 7, 31, 0
12, 500, Note_on_c, 7, 35, 32
12, 501, Note_on_c, 7, 33, 0
12, 510, Note_on_c, 7, 36, 32
12, 511, Note_on_c, 7, 35, 0
12, 539, Note_on_c, 7, 36, 0
12, 720, Note_on_c, 7, 31, 32
12, 730, Note_on_c, 7, 33, 32
12, 731, Note_on_c, 7, 31, 0
12, 740, Note_on_c, 7, 35, 32
12, 741, Note_on_c, 7, 33, 0
12, 750, Note_on_c, 7, 36, 32
12, 751, Note_on_c, 7, 35, 0
12, 779, Note_on_c, 7, 36, 0
12, 810, Note_on_c, 7, 36, 32
12, 825, Note_on_c, 7, 38, 32
12, 826, Note_on_c, 7, 36, 0
12, 840, Note_on_c, 7, 39, 32
12, 841, Note_on_c, 7, 38, 0
12, 869, Note_on_c, 7, 39, 0
12, 930, Note_on_c, 7, 39, 32
12, 945, Note_on_c, 7, 41, 32
12, 946, Note_on_c, 7, 39, 0
12, 960, Note_on_c, 7, 43, 32
12, 961, Note_on_c, 7, 41, 0
12, 1139, Note_on_c, 7, 43, 0
12, 1170, Note_on_c, 7, 41, 32
12, 1185, Note_on_c, 7, 43, 32
12, 1186, Note_on_c, 7, 41, 0
12, 1200, Note_on_c, 7, 44, 32
12, 1201, Note_on_c, 7, 43, 0
12, 1319, Note_on_c, 7, 44, 0
12, 1380, Note_on_c, 7, 41, 32
12, 1395, Note_on_c, 7, 39, 32
12, 1396, Note_on_c, 7, 41, 0
12, 1410, Note_on_c, 7, 38, 32
12, 1411, Note_on_c, 7, 39, 0
12, 1425, Note_on_c, 7, 36, 32
12, 1426, Note_on_c, 7, 38, 0
12, 1439, Note_on_c, 7, 36, 0
12, 1440, Note_on_c, 7, 35, 64
12, 1559, Note_on_c, 7, 35, 0
12, 1650, Note_on_c, 7, 31, 36
12, 1660, Note_on_c, 7, 33, 34
12, 1661, Note_on_c, 7, 31, 0
12, 1670, Note_on_c, 7, 35, 33
12, 1671, Note_on_c, 7, 33, 0
12, 1680, Note_on_c, 7, 36, 32
12, 1681, Note_on_c, 7, 35, 0
12, 1709, Note_on_c, 7, 36, 0
12, 1770, Note_on_c, 7, 29, 32
12, 1775, Note_on_c, 7, 29, 0
12, 1780, Note_on_c, 7, 29, 32
12, 1785, Note_on_c, 7, 29, 0
12, 1790, Note_on_c, 7, 29, 32
12, 1795, Note_on_c, 7, 29, 0
12, 1800, Note_on_c, 7, 31, 32
12, 1829, Note_on_c, 7, 31, 0
12, 1890, Note_on_c, 7, 31, 32
12, 1895, Note_on_c, 7, 31, 0
12, 1900, Note_on_c, 7, 31, 32
12, 1905, Note_on_c, 7, 31, 0
12, 1910, Note_on_c, 7, 31, 32
12, 1915, Note_on_c, 7, 31, 0
12, 1920, Note_on_c, 7, 36, 32
12, 1979, Note_on_c, 7, 36, 0
12, 1980, Note_on_c, 7, 41, 32
12, 2019, Note_on_c, 7, 41, 0
12, 2025, Note_on_c, 7, 41, 32
12, 2034, Note_on_c, 7, 41, 0
12, 2040, Note_on_c, 7, 36, 32
12, 2099, Note_on_c, 7, 36, 0
12, 2130, Note_on_c, 7, 36, 32
12, 2137, Note_on_c, 7, 36, 0
12, 2140, Note_on_c, 7, 36, 32
12, 2147, Note_on_c, 7, 36, 0
12, 2150, Note_on_c, 7, 36, 32
12, 2157, Note_on_c, 7, 36, 0
12, 2160, Note_on_c, 7, 36, 32
12, 2219, Note_on_c, 7, 36, 0
12, 2370, Note_on_c, 7, 36, 32
12, 2377, Note_on_c, 7, 36, 0
12, 2380, Note_on_c, 7, 36, 32
12, 2387, Note_on_c, 7, 36, 0
12, 2390, Note_on_c, 7, 36, 32
12, 2397, Note_on_c, 7, 36, 0
12, 2400, Note_on_c, 7, 36, 32
12, 2459, Note_on_c, 7, 36, 0
12, 2610, Note_on_c, 7, 36, 32
12, 2617, Note_on_c, 7, 36, 0
12, 2620, Note_on_c, 7, 36, 32
12, 2627, Note_on_c, 7, 36, 0
12, 2630, Note_on_c, 7, 36, 32
12, 2637, Note_on_c, 7, 36, 0
12, 2640, Note_on_c, 7, 36, 32
12, 2699, Note_on_c, 7, 36, 0
12, 2730, Note_on_c, 7, 36, 32
12, 2737, Note_on_c, 7, 36, 0
12, 2740, Note_on_c, 7, 36, 32
12, 2747, Note_on_c, 7, 36, 0
12, 2750, Note_on_c, 7, 36, 32
12, 2757, Note_on_c, 7, 36, 0
12, 2760, Note_on_c, 7, 39, 32
12, 2819, Note_on_c, 7, 39, 0
12, 2850, Note_on_c, 7, 39, 32
12, 2857, Note_on_c, 7, 39, 0
12, 2860, Note_on_c, 7, 39, 32
12, 2867, Note_on_c, 7, 39, 0
12, 2870, Note_on_c, 7, 39, 32
12, 2877, Note_on_c, 7, 39, 0
12, 2880, Note_on_c, 7, 43, 32
12, 2939, Note_on_c, 7, 43, 0
12, 2970, Note_on_c, 7, 43, 32
12, 2977, Note_on_c, 7, 43, 0
12, 2980, Note_on_c, 7, 43, 36
12, 2987, Note_on_c, 7, 43, 0
12, 2990, Note_on_c, 7, 43, 40
12, 2997, Note_on_c, 7, 43, 0
12, 3000, Note_on_c, 7, 43, 36
12, 3059, Note_on_c, 7, 43, 0
12, 3090, Note_on_c, 7, 43, 32
12, 3097, Note_on_c, 7, 43, 0
12, 3100, Note_on_c, 7, 43, 32
12, 3107, Note_on_c, 7, 43, 0
12, 3110, Note_on_c, 7, 43, 32
12, 3117, Note_on_c, 7, 43, 0
12, 3120, Note_on_c, 7, 41, 32
12, 3179, Note_on_c, 7, 41, 0
12, 3330, Note_on_c, 7, 35, 32
12, 3337, Note_on_c, 7, 35, 0
12, 3340, Note_on_c, 7, 35, 32
12, 3347, Note_on_c, 7, 35, 0
12, 3350, Note_on_c, 7, 35, 32
12, 3357, Note_on_c, 7, 35, 0
12, 3360, Note_on_c, 7, 35, 32
12, 3419, Note_on_c, 7, 35, 0
12, 3570, Note_on_c, 7, 35, 32
12, 3577, Note_on_c, 7, 35, 0
12, 3580, Note_on_c, 7, 35, 32
12, 3587, Note_on_c, 7, 35, 0
12, 3590, Note_on_c, 7, 35, 32
12, 3597, Note_on_c, 7, 35, 0
12, 3600, Note_on_c, 7, 34, 32
12, 3659, Note_on_c, 7, 34, 0
12, 3690, Note_on_c, 7, 34, 32
12, 3697, Note_on_c, 7, 34, 0
12, 3700, Note_on_c, 7, 34, 32
12, 3707, Note_on_c, 7, 34, 0
12, 3710, Note_on_c, 7, 34, 32
12, 3717, Note_on_c, 7, 34, 0
12, 3720, Note_on_c, 7, 34, 32
12, 3779, Note_on_c, 7, 34, 0
12, 3810, Note_on_c, 7, 34, 32
12, 3817, Note_on_c, 7, 34, 0
12, 3820, Note_on_c, 7, 34, 32
12, 3827, Note_on_c, 7, 34, 0
12, 3830, Note_on_c, 7, 34, 32
12, 3837, Note_on_c, 7, 34, 0
12, 3840, Note_on_c, 7, 39, 48
12, 3899, Note_on_c, 7, 39, 0
12, 4080, Note_on_c, 7, 43, 48
12, 4200, Note_on_c, 7, 41, 48
12, 4209, Note_on_c, 7, 43, 0
12, 4260, Note_on_c, 7, 39, 48
12, 4269, Note_on_c, 7, 41, 0
12, 4319, Note_on_c, 7, 39, 0
12, 4320, Note_on_c, 7, 38, 48
12, 4379, Note_on_c, 7, 38, 0
12, 4560, Note_on_c, 7, 36, 80
12, 4680, Note_on_c, 7, 34, 88
12, 4689, Note_on_c, 7, 36, 0
12, 4740, Note_on_c, 7, 32, 92
12, 4749, Note_on_c, 7, 34, 0
12, 4799, Note_on_c, 7, 32, 0
12, 4800, Note_on_c, 7, 31, 92
12, 4859, Note_on_c, 7, 31, 0
12, 4905, Note_on_c, 7, 40, 96
12, 4914, Note_on_c, 7, 40, 0
12, 4920, Note_on_c, 7, 40, 96
12, 5039, Note_on_c, 7, 40, 0
12, 5160, Note_on_c, 7, 41, 48
12, 5220, Note_on_c, 7, 43, 48
12, 5229, Note_on_c, 7, 41, 0
12, 5279, Note_on_c, 7, 43, 0
12, 5280, Note_on_c, 7, 44, 48
12, 5400, Note_on_c, 7, 32, 96
12, 5409, Note_on_c, 7, 44, 0
12, 5519, Note_on_c, 7, 32, 0
12, 5520, Note_on_c, 7, 31, 48
12, 5754, Note_on_c, 7, 31, 0
12, 5760, Note_on_c, 7, 31, 48
12, 5994, Note_on_c, 7, 31, 0
12, 6000, Note_on_c, 7, 31, 48
12, 6234, Note_on_c, 7, 31, 0
12, 6240, Note_on_c, 7, 31, 56
12, 6474, Note_on_c, 7, 31, 0
12, 6480, Note_on_c, 7, 31, 48
12, 6539, Note_on_c, 7, 31, 0
12, 7320, Note_on_c, 7, 36, 96
12, 7439, Note_on_c, 7, 36, 0
12, 7440, Note_on_c, 7, 29, 48
12, 7559, Note_on_c, 7, 29, 0
12, 7650, Note_on_c, 7, 41, 48
12, 7665, Note_on_c, 7, 39, 48
12, 7666, Note_on_c, 7, 41, 0
12, 7680, Note_on_c, 7, 37, 48
12, 7681, Note_on_c, 7, 39, 0
12, 7799, Note_on_c, 7, 37, 0
12, 7890, Note_on_c, 7, 37, 48
12, 7905, Note_on_c, 7, 36, 48
12, 7906, Note_on_c, 7, 37, 0
12, 7920, Note_on_c, 7, 35, 48
12, 7921, Note_on_c, 7, 36, 0
12, 7979, Note_on_c, 7, 35, 0
12, 8010, Note_on_c, 7, 35, 68
12, 8017, Note_on_c, 7, 35, 0
12, 8020, Note_on_c, 7, 35, 68
12, 8027, Note_on_c, 7, 35, 0
12, 8030, Note_on_c, 7, 35, 68
12, 8037, Note_on_c, 7, 35, 0
12, 8040, Note_on_c, 7, 41, 72
12, 8099, Note_on_c, 7, 41, 0
12, 8130, Note_on_c, 7, 41, 92
12, 8137, Note_on_c, 7, 41, 0
12, 8140, Note_on_c, 7, 41, 92
12, 8147, Note_on_c, 7, 41, 0
12, 8150, Note_on_c, 7, 41, 92
12, 8157, Note_on_c, 7, 41, 0
12, 8160, Note_on_c, 7, 39, 96
12, 8189, Note_on_c, 7, 39, 0
12, 8220, Note_on_c, 7, 41, 96
12, 8249, Note_on_c, 7, 41, 0
12, 8340, Note_on_c, 7, 32, 48
12, 8459, Note_on_c, 7, 32, 0
12, 8460, Note_on_c, 7, 31, 96
12, 8574, Note_on_c, 7, 31, 0
12, 8580, Note_on_c, 7, 31, 56
12, 8639, Note_on_c, 7, 31, 0
12, 8640, Note_on_c, 7, 36, 48
12, 8669, Note_on_c, 7, 36, 0
12, 8700, Note_on_c, 7, 44, 48
12, 8722, Note_on_c, 7, 44, 0
12, 8745, Note_on_c, 7, 44, 48
12, 8752, Note_on_c, 7, 44, 0
12, 8760, Note_on_c, 7, 38, 48
12, 8789, Note_on_c, 7, 38, 0
12, 8820, Note_on_c, 7, 46, 48
12, 8842, Note_on_c, 7, 46, 0
12, 8865, Note_on_c, 7, 46, 48
12, 8872, Note_on_c, 7, 46, 0
12, 8880, Note_on_c, 7, 39, 48
12, 8939, Note_on_c, 7, 39, 0
12, 9090, Note_on_c, 7, 39, 48
12, 9097, Note_on_c, 7, 39, 0
12, 9100, Note_on_c, 7, 39, 48
12, 9107, Note_on_c, 7, 39, 0
12, 9110, Note_on_c, 7, 39, 48
12, 9117, Note_on_c, 7, 39, 0
12, 9120, Note_on_c, 7, 34, 48
12, 9179, Note_on_c, 7, 34, 0
12, 9330, Note_on_c, 7, 34, 67
12, 9337, Note_on_c, 7, 34, 0
12, 9340, Note_on_c, 7, 34, 72
12, 9347, Note_on_c, 7, 34, 0
12, 9350, Note_on_c, 7, 34, 76
12, 9357, Note_on_c, 7, 34, 0
12, 9360, Note_on_c, 7, 36, 80
12, 9419, Note_on_c, 7, 36, 0
12, 9450, Note_on_c, 7, 36, 84
12, 9457, Note_on_c, 7, 36, 0
12, 9460, Note_on_c, 7, 36, 84
12, 9467, Note_on_c, 7, 36, 0
12, 9470, Note_on_c, 7, 36, 84
12, 9477, Note_on_c, 7, 36, 0
12, 9480, Note_on_c, 7, 34, 88
12, 9539, Note_on_c, 7, 34, 0
12, 9570, Note_on_c, 7, 32, 88
12, 9577, Note_on_c, 7, 32, 0
12, 9580, Note_on_c, 7, 32, 88
12, 9587, Note_on_c, 7, 32, 0
12, 9590, Note_on_c, 7, 32, 88
12, 9597, Note_on_c, 7, 32, 0
12, 9600, Note_on_c, 7, 31, 92
12, 9659, Note_on_c, 7, 31, 0
12, 9690, Note_on_c, 7, 40, 96
12, 9697, Note_on_c, 7, 40, 0
12, 9700, Note_on_c, 7, 40, 96
12, 9707, Note_on_c, 7, 40, 0
12, 9710, Note_on_c, 7, 40, 96
12, 9717, Note_on_c, 7, 40, 0
12, 9720, Note_on_c, 7, 40, 96
12, 9779, Note_on_c, 7, 40, 0
12, 9810, Note_on_c, 7, 40, 96
12, 9817, Note_on_c, 7, 40, 0
12, 9820, Note_on_c, 7, 40, 96
12, 9827, Note_on_c, 7, 40, 0
12, 9830, Note_on_c, 7, 40, 96
12, 9837, Note_on_c, 7, 40, 0
12, 9840, Note_on_c, 7, 40, 48
12, 9899, Note_on_c, 7, 40, 0
12, 9930, Note_on_c, 7, 40, 48
12, 9937, Note_on_c, 7, 40, 0
12, 9940, Note_on_c, 7, 40, 48
12, 9947, Note_on_c, 7, 40, 0
12, 9950, Note_on_c, 7, 40, 48
12, 9957, Note_on_c, 7, 40, 0
12, 9960, Note_on_c, 7, 41, 48
12, 10019, Note_on_c, 7, 41, 0
12, 10050, Note_on_c, 7, 43, 48
12, 10057, Note_on_c, 7, 43, 0
12, 10060, Note_on_c, 7, 43, 48
12, 10067, Note_on_c, 7, 43, 0
12, 10070, Note_on_c, 7, 43, 48
12, 10077, Note_on_c, 7, 43, 0
12, 10080, Note_on_c, 7, 44, 48
12, 10139, Note_on_c, 7, 44, 0
12, 10170, Note_on_c, 7, 32, 48
12, 10177, Note_on_c, 7, 32, 0
12, 10180, Note_on_c, 7, 32, 48
12, 10187, Note_on_c, 7, 32, 0
12, 10190, Note_on_c, 7, 32, 48
12, 10197, Note_on_c, 7, 32, 0
12, 10200, Note_on_c, 7, 32, 56
12, 10259, Note_on_c, 7, 32, 0
12, 10290, Note_on_c, 7, 32, 48
12, 10297, Note_on_c, 7, 32, 0
12, 10300, Note_on_c, 7, 32, 48
12, 10307, Note_on_c, 7, 32, 0
12, 10310, Note_on_c, 7, 32, 48
12, 10317, Note_on_c, 7, 32, 0
12, 10320, Note_on_c, 7, 31, 48
12, 10379, Note_on_c, 7, 31, 0
12, 10530, Note_on_c, 7, 31, 48
12, 10537, Note_on_c, 7, 31, 0
12, 10540, Note_on_c, 7, 31, 48
12, 10547, Note_on_c, 7, 31, 0
12, 10550, Note_on_c, 7, 31, 48
12, 10557, Note_on_c, 7, 31, 0
12, 10560, Note_on_c, 7, 31, 48
12, 10619, Note_on_c, 7, 31, 0
12, 10770, Note_on_c, 7, 31, 48
12, 10777, Note_on_c, 7, 31, 0
12, 10780, Note_on_c, 7, 31, 48
12, 10787, Note_on_c, 7, 31, 0
12, 10790, Note_on_c, 7, 31, 48
12, 10797, Note_on_c, 7, 31, 0
12, 10800, Note_on_c, 7, 31, 48
12, 10859, Note_on_c, 7, 31, 0
12, 11010, Note_on_c, 7, 31, 48
12, 11017, Note_on_c, 7, 31, 0
12, 11020, Note_on_c, 7, 31, 52
12, 11027, Note_on_c, 7, 31, 0
12, 11030, Note_on_c, 7, 31, 52
12, 11037, Note_on_c, 7, 31, 0
12, 11040, Note_on_c, 7, 31, 56
12, 11099, Note_on_c, 7, 31, 0
12, 11130, Note_on_c, 7, 31, 56
12, 11137, Note_on_c, 7, 31, 0
12, 11140, Note_on_c, 7, 31, 56
12, 11147, Note_on_c, 7, 31, 0
12, 11150, Note_on_c, 7, 31, 56
12, 11157, Note_on_c, 7, 31, 0
12, 11160, Note_on_c, 7, 31, 52
12, 11219, Note_on_c, 7, 31, 0
12, 11250, Note_on_c, 7, 31, 52
12, 11257, Note_on_c, 7, 31, 0
12, 11260, Note_on_c, 7, 31, 52
12, 11267, Note_on_c, 7, 31, 0
12, 11270, Note_on_c, 7, 31, 52
12, 11277, Note_on_c, 7, 31, 0
12, 11280, Note_on_c, 7, 31, 48
12, 11339, Note_on_c, 7, 31, 0
12, 12210, Note_on_c, 7, 36, 96
12, 12217, Note_on_c, 7, 36, 0
12, 12220, Note_on_c, 7, 36, 96
12, 12227, Note_on_c, 7, 36, 0
12, 12230, Note_on_c, 7, 36, 96
12, 12237, Note_on_c, 7, 36, 0
12, 12240, Note_on_c, 7, 41, 48
12, 12299, Note_on_c, 7, 41, 0
12, 12450, Note_on_c, 7, 41, 48
12, 12457, Note_on_c, 7, 41, 0
12, 12460, Note_on_c, 7, 41, 48
12, 12467, Note_on_c, 7, 41, 0
12, 12470, Note_on_c, 7, 41, 48
12, 12477, Note_on_c, 7, 41, 0
12, 12480, Note_on_c, 7, 37, 48
12, 12539, Note_on_c, 7, 37, 0
12, 12690, Note_on_c, 7, 37, 48
12, 12697, Note_on_c, 7, 37, 0
12, 12700, Note_on_c, 7, 37, 48
12, 12707, Note_on_c, 7, 37, 0
12, 12710, Note_on_c, 7, 37, 48
12, 12717, Note_on_c, 7, 37, 0
12, 12720, Note_on_c, 7, 35, 48
12, 12779, Note_on_c, 7, 35, 0
12, 12810, Note_on_c, 7, 35, 68
12, 12817, Note_on_c, 7, 35, 0
12, 12820, Note_on_c, 7, 35, 68
12, 12827, Note_on_c, 7, 35, 0
12, 12830, Note_on_c, 7, 35, 68
12, 12837, Note_on_c, 7, 35, 0
12, 12840, Note_on_c, 7, 41, 72
12, 12899, Note_on_c, 7, 41, 0
12, 12930, Note_on_c, 7, 41, 92
12, 12937, Note_on_c, 7, 41, 0
12, 12940, Note_on_c, 7, 41, 92
12, 12947, Note_on_c, 7, 41, 0
12, 12950, Note_on_c, 7, 41, 92
12, 12957, Note_on_c, 7, 41, 0
12, 12960, Note_on_c, 7, 39, 96
12, 12989, Note_on_c, 7, 39, 0
12, 13020, Note_on_c, 7, 41, 96
12, 13049, Note_on_c, 7, 41, 0
12, 13170, Note_on_c, 7, 44, 48
12, 13177, Note_on_c, 7, 44, 0
12, 13180, Note_on_c, 7, 44, 48
12, 13187, Note_on_c, 7, 44, 0
12, 13190, Note_on_c, 7, 44, 48
12, 13197, Note_on_c, 7, 44, 0
12, 13200, Note_on_c, 7, 44, 48
12, 13259, Note_on_c, 7, 44, 0
12, 13290, Note_on_c, 7, 43, 52
12, 13297, Note_on_c, 7, 43, 0
12, 13300, Note_on_c, 7, 43, 52
12, 13307, Note_on_c, 7, 43, 0
12, 13310, Note_on_c, 7, 43, 52
12, 13317, Note_on_c, 7, 43, 0
12, 13320, Note_on_c, 7, 43, 56
12, 13379, Note_on_c, 7, 43, 0
12, 13410, Note_on_c, 7, 31, 52
12, 13417, Note_on_c, 7, 31, 0
12, 13420, Note_on_c, 7, 31, 52
12, 13427, Note_on_c, 7, 31, 0
12, 13430, Note_on_c, 7, 31, 52
12, 13437, Note_on_c, 7, 31, 0
12, 13440, Note_on_c, 7, 36, 48
12, 13469, Note_on_c, 7, 36, 0
12, 14850, Note_on_c, 7, 42, 48
12, 14857, Note_on_c, 7, 42, 0
12, 14860, Note_on_c, 7, 42, 48
12, 14867, Note_on_c, 7, 42, 0
12, 14870, Note_on_c, 7, 42, 48
12, 14877, Note_on_c, 7, 42, 0
12, 14880, Note_on_c, 7, 43, 48
12, 14939, Note_on_c, 7, 43, 0
12, 14970, Note_on_c, 7, 43, 48
12, 14977, Note_on_c, 7, 43, 0
12, 14980, Note_on_c, 7, 43, 48
12, 14987, Note_on_c, 7, 43, 0
12, 14990, Note_on_c, 7, 43, 48
12, 14997, Note_on_c, 7, 43, 0
12, 15000, Note_on_c, 7, 31, 48
12, 15059, Note_on_c, 7, 31, 0
12, 15090, Note_on_c, 7, 31, 48
12, 15097, Note_on_c, 7, 31, 0
12, 15100, Note_on_c, 7, 31, 48
12, 15107, Note_on_c, 7, 31, 0
12, 15110, Note_on_c, 7, 31, 48
12, 15117, Note_on_c, 7, 31, 0
12, 15120, Note_on_c, 7, 36, 48
12, 15179, Note_on_c, 7, 36, 0
12, 15360, Note_on_c, 7, 43, 48
12, 15419, Note_on_c, 7, 43, 0
12, 15450, Note_on_c, 7, 43, 48
12, 15457, Note_on_c, 7, 43, 0
12, 15460, Note_on_c, 7, 43, 48
12, 15467, Note_on_c, 7, 43, 0
12, 15470, Note_on_c, 7, 43, 48
12, 15477, Note_on_c, 7, 43, 0
12, 15480, Note_on_c, 7, 31, 48
12, 15539, Note_on_c, 7, 31, 0
12, 15570, Note_on_c, 7, 31, 48
12, 15577, Note_on_c, 7, 31, 0
12, 15580, Note_on_c, 7, 31, 48
12, 15587, Note_on_c, 7, 31, 0
12, 15590, Note_on_c, 7, 31, 48
12, 15597, Note_on_c, 7, 31, 0
12, 15600, Note_on_c, 7, 36, 48
12, 15659, Note_on_c, 7, 36, 0
12, 15660, Note_on_c, 7, 44, 96
12, 15720, Note_on_c, 7, 43, 48
12, 15729, Note_on_c, 7, 44, 0
12, 15780, Note_on_c, 7, 39, 96
12, 15789, Note_on_c, 7, 43, 0
12, 15840, Note_on_c, 7, 36, 64
12, 15849, Note_on_c, 7, 39, 0
12, 15899, Note_on_c, 7, 36, 0
12, 15900, Note_on_c, 7, 32, 96
12, 15944, Note_on_c, 7, 32, 0
12, 15945, Note_on_c, 7, 41, 96
12, 15959, Note_on_c, 7, 41, 0
12, 15960, Note_on_c, 7, 38, 96
12, 15989, Note_on_c, 7, 38, 0
12, 16020, Note_on_c, 7, 43, 96
12, 16049, Note_on_c, 7, 43, 0
12, 16080, Note_on_c, 7, 36, 48
12, 16109, Note_on_c, 7, 36, 0
12, 16200, Note_on_c, 7, 36, 48
12, 16229, Note_on_c, 7, 36, 0
12, 16320, Note_on_c, 7, 36, 48
12, 16349, Note_on_c, 7, 36, 0
12, 16380, Note_on_c, 7, 31, 48
12, 16409, Note_on_c, 7, 31, 0
12, 16440, Note_on_c, 7, 33, 48
12, 16469, Note_on_c, 7, 33, 0
12, 16500, Note_on_c, 7, 35, 48
12, 16529, Note_on_c, 7, 35, 0
12, 16560, Note_on_c, 7, 36, 48
12, 16854, Note_on_c, 7, 36, 0
12, 16860, Note_on_c, 7, 36, 48
12, 16889, Note_on_c, 7, 36, 0
12, 16920, Note_on_c, 7, 38, 48
12, 16949, Note_on_c, 7, 38, 0
12, 16980, Note_on_c, 7, 40, 48
12, 17009, Note_on_c, 7, 40, 0
12, 17040, Note_on_c, 7, 41, 48
12, 17334, Note_on_c, 7, 41, 0
12, 17340, Note_on_c, 7, 38, 48
12, 17369, Note_on_c, 7, 38, 0
12, 17400, Note_on_c, 7, 40, 48
12, 17429, Note_on_c, 7, 40, 0
12, 17460, Note_on_c, 7, 41, 48
12, 17489, Note_on_c, 7, 41, 0
12, 17520, Note_on_c, 7, 43, 48
12, 17759, Note_on_c, 7, 43, 0
12, 17760, Note_on_c, 7, 44, 48
12, 17789, Note_on_c, 7, 44, 0
12, 17820, Note_on_c, 7, 50, 58
12, 17849, Note_on_c, 7, 50, 0
12, 17880, Note_on_c, 7, 47, 68
12, 17909, Note_on_c, 7, 47, 0
12, 17940, Note_on_c, 7, 44, 78
12, 17969, Note_on_c, 7, 44, 0
12, 18000, Note_on_c, 7, 45, 88
12, 18029, Note_on_c, 7, 45, 0
12, 18060, Note_on_c, 7, 36, 98
12, 18089, Note_on_c, 7, 36, 0
12, 18120, Note_on_c, 7, 38, 108
12, 18149, Note_on_c, 7, 38, 0
12, 18180, Note_on_c, 7, 38, 118
12, 18209, Note_on_c, 7, 38, 0
12, 18240, Note_on_c, 7, 31, 127
12, 18247, Note_on_c, 7, 31, 0
12, 18250, Note_on_c, 7, 31, 127
12, 18257, Note_on_c, 7, 31, 0
12, 18260, Note_on_c, 7, 31, 127
12, 18267, Note_on_c, 7, 31, 0
12, 18270, Note_on_c, 7, 31, 127
12, 18277, Note_on_c, 7, 31, 0
12, 18280, Note_on_c, 7, 31, 127
12, 18287, Note_on_c, 7, 31, 0
12, 18290, Note_on_c, 7, 31, 127
12, 18297, Note_on_c, 7, 31, 0
12, 18300, Note_on_c, 7, 31, 127
12, 18307, Note_on_c, 7, 31, 0
12, 18310, Note_on_c, 7, 31, 127
12, 18317, Note_on_c, 7, 31, 0
12, 18320, Note_on_c, 7, 31, 127
12, 18327, Note_on_c, 7, 31, 0
12, 18330, Note_on_c, 7, 31, 127
12, 18337, Note_on_c, 7, 31, 0
12, 18340, Note_on_c, 7, 31, 127
12, 18347, Note_on_c, 7, 31, 0
12, 18350, Note_on_c, 7, 31, 127
12, 18357, Note_on_c, 7, 31, 0
12, 18360, Note_on_c, 7, 31, 127
12, 18389, Note_on_c, 7, 31, 0
12, 18480, Note_on_c, 7, 31, 127
12, 18487, Note_on_c, 7, 31, 0
12, 18490, Note_on_c, 7, 31, 127
12, 18497, Note_on_c, 7, 31, 0
12, 18500, Note_on_c, 7, 31, 127
12, 18507, Note_on_c, 7, 31, 0
12, 18510, Note_on_c, 7, 31, 127
12, 18517, Note_on_c, 7, 31, 0
12, 18520, Note_on_c, 7, 31, 127
12, 18527, Note_on_c, 7, 31, 0
12, 18530, Note_on_c, 7, 31, 127
12, 18537, Note_on_c, 7, 31, 0
12, 18540, Note_on_c, 7, 31, 127
12, 18547, Note_on_c, 7, 31, 0
12, 18550, Note_on_c, 7, 31, 127
12, 18557, Note_on_c, 7, 31, 0
12, 18560, Note_on_c, 7, 31, 127
12, 18567, Note_on_c, 7, 31, 0
12, 18570, Note_on_c, 7, 31, 127
12, 18577, Note_on_c, 7, 31, 0
12, 18580, Note_on_c, 7, 31, 127
12, 18587, Note_on_c, 7, 31, 0
12, 18590, Note_on_c, 7, 31, 127
12, 18597, Note_on_c, 7, 31, 0
12, 18600, Note_on_c, 7, 31, 127
12, 18629, Note_on_c, 7, 31, 0
12, 18720, Note_on_c, 7, 31, 127
12, 18749, Note_on_c, 7, 31, 0
12, 18840, Note_on_c, 7, 31, 127
12, 18869, Note_on_c, 7, 31, 0
12, 18960, Note_on_c, 7, 31, 127
12, 18989, Note_on_c, 7, 31, 0
12, 19200, Note_on_c, 7, 36, 48
12, 19259, Note_on_c, 7, 36, 0
12, 19500, Note_on_c, 7, 43, 48
12, 19529, Note_on_c, 7, 43, 0
12, 19560, Note_on_c, 7, 40, 48
12, 19589, Note_on_c, 7, 40, 0
12, 19620, Note_on_c, 7, 36, 48
12, 19649, Note_on_c, 7, 36, 0
12, 19680, Note_on_c, 7, 41, 48
12, 19709, Note_on_c, 7, 41, 0
12, 19800, Note_on_c, 7, 36, 64
12, 19829, Note_on_c, 7, 36, 0
12, 19920, Note_on_c, 7, 41, 80
12, 19949, Note_on_c, 7, 41, 0
12, 20040, Note_on_c, 7, 36, 96
12, 20069, Note_on_c, 7, 36, 0
12, 20160, Note_on_c, 7, 41, 48
12, 20189, Note_on_c, 7, 41, 0
12, 20220, Note_on_c, 7, 37, 48
12, 20249, Note_on_c, 7, 37, 0
12, 20280, Note_on_c, 7, 38, 48
12, 20309, Note_on_c, 7, 38, 0
12, 20340, Note_on_c, 7, 40, 48
12, 20369, Note_on_c, 7, 40, 0
12, 20400, Note_on_c, 7, 41, 48
12, 20429, Note_on_c, 7, 41, 0
12, 20460, Note_on_c, 7, 40, 48
12, 20489, Note_on_c, 7, 40, 0
12, 20520, Note_on_c, 7, 41, 48
12, 20549, Note_on_c, 7, 41, 0
12, 20580, Note_on_c, 7, 42, 48
12, 20609, Note_on_c, 7, 42, 0
12, 20640, Note_on_c, 7, 43, 48
12, 20669, Note_on_c, 7, 43, 0
12, 20700, Note_on_c, 7, 41, 48
12, 20729, Note_on_c, 7, 41, 0
12, 20760, Note_on_c, 7, 40, 48
12, 20789, Note_on_c, 7, 40, 0
12, 20820, Note_on_c, 7, 36, 48
12, 20849, Note_on_c, 7, 36, 0
12, 20880, Note_on_c, 7, 43, 48
12, 20909, Note_on_c, 7, 43, 0
12, 20940, Note_on_c, 7, 41, 48
12, 20969, Note_on_c, 7, 41, 0
12, 21000, Note_on_c, 7, 40, 48
12, 21029, Note_on_c, 7, 40, 0
12, 21060, Note_on_c, 7, 36, 48
12, 21089, Note_on_c, 7, 36, 0
12, 21120, Note_on_c, 7, 31, 48
12, 21179, Note_on_c, 7, 31, 0
12, 21300, Note_on_c, 7, 55, 48
12, 21309, Note_on_c, 7, 55, 0
12, 21320, Note_on_c, 7, 54, 48
12, 21329, Note_on_c, 7, 54, 0
12, 21340, Note_on_c, 7, 55, 48
12, 21349, Note_on_c, 7, 55, 0
12, 21360, Note_on_c, 7, 53, 48
12, 21369, Note_on_c, 7, 53, 0
12, 21380, Note_on_c, 7, 52, 48
12, 21389, Note_on_c, 7, 52, 0
12, 21400, Note_on_c, 7, 53, 48
12, 21409, Note_on_c, 7, 53, 0
12, 21420, Note_on_c, 7, 50, 48
12, 21429, Note_on_c, 7, 50, 0
12, 21440, Note_on_c, 7, 49, 48
12, 21449, Note_on_c, 7, 49, 0
12, 21460, Note_on_c, 7, 50, 48
12, 21469, Note_on_c, 7, 50, 0
12, 21480, Note_on_c, 7, 47, 48
12, 21489, Note_on_c, 7, 47, 0
12, 21500, Note_on_c, 7, 46, 48
12, 21509, Note_on_c, 7, 46, 0
12, 21520, Note_on_c, 7, 47, 48
12, 21529, Note_on_c, 7, 47, 0
12, 21540, Note_on_c, 7, 41, 48
12, 21549, Note_on_c, 7, 41, 0
12, 21560, Note_on_c, 7, 40, 48
12, 21569, Note_on_c, 7, 40, 0
12, 21580, Note_on_c, 7, 41, 48
12, 21589, Note_on_c, 7, 41, 0
12, 21600, Note_on_c, 7, 40, 48
12, 21659, Note_on_c, 7, 40, 0
12, 21840, Note_on_c, 7, 36, 48
12, 21899, Note_on_c, 7, 36, 0
12, 22080, Note_on_c, 7, 33, 48
12, 22139, Note_on_c, 7, 33, 0
12, 22320, Note_on_c, 7, 29, 60
12, 22379, Note_on_c, 7, 29, 0
12, 22560, Note_on_c, 7, 43, 72
12, 22619, Note_on_c, 7, 43, 0
12, 22680, Note_on_c, 7, 41, 78
12, 22739, Note_on_c, 7, 41, 0
12, 22800, Note_on_c, 7, 40, 84
12, 22859, Note_on_c, 7, 40, 0
12, 22920, Note_on_c, 7, 41, 90
12, 22979, Note_on_c, 7, 41, 0
12, 23040, Note_on_c, 7, 31, 96
12, 23059, Note_on_c, 7, 31, 0
12, 23060, Note_on_c, 7, 43, 96
12, 23079, Note_on_c, 7, 43, 0
12, 23080, Note_on_c, 7, 43, 96
12, 23099, Note_on_c, 7, 43, 0
12, 23100, Note_on_c, 7, 43, 96
12, 23119, Note_on_c, 7, 43, 0
12, 23120, Note_on_c, 7, 43, 96
12, 23139, Note_on_c, 7, 43, 0
12, 23140, Note_on_c, 7, 43, 96
12, 23159, Note_on_c, 7, 43, 0
12, 23160, Note_on_c, 7, 43, 112
12, 23179, Note_on_c, 7, 43, 0
12, 23180, Note_on_c, 7, 43, 112
12, 23199, Note_on_c, 7, 43, 0
12, 23200, Note_on_c, 7, 43, 112
12, 23219, Note_on_c, 7, 43, 0
12, 23220, Note_on_c, 7, 43, 112
12, 23239, Note_on_c, 7, 43, 0
12, 23240, Note_on_c, 7, 43, 112
12, 23259, Note_on_c, 7, 43, 0
12, 23260, Note_on_c, 7, 43, 112
12, 23279, Note_on_c, 7, 43, 0
12, 23280, Note_on_c, 7, 31, 112
12, 23299, Note_on_c, 7, 31, 0
12, 23300, Note_on_c, 7, 31, 112
12, 23319, Note_on_c, 7, 31, 0
12, 23320, Note_on_c, 7, 31, 112
12, 23339, Note_on_c, 7, 31, 0
12, 23340, Note_on_c, 7, 31, 112
12, 23359, Note_on_c, 7, 31, 0
12, 23360, Note_on_c, 7, 31, 112
12, 23379, Note_on_c, 7, 31, 0
12, 23380, Note_on_c, 7, 31, 112
12, 23399, Note_on_c, 7, 31, 0
12, 23400, Note_on_c, 7, 31, 112
12, 23419, Note_on_c, 7, 31, 0
12, 23420, Note_on_c, 7, 31, 112
12, 23439, Note_on_c, 7, 31, 0
12, 23440, Note_on_c, 7, 31, 112
12, 23459, Note_on_c, 7, 31, 0
12, 23460, Note_on_c, 7, 31, 112
12, 23479, Note_on_c, 7, 31, 0
12, 23480, Note_on_c, 7, 31, 112
12, 23499, Note_on_c, 7, 31, 0
12, 23500, Note_on_c, 7, 31, 112
12, 23519, Note_on_c, 7, 31, 0
12, 23520, Note_on_c, 7, 36, 127
12, 23529, Note_on_c, 7, 36, 0
12, 23530, Note_on_c, 7, 48, 127
12, 23539, Note_on_c, 7, 48, 0
12, 23540, Note_on_c, 7, 48, 127
12, 23549, Note_on_c, 7, 48, 0
12, 23550, Note_on_c, 7, 48, 127
12, 23559, Note_on_c, 7, 48, 0
12, 23560, Note_on_c, 7, 48, 127
12, 23569, Note_on_c, 7, 48, 0
12, 23570, Note_on_c, 7, 48, 127
12, 23579, Note_on_c, 7, 48, 0
12, 23580, Note_on_c, 7, 48, 127
12, 23589, Note_on_c, 7, 48, 0
12, 23590, Note_on_c, 7, 48, 127
12, 23599, Note_on_c, 7, 48, 0
12, 23600, Note_on_c, 7, 48, 127
12, 23609, Note_on_c, 7, 48, 0
12, 23610, Note_on_c, 7, 48, 127
12, 23619, Note_on_c, 7, 48, 0
12, 23620, Note_on_c, 7, 48, 127
12, 23629, Note_on_c, 7, 48, 0
12, 23630, Note_on_c, 7, 48, 127
12, 23639, Note_on_c, 7, 48, 0
12, 23640, Note_on_c, 7, 48, 127
12, 23669, Note_on_c, 7, 48, 0
12, 23760, Note_on_c, 7, 36, 127
12, 23769, Note_on_c, 7, 36, 0
12, 23770, Note_on_c, 7, 48, 127
12, 23779, Note_on_c, 7, 48, 0
12, 23780, Note_on_c, 7, 48, 127
12, 23789, Note_on_c, 7, 48, 0
12, 23790, Note_on_c, 7, 48, 127
12, 23799, Note_on_c, 7, 48, 0
12, 23800, Note_on_c, 7, 48, 127
12, 23809, Note_on_c, 7, 48, 0
12, 23810, Note_on_c, 7, 48, 127
12, 23819, Note_on_c, 7, 48, 0
12, 23820, Note_on_c, 7, 48, 127
12, 23829, Note_on_c, 7, 48, 0
12, 23830, Note_on_c, 7, 48, 127
12, 23839, Note_on_c, 7, 48, 0
12, 23840, Note_on_c, 7, 48, 127
12, 23849, Note_on_c, 7, 48, 0
12, 23850, Note_on_c, 7, 48, 127
12, 23859, Note_on_c, 7, 48, 0
12, 23860, Note_on_c, 7, 48, 127
12, 23869, Note_on_c, 7, 48, 0
12, 23870, Note_on_c, 7, 48, 127
12, 23879, Note_on_c, 7, 48, 0
12, 23880, Note_on_c, 7, 48, 127
12, 23909, Note_on_c, 7, 48, 0
12, 24000, Note_on_c, 7, 36, 127
12, 24029, Note_on_c, 7, 36, 0
12, 24120, Note_on_c, 7, 36, 127
12, 24149, Note_on_c, 7, 36, 0
12, 24240, Note_on_c, 7, 48, 96
12, 24269, Note_on_c, 7, 48, 0
12, 24270, Note_on_c, 7, 48, 48
12, 24480, Note_on_c, 7, 44, 48
12, 24489, Note_on_c, 7, 48, 0
12, 24660, Note_on_c, 7, 41, 48
12, 24669, Note_on_c, 7, 44, 0
12, 24719, Note_on_c, 7, 41, 0
12, 24720, Note_on_c, 7, 37, 48
12, 24780, Note_on_c, 7, 44, 56
12, 24789, Note_on_c, 7, 37, 0
12, 24825, Note_on_c, 7, 41, 56
12, 24826, Note_on_c, 7, 44, 0
12, 24839, Note_on_c, 7, 41, 0
12, 24840, Note_on_c, 7, 37, 60
12, 24869, Note_on_c, 7, 37, 0
12, 24900, Note_on_c, 7, 36, 60
12, 24929, Note_on_c, 7, 36, 0
12, 24960, Note_on_c, 7, 35, 48
12, 25019, Note_on_c, 7, 35, 0
12, 25200, Note_on_c, 7, 31, 48
12, 25210, Note_on_c, 7, 33, 48
12, 25211, Note_on_c, 7, 31, 0
12, 25220, Note_on_c, 7, 35, 48
12, 25221, Note_on_c, 7, 33, 0
12, 25230, Note_on_c, 7, 36, 48
12, 25231, Note_on_c, 7, 35, 0
12, 25259, Note_on_c, 7, 36, 0
12, 25440, Note_on_c, 7, 31, 48
12, 25450, Note_on_c, 7, 33, 48
12, 25451, Note_on_c, 7, 31, 0
12, 25460, Note_on_c, 7, 35, 48
12, 25461, Note_on_c, 7, 33, 0
12, 25470, Note_on_c, 7, 36, 48
12, 25471, Note_on_c, 7, 35, 0
12, 25499, Note_on_c, 7, 36, 0
12, 25680, Note_on_c, 7, 31, 48
12, 25690, Note_on_c, 7, 33, 48
12, 25691, Note_on_c, 7, 31, 0
12, 25700, Note_on_c, 7, 35, 48
12, 25701, Note_on_c, 7, 33, 0
12, 25710, Note_on_c, 7, 36, 48
12, 25711, Note_on_c, 7, 35, 0
12, 25739, Note_on_c, 7, 36, 0
12, 25770, Note_on_c, 7, 36, 48
12, 25785, Note_on_c, 7, 38, 48
12, 25786, Note_on_c, 7, 36, 0
12, 25800, Note_on_c, 7, 39, 48
12, 25801, Note_on_c, 7, 38, 0
12, 25829, Note_on_c, 7, 39, 0
12, 25890, Note_on_c, 7, 39, 48
12, 25905, Note_on_c, 7, 41, 48
12, 25906, Note_on_c, 7, 39, 0
12, 25920, Note_on_c, 7, 43, 48
12, 25921, Note_on_c, 7, 41, 0
12, 26099, Note_on_c, 7, 43, 0
12, 26130, Note_on_c, 7, 41, 48
12, 26145, Note_on_c, 7, 43, 48
12, 26146, Note_on_c, 7, 41, 0
12, 26160, Note_on_c, 7, 44, 48
12, 26161, Note_on_c, 7, 43, 0
12, 26279, Note_on_c, 7, 44, 0
12, 26340, Note_on_c, 7, 41, 48
12, 26355, Note_on_c, 7, 39, 48
12, 26356, Note_on_c, 7, 41, 0
12, 26370, Note_on_c, 7, 38, 48
12, 26371, Note_on_c, 7, 39, 0
12, 26385, Note_on_c, 7, 36, 48
12, 26386, Note_on_c, 7, 38, 0
12, 26399, Note_on_c, 7, 36, 0
12, 26400, Note_on_c, 7, 35, 48
12, 26459, Note_on_c, 7, 35, 0
12, 26610, Note_on_c, 7, 46, 48
12, 26625, Note_on_c, 7, 48, 48
12, 26629, Note_on_c, 7, 46, 0
12, 26640, Note_on_c, 7, 49, 48
12, 26644, Note_on_c, 7, 48, 0
12, 26699, Note_on_c, 7, 49, 0
12, 26820, Note_on_c, 7, 46, 48
12, 26835, Note_on_c, 7, 44, 48
12, 26839, Note_on_c, 7, 46, 0
12, 26850, Note_on_c, 7, 43, 48
12, 26854, Note_on_c, 7, 44, 0
12, 26865, Note_on_c, 7, 41, 48
12, 26869, Note_on_c, 7, 43, 0
12, 26880, Note_on_c, 7, 40, 64
12, 26884, Note_on_c, 7, 41, 0
12, 26939, Note_on_c, 7, 40, 0
12, 27090, Note_on_c, 7, 36, 52
12, 27100, Note_on_c, 7, 38, 52
12, 27101, Note_on_c, 7, 36, 0
12, 27110, Note_on_c, 7, 40, 52
12, 27111, Note_on_c, 7, 38, 0
12, 27120, Note_on_c, 7, 41, 48
12, 27121, Note_on_c, 7, 40, 0
12, 27169, Note_on_c, 7, 41, 0
12, 27210, Note_on_c, 7, 34, 48
12, 27217, Note_on_c, 7, 34, 0
12, 27220, Note_on_c, 7, 34, 48
12, 27227, Note_on_c, 7, 34, 0
12, 27230, Note_on_c, 7, 34, 48
12, 27237, Note_on_c, 7, 34, 0
12, 27240, Note_on_c, 7, 36, 48
12, 27299, Note_on_c, 7, 36, 0
12, 27330, Note_on_c, 7, 36, 48
12, 27337, Note_on_c, 7, 36, 0
12, 27340, Note_on_c, 7, 36, 48
12, 27347, Note_on_c, 7, 36, 0
12, 27350, Note_on_c, 7, 36, 48
12, 27357, Note_on_c, 7, 36, 0
12, 27360, Note_on_c, 7, 29, 96
12, 27419, Note_on_c, 7, 29, 0
12, 30240, Note_on_c, 7, 36, 96
12, 30360, Note_on_c, 7, 38, 96
12, 30369, Note_on_c, 7, 36, 0
12, 30420, Note_on_c, 7, 39, 96
12, 30429, Note_on_c, 7, 38, 0
12, 30480, Note_on_c, 7, 41, 112
12, 30489, Note_on_c, 7, 39, 0
12, 30659, Note_on_c, 7, 41, 0
12, 30660, Note_on_c, 7, 39, 96
12, 30719, Note_on_c, 7, 39, 0
12, 30720, Note_on_c, 7, 38, 96
12, 30780, Note_on_c, 7, 44, 96
12, 30789, Note_on_c, 7, 38, 0
12, 30840, Note_on_c, 7, 43, 96
12, 30849, Note_on_c, 7, 44, 0
12, 30900, Note_on_c, 7, 41, 96
12, 30909, Note_on_c, 7, 43, 0
12, 30959, Note_on_c, 7, 41, 0
12, 30960, Note_on_c, 7, 40, 96
12, 31020, Note_on_c, 7, 49, 96
12, 31029, Note_on_c, 7, 40, 0
12, 31080, Note_on_c, 7, 48, 96
12, 31089, Note_on_c, 7, 49, 0
12, 31140, Note_on_c, 7, 46, 96
12, 31149, Note_on_c, 7, 48, 0
12, 31199, Note_on_c, 7, 46, 0
12, 31200, Note_on_c, 7, 44, 127
12, 31214, Note_on_c, 7, 44, 0
12, 31230, Note_on_c, 7, 48, 127
12, 31244, Note_on_c, 7, 48, 0
12, 31260, Note_on_c, 7, 49, 127
12, 31274, Note_on_c, 7, 49, 0
12, 31290, Note_on_c, 7, 48, 127
12, 31304, Note_on_c, 7, 48, 0
12, 31320, Note_on_c, 7, 46, 127
12, 31334, Note_on_c, 7, 46, 0
12, 31350, Note_on_c, 7, 44, 127
12, 31364, Note_on_c, 7, 44, 0
12, 31380, Note_on_c, 7, 43, 127
12, 31394, Note_on_c, 7, 43, 0
12, 31410, Note_on_c, 7, 41, 127
12, 31424, Note_on_c, 7, 41, 0
12, 31440, Note_on_c, 7, 46, 127
12, 31454, Note_on_c, 7, 46, 0
12, 31470, Note_on_c, 7, 34, 127
12, 31484, Note_on_c, 7, 34, 0
12, 31500, Note_on_c, 7, 36, 127
12, 31514, Note_on_c, 7, 36, 0
12, 31530, Note_on_c, 7, 34, 127
12, 31544, Note_on_c, 7, 34, 0
12, 31560, Note_on_c, 7, 46, 127
12, 31574, Note_on_c, 7, 46, 0
12, 31590, Note_on_c, 7, 34, 127
12, 31604, Note_on_c, 7, 34, 0
12, 31620, Note_on_c, 7, 46, 127
12, 31634, Note_on_c, 7, 46, 0
12, 31650, Note_on_c, 7, 34, 127
12, 31664, Note_on_c, 7, 34, 0
12, 31680, Note_on_c, 7, 46, 127
12, 31694, Note_on_c, 7, 46, 0
12, 31710, Note_on_c, 7, 36, 127
12, 31724, Note_on_c, 7, 36, 0
12, 31740, Note_on_c, 7, 46, 127
12, 31754, Note_on_c, 7, 46, 0
12, 31770, Note_on_c, 7, 36, 127
12, 31784, Note_on_c, 7, 36, 0
12, 31800, Note_on_c, 7, 44, 127
12, 31814, Note_on_c, 7, 44, 0
12, 31830, Note_on_c, 7, 36, 127
12, 31844, Note_on_c, 7, 36, 0
12, 31860, Note_on_c, 7, 43, 127
12, 31874, Note_on_c, 7, 43, 0
12, 31890, Note_on_c, 7, 36, 127
12, 31904, Note_on_c, 7, 36, 0
12, 31920, Note_on_c, 7, 41, 127
12, 31979, Note_on_c, 7, 41, 0
12, 32160, Note_on_c, 7, 34, 127
12, 32174, Note_on_c, 7, 34, 0
12, 32190, Note_on_c, 7, 46, 127
12, 32204, Note_on_c, 7, 46, 0
12, 32220, Note_on_c, 7, 44, 127
12, 32234, Note_on_c, 7, 44, 0
12, 32250, Note_on_c, 7, 46, 127
12, 32264, Note_on_c, 7, 46, 0
12, 32280, Note_on_c, 7, 43, 127
12, 32294, Note_on_c, 7, 43, 0
12, 32310, Note_on_c, 7, 46, 127
12, 32324, Note_on_c, 7, 46, 0
12, 32340, Note_on_c, 7, 41, 127
12, 32354, Note_on_c, 7, 41, 0
12, 32370, Note_on_c, 7, 46, 127
12, 32384, Note_on_c, 7, 46, 0
12, 32400, Note_on_c, 7, 39, 127
12, 32414, Note_on_c, 7, 39, 0
12, 32430, Note_on_c, 7, 41, 127
12, 32444, Note_on_c, 7, 41, 0
12, 32460, Note_on_c, 7, 39, 127
12, 32474, Note_on_c, 7, 39, 0
12, 32490, Note_on_c, 7, 38, 127
12, 32504, Note_on_c, 7, 38, 0
12, 32520, Note_on_c, 7, 36, 127
12, 32534, Note_on_c, 7, 36, 0
12, 32550, Note_on_c, 7, 34, 127
12, 32564, Note_on_c, 7, 34, 0
12, 32580, Note_on_c, 7, 32, 127
12, 32594, Note_on_c, 7, 32, 0
12, 32610, Note_on_c, 7, 31, 127
12, 32624, Note_on_c, 7, 31, 0
12, 32640, Note_on_c, 7, 29, 127
12, 32699, Note_on_c, 7, 29, 0
12, 32910, Note_on_c, 7, 43, 127
12, 32924, Note_on_c, 7, 43, 0
12, 32940, Note_on_c, 7, 41, 127
12, 32954, Note_on_c, 7, 41, 0
12, 32970, Note_on_c, 7, 39, 127
12, 32984, Note_on_c, 7, 39, 0
12, 33000, Note_on_c, 7, 38, 127
12, 33014, Note_on_c, 7, 38, 0
12, 33030, Note_on_c, 7, 36, 127
12, 33044, Note_on_c, 7, 36, 0
12, 33060, Note_on_c, 7, 34, 127
12, 33074, Note_on_c, 7, 34, 0
12, 33090, Note_on_c, 7, 32, 127
12, 33104, Note_on_c, 7, 32, 0
12, 33120, Note_on_c, 7, 31, 127
12, 33179, Note_on_c, 7, 31, 0
12, 33480, Note_on_c, 7, 36, 96
12, 33720, Note_on_c, 7, 38, 96
12, 33729, Note_on_c, 7, 36, 0
12, 33780, Note_on_c, 7, 39, 96
12, 33789, Note_on_c, 7, 38, 0
12, 33839, Note_on_c, 7, 39, 0
12, 33840, Note_on_c, 7, 41, 112
12, 34020, Note_on_c, 7, 39, 96
12, 34029, Note_on_c, 7, 41, 0
12, 34079, Note_on_c, 7, 39, 0
12, 34080, Note_on_c, 7, 38, 112
12, 34200, Note_on_c, 7, 39, 96
12, 34209, Note_on_c, 7, 38, 0
12, 34260, Note_on_c, 7, 41, 96
12, 34269, Note_on_c, 7, 39, 0
12, 34319, Note_on_c, 7, 41, 0
12, 34320, Note_on_c, 7, 43, 112
12, 34500, Note_on_c, 7, 41, 96
12, 34509, Note_on_c, 7, 43, 0
12, 34559, Note_on_c, 7, 41, 0
12, 34560, Note_on_c, 7, 39, 127
12, 34564, Note_on_c, 7, 39, 0
12, 34565, Note_on_c, 7, 41, 127
12, 34574, Note_on_c, 7, 41, 0
12, 34575, Note_on_c, 7, 39, 127
12, 34584, Note_on_c, 7, 39, 0
12, 34585, Note_on_c, 7, 41, 127
12, 34594, Note_on_c, 7, 41, 0
12, 34595, Note_on_c, 7, 39, 127
12, 34604, Note_on_c, 7, 39, 0
12, 34605, Note_on_c, 7, 41, 127
12, 34614, Note_on_c, 7, 41, 0
12, 34615, Note_on_c, 7, 39, 127
12, 34624, Note_on_c, 7, 39, 0
12, 34625, Note_on_c, 7, 41, 127
12, 34634, Note_on_c, 7, 41, 0
12, 34635, Note_on_c, 7, 39, 127
12, 34644, Note_on_c, 7, 39, 0
12, 34645, Note_on_c, 7, 41, 127
12, 34652, Note_on_c, 7, 41, 0
12, 34653, Note_on_c, 7, 39, 127
12, 34660, Note_on_c, 7, 39, 0
12, 34661, Note_on_c, 7, 41, 127
12, 34667, Note_on_c, 7, 39, 127
12, 34668, Note_on_c, 7, 41, 0
12, 34674, Note_on_c, 7, 39, 0
12, 34675, Note_on_c, 7, 41, 127
12, 34684, Note_on_c, 7, 41, 0
12, 34685, Note_on_c, 7, 39, 127
12, 34694, Note_on_c, 7, 39, 0
12, 34695, Note_on_c, 7, 41, 127
12, 34704, Note_on_c, 7, 41, 0
12, 34705, Note_on_c, 7, 39, 127
12, 34714, Note_on_c, 7, 39, 0
12, 34715, Note_on_c, 7, 41, 127
12, 34724, Note_on_c, 7, 41, 0
12, 34725, Note_on_c, 7, 39, 127
12, 34734, Note_on_c, 7, 39, 0
12, 34735, Note_on_c, 7, 41, 127
12, 34744, Note_on_c, 7, 41, 0
12, 34745, Note_on_c, 7, 39, 127
12, 34754, Note_on_c, 7, 39, 0
12, 34755, Note_on_c, 7, 41, 127
12, 34764, Note_on_c, 7, 41, 0
12, 34765, Note_on_c, 7, 39, 127
12, 34774, Note_on_c, 7, 39, 0
12, 34775, Note_on_c, 7, 41, 127
12, 34784, Note_on_c, 7, 41, 0
12, 34785, Note_on_c, 7, 39, 127
12, 34794, Note_on_c, 7, 39, 0
12, 34795, Note_on_c, 7, 38, 127
12, 34800, Note_on_c, 7, 38, 127
12, 34844, Note_on_c, 7, 38, 0
12, 35039, Note_on_c, 7, 38, 0
12, 35040, Note_on_c, 7, 38, 127
12, 35279, Note_on_c, 7, 38, 0
12, 35280, Note_on_c, 7, 38, 127
12, 35519, Note_on_c, 7, 38, 0
12, 35520, Note_on_c, 7, 38, 127
12, 35759, Note_on_c, 7, 38, 0
12, 35760, Note_on_c, 7, 38, 127
12, 35820, Note_on_c, 7, 40, 127
12, 35829, Note_on_c, 7, 38, 0
12, 35850, Note_on_c, 7, 42, 127
12, 35859, Note_on_c, 7, 40, 0
12, 35880, Note_on_c, 7, 43, 127
12, 35889, Note_on_c, 7, 42, 0
12, 35940, Note_on_c, 7, 39, 127
12, 35949, Note_on_c, 7, 43, 0
12, 35970, Note_on_c, 7, 38, 127
12, 35979, Note_on_c, 7, 39, 0
12, 35999, Note_on_c, 7, 38, 0
12, 36000, Note_on_c, 7, 37, 127
12, 36030, Note_on_c, 7, 37, 0
12, 36120, Note_on_c, 7, 37, 127
12, 36300, Note_on_c, 7, 37, 0
12, 36300, Note_on_c, 7, 37, 127
12, 36309, Note_on_c, 7, 37, 0
12, 36360, Note_on_c, 7, 37, 127
12, 36370, Note_on_c, 7, 37, 0
12, 36420, Note_on_c, 7, 37, 127
12, 36431, Note_on_c, 7, 37, 0
12, 36480, Note_on_c, 7, 38, 83
12, 36955, Note_on_c, 7, 31, 48
12, 36960, Note_on_c, 7, 38, 0
12, 37075, Note_on_c, 7, 31, 0
12, 37200, Note_on_c, 7, 43, 48
12, 37320, Note_on_c, 7, 43, 0
12, 37440, Note_on_c, 7, 41, 47
12, 37560, Note_on_c, 7, 41, 0
12, 37920, Note_on_c, 7, 32, 127
12, 38157, Note_on_c, 7, 32, 127
12, 38160, Note_on_c, 7, 32, 0
12, 38397, Note_on_c, 7, 32, 0
12, 38400, Note_on_c, 7, 32, 125
12, 38409, Note_on_c, 7, 32, 0
12, 38420, Note_on_c, 7, 31, 72
12, 38428, Note_on_c, 7, 31, 0
12, 38440, Note_on_c, 7, 32, 114
12, 38447, Note_on_c, 7, 32, 0
12, 38460, Note_on_c, 7, 36, 83
12, 38470, Note_on_c, 7, 36, 0
12, 38480, Note_on_c, 7, 35, 97
12, 38485, Note_on_c, 7, 35, 0
12, 38500, Note_on_c, 7, 36, 127
12, 38509, Note_on_c, 7, 36, 0
12, 38520, Note_on_c, 7, 32, 77
12, 38528, Note_on_c, 7, 32, 0
12, 38540, Note_on_c, 7, 31, 127
12, 38547, Note_on_c, 7, 31, 0
12, 38560, Note_on_c, 7, 32, 77
12, 38568, Note_on_c, 7, 32, 0
12, 38580, Note_on_c, 7, 36, 106
12, 38589, Note_on_c, 7, 36, 0
12, 38600, Note_on_c, 7, 35, 71
12, 38605, Note_on_c, 7, 35, 0
12, 38620, Note_on_c, 7, 36, 97
12, 38627, Note_on_c, 7, 36, 0
12, 38640, Note_on_c, 7, 32, 127
12, 38650, Note_on_c, 7, 32, 0
12, 38660, Note_on_c, 7, 31, 98
12, 38669, Note_on_c, 7, 31, 0
12, 38680, Note_on_c, 7, 32, 114
12, 38687, Note_on_c, 7, 32, 0
12, 38696, Note_on_c, 7, 36, 114
12, 38704, Note_on_c, 7, 36, 0
12, 38720, Note_on_c, 7, 35, 89
12, 38725, Note_on_c, 7, 35, 0
12, 38740, Note_on_c, 7, 36, 125
12, 38747, Note_on_c, 7, 36, 0
12, 38756, Note_on_c, 7, 32, 127
12, 38764, Note_on_c, 7, 32, 0
12, 38777, Note_on_c, 7, 31, 78
12, 38788, Note_on_c, 7, 31, 0
12, 38799, Note_on_c, 7, 32, 127
12, 38805, Note_on_c, 7, 32, 0
12, 38822, Note_on_c, 7, 36, 114
12, 38830, Note_on_c, 7, 36, 0
12, 38840, Note_on_c, 7, 35, 97
12, 38846, Note_on_c, 7, 35, 0
12, 38860, Note_on_c, 7, 36, 97
12, 38868, Note_on_c, 7, 36, 0
12, 38880, Note_on_c, 7, 31, 83
12, 38889, Note_on_c, 7, 31, 0
12, 38900, Note_on_c, 7, 30, 114
12, 38908, Note_on_c, 7, 30, 0
12, 38920, Note_on_c, 7, 31, 71
12, 38927, Note_on_c, 7, 31, 0
12, 38940, Note_on_c, 7, 36, 78
12, 38950, Note_on_c, 7, 36, 0
12, 38960, Note_on_c, 7, 34, 106
12, 38968, Note_on_c, 7, 34, 0
12, 38980, Note_on_c, 7, 36, 77
12, 38988, Note_on_c, 7, 36, 0
12, 39000, Note_on_c, 7, 31, 97
12, 39010, Note_on_c, 7, 31, 0
12, 39020, Note_on_c, 7, 30, 84
12, 39028, Note_on_c, 7, 30, 0
12, 39040, Note_on_c, 7, 31, 97
12, 39048, Note_on_c, 7, 31, 0
12, 39060, Note_on_c, 7, 36, 107
12, 39070, Note_on_c, 7, 36, 0
12, 39080, Note_on_c, 7, 35, 98
12, 39088, Note_on_c, 7, 35, 0
12, 39100, Note_on_c, 7, 36, 89
12, 39109, Note_on_c, 7, 36, 0
12, 39120, Note_on_c, 7, 31, 97
12, 39129, Note_on_c, 7, 31, 0
12, 39140, Note_on_c, 7, 30, 97
12, 39148, Note_on_c, 7, 30, 0
12, 39160, Note_on_c, 7, 31, 89
12, 39167, Note_on_c, 7, 31, 0
12, 39180, Note_on_c, 7, 36, 97
12, 39190, Note_on_c, 7, 36, 0
12, 39200, Note_on_c, 7, 35, 83
12, 39207, Note_on_c, 7, 35, 0
12, 39220, Note_on_c, 7, 36, 66
12, 39230, Note_on_c, 7, 36, 0
12, 39240, Note_on_c, 7, 31, 106
12, 39248, Note_on_c, 7, 31, 0
12, 39260, Note_on_c, 7, 30, 106
12, 39268, Note_on_c, 7, 30, 0
12, 39280, Note_on_c, 7, 31, 97
12, 39288, Note_on_c, 7, 31, 0
12, 39300, Note_on_c, 7, 36, 81
12, 39309, Note_on_c, 7, 36, 0
12, 39320, Note_on_c, 7, 35, 69
12, 39327, Note_on_c, 7, 35, 0
12, 39340, Note_on_c, 7, 36, 83
12, 39351, Note_on_c, 7, 36, 0
12, 39360, Note_on_c, 7, 30, 125
12, 39368, Note_on_c, 7, 30, 0
12, 39380, Note_on_c, 7, 33, 83
12, 39388, Note_on_c, 7, 33, 0
12, 39400, Note_on_c, 7, 36, 97
12, 39407, Note_on_c, 7, 36, 0
12, 39420, Note_on_c, 7, 38, 114
12, 39424, Note_on_c, 7, 38, 0
12, 39440, Note_on_c, 7, 42, 125
12, 39448, Note_on_c, 7, 42, 0
12, 39460, Note_on_c, 7, 45, 106
12, 39466, Note_on_c, 7, 45, 0
12, 39477, Note_on_c, 7, 48, 114
12, 39483, Note_on_c, 7, 48, 0
12, 39840, Note_on_c, 7, 29, 106
12, 39849, Note_on_c, 7, 29, 0
12, 39860, Note_on_c, 7, 32, 127
12, 39869, Note_on_c, 7, 32, 0
12, 39880, Note_on_c, 7, 35, 84
12, 39887, Note_on_c, 7, 35, 0
12, 39900, Note_on_c, 7, 38, 110
12, 39906, Note_on_c, 7, 38, 0
12, 39920, Note_on_c, 7, 41, 106
12, 39929, Note_on_c, 7, 41, 0
12, 39940, Note_on_c, 7, 44, 125
12, 39947, Note_on_c, 7, 44, 0
12, 39960, Note_on_c, 7, 47, 125
12, 39969, Note_on_c, 7, 47, 0
12, 40320, Note_on_c, 7, 31, 127
12, 40440, Note_on_c, 7, 31, 0
12, 40800, Note_on_c, 7, 31, 6
12, 40920, Note_on_c, 7, 31, 0
12, 41040, Note_on_c, 7, 31, 48
12, 41100, Note_on_c, 7, 32, 56
12, 41101, Note_on_c, 7, 31, 0
12, 41155, Note_on_c, 7, 31, 48
12, 41166, Note_on_c, 7, 32, 0
12, 41219, Note_on_c, 7, 35, 56
12, 41224, Note_on_c, 7, 31, 0
12, 41282, Note_on_c, 7, 31, 48
12, 41285, Note_on_c, 7, 35, 0
12, 41347, Note_on_c, 7, 38, 56
12, 41351, Note_on_c, 7, 31, 0
12, 41400, Note_on_c, 7, 31, 48
12, 41407, Note_on_c, 7, 38, 0
12, 41460, Note_on_c, 7, 43, 60
12, 41469, Note_on_c, 7, 31, 0
12, 41510, Note_on_c, 7, 43, 0
12, 41520, Note_on_c, 7, 31, 48
12, 41579, Note_on_c, 7, 31, 0
12, 41580, Note_on_c, 7, 32, 56
12, 41637, Note_on_c, 7, 32, 0
12, 41641, Note_on_c, 7, 31, 48
12, 41701, Note_on_c, 7, 36, 56
12, 41704, Note_on_c, 7, 31, 0
12, 41758, Note_on_c, 7, 31, 48
12, 41761, Note_on_c, 7, 36, 0
12, 41814, Note_on_c, 7, 39, 56
12, 41818, Note_on_c, 7, 31, 0
12, 41871, Note_on_c, 7, 39, 0
12, 41880, Note_on_c, 7, 31, 48
12, 41936, Note_on_c, 7, 43, 56
12, 41955, Note_on_c, 7, 31, 0
12, 41978, Note_on_c, 7, 43, 0
12, 41997, Note_on_c, 7, 31, 48
12, 42056, Note_on_c, 7, 31, 0
12, 42060, Note_on_c, 7, 32, 56
12, 42120, Note_on_c, 7, 31, 44
12, 42136, Note_on_c, 7, 32, 0
12, 42177, Note_on_c, 7, 36, 52
12, 42187, Note_on_c, 7, 31, 0
12, 42239, Note_on_c, 7, 31, 71
12, 42244, Note_on_c, 7, 36, 0
12, 42299, Note_on_c, 7, 39, 106
12, 42305, Note_on_c, 7, 31, 0
12, 42359, Note_on_c, 7, 31, 106
12, 42362, Note_on_c, 7, 39, 0
12, 42423, Note_on_c, 7, 43, 103
12, 42429, Note_on_c, 7, 31, 0
12, 42463, Note_on_c, 7, 43, 0
12, 42487, Note_on_c, 7, 29, 48
12, 42538, Note_on_c, 7, 35, 56
12, 42542, Note_on_c, 7, 29, 0
12, 42598, Note_on_c, 7, 29, 48
12, 42603, Note_on_c, 7, 35, 0
12, 42661, Note_on_c, 7, 38, 56
12, 42665, Note_on_c, 7, 29, 0
12, 42720, Note_on_c, 7, 35, 48
12, 42724, Note_on_c, 7, 38, 0
12, 42780, Note_on_c, 7, 41, 52
12, 42781, Note_on_c, 7, 35, 0
12, 42839, Note_on_c, 7, 38, 56
12, 42841, Note_on_c, 7, 41, 0
12, 42897, Note_on_c, 7, 35, 60
12, 42901, Note_on_c, 7, 38, 0
12, 42957, Note_on_c, 7, 34, 64
12, 42960, Note_on_c, 7, 35, 0
12, 43020, Note_on_c, 7, 34, 0
12, 43020, Note_on_c, 7, 46, 60
12, 43080, Note_on_c, 7, 34, 56
12, 43084, Note_on_c, 7, 46, 0
12, 43135, Note_on_c, 7, 46, 52
12, 43152, Note_on_c, 7, 34, 0
12, 43194, Note_on_c, 7, 39, 48
12, 43196, Note_on_c, 7, 46, 0
12, 43256, Note_on_c, 7, 39, 0
12, 43256, Note_on_c, 7, 44, 48
12, 43309, Note_on_c, 7, 44, 0
12, 43317, Note_on_c, 7, 39, 48
12, 43339, Note_on_c, 7, 39, 0
12, 43340, Note_on_c, 7, 48, 52
12, 43360, Note_on_c, 7, 46, 48
12, 43363, Note_on_c, 7, 48, 0
12, 43376, Note_on_c, 7, 44, 48
12, 43386, Note_on_c, 7, 46, 0
12, 43391, Note_on_c, 7, 44, 0
12, 43400, Note_on_c, 7, 43, 49
12, 43420, Note_on_c, 7, 41, 48
12, 43423, Note_on_c, 7, 43, 0
12, 43438, Note_on_c, 7, 39, 48
12, 43440, Note_on_c, 7, 41, 0
12, 43678, Note_on_c, 7, 39, 0
12, 43686, Note_on_c, 7, 34, 52
12, 43920, Note_on_c, 7, 36, 56
12, 43926, Note_on_c, 7, 34, 0
12, 44040, Note_on_c, 7, 34, 52
12, 44041, Note_on_c, 7, 36, 0
12, 44100, Note_on_c, 7, 34, 0
12, 44100, Note_on_c, 7, 32, 50
12, 44160, Note_on_c, 7, 32, 0
12, 44160, Note_on_c, 7, 31, 48
12, 44220, Note_on_c, 7, 31, 0
12, 44265, Note_on_c, 7, 40, 96
12, 44280, Note_on_c, 7, 40, 0
12, 44280, Note_on_c, 7, 40, 96
12, 44400, Note_on_c, 7, 40, 0
12, 44520, Note_on_c, 7, 41, 48
12, 44580, Note_on_c, 7, 41, 0
12, 44581, Note_on_c, 7, 43, 42
12, 44636, Note_on_c, 7, 44, 64
12, 44641, Note_on_c, 7, 43, 0
12, 44756, Note_on_c, 7, 32, 96
12, 44763, Note_on_c, 7, 44, 0
12, 44878, Note_on_c, 7, 31, 48
12, 44886, Note_on_c, 7, 32, 0
12, 45118, Note_on_c, 7, 31, 0
12, 45120, Note_on_c, 7, 31, 48
12, 45360, Note_on_c, 7, 31, 0
12, 45360, Note_on_c, 7, 31, 48
12, 45600, Note_on_c, 7, 31, 0
12, 45600, Note_on_c, 7, 31, 48
12, 45660, Note_on_c, 7, 31, 0
12, 46680, Note_on_c, 7, 36, 96
12, 46800, Note_on_c, 7, 36, 0
12, 46800, Note_on_c, 7, 29, 48
12, 46823, Note_on_c, 7, 29, 0
12, 46861, Note_on_c, 7, 32, 48
12, 46886, Note_on_c, 7, 32, 0
12, 46920, Note_on_c, 7, 29, 48
12, 46945, Note_on_c, 7, 29, 0
12, 46980, Note_on_c, 7, 41, 48
12, 47005, Note_on_c, 7, 41, 0
12, 47040, Note_on_c, 7, 37, 48
12, 47065, Note_on_c, 7, 37, 0
12, 47102, Note_on_c, 7, 41, 48
12, 47127, Note_on_c, 7, 41, 0
12, 47155, Note_on_c, 7, 37, 48
12, 47180, Note_on_c, 7, 37, 0
12, 47220, Note_on_c, 7, 49, 48
12, 47245, Note_on_c, 7, 49, 0
12, 47282, Note_on_c, 7, 35, 56
12, 47307, Note_on_c, 7, 35, 0
12, 47340, Note_on_c, 7, 47, 64
12, 47360, Note_on_c, 7, 47, 0
12, 47400, Note_on_c, 7, 29, 72
12, 47425, Note_on_c, 7, 29, 0
12, 47462, Note_on_c, 7, 41, 80
12, 47487, Note_on_c, 7, 41, 0
12, 47525, Note_on_c, 7, 39, 96
12, 47546, Note_on_c, 7, 39, 0
12, 47583, Note_on_c, 7, 41, 96
12, 47595, Note_on_c, 7, 41, 0
12, 47700, Note_on_c, 7, 44, 48
12, 47815, Note_on_c, 7, 43, 54
12, 47824, Note_on_c, 7, 44, 0
12, 47877, Note_on_c, 7, 31, 48
12, 47878, Note_on_c, 7, 43, 0
12, 47937, Note_on_c, 7, 31, 0
12, 47938, Note_on_c, 7, 43, 48
12, 47994, Note_on_c, 7, 36, 47
12, 47998, Note_on_c, 7, 43, 0
12, 48054, Note_on_c, 7, 36, 0
12, 48960, Note_on_c, 7, 29, 96
12, 49080, Note_on_c, 7, 29, 0
12, 49199, Note_on_c, 7, 30, 112
12, 49319, Note_on_c, 7, 30, 0
12, 49440, Note_on_c, 7, 31, 48
12, 49500, Note_on_c, 7, 31, 0
12, 49565, Note_on_c, 7, 31, 48
12, 49625, Note_on_c, 7, 31, 0
12, 49682, Note_on_c, 7, 36, 48
12, 49742, Note_on_c, 7, 36, 0
12, 49916, Note_on_c, 7, 31, 56
12, 49975, Note_on_c, 7, 43, 64
12, 49976, Note_on_c, 7, 31, 0
12, 50033, Note_on_c, 7, 31, 72
12, 50038, Note_on_c, 7, 43, 0
12, 50094, Note_on_c, 7, 43, 80
12, 50100, Note_on_c, 7, 31, 0
12, 50154, Note_on_c, 7, 32, 96
12, 50161, Note_on_c, 7, 43, 0
12, 50214, Note_on_c, 7, 32, 0
12, 53520, Note_on_c, 7, 36, 32
12, 54000, Note_on_c, 7, 36, 0
12, 54000, Note_on_c, 7, 36, 32
12, 54118, Note_on_c, 7, 40, 36
12, 54120, Note_on_c, 7, 36, 0
12, 54181, Note_on_c, 7, 40, 0
12, 54184, Note_on_c, 7, 43, 38
12, 54243, Note_on_c, 7, 41, 40
12, 54245, Note_on_c, 7, 43, 0
12, 54360, Note_on_c, 7, 43, 38
12, 54374, Note_on_c, 7, 41, 0
12, 54420, Note_on_c, 7, 44, 43
12, 54423, Note_on_c, 7, 43, 0
12, 54480, Note_on_c, 7, 44, 0
12, 54485, Note_on_c, 7, 43, 44
12, 54541, Note_on_c, 7, 41, 45
12, 54547, Note_on_c, 7, 43, 0
12, 54600, Note_on_c, 7, 40, 46
12, 54602, Note_on_c, 7, 41, 0
12, 54659, Note_on_c, 7, 41, 47
12, 54664, Note_on_c, 7, 40, 0
12, 54719, Note_on_c, 7, 41, 0
12, 54726, Note_on_c, 7, 36, 48
12, 54786, Note_on_c, 7, 36, 0
12, 54961, Note_on_c, 7, 36, 48
12, 55017, Note_on_c, 7, 36, 0
12, 55201, Note_on_c, 7, 36, 48
12, 55207, Note_on_c, 7, 36, 0
12, 55440, Note_on_c, 7, 31, 48
12, 55680, Note_on_c, 7, 36, 44
12, 55686, Note_on_c, 7, 31, 0
12, 55740, Note_on_c, 7, 36, 0
12, 55920, Note_on_c, 7, 31, 48
12, 56160, Note_on_c, 7, 36, 48
12, 56161, Note_on_c, 7, 31, 0
12, 56220, Note_on_c, 7, 36, 0
12, 56400, Note_on_c, 7, 31, 46
12, 57120, Note_on_c, 7, 31, 0
12, 59130, Note_on_c, 7, 31, 96
12, 59140, Note_on_c, 7, 31, 0
12, 59140, Note_on_c, 7, 33, 89
12, 59150, Note_on_c, 7, 33, 0
12, 59150, Note_on_c, 7, 35, 96
12, 59160, Note_on_c, 7, 36, 96
12, 59161, Note_on_c, 7, 35, 0
12, 59182, Note_on_c, 7, 36, 0
12, 59250, Note_on_c, 7, 31, 72
12, 59260, Note_on_c, 7, 31, 0
12, 59260, Note_on_c, 7, 33, 64
12, 59270, Note_on_c, 7, 33, 0
12, 59270, Note_on_c, 7, 35, 56
12, 59280, Note_on_c, 7, 35, 0
12, 59280, Note_on_c, 7, 36, 42
12, 60000, Note_on_c, 7, 36, 0
12, 60000, End_track
13, 0, Start_track
13, 0, MIDI_port, 0
13, 0, Title_t, "Pitz. Strings"
13, 0, Program_c, 8, 45
13, 57240, Note_on_c, 8, 36, 43
13, 57240, Note_on_c, 8, 48, 48
13, 57254, Note_on_c, 8, 48, 0
13, 57260, Note_on_c, 8, 36, 0
13, 57360, Note_on_c, 8, 31, 48
13, 57360, Note_on_c, 8, 43, 48
13, 57374, Note_on_c, 8, 43, 0
13, 57420, Note_on_c, 8, 31, 0
13, 57480, Note_on_c, 8, 39, 48
13, 57480, Note_on_c, 8, 51, 48
13, 57497, Note_on_c, 8, 51, 0
13, 57540, Note_on_c, 8, 39, 0
13, 57600, Note_on_c, 8, 36, 48
13, 57600, Note_on_c, 8, 48, 48
13, 57631, Note_on_c, 8, 48, 0
13, 57660, Note_on_c, 8, 36, 0
13, 57840, Note_on_c, 8, 31, 48
13, 57840, Note_on_c, 8, 43, 47
13, 57860, Note_on_c, 8, 43, 0
13, 57900, Note_on_c, 8, 31, 0
13, 58080, Note_on_c, 8, 31, 48
13, 58080, Note_on_c, 8, 43, 48
13, 58100, Note_on_c, 8, 43, 0
13, 58140, Note_on_c, 8, 31, 0
13, 58560, Note_on_c, 8, 31, 48
13, 58560, Note_on_c, 8, 43, 48
13, 58584, Note_on_c, 8, 43, 0
13, 58620, Note_on_c, 8, 31, 0
13, 58620, End_track
14, 0, Start_track
14, 0, MIDI_port, 0
14, 0, Title_t, "Sequenced by"
14, 0, End_track
15, 0, Start_track
15, 0, MIDI_port, 0
15, 0, Title_t, "David Kleinschmidt"
15, 0, End_track
16, 0, Start_track
16, 0, MIDI_port, 0
16, 0, Title_t, "David Kleinschmidt@oberlin.edu"
16, 0, End_track
0, 0, End_of_file