0, 0, Header, 1, 5, 240
1, 0, Start_track
1, 0, Time_signature, 3, 2, 24, 8
1, 0, Tempo, 869565
1, 0, Marker_t, "Sonata, A-flat major, Op. 110, Beethoven, 1st movement, Moderato. (arr. Jerry A. Enfield)"
1, 19440, Tempo, 789474
1, 21600, Tempo, 869565
1, 83520, Time_signature, 2, 2, 48, 8
1, 83520, Tempo, 238095
1, 83520, Marker_t, "2nd movement, Allegro molto."
1, 102720, Tempo, 243902
1, 103200, Tempo, 248963
1, 103680, Tempo, 256410
1, 104160, Tempo, 238095
1, 118080, Tempo, 243902
1, 118560, Tempo, 248963
1, 119040, Tempo, 256410
1, 119520, Tempo, 238095
1, 148200, Tempo, 869565
1, 148320, Tempo, 238095
1, 152160, Tempo, 243902
1, 152640, Tempo, 251046
1, 153120, Tempo, 259740
1, 153600, Tempo, 267857
1, 154080, Tempo, 238095
1, 167520, Tempo, 243902
1, 168000, Tempo, 248963
1, 168480, Tempo, 256410
1, 168960, Tempo, 238095
1, 182880, Tempo, 243902
1, 183360, Tempo, 251046
1, 183840, Tempo, 259740
1, 184320, Tempo, 238095
1, 192000, Tempo, 243902
1, 192480, Tempo, 251046
1, 192960, Tempo, 262009
1, 193440, Tempo, 271493
1, 193920, Tempo, 284360
1, 194160, Tempo, 402685
1, 194280, Tempo, 4000000
1, 194400, Time_signature, 4, 2, 24, 8
1, 194400, Tempo, 1875000
1, 194400, Marker_t, "3rd movement, Adagio, ma non troppo."
1, 197340, Tempo, 1463415
1, 197400, Tempo, 1200000
1, 197456, Tempo, 1071429
1, 197520, Tempo, 967742
1, 197580, Tempo, 869565
1, 197760, Tempo, 2142857
1, 198240, Tempo, 1875000
1, 200220, Tempo, 2000000
1, 200284, Tempo, 2142857
1, 200340, Tempo, 2307692
1, 200400, Tempo, 2500000
1, 200760, Tempo, 2142857
1, 200880, Tempo, 2000000
1, 201120, Time_signature, 6, 2, 24, 8
1, 201120, Tempo, 1500000
1, 201360, Tempo, 1666667
1, 201600, Tempo, 1875000
1, 202560, Time_signature, 6, 4, 6, 8
1, 202560, Tempo, 1153846
1, 202920, Time_signature, 12, 4, 6, 8
1, 216600, Time_signature, 3, 3, 36, 8
1, 216600, Tempo, 576923
1, 216600, Marker_t, "4th movement, Allegro, ma non troppo."
1, 216960, Time_signature, 6, 3, 12, 8
1, 279600, Time_signature, 12, 4, 6, 8
1, 279600, Tempo, 1176471
1, 292560, Tempo, 1276596
1, 293280, Tempo, 1176471
1, 294720, Tempo, 1200000
1, 295440, Tempo, 1176471
1, 296160, Time_signature, 6, 3, 12, 8
1, 296160, Tempo, 606061
1, 318480, Tempo, 666667
1, 323160, Tempo, 495868
1, 323520, Tempo, 500000
1, 323520, End_track
2, 0, Start_track
2, 0, Title_t, "Piano RH"
2, 0, Program_c, 0, 0
2, 0, Control_c, 0, 7, 120
2, 0, Control_c, 0, 64, 127
2, 0, Control_c, 0, 91, 4
2, 0, Control_c, 0, 93, 16
2, 0, Control_c, 0, 10, 72
2, 0, Note_on_c, 0, 68, 80
2, 0, Note_on_c, 0, 72, 80
2, 342, Note_off_c, 0, 72, 64
2, 342, Note_off_c, 0, 68, 64
2, 352, Control_c, 0, 64, 0
2, 360, Note_on_c, 0, 68, 80
2, 360, Note_on_c, 0, 63, 80
2, 474, Note_off_c, 0, 63, 64
2, 474, Note_off_c, 0, 68, 64
2, 480, Note_on_c, 0, 63, 80
2, 480, Note_on_c, 0, 68, 80
2, 651, Note_off_c, 0, 68, 64
2, 651, Note_off_c, 0, 63, 64
2, 660, Note_on_c, 0, 63, 80
2, 660, Note_on_c, 0, 68, 80
2, 717, Note_off_c, 0, 68, 56
2, 717, Note_off_c, 0, 63, 56
2, 720, Note_on_c, 0, 73, 80
2, 720, Note_on_c, 0, 67, 80
2, 948, Note_off_c, 0, 67, 64
2, 948, Note_off_c, 0, 73, 64
2, 960, Control_c, 0, 64, 127
2, 960, Note_on_c, 0, 70, 80
2, 960, Note_on_c, 0, 67, 80
2, 1412, Control_c, 0, 64, 0
2, 1416, Note_off_c, 0, 67, 64
2, 1416, Note_off_c, 0, 70, 64
2, 1440, Control_c, 0, 64, 127
2, 1440, Note_on_c, 0, 75, 80
2, 1440, Note_on_c, 0, 68, 80
2, 1792, Control_c, 0, 64, 0
2, 1800, Note_off_c, 0, 68, 64
2, 1800, Note_off_c, 0, 75, 64
2, 1800, Note_on_c, 0, 68, 80
2, 1800, Note_on_c, 0, 73, 80
2, 1896, Note_off_c, 0, 73, 64
2, 1896, Note_off_c, 0, 68, 64
2, 1920, Note_on_c, 0, 68, 80
2, 1920, Note_on_c, 0, 75, 80
2, 2016, Note_off_c, 0, 75, 64
2, 2016, Note_off_c, 0, 68, 64
2, 2040, Note_on_c, 0, 77, 80
2, 2040, Note_on_c, 0, 68, 80
2, 2136, Note_off_c, 0, 68, 64
2, 2136, Note_off_c, 0, 77, 64
2, 2160, Note_on_c, 0, 75, 80
2, 2160, Note_on_c, 0, 67, 80
2, 2340, Note_off_c, 0, 75, 64
2, 2340, Note_on_c, 0, 74, 80
2, 2388, Note_off_c, 0, 74, 56
2, 2388, Note_off_c, 0, 67, 64
2, 2400, Control_c, 0, 64, 127
2, 2400, Note_on_c, 0, 73, 80
2, 2400, Note_on_c, 0, 67, 80
2, 2414, Note_off_c, 0, 73, 48
2, 2415, Note_on_c, 0, 75, 80
2, 2429, Note_off_c, 0, 75, 48
2, 2430, Note_on_c, 0, 73, 80
2, 2444, Note_off_c, 0, 73, 48
2, 2445, Note_on_c, 0, 75, 80
2, 2459, Note_off_c, 0, 75, 48
2, 2460, Note_on_c, 0, 73, 80
2, 2474, Note_off_c, 0, 73, 48
2, 2475, Note_on_c, 0, 75, 80
2, 2489, Note_off_c, 0, 75, 48
2, 2490, Note_on_c, 0, 73, 80
2, 2504, Note_off_c, 0, 73, 48
2, 2505, Note_on_c, 0, 75, 80
2, 2514, Note_off_c, 0, 67, 64
2, 2519, Note_off_c, 0, 75, 48
2, 2520, Note_on_c, 0, 73, 80
2, 2534, Note_off_c, 0, 73, 48
2, 2535, Note_on_c, 0, 75, 80
2, 2549, Note_off_c, 0, 75, 48
2, 2550, Note_on_c, 0, 72, 80
2, 2560, Control_c, 0, 64, 0
2, 2579, Note_off_c, 0, 72, 48
2, 2580, Note_on_c, 0, 73, 80
2, 2609, Note_off_c, 0, 73, 48
2, 2610, Note_on_c, 0, 75, 80
2, 2639, Note_off_c, 0, 75, 48
2, 2640, Note_on_c, 0, 73, 80
2, 2669, Note_off_c, 0, 73, 48
2, 2670, Note_on_c, 0, 75, 80
2, 2699, Note_off_c, 0, 75, 48
2, 2700, Note_on_c, 0, 77, 80
2, 2786, Note_off_c, 0, 77, 64
2, 2790, Note_on_c, 0, 75, 80
2, 2847, Note_off_c, 0, 75, 56
2, 2850, Note_on_c, 0, 73, 80
2, 2880, Control_c, 0, 64, 127
2, 2880, Note_on_c, 0, 72, 80
2, 2907, Note_off_c, 0, 73, 64
2, 3222, Note_off_c, 0, 72, 64
2, 3240, Note_on_c, 0, 75, 80
2, 3468, Note_off_c, 0, 75, 64
2, 3480, Note_on_c, 0, 80, 80
2, 3588, Control_c, 0, 64, 0
2, 3594, Note_off_c, 0, 80, 64
2, 3600, Control_c, 0, 64, 127
2, 3600, Note_on_c, 0, 80, 80
2, 3828, Control_c, 0, 64, 0
2, 3840, Note_off_c, 0, 80, 64
2, 3840, Note_on_c, 0, 79, 80
2, 3840, Control_c, 0, 64, 127
2, 4304, Control_c, 0, 64, 0
2, 4320, Note_off_c, 0, 79, 64
2, 4320, Control_c, 0, 64, 127
2, 4320, Note_on_c, 0, 82, 80
2, 4662, Note_off_c, 0, 82, 64
2, 4680, Note_on_c, 0, 79, 80
2, 4920, Note_off_c, 0, 79, 64
2, 4920, Note_on_c, 0, 75, 80
2, 5016, Note_off_c, 0, 75, 64
2, 5024, Control_c, 0, 64, 0
2, 5040, Note_on_c, 0, 75, 80
2, 5040, Control_c, 0, 64, 127
2, 5268, Note_off_c, 0, 75, 64
2, 5280, Note_on_c, 0, 80, 80
2, 5744, Control_c, 0, 64, 0
2, 5760, Note_off_c, 0, 80, 64
2, 5760, Control_c, 0, 64, 126
2, 5760, Note_on_c, 0, 80, 80
2, 6102, Note_off_c, 0, 80, 64
2, 6120, Note_on_c, 0, 84, 85
2, 6132, Control_c, 0, 64, 0
2, 6360, Note_off_c, 0, 84, 64
2, 6360, Note_on_c, 0, 87, 88
2, 6456, Note_off_c, 0, 87, 64
2, 6480, Note_on_c, 0, 87, 90
2, 6720, Control_c, 0, 64, 127
2, 6840, Note_off_c, 0, 87, 64
2, 6840, Note_on_c, 0, 85, 95
2, 6884, Control_c, 0, 64, 0
2, 6936, Note_off_c, 0, 85, 64
2, 6960, Control_c, 0, 64, 127
2, 6960, Note_on_c, 0, 87, 96
2, 7056, Note_off_c, 0, 87, 64
2, 7080, Note_on_c, 0, 89, 98
2, 7176, Note_off_c, 0, 89, 64
2, 7180, Control_c, 0, 64, 0
2, 7200, Note_on_c, 0, 89, 100
2, 7200, Control_c, 0, 64, 127
2, 7314, Note_off_c, 0, 89, 64
2, 7320, Note_on_c, 0, 87, 97
2, 7548, Note_off_c, 0, 87, 64
2, 7560, Note_on_c, 0, 85, 90
2, 7617, Note_off_c, 0, 85, 56
2, 7620, Note_on_c, 0, 84, 89
2, 7677, Note_off_c, 0, 84, 56
2, 7680, Note_on_c, 0, 87, 87
2, 7737, Note_off_c, 0, 87, 56
2, 7740, Note_on_c, 0, 85, 85
2, 7797, Note_off_c, 0, 85, 56
2, 7800, Note_on_c, 0, 79, 84
2, 7904, Control_c, 0, 64, 0
2, 7920, Note_off_c, 0, 79, 64
2, 7920, Note_on_c, 0, 80, 80
2, 7920, Control_c, 0, 64, 127
2, 7938, Note_off_c, 0, 80, 48
2, 7950, Note_on_c, 0, 87, 80
2, 7977, Note_off_c, 0, 87, 48
2, 7980, Note_on_c, 0, 84, 80
2, 8007, Note_off_c, 0, 84, 48
2, 8010, Note_on_c, 0, 87, 80
2, 8037, Note_off_c, 0, 87, 48
2, 8040, Note_on_c, 0, 92, 80
2, 8058, Note_off_c, 0, 92, 48
2, 8070, Note_on_c, 0, 87, 80
2, 8097, Note_off_c, 0, 87, 48
2, 8100, Note_on_c, 0, 84, 80
2, 8127, Note_off_c, 0, 84, 48
2, 8130, Note_on_c, 0, 87, 80
2, 8157, Note_off_c, 0, 87, 48
2, 8160, Note_on_c, 0, 80, 80
2, 8178, Note_off_c, 0, 80, 48
2, 8190, Note_on_c, 0, 75, 80
2, 8217, Note_off_c, 0, 75, 48
2, 8220, Note_on_c, 0, 72, 80
2, 8247, Note_off_c, 0, 72, 48
2, 8250, Note_on_c, 0, 75, 80
2, 8277, Note_off_c, 0, 75, 48
2, 8280, Note_on_c, 0, 68, 80
2, 8298, Note_off_c, 0, 68, 48
2, 8310, Note_on_c, 0, 63, 80
2, 8337, Note_off_c, 0, 63, 48
2, 8340, Note_on_c, 0, 60, 80
2, 8367, Note_off_c, 0, 60, 48
2, 8370, Note_on_c, 0, 63, 80
2, 8397, Note_off_c, 0, 63, 48
2, 8400, Note_on_c, 0, 56, 80
2, 8418, Note_off_c, 0, 56, 48
2, 8430, Note_on_c, 0, 51, 80
2, 8457, Note_off_c, 0, 51, 48
2, 8460, Note_on_c, 0, 48, 80
2, 8487, Note_off_c, 0, 48, 48
2, 8490, Note_on_c, 0, 51, 80
2, 8517, Note_off_c, 0, 51, 48
2, 8520, Note_on_c, 0, 44, 80
2, 8538, Note_off_c, 0, 44, 48
2, 8550, Note_on_c, 0, 51, 80
2, 8577, Note_off_c, 0, 51, 48
2, 8580, Note_on_c, 0, 48, 80
2, 8607, Note_off_c, 0, 48, 48
2, 8610, Note_on_c, 0, 51, 80
2, 8624, Control_c, 0, 64, 0
2, 8637, Note_off_c, 0, 51, 48
2, 8640, Note_on_c, 0, 43, 80
2, 8640, Control_c, 0, 64, 127
2, 8658, Note_off_c, 0, 43, 48
2, 8670, Note_on_c, 0, 51, 80
2, 8697, Note_off_c, 0, 51, 48
2, 8700, Note_on_c, 0, 49, 80
2, 8727, Note_off_c, 0, 49, 48
2, 8730, Note_on_c, 0, 51, 80
2, 8757, Note_off_c, 0, 51, 48
2, 8760, Note_on_c, 0, 55, 80
2, 8778, Note_off_c, 0, 55, 48
2, 8790, Note_on_c, 0, 51, 80
2, 8817, Note_off_c, 0, 51, 48
2, 8820, Note_on_c, 0, 49, 80
2, 8847, Note_off_c, 0, 49, 48
2, 8850, Note_on_c, 0, 51, 80
2, 8877, Note_off_c, 0, 51, 48
2, 8880, Note_on_c, 0, 55, 80
2, 8898, Note_off_c, 0, 55, 48
2, 8910, Note_on_c, 0, 63, 80
2, 8937, Note_off_c, 0, 63, 48
2, 8940, Note_on_c, 0, 61, 80
2, 8967, Note_off_c, 0, 61, 48
2, 8970, Note_on_c, 0, 63, 80
2, 8997, Note_off_c, 0, 63, 48
2, 9000, Note_on_c, 0, 67, 80
2, 9018, Note_off_c, 0, 67, 48
2, 9030, Note_on_c, 0, 63, 80
2, 9057, Note_off_c, 0, 63, 48
2, 9060, Note_on_c, 0, 61, 80
2, 9087, Note_off_c, 0, 61, 48
2, 9090, Note_on_c, 0, 63, 80
2, 9117, Note_off_c, 0, 63, 48
2, 9120, Note_on_c, 0, 67, 80
2, 9138, Note_off_c, 0, 67, 48
2, 9150, Note_on_c, 0, 75, 80
2, 9177, Note_off_c, 0, 75, 48
2, 9180, Note_on_c, 0, 73, 80
2, 9207, Note_off_c, 0, 73, 48
2, 9210, Note_on_c, 0, 75, 80
2, 9237, Note_off_c, 0, 75, 48
2, 9240, Note_on_c, 0, 79, 80
2, 9258, Note_off_c, 0, 79, 48
2, 9270, Note_on_c, 0, 75, 80
2, 9297, Note_off_c, 0, 75, 48
2, 9300, Note_on_c, 0, 73, 80
2, 9327, Note_off_c, 0, 73, 48
2, 9330, Note_on_c, 0, 75, 80
2, 9344, Control_c, 0, 64, 0
2, 9357, Note_off_c, 0, 75, 48
2, 9360, Note_on_c, 0, 80, 80
2, 9360, Control_c, 0, 64, 127
2, 9378, Note_off_c, 0, 80, 48
2, 9390, Note_on_c, 0, 87, 80
2, 9417, Note_off_c, 0, 87, 48
2, 9420, Note_on_c, 0, 84, 80
2, 9447, Note_off_c, 0, 84, 48
2, 9450, Note_on_c, 0, 87, 80
2, 9477, Note_off_c, 0, 87, 48
2, 9480, Note_on_c, 0, 92, 80
2, 9498, Note_off_c, 0, 92, 48
2, 9510, Note_on_c, 0, 87, 80
2, 9537, Note_off_c, 0, 87, 48
2, 9540, Note_on_c, 0, 84, 80
2, 9567, Note_off_c, 0, 84, 48
2, 9570, Note_on_c, 0, 87, 80
2, 9597, Note_off_c, 0, 87, 48
2, 9600, Note_on_c, 0, 80, 80
2, 9618, Note_off_c, 0, 80, 48
2, 9630, Note_on_c, 0, 75, 80
2, 9657, Note_off_c, 0, 75, 48
2, 9660, Note_on_c, 0, 72, 80
2, 9687, Note_off_c, 0, 72, 48
2, 9690, Note_on_c, 0, 75, 80
2, 9717, Note_off_c, 0, 75, 48
2, 9720, Note_on_c, 0, 68, 80
2, 9738, Note_off_c, 0, 68, 48
2, 9750, Note_on_c, 0, 63, 80
2, 9777, Note_off_c, 0, 63, 48
2, 9780, Note_on_c, 0, 60, 80
2, 9807, Note_off_c, 0, 60, 48
2, 9810, Note_on_c, 0, 63, 80
2, 9837, Note_off_c, 0, 63, 48
2, 9840, Note_on_c, 0, 56, 80
2, 9867, Note_off_c, 0, 56, 48
2, 9870, Note_on_c, 0, 51, 80
2, 9897, Note_off_c, 0, 51, 48
2, 9900, Note_on_c, 0, 48, 80
2, 9927, Note_off_c, 0, 48, 48
2, 9930, Note_on_c, 0, 51, 80
2, 9957, Note_off_c, 0, 51, 48
2, 9960, Note_on_c, 0, 44, 80
2, 9987, Note_off_c, 0, 44, 48
2, 9990, Note_on_c, 0, 51, 80
2, 10017, Note_off_c, 0, 51, 48
2, 10020, Note_on_c, 0, 48, 80
2, 10047, Note_off_c, 0, 48, 48
2, 10050, Note_on_c, 0, 51, 80
2, 10064, Control_c, 0, 64, 0
2, 10077, Note_off_c, 0, 51, 48
2, 10080, Note_on_c, 0, 46, 80
2, 10080, Control_c, 0, 64, 127
2, 10098, Note_off_c, 0, 46, 48
2, 10110, Note_on_c, 0, 51, 80
2, 10137, Note_off_c, 0, 51, 48
2, 10140, Note_on_c, 0, 49, 80
2, 10167, Note_off_c, 0, 49, 48
2, 10170, Note_on_c, 0, 51, 80
2, 10197, Note_off_c, 0, 51, 48
2, 10200, Note_on_c, 0, 58, 80
2, 10218, Note_off_c, 0, 58, 48
2, 10230, Note_on_c, 0, 51, 80
2, 10257, Note_off_c, 0, 51, 48
2, 10260, Note_on_c, 0, 49, 80
2, 10287, Note_off_c, 0, 49, 48
2, 10290, Note_on_c, 0, 51, 80
2, 10317, Note_off_c, 0, 51, 48
2, 10320, Note_on_c, 0, 58, 80
2, 10338, Note_off_c, 0, 58, 48
2, 10350, Note_on_c, 0, 63, 80
2, 10377, Note_off_c, 0, 63, 48
2, 10380, Note_on_c, 0, 61, 80
2, 10407, Note_off_c, 0, 61, 48
2, 10410, Note_on_c, 0, 63, 80
2, 10437, Note_off_c, 0, 63, 48
2, 10440, Note_on_c, 0, 70, 80
2, 10458, Note_off_c, 0, 70, 48
2, 10470, Note_on_c, 0, 63, 80
2, 10497, Note_off_c, 0, 63, 48
2, 10500, Note_on_c, 0, 61, 80
2, 10527, Note_off_c, 0, 61, 48
2, 10530, Note_on_c, 0, 63, 80
2, 10557, Note_off_c, 0, 63, 48
2, 10560, Note_on_c, 0, 70, 80
2, 10578, Note_off_c, 0, 70, 48
2, 10590, Note_on_c, 0, 75, 80
2, 10617, Note_off_c, 0, 75, 48
2, 10620, Note_on_c, 0, 73, 80
2, 10647, Note_off_c, 0, 73, 48
2, 10650, Note_on_c, 0, 75, 80
2, 10677, Note_off_c, 0, 75, 48
2, 10680, Note_on_c, 0, 82, 80
2, 10698, Note_off_c, 0, 82, 48
2, 10710, Note_on_c, 0, 75, 80
2, 10737, Note_off_c, 0, 75, 48
2, 10740, Note_on_c, 0, 73, 80
2, 10767, Note_off_c, 0, 73, 48
2, 10770, Note_on_c, 0, 75, 80
2, 10784, Control_c, 0, 64, 0
2, 10797, Note_off_c, 0, 75, 48
2, 10800, Note_on_c, 0, 72, 80
2, 10800, Control_c, 0, 64, 127
2, 10818, Note_off_c, 0, 72, 48
2, 10830, Note_on_c, 0, 80, 80
2, 10857, Note_off_c, 0, 80, 48
2, 10860, Note_on_c, 0, 75, 80
2, 10887, Note_off_c, 0, 75, 48
2, 10890, Note_on_c, 0, 80, 80
2, 10917, Note_off_c, 0, 80, 48
2, 10920, Note_on_c, 0, 84, 80
2, 10938, Note_off_c, 0, 84, 48
2, 10950, Note_on_c, 0, 80, 80
2, 10977, Note_off_c, 0, 80, 48
2, 10980, Note_on_c, 0, 75, 80
2, 11007, Note_off_c, 0, 75, 48
2, 11010, Note_on_c, 0, 80, 80
2, 11037, Note_off_c, 0, 80, 48
2, 11040, Note_on_c, 0, 72, 80
2, 11058, Note_off_c, 0, 72, 48
2, 11070, Note_on_c, 0, 68, 80
2, 11097, Note_off_c, 0, 68, 48
2, 11100, Note_on_c, 0, 63, 80
2, 11127, Note_off_c, 0, 63, 48
2, 11130, Note_on_c, 0, 68, 80
2, 11157, Note_off_c, 0, 68, 48
2, 11160, Note_on_c, 0, 60, 80
2, 11178, Note_off_c, 0, 60, 48
2, 11190, Note_on_c, 0, 56, 80
2, 11217, Note_off_c, 0, 56, 48
2, 11220, Note_on_c, 0, 51, 80
2, 11247, Note_off_c, 0, 51, 48
2, 11250, Note_on_c, 0, 56, 80
2, 11264, Control_c, 0, 64, 0
2, 11277, Note_off_c, 0, 56, 48
2, 11280, Control_c, 0, 64, 127
2, 11280, Note_on_c, 0, 48, 80
2, 11298, Note_off_c, 0, 48, 48
2, 11310, Note_on_c, 0, 56, 80
2, 11337, Note_off_c, 0, 56, 48
2, 11340, Note_on_c, 0, 51, 80
2, 11367, Note_off_c, 0, 51, 48
2, 11370, Note_on_c, 0, 56, 80
2, 11397, Note_off_c, 0, 56, 48
2, 11400, Note_on_c, 0, 60, 80
2, 11418, Note_off_c, 0, 60, 48
2, 11430, Note_on_c, 0, 56, 80
2, 11457, Note_off_c, 0, 56, 48
2, 11460, Note_on_c, 0, 51, 80
2, 11487, Note_off_c, 0, 51, 48
2, 11490, Note_on_c, 0, 56, 80
2, 11504, Control_c, 0, 64, 0
2, 11517, Note_off_c, 0, 56, 48
2, 11520, Note_on_c, 0, 50, 80
2, 11520, Control_c, 0, 64, 127
2, 11538, Note_off_c, 0, 50, 48
2, 11550, Note_on_c, 0, 58, 80
2, 11577, Note_off_c, 0, 58, 48
2, 11580, Note_on_c, 0, 56, 80
2, 11607, Note_off_c, 0, 56, 48
2, 11610, Note_on_c, 0, 58, 80
2, 11637, Note_off_c, 0, 58, 48
2, 11640, Note_on_c, 0, 62, 81
2, 11658, Note_off_c, 0, 62, 48
2, 11670, Note_on_c, 0, 58, 81
2, 11697, Note_off_c, 0, 58, 48
2, 11700, Note_on_c, 0, 56, 81
2, 11727, Note_off_c, 0, 56, 48
2, 11730, Note_on_c, 0, 58, 82
2, 11757, Note_off_c, 0, 58, 48
2, 11760, Note_on_c, 0, 62, 82
2, 11778, Note_off_c, 0, 62, 48
2, 11790, Note_on_c, 0, 70, 82
2, 11817, Note_off_c, 0, 70, 48
2, 11820, Note_on_c, 0, 68, 83
2, 11847, Note_off_c, 0, 68, 48
2, 11850, Note_on_c, 0, 70, 83
2, 11877, Note_off_c, 0, 70, 48
2, 11880, Note_on_c, 0, 74, 83
2, 11898, Note_off_c, 0, 74, 48
2, 11910, Note_on_c, 0, 70, 83
2, 11937, Note_off_c, 0, 70, 48
2, 11940, Note_on_c, 0, 68, 84
2, 11967, Note_off_c, 0, 68, 48
2, 11970, Note_on_c, 0, 70, 84
2, 11988, Control_c, 0, 64, 0
2, 11997, Note_off_c, 0, 70, 48
2, 12000, Control_c, 0, 64, 127
2, 12000, Note_on_c, 0, 75, 84
2, 12018, Note_off_c, 0, 75, 48
2, 12030, Note_on_c, 0, 82, 85
2, 12057, Note_off_c, 0, 82, 48
2, 12060, Note_on_c, 0, 79, 85
2, 12087, Note_off_c, 0, 79, 48
2, 12090, Note_on_c, 0, 82, 85
2, 12117, Note_off_c, 0, 82, 48
2, 12120, Note_on_c, 0, 87, 86
2, 12147, Note_off_c, 0, 87, 48
2, 12150, Note_on_c, 0, 82, 86
2, 12177, Note_off_c, 0, 82, 48
2, 12180, Note_on_c, 0, 79, 86
2, 12207, Note_off_c, 0, 79, 48
2, 12210, Note_on_c, 0, 82, 87
2, 12224, Control_c, 0, 64, 0
2, 12237, Note_off_c, 0, 82, 48
2, 12240, Note_on_c, 0, 77, 87
2, 12258, Note_off_c, 0, 77, 48
2, 12270, Note_on_c, 0, 82, 87
2, 12297, Note_off_c, 0, 82, 48
2, 12300, Note_on_c, 0, 80, 87
2, 12327, Note_off_c, 0, 80, 48
2, 12330, Note_on_c, 0, 82, 88
2, 12357, Note_off_c, 0, 82, 48
2, 12360, Note_on_c, 0, 89, 88
2, 12378, Note_off_c, 0, 89, 48
2, 12390, Note_on_c, 0, 82, 88
2, 12417, Note_off_c, 0, 82, 48
2, 12420, Note_on_c, 0, 80, 89
2, 12447, Note_off_c, 0, 80, 48
2, 12450, Note_on_c, 0, 82, 89
2, 12477, Note_off_c, 0, 82, 48
2, 12480, Note_on_c, 0, 77, 89
2, 12498, Note_off_c, 0, 77, 48
2, 12510, Note_on_c, 0, 82, 90
2, 12537, Note_off_c, 0, 82, 48
2, 12540, Note_on_c, 0, 80, 90
2, 12567, Note_off_c, 0, 80, 48
2, 12570, Note_on_c, 0, 82, 90
2, 12597, Note_off_c, 0, 82, 48
2, 12600, Note_on_c, 0, 89, 91
2, 12618, Note_off_c, 0, 89, 48
2, 12630, Note_on_c, 0, 82, 91
2, 12657, Note_off_c, 0, 82, 48
2, 12660, Note_on_c, 0, 80, 91
2, 12687, Note_off_c, 0, 80, 48
2, 12690, Note_on_c, 0, 82, 91
2, 12717, Note_off_c, 0, 82, 48
2, 12720, Note_on_c, 0, 79, 92
2, 12738, Note_off_c, 0, 79, 48
2, 12750, Note_on_c, 0, 87, 92
2, 12777, Note_off_c, 0, 87, 48
2, 12780, Note_on_c, 0, 82, 92
2, 12807, Note_off_c, 0, 82, 48
2, 12810, Note_on_c, 0, 87, 93
2, 12837, Note_off_c, 0, 87, 48
2, 12840, Note_on_c, 0, 91, 93
2, 12858, Note_off_c, 0, 91, 48
2, 12870, Note_on_c, 0, 87, 93
2, 12897, Note_off_c, 0, 87, 48
2, 12900, Note_on_c, 0, 82, 94
2, 12927, Note_off_c, 0, 82, 48
2, 12930, Note_on_c, 0, 87, 94
2, 12957, Note_off_c, 0, 87, 48
2, 12960, Note_on_c, 0, 80, 94
2, 12978, Note_off_c, 0, 80, 48
2, 12990, Note_on_c, 0, 92, 94
2, 13017, Note_off_c, 0, 92, 48
2, 13020, Note_on_c, 0, 87, 95
2, 13047, Note_off_c, 0, 87, 48
2, 13050, Note_on_c, 0, 92, 95
2, 13077, Note_off_c, 0, 92, 48
2, 13080, Note_on_c, 0, 81, 95
2, 13109, Note_off_c, 0, 81, 48
2, 13110, Note_on_c, 0, 93, 96
2, 13139, Note_off_c, 0, 93, 48
2, 13140, Note_on_c, 0, 87, 96
2, 13169, Note_off_c, 0, 87, 48
2, 13170, Note_on_c, 0, 93, 96
2, 13199, Note_off_c, 0, 93, 48
2, 13200, Note_on_c, 0, 81, 97
2, 13229, Note_off_c, 0, 81, 48
2, 13230, Note_on_c, 0, 93, 97
2, 13259, Note_off_c, 0, 93, 48
2, 13260, Note_on_c, 0, 87, 97
2, 13289, Note_off_c, 0, 87, 48
2, 13290, Note_on_c, 0, 93, 98
2, 13319, Note_off_c, 0, 93, 48
2, 13320, Note_on_c, 0, 82, 98
2, 13349, Note_off_c, 0, 82, 48
2, 13350, Note_on_c, 0, 94, 98
2, 13379, Note_off_c, 0, 94, 48
2, 13380, Note_on_c, 0, 87, 98
2, 13409, Note_off_c, 0, 87, 48
2, 13410, Note_on_c, 0, 94, 99
2, 13439, Note_off_c, 0, 94, 48
2, 13440, Note_on_c, 0, 82, 99
2, 13469, Note_off_c, 0, 82, 48
2, 13470, Note_on_c, 0, 94, 99
2, 13499, Note_off_c, 0, 94, 48
2, 13500, Note_on_c, 0, 87, 100
2, 13529, Note_off_c, 0, 87, 48
2, 13530, Note_on_c, 0, 94, 100
2, 13559, Note_off_c, 0, 94, 48
2, 13560, Note_on_c, 0, 83, 100
2, 13589, Note_off_c, 0, 83, 48
2, 13590, Note_on_c, 0, 95, 101
2, 13619, Note_off_c, 0, 95, 48
2, 13620, Note_on_c, 0, 87, 101
2, 13649, Note_off_c, 0, 87, 48
2, 13650, Note_on_c, 0, 95, 101
2, 13679, Note_off_c, 0, 95, 48
2, 13680, Note_on_c, 0, 96, 80
2, 13851, Note_off_c, 0, 96, 64
2, 13860, Note_on_c, 0, 84, 80
2, 13917, Note_off_c, 0, 84, 56
2, 13920, Note_on_c, 0, 94, 80
2, 14091, Note_off_c, 0, 94, 64
2, 14100, Note_on_c, 0, 82, 80
2, 14157, Note_off_c, 0, 82, 56
2, 14160, Note_on_c, 0, 92, 80
2, 14331, Note_off_c, 0, 92, 64
2, 14340, Note_on_c, 0, 93, 80
2, 14397, Note_off_c, 0, 93, 56
2, 14400, Note_on_c, 0, 94, 80
2, 14571, Note_off_c, 0, 94, 64
2, 14580, Note_on_c, 0, 82, 80
2, 14637, Note_off_c, 0, 82, 56
2, 14640, Note_on_c, 0, 92, 80
2, 14811, Note_off_c, 0, 92, 64
2, 14820, Note_on_c, 0, 80, 80
2, 14877, Note_off_c, 0, 80, 56
2, 14880, Note_on_c, 0, 91, 80
2, 14940, Note_off_c, 0, 91, 56
2, 14940, Note_on_c, 0, 79, 80
2, 14997, Note_off_c, 0, 79, 56
2, 15000, Note_on_c, 0, 80, 80
2, 15057, Note_off_c, 0, 80, 56
2, 15060, Note_on_c, 0, 82, 80
2, 15117, Note_off_c, 0, 82, 56
2, 15120, Note_on_c, 0, 86, 80
2, 15177, Note_off_c, 0, 86, 56
2, 15180, Note_on_c, 0, 84, 80
2, 15294, Note_off_c, 0, 84, 64
2, 15300, Note_on_c, 0, 72, 80
2, 15357, Note_off_c, 0, 72, 56
2, 15360, Note_on_c, 0, 84, 80
2, 15417, Note_off_c, 0, 84, 56
2, 15420, Note_on_c, 0, 82, 80
2, 15534, Note_off_c, 0, 82, 64
2, 15540, Note_on_c, 0, 70, 80
2, 15597, Note_off_c, 0, 70, 56
2, 15600, Note_on_c, 0, 82, 80
2, 15657, Note_off_c, 0, 82, 56
2, 15660, Note_on_c, 0, 80, 80
2, 15774, Note_off_c, 0, 80, 64
2, 15780, Note_on_c, 0, 81, 80
2, 15837, Note_off_c, 0, 81, 56
2, 15840, Note_on_c, 0, 84, 80
2, 15897, Note_off_c, 0, 84, 56
2, 15900, Note_on_c, 0, 82, 80
2, 16014, Note_off_c, 0, 82, 64
2, 16020, Note_on_c, 0, 70, 80
2, 16077, Note_off_c, 0, 70, 56
2, 16080, Note_on_c, 0, 82, 80
2, 16137, Note_off_c, 0, 82, 56
2, 16140, Note_on_c, 0, 80, 80
2, 16254, Note_off_c, 0, 80, 64
2, 16260, Note_on_c, 0, 68, 80
2, 16308, Note_off_c, 0, 68, 56
2, 16320, Note_on_c, 0, 79, 80
2, 16320, Note_on_c, 0, 70, 80
2, 16380, Note_off_c, 0, 79, 56
2, 16380, Note_on_c, 0, 77, 80
2, 16428, Note_off_c, 0, 77, 56
2, 16434, Note_off_c, 0, 70, 64
2, 16440, Note_on_c, 0, 70, 80
2, 16440, Note_on_c, 0, 79, 80
2, 16500, Note_off_c, 0, 79, 56
2, 16500, Note_on_c, 0, 77, 80
2, 16548, Note_off_c, 0, 77, 56
2, 16554, Note_off_c, 0, 70, 64
2, 16560, Note_on_c, 0, 79, 80
2, 16560, Note_on_c, 0, 70, 80
2, 16788, Note_off_c, 0, 70, 64
2, 16788, Note_off_c, 0, 79, 64
2, 16800, Note_on_c, 0, 70, 82
2, 16800, Note_on_c, 0, 77, 82
2, 17028, Note_off_c, 0, 77, 64
2, 17028, Note_off_c, 0, 70, 64
2, 17040, Note_on_c, 0, 82, 84
2, 17040, Note_on_c, 0, 70, 84
2, 17100, Note_off_c, 0, 70, 56
2, 17100, Note_off_c, 0, 82, 56
2, 17100, Note_on_c, 0, 81, 85
2, 17100, Note_on_c, 0, 75, 85
2, 17148, Note_off_c, 0, 81, 56
2, 17157, Note_off_c, 0, 75, 56
2, 17160, Note_on_c, 0, 70, 85
2, 17160, Note_on_c, 0, 82, 85
2, 17220, Note_off_c, 0, 82, 56
2, 17220, Note_off_c, 0, 70, 56
2, 17220, Note_on_c, 0, 81, 86
2, 17220, Note_on_c, 0, 75, 86
2, 17268, Note_off_c, 0, 81, 56
2, 17277, Note_off_c, 0, 75, 56
2, 17280, Note_on_c, 0, 82, 86
2, 17280, Note_on_c, 0, 70, 86
2, 17280, Note_on_c, 0, 75, 86
2, 17520, Note_off_c, 0, 75, 64
2, 17520, Note_off_c, 0, 70, 64
2, 17520, Note_off_c, 0, 82, 64
2, 17520, Note_on_c, 0, 69, 88
2, 17535, Note_on_c, 0, 75, 88
2, 17550, Note_on_c, 0, 84, 88
2, 17862, Note_off_c, 0, 84, 64
2, 17862, Note_off_c, 0, 75, 64
2, 17862, Note_off_c, 0, 69, 64
2, 17880, Note_on_c, 0, 69, 92
2, 17895, Note_on_c, 0, 77, 92
2, 17910, Note_on_c, 0, 84, 92
2, 18000, Note_off_c, 0, 84, 64
2, 18000, Note_off_c, 0, 77, 64
2, 18000, Note_off_c, 0, 69, 64
2, 18120, Note_on_c, 0, 70, 94
2, 18135, Note_on_c, 0, 77, 94
2, 18150, Note_on_c, 0, 86, 94
2, 18240, Note_off_c, 0, 86, 64
2, 18240, Note_off_c, 0, 77, 64
2, 18240, Note_off_c, 0, 70, 64
2, 18360, Note_on_c, 0, 72, 96
2, 18375, Note_on_c, 0, 77, 96
2, 18390, Note_on_c, 0, 87, 96
2, 18480, Note_off_c, 0, 87, 64
2, 18480, Note_off_c, 0, 77, 64
2, 18480, Note_off_c, 0, 72, 64
2, 18600, Note_on_c, 0, 74, 98
2, 18615, Note_on_c, 0, 77, 98
2, 18630, Note_on_c, 0, 89, 98
2, 18834, Note_off_c, 0, 74, 64
2, 18834, Note_off_c, 0, 77, 64
2, 18834, Note_off_c, 0, 89, 64
2, 18840, Note_on_c, 0, 91, 95
2, 18936, Note_off_c, 0, 91, 64
2, 18960, Note_on_c, 0, 92, 96
2, 19056, Note_off_c, 0, 92, 64
2, 19080, Note_on_c, 0, 93, 97
2, 19176, Note_off_c, 0, 93, 64
2, 19200, Note_on_c, 0, 94, 98
2, 19554, Note_off_c, 0, 94, 64
2, 19560, Note_on_c, 0, 67, 100
2, 19632, Note_off_c, 0, 67, 64
2, 19860, Note_on_c, 0, 67, 100
2, 19920, Note_off_c, 0, 67, 56
2, 19920, Note_on_c, 0, 68, 100
2, 19956, Note_off_c, 0, 68, 56
2, 19980, Note_on_c, 0, 70, 100
2, 20040, Note_off_c, 0, 70, 56
2, 20040, Note_on_c, 0, 72, 100
2, 20076, Note_off_c, 0, 72, 56
2, 20100, Note_on_c, 0, 74, 100
2, 20160, Note_off_c, 0, 74, 56
2, 20160, Note_on_c, 0, 75, 100
2, 20232, Note_off_c, 0, 75, 64
2, 20280, Note_on_c, 0, 70, 100
2, 20352, Note_off_c, 0, 70, 64
2, 20580, Note_on_c, 0, 74, 100
2, 20640, Note_off_c, 0, 74, 56
2, 20640, Note_on_c, 0, 75, 100
2, 20676, Note_off_c, 0, 75, 56
2, 20700, Note_on_c, 0, 77, 100
2, 20760, Note_off_c, 0, 77, 56
2, 20760, Note_on_c, 0, 79, 100
2, 20796, Note_off_c, 0, 79, 56
2, 20820, Note_on_c, 0, 80, 100
2, 20880, Note_off_c, 0, 80, 56
2, 20880, Note_on_c, 0, 82, 100
2, 20952, Note_off_c, 0, 82, 64
2, 21000, Note_on_c, 0, 79, 97
2, 21072, Note_off_c, 0, 79, 64
2, 21300, Note_on_c, 0, 87, 89
2, 21360, Note_off_c, 0, 87, 56
2, 21360, Note_on_c, 0, 89, 87
2, 21396, Note_off_c, 0, 89, 56
2, 21420, Note_on_c, 0, 91, 85
2, 21480, Note_off_c, 0, 91, 56
2, 21480, Note_on_c, 0, 92, 84
2, 21516, Note_off_c, 0, 92, 56
2, 21540, Note_on_c, 0, 94, 82
2, 21600, Note_off_c, 0, 94, 56
2, 21600, Note_on_c, 0, 96, 80
2, 21816, Note_off_c, 0, 96, 64
2, 22020, Note_on_c, 0, 65, 80
2, 22077, Note_off_c, 0, 65, 56
2, 22080, Note_on_c, 0, 70, 80
2, 22080, Note_on_c, 0, 65, 80
2, 22194, Note_off_c, 0, 65, 64
2, 22194, Note_off_c, 0, 70, 64
2, 22260, Note_on_c, 0, 65, 80
2, 22260, Note_on_c, 0, 70, 80
2, 22317, Note_off_c, 0, 70, 56
2, 22317, Note_off_c, 0, 65, 56
2, 22320, Note_on_c, 0, 69, 80
2, 22320, Note_on_c, 0, 66, 80
2, 22548, Note_off_c, 0, 66, 64
2, 22548, Note_off_c, 0, 69, 64
2, 22560, Note_on_c, 0, 65, 80
2, 22560, Note_on_c, 0, 68, 80
2, 22788, Note_off_c, 0, 68, 64
2, 22788, Note_off_c, 0, 65, 64
2, 22800, Note_on_c, 0, 67, 80
2, 22857, Note_off_c, 0, 67, 56
2, 22860, Note_on_c, 0, 87, 80
2, 22917, Note_off_c, 0, 87, 56
2, 22920, Note_on_c, 0, 86, 80
2, 22977, Note_off_c, 0, 86, 56
2, 22980, Note_on_c, 0, 85, 80
2, 23037, Note_off_c, 0, 85, 56
2, 23040, Note_on_c, 0, 84, 80
2, 23069, Note_off_c, 0, 84, 48
2, 23070, Note_on_c, 0, 82, 80
2, 23099, Note_off_c, 0, 82, 48
2, 23100, Note_on_c, 0, 80, 80
2, 23129, Note_off_c, 0, 80, 48
2, 23130, Note_on_c, 0, 79, 80
2, 23159, Note_off_c, 0, 79, 48
2, 23160, Note_on_c, 0, 78, 80
2, 23189, Note_off_c, 0, 78, 48
2, 23190, Note_on_c, 0, 77, 80
2, 23219, Note_off_c, 0, 77, 48
2, 23220, Note_on_c, 0, 76, 80
2, 23249, Note_off_c, 0, 76, 48
2, 23250, Note_on_c, 0, 75, 80
2, 23279, Note_off_c, 0, 75, 48
2, 23280, Note_on_c, 0, 74, 80
2, 23309, Note_off_c, 0, 74, 48
2, 23310, Note_on_c, 0, 73, 80
2, 23339, Note_off_c, 0, 73, 48
2, 23340, Note_on_c, 0, 72, 80
2, 23369, Note_off_c, 0, 72, 48
2, 23370, Note_on_c, 0, 71, 80
2, 23399, Note_off_c, 0, 71, 48
2, 23400, Note_on_c, 0, 70, 80
2, 23429, Note_off_c, 0, 70, 48
2, 23430, Note_on_c, 0, 68, 80
2, 23459, Note_off_c, 0, 68, 48
2, 23460, Note_on_c, 0, 67, 80
2, 23489, Note_off_c, 0, 67, 48
2, 23490, Note_on_c, 0, 65, 80
2, 23519, Note_off_c, 0, 65, 48
2, 23520, Note_on_c, 0, 70, 80
2, 23520, Note_on_c, 0, 62, 80
2, 23634, Note_off_c, 0, 62, 64
2, 23634, Note_off_c, 0, 70, 64
2, 23700, Note_on_c, 0, 70, 80
2, 23700, Note_on_c, 0, 62, 80
2, 23757, Note_off_c, 0, 62, 56
2, 23757, Note_off_c, 0, 70, 56
2, 23760, Note_on_c, 0, 63, 80
2, 23760, Note_on_c, 0, 70, 80
2, 23874, Note_off_c, 0, 70, 64
2, 23880, Note_on_c, 0, 72, 80
2, 23937, Note_off_c, 0, 72, 56
2, 23940, Note_on_c, 0, 70, 80
2, 23997, Note_off_c, 0, 70, 56
2, 24000, Note_on_c, 0, 68, 80
2, 24057, Note_off_c, 0, 68, 56
2, 24060, Note_on_c, 0, 67, 80
2, 24117, Note_off_c, 0, 67, 56
2, 24120, Note_on_c, 0, 65, 80
2, 24177, Note_off_c, 0, 65, 56
2, 24180, Note_on_c, 0, 67, 80
2, 24237, Note_off_c, 0, 67, 56
2, 24240, Note_on_c, 0, 68, 80
2, 24297, Note_off_c, 0, 63, 64
2, 24300, Note_on_c, 0, 60, 80
2, 24357, Note_off_c, 0, 60, 56
2, 24360, Note_on_c, 0, 63, 80
2, 24417, Note_off_c, 0, 63, 56
2, 24420, Note_on_c, 0, 62, 80
2, 24468, Note_off_c, 0, 68, 64
2, 24477, Note_off_c, 0, 62, 56
2, 24480, Note_on_c, 0, 63, 80
2, 24480, Note_on_c, 0, 67, 80
2, 24537, Note_off_c, 0, 67, 56
2, 24540, Note_on_c, 0, 58, 80
2, 24597, Note_off_c, 0, 58, 56
2, 24600, Note_on_c, 0, 60, 80
2, 24657, Note_off_c, 0, 60, 56
2, 24660, Note_on_c, 0, 58, 80
2, 24717, Note_off_c, 0, 58, 56
2, 24720, Note_on_c, 0, 56, 80
2, 24777, Note_off_c, 0, 56, 56
2, 24780, Note_on_c, 0, 55, 80
2, 24837, Note_off_c, 0, 55, 56
2, 24840, Note_on_c, 0, 53, 80
2, 24897, Note_off_c, 0, 53, 56
2, 24900, Note_on_c, 0, 55, 80
2, 24957, Note_off_c, 0, 55, 56
2, 24960, Note_on_c, 0, 56, 80
2, 25017, Note_off_c, 0, 63, 64
2, 25020, Note_on_c, 0, 60, 80
2, 25077, Note_off_c, 0, 60, 56
2, 25080, Note_on_c, 0, 63, 80
2, 25137, Note_off_c, 0, 63, 56
2, 25140, Note_on_c, 0, 62, 80
2, 25188, Note_off_c, 0, 56, 64
2, 25197, Note_off_c, 0, 62, 56
2, 25200, Note_on_c, 0, 55, 80
2, 25200, Note_on_c, 0, 65, 80
2, 25257, Note_off_c, 0, 65, 56
2, 25260, Note_on_c, 0, 62, 80
2, 25317, Note_off_c, 0, 62, 56
2, 25320, Note_on_c, 0, 65, 80
2, 25377, Note_off_c, 0, 65, 56
2, 25380, Note_on_c, 0, 63, 80
2, 25428, Note_off_c, 0, 55, 64
2, 25437, Note_off_c, 0, 63, 56
2, 25440, Note_on_c, 0, 68, 80
2, 25497, Note_off_c, 0, 68, 56
2, 25500, Note_on_c, 0, 65, 80
2, 25557, Note_off_c, 0, 65, 56
2, 25560, Note_on_c, 0, 68, 80
2, 25617, Note_off_c, 0, 68, 56
2, 25620, Note_on_c, 0, 67, 80
2, 25677, Note_off_c, 0, 67, 56
2, 25680, Note_on_c, 0, 72, 80
2, 25737, Note_off_c, 0, 72, 56
2, 25740, Note_on_c, 0, 69, 80
2, 25797, Note_off_c, 0, 69, 56
2, 25800, Note_on_c, 0, 72, 80
2, 25857, Note_off_c, 0, 72, 56
2, 25860, Note_on_c, 0, 70, 80
2, 25917, Note_off_c, 0, 70, 56
2, 25920, Note_on_c, 0, 77, 80
2, 25977, Note_off_c, 0, 77, 56
2, 25980, Note_on_c, 0, 74, 80
2, 26037, Note_off_c, 0, 74, 56
2, 26040, Note_on_c, 0, 77, 80
2, 26097, Note_off_c, 0, 77, 56
2, 26100, Note_on_c, 0, 75, 80
2, 26157, Note_off_c, 0, 75, 56
2, 26160, Note_on_c, 0, 80, 80
2, 26217, Note_off_c, 0, 80, 56
2, 26220, Note_on_c, 0, 77, 80
2, 26277, Note_off_c, 0, 77, 56
2, 26280, Note_on_c, 0, 80, 80
2, 26337, Note_off_c, 0, 80, 56
2, 26340, Note_on_c, 0, 79, 80
2, 26397, Note_off_c, 0, 79, 56
2, 26400, Note_on_c, 0, 84, 80
2, 26457, Note_off_c, 0, 84, 56
2, 26460, Note_on_c, 0, 81, 80
2, 26517, Note_off_c, 0, 81, 56
2, 26520, Note_on_c, 0, 84, 80
2, 26577, Note_off_c, 0, 84, 56
2, 26580, Note_on_c, 0, 82, 80
2, 26637, Note_off_c, 0, 82, 56
2, 26640, Control_c, 0, 64, 126
2, 26640, Note_on_c, 0, 87, 80
2, 27120, Note_on_c, 0, 75, 74
2, 27324, Note_off_c, 0, 87, 64
2, 27344, Control_c, 0, 64, 0
2, 27348, Note_off_c, 0, 75, 64
2, 27360, Note_on_c, 0, 85, 70
2, 27360, Control_c, 0, 64, 126
2, 27840, Note_on_c, 0, 73, 76
2, 28044, Note_off_c, 0, 85, 64
2, 28064, Control_c, 0, 64, 0
2, 28068, Note_off_c, 0, 73, 64
2, 28080, Note_on_c, 0, 72, 80
2, 28080, Note_on_c, 0, 84, 80
2, 28440, Note_off_c, 0, 84, 64
2, 28440, Note_off_c, 0, 72, 64
2, 28440, Note_on_c, 0, 80, 81
2, 28536, Note_off_c, 0, 80, 64
2, 28560, Note_on_c, 0, 80, 81
2, 28731, Note_off_c, 0, 80, 64
2, 28740, Note_on_c, 0, 80, 82
2, 28797, Note_off_c, 0, 80, 56
2, 28800, Note_on_c, 0, 79, 82
2, 28800, Control_c, 0, 64, 126
2, 28800, Note_on_c, 0, 85, 82
2, 28800, Note_on_c, 0, 82, 82
2, 28800, Note_on_c, 0, 76, 82
2, 28992, Note_off_c, 0, 76, 64
2, 28992, Note_off_c, 0, 82, 64
2, 28992, Note_off_c, 0, 85, 64
2, 28992, Note_off_c, 0, 79, 64
2, 29036, Control_c, 0, 64, 1
2, 29040, Note_on_c, 0, 82, 83
2, 29040, Note_on_c, 0, 76, 83
2, 29040, Note_on_c, 0, 79, 83
2, 29040, Control_c, 0, 64, 127
2, 29504, Control_c, 0, 64, 0
2, 29520, Note_off_c, 0, 79, 64
2, 29520, Note_off_c, 0, 76, 64
2, 29520, Note_off_c, 0, 82, 64
2, 29520, Note_on_c, 0, 79, 85
2, 29520, Control_c, 0, 64, 126
2, 29520, Note_on_c, 0, 82, 85
2, 29520, Note_on_c, 0, 76, 85
2, 29880, Note_off_c, 0, 76, 64
2, 29880, Note_off_c, 0, 82, 64
2, 29880, Note_off_c, 0, 79, 64
2, 29880, Note_on_c, 0, 79, 86
2, 29976, Note_off_c, 0, 79, 64
2, 30000, Note_on_c, 0, 79, 86
2, 30171, Note_off_c, 0, 79, 64
2, 30180, Note_on_c, 0, 79, 87
2, 30224, Control_c, 0, 64, 0
2, 30237, Note_off_c, 0, 79, 56
2, 30240, Note_on_c, 0, 77, 87
2, 30240, Control_c, 0, 64, 126
2, 30240, Note_on_c, 0, 80, 87
2, 30240, Note_on_c, 0, 84, 87
2, 30240, Note_on_c, 0, 72, 87
2, 30432, Note_off_c, 0, 72, 64
2, 30432, Note_off_c, 0, 84, 64
2, 30432, Note_off_c, 0, 80, 64
2, 30432, Note_off_c, 0, 77, 64
2, 30480, Note_on_c, 0, 72, 88
2, 30480, Note_on_c, 0, 77, 88
2, 30480, Note_on_c, 0, 80, 88
2, 30944, Control_c, 0, 64, 0
2, 30960, Note_off_c, 0, 80, 64
2, 30960, Note_off_c, 0, 77, 64
2, 30960, Note_off_c, 0, 72, 64
2, 30960, Note_on_c, 0, 72, 80
2, 30960, Note_on_c, 0, 80, 80
2, 30960, Note_on_c, 0, 77, 80
2, 31320, Note_off_c, 0, 77, 64
2, 31320, Note_off_c, 0, 80, 64
2, 31320, Note_on_c, 0, 77, 80
2, 31416, Note_off_c, 0, 77, 64
2, 31440, Note_on_c, 0, 77, 80
2, 31611, Note_off_c, 0, 77, 64
2, 31620, Note_on_c, 0, 77, 80
2, 31677, Note_off_c, 0, 77, 56
2, 31680, Note_off_c, 0, 72, 64
2, 31680, Note_on_c, 0, 72, 80
2, 31680, Note_on_c, 0, 82, 80
2, 31680, Note_on_c, 0, 79, 80
2, 31680, Note_on_c, 0, 76, 80
2, 31872, Note_off_c, 0, 76, 64
2, 31872, Note_off_c, 0, 79, 64
2, 31872, Note_off_c, 0, 82, 64
2, 31872, Note_off_c, 0, 72, 64
2, 31920, Note_on_c, 0, 72, 80
2, 31920, Note_on_c, 0, 79, 80
2, 31920, Note_on_c, 0, 76, 80
2, 32400, Note_off_c, 0, 76, 64
2, 32400, Note_off_c, 0, 79, 64
2, 32400, Note_off_c, 0, 72, 64
2, 32400, Note_on_c, 0, 80, 80
2, 32400, Note_on_c, 0, 72, 80
2, 32400, Note_on_c, 0, 77, 80
2, 32742, Note_off_c, 0, 77, 64
2, 32742, Note_off_c, 0, 80, 64
2, 32760, Note_on_c, 0, 77, 80
2, 32856, Note_off_c, 0, 77, 64
2, 32856, Note_off_c, 0, 72, 64
2, 32880, Note_on_c, 0, 77, 80
2, 32880, Note_on_c, 0, 72, 80
2, 32880, Note_on_c, 0, 68, 80
2, 33051, Note_off_c, 0, 77, 64
2, 33060, Note_on_c, 0, 77, 80
2, 33108, Note_off_c, 0, 68, 64
2, 33108, Note_off_c, 0, 72, 64
2, 33117, Note_off_c, 0, 77, 56
2, 33120, Note_on_c, 0, 73, 80
2, 33120, Note_on_c, 0, 66, 80
2, 33120, Note_on_c, 0, 78, 80
2, 33312, Note_off_c, 0, 78, 64
2, 33312, Note_off_c, 0, 66, 64
2, 33312, Note_off_c, 0, 73, 64
2, 33360, Note_on_c, 0, 75, 80
2, 33360, Note_on_c, 0, 72, 80
2, 33360, Note_on_c, 0, 66, 80
2, 33600, Note_off_c, 0, 66, 64
2, 33600, Note_on_c, 0, 68, 80
2, 33714, Note_off_c, 0, 68, 64
2, 33720, Note_on_c, 0, 66, 80
2, 33834, Note_off_c, 0, 66, 64
2, 33840, Note_off_c, 0, 72, 64
2, 33840, Note_off_c, 0, 75, 64
2, 33840, Note_on_c, 0, 77, 80
2, 33840, Note_on_c, 0, 65, 80
2, 33840, Note_on_c, 0, 73, 80
2, 34200, Note_off_c, 0, 73, 64
2, 34200, Note_off_c, 0, 77, 64
2, 34200, Note_on_c, 0, 73, 80
2, 34296, Note_off_c, 0, 73, 64
2, 34320, Note_off_c, 0, 65, 64
2, 34320, Note_on_c, 0, 73, 80
2, 34320, Note_on_c, 0, 65, 80
2, 34320, Note_on_c, 0, 68, 80
2, 34491, Note_off_c, 0, 73, 64
2, 34500, Note_on_c, 0, 73, 80
2, 34548, Note_off_c, 0, 68, 64
2, 34548, Note_off_c, 0, 65, 64
2, 34557, Note_off_c, 0, 73, 56
2, 34560, Note_on_c, 0, 66, 80
2, 34560, Note_on_c, 0, 78, 80
2, 34560, Note_on_c, 0, 75, 80
2, 34560, Note_on_c, 0, 72, 80
2, 34752, Note_off_c, 0, 72, 64
2, 34752, Note_off_c, 0, 75, 64
2, 34752, Note_off_c, 0, 78, 64
2, 34752, Note_off_c, 0, 66, 64
2, 34800, Note_on_c, 0, 66, 80
2, 34800, Note_on_c, 0, 75, 80
2, 34800, Note_on_c, 0, 72, 80
2, 35280, Note_off_c, 0, 72, 64
2, 35280, Note_off_c, 0, 75, 64
2, 35280, Note_off_c, 0, 66, 64
2, 35280, Note_on_c, 0, 77, 80
2, 35280, Note_on_c, 0, 65, 80
2, 35280, Note_on_c, 0, 72, 80
2, 35520, Note_off_c, 0, 65, 64
2, 35520, Note_on_c, 0, 65, 80
2, 35520, Note_on_c, 0, 70, 80
2, 35640, Note_off_c, 0, 72, 64
2, 35640, Note_off_c, 0, 77, 64
2, 35640, Note_on_c, 0, 73, 80
2, 35736, Note_off_c, 0, 73, 64
2, 35760, Note_on_c, 0, 73, 80
2, 35931, Note_off_c, 0, 73, 64
2, 35940, Note_on_c, 0, 73, 80
2, 35976, Note_off_c, 0, 70, 64
2, 35976, Note_off_c, 0, 65, 64
2, 35997, Note_off_c, 0, 73, 56
2, 36000, Note_on_c, 0, 65, 80
2, 36000, Note_on_c, 0, 70, 80
2, 36000, Note_on_c, 0, 75, 80
2, 36192, Note_off_c, 0, 75, 64
2, 36240, Note_on_c, 0, 72, 80
2, 36456, Note_off_c, 0, 70, 64
2, 36480, Note_on_c, 0, 69, 80
2, 36594, Note_off_c, 0, 69, 64
2, 36600, Note_on_c, 0, 65, 80
2, 36675, Note_off_c, 0, 65, 64
2, 36696, Note_off_c, 0, 72, 64
2, 36720, Note_on_c, 0, 73, 80
2, 36834, Note_off_c, 0, 65, 64
2, 36840, Note_on_c, 0, 65, 80
2, 37062, Note_off_c, 0, 73, 64
2, 37080, Note_on_c, 0, 70, 80
2, 37176, Note_off_c, 0, 70, 64
2, 37200, Note_on_c, 0, 70, 80
2, 37371, Note_off_c, 0, 70, 64
2, 37380, Note_on_c, 0, 70, 80
2, 37416, Note_off_c, 0, 65, 64
2, 37437, Note_off_c, 0, 70, 56
2, 37440, Note_on_c, 0, 65, 80
2, 37440, Note_on_c, 0, 70, 80
2, 37440, Note_on_c, 0, 75, 80
2, 37668, Note_off_c, 0, 75, 64
2, 37680, Note_on_c, 0, 72, 80
2, 37896, Note_off_c, 0, 70, 64
2, 37896, Note_off_c, 0, 65, 64
2, 37920, Note_on_c, 0, 69, 80
2, 37920, Note_on_c, 0, 65, 80
2, 38136, Note_off_c, 0, 72, 64
2, 38148, Note_off_c, 0, 65, 64
2, 38148, Note_off_c, 0, 69, 64
2, 38160, Note_on_c, 0, 73, 80
2, 38160, Note_on_c, 0, 65, 80
2, 38160, Note_on_c, 0, 70, 80
2, 38502, Note_off_c, 0, 70, 64
2, 38502, Note_off_c, 0, 73, 64
2, 38520, Note_on_c, 0, 70, 80
2, 38616, Note_off_c, 0, 70, 64
2, 38640, Note_on_c, 0, 70, 80
2, 38811, Note_off_c, 0, 70, 64
2, 38820, Note_on_c, 0, 70, 80
2, 38844, Note_off_c, 0, 65, 64
2, 38877, Note_off_c, 0, 70, 56
2, 38880, Note_on_c, 0, 73, 80
2, 38880, Note_on_c, 0, 63, 80
2, 38880, Note_on_c, 0, 70, 80
2, 39108, Note_off_c, 0, 70, 64
2, 39108, Note_off_c, 0, 63, 64
2, 39108, Note_off_c, 0, 73, 64
2, 39120, Note_on_c, 0, 70, 80
2, 39134, Note_off_c, 0, 70, 48
2, 39135, Note_on_c, 0, 72, 80
2, 39149, Note_off_c, 0, 72, 48
2, 39150, Note_on_c, 0, 70, 80
2, 39164, Note_off_c, 0, 70, 48
2, 39165, Note_on_c, 0, 72, 80
2, 39179, Note_off_c, 0, 72, 48
2, 39180, Note_on_c, 0, 70, 80
2, 39194, Note_off_c, 0, 70, 48
2, 39195, Note_on_c, 0, 72, 80
2, 39209, Note_off_c, 0, 72, 48
2, 39210, Note_on_c, 0, 70, 80
2, 39224, Note_off_c, 0, 70, 48
2, 39225, Note_on_c, 0, 72, 80
2, 39239, Note_off_c, 0, 72, 48
2, 39240, Note_on_c, 0, 70, 80
2, 39254, Note_off_c, 0, 70, 48
2, 39255, Note_on_c, 0, 72, 80
2, 39269, Note_off_c, 0, 72, 48
2, 39270, Note_on_c, 0, 70, 80
2, 39284, Note_off_c, 0, 70, 48
2, 39285, Note_on_c, 0, 72, 80
2, 39299, Note_off_c, 0, 72, 48
2, 39300, Note_on_c, 0, 70, 80
2, 39314, Note_off_c, 0, 70, 48
2, 39315, Note_on_c, 0, 72, 80
2, 39329, Note_off_c, 0, 72, 48
2, 39330, Note_on_c, 0, 70, 80
2, 39344, Note_off_c, 0, 70, 48
2, 39345, Note_on_c, 0, 72, 80
2, 39359, Note_off_c, 0, 72, 48
2, 39360, Note_on_c, 0, 70, 80
2, 39374, Note_off_c, 0, 70, 48
2, 39375, Note_on_c, 0, 72, 80
2, 39389, Note_off_c, 0, 72, 48
2, 39390, Note_on_c, 0, 70, 80
2, 39404, Note_off_c, 0, 70, 48
2, 39405, Note_on_c, 0, 72, 80
2, 39419, Note_off_c, 0, 72, 48
2, 39420, Note_on_c, 0, 70, 80
2, 39434, Note_off_c, 0, 70, 48
2, 39435, Note_on_c, 0, 72, 80
2, 39449, Note_off_c, 0, 72, 48
2, 39450, Note_on_c, 0, 70, 80
2, 39464, Note_off_c, 0, 70, 48
2, 39465, Note_on_c, 0, 72, 80
2, 39479, Note_off_c, 0, 72, 48
2, 39480, Note_on_c, 0, 71, 80
2, 39494, Note_off_c, 0, 71, 48
2, 39495, Note_on_c, 0, 72, 80
2, 39509, Note_off_c, 0, 72, 48
2, 39510, Note_on_c, 0, 71, 80
2, 39524, Note_off_c, 0, 71, 48
2, 39525, Note_on_c, 0, 72, 80
2, 39539, Note_off_c, 0, 72, 48
2, 39540, Note_on_c, 0, 71, 80
2, 39554, Note_off_c, 0, 71, 48
2, 39555, Note_on_c, 0, 72, 80
2, 39569, Note_off_c, 0, 72, 48
2, 39570, Note_on_c, 0, 70, 80
2, 39584, Note_off_c, 0, 70, 48
2, 39585, Note_on_c, 0, 71, 80
2, 39599, Note_off_c, 0, 71, 48
2, 39600, Note_on_c, 0, 72, 80
2, 39600, Note_on_c, 0, 60, 80
2, 39600, Note_on_c, 0, 63, 80
2, 39942, Note_off_c, 0, 63, 64
2, 39942, Note_off_c, 0, 60, 64
2, 39942, Note_off_c, 0, 72, 64
2, 39960, Note_on_c, 0, 63, 80
2, 39960, Note_on_c, 0, 60, 80
2, 39960, Note_on_c, 0, 68, 80
2, 40056, Note_off_c, 0, 68, 64
2, 40074, Note_off_c, 0, 60, 64
2, 40074, Note_off_c, 0, 63, 64
2, 40080, Note_on_c, 0, 68, 80
2, 40080, Note_on_c, 0, 63, 80
2, 40080, Note_on_c, 0, 60, 67
2, 40176, Note_off_c, 0, 60, 64
2, 40251, Note_off_c, 0, 68, 64
2, 40260, Note_on_c, 0, 68, 80
2, 40308, Note_off_c, 0, 63, 64
2, 40317, Note_off_c, 0, 68, 56
2, 40320, Note_on_c, 0, 73, 80
2, 40320, Note_on_c, 0, 67, 80
2, 40320, Note_on_c, 0, 63, 80
2, 40512, Note_off_c, 0, 73, 64
2, 40548, Note_off_c, 0, 63, 64
2, 40548, Note_off_c, 0, 67, 64
2, 40560, Note_on_c, 0, 70, 80
2, 40560, Note_on_c, 0, 64, 80
2, 40560, Note_on_c, 0, 67, 80
2, 41040, Note_off_c, 0, 67, 64
2, 41040, Note_off_c, 0, 64, 64
2, 41040, Note_off_c, 0, 70, 64
2, 41040, Note_on_c, 0, 63, 80
2, 41040, Note_on_c, 0, 75, 80
2, 41040, Note_on_c, 0, 68, 80
2, 41400, Note_off_c, 0, 68, 64
2, 41400, Note_off_c, 0, 75, 64
2, 41400, Note_off_c, 0, 63, 64
2, 41400, Note_on_c, 0, 62, 85
2, 41400, Note_on_c, 0, 74, 85
2, 41400, Note_on_c, 0, 68, 85
2, 41496, Note_off_c, 0, 68, 64
2, 41496, Note_off_c, 0, 74, 64
2, 41496, Note_off_c, 0, 62, 64
2, 41520, Note_on_c, 0, 63, 86
2, 41520, Note_on_c, 0, 68, 86
2, 41520, Note_on_c, 0, 75, 86
2, 41616, Note_off_c, 0, 75, 64
2, 41616, Note_off_c, 0, 68, 64
2, 41616, Note_off_c, 0, 63, 64
2, 41640, Note_on_c, 0, 68, 88
2, 41640, Note_on_c, 0, 77, 88
2, 41640, Note_on_c, 0, 65, 88
2, 41736, Note_off_c, 0, 65, 64
2, 41736, Note_off_c, 0, 77, 64
2, 41736, Note_off_c, 0, 68, 64
2, 41760, Note_on_c, 0, 75, 90
2, 41880, Note_off_c, 0, 75, 64
2, 41880, Note_on_c, 0, 74, 89
2, 41994, Note_off_c, 0, 74, 64
2, 42000, Note_on_c, 0, 73, 87
2, 42014, Note_off_c, 0, 73, 48
2, 42015, Note_on_c, 0, 75, 87
2, 42029, Note_off_c, 0, 75, 48
2, 42030, Note_on_c, 0, 73, 87
2, 42044, Note_off_c, 0, 73, 48
2, 42045, Note_on_c, 0, 75, 87
2, 42059, Note_off_c, 0, 75, 48
2, 42060, Note_on_c, 0, 73, 86
2, 42074, Note_off_c, 0, 73, 48
2, 42075, Note_on_c, 0, 75, 86
2, 42089, Note_off_c, 0, 75, 48
2, 42090, Note_on_c, 0, 73, 86
2, 42104, Note_off_c, 0, 73, 48
2, 42105, Note_on_c, 0, 75, 86
2, 42119, Note_off_c, 0, 75, 48
2, 42120, Note_on_c, 0, 73, 85
2, 42134, Note_off_c, 0, 73, 48
2, 42135, Note_on_c, 0, 75, 85
2, 42149, Note_off_c, 0, 75, 48
2, 42150, Note_on_c, 0, 73, 85
2, 42164, Note_off_c, 0, 73, 48
2, 42165, Note_on_c, 0, 75, 85
2, 42179, Note_off_c, 0, 75, 48
2, 42180, Note_on_c, 0, 73, 85
2, 42194, Note_off_c, 0, 73, 48
2, 42195, Note_on_c, 0, 75, 84
2, 42209, Note_off_c, 0, 75, 48
2, 42210, Note_on_c, 0, 73, 84
2, 42224, Note_off_c, 0, 73, 48
2, 42225, Note_on_c, 0, 75, 84
2, 42239, Note_off_c, 0, 75, 48
2, 42240, Note_on_c, 0, 73, 84
2, 42254, Note_off_c, 0, 73, 48
2, 42255, Note_on_c, 0, 75, 84
2, 42269, Note_off_c, 0, 75, 48
2, 42270, Note_on_c, 0, 73, 83
2, 42284, Note_off_c, 0, 73, 48
2, 42285, Note_on_c, 0, 75, 83
2, 42299, Note_off_c, 0, 75, 48
2, 42300, Note_on_c, 0, 73, 83
2, 42314, Note_off_c, 0, 73, 48
2, 42315, Note_on_c, 0, 75, 83
2, 42329, Note_off_c, 0, 75, 48
2, 42330, Note_on_c, 0, 73, 83
2, 42344, Note_off_c, 0, 73, 48
2, 42345, Note_on_c, 0, 75, 82
2, 42359, Note_off_c, 0, 75, 48
2, 42360, Note_on_c, 0, 73, 82
2, 42374, Note_off_c, 0, 73, 48
2, 42375, Note_on_c, 0, 75, 82
2, 42389, Note_off_c, 0, 75, 48
2, 42390, Note_on_c, 0, 72, 82
2, 42447, Note_off_c, 0, 72, 56
2, 42450, Note_on_c, 0, 70, 81
2, 42480, Control_c, 0, 64, 126
2, 42480, Note_on_c, 0, 68, 80
2, 42498, Note_off_c, 0, 68, 48
2, 42507, Note_off_c, 0, 70, 64
2, 42510, Note_on_c, 0, 75, 80
2, 42537, Note_off_c, 0, 75, 48
2, 42540, Note_on_c, 0, 72, 80
2, 42567, Note_off_c, 0, 72, 48
2, 42570, Note_on_c, 0, 75, 80
2, 42597, Note_off_c, 0, 75, 48
2, 42600, Note_on_c, 0, 80, 80
2, 42618, Note_off_c, 0, 80, 48
2, 42630, Note_on_c, 0, 87, 81
2, 42657, Note_off_c, 0, 87, 48
2, 42660, Note_on_c, 0, 84, 81
2, 42687, Note_off_c, 0, 84, 48
2, 42690, Note_on_c, 0, 87, 81
2, 42717, Note_off_c, 0, 87, 48
2, 42720, Note_on_c, 0, 92, 81
2, 42738, Note_off_c, 0, 92, 48
2, 42750, Note_on_c, 0, 80, 81
2, 42777, Note_off_c, 0, 80, 48
2, 42780, Note_on_c, 0, 92, 82
2, 42807, Note_off_c, 0, 92, 48
2, 42810, Note_on_c, 0, 80, 82
2, 42837, Note_off_c, 0, 80, 48
2, 42840, Note_on_c, 0, 92, 82
2, 42867, Note_off_c, 0, 92, 48
2, 42870, Note_on_c, 0, 80, 82
2, 42897, Note_off_c, 0, 80, 48
2, 42900, Note_on_c, 0, 92, 82
2, 42927, Note_off_c, 0, 92, 48
2, 42930, Note_on_c, 0, 80, 83
2, 42957, Note_off_c, 0, 80, 48
2, 42960, Note_on_c, 0, 92, 83
2, 42987, Note_off_c, 0, 92, 48
2, 42990, Note_on_c, 0, 80, 83
2, 43017, Note_off_c, 0, 80, 48
2, 43020, Note_on_c, 0, 92, 83
2, 43047, Note_off_c, 0, 92, 48
2, 43050, Note_on_c, 0, 80, 83
2, 43064, Control_c, 0, 64, 0
2, 43077, Note_off_c, 0, 80, 48
2, 43080, Note_on_c, 0, 92, 84
2, 43107, Note_off_c, 0, 92, 48
2, 43110, Note_on_c, 0, 80, 84
2, 43137, Note_off_c, 0, 80, 48
2, 43140, Note_on_c, 0, 92, 84
2, 43167, Note_off_c, 0, 92, 48
2, 43170, Note_on_c, 0, 80, 84
2, 43184, Control_c, 0, 64, 0
2, 43197, Note_off_c, 0, 80, 48
2, 43200, Note_on_c, 0, 92, 85
2, 43200, Control_c, 0, 64, 126
2, 43227, Note_off_c, 0, 92, 48
2, 43230, Note_on_c, 0, 80, 85
2, 43257, Note_off_c, 0, 80, 48
2, 43260, Note_on_c, 0, 92, 85
2, 43287, Note_off_c, 0, 92, 48
2, 43290, Note_on_c, 0, 80, 85
2, 43317, Note_off_c, 0, 80, 48
2, 43320, Note_on_c, 0, 92, 85
2, 43347, Note_off_c, 0, 92, 48
2, 43350, Note_on_c, 0, 80, 86
2, 43377, Note_off_c, 0, 80, 48
2, 43380, Note_on_c, 0, 92, 86
2, 43407, Note_off_c, 0, 92, 48
2, 43410, Note_on_c, 0, 80, 86
2, 43428, Control_c, 0, 64, 0
2, 43437, Note_off_c, 0, 80, 48
2, 43440, Control_c, 0, 64, 127
2, 43440, Note_on_c, 0, 92, 86
2, 43467, Note_off_c, 0, 92, 48
2, 43470, Note_on_c, 0, 80, 86
2, 43497, Note_off_c, 0, 80, 48
2, 43500, Note_on_c, 0, 92, 87
2, 43527, Note_off_c, 0, 92, 48
2, 43530, Note_on_c, 0, 80, 87
2, 43557, Note_off_c, 0, 80, 48
2, 43560, Note_on_c, 0, 92, 87
2, 43587, Note_off_c, 0, 92, 48
2, 43590, Note_on_c, 0, 80, 87
2, 43617, Note_off_c, 0, 80, 48
2, 43620, Note_on_c, 0, 92, 87
2, 43647, Note_off_c, 0, 92, 48
2, 43650, Note_on_c, 0, 80, 88
2, 43677, Note_off_c, 0, 80, 48
2, 43680, Note_on_c, 0, 92, 88
2, 43707, Note_off_c, 0, 92, 48
2, 43710, Note_on_c, 0, 80, 88
2, 43737, Note_off_c, 0, 80, 48
2, 43740, Note_on_c, 0, 92, 88
2, 43767, Note_off_c, 0, 92, 48
2, 43770, Note_on_c, 0, 80, 88
2, 43797, Note_off_c, 0, 80, 48
2, 43800, Note_on_c, 0, 92, 89
2, 43827, Note_off_c, 0, 92, 48
2, 43830, Note_on_c, 0, 80, 89
2, 43857, Note_off_c, 0, 80, 48
2, 43860, Note_on_c, 0, 92, 89
2, 43887, Note_off_c, 0, 92, 48
2, 43890, Note_on_c, 0, 80, 89
2, 43904, Control_c, 0, 64, 0
2, 43917, Note_off_c, 0, 80, 48
2, 43920, Note_on_c, 0, 92, 90
2, 44034, Note_off_c, 0, 92, 64
2, 44040, Note_on_c, 0, 90, 89
2, 44097, Note_off_c, 0, 90, 56
2, 44100, Note_on_c, 0, 89, 88
2, 44157, Note_off_c, 0, 89, 56
2, 44160, Note_on_c, 0, 89, 87
2, 44217, Note_off_c, 0, 89, 56
2, 44220, Note_on_c, 0, 87, 86
2, 44249, Note_off_c, 0, 87, 48
2, 44250, Note_on_c, 0, 86, 86
2, 44279, Note_off_c, 0, 86, 48
2, 44280, Note_on_c, 0, 87, 85
2, 44309, Note_off_c, 0, 87, 48
2, 44310, Note_on_c, 0, 89, 85
2, 44339, Note_off_c, 0, 89, 48
2, 44340, Note_on_c, 0, 90, 85
2, 44369, Note_off_c, 0, 90, 48
2, 44370, Note_on_c, 0, 89, 84
2, 44399, Note_off_c, 0, 89, 48
2, 44400, Note_on_c, 0, 87, 84
2, 44429, Note_off_c, 0, 87, 48
2, 44430, Note_on_c, 0, 89, 83
2, 44459, Note_off_c, 0, 89, 48
2, 44460, Note_on_c, 0, 87, 83
2, 44489, Note_off_c, 0, 87, 48
2, 44490, Note_on_c, 0, 85, 83
2, 44519, Note_off_c, 0, 85, 48
2, 44520, Note_on_c, 0, 84, 82
2, 44549, Note_off_c, 0, 84, 48
2, 44550, Note_on_c, 0, 82, 82
2, 44579, Note_off_c, 0, 82, 48
2, 44580, Note_on_c, 0, 80, 81
2, 44609, Note_off_c, 0, 80, 48
2, 44610, Note_on_c, 0, 78, 81
2, 44639, Note_off_c, 0, 78, 48
2, 44640, Note_on_c, 0, 77, 80
2, 44640, Control_c, 0, 64, 126
2, 44982, Note_off_c, 0, 77, 64
2, 45000, Note_on_c, 0, 80, 80
2, 45228, Note_off_c, 0, 80, 64
2, 45240, Note_on_c, 0, 85, 80
2, 45336, Note_off_c, 0, 85, 64
2, 45344, Control_c, 0, 64, 0
2, 45360, Note_on_c, 0, 85, 80
2, 45360, Control_c, 0, 64, 126
2, 45552, Note_off_c, 0, 85, 64
2, 45600, Note_on_c, 0, 84, 80
2, 46056, Note_off_c, 0, 84, 64
2, 46064, Control_c, 0, 64, 0
2, 46080, Note_on_c, 0, 87, 80
2, 46080, Control_c, 0, 64, 126
2, 46422, Note_off_c, 0, 87, 64
2, 46440, Note_on_c, 0, 84, 80
2, 46668, Note_off_c, 0, 84, 64
2, 46680, Note_on_c, 0, 80, 80
2, 46784, Control_c, 0, 64, 0
2, 46794, Note_off_c, 0, 80, 64
2, 46800, Note_on_c, 0, 80, 80
2, 46800, Control_c, 0, 64, 126
2, 47028, Note_off_c, 0, 80, 64
2, 47040, Note_on_c, 0, 85, 83
2, 47382, Note_off_c, 0, 85, 64
2, 47400, Note_on_c, 0, 85, 88
2, 47504, Control_c, 0, 64, 0
2, 47514, Note_off_c, 0, 85, 64
2, 47520, Note_on_c, 0, 85, 90
2, 47520, Control_c, 0, 64, 126
2, 47748, Note_off_c, 0, 85, 64
2, 47760, Note_on_c, 0, 85, 86
2, 48102, Note_off_c, 0, 85, 64
2, 48120, Note_on_c, 0, 85, 80
2, 48224, Control_c, 0, 64, 0
2, 48234, Note_off_c, 0, 85, 64
2, 48240, Note_on_c, 0, 85, 78
2, 48240, Control_c, 0, 64, 126
2, 48468, Note_off_c, 0, 85, 64
2, 48480, Note_on_c, 0, 83, 74
2, 48822, Note_off_c, 0, 83, 64
2, 48840, Note_on_c, 0, 83, 68
2, 48944, Control_c, 0, 64, 0
2, 48954, Note_off_c, 0, 83, 64
2, 48960, Note_on_c, 0, 83, 65
2, 48960, Control_c, 0, 64, 126
2, 49074, Note_off_c, 0, 83, 64
2, 49080, Note_on_c, 0, 81, 65
2, 49229, Note_off_c, 0, 81, 64
2, 49230, Note_on_c, 0, 83, 65
2, 49259, Note_off_c, 0, 83, 48
2, 49260, Note_on_c, 0, 81, 65
2, 49289, Note_off_c, 0, 81, 48
2, 49290, Note_on_c, 0, 80, 65
2, 49319, Note_off_c, 0, 80, 48
2, 49320, Note_on_c, 0, 81, 65
2, 49377, Note_off_c, 0, 81, 56
2, 49380, Note_on_c, 0, 83, 65
2, 49437, Note_off_c, 0, 83, 56
2, 49440, Note_on_c, 0, 81, 65
2, 49469, Note_off_c, 0, 81, 48
2, 49470, Note_on_c, 0, 83, 65
2, 49499, Note_off_c, 0, 83, 48
2, 49500, Note_on_c, 0, 85, 65
2, 49557, Note_off_c, 0, 85, 56
2, 49560, Note_on_c, 0, 83, 65
2, 49617, Note_off_c, 0, 83, 56
2, 49620, Note_on_c, 0, 81, 65
2, 49664, Control_c, 0, 64, 0
2, 49677, Note_off_c, 0, 81, 56
2, 49680, Note_on_c, 0, 80, 80
2, 49680, Control_c, 0, 64, 126
2, 49698, Note_off_c, 0, 80, 48
2, 49710, Note_on_c, 0, 88, 80
2, 49737, Note_off_c, 0, 88, 48
2, 49740, Note_on_c, 0, 83, 80
2, 49767, Note_off_c, 0, 83, 48
2, 49770, Note_on_c, 0, 88, 80
2, 49797, Note_off_c, 0, 88, 48
2, 49800, Note_on_c, 0, 92, 80
2, 49818, Note_off_c, 0, 92, 48
2, 49830, Note_on_c, 0, 88, 80
2, 49857, Note_off_c, 0, 88, 48
2, 49860, Note_on_c, 0, 83, 80
2, 49887, Note_off_c, 0, 83, 48
2, 49890, Note_on_c, 0, 88, 80
2, 49917, Note_off_c, 0, 88, 48
2, 49920, Note_on_c, 0, 80, 80
2, 49938, Note_off_c, 0, 80, 48
2, 49950, Note_on_c, 0, 76, 80
2, 49977, Note_off_c, 0, 76, 48
2, 49980, Note_on_c, 0, 71, 80
2, 50007, Note_off_c, 0, 71, 48
2, 50010, Note_on_c, 0, 76, 80
2, 50037, Note_off_c, 0, 76, 48
2, 50040, Note_on_c, 0, 68, 80
2, 50058, Note_off_c, 0, 68, 48
2, 50070, Note_on_c, 0, 64, 80
2, 50097, Note_off_c, 0, 64, 48
2, 50100, Note_on_c, 0, 59, 80
2, 50127, Note_off_c, 0, 59, 48
2, 50130, Note_on_c, 0, 64, 80
2, 50157, Note_off_c, 0, 64, 48
2, 50160, Note_on_c, 0, 56, 80
2, 50178, Note_off_c, 0, 56, 48
2, 50190, Note_on_c, 0, 52, 80
2, 50217, Note_off_c, 0, 52, 48
2, 50220, Note_on_c, 0, 47, 80
2, 50247, Note_off_c, 0, 47, 48
2, 50250, Note_on_c, 0, 52, 80
2, 50277, Note_off_c, 0, 52, 48
2, 50280, Note_on_c, 0, 44, 80
2, 50307, Note_off_c, 0, 44, 48
2, 50310, Note_on_c, 0, 52, 80
2, 50337, Note_off_c, 0, 52, 48
2, 50340, Note_on_c, 0, 47, 80
2, 50367, Note_off_c, 0, 47, 48
2, 50370, Note_on_c, 0, 52, 80
2, 50384, Control_c, 0, 64, 0
2, 50397, Note_off_c, 0, 52, 48
2, 50400, Note_on_c, 0, 39, 80
2, 50400, Control_c, 0, 64, 126
2, 50418, Note_off_c, 0, 39, 48
2, 50430, Note_on_c, 0, 47, 80
2, 50457, Note_off_c, 0, 47, 48
2, 50460, Note_on_c, 0, 46, 80
2, 50487, Note_off_c, 0, 46, 48
2, 50490, Note_on_c, 0, 47, 80
2, 50517, Note_off_c, 0, 47, 48
2, 50520, Note_on_c, 0, 51, 80
2, 50538, Note_off_c, 0, 51, 48
2, 50550, Note_on_c, 0, 47, 80
2, 50577, Note_off_c, 0, 47, 48
2, 50580, Note_on_c, 0, 46, 80
2, 50607, Note_off_c, 0, 46, 48
2, 50610, Note_on_c, 0, 47, 80
2, 50637, Note_off_c, 0, 47, 48
2, 50640, Note_on_c, 0, 51, 80
2, 50658, Note_off_c, 0, 51, 48
2, 50670, Note_on_c, 0, 59, 80
2, 50697, Note_off_c, 0, 59, 48
2, 50700, Note_on_c, 0, 58, 80
2, 50727, Note_off_c, 0, 58, 48
2, 50730, Note_on_c, 0, 59, 80
2, 50757, Note_off_c, 0, 59, 48
2, 50760, Note_on_c, 0, 63, 80
2, 50778, Note_off_c, 0, 63, 48
2, 50790, Note_on_c, 0, 59, 80
2, 50817, Note_off_c, 0, 59, 48
2, 50820, Note_on_c, 0, 58, 80
2, 50847, Note_off_c, 0, 58, 48
2, 50850, Note_on_c, 0, 59, 80
2, 50877, Note_off_c, 0, 59, 48
2, 50880, Note_on_c, 0, 63, 80
2, 50898, Note_off_c, 0, 63, 48
2, 50910, Note_on_c, 0, 71, 80
2, 50937, Note_off_c, 0, 71, 48
2, 50940, Note_on_c, 0, 70, 80
2, 50967, Note_off_c, 0, 70, 48
2, 50970, Note_on_c, 0, 71, 80
2, 50997, Note_off_c, 0, 71, 48
2, 51000, Note_on_c, 0, 75, 80
2, 51018, Note_off_c, 0, 75, 48
2, 51030, Note_on_c, 0, 71, 80
2, 51057, Note_off_c, 0, 71, 48
2, 51060, Note_on_c, 0, 70, 80
2, 51087, Note_off_c, 0, 70, 48
2, 51090, Note_on_c, 0, 71, 80
2, 51104, Control_c, 0, 64, 0
2, 51117, Note_off_c, 0, 71, 48
2, 51120, Note_on_c, 0, 76, 80
2, 51120, Control_c, 0, 64, 126
2, 51138, Note_off_c, 0, 76, 48
2, 51150, Note_on_c, 0, 83, 80
2, 51177, Note_off_c, 0, 83, 48
2, 51180, Note_on_c, 0, 80, 80
2, 51207, Note_off_c, 0, 80, 48
2, 51210, Note_on_c, 0, 83, 80
2, 51237, Note_off_c, 0, 83, 48
2, 51240, Note_on_c, 0, 88, 80
2, 51267, Note_off_c, 0, 88, 48
2, 51270, Note_on_c, 0, 83, 80
2, 51297, Note_off_c, 0, 83, 48
2, 51300, Note_on_c, 0, 80, 80
2, 51327, Note_off_c, 0, 80, 48
2, 51330, Note_on_c, 0, 83, 80
2, 51357, Note_off_c, 0, 83, 48
2, 51360, Note_on_c, 0, 76, 80
2, 51387, Note_off_c, 0, 76, 48
2, 51390, Note_on_c, 0, 71, 80
2, 51417, Note_off_c, 0, 71, 48
2, 51420, Note_on_c, 0, 68, 80
2, 51447, Note_off_c, 0, 68, 48
2, 51450, Note_on_c, 0, 71, 80
2, 51477, Note_off_c, 0, 71, 48
2, 51480, Note_on_c, 0, 64, 80
2, 51507, Note_off_c, 0, 64, 48
2, 51510, Note_on_c, 0, 59, 80
2, 51537, Note_off_c, 0, 59, 48
2, 51540, Note_on_c, 0, 56, 80
2, 51567, Note_off_c, 0, 56, 48
2, 51570, Note_on_c, 0, 59, 80
2, 51597, Note_off_c, 0, 59, 48
2, 51600, Note_on_c, 0, 52, 80
2, 51627, Note_off_c, 0, 52, 48
2, 51630, Note_on_c, 0, 59, 80
2, 51657, Note_off_c, 0, 59, 48
2, 51660, Note_on_c, 0, 56, 80
2, 51687, Note_off_c, 0, 56, 48
2, 51690, Note_on_c, 0, 59, 80
2, 51717, Note_off_c, 0, 59, 48
2, 51720, Note_on_c, 0, 64, 80
2, 51747, Note_off_c, 0, 64, 48
2, 51750, Note_on_c, 0, 59, 80
2, 51777, Note_off_c, 0, 59, 48
2, 51780, Note_on_c, 0, 56, 80
2, 51807, Note_off_c, 0, 56, 48
2, 51810, Note_on_c, 0, 59, 80
2, 51824, Control_c, 0, 64, 0
2, 51837, Note_off_c, 0, 59, 48
2, 51840, Note_on_c, 0, 54, 80
2, 51840, Control_c, 0, 64, 126
2, 51867, Note_off_c, 0, 54, 48
2, 51870, Note_on_c, 0, 59, 80
2, 51897, Note_off_c, 0, 59, 48
2, 51900, Note_on_c, 0, 57, 80
2, 51927, Note_off_c, 0, 57, 48
2, 51930, Note_on_c, 0, 59, 80
2, 51957, Note_off_c, 0, 59, 48
2, 51960, Note_on_c, 0, 69, 80
2, 51987, Note_off_c, 0, 69, 48
2, 51990, Note_on_c, 0, 59, 80
2, 52017, Note_off_c, 0, 59, 48
2, 52020, Note_on_c, 0, 57, 80
2, 52047, Note_off_c, 0, 57, 48
2, 52050, Note_on_c, 0, 59, 80
2, 52077, Note_off_c, 0, 59, 48
2, 52080, Note_on_c, 0, 66, 80
2, 52107, Note_off_c, 0, 66, 48
2, 52110, Note_on_c, 0, 71, 80
2, 52137, Note_off_c, 0, 71, 48
2, 52140, Note_on_c, 0, 70, 80
2, 52167, Note_off_c, 0, 70, 48
2, 52170, Note_on_c, 0, 71, 80
2, 52197, Note_off_c, 0, 71, 48
2, 52200, Note_on_c, 0, 78, 80
2, 52227, Note_off_c, 0, 78, 48
2, 52230, Note_on_c, 0, 71, 80
2, 52257, Note_off_c, 0, 71, 48
2, 52260, Note_on_c, 0, 70, 80
2, 52287, Note_off_c, 0, 70, 48
2, 52290, Note_on_c, 0, 71, 80
2, 52317, Note_off_c, 0, 71, 48
2, 52320, Note_on_c, 0, 78, 80
2, 52347, Note_off_c, 0, 78, 48
2, 52350, Note_on_c, 0, 83, 80
2, 52377, Note_off_c, 0, 83, 48
2, 52380, Note_on_c, 0, 82, 80
2, 52407, Note_off_c, 0, 82, 48
2, 52410, Note_on_c, 0, 83, 80
2, 52437, Note_off_c, 0, 83, 48
2, 52440, Note_on_c, 0, 90, 80
2, 52467, Note_off_c, 0, 90, 48
2, 52470, Note_on_c, 0, 83, 80
2, 52497, Note_off_c, 0, 83, 48
2, 52500, Note_on_c, 0, 82, 80
2, 52527, Note_off_c, 0, 82, 48
2, 52530, Note_on_c, 0, 83, 80
2, 52544, Control_c, 0, 64, 0
2, 52557, Note_off_c, 0, 83, 48
2, 52560, Note_on_c, 0, 80, 80
2, 52560, Control_c, 0, 64, 126
2, 52587, Note_off_c, 0, 80, 48
2, 52590, Note_on_c, 0, 92, 80
2, 52617, Note_off_c, 0, 92, 48
2, 52620, Note_on_c, 0, 83, 80
2, 52647, Note_off_c, 0, 83, 48
2, 52650, Note_on_c, 0, 92, 80
2, 52677, Note_off_c, 0, 92, 48
2, 52680, Note_on_c, 0, 80, 81
2, 52710, Note_on_c, 0, 92, 81
2, 52737, Note_off_c, 0, 92, 48
2, 52740, Note_on_c, 0, 83, 81
2, 52767, Note_off_c, 0, 83, 48
2, 52770, Note_on_c, 0, 92, 82
2, 52797, Note_off_c, 0, 92, 48
2, 52800, Note_on_c, 0, 80, 82
2, 52827, Note_off_c, 0, 80, 64
2, 52830, Note_on_c, 0, 92, 82
2, 52857, Note_off_c, 0, 92, 48
2, 52860, Note_on_c, 0, 83, 83
2, 52887, Note_off_c, 0, 83, 48
2, 52890, Note_on_c, 0, 92, 83
2, 52896, Note_off_c, 0, 80, 64
2, 52917, Note_off_c, 0, 92, 48
2, 52920, Note_on_c, 0, 81, 83
2, 52950, Note_on_c, 0, 93, 84
2, 52977, Note_off_c, 0, 93, 48
2, 52980, Note_on_c, 0, 88, 84
2, 53007, Note_off_c, 0, 88, 48
2, 53010, Note_on_c, 0, 93, 84
2, 53037, Note_off_c, 0, 93, 48
2, 53040, Note_on_c, 0, 81, 85
2, 53067, Note_off_c, 0, 81, 64
2, 53070, Note_on_c, 0, 93, 85
2, 53097, Note_off_c, 0, 93, 48
2, 53100, Note_on_c, 0, 88, 85
2, 53127, Note_off_c, 0, 88, 48
2, 53130, Note_on_c, 0, 93, 85
2, 53136, Note_off_c, 0, 81, 64
2, 53157, Note_off_c, 0, 93, 48
2, 53160, Note_on_c, 0, 82, 86
2, 53190, Note_on_c, 0, 94, 86
2, 53217, Note_off_c, 0, 94, 48
2, 53220, Note_on_c, 0, 88, 86
2, 53247, Note_off_c, 0, 88, 48
2, 53250, Note_on_c, 0, 94, 87
2, 53264, Control_c, 0, 64, 0
2, 53277, Note_off_c, 0, 94, 48
2, 53310, Note_on_c, 0, 94, 87
2, 53337, Note_off_c, 0, 94, 48
2, 53340, Note_on_c, 0, 88, 88
2, 53367, Note_off_c, 0, 88, 48
2, 53370, Note_on_c, 0, 94, 88
2, 53388, Note_off_c, 0, 82, 64
2, 53397, Note_off_c, 0, 94, 48
2, 53400, Note_on_c, 0, 83, 88
2, 53430, Note_on_c, 0, 95, 89
2, 53457, Note_off_c, 0, 95, 48
2, 53460, Note_on_c, 0, 88, 89
2, 53487, Note_off_c, 0, 88, 48
2, 53490, Note_on_c, 0, 95, 89
2, 53517, Note_off_c, 0, 95, 48
2, 53520, Note_on_c, 0, 83, 90
2, 53547, Note_off_c, 0, 83, 64
2, 53550, Note_on_c, 0, 95, 90
2, 53577, Note_off_c, 0, 95, 48
2, 53580, Note_on_c, 0, 88, 90
2, 53607, Note_off_c, 0, 88, 48
2, 53610, Note_on_c, 0, 95, 90
2, 53616, Note_off_c, 0, 83, 64
2, 53637, Note_off_c, 0, 95, 48
2, 53640, Note_on_c, 0, 84, 91
2, 53670, Note_on_c, 0, 96, 91
2, 53697, Note_off_c, 0, 96, 48
2, 53700, Note_on_c, 0, 88, 91
2, 53727, Note_off_c, 0, 88, 48
2, 53730, Note_on_c, 0, 96, 92
2, 53748, Note_off_c, 0, 84, 64
2, 53757, Note_off_c, 0, 96, 48
2, 53760, Note_on_c, 0, 84, 92
2, 53789, Note_off_c, 0, 84, 48
2, 53790, Note_on_c, 0, 96, 92
2, 53819, Note_off_c, 0, 96, 48
2, 53820, Note_on_c, 0, 88, 93
2, 53849, Note_off_c, 0, 88, 48
2, 53850, Note_on_c, 0, 96, 93
2, 53879, Note_off_c, 0, 96, 48
2, 53880, Note_on_c, 0, 85, 93
2, 53909, Note_off_c, 0, 85, 48
2, 53910, Note_on_c, 0, 97, 94
2, 53939, Note_off_c, 0, 97, 48
2, 53940, Note_on_c, 0, 88, 94
2, 53969, Note_off_c, 0, 88, 48
2, 53970, Note_on_c, 0, 97, 94
2, 53999, Note_off_c, 0, 97, 48
2, 54000, Note_on_c, 0, 85, 80
2, 54171, Note_off_c, 0, 85, 64
2, 54180, Note_on_c, 0, 73, 80
2, 54237, Note_off_c, 0, 73, 56
2, 54240, Note_on_c, 0, 83, 80
2, 54411, Note_off_c, 0, 83, 64
2, 54420, Note_on_c, 0, 71, 80
2, 54477, Note_off_c, 0, 71, 56
2, 54480, Note_on_c, 0, 81, 80
2, 54651, Note_off_c, 0, 81, 64
2, 54660, Note_on_c, 0, 82, 80
2, 54717, Note_off_c, 0, 82, 56
2, 54720, Note_on_c, 0, 83, 80
2, 54891, Note_off_c, 0, 83, 64
2, 54900, Note_on_c, 0, 71, 80
2, 54957, Note_off_c, 0, 71, 56
2, 54960, Note_on_c, 0, 81, 80
2, 55131, Note_off_c, 0, 81, 64
2, 55140, Note_on_c, 0, 69, 80
2, 55197, Note_off_c, 0, 69, 56
2, 55200, Note_on_c, 0, 80, 80
2, 55200, Note_on_c, 0, 68, 80
2, 55320, Note_off_c, 0, 68, 64
2, 55320, Note_off_c, 0, 80, 64
2, 55320, Note_on_c, 0, 79, 80
2, 55320, Note_on_c, 0, 67, 80
2, 55434, Note_off_c, 0, 67, 64
2, 55434, Note_off_c, 0, 79, 64
2, 55440, Note_on_c, 0, 67, 80
2, 55440, Note_on_c, 0, 79, 80
2, 55800, Note_off_c, 0, 79, 64
2, 55800, Note_off_c, 0, 67, 64
2, 55800, Note_on_c, 0, 68, 85
2, 55800, Note_on_c, 0, 80, 85
2, 55896, Note_off_c, 0, 80, 64
2, 55896, Note_off_c, 0, 68, 64
2, 55920, Note_on_c, 0, 70, 86
2, 55920, Note_on_c, 0, 82, 86
2, 55980, Note_off_c, 0, 82, 56
2, 55980, Note_off_c, 0, 70, 56
2, 55980, Note_on_c, 0, 84, 87
2, 55980, Note_on_c, 0, 72, 87
2, 56028, Note_off_c, 0, 72, 56
2, 56028, Note_off_c, 0, 84, 56
2, 56040, Note_on_c, 0, 73, 88
2, 56040, Note_on_c, 0, 85, 88
2, 56088, Note_off_c, 0, 85, 56
2, 56088, Note_off_c, 0, 73, 56
2, 56100, Note_on_c, 0, 87, 89
2, 56100, Note_on_c, 0, 75, 89
2, 56148, Note_off_c, 0, 75, 56
2, 56148, Note_off_c, 0, 87, 56
2, 56160, Note_on_c, 0, 89, 80
2, 56331, Note_off_c, 0, 89, 64
2, 56340, Note_on_c, 0, 77, 80
2, 56397, Note_off_c, 0, 77, 56
2, 56400, Note_on_c, 0, 87, 80
2, 56571, Note_off_c, 0, 87, 64
2, 56580, Note_on_c, 0, 75, 80
2, 56637, Note_off_c, 0, 75, 56
2, 56640, Note_on_c, 0, 89, 80
2, 56811, Note_off_c, 0, 89, 64
2, 56820, Note_on_c, 0, 86, 80
2, 56877, Note_off_c, 0, 86, 56
2, 56880, Note_on_c, 0, 87, 80
2, 57051, Note_off_c, 0, 87, 64
2, 57060, Note_on_c, 0, 75, 80
2, 57117, Note_off_c, 0, 75, 56
2, 57120, Note_on_c, 0, 85, 80
2, 57291, Note_off_c, 0, 85, 64
2, 57300, Note_on_c, 0, 73, 80
2, 57357, Note_off_c, 0, 73, 56
2, 57360, Note_on_c, 0, 84, 80
2, 57417, Note_off_c, 0, 84, 56
2, 57420, Note_on_c, 0, 72, 80
2, 57477, Note_off_c, 0, 72, 56
2, 57480, Note_on_c, 0, 73, 80
2, 57537, Note_off_c, 0, 73, 56
2, 57540, Note_on_c, 0, 75, 80
2, 57597, Note_off_c, 0, 75, 56
2, 57600, Note_on_c, 0, 79, 80
2, 57657, Note_off_c, 0, 79, 56
2, 57660, Note_on_c, 0, 76, 80
2, 57717, Note_off_c, 0, 76, 56
2, 57720, Note_on_c, 0, 77, 80
2, 57777, Note_off_c, 0, 77, 56
2, 57780, Note_on_c, 0, 65, 79
2, 57837, Note_off_c, 0, 65, 56
2, 57840, Note_on_c, 0, 77, 79
2, 57897, Note_off_c, 0, 77, 56
2, 57900, Note_on_c, 0, 74, 78
2, 57957, Note_off_c, 0, 74, 56
2, 57960, Note_on_c, 0, 75, 78
2, 58017, Note_off_c, 0, 75, 56
2, 58020, Note_on_c, 0, 63, 78
2, 58077, Note_off_c, 0, 63, 56
2, 58080, Note_on_c, 0, 75, 77
2, 58137, Note_off_c, 0, 75, 56
2, 58140, Note_on_c, 0, 72, 77
2, 58197, Note_off_c, 0, 72, 56
2, 58200, Note_on_c, 0, 73, 76
2, 58257, Note_off_c, 0, 73, 56
2, 58260, Note_on_c, 0, 61, 76
2, 58317, Note_off_c, 0, 61, 56
2, 58320, Note_on_c, 0, 77, 75
2, 58377, Note_off_c, 0, 77, 56
2, 58380, Note_on_c, 0, 74, 75
2, 58437, Note_off_c, 0, 74, 56
2, 58440, Note_on_c, 0, 75, 75
2, 58497, Note_off_c, 0, 75, 56
2, 58500, Note_on_c, 0, 63, 74
2, 58557, Note_off_c, 0, 63, 56
2, 58560, Note_on_c, 0, 75, 74
2, 58617, Note_off_c, 0, 75, 56
2, 58620, Note_on_c, 0, 72, 73
2, 58677, Note_off_c, 0, 72, 56
2, 58680, Note_on_c, 0, 73, 73
2, 58737, Note_off_c, 0, 73, 56
2, 58740, Note_on_c, 0, 61, 73
2, 58797, Note_off_c, 0, 61, 56
2, 58800, Note_on_c, 0, 63, 72
2, 58800, Note_on_c, 0, 72, 72
2, 58860, Note_off_c, 0, 72, 56
2, 58860, Note_off_c, 0, 63, 56
2, 58860, Note_on_c, 0, 70, 72
2, 58908, Note_off_c, 0, 70, 56
2, 58920, Note_on_c, 0, 72, 71
2, 58920, Note_on_c, 0, 63, 71
2, 58980, Note_off_c, 0, 63, 56
2, 58980, Note_off_c, 0, 72, 56
2, 58980, Note_on_c, 0, 70, 71
2, 59028, Note_off_c, 0, 70, 56
2, 59040, Note_on_c, 0, 63, 70
2, 59040, Note_on_c, 0, 72, 70
2, 59268, Note_off_c, 0, 72, 64
2, 59268, Note_off_c, 0, 63, 64
2, 59280, Note_on_c, 0, 63, 73
2, 59280, Note_on_c, 0, 70, 73
2, 59508, Note_off_c, 0, 70, 64
2, 59508, Note_off_c, 0, 63, 64
2, 59520, Note_on_c, 0, 63, 76
2, 59520, Note_on_c, 0, 75, 76
2, 59580, Note_off_c, 0, 75, 56
2, 59580, Note_off_c, 0, 63, 56
2, 59580, Note_on_c, 0, 74, 77
2, 59580, Note_on_c, 0, 68, 77
2, 59628, Note_off_c, 0, 68, 56
2, 59628, Note_off_c, 0, 74, 56
2, 59640, Note_on_c, 0, 63, 78
2, 59640, Note_on_c, 0, 75, 78
2, 59700, Note_off_c, 0, 75, 56
2, 59700, Note_off_c, 0, 63, 56
2, 59700, Note_on_c, 0, 74, 79
2, 59700, Note_on_c, 0, 68, 79
2, 59748, Note_off_c, 0, 68, 56
2, 59748, Note_off_c, 0, 74, 56
2, 59760, Note_on_c, 0, 63, 80
2, 59760, Note_on_c, 0, 75, 80
2, 59760, Note_on_c, 0, 68, 80
2, 59988, Note_off_c, 0, 68, 64
2, 59988, Note_off_c, 0, 75, 64
2, 59988, Note_off_c, 0, 63, 64
2, 60000, Note_on_c, 0, 62, 82
2, 60015, Note_on_c, 0, 68, 82
2, 60030, Note_on_c, 0, 77, 82
2, 60342, Note_off_c, 0, 77, 64
2, 60342, Note_off_c, 0, 68, 64
2, 60342, Note_off_c, 0, 62, 64
2, 60360, Note_on_c, 0, 62, 86
2, 60375, Note_on_c, 0, 70, 86
2, 60390, Note_on_c, 0, 77, 86
2, 60474, Note_off_c, 0, 77, 64
2, 60474, Note_off_c, 0, 70, 64
2, 60474, Note_off_c, 0, 62, 64
2, 60600, Note_on_c, 0, 63, 88
2, 60615, Note_on_c, 0, 70, 88
2, 60630, Note_on_c, 0, 78, 88
2, 60714, Note_off_c, 0, 78, 64
2, 60714, Note_off_c, 0, 70, 64
2, 60714, Note_off_c, 0, 63, 64
2, 60840, Note_on_c, 0, 65, 91
2, 60855, Note_on_c, 0, 73, 91
2, 60870, Note_on_c, 0, 80, 91
2, 60954, Note_off_c, 0, 80, 64
2, 60954, Note_off_c, 0, 73, 64
2, 60954, Note_off_c, 0, 65, 64
2, 61080, Note_on_c, 0, 66, 93
2, 61095, Note_on_c, 0, 70, 93
2, 61110, Note_on_c, 0, 82, 93
2, 61314, Note_off_c, 0, 66, 64
2, 61314, Note_off_c, 0, 70, 64
2, 61314, Note_off_c, 0, 82, 64
2, 61320, Note_on_c, 0, 84, 95
2, 61416, Note_off_c, 0, 84, 64
2, 61440, Note_on_c, 0, 85, 95
2, 61536, Note_off_c, 0, 85, 64
2, 61560, Note_on_c, 0, 86, 95
2, 61656, Note_off_c, 0, 86, 64
2, 61680, Note_on_c, 0, 87, 95
2, 62040, Note_off_c, 0, 87, 64
2, 62040, Note_on_c, 0, 60, 95
2, 62112, Note_off_c, 0, 60, 64
2, 62340, Note_on_c, 0, 60, 97
2, 62400, Note_off_c, 0, 60, 56
2, 62400, Note_on_c, 0, 61, 98
2, 62436, Note_off_c, 0, 61, 56
2, 62460, Note_on_c, 0, 63, 98
2, 62520, Note_off_c, 0, 63, 56
2, 62520, Note_on_c, 0, 65, 99
2, 62556, Note_off_c, 0, 65, 56
2, 62580, Note_on_c, 0, 67, 99
2, 62640, Note_off_c, 0, 67, 56
2, 62640, Note_on_c, 0, 68, 95
2, 62712, Note_off_c, 0, 68, 64
2, 62760, Note_on_c, 0, 63, 95
2, 62832, Note_off_c, 0, 63, 64
2, 63060, Note_on_c, 0, 67, 97
2, 63120, Note_off_c, 0, 67, 56
2, 63120, Note_on_c, 0, 68, 98
2, 63156, Note_off_c, 0, 68, 56
2, 63180, Note_on_c, 0, 70, 98
2, 63240, Note_off_c, 0, 70, 56
2, 63240, Note_on_c, 0, 72, 99
2, 63276, Note_off_c, 0, 72, 56
2, 63300, Note_on_c, 0, 73, 99
2, 63360, Note_off_c, 0, 73, 56
2, 63360, Note_on_c, 0, 75, 95
2, 63432, Note_off_c, 0, 75, 64
2, 63480, Note_on_c, 0, 68, 95
2, 63552, Note_off_c, 0, 68, 64
2, 63780, Note_on_c, 0, 80, 97
2, 63840, Note_off_c, 0, 80, 56
2, 63840, Note_on_c, 0, 82, 98
2, 63876, Note_off_c, 0, 82, 56
2, 63900, Note_on_c, 0, 84, 98
2, 63960, Note_off_c, 0, 84, 56
2, 63960, Note_on_c, 0, 85, 99
2, 63996, Note_off_c, 0, 85, 56
2, 64020, Note_on_c, 0, 87, 99
2, 64080, Note_off_c, 0, 87, 56
2, 64080, Note_on_c, 0, 89, 100
2, 64308, Note_off_c, 0, 89, 64
2, 64500, Note_on_c, 0, 70, 89
2, 64500, Note_on_c, 0, 65, 89
2, 64557, Note_off_c, 0, 65, 56
2, 64557, Note_off_c, 0, 70, 56
2, 64560, Note_on_c, 0, 75, 87
2, 64560, Note_on_c, 0, 67, 87
2, 64674, Note_off_c, 0, 67, 64
2, 64674, Note_off_c, 0, 75, 64
2, 64740, Note_on_c, 0, 67, 82
2, 64740, Note_on_c, 0, 75, 82
2, 64797, Note_off_c, 0, 75, 56
2, 64797, Note_off_c, 0, 67, 56
2, 64800, Note_on_c, 0, 71, 80
2, 64800, Note_on_c, 0, 74, 80
2, 65028, Note_off_c, 0, 74, 64
2, 65028, Note_off_c, 0, 71, 64
2, 65040, Note_on_c, 0, 64, 80
2, 65040, Note_on_c, 0, 73, 80
2, 65268, Note_off_c, 0, 73, 64
2, 65268, Note_off_c, 0, 64, 64
2, 65280, Note_on_c, 0, 72, 80
2, 65280, Note_on_c, 0, 63, 80
2, 65337, Note_off_c, 0, 63, 56
2, 65337, Note_off_c, 0, 72, 56
2, 65340, Note_on_c, 0, 92, 80
2, 65397, Note_off_c, 0, 92, 56
2, 65400, Note_on_c, 0, 91, 80
2, 65457, Note_off_c, 0, 91, 56
2, 65460, Note_on_c, 0, 90, 80
2, 65517, Note_off_c, 0, 90, 56
2, 65520, Note_on_c, 0, 89, 80
2, 65549, Note_off_c, 0, 89, 48
2, 65550, Note_on_c, 0, 87, 80
2, 65579, Note_off_c, 0, 87, 48
2, 65580, Note_on_c, 0, 85, 80
2, 65609, Note_off_c, 0, 85, 48
2, 65610, Note_on_c, 0, 84, 80
2, 65639, Note_off_c, 0, 84, 48
2, 65640, Note_on_c, 0, 83, 80
2, 65669, Note_off_c, 0, 83, 48
2, 65670, Note_on_c, 0, 82, 80
2, 65699, Note_off_c, 0, 82, 48
2, 65700, Note_on_c, 0, 81, 80
2, 65729, Note_off_c, 0, 81, 48
2, 65730, Note_on_c, 0, 80, 80
2, 65759, Note_off_c, 0, 80, 48
2, 65760, Note_on_c, 0, 79, 80
2, 65789, Note_off_c, 0, 79, 48
2, 65790, Note_on_c, 0, 78, 80
2, 65819, Note_off_c, 0, 78, 48
2, 65820, Note_on_c, 0, 77, 80
2, 65849, Note_off_c, 0, 77, 48
2, 65850, Note_on_c, 0, 76, 80
2, 65879, Note_off_c, 0, 76, 48
2, 65880, Note_on_c, 0, 75, 80
2, 65909, Note_off_c, 0, 75, 48
2, 65910, Note_on_c, 0, 73, 80
2, 65939, Note_off_c, 0, 73, 48
2, 65940, Note_on_c, 0, 72, 80
2, 65969, Note_off_c, 0, 72, 48
2, 65970, Note_on_c, 0, 70, 80
2, 65999, Note_off_c, 0, 70, 48
2, 66000, Note_on_c, 0, 75, 80
2, 66000, Note_on_c, 0, 70, 80
2, 66096, Note_off_c, 0, 70, 64
2, 66096, Note_off_c, 0, 75, 64
2, 66180, Note_on_c, 0, 75, 80
2, 66180, Note_on_c, 0, 67, 80
2, 66237, Note_off_c, 0, 67, 56
2, 66237, Note_off_c, 0, 75, 56
2, 66240, Note_on_c, 0, 68, 63
2, 66240, Note_on_c, 0, 75, 80
2, 66354, Note_off_c, 0, 75, 64
2, 66360, Note_on_c, 0, 77, 80
2, 66417, Note_off_c, 0, 77, 56
2, 66420, Note_on_c, 0, 75, 80
2, 66477, Note_off_c, 0, 75, 56
2, 66480, Note_on_c, 0, 73, 80
2, 66537, Note_off_c, 0, 73, 56
2, 66540, Note_on_c, 0, 72, 80
2, 66597, Note_off_c, 0, 72, 56
2, 66600, Note_on_c, 0, 70, 80
2, 66657, Note_off_c, 0, 70, 56
2, 66660, Note_on_c, 0, 72, 80
2, 66717, Note_off_c, 0, 72, 56
2, 66720, Note_on_c, 0, 73, 80
2, 66777, Note_off_c, 0, 68, 64
2, 66780, Note_on_c, 0, 65, 73
2, 66837, Note_off_c, 0, 65, 56
2, 66840, Note_on_c, 0, 68, 71
2, 66897, Note_off_c, 0, 68, 56
2, 66900, Note_on_c, 0, 67, 75
2, 66948, Note_off_c, 0, 73, 64
2, 66957, Note_off_c, 0, 67, 56
2, 66960, Note_on_c, 0, 68, 68
2, 66960, Note_on_c, 0, 72, 80
2, 67017, Note_off_c, 0, 72, 56
2, 67017, Note_off_c, 0, 68, 56
2, 67020, Note_on_c, 0, 63, 80
2, 67077, Note_off_c, 0, 63, 56
2, 67080, Note_on_c, 0, 65, 80
2, 67137, Note_off_c, 0, 65, 56
2, 67140, Note_on_c, 0, 63, 80
2, 67197, Note_off_c, 0, 63, 56
2, 67200, Note_on_c, 0, 61, 80
2, 67257, Note_off_c, 0, 61, 56
2, 67260, Note_on_c, 0, 60, 80
2, 67317, Note_off_c, 0, 60, 56
2, 67320, Note_on_c, 0, 58, 80
2, 67377, Note_off_c, 0, 58, 56
2, 67380, Note_on_c, 0, 60, 80
2, 67437, Note_off_c, 0, 60, 56
2, 67440, Note_on_c, 0, 68, 80
2, 67440, Note_on_c, 0, 61, 62
2, 67497, Note_off_c, 0, 68, 56
2, 67500, Note_on_c, 0, 65, 80
2, 67557, Note_off_c, 0, 65, 56
2, 67560, Note_on_c, 0, 68, 80
2, 67617, Note_off_c, 0, 68, 56
2, 67620, Note_on_c, 0, 67, 80
2, 67668, Note_off_c, 0, 61, 64
2, 67677, Note_off_c, 0, 67, 56
2, 67680, Note_on_c, 0, 60, 69
2, 67680, Note_on_c, 0, 70, 80
2, 67737, Note_off_c, 0, 70, 56
2, 67740, Note_on_c, 0, 67, 80
2, 67797, Note_off_c, 0, 67, 56
2, 67800, Note_on_c, 0, 70, 80
2, 67857, Note_off_c, 0, 70, 56
2, 67860, Note_on_c, 0, 68, 80
2, 67908, Note_off_c, 0, 60, 64
2, 67917, Note_off_c, 0, 68, 56
2, 67920, Note_on_c, 0, 73, 80
2, 67977, Note_off_c, 0, 73, 56
2, 67980, Note_on_c, 0, 71, 80
2, 68037, Note_off_c, 0, 71, 56
2, 68040, Note_on_c, 0, 73, 80
2, 68097, Note_off_c, 0, 73, 56
2, 68100, Note_on_c, 0, 72, 80
2, 68157, Note_off_c, 0, 72, 56
2, 68160, Note_on_c, 0, 77, 80
2, 68217, Note_off_c, 0, 77, 56
2, 68220, Note_on_c, 0, 74, 80
2, 68277, Note_off_c, 0, 74, 56
2, 68280, Note_on_c, 0, 77, 80
2, 68337, Note_off_c, 0, 77, 56
2, 68340, Note_on_c, 0, 75, 80
2, 68397, Note_off_c, 0, 75, 56
2, 68400, Note_on_c, 0, 82, 80
2, 68457, Note_off_c, 0, 82, 56
2, 68460, Note_on_c, 0, 79, 80
2, 68517, Note_off_c, 0, 79, 56
2, 68520, Note_on_c, 0, 82, 79
2, 68577, Note_off_c, 0, 82, 56
2, 68580, Note_on_c, 0, 80, 78
2, 68637, Note_off_c, 0, 80, 56
2, 68640, Note_on_c, 0, 85, 77
2, 68697, Note_off_c, 0, 85, 56
2, 68700, Note_on_c, 0, 83, 76
2, 68757, Note_off_c, 0, 83, 56
2, 68760, Note_on_c, 0, 85, 75
2, 68817, Note_off_c, 0, 85, 56
2, 68820, Note_on_c, 0, 84, 75
2, 68877, Note_off_c, 0, 84, 56
2, 68880, Note_on_c, 0, 89, 74
2, 68937, Note_off_c, 0, 89, 56
2, 68940, Note_on_c, 0, 86, 73
2, 68997, Note_off_c, 0, 86, 56
2, 69000, Note_on_c, 0, 89, 72
2, 69057, Note_off_c, 0, 89, 56
2, 69060, Note_on_c, 0, 87, 71
2, 69117, Note_off_c, 0, 87, 56
2, 69120, Note_on_c, 0, 87, 70
2, 69177, Note_off_c, 0, 87, 56
2, 69180, Note_on_c, 0, 84, 70
2, 69237, Note_off_c, 0, 84, 56
2, 69240, Note_on_c, 0, 87, 71
2, 69297, Note_off_c, 0, 87, 56
2, 69300, Note_on_c, 0, 86, 72
2, 69357, Note_off_c, 0, 86, 56
2, 69360, Note_on_c, 0, 96, 72
2, 69417, Note_off_c, 0, 96, 56
2, 69420, Note_on_c, 0, 93, 73
2, 69477, Note_off_c, 0, 93, 56
2, 69480, Note_on_c, 0, 96, 74
2, 69537, Note_off_c, 0, 96, 56
2, 69540, Note_on_c, 0, 94, 74
2, 69597, Note_off_c, 0, 94, 56
2, 69600, Note_on_c, 0, 87, 75
2, 69657, Note_off_c, 0, 87, 56
2, 69660, Note_on_c, 0, 84, 76
2, 69717, Note_off_c, 0, 84, 56
2, 69720, Note_on_c, 0, 87, 76
2, 69777, Note_off_c, 0, 87, 56
2, 69780, Note_on_c, 0, 86, 77
2, 69837, Note_off_c, 0, 86, 56
2, 69840, Note_on_c, 0, 89, 78
2, 69897, Note_off_c, 0, 89, 56
2, 69900, Note_on_c, 0, 86, 79
2, 69957, Note_off_c, 0, 86, 56
2, 69960, Note_on_c, 0, 89, 79
2, 70017, Note_off_c, 0, 89, 56
2, 70020, Note_on_c, 0, 87, 80
2, 70077, Note_off_c, 0, 87, 56
2, 70080, Note_on_c, 0, 96, 81
2, 70137, Note_off_c, 0, 96, 56
2, 70140, Note_on_c, 0, 93, 81
2, 70197, Note_off_c, 0, 93, 56
2, 70200, Note_on_c, 0, 96, 82
2, 70257, Note_off_c, 0, 96, 56
2, 70260, Note_on_c, 0, 94, 83
2, 70317, Note_off_c, 0, 94, 56
2, 70320, Note_on_c, 0, 89, 83
2, 70377, Note_off_c, 0, 89, 56
2, 70380, Note_on_c, 0, 86, 84
2, 70437, Note_off_c, 0, 86, 56
2, 70440, Note_on_c, 0, 89, 85
2, 70497, Note_off_c, 0, 89, 56
2, 70500, Note_on_c, 0, 87, 85
2, 70557, Note_off_c, 0, 87, 56
2, 70560, Note_on_c, 0, 87, 86
2, 70617, Note_off_c, 0, 87, 56
2, 70620, Note_on_c, 0, 84, 87
2, 70677, Note_off_c, 0, 84, 56
2, 70680, Note_on_c, 0, 87, 88
2, 70737, Note_off_c, 0, 87, 56
2, 70740, Note_on_c, 0, 86, 88
2, 70797, Note_off_c, 0, 86, 56
2, 70800, Note_on_c, 0, 96, 89
2, 70857, Note_off_c, 0, 96, 56
2, 70860, Note_on_c, 0, 93, 90
2, 70917, Note_off_c, 0, 93, 56
2, 70920, Note_on_c, 0, 96, 90
2, 70977, Note_off_c, 0, 96, 56
2, 70980, Note_on_c, 0, 94, 91
2, 71037, Note_off_c, 0, 94, 56
2, 71040, Note_on_c, 0, 87, 92
2, 71097, Note_off_c, 0, 87, 56
2, 71100, Note_on_c, 0, 84, 92
2, 71157, Note_off_c, 0, 84, 56
2, 71160, Note_on_c, 0, 87, 93
2, 71217, Note_off_c, 0, 87, 56
2, 71220, Note_on_c, 0, 86, 94
2, 71277, Note_off_c, 0, 86, 56
2, 71280, Note_on_c, 0, 89, 95
2, 71337, Note_off_c, 0, 89, 56
2, 71340, Note_on_c, 0, 86, 95
2, 71397, Note_off_c, 0, 86, 56
2, 71400, Note_on_c, 0, 89, 95
2, 71457, Note_off_c, 0, 89, 56
2, 71460, Note_on_c, 0, 87, 94
2, 71517, Note_off_c, 0, 87, 56
2, 71520, Note_on_c, 0, 89, 94
2, 71520, Note_on_c, 0, 79, 94
2, 72114, Note_off_c, 0, 79, 64
2, 72114, Note_off_c, 0, 89, 64
2, 72120, Note_on_c, 0, 80, 85
2, 72120, Note_on_c, 0, 87, 85
2, 72216, Note_off_c, 0, 87, 64
2, 72216, Note_off_c, 0, 80, 64
2, 72240, Note_on_c, 0, 68, 84
2, 72240, Note_on_c, 0, 75, 84
2, 72240, Control_c, 0, 64, 127
2, 72834, Note_off_c, 0, 75, 64
2, 72834, Note_off_c, 0, 68, 64
2, 72840, Note_on_c, 0, 70, 79
2, 72840, Note_on_c, 0, 73, 79
2, 72896, Control_c, 0, 64, 0
2, 72936, Note_off_c, 0, 73, 64
2, 72936, Note_off_c, 0, 70, 64
2, 72960, Note_on_c, 0, 73, 78
2, 72960, Note_on_c, 0, 70, 78
2, 72960, Control_c, 0, 64, 127
2, 73554, Note_off_c, 0, 70, 64
2, 73554, Note_off_c, 0, 73, 64
2, 73560, Note_on_c, 0, 72, 72
2, 73560, Note_on_c, 0, 68, 72
2, 73616, Control_c, 0, 64, 0
2, 73656, Note_off_c, 0, 68, 64
2, 73656, Note_off_c, 0, 72, 64
2, 73680, Note_on_c, 0, 68, 70
2, 73680, Note_on_c, 0, 72, 70
2, 73680, Control_c, 0, 64, 127
2, 74274, Note_off_c, 0, 72, 64
2, 74274, Note_off_c, 0, 68, 64
2, 74280, Note_on_c, 0, 67, 65
2, 74280, Note_on_c, 0, 75, 65
2, 74340, Control_c, 0, 64, 0
2, 74376, Note_off_c, 0, 75, 64
2, 74376, Note_off_c, 0, 67, 64
2, 74400, Control_c, 0, 64, 127
2, 74400, Note_on_c, 0, 67, 65
2, 74400, Note_on_c, 0, 75, 65
2, 74856, Note_off_c, 0, 75, 64
2, 74856, Note_off_c, 0, 67, 64
2, 74864, Control_c, 0, 64, 0
2, 74880, Control_c, 0, 64, 127
2, 74880, Note_on_c, 0, 68, 80
2, 74898, Note_off_c, 0, 68, 48
2, 74910, Note_on_c, 0, 75, 80
2, 74937, Note_off_c, 0, 75, 48
2, 74940, Note_on_c, 0, 72, 80
2, 74967, Note_off_c, 0, 72, 48
2, 74970, Note_on_c, 0, 75, 80
2, 74997, Note_off_c, 0, 75, 48
2, 75000, Note_on_c, 0, 80, 80
2, 75018, Note_off_c, 0, 80, 48
2, 75030, Note_on_c, 0, 75, 80
2, 75057, Note_off_c, 0, 75, 48
2, 75060, Note_on_c, 0, 72, 80
2, 75087, Note_off_c, 0, 72, 48
2, 75090, Note_on_c, 0, 75, 80
2, 75117, Note_off_c, 0, 75, 48
2, 75120, Note_on_c, 0, 68, 80
2, 75138, Note_off_c, 0, 68, 48
2, 75150, Note_on_c, 0, 63, 80
2, 75177, Note_off_c, 0, 63, 48
2, 75180, Note_on_c, 0, 60, 80
2, 75207, Note_off_c, 0, 60, 48
2, 75210, Note_on_c, 0, 63, 80
2, 75237, Note_off_c, 0, 63, 48
2, 75240, Note_on_c, 0, 56, 80
2, 75258, Note_off_c, 0, 56, 48
2, 75270, Note_on_c, 0, 51, 80
2, 75297, Note_off_c, 0, 51, 48
2, 75300, Note_on_c, 0, 48, 80
2, 75327, Note_off_c, 0, 48, 48
2, 75330, Note_on_c, 0, 51, 80
2, 75357, Note_off_c, 0, 51, 48
2, 75360, Note_on_c, 0, 44, 80
2, 75378, Note_off_c, 0, 44, 48
2, 75390, Note_on_c, 0, 39, 80
2, 75417, Note_off_c, 0, 39, 48
2, 75420, Note_on_c, 0, 36, 80
2, 75447, Note_off_c, 0, 36, 48
2, 75450, Note_on_c, 0, 39, 80
2, 75477, Note_off_c, 0, 39, 48
2, 75480, Note_on_c, 0, 32, 80
2, 75498, Note_off_c, 0, 32, 48
2, 75500, Control_c, 0, 64, 0
2, 75510, Note_on_c, 0, 36, 80
2, 75537, Note_off_c, 0, 36, 48
2, 75540, Note_on_c, 0, 39, 80
2, 75567, Note_off_c, 0, 39, 48
2, 75570, Note_on_c, 0, 44, 80
2, 75597, Note_off_c, 0, 44, 48
2, 75600, Control_c, 0, 64, 127
2, 75600, Note_on_c, 0, 43, 80
2, 75618, Note_off_c, 0, 43, 48
2, 75630, Note_on_c, 0, 51, 80
2, 75657, Note_off_c, 0, 51, 48
2, 75660, Note_on_c, 0, 49, 80
2, 75687, Note_off_c, 0, 49, 48
2, 75690, Note_on_c, 0, 51, 80
2, 75717, Note_off_c, 0, 51, 48
2, 75720, Note_on_c, 0, 55, 80
2, 75738, Note_off_c, 0, 55, 48
2, 75750, Note_on_c, 0, 51, 80
2, 75777, Note_off_c, 0, 51, 48
2, 75780, Note_on_c, 0, 49, 80
2, 75807, Note_off_c, 0, 49, 48
2, 75810, Note_on_c, 0, 51, 80
2, 75837, Note_off_c, 0, 51, 48
2, 75840, Note_on_c, 0, 55, 80
2, 75858, Note_off_c, 0, 55, 48
2, 75870, Note_on_c, 0, 63, 80
2, 75897, Note_off_c, 0, 63, 48
2, 75900, Note_on_c, 0, 61, 80
2, 75927, Note_off_c, 0, 61, 48
2, 75930, Note_on_c, 0, 63, 80
2, 75957, Note_off_c, 0, 63, 48
2, 75960, Note_on_c, 0, 67, 80
2, 75978, Note_off_c, 0, 67, 48
2, 75990, Note_on_c, 0, 63, 80
2, 76017, Note_off_c, 0, 63, 48
2, 76020, Note_on_c, 0, 61, 80
2, 76047, Note_off_c, 0, 61, 48
2, 76050, Note_on_c, 0, 63, 80
2, 76077, Note_off_c, 0, 63, 48
2, 76080, Note_on_c, 0, 67, 80
2, 76098, Note_off_c, 0, 67, 48
2, 76110, Note_on_c, 0, 75, 80
2, 76137, Note_off_c, 0, 75, 48
2, 76140, Note_on_c, 0, 73, 80
2, 76167, Note_off_c, 0, 73, 48
2, 76170, Note_on_c, 0, 75, 80
2, 76197, Note_off_c, 0, 75, 48
2, 76200, Note_on_c, 0, 79, 80
2, 76218, Note_off_c, 0, 79, 48
2, 76230, Note_on_c, 0, 75, 80
2, 76257, Note_off_c, 0, 75, 48
2, 76260, Note_on_c, 0, 73, 80
2, 76287, Note_off_c, 0, 73, 48
2, 76288, Control_c, 0, 64, 0
2, 76290, Note_on_c, 0, 75, 80
2, 76317, Note_off_c, 0, 75, 48
2, 76320, Note_on_c, 0, 80, 80
2, 76320, Control_c, 0, 64, 127
2, 76338, Note_off_c, 0, 80, 48
2, 76350, Note_on_c, 0, 87, 80
2, 76377, Note_off_c, 0, 87, 48
2, 76380, Note_on_c, 0, 84, 80
2, 76407, Note_off_c, 0, 84, 48
2, 76410, Note_on_c, 0, 87, 80
2, 76437, Note_off_c, 0, 87, 48
2, 76440, Note_on_c, 0, 92, 80
2, 76458, Note_off_c, 0, 92, 48
2, 76470, Note_on_c, 0, 87, 80
2, 76497, Note_off_c, 0, 87, 48
2, 76500, Note_on_c, 0, 84, 80
2, 76527, Note_off_c, 0, 84, 48
2, 76530, Note_on_c, 0, 87, 80
2, 76557, Note_off_c, 0, 87, 48
2, 76560, Note_on_c, 0, 80, 80
2, 76578, Note_off_c, 0, 80, 48
2, 76590, Note_on_c, 0, 75, 80
2, 76617, Note_off_c, 0, 75, 48
2, 76620, Note_on_c, 0, 72, 80
2, 76647, Note_off_c, 0, 72, 48
2, 76650, Note_on_c, 0, 75, 80
2, 76677, Note_off_c, 0, 75, 48
2, 76680, Note_on_c, 0, 68, 80
2, 76698, Note_off_c, 0, 68, 48
2, 76710, Note_on_c, 0, 63, 80
2, 76737, Note_off_c, 0, 63, 48
2, 76740, Note_on_c, 0, 60, 80
2, 76767, Note_off_c, 0, 60, 48
2, 76770, Note_on_c, 0, 63, 80
2, 76797, Note_off_c, 0, 63, 48
2, 76800, Note_on_c, 0, 56, 80
2, 76818, Note_off_c, 0, 56, 48
2, 76830, Note_on_c, 0, 51, 80
2, 76857, Note_off_c, 0, 51, 48
2, 76860, Note_on_c, 0, 48, 80
2, 76887, Note_off_c, 0, 48, 48
2, 76890, Note_on_c, 0, 51, 80
2, 76917, Note_off_c, 0, 51, 48
2, 76920, Note_on_c, 0, 44, 80
2, 76947, Note_off_c, 0, 44, 48
2, 76950, Note_on_c, 0, 51, 80
2, 76977, Note_off_c, 0, 51, 48
2, 76980, Note_on_c, 0, 48, 80
2, 77007, Note_off_c, 0, 48, 48
2, 77008, Control_c, 0, 64, 0
2, 77010, Note_on_c, 0, 51, 80
2, 77037, Note_off_c, 0, 51, 48
2, 77040, Note_on_c, 0, 46, 80
2, 77040, Control_c, 0, 64, 127
2, 77058, Note_off_c, 0, 46, 48
2, 77070, Note_on_c, 0, 51, 80
2, 77097, Note_off_c, 0, 51, 48
2, 77100, Note_on_c, 0, 49, 80
2, 77127, Note_off_c, 0, 49, 48
2, 77130, Note_on_c, 0, 51, 80
2, 77157, Note_off_c, 0, 51, 48
2, 77160, Note_on_c, 0, 58, 80
2, 77178, Note_off_c, 0, 58, 48
2, 77190, Note_on_c, 0, 51, 80
2, 77217, Note_off_c, 0, 51, 48
2, 77220, Note_on_c, 0, 49, 80
2, 77247, Note_off_c, 0, 49, 48
2, 77250, Note_on_c, 0, 51, 80
2, 77277, Note_off_c, 0, 51, 48
2, 77280, Note_on_c, 0, 58, 80
2, 77298, Note_off_c, 0, 58, 48
2, 77310, Note_on_c, 0, 63, 80
2, 77337, Note_off_c, 0, 63, 48
2, 77340, Note_on_c, 0, 61, 80
2, 77367, Note_off_c, 0, 61, 48
2, 77370, Note_on_c, 0, 63, 80
2, 77397, Note_off_c, 0, 63, 48
2, 77400, Note_on_c, 0, 70, 80
2, 77418, Note_off_c, 0, 70, 48
2, 77430, Note_on_c, 0, 63, 80
2, 77457, Note_off_c, 0, 63, 48
2, 77460, Note_on_c, 0, 61, 80
2, 77487, Note_off_c, 0, 61, 48
2, 77490, Note_on_c, 0, 63, 80
2, 77517, Note_off_c, 0, 63, 48
2, 77520, Note_on_c, 0, 70, 80
2, 77538, Note_off_c, 0, 70, 48
2, 77550, Note_on_c, 0, 75, 80
2, 77577, Note_off_c, 0, 75, 48
2, 77580, Note_on_c, 0, 73, 80
2, 77607, Note_off_c, 0, 73, 48
2, 77610, Note_on_c, 0, 75, 80
2, 77637, Note_off_c, 0, 75, 48
2, 77640, Note_on_c, 0, 82, 80
2, 77658, Note_off_c, 0, 82, 48
2, 77670, Note_on_c, 0, 75, 80
2, 77697, Note_off_c, 0, 75, 48
2, 77700, Note_on_c, 0, 73, 80
2, 77727, Note_off_c, 0, 73, 48
2, 77728, Control_c, 0, 64, 0
2, 77730, Note_on_c, 0, 75, 80
2, 77757, Note_off_c, 0, 75, 48
2, 77760, Note_on_c, 0, 72, 80
2, 77760, Control_c, 0, 64, 127
2, 77778, Note_off_c, 0, 72, 48
2, 77790, Note_on_c, 0, 75, 80
2, 77817, Note_off_c, 0, 75, 48
2, 77820, Note_on_c, 0, 72, 80
2, 77847, Note_off_c, 0, 72, 48
2, 77850, Note_on_c, 0, 75, 80
2, 77877, Note_off_c, 0, 75, 48
2, 77880, Note_on_c, 0, 84, 80
2, 77898, Note_off_c, 0, 84, 48
2, 77910, Note_on_c, 0, 75, 81
2, 77937, Note_off_c, 0, 75, 48
2, 77940, Note_on_c, 0, 72, 81
2, 77967, Note_off_c, 0, 72, 48
2, 77970, Note_on_c, 0, 75, 81
2, 77997, Note_off_c, 0, 75, 48
2, 78000, Note_on_c, 0, 73, 81
2, 78018, Note_off_c, 0, 73, 48
2, 78030, Note_on_c, 0, 80, 81
2, 78057, Note_off_c, 0, 80, 48
2, 78060, Note_on_c, 0, 73, 82
2, 78087, Note_off_c, 0, 73, 48
2, 78090, Note_on_c, 0, 80, 82
2, 78117, Note_off_c, 0, 80, 48
2, 78120, Note_on_c, 0, 85, 82
2, 78138, Note_off_c, 0, 85, 48
2, 78150, Note_on_c, 0, 80, 82
2, 78177, Note_off_c, 0, 80, 48
2, 78180, Note_on_c, 0, 77, 82
2, 78207, Note_off_c, 0, 77, 48
2, 78210, Note_on_c, 0, 80, 83
2, 78237, Note_off_c, 0, 80, 48
2, 78240, Note_on_c, 0, 75, 83
2, 78258, Note_off_c, 0, 75, 48
2, 78270, Note_on_c, 0, 87, 83
2, 78297, Note_off_c, 0, 87, 48
2, 78300, Note_on_c, 0, 80, 83
2, 78327, Note_off_c, 0, 80, 48
2, 78330, Note_on_c, 0, 87, 83
2, 78357, Note_off_c, 0, 87, 48
2, 78360, Note_on_c, 0, 76, 84
2, 78378, Note_off_c, 0, 76, 48
2, 78390, Note_on_c, 0, 88, 84
2, 78417, Note_off_c, 0, 88, 48
2, 78420, Note_on_c, 0, 80, 84
2, 78447, Note_off_c, 0, 80, 48
2, 78448, Control_c, 0, 64, 0
2, 78450, Note_on_c, 0, 88, 84
2, 78477, Note_off_c, 0, 88, 48
2, 78480, Note_on_c, 0, 77, 85
2, 78480, Control_c, 0, 64, 127
2, 78498, Note_off_c, 0, 77, 48
2, 78510, Note_on_c, 0, 89, 85
2, 78537, Note_off_c, 0, 89, 48
2, 78540, Note_on_c, 0, 77, 85
2, 78567, Note_off_c, 0, 77, 48
2, 78570, Note_on_c, 0, 80, 85
2, 78597, Note_off_c, 0, 80, 48
2, 78600, Note_on_c, 0, 89, 85
2, 78627, Note_off_c, 0, 89, 48
2, 78630, Note_on_c, 0, 85, 86
2, 78657, Note_off_c, 0, 85, 48
2, 78660, Note_on_c, 0, 80, 86
2, 78678, Note_off_c, 0, 80, 48
2, 78690, Note_on_c, 0, 85, 86
2, 78717, Note_off_c, 0, 85, 48
2, 78720, Note_on_c, 0, 79, 86
2, 78738, Note_off_c, 0, 79, 48
2, 78750, Note_on_c, 0, 87, 86
2, 78777, Note_off_c, 0, 87, 48
2, 78780, Note_on_c, 0, 85, 87
2, 78807, Note_off_c, 0, 85, 48
2, 78810, Note_on_c, 0, 87, 87
2, 78837, Note_off_c, 0, 87, 48
2, 78840, Note_on_c, 0, 91, 87
2, 78858, Note_off_c, 0, 91, 48
2, 78870, Note_on_c, 0, 87, 87
2, 78897, Note_off_c, 0, 87, 48
2, 78900, Note_on_c, 0, 85, 87
2, 78927, Note_off_c, 0, 85, 48
2, 78930, Note_on_c, 0, 87, 88
2, 78957, Note_off_c, 0, 87, 48
2, 78960, Note_on_c, 0, 79, 88
2, 78987, Note_off_c, 0, 79, 48
2, 78990, Note_on_c, 0, 91, 88
2, 79017, Note_off_c, 0, 91, 48
2, 79020, Note_on_c, 0, 87, 88
2, 79047, Note_off_c, 0, 87, 48
2, 79050, Note_on_c, 0, 91, 88
2, 79077, Note_off_c, 0, 91, 48
2, 79080, Note_on_c, 0, 80, 89
2, 79107, Note_off_c, 0, 80, 48
2, 79110, Note_on_c, 0, 92, 89
2, 79137, Note_off_c, 0, 92, 48
2, 79140, Note_on_c, 0, 87, 89
2, 79167, Note_off_c, 0, 87, 48
2, 79168, Control_c, 0, 64, 0
2, 79170, Note_on_c, 0, 92, 89
2, 79197, Note_off_c, 0, 92, 48
2, 79200, Note_on_c, 0, 77, 80
2, 79497, Note_off_c, 0, 77, 64
2, 79500, Note_on_c, 0, 70, 80
2, 79557, Note_off_c, 0, 70, 56
2, 79560, Note_on_c, 0, 72, 80
2, 79617, Note_off_c, 0, 72, 56
2, 79620, Note_on_c, 0, 73, 80
2, 79677, Note_off_c, 0, 73, 56
2, 79680, Note_on_c, 0, 67, 80
2, 79794, Note_off_c, 0, 67, 64
2, 79800, Note_on_c, 0, 75, 80
2, 79977, Note_off_c, 0, 75, 64
2, 79980, Note_on_c, 0, 73, 80
2, 80037, Note_off_c, 0, 73, 56
2, 80040, Note_on_c, 0, 72, 81
2, 80097, Note_off_c, 0, 72, 56
2, 80100, Note_on_c, 0, 84, 82
2, 80157, Note_off_c, 0, 84, 56
2, 80160, Note_on_c, 0, 82, 83
2, 80217, Note_off_c, 0, 82, 56
2, 80220, Note_on_c, 0, 79, 84
2, 80277, Note_off_c, 0, 79, 56
2, 80280, Note_on_c, 0, 82, 85
2, 80337, Note_off_c, 0, 82, 56
2, 80340, Note_on_c, 0, 80, 85
2, 80397, Note_off_c, 0, 80, 56
2, 80400, Note_on_c, 0, 84, 86
2, 80457, Note_off_c, 0, 84, 56
2, 80460, Note_on_c, 0, 80, 87
2, 80517, Note_off_c, 0, 80, 56
2, 80520, Note_on_c, 0, 75, 88
2, 80577, Note_off_c, 0, 75, 56
2, 80580, Note_on_c, 0, 76, 89
2, 80637, Note_off_c, 0, 76, 56
2, 80640, Note_on_c, 0, 77, 80
2, 80937, Note_off_c, 0, 77, 64
2, 80940, Note_on_c, 0, 70, 80
2, 80997, Note_off_c, 0, 70, 56
2, 81000, Note_on_c, 0, 72, 80
2, 81057, Note_off_c, 0, 72, 56
2, 81060, Note_on_c, 0, 73, 80
2, 81117, Note_off_c, 0, 73, 56
2, 81120, Note_on_c, 0, 70, 80
2, 81234, Note_off_c, 0, 70, 64
2, 81240, Note_on_c, 0, 75, 80
2, 81354, Note_off_c, 0, 75, 64
2, 81360, Note_on_c, 0, 68, 80
2, 81360, Note_on_c, 0, 63, 80
2, 81360, Note_on_c, 0, 72, 80
2, 81588, Note_off_c, 0, 72, 64
2, 81588, Note_off_c, 0, 63, 64
2, 81588, Note_off_c, 0, 68, 64
2, 81600, Note_on_c, 0, 68, 85
2, 81600, Note_on_c, 0, 73, 85
2, 81714, Note_off_c, 0, 68, 64
2, 81720, Control_c, 0, 64, 127
2, 81720, Note_on_c, 0, 65, 87
2, 81834, Note_off_c, 0, 65, 64
2, 81840, Note_on_c, 0, 70, 90
2, 81942, Note_off_c, 0, 73, 64
2, 81954, Note_off_c, 0, 70, 64
2, 81960, Note_on_c, 0, 73, 92
2, 81960, Note_on_c, 0, 64, 92
2, 81960, Note_on_c, 0, 67, 92
2, 82024, Control_c, 0, 64, 0
2, 82056, Note_off_c, 0, 67, 64
2, 82056, Note_off_c, 0, 64, 64
2, 82056, Note_off_c, 0, 73, 64
2, 82076, Control_c, 0, 64, 127
2, 82080, Note_on_c, 0, 67, 95
2, 82080, Note_on_c, 0, 64, 95
2, 82080, Note_on_c, 0, 73, 95
2, 82308, Note_off_c, 0, 64, 64
2, 82320, Note_on_c, 0, 63, 90
2, 82508, Control_c, 0, 64, 0
2, 82536, Note_off_c, 0, 73, 64
2, 82536, Note_off_c, 0, 67, 64
2, 82548, Note_off_c, 0, 63, 64
2, 82560, Note_on_c, 0, 63, 85
2, 82560, Note_on_c, 0, 72, 85
2, 82560, Note_on_c, 0, 68, 85
2, 82656, Note_off_c, 0, 68, 64
2, 82656, Note_off_c, 0, 72, 64
2, 82656, Note_off_c, 0, 63, 64
2, 82800, Control_c, 0, 64, 127
2, 82800, Note_on_c, 0, 72, 80
2, 82800, Note_on_c, 0, 68, 80
2, 82800, Note_on_c, 0, 63, 80
2, 82896, Note_off_c, 0, 63, 64
2, 82896, Note_off_c, 0, 68, 64
2, 82896, Note_off_c, 0, 72, 64
2, 82924, Control_c, 0, 64, 0
2, 83280, Control_c, 0, 93, 0
2, 83280, Control_c, 0, 91, 0
2, 83280, Control_c, 0, 10, 64
2, 83520, Control_c, 0, 10, 72
2, 83520, Control_c, 0, 91, 4
2, 83520, Control_c, 0, 93, 12
2, 83520, Note_on_c, 0, 68, 80
2, 83520, Note_on_c, 0, 72, 80
2, 83760, Note_off_c, 0, 72, 64
2, 83760, Note_off_c, 0, 68, 64
2, 83760, Note_on_c, 0, 63, 80
2, 83760, Note_on_c, 0, 70, 80
2, 84000, Note_off_c, 0, 70, 64
2, 84000, Note_off_c, 0, 63, 64
2, 84000, Note_on_c, 0, 65, 80
2, 84000, Note_on_c, 0, 68, 80
2, 84240, Note_off_c, 0, 68, 64
2, 84240, Note_off_c, 0, 65, 64
2, 84240, Note_on_c, 0, 61, 80
2, 84240, Note_on_c, 0, 67, 80
2, 84240, Note_on_c, 0, 64, 80
2, 84432, Note_off_c, 0, 64, 64
2, 84432, Note_off_c, 0, 67, 64
2, 84432, Note_off_c, 0, 61, 64
2, 84480, Note_on_c, 0, 65, 80
2, 84480, Note_on_c, 0, 62, 80
2, 84480, Note_on_c, 0, 56, 80
2, 84672, Note_off_c, 0, 56, 64
2, 84672, Note_off_c, 0, 62, 64
2, 84672, Note_off_c, 0, 65, 64
2, 84720, Note_on_c, 0, 62, 80
2, 84720, Note_on_c, 0, 65, 80
2, 84720, Note_on_c, 0, 56, 80
2, 84912, Note_off_c, 0, 56, 64
2, 84912, Note_off_c, 0, 65, 64
2, 84912, Note_off_c, 0, 62, 64
2, 84960, Note_on_c, 0, 55, 80
2, 84960, Control_c, 0, 64, 127
2, 84960, Note_on_c, 0, 64, 80
2, 85404, Control_c, 0, 64, 0
2, 85416, Note_off_c, 0, 64, 64
2, 85416, Note_off_c, 0, 55, 64
2, 85440, Note_on_c, 0, 72, 95
2, 85440, Control_c, 0, 64, 127
2, 85440, Note_on_c, 0, 76, 95
2, 85440, Note_on_c, 0, 79, 95
2, 85680, Note_off_c, 0, 79, 64
2, 85680, Note_off_c, 0, 76, 64
2, 85680, Note_off_c, 0, 72, 64
2, 85680, Note_on_c, 0, 67, 95
2, 85680, Note_on_c, 0, 72, 95
2, 85680, Note_on_c, 0, 76, 95
2, 85872, Note_off_c, 0, 76, 64
2, 85872, Note_off_c, 0, 72, 64
2, 85872, Note_off_c, 0, 67, 64
2, 85920, Note_on_c, 0, 64, 95
2, 85920, Note_on_c, 0, 67, 95
2, 85920, Note_on_c, 0, 72, 95
2, 86080, Control_c, 0, 64, 0
2, 86112, Note_off_c, 0, 72, 64
2, 86112, Note_off_c, 0, 67, 64
2, 86112, Note_off_c, 0, 64, 64
2, 86160, Note_on_c, 0, 67, 95
2, 86160, Note_on_c, 0, 64, 95
2, 86160, Note_on_c, 0, 72, 95
2, 86352, Note_off_c, 0, 72, 64
2, 86352, Note_off_c, 0, 64, 64
2, 86352, Note_off_c, 0, 67, 64
2, 86400, Note_on_c, 0, 64, 95
2, 86400, Note_on_c, 0, 67, 95
2, 86400, Note_on_c, 0, 72, 95
2, 86592, Note_off_c, 0, 72, 64
2, 86592, Note_off_c, 0, 67, 64
2, 86592, Note_off_c, 0, 64, 64
2, 86640, Note_on_c, 0, 71, 95
2, 86640, Note_on_c, 0, 67, 95
2, 86640, Note_on_c, 0, 74, 95
2, 86832, Note_off_c, 0, 74, 64
2, 86832, Note_off_c, 0, 67, 64
2, 86832, Note_off_c, 0, 71, 64
2, 86880, Note_on_c, 0, 67, 100
2, 86880, Control_c, 0, 64, 127
2, 86880, Note_on_c, 0, 72, 100
2, 86880, Note_on_c, 0, 76, 100
2, 87324, Control_c, 0, 64, 0
2, 87336, Note_off_c, 0, 76, 64
2, 87336, Note_off_c, 0, 72, 64
2, 87336, Note_off_c, 0, 67, 64
2, 87360, Note_on_c, 0, 68, 80
2, 87360, Note_on_c, 0, 72, 80
2, 87600, Note_off_c, 0, 72, 64
2, 87600, Note_off_c, 0, 68, 64
2, 87600, Note_on_c, 0, 63, 80
2, 87600, Note_on_c, 0, 70, 80
2, 87840, Note_off_c, 0, 70, 64
2, 87840, Note_off_c, 0, 63, 64
2, 87840, Note_on_c, 0, 65, 80
2, 87840, Note_on_c, 0, 68, 80
2, 88080, Note_off_c, 0, 68, 64
2, 88080, Note_off_c, 0, 65, 64
2, 88080, Note_on_c, 0, 61, 80
2, 88080, Note_on_c, 0, 67, 80
2, 88080, Note_on_c, 0, 64, 80
2, 88272, Note_off_c, 0, 64, 64
2, 88272, Note_off_c, 0, 67, 64
2, 88272, Note_off_c, 0, 61, 64
2, 88320, Note_on_c, 0, 65, 80
2, 88320, Note_on_c, 0, 62, 80
2, 88320, Note_on_c, 0, 56, 80
2, 88512, Note_off_c, 0, 56, 64
2, 88512, Note_off_c, 0, 62, 64
2, 88512, Note_off_c, 0, 65, 64
2, 88560, Note_on_c, 0, 62, 80
2, 88560, Note_on_c, 0, 65, 80
2, 88560, Note_on_c, 0, 56, 80
2, 88752, Note_off_c, 0, 56, 64
2, 88752, Note_off_c, 0, 65, 64
2, 88752, Note_off_c, 0, 62, 64
2, 88800, Note_on_c, 0, 55, 80
2, 88800, Control_c, 0, 64, 127
2, 88800, Note_on_c, 0, 64, 80
2, 89244, Control_c, 0, 64, 0
2, 89256, Note_off_c, 0, 64, 64
2, 89256, Note_off_c, 0, 55, 64
2, 89280, Note_on_c, 0, 72, 95
2, 89280, Control_c, 0, 64, 127
2, 89280, Note_on_c, 0, 76, 95
2, 89280, Note_on_c, 0, 79, 95
2, 89520, Note_off_c, 0, 79, 64
2, 89520, Note_off_c, 0, 76, 64
2, 89520, Note_off_c, 0, 72, 64
2, 89520, Note_on_c, 0, 67, 95
2, 89520, Note_on_c, 0, 72, 95
2, 89520, Note_on_c, 0, 76, 95
2, 89712, Note_off_c, 0, 76, 64
2, 89712, Note_off_c, 0, 72, 64
2, 89712, Note_off_c, 0, 67, 64
2, 89760, Note_on_c, 0, 64, 95
2, 89760, Note_on_c, 0, 67, 95
2, 89760, Note_on_c, 0, 72, 95
2, 89904, Control_c, 0, 64, 0
2, 89952, Note_off_c, 0, 72, 64
2, 89952, Note_off_c, 0, 67, 64
2, 89952, Note_off_c, 0, 64, 64
2, 90000, Note_on_c, 0, 67, 95
2, 90000, Note_on_c, 0, 64, 95
2, 90000, Note_on_c, 0, 72, 95
2, 90192, Note_off_c, 0, 72, 64
2, 90192, Note_off_c, 0, 64, 64
2, 90192, Note_off_c, 0, 67, 64
2, 90240, Note_on_c, 0, 64, 95
2, 90240, Note_on_c, 0, 67, 95
2, 90240, Note_on_c, 0, 72, 95
2, 90432, Note_off_c, 0, 72, 64
2, 90432, Note_off_c, 0, 67, 64
2, 90432, Note_off_c, 0, 64, 64
2, 90480, Note_on_c, 0, 71, 95
2, 90480, Note_on_c, 0, 67, 95
2, 90480, Note_on_c, 0, 74, 95
2, 90672, Note_off_c, 0, 74, 64
2, 90672, Note_off_c, 0, 67, 64
2, 90672, Note_off_c, 0, 71, 64
2, 90720, Note_on_c, 0, 67, 100
2, 90720, Control_c, 0, 64, 127
2, 90720, Note_on_c, 0, 72, 100
2, 90720, Note_on_c, 0, 76, 100
2, 91164, Control_c, 0, 64, 0
2, 91176, Note_off_c, 0, 76, 64
2, 91176, Note_off_c, 0, 72, 64
2, 91176, Note_off_c, 0, 67, 64
2, 91200, Note_on_c, 0, 76, 95
2, 91200, Note_on_c, 0, 79, 95
2, 91392, Note_off_c, 0, 79, 64
2, 91392, Note_off_c, 0, 76, 64
2, 91440, Note_on_c, 0, 74, 95
2, 91440, Note_on_c, 0, 79, 95
2, 91632, Note_off_c, 0, 79, 64
2, 91632, Note_off_c, 0, 74, 64
2, 91680, Note_on_c, 0, 76, 95
2, 91680, Note_on_c, 0, 79, 95
2, 91920, Note_off_c, 0, 79, 64
2, 91920, Note_on_c, 0, 80, 95
2, 92112, Note_off_c, 0, 80, 64
2, 92160, Note_on_c, 0, 80, 95
2, 92352, Note_off_c, 0, 80, 64
2, 92388, Note_off_c, 0, 76, 64
2, 92400, Note_on_c, 0, 77, 95
2, 92400, Control_c, 0, 64, 127
2, 92400, Note_on_c, 0, 80, 95
2, 92592, Note_off_c, 0, 80, 64
2, 92640, Note_on_c, 0, 80, 95
2, 92844, Control_c, 0, 64, 0
2, 92868, Note_off_c, 0, 77, 64
2, 92880, Note_on_c, 0, 77, 95
2, 92880, Control_c, 0, 64, 127
2, 92880, Note_on_c, 0, 82, 95
2, 93072, Note_off_c, 0, 82, 64
2, 93120, Note_on_c, 0, 82, 95
2, 93312, Note_off_c, 0, 82, 64
2, 93324, Control_c, 0, 64, 0
2, 93348, Note_off_c, 0, 80, 64
2, 93348, Note_off_c, 0, 77, 64
2, 93360, Note_on_c, 0, 75, 95
2, 93360, Control_c, 0, 64, 127
2, 93360, Note_on_c, 0, 79, 95
2, 93360, Note_on_c, 0, 82, 95
2, 93552, Note_off_c, 0, 82, 64
2, 93552, Note_off_c, 0, 79, 64
2, 93600, Note_on_c, 0, 82, 95
2, 93600, Note_on_c, 0, 79, 95
2, 93804, Control_c, 0, 64, 0
2, 93840, Note_off_c, 0, 79, 64
2, 93840, Note_off_c, 0, 82, 64
2, 93840, Note_on_c, 0, 84, 95
2, 93840, Note_on_c, 0, 80, 95
2, 94032, Note_off_c, 0, 80, 64
2, 94032, Note_off_c, 0, 84, 64
2, 94032, Note_off_c, 0, 75, 64
2, 94080, Note_on_c, 0, 77, 95
2, 94080, Note_on_c, 0, 85, 95
2, 94080, Note_on_c, 0, 82, 95
2, 94272, Note_off_c, 0, 82, 64
2, 94272, Note_off_c, 0, 85, 64
2, 94272, Note_off_c, 0, 77, 64
2, 94320, Note_on_c, 0, 79, 95
2, 94320, Note_on_c, 0, 73, 95
2, 94320, Note_on_c, 0, 82, 95
2, 94512, Note_off_c, 0, 82, 64
2, 94512, Note_off_c, 0, 73, 64
2, 94512, Note_off_c, 0, 79, 64
2, 94560, Note_on_c, 0, 72, 100
2, 94560, Control_c, 0, 64, 127
2, 94560, Note_on_c, 0, 80, 100
2, 95004, Control_c, 0, 64, 0
2, 95016, Note_off_c, 0, 80, 64
2, 95016, Note_off_c, 0, 72, 64
2, 95040, Note_on_c, 0, 68, 80
2, 95232, Note_off_c, 0, 68, 64
2, 95280, Note_on_c, 0, 68, 80
2, 95520, Note_off_c, 0, 68, 64
2, 95520, Note_on_c, 0, 67, 80
2, 95634, Note_off_c, 0, 67, 64
2, 95640, Note_on_c, 0, 65, 80
2, 95754, Note_off_c, 0, 65, 64
2, 95760, Note_on_c, 0, 63, 80
2, 95952, Note_off_c, 0, 63, 64
2, 96000, Note_on_c, 0, 72, 80
2, 96000, Note_on_c, 0, 68, 80
2, 96192, Note_off_c, 0, 68, 64
2, 96192, Note_off_c, 0, 72, 64
2, 96240, Note_on_c, 0, 68, 80
2, 96240, Note_on_c, 0, 72, 80
2, 96480, Note_off_c, 0, 72, 64
2, 96480, Note_off_c, 0, 68, 64
2, 96480, Note_on_c, 0, 67, 80
2, 96480, Note_on_c, 0, 70, 80
2, 96594, Note_off_c, 0, 70, 64
2, 96594, Note_off_c, 0, 67, 64
2, 96600, Note_on_c, 0, 65, 80
2, 96600, Note_on_c, 0, 68, 80
2, 96714, Note_off_c, 0, 68, 64
2, 96714, Note_off_c, 0, 65, 64
2, 96720, Note_on_c, 0, 63, 80
2, 96720, Note_on_c, 0, 67, 80
2, 96912, Note_off_c, 0, 67, 64
2, 96912, Note_off_c, 0, 63, 64
2, 96960, Note_on_c, 0, 72, 80
2, 96960, Note_on_c, 0, 75, 80
2, 97152, Note_off_c, 0, 75, 64
2, 97152, Note_off_c, 0, 72, 64
2, 97200, Note_on_c, 0, 72, 82
2, 97200, Note_on_c, 0, 75, 82
2, 97428, Note_off_c, 0, 75, 64
2, 97428, Note_off_c, 0, 72, 64
2, 97440, Note_on_c, 0, 70, 85
2, 97440, Note_on_c, 0, 73, 85
2, 97668, Note_off_c, 0, 73, 64
2, 97668, Note_off_c, 0, 70, 64
2, 97680, Note_on_c, 0, 72, 87
2, 97680, Note_on_c, 0, 68, 87
2, 97908, Note_off_c, 0, 68, 64
2, 97908, Note_off_c, 0, 72, 64
2, 97920, Note_on_c, 0, 67, 90
2, 97920, Note_on_c, 0, 70, 90
2, 98148, Note_off_c, 0, 70, 64
2, 98148, Note_off_c, 0, 67, 64
2, 98160, Note_on_c, 0, 72, 88
2, 98160, Note_on_c, 0, 68, 88
2, 98388, Note_off_c, 0, 68, 64
2, 98388, Note_off_c, 0, 72, 64
2, 98400, Note_on_c, 0, 67, 85
2, 98400, Note_on_c, 0, 70, 85
2, 98628, Note_off_c, 0, 70, 64
2, 98628, Note_off_c, 0, 67, 64
2, 98640, Note_on_c, 0, 67, 83
2, 98640, Note_on_c, 0, 72, 83
2, 98868, Note_off_c, 0, 72, 64
2, 98868, Note_off_c, 0, 67, 64
2, 98880, Note_on_c, 0, 65, 80
2, 99108, Note_off_c, 0, 65, 64
2, 99120, Note_on_c, 0, 65, 80
2, 99348, Note_off_c, 0, 65, 64
2, 99360, Note_on_c, 0, 64, 80
2, 99451, Note_off_c, 0, 64, 64
2, 99480, Note_on_c, 0, 62, 80
2, 99594, Note_off_c, 0, 62, 64
2, 99600, Note_on_c, 0, 60, 80
2, 99828, Note_off_c, 0, 60, 64
2, 99840, Note_on_c, 0, 68, 80
2, 99840, Note_on_c, 0, 65, 80
2, 100022, Note_off_c, 0, 65, 64
2, 100022, Note_off_c, 0, 68, 64
2, 100080, Note_on_c, 0, 68, 80
2, 100080, Note_on_c, 0, 65, 80
2, 100308, Note_off_c, 0, 65, 64
2, 100308, Note_off_c, 0, 68, 64
2, 100320, Note_on_c, 0, 67, 80
2, 100320, Note_on_c, 0, 64, 80
2, 100434, Note_off_c, 0, 64, 64
2, 100434, Note_off_c, 0, 67, 64
2, 100440, Note_on_c, 0, 62, 80
2, 100440, Note_on_c, 0, 65, 80
2, 100554, Note_off_c, 0, 65, 64
2, 100554, Note_off_c, 0, 62, 64
2, 100560, Note_on_c, 0, 64, 80
2, 100560, Note_on_c, 0, 60, 80
2, 100742, Note_off_c, 0, 60, 64
2, 100742, Note_off_c, 0, 64, 64
2, 100800, Note_on_c, 0, 68, 80
2, 100800, Note_on_c, 0, 72, 80
2, 101028, Note_off_c, 0, 72, 64
2, 101028, Note_off_c, 0, 68, 64
2, 101040, Note_on_c, 0, 72, 80
2, 101040, Note_on_c, 0, 68, 80
2, 101268, Note_off_c, 0, 68, 64
2, 101268, Note_off_c, 0, 72, 64
2, 101280, Note_on_c, 0, 67, 80
2, 101280, Note_on_c, 0, 70, 80
2, 101508, Note_off_c, 0, 70, 64
2, 101508, Note_off_c, 0, 67, 64
2, 101520, Note_on_c, 0, 65, 82
2, 101520, Note_on_c, 0, 68, 82
2, 101748, Note_off_c, 0, 68, 64
2, 101748, Note_off_c, 0, 65, 64
2, 101760, Note_on_c, 0, 64, 85
2, 101760, Note_on_c, 0, 67, 85
2, 101988, Note_off_c, 0, 67, 64
2, 101988, Note_off_c, 0, 64, 64
2, 102000, Note_on_c, 0, 68, 87
2, 102000, Note_on_c, 0, 65, 87
2, 102228, Note_off_c, 0, 65, 64
2, 102228, Note_off_c, 0, 68, 64
2, 102240, Note_on_c, 0, 64, 90
2, 102240, Note_on_c, 0, 67, 90
2, 102696, Note_off_c, 0, 67, 64
2, 102696, Note_off_c, 0, 64, 64
2, 102720, Note_on_c, 0, 72, 95
2, 102720, Note_on_c, 0, 65, 95
2, 102948, Note_off_c, 0, 72, 64
2, 102960, Note_on_c, 0, 72, 97
2, 103188, Note_off_c, 0, 72, 64
2, 103188, Note_off_c, 0, 65, 64
2, 103200, Note_on_c, 0, 74, 100
2, 103200, Control_c, 0, 64, 127
2, 103428, Note_off_c, 0, 74, 64
2, 103440, Note_on_c, 0, 79, 102
2, 103622, Note_off_c, 0, 79, 64
2, 103644, Control_c, 0, 64, 0
2, 103680, Note_on_c, 0, 77, 105
2, 103862, Note_off_c, 0, 77, 64
2, 103920, Note_on_c, 0, 76, 107
2, 104102, Note_off_c, 0, 76, 64
2, 104160, Note_on_c, 0, 68, 110
2, 104160, Note_on_c, 0, 77, 110
2, 104388, Note_off_c, 0, 77, 64
2, 104388, Note_off_c, 0, 68, 64
2, 104400, Note_on_c, 0, 79, 110
2, 104400, Note_on_c, 0, 73, 110
2, 104628, Note_off_c, 0, 73, 64
2, 104628, Note_off_c, 0, 79, 64
2, 105600, Note_on_c, 0, 80, 110
2, 105600, Note_on_c, 0, 77, 110
2, 105600, Note_on_c, 0, 72, 110
2, 105782, Note_off_c, 0, 72, 64
2, 105782, Note_off_c, 0, 77, 64
2, 105782, Note_off_c, 0, 80, 64
2, 105840, Note_on_c, 0, 79, 110
2, 105840, Note_on_c, 0, 72, 110
2, 105840, Note_on_c, 0, 84, 110
2, 106022, Note_off_c, 0, 84, 64
2, 106022, Note_off_c, 0, 72, 64
2, 106022, Note_off_c, 0, 79, 64
2, 106080, Note_on_c, 0, 77, 100
2, 106262, Note_off_c, 0, 77, 64
2, 106320, Note_on_c, 0, 79, 100
2, 106320, Note_on_c, 0, 76, 100
2, 106320, Control_c, 0, 64, 127
2, 106788, Note_off_c, 0, 76, 64
2, 106788, Note_off_c, 0, 79, 64
2, 106800, Note_on_c, 0, 74, 100
2, 106800, Note_on_c, 0, 79, 100
2, 106916, Control_c, 0, 64, 0
2, 106982, Note_off_c, 0, 79, 64
2, 106982, Note_off_c, 0, 74, 64
2, 107040, Note_on_c, 0, 76, 95
2, 107040, Note_on_c, 0, 79, 95
2, 107268, Note_off_c, 0, 79, 64
2, 107280, Note_on_c, 0, 80, 95
2, 107462, Note_off_c, 0, 80, 64
2, 107520, Note_on_c, 0, 80, 95
2, 107702, Note_off_c, 0, 80, 64
2, 107748, Note_off_c, 0, 76, 64
2, 107760, Note_on_c, 0, 77, 95
2, 107760, Control_c, 0, 64, 127
2, 107760, Note_on_c, 0, 80, 95
2, 107942, Note_off_c, 0, 80, 64
2, 108000, Note_on_c, 0, 80, 95
2, 108204, Control_c, 0, 64, 0
2, 108228, Note_off_c, 0, 77, 64
2, 108240, Note_on_c, 0, 77, 95
2, 108240, Control_c, 0, 64, 127
2, 108240, Note_on_c, 0, 82, 95
2, 108422, Note_off_c, 0, 82, 64
2, 108480, Note_on_c, 0, 82, 95
2, 108662, Note_off_c, 0, 82, 64
2, 108684, Control_c, 0, 64, 0
2, 108708, Note_off_c, 0, 80, 64
2, 108708, Note_off_c, 0, 77, 64
2, 108720, Note_on_c, 0, 75, 95
2, 108720, Control_c, 0, 64, 127
2, 108720, Note_on_c, 0, 82, 95
2, 108720, Note_on_c, 0, 79, 95
2, 108902, Note_off_c, 0, 82, 64
2, 108948, Note_off_c, 0, 79, 64
2, 108960, Note_on_c, 0, 82, 95
2, 108960, Note_on_c, 0, 79, 95
2, 109164, Control_c, 0, 64, 0
2, 109188, Note_off_c, 0, 79, 64
2, 109188, Note_off_c, 0, 82, 64
2, 109200, Note_on_c, 0, 84, 95
2, 109200, Note_on_c, 0, 80, 95
2, 109382, Note_off_c, 0, 84, 64
2, 109428, Note_off_c, 0, 80, 64
2, 109428, Note_off_c, 0, 75, 64
2, 109440, Note_on_c, 0, 85, 95
2, 109440, Note_on_c, 0, 77, 95
2, 109440, Note_on_c, 0, 82, 95
2, 109622, Note_off_c, 0, 85, 64
2, 109668, Note_off_c, 0, 82, 64
2, 109668, Note_off_c, 0, 77, 64
2, 109680, Note_on_c, 0, 82, 95
2, 109680, Note_on_c, 0, 79, 95
2, 109680, Note_on_c, 0, 73, 95
2, 109862, Note_off_c, 0, 82, 64
2, 109908, Note_off_c, 0, 73, 64
2, 109908, Note_off_c, 0, 79, 64
2, 109920, Note_on_c, 0, 72, 100
2, 109920, Control_c, 0, 64, 127
2, 109920, Note_on_c, 0, 80, 100
2, 110364, Control_c, 0, 64, 0
2, 110376, Note_off_c, 0, 80, 64
2, 110376, Note_off_c, 0, 72, 64
2, 110400, Note_on_c, 0, 68, 80
2, 110582, Note_off_c, 0, 68, 64
2, 110640, Note_on_c, 0, 68, 80
2, 110868, Note_off_c, 0, 68, 64
2, 110880, Note_on_c, 0, 67, 80
2, 110994, Note_off_c, 0, 67, 64
2, 111000, Note_on_c, 0, 65, 80
2, 111114, Note_off_c, 0, 65, 64
2, 111120, Note_on_c, 0, 63, 80
2, 111302, Note_off_c, 0, 63, 64
2, 111360, Note_on_c, 0, 68, 80
2, 111360, Note_on_c, 0, 72, 80
2, 111542, Note_off_c, 0, 72, 64
2, 111542, Note_off_c, 0, 68, 64
2, 111600, Note_on_c, 0, 68, 80
2, 111600, Note_on_c, 0, 72, 80
2, 111828, Note_off_c, 0, 72, 64
2, 111828, Note_off_c, 0, 68, 64
2, 111840, Note_on_c, 0, 67, 80
2, 111840, Note_on_c, 0, 70, 80
2, 111954, Note_off_c, 0, 70, 64
2, 111954, Note_off_c, 0, 67, 64
2, 111960, Note_on_c, 0, 65, 80
2, 111960, Note_on_c, 0, 68, 80
2, 112074, Note_off_c, 0, 68, 64
2, 112074, Note_off_c, 0, 65, 64
2, 112080, Note_on_c, 0, 67, 80
2, 112080, Note_on_c, 0, 63, 80
2, 112262, Note_off_c, 0, 63, 64
2, 112262, Note_off_c, 0, 67, 64
2, 112320, Note_on_c, 0, 75, 80
2, 112320, Note_on_c, 0, 72, 80
2, 112502, Note_off_c, 0, 72, 64
2, 112502, Note_off_c, 0, 75, 64
2, 112560, Note_on_c, 0, 72, 82
2, 112560, Note_on_c, 0, 75, 82
2, 112788, Note_off_c, 0, 75, 64
2, 112788, Note_off_c, 0, 72, 64
2, 112800, Note_on_c, 0, 70, 85
2, 112800, Note_on_c, 0, 73, 85
2, 113028, Note_off_c, 0, 73, 64
2, 113028, Note_off_c, 0, 70, 64
2, 113040, Note_on_c, 0, 72, 87
2, 113040, Note_on_c, 0, 68, 87
2, 113268, Note_off_c, 0, 68, 64
2, 113268, Note_off_c, 0, 72, 64
2, 113280, Note_on_c, 0, 67, 90
2, 113280, Note_on_c, 0, 70, 90
2, 113508, Note_off_c, 0, 70, 64
2, 113508, Note_off_c, 0, 67, 64
2, 113520, Note_on_c, 0, 72, 88
2, 113520, Note_on_c, 0, 68, 88
2, 113748, Note_off_c, 0, 68, 64
2, 113748, Note_off_c, 0, 72, 64
2, 113760, Note_on_c, 0, 67, 85
2, 113760, Note_on_c, 0, 70, 85
2, 113988, Note_off_c, 0, 70, 64
2, 113988, Note_off_c, 0, 67, 64
2, 114000, Note_on_c, 0, 72, 83
2, 114000, Note_on_c, 0, 67, 83
2, 114182, Note_off_c, 0, 67, 64
2, 114182, Note_off_c, 0, 72, 64
2, 114240, Note_on_c, 0, 65, 80
2, 114422, Note_off_c, 0, 65, 64
2, 114480, Note_on_c, 0, 65, 80
2, 114708, Note_off_c, 0, 65, 64
2, 114720, Note_on_c, 0, 64, 80
2, 114834, Note_off_c, 0, 64, 64
2, 114840, Note_on_c, 0, 62, 80
2, 114954, Note_off_c, 0, 62, 64
2, 114960, Note_on_c, 0, 60, 80
2, 115188, Note_off_c, 0, 60, 64
2, 115200, Note_on_c, 0, 68, 80
2, 115200, Note_on_c, 0, 65, 80
2, 115382, Note_off_c, 0, 65, 64
2, 115382, Note_off_c, 0, 68, 64
2, 115440, Note_on_c, 0, 68, 80
2, 115440, Note_on_c, 0, 65, 80
2, 115668, Note_off_c, 0, 65, 64
2, 115668, Note_off_c, 0, 68, 64
2, 115680, Note_on_c, 0, 67, 80
2, 115680, Note_on_c, 0, 64, 80
2, 115794, Note_off_c, 0, 64, 64
2, 115794, Note_off_c, 0, 67, 64
2, 115800, Note_on_c, 0, 62, 80
2, 115800, Note_on_c, 0, 65, 80
2, 115914, Note_off_c, 0, 65, 64
2, 115914, Note_off_c, 0, 62, 64
2, 115920, Note_on_c, 0, 64, 80
2, 115920, Note_on_c, 0, 60, 80
2, 116102, Note_off_c, 0, 60, 64
2, 116102, Note_off_c, 0, 64, 64
2, 116160, Note_on_c, 0, 68, 80
2, 116160, Note_on_c, 0, 72, 80
2, 116388, Note_off_c, 0, 72, 64
2, 116388, Note_off_c, 0, 68, 64
2, 116400, Note_on_c, 0, 72, 80
2, 116400, Note_on_c, 0, 68, 80
2, 116628, Note_off_c, 0, 68, 64
2, 116628, Note_off_c, 0, 72, 64
2, 116640, Note_on_c, 0, 67, 80
2, 116640, Note_on_c, 0, 70, 80
2, 116868, Note_off_c, 0, 70, 64
2, 116868, Note_off_c, 0, 67, 64
2, 116880, Note_on_c, 0, 65, 82
2, 116880, Note_on_c, 0, 68, 82
2, 117108, Note_off_c, 0, 68, 64
2, 117108, Note_off_c, 0, 65, 64
2, 117120, Note_on_c, 0, 64, 85
2, 117120, Note_on_c, 0, 67, 85
2, 117348, Note_off_c, 0, 67, 64
2, 117348, Note_off_c, 0, 64, 64
2, 117360, Note_on_c, 0, 68, 87
2, 117360, Note_on_c, 0, 65, 87
2, 117588, Note_off_c, 0, 65, 64
2, 117588, Note_off_c, 0, 68, 64
2, 117600, Note_on_c, 0, 64, 90
2, 117600, Note_on_c, 0, 67, 90
2, 118056, Note_off_c, 0, 67, 64
2, 118056, Note_off_c, 0, 64, 64
2, 118080, Note_on_c, 0, 72, 95
2, 118080, Note_on_c, 0, 65, 95
2, 118308, Note_off_c, 0, 72, 64
2, 118320, Note_on_c, 0, 72, 97
2, 118548, Note_off_c, 0, 72, 64
2, 118548, Note_off_c, 0, 65, 64
2, 118560, Note_on_c, 0, 74, 100
2, 118560, Control_c, 0, 64, 127
2, 118788, Note_off_c, 0, 74, 64
2, 118800, Note_on_c, 0, 79, 102
2, 118982, Note_off_c, 0, 79, 64
2, 119004, Control_c, 0, 64, 0
2, 119040, Note_on_c, 0, 77, 105
2, 119222, Note_off_c, 0, 77, 64
2, 119280, Note_on_c, 0, 76, 107
2, 119462, Note_off_c, 0, 76, 64
2, 119520, Note_on_c, 0, 68, 110
2, 119520, Note_on_c, 0, 77, 110
2, 119748, Note_off_c, 0, 77, 64
2, 119748, Note_off_c, 0, 68, 64
2, 119760, Note_on_c, 0, 79, 110
2, 119760, Note_on_c, 0, 73, 110
2, 119988, Note_off_c, 0, 73, 64
2, 119988, Note_off_c, 0, 79, 64
2, 120960, Note_on_c, 0, 80, 110
2, 120960, Note_on_c, 0, 77, 110
2, 120960, Note_on_c, 0, 72, 110
2, 121142, Note_off_c, 0, 72, 64
2, 121142, Note_off_c, 0, 77, 64
2, 121142, Note_off_c, 0, 80, 64
2, 121200, Note_on_c, 0, 79, 110
2, 121200, Note_on_c, 0, 72, 110
2, 121200, Note_on_c, 0, 84, 110
2, 121382, Note_off_c, 0, 84, 64
2, 121382, Note_off_c, 0, 72, 64
2, 121382, Note_off_c, 0, 79, 64
2, 121440, Note_on_c, 0, 77, 100
2, 121622, Note_off_c, 0, 77, 64
2, 121680, Note_on_c, 0, 89, 100
2, 121680, Control_c, 0, 64, 127
2, 122034, Note_off_c, 0, 89, 64
2, 122040, Note_on_c, 0, 84, 95
2, 122154, Note_off_c, 0, 84, 64
2, 122160, Note_on_c, 0, 87, 90
2, 122274, Note_off_c, 0, 87, 64
2, 122280, Note_on_c, 0, 85, 85
2, 122394, Note_off_c, 0, 85, 64
2, 122400, Note_on_c, 0, 80, 80
2, 122420, Control_c, 0, 64, 0
2, 122514, Note_off_c, 0, 80, 64
2, 122520, Note_on_c, 0, 84, 80
2, 122634, Note_off_c, 0, 84, 64
2, 122640, Note_on_c, 0, 82, 80
2, 122754, Note_off_c, 0, 82, 64
2, 122760, Note_on_c, 0, 79, 80
2, 122874, Note_off_c, 0, 79, 64
2, 122880, Note_on_c, 0, 82, 80
2, 122994, Note_off_c, 0, 82, 64
2, 123000, Note_on_c, 0, 77, 80
2, 123114, Note_off_c, 0, 77, 64
2, 123120, Note_on_c, 0, 80, 80
2, 123234, Note_off_c, 0, 80, 64
2, 123240, Note_on_c, 0, 78, 80
2, 123354, Note_off_c, 0, 78, 64
2, 123360, Note_on_c, 0, 75, 80
2, 123474, Note_off_c, 0, 75, 64
2, 123480, Note_on_c, 0, 78, 80
2, 123594, Note_off_c, 0, 78, 64
2, 123600, Note_on_c, 0, 77, 80
2, 123714, Note_off_c, 0, 77, 64
2, 123720, Note_on_c, 0, 73, 80
2, 123834, Note_off_c, 0, 73, 64
2, 123840, Note_on_c, 0, 78, 80
2, 123954, Note_off_c, 0, 78, 64
2, 123960, Note_on_c, 0, 74, 80
2, 124074, Note_off_c, 0, 74, 64
2, 124080, Note_on_c, 0, 77, 80
2, 124194, Note_off_c, 0, 77, 64
2, 124200, Note_on_c, 0, 75, 80
2, 124314, Note_off_c, 0, 75, 64
2, 124320, Note_on_c, 0, 71, 80
2, 124434, Note_off_c, 0, 71, 64
2, 124440, Note_on_c, 0, 73, 80
2, 124554, Note_off_c, 0, 73, 64
2, 124560, Note_on_c, 0, 72, 80
2, 124674, Note_off_c, 0, 72, 64
2, 124680, Note_on_c, 0, 68, 80
2, 124794, Note_off_c, 0, 68, 64
2, 124800, Note_on_c, 0, 70, 80
2, 124914, Note_off_c, 0, 70, 64
2, 124920, Note_on_c, 0, 66, 80
2, 125034, Note_off_c, 0, 66, 64
2, 125040, Note_on_c, 0, 70, 80
2, 125154, Note_off_c, 0, 70, 64
2, 125160, Note_on_c, 0, 68, 80
2, 125274, Note_off_c, 0, 68, 64
2, 125280, Note_on_c, 0, 65, 100
2, 125508, Note_off_c, 0, 65, 64
2, 125520, Note_on_c, 0, 89, 98
2, 125520, Control_c, 0, 64, 127
2, 125748, Note_off_c, 0, 89, 64
2, 125760, Note_on_c, 0, 89, 95
2, 125874, Note_off_c, 0, 89, 64
2, 125880, Note_on_c, 0, 84, 95
2, 125994, Note_off_c, 0, 84, 64
2, 126000, Note_on_c, 0, 87, 95
2, 126114, Note_off_c, 0, 87, 64
2, 126120, Note_on_c, 0, 85, 95
2, 126234, Note_off_c, 0, 85, 64
2, 126240, Note_on_c, 0, 80, 80
2, 126296, Control_c, 0, 64, 0
2, 126354, Note_off_c, 0, 80, 64
2, 126360, Note_on_c, 0, 84, 80
2, 126474, Note_off_c, 0, 84, 64
2, 126480, Note_on_c, 0, 82, 80
2, 126594, Note_off_c, 0, 82, 64
2, 126600, Note_on_c, 0, 79, 80
2, 126714, Note_off_c, 0, 79, 64
2, 126720, Note_on_c, 0, 82, 80
2, 126834, Note_off_c, 0, 82, 64
2, 126840, Note_on_c, 0, 77, 80
2, 126954, Note_off_c, 0, 77, 64
2, 126960, Note_on_c, 0, 80, 80
2, 127074, Note_off_c, 0, 80, 64
2, 127080, Note_on_c, 0, 78, 80
2, 127194, Note_off_c, 0, 78, 64
2, 127200, Note_on_c, 0, 75, 80
2, 127314, Note_off_c, 0, 75, 64
2, 127320, Note_on_c, 0, 78, 80
2, 127434, Note_off_c, 0, 78, 64
2, 127440, Note_on_c, 0, 77, 80
2, 127554, Note_off_c, 0, 77, 64
2, 127560, Note_on_c, 0, 73, 80
2, 127674, Note_off_c, 0, 73, 64
2, 127680, Note_on_c, 0, 77, 80
2, 127794, Note_off_c, 0, 77, 64
2, 127800, Note_on_c, 0, 72, 80
2, 127914, Note_off_c, 0, 72, 64
2, 127920, Note_on_c, 0, 75, 80
2, 128034, Note_off_c, 0, 75, 64
2, 128040, Note_on_c, 0, 73, 80
2, 128154, Note_off_c, 0, 73, 64
2, 128160, Note_on_c, 0, 68, 80
2, 128274, Note_off_c, 0, 68, 64
2, 128280, Note_on_c, 0, 73, 80
2, 128394, Note_off_c, 0, 73, 64
2, 128400, Note_on_c, 0, 71, 80
2, 128514, Note_off_c, 0, 71, 64
2, 128520, Note_on_c, 0, 68, 80
2, 128634, Note_off_c, 0, 68, 64
2, 128640, Note_on_c, 0, 71, 80
2, 128754, Note_off_c, 0, 71, 64
2, 128760, Note_on_c, 0, 68, 80
2, 128874, Note_off_c, 0, 68, 64
2, 128880, Note_on_c, 0, 72, 80
2, 128994, Note_off_c, 0, 72, 64
2, 129000, Note_on_c, 0, 69, 80
2, 129114, Note_off_c, 0, 69, 64
2, 129120, Note_on_c, 0, 70, 100
2, 129348, Note_off_c, 0, 70, 64
2, 129360, Note_on_c, 0, 94, 98
2, 129360, Control_c, 0, 64, 127
2, 129588, Note_off_c, 0, 94, 64
2, 129600, Note_on_c, 0, 94, 95
2, 129714, Note_off_c, 0, 94, 64
2, 129720, Note_on_c, 0, 89, 95
2, 129834, Note_off_c, 0, 89, 64
2, 129840, Note_on_c, 0, 92, 95
2, 129954, Note_off_c, 0, 92, 64
2, 129960, Note_on_c, 0, 90, 95
2, 130074, Note_off_c, 0, 90, 64
2, 130080, Note_on_c, 0, 85, 80
2, 130116, Control_c, 0, 64, 0
2, 130194, Note_off_c, 0, 85, 64
2, 130200, Note_on_c, 0, 89, 80
2, 130314, Note_off_c, 0, 89, 64
2, 130320, Note_on_c, 0, 87, 80
2, 130434, Note_off_c, 0, 87, 64
2, 130440, Note_on_c, 0, 84, 80
2, 130554, Note_off_c, 0, 84, 64
2, 130560, Note_on_c, 0, 87, 80
2, 130674, Note_off_c, 0, 87, 64
2, 130680, Note_on_c, 0, 82, 80
2, 130794, Note_off_c, 0, 82, 64
2, 130800, Note_on_c, 0, 85, 80
2, 130914, Note_off_c, 0, 85, 64
2, 130920, Note_on_c, 0, 83, 80
2, 131034, Note_off_c, 0, 83, 64
2, 131040, Note_on_c, 0, 80, 80
2, 131154, Note_off_c, 0, 80, 64
2, 131160, Note_on_c, 0, 83, 80
2, 131274, Note_off_c, 0, 83, 64
2, 131280, Note_on_c, 0, 82, 80
2, 131394, Note_off_c, 0, 82, 64
2, 131400, Note_on_c, 0, 78, 80
2, 131514, Note_off_c, 0, 78, 64
2, 131520, Note_on_c, 0, 83, 80
2, 131634, Note_off_c, 0, 83, 64
2, 131640, Note_on_c, 0, 79, 80
2, 131754, Note_off_c, 0, 79, 64
2, 131760, Note_on_c, 0, 82, 80
2, 131874, Note_off_c, 0, 82, 64
2, 131880, Note_on_c, 0, 80, 80
2, 131994, Note_off_c, 0, 80, 64
2, 132000, Note_on_c, 0, 76, 80
2, 132114, Note_off_c, 0, 76, 64
2, 132120, Note_on_c, 0, 78, 80
2, 132234, Note_off_c, 0, 78, 64
2, 132240, Note_on_c, 0, 77, 80
2, 132354, Note_off_c, 0, 77, 64
2, 132360, Note_on_c, 0, 73, 80
2, 132474, Note_off_c, 0, 73, 64
2, 132480, Note_on_c, 0, 75, 80
2, 132594, Note_off_c, 0, 75, 64
2, 132600, Note_on_c, 0, 71, 80
2, 132714, Note_off_c, 0, 71, 64
2, 132720, Note_on_c, 0, 75, 80
2, 132834, Note_off_c, 0, 75, 64
2, 132840, Note_on_c, 0, 73, 80
2, 132954, Note_off_c, 0, 73, 64
2, 132960, Note_on_c, 0, 70, 100
2, 133188, Note_off_c, 0, 70, 64
2, 133200, Note_on_c, 0, 94, 98
2, 133200, Control_c, 0, 64, 127
2, 133428, Note_off_c, 0, 94, 64
2, 133440, Note_on_c, 0, 94, 95
2, 133554, Note_off_c, 0, 94, 64
2, 133560, Note_on_c, 0, 89, 95
2, 133674, Note_off_c, 0, 89, 64
2, 133680, Note_on_c, 0, 92, 95
2, 133794, Note_off_c, 0, 92, 64
2, 133800, Note_on_c, 0, 90, 95
2, 133914, Note_off_c, 0, 90, 64
2, 133920, Note_on_c, 0, 85, 80
2, 133980, Control_c, 0, 64, 0
2, 134034, Note_off_c, 0, 85, 64
2, 134040, Note_on_c, 0, 89, 80
2, 134154, Note_off_c, 0, 89, 64
2, 134160, Note_on_c, 0, 87, 80
2, 134274, Note_off_c, 0, 87, 64
2, 134280, Note_on_c, 0, 84, 80
2, 134394, Note_off_c, 0, 84, 64
2, 134400, Note_on_c, 0, 87, 80
2, 134514, Note_off_c, 0, 87, 64
2, 134520, Note_on_c, 0, 82, 80
2, 134634, Note_off_c, 0, 82, 64
2, 134640, Note_on_c, 0, 85, 80
2, 134754, Note_off_c, 0, 85, 64
2, 134760, Note_on_c, 0, 83, 80
2, 134874, Note_off_c, 0, 83, 64
2, 134880, Note_on_c, 0, 80, 80
2, 134994, Note_off_c, 0, 80, 64
2, 135000, Note_on_c, 0, 83, 80
2, 135114, Note_off_c, 0, 83, 64
2, 135120, Note_on_c, 0, 82, 80
2, 135234, Note_off_c, 0, 82, 64
2, 135240, Note_on_c, 0, 78, 80
2, 135354, Note_off_c, 0, 78, 64
2, 135360, Note_on_c, 0, 82, 80
2, 135474, Note_off_c, 0, 82, 64
2, 135480, Note_on_c, 0, 79, 80
2, 135594, Note_off_c, 0, 79, 64
2, 135600, Note_on_c, 0, 82, 80
2, 135714, Note_off_c, 0, 82, 64
2, 135720, Note_on_c, 0, 80, 80
2, 135834, Note_off_c, 0, 80, 64
2, 135840, Note_on_c, 0, 77, 80
2, 135954, Note_off_c, 0, 77, 64
2, 135960, Note_on_c, 0, 80, 80
2, 136074, Note_off_c, 0, 80, 64
2, 136080, Note_on_c, 0, 78, 80
2, 136194, Note_off_c, 0, 78, 64
2, 136200, Note_on_c, 0, 75, 80
2, 136314, Note_off_c, 0, 75, 64
2, 136320, Note_on_c, 0, 74, 80
2, 136434, Note_off_c, 0, 74, 64
2, 136440, Note_on_c, 0, 68, 80
2, 136554, Note_off_c, 0, 68, 64
2, 136560, Note_on_c, 0, 71, 80
2, 136674, Note_off_c, 0, 71, 64
2, 136680, Note_on_c, 0, 70, 80
2, 136794, Note_off_c, 0, 70, 64
2, 136800, Note_on_c, 0, 66, 100
2, 137028, Note_off_c, 0, 66, 64
2, 137040, Note_on_c, 0, 90, 98
2, 137040, Control_c, 0, 64, 127
2, 137268, Note_off_c, 0, 90, 64
2, 137280, Note_on_c, 0, 90, 95
2, 137394, Note_off_c, 0, 90, 64
2, 137400, Note_on_c, 0, 86, 95
2, 137514, Note_off_c, 0, 86, 64
2, 137520, Note_on_c, 0, 89, 95
2, 137634, Note_off_c, 0, 89, 64
2, 137640, Note_on_c, 0, 87, 95
2, 137754, Note_off_c, 0, 87, 64
2, 137760, Note_on_c, 0, 78, 95
2, 137820, Control_c, 0, 64, 0
2, 137988, Note_off_c, 0, 78, 64
2, 138000, Note_on_c, 0, 78, 97
2, 138000, Note_on_c, 0, 90, 97
2, 138000, Note_on_c, 0, 87, 97
2, 138228, Note_off_c, 0, 87, 64
2, 138228, Note_off_c, 0, 90, 64
2, 138228, Note_off_c, 0, 78, 64
2, 138240, Note_on_c, 0, 77, 95
2, 138468, Note_off_c, 0, 77, 64
2, 138480, Note_on_c, 0, 89, 97
2, 138480, Control_c, 0, 64, 127
2, 138480, Note_on_c, 0, 85, 97
2, 138480, Note_on_c, 0, 77, 97
2, 138708, Note_off_c, 0, 77, 64
2, 138708, Note_off_c, 0, 85, 64
2, 138708, Note_off_c, 0, 89, 64
2, 138720, Note_on_c, 0, 89, 80
2, 138834, Note_off_c, 0, 89, 64
2, 138840, Note_on_c, 0, 84, 80
2, 138954, Note_off_c, 0, 84, 64
2, 138960, Note_on_c, 0, 87, 80
2, 139074, Note_off_c, 0, 87, 64
2, 139080, Note_on_c, 0, 85, 80
2, 139194, Note_off_c, 0, 85, 64
2, 139200, Note_on_c, 0, 80, 80
2, 139252, Control_c, 0, 64, 0
2, 139314, Note_off_c, 0, 80, 64
2, 139320, Note_on_c, 0, 84, 80
2, 139434, Note_off_c, 0, 84, 64
2, 139440, Note_on_c, 0, 82, 80
2, 139554, Note_off_c, 0, 82, 64
2, 139560, Note_on_c, 0, 79, 80
2, 139674, Note_off_c, 0, 79, 64
2, 139680, Note_on_c, 0, 82, 80
2, 139794, Note_off_c, 0, 82, 64
2, 139800, Note_on_c, 0, 77, 80
2, 139914, Note_off_c, 0, 77, 64
2, 139920, Note_on_c, 0, 80, 80
2, 140034, Note_off_c, 0, 80, 64
2, 140040, Note_on_c, 0, 78, 80
2, 140154, Note_off_c, 0, 78, 64
2, 140160, Note_on_c, 0, 75, 80
2, 140274, Note_off_c, 0, 75, 64
2, 140280, Note_on_c, 0, 78, 80
2, 140394, Note_off_c, 0, 78, 64
2, 140400, Note_on_c, 0, 77, 80
2, 140514, Note_off_c, 0, 77, 64
2, 140520, Note_on_c, 0, 73, 80
2, 140634, Note_off_c, 0, 73, 64
2, 140640, Note_on_c, 0, 78, 80
2, 140754, Note_off_c, 0, 78, 64
2, 140760, Note_on_c, 0, 74, 80
2, 140874, Note_off_c, 0, 74, 64
2, 140880, Note_on_c, 0, 77, 80
2, 140994, Note_off_c, 0, 77, 64
2, 141000, Note_on_c, 0, 75, 80
2, 141114, Note_off_c, 0, 75, 64
2, 141120, Note_on_c, 0, 71, 80
2, 141234, Note_off_c, 0, 71, 64
2, 141240, Note_on_c, 0, 73, 80
2, 141354, Note_off_c, 0, 73, 64
2, 141360, Note_on_c, 0, 72, 80
2, 141474, Note_off_c, 0, 72, 64
2, 141480, Note_on_c, 0, 68, 80
2, 141594, Note_off_c, 0, 68, 64
2, 141600, Note_on_c, 0, 70, 80
2, 141714, Note_off_c, 0, 70, 64
2, 141720, Note_on_c, 0, 67, 80
2, 141834, Note_off_c, 0, 67, 64
2, 141840, Note_on_c, 0, 70, 80
2, 141954, Note_off_c, 0, 70, 64
2, 141960, Note_on_c, 0, 68, 79
2, 142074, Note_off_c, 0, 68, 64
2, 142080, Note_on_c, 0, 65, 79
2, 142308, Note_off_c, 0, 65, 64
2, 142320, Note_on_c, 0, 77, 78
2, 142320, Control_c, 0, 64, 127
2, 142548, Note_off_c, 0, 77, 64
2, 142560, Note_on_c, 0, 77, 77
2, 142674, Note_off_c, 0, 77, 64
2, 142680, Note_on_c, 0, 72, 76
2, 142794, Note_off_c, 0, 72, 64
2, 142800, Note_on_c, 0, 75, 76
2, 142914, Note_off_c, 0, 75, 64
2, 142920, Note_on_c, 0, 73, 75
2, 143034, Note_off_c, 0, 73, 64
2, 143040, Note_on_c, 0, 68, 75
2, 143096, Control_c, 0, 64, 0
2, 143154, Note_off_c, 0, 68, 64
2, 143160, Note_on_c, 0, 72, 74
2, 143274, Note_off_c, 0, 72, 64
2, 143280, Note_on_c, 0, 70, 74
2, 143394, Note_off_c, 0, 70, 64
2, 143400, Note_on_c, 0, 67, 73
2, 143514, Note_off_c, 0, 67, 64
2, 143520, Note_on_c, 0, 70, 73
2, 143634, Note_off_c, 0, 70, 64
2, 143640, Note_on_c, 0, 65, 73
2, 143754, Note_off_c, 0, 65, 64
2, 143760, Note_on_c, 0, 68, 72
2, 143874, Note_off_c, 0, 68, 64
2, 143880, Note_on_c, 0, 66, 72
2, 143994, Note_off_c, 0, 66, 64
2, 144000, Note_on_c, 0, 63, 71
2, 144114, Note_off_c, 0, 63, 64
2, 144120, Note_on_c, 0, 66, 71
2, 144234, Note_off_c, 0, 66, 64
2, 144240, Note_on_c, 0, 65, 70
2, 144354, Note_off_c, 0, 65, 64
2, 144360, Note_on_c, 0, 61, 70
2, 144474, Note_off_c, 0, 61, 64
2, 144480, Note_on_c, 0, 66, 69
2, 144594, Note_off_c, 0, 66, 64
2, 144600, Note_on_c, 0, 62, 69
2, 144714, Note_off_c, 0, 62, 64
2, 144720, Note_on_c, 0, 65, 68
2, 144834, Note_off_c, 0, 65, 64
2, 144840, Note_on_c, 0, 63, 68
2, 144954, Note_off_c, 0, 63, 64
2, 144960, Note_on_c, 0, 59, 67
2, 145074, Note_off_c, 0, 59, 64
2, 145080, Note_on_c, 0, 61, 67
2, 145194, Note_off_c, 0, 61, 64
2, 145200, Note_on_c, 0, 60, 66
2, 145314, Note_off_c, 0, 60, 64
2, 145320, Note_on_c, 0, 56, 66
2, 145434, Note_off_c, 0, 56, 64
2, 145440, Note_on_c, 0, 58, 65
2, 145554, Note_off_c, 0, 58, 64
2, 145560, Note_on_c, 0, 54, 65
2, 145674, Note_off_c, 0, 54, 64
2, 145680, Note_on_c, 0, 58, 65
2, 145794, Note_off_c, 0, 58, 64
2, 145800, Note_on_c, 0, 56, 65
2, 145914, Note_off_c, 0, 56, 64
2, 145920, Note_on_c, 0, 51, 65
2, 146034, Note_off_c, 0, 51, 64
2, 146040, Note_on_c, 0, 54, 65
2, 146154, Note_off_c, 0, 54, 64
2, 146160, Note_on_c, 0, 53, 65
2, 146274, Note_off_c, 0, 53, 64
2, 146280, Note_on_c, 0, 49, 65
2, 146394, Note_off_c, 0, 49, 64
2, 146400, Note_on_c, 0, 53, 65
2, 146514, Note_off_c, 0, 53, 64
2, 146520, Note_on_c, 0, 48, 65
2, 146634, Note_off_c, 0, 48, 64
2, 146640, Note_on_c, 0, 51, 65
2, 146754, Note_off_c, 0, 51, 64
2, 146760, Note_on_c, 0, 49, 65
2, 146874, Note_off_c, 0, 49, 64
2, 146880, Note_on_c, 0, 65, 65
2, 146994, Note_off_c, 0, 65, 64
2, 147000, Note_on_c, 0, 60, 65
2, 147114, Note_off_c, 0, 60, 64
2, 147120, Note_on_c, 0, 63, 65
2, 147234, Note_off_c, 0, 63, 64
2, 147240, Note_on_c, 0, 61, 65
2, 147354, Note_off_c, 0, 61, 64
2, 147360, Note_on_c, 0, 65, 65
2, 147474, Note_off_c, 0, 65, 64
2, 147480, Note_on_c, 0, 60, 65
2, 147594, Note_off_c, 0, 60, 64
2, 147600, Note_on_c, 0, 63, 65
2, 147714, Note_off_c, 0, 63, 64
2, 147720, Note_on_c, 0, 61, 65
2, 147834, Note_off_c, 0, 61, 64
2, 147840, Note_on_c, 0, 77, 65
2, 147954, Note_off_c, 0, 77, 64
2, 147960, Note_on_c, 0, 72, 65
2, 148074, Note_off_c, 0, 72, 64
2, 148080, Note_on_c, 0, 75, 65
2, 148194, Note_off_c, 0, 75, 64
2, 148200, Note_on_c, 0, 73, 65
2, 148314, Note_off_c, 0, 73, 64
2, 148320, Note_on_c, 0, 68, 80
2, 148320, Note_on_c, 0, 72, 80
2, 148548, Note_off_c, 0, 72, 64
2, 148548, Note_off_c, 0, 68, 64
2, 148560, Note_on_c, 0, 63, 80
2, 148560, Note_on_c, 0, 70, 80
2, 148788, Note_off_c, 0, 70, 64
2, 148788, Note_off_c, 0, 63, 64
2, 148800, Note_on_c, 0, 65, 80
2, 148800, Note_on_c, 0, 68, 80
2, 149028, Note_off_c, 0, 68, 64
2, 149028, Note_off_c, 0, 65, 64
2, 149040, Note_on_c, 0, 64, 80
2, 149040, Note_on_c, 0, 67, 80
2, 149040, Note_on_c, 0, 61, 80
2, 149222, Note_off_c, 0, 61, 64
2, 149222, Note_off_c, 0, 67, 64
2, 149222, Note_off_c, 0, 64, 64
2, 149280, Note_on_c, 0, 56, 80
2, 149280, Note_on_c, 0, 62, 80
2, 149280, Note_on_c, 0, 65, 80
2, 149462, Note_off_c, 0, 65, 64
2, 149462, Note_off_c, 0, 62, 64
2, 149462, Note_off_c, 0, 56, 64
2, 149520, Note_on_c, 0, 62, 80
2, 149520, Note_on_c, 0, 56, 80
2, 149520, Note_on_c, 0, 65, 80
2, 149702, Note_off_c, 0, 65, 64
2, 149702, Note_off_c, 0, 56, 64
2, 149702, Note_off_c, 0, 62, 64
2, 149760, Note_on_c, 0, 55, 80
2, 149760, Control_c, 0, 64, 127
2, 149760, Note_on_c, 0, 64, 80
2, 150204, Control_c, 0, 64, 0
2, 150216, Note_off_c, 0, 64, 64
2, 150216, Note_off_c, 0, 55, 64
2, 150240, Note_on_c, 0, 76, 95
2, 150240, Control_c, 0, 64, 127
2, 150240, Note_on_c, 0, 72, 95
2, 150240, Note_on_c, 0, 79, 95
2, 150468, Note_off_c, 0, 79, 64
2, 150468, Note_off_c, 0, 72, 64
2, 150468, Note_off_c, 0, 76, 64
2, 150480, Note_on_c, 0, 76, 95
2, 150480, Note_on_c, 0, 72, 95
2, 150480, Note_on_c, 0, 67, 95
2, 150662, Note_off_c, 0, 67, 64
2, 150662, Note_off_c, 0, 72, 64
2, 150662, Note_off_c, 0, 76, 64
2, 150720, Note_on_c, 0, 72, 95
2, 150720, Note_on_c, 0, 67, 95
2, 150720, Note_on_c, 0, 64, 95
2, 150902, Note_off_c, 0, 64, 64
2, 150902, Note_off_c, 0, 67, 64
2, 150902, Note_off_c, 0, 72, 64
2, 150920, Control_c, 0, 64, 0
2, 150960, Note_on_c, 0, 72, 95
2, 150960, Note_on_c, 0, 64, 95
2, 150960, Note_on_c, 0, 67, 95
2, 151142, Note_off_c, 0, 67, 64
2, 151142, Note_off_c, 0, 64, 64
2, 151142, Note_off_c, 0, 72, 64
2, 151200, Note_on_c, 0, 72, 95
2, 151200, Note_on_c, 0, 67, 95
2, 151200, Note_on_c, 0, 64, 95
2, 151382, Note_off_c, 0, 64, 64
2, 151382, Note_off_c, 0, 67, 64
2, 151382, Note_off_c, 0, 72, 64
2, 151440, Note_on_c, 0, 74, 95
2, 151440, Note_on_c, 0, 71, 95
2, 151440, Note_on_c, 0, 67, 95
2, 151622, Note_off_c, 0, 67, 64
2, 151622, Note_off_c, 0, 71, 64
2, 151622, Note_off_c, 0, 74, 64
2, 151680, Note_on_c, 0, 67, 100
2, 151680, Control_c, 0, 64, 127
2, 151680, Note_on_c, 0, 72, 100
2, 151680, Note_on_c, 0, 76, 100
2, 152124, Control_c, 0, 64, 0
2, 152136, Note_off_c, 0, 76, 64
2, 152136, Note_off_c, 0, 72, 64
2, 152136, Note_off_c, 0, 67, 64
2, 152160, Note_on_c, 0, 68, 80
2, 152160, Note_on_c, 0, 72, 80
2, 152388, Note_off_c, 0, 72, 64
2, 152388, Note_off_c, 0, 68, 64
2, 152400, Note_on_c, 0, 64, 80
2, 152400, Note_on_c, 0, 70, 80
2, 152628, Note_off_c, 0, 70, 64
2, 152628, Note_off_c, 0, 64, 64
2, 152640, Note_on_c, 0, 65, 80
2, 152640, Note_on_c, 0, 68, 80
2, 152868, Note_off_c, 0, 68, 64
2, 152868, Note_off_c, 0, 65, 64
2, 152880, Note_on_c, 0, 64, 80
2, 152880, Note_on_c, 0, 67, 80
2, 152880, Note_on_c, 0, 61, 80
2, 153062, Note_off_c, 0, 61, 64
2, 153062, Note_off_c, 0, 67, 64
2, 153062, Note_off_c, 0, 64, 64
2, 153120, Note_on_c, 0, 62, 80
2, 153120, Note_on_c, 0, 56, 80
2, 153120, Note_on_c, 0, 65, 80
2, 153302, Note_off_c, 0, 65, 64
2, 153302, Note_off_c, 0, 56, 64
2, 153302, Note_off_c, 0, 62, 64
2, 153360, Note_on_c, 0, 56, 80
2, 153360, Note_on_c, 0, 62, 80
2, 153360, Note_on_c, 0, 65, 80
2, 153542, Note_off_c, 0, 65, 64
2, 153542, Note_off_c, 0, 62, 64
2, 153542, Note_off_c, 0, 56, 64
2, 153600, Note_on_c, 0, 55, 80
2, 153600, Control_c, 0, 64, 127
2, 153600, Note_on_c, 0, 64, 80
2, 154044, Control_c, 0, 64, 0
2, 154056, Note_off_c, 0, 64, 64
2, 154056, Note_off_c, 0, 55, 64
2, 154080, Note_on_c, 0, 76, 95
2, 154080, Control_c, 0, 64, 127
2, 154080, Note_on_c, 0, 72, 95
2, 154080, Note_on_c, 0, 79, 95
2, 154308, Note_off_c, 0, 79, 64
2, 154308, Note_off_c, 0, 72, 64
2, 154308, Note_off_c, 0, 76, 64
2, 154320, Note_on_c, 0, 76, 95
2, 154320, Note_on_c, 0, 72, 95
2, 154320, Note_on_c, 0, 67, 95
2, 154502, Note_off_c, 0, 67, 64
2, 154502, Note_off_c, 0, 72, 64
2, 154502, Note_off_c, 0, 76, 64
2, 154560, Note_on_c, 0, 72, 95
2, 154560, Note_on_c, 0, 64, 95
2, 154560, Note_on_c, 0, 67, 95
2, 154742, Note_off_c, 0, 67, 64
2, 154742, Note_off_c, 0, 64, 64
2, 154742, Note_off_c, 0, 72, 64
2, 154772, Control_c, 0, 64, 0
2, 154800, Note_on_c, 0, 72, 95
2, 154800, Note_on_c, 0, 67, 95
2, 154800, Note_on_c, 0, 64, 95
2, 154982, Note_off_c, 0, 64, 64
2, 154982, Note_off_c, 0, 67, 64
2, 154982, Note_off_c, 0, 72, 64
2, 155040, Note_on_c, 0, 72, 95
2, 155040, Note_on_c, 0, 67, 95
2, 155040, Note_on_c, 0, 64, 95
2, 155222, Note_off_c, 0, 64, 64
2, 155222, Note_off_c, 0, 67, 64
2, 155222, Note_off_c, 0, 72, 64
2, 155280, Note_on_c, 0, 74, 95
2, 155280, Note_on_c, 0, 71, 95
2, 155280, Note_on_c, 0, 67, 95
2, 155462, Note_off_c, 0, 67, 64
2, 155462, Note_off_c, 0, 71, 64
2, 155462, Note_off_c, 0, 74, 64
2, 155520, Note_on_c, 0, 67, 100
2, 155520, Control_c, 0, 64, 127
2, 155520, Note_on_c, 0, 72, 100
2, 155520, Note_on_c, 0, 76, 100
2, 155964, Control_c, 0, 64, 0
2, 155976, Note_off_c, 0, 76, 64
2, 155976, Note_off_c, 0, 72, 64
2, 155976, Note_off_c, 0, 67, 64
2, 156000, Note_on_c, 0, 79, 95
2, 156000, Note_on_c, 0, 76, 95
2, 156182, Note_off_c, 0, 76, 64
2, 156182, Note_off_c, 0, 79, 64
2, 156240, Note_on_c, 0, 74, 95
2, 156240, Note_on_c, 0, 79, 95
2, 156422, Note_off_c, 0, 79, 64
2, 156422, Note_off_c, 0, 74, 64
2, 156480, Note_on_c, 0, 76, 95
2, 156480, Note_on_c, 0, 79, 95
2, 156708, Note_off_c, 0, 79, 64
2, 156720, Note_on_c, 0, 80, 95
2, 156902, Note_off_c, 0, 80, 64
2, 156960, Note_on_c, 0, 80, 95
2, 157142, Note_off_c, 0, 80, 64
2, 157188, Note_off_c, 0, 76, 64
2, 157196, Control_c, 0, 64, 127
2, 157200, Note_on_c, 0, 77, 95
2, 157200, Note_on_c, 0, 80, 95
2, 157382, Note_off_c, 0, 80, 64
2, 157440, Note_on_c, 0, 80, 95
2, 157640, Control_c, 0, 64, 0
2, 157668, Note_off_c, 0, 77, 64
2, 157676, Control_c, 0, 64, 127
2, 157680, Note_on_c, 0, 77, 95
2, 157680, Note_on_c, 0, 82, 95
2, 157862, Note_off_c, 0, 82, 64
2, 157920, Note_on_c, 0, 82, 95
2, 158102, Note_off_c, 0, 82, 64
2, 158120, Control_c, 0, 64, 0
2, 158148, Note_off_c, 0, 80, 64
2, 158148, Note_off_c, 0, 77, 64
2, 158156, Control_c, 0, 64, 127
2, 158160, Note_on_c, 0, 75, 95
2, 158160, Note_on_c, 0, 82, 95
2, 158160, Note_on_c, 0, 79, 95
2, 158342, Note_off_c, 0, 82, 64
2, 158388, Note_off_c, 0, 79, 64
2, 158400, Note_on_c, 0, 79, 95
2, 158400, Note_on_c, 0, 82, 95
2, 158600, Control_c, 0, 64, 0
2, 158628, Note_off_c, 0, 82, 64
2, 158628, Note_off_c, 0, 79, 64
2, 158628, Note_off_c, 0, 75, 64
2, 158640, Note_on_c, 0, 84, 95
2, 158640, Note_on_c, 0, 80, 95
2, 158822, Note_off_c, 0, 84, 64
2, 158868, Note_off_c, 0, 80, 64
2, 158880, Note_on_c, 0, 85, 95
2, 158880, Note_on_c, 0, 77, 95
2, 158880, Note_on_c, 0, 82, 95
2, 159062, Note_off_c, 0, 85, 64
2, 159108, Note_off_c, 0, 82, 64
2, 159108, Note_off_c, 0, 77, 64
2, 159120, Note_on_c, 0, 82, 95
2, 159120, Note_on_c, 0, 79, 95
2, 159120, Note_on_c, 0, 73, 95
2, 159302, Note_off_c, 0, 82, 64
2, 159348, Note_off_c, 0, 73, 64
2, 159348, Note_off_c, 0, 79, 64
2, 159360, Note_on_c, 0, 72, 100
2, 159360, Control_c, 0, 64, 127
2, 159360, Note_on_c, 0, 80, 100
2, 159804, Control_c, 0, 64, 0
2, 159816, Note_off_c, 0, 80, 64
2, 159816, Note_off_c, 0, 72, 64
2, 159840, Note_on_c, 0, 68, 80
2, 160022, Note_off_c, 0, 68, 64
2, 160080, Note_on_c, 0, 68, 80
2, 160308, Note_off_c, 0, 68, 64
2, 160320, Note_on_c, 0, 67, 80
2, 160434, Note_off_c, 0, 67, 64
2, 160440, Note_on_c, 0, 65, 80
2, 160554, Note_off_c, 0, 65, 64
2, 160560, Note_on_c, 0, 63, 80
2, 160742, Note_off_c, 0, 63, 64
2, 160800, Note_on_c, 0, 68, 80
2, 160800, Note_on_c, 0, 72, 80
2, 160982, Note_off_c, 0, 72, 64
2, 160982, Note_off_c, 0, 68, 64
2, 161040, Note_on_c, 0, 72, 80
2, 161040, Note_on_c, 0, 68, 80
2, 161268, Note_off_c, 0, 68, 64
2, 161268, Note_off_c, 0, 72, 64
2, 161280, Note_on_c, 0, 70, 80
2, 161280, Note_on_c, 0, 67, 80
2, 161394, Note_off_c, 0, 67, 64
2, 161394, Note_off_c, 0, 70, 64
2, 161400, Note_on_c, 0, 68, 80
2, 161400, Note_on_c, 0, 65, 80
2, 161514, Note_off_c, 0, 65, 64
2, 161514, Note_off_c, 0, 68, 64
2, 161520, Note_on_c, 0, 67, 80
2, 161520, Note_on_c, 0, 63, 80
2, 161702, Note_off_c, 0, 63, 64
2, 161702, Note_off_c, 0, 67, 64
2, 161760, Note_on_c, 0, 72, 80
2, 161760, Note_on_c, 0, 75, 80
2, 161942, Note_off_c, 0, 75, 64
2, 161942, Note_off_c, 0, 72, 64
2, 162000, Note_on_c, 0, 75, 80
2, 162000, Note_on_c, 0, 72, 80
2, 162228, Note_off_c, 0, 72, 64
2, 162228, Note_off_c, 0, 75, 64
2, 162240, Note_on_c, 0, 70, 80
2, 162240, Note_on_c, 0, 73, 80
2, 162468, Note_off_c, 0, 73, 64
2, 162468, Note_off_c, 0, 70, 64
2, 162480, Note_on_c, 0, 72, 80
2, 162480, Note_on_c, 0, 68, 80
2, 162708, Note_off_c, 0, 68, 64
2, 162708, Note_off_c, 0, 72, 64
2, 162720, Note_on_c, 0, 67, 80
2, 162720, Note_on_c, 0, 70, 80
2, 162948, Note_off_c, 0, 70, 64
2, 162948, Note_off_c, 0, 67, 64
2, 162960, Note_on_c, 0, 68, 80
2, 162960, Note_on_c, 0, 72, 80
2, 163188, Note_off_c, 0, 72, 64
2, 163188, Note_off_c, 0, 68, 64
2, 163200, Note_on_c, 0, 70, 80
2, 163200, Note_on_c, 0, 67, 80
2, 163428, Note_off_c, 0, 67, 64
2, 163428, Note_off_c, 0, 70, 64
2, 163440, Note_on_c, 0, 72, 80
2, 163440, Note_on_c, 0, 67, 80
2, 163668, Note_off_c, 0, 67, 64
2, 163668, Note_off_c, 0, 72, 64
2, 163680, Note_on_c, 0, 65, 80
2, 163908, Note_off_c, 0, 65, 64
2, 163920, Note_on_c, 0, 65, 80
2, 164148, Note_off_c, 0, 65, 64
2, 164160, Note_on_c, 0, 64, 80
2, 164274, Note_off_c, 0, 64, 64
2, 164280, Note_on_c, 0, 62, 80
2, 164394, Note_off_c, 0, 62, 64
2, 164400, Note_on_c, 0, 60, 80
2, 164628, Note_off_c, 0, 60, 64
2, 164640, Note_on_c, 0, 68, 80
2, 164640, Note_on_c, 0, 65, 80
2, 164822, Note_off_c, 0, 65, 64
2, 164822, Note_off_c, 0, 68, 64
2, 164880, Note_on_c, 0, 68, 80
2, 164880, Note_on_c, 0, 65, 80
2, 165108, Note_off_c, 0, 65, 64
2, 165108, Note_off_c, 0, 68, 64
2, 165120, Note_on_c, 0, 67, 80
2, 165120, Note_on_c, 0, 64, 80
2, 165234, Note_off_c, 0, 64, 64
2, 165234, Note_off_c, 0, 67, 64
2, 165240, Note_on_c, 0, 62, 80
2, 165240, Note_on_c, 0, 65, 80
2, 165354, Note_off_c, 0, 65, 64
2, 165354, Note_off_c, 0, 62, 64
2, 165360, Note_on_c, 0, 60, 80
2, 165360, Note_on_c, 0, 64, 80
2, 165588, Note_off_c, 0, 64, 64
2, 165588, Note_off_c, 0, 60, 64
2, 165600, Note_on_c, 0, 68, 80
2, 165600, Note_on_c, 0, 72, 80
2, 165782, Note_off_c, 0, 72, 64
2, 165782, Note_off_c, 0, 68, 64
2, 165840, Note_on_c, 0, 72, 80
2, 165840, Note_on_c, 0, 68, 80
2, 166068, Note_off_c, 0, 68, 64
2, 166068, Note_off_c, 0, 72, 64
2, 166080, Note_on_c, 0, 70, 80
2, 166080, Note_on_c, 0, 67, 80
2, 166308, Note_off_c, 0, 67, 64
2, 166308, Note_off_c, 0, 70, 64
2, 166320, Note_on_c, 0, 68, 80
2, 166320, Note_on_c, 0, 65, 80
2, 166548, Note_off_c, 0, 65, 64
2, 166548, Note_off_c, 0, 68, 64
2, 166560, Note_on_c, 0, 67, 80
2, 166560, Note_on_c, 0, 64, 80
2, 166788, Note_off_c, 0, 64, 64
2, 166788, Note_off_c, 0, 67, 64
2, 166800, Note_on_c, 0, 68, 80
2, 166800, Note_on_c, 0, 65, 80
2, 167028, Note_off_c, 0, 65, 64
2, 167028, Note_off_c, 0, 68, 64
2, 167040, Note_on_c, 0, 67, 80
2, 167040, Control_c, 0, 64, 127
2, 167040, Note_on_c, 0, 64, 80
2, 167484, Control_c, 0, 64, 0
2, 167496, Note_off_c, 0, 64, 64
2, 167496, Note_off_c, 0, 67, 64
2, 167520, Note_on_c, 0, 72, 80
2, 167520, Note_on_c, 0, 65, 80
2, 167748, Note_off_c, 0, 72, 64
2, 167760, Note_on_c, 0, 72, 80
2, 167988, Note_off_c, 0, 72, 64
2, 167988, Note_off_c, 0, 65, 64
2, 168000, Note_on_c, 0, 74, 80
2, 168000, Control_c, 0, 64, 127
2, 168228, Note_off_c, 0, 74, 64
2, 168240, Note_on_c, 0, 79, 80
2, 168422, Note_off_c, 0, 79, 64
2, 168444, Control_c, 0, 64, 0
2, 168480, Note_on_c, 0, 77, 80
2, 168662, Note_off_c, 0, 77, 64
2, 168720, Note_on_c, 0, 76, 80
2, 168902, Note_off_c, 0, 76, 64
2, 168960, Note_on_c, 0, 77, 110
2, 168960, Note_on_c, 0, 68, 110
2, 169188, Note_off_c, 0, 68, 64
2, 169188, Note_off_c, 0, 77, 64
2, 169200, Note_on_c, 0, 73, 110
2, 169200, Note_on_c, 0, 79, 110
2, 169382, Note_off_c, 0, 79, 64
2, 169382, Note_off_c, 0, 73, 64
2, 170400, Note_on_c, 0, 72, 110
2, 170400, Note_on_c, 0, 77, 110
2, 170400, Note_on_c, 0, 80, 110
2, 170582, Note_off_c, 0, 80, 64
2, 170582, Note_off_c, 0, 77, 64
2, 170582, Note_off_c, 0, 72, 64
2, 170640, Note_on_c, 0, 72, 110
2, 170640, Note_on_c, 0, 79, 110
2, 170640, Note_on_c, 0, 84, 110
2, 170822, Note_off_c, 0, 84, 64
2, 170822, Note_off_c, 0, 79, 64
2, 170822, Note_off_c, 0, 72, 64
2, 170880, Note_on_c, 0, 77, 100
2, 171062, Note_off_c, 0, 77, 64
2, 171120, Note_on_c, 0, 76, 100
2, 171120, Note_on_c, 0, 79, 100
2, 171120, Control_c, 0, 64, 127
2, 171588, Note_off_c, 0, 79, 64
2, 171588, Note_off_c, 0, 76, 64
2, 171600, Note_on_c, 0, 74, 100
2, 171600, Note_on_c, 0, 79, 100
2, 171736, Control_c, 0, 64, 0
2, 171782, Note_off_c, 0, 79, 64
2, 171782, Note_off_c, 0, 74, 64
2, 171840, Note_on_c, 0, 76, 95
2, 171840, Note_on_c, 0, 79, 95
2, 172068, Note_off_c, 0, 79, 64
2, 172080, Note_on_c, 0, 80, 95
2, 172262, Note_off_c, 0, 80, 64
2, 172320, Note_on_c, 0, 80, 95
2, 172502, Note_off_c, 0, 80, 64
2, 172548, Note_off_c, 0, 76, 64
2, 172560, Note_on_c, 0, 77, 95
2, 172560, Control_c, 0, 64, 127
2, 172560, Note_on_c, 0, 80, 95
2, 172742, Note_off_c, 0, 80, 64
2, 172800, Note_on_c, 0, 80, 95
2, 173004, Control_c, 0, 64, 0
2, 173028, Note_off_c, 0, 77, 64
2, 173040, Note_on_c, 0, 77, 95
2, 173040, Control_c, 0, 64, 127
2, 173040, Note_on_c, 0, 82, 95
2, 173222, Note_off_c, 0, 82, 64
2, 173280, Note_on_c, 0, 82, 95
2, 173462, Note_off_c, 0, 82, 64
2, 173484, Control_c, 0, 64, 0
2, 173508, Note_off_c, 0, 80, 64
2, 173508, Note_off_c, 0, 77, 64
2, 173520, Note_on_c, 0, 75, 95
2, 173520, Control_c, 0, 64, 127
2, 173520, Note_on_c, 0, 82, 95
2, 173520, Note_on_c, 0, 79, 95
2, 173702, Note_off_c, 0, 82, 64
2, 173748, Note_off_c, 0, 79, 64
2, 173760, Note_on_c, 0, 79, 95
2, 173760, Note_on_c, 0, 82, 95
2, 173964, Control_c, 0, 64, 0
2, 173988, Note_off_c, 0, 82, 64
2, 173988, Note_off_c, 0, 79, 64
2, 173988, Note_off_c, 0, 75, 64
2, 174000, Note_on_c, 0, 84, 95
2, 174000, Note_on_c, 0, 80, 95
2, 174182, Note_off_c, 0, 80, 64
2, 174182, Note_off_c, 0, 84, 64
2, 174240, Note_on_c, 0, 85, 95
2, 174240, Note_on_c, 0, 82, 95
2, 174240, Note_on_c, 0, 77, 95
2, 174422, Note_off_c, 0, 77, 64
2, 174422, Note_off_c, 0, 82, 64
2, 174422, Note_off_c, 0, 85, 64
2, 174480, Note_on_c, 0, 82, 95
2, 174480, Note_on_c, 0, 73, 95
2, 174480, Note_on_c, 0, 79, 95
2, 174662, Note_off_c, 0, 79, 64
2, 174662, Note_off_c, 0, 73, 64
2, 174662, Note_off_c, 0, 82, 64
2, 174720, Note_on_c, 0, 72, 100
2, 174720, Control_c, 0, 64, 127
2, 174720, Note_on_c, 0, 80, 100
2, 175164, Control_c, 0, 64, 0
2, 175176, Note_off_c, 0, 80, 64
2, 175176, Note_off_c, 0, 72, 64
2, 175200, Note_on_c, 0, 68, 80
2, 175382, Note_off_c, 0, 68, 64
2, 175440, Note_on_c, 0, 68, 80
2, 175668, Note_off_c, 0, 68, 64
2, 175680, Note_on_c, 0, 67, 80
2, 175794, Note_off_c, 0, 67, 64
2, 175800, Note_on_c, 0, 65, 80
2, 175914, Note_off_c, 0, 65, 64
2, 175920, Note_on_c, 0, 63, 80
2, 176102, Note_off_c, 0, 63, 64
2, 176160, Note_on_c, 0, 68, 80
2, 176160, Note_on_c, 0, 72, 80
2, 176342, Note_off_c, 0, 72, 64
2, 176342, Note_off_c, 0, 68, 64
2, 176400, Note_on_c, 0, 72, 80
2, 176400, Note_on_c, 0, 68, 80
2, 176628, Note_off_c, 0, 68, 64
2, 176628, Note_off_c, 0, 72, 64
2, 176640, Note_on_c, 0, 70, 80
2, 176640, Note_on_c, 0, 67, 80
2, 176754, Note_off_c, 0, 67, 64
2, 176754, Note_off_c, 0, 70, 64
2, 176760, Note_on_c, 0, 68, 80
2, 176760, Note_on_c, 0, 65, 80
2, 176874, Note_off_c, 0, 65, 64
2, 176874, Note_off_c, 0, 68, 64
2, 176880, Note_on_c, 0, 67, 80
2, 176880, Note_on_c, 0, 63, 80
2, 177062, Note_off_c, 0, 63, 64
2, 177062, Note_off_c, 0, 67, 64
2, 177120, Note_on_c, 0, 72, 80
2, 177120, Note_on_c, 0, 75, 80
2, 177302, Note_off_c, 0, 75, 64
2, 177302, Note_off_c, 0, 72, 64
2, 177360, Note_on_c, 0, 75, 80
2, 177360, Note_on_c, 0, 72, 80
2, 177588, Note_off_c, 0, 72, 64
2, 177588, Note_off_c, 0, 75, 64
2, 177600, Note_on_c, 0, 70, 80
2, 177600, Note_on_c, 0, 73, 80
2, 177828, Note_off_c, 0, 73, 64
2, 177828, Note_off_c, 0, 70, 64
2, 177840, Note_on_c, 0, 72, 80
2, 177840, Note_on_c, 0, 68, 80
2, 178068, Note_off_c, 0, 68, 64
2, 178068, Note_off_c, 0, 72, 64
2, 178080, Note_on_c, 0, 67, 80
2, 178080, Note_on_c, 0, 70, 80
2, 178308, Note_off_c, 0, 70, 64
2, 178308, Note_off_c, 0, 67, 64
2, 178320, Note_on_c, 0, 68, 80
2, 178320, Note_on_c, 0, 72, 80
2, 178548, Note_off_c, 0, 72, 64
2, 178548, Note_off_c, 0, 68, 64
2, 178560, Note_on_c, 0, 70, 80
2, 178560, Note_on_c, 0, 67, 80
2, 178788, Note_off_c, 0, 67, 64
2, 178788, Note_off_c, 0, 70, 64
2, 178800, Note_on_c, 0, 72, 80
2, 178800, Note_on_c, 0, 67, 80
2, 179028, Note_off_c, 0, 67, 64
2, 179028, Note_off_c, 0, 72, 64
2, 179040, Note_on_c, 0, 65, 80
2, 179268, Note_off_c, 0, 65, 64
2, 179280, Note_on_c, 0, 65, 80
2, 179508, Note_off_c, 0, 65, 64
2, 179520, Note_on_c, 0, 64, 80
2, 179634, Note_off_c, 0, 64, 64
2, 179640, Note_on_c, 0, 62, 80
2, 179754, Note_off_c, 0, 62, 64
2, 179760, Note_on_c, 0, 60, 80
2, 179988, Note_off_c, 0, 60, 64
2, 180000, Note_on_c, 0, 68, 80
2, 180000, Note_on_c, 0, 65, 80
2, 180182, Note_off_c, 0, 65, 64
2, 180182, Note_off_c, 0, 68, 64
2, 180240, Note_on_c, 0, 68, 80
2, 180240, Note_on_c, 0, 65, 80
2, 180468, Note_off_c, 0, 65, 64
2, 180468, Note_off_c, 0, 68, 64
2, 180480, Note_on_c, 0, 67, 80
2, 180480, Note_on_c, 0, 64, 80
2, 180594, Note_off_c, 0, 64, 64
2, 180594, Note_off_c, 0, 67, 64
2, 180600, Note_on_c, 0, 62, 80
2, 180600, Note_on_c, 0, 65, 80
2, 180714, Note_off_c, 0, 65, 64
2, 180714, Note_off_c, 0, 62, 64
2, 180720, Note_on_c, 0, 60, 80
2, 180720, Note_on_c, 0, 64, 80
2, 180948, Note_off_c, 0, 64, 64
2, 180948, Note_off_c, 0, 60, 64
2, 180960, Note_on_c, 0, 68, 80
2, 180960, Note_on_c, 0, 72, 80
2, 181142, Note_off_c, 0, 72, 64
2, 181142, Note_off_c, 0, 68, 64
2, 181200, Note_on_c, 0, 72, 80
2, 181200, Note_on_c, 0, 68, 80
2, 181428, Note_off_c, 0, 68, 64
2, 181428, Note_off_c, 0, 72, 64
2, 181440, Note_on_c, 0, 70, 80
2, 181440, Note_on_c, 0, 67, 80
2, 181668, Note_off_c, 0, 67, 64
2, 181668, Note_off_c, 0, 70, 64
2, 181680, Note_on_c, 0, 68, 80
2, 181680, Note_on_c, 0, 65, 80
2, 181908, Note_off_c, 0, 65, 64
2, 181908, Note_off_c, 0, 68, 64
2, 181920, Note_on_c, 0, 67, 80
2, 181920, Note_on_c, 0, 64, 80
2, 182148, Note_off_c, 0, 64, 64
2, 182148, Note_off_c, 0, 67, 64
2, 182160, Note_on_c, 0, 68, 80
2, 182160, Note_on_c, 0, 65, 80
2, 182388, Note_off_c, 0, 65, 64
2, 182388, Note_off_c, 0, 68, 64
2, 182400, Note_on_c, 0, 67, 80
2, 182400, Control_c, 0, 64, 127
2, 182400, Note_on_c, 0, 64, 80
2, 182844, Control_c, 0, 64, 0
2, 182856, Note_off_c, 0, 64, 64
2, 182856, Note_off_c, 0, 67, 64
2, 182880, Note_on_c, 0, 72, 80
2, 182880, Note_on_c, 0, 65, 80
2, 183108, Note_off_c, 0, 72, 64
2, 183120, Note_on_c, 0, 72, 80
2, 183348, Note_off_c, 0, 72, 64
2, 183348, Note_off_c, 0, 65, 64
2, 183360, Note_on_c, 0, 74, 80
2, 183360, Control_c, 0, 64, 127
2, 183588, Note_off_c, 0, 74, 64
2, 183600, Note_on_c, 0, 79, 80
2, 183782, Note_off_c, 0, 79, 64
2, 183804, Control_c, 0, 64, 0
2, 183840, Note_on_c, 0, 77, 80
2, 184022, Note_off_c, 0, 77, 64
2, 184080, Note_on_c, 0, 76, 80
2, 184262, Note_off_c, 0, 76, 64
2, 184320, Note_on_c, 0, 77, 110
2, 184320, Note_on_c, 0, 68, 110
2, 184548, Note_off_c, 0, 68, 64
2, 184548, Note_off_c, 0, 77, 64
2, 184560, Note_on_c, 0, 73, 110
2, 184560, Note_on_c, 0, 79, 110
2, 184742, Note_off_c, 0, 79, 64
2, 184742, Note_off_c, 0, 73, 64
2, 185760, Note_on_c, 0, 72, 110
2, 185760, Note_on_c, 0, 77, 110
2, 185760, Note_on_c, 0, 80, 110
2, 185942, Note_off_c, 0, 80, 64
2, 185942, Note_off_c, 0, 77, 64
2, 185942, Note_off_c, 0, 72, 64
2, 186000, Note_on_c, 0, 72, 110
2, 186000, Note_on_c, 0, 79, 110
2, 186000, Note_on_c, 0, 84, 110
2, 186182, Note_off_c, 0, 84, 64
2, 186182, Note_off_c, 0, 79, 64
2, 186182, Note_off_c, 0, 72, 64
2, 186240, Note_on_c, 0, 72, 110
2, 186240, Note_on_c, 0, 77, 110
2, 186240, Note_on_c, 0, 68, 110
2, 186422, Note_off_c, 0, 68, 64
2, 186422, Note_off_c, 0, 77, 64
2, 186422, Note_off_c, 0, 72, 64
2, 186720, Note_on_c, 0, 77, 95
2, 186720, Control_c, 0, 64, 127
2, 186720, Note_on_c, 0, 68, 95
2, 186720, Note_on_c, 0, 72, 95
2, 187164, Control_c, 0, 64, 0
2, 187176, Note_off_c, 0, 72, 64
2, 187176, Note_off_c, 0, 68, 64
2, 187176, Note_off_c, 0, 77, 64
2, 187680, Note_on_c, 0, 79, 95
2, 187680, Control_c, 0, 64, 127
2, 187680, Note_on_c, 0, 67, 95
2, 187680, Note_on_c, 0, 72, 95
2, 188124, Control_c, 0, 64, 0
2, 188136, Note_off_c, 0, 72, 64
2, 188136, Note_off_c, 0, 67, 64
2, 188136, Note_off_c, 0, 79, 64
2, 188640, Note_on_c, 0, 80, 95
2, 188640, Control_c, 0, 64, 127
2, 188640, Note_on_c, 0, 68, 95
2, 188640, Note_on_c, 0, 77, 95
2, 188640, Note_on_c, 0, 72, 95
2, 189084, Control_c, 0, 64, 0
2, 189096, Note_off_c, 0, 72, 64
2, 189096, Note_off_c, 0, 77, 64
2, 189096, Note_off_c, 0, 68, 64
2, 189096, Note_off_c, 0, 80, 64
2, 189600, Note_on_c, 0, 85, 95
2, 189600, Control_c, 0, 64, 127
2, 189600, Note_on_c, 0, 73, 95
2, 189600, Note_on_c, 0, 82, 95
2, 189600, Note_on_c, 0, 77, 95
2, 190044, Control_c, 0, 64, 0
2, 190056, Note_off_c, 0, 77, 64
2, 190056, Note_off_c, 0, 82, 64
2, 190056, Note_off_c, 0, 73, 64
2, 190056, Note_off_c, 0, 85, 64
2, 190560, Note_on_c, 0, 80, 88
2, 190560, Control_c, 0, 64, 127
2, 190560, Note_on_c, 0, 84, 88
2, 190560, Note_on_c, 0, 72, 88
2, 190560, Note_on_c, 0, 77, 88
2, 191004, Control_c, 0, 64, 0
2, 191016, Note_off_c, 0, 77, 64
2, 191016, Note_off_c, 0, 72, 64
2, 191016, Note_off_c, 0, 84, 64
2, 191016, Note_off_c, 0, 80, 64
2, 191520, Note_on_c, 0, 84, 80
2, 191520, Control_c, 0, 64, 127
2, 191520, Note_on_c, 0, 76, 80
2, 191520, Note_on_c, 0, 72, 80
2, 191520, Note_on_c, 0, 79, 80
2, 191964, Control_c, 0, 64, 0
2, 191976, Note_off_c, 0, 79, 64
2, 191976, Note_off_c, 0, 72, 64
2, 191976, Note_off_c, 0, 76, 64
2, 191976, Note_off_c, 0, 84, 64
2, 192000, Note_on_c, 0, 84, 80
2, 192000, Note_on_c, 0, 72, 80
2, 192000, Note_on_c, 0, 77, 80
2, 192000, Note_on_c, 0, 81, 80
2, 192000, Control_c, 0, 64, 127
2, 193920, Control_c, 0, 10, 64
2, 193920, Control_c, 0, 91, 0
2, 193920, Control_c, 0, 93, 0
2, 194208, Control_c, 0, 64, 0
2, 194262, Note_off_c, 0, 81, 64
2, 194262, Note_off_c, 0, 77, 64
2, 194262, Note_off_c, 0, 72, 64
2, 194262, Note_off_c, 0, 84, 64
2, 194400, Control_c, 0, 93, 24
2, 194400, Control_c, 0, 91, 4
2, 194400, Control_c, 0, 10, 72
2, 194400, Note_on_c, 0, 73, 80
2, 194400, Note_on_c, 0, 78, 80
2, 194404, Control_c, 0, 64, 127
2, 194606, Note_off_c, 0, 78, 64
2, 194606, Note_off_c, 0, 73, 64
2, 194610, Note_on_c, 0, 73, 80
2, 194610, Note_on_c, 0, 77, 80
2, 194639, Note_off_c, 0, 77, 64
2, 194639, Note_off_c, 0, 73, 64
2, 194640, Note_on_c, 0, 78, 80
2, 194640, Note_on_c, 0, 75, 80
2, 194758, Note_off_c, 0, 75, 64
2, 194758, Note_off_c, 0, 78, 64
2, 194760, Note_on_c, 0, 66, 80
2, 194760, Note_on_c, 0, 60, 80
2, 194760, Note_on_c, 0, 69, 80
2, 194760, Note_on_c, 0, 63, 80
2, 194780, Control_c, 0, 64, 0
2, 194828, Control_c, 0, 64, 127
2, 194878, Note_off_c, 0, 63, 64
2, 194878, Note_off_c, 0, 69, 64
2, 194878, Note_off_c, 0, 60, 64
2, 194878, Note_off_c, 0, 66, 64
2, 194880, Note_on_c, 0, 58, 80
2, 194880, Note_on_c, 0, 65, 80
2, 194880, Note_on_c, 0, 70, 80
2, 194976, Note_off_c, 0, 70, 64
2, 194976, Note_off_c, 0, 65, 64
2, 194976, Note_off_c, 0, 58, 64
2, 194984, Control_c, 0, 64, 0
2, 195000, Control_c, 0, 64, 127
2, 195000, Note_on_c, 0, 74, 80
2, 195000, Note_on_c, 0, 77, 80
2, 195118, Note_off_c, 0, 77, 64
2, 195118, Note_off_c, 0, 74, 64
2, 195120, Note_on_c, 0, 75, 80
2, 195120, Note_on_c, 0, 80, 80
2, 195184, Control_c, 0, 64, 0
2, 195238, Note_off_c, 0, 80, 64
2, 195240, Note_on_c, 0, 78, 80
2, 195358, Note_off_c, 0, 78, 64
2, 195358, Note_off_c, 0, 75, 64
2, 195360, Control_c, 0, 64, 127
2, 195360, Note_on_c, 0, 75, 80
2, 195360, Note_on_c, 0, 78, 80
2, 195595, Note_off_c, 0, 78, 64
2, 195595, Note_off_c, 0, 75, 64
2, 195600, Note_on_c, 0, 71, 80
2, 195600, Note_on_c, 0, 80, 80
2, 195676, Control_c, 0, 64, 0
2, 195720, Control_c, 0, 64, 127
2, 195835, Note_off_c, 0, 80, 64
2, 195835, Note_off_c, 0, 71, 64
2, 195840, Note_on_c, 0, 61, 80
2, 195840, Note_on_c, 0, 59, 80
2, 195960, Control_c, 0, 64, 0
2, 195984, Control_c, 0, 64, 127
2, 196080, Note_off_c, 0, 59, 64
2, 196080, Note_off_c, 0, 61, 64
2, 196080, Note_on_c, 0, 64, 80
2, 196080, Note_on_c, 0, 58, 80
2, 196080, Note_on_c, 0, 61, 80
2, 196200, Control_c, 0, 64, 0
2, 196208, Control_c, 0, 64, 127
2, 196272, Note_off_c, 0, 61, 64
2, 196272, Note_off_c, 0, 58, 64
2, 196272, Note_off_c, 0, 64, 64
2, 196320, Note_on_c, 0, 63, 80
2, 196320, Note_on_c, 0, 61, 80
2, 196320, Note_on_c, 0, 58, 80
2, 196360, Control_c, 0, 64, 0
2, 196384, Control_c, 0, 64, 127
2, 196438, Note_off_c, 0, 58, 64
2, 196438, Note_off_c, 0, 61, 64
2, 196440, Note_on_c, 0, 59, 80
2, 196536, Note_off_c, 0, 59, 64
2, 196552, Control_c, 0, 64, 0
2, 196558, Note_off_c, 0, 63, 64
2, 196560, Control_c, 0, 64, 127
2, 196560, Note_on_c, 0, 56, 80
2, 196560, Note_on_c, 0, 58, 80
2, 196560, Note_on_c, 0, 64, 80
2, 196680, Note_off_c, 0, 64, 64
2, 196680, Note_on_c, 0, 76, 80
2, 196724, Control_c, 0, 64, 0
2, 196752, Note_off_c, 0, 76, 64
2, 196798, Note_off_c, 0, 58, 64
2, 196798, Note_off_c, 0, 56, 64
2, 196920, Note_on_c, 0, 58, 80
2, 196920, Note_on_c, 0, 56, 80
2, 196992, Note_off_c, 0, 56, 64
2, 196992, Note_off_c, 0, 58, 64
2, 197160, Note_on_c, 0, 55, 80
2, 197160, Note_on_c, 0, 58, 80
2, 197160, Note_on_c, 0, 63, 80
2, 197232, Note_off_c, 0, 63, 64
2, 197232, Note_off_c, 0, 58, 64
2, 197232, Note_off_c, 0, 55, 64
2, 197280, Control_c, 0, 64, 127
2, 197520, Note_on_c, 0, 55, 80
2, 197559, Note_off_c, 0, 55, 64
2, 197560, Note_on_c, 0, 58, 80
2, 197599, Note_off_c, 0, 58, 64
2, 197600, Note_on_c, 0, 61, 80
2, 197639, Note_off_c, 0, 61, 64
2, 197640, Note_on_c, 0, 63, 80
2, 197679, Note_off_c, 0, 63, 64
2, 197680, Note_on_c, 0, 67, 80
2, 197719, Note_off_c, 0, 67, 64
2, 197720, Note_on_c, 0, 70, 80
2, 197759, Note_off_c, 0, 70, 64
2, 197760, Note_on_c, 0, 73, 80
2, 198176, Note_off_c, 0, 73, 64
2, 198180, Note_on_c, 0, 70, 80
2, 198239, Note_off_c, 0, 70, 64
2, 198240, Note_on_c, 0, 68, 80
2, 198320, Control_c, 0, 64, 0
2, 198358, Note_off_c, 0, 68, 64
2, 198360, Note_on_c, 0, 67, 80
2, 198538, Note_off_c, 0, 67, 64
2, 198540, Note_on_c, 0, 70, 80
2, 198569, Note_off_c, 0, 70, 64
2, 198570, Note_on_c, 0, 73, 80
2, 198599, Note_off_c, 0, 73, 64
2, 198600, Note_on_c, 0, 76, 80
2, 198629, Note_off_c, 0, 76, 64
2, 198630, Note_on_c, 0, 75, 80
2, 198689, Note_off_c, 0, 75, 64
2, 198690, Note_on_c, 0, 70, 80
2, 198719, Note_off_c, 0, 70, 64
2, 198720, Note_on_c, 0, 73, 80
2, 198779, Note_off_c, 0, 73, 64
2, 198780, Note_on_c, 0, 71, 80
2, 198828, Note_off_c, 0, 71, 64
2, 198836, Control_c, 0, 64, 127
2, 198840, Note_on_c, 0, 56, 80
2, 198840, Note_on_c, 0, 59, 80
2, 198936, Note_off_c, 0, 59, 64
2, 198936, Note_off_c, 0, 56, 64
2, 198960, Note_on_c, 0, 52, 80
2, 198960, Note_on_c, 0, 57, 80
2, 198964, Control_c, 0, 64, 0
2, 198980, Control_c, 0, 64, 127
2, 199056, Note_off_c, 0, 57, 64
2, 199056, Note_off_c, 0, 52, 64
2, 199076, Control_c, 0, 64, 0
2, 199080, Note_on_c, 0, 51, 80
2, 199080, Note_on_c, 0, 58, 80
2, 199080, Note_on_c, 0, 54, 80
2, 199092, Control_c, 0, 64, 127
2, 199176, Note_off_c, 0, 54, 64
2, 199176, Note_off_c, 0, 58, 64
2, 199176, Note_off_c, 0, 51, 64
2, 199200, Note_on_c, 0, 81, 80
2, 199376, Note_off_c, 0, 81, 64
2, 199380, Note_on_c, 0, 81, 80
2, 199439, Note_off_c, 0, 81, 64
2, 199440, Note_on_c, 0, 81, 80
2, 199470, Note_off_c, 0, 81, 64
2, 199500, Note_on_c, 0, 81, 80
2, 199559, Note_off_c, 0, 81, 64
2, 199560, Note_on_c, 0, 81, 80
2, 199590, Note_off_c, 0, 81, 64
2, 199620, Note_on_c, 0, 81, 80
2, 199660, Control_c, 0, 64, 0
2, 199679, Note_off_c, 0, 81, 64
2, 199680, Control_c, 0, 64, 127
2, 199680, Note_on_c, 0, 81, 80
2, 199768, Note_off_c, 0, 81, 64
2, 199770, Note_on_c, 0, 81, 80
2, 199799, Note_off_c, 0, 81, 64
2, 199800, Note_on_c, 0, 81, 80
2, 199815, Note_off_c, 0, 81, 64
2, 199830, Note_on_c, 0, 81, 80
2, 199859, Note_off_c, 0, 81, 64
2, 199860, Note_on_c, 0, 81, 80
2, 199875, Note_off_c, 0, 81, 64
2, 199890, Note_on_c, 0, 81, 80
2, 199919, Note_off_c, 0, 81, 64
2, 199920, Note_on_c, 0, 81, 80
2, 199935, Note_off_c, 0, 81, 64
2, 199950, Note_on_c, 0, 81, 80
2, 199979, Note_off_c, 0, 81, 64
2, 199980, Note_on_c, 0, 81, 80
2, 199995, Note_off_c, 0, 81, 64
2, 200010, Note_on_c, 0, 81, 80
2, 200039, Note_off_c, 0, 81, 64
2, 200040, Note_on_c, 0, 81, 80
2, 200055, Note_off_c, 0, 81, 64
2, 200070, Note_on_c, 0, 81, 80
2, 200099, Note_off_c, 0, 81, 64
2, 200100, Note_on_c, 0, 81, 80
2, 200115, Note_off_c, 0, 81, 64
2, 200130, Note_on_c, 0, 81, 80
2, 200159, Note_off_c, 0, 81, 64
2, 200160, Note_on_c, 0, 81, 80
2, 200175, Note_off_c, 0, 81, 64
2, 200190, Note_on_c, 0, 81, 80
2, 200219, Note_off_c, 0, 81, 64
2, 200220, Note_on_c, 0, 81, 80
2, 200235, Note_off_c, 0, 81, 64
2, 200244, Control_c, 0, 64, 0
2, 200250, Note_on_c, 0, 81, 80
2, 200272, Control_c, 0, 64, 127
2, 200279, Note_off_c, 0, 81, 64
2, 200280, Note_on_c, 0, 81, 80
2, 200295, Note_off_c, 0, 81, 64
2, 200310, Note_on_c, 0, 81, 80
2, 200339, Note_off_c, 0, 81, 64
2, 200340, Note_on_c, 0, 81, 80
2, 200355, Note_off_c, 0, 81, 64
2, 200370, Note_on_c, 0, 81, 80
2, 200399, Note_off_c, 0, 81, 64
2, 200400, Note_on_c, 0, 81, 80
2, 200460, Note_off_c, 0, 81, 64
2, 200520, Note_on_c, 0, 78, 80
2, 200638, Note_off_c, 0, 78, 64
2, 200640, Note_on_c, 0, 75, 80
2, 200758, Note_off_c, 0, 75, 64
2, 200760, Note_on_c, 0, 69, 80
2, 200878, Note_off_c, 0, 69, 64
2, 200880, Note_on_c, 0, 73, 80
2, 200884, Control_c, 0, 64, 0
2, 200958, Note_off_c, 0, 73, 64
2, 200960, Note_on_c, 0, 71, 80
2, 201024, Note_off_c, 0, 71, 64
2, 201040, Note_on_c, 0, 69, 80
2, 201104, Note_off_c, 0, 69, 64
2, 201120, Note_on_c, 0, 68, 80
2, 201216, Note_off_c, 0, 68, 64
2, 201240, Note_on_c, 0, 76, 80
2, 201475, Note_off_c, 0, 76, 64
2, 201480, Note_on_c, 0, 67, 80
2, 201598, Note_off_c, 0, 67, 64
2, 201600, Note_on_c, 0, 71, 80
2, 201835, Note_off_c, 0, 71, 64
2, 201840, Note_on_c, 0, 70, 80
2, 201936, Note_off_c, 0, 70, 64
2, 201960, Note_on_c, 0, 68, 80
2, 202056, Note_off_c, 0, 68, 64
2, 202080, Note_on_c, 0, 67, 80
2, 202256, Note_off_c, 0, 67, 64
2, 202260, Note_on_c, 0, 68, 80
2, 202319, Note_off_c, 0, 68, 64
2, 202320, Note_on_c, 0, 68, 80
2, 202438, Note_off_c, 0, 68, 64
2, 202440, Note_on_c, 0, 63, 80
2, 202558, Note_off_c, 0, 63, 64
2, 202560, Note_on_c, 0, 63, 70
2, 202619, Note_off_c, 0, 63, 64
2, 202620, Note_on_c, 0, 63, 70
2, 202679, Note_off_c, 0, 63, 64
2, 202680, Note_on_c, 0, 63, 70
2, 202739, Note_off_c, 0, 63, 64
2, 202740, Note_on_c, 0, 63, 70
2, 202799, Note_off_c, 0, 63, 64
2, 202800, Note_on_c, 0, 63, 70
2, 202859, Note_off_c, 0, 63, 64
2, 202860, Note_on_c, 0, 63, 70
2, 202919, Note_off_c, 0, 63, 64
2, 202920, Note_on_c, 0, 59, 70
2, 202920, Note_on_c, 0, 63, 70
2, 202979, Note_off_c, 0, 63, 64
2, 202979, Note_off_c, 0, 59, 64
2, 202980, Note_on_c, 0, 59, 70
2, 202980, Note_on_c, 0, 63, 70
2, 203039, Note_off_c, 0, 63, 64
2, 203039, Note_off_c, 0, 59, 64
2, 203040, Note_on_c, 0, 59, 70
2, 203040, Note_on_c, 0, 63, 70
2, 203099, Note_off_c, 0, 63, 64
2, 203099, Note_off_c, 0, 59, 64
2, 203100, Note_on_c, 0, 59, 70
2, 203100, Note_on_c, 0, 63, 70
2, 203159, Note_off_c, 0, 63, 64
2, 203159, Note_off_c, 0, 59, 64
2, 203160, Note_on_c, 0, 63, 70
2, 203160, Note_on_c, 0, 59, 70
2, 203219, Note_off_c, 0, 59, 64
2, 203219, Note_off_c, 0, 63, 64
2, 203220, Note_on_c, 0, 59, 70
2, 203220, Note_on_c, 0, 63, 70
2, 203279, Note_off_c, 0, 63, 64
2, 203279, Note_off_c, 0, 59, 64
2, 203280, Note_on_c, 0, 63, 70
2, 203280, Note_on_c, 0, 56, 70
2, 203280, Note_on_c, 0, 59, 70
2, 203339, Note_off_c, 0, 59, 64
2, 203339, Note_off_c, 0, 56, 64
2, 203339, Note_off_c, 0, 63, 64
2, 203340, Note_on_c, 0, 63, 70
2, 203340, Note_on_c, 0, 59, 70
2, 203340, Note_on_c, 0, 56, 70
2, 203399, Note_off_c, 0, 56, 64
2, 203399, Note_off_c, 0, 59, 64
2, 203399, Note_off_c, 0, 63, 64
2, 203400, Note_on_c, 0, 56, 70
2, 203400, Note_on_c, 0, 63, 70
2, 203400, Note_on_c, 0, 59, 70
2, 203459, Note_off_c, 0, 59, 64
2, 203459, Note_off_c, 0, 63, 64
2, 203459, Note_off_c, 0, 56, 64
2, 203460, Note_on_c, 0, 63, 70
2, 203460, Note_on_c, 0, 56, 70
2, 203460, Note_on_c, 0, 59, 70
2, 203519, Note_off_c, 0, 59, 64
2, 203519, Note_off_c, 0, 56, 64
2, 203519, Note_off_c, 0, 63, 64
2, 203520, Note_on_c, 0, 59, 70
2, 203520, Note_on_c, 0, 56, 70
2, 203520, Note_on_c, 0, 63, 70
2, 203579, Note_off_c, 0, 63, 64
2, 203579, Note_off_c, 0, 56, 64
2, 203579, Note_off_c, 0, 59, 64
2, 203580, Note_on_c, 0, 56, 70
2, 203580, Note_on_c, 0, 63, 70
2, 203580, Note_on_c, 0, 59, 70
2, 203639, Note_off_c, 0, 59, 64
2, 203639, Note_off_c, 0, 63, 64
2, 203639, Note_off_c, 0, 56, 64
2, 203640, Channel_aftertouch_c, 0, 32
2, 203640, Note_on_c, 0, 75, 80
2, 203938, Note_off_c, 0, 75, 88
2, 203940, Note_on_c, 0, 73, 80
2, 204118, Note_off_c, 0, 73, 88
2, 204120, Note_on_c, 0, 71, 80
2, 204179, Note_off_c, 0, 71, 88
2, 204180, Note_on_c, 0, 70, 80
2, 204239, Note_off_c, 0, 70, 88
2, 204240, Note_on_c, 0, 71, 80
2, 204299, Note_off_c, 0, 71, 88
2, 204300, Note_on_c, 0, 68, 80
2, 204359, Note_off_c, 0, 68, 88
2, 204360, Note_on_c, 0, 68, 80
2, 204536, Note_off_c, 0, 68, 88
2, 204540, Note_on_c, 0, 67, 80
2, 204838, Note_off_c, 0, 67, 88
2, 204840, Note_on_c, 0, 76, 80
2, 205018, Note_off_c, 0, 76, 88
2, 205020, Note_on_c, 0, 75, 80
2, 205068, Note_off_c, 0, 75, 88
2, 205080, Note_on_c, 0, 75, 80
2, 205198, Note_off_c, 0, 75, 88
2, 205200, Note_on_c, 0, 80, 80
2, 205378, Note_off_c, 0, 80, 88
2, 205380, Note_on_c, 0, 78, 80
2, 205558, Note_off_c, 0, 78, 88
2, 205560, Note_on_c, 0, 76, 80
2, 205619, Note_off_c, 0, 76, 88
2, 205620, Note_on_c, 0, 75, 80
2, 205738, Note_off_c, 0, 75, 88
2, 205740, Note_on_c, 0, 73, 80
2, 205799, Note_off_c, 0, 73, 88
2, 205800, Note_on_c, 0, 71, 80
2, 206039, Note_off_c, 0, 71, 88
2, 206040, Note_on_c, 0, 73, 80
2, 206099, Note_off_c, 0, 73, 88
2, 206100, Note_on_c, 0, 75, 80
2, 206129, Note_off_c, 0, 75, 88
2, 206130, Note_on_c, 0, 73, 80
2, 206145, Note_off_c, 0, 73, 88
2, 206145, Note_on_c, 0, 71, 80
2, 206160, Note_off_c, 0, 71, 88
2, 206160, Note_on_c, 0, 70, 80
2, 206399, Note_off_c, 0, 70, 88
2, 206400, Note_on_c, 0, 71, 80
2, 206459, Note_off_c, 0, 71, 88
2, 206460, Note_on_c, 0, 73, 80
2, 206519, Note_off_c, 0, 73, 88
2, 206520, Note_on_c, 0, 71, 80
2, 206873, Note_off_c, 0, 71, 88
2, 206880, Note_on_c, 0, 73, 80
2, 207233, Note_off_c, 0, 73, 88
2, 207240, Note_on_c, 0, 75, 80
2, 207593, Note_off_c, 0, 75, 88
2, 207600, Note_on_c, 0, 76, 80
2, 207776, Note_off_c, 0, 76, 88
2, 207780, Note_on_c, 0, 80, 80
2, 207956, Note_off_c, 0, 80, 88
2, 207960, Note_on_c, 0, 78, 80
2, 208078, Note_off_c, 0, 78, 88
2, 208080, Note_on_c, 0, 83, 80
2, 208139, Note_off_c, 0, 83, 88
2, 208140, Note_on_c, 0, 80, 80
2, 208258, Note_off_c, 0, 80, 88
2, 208260, Note_on_c, 0, 92, 80
2, 208438, Note_off_c, 0, 92, 88
2, 208440, Note_on_c, 0, 90, 80
2, 208559, Note_off_c, 0, 90, 88
2, 208560, Note_on_c, 0, 87, 80
2, 208619, Note_off_c, 0, 87, 88
2, 208620, Note_on_c, 0, 88, 80
2, 208649, Note_off_c, 0, 88, 88
2, 208650, Note_on_c, 0, 82, 80
2, 208679, Note_off_c, 0, 82, 88
2, 208680, Note_on_c, 0, 85, 80
2, 209033, Note_off_c, 0, 85, 88
2, 209040, Note_on_c, 0, 83, 80
2, 209216, Note_off_c, 0, 83, 88
2, 209220, Note_on_c, 0, 75, 80
2, 209576, Note_off_c, 0, 75, 88
2, 209580, Note_on_c, 0, 69, 80
2, 209756, Note_off_c, 0, 69, 88
2, 209760, Note_on_c, 0, 68, 80
2, 209936, Note_off_c, 0, 68, 88
2, 209940, Note_on_c, 0, 78, 80
2, 210058, Note_off_c, 0, 78, 88
2, 210060, Note_on_c, 0, 75, 80
2, 210119, Note_off_c, 0, 75, 88
2, 210120, Note_on_c, 0, 78, 80
2, 210296, Note_off_c, 0, 78, 88
2, 210300, Note_on_c, 0, 76, 80
2, 210360, Note_on_c, 0, 68, 61
2, 210419, Note_off_c, 0, 68, 64
2, 210420, Note_on_c, 0, 68, 59
2, 210479, Note_off_c, 0, 68, 64
2, 210480, Note_on_c, 0, 68, 61
2, 210539, Note_off_c, 0, 68, 64
2, 210540, Note_on_c, 0, 68, 59
2, 210599, Note_off_c, 0, 68, 64
2, 210600, Note_on_c, 0, 68, 61
2, 210659, Note_off_c, 0, 68, 64
2, 210660, Note_on_c, 0, 75, 68
2, 210660, Note_on_c, 0, 68, 59
2, 210719, Note_off_c, 0, 68, 64
2, 210720, Note_on_c, 0, 68, 60
2, 210779, Note_off_c, 0, 68, 64
2, 210780, Note_on_c, 0, 68, 59
2, 210833, Note_off_c, 0, 76, 88
2, 210839, Note_off_c, 0, 68, 64
2, 210840, Note_on_c, 0, 68, 60
2, 210899, Note_off_c, 0, 68, 64
2, 210900, Note_on_c, 0, 68, 61
2, 210958, Note_off_c, 0, 75, 88
2, 210959, Note_off_c, 0, 68, 64
2, 210960, Note_on_c, 0, 73, 80
2, 210960, Note_on_c, 0, 68, 59
2, 211019, Note_off_c, 0, 68, 64
2, 211020, Note_on_c, 0, 68, 58
2, 211079, Note_off_c, 0, 68, 64
2, 211080, Note_on_c, 0, 68, 60
2, 211138, Note_off_c, 0, 73, 88
2, 211139, Note_off_c, 0, 68, 64
2, 211140, Note_on_c, 0, 71, 80
2, 211140, Note_on_c, 0, 68, 61
2, 211199, Note_off_c, 0, 68, 64
2, 211318, Note_off_c, 0, 71, 88
2, 211320, Note_on_c, 0, 70, 80
2, 211439, Note_off_c, 0, 70, 88
2, 211440, Note_on_c, 0, 71, 80
2, 211488, Note_off_c, 0, 71, 88
2, 211500, Note_on_c, 0, 68, 80
2, 211548, Note_off_c, 0, 68, 88
2, 211560, Note_on_c, 0, 68, 80
2, 211913, Note_off_c, 0, 68, 88
2, 211920, Note_on_c, 0, 67, 80
2, 212096, Note_off_c, 0, 67, 88
2, 212100, Note_on_c, 0, 63, 70
2, 212276, Note_off_c, 0, 63, 88
2, 212280, Note_on_c, 0, 68, 80
2, 212340, Note_on_c, 0, 62, 62
2, 212399, Note_off_c, 0, 62, 64
2, 212400, Note_on_c, 0, 62, 65
2, 212459, Note_off_c, 0, 62, 64
2, 212460, Note_on_c, 0, 62, 67
2, 212519, Note_off_c, 0, 62, 64
2, 212520, Note_on_c, 0, 63, 62
2, 212568, Note_off_c, 0, 63, 64
2, 212580, Note_on_c, 0, 63, 64
2, 212628, Note_off_c, 0, 63, 64
2, 212633, Note_off_c, 0, 68, 88
2, 212640, Note_on_c, 0, 67, 80
2, 212640, Note_on_c, 0, 64, 62
2, 212816, Note_off_c, 0, 64, 64
2, 212820, Note_on_c, 0, 63, 61
2, 212993, Note_off_c, 0, 67, 88
2, 213000, Note_on_c, 0, 71, 80
2, 213059, Note_off_c, 0, 63, 64
2, 213060, Note_on_c, 0, 62, 65
2, 213108, Note_off_c, 0, 62, 64
2, 213120, Note_on_c, 0, 62, 66
2, 213168, Note_off_c, 0, 62, 64
2, 213180, Note_on_c, 0, 62, 67
2, 213239, Note_off_c, 0, 62, 64
2, 213240, Note_on_c, 0, 63, 61
2, 213288, Note_off_c, 0, 63, 64
2, 213300, Note_on_c, 0, 63, 60
2, 213348, Note_off_c, 0, 63, 64
2, 213353, Note_off_c, 0, 71, 88
2, 213360, Note_on_c, 0, 70, 80
2, 213360, Note_on_c, 0, 64, 61
2, 213478, Note_off_c, 0, 64, 64
2, 213480, Note_on_c, 0, 63, 59
2, 213528, Note_off_c, 0, 63, 64
2, 213536, Note_off_c, 0, 70, 88
2, 213540, Note_on_c, 0, 72, 80
2, 213540, Note_on_c, 0, 68, 59
2, 213658, Note_off_c, 0, 68, 64
2, 213660, Note_on_c, 0, 63, 67
2, 213708, Note_off_c, 0, 63, 64
2, 213716, Note_off_c, 0, 72, 88
2, 213720, Note_on_c, 0, 68, 61
2, 213720, Note_on_c, 0, 73, 80
2, 213779, Note_off_c, 0, 68, 64
2, 213780, Note_on_c, 0, 68, 60
2, 213839, Note_off_c, 0, 68, 64
2, 213840, Note_on_c, 0, 68, 55
2, 213899, Note_off_c, 0, 68, 64
2, 213900, Note_on_c, 0, 68, 60
2, 213959, Note_off_c, 0, 68, 64
2, 213959, Note_off_c, 0, 73, 88
2, 213960, Note_on_c, 0, 68, 62
2, 213960, Note_on_c, 0, 75, 80
2, 214008, Note_off_c, 0, 75, 88
2, 214008, Note_off_c, 0, 68, 64
2, 214020, Note_on_c, 0, 76, 80
2, 214020, Note_on_c, 0, 68, 60
2, 214068, Note_off_c, 0, 68, 64
2, 214068, Note_off_c, 0, 76, 88
2, 214080, Note_on_c, 0, 76, 80
2, 214198, Note_off_c, 0, 76, 88
2, 214200, Note_on_c, 0, 75, 80
2, 214378, Note_off_c, 0, 75, 88
2, 214380, Note_on_c, 0, 67, 80
2, 214439, Note_off_c, 0, 67, 88
2, 214440, Note_on_c, 0, 70, 80
2, 214620, Note_on_c, 0, 63, 69
2, 214679, Note_off_c, 0, 63, 64
2, 214680, Note_on_c, 0, 63, 69
2, 214739, Note_off_c, 0, 63, 64
2, 214740, Note_on_c, 0, 63, 70
2, 214793, Note_off_c, 0, 70, 88
2, 214799, Note_off_c, 0, 63, 64
2, 214800, Note_on_c, 0, 63, 70
2, 214800, Note_on_c, 0, 68, 80
2, 214976, Note_off_c, 0, 68, 88
2, 214976, Note_off_c, 0, 63, 64
2, 214980, Channel_aftertouch_c, 0, 0
2, 214980, Note_on_c, 0, 59, 80
2, 215156, Note_off_c, 0, 59, 64
2, 215160, Note_on_c, 0, 58, 80
2, 215336, Note_off_c, 0, 58, 64
2, 215340, Note_on_c, 0, 54, 80
2, 215340, Note_on_c, 0, 66, 80
2, 215516, Note_off_c, 0, 66, 64
2, 215516, Note_off_c, 0, 54, 64
2, 215520, Note_on_c, 0, 56, 80
2, 215638, Note_off_c, 0, 56, 64
2, 215700, Control_c, 0, 64, 127
2, 215700, Note_on_c, 0, 56, 80
2, 215759, Note_off_c, 0, 56, 64
2, 215880, Note_on_c, 0, 56, 80
2, 216192, Control_c, 0, 93, 0
2, 216192, Control_c, 0, 91, 0
2, 216192, Control_c, 0, 10, 64
2, 216192, Control_c, 0, 64, 0
2, 216233, Note_off_c, 0, 56, 64
2, 216600, Control_c, 0, 93, 24
2, 216600, Control_c, 0, 91, 4
2, 216600, Control_c, 0, 10, 72
2, 219480, Note_on_c, 0, 63, 80
2, 219822, Note_off_c, 0, 63, 64
2, 219840, Note_on_c, 0, 68, 80
2, 220182, Note_off_c, 0, 68, 64
2, 220200, Note_on_c, 0, 65, 80
2, 220542, Note_off_c, 0, 65, 64
2, 220560, Note_on_c, 0, 70, 80
2, 220902, Note_off_c, 0, 70, 64
2, 220920, Note_on_c, 0, 67, 80
2, 221262, Note_off_c, 0, 67, 64
2, 221280, Note_on_c, 0, 72, 80
2, 221622, Note_off_c, 0, 72, 64
2, 221640, Note_on_c, 0, 70, 80
2, 221868, Note_off_c, 0, 70, 64
2, 221880, Note_on_c, 0, 68, 80
2, 221994, Note_off_c, 0, 68, 64
2, 222000, Note_on_c, 0, 67, 80
2, 222342, Note_off_c, 0, 67, 64
2, 222360, Note_on_c, 0, 70, 100
2, 223062, Note_off_c, 0, 70, 64
2, 223080, Note_on_c, 0, 68, 80
2, 223308, Note_off_c, 0, 68, 64
2, 223320, Note_on_c, 0, 66, 80
2, 223434, Note_off_c, 0, 66, 64
2, 223440, Note_on_c, 0, 65, 80
2, 223800, Note_on_c, 0, 68, 80
2, 223914, Note_off_c, 0, 65, 64
2, 223920, Note_on_c, 0, 62, 80
2, 224034, Note_off_c, 0, 62, 64
2, 224040, Note_on_c, 0, 63, 80
2, 224142, Note_off_c, 0, 68, 64
2, 224154, Note_off_c, 0, 63, 64
2, 224160, Note_on_c, 0, 73, 80
2, 224160, Note_on_c, 0, 65, 80
2, 224274, Note_off_c, 0, 65, 64
2, 224280, Note_on_c, 0, 70, 80
2, 224394, Note_off_c, 0, 70, 64
2, 224400, Note_on_c, 0, 68, 80
2, 224502, Note_off_c, 0, 73, 64
2, 224520, Note_on_c, 0, 70, 80
2, 224634, Note_off_c, 0, 68, 64
2, 224640, Note_on_c, 0, 65, 80
2, 224754, Note_off_c, 0, 65, 64
2, 224760, Note_on_c, 0, 67, 80
2, 224862, Note_off_c, 0, 70, 64
2, 224880, Note_on_c, 0, 75, 80
2, 224994, Note_off_c, 0, 67, 64
2, 225000, Note_on_c, 0, 72, 80
2, 225114, Note_off_c, 0, 72, 64
2, 225120, Note_on_c, 0, 70, 80
2, 225222, Note_off_c, 0, 75, 64
2, 225240, Note_on_c, 0, 72, 80
2, 225354, Note_off_c, 0, 70, 64
2, 225360, Note_on_c, 0, 67, 80
2, 225474, Note_off_c, 0, 67, 64
2, 225480, Note_on_c, 0, 69, 80
2, 225582, Note_off_c, 0, 72, 64
2, 225600, Note_on_c, 0, 77, 80
2, 225714, Note_off_c, 0, 69, 64
2, 225720, Note_on_c, 0, 70, 80
2, 225834, Note_off_c, 0, 70, 64
2, 225840, Note_on_c, 0, 68, 80
2, 225942, Note_off_c, 0, 77, 64
2, 225954, Note_off_c, 0, 68, 64
2, 225960, Note_on_c, 0, 67, 80
2, 225960, Note_on_c, 0, 75, 80
2, 226074, Note_off_c, 0, 67, 64
2, 226080, Note_on_c, 0, 68, 80
2, 226188, Note_off_c, 0, 75, 64
2, 226194, Note_off_c, 0, 68, 64
2, 226200, Note_on_c, 0, 73, 80
2, 226200, Note_on_c, 0, 70, 80
2, 226314, Note_off_c, 0, 70, 64
2, 226314, Note_off_c, 0, 73, 64
2, 226320, Note_on_c, 0, 72, 80
2, 226320, Note_on_c, 0, 63, 80
2, 226662, Note_off_c, 0, 63, 64
2, 226662, Note_off_c, 0, 72, 64
2, 226680, Note_on_c, 0, 75, 90
2, 226680, Note_on_c, 0, 72, 80
2, 226794, Note_off_c, 0, 72, 64
2, 226800, Note_on_c, 0, 73, 80
2, 226914, Note_off_c, 0, 73, 64
2, 226920, Note_on_c, 0, 70, 80
2, 227034, Note_off_c, 0, 70, 64
2, 227040, Note_on_c, 0, 68, 80
2, 227154, Note_off_c, 0, 68, 64
2, 227160, Note_on_c, 0, 72, 80
2, 227274, Note_off_c, 0, 72, 64
2, 227280, Note_on_c, 0, 70, 80
2, 227382, Note_off_c, 0, 75, 64
2, 227394, Note_off_c, 0, 70, 64
2, 227400, Note_on_c, 0, 73, 80
2, 227400, Note_on_c, 0, 68, 80
2, 227514, Note_off_c, 0, 68, 64
2, 227520, Note_on_c, 0, 67, 80
2, 227628, Note_off_c, 0, 73, 64
2, 227634, Note_off_c, 0, 67, 64
2, 227640, Note_on_c, 0, 72, 80
2, 227640, Note_on_c, 0, 68, 80
2, 227754, Note_off_c, 0, 68, 64
2, 227754, Note_off_c, 0, 72, 64
2, 227760, Note_on_c, 0, 70, 80
2, 227760, Note_on_c, 0, 64, 80
2, 227874, Note_off_c, 0, 64, 64
2, 227880, Note_on_c, 0, 67, 80
2, 227994, Note_off_c, 0, 67, 64
2, 228000, Note_on_c, 0, 65, 80
2, 228102, Note_off_c, 0, 70, 64
2, 228114, Note_off_c, 0, 65, 64
2, 228120, Note_on_c, 0, 73, 90
2, 228120, Note_on_c, 0, 70, 80
2, 228234, Note_off_c, 0, 70, 64
2, 228240, Note_on_c, 0, 72, 80
2, 228354, Note_off_c, 0, 72, 64
2, 228360, Note_on_c, 0, 68, 80
2, 228474, Note_off_c, 0, 68, 64
2, 228480, Note_on_c, 0, 67, 80
2, 228594, Note_off_c, 0, 67, 64
2, 228600, Note_on_c, 0, 70, 80
2, 228714, Note_off_c, 0, 70, 64
2, 228720, Note_on_c, 0, 68, 80
2, 228822, Note_off_c, 0, 73, 64
2, 228834, Note_off_c, 0, 68, 64
2, 228840, Note_on_c, 0, 72, 80
2, 228840, Note_on_c, 0, 67, 80
2, 228954, Note_off_c, 0, 67, 64
2, 228960, Note_on_c, 0, 65, 80
2, 229068, Note_off_c, 0, 72, 64
2, 229074, Note_off_c, 0, 65, 64
2, 229080, Note_on_c, 0, 70, 80
2, 229080, Note_on_c, 0, 67, 80
2, 229194, Note_off_c, 0, 67, 64
2, 229194, Note_off_c, 0, 70, 64
2, 229200, Note_on_c, 0, 68, 80
2, 229200, Note_on_c, 0, 67, 80
2, 229314, Note_off_c, 0, 67, 64
2, 229320, Note_on_c, 0, 60, 81
2, 229428, Note_off_c, 0, 68, 64
2, 229434, Note_off_c, 0, 60, 64
2, 229440, Note_on_c, 0, 70, 82
2, 229440, Note_on_c, 0, 65, 82
2, 229554, Note_off_c, 0, 70, 64
2, 229560, Note_on_c, 0, 67, 83
2, 229674, Note_off_c, 0, 65, 64
2, 229680, Note_on_c, 0, 63, 85
2, 229788, Note_off_c, 0, 67, 64
2, 229794, Note_off_c, 0, 63, 64
2, 229800, Note_on_c, 0, 68, 86
2, 229800, Note_on_c, 0, 65, 86
2, 229914, Note_off_c, 0, 65, 64
2, 229914, Note_off_c, 0, 68, 64
2, 229920, Note_on_c, 0, 67, 87
2, 229920, Note_on_c, 0, 63, 87
2, 229949, Note_off_c, 0, 67, 48
2, 229950, Note_on_c, 0, 65, 87
2, 229979, Note_off_c, 0, 65, 48
2, 229980, Note_on_c, 0, 67, 88
2, 230009, Note_off_c, 0, 67, 48
2, 230010, Note_on_c, 0, 65, 88
2, 230034, Note_off_c, 0, 63, 64
2, 230039, Note_off_c, 0, 65, 48
2, 230040, Note_on_c, 0, 67, 88
2, 230040, Note_on_c, 0, 62, 88
2, 230069, Note_off_c, 0, 67, 48
2, 230070, Note_on_c, 0, 65, 89
2, 230099, Note_off_c, 0, 65, 48
2, 230100, Note_on_c, 0, 67, 89
2, 230129, Note_off_c, 0, 67, 48
2, 230130, Note_on_c, 0, 65, 89
2, 230154, Note_off_c, 0, 62, 64
2, 230159, Note_off_c, 0, 65, 48
2, 230160, Note_on_c, 0, 67, 90
2, 230160, Note_on_c, 0, 56, 90
2, 230189, Note_off_c, 0, 67, 48
2, 230190, Note_on_c, 0, 65, 90
2, 230219, Note_off_c, 0, 65, 48
2, 230220, Note_on_c, 0, 63, 90
2, 230249, Note_off_c, 0, 63, 48
2, 230250, Note_on_c, 0, 65, 90
2, 230274, Note_off_c, 0, 56, 64
2, 230279, Note_off_c, 0, 65, 48
2, 230280, Note_on_c, 0, 55, 91
2, 230280, Note_on_c, 0, 65, 91
2, 230394, Note_off_c, 0, 65, 64
2, 230400, Note_on_c, 0, 63, 92
2, 230514, Note_off_c, 0, 63, 64
2, 230520, Note_on_c, 0, 61, 93
2, 230622, Note_off_c, 0, 55, 64
2, 230634, Note_off_c, 0, 61, 64
2, 230640, Note_on_c, 0, 60, 95
2, 230754, Note_off_c, 0, 60, 64
2, 230760, Note_on_c, 0, 70, 95
2, 230760, Note_on_c, 0, 61, 95
2, 230874, Note_off_c, 0, 61, 64
2, 230874, Note_off_c, 0, 70, 64
2, 230880, Note_on_c, 0, 58, 95
2, 230880, Note_on_c, 0, 67, 95
2, 230994, Note_off_c, 0, 67, 64
2, 230994, Note_off_c, 0, 58, 64
2, 231000, Note_on_c, 0, 68, 95
2, 231000, Note_on_c, 0, 56, 95
2, 231114, Note_off_c, 0, 56, 64
2, 231120, Note_on_c, 0, 58, 95
2, 231234, Note_off_c, 0, 58, 64
2, 231240, Note_on_c, 0, 60, 95
2, 231342, Note_off_c, 0, 68, 64
2, 231354, Note_off_c, 0, 60, 64
2, 231360, Note_on_c, 0, 67, 95
2, 231360, Note_on_c, 0, 61, 95
2, 231474, Note_off_c, 0, 61, 64
2, 231480, Note_on_c, 0, 63, 95
2, 231594, Note_off_c, 0, 63, 64
2, 231600, Note_on_c, 0, 60, 95
2, 231702, Note_off_c, 0, 67, 64
2, 231714, Note_off_c, 0, 60, 64
2, 231720, Note_on_c, 0, 70, 95
2, 231720, Note_on_c, 0, 58, 95
2, 231834, Note_off_c, 0, 58, 64
2, 231840, Note_on_c, 0, 60, 95
2, 231954, Note_off_c, 0, 60, 64
2, 231960, Note_on_c, 0, 61, 95
2, 232074, Note_off_c, 0, 61, 64
2, 232080, Note_on_c, 0, 63, 95
2, 232194, Note_off_c, 0, 70, 64
2, 232200, Note_on_c, 0, 67, 95
2, 232314, Note_off_c, 0, 67, 64
2, 232320, Note_on_c, 0, 68, 105
2, 232422, Note_off_c, 0, 63, 64
2, 232440, Note_on_c, 0, 62, 95
2, 232554, Note_off_c, 0, 68, 64
2, 232560, Note_on_c, 0, 70, 95
2, 232674, Note_off_c, 0, 70, 64
2, 232680, Note_on_c, 0, 72, 105
2, 232782, Note_off_c, 0, 62, 64
2, 232800, Note_on_c, 0, 63, 95
2, 232914, Note_off_c, 0, 72, 64
2, 232920, Note_on_c, 0, 69, 95
2, 233034, Note_off_c, 0, 69, 64
2, 233040, Note_on_c, 0, 70, 94
2, 233142, Note_off_c, 0, 63, 64
2, 233154, Note_off_c, 0, 70, 64
2, 233160, Note_on_c, 0, 61, 94
2, 233160, Note_on_c, 0, 63, 94
2, 233274, Note_off_c, 0, 63, 64
2, 233280, Note_on_c, 0, 65, 93
2, 233394, Note_off_c, 0, 65, 64
2, 233400, Note_on_c, 0, 67, 92
2, 233514, Note_off_c, 0, 67, 64
2, 233520, Note_on_c, 0, 68, 92
2, 233634, Note_off_c, 0, 68, 64
2, 233640, Note_on_c, 0, 65, 91
2, 233754, Note_off_c, 0, 65, 64
2, 233760, Note_on_c, 0, 67, 100
2, 233862, Note_off_c, 0, 61, 64
2, 233880, Note_on_c, 0, 60, 90
2, 233994, Note_off_c, 0, 67, 64
2, 234000, Note_on_c, 0, 68, 89
2, 234114, Note_off_c, 0, 68, 64
2, 234120, Note_on_c, 0, 70, 99
2, 234222, Note_off_c, 0, 60, 64
2, 234240, Note_on_c, 0, 61, 88
2, 234354, Note_off_c, 0, 70, 64
2, 234360, Note_on_c, 0, 67, 87
2, 234474, Note_off_c, 0, 67, 64
2, 234480, Note_on_c, 0, 68, 97
2, 234582, Note_off_c, 0, 61, 64
2, 234600, Note_on_c, 0, 62, 86
2, 234714, Note_off_c, 0, 68, 64
2, 234720, Note_on_c, 0, 70, 85
2, 234834, Note_off_c, 0, 70, 64
2, 234840, Note_on_c, 0, 68, 85
2, 234942, Note_off_c, 0, 62, 64
2, 234960, Note_on_c, 0, 63, 84
2, 235074, Note_off_c, 0, 68, 64
2, 235080, Note_on_c, 0, 65, 84
2, 235194, Note_off_c, 0, 65, 64
2, 235200, Note_on_c, 0, 66, 93
2, 235302, Note_off_c, 0, 63, 64
2, 235320, Note_on_c, 0, 58, 82
2, 235434, Note_off_c, 0, 66, 64
2, 235440, Note_on_c, 0, 68, 82
2, 235548, Note_off_c, 0, 58, 64
2, 235554, Note_off_c, 0, 68, 64
2, 235560, Note_on_c, 0, 66, 81
2, 235560, Note_on_c, 0, 60, 81
2, 235674, Note_off_c, 0, 60, 64
2, 235680, Note_on_c, 0, 61, 80
2, 235794, Note_off_c, 0, 61, 64
2, 235794, Note_off_c, 0, 66, 64
2, 235800, Note_on_c, 0, 64, 80
2, 235914, Note_off_c, 0, 64, 64
2, 235920, Note_on_c, 0, 65, 80
2, 236040, Note_on_c, 0, 56, 90
2, 236154, Note_off_c, 0, 65, 64
2, 236160, Note_on_c, 0, 62, 80
2, 236274, Note_off_c, 0, 62, 64
2, 236280, Note_on_c, 0, 63, 80
2, 236382, Note_off_c, 0, 56, 64
2, 236394, Note_off_c, 0, 63, 64
2, 236400, Note_on_c, 0, 67, 80
2, 236400, Note_on_c, 0, 61, 80
2, 236514, Note_off_c, 0, 67, 64
2, 236520, Note_on_c, 0, 68, 80
2, 236634, Note_off_c, 0, 68, 64
2, 236640, Note_on_c, 0, 65, 80
2, 236742, Note_off_c, 0, 61, 64
2, 236754, Note_off_c, 0, 65, 64
2, 236760, Note_on_c, 0, 63, 80
2, 236760, Note_on_c, 0, 58, 80
2, 236874, Note_off_c, 0, 63, 64
2, 236880, Note_on_c, 0, 65, 80
2, 236994, Note_off_c, 0, 65, 64
2, 237000, Note_on_c, 0, 67, 80
2, 237102, Note_off_c, 0, 58, 64
2, 237114, Note_off_c, 0, 67, 64
2, 237120, Note_on_c, 0, 68, 80
2, 237120, Note_on_c, 0, 63, 80
2, 237234, Note_off_c, 0, 68, 64
2, 237240, Note_on_c, 0, 70, 80
2, 237354, Note_off_c, 0, 70, 64
2, 237360, Note_on_c, 0, 66, 80
2, 237462, Note_off_c, 0, 63, 64
2, 237474, Note_off_c, 0, 66, 64
2, 237480, Note_on_c, 0, 65, 80
2, 237480, Note_on_c, 0, 60, 80
2, 237594, Note_off_c, 0, 65, 64
2, 237600, Note_on_c, 0, 67, 80
2, 237714, Note_off_c, 0, 67, 64
2, 237720, Note_on_c, 0, 69, 80
2, 237822, Note_off_c, 0, 60, 64
2, 237834, Note_off_c, 0, 69, 64
2, 237840, Note_on_c, 0, 70, 80
2, 237840, Note_on_c, 0, 65, 80
2, 238068, Note_off_c, 0, 70, 64
2, 238080, Note_on_c, 0, 68, 80
2, 238182, Note_off_c, 0, 65, 64
2, 238194, Note_off_c, 0, 68, 64
2, 238200, Note_on_c, 0, 67, 80
2, 238200, Note_on_c, 0, 63, 80
2, 238314, Note_off_c, 0, 67, 64
2, 238320, Note_on_c, 0, 68, 80
2, 238428, Note_off_c, 0, 63, 64
2, 238434, Note_off_c, 0, 68, 64
2, 238440, Note_on_c, 0, 70, 80
2, 238440, Note_on_c, 0, 61, 80
2, 238554, Note_off_c, 0, 61, 64
2, 238560, Note_on_c, 0, 60, 80
2, 238902, Note_off_c, 0, 60, 64
2, 238902, Note_off_c, 0, 70, 64
2, 238920, Note_on_c, 0, 68, 80
2, 238920, Note_on_c, 0, 61, 80
2, 239148, Note_off_c, 0, 61, 64
2, 239160, Note_on_c, 0, 60, 80
2, 239274, Note_off_c, 0, 60, 64
2, 239280, Note_on_c, 0, 58, 80
2, 239622, Note_off_c, 0, 58, 64
2, 239622, Note_off_c, 0, 68, 64
2, 239640, Note_on_c, 0, 67, 80
2, 239640, Note_on_c, 0, 60, 80
2, 239868, Note_off_c, 0, 60, 64
2, 239880, Note_on_c, 0, 58, 80
2, 239994, Note_off_c, 0, 58, 64
2, 240000, Note_on_c, 0, 56, 80
2, 240114, Note_off_c, 0, 67, 64
2, 240120, Note_on_c, 0, 68, 80
2, 240228, Note_off_c, 0, 56, 64
2, 240234, Note_off_c, 0, 68, 64
2, 240240, Note_on_c, 0, 67, 80
2, 240354, Note_off_c, 0, 67, 64
2, 240360, Note_on_c, 0, 58, 80
2, 240360, Note_on_c, 0, 65, 80
2, 240474, Note_off_c, 0, 65, 64
2, 240480, Note_on_c, 0, 64, 80
2, 240588, Note_off_c, 0, 58, 64
2, 240594, Note_off_c, 0, 64, 64
2, 240600, Note_on_c, 0, 56, 80
2, 240600, Note_on_c, 0, 65, 80
2, 240714, Note_off_c, 0, 65, 64
2, 240714, Note_off_c, 0, 56, 64
2, 240720, Note_on_c, 0, 67, 80
2, 240720, Note_on_c, 0, 55, 80
2, 240834, Note_off_c, 0, 67, 64
2, 240840, Note_on_c, 0, 68, 80
2, 240954, Note_off_c, 0, 68, 64
2, 240960, Note_on_c, 0, 65, 90
2, 241062, Note_off_c, 0, 55, 64
2, 241080, Note_on_c, 0, 56, 80
2, 241194, Note_off_c, 0, 65, 64
2, 241200, Note_on_c, 0, 62, 80
2, 241308, Note_off_c, 0, 56, 64
2, 241314, Note_off_c, 0, 62, 64
2, 241320, Note_on_c, 0, 55, 80
2, 241320, Note_on_c, 0, 64, 80
2, 241434, Note_off_c, 0, 64, 64
2, 241434, Note_off_c, 0, 55, 64
2, 241440, Note_on_c, 0, 65, 80
2, 241440, Note_on_c, 0, 60, 80
2, 241554, Note_off_c, 0, 65, 64
2, 241560, Note_on_c, 0, 66, 80
2, 241674, Note_off_c, 0, 66, 64
2, 241680, Note_on_c, 0, 63, 80
2, 241782, Note_off_c, 0, 60, 64
2, 241794, Note_off_c, 0, 63, 64
2, 241800, Note_on_c, 0, 53, 80
2, 241800, Note_on_c, 0, 61, 80
2, 241914, Note_off_c, 0, 61, 64
2, 241920, Note_on_c, 0, 60, 80
2, 242034, Note_off_c, 0, 60, 64
2, 242040, Note_on_c, 0, 61, 90
2, 242142, Note_off_c, 0, 53, 64
2, 242160, Note_on_c, 0, 51, 80
2, 242274, Note_off_c, 0, 61, 64
2, 242280, Note_on_c, 0, 60, 80
2, 242388, Note_off_c, 0, 51, 64
2, 242394, Note_off_c, 0, 60, 64
2, 242400, Note_on_c, 0, 63, 80
2, 242400, Note_on_c, 0, 58, 80
2, 242514, Note_off_c, 0, 58, 64
2, 242514, Note_off_c, 0, 63, 64
2, 242520, Note_on_c, 0, 63, 80
2, 242520, Note_on_c, 0, 56, 80
2, 242634, Note_off_c, 0, 56, 64
2, 242640, Note_on_c, 0, 55, 80
2, 242754, Note_off_c, 0, 55, 64
2, 242760, Note_on_c, 0, 58, 80
2, 242862, Note_off_c, 0, 63, 64
2, 242874, Note_off_c, 0, 58, 64
2, 242880, Note_on_c, 0, 68, 80
2, 242880, Note_on_c, 0, 63, 80
2, 242994, Note_off_c, 0, 63, 64
2, 243000, Note_on_c, 0, 65, 80
2, 243114, Note_off_c, 0, 65, 64
2, 243120, Note_on_c, 0, 61, 80
2, 243222, Note_off_c, 0, 68, 64
2, 243234, Note_off_c, 0, 61, 64
2, 243240, Note_on_c, 0, 65, 80
2, 243240, Note_on_c, 0, 60, 80
2, 243354, Note_off_c, 0, 60, 64
2, 243360, Note_on_c, 0, 61, 80
2, 243474, Note_off_c, 0, 61, 64
2, 243480, Note_on_c, 0, 63, 80
2, 243582, Note_off_c, 0, 65, 64
2, 243594, Note_off_c, 0, 63, 64
2, 243600, Note_on_c, 0, 70, 80
2, 243600, Note_on_c, 0, 65, 80
2, 243714, Note_off_c, 0, 65, 64
2, 243720, Note_on_c, 0, 66, 80
2, 243834, Note_off_c, 0, 66, 64
2, 243840, Note_on_c, 0, 63, 80
2, 243942, Note_off_c, 0, 70, 64
2, 243954, Note_off_c, 0, 63, 64
2, 243960, Note_on_c, 0, 67, 80
2, 243960, Note_on_c, 0, 61, 80
2, 244074, Note_off_c, 0, 61, 64
2, 244080, Note_on_c, 0, 63, 80
2, 244194, Note_off_c, 0, 63, 64
2, 244200, Note_on_c, 0, 65, 80
2, 244302, Note_off_c, 0, 67, 64
2, 244314, Note_off_c, 0, 65, 64
2, 244320, Note_on_c, 0, 72, 80
2, 244320, Note_on_c, 0, 63, 80
2, 244434, Note_off_c, 0, 63, 64
2, 244440, Note_on_c, 0, 68, 90
2, 244662, Note_off_c, 0, 72, 64
2, 244680, Note_on_c, 0, 70, 80
2, 244794, Note_off_c, 0, 68, 64
2, 244800, Note_on_c, 0, 62, 80
2, 244908, Note_off_c, 0, 70, 64
2, 244914, Note_off_c, 0, 62, 64
2, 244920, Note_on_c, 0, 68, 80
2, 244920, Note_on_c, 0, 65, 80
2, 245034, Note_off_c, 0, 65, 64
2, 245034, Note_off_c, 0, 68, 64
2, 245040, Note_on_c, 0, 67, 80
2, 245040, Note_on_c, 0, 58, 80
2, 245382, Note_off_c, 0, 58, 64
2, 245382, Note_off_c, 0, 67, 64
2, 245400, Note_on_c, 0, 73, 81
2, 245400, Note_on_c, 0, 70, 81
2, 245742, Note_off_c, 0, 70, 64
2, 245742, Note_off_c, 0, 73, 64
2, 245760, Note_on_c, 0, 73, 83
2, 245760, Note_on_c, 0, 67, 83
2, 245874, Note_off_c, 0, 67, 64
2, 245880, Note_on_c, 0, 70, 84
2, 245994, Note_off_c, 0, 70, 64
2, 246000, Note_on_c, 0, 68, 85
2, 246102, Note_off_c, 0, 73, 64
2, 246114, Note_off_c, 0, 68, 64
2, 246120, Note_on_c, 0, 72, 85
2, 246120, Note_on_c, 0, 67, 85
2, 246234, Note_off_c, 0, 67, 64
2, 246240, Note_on_c, 0, 65, 86
2, 246348, Note_off_c, 0, 72, 64
2, 246354, Note_off_c, 0, 65, 64
2, 246360, Note_on_c, 0, 67, 86
2, 246360, Note_on_c, 0, 70, 86
2, 246474, Note_off_c, 0, 70, 64
2, 246474, Note_off_c, 0, 67, 64
2, 246480, Note_on_c, 0, 69, 87
2, 246480, Note_on_c, 0, 60, 87
2, 246594, Note_off_c, 0, 60, 64
2, 246600, Note_on_c, 0, 72, 88
2, 246708, Note_off_c, 0, 69, 64
2, 246714, Note_off_c, 0, 72, 64
2, 246720, Note_on_c, 0, 70, 88
2, 246834, Note_off_c, 0, 70, 64
2, 246840, Note_on_c, 0, 75, 89
2, 246840, Note_on_c, 0, 68, 89
2, 246954, Note_off_c, 0, 68, 64
2, 246960, Note_on_c, 0, 70, 90
2, 247074, Note_off_c, 0, 70, 64
2, 247080, Note_on_c, 0, 72, 90
2, 247194, Note_off_c, 0, 72, 64
2, 247200, Note_on_c, 0, 69, 91
2, 247314, Note_off_c, 0, 69, 64
2, 247320, Note_on_c, 0, 72, 91
2, 247434, Note_off_c, 0, 72, 64
2, 247440, Note_on_c, 0, 70, 92
2, 247542, Note_off_c, 0, 75, 64
2, 247554, Note_off_c, 0, 70, 64
2, 247560, Note_on_c, 0, 74, 93
2, 247560, Note_on_c, 0, 69, 93
2, 247674, Note_off_c, 0, 69, 64
2, 247680, Note_on_c, 0, 70, 93
2, 247788, Note_off_c, 0, 74, 64
2, 247794, Note_off_c, 0, 70, 64
2, 247800, Note_on_c, 0, 66, 94
2, 247800, Note_on_c, 0, 72, 94
2, 247914, Note_off_c, 0, 72, 64
2, 247914, Note_off_c, 0, 66, 64
2, 247920, Note_on_c, 0, 71, 95
2, 247920, Note_on_c, 0, 62, 95
2, 248034, Note_off_c, 0, 62, 64
2, 248040, Note_on_c, 0, 77, 95
2, 248148, Note_off_c, 0, 71, 64
2, 248154, Note_off_c, 0, 77, 64
2, 248160, Note_on_c, 0, 75, 95
2, 248274, Note_off_c, 0, 75, 64
2, 248280, Note_on_c, 0, 80, 95
2, 248280, Note_on_c, 0, 74, 95
2, 248394, Note_off_c, 0, 74, 64
2, 248400, Note_on_c, 0, 75, 95
2, 248514, Note_off_c, 0, 75, 64
2, 248520, Note_on_c, 0, 77, 95
2, 248634, Note_off_c, 0, 77, 64
2, 248640, Note_on_c, 0, 71, 95
2, 248754, Note_off_c, 0, 71, 64
2, 248760, Note_on_c, 0, 72, 95
2, 248874, Note_off_c, 0, 72, 64
2, 248880, Note_on_c, 0, 74, 95
2, 248982, Note_off_c, 0, 80, 64
2, 248994, Note_off_c, 0, 74, 64
2, 249000, Note_on_c, 0, 79, 95
2, 249000, Note_on_c, 0, 75, 95
2, 249114, Note_off_c, 0, 75, 64
2, 249120, Note_on_c, 0, 77, 95
2, 249228, Note_off_c, 0, 79, 64
2, 249234, Note_off_c, 0, 77, 64
2, 249240, Note_on_c, 0, 74, 95
2, 249240, Note_on_c, 0, 77, 95
2, 249354, Note_off_c, 0, 77, 64
2, 249354, Note_off_c, 0, 74, 64
2, 249360, Note_on_c, 0, 75, 80
2, 249360, Note_on_c, 0, 67, 80
2, 249474, Note_off_c, 0, 67, 64
2, 249480, Note_on_c, 0, 72, 80
2, 249594, Note_off_c, 0, 72, 64
2, 249600, Note_on_c, 0, 70, 80
2, 249702, Note_off_c, 0, 75, 64
2, 249714, Note_off_c, 0, 70, 64
2, 249720, Note_on_c, 0, 68, 80
2, 249720, Note_on_c, 0, 77, 80
2, 249834, Note_off_c, 0, 68, 64
2, 249840, Note_on_c, 0, 67, 80
2, 249948, Note_off_c, 0, 77, 64
2, 249954, Note_off_c, 0, 67, 64
2, 249960, Note_on_c, 0, 65, 80
2, 249960, Note_on_c, 0, 74, 80
2, 250074, Note_off_c, 0, 74, 64
2, 250074, Note_off_c, 0, 65, 64
2, 250080, Note_on_c, 0, 75, 80
2, 250080, Note_on_c, 0, 67, 80
2, 250194, Note_off_c, 0, 67, 64
2, 250200, Note_on_c, 0, 71, 80
2, 250314, Note_off_c, 0, 71, 64
2, 250320, Note_on_c, 0, 72, 81
2, 250422, Note_off_c, 0, 75, 64
2, 250440, Note_on_c, 0, 74, 92
2, 250554, Note_off_c, 0, 72, 64
2, 250560, Note_on_c, 0, 69, 83
2, 250674, Note_off_c, 0, 69, 64
2, 250680, Note_on_c, 0, 70, 84
2, 250794, Note_off_c, 0, 70, 64
2, 250800, Note_on_c, 0, 63, 85
2, 250914, Note_off_c, 0, 74, 64
2, 250920, Note_on_c, 0, 75, 85
2, 251034, Note_off_c, 0, 75, 64
2, 251040, Note_on_c, 0, 72, 96
2, 251142, Note_off_c, 0, 63, 64
2, 251160, Note_on_c, 0, 65, 87
2, 251274, Note_off_c, 0, 72, 64
2, 251280, Note_on_c, 0, 74, 88
2, 251394, Note_off_c, 0, 74, 64
2, 251400, Note_on_c, 0, 75, 99
2, 251634, Note_off_c, 0, 75, 64
2, 251640, Note_on_c, 0, 77, 90
2, 251754, Note_off_c, 0, 77, 64
2, 251760, Note_on_c, 0, 75, 91
2, 251862, Note_off_c, 0, 65, 64
2, 251874, Note_off_c, 0, 75, 64
2, 251880, Note_on_c, 0, 67, 92
2, 251880, Note_on_c, 0, 74, 92
2, 251994, Note_off_c, 0, 74, 64
2, 252000, Note_on_c, 0, 75, 93
2, 252114, Note_off_c, 0, 75, 64
2, 252120, Note_on_c, 0, 77, 94
2, 252234, Note_off_c, 0, 77, 64
2, 252240, Note_on_c, 0, 79, 95
2, 252354, Note_off_c, 0, 67, 64
2, 252360, Note_on_c, 0, 68, 95
2, 252468, Note_off_c, 0, 79, 64
2, 252474, Note_off_c, 0, 68, 64
2, 252480, Note_on_c, 0, 65, 95
2, 252594, Note_off_c, 0, 65, 64
2, 252600, Note_on_c, 0, 63, 96
2, 252714, Note_off_c, 0, 63, 64
2, 252720, Note_on_c, 0, 65, 96
2, 252834, Note_off_c, 0, 65, 64
2, 252840, Note_on_c, 0, 67, 106
2, 253074, Note_off_c, 0, 67, 64
2, 253080, Note_on_c, 0, 68, 97
2, 253194, Note_off_c, 0, 68, 64
2, 253200, Note_on_c, 0, 67, 97
2, 253314, Note_off_c, 0, 67, 64
2, 253320, Note_on_c, 0, 65, 98
2, 253434, Note_off_c, 0, 65, 64
2, 253440, Note_on_c, 0, 67, 98
2, 253554, Note_off_c, 0, 67, 64
2, 253560, Note_on_c, 0, 68, 98
2, 253674, Note_off_c, 0, 68, 64
2, 253680, Note_on_c, 0, 80, 99
2, 253680, Note_on_c, 0, 70, 99
2, 253794, Note_off_c, 0, 80, 64
2, 253800, Note_on_c, 0, 82, 99
2, 253914, Note_off_c, 0, 82, 64
2, 253920, Note_on_c, 0, 79, 109
2, 254022, Note_off_c, 0, 70, 64
2, 254040, Note_on_c, 0, 72, 100
2, 254154, Note_off_c, 0, 79, 64
2, 254160, Note_on_c, 0, 81, 100
2, 254274, Note_off_c, 0, 81, 64
2, 254280, Note_on_c, 0, 82, 110
2, 254514, Note_off_c, 0, 82, 64
2, 254520, Note_on_c, 0, 84, 101
2, 254634, Note_off_c, 0, 84, 64
2, 254640, Note_on_c, 0, 82, 101
2, 254742, Note_off_c, 0, 72, 64
2, 254754, Note_off_c, 0, 82, 64
2, 254760, Note_on_c, 0, 75, 102
2, 254760, Note_on_c, 0, 81, 102
2, 254874, Note_off_c, 0, 81, 64
2, 254880, Note_on_c, 0, 82, 102
2, 254994, Note_off_c, 0, 82, 64
2, 255000, Note_on_c, 0, 84, 102
2, 255114, Note_off_c, 0, 84, 64
2, 255120, Note_on_c, 0, 85, 103
2, 255234, Note_off_c, 0, 75, 64
2, 255240, Note_on_c, 0, 73, 103
2, 255348, Note_off_c, 0, 85, 64
2, 255354, Note_off_c, 0, 73, 64
2, 255360, Note_on_c, 0, 70, 113
2, 255480, Note_on_c, 0, 77, 104
2, 255594, Note_off_c, 0, 70, 64
2, 255600, Note_on_c, 0, 69, 104
2, 255714, Note_off_c, 0, 69, 64
2, 255720, Note_on_c, 0, 72, 114
2, 255954, Note_off_c, 0, 72, 64
2, 255960, Note_on_c, 0, 70, 80
2, 256074, Note_off_c, 0, 70, 64
2, 256080, Note_on_c, 0, 73, 80
2, 256182, Note_off_c, 0, 77, 64
2, 256194, Note_off_c, 0, 73, 64
2, 256200, Note_on_c, 0, 65, 80
2, 256200, Note_on_c, 0, 69, 80
2, 256428, Note_off_c, 0, 69, 64
2, 256440, Note_on_c, 0, 72, 80
2, 256554, Note_off_c, 0, 72, 64
2, 256560, Note_on_c, 0, 70, 80
2, 256788, Note_off_c, 0, 70, 64
2, 256800, Note_on_c, 0, 73, 80
2, 256914, Note_off_c, 0, 73, 64
2, 256920, Note_on_c, 0, 72, 80
2, 257148, Note_off_c, 0, 72, 64
2, 257160, Note_on_c, 0, 75, 80
2, 257274, Note_off_c, 0, 75, 64
2, 257280, Note_on_c, 0, 73, 95
2, 257508, Note_off_c, 0, 73, 64
2, 257520, Note_on_c, 0, 77, 95
2, 257622, Note_off_c, 0, 65, 64
2, 257634, Note_off_c, 0, 77, 64
2, 257640, Note_on_c, 0, 75, 95
2, 257640, Note_on_c, 0, 70, 95
2, 257754, Note_off_c, 0, 70, 64
2, 257760, Note_on_c, 0, 72, 95
2, 257874, Note_off_c, 0, 72, 64
2, 257880, Note_on_c, 0, 73, 95
2, 257994, Note_off_c, 0, 73, 64
2, 258000, Note_on_c, 0, 72, 95
2, 258228, Note_off_c, 0, 72, 64
2, 258240, Note_on_c, 0, 68, 95
2, 258354, Note_off_c, 0, 68, 64
2, 258360, Note_on_c, 0, 67, 95
2, 258588, Note_off_c, 0, 67, 64
2, 258600, Note_on_c, 0, 70, 95
2, 258714, Note_off_c, 0, 70, 64
2, 258720, Note_on_c, 0, 68, 80
2, 258948, Note_off_c, 0, 68, 64
2, 258960, Note_on_c, 0, 72, 80
2, 259062, Note_off_c, 0, 75, 64
2, 259074, Note_off_c, 0, 72, 64
2, 259080, Note_on_c, 0, 63, 80
2, 259080, Note_on_c, 0, 67, 80
2, 259308, Note_off_c, 0, 67, 64
2, 259320, Note_on_c, 0, 70, 80
2, 259434, Note_off_c, 0, 70, 64
2, 259440, Note_on_c, 0, 68, 80
2, 259668, Note_off_c, 0, 68, 64
2, 259680, Note_on_c, 0, 72, 80
2, 259794, Note_off_c, 0, 72, 64
2, 259800, Note_on_c, 0, 70, 80
2, 260028, Note_off_c, 0, 70, 64
2, 260040, Note_on_c, 0, 73, 80
2, 260154, Note_off_c, 0, 73, 64
2, 260160, Note_on_c, 0, 72, 80
2, 260274, Note_off_c, 0, 72, 64
2, 260274, Note_off_c, 0, 63, 64
2, 260280, Note_on_c, 0, 73, 80
2, 260280, Note_on_c, 0, 70, 80
2, 260394, Note_off_c, 0, 70, 64
2, 260394, Note_off_c, 0, 73, 64
2, 260400, Note_on_c, 0, 72, 80
2, 260400, Note_on_c, 0, 75, 80
2, 260514, Note_off_c, 0, 75, 64
2, 260514, Note_off_c, 0, 72, 64
2, 260520, Note_on_c, 0, 77, 80
2, 260520, Note_on_c, 0, 61, 90
2, 260748, Note_off_c, 0, 77, 64
2, 260862, Note_off_c, 0, 61, 64
2, 260880, Note_on_c, 0, 66, 80
2, 261120, Note_on_c, 0, 58, 90
2, 261222, Note_off_c, 0, 66, 64
2, 261240, Note_on_c, 0, 63, 80
2, 261354, Note_off_c, 0, 58, 64
2, 261360, Note_on_c, 0, 56, 80
2, 261474, Note_off_c, 0, 56, 64
2, 261480, Note_on_c, 0, 60, 90
2, 261582, Note_off_c, 0, 63, 64
2, 261600, Note_on_c, 0, 68, 80
2, 261714, Note_off_c, 0, 60, 64
2, 261720, Note_on_c, 0, 61, 80
2, 261834, Note_off_c, 0, 61, 64
2, 261840, Note_on_c, 0, 63, 90
2, 261942, Note_off_c, 0, 68, 64
2, 261960, Note_on_c, 0, 65, 80
2, 262074, Note_off_c, 0, 63, 64
2, 262080, Note_on_c, 0, 61, 80
2, 262194, Note_off_c, 0, 61, 64
2, 262200, Note_on_c, 0, 62, 80
2, 262302, Note_off_c, 0, 65, 64
2, 262314, Note_off_c, 0, 62, 64
2, 262320, Note_on_c, 0, 63, 80
2, 262320, Note_on_c, 0, 70, 80
2, 262434, Note_off_c, 0, 63, 64
2, 262440, Note_on_c, 0, 66, 80
2, 262554, Note_off_c, 0, 66, 64
2, 262560, Note_on_c, 0, 65, 80
2, 262662, Note_off_c, 0, 70, 64
2, 262674, Note_off_c, 0, 65, 64
2, 262680, Note_on_c, 0, 63, 80
2, 262680, Note_on_c, 0, 68, 80
2, 262794, Note_off_c, 0, 63, 64
2, 262800, Note_on_c, 0, 65, 80
2, 262908, Note_off_c, 0, 68, 64
2, 262914, Note_off_c, 0, 65, 64
2, 262920, Note_on_c, 0, 66, 80
2, 262920, Note_on_c, 0, 60, 80
2, 263034, Note_off_c, 0, 60, 64
2, 263034, Note_off_c, 0, 66, 64
2, 263040, Note_on_c, 0, 61, 80
2, 263040, Note_on_c, 0, 65, 80
2, 263154, Note_off_c, 0, 61, 64
2, 263160, Note_on_c, 0, 66, 80
2, 263268, Note_off_c, 0, 65, 64
2, 263274, Note_off_c, 0, 66, 64
2, 263280, Note_on_c, 0, 65, 90
2, 263280, Note_on_c, 0, 56, 80
2, 263394, Note_off_c, 0, 56, 64
2, 263400, Note_on_c, 0, 68, 80
2, 263514, Note_off_c, 0, 65, 64
2, 263520, Note_on_c, 0, 62, 80
2, 263634, Note_off_c, 0, 62, 64
2, 263640, Note_on_c, 0, 63, 80
2, 263742, Note_off_c, 0, 68, 64
2, 263754, Note_off_c, 0, 63, 64
2, 263760, Note_on_c, 0, 73, 80
2, 263760, Note_on_c, 0, 65, 80
2, 264102, Note_off_c, 0, 65, 64
2, 264102, Note_off_c, 0, 73, 64
2, 264120, Note_on_c, 0, 70, 80
2, 264120, Note_on_c, 0, 67, 80
2, 264462, Note_off_c, 0, 67, 64
2, 264462, Note_off_c, 0, 70, 64
2, 264480, Note_on_c, 0, 75, 80
2, 264480, Note_on_c, 0, 68, 80
2, 264594, Note_off_c, 0, 68, 64
2, 264600, Note_on_c, 0, 72, 80
2, 264714, Note_off_c, 0, 72, 64
2, 264720, Note_on_c, 0, 70, 90
2, 264822, Note_off_c, 0, 75, 64
2, 264840, Note_on_c, 0, 72, 80
2, 264954, Note_off_c, 0, 70, 64
2, 264960, Note_on_c, 0, 68, 80
2, 265074, Note_off_c, 0, 68, 64
2, 265080, Note_on_c, 0, 66, 80
2, 265182, Note_off_c, 0, 72, 64
2, 265194, Note_off_c, 0, 66, 64
2, 265200, Note_on_c, 0, 77, 80
2, 265200, Note_on_c, 0, 65, 80
2, 265314, Note_off_c, 0, 65, 64
2, 265320, Note_on_c, 0, 70, 80
2, 265434, Note_off_c, 0, 70, 64
2, 265440, Note_on_c, 0, 68, 80
2, 265542, Note_off_c, 0, 77, 64
2, 265554, Note_off_c, 0, 68, 64
2, 265560, Note_on_c, 0, 67, 80
2, 265560, Note_on_c, 0, 75, 80
2, 265674, Note_off_c, 0, 67, 64
2, 265680, Note_on_c, 0, 68, 80
2, 265788, Note_off_c, 0, 75, 64
2, 265794, Note_off_c, 0, 68, 64
2, 265800, Note_on_c, 0, 70, 80
2, 265800, Note_on_c, 0, 73, 80
2, 265914, Note_off_c, 0, 73, 64
2, 265920, Note_on_c, 0, 72, 80
2, 266034, Note_off_c, 0, 70, 64
2, 266040, Note_on_c, 0, 68, 80
2, 266148, Note_off_c, 0, 72, 64
2, 266154, Note_off_c, 0, 68, 64
2, 266160, Note_on_c, 0, 67, 80
2, 266160, Note_on_c, 0, 75, 80
2, 266274, Note_off_c, 0, 75, 64
2, 266274, Note_off_c, 0, 67, 64
2, 266280, Note_on_c, 0, 73, 80
2, 266280, Note_on_c, 0, 65, 80
2, 266394, Note_off_c, 0, 65, 64
2, 266400, Note_on_c, 0, 67, 80
2, 266508, Note_off_c, 0, 73, 64
2, 266514, Note_off_c, 0, 67, 64
2, 266520, Note_on_c, 0, 68, 80
2, 266520, Note_on_c, 0, 72, 80
2, 266634, Note_off_c, 0, 72, 64
2, 266640, Note_on_c, 0, 70, 80
2, 266754, Note_off_c, 0, 68, 64
2, 266760, Note_on_c, 0, 67, 80
2, 266868, Note_off_c, 0, 70, 64
2, 266874, Note_off_c, 0, 67, 64
2, 266880, Note_on_c, 0, 73, 80
2, 266880, Note_on_c, 0, 65, 80
2, 266994, Note_off_c, 0, 65, 64
2, 266994, Note_off_c, 0, 73, 64
2, 267000, Note_on_c, 0, 72, 80
2, 267000, Note_on_c, 0, 64, 80
2, 267114, Note_off_c, 0, 64, 64
2, 267120, Note_on_c, 0, 65, 80
2, 267228, Note_off_c, 0, 72, 64
2, 267234, Note_off_c, 0, 65, 64
2, 267240, Note_on_c, 0, 67, 80
2, 267240, Note_on_c, 0, 70, 80
2, 267354, Note_off_c, 0, 70, 64
2, 267360, Note_on_c, 0, 68, 80
2, 267474, Note_off_c, 0, 67, 64
2, 267480, Note_on_c, 0, 65, 80
2, 267588, Note_off_c, 0, 68, 64
2, 267594, Note_off_c, 0, 65, 64
2, 267600, Note_on_c, 0, 72, 80
2, 267600, Note_on_c, 0, 63, 80
2, 267714, Note_off_c, 0, 63, 64
2, 267714, Note_off_c, 0, 72, 64
2, 267720, Note_on_c, 0, 70, 80
2, 267720, Note_on_c, 0, 62, 80
2, 267834, Note_off_c, 0, 62, 64
2, 267840, Note_on_c, 0, 63, 80
2, 267948, Note_off_c, 0, 70, 64
2, 267954, Note_off_c, 0, 63, 64
2, 267960, Note_on_c, 0, 68, 80
2, 267960, Note_on_c, 0, 65, 80
2, 268074, Note_off_c, 0, 65, 64
2, 268074, Note_off_c, 0, 68, 64
2, 268080, Note_on_c, 0, 67, 80
2, 268080, Note_on_c, 0, 58, 80
2, 268194, Note_off_c, 0, 58, 64
2, 268194, Note_off_c, 0, 67, 64
2, 268200, Note_on_c, 0, 63, 80
2, 268200, Note_on_c, 0, 72, 80
2, 268314, Note_off_c, 0, 72, 64
2, 268314, Note_off_c, 0, 63, 64
2, 268320, Note_on_c, 0, 67, 81
2, 268320, Note_on_c, 0, 70, 81
2, 268434, Note_off_c, 0, 70, 64
2, 268434, Note_off_c, 0, 67, 64
2, 268440, Note_on_c, 0, 65, 82
2, 268440, Note_on_c, 0, 68, 82
2, 268554, Note_off_c, 0, 68, 64
2, 268560, Note_on_c, 0, 70, 83
2, 268668, Note_off_c, 0, 65, 64
2, 268674, Note_off_c, 0, 70, 64
2, 268680, Note_on_c, 0, 72, 94
2, 268680, Note_on_c, 0, 63, 84
2, 268794, Note_off_c, 0, 63, 64
2, 268800, Note_on_c, 0, 62, 85
2, 268914, Note_off_c, 0, 72, 64
2, 268920, Note_on_c, 0, 70, 85
2, 269028, Note_off_c, 0, 62, 64
2, 269034, Note_off_c, 0, 70, 64
2, 269040, Note_on_c, 0, 65, 86
2, 269040, Note_on_c, 0, 68, 86
2, 269154, Note_off_c, 0, 68, 64
2, 269154, Note_off_c, 0, 65, 64
2, 269160, Note_on_c, 0, 63, 87
2, 269160, Note_on_c, 0, 67, 87
2, 269274, Note_off_c, 0, 67, 64
2, 269280, Note_on_c, 0, 68, 88
2, 269388, Note_off_c, 0, 63, 64
2, 269394, Note_off_c, 0, 68, 64
2, 269400, Note_on_c, 0, 70, 89
2, 269400, Note_on_c, 0, 61, 89
2, 269514, Note_off_c, 0, 61, 64
2, 269520, Note_on_c, 0, 60, 90
2, 269634, Note_off_c, 0, 70, 64
2, 269640, Note_on_c, 0, 68, 90
2, 269748, Note_off_c, 0, 60, 64
2, 269754, Note_off_c, 0, 68, 64
2, 269760, Note_on_c, 0, 58, 91
2, 269760, Note_on_c, 0, 66, 101
2, 269874, Note_off_c, 0, 58, 64
2, 269880, Note_on_c, 0, 57, 92
2, 270108, Note_off_c, 0, 66, 64
2, 270120, Note_on_c, 0, 66, 94
2, 270222, Note_off_c, 0, 57, 64
2, 270240, Note_on_c, 0, 61, 95
2, 270468, Note_off_c, 0, 66, 64
2, 270480, Note_on_c, 0, 65, 105
2, 270582, Note_off_c, 0, 61, 64
2, 270600, Note_on_c, 0, 55, 95
2, 270714, Note_off_c, 0, 65, 64
2, 270720, Note_on_c, 0, 63, 95
2, 270834, Note_off_c, 0, 63, 64
2, 270840, Note_on_c, 0, 61, 105
2, 270942, Note_off_c, 0, 55, 64
2, 270960, Note_on_c, 0, 51, 95
2, 271074, Note_off_c, 0, 61, 64
2, 271080, Note_on_c, 0, 59, 95
2, 271194, Note_off_c, 0, 59, 64
2, 271200, Note_on_c, 0, 60, 105
2, 271302, Note_off_c, 0, 51, 64
2, 271320, Note_on_c, 0, 57, 95
2, 271434, Note_off_c, 0, 57, 64
2, 271434, Note_off_c, 0, 60, 64
2, 271440, Note_on_c, 0, 61, 95
2, 271440, Note_on_c, 0, 58, 95
2, 271554, Note_off_c, 0, 58, 64
2, 271554, Note_off_c, 0, 61, 64
2, 271560, Note_on_c, 0, 60, 95
2, 271560, Note_on_c, 0, 63, 95
2, 271794, Note_off_c, 0, 63, 64
2, 271794, Note_off_c, 0, 60, 64
2, 271800, Note_on_c, 0, 60, 95
2, 271800, Note_on_c, 0, 57, 95
2, 271914, Note_off_c, 0, 57, 64
2, 271914, Note_off_c, 0, 60, 64
2, 271920, Note_on_c, 0, 61, 105
2, 271920, Note_on_c, 0, 58, 95
2, 272034, Note_off_c, 0, 58, 64
2, 272040, Note_on_c, 0, 51, 105
2, 272154, Note_off_c, 0, 61, 64
2, 272160, Note_on_c, 0, 58, 95
2, 272274, Note_off_c, 0, 58, 64
2, 272280, Note_on_c, 0, 63, 105
2, 272382, Note_off_c, 0, 51, 64
2, 272400, Note_on_c, 0, 56, 95
2, 272514, Note_off_c, 0, 63, 64
2, 272520, Note_on_c, 0, 62, 95
2, 272634, Note_off_c, 0, 62, 64
2, 272640, Note_on_c, 0, 60, 95
2, 272742, Note_off_c, 0, 56, 64
2, 272754, Note_off_c, 0, 60, 64
2, 272760, Note_on_c, 0, 53, 105
2, 272760, Note_on_c, 0, 62, 95
2, 272874, Note_off_c, 0, 62, 64
2, 272880, Note_on_c, 0, 63, 95
2, 272994, Note_off_c, 0, 63, 64
2, 273000, Note_on_c, 0, 65, 105
2, 273102, Note_off_c, 0, 53, 64
2, 273120, Note_on_c, 0, 58, 105
2, 273234, Note_off_c, 0, 65, 64
2, 273240, Note_on_c, 0, 63, 94
2, 273348, Note_off_c, 0, 58, 64
2, 273360, Note_on_c, 0, 61, 92
2, 273468, Note_off_c, 0, 63, 64
2, 273480, Note_on_c, 0, 68, 90
2, 273594, Note_off_c, 0, 61, 64
2, 273600, Note_on_c, 0, 60, 89
2, 273714, Note_off_c, 0, 60, 64
2, 273720, Note_on_c, 0, 63, 87
2, 273822, Note_off_c, 0, 68, 64
2, 273834, Note_off_c, 0, 63, 64
2, 273840, Note_on_c, 0, 73, 85
2, 273840, Note_on_c, 0, 61, 85
2, 273954, Note_off_c, 0, 61, 64
2, 273960, Note_on_c, 0, 70, 86
2, 274074, Note_off_c, 0, 70, 64
2, 274080, Note_on_c, 0, 68, 87
2, 274182, Note_off_c, 0, 73, 64
2, 274194, Note_off_c, 0, 68, 64
2, 274200, Note_on_c, 0, 67, 88
2, 274200, Note_on_c, 0, 70, 88
2, 274314, Note_off_c, 0, 67, 64
2, 274320, Note_on_c, 0, 65, 89
2, 274434, Note_off_c, 0, 65, 64
2, 274440, Note_on_c, 0, 67, 100
2, 274542, Note_off_c, 0, 70, 64
2, 274560, Note_on_c, 0, 75, 91
2, 274674, Note_off_c, 0, 67, 64
2, 274680, Note_on_c, 0, 70, 92
2, 274788, Note_off_c, 0, 75, 64
2, 274794, Note_off_c, 0, 70, 64
2, 274800, Note_on_c, 0, 72, 93
2, 274800, Note_on_c, 0, 68, 93
2, 274914, Note_off_c, 0, 68, 64
2, 274914, Note_off_c, 0, 72, 64
2, 274920, Note_on_c, 0, 77, 94
2, 274920, Note_on_c, 0, 67, 104
2, 275034, Note_off_c, 0, 67, 64
2, 275040, Note_on_c, 0, 65, 95
2, 275148, Note_off_c, 0, 77, 64
2, 275154, Note_off_c, 0, 65, 64
2, 275160, Note_on_c, 0, 73, 96
2, 275160, Note_on_c, 0, 70, 96
2, 275274, Note_off_c, 0, 70, 64
2, 275274, Note_off_c, 0, 73, 64
2, 275280, Note_on_c, 0, 79, 97
2, 275280, Note_on_c, 0, 68, 107
2, 275394, Note_off_c, 0, 68, 64
2, 275400, Note_on_c, 0, 67, 98
2, 275508, Note_off_c, 0, 79, 64
2, 275514, Note_off_c, 0, 67, 64
2, 275520, Note_on_c, 0, 75, 99
2, 275520, Note_on_c, 0, 72, 109
2, 275634, Note_off_c, 0, 75, 64
2, 275640, Note_on_c, 0, 80, 100
2, 275754, Note_off_c, 0, 80, 64
2, 275754, Note_off_c, 0, 72, 64
2, 275760, Note_on_c, 0, 79, 101
2, 275760, Note_on_c, 0, 75, 101
2, 275874, Note_off_c, 0, 75, 64
2, 275874, Note_off_c, 0, 79, 64
2, 275880, Note_on_c, 0, 73, 102
2, 275880, Note_on_c, 0, 77, 112
2, 276114, Note_off_c, 0, 77, 64
2, 276114, Note_off_c, 0, 73, 64
2, 276120, Note_on_c, 0, 72, 104
2, 276120, Note_on_c, 0, 75, 104
2, 276234, Note_off_c, 0, 75, 64
2, 276234, Note_off_c, 0, 72, 64
2, 276240, Note_on_c, 0, 67, 105
2, 276240, Note_on_c, 0, 70, 105
2, 276240, Note_on_c, 0, 73, 105
2, 276354, Note_off_c, 0, 73, 64
2, 276354, Note_off_c, 0, 70, 64
2, 276354, Note_off_c, 0, 67, 64
2, 276360, Note_on_c, 0, 68, 106
2, 276360, Note_on_c, 0, 72, 106
2, 276474, Note_off_c, 0, 72, 64
2, 276474, Note_off_c, 0, 68, 64
2, 276480, Note_on_c, 0, 65, 107
2, 276480, Note_on_c, 0, 68, 107
2, 276480, Note_on_c, 0, 73, 107
2, 276594, Note_off_c, 0, 73, 64
2, 276594, Note_off_c, 0, 68, 64
2, 276594, Note_off_c, 0, 65, 64
2, 276600, Note_on_c, 0, 68, 108
2, 276600, Note_on_c, 0, 70, 108
2, 276600, Note_on_c, 0, 65, 108
2, 276714, Note_off_c, 0, 65, 64
2, 276714, Note_off_c, 0, 70, 64
2, 276714, Note_off_c, 0, 68, 64
2, 276720, Control_c, 0, 64, 127
2, 276720, Note_on_c, 0, 70, 110
2, 276749, Note_off_c, 0, 70, 48
2, 276750, Note_on_c, 0, 72, 110
2, 276779, Note_off_c, 0, 72, 48
2, 276780, Note_on_c, 0, 70, 110
2, 276809, Note_off_c, 0, 70, 48
2, 276810, Note_on_c, 0, 72, 110
2, 276839, Note_off_c, 0, 72, 48
2, 276840, Note_on_c, 0, 70, 109
2, 276869, Note_off_c, 0, 70, 48
2, 276870, Note_on_c, 0, 72, 109
2, 276899, Note_off_c, 0, 72, 48
2, 276900, Note_on_c, 0, 70, 109
2, 276929, Note_off_c, 0, 70, 48
2, 276930, Note_on_c, 0, 72, 108
2, 276959, Note_off_c, 0, 72, 48
2, 276960, Note_on_c, 0, 70, 108
2, 276989, Note_off_c, 0, 70, 48
2, 276990, Note_on_c, 0, 72, 108
2, 277019, Note_off_c, 0, 72, 48
2, 277020, Note_on_c, 0, 69, 107
2, 277024, Control_c, 0, 64, 0
2, 277049, Note_off_c, 0, 69, 48
2, 277050, Note_on_c, 0, 70, 107
2, 277079, Note_off_c, 0, 70, 48
2, 277080, Control_c, 0, 64, 127
2, 277080, Note_on_c, 0, 61, 107
2, 277080, Note_on_c, 0, 67, 107
2, 277080, Note_on_c, 0, 70, 107
2, 277080, Note_on_c, 0, 73, 107
2, 277194, Note_off_c, 0, 73, 64
2, 277194, Note_off_c, 0, 70, 64
2, 277194, Note_off_c, 0, 67, 64
2, 277194, Note_off_c, 0, 61, 64
2, 277200, Note_on_c, 0, 70, 105
2, 277314, Note_off_c, 0, 70, 64
2, 277320, Note_on_c, 0, 67, 104
2, 277434, Note_off_c, 0, 67, 64
2, 277440, Note_on_c, 0, 61, 103
2, 277554, Note_off_c, 0, 61, 64
2, 277560, Note_on_c, 0, 58, 102
2, 277674, Note_off_c, 0, 58, 64
2, 277680, Note_on_c, 0, 55, 100
2, 277794, Note_off_c, 0, 55, 64
2, 277800, Note_on_c, 0, 49, 99
2, 277914, Note_off_c, 0, 49, 64
2, 277920, Note_on_c, 0, 46, 98
2, 278034, Note_off_c, 0, 46, 64
2, 278040, Note_on_c, 0, 43, 97
2, 278154, Note_off_c, 0, 43, 64
2, 278160, Note_on_c, 0, 39, 95
2, 278274, Note_off_c, 0, 39, 64
2, 278280, Note_on_c, 0, 43, 94
2, 278394, Note_off_c, 0, 43, 64
2, 278400, Note_on_c, 0, 46, 93
2, 278514, Note_off_c, 0, 46, 64
2, 278520, Note_on_c, 0, 49, 92
2, 278634, Note_off_c, 0, 49, 64
2, 278640, Note_on_c, 0, 55, 90
2, 278754, Note_off_c, 0, 55, 64
2, 278760, Note_on_c, 0, 58, 89
2, 278874, Note_off_c, 0, 58, 64
2, 278880, Note_on_c, 0, 61, 88
2, 278994, Note_off_c, 0, 61, 64
2, 279000, Note_on_c, 0, 67, 87
2, 279114, Note_off_c, 0, 67, 64
2, 279120, Note_on_c, 0, 70, 85
2, 279234, Note_off_c, 0, 70, 64
2, 279240, Note_on_c, 0, 70, 84
2, 279240, Note_on_c, 0, 67, 84
2, 279240, Note_on_c, 0, 73, 84
2, 279240, Note_on_c, 0, 61, 84
2, 279936, Control_c, 0, 64, 0
2, 279942, Note_off_c, 0, 61, 64
2, 279942, Note_off_c, 0, 73, 64
2, 279942, Note_off_c, 0, 67, 64
2, 279942, Note_off_c, 0, 70, 64
2, 279960, Control_c, 0, 64, 127
2, 279960, Note_on_c, 0, 74, 80
2, 279960, Note_on_c, 0, 62, 80
2, 279960, Note_on_c, 0, 67, 80
2, 279960, Note_on_c, 0, 70, 80
2, 280017, Note_off_c, 0, 70, 56
2, 280017, Note_off_c, 0, 67, 56
2, 280017, Note_off_c, 0, 62, 56
2, 280017, Note_off_c, 0, 74, 56
2, 280020, Note_on_c, 0, 70, 80
2, 280077, Note_off_c, 0, 70, 56
2, 280080, Note_on_c, 0, 67, 80
2, 280137, Note_off_c, 0, 67, 56
2, 280140, Note_on_c, 0, 62, 80
2, 280197, Note_off_c, 0, 62, 56
2, 280200, Note_on_c, 0, 58, 80
2, 280257, Note_off_c, 0, 58, 56
2, 280260, Note_on_c, 0, 55, 80
2, 280317, Note_off_c, 0, 55, 56
2, 280560, Note_on_c, 0, 50, 80
2, 280560, Note_on_c, 0, 55, 80
2, 280560, Note_on_c, 0, 62, 80
2, 280617, Note_off_c, 0, 62, 56
2, 280617, Note_off_c, 0, 55, 56
2, 280617, Note_off_c, 0, 50, 56
2, 280620, Note_on_c, 0, 62, 80
2, 280620, Note_on_c, 0, 55, 80
2, 280620, Note_on_c, 0, 50, 80
2, 280677, Note_off_c, 0, 50, 56
2, 280677, Note_off_c, 0, 55, 56
2, 280677, Note_off_c, 0, 62, 56
2, 280680, Note_on_c, 0, 50, 80
2, 280680, Note_on_c, 0, 55, 80
2, 280680, Note_on_c, 0, 62, 80
2, 280728, Control_c, 0, 64, 0
2, 280737, Note_off_c, 0, 62, 56
2, 280737, Note_off_c, 0, 55, 56
2, 280737, Note_off_c, 0, 50, 56
2, 280740, Control_c, 0, 64, 127
2, 280740, Note_on_c, 0, 58, 80
2, 280740, Note_on_c, 0, 50, 80
2, 280740, Note_on_c, 0, 55, 80
2, 280740, Note_on_c, 0, 62, 80
2, 280797, Note_off_c, 0, 62, 56
2, 280797, Note_off_c, 0, 55, 56
2, 280797, Note_off_c, 0, 50, 56
2, 280797, Note_off_c, 0, 58, 56
2, 280800, Note_on_c, 0, 62, 80
2, 280800, Note_on_c, 0, 55, 80
2, 280800, Note_on_c, 0, 58, 80
2, 280857, Note_off_c, 0, 58, 56
2, 280857, Note_off_c, 0, 55, 56
2, 280857, Note_off_c, 0, 62, 56
2, 280860, Note_on_c, 0, 62, 80
2, 280860, Note_on_c, 0, 55, 80
2, 280860, Note_on_c, 0, 58, 80
2, 280917, Note_off_c, 0, 58, 56
2, 280917, Note_off_c, 0, 55, 56
2, 280917, Note_off_c, 0, 62, 56
2, 280920, Note_on_c, 0, 55, 80
2, 280920, Note_on_c, 0, 58, 80
2, 280920, Note_on_c, 0, 62, 80
2, 280977, Note_off_c, 0, 62, 56
2, 280977, Note_off_c, 0, 58, 56
2, 280977, Note_off_c, 0, 55, 56
2, 280980, Note_on_c, 0, 58, 80
2, 280980, Note_on_c, 0, 55, 80
2, 280980, Note_on_c, 0, 62, 80
2, 281037, Note_off_c, 0, 62, 56
2, 281037, Note_off_c, 0, 55, 56
2, 281037, Note_off_c, 0, 58, 56
2, 281040, Note_on_c, 0, 62, 80
2, 281070, Note_off_c, 0, 62, 64
2, 281070, Note_on_c, 0, 74, 90
2, 281334, Note_off_c, 0, 74, 64
2, 281340, Control_c, 0, 64, 0
2, 281340, Note_on_c, 0, 72, 90
2, 281397, Note_off_c, 0, 72, 56
2, 281400, Note_on_c, 0, 72, 90
2, 281457, Note_off_c, 0, 72, 56
2, 281460, Note_on_c, 0, 70, 90
2, 281517, Note_off_c, 0, 70, 56
2, 281550, Note_on_c, 0, 69, 90
2, 281579, Note_off_c, 0, 69, 48
2, 281580, Note_on_c, 0, 69, 90
2, 281637, Note_off_c, 0, 69, 56
2, 281640, Note_on_c, 0, 70, 90
2, 281697, Note_off_c, 0, 70, 56
2, 281730, Note_on_c, 0, 67, 90
2, 281759, Note_off_c, 0, 67, 48
2, 281760, Note_on_c, 0, 67, 90
2, 281874, Note_off_c, 0, 67, 64
2, 281880, Note_on_c, 0, 66, 90
2, 281892, Control_c, 0, 64, 127
2, 282044, Control_c, 0, 64, 0
2, 282054, Note_off_c, 0, 66, 64
2, 282060, Note_on_c, 0, 75, 92
2, 282117, Note_off_c, 0, 75, 56
2, 282180, Note_on_c, 0, 75, 92
2, 282237, Note_off_c, 0, 75, 56
2, 282240, Note_on_c, 0, 77, 93
2, 282269, Note_off_c, 0, 77, 48
2, 282270, Note_on_c, 0, 75, 93
2, 282299, Note_off_c, 0, 75, 48
2, 282360, Note_on_c, 0, 74, 94
2, 282417, Note_off_c, 0, 74, 56
2, 282420, Note_on_c, 0, 75, 94
2, 282449, Note_off_c, 0, 75, 48
2, 282450, Note_on_c, 0, 74, 94
2, 282479, Note_off_c, 0, 74, 48
2, 282480, Note_on_c, 0, 74, 95
2, 282594, Note_off_c, 0, 74, 64
2, 282600, Note_on_c, 0, 79, 95
2, 282717, Note_off_c, 0, 79, 64
2, 282720, Note_on_c, 0, 79, 96
2, 282777, Note_off_c, 0, 79, 56
2, 282780, Note_on_c, 0, 77, 97
2, 282837, Note_off_c, 0, 77, 56
2, 282900, Note_on_c, 0, 77, 97
2, 282957, Note_off_c, 0, 77, 56
2, 282960, Note_on_c, 0, 75, 98
2, 283017, Note_off_c, 0, 75, 56
2, 283080, Note_on_c, 0, 74, 99
2, 283137, Note_off_c, 0, 74, 56
2, 283140, Note_on_c, 0, 72, 99
2, 283257, Note_off_c, 0, 72, 64
2, 283260, Note_on_c, 0, 70, 100
2, 283317, Note_off_c, 0, 70, 56
2, 283320, Note_on_c, 0, 72, 99
2, 283349, Note_off_c, 0, 72, 48
2, 283350, Note_on_c, 0, 74, 98
2, 283379, Note_off_c, 0, 74, 48
2, 283440, Note_on_c, 0, 74, 97
2, 283497, Note_off_c, 0, 74, 56
2, 283500, Note_on_c, 0, 72, 96
2, 283529, Note_off_c, 0, 72, 48
2, 283530, Note_on_c, 0, 70, 96
2, 283559, Note_off_c, 0, 70, 48
2, 283560, Control_c, 0, 64, 127
2, 283560, Note_on_c, 0, 70, 95
2, 283712, Control_c, 0, 64, 0
2, 283731, Note_off_c, 0, 70, 64
2, 283740, Note_on_c, 0, 69, 93
2, 283911, Note_off_c, 0, 69, 64
2, 283920, Control_c, 0, 64, 127
2, 283920, Note_on_c, 0, 70, 90
2, 284132, Control_c, 0, 64, 0
2, 284157, Note_off_c, 0, 70, 64
2, 284160, Note_on_c, 0, 69, 91
2, 284217, Note_off_c, 0, 69, 56
2, 284220, Note_on_c, 0, 70, 91
2, 284249, Note_off_c, 0, 70, 48
2, 284280, Control_c, 0, 64, 127
2, 284280, Note_on_c, 0, 72, 91
2, 284508, Control_c, 0, 64, 0
2, 284517, Note_off_c, 0, 72, 64
2, 284520, Note_on_c, 0, 71, 92
2, 284577, Note_off_c, 0, 71, 56
2, 284580, Note_on_c, 0, 72, 93
2, 284609, Note_off_c, 0, 72, 48
2, 284640, Control_c, 0, 64, 127
2, 284640, Note_on_c, 0, 74, 93
2, 284868, Control_c, 0, 64, 0
2, 284877, Note_off_c, 0, 74, 64
2, 284880, Note_on_c, 0, 73, 94
2, 284937, Note_off_c, 0, 73, 56
2, 284940, Note_on_c, 0, 74, 94
2, 284969, Note_off_c, 0, 74, 48
2, 285060, Note_on_c, 0, 74, 95
2, 285117, Note_off_c, 0, 74, 56
2, 285120, Note_on_c, 0, 75, 95
2, 285177, Note_off_c, 0, 75, 56
2, 285240, Note_on_c, 0, 78, 96
2, 285297, Note_off_c, 0, 78, 56
2, 285300, Note_on_c, 0, 79, 96
2, 285357, Note_off_c, 0, 79, 56
2, 285420, Note_on_c, 0, 79, 96
2, 285449, Note_off_c, 0, 79, 48
2, 285450, Note_on_c, 0, 77, 97
2, 285479, Note_off_c, 0, 77, 48
2, 285480, Note_on_c, 0, 82, 97
2, 285597, Note_off_c, 0, 82, 64
2, 285600, Note_on_c, 0, 81, 97
2, 285629, Note_off_c, 0, 81, 48
2, 285630, Note_on_c, 0, 79, 97
2, 285659, Note_off_c, 0, 79, 48
2, 285660, Note_on_c, 0, 91, 98
2, 285777, Note_off_c, 0, 91, 64
2, 285780, Note_on_c, 0, 89, 98
2, 285837, Note_off_c, 0, 89, 56
2, 285840, Note_on_c, 0, 74, 98
2, 285897, Note_off_c, 0, 74, 56
2, 285990, Note_on_c, 0, 77, 99
2, 286019, Note_off_c, 0, 77, 48
2, 286020, Note_on_c, 0, 75, 99
2, 286049, Note_off_c, 0, 75, 48
2, 286050, Note_on_c, 0, 69, 99
2, 286079, Note_off_c, 0, 69, 48
2, 286080, Note_on_c, 0, 69, 80
2, 286110, Note_off_c, 0, 69, 64
2, 286110, Note_on_c, 0, 72, 75
2, 286422, Note_off_c, 0, 72, 64
2, 286440, Note_on_c, 0, 70, 75
2, 286611, Note_off_c, 0, 70, 64
2, 286620, Control_c, 0, 64, 127
2, 286620, Note_on_c, 0, 74, 75
2, 286791, Note_off_c, 0, 74, 64
2, 286792, Control_c, 0, 64, 0
2, 286800, Note_on_c, 0, 74, 75
2, 286914, Note_off_c, 0, 74, 64
2, 286920, Note_on_c, 0, 74, 77
2, 286977, Note_off_c, 0, 74, 56
2, 287100, Note_on_c, 0, 68, 81
2, 287274, Note_off_c, 0, 68, 64
2, 287280, Note_on_c, 0, 67, 85
2, 287337, Note_off_c, 0, 67, 56
2, 287340, Note_on_c, 0, 77, 86
2, 287454, Note_off_c, 0, 77, 64
2, 287460, Note_on_c, 0, 74, 88
2, 287517, Note_off_c, 0, 74, 56
2, 287520, Note_on_c, 0, 74, 80
2, 287550, Note_off_c, 0, 74, 64
2, 287550, Note_on_c, 0, 77, 90
2, 287634, Note_off_c, 0, 77, 64
2, 287640, Note_on_c, 0, 75, 91
2, 287697, Note_off_c, 0, 75, 56
2, 287700, Note_on_c, 0, 75, 92
2, 287760, Control_c, 0, 64, 127
2, 287920, Control_c, 0, 64, 0
2, 287937, Note_off_c, 0, 75, 64
2, 287940, Note_on_c, 0, 75, 95
2, 287997, Note_off_c, 0, 75, 56
2, 288000, Note_on_c, 0, 75, 96
2, 288057, Note_off_c, 0, 75, 56
2, 288120, Note_on_c, 0, 74, 98
2, 288177, Note_off_c, 0, 74, 56
2, 288180, Note_on_c, 0, 74, 99
2, 288237, Note_off_c, 0, 74, 56
2, 288300, Note_on_c, 0, 72, 100
2, 288357, Note_off_c, 0, 72, 56
2, 288360, Note_on_c, 0, 72, 99
2, 288417, Note_off_c, 0, 72, 56
2, 288480, Note_on_c, 0, 70, 97
2, 288537, Note_off_c, 0, 70, 56
2, 288540, Note_on_c, 0, 70, 96
2, 288597, Note_off_c, 0, 70, 56
2, 288660, Note_on_c, 0, 68, 95
2, 288717, Note_off_c, 0, 68, 56
2, 288720, Note_on_c, 0, 68, 94
2, 288777, Note_off_c, 0, 68, 56
2, 288840, Note_on_c, 0, 67, 92
2, 288897, Note_off_c, 0, 67, 56
2, 288900, Note_on_c, 0, 67, 91
2, 288957, Note_off_c, 0, 67, 56
2, 288960, Note_on_c, 0, 67, 90
2, 289074, Note_off_c, 0, 67, 64
2, 289080, Note_on_c, 0, 70, 90
2, 289197, Note_off_c, 0, 70, 64
2, 289200, Note_on_c, 0, 69, 90
2, 289257, Note_off_c, 0, 69, 56
2, 289260, Note_on_c, 0, 67, 90
2, 289434, Note_off_c, 0, 67, 64
2, 289440, Note_on_c, 0, 66, 90
2, 289497, Note_off_c, 0, 66, 56
2, 289620, Note_on_c, 0, 62, 90
2, 289677, Note_off_c, 0, 62, 56
2, 289680, Note_on_c, 0, 67, 90
2, 289974, Note_off_c, 0, 67, 64
2, 289980, Note_on_c, 0, 67, 92
2, 290037, Note_off_c, 0, 67, 56
2, 290040, Note_on_c, 0, 66, 92
2, 290097, Note_off_c, 0, 66, 56
2, 290160, Note_on_c, 0, 66, 93
2, 290217, Note_off_c, 0, 66, 56
2, 290340, Note_on_c, 0, 62, 94
2, 290397, Note_off_c, 0, 62, 56
2, 290400, Note_on_c, 0, 70, 95
2, 290694, Note_off_c, 0, 70, 64
2, 290700, Note_on_c, 0, 70, 97
2, 290757, Note_off_c, 0, 70, 56
2, 290760, Note_on_c, 0, 69, 97
2, 290817, Note_off_c, 0, 69, 56
2, 290880, Note_on_c, 0, 69, 98
2, 290937, Note_off_c, 0, 69, 56
2, 291060, Note_on_c, 0, 71, 99
2, 291117, Note_off_c, 0, 71, 56
2, 291240, Note_on_c, 0, 71, 98
2, 291269, Note_off_c, 0, 71, 48
2, 291270, Note_on_c, 0, 72, 98
2, 291299, Note_off_c, 0, 72, 48
2, 291420, Note_on_c, 0, 77, 95
2, 291449, Note_off_c, 0, 77, 48
2, 291450, Note_on_c, 0, 75, 95
2, 291479, Note_off_c, 0, 75, 48
2, 291600, Note_on_c, 0, 75, 92
2, 291629, Note_off_c, 0, 75, 48
2, 291630, Note_on_c, 0, 74, 92
2, 291659, Note_off_c, 0, 74, 48
2, 291780, Note_on_c, 0, 67, 89
2, 291809, Note_off_c, 0, 67, 48
2, 291810, Note_on_c, 0, 66, 89
2, 291839, Note_off_c, 0, 66, 48
2, 291960, Note_on_c, 0, 66, 86
2, 292017, Note_off_c, 0, 66, 56
2, 292020, Note_on_c, 0, 69, 85
2, 292080, Note_on_c, 0, 62, 84
2, 292137, Note_off_c, 0, 62, 56
2, 292140, Note_on_c, 0, 63, 83
2, 292169, Note_off_c, 0, 63, 48
2, 292170, Note_on_c, 0, 62, 82
2, 292191, Note_off_c, 0, 69, 64
2, 292199, Note_off_c, 0, 62, 48
2, 292200, Note_on_c, 0, 62, 82
2, 292200, Note_on_c, 0, 67, 82
2, 292314, Note_off_c, 0, 67, 64
2, 292314, Note_off_c, 0, 62, 64
2, 292500, Note_on_c, 0, 58, 77
2, 292557, Note_off_c, 0, 58, 56
2, 292680, Note_on_c, 0, 57, 67
2, 292737, Note_off_c, 0, 57, 56
2, 292860, Note_on_c, 0, 62, 71
2, 292917, Note_off_c, 0, 62, 56
2, 293040, Note_on_c, 0, 55, 75
2, 293040, Note_on_c, 0, 59, 75
2, 293097, Note_off_c, 0, 59, 56
2, 293097, Note_off_c, 0, 55, 56
2, 293216, Control_c, 0, 64, 127
2, 293220, Note_on_c, 0, 55, 78
2, 293220, Note_on_c, 0, 50, 78
2, 293220, Note_on_c, 0, 59, 78
2, 293277, Note_off_c, 0, 59, 56
2, 293277, Note_off_c, 0, 50, 56
2, 293277, Note_off_c, 0, 55, 56
2, 293400, Note_on_c, 0, 59, 82
2, 293400, Note_on_c, 0, 55, 82
2, 293400, Note_on_c, 0, 50, 82
2, 293457, Note_off_c, 0, 50, 56
2, 293457, Note_off_c, 0, 55, 56
2, 293457, Note_off_c, 0, 59, 56
2, 293580, Note_on_c, 0, 59, 86
2, 293580, Note_on_c, 0, 55, 86
2, 293580, Note_on_c, 0, 50, 86
2, 293637, Note_off_c, 0, 50, 56
2, 293637, Note_off_c, 0, 55, 56
2, 293637, Note_off_c, 0, 59, 56
2, 293760, Note_on_c, 0, 55, 90
2, 293760, Note_on_c, 0, 50, 90
2, 293760, Note_on_c, 0, 59, 90
2, 293817, Note_off_c, 0, 59, 56
2, 293817, Note_off_c, 0, 50, 56
2, 293817, Note_off_c, 0, 55, 56
2, 293940, Note_on_c, 0, 59, 93
2, 293940, Note_on_c, 0, 55, 93
2, 293940, Note_on_c, 0, 50, 93
2, 293997, Note_off_c, 0, 50, 56
2, 293997, Note_off_c, 0, 55, 56
2, 293997, Note_off_c, 0, 59, 56
2, 294120, Note_on_c, 0, 50, 97
2, 294120, Note_on_c, 0, 59, 97
2, 294120, Note_on_c, 0, 55, 97
2, 294120, Note_on_c, 0, 62, 97
2, 294177, Note_off_c, 0, 62, 56
2, 294177, Note_off_c, 0, 55, 56
2, 294177, Note_off_c, 0, 59, 56
2, 294177, Note_off_c, 0, 50, 56
2, 294300, Note_on_c, 0, 50, 101
2, 294300, Note_on_c, 0, 55, 101
2, 294300, Note_on_c, 0, 59, 101
2, 294300, Note_on_c, 0, 62, 101
2, 294357, Note_off_c, 0, 62, 56
2, 294357, Note_off_c, 0, 59, 56
2, 294357, Note_off_c, 0, 55, 56
2, 294357, Note_off_c, 0, 50, 56
2, 294480, Note_on_c, 0, 62, 105
2, 294480, Note_on_c, 0, 59, 105
2, 294480, Note_on_c, 0, 55, 105
2, 294480, Note_on_c, 0, 50, 105
2, 294537, Note_off_c, 0, 50, 56
2, 294537, Note_off_c, 0, 55, 56
2, 294537, Note_off_c, 0, 59, 56
2, 294537, Note_off_c, 0, 62, 56
2, 294660, Note_on_c, 0, 59, 108
2, 294660, Note_on_c, 0, 62, 108
2, 294660, Note_on_c, 0, 55, 108
2, 294660, Note_on_c, 0, 50, 108
2, 294708, Control_c, 0, 64, 0
2, 294717, Note_off_c, 0, 50, 56
2, 294717, Note_off_c, 0, 55, 56
2, 294717, Note_off_c, 0, 62, 56
2, 294717, Note_off_c, 0, 59, 56
2, 294840, Control_c, 0, 64, 127
2, 295380, Note_on_c, 0, 55, 90
2, 295437, Note_off_c, 0, 55, 56
2, 295440, Note_on_c, 0, 59, 88
2, 295554, Note_off_c, 0, 59, 64
2, 295560, Note_on_c, 0, 62, 84
2, 295617, Note_off_c, 0, 62, 56
2, 295620, Note_on_c, 0, 67, 82
2, 295734, Note_off_c, 0, 67, 64
2, 295740, Note_on_c, 0, 71, 79
2, 295797, Note_off_c, 0, 71, 56
2, 295800, Note_on_c, 0, 74, 77
2, 296136, Control_c, 0, 64, 0
2, 296142, Note_off_c, 0, 74, 64
2, 296160, Note_on_c, 0, 69, 65
2, 296502, Note_off_c, 0, 69, 64
2, 296520, Note_on_c, 0, 72, 65
2, 296862, Note_off_c, 0, 72, 64
2, 296880, Note_on_c, 0, 67, 65
2, 297222, Note_off_c, 0, 67, 64
2, 297240, Note_on_c, 0, 71, 65
2, 297582, Note_off_c, 0, 71, 64
2, 297600, Note_on_c, 0, 66, 65
2, 297942, Note_off_c, 0, 66, 64
2, 297960, Note_on_c, 0, 67, 65
2, 298188, Note_off_c, 0, 67, 64
2, 298200, Note_on_c, 0, 69, 65
2, 298314, Note_off_c, 0, 69, 64
2, 298320, Note_on_c, 0, 71, 65
2, 298680, Note_on_c, 0, 79, 65
2, 298794, Note_off_c, 0, 71, 64
2, 298800, Note_on_c, 0, 72, 65
2, 298914, Note_off_c, 0, 72, 64
2, 298920, Note_on_c, 0, 71, 65
2, 299022, Note_off_c, 0, 79, 64
2, 299040, Note_on_c, 0, 74, 65
2, 299154, Note_off_c, 0, 71, 64
2, 299160, Note_on_c, 0, 69, 65
2, 299274, Note_off_c, 0, 69, 64
2, 299280, Note_on_c, 0, 68, 65
2, 299382, Note_off_c, 0, 74, 64
2, 299394, Note_off_c, 0, 68, 64
2, 299400, Note_on_c, 0, 69, 65
2, 299400, Note_on_c, 0, 78, 65
2, 299514, Note_off_c, 0, 69, 64
2, 299520, Note_on_c, 0, 71, 65
2, 299634, Note_off_c, 0, 71, 64
2, 299640, Note_on_c, 0, 69, 65
2, 299742, Note_off_c, 0, 78, 64
2, 299760, Note_on_c, 0, 73, 65
2, 299874, Note_off_c, 0, 69, 64
2, 299880, Note_on_c, 0, 67, 65
2, 299994, Note_off_c, 0, 67, 64
2, 300000, Note_on_c, 0, 66, 65
2, 300102, Note_off_c, 0, 73, 64
2, 300114, Note_off_c, 0, 66, 64
2, 300120, Note_on_c, 0, 67, 65
2, 300120, Note_on_c, 0, 76, 65
2, 300234, Note_off_c, 0, 67, 64
2, 300240, Note_on_c, 0, 69, 65
2, 300354, Note_off_c, 0, 69, 64
2, 300360, Note_on_c, 0, 67, 75
2, 300462, Note_off_c, 0, 76, 64
2, 300480, Note_on_c, 0, 69, 65
2, 300594, Note_off_c, 0, 67, 64
2, 300600, Note_on_c, 0, 64, 65
2, 300714, Note_off_c, 0, 64, 64
2, 300720, Note_on_c, 0, 66, 65
2, 300822, Note_off_c, 0, 69, 64
2, 300834, Note_off_c, 0, 66, 64
2, 300840, Note_on_c, 0, 67, 65
2, 300840, Note_on_c, 0, 71, 65
2, 300954, Note_off_c, 0, 67, 64
2, 300960, Note_on_c, 0, 66, 65
2, 301068, Note_off_c, 0, 71, 64
2, 301074, Note_off_c, 0, 66, 64
2, 301080, Note_on_c, 0, 64, 65
2, 301080, Note_on_c, 0, 73, 65
2, 301194, Note_off_c, 0, 73, 64
2, 301194, Note_off_c, 0, 64, 64
2, 301200, Note_on_c, 0, 66, 65
2, 301200, Note_on_c, 0, 74, 65
2, 301314, Note_off_c, 0, 74, 64
2, 301314, Note_off_c, 0, 66, 64
2, 301320, Note_on_c, 0, 69, 65
2, 301320, Note_on_c, 0, 72, 65
2, 301434, Note_off_c, 0, 72, 64
2, 301434, Note_off_c, 0, 69, 64
2, 301440, Note_on_c, 0, 67, 65
2, 301440, Note_on_c, 0, 71, 65
2, 301554, Note_off_c, 0, 71, 64
2, 301560, Note_on_c, 0, 69, 65
2, 301674, Note_off_c, 0, 67, 64
2, 301680, Note_on_c, 0, 65, 65
2, 301788, Note_off_c, 0, 69, 64
2, 301800, Note_on_c, 0, 71, 65
2, 301908, Note_off_c, 0, 65, 64
2, 301914, Note_off_c, 0, 71, 64
2, 301920, Note_on_c, 0, 72, 65
2, 301920, Note_on_c, 0, 64, 65
2, 302034, Note_off_c, 0, 72, 64
2, 302040, Note_on_c, 0, 71, 65
2, 302154, Note_off_c, 0, 71, 64
2, 302160, Note_on_c, 0, 69, 75
2, 302262, Note_off_c, 0, 64, 64
2, 302280, Note_on_c, 0, 63, 65
2, 302394, Note_off_c, 0, 69, 64
2, 302400, Note_on_c, 0, 67, 65
2, 302508, Note_off_c, 0, 63, 64
2, 302514, Note_off_c, 0, 67, 64
2, 302520, Note_on_c, 0, 69, 65
2, 302520, Note_on_c, 0, 66, 65
2, 302634, Note_off_c, 0, 66, 64
2, 302634, Note_off_c, 0, 69, 64
2, 302640, Note_on_c, 0, 71, 65
2, 302640, Note_on_c, 0, 62, 65
2, 302754, Note_off_c, 0, 71, 64
2, 302760, Note_on_c, 0, 69, 65
2, 302874, Note_off_c, 0, 69, 64
2, 302880, Note_on_c, 0, 67, 75
2, 303114, Note_off_c, 0, 62, 64
2, 303120, Note_on_c, 0, 61, 65
2, 303234, Note_off_c, 0, 61, 64
2, 303240, Note_on_c, 0, 62, 65
2, 303342, Note_off_c, 0, 67, 64
2, 303354, Note_off_c, 0, 62, 64
2, 303360, Note_on_c, 0, 69, 65
2, 303360, Note_on_c, 0, 62, 65
2, 303474, Note_off_c, 0, 69, 64
2, 303480, Note_on_c, 0, 71, 65
2, 303594, Note_off_c, 0, 71, 64
2, 303600, Note_on_c, 0, 69, 65
2, 303714, Note_off_c, 0, 69, 64
2, 303720, Note_on_c, 0, 71, 65
2, 303834, Note_off_c, 0, 62, 64
2, 303840, Note_on_c, 0, 67, 65
2, 303948, Note_off_c, 0, 71, 64
2, 303960, Note_on_c, 0, 72, 75
2, 304068, Note_off_c, 0, 67, 64
2, 304080, Note_on_c, 0, 65, 65
2, 304194, Note_off_c, 0, 72, 64
2, 304200, Note_on_c, 0, 71, 65
2, 304308, Note_off_c, 0, 65, 64
2, 304314, Note_off_c, 0, 71, 64
2, 304320, Note_on_c, 0, 74, 65
2, 304320, Note_on_c, 0, 62, 65
2, 304434, Note_off_c, 0, 62, 64
2, 304434, Note_off_c, 0, 74, 64
2, 304440, Note_on_c, 0, 79, 65
2, 304560, Note_on_c, 0, 75, 65
2, 304674, Note_off_c, 0, 75, 64
2, 304680, Note_on_c, 0, 72, 65
2, 304782, Note_off_c, 0, 79, 64
2, 304794, Note_off_c, 0, 72, 64
2, 304800, Note_on_c, 0, 74, 65
2, 304800, Note_on_c, 0, 71, 65
2, 305142, Note_off_c, 0, 71, 64
2, 305142, Note_off_c, 0, 74, 64
2, 305160, Note_on_c, 0, 77, 65
2, 305160, Note_on_c, 0, 71, 65
2, 305502, Note_off_c, 0, 71, 64
2, 305502, Note_off_c, 0, 77, 64
2, 305520, Note_on_c, 0, 72, 65
2, 305520, Note_on_c, 0, 69, 65
2, 305748, Note_off_c, 0, 69, 64
2, 305748, Note_off_c, 0, 72, 64
2, 305760, Note_on_c, 0, 74, 65
2, 305760, Note_on_c, 0, 71, 65
2, 305874, Note_off_c, 0, 71, 64
2, 305874, Note_off_c, 0, 74, 64
2, 305880, Note_on_c, 0, 75, 65
2, 305880, Note_on_c, 0, 67, 65
2, 306222, Note_off_c, 0, 67, 64
2, 306222, Note_off_c, 0, 75, 64
2, 306240, Note_on_c, 0, 69, 65
2, 306240, Note_on_c, 0, 65, 65
2, 306468, Note_off_c, 0, 65, 64
2, 306468, Note_off_c, 0, 69, 64
2, 306480, Note_on_c, 0, 65, 65
2, 306480, Note_on_c, 0, 74, 75
2, 306828, Note_off_c, 0, 74, 64
2, 306828, Note_off_c, 0, 65, 64
2, 306840, Note_on_c, 0, 72, 65
2, 306840, Note_on_c, 0, 63, 65
2, 306954, Note_off_c, 0, 63, 64
2, 306954, Note_off_c, 0, 72, 64
2, 306960, Note_on_c, 0, 71, 65
2, 306960, Note_on_c, 0, 62, 65
2, 307188, Note_off_c, 0, 62, 64
2, 307188, Note_off_c, 0, 71, 64
2, 307560, Note_on_c, 0, 67, 65
2, 307680, Note_on_c, 0, 59, 65
2, 307794, Note_off_c, 0, 59, 64
2, 307800, Note_on_c, 0, 62, 65
2, 307914, Note_off_c, 0, 62, 64
2, 307920, Note_on_c, 0, 60, 65
2, 308022, Note_off_c, 0, 67, 64
2, 308034, Note_off_c, 0, 60, 64
2, 308040, Note_on_c, 0, 72, 75
2, 308040, Note_on_c, 0, 63, 65
2, 308154, Note_off_c, 0, 63, 64
2, 308160, Note_on_c, 0, 62, 65
2, 308274, Note_off_c, 0, 62, 64
2, 308280, Note_on_c, 0, 65, 65
2, 308394, Note_off_c, 0, 65, 64
2, 308400, Note_on_c, 0, 63, 65
2, 308457, Note_off_c, 0, 63, 56
2, 308460, Note_on_c, 0, 62, 65
2, 308517, Note_off_c, 0, 62, 56
2, 308520, Note_on_c, 0, 60, 65
2, 308634, Note_off_c, 0, 60, 64
2, 308742, Note_off_c, 0, 72, 64
2, 308760, Note_on_c, 0, 69, 75
2, 309120, Note_on_c, 0, 62, 65
2, 309234, Note_off_c, 0, 62, 64
2, 309240, Note_on_c, 0, 67, 65
2, 309354, Note_off_c, 0, 67, 64
2, 309360, Note_on_c, 0, 66, 65
2, 309462, Note_off_c, 0, 69, 64
2, 309474, Note_off_c, 0, 66, 64
2, 309480, Note_on_c, 0, 74, 75
2, 309480, Note_on_c, 0, 69, 65
2, 309594, Note_off_c, 0, 69, 64
2, 309600, Note_on_c, 0, 67, 65
2, 309714, Note_off_c, 0, 67, 64
2, 309720, Note_on_c, 0, 72, 65
2, 309834, Note_off_c, 0, 72, 64
2, 309840, Note_on_c, 0, 70, 65
2, 309897, Note_off_c, 0, 70, 56
2, 309900, Note_on_c, 0, 69, 65
2, 309957, Note_off_c, 0, 69, 56
2, 309960, Note_on_c, 0, 67, 65
2, 310074, Note_off_c, 0, 67, 64
2, 310182, Note_off_c, 0, 74, 64
2, 310200, Note_on_c, 0, 70, 75
2, 310680, Note_on_c, 0, 62, 65
2, 310794, Note_off_c, 0, 62, 64
2, 310800, Note_on_c, 0, 67, 65
2, 310902, Note_off_c, 0, 70, 64
2, 310920, Note_on_c, 0, 75, 75
2, 310977, Note_off_c, 0, 67, 64
2, 310980, Note_on_c, 0, 65, 65
2, 311037, Note_off_c, 0, 65, 56
2, 311040, Note_on_c, 0, 63, 65
2, 311154, Note_off_c, 0, 63, 64
2, 311400, Note_on_c, 0, 66, 65
2, 311514, Note_off_c, 0, 66, 64
2, 311520, Note_on_c, 0, 72, 75
2, 311622, Note_off_c, 0, 75, 64
2, 311640, Note_on_c, 0, 74, 75
2, 311697, Note_off_c, 0, 72, 64
2, 311700, Note_on_c, 0, 70, 65
2, 311757, Note_off_c, 0, 70, 56
2, 311760, Note_on_c, 0, 69, 65
2, 311874, Note_off_c, 0, 69, 64
2, 311880, Note_on_c, 0, 72, 75
2, 311994, Note_off_c, 0, 72, 64
2, 312000, Note_on_c, 0, 71, 65
2, 312057, Note_off_c, 0, 71, 56
2, 312060, Note_on_c, 0, 69, 65
2, 312117, Note_off_c, 0, 69, 56
2, 312120, Note_on_c, 0, 67, 65
2, 312234, Note_off_c, 0, 67, 64
2, 312240, Note_on_c, 0, 67, 75
2, 312342, Note_off_c, 0, 74, 64
2, 312360, Note_on_c, 0, 72, 75
2, 312537, Note_off_c, 0, 67, 64
2, 312540, Note_on_c, 0, 65, 65
2, 312597, Note_off_c, 0, 65, 56
2, 312600, Note_on_c, 0, 63, 75
2, 312777, Note_off_c, 0, 63, 64
2, 312780, Note_on_c, 0, 62, 65
2, 312837, Note_off_c, 0, 62, 56
2, 312840, Note_on_c, 0, 60, 65
2, 312948, Note_off_c, 0, 72, 64
2, 312954, Note_off_c, 0, 60, 64
2, 312960, Note_on_c, 0, 71, 65
2, 312960, Note_on_c, 0, 62, 65
2, 313074, Note_off_c, 0, 62, 64
2, 313074, Note_off_c, 0, 71, 64
2, 313080, Note_on_c, 0, 72, 65
2, 313080, Note_on_c, 0, 63, 65
2, 313194, Note_off_c, 0, 63, 64
2, 313194, Note_off_c, 0, 72, 64
2, 313200, Note_on_c, 0, 68, 66
2, 313200, Note_on_c, 0, 77, 66
2, 313314, Note_off_c, 0, 77, 64
2, 313314, Note_off_c, 0, 68, 64
2, 313320, Note_on_c, 0, 65, 66
2, 313320, Note_on_c, 0, 74, 66
2, 313434, Note_off_c, 0, 74, 64
2, 313434, Note_off_c, 0, 65, 64
2, 313440, Note_on_c, 0, 79, 66
2, 313440, Note_on_c, 0, 70, 66
2, 313554, Note_off_c, 0, 70, 64
2, 313554, Note_off_c, 0, 79, 64
2, 313560, Note_on_c, 0, 76, 67
2, 313560, Note_on_c, 0, 67, 67
2, 313674, Note_off_c, 0, 67, 64
2, 313674, Note_off_c, 0, 76, 64
2, 313680, Note_on_c, 0, 72, 67
2, 313680, Note_on_c, 0, 80, 77
2, 313857, Note_off_c, 0, 80, 64
2, 313857, Note_off_c, 0, 72, 64
2, 313860, Note_on_c, 0, 70, 67
2, 313860, Note_on_c, 0, 79, 67
2, 313917, Note_off_c, 0, 79, 56
2, 313917, Note_off_c, 0, 70, 56
2, 313920, Note_on_c, 0, 77, 68
2, 313920, Note_on_c, 0, 68, 68
2, 314034, Note_off_c, 0, 68, 64
2, 314034, Note_off_c, 0, 77, 64
2, 314040, Note_on_c, 0, 72, 68
2, 314040, Note_on_c, 0, 68, 68
2, 314274, Note_off_c, 0, 68, 64
2, 314274, Note_off_c, 0, 72, 64
2, 314280, Note_on_c, 0, 68, 69
2, 314394, Note_off_c, 0, 68, 64
2, 314400, Note_on_c, 0, 72, 69
2, 314400, Note_on_c, 0, 69, 79
2, 314577, Note_off_c, 0, 69, 64
2, 314577, Note_off_c, 0, 72, 64
2, 314580, Note_on_c, 0, 70, 69
2, 314580, Note_on_c, 0, 67, 69
2, 314637, Note_off_c, 0, 67, 56
2, 314637, Note_off_c, 0, 70, 56
2, 314640, Note_on_c, 0, 66, 70
2, 314640, Note_on_c, 0, 69, 70
2, 314754, Note_off_c, 0, 69, 64
2, 314754, Note_off_c, 0, 66, 64
2, 314760, Note_on_c, 0, 72, 70
2, 314760, Note_on_c, 0, 81, 70
2, 314994, Note_off_c, 0, 81, 64
2, 314994, Note_off_c, 0, 72, 64
2, 315000, Note_on_c, 0, 78, 70
2, 315000, Note_on_c, 0, 69, 70
2, 315114, Note_off_c, 0, 69, 64
2, 315114, Note_off_c, 0, 78, 64
2, 315120, Note_on_c, 0, 74, 71
2, 315120, Note_on_c, 0, 82, 71
2, 315297, Note_off_c, 0, 82, 64
2, 315297, Note_off_c, 0, 74, 64
2, 315300, Note_on_c, 0, 72, 71
2, 315300, Note_on_c, 0, 81, 71
2, 315357, Note_off_c, 0, 81, 56
2, 315357, Note_off_c, 0, 72, 56
2, 315360, Note_on_c, 0, 79, 71
2, 315360, Note_on_c, 0, 70, 71
2, 315474, Note_off_c, 0, 70, 64
2, 315474, Note_off_c, 0, 79, 64
2, 315480, Note_on_c, 0, 62, 72
2, 315714, Note_off_c, 0, 62, 64
2, 315720, Note_on_c, 0, 59, 72
2, 315834, Note_off_c, 0, 59, 64
2, 315840, Note_on_c, 0, 67, 83
2, 316017, Note_off_c, 0, 67, 64
2, 316020, Note_on_c, 0, 65, 73
2, 316077, Note_off_c, 0, 65, 56
2, 316080, Note_on_c, 0, 63, 73
2, 316194, Note_off_c, 0, 63, 64
2, 316200, Note_on_c, 0, 67, 74
2, 316200, Note_on_c, 0, 70, 74
2, 316434, Note_off_c, 0, 70, 64
2, 316434, Note_off_c, 0, 67, 64
2, 316440, Note_on_c, 0, 67, 74
2, 316440, Note_on_c, 0, 63, 74
2, 316554, Note_off_c, 0, 63, 64
2, 316554, Note_off_c, 0, 67, 64
2, 316560, Note_on_c, 0, 72, 75
2, 316560, Note_on_c, 0, 75, 85
2, 316737, Note_off_c, 0, 75, 64
2, 316737, Note_off_c, 0, 72, 64
2, 316740, Note_on_c, 0, 70, 75
2, 316740, Note_on_c, 0, 73, 75
2, 316797, Note_off_c, 0, 73, 56
2, 316797, Note_off_c, 0, 70, 56
2, 316800, Note_on_c, 0, 72, 75
2, 316800, Note_on_c, 0, 68, 75
2, 316914, Note_off_c, 0, 68, 64
2, 316914, Note_off_c, 0, 72, 64
2, 316920, Note_on_c, 0, 65, 75
2, 317154, Note_off_c, 0, 65, 64
2, 317160, Note_on_c, 0, 60, 76
2, 317274, Note_off_c, 0, 60, 64
2, 317280, Note_on_c, 0, 70, 76
2, 317514, Note_off_c, 0, 70, 64
2, 317520, Note_on_c, 0, 75, 77
2, 317634, Note_off_c, 0, 75, 64
2, 317640, Note_on_c, 0, 63, 77
2, 317874, Note_off_c, 0, 63, 64
2, 317880, Note_on_c, 0, 58, 78
2, 317994, Note_off_c, 0, 58, 64
2, 318000, Note_on_c, 0, 68, 78
2, 318234, Note_off_c, 0, 68, 64
2, 318240, Note_on_c, 0, 74, 79
2, 318354, Note_off_c, 0, 74, 64
2, 318360, Note_on_c, 0, 62, 79
2, 318594, Note_off_c, 0, 62, 64
2, 318600, Note_on_c, 0, 56, 80
2, 318714, Note_off_c, 0, 56, 64
2, 318720, Note_on_c, 0, 63, 80
2, 318777, Note_off_c, 0, 63, 56
2, 318780, Note_on_c, 0, 68, 80
2, 318837, Note_off_c, 0, 68, 56
2, 318840, Note_on_c, 0, 67, 80
2, 318954, Note_off_c, 0, 67, 64
2, 318960, Note_on_c, 0, 72, 80
2, 319017, Note_off_c, 0, 72, 56
2, 319020, Note_on_c, 0, 70, 80
2, 319049, Note_off_c, 0, 70, 48
2, 319050, Note_on_c, 0, 69, 80
2, 319079, Note_off_c, 0, 69, 48
2, 319080, Note_on_c, 0, 58, 80
2, 319080, Note_on_c, 0, 67, 80
2, 319137, Note_off_c, 0, 67, 56
2, 319137, Note_off_c, 0, 58, 56
2, 319140, Note_on_c, 0, 63, 80
2, 319197, Note_off_c, 0, 63, 56
2, 319200, Note_on_c, 0, 62, 80
2, 319257, Note_off_c, 0, 62, 56
2, 319260, Note_on_c, 0, 67, 80
2, 319317, Note_off_c, 0, 67, 56
2, 319320, Note_on_c, 0, 65, 80
2, 319349, Note_off_c, 0, 65, 48
2, 319350, Note_on_c, 0, 63, 80
2, 319379, Note_off_c, 0, 63, 48
2, 319380, Note_on_c, 0, 62, 80
2, 319437, Note_off_c, 0, 62, 56
2, 319560, Note_on_c, 0, 67, 80
2, 319617, Note_off_c, 0, 67, 56
2, 319620, Note_on_c, 0, 72, 80
2, 319677, Note_off_c, 0, 72, 56
2, 319680, Note_on_c, 0, 70, 80
2, 319709, Note_off_c, 0, 70, 48
2, 319710, Note_on_c, 0, 68, 80
2, 319739, Note_off_c, 0, 68, 48
2, 319740, Note_on_c, 0, 67, 80
2, 319797, Note_off_c, 0, 67, 56
2, 319800, Note_on_c, 0, 75, 80
2, 319857, Note_off_c, 0, 75, 56
2, 319860, Note_on_c, 0, 80, 80
2, 319917, Note_off_c, 0, 80, 56
2, 319920, Note_on_c, 0, 79, 80
2, 319977, Note_off_c, 0, 79, 56
2, 319980, Note_on_c, 0, 84, 80
2, 320037, Note_off_c, 0, 84, 56
2, 320040, Note_on_c, 0, 82, 80
2, 320069, Note_off_c, 0, 82, 48
2, 320070, Note_on_c, 0, 80, 80
2, 320099, Note_off_c, 0, 80, 48
2, 320100, Note_on_c, 0, 79, 80
2, 320157, Note_off_c, 0, 79, 56
2, 320280, Note_on_c, 0, 78, 80
2, 320337, Note_off_c, 0, 78, 56
2, 320340, Note_on_c, 0, 87, 80
2, 320397, Note_off_c, 0, 87, 56
2, 320400, Note_on_c, 0, 84, 80
2, 320457, Note_off_c, 0, 84, 56
2, 320460, Note_on_c, 0, 89, 80
2, 320517, Note_off_c, 0, 89, 56
2, 320520, Note_on_c, 0, 87, 80
2, 320549, Note_off_c, 0, 87, 48
2, 320550, Note_on_c, 0, 85, 80
2, 320579, Note_off_c, 0, 85, 48
2, 320580, Note_on_c, 0, 84, 80
2, 320637, Note_off_c, 0, 84, 56
2, 320640, Note_on_c, 0, 60, 80
2, 320697, Note_off_c, 0, 60, 56
2, 320700, Note_on_c, 0, 53, 80
2, 320757, Note_off_c, 0, 53, 56
2, 320760, Note_on_c, 0, 58, 80
2, 320817, Note_off_c, 0, 58, 56
2, 320820, Note_on_c, 0, 53, 80
2, 320877, Note_off_c, 0, 53, 56
2, 320880, Note_on_c, 0, 57, 80
2, 320909, Note_off_c, 0, 57, 48
2, 320910, Note_on_c, 0, 55, 80
2, 320939, Note_off_c, 0, 55, 48
2, 320940, Note_on_c, 0, 53, 80
2, 320997, Note_off_c, 0, 53, 56
2, 321000, Note_on_c, 0, 77, 80
2, 321057, Note_off_c, 0, 77, 56
2, 321060, Note_on_c, 0, 84, 80
2, 321117, Note_off_c, 0, 84, 56
2, 321120, Note_on_c, 0, 82, 80
2, 321177, Note_off_c, 0, 82, 56
2, 321180, Note_on_c, 0, 87, 80
2, 321237, Note_off_c, 0, 87, 56
2, 321240, Note_on_c, 0, 85, 80
2, 321269, Note_off_c, 0, 85, 48
2, 321270, Note_on_c, 0, 84, 80
2, 321299, Note_off_c, 0, 84, 48
2, 321300, Note_on_c, 0, 82, 80
2, 321357, Note_off_c, 0, 82, 56
2, 321360, Note_on_c, 0, 58, 80
2, 321417, Note_off_c, 0, 58, 56
2, 321420, Note_on_c, 0, 51, 80
2, 321477, Note_off_c, 0, 51, 56
2, 321480, Note_on_c, 0, 56, 80
2, 321537, Note_off_c, 0, 56, 56
2, 321540, Note_on_c, 0, 51, 80
2, 321597, Note_off_c, 0, 51, 56
2, 321600, Note_on_c, 0, 55, 80
2, 321629, Note_off_c, 0, 55, 48
2, 321630, Note_on_c, 0, 53, 80
2, 321659, Note_off_c, 0, 53, 48
2, 321660, Note_on_c, 0, 51, 81
2, 321717, Note_off_c, 0, 51, 56
2, 321720, Note_on_c, 0, 75, 81
2, 321777, Note_off_c, 0, 75, 56
2, 321780, Note_on_c, 0, 82, 81
2, 321837, Note_off_c, 0, 82, 56
2, 321840, Note_on_c, 0, 80, 81
2, 321897, Note_off_c, 0, 80, 56
2, 321900, Note_on_c, 0, 85, 81
2, 321957, Note_off_c, 0, 85, 56
2, 321960, Note_on_c, 0, 84, 82
2, 321989, Note_off_c, 0, 84, 48
2, 321990, Note_on_c, 0, 82, 82
2, 322019, Note_off_c, 0, 82, 48
2, 322020, Note_on_c, 0, 80, 82
2, 322077, Note_off_c, 0, 80, 56
2, 322080, Note_on_c, 0, 56, 82
2, 322137, Note_off_c, 0, 56, 56
2, 322140, Note_on_c, 0, 49, 82
2, 322197, Note_off_c, 0, 49, 56
2, 322200, Note_on_c, 0, 54, 82
2, 322257, Note_off_c, 0, 54, 56
2, 322260, Note_on_c, 0, 49, 83
2, 322317, Note_off_c, 0, 49, 56
2, 322320, Note_on_c, 0, 53, 83
2, 322349, Note_off_c, 0, 53, 48
2, 322350, Note_on_c, 0, 51, 83
2, 322379, Note_off_c, 0, 51, 48
2, 322380, Note_on_c, 0, 49, 83
2, 322437, Note_off_c, 0, 49, 56
2, 322440, Note_on_c, 0, 63, 83
2, 322497, Note_off_c, 0, 63, 56
2, 322500, Note_on_c, 0, 58, 83
2, 322557, Note_off_c, 0, 58, 56
2, 322560, Note_on_c, 0, 61, 84
2, 322617, Note_off_c, 0, 61, 56
2, 322620, Note_on_c, 0, 58, 84
2, 322677, Note_off_c, 0, 58, 56
2, 322680, Note_on_c, 0, 60, 84
2, 322709, Note_off_c, 0, 60, 48
2, 322710, Note_on_c, 0, 58, 84
2, 322739, Note_off_c, 0, 58, 48
2, 322740, Note_on_c, 0, 56, 84
2, 322797, Note_off_c, 0, 56, 56
2, 322800, Note_on_c, 0, 79, 85
2, 322857, Note_off_c, 0, 79, 56
2, 322860, Note_on_c, 0, 74, 85
2, 322917, Note_off_c, 0, 74, 56
2, 322920, Note_on_c, 0, 77, 85
2, 322977, Note_off_c, 0, 77, 56
2, 322980, Note_on_c, 0, 73, 85
2, 323037, Note_off_c, 0, 73, 56
2, 323040, Note_on_c, 0, 77, 85
2, 323069, Note_off_c, 0, 77, 48
2, 323070, Note_on_c, 0, 75, 85
2, 323099, Note_off_c, 0, 75, 48
2, 323100, Note_on_c, 0, 73, 86
2, 323157, Note_off_c, 0, 73, 56
2, 323160, Note_on_c, 0, 63, 86
2, 323160, Note_on_c, 0, 72, 86
2, 323217, Note_off_c, 0, 63, 56
2, 323220, Note_on_c, 0, 70, 86
2, 323274, Note_off_c, 0, 72, 64
2, 323277, Note_off_c, 0, 70, 56
2, 323280, Note_on_c, 0, 67, 86
2, 323337, Note_off_c, 0, 67, 56
2, 323340, Note_on_c, 0, 68, 86
2, 323397, Note_off_c, 0, 68, 56
2, 323400, Note_on_c, 0, 60, 87
2, 323457, Note_off_c, 0, 60, 56
2, 323460, Note_on_c, 0, 66, 87
2, 323517, Note_off_c, 0, 66, 56
2, 323520, Note_on_c, 0, 56, 87
2, 323577, Note_off_c, 0, 56, 56
2, 323580, Note_on_c, 0, 66, 87
2, 323637, Note_off_c, 0, 66, 56
2, 323640, Note_on_c, 0, 56, 87
2, 323697, Note_off_c, 0, 56, 56
2, 323700, Note_on_c, 0, 64, 88
2, 323757, Note_off_c, 0, 64, 56
2, 323760, Note_on_c, 0, 56, 88
2, 323817, Note_off_c, 0, 56, 56
2, 323820, Note_on_c, 0, 65, 88
2, 323877, Note_off_c, 0, 65, 56
2, 323880, Note_on_c, 0, 61, 88
2, 323937, Note_off_c, 0, 61, 56
2, 323940, Note_on_c, 0, 65, 88
2, 323997, Note_off_c, 0, 65, 56
2, 324000, Note_on_c, 0, 61, 89
2, 324057, Note_off_c, 0, 61, 56
2, 324060, Note_on_c, 0, 72, 89
2, 324117, Note_off_c, 0, 72, 56
2, 324120, Note_on_c, 0, 61, 89
2, 324177, Note_off_c, 0, 61, 56
2, 324180, Note_on_c, 0, 70, 89
2, 324237, Note_off_c, 0, 70, 56
2, 324240, Note_on_c, 0, 58, 90
2, 324297, Note_off_c, 0, 58, 56
2, 324300, Note_on_c, 0, 68, 90
2, 324357, Note_off_c, 0, 68, 56
2, 324360, Note_on_c, 0, 58, 90
2, 324417, Note_off_c, 0, 58, 56
2, 324420, Note_on_c, 0, 66, 90
2, 324477, Note_off_c, 0, 66, 56
2, 324480, Note_on_c, 0, 58, 90
2, 324537, Note_off_c, 0, 58, 56
2, 324540, Note_on_c, 0, 67, 91
2, 324597, Note_off_c, 0, 67, 56
2, 324600, Note_on_c, 0, 63, 91
2, 324657, Note_off_c, 0, 63, 56
2, 324660, Note_on_c, 0, 67, 91
2, 324717, Note_off_c, 0, 67, 56
2, 324720, Note_on_c, 0, 63, 91
2, 324777, Note_off_c, 0, 63, 56
2, 324780, Note_on_c, 0, 70, 91
2, 324837, Note_off_c, 0, 70, 56
2, 324840, Note_on_c, 0, 63, 92
2, 324897, Note_off_c, 0, 63, 56
2, 324900, Note_on_c, 0, 68, 92
2, 324957, Note_off_c, 0, 68, 56
2, 324960, Note_on_c, 0, 62, 92
2, 325017, Note_off_c, 0, 62, 56
2, 325020, Note_on_c, 0, 68, 92
2, 325077, Note_off_c, 0, 68, 56
2, 325080, Note_on_c, 0, 67, 92
2, 325137, Note_off_c, 0, 67, 56
2, 325140, Note_on_c, 0, 70, 93
2, 325197, Note_off_c, 0, 70, 56
2, 325200, Note_on_c, 0, 61, 93
2, 325257, Note_off_c, 0, 61, 56
2, 325260, Note_on_c, 0, 68, 93
2, 325317, Note_off_c, 0, 68, 56
2, 325320, Note_on_c, 0, 60, 93
2, 325377, Note_off_c, 0, 60, 56
2, 325380, Note_on_c, 0, 68, 93
2, 325437, Note_off_c, 0, 68, 56
2, 325440, Note_on_c, 0, 58, 94
2, 325497, Note_off_c, 0, 58, 56
2, 325500, Note_on_c, 0, 68, 94
2, 325557, Note_off_c, 0, 68, 56
2, 325560, Note_on_c, 0, 65, 94
2, 325617, Note_off_c, 0, 65, 56
2, 325620, Note_on_c, 0, 67, 94
2, 325677, Note_off_c, 0, 67, 56
2, 325680, Note_on_c, 0, 63, 95
2, 325737, Note_off_c, 0, 63, 56
2, 325740, Note_on_c, 0, 68, 95
2, 325797, Note_off_c, 0, 68, 56
2, 325800, Note_on_c, 0, 63, 95
2, 325857, Note_off_c, 0, 63, 56
2, 325860, Note_on_c, 0, 70, 95
2, 325917, Note_off_c, 0, 70, 56
2, 325920, Note_on_c, 0, 63, 95
2, 325977, Note_off_c, 0, 63, 56
2, 325980, Note_on_c, 0, 72, 95
2, 326037, Note_off_c, 0, 72, 56
2, 326040, Note_on_c, 0, 63, 105
2, 326040, Note_on_c, 0, 70, 95
2, 326097, Note_off_c, 0, 70, 56
2, 326100, Note_on_c, 0, 75, 95
2, 326157, Note_off_c, 0, 75, 56
2, 326160, Note_on_c, 0, 70, 95
2, 326217, Note_off_c, 0, 70, 56
2, 326220, Note_on_c, 0, 73, 95
2, 326277, Note_off_c, 0, 73, 56
2, 326280, Note_on_c, 0, 72, 95
2, 326337, Note_off_c, 0, 72, 56
2, 326340, Note_on_c, 0, 73, 95
2, 326382, Note_off_c, 0, 63, 64
2, 326397, Note_off_c, 0, 73, 56
2, 326400, Note_on_c, 0, 70, 95
2, 326400, Note_on_c, 0, 68, 105
2, 326457, Note_off_c, 0, 70, 56
2, 326460, Note_on_c, 0, 73, 95
2, 326517, Note_off_c, 0, 73, 56
2, 326520, Note_on_c, 0, 71, 95
2, 326577, Note_off_c, 0, 71, 56
2, 326580, Note_on_c, 0, 73, 95
2, 326637, Note_off_c, 0, 73, 56
2, 326640, Note_on_c, 0, 71, 95
2, 326697, Note_off_c, 0, 71, 56
2, 326700, Note_on_c, 0, 72, 95
2, 326742, Note_off_c, 0, 68, 64
2, 326757, Note_off_c, 0, 72, 56
2, 326760, Note_on_c, 0, 72, 95
2, 326760, Note_on_c, 0, 65, 95
2, 326817, Note_off_c, 0, 72, 56
2, 326820, Note_on_c, 0, 80, 95
2, 326877, Note_off_c, 0, 80, 56
2, 326880, Note_on_c, 0, 72, 95
2, 326937, Note_off_c, 0, 72, 56
2, 326940, Note_on_c, 0, 82, 95
2, 326997, Note_off_c, 0, 82, 56
2, 327000, Note_on_c, 0, 72, 95
2, 327057, Note_off_c, 0, 72, 56
2, 327060, Note_on_c, 0, 80, 95
2, 327102, Note_off_c, 0, 65, 64
2, 327117, Note_off_c, 0, 80, 56
2, 327120, Note_on_c, 0, 74, 95
2, 327120, Note_on_c, 0, 70, 105
2, 327177, Note_off_c, 0, 74, 56
2, 327180, Note_on_c, 0, 79, 95
2, 327237, Note_off_c, 0, 79, 56
2, 327240, Note_on_c, 0, 74, 95
2, 327297, Note_off_c, 0, 74, 56
2, 327300, Note_on_c, 0, 76, 95
2, 327357, Note_off_c, 0, 76, 56
2, 327360, Note_on_c, 0, 74, 95
2, 327417, Note_off_c, 0, 74, 56
2, 327420, Note_on_c, 0, 77, 95
2, 327462, Note_off_c, 0, 70, 64
2, 327477, Note_off_c, 0, 77, 56
2, 327480, Note_on_c, 0, 75, 95
2, 327480, Note_on_c, 0, 67, 95
2, 327537, Note_off_c, 0, 75, 56
2, 327540, Note_on_c, 0, 82, 95
2, 327597, Note_off_c, 0, 82, 56
2, 327600, Note_on_c, 0, 75, 95
2, 327657, Note_off_c, 0, 75, 56
2, 327660, Note_on_c, 0, 84, 95
2, 327717, Note_off_c, 0, 84, 56
2, 327720, Note_on_c, 0, 75, 95
2, 327777, Note_off_c, 0, 75, 56
2, 327780, Note_on_c, 0, 82, 95
2, 327822, Note_off_c, 0, 67, 64
2, 327837, Note_off_c, 0, 82, 56
2, 327840, Note_on_c, 0, 75, 95
2, 327840, Note_on_c, 0, 72, 95
2, 327897, Note_off_c, 0, 75, 56
2, 327900, Note_on_c, 0, 82, 95
2, 327957, Note_off_c, 0, 82, 56
2, 327960, Note_on_c, 0, 75, 95
2, 328017, Note_off_c, 0, 75, 56
2, 328020, Note_on_c, 0, 79, 95
2, 328077, Note_off_c, 0, 79, 56
2, 328080, Note_on_c, 0, 75, 95
2, 328137, Note_off_c, 0, 75, 56
2, 328140, Note_on_c, 0, 80, 95
2, 328182, Note_off_c, 0, 72, 64
2, 328197, Note_off_c, 0, 80, 56
2, 328200, Note_on_c, 0, 70, 95
2, 328200, Note_on_c, 0, 74, 95
2, 328257, Note_off_c, 0, 74, 56
2, 328260, Note_on_c, 0, 80, 95
2, 328317, Note_off_c, 0, 80, 56
2, 328320, Note_on_c, 0, 74, 95
2, 328377, Note_off_c, 0, 74, 56
2, 328380, Note_on_c, 0, 82, 95
2, 328428, Note_off_c, 0, 70, 64
2, 328437, Note_off_c, 0, 82, 56
2, 328440, Note_on_c, 0, 68, 95
2, 328440, Note_on_c, 0, 74, 95
2, 328497, Note_off_c, 0, 74, 56
2, 328500, Note_on_c, 0, 84, 95
2, 328554, Note_off_c, 0, 68, 64
2, 328557, Note_off_c, 0, 84, 56
2, 328560, Note_on_c, 0, 75, 95
2, 328560, Note_on_c, 0, 67, 95
2, 328617, Note_off_c, 0, 75, 56
2, 328620, Note_on_c, 0, 84, 95
2, 328677, Note_off_c, 0, 84, 56
2, 328680, Note_on_c, 0, 75, 95
2, 328737, Note_off_c, 0, 75, 56
2, 328740, Note_on_c, 0, 81, 95
2, 328797, Note_off_c, 0, 81, 56
2, 328800, Note_on_c, 0, 73, 95
2, 328857, Note_off_c, 0, 73, 56
2, 328860, Note_on_c, 0, 82, 95
2, 328902, Note_off_c, 0, 67, 64
2, 328917, Note_off_c, 0, 82, 56
2, 328920, Note_on_c, 0, 70, 105
2, 328920, Note_on_c, 0, 73, 95
2, 328977, Note_off_c, 0, 73, 56
2, 328980, Note_on_c, 0, 80, 95
2, 329037, Note_off_c, 0, 80, 56
2, 329040, Note_on_c, 0, 73, 95
2, 329097, Note_off_c, 0, 73, 56
2, 329100, Note_on_c, 0, 77, 95
2, 329157, Note_off_c, 0, 77, 56
2, 329160, Note_on_c, 0, 73, 95
2, 329217, Note_off_c, 0, 73, 56
2, 329220, Note_on_c, 0, 79, 95
2, 329277, Note_off_c, 0, 79, 56
2, 329280, Note_on_c, 0, 73, 95
2, 329337, Note_off_c, 0, 73, 56
2, 329340, Note_on_c, 0, 79, 95
2, 329397, Note_off_c, 0, 79, 56
2, 329400, Note_on_c, 0, 73, 95
2, 329457, Note_off_c, 0, 73, 56
2, 329460, Note_on_c, 0, 75, 95
2, 329517, Note_off_c, 0, 75, 56
2, 329520, Note_on_c, 0, 73, 95
2, 329577, Note_off_c, 0, 73, 56
2, 329580, Note_on_c, 0, 77, 95
2, 329637, Note_off_c, 0, 77, 56
2, 329640, Note_on_c, 0, 73, 95
2, 329697, Note_off_c, 0, 73, 56
2, 329700, Note_on_c, 0, 79, 95
2, 329754, Note_off_c, 0, 70, 64
2, 329757, Note_off_c, 0, 79, 56
2, 329760, Note_on_c, 0, 68, 95
2, 329760, Note_on_c, 0, 72, 95
2, 329817, Note_off_c, 0, 72, 56
2, 329820, Note_on_c, 0, 80, 95
2, 329874, Note_off_c, 0, 68, 64
2, 329877, Note_off_c, 0, 80, 56
2, 329880, Note_on_c, 0, 66, 95
2, 329880, Note_on_c, 0, 72, 95
2, 329937, Note_off_c, 0, 72, 56
2, 329940, Note_on_c, 0, 82, 95
2, 329994, Note_off_c, 0, 66, 64
2, 329997, Note_off_c, 0, 82, 56
2, 330000, Note_on_c, 0, 73, 95
2, 330000, Note_on_c, 0, 65, 95
2, 330057, Note_off_c, 0, 73, 56
2, 330060, Note_on_c, 0, 82, 95
2, 330117, Note_off_c, 0, 82, 56
2, 330120, Note_on_c, 0, 80, 95
2, 330177, Note_off_c, 0, 80, 56
2, 330180, Note_on_c, 0, 85, 95
2, 330228, Note_off_c, 0, 65, 64
2, 330237, Note_off_c, 0, 85, 56
2, 330240, Note_on_c, 0, 67, 95
2, 330240, Note_on_c, 0, 82, 95
2, 330297, Note_off_c, 0, 82, 56
2, 330300, Note_on_c, 0, 87, 95
2, 330354, Note_off_c, 0, 67, 64
2, 330357, Note_off_c, 0, 87, 56
2, 330360, Control_c, 0, 64, 127
2, 330360, Note_on_c, 0, 80, 105
2, 330360, Note_on_c, 0, 75, 105
2, 330360, Note_on_c, 0, 68, 105
2, 330696, Control_c, 0, 64, 0
2, 330702, Note_off_c, 0, 68, 88
2, 330702, Note_off_c, 0, 75, 88
2, 330702, Note_off_c, 0, 80, 88
2, 330720, Control_c, 0, 64, 126
2, 330720, Note_on_c, 0, 85, 95
2, 330720, Note_on_c, 0, 73, 95
2, 330720, Note_on_c, 0, 79, 95
2, 331048, Control_c, 0, 64, 0
2, 331062, Note_off_c, 0, 79, 88
2, 331062, Note_off_c, 0, 73, 88
2, 331062, Note_off_c, 0, 85, 88
2, 331080, Control_c, 0, 64, 127
2, 331080, Note_on_c, 0, 82, 95
2, 331080, Note_on_c, 0, 70, 95
2, 331080, Note_on_c, 0, 85, 95
2, 331408, Control_c, 0, 64, 0
2, 331422, Note_off_c, 0, 85, 88
2, 331422, Note_off_c, 0, 70, 88
2, 331422, Note_off_c, 0, 82, 88
2, 331440, Note_on_c, 0, 87, 96
2, 331440, Control_c, 0, 64, 126
2, 331440, Note_on_c, 0, 75, 96
2, 331440, Note_on_c, 0, 80, 96
2, 331768, Control_c, 0, 64, 0
2, 331782, Note_off_c, 0, 80, 88
2, 331782, Note_off_c, 0, 75, 88
2, 331782, Note_off_c, 0, 87, 88
2, 331800, Note_on_c, 0, 72, 96
2, 331800, Control_c, 0, 64, 127
2, 331800, Note_on_c, 0, 79, 96
2, 331800, Note_on_c, 0, 84, 96
2, 332028, Note_off_c, 0, 79, 88
2, 332040, Note_on_c, 0, 75, 96
2, 332128, Control_c, 0, 64, 0
2, 332142, Note_off_c, 0, 84, 88
2, 332142, Note_off_c, 0, 72, 88
2, 332154, Note_off_c, 0, 75, 88
2, 332160, Note_on_c, 0, 89, 96
2, 332160, Control_c, 0, 64, 126
2, 332160, Note_on_c, 0, 77, 96
2, 332388, Note_off_c, 0, 77, 88
2, 332400, Note_on_c, 0, 77, 97
2, 332400, Note_on_c, 0, 82, 97
2, 332488, Control_c, 0, 64, 0
2, 332502, Note_off_c, 0, 89, 88
2, 332514, Note_off_c, 0, 82, 88
2, 332514, Note_off_c, 0, 77, 88
2, 332520, Note_on_c, 0, 87, 97
2, 332520, Control_c, 0, 64, 127
2, 332520, Note_on_c, 0, 75, 97
2, 332520, Note_on_c, 0, 82, 97
2, 332748, Note_off_c, 0, 82, 88
2, 332748, Note_off_c, 0, 75, 88
2, 332748, Note_off_c, 0, 87, 88
2, 332760, Note_on_c, 0, 85, 97
2, 332760, Note_on_c, 0, 73, 97
2, 332760, Note_on_c, 0, 79, 97
2, 332848, Control_c, 0, 64, 0
2, 332874, Note_off_c, 0, 79, 88
2, 332874, Note_off_c, 0, 73, 88
2, 332874, Note_off_c, 0, 85, 88
2, 332880, Note_on_c, 0, 84, 97
2, 332880, Control_c, 0, 64, 126
2, 332880, Note_on_c, 0, 80, 97
2, 332880, Note_on_c, 0, 72, 97
2, 333208, Control_c, 0, 64, 0
2, 333222, Note_off_c, 0, 72, 88
2, 333222, Note_off_c, 0, 80, 88
2, 333222, Note_off_c, 0, 84, 88
2, 333240, Note_on_c, 0, 77, 97
2, 333240, Note_on_c, 0, 80, 97
2, 333240, Control_c, 0, 64, 127
2, 333568, Control_c, 0, 64, 0
2, 333600, Control_c, 0, 64, 126
2, 333928, Control_c, 0, 64, 0
2, 333942, Note_off_c, 0, 80, 88
2, 333942, Note_off_c, 0, 77, 88
2, 333960, Note_on_c, 0, 79, 98
2, 333960, Control_c, 0, 64, 127
2, 333960, Note_on_c, 0, 75, 98
2, 334188, Note_off_c, 0, 75, 88
2, 334188, Note_off_c, 0, 79, 88
2, 334200, Note_on_c, 0, 77, 98
2, 334200, Note_on_c, 0, 73, 98
2, 334288, Control_c, 0, 64, 0
2, 334314, Note_off_c, 0, 73, 88
2, 334314, Note_off_c, 0, 77, 88
2, 334320, Note_on_c, 0, 75, 98
2, 334320, Control_c, 0, 64, 126
2, 334320, Note_on_c, 0, 72, 98
2, 334648, Control_c, 0, 64, 0
2, 334662, Note_off_c, 0, 72, 88
2, 334662, Note_off_c, 0, 75, 88
2, 334680, Note_on_c, 0, 72, 109
2, 334680, Note_on_c, 0, 84, 109
2, 334680, Note_on_c, 0, 72, 109
2, 334680, Control_c, 0, 64, 127
2, 334680, Note_on_c, 0, 75, 109
2, 334680, Note_on_c, 0, 75, 109
2, 335008, Control_c, 0, 64, 0
2, 335022, Note_off_c, 0, 75, 88
2, 335022, Note_off_c, 0, 75, 88
2, 335022, Note_off_c, 0, 72, 88
2, 335040, Note_on_c, 0, 77, 99
2, 335040, Control_c, 0, 64, 126
2, 335040, Note_on_c, 0, 77, 99
2, 335368, Control_c, 0, 64, 0
2, 335382, Note_off_c, 0, 77, 88
2, 335382, Note_off_c, 0, 84, 88
2, 335382, Note_off_c, 0, 72, 88
2, 335400, Note_on_c, 0, 70, 99
2, 335400, Control_c, 0, 64, 127
2, 335400, Note_on_c, 0, 70, 99
2, 335400, Note_on_c, 0, 82, 99
2, 335628, Note_off_c, 0, 82, 88
2, 335628, Note_off_c, 0, 70, 88
2, 335628, Note_off_c, 0, 70, 88
2, 335628, Note_off_c, 0, 77, 88
2, 335640, Note_on_c, 0, 77, 100
2, 335640, Note_on_c, 0, 68, 100
2, 335640, Note_on_c, 0, 80, 100
2, 335640, Note_on_c, 0, 77, 100
2, 335640, Note_on_c, 0, 68, 100
2, 335728, Control_c, 0, 64, 0
2, 335754, Note_off_c, 0, 68, 88
2, 335754, Note_off_c, 0, 77, 88
2, 335754, Note_off_c, 0, 80, 88
2, 335754, Note_off_c, 0, 68, 88
2, 335754, Note_off_c, 0, 77, 88
2, 335760, Note_on_c, 0, 79, 100
2, 335760, Control_c, 0, 64, 126
2, 335760, Note_on_c, 0, 75, 100
2, 335760, Note_on_c, 0, 67, 100
2, 336088, Control_c, 0, 64, 0
2, 336102, Note_off_c, 0, 67, 88
2, 336102, Note_off_c, 0, 75, 88
2, 336102, Note_off_c, 0, 79, 88
2, 336120, Note_on_c, 0, 77, 110
2, 336120, Note_on_c, 0, 85, 110
2, 336120, Note_on_c, 0, 89, 110
2, 336120, Control_c, 0, 64, 127
2, 336448, Control_c, 0, 64, 0
2, 336480, Control_c, 0, 64, 126
2, 336808, Control_c, 0, 64, 0
2, 336822, Note_off_c, 0, 89, 88
2, 336822, Note_off_c, 0, 85, 88
2, 336822, Note_off_c, 0, 77, 88
2, 336840, Note_on_c, 0, 75, 101
2, 336840, Control_c, 0, 64, 127
2, 336840, Note_on_c, 0, 84, 101
2, 336840, Note_on_c, 0, 87, 101
2, 337068, Note_off_c, 0, 87, 88
2, 337068, Note_off_c, 0, 84, 88
2, 337068, Note_off_c, 0, 75, 88
2, 337080, Note_on_c, 0, 73, 101
2, 337080, Note_on_c, 0, 85, 101
2, 337080, Note_on_c, 0, 82, 101
2, 337168, Control_c, 0, 64, 0
2, 337194, Note_off_c, 0, 82, 88
2, 337194, Note_off_c, 0, 85, 88
2, 337194, Note_off_c, 0, 73, 88
2, 337200, Note_on_c, 0, 84, 101
2, 337200, Control_c, 0, 64, 126
2, 337200, Note_on_c, 0, 80, 101
2, 337200, Note_on_c, 0, 72, 101
2, 337528, Control_c, 0, 64, 0
2, 337542, Note_off_c, 0, 72, 88
2, 337542, Note_off_c, 0, 80, 88
2, 337542, Note_off_c, 0, 84, 88
2, 337560, Note_on_c, 0, 80, 111
2, 337560, Note_on_c, 0, 86, 111
2, 337560, Note_on_c, 0, 92, 111
2, 337560, Control_c, 0, 64, 127
2, 337888, Control_c, 0, 64, 0
2, 337920, Control_c, 0, 64, 126
2, 338248, Control_c, 0, 64, 0
2, 338262, Note_off_c, 0, 92, 88
2, 338262, Note_off_c, 0, 86, 88
2, 338262, Note_off_c, 0, 80, 88
2, 338280, Note_on_c, 0, 91, 102
2, 338280, Control_c, 0, 64, 127
2, 338280, Note_on_c, 0, 86, 102
2, 338280, Note_on_c, 0, 80, 102
2, 338508, Note_off_c, 0, 80, 88
2, 338508, Note_off_c, 0, 86, 88
2, 338508, Note_off_c, 0, 91, 88
2, 338520, Note_on_c, 0, 86, 102
2, 338520, Note_on_c, 0, 80, 102
2, 338520, Note_on_c, 0, 89, 102
2, 338608, Control_c, 0, 64, 0
2, 338634, Note_off_c, 0, 89, 88
2, 338634, Note_off_c, 0, 80, 88
2, 338634, Note_off_c, 0, 86, 88
2, 338640, Note_on_c, 0, 80, 102
2, 338640, Control_c, 0, 64, 126
2, 338640, Note_on_c, 0, 87, 102
2, 338640, Note_on_c, 0, 84, 102
2, 338968, Control_c, 0, 64, 0
2, 338982, Note_off_c, 0, 84, 88
2, 338982, Note_off_c, 0, 87, 88
2, 338982, Note_off_c, 0, 80, 88
2, 339000, Note_on_c, 0, 89, 103
2, 339000, Control_c, 0, 64, 127
2, 339000, Note_on_c, 0, 82, 103
2, 339000, Note_on_c, 0, 80, 103
2, 339228, Note_off_c, 0, 80, 88
2, 339228, Note_off_c, 0, 82, 88
2, 339228, Note_off_c, 0, 89, 88
2, 339240, Note_on_c, 0, 82, 103
2, 339240, Note_on_c, 0, 80, 103
2, 339240, Note_on_c, 0, 77, 103
2, 339328, Control_c, 0, 64, 0
2, 339354, Note_off_c, 0, 77, 88
2, 339354, Note_off_c, 0, 80, 88
2, 339354, Note_off_c, 0, 82, 88
2, 339360, Note_on_c, 0, 84, 103
2, 339360, Control_c, 0, 64, 126
2, 339360, Note_on_c, 0, 80, 103
2, 339360, Note_on_c, 0, 75, 103
2, 339688, Control_c, 0, 64, 0
2, 339702, Note_off_c, 0, 75, 88
2, 339702, Note_off_c, 0, 80, 88
2, 339702, Note_off_c, 0, 84, 88
2, 339720, Note_on_c, 0, 82, 103
2, 339720, Control_c, 0, 64, 127
2, 339720, Note_on_c, 0, 75, 103
2, 339834, Note_off_c, 0, 75, 88
2, 339840, Note_on_c, 0, 79, 103
2, 339948, Note_off_c, 0, 82, 88
2, 339954, Note_off_c, 0, 79, 88
2, 339960, Note_on_c, 0, 87, 104
2, 339960, Note_on_c, 0, 75, 104
2, 339960, Note_on_c, 0, 82, 104
2, 339960, Note_on_c, 0, 79, 104
2, 340048, Control_c, 0, 64, 0
2, 340074, Note_off_c, 0, 79, 88
2, 340074, Note_off_c, 0, 82, 88
2, 340074, Note_off_c, 0, 75, 88
2, 340074, Note_off_c, 0, 87, 88
2, 340080, Note_on_c, 0, 86, 104
2, 340080, Control_c, 0, 64, 126
2, 340080, Note_on_c, 0, 80, 104
2, 340080, Note_on_c, 0, 74, 104
2, 340408, Control_c, 0, 64, 0
2, 340422, Note_off_c, 0, 74, 88
2, 340422, Note_off_c, 0, 80, 88
2, 340422, Note_off_c, 0, 86, 88
2, 340440, Note_on_c, 0, 73, 104
2, 340440, Control_c, 0, 64, 127
2, 340440, Note_on_c, 0, 85, 104
2, 340440, Note_on_c, 0, 82, 104
2, 340768, Control_c, 0, 64, 0
2, 340782, Note_off_c, 0, 82, 88
2, 340782, Note_off_c, 0, 85, 88
2, 340782, Note_off_c, 0, 73, 88
2, 340800, Note_on_c, 0, 84, 104
2, 340800, Control_c, 0, 64, 126
2, 340800, Note_on_c, 0, 72, 104
2, 340800, Note_on_c, 0, 75, 104
2, 341028, Note_off_c, 0, 75, 88
2, 341040, Note_on_c, 0, 80, 105
2, 341128, Control_c, 0, 64, 0
2, 341142, Note_off_c, 0, 72, 88
2, 341142, Note_off_c, 0, 84, 88
2, 341154, Note_off_c, 0, 80, 88
2, 341160, Note_on_c, 0, 85, 105
2, 341160, Control_c, 0, 64, 127
2, 341160, Note_on_c, 0, 80, 105
2, 341160, Note_on_c, 0, 77, 105
2, 341388, Note_off_c, 0, 77, 88
2, 341388, Note_off_c, 0, 80, 88
2, 341388, Note_off_c, 0, 85, 88
2, 341400, Note_on_c, 0, 82, 105
2, 341400, Note_on_c, 0, 80, 105
2, 341400, Note_on_c, 0, 77, 105
2, 341488, Control_c, 0, 64, 0
2, 341514, Note_off_c, 0, 77, 88
2, 341514, Note_off_c, 0, 80, 88
2, 341514, Note_off_c, 0, 82, 88
2, 341520, Note_on_c, 0, 80, 105
2, 341520, Control_c, 0, 64, 126
2, 341520, Note_on_c, 0, 84, 105
2, 341520, Note_on_c, 0, 75, 105
2, 341634, Note_off_c, 0, 75, 88
2, 341634, Note_off_c, 0, 84, 88
2, 341634, Note_off_c, 0, 80, 88
2, 341640, Note_on_c, 0, 80, 105
2, 341640, Note_on_c, 0, 82, 105
2, 341640, Note_on_c, 0, 77, 105
2, 341754, Note_off_c, 0, 77, 88
2, 341754, Note_off_c, 0, 80, 88
2, 341760, Note_on_c, 0, 79, 105
2, 341760, Note_on_c, 0, 73, 105
2, 341848, Control_c, 0, 64, 0
2, 341868, Note_off_c, 0, 82, 88
2, 341874, Note_off_c, 0, 73, 88
2, 341874, Note_off_c, 0, 79, 88
2, 341880, Note_on_c, 0, 80, 105
2, 341880, Control_c, 0, 64, 127
2, 341880, Note_on_c, 0, 75, 105
2, 341880, Note_on_c, 0, 72, 105
2, 342208, Control_c, 0, 64, 0
2, 342222, Note_off_c, 0, 72, 88
2, 342222, Note_off_c, 0, 75, 88
2, 342222, Note_off_c, 0, 80, 88
2, 342240, Note_on_c, 0, 85, 116
2, 342240, Control_c, 0, 64, 126
2, 342240, Note_on_c, 0, 80, 116
2, 342240, Note_on_c, 0, 77, 116
2, 342568, Control_c, 0, 64, 0
2, 342582, Note_off_c, 0, 77, 88
2, 342582, Note_off_c, 0, 80, 88
2, 342582, Note_off_c, 0, 85, 88
2, 342600, Note_on_c, 0, 82, 106
2, 342600, Control_c, 0, 64, 127
2, 342600, Note_on_c, 0, 79, 106
2, 342600, Note_on_c, 0, 73, 106
2, 342928, Control_c, 0, 64, 0
2, 342942, Note_off_c, 0, 73, 88
2, 342942, Note_off_c, 0, 79, 88
2, 342942, Note_off_c, 0, 82, 88
2, 342960, Note_on_c, 0, 87, 116
2, 342960, Control_c, 0, 64, 126
2, 342960, Note_on_c, 0, 75, 116
2, 342960, Note_on_c, 0, 80, 116
2, 342960, Note_on_c, 0, 84, 116
2, 343288, Control_c, 0, 64, 0
2, 343302, Note_off_c, 0, 84, 88
2, 343302, Note_off_c, 0, 80, 88
2, 343302, Note_off_c, 0, 75, 88
2, 343302, Note_off_c, 0, 87, 88
2, 343320, Note_on_c, 0, 84, 107
2, 343320, Control_c, 0, 64, 127
2, 343320, Note_on_c, 0, 78, 107
2, 343320, Note_on_c, 0, 75, 107
2, 343648, Control_c, 0, 64, 0
2, 343662, Note_off_c, 0, 75, 88
2, 343662, Note_off_c, 0, 78, 88
2, 343662, Note_off_c, 0, 84, 88
2, 343680, Note_on_c, 0, 85, 117
2, 343680, Control_c, 0, 64, 126
2, 343680, Note_on_c, 0, 89, 117
2, 343680, Note_on_c, 0, 77, 117
2, 344008, Control_c, 0, 64, 0
2, 344022, Note_off_c, 0, 77, 88
2, 344022, Note_off_c, 0, 89, 88
2, 344022, Note_off_c, 0, 85, 88
2, 344040, Note_on_c, 0, 83, 107
2, 344040, Control_c, 0, 64, 127
2, 344040, Note_on_c, 0, 86, 107
2, 344040, Note_on_c, 0, 77, 107
2, 344368, Control_c, 0, 64, 0
2, 344382, Note_off_c, 0, 77, 88
2, 344382, Note_off_c, 0, 86, 88
2, 344382, Note_off_c, 0, 83, 88
2, 344400, Note_on_c, 0, 90, 118
2, 344400, Control_c, 0, 64, 126
2, 344400, Note_on_c, 0, 84, 118
2, 344400, Note_on_c, 0, 78, 118
2, 344728, Control_c, 0, 64, 0
2, 344742, Note_off_c, 0, 90, 88
2, 344760, Note_on_c, 0, 89, 108
2, 344760, Control_c, 0, 64, 127
2, 344988, Note_off_c, 0, 89, 88
2, 345000, Note_on_c, 0, 87, 108
2, 345084, Note_off_c, 0, 78, 88
2, 345084, Note_off_c, 0, 84, 88
2, 345088, Control_c, 0, 64, 0
2, 345114, Note_off_c, 0, 87, 88
2, 345120, Note_on_c, 0, 89, 119
2, 345120, Note_on_c, 0, 85, 118
2, 345120, Control_c, 0, 64, 126
2, 345120, Note_on_c, 0, 77, 118
2, 345120, Note_on_c, 0, 85, 118
2, 345448, Control_c, 0, 64, 0
2, 345462, Note_off_c, 0, 77, 88
2, 345462, Note_off_c, 0, 85, 88
2, 345480, Note_on_c, 0, 86, 109
2, 345480, Control_c, 0, 64, 127
2, 345480, Note_on_c, 0, 77, 109
2, 345804, Note_off_c, 0, 85, 88
2, 345804, Note_off_c, 0, 89, 88
2, 345808, Control_c, 0, 64, 0
2, 345822, Note_off_c, 0, 77, 88
2, 345822, Note_off_c, 0, 86, 88
2, 345840, Note_on_c, 0, 92, 119
2, 345840, Control_c, 0, 64, 126
2, 345840, Note_on_c, 0, 86, 119
2, 345840, Note_on_c, 0, 83, 119
2, 346168, Control_c, 0, 64, 0
2, 346182, Note_off_c, 0, 92, 88
2, 346200, Note_on_c, 0, 90, 109
2, 346200, Control_c, 0, 64, 127
2, 346428, Note_off_c, 0, 90, 88
2, 346440, Note_on_c, 0, 89, 109
2, 346524, Note_off_c, 0, 83, 88
2, 346524, Note_off_c, 0, 86, 88
2, 346528, Control_c, 0, 64, 0
2, 346554, Note_off_c, 0, 89, 88
2, 346560, Note_on_c, 0, 82, 110
2, 346560, Control_c, 0, 64, 126
2, 346560, Note_on_c, 0, 91, 110
2, 346560, Note_on_c, 0, 88, 110
2, 346560, Note_on_c, 0, 85, 110
2, 347244, Note_off_c, 0, 85, 88
2, 347244, Note_off_c, 0, 88, 88
2, 347244, Note_off_c, 0, 91, 88
2, 347244, Note_off_c, 0, 82, 88
2, 347280, Note_on_c, 0, 94, 112
2, 347280, Note_on_c, 0, 91, 112
2, 347280, Note_on_c, 0, 88, 112
2, 347280, Note_on_c, 0, 85, 112
2, 347622, Note_off_c, 0, 91, 88
2, 347622, Note_off_c, 0, 94, 88
2, 347640, Note_on_c, 0, 92, 113
2, 347848, Control_c, 0, 64, 0
2, 347868, Note_off_c, 0, 92, 88
2, 347880, Note_on_c, 0, 91, 113
2, 347964, Note_off_c, 0, 85, 88
2, 347964, Note_off_c, 0, 88, 88
2, 347968, Control_c, 0, 64, 0
2, 347994, Note_off_c, 0, 91, 88
2, 348000, Control_c, 0, 64, 127
2, 348000, Note_on_c, 0, 84, 114
2, 348000, Note_on_c, 0, 87, 114
2, 348000, Note_on_c, 0, 96, 114
2, 348057, Note_off_c, 0, 96, 56
2, 348057, Note_off_c, 0, 87, 56
2, 348057, Note_off_c, 0, 84, 56
2, 348060, Note_on_c, 0, 92, 114
2, 348117, Note_off_c, 0, 92, 56
2, 348120, Note_on_c, 0, 87, 114
2, 348177, Note_off_c, 0, 87, 56
2, 348180, Note_on_c, 0, 92, 114
2, 348237, Note_off_c, 0, 92, 56
2, 348240, Note_on_c, 0, 87, 115
2, 348297, Note_off_c, 0, 87, 56
2, 348300, Note_on_c, 0, 84, 115
2, 348357, Note_off_c, 0, 84, 56
2, 348360, Note_on_c, 0, 87, 115
2, 348417, Note_off_c, 0, 87, 56
2, 348420, Note_on_c, 0, 84, 115
2, 348477, Note_off_c, 0, 84, 56
2, 348480, Note_on_c, 0, 80, 115
2, 348537, Note_off_c, 0, 80, 56
2, 348540, Note_on_c, 0, 84, 115
2, 348597, Note_off_c, 0, 84, 56
2, 348600, Note_on_c, 0, 80, 116
2, 348657, Note_off_c, 0, 80, 56
2, 348660, Note_on_c, 0, 75, 116
2, 348717, Note_off_c, 0, 75, 56
2, 348720, Note_on_c, 0, 72, 116
2, 348777, Note_off_c, 0, 72, 56
2, 348780, Note_on_c, 0, 68, 116
2, 348837, Note_off_c, 0, 68, 56
2, 348840, Note_on_c, 0, 63, 116
2, 348897, Note_off_c, 0, 63, 56
2, 348900, Note_on_c, 0, 68, 116
2, 348957, Note_off_c, 0, 68, 56
2, 348960, Note_on_c, 0, 63, 117
2, 349017, Note_off_c, 0, 63, 56
2, 349020, Note_on_c, 0, 60, 117
2, 349077, Note_off_c, 0, 60, 56
2, 349080, Note_on_c, 0, 56, 117
2, 349137, Note_off_c, 0, 56, 56
2, 349140, Note_on_c, 0, 51, 117
2, 349197, Note_off_c, 0, 51, 56
2, 349200, Note_on_c, 0, 48, 117
2, 349257, Note_off_c, 0, 48, 56
2, 349260, Note_on_c, 0, 51, 118
2, 349317, Note_off_c, 0, 51, 56
2, 349320, Note_on_c, 0, 48, 118
2, 349377, Note_off_c, 0, 48, 56
2, 349380, Note_on_c, 0, 44, 118
2, 349437, Note_off_c, 0, 44, 56
2, 349440, Note_on_c, 0, 32, 118
2, 349497, Note_off_c, 0, 32, 56
2, 349500, Note_on_c, 0, 36, 118
2, 349557, Note_off_c, 0, 36, 56
2, 349560, Note_on_c, 0, 39, 118
2, 349617, Note_off_c, 0, 39, 56
2, 349620, Note_on_c, 0, 44, 119
2, 349677, Note_off_c, 0, 44, 56
2, 349680, Note_on_c, 0, 48, 119
2, 349737, Note_off_c, 0, 48, 56
2, 349740, Note_on_c, 0, 51, 119
2, 349797, Note_off_c, 0, 51, 56
2, 349800, Note_on_c, 0, 44, 119
2, 349857, Note_off_c, 0, 44, 56
2, 349860, Note_on_c, 0, 48, 119
2, 349917, Note_off_c, 0, 48, 56
2, 349920, Note_on_c, 0, 51, 120
2, 349977, Note_off_c, 0, 51, 56
2, 349980, Note_on_c, 0, 56, 120
2, 350037, Note_off_c, 0, 56, 56
2, 350040, Note_on_c, 0, 60, 120
2, 350097, Note_off_c, 0, 60, 56
2, 350100, Note_on_c, 0, 63, 120
2, 350157, Note_off_c, 0, 63, 56
2, 350160, Note_on_c, 0, 56, 120
2, 350217, Note_off_c, 0, 56, 56
2, 350220, Note_on_c, 0, 60, 120
2, 350277, Note_off_c, 0, 60, 56
2, 350280, Note_on_c, 0, 63, 121
2, 350337, Note_off_c, 0, 63, 56
2, 350340, Note_on_c, 0, 68, 121
2, 350397, Note_off_c, 0, 68, 56
2, 350400, Note_on_c, 0, 72, 121
2, 350457, Note_off_c, 0, 72, 56
2, 350460, Note_on_c, 0, 75, 121
2, 350517, Note_off_c, 0, 75, 56
2, 350520, Note_on_c, 0, 68, 121
2, 350577, Note_off_c, 0, 68, 56
2, 350580, Note_on_c, 0, 72, 121
2, 350637, Note_off_c, 0, 72, 56
2, 350640, Note_on_c, 0, 75, 122
2, 350697, Note_off_c, 0, 75, 56
2, 350700, Note_on_c, 0, 80, 122
2, 350757, Note_off_c, 0, 80, 56
2, 350760, Note_on_c, 0, 84, 122
2, 350817, Note_off_c, 0, 84, 56
2, 350820, Note_on_c, 0, 87, 122
2, 350877, Note_off_c, 0, 87, 56
2, 350880, Note_on_c, 0, 92, 122
2, 350880, Note_on_c, 0, 87, 122
2, 350880, Note_on_c, 0, 80, 122
2, 350880, Note_on_c, 0, 84, 122
2, 351108, Note_off_c, 0, 84, 64
2, 351108, Note_off_c, 0, 80, 64
2, 351108, Note_off_c, 0, 87, 64
2, 351108, Note_off_c, 0, 92, 64
2, 351176, Control_c, 0, 64, 0
2, 351240, Control_c, 0, 93, 0
2, 351240, Control_c, 0, 91, 0
2, 351240, Control_c, 0, 10, 64
2, 351240, End_track
3, 0, Start_track
3, 0, Title_t, "Piano LH"
3, 0, Program_c, 1, 0
3, 0, Control_c, 1, 7, 105
3, 0, Control_c, 1, 93, 0
3, 0, Control_c, 1, 64, 127
3, 0, Control_c, 1, 91, 8
3, 0, Control_c, 1, 10, 56
3, 0, Note_on_c, 1, 51, 80
3, 0, Note_on_c, 1, 44, 80
3, 324, Note_off_c, 1, 44, 64
3, 324, Note_off_c, 1, 51, 64
3, 352, Control_c, 1, 64, 0
3, 360, Note_on_c, 1, 48, 80
3, 360, Note_on_c, 1, 51, 80
3, 468, Note_off_c, 1, 51, 64
3, 468, Note_off_c, 1, 48, 64
3, 480, Note_on_c, 1, 51, 80
3, 480, Note_on_c, 1, 48, 80
3, 642, Note_off_c, 1, 48, 64
3, 642, Note_off_c, 1, 51, 64
3, 660, Note_on_c, 1, 51, 80
3, 660, Note_on_c, 1, 48, 80
3, 714, Note_off_c, 1, 48, 56
3, 714, Note_off_c, 1, 51, 56
3, 720, Note_on_c, 1, 46, 80
3, 720, Note_on_c, 1, 51, 80
3, 936, Note_off_c, 1, 51, 64
3, 936, Note_off_c, 1, 46, 64
3, 960, Note_on_c, 1, 51, 80
3, 960, Control_c, 1, 64, 127
3, 960, Note_on_c, 1, 49, 80
3, 1392, Note_off_c, 1, 49, 64
3, 1392, Note_off_c, 1, 51, 64
3, 1412, Control_c, 1, 64, 0
3, 1440, Note_on_c, 1, 48, 80
3, 1440, Control_c, 1, 64, 127
3, 1440, Note_on_c, 1, 51, 80
3, 1548, Note_off_c, 1, 51, 64
3, 1560, Note_on_c, 1, 56, 80
3, 1668, Note_off_c, 1, 56, 64
3, 1680, Note_on_c, 1, 60, 80
3, 1788, Note_off_c, 1, 60, 64
3, 1792, Control_c, 1, 64, 0
3, 1800, Note_off_c, 1, 48, 64
3, 1800, Note_on_c, 1, 53, 80
3, 1800, Note_on_c, 1, 58, 80
3, 1896, Note_off_c, 1, 53, 64
3, 1908, Note_off_c, 1, 58, 64
3, 1920, Note_on_c, 1, 60, 80
3, 1920, Note_on_c, 1, 51, 80
3, 2016, Note_off_c, 1, 51, 64
3, 2028, Note_off_c, 1, 60, 64
3, 2040, Note_on_c, 1, 61, 80
3, 2040, Note_on_c, 1, 49, 80
3, 2136, Note_off_c, 1, 49, 64
3, 2148, Note_off_c, 1, 61, 64
3, 2160, Note_on_c, 1, 51, 80
3, 2160, Note_on_c, 1, 58, 80
3, 2376, Note_off_c, 1, 58, 64
3, 2376, Note_off_c, 1, 51, 64
3, 2400, Note_on_c, 1, 51, 80
3, 2400, Control_c, 1, 64, 127
3, 2400, Note_on_c, 1, 58, 80
3, 2508, Note_off_c, 1, 58, 64
3, 2508, Note_off_c, 1, 51, 64
3, 2560, Control_c, 1, 64, 0
3, 2880, Note_on_c, 1, 56, 80
3, 2880, Control_c, 1, 64, 127
3, 2934, Note_off_c, 1, 56, 56
3, 2940, Note_on_c, 1, 63, 80
3, 2940, Note_on_c, 1, 60, 80
3, 2994, Note_off_c, 1, 60, 56
3, 2994, Note_off_c, 1, 63, 56
3, 3000, Note_on_c, 1, 60, 80
3, 3000, Note_on_c, 1, 63, 80
3, 3054, Note_off_c, 1, 63, 56
3, 3054, Note_off_c, 1, 60, 56
3, 3060, Note_on_c, 1, 60, 80
3, 3060, Note_on_c, 1, 63, 80
3, 3114, Note_off_c, 1, 63, 56
3, 3114, Note_off_c, 1, 60, 56
3, 3120, Note_on_c, 1, 56, 80
3, 3174, Note_off_c, 1, 56, 56
3, 3180, Note_on_c, 1, 63, 80
3, 3180, Note_on_c, 1, 60, 80
3, 3234, Note_off_c, 1, 60, 56
3, 3234, Note_off_c, 1, 63, 56
3, 3240, Note_on_c, 1, 60, 80
3, 3240, Note_on_c, 1, 63, 80
3, 3294, Note_off_c, 1, 63, 56
3, 3294, Note_off_c, 1, 60, 56
3, 3300, Note_on_c, 1, 63, 80
3, 3300, Note_on_c, 1, 60, 80
3, 3354, Note_off_c, 1, 60, 56
3, 3354, Note_off_c, 1, 63, 56
3, 3360, Note_on_c, 1, 56, 80
3, 3414, Note_off_c, 1, 56, 56
3, 3420, Note_on_c, 1, 60, 80
3, 3420, Note_on_c, 1, 63, 80
3, 3474, Note_off_c, 1, 63, 56
3, 3474, Note_off_c, 1, 60, 56
3, 3480, Note_on_c, 1, 60, 80
3, 3480, Note_on_c, 1, 63, 80
3, 3534, Note_off_c, 1, 63, 56
3, 3534, Note_off_c, 1, 60, 56
3, 3540, Note_on_c, 1, 63, 80
3, 3540, Note_on_c, 1, 60, 80
3, 3588, Control_c, 1, 64, 0
3, 3594, Note_off_c, 1, 60, 56
3, 3594, Note_off_c, 1, 63, 56
3, 3600, Note_on_c, 1, 58, 80
3, 3600, Control_c, 1, 64, 127
3, 3654, Note_off_c, 1, 58, 56
3, 3660, Note_on_c, 1, 61, 80
3, 3660, Note_on_c, 1, 63, 80
3, 3714, Note_off_c, 1, 63, 56
3, 3714, Note_off_c, 1, 61, 56
3, 3720, Note_on_c, 1, 63, 80
3, 3720, Note_on_c, 1, 61, 80
3, 3774, Note_off_c, 1, 61, 56
3, 3774, Note_off_c, 1, 63, 56
3, 3780, Note_on_c, 1, 61, 80
3, 3780, Note_on_c, 1, 63, 80
3, 3828, Control_c, 1, 64, 0
3, 3834, Note_off_c, 1, 63, 56
3, 3834, Note_off_c, 1, 61, 56
3, 3840, Note_on_c, 1, 58, 80
3, 3840, Control_c, 1, 64, 127
3, 3894, Note_off_c, 1, 58, 56
3, 3900, Note_on_c, 1, 61, 80
3, 3900, Note_on_c, 1, 63, 80
3, 3954, Note_off_c, 1, 63, 56
3, 3954, Note_off_c, 1, 61, 56
3, 3960, Note_on_c, 1, 61, 80
3, 3960, Note_on_c, 1, 63, 80
3, 4014, Note_off_c, 1, 63, 56
3, 4014, Note_off_c, 1, 61, 56
3, 4020, Note_on_c, 1, 61, 80
3, 4020, Note_on_c, 1, 63, 80
3, 4074, Note_off_c, 1, 63, 56
3, 4074, Note_off_c, 1, 61, 56
3, 4080, Note_on_c, 1, 58, 80
3, 4134, Note_off_c, 1, 58, 56
3, 4140, Note_on_c, 1, 63, 80
3, 4140, Note_on_c, 1, 61, 80
3, 4194, Note_off_c, 1, 61, 56
3, 4194, Note_off_c, 1, 63, 56
3, 4200, Note_on_c, 1, 61, 80
3, 4200, Note_on_c, 1, 63, 80
3, 4254, Note_off_c, 1, 63, 56
3, 4254, Note_off_c, 1, 61, 56
3, 4260, Note_on_c, 1, 63, 80
3, 4260, Note_on_c, 1, 61, 80
3, 4304, Control_c, 1, 64, 0
3, 4314, Note_off_c, 1, 61, 56
3, 4314, Note_off_c, 1, 63, 56
3, 4320, Note_on_c, 1, 61, 80
3, 4320, Control_c, 1, 64, 127
3, 4374, Note_off_c, 1, 61, 56
3, 4380, Note_on_c, 1, 67, 80
3, 4380, Note_on_c, 1, 70, 80
3, 4380, Note_on_c, 1, 63, 80
3, 4434, Note_off_c, 1, 63, 56
3, 4434, Note_off_c, 1, 70, 56
3, 4434, Note_off_c, 1, 67, 56
3, 4440, Note_on_c, 1, 67, 80
3, 4440, Note_on_c, 1, 70, 80
3, 4440, Note_on_c, 1, 63, 80
3, 4494, Note_off_c, 1, 63, 56
3, 4494, Note_off_c, 1, 70, 56
3, 4494, Note_off_c, 1, 67, 56
3, 4500, Note_on_c, 1, 70, 80
3, 4500, Note_on_c, 1, 67, 80
3, 4500, Note_on_c, 1, 63, 80
3, 4554, Note_off_c, 1, 63, 56
3, 4554, Note_off_c, 1, 67, 56
3, 4554, Note_off_c, 1, 70, 56
3, 4560, Note_on_c, 1, 61, 80
3, 4614, Note_off_c, 1, 61, 56
3, 4620, Note_on_c, 1, 67, 80
3, 4620, Note_on_c, 1, 70, 80
3, 4620, Note_on_c, 1, 63, 80
3, 4674, Note_off_c, 1, 63, 56
3, 4674, Note_off_c, 1, 70, 56
3, 4674, Note_off_c, 1, 67, 56
3, 4680, Note_on_c, 1, 63, 80
3, 4680, Note_on_c, 1, 70, 80
3, 4680, Note_on_c, 1, 67, 80
3, 4734, Note_off_c, 1, 67, 56
3, 4734, Note_off_c, 1, 70, 56
3, 4734, Note_off_c, 1, 63, 56
3, 4740, Note_on_c, 1, 67, 80
3, 4740, Note_on_c, 1, 70, 80
3, 4740, Note_on_c, 1, 63, 80
3, 4794, Note_off_c, 1, 63, 56
3, 4794, Note_off_c, 1, 70, 56
3, 4794, Note_off_c, 1, 67, 56
3, 4800, Note_on_c, 1, 61, 80
3, 4854, Note_off_c, 1, 61, 56
3, 4860, Note_on_c, 1, 63, 80
3, 4860, Note_on_c, 1, 67, 80
3, 4860, Note_on_c, 1, 70, 80
3, 4914, Note_off_c, 1, 70, 56
3, 4914, Note_off_c, 1, 67, 56
3, 4914, Note_off_c, 1, 63, 56
3, 4920, Note_on_c, 1, 63, 80
3, 4920, Note_on_c, 1, 70, 80
3, 4920, Note_on_c, 1, 67, 80
3, 4974, Note_off_c, 1, 67, 56
3, 4974, Note_off_c, 1, 70, 56
3, 4974, Note_off_c, 1, 63, 56
3, 4980, Note_on_c, 1, 63, 80
3, 4980, Note_on_c, 1, 70, 80
3, 4980, Note_on_c, 1, 67, 80
3, 5024, Control_c, 1, 64, 0
3, 5034, Note_off_c, 1, 67, 56
3, 5034, Note_off_c, 1, 70, 56
3, 5034, Note_off_c, 1, 63, 56
3, 5040, Note_on_c, 1, 60, 80
3, 5040, Control_c, 1, 64, 127
3, 5094, Note_off_c, 1, 60, 56
3, 5100, Note_on_c, 1, 63, 80
3, 5100, Note_on_c, 1, 68, 80
3, 5154, Note_off_c, 1, 68, 56
3, 5154, Note_off_c, 1, 63, 56
3, 5160, Note_on_c, 1, 68, 80
3, 5160, Note_on_c, 1, 63, 80
3, 5214, Note_off_c, 1, 63, 56
3, 5214, Note_off_c, 1, 68, 56
3, 5220, Note_on_c, 1, 68, 80
3, 5220, Note_on_c, 1, 63, 80
3, 5274, Note_off_c, 1, 63, 56
3, 5274, Note_off_c, 1, 68, 56
3, 5280, Note_on_c, 1, 60, 80
3, 5334, Note_off_c, 1, 60, 56
3, 5340, Note_on_c, 1, 68, 80
3, 5340, Note_on_c, 1, 63, 80
3, 5394, Note_off_c, 1, 63, 56
3, 5394, Note_off_c, 1, 68, 56
3, 5400, Note_on_c, 1, 68, 80
3, 5400, Note_on_c, 1, 63, 80
3, 5454, Note_off_c, 1, 63, 56
3, 5454, Note_off_c, 1, 68, 56
3, 5460, Note_on_c, 1, 68, 80
3, 5460, Note_on_c, 1, 63, 80
3, 5514, Note_off_c, 1, 63, 56
3, 5514, Note_off_c, 1, 68, 56
3, 5520, Note_on_c, 1, 60, 80
3, 5574, Note_off_c, 1, 60, 56
3, 5580, Note_on_c, 1, 63, 80
3, 5580, Note_on_c, 1, 68, 80
3, 5634, Note_off_c, 1, 68, 56
3, 5634, Note_off_c, 1, 63, 56
3, 5640, Note_on_c, 1, 68, 80
3, 5640, Note_on_c, 1, 63, 80
3, 5694, Note_off_c, 1, 63, 56
3, 5694, Note_off_c, 1, 68, 56
3, 5700, Note_on_c, 1, 63, 80
3, 5700, Note_on_c, 1, 68, 80
3, 5744, Control_c, 1, 64, 0
3, 5754, Note_off_c, 1, 68, 56
3, 5754, Note_off_c, 1, 63, 56
3, 5760, Note_on_c, 1, 66, 80
3, 5760, Control_c, 1, 64, 126
3, 5814, Note_off_c, 1, 66, 56
3, 5820, Note_on_c, 1, 75, 80
3, 5820, Note_on_c, 1, 72, 80
3, 5820, Note_on_c, 1, 68, 80
3, 5874, Note_off_c, 1, 68, 56
3, 5874, Note_off_c, 1, 72, 56
3, 5874, Note_off_c, 1, 75, 56
3, 5880, Note_on_c, 1, 68, 81
3, 5880, Note_on_c, 1, 75, 81
3, 5880, Note_on_c, 1, 72, 81
3, 5934, Note_off_c, 1, 72, 56
3, 5934, Note_off_c, 1, 75, 56
3, 5934, Note_off_c, 1, 68, 56
3, 5940, Note_on_c, 1, 72, 82
3, 5940, Note_on_c, 1, 75, 82
3, 5940, Note_on_c, 1, 68, 82
3, 5994, Note_off_c, 1, 68, 56
3, 5994, Note_off_c, 1, 75, 56
3, 5994, Note_off_c, 1, 72, 56
3, 6000, Note_on_c, 1, 66, 83
3, 6054, Note_off_c, 1, 66, 56
3, 6060, Note_on_c, 1, 75, 84
3, 6060, Note_on_c, 1, 68, 84
3, 6060, Note_on_c, 1, 72, 84
3, 6114, Note_off_c, 1, 72, 56
3, 6114, Note_off_c, 1, 68, 56
3, 6114, Note_off_c, 1, 75, 56
3, 6120, Note_on_c, 1, 75, 85
3, 6120, Note_on_c, 1, 68, 85
3, 6120, Note_on_c, 1, 72, 85
3, 6132, Control_c, 1, 64, 0
3, 6174, Note_off_c, 1, 72, 56
3, 6174, Note_off_c, 1, 68, 56
3, 6174, Note_off_c, 1, 75, 56
3, 6180, Note_on_c, 1, 75, 85
3, 6180, Note_on_c, 1, 72, 85
3, 6180, Note_on_c, 1, 68, 85
3, 6234, Note_off_c, 1, 68, 56
3, 6234, Note_off_c, 1, 72, 56
3, 6234, Note_off_c, 1, 75, 56
3, 6240, Note_on_c, 1, 66, 86
3, 6294, Note_off_c, 1, 66, 56
3, 6300, Note_on_c, 1, 72, 87
3, 6300, Note_on_c, 1, 75, 87
3, 6300, Note_on_c, 1, 68, 87
3, 6354, Note_off_c, 1, 68, 56
3, 6354, Note_off_c, 1, 75, 56
3, 6354, Note_off_c, 1, 72, 56
3, 6360, Note_on_c, 1, 72, 88
3, 6360, Note_on_c, 1, 75, 88
3, 6360, Note_on_c, 1, 68, 88
3, 6414, Note_off_c, 1, 68, 56
3, 6414, Note_off_c, 1, 75, 56
3, 6414, Note_off_c, 1, 72, 56
3, 6420, Note_on_c, 1, 72, 89
3, 6420, Note_on_c, 1, 75, 89
3, 6420, Note_on_c, 1, 68, 89
3, 6474, Note_off_c, 1, 68, 56
3, 6474, Note_off_c, 1, 75, 56
3, 6474, Note_off_c, 1, 72, 56
3, 6480, Note_on_c, 1, 65, 90
3, 6534, Note_off_c, 1, 65, 56
3, 6540, Note_on_c, 1, 68, 90
3, 6540, Note_on_c, 1, 73, 90
3, 6594, Note_off_c, 1, 73, 56
3, 6594, Note_off_c, 1, 68, 56
3, 6600, Note_on_c, 1, 73, 91
3, 6600, Note_on_c, 1, 68, 91
3, 6654, Note_off_c, 1, 68, 56
3, 6654, Note_off_c, 1, 73, 56
3, 6660, Note_on_c, 1, 73, 92
3, 6660, Note_on_c, 1, 68, 92
3, 6714, Note_off_c, 1, 68, 56
3, 6714, Note_off_c, 1, 73, 56
3, 6720, Note_on_c, 1, 65, 93
3, 6720, Control_c, 1, 64, 127
3, 6774, Note_off_c, 1, 65, 56
3, 6780, Note_on_c, 1, 68, 94
3, 6780, Note_on_c, 1, 73, 94
3, 6834, Note_off_c, 1, 73, 56
3, 6834, Note_off_c, 1, 68, 56
3, 6840, Note_on_c, 1, 73, 95
3, 6840, Note_on_c, 1, 68, 95
3, 6884, Control_c, 1, 64, 0
3, 6894, Note_off_c, 1, 68, 56
3, 6894, Note_off_c, 1, 73, 56
3, 6900, Note_on_c, 1, 73, 95
3, 6900, Note_on_c, 1, 68, 95
3, 6954, Note_off_c, 1, 68, 56
3, 6954, Note_off_c, 1, 73, 56
3, 6960, Note_on_c, 1, 63, 96
3, 6960, Control_c, 1, 64, 127
3, 7014, Note_off_c, 1, 63, 56
3, 7020, Note_on_c, 1, 72, 97
3, 7020, Note_on_c, 1, 68, 97
3, 7074, Note_off_c, 1, 68, 56
3, 7074, Note_off_c, 1, 72, 56
3, 7080, Note_on_c, 1, 61, 98
3, 7134, Note_off_c, 1, 61, 56
3, 7140, Note_on_c, 1, 70, 99
3, 7140, Note_on_c, 1, 68, 99
3, 7180, Control_c, 1, 64, 0
3, 7194, Note_off_c, 1, 68, 56
3, 7194, Note_off_c, 1, 70, 56
3, 7200, Note_on_c, 1, 63, 100
3, 7200, Control_c, 1, 64, 127
3, 7254, Note_off_c, 1, 63, 56
3, 7260, Note_on_c, 1, 72, 99
3, 7260, Note_on_c, 1, 68, 99
3, 7314, Note_off_c, 1, 68, 56
3, 7314, Note_off_c, 1, 72, 56
3, 7320, Note_on_c, 1, 72, 97
3, 7320, Note_on_c, 1, 68, 97
3, 7374, Note_off_c, 1, 68, 56
3, 7374, Note_off_c, 1, 72, 56
3, 7380, Note_on_c, 1, 72, 95
3, 7380, Note_on_c, 1, 68, 95
3, 7434, Note_off_c, 1, 68, 56
3, 7434, Note_off_c, 1, 72, 56
3, 7440, Note_on_c, 1, 63, 94
3, 7494, Note_off_c, 1, 63, 56
3, 7500, Note_on_c, 1, 72, 92
3, 7500, Note_on_c, 1, 68, 92
3, 7554, Note_off_c, 1, 68, 56
3, 7554, Note_off_c, 1, 72, 56
3, 7560, Note_on_c, 1, 72, 90
3, 7560, Note_on_c, 1, 68, 90
3, 7614, Note_off_c, 1, 68, 56
3, 7614, Note_off_c, 1, 72, 56
3, 7620, Note_on_c, 1, 68, 89
3, 7620, Note_on_c, 1, 72, 89
3, 7674, Note_off_c, 1, 72, 56
3, 7674, Note_off_c, 1, 68, 56
3, 7680, Note_on_c, 1, 63, 87
3, 7734, Note_off_c, 1, 63, 56
3, 7740, Note_on_c, 1, 73, 85
3, 7740, Note_on_c, 1, 70, 85
3, 7794, Note_off_c, 1, 70, 56
3, 7794, Note_off_c, 1, 73, 56
3, 7800, Note_on_c, 1, 73, 84
3, 7800, Note_on_c, 1, 70, 84
3, 7854, Note_off_c, 1, 70, 56
3, 7854, Note_off_c, 1, 73, 56
3, 7860, Note_on_c, 1, 73, 82
3, 7860, Note_on_c, 1, 70, 82
3, 7904, Control_c, 1, 64, 0
3, 7914, Note_off_c, 1, 70, 56
3, 7914, Note_off_c, 1, 73, 56
3, 7920, Note_on_c, 1, 72, 80
3, 7920, Control_c, 1, 64, 127
3, 7920, Note_on_c, 1, 68, 80
3, 8028, Note_off_c, 1, 68, 64
3, 8028, Note_off_c, 1, 72, 64
3, 8624, Control_c, 1, 64, 0
3, 8640, Note_on_c, 1, 34, 80
3, 8640, Control_c, 1, 64, 127
3, 8640, Note_on_c, 1, 46, 80
3, 8640, Note_on_c, 1, 39, 80
3, 8748, Note_off_c, 1, 39, 64
3, 8748, Note_off_c, 1, 46, 64
3, 8748, Note_off_c, 1, 34, 64
3, 8880, Note_on_c, 1, 39, 80
3, 8880, Note_on_c, 1, 46, 80
3, 8880, Note_on_c, 1, 34, 80
3, 8988, Note_off_c, 1, 34, 64
3, 8988, Note_off_c, 1, 46, 64
3, 8988, Note_off_c, 1, 39, 64
3, 9120, Note_on_c, 1, 34, 80
3, 9120, Note_on_c, 1, 39, 80
3, 9120, Note_on_c, 1, 46, 80
3, 9228, Note_off_c, 1, 46, 64
3, 9228, Note_off_c, 1, 39, 64
3, 9228, Note_off_c, 1, 34, 64
3, 9344, Control_c, 1, 64, 0
3, 9360, Note_on_c, 1, 36, 80
3, 9360, Control_c, 1, 64, 127
3, 9360, Note_on_c, 1, 48, 80
3, 9360, Note_on_c, 1, 39, 80
3, 9468, Note_off_c, 1, 39, 64
3, 9468, Note_off_c, 1, 48, 64
3, 9468, Note_off_c, 1, 36, 64
3, 10064, Control_c, 1, 64, 0
3, 10080, Note_on_c, 1, 31, 80
3, 10080, Control_c, 1, 64, 127
3, 10080, Note_on_c, 1, 43, 80
3, 10080, Note_on_c, 1, 39, 80
3, 10188, Note_off_c, 1, 39, 64
3, 10188, Note_off_c, 1, 43, 64
3, 10188, Note_off_c, 1, 31, 64
3, 10320, Note_on_c, 1, 39, 80
3, 10320, Note_on_c, 1, 43, 80
3, 10320, Note_on_c, 1, 31, 80
3, 10428, Note_off_c, 1, 31, 64
3, 10428, Note_off_c, 1, 43, 64
3, 10428, Note_off_c, 1, 39, 64
3, 10560, Note_on_c, 1, 31, 80
3, 10560, Note_on_c, 1, 39, 80
3, 10560, Note_on_c, 1, 43, 80
3, 10668, Note_off_c, 1, 43, 64
3, 10668, Note_off_c, 1, 39, 64
3, 10668, Note_off_c, 1, 31, 64
3, 10784, Control_c, 1, 64, 0
3, 10800, Note_on_c, 1, 32, 80
3, 10800, Control_c, 1, 64, 127
3, 10800, Note_on_c, 1, 39, 80
3, 10800, Note_on_c, 1, 44, 80
3, 10908, Note_off_c, 1, 44, 64
3, 10908, Note_off_c, 1, 39, 64
3, 10908, Note_off_c, 1, 32, 64
3, 11264, Control_c, 1, 64, 0
3, 11280, Control_c, 1, 64, 127
3, 11504, Control_c, 1, 64, 0
3, 11520, Note_on_c, 1, 29, 80
3, 11520, Control_c, 1, 64, 127
3, 11520, Note_on_c, 1, 41, 80
3, 11628, Note_off_c, 1, 41, 64
3, 11628, Note_off_c, 1, 29, 64
3, 11760, Note_on_c, 1, 41, 82
3, 11760, Note_on_c, 1, 48, 82
3, 11760, Note_on_c, 1, 53, 82
3, 11868, Note_off_c, 1, 53, 64
3, 11868, Note_off_c, 1, 48, 64
3, 11868, Note_off_c, 1, 41, 64
3, 11988, Control_c, 1, 64, 0
3, 12000, Note_on_c, 1, 46, 84
3, 12000, Control_c, 1, 64, 127
3, 12000, Note_on_c, 1, 39, 84
3, 12000, Note_on_c, 1, 51, 84
3, 12108, Note_off_c, 1, 51, 64
3, 12108, Note_off_c, 1, 39, 64
3, 12108, Note_off_c, 1, 46, 64
3, 12224, Control_c, 1, 64, 0
3, 12240, Note_on_c, 1, 50, 87
3, 12240, Note_on_c, 1, 38, 87
3, 12240, Note_on_c, 1, 46, 87
3, 12348, Note_off_c, 1, 46, 64
3, 12348, Note_off_c, 1, 38, 64
3, 12348, Note_off_c, 1, 50, 64
3, 12480, Note_on_c, 1, 58, 89
3, 12480, Note_on_c, 1, 50, 89
3, 12480, Note_on_c, 1, 62, 89
3, 12588, Note_off_c, 1, 62, 64
3, 12588, Note_off_c, 1, 50, 64
3, 12588, Note_off_c, 1, 58, 64
3, 12720, Note_on_c, 1, 51, 92
3, 12720, Note_on_c, 1, 49, 92
3, 12720, Note_on_c, 1, 61, 92
3, 12828, Note_off_c, 1, 61, 64
3, 12828, Note_off_c, 1, 49, 64
3, 12828, Note_off_c, 1, 51, 64
3, 12960, Note_on_c, 1, 48, 94
3, 12960, Note_on_c, 1, 51, 94
3, 12960, Note_on_c, 1, 60, 94
3, 13056, Note_off_c, 1, 60, 64
3, 13056, Note_off_c, 1, 51, 64
3, 13056, Note_off_c, 1, 48, 64
3, 13080, Note_on_c, 1, 47, 95
3, 13080, Note_on_c, 1, 59, 95
3, 13080, Note_on_c, 1, 51, 95
3, 13176, Note_off_c, 1, 51, 64
3, 13176, Note_off_c, 1, 59, 64
3, 13176, Note_off_c, 1, 47, 64
3, 13200, Note_on_c, 1, 59, 97
3, 13200, Note_on_c, 1, 71, 97
3, 13200, Note_on_c, 1, 63, 97
3, 13296, Note_off_c, 1, 63, 64
3, 13296, Note_off_c, 1, 71, 64
3, 13296, Note_off_c, 1, 59, 64
3, 13320, Note_on_c, 1, 70, 98
3, 13320, Note_on_c, 1, 58, 98
3, 13320, Note_on_c, 1, 63, 98
3, 13416, Note_off_c, 1, 63, 64
3, 13416, Note_off_c, 1, 58, 64
3, 13416, Note_off_c, 1, 70, 64
3, 13440, Note_on_c, 1, 68, 99
3, 13440, Note_on_c, 1, 56, 99
3, 13440, Note_on_c, 1, 63, 99
3, 13548, Note_off_c, 1, 63, 64
3, 13548, Note_off_c, 1, 56, 64
3, 13548, Note_off_c, 1, 68, 64
3, 13560, Note_on_c, 1, 55, 100
3, 13560, Note_on_c, 1, 67, 100
3, 13560, Note_on_c, 1, 63, 100
3, 13668, Note_off_c, 1, 63, 64
3, 13668, Note_off_c, 1, 67, 64
3, 13668, Note_off_c, 1, 55, 64
3, 13740, Note_on_c, 1, 60, 80
3, 13797, Note_off_c, 1, 60, 56
3, 13800, Note_on_c, 1, 48, 80
3, 13971, Note_off_c, 1, 48, 64
3, 13980, Note_on_c, 1, 58, 80
3, 14037, Note_off_c, 1, 58, 56
3, 14040, Note_on_c, 1, 46, 80
3, 14211, Note_off_c, 1, 46, 64
3, 14220, Note_on_c, 1, 56, 80
3, 14277, Note_off_c, 1, 56, 56
3, 14280, Note_on_c, 1, 44, 80
3, 14457, Note_off_c, 1, 44, 64
3, 14460, Note_on_c, 1, 58, 80
3, 14517, Note_off_c, 1, 58, 56
3, 14520, Note_on_c, 1, 46, 80
3, 14691, Note_off_c, 1, 46, 64
3, 14700, Note_on_c, 1, 56, 80
3, 14757, Note_off_c, 1, 56, 56
3, 14760, Note_on_c, 1, 44, 80
3, 14874, Note_off_c, 1, 44, 64
3, 14880, Note_on_c, 1, 51, 80
3, 14940, Note_off_c, 1, 51, 56
3, 14940, Note_on_c, 1, 43, 80
3, 14997, Note_off_c, 1, 43, 56
3, 15000, Note_on_c, 1, 44, 80
3, 15057, Note_off_c, 1, 44, 56
3, 15060, Note_on_c, 1, 46, 80
3, 15117, Note_off_c, 1, 46, 56
3, 15180, Note_on_c, 1, 49, 80
3, 15234, Note_off_c, 1, 49, 56
3, 15240, Note_on_c, 1, 48, 80
3, 15294, Note_off_c, 1, 48, 56
3, 15300, Note_on_c, 1, 36, 80
3, 15336, Note_off_c, 1, 36, 56
3, 15420, Note_on_c, 1, 48, 80
3, 15474, Note_off_c, 1, 48, 56
3, 15480, Note_on_c, 1, 46, 80
3, 15534, Note_off_c, 1, 46, 56
3, 15540, Note_on_c, 1, 34, 80
3, 15576, Note_off_c, 1, 34, 56
3, 15660, Note_on_c, 1, 46, 80
3, 15714, Note_off_c, 1, 46, 56
3, 15720, Note_on_c, 1, 44, 80
3, 15774, Note_off_c, 1, 44, 56
3, 15780, Note_on_c, 1, 46, 80
3, 15816, Note_off_c, 1, 46, 56
3, 15900, Note_on_c, 1, 47, 80
3, 15954, Note_off_c, 1, 47, 56
3, 15960, Note_on_c, 1, 46, 80
3, 16014, Note_off_c, 1, 46, 56
3, 16020, Note_on_c, 1, 34, 80
3, 16056, Note_off_c, 1, 34, 56
3, 16140, Note_on_c, 1, 55, 80
3, 16194, Note_off_c, 1, 55, 56
3, 16200, Note_on_c, 1, 53, 80
3, 16254, Note_off_c, 1, 53, 56
3, 16260, Note_on_c, 1, 41, 80
3, 16296, Note_off_c, 1, 41, 56
3, 16320, Note_on_c, 1, 55, 80
3, 16320, Note_on_c, 1, 63, 80
3, 16380, Note_off_c, 1, 63, 56
3, 16380, Note_off_c, 1, 55, 56
3, 16380, Note_on_c, 1, 56, 80
3, 16380, Note_on_c, 1, 62, 80
3, 16416, Note_off_c, 1, 62, 56
3, 16416, Note_off_c, 1, 56, 56
3, 16440, Note_on_c, 1, 63, 80
3, 16440, Note_on_c, 1, 55, 80
3, 16500, Note_off_c, 1, 55, 56
3, 16500, Note_off_c, 1, 63, 56
3, 16500, Note_on_c, 1, 62, 80
3, 16500, Note_on_c, 1, 56, 80
3, 16536, Note_off_c, 1, 56, 56
3, 16536, Note_off_c, 1, 62, 56
3, 16560, Note_on_c, 1, 63, 80
3, 16560, Note_on_c, 1, 55, 80
3, 16776, Note_off_c, 1, 55, 64
3, 16776, Note_off_c, 1, 63, 64
3, 16800, Note_on_c, 1, 62, 82
3, 16800, Note_on_c, 1, 56, 82
3, 17016, Note_off_c, 1, 56, 64
3, 17016, Note_off_c, 1, 62, 64
3, 17040, Note_on_c, 1, 63, 84
3, 17040, Note_on_c, 1, 55, 84
3, 17100, Note_off_c, 1, 55, 56
3, 17100, Note_off_c, 1, 63, 56
3, 17100, Note_on_c, 1, 53, 85
3, 17100, Note_on_c, 1, 60, 85
3, 17136, Note_off_c, 1, 60, 56
3, 17136, Note_off_c, 1, 53, 56
3, 17160, Note_on_c, 1, 63, 85
3, 17160, Note_on_c, 1, 55, 85
3, 17220, Note_off_c, 1, 55, 56
3, 17220, Note_off_c, 1, 63, 56
3, 17220, Note_on_c, 1, 53, 86
3, 17220, Note_on_c, 1, 60, 86
3, 17256, Note_off_c, 1, 60, 56
3, 17256, Note_off_c, 1, 53, 56
3, 17280, Note_on_c, 1, 55, 86
3, 17280, Note_on_c, 1, 58, 86
3, 17280, Note_on_c, 1, 63, 86
3, 17520, Note_off_c, 1, 63, 64
3, 17520, Note_off_c, 1, 58, 64
3, 17520, Note_off_c, 1, 55, 64
3, 17520, Note_on_c, 1, 53, 88
3, 17547, Note_off_c, 1, 53, 48
3, 17550, Note_on_c, 1, 55, 89
3, 17577, Note_off_c, 1, 55, 48
3, 17580, Note_on_c, 1, 53, 89
3, 17607, Note_off_c, 1, 53, 48
3, 17610, Note_on_c, 1, 55, 89
3, 17637, Note_off_c, 1, 55, 48
3, 17640, Note_on_c, 1, 53, 90
3, 17667, Note_off_c, 1, 53, 48
3, 17670, Note_on_c, 1, 55, 90
3, 17697, Note_off_c, 1, 55, 48
3, 17700, Note_on_c, 1, 53, 90
3, 17727, Note_off_c, 1, 53, 48
3, 17730, Note_on_c, 1, 55, 90
3, 17757, Note_off_c, 1, 55, 48
3, 17760, Note_on_c, 1, 51, 91
3, 17787, Note_off_c, 1, 51, 48
3, 17790, Note_on_c, 1, 53, 91
3, 17817, Note_off_c, 1, 53, 48
3, 17820, Note_on_c, 1, 51, 91
3, 17847, Note_off_c, 1, 51, 48
3, 17850, Note_on_c, 1, 53, 91
3, 17877, Note_off_c, 1, 53, 48
3, 17880, Note_on_c, 1, 51, 92
3, 17907, Note_off_c, 1, 51, 48
3, 17910, Note_on_c, 1, 53, 92
3, 17937, Note_off_c, 1, 53, 48
3, 17940, Note_on_c, 1, 51, 92
3, 17967, Note_off_c, 1, 51, 48
3, 17970, Note_on_c, 1, 53, 93
3, 17997, Note_off_c, 1, 53, 48
3, 18000, Note_on_c, 1, 50, 93
3, 18027, Note_off_c, 1, 50, 48
3, 18030, Note_on_c, 1, 51, 93
3, 18057, Note_off_c, 1, 51, 48
3, 18060, Note_on_c, 1, 50, 93
3, 18087, Note_off_c, 1, 50, 48
3, 18090, Note_on_c, 1, 51, 94
3, 18117, Note_off_c, 1, 51, 48
3, 18120, Note_on_c, 1, 50, 94
3, 18147, Note_off_c, 1, 50, 48
3, 18150, Note_on_c, 1, 51, 94
3, 18177, Note_off_c, 1, 51, 48
3, 18180, Note_on_c, 1, 50, 95
3, 18207, Note_off_c, 1, 50, 48
3, 18210, Note_on_c, 1, 51, 95
3, 18237, Note_off_c, 1, 51, 48
3, 18240, Note_on_c, 1, 48, 95
3, 18267, Note_off_c, 1, 48, 48
3, 18270, Note_on_c, 1, 49, 95
3, 18297, Note_off_c, 1, 49, 48
3, 18300, Note_on_c, 1, 48, 96
3, 18327, Note_off_c, 1, 48, 48
3, 18330, Note_on_c, 1, 49, 96
3, 18357, Note_off_c, 1, 49, 48
3, 18360, Note_on_c, 1, 48, 96
3, 18387, Note_off_c, 1, 48, 48
3, 18390, Note_on_c, 1, 49, 96
3, 18417, Note_off_c, 1, 49, 48
3, 18420, Note_on_c, 1, 48, 97
3, 18447, Note_off_c, 1, 48, 48
3, 18450, Note_on_c, 1, 49, 97
3, 18477, Note_off_c, 1, 49, 48
3, 18480, Note_on_c, 1, 46, 97
3, 18507, Note_off_c, 1, 46, 48
3, 18510, Note_on_c, 1, 48, 98
3, 18537, Note_off_c, 1, 48, 48
3, 18540, Note_on_c, 1, 46, 98
3, 18567, Note_off_c, 1, 46, 48
3, 18570, Note_on_c, 1, 48, 98
3, 18597, Note_off_c, 1, 48, 48
3, 18600, Note_on_c, 1, 46, 98
3, 18627, Note_off_c, 1, 46, 48
3, 18630, Note_on_c, 1, 48, 99
3, 18657, Note_off_c, 1, 48, 48
3, 18660, Note_on_c, 1, 46, 99
3, 18687, Note_off_c, 1, 46, 48
3, 18690, Note_on_c, 1, 48, 99
3, 18717, Note_off_c, 1, 48, 48
3, 18720, Note_on_c, 1, 44, 95
3, 18749, Note_off_c, 1, 44, 48
3, 18750, Note_on_c, 1, 46, 95
3, 18779, Note_off_c, 1, 46, 48
3, 18780, Note_on_c, 1, 44, 95
3, 18809, Note_off_c, 1, 44, 48
3, 18810, Note_on_c, 1, 46, 95
3, 18839, Note_off_c, 1, 46, 48
3, 18840, Note_on_c, 1, 44, 95
3, 18869, Note_off_c, 1, 44, 48
3, 18870, Note_on_c, 1, 46, 96
3, 18899, Note_off_c, 1, 46, 48
3, 18900, Note_on_c, 1, 44, 96
3, 18929, Note_off_c, 1, 44, 48
3, 18930, Note_on_c, 1, 46, 96
3, 18959, Note_off_c, 1, 46, 48
3, 18960, Note_on_c, 1, 44, 96
3, 18989, Note_off_c, 1, 44, 48
3, 18990, Note_on_c, 1, 46, 96
3, 19019, Note_off_c, 1, 46, 48
3, 19020, Note_on_c, 1, 44, 97
3, 19049, Note_off_c, 1, 44, 48
3, 19050, Note_on_c, 1, 46, 97
3, 19079, Note_off_c, 1, 46, 48
3, 19080, Note_on_c, 1, 44, 97
3, 19109, Note_off_c, 1, 44, 48
3, 19110, Note_on_c, 1, 46, 97
3, 19139, Note_off_c, 1, 46, 48
3, 19140, Note_on_c, 1, 44, 97
3, 19169, Note_off_c, 1, 44, 48
3, 19170, Note_on_c, 1, 46, 98
3, 19199, Note_off_c, 1, 46, 48
3, 19200, Note_on_c, 1, 44, 98
3, 19257, Note_off_c, 1, 44, 56
3, 19260, Note_on_c, 1, 43, 98
3, 19289, Note_off_c, 1, 43, 48
3, 19290, Note_on_c, 1, 44, 98
3, 19319, Note_off_c, 1, 44, 48
3, 19320, Note_on_c, 1, 46, 99
3, 19349, Note_off_c, 1, 46, 48
3, 19350, Note_on_c, 1, 44, 99
3, 19379, Note_off_c, 1, 44, 48
3, 19380, Note_on_c, 1, 43, 99
3, 19409, Note_off_c, 1, 43, 48
3, 19410, Note_on_c, 1, 41, 99
3, 19439, Note_off_c, 1, 41, 48
3, 19440, Note_on_c, 1, 39, 100
3, 19476, Note_off_c, 1, 39, 56
3, 19500, Note_on_c, 1, 55, 100
3, 19500, Note_on_c, 1, 51, 100
3, 19554, Note_off_c, 1, 51, 56
3, 19554, Note_off_c, 1, 55, 56
3, 19560, Note_on_c, 1, 51, 100
3, 19560, Note_on_c, 1, 55, 100
3, 19614, Note_off_c, 1, 55, 56
3, 19614, Note_off_c, 1, 51, 56
3, 19620, Note_on_c, 1, 50, 100
3, 19620, Note_on_c, 1, 55, 100
3, 19620, Note_on_c, 1, 51, 100
3, 19674, Note_off_c, 1, 51, 56
3, 19674, Note_off_c, 1, 55, 56
3, 19674, Note_off_c, 1, 50, 56
3, 19680, Note_on_c, 1, 51, 100
3, 19680, Note_on_c, 1, 55, 100
3, 19680, Note_on_c, 1, 50, 100
3, 19734, Note_off_c, 1, 50, 56
3, 19734, Note_off_c, 1, 55, 56
3, 19734, Note_off_c, 1, 51, 56
3, 19740, Note_on_c, 1, 48, 100
3, 19740, Note_on_c, 1, 51, 100
3, 19740, Note_on_c, 1, 55, 100
3, 19794, Note_off_c, 1, 55, 56
3, 19794, Note_off_c, 1, 51, 56
3, 19794, Note_off_c, 1, 48, 56
3, 19800, Note_on_c, 1, 48, 100
3, 19800, Note_on_c, 1, 51, 100
3, 19800, Note_on_c, 1, 55, 100
3, 19854, Note_off_c, 1, 55, 56
3, 19854, Note_off_c, 1, 51, 56
3, 19854, Note_off_c, 1, 48, 56
3, 19860, Note_on_c, 1, 51, 100
3, 19860, Note_on_c, 1, 55, 100
3, 19860, Note_on_c, 1, 46, 100
3, 19914, Note_off_c, 1, 46, 56
3, 19914, Note_off_c, 1, 55, 56
3, 19914, Note_off_c, 1, 51, 56
3, 19920, Note_on_c, 1, 51, 100
3, 19920, Note_on_c, 1, 46, 100
3, 19920, Note_on_c, 1, 55, 100
3, 19974, Note_off_c, 1, 55, 56
3, 19974, Note_off_c, 1, 46, 56
3, 19974, Note_off_c, 1, 51, 56
3, 19980, Note_on_c, 1, 51, 100
3, 19980, Note_on_c, 1, 55, 100
3, 19980, Note_on_c, 1, 44, 100
3, 20034, Note_off_c, 1, 44, 56
3, 20034, Note_off_c, 1, 55, 56
3, 20034, Note_off_c, 1, 51, 56
3, 20040, Note_on_c, 1, 51, 100
3, 20040, Note_on_c, 1, 55, 100
3, 20040, Note_on_c, 1, 43, 100
3, 20094, Note_off_c, 1, 43, 56
3, 20094, Note_off_c, 1, 55, 56
3, 20094, Note_off_c, 1, 51, 56
3, 20100, Note_on_c, 1, 43, 100
3, 20100, Note_on_c, 1, 51, 100
3, 20100, Note_on_c, 1, 55, 100
3, 20154, Note_off_c, 1, 55, 56
3, 20154, Note_off_c, 1, 51, 56
3, 20154, Note_off_c, 1, 43, 56
3, 20160, Note_on_c, 1, 43, 100
3, 20196, Note_off_c, 1, 43, 56
3, 20220, Note_on_c, 1, 55, 100
3, 20220, Note_on_c, 1, 51, 100
3, 20274, Note_off_c, 1, 51, 56
3, 20274, Note_off_c, 1, 55, 56
3, 20280, Note_on_c, 1, 51, 100
3, 20280, Note_on_c, 1, 55, 100
3, 20334, Note_off_c, 1, 55, 56
3, 20334, Note_off_c, 1, 51, 56
3, 20340, Note_on_c, 1, 50, 100
3, 20340, Note_on_c, 1, 55, 100
3, 20340, Note_on_c, 1, 51, 100
3, 20394, Note_off_c, 1, 51, 56
3, 20394, Note_off_c, 1, 55, 56
3, 20394, Note_off_c, 1, 50, 56
3, 20400, Note_on_c, 1, 51, 100
3, 20400, Note_on_c, 1, 55, 100
3, 20400, Note_on_c, 1, 50, 100
3, 20454, Note_off_c, 1, 50, 56
3, 20454, Note_off_c, 1, 55, 56
3, 20454, Note_off_c, 1, 51, 56
3, 20460, Note_on_c, 1, 51, 100
3, 20460, Note_on_c, 1, 48, 100
3, 20460, Note_on_c, 1, 55, 100
3, 20514, Note_off_c, 1, 55, 56
3, 20514, Note_off_c, 1, 48, 56
3, 20514, Note_off_c, 1, 51, 56
3, 20520, Note_on_c, 1, 48, 100
3, 20520, Note_on_c, 1, 51, 100
3, 20520, Note_on_c, 1, 55, 100
3, 20574, Note_off_c, 1, 55, 56
3, 20574, Note_off_c, 1, 51, 56
3, 20574, Note_off_c, 1, 48, 56
3, 20580, Note_on_c, 1, 46, 100
3, 20580, Note_on_c, 1, 55, 100
3, 20580, Note_on_c, 1, 51, 100
3, 20634, Note_off_c, 1, 51, 56
3, 20634, Note_off_c, 1, 55, 56
3, 20634, Note_off_c, 1, 46, 56
3, 20640, Note_on_c, 1, 55, 100
3, 20640, Note_on_c, 1, 46, 100
3, 20640, Note_on_c, 1, 51, 100
3, 20694, Note_off_c, 1, 51, 56
3, 20694, Note_off_c, 1, 46, 56
3, 20694, Note_off_c, 1, 55, 56
3, 20700, Note_on_c, 1, 55, 100
3, 20700, Note_on_c, 1, 51, 100
3, 20700, Note_on_c, 1, 44, 100
3, 20754, Note_off_c, 1, 44, 56
3, 20754, Note_off_c, 1, 51, 56
3, 20754, Note_off_c, 1, 55, 56
3, 20760, Note_on_c, 1, 43, 100
3, 20760, Note_on_c, 1, 55, 100
3, 20760, Note_on_c, 1, 51, 100
3, 20814, Note_off_c, 1, 51, 56
3, 20814, Note_off_c, 1, 55, 56
3, 20814, Note_off_c, 1, 43, 56
3, 20820, Note_on_c, 1, 51, 100
3, 20820, Note_on_c, 1, 55, 100
3, 20820, Note_on_c, 1, 43, 100
3, 20874, Note_off_c, 1, 43, 56
3, 20874, Note_off_c, 1, 55, 56
3, 20874, Note_off_c, 1, 51, 56
3, 20880, Note_on_c, 1, 43, 100
3, 20916, Note_off_c, 1, 43, 56
3, 20940, Note_on_c, 1, 55, 99
3, 20940, Note_on_c, 1, 51, 99
3, 20994, Note_off_c, 1, 51, 56
3, 20994, Note_off_c, 1, 55, 56
3, 21000, Note_on_c, 1, 51, 97
3, 21000, Note_on_c, 1, 55, 97
3, 21054, Note_off_c, 1, 55, 56
3, 21054, Note_off_c, 1, 51, 56
3, 21060, Note_on_c, 1, 55, 95
3, 21060, Note_on_c, 1, 50, 95
3, 21060, Note_on_c, 1, 51, 95
3, 21114, Note_off_c, 1, 51, 56
3, 21114, Note_off_c, 1, 50, 56
3, 21114, Note_off_c, 1, 55, 56
3, 21120, Note_on_c, 1, 51, 94
3, 21120, Note_on_c, 1, 55, 94
3, 21120, Note_on_c, 1, 50, 94
3, 21174, Note_off_c, 1, 50, 56
3, 21174, Note_off_c, 1, 55, 56
3, 21174, Note_off_c, 1, 51, 56
3, 21180, Note_on_c, 1, 51, 92
3, 21180, Note_on_c, 1, 48, 92
3, 21180, Note_on_c, 1, 55, 92
3, 21234, Note_off_c, 1, 55, 56
3, 21234, Note_off_c, 1, 48, 56
3, 21234, Note_off_c, 1, 51, 56
3, 21240, Note_on_c, 1, 48, 90
3, 21240, Note_on_c, 1, 51, 90
3, 21240, Note_on_c, 1, 55, 90
3, 21294, Note_off_c, 1, 55, 56
3, 21294, Note_off_c, 1, 51, 56
3, 21294, Note_off_c, 1, 48, 56
3, 21300, Note_on_c, 1, 46, 89
3, 21300, Note_on_c, 1, 55, 89
3, 21300, Note_on_c, 1, 51, 89
3, 21354, Note_off_c, 1, 51, 56
3, 21354, Note_off_c, 1, 55, 56
3, 21354, Note_off_c, 1, 46, 56
3, 21360, Note_on_c, 1, 55, 87
3, 21360, Note_on_c, 1, 51, 87
3, 21360, Note_on_c, 1, 46, 87
3, 21414, Note_off_c, 1, 46, 56
3, 21414, Note_off_c, 1, 51, 56
3, 21414, Note_off_c, 1, 55, 56
3, 21420, Note_on_c, 1, 55, 85
3, 21420, Note_on_c, 1, 51, 85
3, 21420, Note_on_c, 1, 46, 85
3, 21474, Note_off_c, 1, 46, 56
3, 21474, Note_off_c, 1, 51, 56
3, 21474, Note_off_c, 1, 55, 56
3, 21480, Note_on_c, 1, 51, 84
3, 21480, Note_on_c, 1, 55, 84
3, 21480, Note_on_c, 1, 44, 84
3, 21534, Note_off_c, 1, 44, 56
3, 21534, Note_off_c, 1, 55, 56
3, 21534, Note_off_c, 1, 51, 56
3, 21540, Note_on_c, 1, 51, 82
3, 21540, Note_on_c, 1, 43, 82
3, 21540, Note_on_c, 1, 55, 82
3, 21594, Note_off_c, 1, 55, 56
3, 21594, Note_off_c, 1, 43, 56
3, 21594, Note_off_c, 1, 51, 56
3, 21600, Note_on_c, 1, 51, 80
3, 21600, Note_on_c, 1, 44, 80
3, 21600, Note_on_c, 1, 53, 80
3, 21816, Note_off_c, 1, 53, 64
3, 21816, Note_off_c, 1, 44, 64
3, 21816, Note_off_c, 1, 51, 64
3, 22020, Note_on_c, 1, 51, 80
3, 22020, Note_on_c, 1, 45, 80
3, 22020, Note_on_c, 1, 53, 80
3, 22077, Note_off_c, 1, 53, 56
3, 22077, Note_off_c, 1, 45, 56
3, 22077, Note_off_c, 1, 51, 56
3, 22080, Note_on_c, 1, 50, 80
3, 22080, Note_on_c, 1, 53, 80
3, 22080, Note_on_c, 1, 46, 80
3, 22194, Note_off_c, 1, 46, 64
3, 22194, Note_off_c, 1, 53, 64
3, 22194, Note_off_c, 1, 50, 64
3, 22260, Note_on_c, 1, 46, 80
3, 22260, Note_on_c, 1, 50, 80
3, 22317, Note_off_c, 1, 50, 56
3, 22317, Note_off_c, 1, 46, 56
3, 22320, Note_on_c, 1, 51, 80
3, 22320, Note_on_c, 1, 48, 80
3, 22548, Note_off_c, 1, 48, 64
3, 22548, Note_off_c, 1, 51, 64
3, 22560, Note_on_c, 1, 50, 80
3, 22560, Note_on_c, 1, 59, 80
3, 22788, Note_off_c, 1, 59, 64
3, 22788, Note_off_c, 1, 50, 64
3, 22800, Note_on_c, 1, 51, 80
3, 22800, Note_on_c, 1, 58, 80
3, 22854, Note_off_c, 1, 58, 56
3, 22854, Note_off_c, 1, 51, 56
3, 22860, Note_on_c, 1, 67, 80
3, 22860, Note_on_c, 1, 63, 80
3, 22914, Note_off_c, 1, 63, 56
3, 22914, Note_off_c, 1, 67, 56
3, 22920, Note_on_c, 1, 68, 80
3, 22920, Note_on_c, 1, 65, 80
3, 22974, Note_off_c, 1, 65, 56
3, 22974, Note_off_c, 1, 68, 56
3, 22980, Note_on_c, 1, 70, 80
3, 22980, Note_on_c, 1, 67, 80
3, 23034, Note_off_c, 1, 67, 56
3, 23034, Note_off_c, 1, 70, 56
3, 23040, Note_on_c, 1, 68, 80
3, 23040, Note_on_c, 1, 72, 80
3, 23148, Note_off_c, 1, 72, 64
3, 23148, Note_off_c, 1, 68, 64
3, 23460, Note_on_c, 1, 45, 80
3, 23460, Note_on_c, 1, 51, 80
3, 23460, Note_on_c, 1, 53, 80
3, 23514, Note_off_c, 1, 53, 56
3, 23514, Note_off_c, 1, 51, 56
3, 23514, Note_off_c, 1, 45, 56
3, 23520, Note_on_c, 1, 53, 80
3, 23520, Note_on_c, 1, 46, 80
3, 23628, Note_off_c, 1, 46, 64
3, 23628, Note_off_c, 1, 53, 64
3, 23700, Note_on_c, 1, 46, 80
3, 23700, Note_on_c, 1, 56, 80
3, 23757, Note_off_c, 1, 56, 56
3, 23757, Note_off_c, 1, 46, 56
3, 23760, Note_on_c, 1, 55, 80
3, 23760, Note_on_c, 1, 51, 80
3, 23874, Note_off_c, 1, 55, 64
3, 23880, Note_on_c, 1, 56, 80
3, 23937, Note_off_c, 1, 56, 56
3, 23940, Note_on_c, 1, 55, 80
3, 23997, Note_off_c, 1, 55, 56
3, 24000, Note_on_c, 1, 53, 80
3, 24057, Note_off_c, 1, 53, 56
3, 24057, Note_off_c, 1, 51, 64
3, 24060, Note_on_c, 1, 51, 80
3, 24117, Note_off_c, 1, 51, 56
3, 24120, Note_on_c, 1, 50, 80
3, 24177, Note_off_c, 1, 50, 56
3, 24180, Note_on_c, 1, 51, 80
3, 24237, Note_off_c, 1, 51, 56
3, 24240, Note_on_c, 1, 53, 80
3, 24240, Note_on_c, 1, 46, 80
3, 24468, Note_off_c, 1, 46, 64
3, 24468, Note_off_c, 1, 53, 64
3, 24480, Note_on_c, 1, 51, 80
3, 24480, Note_on_c, 1, 39, 80
3, 24537, Note_off_c, 1, 51, 56
3, 24540, Note_on_c, 1, 43, 80
3, 24597, Note_off_c, 1, 43, 56
3, 24600, Note_on_c, 1, 44, 80
3, 24657, Note_off_c, 1, 44, 56
3, 24660, Note_on_c, 1, 43, 80
3, 24717, Note_off_c, 1, 43, 56
3, 24720, Note_on_c, 1, 41, 80
3, 24777, Note_off_c, 1, 41, 56
3, 24777, Note_off_c, 1, 39, 64
3, 24780, Note_on_c, 1, 39, 80
3, 24837, Note_off_c, 1, 39, 56
3, 24840, Note_on_c, 1, 38, 80
3, 24897, Note_off_c, 1, 38, 56
3, 24900, Note_on_c, 1, 39, 80
3, 24957, Note_off_c, 1, 39, 56
3, 24960, Note_on_c, 1, 34, 80
3, 24960, Note_on_c, 1, 41, 80
3, 25188, Note_off_c, 1, 41, 64
3, 25188, Note_off_c, 1, 34, 64
3, 25200, Note_on_c, 1, 39, 80
3, 25200, Note_on_c, 1, 43, 80
3, 25416, Note_off_c, 1, 43, 64
3, 25416, Note_off_c, 1, 39, 64
3, 25440, Note_on_c, 1, 51, 80
3, 25440, Note_on_c, 1, 46, 80
3, 25440, Note_on_c, 1, 43, 80
3, 25440, Note_on_c, 1, 39, 80
3, 26136, Note_off_c, 1, 39, 64
3, 26136, Note_off_c, 1, 43, 64
3, 26136, Note_off_c, 1, 46, 64
3, 26136, Note_off_c, 1, 51, 64
3, 26160, Note_on_c, 1, 63, 80
3, 26160, Note_on_c, 1, 58, 80
3, 26160, Note_on_c, 1, 51, 80
3, 26160, Note_on_c, 1, 55, 80
3, 26376, Note_off_c, 1, 55, 64
3, 26376, Note_off_c, 1, 51, 64
3, 26376, Note_off_c, 1, 58, 64
3, 26376, Note_off_c, 1, 63, 64
3, 26400, Note_on_c, 1, 55, 80
3, 26400, Note_on_c, 1, 63, 80
3, 26400, Note_on_c, 1, 58, 80
3, 26400, Note_on_c, 1, 51, 80
3, 26616, Note_off_c, 1, 51, 64
3, 26616, Note_off_c, 1, 58, 64
3, 26616, Note_off_c, 1, 63, 64
3, 26616, Note_off_c, 1, 55, 64
3, 26640, Note_on_c, 1, 51, 80
3, 26640, Control_c, 1, 64, 126
3, 26640, Note_on_c, 1, 63, 80
3, 26640, Note_on_c, 1, 58, 80
3, 26640, Note_on_c, 1, 55, 80
3, 26856, Note_off_c, 1, 55, 64
3, 26856, Note_off_c, 1, 58, 64
3, 26856, Note_off_c, 1, 63, 64
3, 26856, Note_off_c, 1, 51, 64
3, 26880, Note_on_c, 1, 39, 77
3, 27120, Note_on_c, 1, 51, 74
3, 27312, Note_off_c, 1, 39, 64
3, 27336, Note_off_c, 1, 51, 64
3, 27344, Control_c, 1, 64, 0
3, 27360, Note_on_c, 1, 37, 70
3, 27360, Control_c, 1, 64, 126
3, 27600, Note_on_c, 1, 49, 73
3, 28008, Note_off_c, 1, 37, 64
3, 28032, Note_off_c, 1, 49, 64
3, 28064, Control_c, 1, 64, 0
3, 28080, Note_on_c, 1, 36, 80
3, 28080, Note_on_c, 1, 48, 80
3, 28134, Note_off_c, 1, 48, 56
3, 28134, Note_off_c, 1, 36, 56
3, 28140, Note_on_c, 1, 56, 80
3, 28140, Note_on_c, 1, 53, 80
3, 28194, Note_off_c, 1, 53, 56
3, 28194, Note_off_c, 1, 56, 56
3, 28200, Note_on_c, 1, 56, 80
3, 28200, Note_on_c, 1, 53, 80
3, 28254, Note_off_c, 1, 53, 56
3, 28254, Note_off_c, 1, 56, 56
3, 28260, Note_on_c, 1, 53, 80
3, 28260, Note_on_c, 1, 56, 80
3, 28314, Note_off_c, 1, 56, 56
3, 28314, Note_off_c, 1, 53, 56
3, 28320, Note_on_c, 1, 48, 80
3, 28374, Note_off_c, 1, 48, 56
3, 28380, Note_on_c, 1, 56, 81
3, 28380, Note_on_c, 1, 53, 81
3, 28434, Note_off_c, 1, 53, 56
3, 28434, Note_off_c, 1, 56, 56
3, 28440, Note_on_c, 1, 53, 81
3, 28440, Note_on_c, 1, 56, 81
3, 28494, Note_off_c, 1, 56, 56
3, 28494, Note_off_c, 1, 53, 56
3, 28500, Note_on_c, 1, 53, 81
3, 28500, Note_on_c, 1, 56, 81
3, 28554, Note_off_c, 1, 56, 56
3, 28554, Note_off_c, 1, 53, 56
3, 28560, Note_on_c, 1, 48, 81
3, 28614, Note_off_c, 1, 48, 56
3, 28620, Note_on_c, 1, 56, 81
3, 28620, Note_on_c, 1, 53, 81
3, 28674, Note_off_c, 1, 53, 56
3, 28674, Note_off_c, 1, 56, 56
3, 28680, Note_on_c, 1, 53, 82
3, 28680, Note_on_c, 1, 56, 82
3, 28734, Note_off_c, 1, 56, 56
3, 28734, Note_off_c, 1, 53, 56
3, 28740, Note_on_c, 1, 56, 82
3, 28740, Note_on_c, 1, 53, 82
3, 28794, Note_off_c, 1, 53, 56
3, 28794, Note_off_c, 1, 56, 56
3, 28800, Note_on_c, 1, 48, 82
3, 28800, Control_c, 1, 64, 126
3, 28854, Note_off_c, 1, 48, 56
3, 28860, Note_on_c, 1, 58, 82
3, 28860, Note_on_c, 1, 55, 82
3, 28914, Note_off_c, 1, 55, 56
3, 28914, Note_off_c, 1, 58, 56
3, 28920, Note_on_c, 1, 58, 82
3, 28920, Note_on_c, 1, 55, 82
3, 28974, Note_off_c, 1, 55, 56
3, 28974, Note_off_c, 1, 58, 56
3, 28980, Note_on_c, 1, 58, 83
3, 28980, Note_on_c, 1, 55, 83
3, 29034, Note_off_c, 1, 55, 56
3, 29034, Note_off_c, 1, 58, 56
3, 29036, Control_c, 1, 64, 1
3, 29040, Note_on_c, 1, 48, 83
3, 29040, Control_c, 1, 64, 127
3, 29094, Note_off_c, 1, 48, 56
3, 29100, Note_on_c, 1, 58, 83
3, 29100, Note_on_c, 1, 55, 83
3, 29154, Note_off_c, 1, 55, 56
3, 29154, Note_off_c, 1, 58, 56
3, 29160, Note_on_c, 1, 58, 83
3, 29160, Note_on_c, 1, 55, 83
3, 29214, Note_off_c, 1, 55, 56
3, 29214, Note_off_c, 1, 58, 56
3, 29220, Note_on_c, 1, 58, 83
3, 29220, Note_on_c, 1, 55, 83
3, 29274, Note_off_c, 1, 55, 56
3, 29274, Note_off_c, 1, 58, 56
3, 29280, Note_on_c, 1, 48, 84
3, 29334, Note_off_c, 1, 48, 56
3, 29340, Note_on_c, 1, 58, 84
3, 29340, Note_on_c, 1, 55, 84
3, 29394, Note_off_c, 1, 55, 56
3, 29394, Note_off_c, 1, 58, 56
3, 29400, Note_on_c, 1, 58, 84
3, 29400, Note_on_c, 1, 55, 84
3, 29454, Note_off_c, 1, 55, 56
3, 29454, Note_off_c, 1, 58, 56
3, 29460, Note_on_c, 1, 58, 84
3, 29460, Note_on_c, 1, 55, 84
3, 29504, Control_c, 1, 64, 0
3, 29514, Note_off_c, 1, 55, 56
3, 29514, Note_off_c, 1, 58, 56
3, 29520, Note_on_c, 1, 48, 85
3, 29520, Control_c, 1, 64, 126
3, 29574, Note_off_c, 1, 48, 56
3, 29580, Note_on_c, 1, 55, 85
3, 29580, Note_on_c, 1, 52, 85
3, 29634, Note_off_c, 1, 52, 56
3, 29634, Note_off_c, 1, 55, 56
3, 29640, Note_on_c, 1, 55, 85
3, 29640, Note_on_c, 1, 52, 85
3, 29694, Note_off_c, 1, 52, 56
3, 29694, Note_off_c, 1, 55, 56
3, 29700, Note_on_c, 1, 55, 85
3, 29700, Note_on_c, 1, 52, 85
3, 29754, Note_off_c, 1, 52, 56
3, 29754, Note_off_c, 1, 55, 56
3, 29760, Note_on_c, 1, 48, 85
3, 29814, Note_off_c, 1, 48, 56
3, 29820, Note_on_c, 1, 55, 86
3, 29820, Note_on_c, 1, 52, 86
3, 29874, Note_off_c, 1, 52, 56
3, 29874, Note_off_c, 1, 55, 56
3, 29880, Note_on_c, 1, 55, 86
3, 29880, Note_on_c, 1, 52, 86
3, 29934, Note_off_c, 1, 52, 56
3, 29934, Note_off_c, 1, 55, 56
3, 29940, Note_on_c, 1, 52, 86
3, 29940, Note_on_c, 1, 55, 86
3, 29994, Note_off_c, 1, 55, 56
3, 29994, Note_off_c, 1, 52, 56
3, 30000, Note_on_c, 1, 48, 86
3, 30054, Note_off_c, 1, 48, 56
3, 30060, Note_on_c, 1, 52, 86
3, 30060, Note_on_c, 1, 55, 86
3, 30114, Note_off_c, 1, 55, 56
3, 30114, Note_off_c, 1, 52, 56
3, 30120, Note_on_c, 1, 55, 87
3, 30120, Note_on_c, 1, 52, 87
3, 30174, Note_off_c, 1, 52, 56
3, 30174, Note_off_c, 1, 55, 56
3, 30180, Note_on_c, 1, 55, 87
3, 30180, Note_on_c, 1, 52, 87
3, 30224, Control_c, 1, 64, 0
3, 30234, Note_off_c, 1, 52, 56
3, 30234, Note_off_c, 1, 55, 56
3, 30240, Note_on_c, 1, 48, 87
3, 30240, Control_c, 1, 64, 126
3, 30294, Note_off_c, 1, 48, 56
3, 30300, Note_on_c, 1, 53, 87
3, 30300, Note_on_c, 1, 56, 87
3, 30354, Note_off_c, 1, 56, 56
3, 30354, Note_off_c, 1, 53, 56
3, 30360, Note_on_c, 1, 53, 87
3, 30360, Note_on_c, 1, 56, 87
3, 30414, Note_off_c, 1, 56, 56
3, 30414, Note_off_c, 1, 53, 56
3, 30420, Note_on_c, 1, 56, 88
3, 30420, Note_on_c, 1, 53, 88
3, 30474, Note_off_c, 1, 53, 56
3, 30474, Note_off_c, 1, 56, 56
3, 30480, Note_on_c, 1, 48, 88
3, 30534, Note_off_c, 1, 48, 56
3, 30540, Note_on_c, 1, 56, 88
3, 30540, Note_on_c, 1, 53, 88
3, 30594, Note_off_c, 1, 53, 56
3, 30594, Note_off_c, 1, 56, 56
3, 30600, Note_on_c, 1, 56, 88
3, 30600, Note_on_c, 1, 53, 88
3, 30654, Note_off_c, 1, 53, 56
3, 30654, Note_off_c, 1, 56, 56
3, 30660, Note_on_c, 1, 53, 88
3, 30660, Note_on_c, 1, 56, 88
3, 30714, Note_off_c, 1, 56, 56
3, 30714, Note_off_c, 1, 53, 56
3, 30720, Note_on_c, 1, 48, 89
3, 30774, Note_off_c, 1, 48, 56
3, 30780, Note_on_c, 1, 53, 89
3, 30780, Note_on_c, 1, 56, 89
3, 30834, Note_off_c, 1, 56, 56
3, 30834, Note_off_c, 1, 53, 56
3, 30840, Note_on_c, 1, 56, 89
3, 30840, Note_on_c, 1, 53, 89
3, 30894, Note_off_c, 1, 53, 56
3, 30894, Note_off_c, 1, 56, 56
3, 30900, Note_on_c, 1, 56, 89
3, 30900, Note_on_c, 1, 53, 89
3, 30944, Control_c, 1, 64, 0
3, 30954, Note_off_c, 1, 53, 56
3, 30954, Note_off_c, 1, 56, 56
3, 30960, Note_on_c, 1, 41, 80
3, 31017, Note_off_c, 1, 41, 56
3, 31020, Note_on_c, 1, 48, 80
3, 31077, Note_off_c, 1, 48, 56
3, 31080, Note_on_c, 1, 50, 80
3, 31137, Note_off_c, 1, 50, 56
3, 31140, Note_on_c, 1, 52, 80
3, 31197, Note_off_c, 1, 52, 56
3, 31200, Note_on_c, 1, 53, 80
3, 31257, Note_off_c, 1, 53, 56
3, 31260, Note_on_c, 1, 55, 80
3, 31317, Note_off_c, 1, 55, 56
3, 31320, Note_on_c, 1, 56, 80
3, 31377, Note_off_c, 1, 56, 56
3, 31380, Note_on_c, 1, 58, 80
3, 31437, Note_off_c, 1, 58, 56
3, 31440, Note_on_c, 1, 60, 80
3, 31497, Note_off_c, 1, 60, 56
3, 31500, Note_on_c, 1, 56, 80
3, 31557, Note_off_c, 1, 56, 56
3, 31560, Note_on_c, 1, 55, 80
3, 31617, Note_off_c, 1, 55, 56
3, 31620, Note_on_c, 1, 53, 80
3, 31677, Note_off_c, 1, 53, 56
3, 31680, Note_on_c, 1, 48, 80
3, 31728, Note_off_c, 1, 48, 56
3, 31740, Note_on_c, 1, 35, 80
3, 31797, Note_off_c, 1, 35, 56
3, 31800, Note_on_c, 1, 36, 80
3, 31857, Note_off_c, 1, 36, 56
3, 31860, Note_on_c, 1, 35, 80
3, 31917, Note_off_c, 1, 35, 56
3, 31920, Note_on_c, 1, 36, 80
3, 31977, Note_off_c, 1, 36, 56
3, 31980, Note_on_c, 1, 40, 80
3, 32037, Note_off_c, 1, 40, 56
3, 32040, Note_on_c, 1, 43, 80
3, 32097, Note_off_c, 1, 43, 56
3, 32100, Note_on_c, 1, 47, 80
3, 32157, Note_off_c, 1, 47, 56
3, 32160, Note_on_c, 1, 48, 80
3, 32217, Note_off_c, 1, 48, 56
3, 32220, Note_on_c, 1, 46, 80
3, 32277, Note_off_c, 1, 46, 56
3, 32280, Note_on_c, 1, 44, 80
3, 32337, Note_off_c, 1, 44, 56
3, 32340, Note_on_c, 1, 43, 80
3, 32397, Note_off_c, 1, 43, 56
3, 32400, Note_on_c, 1, 41, 80
3, 32448, Note_off_c, 1, 41, 56
3, 32460, Note_on_c, 1, 48, 80
3, 32517, Note_off_c, 1, 48, 56
3, 32520, Note_on_c, 1, 50, 80
3, 32577, Note_off_c, 1, 50, 56
3, 32580, Note_on_c, 1, 52, 80
3, 32637, Note_off_c, 1, 52, 56
3, 32640, Note_on_c, 1, 53, 80
3, 32697, Note_off_c, 1, 53, 56
3, 32700, Note_on_c, 1, 55, 80
3, 32757, Note_off_c, 1, 55, 56
3, 32760, Note_on_c, 1, 56, 80
3, 32817, Note_off_c, 1, 56, 56
3, 32820, Note_on_c, 1, 58, 80
3, 32877, Note_off_c, 1, 58, 56
3, 32880, Note_on_c, 1, 60, 80
3, 32937, Note_off_c, 1, 60, 56
3, 32940, Note_on_c, 1, 56, 80
3, 32997, Note_off_c, 1, 56, 56
3, 33000, Note_on_c, 1, 55, 80
3, 33057, Note_off_c, 1, 55, 56
3, 33060, Note_on_c, 1, 53, 80
3, 33117, Note_off_c, 1, 53, 56
3, 33120, Note_on_c, 1, 51, 80
3, 33168, Note_off_c, 1, 51, 56
3, 33180, Note_on_c, 1, 39, 80
3, 33237, Note_off_c, 1, 39, 56
3, 33240, Note_on_c, 1, 41, 80
3, 33297, Note_off_c, 1, 41, 56
3, 33300, Note_on_c, 1, 42, 80
3, 33357, Note_off_c, 1, 42, 56
3, 33360, Note_on_c, 1, 44, 80
3, 33417, Note_off_c, 1, 44, 56
3, 33420, Note_on_c, 1, 45, 80
3, 33477, Note_off_c, 1, 45, 56
3, 33480, Note_on_c, 1, 46, 80
3, 33537, Note_off_c, 1, 46, 56
3, 33540, Note_on_c, 1, 44, 80
3, 33597, Note_off_c, 1, 44, 56
3, 33600, Note_on_c, 1, 42, 80
3, 33657, Note_off_c, 1, 42, 56
3, 33660, Note_on_c, 1, 41, 80
3, 33717, Note_off_c, 1, 41, 56
3, 33720, Note_on_c, 1, 39, 80
3, 33777, Note_off_c, 1, 39, 56
3, 33780, Note_on_c, 1, 44, 80
3, 33837, Note_off_c, 1, 44, 56
3, 33840, Note_on_c, 1, 37, 80
3, 33888, Note_off_c, 1, 37, 56
3, 33900, Note_on_c, 1, 49, 80
3, 33957, Note_off_c, 1, 49, 56
3, 33960, Note_on_c, 1, 51, 80
3, 34017, Note_off_c, 1, 51, 56
3, 34020, Note_on_c, 1, 53, 80
3, 34077, Note_off_c, 1, 53, 56
3, 34080, Note_on_c, 1, 54, 80
3, 34137, Note_off_c, 1, 54, 56
3, 34140, Note_on_c, 1, 56, 80
3, 34197, Note_off_c, 1, 56, 56
3, 34200, Note_on_c, 1, 58, 80
3, 34257, Note_off_c, 1, 58, 56
3, 34260, Note_on_c, 1, 56, 80
3, 34317, Note_off_c, 1, 56, 56
3, 34320, Note_on_c, 1, 54, 80
3, 34377, Note_off_c, 1, 54, 56
3, 34380, Note_on_c, 1, 53, 80
3, 34437, Note_off_c, 1, 53, 56
3, 34440, Note_on_c, 1, 51, 80
3, 34497, Note_off_c, 1, 51, 56
3, 34500, Note_on_c, 1, 49, 80
3, 34557, Note_off_c, 1, 49, 56
3, 34560, Note_on_c, 1, 44, 80
3, 34608, Note_off_c, 1, 44, 56
3, 34620, Note_on_c, 1, 31, 80
3, 34677, Note_off_c, 1, 31, 56
3, 34680, Note_on_c, 1, 32, 80
3, 34737, Note_off_c, 1, 32, 56
3, 34740, Note_on_c, 1, 31, 80
3, 34797, Note_off_c, 1, 31, 56
3, 34800, Note_on_c, 1, 32, 80
3, 34857, Note_off_c, 1, 32, 56
3, 34860, Note_on_c, 1, 34, 80
3, 34917, Note_off_c, 1, 34, 56
3, 34920, Note_on_c, 1, 36, 80
3, 34977, Note_off_c, 1, 36, 56
3, 34980, Note_on_c, 1, 37, 80
3, 35037, Note_off_c, 1, 37, 56
3, 35040, Note_on_c, 1, 39, 80
3, 35097, Note_off_c, 1, 39, 56
3, 35100, Note_on_c, 1, 41, 80
3, 35157, Note_off_c, 1, 41, 56
3, 35160, Note_on_c, 1, 42, 80
3, 35217, Note_off_c, 1, 42, 56
3, 35220, Note_on_c, 1, 44, 80
3, 35277, Note_off_c, 1, 44, 56
3, 35280, Note_on_c, 1, 37, 80
3, 35328, Note_off_c, 1, 37, 56
3, 35340, Note_on_c, 1, 45, 80
3, 35397, Note_off_c, 1, 45, 56
3, 35400, Note_on_c, 1, 46, 80
3, 35457, Note_off_c, 1, 46, 56
3, 35460, Note_on_c, 1, 45, 80
3, 35517, Note_off_c, 1, 45, 56
3, 35520, Note_on_c, 1, 46, 80
3, 35577, Note_off_c, 1, 46, 56
3, 35580, Note_on_c, 1, 48, 80
3, 35637, Note_off_c, 1, 48, 56
3, 35640, Note_on_c, 1, 49, 80
3, 35697, Note_off_c, 1, 49, 56
3, 35700, Note_on_c, 1, 51, 80
3, 35757, Note_off_c, 1, 51, 56
3, 35760, Note_on_c, 1, 53, 80
3, 35817, Note_off_c, 1, 53, 56
3, 35820, Note_on_c, 1, 49, 80
3, 35877, Note_off_c, 1, 49, 56
3, 35880, Note_on_c, 1, 48, 80
3, 35937, Note_off_c, 1, 48, 56
3, 35940, Note_on_c, 1, 46, 80
3, 35997, Note_off_c, 1, 46, 56
3, 36000, Note_on_c, 1, 48, 80
3, 36048, Note_off_c, 1, 48, 56
3, 36060, Note_on_c, 1, 36, 80
3, 36117, Note_off_c, 1, 36, 56
3, 36120, Note_on_c, 1, 37, 80
3, 36177, Note_off_c, 1, 37, 56
3, 36180, Note_on_c, 1, 39, 80
3, 36237, Note_off_c, 1, 39, 56
3, 36240, Note_on_c, 1, 41, 80
3, 36297, Note_off_c, 1, 41, 56
3, 36300, Note_on_c, 1, 42, 80
3, 36357, Note_off_c, 1, 42, 56
3, 36360, Note_on_c, 1, 41, 80
3, 36417, Note_off_c, 1, 41, 56
3, 36420, Note_on_c, 1, 40, 80
3, 36477, Note_off_c, 1, 40, 56
3, 36480, Note_on_c, 1, 41, 80
3, 36537, Note_off_c, 1, 41, 56
3, 36540, Note_on_c, 1, 29, 80
3, 36597, Note_off_c, 1, 29, 56
3, 36600, Note_on_c, 1, 31, 80
3, 36657, Note_off_c, 1, 31, 56
3, 36660, Note_on_c, 1, 33, 80
3, 36717, Note_off_c, 1, 33, 56
3, 36720, Note_on_c, 1, 34, 80
3, 36768, Note_off_c, 1, 34, 56
3, 36780, Note_on_c, 1, 41, 80
3, 36837, Note_off_c, 1, 41, 56
3, 36840, Note_on_c, 1, 43, 80
3, 36897, Note_off_c, 1, 43, 56
3, 36900, Note_on_c, 1, 45, 80
3, 36957, Note_off_c, 1, 45, 56
3, 36960, Note_on_c, 1, 46, 80
3, 37017, Note_off_c, 1, 46, 56
3, 37020, Note_on_c, 1, 48, 80
3, 37077, Note_off_c, 1, 48, 56
3, 37080, Note_on_c, 1, 49, 80
3, 37137, Note_off_c, 1, 49, 56
3, 37140, Note_on_c, 1, 51, 80
3, 37197, Note_off_c, 1, 51, 56
3, 37200, Note_on_c, 1, 53, 80
3, 37257, Note_off_c, 1, 53, 56
3, 37260, Note_on_c, 1, 49, 80
3, 37317, Note_off_c, 1, 49, 56
3, 37320, Note_on_c, 1, 48, 80
3, 37377, Note_off_c, 1, 48, 56
3, 37380, Note_on_c, 1, 46, 80
3, 37437, Note_off_c, 1, 46, 56
3, 37440, Note_on_c, 1, 41, 80
3, 37488, Note_off_c, 1, 41, 56
3, 37500, Note_on_c, 1, 29, 80
3, 37557, Note_off_c, 1, 29, 56
3, 37560, Note_on_c, 1, 31, 80
3, 37617, Note_off_c, 1, 31, 56
3, 37620, Note_on_c, 1, 33, 80
3, 37677, Note_off_c, 1, 33, 56
3, 37680, Note_on_c, 1, 34, 80
3, 37737, Note_off_c, 1, 34, 56
3, 37740, Note_on_c, 1, 36, 80
3, 37797, Note_off_c, 1, 36, 56
3, 37800, Note_on_c, 1, 37, 80
3, 37857, Note_off_c, 1, 37, 56
3, 37860, Note_on_c, 1, 39, 80
3, 37917, Note_off_c, 1, 39, 56
3, 37920, Note_on_c, 1, 41, 80
3, 37977, Note_off_c, 1, 41, 56
3, 37980, Note_on_c, 1, 39, 80
3, 38037, Note_off_c, 1, 39, 56
3, 38040, Note_on_c, 1, 37, 80
3, 38097, Note_off_c, 1, 37, 56
3, 38100, Note_on_c, 1, 36, 80
3, 38157, Note_off_c, 1, 36, 56
3, 38160, Note_on_c, 1, 34, 80
3, 38208, Note_off_c, 1, 34, 56
3, 38220, Note_on_c, 1, 45, 80
3, 38277, Note_off_c, 1, 45, 56
3, 38280, Note_on_c, 1, 46, 80
3, 38337, Note_off_c, 1, 46, 56
3, 38340, Note_on_c, 1, 48, 80
3, 38397, Note_off_c, 1, 48, 56
3, 38400, Note_on_c, 1, 49, 80
3, 38457, Note_off_c, 1, 49, 56
3, 38460, Note_on_c, 1, 51, 80
3, 38517, Note_off_c, 1, 51, 56
3, 38520, Note_on_c, 1, 53, 80
3, 38577, Note_off_c, 1, 53, 56
3, 38580, Note_on_c, 1, 51, 80
3, 38637, Note_off_c, 1, 51, 56
3, 38640, Note_on_c, 1, 49, 80
3, 38697, Note_off_c, 1, 49, 56
3, 38700, Note_on_c, 1, 48, 80
3, 38757, Note_off_c, 1, 48, 56
3, 38760, Note_on_c, 1, 46, 80
3, 38817, Note_off_c, 1, 46, 56
3, 38820, Note_on_c, 1, 44, 80
3, 38877, Note_off_c, 1, 44, 56
3, 38880, Note_on_c, 1, 43, 80
3, 38928, Note_off_c, 1, 43, 56
3, 38940, Note_on_c, 1, 38, 80
3, 38997, Note_off_c, 1, 38, 56
3, 39000, Note_on_c, 1, 39, 80
3, 39057, Note_off_c, 1, 39, 56
3, 39060, Note_on_c, 1, 41, 80
3, 39117, Note_off_c, 1, 41, 56
3, 39120, Note_on_c, 1, 43, 80
3, 39177, Note_off_c, 1, 43, 56
3, 39180, Note_on_c, 1, 44, 80
3, 39237, Note_off_c, 1, 44, 56
3, 39240, Note_on_c, 1, 46, 80
3, 39297, Note_off_c, 1, 46, 56
3, 39300, Note_on_c, 1, 44, 80
3, 39357, Note_off_c, 1, 44, 56
3, 39360, Note_on_c, 1, 43, 80
3, 39417, Note_off_c, 1, 43, 56
3, 39420, Note_on_c, 1, 41, 80
3, 39477, Note_off_c, 1, 41, 56
3, 39480, Note_on_c, 1, 39, 80
3, 39509, Note_off_c, 1, 39, 48
3, 39510, Note_on_c, 1, 37, 80
3, 39539, Note_off_c, 1, 37, 48
3, 39540, Note_on_c, 1, 36, 80
3, 39569, Note_off_c, 1, 36, 48
3, 39570, Note_on_c, 1, 34, 80
3, 39599, Note_off_c, 1, 34, 48
3, 39600, Note_on_c, 1, 32, 80
3, 39618, Note_off_c, 1, 32, 48
3, 39630, Note_on_c, 1, 39, 80
3, 39657, Note_off_c, 1, 39, 48
3, 39660, Note_on_c, 1, 36, 80
3, 39687, Note_off_c, 1, 36, 48
3, 39690, Note_on_c, 1, 39, 80
3, 39717, Note_off_c, 1, 39, 48
3, 39720, Note_on_c, 1, 44, 80
3, 39738, Note_off_c, 1, 44, 48
3, 39750, Note_on_c, 1, 51, 80
3, 39777, Note_off_c, 1, 51, 48
3, 39780, Note_on_c, 1, 48, 80
3, 39807, Note_off_c, 1, 48, 48
3, 39810, Note_on_c, 1, 51, 80
3, 39837, Note_off_c, 1, 51, 48
3, 39840, Note_on_c, 1, 44, 80
3, 39858, Note_off_c, 1, 44, 48
3, 39870, Note_on_c, 1, 51, 80
3, 39897, Note_off_c, 1, 51, 48
3, 39900, Note_on_c, 1, 48, 80
3, 39927, Note_off_c, 1, 48, 48
3, 39930, Note_on_c, 1, 51, 80
3, 39957, Note_off_c, 1, 51, 48
3, 39960, Note_on_c, 1, 56, 80
3, 39978, Note_off_c, 1, 56, 48
3, 39990, Note_on_c, 1, 51, 80
3, 40017, Note_off_c, 1, 51, 48
3, 40020, Note_on_c, 1, 48, 80
3, 40047, Note_off_c, 1, 48, 48
3, 40050, Note_on_c, 1, 51, 80
3, 40077, Note_off_c, 1, 51, 48
3, 40080, Note_on_c, 1, 48, 80
3, 40098, Note_off_c, 1, 48, 48
3, 40110, Note_on_c, 1, 56, 80
3, 40137, Note_off_c, 1, 56, 48
3, 40140, Note_on_c, 1, 51, 80
3, 40167, Note_off_c, 1, 51, 48
3, 40170, Note_on_c, 1, 56, 80
3, 40197, Note_off_c, 1, 56, 48
3, 40200, Note_on_c, 1, 60, 80
3, 40218, Note_off_c, 1, 60, 48
3, 40230, Note_on_c, 1, 56, 80
3, 40257, Note_off_c, 1, 56, 48
3, 40260, Note_on_c, 1, 51, 80
3, 40287, Note_off_c, 1, 51, 48
3, 40290, Note_on_c, 1, 56, 80
3, 40317, Note_off_c, 1, 56, 48
3, 40320, Note_on_c, 1, 46, 80
3, 40338, Note_off_c, 1, 46, 48
3, 40350, Note_on_c, 1, 55, 80
3, 40377, Note_off_c, 1, 55, 48
3, 40380, Note_on_c, 1, 51, 80
3, 40407, Note_off_c, 1, 51, 48
3, 40410, Note_on_c, 1, 55, 80
3, 40437, Note_off_c, 1, 55, 48
3, 40440, Note_on_c, 1, 58, 80
3, 40458, Note_off_c, 1, 58, 48
3, 40470, Note_on_c, 1, 55, 80
3, 40497, Note_off_c, 1, 55, 48
3, 40500, Note_on_c, 1, 51, 80
3, 40527, Note_off_c, 1, 51, 48
3, 40530, Note_on_c, 1, 55, 80
3, 40557, Note_off_c, 1, 55, 48
3, 40560, Note_on_c, 1, 49, 80
3, 40578, Note_off_c, 1, 49, 48
3, 40590, Note_on_c, 1, 55, 80
3, 40617, Note_off_c, 1, 55, 48
3, 40620, Note_on_c, 1, 51, 80
3, 40647, Note_off_c, 1, 51, 48
3, 40650, Note_on_c, 1, 55, 80
3, 40677, Note_off_c, 1, 55, 48
3, 40680, Note_on_c, 1, 58, 80
3, 40707, Note_off_c, 1, 58, 48
3, 40710, Note_on_c, 1, 55, 80
3, 40737, Note_off_c, 1, 55, 48
3, 40740, Note_on_c, 1, 51, 80
3, 40767, Note_off_c, 1, 51, 48
3, 40770, Note_on_c, 1, 55, 80
3, 40797, Note_off_c, 1, 55, 48
3, 40800, Note_on_c, 1, 49, 80
3, 40827, Note_off_c, 1, 49, 48
3, 40830, Note_on_c, 1, 55, 80
3, 40857, Note_off_c, 1, 55, 48
3, 40860, Note_on_c, 1, 51, 80
3, 40887, Note_off_c, 1, 51, 48
3, 40890, Note_on_c, 1, 55, 80
3, 40917, Note_off_c, 1, 55, 48
3, 40920, Note_on_c, 1, 58, 80
3, 40947, Note_off_c, 1, 58, 48
3, 40950, Note_on_c, 1, 55, 80
3, 40977, Note_off_c, 1, 55, 48
3, 40980, Note_on_c, 1, 51, 80
3, 41007, Note_off_c, 1, 51, 48
3, 41010, Note_on_c, 1, 55, 80
3, 41037, Note_off_c, 1, 55, 48
3, 41040, Note_on_c, 1, 48, 80
3, 41058, Note_off_c, 1, 48, 48
3, 41070, Note_on_c, 1, 56, 80
3, 41097, Note_off_c, 1, 56, 48
3, 41100, Note_on_c, 1, 51, 80
3, 41127, Note_off_c, 1, 51, 48
3, 41130, Note_on_c, 1, 56, 81
3, 41157, Note_off_c, 1, 56, 48
3, 41160, Note_on_c, 1, 60, 81
3, 41178, Note_off_c, 1, 60, 48
3, 41190, Note_on_c, 1, 56, 82
3, 41217, Note_off_c, 1, 56, 48
3, 41220, Note_on_c, 1, 51, 82
3, 41247, Note_off_c, 1, 51, 48
3, 41250, Note_on_c, 1, 56, 82
3, 41277, Note_off_c, 1, 56, 48
3, 41280, Note_on_c, 1, 48, 83
3, 41307, Note_off_c, 1, 48, 48
3, 41310, Note_on_c, 1, 60, 83
3, 41337, Note_off_c, 1, 60, 48
3, 41340, Note_on_c, 1, 56, 84
3, 41367, Note_off_c, 1, 56, 48
3, 41370, Note_on_c, 1, 60, 84
3, 41397, Note_off_c, 1, 60, 48
3, 41400, Note_on_c, 1, 47, 85
3, 41418, Note_off_c, 1, 47, 48
3, 41430, Note_on_c, 1, 59, 85
3, 41457, Note_off_c, 1, 59, 48
3, 41460, Note_on_c, 1, 56, 85
3, 41487, Note_off_c, 1, 56, 48
3, 41490, Note_on_c, 1, 59, 86
3, 41517, Note_off_c, 1, 59, 48
3, 41520, Note_on_c, 1, 48, 86
3, 41538, Note_off_c, 1, 48, 48
3, 41550, Note_on_c, 1, 60, 87
3, 41577, Note_off_c, 1, 60, 48
3, 41580, Note_on_c, 1, 56, 87
3, 41607, Note_off_c, 1, 56, 48
3, 41610, Note_on_c, 1, 60, 87
3, 41637, Note_off_c, 1, 60, 48
3, 41640, Note_on_c, 1, 49, 88
3, 41658, Note_off_c, 1, 49, 48
3, 41670, Note_on_c, 1, 61, 88
3, 41697, Note_off_c, 1, 61, 48
3, 41700, Note_on_c, 1, 56, 89
3, 41727, Note_off_c, 1, 56, 48
3, 41730, Note_on_c, 1, 61, 89
3, 41757, Note_off_c, 1, 61, 48
3, 41760, Note_on_c, 1, 51, 90
3, 41778, Note_off_c, 1, 51, 48
3, 41790, Note_on_c, 1, 63, 90
3, 41817, Note_off_c, 1, 63, 48
3, 41820, Note_on_c, 1, 55, 90
3, 41847, Note_off_c, 1, 55, 48
3, 41850, Note_on_c, 1, 63, 89
3, 41877, Note_off_c, 1, 63, 48
3, 41880, Note_on_c, 1, 53, 89
3, 41898, Note_off_c, 1, 53, 48
3, 41910, Note_on_c, 1, 65, 88
3, 41937, Note_off_c, 1, 65, 48
3, 41940, Note_on_c, 1, 56, 88
3, 41967, Note_off_c, 1, 56, 48
3, 41970, Note_on_c, 1, 65, 88
3, 41997, Note_off_c, 1, 65, 48
3, 42000, Note_on_c, 1, 55, 87
3, 42018, Note_off_c, 1, 55, 48
3, 42030, Note_on_c, 1, 67, 87
3, 42057, Note_off_c, 1, 67, 48
3, 42060, Note_on_c, 1, 58, 86
3, 42087, Note_off_c, 1, 58, 48
3, 42090, Note_on_c, 1, 67, 86
3, 42117, Note_off_c, 1, 67, 48
3, 42120, Note_on_c, 1, 51, 85
3, 42138, Note_off_c, 1, 51, 48
3, 42150, Note_on_c, 1, 63, 85
3, 42177, Note_off_c, 1, 63, 48
3, 42180, Note_on_c, 1, 55, 85
3, 42207, Note_off_c, 1, 55, 48
3, 42210, Note_on_c, 1, 63, 84
3, 42237, Note_off_c, 1, 63, 48
3, 42240, Note_on_c, 1, 53, 84
3, 42258, Note_off_c, 1, 53, 48
3, 42270, Note_on_c, 1, 65, 83
3, 42297, Note_off_c, 1, 65, 48
3, 42300, Note_on_c, 1, 56, 83
3, 42327, Note_off_c, 1, 56, 48
3, 42330, Note_on_c, 1, 65, 83
3, 42357, Note_off_c, 1, 65, 48
3, 42360, Note_on_c, 1, 55, 82
3, 42378, Note_off_c, 1, 55, 48
3, 42390, Note_on_c, 1, 67, 82
3, 42417, Note_off_c, 1, 67, 48
3, 42420, Note_on_c, 1, 58, 81
3, 42447, Note_off_c, 1, 58, 48
3, 42450, Note_on_c, 1, 67, 81
3, 42477, Note_off_c, 1, 67, 48
3, 42480, Note_on_c, 1, 63, 80
3, 42480, Control_c, 1, 64, 126
3, 42480, Note_on_c, 1, 60, 80
3, 42822, Note_off_c, 1, 60, 64
3, 42822, Note_off_c, 1, 63, 64
3, 42840, Note_on_c, 1, 60, 82
3, 42840, Note_on_c, 1, 56, 82
3, 42936, Note_off_c, 1, 56, 64
3, 42936, Note_off_c, 1, 60, 64
3, 42960, Note_on_c, 1, 56, 83
3, 42960, Note_on_c, 1, 60, 83
3, 43064, Control_c, 1, 64, 0
3, 43131, Note_off_c, 1, 60, 64
3, 43131, Note_off_c, 1, 56, 64
3, 43140, Note_on_c, 1, 60, 84
3, 43140, Note_on_c, 1, 56, 84
3, 43184, Control_c, 1, 64, 0
3, 43197, Note_off_c, 1, 56, 56
3, 43197, Note_off_c, 1, 60, 56
3, 43200, Note_on_c, 1, 61, 85
3, 43200, Control_c, 1, 64, 126
3, 43200, Note_on_c, 1, 65, 85
3, 43392, Note_off_c, 1, 65, 64
3, 43392, Note_off_c, 1, 61, 64
3, 43428, Control_c, 1, 64, 0
3, 43440, Note_on_c, 1, 61, 86
3, 43440, Note_on_c, 1, 58, 86
3, 43440, Control_c, 1, 64, 127
3, 43904, Control_c, 1, 64, 0
3, 43920, Note_off_c, 1, 58, 64
3, 43920, Note_off_c, 1, 61, 64
3, 43920, Note_on_c, 1, 66, 90
3, 43920, Note_on_c, 1, 63, 90
3, 44148, Note_off_c, 1, 63, 64
3, 44148, Note_off_c, 1, 66, 64
3, 44160, Note_on_c, 1, 63, 87
3, 44388, Note_off_c, 1, 63, 64
3, 44400, Note_on_c, 1, 68, 84
3, 44628, Note_off_c, 1, 68, 64
3, 44640, Note_on_c, 1, 61, 80
3, 44640, Control_c, 1, 64, 126
3, 44700, Note_on_c, 1, 65, 80
3, 44700, Note_on_c, 1, 68, 80
3, 44736, Note_off_c, 1, 61, 64
3, 44754, Note_off_c, 1, 68, 56
3, 44754, Note_off_c, 1, 65, 56
3, 44760, Note_on_c, 1, 68, 80
3, 44760, Note_on_c, 1, 65, 80
3, 44814, Note_off_c, 1, 65, 56
3, 44814, Note_off_c, 1, 68, 56
3, 44820, Note_on_c, 1, 68, 80
3, 44820, Note_on_c, 1, 65, 80
3, 44874, Note_off_c, 1, 65, 56
3, 44874, Note_off_c, 1, 68, 56
3, 44880, Note_on_c, 1, 61, 80
3, 44934, Note_off_c, 1, 61, 56
3, 44940, Note_on_c, 1, 65, 80
3, 44940, Note_on_c, 1, 68, 80
3, 44994, Note_off_c, 1, 68, 56
3, 44994, Note_off_c, 1, 65, 56
3, 45000, Note_on_c, 1, 68, 80
3, 45000, Note_on_c, 1, 65, 80
3, 45054, Note_off_c, 1, 65, 56
3, 45054, Note_off_c, 1, 68, 56
3, 45060, Note_on_c, 1, 65, 80
3, 45060, Note_on_c, 1, 68, 80
3, 45114, Note_off_c, 1, 68, 56
3, 45114, Note_off_c, 1, 65, 56
3, 45120, Note_on_c, 1, 61, 80
3, 45174, Note_off_c, 1, 61, 56
3, 45180, Note_on_c, 1, 68, 80
3, 45180, Note_on_c, 1, 65, 80
3, 45234, Note_off_c, 1, 65, 56
3, 45234, Note_off_c, 1, 68, 56
3, 45240, Note_on_c, 1, 68, 80
3, 45240, Note_on_c, 1, 65, 80
3, 45294, Note_off_c, 1, 65, 56
3, 45294, Note_off_c, 1, 68, 56
3, 45300, Note_on_c, 1, 65, 80
3, 45300, Note_on_c, 1, 68, 80
3, 45344, Control_c, 1, 64, 0
3, 45354, Note_off_c, 1, 68, 56
3, 45354, Note_off_c, 1, 65, 56
3, 45360, Note_on_c, 1, 63, 80
3, 45360, Control_c, 1, 64, 126
3, 45420, Note_on_c, 1, 68, 80
3, 45420, Note_on_c, 1, 66, 80
3, 45456, Note_off_c, 1, 63, 64
3, 45474, Note_off_c, 1, 66, 56
3, 45474, Note_off_c, 1, 68, 56
3, 45480, Note_on_c, 1, 68, 80
3, 45480, Note_on_c, 1, 66, 80
3, 45534, Note_off_c, 1, 66, 56
3, 45534, Note_off_c, 1, 68, 56
3, 45540, Note_on_c, 1, 66, 80
3, 45540, Note_on_c, 1, 68, 80
3, 45594, Note_off_c, 1, 68, 56
3, 45594, Note_off_c, 1, 66, 56
3, 45600, Note_on_c, 1, 63, 80
3, 45654, Note_off_c, 1, 63, 56
3, 45660, Note_on_c, 1, 66, 80
3, 45660, Note_on_c, 1, 68, 80
3, 45714, Note_off_c, 1, 68, 56
3, 45714, Note_off_c, 1, 66, 56
3, 45720, Note_on_c, 1, 66, 80
3, 45720, Note_on_c, 1, 68, 80
3, 45774, Note_off_c, 1, 68, 56
3, 45774, Note_off_c, 1, 66, 56
3, 45780, Note_on_c, 1, 66, 80
3, 45780, Note_on_c, 1, 68, 80
3, 45834, Note_off_c, 1, 68, 56
3, 45834, Note_off_c, 1, 66, 56
3, 45840, Note_on_c, 1, 63, 80
3, 45894, Note_off_c, 1, 63, 56
3, 45900, Note_on_c, 1, 66, 80
3, 45900, Note_on_c, 1, 68, 80
3, 45954, Note_off_c, 1, 68, 56
3, 45954, Note_off_c, 1, 66, 56
3, 45960, Note_on_c, 1, 66, 80
3, 45960, Note_on_c, 1, 68, 80
3, 46014, Note_off_c, 1, 68, 56
3, 46014, Note_off_c, 1, 66, 56
3, 46020, Note_on_c, 1, 66, 80
3, 46020, Note_on_c, 1, 68, 80
3, 46064, Control_c, 1, 64, 0
3, 46074, Note_off_c, 1, 68, 56
3, 46074, Note_off_c, 1, 66, 56
3, 46080, Note_on_c, 1, 66, 80
3, 46080, Control_c, 1, 64, 126
3, 46140, Note_on_c, 1, 72, 80
3, 46140, Note_on_c, 1, 75, 80
3, 46140, Note_on_c, 1, 68, 80
3, 46176, Note_off_c, 1, 66, 64
3, 46194, Note_off_c, 1, 68, 56
3, 46194, Note_off_c, 1, 75, 56
3, 46194, Note_off_c, 1, 72, 56
3, 46200, Note_on_c, 1, 75, 80
3, 46200, Note_on_c, 1, 72, 80
3, 46200, Note_on_c, 1, 68, 80
3, 46254, Note_off_c, 1, 68, 56
3, 46254, Note_off_c, 1, 72, 56
3, 46254, Note_off_c, 1, 75, 56
3, 46260, Note_on_c, 1, 72, 80
3, 46260, Note_on_c, 1, 75, 80
3, 46260, Note_on_c, 1, 68, 80
3, 46314, Note_off_c, 1, 68, 56
3, 46314, Note_off_c, 1, 75, 56
3, 46314, Note_off_c, 1, 72, 56
3, 46320, Note_on_c, 1, 66, 80
3, 46374, Note_off_c, 1, 66, 56
3, 46380, Note_on_c, 1, 75, 80
3, 46380, Note_on_c, 1, 68, 80
3, 46380, Note_on_c, 1, 72, 80
3, 46434, Note_off_c, 1, 72, 56
3, 46434, Note_off_c, 1, 68, 56
3, 46434, Note_off_c, 1, 75, 56
3, 46440, Note_on_c, 1, 68, 80
3, 46440, Note_on_c, 1, 75, 80
3, 46440, Note_on_c, 1, 72, 80
3, 46494, Note_off_c, 1, 72, 56
3, 46494, Note_off_c, 1, 75, 56
3, 46494, Note_off_c, 1, 68, 56
3, 46500, Note_on_c, 1, 72, 80
3, 46500, Note_on_c, 1, 68, 80
3, 46500, Note_on_c, 1, 75, 80
3, 46554, Note_off_c, 1, 75, 56
3, 46554, Note_off_c, 1, 68, 56
3, 46554, Note_off_c, 1, 72, 56
3, 46560, Note_on_c, 1, 66, 80
3, 46614, Note_off_c, 1, 66, 56
3, 46620, Note_on_c, 1, 72, 80
3, 46620, Note_on_c, 1, 75, 80
3, 46620, Note_on_c, 1, 68, 80
3, 46674, Note_off_c, 1, 68, 56
3, 46674, Note_off_c, 1, 75, 56
3, 46674, Note_off_c, 1, 72, 56
3, 46680, Note_on_c, 1, 72, 80
3, 46680, Note_on_c, 1, 68, 80
3, 46680, Note_on_c, 1, 75, 80
3, 46734, Note_off_c, 1, 75, 56
3, 46734, Note_off_c, 1, 68, 56
3, 46734, Note_off_c, 1, 72, 56
3, 46740, Note_on_c, 1, 72, 80
3, 46740, Note_on_c, 1, 75, 80
3, 46740, Note_on_c, 1, 68, 80
3, 46784, Control_c, 1, 64, 0
3, 46794, Note_off_c, 1, 68, 56
3, 46794, Note_off_c, 1, 75, 56
3, 46794, Note_off_c, 1, 72, 56
3, 46800, Note_on_c, 1, 63, 80
3, 46800, Control_c, 1, 64, 126
3, 46860, Note_on_c, 1, 68, 80
3, 46860, Note_on_c, 1, 73, 80
3, 46896, Note_off_c, 1, 63, 64
3, 46914, Note_off_c, 1, 73, 56
3, 46914, Note_off_c, 1, 68, 56
3, 46920, Note_on_c, 1, 73, 81
3, 46920, Note_on_c, 1, 68, 81
3, 46974, Note_off_c, 1, 68, 56
3, 46974, Note_off_c, 1, 73, 56
3, 46980, Note_on_c, 1, 68, 82
3, 46980, Note_on_c, 1, 73, 82
3, 47034, Note_off_c, 1, 73, 56
3, 47034, Note_off_c, 1, 68, 56
3, 47040, Note_on_c, 1, 65, 83
3, 47094, Note_off_c, 1, 65, 56
3, 47100, Note_on_c, 1, 68, 84
3, 47100, Note_on_c, 1, 73, 84
3, 47154, Note_off_c, 1, 73, 56
3, 47154, Note_off_c, 1, 68, 56
3, 47160, Note_on_c, 1, 73, 85
3, 47160, Note_on_c, 1, 68, 85
3, 47214, Note_off_c, 1, 68, 56
3, 47214, Note_off_c, 1, 73, 56
3, 47220, Note_on_c, 1, 68, 85
3, 47220, Note_on_c, 1, 73, 85
3, 47274, Note_off_c, 1, 73, 56
3, 47274, Note_off_c, 1, 68, 56
3, 47280, Note_on_c, 1, 65, 86
3, 47334, Note_off_c, 1, 65, 56
3, 47340, Note_on_c, 1, 73, 87
3, 47340, Note_on_c, 1, 68, 87
3, 47394, Note_off_c, 1, 68, 56
3, 47394, Note_off_c, 1, 73, 56
3, 47400, Note_on_c, 1, 68, 88
3, 47400, Note_on_c, 1, 73, 88
3, 47454, Note_off_c, 1, 73, 56
3, 47454, Note_off_c, 1, 68, 56
3, 47460, Note_on_c, 1, 68, 89
3, 47460, Note_on_c, 1, 73, 89
3, 47504, Control_c, 1, 64, 0
3, 47514, Note_off_c, 1, 73, 56
3, 47514, Note_off_c, 1, 68, 56
3, 47520, Note_on_c, 1, 64, 90
3, 47520, Control_c, 1, 64, 126
3, 47580, Note_on_c, 1, 73, 89
3, 47580, Note_on_c, 1, 68, 89
3, 47616, Note_off_c, 1, 64, 64
3, 47634, Note_off_c, 1, 68, 56
3, 47634, Note_off_c, 1, 73, 56
3, 47640, Note_on_c, 1, 68, 88
3, 47640, Note_on_c, 1, 73, 88
3, 47694, Note_off_c, 1, 73, 56
3, 47694, Note_off_c, 1, 68, 56
3, 47700, Note_on_c, 1, 73, 87
3, 47700, Note_on_c, 1, 68, 87
3, 47754, Note_off_c, 1, 68, 56
3, 47754, Note_off_c, 1, 73, 56
3, 47760, Note_on_c, 1, 64, 86
3, 47814, Note_off_c, 1, 64, 56
3, 47820, Note_on_c, 1, 73, 85
3, 47820, Note_on_c, 1, 68, 85
3, 47874, Note_off_c, 1, 68, 56
3, 47874, Note_off_c, 1, 73, 56
3, 47880, Note_on_c, 1, 68, 84
3, 47880, Note_on_c, 1, 73, 84
3, 47934, Note_off_c, 1, 73, 56
3, 47934, Note_off_c, 1, 68, 56
3, 47940, Note_on_c, 1, 73, 83
3, 47940, Note_on_c, 1, 68, 83
3, 47994, Note_off_c, 1, 68, 56
3, 47994, Note_off_c, 1, 73, 56
3, 48000, Note_on_c, 1, 64, 82
3, 48054, Note_off_c, 1, 64, 56
3, 48060, Note_on_c, 1, 68, 81
3, 48060, Note_on_c, 1, 73, 81
3, 48114, Note_off_c, 1, 73, 56
3, 48114, Note_off_c, 1, 68, 56
3, 48120, Note_on_c, 1, 73, 80
3, 48120, Note_on_c, 1, 68, 80
3, 48174, Note_off_c, 1, 68, 56
3, 48174, Note_off_c, 1, 73, 56
3, 48180, Note_on_c, 1, 68, 79
3, 48180, Note_on_c, 1, 73, 79
3, 48224, Control_c, 1, 64, 0
3, 48234, Note_off_c, 1, 73, 56
3, 48234, Note_off_c, 1, 68, 56
3, 48240, Note_on_c, 1, 63, 78
3, 48240, Control_c, 1, 64, 126
3, 48300, Note_on_c, 1, 71, 77
3, 48300, Note_on_c, 1, 66, 77
3, 48336, Note_off_c, 1, 63, 64
3, 48354, Note_off_c, 1, 66, 56
3, 48354, Note_off_c, 1, 71, 56
3, 48360, Note_on_c, 1, 66, 76
3, 48360, Note_on_c, 1, 71, 76
3, 48414, Note_off_c, 1, 71, 56
3, 48414, Note_off_c, 1, 66, 56
3, 48420, Note_on_c, 1, 66, 75
3, 48420, Note_on_c, 1, 71, 75
3, 48474, Note_off_c, 1, 71, 56
3, 48474, Note_off_c, 1, 66, 56
3, 48480, Note_on_c, 1, 63, 74
3, 48534, Note_off_c, 1, 63, 56
3, 48540, Note_on_c, 1, 66, 73
3, 48540, Note_on_c, 1, 71, 73
3, 48594, Note_off_c, 1, 71, 56
3, 48594, Note_off_c, 1, 66, 56
3, 48600, Note_on_c, 1, 66, 72
3, 48600, Note_on_c, 1, 71, 72
3, 48654, Note_off_c, 1, 71, 56
3, 48654, Note_off_c, 1, 66, 56
3, 48660, Note_on_c, 1, 66, 71
3, 48660, Note_on_c, 1, 71, 71
3, 48714, Note_off_c, 1, 71, 56
3, 48714, Note_off_c, 1, 66, 56
3, 48720, Note_on_c, 1, 63, 70
3, 48774, Note_off_c, 1, 63, 56
3, 48780, Note_on_c, 1, 71, 69
3, 48780, Note_on_c, 1, 66, 69
3, 48834, Note_off_c, 1, 66, 56
3, 48834, Note_off_c, 1, 71, 56
3, 48840, Note_on_c, 1, 66, 68
3, 48840, Note_on_c, 1, 71, 68
3, 48894, Note_off_c, 1, 71, 56
3, 48894, Note_off_c, 1, 66, 56
3, 48900, Note_on_c, 1, 66, 67
3, 48900, Note_on_c, 1, 71, 67
3, 48944, Control_c, 1, 64, 0
3, 48954, Note_off_c, 1, 71, 56
3, 48954, Note_off_c, 1, 66, 56
3, 48960, Note_on_c, 1, 63, 65
3, 48960, Control_c, 1, 64, 126
3, 49020, Note_on_c, 1, 71, 65
3, 49020, Note_on_c, 1, 66, 65
3, 49056, Note_off_c, 1, 63, 64
3, 49074, Note_off_c, 1, 66, 56
3, 49074, Note_off_c, 1, 71, 56
3, 49080, Note_on_c, 1, 71, 65
3, 49080, Note_on_c, 1, 66, 65
3, 49134, Note_off_c, 1, 66, 56
3, 49134, Note_off_c, 1, 71, 56
3, 49140, Note_on_c, 1, 71, 65
3, 49140, Note_on_c, 1, 66, 65
3, 49194, Note_off_c, 1, 66, 56
3, 49194, Note_off_c, 1, 71, 56
3, 49200, Note_on_c, 1, 63, 65
3, 49260, Note_on_c, 1, 71, 65
3, 49260, Note_on_c, 1, 66, 65
3, 49296, Note_off_c, 1, 63, 64
3, 49314, Note_off_c, 1, 66, 56
3, 49314, Note_off_c, 1, 71, 56
3, 49320, Note_on_c, 1, 66, 65
3, 49320, Note_on_c, 1, 71, 65
3, 49374, Note_off_c, 1, 71, 56
3, 49374, Note_off_c, 1, 66, 56
3, 49380, Note_on_c, 1, 71, 65
3, 49380, Note_on_c, 1, 66, 65
3, 49434, Note_off_c, 1, 66, 56
3, 49434, Note_off_c, 1, 71, 56
3, 49440, Note_on_c, 1, 63, 65
3, 49500, Note_on_c, 1, 71, 65
3, 49500, Note_on_c, 1, 66, 65
3, 49536, Note_off_c, 1, 63, 64
3, 49554, Note_off_c, 1, 66, 56
3, 49554, Note_off_c, 1, 71, 56
3, 49560, Note_on_c, 1, 66, 65
3, 49560, Note_on_c, 1, 71, 65
3, 49614, Note_off_c, 1, 71, 56
3, 49614, Note_off_c, 1, 66, 56
3, 49620, Note_on_c, 1, 71, 65
3, 49620, Note_on_c, 1, 66, 65
3, 49664, Control_c, 1, 64, 0
3, 49674, Note_off_c, 1, 66, 56
3, 49674, Note_off_c, 1, 71, 56
3, 49680, Note_on_c, 1, 68, 80
3, 49680, Control_c, 1, 64, 126
3, 49680, Note_on_c, 1, 64, 80
3, 49680, Note_on_c, 1, 71, 80
3, 49788, Note_off_c, 1, 71, 64
3, 49788, Note_off_c, 1, 64, 64
3, 49788, Note_off_c, 1, 68, 64
3, 50280, Note_on_c, 1, 40, 80
3, 50384, Control_c, 1, 64, 0
3, 50388, Note_off_c, 1, 40, 64
3, 50400, Note_on_c, 1, 30, 80
3, 50400, Control_c, 1, 64, 126
3, 50400, Note_on_c, 1, 35, 80
3, 50400, Note_on_c, 1, 42, 80
3, 50508, Note_off_c, 1, 42, 64
3, 50508, Note_off_c, 1, 35, 64
3, 50508, Note_off_c, 1, 30, 64
3, 50640, Note_on_c, 1, 42, 80
3, 50640, Note_on_c, 1, 35, 80
3, 50640, Note_on_c, 1, 30, 80
3, 50748, Note_off_c, 1, 30, 64
3, 50748, Note_off_c, 1, 35, 64
3, 50748, Note_off_c, 1, 42, 64
3, 50880, Note_on_c, 1, 30, 80
3, 50880, Note_on_c, 1, 42, 80
3, 50880, Note_on_c, 1, 35, 80
3, 50988, Note_off_c, 1, 35, 64
3, 50988, Note_off_c, 1, 42, 64
3, 50988, Note_off_c, 1, 30, 64
3, 51104, Control_c, 1, 64, 0
3, 51120, Note_on_c, 1, 32, 80
3, 51120, Control_c, 1, 64, 126
3, 51120, Note_on_c, 1, 35, 80
3, 51120, Note_on_c, 1, 44, 80
3, 51228, Note_off_c, 1, 44, 64
3, 51228, Note_off_c, 1, 35, 64
3, 51228, Note_off_c, 1, 32, 64
3, 51824, Control_c, 1, 64, 0
3, 51840, Note_on_c, 1, 51, 80
3, 51840, Control_c, 1, 64, 126
3, 51840, Note_on_c, 1, 47, 80
3, 51840, Note_on_c, 1, 39, 80
3, 51948, Note_off_c, 1, 39, 64
3, 51948, Note_off_c, 1, 47, 64
3, 51948, Note_off_c, 1, 51, 64
3, 52080, Note_on_c, 1, 39, 80
3, 52080, Note_on_c, 1, 47, 80
3, 52080, Note_on_c, 1, 51, 80
3, 52188, Note_off_c, 1, 51, 64
3, 52188, Note_off_c, 1, 47, 64
3, 52188, Note_off_c, 1, 39, 64
3, 52320, Note_on_c, 1, 51, 80
3, 52320, Note_on_c, 1, 39, 80
3, 52320, Note_on_c, 1, 47, 80
3, 52428, Note_off_c, 1, 47, 64
3, 52428, Note_off_c, 1, 39, 64
3, 52428, Note_off_c, 1, 51, 64
3, 52544, Control_c, 1, 64, 0
3, 52560, Note_on_c, 1, 52, 80
3, 52560, Control_c, 1, 64, 126
3, 52560, Note_on_c, 1, 40, 80
3, 52560, Note_on_c, 1, 47, 80
3, 52674, Note_off_c, 1, 47, 64
3, 52674, Note_off_c, 1, 40, 64
3, 52674, Note_off_c, 1, 52, 64
3, 52680, Note_on_c, 1, 52, 81
3, 52680, Note_on_c, 1, 64, 81
3, 52800, Note_off_c, 1, 64, 64
3, 52800, Note_off_c, 1, 52, 64
3, 52800, Note_on_c, 1, 52, 82
3, 52800, Note_on_c, 1, 64, 82
3, 52872, Note_off_c, 1, 64, 64
3, 52872, Note_off_c, 1, 52, 64
3, 52920, Note_on_c, 1, 52, 83
3, 52920, Note_on_c, 1, 61, 83
3, 52920, Note_on_c, 1, 49, 83
3, 53040, Note_off_c, 1, 49, 64
3, 53040, Note_off_c, 1, 61, 64
3, 53040, Note_off_c, 1, 52, 64
3, 53040, Note_on_c, 1, 61, 85
3, 53040, Note_on_c, 1, 49, 85
3, 53040, Note_on_c, 1, 52, 85
3, 53112, Note_off_c, 1, 52, 64
3, 53112, Note_off_c, 1, 49, 64
3, 53112, Note_off_c, 1, 61, 64
3, 53160, Note_on_c, 1, 48, 86
3, 53160, Note_on_c, 1, 52, 86
3, 53160, Note_on_c, 1, 60, 86
3, 53264, Control_c, 1, 64, 0
3, 53280, Note_off_c, 1, 60, 64
3, 53280, Note_off_c, 1, 52, 64
3, 53280, Note_off_c, 1, 48, 64
3, 53280, Note_on_c, 1, 60, 87
3, 53280, Note_on_c, 1, 48, 87
3, 53280, Note_on_c, 1, 52, 87
3, 53352, Note_off_c, 1, 52, 64
3, 53352, Note_off_c, 1, 48, 64
3, 53352, Note_off_c, 1, 60, 64
3, 53400, Note_on_c, 1, 59, 88
3, 53400, Note_on_c, 1, 52, 88
3, 53400, Note_on_c, 1, 47, 88
3, 53520, Note_off_c, 1, 47, 64
3, 53520, Note_off_c, 1, 52, 64
3, 53520, Note_off_c, 1, 59, 64
3, 53520, Note_on_c, 1, 45, 90
3, 53520, Note_on_c, 1, 57, 90
3, 53520, Note_on_c, 1, 52, 90
3, 53640, Note_off_c, 1, 52, 64
3, 53640, Note_off_c, 1, 57, 64
3, 53640, Note_off_c, 1, 45, 64
3, 53640, Note_on_c, 1, 56, 91
3, 53640, Note_on_c, 1, 44, 91
3, 53640, Note_on_c, 1, 52, 91
3, 53760, Note_off_c, 1, 52, 64
3, 53760, Note_off_c, 1, 44, 64
3, 53760, Note_off_c, 1, 56, 64
3, 53760, Note_on_c, 1, 64, 92
3, 53760, Note_on_c, 1, 68, 92
3, 53760, Note_on_c, 1, 56, 92
3, 53880, Note_off_c, 1, 56, 64
3, 53880, Note_off_c, 1, 68, 64
3, 53880, Note_off_c, 1, 64, 64
3, 53880, Note_on_c, 1, 57, 93
3, 53880, Note_on_c, 1, 64, 93
3, 53880, Note_on_c, 1, 69, 93
3, 53952, Note_off_c, 1, 69, 64
3, 53952, Note_off_c, 1, 64, 64
3, 53952, Note_off_c, 1, 57, 64
3, 54060, Note_on_c, 1, 69, 80
3, 54117, Note_off_c, 1, 69, 56
3, 54120, Note_on_c, 1, 57, 80
3, 54291, Note_off_c, 1, 57, 64
3, 54300, Note_on_c, 1, 68, 80
3, 54357, Note_off_c, 1, 68, 56
3, 54360, Note_on_c, 1, 56, 80
3, 54531, Note_off_c, 1, 56, 64
3, 54540, Note_on_c, 1, 66, 80
3, 54597, Note_off_c, 1, 66, 56
3, 54600, Note_on_c, 1, 54, 80
3, 54777, Note_off_c, 1, 54, 64
3, 54780, Note_on_c, 1, 68, 80
3, 54837, Note_off_c, 1, 68, 56
3, 54840, Note_on_c, 1, 56, 80
3, 55011, Note_off_c, 1, 56, 64
3, 55020, Note_on_c, 1, 66, 80
3, 55077, Note_off_c, 1, 66, 56
3, 55080, Note_on_c, 1, 54, 80
3, 55194, Note_off_c, 1, 54, 64
3, 55200, Note_on_c, 1, 53, 80
3, 55200, Note_on_c, 1, 65, 80
3, 55320, Note_off_c, 1, 65, 64
3, 55320, Note_off_c, 1, 53, 64
3, 55320, Note_on_c, 1, 52, 80
3, 55320, Note_on_c, 1, 64, 80
3, 55434, Note_off_c, 1, 64, 64
3, 55434, Note_off_c, 1, 52, 64
3, 55440, Note_on_c, 1, 51, 80
3, 55440, Note_on_c, 1, 63, 80
3, 55800, Note_off_c, 1, 63, 64
3, 55800, Note_off_c, 1, 51, 64
3, 55800, Note_on_c, 1, 65, 85
3, 55800, Note_on_c, 1, 53, 85
3, 55896, Note_off_c, 1, 53, 64
3, 55896, Note_off_c, 1, 65, 64
3, 55920, Note_on_c, 1, 67, 86
3, 55920, Note_on_c, 1, 55, 86
3, 55980, Note_off_c, 1, 55, 56
3, 55980, Note_off_c, 1, 67, 56
3, 55980, Note_on_c, 1, 56, 87
3, 55980, Note_on_c, 1, 68, 87
3, 56028, Note_off_c, 1, 68, 56
3, 56028, Note_off_c, 1, 56, 56
3, 56040, Note_on_c, 1, 70, 88
3, 56040, Note_on_c, 1, 58, 88
3, 56088, Note_off_c, 1, 58, 56
3, 56088, Note_off_c, 1, 70, 56
3, 56100, Note_on_c, 1, 72, 89
3, 56100, Note_on_c, 1, 60, 89
3, 56148, Note_off_c, 1, 60, 56
3, 56148, Note_off_c, 1, 72, 56
3, 56220, Note_on_c, 1, 73, 80
3, 56277, Note_off_c, 1, 73, 56
3, 56280, Note_on_c, 1, 61, 80
3, 56451, Note_off_c, 1, 61, 64
3, 56460, Note_on_c, 1, 72, 80
3, 56517, Note_off_c, 1, 72, 56
3, 56520, Note_on_c, 1, 60, 80
3, 56691, Note_off_c, 1, 60, 64
3, 56700, Note_on_c, 1, 70, 80
3, 56757, Note_off_c, 1, 70, 56
3, 56760, Note_on_c, 1, 58, 80
3, 56937, Note_off_c, 1, 58, 64
3, 56940, Note_on_c, 1, 72, 80
3, 56997, Note_off_c, 1, 72, 56
3, 57000, Note_on_c, 1, 60, 80
3, 57171, Note_off_c, 1, 60, 64
3, 57180, Note_on_c, 1, 70, 80
3, 57237, Note_off_c, 1, 70, 56
3, 57240, Note_on_c, 1, 58, 80
3, 57354, Note_off_c, 1, 58, 64
3, 57360, Note_on_c, 1, 68, 80
3, 57417, Note_off_c, 1, 68, 56
3, 57420, Note_on_c, 1, 56, 80
3, 57477, Note_off_c, 1, 56, 56
3, 57480, Note_on_c, 1, 58, 80
3, 57537, Note_off_c, 1, 58, 56
3, 57540, Note_on_c, 1, 60, 80
3, 57597, Note_off_c, 1, 60, 56
3, 57600, Note_on_c, 1, 63, 80
3, 57657, Note_off_c, 1, 63, 56
3, 57660, Note_on_c, 1, 60, 80
3, 57717, Note_off_c, 1, 60, 56
3, 57720, Note_on_c, 1, 61, 80
3, 57777, Note_off_c, 1, 61, 56
3, 57780, Note_on_c, 1, 49, 79
3, 57837, Note_off_c, 1, 49, 56
3, 57840, Note_on_c, 1, 61, 79
3, 57897, Note_off_c, 1, 61, 56
3, 57900, Note_on_c, 1, 59, 78
3, 57957, Note_off_c, 1, 59, 56
3, 57960, Note_on_c, 1, 60, 78
3, 58017, Note_off_c, 1, 60, 56
3, 58020, Note_on_c, 1, 48, 78
3, 58077, Note_off_c, 1, 48, 56
3, 58080, Note_on_c, 1, 60, 77
3, 58137, Note_off_c, 1, 60, 56
3, 58140, Note_on_c, 1, 57, 77
3, 58197, Note_off_c, 1, 57, 56
3, 58200, Note_on_c, 1, 58, 76
3, 58257, Note_off_c, 1, 58, 56
3, 58260, Note_on_c, 1, 46, 76
3, 58317, Note_off_c, 1, 46, 56
3, 58320, Note_on_c, 1, 61, 75
3, 58377, Note_off_c, 1, 61, 56
3, 58380, Note_on_c, 1, 59, 75
3, 58437, Note_off_c, 1, 59, 56
3, 58440, Note_on_c, 1, 60, 75
3, 58497, Note_off_c, 1, 60, 56
3, 58500, Note_on_c, 1, 48, 74
3, 58557, Note_off_c, 1, 48, 56
3, 58560, Note_on_c, 1, 60, 74
3, 58617, Note_off_c, 1, 60, 56
3, 58620, Note_on_c, 1, 57, 73
3, 58677, Note_off_c, 1, 57, 56
3, 58680, Note_on_c, 1, 58, 73
3, 58737, Note_off_c, 1, 58, 56
3, 58740, Note_on_c, 1, 46, 73
3, 58797, Note_off_c, 1, 46, 56
3, 58800, Note_on_c, 1, 48, 72
3, 58800, Note_on_c, 1, 56, 72
3, 58860, Note_off_c, 1, 56, 56
3, 58860, Note_off_c, 1, 48, 56
3, 58860, Note_on_c, 1, 55, 72
3, 58860, Note_on_c, 1, 49, 72
3, 58908, Note_off_c, 1, 49, 56
3, 58908, Note_off_c, 1, 55, 56
3, 58920, Note_on_c, 1, 48, 71
3, 58920, Note_on_c, 1, 56, 71
3, 58980, Note_off_c, 1, 56, 56
3, 58980, Note_off_c, 1, 48, 56
3, 58980, Note_on_c, 1, 55, 71
3, 58980, Note_on_c, 1, 49, 71
3, 59028, Note_off_c, 1, 49, 56
3, 59028, Note_off_c, 1, 55, 56
3, 59040, Note_on_c, 1, 56, 70
3, 59040, Note_on_c, 1, 48, 70
3, 59256, Note_off_c, 1, 48, 64
3, 59256, Note_off_c, 1, 56, 64
3, 59280, Note_on_c, 1, 49, 73
3, 59280, Note_on_c, 1, 55, 73
3, 59496, Note_off_c, 1, 55, 64
3, 59496, Note_off_c, 1, 49, 64
3, 59520, Note_on_c, 1, 56, 76
3, 59520, Note_on_c, 1, 48, 76
3, 59580, Note_off_c, 1, 48, 56
3, 59580, Note_off_c, 1, 56, 56
3, 59580, Note_on_c, 1, 46, 77
3, 59580, Note_on_c, 1, 53, 77
3, 59628, Note_off_c, 1, 53, 56
3, 59628, Note_off_c, 1, 46, 56
3, 59640, Note_on_c, 1, 56, 78
3, 59640, Note_on_c, 1, 48, 78
3, 59700, Note_off_c, 1, 48, 56
3, 59700, Note_off_c, 1, 56, 56
3, 59700, Note_on_c, 1, 53, 79
3, 59700, Note_on_c, 1, 46, 79
3, 59748, Note_off_c, 1, 46, 56
3, 59748, Note_off_c, 1, 53, 56
3, 59760, Note_on_c, 1, 51, 80
3, 59760, Note_on_c, 1, 48, 80
3, 59760, Note_on_c, 1, 56, 80
3, 59976, Note_off_c, 1, 56, 64
3, 59976, Note_off_c, 1, 48, 64
3, 59976, Note_off_c, 1, 51, 64
3, 60000, Note_on_c, 1, 46, 82
3, 60014, Note_off_c, 1, 46, 48
3, 60015, Note_on_c, 1, 48, 82
3, 60029, Note_off_c, 1, 48, 48
3, 60030, Note_on_c, 1, 46, 82
3, 60044, Note_off_c, 1, 46, 48
3, 60045, Note_on_c, 1, 48, 82
3, 60059, Note_off_c, 1, 48, 48
3, 60060, Note_on_c, 1, 46, 83
3, 60074, Note_off_c, 1, 46, 48
3, 60075, Note_on_c, 1, 48, 83
3, 60089, Note_off_c, 1, 48, 48
3, 60090, Note_on_c, 1, 46, 83
3, 60104, Note_off_c, 1, 46, 48
3, 60105, Note_on_c, 1, 48, 83
3, 60119, Note_off_c, 1, 48, 48
3, 60120, Note_on_c, 1, 46, 83
3, 60134, Note_off_c, 1, 46, 48
3, 60135, Note_on_c, 1, 48, 83
3, 60149, Note_off_c, 1, 48, 48
3, 60150, Note_on_c, 1, 46, 84
3, 60164, Note_off_c, 1, 46, 48
3, 60165, Note_on_c, 1, 48, 84
3, 60179, Note_off_c, 1, 48, 48
3, 60180, Note_on_c, 1, 46, 84
3, 60194, Note_off_c, 1, 46, 48
3, 60195, Note_on_c, 1, 48, 84
3, 60209, Note_off_c, 1, 48, 48
3, 60210, Note_on_c, 1, 46, 84
3, 60224, Note_off_c, 1, 46, 48
3, 60225, Note_on_c, 1, 48, 84
3, 60239, Note_off_c, 1, 48, 48
3, 60240, Note_on_c, 1, 44, 85
3, 60254, Note_off_c, 1, 44, 48
3, 60255, Note_on_c, 1, 46, 85
3, 60269, Note_off_c, 1, 46, 48
3, 60270, Note_on_c, 1, 44, 85
3, 60284, Note_off_c, 1, 44, 48
3, 60285, Note_on_c, 1, 46, 85
3, 60299, Note_off_c, 1, 46, 48
3, 60300, Note_on_c, 1, 44, 85
3, 60314, Note_off_c, 1, 44, 48
3, 60315, Note_on_c, 1, 46, 85
3, 60329, Note_off_c, 1, 46, 48
3, 60330, Note_on_c, 1, 44, 85
3, 60344, Note_off_c, 1, 44, 48
3, 60345, Note_on_c, 1, 46, 86
3, 60359, Note_off_c, 1, 46, 48
3, 60360, Note_on_c, 1, 44, 86
3, 60374, Note_off_c, 1, 44, 48
3, 60375, Note_on_c, 1, 46, 86
3, 60389, Note_off_c, 1, 46, 48
3, 60390, Note_on_c, 1, 44, 86
3, 60404, Note_off_c, 1, 44, 48
3, 60405, Note_on_c, 1, 46, 86
3, 60419, Note_off_c, 1, 46, 48
3, 60420, Note_on_c, 1, 44, 86
3, 60434, Note_off_c, 1, 44, 48
3, 60435, Note_on_c, 1, 46, 87
3, 60449, Note_off_c, 1, 46, 48
3, 60450, Note_on_c, 1, 44, 87
3, 60464, Note_off_c, 1, 44, 48
3, 60465, Note_on_c, 1, 46, 87
3, 60479, Note_off_c, 1, 46, 48
3, 60480, Note_on_c, 1, 43, 87
3, 60494, Note_off_c, 1, 43, 48
3, 60495, Note_on_c, 1, 44, 87
3, 60509, Note_off_c, 1, 44, 48
3, 60510, Note_on_c, 1, 43, 87
3, 60524, Note_off_c, 1, 43, 48
3, 60525, Note_on_c, 1, 44, 87
3, 60539, Note_off_c, 1, 44, 48
3, 60540, Note_on_c, 1, 43, 88
3, 60554, Note_off_c, 1, 43, 48
3, 60555, Note_on_c, 1, 44, 88
3, 60569, Note_off_c, 1, 44, 48
3, 60570, Note_on_c, 1, 43, 88
3, 60584, Note_off_c, 1, 43, 48
3, 60585, Note_on_c, 1, 44, 88
3, 60599, Note_off_c, 1, 44, 48
3, 60600, Note_on_c, 1, 43, 88
3, 60614, Note_off_c, 1, 43, 48
3, 60615, Note_on_c, 1, 44, 88
3, 60629, Note_off_c, 1, 44, 48
3, 60630, Note_on_c, 1, 43, 89
3, 60644, Note_off_c, 1, 43, 48
3, 60645, Note_on_c, 1, 44, 89
3, 60659, Note_off_c, 1, 44, 48
3, 60660, Note_on_c, 1, 43, 89
3, 60674, Note_off_c, 1, 43, 48
3, 60675, Note_on_c, 1, 44, 89
3, 60689, Note_off_c, 1, 44, 48
3, 60690, Note_on_c, 1, 43, 89
3, 60704, Note_off_c, 1, 43, 48
3, 60705, Note_on_c, 1, 44, 89
3, 60719, Note_off_c, 1, 44, 48
3, 60720, Note_on_c, 1, 41, 90
3, 60734, Note_off_c, 1, 41, 48
3, 60735, Note_on_c, 1, 43, 90
3, 60749, Note_off_c, 1, 43, 48
3, 60750, Note_on_c, 1, 41, 90
3, 60764, Note_off_c, 1, 41, 48
3, 60765, Note_on_c, 1, 43, 90
3, 60779, Note_off_c, 1, 43, 48
3, 60780, Note_on_c, 1, 41, 90
3, 60794, Note_off_c, 1, 41, 48
3, 60795, Note_on_c, 1, 43, 90
3, 60809, Note_off_c, 1, 43, 48
3, 60810, Note_on_c, 1, 41, 90
3, 60824, Note_off_c, 1, 41, 48
3, 60825, Note_on_c, 1, 43, 91
3, 60839, Note_off_c, 1, 43, 48
3, 60840, Note_on_c, 1, 41, 91
3, 60854, Note_off_c, 1, 41, 48
3, 60855, Note_on_c, 1, 43, 91
3, 60869, Note_off_c, 1, 43, 48
3, 60870, Note_on_c, 1, 41, 91
3, 60884, Note_off_c, 1, 41, 48
3, 60885, Note_on_c, 1, 43, 91
3, 60899, Note_off_c, 1, 43, 48
3, 60900, Note_on_c, 1, 41, 91
3, 60914, Note_off_c, 1, 41, 48
3, 60915, Note_on_c, 1, 43, 92
3, 60929, Note_off_c, 1, 43, 48
3, 60930, Note_on_c, 1, 41, 92
3, 60944, Note_off_c, 1, 41, 48
3, 60945, Note_on_c, 1, 43, 92
3, 60959, Note_off_c, 1, 43, 48
3, 60960, Note_on_c, 1, 39, 92
3, 60974, Note_off_c, 1, 39, 48
3, 60975, Note_on_c, 1, 41, 92
3, 60989, Note_off_c, 1, 41, 48
3, 60990, Note_on_c, 1, 39, 92
3, 61004, Note_off_c, 1, 39, 48
3, 61005, Note_on_c, 1, 41, 92
3, 61019, Note_off_c, 1, 41, 48
3, 61020, Note_on_c, 1, 39, 93
3, 61034, Note_off_c, 1, 39, 48
3, 61035, Note_on_c, 1, 41, 93
3, 61049, Note_off_c, 1, 41, 48
3, 61050, Note_on_c, 1, 39, 93
3, 61064, Note_off_c, 1, 39, 48
3, 61065, Note_on_c, 1, 41, 93
3, 61079, Note_off_c, 1, 41, 48
3, 61080, Note_on_c, 1, 39, 93
3, 61094, Note_off_c, 1, 39, 48
3, 61095, Note_on_c, 1, 41, 93
3, 61109, Note_off_c, 1, 41, 48
3, 61110, Note_on_c, 1, 39, 94
3, 61124, Note_off_c, 1, 39, 48
3, 61125, Note_on_c, 1, 41, 94
3, 61139, Note_off_c, 1, 41, 48
3, 61140, Note_on_c, 1, 39, 94
3, 61154, Note_off_c, 1, 39, 48
3, 61155, Note_on_c, 1, 41, 94
3, 61169, Note_off_c, 1, 41, 48
3, 61170, Note_on_c, 1, 39, 94
3, 61184, Note_off_c, 1, 39, 48
3, 61185, Note_on_c, 1, 41, 94
3, 61199, Note_off_c, 1, 41, 48
3, 61200, Note_on_c, 1, 37, 95
3, 61214, Note_off_c, 1, 37, 48
3, 61215, Note_on_c, 1, 39, 95
3, 61229, Note_off_c, 1, 39, 48
3, 61230, Note_on_c, 1, 37, 95
3, 61244, Note_off_c, 1, 37, 48
3, 61245, Note_on_c, 1, 39, 95
3, 61259, Note_off_c, 1, 39, 48
3, 61260, Note_on_c, 1, 37, 95
3, 61274, Note_off_c, 1, 37, 48
3, 61275, Note_on_c, 1, 39, 95
3, 61289, Note_off_c, 1, 39, 48
3, 61290, Note_on_c, 1, 37, 95
3, 61304, Note_off_c, 1, 37, 48
3, 61305, Note_on_c, 1, 39, 95
3, 61319, Note_off_c, 1, 39, 48
3, 61320, Note_on_c, 1, 37, 95
3, 61334, Note_off_c, 1, 37, 48
3, 61335, Note_on_c, 1, 39, 95
3, 61349, Note_off_c, 1, 39, 48
3, 61350, Note_on_c, 1, 37, 95
3, 61364, Note_off_c, 1, 37, 48
3, 61365, Note_on_c, 1, 39, 95
3, 61379, Note_off_c, 1, 39, 48
3, 61380, Note_on_c, 1, 37, 95
3, 61394, Note_off_c, 1, 37, 48
3, 61395, Note_on_c, 1, 39, 95
3, 61409, Note_off_c, 1, 39, 48
3, 61410, Note_on_c, 1, 37, 95
3, 61424, Note_off_c, 1, 37, 48
3, 61425, Note_on_c, 1, 39, 95
3, 61439, Note_off_c, 1, 39, 48
3, 61440, Note_on_c, 1, 37, 95
3, 61454, Note_off_c, 1, 37, 48
3, 61455, Note_on_c, 1, 39, 95
3, 61469, Note_off_c, 1, 39, 48
3, 61470, Note_on_c, 1, 37, 95
3, 61484, Note_off_c, 1, 37, 48
3, 61485, Note_on_c, 1, 39, 95
3, 61499, Note_off_c, 1, 39, 48
3, 61500, Note_on_c, 1, 37, 95
3, 61514, Note_off_c, 1, 37, 48
3, 61515, Note_on_c, 1, 39, 95
3, 61529, Note_off_c, 1, 39, 48
3, 61530, Note_on_c, 1, 37, 95
3, 61544, Note_off_c, 1, 37, 48
3, 61545, Note_on_c, 1, 39, 95
3, 61559, Note_off_c, 1, 39, 48
3, 61560, Note_on_c, 1, 37, 95
3, 61574, Note_off_c, 1, 37, 48
3, 61575, Note_on_c, 1, 39, 95
3, 61589, Note_off_c, 1, 39, 48
3, 61590, Note_on_c, 1, 37, 95
3, 61604, Note_off_c, 1, 37, 48
3, 61605, Note_on_c, 1, 39, 95
3, 61619, Note_off_c, 1, 39, 48
3, 61620, Note_on_c, 1, 37, 95
3, 61634, Note_off_c, 1, 37, 48
3, 61635, Note_on_c, 1, 39, 95
3, 61649, Note_off_c, 1, 39, 48
3, 61650, Note_on_c, 1, 37, 95
3, 61664, Note_off_c, 1, 37, 48
3, 61665, Note_on_c, 1, 39, 95
3, 61679, Note_off_c, 1, 39, 48
3, 61680, Note_on_c, 1, 37, 95
3, 61694, Note_off_c, 1, 37, 48
3, 61695, Note_on_c, 1, 39, 95
3, 61709, Note_off_c, 1, 39, 48
3, 61710, Note_on_c, 1, 37, 95
3, 61724, Note_off_c, 1, 37, 48
3, 61725, Note_on_c, 1, 39, 95
3, 61739, Note_off_c, 1, 39, 48
3, 61740, Note_on_c, 1, 36, 95
3, 61767, Note_off_c, 1, 36, 48
3, 61770, Note_on_c, 1, 37, 95
3, 61797, Note_off_c, 1, 37, 48
3, 61800, Note_on_c, 1, 39, 95
3, 61814, Note_off_c, 1, 39, 48
3, 61815, Note_on_c, 1, 37, 95
3, 61829, Note_off_c, 1, 37, 48
3, 61830, Note_on_c, 1, 36, 95
3, 61844, Note_off_c, 1, 36, 48
3, 61845, Note_on_c, 1, 34, 95
3, 61859, Note_off_c, 1, 34, 48
3, 61920, Note_on_c, 1, 32, 95
3, 61974, Note_off_c, 1, 32, 56
3, 61980, Note_on_c, 1, 48, 95
3, 61980, Note_on_c, 1, 44, 95
3, 62034, Note_off_c, 1, 44, 56
3, 62034, Note_off_c, 1, 48, 56
3, 62040, Note_on_c, 1, 44, 95
3, 62040, Note_on_c, 1, 48, 95
3, 62094, Note_off_c, 1, 48, 56
3, 62094, Note_off_c, 1, 44, 56
3, 62100, Note_on_c, 1, 44, 96
3, 62100, Note_on_c, 1, 48, 96
3, 62100, Note_on_c, 1, 43, 96
3, 62154, Note_off_c, 1, 43, 56
3, 62154, Note_off_c, 1, 48, 56
3, 62154, Note_off_c, 1, 44, 56
3, 62160, Note_on_c, 1, 44, 96
3, 62160, Note_on_c, 1, 48, 96
3, 62160, Note_on_c, 1, 43, 96
3, 62214, Note_off_c, 1, 43, 56
3, 62214, Note_off_c, 1, 48, 56
3, 62214, Note_off_c, 1, 44, 56
3, 62220, Note_on_c, 1, 44, 97
3, 62220, Note_on_c, 1, 41, 97
3, 62220, Note_on_c, 1, 48, 97
3, 62274, Note_off_c, 1, 48, 56
3, 62274, Note_off_c, 1, 41, 56
3, 62274, Note_off_c, 1, 44, 56
3, 62280, Note_on_c, 1, 41, 97
3, 62280, Note_on_c, 1, 44, 97
3, 62280, Note_on_c, 1, 48, 97
3, 62334, Note_off_c, 1, 48, 56
3, 62334, Note_off_c, 1, 44, 56
3, 62334, Note_off_c, 1, 41, 56
3, 62340, Note_on_c, 1, 44, 97
3, 62340, Note_on_c, 1, 48, 97
3, 62340, Note_on_c, 1, 39, 97
3, 62394, Note_off_c, 1, 39, 56
3, 62394, Note_off_c, 1, 48, 56
3, 62394, Note_off_c, 1, 44, 56
3, 62400, Note_on_c, 1, 48, 98
3, 62400, Note_on_c, 1, 44, 98
3, 62400, Note_on_c, 1, 39, 98
3, 62454, Note_off_c, 1, 39, 56
3, 62454, Note_off_c, 1, 44, 56
3, 62454, Note_off_c, 1, 48, 56
3, 62460, Note_on_c, 1, 48, 98
3, 62460, Note_on_c, 1, 44, 98
3, 62460, Note_on_c, 1, 37, 98
3, 62514, Note_off_c, 1, 37, 56
3, 62514, Note_off_c, 1, 44, 56
3, 62514, Note_off_c, 1, 48, 56
3, 62520, Note_on_c, 1, 36, 99
3, 62520, Note_on_c, 1, 48, 99
3, 62520, Note_on_c, 1, 44, 99
3, 62574, Note_off_c, 1, 44, 56
3, 62574, Note_off_c, 1, 48, 56
3, 62574, Note_off_c, 1, 36, 56
3, 62580, Note_on_c, 1, 44, 99
3, 62580, Note_on_c, 1, 36, 99
3, 62580, Note_on_c, 1, 48, 99
3, 62616, Note_off_c, 1, 48, 56
3, 62616, Note_off_c, 1, 36, 56
3, 62616, Note_off_c, 1, 44, 56
3, 62640, Note_on_c, 1, 36, 95
3, 62694, Note_off_c, 1, 36, 56
3, 62700, Note_on_c, 1, 48, 95
3, 62700, Note_on_c, 1, 44, 95
3, 62754, Note_off_c, 1, 44, 56
3, 62754, Note_off_c, 1, 48, 56
3, 62760, Note_on_c, 1, 44, 95
3, 62760, Note_on_c, 1, 48, 95
3, 62814, Note_off_c, 1, 48, 56
3, 62814, Note_off_c, 1, 44, 56
3, 62820, Note_on_c, 1, 44, 96
3, 62820, Note_on_c, 1, 48, 96
3, 62820, Note_on_c, 1, 43, 96
3, 62874, Note_off_c, 1, 43, 56
3, 62874, Note_off_c, 1, 48, 56
3, 62874, Note_off_c, 1, 44, 56
3, 62880, Note_on_c, 1, 44, 96
3, 62880, Note_on_c, 1, 48, 96
3, 62880, Note_on_c, 1, 43, 96
3, 62934, Note_off_c, 1, 43, 56
3, 62934, Note_off_c, 1, 48, 56
3, 62934, Note_off_c, 1, 44, 56
3, 62940, Note_on_c, 1, 44, 97
3, 62940, Note_on_c, 1, 41, 97
3, 62940, Note_on_c, 1, 48, 97
3, 62994, Note_off_c, 1, 48, 56
3, 62994, Note_off_c, 1, 41, 56
3, 62994, Note_off_c, 1, 44, 56
3, 63000, Note_on_c, 1, 41, 97
3, 63000, Note_on_c, 1, 44, 97
3, 63000, Note_on_c, 1, 48, 97
3, 63054, Note_off_c, 1, 48, 56
3, 63054, Note_off_c, 1, 44, 56
3, 63054, Note_off_c, 1, 41, 56
3, 63060, Note_on_c, 1, 44, 97
3, 63060, Note_on_c, 1, 48, 97
3, 63060, Note_on_c, 1, 39, 97
3, 63114, Note_off_c, 1, 39, 56
3, 63114, Note_off_c, 1, 48, 56
3, 63114, Note_off_c, 1, 44, 56
3, 63120, Note_on_c, 1, 48, 98
3, 63120, Note_on_c, 1, 44, 98
3, 63120, Note_on_c, 1, 39, 98
3, 63174, Note_off_c, 1, 39, 56
3, 63174, Note_off_c, 1, 44, 56
3, 63174, Note_off_c, 1, 48, 56
3, 63180, Note_on_c, 1, 48, 98
3, 63180, Note_on_c, 1, 44, 98
3, 63180, Note_on_c, 1, 37, 98
3, 63234, Note_off_c, 1, 37, 56
3, 63234, Note_off_c, 1, 44, 56
3, 63234, Note_off_c, 1, 48, 56
3, 63240, Note_on_c, 1, 36, 99
3, 63240, Note_on_c, 1, 48, 99
3, 63240, Note_on_c, 1, 44, 99
3, 63294, Note_off_c, 1, 44, 56
3, 63294, Note_off_c, 1, 48, 56
3, 63294, Note_off_c, 1, 36, 56
3, 63300, Note_on_c, 1, 44, 99
3, 63300, Note_on_c, 1, 36, 99
3, 63300, Note_on_c, 1, 48, 99
3, 63354, Note_off_c, 1, 48, 56
3, 63354, Note_off_c, 1, 36, 56
3, 63354, Note_off_c, 1, 44, 56
3, 63360, Note_on_c, 1, 36, 95
3, 63414, Note_off_c, 1, 36, 56
3, 63420, Note_on_c, 1, 48, 95
3, 63420, Note_on_c, 1, 44, 95
3, 63474, Note_off_c, 1, 44, 56
3, 63474, Note_off_c, 1, 48, 56
3, 63480, Note_on_c, 1, 44, 95
3, 63480, Note_on_c, 1, 48, 95
3, 63534, Note_off_c, 1, 48, 56
3, 63534, Note_off_c, 1, 44, 56
3, 63540, Note_on_c, 1, 43, 96
3, 63540, Note_on_c, 1, 48, 96
3, 63540, Note_on_c, 1, 44, 96
3, 63594, Note_off_c, 1, 44, 56
3, 63594, Note_off_c, 1, 48, 56
3, 63594, Note_off_c, 1, 43, 56
3, 63600, Note_on_c, 1, 44, 96
3, 63600, Note_on_c, 1, 48, 96
3, 63600, Note_on_c, 1, 43, 96
3, 63654, Note_off_c, 1, 43, 56
3, 63654, Note_off_c, 1, 48, 56
3, 63654, Note_off_c, 1, 44, 56
3, 63660, Note_on_c, 1, 44, 97
3, 63660, Note_on_c, 1, 48, 97
3, 63660, Note_on_c, 1, 41, 97
3, 63714, Note_off_c, 1, 41, 56
3, 63714, Note_off_c, 1, 48, 56
3, 63714, Note_off_c, 1, 44, 56
3, 63720, Note_on_c, 1, 44, 97
3, 63720, Note_on_c, 1, 41, 97
3, 63720, Note_on_c, 1, 48, 97
3, 63774, Note_off_c, 1, 48, 56
3, 63774, Note_off_c, 1, 41, 56
3, 63774, Note_off_c, 1, 44, 56
3, 63780, Note_on_c, 1, 44, 97
3, 63780, Note_on_c, 1, 48, 97
3, 63780, Note_on_c, 1, 39, 97
3, 63834, Note_off_c, 1, 39, 56
3, 63834, Note_off_c, 1, 48, 56
3, 63834, Note_off_c, 1, 44, 56
3, 63840, Note_on_c, 1, 48, 98
3, 63840, Note_on_c, 1, 44, 98
3, 63840, Note_on_c, 1, 39, 98
3, 63876, Note_off_c, 1, 39, 56
3, 63876, Note_off_c, 1, 44, 56
3, 63876, Note_off_c, 1, 48, 56
3, 63900, Note_on_c, 1, 48, 98
3, 63900, Note_on_c, 1, 44, 98
3, 63900, Note_on_c, 1, 39, 98
3, 63954, Note_off_c, 1, 39, 56
3, 63954, Note_off_c, 1, 44, 56
3, 63954, Note_off_c, 1, 48, 56
3, 63960, Note_on_c, 1, 44, 99
3, 63960, Note_on_c, 1, 48, 99
3, 63960, Note_on_c, 1, 37, 99
3, 64014, Note_off_c, 1, 37, 56
3, 64014, Note_off_c, 1, 48, 56
3, 64014, Note_off_c, 1, 44, 56
3, 64020, Note_on_c, 1, 44, 99
3, 64020, Note_on_c, 1, 36, 99
3, 64020, Note_on_c, 1, 48, 99
3, 64074, Note_off_c, 1, 48, 56
3, 64074, Note_off_c, 1, 36, 56
3, 64074, Note_off_c, 1, 44, 56
3, 64080, Note_on_c, 1, 37, 100
3, 64080, Note_on_c, 1, 46, 100
3, 64080, Note_on_c, 1, 44, 100
3, 64320, Note_off_c, 1, 44, 64
3, 64320, Note_off_c, 1, 46, 64
3, 64320, Note_off_c, 1, 37, 64
3, 64500, Note_on_c, 1, 50, 89
3, 64500, Note_on_c, 1, 56, 89
3, 64557, Note_off_c, 1, 56, 56
3, 64557, Note_off_c, 1, 50, 56
3, 64560, Note_on_c, 1, 51, 87
3, 64560, Note_on_c, 1, 55, 87
3, 64674, Note_off_c, 1, 55, 64
3, 64674, Note_off_c, 1, 51, 64
3, 64740, Note_on_c, 1, 51, 82
3, 64740, Note_on_c, 1, 58, 82
3, 64797, Note_off_c, 1, 58, 56
3, 64797, Note_off_c, 1, 51, 56
3, 64800, Note_on_c, 1, 56, 80
3, 64800, Note_on_c, 1, 53, 80
3, 65028, Note_off_c, 1, 53, 64
3, 65028, Note_off_c, 1, 56, 64
3, 65040, Note_on_c, 1, 58, 80
3, 65040, Note_on_c, 1, 55, 80
3, 65268, Note_off_c, 1, 55, 64
3, 65268, Note_off_c, 1, 58, 64
3, 65280, Note_on_c, 1, 60, 80
3, 65280, Note_on_c, 1, 56, 80
3, 65337, Note_off_c, 1, 56, 56
3, 65337, Note_off_c, 1, 60, 56
3, 65340, Note_on_c, 1, 56, 80
3, 65340, Note_on_c, 1, 60, 80
3, 65397, Note_off_c, 1, 60, 56
3, 65397, Note_off_c, 1, 56, 56
3, 65400, Note_on_c, 1, 61, 80
3, 65400, Note_on_c, 1, 58, 80
3, 65457, Note_off_c, 1, 58, 56
3, 65457, Note_off_c, 1, 61, 56
3, 65460, Note_on_c, 1, 60, 80
3, 65460, Note_on_c, 1, 63, 80
3, 65517, Note_off_c, 1, 63, 56
3, 65517, Note_off_c, 1, 60, 56
3, 65520, Note_on_c, 1, 65, 80
3, 65520, Note_on_c, 1, 61, 80
3, 65634, Note_off_c, 1, 61, 64
3, 65634, Note_off_c, 1, 65, 64
3, 65880, Note_on_c, 1, 53, 80
3, 65880, Note_on_c, 1, 49, 80
3, 65880, Note_on_c, 1, 56, 80
3, 65940, Note_off_c, 1, 56, 56
3, 65940, Note_off_c, 1, 49, 56
3, 65940, Note_off_c, 1, 53, 56
3, 65940, Note_on_c, 1, 56, 80
3, 65940, Note_on_c, 1, 53, 80
3, 65940, Note_on_c, 1, 50, 80
3, 66000, Note_off_c, 1, 50, 56
3, 66000, Note_off_c, 1, 53, 56
3, 66000, Note_off_c, 1, 56, 56
3, 66000, Note_on_c, 1, 55, 80
3, 66000, Note_on_c, 1, 51, 80
3, 66096, Note_off_c, 1, 51, 64
3, 66096, Note_off_c, 1, 55, 64
3, 66180, Note_on_c, 1, 58, 80
3, 66180, Note_on_c, 1, 51, 80
3, 66237, Note_off_c, 1, 51, 56
3, 66237, Note_off_c, 1, 58, 56
3, 66240, Note_on_c, 1, 56, 67
3, 66240, Note_on_c, 1, 60, 80
3, 66354, Note_off_c, 1, 60, 64
3, 66360, Note_on_c, 1, 61, 80
3, 66417, Note_off_c, 1, 61, 56
3, 66420, Note_on_c, 1, 60, 80
3, 66477, Note_off_c, 1, 60, 56
3, 66480, Note_on_c, 1, 58, 80
3, 66537, Note_off_c, 1, 58, 56
3, 66537, Note_off_c, 1, 56, 64
3, 66540, Note_on_c, 1, 56, 80
3, 66597, Note_off_c, 1, 56, 56
3, 66600, Note_on_c, 1, 55, 80
3, 66657, Note_off_c, 1, 55, 56
3, 66660, Note_on_c, 1, 56, 80
3, 66717, Note_off_c, 1, 56, 56
3, 66720, Note_on_c, 1, 58, 80
3, 66720, Note_on_c, 1, 51, 69
3, 66948, Note_off_c, 1, 51, 64
3, 66948, Note_off_c, 1, 58, 64
3, 66960, Note_on_c, 1, 44, 63
3, 66960, Note_on_c, 1, 56, 80
3, 67017, Note_off_c, 1, 56, 56
3, 67020, Note_on_c, 1, 48, 80
3, 67077, Note_off_c, 1, 48, 56
3, 67080, Note_on_c, 1, 49, 80
3, 67137, Note_off_c, 1, 49, 56
3, 67140, Note_on_c, 1, 48, 80
3, 67188, Note_off_c, 1, 44, 64
3, 67197, Note_off_c, 1, 48, 56
3, 67200, Note_on_c, 1, 44, 65
3, 67200, Note_on_c, 1, 46, 80
3, 67257, Note_off_c, 1, 46, 56
3, 67257, Note_off_c, 1, 44, 56
3, 67260, Note_on_c, 1, 44, 80
3, 67317, Note_off_c, 1, 44, 56
3, 67320, Note_on_c, 1, 43, 80
3, 67377, Note_off_c, 1, 43, 56
3, 67380, Note_on_c, 1, 44, 80
3, 67437, Note_off_c, 1, 44, 56
3, 67440, Note_on_c, 1, 39, 66
3, 67440, Note_on_c, 1, 46, 80
3, 67668, Note_off_c, 1, 46, 64
3, 67668, Note_off_c, 1, 39, 64
3, 67680, Note_on_c, 1, 32, 80
3, 67680, Note_on_c, 1, 44, 80
3, 67908, Note_off_c, 1, 44, 64
3, 67908, Note_off_c, 1, 32, 64
3, 67920, Note_on_c, 1, 44, 80
3, 67920, Note_on_c, 1, 39, 80
3, 67920, Note_on_c, 1, 36, 80
3, 67920, Note_on_c, 1, 32, 80
3, 68628, Note_off_c, 1, 32, 64
3, 68628, Note_off_c, 1, 36, 64
3, 68628, Note_off_c, 1, 39, 64
3, 68628, Note_off_c, 1, 44, 64
3, 68640, Note_on_c, 1, 44, 77
3, 68640, Note_on_c, 1, 48, 77
3, 68640, Note_on_c, 1, 51, 77
3, 68640, Note_on_c, 1, 56, 77
3, 68868, Note_off_c, 1, 56, 64
3, 68868, Note_off_c, 1, 51, 64
3, 68868, Note_off_c, 1, 48, 64
3, 68868, Note_off_c, 1, 44, 64
3, 68880, Note_on_c, 1, 60, 74
3, 68880, Note_on_c, 1, 56, 74
3, 68880, Note_on_c, 1, 63, 74
3, 69108, Note_off_c, 1, 63, 64
3, 69108, Note_off_c, 1, 56, 64
3, 69108, Note_off_c, 1, 60, 64
3, 69120, Note_on_c, 1, 56, 70
3, 69120, Note_on_c, 1, 62, 70
3, 69120, Note_on_c, 1, 53, 70
3, 69120, Note_on_c, 1, 58, 70
3, 69348, Note_off_c, 1, 58, 64
3, 69348, Note_off_c, 1, 53, 64
3, 69348, Note_off_c, 1, 62, 64
3, 69348, Note_off_c, 1, 56, 64
3, 69360, Note_on_c, 1, 58, 72
3, 69360, Note_on_c, 1, 56, 72
3, 69360, Note_on_c, 1, 53, 72
3, 69360, Note_on_c, 1, 62, 72
3, 69816, Note_off_c, 1, 62, 64
3, 69816, Note_off_c, 1, 53, 64
3, 69816, Note_off_c, 1, 56, 64
3, 69816, Note_off_c, 1, 58, 64
3, 69840, Note_on_c, 1, 63, 78
3, 69840, Note_on_c, 1, 55, 78
3, 69840, Note_on_c, 1, 51, 78
3, 69840, Note_on_c, 1, 58, 78
3, 70068, Note_off_c, 1, 58, 64
3, 70068, Note_off_c, 1, 51, 64
3, 70068, Note_off_c, 1, 55, 64
3, 70068, Note_off_c, 1, 63, 64
3, 70080, Note_on_c, 1, 51, 81
3, 70080, Note_on_c, 1, 63, 81
3, 70080, Note_on_c, 1, 58, 81
3, 70080, Note_on_c, 1, 55, 81
3, 70296, Note_off_c, 1, 55, 64
3, 70296, Note_off_c, 1, 58, 64
3, 70296, Note_off_c, 1, 63, 64
3, 70296, Note_off_c, 1, 51, 64
3, 70320, Note_on_c, 1, 55, 83
3, 70320, Note_on_c, 1, 63, 83
3, 70320, Note_on_c, 1, 58, 83
3, 70320, Note_on_c, 1, 51, 83
3, 70536, Note_off_c, 1, 51, 64
3, 70536, Note_off_c, 1, 58, 64
3, 70536, Note_off_c, 1, 63, 64
3, 70536, Note_off_c, 1, 55, 64
3, 70560, Note_on_c, 1, 62, 86
3, 70560, Note_on_c, 1, 58, 86
3, 70560, Note_on_c, 1, 53, 86
3, 70560, Note_on_c, 1, 56, 86
3, 70776, Note_off_c, 1, 56, 64
3, 70776, Note_off_c, 1, 53, 64
3, 70776, Note_off_c, 1, 58, 64
3, 70776, Note_off_c, 1, 62, 64
3, 70800, Note_on_c, 1, 58, 89
3, 70800, Note_on_c, 1, 56, 89
3, 70800, Note_on_c, 1, 53, 89
3, 70800, Note_on_c, 1, 62, 89
3, 71256, Note_off_c, 1, 62, 64
3, 71256, Note_off_c, 1, 53, 64
3, 71256, Note_off_c, 1, 56, 64
3, 71256, Note_off_c, 1, 58, 64
3, 71280, Note_on_c, 1, 51, 95
3, 71280, Note_on_c, 1, 55, 95
3, 71280, Note_on_c, 1, 58, 95
3, 71280, Note_on_c, 1, 63, 95
3, 71508, Note_off_c, 1, 63, 64
3, 71508, Note_off_c, 1, 58, 64
3, 71508, Note_off_c, 1, 55, 64
3, 71508, Note_off_c, 1, 51, 64
3, 71520, Note_on_c, 1, 49, 94
3, 71520, Note_on_c, 1, 58, 94
3, 72114, Note_off_c, 1, 58, 64
3, 72114, Note_off_c, 1, 49, 64
3, 72120, Note_on_c, 1, 48, 85
3, 72120, Note_on_c, 1, 60, 85
3, 72216, Note_off_c, 1, 60, 64
3, 72216, Note_off_c, 1, 48, 64
3, 72240, Note_on_c, 1, 48, 84
3, 72240, Note_on_c, 1, 60, 84
3, 72240, Control_c, 1, 64, 127
3, 72834, Note_off_c, 1, 60, 64
3, 72834, Note_off_c, 1, 48, 64
3, 72840, Note_on_c, 1, 52, 79
3, 72840, Note_on_c, 1, 55, 79
3, 72896, Control_c, 1, 64, 0
3, 72936, Note_off_c, 1, 55, 64
3, 72936, Note_off_c, 1, 52, 64
3, 72960, Note_on_c, 1, 52, 78
3, 72960, Note_on_c, 1, 55, 78
3, 72960, Control_c, 1, 64, 127
3, 73554, Note_off_c, 1, 55, 64
3, 73554, Note_off_c, 1, 52, 64
3, 73560, Note_on_c, 1, 53, 72
3, 73560, Note_on_c, 1, 56, 72
3, 73616, Control_c, 1, 64, 0
3, 73656, Note_off_c, 1, 56, 64
3, 73656, Note_off_c, 1, 53, 64
3, 73680, Note_on_c, 1, 53, 70
3, 73680, Note_on_c, 1, 56, 70
3, 73680, Control_c, 1, 64, 127
3, 74274, Note_off_c, 1, 56, 64
3, 74274, Note_off_c, 1, 53, 64
3, 74280, Note_on_c, 1, 51, 65
3, 74280, Note_on_c, 1, 58, 65
3, 74340, Control_c, 1, 64, 0
3, 74376, Note_off_c, 1, 58, 64
3, 74376, Note_off_c, 1, 51, 64
3, 74400, Note_on_c, 1, 51, 65
3, 74400, Control_c, 1, 64, 127
3, 74400, Note_on_c, 1, 58, 65
3, 74856, Note_off_c, 1, 58, 64
3, 74856, Note_off_c, 1, 51, 64
3, 74864, Control_c, 1, 64, 0
3, 74880, Note_on_c, 1, 60, 80
3, 74880, Control_c, 1, 64, 127
3, 74880, Note_on_c, 1, 56, 80
3, 74988, Note_off_c, 1, 56, 64
3, 74988, Note_off_c, 1, 60, 64
3, 75500, Control_c, 1, 64, 0
3, 75600, Note_on_c, 1, 34, 80
3, 75600, Control_c, 1, 64, 127
3, 75600, Note_on_c, 1, 46, 80
3, 75600, Note_on_c, 1, 39, 80
3, 75708, Note_off_c, 1, 39, 64
3, 75708, Note_off_c, 1, 46, 64
3, 75708, Note_off_c, 1, 34, 64
3, 75840, Note_on_c, 1, 39, 80
3, 75840, Note_on_c, 1, 46, 80
3, 75840, Note_on_c, 1, 34, 80
3, 75948, Note_off_c, 1, 34, 64
3, 75948, Note_off_c, 1, 46, 64
3, 75948, Note_off_c, 1, 39, 64
3, 76080, Note_on_c, 1, 34, 80
3, 76080, Note_on_c, 1, 39, 80
3, 76080, Note_on_c, 1, 46, 80
3, 76188, Note_off_c, 1, 46, 64
3, 76188, Note_off_c, 1, 39, 64
3, 76188, Note_off_c, 1, 34, 64
3, 76288, Control_c, 1, 64, 0
3, 76320, Note_on_c, 1, 48, 80
3, 76320, Control_c, 1, 64, 127
3, 76320, Note_on_c, 1, 39, 80
3, 76320, Note_on_c, 1, 36, 80
3, 76428, Note_off_c, 1, 36, 64
3, 76428, Note_off_c, 1, 39, 64
3, 76428, Note_off_c, 1, 48, 64
3, 77008, Control_c, 1, 64, 0
3, 77040, Note_on_c, 1, 31, 80
3, 77040, Control_c, 1, 64, 127
3, 77040, Note_on_c, 1, 43, 80
3, 77040, Note_on_c, 1, 39, 80
3, 77148, Note_off_c, 1, 39, 64
3, 77148, Note_off_c, 1, 43, 64
3, 77148, Note_off_c, 1, 31, 64
3, 77280, Note_on_c, 1, 51, 80
3, 77280, Note_on_c, 1, 43, 80
3, 77280, Note_on_c, 1, 55, 80
3, 77388, Note_off_c, 1, 55, 64
3, 77388, Note_off_c, 1, 43, 64
3, 77388, Note_off_c, 1, 51, 64
3, 77520, Note_on_c, 1, 55, 80
3, 77520, Note_on_c, 1, 51, 80
3, 77520, Note_on_c, 1, 43, 80
3, 77628, Note_off_c, 1, 43, 64
3, 77628, Note_off_c, 1, 51, 64
3, 77628, Note_off_c, 1, 55, 64
3, 77728, Control_c, 1, 64, 0
3, 77760, Note_on_c, 1, 51, 80
3, 77760, Control_c, 1, 64, 127
3, 77760, Note_on_c, 1, 56, 80
3, 77760, Note_on_c, 1, 44, 80
3, 77868, Note_off_c, 1, 44, 64
3, 77868, Note_off_c, 1, 56, 64
3, 77868, Note_off_c, 1, 51, 64
3, 78000, Note_on_c, 1, 53, 81
3, 78000, Note_on_c, 1, 56, 81
3, 78000, Note_on_c, 1, 65, 81
3, 78108, Note_off_c, 1, 65, 64
3, 78108, Note_off_c, 1, 56, 64
3, 78108, Note_off_c, 1, 53, 64
3, 78240, Note_on_c, 1, 60, 83
3, 78240, Note_on_c, 1, 56, 83
3, 78240, Note_on_c, 1, 48, 83
3, 78348, Note_off_c, 1, 48, 64
3, 78348, Note_off_c, 1, 56, 64
3, 78348, Note_off_c, 1, 60, 64
3, 78360, Note_on_c, 1, 60, 84
3, 78360, Note_on_c, 1, 48, 84
3, 78360, Note_on_c, 1, 56, 84
3, 78448, Control_c, 1, 64, 0
3, 78468, Note_off_c, 1, 56, 64
3, 78468, Note_off_c, 1, 48, 64
3, 78468, Note_off_c, 1, 60, 64
3, 78480, Note_on_c, 1, 56, 85
3, 78480, Control_c, 1, 64, 127
3, 78480, Note_on_c, 1, 61, 85
3, 78480, Note_on_c, 1, 49, 85
3, 78588, Note_off_c, 1, 49, 64
3, 78588, Note_off_c, 1, 61, 64
3, 78588, Note_off_c, 1, 56, 64
3, 78720, Note_on_c, 1, 51, 86
3, 78720, Note_on_c, 1, 46, 86
3, 78720, Note_on_c, 1, 58, 86
3, 78828, Note_off_c, 1, 58, 64
3, 78828, Note_off_c, 1, 46, 64
3, 78828, Note_off_c, 1, 51, 64
3, 78960, Note_on_c, 1, 60, 88
3, 78960, Note_on_c, 1, 51, 88
3, 78960, Note_on_c, 1, 48, 88
3, 79068, Note_off_c, 1, 48, 64
3, 79068, Note_off_c, 1, 51, 64
3, 79068, Note_off_c, 1, 60, 64
3, 79080, Note_on_c, 1, 51, 89
3, 79080, Note_on_c, 1, 48, 89
3, 79080, Note_on_c, 1, 60, 89
3, 79168, Control_c, 1, 64, 0
3, 79188, Note_off_c, 1, 60, 64
3, 79188, Note_off_c, 1, 48, 64
3, 79188, Note_off_c, 1, 51, 64
3, 79200, Note_on_c, 1, 56, 80
3, 79200, Note_on_c, 1, 49, 65
3, 79314, Note_off_c, 1, 56, 64
3, 79320, Note_on_c, 1, 57, 80
3, 79434, Note_off_c, 1, 57, 64
3, 79440, Note_on_c, 1, 58, 80
3, 79554, Note_off_c, 1, 58, 64
3, 79560, Note_on_c, 1, 60, 80
3, 79617, Note_off_c, 1, 60, 56
3, 79620, Note_on_c, 1, 61, 80
3, 79656, Note_off_c, 1, 49, 64
3, 79677, Note_off_c, 1, 61, 56
3, 79680, Note_on_c, 1, 55, 60
3, 79680, Note_on_c, 1, 58, 80
3, 79680, Note_on_c, 1, 51, 63
3, 79908, Note_off_c, 1, 51, 64
3, 79908, Note_off_c, 1, 58, 64
3, 79908, Note_off_c, 1, 55, 64
3, 79920, Note_on_c, 1, 63, 80
3, 79920, Note_on_c, 1, 60, 80
3, 80280, Note_off_c, 1, 60, 64
3, 80280, Note_off_c, 1, 63, 64
3, 80280, Note_on_c, 1, 60, 85
3, 80280, Note_on_c, 1, 56, 85
3, 80376, Note_off_c, 1, 56, 64
3, 80376, Note_off_c, 1, 60, 64
3, 80400, Note_on_c, 1, 56, 86
3, 80400, Note_on_c, 1, 60, 86
3, 80580, Note_off_c, 1, 60, 64
3, 80580, Note_off_c, 1, 56, 64
3, 80580, Note_on_c, 1, 56, 89
3, 80580, Note_on_c, 1, 60, 89
3, 80637, Note_off_c, 1, 60, 56
3, 80637, Note_off_c, 1, 56, 56
3, 80640, Note_on_c, 1, 60, 80
3, 80640, Note_on_c, 1, 49, 63
3, 80640, Note_on_c, 1, 56, 80
3, 80697, Note_off_c, 1, 56, 56
3, 80697, Note_off_c, 1, 60, 56
3, 80700, Note_on_c, 1, 57, 80
3, 80757, Note_off_c, 1, 57, 56
3, 80760, Note_on_c, 1, 58, 80
3, 80817, Note_off_c, 1, 58, 56
3, 80820, Note_on_c, 1, 60, 80
3, 80877, Note_off_c, 1, 60, 56
3, 80880, Note_on_c, 1, 61, 80
3, 80937, Note_off_c, 1, 49, 64
3, 80940, Note_on_c, 1, 49, 69
3, 80994, Note_off_c, 1, 61, 64
3, 80997, Note_off_c, 1, 49, 56
3, 81000, Note_on_c, 1, 51, 69
3, 81057, Note_off_c, 1, 51, 56
3, 81060, Note_on_c, 1, 53, 73
3, 81117, Note_off_c, 1, 53, 56
3, 81120, Note_on_c, 1, 51, 69
3, 81177, Note_off_c, 1, 51, 56
3, 81180, Note_on_c, 1, 39, 70
3, 81237, Note_off_c, 1, 39, 56
3, 81240, Note_on_c, 1, 41, 72
3, 81297, Note_off_c, 1, 41, 56
3, 81300, Note_on_c, 1, 43, 71
3, 81357, Note_off_c, 1, 43, 56
3, 81360, Note_on_c, 1, 44, 80
3, 81360, Note_on_c, 1, 32, 80
3, 81588, Note_off_c, 1, 44, 64
3, 81600, Note_on_c, 1, 41, 85
3, 81714, Note_off_c, 1, 41, 64
3, 81720, Note_on_c, 1, 37, 87
3, 81720, Control_c, 1, 64, 127
3, 81834, Note_off_c, 1, 37, 64
3, 81840, Note_on_c, 1, 43, 90
3, 81954, Note_off_c, 1, 43, 64
3, 81954, Note_off_c, 1, 32, 64
3, 81960, Note_on_c, 1, 46, 92
3, 81960, Note_on_c, 1, 31, 92
3, 82024, Control_c, 1, 64, 0
3, 82056, Note_off_c, 1, 31, 64
3, 82056, Note_off_c, 1, 46, 64
3, 82076, Control_c, 1, 64, 127
3, 82080, Note_on_c, 1, 46, 95
3, 82080, Note_on_c, 1, 32, 95
3, 82508, Control_c, 1, 64, 0
3, 82536, Note_off_c, 1, 32, 64
3, 82536, Note_off_c, 1, 46, 64
3, 82560, Note_on_c, 1, 44, 85
3, 82560, Note_on_c, 1, 32, 85
3, 82656, Note_off_c, 1, 32, 64
3, 82656, Note_off_c, 1, 44, 64
3, 82800, Note_on_c, 1, 44, 80
3, 82800, Control_c, 1, 64, 127
3, 82800, Note_on_c, 1, 32, 80
3, 82896, Note_off_c, 1, 32, 64
3, 82896, Note_off_c, 1, 44, 64
3, 82924, Control_c, 1, 64, 0
3, 83280, Control_c, 1, 93, 0
3, 83280, Control_c, 1, 91, 0
3, 83280, Control_c, 1, 10, 64
3, 83520, Control_c, 1, 10, 56
3, 83520, Control_c, 1, 91, 8
3, 83520, Control_c, 1, 93, 0
3, 83520, Note_on_c, 1, 53, 80
3, 83520, Note_on_c, 1, 41, 80
3, 83760, Note_off_c, 1, 41, 64
3, 83760, Note_off_c, 1, 53, 64
3, 83760, Note_on_c, 1, 55, 80
3, 83760, Note_on_c, 1, 43, 80
3, 84000, Note_off_c, 1, 43, 64
3, 84000, Note_off_c, 1, 55, 64
3, 84000, Note_on_c, 1, 56, 80
3, 84000, Note_on_c, 1, 44, 80
3, 84240, Note_off_c, 1, 44, 64
3, 84240, Note_off_c, 1, 56, 64
3, 84240, Note_on_c, 1, 46, 80
3, 84240, Note_on_c, 1, 58, 80
3, 84432, Note_off_c, 1, 58, 64
3, 84432, Note_off_c, 1, 46, 64
3, 84480, Note_on_c, 1, 59, 80
3, 84480, Note_on_c, 1, 47, 80
3, 84672, Note_off_c, 1, 47, 64
3, 84672, Note_off_c, 1, 59, 64
3, 84720, Note_on_c, 1, 59, 80
3, 84720, Note_on_c, 1, 47, 80
3, 84912, Note_off_c, 1, 47, 64
3, 84912, Note_off_c, 1, 59, 64
3, 84960, Control_c, 1, 64, 127
3, 84960, Note_on_c, 1, 60, 80
3, 84960, Note_on_c, 1, 48, 80
3, 85404, Control_c, 1, 64, 0
3, 85416, Note_off_c, 1, 48, 64
3, 85416, Note_off_c, 1, 60, 64
3, 85440, Control_c, 1, 64, 127
3, 85440, Note_on_c, 1, 48, 95
3, 85440, Note_on_c, 1, 36, 95
3, 85680, Note_off_c, 1, 36, 64
3, 85680, Note_off_c, 1, 48, 64
3, 85680, Note_on_c, 1, 52, 95
3, 85680, Note_on_c, 1, 40, 95
3, 85872, Note_off_c, 1, 40, 64
3, 85872, Note_off_c, 1, 52, 64
3, 85920, Note_on_c, 1, 55, 95
3, 85920, Note_on_c, 1, 43, 95
3, 86080, Control_c, 1, 64, 0
3, 86112, Note_off_c, 1, 43, 64
3, 86112, Note_off_c, 1, 55, 64
3, 86160, Note_on_c, 1, 60, 95
3, 86160, Note_on_c, 1, 48, 95
3, 86352, Note_off_c, 1, 48, 64
3, 86352, Note_off_c, 1, 60, 64
3, 86400, Note_on_c, 1, 55, 95
3, 86400, Note_on_c, 1, 43, 95
3, 86592, Note_off_c, 1, 43, 64
3, 86592, Note_off_c, 1, 55, 64
3, 86640, Note_on_c, 1, 31, 95
3, 86640, Note_on_c, 1, 43, 95
3, 86832, Note_off_c, 1, 43, 64
3, 86832, Note_off_c, 1, 31, 64
3, 86880, Note_on_c, 1, 48, 100
3, 86880, Control_c, 1, 64, 127
3, 86880, Note_on_c, 1, 36, 100
3, 87324, Control_c, 1, 64, 0
3, 87336, Note_off_c, 1, 36, 64
3, 87336, Note_off_c, 1, 48, 64
3, 87360, Note_on_c, 1, 53, 80
3, 87360, Note_on_c, 1, 41, 80
3, 87600, Note_off_c, 1, 41, 64
3, 87600, Note_off_c, 1, 53, 64
3, 87600, Note_on_c, 1, 55, 80
3, 87600, Note_on_c, 1, 43, 80
3, 87840, Note_off_c, 1, 43, 64
3, 87840, Note_off_c, 1, 55, 64
3, 87840, Note_on_c, 1, 56, 80
3, 87840, Note_on_c, 1, 44, 80
3, 88080, Note_off_c, 1, 44, 64
3, 88080, Note_off_c, 1, 56, 64
3, 88080, Note_on_c, 1, 46, 80
3, 88080, Note_on_c, 1, 58, 80
3, 88272, Note_off_c, 1, 58, 64
3, 88272, Note_off_c, 1, 46, 64
3, 88320, Note_on_c, 1, 59, 80
3, 88320, Note_on_c, 1, 47, 80
3, 88512, Note_off_c, 1, 47, 64
3, 88512, Note_off_c, 1, 59, 64
3, 88560, Note_on_c, 1, 59, 80
3, 88560, Note_on_c, 1, 47, 80
3, 88752, Note_off_c, 1, 47, 64
3, 88752, Note_off_c, 1, 59, 64
3, 88800, Note_on_c, 1, 60, 80
3, 88800, Control_c, 1, 64, 127
3, 88800, Note_on_c, 1, 48, 80
3, 89244, Control_c, 1, 64, 0
3, 89256, Note_off_c, 1, 48, 64
3, 89256, Note_off_c, 1, 60, 64
3, 89280, Control_c, 1, 64, 127
3, 89280, Note_on_c, 1, 48, 95
3, 89280, Note_on_c, 1, 36, 95
3, 89520, Note_off_c, 1, 36, 64
3, 89520, Note_off_c, 1, 48, 64
3, 89520, Note_on_c, 1, 52, 95
3, 89520, Note_on_c, 1, 40, 95
3, 89712, Note_off_c, 1, 40, 64
3, 89712, Note_off_c, 1, 52, 64
3, 89760, Note_on_c, 1, 55, 95
3, 89760, Note_on_c, 1, 43, 95
3, 89904, Control_c, 1, 64, 0
3, 89952, Note_off_c, 1, 43, 64
3, 89952, Note_off_c, 1, 55, 64
3, 90000, Note_on_c, 1, 60, 95
3, 90000, Note_on_c, 1, 48, 95
3, 90192, Note_off_c, 1, 48, 64
3, 90192, Note_off_c, 1, 60, 64
3, 90240, Note_on_c, 1, 55, 95
3, 90240, Note_on_c, 1, 43, 95
3, 90432, Note_off_c, 1, 43, 64
3, 90432, Note_off_c, 1, 55, 64
3, 90480, Note_on_c, 1, 31, 95
3, 90480, Note_on_c, 1, 43, 95
3, 90672, Note_off_c, 1, 43, 64
3, 90672, Note_off_c, 1, 31, 64
3, 90720, Note_on_c, 1, 48, 100
3, 90720, Control_c, 1, 64, 127
3, 90720, Note_on_c, 1, 36, 100
3, 91164, Control_c, 1, 64, 0
3, 91176, Note_off_c, 1, 36, 64
3, 91176, Note_off_c, 1, 48, 64
3, 91200, Note_on_c, 1, 48, 95
3, 91200, Note_on_c, 1, 36, 95
3, 91392, Note_off_c, 1, 36, 64
3, 91392, Note_off_c, 1, 48, 64
3, 91440, Note_on_c, 1, 35, 95
3, 91440, Note_on_c, 1, 47, 95
3, 91632, Note_off_c, 1, 47, 64
3, 91632, Note_off_c, 1, 35, 64
3, 91680, Note_on_c, 1, 36, 95
3, 91680, Note_on_c, 1, 48, 95
3, 92388, Note_off_c, 1, 48, 64
3, 92388, Note_off_c, 1, 36, 64
3, 92400, Note_on_c, 1, 37, 95
3, 92400, Note_on_c, 1, 49, 95
3, 92400, Control_c, 1, 64, 127
3, 92844, Control_c, 1, 64, 0
3, 92868, Note_off_c, 1, 49, 64
3, 92868, Note_off_c, 1, 37, 64
3, 92880, Note_on_c, 1, 38, 95
3, 92880, Note_on_c, 1, 50, 95
3, 92880, Control_c, 1, 64, 127
3, 93324, Control_c, 1, 64, 0
3, 93348, Note_off_c, 1, 50, 64
3, 93348, Note_off_c, 1, 38, 64
3, 93360, Note_on_c, 1, 39, 95
3, 93360, Note_on_c, 1, 51, 95
3, 93360, Control_c, 1, 64, 127
3, 93804, Control_c, 1, 64, 0
3, 93828, Note_off_c, 1, 51, 64
3, 93828, Note_off_c, 1, 39, 64
3, 93840, Note_on_c, 1, 32, 95
3, 93840, Note_on_c, 1, 44, 95
3, 94032, Note_off_c, 1, 44, 64
3, 94032, Note_off_c, 1, 32, 64
3, 94080, Note_on_c, 1, 37, 95
3, 94080, Note_on_c, 1, 49, 95
3, 94272, Note_off_c, 1, 49, 64
3, 94272, Note_off_c, 1, 37, 64
3, 94320, Note_on_c, 1, 51, 95
3, 94320, Note_on_c, 1, 39, 95
3, 94512, Note_off_c, 1, 39, 64
3, 94512, Note_off_c, 1, 51, 64
3, 94560, Note_on_c, 1, 56, 100
3, 94560, Control_c, 1, 64, 127
3, 94560, Note_on_c, 1, 44, 100
3, 95004, Control_c, 1, 64, 0
3, 95016, Note_off_c, 1, 44, 64
3, 95016, Note_off_c, 1, 56, 64
3, 95280, Note_on_c, 1, 60, 80
3, 95280, Note_on_c, 1, 56, 80
3, 95520, Note_off_c, 1, 56, 64
3, 95520, Note_off_c, 1, 60, 64
3, 95520, Note_on_c, 1, 58, 80
3, 95520, Note_on_c, 1, 61, 80
3, 95664, Note_off_c, 1, 61, 64
3, 95664, Note_off_c, 1, 58, 64
3, 96240, Note_on_c, 1, 56, 80
3, 96240, Note_on_c, 1, 60, 80
3, 96480, Note_off_c, 1, 60, 64
3, 96480, Note_off_c, 1, 56, 64
3, 96480, Note_on_c, 1, 58, 80
3, 96480, Note_on_c, 1, 61, 80
3, 96624, Note_off_c, 1, 61, 64
3, 96624, Note_off_c, 1, 58, 64
3, 97200, Note_on_c, 1, 32, 82
3, 97200, Note_on_c, 1, 44, 82
3, 97428, Note_off_c, 1, 44, 64
3, 97428, Note_off_c, 1, 32, 64
3, 97440, Note_on_c, 1, 34, 85
3, 97440, Note_on_c, 1, 46, 85
3, 97668, Note_off_c, 1, 46, 64
3, 97668, Note_off_c, 1, 34, 64
3, 97680, Note_on_c, 1, 48, 87
3, 97680, Note_on_c, 1, 36, 87
3, 97908, Note_off_c, 1, 36, 64
3, 97908, Note_off_c, 1, 48, 64
3, 97920, Note_on_c, 1, 49, 90
3, 97920, Note_on_c, 1, 37, 90
3, 98148, Note_off_c, 1, 37, 64
3, 98148, Note_off_c, 1, 49, 64
3, 98160, Note_on_c, 1, 50, 88
3, 98160, Note_on_c, 1, 38, 88
3, 98388, Note_off_c, 1, 38, 64
3, 98388, Note_off_c, 1, 50, 64
3, 98400, Note_on_c, 1, 51, 85
3, 98400, Note_on_c, 1, 39, 85
3, 98628, Note_off_c, 1, 39, 64
3, 98628, Note_off_c, 1, 51, 64
3, 98640, Note_on_c, 1, 52, 83
3, 98640, Note_on_c, 1, 40, 83
3, 98832, Note_off_c, 1, 40, 64
3, 98832, Note_off_c, 1, 52, 64
3, 98880, Note_on_c, 1, 53, 80
3, 98880, Note_on_c, 1, 41, 80
3, 99028, Note_off_c, 1, 41, 64
3, 99028, Note_off_c, 1, 53, 64
3, 99120, Note_on_c, 1, 56, 80
3, 99120, Note_on_c, 1, 53, 80
3, 99348, Note_off_c, 1, 53, 64
3, 99348, Note_off_c, 1, 56, 64
3, 99360, Note_on_c, 1, 58, 80
3, 99360, Note_on_c, 1, 55, 80
3, 99508, Note_off_c, 1, 55, 64
3, 99508, Note_off_c, 1, 58, 64
3, 100080, Note_on_c, 1, 53, 80
3, 100080, Note_on_c, 1, 56, 80
3, 100308, Note_off_c, 1, 56, 64
3, 100308, Note_off_c, 1, 53, 64
3, 100320, Note_on_c, 1, 55, 80
3, 100320, Note_on_c, 1, 58, 80
3, 100468, Note_off_c, 1, 58, 64
3, 100468, Note_off_c, 1, 55, 64
3, 101040, Note_on_c, 1, 53, 80
3, 101040, Note_on_c, 1, 41, 80
3, 101268, Note_off_c, 1, 41, 64
3, 101268, Note_off_c, 1, 53, 64
3, 101280, Note_on_c, 1, 55, 80
3, 101280, Note_on_c, 1, 43, 80
3, 101508, Note_off_c, 1, 43, 64
3, 101508, Note_off_c, 1, 55, 64
3, 101520, Note_on_c, 1, 56, 82
3, 101520, Note_on_c, 1, 44, 82
3, 101748, Note_off_c, 1, 44, 64
3, 101748, Note_off_c, 1, 56, 64
3, 101760, Note_on_c, 1, 46, 85
3, 101760, Note_on_c, 1, 58, 85
3, 101988, Note_off_c, 1, 58, 64
3, 101988, Note_off_c, 1, 46, 64
3, 102000, Note_on_c, 1, 59, 87
3, 102000, Note_on_c, 1, 47, 87
3, 102228, Note_off_c, 1, 47, 64
3, 102228, Note_off_c, 1, 59, 64
3, 102240, Note_on_c, 1, 60, 90
3, 102240, Note_on_c, 1, 48, 90
3, 102696, Note_off_c, 1, 48, 64
3, 102696, Note_off_c, 1, 60, 64
3, 102720, Note_on_c, 1, 44, 95
3, 102720, Note_on_c, 1, 56, 95
3, 103176, Note_off_c, 1, 56, 64
3, 103176, Note_off_c, 1, 44, 64
3, 103200, Note_on_c, 1, 46, 100
3, 103200, Control_c, 1, 64, 127
3, 103200, Note_on_c, 1, 43, 100
3, 103428, Note_off_c, 1, 46, 64
3, 103440, Note_on_c, 1, 58, 102
3, 103588, Note_off_c, 1, 58, 64
3, 103644, Control_c, 1, 64, 0
3, 103668, Note_off_c, 1, 43, 64
3, 103680, Note_on_c, 1, 56, 105
3, 103680, Note_on_c, 1, 48, 105
3, 103862, Note_off_c, 1, 56, 64
3, 103920, Note_on_c, 1, 55, 107
3, 104102, Note_off_c, 1, 55, 64
3, 104148, Note_off_c, 1, 48, 64
3, 104160, Note_on_c, 1, 49, 110
3, 104160, Note_on_c, 1, 53, 110
3, 104388, Note_off_c, 1, 53, 64
3, 104388, Note_off_c, 1, 49, 64
3, 104400, Note_on_c, 1, 53, 110
3, 104400, Note_on_c, 1, 46, 110
3, 104548, Note_off_c, 1, 53, 64
3, 104628, Note_off_c, 1, 46, 64
3, 105600, Note_on_c, 1, 48, 110
3, 105600, Note_on_c, 1, 53, 110
3, 105748, Note_off_c, 1, 53, 64
3, 105748, Note_off_c, 1, 48, 64
3, 105840, Note_on_c, 1, 48, 110
3, 105840, Note_on_c, 1, 52, 110
3, 105988, Note_off_c, 1, 52, 64
3, 105988, Note_off_c, 1, 48, 64
3, 106080, Note_on_c, 1, 53, 100
3, 106080, Note_on_c, 1, 41, 100
3, 106228, Note_off_c, 1, 41, 64
3, 106228, Note_off_c, 1, 53, 64
3, 106320, Note_on_c, 1, 36, 100
3, 106320, Note_on_c, 1, 48, 100
3, 106320, Control_c, 1, 64, 127
3, 106788, Note_off_c, 1, 48, 64
3, 106788, Note_off_c, 1, 36, 64
3, 106800, Note_on_c, 1, 47, 100
3, 106800, Note_on_c, 1, 35, 100
3, 106916, Control_c, 1, 64, 0
3, 106948, Note_off_c, 1, 35, 64
3, 106948, Note_off_c, 1, 47, 64
3, 107040, Note_on_c, 1, 36, 95
3, 107040, Note_on_c, 1, 48, 95
3, 107748, Note_off_c, 1, 48, 64
3, 107748, Note_off_c, 1, 36, 64
3, 107760, Note_on_c, 1, 37, 95
3, 107760, Note_on_c, 1, 49, 95
3, 107760, Control_c, 1, 64, 127
3, 108204, Control_c, 1, 64, 0
3, 108228, Note_off_c, 1, 49, 64
3, 108228, Note_off_c, 1, 37, 64
3, 108240, Note_on_c, 1, 38, 95
3, 108240, Note_on_c, 1, 50, 95
3, 108240, Control_c, 1, 64, 127
3, 108684, Control_c, 1, 64, 0
3, 108708, Note_off_c, 1, 50, 64
3, 108708, Note_off_c, 1, 38, 64
3, 108720, Note_on_c, 1, 39, 95
3, 108720, Note_on_c, 1, 51, 95
3, 108720, Control_c, 1, 64, 127
3, 109164, Control_c, 1, 64, 0
3, 109188, Note_off_c, 1, 51, 64
3, 109188, Note_off_c, 1, 39, 64
3, 109200, Note_on_c, 1, 44, 95
3, 109200, Note_on_c, 1, 32, 95
3, 109348, Note_off_c, 1, 32, 64
3, 109348, Note_off_c, 1, 44, 64
3, 109440, Note_on_c, 1, 49, 95
3, 109440, Note_on_c, 1, 37, 95
3, 109588, Note_off_c, 1, 37, 64
3, 109588, Note_off_c, 1, 49, 64
3, 109680, Note_on_c, 1, 39, 95
3, 109680, Note_on_c, 1, 51, 95
3, 109828, Note_off_c, 1, 51, 64
3, 109828, Note_off_c, 1, 39, 64
3, 109920, Note_on_c, 1, 56, 100
3, 109920, Control_c, 1, 64, 127
3, 109920, Note_on_c, 1, 44, 100
3, 110364, Control_c, 1, 64, 0
3, 110376, Note_off_c, 1, 44, 64
3, 110376, Note_off_c, 1, 56, 64
3, 110640, Note_on_c, 1, 60, 80
3, 110640, Note_on_c, 1, 56, 80
3, 110868, Note_off_c, 1, 56, 64
3, 110868, Note_off_c, 1, 60, 64
3, 110880, Note_on_c, 1, 58, 80
3, 110880, Note_on_c, 1, 61, 80
3, 111108, Note_off_c, 1, 61, 64
3, 111108, Note_off_c, 1, 58, 64
3, 111600, Note_on_c, 1, 56, 80
3, 111600, Note_on_c, 1, 60, 80
3, 111828, Note_off_c, 1, 60, 64
3, 111828, Note_off_c, 1, 56, 64
3, 111840, Note_on_c, 1, 61, 80
3, 111840, Note_on_c, 1, 58, 80
3, 111988, Note_off_c, 1, 58, 64
3, 111988, Note_off_c, 1, 61, 64
3, 112560, Note_on_c, 1, 32, 82
3, 112560, Note_on_c, 1, 44, 82
3, 112788, Note_off_c, 1, 44, 64
3, 112788, Note_off_c, 1, 32, 64
3, 112800, Note_on_c, 1, 34, 85
3, 112800, Note_on_c, 1, 46, 85
3, 113028, Note_off_c, 1, 46, 64
3, 113028, Note_off_c, 1, 34, 64
3, 113040, Note_on_c, 1, 48, 87
3, 113040, Note_on_c, 1, 36, 87
3, 113268, Note_off_c, 1, 36, 64
3, 113268, Note_off_c, 1, 48, 64
3, 113280, Note_on_c, 1, 49, 90
3, 113280, Note_on_c, 1, 37, 90
3, 113508, Note_off_c, 1, 37, 64
3, 113508, Note_off_c, 1, 49, 64
3, 113520, Note_on_c, 1, 50, 88
3, 113520, Note_on_c, 1, 38, 88
3, 113748, Note_off_c, 1, 38, 64
3, 113748, Note_off_c, 1, 50, 64
3, 113760, Note_on_c, 1, 51, 85
3, 113760, Note_on_c, 1, 39, 85
3, 113988, Note_off_c, 1, 39, 64
3, 113988, Note_off_c, 1, 51, 64
3, 114000, Note_on_c, 1, 40, 83
3, 114000, Note_on_c, 1, 52, 83
3, 114148, Note_off_c, 1, 52, 64
3, 114148, Note_off_c, 1, 40, 64
3, 114240, Note_on_c, 1, 41, 80
3, 114240, Note_on_c, 1, 53, 80
3, 114388, Note_off_c, 1, 53, 64
3, 114388, Note_off_c, 1, 41, 64
3, 114480, Note_on_c, 1, 56, 80
3, 114480, Note_on_c, 1, 53, 80
3, 114708, Note_off_c, 1, 53, 64
3, 114708, Note_off_c, 1, 56, 64
3, 114720, Note_on_c, 1, 58, 80
3, 114720, Note_on_c, 1, 55, 80
3, 114868, Note_off_c, 1, 55, 64
3, 114868, Note_off_c, 1, 58, 64
3, 115440, Note_on_c, 1, 53, 80
3, 115440, Note_on_c, 1, 56, 80
3, 115668, Note_off_c, 1, 56, 64
3, 115668, Note_off_c, 1, 53, 64
3, 115680, Note_on_c, 1, 55, 80
3, 115680, Note_on_c, 1, 58, 80
3, 115828, Note_off_c, 1, 58, 64
3, 115828, Note_off_c, 1, 55, 64
3, 116400, Note_on_c, 1, 53, 80
3, 116400, Note_on_c, 1, 41, 80
3, 116628, Note_off_c, 1, 41, 64
3, 116628, Note_off_c, 1, 53, 64
3, 116640, Note_on_c, 1, 55, 80
3, 116640, Note_on_c, 1, 43, 80
3, 116868, Note_off_c, 1, 43, 64
3, 116868, Note_off_c, 1, 55, 64
3, 116880, Note_on_c, 1, 56, 82
3, 116880, Note_on_c, 1, 44, 82
3, 117108, Note_off_c, 1, 44, 64
3, 117108, Note_off_c, 1, 56, 64
3, 117120, Note_on_c, 1, 46, 85
3, 117120, Note_on_c, 1, 58, 85
3, 117348, Note_off_c, 1, 58, 64
3, 117348, Note_off_c, 1, 46, 64
3, 117360, Note_on_c, 1, 59, 87
3, 117360, Note_on_c, 1, 47, 87
3, 117588, Note_off_c, 1, 47, 64
3, 117588, Note_off_c, 1, 59, 64
3, 117600, Note_on_c, 1, 60, 90
3, 117600, Note_on_c, 1, 48, 90
3, 118056, Note_off_c, 1, 48, 64
3, 118056, Note_off_c, 1, 60, 64
3, 118080, Note_on_c, 1, 44, 95
3, 118080, Note_on_c, 1, 56, 95
3, 118536, Note_off_c, 1, 56, 64
3, 118536, Note_off_c, 1, 44, 64
3, 118560, Note_on_c, 1, 46, 100
3, 118560, Control_c, 1, 64, 127
3, 118560, Note_on_c, 1, 43, 100
3, 118788, Note_off_c, 1, 46, 64
3, 118800, Note_on_c, 1, 58, 102
3, 118948, Note_off_c, 1, 58, 64
3, 119004, Control_c, 1, 64, 0
3, 119028, Note_off_c, 1, 43, 64
3, 119040, Note_on_c, 1, 56, 105
3, 119040, Note_on_c, 1, 48, 105
3, 119222, Note_off_c, 1, 56, 64
3, 119280, Note_on_c, 1, 55, 107
3, 119462, Note_off_c, 1, 55, 64
3, 119508, Note_off_c, 1, 48, 64
3, 119520, Note_on_c, 1, 49, 110
3, 119520, Note_on_c, 1, 53, 110
3, 119748, Note_off_c, 1, 53, 64
3, 119748, Note_off_c, 1, 49, 64
3, 119760, Note_on_c, 1, 53, 110
3, 119760, Note_on_c, 1, 46, 110
3, 119908, Note_off_c, 1, 46, 64
3, 119908, Note_off_c, 1, 53, 64
3, 120960, Note_on_c, 1, 48, 110
3, 120960, Note_on_c, 1, 53, 110
3, 121108, Note_off_c, 1, 53, 64
3, 121108, Note_off_c, 1, 48, 64
3, 121200, Note_on_c, 1, 48, 110
3, 121200, Note_on_c, 1, 52, 110
3, 121348, Note_off_c, 1, 52, 64
3, 121348, Note_off_c, 1, 48, 64
3, 121440, Note_on_c, 1, 41, 100
3, 121440, Note_on_c, 1, 53, 100
3, 121588, Note_off_c, 1, 53, 64
3, 121588, Note_off_c, 1, 41, 64
3, 121680, Control_c, 1, 64, 127
3, 121920, Note_on_c, 1, 37, 100
3, 122068, Note_off_c, 1, 37, 64
3, 122160, Note_on_c, 1, 53, 90
3, 122308, Note_off_c, 1, 53, 64
3, 122420, Control_c, 1, 64, 0
3, 122640, Note_on_c, 1, 56, 80
3, 122788, Note_off_c, 1, 56, 64
3, 123120, Note_on_c, 1, 53, 80
3, 123268, Note_off_c, 1, 53, 64
3, 123600, Note_on_c, 1, 56, 80
3, 123748, Note_off_c, 1, 56, 64
3, 124080, Note_on_c, 1, 60, 80
3, 124228, Note_off_c, 1, 60, 64
3, 124560, Note_on_c, 1, 75, 80
3, 124708, Note_off_c, 1, 75, 64
3, 125040, Note_on_c, 1, 84, 80
3, 125188, Note_off_c, 1, 84, 64
3, 125280, Note_on_c, 1, 85, 100
3, 125428, Note_off_c, 1, 85, 64
3, 125520, Control_c, 1, 64, 127
3, 125760, Note_on_c, 1, 37, 95
3, 125908, Note_off_c, 1, 37, 64
3, 126000, Note_on_c, 1, 53, 95
3, 126148, Note_off_c, 1, 53, 64
3, 126296, Control_c, 1, 64, 0
3, 126480, Note_on_c, 1, 56, 80
3, 126628, Note_off_c, 1, 56, 64
3, 126960, Note_on_c, 1, 53, 80
3, 127108, Note_off_c, 1, 53, 64
3, 127440, Note_on_c, 1, 56, 80
3, 127588, Note_off_c, 1, 56, 64
3, 127920, Note_on_c, 1, 65, 80
3, 128068, Note_off_c, 1, 65, 64
3, 128400, Note_on_c, 1, 77, 80
3, 128548, Note_off_c, 1, 77, 64
3, 128880, Note_on_c, 1, 89, 80
3, 129028, Note_off_c, 1, 89, 64
3, 129120, Note_on_c, 1, 90, 100
3, 129268, Note_off_c, 1, 90, 64
3, 129360, Control_c, 1, 64, 127
3, 129600, Note_on_c, 1, 42, 95
3, 129748, Note_off_c, 1, 42, 64
3, 129840, Note_on_c, 1, 58, 95
3, 129988, Note_off_c, 1, 58, 64
3, 130116, Control_c, 1, 64, 0
3, 130320, Note_on_c, 1, 61, 80
3, 130468, Note_off_c, 1, 61, 64
3, 130800, Note_on_c, 1, 58, 80
3, 130948, Note_off_c, 1, 58, 64
3, 131280, Note_on_c, 1, 61, 80
3, 131428, Note_off_c, 1, 61, 64
3, 131760, Note_on_c, 1, 65, 80
3, 131908, Note_off_c, 1, 65, 64
3, 132240, Note_on_c, 1, 80, 80
3, 132388, Note_off_c, 1, 80, 64
3, 132720, Note_on_c, 1, 89, 80
3, 132868, Note_off_c, 1, 89, 64
3, 132960, Note_on_c, 1, 90, 100
3, 133108, Note_off_c, 1, 90, 64
3, 133200, Control_c, 1, 64, 127
3, 133440, Note_on_c, 1, 42, 95
3, 133588, Note_off_c, 1, 42, 64
3, 133680, Note_on_c, 1, 58, 95
3, 133828, Note_off_c, 1, 58, 64
3, 133980, Control_c, 1, 64, 0
3, 134160, Note_on_c, 1, 61, 80
3, 134308, Note_off_c, 1, 61, 64
3, 134640, Note_on_c, 1, 58, 80
3, 134788, Note_off_c, 1, 58, 64
3, 135120, Note_on_c, 1, 61, 80
3, 135268, Note_off_c, 1, 61, 64
3, 135600, Note_on_c, 1, 53, 80
3, 135600, Note_on_c, 1, 62, 80
3, 135748, Note_off_c, 1, 62, 64
3, 135748, Note_off_c, 1, 53, 64
3, 136080, Note_on_c, 1, 82, 80
3, 136228, Note_off_c, 1, 82, 64
3, 136560, Note_on_c, 1, 86, 80
3, 136708, Note_off_c, 1, 86, 64
3, 136800, Note_on_c, 1, 87, 100
3, 136948, Note_off_c, 1, 87, 64
3, 137040, Control_c, 1, 64, 127
3, 137280, Note_on_c, 1, 39, 95
3, 137428, Note_off_c, 1, 39, 64
3, 137520, Note_on_c, 1, 54, 95
3, 137668, Note_off_c, 1, 54, 64
3, 137820, Control_c, 1, 64, 0
3, 138000, Note_on_c, 1, 44, 97
3, 138000, Note_on_c, 1, 36, 97
3, 138000, Note_on_c, 1, 48, 97
3, 138148, Note_off_c, 1, 48, 64
3, 138148, Note_off_c, 1, 36, 64
3, 138148, Note_off_c, 1, 44, 64
3, 138480, Control_c, 1, 64, 127
3, 138480, Note_on_c, 1, 37, 97
3, 138480, Note_on_c, 1, 49, 97
3, 138480, Note_on_c, 1, 44, 97
3, 138628, Note_off_c, 1, 44, 64
3, 138628, Note_off_c, 1, 49, 64
3, 138628, Note_off_c, 1, 37, 64
3, 138720, Note_on_c, 1, 37, 80
3, 138868, Note_off_c, 1, 37, 64
3, 138960, Note_on_c, 1, 53, 80
3, 139108, Note_off_c, 1, 53, 64
3, 139252, Control_c, 1, 64, 0
3, 139440, Note_on_c, 1, 56, 80
3, 139588, Note_off_c, 1, 56, 64
3, 139920, Note_on_c, 1, 53, 80
3, 140068, Note_off_c, 1, 53, 64
3, 140400, Note_on_c, 1, 56, 80
3, 140548, Note_off_c, 1, 56, 64
3, 140880, Note_on_c, 1, 60, 80
3, 141028, Note_off_c, 1, 60, 64
3, 141360, Note_on_c, 1, 75, 80
3, 141508, Note_off_c, 1, 75, 64
3, 141840, Note_on_c, 1, 84, 80
3, 141988, Note_off_c, 1, 84, 64
3, 142080, Note_on_c, 1, 85, 79
3, 142228, Note_off_c, 1, 85, 64
3, 142320, Control_c, 1, 64, 127
3, 142560, Note_on_c, 1, 37, 77
3, 142708, Note_off_c, 1, 37, 64
3, 142800, Note_on_c, 1, 53, 76
3, 142948, Note_off_c, 1, 53, 64
3, 143096, Control_c, 1, 64, 0
3, 143280, Note_on_c, 1, 56, 74
3, 143428, Note_off_c, 1, 56, 64
3, 143760, Note_on_c, 1, 53, 72
3, 143908, Note_off_c, 1, 53, 64
3, 144240, Note_on_c, 1, 56, 70
3, 144388, Note_off_c, 1, 56, 64
3, 144720, Note_on_c, 1, 60, 68
3, 144868, Note_off_c, 1, 60, 64
3, 145200, Note_on_c, 1, 75, 66
3, 145348, Note_off_c, 1, 75, 64
3, 145680, Note_on_c, 1, 84, 65
3, 145828, Note_off_c, 1, 84, 64
3, 146160, Note_on_c, 1, 85, 65
3, 146308, Note_off_c, 1, 85, 64
3, 148320, Note_on_c, 1, 53, 80
3, 148320, Note_on_c, 1, 41, 80
3, 148548, Note_off_c, 1, 41, 64
3, 148548, Note_off_c, 1, 53, 64
3, 148560, Note_on_c, 1, 55, 80
3, 148560, Note_on_c, 1, 43, 80
3, 148788, Note_off_c, 1, 43, 64
3, 148788, Note_off_c, 1, 55, 64
3, 148800, Note_on_c, 1, 56, 80
3, 148800, Note_on_c, 1, 44, 80
3, 149028, Note_off_c, 1, 44, 64
3, 149028, Note_off_c, 1, 56, 64
3, 149040, Note_on_c, 1, 58, 80
3, 149040, Note_on_c, 1, 46, 80
3, 149222, Note_off_c, 1, 46, 64
3, 149222, Note_off_c, 1, 58, 64
3, 149280, Note_on_c, 1, 47, 80
3, 149280, Note_on_c, 1, 59, 80
3, 149462, Note_off_c, 1, 59, 64
3, 149462, Note_off_c, 1, 47, 64
3, 149520, Note_on_c, 1, 47, 80
3, 149520, Note_on_c, 1, 59, 80
3, 149702, Note_off_c, 1, 59, 64
3, 149702, Note_off_c, 1, 47, 64
3, 149760, Note_on_c, 1, 60, 80
3, 149760, Control_c, 1, 64, 127
3, 149760, Note_on_c, 1, 48, 80
3, 150204, Control_c, 1, 64, 0
3, 150216, Note_off_c, 1, 48, 64
3, 150216, Note_off_c, 1, 60, 64
3, 150240, Control_c, 1, 64, 127
3, 150240, Note_on_c, 1, 48, 95
3, 150240, Note_on_c, 1, 36, 95
3, 150468, Note_off_c, 1, 36, 64
3, 150468, Note_off_c, 1, 48, 64
3, 150480, Note_on_c, 1, 52, 95
3, 150480, Note_on_c, 1, 40, 95
3, 150708, Note_off_c, 1, 40, 64
3, 150708, Note_off_c, 1, 52, 64
3, 150720, Note_on_c, 1, 55, 95
3, 150720, Note_on_c, 1, 43, 95
3, 150920, Control_c, 1, 64, 0
3, 150948, Note_off_c, 1, 43, 64
3, 150948, Note_off_c, 1, 55, 64
3, 150960, Note_on_c, 1, 60, 95
3, 150960, Note_on_c, 1, 48, 95
3, 151188, Note_off_c, 1, 48, 64
3, 151188, Note_off_c, 1, 60, 64
3, 151200, Note_on_c, 1, 43, 95
3, 151200, Note_on_c, 1, 55, 95
3, 151382, Note_off_c, 1, 55, 64
3, 151382, Note_off_c, 1, 43, 64
3, 151440, Note_on_c, 1, 43, 95
3, 151440, Note_on_c, 1, 31, 95
3, 151622, Note_off_c, 1, 31, 64
3, 151622, Note_off_c, 1, 43, 64
3, 151680, Note_on_c, 1, 48, 100
3, 151680, Control_c, 1, 64, 127
3, 151680, Note_on_c, 1, 36, 100
3, 152124, Control_c, 1, 64, 0
3, 152136, Note_off_c, 1, 36, 64
3, 152136, Note_off_c, 1, 48, 64
3, 152160, Note_on_c, 1, 53, 80
3, 152160, Note_on_c, 1, 41, 80
3, 152388, Note_off_c, 1, 41, 64
3, 152388, Note_off_c, 1, 53, 64
3, 152400, Note_on_c, 1, 55, 80
3, 152400, Note_on_c, 1, 43, 80
3, 152628, Note_off_c, 1, 43, 64
3, 152628, Note_off_c, 1, 55, 64
3, 152640, Note_on_c, 1, 44, 80
3, 152640, Note_on_c, 1, 56, 80
3, 152868, Note_off_c, 1, 56, 64
3, 152868, Note_off_c, 1, 44, 64
3, 152880, Note_on_c, 1, 46, 80
3, 152880, Note_on_c, 1, 58, 80
3, 153062, Note_off_c, 1, 58, 64
3, 153062, Note_off_c, 1, 46, 64
3, 153120, Note_on_c, 1, 47, 80
3, 153120, Note_on_c, 1, 59, 80
3, 153302, Note_off_c, 1, 59, 64
3, 153302, Note_off_c, 1, 47, 64
3, 153360, Note_on_c, 1, 47, 80
3, 153360, Note_on_c, 1, 59, 80
3, 153542, Note_off_c, 1, 59, 64
3, 153542, Note_off_c, 1, 47, 64
3, 153600, Note_on_c, 1, 60, 80
3, 153600, Control_c, 1, 64, 127
3, 153600, Note_on_c, 1, 48, 80
3, 154044, Control_c, 1, 64, 0
3, 154056, Note_off_c, 1, 48, 64
3, 154056, Note_off_c, 1, 60, 64
3, 154080, Control_c, 1, 64, 127
3, 154080, Note_on_c, 1, 48, 95
3, 154080, Note_on_c, 1, 36, 95
3, 154308, Note_off_c, 1, 36, 64
3, 154308, Note_off_c, 1, 48, 64
3, 154320, Note_on_c, 1, 52, 95
3, 154320, Note_on_c, 1, 40, 95
3, 154548, Note_off_c, 1, 40, 64
3, 154548, Note_off_c, 1, 52, 64
3, 154560, Note_on_c, 1, 55, 95
3, 154560, Note_on_c, 1, 43, 95
3, 154772, Control_c, 1, 64, 0
3, 154788, Note_off_c, 1, 43, 64
3, 154788, Note_off_c, 1, 55, 64
3, 154800, Note_on_c, 1, 60, 95
3, 154800, Note_on_c, 1, 48, 95
3, 155028, Note_off_c, 1, 48, 64
3, 155028, Note_off_c, 1, 60, 64
3, 155040, Note_on_c, 1, 43, 95
3, 155040, Note_on_c, 1, 55, 95
3, 155222, Note_off_c, 1, 55, 64
3, 155222, Note_off_c, 1, 43, 64
3, 155280, Note_on_c, 1, 43, 95
3, 155280, Note_on_c, 1, 31, 95
3, 155462, Note_off_c, 1, 31, 64
3, 155462, Note_off_c, 1, 43, 64
3, 155520, Note_on_c, 1, 48, 100
3, 155520, Control_c, 1, 64, 127
3, 155520, Note_on_c, 1, 36, 100
3, 155964, Control_c, 1, 64, 0
3, 155976, Note_off_c, 1, 36, 64
3, 155976, Note_off_c, 1, 48, 64
3, 156000, Note_on_c, 1, 36, 95
3, 156000, Note_on_c, 1, 48, 95
3, 156148, Note_off_c, 1, 48, 64
3, 156148, Note_off_c, 1, 36, 64
3, 156240, Note_on_c, 1, 47, 95
3, 156240, Note_on_c, 1, 35, 95
3, 156388, Note_off_c, 1, 35, 64
3, 156388, Note_off_c, 1, 47, 64
3, 156480, Note_on_c, 1, 36, 95
3, 156480, Note_on_c, 1, 48, 95
3, 157188, Note_off_c, 1, 48, 64
3, 157188, Note_off_c, 1, 36, 64
3, 157196, Control_c, 1, 64, 127
3, 157200, Note_on_c, 1, 37, 95
3, 157200, Note_on_c, 1, 49, 95
3, 157640, Control_c, 1, 64, 0
3, 157668, Note_off_c, 1, 49, 64
3, 157668, Note_off_c, 1, 37, 64
3, 157676, Control_c, 1, 64, 127
3, 157680, Note_on_c, 1, 38, 95
3, 157680, Note_on_c, 1, 50, 95
3, 158120, Control_c, 1, 64, 0
3, 158148, Note_off_c, 1, 50, 64
3, 158148, Note_off_c, 1, 38, 64
3, 158156, Control_c, 1, 64, 127
3, 158160, Note_on_c, 1, 39, 95
3, 158160, Note_on_c, 1, 51, 95
3, 158600, Control_c, 1, 64, 0
3, 158628, Note_off_c, 1, 51, 64
3, 158628, Note_off_c, 1, 39, 64
3, 158640, Note_on_c, 1, 32, 95
3, 158640, Note_on_c, 1, 44, 95
3, 158868, Note_off_c, 1, 44, 64
3, 158868, Note_off_c, 1, 32, 64
3, 158880, Note_on_c, 1, 37, 95
3, 158880, Note_on_c, 1, 49, 95
3, 159028, Note_off_c, 1, 49, 64
3, 159028, Note_off_c, 1, 37, 64
3, 159120, Note_on_c, 1, 39, 95
3, 159120, Note_on_c, 1, 51, 95
3, 159268, Note_off_c, 1, 51, 64
3, 159268, Note_off_c, 1, 39, 64
3, 159360, Note_on_c, 1, 44, 100
3, 159360, Control_c, 1, 64, 127
3, 159360, Note_on_c, 1, 56, 100
3, 159804, Control_c, 1, 64, 0
3, 159816, Note_off_c, 1, 56, 64
3, 159816, Note_off_c, 1, 44, 64
3, 160080, Note_on_c, 1, 60, 80
3, 160080, Note_on_c, 1, 56, 80
3, 160308, Note_off_c, 1, 56, 64
3, 160308, Note_off_c, 1, 60, 64
3, 160320, Note_on_c, 1, 61, 80
3, 160320, Note_on_c, 1, 58, 80
3, 160468, Note_off_c, 1, 58, 64
3, 160468, Note_off_c, 1, 61, 64
3, 161040, Note_on_c, 1, 56, 80
3, 161040, Note_on_c, 1, 60, 80
3, 161268, Note_off_c, 1, 60, 64
3, 161268, Note_off_c, 1, 56, 64
3, 161280, Note_on_c, 1, 61, 80
3, 161280, Note_on_c, 1, 58, 80
3, 161428, Note_off_c, 1, 58, 64
3, 161428, Note_off_c, 1, 61, 64
3, 162000, Note_on_c, 1, 32, 80
3, 162000, Note_on_c, 1, 44, 80
3, 162228, Note_off_c, 1, 44, 64
3, 162228, Note_off_c, 1, 32, 64
3, 162240, Note_on_c, 1, 34, 80
3, 162240, Note_on_c, 1, 46, 80
3, 162468, Note_off_c, 1, 46, 64
3, 162468, Note_off_c, 1, 34, 64
3, 162480, Note_on_c, 1, 48, 80
3, 162480, Note_on_c, 1, 36, 80
3, 162708, Note_off_c, 1, 36, 64
3, 162708, Note_off_c, 1, 48, 64
3, 162720, Note_on_c, 1, 49, 80
3, 162720, Note_on_c, 1, 37, 80
3, 162948, Note_off_c, 1, 37, 64
3, 162948, Note_off_c, 1, 49, 64
3, 162960, Note_on_c, 1, 50, 80
3, 162960, Note_on_c, 1, 38, 80
3, 163188, Note_off_c, 1, 38, 64
3, 163188, Note_off_c, 1, 50, 64
3, 163200, Note_on_c, 1, 51, 80
3, 163200, Note_on_c, 1, 39, 80
3, 163428, Note_off_c, 1, 39, 64
3, 163428, Note_off_c, 1, 51, 64
3, 163440, Note_on_c, 1, 40, 80
3, 163440, Note_on_c, 1, 52, 80
3, 163668, Note_off_c, 1, 52, 64
3, 163668, Note_off_c, 1, 40, 64
3, 163680, Note_on_c, 1, 41, 80
3, 163680, Note_on_c, 1, 53, 80
3, 163828, Note_off_c, 1, 53, 64
3, 163828, Note_off_c, 1, 41, 64
3, 163920, Note_on_c, 1, 53, 80
3, 163920, Note_on_c, 1, 56, 80
3, 164148, Note_off_c, 1, 56, 64
3, 164148, Note_off_c, 1, 53, 64
3, 164160, Note_on_c, 1, 55, 80
3, 164160, Note_on_c, 1, 58, 80
3, 164308, Note_off_c, 1, 58, 64
3, 164308, Note_off_c, 1, 55, 64
3, 164880, Note_on_c, 1, 53, 80
3, 164880, Note_on_c, 1, 56, 80
3, 165108, Note_off_c, 1, 56, 64
3, 165108, Note_off_c, 1, 53, 64
3, 165120, Note_on_c, 1, 58, 80
3, 165120, Note_on_c, 1, 55, 80
3, 165268, Note_off_c, 1, 55, 64
3, 165268, Note_off_c, 1, 58, 64
3, 165840, Note_on_c, 1, 53, 80
3, 165840, Note_on_c, 1, 41, 80
3, 166068, Note_off_c, 1, 41, 64
3, 166068, Note_off_c, 1, 53, 64
3, 166080, Note_on_c, 1, 55, 80
3, 166080, Note_on_c, 1, 43, 80
3, 166308, Note_off_c, 1, 43, 64
3, 166308, Note_off_c, 1, 55, 64
3, 166320, Note_on_c, 1, 56, 80
3, 166320, Note_on_c, 1, 44, 80
3, 166548, Note_off_c, 1, 44, 64
3, 166548, Note_off_c, 1, 56, 64
3, 166560, Note_on_c, 1, 58, 80
3, 166560, Note_on_c, 1, 46, 80
3, 166788, Note_off_c, 1, 46, 64
3, 166788, Note_off_c, 1, 58, 64
3, 166800, Note_on_c, 1, 59, 80
3, 166800, Note_on_c, 1, 47, 80
3, 167028, Note_off_c, 1, 47, 64
3, 167028, Note_off_c, 1, 59, 64
3, 167040, Note_on_c, 1, 60, 80
3, 167040, Control_c, 1, 64, 127
3, 167040, Note_on_c, 1, 48, 80
3, 167484, Control_c, 1, 64, 0
3, 167496, Note_off_c, 1, 48, 64
3, 167496, Note_off_c, 1, 60, 64
3, 167520, Note_on_c, 1, 44, 80
3, 167520, Note_on_c, 1, 56, 80
3, 167976, Note_off_c, 1, 56, 64
3, 167976, Note_off_c, 1, 44, 64
3, 168000, Note_on_c, 1, 46, 80
3, 168000, Control_c, 1, 64, 127
3, 168000, Note_on_c, 1, 42, 80
3, 168228, Note_off_c, 1, 46, 64
3, 168240, Note_on_c, 1, 58, 80
3, 168422, Note_off_c, 1, 58, 64
3, 168444, Control_c, 1, 64, 0
3, 168468, Note_off_c, 1, 42, 64
3, 168480, Note_on_c, 1, 56, 80
3, 168480, Note_on_c, 1, 48, 80
3, 168662, Note_off_c, 1, 56, 64
3, 168720, Note_on_c, 1, 55, 80
3, 168902, Note_off_c, 1, 55, 64
3, 168948, Note_off_c, 1, 48, 64
3, 168960, Note_on_c, 1, 49, 110
3, 168960, Note_on_c, 1, 53, 110
3, 169188, Note_off_c, 1, 53, 64
3, 169188, Note_off_c, 1, 49, 64
3, 169200, Note_on_c, 1, 53, 110
3, 169200, Note_on_c, 1, 46, 110
3, 169348, Note_off_c, 1, 46, 64
3, 169348, Note_off_c, 1, 53, 64
3, 170400, Note_on_c, 1, 48, 110
3, 170400, Note_on_c, 1, 53, 110
3, 170548, Note_off_c, 1, 53, 64
3, 170548, Note_off_c, 1, 48, 64
3, 170640, Note_on_c, 1, 48, 110
3, 170640, Note_on_c, 1, 52, 110
3, 170788, Note_off_c, 1, 52, 64
3, 170788, Note_off_c, 1, 48, 64
3, 170880, Note_on_c, 1, 53, 100
3, 170880, Note_on_c, 1, 41, 100
3, 171028, Note_off_c, 1, 41, 64
3, 171028, Note_off_c, 1, 53, 64
3, 171120, Note_on_c, 1, 36, 100
3, 171120, Note_on_c, 1, 48, 100
3, 171120, Control_c, 1, 64, 127
3, 171588, Note_off_c, 1, 48, 64
3, 171588, Note_off_c, 1, 36, 64
3, 171600, Note_on_c, 1, 47, 100
3, 171600, Note_on_c, 1, 35, 100
3, 171736, Control_c, 1, 64, 0
3, 171748, Note_off_c, 1, 35, 64
3, 171748, Note_off_c, 1, 47, 64
3, 171840, Note_on_c, 1, 36, 95
3, 171840, Note_on_c, 1, 48, 95
3, 172548, Note_off_c, 1, 48, 64
3, 172548, Note_off_c, 1, 36, 64
3, 172560, Note_on_c, 1, 37, 95
3, 172560, Note_on_c, 1, 49, 95
3, 172560, Control_c, 1, 64, 127
3, 173004, Control_c, 1, 64, 0
3, 173028, Note_off_c, 1, 49, 64
3, 173028, Note_off_c, 1, 37, 64
3, 173040, Note_on_c, 1, 38, 95
3, 173040, Note_on_c, 1, 50, 95
3, 173040, Control_c, 1, 64, 127
3, 173484, Control_c, 1, 64, 0
3, 173508, Note_off_c, 1, 50, 64
3, 173508, Note_off_c, 1, 38, 64
3, 173520, Note_on_c, 1, 39, 95
3, 173520, Note_on_c, 1, 51, 95
3, 173520, Control_c, 1, 64, 127
3, 173964, Control_c, 1, 64, 0
3, 173988, Note_off_c, 1, 51, 64
3, 173988, Note_off_c, 1, 39, 64
3, 174000, Note_on_c, 1, 32, 95
3, 174000, Note_on_c, 1, 44, 95
3, 174228, Note_off_c, 1, 44, 64
3, 174228, Note_off_c, 1, 32, 64
3, 174240, Note_on_c, 1, 37, 95
3, 174240, Note_on_c, 1, 49, 95
3, 174388, Note_off_c, 1, 49, 64
3, 174388, Note_off_c, 1, 37, 64
3, 174480, Note_on_c, 1, 39, 95
3, 174480, Note_on_c, 1, 51, 95
3, 174628, Note_off_c, 1, 51, 64
3, 174628, Note_off_c, 1, 39, 64
3, 174720, Note_on_c, 1, 44, 100
3, 174720, Control_c, 1, 64, 127
3, 174720, Note_on_c, 1, 56, 100
3, 175164, Control_c, 1, 64, 0
3, 175176, Note_off_c, 1, 56, 64
3, 175176, Note_off_c, 1, 44, 64
3, 175440, Note_on_c, 1, 60, 80
3, 175440, Note_on_c, 1, 56, 80
3, 175668, Note_off_c, 1, 56, 64
3, 175668, Note_off_c, 1, 60, 64
3, 175680, Note_on_c, 1, 61, 80
3, 175680, Note_on_c, 1, 58, 80
3, 175828, Note_off_c, 1, 58, 64
3, 175828, Note_off_c, 1, 61, 64
3, 176400, Note_on_c, 1, 56, 80
3, 176400, Note_on_c, 1, 60, 80
3, 176628, Note_off_c, 1, 60, 64
3, 176628, Note_off_c, 1, 56, 64
3, 176640, Note_on_c, 1, 61, 80
3, 176640, Note_on_c, 1, 58, 80
3, 176788, Note_off_c, 1, 58, 64
3, 176788, Note_off_c, 1, 61, 64
3, 177360, Note_on_c, 1, 32, 80
3, 177360, Note_on_c, 1, 44, 80
3, 177588, Note_off_c, 1, 44, 64
3, 177588, Note_off_c, 1, 32, 64
3, 177600, Note_on_c, 1, 34, 80
3, 177600, Note_on_c, 1, 46, 80
3, 177828, Note_off_c, 1, 46, 64
3, 177828, Note_off_c, 1, 34, 64
3, 177840, Note_on_c, 1, 48, 80
3, 177840, Note_on_c, 1, 36, 80
3, 178068, Note_off_c, 1, 36, 64
3, 178068, Note_off_c, 1, 48, 64
3, 178080, Note_on_c, 1, 49, 80
3, 178080, Note_on_c, 1, 37, 80
3, 178308, Note_off_c, 1, 37, 64
3, 178308, Note_off_c, 1, 49, 64
3, 178320, Note_on_c, 1, 50, 80
3, 178320, Note_on_c, 1, 38, 80
3, 178548, Note_off_c, 1, 38, 64
3, 178548, Note_off_c, 1, 50, 64
3, 178560, Note_on_c, 1, 51, 80
3, 178560, Note_on_c, 1, 39, 80
3, 178788, Note_off_c, 1, 39, 64
3, 178788, Note_off_c, 1, 51, 64
3, 178800, Note_on_c, 1, 40, 80
3, 178800, Note_on_c, 1, 52, 80
3, 179028, Note_off_c, 1, 52, 64
3, 179028, Note_off_c, 1, 40, 64
3, 179040, Note_on_c, 1, 53, 80
3, 179040, Note_on_c, 1, 41, 80
3, 179268, Note_off_c, 1, 41, 64
3, 179268, Note_off_c, 1, 53, 64
3, 179280, Note_on_c, 1, 53, 80
3, 179280, Note_on_c, 1, 56, 80
3, 179508, Note_off_c, 1, 56, 64
3, 179508, Note_off_c, 1, 53, 64
3, 179520, Note_on_c, 1, 55, 80
3, 179520, Note_on_c, 1, 58, 80
3, 179668, Note_off_c, 1, 58, 64
3, 179668, Note_off_c, 1, 55, 64
3, 180240, Note_on_c, 1, 53, 80
3, 180240, Note_on_c, 1, 56, 80
3, 180468, Note_off_c, 1, 56, 64
3, 180468, Note_off_c, 1, 53, 64
3, 180480, Note_on_c, 1, 58, 80
3, 180480, Note_on_c, 1, 55, 80
3, 180628, Note_off_c, 1, 55, 64
3, 180628, Note_off_c, 1, 58, 64
3, 181200, Note_on_c, 1, 53, 80
3, 181200, Note_on_c, 1, 41, 80
3, 181428, Note_off_c, 1, 41, 64
3, 181428, Note_off_c, 1, 53, 64
3, 181440, Note_on_c, 1, 55, 80
3, 181440, Note_on_c, 1, 43, 80
3, 181668, Note_off_c, 1, 43, 64
3, 181668, Note_off_c, 1, 55, 64
3, 181680, Note_on_c, 1, 56, 80
3, 181680, Note_on_c, 1, 44, 80
3, 181908, Note_off_c, 1, 44, 64
3, 181908, Note_off_c, 1, 56, 64
3, 181920, Note_on_c, 1, 58, 80
3, 181920, Note_on_c, 1, 46, 80
3, 182148, Note_off_c, 1, 46, 64
3, 182148, Note_off_c, 1, 58, 64
3, 182160, Note_on_c, 1, 59, 80
3, 182160, Note_on_c, 1, 47, 80
3, 182388, Note_off_c, 1, 47, 64
3, 182388, Note_off_c, 1, 59, 64
3, 182400, Note_on_c, 1, 60, 80
3, 182400, Control_c, 1, 64, 127
3, 182400, Note_on_c, 1, 48, 80
3, 182844, Control_c, 1, 64, 0
3, 182856, Note_off_c, 1, 48, 64
3, 182856, Note_off_c, 1, 60, 64
3, 182880, Note_on_c, 1, 44, 80
3, 182880, Note_on_c, 1, 56, 80
3, 183336, Note_off_c, 1, 56, 64
3, 183336, Note_off_c, 1, 44, 64
3, 183360, Note_on_c, 1, 46, 80
3, 183360, Control_c, 1, 64, 127
3, 183360, Note_on_c, 1, 42, 80
3, 183588, Note_off_c, 1, 46, 64
3, 183600, Note_on_c, 1, 58, 80
3, 183782, Note_off_c, 1, 58, 64
3, 183804, Control_c, 1, 64, 0
3, 183828, Note_off_c, 1, 42, 64
3, 183840, Note_on_c, 1, 56, 80
3, 183840, Note_on_c, 1, 48, 80
3, 184022, Note_off_c, 1, 56, 64
3, 184080, Note_on_c, 1, 55, 80
3, 184262, Note_off_c, 1, 55, 64
3, 184308, Note_off_c, 1, 48, 64
3, 184320, Note_on_c, 1, 49, 110
3, 184320, Note_on_c, 1, 53, 110
3, 184548, Note_off_c, 1, 53, 64
3, 184548, Note_off_c, 1, 49, 64
3, 184560, Note_on_c, 1, 53, 110
3, 184560, Note_on_c, 1, 46, 110
3, 184708, Note_off_c, 1, 46, 64
3, 184708, Note_off_c, 1, 53, 64
3, 185760, Note_on_c, 1, 48, 110
3, 185760, Note_on_c, 1, 53, 110
3, 185908, Note_off_c, 1, 53, 64
3, 185908, Note_off_c, 1, 48, 64
3, 186000, Note_on_c, 1, 48, 110
3, 186000, Note_on_c, 1, 52, 110
3, 186148, Note_off_c, 1, 52, 64
3, 186148, Note_off_c, 1, 48, 64
3, 186240, Note_on_c, 1, 41, 110
3, 186240, Note_on_c, 1, 53, 110
3, 186388, Note_off_c, 1, 53, 64
3, 186388, Note_off_c, 1, 41, 64
3, 186720, Note_on_c, 1, 53, 95
3, 186720, Control_c, 1, 64, 127
3, 186720, Note_on_c, 1, 48, 95
3, 186720, Note_on_c, 1, 41, 95
3, 187164, Control_c, 1, 64, 0
3, 187176, Note_off_c, 1, 41, 64
3, 187176, Note_off_c, 1, 48, 64
3, 187176, Note_off_c, 1, 53, 64
3, 187680, Note_on_c, 1, 52, 95
3, 187680, Control_c, 1, 64, 127
3, 187680, Note_on_c, 1, 48, 95
3, 187680, Note_on_c, 1, 40, 95
3, 188124, Control_c, 1, 64, 0
3, 188136, Note_off_c, 1, 40, 64
3, 188136, Note_off_c, 1, 48, 64
3, 188136, Note_off_c, 1, 52, 64
3, 188640, Note_on_c, 1, 53, 95
3, 188640, Control_c, 1, 64, 127
3, 188640, Note_on_c, 1, 48, 95
3, 188640, Note_on_c, 1, 41, 95
3, 189084, Control_c, 1, 64, 0
3, 189096, Note_off_c, 1, 41, 64
3, 189096, Note_off_c, 1, 48, 64
3, 189096, Note_off_c, 1, 53, 64
3, 189600, Note_on_c, 1, 34, 95
3, 189600, Control_c, 1, 64, 127
3, 189600, Note_on_c, 1, 46, 95
3, 190044, Control_c, 1, 64, 0
3, 190056, Note_off_c, 1, 46, 64
3, 190056, Note_off_c, 1, 34, 64
3, 190560, Note_on_c, 1, 48, 88
3, 190560, Control_c, 1, 64, 127
3, 190560, Note_on_c, 1, 36, 88
3, 191004, Control_c, 1, 64, 0
3, 191016, Note_off_c, 1, 36, 64
3, 191016, Note_off_c, 1, 48, 64
3, 191520, Note_on_c, 1, 36, 80
3, 191520, Control_c, 1, 64, 127
3, 191520, Note_on_c, 1, 48, 80
3, 191964, Control_c, 1, 64, 0
3, 191976, Note_off_c, 1, 48, 64
3, 191976, Note_off_c, 1, 36, 64
3, 192000, Control_c, 1, 64, 127
3, 192000, Note_on_c, 1, 29, 80
3, 192114, Note_off_c, 1, 29, 64
3, 192120, Note_on_c, 1, 36, 80
3, 192234, Note_off_c, 1, 36, 64
3, 192240, Note_on_c, 1, 33, 80
3, 192354, Note_off_c, 1, 33, 64
3, 192360, Note_on_c, 1, 41, 80
3, 192474, Note_off_c, 1, 41, 64
3, 192480, Note_on_c, 1, 36, 80
3, 192594, Note_off_c, 1, 36, 64
3, 192600, Note_on_c, 1, 45, 80
3, 192714, Note_off_c, 1, 45, 64
3, 192720, Note_on_c, 1, 41, 80
3, 192834, Note_off_c, 1, 41, 64
3, 192840, Note_on_c, 1, 48, 80
3, 192954, Note_off_c, 1, 48, 64
3, 192960, Note_on_c, 1, 45, 80
3, 193074, Note_off_c, 1, 45, 64
3, 193080, Note_on_c, 1, 53, 80
3, 193194, Note_off_c, 1, 53, 64
3, 193200, Note_on_c, 1, 48, 80
3, 193314, Note_off_c, 1, 48, 64
3, 193320, Note_on_c, 1, 57, 80
3, 193434, Note_off_c, 1, 57, 64
3, 193440, Note_on_c, 1, 53, 80
3, 193554, Note_off_c, 1, 53, 64
3, 193560, Note_on_c, 1, 60, 80
3, 193674, Note_off_c, 1, 60, 64
3, 193680, Note_on_c, 1, 57, 80
3, 193794, Note_off_c, 1, 57, 64
3, 193800, Note_on_c, 1, 65, 80
3, 193920, Control_c, 1, 10, 64
3, 193920, Control_c, 1, 91, 0
3, 193920, Control_c, 1, 93, 0
3, 194208, Control_c, 1, 64, 0
3, 194262, Note_off_c, 1, 65, 64
3, 194400, Control_c, 1, 93, 0
3, 194400, Control_c, 1, 91, 8
3, 194400, Control_c, 1, 10, 56
3, 194400, Note_on_c, 1, 46, 80
3, 194400, Note_on_c, 1, 34, 80
3, 194404, Control_c, 1, 64, 127
3, 194589, Note_off_c, 1, 34, 64
3, 194589, Note_off_c, 1, 46, 64
3, 194610, Note_on_c, 1, 46, 80
3, 194610, Note_on_c, 1, 34, 80
3, 194637, Note_off_c, 1, 34, 64
3, 194637, Note_off_c, 1, 46, 64
3, 194640, Note_on_c, 1, 34, 80
3, 194640, Note_on_c, 1, 46, 80
3, 194748, Note_off_c, 1, 46, 64
3, 194748, Note_off_c, 1, 34, 64
3, 194760, Note_on_c, 1, 34, 80
3, 194760, Note_on_c, 1, 46, 80
3, 194780, Control_c, 1, 64, 0
3, 194828, Control_c, 1, 64, 127
3, 194868, Note_off_c, 1, 46, 64
3, 194868, Note_off_c, 1, 34, 64
3, 194880, Note_on_c, 1, 46, 80
3, 194880, Note_on_c, 1, 34, 80
3, 194984, Control_c, 1, 64, 0
3, 195000, Control_c, 1, 64, 127
3, 195184, Control_c, 1, 64, 0
3, 195312, Note_off_c, 1, 34, 64
3, 195312, Note_off_c, 1, 46, 64
3, 195360, Note_on_c, 1, 47, 80
3, 195360, Control_c, 1, 64, 127
3, 195360, Note_on_c, 1, 35, 80
3, 195576, Note_off_c, 1, 35, 64
3, 195576, Note_off_c, 1, 47, 64
3, 195600, Note_on_c, 1, 52, 80
3, 195600, Note_on_c, 1, 40, 80
3, 195676, Control_c, 1, 64, 0
3, 195720, Control_c, 1, 64, 127
3, 195816, Note_off_c, 1, 40, 64
3, 195816, Note_off_c, 1, 52, 64
3, 195840, Note_on_c, 1, 54, 80
3, 195840, Note_on_c, 1, 42, 80
3, 195960, Control_c, 1, 64, 0
3, 195984, Control_c, 1, 64, 127
3, 196200, Control_c, 1, 64, 0
3, 196208, Control_c, 1, 64, 127
3, 196272, Note_off_c, 1, 42, 64
3, 196272, Note_off_c, 1, 54, 64
3, 196320, Note_on_c, 1, 43, 80
3, 196320, Note_on_c, 1, 55, 80
3, 196360, Control_c, 1, 64, 0
3, 196384, Control_c, 1, 64, 127
3, 196440, Note_off_c, 1, 55, 64
3, 196440, Note_off_c, 1, 43, 64
3, 196440, Note_on_c, 1, 44, 80
3, 196440, Note_on_c, 1, 56, 80
3, 196512, Note_off_c, 1, 56, 64
3, 196512, Note_off_c, 1, 44, 64
3, 196552, Control_c, 1, 64, 0
3, 196560, Note_on_c, 1, 37, 80
3, 196560, Control_c, 1, 64, 127
3, 196560, Note_on_c, 1, 49, 80
3, 196724, Control_c, 1, 64, 0
3, 196776, Note_off_c, 1, 49, 64
3, 196776, Note_off_c, 1, 37, 64
3, 196800, Note_on_c, 1, 51, 80
3, 196800, Note_on_c, 1, 39, 80
3, 197016, Note_off_c, 1, 39, 64
3, 197016, Note_off_c, 1, 51, 64
3, 197040, Note_on_c, 1, 39, 80
3, 197256, Note_off_c, 1, 39, 64
3, 197280, Note_on_c, 1, 39, 80
3, 197280, Control_c, 1, 64, 127
3, 197327, Note_off_c, 1, 39, 64
3, 197328, Note_on_c, 1, 43, 80
3, 197375, Note_off_c, 1, 43, 64
3, 197376, Note_on_c, 1, 46, 80
3, 197423, Note_off_c, 1, 46, 64
3, 197424, Note_on_c, 1, 49, 80
3, 197471, Note_off_c, 1, 49, 64
3, 197472, Note_on_c, 1, 51, 80
3, 197519, Note_off_c, 1, 51, 64
3, 198320, Control_c, 1, 64, 0
3, 198720, Note_on_c, 1, 59, 80
3, 198720, Note_on_c, 1, 56, 80
3, 198828, Note_off_c, 1, 56, 64
3, 198828, Note_off_c, 1, 59, 64
3, 198836, Control_c, 1, 64, 127
3, 198840, Note_on_c, 1, 40, 80
3, 198840, Note_on_c, 1, 52, 80
3, 198936, Note_off_c, 1, 52, 64
3, 198936, Note_off_c, 1, 40, 64
3, 198960, Note_on_c, 1, 49, 80
3, 198960, Note_on_c, 1, 37, 80
3, 198964, Control_c, 1, 64, 0
3, 198980, Control_c, 1, 64, 127
3, 199056, Note_off_c, 1, 37, 64
3, 199056, Note_off_c, 1, 49, 64
3, 199076, Control_c, 1, 64, 0
3, 199080, Note_on_c, 1, 47, 80
3, 199080, Note_on_c, 1, 35, 80
3, 199092, Control_c, 1, 64, 127
3, 199176, Note_off_c, 1, 35, 64
3, 199176, Note_off_c, 1, 47, 64
3, 199200, Note_on_c, 1, 47, 80
3, 199200, Note_on_c, 1, 51, 80
3, 199200, Note_on_c, 1, 54, 80
3, 199200, Note_on_c, 1, 57, 80
3, 199660, Control_c, 1, 64, 0
3, 199680, Control_c, 1, 64, 127
3, 200141, Note_off_c, 1, 57, 64
3, 200141, Note_off_c, 1, 54, 64
3, 200141, Note_off_c, 1, 51, 64
3, 200141, Note_off_c, 1, 47, 64
3, 200160, Note_on_c, 1, 54, 80
3, 200160, Note_on_c, 1, 47, 80
3, 200160, Note_on_c, 1, 51, 80
3, 200160, Note_on_c, 1, 59, 80
3, 200244, Control_c, 1, 64, 0
3, 200272, Control_c, 1, 64, 127
3, 200884, Control_c, 1, 64, 0
3, 201101, Note_off_c, 1, 59, 64
3, 201101, Note_off_c, 1, 51, 64
3, 201101, Note_off_c, 1, 47, 64
3, 201101, Note_off_c, 1, 54, 64
3, 201120, Note_on_c, 1, 56, 80
3, 201120, Note_on_c, 1, 52, 80
3, 201120, Note_on_c, 1, 59, 80
3, 201336, Note_off_c, 1, 59, 64
3, 201336, Note_off_c, 1, 52, 64
3, 201336, Note_off_c, 1, 56, 64
3, 201360, Note_on_c, 1, 49, 80
3, 201360, Note_on_c, 1, 58, 80
3, 201360, Note_on_c, 1, 52, 80
3, 201360, Note_on_c, 1, 55, 80
3, 201576, Note_off_c, 1, 55, 64
3, 201576, Note_off_c, 1, 52, 64
3, 201576, Note_off_c, 1, 58, 64
3, 201576, Note_off_c, 1, 49, 64
3, 201600, Note_on_c, 1, 50, 80
3, 201600, Note_on_c, 1, 53, 80
3, 201600, Note_on_c, 1, 56, 80
3, 201600, Note_on_c, 1, 59, 80
3, 201816, Note_off_c, 1, 59, 64
3, 201816, Note_off_c, 1, 56, 64
3, 201816, Note_off_c, 1, 53, 64
3, 201816, Note_off_c, 1, 50, 64
3, 202560, Note_on_c, 1, 51, 70
3, 202614, Note_off_c, 1, 51, 64
3, 202620, Note_on_c, 1, 51, 70
3, 202674, Note_off_c, 1, 51, 64
3, 202680, Note_on_c, 1, 51, 70
3, 202734, Note_off_c, 1, 51, 64
3, 202740, Note_on_c, 1, 51, 70
3, 202794, Note_off_c, 1, 51, 64
3, 202800, Note_on_c, 1, 51, 70
3, 202854, Note_off_c, 1, 51, 64
3, 202860, Note_on_c, 1, 51, 70
3, 202914, Note_off_c, 1, 51, 64
3, 202920, Note_on_c, 1, 51, 70
3, 202920, Note_on_c, 1, 47, 70
3, 202974, Note_off_c, 1, 47, 64
3, 202974, Note_off_c, 1, 51, 64
3, 202980, Note_on_c, 1, 47, 70
3, 202980, Note_on_c, 1, 51, 70
3, 203034, Note_off_c, 1, 51, 64
3, 203034, Note_off_c, 1, 47, 64
3, 203040, Note_on_c, 1, 47, 70
3, 203040, Note_on_c, 1, 51, 70
3, 203094, Note_off_c, 1, 51, 64
3, 203094, Note_off_c, 1, 47, 64
3, 203100, Note_on_c, 1, 51, 70
3, 203100, Note_on_c, 1, 47, 70
3, 203154, Note_off_c, 1, 47, 64
3, 203154, Note_off_c, 1, 51, 64
3, 203160, Note_on_c, 1, 47, 70
3, 203160, Note_on_c, 1, 51, 70
3, 203214, Note_off_c, 1, 51, 64
3, 203214, Note_off_c, 1, 47, 64
3, 203220, Note_on_c, 1, 51, 70
3, 203220, Note_on_c, 1, 47, 70
3, 203274, Note_off_c, 1, 47, 64
3, 203274, Note_off_c, 1, 51, 64
3, 203280, Note_on_c, 1, 44, 70
3, 203280, Note_on_c, 1, 51, 70
3, 203280, Note_on_c, 1, 47, 70
3, 203334, Note_off_c, 1, 47, 64
3, 203334, Note_off_c, 1, 51, 64
3, 203334, Note_off_c, 1, 44, 64
3, 203340, Note_on_c, 1, 44, 70
3, 203340, Note_on_c, 1, 47, 70
3, 203340, Note_on_c, 1, 51, 70
3, 203394, Note_off_c, 1, 51, 64
3, 203394, Note_off_c, 1, 47, 64
3, 203394, Note_off_c, 1, 44, 64
3, 203400, Note_on_c, 1, 44, 70
3, 203400, Note_on_c, 1, 47, 70
3, 203400, Note_on_c, 1, 51, 70
3, 203454, Note_off_c, 1, 51, 64
3, 203454, Note_off_c, 1, 47, 64
3, 203454, Note_off_c, 1, 44, 64
3, 203460, Note_on_c, 1, 51, 70
3, 203460, Note_on_c, 1, 47, 70
3, 203460, Note_on_c, 1, 44, 70
3, 203514, Note_off_c, 1, 44, 64
3, 203514, Note_off_c, 1, 47, 64
3, 203514, Note_off_c, 1, 51, 64
3, 203520, Note_on_c, 1, 51, 70
3, 203520, Note_on_c, 1, 47, 70
3, 203520, Note_on_c, 1, 44, 70
3, 203574, Note_off_c, 1, 44, 64
3, 203574, Note_off_c, 1, 47, 64
3, 203574, Note_off_c, 1, 51, 64
3, 203580, Note_on_c, 1, 51, 70
3, 203580, Note_on_c, 1, 44, 70
3, 203580, Note_on_c, 1, 47, 70
3, 203634, Note_off_c, 1, 47, 64
3, 203634, Note_off_c, 1, 44, 64
3, 203634, Note_off_c, 1, 51, 64
3, 203640, Note_on_c, 1, 47, 70
3, 203640, Note_on_c, 1, 51, 70
3, 203640, Note_on_c, 1, 44, 70
3, 203694, Note_off_c, 1, 44, 64
3, 203694, Note_off_c, 1, 51, 64
3, 203694, Note_off_c, 1, 47, 64
3, 203700, Note_on_c, 1, 47, 70
3, 203700, Note_on_c, 1, 51, 70
3, 203700, Note_on_c, 1, 44, 70
3, 203754, Note_off_c, 1, 44, 64
3, 203754, Note_off_c, 1, 51, 64
3, 203754, Note_off_c, 1, 47, 64
3, 203760, Note_on_c, 1, 44, 70
3, 203760, Note_on_c, 1, 47, 70
3, 203760, Note_on_c, 1, 51, 70
3, 203814, Note_off_c, 1, 51, 64
3, 203814, Note_off_c, 1, 47, 64
3, 203814, Note_off_c, 1, 44, 64
3, 203820, Note_on_c, 1, 44, 70
3, 203820, Note_on_c, 1, 51, 70
3, 203820, Note_on_c, 1, 47, 70
3, 203874, Note_off_c, 1, 47, 64
3, 203874, Note_off_c, 1, 51, 64
3, 203874, Note_off_c, 1, 44, 64
3, 203880, Note_on_c, 1, 51, 70
3, 203880, Note_on_c, 1, 47, 70
3, 203880, Note_on_c, 1, 44, 70
3, 203934, Note_off_c, 1, 44, 64
3, 203934, Note_off_c, 1, 47, 64
3, 203934, Note_off_c, 1, 51, 64
3, 203940, Note_on_c, 1, 44, 70
3, 203940, Note_on_c, 1, 51, 70
3, 203940, Note_on_c, 1, 47, 70
3, 203994, Note_off_c, 1, 47, 64
3, 203994, Note_off_c, 1, 51, 64
3, 203994, Note_off_c, 1, 44, 64
3, 204000, Note_on_c, 1, 51, 70
3, 204000, Note_on_c, 1, 44, 70
3, 204000, Note_on_c, 1, 47, 70
3, 204054, Note_off_c, 1, 47, 64
3, 204054, Note_off_c, 1, 44, 64
3, 204054, Note_off_c, 1, 51, 64
3, 204060, Note_on_c, 1, 51, 70
3, 204060, Note_on_c, 1, 47, 70
3, 204060, Note_on_c, 1, 44, 70
3, 204114, Note_off_c, 1, 44, 64
3, 204114, Note_off_c, 1, 47, 64
3, 204114, Note_off_c, 1, 51, 64
3, 204120, Note_on_c, 1, 44, 70
3, 204120, Note_on_c, 1, 51, 70
3, 204120, Note_on_c, 1, 47, 70
3, 204174, Note_off_c, 1, 47, 64
3, 204174, Note_off_c, 1, 51, 64
3, 204174, Note_off_c, 1, 44, 64
3, 204180, Note_on_c, 1, 47, 70
3, 204180, Note_on_c, 1, 44, 70
3, 204180, Note_on_c, 1, 51, 70
3, 204234, Note_off_c, 1, 51, 64
3, 204234, Note_off_c, 1, 44, 64
3, 204234, Note_off_c, 1, 47, 64
3, 204240, Note_on_c, 1, 44, 70
3, 204240, Note_on_c, 1, 47, 70
3, 204240, Note_on_c, 1, 51, 70
3, 204294, Note_off_c, 1, 51, 64
3, 204294, Note_off_c, 1, 47, 64
3, 204294, Note_off_c, 1, 44, 64
3, 204300, Note_on_c, 1, 51, 70
3, 204300, Note_on_c, 1, 47, 70
3, 204300, Note_on_c, 1, 44, 70
3, 204354, Note_off_c, 1, 44, 64
3, 204354, Note_off_c, 1, 47, 64
3, 204354, Note_off_c, 1, 51, 64
3, 204360, Note_on_c, 1, 49, 70
3, 204360, Note_on_c, 1, 51, 70
3, 204360, Note_on_c, 1, 46, 70
3, 204414, Note_off_c, 1, 46, 64
3, 204414, Note_off_c, 1, 51, 64
3, 204414, Note_off_c, 1, 49, 64
3, 204420, Note_on_c, 1, 51, 70
3, 204420, Note_on_c, 1, 49, 70
3, 204420, Note_on_c, 1, 46, 70
3, 204474, Note_off_c, 1, 46, 64
3, 204474, Note_off_c, 1, 49, 64
3, 204474, Note_off_c, 1, 51, 64
3, 204480, Note_on_c, 1, 49, 70
3, 204480, Note_on_c, 1, 51, 70
3, 204480, Note_on_c, 1, 46, 70
3, 204534, Note_off_c, 1, 46, 64
3, 204534, Note_off_c, 1, 51, 64
3, 204534, Note_off_c, 1, 49, 64
3, 204540, Note_on_c, 1, 51, 70
3, 204540, Note_on_c, 1, 49, 70
3, 204540, Note_on_c, 1, 46, 70
3, 204594, Note_off_c, 1, 46, 64
3, 204594, Note_off_c, 1, 49, 64
3, 204594, Note_off_c, 1, 51, 64
3, 204600, Note_on_c, 1, 46, 70
3, 204600, Note_on_c, 1, 49, 70
3, 204600, Note_on_c, 1, 51, 70
3, 204654, Note_off_c, 1, 51, 64
3, 204654, Note_off_c, 1, 49, 64
3, 204654, Note_off_c, 1, 46, 64
3, 204660, Note_on_c, 1, 49, 70
3, 204660, Note_on_c, 1, 46, 70
3, 204660, Note_on_c, 1, 51, 70
3, 204714, Note_off_c, 1, 51, 64
3, 204714, Note_off_c, 1, 46, 64
3, 204714, Note_off_c, 1, 49, 64
3, 204720, Note_on_c, 1, 51, 70
3, 204720, Note_on_c, 1, 49, 70
3, 204720, Note_on_c, 1, 46, 70
3, 204774, Note_off_c, 1, 46, 64
3, 204774, Note_off_c, 1, 49, 64
3, 204774, Note_off_c, 1, 51, 64
3, 204780, Note_on_c, 1, 49, 70
3, 204780, Note_on_c, 1, 46, 70
3, 204780, Note_on_c, 1, 51, 70
3, 204834, Note_off_c, 1, 51, 64
3, 204834, Note_off_c, 1, 46, 64
3, 204834, Note_off_c, 1, 49, 64
3, 204840, Note_on_c, 1, 51, 70
3, 204840, Note_on_c, 1, 49, 70
3, 204840, Note_on_c, 1, 46, 70
3, 204894, Note_off_c, 1, 46, 64
3, 204894, Note_off_c, 1, 49, 64
3, 204894, Note_off_c, 1, 51, 64
3, 204900, Note_on_c, 1, 51, 70
3, 204900, Note_on_c, 1, 49, 70
3, 204900, Note_on_c, 1, 46, 70
3, 204954, Note_off_c, 1, 46, 64
3, 204954, Note_off_c, 1, 49, 64
3, 204954, Note_off_c, 1, 51, 64
3, 204960, Note_on_c, 1, 51, 70
3, 204960, Note_on_c, 1, 46, 70
3, 204960, Note_on_c, 1, 49, 70
3, 205014, Note_off_c, 1, 49, 64
3, 205014, Note_off_c, 1, 46, 64
3, 205014, Note_off_c, 1, 51, 64
3, 205020, Note_on_c, 1, 46, 70
3, 205020, Note_on_c, 1, 49, 70
3, 205020, Note_on_c, 1, 51, 70
3, 205020, Note_on_c, 1, 55, 70
3, 205074, Note_off_c, 1, 55, 64
3, 205074, Note_off_c, 1, 51, 64
3, 205074, Note_off_c, 1, 49, 64
3, 205074, Note_off_c, 1, 46, 64
3, 205080, Note_on_c, 1, 56, 70
3, 205080, Note_on_c, 1, 47, 70
3, 205080, Note_on_c, 1, 51, 70
3, 205134, Note_off_c, 1, 51, 64
3, 205134, Note_off_c, 1, 47, 64
3, 205134, Note_off_c, 1, 56, 64
3, 205140, Note_on_c, 1, 56, 70
3, 205140, Note_on_c, 1, 47, 70
3, 205140, Note_on_c, 1, 51, 70
3, 205194, Note_off_c, 1, 51, 64
3, 205194, Note_off_c, 1, 47, 64
3, 205194, Note_off_c, 1, 56, 64
3, 205200, Note_on_c, 1, 56, 70
3, 205200, Note_on_c, 1, 51, 70
3, 205200, Note_on_c, 1, 47, 70
3, 205254, Note_off_c, 1, 47, 64
3, 205254, Note_off_c, 1, 51, 64
3, 205254, Note_off_c, 1, 56, 64
3, 205260, Note_on_c, 1, 51, 70
3, 205260, Note_on_c, 1, 56, 70
3, 205260, Note_on_c, 1, 48, 70
3, 205314, Note_off_c, 1, 48, 64
3, 205314, Note_off_c, 1, 56, 64
3, 205314, Note_off_c, 1, 51, 64
3, 205320, Note_on_c, 1, 48, 70
3, 205320, Note_on_c, 1, 51, 70
3, 205320, Note_on_c, 1, 56, 70
3, 205374, Note_off_c, 1, 56, 64
3, 205374, Note_off_c, 1, 51, 64
3, 205374, Note_off_c, 1, 48, 64
3, 205380, Note_on_c, 1, 51, 70
3, 205380, Note_on_c, 1, 48, 70
3, 205380, Note_on_c, 1, 56, 70
3, 205434, Note_off_c, 1, 56, 64
3, 205434, Note_off_c, 1, 48, 64
3, 205434, Note_off_c, 1, 51, 64
3, 205440, Note_on_c, 1, 52, 70
3, 205440, Note_on_c, 1, 56, 70
3, 205440, Note_on_c, 1, 49, 70
3, 205494, Note_off_c, 1, 49, 64
3, 205494, Note_off_c, 1, 56, 64
3, 205494, Note_off_c, 1, 52, 64
3, 205500, Note_on_c, 1, 52, 70
3, 205500, Note_on_c, 1, 56, 70
3, 205500, Note_on_c, 1, 49, 70
3, 205554, Note_off_c, 1, 49, 64
3, 205554, Note_off_c, 1, 56, 64
3, 205554, Note_off_c, 1, 52, 64
3, 205560, Note_on_c, 1, 52, 70
3, 205560, Note_on_c, 1, 56, 70
3, 205560, Note_on_c, 1, 49, 70
3, 205614, Note_off_c, 1, 49, 64
3, 205614, Note_off_c, 1, 56, 64
3, 205614, Note_off_c, 1, 52, 64
3, 205620, Note_on_c, 1, 52, 70
3, 205620, Note_on_c, 1, 61, 70
3, 205620, Note_on_c, 1, 56, 70
3, 205674, Note_off_c, 1, 56, 64
3, 205674, Note_off_c, 1, 61, 64
3, 205674, Note_off_c, 1, 52, 64
3, 205680, Note_on_c, 1, 52, 70
3, 205680, Note_on_c, 1, 56, 70
3, 205680, Note_on_c, 1, 61, 70
3, 205734, Note_off_c, 1, 61, 64
3, 205734, Note_off_c, 1, 56, 64
3, 205734, Note_off_c, 1, 52, 64
3, 205740, Note_on_c, 1, 52, 70
3, 205740, Note_on_c, 1, 61, 70
3, 205740, Note_on_c, 1, 56, 70
3, 205794, Note_off_c, 1, 56, 64
3, 205794, Note_off_c, 1, 61, 64
3, 205794, Note_off_c, 1, 52, 64
3, 205800, Note_on_c, 1, 56, 70
3, 205800, Note_on_c, 1, 51, 70
3, 205800, Note_on_c, 1, 59, 70
3, 205854, Note_off_c, 1, 59, 64
3, 205854, Note_off_c, 1, 51, 64
3, 205854, Note_off_c, 1, 56, 64
3, 205860, Note_on_c, 1, 59, 70
3, 205860, Note_on_c, 1, 51, 70
3, 205860, Note_on_c, 1, 56, 70
3, 205914, Note_off_c, 1, 56, 64
3, 205914, Note_off_c, 1, 51, 64
3, 205914, Note_off_c, 1, 59, 64
3, 205920, Note_on_c, 1, 56, 70
3, 205920, Note_on_c, 1, 51, 70
3, 205920, Note_on_c, 1, 59, 70
3, 205974, Note_off_c, 1, 59, 64
3, 205974, Note_off_c, 1, 51, 64
3, 205974, Note_off_c, 1, 56, 64
3, 205980, Note_on_c, 1, 56, 70
3, 205980, Note_on_c, 1, 51, 70
3, 205980, Note_on_c, 1, 59, 70
3, 206034, Note_off_c, 1, 59, 64
3, 206034, Note_off_c, 1, 51, 64
3, 206034, Note_off_c, 1, 56, 64
3, 206040, Note_on_c, 1, 59, 70
3, 206040, Note_on_c, 1, 56, 70
3, 206040, Note_on_c, 1, 51, 70
3, 206094, Note_off_c, 1, 51, 64
3, 206094, Note_off_c, 1, 56, 64
3, 206094, Note_off_c, 1, 59, 64
3, 206100, Note_on_c, 1, 56, 70
3, 206100, Note_on_c, 1, 59, 70
3, 206100, Note_on_c, 1, 51, 70
3, 206154, Note_off_c, 1, 51, 64
3, 206154, Note_off_c, 1, 59, 64
3, 206154, Note_off_c, 1, 56, 64
3, 206160, Note_on_c, 1, 51, 70
3, 206160, Note_on_c, 1, 55, 70
3, 206160, Note_on_c, 1, 58, 70
3, 206214, Note_off_c, 1, 58, 64
3, 206214, Note_off_c, 1, 55, 64
3, 206214, Note_off_c, 1, 51, 64
3, 206220, Note_on_c, 1, 51, 70
3, 206220, Note_on_c, 1, 58, 70
3, 206220, Note_on_c, 1, 55, 70
3, 206274, Note_off_c, 1, 55, 64
3, 206274, Note_off_c, 1, 58, 64
3, 206274, Note_off_c, 1, 51, 64
3, 206280, Note_on_c, 1, 55, 70
3, 206280, Note_on_c, 1, 51, 70
3, 206280, Note_on_c, 1, 58, 70
3, 206334, Note_off_c, 1, 58, 64
3, 206334, Note_off_c, 1, 51, 64
3, 206334, Note_off_c, 1, 55, 64
3, 206340, Note_on_c, 1, 58, 70
3, 206340, Note_on_c, 1, 49, 70
3, 206340, Note_on_c, 1, 55, 70
3, 206340, Note_on_c, 1, 51, 70
3, 206394, Note_off_c, 1, 51, 64
3, 206394, Note_off_c, 1, 55, 64
3, 206394, Note_off_c, 1, 49, 64
3, 206394, Note_off_c, 1, 58, 64
3, 206400, Note_on_c, 1, 51, 70
3, 206400, Note_on_c, 1, 47, 70
3, 206400, Note_on_c, 1, 56, 70
3, 206454, Note_off_c, 1, 56, 64
3, 206454, Note_off_c, 1, 47, 64
3, 206454, Note_off_c, 1, 51, 64
3, 206460, Note_on_c, 1, 46, 70
3, 206460, Note_on_c, 1, 51, 70
3, 206460, Note_on_c, 1, 54, 70
3, 206514, Note_off_c, 1, 54, 64
3, 206514, Note_off_c, 1, 51, 64
3, 206514, Note_off_c, 1, 46, 64
3, 206520, Note_on_c, 1, 44, 70
3, 206520, Note_on_c, 1, 56, 70
3, 206520, Note_on_c, 1, 51, 70
3, 206574, Note_off_c, 1, 51, 64
3, 206574, Note_off_c, 1, 56, 64
3, 206574, Note_off_c, 1, 44, 64
3, 206580, Note_on_c, 1, 47, 70
3, 206580, Note_on_c, 1, 44, 70
3, 206580, Note_on_c, 1, 51, 70
3, 206634, Note_off_c, 1, 51, 64
3, 206634, Note_off_c, 1, 44, 64
3, 206634, Note_off_c, 1, 47, 64
3, 206640, Note_on_c, 1, 47, 70
3, 206640, Note_on_c, 1, 51, 70
3, 206640, Note_on_c, 1, 44, 70
3, 206694, Note_off_c, 1, 44, 64
3, 206694, Note_off_c, 1, 51, 64
3, 206694, Note_off_c, 1, 47, 64
3, 206700, Note_on_c, 1, 44, 70
3, 206700, Note_on_c, 1, 47, 70
3, 206700, Note_on_c, 1, 51, 70
3, 206754, Note_off_c, 1, 51, 64
3, 206754, Note_off_c, 1, 47, 64
3, 206754, Note_off_c, 1, 44, 64
3, 206760, Note_on_c, 1, 44, 70
3, 206760, Note_on_c, 1, 51, 70
3, 206760, Note_on_c, 1, 47, 70
3, 206814, Note_off_c, 1, 47, 64
3, 206814, Note_off_c, 1, 51, 64
3, 206814, Note_off_c, 1, 44, 64
3, 206820, Note_on_c, 1, 44, 70
3, 206820, Note_on_c, 1, 47, 70
3, 206820, Note_on_c, 1, 51, 70
3, 206874, Note_off_c, 1, 51, 64
3, 206874, Note_off_c, 1, 47, 64
3, 206874, Note_off_c, 1, 44, 64
3, 206880, Note_on_c, 1, 47, 70
3, 206880, Note_on_c, 1, 52, 70
3, 206880, Note_on_c, 1, 42, 70
3, 206934, Note_off_c, 1, 42, 64
3, 206934, Note_off_c, 1, 52, 64
3, 206934, Note_off_c, 1, 47, 64
3, 206940, Note_on_c, 1, 52, 70
3, 206940, Note_on_c, 1, 42, 70
3, 206940, Note_on_c, 1, 47, 70
3, 206994, Note_off_c, 1, 47, 64
3, 206994, Note_off_c, 1, 42, 64
3, 206994, Note_off_c, 1, 52, 64
3, 207000, Note_on_c, 1, 47, 70
3, 207000, Note_on_c, 1, 52, 70
3, 207000, Note_on_c, 1, 42, 70
3, 207054, Note_off_c, 1, 42, 64
3, 207054, Note_off_c, 1, 52, 64
3, 207054, Note_off_c, 1, 47, 64
3, 207060, Note_on_c, 1, 42, 70
3, 207060, Note_on_c, 1, 46, 70
3, 207060, Note_on_c, 1, 52, 70
3, 207114, Note_off_c, 1, 52, 64
3, 207114, Note_off_c, 1, 46, 64
3, 207114, Note_off_c, 1, 42, 64
3, 207120, Note_on_c, 1, 42, 70
3, 207120, Note_on_c, 1, 46, 70
3, 207120, Note_on_c, 1, 52, 70
3, 207174, Note_off_c, 1, 52, 64
3, 207174, Note_off_c, 1, 46, 64
3, 207174, Note_off_c, 1, 42, 64
3, 207180, Note_on_c, 1, 42, 70
3, 207180, Note_on_c, 1, 46, 70
3, 207180, Note_on_c, 1, 52, 70
3, 207234, Note_off_c, 1, 52, 64
3, 207234, Note_off_c, 1, 46, 64
3, 207234, Note_off_c, 1, 42, 64
3, 207240, Note_on_c, 1, 47, 70
3, 207240, Note_on_c, 1, 51, 70
3, 207240, Note_on_c, 1, 42, 70
3, 207294, Note_off_c, 1, 42, 64
3, 207294, Note_off_c, 1, 51, 64
3, 207294, Note_off_c, 1, 47, 64
3, 207300, Note_on_c, 1, 51, 70
3, 207300, Note_on_c, 1, 42, 70
3, 207300, Note_on_c, 1, 47, 70
3, 207354, Note_off_c, 1, 47, 64
3, 207354, Note_off_c, 1, 42, 64
3, 207354, Note_off_c, 1, 51, 64
3, 207360, Note_on_c, 1, 42, 70
3, 207360, Note_on_c, 1, 51, 70
3, 207360, Note_on_c, 1, 47, 70
3, 207414, Note_off_c, 1, 47, 64
3, 207414, Note_off_c, 1, 51, 64
3, 207414, Note_off_c, 1, 42, 64
3, 207420, Note_on_c, 1, 54, 70
3, 207420, Note_on_c, 1, 59, 70
3, 207420, Note_on_c, 1, 47, 70
3, 207474, Note_off_c, 1, 47, 64
3, 207474, Note_off_c, 1, 59, 64
3, 207474, Note_off_c, 1, 54, 64
3, 207480, Note_on_c, 1, 54, 70
3, 207480, Note_on_c, 1, 47, 70
3, 207480, Note_on_c, 1, 59, 70
3, 207534, Note_off_c, 1, 59, 64
3, 207534, Note_off_c, 1, 47, 64
3, 207534, Note_off_c, 1, 54, 64
3, 207540, Note_on_c, 1, 59, 70
3, 207540, Note_on_c, 1, 54, 70
3, 207540, Note_on_c, 1, 47, 70
3, 207594, Note_off_c, 1, 47, 64
3, 207594, Note_off_c, 1, 54, 64
3, 207594, Note_off_c, 1, 59, 64
3, 207600, Note_on_c, 1, 59, 70
3, 207600, Note_on_c, 1, 49, 70
3, 207600, Note_on_c, 1, 52, 70
3, 207654, Note_off_c, 1, 52, 64
3, 207654, Note_off_c, 1, 49, 64
3, 207654, Note_off_c, 1, 59, 64
3, 207660, Note_on_c, 1, 49, 70
3, 207660, Note_on_c, 1, 52, 70
3, 207660, Note_on_c, 1, 59, 70
3, 207714, Note_off_c, 1, 59, 64
3, 207714, Note_off_c, 1, 52, 64
3, 207714, Note_off_c, 1, 49, 64
3, 207720, Note_on_c, 1, 59, 70
3, 207720, Note_on_c, 1, 49, 70
3, 207720, Note_on_c, 1, 52, 70
3, 207774, Note_off_c, 1, 52, 64
3, 207774, Note_off_c, 1, 49, 64
3, 207774, Note_off_c, 1, 59, 64
3, 207780, Note_on_c, 1, 58, 70
3, 207780, Note_on_c, 1, 52, 70
3, 207780, Note_on_c, 1, 49, 70
3, 207834, Note_off_c, 1, 49, 64
3, 207834, Note_off_c, 1, 52, 64
3, 207834, Note_off_c, 1, 58, 64
3, 207840, Note_on_c, 1, 52, 70
3, 207840, Note_on_c, 1, 58, 70
3, 207840, Note_on_c, 1, 49, 70
3, 207894, Note_off_c, 1, 49, 64
3, 207894, Note_off_c, 1, 58, 64
3, 207894, Note_off_c, 1, 52, 64
3, 207900, Note_on_c, 1, 52, 70
3, 207900, Note_on_c, 1, 58, 70
3, 207900, Note_on_c, 1, 49, 70
3, 207954, Note_off_c, 1, 49, 64
3, 207954, Note_off_c, 1, 58, 64
3, 207954, Note_off_c, 1, 52, 64
3, 207960, Note_on_c, 1, 51, 70
3, 207960, Note_on_c, 1, 59, 70
3, 207960, Note_on_c, 1, 54, 70
3, 208014, Note_off_c, 1, 54, 64
3, 208014, Note_off_c, 1, 59, 64
3, 208014, Note_off_c, 1, 51, 64
3, 208020, Note_on_c, 1, 54, 70
3, 208020, Note_on_c, 1, 59, 70
3, 208020, Note_on_c, 1, 51, 70
3, 208074, Note_off_c, 1, 51, 64
3, 208074, Note_off_c, 1, 59, 64
3, 208074, Note_off_c, 1, 54, 64
3, 208080, Note_on_c, 1, 51, 70
3, 208080, Note_on_c, 1, 54, 70
3, 208080, Note_on_c, 1, 59, 70
3, 208134, Note_off_c, 1, 59, 64
3, 208134, Note_off_c, 1, 54, 64
3, 208134, Note_off_c, 1, 51, 64
3, 208140, Note_on_c, 1, 59, 70
3, 208140, Note_on_c, 1, 64, 70
3, 208140, Note_on_c, 1, 52, 70
3, 208194, Note_off_c, 1, 52, 64
3, 208194, Note_off_c, 1, 64, 64
3, 208194, Note_off_c, 1, 59, 64
3, 208200, Note_on_c, 1, 59, 70
3, 208200, Note_on_c, 1, 64, 70
3, 208200, Note_on_c, 1, 52, 70
3, 208254, Note_off_c, 1, 52, 64
3, 208254, Note_off_c, 1, 64, 64
3, 208254, Note_off_c, 1, 59, 64
3, 208260, Note_on_c, 1, 52, 70
3, 208260, Note_on_c, 1, 59, 70
3, 208260, Note_on_c, 1, 64, 70
3, 208314, Note_off_c, 1, 64, 64
3, 208314, Note_off_c, 1, 59, 64
3, 208314, Note_off_c, 1, 52, 64
3, 208320, Note_on_c, 1, 59, 70
3, 208320, Note_on_c, 1, 54, 70
3, 208320, Note_on_c, 1, 63, 70
3, 208374, Note_off_c, 1, 63, 64
3, 208374, Note_off_c, 1, 54, 64
3, 208374, Note_off_c, 1, 59, 64
3, 208380, Note_on_c, 1, 54, 70
3, 208380, Note_on_c, 1, 63, 70
3, 208380, Note_on_c, 1, 59, 70
3, 208434, Note_off_c, 1, 59, 64
3, 208434, Note_off_c, 1, 63, 64
3, 208434, Note_off_c, 1, 54, 64
3, 208440, Note_on_c, 1, 63, 70
3, 208440, Note_on_c, 1, 59, 70
3, 208440, Note_on_c, 1, 54, 70
3, 208494, Note_off_c, 1, 54, 64
3, 208494, Note_off_c, 1, 59, 64
3, 208494, Note_off_c, 1, 63, 64
3, 208500, Note_on_c, 1, 58, 70
3, 208500, Note_on_c, 1, 64, 70
3, 208500, Note_on_c, 1, 54, 70
3, 208500, Note_on_c, 1, 61, 70
3, 208554, Note_off_c, 1, 61, 64
3, 208554, Note_off_c, 1, 54, 64
3, 208554, Note_off_c, 1, 64, 64
3, 208554, Note_off_c, 1, 58, 64
3, 208560, Note_on_c, 1, 61, 70
3, 208560, Note_on_c, 1, 54, 70
3, 208560, Note_on_c, 1, 58, 70
3, 208560, Note_on_c, 1, 64, 70
3, 208614, Note_off_c, 1, 64, 64
3, 208614, Note_off_c, 1, 58, 64
3, 208614, Note_off_c, 1, 54, 64
3, 208614, Note_off_c, 1, 61, 64
3, 208620, Note_on_c, 1, 58, 70
3, 208620, Note_on_c, 1, 54, 70
3, 208620, Note_on_c, 1, 61, 70
3, 208620, Note_on_c, 1, 64, 70
3, 208674, Note_off_c, 1, 64, 64
3, 208674, Note_off_c, 1, 61, 64
3, 208674, Note_off_c, 1, 54, 64
3, 208674, Note_off_c, 1, 58, 64
3, 208680, Note_on_c, 1, 61, 70
3, 208680, Note_on_c, 1, 55, 70
3, 208680, Note_on_c, 1, 58, 70
3, 208680, Note_on_c, 1, 64, 70
3, 208734, Note_off_c, 1, 64, 64
3, 208734, Note_off_c, 1, 58, 64
3, 208734, Note_off_c, 1, 55, 64
3, 208734, Note_off_c, 1, 61, 64
3, 208740, Note_on_c, 1, 58, 70
3, 208740, Note_on_c, 1, 61, 70
3, 208740, Note_on_c, 1, 55, 70
3, 208740, Note_on_c, 1, 64, 70
3, 208794, Note_off_c, 1, 64, 64
3, 208794, Note_off_c, 1, 55, 64
3, 208794, Note_off_c, 1, 61, 64
3, 208794, Note_off_c, 1, 58, 64
3, 208800, Note_on_c, 1, 55, 70
3, 208800, Note_on_c, 1, 61, 70
3, 208800, Note_on_c, 1, 58, 70
3, 208800, Note_on_c, 1, 64, 70
3, 208854, Note_off_c, 1, 64, 64
3, 208854, Note_off_c, 1, 58, 64
3, 208854, Note_off_c, 1, 61, 64
3, 208854, Note_off_c, 1, 55, 64
3, 208860, Note_on_c, 1, 64, 70
3, 208860, Note_on_c, 1, 58, 70
3, 208860, Note_on_c, 1, 54, 70
3, 208860, Note_on_c, 1, 61, 70
3, 208914, Note_off_c, 1, 61, 64
3, 208914, Note_off_c, 1, 54, 64
3, 208914, Note_off_c, 1, 58, 64
3, 208914, Note_off_c, 1, 64, 64
3, 208920, Note_on_c, 1, 58, 70
3, 208920, Note_on_c, 1, 64, 70
3, 208920, Note_on_c, 1, 54, 70
3, 208920, Note_on_c, 1, 61, 70
3, 208974, Note_off_c, 1, 61, 64
3, 208974, Note_off_c, 1, 54, 64
3, 208974, Note_off_c, 1, 64, 64
3, 208974, Note_off_c, 1, 58, 64
3, 208980, Note_on_c, 1, 61, 70
3, 208980, Note_on_c, 1, 58, 70
3, 208980, Note_on_c, 1, 54, 70
3, 208980, Note_on_c, 1, 66, 70
3, 209034, Note_off_c, 1, 66, 64
3, 209034, Note_off_c, 1, 54, 64
3, 209034, Note_off_c, 1, 58, 64
3, 209034, Note_off_c, 1, 61, 64
3, 209040, Note_on_c, 1, 66, 70
3, 209040, Note_on_c, 1, 59, 70
3, 209040, Note_on_c, 1, 63, 70
3, 209094, Note_off_c, 1, 63, 64
3, 209094, Note_off_c, 1, 59, 64
3, 209094, Note_off_c, 1, 66, 64
3, 209100, Note_on_c, 1, 66, 70
3, 209100, Note_on_c, 1, 59, 70
3, 209100, Note_on_c, 1, 63, 70
3, 209154, Note_off_c, 1, 63, 64
3, 209154, Note_off_c, 1, 59, 64
3, 209154, Note_off_c, 1, 66, 64
3, 209160, Note_on_c, 1, 63, 70
3, 209160, Note_on_c, 1, 66, 70
3, 209160, Note_on_c, 1, 59, 70
3, 209214, Note_off_c, 1, 59, 64
3, 209214, Note_off_c, 1, 66, 64
3, 209214, Note_off_c, 1, 63, 64
3, 209220, Note_on_c, 1, 59, 70
3, 209220, Note_on_c, 1, 63, 70
3, 209220, Note_on_c, 1, 66, 70
3, 209274, Note_off_c, 1, 66, 64
3, 209274, Note_off_c, 1, 63, 64
3, 209274, Note_off_c, 1, 59, 64
3, 209280, Note_on_c, 1, 66, 70
3, 209280, Note_on_c, 1, 59, 70
3, 209280, Note_on_c, 1, 63, 70
3, 209334, Note_off_c, 1, 63, 64
3, 209334, Note_off_c, 1, 59, 64
3, 209334, Note_off_c, 1, 66, 64
3, 209340, Note_on_c, 1, 66, 70
3, 209340, Note_on_c, 1, 63, 70
3, 209340, Note_on_c, 1, 59, 70
3, 209394, Note_off_c, 1, 59, 64
3, 209394, Note_off_c, 1, 63, 64
3, 209394, Note_off_c, 1, 66, 64
3, 209400, Note_on_c, 1, 66, 70
3, 209400, Note_on_c, 1, 60, 70
3, 209400, Note_on_c, 1, 63, 70
3, 209454, Note_off_c, 1, 63, 64
3, 209454, Note_off_c, 1, 60, 64
3, 209454, Note_off_c, 1, 66, 64
3, 209460, Note_on_c, 1, 66, 70
3, 209460, Note_on_c, 1, 60, 70
3, 209460, Note_on_c, 1, 63, 70
3, 209514, Note_off_c, 1, 63, 64
3, 209514, Note_off_c, 1, 60, 64
3, 209514, Note_off_c, 1, 66, 64
3, 209520, Note_on_c, 1, 66, 70
3, 209520, Note_on_c, 1, 60, 70
3, 209520, Note_on_c, 1, 63, 70
3, 209574, Note_off_c, 1, 63, 64
3, 209574, Note_off_c, 1, 60, 64
3, 209574, Note_off_c, 1, 66, 64
3, 209580, Note_on_c, 1, 60, 70
3, 209580, Note_on_c, 1, 63, 70
3, 209580, Note_on_c, 1, 66, 70
3, 209634, Note_off_c, 1, 66, 64
3, 209634, Note_off_c, 1, 63, 64
3, 209634, Note_off_c, 1, 60, 64
3, 209640, Note_on_c, 1, 60, 70
3, 209640, Note_on_c, 1, 66, 70
3, 209640, Note_on_c, 1, 63, 70
3, 209694, Note_off_c, 1, 63, 64
3, 209694, Note_off_c, 1, 66, 64
3, 209694, Note_off_c, 1, 60, 64
3, 209700, Note_on_c, 1, 60, 70
3, 209700, Note_on_c, 1, 63, 70
3, 209700, Note_on_c, 1, 66, 70
3, 209754, Note_off_c, 1, 66, 64
3, 209754, Note_off_c, 1, 63, 64
3, 209754, Note_off_c, 1, 60, 64
3, 209760, Note_on_c, 1, 60, 70
3, 209760, Note_on_c, 1, 66, 70
3, 209760, Note_on_c, 1, 63, 70
3, 209814, Note_off_c, 1, 63, 64
3, 209814, Note_off_c, 1, 66, 64
3, 209814, Note_off_c, 1, 60, 64
3, 209820, Note_on_c, 1, 63, 70
3, 209820, Note_on_c, 1, 60, 70
3, 209820, Note_on_c, 1, 66, 70
3, 209874, Note_off_c, 1, 66, 64
3, 209874, Note_off_c, 1, 60, 64
3, 209874, Note_off_c, 1, 63, 64
3, 209880, Note_on_c, 1, 66, 70
3, 209880, Note_on_c, 1, 60, 70
3, 209880, Note_on_c, 1, 63, 70
3, 209934, Note_off_c, 1, 63, 64
3, 209934, Note_off_c, 1, 60, 64
3, 209934, Note_off_c, 1, 66, 64
3, 209940, Note_on_c, 1, 66, 70
3, 209940, Note_on_c, 1, 63, 70
3, 209940, Note_on_c, 1, 60, 70
3, 209940, Note_on_c, 1, 68, 70
3, 209994, Note_off_c, 1, 68, 64
3, 209994, Note_off_c, 1, 60, 64
3, 209994, Note_off_c, 1, 63, 64
3, 209994, Note_off_c, 1, 66, 64
3, 210000, Note_on_c, 1, 63, 70
3, 210000, Note_on_c, 1, 60, 70
3, 210000, Note_on_c, 1, 66, 70
3, 210000, Note_on_c, 1, 68, 70
3, 210054, Note_off_c, 1, 68, 64
3, 210054, Note_off_c, 1, 66, 64
3, 210054, Note_off_c, 1, 60, 64
3, 210054, Note_off_c, 1, 63, 64
3, 210060, Note_on_c, 1, 66, 70
3, 210060, Note_on_c, 1, 63, 70
3, 210060, Note_on_c, 1, 68, 70
3, 210060, Note_on_c, 1, 60, 70
3, 210114, Note_off_c, 1, 60, 64
3, 210114, Note_off_c, 1, 68, 64
3, 210114, Note_off_c, 1, 63, 64
3, 210114, Note_off_c, 1, 66, 64
3, 210120, Note_on_c, 1, 64, 70
3, 210120, Note_on_c, 1, 68, 70
3, 210120, Note_on_c, 1, 61, 70
3, 210174, Note_off_c, 1, 61, 64
3, 210174, Note_off_c, 1, 68, 64
3, 210174, Note_off_c, 1, 64, 64
3, 210180, Note_on_c, 1, 64, 70
3, 210180, Note_on_c, 1, 61, 70
3, 210180, Note_on_c, 1, 68, 70
3, 210234, Note_off_c, 1, 68, 64
3, 210234, Note_off_c, 1, 61, 64
3, 210234, Note_off_c, 1, 64, 64
3, 210240, Note_on_c, 1, 64, 70
3, 210240, Note_on_c, 1, 61, 70
3, 210240, Note_on_c, 1, 68, 70
3, 210294, Note_off_c, 1, 68, 64
3, 210294, Note_off_c, 1, 61, 64
3, 210294, Note_off_c, 1, 64, 64
3, 210300, Note_on_c, 1, 64, 70
3, 210300, Note_on_c, 1, 61, 70
3, 210300, Note_on_c, 1, 68, 70
3, 210354, Note_off_c, 1, 68, 64
3, 210354, Note_off_c, 1, 61, 64
3, 210354, Note_off_c, 1, 64, 64
3, 210360, Note_on_c, 1, 61, 70
3, 210360, Note_on_c, 1, 56, 70
3, 210360, Note_on_c, 1, 49, 70
3, 210414, Note_off_c, 1, 49, 64
3, 210414, Note_off_c, 1, 56, 64
3, 210414, Note_off_c, 1, 61, 64
3, 210420, Note_on_c, 1, 49, 70
3, 210420, Note_on_c, 1, 56, 70
3, 210420, Note_on_c, 1, 61, 70
3, 210474, Note_off_c, 1, 61, 64
3, 210474, Note_off_c, 1, 56, 64
3, 210474, Note_off_c, 1, 49, 64
3, 210480, Note_on_c, 1, 61, 70
3, 210480, Note_on_c, 1, 49, 70
3, 210480, Note_on_c, 1, 56, 70
3, 210534, Note_off_c, 1, 56, 64
3, 210534, Note_off_c, 1, 49, 64
3, 210534, Note_off_c, 1, 61, 64
3, 210540, Note_on_c, 1, 56, 70
3, 210540, Note_on_c, 1, 61, 70
3, 210540, Note_on_c, 1, 49, 70
3, 210594, Note_off_c, 1, 49, 64
3, 210594, Note_off_c, 1, 61, 64
3, 210594, Note_off_c, 1, 56, 64
3, 210600, Note_on_c, 1, 61, 70
3, 210600, Note_on_c, 1, 56, 70
3, 210600, Note_on_c, 1, 49, 70
3, 210654, Note_off_c, 1, 49, 64
3, 210654, Note_off_c, 1, 56, 64
3, 210654, Note_off_c, 1, 61, 64
3, 210660, Note_on_c, 1, 51, 70
3, 210660, Note_on_c, 1, 59, 70
3, 210660, Note_on_c, 1, 56, 70
3, 210714, Note_off_c, 1, 56, 64
3, 210714, Note_off_c, 1, 59, 64
3, 210714, Note_off_c, 1, 51, 64
3, 210720, Note_on_c, 1, 56, 70
3, 210720, Note_on_c, 1, 51, 70
3, 210720, Note_on_c, 1, 59, 70
3, 210774, Note_off_c, 1, 59, 64
3, 210774, Note_off_c, 1, 51, 64
3, 210774, Note_off_c, 1, 56, 64
3, 210780, Note_on_c, 1, 51, 70
3, 210780, Note_on_c, 1, 59, 70
3, 210780, Note_on_c, 1, 56, 70
3, 210834, Note_off_c, 1, 56, 64
3, 210834, Note_off_c, 1, 59, 64
3, 210834, Note_off_c, 1, 51, 64
3, 210840, Note_on_c, 1, 61, 70
3, 210840, Note_on_c, 1, 52, 70
3, 210840, Note_on_c, 1, 56, 70
3, 210894, Note_off_c, 1, 56, 64
3, 210894, Note_off_c, 1, 52, 64
3, 210894, Note_off_c, 1, 61, 64
3, 210900, Note_on_c, 1, 61, 70
3, 210900, Note_on_c, 1, 52, 70
3, 210900, Note_on_c, 1, 56, 70
3, 210954, Note_off_c, 1, 56, 64
3, 210954, Note_off_c, 1, 52, 64
3, 210954, Note_off_c, 1, 61, 64
3, 210960, Note_on_c, 1, 61, 70
3, 210960, Note_on_c, 1, 52, 70
3, 210960, Note_on_c, 1, 56, 70
3, 211014, Note_off_c, 1, 56, 64
3, 211014, Note_off_c, 1, 52, 64
3, 211014, Note_off_c, 1, 61, 64
3, 211020, Note_on_c, 1, 56, 70
3, 211020, Note_on_c, 1, 51, 70
3, 211020, Note_on_c, 1, 59, 70
3, 211074, Note_off_c, 1, 59, 64
3, 211074, Note_off_c, 1, 51, 64
3, 211074, Note_off_c, 1, 56, 64
3, 211080, Note_on_c, 1, 59, 70
3, 211080, Note_on_c, 1, 51, 70
3, 211080, Note_on_c, 1, 56, 70
3, 211134, Note_off_c, 1, 56, 64
3, 211134, Note_off_c, 1, 51, 64
3, 211134, Note_off_c, 1, 59, 64
3, 211140, Note_on_c, 1, 51, 70
3, 211140, Note_on_c, 1, 56, 70
3, 211140, Note_on_c, 1, 59, 70
3, 211194, Note_off_c, 1, 59, 64
3, 211194, Note_off_c, 1, 56, 64
3, 211194, Note_off_c, 1, 51, 64
3, 211200, Note_on_c, 1, 52, 70
3, 211200, Note_on_c, 1, 49, 70
3, 211200, Note_on_c, 1, 58, 70
3, 211254, Note_off_c, 1, 58, 64
3, 211254, Note_off_c, 1, 49, 64
3, 211254, Note_off_c, 1, 52, 64
3, 211260, Note_on_c, 1, 52, 70
3, 211260, Note_on_c, 1, 49, 70
3, 211260, Note_on_c, 1, 58, 70
3, 211314, Note_off_c, 1, 58, 64
3, 211314, Note_off_c, 1, 49, 64
3, 211314, Note_off_c, 1, 52, 64
3, 211320, Note_on_c, 1, 58, 70
3, 211320, Note_on_c, 1, 49, 70
3, 211320, Note_on_c, 1, 52, 70
3, 211374, Note_off_c, 1, 52, 64
3, 211374, Note_off_c, 1, 49, 64
3, 211374, Note_off_c, 1, 58, 64
3, 211380, Note_on_c, 1, 50, 70
3, 211380, Note_on_c, 1, 58, 70
3, 211380, Note_on_c, 1, 53, 70
3, 211434, Note_off_c, 1, 53, 64
3, 211434, Note_off_c, 1, 58, 64
3, 211434, Note_off_c, 1, 50, 64
3, 211440, Note_on_c, 1, 53, 70
3, 211440, Note_on_c, 1, 56, 70
3, 211440, Note_on_c, 1, 50, 70
3, 211440, Note_on_c, 1, 59, 70
3, 211494, Note_off_c, 1, 59, 64
3, 211494, Note_off_c, 1, 50, 64
3, 211494, Note_off_c, 1, 56, 64
3, 211494, Note_off_c, 1, 53, 64
3, 211500, Note_on_c, 1, 56, 70
3, 211500, Note_on_c, 1, 50, 70
3, 211500, Note_on_c, 1, 53, 70
3, 211500, Note_on_c, 1, 59, 70
3, 211554, Note_off_c, 1, 59, 64
3, 211554, Note_off_c, 1, 53, 64
3, 211554, Note_off_c, 1, 50, 64
3, 211554, Note_off_c, 1, 56, 64
3, 211560, Note_on_c, 1, 60, 70
3, 211560, Note_on_c, 1, 51, 70
3, 211560, Note_on_c, 1, 56, 70
3, 211614, Note_off_c, 1, 56, 64
3, 211614, Note_off_c, 1, 51, 64
3, 211614, Note_off_c, 1, 60, 64
3, 211620, Note_on_c, 1, 60, 70
3, 211620, Note_on_c, 1, 56, 70
3, 211620, Note_on_c, 1, 51, 70
3, 211674, Note_off_c, 1, 51, 64
3, 211674, Note_off_c, 1, 56, 64
3, 211674, Note_off_c, 1, 60, 64
3, 211680, Note_on_c, 1, 56, 70
3, 211680, Note_on_c, 1, 51, 70
3, 211680, Note_on_c, 1, 60, 70
3, 211734, Note_off_c, 1, 60, 64
3, 211734, Note_off_c, 1, 51, 64
3, 211734, Note_off_c, 1, 56, 64
3, 211740, Note_on_c, 1, 59, 70
3, 211740, Note_on_c, 1, 62, 70
3, 211740, Note_on_c, 1, 51, 70
3, 211794, Note_off_c, 1, 51, 64
3, 211794, Note_off_c, 1, 62, 64
3, 211794, Note_off_c, 1, 59, 64
3, 211800, Note_on_c, 1, 59, 70
3, 211800, Note_on_c, 1, 51, 70
3, 211800, Note_on_c, 1, 62, 70
3, 211854, Note_off_c, 1, 62, 64
3, 211854, Note_off_c, 1, 51, 64
3, 211854, Note_off_c, 1, 59, 64
3, 211860, Note_on_c, 1, 62, 70
3, 211860, Note_on_c, 1, 51, 70
3, 211860, Note_on_c, 1, 59, 70
3, 211914, Note_off_c, 1, 59, 64
3, 211914, Note_off_c, 1, 51, 64
3, 211914, Note_off_c, 1, 62, 64
3, 211920, Note_on_c, 1, 58, 70
3, 211920, Note_on_c, 1, 51, 70
3, 211920, Note_on_c, 1, 63, 70
3, 211974, Note_off_c, 1, 63, 64
3, 211974, Note_off_c, 1, 51, 64
3, 211974, Note_off_c, 1, 58, 64
3, 211980, Note_on_c, 1, 51, 70
3, 212034, Note_off_c, 1, 51, 64
3, 212040, Note_on_c, 1, 51, 70
3, 212094, Note_off_c, 1, 51, 64
3, 212100, Note_on_c, 1, 51, 70
3, 212154, Note_off_c, 1, 51, 64
3, 212160, Note_on_c, 1, 51, 70
3, 212214, Note_off_c, 1, 51, 64
3, 212220, Note_on_c, 1, 51, 70
3, 212220, Note_on_c, 1, 49, 70
3, 212274, Note_off_c, 1, 49, 64
3, 212274, Note_off_c, 1, 51, 64
3, 212280, Note_on_c, 1, 51, 70
3, 212280, Note_on_c, 1, 47, 70
3, 212334, Note_off_c, 1, 47, 64
3, 212334, Note_off_c, 1, 51, 64
3, 212340, Note_on_c, 1, 51, 70
3, 212340, Note_on_c, 1, 47, 70
3, 212394, Note_off_c, 1, 47, 64
3, 212394, Note_off_c, 1, 51, 64
3, 212400, Note_on_c, 1, 51, 70
3, 212400, Note_on_c, 1, 47, 70
3, 212454, Note_off_c, 1, 47, 64
3, 212454, Note_off_c, 1, 51, 64
3, 212460, Note_on_c, 1, 47, 70
3, 212460, Note_on_c, 1, 51, 70
3, 212514, Note_off_c, 1, 51, 64
3, 212514, Note_off_c, 1, 47, 64
3, 212520, Note_on_c, 1, 51, 70
3, 212520, Note_on_c, 1, 47, 70
3, 212574, Note_off_c, 1, 47, 64
3, 212574, Note_off_c, 1, 51, 64
3, 212580, Note_on_c, 1, 47, 70
3, 212580, Note_on_c, 1, 51, 70
3, 212634, Note_off_c, 1, 51, 64
3, 212634, Note_off_c, 1, 47, 64
3, 212640, Note_on_c, 1, 46, 70
3, 212640, Note_on_c, 1, 51, 70
3, 212694, Note_off_c, 1, 51, 64
3, 212694, Note_off_c, 1, 46, 64
3, 212700, Note_on_c, 1, 46, 70
3, 212700, Note_on_c, 1, 51, 70
3, 212754, Note_off_c, 1, 51, 64
3, 212754, Note_off_c, 1, 46, 64
3, 212760, Note_on_c, 1, 51, 70
3, 212760, Note_on_c, 1, 46, 70
3, 212814, Note_off_c, 1, 46, 64
3, 212814, Note_off_c, 1, 51, 64
3, 212820, Note_on_c, 1, 51, 70
3, 212820, Note_on_c, 1, 46, 70
3, 212874, Note_off_c, 1, 46, 64
3, 212874, Note_off_c, 1, 51, 64
3, 212880, Note_on_c, 1, 51, 70
3, 212880, Note_on_c, 1, 46, 70
3, 212934, Note_off_c, 1, 46, 64
3, 212934, Note_off_c, 1, 51, 64
3, 212940, Note_on_c, 1, 51, 70
3, 212940, Note_on_c, 1, 46, 70
3, 212994, Note_off_c, 1, 46, 64
3, 212994, Note_off_c, 1, 51, 64
3, 213000, Note_on_c, 1, 51, 70
3, 213000, Note_on_c, 1, 44, 70
3, 213054, Note_off_c, 1, 44, 64
3, 213054, Note_off_c, 1, 51, 64
3, 213060, Note_on_c, 1, 44, 70
3, 213060, Note_on_c, 1, 51, 70
3, 213114, Note_off_c, 1, 51, 64
3, 213114, Note_off_c, 1, 44, 64
3, 213120, Note_on_c, 1, 44, 70
3, 213120, Note_on_c, 1, 51, 70
3, 213174, Note_off_c, 1, 51, 64
3, 213174, Note_off_c, 1, 44, 64
3, 213180, Note_on_c, 1, 44, 70
3, 213180, Note_on_c, 1, 51, 70
3, 213234, Note_off_c, 1, 51, 64
3, 213234, Note_off_c, 1, 44, 64
3, 213240, Note_on_c, 1, 44, 70
3, 213240, Note_on_c, 1, 51, 70
3, 213294, Note_off_c, 1, 51, 64
3, 213294, Note_off_c, 1, 44, 64
3, 213300, Note_on_c, 1, 51, 70
3, 213300, Note_on_c, 1, 44, 70
3, 213354, Note_off_c, 1, 44, 64
3, 213354, Note_off_c, 1, 51, 64
3, 213360, Note_on_c, 1, 51, 70
3, 213360, Note_on_c, 1, 43, 70
3, 213414, Note_off_c, 1, 43, 64
3, 213414, Note_off_c, 1, 51, 64
3, 213420, Note_on_c, 1, 51, 70
3, 213420, Note_on_c, 1, 43, 70
3, 213474, Note_off_c, 1, 43, 64
3, 213474, Note_off_c, 1, 51, 64
3, 213480, Note_on_c, 1, 43, 70
3, 213480, Note_on_c, 1, 51, 70
3, 213534, Note_off_c, 1, 51, 64
3, 213534, Note_off_c, 1, 43, 64
3, 213540, Note_on_c, 1, 51, 70
3, 213540, Note_on_c, 1, 42, 70
3, 213594, Note_off_c, 1, 42, 64
3, 213594, Note_off_c, 1, 51, 64
3, 213600, Note_on_c, 1, 42, 70
3, 213600, Note_on_c, 1, 51, 70
3, 213654, Note_off_c, 1, 51, 64
3, 213654, Note_off_c, 1, 42, 64
3, 213660, Note_on_c, 1, 56, 70
3, 213660, Note_on_c, 1, 54, 70
3, 213714, Note_off_c, 1, 54, 64
3, 213714, Note_off_c, 1, 56, 64
3, 213720, Note_on_c, 1, 52, 70
3, 213720, Note_on_c, 1, 56, 70
3, 213774, Note_off_c, 1, 56, 64
3, 213774, Note_off_c, 1, 52, 64
3, 213780, Note_on_c, 1, 61, 70
3, 213780, Note_on_c, 1, 52, 70
3, 213780, Note_on_c, 1, 56, 70
3, 213834, Note_off_c, 1, 56, 64
3, 213834, Note_off_c, 1, 52, 64
3, 213834, Note_off_c, 1, 61, 64
3, 213840, Note_on_c, 1, 56, 70
3, 213840, Note_on_c, 1, 61, 70
3, 213840, Note_on_c, 1, 52, 70
3, 213894, Note_off_c, 1, 52, 64
3, 213894, Note_off_c, 1, 61, 64
3, 213894, Note_off_c, 1, 56, 64
3, 213900, Note_on_c, 1, 56, 70
3, 213900, Note_on_c, 1, 61, 70
3, 213900, Note_on_c, 1, 52, 70
3, 213954, Note_off_c, 1, 52, 64
3, 213954, Note_off_c, 1, 61, 64
3, 213954, Note_off_c, 1, 56, 64
3, 213960, Note_on_c, 1, 51, 70
3, 213960, Note_on_c, 1, 56, 70
3, 213960, Note_on_c, 1, 60, 70
3, 214014, Note_off_c, 1, 60, 64
3, 214014, Note_off_c, 1, 56, 64
3, 214014, Note_off_c, 1, 51, 64
3, 214020, Note_on_c, 1, 61, 70
3, 214020, Note_on_c, 1, 56, 70
3, 214020, Note_on_c, 1, 49, 70
3, 214074, Note_off_c, 1, 49, 64
3, 214074, Note_off_c, 1, 56, 64
3, 214074, Note_off_c, 1, 61, 64
3, 214080, Note_on_c, 1, 56, 70
3, 214080, Note_on_c, 1, 59, 70
3, 214080, Note_on_c, 1, 51, 70
3, 214134, Note_off_c, 1, 51, 64
3, 214134, Note_off_c, 1, 59, 64
3, 214134, Note_off_c, 1, 56, 64
3, 214140, Note_on_c, 1, 51, 70
3, 214140, Note_on_c, 1, 59, 70
3, 214140, Note_on_c, 1, 56, 70
3, 214194, Note_off_c, 1, 56, 64
3, 214194, Note_off_c, 1, 59, 64
3, 214194, Note_off_c, 1, 51, 64
3, 214200, Note_on_c, 1, 51, 70
3, 214200, Note_on_c, 1, 56, 70
3, 214200, Note_on_c, 1, 59, 70
3, 214254, Note_off_c, 1, 59, 64
3, 214254, Note_off_c, 1, 56, 64
3, 214254, Note_off_c, 1, 51, 64
3, 214260, Note_on_c, 1, 55, 70
3, 214260, Note_on_c, 1, 58, 70
3, 214260, Note_on_c, 1, 61, 70
3, 214260, Note_on_c, 1, 51, 70
3, 214314, Note_off_c, 1, 51, 64
3, 214314, Note_off_c, 1, 61, 64
3, 214314, Note_off_c, 1, 58, 64
3, 214314, Note_off_c, 1, 55, 64
3, 214320, Note_on_c, 1, 55, 70
3, 214320, Note_on_c, 1, 61, 70
3, 214320, Note_on_c, 1, 58, 70
3, 214320, Note_on_c, 1, 51, 70
3, 214374, Note_off_c, 1, 51, 64
3, 214374, Note_off_c, 1, 58, 64
3, 214374, Note_off_c, 1, 61, 64
3, 214374, Note_off_c, 1, 55, 64
3, 214380, Note_on_c, 1, 51, 70
3, 214380, Note_on_c, 1, 55, 70
3, 214380, Note_on_c, 1, 58, 70
3, 214380, Note_on_c, 1, 61, 70
3, 214434, Note_off_c, 1, 61, 64
3, 214434, Note_off_c, 1, 58, 64
3, 214434, Note_off_c, 1, 55, 64
3, 214434, Note_off_c, 1, 51, 64
3, 214440, Note_on_c, 1, 58, 70
3, 214440, Note_on_c, 1, 61, 70
3, 214440, Note_on_c, 1, 52, 70
3, 214440, Note_on_c, 1, 55, 70
3, 214494, Note_off_c, 1, 55, 64
3, 214494, Note_off_c, 1, 52, 64
3, 214494, Note_off_c, 1, 61, 64
3, 214494, Note_off_c, 1, 58, 64
3, 214500, Note_on_c, 1, 61, 70
3, 214500, Note_on_c, 1, 55, 70
3, 214500, Note_on_c, 1, 52, 70
3, 214500, Note_on_c, 1, 58, 70
3, 214554, Note_off_c, 1, 58, 64
3, 214554, Note_off_c, 1, 52, 64
3, 214554, Note_off_c, 1, 55, 64
3, 214554, Note_off_c, 1, 61, 64
3, 214560, Note_on_c, 1, 58, 70
3, 214560, Note_on_c, 1, 55, 70
3, 214560, Note_on_c, 1, 61, 70
3, 214560, Note_on_c, 1, 52, 70
3, 214614, Note_off_c, 1, 52, 64
3, 214614, Note_off_c, 1, 61, 64
3, 214614, Note_off_c, 1, 55, 64
3, 214614, Note_off_c, 1, 58, 64
3, 214620, Note_on_c, 1, 55, 70
3, 214620, Note_on_c, 1, 61, 70
3, 214620, Note_on_c, 1, 58, 70
3, 214620, Note_on_c, 1, 51, 70
3, 214674, Note_off_c, 1, 51, 64
3, 214674, Note_off_c, 1, 58, 64
3, 214674, Note_off_c, 1, 61, 64
3, 214674, Note_off_c, 1, 55, 64
3, 214680, Note_on_c, 1, 55, 70
3, 214680, Note_on_c, 1, 58, 70
3, 214680, Note_on_c, 1, 61, 70
3, 214680, Note_on_c, 1, 51, 70
3, 214734, Note_off_c, 1, 51, 64
3, 214734, Note_off_c, 1, 61, 64
3, 214734, Note_off_c, 1, 58, 64
3, 214734, Note_off_c, 1, 55, 64
3, 214740, Note_on_c, 1, 51, 70
3, 214740, Note_on_c, 1, 58, 70
3, 214740, Note_on_c, 1, 61, 70
3, 214740, Note_on_c, 1, 55, 70
3, 214794, Note_off_c, 1, 55, 64
3, 214794, Note_off_c, 1, 61, 64
3, 214794, Note_off_c, 1, 58, 64
3, 214794, Note_off_c, 1, 51, 64
3, 214800, Note_on_c, 1, 56, 70
3, 214800, Note_on_c, 1, 59, 70
3, 214962, Note_off_c, 1, 59, 64
3, 214962, Note_off_c, 1, 56, 64
3, 214980, Note_on_c, 1, 35, 70
3, 214980, Note_on_c, 1, 47, 70
3, 215156, Note_off_c, 1, 47, 64
3, 215156, Note_off_c, 1, 35, 64
3, 215160, Note_on_c, 1, 46, 80
3, 215160, Note_on_c, 1, 34, 80
3, 215336, Note_off_c, 1, 34, 64
3, 215336, Note_off_c, 1, 46, 64
3, 215340, Note_on_c, 1, 39, 80
3, 215516, Note_off_c, 1, 39, 64
3, 215520, Note_on_c, 1, 32, 80
3, 215520, Note_on_c, 1, 44, 80
3, 215638, Note_off_c, 1, 44, 64
3, 215638, Note_off_c, 1, 32, 64
3, 215700, Note_on_c, 1, 32, 80
3, 215700, Control_c, 1, 64, 127
3, 215700, Note_on_c, 1, 44, 80
3, 215754, Note_off_c, 1, 44, 64
3, 215754, Note_off_c, 1, 32, 64
3, 215880, Note_on_c, 1, 44, 80
3, 215880, Note_on_c, 1, 32, 80
3, 216192, Control_c, 1, 93, 0
3, 216192, Control_c, 1, 91, 0
3, 216192, Control_c, 1, 10, 64
3, 216192, Control_c, 1, 64, 0
3, 216204, Note_off_c, 1, 32, 64
3, 216204, Note_off_c, 1, 44, 64
3, 216600, Control_c, 1, 93, 0
3, 216600, Control_c, 1, 91, 12
3, 216600, Control_c, 1, 10, 56
3, 216600, Note_on_c, 1, 56, 80
3, 216942, Note_off_c, 1, 56, 64
3, 216960, Note_on_c, 1, 61, 80
3, 217302, Note_off_c, 1, 61, 64
3, 217320, Note_on_c, 1, 58, 80
3, 217662, Note_off_c, 1, 58, 64
3, 217680, Note_on_c, 1, 63, 80
3, 218022, Note_off_c, 1, 63, 64
3, 218040, Note_on_c, 1, 60, 80
3, 218382, Note_off_c, 1, 60, 64
3, 218400, Note_on_c, 1, 65, 80
3, 218742, Note_off_c, 1, 65, 64
3, 218760, Note_on_c, 1, 63, 80
3, 218988, Note_off_c, 1, 63, 64
3, 219000, Note_on_c, 1, 61, 80
3, 219114, Note_off_c, 1, 61, 64
3, 219120, Note_on_c, 1, 60, 80
3, 219594, Note_off_c, 1, 60, 64
3, 219600, Note_on_c, 1, 56, 80
3, 219714, Note_off_c, 1, 56, 64
3, 219720, Note_on_c, 1, 55, 80
3, 219834, Note_off_c, 1, 55, 64
3, 219840, Note_on_c, 1, 53, 80
3, 219954, Note_off_c, 1, 53, 64
3, 219960, Note_on_c, 1, 55, 80
3, 220074, Note_off_c, 1, 55, 64
3, 220080, Note_on_c, 1, 51, 80
3, 220194, Note_off_c, 1, 51, 64
3, 220200, Note_on_c, 1, 50, 80
3, 220314, Note_off_c, 1, 50, 64
3, 220320, Note_on_c, 1, 51, 80
3, 220434, Note_off_c, 1, 51, 64
3, 220440, Note_on_c, 1, 53, 80
3, 220554, Note_off_c, 1, 53, 64
3, 220560, Note_on_c, 1, 55, 80
3, 220674, Note_off_c, 1, 55, 64
3, 220680, Note_on_c, 1, 56, 80
3, 220794, Note_off_c, 1, 56, 64
3, 220800, Note_on_c, 1, 53, 80
3, 220914, Note_off_c, 1, 53, 64
3, 220920, Note_on_c, 1, 52, 80
3, 221034, Note_off_c, 1, 52, 64
3, 221040, Note_on_c, 1, 53, 80
3, 221154, Note_off_c, 1, 53, 64
3, 221160, Note_on_c, 1, 55, 80
3, 221274, Note_off_c, 1, 55, 64
3, 221280, Note_on_c, 1, 56, 80
3, 221394, Note_off_c, 1, 56, 64
3, 221400, Note_on_c, 1, 55, 80
3, 221514, Note_off_c, 1, 55, 64
3, 221520, Note_on_c, 1, 56, 80
3, 221634, Note_off_c, 1, 56, 64
3, 221640, Note_on_c, 1, 58, 80
3, 221754, Note_off_c, 1, 58, 64
3, 221760, Note_on_c, 1, 60, 80
3, 221874, Note_off_c, 1, 60, 64
3, 221880, Note_on_c, 1, 62, 80
3, 221994, Note_off_c, 1, 62, 64
3, 222000, Note_on_c, 1, 63, 80
3, 222114, Note_off_c, 1, 63, 64
3, 222120, Note_on_c, 1, 65, 80
3, 222234, Note_off_c, 1, 65, 64
3, 222240, Note_on_c, 1, 62, 80
3, 222354, Note_off_c, 1, 62, 64
3, 222360, Note_on_c, 1, 63, 80
3, 222474, Note_off_c, 1, 63, 64
3, 222480, Note_on_c, 1, 65, 80
3, 222594, Note_off_c, 1, 65, 64
3, 222600, Note_on_c, 1, 61, 80
3, 222714, Note_off_c, 1, 61, 64
3, 222720, Note_on_c, 1, 60, 80
3, 222834, Note_off_c, 1, 60, 64
3, 222840, Note_on_c, 1, 63, 80
3, 222954, Note_off_c, 1, 63, 64
3, 222960, Note_on_c, 1, 61, 80
3, 223074, Note_off_c, 1, 61, 64
3, 223080, Note_on_c, 1, 60, 80
3, 223194, Note_off_c, 1, 60, 64
3, 223200, Note_on_c, 1, 61, 80
3, 223314, Note_off_c, 1, 61, 64
3, 223320, Note_on_c, 1, 63, 80
3, 223554, Note_off_c, 1, 63, 64
3, 223560, Note_on_c, 1, 60, 80
3, 223674, Note_off_c, 1, 60, 64
3, 223680, Note_on_c, 1, 61, 80
3, 223914, Note_off_c, 1, 61, 64
3, 223920, Note_on_c, 1, 59, 80
3, 224034, Note_off_c, 1, 59, 64
3, 224040, Note_on_c, 1, 60, 80
3, 224274, Note_off_c, 1, 60, 64
3, 224280, Note_on_c, 1, 58, 80
3, 224394, Note_off_c, 1, 58, 64
3, 224400, Note_on_c, 1, 60, 80
3, 224514, Note_off_c, 1, 60, 64
3, 224520, Note_on_c, 1, 63, 80
3, 224748, Note_off_c, 1, 63, 64
3, 224760, Note_on_c, 1, 61, 80
3, 224874, Note_off_c, 1, 61, 64
3, 224880, Note_on_c, 1, 60, 80
3, 225108, Note_off_c, 1, 60, 64
3, 225120, Note_on_c, 1, 48, 80
3, 225234, Note_off_c, 1, 48, 64
3, 225240, Note_on_c, 1, 53, 80
3, 225468, Note_off_c, 1, 53, 64
3, 225480, Note_on_c, 1, 51, 80
3, 225594, Note_off_c, 1, 51, 64
3, 225600, Note_on_c, 1, 49, 80
3, 225828, Note_off_c, 1, 49, 64
3, 225840, Note_on_c, 1, 50, 80
3, 225954, Note_off_c, 1, 50, 64
3, 225960, Note_on_c, 1, 51, 80
3, 226074, Note_off_c, 1, 51, 64
3, 226080, Note_on_c, 1, 53, 80
3, 226194, Note_off_c, 1, 53, 64
3, 226200, Note_on_c, 1, 55, 80
3, 226314, Note_off_c, 1, 55, 64
3, 226320, Note_on_c, 1, 56, 80
3, 226434, Note_off_c, 1, 56, 64
3, 226440, Note_on_c, 1, 60, 80
3, 226554, Note_off_c, 1, 60, 64
3, 226560, Note_on_c, 1, 58, 80
3, 226674, Note_off_c, 1, 58, 64
3, 226680, Note_on_c, 1, 56, 80
3, 226794, Note_off_c, 1, 56, 64
3, 226800, Note_on_c, 1, 58, 80
3, 226914, Note_off_c, 1, 58, 64
3, 226920, Note_on_c, 1, 55, 80
3, 227034, Note_off_c, 1, 55, 64
3, 227040, Note_on_c, 1, 53, 80
3, 227154, Note_off_c, 1, 53, 64
3, 227160, Note_on_c, 1, 56, 80
3, 227274, Note_off_c, 1, 56, 64
3, 227280, Note_on_c, 1, 55, 80
3, 227394, Note_off_c, 1, 55, 64
3, 227400, Note_on_c, 1, 53, 80
3, 227514, Note_off_c, 1, 53, 64
3, 227520, Note_on_c, 1, 52, 80
3, 227634, Note_off_c, 1, 52, 64
3, 227640, Note_on_c, 1, 53, 80
3, 227754, Note_off_c, 1, 53, 64
3, 227760, Note_on_c, 1, 55, 80
3, 227874, Note_off_c, 1, 55, 64
3, 227880, Note_on_c, 1, 58, 80
3, 227994, Note_off_c, 1, 58, 64
3, 228000, Note_on_c, 1, 56, 80
3, 228114, Note_off_c, 1, 56, 64
3, 228120, Note_on_c, 1, 55, 80
3, 228234, Note_off_c, 1, 55, 64
3, 228240, Note_on_c, 1, 56, 80
3, 228354, Note_off_c, 1, 56, 64
3, 228360, Note_on_c, 1, 53, 80
3, 228474, Note_off_c, 1, 53, 64
3, 228480, Note_on_c, 1, 52, 80
3, 228594, Note_off_c, 1, 52, 64
3, 228600, Note_on_c, 1, 55, 80
3, 228714, Note_off_c, 1, 55, 64
3, 228720, Note_on_c, 1, 53, 80
3, 228834, Note_off_c, 1, 53, 64
3, 228840, Note_on_c, 1, 52, 80
3, 228954, Note_off_c, 1, 52, 64
3, 228960, Note_on_c, 1, 50, 80
3, 229074, Note_off_c, 1, 50, 64
3, 229080, Note_on_c, 1, 52, 80
3, 229194, Note_off_c, 1, 52, 64
3, 229200, Note_on_c, 1, 53, 80
3, 229314, Note_off_c, 1, 53, 64
3, 229320, Note_on_c, 1, 51, 81
3, 229434, Note_off_c, 1, 51, 64
3, 229440, Note_on_c, 1, 50, 82
3, 229554, Note_off_c, 1, 50, 64
3, 229560, Note_on_c, 1, 51, 83
3, 229674, Note_off_c, 1, 51, 64
3, 229680, Note_on_c, 1, 48, 85
3, 229794, Note_off_c, 1, 48, 64
3, 229800, Note_on_c, 1, 44, 86
3, 229914, Note_off_c, 1, 44, 64
3, 229920, Note_on_c, 1, 45, 87
3, 230034, Note_off_c, 1, 45, 64
3, 230040, Note_on_c, 1, 46, 88
3, 230268, Note_off_c, 1, 46, 64
3, 230280, Note_on_c, 1, 51, 91
3, 230280, Note_on_c, 1, 39, 91
3, 230622, Note_off_c, 1, 39, 64
3, 230622, Note_off_c, 1, 51, 64
3, 230640, Note_on_c, 1, 56, 95
3, 230640, Note_on_c, 1, 44, 95
3, 230982, Note_off_c, 1, 44, 64
3, 230982, Note_off_c, 1, 56, 64
3, 231000, Note_on_c, 1, 41, 95
3, 231000, Note_on_c, 1, 53, 95
3, 231342, Note_off_c, 1, 53, 64
3, 231342, Note_off_c, 1, 41, 64
3, 231360, Note_on_c, 1, 58, 95
3, 231360, Note_on_c, 1, 46, 95
3, 231702, Note_off_c, 1, 46, 64
3, 231702, Note_off_c, 1, 58, 64
3, 231720, Note_on_c, 1, 43, 95
3, 231720, Note_on_c, 1, 55, 95
3, 232062, Note_off_c, 1, 55, 64
3, 232062, Note_off_c, 1, 43, 64
3, 232080, Note_on_c, 1, 48, 95
3, 232080, Note_on_c, 1, 60, 95
3, 232422, Note_off_c, 1, 60, 64
3, 232422, Note_off_c, 1, 48, 64
3, 232440, Note_on_c, 1, 46, 95
3, 232440, Note_on_c, 1, 58, 95
3, 232668, Note_off_c, 1, 58, 64
3, 232668, Note_off_c, 1, 46, 64
3, 232680, Note_on_c, 1, 56, 95
3, 232680, Note_on_c, 1, 44, 95
3, 232794, Note_off_c, 1, 44, 64
3, 232794, Note_off_c, 1, 56, 64
3, 232800, Note_on_c, 1, 43, 95
3, 232800, Note_on_c, 1, 55, 95
3, 233142, Note_off_c, 1, 55, 64
3, 233142, Note_off_c, 1, 43, 64
3, 233160, Note_on_c, 1, 46, 104
3, 233160, Note_on_c, 1, 58, 104
3, 233862, Note_off_c, 1, 58, 64
3, 233862, Note_off_c, 1, 46, 64
3, 233880, Note_on_c, 1, 44, 90
3, 233880, Note_on_c, 1, 56, 90
3, 234108, Note_off_c, 1, 56, 64
3, 234108, Note_off_c, 1, 44, 64
3, 234120, Note_on_c, 1, 54, 89
3, 234120, Note_on_c, 1, 42, 89
3, 234234, Note_off_c, 1, 42, 64
3, 234234, Note_off_c, 1, 54, 64
3, 234240, Note_on_c, 1, 41, 88
3, 234240, Note_on_c, 1, 53, 88
3, 234710, Note_off_c, 1, 53, 64
3, 234710, Note_off_c, 1, 41, 64
3, 234720, Note_on_c, 1, 54, 85
3, 234834, Note_off_c, 1, 54, 64
3, 234840, Note_on_c, 1, 53, 95
3, 235074, Note_off_c, 1, 53, 64
3, 235080, Note_on_c, 1, 50, 84
3, 235194, Note_off_c, 1, 50, 64
3, 235200, Note_on_c, 1, 51, 93
3, 235434, Note_off_c, 1, 51, 64
3, 235440, Note_on_c, 1, 53, 82
3, 235554, Note_off_c, 1, 53, 64
3, 235560, Note_on_c, 1, 51, 91
3, 235794, Note_off_c, 1, 51, 64
3, 235800, Note_on_c, 1, 48, 80
3, 235914, Note_off_c, 1, 48, 64
3, 235920, Note_on_c, 1, 49, 80
3, 236154, Note_off_c, 1, 49, 64
3, 236160, Note_on_c, 1, 47, 80
3, 236274, Note_off_c, 1, 47, 64
3, 236280, Note_on_c, 1, 48, 80
3, 236394, Note_off_c, 1, 48, 64
3, 236400, Note_on_c, 1, 46, 80
3, 236514, Note_off_c, 1, 46, 64
3, 236520, Note_on_c, 1, 48, 80
3, 236634, Note_off_c, 1, 48, 64
3, 236640, Note_on_c, 1, 44, 80
3, 236754, Note_off_c, 1, 44, 64
3, 236760, Note_on_c, 1, 43, 80
3, 236874, Note_off_c, 1, 43, 64
3, 236880, Note_on_c, 1, 44, 80
3, 236994, Note_off_c, 1, 44, 64
3, 237000, Note_on_c, 1, 46, 80
3, 237114, Note_off_c, 1, 46, 64
3, 237120, Note_on_c, 1, 48, 80
3, 237234, Note_off_c, 1, 48, 64
3, 237240, Note_on_c, 1, 49, 80
3, 237354, Note_off_c, 1, 49, 64
3, 237360, Note_on_c, 1, 46, 80
3, 237474, Note_off_c, 1, 46, 64
3, 237480, Note_on_c, 1, 45, 80
3, 237594, Note_off_c, 1, 45, 64
3, 237600, Note_on_c, 1, 46, 80
3, 237714, Note_off_c, 1, 46, 64
3, 237720, Note_on_c, 1, 48, 80
3, 237834, Note_off_c, 1, 48, 64
3, 237840, Note_on_c, 1, 49, 80
3, 237954, Note_off_c, 1, 49, 64
3, 237960, Note_on_c, 1, 48, 80
3, 238074, Note_off_c, 1, 48, 64
3, 238080, Note_on_c, 1, 50, 80
3, 238194, Note_off_c, 1, 50, 64
3, 238200, Note_on_c, 1, 51, 80
3, 238314, Note_off_c, 1, 51, 64
3, 238320, Note_on_c, 1, 53, 80
3, 238434, Note_off_c, 1, 53, 64
3, 238440, Note_on_c, 1, 55, 80
3, 238554, Note_off_c, 1, 55, 64
3, 238560, Note_on_c, 1, 56, 80
3, 238674, Note_off_c, 1, 56, 64
3, 238680, Note_on_c, 1, 58, 80
3, 238794, Note_off_c, 1, 58, 64
3, 238800, Note_on_c, 1, 55, 80
3, 238914, Note_off_c, 1, 55, 64
3, 238920, Note_on_c, 1, 53, 80
3, 239034, Note_off_c, 1, 53, 64
3, 239040, Note_on_c, 1, 52, 80
3, 239154, Note_off_c, 1, 52, 64
3, 239160, Note_on_c, 1, 53, 80
3, 239274, Note_off_c, 1, 53, 64
3, 239280, Note_on_c, 1, 55, 80
3, 239394, Note_off_c, 1, 55, 64
3, 239400, Note_on_c, 1, 56, 80
3, 239514, Note_off_c, 1, 56, 64
3, 239520, Note_on_c, 1, 53, 80
3, 239634, Note_off_c, 1, 53, 64
3, 239640, Note_on_c, 1, 52, 80
3, 239754, Note_off_c, 1, 52, 64
3, 239760, Note_on_c, 1, 50, 80
3, 239874, Note_off_c, 1, 50, 64
3, 239880, Note_on_c, 1, 52, 80
3, 239994, Note_off_c, 1, 52, 64
3, 240000, Note_on_c, 1, 53, 80
3, 240228, Note_off_c, 1, 53, 64
3, 240240, Note_on_c, 1, 51, 80
3, 240354, Note_off_c, 1, 51, 64
3, 240360, Note_on_c, 1, 49, 80
3, 240588, Note_off_c, 1, 49, 64
3, 240600, Note_on_c, 1, 48, 80
3, 240714, Note_off_c, 1, 48, 64
3, 240720, Note_on_c, 1, 46, 80
3, 240948, Note_off_c, 1, 46, 64
3, 240960, Note_on_c, 1, 47, 80
3, 241074, Note_off_c, 1, 47, 64
3, 241080, Note_on_c, 1, 48, 80
3, 241308, Note_off_c, 1, 48, 64
3, 241320, Note_on_c, 1, 46, 80
3, 241434, Note_off_c, 1, 46, 64
3, 241440, Note_on_c, 1, 44, 80
3, 241668, Note_off_c, 1, 44, 64
3, 241680, Note_on_c, 1, 45, 80
3, 241794, Note_off_c, 1, 45, 64
3, 241800, Note_on_c, 1, 46, 80
3, 242028, Note_off_c, 1, 46, 64
3, 242040, Note_on_c, 1, 44, 80
3, 242154, Note_off_c, 1, 44, 64
3, 242160, Note_on_c, 1, 43, 80
3, 242274, Note_off_c, 1, 43, 64
3, 242280, Note_on_c, 1, 44, 80
3, 242394, Note_off_c, 1, 44, 64
3, 242400, Note_on_c, 1, 43, 80
3, 242514, Note_off_c, 1, 43, 64
3, 242520, Note_on_c, 1, 41, 80
3, 242634, Note_off_c, 1, 41, 64
3, 242640, Note_on_c, 1, 39, 80
3, 242754, Note_off_c, 1, 39, 64
3, 242760, Note_on_c, 1, 37, 80
3, 242874, Note_off_c, 1, 37, 64
3, 242880, Note_on_c, 1, 36, 80
3, 242994, Note_off_c, 1, 36, 64
3, 243000, Note_on_c, 1, 38, 80
3, 243114, Note_off_c, 1, 38, 64
3, 243120, Note_on_c, 1, 34, 80
3, 243234, Note_off_c, 1, 34, 64
3, 243240, Note_on_c, 1, 33, 80
3, 243354, Note_off_c, 1, 33, 64
3, 243360, Note_on_c, 1, 34, 80
3, 243474, Note_off_c, 1, 34, 64
3, 243480, Note_on_c, 1, 36, 80
3, 243594, Note_off_c, 1, 36, 64
3, 243600, Note_on_c, 1, 37, 80
3, 243714, Note_off_c, 1, 37, 64
3, 243720, Note_on_c, 1, 39, 80
3, 243834, Note_off_c, 1, 39, 64
3, 243840, Note_on_c, 1, 36, 80
3, 243954, Note_off_c, 1, 36, 64
3, 243960, Note_on_c, 1, 34, 80
3, 244074, Note_off_c, 1, 34, 64
3, 244080, Note_on_c, 1, 36, 80
3, 244194, Note_off_c, 1, 36, 64
3, 244200, Note_on_c, 1, 37, 90
3, 244434, Note_off_c, 1, 37, 64
3, 244440, Note_on_c, 1, 36, 80
3, 244554, Note_off_c, 1, 36, 64
3, 244560, Note_on_c, 1, 39, 80
3, 244674, Note_off_c, 1, 39, 64
3, 244680, Note_on_c, 1, 37, 80
3, 244794, Note_off_c, 1, 37, 64
3, 244800, Note_on_c, 1, 41, 80
3, 244914, Note_off_c, 1, 41, 64
3, 244920, Note_on_c, 1, 38, 80
3, 245034, Note_off_c, 1, 38, 64
3, 245040, Note_on_c, 1, 39, 80
3, 245154, Note_off_c, 1, 39, 64
3, 245160, Note_on_c, 1, 43, 80
3, 245274, Note_off_c, 1, 43, 64
3, 245280, Note_on_c, 1, 41, 81
3, 245394, Note_off_c, 1, 41, 64
3, 245400, Note_on_c, 1, 39, 81
3, 245514, Note_off_c, 1, 39, 64
3, 245520, Note_on_c, 1, 38, 82
3, 245634, Note_off_c, 1, 38, 64
3, 245640, Note_on_c, 1, 39, 83
3, 245754, Note_off_c, 1, 39, 64
3, 245760, Note_on_c, 1, 40, 83
3, 245874, Note_off_c, 1, 40, 64
3, 245880, Note_on_c, 1, 43, 84
3, 245994, Note_off_c, 1, 43, 64
3, 246000, Note_on_c, 1, 41, 85
3, 246114, Note_off_c, 1, 41, 64
3, 246120, Note_on_c, 1, 40, 85
3, 246234, Note_off_c, 1, 40, 64
3, 246240, Note_on_c, 1, 38, 86
3, 246354, Note_off_c, 1, 38, 64
3, 246360, Note_on_c, 1, 40, 86
3, 246474, Note_off_c, 1, 40, 64
3, 246480, Note_on_c, 1, 41, 87
3, 246594, Note_off_c, 1, 41, 64
3, 246600, Note_on_c, 1, 45, 88
3, 246714, Note_off_c, 1, 45, 64
3, 246720, Note_on_c, 1, 43, 88
3, 246834, Note_off_c, 1, 43, 64
3, 246840, Note_on_c, 1, 41, 89
3, 246954, Note_off_c, 1, 41, 64
3, 246960, Note_on_c, 1, 43, 90
3, 247074, Note_off_c, 1, 43, 64
3, 247080, Note_on_c, 1, 44, 90
3, 247194, Note_off_c, 1, 44, 64
3, 247200, Note_on_c, 1, 42, 91
3, 247314, Note_off_c, 1, 42, 64
3, 247320, Note_on_c, 1, 45, 91
3, 247434, Note_off_c, 1, 45, 64
3, 247440, Note_on_c, 1, 43, 92
3, 247554, Note_off_c, 1, 43, 64
3, 247560, Note_on_c, 1, 42, 93
3, 247674, Note_off_c, 1, 42, 64
3, 247680, Note_on_c, 1, 43, 93
3, 247794, Note_off_c, 1, 43, 64
3, 247800, Note_on_c, 1, 45, 94
3, 247914, Note_off_c, 1, 45, 64
3, 247920, Note_on_c, 1, 43, 95
3, 248034, Note_off_c, 1, 43, 64
3, 248040, Note_on_c, 1, 47, 95
3, 248154, Note_off_c, 1, 47, 64
3, 248160, Note_on_c, 1, 44, 95
3, 248274, Note_off_c, 1, 44, 64
3, 248280, Note_on_c, 1, 43, 95
3, 248394, Note_off_c, 1, 43, 64
3, 248400, Note_on_c, 1, 44, 95
3, 248514, Note_off_c, 1, 44, 64
3, 248520, Note_on_c, 1, 47, 95
3, 248634, Note_off_c, 1, 47, 64
3, 248640, Note_on_c, 1, 47, 95
3, 248754, Note_off_c, 1, 47, 64
3, 248760, Note_on_c, 1, 48, 95
3, 248874, Note_off_c, 1, 48, 64
3, 248880, Note_on_c, 1, 49, 95
3, 248994, Note_off_c, 1, 49, 64
3, 250080, Note_on_c, 1, 43, 95
3, 250080, Note_on_c, 1, 31, 95
3, 250764, Note_off_c, 1, 31, 64
3, 250764, Note_off_c, 1, 43, 64
3, 250800, Note_on_c, 1, 36, 95
3, 250800, Note_on_c, 1, 48, 95
3, 251142, Note_off_c, 1, 48, 64
3, 251142, Note_off_c, 1, 36, 64
3, 251160, Note_on_c, 1, 33, 95
3, 251160, Note_on_c, 1, 45, 95
3, 251502, Note_off_c, 1, 45, 64
3, 251502, Note_off_c, 1, 33, 64
3, 251520, Note_on_c, 1, 38, 95
3, 251520, Note_on_c, 1, 50, 95
3, 251862, Note_off_c, 1, 50, 64
3, 251862, Note_off_c, 1, 38, 64
3, 251880, Note_on_c, 1, 35, 95
3, 251880, Note_on_c, 1, 47, 95
3, 252222, Note_off_c, 1, 47, 64
3, 252222, Note_off_c, 1, 35, 64
3, 252240, Note_on_c, 1, 39, 95
3, 252240, Note_on_c, 1, 51, 95
3, 252582, Note_off_c, 1, 51, 64
3, 252582, Note_off_c, 1, 39, 64
3, 252600, Note_on_c, 1, 48, 96
3, 252600, Note_on_c, 1, 36, 96
3, 252942, Note_off_c, 1, 36, 64
3, 252942, Note_off_c, 1, 48, 64
3, 252960, Note_on_c, 1, 41, 97
3, 252960, Note_on_c, 1, 53, 97
3, 253302, Note_off_c, 1, 53, 64
3, 253302, Note_off_c, 1, 41, 64
3, 253320, Note_on_c, 1, 50, 98
3, 253320, Note_on_c, 1, 38, 98
3, 253662, Note_off_c, 1, 38, 64
3, 253662, Note_off_c, 1, 50, 64
3, 253680, Note_on_c, 1, 43, 99
3, 253680, Note_on_c, 1, 55, 99
3, 254022, Note_off_c, 1, 55, 64
3, 254022, Note_off_c, 1, 43, 64
3, 254040, Note_on_c, 1, 52, 100
3, 254040, Note_on_c, 1, 40, 100
3, 254382, Note_off_c, 1, 40, 64
3, 254382, Note_off_c, 1, 52, 64
3, 254400, Note_on_c, 1, 45, 101
3, 254400, Note_on_c, 1, 57, 101
3, 254628, Note_off_c, 1, 57, 64
3, 254628, Note_off_c, 1, 45, 64
3, 254640, Note_on_c, 1, 43, 101
3, 254640, Note_on_c, 1, 55, 101
3, 254754, Note_off_c, 1, 55, 64
3, 254754, Note_off_c, 1, 43, 64
3, 254760, Note_on_c, 1, 53, 102
3, 254760, Note_on_c, 1, 41, 102
3, 254874, Note_off_c, 1, 41, 64
3, 254874, Note_off_c, 1, 53, 64
3, 254880, Note_on_c, 1, 43, 102
3, 254880, Note_on_c, 1, 55, 102
3, 254994, Note_off_c, 1, 55, 64
3, 254994, Note_off_c, 1, 43, 64
3, 255000, Note_on_c, 1, 44, 102
3, 255000, Note_on_c, 1, 56, 102
3, 255114, Note_off_c, 1, 56, 64
3, 255114, Note_off_c, 1, 44, 64
3, 255120, Note_on_c, 1, 46, 103
3, 255120, Note_on_c, 1, 58, 103
3, 255462, Note_off_c, 1, 58, 64
3, 255462, Note_off_c, 1, 46, 64
3, 255480, Note_on_c, 1, 60, 104
3, 255480, Note_on_c, 1, 48, 104
3, 255822, Note_off_c, 1, 48, 64
3, 255822, Note_off_c, 1, 60, 64
3, 255840, Note_on_c, 1, 49, 80
3, 255840, Note_on_c, 1, 61, 80
3, 256182, Note_off_c, 1, 61, 64
3, 256182, Note_off_c, 1, 49, 64
3, 256200, Note_on_c, 1, 60, 80
3, 256314, Note_off_c, 1, 60, 64
3, 256320, Note_on_c, 1, 61, 80
3, 256434, Note_off_c, 1, 61, 64
3, 256440, Note_on_c, 1, 63, 80
3, 256674, Note_off_c, 1, 63, 64
3, 256680, Note_on_c, 1, 61, 80
3, 256794, Note_off_c, 1, 61, 64
3, 256800, Note_on_c, 1, 58, 90
3, 257034, Note_off_c, 1, 58, 64
3, 257040, Note_on_c, 1, 57, 80
3, 257154, Note_off_c, 1, 57, 64
3, 257160, Note_on_c, 1, 60, 90
3, 257394, Note_off_c, 1, 60, 64
3, 257400, Note_on_c, 1, 58, 95
3, 257514, Note_off_c, 1, 58, 64
3, 257520, Note_on_c, 1, 61, 95
3, 257634, Note_off_c, 1, 61, 64
3, 257640, Note_on_c, 1, 55, 95
3, 257754, Note_off_c, 1, 55, 64
3, 257760, Note_on_c, 1, 56, 95
3, 257874, Note_off_c, 1, 56, 64
3, 257880, Note_on_c, 1, 58, 105
3, 258114, Note_off_c, 1, 58, 64
3, 258120, Note_on_c, 1, 56, 95
3, 258234, Note_off_c, 1, 56, 64
3, 258240, Note_on_c, 1, 60, 105
3, 258474, Note_off_c, 1, 60, 64
3, 258480, Note_on_c, 1, 58, 95
3, 258594, Note_off_c, 1, 58, 64
3, 258600, Note_on_c, 1, 61, 105
3, 258834, Note_off_c, 1, 61, 64
3, 258840, Note_on_c, 1, 60, 80
3, 258954, Note_off_c, 1, 60, 64
3, 258960, Note_on_c, 1, 63, 80
3, 259074, Note_off_c, 1, 63, 64
3, 259080, Note_on_c, 1, 58, 80
3, 259194, Note_off_c, 1, 58, 64
3, 259200, Note_on_c, 1, 60, 80
3, 259314, Note_off_c, 1, 60, 64
3, 259320, Note_on_c, 1, 61, 90
3, 259554, Note_off_c, 1, 61, 64
3, 259560, Note_on_c, 1, 60, 80
3, 259674, Note_off_c, 1, 60, 64
3, 259680, Note_on_c, 1, 56, 90
3, 259914, Note_off_c, 1, 56, 64
3, 259920, Note_on_c, 1, 55, 80
3, 260034, Note_off_c, 1, 55, 64
3, 260040, Note_on_c, 1, 58, 90
3, 260274, Note_off_c, 1, 58, 64
3, 260280, Note_on_c, 1, 56, 80
3, 260394, Note_off_c, 1, 56, 64
3, 260400, Note_on_c, 1, 54, 80
3, 260514, Note_off_c, 1, 54, 64
3, 260520, Note_on_c, 1, 53, 80
3, 260634, Note_off_c, 1, 53, 64
3, 260640, Note_on_c, 1, 52, 80
3, 260754, Note_off_c, 1, 52, 64
3, 260760, Note_on_c, 1, 53, 80
3, 260874, Note_off_c, 1, 53, 64
3, 260880, Note_on_c, 1, 51, 80
3, 260994, Note_off_c, 1, 51, 64
3, 261000, Note_on_c, 1, 53, 80
3, 261114, Note_off_c, 1, 53, 64
3, 261120, Note_on_c, 1, 49, 90
3, 261354, Note_off_c, 1, 49, 64
3, 261360, Note_on_c, 1, 48, 80
3, 261474, Note_off_c, 1, 48, 64
3, 261480, Note_on_c, 1, 54, 90
3, 261714, Note_off_c, 1, 54, 64
3, 261720, Note_on_c, 1, 53, 80
3, 261834, Note_off_c, 1, 53, 64
3, 261840, Note_on_c, 1, 51, 80
3, 261954, Note_off_c, 1, 51, 64
3, 261960, Note_on_c, 1, 49, 80
3, 262074, Note_off_c, 1, 49, 64
3, 262080, Note_on_c, 1, 58, 80
3, 262194, Note_off_c, 1, 58, 64
3, 262200, Note_on_c, 1, 56, 80
3, 262314, Note_off_c, 1, 56, 64
3, 262320, Note_on_c, 1, 54, 80
3, 262434, Note_off_c, 1, 54, 64
3, 262440, Note_on_c, 1, 51, 80
3, 262554, Note_off_c, 1, 51, 64
3, 262560, Note_on_c, 1, 49, 80
3, 262674, Note_off_c, 1, 49, 64
3, 262680, Note_on_c, 1, 48, 80
3, 262794, Note_off_c, 1, 48, 64
3, 262800, Note_on_c, 1, 49, 80
3, 262914, Note_off_c, 1, 49, 64
3, 262920, Note_on_c, 1, 51, 80
3, 263034, Note_off_c, 1, 51, 64
3, 263040, Note_on_c, 1, 49, 80
3, 263154, Note_off_c, 1, 49, 64
3, 263160, Note_on_c, 1, 51, 80
3, 263274, Note_off_c, 1, 51, 64
3, 263280, Note_on_c, 1, 49, 90
3, 263514, Note_off_c, 1, 49, 64
3, 263520, Note_on_c, 1, 47, 80
3, 263634, Note_off_c, 1, 47, 64
3, 263640, Note_on_c, 1, 48, 90
3, 263874, Note_off_c, 1, 48, 64
3, 263880, Note_on_c, 1, 46, 80
3, 263994, Note_off_c, 1, 46, 64
3, 264000, Note_on_c, 1, 49, 80
3, 264114, Note_off_c, 1, 49, 64
3, 264120, Note_on_c, 1, 51, 80
3, 264234, Note_off_c, 1, 51, 64
3, 264240, Note_on_c, 1, 53, 80
3, 264354, Note_off_c, 1, 53, 64
3, 264360, Note_on_c, 1, 49, 80
3, 264474, Note_off_c, 1, 49, 64
3, 264480, Note_on_c, 1, 48, 80
3, 264594, Note_off_c, 1, 48, 64
3, 264600, Note_on_c, 1, 44, 80
3, 264714, Note_off_c, 1, 44, 64
3, 264840, Note_on_c, 1, 56, 80
3, 265182, Note_off_c, 1, 56, 64
3, 265200, Note_on_c, 1, 61, 80
3, 265542, Note_off_c, 1, 61, 64
3, 265560, Note_on_c, 1, 58, 80
3, 265902, Note_off_c, 1, 58, 64
3, 265920, Note_on_c, 1, 63, 80
3, 266148, Note_off_c, 1, 63, 64
3, 266160, Note_on_c, 1, 60, 80
3, 266394, Note_off_c, 1, 60, 64
3, 266400, Note_on_c, 1, 58, 80
3, 266514, Note_off_c, 1, 58, 64
3, 266520, Note_on_c, 1, 56, 80
3, 266634, Note_off_c, 1, 56, 64
3, 266640, Note_on_c, 1, 55, 80
3, 266754, Note_off_c, 1, 55, 64
3, 266760, Note_on_c, 1, 56, 80
3, 266874, Note_off_c, 1, 56, 64
3, 266880, Note_on_c, 1, 58, 80
3, 266994, Note_off_c, 1, 58, 64
3, 267000, Note_on_c, 1, 60, 80
3, 267114, Note_off_c, 1, 60, 64
3, 267120, Note_on_c, 1, 50, 80
3, 267234, Note_off_c, 1, 50, 64
3, 267240, Note_on_c, 1, 52, 80
3, 267354, Note_off_c, 1, 52, 64
3, 267360, Note_on_c, 1, 53, 80
3, 267474, Note_off_c, 1, 53, 64
3, 267480, Note_on_c, 1, 55, 80
3, 267594, Note_off_c, 1, 55, 64
3, 267600, Note_on_c, 1, 56, 80
3, 267714, Note_off_c, 1, 56, 64
3, 267720, Note_on_c, 1, 58, 80
3, 267834, Note_off_c, 1, 58, 64
3, 267840, Note_on_c, 1, 48, 80
3, 267954, Note_off_c, 1, 48, 64
3, 267960, Note_on_c, 1, 50, 80
3, 268074, Note_off_c, 1, 50, 64
3, 268080, Note_on_c, 1, 51, 80
3, 268308, Note_off_c, 1, 51, 64
3, 268320, Note_on_c, 1, 39, 91
3, 268320, Note_on_c, 1, 51, 91
3, 269028, Note_off_c, 1, 51, 64
3, 269028, Note_off_c, 1, 39, 64
3, 269040, Note_on_c, 1, 39, 96
3, 269040, Note_on_c, 1, 51, 96
3, 269748, Note_off_c, 1, 51, 64
3, 269748, Note_off_c, 1, 39, 64
3, 269760, Note_on_c, 1, 39, 101
3, 269760, Note_on_c, 1, 51, 101
3, 269994, Note_off_c, 1, 51, 64
3, 269994, Note_off_c, 1, 39, 64
3, 270000, Note_on_c, 1, 49, 93
3, 270000, Note_on_c, 1, 37, 93
3, 270091, Note_off_c, 1, 37, 64
3, 270091, Note_off_c, 1, 49, 64
3, 270120, Note_on_c, 1, 48, 94
3, 270120, Note_on_c, 1, 36, 94
3, 270211, Note_off_c, 1, 36, 64
3, 270211, Note_off_c, 1, 48, 64
3, 270240, Note_on_c, 1, 46, 95
3, 270240, Note_on_c, 1, 34, 95
3, 270354, Note_off_c, 1, 34, 64
3, 270354, Note_off_c, 1, 46, 64
3, 270360, Note_on_c, 1, 48, 95
3, 270360, Note_on_c, 1, 36, 95
3, 270451, Note_off_c, 1, 36, 64
3, 270451, Note_off_c, 1, 48, 64
3, 270480, Note_on_c, 1, 37, 95
3, 270480, Note_on_c, 1, 49, 95
3, 270571, Note_off_c, 1, 49, 64
3, 270571, Note_off_c, 1, 37, 64
3, 270600, Note_on_c, 1, 27, 95
3, 270600, Note_on_c, 1, 39, 95
3, 270942, Note_off_c, 1, 39, 64
3, 270942, Note_off_c, 1, 27, 64
3, 270960, Note_on_c, 1, 44, 95
3, 270960, Note_on_c, 1, 32, 95
3, 271302, Note_off_c, 1, 32, 64
3, 271302, Note_off_c, 1, 44, 64
3, 271320, Note_on_c, 1, 29, 95
3, 271320, Note_on_c, 1, 41, 95
3, 271662, Note_off_c, 1, 41, 64
3, 271662, Note_off_c, 1, 29, 64
3, 271680, Note_on_c, 1, 46, 95
3, 271680, Note_on_c, 1, 34, 95
3, 272022, Note_off_c, 1, 34, 64
3, 272022, Note_off_c, 1, 46, 64
3, 272040, Note_on_c, 1, 31, 95
3, 272040, Note_on_c, 1, 43, 95
3, 272382, Note_off_c, 1, 43, 64
3, 272382, Note_off_c, 1, 31, 64
3, 272400, Note_on_c, 1, 36, 105
3, 272400, Note_on_c, 1, 48, 105
3, 272742, Note_off_c, 1, 48, 64
3, 272742, Note_off_c, 1, 36, 64
3, 272760, Note_on_c, 1, 46, 95
3, 272760, Note_on_c, 1, 34, 95
3, 272988, Note_off_c, 1, 34, 64
3, 272988, Note_off_c, 1, 46, 64
3, 273000, Note_on_c, 1, 44, 95
3, 273000, Note_on_c, 1, 32, 95
3, 273114, Note_off_c, 1, 32, 64
3, 273114, Note_off_c, 1, 44, 64
3, 273120, Note_on_c, 1, 43, 95
3, 273120, Note_on_c, 1, 31, 95
3, 273462, Note_off_c, 1, 31, 64
3, 273462, Note_off_c, 1, 43, 64
3, 273480, Note_on_c, 1, 30, 90
3, 273480, Note_on_c, 1, 42, 90
3, 273822, Note_off_c, 1, 42, 64
3, 273822, Note_off_c, 1, 30, 64
3, 273840, Note_on_c, 1, 41, 85
3, 273840, Note_on_c, 1, 29, 85
3, 274068, Note_off_c, 1, 29, 64
3, 274068, Note_off_c, 1, 41, 64
3, 274080, Note_on_c, 1, 40, 87
3, 274080, Note_on_c, 1, 28, 87
3, 274194, Note_off_c, 1, 28, 64
3, 274194, Note_off_c, 1, 40, 64
3, 274200, Note_on_c, 1, 39, 88
3, 274200, Note_on_c, 1, 27, 88
3, 274428, Note_off_c, 1, 27, 64
3, 274428, Note_off_c, 1, 39, 64
3, 274440, Note_on_c, 1, 38, 90
3, 274440, Note_on_c, 1, 26, 90
3, 274554, Note_off_c, 1, 26, 64
3, 274554, Note_off_c, 1, 38, 64
3, 274560, Note_on_c, 1, 36, 91
3, 274560, Note_on_c, 1, 24, 91
3, 274788, Note_off_c, 1, 24, 64
3, 274788, Note_off_c, 1, 36, 64
3, 274800, Note_on_c, 1, 44, 93
3, 274800, Note_on_c, 1, 56, 93
3, 274914, Note_off_c, 1, 56, 64
3, 274914, Note_off_c, 1, 44, 64
3, 274920, Note_on_c, 1, 49, 94
3, 274920, Note_on_c, 1, 61, 94
3, 275148, Note_off_c, 1, 61, 64
3, 275148, Note_off_c, 1, 49, 64
3, 275160, Note_on_c, 1, 46, 96
3, 275160, Note_on_c, 1, 58, 96
3, 275274, Note_off_c, 1, 58, 64
3, 275274, Note_off_c, 1, 46, 64
3, 275280, Note_on_c, 1, 51, 97
3, 275280, Note_on_c, 1, 63, 97
3, 275508, Note_off_c, 1, 63, 64
3, 275508, Note_off_c, 1, 51, 64
3, 275520, Note_on_c, 1, 48, 99
3, 275520, Note_on_c, 1, 60, 99
3, 275634, Note_off_c, 1, 60, 64
3, 275634, Note_off_c, 1, 48, 64
3, 275640, Note_on_c, 1, 53, 100
3, 275640, Note_on_c, 1, 65, 100
3, 275868, Note_off_c, 1, 65, 64
3, 275868, Note_off_c, 1, 53, 64
3, 275880, Note_on_c, 1, 55, 102
3, 275880, Note_on_c, 1, 67, 102
3, 275994, Note_off_c, 1, 67, 64
3, 275994, Note_off_c, 1, 55, 64
3, 276000, Note_on_c, 1, 56, 103
3, 276000, Note_on_c, 1, 68, 103
3, 276228, Note_off_c, 1, 68, 64
3, 276228, Note_off_c, 1, 56, 64
3, 276240, Note_on_c, 1, 52, 105
3, 276240, Note_on_c, 1, 64, 105
3, 276354, Note_off_c, 1, 64, 64
3, 276354, Note_off_c, 1, 52, 64
3, 276360, Note_on_c, 1, 65, 106
3, 276360, Note_on_c, 1, 53, 106
3, 276474, Note_off_c, 1, 53, 64
3, 276474, Note_off_c, 1, 65, 64
3, 276480, Note_on_c, 1, 49, 107
3, 276480, Note_on_c, 1, 61, 107
3, 276594, Note_off_c, 1, 61, 64
3, 276594, Note_off_c, 1, 49, 64
3, 276600, Note_on_c, 1, 50, 108
3, 276600, Note_on_c, 1, 62, 108
3, 276714, Note_off_c, 1, 62, 64
3, 276714, Note_off_c, 1, 50, 64
3, 276720, Note_on_c, 1, 51, 110
3, 276720, Control_c, 1, 64, 127
3, 276720, Note_on_c, 1, 63, 110
3, 277024, Control_c, 1, 64, 0
3, 277062, Note_off_c, 1, 63, 64
3, 277062, Note_off_c, 1, 51, 64
3, 277080, Note_on_c, 1, 39, 107
3, 277080, Control_c, 1, 64, 127
3, 277080, Note_on_c, 1, 51, 107
3, 277308, Note_off_c, 1, 51, 64
3, 277308, Note_off_c, 1, 39, 64
3, 279240, Note_on_c, 1, 39, 84
3, 279240, Note_on_c, 1, 51, 84
3, 279936, Control_c, 1, 64, 0
3, 279942, Note_off_c, 1, 51, 64
3, 279942, Note_off_c, 1, 39, 64
3, 279960, Note_on_c, 1, 38, 80
3, 279960, Control_c, 1, 64, 127
3, 279960, Note_on_c, 1, 50, 80
3, 280131, Note_off_c, 1, 50, 64
3, 280131, Note_off_c, 1, 38, 64
3, 280320, Note_on_c, 1, 50, 80
3, 280377, Note_off_c, 1, 50, 56
3, 280380, Note_on_c, 1, 46, 80
3, 280437, Note_off_c, 1, 46, 56
3, 280440, Note_on_c, 1, 43, 80
3, 280497, Note_off_c, 1, 43, 56
3, 280500, Note_on_c, 1, 38, 80
3, 280557, Note_off_c, 1, 38, 56
3, 280560, Note_on_c, 1, 46, 80
3, 280560, Note_on_c, 1, 35, 80
3, 280560, Note_on_c, 1, 38, 80
3, 280617, Note_off_c, 1, 38, 56
3, 280617, Note_off_c, 1, 35, 56
3, 280617, Note_off_c, 1, 46, 56
3, 280620, Note_on_c, 1, 46, 80
3, 280620, Note_on_c, 1, 35, 80
3, 280620, Note_on_c, 1, 38, 80
3, 280677, Note_off_c, 1, 38, 56
3, 280677, Note_off_c, 1, 35, 56
3, 280677, Note_off_c, 1, 46, 56
3, 280680, Note_on_c, 1, 46, 80
3, 280680, Note_on_c, 1, 38, 80
3, 280680, Note_on_c, 1, 35, 80
3, 280728, Control_c, 1, 64, 0
3, 280737, Note_off_c, 1, 35, 56
3, 280737, Note_off_c, 1, 38, 56
3, 280737, Note_off_c, 1, 46, 56
3, 280740, Note_on_c, 1, 38, 80
3, 280740, Control_c, 1, 64, 127
3, 280740, Note_on_c, 1, 43, 80
3, 280740, Note_on_c, 1, 31, 80
3, 280797, Note_off_c, 1, 31, 56
3, 280797, Note_off_c, 1, 43, 56
3, 280797, Note_off_c, 1, 38, 56
3, 280800, Note_on_c, 1, 46, 80
3, 280800, Note_on_c, 1, 50, 80
3, 280800, Note_on_c, 1, 43, 80
3, 280857, Note_off_c, 1, 43, 56
3, 280857, Note_off_c, 1, 50, 56
3, 280857, Note_off_c, 1, 46, 56
3, 280860, Note_on_c, 1, 46, 80
3, 280860, Note_on_c, 1, 50, 80
3, 280860, Note_on_c, 1, 43, 80
3, 280917, Note_off_c, 1, 43, 56
3, 280917, Note_off_c, 1, 50, 56
3, 280917, Note_off_c, 1, 46, 56
3, 280920, Note_on_c, 1, 46, 80
3, 280920, Note_on_c, 1, 43, 80
3, 280920, Note_on_c, 1, 50, 80
3, 280977, Note_off_c, 1, 50, 56
3, 280977, Note_off_c, 1, 43, 56
3, 280977, Note_off_c, 1, 46, 56
3, 280980, Note_on_c, 1, 46, 80
3, 280980, Note_on_c, 1, 43, 80
3, 280980, Note_on_c, 1, 50, 80
3, 281037, Note_off_c, 1, 50, 56
3, 281037, Note_off_c, 1, 43, 56
3, 281037, Note_off_c, 1, 46, 56
3, 281040, Note_on_c, 1, 43, 80
3, 281040, Note_on_c, 1, 50, 80
3, 281040, Note_on_c, 1, 46, 80
3, 281097, Note_off_c, 1, 46, 56
3, 281097, Note_off_c, 1, 50, 56
3, 281097, Note_off_c, 1, 43, 56
3, 281100, Note_on_c, 1, 46, 80
3, 281100, Note_on_c, 1, 43, 80
3, 281100, Note_on_c, 1, 50, 80
3, 281157, Note_off_c, 1, 50, 56
3, 281157, Note_off_c, 1, 43, 56
3, 281157, Note_off_c, 1, 46, 56
3, 281160, Note_on_c, 1, 50, 80
3, 281160, Note_on_c, 1, 43, 80
3, 281160, Note_on_c, 1, 46, 80
3, 281217, Note_off_c, 1, 46, 56
3, 281217, Note_off_c, 1, 43, 56
3, 281217, Note_off_c, 1, 50, 56
3, 281220, Note_on_c, 1, 43, 80
3, 281220, Note_on_c, 1, 50, 80
3, 281220, Note_on_c, 1, 46, 80
3, 281277, Note_off_c, 1, 46, 56
3, 281277, Note_off_c, 1, 50, 56
3, 281277, Note_off_c, 1, 43, 56
3, 281280, Note_on_c, 1, 46, 80
3, 281280, Note_on_c, 1, 50, 80
3, 281280, Note_on_c, 1, 43, 80
3, 281337, Note_off_c, 1, 43, 56
3, 281337, Note_off_c, 1, 50, 56
3, 281337, Note_off_c, 1, 46, 56
3, 281340, Note_on_c, 1, 50, 80
3, 281340, Control_c, 1, 64, 0
3, 281340, Note_on_c, 1, 46, 80
3, 281340, Note_on_c, 1, 43, 80
3, 281397, Note_off_c, 1, 43, 56
3, 281397, Note_off_c, 1, 46, 56
3, 281397, Note_off_c, 1, 50, 56
3, 281400, Note_on_c, 1, 43, 80
3, 281400, Note_on_c, 1, 50, 80
3, 281400, Note_on_c, 1, 46, 80
3, 281457, Note_off_c, 1, 46, 56
3, 281457, Note_off_c, 1, 50, 56
3, 281457, Note_off_c, 1, 43, 56
3, 281460, Note_on_c, 1, 46, 80
3, 281460, Note_on_c, 1, 50, 80
3, 281460, Note_on_c, 1, 43, 80
3, 281517, Note_off_c, 1, 43, 56
3, 281517, Note_off_c, 1, 50, 56
3, 281517, Note_off_c, 1, 46, 56
3, 281520, Note_on_c, 1, 46, 80
3, 281520, Note_on_c, 1, 50, 80
3, 281520, Note_on_c, 1, 43, 80
3, 281577, Note_off_c, 1, 43, 56
3, 281577, Note_off_c, 1, 50, 56
3, 281577, Note_off_c, 1, 46, 56
3, 281580, Note_on_c, 1, 43, 80
3, 281580, Note_on_c, 1, 46, 80
3, 281580, Note_on_c, 1, 50, 80
3, 281637, Note_off_c, 1, 50, 56
3, 281637, Note_off_c, 1, 46, 56
3, 281637, Note_off_c, 1, 43, 56
3, 281640, Note_on_c, 1, 43, 80
3, 281640, Note_on_c, 1, 50, 80
3, 281640, Note_on_c, 1, 46, 80
3, 281697, Note_off_c, 1, 46, 56
3, 281697, Note_off_c, 1, 50, 56
3, 281697, Note_off_c, 1, 43, 56
3, 281700, Note_on_c, 1, 50, 80
3, 281700, Note_on_c, 1, 43, 80
3, 281700, Note_on_c, 1, 46, 80
3, 281757, Note_off_c, 1, 46, 56
3, 281757, Note_off_c, 1, 43, 56
3, 281757, Note_off_c, 1, 50, 56
3, 281760, Note_on_c, 1, 48, 80
3, 281760, Note_on_c, 1, 50, 80
3, 281760, Note_on_c, 1, 45, 80
3, 281817, Note_off_c, 1, 45, 56
3, 281817, Note_off_c, 1, 50, 56
3, 281817, Note_off_c, 1, 48, 56
3, 281820, Note_on_c, 1, 50, 80
3, 281820, Note_on_c, 1, 45, 80
3, 281820, Note_on_c, 1, 54, 80
3, 281820, Note_on_c, 1, 48, 80
3, 281877, Note_off_c, 1, 48, 56
3, 281877, Note_off_c, 1, 54, 56
3, 281877, Note_off_c, 1, 45, 56
3, 281877, Note_off_c, 1, 50, 56
3, 281880, Note_on_c, 1, 45, 80
3, 281880, Note_on_c, 1, 48, 80
3, 281880, Note_on_c, 1, 50, 80
3, 281880, Note_on_c, 1, 54, 80
3, 281892, Control_c, 1, 64, 127
3, 281937, Note_off_c, 1, 54, 56
3, 281937, Note_off_c, 1, 50, 56
3, 281937, Note_off_c, 1, 48, 56
3, 281937, Note_off_c, 1, 45, 56
3, 281940, Note_on_c, 1, 48, 81
3, 281940, Note_on_c, 1, 50, 81
3, 281940, Note_on_c, 1, 45, 81
3, 281940, Note_on_c, 1, 54, 81
3, 281997, Note_off_c, 1, 54, 56
3, 281997, Note_off_c, 1, 45, 56
3, 281997, Note_off_c, 1, 50, 56
3, 281997, Note_off_c, 1, 48, 56
3, 282000, Note_on_c, 1, 48, 81
3, 282000, Note_on_c, 1, 45, 81
3, 282000, Note_on_c, 1, 50, 81
3, 282000, Note_on_c, 1, 54, 81
3, 282044, Control_c, 1, 64, 0
3, 282057, Note_off_c, 1, 54, 56
3, 282057, Note_off_c, 1, 50, 56
3, 282057, Note_off_c, 1, 45, 56
3, 282057, Note_off_c, 1, 48, 56
3, 282060, Note_on_c, 1, 48, 82
3, 282060, Note_on_c, 1, 50, 82
3, 282060, Note_on_c, 1, 54, 82
3, 282060, Note_on_c, 1, 45, 82
3, 282117, Note_off_c, 1, 45, 56
3, 282117, Note_off_c, 1, 54, 56
3, 282117, Note_off_c, 1, 50, 56
3, 282117, Note_off_c, 1, 48, 56
3, 282120, Note_on_c, 1, 54, 82
3, 282120, Note_on_c, 1, 50, 82
3, 282120, Note_on_c, 1, 45, 82
3, 282120, Note_on_c, 1, 48, 82
3, 282177, Note_off_c, 1, 48, 56
3, 282177, Note_off_c, 1, 45, 56
3, 282177, Note_off_c, 1, 50, 56
3, 282177, Note_off_c, 1, 54, 56
3, 282180, Note_on_c, 1, 45, 82
3, 282180, Note_on_c, 1, 48, 82
3, 282180, Note_on_c, 1, 50, 82
3, 282180, Note_on_c, 1, 54, 82
3, 282237, Note_off_c, 1, 54, 56
3, 282237, Note_off_c, 1, 50, 56
3, 282237, Note_off_c, 1, 48, 56
3, 282237, Note_off_c, 1, 45, 56
3, 282240, Note_on_c, 1, 48, 83
3, 282240, Note_on_c, 1, 50, 83
3, 282240, Note_on_c, 1, 54, 83
3, 282240, Note_on_c, 1, 45, 83
3, 282297, Note_off_c, 1, 45, 56
3, 282297, Note_off_c, 1, 54, 56
3, 282297, Note_off_c, 1, 50, 56
3, 282297, Note_off_c, 1, 48, 56
3, 282300, Note_on_c, 1, 48, 83
3, 282300, Note_on_c, 1, 54, 83
3, 282300, Note_on_c, 1, 50, 83
3, 282300, Note_on_c, 1, 45, 83
3, 282357, Note_off_c, 1, 45, 56
3, 282357, Note_off_c, 1, 50, 56
3, 282357, Note_off_c, 1, 54, 56
3, 282357, Note_off_c, 1, 48, 56
3, 282360, Note_on_c, 1, 54, 84
3, 282360, Note_on_c, 1, 50, 84
3, 282360, Note_on_c, 1, 48, 84
3, 282360, Note_on_c, 1, 45, 84
3, 282417, Note_off_c, 1, 45, 56
3, 282417, Note_off_c, 1, 48, 56
3, 282417, Note_off_c, 1, 50, 56
3, 282417, Note_off_c, 1, 54, 56
3, 282420, Note_on_c, 1, 48, 84
3, 282420, Note_on_c, 1, 50, 84
3, 282420, Note_on_c, 1, 45, 84
3, 282420, Note_on_c, 1, 54, 84
3, 282477, Note_off_c, 1, 54, 56
3, 282477, Note_off_c, 1, 45, 56
3, 282477, Note_off_c, 1, 50, 56
3, 282477, Note_off_c, 1, 48, 56
3, 282480, Note_on_c, 1, 50, 85
3, 282480, Note_on_c, 1, 55, 85
3, 282480, Note_on_c, 1, 46, 85
3, 282537, Note_off_c, 1, 46, 56
3, 282537, Note_off_c, 1, 55, 56
3, 282537, Note_off_c, 1, 50, 56
3, 282540, Note_on_c, 1, 50, 85
3, 282540, Note_on_c, 1, 46, 85
3, 282540, Note_on_c, 1, 55, 85
3, 282597, Note_off_c, 1, 55, 56
3, 282597, Note_off_c, 1, 46, 56
3, 282597, Note_off_c, 1, 50, 56
3, 282600, Note_on_c, 1, 46, 85
3, 282600, Note_on_c, 1, 50, 85
3, 282600, Note_on_c, 1, 55, 85
3, 282657, Note_off_c, 1, 55, 56
3, 282657, Note_off_c, 1, 50, 56
3, 282657, Note_off_c, 1, 46, 56
3, 282660, Note_on_c, 1, 47, 86
3, 282660, Note_on_c, 1, 55, 86
3, 282660, Note_on_c, 1, 50, 86
3, 282717, Note_off_c, 1, 50, 56
3, 282717, Note_off_c, 1, 55, 56
3, 282717, Note_off_c, 1, 47, 56
3, 282720, Note_on_c, 1, 47, 86
3, 282720, Note_on_c, 1, 55, 86
3, 282720, Note_on_c, 1, 50, 86
3, 282777, Note_off_c, 1, 50, 56
3, 282777, Note_off_c, 1, 55, 56
3, 282777, Note_off_c, 1, 47, 56
3, 282780, Note_on_c, 1, 50, 87
3, 282780, Note_on_c, 1, 55, 87
3, 282780, Note_on_c, 1, 47, 87
3, 282837, Note_off_c, 1, 47, 56
3, 282837, Note_off_c, 1, 55, 56
3, 282837, Note_off_c, 1, 50, 56
3, 282840, Note_on_c, 1, 55, 87
3, 282840, Note_on_c, 1, 48, 87
3, 282840, Note_on_c, 1, 51, 87
3, 282897, Note_off_c, 1, 51, 56
3, 282897, Note_off_c, 1, 48, 56
3, 282897, Note_off_c, 1, 55, 56
3, 282900, Note_on_c, 1, 48, 87
3, 282900, Note_on_c, 1, 51, 87
3, 282900, Note_on_c, 1, 55, 87
3, 282957, Note_off_c, 1, 55, 56
3, 282957, Note_off_c, 1, 51, 56
3, 282957, Note_off_c, 1, 48, 56
3, 282960, Note_on_c, 1, 55, 88
3, 282960, Note_on_c, 1, 51, 88
3, 282960, Note_on_c, 1, 48, 88
3, 283017, Note_off_c, 1, 48, 56
3, 283017, Note_off_c, 1, 51, 56
3, 283017, Note_off_c, 1, 55, 56
3, 283020, Note_on_c, 1, 51, 88
3, 283020, Note_on_c, 1, 60, 88
3, 283020, Note_on_c, 1, 55, 88
3, 283077, Note_off_c, 1, 55, 56
3, 283077, Note_off_c, 1, 60, 56
3, 283077, Note_off_c, 1, 51, 56
3, 283080, Note_on_c, 1, 51, 89
3, 283080, Note_on_c, 1, 60, 89
3, 283080, Note_on_c, 1, 55, 89
3, 283137, Note_off_c, 1, 55, 56
3, 283137, Note_off_c, 1, 60, 56
3, 283137, Note_off_c, 1, 51, 56
3, 283140, Note_on_c, 1, 51, 89
3, 283140, Note_on_c, 1, 55, 89
3, 283140, Note_on_c, 1, 60, 89
3, 283197, Note_off_c, 1, 60, 56
3, 283197, Note_off_c, 1, 55, 56
3, 283197, Note_off_c, 1, 51, 56
3, 283200, Note_on_c, 1, 58, 90
3, 283200, Note_on_c, 1, 55, 90
3, 283200, Note_on_c, 1, 50, 90
3, 283257, Note_off_c, 1, 50, 56
3, 283257, Note_off_c, 1, 55, 56
3, 283257, Note_off_c, 1, 58, 56
3, 283260, Note_on_c, 1, 55, 90
3, 283260, Note_on_c, 1, 58, 90
3, 283260, Note_on_c, 1, 50, 90
3, 283317, Note_off_c, 1, 50, 56
3, 283317, Note_off_c, 1, 58, 56
3, 283317, Note_off_c, 1, 55, 56
3, 283320, Note_on_c, 1, 55, 89
3, 283320, Note_on_c, 1, 58, 89
3, 283320, Note_on_c, 1, 50, 89
3, 283377, Note_off_c, 1, 50, 56
3, 283377, Note_off_c, 1, 58, 56
3, 283377, Note_off_c, 1, 55, 56
3, 283380, Note_on_c, 1, 55, 88
3, 283380, Note_on_c, 1, 58, 88
3, 283380, Note_on_c, 1, 50, 88
3, 283437, Note_off_c, 1, 50, 56
3, 283437, Note_off_c, 1, 58, 56
3, 283437, Note_off_c, 1, 55, 56
3, 283440, Note_on_c, 1, 55, 87
3, 283440, Note_on_c, 1, 58, 87
3, 283440, Note_on_c, 1, 50, 87
3, 283497, Note_off_c, 1, 50, 56
3, 283497, Note_off_c, 1, 58, 56
3, 283497, Note_off_c, 1, 55, 56
3, 283500, Note_on_c, 1, 58, 86
3, 283500, Note_on_c, 1, 50, 86
3, 283500, Note_on_c, 1, 55, 86
3, 283557, Note_off_c, 1, 55, 56
3, 283557, Note_off_c, 1, 50, 56
3, 283557, Note_off_c, 1, 58, 56
3, 283560, Note_on_c, 1, 55, 85
3, 283560, Control_c, 1, 64, 127
3, 283560, Note_on_c, 1, 58, 85
3, 283560, Note_on_c, 1, 50, 85
3, 283617, Note_off_c, 1, 50, 56
3, 283617, Note_off_c, 1, 58, 56
3, 283617, Note_off_c, 1, 55, 56
3, 283620, Note_on_c, 1, 55, 85
3, 283620, Note_on_c, 1, 50, 85
3, 283620, Note_on_c, 1, 58, 85
3, 283677, Note_off_c, 1, 58, 56
3, 283677, Note_off_c, 1, 50, 56
3, 283677, Note_off_c, 1, 55, 56
3, 283680, Note_on_c, 1, 58, 84
3, 283680, Note_on_c, 1, 55, 84
3, 283680, Note_on_c, 1, 50, 84
3, 283712, Control_c, 1, 64, 0
3, 283737, Note_off_c, 1, 50, 56
3, 283737, Note_off_c, 1, 55, 56
3, 283737, Note_off_c, 1, 58, 56
3, 283740, Note_on_c, 1, 54, 83
3, 283740, Note_on_c, 1, 57, 83
3, 283740, Note_on_c, 1, 50, 83
3, 283797, Note_off_c, 1, 50, 56
3, 283797, Note_off_c, 1, 57, 56
3, 283797, Note_off_c, 1, 54, 56
3, 283800, Note_on_c, 1, 54, 82
3, 283800, Note_on_c, 1, 50, 82
3, 283800, Note_on_c, 1, 57, 82
3, 283857, Note_off_c, 1, 57, 56
3, 283857, Note_off_c, 1, 50, 56
3, 283857, Note_off_c, 1, 54, 56
3, 283860, Note_on_c, 1, 50, 81
3, 283860, Note_on_c, 1, 54, 81
3, 283860, Note_on_c, 1, 57, 81
3, 283917, Note_off_c, 1, 57, 56
3, 283917, Note_off_c, 1, 54, 56
3, 283917, Note_off_c, 1, 50, 56
3, 283920, Note_on_c, 1, 55, 80
3, 283920, Control_c, 1, 64, 127
3, 283920, Note_on_c, 1, 43, 80
3, 283920, Note_on_c, 1, 46, 80
3, 283920, Note_on_c, 1, 50, 80
3, 283977, Note_off_c, 1, 50, 56
3, 283977, Note_off_c, 1, 46, 56
3, 283977, Note_off_c, 1, 43, 56
3, 283977, Note_off_c, 1, 55, 56
3, 283980, Note_on_c, 1, 43, 80
3, 283980, Note_on_c, 1, 46, 80
3, 283980, Note_on_c, 1, 55, 80
3, 283980, Note_on_c, 1, 50, 80
3, 284037, Note_off_c, 1, 50, 56
3, 284037, Note_off_c, 1, 55, 56
3, 284037, Note_off_c, 1, 46, 56
3, 284037, Note_off_c, 1, 43, 56
3, 284040, Note_on_c, 1, 55, 80
3, 284040, Note_on_c, 1, 50, 80
3, 284040, Note_on_c, 1, 46, 80
3, 284040, Note_on_c, 1, 43, 80
3, 284097, Note_off_c, 1, 43, 56
3, 284097, Note_off_c, 1, 46, 56
3, 284097, Note_off_c, 1, 50, 56
3, 284097, Note_off_c, 1, 55, 56
3, 284100, Note_on_c, 1, 46, 80
3, 284100, Note_on_c, 1, 43, 80
3, 284100, Note_on_c, 1, 51, 80
3, 284132, Control_c, 1, 64, 0
3, 284157, Note_off_c, 1, 51, 56
3, 284157, Note_off_c, 1, 43, 56
3, 284157, Note_off_c, 1, 46, 56
3, 284160, Note_on_c, 1, 51, 81
3, 284160, Note_on_c, 1, 46, 81
3, 284160, Note_on_c, 1, 43, 81
3, 284217, Note_off_c, 1, 43, 56
3, 284217, Note_off_c, 1, 46, 56
3, 284217, Note_off_c, 1, 51, 56
3, 284220, Note_on_c, 1, 51, 81
3, 284220, Note_on_c, 1, 46, 81
3, 284220, Note_on_c, 1, 43, 81
3, 284277, Note_off_c, 1, 43, 56
3, 284277, Note_off_c, 1, 46, 56
3, 284277, Note_off_c, 1, 51, 56
3, 284280, Note_on_c, 1, 46, 81
3, 284280, Control_c, 1, 64, 127
3, 284280, Note_on_c, 1, 51, 81
3, 284280, Note_on_c, 1, 41, 81
3, 284337, Note_off_c, 1, 41, 56
3, 284337, Note_off_c, 1, 51, 56
3, 284337, Note_off_c, 1, 46, 56
3, 284340, Note_on_c, 1, 41, 81
3, 284340, Note_on_c, 1, 51, 81
3, 284340, Note_on_c, 1, 46, 81
3, 284397, Note_off_c, 1, 46, 56
3, 284397, Note_off_c, 1, 51, 56
3, 284397, Note_off_c, 1, 41, 56
3, 284400, Note_on_c, 1, 51, 82
3, 284400, Note_on_c, 1, 46, 82
3, 284400, Note_on_c, 1, 41, 82
3, 284457, Note_off_c, 1, 41, 56
3, 284457, Note_off_c, 1, 46, 56
3, 284457, Note_off_c, 1, 51, 56
3, 284460, Note_on_c, 1, 41, 82
3, 284460, Note_on_c, 1, 51, 82
3, 284460, Note_on_c, 1, 45, 82
3, 284508, Control_c, 1, 64, 0
3, 284517, Note_off_c, 1, 45, 56
3, 284517, Note_off_c, 1, 51, 56
3, 284517, Note_off_c, 1, 41, 56
3, 284520, Note_on_c, 1, 41, 82
3, 284520, Note_on_c, 1, 51, 82
3, 284520, Note_on_c, 1, 45, 82
3, 284577, Note_off_c, 1, 45, 56
3, 284577, Note_off_c, 1, 51, 56
3, 284577, Note_off_c, 1, 41, 56
3, 284580, Note_on_c, 1, 41, 83
3, 284580, Note_on_c, 1, 45, 83
3, 284580, Note_on_c, 1, 51, 83
3, 284637, Note_off_c, 1, 51, 56
3, 284637, Note_off_c, 1, 45, 56
3, 284637, Note_off_c, 1, 41, 56
3, 284640, Note_on_c, 1, 41, 83
3, 284640, Control_c, 1, 64, 127
3, 284640, Note_on_c, 1, 50, 83
3, 284640, Note_on_c, 1, 46, 83
3, 284697, Note_off_c, 1, 46, 56
3, 284697, Note_off_c, 1, 50, 56
3, 284697, Note_off_c, 1, 41, 56
3, 284700, Note_on_c, 1, 41, 83
3, 284700, Note_on_c, 1, 46, 83
3, 284700, Note_on_c, 1, 50, 83
3, 284757, Note_off_c, 1, 50, 56
3, 284757, Note_off_c, 1, 46, 56
3, 284757, Note_off_c, 1, 41, 56
3, 284760, Note_on_c, 1, 41, 83
3, 284760, Note_on_c, 1, 46, 83
3, 284760, Note_on_c, 1, 50, 83
3, 284817, Note_off_c, 1, 50, 56
3, 284817, Note_off_c, 1, 46, 56
3, 284817, Note_off_c, 1, 41, 56
3, 284820, Note_on_c, 1, 50, 84
3, 284820, Note_on_c, 1, 41, 84
3, 284820, Note_on_c, 1, 46, 84
3, 284820, Note_on_c, 1, 44, 84
3, 284868, Control_c, 1, 64, 0
3, 284877, Note_off_c, 1, 44, 56
3, 284877, Note_off_c, 1, 46, 56
3, 284877, Note_off_c, 1, 41, 56
3, 284877, Note_off_c, 1, 50, 56
3, 284880, Note_on_c, 1, 44, 84
3, 284880, Note_on_c, 1, 41, 84
3, 284880, Note_on_c, 1, 50, 84
3, 284880, Note_on_c, 1, 46, 84
3, 284937, Note_off_c, 1, 46, 56
3, 284937, Note_off_c, 1, 50, 56
3, 284937, Note_off_c, 1, 41, 56
3, 284937, Note_off_c, 1, 44, 56
3, 284940, Note_on_c, 1, 50, 84
3, 284940, Note_on_c, 1, 41, 84
3, 284940, Note_on_c, 1, 44, 84
3, 284940, Note_on_c, 1, 46, 84
3, 284997, Note_off_c, 1, 46, 56
3, 284997, Note_off_c, 1, 44, 56
3, 284997, Note_off_c, 1, 41, 56
3, 284997, Note_off_c, 1, 50, 56
3, 285000, Note_on_c, 1, 46, 85
3, 285000, Note_on_c, 1, 43, 85
3, 285000, Note_on_c, 1, 51, 85
3, 285057, Note_off_c, 1, 51, 56
3, 285057, Note_off_c, 1, 43, 56
3, 285057, Note_off_c, 1, 46, 56
3, 285060, Note_on_c, 1, 51, 85
3, 285060, Note_on_c, 1, 43, 85
3, 285060, Note_on_c, 1, 46, 85
3, 285117, Note_off_c, 1, 46, 56
3, 285117, Note_off_c, 1, 43, 56
3, 285117, Note_off_c, 1, 51, 56
3, 285120, Note_on_c, 1, 51, 85
3, 285120, Note_on_c, 1, 43, 85
3, 285120, Note_on_c, 1, 46, 85
3, 285177, Note_off_c, 1, 46, 56
3, 285177, Note_off_c, 1, 43, 56
3, 285177, Note_off_c, 1, 51, 56
3, 285180, Note_on_c, 1, 51, 85
3, 285180, Note_on_c, 1, 46, 85
3, 285180, Note_on_c, 1, 39, 85
3, 285237, Note_off_c, 1, 39, 56
3, 285237, Note_off_c, 1, 46, 56
3, 285237, Note_off_c, 1, 51, 56
3, 285240, Note_on_c, 1, 46, 86
3, 285240, Note_on_c, 1, 51, 86
3, 285240, Note_on_c, 1, 39, 86
3, 285297, Note_off_c, 1, 39, 56
3, 285297, Note_off_c, 1, 51, 56
3, 285297, Note_off_c, 1, 46, 56
3, 285300, Note_on_c, 1, 39, 86
3, 285300, Note_on_c, 1, 51, 86
3, 285300, Note_on_c, 1, 46, 86
3, 285357, Note_off_c, 1, 46, 56
3, 285357, Note_off_c, 1, 51, 56
3, 285357, Note_off_c, 1, 39, 56
3, 285360, Note_on_c, 1, 46, 86
3, 285360, Note_on_c, 1, 38, 86
3, 285360, Note_on_c, 1, 50, 86
3, 285417, Note_off_c, 1, 50, 56
3, 285417, Note_off_c, 1, 38, 56
3, 285417, Note_off_c, 1, 46, 56
3, 285420, Note_on_c, 1, 50, 86
3, 285420, Note_on_c, 1, 38, 86
3, 285420, Note_on_c, 1, 46, 86
3, 285477, Note_off_c, 1, 46, 56
3, 285477, Note_off_c, 1, 38, 56
3, 285477, Note_off_c, 1, 50, 56
3, 285480, Note_on_c, 1, 38, 87
3, 285480, Note_on_c, 1, 50, 87
3, 285480, Note_on_c, 1, 46, 87
3, 285537, Note_off_c, 1, 46, 56
3, 285537, Note_off_c, 1, 50, 56
3, 285537, Note_off_c, 1, 38, 56
3, 285540, Note_on_c, 1, 51, 87
3, 285540, Note_on_c, 1, 39, 87
3, 285540, Note_on_c, 1, 46, 87
3, 285597, Note_off_c, 1, 46, 56
3, 285597, Note_off_c, 1, 39, 56
3, 285597, Note_off_c, 1, 51, 56
3, 285600, Note_on_c, 1, 39, 87
3, 285600, Note_on_c, 1, 46, 87
3, 285600, Note_on_c, 1, 51, 87
3, 285657, Note_off_c, 1, 51, 56
3, 285657, Note_off_c, 1, 46, 56
3, 285657, Note_off_c, 1, 39, 56
3, 285660, Note_on_c, 1, 51, 88
3, 285660, Note_on_c, 1, 39, 88
3, 285660, Note_on_c, 1, 46, 88
3, 285717, Note_off_c, 1, 46, 56
3, 285717, Note_off_c, 1, 39, 56
3, 285717, Note_off_c, 1, 51, 56
3, 285720, Note_on_c, 1, 46, 88
3, 285720, Note_on_c, 1, 50, 88
3, 285720, Note_on_c, 1, 41, 88
3, 285777, Note_off_c, 1, 41, 56
3, 285777, Note_off_c, 1, 50, 56
3, 285777, Note_off_c, 1, 46, 56
3, 285780, Note_on_c, 1, 46, 88
3, 285780, Note_on_c, 1, 41, 88
3, 285780, Note_on_c, 1, 50, 88
3, 285837, Note_off_c, 1, 50, 56
3, 285837, Note_off_c, 1, 41, 56
3, 285837, Note_off_c, 1, 46, 56
3, 285840, Note_on_c, 1, 46, 88
3, 285840, Note_on_c, 1, 41, 88
3, 285840, Note_on_c, 1, 50, 88
3, 285897, Note_off_c, 1, 50, 56
3, 285897, Note_off_c, 1, 41, 56
3, 285897, Note_off_c, 1, 46, 56
3, 285900, Note_on_c, 1, 42, 89
3, 285900, Note_on_c, 1, 48, 89
3, 285900, Note_on_c, 1, 51, 89
3, 285957, Note_off_c, 1, 51, 56
3, 285957, Note_off_c, 1, 48, 56
3, 285957, Note_off_c, 1, 42, 56
3, 285960, Note_on_c, 1, 48, 89
3, 285960, Note_on_c, 1, 42, 89
3, 285960, Note_on_c, 1, 51, 89
3, 286017, Note_off_c, 1, 51, 56
3, 286017, Note_off_c, 1, 42, 56
3, 286017, Note_off_c, 1, 48, 56
3, 286020, Note_on_c, 1, 48, 89
3, 286020, Note_on_c, 1, 42, 89
3, 286020, Note_on_c, 1, 51, 89
3, 286020, Note_on_c, 1, 54, 89
3, 286077, Note_off_c, 1, 54, 56
3, 286077, Note_off_c, 1, 51, 56
3, 286077, Note_off_c, 1, 42, 56
3, 286077, Note_off_c, 1, 48, 56
3, 286080, Note_on_c, 1, 51, 65
3, 286080, Note_on_c, 1, 42, 65
3, 286080, Note_on_c, 1, 48, 65
3, 286080, Note_on_c, 1, 54, 65
3, 286137, Note_off_c, 1, 54, 56
3, 286137, Note_off_c, 1, 48, 56
3, 286137, Note_off_c, 1, 42, 56
3, 286137, Note_off_c, 1, 51, 56
3, 286140, Note_on_c, 1, 51, 65
3, 286140, Note_on_c, 1, 54, 65
3, 286140, Note_on_c, 1, 42, 65
3, 286140, Note_on_c, 1, 48, 65
3, 286197, Note_off_c, 1, 48, 56
3, 286197, Note_off_c, 1, 42, 56
3, 286197, Note_off_c, 1, 54, 56
3, 286197, Note_off_c, 1, 51, 56
3, 286200, Note_on_c, 1, 41, 65
3, 286200, Note_on_c, 1, 48, 65
3, 286200, Note_on_c, 1, 51, 65
3, 286200, Note_on_c, 1, 53, 65
3, 286257, Note_off_c, 1, 53, 56
3, 286257, Note_off_c, 1, 51, 56
3, 286257, Note_off_c, 1, 48, 56
3, 286257, Note_off_c, 1, 41, 56
3, 286260, Note_on_c, 1, 51, 65
3, 286260, Note_on_c, 1, 53, 65
3, 286260, Note_on_c, 1, 41, 65
3, 286260, Note_on_c, 1, 48, 65
3, 286317, Note_off_c, 1, 48, 56
3, 286317, Note_off_c, 1, 41, 56
3, 286317, Note_off_c, 1, 53, 56
3, 286317, Note_off_c, 1, 51, 56
3, 286320, Note_on_c, 1, 51, 65
3, 286320, Note_on_c, 1, 48, 65
3, 286320, Note_on_c, 1, 41, 65
3, 286320, Note_on_c, 1, 45, 65
3, 286377, Note_off_c, 1, 45, 56
3, 286377, Note_off_c, 1, 41, 56
3, 286377, Note_off_c, 1, 48, 56
3, 286377, Note_off_c, 1, 51, 56
3, 286380, Note_on_c, 1, 45, 65
3, 286380, Note_on_c, 1, 51, 65
3, 286380, Note_on_c, 1, 41, 65
3, 286380, Note_on_c, 1, 48, 65
3, 286437, Note_off_c, 1, 48, 56
3, 286437, Note_off_c, 1, 41, 56
3, 286437, Note_off_c, 1, 51, 56
3, 286437, Note_off_c, 1, 45, 56
3, 286440, Note_on_c, 1, 50, 65
3, 286440, Note_on_c, 1, 41, 65
3, 286440, Note_on_c, 1, 46, 65
3, 286497, Note_off_c, 1, 46, 56
3, 286497, Note_off_c, 1, 41, 56
3, 286497, Note_off_c, 1, 50, 56
3, 286500, Note_on_c, 1, 46, 65
3, 286500, Note_on_c, 1, 50, 65
3, 286500, Note_on_c, 1, 53, 65
3, 286557, Note_off_c, 1, 53, 56
3, 286557, Note_off_c, 1, 50, 56
3, 286557, Note_off_c, 1, 46, 56
3, 286560, Note_on_c, 1, 50, 65
3, 286560, Note_on_c, 1, 53, 65
3, 286560, Note_on_c, 1, 46, 65
3, 286617, Note_off_c, 1, 46, 56
3, 286617, Note_off_c, 1, 53, 56
3, 286617, Note_off_c, 1, 50, 56
3, 286620, Note_on_c, 1, 50, 65
3, 286620, Control_c, 1, 64, 127
3, 286620, Note_on_c, 1, 46, 65
3, 286620, Note_on_c, 1, 53, 65
3, 286677, Note_off_c, 1, 53, 56
3, 286677, Note_off_c, 1, 46, 56
3, 286677, Note_off_c, 1, 50, 56
3, 286680, Note_on_c, 1, 46, 65
3, 286680, Note_on_c, 1, 50, 65
3, 286680, Note_on_c, 1, 53, 65
3, 286737, Note_off_c, 1, 53, 56
3, 286737, Note_off_c, 1, 50, 56
3, 286737, Note_off_c, 1, 46, 56
3, 286740, Note_on_c, 1, 50, 65
3, 286740, Note_on_c, 1, 46, 65
3, 286740, Note_on_c, 1, 53, 65
3, 286792, Control_c, 1, 64, 0
3, 286797, Note_off_c, 1, 53, 56
3, 286797, Note_off_c, 1, 46, 56
3, 286797, Note_off_c, 1, 50, 56
3, 286800, Note_on_c, 1, 50, 65
3, 286800, Note_on_c, 1, 53, 65
3, 286800, Note_on_c, 1, 44, 65
3, 286800, Note_on_c, 1, 47, 65
3, 286857, Note_off_c, 1, 47, 56
3, 286857, Note_off_c, 1, 44, 56
3, 286857, Note_off_c, 1, 53, 56
3, 286857, Note_off_c, 1, 50, 56
3, 286860, Note_on_c, 1, 44, 66
3, 286860, Note_on_c, 1, 50, 66
3, 286860, Note_on_c, 1, 53, 66
3, 286860, Note_on_c, 1, 47, 66
3, 286917, Note_off_c, 1, 47, 56
3, 286917, Note_off_c, 1, 53, 56
3, 286917, Note_off_c, 1, 50, 56
3, 286917, Note_off_c, 1, 44, 56
3, 286920, Note_on_c, 1, 53, 67
3, 286920, Note_on_c, 1, 44, 67
3, 286920, Note_on_c, 1, 47, 67
3, 286920, Note_on_c, 1, 50, 67
3, 286977, Note_off_c, 1, 50, 56
3, 286977, Note_off_c, 1, 47, 56
3, 286977, Note_off_c, 1, 44, 56
3, 286977, Note_off_c, 1, 53, 56
3, 286980, Note_on_c, 1, 43, 68
3, 286980, Note_on_c, 1, 53, 68
3, 286980, Note_on_c, 1, 47, 68
3, 286980, Note_on_c, 1, 50, 68
3, 287037, Note_off_c, 1, 50, 56
3, 287037, Note_off_c, 1, 47, 56
3, 287037, Note_off_c, 1, 53, 56
3, 287037, Note_off_c, 1, 43, 56
3, 287040, Note_on_c, 1, 43, 70
3, 287040, Note_on_c, 1, 47, 70
3, 287040, Note_on_c, 1, 50, 70
3, 287040, Note_on_c, 1, 53, 70
3, 287097, Note_off_c, 1, 53, 56
3, 287097, Note_off_c, 1, 50, 56
3, 287097, Note_off_c, 1, 47, 56
3, 287097, Note_off_c, 1, 43, 56
3, 287100, Note_on_c, 1, 50, 71
3, 287100, Note_on_c, 1, 48, 71
3, 287100, Note_on_c, 1, 53, 71
3, 287100, Note_on_c, 1, 56, 71
3, 287157, Note_off_c, 1, 56, 56
3, 287157, Note_off_c, 1, 53, 56
3, 287157, Note_off_c, 1, 48, 56
3, 287157, Note_off_c, 1, 50, 56
3, 287160, Note_on_c, 1, 55, 72
3, 287160, Note_on_c, 1, 53, 72
3, 287160, Note_on_c, 1, 47, 72
3, 287160, Note_on_c, 1, 50, 72
3, 287217, Note_off_c, 1, 50, 56
3, 287217, Note_off_c, 1, 47, 56
3, 287217, Note_off_c, 1, 53, 56
3, 287217, Note_off_c, 1, 55, 56
3, 287220, Note_on_c, 1, 50, 73
3, 287220, Note_on_c, 1, 55, 73
3, 287220, Note_on_c, 1, 47, 73
3, 287220, Note_on_c, 1, 53, 73
3, 287277, Note_off_c, 1, 53, 56
3, 287277, Note_off_c, 1, 47, 56
3, 287277, Note_off_c, 1, 55, 56
3, 287277, Note_off_c, 1, 50, 56
3, 287280, Note_on_c, 1, 47, 75
3, 287280, Note_on_c, 1, 53, 75
3, 287280, Note_on_c, 1, 55, 75
3, 287280, Note_on_c, 1, 50, 75
3, 287337, Note_off_c, 1, 50, 56
3, 287337, Note_off_c, 1, 55, 56
3, 287337, Note_off_c, 1, 53, 56
3, 287337, Note_off_c, 1, 47, 56
3, 287340, Note_on_c, 1, 53, 76
3, 287340, Note_on_c, 1, 50, 76
3, 287340, Note_on_c, 1, 55, 76
3, 287340, Note_on_c, 1, 47, 76
3, 287397, Note_off_c, 1, 47, 56
3, 287397, Note_off_c, 1, 55, 56
3, 287397, Note_off_c, 1, 50, 56
3, 287397, Note_off_c, 1, 53, 56
3, 287400, Note_on_c, 1, 55, 77
3, 287400, Note_on_c, 1, 50, 77
3, 287400, Note_on_c, 1, 47, 77
3, 287400, Note_on_c, 1, 53, 77
3, 287457, Note_off_c, 1, 53, 56
3, 287457, Note_off_c, 1, 47, 56
3, 287457, Note_off_c, 1, 50, 56
3, 287457, Note_off_c, 1, 55, 56
3, 287460, Note_on_c, 1, 47, 78
3, 287460, Note_on_c, 1, 53, 78
3, 287460, Note_on_c, 1, 50, 78
3, 287460, Note_on_c, 1, 55, 78
3, 287517, Note_off_c, 1, 55, 56
3, 287517, Note_off_c, 1, 50, 56
3, 287517, Note_off_c, 1, 53, 56
3, 287517, Note_off_c, 1, 47, 56
3, 287520, Note_on_c, 1, 48, 80
3, 287520, Note_on_c, 1, 55, 80
3, 287520, Note_on_c, 1, 51, 80
3, 287577, Note_off_c, 1, 51, 56
3, 287577, Note_off_c, 1, 55, 56
3, 287577, Note_off_c, 1, 48, 56
3, 287580, Note_on_c, 1, 48, 80
3, 287580, Note_on_c, 1, 51, 80
3, 287580, Note_on_c, 1, 55, 80
3, 287637, Note_off_c, 1, 55, 56
3, 287637, Note_off_c, 1, 51, 56
3, 287637, Note_off_c, 1, 48, 56
3, 287640, Note_on_c, 1, 51, 81
3, 287640, Note_on_c, 1, 48, 81
3, 287640, Note_on_c, 1, 55, 81
3, 287697, Note_off_c, 1, 55, 56
3, 287697, Note_off_c, 1, 48, 56
3, 287697, Note_off_c, 1, 51, 56
3, 287700, Note_on_c, 1, 51, 82
3, 287700, Note_on_c, 1, 55, 82
3, 287700, Note_on_c, 1, 48, 82
3, 287757, Note_off_c, 1, 48, 56
3, 287757, Note_off_c, 1, 55, 56
3, 287757, Note_off_c, 1, 51, 56
3, 287760, Note_on_c, 1, 57, 83
3, 287760, Control_c, 1, 64, 127
3, 287760, Note_on_c, 1, 54, 83
3, 287760, Note_on_c, 1, 48, 83
3, 287817, Note_off_c, 1, 48, 56
3, 287817, Note_off_c, 1, 54, 56
3, 287817, Note_off_c, 1, 57, 56
3, 287820, Note_on_c, 1, 54, 84
3, 287820, Note_on_c, 1, 57, 84
3, 287820, Note_on_c, 1, 48, 84
3, 287877, Note_off_c, 1, 48, 56
3, 287877, Note_off_c, 1, 57, 56
3, 287877, Note_off_c, 1, 54, 56
3, 287880, Note_on_c, 1, 57, 85
3, 287880, Note_on_c, 1, 48, 85
3, 287880, Note_on_c, 1, 54, 85
3, 287920, Control_c, 1, 64, 0
3, 287937, Note_off_c, 1, 54, 56
3, 287937, Note_off_c, 1, 48, 56
3, 287937, Note_off_c, 1, 57, 56
3, 287940, Note_on_c, 1, 54, 85
3, 287940, Note_on_c, 1, 48, 85
3, 287940, Note_on_c, 1, 57, 85
3, 287997, Note_off_c, 1, 57, 56
3, 287997, Note_off_c, 1, 48, 56
3, 287997, Note_off_c, 1, 54, 56
3, 288000, Note_on_c, 1, 57, 86
3, 288000, Note_on_c, 1, 48, 86
3, 288000, Note_on_c, 1, 54, 86
3, 288057, Note_off_c, 1, 54, 56
3, 288057, Note_off_c, 1, 48, 56
3, 288057, Note_off_c, 1, 57, 56
3, 288060, Note_on_c, 1, 55, 87
3, 288060, Note_on_c, 1, 58, 87
3, 288060, Note_on_c, 1, 46, 87
3, 288117, Note_off_c, 1, 46, 56
3, 288117, Note_off_c, 1, 58, 56
3, 288117, Note_off_c, 1, 55, 56
3, 288120, Note_on_c, 1, 58, 88
3, 288120, Note_on_c, 1, 54, 88
3, 288120, Note_on_c, 1, 46, 88
3, 288120, Note_on_c, 1, 55, 88
3, 288177, Note_off_c, 1, 55, 56
3, 288177, Note_off_c, 1, 46, 56
3, 288177, Note_off_c, 1, 54, 56
3, 288177, Note_off_c, 1, 58, 56
3, 288180, Note_on_c, 1, 46, 89
3, 288180, Note_on_c, 1, 55, 89
3, 288180, Note_on_c, 1, 58, 89
3, 288237, Note_off_c, 1, 58, 56
3, 288237, Note_off_c, 1, 55, 56
3, 288237, Note_off_c, 1, 46, 56
3, 288240, Note_on_c, 1, 45, 90
3, 288240, Note_on_c, 1, 57, 90
3, 288240, Note_on_c, 1, 54, 90
3, 288297, Note_off_c, 1, 54, 56
3, 288297, Note_off_c, 1, 57, 56
3, 288297, Note_off_c, 1, 45, 56
3, 288300, Note_on_c, 1, 45, 90
3, 288300, Note_on_c, 1, 54, 90
3, 288300, Note_on_c, 1, 57, 90
3, 288357, Note_off_c, 1, 57, 56
3, 288357, Note_off_c, 1, 54, 56
3, 288357, Note_off_c, 1, 45, 56
3, 288360, Note_on_c, 1, 45, 89
3, 288360, Note_on_c, 1, 54, 89
3, 288360, Note_on_c, 1, 57, 89
3, 288417, Note_off_c, 1, 57, 56
3, 288417, Note_off_c, 1, 54, 56
3, 288417, Note_off_c, 1, 45, 56
3, 288420, Note_on_c, 1, 43, 88
3, 288420, Note_on_c, 1, 50, 88
3, 288420, Note_on_c, 1, 55, 88
3, 288477, Note_off_c, 1, 55, 56
3, 288477, Note_off_c, 1, 50, 56
3, 288477, Note_off_c, 1, 43, 56
3, 288480, Note_on_c, 1, 50, 87
3, 288480, Note_on_c, 1, 43, 87
3, 288480, Note_on_c, 1, 55, 87
3, 288537, Note_off_c, 1, 55, 56
3, 288537, Note_off_c, 1, 43, 56
3, 288537, Note_off_c, 1, 50, 56
3, 288540, Note_on_c, 1, 55, 86
3, 288540, Note_on_c, 1, 50, 86
3, 288540, Note_on_c, 1, 43, 86
3, 288597, Note_off_c, 1, 43, 56
3, 288597, Note_off_c, 1, 50, 56
3, 288597, Note_off_c, 1, 55, 56
3, 288600, Note_on_c, 1, 56, 85
3, 288600, Note_on_c, 1, 48, 85
3, 288600, Note_on_c, 1, 51, 85
3, 288657, Note_off_c, 1, 51, 56
3, 288657, Note_off_c, 1, 48, 56
3, 288657, Note_off_c, 1, 56, 56
3, 288660, Note_on_c, 1, 56, 85
3, 288660, Note_on_c, 1, 51, 85
3, 288660, Note_on_c, 1, 48, 85
3, 288717, Note_off_c, 1, 48, 56
3, 288717, Note_off_c, 1, 51, 56
3, 288717, Note_off_c, 1, 56, 56
3, 288720, Note_on_c, 1, 48, 84
3, 288720, Note_on_c, 1, 51, 84
3, 288720, Note_on_c, 1, 56, 84
3, 288777, Note_off_c, 1, 56, 56
3, 288777, Note_off_c, 1, 51, 56
3, 288777, Note_off_c, 1, 48, 56
3, 288780, Note_on_c, 1, 52, 83
3, 288780, Note_on_c, 1, 55, 83
3, 288780, Note_on_c, 1, 58, 83
3, 288780, Note_on_c, 1, 49, 83
3, 288837, Note_off_c, 1, 49, 56
3, 288837, Note_off_c, 1, 58, 56
3, 288837, Note_off_c, 1, 55, 56
3, 288837, Note_off_c, 1, 52, 56
3, 288840, Note_on_c, 1, 55, 82
3, 288840, Note_on_c, 1, 52, 82
3, 288840, Note_on_c, 1, 49, 82
3, 288840, Note_on_c, 1, 58, 82
3, 288897, Note_off_c, 1, 58, 56
3, 288897, Note_off_c, 1, 49, 56
3, 288897, Note_off_c, 1, 52, 56
3, 288897, Note_off_c, 1, 55, 56
3, 288900, Note_on_c, 1, 49, 81
3, 288900, Note_on_c, 1, 58, 81
3, 288900, Note_on_c, 1, 55, 81
3, 288900, Note_on_c, 1, 52, 81
3, 288957, Note_off_c, 1, 52, 56
3, 288957, Note_off_c, 1, 55, 56
3, 288957, Note_off_c, 1, 58, 56
3, 288957, Note_off_c, 1, 49, 56
3, 288960, Note_on_c, 1, 50, 80
3, 288960, Note_on_c, 1, 58, 80
3, 288960, Note_on_c, 1, 55, 80
3, 289017, Note_off_c, 1, 55, 56
3, 289017, Note_off_c, 1, 58, 56
3, 289017, Note_off_c, 1, 50, 56
3, 289020, Note_on_c, 1, 50, 80
3, 289020, Note_on_c, 1, 55, 80
3, 289020, Note_on_c, 1, 58, 80
3, 289077, Note_off_c, 1, 58, 56
3, 289077, Note_off_c, 1, 55, 56
3, 289077, Note_off_c, 1, 50, 56
3, 289080, Note_on_c, 1, 58, 80
3, 289080, Note_on_c, 1, 55, 80
3, 289080, Note_on_c, 1, 50, 80
3, 289137, Note_off_c, 1, 50, 56
3, 289137, Note_off_c, 1, 55, 56
3, 289137, Note_off_c, 1, 58, 56
3, 289140, Note_on_c, 1, 50, 80
3, 289140, Note_on_c, 1, 51, 80
3, 289140, Note_on_c, 1, 61, 80
3, 289140, Note_on_c, 1, 55, 80
3, 289197, Note_off_c, 1, 55, 56
3, 289197, Note_off_c, 1, 61, 56
3, 289197, Note_off_c, 1, 51, 56
3, 289197, Note_off_c, 1, 50, 56
3, 289200, Note_on_c, 1, 51, 80
3, 289200, Note_on_c, 1, 61, 80
3, 289200, Note_on_c, 1, 55, 80
3, 289200, Note_on_c, 1, 50, 80
3, 289257, Note_off_c, 1, 50, 56
3, 289257, Note_off_c, 1, 55, 56
3, 289257, Note_off_c, 1, 61, 56
3, 289257, Note_off_c, 1, 51, 56
3, 289260, Note_on_c, 1, 50, 80
3, 289260, Note_on_c, 1, 61, 80
3, 289260, Note_on_c, 1, 55, 80
3, 289260, Note_on_c, 1, 51, 80
3, 289317, Note_off_c, 1, 51, 56
3, 289317, Note_off_c, 1, 55, 56
3, 289317, Note_off_c, 1, 61, 56
3, 289317, Note_off_c, 1, 50, 56
3, 289320, Note_on_c, 1, 58, 80
3, 289320, Note_on_c, 1, 50, 80
3, 289320, Note_on_c, 1, 51, 80
3, 289320, Note_on_c, 1, 61, 80
3, 289377, Note_off_c, 1, 61, 56
3, 289377, Note_off_c, 1, 51, 56
3, 289377, Note_off_c, 1, 50, 56
3, 289377, Note_off_c, 1, 58, 56
3, 289380, Note_on_c, 1, 61, 80
3, 289380, Note_on_c, 1, 58, 80
3, 289380, Note_on_c, 1, 51, 80
3, 289380, Note_on_c, 1, 50, 80
3, 289437, Note_off_c, 1, 50, 56
3, 289437, Note_off_c, 1, 51, 56
3, 289437, Note_off_c, 1, 58, 56
3, 289437, Note_off_c, 1, 61, 56
3, 289440, Note_on_c, 1, 62, 80
3, 289440, Note_on_c, 1, 54, 80
3, 289440, Note_on_c, 1, 57, 80
3, 289440, Note_on_c, 1, 50, 80
3, 289497, Note_off_c, 1, 50, 56
3, 289497, Note_off_c, 1, 57, 56
3, 289497, Note_off_c, 1, 54, 56
3, 289497, Note_off_c, 1, 62, 56
3, 289500, Note_on_c, 1, 50, 80
3, 289500, Note_on_c, 1, 54, 80
3, 289500, Note_on_c, 1, 57, 80
3, 289500, Note_on_c, 1, 62, 80
3, 289557, Note_off_c, 1, 62, 56
3, 289557, Note_off_c, 1, 57, 56
3, 289557, Note_off_c, 1, 54, 56
3, 289557, Note_off_c, 1, 50, 56
3, 289560, Note_on_c, 1, 50, 80
3, 289617, Note_off_c, 1, 50, 56
3, 289620, Note_on_c, 1, 50, 80
3, 289620, Note_on_c, 1, 48, 80
3, 289677, Note_off_c, 1, 48, 56
3, 289677, Note_off_c, 1, 50, 56
3, 289680, Note_on_c, 1, 46, 80
3, 289680, Note_on_c, 1, 50, 80
3, 289737, Note_off_c, 1, 50, 56
3, 289737, Note_off_c, 1, 46, 56
3, 289740, Note_on_c, 1, 51, 80
3, 289740, Note_on_c, 1, 46, 80
3, 289797, Note_off_c, 1, 46, 56
3, 289797, Note_off_c, 1, 51, 56
3, 289800, Note_on_c, 1, 51, 80
3, 289800, Note_on_c, 1, 46, 80
3, 289857, Note_off_c, 1, 46, 56
3, 289857, Note_off_c, 1, 51, 56
3, 289860, Note_on_c, 1, 46, 81
3, 289860, Note_on_c, 1, 51, 81
3, 289917, Note_off_c, 1, 51, 56
3, 289917, Note_off_c, 1, 46, 56
3, 289920, Note_on_c, 1, 50, 81
3, 289920, Note_on_c, 1, 46, 81
3, 289977, Note_off_c, 1, 46, 56
3, 289977, Note_off_c, 1, 50, 56
3, 289980, Note_on_c, 1, 50, 82
3, 289980, Note_on_c, 1, 46, 82
3, 290037, Note_off_c, 1, 46, 56
3, 290037, Note_off_c, 1, 50, 56
3, 290040, Note_on_c, 1, 50, 82
3, 290040, Note_on_c, 1, 45, 82
3, 290097, Note_off_c, 1, 45, 56
3, 290097, Note_off_c, 1, 50, 56
3, 290100, Note_on_c, 1, 50, 82
3, 290100, Note_on_c, 1, 45, 82
3, 290157, Note_off_c, 1, 45, 56
3, 290157, Note_off_c, 1, 50, 56
3, 290160, Note_on_c, 1, 50, 83
3, 290160, Note_on_c, 1, 45, 83
3, 290217, Note_off_c, 1, 45, 56
3, 290217, Note_off_c, 1, 50, 56
3, 290220, Note_on_c, 1, 45, 83
3, 290220, Note_on_c, 1, 50, 83
3, 290277, Note_off_c, 1, 50, 56
3, 290277, Note_off_c, 1, 45, 56
3, 290280, Note_on_c, 1, 50, 84
3, 290280, Note_on_c, 1, 45, 84
3, 290337, Note_off_c, 1, 45, 56
3, 290337, Note_off_c, 1, 50, 56
3, 290340, Note_on_c, 1, 50, 84
3, 290340, Note_on_c, 1, 45, 84
3, 290397, Note_off_c, 1, 45, 56
3, 290397, Note_off_c, 1, 50, 56
3, 290400, Note_on_c, 1, 43, 85
3, 290400, Note_on_c, 1, 50, 85
3, 290457, Note_off_c, 1, 50, 56
3, 290457, Note_off_c, 1, 43, 56
3, 290460, Note_on_c, 1, 43, 85
3, 290460, Note_on_c, 1, 51, 85
3, 290517, Note_off_c, 1, 51, 56
3, 290517, Note_off_c, 1, 43, 56
3, 290520, Note_on_c, 1, 43, 85
3, 290520, Note_on_c, 1, 51, 85
3, 290577, Note_off_c, 1, 51, 56
3, 290577, Note_off_c, 1, 43, 56
3, 290580, Note_on_c, 1, 43, 86
3, 290580, Note_on_c, 1, 51, 86
3, 290637, Note_off_c, 1, 51, 56
3, 290637, Note_off_c, 1, 43, 56
3, 290640, Note_on_c, 1, 50, 86
3, 290640, Note_on_c, 1, 43, 86
3, 290697, Note_off_c, 1, 43, 56
3, 290697, Note_off_c, 1, 50, 56
3, 290700, Note_on_c, 1, 50, 87
3, 290700, Note_on_c, 1, 43, 87
3, 290757, Note_off_c, 1, 43, 56
3, 290757, Note_off_c, 1, 50, 56
3, 290760, Note_on_c, 1, 43, 87
3, 290760, Note_on_c, 1, 50, 87
3, 290817, Note_off_c, 1, 50, 56
3, 290817, Note_off_c, 1, 43, 56
3, 290820, Note_on_c, 1, 42, 87
3, 290820, Note_on_c, 1, 50, 87
3, 290877, Note_off_c, 1, 50, 56
3, 290877, Note_off_c, 1, 42, 56
3, 290880, Note_on_c, 1, 42, 88
3, 290880, Note_on_c, 1, 50, 88
3, 290937, Note_off_c, 1, 50, 56
3, 290937, Note_off_c, 1, 42, 56
3, 290940, Note_on_c, 1, 50, 88
3, 290940, Note_on_c, 1, 42, 88
3, 290997, Note_off_c, 1, 42, 56
3, 290997, Note_off_c, 1, 50, 56
3, 291000, Note_on_c, 1, 50, 89
3, 291000, Note_on_c, 1, 41, 89
3, 291000, Note_on_c, 1, 43, 89
3, 291057, Note_off_c, 1, 43, 56
3, 291057, Note_off_c, 1, 41, 56
3, 291057, Note_off_c, 1, 50, 56
3, 291060, Note_on_c, 1, 43, 89
3, 291060, Note_on_c, 1, 41, 89
3, 291060, Note_on_c, 1, 50, 89
3, 291117, Note_off_c, 1, 50, 56
3, 291117, Note_off_c, 1, 41, 56
3, 291117, Note_off_c, 1, 43, 56
3, 291120, Note_on_c, 1, 43, 90
3, 291120, Note_on_c, 1, 41, 90
3, 291120, Note_on_c, 1, 50, 90
3, 291177, Note_off_c, 1, 50, 56
3, 291177, Note_off_c, 1, 41, 56
3, 291177, Note_off_c, 1, 43, 56
3, 291180, Note_on_c, 1, 39, 89
3, 291180, Note_on_c, 1, 48, 89
3, 291180, Note_on_c, 1, 43, 89
3, 291237, Note_off_c, 1, 43, 56
3, 291237, Note_off_c, 1, 48, 56
3, 291237, Note_off_c, 1, 39, 56
3, 291240, Note_on_c, 1, 39, 88
3, 291240, Note_on_c, 1, 48, 88
3, 291240, Note_on_c, 1, 43, 88
3, 291297, Note_off_c, 1, 43, 56
3, 291297, Note_off_c, 1, 48, 56
3, 291297, Note_off_c, 1, 39, 56
3, 291300, Note_on_c, 1, 39, 87
3, 291300, Note_on_c, 1, 48, 87
3, 291300, Note_on_c, 1, 43, 87
3, 291357, Note_off_c, 1, 43, 56
3, 291357, Note_off_c, 1, 48, 56
3, 291357, Note_off_c, 1, 39, 56
3, 291360, Note_on_c, 1, 48, 86
3, 291360, Note_on_c, 1, 60, 86
3, 291360, Note_on_c, 1, 55, 86
3, 291417, Note_off_c, 1, 55, 56
3, 291417, Note_off_c, 1, 60, 56
3, 291417, Note_off_c, 1, 48, 56
3, 291420, Note_on_c, 1, 55, 85
3, 291420, Note_on_c, 1, 48, 85
3, 291420, Note_on_c, 1, 60, 85
3, 291477, Note_off_c, 1, 60, 56
3, 291477, Note_off_c, 1, 48, 56
3, 291477, Note_off_c, 1, 55, 56
3, 291480, Note_on_c, 1, 60, 84
3, 291480, Note_on_c, 1, 55, 84
3, 291480, Note_on_c, 1, 48, 84
3, 291537, Note_off_c, 1, 48, 56
3, 291537, Note_off_c, 1, 55, 56
3, 291537, Note_off_c, 1, 60, 56
3, 291540, Note_on_c, 1, 50, 83
3, 291540, Note_on_c, 1, 55, 83
3, 291540, Note_on_c, 1, 58, 83
3, 291597, Note_off_c, 1, 58, 56
3, 291597, Note_off_c, 1, 55, 56
3, 291597, Note_off_c, 1, 50, 56
3, 291600, Note_on_c, 1, 55, 82
3, 291600, Note_on_c, 1, 50, 82
3, 291600, Note_on_c, 1, 58, 82
3, 291657, Note_off_c, 1, 58, 56
3, 291657, Note_off_c, 1, 50, 56
3, 291657, Note_off_c, 1, 55, 56
3, 291660, Note_on_c, 1, 58, 81
3, 291660, Note_on_c, 1, 50, 81
3, 291660, Note_on_c, 1, 55, 81
3, 291717, Note_off_c, 1, 55, 56
3, 291717, Note_off_c, 1, 50, 56
3, 291717, Note_off_c, 1, 58, 56
3, 291720, Note_on_c, 1, 50, 80
3, 291720, Note_on_c, 1, 57, 80
3, 291720, Note_on_c, 1, 60, 80
3, 291777, Note_off_c, 1, 60, 56
3, 291777, Note_off_c, 1, 57, 56
3, 291777, Note_off_c, 1, 50, 56
3, 291780, Note_on_c, 1, 60, 79
3, 291780, Note_on_c, 1, 51, 79
3, 291780, Note_on_c, 1, 57, 79
3, 291837, Note_off_c, 1, 57, 56
3, 291837, Note_off_c, 1, 51, 56
3, 291837, Note_off_c, 1, 60, 56
3, 291840, Note_on_c, 1, 51, 78
3, 291840, Note_on_c, 1, 57, 78
3, 291840, Note_on_c, 1, 60, 78
3, 291897, Note_off_c, 1, 60, 56
3, 291897, Note_off_c, 1, 57, 56
3, 291897, Note_off_c, 1, 51, 56
3, 291900, Note_on_c, 1, 60, 77
3, 291900, Note_on_c, 1, 51, 77
3, 291900, Note_on_c, 1, 57, 77
3, 291957, Note_off_c, 1, 57, 56
3, 291957, Note_off_c, 1, 51, 56
3, 291957, Note_off_c, 1, 60, 56
3, 291960, Note_on_c, 1, 57, 76
3, 291960, Note_on_c, 1, 51, 76
3, 291960, Note_on_c, 1, 60, 76
3, 292017, Note_off_c, 1, 60, 56
3, 292017, Note_off_c, 1, 51, 56
3, 292017, Note_off_c, 1, 57, 56
3, 292020, Note_on_c, 1, 54, 75
3, 292020, Note_on_c, 1, 50, 75
3, 292020, Note_on_c, 1, 60, 75
3, 292077, Note_off_c, 1, 60, 56
3, 292077, Note_off_c, 1, 50, 56
3, 292077, Note_off_c, 1, 54, 56
3, 292080, Note_on_c, 1, 54, 74
3, 292080, Note_on_c, 1, 60, 74
3, 292080, Note_on_c, 1, 50, 74
3, 292137, Note_off_c, 1, 50, 56
3, 292137, Note_off_c, 1, 60, 56
3, 292137, Note_off_c, 1, 54, 56
3, 292140, Note_on_c, 1, 54, 73
3, 292140, Note_on_c, 1, 60, 73
3, 292140, Note_on_c, 1, 50, 73
3, 292197, Note_off_c, 1, 50, 56
3, 292197, Note_off_c, 1, 60, 56
3, 292197, Note_off_c, 1, 54, 56
3, 292200, Note_on_c, 1, 58, 72
3, 292200, Note_on_c, 1, 55, 72
3, 292314, Note_off_c, 1, 55, 64
3, 292314, Note_off_c, 1, 58, 64
3, 292500, Note_on_c, 1, 46, 67
3, 292500, Note_on_c, 1, 34, 67
3, 292557, Note_off_c, 1, 34, 56
3, 292557, Note_off_c, 1, 46, 56
3, 292680, Note_on_c, 1, 45, 67
3, 292680, Note_on_c, 1, 33, 67
3, 292737, Note_off_c, 1, 33, 56
3, 292737, Note_off_c, 1, 45, 56
3, 292860, Note_on_c, 1, 38, 71
3, 292860, Note_on_c, 1, 50, 71
3, 292917, Note_off_c, 1, 50, 56
3, 292917, Note_off_c, 1, 38, 56
3, 293040, Note_on_c, 1, 50, 75
3, 293040, Note_on_c, 1, 43, 75
3, 293097, Note_off_c, 1, 43, 56
3, 293097, Note_off_c, 1, 50, 56
3, 293216, Control_c, 1, 64, 127
3, 293220, Note_on_c, 1, 38, 78
3, 293220, Note_on_c, 1, 43, 78
3, 293220, Note_on_c, 1, 31, 78
3, 293277, Note_off_c, 1, 31, 56
3, 293277, Note_off_c, 1, 43, 56
3, 293277, Note_off_c, 1, 38, 56
3, 293400, Note_on_c, 1, 31, 82
3, 293400, Note_on_c, 1, 38, 82
3, 293400, Note_on_c, 1, 43, 82
3, 293457, Note_off_c, 1, 43, 56
3, 293457, Note_off_c, 1, 38, 56
3, 293457, Note_off_c, 1, 31, 56
3, 293580, Note_on_c, 1, 31, 86
3, 293580, Note_on_c, 1, 43, 86
3, 293580, Note_on_c, 1, 38, 86
3, 293637, Note_off_c, 1, 38, 56
3, 293637, Note_off_c, 1, 43, 56
3, 293637, Note_off_c, 1, 31, 56
3, 293760, Note_on_c, 1, 31, 90
3, 293760, Note_on_c, 1, 38, 90
3, 293760, Note_on_c, 1, 43, 90
3, 293817, Note_off_c, 1, 43, 56
3, 293817, Note_off_c, 1, 38, 56
3, 293817, Note_off_c, 1, 31, 56
3, 293940, Note_on_c, 1, 38, 93
3, 293940, Note_on_c, 1, 43, 93
3, 293940, Note_on_c, 1, 31, 93
3, 293997, Note_off_c, 1, 31, 56
3, 293997, Note_off_c, 1, 43, 56
3, 293997, Note_off_c, 1, 38, 56
3, 294120, Note_on_c, 1, 35, 97
3, 294120, Note_on_c, 1, 31, 97
3, 294120, Note_on_c, 1, 43, 97
3, 294120, Note_on_c, 1, 38, 97
3, 294177, Note_off_c, 1, 38, 56
3, 294177, Note_off_c, 1, 43, 56
3, 294177, Note_off_c, 1, 31, 56
3, 294177, Note_off_c, 1, 35, 56
3, 294300, Note_on_c, 1, 35, 101
3, 294300, Note_on_c, 1, 43, 101
3, 294300, Note_on_c, 1, 38, 101
3, 294300, Note_on_c, 1, 31, 101
3, 294357, Note_off_c, 1, 31, 56
3, 294357, Note_off_c, 1, 38, 56
3, 294357, Note_off_c, 1, 43, 56
3, 294357, Note_off_c, 1, 35, 56
3, 294480, Note_on_c, 1, 35, 105
3, 294480, Note_on_c, 1, 31, 105
3, 294480, Note_on_c, 1, 38, 105
3, 294480, Note_on_c, 1, 43, 105
3, 294537, Note_off_c, 1, 43, 56
3, 294537, Note_off_c, 1, 38, 56
3, 294537, Note_off_c, 1, 31, 56
3, 294537, Note_off_c, 1, 35, 56
3, 294660, Note_on_c, 1, 31, 108
3, 294660, Note_on_c, 1, 38, 108
3, 294660, Note_on_c, 1, 43, 108
3, 294660, Note_on_c, 1, 35, 108
3, 294708, Control_c, 1, 64, 0
3, 294717, Note_off_c, 1, 35, 56
3, 294717, Note_off_c, 1, 43, 56
3, 294717, Note_off_c, 1, 38, 56
3, 294717, Note_off_c, 1, 31, 56
3, 294840, Note_on_c, 1, 31, 107
3, 294840, Control_c, 1, 64, 127
3, 294897, Note_off_c, 1, 31, 56
3, 294900, Note_on_c, 1, 35, 105
3, 295014, Note_off_c, 1, 35, 64
3, 295020, Note_on_c, 1, 38, 101
3, 295077, Note_off_c, 1, 38, 56
3, 295080, Note_on_c, 1, 43, 99
3, 295194, Note_off_c, 1, 43, 64
3, 295200, Note_on_c, 1, 47, 95
3, 295257, Note_off_c, 1, 47, 56
3, 295260, Note_on_c, 1, 50, 94
3, 295374, Note_off_c, 1, 50, 64
3, 296136, Control_c, 1, 64, 0
3, 301560, Note_on_c, 1, 62, 65
3, 301902, Note_off_c, 1, 62, 64
3, 301920, Note_on_c, 1, 57, 65
3, 302262, Note_off_c, 1, 57, 64
3, 302280, Note_on_c, 1, 60, 65
3, 302622, Note_off_c, 1, 60, 64
3, 302640, Note_on_c, 1, 55, 65
3, 302982, Note_off_c, 1, 55, 64
3, 303000, Note_on_c, 1, 59, 65
3, 303342, Note_off_c, 1, 59, 64
3, 303360, Note_on_c, 1, 54, 65
3, 303702, Note_off_c, 1, 54, 64
3, 303720, Note_on_c, 1, 55, 65
3, 303834, Note_off_c, 1, 55, 64
3, 303840, Note_on_c, 1, 53, 65
3, 303954, Note_off_c, 1, 53, 64
3, 303960, Note_on_c, 1, 51, 65
3, 304194, Note_off_c, 1, 51, 64
3, 304200, Note_on_c, 1, 50, 65
3, 304314, Note_off_c, 1, 50, 64
3, 304320, Note_on_c, 1, 47, 65
3, 304554, Note_off_c, 1, 47, 64
3, 304560, Note_on_c, 1, 48, 65
3, 304674, Note_off_c, 1, 48, 64
3, 304680, Note_on_c, 1, 51, 65
3, 304794, Note_off_c, 1, 51, 64
3, 304800, Note_on_c, 1, 55, 65
3, 304914, Note_off_c, 1, 55, 64
3, 304920, Note_on_c, 1, 53, 65
3, 305034, Note_off_c, 1, 53, 64
3, 305040, Note_on_c, 1, 51, 65
3, 305154, Note_off_c, 1, 51, 64
3, 305160, Note_on_c, 1, 50, 65
3, 305274, Note_off_c, 1, 50, 64
3, 305280, Note_on_c, 1, 48, 65
3, 305394, Note_off_c, 1, 48, 64
3, 305400, Note_on_c, 1, 50, 65
3, 305514, Note_off_c, 1, 50, 64
3, 305520, Note_on_c, 1, 53, 65
3, 305634, Note_off_c, 1, 53, 64
3, 305640, Note_on_c, 1, 51, 65
3, 305754, Note_off_c, 1, 51, 64
3, 305760, Note_on_c, 1, 50, 65
3, 305874, Note_off_c, 1, 50, 64
3, 305880, Note_on_c, 1, 48, 65
3, 305994, Note_off_c, 1, 48, 64
3, 306000, Note_on_c, 1, 47, 65
3, 306114, Note_off_c, 1, 47, 64
3, 306120, Note_on_c, 1, 48, 65
3, 306234, Note_off_c, 1, 48, 64
3, 306240, Note_on_c, 1, 51, 65
3, 306354, Note_off_c, 1, 51, 64
3, 306360, Note_on_c, 1, 50, 65
3, 306474, Note_off_c, 1, 50, 64
3, 306480, Note_on_c, 1, 48, 65
3, 306594, Note_off_c, 1, 48, 64
3, 306600, Note_on_c, 1, 46, 65
3, 306714, Note_off_c, 1, 46, 64
3, 306720, Note_on_c, 1, 48, 65
3, 306834, Note_off_c, 1, 48, 64
3, 306840, Note_on_c, 1, 42, 65
3, 306954, Note_off_c, 1, 42, 64
3, 306960, Note_on_c, 1, 43, 65
3, 307074, Note_off_c, 1, 43, 64
3, 307080, Note_on_c, 1, 48, 65
3, 307194, Note_off_c, 1, 48, 64
3, 307200, Note_on_c, 1, 45, 65
3, 307314, Note_off_c, 1, 45, 64
3, 307320, Note_on_c, 1, 50, 65
3, 307434, Note_off_c, 1, 50, 64
3, 307440, Note_on_c, 1, 47, 65
3, 307554, Note_off_c, 1, 47, 64
3, 307560, Note_on_c, 1, 51, 65
3, 307674, Note_off_c, 1, 51, 64
3, 307680, Note_on_c, 1, 50, 65
3, 307737, Note_off_c, 1, 50, 56
3, 307740, Note_on_c, 1, 48, 65
3, 307797, Note_off_c, 1, 48, 56
3, 307800, Note_on_c, 1, 47, 65
3, 307914, Note_off_c, 1, 47, 64
3, 308400, Note_on_c, 1, 48, 65
3, 308514, Note_off_c, 1, 48, 64
3, 308520, Note_on_c, 1, 53, 65
3, 308634, Note_off_c, 1, 53, 64
3, 308640, Note_on_c, 1, 51, 65
3, 308754, Note_off_c, 1, 51, 64
3, 308760, Note_on_c, 1, 55, 65
3, 308874, Note_off_c, 1, 55, 64
3, 308880, Note_on_c, 1, 54, 65
3, 308994, Note_off_c, 1, 54, 64
3, 309000, Note_on_c, 1, 60, 65
3, 309177, Note_off_c, 1, 60, 64
3, 309180, Note_on_c, 1, 58, 65
3, 309237, Note_off_c, 1, 58, 56
3, 309240, Note_on_c, 1, 56, 65
3, 309354, Note_off_c, 1, 56, 64
3, 309480, Note_on_c, 1, 54, 65
3, 309594, Note_off_c, 1, 54, 64
3, 309600, Note_on_c, 1, 58, 65
3, 309714, Note_off_c, 1, 58, 64
3, 309720, Note_on_c, 1, 57, 65
3, 309834, Note_off_c, 1, 57, 64
3, 309840, Note_on_c, 1, 55, 65
3, 309954, Note_off_c, 1, 55, 64
3, 309960, Note_on_c, 1, 60, 65
3, 310074, Note_off_c, 1, 60, 64
3, 310080, Note_on_c, 1, 57, 65
3, 310194, Note_off_c, 1, 57, 64
3, 310200, Note_on_c, 1, 62, 65
3, 310314, Note_off_c, 1, 62, 64
3, 310320, Note_on_c, 1, 58, 65
3, 310434, Note_off_c, 1, 58, 64
3, 310440, Note_on_c, 1, 63, 65
3, 310554, Note_off_c, 1, 63, 64
3, 310560, Note_on_c, 1, 62, 65
3, 310617, Note_off_c, 1, 62, 56
3, 310620, Note_on_c, 1, 60, 65
3, 310677, Note_off_c, 1, 60, 56
3, 310680, Note_on_c, 1, 58, 65
3, 310794, Note_off_c, 1, 58, 64
3, 311040, Note_on_c, 1, 55, 65
3, 311154, Note_off_c, 1, 55, 64
3, 311160, Note_on_c, 1, 60, 65
3, 311337, Note_off_c, 1, 60, 64
3, 311340, Note_on_c, 1, 58, 65
3, 311397, Note_off_c, 1, 58, 56
3, 311400, Note_on_c, 1, 57, 65
3, 311514, Note_off_c, 1, 57, 64
3, 311520, Note_on_c, 1, 57, 65
3, 311577, Note_off_c, 1, 57, 56
3, 311580, Note_on_c, 1, 55, 65
3, 311637, Note_off_c, 1, 55, 56
3, 311640, Note_on_c, 1, 54, 65
3, 311754, Note_off_c, 1, 54, 64
3, 311760, Note_on_c, 1, 60, 65
3, 311874, Note_off_c, 1, 60, 64
3, 311880, Note_on_c, 1, 57, 65
3, 311994, Note_off_c, 1, 57, 64
3, 312000, Note_on_c, 1, 62, 65
3, 312114, Note_off_c, 1, 62, 64
3, 312120, Note_on_c, 1, 59, 65
3, 312234, Note_off_c, 1, 59, 64
3, 312240, Note_on_c, 1, 65, 65
3, 312354, Note_off_c, 1, 65, 64
3, 312360, Note_on_c, 1, 63, 65
3, 312417, Note_off_c, 1, 63, 56
3, 312420, Note_on_c, 1, 62, 65
3, 312477, Note_off_c, 1, 62, 56
3, 312480, Note_on_c, 1, 60, 65
3, 312657, Note_off_c, 1, 60, 64
3, 312660, Note_on_c, 1, 58, 65
3, 312717, Note_off_c, 1, 58, 56
3, 312720, Note_on_c, 1, 56, 65
3, 312897, Note_off_c, 1, 56, 64
3, 312900, Note_on_c, 1, 55, 65
3, 312957, Note_off_c, 1, 55, 56
3, 312960, Note_on_c, 1, 53, 65
3, 313017, Note_off_c, 1, 53, 56
3, 313020, Note_on_c, 1, 55, 65
3, 313077, Note_off_c, 1, 55, 56
3, 313080, Note_on_c, 1, 48, 65
3, 313080, Note_on_c, 1, 36, 65
3, 313782, Note_off_c, 1, 36, 64
3, 313782, Note_off_c, 1, 48, 64
3, 313800, Note_on_c, 1, 53, 67
3, 313800, Note_on_c, 1, 41, 67
3, 314502, Note_off_c, 1, 41, 64
3, 314502, Note_off_c, 1, 53, 64
3, 314520, Note_on_c, 1, 50, 69
3, 314520, Note_on_c, 1, 38, 69
3, 315222, Note_off_c, 1, 38, 64
3, 315222, Note_off_c, 1, 50, 64
3, 315240, Note_on_c, 1, 55, 71
3, 315240, Note_on_c, 1, 43, 71
3, 315942, Note_off_c, 1, 43, 64
3, 315942, Note_off_c, 1, 55, 64
3, 315960, Note_on_c, 1, 39, 73
3, 315960, Note_on_c, 1, 51, 73
3, 316662, Note_off_c, 1, 51, 64
3, 316662, Note_off_c, 1, 39, 64
3, 316680, Note_on_c, 1, 56, 75
3, 316680, Note_on_c, 1, 44, 75
3, 317382, Note_off_c, 1, 44, 64
3, 317382, Note_off_c, 1, 56, 64
3, 317400, Note_on_c, 1, 55, 77
3, 317400, Note_on_c, 1, 43, 77
3, 318102, Note_off_c, 1, 43, 64
3, 318102, Note_off_c, 1, 55, 64
3, 318120, Note_on_c, 1, 53, 79
3, 318120, Note_on_c, 1, 41, 79
3, 318822, Note_off_c, 1, 41, 64
3, 318822, Note_off_c, 1, 53, 64
3, 318840, Note_on_c, 1, 39, 80
3, 318840, Note_on_c, 1, 51, 80
3, 319068, Note_off_c, 1, 51, 64
3, 319068, Note_off_c, 1, 39, 64
3, 319200, Note_on_c, 1, 68, 80
3, 319314, Note_off_c, 1, 68, 64
3, 319440, Note_on_c, 1, 46, 80
3, 319497, Note_off_c, 1, 46, 56
3, 319500, Note_on_c, 1, 53, 80
3, 319557, Note_off_c, 1, 53, 56
3, 319560, Note_on_c, 1, 51, 80
3, 319617, Note_off_c, 1, 51, 56
3, 319620, Note_on_c, 1, 56, 80
3, 319677, Note_off_c, 1, 56, 56
3, 319680, Note_on_c, 1, 55, 80
3, 319709, Note_off_c, 1, 55, 48
3, 319710, Note_on_c, 1, 53, 80
3, 319739, Note_off_c, 1, 53, 48
3, 319740, Note_on_c, 1, 51, 80
3, 319797, Note_off_c, 1, 51, 56
3, 319920, Note_on_c, 1, 63, 80
3, 319977, Note_off_c, 1, 63, 56
3, 319980, Note_on_c, 1, 68, 80
3, 320037, Note_off_c, 1, 68, 56
3, 320040, Note_on_c, 1, 67, 80
3, 320097, Note_off_c, 1, 67, 56
3, 320100, Note_on_c, 1, 72, 80
3, 320157, Note_off_c, 1, 72, 56
3, 320160, Note_on_c, 1, 70, 80
3, 320189, Note_off_c, 1, 70, 48
3, 320190, Note_on_c, 1, 68, 80
3, 320219, Note_off_c, 1, 68, 48
3, 320220, Note_on_c, 1, 67, 80
3, 320277, Note_off_c, 1, 67, 56
3, 320280, Note_on_c, 1, 75, 80
3, 320622, Note_off_c, 1, 75, 64
3, 320640, Note_on_c, 1, 69, 80
3, 320982, Note_off_c, 1, 69, 64
3, 321000, Note_on_c, 1, 73, 80
3, 321342, Note_off_c, 1, 73, 64
3, 321360, Note_on_c, 1, 67, 80
3, 321702, Note_off_c, 1, 67, 64
3, 321720, Note_on_c, 1, 72, 81
3, 322062, Note_off_c, 1, 72, 64
3, 322080, Note_on_c, 1, 65, 82
3, 322422, Note_off_c, 1, 65, 64
3, 322440, Note_on_c, 1, 67, 83
3, 322668, Note_off_c, 1, 67, 64
3, 322680, Note_on_c, 1, 68, 84
3, 322794, Note_off_c, 1, 68, 64
3, 322800, Note_on_c, 1, 70, 85
3, 323142, Note_off_c, 1, 70, 64
3, 323160, Note_on_c, 1, 32, 86
3, 323160, Note_on_c, 1, 44, 86
3, 323502, Note_off_c, 1, 44, 64
3, 323502, Note_off_c, 1, 32, 64
3, 323520, Note_on_c, 1, 37, 87
3, 323520, Note_on_c, 1, 49, 87
3, 323862, Note_off_c, 1, 49, 64
3, 323862, Note_off_c, 1, 37, 64
3, 323880, Note_on_c, 1, 34, 88
3, 323880, Note_on_c, 1, 46, 88
3, 324222, Note_off_c, 1, 46, 64
3, 324222, Note_off_c, 1, 34, 64
3, 324240, Note_on_c, 1, 39, 90
3, 324240, Note_on_c, 1, 51, 90
3, 324582, Note_off_c, 1, 51, 64
3, 324582, Note_off_c, 1, 39, 64
3, 324600, Note_on_c, 1, 48, 91
3, 324600, Note_on_c, 1, 36, 91
3, 324942, Note_off_c, 1, 36, 64
3, 324942, Note_off_c, 1, 48, 64
3, 324960, Note_on_c, 1, 41, 92
3, 324960, Note_on_c, 1, 53, 92
3, 325302, Note_off_c, 1, 53, 64
3, 325302, Note_off_c, 1, 41, 64
3, 325320, Note_on_c, 1, 39, 93
3, 325320, Note_on_c, 1, 51, 93
3, 325548, Note_off_c, 1, 51, 64
3, 325548, Note_off_c, 1, 39, 64
3, 325560, Note_on_c, 1, 37, 94
3, 325560, Note_on_c, 1, 49, 94
3, 325674, Note_off_c, 1, 49, 64
3, 325674, Note_off_c, 1, 37, 64
3, 325680, Note_on_c, 1, 36, 95
3, 325680, Note_on_c, 1, 48, 95
3, 325794, Note_off_c, 1, 48, 64
3, 325794, Note_off_c, 1, 36, 64
3, 325800, Note_on_c, 1, 46, 95
3, 325800, Note_on_c, 1, 34, 95
3, 325914, Note_off_c, 1, 34, 64
3, 325914, Note_off_c, 1, 46, 64
3, 325920, Note_on_c, 1, 44, 95
3, 325920, Note_on_c, 1, 32, 95
3, 326034, Note_off_c, 1, 32, 64
3, 326034, Note_off_c, 1, 44, 64
3, 326040, Note_on_c, 1, 43, 95
3, 326040, Note_on_c, 1, 31, 95
3, 326268, Note_off_c, 1, 31, 64
3, 326268, Note_off_c, 1, 43, 64
3, 330360, Note_on_c, 1, 48, 95
3, 330360, Control_c, 1, 64, 127
3, 330417, Note_off_c, 1, 48, 56
3, 330420, Note_on_c, 1, 53, 95
3, 330477, Note_off_c, 1, 53, 56
3, 330480, Note_on_c, 1, 51, 95
3, 330537, Note_off_c, 1, 51, 56
3, 330540, Note_on_c, 1, 56, 95
3, 330597, Note_off_c, 1, 56, 56
3, 330600, Note_on_c, 1, 55, 95
3, 330657, Note_off_c, 1, 55, 56
3, 330660, Note_on_c, 1, 56, 95
3, 330696, Control_c, 1, 64, 0
3, 330717, Note_off_c, 1, 56, 56
3, 330720, Note_on_c, 1, 46, 95
3, 330720, Control_c, 1, 64, 126
3, 330777, Note_off_c, 1, 46, 56
3, 330780, Note_on_c, 1, 55, 95
3, 330837, Note_off_c, 1, 55, 56
3, 330840, Note_on_c, 1, 51, 95
3, 330897, Note_off_c, 1, 51, 56
3, 330900, Note_on_c, 1, 55, 95
3, 330957, Note_off_c, 1, 55, 56
3, 330960, Note_on_c, 1, 51, 95
3, 331017, Note_off_c, 1, 51, 56
3, 331020, Note_on_c, 1, 55, 95
3, 331048, Control_c, 1, 64, 0
3, 331077, Note_off_c, 1, 55, 56
3, 331080, Note_on_c, 1, 49, 95
3, 331080, Control_c, 1, 64, 127
3, 331137, Note_off_c, 1, 49, 56
3, 331140, Note_on_c, 1, 58, 96
3, 331197, Note_off_c, 1, 58, 56
3, 331200, Note_on_c, 1, 51, 96
3, 331257, Note_off_c, 1, 51, 56
3, 331260, Note_on_c, 1, 58, 96
3, 331317, Note_off_c, 1, 58, 56
3, 331320, Note_on_c, 1, 51, 96
3, 331377, Note_off_c, 1, 51, 56
3, 331380, Note_on_c, 1, 58, 96
3, 331408, Control_c, 1, 64, 0
3, 331437, Note_off_c, 1, 58, 56
3, 331440, Note_on_c, 1, 48, 96
3, 331440, Control_c, 1, 64, 126
3, 331497, Note_off_c, 1, 48, 56
3, 331500, Note_on_c, 1, 53, 96
3, 331557, Note_off_c, 1, 53, 56
3, 331560, Note_on_c, 1, 51, 96
3, 331617, Note_off_c, 1, 51, 56
3, 331620, Note_on_c, 1, 56, 96
3, 331677, Note_off_c, 1, 56, 56
3, 331680, Note_on_c, 1, 55, 96
3, 331737, Note_off_c, 1, 55, 56
3, 331740, Note_on_c, 1, 56, 96
3, 331768, Control_c, 1, 64, 0
3, 331797, Note_off_c, 1, 56, 56
3, 331800, Note_on_c, 1, 51, 96
3, 331800, Control_c, 1, 64, 127
3, 331857, Note_off_c, 1, 51, 56
3, 331860, Note_on_c, 1, 56, 96
3, 331917, Note_off_c, 1, 56, 56
3, 331920, Note_on_c, 1, 54, 96
3, 331977, Note_off_c, 1, 54, 56
3, 331980, Note_on_c, 1, 56, 96
3, 332037, Note_off_c, 1, 56, 56
3, 332040, Note_on_c, 1, 55, 96
3, 332097, Note_off_c, 1, 55, 56
3, 332100, Note_on_c, 1, 56, 96
3, 332128, Control_c, 1, 64, 0
3, 332157, Note_off_c, 1, 56, 56
3, 332160, Note_on_c, 1, 49, 96
3, 332160, Control_c, 1, 64, 126
3, 332217, Note_off_c, 1, 49, 56
3, 332220, Note_on_c, 1, 56, 97
3, 332277, Note_off_c, 1, 56, 56
3, 332280, Note_on_c, 1, 55, 97
3, 332337, Note_off_c, 1, 55, 56
3, 332340, Note_on_c, 1, 56, 97
3, 332397, Note_off_c, 1, 56, 56
3, 332400, Note_on_c, 1, 50, 97
3, 332457, Note_off_c, 1, 50, 56
3, 332460, Note_on_c, 1, 56, 97
3, 332488, Control_c, 1, 64, 0
3, 332517, Note_off_c, 1, 56, 56
3, 332520, Note_on_c, 1, 51, 97
3, 332520, Control_c, 1, 64, 127
3, 332577, Note_off_c, 1, 51, 56
3, 332580, Note_on_c, 1, 55, 97
3, 332637, Note_off_c, 1, 55, 56
3, 332640, Note_on_c, 1, 51, 97
3, 332697, Note_off_c, 1, 51, 56
3, 332700, Note_on_c, 1, 55, 97
3, 332757, Note_off_c, 1, 55, 56
3, 332760, Note_on_c, 1, 52, 97
3, 332817, Note_off_c, 1, 52, 56
3, 332820, Note_on_c, 1, 58, 97
3, 332848, Control_c, 1, 64, 0
3, 332877, Note_off_c, 1, 58, 56
3, 332880, Note_on_c, 1, 53, 97
3, 332880, Control_c, 1, 64, 126
3, 332937, Note_off_c, 1, 53, 56
3, 332940, Note_on_c, 1, 60, 97
3, 332997, Note_off_c, 1, 60, 56
3, 333000, Note_on_c, 1, 56, 97
3, 333057, Note_off_c, 1, 56, 56
3, 333060, Note_on_c, 1, 60, 97
3, 333117, Note_off_c, 1, 60, 56
3, 333120, Note_on_c, 1, 59, 97
3, 333177, Note_off_c, 1, 59, 56
3, 333180, Note_on_c, 1, 60, 97
3, 333208, Control_c, 1, 64, 0
3, 333237, Note_off_c, 1, 60, 56
3, 333240, Note_on_c, 1, 53, 97
3, 333240, Control_c, 1, 64, 127
3, 333297, Note_off_c, 1, 53, 56
3, 333300, Note_on_c, 1, 61, 97
3, 333357, Note_off_c, 1, 61, 56
3, 333360, Note_on_c, 1, 56, 98
3, 333417, Note_off_c, 1, 56, 56
3, 333420, Note_on_c, 1, 61, 98
3, 333477, Note_off_c, 1, 61, 56
3, 333480, Note_on_c, 1, 60, 98
3, 333537, Note_off_c, 1, 60, 56
3, 333540, Note_on_c, 1, 61, 98
3, 333568, Control_c, 1, 64, 0
3, 333597, Note_off_c, 1, 61, 56
3, 333600, Note_on_c, 1, 49, 98
3, 333600, Control_c, 1, 64, 126
3, 333657, Note_off_c, 1, 49, 56
3, 333660, Note_on_c, 1, 61, 98
3, 333717, Note_off_c, 1, 61, 56
3, 333720, Note_on_c, 1, 56, 98
3, 333777, Note_off_c, 1, 56, 56
3, 333780, Note_on_c, 1, 61, 98
3, 333837, Note_off_c, 1, 61, 56
3, 333840, Note_on_c, 1, 60, 98
3, 333897, Note_off_c, 1, 60, 56
3, 333900, Note_on_c, 1, 61, 98
3, 333928, Control_c, 1, 64, 0
3, 333957, Note_off_c, 1, 61, 56
3, 333960, Note_on_c, 1, 53, 98
3, 333960, Control_c, 1, 64, 127
3, 334017, Note_off_c, 1, 53, 56
3, 334020, Note_on_c, 1, 61, 98
3, 334077, Note_off_c, 1, 61, 56
3, 334080, Note_on_c, 1, 56, 98
3, 334137, Note_off_c, 1, 56, 56
3, 334140, Note_on_c, 1, 61, 98
3, 334197, Note_off_c, 1, 61, 56
3, 334200, Note_on_c, 1, 56, 98
3, 334257, Note_off_c, 1, 56, 56
3, 334260, Note_on_c, 1, 61, 98
3, 334288, Control_c, 1, 64, 0
3, 334317, Note_off_c, 1, 61, 56
3, 334320, Note_on_c, 1, 56, 98
3, 334320, Control_c, 1, 64, 126
3, 334377, Note_off_c, 1, 56, 56
3, 334380, Note_on_c, 1, 63, 98
3, 334437, Note_off_c, 1, 63, 56
3, 334440, Note_on_c, 1, 60, 99
3, 334497, Note_off_c, 1, 60, 56
3, 334500, Note_on_c, 1, 63, 99
3, 334557, Note_off_c, 1, 63, 56
3, 334560, Note_on_c, 1, 62, 99
3, 334617, Note_off_c, 1, 62, 56
3, 334620, Note_on_c, 1, 63, 99
3, 334648, Control_c, 1, 64, 0
3, 334677, Note_off_c, 1, 63, 56
3, 334680, Note_on_c, 1, 56, 99
3, 334680, Control_c, 1, 64, 127
3, 334737, Note_off_c, 1, 56, 56
3, 334740, Note_on_c, 1, 60, 99
3, 334797, Note_off_c, 1, 60, 56
3, 334800, Note_on_c, 1, 59, 99
3, 334857, Note_off_c, 1, 59, 56
3, 334860, Note_on_c, 1, 60, 99
3, 334917, Note_off_c, 1, 60, 56
3, 334920, Note_on_c, 1, 56, 99
3, 334977, Note_off_c, 1, 56, 56
3, 334980, Note_on_c, 1, 60, 99
3, 335008, Control_c, 1, 64, 0
3, 335037, Note_off_c, 1, 60, 56
3, 335040, Note_on_c, 1, 49, 99
3, 335040, Control_c, 1, 64, 126
3, 335097, Note_off_c, 1, 49, 56
3, 335100, Note_on_c, 1, 58, 99
3, 335157, Note_off_c, 1, 58, 56
3, 335160, Note_on_c, 1, 53, 99
3, 335217, Note_off_c, 1, 53, 56
3, 335220, Note_on_c, 1, 58, 99
3, 335277, Note_off_c, 1, 58, 56
3, 335280, Note_on_c, 1, 57, 99
3, 335337, Note_off_c, 1, 57, 56
3, 335340, Note_on_c, 1, 58, 99
3, 335368, Control_c, 1, 64, 0
3, 335397, Note_off_c, 1, 58, 56
3, 335400, Note_on_c, 1, 50, 99
3, 335400, Control_c, 1, 64, 127
3, 335457, Note_off_c, 1, 50, 56
3, 335460, Note_on_c, 1, 58, 99
3, 335517, Note_off_c, 1, 58, 56
3, 335520, Note_on_c, 1, 53, 100
3, 335577, Note_off_c, 1, 53, 56
3, 335580, Note_on_c, 1, 58, 100
3, 335637, Note_off_c, 1, 58, 56
3, 335640, Note_on_c, 1, 50, 100
3, 335697, Note_off_c, 1, 50, 56
3, 335700, Note_on_c, 1, 58, 100
3, 335728, Control_c, 1, 64, 0
3, 335757, Note_off_c, 1, 58, 56
3, 335760, Note_on_c, 1, 51, 100
3, 335760, Control_c, 1, 64, 126
3, 335817, Note_off_c, 1, 51, 56
3, 335820, Note_on_c, 1, 58, 100
3, 335877, Note_off_c, 1, 58, 56
3, 335880, Note_on_c, 1, 55, 100
3, 335937, Note_off_c, 1, 55, 56
3, 335940, Note_on_c, 1, 58, 100
3, 335997, Note_off_c, 1, 58, 56
3, 336000, Note_on_c, 1, 57, 100
3, 336057, Note_off_c, 1, 57, 56
3, 336060, Note_on_c, 1, 58, 100
3, 336088, Control_c, 1, 64, 0
3, 336117, Note_off_c, 1, 58, 56
3, 336120, Note_on_c, 1, 51, 100
3, 336120, Control_c, 1, 64, 127
3, 336177, Note_off_c, 1, 51, 56
3, 336180, Note_on_c, 1, 58, 100
3, 336237, Note_off_c, 1, 58, 56
3, 336240, Note_on_c, 1, 55, 100
3, 336297, Note_off_c, 1, 55, 56
3, 336300, Note_on_c, 1, 58, 100
3, 336357, Note_off_c, 1, 58, 56
3, 336360, Note_on_c, 1, 51, 100
3, 336417, Note_off_c, 1, 51, 56
3, 336420, Note_on_c, 1, 55, 100
3, 336448, Control_c, 1, 64, 0
3, 336477, Note_off_c, 1, 55, 56
3, 336480, Note_on_c, 1, 51, 100
3, 336480, Control_c, 1, 64, 126
3, 336537, Note_off_c, 1, 51, 56
3, 336540, Note_on_c, 1, 55, 100
3, 336597, Note_off_c, 1, 55, 56
3, 336600, Note_on_c, 1, 53, 100
3, 336657, Note_off_c, 1, 53, 56
3, 336660, Note_on_c, 1, 56, 101
3, 336717, Note_off_c, 1, 56, 56
3, 336720, Note_on_c, 1, 55, 101
3, 336777, Note_off_c, 1, 55, 56
3, 336780, Note_on_c, 1, 58, 101
3, 336808, Control_c, 1, 64, 0
3, 336837, Note_off_c, 1, 58, 56
3, 336840, Note_on_c, 1, 55, 101
3, 336840, Control_c, 1, 64, 127
3, 336897, Note_off_c, 1, 55, 56
3, 336900, Note_on_c, 1, 58, 101
3, 336957, Note_off_c, 1, 58, 56
3, 336960, Note_on_c, 1, 56, 101
3, 337017, Note_off_c, 1, 56, 56
3, 337020, Note_on_c, 1, 60, 101
3, 337077, Note_off_c, 1, 60, 56
3, 337080, Note_on_c, 1, 58, 101
3, 337137, Note_off_c, 1, 58, 56
3, 337140, Note_on_c, 1, 61, 101
3, 337168, Control_c, 1, 64, 0
3, 337197, Note_off_c, 1, 61, 56
3, 337200, Note_on_c, 1, 60, 101
3, 337200, Control_c, 1, 64, 126
3, 337257, Note_off_c, 1, 60, 56
3, 337260, Note_on_c, 1, 63, 101
3, 337317, Note_off_c, 1, 63, 56
3, 337320, Note_on_c, 1, 61, 101
3, 337377, Note_off_c, 1, 61, 56
3, 337380, Note_on_c, 1, 65, 101
3, 337437, Note_off_c, 1, 65, 56
3, 337440, Note_on_c, 1, 60, 101
3, 337497, Note_off_c, 1, 60, 56
3, 337500, Note_on_c, 1, 63, 101
3, 337528, Control_c, 1, 64, 0
3, 337557, Note_off_c, 1, 63, 56
3, 337560, Note_on_c, 1, 59, 101
3, 337560, Control_c, 1, 64, 127
3, 337617, Note_off_c, 1, 59, 56
3, 337620, Note_on_c, 1, 65, 101
3, 337677, Note_off_c, 1, 65, 56
3, 337680, Note_on_c, 1, 62, 101
3, 337737, Note_off_c, 1, 62, 56
3, 337740, Note_on_c, 1, 65, 102
3, 337797, Note_off_c, 1, 65, 56
3, 337800, Note_on_c, 1, 64, 102
3, 337857, Note_off_c, 1, 64, 56
3, 337860, Note_on_c, 1, 65, 102
3, 337888, Control_c, 1, 64, 0
3, 337917, Note_off_c, 1, 65, 56
3, 337920, Note_on_c, 1, 59, 102
3, 337920, Control_c, 1, 64, 126
3, 337977, Note_off_c, 1, 59, 56
3, 337980, Note_on_c, 1, 65, 102
3, 338037, Note_off_c, 1, 65, 56
3, 338040, Note_on_c, 1, 62, 102
3, 338097, Note_off_c, 1, 62, 56
3, 338100, Note_on_c, 1, 65, 102
3, 338157, Note_off_c, 1, 65, 56
3, 338160, Note_on_c, 1, 64, 102
3, 338217, Note_off_c, 1, 64, 56
3, 338220, Note_on_c, 1, 65, 102
3, 338248, Control_c, 1, 64, 0
3, 338277, Note_off_c, 1, 65, 56
3, 338280, Note_on_c, 1, 59, 102
3, 338280, Control_c, 1, 64, 127
3, 338337, Note_off_c, 1, 59, 56
3, 338340, Note_on_c, 1, 68, 102
3, 338397, Note_off_c, 1, 68, 56
3, 338400, Note_on_c, 1, 62, 102
3, 338457, Note_off_c, 1, 62, 56
3, 338460, Note_on_c, 1, 68, 102
3, 338517, Note_off_c, 1, 68, 56
3, 338520, Note_on_c, 1, 59, 102
3, 338577, Note_off_c, 1, 59, 56
3, 338580, Note_on_c, 1, 68, 102
3, 338608, Control_c, 1, 64, 0
3, 338637, Note_off_c, 1, 68, 56
3, 338640, Note_on_c, 1, 60, 102
3, 338640, Control_c, 1, 64, 126
3, 338697, Note_off_c, 1, 60, 56
3, 338700, Note_on_c, 1, 68, 102
3, 338757, Note_off_c, 1, 68, 56
3, 338760, Note_on_c, 1, 63, 102
3, 338817, Note_off_c, 1, 63, 56
3, 338820, Note_on_c, 1, 68, 102
3, 338877, Note_off_c, 1, 68, 56
3, 338880, Note_on_c, 1, 67, 103
3, 338937, Note_off_c, 1, 67, 56
3, 338940, Note_on_c, 1, 68, 103
3, 338968, Control_c, 1, 64, 0
3, 338997, Note_off_c, 1, 68, 56
3, 339000, Note_on_c, 1, 61, 103
3, 339000, Control_c, 1, 64, 127
3, 339057, Note_off_c, 1, 61, 56
3, 339060, Note_on_c, 1, 68, 103
3, 339117, Note_off_c, 1, 68, 56
3, 339120, Note_on_c, 1, 65, 103
3, 339177, Note_off_c, 1, 65, 56
3, 339180, Note_on_c, 1, 68, 103
3, 339237, Note_off_c, 1, 68, 56
3, 339240, Note_on_c, 1, 62, 103
3, 339297, Note_off_c, 1, 62, 56
3, 339300, Note_on_c, 1, 65, 103
3, 339328, Control_c, 1, 64, 0
3, 339357, Note_off_c, 1, 65, 56
3, 339360, Note_on_c, 1, 65, 103
3, 339360, Control_c, 1, 64, 126
3, 339417, Note_off_c, 1, 65, 56
3, 339420, Note_on_c, 1, 63, 103
3, 339477, Note_off_c, 1, 63, 56
3, 339480, Note_on_c, 1, 61, 103
3, 339537, Note_off_c, 1, 61, 56
3, 339540, Note_on_c, 1, 60, 103
3, 339597, Note_off_c, 1, 60, 56
3, 339600, Note_on_c, 1, 58, 103
3, 339657, Note_off_c, 1, 58, 56
3, 339660, Note_on_c, 1, 56, 103
3, 339688, Control_c, 1, 64, 0
3, 339717, Note_off_c, 1, 56, 56
3, 339720, Note_on_c, 1, 56, 103
3, 339720, Control_c, 1, 64, 127
3, 339777, Note_off_c, 1, 56, 56
3, 339780, Note_on_c, 1, 55, 103
3, 339837, Note_off_c, 1, 55, 56
3, 339840, Note_on_c, 1, 53, 103
3, 339897, Note_off_c, 1, 53, 56
3, 339900, Note_on_c, 1, 51, 103
3, 339957, Note_off_c, 1, 51, 56
3, 339960, Note_on_c, 1, 50, 104
3, 340017, Note_off_c, 1, 50, 56
3, 340020, Note_on_c, 1, 51, 104
3, 340048, Control_c, 1, 64, 0
3, 340077, Note_off_c, 1, 51, 56
3, 340080, Note_on_c, 1, 41, 104
3, 340080, Control_c, 1, 64, 126
3, 340137, Note_off_c, 1, 41, 56
3, 340140, Note_on_c, 1, 53, 104
3, 340197, Note_off_c, 1, 53, 56
3, 340200, Note_on_c, 1, 46, 104
3, 340257, Note_off_c, 1, 46, 56
3, 340260, Note_on_c, 1, 53, 104
3, 340317, Note_off_c, 1, 53, 56
3, 340320, Note_on_c, 1, 46, 104
3, 340377, Note_off_c, 1, 46, 56
3, 340380, Note_on_c, 1, 53, 104
3, 340408, Control_c, 1, 64, 0
3, 340437, Note_off_c, 1, 53, 56
3, 340440, Note_on_c, 1, 43, 104
3, 340440, Control_c, 1, 64, 127
3, 340497, Note_off_c, 1, 43, 56
3, 340500, Note_on_c, 1, 55, 104
3, 340557, Note_off_c, 1, 55, 56
3, 340560, Note_on_c, 1, 51, 104
3, 340617, Note_off_c, 1, 51, 56
3, 340620, Note_on_c, 1, 55, 104
3, 340677, Note_off_c, 1, 55, 56
3, 340680, Note_on_c, 1, 51, 104
3, 340737, Note_off_c, 1, 51, 56
3, 340740, Note_on_c, 1, 55, 104
3, 340768, Control_c, 1, 64, 0
3, 340797, Note_off_c, 1, 55, 56
3, 340800, Note_on_c, 1, 44, 104
3, 340800, Control_c, 1, 64, 126
3, 340857, Note_off_c, 1, 44, 56
3, 340860, Note_on_c, 1, 46, 104
3, 340917, Note_off_c, 1, 46, 56
3, 340920, Note_on_c, 1, 44, 104
3, 340977, Note_off_c, 1, 44, 56
3, 340980, Note_on_c, 1, 42, 104
3, 341037, Note_off_c, 1, 42, 56
3, 341040, Note_on_c, 1, 41, 105
3, 341097, Note_off_c, 1, 41, 56
3, 341100, Note_on_c, 1, 39, 105
3, 341128, Control_c, 1, 64, 0
3, 341157, Note_off_c, 1, 39, 56
3, 341160, Note_on_c, 1, 37, 105
3, 341160, Control_c, 1, 64, 127
3, 341217, Note_off_c, 1, 37, 56
3, 341220, Note_on_c, 1, 44, 105
3, 341277, Note_off_c, 1, 44, 56
3, 341280, Note_on_c, 1, 41, 105
3, 341337, Note_off_c, 1, 41, 56
3, 341340, Note_on_c, 1, 44, 105
3, 341397, Note_off_c, 1, 44, 56
3, 341400, Note_on_c, 1, 38, 105
3, 341457, Note_off_c, 1, 38, 56
3, 341460, Note_on_c, 1, 44, 105
3, 341488, Control_c, 1, 64, 0
3, 341517, Note_off_c, 1, 44, 56
3, 341520, Note_on_c, 1, 39, 105
3, 341520, Control_c, 1, 64, 126
3, 341577, Note_off_c, 1, 39, 56
3, 341580, Note_on_c, 1, 51, 105
3, 341637, Note_off_c, 1, 51, 56
3, 341640, Note_on_c, 1, 37, 105
3, 341697, Note_off_c, 1, 37, 56
3, 341700, Note_on_c, 1, 49, 105
3, 341757, Note_off_c, 1, 49, 56
3, 341760, Note_on_c, 1, 39, 105
3, 341817, Note_off_c, 1, 39, 56
3, 341820, Note_on_c, 1, 51, 105
3, 341848, Control_c, 1, 64, 0
3, 341877, Note_off_c, 1, 51, 56
3, 341880, Note_on_c, 1, 32, 105
3, 341880, Control_c, 1, 64, 127
3, 341937, Note_off_c, 1, 32, 56
3, 341940, Note_on_c, 1, 44, 105
3, 341997, Note_off_c, 1, 44, 56
3, 342000, Note_on_c, 1, 36, 105
3, 342057, Note_off_c, 1, 36, 56
3, 342060, Note_on_c, 1, 44, 105
3, 342117, Note_off_c, 1, 44, 56
3, 342120, Note_on_c, 1, 39, 105
3, 342177, Note_off_c, 1, 39, 56
3, 342180, Note_on_c, 1, 44, 106
3, 342208, Control_c, 1, 64, 0
3, 342237, Note_off_c, 1, 44, 56
3, 342240, Note_on_c, 1, 32, 106
3, 342240, Control_c, 1, 64, 126
3, 342297, Note_off_c, 1, 32, 56
3, 342300, Note_on_c, 1, 44, 106
3, 342357, Note_off_c, 1, 44, 56
3, 342360, Note_on_c, 1, 37, 106
3, 342417, Note_off_c, 1, 37, 56
3, 342420, Note_on_c, 1, 44, 106
3, 342477, Note_off_c, 1, 44, 56
3, 342480, Note_on_c, 1, 41, 106
3, 342537, Note_off_c, 1, 41, 56
3, 342540, Note_on_c, 1, 44, 106
3, 342568, Control_c, 1, 64, 0
3, 342597, Note_off_c, 1, 44, 56
3, 342600, Note_on_c, 1, 32, 106
3, 342600, Control_c, 1, 64, 127
3, 342657, Note_off_c, 1, 32, 56
3, 342660, Note_on_c, 1, 44, 106
3, 342717, Note_off_c, 1, 44, 56
3, 342720, Note_on_c, 1, 37, 106
3, 342777, Note_off_c, 1, 37, 56
3, 342780, Note_on_c, 1, 44, 106
3, 342837, Note_off_c, 1, 44, 56
3, 342840, Note_on_c, 1, 40, 106
3, 342897, Note_off_c, 1, 40, 56
3, 342900, Note_on_c, 1, 44, 106
3, 342928, Control_c, 1, 64, 0
3, 342957, Note_off_c, 1, 44, 56
3, 342960, Note_on_c, 1, 32, 106
3, 342960, Control_c, 1, 64, 126
3, 343017, Note_off_c, 1, 32, 56
3, 343020, Note_on_c, 1, 44, 106
3, 343077, Note_off_c, 1, 44, 56
3, 343080, Note_on_c, 1, 36, 106
3, 343137, Note_off_c, 1, 36, 56
3, 343140, Note_on_c, 1, 44, 106
3, 343197, Note_off_c, 1, 44, 56
3, 343200, Note_on_c, 1, 39, 106
3, 343257, Note_off_c, 1, 39, 56
3, 343260, Note_on_c, 1, 44, 107
3, 343288, Control_c, 1, 64, 0
3, 343317, Note_off_c, 1, 44, 56
3, 343320, Note_on_c, 1, 32, 107
3, 343320, Control_c, 1, 64, 127
3, 343377, Note_off_c, 1, 32, 56
3, 343380, Note_on_c, 1, 44, 107
3, 343437, Note_off_c, 1, 44, 56
3, 343440, Note_on_c, 1, 39, 107
3, 343497, Note_off_c, 1, 39, 56
3, 343500, Note_on_c, 1, 44, 107
3, 343557, Note_off_c, 1, 44, 56
3, 343560, Note_on_c, 1, 42, 107
3, 343617, Note_off_c, 1, 42, 56
3, 343620, Note_on_c, 1, 44, 107
3, 343648, Control_c, 1, 64, 0
3, 343677, Note_off_c, 1, 44, 56
3, 343680, Note_on_c, 1, 32, 107
3, 343680, Control_c, 1, 64, 126
3, 343737, Note_off_c, 1, 32, 56
3, 343740, Note_on_c, 1, 44, 107
3, 343797, Note_off_c, 1, 44, 56
3, 343800, Note_on_c, 1, 37, 107
3, 343857, Note_off_c, 1, 37, 56
3, 343860, Note_on_c, 1, 44, 107
3, 343917, Note_off_c, 1, 44, 56
3, 343920, Note_on_c, 1, 41, 107
3, 343977, Note_off_c, 1, 41, 56
3, 343980, Note_on_c, 1, 44, 107
3, 344008, Control_c, 1, 64, 0
3, 344037, Note_off_c, 1, 44, 56
3, 344040, Note_on_c, 1, 32, 107
3, 344040, Control_c, 1, 64, 127
3, 344097, Note_off_c, 1, 32, 56
3, 344100, Note_on_c, 1, 44, 107
3, 344157, Note_off_c, 1, 44, 56
3, 344160, Note_on_c, 1, 38, 107
3, 344217, Note_off_c, 1, 38, 56
3, 344220, Note_on_c, 1, 44, 107
3, 344277, Note_off_c, 1, 44, 56
3, 344280, Note_on_c, 1, 41, 107
3, 344337, Note_off_c, 1, 41, 56
3, 344340, Note_on_c, 1, 44, 107
3, 344368, Control_c, 1, 64, 0
3, 344397, Note_off_c, 1, 44, 56
3, 344400, Note_on_c, 1, 32, 108
3, 344400, Control_c, 1, 64, 126
3, 344457, Note_off_c, 1, 32, 56
3, 344460, Note_on_c, 1, 44, 108
3, 344517, Note_off_c, 1, 44, 56
3, 344520, Note_on_c, 1, 39, 108
3, 344577, Note_off_c, 1, 39, 56
3, 344580, Note_on_c, 1, 44, 108
3, 344637, Note_off_c, 1, 44, 56
3, 344640, Note_on_c, 1, 42, 108
3, 344697, Note_off_c, 1, 42, 56
3, 344700, Note_on_c, 1, 44, 108
3, 344728, Control_c, 1, 64, 0
3, 344757, Note_off_c, 1, 44, 56
3, 344760, Note_on_c, 1, 32, 108
3, 344760, Control_c, 1, 64, 127
3, 344817, Note_off_c, 1, 32, 56
3, 344820, Note_on_c, 1, 44, 108
3, 344877, Note_off_c, 1, 44, 56
3, 344880, Note_on_c, 1, 39, 108
3, 344937, Note_off_c, 1, 39, 56
3, 344940, Note_on_c, 1, 44, 108
3, 344997, Note_off_c, 1, 44, 56
3, 345000, Note_on_c, 1, 42, 108
3, 345057, Note_off_c, 1, 42, 56
3, 345060, Note_on_c, 1, 44, 108
3, 345088, Control_c, 1, 64, 0
3, 345117, Note_off_c, 1, 44, 56
3, 345120, Note_on_c, 1, 32, 108
3, 345120, Control_c, 1, 64, 126
3, 345177, Note_off_c, 1, 32, 56
3, 345180, Note_on_c, 1, 44, 108
3, 345237, Note_off_c, 1, 44, 56
3, 345240, Note_on_c, 1, 37, 108
3, 345297, Note_off_c, 1, 37, 56
3, 345300, Note_on_c, 1, 44, 108
3, 345357, Note_off_c, 1, 44, 56
3, 345360, Note_on_c, 1, 41, 108
3, 345417, Note_off_c, 1, 41, 56
3, 345420, Note_on_c, 1, 44, 108
3, 345448, Control_c, 1, 64, 0
3, 345477, Note_off_c, 1, 44, 56
3, 345480, Note_on_c, 1, 32, 109
3, 345480, Control_c, 1, 64, 127
3, 345537, Note_off_c, 1, 32, 56
3, 345540, Note_on_c, 1, 44, 109
3, 345597, Note_off_c, 1, 44, 56
3, 345600, Note_on_c, 1, 38, 109
3, 345657, Note_off_c, 1, 38, 56
3, 345660, Note_on_c, 1, 44, 109
3, 345717, Note_off_c, 1, 44, 56
3, 345720, Note_on_c, 1, 41, 109
3, 345777, Note_off_c, 1, 41, 56
3, 345780, Note_on_c, 1, 44, 109
3, 345808, Control_c, 1, 64, 0
3, 345837, Note_off_c, 1, 44, 56
3, 345840, Note_on_c, 1, 32, 109
3, 345840, Control_c, 1, 64, 126
3, 345897, Note_off_c, 1, 32, 56
3, 345900, Note_on_c, 1, 44, 109
3, 345957, Note_off_c, 1, 44, 56
3, 345960, Note_on_c, 1, 38, 109
3, 346017, Note_off_c, 1, 38, 56
3, 346020, Note_on_c, 1, 44, 109
3, 346077, Note_off_c, 1, 44, 56
3, 346080, Note_on_c, 1, 41, 109
3, 346137, Note_off_c, 1, 41, 56
3, 346140, Note_on_c, 1, 44, 109
3, 346168, Control_c, 1, 64, 0
3, 346197, Note_off_c, 1, 44, 56
3, 346200, Note_on_c, 1, 32, 109
3, 346200, Control_c, 1, 64, 127
3, 346257, Note_off_c, 1, 32, 56
3, 346260, Note_on_c, 1, 44, 109
3, 346317, Note_off_c, 1, 44, 56
3, 346320, Note_on_c, 1, 38, 109
3, 346377, Note_off_c, 1, 38, 56
3, 346380, Note_on_c, 1, 44, 109
3, 346437, Note_off_c, 1, 44, 56
3, 346440, Note_on_c, 1, 41, 109
3, 346497, Note_off_c, 1, 41, 56
3, 346500, Note_on_c, 1, 44, 109
3, 346528, Control_c, 1, 64, 0
3, 346557, Note_off_c, 1, 44, 56
3, 346560, Note_on_c, 1, 31, 110
3, 346560, Control_c, 1, 64, 126
3, 346617, Note_off_c, 1, 31, 56
3, 346620, Note_on_c, 1, 43, 110
3, 346677, Note_off_c, 1, 43, 56
3, 346680, Note_on_c, 1, 34, 110
3, 346737, Note_off_c, 1, 34, 56
3, 346740, Note_on_c, 1, 43, 110
3, 346797, Note_off_c, 1, 43, 56
3, 346800, Note_on_c, 1, 37, 110
3, 346857, Note_off_c, 1, 37, 56
3, 346860, Note_on_c, 1, 43, 110
3, 346917, Note_off_c, 1, 43, 56
3, 346920, Note_on_c, 1, 40, 111
3, 346977, Note_off_c, 1, 40, 56
3, 346980, Note_on_c, 1, 43, 111
3, 347037, Note_off_c, 1, 43, 56
3, 347040, Note_on_c, 1, 37, 111
3, 347097, Note_off_c, 1, 37, 56
3, 347100, Note_on_c, 1, 43, 111
3, 347157, Note_off_c, 1, 43, 56
3, 347160, Note_on_c, 1, 34, 111
3, 347217, Note_off_c, 1, 34, 56
3, 347220, Note_on_c, 1, 43, 111
3, 347277, Note_off_c, 1, 43, 56
3, 347280, Note_on_c, 1, 31, 112
3, 347337, Note_off_c, 1, 31, 56
3, 347340, Note_on_c, 1, 43, 112
3, 347397, Note_off_c, 1, 43, 56
3, 347400, Note_on_c, 1, 34, 112
3, 347457, Note_off_c, 1, 34, 56
3, 347460, Note_on_c, 1, 43, 112
3, 347517, Note_off_c, 1, 43, 56
3, 347520, Note_on_c, 1, 37, 112
3, 347577, Note_off_c, 1, 37, 56
3, 347580, Note_on_c, 1, 43, 113
3, 347637, Note_off_c, 1, 43, 56
3, 347640, Note_on_c, 1, 40, 113
3, 347697, Note_off_c, 1, 40, 56
3, 347700, Note_on_c, 1, 43, 113
3, 347757, Note_off_c, 1, 43, 56
3, 347760, Note_on_c, 1, 37, 113
3, 347817, Note_off_c, 1, 37, 56
3, 347820, Note_on_c, 1, 43, 113
3, 347848, Control_c, 1, 64, 0
3, 347877, Note_off_c, 1, 43, 56
3, 347880, Note_on_c, 1, 34, 113
3, 347937, Note_off_c, 1, 34, 56
3, 347940, Note_on_c, 1, 43, 114
3, 347968, Control_c, 1, 64, 0
3, 347997, Note_off_c, 1, 43, 56
3, 348000, Note_on_c, 1, 36, 114
3, 348000, Control_c, 1, 64, 127
3, 348000, Note_on_c, 1, 32, 114
3, 348000, Note_on_c, 1, 39, 114
3, 348000, Note_on_c, 1, 44, 114
3, 348228, Note_off_c, 1, 44, 64
3, 348228, Note_off_c, 1, 39, 64
3, 348228, Note_off_c, 1, 32, 64
3, 348228, Note_off_c, 1, 36, 64
3, 350880, Note_on_c, 1, 39, 122
3, 350880, Note_on_c, 1, 32, 122
3, 350880, Note_on_c, 1, 36, 122
3, 350880, Note_on_c, 1, 44, 122
3, 351108, Note_off_c, 1, 44, 64
3, 351108, Note_off_c, 1, 36, 64
3, 351108, Note_off_c, 1, 32, 64
3, 351108, Note_off_c, 1, 39, 64
3, 351176, Control_c, 1, 64, 0
3, 351240, Control_c, 1, 93, 0
3, 351240, Control_c, 1, 91, 0
3, 351240, Control_c, 1, 10, 64
3, 351240, End_track
4, 0, Start_track
4, 0, Title_t, "========================"
4, 0, Control_c, 0, 0, 0
4, 0, End_track
5, 0, Start_track
5, 0, Title_t, "jaenfield@worldnet.att.net"
5, 0, Control_c, 0, 0, 0
5, 0, End_track
0, 0, End_of_file