0, 0, Header, 1, 6, 48
1, 0, Start_track
1, 0, Time_signature, 4, 2, 24, 8
1, 0, Key_signature, -1, "major"
1, 0, Title_t, "               [GS] Beethoven: ROMANCE  Op.50"
1, 0, Text_t, "CVS Ver5.03 Created"
1, 0, Text_t, "\202kudwig van \202aEETHOVEN"
1, 0, Text_t, "\201u\203\215\203}\203\223\203X\201v"
1, 0, Text_t, "Op.50"
1, 0, Text_t, "for piano solo"
1, 0, Text_t, "----------------------------"
1, 0, Text_t, "Roland GS"
1, 0, Text_t, "by MOCLIN(GBA02512)"
1, 0, Tempo, 1250000
1, 0, Tempo, 625000
1, 144, Tempo, 1250000
1, 192, Tempo, 1304347
1, 216, Tempo, 1250000
1, 264, Tempo, 1333333
1, 288, Tempo, 1304347
1, 312, Tempo, 1250000
1, 360, Tempo, 1333333
1, 384, Tempo, 1304347
1, 408, Tempo, 1250000
1, 456, Tempo, 1333333
1, 480, Tempo, 1304347
1, 504, Tempo, 1250000
1, 552, Tempo, 1333333
1, 576, Tempo, 1304347
1, 600, Tempo, 1250000
1, 648, Tempo, 1333333
1, 672, Tempo, 1304347
1, 696, Tempo, 1250000
1, 744, Tempo, 1333333
1, 768, Tempo, 1304347
1, 792, Tempo, 1250000
1, 840, Tempo, 1333333
1, 852, Tempo, 1463414
1, 864, Tempo, 1333333
1, 888, Tempo, 1250000
1, 936, Tempo, 1333333
1, 960, Tempo, 1304347
1, 984, Tempo, 1250000
1, 1032, Tempo, 1333333
1, 1056, Tempo, 1304347
1, 1080, Tempo, 1250000
1, 1128, Tempo, 1333333
1, 1152, Tempo, 1304347
1, 1176, Tempo, 1250000
1, 1224, Tempo, 1333333
1, 1248, Tempo, 1304347
1, 1272, Tempo, 1250000
1, 1320, Tempo, 1333333
1, 1344, Tempo, 1304347
1, 1368, Tempo, 1250000
1, 1416, Tempo, 1333333
1, 1440, Tempo, 1304347
1, 1464, Tempo, 1250000
1, 1512, Tempo, 1333333
1, 1536, Tempo, 1304347
1, 1560, Tempo, 1250000
1, 1608, Tempo, 1333333
1, 1620, Tempo, 1463414
1, 1632, Tempo, 1395348
1, 1644, Tempo, 1333333
1, 1656, Tempo, 1304347
1, 1668, Tempo, 1333333
1, 1680, Tempo, 1250000
1, 1692, Tempo, 1333333
1, 1704, Tempo, 1304347
1, 1716, Tempo, 1395348
1, 1728, Tempo, 1304347
1, 1752, Tempo, 1250000
1, 1800, Tempo, 1333333
1, 1824, Tempo, 1304347
1, 1848, Tempo, 1250000
1, 1896, Tempo, 1333333
1, 1920, Tempo, 1304347
1, 1944, Tempo, 1250000
1, 1992, Tempo, 1304347
1, 2016, Tempo, 1276595
1, 2040, Tempo, 1250000
1, 2088, Tempo, 1304347
1, 2112, Tempo, 1276595
1, 2136, Tempo, 1250000
1, 2184, Tempo, 1304347
1, 2208, Tempo, 1276595
1, 2232, Tempo, 1250000
1, 2280, Tempo, 1304347
1, 2304, Tempo, 1276595
1, 2328, Tempo, 1250000
1, 2376, Tempo, 1304347
1, 2388, Tempo, 1333333
1, 2400, Tempo, 1304347
1, 2424, Tempo, 1250000
1, 2448, Tempo, 1304347
1, 2472, Tempo, 1395348
1, 2496, Tempo, 1304347
1, 2508, Tempo, 1250000
1, 2520, Tempo, 1224489
1, 2532, Tempo, 1250000
1, 2544, Tempo, 1224489
1, 2556, Tempo, 1304347
1, 2568, Tempo, 1250000
1, 2580, Tempo, 1333333
1, 2592, Tempo, 1304347
1, 2616, Tempo, 1250000
1, 2664, Tempo, 1333333
1, 2688, Tempo, 1304347
1, 2700, Tempo, 1250000
1, 2712, Tempo, 1224489
1, 2724, Tempo, 1250000
1, 2736, Tempo, 1224489
1, 2748, Tempo, 1304347
1, 2760, Tempo, 1250000
1, 2772, Tempo, 1333333
1, 2784, Tempo, 1304347
1, 2808, Tempo, 1250000
1, 2856, Tempo, 1333333
1, 2880, Tempo, 1304347
1, 2904, Tempo, 1250000
1, 2952, Tempo, 1333333
1, 2976, Tempo, 1304347
1, 3000, Tempo, 1250000
1, 3024, Tempo, 1304347
1, 3048, Tempo, 1363636
1, 3060, Tempo, 1463414
1, 3072, Tempo, 1333333
1, 3096, Tempo, 1250000
1, 3120, Tempo, 1304347
1, 3162, Tempo, 1153846
1, 3168, Tempo, 1176470
1, 3216, Tempo, 1304347
1, 3258, Tempo, 1176470
1, 3264, Tempo, 1250000
1, 3312, Tempo, 1224489
1, 3354, Tempo, 1176470
1, 3360, Tempo, 1250000
1, 3408, Tempo, 1333333
1, 3450, Tempo, 1621621
1, 3456, Tempo, 1224489
1, 3528, Tempo, 1250000
1, 3576, Tempo, 1276595
1, 3600, Tempo, 1250000
1, 3612, Tempo, 1304347
1, 3624, Tempo, 1276595
1, 3636, Tempo, 1463414
1, 3648, Tempo, 1395348
1, 3696, Tempo, 1304347
1, 3738, Tempo, 2000000
1, 3744, Tempo, 1463414
1, 3792, Tempo, 1333333
1, 3840, Tempo, 1276595
1, 3864, Tempo, 1250000
1, 3912, Tempo, 1304347
1, 3936, Tempo, 1276595
1, 3960, Tempo, 1250000
1, 4008, Tempo, 1304347
1, 4032, Tempo, 1276595
1, 4056, Tempo, 1250000
1, 4104, Tempo, 1304347
1, 4128, Tempo, 1276595
1, 4152, Tempo, 1250000
1, 4200, Tempo, 1304347
1, 4224, Tempo, 1276595
1, 4248, Tempo, 1250000
1, 4296, Tempo, 1276595
1, 4320, Tempo, 1250000
1, 4368, Tempo, 1224489
1, 4392, Tempo, 1304347
1, 4416, Tempo, 1276595
1, 4440, Tempo, 1250000
1, 4488, Tempo, 1395348
1, 4512, Tempo, 1333333
1, 4536, Tempo, 1304347
1, 4560, Tempo, 1250000
1, 4584, Tempo, 1395348
1, 4608, Tempo, 1333333
1, 4632, Tempo, 1250000
1, 4680, Tempo, 1304347
1, 4704, Tempo, 1276595
1, 4728, Tempo, 1250000
1, 4776, Tempo, 1304347
1, 4800, Tempo, 1276595
1, 4824, Tempo, 1250000
1, 4872, Tempo, 1304347
1, 4896, Tempo, 1276595
1, 4920, Tempo, 1250000
1, 4968, Tempo, 1304347
1, 4992, Tempo, 1276595
1, 5016, Tempo, 1250000
1, 5064, Tempo, 1304347
1, 5088, Tempo, 1276595
1, 5112, Tempo, 1250000
1, 5160, Tempo, 1304347
1, 5184, Tempo, 1276595
1, 5208, Tempo, 1224489
1, 5232, Tempo, 1250000
1, 5256, Tempo, 1176470
1, 5280, Tempo, 1224489
1, 5304, Tempo, 1304347
1, 5328, Tempo, 1250000
1, 5352, Tempo, 1304347
1, 5376, Tempo, 1333333
1, 5400, Tempo, 1250000
1, 5424, Tempo, 1224489
1, 5448, Tempo, 1176470
1, 5472, Tempo, 1153846
1, 5496, Tempo, 1250000
1, 5520, Tempo, 1224489
1, 5544, Tempo, 1176470
1, 5568, Tempo, 1250000
1, 5592, Tempo, 1224489
1, 5640, Tempo, 1250000
1, 5664, Tempo, 1224489
1, 5688, Tempo, 1200000
1, 5736, Tempo, 1250000
1, 5760, Tempo, 1224489
1, 5784, Tempo, 1200000
1, 5832, Tempo, 1250000
1, 5856, Tempo, 1224489
1, 5880, Tempo, 1200000
1, 5928, Tempo, 1250000
1, 5976, Tempo, 1224489
1, 6024, Tempo, 1276595
1, 6048, Tempo, 1250000
1, 6072, Tempo, 1224489
1, 6096, Tempo, 1276595
1, 6120, Tempo, 1395348
1, 6144, Tempo, 1276595
1, 6168, Tempo, 1250000
1, 6216, Tempo, 1304347
1, 6240, Tempo, 1276595
1, 6264, Tempo, 1250000
1, 6288, Tempo, 1304347
1, 6312, Tempo, 1395348
1, 6324, Tempo, 1463414
1, 6330, Tempo, 1621621
1, 6336, Tempo, 1333333
1, 6384, Tempo, 1463414
1, 6426, Tempo, 1250000
1, 6432, Tempo, 1224489
1, 6474, Tempo, 1250000
1, 6480, Tempo, 1176470
1, 6522, Tempo, 1333333
1, 6528, Tempo, 1304347
1, 6552, Tempo, 1224489
1, 6576, Tempo, 1176470
1, 6600, Tempo, 1304347
1, 6624, Tempo, 1276595
1, 6648, Tempo, 1250000
1, 6696, Tempo, 1304347
1, 6720, Tempo, 1250000
1, 6768, Tempo, 1224489
1, 6810, Tempo, 1333333
1, 6816, Tempo, 1224489
1, 6858, Tempo, 1250000
1, 6864, Tempo, 1176470
1, 6906, Tempo, 1333333
1, 6912, Tempo, 1304347
1, 6936, Tempo, 1224489
1, 6960, Tempo, 1176470
1, 6984, Tempo, 1304347
1, 7008, Tempo, 1276595
1, 7032, Tempo, 1250000
1, 7080, Tempo, 1304347
1, 7098, Tempo, 1463414
1, 7104, Tempo, 1621621
1, 7112, Tempo, 1304347
1, 7120, Tempo, 1333333
1, 7128, Tempo, 1250000
1, 7152, Tempo, 1176470
1, 7176, Tempo, 1224489
1, 7200, Tempo, 1176470
1, 7224, Tempo, 1153846
1, 7272, Tempo, 1176470
1, 7296, Tempo, 1153846
1, 7320, Tempo, 1111111
1, 7368, Tempo, 1153846
1, 7392, Tempo, 1111111
1, 7416, Tempo, 1090909
1, 7464, Tempo, 1153846
1, 7488, Tempo, 1132075
1, 7512, Tempo, 1111111
1, 7536, Tempo, 1153846
1, 7560, Tempo, 1224489
1, 7584, Tempo, 1176470
1, 7608, Tempo, 1153846
1, 7632, Tempo, 1250000
1, 7656, Tempo, 1304347
1, 7664, Tempo, 1621621
1, 7672, Tempo, 2000000
1, 7676, Tempo, 3333333
1, 7680, Tempo, 1304347
1, 7704, Tempo, 1250000
1, 7752, Tempo, 1333333
1, 7776, Tempo, 1304347
1, 7800, Tempo, 1250000
1, 7848, Tempo, 1333333
1, 7872, Tempo, 1304347
1, 7896, Tempo, 1250000
1, 7944, Tempo, 1333333
1, 7968, Tempo, 1304347
1, 7992, Tempo, 1250000
1, 8040, Tempo, 1333333
1, 8064, Tempo, 1304347
1, 8088, Tempo, 1250000
1, 8136, Tempo, 1333333
1, 8160, Tempo, 1304347
1, 8184, Tempo, 1250000
1, 8232, Tempo, 1333333
1, 8256, Tempo, 1304347
1, 8280, Tempo, 1250000
1, 8328, Tempo, 1333333
1, 8340, Tempo, 1463414
1, 8352, Tempo, 1333333
1, 8376, Tempo, 1250000
1, 8424, Tempo, 1333333
1, 8448, Tempo, 1304347
1, 8472, Tempo, 1250000
1, 8520, Tempo, 1333333
1, 8544, Tempo, 1304347
1, 8568, Tempo, 1250000
1, 8616, Tempo, 1333333
1, 8640, Tempo, 1304347
1, 8664, Tempo, 1250000
1, 8712, Tempo, 1333333
1, 8736, Tempo, 1304347
1, 8760, Tempo, 1250000
1, 8808, Tempo, 1333333
1, 8832, Tempo, 1304347
1, 8856, Tempo, 1250000
1, 8904, Tempo, 1333333
1, 8928, Tempo, 1304347
1, 8952, Tempo, 1250000
1, 9000, Tempo, 1333333
1, 9024, Tempo, 1304347
1, 9048, Tempo, 1250000
1, 9096, Tempo, 1333333
1, 9108, Tempo, 1463414
1, 9120, Tempo, 1395348
1, 9132, Tempo, 1304347
1, 9144, Tempo, 1224489
1, 9156, Tempo, 1304347
1, 9168, Tempo, 1250000
1, 9180, Tempo, 1333333
1, 9192, Tempo, 1304347
1, 9204, Tempo, 1395348
1, 9216, Tempo, 1304347
1, 9240, Tempo, 1250000
1, 9288, Tempo, 1333333
1, 9312, Tempo, 1304347
1, 9336, Tempo, 1250000
1, 9384, Tempo, 1333333
1, 9408, Tempo, 1304347
1, 9432, Tempo, 1250000
1, 9480, Tempo, 1304347
1, 9504, Tempo, 1276595
1, 9528, Tempo, 1250000
1, 9576, Tempo, 1304347
1, 9600, Tempo, 1276595
1, 9624, Tempo, 1250000
1, 9672, Tempo, 1304347
1, 9696, Tempo, 1276595
1, 9720, Tempo, 1250000
1, 9768, Tempo, 1304347
1, 9792, Tempo, 1276595
1, 9816, Tempo, 1250000
1, 9864, Tempo, 1304347
1, 9876, Tempo, 1333333
1, 9888, Tempo, 1304347
1, 9912, Tempo, 1250000
1, 9936, Tempo, 1304347
1, 9960, Tempo, 1395348
1, 9984, Tempo, 1304347
1, 9996, Tempo, 1250000
1, 10008, Tempo, 1224489
1, 10020, Tempo, 1250000
1, 10032, Tempo, 1224489
1, 10044, Tempo, 1304347
1, 10056, Tempo, 1250000
1, 10068, Tempo, 1333333
1, 10080, Tempo, 1304347
1, 10104, Tempo, 1250000
1, 10152, Tempo, 1333333
1, 10176, Tempo, 1304347
1, 10188, Tempo, 1250000
1, 10200, Tempo, 1224489
1, 10212, Tempo, 1250000
1, 10224, Tempo, 1224489
1, 10236, Tempo, 1304347
1, 10248, Tempo, 1250000
1, 10260, Tempo, 1333333
1, 10272, Tempo, 1304347
1, 10296, Tempo, 1250000
1, 10344, Tempo, 1333333
1, 10368, Tempo, 1304347
1, 10392, Tempo, 1250000
1, 10440, Tempo, 1333333
1, 10464, Tempo, 1304347
1, 10488, Tempo, 1250000
1, 10512, Tempo, 1304347
1, 10536, Tempo, 1363636
1, 10548, Tempo, 1463414
1, 10560, Tempo, 1333333
1, 10584, Tempo, 1250000
1, 10608, Tempo, 1304347
1, 10650, Tempo, 1153846
1, 10656, Tempo, 1176470
1, 10704, Tempo, 1304347
1, 10746, Tempo, 1176470
1, 10752, Tempo, 1250000
1, 10800, Tempo, 1224489
1, 10842, Tempo, 1176470
1, 10848, Tempo, 1250000
1, 10896, Tempo, 1333333
1, 10938, Tempo, 1621621
1, 10944, Tempo, 1224489
1, 11016, Tempo, 1250000
1, 11064, Tempo, 1276595
1, 11088, Tempo, 1250000
1, 11100, Tempo, 1304347
1, 11112, Tempo, 1276595
1, 11124, Tempo, 1463414
1, 11136, Tempo, 1304347
1, 11160, Tempo, 1250000
1, 11208, Tempo, 1333333
1, 11232, Tempo, 1304347
1, 11256, Tempo, 1250000
1, 11304, Tempo, 1333333
1, 11328, Tempo, 1304347
1, 11352, Tempo, 1250000
1, 11400, Tempo, 1333333
1, 11424, Tempo, 1304347
1, 11448, Tempo, 1250000
1, 11496, Tempo, 1333333
1, 11520, Tempo, 1304347
1, 11544, Tempo, 1250000
1, 11592, Tempo, 1333333
1, 11616, Tempo, 1304347
1, 11640, Tempo, 1250000
1, 11688, Tempo, 1333333
1, 11712, Tempo, 1304347
1, 11736, Tempo, 1250000
1, 11760, Tempo, 1224489
1, 11784, Tempo, 1250000
1, 11808, Tempo, 1224489
1, 11832, Tempo, 1176470
1, 11880, Tempo, 1224489
1, 11904, Tempo, 1176470
1, 11928, Tempo, 1153846
1, 11952, Tempo, 1176470
1, 11976, Tempo, 1224489
1, 12000, Tempo, 1250000
1, 12024, Tempo, 1224489
1, 12048, Tempo, 1250000
1, 12072, Tempo, 1333333
1, 12096, Tempo, 1304347
1, 12120, Tempo, 1250000
1, 12144, Tempo, 1224489
1, 12168, Tempo, 1304347
1, 12192, Tempo, 1224489
1, 12216, Tempo, 1276595
1, 12240, Tempo, 1395348
1, 12264, Tempo, 1463414
1, 12272, Tempo, 1621621
1, 12280, Tempo, 2000000
1, 12288, Tempo, 1200000
1, 12312, Tempo, 1176470
1, 12360, Tempo, 1250000
1, 12384, Tempo, 1200000
1, 12408, Tempo, 1176470
1, 12456, Tempo, 1250000
1, 12480, Tempo, 1200000
1, 12504, Tempo, 1176470
1, 12552, Tempo, 1250000
1, 12576, Tempo, 1200000
1, 12600, Tempo, 1176470
1, 12648, Tempo, 1250000
1, 12672, Tempo, 1200000
1, 12696, Tempo, 1176470
1, 12744, Tempo, 1250000
1, 12768, Tempo, 1200000
1, 12792, Tempo, 1176470
1, 12840, Tempo, 1250000
1, 12864, Tempo, 1200000
1, 12888, Tempo, 1176470
1, 12936, Tempo, 1250000
1, 12960, Tempo, 1200000
1, 12984, Tempo, 1176470
1, 13032, Tempo, 1250000
1, 13056, Tempo, 1176470
1, 13080, Tempo, 1153846
1, 13128, Tempo, 1224489
1, 13152, Tempo, 1176470
1, 13176, Tempo, 1153846
1, 13224, Tempo, 1176470
1, 13248, Tempo, 1224489
1, 13272, Tempo, 1153846
1, 13320, Tempo, 1224489
1, 13344, Tempo, 1176470
1, 13368, Tempo, 1153846
1, 13416, Tempo, 1224489
1, 13440, Tempo, 1200000
1, 13464, Tempo, 1176470
1, 13512, Tempo, 1224489
1, 13536, Tempo, 1200000
1, 13560, Tempo, 1176470
1, 13608, Tempo, 1224489
1, 13632, Tempo, 1200000
1, 13656, Tempo, 1176470
1, 13704, Tempo, 1224489
1, 13728, Tempo, 1200000
1, 13752, Tempo, 1176470
1, 13800, Tempo, 1224489
1, 13824, Tempo, 1200000
1, 13848, Tempo, 1176470
1, 13896, Tempo, 1224489
1, 13920, Tempo, 1200000
1, 13944, Tempo, 1176470
1, 13992, Tempo, 1224489
1, 14016, Tempo, 1200000
1, 14040, Tempo, 1250000
1, 14064, Tempo, 1224489
1, 14088, Tempo, 1250000
1, 14136, Tempo, 1276595
1, 14160, Tempo, 1250000
1, 14172, Tempo, 1333333
1, 14184, Tempo, 1304347
1, 14196, Tempo, 1463414
1, 14208, Tempo, 1395348
1, 14220, Tempo, 1250000
1, 14232, Tempo, 1224489
1, 14256, Tempo, 1176470
1, 14280, Tempo, 1224489
1, 14304, Tempo, 1176470
1, 14328, Tempo, 1224489
1, 14352, Tempo, 1153846
1, 14376, Tempo, 1176470
1, 14400, Tempo, 1153846
1, 14424, Tempo, 1111111
1, 14472, Tempo, 1153846
1, 14496, Tempo, 1111111
1, 14520, Tempo, 1153846
1, 14544, Tempo, 1111111
1, 14568, Tempo, 1176470
1, 14592, Tempo, 1153846
1, 14616, Tempo, 1111111
1, 14664, Tempo, 1176470
1, 14688, Tempo, 1153846
1, 14712, Tempo, 1111111
1, 14760, Tempo, 1153846
1, 14772, Tempo, 1224489
1, 14784, Tempo, 1176470
1, 14808, Tempo, 1153846
1, 14856, Tempo, 1224489
1, 14880, Tempo, 1176470
1, 14904, Tempo, 1153846
1, 14952, Tempo, 1224489
1, 14976, Tempo, 1176470
1, 15000, Tempo, 1153846
1, 15024, Tempo, 1176470
1, 15048, Tempo, 1224489
1, 15072, Tempo, 1176470
1, 15084, Tempo, 1250000
1, 15096, Tempo, 1224489
1, 15108, Tempo, 1304347
1, 15120, Tempo, 1250000
1, 15126, Tempo, 1333333
1, 15132, Tempo, 1304347
1, 15138, Tempo, 1395348
1, 15144, Tempo, 1463414
1, 15150, Tempo, 1621621
1, 15156, Tempo, 1538461
1, 15162, Tempo, 2000000
1, 15168, Tempo, 1395348
1, 15192, Tempo, 1250000
1, 15240, Tempo, 1333333
1, 15264, Tempo, 1304347
1, 15288, Tempo, 1250000
1, 15336, Tempo, 1333333
1, 15360, Tempo, 1304347
1, 15384, Tempo, 1250000
1, 15432, Tempo, 1333333
1, 15456, Tempo, 1304347
1, 15480, Tempo, 1250000
1, 15528, Tempo, 1333333
1, 15552, Tempo, 1276595
1, 15576, Tempo, 1250000
1, 15624, Tempo, 1304347
1, 15648, Tempo, 1276595
1, 15672, Tempo, 1250000
1, 15720, Tempo, 1304347
1, 15744, Tempo, 1276595
1, 15768, Tempo, 1250000
1, 15816, Tempo, 1304347
1, 15828, Tempo, 1333333
1, 15840, Tempo, 1304347
1, 15864, Tempo, 1250000
1, 15888, Tempo, 1304347
1, 15912, Tempo, 1395348
1, 15936, Tempo, 1304347
1, 15948, Tempo, 1250000
1, 15960, Tempo, 1224489
1, 15972, Tempo, 1250000
1, 15984, Tempo, 1224489
1, 15996, Tempo, 1304347
1, 16008, Tempo, 1250000
1, 16020, Tempo, 1333333
1, 16032, Tempo, 1304347
1, 16056, Tempo, 1250000
1, 16104, Tempo, 1333333
1, 16128, Tempo, 1304347
1, 16140, Tempo, 1250000
1, 16152, Tempo, 1224489
1, 16164, Tempo, 1250000
1, 16176, Tempo, 1224489
1, 16188, Tempo, 1304347
1, 16200, Tempo, 1250000
1, 16212, Tempo, 1333333
1, 16224, Tempo, 1304347
1, 16248, Tempo, 1250000
1, 16296, Tempo, 1333333
1, 16320, Tempo, 1304347
1, 16344, Tempo, 1250000
1, 16392, Tempo, 1333333
1, 16416, Tempo, 1304347
1, 16440, Tempo, 1250000
1, 16464, Tempo, 1304347
1, 16488, Tempo, 1363636
1, 16500, Tempo, 1463414
1, 16512, Tempo, 1333333
1, 16536, Tempo, 1250000
1, 16560, Tempo, 1304347
1, 16602, Tempo, 1153846
1, 16608, Tempo, 1176470
1, 16656, Tempo, 1304347
1, 16698, Tempo, 1176470
1, 16704, Tempo, 1250000
1, 16752, Tempo, 1224489
1, 16794, Tempo, 1176470
1, 16800, Tempo, 1250000
1, 16848, Tempo, 1333333
1, 16890, Tempo, 1621621
1, 16896, Tempo, 1224489
1, 16968, Tempo, 1250000
1, 17016, Tempo, 1276595
1, 17040, Tempo, 1250000
1, 17052, Tempo, 1304347
1, 17064, Tempo, 1276595
1, 17076, Tempo, 1463414
1, 17088, Tempo, 1395348
1, 17100, Tempo, 1250000
1, 17112, Tempo, 1224489
1, 17124, Tempo, 1176470
1, 17160, Tempo, 1250000
1, 17184, Tempo, 1224489
1, 17208, Tempo, 1176470
1, 17256, Tempo, 1250000
1, 17280, Tempo, 1224489
1, 17304, Tempo, 1176470
1, 17352, Tempo, 1250000
1, 17376, Tempo, 1224489
1, 17400, Tempo, 1176470
1, 17424, Tempo, 1250000
1, 17448, Tempo, 1333333
1, 17460, Tempo, 1538461
1, 17472, Tempo, 1333333
1, 17484, Tempo, 1250000
1, 17496, Tempo, 1224489
1, 17520, Tempo, 1176470
1, 17544, Tempo, 1224489
1, 17568, Tempo, 1176470
1, 17592, Tempo, 1224489
1, 17616, Tempo, 1176470
1, 17640, Tempo, 1250000
1, 17664, Tempo, 1224489
1, 17688, Tempo, 1176470
1, 17736, Tempo, 1224489
1, 17760, Tempo, 1200000
1, 17784, Tempo, 1176470
1, 17832, Tempo, 1200000
1, 17856, Tempo, 1176470
1, 17880, Tempo, 1153846
1, 17928, Tempo, 1224489
1, 17952, Tempo, 1176470
1, 17976, Tempo, 1153846
1, 18000, Tempo, 1176470
1, 18024, Tempo, 1224489
1, 18032, Tempo, 1276595
1, 18040, Tempo, 1395348
1, 18048, Tempo, 1333333
1, 18056, Tempo, 1250000
1, 18072, Tempo, 1224489
1, 18120, Tempo, 1304347
1, 18144, Tempo, 1250000
1, 18216, Tempo, 1333333
1, 18240, Tempo, 1276595
1, 18264, Tempo, 1250000
1, 18312, Tempo, 1304347
1, 18336, Tempo, 1276595
1, 18360, Tempo, 1250000
1, 18384, Tempo, 1304347
1, 18408, Tempo, 1395348
1, 18420, Tempo, 1463414
1, 18426, Tempo, 1621621
1, 18432, Tempo, 1395348
1, 18444, Tempo, 1304347
1, 18456, Tempo, 1250000
1, 18468, Tempo, 1224489
1, 18504, Tempo, 1304347
1, 18528, Tempo, 1250000
1, 18552, Tempo, 1224489
1, 18600, Tempo, 1304347
1, 18624, Tempo, 1250000
1, 18648, Tempo, 1224489
1, 18696, Tempo, 1304347
1, 18720, Tempo, 1250000
1, 18744, Tempo, 1224489
1, 18768, Tempo, 1250000
1, 18792, Tempo, 1333333
1, 18804, Tempo, 1463414
1, 18816, Tempo, 1395348
1, 18828, Tempo, 1304347
1, 18840, Tempo, 1250000
1, 18852, Tempo, 1224489
1, 18888, Tempo, 1304347
1, 18912, Tempo, 1250000
1, 18936, Tempo, 1224489
1, 18984, Tempo, 1304347
1, 19008, Tempo, 1250000
1, 19032, Tempo, 1224489
1, 19080, Tempo, 1304347
1, 19104, Tempo, 1250000
1, 19128, Tempo, 1224489
1, 19152, Tempo, 1276595
1, 19176, Tempo, 1333333
1, 19188, Tempo, 1463414
1, 19200, Tempo, 1395348
1, 19224, Tempo, 1304347
1, 19248, Tempo, 1250000
1, 19272, Tempo, 1333333
1, 19296, Tempo, 1304347
1, 19320, Tempo, 1250000
1, 19368, Tempo, 1333333
1, 19392, Tempo, 1304347
1, 19416, Tempo, 1250000
1, 19440, Tempo, 1276595
1, 19464, Tempo, 1333333
1, 19476, Tempo, 1463414
1, 19488, Tempo, 1395348
1, 19536, Tempo, 1250000
1, 19560, Tempo, 1333333
1, 19584, Tempo, 1304347
1, 19632, Tempo, 1250000
1, 19656, Tempo, 1333333
1, 19680, Tempo, 1304347
1, 19728, Tempo, 1395348
1, 19752, Tempo, 1621621
1, 19776, Tempo, 1463414
1, 19800, Tempo, 1621621
1, 19824, Tempo, 1538461
1, 19848, Tempo, 2000000
1, 19860, Tempo, 1666666
1, 19872, Tempo, 1818181
1, 19884, Tempo, 8571428
1, 19896, Tempo, 5454545
1, 19920, Tempo, 4000000
1, 19968, Tempo, 1250000
1, 19968, End_track
2, 0, Start_track
2, 0, Title_t, "Initialize & Tempo Control"
2, 0, MIDI_port, 0
2, 0, Text_t, "[SC-55 Initialize]"
2, 12, Text_t, "<SC-55 Reset>"
2, 14, System_exclusive, 0A, 41, 10, 42, 12, 40, 00, 7F, 00, 41, F7
2, 24, Text_t, "<Master Volume>"
2, 24, System_exclusive, 0A, 41, 10, 42, 12, 40, 00, 04, 64, 58, F7
2, 36, Text_t, "<Master Reverve>"
2, 38, System_exclusive, 0A, 41, 10, 42, 12, 40, 01, 30, 03, 0C, F7
2, 40, System_exclusive, 0A, 41, 10, 42, 12, 40, 01, 33, 50, 3C, F7
2, 42, System_exclusive, 0A, 41, 10, 42, 12, 40, 01, 34, 46, 45, F7
2, 48, System_exclusive, 19, 41, 10, 42, 12, 40, 01, 10, 00, 0C, 0C, 00, 00, 00, 00, 00, 00, 00, 00, 00, 00, 00, 00, 00, 17, F7
2, 19968, Text_t, "-------------------"
2, 19968, Text_t, "1995.12.01(fri)"
2, 19968, Text_t, "MOCLIN(GBA02512)"
2, 19968, Text_t, "==================="
2, 20068, End_track
3, 0, Start_track
3, 0, Title_t, "Piano(R.H.)"
3, 0, MIDI_port, 0
3, 96, Control_c, 0, 32, 1
3, 102, Control_c, 0, 0, 0
3, 108, Program_c, 0, 0
3, 114, Control_c, 0, 10, 74
3, 120, Control_c, 0, 91, 80
3, 126, Control_c, 0, 7, 127
3, 132, Control_c, 0, 11, 127
3, 138, Text_t, "<Env Attack>"
3, 138, Control_c, 0, 99, 1
3, 140, Control_c, 0, 98, 99
3, 142, Control_c, 0, 6, 62
3, 144, Text_t, "<Env Decay>"
3, 144, Control_c, 0, 98, 100
3, 147, Control_c, 0, 6, 75
3, 150, Text_t, "<Env Release>"
3, 150, Control_c, 0, 98, 101
3, 153, Control_c, 0, 6, 90
3, 185, Note_on_c, 0, 69, 40
3, 189, Note_on_c, 0, 72, 35
3, 192, Note_on_c, 0, 77, 50
3, 233, Note_on_c, 0, 69, 0
3, 237, Note_on_c, 0, 72, 0
3, 264, Note_on_c, 0, 79, 52
3, 266, Note_on_c, 0, 77, 0
3, 271, Note_on_c, 0, 77, 45
3, 273, Note_on_c, 0, 79, 0
3, 276, Note_on_c, 0, 76, 48
3, 278, Note_on_c, 0, 77, 0
3, 282, Note_on_c, 0, 77, 43
3, 284, Note_on_c, 0, 76, 0
3, 288, Note_on_c, 0, 81, 45
3, 290, Note_on_c, 0, 77, 0
3, 324, Note_on_c, 0, 79, 48
3, 326, Note_on_c, 0, 81, 0
3, 336, Note_on_c, 0, 82, 42
3, 338, Note_on_c, 0, 79, 0
3, 372, Note_on_c, 0, 79, 45
3, 374, Note_on_c, 0, 82, 0
3, 384, Note_on_c, 0, 77, 48
3, 386, Note_on_c, 0, 79, 0
3, 444, Note_on_c, 0, 76, 52
3, 446, Note_on_c, 0, 77, 0
3, 456, Note_on_c, 0, 79, 45
3, 458, Note_on_c, 0, 76, 0
3, 468, Note_on_c, 0, 76, 47
3, 470, Note_on_c, 0, 79, 0
3, 480, Note_on_c, 0, 72, 42
3, 482, Note_on_c, 0, 76, 0
3, 528, Note_on_c, 0, 72, 0
3, 552, Note_on_c, 0, 72, 55
3, 576, Note_on_c, 0, 72, 0
3, 576, Note_on_c, 0, 77, 60
3, 576, Note_on_c, 0, 72, 40
3, 621, Note_on_c, 0, 81, 50
3, 624, Note_on_c, 0, 72, 0
3, 624, Note_on_c, 0, 77, 0
3, 624, Note_on_c, 0, 79, 55
3, 624, Note_on_c, 0, 72, 35
3, 625, Note_on_c, 0, 81, 0
3, 636, Note_on_c, 0, 78, 58
3, 638, Note_on_c, 0, 79, 0
3, 648, Note_on_c, 0, 79, 53
3, 650, Note_on_c, 0, 78, 0
3, 660, Note_on_c, 0, 80, 48
3, 662, Note_on_c, 0, 79, 0
3, 672, Note_on_c, 0, 72, 0
3, 672, Note_on_c, 0, 81, 50
3, 672, Note_on_c, 0, 72, 30
3, 674, Note_on_c, 0, 80, 0
3, 717, Note_on_c, 0, 84, 45
3, 720, Note_on_c, 0, 72, 0
3, 720, Note_on_c, 0, 81, 0
3, 720, Note_on_c, 0, 82, 52
3, 720, Note_on_c, 0, 74, 32
3, 721, Note_on_c, 0, 84, 0
3, 732, Note_on_c, 0, 81, 55
3, 734, Note_on_c, 0, 82, 0
3, 744, Note_on_c, 0, 82, 50
3, 746, Note_on_c, 0, 81, 0
3, 756, Note_on_c, 0, 86, 45
3, 758, Note_on_c, 0, 82, 0
3, 763, Note_on_c, 0, 72, 30
3, 766, Note_on_c, 0, 77, 25
3, 768, Note_on_c, 0, 74, 0
3, 768, Note_on_c, 0, 81, 48
3, 770, Note_on_c, 0, 86, 0
3, 828, Note_on_c, 0, 82, 50
3, 830, Note_on_c, 0, 81, 0
3, 840, Note_on_c, 0, 83, 52
3, 842, Note_on_c, 0, 82, 0
3, 852, Note_on_c, 0, 84, 54
3, 854, Note_on_c, 0, 83, 0
3, 859, Note_on_c, 0, 72, 0
3, 862, Note_on_c, 0, 77, 0
3, 864, Note_on_c, 0, 79, 48
3, 864, Note_on_c, 0, 76, 35
3, 864, Note_on_c, 0, 72, 20
3, 866, Note_on_c, 0, 84, 0
3, 912, Note_on_c, 0, 72, 0
3, 912, Note_on_c, 0, 76, 0
3, 912, Note_on_c, 0, 79, 0
3, 936, Note_on_c, 0, 72, 60
3, 960, Note_on_c, 0, 72, 0
3, 960, Note_on_c, 0, 82, 70
3, 960, Note_on_c, 0, 76, 62
3, 960, Note_on_c, 0, 72, 45
3, 1032, Note_on_c, 0, 79, 65
3, 1034, Note_on_c, 0, 76, 0
3, 1034, Note_on_c, 0, 82, 0
3, 1038, Note_on_c, 0, 81, 58
3, 1039, Note_on_c, 0, 79, 0
3, 1042, Note_on_c, 0, 79, 61
3, 1043, Note_on_c, 0, 81, 0
3, 1046, Note_on_c, 0, 78, 63
3, 1047, Note_on_c, 0, 79, 0
3, 1051, Note_on_c, 0, 79, 60
3, 1052, Note_on_c, 0, 78, 0
3, 1056, Note_on_c, 0, 76, 65
3, 1057, Note_on_c, 0, 79, 0
3, 1066, Note_on_c, 0, 72, 0
3, 1066, Note_on_c, 0, 76, 0
3, 1080, Note_on_c, 0, 77, 52
3, 1080, Note_on_c, 0, 72, 38
3, 1104, Note_on_c, 0, 72, 0
3, 1104, Note_on_c, 0, 76, 55
3, 1104, Note_on_c, 0, 72, 40
3, 1106, Note_on_c, 0, 77, 0
3, 1128, Note_on_c, 0, 72, 0
3, 1128, Note_on_c, 0, 77, 57
3, 1128, Note_on_c, 0, 72, 45
3, 1130, Note_on_c, 0, 76, 0
3, 1152, Note_on_c, 0, 72, 0
3, 1152, Note_on_c, 0, 82, 60
3, 1152, Note_on_c, 0, 76, 52
3, 1152, Note_on_c, 0, 72, 35
3, 1154, Note_on_c, 0, 77, 0
3, 1224, Note_on_c, 0, 79, 55
3, 1226, Note_on_c, 0, 76, 0
3, 1226, Note_on_c, 0, 82, 0
3, 1230, Note_on_c, 0, 81, 48
3, 1231, Note_on_c, 0, 79, 0
3, 1234, Note_on_c, 0, 79, 51
3, 1235, Note_on_c, 0, 81, 0
3, 1238, Note_on_c, 0, 78, 53
3, 1239, Note_on_c, 0, 79, 0
3, 1243, Note_on_c, 0, 79, 50
3, 1244, Note_on_c, 0, 78, 0
3, 1248, Note_on_c, 0, 76, 55
3, 1249, Note_on_c, 0, 79, 0
3, 1260, Note_on_c, 0, 72, 0
3, 1260, Note_on_c, 0, 76, 0
3, 1272, Note_on_c, 0, 84, 42
3, 1272, Note_on_c, 0, 72, 28
3, 1296, Note_on_c, 0, 83, 40
3, 1296, Note_on_c, 0, 71, 25
3, 1298, Note_on_c, 0, 72, 0
3, 1298, Note_on_c, 0, 84, 0
3, 1320, Note_on_c, 0, 84, 46
3, 1320, Note_on_c, 0, 72, 31
3, 1322, Note_on_c, 0, 71, 0
3, 1322, Note_on_c, 0, 83, 0
3, 1344, Note_on_c, 0, 86, 50
3, 1344, Note_on_c, 0, 74, 35
3, 1346, Note_on_c, 0, 72, 0
3, 1346, Note_on_c, 0, 84, 0
3, 1404, Note_on_c, 0, 88, 45
3, 1406, Note_on_c, 0, 74, 0
3, 1406, Note_on_c, 0, 86, 0
3, 1408, Note_on_c, 0, 86, 40
3, 1409, Note_on_c, 0, 88, 0
3, 1411, Note_on_c, 0, 85, 42
3, 1412, Note_on_c, 0, 86, 0
3, 1413, Note_on_c, 0, 86, 45
3, 1415, Note_on_c, 0, 85, 0
3, 1416, Note_on_c, 0, 88, 50
3, 1417, Note_on_c, 0, 86, 0
3, 1426, Note_on_c, 0, 88, 0
3, 1428, Note_on_c, 0, 89, 55
3, 1436, Note_on_c, 0, 89, 0
3, 1440, Note_on_c, 0, 77, 60
3, 1512, Note_on_c, 0, 81, 53
3, 1514, Note_on_c, 0, 77, 0
3, 1524, Note_on_c, 0, 79, 57
3, 1526, Note_on_c, 0, 81, 0
3, 1536, Note_on_c, 0, 79, 0
3, 1536, Note_on_c, 0, 79, 55
3, 1608, Note_on_c, 0, 84, 48
3, 1610, Note_on_c, 0, 79, 0
3, 1620, Note_on_c, 0, 76, 52
3, 1622, Note_on_c, 0, 84, 0
3, 1632, Note_on_c, 0, 77, 45
3, 1634, Note_on_c, 0, 76, 0
3, 1656, Note_on_c, 0, 77, 0
3, 1728, Note_on_c, 0, 77, 68
3, 1728, Note_on_c, 0, 69, 40
3, 1728, Note_on_c, 0, 65, 52
3, 1824, Note_on_c, 0, 65, 0
3, 1824, Note_on_c, 0, 69, 0
3, 1824, Note_on_c, 0, 77, 0
3, 1824, Note_on_c, 0, 81, 72
3, 1824, Note_on_c, 0, 74, 45
3, 1824, Note_on_c, 0, 69, 65
3, 1860, Note_on_c, 0, 79, 75
3, 1860, Note_on_c, 0, 67, 68
3, 1862, Note_on_c, 0, 69, 0
3, 1862, Note_on_c, 0, 74, 0
3, 1862, Note_on_c, 0, 81, 0
3, 1872, Note_on_c, 0, 82, 62
3, 1872, Note_on_c, 0, 74, 40
3, 1872, Note_on_c, 0, 70, 55
3, 1874, Note_on_c, 0, 67, 0
3, 1874, Note_on_c, 0, 79, 0
3, 1908, Note_on_c, 0, 79, 65
3, 1908, Note_on_c, 0, 67, 57
3, 1910, Note_on_c, 0, 70, 0
3, 1910, Note_on_c, 0, 74, 0
3, 1910, Note_on_c, 0, 82, 0
3, 1920, Note_on_c, 0, 77, 68
3, 1920, Note_on_c, 0, 72, 45
3, 1920, Note_on_c, 0, 65, 53
3, 1922, Note_on_c, 0, 67, 0
3, 1922, Note_on_c, 0, 79, 0
3, 1980, Note_on_c, 0, 76, 72
3, 1980, Note_on_c, 0, 64, 60
3, 1982, Note_on_c, 0, 65, 0
3, 1982, Note_on_c, 0, 72, 0
3, 1982, Note_on_c, 0, 77, 0
3, 1992, Note_on_c, 0, 79, 65
3, 1992, Note_on_c, 0, 67, 53
3, 1994, Note_on_c, 0, 64, 0
3, 1994, Note_on_c, 0, 76, 0
3, 2004, Note_on_c, 0, 76, 67
3, 2004, Note_on_c, 0, 64, 55
3, 2006, Note_on_c, 0, 67, 0
3, 2006, Note_on_c, 0, 79, 0
3, 2014, Note_on_c, 0, 60, 45
3, 2016, Note_on_c, 0, 72, 62
3, 2018, Note_on_c, 0, 64, 0
3, 2018, Note_on_c, 0, 76, 0
3, 2062, Note_on_c, 0, 60, 0
3, 2064, Note_on_c, 0, 72, 0
3, 2088, Note_on_c, 0, 72, 75
3, 2112, Note_on_c, 0, 65, 50
3, 2114, Note_on_c, 0, 72, 0
3, 2114, Note_on_c, 0, 77, 80
3, 2157, Note_on_c, 0, 81, 60
3, 2160, Note_on_c, 0, 65, 0
3, 2160, Note_on_c, 0, 79, 75
3, 2160, Note_on_c, 0, 67, 60
3, 2161, Note_on_c, 0, 81, 0
3, 2162, Note_on_c, 0, 77, 0
3, 2172, Note_on_c, 0, 78, 78
3, 2172, Note_on_c, 0, 66, 63
3, 2174, Note_on_c, 0, 67, 0
3, 2174, Note_on_c, 0, 79, 0
3, 2184, Note_on_c, 0, 79, 73
3, 2184, Note_on_c, 0, 67, 58
3, 2186, Note_on_c, 0, 66, 0
3, 2186, Note_on_c, 0, 78, 0
3, 2196, Note_on_c, 0, 80, 68
3, 2196, Note_on_c, 0, 68, 53
3, 2198, Note_on_c, 0, 67, 0
3, 2198, Note_on_c, 0, 79, 0
3, 2208, Note_on_c, 0, 81, 70
3, 2208, Note_on_c, 0, 69, 50
3, 2210, Note_on_c, 0, 68, 0
3, 2210, Note_on_c, 0, 80, 0
3, 2253, Note_on_c, 0, 84, 60
3, 2256, Note_on_c, 0, 69, 0
3, 2256, Note_on_c, 0, 81, 0
3, 2256, Note_on_c, 0, 82, 72
3, 2256, Note_on_c, 0, 70, 52
3, 2257, Note_on_c, 0, 84, 0
3, 2268, Note_on_c, 0, 81, 75
3, 2268, Note_on_c, 0, 69, 55
3, 2270, Note_on_c, 0, 70, 0
3, 2270, Note_on_c, 0, 82, 0
3, 2280, Note_on_c, 0, 82, 70
3, 2280, Note_on_c, 0, 70, 57
3, 2282, Note_on_c, 0, 69, 0
3, 2282, Note_on_c, 0, 81, 0
3, 2292, Note_on_c, 0, 86, 65
3, 2292, Note_on_c, 0, 74, 52
3, 2294, Note_on_c, 0, 70, 0
3, 2294, Note_on_c, 0, 82, 0
3, 2304, Note_on_c, 0, 81, 68
3, 2304, Note_on_c, 0, 77, 40
3, 2304, Note_on_c, 0, 69, 55
3, 2306, Note_on_c, 0, 74, 0
3, 2306, Note_on_c, 0, 86, 0
3, 2364, Note_on_c, 0, 82, 70
3, 2364, Note_on_c, 0, 70, 57
3, 2366, Note_on_c, 0, 69, 0
3, 2366, Note_on_c, 0, 77, 0
3, 2366, Note_on_c, 0, 81, 0
3, 2376, Note_on_c, 0, 83, 65
3, 2376, Note_on_c, 0, 71, 52
3, 2378, Note_on_c, 0, 70, 0
3, 2378, Note_on_c, 0, 82, 0
3, 2388, Note_on_c, 0, 84, 63
3, 2388, Note_on_c, 0, 72, 51
3, 2390, Note_on_c, 0, 71, 0
3, 2390, Note_on_c, 0, 83, 0
3, 2400, Note_on_c, 0, 79, 60
3, 2400, Note_on_c, 0, 76, 32
3, 2400, Note_on_c, 0, 67, 50
3, 2402, Note_on_c, 0, 72, 0
3, 2402, Note_on_c, 0, 84, 0
3, 2448, Note_on_c, 0, 67, 0
3, 2448, Note_on_c, 0, 76, 0
3, 2448, Note_on_c, 0, 79, 0
3, 2472, Note_on_c, 0, 72, 80
3, 2496, Note_on_c, 0, 72, 0
3, 2496, Note_on_c, 0, 82, 90
3, 2496, Note_on_c, 0, 79, 75
3, 2496, Note_on_c, 0, 76, 82
3, 2496, Note_on_c, 0, 72, 65
3, 2568, Note_on_c, 0, 79, 0
3, 2568, Note_on_c, 0, 79, 85
3, 2570, Note_on_c, 0, 72, 0
3, 2570, Note_on_c, 0, 76, 0
3, 2570, Note_on_c, 0, 82, 0
3, 2573, Note_on_c, 0, 81, 70
3, 2575, Note_on_c, 0, 79, 0
3, 2576, Note_on_c, 0, 79, 60
3, 2577, Note_on_c, 0, 81, 0
3, 2579, Note_on_c, 0, 81, 63
3, 2580, Note_on_c, 0, 79, 0
3, 2582, Note_on_c, 0, 79, 66
3, 2583, Note_on_c, 0, 81, 0
3, 2585, Note_on_c, 0, 78, 68
3, 2586, Note_on_c, 0, 79, 0
3, 2588, Note_on_c, 0, 79, 70
3, 2589, Note_on_c, 0, 78, 0
3, 2592, Note_on_c, 0, 79, 0
3, 2592, Note_on_c, 0, 76, 85
3, 2592, Note_on_c, 0, 72, 70
3, 2602, Note_on_c, 0, 72, 0
3, 2602, Note_on_c, 0, 76, 0
3, 2616, Note_on_c, 0, 77, 82
3, 2616, Note_on_c, 0, 65, 68
3, 2640, Note_on_c, 0, 76, 85
3, 2640, Note_on_c, 0, 64, 70
3, 2642, Note_on_c, 0, 65, 0
3, 2642, Note_on_c, 0, 77, 0
3, 2664, Note_on_c, 0, 77, 80
3, 2664, Note_on_c, 0, 65, 65
3, 2666, Note_on_c, 0, 64, 0
3, 2666, Note_on_c, 0, 76, 0
3, 2688, Note_on_c, 0, 82, 85
3, 2688, Note_on_c, 0, 79, 60
3, 2688, Note_on_c, 0, 76, 77
3, 2688, Note_on_c, 0, 72, 65
3, 2690, Note_on_c, 0, 65, 0
3, 2690, Note_on_c, 0, 77, 0
3, 2760, Note_on_c, 0, 79, 0
3, 2760, Note_on_c, 0, 79, 80
3, 2762, Note_on_c, 0, 72, 0
3, 2762, Note_on_c, 0, 76, 0
3, 2762, Note_on_c, 0, 82, 0
3, 2765, Note_on_c, 0, 81, 68
3, 2767, Note_on_c, 0, 79, 0
3, 2768, Note_on_c, 0, 79, 60
3, 2769, Note_on_c, 0, 81, 0
3, 2771, Note_on_c, 0, 81, 62
3, 2772, Note_on_c, 0, 79, 0
3, 2774, Note_on_c, 0, 79, 64
3, 2775, Note_on_c, 0, 81, 0
3, 2777, Note_on_c, 0, 78, 66
3, 2778, Note_on_c, 0, 79, 0
3, 2780, Note_on_c, 0, 79, 68
3, 2781, Note_on_c, 0, 78, 0
3, 2784, Note_on_c, 0, 76, 80
3, 2784, Note_on_c, 0, 72, 60
3, 2785, Note_on_c, 0, 79, 0
3, 2796, Note_on_c, 0, 72, 0
3, 2796, Note_on_c, 0, 76, 0
3, 2808, Note_on_c, 0, 84, 67
3, 2808, Note_on_c, 0, 77, 45
3, 2808, Note_on_c, 0, 72, 53
3, 2832, Note_on_c, 0, 77, 0
3, 2832, Note_on_c, 0, 83, 75
3, 2832, Note_on_c, 0, 77, 40
3, 2832, Note_on_c, 0, 71, 60
3, 2834, Note_on_c, 0, 72, 0
3, 2834, Note_on_c, 0, 84, 0
3, 2856, Note_on_c, 0, 77, 0
3, 2856, Note_on_c, 0, 84, 71
3, 2856, Note_on_c, 0, 77, 43
3, 2856, Note_on_c, 0, 72, 56
3, 2858, Note_on_c, 0, 71, 0
3, 2858, Note_on_c, 0, 83, 0
3, 2880, Note_on_c, 0, 77, 0
3, 2880, Note_on_c, 0, 86, 65
3, 2880, Note_on_c, 0, 77, 40
3, 2880, Note_on_c, 0, 74, 50
3, 2882, Note_on_c, 0, 72, 0
3, 2882, Note_on_c, 0, 84, 0
3, 2938, Note_on_c, 0, 74, 0
3, 2938, Note_on_c, 0, 77, 0
3, 2938, Note_on_c, 0, 86, 0
3, 2940, Note_on_c, 0, 86, 70
3, 2940, Note_on_c, 0, 74, 55
3, 2946, Note_on_c, 0, 74, 0
3, 2946, Note_on_c, 0, 86, 0
3, 2952, Note_on_c, 0, 88, 63
3, 2952, Note_on_c, 0, 76, 52
3, 2957, Note_on_c, 0, 76, 0
3, 2957, Note_on_c, 0, 88, 0
3, 2964, Note_on_c, 0, 89, 60
3, 2964, Note_on_c, 0, 77, 50
3, 2970, Note_on_c, 0, 77, 0
3, 2970, Note_on_c, 0, 89, 0
3, 2976, Note_on_c, 0, 77, 65
3, 2976, Note_on_c, 0, 65, 60
3, 3024, Note_on_c, 0, 81, 68
3, 3024, Note_on_c, 0, 69, 55
3, 3026, Note_on_c, 0, 65, 0
3, 3026, Note_on_c, 0, 77, 0
3, 3060, Note_on_c, 0, 79, 62
3, 3060, Note_on_c, 0, 67, 47
3, 3062, Note_on_c, 0, 69, 0
3, 3062, Note_on_c, 0, 81, 0
3, 3072, Note_on_c, 0, 67, 0
3, 3072, Note_on_c, 0, 79, 0
3, 3072, Note_on_c, 0, 77, 60
3, 3072, Note_on_c, 0, 65, 43
3, 3112, Note_on_c, 0, 65, 0
3, 3112, Note_on_c, 0, 77, 0
3, 3120, Note_on_c, 0, 69, 100
3, 3162, Note_on_c, 0, 69, 0
3, 3162, Note_on_c, 0, 69, 95
3, 3168, Note_on_c, 0, 62, 105
3, 3170, Note_on_c, 0, 69, 0
3, 3208, Note_on_c, 0, 62, 0
3, 3216, Note_on_c, 0, 86, 100
3, 3216, Note_on_c, 0, 74, 80
3, 3258, Note_on_c, 0, 74, 0
3, 3258, Note_on_c, 0, 86, 0
3, 3258, Note_on_c, 0, 86, 95
3, 3258, Note_on_c, 0, 74, 78
3, 3264, Note_on_c, 0, 79, 105
3, 3264, Note_on_c, 0, 67, 75
3, 3266, Note_on_c, 0, 74, 0
3, 3266, Note_on_c, 0, 86, 0
3, 3304, Note_on_c, 0, 67, 0
3, 3304, Note_on_c, 0, 79, 0
3, 3312, Note_on_c, 0, 82, 100
3, 3312, Note_on_c, 0, 70, 80
3, 3354, Note_on_c, 0, 70, 0
3, 3354, Note_on_c, 0, 82, 0
3, 3354, Note_on_c, 0, 82, 95
3, 3354, Note_on_c, 0, 70, 75
3, 3360, Note_on_c, 0, 82, 0
3, 3360, Note_on_c, 0, 88, 110
3, 3360, Note_on_c, 0, 82, 65
3, 3360, Note_on_c, 0, 79, 78
3, 3360, Note_on_c, 0, 76, 85
3, 3362, Note_on_c, 0, 70, 0
3, 3400, Note_on_c, 0, 76, 0
3, 3400, Note_on_c, 0, 79, 0
3, 3400, Note_on_c, 0, 82, 0
3, 3400, Note_on_c, 0, 88, 0
3, 3408, Note_on_c, 0, 89, 115
3, 3408, Note_on_c, 0, 81, 78
3, 3408, Note_on_c, 0, 77, 90
3, 3444, Note_on_c, 0, 77, 0
3, 3444, Note_on_c, 0, 81, 0
3, 3444, Note_on_c, 0, 89, 0
3, 3456, Note_on_c, 0, 79, 70
3, 3456, Note_on_c, 0, 77, 55
3, 3456, Note_on_c, 0, 74, 35
3, 3456, Note_on_c, 0, 67, 60
3, 3516, Note_on_c, 0, 81, 72
3, 3516, Note_on_c, 0, 69, 58
3, 3518, Note_on_c, 0, 67, 0
3, 3518, Note_on_c, 0, 74, 0
3, 3518, Note_on_c, 0, 77, 0
3, 3518, Note_on_c, 0, 79, 0
3, 3528, Note_on_c, 0, 82, 66
3, 3528, Note_on_c, 0, 70, 56
3, 3530, Note_on_c, 0, 69, 0
3, 3530, Note_on_c, 0, 81, 0
3, 3540, Note_on_c, 0, 86, 63
3, 3540, Note_on_c, 0, 74, 54
3, 3542, Note_on_c, 0, 70, 0
3, 3542, Note_on_c, 0, 82, 0
3, 3550, Note_on_c, 0, 74, 0
3, 3550, Note_on_c, 0, 86, 0
3, 3552, Note_on_c, 0, 86, 58
3, 3552, Note_on_c, 0, 74, 50
3, 3564, Note_on_c, 0, 84, 62
3, 3564, Note_on_c, 0, 72, 52
3, 3566, Note_on_c, 0, 74, 0
3, 3566, Note_on_c, 0, 86, 0
3, 3576, Note_on_c, 0, 82, 65
3, 3576, Note_on_c, 0, 70, 54
3, 3578, Note_on_c, 0, 72, 0
3, 3578, Note_on_c, 0, 84, 0
3, 3588, Note_on_c, 0, 81, 67
3, 3588, Note_on_c, 0, 69, 56
3, 3590, Note_on_c, 0, 70, 0
3, 3590, Note_on_c, 0, 82, 0
3, 3598, Note_on_c, 0, 69, 0
3, 3598, Note_on_c, 0, 81, 0
3, 3600, Note_on_c, 0, 81, 64
3, 3600, Note_on_c, 0, 69, 53
3, 3612, Note_on_c, 0, 79, 66
3, 3612, Note_on_c, 0, 67, 55
3, 3614, Note_on_c, 0, 69, 0
3, 3614, Note_on_c, 0, 81, 0
3, 3624, Note_on_c, 0, 82, 62
3, 3624, Note_on_c, 0, 70, 48
3, 3626, Note_on_c, 0, 67, 0
3, 3626, Note_on_c, 0, 79, 0
3, 3636, Note_on_c, 0, 76, 65
3, 3636, Note_on_c, 0, 64, 50
3, 3638, Note_on_c, 0, 70, 0
3, 3638, Note_on_c, 0, 82, 0
3, 3648, Note_on_c, 0, 77, 60
3, 3648, Note_on_c, 0, 65, 40
3, 3650, Note_on_c, 0, 64, 0
3, 3650, Note_on_c, 0, 76, 0
3, 3688, Note_on_c, 0, 65, 0
3, 3688, Note_on_c, 0, 77, 0
3, 3696, Note_on_c, 0, 77, 52
3, 3696, Note_on_c, 0, 72, 30
3, 3696, Note_on_c, 0, 69, 45
3, 3738, Note_on_c, 0, 69, 0
3, 3738, Note_on_c, 0, 72, 0
3, 3738, Note_on_c, 0, 77, 0
3, 3738, Note_on_c, 0, 77, 45
3, 3738, Note_on_c, 0, 72, 22
3, 3738, Note_on_c, 0, 69, 38
3, 3743, Note_on_c, 0, 69, 0
3, 3743, Note_on_c, 0, 72, 0
3, 3743, Note_on_c, 0, 77, 0
3, 3744, Note_on_c, 0, 77, 50
3, 3744, Note_on_c, 0, 69, 25
3, 3744, Note_on_c, 0, 65, 35
3, 3792, Note_on_c, 0, 65, 0
3, 3792, Note_on_c, 0, 69, 0
3, 3792, Note_on_c, 0, 77, 0
3, 3830, Note_on_c, 0, 72, 35
3, 3840, Note_on_c, 0, 81, 50
3, 3842, Note_on_c, 0, 72, 0
3, 3912, Note_on_c, 0, 82, 45
3, 3914, Note_on_c, 0, 81, 0
3, 3919, Note_on_c, 0, 81, 47
3, 3921, Note_on_c, 0, 82, 0
3, 3925, Note_on_c, 0, 79, 43
3, 3927, Note_on_c, 0, 81, 0
3, 3930, Note_on_c, 0, 81, 45
3, 3932, Note_on_c, 0, 79, 0
3, 3936, Note_on_c, 0, 84, 40
3, 3938, Note_on_c, 0, 81, 0
3, 4008, Note_on_c, 0, 76, 48
3, 4010, Note_on_c, 0, 84, 0
3, 4032, Note_on_c, 0, 77, 45
3, 4034, Note_on_c, 0, 76, 0
3, 4104, Note_on_c, 0, 81, 43
3, 4106, Note_on_c, 0, 77, 0
3, 4116, Note_on_c, 0, 79, 48
3, 4118, Note_on_c, 0, 81, 0
3, 4126, Note_on_c, 0, 79, 0
3, 4128, Note_on_c, 0, 79, 52
3, 4200, Note_on_c, 0, 82, 48
3, 4202, Note_on_c, 0, 79, 0
3, 4212, Note_on_c, 0, 81, 53
3, 4214, Note_on_c, 0, 82, 0
3, 4222, Note_on_c, 0, 81, 0
3, 4224, Note_on_c, 0, 81, 55
3, 4296, Note_on_c, 0, 82, 52
3, 4298, Note_on_c, 0, 81, 0
3, 4308, Note_on_c, 0, 84, 58
3, 4310, Note_on_c, 0, 82, 0
3, 4320, Note_on_c, 0, 86, 60
3, 4322, Note_on_c, 0, 84, 0
3, 4332, Note_on_c, 0, 88, 62
3, 4334, Note_on_c, 0, 86, 0
3, 4344, Note_on_c, 0, 89, 58
3, 4346, Note_on_c, 0, 88, 0
3, 4356, Note_on_c, 0, 88, 60
3, 4358, Note_on_c, 0, 89, 0
3, 4368, Note_on_c, 0, 89, 62
3, 4370, Note_on_c, 0, 88, 0
3, 4380, Note_on_c, 0, 86, 64
3, 4382, Note_on_c, 0, 89, 0
3, 4392, Note_on_c, 0, 84, 58
3, 4394, Note_on_c, 0, 86, 0
3, 4404, Note_on_c, 0, 82, 53
3, 4406, Note_on_c, 0, 84, 0
3, 4416, Note_on_c, 0, 81, 55
3, 4418, Note_on_c, 0, 82, 0
3, 4476, Note_on_c, 0, 84, 50
3, 4478, Note_on_c, 0, 81, 0
3, 4488, Note_on_c, 0, 83, 52
3, 4490, Note_on_c, 0, 84, 0
3, 4500, Note_on_c, 0, 84, 48
3, 4502, Note_on_c, 0, 83, 0
3, 4512, Note_on_c, 0, 79, 45
3, 4514, Note_on_c, 0, 84, 0
3, 4560, Note_on_c, 0, 79, 0
3, 4602, Note_on_c, 0, 57, 75
3, 4608, Note_on_c, 0, 69, 90
3, 4610, Note_on_c, 0, 57, 0
3, 4700, Note_on_c, 0, 79, 40
3, 4704, Note_on_c, 0, 69, 0
3, 4704, Note_on_c, 0, 91, 55
3, 4706, Note_on_c, 0, 79, 0
3, 4812, Note_on_c, 0, 89, 42
3, 4814, Note_on_c, 0, 91, 0
3, 4824, Note_on_c, 0, 88, 44
3, 4826, Note_on_c, 0, 89, 0
3, 4836, Note_on_c, 0, 86, 46
3, 4838, Note_on_c, 0, 88, 0
3, 4848, Note_on_c, 0, 85, 48
3, 4850, Note_on_c, 0, 86, 0
3, 4860, Note_on_c, 0, 86, 45
3, 4862, Note_on_c, 0, 85, 0
3, 4872, Note_on_c, 0, 89, 42
3, 4874, Note_on_c, 0, 86, 0
3, 4884, Note_on_c, 0, 86, 44
3, 4886, Note_on_c, 0, 89, 0
3, 4896, Note_on_c, 0, 84, 46
3, 4898, Note_on_c, 0, 86, 0
3, 4908, Note_on_c, 0, 82, 48
3, 4910, Note_on_c, 0, 84, 0
3, 4920, Note_on_c, 0, 86, 45
3, 4922, Note_on_c, 0, 82, 0
3, 4932, Note_on_c, 0, 82, 47
3, 4934, Note_on_c, 0, 86, 0
3, 4944, Note_on_c, 0, 81, 49
3, 4946, Note_on_c, 0, 82, 0
3, 4956, Note_on_c, 0, 79, 51
3, 4958, Note_on_c, 0, 81, 0
3, 4968, Note_on_c, 0, 77, 53
3, 4970, Note_on_c, 0, 79, 0
3, 4980, Note_on_c, 0, 76, 55
3, 4982, Note_on_c, 0, 77, 0
3, 4992, Note_on_c, 0, 81, 50
3, 4994, Note_on_c, 0, 76, 0
3, 5034, Note_on_c, 0, 82, 55
3, 5036, Note_on_c, 0, 81, 0
3, 5040, Note_on_c, 0, 74, 58
3, 5042, Note_on_c, 0, 82, 0
3, 5112, Note_on_c, 0, 76, 52
3, 5114, Note_on_c, 0, 74, 0
3, 5119, Note_on_c, 0, 74, 50
3, 5121, Note_on_c, 0, 76, 0
3, 5125, Note_on_c, 0, 73, 53
3, 5127, Note_on_c, 0, 74, 0
3, 5130, Note_on_c, 0, 74, 51
3, 5132, Note_on_c, 0, 73, 0
3, 5136, Note_on_c, 0, 77, 48
3, 5136, Note_on_c, 0, 73, 30
3, 5136, Note_on_c, 0, 69, 18
3, 5136, Note_on_c, 0, 67, 22
3, 5138, Note_on_c, 0, 74, 0
3, 5160, Note_on_c, 0, 76, 50
3, 5162, Note_on_c, 0, 77, 0
3, 5184, Note_on_c, 0, 69, 0
3, 5184, Note_on_c, 0, 74, 45
3, 5184, Note_on_c, 0, 69, 20
3, 5184, Note_on_c, 0, 65, 28
3, 5186, Note_on_c, 0, 76, 0
3, 5186, Note_on_c, 0, 67, 0
3, 5186, Note_on_c, 0, 73, 0
3, 5204, Note_on_c, 0, 65, 0
3, 5204, Note_on_c, 0, 69, 0
3, 5204, Note_on_c, 0, 74, 0
3, 5208, Note_on_c, 0, 65, 88
3, 5232, Note_on_c, 0, 69, 90
3, 5234, Note_on_c, 0, 65, 0
3, 5256, Note_on_c, 0, 67, 86
3, 5258, Note_on_c, 0, 69, 0
3, 5280, Note_on_c, 0, 65, 83
3, 5282, Note_on_c, 0, 67, 0
3, 5304, Note_on_c, 0, 64, 80
3, 5306, Note_on_c, 0, 65, 0
3, 5328, Note_on_c, 0, 62, 75
3, 5330, Note_on_c, 0, 64, 0
3, 5352, Note_on_c, 0, 60, 70
3, 5354, Note_on_c, 0, 62, 0
3, 5376, Note_on_c, 0, 55, 100
3, 5378, Note_on_c, 0, 60, 0
3, 5469, Note_on_c, 0, 77, 40
3, 5472, Note_on_c, 0, 55, 0
3, 5472, Note_on_c, 0, 89, 55
3, 5473, Note_on_c, 0, 77, 0
3, 5526, Note_on_c, 0, 86, 48
3, 5528, Note_on_c, 0, 89, 0
3, 5532, Note_on_c, 0, 83, 50
3, 5534, Note_on_c, 0, 86, 0
3, 5538, Note_on_c, 0, 79, 52
3, 5540, Note_on_c, 0, 83, 0
3, 5544, Note_on_c, 0, 77, 54
3, 5546, Note_on_c, 0, 79, 0
3, 5550, Note_on_c, 0, 74, 56
3, 5552, Note_on_c, 0, 77, 0
3, 5556, Note_on_c, 0, 71, 58
3, 5558, Note_on_c, 0, 74, 0
3, 5562, Note_on_c, 0, 65, 62
3, 5564, Note_on_c, 0, 71, 0
3, 5568, Note_on_c, 0, 64, 60
3, 5570, Note_on_c, 0, 65, 0
3, 5574, Note_on_c, 0, 66, 58
3, 5576, Note_on_c, 0, 64, 0
3, 5580, Note_on_c, 0, 67, 56
3, 5582, Note_on_c, 0, 66, 0
3, 5586, Note_on_c, 0, 66, 59
3, 5588, Note_on_c, 0, 67, 0
3, 5592, Note_on_c, 0, 67, 57
3, 5594, Note_on_c, 0, 66, 0
3, 5598, Note_on_c, 0, 71, 55
3, 5600, Note_on_c, 0, 67, 0
3, 5604, Note_on_c, 0, 72, 53
3, 5606, Note_on_c, 0, 71, 0
3, 5610, Note_on_c, 0, 71, 56
3, 5612, Note_on_c, 0, 72, 0
3, 5616, Note_on_c, 0, 72, 54
3, 5618, Note_on_c, 0, 71, 0
3, 5622, Note_on_c, 0, 75, 52
3, 5624, Note_on_c, 0, 72, 0
3, 5628, Note_on_c, 0, 76, 50
3, 5630, Note_on_c, 0, 75, 0
3, 5634, Note_on_c, 0, 75, 53
3, 5636, Note_on_c, 0, 76, 0
3, 5640, Note_on_c, 0, 76, 51
3, 5642, Note_on_c, 0, 75, 0
3, 5646, Note_on_c, 0, 78, 49
3, 5648, Note_on_c, 0, 76, 0
3, 5652, Note_on_c, 0, 79, 47
3, 5654, Note_on_c, 0, 78, 0
3, 5658, Note_on_c, 0, 78, 50
3, 5660, Note_on_c, 0, 79, 0
3, 5664, Note_on_c, 0, 79, 48
3, 5666, Note_on_c, 0, 78, 0
3, 5670, Note_on_c, 0, 83, 46
3, 5672, Note_on_c, 0, 79, 0
3, 5676, Note_on_c, 0, 84, 44
3, 5678, Note_on_c, 0, 83, 0
3, 5682, Note_on_c, 0, 83, 47
3, 5684, Note_on_c, 0, 84, 0
3, 5688, Note_on_c, 0, 84, 45
3, 5690, Note_on_c, 0, 83, 0
3, 5694, Note_on_c, 0, 87, 43
3, 5696, Note_on_c, 0, 84, 0
3, 5700, Note_on_c, 0, 88, 41
3, 5702, Note_on_c, 0, 87, 0
3, 5706, Note_on_c, 0, 87, 44
3, 5708, Note_on_c, 0, 88, 0
3, 5712, Note_on_c, 0, 88, 42
3, 5714, Note_on_c, 0, 87, 0
3, 5718, Note_on_c, 0, 86, 45
3, 5720, Note_on_c, 0, 88, 0
3, 5724, Note_on_c, 0, 84, 48
3, 5726, Note_on_c, 0, 86, 0
3, 5730, Note_on_c, 0, 83, 51
3, 5732, Note_on_c, 0, 84, 0
3, 5736, Note_on_c, 0, 81, 54
3, 5738, Note_on_c, 0, 83, 0
3, 5742, Note_on_c, 0, 79, 57
3, 5744, Note_on_c, 0, 81, 0
3, 5748, Note_on_c, 0, 77, 52
3, 5750, Note_on_c, 0, 79, 0
3, 5754, Note_on_c, 0, 76, 48
3, 5756, Note_on_c, 0, 77, 0
3, 5760, Note_on_c, 0, 74, 50
3, 5762, Note_on_c, 0, 76, 0
3, 5764, Note_on_c, 0, 74, 0
3, 5766, Note_on_c, 0, 69, 52
3, 5769, Note_on_c, 0, 69, 0
3, 5772, Note_on_c, 0, 71, 49
3, 5775, Note_on_c, 0, 71, 0
3, 5778, Note_on_c, 0, 73, 46
3, 5781, Note_on_c, 0, 73, 0
3, 5784, Note_on_c, 0, 74, 48
3, 5787, Note_on_c, 0, 74, 0
3, 5790, Note_on_c, 0, 76, 45
3, 5793, Note_on_c, 0, 76, 0
3, 5796, Note_on_c, 0, 77, 43
3, 5799, Note_on_c, 0, 77, 0
3, 5802, Note_on_c, 0, 76, 46
3, 5805, Note_on_c, 0, 76, 0
3, 5808, Note_on_c, 0, 74, 50
3, 5812, Note_on_c, 0, 74, 0
3, 5814, Note_on_c, 0, 69, 52
3, 5817, Note_on_c, 0, 69, 0
3, 5820, Note_on_c, 0, 71, 49
3, 5823, Note_on_c, 0, 71, 0
3, 5826, Note_on_c, 0, 73, 46
3, 5829, Note_on_c, 0, 73, 0
3, 5832, Note_on_c, 0, 74, 48
3, 5835, Note_on_c, 0, 74, 0
3, 5838, Note_on_c, 0, 76, 45
3, 5841, Note_on_c, 0, 76, 0
3, 5844, Note_on_c, 0, 77, 43
3, 5847, Note_on_c, 0, 77, 0
3, 5850, Note_on_c, 0, 76, 46
3, 5853, Note_on_c, 0, 76, 0
3, 5856, Note_on_c, 0, 74, 50
3, 5860, Note_on_c, 0, 74, 0
3, 5862, Note_on_c, 0, 69, 52
3, 5865, Note_on_c, 0, 69, 0
3, 5868, Note_on_c, 0, 71, 49
3, 5871, Note_on_c, 0, 71, 0
3, 5874, Note_on_c, 0, 73, 46
3, 5877, Note_on_c, 0, 73, 0
3, 5880, Note_on_c, 0, 74, 48
3, 5883, Note_on_c, 0, 74, 0
3, 5886, Note_on_c, 0, 76, 45
3, 5889, Note_on_c, 0, 76, 0
3, 5892, Note_on_c, 0, 77, 43
3, 5895, Note_on_c, 0, 77, 0
3, 5898, Note_on_c, 0, 79, 40
3, 5901, Note_on_c, 0, 79, 0
3, 5904, Note_on_c, 0, 81, 55
3, 5910, Note_on_c, 0, 79, 42
3, 5912, Note_on_c, 0, 81, 0
3, 5913, Note_on_c, 0, 79, 0
3, 5916, Note_on_c, 0, 77, 45
3, 5919, Note_on_c, 0, 77, 0
3, 5922, Note_on_c, 0, 76, 48
3, 5925, Note_on_c, 0, 76, 0
3, 5928, Note_on_c, 0, 74, 51
3, 5931, Note_on_c, 0, 74, 0
3, 5934, Note_on_c, 0, 72, 54
3, 5937, Note_on_c, 0, 72, 0
3, 5940, Note_on_c, 0, 71, 56
3, 5943, Note_on_c, 0, 71, 0
3, 5946, Note_on_c, 0, 69, 58
3, 5949, Note_on_c, 0, 69, 0
3, 5952, Note_on_c, 0, 67, 60
3, 5964, Note_on_c, 0, 69, 62
3, 5966, Note_on_c, 0, 67, 0
3, 5970, Note_on_c, 0, 71, 59
3, 5972, Note_on_c, 0, 69, 0
3, 5976, Note_on_c, 0, 72, 57
3, 5978, Note_on_c, 0, 71, 0
3, 5982, Note_on_c, 0, 74, 55
3, 5984, Note_on_c, 0, 72, 0
3, 5988, Note_on_c, 0, 76, 53
3, 5990, Note_on_c, 0, 74, 0
3, 5994, Note_on_c, 0, 77, 56
3, 5996, Note_on_c, 0, 76, 0
3, 6000, Note_on_c, 0, 79, 59
3, 6002, Note_on_c, 0, 77, 0
3, 6012, Note_on_c, 0, 81, 61
3, 6014, Note_on_c, 0, 79, 0
3, 6018, Note_on_c, 0, 83, 63
3, 6020, Note_on_c, 0, 81, 0
3, 6024, Note_on_c, 0, 84, 60
3, 6026, Note_on_c, 0, 83, 0
3, 6030, Note_on_c, 0, 86, 58
3, 6032, Note_on_c, 0, 84, 0
3, 6036, Note_on_c, 0, 88, 56
3, 6038, Note_on_c, 0, 86, 0
3, 6042, Note_on_c, 0, 89, 54
3, 6044, Note_on_c, 0, 88, 0
3, 6048, Note_on_c, 0, 91, 57
3, 6050, Note_on_c, 0, 89, 0
3, 6058, Note_on_c, 0, 91, 0
3, 6072, Note_on_c, 0, 93, 62
3, 6080, Note_on_c, 0, 93, 0
3, 6096, Note_on_c, 0, 95, 66
3, 6102, Note_on_c, 0, 95, 0
3, 6120, Note_on_c, 0, 96, 70
3, 6128, Note_on_c, 0, 96, 0
3, 6144, Note_on_c, 0, 74, 55
3, 6150, Note_on_c, 0, 76, 40
3, 6152, Note_on_c, 0, 74, 0
3, 6154, Note_on_c, 0, 74, 43
3, 6155, Note_on_c, 0, 76, 0
3, 6157, Note_on_c, 0, 76, 41
3, 6158, Note_on_c, 0, 74, 0
3, 6159, Note_on_c, 0, 74, 44
3, 6161, Note_on_c, 0, 76, 0
3, 6162, Note_on_c, 0, 76, 47
3, 6163, Note_on_c, 0, 74, 0
3, 6165, Note_on_c, 0, 74, 43
3, 6166, Note_on_c, 0, 76, 0
3, 6168, Note_on_c, 0, 76, 48
3, 6169, Note_on_c, 0, 74, 0
3, 6170, Note_on_c, 0, 74, 46
3, 6172, Note_on_c, 0, 76, 0
3, 6173, Note_on_c, 0, 76, 50
3, 6174, Note_on_c, 0, 74, 0
3, 6175, Note_on_c, 0, 74, 52
3, 6177, Note_on_c, 0, 76, 0
3, 6177, Note_on_c, 0, 76, 48
3, 6179, Note_on_c, 0, 74, 0
3, 6180, Note_on_c, 0, 74, 50
3, 6181, Note_on_c, 0, 76, 0
3, 6182, Note_on_c, 0, 76, 55
3, 6184, Note_on_c, 0, 74, 0
3, 6185, Note_on_c, 0, 74, 52
3, 6186, Note_on_c, 0, 76, 0
3, 6187, Note_on_c, 0, 76, 49
3, 6189, Note_on_c, 0, 74, 0
3, 6190, Note_on_c, 0, 74, 58
3, 6191, Note_on_c, 0, 76, 0
3, 6193, Note_on_c, 0, 76, 52
3, 6194, Note_on_c, 0, 74, 0
3, 6195, Note_on_c, 0, 74, 55
3, 6197, Note_on_c, 0, 76, 0
3, 6198, Note_on_c, 0, 76, 60
3, 6199, Note_on_c, 0, 74, 0
3, 6200, Note_on_c, 0, 74, 62
3, 6202, Note_on_c, 0, 76, 0
3, 6202, Note_on_c, 0, 76, 58
3, 6204, Note_on_c, 0, 74, 0
3, 6205, Note_on_c, 0, 74, 65
3, 6206, Note_on_c, 0, 76, 0
3, 6208, Note_on_c, 0, 76, 68
3, 6209, Note_on_c, 0, 74, 0
3, 6210, Note_on_c, 0, 74, 64
3, 6212, Note_on_c, 0, 76, 0
3, 6212, Note_on_c, 0, 76, 66
3, 6214, Note_on_c, 0, 74, 0
3, 6215, Note_on_c, 0, 74, 70
3, 6216, Note_on_c, 0, 76, 0
3, 6217, Note_on_c, 0, 76, 72
3, 6219, Note_on_c, 0, 74, 0
3, 6220, Note_on_c, 0, 74, 69
3, 6221, Note_on_c, 0, 76, 0
3, 6222, Note_on_c, 0, 76, 73
3, 6224, Note_on_c, 0, 74, 0
3, 6226, Note_on_c, 0, 73, 76
3, 6227, Note_on_c, 0, 76, 0
3, 6232, Note_on_c, 0, 74, 80
3, 6233, Note_on_c, 0, 73, 0
3, 6240, Note_on_c, 0, 79, 85
3, 6241, Note_on_c, 0, 74, 0
3, 6246, Note_on_c, 0, 81, 70
3, 6248, Note_on_c, 0, 79, 0
3, 6250, Note_on_c, 0, 79, 73
3, 6251, Note_on_c, 0, 81, 0
3, 6253, Note_on_c, 0, 81, 71
3, 6254, Note_on_c, 0, 79, 0
3, 6255, Note_on_c, 0, 79, 74
3, 6257, Note_on_c, 0, 81, 0
3, 6258, Note_on_c, 0, 81, 77
3, 6259, Note_on_c, 0, 79, 0
3, 6261, Note_on_c, 0, 79, 73
3, 6262, Note_on_c, 0, 81, 0
3, 6264, Note_on_c, 0, 81, 70
3, 6265, Note_on_c, 0, 79, 0
3, 6266, Note_on_c, 0, 79, 75
3, 6268, Note_on_c, 0, 81, 0
3, 6269, Note_on_c, 0, 81, 74
3, 6270, Note_on_c, 0, 79, 0
3, 6271, Note_on_c, 0, 79, 77
3, 6273, Note_on_c, 0, 81, 0
3, 6273, Note_on_c, 0, 81, 76
3, 6275, Note_on_c, 0, 79, 0
3, 6276, Note_on_c, 0, 79, 74
3, 6277, Note_on_c, 0, 81, 0
3, 6278, Note_on_c, 0, 81, 70
3, 6280, Note_on_c, 0, 79, 0
3, 6281, Note_on_c, 0, 79, 68
3, 6282, Note_on_c, 0, 81, 0
3, 6283, Note_on_c, 0, 81, 75
3, 6285, Note_on_c, 0, 79, 0
3, 6286, Note_on_c, 0, 79, 72
3, 6287, Note_on_c, 0, 81, 0
3, 6289, Note_on_c, 0, 81, 74
3, 6290, Note_on_c, 0, 79, 0
3, 6291, Note_on_c, 0, 79, 69
3, 6293, Note_on_c, 0, 81, 0
3, 6294, Note_on_c, 0, 81, 72
3, 6295, Note_on_c, 0, 79, 0
3, 6296, Note_on_c, 0, 79, 67
3, 6298, Note_on_c, 0, 81, 0
3, 6298, Note_on_c, 0, 81, 75
3, 6300, Note_on_c, 0, 79, 0
3, 6301, Note_on_c, 0, 79, 72
3, 6302, Note_on_c, 0, 81, 0
3, 6304, Note_on_c, 0, 81, 69
3, 6305, Note_on_c, 0, 79, 0
3, 6306, Note_on_c, 0, 79, 72
3, 6308, Note_on_c, 0, 81, 0
3, 6308, Note_on_c, 0, 81, 78
3, 6310, Note_on_c, 0, 79, 0
3, 6311, Note_on_c, 0, 79, 70
3, 6312, Note_on_c, 0, 81, 0
3, 6313, Note_on_c, 0, 81, 72
3, 6315, Note_on_c, 0, 79, 0
3, 6316, Note_on_c, 0, 79, 75
3, 6317, Note_on_c, 0, 81, 0
3, 6318, Note_on_c, 0, 81, 80
3, 6320, Note_on_c, 0, 79, 0
3, 6322, Note_on_c, 0, 78, 84
3, 6323, Note_on_c, 0, 81, 0
3, 6328, Note_on_c, 0, 79, 88
3, 6329, Note_on_c, 0, 78, 0
3, 6336, Note_on_c, 0, 72, 95
3, 6336, Note_on_c, 0, 67, 70
3, 6336, Note_on_c, 0, 64, 82
3, 6337, Note_on_c, 0, 79, 0
3, 6408, Note_on_c, 0, 64, 0
3, 6408, Note_on_c, 0, 67, 0
3, 6408, Note_on_c, 0, 72, 0
3, 6426, Note_on_c, 0, 79, 95
3, 6426, Note_on_c, 0, 76, 75
3, 6426, Note_on_c, 0, 72, 60
3, 6426, Note_on_c, 0, 67, 80
3, 6432, Note_on_c, 0, 67, 0
3, 6432, Note_on_c, 0, 72, 0
3, 6432, Note_on_c, 0, 76, 0
3, 6432, Note_on_c, 0, 79, 0
3, 6432, Note_on_c, 0, 81, 100
3, 6432, Note_on_c, 0, 77, 78
3, 6432, Note_on_c, 0, 72, 60
3, 6432, Note_on_c, 0, 69, 85
3, 6472, Note_on_c, 0, 69, 0
3, 6472, Note_on_c, 0, 72, 0
3, 6472, Note_on_c, 0, 77, 0
3, 6472, Note_on_c, 0, 81, 0
3, 6474, Note_on_c, 0, 77, 98
3, 6474, Note_on_c, 0, 72, 50
3, 6474, Note_on_c, 0, 69, 80
3, 6480, Note_on_c, 0, 69, 0
3, 6480, Note_on_c, 0, 72, 0
3, 6480, Note_on_c, 0, 77, 0
3, 6480, Note_on_c, 0, 84, 105
3, 6480, Note_on_c, 0, 77, 68
3, 6480, Note_on_c, 0, 72, 90
3, 6520, Note_on_c, 0, 72, 0
3, 6520, Note_on_c, 0, 77, 0
3, 6520, Note_on_c, 0, 84, 0
3, 6522, Note_on_c, 0, 81, 101
3, 6522, Note_on_c, 0, 77, 72
3, 6522, Note_on_c, 0, 72, 85
3, 6528, Note_on_c, 0, 72, 0
3, 6528, Note_on_c, 0, 77, 0
3, 6528, Note_on_c, 0, 81, 0
3, 6528, Note_on_c, 0, 79, 95
3, 6528, Note_on_c, 0, 76, 88
3, 6528, Note_on_c, 0, 72, 75
3, 6542, Note_on_c, 0, 72, 0
3, 6542, Note_on_c, 0, 76, 0
3, 6542, Note_on_c, 0, 79, 0
3, 6552, Note_on_c, 0, 72, 60
3, 6562, Note_on_c, 0, 72, 0
3, 6564, Note_on_c, 0, 74, 55
3, 6572, Note_on_c, 0, 74, 0
3, 6576, Note_on_c, 0, 76, 50
3, 6585, Note_on_c, 0, 76, 0
3, 6588, Note_on_c, 0, 77, 47
3, 6596, Note_on_c, 0, 77, 0
3, 6600, Note_on_c, 0, 78, 49
3, 6608, Note_on_c, 0, 78, 0
3, 6612, Note_on_c, 0, 79, 43
3, 6620, Note_on_c, 0, 79, 0
3, 6624, Note_on_c, 0, 81, 45
3, 6636, Note_on_c, 0, 80, 47
3, 6638, Note_on_c, 0, 81, 0
3, 6648, Note_on_c, 0, 81, 43
3, 6650, Note_on_c, 0, 80, 0
3, 6660, Note_on_c, 0, 77, 45
3, 6662, Note_on_c, 0, 81, 0
3, 6672, Note_on_c, 0, 77, 0
3, 6672, Note_on_c, 0, 84, 43
3, 6684, Note_on_c, 0, 83, 45
3, 6686, Note_on_c, 0, 84, 0
3, 6696, Note_on_c, 0, 84, 41
3, 6698, Note_on_c, 0, 83, 0
3, 6708, Note_on_c, 0, 81, 45
3, 6710, Note_on_c, 0, 84, 0
3, 6720, Note_on_c, 0, 81, 0
3, 6720, Note_on_c, 0, 79, 40
3, 6768, Note_on_c, 0, 79, 0
3, 6810, Note_on_c, 0, 79, 95
3, 6810, Note_on_c, 0, 76, 75
3, 6810, Note_on_c, 0, 72, 60
3, 6810, Note_on_c, 0, 67, 80
3, 6816, Note_on_c, 0, 67, 0
3, 6816, Note_on_c, 0, 72, 0
3, 6816, Note_on_c, 0, 76, 0
3, 6816, Note_on_c, 0, 79, 0
3, 6816, Note_on_c, 0, 80, 100
3, 6816, Note_on_c, 0, 77, 78
3, 6816, Note_on_c, 0, 72, 60
3, 6816, Note_on_c, 0, 68, 85
3, 6856, Note_on_c, 0, 68, 0
3, 6856, Note_on_c, 0, 72, 0
3, 6856, Note_on_c, 0, 77, 0
3, 6856, Note_on_c, 0, 80, 0
3, 6858, Note_on_c, 0, 77, 98
3, 6858, Note_on_c, 0, 72, 50
3, 6858, Note_on_c, 0, 68, 80
3, 6864, Note_on_c, 0, 68, 0
3, 6864, Note_on_c, 0, 72, 0
3, 6864, Note_on_c, 0, 77, 0
3, 6864, Note_on_c, 0, 84, 105
3, 6864, Note_on_c, 0, 77, 68
3, 6864, Note_on_c, 0, 72, 90
3, 6904, Note_on_c, 0, 72, 0
3, 6904, Note_on_c, 0, 77, 0
3, 6904, Note_on_c, 0, 84, 0
3, 6906, Note_on_c, 0, 80, 101
3, 6906, Note_on_c, 0, 77, 72
3, 6906, Note_on_c, 0, 72, 85
3, 6912, Note_on_c, 0, 72, 0
3, 6912, Note_on_c, 0, 77, 0
3, 6912, Note_on_c, 0, 80, 0
3, 6912, Note_on_c, 0, 79, 95
3, 6912, Note_on_c, 0, 76, 88
3, 6912, Note_on_c, 0, 72, 75
3, 6926, Note_on_c, 0, 72, 0
3, 6926, Note_on_c, 0, 76, 0
3, 6926, Note_on_c, 0, 79, 0
3, 6936, Note_on_c, 0, 72, 60
3, 6946, Note_on_c, 0, 72, 0
3, 6948, Note_on_c, 0, 74, 55
3, 6956, Note_on_c, 0, 74, 0
3, 6960, Note_on_c, 0, 76, 50
3, 6969, Note_on_c, 0, 76, 0
3, 6972, Note_on_c, 0, 77, 47
3, 6980, Note_on_c, 0, 77, 0
3, 6984, Note_on_c, 0, 78, 49
3, 6992, Note_on_c, 0, 78, 0
3, 6996, Note_on_c, 0, 79, 43
3, 7004, Note_on_c, 0, 79, 0
3, 7008, Note_on_c, 0, 80, 45
3, 7026, Note_on_c, 0, 77, 47
3, 7028, Note_on_c, 0, 80, 0
3, 7032, Note_on_c, 0, 84, 50
3, 7034, Note_on_c, 0, 77, 0
3, 7050, Note_on_c, 0, 80, 42
3, 7052, Note_on_c, 0, 84, 0
3, 7056, Note_on_c, 0, 89, 48
3, 7058, Note_on_c, 0, 80, 0
3, 7098, Note_on_c, 0, 80, 45
3, 7100, Note_on_c, 0, 89, 0
3, 7104, Note_on_c, 0, 79, 50
3, 7106, Note_on_c, 0, 80, 0
3, 7110, Note_on_c, 0, 79, 0
3, 7113, Note_on_c, 0, 84, 42
3, 7117, Note_on_c, 0, 84, 0
3, 7120, Note_on_c, 0, 83, 44
3, 7124, Note_on_c, 0, 83, 0
3, 7128, Note_on_c, 0, 84, 46
3, 7132, Note_on_c, 0, 84, 0
3, 7136, Note_on_c, 0, 83, 40
3, 7140, Note_on_c, 0, 83, 0
3, 7144, Note_on_c, 0, 84, 43
3, 7148, Note_on_c, 0, 84, 0
3, 7152, Note_on_c, 0, 80, 46
3, 7158, Note_on_c, 0, 80, 0
3, 7161, Note_on_c, 0, 84, 42
3, 7165, Note_on_c, 0, 84, 0
3, 7168, Note_on_c, 0, 83, 44
3, 7172, Note_on_c, 0, 83, 0
3, 7176, Note_on_c, 0, 84, 46
3, 7180, Note_on_c, 0, 84, 0
3, 7184, Note_on_c, 0, 83, 40
3, 7188, Note_on_c, 0, 83, 0
3, 7192, Note_on_c, 0, 84, 43
3, 7196, Note_on_c, 0, 84, 0
3, 7200, Note_on_c, 0, 79, 48
3, 7206, Note_on_c, 0, 79, 0
3, 7208, Note_on_c, 0, 84, 42
3, 7212, Note_on_c, 0, 84, 0
3, 7216, Note_on_c, 0, 83, 44
3, 7220, Note_on_c, 0, 83, 0
3, 7224, Note_on_c, 0, 84, 46
3, 7228, Note_on_c, 0, 84, 0
3, 7232, Note_on_c, 0, 83, 40
3, 7236, Note_on_c, 0, 83, 0
3, 7240, Note_on_c, 0, 84, 43
3, 7244, Note_on_c, 0, 84, 0
3, 7248, Note_on_c, 0, 80, 45
3, 7254, Note_on_c, 0, 80, 0
3, 7256, Note_on_c, 0, 84, 42
3, 7260, Note_on_c, 0, 84, 0
3, 7264, Note_on_c, 0, 83, 44
3, 7268, Note_on_c, 0, 83, 0
3, 7272, Note_on_c, 0, 84, 46
3, 7276, Note_on_c, 0, 84, 0
3, 7280, Note_on_c, 0, 83, 40
3, 7284, Note_on_c, 0, 83, 0
3, 7288, Note_on_c, 0, 84, 43
3, 7292, Note_on_c, 0, 84, 0
3, 7296, Note_on_c, 0, 83, 46
3, 7300, Note_on_c, 0, 83, 0
3, 7304, Note_on_c, 0, 84, 42
3, 7308, Note_on_c, 0, 84, 0
3, 7312, Note_on_c, 0, 83, 44
3, 7316, Note_on_c, 0, 83, 0
3, 7320, Note_on_c, 0, 84, 42
3, 7324, Note_on_c, 0, 84, 0
3, 7328, Note_on_c, 0, 83, 45
3, 7332, Note_on_c, 0, 83, 0
3, 7336, Note_on_c, 0, 84, 43
3, 7340, Note_on_c, 0, 84, 0
3, 7344, Note_on_c, 0, 83, 46
3, 7348, Note_on_c, 0, 83, 0
3, 7352, Note_on_c, 0, 84, 44
3, 7356, Note_on_c, 0, 84, 0
3, 7360, Note_on_c, 0, 83, 47
3, 7364, Note_on_c, 0, 83, 0
3, 7368, Note_on_c, 0, 84, 45
3, 7372, Note_on_c, 0, 84, 0
3, 7376, Note_on_c, 0, 83, 48
3, 7380, Note_on_c, 0, 83, 0
3, 7384, Note_on_c, 0, 84, 46
3, 7388, Note_on_c, 0, 84, 0
3, 7392, Note_on_c, 0, 83, 49
3, 7396, Note_on_c, 0, 83, 0
3, 7400, Note_on_c, 0, 84, 47
3, 7404, Note_on_c, 0, 84, 0
3, 7408, Note_on_c, 0, 86, 45
3, 7412, Note_on_c, 0, 86, 0
3, 7416, Note_on_c, 0, 84, 48
3, 7420, Note_on_c, 0, 84, 0
3, 7424, Note_on_c, 0, 82, 51
3, 7428, Note_on_c, 0, 82, 0
3, 7432, Note_on_c, 0, 81, 54
3, 7436, Note_on_c, 0, 81, 0
3, 7440, Note_on_c, 0, 79, 57
3, 7444, Note_on_c, 0, 79, 0
3, 7448, Note_on_c, 0, 81, 55
3, 7452, Note_on_c, 0, 81, 0
3, 7456, Note_on_c, 0, 82, 53
3, 7460, Note_on_c, 0, 82, 0
3, 7464, Note_on_c, 0, 81, 56
3, 7468, Note_on_c, 0, 81, 0
3, 7472, Note_on_c, 0, 79, 59
3, 7476, Note_on_c, 0, 79, 0
3, 7480, Note_on_c, 0, 77, 62
3, 7484, Note_on_c, 0, 77, 0
3, 7488, Note_on_c, 0, 76, 65
3, 7492, Note_on_c, 0, 76, 0
3, 7496, Note_on_c, 0, 77, 63
3, 7500, Note_on_c, 0, 77, 0
3, 7504, Note_on_c, 0, 79, 61
3, 7508, Note_on_c, 0, 79, 0
3, 7512, Note_on_c, 0, 77, 64
3, 7516, Note_on_c, 0, 77, 0
3, 7520, Note_on_c, 0, 76, 67
3, 7524, Note_on_c, 0, 76, 0
3, 7528, Note_on_c, 0, 74, 70
3, 7532, Note_on_c, 0, 74, 0
3, 7536, Note_on_c, 0, 72, 73
3, 7540, Note_on_c, 0, 72, 0
3, 7544, Note_on_c, 0, 73, 71
3, 7548, Note_on_c, 0, 73, 0
3, 7552, Note_on_c, 0, 74, 69
3, 7556, Note_on_c, 0, 74, 0
3, 7560, Note_on_c, 0, 75, 67
3, 7564, Note_on_c, 0, 75, 0
3, 7568, Note_on_c, 0, 76, 65
3, 7572, Note_on_c, 0, 76, 0
3, 7576, Note_on_c, 0, 77, 63
3, 7580, Note_on_c, 0, 77, 0
3, 7584, Note_on_c, 0, 78, 61
3, 7588, Note_on_c, 0, 78, 0
3, 7592, Note_on_c, 0, 79, 59
3, 7596, Note_on_c, 0, 79, 0
3, 7600, Note_on_c, 0, 80, 57
3, 7604, Note_on_c, 0, 80, 0
3, 7608, Note_on_c, 0, 81, 55
3, 7612, Note_on_c, 0, 81, 0
3, 7616, Note_on_c, 0, 82, 53
3, 7620, Note_on_c, 0, 82, 0
3, 7624, Note_on_c, 0, 83, 51
3, 7628, Note_on_c, 0, 83, 0
3, 7632, Note_on_c, 0, 84, 49
3, 7636, Note_on_c, 0, 84, 0
3, 7640, Note_on_c, 0, 83, 52
3, 7644, Note_on_c, 0, 83, 0
3, 7648, Note_on_c, 0, 86, 50
3, 7652, Note_on_c, 0, 86, 0
3, 7656, Note_on_c, 0, 84, 53
3, 7660, Note_on_c, 0, 84, 0
3, 7664, Note_on_c, 0, 82, 58
3, 7668, Note_on_c, 0, 82, 0
3, 7672, Note_on_c, 0, 79, 55
3, 7676, Note_on_c, 0, 79, 0
3, 7676, Note_on_c, 0, 69, 40
3, 7678, Note_on_c, 0, 72, 44
3, 7680, Note_on_c, 0, 69, 0
3, 7680, Note_on_c, 0, 77, 50
3, 7682, Note_on_c, 0, 72, 0
3, 7752, Note_on_c, 0, 79, 52
3, 7754, Note_on_c, 0, 77, 0
3, 7759, Note_on_c, 0, 77, 45
3, 7761, Note_on_c, 0, 79, 0
3, 7764, Note_on_c, 0, 76, 48
3, 7766, Note_on_c, 0, 77, 0
3, 7770, Note_on_c, 0, 77, 43
3, 7772, Note_on_c, 0, 76, 0
3, 7776, Note_on_c, 0, 81, 45
3, 7778, Note_on_c, 0, 77, 0
3, 7812, Note_on_c, 0, 79, 48
3, 7814, Note_on_c, 0, 81, 0
3, 7824, Note_on_c, 0, 82, 42
3, 7826, Note_on_c, 0, 79, 0
3, 7860, Note_on_c, 0, 79, 45
3, 7862, Note_on_c, 0, 82, 0
3, 7872, Note_on_c, 0, 77, 48
3, 7874, Note_on_c, 0, 79, 0
3, 7932, Note_on_c, 0, 76, 52
3, 7934, Note_on_c, 0, 77, 0
3, 7944, Note_on_c, 0, 79, 45
3, 7946, Note_on_c, 0, 76, 0
3, 7956, Note_on_c, 0, 76, 47
3, 7958, Note_on_c, 0, 79, 0
3, 7968, Note_on_c, 0, 72, 42
3, 7970, Note_on_c, 0, 76, 0
3, 8016, Note_on_c, 0, 72, 0
3, 8040, Note_on_c, 0, 72, 55
3, 8064, Note_on_c, 0, 72, 0
3, 8064, Note_on_c, 0, 72, 52
3, 8066, Note_on_c, 0, 77, 60
3, 8109, Note_on_c, 0, 81, 50
3, 8112, Note_on_c, 0, 72, 0
3, 8112, Note_on_c, 0, 79, 55
3, 8112, Note_on_c, 0, 72, 35
3, 8113, Note_on_c, 0, 81, 0
3, 8114, Note_on_c, 0, 77, 0
3, 8124, Note_on_c, 0, 78, 58
3, 8126, Note_on_c, 0, 79, 0
3, 8136, Note_on_c, 0, 79, 53
3, 8138, Note_on_c, 0, 78, 0
3, 8148, Note_on_c, 0, 80, 48
3, 8150, Note_on_c, 0, 79, 0
3, 8160, Note_on_c, 0, 72, 0
3, 8160, Note_on_c, 0, 72, 30
3, 8162, Note_on_c, 0, 80, 0
3, 8162, Note_on_c, 0, 81, 50
3, 8205, Note_on_c, 0, 84, 45
3, 8208, Note_on_c, 0, 72, 0
3, 8208, Note_on_c, 0, 82, 52
3, 8208, Note_on_c, 0, 74, 32
3, 8209, Note_on_c, 0, 84, 0
3, 8210, Note_on_c, 0, 81, 0
3, 8220, Note_on_c, 0, 81, 55
3, 8222, Note_on_c, 0, 82, 0
3, 8232, Note_on_c, 0, 82, 50
3, 8234, Note_on_c, 0, 81, 0
3, 8244, Note_on_c, 0, 86, 45
3, 8246, Note_on_c, 0, 82, 0
3, 8251, Note_on_c, 0, 72, 30
3, 8254, Note_on_c, 0, 77, 25
3, 8256, Note_on_c, 0, 74, 0
3, 8256, Note_on_c, 0, 81, 48
3, 8258, Note_on_c, 0, 86, 0
3, 8316, Note_on_c, 0, 82, 50
3, 8318, Note_on_c, 0, 81, 0
3, 8328, Note_on_c, 0, 83, 52
3, 8330, Note_on_c, 0, 82, 0
3, 8340, Note_on_c, 0, 84, 54
3, 8342, Note_on_c, 0, 83, 0
3, 8347, Note_on_c, 0, 72, 0
3, 8350, Note_on_c, 0, 77, 0
3, 8352, Note_on_c, 0, 79, 48
3, 8352, Note_on_c, 0, 76, 35
3, 8352, Note_on_c, 0, 72, 20
3, 8354, Note_on_c, 0, 84, 0
3, 8400, Note_on_c, 0, 72, 0
3, 8400, Note_on_c, 0, 76, 0
3, 8400, Note_on_c, 0, 79, 0
3, 8424, Note_on_c, 0, 72, 60
3, 8448, Note_on_c, 0, 72, 0
3, 8448, Note_on_c, 0, 82, 70
3, 8448, Note_on_c, 0, 76, 62
3, 8448, Note_on_c, 0, 72, 45
3, 8520, Note_on_c, 0, 79, 65
3, 8522, Note_on_c, 0, 76, 0
3, 8522, Note_on_c, 0, 82, 0
3, 8526, Note_on_c, 0, 81, 58
3, 8527, Note_on_c, 0, 79, 0
3, 8530, Note_on_c, 0, 79, 61
3, 8531, Note_on_c, 0, 81, 0
3, 8534, Note_on_c, 0, 78, 63
3, 8535, Note_on_c, 0, 79, 0
3, 8539, Note_on_c, 0, 79, 60
3, 8540, Note_on_c, 0, 78, 0
3, 8544, Note_on_c, 0, 76, 65
3, 8545, Note_on_c, 0, 79, 0
3, 8554, Note_on_c, 0, 72, 0
3, 8554, Note_on_c, 0, 76, 0
3, 8568, Note_on_c, 0, 77, 52
3, 8568, Note_on_c, 0, 72, 38
3, 8592, Note_on_c, 0, 72, 0
3, 8592, Note_on_c, 0, 76, 55
3, 8592, Note_on_c, 0, 72, 40
3, 8594, Note_on_c, 0, 77, 0
3, 8616, Note_on_c, 0, 72, 0
3, 8616, Note_on_c, 0, 77, 57
3, 8616, Note_on_c, 0, 72, 45
3, 8618, Note_on_c, 0, 76, 0
3, 8640, Note_on_c, 0, 72, 0
3, 8640, Note_on_c, 0, 82, 60
3, 8640, Note_on_c, 0, 76, 52
3, 8640, Note_on_c, 0, 72, 35
3, 8642, Note_on_c, 0, 77, 0
3, 8712, Note_on_c, 0, 79, 55
3, 8714, Note_on_c, 0, 76, 0
3, 8714, Note_on_c, 0, 82, 0
3, 8718, Note_on_c, 0, 81, 48
3, 8719, Note_on_c, 0, 79, 0
3, 8722, Note_on_c, 0, 79, 51
3, 8723, Note_on_c, 0, 81, 0
3, 8726, Note_on_c, 0, 78, 53
3, 8727, Note_on_c, 0, 79, 0
3, 8731, Note_on_c, 0, 79, 50
3, 8732, Note_on_c, 0, 78, 0
3, 8736, Note_on_c, 0, 76, 55
3, 8737, Note_on_c, 0, 79, 0
3, 8748, Note_on_c, 0, 72, 0
3, 8748, Note_on_c, 0, 76, 0
3, 8760, Note_on_c, 0, 84, 42
3, 8760, Note_on_c, 0, 72, 28
3, 8784, Note_on_c, 0, 83, 40
3, 8784, Note_on_c, 0, 71, 25
3, 8786, Note_on_c, 0, 72, 0
3, 8786, Note_on_c, 0, 84, 0
3, 8808, Note_on_c, 0, 84, 46
3, 8808, Note_on_c, 0, 72, 31
3, 8810, Note_on_c, 0, 71, 0
3, 8810, Note_on_c, 0, 83, 0
3, 8832, Note_on_c, 0, 86, 50
3, 8832, Note_on_c, 0, 74, 35
3, 8834, Note_on_c, 0, 72, 0
3, 8834, Note_on_c, 0, 84, 0
3, 8892, Note_on_c, 0, 88, 45
3, 8894, Note_on_c, 0, 74, 0
3, 8894, Note_on_c, 0, 86, 0
3, 8896, Note_on_c, 0, 86, 40
3, 8897, Note_on_c, 0, 88, 0
3, 8899, Note_on_c, 0, 85, 42
3, 8900, Note_on_c, 0, 86, 0
3, 8901, Note_on_c, 0, 86, 45
3, 8903, Note_on_c, 0, 85, 0
3, 8904, Note_on_c, 0, 88, 50
3, 8905, Note_on_c, 0, 86, 0
3, 8914, Note_on_c, 0, 88, 0
3, 8916, Note_on_c, 0, 89, 55
3, 8924, Note_on_c, 0, 89, 0
3, 8928, Note_on_c, 0, 77, 60
3, 8928, Note_on_c, 0, 72, 35
3, 8928, Note_on_c, 0, 69, 42
3, 9000, Note_on_c, 0, 81, 53
3, 9000, Note_on_c, 0, 76, 40
3, 9000, Note_on_c, 0, 70, 48
3, 9002, Note_on_c, 0, 69, 0
3, 9002, Note_on_c, 0, 72, 0
3, 9002, Note_on_c, 0, 77, 0
3, 9012, Note_on_c, 0, 79, 57
3, 9014, Note_on_c, 0, 81, 0
3, 9024, Note_on_c, 0, 79, 0
3, 9024, Note_on_c, 0, 70, 0
3, 9024, Note_on_c, 0, 76, 0
3, 9024, Note_on_c, 0, 79, 55
3, 9024, Note_on_c, 0, 76, 42
3, 9024, Note_on_c, 0, 70, 45
3, 9096, Note_on_c, 0, 84, 48
3, 9098, Note_on_c, 0, 70, 0
3, 9098, Note_on_c, 0, 76, 0
3, 9098, Note_on_c, 0, 79, 0
3, 9108, Note_on_c, 0, 76, 52
3, 9110, Note_on_c, 0, 84, 0
3, 9120, Note_on_c, 0, 77, 45
3, 9120, Note_on_c, 0, 72, 25
3, 9120, Note_on_c, 0, 69, 32
3, 9122, Note_on_c, 0, 76, 0
3, 9144, Note_on_c, 0, 69, 0
3, 9144, Note_on_c, 0, 72, 0
3, 9144, Note_on_c, 0, 77, 0
3, 9216, Note_on_c, 0, 77, 68
3, 9216, Note_on_c, 0, 69, 40
3, 9216, Note_on_c, 0, 65, 52
3, 9312, Note_on_c, 0, 65, 0
3, 9312, Note_on_c, 0, 69, 0
3, 9312, Note_on_c, 0, 77, 0
3, 9312, Note_on_c, 0, 81, 72
3, 9312, Note_on_c, 0, 74, 45
3, 9312, Note_on_c, 0, 69, 65
3, 9348, Note_on_c, 0, 79, 75
3, 9348, Note_on_c, 0, 67, 68
3, 9350, Note_on_c, 0, 69, 0
3, 9350, Note_on_c, 0, 74, 0
3, 9350, Note_on_c, 0, 81, 0
3, 9360, Note_on_c, 0, 82, 62
3, 9360, Note_on_c, 0, 74, 40
3, 9360, Note_on_c, 0, 70, 55
3, 9362, Note_on_c, 0, 67, 0
3, 9362, Note_on_c, 0, 79, 0
3, 9396, Note_on_c, 0, 79, 65
3, 9396, Note_on_c, 0, 67, 57
3, 9398, Note_on_c, 0, 70, 0
3, 9398, Note_on_c, 0, 74, 0
3, 9398, Note_on_c, 0, 82, 0
3, 9408, Note_on_c, 0, 77, 68
3, 9408, Note_on_c, 0, 72, 45
3, 9408, Note_on_c, 0, 65, 53
3, 9410, Note_on_c, 0, 67, 0
3, 9410, Note_on_c, 0, 79, 0
3, 9468, Note_on_c, 0, 76, 72
3, 9468, Note_on_c, 0, 64, 60
3, 9470, Note_on_c, 0, 65, 0
3, 9470, Note_on_c, 0, 72, 0
3, 9470, Note_on_c, 0, 77, 0
3, 9480, Note_on_c, 0, 79, 65
3, 9480, Note_on_c, 0, 67, 53
3, 9482, Note_on_c, 0, 64, 0
3, 9482, Note_on_c, 0, 76, 0
3, 9492, Note_on_c, 0, 76, 67
3, 9492, Note_on_c, 0, 64, 55
3, 9494, Note_on_c, 0, 67, 0
3, 9494, Note_on_c, 0, 79, 0
3, 9502, Note_on_c, 0, 60, 45
3, 9504, Note_on_c, 0, 72, 62
3, 9506, Note_on_c, 0, 64, 0
3, 9506, Note_on_c, 0, 76, 0
3, 9550, Note_on_c, 0, 60, 0
3, 9552, Note_on_c, 0, 72, 0
3, 9576, Note_on_c, 0, 72, 75
3, 9600, Note_on_c, 0, 65, 50
3, 9602, Note_on_c, 0, 72, 0
3, 9602, Note_on_c, 0, 77, 80
3, 9645, Note_on_c, 0, 81, 60
3, 9648, Note_on_c, 0, 65, 0
3, 9648, Note_on_c, 0, 79, 75
3, 9648, Note_on_c, 0, 67, 60
3, 9649, Note_on_c, 0, 81, 0
3, 9650, Note_on_c, 0, 77, 0
3, 9660, Note_on_c, 0, 78, 78
3, 9660, Note_on_c, 0, 66, 63
3, 9662, Note_on_c, 0, 67, 0
3, 9662, Note_on_c, 0, 79, 0
3, 9672, Note_on_c, 0, 79, 73
3, 9672, Note_on_c, 0, 67, 58
3, 9674, Note_on_c, 0, 66, 0
3, 9674, Note_on_c, 0, 78, 0
3, 9684, Note_on_c, 0, 80, 68
3, 9684, Note_on_c, 0, 68, 53
3, 9686, Note_on_c, 0, 67, 0
3, 9686, Note_on_c, 0, 79, 0
3, 9696, Note_on_c, 0, 81, 70
3, 9696, Note_on_c, 0, 69, 50
3, 9698, Note_on_c, 0, 68, 0
3, 9698, Note_on_c, 0, 80, 0
3, 9741, Note_on_c, 0, 84, 60
3, 9744, Note_on_c, 0, 69, 0
3, 9744, Note_on_c, 0, 81, 0
3, 9744, Note_on_c, 0, 82, 72
3, 9744, Note_on_c, 0, 70, 52
3, 9745, Note_on_c, 0, 84, 0
3, 9756, Note_on_c, 0, 81, 75
3, 9756, Note_on_c, 0, 69, 55
3, 9758, Note_on_c, 0, 70, 0
3, 9758, Note_on_c, 0, 82, 0
3, 9768, Note_on_c, 0, 82, 70
3, 9768, Note_on_c, 0, 70, 57
3, 9770, Note_on_c, 0, 69, 0
3, 9770, Note_on_c, 0, 81, 0
3, 9780, Note_on_c, 0, 86, 65
3, 9780, Note_on_c, 0, 74, 52
3, 9782, Note_on_c, 0, 70, 0
3, 9782, Note_on_c, 0, 82, 0
3, 9792, Note_on_c, 0, 81, 68
3, 9792, Note_on_c, 0, 77, 40
3, 9792, Note_on_c, 0, 69, 55
3, 9794, Note_on_c, 0, 74, 0
3, 9794, Note_on_c, 0, 86, 0
3, 9852, Note_on_c, 0, 82, 70
3, 9852, Note_on_c, 0, 70, 57
3, 9854, Note_on_c, 0, 69, 0
3, 9854, Note_on_c, 0, 77, 0
3, 9854, Note_on_c, 0, 81, 0
3, 9864, Note_on_c, 0, 83, 65
3, 9864, Note_on_c, 0, 71, 52
3, 9866, Note_on_c, 0, 70, 0
3, 9866, Note_on_c, 0, 82, 0
3, 9876, Note_on_c, 0, 84, 63
3, 9876, Note_on_c, 0, 72, 51
3, 9878, Note_on_c, 0, 71, 0
3, 9878, Note_on_c, 0, 83, 0
3, 9888, Note_on_c, 0, 79, 60
3, 9888, Note_on_c, 0, 76, 32
3, 9888, Note_on_c, 0, 67, 50
3, 9890, Note_on_c, 0, 72, 0
3, 9890, Note_on_c, 0, 84, 0
3, 9936, Note_on_c, 0, 67, 0
3, 9936, Note_on_c, 0, 76, 0
3, 9936, Note_on_c, 0, 79, 0
3, 9960, Note_on_c, 0, 72, 80
3, 9984, Note_on_c, 0, 72, 0
3, 9984, Note_on_c, 0, 82, 90
3, 9984, Note_on_c, 0, 79, 75
3, 9984, Note_on_c, 0, 76, 82
3, 9984, Note_on_c, 0, 72, 65
3, 10056, Note_on_c, 0, 79, 0
3, 10056, Note_on_c, 0, 79, 85
3, 10058, Note_on_c, 0, 72, 0
3, 10058, Note_on_c, 0, 76, 0
3, 10058, Note_on_c, 0, 82, 0
3, 10061, Note_on_c, 0, 81, 70
3, 10063, Note_on_c, 0, 79, 0
3, 10064, Note_on_c, 0, 79, 60
3, 10065, Note_on_c, 0, 81, 0
3, 10067, Note_on_c, 0, 81, 63
3, 10068, Note_on_c, 0, 79, 0
3, 10070, Note_on_c, 0, 79, 66
3, 10071, Note_on_c, 0, 81, 0
3, 10073, Note_on_c, 0, 78, 68
3, 10074, Note_on_c, 0, 79, 0
3, 10076, Note_on_c, 0, 79, 70
3, 10077, Note_on_c, 0, 78, 0
3, 10080, Note_on_c, 0, 79, 0
3, 10080, Note_on_c, 0, 76, 85
3, 10080, Note_on_c, 0, 72, 70
3, 10090, Note_on_c, 0, 72, 0
3, 10090, Note_on_c, 0, 76, 0
3, 10104, Note_on_c, 0, 77, 82
3, 10104, Note_on_c, 0, 65, 68
3, 10128, Note_on_c, 0, 76, 85
3, 10128, Note_on_c, 0, 64, 70
3, 10130, Note_on_c, 0, 65, 0
3, 10130, Note_on_c, 0, 77, 0
3, 10152, Note_on_c, 0, 77, 80
3, 10152, Note_on_c, 0, 65, 65
3, 10154, Note_on_c, 0, 64, 0
3, 10154, Note_on_c, 0, 76, 0
3, 10176, Note_on_c, 0, 82, 85
3, 10176, Note_on_c, 0, 79, 60
3, 10176, Note_on_c, 0, 76, 77
3, 10176, Note_on_c, 0, 72, 65
3, 10178, Note_on_c, 0, 65, 0
3, 10178, Note_on_c, 0, 77, 0
3, 10248, Note_on_c, 0, 79, 0
3, 10248, Note_on_c, 0, 79, 80
3, 10250, Note_on_c, 0, 72, 0
3, 10250, Note_on_c, 0, 76, 0
3, 10250, Note_on_c, 0, 82, 0
3, 10253, Note_on_c, 0, 81, 68
3, 10255, Note_on_c, 0, 79, 0
3, 10256, Note_on_c, 0, 79, 60
3, 10257, Note_on_c, 0, 81, 0
3, 10259, Note_on_c, 0, 81, 62
3, 10260, Note_on_c, 0, 79, 0
3, 10262, Note_on_c, 0, 79, 64
3, 10263, Note_on_c, 0, 81, 0
3, 10265, Note_on_c, 0, 78, 66
3, 10266, Note_on_c, 0, 79, 0
3, 10268, Note_on_c, 0, 79, 68
3, 10269, Note_on_c, 0, 78, 0
3, 10272, Note_on_c, 0, 76, 80
3, 10272, Note_on_c, 0, 72, 60
3, 10273, Note_on_c, 0, 79, 0
3, 10284, Note_on_c, 0, 72, 0
3, 10284, Note_on_c, 0, 76, 0
3, 10296, Note_on_c, 0, 84, 67
3, 10296, Note_on_c, 0, 77, 45
3, 10296, Note_on_c, 0, 72, 53
3, 10320, Note_on_c, 0, 77, 0
3, 10320, Note_on_c, 0, 83, 75
3, 10320, Note_on_c, 0, 77, 48
3, 10320, Note_on_c, 0, 71, 60
3, 10322, Note_on_c, 0, 72, 0
3, 10322, Note_on_c, 0, 84, 0
3, 10344, Note_on_c, 0, 77, 0
3, 10344, Note_on_c, 0, 84, 71
3, 10344, Note_on_c, 0, 77, 43
3, 10344, Note_on_c, 0, 72, 56
3, 10346, Note_on_c, 0, 71, 0
3, 10346, Note_on_c, 0, 83, 0
3, 10368, Note_on_c, 0, 77, 0
3, 10368, Note_on_c, 0, 86, 65
3, 10368, Note_on_c, 0, 77, 40
3, 10368, Note_on_c, 0, 74, 50
3, 10370, Note_on_c, 0, 72, 0
3, 10370, Note_on_c, 0, 84, 0
3, 10426, Note_on_c, 0, 74, 0
3, 10426, Note_on_c, 0, 77, 0
3, 10426, Note_on_c, 0, 86, 0
3, 10428, Note_on_c, 0, 86, 70
3, 10428, Note_on_c, 0, 74, 55
3, 10434, Note_on_c, 0, 74, 0
3, 10434, Note_on_c, 0, 86, 0
3, 10440, Note_on_c, 0, 88, 63
3, 10440, Note_on_c, 0, 76, 52
3, 10445, Note_on_c, 0, 76, 0
3, 10445, Note_on_c, 0, 88, 0
3, 10452, Note_on_c, 0, 89, 60
3, 10452, Note_on_c, 0, 77, 50
3, 10458, Note_on_c, 0, 77, 0
3, 10458, Note_on_c, 0, 89, 0
3, 10464, Note_on_c, 0, 77, 65
3, 10464, Note_on_c, 0, 65, 60
3, 10512, Note_on_c, 0, 81, 68
3, 10512, Note_on_c, 0, 69, 55
3, 10514, Note_on_c, 0, 65, 0
3, 10514, Note_on_c, 0, 77, 0
3, 10548, Note_on_c, 0, 79, 62
3, 10548, Note_on_c, 0, 67, 47
3, 10550, Note_on_c, 0, 69, 0
3, 10550, Note_on_c, 0, 81, 0
3, 10560, Note_on_c, 0, 67, 0
3, 10560, Note_on_c, 0, 79, 0
3, 10560, Note_on_c, 0, 77, 60
3, 10560, Note_on_c, 0, 65, 43
3, 10600, Note_on_c, 0, 65, 0
3, 10600, Note_on_c, 0, 77, 0
3, 10608, Note_on_c, 0, 69, 100
3, 10650, Note_on_c, 0, 69, 0
3, 10650, Note_on_c, 0, 69, 95
3, 10656, Note_on_c, 0, 62, 105
3, 10658, Note_on_c, 0, 69, 0
3, 10696, Note_on_c, 0, 62, 0
3, 10704, Note_on_c, 0, 86, 100
3, 10704, Note_on_c, 0, 74, 80
3, 10746, Note_on_c, 0, 74, 0
3, 10746, Note_on_c, 0, 86, 0
3, 10746, Note_on_c, 0, 86, 95
3, 10746, Note_on_c, 0, 74, 78
3, 10752, Note_on_c, 0, 79, 105
3, 10752, Note_on_c, 0, 67, 75
3, 10754, Note_on_c, 0, 74, 0
3, 10754, Note_on_c, 0, 86, 0
3, 10792, Note_on_c, 0, 67, 0
3, 10792, Note_on_c, 0, 79, 0
3, 10800, Note_on_c, 0, 82, 100
3, 10800, Note_on_c, 0, 70, 80
3, 10842, Note_on_c, 0, 70, 0
3, 10842, Note_on_c, 0, 82, 0
3, 10842, Note_on_c, 0, 82, 95
3, 10842, Note_on_c, 0, 70, 75
3, 10848, Note_on_c, 0, 82, 0
3, 10848, Note_on_c, 0, 88, 105
3, 10848, Note_on_c, 0, 82, 60
3, 10848, Note_on_c, 0, 76, 80
3, 10850, Note_on_c, 0, 70, 0
3, 10888, Note_on_c, 0, 76, 0
3, 10888, Note_on_c, 0, 82, 0
3, 10888, Note_on_c, 0, 88, 0
3, 10896, Note_on_c, 0, 89, 95
3, 10896, Note_on_c, 0, 80, 58
3, 10896, Note_on_c, 0, 77, 70
3, 10932, Note_on_c, 0, 77, 0
3, 10932, Note_on_c, 0, 80, 0
3, 10932, Note_on_c, 0, 89, 0
3, 10944, Note_on_c, 0, 79, 80
3, 10944, Note_on_c, 0, 77, 65
3, 10944, Note_on_c, 0, 73, 45
3, 10944, Note_on_c, 0, 67, 70
3, 10992, Note_on_c, 0, 74, 45
3, 10994, Note_on_c, 0, 73, 0
3, 11004, Note_on_c, 0, 80, 82
3, 11004, Note_on_c, 0, 68, 68
3, 11006, Note_on_c, 0, 67, 0
3, 11006, Note_on_c, 0, 74, 0
3, 11006, Note_on_c, 0, 77, 0
3, 11006, Note_on_c, 0, 79, 0
3, 11016, Note_on_c, 0, 82, 76
3, 11016, Note_on_c, 0, 70, 66
3, 11018, Note_on_c, 0, 68, 0
3, 11018, Note_on_c, 0, 80, 0
3, 11028, Note_on_c, 0, 85, 73
3, 11028, Note_on_c, 0, 73, 64
3, 11030, Note_on_c, 0, 70, 0
3, 11030, Note_on_c, 0, 82, 0
3, 11038, Note_on_c, 0, 73, 0
3, 11038, Note_on_c, 0, 85, 0
3, 11040, Note_on_c, 0, 85, 68
3, 11040, Note_on_c, 0, 73, 60
3, 11052, Note_on_c, 0, 84, 72
3, 11052, Note_on_c, 0, 72, 62
3, 11054, Note_on_c, 0, 73, 0
3, 11054, Note_on_c, 0, 85, 0
3, 11064, Note_on_c, 0, 82, 75
3, 11064, Note_on_c, 0, 70, 64
3, 11066, Note_on_c, 0, 72, 0
3, 11066, Note_on_c, 0, 84, 0
3, 11076, Note_on_c, 0, 80, 77
3, 11076, Note_on_c, 0, 68, 66
3, 11078, Note_on_c, 0, 70, 0
3, 11078, Note_on_c, 0, 82, 0
3, 11086, Note_on_c, 0, 68, 0
3, 11086, Note_on_c, 0, 80, 0
3, 11088, Note_on_c, 0, 80, 74
3, 11088, Note_on_c, 0, 68, 63
3, 11100, Note_on_c, 0, 79, 76
3, 11100, Note_on_c, 0, 67, 65
3, 11102, Note_on_c, 0, 68, 0
3, 11102, Note_on_c, 0, 80, 0
3, 11112, Note_on_c, 0, 82, 72
3, 11112, Note_on_c, 0, 70, 58
3, 11114, Note_on_c, 0, 67, 0
3, 11114, Note_on_c, 0, 79, 0
3, 11124, Note_on_c, 0, 76, 75
3, 11124, Note_on_c, 0, 64, 60
3, 11126, Note_on_c, 0, 70, 0
3, 11126, Note_on_c, 0, 82, 0
3, 11133, Note_on_c, 0, 77, 90
3, 11136, Note_on_c, 0, 89, 115
3, 11138, Note_on_c, 0, 64, 0
3, 11138, Note_on_c, 0, 76, 0
3, 11229, Note_on_c, 0, 77, 0
3, 11232, Note_on_c, 0, 84, 70
3, 11232, Note_on_c, 0, 72, 55
3, 11234, Note_on_c, 0, 89, 0
3, 11304, Note_on_c, 0, 80, 60
3, 11304, Note_on_c, 0, 68, 45
3, 11306, Note_on_c, 0, 72, 0
3, 11306, Note_on_c, 0, 84, 0
3, 11316, Note_on_c, 0, 77, 62
3, 11316, Note_on_c, 0, 65, 48
3, 11318, Note_on_c, 0, 68, 0
3, 11318, Note_on_c, 0, 80, 0
3, 11328, Note_on_c, 0, 76, 65
3, 11328, Note_on_c, 0, 64, 50
3, 11330, Note_on_c, 0, 65, 0
3, 11330, Note_on_c, 0, 77, 0
3, 11364, Note_on_c, 0, 77, 62
3, 11364, Note_on_c, 0, 65, 48
3, 11366, Note_on_c, 0, 64, 0
3, 11366, Note_on_c, 0, 76, 0
3, 11374, Note_on_c, 0, 65, 0
3, 11374, Note_on_c, 0, 77, 0
3, 11376, Note_on_c, 0, 79, 67
3, 11376, Note_on_c, 0, 67, 52
3, 11412, Note_on_c, 0, 80, 72
3, 11412, Note_on_c, 0, 68, 58
3, 11414, Note_on_c, 0, 67, 0
3, 11414, Note_on_c, 0, 79, 0
3, 11422, Note_on_c, 0, 68, 0
3, 11422, Note_on_c, 0, 80, 0
3, 11424, Note_on_c, 0, 82, 77
3, 11424, Note_on_c, 0, 70, 62
3, 11460, Note_on_c, 0, 84, 87
3, 11460, Note_on_c, 0, 72, 73
3, 11462, Note_on_c, 0, 70, 0
3, 11462, Note_on_c, 0, 82, 0
3, 11470, Note_on_c, 0, 72, 0
3, 11470, Note_on_c, 0, 84, 0
3, 11472, Note_on_c, 0, 85, 84
3, 11472, Note_on_c, 0, 73, 69
3, 11508, Note_on_c, 0, 76, 79
3, 11508, Note_on_c, 0, 64, 65
3, 11510, Note_on_c, 0, 73, 0
3, 11510, Note_on_c, 0, 85, 0
3, 11517, Note_on_c, 0, 65, 70
3, 11518, Note_on_c, 0, 64, 0
3, 11518, Note_on_c, 0, 76, 0
3, 11520, Note_on_c, 0, 77, 85
3, 11522, Note_on_c, 0, 65, 0
3, 11568, Note_on_c, 0, 65, 78
3, 11570, Note_on_c, 0, 77, 0
3, 11614, Note_on_c, 0, 68, 60
3, 11616, Note_on_c, 0, 72, 66
3, 11617, Note_on_c, 0, 80, 82
3, 11618, Note_on_c, 0, 65, 0
3, 11674, Note_on_c, 0, 68, 0
3, 11674, Note_on_c, 0, 72, 0
3, 11674, Note_on_c, 0, 80, 0
3, 11676, Note_on_c, 0, 79, 90
3, 11682, Note_on_c, 0, 80, 87
3, 11684, Note_on_c, 0, 79, 0
3, 11688, Note_on_c, 0, 82, 82
3, 11690, Note_on_c, 0, 80, 0
3, 11694, Note_on_c, 0, 82, 0
3, 11700, Note_on_c, 0, 80, 85
3, 11706, Note_on_c, 0, 80, 0
3, 11710, Note_on_c, 0, 68, 60
3, 11712, Note_on_c, 0, 72, 68
3, 11714, Note_on_c, 0, 68, 0
3, 11714, Note_on_c, 0, 78, 85
3, 11716, Note_on_c, 0, 72, 0
3, 11718, Note_on_c, 0, 78, 0
3, 11721, Note_on_c, 0, 77, 88
3, 11724, Note_on_c, 0, 77, 0
3, 11728, Note_on_c, 0, 78, 84
3, 11731, Note_on_c, 0, 78, 0
3, 11736, Note_on_c, 0, 82, 80
3, 11739, Note_on_c, 0, 82, 0
3, 11744, Note_on_c, 0, 80, 76
3, 11747, Note_on_c, 0, 80, 0
3, 11752, Note_on_c, 0, 78, 73
3, 11755, Note_on_c, 0, 78, 0
3, 11760, Note_on_c, 0, 77, 76
3, 11763, Note_on_c, 0, 77, 0
3, 11768, Note_on_c, 0, 75, 78
3, 11771, Note_on_c, 0, 75, 0
3, 11776, Note_on_c, 0, 73, 80
3, 11779, Note_on_c, 0, 73, 0
3, 11784, Note_on_c, 0, 72, 77
3, 11787, Note_on_c, 0, 72, 0
3, 11792, Note_on_c, 0, 70, 74
3, 11795, Note_on_c, 0, 70, 0
3, 11800, Note_on_c, 0, 68, 68
3, 11803, Note_on_c, 0, 68, 0
3, 11808, Note_on_c, 0, 67, 70
3, 11811, Note_on_c, 0, 67, 0
3, 11816, Note_on_c, 0, 68, 72
3, 11819, Note_on_c, 0, 68, 0
3, 11824, Note_on_c, 0, 70, 74
3, 11827, Note_on_c, 0, 70, 0
3, 11832, Note_on_c, 0, 72, 76
3, 11835, Note_on_c, 0, 72, 0
3, 11840, Note_on_c, 0, 73, 76
3, 11843, Note_on_c, 0, 73, 0
3, 11848, Note_on_c, 0, 75, 73
3, 11851, Note_on_c, 0, 75, 0
3, 11856, Note_on_c, 0, 77, 70
3, 11859, Note_on_c, 0, 77, 0
3, 11864, Note_on_c, 0, 78, 67
3, 11867, Note_on_c, 0, 78, 0
3, 11872, Note_on_c, 0, 75, 69
3, 11875, Note_on_c, 0, 75, 0
3, 11880, Note_on_c, 0, 72, 71
3, 11883, Note_on_c, 0, 72, 0
3, 11888, Note_on_c, 0, 68, 73
3, 11891, Note_on_c, 0, 68, 0
3, 11896, Note_on_c, 0, 66, 75
3, 11899, Note_on_c, 0, 66, 0
3, 11904, Note_on_c, 0, 65, 78
3, 11907, Note_on_c, 0, 65, 0
3, 11913, Note_on_c, 0, 61, 76
3, 11916, Note_on_c, 0, 61, 0
3, 11920, Note_on_c, 0, 63, 74
3, 11923, Note_on_c, 0, 63, 0
3, 11928, Note_on_c, 0, 65, 72
3, 11931, Note_on_c, 0, 65, 0
3, 11936, Note_on_c, 0, 66, 70
3, 11939, Note_on_c, 0, 66, 0
3, 11944, Note_on_c, 0, 68, 68
3, 11947, Note_on_c, 0, 68, 0
3, 11952, Note_on_c, 0, 70, 71
3, 11955, Note_on_c, 0, 70, 0
3, 11960, Note_on_c, 0, 72, 74
3, 11963, Note_on_c, 0, 72, 0
3, 11968, Note_on_c, 0, 73, 76
3, 11971, Note_on_c, 0, 73, 0
3, 11976, Note_on_c, 0, 75, 77
3, 11979, Note_on_c, 0, 75, 0
3, 11984, Note_on_c, 0, 77, 78
3, 11987, Note_on_c, 0, 77, 0
3, 11992, Note_on_c, 0, 78, 79
3, 11995, Note_on_c, 0, 78, 0
3, 12000, Note_on_c, 0, 80, 80
3, 12003, Note_on_c, 0, 80, 0
3, 12008, Note_on_c, 0, 82, 77
3, 12011, Note_on_c, 0, 82, 0
3, 12016, Note_on_c, 0, 84, 74
3, 12019, Note_on_c, 0, 84, 0
3, 12024, Note_on_c, 0, 85, 71
3, 12027, Note_on_c, 0, 85, 0
3, 12032, Note_on_c, 0, 87, 68
3, 12035, Note_on_c, 0, 87, 0
3, 12040, Note_on_c, 0, 88, 65
3, 12043, Note_on_c, 0, 88, 0
3, 12048, Note_on_c, 0, 89, 60
3, 12060, Note_on_c, 0, 89, 0
3, 12072, Note_on_c, 0, 57, 80
3, 12082, Note_on_c, 0, 57, 0
3, 12096, Note_on_c, 0, 58, 72
3, 12110, Note_on_c, 0, 58, 0
3, 12120, Note_on_c, 0, 82, 70
3, 12123, Note_on_c, 0, 82, 0
3, 12129, Note_on_c, 0, 81, 66
3, 12132, Note_on_c, 0, 81, 0
3, 12136, Note_on_c, 0, 82, 60
3, 12139, Note_on_c, 0, 82, 0
3, 12144, Note_on_c, 0, 75, 72
3, 12147, Note_on_c, 0, 75, 0
3, 12152, Note_on_c, 0, 74, 68
3, 12155, Note_on_c, 0, 74, 0
3, 12160, Note_on_c, 0, 75, 62
3, 12163, Note_on_c, 0, 75, 0
3, 12168, Note_on_c, 0, 78, 67
3, 12171, Note_on_c, 0, 78, 0
3, 12176, Note_on_c, 0, 77, 63
3, 12179, Note_on_c, 0, 77, 0
3, 12184, Note_on_c, 0, 78, 57
3, 12187, Note_on_c, 0, 78, 0
3, 12192, Note_on_c, 0, 72, 69
3, 12195, Note_on_c, 0, 72, 0
3, 12200, Note_on_c, 0, 71, 65
3, 12203, Note_on_c, 0, 71, 0
3, 12208, Note_on_c, 0, 72, 59
3, 12211, Note_on_c, 0, 72, 0
3, 12216, Note_on_c, 0, 75, 63
3, 12219, Note_on_c, 0, 75, 0
3, 12224, Note_on_c, 0, 74, 69
3, 12227, Note_on_c, 0, 74, 0
3, 12232, Note_on_c, 0, 75, 63
3, 12235, Note_on_c, 0, 75, 0
3, 12240, Note_on_c, 0, 66, 60
3, 12243, Note_on_c, 0, 66, 0
3, 12248, Note_on_c, 0, 70, 55
3, 12251, Note_on_c, 0, 70, 0
3, 12256, Note_on_c, 0, 68, 57
3, 12259, Note_on_c, 0, 68, 0
3, 12264, Note_on_c, 0, 66, 59
3, 12267, Note_on_c, 0, 66, 0
3, 12272, Note_on_c, 0, 65, 53
3, 12275, Note_on_c, 0, 65, 0
3, 12279, Note_on_c, 0, 63, 50
3, 12282, Note_on_c, 0, 63, 0
3, 12284, Note_on_c, 0, 53, 50
3, 12286, Note_on_c, 0, 56, 54
3, 12288, Note_on_c, 0, 53, 0
3, 12288, Note_on_c, 0, 61, 60
3, 12290, Note_on_c, 0, 56, 0
3, 12384, Note_on_c, 0, 65, 55
3, 12386, Note_on_c, 0, 61, 0
3, 12426, Note_on_c, 0, 63, 58
3, 12428, Note_on_c, 0, 65, 0
3, 12432, Note_on_c, 0, 66, 52
3, 12434, Note_on_c, 0, 63, 0
3, 12474, Note_on_c, 0, 63, 55
3, 12476, Note_on_c, 0, 66, 0
3, 12480, Note_on_c, 0, 61, 58
3, 12482, Note_on_c, 0, 63, 0
3, 12540, Note_on_c, 0, 60, 62
3, 12542, Note_on_c, 0, 61, 0
3, 12552, Note_on_c, 0, 63, 55
3, 12554, Note_on_c, 0, 60, 0
3, 12564, Note_on_c, 0, 60, 57
3, 12566, Note_on_c, 0, 63, 0
3, 12576, Note_on_c, 0, 56, 52
3, 12578, Note_on_c, 0, 60, 0
3, 12596, Note_on_c, 0, 56, 0
3, 12624, Note_on_c, 0, 75, 70
3, 12624, Note_on_c, 0, 63, 55
3, 12722, Note_on_c, 0, 63, 0
3, 12732, Note_on_c, 0, 74, 72
3, 12734, Note_on_c, 0, 75, 0
3, 12744, Note_on_c, 0, 77, 65
3, 12746, Note_on_c, 0, 74, 0
3, 12756, Note_on_c, 0, 74, 68
3, 12758, Note_on_c, 0, 77, 0
3, 12768, Note_on_c, 0, 70, 70
3, 12768, Note_on_c, 0, 63, 60
3, 12770, Note_on_c, 0, 74, 0
3, 12780, Note_on_c, 0, 62, 65
3, 12782, Note_on_c, 0, 63, 0
3, 12792, Note_on_c, 0, 65, 55
3, 12794, Note_on_c, 0, 62, 0
3, 12804, Note_on_c, 0, 62, 58
3, 12806, Note_on_c, 0, 65, 0
3, 12810, Note_on_c, 0, 70, 0
3, 12816, Note_on_c, 0, 77, 80
3, 12816, Note_on_c, 0, 65, 65
3, 12818, Note_on_c, 0, 62, 0
3, 12914, Note_on_c, 0, 65, 0
3, 12924, Note_on_c, 0, 76, 82
3, 12926, Note_on_c, 0, 77, 0
3, 12936, Note_on_c, 0, 79, 75
3, 12938, Note_on_c, 0, 76, 0
3, 12948, Note_on_c, 0, 76, 78
3, 12950, Note_on_c, 0, 79, 0
3, 12960, Note_on_c, 0, 72, 80
3, 12960, Note_on_c, 0, 65, 70
3, 12962, Note_on_c, 0, 76, 0
3, 12972, Note_on_c, 0, 64, 75
3, 12974, Note_on_c, 0, 65, 0
3, 12984, Note_on_c, 0, 67, 65
3, 12986, Note_on_c, 0, 64, 0
3, 12996, Note_on_c, 0, 64, 68
3, 12998, Note_on_c, 0, 67, 0
3, 13002, Note_on_c, 0, 72, 0
3, 13008, Note_on_c, 0, 64, 0
3, 13008, Note_on_c, 0, 72, 70
3, 13008, Note_on_c, 0, 64, 60
3, 13008, Note_on_c, 0, 60, 55
3, 13028, Note_on_c, 0, 60, 0
3, 13028, Note_on_c, 0, 72, 0
3, 13032, Note_on_c, 0, 72, 100
3, 13032, Note_on_c, 0, 60, 75
3, 13056, Note_on_c, 0, 72, 0
3, 13056, Note_on_c, 0, 64, 0
3, 13056, Note_on_c, 0, 84, 105
3, 13056, Note_on_c, 0, 77, 70
3, 13056, Note_on_c, 0, 72, 95
3, 13058, Note_on_c, 0, 60, 0
3, 13116, Note_on_c, 0, 80, 97
3, 13116, Note_on_c, 0, 68, 77
3, 13118, Note_on_c, 0, 72, 0
3, 13118, Note_on_c, 0, 77, 0
3, 13118, Note_on_c, 0, 84, 0
3, 13128, Note_on_c, 0, 84, 90
3, 13128, Note_on_c, 0, 72, 70
3, 13130, Note_on_c, 0, 68, 0
3, 13130, Note_on_c, 0, 80, 0
3, 13140, Note_on_c, 0, 80, 86
3, 13140, Note_on_c, 0, 68, 66
3, 13142, Note_on_c, 0, 72, 0
3, 13142, Note_on_c, 0, 84, 0
3, 13152, Note_on_c, 0, 79, 90
3, 13152, Note_on_c, 0, 67, 70
3, 13154, Note_on_c, 0, 68, 0
3, 13154, Note_on_c, 0, 80, 0
3, 13164, Note_on_c, 0, 77, 93
3, 13164, Note_on_c, 0, 65, 73
3, 13166, Note_on_c, 0, 67, 0
3, 13166, Note_on_c, 0, 79, 0
3, 13176, Note_on_c, 0, 80, 96
3, 13176, Note_on_c, 0, 68, 76
3, 13178, Note_on_c, 0, 65, 0
3, 13178, Note_on_c, 0, 77, 0
3, 13188, Note_on_c, 0, 77, 99
3, 13188, Note_on_c, 0, 65, 79
3, 13190, Note_on_c, 0, 68, 0
3, 13190, Note_on_c, 0, 80, 0
3, 13200, Note_on_c, 0, 75, 102
3, 13200, Note_on_c, 0, 63, 82
3, 13202, Note_on_c, 0, 65, 0
3, 13202, Note_on_c, 0, 77, 0
3, 13212, Note_on_c, 0, 73, 105
3, 13212, Note_on_c, 0, 61, 85
3, 13214, Note_on_c, 0, 63, 0
3, 13214, Note_on_c, 0, 75, 0
3, 13224, Note_on_c, 0, 72, 108
3, 13224, Note_on_c, 0, 60, 88
3, 13226, Note_on_c, 0, 61, 0
3, 13226, Note_on_c, 0, 73, 0
3, 13236, Note_on_c, 0, 71, 111
3, 13236, Note_on_c, 0, 59, 91
3, 13238, Note_on_c, 0, 60, 0
3, 13238, Note_on_c, 0, 72, 0
3, 13248, Note_on_c, 0, 72, 115
3, 13248, Note_on_c, 0, 60, 95
3, 13250, Note_on_c, 0, 59, 0
3, 13250, Note_on_c, 0, 71, 0
3, 13254, Note_on_c, 0, 60, 0
3, 13254, Note_on_c, 0, 72, 0
3, 13260, Note_on_c, 0, 55, 120
3, 13264, Note_on_c, 0, 55, 0
3, 13272, Note_on_c, 0, 60, 115
3, 13276, Note_on_c, 0, 60, 0
3, 13284, Note_on_c, 0, 64, 111
3, 13288, Note_on_c, 0, 64, 0
3, 13296, Note_on_c, 0, 67, 118
3, 13300, Note_on_c, 0, 67, 0
3, 13308, Note_on_c, 0, 64, 107
3, 13312, Note_on_c, 0, 64, 0
3, 13320, Note_on_c, 0, 67, 110
3, 13324, Note_on_c, 0, 67, 0
3, 13332, Note_on_c, 0, 64, 98
3, 13336, Note_on_c, 0, 64, 0
3, 13344, Note_on_c, 0, 72, 100
3, 13344, Note_on_c, 0, 60, 90
3, 13350, Note_on_c, 0, 60, 0
3, 13350, Note_on_c, 0, 72, 0
3, 13356, Note_on_c, 0, 67, 110
3, 13360, Note_on_c, 0, 67, 0
3, 13368, Note_on_c, 0, 72, 105
3, 13372, Note_on_c, 0, 72, 0
3, 13380, Note_on_c, 0, 76, 101
3, 13384, Note_on_c, 0, 76, 0
3, 13392, Note_on_c, 0, 79, 108
3, 13396, Note_on_c, 0, 79, 0
3, 13404, Note_on_c, 0, 76, 97
3, 13408, Note_on_c, 0, 76, 0
3, 13416, Note_on_c, 0, 79, 100
3, 13420, Note_on_c, 0, 79, 0
3, 13428, Note_on_c, 0, 76, 88
3, 13432, Note_on_c, 0, 76, 0
3, 13440, Note_on_c, 0, 72, 90
3, 13446, Note_on_c, 0, 72, 0
3, 13452, Note_on_c, 0, 60, 115
3, 13456, Note_on_c, 0, 60, 0
3, 13464, Note_on_c, 0, 64, 110
3, 13468, Note_on_c, 0, 64, 0
3, 13476, Note_on_c, 0, 67, 106
3, 13480, Note_on_c, 0, 67, 0
3, 13488, Note_on_c, 0, 72, 113
3, 13492, Note_on_c, 0, 72, 0
3, 13500, Note_on_c, 0, 67, 102
3, 13504, Note_on_c, 0, 67, 0
3, 13512, Note_on_c, 0, 72, 105
3, 13516, Note_on_c, 0, 72, 0
3, 13524, Note_on_c, 0, 67, 93
3, 13528, Note_on_c, 0, 67, 0
3, 13536, Note_on_c, 0, 79, 95
3, 13542, Note_on_c, 0, 79, 0
3, 13548, Note_on_c, 0, 72, 105
3, 13552, Note_on_c, 0, 72, 0
3, 13560, Note_on_c, 0, 76, 100
3, 13564, Note_on_c, 0, 76, 0
3, 13572, Note_on_c, 0, 79, 96
3, 13576, Note_on_c, 0, 79, 0
3, 13584, Note_on_c, 0, 84, 103
3, 13588, Note_on_c, 0, 84, 0
3, 13596, Note_on_c, 0, 79, 92
3, 13600, Note_on_c, 0, 79, 0
3, 13608, Note_on_c, 0, 84, 95
3, 13612, Note_on_c, 0, 84, 0
3, 13620, Note_on_c, 0, 79, 83
3, 13624, Note_on_c, 0, 79, 0
3, 13632, Note_on_c, 0, 76, 85
3, 13638, Note_on_c, 0, 76, 0
3, 13644, Note_on_c, 0, 64, 105
3, 13648, Note_on_c, 0, 64, 0
3, 13656, Note_on_c, 0, 67, 100
3, 13660, Note_on_c, 0, 67, 0
3, 13668, Note_on_c, 0, 72, 96
3, 13672, Note_on_c, 0, 72, 0
3, 13680, Note_on_c, 0, 76, 103
3, 13684, Note_on_c, 0, 76, 0
3, 13692, Note_on_c, 0, 72, 92
3, 13696, Note_on_c, 0, 72, 0
3, 13704, Note_on_c, 0, 76, 95
3, 13708, Note_on_c, 0, 76, 0
3, 13716, Note_on_c, 0, 72, 83
3, 13720, Note_on_c, 0, 72, 0
3, 13728, Note_on_c, 0, 76, 85
3, 13734, Note_on_c, 0, 76, 0
3, 13740, Note_on_c, 0, 67, 95
3, 13744, Note_on_c, 0, 67, 0
3, 13752, Note_on_c, 0, 72, 90
3, 13756, Note_on_c, 0, 72, 0
3, 13764, Note_on_c, 0, 76, 86
3, 13768, Note_on_c, 0, 76, 0
3, 13776, Note_on_c, 0, 79, 93
3, 13780, Note_on_c, 0, 79, 0
3, 13788, Note_on_c, 0, 76, 82
3, 13792, Note_on_c, 0, 76, 0
3, 13800, Note_on_c, 0, 79, 85
3, 13804, Note_on_c, 0, 79, 0
3, 13812, Note_on_c, 0, 76, 73
3, 13816, Note_on_c, 0, 76, 0
3, 13824, Note_on_c, 0, 84, 75
3, 13824, Note_on_c, 0, 72, 65
3, 13830, Note_on_c, 0, 72, 0
3, 13830, Note_on_c, 0, 84, 0
3, 13836, Note_on_c, 0, 76, 90
3, 13840, Note_on_c, 0, 76, 0
3, 13848, Note_on_c, 0, 79, 85
3, 13852, Note_on_c, 0, 79, 0
3, 13860, Note_on_c, 0, 84, 81
3, 13864, Note_on_c, 0, 84, 0
3, 13872, Note_on_c, 0, 88, 88
3, 13876, Note_on_c, 0, 88, 0
3, 13884, Note_on_c, 0, 84, 77
3, 13888, Note_on_c, 0, 84, 0
3, 13896, Note_on_c, 0, 88, 80
3, 13900, Note_on_c, 0, 88, 0
3, 13908, Note_on_c, 0, 84, 68
3, 13912, Note_on_c, 0, 84, 0
3, 13920, Note_on_c, 0, 88, 70
3, 13926, Note_on_c, 0, 88, 0
3, 13932, Note_on_c, 0, 79, 80
3, 13936, Note_on_c, 0, 79, 0
3, 13944, Note_on_c, 0, 84, 75
3, 13948, Note_on_c, 0, 84, 0
3, 13956, Note_on_c, 0, 88, 71
3, 13960, Note_on_c, 0, 88, 0
3, 13968, Note_on_c, 0, 91, 78
3, 13972, Note_on_c, 0, 91, 0
3, 13980, Note_on_c, 0, 88, 67
3, 13984, Note_on_c, 0, 88, 0
3, 13992, Note_on_c, 0, 91, 70
3, 13996, Note_on_c, 0, 91, 0
3, 14004, Note_on_c, 0, 88, 58
3, 14008, Note_on_c, 0, 88, 0
3, 14016, Note_on_c, 0, 84, 60
3, 14040, Note_on_c, 0, 84, 0
3, 14064, Note_on_c, 0, 67, 58
3, 14070, Note_on_c, 0, 67, 0
3, 14076, Note_on_c, 0, 64, 47
3, 14080, Note_on_c, 0, 64, 0
3, 14088, Note_on_c, 0, 67, 50
3, 14092, Note_on_c, 0, 67, 0
3, 14100, Note_on_c, 0, 64, 38
3, 14104, Note_on_c, 0, 64, 0
3, 14112, Note_on_c, 0, 60, 40
3, 14160, Note_on_c, 0, 60, 0
3, 14208, Note_on_c, 0, 79, 38
3, 14214, Note_on_c, 0, 79, 0
3, 14220, Note_on_c, 0, 76, 27
3, 14224, Note_on_c, 0, 76, 0
3, 14232, Note_on_c, 0, 79, 30
3, 14236, Note_on_c, 0, 79, 0
3, 14244, Note_on_c, 0, 76, 20
3, 14248, Note_on_c, 0, 76, 0
3, 14256, Note_on_c, 0, 79, 33
3, 14260, Note_on_c, 0, 79, 0
3, 14268, Note_on_c, 0, 76, 22
3, 14272, Note_on_c, 0, 76, 0
3, 14280, Note_on_c, 0, 79, 36
3, 14284, Note_on_c, 0, 79, 0
3, 14292, Note_on_c, 0, 76, 24
3, 14296, Note_on_c, 0, 76, 0
3, 14304, Note_on_c, 0, 80, 38
3, 14310, Note_on_c, 0, 80, 0
3, 14316, Note_on_c, 0, 77, 27
3, 14320, Note_on_c, 0, 77, 0
3, 14328, Note_on_c, 0, 80, 40
3, 14332, Note_on_c, 0, 80, 0
3, 14340, Note_on_c, 0, 77, 30
3, 14344, Note_on_c, 0, 77, 0
3, 14352, Note_on_c, 0, 81, 43
3, 14358, Note_on_c, 0, 81, 0
3, 14364, Note_on_c, 0, 78, 32
3, 14368, Note_on_c, 0, 78, 0
3, 14376, Note_on_c, 0, 81, 46
3, 14380, Note_on_c, 0, 81, 0
3, 14388, Note_on_c, 0, 78, 34
3, 14392, Note_on_c, 0, 78, 0
3, 14400, Note_on_c, 0, 82, 48
3, 14406, Note_on_c, 0, 82, 0
3, 14412, Note_on_c, 0, 79, 37
3, 14416, Note_on_c, 0, 79, 0
3, 14424, Note_on_c, 0, 82, 40
3, 14428, Note_on_c, 0, 82, 0
3, 14436, Note_on_c, 0, 79, 30
3, 14440, Note_on_c, 0, 79, 0
3, 14448, Note_on_c, 0, 82, 43
3, 14452, Note_on_c, 0, 82, 0
3, 14460, Note_on_c, 0, 79, 32
3, 14464, Note_on_c, 0, 79, 0
3, 14472, Note_on_c, 0, 82, 46
3, 14476, Note_on_c, 0, 82, 0
3, 14484, Note_on_c, 0, 79, 34
3, 14488, Note_on_c, 0, 79, 0
3, 14496, Note_on_c, 0, 84, 48
3, 14502, Note_on_c, 0, 84, 0
3, 14508, Note_on_c, 0, 81, 37
3, 14512, Note_on_c, 0, 81, 0
3, 14520, Note_on_c, 0, 84, 50
3, 14524, Note_on_c, 0, 84, 0
3, 14532, Note_on_c, 0, 81, 40
3, 14536, Note_on_c, 0, 81, 0
3, 14544, Note_on_c, 0, 85, 53
3, 14550, Note_on_c, 0, 85, 0
3, 14556, Note_on_c, 0, 81, 42
3, 14560, Note_on_c, 0, 81, 0
3, 14568, Note_on_c, 0, 85, 56
3, 14572, Note_on_c, 0, 85, 0
3, 14580, Note_on_c, 0, 81, 44
3, 14584, Note_on_c, 0, 81, 0
3, 14592, Note_on_c, 0, 86, 60
3, 14604, Note_on_c, 0, 85, 55
3, 14606, Note_on_c, 0, 86, 0
3, 14616, Note_on_c, 0, 86, 57
3, 14618, Note_on_c, 0, 85, 0
3, 14628, Note_on_c, 0, 82, 52
3, 14630, Note_on_c, 0, 86, 0
3, 14640, Note_on_c, 0, 82, 0
3, 14640, Note_on_c, 0, 84, 55
3, 14652, Note_on_c, 0, 83, 50
3, 14654, Note_on_c, 0, 84, 0
3, 14664, Note_on_c, 0, 84, 52
3, 14666, Note_on_c, 0, 83, 0
3, 14676, Note_on_c, 0, 81, 47
3, 14678, Note_on_c, 0, 84, 0
3, 14688, Note_on_c, 0, 81, 0
3, 14688, Note_on_c, 0, 82, 50
3, 14700, Note_on_c, 0, 81, 45
3, 14702, Note_on_c, 0, 82, 0
3, 14712, Note_on_c, 0, 82, 47
3, 14714, Note_on_c, 0, 81, 0
3, 14724, Note_on_c, 0, 79, 42
3, 14726, Note_on_c, 0, 82, 0
3, 14736, Note_on_c, 0, 79, 0
3, 14736, Note_on_c, 0, 81, 45
3, 14748, Note_on_c, 0, 80, 40
3, 14750, Note_on_c, 0, 81, 0
3, 14760, Note_on_c, 0, 81, 42
3, 14762, Note_on_c, 0, 80, 0
3, 14772, Note_on_c, 0, 78, 37
3, 14774, Note_on_c, 0, 81, 0
3, 14784, Note_on_c, 0, 78, 0
3, 14784, Note_on_c, 0, 79, 45
3, 14790, Note_on_c, 0, 81, 43
3, 14792, Note_on_c, 0, 79, 0
3, 14796, Note_on_c, 0, 82, 47
3, 14798, Note_on_c, 0, 81, 0
3, 14802, Note_on_c, 0, 81, 50
3, 14804, Note_on_c, 0, 82, 0
3, 14808, Note_on_c, 0, 84, 53
3, 14810, Note_on_c, 0, 81, 0
3, 14814, Note_on_c, 0, 82, 48
3, 14816, Note_on_c, 0, 84, 0
3, 14820, Note_on_c, 0, 86, 55
3, 14822, Note_on_c, 0, 82, 0
3, 14826, Note_on_c, 0, 84, 52
3, 14828, Note_on_c, 0, 86, 0
3, 14832, Note_on_c, 0, 82, 49
3, 14834, Note_on_c, 0, 84, 0
3, 14838, Note_on_c, 0, 84, 45
3, 14840, Note_on_c, 0, 82, 0
3, 14844, Note_on_c, 0, 81, 47
3, 14846, Note_on_c, 0, 84, 0
3, 14850, Note_on_c, 0, 82, 43
3, 14852, Note_on_c, 0, 81, 0
3, 14856, Note_on_c, 0, 79, 45
3, 14858, Note_on_c, 0, 82, 0
3, 14862, Note_on_c, 0, 81, 41
3, 14864, Note_on_c, 0, 79, 0
3, 14868, Note_on_c, 0, 78, 43
3, 14870, Note_on_c, 0, 81, 0
3, 14874, Note_on_c, 0, 81, 38
3, 14876, Note_on_c, 0, 78, 0
3, 14880, Note_on_c, 0, 81, 0
3, 14880, Note_on_c, 0, 79, 35
3, 14886, Note_on_c, 0, 81, 33
3, 14888, Note_on_c, 0, 79, 0
3, 14892, Note_on_c, 0, 82, 37
3, 14894, Note_on_c, 0, 81, 0
3, 14898, Note_on_c, 0, 81, 40
3, 14900, Note_on_c, 0, 82, 0
3, 14904, Note_on_c, 0, 84, 43
3, 14906, Note_on_c, 0, 81, 0
3, 14910, Note_on_c, 0, 82, 38
3, 14912, Note_on_c, 0, 84, 0
3, 14916, Note_on_c, 0, 86, 45
3, 14918, Note_on_c, 0, 82, 0
3, 14922, Note_on_c, 0, 84, 42
3, 14924, Note_on_c, 0, 86, 0
3, 14928, Note_on_c, 0, 82, 39
3, 14930, Note_on_c, 0, 84, 0
3, 14934, Note_on_c, 0, 84, 35
3, 14936, Note_on_c, 0, 82, 0
3, 14940, Note_on_c, 0, 81, 37
3, 14942, Note_on_c, 0, 84, 0
3, 14946, Note_on_c, 0, 82, 33
3, 14948, Note_on_c, 0, 81, 0
3, 14952, Note_on_c, 0, 79, 35
3, 14954, Note_on_c, 0, 82, 0
3, 14958, Note_on_c, 0, 81, 37
3, 14960, Note_on_c, 0, 79, 0
3, 14964, Note_on_c, 0, 78, 39
3, 14966, Note_on_c, 0, 81, 0
3, 14970, Note_on_c, 0, 81, 36
3, 14972, Note_on_c, 0, 78, 0
3, 14976, Note_on_c, 0, 81, 0
3, 14976, Note_on_c, 0, 79, 40
3, 14982, Note_on_c, 0, 81, 38
3, 14984, Note_on_c, 0, 79, 0
3, 14988, Note_on_c, 0, 82, 42
3, 14990, Note_on_c, 0, 81, 0
3, 14994, Note_on_c, 0, 81, 40
3, 14996, Note_on_c, 0, 82, 0
3, 15000, Note_on_c, 0, 84, 44
3, 15002, Note_on_c, 0, 81, 0
3, 15006, Note_on_c, 0, 82, 42
3, 15008, Note_on_c, 0, 84, 0
3, 15012, Note_on_c, 0, 81, 46
3, 15014, Note_on_c, 0, 82, 0
3, 15018, Note_on_c, 0, 82, 44
3, 15020, Note_on_c, 0, 81, 0
3, 15024, Note_on_c, 0, 79, 48
3, 15026, Note_on_c, 0, 82, 0
3, 15030, Note_on_c, 0, 81, 46
3, 15032, Note_on_c, 0, 79, 0
3, 15036, Note_on_c, 0, 77, 50
3, 15038, Note_on_c, 0, 81, 0
3, 15042, Note_on_c, 0, 79, 48
3, 15044, Note_on_c, 0, 77, 0
3, 15048, Note_on_c, 0, 76, 52
3, 15050, Note_on_c, 0, 79, 0
3, 15054, Note_on_c, 0, 77, 50
3, 15056, Note_on_c, 0, 76, 0
3, 15060, Note_on_c, 0, 74, 54
3, 15062, Note_on_c, 0, 77, 0
3, 15066, Note_on_c, 0, 76, 52
3, 15068, Note_on_c, 0, 74, 0
3, 15072, Note_on_c, 0, 76, 0
3, 15072, Note_on_c, 0, 72, 55
3, 15078, Note_on_c, 0, 76, 51
3, 15080, Note_on_c, 0, 72, 0
3, 15084, Note_on_c, 0, 74, 53
3, 15086, Note_on_c, 0, 76, 0
3, 15090, Note_on_c, 0, 77, 49
3, 15092, Note_on_c, 0, 74, 0
3, 15096, Note_on_c, 0, 76, 51
3, 15098, Note_on_c, 0, 77, 0
3, 15102, Note_on_c, 0, 79, 47
3, 15104, Note_on_c, 0, 76, 0
3, 15108, Note_on_c, 0, 77, 49
3, 15110, Note_on_c, 0, 79, 0
3, 15114, Note_on_c, 0, 81, 45
3, 15116, Note_on_c, 0, 77, 0
3, 15120, Note_on_c, 0, 79, 47
3, 15122, Note_on_c, 0, 81, 0
3, 15126, Note_on_c, 0, 82, 43
3, 15128, Note_on_c, 0, 79, 0
3, 15132, Note_on_c, 0, 81, 45
3, 15134, Note_on_c, 0, 82, 0
3, 15138, Note_on_c, 0, 84, 41
3, 15140, Note_on_c, 0, 81, 0
3, 15144, Note_on_c, 0, 82, 43
3, 15146, Note_on_c, 0, 84, 0
3, 15150, Note_on_c, 0, 81, 45
3, 15152, Note_on_c, 0, 82, 0
3, 15156, Note_on_c, 0, 82, 41
3, 15158, Note_on_c, 0, 81, 0
3, 15162, Note_on_c, 0, 79, 35
3, 15164, Note_on_c, 0, 82, 0
3, 15168, Note_on_c, 0, 79, 0
3, 15168, Note_on_c, 0, 69, 35
3, 15170, Note_on_c, 0, 72, 38
3, 15172, Note_on_c, 0, 77, 50
3, 15240, Note_on_c, 0, 72, 0
3, 15240, Note_on_c, 0, 69, 0
3, 15240, Note_on_c, 0, 79, 52
3, 15242, Note_on_c, 0, 77, 0
3, 15247, Note_on_c, 0, 77, 45
3, 15249, Note_on_c, 0, 79, 0
3, 15252, Note_on_c, 0, 76, 48
3, 15254, Note_on_c, 0, 77, 0
3, 15258, Note_on_c, 0, 77, 43
3, 15260, Note_on_c, 0, 76, 0
3, 15262, Note_on_c, 0, 70, 30
3, 15264, Note_on_c, 0, 74, 33
3, 15266, Note_on_c, 0, 77, 0
3, 15266, Note_on_c, 0, 81, 45
3, 15270, Note_on_c, 0, 70, 0
3, 15272, Note_on_c, 0, 74, 0
3, 15300, Note_on_c, 0, 79, 48
3, 15302, Note_on_c, 0, 81, 0
3, 15312, Note_on_c, 0, 82, 42
3, 15314, Note_on_c, 0, 79, 0
3, 15348, Note_on_c, 0, 79, 45
3, 15350, Note_on_c, 0, 82, 0
3, 15356, Note_on_c, 0, 69, 35
3, 15358, Note_on_c, 0, 72, 38
3, 15360, Note_on_c, 0, 77, 48
3, 15362, Note_on_c, 0, 79, 0
3, 15408, Note_on_c, 0, 67, 30
3, 15410, Note_on_c, 0, 69, 0
3, 15420, Note_on_c, 0, 76, 52
3, 15422, Note_on_c, 0, 77, 0
3, 15432, Note_on_c, 0, 79, 45
3, 15434, Note_on_c, 0, 76, 0
3, 15444, Note_on_c, 0, 76, 47
3, 15446, Note_on_c, 0, 79, 0
3, 15452, Note_on_c, 0, 64, 28
3, 15454, Note_on_c, 0, 67, 0
3, 15454, Note_on_c, 0, 67, 32
3, 15456, Note_on_c, 0, 72, 0
3, 15456, Note_on_c, 0, 72, 42
3, 15458, Note_on_c, 0, 76, 0
3, 15466, Note_on_c, 0, 64, 0
3, 15468, Note_on_c, 0, 67, 0
3, 15504, Note_on_c, 0, 72, 0
3, 15528, Note_on_c, 0, 72, 55
3, 15549, Note_on_c, 0, 79, 50
3, 15552, Note_on_c, 0, 72, 0
3, 15552, Note_on_c, 0, 77, 57
3, 15552, Note_on_c, 0, 65, 42
3, 15553, Note_on_c, 0, 79, 0
3, 15564, Note_on_c, 0, 76, 60
3, 15564, Note_on_c, 0, 64, 45
3, 15566, Note_on_c, 0, 65, 0
3, 15566, Note_on_c, 0, 77, 0
3, 15576, Note_on_c, 0, 77, 62
3, 15576, Note_on_c, 0, 65, 47
3, 15578, Note_on_c, 0, 64, 0
3, 15578, Note_on_c, 0, 76, 0
3, 15588, Note_on_c, 0, 78, 57
3, 15588, Note_on_c, 0, 66, 42
3, 15590, Note_on_c, 0, 65, 0
3, 15590, Note_on_c, 0, 77, 0
3, 15597, Note_on_c, 0, 81, 50
3, 15600, Note_on_c, 0, 79, 65
3, 15600, Note_on_c, 0, 67, 50
3, 15601, Note_on_c, 0, 81, 0
3, 15602, Note_on_c, 0, 66, 0
3, 15602, Note_on_c, 0, 78, 0
3, 15612, Note_on_c, 0, 78, 68
3, 15612, Note_on_c, 0, 66, 53
3, 15614, Note_on_c, 0, 67, 0
3, 15614, Note_on_c, 0, 79, 0
3, 15624, Note_on_c, 0, 79, 70
3, 15624, Note_on_c, 0, 67, 55
3, 15626, Note_on_c, 0, 66, 0
3, 15626, Note_on_c, 0, 78, 0
3, 15636, Note_on_c, 0, 80, 65
3, 15636, Note_on_c, 0, 68, 50
3, 15638, Note_on_c, 0, 67, 0
3, 15638, Note_on_c, 0, 79, 0
3, 15645, Note_on_c, 0, 82, 59
3, 15648, Note_on_c, 0, 81, 74
3, 15648, Note_on_c, 0, 69, 59
3, 15649, Note_on_c, 0, 82, 0
3, 15650, Note_on_c, 0, 68, 0
3, 15650, Note_on_c, 0, 80, 0
3, 15660, Note_on_c, 0, 80, 77
3, 15660, Note_on_c, 0, 68, 62
3, 15662, Note_on_c, 0, 69, 0
3, 15662, Note_on_c, 0, 81, 0
3, 15672, Note_on_c, 0, 81, 72
3, 15672, Note_on_c, 0, 69, 57
3, 15674, Note_on_c, 0, 68, 0
3, 15674, Note_on_c, 0, 80, 0
3, 15684, Note_on_c, 0, 84, 70
3, 15684, Note_on_c, 0, 72, 55
3, 15686, Note_on_c, 0, 69, 0
3, 15686, Note_on_c, 0, 81, 0
3, 15696, Note_on_c, 0, 82, 77
3, 15696, Note_on_c, 0, 70, 62
3, 15698, Note_on_c, 0, 72, 0
3, 15698, Note_on_c, 0, 84, 0
3, 15708, Note_on_c, 0, 84, 80
3, 15708, Note_on_c, 0, 72, 65
3, 15710, Note_on_c, 0, 70, 0
3, 15710, Note_on_c, 0, 82, 0
3, 15720, Note_on_c, 0, 86, 75
3, 15720, Note_on_c, 0, 74, 60
3, 15722, Note_on_c, 0, 72, 0
3, 15722, Note_on_c, 0, 84, 0
3, 15732, Note_on_c, 0, 82, 70
3, 15732, Note_on_c, 0, 70, 55
3, 15734, Note_on_c, 0, 74, 0
3, 15734, Note_on_c, 0, 86, 0
3, 15738, Note_on_c, 0, 69, 58
3, 15742, Note_on_c, 0, 72, 50
3, 15744, Note_on_c, 0, 77, 55
3, 15746, Note_on_c, 0, 70, 0
3, 15746, Note_on_c, 0, 82, 0
3, 15746, Note_on_c, 0, 81, 68
3, 15798, Note_on_c, 0, 84, 50
3, 15800, Note_on_c, 0, 69, 0
3, 15800, Note_on_c, 0, 72, 0
3, 15800, Note_on_c, 0, 77, 0
3, 15800, Note_on_c, 0, 81, 0
3, 15804, Note_on_c, 0, 89, 52
3, 15806, Note_on_c, 0, 84, 0
3, 15807, Note_on_c, 0, 89, 0
3, 15810, Note_on_c, 0, 88, 54
3, 15813, Note_on_c, 0, 88, 0
3, 15816, Note_on_c, 0, 86, 56
3, 15819, Note_on_c, 0, 86, 0
3, 15822, Note_on_c, 0, 84, 58
3, 15825, Note_on_c, 0, 84, 0
3, 15828, Note_on_c, 0, 82, 60
3, 15831, Note_on_c, 0, 82, 0
3, 15834, Note_on_c, 0, 81, 62
3, 15837, Note_on_c, 0, 81, 0
3, 15840, Note_on_c, 0, 79, 58
3, 15840, Note_on_c, 0, 76, 32
3, 15840, Note_on_c, 0, 72, 50
3, 15888, Note_on_c, 0, 72, 0
3, 15888, Note_on_c, 0, 76, 0
3, 15888, Note_on_c, 0, 79, 0
3, 15912, Note_on_c, 0, 72, 80
3, 15932, Note_on_c, 0, 72, 0
3, 15932, Note_on_c, 0, 72, 75
3, 15934, Note_on_c, 0, 76, 82
3, 15936, Note_on_c, 0, 82, 100
3, 16008, Note_on_c, 0, 79, 85
3, 16010, Note_on_c, 0, 76, 0
3, 16010, Note_on_c, 0, 82, 0
3, 16013, Note_on_c, 0, 81, 70
3, 16015, Note_on_c, 0, 79, 0
3, 16016, Note_on_c, 0, 79, 60
3, 16017, Note_on_c, 0, 81, 0
3, 16019, Note_on_c, 0, 81, 63
3, 16020, Note_on_c, 0, 79, 0
3, 16022, Note_on_c, 0, 79, 66
3, 16023, Note_on_c, 0, 81, 0
3, 16025, Note_on_c, 0, 78, 68
3, 16026, Note_on_c, 0, 79, 0
3, 16028, Note_on_c, 0, 79, 70
3, 16029, Note_on_c, 0, 78, 0
3, 16032, Note_on_c, 0, 79, 0
3, 16032, Note_on_c, 0, 76, 85
3, 16042, Note_on_c, 0, 72, 0
3, 16042, Note_on_c, 0, 76, 0
3, 16056, Note_on_c, 0, 77, 82
3, 16056, Note_on_c, 0, 72, 55
3, 16056, Note_on_c, 0, 65, 68
3, 16080, Note_on_c, 0, 76, 85
3, 16080, Note_on_c, 0, 64, 70
3, 16082, Note_on_c, 0, 65, 0
3, 16082, Note_on_c, 0, 77, 0
3, 16104, Note_on_c, 0, 72, 0
3, 16104, Note_on_c, 0, 77, 80
3, 16104, Note_on_c, 0, 72, 52
3, 16104, Note_on_c, 0, 65, 65
3, 16106, Note_on_c, 0, 64, 0
3, 16106, Note_on_c, 0, 76, 0
3, 16124, Note_on_c, 0, 72, 0
3, 16124, Note_on_c, 0, 72, 65
3, 16126, Note_on_c, 0, 76, 72
3, 16128, Note_on_c, 0, 82, 95
3, 16130, Note_on_c, 0, 65, 0
3, 16130, Note_on_c, 0, 77, 0
3, 16200, Note_on_c, 0, 79, 80
3, 16202, Note_on_c, 0, 76, 0
3, 16202, Note_on_c, 0, 82, 0
3, 16205, Note_on_c, 0, 81, 68
3, 16207, Note_on_c, 0, 79, 0
3, 16208, Note_on_c, 0, 79, 60
3, 16209, Note_on_c, 0, 81, 0
3, 16211, Note_on_c, 0, 81, 62
3, 16212, Note_on_c, 0, 79, 0
3, 16214, Note_on_c, 0, 79, 64
3, 16215, Note_on_c, 0, 81, 0
3, 16217, Note_on_c, 0, 78, 66
3, 16218, Note_on_c, 0, 79, 0
3, 16220, Note_on_c, 0, 79, 68
3, 16221, Note_on_c, 0, 78, 0
3, 16224, Note_on_c, 0, 76, 80
3, 16225, Note_on_c, 0, 79, 0
3, 16236, Note_on_c, 0, 72, 0
3, 16236, Note_on_c, 0, 76, 0
3, 16248, Note_on_c, 0, 84, 67
3, 16248, Note_on_c, 0, 77, 45
3, 16248, Note_on_c, 0, 72, 53
3, 16272, Note_on_c, 0, 83, 75
3, 16272, Note_on_c, 0, 71, 60
3, 16274, Note_on_c, 0, 72, 0
3, 16274, Note_on_c, 0, 84, 0
3, 16296, Note_on_c, 0, 77, 0
3, 16296, Note_on_c, 0, 84, 71
3, 16296, Note_on_c, 0, 77, 43
3, 16296, Note_on_c, 0, 72, 56
3, 16298, Note_on_c, 0, 71, 0
3, 16298, Note_on_c, 0, 83, 0
3, 16320, Note_on_c, 0, 77, 0
3, 16320, Note_on_c, 0, 86, 65
3, 16320, Note_on_c, 0, 77, 40
3, 16320, Note_on_c, 0, 74, 50
3, 16322, Note_on_c, 0, 72, 0
3, 16322, Note_on_c, 0, 84, 0
3, 16378, Note_on_c, 0, 74, 0
3, 16378, Note_on_c, 0, 77, 0
3, 16378, Note_on_c, 0, 86, 0
3, 16380, Note_on_c, 0, 88, 70
3, 16384, Note_on_c, 0, 86, 63
3, 16386, Note_on_c, 0, 88, 0
3, 16387, Note_on_c, 0, 85, 65
3, 16389, Note_on_c, 0, 86, 0
3, 16389, Note_on_c, 0, 86, 60
3, 16391, Note_on_c, 0, 85, 0
3, 16392, Note_on_c, 0, 88, 63
3, 16394, Note_on_c, 0, 86, 0
3, 16397, Note_on_c, 0, 88, 0
3, 16404, Note_on_c, 0, 89, 60
3, 16410, Note_on_c, 0, 89, 0
3, 16412, Note_on_c, 0, 69, 50
3, 16414, Note_on_c, 0, 72, 55
3, 16416, Note_on_c, 0, 69, 0
3, 16416, Note_on_c, 0, 77, 65
3, 16418, Note_on_c, 0, 72, 0
3, 16484, Note_on_c, 0, 70, 50
3, 16486, Note_on_c, 0, 76, 55
3, 16488, Note_on_c, 0, 81, 68
3, 16490, Note_on_c, 0, 77, 0
3, 16500, Note_on_c, 0, 79, 62
3, 16502, Note_on_c, 0, 81, 0
3, 16508, Note_on_c, 0, 70, 0
3, 16510, Note_on_c, 0, 76, 0
3, 16512, Note_on_c, 0, 79, 0
3, 16512, Note_on_c, 0, 77, 60
3, 16512, Note_on_c, 0, 72, 40
3, 16512, Note_on_c, 0, 69, 62
3, 16552, Note_on_c, 0, 69, 0
3, 16552, Note_on_c, 0, 72, 0
3, 16552, Note_on_c, 0, 77, 0
3, 16560, Note_on_c, 0, 69, 100
3, 16602, Note_on_c, 0, 69, 0
3, 16602, Note_on_c, 0, 69, 95
3, 16608, Note_on_c, 0, 62, 105
3, 16610, Note_on_c, 0, 69, 0
3, 16648, Note_on_c, 0, 62, 0
3, 16656, Note_on_c, 0, 86, 100
3, 16656, Note_on_c, 0, 74, 80
3, 16698, Note_on_c, 0, 74, 0
3, 16698, Note_on_c, 0, 86, 0
3, 16698, Note_on_c, 0, 86, 95
3, 16698, Note_on_c, 0, 74, 78
3, 16704, Note_on_c, 0, 79, 105
3, 16704, Note_on_c, 0, 67, 75
3, 16706, Note_on_c, 0, 74, 0
3, 16706, Note_on_c, 0, 86, 0
3, 16744, Note_on_c, 0, 67, 0
3, 16744, Note_on_c, 0, 79, 0
3, 16752, Note_on_c, 0, 82, 100
3, 16752, Note_on_c, 0, 70, 80
3, 16794, Note_on_c, 0, 70, 0
3, 16794, Note_on_c, 0, 82, 0
3, 16794, Note_on_c, 0, 82, 95
3, 16794, Note_on_c, 0, 70, 75
3, 16800, Note_on_c, 0, 82, 0
3, 16800, Note_on_c, 0, 88, 110
3, 16800, Note_on_c, 0, 82, 65
3, 16800, Note_on_c, 0, 79, 78
3, 16800, Note_on_c, 0, 76, 85
3, 16802, Note_on_c, 0, 70, 0
3, 16840, Note_on_c, 0, 76, 0
3, 16840, Note_on_c, 0, 79, 0
3, 16840, Note_on_c, 0, 82, 0
3, 16840, Note_on_c, 0, 88, 0
3, 16848, Note_on_c, 0, 89, 115
3, 16848, Note_on_c, 0, 81, 78
3, 16848, Note_on_c, 0, 77, 90
3, 16884, Note_on_c, 0, 77, 0
3, 16884, Note_on_c, 0, 81, 0
3, 16884, Note_on_c, 0, 89, 0
3, 16896, Note_on_c, 0, 79, 80
3, 16896, Note_on_c, 0, 77, 65
3, 16896, Note_on_c, 0, 74, 45
3, 16896, Note_on_c, 0, 67, 70
3, 16956, Note_on_c, 0, 81, 82
3, 16956, Note_on_c, 0, 69, 68
3, 16958, Note_on_c, 0, 67, 0
3, 16958, Note_on_c, 0, 74, 0
3, 16958, Note_on_c, 0, 77, 0
3, 16958, Note_on_c, 0, 79, 0
3, 16968, Note_on_c, 0, 82, 76
3, 16968, Note_on_c, 0, 70, 66
3, 16970, Note_on_c, 0, 69, 0
3, 16970, Note_on_c, 0, 81, 0
3, 16980, Note_on_c, 0, 86, 73
3, 16980, Note_on_c, 0, 74, 64
3, 16982, Note_on_c, 0, 70, 0
3, 16982, Note_on_c, 0, 82, 0
3, 16990, Note_on_c, 0, 74, 0
3, 16990, Note_on_c, 0, 86, 0
3, 16992, Note_on_c, 0, 86, 68
3, 16992, Note_on_c, 0, 74, 60
3, 17004, Note_on_c, 0, 84, 72
3, 17004, Note_on_c, 0, 72, 62
3, 17006, Note_on_c, 0, 74, 0
3, 17006, Note_on_c, 0, 86, 0
3, 17016, Note_on_c, 0, 82, 75
3, 17016, Note_on_c, 0, 70, 64
3, 17018, Note_on_c, 0, 72, 0
3, 17018, Note_on_c, 0, 84, 0
3, 17028, Note_on_c, 0, 81, 77
3, 17028, Note_on_c, 0, 69, 66
3, 17030, Note_on_c, 0, 70, 0
3, 17030, Note_on_c, 0, 82, 0
3, 17038, Note_on_c, 0, 69, 0
3, 17038, Note_on_c, 0, 81, 0
3, 17040, Note_on_c, 0, 81, 74
3, 17040, Note_on_c, 0, 69, 63
3, 17052, Note_on_c, 0, 79, 76
3, 17052, Note_on_c, 0, 67, 65
3, 17054, Note_on_c, 0, 69, 0
3, 17054, Note_on_c, 0, 81, 0
3, 17064, Note_on_c, 0, 82, 72
3, 17064, Note_on_c, 0, 70, 58
3, 17066, Note_on_c, 0, 67, 0
3, 17066, Note_on_c, 0, 79, 0
3, 17076, Note_on_c, 0, 76, 75
3, 17076, Note_on_c, 0, 64, 60
3, 17078, Note_on_c, 0, 70, 0
3, 17078, Note_on_c, 0, 82, 0
3, 17088, Note_on_c, 0, 77, 70
3, 17088, Note_on_c, 0, 65, 55
3, 17090, Note_on_c, 0, 64, 0
3, 17090, Note_on_c, 0, 76, 0
3, 17098, Note_on_c, 0, 65, 0
3, 17098, Note_on_c, 0, 77, 0
3, 17100, Note_on_c, 0, 69, 40
3, 17104, Note_on_c, 0, 69, 0
3, 17112, Note_on_c, 0, 68, 48
3, 17116, Note_on_c, 0, 68, 0
3, 17124, Note_on_c, 0, 69, 45
3, 17128, Note_on_c, 0, 69, 0
3, 17136, Note_on_c, 0, 70, 47
3, 17140, Note_on_c, 0, 70, 0
3, 17148, Note_on_c, 0, 71, 44
3, 17152, Note_on_c, 0, 71, 0
3, 17160, Note_on_c, 0, 72, 46
3, 17164, Note_on_c, 0, 72, 0
3, 17172, Note_on_c, 0, 73, 48
3, 17176, Note_on_c, 0, 73, 0
3, 17184, Note_on_c, 0, 74, 50
3, 17188, Note_on_c, 0, 74, 0
3, 17196, Note_on_c, 0, 75, 46
3, 17200, Note_on_c, 0, 75, 0
3, 17208, Note_on_c, 0, 76, 48
3, 17212, Note_on_c, 0, 76, 0
3, 17220, Note_on_c, 0, 77, 44
3, 17224, Note_on_c, 0, 77, 0
3, 17232, Note_on_c, 0, 78, 46
3, 17236, Note_on_c, 0, 78, 0
3, 17244, Note_on_c, 0, 79, 43
3, 17248, Note_on_c, 0, 79, 0
3, 17256, Note_on_c, 0, 80, 40
3, 17260, Note_on_c, 0, 80, 0
3, 17268, Note_on_c, 0, 81, 42
3, 17272, Note_on_c, 0, 81, 0
3, 17280, Note_on_c, 0, 82, 45
3, 17286, Note_on_c, 0, 82, 0
3, 17292, Note_on_c, 0, 84, 43
3, 17296, Note_on_c, 0, 84, 0
3, 17304, Note_on_c, 0, 85, 41
3, 17308, Note_on_c, 0, 85, 0
3, 17316, Note_on_c, 0, 86, 46
3, 17320, Note_on_c, 0, 86, 0
3, 17328, Note_on_c, 0, 74, 50
3, 17332, Note_on_c, 0, 74, 0
3, 17340, Note_on_c, 0, 76, 46
3, 17344, Note_on_c, 0, 76, 0
3, 17352, Note_on_c, 0, 77, 48
3, 17356, Note_on_c, 0, 77, 0
3, 17364, Note_on_c, 0, 78, 44
3, 17368, Note_on_c, 0, 78, 0
3, 17376, Note_on_c, 0, 79, 46
3, 17380, Note_on_c, 0, 79, 0
3, 17388, Note_on_c, 0, 81, 42
3, 17392, Note_on_c, 0, 81, 0
3, 17400, Note_on_c, 0, 82, 44
3, 17404, Note_on_c, 0, 82, 0
3, 17412, Note_on_c, 0, 81, 48
3, 17416, Note_on_c, 0, 81, 0
3, 17424, Note_on_c, 0, 82, 46
3, 17428, Note_on_c, 0, 82, 0
3, 17436, Note_on_c, 0, 81, 50
3, 17440, Note_on_c, 0, 81, 0
3, 17448, Note_on_c, 0, 82, 52
3, 17452, Note_on_c, 0, 82, 0
3, 17460, Note_on_c, 0, 81, 47
3, 17464, Note_on_c, 0, 81, 0
3, 17472, Note_on_c, 0, 82, 50
3, 17478, Note_on_c, 0, 81, 47
3, 17480, Note_on_c, 0, 82, 0
3, 17484, Note_on_c, 0, 86, 43
3, 17486, Note_on_c, 0, 81, 0
3, 17490, Note_on_c, 0, 84, 45
3, 17492, Note_on_c, 0, 86, 0
3, 17496, Note_on_c, 0, 82, 48
3, 17498, Note_on_c, 0, 84, 0
3, 17502, Note_on_c, 0, 81, 45
3, 17504, Note_on_c, 0, 82, 0
3, 17508, Note_on_c, 0, 86, 41
3, 17510, Note_on_c, 0, 81, 0
3, 17514, Note_on_c, 0, 84, 43
3, 17516, Note_on_c, 0, 86, 0
3, 17520, Note_on_c, 0, 82, 46
3, 17522, Note_on_c, 0, 84, 0
3, 17526, Note_on_c, 0, 81, 43
3, 17528, Note_on_c, 0, 82, 0
3, 17532, Note_on_c, 0, 86, 39
3, 17534, Note_on_c, 0, 81, 0
3, 17538, Note_on_c, 0, 84, 41
3, 17540, Note_on_c, 0, 86, 0
3, 17544, Note_on_c, 0, 82, 44
3, 17546, Note_on_c, 0, 84, 0
3, 17550, Note_on_c, 0, 81, 41
3, 17552, Note_on_c, 0, 82, 0
3, 17556, Note_on_c, 0, 86, 37
3, 17558, Note_on_c, 0, 81, 0
3, 17562, Note_on_c, 0, 84, 39
3, 17564, Note_on_c, 0, 86, 0
3, 17568, Note_on_c, 0, 82, 42
3, 17570, Note_on_c, 0, 84, 0
3, 17574, Note_on_c, 0, 81, 39
3, 17576, Note_on_c, 0, 82, 0
3, 17580, Note_on_c, 0, 86, 35
3, 17582, Note_on_c, 0, 81, 0
3, 17586, Note_on_c, 0, 84, 37
3, 17588, Note_on_c, 0, 86, 0
3, 17592, Note_on_c, 0, 82, 40
3, 17594, Note_on_c, 0, 84, 0
3, 17598, Note_on_c, 0, 81, 37
3, 17600, Note_on_c, 0, 82, 0
3, 17604, Note_on_c, 0, 86, 33
3, 17606, Note_on_c, 0, 81, 0
3, 17610, Note_on_c, 0, 84, 35
3, 17612, Note_on_c, 0, 86, 0
3, 17616, Note_on_c, 0, 82, 37
3, 17618, Note_on_c, 0, 84, 0
3, 17622, Note_on_c, 0, 81, 39
3, 17624, Note_on_c, 0, 82, 0
3, 17628, Note_on_c, 0, 79, 41
3, 17630, Note_on_c, 0, 81, 0
3, 17634, Note_on_c, 0, 77, 43
3, 17636, Note_on_c, 0, 79, 0
3, 17640, Note_on_c, 0, 76, 45
3, 17642, Note_on_c, 0, 77, 0
3, 17646, Note_on_c, 0, 74, 47
3, 17648, Note_on_c, 0, 76, 0
3, 17652, Note_on_c, 0, 72, 49
3, 17654, Note_on_c, 0, 74, 0
3, 17658, Note_on_c, 0, 70, 46
3, 17660, Note_on_c, 0, 72, 0
3, 17664, Note_on_c, 0, 69, 50
3, 17666, Note_on_c, 0, 70, 0
3, 17672, Note_on_c, 0, 69, 0
3, 17676, Note_on_c, 0, 70, 46
3, 17680, Note_on_c, 0, 70, 0
3, 17688, Note_on_c, 0, 72, 48
3, 17692, Note_on_c, 0, 72, 0
3, 17700, Note_on_c, 0, 74, 44
3, 17704, Note_on_c, 0, 74, 0
3, 17712, Note_on_c, 0, 76, 46
3, 17716, Note_on_c, 0, 76, 0
3, 17724, Note_on_c, 0, 77, 42
3, 17728, Note_on_c, 0, 77, 0
3, 17736, Note_on_c, 0, 79, 44
3, 17740, Note_on_c, 0, 79, 0
3, 17748, Note_on_c, 0, 81, 40
3, 17752, Note_on_c, 0, 81, 0
3, 17760, Note_on_c, 0, 82, 42
3, 17764, Note_on_c, 0, 82, 0
3, 17772, Note_on_c, 0, 83, 38
3, 17776, Note_on_c, 0, 83, 0
3, 17784, Note_on_c, 0, 84, 40
3, 17788, Note_on_c, 0, 84, 0
3, 17796, Note_on_c, 0, 85, 42
3, 17800, Note_on_c, 0, 85, 0
3, 17808, Note_on_c, 0, 86, 44
3, 17812, Note_on_c, 0, 86, 0
3, 17820, Note_on_c, 0, 88, 38
3, 17824, Note_on_c, 0, 88, 0
3, 17832, Note_on_c, 0, 89, 40
3, 17836, Note_on_c, 0, 89, 0
3, 17844, Note_on_c, 0, 81, 35
3, 17848, Note_on_c, 0, 81, 0
3, 17868, Note_on_c, 0, 78, 45
3, 17880, Note_on_c, 0, 81, 37
3, 17882, Note_on_c, 0, 78, 0
3, 17892, Note_on_c, 0, 79, 40
3, 17894, Note_on_c, 0, 81, 0
3, 17904, Note_on_c, 0, 79, 0
3, 17916, Note_on_c, 0, 81, 50
3, 17928, Note_on_c, 0, 84, 42
3, 17930, Note_on_c, 0, 81, 0
3, 17940, Note_on_c, 0, 82, 45
3, 17942, Note_on_c, 0, 84, 0
3, 17952, Note_on_c, 0, 82, 0
3, 17964, Note_on_c, 0, 85, 52
3, 17976, Note_on_c, 0, 88, 44
3, 17978, Note_on_c, 0, 85, 0
3, 17988, Note_on_c, 0, 86, 47
3, 17990, Note_on_c, 0, 88, 0
3, 18000, Note_on_c, 0, 86, 0
3, 18012, Note_on_c, 0, 88, 47
3, 18024, Note_on_c, 0, 89, 39
3, 18026, Note_on_c, 0, 88, 0
3, 18036, Note_on_c, 0, 86, 42
3, 18038, Note_on_c, 0, 89, 0
3, 18048, Note_on_c, 0, 86, 0
3, 18048, Note_on_c, 0, 84, 45
3, 18054, Note_on_c, 0, 84, 0
3, 18057, Note_on_c, 0, 89, 35
3, 18060, Note_on_c, 0, 89, 0
3, 18064, Note_on_c, 0, 88, 37
3, 18067, Note_on_c, 0, 88, 0
3, 18072, Note_on_c, 0, 86, 39
3, 18075, Note_on_c, 0, 86, 0
3, 18080, Note_on_c, 0, 84, 36
3, 18083, Note_on_c, 0, 84, 0
3, 18088, Note_on_c, 0, 83, 38
3, 18091, Note_on_c, 0, 83, 0
3, 18096, Note_on_c, 0, 84, 40
3, 18099, Note_on_c, 0, 84, 0
3, 18104, Note_on_c, 0, 89, 32
3, 18107, Note_on_c, 0, 89, 0
3, 18112, Note_on_c, 0, 88, 34
3, 18115, Note_on_c, 0, 88, 0
3, 18120, Note_on_c, 0, 86, 36
3, 18123, Note_on_c, 0, 86, 0
3, 18128, Note_on_c, 0, 84, 33
3, 18131, Note_on_c, 0, 84, 0
3, 18136, Note_on_c, 0, 83, 35
3, 18139, Note_on_c, 0, 83, 0
3, 18144, Note_on_c, 0, 84, 37
3, 18147, Note_on_c, 0, 84, 0
3, 18152, Note_on_c, 0, 89, 34
3, 18155, Note_on_c, 0, 89, 0
3, 18160, Note_on_c, 0, 88, 36
3, 18163, Note_on_c, 0, 88, 0
3, 18168, Note_on_c, 0, 86, 38
3, 18171, Note_on_c, 0, 86, 0
3, 18176, Note_on_c, 0, 84, 40
3, 18179, Note_on_c, 0, 84, 0
3, 18184, Note_on_c, 0, 83, 42
3, 18187, Note_on_c, 0, 83, 0
3, 18192, Note_on_c, 0, 86, 39
3, 18200, Note_on_c, 0, 84, 41
3, 18202, Note_on_c, 0, 86, 0
3, 18208, Note_on_c, 0, 83, 43
3, 18210, Note_on_c, 0, 84, 0
3, 18216, Note_on_c, 0, 86, 45
3, 18218, Note_on_c, 0, 83, 0
3, 18223, Note_on_c, 0, 84, 42
3, 18225, Note_on_c, 0, 86, 0
3, 18229, Note_on_c, 0, 82, 48
3, 18231, Note_on_c, 0, 84, 0
3, 18234, Note_on_c, 0, 81, 52
3, 18236, Note_on_c, 0, 82, 0
3, 18240, Note_on_c, 0, 79, 55
3, 18242, Note_on_c, 0, 81, 0
3, 18246, Note_on_c, 0, 81, 40
3, 18248, Note_on_c, 0, 79, 0
3, 18250, Note_on_c, 0, 79, 43
3, 18251, Note_on_c, 0, 81, 0
3, 18253, Note_on_c, 0, 81, 41
3, 18254, Note_on_c, 0, 79, 0
3, 18255, Note_on_c, 0, 79, 44
3, 18257, Note_on_c, 0, 81, 0
3, 18258, Note_on_c, 0, 81, 47
3, 18259, Note_on_c, 0, 79, 0
3, 18261, Note_on_c, 0, 79, 43
3, 18262, Note_on_c, 0, 81, 0
3, 18264, Note_on_c, 0, 81, 48
3, 18265, Note_on_c, 0, 79, 0
3, 18266, Note_on_c, 0, 79, 46
3, 18268, Note_on_c, 0, 81, 0
3, 18269, Note_on_c, 0, 81, 50
3, 18270, Note_on_c, 0, 79, 0
3, 18271, Note_on_c, 0, 79, 52
3, 18273, Note_on_c, 0, 81, 0
3, 18273, Note_on_c, 0, 81, 48
3, 18275, Note_on_c, 0, 79, 0
3, 18276, Note_on_c, 0, 79, 50
3, 18277, Note_on_c, 0, 81, 0
3, 18278, Note_on_c, 0, 81, 55
3, 18280, Note_on_c, 0, 79, 0
3, 18281, Note_on_c, 0, 79, 52
3, 18282, Note_on_c, 0, 81, 0
3, 18283, Note_on_c, 0, 81, 49
3, 18285, Note_on_c, 0, 79, 0
3, 18286, Note_on_c, 0, 79, 58
3, 18287, Note_on_c, 0, 81, 0
3, 18289, Note_on_c, 0, 81, 52
3, 18290, Note_on_c, 0, 79, 0
3, 18291, Note_on_c, 0, 79, 55
3, 18293, Note_on_c, 0, 81, 0
3, 18294, Note_on_c, 0, 81, 60
3, 18295, Note_on_c, 0, 79, 0
3, 18296, Note_on_c, 0, 79, 62
3, 18298, Note_on_c, 0, 81, 0
3, 18298, Note_on_c, 0, 81, 58
3, 18300, Note_on_c, 0, 79, 0
3, 18301, Note_on_c, 0, 79, 65
3, 18302, Note_on_c, 0, 81, 0
3, 18304, Note_on_c, 0, 81, 68
3, 18305, Note_on_c, 0, 79, 0
3, 18306, Note_on_c, 0, 79, 64
3, 18308, Note_on_c, 0, 81, 0
3, 18308, Note_on_c, 0, 81, 66
3, 18310, Note_on_c, 0, 79, 0
3, 18311, Note_on_c, 0, 79, 70
3, 18312, Note_on_c, 0, 81, 0
3, 18313, Note_on_c, 0, 81, 72
3, 18315, Note_on_c, 0, 79, 0
3, 18316, Note_on_c, 0, 79, 69
3, 18317, Note_on_c, 0, 81, 0
3, 18318, Note_on_c, 0, 81, 73
3, 18320, Note_on_c, 0, 79, 0
3, 18322, Note_on_c, 0, 78, 76
3, 18323, Note_on_c, 0, 81, 0
3, 18328, Note_on_c, 0, 79, 80
3, 18329, Note_on_c, 0, 78, 0
3, 18336, Note_on_c, 0, 84, 85
3, 18337, Note_on_c, 0, 79, 0
3, 18342, Note_on_c, 0, 86, 70
3, 18344, Note_on_c, 0, 84, 0
3, 18346, Note_on_c, 0, 84, 73
3, 18347, Note_on_c, 0, 86, 0
3, 18349, Note_on_c, 0, 86, 71
3, 18350, Note_on_c, 0, 84, 0
3, 18351, Note_on_c, 0, 84, 74
3, 18353, Note_on_c, 0, 86, 0
3, 18354, Note_on_c, 0, 86, 77
3, 18355, Note_on_c, 0, 84, 0
3, 18357, Note_on_c, 0, 84, 73
3, 18358, Note_on_c, 0, 86, 0
3, 18360, Note_on_c, 0, 86, 70
3, 18361, Note_on_c, 0, 84, 0
3, 18362, Note_on_c, 0, 84, 75
3, 18364, Note_on_c, 0, 86, 0
3, 18365, Note_on_c, 0, 86, 74
3, 18366, Note_on_c, 0, 84, 0
3, 18367, Note_on_c, 0, 84, 77
3, 18369, Note_on_c, 0, 86, 0
3, 18369, Note_on_c, 0, 86, 76
3, 18371, Note_on_c, 0, 84, 0
3, 18372, Note_on_c, 0, 84, 74
3, 18373, Note_on_c, 0, 86, 0
3, 18374, Note_on_c, 0, 86, 70
3, 18376, Note_on_c, 0, 84, 0
3, 18377, Note_on_c, 0, 84, 68
3, 18378, Note_on_c, 0, 86, 0
3, 18379, Note_on_c, 0, 86, 75
3, 18381, Note_on_c, 0, 84, 0
3, 18382, Note_on_c, 0, 84, 72
3, 18383, Note_on_c, 0, 86, 0
3, 18385, Note_on_c, 0, 86, 74
3, 18386, Note_on_c, 0, 84, 0
3, 18387, Note_on_c, 0, 84, 69
3, 18389, Note_on_c, 0, 86, 0
3, 18390, Note_on_c, 0, 86, 72
3, 18391, Note_on_c, 0, 84, 0
3, 18392, Note_on_c, 0, 84, 67
3, 18394, Note_on_c, 0, 86, 0
3, 18394, Note_on_c, 0, 86, 75
3, 18396, Note_on_c, 0, 84, 0
3, 18397, Note_on_c, 0, 84, 72
3, 18398, Note_on_c, 0, 86, 0
3, 18400, Note_on_c, 0, 86, 69
3, 18401, Note_on_c, 0, 84, 0
3, 18402, Note_on_c, 0, 84, 72
3, 18404, Note_on_c, 0, 86, 0
3, 18404, Note_on_c, 0, 86, 78
3, 18406, Note_on_c, 0, 84, 0
3, 18407, Note_on_c, 0, 84, 70
3, 18408, Note_on_c, 0, 86, 0
3, 18409, Note_on_c, 0, 86, 72
3, 18411, Note_on_c, 0, 84, 0
3, 18412, Note_on_c, 0, 84, 75
3, 18413, Note_on_c, 0, 86, 0
3, 18414, Note_on_c, 0, 86, 80
3, 18416, Note_on_c, 0, 84, 0
3, 18418, Note_on_c, 0, 83, 84
3, 18419, Note_on_c, 0, 86, 0
3, 18424, Note_on_c, 0, 84, 88
3, 18425, Note_on_c, 0, 83, 0
3, 18432, Note_on_c, 0, 77, 95
3, 18432, Note_on_c, 0, 69, 75
3, 18432, Note_on_c, 0, 65, 88
3, 18433, Note_on_c, 0, 84, 0
3, 18528, Note_on_c, 0, 65, 0
3, 18528, Note_on_c, 0, 69, 0
3, 18528, Note_on_c, 0, 77, 0
3, 18528, Note_on_c, 0, 81, 87
3, 18528, Note_on_c, 0, 75, 67
3, 18528, Note_on_c, 0, 69, 80
3, 18600, Note_on_c, 0, 75, 0
3, 18600, Note_on_c, 0, 82, 90
3, 18600, Note_on_c, 0, 75, 70
3, 18600, Note_on_c, 0, 70, 83
3, 18602, Note_on_c, 0, 69, 0
3, 18602, Note_on_c, 0, 81, 0
3, 18612, Note_on_c, 0, 84, 77
3, 18612, Note_on_c, 0, 72, 70
3, 18614, Note_on_c, 0, 70, 0
3, 18614, Note_on_c, 0, 75, 0
3, 18614, Note_on_c, 0, 82, 0
3, 18618, Note_on_c, 0, 74, 40
3, 18620, Note_on_c, 0, 77, 43
3, 18622, Note_on_c, 0, 74, 0
3, 18622, Note_on_c, 0, 82, 46
3, 18624, Note_on_c, 0, 77, 0
3, 18624, Note_on_c, 0, 86, 58
3, 18626, Note_on_c, 0, 82, 0
3, 18626, Note_on_c, 0, 72, 0
3, 18626, Note_on_c, 0, 84, 0
3, 18693, Note_on_c, 0, 86, 0
3, 18693, Note_on_c, 0, 86, 35
3, 18696, Note_on_c, 0, 84, 50
3, 18698, Note_on_c, 0, 86, 0
3, 18708, Note_on_c, 0, 82, 45
3, 18710, Note_on_c, 0, 84, 0
3, 18717, Note_on_c, 0, 84, 38
3, 18718, Note_on_c, 0, 82, 0
3, 18720, Note_on_c, 0, 82, 53
3, 18722, Note_on_c, 0, 84, 0
3, 18732, Note_on_c, 0, 81, 48
3, 18734, Note_on_c, 0, 82, 0
3, 18741, Note_on_c, 0, 82, 41
3, 18742, Note_on_c, 0, 81, 0
3, 18744, Note_on_c, 0, 81, 56
3, 18746, Note_on_c, 0, 82, 0
3, 18756, Note_on_c, 0, 79, 51
3, 18758, Note_on_c, 0, 81, 0
3, 18765, Note_on_c, 0, 81, 44
3, 18766, Note_on_c, 0, 79, 0
3, 18768, Note_on_c, 0, 79, 59
3, 18770, Note_on_c, 0, 81, 0
3, 18780, Note_on_c, 0, 77, 48
3, 18782, Note_on_c, 0, 79, 0
3, 18789, Note_on_c, 0, 79, 48
3, 18790, Note_on_c, 0, 77, 0
3, 18792, Note_on_c, 0, 77, 63
3, 18794, Note_on_c, 0, 79, 0
3, 18804, Note_on_c, 0, 76, 58
3, 18806, Note_on_c, 0, 77, 0
3, 18814, Note_on_c, 0, 76, 0
3, 18816, Note_on_c, 0, 77, 85
3, 18816, Note_on_c, 0, 69, 65
3, 18816, Note_on_c, 0, 65, 78
3, 18888, Note_on_c, 0, 65, 0
3, 18888, Note_on_c, 0, 69, 0
3, 18888, Note_on_c, 0, 77, 0
3, 18888, Note_on_c, 0, 77, 90
3, 18888, Note_on_c, 0, 69, 70
3, 18888, Note_on_c, 0, 65, 83
3, 18912, Note_on_c, 0, 65, 0
3, 18912, Note_on_c, 0, 69, 0
3, 18912, Note_on_c, 0, 77, 0
3, 18912, Note_on_c, 0, 81, 83
3, 18912, Note_on_c, 0, 75, 68
3, 18912, Note_on_c, 0, 72, 53
3, 18912, Note_on_c, 0, 69, 76
3, 18936, Note_on_c, 0, 72, 0
3, 18936, Note_on_c, 0, 84, 85
3, 18936, Note_on_c, 0, 72, 91
3, 18938, Note_on_c, 0, 69, 0
3, 18938, Note_on_c, 0, 75, 0
3, 18938, Note_on_c, 0, 81, 0
3, 18960, Note_on_c, 0, 87, 81
3, 18960, Note_on_c, 0, 75, 88
3, 18962, Note_on_c, 0, 72, 0
3, 18962, Note_on_c, 0, 84, 0
3, 18984, Note_on_c, 0, 81, 83
3, 18984, Note_on_c, 0, 69, 93
3, 18986, Note_on_c, 0, 75, 0
3, 18986, Note_on_c, 0, 87, 0
3, 19002, Note_on_c, 0, 74, 30
3, 19004, Note_on_c, 0, 77, 33
3, 19006, Note_on_c, 0, 74, 0
3, 19006, Note_on_c, 0, 82, 36
3, 19008, Note_on_c, 0, 77, 0
3, 19008, Note_on_c, 0, 86, 45
3, 19010, Note_on_c, 0, 82, 0
3, 19010, Note_on_c, 0, 69, 0
3, 19010, Note_on_c, 0, 81, 0
3, 19068, Note_on_c, 0, 86, 0
3, 19068, Note_on_c, 0, 85, 48
3, 19074, Note_on_c, 0, 86, 44
3, 19076, Note_on_c, 0, 85, 0
3, 19080, Note_on_c, 0, 88, 40
3, 19082, Note_on_c, 0, 86, 0
3, 19086, Note_on_c, 0, 86, 42
3, 19088, Note_on_c, 0, 88, 0
3, 19092, Note_on_c, 0, 84, 44
3, 19094, Note_on_c, 0, 86, 0
3, 19098, Note_on_c, 0, 82, 46
3, 19100, Note_on_c, 0, 84, 0
3, 19104, Note_on_c, 0, 84, 43
3, 19106, Note_on_c, 0, 82, 0
3, 19110, Note_on_c, 0, 82, 45
3, 19112, Note_on_c, 0, 84, 0
3, 19116, Note_on_c, 0, 81, 47
3, 19118, Note_on_c, 0, 82, 0
3, 19122, Note_on_c, 0, 79, 49
3, 19124, Note_on_c, 0, 81, 0
3, 19128, Note_on_c, 0, 81, 46
3, 19130, Note_on_c, 0, 79, 0
3, 19134, Note_on_c, 0, 79, 48
3, 19136, Note_on_c, 0, 81, 0
3, 19140, Note_on_c, 0, 77, 50
3, 19142, Note_on_c, 0, 79, 0
3, 19146, Note_on_c, 0, 76, 52
3, 19148, Note_on_c, 0, 77, 0
3, 19152, Note_on_c, 0, 77, 49
3, 19154, Note_on_c, 0, 76, 0
3, 19158, Note_on_c, 0, 76, 51
3, 19160, Note_on_c, 0, 77, 0
3, 19164, Note_on_c, 0, 74, 53
3, 19166, Note_on_c, 0, 76, 0
3, 19170, Note_on_c, 0, 72, 55
3, 19172, Note_on_c, 0, 74, 0
3, 19176, Note_on_c, 0, 71, 57
3, 19178, Note_on_c, 0, 72, 0
3, 19182, Note_on_c, 0, 72, 54
3, 19184, Note_on_c, 0, 71, 0
3, 19188, Note_on_c, 0, 74, 51
3, 19190, Note_on_c, 0, 72, 0
3, 19194, Note_on_c, 0, 76, 48
3, 19196, Note_on_c, 0, 74, 0
3, 19200, Note_on_c, 0, 65, 30
3, 19202, Note_on_c, 0, 76, 0
3, 19202, Note_on_c, 0, 69, 35
3, 19204, Note_on_c, 0, 77, 50
3, 19220, Note_on_c, 0, 77, 0
3, 19220, Note_on_c, 0, 69, 0
3, 19220, Note_on_c, 0, 65, 0
3, 19224, Note_on_c, 0, 79, 55
3, 19234, Note_on_c, 0, 79, 0
3, 19236, Note_on_c, 0, 81, 53
3, 19246, Note_on_c, 0, 81, 0
3, 19248, Note_on_c, 0, 82, 56
3, 19258, Note_on_c, 0, 82, 0
3, 19260, Note_on_c, 0, 84, 54
3, 19270, Note_on_c, 0, 84, 0
3, 19272, Note_on_c, 0, 86, 52
3, 19282, Note_on_c, 0, 86, 0
3, 19284, Note_on_c, 0, 88, 50
3, 19294, Note_on_c, 0, 88, 0
3, 19296, Note_on_c, 0, 89, 53
3, 19306, Note_on_c, 0, 89, 0
3, 19308, Note_on_c, 0, 81, 56
3, 19318, Note_on_c, 0, 81, 0
3, 19320, Note_on_c, 0, 82, 54
3, 19330, Note_on_c, 0, 82, 0
3, 19332, Note_on_c, 0, 84, 52
3, 19342, Note_on_c, 0, 84, 0
3, 19344, Note_on_c, 0, 86, 55
3, 19354, Note_on_c, 0, 86, 0
3, 19356, Note_on_c, 0, 88, 53
3, 19366, Note_on_c, 0, 88, 0
3, 19368, Note_on_c, 0, 89, 51
3, 19378, Note_on_c, 0, 89, 0
3, 19380, Note_on_c, 0, 91, 48
3, 19390, Note_on_c, 0, 91, 0
3, 19392, Note_on_c, 0, 93, 50
3, 19402, Note_on_c, 0, 93, 0
3, 19404, Note_on_c, 0, 84, 53
3, 19414, Note_on_c, 0, 84, 0
3, 19416, Note_on_c, 0, 86, 51
3, 19426, Note_on_c, 0, 86, 0
3, 19428, Note_on_c, 0, 88, 49
3, 19438, Note_on_c, 0, 88, 0
3, 19440, Note_on_c, 0, 89, 47
3, 19450, Note_on_c, 0, 89, 0
3, 19452, Note_on_c, 0, 91, 45
3, 19462, Note_on_c, 0, 91, 0
3, 19464, Note_on_c, 0, 93, 43
3, 19474, Note_on_c, 0, 93, 0
3, 19476, Note_on_c, 0, 94, 47
3, 19486, Note_on_c, 0, 94, 0
3, 19488, Note_on_c, 0, 96, 55
3, 19560, Note_on_c, 0, 93, 48
3, 19562, Note_on_c, 0, 96, 0
3, 19584, Note_on_c, 0, 89, 50
3, 19586, Note_on_c, 0, 93, 0
3, 19632, Note_on_c, 0, 89, 0
3, 19680, Note_on_c, 0, 72, 40
3, 19752, Note_on_c, 0, 69, 33
3, 19754, Note_on_c, 0, 72, 0
3, 19776, Note_on_c, 0, 65, 35
3, 19778, Note_on_c, 0, 69, 0
3, 19800, Note_on_c, 0, 65, 0
3, 19824, Note_on_c, 0, 69, 15
3, 19826, Note_on_c, 0, 72, 20
3, 19828, Note_on_c, 0, 77, 30
3, 19848, Note_on_c, 0, 77, 0
3, 19848, Note_on_c, 0, 72, 0
3, 19848, Note_on_c, 0, 69, 0
3, 19866, Note_on_c, 0, 65, 12
3, 19872, Note_on_c, 0, 69, 18
3, 19876, Note_on_c, 0, 77, 25
3, 19896, Note_on_c, 0, 77, 0
3, 19896, Note_on_c, 0, 69, 0
3, 19896, Note_on_c, 0, 65, 0
3, 19968, End_track
4, 0, Start_track
4, 0, Title_t, "Piano(L.H.)"
4, 0, MIDI_port, 0
4, 98, Control_c, 1, 32, 1
4, 104, Control_c, 1, 0, 0
4, 110, Program_c, 1, 0
4, 116, Control_c, 1, 10, 68
4, 122, Control_c, 1, 91, 80
4, 128, Control_c, 1, 7, 127
4, 134, Control_c, 1, 11, 127
4, 140, Text_t, "<Env Attack>"
4, 140, Control_c, 1, 99, 1
4, 142, Control_c, 1, 98, 99
4, 144, Control_c, 1, 6, 64
4, 146, Text_t, "<Env Decay>"
4, 146, Control_c, 1, 98, 100
4, 149, Control_c, 1, 6, 75
4, 152, Text_t, "<Env Release>"
4, 152, Control_c, 1, 98, 101
4, 155, Control_c, 1, 6, 90
4, 192, Note_on_c, 1, 53, 30
4, 192, Note_on_c, 1, 41, 45
4, 240, Note_on_c, 1, 65, 38
4, 240, Note_on_c, 1, 60, 25
4, 240, Note_on_c, 1, 57, 30
4, 242, Note_on_c, 1, 41, 0
4, 242, Note_on_c, 1, 53, 0
4, 288, Note_on_c, 1, 57, 0
4, 288, Note_on_c, 1, 60, 0
4, 288, Note_on_c, 1, 65, 0
4, 288, Note_on_c, 1, 46, 48
4, 336, Note_on_c, 1, 67, 35
4, 336, Note_on_c, 1, 62, 20
4, 336, Note_on_c, 1, 58, 28
4, 338, Note_on_c, 1, 46, 0
4, 384, Note_on_c, 1, 58, 0
4, 384, Note_on_c, 1, 62, 0
4, 384, Note_on_c, 1, 67, 0
4, 384, Note_on_c, 1, 48, 40
4, 432, Note_on_c, 1, 64, 35
4, 432, Note_on_c, 1, 60, 32
4, 432, Note_on_c, 1, 55, 20
4, 434, Note_on_c, 1, 48, 0
4, 480, Note_on_c, 1, 55, 0
4, 480, Note_on_c, 1, 60, 0
4, 480, Note_on_c, 1, 64, 0
4, 480, Note_on_c, 1, 64, 33
4, 480, Note_on_c, 1, 60, 30
4, 480, Note_on_c, 1, 55, 18
4, 528, Note_on_c, 1, 55, 0
4, 528, Note_on_c, 1, 60, 0
4, 528, Note_on_c, 1, 64, 0
4, 528, Note_on_c, 1, 64, 30
4, 528, Note_on_c, 1, 60, 20
4, 528, Note_on_c, 1, 58, 35
4, 576, Note_on_c, 1, 58, 0
4, 576, Note_on_c, 1, 60, 0
4, 576, Note_on_c, 1, 64, 0
4, 576, Note_on_c, 1, 65, 35
4, 576, Note_on_c, 1, 60, 22
4, 576, Note_on_c, 1, 57, 38
4, 624, Note_on_c, 1, 60, 0
4, 624, Note_on_c, 1, 65, 0
4, 624, Note_on_c, 1, 60, 25
4, 624, Note_on_c, 1, 52, 40
4, 626, Note_on_c, 1, 57, 0
4, 672, Note_on_c, 1, 60, 0
4, 672, Note_on_c, 1, 60, 20
4, 672, Note_on_c, 1, 53, 42
4, 674, Note_on_c, 1, 52, 0
4, 708, Note_on_c, 1, 46, 45
4, 716, Note_on_c, 1, 55, 30
4, 720, Note_on_c, 1, 60, 0
4, 720, Note_on_c, 1, 62, 38
4, 722, Note_on_c, 1, 53, 0
4, 768, Note_on_c, 1, 62, 0
4, 768, Note_on_c, 1, 55, 0
4, 768, Note_on_c, 1, 46, 0
4, 768, Note_on_c, 1, 48, 40
4, 816, Note_on_c, 1, 69, 35
4, 816, Note_on_c, 1, 65, 28
4, 816, Note_on_c, 1, 60, 20
4, 818, Note_on_c, 1, 48, 0
4, 864, Note_on_c, 1, 60, 0
4, 864, Note_on_c, 1, 67, 30
4, 864, Note_on_c, 1, 64, 25
4, 864, Note_on_c, 1, 60, 15
4, 866, Note_on_c, 1, 65, 0
4, 866, Note_on_c, 1, 69, 0
4, 888, Note_on_c, 1, 60, 0
4, 888, Note_on_c, 1, 64, 0
4, 888, Note_on_c, 1, 67, 0
4, 948, Note_on_c, 1, 48, 70
4, 954, Note_on_c, 1, 55, 54
4, 957, Note_on_c, 1, 58, 57
4, 960, Note_on_c, 1, 64, 60
4, 1066, Note_on_c, 1, 48, 0
4, 1066, Note_on_c, 1, 55, 0
4, 1066, Note_on_c, 1, 58, 0
4, 1066, Note_on_c, 1, 64, 0
4, 1080, Note_on_c, 1, 69, 50
4, 1104, Note_on_c, 1, 70, 45
4, 1104, Note_on_c, 1, 67, 52
4, 1106, Note_on_c, 1, 69, 0
4, 1128, Note_on_c, 1, 69, 42
4, 1128, Note_on_c, 1, 65, 55
4, 1130, Note_on_c, 1, 67, 0
4, 1130, Note_on_c, 1, 70, 0
4, 1144, Note_on_c, 1, 48, 60
4, 1148, Note_on_c, 1, 55, 44
4, 1150, Note_on_c, 1, 58, 47
4, 1152, Note_on_c, 1, 64, 50
4, 1154, Note_on_c, 1, 65, 0
4, 1154, Note_on_c, 1, 69, 0
4, 1260, Note_on_c, 1, 48, 0
4, 1260, Note_on_c, 1, 55, 0
4, 1260, Note_on_c, 1, 58, 0
4, 1260, Note_on_c, 1, 64, 0
4, 1272, Note_on_c, 1, 65, 30
4, 1272, Note_on_c, 1, 57, 40
4, 1294, Note_on_c, 1, 57, 0
4, 1294, Note_on_c, 1, 65, 0
4, 1296, Note_on_c, 1, 65, 32
4, 1296, Note_on_c, 1, 56, 42
4, 1318, Note_on_c, 1, 56, 0
4, 1318, Note_on_c, 1, 65, 0
4, 1320, Note_on_c, 1, 65, 27
4, 1320, Note_on_c, 1, 57, 40
4, 1342, Note_on_c, 1, 57, 0
4, 1342, Note_on_c, 1, 65, 0
4, 1344, Note_on_c, 1, 65, 30
4, 1344, Note_on_c, 1, 58, 45
4, 1392, Note_on_c, 1, 58, 0
4, 1392, Note_on_c, 1, 65, 0
4, 1392, Note_on_c, 1, 53, 25
4, 1392, Note_on_c, 1, 50, 28
4, 1392, Note_on_c, 1, 46, 40
4, 1440, Note_on_c, 1, 46, 0
4, 1440, Note_on_c, 1, 50, 0
4, 1440, Note_on_c, 1, 53, 0
4, 1440, Note_on_c, 1, 57, 30
4, 1440, Note_on_c, 1, 53, 22
4, 1440, Note_on_c, 1, 48, 48
4, 1488, Note_on_c, 1, 48, 0
4, 1488, Note_on_c, 1, 53, 0
4, 1488, Note_on_c, 1, 57, 0
4, 1488, Note_on_c, 1, 58, 40
4, 1488, Note_on_c, 1, 52, 32
4, 1488, Note_on_c, 1, 48, 52
4, 1536, Note_on_c, 1, 48, 0
4, 1536, Note_on_c, 1, 52, 0
4, 1536, Note_on_c, 1, 58, 0
4, 1536, Note_on_c, 1, 64, 45
4, 1536, Note_on_c, 1, 60, 25
4, 1536, Note_on_c, 1, 58, 33
4, 1536, Note_on_c, 1, 53, 50
4, 1584, Note_on_c, 1, 41, 40
4, 1586, Note_on_c, 1, 53, 0
4, 1632, Note_on_c, 1, 65, 40
4, 1632, Note_on_c, 1, 57, 28
4, 1632, Note_on_c, 1, 53, 45
4, 1634, Note_on_c, 1, 41, 0
4, 1634, Note_on_c, 1, 58, 0
4, 1634, Note_on_c, 1, 64, 0
4, 1642, Note_on_c, 1, 53, 0
4, 1642, Note_on_c, 1, 57, 0
4, 1642, Note_on_c, 1, 60, 0
4, 1642, Note_on_c, 1, 65, 0
4, 1644, Note_on_c, 1, 60, 50
4, 1656, Note_on_c, 1, 59, 52
4, 1658, Note_on_c, 1, 60, 0
4, 1668, Note_on_c, 1, 60, 48
4, 1670, Note_on_c, 1, 59, 0
4, 1680, Note_on_c, 1, 62, 45
4, 1682, Note_on_c, 1, 60, 0
4, 1692, Note_on_c, 1, 60, 52
4, 1694, Note_on_c, 1, 62, 0
4, 1704, Note_on_c, 1, 58, 56
4, 1706, Note_on_c, 1, 60, 0
4, 1716, Note_on_c, 1, 55, 60
4, 1718, Note_on_c, 1, 58, 0
4, 1728, Note_on_c, 1, 53, 40
4, 1728, Note_on_c, 1, 41, 55
4, 1730, Note_on_c, 1, 55, 0
4, 1740, Note_on_c, 1, 60, 28
4, 1740, Note_on_c, 1, 57, 35
4, 1742, Note_on_c, 1, 41, 0
4, 1742, Note_on_c, 1, 53, 0
4, 1746, Note_on_c, 1, 57, 0
4, 1746, Note_on_c, 1, 60, 0
4, 1752, Note_on_c, 1, 60, 30
4, 1752, Note_on_c, 1, 57, 37
4, 1760, Note_on_c, 1, 57, 0
4, 1760, Note_on_c, 1, 60, 0
4, 1764, Note_on_c, 1, 60, 27
4, 1764, Note_on_c, 1, 57, 32
4, 1770, Note_on_c, 1, 57, 0
4, 1770, Note_on_c, 1, 60, 0
4, 1776, Note_on_c, 1, 53, 48
4, 1788, Note_on_c, 1, 60, 25
4, 1788, Note_on_c, 1, 57, 32
4, 1790, Note_on_c, 1, 53, 0
4, 1794, Note_on_c, 1, 57, 0
4, 1794, Note_on_c, 1, 60, 0
4, 1800, Note_on_c, 1, 60, 27
4, 1800, Note_on_c, 1, 57, 34
4, 1808, Note_on_c, 1, 57, 0
4, 1808, Note_on_c, 1, 60, 0
4, 1812, Note_on_c, 1, 60, 24
4, 1812, Note_on_c, 1, 57, 29
4, 1818, Note_on_c, 1, 57, 0
4, 1818, Note_on_c, 1, 60, 0
4, 1824, Note_on_c, 1, 46, 30
4, 1824, Note_on_c, 1, 34, 50
4, 1836, Note_on_c, 1, 62, 28
4, 1836, Note_on_c, 1, 58, 35
4, 1838, Note_on_c, 1, 34, 0
4, 1838, Note_on_c, 1, 46, 0
4, 1842, Note_on_c, 1, 58, 0
4, 1842, Note_on_c, 1, 62, 0
4, 1848, Note_on_c, 1, 62, 30
4, 1848, Note_on_c, 1, 58, 37
4, 1856, Note_on_c, 1, 58, 0
4, 1856, Note_on_c, 1, 62, 0
4, 1860, Note_on_c, 1, 62, 27
4, 1860, Note_on_c, 1, 58, 32
4, 1866, Note_on_c, 1, 58, 0
4, 1866, Note_on_c, 1, 62, 0
4, 1872, Note_on_c, 1, 46, 45
4, 1884, Note_on_c, 1, 62, 25
4, 1884, Note_on_c, 1, 58, 32
4, 1886, Note_on_c, 1, 46, 0
4, 1890, Note_on_c, 1, 58, 0
4, 1890, Note_on_c, 1, 62, 0
4, 1896, Note_on_c, 1, 62, 27
4, 1896, Note_on_c, 1, 58, 34
4, 1904, Note_on_c, 1, 58, 0
4, 1904, Note_on_c, 1, 62, 0
4, 1908, Note_on_c, 1, 62, 32
4, 1908, Note_on_c, 1, 58, 37
4, 1914, Note_on_c, 1, 58, 0
4, 1914, Note_on_c, 1, 62, 0
4, 1920, Note_on_c, 1, 48, 40
4, 1920, Note_on_c, 1, 36, 55
4, 1932, Note_on_c, 1, 60, 28
4, 1932, Note_on_c, 1, 55, 35
4, 1934, Note_on_c, 1, 36, 0
4, 1934, Note_on_c, 1, 48, 0
4, 1938, Note_on_c, 1, 55, 0
4, 1938, Note_on_c, 1, 60, 0
4, 1944, Note_on_c, 1, 60, 30
4, 1944, Note_on_c, 1, 55, 37
4, 1952, Note_on_c, 1, 55, 0
4, 1952, Note_on_c, 1, 60, 0
4, 1956, Note_on_c, 1, 60, 27
4, 1956, Note_on_c, 1, 55, 32
4, 1962, Note_on_c, 1, 55, 0
4, 1962, Note_on_c, 1, 60, 0
4, 1968, Note_on_c, 1, 48, 48
4, 1980, Note_on_c, 1, 60, 25
4, 1980, Note_on_c, 1, 55, 32
4, 1986, Note_on_c, 1, 55, 0
4, 1986, Note_on_c, 1, 60, 0
4, 1992, Note_on_c, 1, 60, 27
4, 1992, Note_on_c, 1, 55, 34
4, 2000, Note_on_c, 1, 55, 0
4, 2000, Note_on_c, 1, 60, 0
4, 2004, Note_on_c, 1, 60, 24
4, 2004, Note_on_c, 1, 55, 29
4, 2010, Note_on_c, 1, 55, 0
4, 2010, Note_on_c, 1, 60, 0
4, 2016, Note_on_c, 1, 48, 0
4, 2016, Note_on_c, 1, 48, 45
4, 2028, Note_on_c, 1, 60, 28
4, 2028, Note_on_c, 1, 55, 20
4, 2028, Note_on_c, 1, 52, 35
4, 2034, Note_on_c, 1, 52, 0
4, 2034, Note_on_c, 1, 55, 0
4, 2034, Note_on_c, 1, 60, 0
4, 2040, Note_on_c, 1, 60, 30
4, 2040, Note_on_c, 1, 55, 18
4, 2040, Note_on_c, 1, 52, 37
4, 2048, Note_on_c, 1, 52, 0
4, 2048, Note_on_c, 1, 55, 0
4, 2048, Note_on_c, 1, 60, 0
4, 2052, Note_on_c, 1, 60, 27
4, 2052, Note_on_c, 1, 55, 20
4, 2052, Note_on_c, 1, 52, 32
4, 2058, Note_on_c, 1, 52, 0
4, 2058, Note_on_c, 1, 55, 0
4, 2058, Note_on_c, 1, 60, 0
4, 2064, Note_on_c, 1, 48, 0
4, 2064, Note_on_c, 1, 46, 50
4, 2076, Note_on_c, 1, 60, 25
4, 2076, Note_on_c, 1, 55, 15
4, 2076, Note_on_c, 1, 52, 32
4, 2082, Note_on_c, 1, 52, 0
4, 2082, Note_on_c, 1, 55, 0
4, 2082, Note_on_c, 1, 60, 0
4, 2088, Note_on_c, 1, 60, 27
4, 2088, Note_on_c, 1, 55, 18
4, 2088, Note_on_c, 1, 52, 34
4, 2096, Note_on_c, 1, 52, 0
4, 2096, Note_on_c, 1, 55, 0
4, 2096, Note_on_c, 1, 60, 0
4, 2100, Note_on_c, 1, 60, 32
4, 2100, Note_on_c, 1, 55, 20
4, 2100, Note_on_c, 1, 52, 37
4, 2106, Note_on_c, 1, 52, 0
4, 2106, Note_on_c, 1, 55, 0
4, 2106, Note_on_c, 1, 60, 0
4, 2112, Note_on_c, 1, 46, 0
4, 2112, Note_on_c, 1, 45, 55
4, 2124, Note_on_c, 1, 60, 28
4, 2124, Note_on_c, 1, 53, 35
4, 2130, Note_on_c, 1, 53, 0
4, 2130, Note_on_c, 1, 60, 0
4, 2136, Note_on_c, 1, 60, 30
4, 2136, Note_on_c, 1, 53, 37
4, 2144, Note_on_c, 1, 53, 0
4, 2144, Note_on_c, 1, 60, 0
4, 2148, Note_on_c, 1, 60, 27
4, 2148, Note_on_c, 1, 53, 32
4, 2154, Note_on_c, 1, 53, 0
4, 2154, Note_on_c, 1, 60, 0
4, 2160, Note_on_c, 1, 45, 0
4, 2160, Note_on_c, 1, 52, 48
4, 2172, Note_on_c, 1, 60, 25
4, 2172, Note_on_c, 1, 58, 32
4, 2178, Note_on_c, 1, 58, 0
4, 2178, Note_on_c, 1, 60, 0
4, 2184, Note_on_c, 1, 60, 27
4, 2184, Note_on_c, 1, 58, 34
4, 2192, Note_on_c, 1, 58, 0
4, 2192, Note_on_c, 1, 60, 0
4, 2196, Note_on_c, 1, 60, 24
4, 2196, Note_on_c, 1, 58, 29
4, 2202, Note_on_c, 1, 58, 0
4, 2202, Note_on_c, 1, 60, 0
4, 2208, Note_on_c, 1, 52, 0
4, 2208, Note_on_c, 1, 53, 50
4, 2220, Note_on_c, 1, 60, 28
4, 2220, Note_on_c, 1, 57, 35
4, 2226, Note_on_c, 1, 57, 0
4, 2226, Note_on_c, 1, 60, 0
4, 2232, Note_on_c, 1, 60, 30
4, 2232, Note_on_c, 1, 57, 37
4, 2240, Note_on_c, 1, 57, 0
4, 2240, Note_on_c, 1, 60, 0
4, 2244, Note_on_c, 1, 60, 27
4, 2244, Note_on_c, 1, 57, 32
4, 2250, Note_on_c, 1, 57, 0
4, 2250, Note_on_c, 1, 60, 0
4, 2256, Note_on_c, 1, 53, 0
4, 2256, Note_on_c, 1, 46, 55
4, 2268, Note_on_c, 1, 62, 30
4, 2268, Note_on_c, 1, 58, 37
4, 2274, Note_on_c, 1, 58, 0
4, 2274, Note_on_c, 1, 62, 0
4, 2280, Note_on_c, 1, 62, 32
4, 2280, Note_on_c, 1, 58, 39
4, 2288, Note_on_c, 1, 58, 0
4, 2288, Note_on_c, 1, 62, 0
4, 2292, Note_on_c, 1, 62, 37
4, 2292, Note_on_c, 1, 58, 42
4, 2298, Note_on_c, 1, 58, 0
4, 2298, Note_on_c, 1, 62, 0
4, 2304, Note_on_c, 1, 46, 0
4, 2304, Note_on_c, 1, 48, 50
4, 2316, Note_on_c, 1, 60, 28
4, 2316, Note_on_c, 1, 57, 35
4, 2322, Note_on_c, 1, 57, 0
4, 2322, Note_on_c, 1, 60, 0
4, 2328, Note_on_c, 1, 60, 30
4, 2328, Note_on_c, 1, 57, 37
4, 2336, Note_on_c, 1, 57, 0
4, 2336, Note_on_c, 1, 60, 0
4, 2340, Note_on_c, 1, 60, 27
4, 2340, Note_on_c, 1, 57, 32
4, 2346, Note_on_c, 1, 57, 0
4, 2346, Note_on_c, 1, 60, 0
4, 2352, Note_on_c, 1, 48, 0
4, 2352, Note_on_c, 1, 48, 48
4, 2364, Note_on_c, 1, 60, 25
4, 2364, Note_on_c, 1, 57, 32
4, 2364, Note_on_c, 1, 53, 28
4, 2370, Note_on_c, 1, 53, 0
4, 2370, Note_on_c, 1, 57, 0
4, 2370, Note_on_c, 1, 60, 0
4, 2376, Note_on_c, 1, 60, 25
4, 2376, Note_on_c, 1, 57, 34
4, 2376, Note_on_c, 1, 53, 23
4, 2384, Note_on_c, 1, 53, 0
4, 2384, Note_on_c, 1, 57, 0
4, 2384, Note_on_c, 1, 60, 0
4, 2388, Note_on_c, 1, 60, 20
4, 2388, Note_on_c, 1, 57, 29
4, 2388, Note_on_c, 1, 53, 25
4, 2394, Note_on_c, 1, 53, 0
4, 2394, Note_on_c, 1, 57, 0
4, 2394, Note_on_c, 1, 60, 0
4, 2400, Note_on_c, 1, 48, 0
4, 2400, Note_on_c, 1, 48, 45
4, 2412, Note_on_c, 1, 60, 28
4, 2412, Note_on_c, 1, 55, 20
4, 2412, Note_on_c, 1, 52, 35
4, 2418, Note_on_c, 1, 52, 0
4, 2418, Note_on_c, 1, 55, 0
4, 2418, Note_on_c, 1, 60, 0
4, 2424, Note_on_c, 1, 60, 30
4, 2424, Note_on_c, 1, 55, 18
4, 2424, Note_on_c, 1, 52, 37
4, 2432, Note_on_c, 1, 52, 0
4, 2432, Note_on_c, 1, 55, 0
4, 2432, Note_on_c, 1, 60, 0
4, 2436, Note_on_c, 1, 60, 27
4, 2436, Note_on_c, 1, 55, 20
4, 2436, Note_on_c, 1, 52, 32
4, 2442, Note_on_c, 1, 52, 0
4, 2442, Note_on_c, 1, 55, 0
4, 2442, Note_on_c, 1, 60, 0
4, 2448, Note_on_c, 1, 48, 0
4, 2448, Note_on_c, 1, 48, 50
4, 2460, Note_on_c, 1, 60, 25
4, 2460, Note_on_c, 1, 55, 15
4, 2460, Note_on_c, 1, 52, 32
4, 2466, Note_on_c, 1, 52, 0
4, 2466, Note_on_c, 1, 55, 0
4, 2466, Note_on_c, 1, 60, 0
4, 2472, Note_on_c, 1, 60, 27
4, 2472, Note_on_c, 1, 55, 18
4, 2472, Note_on_c, 1, 52, 34
4, 2480, Note_on_c, 1, 52, 0
4, 2480, Note_on_c, 1, 55, 0
4, 2480, Note_on_c, 1, 60, 0
4, 2484, Note_on_c, 1, 60, 32
4, 2484, Note_on_c, 1, 55, 20
4, 2484, Note_on_c, 1, 52, 37
4, 2490, Note_on_c, 1, 52, 0
4, 2490, Note_on_c, 1, 55, 0
4, 2490, Note_on_c, 1, 60, 0
4, 2496, Note_on_c, 1, 48, 0
4, 2508, Note_on_c, 1, 48, 65
4, 2508, Note_on_c, 1, 36, 80
4, 2518, Note_on_c, 1, 36, 0
4, 2518, Note_on_c, 1, 48, 0
4, 2520, Note_on_c, 1, 52, 62
4, 2520, Note_on_c, 1, 40, 75
4, 2530, Note_on_c, 1, 40, 0
4, 2530, Note_on_c, 1, 52, 0
4, 2532, Note_on_c, 1, 48, 64
4, 2532, Note_on_c, 1, 36, 78
4, 2542, Note_on_c, 1, 36, 0
4, 2542, Note_on_c, 1, 48, 0
4, 2544, Note_on_c, 1, 52, 60
4, 2544, Note_on_c, 1, 40, 72
4, 2554, Note_on_c, 1, 40, 0
4, 2554, Note_on_c, 1, 52, 0
4, 2556, Note_on_c, 1, 48, 62
4, 2556, Note_on_c, 1, 36, 75
4, 2566, Note_on_c, 1, 36, 0
4, 2566, Note_on_c, 1, 48, 0
4, 2568, Note_on_c, 1, 52, 58
4, 2568, Note_on_c, 1, 40, 68
4, 2578, Note_on_c, 1, 40, 0
4, 2578, Note_on_c, 1, 52, 0
4, 2580, Note_on_c, 1, 55, 55
4, 2580, Note_on_c, 1, 43, 64
4, 2590, Note_on_c, 1, 43, 0
4, 2590, Note_on_c, 1, 55, 0
4, 2592, Note_on_c, 1, 58, 50
4, 2592, Note_on_c, 1, 46, 60
4, 2602, Note_on_c, 1, 46, 0
4, 2602, Note_on_c, 1, 58, 0
4, 2616, Note_on_c, 1, 60, 40
4, 2616, Note_on_c, 1, 57, 70
4, 2640, Note_on_c, 1, 58, 60
4, 2640, Note_on_c, 1, 55, 72
4, 2642, Note_on_c, 1, 57, 0
4, 2664, Note_on_c, 1, 60, 0
4, 2664, Note_on_c, 1, 60, 45
4, 2664, Note_on_c, 1, 57, 55
4, 2664, Note_on_c, 1, 53, 75
4, 2666, Note_on_c, 1, 55, 0
4, 2666, Note_on_c, 1, 58, 0
4, 2690, Note_on_c, 1, 53, 0
4, 2690, Note_on_c, 1, 57, 0
4, 2690, Note_on_c, 1, 60, 0
4, 2700, Note_on_c, 1, 48, 60
4, 2700, Note_on_c, 1, 36, 75
4, 2710, Note_on_c, 1, 36, 0
4, 2710, Note_on_c, 1, 48, 0
4, 2712, Note_on_c, 1, 52, 57
4, 2712, Note_on_c, 1, 40, 70
4, 2722, Note_on_c, 1, 40, 0
4, 2722, Note_on_c, 1, 52, 0
4, 2724, Note_on_c, 1, 48, 59
4, 2724, Note_on_c, 1, 36, 73
4, 2734, Note_on_c, 1, 36, 0
4, 2734, Note_on_c, 1, 48, 0
4, 2736, Note_on_c, 1, 52, 55
4, 2736, Note_on_c, 1, 40, 67
4, 2746, Note_on_c, 1, 40, 0
4, 2746, Note_on_c, 1, 52, 0
4, 2748, Note_on_c, 1, 48, 57
4, 2748, Note_on_c, 1, 36, 70
4, 2758, Note_on_c, 1, 36, 0
4, 2758, Note_on_c, 1, 48, 0
4, 2760, Note_on_c, 1, 52, 53
4, 2760, Note_on_c, 1, 40, 63
4, 2770, Note_on_c, 1, 40, 0
4, 2770, Note_on_c, 1, 52, 0
4, 2772, Note_on_c, 1, 55, 50
4, 2772, Note_on_c, 1, 43, 59
4, 2782, Note_on_c, 1, 43, 0
4, 2782, Note_on_c, 1, 55, 0
4, 2784, Note_on_c, 1, 58, 45
4, 2784, Note_on_c, 1, 46, 55
4, 2794, Note_on_c, 1, 46, 0
4, 2794, Note_on_c, 1, 58, 0
4, 2808, Note_on_c, 1, 60, 45
4, 2808, Note_on_c, 1, 57, 65
4, 2832, Note_on_c, 1, 59, 63
4, 2832, Note_on_c, 1, 56, 70
4, 2834, Note_on_c, 1, 57, 0
4, 2834, Note_on_c, 1, 60, 0
4, 2856, Note_on_c, 1, 60, 51
4, 2856, Note_on_c, 1, 57, 64
4, 2858, Note_on_c, 1, 56, 0
4, 2858, Note_on_c, 1, 59, 0
4, 2880, Note_on_c, 1, 55, 52
4, 2880, Note_on_c, 1, 53, 42
4, 2880, Note_on_c, 1, 46, 62
4, 2882, Note_on_c, 1, 57, 0
4, 2882, Note_on_c, 1, 60, 0
4, 2928, Note_on_c, 1, 47, 57
4, 2930, Note_on_c, 1, 46, 0
4, 2952, Note_on_c, 1, 53, 0
4, 2952, Note_on_c, 1, 55, 0
4, 2952, Note_on_c, 1, 55, 30
4, 2952, Note_on_c, 1, 53, 42
4, 2952, Note_on_c, 1, 50, 22
4, 2976, Note_on_c, 1, 50, 0
4, 2976, Note_on_c, 1, 53, 0
4, 2976, Note_on_c, 1, 55, 0
4, 2976, Note_on_c, 1, 57, 37
4, 2976, Note_on_c, 1, 53, 29
4, 2976, Note_on_c, 1, 48, 55
4, 2978, Note_on_c, 1, 47, 0
4, 3024, Note_on_c, 1, 48, 0
4, 3024, Note_on_c, 1, 53, 0
4, 3024, Note_on_c, 1, 57, 0
4, 3024, Note_on_c, 1, 58, 40
4, 3024, Note_on_c, 1, 52, 34
4, 3024, Note_on_c, 1, 48, 49
4, 3072, Note_on_c, 1, 48, 0
4, 3072, Note_on_c, 1, 52, 0
4, 3072, Note_on_c, 1, 58, 0
4, 3072, Note_on_c, 1, 57, 38
4, 3072, Note_on_c, 1, 53, 45
4, 3112, Note_on_c, 1, 53, 0
4, 3112, Note_on_c, 1, 57, 0
4, 3120, Note_on_c, 1, 57, 80
4, 3120, Note_on_c, 1, 45, 100
4, 3162, Note_on_c, 1, 45, 0
4, 3162, Note_on_c, 1, 57, 0
4, 3162, Note_on_c, 1, 57, 78
4, 3162, Note_on_c, 1, 45, 95
4, 3168, Note_on_c, 1, 50, 75
4, 3168, Note_on_c, 1, 38, 105
4, 3170, Note_on_c, 1, 45, 0
4, 3170, Note_on_c, 1, 57, 0
4, 3208, Note_on_c, 1, 38, 0
4, 3208, Note_on_c, 1, 50, 0
4, 3216, Note_on_c, 1, 62, 80
4, 3216, Note_on_c, 1, 50, 100
4, 3258, Note_on_c, 1, 50, 0
4, 3258, Note_on_c, 1, 62, 0
4, 3258, Note_on_c, 1, 62, 78
4, 3258, Note_on_c, 1, 50, 95
4, 3264, Note_on_c, 1, 55, 75
4, 3264, Note_on_c, 1, 43, 105
4, 3266, Note_on_c, 1, 50, 0
4, 3266, Note_on_c, 1, 62, 0
4, 3304, Note_on_c, 1, 43, 0
4, 3304, Note_on_c, 1, 55, 0
4, 3312, Note_on_c, 1, 58, 80
4, 3312, Note_on_c, 1, 46, 100
4, 3354, Note_on_c, 1, 46, 0
4, 3354, Note_on_c, 1, 58, 0
4, 3354, Note_on_c, 1, 58, 78
4, 3354, Note_on_c, 1, 46, 95
4, 3360, Note_on_c, 1, 49, 85
4, 3360, Note_on_c, 1, 37, 115
4, 3362, Note_on_c, 1, 46, 0
4, 3362, Note_on_c, 1, 58, 0
4, 3400, Note_on_c, 1, 37, 0
4, 3400, Note_on_c, 1, 49, 0
4, 3408, Note_on_c, 1, 50, 78
4, 3408, Note_on_c, 1, 38, 105
4, 3444, Note_on_c, 1, 38, 0
4, 3444, Note_on_c, 1, 50, 0
4, 3456, Note_on_c, 1, 46, 45
4, 3456, Note_on_c, 1, 34, 60
4, 3504, Note_on_c, 1, 46, 0
4, 3504, Note_on_c, 1, 55, 40
4, 3504, Note_on_c, 1, 53, 32
4, 3504, Note_on_c, 1, 50, 15
4, 3504, Note_on_c, 1, 46, 28
4, 3506, Note_on_c, 1, 34, 0
4, 3552, Note_on_c, 1, 46, 0
4, 3552, Note_on_c, 1, 50, 0
4, 3552, Note_on_c, 1, 53, 0
4, 3552, Note_on_c, 1, 55, 0
4, 3552, Note_on_c, 1, 57, 48
4, 3552, Note_on_c, 1, 53, 25
4, 3552, Note_on_c, 1, 48, 50
4, 3576, Note_on_c, 1, 60, 43
4, 3578, Note_on_c, 1, 57, 0
4, 3600, Note_on_c, 1, 48, 0
4, 3600, Note_on_c, 1, 58, 45
4, 3600, Note_on_c, 1, 52, 33
4, 3600, Note_on_c, 1, 48, 42
4, 3602, Note_on_c, 1, 60, 0
4, 3602, Note_on_c, 1, 53, 0
4, 3624, Note_on_c, 1, 55, 36
4, 3626, Note_on_c, 1, 52, 0
4, 3648, Note_on_c, 1, 48, 0
4, 3648, Note_on_c, 1, 57, 30
4, 3648, Note_on_c, 1, 53, 40
4, 3650, Note_on_c, 1, 55, 0
4, 3650, Note_on_c, 1, 58, 0
4, 3688, Note_on_c, 1, 53, 0
4, 3688, Note_on_c, 1, 57, 0
4, 3696, Note_on_c, 1, 53, 28
4, 3696, Note_on_c, 1, 41, 45
4, 3738, Note_on_c, 1, 41, 0
4, 3738, Note_on_c, 1, 53, 0
4, 3738, Note_on_c, 1, 53, 25
4, 3738, Note_on_c, 1, 41, 38
4, 3743, Note_on_c, 1, 41, 0
4, 3743, Note_on_c, 1, 53, 0
4, 3744, Note_on_c, 1, 53, 20
4, 3744, Note_on_c, 1, 41, 40
4, 3792, Note_on_c, 1, 41, 0
4, 3792, Note_on_c, 1, 53, 0
4, 3840, Note_on_c, 1, 53, 45
4, 3864, Note_on_c, 1, 60, 38
4, 3888, Note_on_c, 1, 53, 0
4, 3888, Note_on_c, 1, 65, 32
4, 3890, Note_on_c, 1, 60, 0
4, 3912, Note_on_c, 1, 69, 28
4, 3914, Note_on_c, 1, 65, 0
4, 3936, Note_on_c, 1, 67, 30
4, 3936, Note_on_c, 1, 58, 40
4, 3938, Note_on_c, 1, 69, 0
4, 3960, Note_on_c, 1, 72, 37
4, 3962, Note_on_c, 1, 67, 0
4, 3984, Note_on_c, 1, 58, 0
4, 3984, Note_on_c, 1, 64, 43
4, 3986, Note_on_c, 1, 72, 0
4, 4008, Note_on_c, 1, 67, 40
4, 4010, Note_on_c, 1, 64, 0
4, 4032, Note_on_c, 1, 57, 45
4, 4034, Note_on_c, 1, 67, 0
4, 4056, Note_on_c, 1, 60, 35
4, 4080, Note_on_c, 1, 57, 0
4, 4080, Note_on_c, 1, 65, 33
4, 4082, Note_on_c, 1, 60, 0
4, 4104, Note_on_c, 1, 69, 28
4, 4106, Note_on_c, 1, 65, 0
4, 4128, Note_on_c, 1, 60, 30
4, 4128, Note_on_c, 1, 52, 40
4, 4130, Note_on_c, 1, 69, 0
4, 4152, Note_on_c, 1, 58, 34
4, 4154, Note_on_c, 1, 60, 0
4, 4176, Note_on_c, 1, 52, 0
4, 4176, Note_on_c, 1, 55, 38
4, 4178, Note_on_c, 1, 58, 0
4, 4200, Note_on_c, 1, 60, 35
4, 4202, Note_on_c, 1, 55, 0
4, 4224, Note_on_c, 1, 53, 45
4, 4226, Note_on_c, 1, 60, 0
4, 4248, Note_on_c, 1, 53, 0
4, 4248, Note_on_c, 1, 53, 35
4, 4272, Note_on_c, 1, 57, 32
4, 4274, Note_on_c, 1, 53, 0
4, 4296, Note_on_c, 1, 60, 38
4, 4298, Note_on_c, 1, 57, 0
4, 4320, Note_on_c, 1, 58, 40
4, 4320, Note_on_c, 1, 46, 48
4, 4322, Note_on_c, 1, 60, 0
4, 4344, Note_on_c, 1, 60, 36
4, 4346, Note_on_c, 1, 58, 0
4, 4368, Note_on_c, 1, 46, 0
4, 4368, Note_on_c, 1, 62, 33
4, 4370, Note_on_c, 1, 60, 0
4, 4392, Note_on_c, 1, 58, 35
4, 4392, Note_on_c, 1, 55, 38
4, 4394, Note_on_c, 1, 62, 0
4, 4416, Note_on_c, 1, 48, 50
4, 4418, Note_on_c, 1, 55, 0
4, 4418, Note_on_c, 1, 58, 0
4, 4440, Note_on_c, 1, 57, 40
4, 4440, Note_on_c, 1, 53, 30
4, 4464, Note_on_c, 1, 57, 0
4, 4464, Note_on_c, 1, 48, 0
4, 4464, Note_on_c, 1, 60, 42
4, 4464, Note_on_c, 1, 57, 28
4, 4466, Note_on_c, 1, 53, 0
4, 4488, Note_on_c, 1, 57, 0
4, 4488, Note_on_c, 1, 57, 38
4, 4488, Note_on_c, 1, 53, 25
4, 4490, Note_on_c, 1, 60, 0
4, 4512, Note_on_c, 1, 53, 0
4, 4512, Note_on_c, 1, 57, 0
4, 4512, Note_on_c, 1, 55, 33
4, 4512, Note_on_c, 1, 52, 20
4, 4512, Note_on_c, 1, 48, 40
4, 4528, Note_on_c, 1, 48, 0
4, 4528, Note_on_c, 1, 52, 0
4, 4528, Note_on_c, 1, 55, 0
4, 4536, Note_on_c, 1, 55, 50
4, 4536, Note_on_c, 1, 43, 70
4, 4560, Note_on_c, 1, 52, 55
4, 4560, Note_on_c, 1, 40, 72
4, 4562, Note_on_c, 1, 43, 0
4, 4562, Note_on_c, 1, 55, 0
4, 4584, Note_on_c, 1, 50, 58
4, 4584, Note_on_c, 1, 38, 77
4, 4586, Note_on_c, 1, 40, 0
4, 4586, Note_on_c, 1, 52, 0
4, 4608, Note_on_c, 1, 49, 65
4, 4608, Note_on_c, 1, 37, 80
4, 4610, Note_on_c, 1, 38, 0
4, 4610, Note_on_c, 1, 50, 0
4, 4632, Note_on_c, 1, 64, 50
4, 4632, Note_on_c, 1, 61, 45
4, 4632, Note_on_c, 1, 57, 35
4, 4634, Note_on_c, 1, 37, 0
4, 4634, Note_on_c, 1, 49, 0
4, 4646, Note_on_c, 1, 57, 0
4, 4646, Note_on_c, 1, 61, 0
4, 4646, Note_on_c, 1, 64, 0
4, 4656, Note_on_c, 1, 64, 43
4, 4656, Note_on_c, 1, 61, 38
4, 4656, Note_on_c, 1, 57, 28
4, 4674, Note_on_c, 1, 57, 0
4, 4674, Note_on_c, 1, 61, 0
4, 4674, Note_on_c, 1, 64, 0
4, 4680, Note_on_c, 1, 64, 38
4, 4680, Note_on_c, 1, 61, 33
4, 4680, Note_on_c, 1, 57, 23
4, 4696, Note_on_c, 1, 57, 0
4, 4696, Note_on_c, 1, 61, 0
4, 4696, Note_on_c, 1, 64, 0
4, 4704, Note_on_c, 1, 45, 30
4, 4704, Note_on_c, 1, 33, 45
4, 4728, Note_on_c, 1, 67, 30
4, 4728, Note_on_c, 1, 64, 18
4, 4728, Note_on_c, 1, 61, 25
4, 4728, Note_on_c, 1, 57, 15
4, 4730, Note_on_c, 1, 33, 0
4, 4730, Note_on_c, 1, 45, 0
4, 4742, Note_on_c, 1, 57, 0
4, 4742, Note_on_c, 1, 61, 0
4, 4742, Note_on_c, 1, 64, 0
4, 4742, Note_on_c, 1, 67, 0
4, 4752, Note_on_c, 1, 67, 35
4, 4752, Note_on_c, 1, 64, 22
4, 4752, Note_on_c, 1, 61, 30
4, 4752, Note_on_c, 1, 57, 20
4, 4770, Note_on_c, 1, 57, 0
4, 4770, Note_on_c, 1, 61, 0
4, 4770, Note_on_c, 1, 64, 0
4, 4770, Note_on_c, 1, 67, 0
4, 4776, Note_on_c, 1, 67, 32
4, 4776, Note_on_c, 1, 64, 20
4, 4776, Note_on_c, 1, 61, 27
4, 4776, Note_on_c, 1, 57, 17
4, 4792, Note_on_c, 1, 57, 0
4, 4792, Note_on_c, 1, 61, 0
4, 4792, Note_on_c, 1, 64, 0
4, 4792, Note_on_c, 1, 67, 0
4, 4800, Note_on_c, 1, 50, 35
4, 4800, Note_on_c, 1, 38, 50
4, 4824, Note_on_c, 1, 65, 30
4, 4824, Note_on_c, 1, 62, 25
4, 4824, Note_on_c, 1, 57, 15
4, 4826, Note_on_c, 1, 38, 0
4, 4826, Note_on_c, 1, 50, 0
4, 4838, Note_on_c, 1, 57, 0
4, 4838, Note_on_c, 1, 62, 0
4, 4838, Note_on_c, 1, 65, 0
4, 4848, Note_on_c, 1, 65, 35
4, 4848, Note_on_c, 1, 62, 26
4, 4848, Note_on_c, 1, 57, 20
4, 4866, Note_on_c, 1, 57, 0
4, 4866, Note_on_c, 1, 62, 0
4, 4866, Note_on_c, 1, 65, 0
4, 4872, Note_on_c, 1, 65, 32
4, 4872, Note_on_c, 1, 62, 27
4, 4872, Note_on_c, 1, 57, 17
4, 4888, Note_on_c, 1, 57, 0
4, 4888, Note_on_c, 1, 62, 0
4, 4888, Note_on_c, 1, 65, 0
4, 4896, Note_on_c, 1, 55, 30
4, 4896, Note_on_c, 1, 43, 45
4, 4920, Note_on_c, 1, 55, 0
4, 4920, Note_on_c, 1, 64, 30
4, 4920, Note_on_c, 1, 62, 18
4, 4920, Note_on_c, 1, 58, 25
4, 4920, Note_on_c, 1, 55, 15
4, 4922, Note_on_c, 1, 43, 0
4, 4934, Note_on_c, 1, 55, 0
4, 4934, Note_on_c, 1, 58, 0
4, 4934, Note_on_c, 1, 62, 0
4, 4934, Note_on_c, 1, 64, 0
4, 4944, Note_on_c, 1, 64, 35
4, 4944, Note_on_c, 1, 62, 22
4, 4944, Note_on_c, 1, 58, 30
4, 4944, Note_on_c, 1, 55, 20
4, 4962, Note_on_c, 1, 55, 0
4, 4962, Note_on_c, 1, 58, 0
4, 4962, Note_on_c, 1, 62, 0
4, 4962, Note_on_c, 1, 64, 0
4, 4968, Note_on_c, 1, 64, 39
4, 4968, Note_on_c, 1, 62, 27
4, 4968, Note_on_c, 1, 58, 34
4, 4968, Note_on_c, 1, 55, 24
4, 4984, Note_on_c, 1, 55, 0
4, 4984, Note_on_c, 1, 58, 0
4, 4984, Note_on_c, 1, 62, 0
4, 4984, Note_on_c, 1, 64, 0
4, 4992, Note_on_c, 1, 57, 40
4, 4992, Note_on_c, 1, 45, 55
4, 5016, Note_on_c, 1, 57, 0
4, 5016, Note_on_c, 1, 65, 30
4, 5016, Note_on_c, 1, 62, 25
4, 5016, Note_on_c, 1, 57, 15
4, 5018, Note_on_c, 1, 45, 0
4, 5030, Note_on_c, 1, 57, 0
4, 5030, Note_on_c, 1, 62, 0
4, 5030, Note_on_c, 1, 65, 0
4, 5040, Note_on_c, 1, 57, 32
4, 5040, Note_on_c, 1, 45, 45
4, 5064, Note_on_c, 1, 57, 0
4, 5064, Note_on_c, 1, 65, 30
4, 5064, Note_on_c, 1, 62, 25
4, 5064, Note_on_c, 1, 57, 15
4, 5066, Note_on_c, 1, 45, 0
4, 5080, Note_on_c, 1, 57, 0
4, 5080, Note_on_c, 1, 62, 0
4, 5080, Note_on_c, 1, 65, 0
4, 5088, Note_on_c, 1, 45, 35
4, 5088, Note_on_c, 1, 33, 50
4, 5112, Note_on_c, 1, 65, 30
4, 5112, Note_on_c, 1, 62, 18
4, 5112, Note_on_c, 1, 57, 15
4, 5114, Note_on_c, 1, 33, 0
4, 5114, Note_on_c, 1, 45, 0
4, 5126, Note_on_c, 1, 57, 0
4, 5126, Note_on_c, 1, 62, 0
4, 5126, Note_on_c, 1, 65, 0
4, 5136, Note_on_c, 1, 45, 33
4, 5136, Note_on_c, 1, 33, 45
4, 5160, Note_on_c, 1, 61, 30
4, 5160, Note_on_c, 1, 57, 16
4, 5160, Note_on_c, 1, 55, 27
4, 5162, Note_on_c, 1, 33, 0
4, 5162, Note_on_c, 1, 45, 0
4, 5176, Note_on_c, 1, 55, 0
4, 5176, Note_on_c, 1, 57, 0
4, 5176, Note_on_c, 1, 61, 0
4, 5184, Note_on_c, 1, 50, 28
4, 5184, Note_on_c, 1, 38, 40
4, 5204, Note_on_c, 1, 38, 0
4, 5204, Note_on_c, 1, 50, 0
4, 5208, Note_on_c, 1, 53, 88
4, 5232, Note_on_c, 1, 57, 90
4, 5234, Note_on_c, 1, 53, 0
4, 5256, Note_on_c, 1, 55, 86
4, 5258, Note_on_c, 1, 57, 0
4, 5280, Note_on_c, 1, 53, 83
4, 5282, Note_on_c, 1, 55, 0
4, 5304, Note_on_c, 1, 52, 80
4, 5306, Note_on_c, 1, 53, 0
4, 5328, Note_on_c, 1, 50, 76
4, 5330, Note_on_c, 1, 52, 0
4, 5352, Note_on_c, 1, 48, 73
4, 5354, Note_on_c, 1, 50, 0
4, 5376, Note_on_c, 1, 47, 50
4, 5376, Note_on_c, 1, 35, 70
4, 5378, Note_on_c, 1, 48, 0
4, 5400, Note_on_c, 1, 65, 68
4, 5400, Note_on_c, 1, 62, 48
4, 5400, Note_on_c, 1, 55, 60
4, 5414, Note_on_c, 1, 55, 0
4, 5414, Note_on_c, 1, 62, 0
4, 5414, Note_on_c, 1, 65, 0
4, 5424, Note_on_c, 1, 65, 56
4, 5424, Note_on_c, 1, 62, 36
4, 5424, Note_on_c, 1, 55, 48
4, 5442, Note_on_c, 1, 55, 0
4, 5442, Note_on_c, 1, 62, 0
4, 5442, Note_on_c, 1, 65, 0
4, 5448, Note_on_c, 1, 65, 48
4, 5448, Note_on_c, 1, 62, 28
4, 5448, Note_on_c, 1, 55, 40
4, 5464, Note_on_c, 1, 55, 0
4, 5464, Note_on_c, 1, 62, 0
4, 5464, Note_on_c, 1, 65, 0
4, 5472, Note_on_c, 1, 35, 0
4, 5472, Note_on_c, 1, 47, 0
4, 5472, Note_on_c, 1, 43, 30
4, 5472, Note_on_c, 1, 31, 45
4, 5496, Note_on_c, 1, 59, 32
4, 5496, Note_on_c, 1, 55, 16
4, 5496, Note_on_c, 1, 53, 19
4, 5496, Note_on_c, 1, 50, 24
4, 5510, Note_on_c, 1, 50, 0
4, 5510, Note_on_c, 1, 53, 0
4, 5510, Note_on_c, 1, 55, 0
4, 5510, Note_on_c, 1, 59, 0
4, 5520, Note_on_c, 1, 59, 35
4, 5520, Note_on_c, 1, 55, 10
4, 5520, Note_on_c, 1, 53, 16
4, 5520, Note_on_c, 1, 50, 28
4, 5538, Note_on_c, 1, 50, 0
4, 5538, Note_on_c, 1, 53, 0
4, 5538, Note_on_c, 1, 55, 0
4, 5538, Note_on_c, 1, 59, 0
4, 5544, Note_on_c, 1, 59, 30
4, 5544, Note_on_c, 1, 55, 12
4, 5544, Note_on_c, 1, 53, 18
4, 5544, Note_on_c, 1, 50, 22
4, 5560, Note_on_c, 1, 50, 0
4, 5560, Note_on_c, 1, 53, 0
4, 5560, Note_on_c, 1, 55, 0
4, 5560, Note_on_c, 1, 59, 0
4, 5568, Note_on_c, 1, 31, 0
4, 5568, Note_on_c, 1, 43, 0
4, 5568, Note_on_c, 1, 48, 35
4, 5568, Note_on_c, 1, 36, 50
4, 5592, Note_on_c, 1, 60, 30
4, 5592, Note_on_c, 1, 55, 25
4, 5592, Note_on_c, 1, 52, 15
4, 5594, Note_on_c, 1, 36, 0
4, 5594, Note_on_c, 1, 48, 0
4, 5606, Note_on_c, 1, 52, 0
4, 5606, Note_on_c, 1, 55, 0
4, 5606, Note_on_c, 1, 60, 0
4, 5616, Note_on_c, 1, 60, 35
4, 5616, Note_on_c, 1, 55, 26
4, 5616, Note_on_c, 1, 52, 20
4, 5634, Note_on_c, 1, 52, 0
4, 5634, Note_on_c, 1, 55, 0
4, 5634, Note_on_c, 1, 60, 0
4, 5640, Note_on_c, 1, 60, 32
4, 5640, Note_on_c, 1, 55, 27
4, 5640, Note_on_c, 1, 52, 17
4, 5656, Note_on_c, 1, 52, 0
4, 5656, Note_on_c, 1, 55, 0
4, 5656, Note_on_c, 1, 60, 0
4, 5664, Note_on_c, 1, 52, 30
4, 5664, Note_on_c, 1, 40, 45
4, 5688, Note_on_c, 1, 52, 0
4, 5688, Note_on_c, 1, 60, 30
4, 5688, Note_on_c, 1, 55, 18
4, 5688, Note_on_c, 1, 52, 25
4, 5690, Note_on_c, 1, 40, 0
4, 5702, Note_on_c, 1, 52, 0
4, 5702, Note_on_c, 1, 55, 0
4, 5702, Note_on_c, 1, 60, 0
4, 5712, Note_on_c, 1, 60, 35
4, 5712, Note_on_c, 1, 55, 22
4, 5712, Note_on_c, 1, 52, 30
4, 5730, Note_on_c, 1, 52, 0
4, 5730, Note_on_c, 1, 55, 0
4, 5730, Note_on_c, 1, 60, 0
4, 5736, Note_on_c, 1, 60, 39
4, 5736, Note_on_c, 1, 55, 27
4, 5736, Note_on_c, 1, 52, 34
4, 5752, Note_on_c, 1, 52, 0
4, 5752, Note_on_c, 1, 55, 0
4, 5752, Note_on_c, 1, 60, 0
4, 5760, Note_on_c, 1, 53, 40
4, 5760, Note_on_c, 1, 41, 55
4, 5784, Note_on_c, 1, 53, 0
4, 5784, Note_on_c, 1, 62, 30
4, 5784, Note_on_c, 1, 60, 25
4, 5784, Note_on_c, 1, 57, 15
4, 5786, Note_on_c, 1, 41, 0
4, 5798, Note_on_c, 1, 57, 0
4, 5798, Note_on_c, 1, 60, 0
4, 5798, Note_on_c, 1, 62, 0
4, 5808, Note_on_c, 1, 53, 45
4, 5826, Note_on_c, 1, 53, 0
4, 5832, Note_on_c, 1, 62, 30
4, 5832, Note_on_c, 1, 60, 25
4, 5832, Note_on_c, 1, 57, 15
4, 5848, Note_on_c, 1, 57, 0
4, 5848, Note_on_c, 1, 60, 0
4, 5848, Note_on_c, 1, 62, 0
4, 5856, Note_on_c, 1, 53, 35
4, 5856, Note_on_c, 1, 41, 50
4, 5876, Note_on_c, 1, 41, 0
4, 5876, Note_on_c, 1, 53, 0
4, 5880, Note_on_c, 1, 62, 30
4, 5880, Note_on_c, 1, 60, 18
4, 5880, Note_on_c, 1, 57, 15
4, 5894, Note_on_c, 1, 57, 0
4, 5894, Note_on_c, 1, 60, 0
4, 5894, Note_on_c, 1, 62, 0
4, 5904, Note_on_c, 1, 53, 40
4, 5920, Note_on_c, 1, 53, 0
4, 5928, Note_on_c, 1, 62, 30
4, 5928, Note_on_c, 1, 60, 16
4, 5928, Note_on_c, 1, 57, 27
4, 5940, Note_on_c, 1, 57, 0
4, 5940, Note_on_c, 1, 60, 0
4, 5940, Note_on_c, 1, 62, 0
4, 5952, Note_on_c, 1, 43, 35
4, 5952, Note_on_c, 1, 31, 50
4, 5976, Note_on_c, 1, 64, 30
4, 5976, Note_on_c, 1, 60, 25
4, 5976, Note_on_c, 1, 55, 15
4, 5978, Note_on_c, 1, 31, 0
4, 5978, Note_on_c, 1, 43, 0
4, 5990, Note_on_c, 1, 55, 0
4, 5990, Note_on_c, 1, 60, 0
4, 5990, Note_on_c, 1, 64, 0
4, 6000, Note_on_c, 1, 64, 35
4, 6000, Note_on_c, 1, 60, 26
4, 6000, Note_on_c, 1, 55, 20
4, 6018, Note_on_c, 1, 55, 0
4, 6018, Note_on_c, 1, 60, 0
4, 6018, Note_on_c, 1, 64, 0
4, 6024, Note_on_c, 1, 64, 32
4, 6024, Note_on_c, 1, 60, 27
4, 6024, Note_on_c, 1, 55, 17
4, 6040, Note_on_c, 1, 55, 0
4, 6040, Note_on_c, 1, 60, 0
4, 6040, Note_on_c, 1, 64, 0
4, 6048, Note_on_c, 1, 64, 35
4, 6048, Note_on_c, 1, 60, 25
4, 6048, Note_on_c, 1, 55, 20
4, 6072, Note_on_c, 1, 55, 0
4, 6072, Note_on_c, 1, 60, 0
4, 6072, Note_on_c, 1, 64, 0
4, 6144, Note_on_c, 1, 43, 35
4, 6144, Note_on_c, 1, 31, 50
4, 6168, Note_on_c, 1, 65, 40
4, 6168, Note_on_c, 1, 62, 28
4, 6168, Note_on_c, 1, 60, 35
4, 6168, Note_on_c, 1, 55, 25
4, 6170, Note_on_c, 1, 31, 0
4, 6170, Note_on_c, 1, 43, 0
4, 6182, Note_on_c, 1, 55, 0
4, 6182, Note_on_c, 1, 60, 0
4, 6182, Note_on_c, 1, 62, 0
4, 6182, Note_on_c, 1, 65, 0
4, 6192, Note_on_c, 1, 65, 50
4, 6192, Note_on_c, 1, 62, 50
4, 6192, Note_on_c, 1, 60, 41
4, 6192, Note_on_c, 1, 55, 35
4, 6210, Note_on_c, 1, 55, 0
4, 6210, Note_on_c, 1, 60, 0
4, 6210, Note_on_c, 1, 62, 0
4, 6210, Note_on_c, 1, 65, 0
4, 6216, Note_on_c, 1, 65, 62
4, 6216, Note_on_c, 1, 62, 62
4, 6216, Note_on_c, 1, 60, 57
4, 6216, Note_on_c, 1, 55, 47
4, 6232, Note_on_c, 1, 55, 0
4, 6232, Note_on_c, 1, 60, 0
4, 6232, Note_on_c, 1, 62, 0
4, 6232, Note_on_c, 1, 65, 0
4, 6240, Note_on_c, 1, 43, 70
4, 6240, Note_on_c, 1, 31, 90
4, 6257, Note_on_c, 1, 55, 80
4, 6260, Note_on_c, 1, 59, 77
4, 6262, Note_on_c, 1, 55, 0
4, 6262, Note_on_c, 1, 62, 81
4, 6264, Note_on_c, 1, 59, 0
4, 6264, Note_on_c, 1, 31, 0
4, 6264, Note_on_c, 1, 43, 0
4, 6264, Note_on_c, 1, 65, 85
4, 6266, Note_on_c, 1, 62, 0
4, 6270, Note_on_c, 1, 64, 83
4, 6272, Note_on_c, 1, 65, 0
4, 6276, Note_on_c, 1, 62, 81
4, 6278, Note_on_c, 1, 64, 0
4, 6282, Note_on_c, 1, 60, 79
4, 6284, Note_on_c, 1, 62, 0
4, 6288, Note_on_c, 1, 59, 82
4, 6290, Note_on_c, 1, 60, 0
4, 6294, Note_on_c, 1, 57, 80
4, 6296, Note_on_c, 1, 59, 0
4, 6300, Note_on_c, 1, 55, 78
4, 6302, Note_on_c, 1, 57, 0
4, 6306, Note_on_c, 1, 53, 76
4, 6308, Note_on_c, 1, 55, 0
4, 6312, Note_on_c, 1, 52, 79
4, 6314, Note_on_c, 1, 53, 0
4, 6318, Note_on_c, 1, 50, 77
4, 6320, Note_on_c, 1, 52, 0
4, 6324, Note_on_c, 1, 48, 80
4, 6326, Note_on_c, 1, 50, 0
4, 6330, Note_on_c, 1, 47, 85
4, 6332, Note_on_c, 1, 48, 0
4, 6336, Note_on_c, 1, 48, 70
4, 6336, Note_on_c, 1, 36, 90
4, 6338, Note_on_c, 1, 47, 0
4, 6408, Note_on_c, 1, 36, 0
4, 6408, Note_on_c, 1, 48, 0
4, 6426, Note_on_c, 1, 48, 75
4, 6426, Note_on_c, 1, 36, 95
4, 6432, Note_on_c, 1, 36, 0
4, 6432, Note_on_c, 1, 48, 0
4, 6432, Note_on_c, 1, 53, 80
4, 6432, Note_on_c, 1, 48, 60
4, 6432, Note_on_c, 1, 41, 102
4, 6472, Note_on_c, 1, 41, 0
4, 6472, Note_on_c, 1, 48, 0
4, 6472, Note_on_c, 1, 53, 0
4, 6474, Note_on_c, 1, 53, 75
4, 6474, Note_on_c, 1, 48, 50
4, 6474, Note_on_c, 1, 41, 98
4, 6480, Note_on_c, 1, 41, 0
4, 6480, Note_on_c, 1, 48, 0
4, 6480, Note_on_c, 1, 53, 0
4, 6480, Note_on_c, 1, 53, 83
4, 6480, Note_on_c, 1, 48, 63
4, 6480, Note_on_c, 1, 45, 105
4, 6520, Note_on_c, 1, 45, 0
4, 6520, Note_on_c, 1, 48, 0
4, 6520, Note_on_c, 1, 53, 0
4, 6522, Note_on_c, 1, 53, 78
4, 6522, Note_on_c, 1, 48, 53
4, 6522, Note_on_c, 1, 45, 101
4, 6528, Note_on_c, 1, 45, 0
4, 6528, Note_on_c, 1, 48, 0
4, 6528, Note_on_c, 1, 53, 0
4, 6528, Note_on_c, 1, 55, 60
4, 6528, Note_on_c, 1, 52, 90
4, 6528, Note_on_c, 1, 48, 95
4, 6542, Note_on_c, 1, 48, 0
4, 6542, Note_on_c, 1, 52, 0
4, 6542, Note_on_c, 1, 55, 0
4, 6618, Note_on_c, 1, 64, 45
4, 6618, Note_on_c, 1, 60, 42
4, 6624, Note_on_c, 1, 60, 0
4, 6624, Note_on_c, 1, 64, 0
4, 6624, Note_on_c, 1, 65, 40
4, 6624, Note_on_c, 1, 60, 30
4, 6624, Note_on_c, 1, 53, 47
4, 6664, Note_on_c, 1, 53, 0
4, 6664, Note_on_c, 1, 60, 0
4, 6664, Note_on_c, 1, 65, 0
4, 6666, Note_on_c, 1, 65, 38
4, 6666, Note_on_c, 1, 60, 28
4, 6666, Note_on_c, 1, 53, 43
4, 6672, Note_on_c, 1, 53, 0
4, 6672, Note_on_c, 1, 60, 0
4, 6672, Note_on_c, 1, 65, 0
4, 6672, Note_on_c, 1, 65, 42
4, 6672, Note_on_c, 1, 60, 32
4, 6672, Note_on_c, 1, 57, 50
4, 6712, Note_on_c, 1, 57, 0
4, 6712, Note_on_c, 1, 60, 0
4, 6712, Note_on_c, 1, 65, 0
4, 6714, Note_on_c, 1, 65, 40
4, 6714, Note_on_c, 1, 60, 30
4, 6714, Note_on_c, 1, 57, 46
4, 6720, Note_on_c, 1, 57, 0
4, 6720, Note_on_c, 1, 60, 0
4, 6720, Note_on_c, 1, 65, 0
4, 6720, Note_on_c, 1, 64, 35
4, 6720, Note_on_c, 1, 60, 40
4, 6768, Note_on_c, 1, 60, 0
4, 6768, Note_on_c, 1, 64, 0
4, 6810, Note_on_c, 1, 48, 75
4, 6810, Note_on_c, 1, 36, 95
4, 6816, Note_on_c, 1, 36, 0
4, 6816, Note_on_c, 1, 48, 0
4, 6816, Note_on_c, 1, 53, 80
4, 6816, Note_on_c, 1, 48, 60
4, 6816, Note_on_c, 1, 41, 102
4, 6856, Note_on_c, 1, 41, 0
4, 6856, Note_on_c, 1, 48, 0
4, 6856, Note_on_c, 1, 53, 0
4, 6858, Note_on_c, 1, 53, 75
4, 6858, Note_on_c, 1, 48, 50
4, 6858, Note_on_c, 1, 41, 98
4, 6864, Note_on_c, 1, 41, 0
4, 6864, Note_on_c, 1, 48, 0
4, 6864, Note_on_c, 1, 53, 0
4, 6864, Note_on_c, 1, 53, 83
4, 6864, Note_on_c, 1, 48, 63
4, 6864, Note_on_c, 1, 44, 105
4, 6904, Note_on_c, 1, 44, 0
4, 6904, Note_on_c, 1, 48, 0
4, 6904, Note_on_c, 1, 53, 0
4, 6906, Note_on_c, 1, 53, 78
4, 6906, Note_on_c, 1, 48, 53
4, 6906, Note_on_c, 1, 44, 101
4, 6912, Note_on_c, 1, 44, 0
4, 6912, Note_on_c, 1, 48, 0
4, 6912, Note_on_c, 1, 53, 0
4, 6912, Note_on_c, 1, 55, 60
4, 6912, Note_on_c, 1, 52, 90
4, 6912, Note_on_c, 1, 48, 95
4, 6926, Note_on_c, 1, 48, 0
4, 6926, Note_on_c, 1, 52, 0
4, 6926, Note_on_c, 1, 55, 0
4, 7002, Note_on_c, 1, 64, 45
4, 7002, Note_on_c, 1, 60, 42
4, 7008, Note_on_c, 1, 60, 0
4, 7008, Note_on_c, 1, 64, 0
4, 7008, Note_on_c, 1, 65, 40
4, 7008, Note_on_c, 1, 60, 30
4, 7008, Note_on_c, 1, 53, 47
4, 7048, Note_on_c, 1, 53, 0
4, 7048, Note_on_c, 1, 60, 0
4, 7048, Note_on_c, 1, 65, 0
4, 7050, Note_on_c, 1, 65, 38
4, 7050, Note_on_c, 1, 60, 28
4, 7050, Note_on_c, 1, 53, 43
4, 7056, Note_on_c, 1, 53, 0
4, 7056, Note_on_c, 1, 60, 0
4, 7056, Note_on_c, 1, 65, 0
4, 7056, Note_on_c, 1, 65, 42
4, 7056, Note_on_c, 1, 60, 32
4, 7056, Note_on_c, 1, 56, 50
4, 7096, Note_on_c, 1, 56, 0
4, 7096, Note_on_c, 1, 60, 0
4, 7096, Note_on_c, 1, 65, 0
4, 7098, Note_on_c, 1, 65, 40
4, 7098, Note_on_c, 1, 60, 30
4, 7098, Note_on_c, 1, 56, 46
4, 7104, Note_on_c, 1, 56, 0
4, 7104, Note_on_c, 1, 60, 0
4, 7104, Note_on_c, 1, 65, 0
4, 7104, Note_on_c, 1, 64, 35
4, 7104, Note_on_c, 1, 60, 50
4, 7128, Note_on_c, 1, 60, 0
4, 7128, Note_on_c, 1, 64, 0
4, 7128, Note_on_c, 1, 67, 40
4, 7128, Note_on_c, 1, 64, 35
4, 7128, Note_on_c, 1, 60, 20
4, 7144, Note_on_c, 1, 60, 0
4, 7144, Note_on_c, 1, 64, 0
4, 7144, Note_on_c, 1, 67, 0
4, 7152, Note_on_c, 1, 53, 45
4, 7176, Note_on_c, 1, 53, 0
4, 7176, Note_on_c, 1, 65, 38
4, 7176, Note_on_c, 1, 60, 20
4, 7176, Note_on_c, 1, 56, 32
4, 7192, Note_on_c, 1, 56, 0
4, 7192, Note_on_c, 1, 60, 0
4, 7192, Note_on_c, 1, 65, 0
4, 7194, Note_on_c, 1, 48, 48
4, 7200, Note_on_c, 1, 55, 30
4, 7203, Note_on_c, 1, 64, 38
4, 7218, Note_on_c, 1, 48, 0
4, 7224, Note_on_c, 1, 64, 0
4, 7224, Note_on_c, 1, 55, 0
4, 7224, Note_on_c, 1, 67, 40
4, 7224, Note_on_c, 1, 64, 35
4, 7224, Note_on_c, 1, 60, 20
4, 7240, Note_on_c, 1, 60, 0
4, 7240, Note_on_c, 1, 64, 0
4, 7240, Note_on_c, 1, 67, 0
4, 7248, Note_on_c, 1, 53, 52
4, 7272, Note_on_c, 1, 53, 0
4, 7272, Note_on_c, 1, 65, 45
4, 7272, Note_on_c, 1, 60, 27
4, 7272, Note_on_c, 1, 56, 39
4, 7288, Note_on_c, 1, 56, 0
4, 7288, Note_on_c, 1, 60, 0
4, 7288, Note_on_c, 1, 65, 0
4, 7292, Note_on_c, 1, 48, 55
4, 7296, Note_on_c, 1, 55, 35
4, 7298, Note_on_c, 1, 64, 42
4, 7316, Note_on_c, 1, 64, 0
4, 7316, Note_on_c, 1, 55, 0
4, 7316, Note_on_c, 1, 48, 0
4, 7320, Note_on_c, 1, 67, 47
4, 7320, Note_on_c, 1, 64, 42
4, 7320, Note_on_c, 1, 60, 27
4, 7336, Note_on_c, 1, 60, 0
4, 7336, Note_on_c, 1, 64, 0
4, 7336, Note_on_c, 1, 67, 0
4, 7344, Note_on_c, 1, 48, 53
4, 7368, Note_on_c, 1, 48, 0
4, 7368, Note_on_c, 1, 69, 41
4, 7368, Note_on_c, 1, 66, 23
4, 7368, Note_on_c, 1, 60, 35
4, 7384, Note_on_c, 1, 60, 0
4, 7384, Note_on_c, 1, 66, 0
4, 7384, Note_on_c, 1, 69, 0
4, 7392, Note_on_c, 1, 48, 50
4, 7416, Note_on_c, 1, 48, 0
4, 7416, Note_on_c, 1, 70, 36
4, 7416, Note_on_c, 1, 67, 18
4, 7416, Note_on_c, 1, 60, 30
4, 7432, Note_on_c, 1, 60, 0
4, 7432, Note_on_c, 1, 67, 0
4, 7432, Note_on_c, 1, 70, 0
4, 7440, Note_on_c, 1, 48, 54
4, 7464, Note_on_c, 1, 48, 0
4, 7464, Note_on_c, 1, 67, 38
4, 7464, Note_on_c, 1, 64, 20
4, 7464, Note_on_c, 1, 58, 32
4, 7480, Note_on_c, 1, 58, 0
4, 7480, Note_on_c, 1, 64, 0
4, 7480, Note_on_c, 1, 67, 0
4, 7488, Note_on_c, 1, 48, 44
4, 7488, Note_on_c, 1, 36, 57
4, 7512, Note_on_c, 1, 36, 0
4, 7512, Note_on_c, 1, 48, 0
4, 7512, Note_on_c, 1, 64, 40
4, 7512, Note_on_c, 1, 58, 22
4, 7512, Note_on_c, 1, 55, 34
4, 7528, Note_on_c, 1, 55, 0
4, 7528, Note_on_c, 1, 58, 0
4, 7528, Note_on_c, 1, 64, 0
4, 7536, Note_on_c, 1, 48, 37
4, 7536, Note_on_c, 1, 36, 50
4, 7560, Note_on_c, 1, 36, 0
4, 7560, Note_on_c, 1, 48, 0
4, 7560, Note_on_c, 1, 64, 35
4, 7560, Note_on_c, 1, 58, 17
4, 7560, Note_on_c, 1, 55, 29
4, 7576, Note_on_c, 1, 55, 0
4, 7576, Note_on_c, 1, 58, 0
4, 7576, Note_on_c, 1, 64, 0
4, 7680, Note_on_c, 1, 53, 30
4, 7680, Note_on_c, 1, 41, 45
4, 7704, Note_on_c, 1, 41, 0
4, 7704, Note_on_c, 1, 53, 0
4, 7704, Note_on_c, 1, 65, 38
4, 7704, Note_on_c, 1, 60, 25
4, 7704, Note_on_c, 1, 57, 30
4, 7724, Note_on_c, 1, 57, 0
4, 7724, Note_on_c, 1, 60, 0
4, 7724, Note_on_c, 1, 65, 0
4, 7728, Note_on_c, 1, 53, 40
4, 7752, Note_on_c, 1, 53, 0
4, 7752, Note_on_c, 1, 65, 33
4, 7752, Note_on_c, 1, 60, 20
4, 7752, Note_on_c, 1, 57, 25
4, 7772, Note_on_c, 1, 57, 0
4, 7772, Note_on_c, 1, 60, 0
4, 7772, Note_on_c, 1, 65, 0
4, 7776, Note_on_c, 1, 46, 44
4, 7800, Note_on_c, 1, 46, 0
4, 7800, Note_on_c, 1, 67, 31
4, 7800, Note_on_c, 1, 62, 16
4, 7800, Note_on_c, 1, 58, 24
4, 7820, Note_on_c, 1, 58, 0
4, 7820, Note_on_c, 1, 62, 0
4, 7820, Note_on_c, 1, 67, 0
4, 7824, Note_on_c, 1, 46, 48
4, 7848, Note_on_c, 1, 46, 0
4, 7848, Note_on_c, 1, 67, 35
4, 7848, Note_on_c, 1, 62, 20
4, 7848, Note_on_c, 1, 58, 28
4, 7868, Note_on_c, 1, 58, 0
4, 7868, Note_on_c, 1, 62, 0
4, 7868, Note_on_c, 1, 67, 0
4, 7872, Note_on_c, 1, 48, 50
4, 7896, Note_on_c, 1, 48, 0
4, 7896, Note_on_c, 1, 65, 35
4, 7896, Note_on_c, 1, 60, 20
4, 7896, Note_on_c, 1, 57, 28
4, 7916, Note_on_c, 1, 57, 0
4, 7916, Note_on_c, 1, 60, 0
4, 7916, Note_on_c, 1, 65, 0
4, 7920, Note_on_c, 1, 48, 47
4, 7944, Note_on_c, 1, 48, 0
4, 7944, Note_on_c, 1, 64, 32
4, 7944, Note_on_c, 1, 60, 25
4, 7944, Note_on_c, 1, 55, 17
4, 7964, Note_on_c, 1, 55, 0
4, 7964, Note_on_c, 1, 60, 0
4, 7964, Note_on_c, 1, 64, 0
4, 7968, Note_on_c, 1, 48, 43
4, 7992, Note_on_c, 1, 48, 0
4, 7992, Note_on_c, 1, 64, 28
4, 7992, Note_on_c, 1, 60, 25
4, 7992, Note_on_c, 1, 55, 13
4, 8012, Note_on_c, 1, 55, 0
4, 8012, Note_on_c, 1, 60, 0
4, 8012, Note_on_c, 1, 64, 0
4, 8016, Note_on_c, 1, 46, 45
4, 8040, Note_on_c, 1, 46, 0
4, 8040, Note_on_c, 1, 64, 30
4, 8040, Note_on_c, 1, 60, 20
4, 8040, Note_on_c, 1, 55, 15
4, 8060, Note_on_c, 1, 55, 0
4, 8060, Note_on_c, 1, 60, 0
4, 8060, Note_on_c, 1, 64, 0
4, 8064, Note_on_c, 1, 45, 50
4, 8088, Note_on_c, 1, 45, 0
4, 8088, Note_on_c, 1, 65, 35
4, 8088, Note_on_c, 1, 60, 20
4, 8088, Note_on_c, 1, 57, 28
4, 8108, Note_on_c, 1, 57, 0
4, 8108, Note_on_c, 1, 60, 0
4, 8108, Note_on_c, 1, 65, 0
4, 8112, Note_on_c, 1, 52, 48
4, 8136, Note_on_c, 1, 52, 0
4, 8136, Note_on_c, 1, 67, 33
4, 8136, Note_on_c, 1, 60, 22
4, 8156, Note_on_c, 1, 60, 0
4, 8156, Note_on_c, 1, 67, 0
4, 8160, Note_on_c, 1, 53, 52
4, 8184, Note_on_c, 1, 53, 0
4, 8184, Note_on_c, 1, 69, 37
4, 8184, Note_on_c, 1, 65, 30
4, 8184, Note_on_c, 1, 60, 22
4, 8204, Note_on_c, 1, 60, 0
4, 8204, Note_on_c, 1, 65, 0
4, 8204, Note_on_c, 1, 69, 0
4, 8208, Note_on_c, 1, 46, 55
4, 8232, Note_on_c, 1, 46, 0
4, 8232, Note_on_c, 1, 70, 35
4, 8232, Note_on_c, 1, 67, 30
4, 8232, Note_on_c, 1, 62, 20
4, 8252, Note_on_c, 1, 62, 0
4, 8252, Note_on_c, 1, 67, 0
4, 8252, Note_on_c, 1, 70, 0
4, 8256, Note_on_c, 1, 48, 48
4, 8280, Note_on_c, 1, 48, 0
4, 8280, Note_on_c, 1, 69, 35
4, 8280, Note_on_c, 1, 65, 28
4, 8280, Note_on_c, 1, 60, 20
4, 8300, Note_on_c, 1, 60, 0
4, 8300, Note_on_c, 1, 65, 0
4, 8300, Note_on_c, 1, 69, 0
4, 8304, Note_on_c, 1, 48, 43
4, 8328, Note_on_c, 1, 48, 0
4, 8328, Note_on_c, 1, 69, 30
4, 8328, Note_on_c, 1, 65, 23
4, 8328, Note_on_c, 1, 60, 15
4, 8348, Note_on_c, 1, 60, 0
4, 8348, Note_on_c, 1, 65, 0
4, 8348, Note_on_c, 1, 69, 0
4, 8352, Note_on_c, 1, 48, 45
4, 8376, Note_on_c, 1, 48, 0
4, 8376, Note_on_c, 1, 67, 32
4, 8376, Note_on_c, 1, 64, 25
4, 8376, Note_on_c, 1, 60, 17
4, 8396, Note_on_c, 1, 60, 0
4, 8396, Note_on_c, 1, 64, 0
4, 8396, Note_on_c, 1, 67, 0
4, 8400, Note_on_c, 1, 48, 40
4, 8424, Note_on_c, 1, 48, 0
4, 8424, Note_on_c, 1, 67, 30
4, 8424, Note_on_c, 1, 64, 23
4, 8424, Note_on_c, 1, 60, 15
4, 8436, Note_on_c, 1, 48, 70
4, 8442, Note_on_c, 1, 55, 54
4, 8444, Note_on_c, 1, 60, 0
4, 8444, Note_on_c, 1, 64, 0
4, 8444, Note_on_c, 1, 67, 0
4, 8445, Note_on_c, 1, 58, 57
4, 8448, Note_on_c, 1, 64, 60
4, 8554, Note_on_c, 1, 48, 0
4, 8554, Note_on_c, 1, 55, 0
4, 8554, Note_on_c, 1, 58, 0
4, 8554, Note_on_c, 1, 64, 0
4, 8568, Note_on_c, 1, 69, 50
4, 8592, Note_on_c, 1, 70, 45
4, 8592, Note_on_c, 1, 67, 52
4, 8594, Note_on_c, 1, 69, 0
4, 8616, Note_on_c, 1, 69, 42
4, 8616, Note_on_c, 1, 65, 55
4, 8618, Note_on_c, 1, 67, 0
4, 8618, Note_on_c, 1, 70, 0
4, 8632, Note_on_c, 1, 48, 60
4, 8636, Note_on_c, 1, 55, 44
4, 8638, Note_on_c, 1, 58, 47
4, 8640, Note_on_c, 1, 64, 50
4, 8642, Note_on_c, 1, 65, 0
4, 8642, Note_on_c, 1, 69, 0
4, 8748, Note_on_c, 1, 48, 0
4, 8748, Note_on_c, 1, 55, 0
4, 8748, Note_on_c, 1, 58, 0
4, 8748, Note_on_c, 1, 64, 0
4, 8760, Note_on_c, 1, 65, 30
4, 8760, Note_on_c, 1, 57, 40
4, 8782, Note_on_c, 1, 57, 0
4, 8782, Note_on_c, 1, 65, 0
4, 8784, Note_on_c, 1, 65, 32
4, 8784, Note_on_c, 1, 56, 42
4, 8806, Note_on_c, 1, 56, 0
4, 8806, Note_on_c, 1, 65, 0
4, 8808, Note_on_c, 1, 65, 27
4, 8808, Note_on_c, 1, 57, 40
4, 8830, Note_on_c, 1, 57, 0
4, 8830, Note_on_c, 1, 65, 0
4, 8832, Note_on_c, 1, 46, 45
4, 8856, Note_on_c, 1, 46, 0
4, 8856, Note_on_c, 1, 65, 38
4, 8856, Note_on_c, 1, 62, 30
4, 8856, Note_on_c, 1, 58, 25
4, 8876, Note_on_c, 1, 58, 0
4, 8876, Note_on_c, 1, 62, 0
4, 8876, Note_on_c, 1, 65, 0
4, 8880, Note_on_c, 1, 46, 48
4, 8904, Note_on_c, 1, 46, 0
4, 8904, Note_on_c, 1, 65, 40
4, 8904, Note_on_c, 1, 62, 35
4, 8904, Note_on_c, 1, 58, 22
4, 8924, Note_on_c, 1, 58, 0
4, 8924, Note_on_c, 1, 62, 0
4, 8924, Note_on_c, 1, 65, 0
4, 8928, Note_on_c, 1, 48, 50
4, 8952, Note_on_c, 1, 48, 0
4, 8952, Note_on_c, 1, 65, 42
4, 8952, Note_on_c, 1, 60, 28
4, 8952, Note_on_c, 1, 57, 38
4, 8972, Note_on_c, 1, 57, 0
4, 8972, Note_on_c, 1, 60, 0
4, 8972, Note_on_c, 1, 65, 0
4, 8976, Note_on_c, 1, 48, 38
4, 8976, Note_on_c, 1, 36, 55
4, 9000, Note_on_c, 1, 36, 0
4, 9000, Note_on_c, 1, 48, 0
4, 9000, Note_on_c, 1, 64, 42
4, 9000, Note_on_c, 1, 60, 22
4, 9000, Note_on_c, 1, 58, 28
4, 9020, Note_on_c, 1, 58, 0
4, 9020, Note_on_c, 1, 60, 0
4, 9020, Note_on_c, 1, 64, 0
4, 9024, Note_on_c, 1, 64, 45
4, 9024, Note_on_c, 1, 60, 25
4, 9024, Note_on_c, 1, 58, 33
4, 9024, Note_on_c, 1, 53, 50
4, 9044, Note_on_c, 1, 53, 0
4, 9072, Note_on_c, 1, 41, 40
4, 9088, Note_on_c, 1, 41, 0
4, 9120, Note_on_c, 1, 65, 40
4, 9120, Note_on_c, 1, 57, 28
4, 9120, Note_on_c, 1, 53, 45
4, 9122, Note_on_c, 1, 58, 0
4, 9122, Note_on_c, 1, 64, 0
4, 9130, Note_on_c, 1, 53, 0
4, 9130, Note_on_c, 1, 57, 0
4, 9130, Note_on_c, 1, 60, 0
4, 9130, Note_on_c, 1, 65, 0
4, 9132, Note_on_c, 1, 60, 50
4, 9144, Note_on_c, 1, 59, 52
4, 9146, Note_on_c, 1, 60, 0
4, 9156, Note_on_c, 1, 60, 48
4, 9158, Note_on_c, 1, 59, 0
4, 9168, Note_on_c, 1, 62, 45
4, 9170, Note_on_c, 1, 60, 0
4, 9180, Note_on_c, 1, 60, 52
4, 9182, Note_on_c, 1, 62, 0
4, 9192, Note_on_c, 1, 58, 56
4, 9194, Note_on_c, 1, 60, 0
4, 9204, Note_on_c, 1, 55, 60
4, 9206, Note_on_c, 1, 58, 0
4, 9216, Note_on_c, 1, 53, 40
4, 9216, Note_on_c, 1, 41, 55
4, 9218, Note_on_c, 1, 55, 0
4, 9228, Note_on_c, 1, 60, 28
4, 9228, Note_on_c, 1, 57, 35
4, 9230, Note_on_c, 1, 41, 0
4, 9230, Note_on_c, 1, 53, 0
4, 9234, Note_on_c, 1, 57, 0
4, 9234, Note_on_c, 1, 60, 0
4, 9240, Note_on_c, 1, 60, 30
4, 9240, Note_on_c, 1, 57, 37
4, 9248, Note_on_c, 1, 57, 0
4, 9248, Note_on_c, 1, 60, 0
4, 9252, Note_on_c, 1, 60, 27
4, 9252, Note_on_c, 1, 57, 32
4, 9258, Note_on_c, 1, 57, 0
4, 9258, Note_on_c, 1, 60, 0
4, 9264, Note_on_c, 1, 53, 48
4, 9276, Note_on_c, 1, 60, 25
4, 9276, Note_on_c, 1, 57, 32
4, 9278, Note_on_c, 1, 53, 0
4, 9282, Note_on_c, 1, 57, 0
4, 9282, Note_on_c, 1, 60, 0
4, 9288, Note_on_c, 1, 60, 27
4, 9288, Note_on_c, 1, 57, 34
4, 9296, Note_on_c, 1, 57, 0
4, 9296, Note_on_c, 1, 60, 0
4, 9300, Note_on_c, 1, 60, 24
4, 9300, Note_on_c, 1, 57, 29
4, 9306, Note_on_c, 1, 57, 0
4, 9306, Note_on_c, 1, 60, 0
4, 9312, Note_on_c, 1, 46, 30
4, 9312, Note_on_c, 1, 34, 50
4, 9324, Note_on_c, 1, 62, 28
4, 9324, Note_on_c, 1, 58, 35
4, 9326, Note_on_c, 1, 34, 0
4, 9326, Note_on_c, 1, 46, 0
4, 9330, Note_on_c, 1, 58, 0
4, 9330, Note_on_c, 1, 62, 0
4, 9336, Note_on_c, 1, 62, 30
4, 9336, Note_on_c, 1, 58, 37
4, 9344, Note_on_c, 1, 58, 0
4, 9344, Note_on_c, 1, 62, 0
4, 9348, Note_on_c, 1, 62, 27
4, 9348, Note_on_c, 1, 58, 32
4, 9354, Note_on_c, 1, 58, 0
4, 9354, Note_on_c, 1, 62, 0
4, 9360, Note_on_c, 1, 46, 45
4, 9372, Note_on_c, 1, 62, 25
4, 9372, Note_on_c, 1, 58, 32
4, 9374, Note_on_c, 1, 46, 0
4, 9378, Note_on_c, 1, 58, 0
4, 9378, Note_on_c, 1, 62, 0
4, 9384, Note_on_c, 1, 62, 27
4, 9384, Note_on_c, 1, 58, 34
4, 9392, Note_on_c, 1, 58, 0
4, 9392, Note_on_c, 1, 62, 0
4, 9396, Note_on_c, 1, 62, 32
4, 9396, Note_on_c, 1, 58, 37
4, 9402, Note_on_c, 1, 58, 0
4, 9402, Note_on_c, 1, 62, 0
4, 9408, Note_on_c, 1, 48, 40
4, 9408, Note_on_c, 1, 36, 55
4, 9420, Note_on_c, 1, 60, 28
4, 9420, Note_on_c, 1, 55, 35
4, 9422, Note_on_c, 1, 36, 0
4, 9422, Note_on_c, 1, 48, 0
4, 9426, Note_on_c, 1, 55, 0
4, 9426, Note_on_c, 1, 60, 0
4, 9432, Note_on_c, 1, 60, 30
4, 9432, Note_on_c, 1, 55, 37
4, 9440, Note_on_c, 1, 55, 0
4, 9440, Note_on_c, 1, 60, 0
4, 9444, Note_on_c, 1, 60, 27
4, 9444, Note_on_c, 1, 55, 32
4, 9450, Note_on_c, 1, 55, 0
4, 9450, Note_on_c, 1, 60, 0
4, 9456, Note_on_c, 1, 48, 48
4, 9468, Note_on_c, 1, 60, 25
4, 9468, Note_on_c, 1, 55, 32
4, 9474, Note_on_c, 1, 55, 0
4, 9474, Note_on_c, 1, 60, 0
4, 9480, Note_on_c, 1, 60, 27
4, 9480, Note_on_c, 1, 55, 34
4, 9488, Note_on_c, 1, 55, 0
4, 9488, Note_on_c, 1, 60, 0
4, 9492, Note_on_c, 1, 60, 24
4, 9492, Note_on_c, 1, 55, 29
4, 9498, Note_on_c, 1, 55, 0
4, 9498, Note_on_c, 1, 60, 0
4, 9504, Note_on_c, 1, 48, 0
4, 9504, Note_on_c, 1, 48, 45
4, 9516, Note_on_c, 1, 60, 28
4, 9516, Note_on_c, 1, 55, 20
4, 9516, Note_on_c, 1, 52, 35
4, 9522, Note_on_c, 1, 52, 0
4, 9522, Note_on_c, 1, 55, 0
4, 9522, Note_on_c, 1, 60, 0
4, 9528, Note_on_c, 1, 60, 30
4, 9528, Note_on_c, 1, 55, 18
4, 9528, Note_on_c, 1, 52, 37
4, 9536, Note_on_c, 1, 52, 0
4, 9536, Note_on_c, 1, 55, 0
4, 9536, Note_on_c, 1, 60, 0
4, 9540, Note_on_c, 1, 60, 27
4, 9540, Note_on_c, 1, 55, 20
4, 9540, Note_on_c, 1, 52, 32
4, 9546, Note_on_c, 1, 52, 0
4, 9546, Note_on_c, 1, 55, 0
4, 9546, Note_on_c, 1, 60, 0
4, 9552, Note_on_c, 1, 48, 0
4, 9552, Note_on_c, 1, 46, 50
4, 9564, Note_on_c, 1, 60, 25
4, 9564, Note_on_c, 1, 55, 15
4, 9564, Note_on_c, 1, 52, 32
4, 9570, Note_on_c, 1, 52, 0
4, 9570, Note_on_c, 1, 55, 0
4, 9570, Note_on_c, 1, 60, 0
4, 9576, Note_on_c, 1, 60, 27
4, 9576, Note_on_c, 1, 55, 18
4, 9576, Note_on_c, 1, 52, 34
4, 9584, Note_on_c, 1, 52, 0
4, 9584, Note_on_c, 1, 55, 0
4, 9584, Note_on_c, 1, 60, 0
4, 9588, Note_on_c, 1, 60, 32
4, 9588, Note_on_c, 1, 55, 20
4, 9588, Note_on_c, 1, 52, 37
4, 9594, Note_on_c, 1, 52, 0
4, 9594, Note_on_c, 1, 55, 0
4, 9594, Note_on_c, 1, 60, 0
4, 9600, Note_on_c, 1, 46, 0
4, 9600, Note_on_c, 1, 45, 55
4, 9612, Note_on_c, 1, 60, 28
4, 9612, Note_on_c, 1, 53, 35
4, 9618, Note_on_c, 1, 53, 0
4, 9618, Note_on_c, 1, 60, 0
4, 9624, Note_on_c, 1, 60, 30
4, 9624, Note_on_c, 1, 53, 37
4, 9632, Note_on_c, 1, 53, 0
4, 9632, Note_on_c, 1, 60, 0
4, 9636, Note_on_c, 1, 60, 27
4, 9636, Note_on_c, 1, 53, 32
4, 9642, Note_on_c, 1, 53, 0
4, 9642, Note_on_c, 1, 60, 0
4, 9648, Note_on_c, 1, 45, 0
4, 9648, Note_on_c, 1, 52, 48
4, 9660, Note_on_c, 1, 60, 25
4, 9660, Note_on_c, 1, 58, 32
4, 9666, Note_on_c, 1, 58, 0
4, 9666, Note_on_c, 1, 60, 0
4, 9672, Note_on_c, 1, 60, 27
4, 9672, Note_on_c, 1, 58, 34
4, 9680, Note_on_c, 1, 58, 0
4, 9680, Note_on_c, 1, 60, 0
4, 9684, Note_on_c, 1, 60, 24
4, 9684, Note_on_c, 1, 58, 29
4, 9690, Note_on_c, 1, 58, 0
4, 9690, Note_on_c, 1, 60, 0
4, 9696, Note_on_c, 1, 52, 0
4, 9696, Note_on_c, 1, 53, 50
4, 9708, Note_on_c, 1, 60, 28
4, 9708, Note_on_c, 1, 57, 35
4, 9714, Note_on_c, 1, 57, 0
4, 9714, Note_on_c, 1, 60, 0
4, 9720, Note_on_c, 1, 60, 30
4, 9720, Note_on_c, 1, 57, 37
4, 9728, Note_on_c, 1, 57, 0
4, 9728, Note_on_c, 1, 60, 0
4, 9732, Note_on_c, 1, 60, 27
4, 9732, Note_on_c, 1, 57, 32
4, 9738, Note_on_c, 1, 57, 0
4, 9738, Note_on_c, 1, 60, 0
4, 9744, Note_on_c, 1, 53, 0
4, 9744, Note_on_c, 1, 46, 55
4, 9756, Note_on_c, 1, 62, 30
4, 9756, Note_on_c, 1, 58, 37
4, 9762, Note_on_c, 1, 58, 0
4, 9762, Note_on_c, 1, 62, 0
4, 9768, Note_on_c, 1, 62, 32
4, 9768, Note_on_c, 1, 58, 39
4, 9776, Note_on_c, 1, 58, 0
4, 9776, Note_on_c, 1, 62, 0
4, 9780, Note_on_c, 1, 62, 37
4, 9780, Note_on_c, 1, 58, 42
4, 9786, Note_on_c, 1, 58, 0
4, 9786, Note_on_c, 1, 62, 0
4, 9792, Note_on_c, 1, 46, 0
4, 9792, Note_on_c, 1, 48, 50
4, 9804, Note_on_c, 1, 60, 28
4, 9804, Note_on_c, 1, 57, 35
4, 9810, Note_on_c, 1, 57, 0
4, 9810, Note_on_c, 1, 60, 0
4, 9816, Note_on_c, 1, 60, 30
4, 9816, Note_on_c, 1, 57, 37
4, 9824, Note_on_c, 1, 57, 0
4, 9824, Note_on_c, 1, 60, 0
4, 9828, Note_on_c, 1, 60, 27
4, 9828, Note_on_c, 1, 57, 32
4, 9834, Note_on_c, 1, 57, 0
4, 9834, Note_on_c, 1, 60, 0
4, 9840, Note_on_c, 1, 48, 0
4, 9840, Note_on_c, 1, 48, 48
4, 9852, Note_on_c, 1, 60, 25
4, 9852, Note_on_c, 1, 57, 32
4, 9852, Note_on_c, 1, 53, 28
4, 9858, Note_on_c, 1, 53, 0
4, 9858, Note_on_c, 1, 57, 0
4, 9858, Note_on_c, 1, 60, 0
4, 9864, Note_on_c, 1, 60, 25
4, 9864, Note_on_c, 1, 57, 34
4, 9864, Note_on_c, 1, 53, 23
4, 9872, Note_on_c, 1, 53, 0
4, 9872, Note_on_c, 1, 57, 0
4, 9872, Note_on_c, 1, 60, 0
4, 9876, Note_on_c, 1, 60, 20
4, 9876, Note_on_c, 1, 57, 29
4, 9876, Note_on_c, 1, 53, 25
4, 9882, Note_on_c, 1, 53, 0
4, 9882, Note_on_c, 1, 57, 0
4, 9882, Note_on_c, 1, 60, 0
4, 9888, Note_on_c, 1, 48, 0
4, 9888, Note_on_c, 1, 48, 45
4, 9900, Note_on_c, 1, 60, 28
4, 9900, Note_on_c, 1, 55, 20
4, 9900, Note_on_c, 1, 52, 35
4, 9906, Note_on_c, 1, 52, 0
4, 9906, Note_on_c, 1, 55, 0
4, 9906, Note_on_c, 1, 60, 0
4, 9912, Note_on_c, 1, 60, 30
4, 9912, Note_on_c, 1, 55, 18
4, 9912, Note_on_c, 1, 52, 37
4, 9920, Note_on_c, 1, 52, 0
4, 9920, Note_on_c, 1, 55, 0
4, 9920, Note_on_c, 1, 60, 0
4, 9924, Note_on_c, 1, 60, 27
4, 9924, Note_on_c, 1, 55, 20
4, 9924, Note_on_c, 1, 52, 32
4, 9930, Note_on_c, 1, 52, 0
4, 9930, Note_on_c, 1, 55, 0
4, 9930, Note_on_c, 1, 60, 0
4, 9936, Note_on_c, 1, 48, 0
4, 9936, Note_on_c, 1, 48, 50
4, 9948, Note_on_c, 1, 60, 25
4, 9948, Note_on_c, 1, 55, 15
4, 9948, Note_on_c, 1, 52, 32
4, 9954, Note_on_c, 1, 52, 0
4, 9954, Note_on_c, 1, 55, 0
4, 9954, Note_on_c, 1, 60, 0
4, 9960, Note_on_c, 1, 60, 27
4, 9960, Note_on_c, 1, 55, 18
4, 9960, Note_on_c, 1, 52, 34
4, 9968, Note_on_c, 1, 52, 0
4, 9968, Note_on_c, 1, 55, 0
4, 9968, Note_on_c, 1, 60, 0
4, 9972, Note_on_c, 1, 60, 32
4, 9972, Note_on_c, 1, 55, 20
4, 9972, Note_on_c, 1, 52, 37
4, 9978, Note_on_c, 1, 52, 0
4, 9978, Note_on_c, 1, 55, 0
4, 9978, Note_on_c, 1, 60, 0
4, 9984, Note_on_c, 1, 48, 0
4, 9996, Note_on_c, 1, 48, 65
4, 9996, Note_on_c, 1, 36, 80
4, 10006, Note_on_c, 1, 36, 0
4, 10006, Note_on_c, 1, 48, 0
4, 10008, Note_on_c, 1, 52, 62
4, 10008, Note_on_c, 1, 40, 75
4, 10018, Note_on_c, 1, 40, 0
4, 10018, Note_on_c, 1, 52, 0
4, 10020, Note_on_c, 1, 48, 64
4, 10020, Note_on_c, 1, 36, 78
4, 10030, Note_on_c, 1, 36, 0
4, 10030, Note_on_c, 1, 48, 0
4, 10032, Note_on_c, 1, 52, 60
4, 10032, Note_on_c, 1, 40, 72
4, 10042, Note_on_c, 1, 40, 0
4, 10042, Note_on_c, 1, 52, 0
4, 10044, Note_on_c, 1, 48, 62
4, 10044, Note_on_c, 1, 36, 75
4, 10054, Note_on_c, 1, 36, 0
4, 10054, Note_on_c, 1, 48, 0
4, 10056, Note_on_c, 1, 52, 58
4, 10056, Note_on_c, 1, 40, 68
4, 10066, Note_on_c, 1, 40, 0
4, 10066, Note_on_c, 1, 52, 0
4, 10068, Note_on_c, 1, 55, 55
4, 10068, Note_on_c, 1, 43, 64
4, 10078, Note_on_c, 1, 43, 0
4, 10078, Note_on_c, 1, 55, 0
4, 10080, Note_on_c, 1, 58, 50
4, 10080, Note_on_c, 1, 46, 60
4, 10090, Note_on_c, 1, 46, 0
4, 10090, Note_on_c, 1, 58, 0
4, 10104, Note_on_c, 1, 60, 40
4, 10104, Note_on_c, 1, 57, 70
4, 10128, Note_on_c, 1, 58, 60
4, 10128, Note_on_c, 1, 55, 72
4, 10130, Note_on_c, 1, 57, 0
4, 10152, Note_on_c, 1, 60, 0
4, 10152, Note_on_c, 1, 60, 45
4, 10152, Note_on_c, 1, 57, 55
4, 10152, Note_on_c, 1, 53, 75
4, 10154, Note_on_c, 1, 55, 0
4, 10154, Note_on_c, 1, 58, 0
4, 10178, Note_on_c, 1, 53, 0
4, 10178, Note_on_c, 1, 57, 0
4, 10178, Note_on_c, 1, 60, 0
4, 10188, Note_on_c, 1, 48, 60
4, 10188, Note_on_c, 1, 36, 75
4, 10198, Note_on_c, 1, 36, 0
4, 10198, Note_on_c, 1, 48, 0
4, 10200, Note_on_c, 1, 52, 57
4, 10200, Note_on_c, 1, 40, 70
4, 10210, Note_on_c, 1, 40, 0
4, 10210, Note_on_c, 1, 52, 0
4, 10212, Note_on_c, 1, 48, 59
4, 10212, Note_on_c, 1, 36, 73
4, 10222, Note_on_c, 1, 36, 0
4, 10222, Note_on_c, 1, 48, 0
4, 10224, Note_on_c, 1, 52, 55
4, 10224, Note_on_c, 1, 40, 67
4, 10234, Note_on_c, 1, 40, 0
4, 10234, Note_on_c, 1, 52, 0
4, 10236, Note_on_c, 1, 48, 57
4, 10236, Note_on_c, 1, 36, 70
4, 10246, Note_on_c, 1, 36, 0
4, 10246, Note_on_c, 1, 48, 0
4, 10248, Note_on_c, 1, 52, 53
4, 10248, Note_on_c, 1, 40, 63
4, 10258, Note_on_c, 1, 40, 0
4, 10258, Note_on_c, 1, 52, 0
4, 10260, Note_on_c, 1, 55, 50
4, 10260, Note_on_c, 1, 43, 59
4, 10270, Note_on_c, 1, 43, 0
4, 10270, Note_on_c, 1, 55, 0
4, 10272, Note_on_c, 1, 58, 45
4, 10272, Note_on_c, 1, 46, 55
4, 10282, Note_on_c, 1, 46, 0
4, 10282, Note_on_c, 1, 58, 0
4, 10296, Note_on_c, 1, 60, 45
4, 10296, Note_on_c, 1, 57, 65
4, 10320, Note_on_c, 1, 59, 63
4, 10320, Note_on_c, 1, 56, 70
4, 10322, Note_on_c, 1, 57, 0
4, 10322, Note_on_c, 1, 60, 0
4, 10344, Note_on_c, 1, 60, 51
4, 10344, Note_on_c, 1, 57, 64
4, 10346, Note_on_c, 1, 56, 0
4, 10346, Note_on_c, 1, 59, 0
4, 10368, Note_on_c, 1, 55, 52
4, 10368, Note_on_c, 1, 53, 42
4, 10368, Note_on_c, 1, 46, 62
4, 10370, Note_on_c, 1, 57, 0
4, 10370, Note_on_c, 1, 60, 0
4, 10416, Note_on_c, 1, 47, 57
4, 10418, Note_on_c, 1, 46, 0
4, 10440, Note_on_c, 1, 53, 0
4, 10440, Note_on_c, 1, 55, 0
4, 10440, Note_on_c, 1, 55, 30
4, 10440, Note_on_c, 1, 53, 42
4, 10440, Note_on_c, 1, 50, 22
4, 10464, Note_on_c, 1, 50, 0
4, 10464, Note_on_c, 1, 53, 0
4, 10464, Note_on_c, 1, 55, 0
4, 10464, Note_on_c, 1, 57, 37
4, 10464, Note_on_c, 1, 53, 29
4, 10464, Note_on_c, 1, 48, 55
4, 10466, Note_on_c, 1, 47, 0
4, 10512, Note_on_c, 1, 48, 0
4, 10512, Note_on_c, 1, 53, 0
4, 10512, Note_on_c, 1, 57, 0
4, 10512, Note_on_c, 1, 58, 40
4, 10512, Note_on_c, 1, 52, 34
4, 10512, Note_on_c, 1, 48, 49
4, 10560, Note_on_c, 1, 48, 0
4, 10560, Note_on_c, 1, 52, 0
4, 10560, Note_on_c, 1, 58, 0
4, 10560, Note_on_c, 1, 57, 38
4, 10560, Note_on_c, 1, 53, 45
4, 10600, Note_on_c, 1, 53, 0
4, 10600, Note_on_c, 1, 57, 0
4, 10608, Note_on_c, 1, 57, 80
4, 10608, Note_on_c, 1, 45, 100
4, 10650, Note_on_c, 1, 45, 0
4, 10650, Note_on_c, 1, 57, 0
4, 10650, Note_on_c, 1, 57, 78
4, 10650, Note_on_c, 1, 45, 95
4, 10656, Note_on_c, 1, 50, 75
4, 10656, Note_on_c, 1, 38, 105
4, 10658, Note_on_c, 1, 45, 0
4, 10658, Note_on_c, 1, 57, 0
4, 10696, Note_on_c, 1, 38, 0
4, 10696, Note_on_c, 1, 50, 0
4, 10704, Note_on_c, 1, 62, 80
4, 10704, Note_on_c, 1, 50, 100
4, 10746, Note_on_c, 1, 50, 0
4, 10746, Note_on_c, 1, 62, 0
4, 10746, Note_on_c, 1, 62, 78
4, 10746, Note_on_c, 1, 50, 95
4, 10752, Note_on_c, 1, 55, 75
4, 10752, Note_on_c, 1, 43, 105
4, 10754, Note_on_c, 1, 50, 0
4, 10754, Note_on_c, 1, 62, 0
4, 10792, Note_on_c, 1, 43, 0
4, 10792, Note_on_c, 1, 55, 0
4, 10800, Note_on_c, 1, 58, 80
4, 10800, Note_on_c, 1, 46, 100
4, 10842, Note_on_c, 1, 46, 0
4, 10842, Note_on_c, 1, 58, 0
4, 10842, Note_on_c, 1, 58, 78
4, 10842, Note_on_c, 1, 46, 95
4, 10848, Note_on_c, 1, 48, 75
4, 10848, Note_on_c, 1, 36, 105
4, 10850, Note_on_c, 1, 46, 0
4, 10850, Note_on_c, 1, 58, 0
4, 10888, Note_on_c, 1, 36, 0
4, 10888, Note_on_c, 1, 48, 0
4, 10896, Note_on_c, 1, 49, 68
4, 10896, Note_on_c, 1, 37, 95
4, 10932, Note_on_c, 1, 37, 0
4, 10932, Note_on_c, 1, 49, 0
4, 10944, Note_on_c, 1, 46, 55
4, 10944, Note_on_c, 1, 34, 70
4, 10992, Note_on_c, 1, 46, 0
4, 10992, Note_on_c, 1, 55, 50
4, 10992, Note_on_c, 1, 53, 42
4, 10992, Note_on_c, 1, 50, 25
4, 10992, Note_on_c, 1, 46, 38
4, 10994, Note_on_c, 1, 34, 0
4, 11040, Note_on_c, 1, 46, 0
4, 11040, Note_on_c, 1, 50, 0
4, 11040, Note_on_c, 1, 53, 0
4, 11040, Note_on_c, 1, 55, 0
4, 11040, Note_on_c, 1, 56, 58
4, 11040, Note_on_c, 1, 53, 35
4, 11040, Note_on_c, 1, 48, 60
4, 11064, Note_on_c, 1, 60, 53
4, 11066, Note_on_c, 1, 56, 0
4, 11088, Note_on_c, 1, 48, 0
4, 11088, Note_on_c, 1, 58, 55
4, 11088, Note_on_c, 1, 52, 43
4, 11088, Note_on_c, 1, 48, 52
4, 11090, Note_on_c, 1, 60, 0
4, 11090, Note_on_c, 1, 53, 0
4, 11112, Note_on_c, 1, 55, 46
4, 11114, Note_on_c, 1, 52, 0
4, 11136, Note_on_c, 1, 48, 0
4, 11136, Note_on_c, 1, 53, 65
4, 11136, Note_on_c, 1, 41, 90
4, 11138, Note_on_c, 1, 55, 0
4, 11138, Note_on_c, 1, 58, 0
4, 11148, Note_on_c, 1, 41, 0
4, 11148, Note_on_c, 1, 53, 0
4, 11148, Note_on_c, 1, 65, 43
4, 11148, Note_on_c, 1, 60, 35
4, 11148, Note_on_c, 1, 56, 50
4, 11154, Note_on_c, 1, 56, 0
4, 11154, Note_on_c, 1, 60, 0
4, 11160, Note_on_c, 1, 65, 0
4, 11160, Note_on_c, 1, 65, 37
4, 11160, Note_on_c, 1, 60, 28
4, 11160, Note_on_c, 1, 56, 44
4, 11168, Note_on_c, 1, 56, 0
4, 11168, Note_on_c, 1, 60, 0
4, 11168, Note_on_c, 1, 65, 0
4, 11172, Note_on_c, 1, 65, 32
4, 11172, Note_on_c, 1, 60, 25
4, 11172, Note_on_c, 1, 56, 37
4, 11178, Note_on_c, 1, 56, 0
4, 11178, Note_on_c, 1, 60, 0
4, 11178, Note_on_c, 1, 65, 0
4, 11184, Note_on_c, 1, 53, 48
4, 11196, Note_on_c, 1, 65, 25
4, 11196, Note_on_c, 1, 60, 32
4, 11196, Note_on_c, 1, 56, 28
4, 11202, Note_on_c, 1, 56, 0
4, 11202, Note_on_c, 1, 60, 0
4, 11202, Note_on_c, 1, 65, 0
4, 11208, Note_on_c, 1, 53, 0
4, 11208, Note_on_c, 1, 65, 25
4, 11208, Note_on_c, 1, 60, 34
4, 11208, Note_on_c, 1, 56, 23
4, 11216, Note_on_c, 1, 56, 0
4, 11216, Note_on_c, 1, 60, 0
4, 11216, Note_on_c, 1, 65, 0
4, 11220, Note_on_c, 1, 65, 20
4, 11220, Note_on_c, 1, 60, 29
4, 11220, Note_on_c, 1, 56, 25
4, 11226, Note_on_c, 1, 56, 0
4, 11226, Note_on_c, 1, 60, 0
4, 11226, Note_on_c, 1, 65, 0
4, 11232, Note_on_c, 1, 53, 45
4, 11244, Note_on_c, 1, 65, 28
4, 11244, Note_on_c, 1, 60, 20
4, 11244, Note_on_c, 1, 56, 35
4, 11250, Note_on_c, 1, 56, 0
4, 11250, Note_on_c, 1, 60, 0
4, 11250, Note_on_c, 1, 65, 0
4, 11256, Note_on_c, 1, 53, 0
4, 11256, Note_on_c, 1, 65, 30
4, 11256, Note_on_c, 1, 60, 18
4, 11256, Note_on_c, 1, 56, 37
4, 11264, Note_on_c, 1, 56, 0
4, 11264, Note_on_c, 1, 60, 0
4, 11264, Note_on_c, 1, 65, 0
4, 11268, Note_on_c, 1, 65, 27
4, 11268, Note_on_c, 1, 60, 20
4, 11268, Note_on_c, 1, 56, 32
4, 11274, Note_on_c, 1, 56, 0
4, 11274, Note_on_c, 1, 60, 0
4, 11274, Note_on_c, 1, 65, 0
4, 11280, Note_on_c, 1, 53, 50
4, 11292, Note_on_c, 1, 65, 25
4, 11292, Note_on_c, 1, 60, 15
4, 11292, Note_on_c, 1, 56, 32
4, 11298, Note_on_c, 1, 56, 0
4, 11298, Note_on_c, 1, 60, 0
4, 11298, Note_on_c, 1, 65, 0
4, 11304, Note_on_c, 1, 53, 0
4, 11304, Note_on_c, 1, 65, 27
4, 11304, Note_on_c, 1, 60, 18
4, 11304, Note_on_c, 1, 56, 34
4, 11312, Note_on_c, 1, 56, 0
4, 11312, Note_on_c, 1, 60, 0
4, 11312, Note_on_c, 1, 65, 0
4, 11316, Note_on_c, 1, 60, 32
4, 11316, Note_on_c, 1, 56, 37
4, 11322, Note_on_c, 1, 56, 0
4, 11322, Note_on_c, 1, 60, 0
4, 11328, Note_on_c, 1, 41, 55
4, 11340, Note_on_c, 1, 61, 28
4, 11340, Note_on_c, 1, 58, 20
4, 11340, Note_on_c, 1, 55, 35
4, 11346, Note_on_c, 1, 55, 0
4, 11346, Note_on_c, 1, 58, 0
4, 11346, Note_on_c, 1, 61, 0
4, 11352, Note_on_c, 1, 41, 0
4, 11352, Note_on_c, 1, 61, 32
4, 11352, Note_on_c, 1, 58, 23
4, 11352, Note_on_c, 1, 55, 39
4, 11360, Note_on_c, 1, 55, 0
4, 11360, Note_on_c, 1, 58, 0
4, 11360, Note_on_c, 1, 61, 0
4, 11364, Note_on_c, 1, 61, 30
4, 11364, Note_on_c, 1, 58, 23
4, 11364, Note_on_c, 1, 55, 35
4, 11370, Note_on_c, 1, 55, 0
4, 11370, Note_on_c, 1, 58, 0
4, 11370, Note_on_c, 1, 61, 0
4, 11376, Note_on_c, 1, 53, 48
4, 11388, Note_on_c, 1, 64, 25
4, 11388, Note_on_c, 1, 61, 18
4, 11388, Note_on_c, 1, 58, 22
4, 11388, Note_on_c, 1, 55, 32
4, 11394, Note_on_c, 1, 55, 0
4, 11394, Note_on_c, 1, 58, 0
4, 11394, Note_on_c, 1, 61, 0
4, 11394, Note_on_c, 1, 64, 0
4, 11400, Note_on_c, 1, 53, 0
4, 11400, Note_on_c, 1, 64, 30
4, 11400, Note_on_c, 1, 61, 25
4, 11400, Note_on_c, 1, 58, 20
4, 11400, Note_on_c, 1, 55, 34
4, 11408, Note_on_c, 1, 55, 0
4, 11408, Note_on_c, 1, 58, 0
4, 11408, Note_on_c, 1, 61, 0
4, 11408, Note_on_c, 1, 64, 0
4, 11412, Note_on_c, 1, 64, 25
4, 11412, Note_on_c, 1, 61, 20
4, 11412, Note_on_c, 1, 58, 15
4, 11412, Note_on_c, 1, 55, 29
4, 11418, Note_on_c, 1, 55, 0
4, 11418, Note_on_c, 1, 58, 0
4, 11418, Note_on_c, 1, 61, 0
4, 11418, Note_on_c, 1, 64, 0
4, 11424, Note_on_c, 1, 53, 55
4, 11436, Note_on_c, 1, 64, 38
4, 11436, Note_on_c, 1, 61, 30
4, 11436, Note_on_c, 1, 58, 25
4, 11436, Note_on_c, 1, 55, 45
4, 11442, Note_on_c, 1, 55, 0
4, 11442, Note_on_c, 1, 58, 0
4, 11442, Note_on_c, 1, 61, 0
4, 11442, Note_on_c, 1, 64, 0
4, 11448, Note_on_c, 1, 53, 0
4, 11448, Note_on_c, 1, 64, 40
4, 11448, Note_on_c, 1, 61, 32
4, 11448, Note_on_c, 1, 58, 28
4, 11448, Note_on_c, 1, 55, 47
4, 11456, Note_on_c, 1, 55, 0
4, 11456, Note_on_c, 1, 58, 0
4, 11456, Note_on_c, 1, 61, 0
4, 11456, Note_on_c, 1, 64, 0
4, 11460, Note_on_c, 1, 64, 37
4, 11460, Note_on_c, 1, 61, 32
4, 11460, Note_on_c, 1, 58, 30
4, 11460, Note_on_c, 1, 55, 42
4, 11466, Note_on_c, 1, 55, 0
4, 11466, Note_on_c, 1, 58, 0
4, 11466, Note_on_c, 1, 61, 0
4, 11466, Note_on_c, 1, 64, 0
4, 11472, Note_on_c, 1, 53, 60
4, 11484, Note_on_c, 1, 64, 35
4, 11484, Note_on_c, 1, 61, 28
4, 11484, Note_on_c, 1, 58, 25
4, 11484, Note_on_c, 1, 55, 42
4, 11490, Note_on_c, 1, 55, 0
4, 11490, Note_on_c, 1, 58, 0
4, 11490, Note_on_c, 1, 61, 0
4, 11490, Note_on_c, 1, 64, 0
4, 11496, Note_on_c, 1, 53, 0
4, 11496, Note_on_c, 1, 64, 37
4, 11496, Note_on_c, 1, 61, 30
4, 11496, Note_on_c, 1, 58, 28
4, 11496, Note_on_c, 1, 55, 44
4, 11504, Note_on_c, 1, 55, 0
4, 11504, Note_on_c, 1, 58, 0
4, 11504, Note_on_c, 1, 61, 0
4, 11504, Note_on_c, 1, 64, 0
4, 11508, Note_on_c, 1, 61, 42
4, 11508, Note_on_c, 1, 58, 32
4, 11508, Note_on_c, 1, 55, 47
4, 11514, Note_on_c, 1, 55, 0
4, 11514, Note_on_c, 1, 58, 0
4, 11514, Note_on_c, 1, 61, 0
4, 11520, Note_on_c, 1, 53, 35
4, 11520, Note_on_c, 1, 41, 60
4, 11532, Note_on_c, 1, 41, 0
4, 11532, Note_on_c, 1, 53, 0
4, 11532, Note_on_c, 1, 65, 33
4, 11532, Note_on_c, 1, 60, 25
4, 11532, Note_on_c, 1, 56, 40
4, 11538, Note_on_c, 1, 56, 0
4, 11538, Note_on_c, 1, 60, 0
4, 11538, Note_on_c, 1, 65, 0
4, 11544, Note_on_c, 1, 65, 37
4, 11544, Note_on_c, 1, 60, 28
4, 11544, Note_on_c, 1, 56, 44
4, 11552, Note_on_c, 1, 56, 0
4, 11552, Note_on_c, 1, 60, 0
4, 11552, Note_on_c, 1, 65, 0
4, 11556, Note_on_c, 1, 65, 32
4, 11556, Note_on_c, 1, 60, 25
4, 11556, Note_on_c, 1, 56, 37
4, 11562, Note_on_c, 1, 56, 0
4, 11562, Note_on_c, 1, 60, 0
4, 11562, Note_on_c, 1, 65, 0
4, 11568, Note_on_c, 1, 53, 58
4, 11580, Note_on_c, 1, 60, 35
4, 11580, Note_on_c, 1, 56, 38
4, 11586, Note_on_c, 1, 56, 0
4, 11586, Note_on_c, 1, 60, 0
4, 11592, Note_on_c, 1, 53, 0
4, 11592, Note_on_c, 1, 60, 35
4, 11592, Note_on_c, 1, 56, 33
4, 11600, Note_on_c, 1, 56, 0
4, 11600, Note_on_c, 1, 60, 0
4, 11604, Note_on_c, 1, 60, 30
4, 11604, Note_on_c, 1, 56, 35
4, 11610, Note_on_c, 1, 56, 0
4, 11610, Note_on_c, 1, 60, 0
4, 11616, Note_on_c, 1, 53, 65
4, 11628, Note_on_c, 1, 65, 48
4, 11628, Note_on_c, 1, 60, 40
4, 11628, Note_on_c, 1, 56, 55
4, 11634, Note_on_c, 1, 56, 0
4, 11634, Note_on_c, 1, 60, 0
4, 11634, Note_on_c, 1, 65, 0
4, 11640, Note_on_c, 1, 53, 0
4, 11640, Note_on_c, 1, 65, 50
4, 11640, Note_on_c, 1, 60, 38
4, 11640, Note_on_c, 1, 56, 57
4, 11648, Note_on_c, 1, 56, 0
4, 11648, Note_on_c, 1, 60, 0
4, 11648, Note_on_c, 1, 65, 0
4, 11652, Note_on_c, 1, 65, 47
4, 11652, Note_on_c, 1, 60, 40
4, 11652, Note_on_c, 1, 56, 52
4, 11658, Note_on_c, 1, 56, 0
4, 11658, Note_on_c, 1, 60, 0
4, 11658, Note_on_c, 1, 65, 0
4, 11664, Note_on_c, 1, 53, 70
4, 11676, Note_on_c, 1, 65, 45
4, 11676, Note_on_c, 1, 60, 35
4, 11676, Note_on_c, 1, 56, 52
4, 11682, Note_on_c, 1, 56, 0
4, 11682, Note_on_c, 1, 60, 0
4, 11682, Note_on_c, 1, 65, 0
4, 11688, Note_on_c, 1, 53, 0
4, 11688, Note_on_c, 1, 65, 47
4, 11688, Note_on_c, 1, 60, 38
4, 11688, Note_on_c, 1, 56, 54
4, 11696, Note_on_c, 1, 56, 0
4, 11696, Note_on_c, 1, 60, 0
4, 11696, Note_on_c, 1, 65, 0
4, 11700, Note_on_c, 1, 65, 52
4, 11700, Note_on_c, 1, 60, 40
4, 11700, Note_on_c, 1, 56, 57
4, 11706, Note_on_c, 1, 56, 0
4, 11706, Note_on_c, 1, 60, 0
4, 11706, Note_on_c, 1, 65, 0
4, 11712, Note_on_c, 1, 51, 45
4, 11712, Note_on_c, 1, 39, 70
4, 11724, Note_on_c, 1, 56, 50
4, 11726, Note_on_c, 1, 39, 0
4, 11726, Note_on_c, 1, 51, 0
4, 11736, Note_on_c, 1, 60, 52
4, 11738, Note_on_c, 1, 56, 0
4, 11748, Note_on_c, 1, 66, 40
4, 11750, Note_on_c, 1, 60, 0
4, 11760, Note_on_c, 1, 66, 0
4, 11760, Note_on_c, 1, 51, 60
4, 11772, Note_on_c, 1, 56, 48
4, 11774, Note_on_c, 1, 51, 0
4, 11784, Note_on_c, 1, 60, 50
4, 11786, Note_on_c, 1, 56, 0
4, 11796, Note_on_c, 1, 66, 45
4, 11798, Note_on_c, 1, 60, 0
4, 11808, Note_on_c, 1, 66, 0
4, 11808, Note_on_c, 1, 44, 40
4, 11808, Note_on_c, 1, 32, 65
4, 11820, Note_on_c, 1, 51, 50
4, 11822, Note_on_c, 1, 32, 0
4, 11822, Note_on_c, 1, 44, 0
4, 11832, Note_on_c, 1, 54, 52
4, 11834, Note_on_c, 1, 51, 0
4, 11844, Note_on_c, 1, 60, 48
4, 11846, Note_on_c, 1, 54, 0
4, 11856, Note_on_c, 1, 60, 0
4, 11856, Note_on_c, 1, 44, 60
4, 11868, Note_on_c, 1, 51, 48
4, 11870, Note_on_c, 1, 44, 0
4, 11880, Note_on_c, 1, 54, 50
4, 11882, Note_on_c, 1, 51, 0
4, 11892, Note_on_c, 1, 60, 45
4, 11894, Note_on_c, 1, 54, 0
4, 11904, Note_on_c, 1, 60, 0
4, 11904, Note_on_c, 1, 49, 42
4, 11904, Note_on_c, 1, 37, 60
4, 11916, Note_on_c, 1, 56, 50
4, 11918, Note_on_c, 1, 37, 0
4, 11918, Note_on_c, 1, 49, 0
4, 11928, Note_on_c, 1, 61, 52
4, 11930, Note_on_c, 1, 56, 0
4, 11940, Note_on_c, 1, 65, 40
4, 11942, Note_on_c, 1, 61, 0
4, 11952, Note_on_c, 1, 65, 0
4, 11952, Note_on_c, 1, 49, 60
4, 11964, Note_on_c, 1, 56, 48
4, 11966, Note_on_c, 1, 49, 0
4, 11976, Note_on_c, 1, 61, 50
4, 11978, Note_on_c, 1, 56, 0
4, 11988, Note_on_c, 1, 65, 45
4, 11990, Note_on_c, 1, 61, 0
4, 12000, Note_on_c, 1, 65, 0
4, 12000, Note_on_c, 1, 53, 40
4, 12000, Note_on_c, 1, 41, 65
4, 12012, Note_on_c, 1, 56, 50
4, 12014, Note_on_c, 1, 41, 0
4, 12014, Note_on_c, 1, 53, 0
4, 12024, Note_on_c, 1, 61, 52
4, 12026, Note_on_c, 1, 56, 0
4, 12036, Note_on_c, 1, 65, 48
4, 12038, Note_on_c, 1, 61, 0
4, 12048, Note_on_c, 1, 65, 0
4, 12048, Note_on_c, 1, 61, 45
4, 12060, Note_on_c, 1, 56, 48
4, 12062, Note_on_c, 1, 61, 0
4, 12072, Note_on_c, 1, 53, 50
4, 12074, Note_on_c, 1, 56, 0
4, 12084, Note_on_c, 1, 49, 45
4, 12086, Note_on_c, 1, 53, 0
4, 12096, Note_on_c, 1, 49, 0
4, 12096, Note_on_c, 1, 42, 70
4, 12108, Note_on_c, 1, 49, 50
4, 12110, Note_on_c, 1, 42, 0
4, 12120, Note_on_c, 1, 51, 52
4, 12122, Note_on_c, 1, 49, 0
4, 12132, Note_on_c, 1, 58, 40
4, 12134, Note_on_c, 1, 51, 0
4, 12144, Note_on_c, 1, 58, 0
4, 12144, Note_on_c, 1, 42, 60
4, 12156, Note_on_c, 1, 49, 48
4, 12158, Note_on_c, 1, 42, 0
4, 12168, Note_on_c, 1, 51, 50
4, 12170, Note_on_c, 1, 49, 0
4, 12180, Note_on_c, 1, 58, 45
4, 12182, Note_on_c, 1, 51, 0
4, 12192, Note_on_c, 1, 58, 0
4, 12192, Note_on_c, 1, 44, 65
4, 12204, Note_on_c, 1, 51, 48
4, 12206, Note_on_c, 1, 44, 0
4, 12216, Note_on_c, 1, 54, 50
4, 12218, Note_on_c, 1, 51, 0
4, 12228, Note_on_c, 1, 60, 40
4, 12230, Note_on_c, 1, 54, 0
4, 12240, Note_on_c, 1, 60, 0
4, 12240, Note_on_c, 1, 44, 55
4, 12252, Note_on_c, 1, 51, 43
4, 12254, Note_on_c, 1, 44, 0
4, 12264, Note_on_c, 1, 54, 38
4, 12266, Note_on_c, 1, 51, 0
4, 12276, Note_on_c, 1, 60, 30
4, 12278, Note_on_c, 1, 54, 0
4, 12288, Note_on_c, 1, 60, 0
4, 12288, Note_on_c, 1, 49, 35
4, 12288, Note_on_c, 1, 37, 50
4, 12312, Note_on_c, 1, 37, 0
4, 12312, Note_on_c, 1, 49, 0
4, 12312, Note_on_c, 1, 56, 43
4, 12312, Note_on_c, 1, 53, 35
4, 12332, Note_on_c, 1, 53, 0
4, 12332, Note_on_c, 1, 56, 0
4, 12336, Note_on_c, 1, 49, 45
4, 12360, Note_on_c, 1, 49, 0
4, 12360, Note_on_c, 1, 56, 38
4, 12360, Note_on_c, 1, 53, 30
4, 12380, Note_on_c, 1, 53, 0
4, 12380, Note_on_c, 1, 56, 0
4, 12384, Note_on_c, 1, 42, 49
4, 12408, Note_on_c, 1, 42, 0
4, 12408, Note_on_c, 1, 58, 36
4, 12408, Note_on_c, 1, 54, 29
4, 12428, Note_on_c, 1, 54, 0
4, 12428, Note_on_c, 1, 58, 0
4, 12432, Note_on_c, 1, 42, 53
4, 12456, Note_on_c, 1, 42, 0
4, 12456, Note_on_c, 1, 58, 40
4, 12456, Note_on_c, 1, 54, 33
4, 12476, Note_on_c, 1, 54, 0
4, 12476, Note_on_c, 1, 58, 0
4, 12480, Note_on_c, 1, 44, 55
4, 12504, Note_on_c, 1, 44, 0
4, 12504, Note_on_c, 1, 56, 40
4, 12504, Note_on_c, 1, 53, 33
4, 12524, Note_on_c, 1, 53, 0
4, 12524, Note_on_c, 1, 56, 0
4, 12528, Note_on_c, 1, 44, 52
4, 12552, Note_on_c, 1, 44, 0
4, 12552, Note_on_c, 1, 56, 37
4, 12552, Note_on_c, 1, 51, 22
4, 12572, Note_on_c, 1, 51, 0
4, 12572, Note_on_c, 1, 56, 0
4, 12576, Note_on_c, 1, 44, 48
4, 12600, Note_on_c, 1, 44, 0
4, 12600, Note_on_c, 1, 56, 40
4, 12600, Note_on_c, 1, 51, 18
4, 12600, Note_on_c, 1, 48, 25
4, 12620, Note_on_c, 1, 48, 0
4, 12620, Note_on_c, 1, 51, 0
4, 12620, Note_on_c, 1, 56, 0
4, 12624, Note_on_c, 1, 47, 60
4, 12648, Note_on_c, 1, 57, 40
4, 12648, Note_on_c, 1, 51, 28
4, 12668, Note_on_c, 1, 51, 0
4, 12668, Note_on_c, 1, 57, 0
4, 12672, Note_on_c, 1, 47, 0
4, 12672, Note_on_c, 1, 46, 53
4, 12696, Note_on_c, 1, 57, 38
4, 12696, Note_on_c, 1, 54, 20
4, 12696, Note_on_c, 1, 51, 26
4, 12716, Note_on_c, 1, 51, 0
4, 12716, Note_on_c, 1, 54, 0
4, 12716, Note_on_c, 1, 57, 0
4, 12720, Note_on_c, 1, 46, 0
4, 12720, Note_on_c, 1, 46, 50
4, 12744, Note_on_c, 1, 58, 35
4, 12744, Note_on_c, 1, 53, 17
4, 12744, Note_on_c, 1, 50, 23
4, 12764, Note_on_c, 1, 50, 0
4, 12764, Note_on_c, 1, 53, 0
4, 12764, Note_on_c, 1, 58, 0
4, 12768, Note_on_c, 1, 46, 0
4, 12768, Note_on_c, 1, 46, 55
4, 12816, Note_on_c, 1, 46, 0
4, 12816, Note_on_c, 1, 58, 58
4, 12816, Note_on_c, 1, 49, 70
4, 12840, Note_on_c, 1, 59, 52
4, 12840, Note_on_c, 1, 53, 30
4, 12842, Note_on_c, 1, 58, 0
4, 12864, Note_on_c, 1, 49, 0
4, 12864, Note_on_c, 1, 48, 63
4, 12866, Note_on_c, 1, 53, 0
4, 12866, Note_on_c, 1, 59, 0
4, 12888, Note_on_c, 1, 59, 48
4, 12888, Note_on_c, 1, 56, 30
4, 12888, Note_on_c, 1, 53, 36
4, 12908, Note_on_c, 1, 53, 0
4, 12908, Note_on_c, 1, 56, 0
4, 12908, Note_on_c, 1, 59, 0
4, 12912, Note_on_c, 1, 48, 0
4, 12912, Note_on_c, 1, 48, 60
4, 12936, Note_on_c, 1, 60, 45
4, 12936, Note_on_c, 1, 55, 27
4, 12936, Note_on_c, 1, 52, 33
4, 12956, Note_on_c, 1, 52, 0
4, 12956, Note_on_c, 1, 55, 0
4, 12956, Note_on_c, 1, 60, 0
4, 12960, Note_on_c, 1, 48, 0
4, 12960, Note_on_c, 1, 48, 65
4, 13008, Note_on_c, 1, 48, 0
4, 13008, Note_on_c, 1, 58, 68
4, 13008, Note_on_c, 1, 46, 80
4, 13068, Note_on_c, 1, 56, 66
4, 13068, Note_on_c, 1, 44, 78
4, 13070, Note_on_c, 1, 46, 0
4, 13070, Note_on_c, 1, 58, 0
4, 13080, Note_on_c, 1, 60, 63
4, 13080, Note_on_c, 1, 48, 75
4, 13082, Note_on_c, 1, 44, 0
4, 13082, Note_on_c, 1, 56, 0
4, 13092, Note_on_c, 1, 56, 68
4, 13092, Note_on_c, 1, 44, 80
4, 13094, Note_on_c, 1, 48, 0
4, 13094, Note_on_c, 1, 60, 0
4, 13104, Note_on_c, 1, 55, 72
4, 13104, Note_on_c, 1, 43, 84
4, 13106, Note_on_c, 1, 44, 0
4, 13106, Note_on_c, 1, 56, 0
4, 13116, Note_on_c, 1, 53, 76
4, 13116, Note_on_c, 1, 41, 88
4, 13118, Note_on_c, 1, 43, 0
4, 13118, Note_on_c, 1, 55, 0
4, 13128, Note_on_c, 1, 56, 80
4, 13128, Note_on_c, 1, 44, 92
4, 13130, Note_on_c, 1, 41, 0
4, 13130, Note_on_c, 1, 53, 0
4, 13140, Note_on_c, 1, 53, 84
4, 13140, Note_on_c, 1, 41, 96
4, 13142, Note_on_c, 1, 44, 0
4, 13142, Note_on_c, 1, 56, 0
4, 13152, Note_on_c, 1, 49, 88
4, 13152, Note_on_c, 1, 37, 100
4, 13154, Note_on_c, 1, 41, 0
4, 13154, Note_on_c, 1, 53, 0
4, 13190, Note_on_c, 1, 37, 0
4, 13190, Note_on_c, 1, 49, 0
4, 13194, Note_on_c, 1, 53, 80
4, 13194, Note_on_c, 1, 49, 95
4, 13198, Note_on_c, 1, 49, 0
4, 13198, Note_on_c, 1, 53, 0
4, 13200, Note_on_c, 1, 53, 95
4, 13200, Note_on_c, 1, 49, 105
4, 13238, Note_on_c, 1, 49, 0
4, 13238, Note_on_c, 1, 53, 0
4, 13242, Note_on_c, 1, 53, 88
4, 13242, Note_on_c, 1, 49, 102
4, 13246, Note_on_c, 1, 49, 0
4, 13246, Note_on_c, 1, 53, 0
4, 13248, Note_on_c, 1, 52, 95
4, 13248, Note_on_c, 1, 48, 110
4, 13254, Note_on_c, 1, 48, 0
4, 13254, Note_on_c, 1, 52, 0
4, 13260, Note_on_c, 1, 43, 100
4, 13260, Note_on_c, 1, 31, 120
4, 13264, Note_on_c, 1, 31, 0
4, 13264, Note_on_c, 1, 43, 0
4, 13272, Note_on_c, 1, 48, 95
4, 13272, Note_on_c, 1, 36, 115
4, 13276, Note_on_c, 1, 36, 0
4, 13276, Note_on_c, 1, 48, 0
4, 13284, Note_on_c, 1, 52, 91
4, 13284, Note_on_c, 1, 40, 111
4, 13288, Note_on_c, 1, 40, 0
4, 13288, Note_on_c, 1, 52, 0
4, 13296, Note_on_c, 1, 55, 98
4, 13296, Note_on_c, 1, 43, 118
4, 13300, Note_on_c, 1, 43, 0
4, 13300, Note_on_c, 1, 55, 0
4, 13308, Note_on_c, 1, 52, 87
4, 13308, Note_on_c, 1, 40, 107
4, 13312, Note_on_c, 1, 40, 0
4, 13312, Note_on_c, 1, 52, 0
4, 13320, Note_on_c, 1, 55, 90
4, 13320, Note_on_c, 1, 43, 110
4, 13324, Note_on_c, 1, 43, 0
4, 13324, Note_on_c, 1, 55, 0
4, 13332, Note_on_c, 1, 52, 78
4, 13332, Note_on_c, 1, 40, 98
4, 13336, Note_on_c, 1, 40, 0
4, 13336, Note_on_c, 1, 52, 0
4, 13344, Note_on_c, 1, 48, 80
4, 13344, Note_on_c, 1, 36, 100
4, 13368, Note_on_c, 1, 36, 0
4, 13368, Note_on_c, 1, 48, 0
4, 13440, Note_on_c, 1, 55, 97
4, 13440, Note_on_c, 1, 43, 112
4, 13446, Note_on_c, 1, 43, 0
4, 13446, Note_on_c, 1, 55, 0
4, 13452, Note_on_c, 1, 48, 95
4, 13452, Note_on_c, 1, 36, 115
4, 13456, Note_on_c, 1, 36, 0
4, 13456, Note_on_c, 1, 48, 0
4, 13464, Note_on_c, 1, 52, 90
4, 13464, Note_on_c, 1, 40, 110
4, 13468, Note_on_c, 1, 40, 0
4, 13468, Note_on_c, 1, 52, 0
4, 13476, Note_on_c, 1, 55, 86
4, 13476, Note_on_c, 1, 43, 106
4, 13480, Note_on_c, 1, 43, 0
4, 13480, Note_on_c, 1, 55, 0
4, 13488, Note_on_c, 1, 60, 93
4, 13488, Note_on_c, 1, 48, 113
4, 13492, Note_on_c, 1, 48, 0
4, 13492, Note_on_c, 1, 60, 0
4, 13500, Note_on_c, 1, 55, 82
4, 13500, Note_on_c, 1, 43, 102
4, 13504, Note_on_c, 1, 43, 0
4, 13504, Note_on_c, 1, 55, 0
4, 13512, Note_on_c, 1, 60, 85
4, 13512, Note_on_c, 1, 48, 105
4, 13516, Note_on_c, 1, 48, 0
4, 13516, Note_on_c, 1, 60, 0
4, 13524, Note_on_c, 1, 55, 73
4, 13524, Note_on_c, 1, 43, 93
4, 13528, Note_on_c, 1, 43, 0
4, 13528, Note_on_c, 1, 55, 0
4, 13536, Note_on_c, 1, 52, 75
4, 13536, Note_on_c, 1, 40, 95
4, 13560, Note_on_c, 1, 40, 0
4, 13560, Note_on_c, 1, 52, 0
4, 13632, Note_on_c, 1, 60, 97
4, 13632, Note_on_c, 1, 48, 112
4, 13638, Note_on_c, 1, 48, 0
4, 13638, Note_on_c, 1, 60, 0
4, 13644, Note_on_c, 1, 52, 115
4, 13648, Note_on_c, 1, 52, 0
4, 13656, Note_on_c, 1, 55, 90
4, 13656, Note_on_c, 1, 43, 110
4, 13660, Note_on_c, 1, 43, 0
4, 13660, Note_on_c, 1, 55, 0
4, 13668, Note_on_c, 1, 60, 86
4, 13668, Note_on_c, 1, 48, 106
4, 13672, Note_on_c, 1, 48, 0
4, 13672, Note_on_c, 1, 60, 0
4, 13680, Note_on_c, 1, 64, 93
4, 13680, Note_on_c, 1, 52, 113
4, 13684, Note_on_c, 1, 52, 0
4, 13684, Note_on_c, 1, 64, 0
4, 13692, Note_on_c, 1, 60, 82
4, 13692, Note_on_c, 1, 48, 102
4, 13696, Note_on_c, 1, 48, 0
4, 13696, Note_on_c, 1, 60, 0
4, 13704, Note_on_c, 1, 64, 85
4, 13704, Note_on_c, 1, 52, 105
4, 13708, Note_on_c, 1, 52, 0
4, 13708, Note_on_c, 1, 64, 0
4, 13716, Note_on_c, 1, 60, 78
4, 13716, Note_on_c, 1, 48, 98
4, 13720, Note_on_c, 1, 48, 0
4, 13720, Note_on_c, 1, 60, 0
4, 13728, Note_on_c, 1, 64, 87
4, 13728, Note_on_c, 1, 52, 102
4, 13734, Note_on_c, 1, 52, 0
4, 13734, Note_on_c, 1, 64, 0
4, 13740, Note_on_c, 1, 55, 105
4, 13744, Note_on_c, 1, 55, 0
4, 13752, Note_on_c, 1, 60, 80
4, 13752, Note_on_c, 1, 48, 100
4, 13756, Note_on_c, 1, 48, 0
4, 13756, Note_on_c, 1, 60, 0
4, 13764, Note_on_c, 1, 64, 76
4, 13764, Note_on_c, 1, 52, 96
4, 13768, Note_on_c, 1, 52, 0
4, 13768, Note_on_c, 1, 64, 0
4, 13776, Note_on_c, 1, 67, 83
4, 13776, Note_on_c, 1, 55, 103
4, 13780, Note_on_c, 1, 55, 0
4, 13780, Note_on_c, 1, 67, 0
4, 13788, Note_on_c, 1, 64, 72
4, 13788, Note_on_c, 1, 52, 92
4, 13792, Note_on_c, 1, 52, 0
4, 13792, Note_on_c, 1, 64, 0
4, 13800, Note_on_c, 1, 67, 75
4, 13800, Note_on_c, 1, 55, 95
4, 13804, Note_on_c, 1, 55, 0
4, 13804, Note_on_c, 1, 67, 0
4, 13812, Note_on_c, 1, 64, 63
4, 13812, Note_on_c, 1, 52, 83
4, 13816, Note_on_c, 1, 52, 0
4, 13816, Note_on_c, 1, 64, 0
4, 13824, Note_on_c, 1, 60, 60
4, 13824, Note_on_c, 1, 48, 85
4, 13848, Note_on_c, 1, 48, 0
4, 13848, Note_on_c, 1, 60, 0
4, 14016, Note_on_c, 1, 79, 68
4, 14022, Note_on_c, 1, 79, 0
4, 14028, Note_on_c, 1, 76, 57
4, 14032, Note_on_c, 1, 76, 0
4, 14040, Note_on_c, 1, 79, 60
4, 14044, Note_on_c, 1, 79, 0
4, 14052, Note_on_c, 1, 76, 48
4, 14056, Note_on_c, 1, 76, 0
4, 14064, Note_on_c, 1, 72, 50
4, 14104, Note_on_c, 1, 72, 0
4, 14112, Note_on_c, 1, 55, 48
4, 14118, Note_on_c, 1, 55, 0
4, 14124, Note_on_c, 1, 52, 37
4, 14128, Note_on_c, 1, 52, 0
4, 14136, Note_on_c, 1, 55, 40
4, 14140, Note_on_c, 1, 55, 0
4, 14148, Note_on_c, 1, 52, 30
4, 14152, Note_on_c, 1, 52, 0
4, 14160, Note_on_c, 1, 55, 43
4, 14164, Note_on_c, 1, 55, 0
4, 14172, Note_on_c, 1, 52, 32
4, 14176, Note_on_c, 1, 52, 0
4, 14184, Note_on_c, 1, 55, 46
4, 14188, Note_on_c, 1, 55, 0
4, 14196, Note_on_c, 1, 52, 34
4, 14200, Note_on_c, 1, 52, 0
4, 14208, Note_on_c, 1, 48, 40
4, 14232, Note_on_c, 1, 48, 0
4, 14232, Note_on_c, 1, 67, 32
4, 14232, Note_on_c, 1, 64, 25
4, 14244, Note_on_c, 1, 64, 0
4, 14244, Note_on_c, 1, 67, 0
4, 14256, Note_on_c, 1, 67, 35
4, 14256, Note_on_c, 1, 64, 22
4, 14270, Note_on_c, 1, 64, 0
4, 14270, Note_on_c, 1, 67, 0
4, 14280, Note_on_c, 1, 67, 30
4, 14280, Note_on_c, 1, 64, 24
4, 14290, Note_on_c, 1, 64, 0
4, 14290, Note_on_c, 1, 67, 0
4, 14304, Note_on_c, 1, 48, 44
4, 14328, Note_on_c, 1, 48, 0
4, 14328, Note_on_c, 1, 68, 36
4, 14328, Note_on_c, 1, 65, 29
4, 14340, Note_on_c, 1, 65, 0
4, 14340, Note_on_c, 1, 68, 0
4, 14352, Note_on_c, 1, 48, 47
4, 14376, Note_on_c, 1, 48, 0
4, 14376, Note_on_c, 1, 69, 39
4, 14376, Note_on_c, 1, 66, 32
4, 14388, Note_on_c, 1, 66, 0
4, 14388, Note_on_c, 1, 69, 0
4, 14400, Note_on_c, 1, 48, 50
4, 14424, Note_on_c, 1, 48, 0
4, 14424, Note_on_c, 1, 70, 42
4, 14424, Note_on_c, 1, 67, 35
4, 14436, Note_on_c, 1, 67, 0
4, 14436, Note_on_c, 1, 70, 0
4, 14448, Note_on_c, 1, 70, 45
4, 14448, Note_on_c, 1, 67, 32
4, 14462, Note_on_c, 1, 67, 0
4, 14462, Note_on_c, 1, 70, 0
4, 14472, Note_on_c, 1, 70, 40
4, 14472, Note_on_c, 1, 67, 34
4, 14482, Note_on_c, 1, 67, 0
4, 14482, Note_on_c, 1, 70, 0
4, 14496, Note_on_c, 1, 48, 54
4, 14520, Note_on_c, 1, 48, 0
4, 14520, Note_on_c, 1, 72, 46
4, 14520, Note_on_c, 1, 69, 39
4, 14532, Note_on_c, 1, 69, 0
4, 14532, Note_on_c, 1, 72, 0
4, 14544, Note_on_c, 1, 48, 57
4, 14568, Note_on_c, 1, 48, 0
4, 14568, Note_on_c, 1, 73, 49
4, 14568, Note_on_c, 1, 69, 42
4, 14580, Note_on_c, 1, 69, 0
4, 14580, Note_on_c, 1, 73, 0
4, 14592, Note_on_c, 1, 48, 60
4, 14616, Note_on_c, 1, 48, 0
4, 14616, Note_on_c, 1, 74, 52
4, 14616, Note_on_c, 1, 70, 45
4, 14628, Note_on_c, 1, 70, 0
4, 14628, Note_on_c, 1, 74, 0
4, 14640, Note_on_c, 1, 48, 63
4, 14664, Note_on_c, 1, 48, 0
4, 14664, Note_on_c, 1, 72, 53
4, 14664, Note_on_c, 1, 69, 47
4, 14674, Note_on_c, 1, 69, 0
4, 14674, Note_on_c, 1, 72, 0
4, 14688, Note_on_c, 1, 48, 58
4, 14712, Note_on_c, 1, 48, 0
4, 14712, Note_on_c, 1, 70, 50
4, 14712, Note_on_c, 1, 67, 43
4, 14724, Note_on_c, 1, 67, 0
4, 14724, Note_on_c, 1, 70, 0
4, 14736, Note_on_c, 1, 48, 50
4, 14760, Note_on_c, 1, 48, 0
4, 14760, Note_on_c, 1, 69, 42
4, 14760, Note_on_c, 1, 66, 35
4, 14772, Note_on_c, 1, 66, 0
4, 14772, Note_on_c, 1, 69, 0
4, 14784, Note_on_c, 1, 48, 55
4, 14808, Note_on_c, 1, 48, 0
4, 14808, Note_on_c, 1, 70, 49
4, 14808, Note_on_c, 1, 67, 42
4, 14820, Note_on_c, 1, 67, 0
4, 14820, Note_on_c, 1, 70, 0
4, 14832, Note_on_c, 1, 48, 52
4, 14856, Note_on_c, 1, 48, 0
4, 14856, Note_on_c, 1, 67, 42
4, 14856, Note_on_c, 1, 64, 36
4, 14866, Note_on_c, 1, 64, 0
4, 14866, Note_on_c, 1, 67, 0
4, 14880, Note_on_c, 1, 48, 37
4, 14904, Note_on_c, 1, 48, 0
4, 14904, Note_on_c, 1, 70, 29
4, 14904, Note_on_c, 1, 67, 22
4, 14916, Note_on_c, 1, 67, 0
4, 14916, Note_on_c, 1, 70, 0
4, 14928, Note_on_c, 1, 48, 34
4, 14952, Note_on_c, 1, 48, 0
4, 14952, Note_on_c, 1, 67, 26
4, 14952, Note_on_c, 1, 64, 19
4, 14964, Note_on_c, 1, 64, 0
4, 14964, Note_on_c, 1, 67, 0
4, 14976, Note_on_c, 1, 48, 47
4, 15000, Note_on_c, 1, 48, 0
4, 15000, Note_on_c, 1, 70, 39
4, 15000, Note_on_c, 1, 67, 25
4, 15000, Note_on_c, 1, 64, 32
4, 15012, Note_on_c, 1, 64, 0
4, 15012, Note_on_c, 1, 67, 0
4, 15012, Note_on_c, 1, 70, 0
4, 15024, Note_on_c, 1, 48, 42
4, 15048, Note_on_c, 1, 48, 0
4, 15048, Note_on_c, 1, 67, 32
4, 15048, Note_on_c, 1, 64, 20
4, 15048, Note_on_c, 1, 58, 26
4, 15058, Note_on_c, 1, 58, 0
4, 15058, Note_on_c, 1, 64, 0
4, 15058, Note_on_c, 1, 67, 0
4, 15072, Note_on_c, 1, 36, 45
4, 15096, Note_on_c, 1, 36, 0
4, 15096, Note_on_c, 1, 64, 37
4, 15096, Note_on_c, 1, 58, 22
4, 15096, Note_on_c, 1, 55, 30
4, 15116, Note_on_c, 1, 55, 0
4, 15116, Note_on_c, 1, 58, 0
4, 15116, Note_on_c, 1, 64, 0
4, 15168, Note_on_c, 1, 41, 50
4, 15180, Note_on_c, 1, 60, 38
4, 15182, Note_on_c, 1, 41, 0
4, 15192, Note_on_c, 1, 57, 40
4, 15194, Note_on_c, 1, 60, 0
4, 15204, Note_on_c, 1, 60, 35
4, 15206, Note_on_c, 1, 57, 0
4, 15216, Note_on_c, 1, 65, 33
4, 15218, Note_on_c, 1, 60, 0
4, 15228, Note_on_c, 1, 60, 37
4, 15230, Note_on_c, 1, 65, 0
4, 15240, Note_on_c, 1, 57, 40
4, 15242, Note_on_c, 1, 60, 0
4, 15252, Note_on_c, 1, 60, 35
4, 15254, Note_on_c, 1, 57, 0
4, 15264, Note_on_c, 1, 46, 45
4, 15266, Note_on_c, 1, 60, 0
4, 15276, Note_on_c, 1, 62, 33
4, 15278, Note_on_c, 1, 46, 0
4, 15288, Note_on_c, 1, 58, 35
4, 15290, Note_on_c, 1, 62, 0
4, 15300, Note_on_c, 1, 62, 30
4, 15302, Note_on_c, 1, 58, 0
4, 15312, Note_on_c, 1, 67, 28
4, 15314, Note_on_c, 1, 62, 0
4, 15324, Note_on_c, 1, 62, 32
4, 15326, Note_on_c, 1, 67, 0
4, 15336, Note_on_c, 1, 58, 35
4, 15338, Note_on_c, 1, 62, 0
4, 15348, Note_on_c, 1, 62, 38
4, 15350, Note_on_c, 1, 58, 0
4, 15360, Note_on_c, 1, 48, 50
4, 15362, Note_on_c, 1, 62, 0
4, 15372, Note_on_c, 1, 57, 38
4, 15374, Note_on_c, 1, 48, 0
4, 15384, Note_on_c, 1, 60, 40
4, 15386, Note_on_c, 1, 57, 0
4, 15396, Note_on_c, 1, 65, 35
4, 15398, Note_on_c, 1, 60, 0
4, 15408, Note_on_c, 1, 65, 0
4, 15408, Note_on_c, 1, 48, 45
4, 15420, Note_on_c, 1, 55, 33
4, 15422, Note_on_c, 1, 48, 0
4, 15432, Note_on_c, 1, 60, 35
4, 15434, Note_on_c, 1, 55, 0
4, 15444, Note_on_c, 1, 64, 30
4, 15446, Note_on_c, 1, 60, 0
4, 15456, Note_on_c, 1, 64, 0
4, 15456, Note_on_c, 1, 48, 48
4, 15468, Note_on_c, 1, 55, 35
4, 15470, Note_on_c, 1, 48, 0
4, 15480, Note_on_c, 1, 52, 37
4, 15482, Note_on_c, 1, 55, 0
4, 15492, Note_on_c, 1, 55, 32
4, 15494, Note_on_c, 1, 52, 0
4, 15504, Note_on_c, 1, 60, 28
4, 15504, Note_on_c, 1, 46, 52
4, 15506, Note_on_c, 1, 55, 0
4, 15516, Note_on_c, 1, 55, 31
4, 15518, Note_on_c, 1, 60, 0
4, 15528, Note_on_c, 1, 52, 33
4, 15530, Note_on_c, 1, 55, 0
4, 15540, Note_on_c, 1, 55, 30
4, 15542, Note_on_c, 1, 52, 0
4, 15552, Note_on_c, 1, 55, 0
4, 15552, Note_on_c, 1, 46, 0
4, 15552, Note_on_c, 1, 45, 55
4, 15564, Note_on_c, 1, 53, 35
4, 15566, Note_on_c, 1, 45, 0
4, 15576, Note_on_c, 1, 48, 37
4, 15578, Note_on_c, 1, 53, 0
4, 15588, Note_on_c, 1, 57, 32
4, 15590, Note_on_c, 1, 48, 0
4, 15600, Note_on_c, 1, 57, 0
4, 15600, Note_on_c, 1, 40, 58
4, 15612, Note_on_c, 1, 55, 37
4, 15614, Note_on_c, 1, 40, 0
4, 15624, Note_on_c, 1, 52, 40
4, 15626, Note_on_c, 1, 55, 0
4, 15636, Note_on_c, 1, 60, 35
4, 15638, Note_on_c, 1, 52, 0
4, 15648, Note_on_c, 1, 60, 0
4, 15648, Note_on_c, 1, 41, 53
4, 15660, Note_on_c, 1, 60, 32
4, 15662, Note_on_c, 1, 41, 0
4, 15672, Note_on_c, 1, 57, 35
4, 15674, Note_on_c, 1, 60, 0
4, 15684, Note_on_c, 1, 65, 30
4, 15686, Note_on_c, 1, 57, 0
4, 15696, Note_on_c, 1, 65, 0
4, 15696, Note_on_c, 1, 46, 55
4, 15708, Note_on_c, 1, 62, 30
4, 15710, Note_on_c, 1, 46, 0
4, 15720, Note_on_c, 1, 58, 32
4, 15722, Note_on_c, 1, 62, 0
4, 15732, Note_on_c, 1, 67, 28
4, 15734, Note_on_c, 1, 58, 0
4, 15744, Note_on_c, 1, 67, 0
4, 15744, Note_on_c, 1, 48, 60
4, 15756, Note_on_c, 1, 57, 43
4, 15758, Note_on_c, 1, 48, 0
4, 15768, Note_on_c, 1, 53, 45
4, 15770, Note_on_c, 1, 57, 0
4, 15780, Note_on_c, 1, 60, 40
4, 15782, Note_on_c, 1, 53, 0
4, 15792, Note_on_c, 1, 57, 42
4, 15794, Note_on_c, 1, 60, 0
4, 15804, Note_on_c, 1, 65, 37
4, 15806, Note_on_c, 1, 57, 0
4, 15816, Note_on_c, 1, 60, 39
4, 15818, Note_on_c, 1, 65, 0
4, 15828, Note_on_c, 1, 69, 33
4, 15830, Note_on_c, 1, 60, 0
4, 15840, Note_on_c, 1, 48, 50
4, 15842, Note_on_c, 1, 69, 0
4, 15852, Note_on_c, 1, 55, 35
4, 15854, Note_on_c, 1, 48, 0
4, 15864, Note_on_c, 1, 52, 37
4, 15866, Note_on_c, 1, 55, 0
4, 15876, Note_on_c, 1, 60, 32
4, 15878, Note_on_c, 1, 52, 0
4, 15888, Note_on_c, 1, 55, 34
4, 15890, Note_on_c, 1, 60, 0
4, 15900, Note_on_c, 1, 64, 37
4, 15902, Note_on_c, 1, 55, 0
4, 15912, Note_on_c, 1, 60, 40
4, 15914, Note_on_c, 1, 64, 0
4, 15924, Note_on_c, 1, 67, 35
4, 15926, Note_on_c, 1, 60, 0
4, 15936, Note_on_c, 1, 48, 72
4, 15936, Note_on_c, 1, 36, 90
4, 15938, Note_on_c, 1, 67, 0
4, 15948, Note_on_c, 1, 48, 0
4, 15948, Note_on_c, 1, 48, 70
4, 15956, Note_on_c, 1, 48, 0
4, 15960, Note_on_c, 1, 52, 65
4, 15967, Note_on_c, 1, 52, 0
4, 15972, Note_on_c, 1, 48, 68
4, 15978, Note_on_c, 1, 48, 0
4, 15984, Note_on_c, 1, 52, 62
4, 15991, Note_on_c, 1, 52, 0
4, 15996, Note_on_c, 1, 48, 65
4, 16008, Note_on_c, 1, 52, 58
4, 16015, Note_on_c, 1, 52, 0
4, 16020, Note_on_c, 1, 55, 54
4, 16026, Note_on_c, 1, 55, 0
4, 16032, Note_on_c, 1, 58, 50
4, 16042, Note_on_c, 1, 36, 0
4, 16042, Note_on_c, 1, 48, 0
4, 16042, Note_on_c, 1, 58, 0
4, 16056, Note_on_c, 1, 60, 30
4, 16056, Note_on_c, 1, 57, 60
4, 16080, Note_on_c, 1, 58, 50
4, 16080, Note_on_c, 1, 55, 62
4, 16082, Note_on_c, 1, 57, 0
4, 16104, Note_on_c, 1, 60, 0
4, 16104, Note_on_c, 1, 60, 35
4, 16104, Note_on_c, 1, 57, 45
4, 16104, Note_on_c, 1, 53, 65
4, 16106, Note_on_c, 1, 55, 0
4, 16106, Note_on_c, 1, 58, 0
4, 16128, Note_on_c, 1, 48, 62
4, 16128, Note_on_c, 1, 36, 80
4, 16130, Note_on_c, 1, 53, 0
4, 16130, Note_on_c, 1, 57, 0
4, 16130, Note_on_c, 1, 60, 0
4, 16140, Note_on_c, 1, 48, 0
4, 16140, Note_on_c, 1, 48, 60
4, 16148, Note_on_c, 1, 48, 0
4, 16152, Note_on_c, 1, 52, 55
4, 16159, Note_on_c, 1, 52, 0
4, 16164, Note_on_c, 1, 48, 58
4, 16170, Note_on_c, 1, 48, 0
4, 16176, Note_on_c, 1, 52, 52
4, 16183, Note_on_c, 1, 52, 0
4, 16188, Note_on_c, 1, 48, 55
4, 16200, Note_on_c, 1, 52, 48
4, 16207, Note_on_c, 1, 52, 0
4, 16212, Note_on_c, 1, 55, 44
4, 16218, Note_on_c, 1, 55, 0
4, 16224, Note_on_c, 1, 58, 40
4, 16234, Note_on_c, 1, 36, 0
4, 16234, Note_on_c, 1, 48, 0
4, 16234, Note_on_c, 1, 58, 0
4, 16248, Note_on_c, 1, 65, 50
4, 16248, Note_on_c, 1, 60, 30
4, 16248, Note_on_c, 1, 57, 60
4, 16272, Note_on_c, 1, 59, 55
4, 16272, Note_on_c, 1, 56, 62
4, 16274, Note_on_c, 1, 57, 0
4, 16296, Note_on_c, 1, 60, 0
4, 16296, Note_on_c, 1, 65, 0
4, 16296, Note_on_c, 1, 65, 35
4, 16296, Note_on_c, 1, 60, 45
4, 16296, Note_on_c, 1, 57, 58
4, 16298, Note_on_c, 1, 56, 0
4, 16298, Note_on_c, 1, 59, 0
4, 16320, Note_on_c, 1, 58, 45
4, 16320, Note_on_c, 1, 46, 60
4, 16322, Note_on_c, 1, 57, 0
4, 16322, Note_on_c, 1, 60, 0
4, 16322, Note_on_c, 1, 65, 0
4, 16332, Note_on_c, 1, 67, 33
4, 16332, Note_on_c, 1, 65, 25
4, 16332, Note_on_c, 1, 62, 40
4, 16334, Note_on_c, 1, 46, 0
4, 16334, Note_on_c, 1, 58, 0
4, 16338, Note_on_c, 1, 62, 0
4, 16338, Note_on_c, 1, 65, 0
4, 16338, Note_on_c, 1, 67, 0
4, 16344, Note_on_c, 1, 67, 35
4, 16344, Note_on_c, 1, 65, 28
4, 16344, Note_on_c, 1, 62, 42
4, 16352, Note_on_c, 1, 62, 0
4, 16352, Note_on_c, 1, 65, 0
4, 16352, Note_on_c, 1, 67, 0
4, 16356, Note_on_c, 1, 67, 32
4, 16356, Note_on_c, 1, 65, 25
4, 16356, Note_on_c, 1, 62, 37
4, 16362, Note_on_c, 1, 62, 0
4, 16362, Note_on_c, 1, 65, 0
4, 16362, Note_on_c, 1, 67, 0
4, 16368, Note_on_c, 1, 59, 43
4, 16368, Note_on_c, 1, 47, 53
4, 16374, Note_on_c, 1, 59, 0
4, 16380, Note_on_c, 1, 67, 30
4, 16380, Note_on_c, 1, 65, 22
4, 16380, Note_on_c, 1, 62, 37
4, 16382, Note_on_c, 1, 47, 0
4, 16386, Note_on_c, 1, 62, 0
4, 16386, Note_on_c, 1, 65, 0
4, 16386, Note_on_c, 1, 67, 0
4, 16392, Note_on_c, 1, 67, 32
4, 16392, Note_on_c, 1, 65, 25
4, 16392, Note_on_c, 1, 62, 39
4, 16400, Note_on_c, 1, 62, 0
4, 16400, Note_on_c, 1, 65, 0
4, 16400, Note_on_c, 1, 67, 0
4, 16404, Note_on_c, 1, 67, 30
4, 16404, Note_on_c, 1, 65, 20
4, 16404, Note_on_c, 1, 62, 34
4, 16410, Note_on_c, 1, 62, 0
4, 16410, Note_on_c, 1, 65, 0
4, 16410, Note_on_c, 1, 67, 0
4, 16416, Note_on_c, 1, 48, 55
4, 16428, Note_on_c, 1, 69, 33
4, 16428, Note_on_c, 1, 65, 25
4, 16428, Note_on_c, 1, 60, 40
4, 16430, Note_on_c, 1, 48, 0
4, 16434, Note_on_c, 1, 60, 0
4, 16434, Note_on_c, 1, 65, 0
4, 16434, Note_on_c, 1, 69, 0
4, 16440, Note_on_c, 1, 69, 35
4, 16440, Note_on_c, 1, 65, 28
4, 16440, Note_on_c, 1, 60, 42
4, 16448, Note_on_c, 1, 60, 0
4, 16448, Note_on_c, 1, 65, 0
4, 16448, Note_on_c, 1, 69, 0
4, 16452, Note_on_c, 1, 69, 32
4, 16452, Note_on_c, 1, 65, 20
4, 16452, Note_on_c, 1, 60, 37
4, 16458, Note_on_c, 1, 60, 0
4, 16458, Note_on_c, 1, 65, 0
4, 16458, Note_on_c, 1, 69, 0
4, 16464, Note_on_c, 1, 48, 40
4, 16464, Note_on_c, 1, 36, 58
4, 16476, Note_on_c, 1, 64, 30
4, 16476, Note_on_c, 1, 60, 25
4, 16476, Note_on_c, 1, 58, 37
4, 16478, Note_on_c, 1, 36, 0
4, 16478, Note_on_c, 1, 48, 0
4, 16482, Note_on_c, 1, 58, 0
4, 16482, Note_on_c, 1, 60, 0
4, 16482, Note_on_c, 1, 64, 0
4, 16488, Note_on_c, 1, 64, 32
4, 16488, Note_on_c, 1, 60, 27
4, 16488, Note_on_c, 1, 58, 39
4, 16496, Note_on_c, 1, 58, 0
4, 16496, Note_on_c, 1, 60, 0
4, 16496, Note_on_c, 1, 64, 0
4, 16500, Note_on_c, 1, 64, 37
4, 16500, Note_on_c, 1, 60, 22
4, 16500, Note_on_c, 1, 58, 42
4, 16504, Note_on_c, 1, 41, 50
4, 16506, Note_on_c, 1, 58, 0
4, 16506, Note_on_c, 1, 60, 0
4, 16506, Note_on_c, 1, 64, 0
4, 16510, Note_on_c, 1, 60, 35
4, 16512, Note_on_c, 1, 57, 40
4, 16552, Note_on_c, 1, 57, 0
4, 16552, Note_on_c, 1, 41, 0
4, 16558, Note_on_c, 1, 60, 0
4, 16560, Note_on_c, 1, 57, 80
4, 16560, Note_on_c, 1, 45, 100
4, 16600, Note_on_c, 1, 57, 0
4, 16602, Note_on_c, 1, 45, 0
4, 16602, Note_on_c, 1, 57, 78
4, 16602, Note_on_c, 1, 45, 95
4, 16608, Note_on_c, 1, 50, 75
4, 16608, Note_on_c, 1, 38, 105
4, 16610, Note_on_c, 1, 45, 0
4, 16610, Note_on_c, 1, 57, 0
4, 16648, Note_on_c, 1, 38, 0
4, 16648, Note_on_c, 1, 50, 0
4, 16656, Note_on_c, 1, 62, 80
4, 16656, Note_on_c, 1, 50, 100
4, 16698, Note_on_c, 1, 50, 0
4, 16698, Note_on_c, 1, 62, 0
4, 16698, Note_on_c, 1, 62, 78
4, 16698, Note_on_c, 1, 50, 95
4, 16704, Note_on_c, 1, 55, 75
4, 16704, Note_on_c, 1, 43, 105
4, 16706, Note_on_c, 1, 50, 0
4, 16706, Note_on_c, 1, 62, 0
4, 16744, Note_on_c, 1, 43, 0
4, 16744, Note_on_c, 1, 55, 0
4, 16752, Note_on_c, 1, 58, 80
4, 16752, Note_on_c, 1, 46, 100
4, 16794, Note_on_c, 1, 46, 0
4, 16794, Note_on_c, 1, 58, 0
4, 16794, Note_on_c, 1, 58, 78
4, 16794, Note_on_c, 1, 46, 95
4, 16800, Note_on_c, 1, 49, 85
4, 16800, Note_on_c, 1, 37, 115
4, 16802, Note_on_c, 1, 46, 0
4, 16802, Note_on_c, 1, 58, 0
4, 16840, Note_on_c, 1, 37, 0
4, 16840, Note_on_c, 1, 49, 0
4, 16848, Note_on_c, 1, 50, 78
4, 16848, Note_on_c, 1, 38, 105
4, 16884, Note_on_c, 1, 38, 0
4, 16884, Note_on_c, 1, 50, 0
4, 16896, Note_on_c, 1, 46, 60
4, 16896, Note_on_c, 1, 34, 75
4, 16944, Note_on_c, 1, 46, 0
4, 16944, Note_on_c, 1, 46, 55
4, 16946, Note_on_c, 1, 34, 0
4, 16968, Note_on_c, 1, 55, 47
4, 16968, Note_on_c, 1, 53, 40
4, 16968, Note_on_c, 1, 50, 30
4, 16992, Note_on_c, 1, 50, 0
4, 16992, Note_on_c, 1, 53, 0
4, 16992, Note_on_c, 1, 55, 0
4, 16992, Note_on_c, 1, 46, 0
4, 16992, Note_on_c, 1, 57, 63
4, 16992, Note_on_c, 1, 53, 40
4, 16992, Note_on_c, 1, 48, 65
4, 17016, Note_on_c, 1, 60, 58
4, 17018, Note_on_c, 1, 57, 0
4, 17040, Note_on_c, 1, 48, 0
4, 17040, Note_on_c, 1, 58, 60
4, 17040, Note_on_c, 1, 52, 48
4, 17040, Note_on_c, 1, 48, 57
4, 17042, Note_on_c, 1, 60, 0
4, 17042, Note_on_c, 1, 53, 0
4, 17064, Note_on_c, 1, 55, 51
4, 17066, Note_on_c, 1, 52, 0
4, 17088, Note_on_c, 1, 48, 0
4, 17088, Note_on_c, 1, 57, 30
4, 17088, Note_on_c, 1, 53, 55
4, 17090, Note_on_c, 1, 55, 0
4, 17090, Note_on_c, 1, 58, 0
4, 17128, Note_on_c, 1, 53, 0
4, 17128, Note_on_c, 1, 57, 0
4, 17136, Note_on_c, 1, 57, 40
4, 17178, Note_on_c, 1, 57, 0
4, 17178, Note_on_c, 1, 57, 35
4, 17184, Note_on_c, 1, 50, 45
4, 17186, Note_on_c, 1, 57, 0
4, 17224, Note_on_c, 1, 50, 0
4, 17232, Note_on_c, 1, 62, 45
4, 17232, Note_on_c, 1, 50, 40
4, 17274, Note_on_c, 1, 50, 0
4, 17274, Note_on_c, 1, 62, 0
4, 17274, Note_on_c, 1, 62, 40
4, 17274, Note_on_c, 1, 50, 35
4, 17280, Note_on_c, 1, 55, 47
4, 17280, Note_on_c, 1, 43, 42
4, 17282, Note_on_c, 1, 50, 0
4, 17282, Note_on_c, 1, 62, 0
4, 17320, Note_on_c, 1, 43, 0
4, 17320, Note_on_c, 1, 55, 0
4, 17328, Note_on_c, 1, 58, 50
4, 17370, Note_on_c, 1, 58, 0
4, 17370, Note_on_c, 1, 58, 45
4, 17376, Note_on_c, 1, 52, 55
4, 17378, Note_on_c, 1, 58, 0
4, 17416, Note_on_c, 1, 52, 0
4, 17424, Note_on_c, 1, 67, 50
4, 17424, Note_on_c, 1, 55, 45
4, 17466, Note_on_c, 1, 55, 0
4, 17466, Note_on_c, 1, 67, 0
4, 17466, Note_on_c, 1, 67, 43
4, 17466, Note_on_c, 1, 55, 38
4, 17472, Note_on_c, 1, 48, 50
4, 17474, Note_on_c, 1, 55, 0
4, 17474, Note_on_c, 1, 67, 0
4, 17496, Note_on_c, 1, 48, 0
4, 17496, Note_on_c, 1, 64, 40
4, 17496, Note_on_c, 1, 60, 25
4, 17496, Note_on_c, 1, 58, 36
4, 17516, Note_on_c, 1, 58, 0
4, 17516, Note_on_c, 1, 60, 0
4, 17516, Note_on_c, 1, 64, 0
4, 17520, Note_on_c, 1, 50, 47
4, 17544, Note_on_c, 1, 50, 0
4, 17544, Note_on_c, 1, 65, 37
4, 17544, Note_on_c, 1, 60, 22
4, 17544, Note_on_c, 1, 58, 33
4, 17564, Note_on_c, 1, 58, 0
4, 17564, Note_on_c, 1, 60, 0
4, 17564, Note_on_c, 1, 65, 0
4, 17568, Note_on_c, 1, 52, 43
4, 17592, Note_on_c, 1, 52, 0
4, 17592, Note_on_c, 1, 67, 33
4, 17592, Note_on_c, 1, 60, 18
4, 17592, Note_on_c, 1, 58, 29
4, 17612, Note_on_c, 1, 58, 0
4, 17612, Note_on_c, 1, 60, 0
4, 17612, Note_on_c, 1, 67, 0
4, 17616, Note_on_c, 1, 48, 45
4, 17640, Note_on_c, 1, 48, 0
4, 17640, Note_on_c, 1, 64, 35
4, 17640, Note_on_c, 1, 60, 20
4, 17640, Note_on_c, 1, 58, 31
4, 17660, Note_on_c, 1, 58, 0
4, 17660, Note_on_c, 1, 60, 0
4, 17660, Note_on_c, 1, 64, 0
4, 17664, Note_on_c, 1, 53, 35
4, 17664, Note_on_c, 1, 41, 50
4, 17688, Note_on_c, 1, 41, 0
4, 17688, Note_on_c, 1, 53, 0
4, 17688, Note_on_c, 1, 65, 35
4, 17688, Note_on_c, 1, 60, 20
4, 17688, Note_on_c, 1, 57, 31
4, 17698, Note_on_c, 1, 57, 0
4, 17698, Note_on_c, 1, 60, 0
4, 17698, Note_on_c, 1, 65, 0
4, 17712, Note_on_c, 1, 60, 33
4, 17712, Note_on_c, 1, 57, 18
4, 17712, Note_on_c, 1, 53, 29
4, 17724, Note_on_c, 1, 53, 0
4, 17724, Note_on_c, 1, 57, 0
4, 17724, Note_on_c, 1, 60, 0
4, 17736, Note_on_c, 1, 57, 30
4, 17736, Note_on_c, 1, 53, 15
4, 17736, Note_on_c, 1, 48, 26
4, 17744, Note_on_c, 1, 48, 0
4, 17744, Note_on_c, 1, 53, 0
4, 17744, Note_on_c, 1, 57, 0
4, 17760, Note_on_c, 1, 45, 35
4, 17760, Note_on_c, 1, 33, 45
4, 17784, Note_on_c, 1, 33, 0
4, 17784, Note_on_c, 1, 45, 0
4, 17784, Note_on_c, 1, 69, 30
4, 17784, Note_on_c, 1, 65, 22
4, 17784, Note_on_c, 1, 60, 33
4, 17794, Note_on_c, 1, 60, 0
4, 17794, Note_on_c, 1, 65, 0
4, 17794, Note_on_c, 1, 69, 0
4, 17808, Note_on_c, 1, 65, 35
4, 17808, Note_on_c, 1, 60, 20
4, 17808, Note_on_c, 1, 57, 31
4, 17820, Note_on_c, 1, 57, 0
4, 17820, Note_on_c, 1, 60, 0
4, 17820, Note_on_c, 1, 65, 0
4, 17832, Note_on_c, 1, 60, 32
4, 17832, Note_on_c, 1, 57, 17
4, 17832, Note_on_c, 1, 53, 28
4, 17840, Note_on_c, 1, 53, 0
4, 17840, Note_on_c, 1, 57, 0
4, 17840, Note_on_c, 1, 60, 0
4, 17856, Note_on_c, 1, 46, 35
4, 17856, Note_on_c, 1, 34, 50
4, 17880, Note_on_c, 1, 34, 0
4, 17880, Note_on_c, 1, 46, 0
4, 17880, Note_on_c, 1, 67, 35
4, 17880, Note_on_c, 1, 65, 20
4, 17880, Note_on_c, 1, 62, 31
4, 17900, Note_on_c, 1, 62, 0
4, 17900, Note_on_c, 1, 65, 0
4, 17900, Note_on_c, 1, 67, 0
4, 17904, Note_on_c, 1, 67, 33
4, 17904, Note_on_c, 1, 65, 18
4, 17904, Note_on_c, 1, 62, 29
4, 17924, Note_on_c, 1, 62, 0
4, 17924, Note_on_c, 1, 65, 0
4, 17924, Note_on_c, 1, 67, 0
4, 17928, Note_on_c, 1, 67, 30
4, 17928, Note_on_c, 1, 65, 15
4, 17928, Note_on_c, 1, 62, 26
4, 17948, Note_on_c, 1, 62, 0
4, 17948, Note_on_c, 1, 65, 0
4, 17948, Note_on_c, 1, 67, 0
4, 17952, Note_on_c, 1, 47, 45
4, 17952, Note_on_c, 1, 35, 55
4, 17976, Note_on_c, 1, 35, 0
4, 17976, Note_on_c, 1, 47, 0
4, 17976, Note_on_c, 1, 67, 40
4, 17976, Note_on_c, 1, 65, 32
4, 17976, Note_on_c, 1, 62, 43
4, 17996, Note_on_c, 1, 62, 0
4, 17996, Note_on_c, 1, 65, 0
4, 17996, Note_on_c, 1, 67, 0
4, 18000, Note_on_c, 1, 67, 45
4, 18000, Note_on_c, 1, 65, 30
4, 18000, Note_on_c, 1, 62, 41
4, 18020, Note_on_c, 1, 62, 0
4, 18020, Note_on_c, 1, 65, 0
4, 18020, Note_on_c, 1, 67, 0
4, 18024, Note_on_c, 1, 67, 42
4, 18024, Note_on_c, 1, 65, 27
4, 18024, Note_on_c, 1, 62, 38
4, 18044, Note_on_c, 1, 62, 0
4, 18044, Note_on_c, 1, 65, 0
4, 18044, Note_on_c, 1, 67, 0
4, 18048, Note_on_c, 1, 48, 35
4, 18048, Note_on_c, 1, 36, 50
4, 18072, Note_on_c, 1, 36, 0
4, 18072, Note_on_c, 1, 48, 0
4, 18072, Note_on_c, 1, 57, 40
4, 18072, Note_on_c, 1, 53, 25
4, 18072, Note_on_c, 1, 48, 36
4, 18092, Note_on_c, 1, 48, 0
4, 18092, Note_on_c, 1, 53, 0
4, 18092, Note_on_c, 1, 57, 0
4, 18096, Note_on_c, 1, 69, 35
4, 18096, Note_on_c, 1, 65, 20
4, 18096, Note_on_c, 1, 60, 27
4, 18144, Note_on_c, 1, 60, 0
4, 18144, Note_on_c, 1, 65, 0
4, 18144, Note_on_c, 1, 69, 0
4, 18240, Note_on_c, 1, 48, 35
4, 18240, Note_on_c, 1, 36, 50
4, 18264, Note_on_c, 1, 70, 40
4, 18264, Note_on_c, 1, 67, 28
4, 18264, Note_on_c, 1, 65, 35
4, 18264, Note_on_c, 1, 60, 25
4, 18266, Note_on_c, 1, 36, 0
4, 18266, Note_on_c, 1, 48, 0
4, 18278, Note_on_c, 1, 60, 0
4, 18278, Note_on_c, 1, 65, 0
4, 18278, Note_on_c, 1, 67, 0
4, 18278, Note_on_c, 1, 70, 0
4, 18288, Note_on_c, 1, 70, 50
4, 18288, Note_on_c, 1, 67, 50
4, 18288, Note_on_c, 1, 65, 41
4, 18288, Note_on_c, 1, 60, 35
4, 18306, Note_on_c, 1, 60, 0
4, 18306, Note_on_c, 1, 65, 0
4, 18306, Note_on_c, 1, 67, 0
4, 18306, Note_on_c, 1, 70, 0
4, 18312, Note_on_c, 1, 70, 62
4, 18312, Note_on_c, 1, 67, 62
4, 18312, Note_on_c, 1, 65, 57
4, 18312, Note_on_c, 1, 60, 47
4, 18328, Note_on_c, 1, 60, 0
4, 18328, Note_on_c, 1, 65, 0
4, 18328, Note_on_c, 1, 67, 0
4, 18328, Note_on_c, 1, 70, 0
4, 18336, Note_on_c, 1, 48, 70
4, 18336, Note_on_c, 1, 36, 90
4, 18353, Note_on_c, 1, 60, 80
4, 18356, Note_on_c, 1, 64, 77
4, 18358, Note_on_c, 1, 60, 0
4, 18358, Note_on_c, 1, 67, 81
4, 18360, Note_on_c, 1, 64, 0
4, 18360, Note_on_c, 1, 36, 0
4, 18360, Note_on_c, 1, 48, 0
4, 18360, Note_on_c, 1, 70, 85
4, 18362, Note_on_c, 1, 67, 0
4, 18366, Note_on_c, 1, 69, 83
4, 18368, Note_on_c, 1, 70, 0
4, 18372, Note_on_c, 1, 67, 81
4, 18374, Note_on_c, 1, 69, 0
4, 18378, Note_on_c, 1, 65, 79
4, 18380, Note_on_c, 1, 67, 0
4, 18384, Note_on_c, 1, 64, 82
4, 18386, Note_on_c, 1, 65, 0
4, 18390, Note_on_c, 1, 62, 80
4, 18392, Note_on_c, 1, 64, 0
4, 18396, Note_on_c, 1, 60, 78
4, 18398, Note_on_c, 1, 62, 0
4, 18402, Note_on_c, 1, 58, 76
4, 18404, Note_on_c, 1, 60, 0
4, 18408, Note_on_c, 1, 57, 79
4, 18410, Note_on_c, 1, 58, 0
4, 18414, Note_on_c, 1, 55, 77
4, 18416, Note_on_c, 1, 57, 0
4, 18420, Note_on_c, 1, 53, 80
4, 18422, Note_on_c, 1, 55, 0
4, 18426, Note_on_c, 1, 52, 85
4, 18428, Note_on_c, 1, 53, 0
4, 18432, Note_on_c, 1, 53, 70
4, 18432, Note_on_c, 1, 41, 85
4, 18434, Note_on_c, 1, 52, 0
4, 18444, Note_on_c, 1, 53, 0
4, 18444, Note_on_c, 1, 57, 48
4, 18444, Note_on_c, 1, 53, 55
4, 18446, Note_on_c, 1, 41, 0
4, 18450, Note_on_c, 1, 53, 0
4, 18450, Note_on_c, 1, 57, 0
4, 18456, Note_on_c, 1, 57, 50
4, 18456, Note_on_c, 1, 53, 57
4, 18464, Note_on_c, 1, 53, 0
4, 18464, Note_on_c, 1, 57, 0
4, 18468, Note_on_c, 1, 57, 47
4, 18468, Note_on_c, 1, 53, 52
4, 18474, Note_on_c, 1, 53, 0
4, 18474, Note_on_c, 1, 57, 0
4, 18480, Note_on_c, 1, 53, 60
4, 18480, Note_on_c, 1, 41, 78
4, 18492, Note_on_c, 1, 53, 0
4, 18492, Note_on_c, 1, 57, 45
4, 18492, Note_on_c, 1, 53, 52
4, 18494, Note_on_c, 1, 41, 0
4, 18498, Note_on_c, 1, 53, 0
4, 18498, Note_on_c, 1, 57, 0
4, 18504, Note_on_c, 1, 53, 47
4, 18504, Note_on_c, 1, 57, 54
4, 18512, Note_on_c, 1, 57, 0
4, 18512, Note_on_c, 1, 53, 0
4, 18516, Note_on_c, 1, 57, 44
4, 18516, Note_on_c, 1, 53, 49
4, 18522, Note_on_c, 1, 53, 0
4, 18522, Note_on_c, 1, 57, 0
4, 18528, Note_on_c, 1, 53, 60
4, 18528, Note_on_c, 1, 41, 80
4, 18540, Note_on_c, 1, 53, 0
4, 18540, Note_on_c, 1, 63, 48
4, 18540, Note_on_c, 1, 60, 40
4, 18540, Note_on_c, 1, 53, 55
4, 18542, Note_on_c, 1, 41, 0
4, 18546, Note_on_c, 1, 53, 0
4, 18546, Note_on_c, 1, 60, 0
4, 18546, Note_on_c, 1, 63, 0
4, 18552, Note_on_c, 1, 63, 50
4, 18552, Note_on_c, 1, 60, 42
4, 18552, Note_on_c, 1, 53, 57
4, 18560, Note_on_c, 1, 53, 0
4, 18560, Note_on_c, 1, 60, 0
4, 18560, Note_on_c, 1, 63, 0
4, 18564, Note_on_c, 1, 63, 47
4, 18564, Note_on_c, 1, 60, 38
4, 18564, Note_on_c, 1, 53, 52
4, 18570, Note_on_c, 1, 53, 0
4, 18570, Note_on_c, 1, 60, 0
4, 18570, Note_on_c, 1, 63, 0
4, 18576, Note_on_c, 1, 53, 75
4, 18576, Note_on_c, 1, 41, 75
4, 18588, Note_on_c, 1, 53, 0
4, 18588, Note_on_c, 1, 63, 45
4, 18588, Note_on_c, 1, 60, 38
4, 18588, Note_on_c, 1, 53, 52
4, 18590, Note_on_c, 1, 41, 0
4, 18594, Note_on_c, 1, 53, 0
4, 18594, Note_on_c, 1, 60, 0
4, 18594, Note_on_c, 1, 63, 0
4, 18600, Note_on_c, 1, 63, 37
4, 18600, Note_on_c, 1, 60, 30
4, 18600, Note_on_c, 1, 53, 44
4, 18608, Note_on_c, 1, 53, 0
4, 18608, Note_on_c, 1, 60, 0
4, 18608, Note_on_c, 1, 63, 0
4, 18612, Note_on_c, 1, 63, 32
4, 18612, Note_on_c, 1, 60, 15
4, 18612, Note_on_c, 1, 53, 37
4, 18618, Note_on_c, 1, 53, 0
4, 18618, Note_on_c, 1, 60, 0
4, 18618, Note_on_c, 1, 63, 0
4, 18624, Note_on_c, 1, 41, 55
4, 18636, Note_on_c, 1, 46, 40
4, 18638, Note_on_c, 1, 41, 0
4, 18648, Note_on_c, 1, 50, 42
4, 18650, Note_on_c, 1, 46, 0
4, 18660, Note_on_c, 1, 53, 35
4, 18662, Note_on_c, 1, 50, 0
4, 18672, Note_on_c, 1, 50, 38
4, 18674, Note_on_c, 1, 53, 0
4, 18684, Note_on_c, 1, 53, 40
4, 18686, Note_on_c, 1, 50, 0
4, 18696, Note_on_c, 1, 58, 36
4, 18698, Note_on_c, 1, 53, 0
4, 18708, Note_on_c, 1, 62, 30
4, 18710, Note_on_c, 1, 58, 0
4, 18720, Note_on_c, 1, 62, 0
4, 18720, Note_on_c, 1, 41, 45
4, 18732, Note_on_c, 1, 43, 40
4, 18734, Note_on_c, 1, 41, 0
4, 18744, Note_on_c, 1, 46, 42
4, 18746, Note_on_c, 1, 43, 0
4, 18756, Note_on_c, 1, 48, 39
4, 18758, Note_on_c, 1, 46, 0
4, 18768, Note_on_c, 1, 52, 36
4, 18770, Note_on_c, 1, 48, 0
4, 18780, Note_on_c, 1, 55, 38
4, 18782, Note_on_c, 1, 52, 0
4, 18792, Note_on_c, 1, 58, 42
4, 18794, Note_on_c, 1, 55, 0
4, 18804, Note_on_c, 1, 60, 45
4, 18806, Note_on_c, 1, 58, 0
4, 18816, Note_on_c, 1, 60, 0
4, 18816, Note_on_c, 1, 53, 60
4, 18816, Note_on_c, 1, 41, 75
4, 18828, Note_on_c, 1, 53, 0
4, 18828, Note_on_c, 1, 57, 38
4, 18828, Note_on_c, 1, 53, 45
4, 18830, Note_on_c, 1, 41, 0
4, 18834, Note_on_c, 1, 53, 0
4, 18834, Note_on_c, 1, 57, 0
4, 18840, Note_on_c, 1, 57, 40
4, 18840, Note_on_c, 1, 53, 47
4, 18848, Note_on_c, 1, 53, 0
4, 18848, Note_on_c, 1, 57, 0
4, 18852, Note_on_c, 1, 57, 37
4, 18852, Note_on_c, 1, 53, 42
4, 18858, Note_on_c, 1, 53, 0
4, 18858, Note_on_c, 1, 57, 0
4, 18864, Note_on_c, 1, 53, 50
4, 18864, Note_on_c, 1, 41, 68
4, 18876, Note_on_c, 1, 53, 0
4, 18876, Note_on_c, 1, 57, 35
4, 18876, Note_on_c, 1, 53, 42
4, 18878, Note_on_c, 1, 41, 0
4, 18882, Note_on_c, 1, 53, 0
4, 18882, Note_on_c, 1, 57, 0
4, 18888, Note_on_c, 1, 53, 37
4, 18888, Note_on_c, 1, 57, 44
4, 18896, Note_on_c, 1, 57, 0
4, 18896, Note_on_c, 1, 53, 0
4, 18900, Note_on_c, 1, 57, 34
4, 18900, Note_on_c, 1, 53, 39
4, 18906, Note_on_c, 1, 53, 0
4, 18906, Note_on_c, 1, 57, 0
4, 18912, Note_on_c, 1, 53, 50
4, 18912, Note_on_c, 1, 41, 70
4, 18924, Note_on_c, 1, 53, 0
4, 18924, Note_on_c, 1, 63, 38
4, 18924, Note_on_c, 1, 60, 30
4, 18924, Note_on_c, 1, 53, 45
4, 18926, Note_on_c, 1, 41, 0
4, 18930, Note_on_c, 1, 53, 0
4, 18930, Note_on_c, 1, 60, 0
4, 18930, Note_on_c, 1, 63, 0
4, 18936, Note_on_c, 1, 63, 40
4, 18936, Note_on_c, 1, 60, 32
4, 18936, Note_on_c, 1, 53, 47
4, 18944, Note_on_c, 1, 53, 0
4, 18944, Note_on_c, 1, 60, 0
4, 18944, Note_on_c, 1, 63, 0
4, 18948, Note_on_c, 1, 63, 37
4, 18948, Note_on_c, 1, 60, 28
4, 18948, Note_on_c, 1, 53, 42
4, 18954, Note_on_c, 1, 53, 0
4, 18954, Note_on_c, 1, 60, 0
4, 18954, Note_on_c, 1, 63, 0
4, 18960, Note_on_c, 1, 63, 35
4, 18960, Note_on_c, 1, 57, 25
4, 18960, Note_on_c, 1, 53, 45
4, 18968, Note_on_c, 1, 53, 0
4, 18968, Note_on_c, 1, 57, 0
4, 18968, Note_on_c, 1, 63, 0
4, 18972, Note_on_c, 1, 63, 35
4, 18972, Note_on_c, 1, 57, 28
4, 18972, Note_on_c, 1, 53, 42
4, 18978, Note_on_c, 1, 53, 0
4, 18978, Note_on_c, 1, 57, 0
4, 18978, Note_on_c, 1, 63, 0
4, 18984, Note_on_c, 1, 63, 32
4, 18984, Note_on_c, 1, 60, 25
4, 18984, Note_on_c, 1, 53, 39
4, 18992, Note_on_c, 1, 53, 0
4, 18992, Note_on_c, 1, 60, 0
4, 18992, Note_on_c, 1, 63, 0
4, 18996, Note_on_c, 1, 63, 27
4, 18996, Note_on_c, 1, 60, 15
4, 18996, Note_on_c, 1, 53, 32
4, 19002, Note_on_c, 1, 53, 0
4, 19002, Note_on_c, 1, 60, 0
4, 19002, Note_on_c, 1, 63, 0
4, 19008, Note_on_c, 1, 41, 40
4, 19020, Note_on_c, 1, 46, 30
4, 19022, Note_on_c, 1, 41, 0
4, 19032, Note_on_c, 1, 50, 32
4, 19034, Note_on_c, 1, 46, 0
4, 19044, Note_on_c, 1, 53, 25
4, 19046, Note_on_c, 1, 50, 0
4, 19056, Note_on_c, 1, 50, 28
4, 19058, Note_on_c, 1, 53, 0
4, 19068, Note_on_c, 1, 53, 30
4, 19070, Note_on_c, 1, 50, 0
4, 19080, Note_on_c, 1, 58, 26
4, 19082, Note_on_c, 1, 53, 0
4, 19092, Note_on_c, 1, 62, 20
4, 19094, Note_on_c, 1, 58, 0
4, 19104, Note_on_c, 1, 62, 0
4, 19104, Note_on_c, 1, 41, 35
4, 19116, Note_on_c, 1, 43, 30
4, 19118, Note_on_c, 1, 41, 0
4, 19128, Note_on_c, 1, 46, 32
4, 19130, Note_on_c, 1, 43, 0
4, 19140, Note_on_c, 1, 48, 29
4, 19142, Note_on_c, 1, 46, 0
4, 19152, Note_on_c, 1, 52, 26
4, 19154, Note_on_c, 1, 48, 0
4, 19164, Note_on_c, 1, 55, 28
4, 19166, Note_on_c, 1, 52, 0
4, 19176, Note_on_c, 1, 58, 25
4, 19178, Note_on_c, 1, 55, 0
4, 19188, Note_on_c, 1, 60, 20
4, 19190, Note_on_c, 1, 58, 0
4, 19194, Note_on_c, 1, 41, 40
4, 19200, Note_on_c, 1, 60, 0
4, 19200, Note_on_c, 1, 48, 25
4, 19202, Note_on_c, 1, 57, 30
4, 19224, Note_on_c, 1, 57, 0
4, 19224, Note_on_c, 1, 48, 0
4, 19224, Note_on_c, 1, 41, 0
4, 19296, Note_on_c, 1, 60, 30
4, 19296, Note_on_c, 1, 57, 18
4, 19296, Note_on_c, 1, 53, 25
4, 19320, Note_on_c, 1, 53, 0
4, 19320, Note_on_c, 1, 57, 0
4, 19320, Note_on_c, 1, 60, 0
4, 19392, Note_on_c, 1, 65, 25
4, 19392, Note_on_c, 1, 60, 15
4, 19392, Note_on_c, 1, 57, 22
4, 19392, Note_on_c, 1, 53, 30
4, 19416, Note_on_c, 1, 53, 0
4, 19416, Note_on_c, 1, 57, 0
4, 19416, Note_on_c, 1, 60, 0
4, 19416, Note_on_c, 1, 65, 0
4, 19584, Note_on_c, 1, 84, 60
4, 19656, Note_on_c, 1, 81, 45
4, 19658, Note_on_c, 1, 84, 0
4, 19680, Note_on_c, 1, 77, 50
4, 19682, Note_on_c, 1, 81, 0
4, 19704, Note_on_c, 1, 77, 0
4, 19824, Note_on_c, 1, 41, 30
4, 19826, Note_on_c, 1, 48, 15
4, 19828, Note_on_c, 1, 57, 20
4, 19848, Note_on_c, 1, 57, 0
4, 19848, Note_on_c, 1, 48, 0
4, 19848, Note_on_c, 1, 41, 0
4, 19866, Note_on_c, 1, 41, 25
4, 19872, Note_on_c, 1, 48, 12
4, 19876, Note_on_c, 1, 57, 18
4, 19896, Note_on_c, 1, 57, 0
4, 19896, Note_on_c, 1, 48, 0
4, 19896, Note_on_c, 1, 41, 0
4, 19968, End_track
5, 0, Start_track
5, 0, Title_t, "Dumper Pedal(R.H.)"
5, 0, MIDI_port, 0
5, 168, Control_c, 0, 64, 127
5, 192, Control_c, 0, 64, 127
5, 290, Control_c, 0, 64, 0
5, 292, Control_c, 0, 64, 127
5, 384, Control_c, 0, 64, 127
5, 386, Control_c, 0, 64, 0
5, 388, Control_c, 0, 64, 127
5, 482, Control_c, 0, 64, 0
5, 484, Control_c, 0, 64, 127
5, 576, Control_c, 0, 64, 127
5, 578, Control_c, 0, 64, 0
5, 580, Control_c, 0, 64, 127
5, 626, Control_c, 0, 64, 0
5, 628, Control_c, 0, 64, 127
5, 674, Control_c, 0, 64, 0
5, 676, Control_c, 0, 64, 127
5, 722, Control_c, 0, 64, 0
5, 724, Control_c, 0, 64, 127
5, 768, Control_c, 0, 64, 127
5, 770, Control_c, 0, 64, 0
5, 772, Control_c, 0, 64, 127
5, 868, Control_c, 0, 64, 0
5, 960, Control_c, 0, 64, 0
5, 964, Control_c, 0, 64, 127
5, 1060, Control_c, 0, 64, 0
5, 1084, Control_c, 0, 64, 127
5, 1106, Control_c, 0, 64, 0
5, 1108, Control_c, 0, 64, 127
5, 1130, Control_c, 0, 64, 0
5, 1132, Control_c, 0, 64, 127
5, 1152, Control_c, 0, 64, 127
5, 1154, Control_c, 0, 64, 0
5, 1156, Control_c, 0, 64, 127
5, 1252, Control_c, 0, 64, 0
5, 1276, Control_c, 0, 64, 127
5, 1298, Control_c, 0, 64, 0
5, 1300, Control_c, 0, 64, 127
5, 1322, Control_c, 0, 64, 0
5, 1324, Control_c, 0, 64, 127
5, 1344, Control_c, 0, 64, 127
5, 1346, Control_c, 0, 64, 0
5, 1348, Control_c, 0, 64, 127
5, 1442, Control_c, 0, 64, 0
5, 1444, Control_c, 0, 64, 127
5, 1490, Control_c, 0, 64, 0
5, 1492, Control_c, 0, 64, 127
5, 1536, Control_c, 0, 64, 127
5, 1538, Control_c, 0, 64, 0
5, 1540, Control_c, 0, 64, 127
5, 1636, Control_c, 0, 64, 0
5, 1728, Control_c, 0, 64, 0
5, 1732, Control_c, 0, 64, 127
5, 1778, Control_c, 0, 64, 0
5, 1780, Control_c, 0, 64, 127
5, 1826, Control_c, 0, 64, 0
5, 1828, Control_c, 0, 64, 127
5, 1874, Control_c, 0, 64, 0
5, 1876, Control_c, 0, 64, 127
5, 1920, Control_c, 0, 64, 127
5, 1922, Control_c, 0, 64, 0
5, 1924, Control_c, 0, 64, 127
5, 1970, Control_c, 0, 64, 0
5, 1972, Control_c, 0, 64, 127
5, 2018, Control_c, 0, 64, 0
5, 2020, Control_c, 0, 64, 127
5, 2066, Control_c, 0, 64, 0
5, 2068, Control_c, 0, 64, 127
5, 2112, Control_c, 0, 64, 127
5, 2114, Control_c, 0, 64, 0
5, 2116, Control_c, 0, 64, 127
5, 2162, Control_c, 0, 64, 0
5, 2164, Control_c, 0, 64, 127
5, 2210, Control_c, 0, 64, 0
5, 2212, Control_c, 0, 64, 127
5, 2258, Control_c, 0, 64, 0
5, 2260, Control_c, 0, 64, 127
5, 2304, Control_c, 0, 64, 127
5, 2306, Control_c, 0, 64, 0
5, 2308, Control_c, 0, 64, 127
5, 2402, Control_c, 0, 64, 0
5, 2404, Control_c, 0, 64, 127
5, 2492, Control_c, 0, 64, 0
5, 2496, Control_c, 0, 64, 0
5, 2620, Control_c, 0, 64, 127
5, 2642, Control_c, 0, 64, 0
5, 2644, Control_c, 0, 64, 127
5, 2666, Control_c, 0, 64, 0
5, 2668, Control_c, 0, 64, 127
5, 2688, Control_c, 0, 64, 127
5, 2690, Control_c, 0, 64, 0
5, 2812, Control_c, 0, 64, 127
5, 2834, Control_c, 0, 64, 0
5, 2836, Control_c, 0, 64, 127
5, 2858, Control_c, 0, 64, 0
5, 2860, Control_c, 0, 64, 127
5, 2880, Control_c, 0, 64, 127
5, 2882, Control_c, 0, 64, 0
5, 2884, Control_c, 0, 64, 127
5, 2930, Control_c, 0, 64, 0
5, 2932, Control_c, 0, 64, 127
5, 2978, Control_c, 0, 64, 0
5, 2980, Control_c, 0, 64, 127
5, 3026, Control_c, 0, 64, 0
5, 3028, Control_c, 0, 64, 127
5, 3072, Control_c, 0, 64, 127
5, 3074, Control_c, 0, 64, 0
5, 3124, Control_c, 0, 64, 127
5, 3172, Control_c, 0, 64, 0
5, 3220, Control_c, 0, 64, 127
5, 3264, Control_c, 0, 64, 127
5, 3268, Control_c, 0, 64, 0
5, 3316, Control_c, 0, 64, 127
5, 3364, Control_c, 0, 64, 0
5, 3456, Control_c, 0, 64, 127
5, 3458, Control_c, 0, 64, 0
5, 3460, Control_c, 0, 64, 127
5, 3554, Control_c, 0, 64, 0
5, 3556, Control_c, 0, 64, 127
5, 3602, Control_c, 0, 64, 0
5, 3604, Control_c, 0, 64, 127
5, 3648, Control_c, 0, 64, 127
5, 3650, Control_c, 0, 64, 0
5, 3700, Control_c, 0, 64, 127
5, 3748, Control_c, 0, 64, 0
5, 3816, Control_c, 0, 64, 127
5, 3840, Control_c, 0, 64, 127
5, 3938, Control_c, 0, 64, 0
5, 3940, Control_c, 0, 64, 127
5, 4032, Control_c, 0, 64, 127
5, 4034, Control_c, 0, 64, 0
5, 4036, Control_c, 0, 64, 127
5, 4130, Control_c, 0, 64, 0
5, 4132, Control_c, 0, 64, 127
5, 4224, Control_c, 0, 64, 127
5, 4226, Control_c, 0, 64, 0
5, 4228, Control_c, 0, 64, 127
5, 4322, Control_c, 0, 64, 0
5, 4324, Control_c, 0, 64, 127
5, 4416, Control_c, 0, 64, 0
5, 4420, Control_c, 0, 64, 127
5, 4514, Control_c, 0, 64, 0
5, 4608, Control_c, 0, 64, 0
5, 4616, Control_c, 0, 64, 127
5, 4706, Control_c, 0, 64, 0
5, 4708, Control_c, 0, 64, 127
5, 4800, Control_c, 0, 64, 127
5, 4802, Control_c, 0, 64, 0
5, 4804, Control_c, 0, 64, 127
5, 4898, Control_c, 0, 64, 0
5, 4900, Control_c, 0, 64, 127
5, 4992, Control_c, 0, 64, 127
5, 4994, Control_c, 0, 64, 0
5, 4996, Control_c, 0, 64, 127
5, 5042, Control_c, 0, 64, 0
5, 5044, Control_c, 0, 64, 127
5, 5138, Control_c, 0, 64, 0
5, 5140, Control_c, 0, 64, 127
5, 5184, Control_c, 0, 64, 127
5, 5186, Control_c, 0, 64, 0
5, 5376, Control_c, 0, 64, 0
5, 5380, Control_c, 0, 64, 127
5, 5474, Control_c, 0, 64, 0
5, 5476, Control_c, 0, 64, 127
5, 5568, Control_c, 0, 64, 127
5, 5570, Control_c, 0, 64, 0
5, 5572, Control_c, 0, 64, 127
5, 5666, Control_c, 0, 64, 0
5, 5668, Control_c, 0, 64, 127
5, 5760, Control_c, 0, 64, 127
5, 5762, Control_c, 0, 64, 0
5, 5952, Control_c, 0, 64, 0
5, 5956, Control_c, 0, 64, 127
5, 6052, Control_c, 0, 64, 0
5, 6144, Control_c, 0, 64, 0
5, 6148, Control_c, 0, 64, 127
5, 6244, Control_c, 0, 64, 0
5, 6246, Control_c, 0, 64, 127
5, 6316, Control_c, 0, 64, 0
5, 6336, Control_c, 0, 64, 0
5, 6436, Control_c, 0, 64, 127
5, 6528, Control_c, 0, 64, 127
5, 6530, Control_c, 0, 64, 0
5, 6628, Control_c, 0, 64, 127
5, 6674, Control_c, 0, 64, 0
5, 6676, Control_c, 0, 64, 127
5, 6720, Control_c, 0, 64, 127
5, 6722, Control_c, 0, 64, 0
5, 6820, Control_c, 0, 64, 127
5, 6912, Control_c, 0, 64, 127
5, 6914, Control_c, 0, 64, 0
5, 7012, Control_c, 0, 64, 127
5, 7058, Control_c, 0, 64, 0
5, 7060, Control_c, 0, 64, 127
5, 7104, Control_c, 0, 64, 127
5, 7106, Control_c, 0, 64, 0
5, 7296, Control_c, 0, 64, 0
5, 7488, Control_c, 0, 64, 0
5, 7680, Control_c, 0, 64, 127
5, 7778, Control_c, 0, 64, 0
5, 7780, Control_c, 0, 64, 127
5, 7872, Control_c, 0, 64, 127
5, 7874, Control_c, 0, 64, 0
5, 7876, Control_c, 0, 64, 127
5, 7922, Control_c, 0, 64, 0
5, 7924, Control_c, 0, 64, 127
5, 7970, Control_c, 0, 64, 0
5, 7972, Control_c, 0, 64, 127
5, 8064, Control_c, 0, 64, 127
5, 8066, Control_c, 0, 64, 0
5, 8068, Control_c, 0, 64, 127
5, 8114, Control_c, 0, 64, 0
5, 8116, Control_c, 0, 64, 127
5, 8162, Control_c, 0, 64, 0
5, 8164, Control_c, 0, 64, 127
5, 8210, Control_c, 0, 64, 0
5, 8212, Control_c, 0, 64, 127
5, 8256, Control_c, 0, 64, 127
5, 8258, Control_c, 0, 64, 0
5, 8260, Control_c, 0, 64, 127
5, 8356, Control_c, 0, 64, 0
5, 8448, Control_c, 0, 64, 0
5, 8452, Control_c, 0, 64, 127
5, 8548, Control_c, 0, 64, 0
5, 8572, Control_c, 0, 64, 127
5, 8594, Control_c, 0, 64, 0
5, 8596, Control_c, 0, 64, 127
5, 8618, Control_c, 0, 64, 0
5, 8620, Control_c, 0, 64, 127
5, 8640, Control_c, 0, 64, 127
5, 8642, Control_c, 0, 64, 0
5, 8644, Control_c, 0, 64, 127
5, 8740, Control_c, 0, 64, 0
5, 8764, Control_c, 0, 64, 127
5, 8786, Control_c, 0, 64, 0
5, 8788, Control_c, 0, 64, 127
5, 8810, Control_c, 0, 64, 0
5, 8812, Control_c, 0, 64, 127
5, 8832, Control_c, 0, 64, 127
5, 8834, Control_c, 0, 64, 0
5, 8836, Control_c, 0, 64, 127
5, 8930, Control_c, 0, 64, 0
5, 8932, Control_c, 0, 64, 127
5, 8978, Control_c, 0, 64, 0
5, 8980, Control_c, 0, 64, 127
5, 9024, Control_c, 0, 64, 127
5, 9026, Control_c, 0, 64, 0
5, 9028, Control_c, 0, 64, 127
5, 9124, Control_c, 0, 64, 0
5, 9216, Control_c, 0, 64, 0
5, 9220, Control_c, 0, 64, 127
5, 9266, Control_c, 0, 64, 0
5, 9268, Control_c, 0, 64, 127
5, 9314, Control_c, 0, 64, 0
5, 9316, Control_c, 0, 64, 127
5, 9362, Control_c, 0, 64, 0
5, 9364, Control_c, 0, 64, 127
5, 9408, Control_c, 0, 64, 127
5, 9410, Control_c, 0, 64, 0
5, 9412, Control_c, 0, 64, 127
5, 9458, Control_c, 0, 64, 0
5, 9460, Control_c, 0, 64, 127
5, 9506, Control_c, 0, 64, 0
5, 9508, Control_c, 0, 64, 127
5, 9554, Control_c, 0, 64, 0
5, 9556, Control_c, 0, 64, 127
5, 9600, Control_c, 0, 64, 127
5, 9602, Control_c, 0, 64, 0
5, 9604, Control_c, 0, 64, 127
5, 9650, Control_c, 0, 64, 0
5, 9652, Control_c, 0, 64, 127
5, 9698, Control_c, 0, 64, 0
5, 9700, Control_c, 0, 64, 127
5, 9746, Control_c, 0, 64, 0
5, 9748, Control_c, 0, 64, 127
5, 9792, Control_c, 0, 64, 127
5, 9794, Control_c, 0, 64, 0
5, 9796, Control_c, 0, 64, 127
5, 9890, Control_c, 0, 64, 0
5, 9892, Control_c, 0, 64, 127
5, 9980, Control_c, 0, 64, 0
5, 9984, Control_c, 0, 64, 0
5, 10108, Control_c, 0, 64, 127
5, 10130, Control_c, 0, 64, 0
5, 10132, Control_c, 0, 64, 127
5, 10154, Control_c, 0, 64, 0
5, 10156, Control_c, 0, 64, 127
5, 10176, Control_c, 0, 64, 127
5, 10178, Control_c, 0, 64, 0
5, 10300, Control_c, 0, 64, 127
5, 10322, Control_c, 0, 64, 0
5, 10324, Control_c, 0, 64, 127
5, 10346, Control_c, 0, 64, 0
5, 10348, Control_c, 0, 64, 127
5, 10368, Control_c, 0, 64, 127
5, 10370, Control_c, 0, 64, 0
5, 10372, Control_c, 0, 64, 127
5, 10418, Control_c, 0, 64, 0
5, 10420, Control_c, 0, 64, 127
5, 10466, Control_c, 0, 64, 0
5, 10468, Control_c, 0, 64, 127
5, 10514, Control_c, 0, 64, 0
5, 10516, Control_c, 0, 64, 127
5, 10560, Control_c, 0, 64, 127
5, 10562, Control_c, 0, 64, 0
5, 10612, Control_c, 0, 64, 127
5, 10660, Control_c, 0, 64, 0
5, 10708, Control_c, 0, 64, 127
5, 10752, Control_c, 0, 64, 127
5, 10756, Control_c, 0, 64, 0
5, 10804, Control_c, 0, 64, 127
5, 10852, Control_c, 0, 64, 0
5, 10944, Control_c, 0, 64, 127
5, 10946, Control_c, 0, 64, 0
5, 10948, Control_c, 0, 64, 127
5, 11042, Control_c, 0, 64, 0
5, 11044, Control_c, 0, 64, 127
5, 11090, Control_c, 0, 64, 0
5, 11092, Control_c, 0, 64, 127
5, 11136, Control_c, 0, 64, 0
5, 11140, Control_c, 0, 64, 127
5, 11234, Control_c, 0, 64, 0
5, 11236, Control_c, 0, 64, 127
5, 11328, Control_c, 0, 64, 127
5, 11330, Control_c, 0, 64, 0
5, 11332, Control_c, 0, 64, 127
5, 11378, Control_c, 0, 64, 0
5, 11380, Control_c, 0, 64, 127
5, 11426, Control_c, 0, 64, 0
5, 11428, Control_c, 0, 64, 127
5, 11474, Control_c, 0, 64, 0
5, 11476, Control_c, 0, 64, 127
5, 11520, Control_c, 0, 64, 127
5, 11522, Control_c, 0, 64, 0
5, 11524, Control_c, 0, 64, 127
5, 11618, Control_c, 0, 64, 0
5, 11620, Control_c, 0, 64, 127
5, 11710, Control_c, 0, 64, 0
5, 11712, Control_c, 0, 64, 127
5, 11728, Control_c, 0, 64, 0
5, 11760, Control_c, 0, 64, 127
5, 11776, Control_c, 0, 64, 0
5, 11808, Control_c, 0, 64, 127
5, 11824, Control_c, 0, 64, 0
5, 11856, Control_c, 0, 64, 127
5, 11872, Control_c, 0, 64, 0
5, 11904, Control_c, 0, 64, 127
5, 11920, Control_c, 0, 64, 0
5, 11952, Control_c, 0, 64, 127
5, 11968, Control_c, 0, 64, 0
5, 12000, Control_c, 0, 64, 127
5, 12016, Control_c, 0, 64, 0
5, 12048, Control_c, 0, 64, 127
5, 12064, Control_c, 0, 64, 0
5, 12096, Control_c, 0, 64, 127
5, 12112, Control_c, 0, 64, 0
5, 12144, Control_c, 0, 64, 127
5, 12160, Control_c, 0, 64, 0
5, 12192, Control_c, 0, 64, 127
5, 12208, Control_c, 0, 64, 0
5, 12240, Control_c, 0, 64, 127
5, 12256, Control_c, 0, 64, 0
5, 12288, Control_c, 0, 64, 0
5, 12292, Control_c, 0, 64, 127
5, 12386, Control_c, 0, 64, 0
5, 12388, Control_c, 0, 64, 127
5, 12480, Control_c, 0, 64, 127
5, 12482, Control_c, 0, 64, 0
5, 12484, Control_c, 0, 64, 127
5, 12530, Control_c, 0, 64, 0
5, 12532, Control_c, 0, 64, 127
5, 12578, Control_c, 0, 64, 0
5, 12580, Control_c, 0, 64, 127
5, 12626, Control_c, 0, 64, 0
5, 12628, Control_c, 0, 64, 127
5, 12672, Control_c, 0, 64, 127
5, 12674, Control_c, 0, 64, 0
5, 12676, Control_c, 0, 64, 127
5, 12722, Control_c, 0, 64, 0
5, 12724, Control_c, 0, 64, 127
5, 12770, Control_c, 0, 64, 0
5, 12772, Control_c, 0, 64, 127
5, 12818, Control_c, 0, 64, 0
5, 12820, Control_c, 0, 64, 127
5, 12844, Control_c, 0, 64, 0
5, 12864, Control_c, 0, 64, 127
5, 12866, Control_c, 0, 64, 0
5, 12868, Control_c, 0, 64, 127
5, 12914, Control_c, 0, 64, 0
5, 12916, Control_c, 0, 64, 127
5, 12962, Control_c, 0, 64, 0
5, 12964, Control_c, 0, 64, 127
5, 13010, Control_c, 0, 64, 0
5, 13012, Control_c, 0, 64, 127
5, 13056, Control_c, 0, 64, 127
5, 13058, Control_c, 0, 64, 0
5, 13060, Control_c, 0, 64, 127
5, 13082, Control_c, 0, 64, 0
5, 13084, Control_c, 0, 64, 127
5, 13106, Control_c, 0, 64, 0
5, 13108, Control_c, 0, 64, 127
5, 13130, Control_c, 0, 64, 0
5, 13132, Control_c, 0, 64, 127
5, 13154, Control_c, 0, 64, 0
5, 13156, Control_c, 0, 64, 127
5, 13202, Control_c, 0, 64, 0
5, 13204, Control_c, 0, 64, 127
5, 13248, Control_c, 0, 64, 127
5, 13250, Control_c, 0, 64, 0
5, 13440, Control_c, 0, 64, 0
5, 13632, Control_c, 0, 64, 0
5, 13824, Control_c, 0, 64, 0
5, 14016, Control_c, 0, 64, 0
5, 14208, Control_c, 0, 64, 0
5, 14212, Control_c, 0, 64, 127
5, 14236, Control_c, 0, 64, 0
5, 14308, Control_c, 0, 64, 127
5, 14332, Control_c, 0, 64, 0
5, 14356, Control_c, 0, 64, 127
5, 14380, Control_c, 0, 64, 0
5, 14400, Control_c, 0, 64, 0
5, 14404, Control_c, 0, 64, 127
5, 14428, Control_c, 0, 64, 0
5, 14500, Control_c, 0, 64, 127
5, 14524, Control_c, 0, 64, 0
5, 14548, Control_c, 0, 64, 127
5, 14572, Control_c, 0, 64, 0
5, 14592, Control_c, 0, 64, 0
5, 14596, Control_c, 0, 64, 127
5, 14620, Control_c, 0, 64, 0
5, 14644, Control_c, 0, 64, 127
5, 14668, Control_c, 0, 64, 0
5, 14692, Control_c, 0, 64, 127
5, 14716, Control_c, 0, 64, 0
5, 14740, Control_c, 0, 64, 127
5, 14764, Control_c, 0, 64, 0
5, 14784, Control_c, 0, 64, 0
5, 14788, Control_c, 0, 64, 127
5, 14812, Control_c, 0, 64, 0
5, 14836, Control_c, 0, 64, 127
5, 14860, Control_c, 0, 64, 0
5, 14884, Control_c, 0, 64, 127
5, 14908, Control_c, 0, 64, 0
5, 14932, Control_c, 0, 64, 127
5, 14956, Control_c, 0, 64, 0
5, 14976, Control_c, 0, 64, 0
5, 14980, Control_c, 0, 64, 127
5, 15004, Control_c, 0, 64, 0
5, 15028, Control_c, 0, 64, 127
5, 15052, Control_c, 0, 64, 0
5, 15076, Control_c, 0, 64, 127
5, 15100, Control_c, 0, 64, 0
5, 15168, Control_c, 0, 64, 127
5, 15266, Control_c, 0, 64, 0
5, 15268, Control_c, 0, 64, 127
5, 15360, Control_c, 0, 64, 127
5, 15362, Control_c, 0, 64, 0
5, 15364, Control_c, 0, 64, 127
5, 15410, Control_c, 0, 64, 0
5, 15412, Control_c, 0, 64, 127
5, 15458, Control_c, 0, 64, 0
5, 15460, Control_c, 0, 64, 127
5, 15552, Control_c, 0, 64, 127
5, 15554, Control_c, 0, 64, 0
5, 15556, Control_c, 0, 64, 127
5, 15602, Control_c, 0, 64, 0
5, 15604, Control_c, 0, 64, 127
5, 15650, Control_c, 0, 64, 0
5, 15652, Control_c, 0, 64, 127
5, 15698, Control_c, 0, 64, 0
5, 15700, Control_c, 0, 64, 127
5, 15744, Control_c, 0, 64, 127
5, 15746, Control_c, 0, 64, 0
5, 15748, Control_c, 0, 64, 127
5, 15842, Control_c, 0, 64, 0
5, 15844, Control_c, 0, 64, 127
5, 15930, Control_c, 0, 64, 0
5, 15936, Control_c, 0, 64, 0
5, 15940, Control_c, 0, 64, 127
5, 16036, Control_c, 0, 64, 0
5, 16060, Control_c, 0, 64, 127
5, 16082, Control_c, 0, 64, 0
5, 16084, Control_c, 0, 64, 127
5, 16106, Control_c, 0, 64, 0
5, 16108, Control_c, 0, 64, 127
5, 16128, Control_c, 0, 64, 127
5, 16130, Control_c, 0, 64, 0
5, 16132, Control_c, 0, 64, 127
5, 16228, Control_c, 0, 64, 0
5, 16252, Control_c, 0, 64, 127
5, 16274, Control_c, 0, 64, 0
5, 16276, Control_c, 0, 64, 127
5, 16298, Control_c, 0, 64, 0
5, 16300, Control_c, 0, 64, 127
5, 16320, Control_c, 0, 64, 127
5, 16322, Control_c, 0, 64, 0
5, 16324, Control_c, 0, 64, 127
5, 16370, Control_c, 0, 64, 0
5, 16372, Control_c, 0, 64, 127
5, 16418, Control_c, 0, 64, 0
5, 16420, Control_c, 0, 64, 127
5, 16466, Control_c, 0, 64, 0
5, 16468, Control_c, 0, 64, 127
5, 16512, Control_c, 0, 64, 127
5, 16514, Control_c, 0, 64, 0
5, 16562, Control_c, 0, 64, 127
5, 16610, Control_c, 0, 64, 0
5, 16658, Control_c, 0, 64, 127
5, 16704, Control_c, 0, 64, 127
5, 16706, Control_c, 0, 64, 0
5, 16754, Control_c, 0, 64, 127
5, 16802, Control_c, 0, 64, 0
5, 16896, Control_c, 0, 64, 0
5, 16900, Control_c, 0, 64, 127
5, 16946, Control_c, 0, 64, 0
5, 16948, Control_c, 0, 64, 127
5, 16994, Control_c, 0, 64, 0
5, 16996, Control_c, 0, 64, 127
5, 17042, Control_c, 0, 64, 0
5, 17044, Control_c, 0, 64, 127
5, 17088, Control_c, 0, 64, 0
5, 17280, Control_c, 0, 64, 0
5, 17472, Control_c, 0, 64, 0
5, 17476, Control_c, 0, 64, 127
5, 17522, Control_c, 0, 64, 0
5, 17524, Control_c, 0, 64, 127
5, 17570, Control_c, 0, 64, 0
5, 17572, Control_c, 0, 64, 127
5, 17618, Control_c, 0, 64, 0
5, 17620, Control_c, 0, 64, 127
5, 17664, Control_c, 0, 64, 127
5, 17666, Control_c, 0, 64, 0
5, 17668, Control_c, 0, 64, 127
5, 17690, Control_c, 0, 64, 0
5, 17764, Control_c, 0, 64, 127
5, 17786, Control_c, 0, 64, 0
5, 17856, Control_c, 0, 64, 0
5, 17860, Control_c, 0, 64, 127
5, 17954, Control_c, 0, 64, 0
5, 17956, Control_c, 0, 64, 127
5, 18048, Control_c, 0, 64, 127
5, 18050, Control_c, 0, 64, 0
5, 18052, Control_c, 0, 64, 127
5, 18098, Control_c, 0, 64, 0
5, 18240, Control_c, 0, 64, 0
5, 18244, Control_c, 0, 64, 127
5, 18340, Control_c, 0, 64, 0
5, 18342, Control_c, 0, 64, 127
5, 18424, Control_c, 0, 64, 0
5, 18432, Control_c, 0, 64, 0
5, 18436, Control_c, 0, 64, 127
5, 18482, Control_c, 0, 64, 0
5, 18484, Control_c, 0, 64, 127
5, 18530, Control_c, 0, 64, 0
5, 18532, Control_c, 0, 64, 127
5, 18578, Control_c, 0, 64, 0
5, 18580, Control_c, 0, 64, 127
5, 18624, Control_c, 0, 64, 127
5, 18626, Control_c, 0, 64, 0
5, 18628, Control_c, 0, 64, 127
5, 18722, Control_c, 0, 64, 0
5, 18724, Control_c, 0, 64, 127
5, 18816, Control_c, 0, 64, 127
5, 18818, Control_c, 0, 64, 0
5, 18820, Control_c, 0, 64, 127
5, 18866, Control_c, 0, 64, 0
5, 18868, Control_c, 0, 64, 127
5, 18914, Control_c, 0, 64, 0
5, 18916, Control_c, 0, 64, 127
5, 19008, Control_c, 0, 64, 127
5, 19010, Control_c, 0, 64, 0
5, 19012, Control_c, 0, 64, 127
5, 19106, Control_c, 0, 64, 0
5, 19108, Control_c, 0, 64, 127
5, 19200, Control_c, 0, 64, 127
5, 19202, Control_c, 0, 64, 0
5, 19392, Control_c, 0, 64, 0
5, 19492, Control_c, 0, 64, 127
5, 19584, Control_c, 0, 64, 127
5, 19776, Control_c, 0, 64, 127
5, 19778, Control_c, 0, 64, 0
5, 19968, End_track
6, 0, Start_track
6, 0, Title_t, "Dumper Pedal(L.H.)"
6, 0, MIDI_port, 0
6, 168, Control_c, 1, 64, 127
6, 192, Control_c, 1, 64, 127
6, 290, Control_c, 1, 64, 0
6, 292, Control_c, 1, 64, 127
6, 384, Control_c, 1, 64, 127
6, 386, Control_c, 1, 64, 0
6, 388, Control_c, 1, 64, 127
6, 482, Control_c, 1, 64, 0
6, 484, Control_c, 1, 64, 127
6, 576, Control_c, 1, 64, 127
6, 578, Control_c, 1, 64, 0
6, 580, Control_c, 1, 64, 127
6, 626, Control_c, 1, 64, 0
6, 628, Control_c, 1, 64, 127
6, 674, Control_c, 1, 64, 0
6, 676, Control_c, 1, 64, 127
6, 722, Control_c, 1, 64, 0
6, 724, Control_c, 1, 64, 127
6, 768, Control_c, 1, 64, 127
6, 770, Control_c, 1, 64, 0
6, 772, Control_c, 1, 64, 127
6, 868, Control_c, 1, 64, 0
6, 960, Control_c, 1, 64, 0
6, 964, Control_c, 1, 64, 127
6, 1060, Control_c, 1, 64, 0
6, 1084, Control_c, 1, 64, 127
6, 1106, Control_c, 1, 64, 0
6, 1108, Control_c, 1, 64, 127
6, 1130, Control_c, 1, 64, 0
6, 1132, Control_c, 1, 64, 127
6, 1152, Control_c, 1, 64, 127
6, 1154, Control_c, 1, 64, 0
6, 1156, Control_c, 1, 64, 127
6, 1252, Control_c, 1, 64, 0
6, 1276, Control_c, 1, 64, 127
6, 1298, Control_c, 1, 64, 0
6, 1300, Control_c, 1, 64, 127
6, 1322, Control_c, 1, 64, 0
6, 1324, Control_c, 1, 64, 127
6, 1344, Control_c, 1, 64, 127
6, 1346, Control_c, 1, 64, 0
6, 1348, Control_c, 1, 64, 127
6, 1442, Control_c, 1, 64, 0
6, 1444, Control_c, 1, 64, 127
6, 1490, Control_c, 1, 64, 0
6, 1492, Control_c, 1, 64, 127
6, 1536, Control_c, 1, 64, 127
6, 1538, Control_c, 1, 64, 0
6, 1540, Control_c, 1, 64, 127
6, 1636, Control_c, 1, 64, 0
6, 1728, Control_c, 1, 64, 0
6, 1732, Control_c, 1, 64, 127
6, 1778, Control_c, 1, 64, 0
6, 1780, Control_c, 1, 64, 127
6, 1826, Control_c, 1, 64, 0
6, 1828, Control_c, 1, 64, 127
6, 1874, Control_c, 1, 64, 0
6, 1876, Control_c, 1, 64, 127
6, 1920, Control_c, 1, 64, 127
6, 1922, Control_c, 1, 64, 0
6, 1924, Control_c, 1, 64, 127
6, 1970, Control_c, 1, 64, 0
6, 1972, Control_c, 1, 64, 127
6, 2018, Control_c, 1, 64, 0
6, 2020, Control_c, 1, 64, 127
6, 2066, Control_c, 1, 64, 0
6, 2068, Control_c, 1, 64, 127
6, 2112, Control_c, 1, 64, 127
6, 2114, Control_c, 1, 64, 0
6, 2116, Control_c, 1, 64, 127
6, 2162, Control_c, 1, 64, 0
6, 2164, Control_c, 1, 64, 127
6, 2210, Control_c, 1, 64, 0
6, 2212, Control_c, 1, 64, 127
6, 2258, Control_c, 1, 64, 0
6, 2260, Control_c, 1, 64, 127
6, 2304, Control_c, 1, 64, 127
6, 2306, Control_c, 1, 64, 0
6, 2308, Control_c, 1, 64, 127
6, 2402, Control_c, 1, 64, 0
6, 2404, Control_c, 1, 64, 127
6, 2492, Control_c, 1, 64, 0
6, 2496, Control_c, 1, 64, 0
6, 2620, Control_c, 1, 64, 127
6, 2642, Control_c, 1, 64, 0
6, 2644, Control_c, 1, 64, 127
6, 2666, Control_c, 1, 64, 0
6, 2668, Control_c, 1, 64, 127
6, 2688, Control_c, 1, 64, 127
6, 2690, Control_c, 1, 64, 0
6, 2812, Control_c, 1, 64, 127
6, 2834, Control_c, 1, 64, 0
6, 2836, Control_c, 1, 64, 127
6, 2858, Control_c, 1, 64, 0
6, 2860, Control_c, 1, 64, 127
6, 2880, Control_c, 1, 64, 127
6, 2882, Control_c, 1, 64, 0
6, 2884, Control_c, 1, 64, 127
6, 2930, Control_c, 1, 64, 0
6, 2932, Control_c, 1, 64, 127
6, 2978, Control_c, 1, 64, 0
6, 2980, Control_c, 1, 64, 127
6, 3026, Control_c, 1, 64, 0
6, 3028, Control_c, 1, 64, 127
6, 3072, Control_c, 1, 64, 127
6, 3074, Control_c, 1, 64, 0
6, 3124, Control_c, 1, 64, 127
6, 3172, Control_c, 1, 64, 0
6, 3220, Control_c, 1, 64, 127
6, 3264, Control_c, 1, 64, 127
6, 3268, Control_c, 1, 64, 0
6, 3316, Control_c, 1, 64, 127
6, 3364, Control_c, 1, 64, 0
6, 3456, Control_c, 1, 64, 127
6, 3458, Control_c, 1, 64, 0
6, 3460, Control_c, 1, 64, 127
6, 3554, Control_c, 1, 64, 0
6, 3556, Control_c, 1, 64, 127
6, 3602, Control_c, 1, 64, 0
6, 3604, Control_c, 1, 64, 127
6, 3648, Control_c, 1, 64, 127
6, 3650, Control_c, 1, 64, 0
6, 3700, Control_c, 1, 64, 127
6, 3748, Control_c, 1, 64, 0
6, 3816, Control_c, 1, 64, 127
6, 3840, Control_c, 1, 64, 127
6, 3938, Control_c, 1, 64, 0
6, 3940, Control_c, 1, 64, 127
6, 4032, Control_c, 1, 64, 127
6, 4034, Control_c, 1, 64, 0
6, 4036, Control_c, 1, 64, 127
6, 4130, Control_c, 1, 64, 0
6, 4132, Control_c, 1, 64, 127
6, 4224, Control_c, 1, 64, 127
6, 4226, Control_c, 1, 64, 0
6, 4228, Control_c, 1, 64, 127
6, 4322, Control_c, 1, 64, 0
6, 4324, Control_c, 1, 64, 127
6, 4416, Control_c, 1, 64, 0
6, 4420, Control_c, 1, 64, 127
6, 4514, Control_c, 1, 64, 0
6, 4608, Control_c, 1, 64, 0
6, 4616, Control_c, 1, 64, 127
6, 4706, Control_c, 1, 64, 0
6, 4708, Control_c, 1, 64, 127
6, 4800, Control_c, 1, 64, 127
6, 4802, Control_c, 1, 64, 0
6, 4804, Control_c, 1, 64, 127
6, 4898, Control_c, 1, 64, 0
6, 4900, Control_c, 1, 64, 127
6, 4992, Control_c, 1, 64, 127
6, 4994, Control_c, 1, 64, 0
6, 4996, Control_c, 1, 64, 127
6, 5042, Control_c, 1, 64, 0
6, 5044, Control_c, 1, 64, 127
6, 5138, Control_c, 1, 64, 0
6, 5140, Control_c, 1, 64, 127
6, 5184, Control_c, 1, 64, 127
6, 5186, Control_c, 1, 64, 0
6, 5376, Control_c, 1, 64, 0
6, 5380, Control_c, 1, 64, 127
6, 5474, Control_c, 1, 64, 0
6, 5476, Control_c, 1, 64, 127
6, 5568, Control_c, 1, 64, 127
6, 5570, Control_c, 1, 64, 0
6, 5572, Control_c, 1, 64, 127
6, 5666, Control_c, 1, 64, 0
6, 5668, Control_c, 1, 64, 127
6, 5760, Control_c, 1, 64, 127
6, 5762, Control_c, 1, 64, 0
6, 5952, Control_c, 1, 64, 0
6, 5956, Control_c, 1, 64, 127
6, 6052, Control_c, 1, 64, 0
6, 6144, Control_c, 1, 64, 0
6, 6148, Control_c, 1, 64, 127
6, 6244, Control_c, 1, 64, 0
6, 6246, Control_c, 1, 64, 127
6, 6316, Control_c, 1, 64, 0
6, 6336, Control_c, 1, 64, 0
6, 6436, Control_c, 1, 64, 127
6, 6528, Control_c, 1, 64, 127
6, 6530, Control_c, 1, 64, 0
6, 6628, Control_c, 1, 64, 127
6, 6674, Control_c, 1, 64, 0
6, 6676, Control_c, 1, 64, 127
6, 6720, Control_c, 1, 64, 127
6, 6722, Control_c, 1, 64, 0
6, 6820, Control_c, 1, 64, 127
6, 6912, Control_c, 1, 64, 127
6, 6914, Control_c, 1, 64, 0
6, 7012, Control_c, 1, 64, 127
6, 7058, Control_c, 1, 64, 0
6, 7060, Control_c, 1, 64, 127
6, 7104, Control_c, 1, 64, 127
6, 7106, Control_c, 1, 64, 0
6, 7108, Control_c, 1, 64, 127
6, 7132, Control_c, 1, 64, 0
6, 7156, Control_c, 1, 64, 127
6, 7180, Control_c, 1, 64, 0
6, 7204, Control_c, 1, 64, 127
6, 7228, Control_c, 1, 64, 0
6, 7252, Control_c, 1, 64, 127
6, 7276, Control_c, 1, 64, 0
6, 7296, Control_c, 1, 64, 0
6, 7300, Control_c, 1, 64, 127
6, 7324, Control_c, 1, 64, 0
6, 7348, Control_c, 1, 64, 127
6, 7372, Control_c, 1, 64, 0
6, 7396, Control_c, 1, 64, 127
6, 7420, Control_c, 1, 64, 0
6, 7444, Control_c, 1, 64, 127
6, 7468, Control_c, 1, 64, 0
6, 7488, Control_c, 1, 64, 0
6, 7492, Control_c, 1, 64, 127
6, 7516, Control_c, 1, 64, 0
6, 7540, Control_c, 1, 64, 127
6, 7564, Control_c, 1, 64, 0
6, 7680, Control_c, 1, 64, 127
6, 7778, Control_c, 1, 64, 0
6, 7780, Control_c, 1, 64, 127
6, 7872, Control_c, 1, 64, 127
6, 7874, Control_c, 1, 64, 0
6, 7876, Control_c, 1, 64, 127
6, 7922, Control_c, 1, 64, 0
6, 7924, Control_c, 1, 64, 127
6, 7970, Control_c, 1, 64, 0
6, 7972, Control_c, 1, 64, 127
6, 8064, Control_c, 1, 64, 127
6, 8066, Control_c, 1, 64, 0
6, 8068, Control_c, 1, 64, 127
6, 8114, Control_c, 1, 64, 0
6, 8116, Control_c, 1, 64, 127
6, 8162, Control_c, 1, 64, 0
6, 8164, Control_c, 1, 64, 127
6, 8210, Control_c, 1, 64, 0
6, 8212, Control_c, 1, 64, 127
6, 8256, Control_c, 1, 64, 127
6, 8258, Control_c, 1, 64, 0
6, 8260, Control_c, 1, 64, 127
6, 8356, Control_c, 1, 64, 0
6, 8448, Control_c, 1, 64, 0
6, 8452, Control_c, 1, 64, 127
6, 8548, Control_c, 1, 64, 0
6, 8572, Control_c, 1, 64, 127
6, 8594, Control_c, 1, 64, 0
6, 8596, Control_c, 1, 64, 127
6, 8618, Control_c, 1, 64, 0
6, 8620, Control_c, 1, 64, 127
6, 8640, Control_c, 1, 64, 127
6, 8642, Control_c, 1, 64, 0
6, 8644, Control_c, 1, 64, 127
6, 8740, Control_c, 1, 64, 0
6, 8764, Control_c, 1, 64, 127
6, 8786, Control_c, 1, 64, 0
6, 8788, Control_c, 1, 64, 127
6, 8810, Control_c, 1, 64, 0
6, 8812, Control_c, 1, 64, 127
6, 8832, Control_c, 1, 64, 127
6, 8834, Control_c, 1, 64, 0
6, 8836, Control_c, 1, 64, 127
6, 8930, Control_c, 1, 64, 0
6, 8932, Control_c, 1, 64, 127
6, 8978, Control_c, 1, 64, 0
6, 8980, Control_c, 1, 64, 127
6, 9024, Control_c, 1, 64, 127
6, 9026, Control_c, 1, 64, 0
6, 9028, Control_c, 1, 64, 127
6, 9124, Control_c, 1, 64, 0
6, 9216, Control_c, 1, 64, 0
6, 9220, Control_c, 1, 64, 127
6, 9266, Control_c, 1, 64, 0
6, 9268, Control_c, 1, 64, 127
6, 9314, Control_c, 1, 64, 0
6, 9316, Control_c, 1, 64, 127
6, 9362, Control_c, 1, 64, 0
6, 9364, Control_c, 1, 64, 127
6, 9408, Control_c, 1, 64, 127
6, 9410, Control_c, 1, 64, 0
6, 9412, Control_c, 1, 64, 127
6, 9458, Control_c, 1, 64, 0
6, 9460, Control_c, 1, 64, 127
6, 9506, Control_c, 1, 64, 0
6, 9508, Control_c, 1, 64, 127
6, 9554, Control_c, 1, 64, 0
6, 9556, Control_c, 1, 64, 127
6, 9600, Control_c, 1, 64, 127
6, 9602, Control_c, 1, 64, 0
6, 9604, Control_c, 1, 64, 127
6, 9650, Control_c, 1, 64, 0
6, 9652, Control_c, 1, 64, 127
6, 9698, Control_c, 1, 64, 0
6, 9700, Control_c, 1, 64, 127
6, 9746, Control_c, 1, 64, 0
6, 9748, Control_c, 1, 64, 127
6, 9792, Control_c, 1, 64, 127
6, 9794, Control_c, 1, 64, 0
6, 9796, Control_c, 1, 64, 127
6, 9890, Control_c, 1, 64, 0
6, 9892, Control_c, 1, 64, 127
6, 9980, Control_c, 1, 64, 0
6, 9984, Control_c, 1, 64, 0
6, 10108, Control_c, 1, 64, 127
6, 10130, Control_c, 1, 64, 0
6, 10132, Control_c, 1, 64, 127
6, 10154, Control_c, 1, 64, 0
6, 10156, Control_c, 1, 64, 127
6, 10176, Control_c, 1, 64, 127
6, 10178, Control_c, 1, 64, 0
6, 10300, Control_c, 1, 64, 127
6, 10322, Control_c, 1, 64, 0
6, 10324, Control_c, 1, 64, 127
6, 10346, Control_c, 1, 64, 0
6, 10348, Control_c, 1, 64, 127
6, 10368, Control_c, 1, 64, 127
6, 10370, Control_c, 1, 64, 0
6, 10372, Control_c, 1, 64, 127
6, 10418, Control_c, 1, 64, 0
6, 10420, Control_c, 1, 64, 127
6, 10466, Control_c, 1, 64, 0
6, 10468, Control_c, 1, 64, 127
6, 10514, Control_c, 1, 64, 0
6, 10516, Control_c, 1, 64, 127
6, 10560, Control_c, 1, 64, 127
6, 10562, Control_c, 1, 64, 0
6, 10612, Control_c, 1, 64, 127
6, 10660, Control_c, 1, 64, 0
6, 10708, Control_c, 1, 64, 127
6, 10752, Control_c, 1, 64, 127
6, 10756, Control_c, 1, 64, 0
6, 10804, Control_c, 1, 64, 127
6, 10852, Control_c, 1, 64, 0
6, 10944, Control_c, 1, 64, 127
6, 10946, Control_c, 1, 64, 0
6, 10948, Control_c, 1, 64, 127
6, 11042, Control_c, 1, 64, 0
6, 11044, Control_c, 1, 64, 127
6, 11090, Control_c, 1, 64, 0
6, 11092, Control_c, 1, 64, 127
6, 11136, Control_c, 1, 64, 0
6, 11140, Control_c, 1, 64, 127
6, 11234, Control_c, 1, 64, 0
6, 11236, Control_c, 1, 64, 127
6, 11328, Control_c, 1, 64, 127
6, 11330, Control_c, 1, 64, 0
6, 11332, Control_c, 1, 64, 127
6, 11378, Control_c, 1, 64, 0
6, 11380, Control_c, 1, 64, 127
6, 11426, Control_c, 1, 64, 0
6, 11428, Control_c, 1, 64, 127
6, 11474, Control_c, 1, 64, 0
6, 11476, Control_c, 1, 64, 127
6, 11520, Control_c, 1, 64, 127
6, 11522, Control_c, 1, 64, 0
6, 11524, Control_c, 1, 64, 127
6, 11618, Control_c, 1, 64, 0
6, 11620, Control_c, 1, 64, 127
6, 11710, Control_c, 1, 64, 0
6, 11712, Control_c, 1, 64, 127
6, 11728, Control_c, 1, 64, 0
6, 11760, Control_c, 1, 64, 127
6, 11776, Control_c, 1, 64, 0
6, 11808, Control_c, 1, 64, 127
6, 11824, Control_c, 1, 64, 0
6, 11856, Control_c, 1, 64, 127
6, 11872, Control_c, 1, 64, 0
6, 11904, Control_c, 1, 64, 127
6, 11920, Control_c, 1, 64, 0
6, 11952, Control_c, 1, 64, 127
6, 11968, Control_c, 1, 64, 0
6, 12000, Control_c, 1, 64, 127
6, 12016, Control_c, 1, 64, 0
6, 12048, Control_c, 1, 64, 127
6, 12064, Control_c, 1, 64, 0
6, 12096, Control_c, 1, 64, 127
6, 12112, Control_c, 1, 64, 0
6, 12144, Control_c, 1, 64, 127
6, 12160, Control_c, 1, 64, 0
6, 12192, Control_c, 1, 64, 127
6, 12208, Control_c, 1, 64, 0
6, 12240, Control_c, 1, 64, 127
6, 12256, Control_c, 1, 64, 0
6, 12288, Control_c, 1, 64, 127
6, 12290, Control_c, 1, 64, 0
6, 12292, Control_c, 1, 64, 127
6, 12386, Control_c, 1, 64, 0
6, 12388, Control_c, 1, 64, 127
6, 12480, Control_c, 1, 64, 127
6, 12482, Control_c, 1, 64, 0
6, 12484, Control_c, 1, 64, 127
6, 12530, Control_c, 1, 64, 0
6, 12532, Control_c, 1, 64, 127
6, 12578, Control_c, 1, 64, 0
6, 12580, Control_c, 1, 64, 127
6, 12626, Control_c, 1, 64, 0
6, 12628, Control_c, 1, 64, 127
6, 12672, Control_c, 1, 64, 127
6, 12674, Control_c, 1, 64, 0
6, 12676, Control_c, 1, 64, 127
6, 12722, Control_c, 1, 64, 0
6, 12724, Control_c, 1, 64, 127
6, 12770, Control_c, 1, 64, 0
6, 12772, Control_c, 1, 64, 127
6, 12818, Control_c, 1, 64, 0
6, 12820, Control_c, 1, 64, 127
6, 12844, Control_c, 1, 64, 0
6, 12864, Control_c, 1, 64, 127
6, 12866, Control_c, 1, 64, 0
6, 12868, Control_c, 1, 64, 127
6, 12914, Control_c, 1, 64, 0
6, 12916, Control_c, 1, 64, 127
6, 12962, Control_c, 1, 64, 0
6, 12964, Control_c, 1, 64, 127
6, 13010, Control_c, 1, 64, 0
6, 13012, Control_c, 1, 64, 127
6, 13056, Control_c, 1, 64, 127
6, 13058, Control_c, 1, 64, 0
6, 13060, Control_c, 1, 64, 127
6, 13082, Control_c, 1, 64, 0
6, 13084, Control_c, 1, 64, 127
6, 13106, Control_c, 1, 64, 0
6, 13108, Control_c, 1, 64, 127
6, 13130, Control_c, 1, 64, 0
6, 13132, Control_c, 1, 64, 127
6, 13154, Control_c, 1, 64, 0
6, 13156, Control_c, 1, 64, 127
6, 13202, Control_c, 1, 64, 0
6, 13204, Control_c, 1, 64, 127
6, 13248, Control_c, 1, 64, 127
6, 13250, Control_c, 1, 64, 0
6, 13440, Control_c, 1, 64, 0
6, 13632, Control_c, 1, 64, 0
6, 13824, Control_c, 1, 64, 0
6, 14016, Control_c, 1, 64, 0
6, 14208, Control_c, 1, 64, 0
6, 14212, Control_c, 1, 64, 127
6, 14236, Control_c, 1, 64, 0
6, 14308, Control_c, 1, 64, 127
6, 14332, Control_c, 1, 64, 0
6, 14356, Control_c, 1, 64, 127
6, 14380, Control_c, 1, 64, 0
6, 14400, Control_c, 1, 64, 0
6, 14404, Control_c, 1, 64, 127
6, 14428, Control_c, 1, 64, 0
6, 14500, Control_c, 1, 64, 127
6, 14524, Control_c, 1, 64, 0
6, 14548, Control_c, 1, 64, 127
6, 14572, Control_c, 1, 64, 0
6, 14592, Control_c, 1, 64, 0
6, 14596, Control_c, 1, 64, 127
6, 14620, Control_c, 1, 64, 0
6, 14644, Control_c, 1, 64, 127
6, 14668, Control_c, 1, 64, 0
6, 14692, Control_c, 1, 64, 127
6, 14716, Control_c, 1, 64, 0
6, 14740, Control_c, 1, 64, 127
6, 14764, Control_c, 1, 64, 0
6, 14784, Control_c, 1, 64, 0
6, 14788, Control_c, 1, 64, 127
6, 14812, Control_c, 1, 64, 0
6, 14836, Control_c, 1, 64, 127
6, 14860, Control_c, 1, 64, 0
6, 14884, Control_c, 1, 64, 127
6, 14908, Control_c, 1, 64, 0
6, 14932, Control_c, 1, 64, 127
6, 14956, Control_c, 1, 64, 0
6, 14976, Control_c, 1, 64, 0
6, 14980, Control_c, 1, 64, 127
6, 15004, Control_c, 1, 64, 0
6, 15028, Control_c, 1, 64, 127
6, 15052, Control_c, 1, 64, 0
6, 15076, Control_c, 1, 64, 127
6, 15100, Control_c, 1, 64, 0
6, 15168, Control_c, 1, 64, 127
6, 15266, Control_c, 1, 64, 0
6, 15268, Control_c, 1, 64, 127
6, 15360, Control_c, 1, 64, 127
6, 15362, Control_c, 1, 64, 0
6, 15364, Control_c, 1, 64, 127
6, 15410, Control_c, 1, 64, 0
6, 15412, Control_c, 1, 64, 127
6, 15458, Control_c, 1, 64, 0
6, 15460, Control_c, 1, 64, 127
6, 15552, Control_c, 1, 64, 127
6, 15554, Control_c, 1, 64, 0
6, 15556, Control_c, 1, 64, 127
6, 15602, Control_c, 1, 64, 0
6, 15604, Control_c, 1, 64, 127
6, 15650, Control_c, 1, 64, 0
6, 15652, Control_c, 1, 64, 127
6, 15698, Control_c, 1, 64, 0
6, 15700, Control_c, 1, 64, 127
6, 15744, Control_c, 1, 64, 127
6, 15746, Control_c, 1, 64, 0
6, 15748, Control_c, 1, 64, 127
6, 15842, Control_c, 1, 64, 0
6, 15844, Control_c, 1, 64, 127
6, 15930, Control_c, 1, 64, 0
6, 15936, Control_c, 1, 64, 0
6, 15940, Control_c, 1, 64, 127
6, 16036, Control_c, 1, 64, 0
6, 16060, Control_c, 1, 64, 127
6, 16082, Control_c, 1, 64, 0
6, 16084, Control_c, 1, 64, 127
6, 16106, Control_c, 1, 64, 0
6, 16108, Control_c, 1, 64, 127
6, 16128, Control_c, 1, 64, 127
6, 16130, Control_c, 1, 64, 0
6, 16132, Control_c, 1, 64, 127
6, 16228, Control_c, 1, 64, 0
6, 16252, Control_c, 1, 64, 127
6, 16274, Control_c, 1, 64, 0
6, 16276, Control_c, 1, 64, 127
6, 16298, Control_c, 1, 64, 0
6, 16300, Control_c, 1, 64, 127
6, 16320, Control_c, 1, 64, 127
6, 16322, Control_c, 1, 64, 0
6, 16324, Control_c, 1, 64, 127
6, 16418, Control_c, 1, 64, 0
6, 16420, Control_c, 1, 64, 127
6, 16466, Control_c, 1, 64, 0
6, 16468, Control_c, 1, 64, 127
6, 16512, Control_c, 1, 64, 127
6, 16514, Control_c, 1, 64, 0
6, 16562, Control_c, 1, 64, 127
6, 16610, Control_c, 1, 64, 0
6, 16658, Control_c, 1, 64, 127
6, 16704, Control_c, 1, 64, 127
6, 16706, Control_c, 1, 64, 0
6, 16754, Control_c, 1, 64, 127
6, 16802, Control_c, 1, 64, 0
6, 16896, Control_c, 1, 64, 0
6, 16900, Control_c, 1, 64, 127
6, 16946, Control_c, 1, 64, 0
6, 16948, Control_c, 1, 64, 127
6, 16994, Control_c, 1, 64, 0
6, 16996, Control_c, 1, 64, 127
6, 17042, Control_c, 1, 64, 0
6, 17044, Control_c, 1, 64, 127
6, 17088, Control_c, 1, 64, 0
6, 17280, Control_c, 1, 64, 0
6, 17472, Control_c, 1, 64, 0
6, 17476, Control_c, 1, 64, 127
6, 17522, Control_c, 1, 64, 0
6, 17524, Control_c, 1, 64, 127
6, 17570, Control_c, 1, 64, 0
6, 17572, Control_c, 1, 64, 127
6, 17618, Control_c, 1, 64, 0
6, 17620, Control_c, 1, 64, 127
6, 17664, Control_c, 1, 64, 127
6, 17666, Control_c, 1, 64, 0
6, 17668, Control_c, 1, 64, 127
6, 17690, Control_c, 1, 64, 0
6, 17764, Control_c, 1, 64, 127
6, 17786, Control_c, 1, 64, 0
6, 17856, Control_c, 1, 64, 0
6, 17860, Control_c, 1, 64, 127
6, 17954, Control_c, 1, 64, 0
6, 17956, Control_c, 1, 64, 127
6, 18048, Control_c, 1, 64, 127
6, 18050, Control_c, 1, 64, 0
6, 18052, Control_c, 1, 64, 127
6, 18098, Control_c, 1, 64, 0
6, 18240, Control_c, 1, 64, 0
6, 18244, Control_c, 1, 64, 127
6, 18340, Control_c, 1, 64, 0
6, 18342, Control_c, 1, 64, 127
6, 18424, Control_c, 1, 64, 0
6, 18432, Control_c, 1, 64, 0
6, 18436, Control_c, 1, 64, 127
6, 18482, Control_c, 1, 64, 0
6, 18484, Control_c, 1, 64, 127
6, 18530, Control_c, 1, 64, 0
6, 18532, Control_c, 1, 64, 127
6, 18578, Control_c, 1, 64, 0
6, 18580, Control_c, 1, 64, 127
6, 18624, Control_c, 1, 64, 127
6, 18626, Control_c, 1, 64, 0
6, 18628, Control_c, 1, 64, 127
6, 18722, Control_c, 1, 64, 0
6, 18724, Control_c, 1, 64, 127
6, 18816, Control_c, 1, 64, 127
6, 18818, Control_c, 1, 64, 0
6, 18820, Control_c, 1, 64, 127
6, 18866, Control_c, 1, 64, 0
6, 18868, Control_c, 1, 64, 127
6, 18914, Control_c, 1, 64, 0
6, 18916, Control_c, 1, 64, 127
6, 19008, Control_c, 1, 64, 127
6, 19010, Control_c, 1, 64, 0
6, 19012, Control_c, 1, 64, 127
6, 19106, Control_c, 1, 64, 0
6, 19108, Control_c, 1, 64, 127
6, 19200, Control_c, 1, 64, 127
6, 19202, Control_c, 1, 64, 0
6, 19392, Control_c, 1, 64, 0
6, 19492, Control_c, 1, 64, 127
6, 19584, Control_c, 1, 64, 127
6, 19776, Control_c, 1, 64, 127
6, 19778, Control_c, 1, 64, 0
6, 19968, End_track
0, 0, End_of_file