0, 0, Header, 1, 8, 120
1, 0, Start_track
1, 0, MIDI_port, 0
1, 0, System_exclusive, 0A, 41, 10, 42, 12, 40, 01, 30, 03, 0C, F7
1, 0, MIDI_port, 0
1, 0, Time_signature, 2, 2, 24, 8
1, 0, Key_signature, 1, "major"
1, 0, Tempo, 810811
1, 0, Marker_t, "Our great composer : Ludwig van Beethoven's Piano Sonata No. 10,  1st movement"
1, 180, Tempo, 789474
1, 210, Tempo, 750000
1, 240, Tempo, 674157
1, 1920, Tempo, 740741
1, 2160, Tempo, 705882
1, 2280, Tempo, 689655
1, 2400, Tempo, 674157
1, 4320, Tempo, 666667
1, 4560, Tempo, 659341
1, 4800, Tempo, 652174
1, 5760, Tempo, 645161
1, 5880, Tempo, 631579
1, 5940, Tempo, 612245
1, 6000, Tempo, 800000
1, 6060, Tempo, 821918
1, 6120, Tempo, 857143
1, 6180, Tempo, 895522
1, 6240, Tempo, 750000
1, 6360, Tempo, 689655
1, 6480, Tempo, 666667
1, 6960, Tempo, 681818
1, 7020, Tempo, 705882
1, 7080, Tempo, 731707
1, 7140, Tempo, 759494
1, 7200, Tempo, 722892
1, 7320, Tempo, 689655
1, 7440, Tempo, 666667
1, 8640, Tempo, 697674
1, 8880, Tempo, 674157
1, 9670, Tempo, 689655
1, 9720, Tempo, 705882
1, 9780, Tempo, 722892
1, 9840, Tempo, 674157
1, 10320, Tempo, 652174
1, 10560, Tempo, 705882
1, 10800, Tempo, 652174
1, 11010, Tempo, 714286
1, 11040, Tempo, 833333
1, 11160, Tempo, 869565
1, 11280, Tempo, 845070
1, 11340, Tempo, 821918
1, 11400, Tempo, 789474
1, 11460, Tempo, 750000
1, 11520, Tempo, 714286
1, 13800, Tempo, 740741
1, 13860, Tempo, 789474
1, 13920, Tempo, 821918
1, 14040, Tempo, 759494
1, 14160, Tempo, 722892
1, 14820, Tempo, 800000
1, 14880, Tempo, 714286
1, 15240, Tempo, 731707
1, 15360, Tempo, 652174
1, 17040, Tempo, 705882
1, 17160, Tempo, 666667
1, 17280, Tempo, 645161
1, 21120, Tempo, 722892
1, 21180, Tempo, 759494
1, 21240, Tempo, 789474
1, 21300, Tempo, 821918
1, 21360, Tempo, 689655
1, 21490, Tempo, 674157
1, 21600, Tempo, 659341
1, 23040, Tempo, 674157
1, 23760, Tempo, 705882
1, 24000, Tempo, 666667
1, 24840, Tempo, 705882
1, 24960, Tempo, 666667
1, 25680, Tempo, 705882
1, 25920, Tempo, 666667
1, 26160, Tempo, 810811
1, 26400, Tempo, 750000
1, 26460, Tempo, 714286
1, 26520, Tempo, 681818
1, 26580, Tempo, 674157
1, 26640, Tempo, 659341
1, 29040, Tempo, 697674
1, 29280, Tempo, 681818
1, 29940, Tempo, 759494
1, 29970, Tempo, 714286
1, 30000, Tempo, 689655
1, 30350, Tempo, 645161
1, 30370, Tempo, 638298
1, 33600, Tempo, 689655
1, 33840, Tempo, 638298
1, 34320, Tempo, 631579
1, 34560, Tempo, 625000
1, 38410, Tempo, 631579
1, 38450, Tempo, 638298
1, 38470, Tempo, 645161
1, 38480, Tempo, 652174
1, 38490, Tempo, 666667
1, 38510, Tempo, 681818
1, 38520, Tempo, 697674
1, 38530, Tempo, 705882
1, 38540, Tempo, 714286
1, 38550, Tempo, 731707
1, 38560, Tempo, 759494
1, 38570, Tempo, 769231
1, 38580, Tempo, 779221
1, 38600, Tempo, 800000
1, 38610, Tempo, 833333
1, 38640, Tempo, 2307692
1, 38760, Tempo, 618557
1, 44940, Tempo, 3333333
1, 45030, Tempo, 618557
1, 51610, Tempo, 722892
1, 51720, Tempo, 740741
1, 51780, Tempo, 789474
1, 51840, Tempo, 689655
1, 51960, Tempo, 674157
1, 52080, Tempo, 666667
1, 52190, Tempo, 659341
1, 52320, Tempo, 652174
1, 52560, Tempo, 714286
1, 52680, Tempo, 750000
1, 52800, Tempo, 652174
1, 56160, Tempo, 674157
1, 56400, Tempo, 645161
1, 56640, Tempo, 789474
1, 56880, Tempo, 714286
1, 57000, Tempo, 689655
1, 57120, Tempo, 674157
1, 59440, Tempo, 705882
1, 59520, Tempo, 750000
1, 59760, Tempo, 759494
1, 59880, Tempo, 789474
1, 60000, Tempo, 740741
1, 61800, Tempo, 759494
1, 62160, Tempo, 779221
1, 62280, Tempo, 810811
1, 62400, Tempo, 845070
1, 62520, Tempo, 810811
1, 62640, Tempo, 857143
1, 62760, Tempo, 909091
1, 62820, Tempo, 967742
1, 62850, Tempo, 1052632
1, 62880, Tempo, 1200000
1, 63000, Tempo, 1052632
1, 63000, End_track
2, 0, Start_track
2, 0, MIDI_port, 0
2, 0, Title_t, "Ludwig van Beethoven"
2, 0, Control_c, 0, 0, 0
2, 0, Control_c, 0, 121, 0
2, 0, Control_c, 0, 1, 0
2, 0, Control_c, 0, 11, 127
2, 0, Control_c, 0, 64, 0
2, 0, Control_c, 0, 91, 104
2, 0, Control_c, 0, 93, 0
2, 60, Control_c, 0, 0, 0
2, 60, Program_c, 0, 0
2, 60, Control_c, 0, 10, 64
2, 60, Control_c, 0, 7, 120
2, 120, Text_t, "Ludwig van Beethoven's Piano Sonata"
2, 120, Text_t, "No. 10, 1st mov't (op. 14-2)"
2, 120, Text_t, "Allegro"
2, 120, Text_t, "Record : Ryu, Jaeyaung"
2, 120, Text_t, "E-mail : qpxhqps@unitel.co.kr"
2, 150, Note_on_c, 0, 62, 53
2, 179, Note_on_c, 0, 62, 0
2, 180, Note_on_c, 0, 74, 54
2, 209, Note_on_c, 0, 74, 0
2, 210, Note_on_c, 0, 70, 59
2, 239, Note_on_c, 0, 70, 0
2, 240, Note_on_c, 0, 71, 57
2, 269, Note_on_c, 0, 71, 0
2, 270, Note_on_c, 0, 66, 58
2, 299, Note_on_c, 0, 66, 0
2, 300, Note_on_c, 0, 67, 58
2, 300, Note_on_c, 0, 43, 56
2, 330, Note_on_c, 0, 47, 50
2, 360, Note_on_c, 0, 50, 54
2, 389, Note_on_c, 0, 67, 0
2, 390, Note_on_c, 0, 62, 55
2, 419, Note_on_c, 0, 62, 0
2, 420, Note_on_c, 0, 74, 58
2, 449, Note_on_c, 0, 74, 0
2, 450, Note_on_c, 0, 70, 54
2, 479, Note_on_c, 0, 70, 0
2, 479, Note_on_c, 0, 50, 0
2, 479, Note_on_c, 0, 47, 0
2, 479, Note_on_c, 0, 43, 0
2, 480, Note_on_c, 0, 71, 59
2, 509, Note_on_c, 0, 71, 0
2, 510, Note_on_c, 0, 66, 56
2, 539, Note_on_c, 0, 66, 0
2, 540, Note_on_c, 0, 67, 53
2, 540, Note_on_c, 0, 55, 48
2, 570, Note_on_c, 0, 59, 50
2, 600, Note_on_c, 0, 62, 51
2, 629, Note_on_c, 0, 67, 0
2, 630, Note_on_c, 0, 64, 57
2, 659, Note_on_c, 0, 64, 0
2, 660, Note_on_c, 0, 76, 59
2, 689, Note_on_c, 0, 76, 0
2, 690, Note_on_c, 0, 71, 57
2, 719, Note_on_c, 0, 71, 0
2, 719, Note_on_c, 0, 62, 0
2, 719, Note_on_c, 0, 59, 0
2, 719, Note_on_c, 0, 55, 0
2, 720, Note_on_c, 0, 72, 54
2, 749, Note_on_c, 0, 72, 0
2, 750, Note_on_c, 0, 68, 53
2, 779, Note_on_c, 0, 68, 0
2, 780, Note_on_c, 0, 69, 55
2, 780, Note_on_c, 0, 43, 53
2, 810, Note_on_c, 0, 48, 47
2, 840, Note_on_c, 0, 52, 47
2, 869, Note_on_c, 0, 69, 0
2, 870, Note_on_c, 0, 64, 53
2, 899, Note_on_c, 0, 64, 0
2, 900, Note_on_c, 0, 76, 59
2, 929, Note_on_c, 0, 76, 0
2, 930, Note_on_c, 0, 71, 53
2, 959, Note_on_c, 0, 71, 0
2, 959, Note_on_c, 0, 52, 0
2, 959, Note_on_c, 0, 48, 0
2, 959, Note_on_c, 0, 43, 0
2, 960, Note_on_c, 0, 72, 52
2, 989, Note_on_c, 0, 72, 0
2, 990, Note_on_c, 0, 68, 54
2, 1019, Note_on_c, 0, 68, 0
2, 1020, Note_on_c, 0, 69, 55
2, 1020, Note_on_c, 0, 55, 48
2, 1050, Note_on_c, 0, 60, 55
2, 1080, Note_on_c, 0, 64, 47
2, 1109, Note_on_c, 0, 69, 0
2, 1110, Note_on_c, 0, 69, 55
2, 1139, Note_on_c, 0, 69, 0
2, 1140, Note_on_c, 0, 84, 55
2, 1154, Note_on_c, 0, 84, 0
2, 1170, Note_on_c, 0, 83, 58
2, 1184, Note_on_c, 0, 83, 0
2, 1199, Note_on_c, 0, 64, 0
2, 1199, Note_on_c, 0, 60, 0
2, 1199, Note_on_c, 0, 55, 0
2, 1200, Note_on_c, 0, 81, 52
2, 1230, Note_on_c, 0, 54, 49
2, 1259, Note_on_c, 0, 54, 0
2, 1260, Note_on_c, 0, 57, 51
2, 1289, Note_on_c, 0, 57, 0
2, 1289, Note_on_c, 0, 81, 0
2, 1290, Note_on_c, 0, 79, 58
2, 1290, Note_on_c, 0, 62, 53
2, 1319, Note_on_c, 0, 62, 0
2, 1319, Note_on_c, 0, 79, 0
2, 1320, Note_on_c, 0, 78, 59
2, 1349, Note_on_c, 0, 78, 0
2, 1350, Note_on_c, 0, 76, 58
2, 1350, Note_on_c, 0, 50, 56
2, 1379, Note_on_c, 0, 50, 0
2, 1379, Note_on_c, 0, 76, 0
2, 1380, Note_on_c, 0, 74, 57
2, 1380, Note_on_c, 0, 57, 55
2, 1409, Note_on_c, 0, 57, 0
2, 1409, Note_on_c, 0, 74, 0
2, 1410, Note_on_c, 0, 72, 56
2, 1410, Note_on_c, 0, 60, 52
2, 1435, Note_on_c, 0, 72, 0
2, 1436, Note_on_c, 0, 74, 53
2, 1439, Note_on_c, 0, 60, 0
2, 1443, Note_on_c, 0, 74, 0
2, 1443, Note_on_c, 0, 72, 57
2, 1469, Note_on_c, 0, 72, 0
2, 1470, Note_on_c, 0, 71, 52
2, 1470, Note_on_c, 0, 55, 55
2, 1499, Note_on_c, 0, 55, 0
2, 1500, Note_on_c, 0, 59, 55
2, 1529, Note_on_c, 0, 59, 0
2, 1529, Note_on_c, 0, 71, 0
2, 1530, Note_on_c, 0, 79, 56
2, 1530, Note_on_c, 0, 62, 46
2, 1559, Note_on_c, 0, 62, 0
2, 1559, Note_on_c, 0, 79, 0
2, 1560, Note_on_c, 0, 79, 54
2, 1589, Note_on_c, 0, 79, 0
2, 1590, Note_on_c, 0, 69, 58
2, 1590, Note_on_c, 0, 48, 52
2, 1619, Note_on_c, 0, 48, 0
2, 1620, Note_on_c, 0, 52, 55
2, 1649, Note_on_c, 0, 52, 0
2, 1649, Note_on_c, 0, 69, 0
2, 1650, Note_on_c, 0, 76, 59
2, 1650, Note_on_c, 0, 57, 56
2, 1679, Note_on_c, 0, 57, 0
2, 1679, Note_on_c, 0, 76, 0
2, 1680, Note_on_c, 0, 76, 55
2, 1709, Note_on_c, 0, 76, 0
2, 1710, Note_on_c, 0, 67, 57
2, 1710, Note_on_c, 0, 50, 56
2, 1739, Note_on_c, 0, 50, 0
2, 1740, Note_on_c, 0, 55, 52
2, 1769, Note_on_c, 0, 55, 0
2, 1769, Note_on_c, 0, 67, 0
2, 1770, Note_on_c, 0, 74, 57
2, 1770, Note_on_c, 0, 59, 51
2, 1799, Note_on_c, 0, 59, 0
2, 1799, Note_on_c, 0, 74, 0
2, 1800, Note_on_c, 0, 74, 54
2, 1829, Note_on_c, 0, 74, 0
2, 1830, Note_on_c, 0, 60, 52
2, 1830, Note_on_c, 0, 38, 50
2, 1859, Note_on_c, 0, 38, 0
2, 1860, Note_on_c, 0, 45, 50
2, 1889, Note_on_c, 0, 45, 0
2, 1889, Note_on_c, 0, 60, 0
2, 1890, Note_on_c, 0, 66, 58
2, 1890, Note_on_c, 0, 50, 50
2, 1919, Note_on_c, 0, 50, 0
2, 1919, Note_on_c, 0, 66, 0
2, 1920, Note_on_c, 0, 59, 52
2, 1920, Note_on_c, 0, 67, 57
2, 1920, Note_on_c, 0, 43, 55
2, 1949, Note_on_c, 0, 43, 0
2, 1950, Note_on_c, 0, 47, 49
2, 1979, Note_on_c, 0, 47, 0
2, 1980, Note_on_c, 0, 50, 52
2, 2009, Note_on_c, 0, 50, 0
2, 2010, Note_on_c, 0, 47, 53
2, 2039, Note_on_c, 0, 47, 0
2, 2039, Note_on_c, 0, 67, 0
2, 2039, Note_on_c, 0, 59, 0
2, 2040, Note_on_c, 0, 43, 56
2, 2069, Note_on_c, 0, 43, 0
2, 2070, Note_on_c, 0, 47, 50
2, 2099, Note_on_c, 0, 47, 0
2, 2100, Note_on_c, 0, 74, 52
2, 2100, Note_on_c, 0, 50, 48
2, 2129, Note_on_c, 0, 50, 0
2, 2130, Note_on_c, 0, 47, 48
2, 2159, Note_on_c, 0, 47, 0
2, 2159, Note_on_c, 0, 74, 0
2, 2160, Note_on_c, 0, 74, 54
2, 2160, Note_on_c, 0, 43, 51
2, 2189, Note_on_c, 0, 43, 0
2, 2189, Note_on_c, 0, 74, 0
2, 2190, Note_on_c, 0, 47, 55
2, 2219, Note_on_c, 0, 47, 0
2, 2220, Note_on_c, 0, 74, 62
2, 2220, Note_on_c, 0, 50, 51
2, 2249, Note_on_c, 0, 50, 0
2, 2249, Note_on_c, 0, 74, 0
2, 2250, Note_on_c, 0, 47, 55
2, 2279, Note_on_c, 0, 47, 0
2, 2280, Note_on_c, 0, 74, 65
2, 2280, Note_on_c, 0, 43, 54
2, 2309, Note_on_c, 0, 43, 0
2, 2309, Note_on_c, 0, 74, 0
2, 2310, Note_on_c, 0, 47, 56
2, 2339, Note_on_c, 0, 47, 0
2, 2340, Note_on_c, 0, 74, 69
2, 2340, Note_on_c, 0, 50, 63
2, 2351, Note_on_c, 0, 74, 0
2, 2352, Note_on_c, 0, 76, 67
2, 2363, Note_on_c, 0, 76, 0
2, 2364, Note_on_c, 0, 74, 70
2, 2369, Note_on_c, 0, 50, 0
2, 2370, Note_on_c, 0, 47, 69
2, 2375, Note_on_c, 0, 74, 0
2, 2376, Note_on_c, 0, 73, 72
2, 2387, Note_on_c, 0, 73, 0
2, 2388, Note_on_c, 0, 74, 74
2, 2399, Note_on_c, 0, 74, 0
2, 2399, Note_on_c, 0, 47, 0
2, 2400, Note_on_c, 0, 76, 95
2, 2400, Note_on_c, 0, 45, 67
2, 2429, Note_on_c, 0, 45, 0
2, 2430, Note_on_c, 0, 48, 70
2, 2459, Note_on_c, 0, 48, 0
2, 2460, Note_on_c, 0, 54, 63
2, 2489, Note_on_c, 0, 54, 0
2, 2490, Note_on_c, 0, 48, 70
2, 2519, Note_on_c, 0, 48, 0
2, 2519, Note_on_c, 0, 76, 0
2, 2520, Note_on_c, 0, 74, 70
2, 2520, Note_on_c, 0, 45, 64
2, 2549, Note_on_c, 0, 45, 0
2, 2550, Note_on_c, 0, 48, 63
2, 2579, Note_on_c, 0, 48, 0
2, 2579, Note_on_c, 0, 74, 0
2, 2580, Note_on_c, 0, 54, 62
2, 2609, Note_on_c, 0, 54, 0
2, 2610, Note_on_c, 0, 48, 62
2, 2639, Note_on_c, 0, 48, 0
2, 2640, Note_on_c, 0, 45, 50
2, 2669, Note_on_c, 0, 45, 0
2, 2670, Note_on_c, 0, 48, 54
2, 2699, Note_on_c, 0, 48, 0
2, 2700, Note_on_c, 0, 54, 58
2, 2729, Note_on_c, 0, 54, 0
2, 2730, Note_on_c, 0, 74, 59
2, 2730, Note_on_c, 0, 48, 59
2, 2744, Note_on_c, 0, 74, 0
2, 2759, Note_on_c, 0, 48, 0
2, 2760, Note_on_c, 0, 74, 62
2, 2760, Note_on_c, 0, 45, 55
2, 2774, Note_on_c, 0, 74, 0
2, 2789, Note_on_c, 0, 45, 0
2, 2790, Note_on_c, 0, 74, 63
2, 2790, Note_on_c, 0, 48, 66
2, 2804, Note_on_c, 0, 74, 0
2, 2819, Note_on_c, 0, 48, 0
2, 2820, Note_on_c, 0, 74, 71
2, 2820, Note_on_c, 0, 54, 64
2, 2834, Note_on_c, 0, 74, 0
2, 2849, Note_on_c, 0, 54, 0
2, 2850, Note_on_c, 0, 74, 70
2, 2850, Note_on_c, 0, 48, 69
2, 2864, Note_on_c, 0, 74, 0
2, 2879, Note_on_c, 0, 48, 0
2, 2880, Note_on_c, 0, 76, 91
2, 2880, Note_on_c, 0, 47, 65
2, 2909, Note_on_c, 0, 47, 0
2, 2910, Note_on_c, 0, 50, 72
2, 2939, Note_on_c, 0, 50, 0
2, 2940, Note_on_c, 0, 55, 72
2, 2969, Note_on_c, 0, 55, 0
2, 2970, Note_on_c, 0, 50, 62
2, 2999, Note_on_c, 0, 50, 0
2, 2999, Note_on_c, 0, 76, 0
2, 3000, Note_on_c, 0, 74, 68
2, 3000, Note_on_c, 0, 47, 69
2, 3029, Note_on_c, 0, 47, 0
2, 3030, Note_on_c, 0, 50, 69
2, 3059, Note_on_c, 0, 50, 0
2, 3059, Note_on_c, 0, 74, 0
2, 3060, Note_on_c, 0, 55, 66
2, 3089, Note_on_c, 0, 55, 0
2, 3090, Note_on_c, 0, 50, 65
2, 3119, Note_on_c, 0, 50, 0
2, 3120, Note_on_c, 0, 47, 47
2, 3149, Note_on_c, 0, 47, 0
2, 3150, Note_on_c, 0, 50, 49
2, 3179, Note_on_c, 0, 50, 0
2, 3180, Note_on_c, 0, 74, 57
2, 3180, Note_on_c, 0, 55, 51
2, 3209, Note_on_c, 0, 55, 0
2, 3210, Note_on_c, 0, 50, 54
2, 3239, Note_on_c, 0, 50, 0
2, 3240, Note_on_c, 0, 47, 48
2, 3269, Note_on_c, 0, 47, 0
2, 3269, Note_on_c, 0, 74, 0
2, 3270, Note_on_c, 0, 76, 55
2, 3270, Note_on_c, 0, 50, 51
2, 3284, Note_on_c, 0, 76, 0
2, 3285, Note_on_c, 0, 74, 54
2, 3299, Note_on_c, 0, 74, 0
2, 3299, Note_on_c, 0, 50, 0
2, 3300, Note_on_c, 0, 72, 53
2, 3300, Note_on_c, 0, 55, 51
2, 3314, Note_on_c, 0, 72, 0
2, 3329, Note_on_c, 0, 55, 0
2, 3330, Note_on_c, 0, 71, 52
2, 3330, Note_on_c, 0, 50, 46
2, 3344, Note_on_c, 0, 71, 0
2, 3359, Note_on_c, 0, 50, 0
2, 3360, Note_on_c, 0, 71, 53
2, 3360, Note_on_c, 0, 48, 48
2, 3389, Note_on_c, 0, 48, 0
2, 3390, Note_on_c, 0, 52, 56
2, 3419, Note_on_c, 0, 52, 0
2, 3419, Note_on_c, 0, 71, 0
2, 3420, Note_on_c, 0, 69, 57
2, 3420, Note_on_c, 0, 57, 52
2, 3449, Note_on_c, 0, 57, 0
2, 3450, Note_on_c, 0, 52, 55
2, 3479, Note_on_c, 0, 52, 0
2, 3480, Note_on_c, 0, 49, 52
2, 3509, Note_on_c, 0, 49, 0
2, 3510, Note_on_c, 0, 52, 55
2, 3539, Note_on_c, 0, 52, 0
2, 3539, Note_on_c, 0, 69, 0
2, 3540, Note_on_c, 0, 67, 63
2, 3540, Note_on_c, 0, 57, 56
2, 3569, Note_on_c, 0, 57, 0
2, 3570, Note_on_c, 0, 52, 60
2, 3574, Note_on_c, 0, 67, 0
2, 3575, Note_on_c, 0, 66, 55
2, 3584, Note_on_c, 0, 66, 0
2, 3585, Note_on_c, 0, 67, 60
2, 3594, Note_on_c, 0, 67, 0
2, 3595, Note_on_c, 0, 69, 57
2, 3599, Note_on_c, 0, 52, 0
2, 3600, Note_on_c, 0, 50, 63
2, 3604, Note_on_c, 0, 69, 0
2, 3605, Note_on_c, 0, 67, 63
2, 3629, Note_on_c, 0, 50, 0
2, 3630, Note_on_c, 0, 54, 63
2, 3659, Note_on_c, 0, 54, 0
2, 3659, Note_on_c, 0, 67, 0
2, 3660, Note_on_c, 0, 66, 66
2, 3660, Note_on_c, 0, 57, 62
2, 3689, Note_on_c, 0, 57, 0
2, 3690, Note_on_c, 0, 54, 59
2, 3719, Note_on_c, 0, 54, 0
2, 3720, Note_on_c, 0, 50, 63
2, 3749, Note_on_c, 0, 50, 0
2, 3750, Note_on_c, 0, 54, 59
2, 3779, Note_on_c, 0, 54, 0
2, 3779, Note_on_c, 0, 66, 0
2, 3780, Note_on_c, 0, 74, 66
2, 3780, Note_on_c, 0, 59, 62
2, 3809, Note_on_c, 0, 59, 0
2, 3810, Note_on_c, 0, 54, 68
2, 3839, Note_on_c, 0, 54, 0
2, 3839, Note_on_c, 0, 74, 0
2, 3840, Note_on_c, 0, 74, 75
2, 3840, Note_on_c, 0, 52, 71
2, 3869, Note_on_c, 0, 52, 0
2, 3870, Note_on_c, 0, 55, 66
2, 3899, Note_on_c, 0, 55, 0
2, 3899, Note_on_c, 0, 74, 0
2, 3900, Note_on_c, 0, 73, 74
2, 3900, Note_on_c, 0, 59, 69
2, 3929, Note_on_c, 0, 59, 0
2, 3930, Note_on_c, 0, 55, 75
2, 3959, Note_on_c, 0, 55, 0
2, 3960, Note_on_c, 0, 52, 69
2, 3989, Note_on_c, 0, 52, 0
2, 3990, Note_on_c, 0, 55, 72
2, 4019, Note_on_c, 0, 55, 0
2, 4019, Note_on_c, 0, 73, 0
2, 4020, Note_on_c, 0, 71, 81
2, 4020, Note_on_c, 0, 61, 77
2, 4049, Note_on_c, 0, 61, 0
2, 4050, Note_on_c, 0, 55, 69
2, 4054, Note_on_c, 0, 71, 0
2, 4055, Note_on_c, 0, 69, 69
2, 4064, Note_on_c, 0, 69, 0
2, 4065, Note_on_c, 0, 71, 72
2, 4074, Note_on_c, 0, 71, 0
2, 4075, Note_on_c, 0, 73, 73
2, 4079, Note_on_c, 0, 55, 0
2, 4080, Note_on_c, 0, 54, 79
2, 4084, Note_on_c, 0, 73, 0
2, 4085, Note_on_c, 0, 71, 82
2, 4109, Note_on_c, 0, 54, 0
2, 4110, Note_on_c, 0, 57, 71
2, 4139, Note_on_c, 0, 57, 0
2, 4139, Note_on_c, 0, 71, 0
2, 4140, Note_on_c, 0, 69, 81
2, 4140, Note_on_c, 0, 61, 72
2, 4169, Note_on_c, 0, 61, 0
2, 4170, Note_on_c, 0, 57, 76
2, 4199, Note_on_c, 0, 57, 0
2, 4200, Note_on_c, 0, 54, 74
2, 4229, Note_on_c, 0, 54, 0
2, 4230, Note_on_c, 0, 57, 78
2, 4259, Note_on_c, 0, 57, 0
2, 4259, Note_on_c, 0, 69, 0
2, 4260, Note_on_c, 0, 78, 74
2, 4260, Note_on_c, 0, 62, 67
2, 4289, Note_on_c, 0, 62, 0
2, 4290, Note_on_c, 0, 57, 70
2, 4319, Note_on_c, 0, 57, 0
2, 4319, Note_on_c, 0, 78, 0
2, 4320, Note_on_c, 0, 78, 73
2, 4320, Note_on_c, 0, 55, 75
2, 4349, Note_on_c, 0, 55, 0
2, 4350, Note_on_c, 0, 59, 67
2, 4379, Note_on_c, 0, 59, 0
2, 4379, Note_on_c, 0, 78, 0
2, 4380, Note_on_c, 0, 76, 78
2, 4380, Note_on_c, 0, 64, 66
2, 4409, Note_on_c, 0, 64, 0
2, 4410, Note_on_c, 0, 59, 69
2, 4439, Note_on_c, 0, 59, 0
2, 4440, Note_on_c, 0, 56, 72
2, 4469, Note_on_c, 0, 56, 0
2, 4470, Note_on_c, 0, 59, 73
2, 4499, Note_on_c, 0, 59, 0
2, 4499, Note_on_c, 0, 76, 0
2, 4500, Note_on_c, 0, 74, 73
2, 4500, Note_on_c, 0, 64, 65
2, 4529, Note_on_c, 0, 64, 0
2, 4530, Note_on_c, 0, 59, 68
2, 4559, Note_on_c, 0, 59, 0
2, 4559, Note_on_c, 0, 74, 0
2, 4560, Note_on_c, 0, 74, 83
2, 4560, Note_on_c, 0, 57, 79
2, 4589, Note_on_c, 0, 57, 0
2, 4590, Note_on_c, 0, 64, 75
2, 4619, Note_on_c, 0, 64, 0
2, 4619, Note_on_c, 0, 74, 0
2, 4620, Note_on_c, 0, 73, 75
2, 4620, Note_on_c, 0, 69, 71
2, 4649, Note_on_c, 0, 69, 0
2, 4650, Note_on_c, 0, 64, 75
2, 4679, Note_on_c, 0, 64, 0
2, 4680, Note_on_c, 0, 57, 75
2, 4709, Note_on_c, 0, 57, 0
2, 4710, Note_on_c, 0, 62, 71
2, 4739, Note_on_c, 0, 62, 0
2, 4739, Note_on_c, 0, 73, 0
2, 4740, Note_on_c, 0, 71, 80
2, 4740, Note_on_c, 0, 68, 70
2, 4769, Note_on_c, 0, 68, 0
2, 4770, Note_on_c, 0, 62, 68
2, 4799, Note_on_c, 0, 62, 0
2, 4799, Note_on_c, 0, 71, 0
2, 4800, Note_on_c, 0, 71, 75
2, 4800, Note_on_c, 0, 57, 69
2, 4829, Note_on_c, 0, 57, 0
2, 4830, Note_on_c, 0, 61, 70
2, 4859, Note_on_c, 0, 61, 0
2, 4859, Note_on_c, 0, 71, 0
2, 4860, Note_on_c, 0, 69, 70
2, 4860, Note_on_c, 0, 64, 73
2, 4889, Note_on_c, 0, 64, 0
2, 4890, Note_on_c, 0, 61, 70
2, 4919, Note_on_c, 0, 61, 0
2, 4919, Note_on_c, 0, 69, 0
2, 4920, Note_on_c, 0, 57, 64
2, 4940, Note_on_c, 0, 74, 72
2, 4949, Note_on_c, 0, 57, 0
2, 4950, Note_on_c, 0, 64, 73
2, 4959, Note_on_c, 0, 74, 0
2, 4960, Note_on_c, 0, 76, 68
2, 4979, Note_on_c, 0, 76, 0
2, 4979, Note_on_c, 0, 64, 0
2, 4980, Note_on_c, 0, 78, 72
2, 4980, Note_on_c, 0, 68, 67
2, 4999, Note_on_c, 0, 78, 0
2, 5000, Note_on_c, 0, 76, 72
2, 5009, Note_on_c, 0, 68, 0
2, 5010, Note_on_c, 0, 64, 64
2, 5019, Note_on_c, 0, 76, 0
2, 5020, Note_on_c, 0, 74, 71
2, 5039, Note_on_c, 0, 74, 0
2, 5039, Note_on_c, 0, 64, 0
2, 5040, Note_on_c, 0, 74, 69
2, 5040, Note_on_c, 0, 57, 67
2, 5069, Note_on_c, 0, 57, 0
2, 5070, Note_on_c, 0, 64, 69
2, 5099, Note_on_c, 0, 64, 0
2, 5099, Note_on_c, 0, 74, 0
2, 5100, Note_on_c, 0, 73, 67
2, 5100, Note_on_c, 0, 69, 60
2, 5129, Note_on_c, 0, 69, 0
2, 5130, Note_on_c, 0, 64, 59
2, 5159, Note_on_c, 0, 64, 0
2, 5159, Note_on_c, 0, 73, 0
2, 5160, Note_on_c, 0, 57, 62
2, 5180, Note_on_c, 0, 71, 64
2, 5189, Note_on_c, 0, 57, 0
2, 5190, Note_on_c, 0, 62, 65
2, 5199, Note_on_c, 0, 71, 0
2, 5200, Note_on_c, 0, 73, 69
2, 5219, Note_on_c, 0, 73, 0
2, 5219, Note_on_c, 0, 62, 0
2, 5220, Note_on_c, 0, 74, 70
2, 5220, Note_on_c, 0, 68, 62
2, 5239, Note_on_c, 0, 74, 0
2, 5240, Note_on_c, 0, 73, 66
2, 5249, Note_on_c, 0, 68, 0
2, 5250, Note_on_c, 0, 62, 63
2, 5259, Note_on_c, 0, 73, 0
2, 5260, Note_on_c, 0, 71, 69
2, 5279, Note_on_c, 0, 71, 0
2, 5279, Note_on_c, 0, 62, 0
2, 5280, Note_on_c, 0, 71, 64
2, 5280, Note_on_c, 0, 57, 57
2, 5309, Note_on_c, 0, 57, 0
2, 5310, Note_on_c, 0, 61, 62
2, 5339, Note_on_c, 0, 61, 0
2, 5339, Note_on_c, 0, 71, 0
2, 5340, Note_on_c, 0, 69, 65
2, 5340, Note_on_c, 0, 64, 60
2, 5369, Note_on_c, 0, 64, 0
2, 5370, Note_on_c, 0, 61, 62
2, 5399, Note_on_c, 0, 61, 0
2, 5399, Note_on_c, 0, 69, 0
2, 5400, Note_on_c, 0, 57, 54
2, 5420, Note_on_c, 0, 74, 59
2, 5429, Note_on_c, 0, 57, 0
2, 5430, Note_on_c, 0, 64, 60
2, 5439, Note_on_c, 0, 74, 0
2, 5440, Note_on_c, 0, 76, 62
2, 5459, Note_on_c, 0, 76, 0
2, 5459, Note_on_c, 0, 64, 0
2, 5460, Note_on_c, 0, 78, 64
2, 5460, Note_on_c, 0, 68, 54
2, 5479, Note_on_c, 0, 78, 0
2, 5480, Note_on_c, 0, 76, 62
2, 5489, Note_on_c, 0, 68, 0
2, 5490, Note_on_c, 0, 64, 56
2, 5499, Note_on_c, 0, 76, 0
2, 5500, Note_on_c, 0, 74, 63
2, 5519, Note_on_c, 0, 74, 0
2, 5519, Note_on_c, 0, 64, 0
2, 5520, Note_on_c, 0, 74, 60
2, 5520, Note_on_c, 0, 57, 59
2, 5539, Note_on_c, 0, 74, 0
2, 5540, Note_on_c, 0, 73, 58
2, 5549, Note_on_c, 0, 57, 0
2, 5550, Note_on_c, 0, 64, 53
2, 5559, Note_on_c, 0, 73, 0
2, 5560, Note_on_c, 0, 74, 63
2, 5579, Note_on_c, 0, 74, 0
2, 5579, Note_on_c, 0, 64, 0
2, 5580, Note_on_c, 0, 76, 63
2, 5580, Note_on_c, 0, 69, 51
2, 5599, Note_on_c, 0, 76, 0
2, 5600, Note_on_c, 0, 74, 60
2, 5609, Note_on_c, 0, 69, 0
2, 5610, Note_on_c, 0, 64, 55
2, 5619, Note_on_c, 0, 74, 0
2, 5620, Note_on_c, 0, 73, 60
2, 5639, Note_on_c, 0, 73, 0
2, 5639, Note_on_c, 0, 64, 0
2, 5640, Note_on_c, 0, 73, 60
2, 5640, Note_on_c, 0, 57, 54
2, 5659, Note_on_c, 0, 73, 0
2, 5660, Note_on_c, 0, 71, 55
2, 5669, Note_on_c, 0, 57, 0
2, 5670, Note_on_c, 0, 62, 49
2, 5679, Note_on_c, 0, 71, 0
2, 5680, Note_on_c, 0, 73, 55
2, 5699, Note_on_c, 0, 73, 0
2, 5699, Note_on_c, 0, 62, 0
2, 5700, Note_on_c, 0, 74, 59
2, 5700, Note_on_c, 0, 68, 58
2, 5719, Note_on_c, 0, 74, 0
2, 5720, Note_on_c, 0, 73, 59
2, 5729, Note_on_c, 0, 68, 0
2, 5730, Note_on_c, 0, 62, 47
2, 5739, Note_on_c, 0, 73, 0
2, 5740, Note_on_c, 0, 71, 56
2, 5759, Note_on_c, 0, 71, 0
2, 5759, Note_on_c, 0, 62, 0
2, 5760, Note_on_c, 0, 71, 72
2, 5760, Note_on_c, 0, 57, 66
2, 5760, Note_on_c, 0, 61, 72
2, 5760, Note_on_c, 0, 64, 67
2, 5779, Note_on_c, 0, 71, 0
2, 5780, Note_on_c, 0, 69, 68
2, 5799, Note_on_c, 0, 69, 0
2, 5800, Note_on_c, 0, 68, 72
2, 5819, Note_on_c, 0, 68, 0
2, 5819, Note_on_c, 0, 57, 0
2, 5819, Note_on_c, 0, 61, 0
2, 5819, Note_on_c, 0, 64, 0
2, 5820, Note_on_c, 0, 69, 73
2, 5839, Note_on_c, 0, 69, 0
2, 5840, Note_on_c, 0, 71, 72
2, 5859, Note_on_c, 0, 71, 0
2, 5860, Note_on_c, 0, 73, 72
2, 5879, Note_on_c, 0, 73, 0
2, 5880, Note_on_c, 0, 74, 71
2, 5899, Note_on_c, 0, 74, 0
2, 5900, Note_on_c, 0, 75, 68
2, 5919, Note_on_c, 0, 75, 0
2, 5920, Note_on_c, 0, 76, 73
2, 5939, Note_on_c, 0, 76, 0
2, 5940, Note_on_c, 0, 77, 72
2, 5954, Note_on_c, 0, 77, 0
2, 5955, Note_on_c, 0, 78, 68
2, 5969, Note_on_c, 0, 78, 0
2, 5970, Note_on_c, 0, 79, 71
2, 5984, Note_on_c, 0, 79, 0
2, 5985, Note_on_c, 0, 80, 72
2, 5999, Note_on_c, 0, 80, 0
2, 6000, Note_on_c, 0, 81, 71
2, 6059, Note_on_c, 0, 81, 0
2, 6060, Note_on_c, 0, 81, 69
2, 6119, Note_on_c, 0, 81, 0
2, 6120, Note_on_c, 0, 81, 75
2, 6179, Note_on_c, 0, 81, 0
2, 6180, Note_on_c, 0, 81, 74
2, 6239, Note_on_c, 0, 81, 0
2, 6240, Note_on_c, 0, 78, 74
2, 6240, Note_on_c, 0, 81, 75
2, 6270, Note_on_c, 0, 38, 70
2, 6299, Note_on_c, 0, 38, 0
2, 6300, Note_on_c, 0, 50, 63
2, 6329, Note_on_c, 0, 50, 0
2, 6329, Note_on_c, 0, 81, 0
2, 6329, Note_on_c, 0, 78, 0
2, 6330, Note_on_c, 0, 77, 73
2, 6330, Note_on_c, 0, 80, 72
2, 6339, Note_on_c, 0, 80, 0
2, 6339, Note_on_c, 0, 77, 0
2, 6360, Note_on_c, 0, 78, 70
2, 6360, Note_on_c, 0, 81, 73
2, 6390, Note_on_c, 0, 50, 66
2, 6419, Note_on_c, 0, 50, 0
2, 6420, Note_on_c, 0, 62, 65
2, 6449, Note_on_c, 0, 62, 0
2, 6449, Note_on_c, 0, 81, 0
2, 6449, Note_on_c, 0, 78, 0
2, 6450, Note_on_c, 0, 77, 75
2, 6450, Note_on_c, 0, 80, 71
2, 6459, Note_on_c, 0, 80, 0
2, 6459, Note_on_c, 0, 77, 0
2, 6480, Note_on_c, 0, 78, 74
2, 6480, Note_on_c, 0, 81, 73
2, 6510, Note_on_c, 0, 62, 70
2, 6539, Note_on_c, 0, 62, 0
2, 6540, Note_on_c, 0, 74, 63
2, 6569, Note_on_c, 0, 74, 0
2, 6569, Note_on_c, 0, 81, 0
2, 6569, Note_on_c, 0, 78, 0
2, 6570, Note_on_c, 0, 79, 69
2, 6570, Note_on_c, 0, 76, 72
2, 6579, Note_on_c, 0, 76, 0
2, 6579, Note_on_c, 0, 79, 0
2, 6600, Note_on_c, 0, 76, 68
2, 6600, Note_on_c, 0, 79, 74
2, 6629, Note_on_c, 0, 79, 0
2, 6629, Note_on_c, 0, 76, 0
2, 6630, Note_on_c, 0, 74, 75
2, 6630, Note_on_c, 0, 78, 71
2, 6639, Note_on_c, 0, 78, 0
2, 6639, Note_on_c, 0, 74, 0
2, 6660, Note_on_c, 0, 74, 73
2, 6660, Note_on_c, 0, 78, 75
2, 6689, Note_on_c, 0, 78, 0
2, 6689, Note_on_c, 0, 74, 0
2, 6690, Note_on_c, 0, 73, 71
2, 6690, Note_on_c, 0, 76, 69
2, 6699, Note_on_c, 0, 76, 0
2, 6699, Note_on_c, 0, 73, 0
2, 6720, Note_on_c, 0, 73, 75
2, 6720, Note_on_c, 0, 76, 68
2, 6749, Note_on_c, 0, 76, 0
2, 6749, Note_on_c, 0, 73, 0
2, 6750, Note_on_c, 0, 71, 73
2, 6750, Note_on_c, 0, 74, 68
2, 6759, Note_on_c, 0, 74, 0
2, 6759, Note_on_c, 0, 71, 0
2, 6780, Note_on_c, 0, 71, 71
2, 6780, Note_on_c, 0, 74, 74
2, 6809, Note_on_c, 0, 74, 0
2, 6809, Note_on_c, 0, 71, 0
2, 6810, Note_on_c, 0, 69, 73
2, 6810, Note_on_c, 0, 73, 72
2, 6819, Note_on_c, 0, 73, 0
2, 6819, Note_on_c, 0, 69, 0
2, 6840, Note_on_c, 0, 69, 73
2, 6840, Note_on_c, 0, 73, 72
2, 6869, Note_on_c, 0, 73, 0
2, 6869, Note_on_c, 0, 69, 0
2, 6870, Note_on_c, 0, 67, 69
2, 6870, Note_on_c, 0, 71, 69
2, 6879, Note_on_c, 0, 71, 0
2, 6879, Note_on_c, 0, 67, 0
2, 6900, Note_on_c, 0, 67, 72
2, 6900, Note_on_c, 0, 71, 72
2, 6929, Note_on_c, 0, 71, 0
2, 6929, Note_on_c, 0, 67, 0
2, 6930, Note_on_c, 0, 66, 70
2, 6930, Note_on_c, 0, 69, 70
2, 6939, Note_on_c, 0, 69, 0
2, 6939, Note_on_c, 0, 66, 0
2, 6960, Note_on_c, 0, 63, 75
2, 6960, Note_on_c, 0, 66, 75
2, 7020, Note_on_c, 0, 33, 71
2, 7049, Note_on_c, 0, 33, 0
2, 7079, Note_on_c, 0, 66, 0
2, 7079, Note_on_c, 0, 63, 0
2, 7080, Note_on_c, 0, 67, 69
2, 7080, Note_on_c, 0, 64, 69
2, 7080, Note_on_c, 0, 33, 71
2, 7109, Note_on_c, 0, 33, 0
2, 7139, Note_on_c, 0, 64, 0
2, 7139, Note_on_c, 0, 67, 0
2, 7140, Note_on_c, 0, 33, 64
2, 7169, Note_on_c, 0, 33, 0
2, 7200, Note_on_c, 0, 76, 70
2, 7200, Note_on_c, 0, 79, 73
2, 7230, Note_on_c, 0, 33, 69
2, 7259, Note_on_c, 0, 33, 0
2, 7260, Note_on_c, 0, 45, 62
2, 7289, Note_on_c, 0, 45, 0
2, 7289, Note_on_c, 0, 79, 0
2, 7289, Note_on_c, 0, 76, 0
2, 7290, Note_on_c, 0, 75, 72
2, 7290, Note_on_c, 0, 78, 75
2, 7299, Note_on_c, 0, 78, 0
2, 7299, Note_on_c, 0, 75, 0
2, 7320, Note_on_c, 0, 76, 72
2, 7320, Note_on_c, 0, 79, 74
2, 7350, Note_on_c, 0, 45, 69
2, 7379, Note_on_c, 0, 45, 0
2, 7380, Note_on_c, 0, 57, 69
2, 7409, Note_on_c, 0, 57, 0
2, 7409, Note_on_c, 0, 79, 0
2, 7409, Note_on_c, 0, 76, 0
2, 7410, Note_on_c, 0, 75, 73
2, 7410, Note_on_c, 0, 78, 68
2, 7419, Note_on_c, 0, 78, 0
2, 7419, Note_on_c, 0, 75, 0
2, 7440, Note_on_c, 0, 76, 74
2, 7440, Note_on_c, 0, 79, 73
2, 7470, Note_on_c, 0, 57, 71
2, 7499, Note_on_c, 0, 57, 0
2, 7500, Note_on_c, 0, 69, 64
2, 7529, Note_on_c, 0, 69, 0
2, 7529, Note_on_c, 0, 79, 0
2, 7529, Note_on_c, 0, 76, 0
2, 7530, Note_on_c, 0, 74, 74
2, 7530, Note_on_c, 0, 78, 73
2, 7539, Note_on_c, 0, 78, 0
2, 7539, Note_on_c, 0, 74, 0
2, 7560, Note_on_c, 0, 78, 74
2, 7560, Note_on_c, 0, 74, 73
2, 7589, Note_on_c, 0, 74, 0
2, 7589, Note_on_c, 0, 78, 0
2, 7590, Note_on_c, 0, 73, 74
2, 7590, Note_on_c, 0, 76, 74
2, 7599, Note_on_c, 0, 76, 0
2, 7599, Note_on_c, 0, 73, 0
2, 7620, Note_on_c, 0, 73, 73
2, 7620, Note_on_c, 0, 76, 75
2, 7649, Note_on_c, 0, 76, 0
2, 7649, Note_on_c, 0, 73, 0
2, 7650, Note_on_c, 0, 71, 71
2, 7650, Note_on_c, 0, 74, 68
2, 7659, Note_on_c, 0, 74, 0
2, 7659, Note_on_c, 0, 71, 0
2, 7680, Note_on_c, 0, 71, 69
2, 7680, Note_on_c, 0, 74, 72
2, 7709, Note_on_c, 0, 74, 0
2, 7709, Note_on_c, 0, 71, 0
2, 7710, Note_on_c, 0, 73, 68
2, 7710, Note_on_c, 0, 69, 74
2, 7719, Note_on_c, 0, 69, 0
2, 7719, Note_on_c, 0, 73, 0
2, 7740, Note_on_c, 0, 73, 72
2, 7740, Note_on_c, 0, 69, 72
2, 7769, Note_on_c, 0, 69, 0
2, 7769, Note_on_c, 0, 73, 0
2, 7770, Note_on_c, 0, 67, 70
2, 7770, Note_on_c, 0, 71, 74
2, 7779, Note_on_c, 0, 71, 0
2, 7779, Note_on_c, 0, 67, 0
2, 7800, Note_on_c, 0, 67, 68
2, 7800, Note_on_c, 0, 71, 73
2, 7829, Note_on_c, 0, 71, 0
2, 7829, Note_on_c, 0, 67, 0
2, 7830, Note_on_c, 0, 66, 73
2, 7830, Note_on_c, 0, 69, 69
2, 7839, Note_on_c, 0, 69, 0
2, 7839, Note_on_c, 0, 66, 0
2, 7860, Note_on_c, 0, 66, 69
2, 7860, Note_on_c, 0, 69, 70
2, 7889, Note_on_c, 0, 69, 0
2, 7889, Note_on_c, 0, 66, 0
2, 7890, Note_on_c, 0, 64, 69
2, 7890, Note_on_c, 0, 67, 75
2, 7899, Note_on_c, 0, 67, 0
2, 7899, Note_on_c, 0, 64, 0
2, 7920, Note_on_c, 0, 66, 78
2, 7920, Note_on_c, 0, 62, 73
2, 7950, Note_on_c, 0, 57, 63
2, 7979, Note_on_c, 0, 57, 0
2, 7979, Note_on_c, 0, 62, 0
2, 7979, Note_on_c, 0, 66, 0
2, 7980, Note_on_c, 0, 71, 73
2, 7980, Note_on_c, 0, 66, 69
2, 7980, Note_on_c, 0, 50, 65
2, 8009, Note_on_c, 0, 50, 0
2, 8010, Note_on_c, 0, 57, 66
2, 8039, Note_on_c, 0, 57, 0
2, 8039, Note_on_c, 0, 66, 0
2, 8039, Note_on_c, 0, 71, 0
2, 8040, Note_on_c, 0, 69, 75
2, 8040, Note_on_c, 0, 64, 71
2, 8040, Note_on_c, 0, 49, 64
2, 8069, Note_on_c, 0, 49, 0
2, 8070, Note_on_c, 0, 57, 70
2, 8099, Note_on_c, 0, 57, 0
2, 8099, Note_on_c, 0, 64, 0
2, 8099, Note_on_c, 0, 69, 0
2, 8100, Note_on_c, 0, 67, 73
2, 8100, Note_on_c, 0, 61, 73
2, 8100, Note_on_c, 0, 45, 71
2, 8129, Note_on_c, 0, 45, 0
2, 8130, Note_on_c, 0, 57, 72
2, 8159, Note_on_c, 0, 57, 0
2, 8159, Note_on_c, 0, 61, 0
2, 8159, Note_on_c, 0, 67, 0
2, 8160, Note_on_c, 0, 66, 76
2, 8160, Note_on_c, 0, 62, 72
2, 8190, Note_on_c, 0, 57, 72
2, 8219, Note_on_c, 0, 57, 0
2, 8219, Note_on_c, 0, 62, 0
2, 8219, Note_on_c, 0, 66, 0
2, 8220, Note_on_c, 0, 71, 74
2, 8220, Note_on_c, 0, 66, 75
2, 8220, Note_on_c, 0, 50, 64
2, 8249, Note_on_c, 0, 50, 0
2, 8250, Note_on_c, 0, 57, 63
2, 8279, Note_on_c, 0, 57, 0
2, 8279, Note_on_c, 0, 66, 0
2, 8279, Note_on_c, 0, 71, 0
2, 8280, Note_on_c, 0, 69, 76
2, 8280, Note_on_c, 0, 64, 73
2, 8280, Note_on_c, 0, 49, 70
2, 8309, Note_on_c, 0, 49, 0
2, 8310, Note_on_c, 0, 57, 71
2, 8339, Note_on_c, 0, 57, 0
2, 8339, Note_on_c, 0, 64, 0
2, 8339, Note_on_c, 0, 69, 0
2, 8340, Note_on_c, 0, 67, 76
2, 8340, Note_on_c, 0, 61, 70
2, 8340, Note_on_c, 0, 45, 66
2, 8369, Note_on_c, 0, 45, 0
2, 8370, Note_on_c, 0, 57, 72
2, 8399, Note_on_c, 0, 57, 0
2, 8399, Note_on_c, 0, 61, 0
2, 8399, Note_on_c, 0, 67, 0
2, 8400, Note_on_c, 0, 66, 78
2, 8400, Note_on_c, 0, 50, 71
2, 8430, Note_on_c, 0, 62, 74
2, 8459, Note_on_c, 0, 62, 0
2, 8459, Note_on_c, 0, 66, 0
2, 8460, Note_on_c, 0, 71, 80
2, 8460, Note_on_c, 0, 66, 68
2, 8489, Note_on_c, 0, 66, 0
2, 8490, Note_on_c, 0, 62, 75
2, 8519, Note_on_c, 0, 62, 0
2, 8519, Note_on_c, 0, 71, 0
2, 8519, Note_on_c, 0, 50, 0
2, 8520, Note_on_c, 0, 69, 77
2, 8520, Note_on_c, 0, 61, 68
2, 8520, Note_on_c, 0, 52, 68
2, 8549, Note_on_c, 0, 61, 0
2, 8550, Note_on_c, 0, 64, 69
2, 8579, Note_on_c, 0, 64, 0
2, 8579, Note_on_c, 0, 69, 0
2, 8580, Note_on_c, 0, 68, 80
2, 8580, Note_on_c, 0, 59, 74
2, 8609, Note_on_c, 0, 59, 0
2, 8610, Note_on_c, 0, 62, 72
2, 8639, Note_on_c, 0, 62, 0
2, 8639, Note_on_c, 0, 68, 0
2, 8639, Note_on_c, 0, 52, 0
2, 8640, Note_on_c, 0, 69, 75
2, 8640, Note_on_c, 0, 57, 64
2, 8669, Note_on_c, 0, 57, 0
2, 8670, Note_on_c, 0, 69, 65
2, 8699, Note_on_c, 0, 69, 0
2, 8699, Note_on_c, 0, 69, 0
2, 8700, Control_c, 0, 11, 127
2, 8700, Note_on_c, 0, 64, 67
2, 8700, Note_on_c, 0, 67, 72
2, 8705, Control_c, 0, 11, 126
2, 8710, Control_c, 0, 11, 125
2, 8715, Control_c, 0, 11, 123
2, 8725, Control_c, 0, 11, 121
2, 8729, Note_on_c, 0, 67, 0
2, 8729, Note_on_c, 0, 64, 0
2, 8730, Control_c, 0, 11, 120
2, 8730, Note_on_c, 0, 69, 68
2, 8735, Control_c, 0, 11, 119
2, 8740, Control_c, 0, 11, 118
2, 8750, Control_c, 0, 11, 116
2, 8755, Control_c, 0, 11, 115
2, 8759, Note_on_c, 0, 69, 0
2, 8760, Control_c, 0, 11, 114
2, 8760, Note_on_c, 0, 62, 70
2, 8760, Note_on_c, 0, 66, 65
2, 8765, Control_c, 0, 11, 113
2, 8770, Control_c, 0, 11, 112
2, 8775, Control_c, 0, 11, 110
2, 8780, Control_c, 0, 11, 108
2, 8785, Control_c, 0, 11, 106
2, 8789, Note_on_c, 0, 66, 0
2, 8789, Note_on_c, 0, 62, 0
2, 8790, Note_on_c, 0, 69, 69
2, 8795, Control_c, 0, 11, 104
2, 8800, Control_c, 0, 11, 102
2, 8810, Control_c, 0, 11, 99
2, 8815, Control_c, 0, 11, 96
2, 8819, Note_on_c, 0, 69, 0
2, 8820, Note_on_c, 0, 61, 68
2, 8820, Note_on_c, 0, 64, 70
2, 8825, Control_c, 0, 11, 95
2, 8830, Control_c, 0, 11, 94
2, 8835, Control_c, 0, 11, 93
2, 8840, Control_c, 0, 11, 92
2, 8845, Control_c, 0, 11, 91
2, 8849, Note_on_c, 0, 64, 0
2, 8849, Note_on_c, 0, 61, 0
2, 8850, Note_on_c, 0, 69, 66
2, 8855, Control_c, 0, 11, 90
2, 8860, Control_c, 0, 11, 89
2, 8865, Control_c, 0, 11, 87
2, 8870, Control_c, 0, 11, 86
2, 8875, Control_c, 0, 11, 87
2, 8879, Note_on_c, 0, 69, 0
2, 8880, Note_on_c, 0, 78, 76
2, 8880, Note_on_c, 0, 62, 67
2, 8880, Note_on_c, 0, 66, 66
2, 8890, Control_c, 0, 11, 90
2, 8895, Control_c, 0, 11, 92
2, 8900, Control_c, 0, 11, 94
2, 8909, Note_on_c, 0, 66, 0
2, 8909, Note_on_c, 0, 62, 0
2, 8910, Control_c, 0, 11, 96
2, 8910, Note_on_c, 0, 69, 71
2, 8915, Control_c, 0, 11, 98
2, 8920, Control_c, 0, 11, 100
2, 8925, Control_c, 0, 11, 102
2, 8930, Control_c, 0, 11, 103
2, 8935, Control_c, 0, 11, 105
2, 8939, Note_on_c, 0, 69, 0
2, 8939, Note_on_c, 0, 78, 0
2, 8940, Note_on_c, 0, 83, 74
2, 8940, Control_c, 0, 11, 107
2, 8940, Note_on_c, 0, 62, 67
2, 8940, Note_on_c, 0, 66, 62
2, 8945, Control_c, 0, 11, 109
2, 8950, Control_c, 0, 11, 110
2, 8955, Control_c, 0, 11, 113
2, 8960, Control_c, 0, 11, 114
2, 8969, Note_on_c, 0, 66, 0
2, 8969, Note_on_c, 0, 62, 0
2, 8970, Control_c, 0, 11, 116
2, 8970, Note_on_c, 0, 69, 65
2, 8975, Control_c, 0, 11, 118
2, 8980, Control_c, 0, 11, 119
2, 8985, Control_c, 0, 11, 120
2, 8990, Control_c, 0, 11, 121
2, 8995, Control_c, 0, 11, 122
2, 8999, Note_on_c, 0, 69, 0
2, 8999, Note_on_c, 0, 83, 0
2, 9000, Note_on_c, 0, 81, 75
2, 9000, Control_c, 0, 11, 123
2, 9000, Note_on_c, 0, 61, 62
2, 9000, Note_on_c, 0, 64, 70
2, 9005, Control_c, 0, 11, 124
2, 9010, Control_c, 0, 11, 125
2, 9025, Control_c, 0, 11, 126
2, 9029, Note_on_c, 0, 64, 0
2, 9029, Note_on_c, 0, 61, 0
2, 9030, Note_on_c, 0, 69, 69
2, 9040, Control_c, 0, 11, 127
2, 9059, Note_on_c, 0, 69, 0
2, 9059, Note_on_c, 0, 81, 0
2, 9060, Note_on_c, 0, 79, 77
2, 9060, Note_on_c, 0, 73, 73
2, 9060, Control_c, 0, 11, 126
2, 9060, Note_on_c, 0, 57, 71
2, 9060, Note_on_c, 0, 64, 62
2, 9080, Control_c, 0, 11, 124
2, 9085, Control_c, 0, 11, 123
2, 9089, Note_on_c, 0, 64, 0
2, 9089, Note_on_c, 0, 57, 0
2, 9090, Control_c, 0, 11, 122
2, 9090, Note_on_c, 0, 69, 67
2, 9095, Control_c, 0, 11, 120
2, 9100, Control_c, 0, 11, 116
2, 9105, Control_c, 0, 11, 115
2, 9110, Control_c, 0, 11, 113
2, 9115, Control_c, 0, 11, 110
2, 9119, Note_on_c, 0, 69, 0
2, 9119, Note_on_c, 0, 73, 0
2, 9119, Note_on_c, 0, 79, 0
2, 9120, Note_on_c, 0, 78, 74
2, 9120, Note_on_c, 0, 74, 74
2, 9120, Control_c, 0, 11, 109
2, 9120, Note_on_c, 0, 62, 62
2, 9120, Note_on_c, 0, 66, 71
2, 9125, Control_c, 0, 11, 107
2, 9130, Control_c, 0, 11, 106
2, 9135, Control_c, 0, 11, 105
2, 9145, Control_c, 0, 11, 104
2, 9149, Note_on_c, 0, 66, 0
2, 9149, Note_on_c, 0, 62, 0
2, 9150, Control_c, 0, 11, 103
2, 9150, Note_on_c, 0, 69, 66
2, 9179, Note_on_c, 0, 69, 0
2, 9179, Note_on_c, 0, 74, 0
2, 9179, Note_on_c, 0, 78, 0
2, 9180, Note_on_c, 0, 83, 73
2, 9180, Control_c, 0, 11, 104
2, 9180, Note_on_c, 0, 62, 71
2, 9180, Note_on_c, 0, 66, 68
2, 9185, Control_c, 0, 11, 105
2, 9190, Control_c, 0, 11, 106
2, 9195, Control_c, 0, 11, 107
2, 9200, Control_c, 0, 11, 109
2, 9209, Note_on_c, 0, 66, 0
2, 9209, Note_on_c, 0, 62, 0
2, 9210, Control_c, 0, 11, 111
2, 9210, Note_on_c, 0, 69, 62
2, 9215, Control_c, 0, 11, 113
2, 9220, Control_c, 0, 11, 115
2, 9225, Control_c, 0, 11, 116
2, 9230, Control_c, 0, 11, 118
2, 9235, Control_c, 0, 11, 120
2, 9239, Note_on_c, 0, 69, 0
2, 9239, Note_on_c, 0, 83, 0
2, 9240, Note_on_c, 0, 81, 76
2, 9240, Control_c, 0, 11, 122
2, 9240, Note_on_c, 0, 61, 72
2, 9240, Note_on_c, 0, 64, 63
2, 9245, Control_c, 0, 11, 124
2, 9250, Control_c, 0, 11, 126
2, 9255, Control_c, 0, 11, 127
2, 9269, Note_on_c, 0, 64, 0
2, 9269, Note_on_c, 0, 61, 0
2, 9270, Note_on_c, 0, 69, 69
2, 9275, Control_c, 0, 11, 126
2, 9280, Control_c, 0, 11, 125
2, 9285, Control_c, 0, 11, 124
2, 9290, Control_c, 0, 11, 122
2, 9295, Control_c, 0, 11, 121
2, 9299, Note_on_c, 0, 69, 0
2, 9299, Note_on_c, 0, 81, 0
2, 9300, Note_on_c, 0, 79, 80
2, 9300, Note_on_c, 0, 73, 74
2, 9300, Control_c, 0, 11, 120
2, 9300, Note_on_c, 0, 57, 70
2, 9300, Note_on_c, 0, 64, 64
2, 9310, Control_c, 0, 11, 119
2, 9315, Control_c, 0, 11, 117
2, 9320, Control_c, 0, 11, 115
2, 9325, Control_c, 0, 11, 113
2, 9329, Note_on_c, 0, 64, 0
2, 9329, Note_on_c, 0, 57, 0
2, 9330, Control_c, 0, 11, 112
2, 9330, Note_on_c, 0, 69, 68
2, 9335, Control_c, 0, 11, 110
2, 9340, Control_c, 0, 11, 108
2, 9345, Control_c, 0, 11, 105
2, 9350, Control_c, 0, 11, 104
2, 9355, Control_c, 0, 11, 100
2, 9359, Note_on_c, 0, 69, 0
2, 9359, Note_on_c, 0, 73, 0
2, 9359, Note_on_c, 0, 79, 0
2, 9360, Note_on_c, 0, 78, 63
2, 9360, Note_on_c, 0, 74, 58
2, 9360, Control_c, 0, 11, 126
2, 9360, Note_on_c, 0, 62, 54
2, 9360, Note_on_c, 0, 66, 50
2, 9389, Note_on_c, 0, 66, 0
2, 9389, Note_on_c, 0, 62, 0
2, 9390, Note_on_c, 0, 74, 51
2, 9419, Note_on_c, 0, 74, 0
2, 9419, Note_on_c, 0, 74, 0
2, 9419, Note_on_c, 0, 78, 0
2, 9420, Note_on_c, 0, 86, 60
2, 9420, Note_on_c, 0, 67, 54
2, 9420, Note_on_c, 0, 64, 53
2, 9449, Note_on_c, 0, 64, 0
2, 9449, Note_on_c, 0, 67, 0
2, 9450, Note_on_c, 0, 74, 53
2, 9479, Note_on_c, 0, 74, 0
2, 9480, Note_on_c, 0, 69, 54
2, 9480, Note_on_c, 0, 66, 51
2, 9509, Note_on_c, 0, 66, 0
2, 9509, Note_on_c, 0, 69, 0
2, 9510, Note_on_c, 0, 74, 52
2, 9539, Note_on_c, 0, 74, 0
2, 9539, Note_on_c, 0, 86, 0
2, 9540, Note_on_c, 0, 86, 64
2, 9540, Note_on_c, 0, 71, 56
2, 9540, Note_on_c, 0, 67, 55
2, 9569, Note_on_c, 0, 67, 0
2, 9569, Note_on_c, 0, 71, 0
2, 9570, Note_on_c, 0, 74, 57
2, 9599, Note_on_c, 0, 74, 0
2, 9600, Note_on_c, 0, 69, 60
2, 9600, Note_on_c, 0, 72, 62
2, 9629, Note_on_c, 0, 72, 0
2, 9629, Note_on_c, 0, 69, 0
2, 9630, Note_on_c, 0, 74, 57
2, 9659, Note_on_c, 0, 74, 0
2, 9659, Note_on_c, 0, 86, 0
2, 9660, Note_on_c, 0, 86, 62
2, 9660, Note_on_c, 0, 68, 60
2, 9660, Note_on_c, 0, 71, 57
2, 9689, Note_on_c, 0, 71, 0
2, 9689, Note_on_c, 0, 68, 0
2, 9689, Note_on_c, 0, 86, 0
2, 9690, Note_on_c, 0, 74, 65
2, 9719, Note_on_c, 0, 74, 0
2, 9720, Note_on_c, 0, 86, 67
2, 9720, Note_on_c, 0, 69, 66
2, 9720, Note_on_c, 0, 72, 62
2, 9749, Note_on_c, 0, 72, 0
2, 9749, Note_on_c, 0, 69, 0
2, 9749, Note_on_c, 0, 86, 0
2, 9750, Note_on_c, 0, 74, 62
2, 9779, Note_on_c, 0, 74, 0
2, 9780, Note_on_c, 0, 86, 68
2, 9780, Note_on_c, 0, 66, 64
2, 9780, Note_on_c, 0, 70, 67
2, 9809, Note_on_c, 0, 70, 0
2, 9809, Note_on_c, 0, 66, 0
2, 9809, Note_on_c, 0, 86, 0
2, 9810, Note_on_c, 0, 74, 66
2, 9839, Note_on_c, 0, 74, 0
2, 9840, Note_on_c, 0, 83, 57
2, 9840, Note_on_c, 0, 71, 56
2, 9840, Note_on_c, 0, 67, 48
2, 9854, Note_on_c, 0, 83, 0
2, 9855, Note_on_c, 0, 85, 54
2, 9869, Note_on_c, 0, 85, 0
2, 9870, Note_on_c, 0, 83, 53
2, 9884, Note_on_c, 0, 83, 0
2, 9885, Note_on_c, 0, 82, 52
2, 9899, Note_on_c, 0, 82, 0
2, 9899, Note_on_c, 0, 67, 0
2, 9899, Note_on_c, 0, 71, 0
2, 9900, Note_on_c, 0, 83, 52
2, 9914, Note_on_c, 0, 83, 0
2, 9915, Note_on_c, 0, 85, 53
2, 9929, Note_on_c, 0, 85, 0
2, 9930, Note_on_c, 0, 86, 57
2, 9944, Note_on_c, 0, 86, 0
2, 9945, Note_on_c, 0, 85, 59
2, 9959, Note_on_c, 0, 85, 0
2, 9960, Note_on_c, 0, 83, 59
2, 9960, Note_on_c, 0, 74, 50
2, 9960, Note_on_c, 0, 71, 50
2, 9960, Note_on_c, 0, 67, 49
2, 9974, Note_on_c, 0, 83, 0
2, 9975, Note_on_c, 0, 85, 52
2, 9989, Note_on_c, 0, 85, 0
2, 9990, Note_on_c, 0, 83, 58
2, 10004, Note_on_c, 0, 83, 0
2, 10005, Note_on_c, 0, 82, 52
2, 10019, Note_on_c, 0, 82, 0
2, 10019, Note_on_c, 0, 67, 0
2, 10019, Note_on_c, 0, 71, 0
2, 10019, Note_on_c, 0, 74, 0
2, 10020, Note_on_c, 0, 83, 57
2, 10034, Note_on_c, 0, 83, 0
2, 10035, Note_on_c, 0, 85, 52
2, 10049, Note_on_c, 0, 85, 0
2, 10050, Note_on_c, 0, 86, 56
2, 10064, Note_on_c, 0, 86, 0
2, 10065, Note_on_c, 0, 85, 57
2, 10079, Note_on_c, 0, 85, 0
2, 10080, Note_on_c, 0, 86, 54
2, 10080, Note_on_c, 0, 68, 48
2, 10080, Note_on_c, 0, 71, 55
2, 10080, Note_on_c, 0, 74, 50
2, 10080, Note_on_c, 0, 77, 47
2, 10094, Note_on_c, 0, 86, 0
2, 10095, Note_on_c, 0, 88, 54
2, 10109, Note_on_c, 0, 88, 0
2, 10110, Note_on_c, 0, 86, 60
2, 10124, Note_on_c, 0, 86, 0
2, 10125, Note_on_c, 0, 85, 62
2, 10139, Note_on_c, 0, 85, 0
2, 10139, Note_on_c, 0, 77, 0
2, 10139, Note_on_c, 0, 68, 0
2, 10139, Note_on_c, 0, 71, 0
2, 10139, Note_on_c, 0, 74, 0
2, 10140, Note_on_c, 0, 86, 62
2, 10154, Note_on_c, 0, 86, 0
2, 10155, Note_on_c, 0, 88, 67
2, 10169, Note_on_c, 0, 88, 0
2, 10170, Note_on_c, 0, 89, 68
2, 10184, Note_on_c, 0, 89, 0
2, 10185, Note_on_c, 0, 88, 69
2, 10199, Note_on_c, 0, 88, 0
2, 10200, Note_on_c, 0, 86, 69
2, 10200, Note_on_c, 0, 71, 62
2, 10200, Note_on_c, 0, 74, 66
2, 10200, Note_on_c, 0, 77, 64
2, 10200, Note_on_c, 0, 68, 72
2, 10214, Note_on_c, 0, 86, 0
2, 10215, Note_on_c, 0, 88, 71
2, 10229, Note_on_c, 0, 88, 0
2, 10230, Note_on_c, 0, 86, 74
2, 10244, Note_on_c, 0, 86, 0
2, 10245, Note_on_c, 0, 85, 78
2, 10259, Note_on_c, 0, 85, 0
2, 10259, Note_on_c, 0, 68, 0
2, 10259, Note_on_c, 0, 71, 0
2, 10259, Note_on_c, 0, 74, 0
2, 10259, Note_on_c, 0, 77, 0
2, 10260, Note_on_c, 0, 86, 77
2, 10274, Note_on_c, 0, 86, 0
2, 10275, Note_on_c, 0, 88, 81
2, 10289, Note_on_c, 0, 88, 0
2, 10290, Note_on_c, 0, 89, 85
2, 10304, Note_on_c, 0, 89, 0
2, 10305, Note_on_c, 0, 88, 88
2, 10319, Note_on_c, 0, 88, 0
2, 10320, Note_on_c, 0, 86, 98
2, 10320, Note_on_c, 0, 78, 88
2, 10320, Note_on_c, 0, 74, 85
2, 10320, Note_on_c, 0, 69, 92
2, 10334, Note_on_c, 0, 86, 0
2, 10335, Note_on_c, 0, 88, 91
2, 10349, Note_on_c, 0, 88, 0
2, 10350, Note_on_c, 0, 86, 92
2, 10364, Note_on_c, 0, 86, 0
2, 10365, Note_on_c, 0, 85, 96
2, 10379, Note_on_c, 0, 85, 0
2, 10379, Note_on_c, 0, 69, 0
2, 10379, Note_on_c, 0, 74, 0
2, 10379, Note_on_c, 0, 78, 0
2, 10380, Note_on_c, 0, 86, 96
2, 10394, Note_on_c, 0, 86, 0
2, 10395, Note_on_c, 0, 85, 97
2, 10409, Note_on_c, 0, 85, 0
2, 10410, Note_on_c, 0, 86, 96
2, 10424, Note_on_c, 0, 86, 0
2, 10425, Note_on_c, 0, 85, 98
2, 10439, Note_on_c, 0, 85, 0
2, 10440, Note_on_c, 0, 86, 91
2, 10454, Note_on_c, 0, 86, 0
2, 10455, Note_on_c, 0, 85, 97
2, 10469, Note_on_c, 0, 85, 0
2, 10470, Note_on_c, 0, 83, 95
2, 10484, Note_on_c, 0, 83, 0
2, 10485, Note_on_c, 0, 81, 97
2, 10499, Note_on_c, 0, 81, 0
2, 10500, Note_on_c, 0, 79, 91
2, 10514, Note_on_c, 0, 79, 0
2, 10515, Note_on_c, 0, 78, 94
2, 10529, Note_on_c, 0, 78, 0
2, 10530, Note_on_c, 0, 76, 92
2, 10544, Note_on_c, 0, 76, 0
2, 10545, Note_on_c, 0, 74, 97
2, 10559, Note_on_c, 0, 74, 0
2, 10560, Note_on_c, 0, 74, 100
2, 10560, Note_on_c, 0, 78, 97
2, 10560, Note_on_c, 0, 69, 94
2, 10560, Note_on_c, 0, 57, 97
2, 10679, Note_on_c, 0, 69, 0
2, 10679, Note_on_c, 0, 74, 0
2, 10679, Note_on_c, 0, 78, 0
2, 10680, Note_on_c, 0, 73, 90
2, 10680, Note_on_c, 0, 76, 88
2, 10680, Note_on_c, 0, 67, 89
2, 10799, Note_on_c, 0, 67, 0
2, 10799, Note_on_c, 0, 57, 0
2, 10799, Note_on_c, 0, 73, 0
2, 10799, Note_on_c, 0, 76, 0
2, 10800, Note_on_c, 0, 74, 92
2, 10800, Note_on_c, 0, 62, 94
2, 10800, Note_on_c, 0, 66, 86
2, 10814, Note_on_c, 0, 74, 0
2, 10815, Note_on_c, 0, 76, 97
2, 10829, Note_on_c, 0, 76, 0
2, 10830, Note_on_c, 0, 78, 96
2, 10844, Note_on_c, 0, 78, 0
2, 10845, Note_on_c, 0, 79, 91
2, 10859, Note_on_c, 0, 79, 0
2, 10859, Note_on_c, 0, 66, 0
2, 10859, Note_on_c, 0, 62, 0
2, 10860, Note_on_c, 0, 81, 93
2, 10874, Note_on_c, 0, 81, 0
2, 10875, Note_on_c, 0, 79, 97
2, 10889, Note_on_c, 0, 79, 0
2, 10890, Note_on_c, 0, 78, 92
2, 10904, Note_on_c, 0, 78, 0
2, 10905, Note_on_c, 0, 76, 98
2, 10919, Note_on_c, 0, 76, 0
2, 10920, Note_on_c, 0, 74, 93
2, 10934, Note_on_c, 0, 74, 0
2, 10935, Note_on_c, 0, 73, 98
2, 10949, Note_on_c, 0, 73, 0
2, 10950, Note_on_c, 0, 71, 97
2, 10964, Note_on_c, 0, 71, 0
2, 10965, Note_on_c, 0, 69, 98
2, 10979, Note_on_c, 0, 69, 0
2, 10980, Note_on_c, 0, 67, 94
2, 10994, Note_on_c, 0, 67, 0
2, 10995, Note_on_c, 0, 66, 94
2, 11009, Note_on_c, 0, 66, 0
2, 11010, Note_on_c, 0, 64, 94
2, 11024, Note_on_c, 0, 64, 0
2, 11025, Note_on_c, 0, 62, 97
2, 11039, Note_on_c, 0, 62, 0
2, 11040, Note_on_c, 0, 62, 103
2, 11040, Note_on_c, 0, 66, 101
2, 11040, Note_on_c, 0, 57, 91
2, 11040, Note_on_c, 0, 45, 92
2, 11159, Note_on_c, 0, 57, 0
2, 11159, Note_on_c, 0, 62, 0
2, 11159, Note_on_c, 0, 66, 0
2, 11160, Note_on_c, 0, 61, 93
2, 11160, Note_on_c, 0, 64, 90
2, 11160, Note_on_c, 0, 55, 89
2, 11279, Note_on_c, 0, 55, 0
2, 11279, Note_on_c, 0, 45, 0
2, 11279, Note_on_c, 0, 61, 0
2, 11279, Note_on_c, 0, 64, 0
2, 11280, Note_on_c, 0, 62, 58
2, 11280, Note_on_c, 0, 50, 53
2, 11280, Note_on_c, 0, 54, 56
2, 11309, Note_on_c, 0, 62, 0
2, 11310, Note_on_c, 0, 57, 57
2, 11339, Note_on_c, 0, 57, 0
2, 11339, Note_on_c, 0, 54, 0
2, 11339, Note_on_c, 0, 50, 0
2, 11340, Note_on_c, 0, 66, 53
2, 11340, Note_on_c, 0, 62, 55
2, 11369, Note_on_c, 0, 62, 0
2, 11369, Note_on_c, 0, 66, 0
2, 11370, Note_on_c, 0, 57, 57
2, 11399, Note_on_c, 0, 57, 0
2, 11400, Note_on_c, 0, 64, 52
2, 11400, Note_on_c, 0, 67, 52
2, 11429, Note_on_c, 0, 67, 0
2, 11429, Note_on_c, 0, 64, 0
2, 11430, Note_on_c, 0, 57, 59
2, 11459, Note_on_c, 0, 57, 0
2, 11460, Note_on_c, 0, 65, 57
2, 11460, Note_on_c, 0, 68, 54
2, 11489, Note_on_c, 0, 68, 0
2, 11489, Note_on_c, 0, 65, 0
2, 11490, Note_on_c, 0, 57, 56
2, 11519, Note_on_c, 0, 57, 0
2, 11520, Note_on_c, 0, 66, 57
2, 11520, Note_on_c, 0, 69, 57
2, 11550, Note_on_c, 0, 57, 55
2, 11580, Note_on_c, 0, 38, 66
2, 11589, Note_on_c, 0, 57, 0
2, 11610, Note_on_c, 0, 57, 53
2, 11639, Note_on_c, 0, 38, 0
2, 11640, Note_on_c, 0, 42, 59
2, 11649, Note_on_c, 0, 57, 0
2, 11670, Note_on_c, 0, 57, 55
2, 11699, Note_on_c, 0, 42, 0
2, 11700, Note_on_c, 0, 45, 57
2, 11709, Note_on_c, 0, 57, 0
2, 11730, Note_on_c, 0, 57, 59
2, 11759, Note_on_c, 0, 45, 0
2, 11760, Note_on_c, 0, 50, 61
2, 11769, Note_on_c, 0, 57, 0
2, 11790, Note_on_c, 0, 57, 53
2, 11819, Note_on_c, 0, 57, 0
2, 11819, Note_on_c, 0, 66, 0
2, 11819, Note_on_c, 0, 69, 0
2, 11820, Note_on_c, 0, 66, 55
2, 11820, Note_on_c, 0, 62, 59
2, 11849, Note_on_c, 0, 62, 0
2, 11850, Note_on_c, 0, 57, 55
2, 11879, Note_on_c, 0, 57, 0
2, 11879, Note_on_c, 0, 66, 0
2, 11880, Note_on_c, 0, 71, 52
2, 11880, Note_on_c, 0, 67, 54
2, 11909, Note_on_c, 0, 67, 0
2, 11910, Note_on_c, 0, 57, 56
2, 11939, Note_on_c, 0, 57, 0
2, 11939, Note_on_c, 0, 71, 0
2, 11940, Note_on_c, 0, 69, 56
2, 11940, Note_on_c, 0, 66, 52
2, 11969, Note_on_c, 0, 66, 0
2, 11970, Note_on_c, 0, 57, 55
2, 11999, Note_on_c, 0, 57, 0
2, 11999, Note_on_c, 0, 69, 0
2, 12000, Note_on_c, 0, 64, 57
2, 12000, Note_on_c, 0, 67, 52
2, 12009, Note_on_c, 0, 50, 0
2, 12030, Note_on_c, 0, 57, 54
2, 12060, Note_on_c, 0, 50, 62
2, 12069, Note_on_c, 0, 57, 0
2, 12090, Note_on_c, 0, 57, 59
2, 12119, Note_on_c, 0, 50, 0
2, 12120, Note_on_c, 0, 49, 62
2, 12129, Note_on_c, 0, 57, 0
2, 12150, Note_on_c, 0, 57, 55
2, 12179, Note_on_c, 0, 49, 0
2, 12180, Note_on_c, 0, 47, 63
2, 12189, Note_on_c, 0, 57, 0
2, 12210, Note_on_c, 0, 57, 59
2, 12239, Note_on_c, 0, 47, 0
2, 12240, Note_on_c, 0, 49, 61
2, 12249, Note_on_c, 0, 57, 0
2, 12270, Note_on_c, 0, 57, 57
2, 12299, Note_on_c, 0, 57, 0
2, 12299, Note_on_c, 0, 64, 0
2, 12299, Note_on_c, 0, 67, 0
2, 12300, Note_on_c, 0, 67, 55
2, 12300, Note_on_c, 0, 64, 53
2, 12329, Note_on_c, 0, 64, 0
2, 12330, Note_on_c, 0, 57, 57
2, 12359, Note_on_c, 0, 57, 0
2, 12359, Note_on_c, 0, 67, 0
2, 12359, Note_on_c, 0, 49, 0
2, 12360, Note_on_c, 0, 69, 53
2, 12360, Note_on_c, 0, 66, 54
2, 12360, Note_on_c, 0, 45, 61
2, 12389, Note_on_c, 0, 66, 0
2, 12390, Note_on_c, 0, 57, 56
2, 12419, Note_on_c, 0, 57, 0
2, 12419, Note_on_c, 0, 69, 0
2, 12420, Note_on_c, 0, 67, 57
2, 12420, Note_on_c, 0, 64, 56
2, 12449, Note_on_c, 0, 64, 0
2, 12450, Note_on_c, 0, 57, 55
2, 12479, Note_on_c, 0, 57, 0
2, 12479, Note_on_c, 0, 67, 0
2, 12480, Note_on_c, 0, 62, 56
2, 12480, Note_on_c, 0, 66, 54
2, 12510, Note_on_c, 0, 57, 55
2, 12539, Note_on_c, 0, 57, 0
2, 12539, Note_on_c, 0, 45, 0
2, 12540, Note_on_c, 0, 46, 65
2, 12570, Note_on_c, 0, 58, 56
2, 12599, Note_on_c, 0, 58, 0
2, 12599, Note_on_c, 0, 46, 0
2, 12600, Note_on_c, 0, 47, 63
2, 12630, Note_on_c, 0, 59, 53
2, 12659, Note_on_c, 0, 59, 0
2, 12659, Note_on_c, 0, 47, 0
2, 12660, Note_on_c, 0, 42, 58
2, 12690, Note_on_c, 0, 54, 58
2, 12719, Note_on_c, 0, 54, 0
2, 12719, Note_on_c, 0, 42, 0
2, 12720, Note_on_c, 0, 43, 63
2, 12750, Note_on_c, 0, 55, 59
2, 12779, Note_on_c, 0, 55, 0
2, 12779, Note_on_c, 0, 62, 0
2, 12779, Note_on_c, 0, 66, 0
2, 12779, Note_on_c, 0, 43, 0
2, 12780, Note_on_c, 0, 64, 59
2, 12780, Note_on_c, 0, 62, 59
2, 12780, Note_on_c, 0, 44, 57
2, 12809, Note_on_c, 0, 62, 0
2, 12810, Note_on_c, 0, 56, 58
2, 12839, Note_on_c, 0, 56, 0
2, 12839, Note_on_c, 0, 44, 0
2, 12839, Note_on_c, 0, 64, 0
2, 12840, Note_on_c, 0, 64, 57
2, 12840, Note_on_c, 0, 62, 56
2, 12840, Note_on_c, 0, 45, 56
2, 12869, Note_on_c, 0, 62, 0
2, 12870, Note_on_c, 0, 57, 54
2, 12899, Note_on_c, 0, 57, 0
2, 12899, Note_on_c, 0, 64, 0
2, 12900, Note_on_c, 0, 67, 56
2, 12900, Note_on_c, 0, 61, 58
2, 12929, Note_on_c, 0, 61, 0
2, 12930, Note_on_c, 0, 57, 55
2, 12959, Note_on_c, 0, 57, 0
2, 12959, Note_on_c, 0, 67, 0
2, 12960, Note_on_c, 0, 62, 53
2, 12960, Note_on_c, 0, 66, 53
2, 12990, Note_on_c, 0, 57, 58
2, 13019, Note_on_c, 0, 57, 0
2, 13019, Note_on_c, 0, 45, 0
2, 13020, Note_on_c, 0, 46, 57
2, 13050, Note_on_c, 0, 58, 52
2, 13079, Note_on_c, 0, 58, 0
2, 13079, Note_on_c, 0, 46, 0
2, 13080, Note_on_c, 0, 47, 59
2, 13110, Note_on_c, 0, 59, 57
2, 13139, Note_on_c, 0, 59, 0
2, 13139, Note_on_c, 0, 47, 0
2, 13140, Note_on_c, 0, 42, 63
2, 13170, Note_on_c, 0, 54, 58
2, 13199, Note_on_c, 0, 54, 0
2, 13199, Note_on_c, 0, 42, 0
2, 13200, Note_on_c, 0, 43, 56
2, 13230, Note_on_c, 0, 55, 55
2, 13259, Note_on_c, 0, 55, 0
2, 13259, Note_on_c, 0, 62, 0
2, 13259, Note_on_c, 0, 66, 0
2, 13259, Note_on_c, 0, 43, 0
2, 13260, Note_on_c, 0, 64, 59
2, 13260, Note_on_c, 0, 62, 52
2, 13260, Note_on_c, 0, 44, 65
2, 13289, Note_on_c, 0, 62, 0
2, 13290, Note_on_c, 0, 56, 55
2, 13319, Note_on_c, 0, 56, 0
2, 13319, Note_on_c, 0, 44, 0
2, 13319, Note_on_c, 0, 64, 0
2, 13320, Note_on_c, 0, 64, 56
2, 13320, Note_on_c, 0, 62, 59
2, 13320, Note_on_c, 0, 45, 66
2, 13349, Note_on_c, 0, 62, 0
2, 13350, Note_on_c, 0, 57, 58
2, 13379, Note_on_c, 0, 57, 0
2, 13379, Note_on_c, 0, 64, 0
2, 13380, Note_on_c, 0, 67, 52
2, 13380, Note_on_c, 0, 61, 55
2, 13409, Note_on_c, 0, 61, 0
2, 13410, Note_on_c, 0, 57, 58
2, 13439, Note_on_c, 0, 57, 0
2, 13439, Note_on_c, 0, 67, 0
2, 13440, Note_on_c, 0, 62, 59
2, 13440, Note_on_c, 0, 66, 55
2, 13470, Note_on_c, 0, 57, 52
2, 13499, Note_on_c, 0, 57, 0
2, 13499, Note_on_c, 0, 45, 0
2, 13500, Note_on_c, 0, 46, 58
2, 13530, Note_on_c, 0, 58, 55
2, 13559, Note_on_c, 0, 58, 0
2, 13559, Note_on_c, 0, 46, 0
2, 13560, Note_on_c, 0, 47, 62
2, 13590, Note_on_c, 0, 59, 60
2, 13619, Note_on_c, 0, 59, 0
2, 13619, Note_on_c, 0, 47, 0
2, 13620, Note_on_c, 0, 48, 62
2, 13650, Note_on_c, 0, 60, 59
2, 13679, Note_on_c, 0, 60, 0
2, 13679, Note_on_c, 0, 48, 0
2, 13680, Note_on_c, 0, 47, 59
2, 13710, Note_on_c, 0, 59, 55
2, 13739, Note_on_c, 0, 59, 0
2, 13739, Note_on_c, 0, 62, 0
2, 13739, Note_on_c, 0, 66, 0
2, 13739, Note_on_c, 0, 47, 0
2, 13740, Note_on_c, 0, 67, 63
2, 13740, Note_on_c, 0, 64, 60
2, 13740, Note_on_c, 0, 43, 70
2, 13769, Note_on_c, 0, 64, 0
2, 13770, Note_on_c, 0, 59, 59
2, 13799, Note_on_c, 0, 59, 0
2, 13799, Note_on_c, 0, 43, 0
2, 13799, Note_on_c, 0, 67, 0
2, 13800, Note_on_c, 0, 66, 62
2, 13800, Note_on_c, 0, 62, 62
2, 13800, Note_on_c, 0, 45, 62
2, 13829, Note_on_c, 0, 62, 0
2, 13830, Note_on_c, 0, 57, 59
2, 13859, Note_on_c, 0, 57, 0
2, 13859, Note_on_c, 0, 45, 0
2, 13859, Note_on_c, 0, 66, 0
2, 13860, Note_on_c, 0, 64, 63
2, 13860, Note_on_c, 0, 61, 63
2, 13860, Note_on_c, 0, 33, 65
2, 13889, Note_on_c, 0, 61, 0
2, 13890, Note_on_c, 0, 55, 61
2, 13919, Note_on_c, 0, 55, 0
2, 13919, Note_on_c, 0, 33, 0
2, 13919, Note_on_c, 0, 64, 0
2, 13920, Note_on_c, 0, 62, 59
2, 13920, Note_on_c, 0, 54, 63
2, 13920, Note_on_c, 0, 38, 60
2, 13949, Note_on_c, 0, 54, 0
2, 13950, Note_on_c, 0, 57, 64
2, 13979, Note_on_c, 0, 57, 0
2, 13980, Note_on_c, 0, 54, 61
2, 14009, Note_on_c, 0, 54, 0
2, 14010, Note_on_c, 0, 57, 64
2, 14039, Note_on_c, 0, 57, 0
2, 14040, Note_on_c, 0, 54, 63
2, 14069, Note_on_c, 0, 54, 0
2, 14070, Note_on_c, 0, 57, 65
2, 14099, Note_on_c, 0, 57, 0
2, 14099, Note_on_c, 0, 62, 0
2, 14100, Note_on_c, 0, 64, 66
2, 14100, Note_on_c, 0, 55, 68
2, 14100, Note_on_c, 0, 50, 64
2, 14129, Note_on_c, 0, 55, 0
2, 14130, Note_on_c, 0, 61, 64
2, 14159, Note_on_c, 0, 61, 0
2, 14159, Note_on_c, 0, 50, 0
2, 14159, Note_on_c, 0, 64, 0
2, 14160, Note_on_c, 0, 66, 73
2, 14160, Note_on_c, 0, 57, 68
2, 14160, Note_on_c, 0, 50, 61
2, 14189, Note_on_c, 0, 57, 0
2, 14190, Note_on_c, 0, 62, 69
2, 14219, Note_on_c, 0, 62, 0
2, 14220, Note_on_c, 0, 57, 70
2, 14249, Note_on_c, 0, 57, 0
2, 14250, Note_on_c, 0, 62, 65
2, 14279, Note_on_c, 0, 62, 0
2, 14280, Note_on_c, 0, 57, 65
2, 14309, Note_on_c, 0, 57, 0
2, 14310, Note_on_c, 0, 62, 68
2, 14339, Note_on_c, 0, 62, 0
2, 14339, Note_on_c, 0, 50, 0
2, 14339, Note_on_c, 0, 66, 0
2, 14340, Note_on_c, 0, 64, 74
2, 14340, Note_on_c, 0, 55, 67
2, 14340, Note_on_c, 0, 50, 67
2, 14369, Note_on_c, 0, 55, 0
2, 14370, Note_on_c, 0, 61, 69
2, 14399, Note_on_c, 0, 61, 0
2, 14399, Note_on_c, 0, 50, 0
2, 14399, Note_on_c, 0, 64, 0
2, 14399, Note_on_c, 0, 38, 0
2, 14400, Note_on_c, 0, 62, 73
2, 14400, Note_on_c, 0, 54, 64
2, 14400, Note_on_c, 0, 50, 60
2, 14429, Note_on_c, 0, 54, 0
2, 14430, Note_on_c, 0, 57, 61
2, 14459, Note_on_c, 0, 57, 0
2, 14460, Note_on_c, 0, 54, 60
2, 14489, Note_on_c, 0, 54, 0
2, 14490, Note_on_c, 0, 57, 66
2, 14519, Note_on_c, 0, 57, 0
2, 14520, Note_on_c, 0, 54, 62
2, 14549, Note_on_c, 0, 54, 0
2, 14550, Note_on_c, 0, 57, 63
2, 14579, Note_on_c, 0, 57, 0
2, 14579, Note_on_c, 0, 50, 0
2, 14579, Note_on_c, 0, 62, 0
2, 14580, Note_on_c, 0, 64, 83
2, 14580, Note_on_c, 0, 73, 77
2, 14580, Note_on_c, 0, 55, 62
2, 14580, Note_on_c, 0, 50, 72
2, 14609, Note_on_c, 0, 55, 0
2, 14610, Note_on_c, 0, 57, 62
2, 14639, Note_on_c, 0, 57, 0
2, 14639, Note_on_c, 0, 64, 0
2, 14639, Note_on_c, 0, 73, 0
2, 14640, Note_on_c, 0, 62, 84
2, 14640, Note_on_c, 0, 74, 79
2, 14640, Note_on_c, 0, 54, 63
2, 14669, Note_on_c, 0, 54, 0
2, 14670, Note_on_c, 0, 57, 60
2, 14699, Note_on_c, 0, 57, 0
2, 14699, Note_on_c, 0, 74, 0
2, 14699, Note_on_c, 0, 62, 0
2, 14699, Note_on_c, 0, 50, 0
2, 14700, Note_on_c, 0, 64, 85
2, 14700, Note_on_c, 0, 73, 82
2, 14700, Note_on_c, 0, 55, 62
2, 14700, Note_on_c, 0, 50, 80
2, 14729, Note_on_c, 0, 55, 0
2, 14730, Note_on_c, 0, 57, 63
2, 14759, Note_on_c, 0, 57, 0
2, 14759, Note_on_c, 0, 64, 0
2, 14759, Note_on_c, 0, 73, 0
2, 14760, Note_on_c, 0, 62, 90
2, 14760, Note_on_c, 0, 74, 88
2, 14760, Note_on_c, 0, 54, 70
2, 14789, Note_on_c, 0, 54, 0
2, 14790, Note_on_c, 0, 57, 66
2, 14819, Note_on_c, 0, 57, 0
2, 14819, Note_on_c, 0, 74, 0
2, 14819, Note_on_c, 0, 62, 0
2, 14819, Note_on_c, 0, 50, 0
2, 14820, Note_on_c, 0, 64, 91
2, 14820, Note_on_c, 0, 73, 74
2, 14820, Note_on_c, 0, 55, 72
2, 14820, Note_on_c, 0, 50, 87
2, 14827, Note_on_c, 0, 73, 0
2, 14828, Note_on_c, 0, 74, 72
2, 14835, Note_on_c, 0, 74, 0
2, 14836, Note_on_c, 0, 73, 71
2, 14843, Note_on_c, 0, 73, 0
2, 14844, Note_on_c, 0, 74, 72
2, 14849, Note_on_c, 0, 55, 0
2, 14850, Note_on_c, 0, 57, 66
2, 14851, Note_on_c, 0, 74, 0
2, 14852, Note_on_c, 0, 73, 72
2, 14860, Note_on_c, 0, 73, 0
2, 14861, Note_on_c, 0, 71, 70
2, 14869, Note_on_c, 0, 71, 0
2, 14870, Note_on_c, 0, 73, 73
2, 14879, Note_on_c, 0, 73, 0
2, 14879, Note_on_c, 0, 57, 0
2, 14879, Note_on_c, 0, 64, 0
2, 14879, Note_on_c, 0, 50, 0
2, 14880, Note_on_c, 0, 67, 97
2, 14880, Note_on_c, 0, 76, 95
2, 14880, Note_on_c, 0, 50, 91
2, 14880, Note_on_c, 0, 57, 88
2, 14880, Note_on_c, 0, 61, 91
2, 15119, Note_on_c, 0, 61, 0
2, 15119, Note_on_c, 0, 67, 0
2, 15119, Note_on_c, 0, 76, 0
2, 15120, Note_on_c, 0, 66, 93
2, 15120, Note_on_c, 0, 74, 94
2, 15120, Note_on_c, 0, 62, 87
2, 15179, Note_on_c, 0, 62, 0
2, 15179, Note_on_c, 0, 66, 0
2, 15179, Note_on_c, 0, 57, 0
2, 15179, Note_on_c, 0, 50, 0
2, 15179, Note_on_c, 0, 74, 0
2, 15270, Note_on_c, 0, 62, 53
2, 15299, Note_on_c, 0, 62, 0
2, 15300, Note_on_c, 0, 74, 56
2, 15329, Note_on_c, 0, 74, 0
2, 15330, Note_on_c, 0, 70, 57
2, 15359, Note_on_c, 0, 70, 0
2, 15360, Note_on_c, 0, 71, 58
2, 15389, Note_on_c, 0, 71, 0
2, 15390, Note_on_c, 0, 66, 55
2, 15419, Note_on_c, 0, 66, 0
2, 15420, Note_on_c, 0, 67, 58
2, 15420, Note_on_c, 0, 43, 48
2, 15450, Note_on_c, 0, 47, 50
2, 15480, Note_on_c, 0, 50, 53
2, 15509, Note_on_c, 0, 67, 0
2, 15510, Note_on_c, 0, 62, 57
2, 15539, Note_on_c, 0, 62, 0
2, 15540, Note_on_c, 0, 74, 58
2, 15569, Note_on_c, 0, 74, 0
2, 15570, Note_on_c, 0, 70, 54
2, 15599, Note_on_c, 0, 70, 0
2, 15599, Note_on_c, 0, 50, 0
2, 15599, Note_on_c, 0, 47, 0
2, 15599, Note_on_c, 0, 43, 0
2, 15600, Note_on_c, 0, 71, 54
2, 15629, Note_on_c, 0, 71, 0
2, 15630, Note_on_c, 0, 66, 54
2, 15659, Note_on_c, 0, 66, 0
2, 15660, Note_on_c, 0, 67, 54
2, 15660, Note_on_c, 0, 55, 46
2, 15690, Note_on_c, 0, 59, 50
2, 15720, Note_on_c, 0, 62, 55
2, 15749, Note_on_c, 0, 67, 0
2, 15750, Note_on_c, 0, 64, 59
2, 15779, Note_on_c, 0, 64, 0
2, 15780, Note_on_c, 0, 76, 57
2, 15809, Note_on_c, 0, 76, 0
2, 15810, Note_on_c, 0, 71, 52
2, 15839, Note_on_c, 0, 71, 0
2, 15839, Note_on_c, 0, 62, 0
2, 15839, Note_on_c, 0, 59, 0
2, 15839, Note_on_c, 0, 55, 0
2, 15840, Note_on_c, 0, 72, 57
2, 15869, Note_on_c, 0, 72, 0
2, 15870, Note_on_c, 0, 68, 57
2, 15899, Note_on_c, 0, 68, 0
2, 15900, Note_on_c, 0, 69, 58
2, 15900, Note_on_c, 0, 43, 52
2, 15930, Note_on_c, 0, 48, 55
2, 15960, Note_on_c, 0, 52, 48
2, 15989, Note_on_c, 0, 69, 0
2, 15990, Note_on_c, 0, 64, 57
2, 16019, Note_on_c, 0, 64, 0
2, 16020, Note_on_c, 0, 76, 57
2, 16049, Note_on_c, 0, 76, 0
2, 16050, Note_on_c, 0, 71, 52
2, 16079, Note_on_c, 0, 71, 0
2, 16079, Note_on_c, 0, 52, 0
2, 16079, Note_on_c, 0, 48, 0
2, 16079, Note_on_c, 0, 43, 0
2, 16080, Note_on_c, 0, 72, 58
2, 16109, Note_on_c, 0, 72, 0
2, 16110, Note_on_c, 0, 68, 57
2, 16139, Note_on_c, 0, 68, 0
2, 16140, Note_on_c, 0, 69, 55
2, 16140, Note_on_c, 0, 55, 46
2, 16170, Note_on_c, 0, 60, 50
2, 16200, Note_on_c, 0, 64, 56
2, 16229, Note_on_c, 0, 69, 0
2, 16230, Note_on_c, 0, 69, 53
2, 16259, Note_on_c, 0, 69, 0
2, 16260, Note_on_c, 0, 84, 55
2, 16274, Note_on_c, 0, 84, 0
2, 16290, Note_on_c, 0, 83, 57
2, 16304, Note_on_c, 0, 83, 0
2, 16319, Note_on_c, 0, 64, 0
2, 16319, Note_on_c, 0, 60, 0
2, 16319, Note_on_c, 0, 55, 0
2, 16320, Note_on_c, 0, 81, 54
2, 16350, Note_on_c, 0, 54, 53
2, 16379, Note_on_c, 0, 54, 0
2, 16380, Note_on_c, 0, 57, 56
2, 16409, Note_on_c, 0, 57, 0
2, 16409, Note_on_c, 0, 81, 0
2, 16410, Note_on_c, 0, 79, 57
2, 16410, Note_on_c, 0, 62, 49
2, 16439, Note_on_c, 0, 62, 0
2, 16439, Note_on_c, 0, 79, 0
2, 16440, Note_on_c, 0, 78, 54
2, 16469, Note_on_c, 0, 78, 0
2, 16470, Note_on_c, 0, 76, 59
2, 16470, Note_on_c, 0, 50, 55
2, 16499, Note_on_c, 0, 50, 0
2, 16499, Note_on_c, 0, 76, 0
2, 16500, Note_on_c, 0, 74, 54
2, 16500, Note_on_c, 0, 57, 47
2, 16529, Note_on_c, 0, 57, 0
2, 16529, Note_on_c, 0, 74, 0
2, 16530, Note_on_c, 0, 72, 54
2, 16530, Note_on_c, 0, 60, 47
2, 16555, Note_on_c, 0, 72, 0
2, 16556, Note_on_c, 0, 74, 58
2, 16559, Note_on_c, 0, 60, 0
2, 16563, Note_on_c, 0, 74, 0
2, 16563, Note_on_c, 0, 72, 54
2, 16589, Note_on_c, 0, 72, 0
2, 16590, Note_on_c, 0, 71, 56
2, 16590, Note_on_c, 0, 55, 50
2, 16619, Note_on_c, 0, 55, 0
2, 16620, Note_on_c, 0, 59, 49
2, 16649, Note_on_c, 0, 59, 0
2, 16649, Note_on_c, 0, 71, 0
2, 16650, Note_on_c, 0, 79, 55
2, 16650, Note_on_c, 0, 62, 47
2, 16679, Note_on_c, 0, 62, 0
2, 16679, Note_on_c, 0, 79, 0
2, 16680, Note_on_c, 0, 79, 53
2, 16709, Note_on_c, 0, 79, 0
2, 16710, Note_on_c, 0, 69, 55
2, 16710, Note_on_c, 0, 48, 56
2, 16739, Note_on_c, 0, 48, 0
2, 16740, Note_on_c, 0, 52, 55
2, 16769, Note_on_c, 0, 52, 0
2, 16769, Note_on_c, 0, 69, 0
2, 16770, Note_on_c, 0, 76, 56
2, 16770, Note_on_c, 0, 57, 49
2, 16799, Note_on_c, 0, 57, 0
2, 16799, Note_on_c, 0, 76, 0
2, 16800, Note_on_c, 0, 76, 59
2, 16829, Note_on_c, 0, 76, 0
2, 16830, Note_on_c, 0, 67, 54
2, 16830, Note_on_c, 0, 50, 50
2, 16859, Note_on_c, 0, 50, 0
2, 16860, Note_on_c, 0, 55, 54
2, 16889, Note_on_c, 0, 55, 0
2, 16889, Note_on_c, 0, 67, 0
2, 16890, Note_on_c, 0, 74, 55
2, 16890, Note_on_c, 0, 59, 56
2, 16919, Note_on_c, 0, 59, 0
2, 16919, Note_on_c, 0, 74, 0
2, 16920, Note_on_c, 0, 74, 57
2, 16949, Note_on_c, 0, 74, 0
2, 16950, Note_on_c, 0, 60, 55
2, 16950, Note_on_c, 0, 38, 55
2, 16979, Note_on_c, 0, 38, 0
2, 16980, Note_on_c, 0, 45, 50
2, 17009, Note_on_c, 0, 45, 0
2, 17009, Note_on_c, 0, 60, 0
2, 17010, Note_on_c, 0, 66, 53
2, 17010, Note_on_c, 0, 50, 53
2, 17039, Note_on_c, 0, 50, 0
2, 17039, Note_on_c, 0, 66, 0
2, 17040, Note_on_c, 0, 59, 59
2, 17040, Note_on_c, 0, 67, 59
2, 17040, Note_on_c, 0, 43, 53
2, 17069, Note_on_c, 0, 43, 0
2, 17070, Note_on_c, 0, 47, 52
2, 17099, Note_on_c, 0, 47, 0
2, 17100, Note_on_c, 0, 50, 49
2, 17129, Note_on_c, 0, 50, 0
2, 17130, Note_on_c, 0, 47, 48
2, 17159, Note_on_c, 0, 47, 0
2, 17159, Note_on_c, 0, 67, 0
2, 17159, Note_on_c, 0, 59, 0
2, 17160, Note_on_c, 0, 43, 48
2, 17189, Note_on_c, 0, 43, 0
2, 17190, Note_on_c, 0, 47, 51
2, 17219, Note_on_c, 0, 47, 0
2, 17220, Note_on_c, 0, 74, 55
2, 17220, Note_on_c, 0, 50, 50
2, 17249, Note_on_c, 0, 50, 0
2, 17250, Note_on_c, 0, 47, 48
2, 17279, Note_on_c, 0, 47, 0
2, 17279, Note_on_c, 0, 74, 0
2, 17280, Note_on_c, 0, 74, 54
2, 17280, Note_on_c, 0, 43, 47
2, 17309, Note_on_c, 0, 43, 0
2, 17309, Note_on_c, 0, 74, 0
2, 17310, Note_on_c, 0, 47, 57
2, 17339, Note_on_c, 0, 47, 0
2, 17340, Note_on_c, 0, 74, 61
2, 17340, Note_on_c, 0, 50, 54
2, 17369, Note_on_c, 0, 50, 0
2, 17369, Note_on_c, 0, 74, 0
2, 17370, Note_on_c, 0, 47, 58
2, 17399, Note_on_c, 0, 47, 0
2, 17400, Note_on_c, 0, 74, 61
2, 17400, Note_on_c, 0, 43, 62
2, 17429, Note_on_c, 0, 43, 0
2, 17429, Note_on_c, 0, 74, 0
2, 17430, Note_on_c, 0, 47, 65
2, 17459, Note_on_c, 0, 47, 0
2, 17460, Note_on_c, 0, 74, 65
2, 17460, Note_on_c, 0, 50, 59
2, 17471, Note_on_c, 0, 74, 0
2, 17472, Note_on_c, 0, 76, 66
2, 17483, Note_on_c, 0, 76, 0
2, 17484, Note_on_c, 0, 74, 70
2, 17489, Note_on_c, 0, 50, 0
2, 17490, Note_on_c, 0, 47, 70
2, 17495, Note_on_c, 0, 74, 0
2, 17496, Note_on_c, 0, 73, 69
2, 17507, Note_on_c, 0, 73, 0
2, 17508, Note_on_c, 0, 74, 71
2, 17519, Note_on_c, 0, 74, 0
2, 17519, Note_on_c, 0, 47, 0
2, 17520, Note_on_c, 0, 76, 95
2, 17520, Note_on_c, 0, 45, 68
2, 17549, Note_on_c, 0, 45, 0
2, 17550, Note_on_c, 0, 48, 66
2, 17579, Note_on_c, 0, 48, 0
2, 17580, Note_on_c, 0, 54, 69
2, 17609, Note_on_c, 0, 54, 0
2, 17610, Note_on_c, 0, 48, 66
2, 17639, Note_on_c, 0, 48, 0
2, 17639, Note_on_c, 0, 76, 0
2, 17640, Note_on_c, 0, 74, 72
2, 17640, Note_on_c, 0, 45, 70
2, 17669, Note_on_c, 0, 45, 0
2, 17670, Note_on_c, 0, 48, 69
2, 17699, Note_on_c, 0, 48, 0
2, 17699, Note_on_c, 0, 74, 0
2, 17700, Note_on_c, 0, 54, 71
2, 17729, Note_on_c, 0, 54, 0
2, 17730, Note_on_c, 0, 48, 64
2, 17759, Note_on_c, 0, 48, 0
2, 17760, Note_on_c, 0, 45, 55
2, 17789, Note_on_c, 0, 45, 0
2, 17790, Note_on_c, 0, 48, 55
2, 17819, Note_on_c, 0, 48, 0
2, 17820, Note_on_c, 0, 54, 52
2, 17849, Note_on_c, 0, 54, 0
2, 17850, Note_on_c, 0, 74, 65
2, 17850, Note_on_c, 0, 48, 53
2, 17864, Note_on_c, 0, 74, 0
2, 17879, Note_on_c, 0, 48, 0
2, 17880, Note_on_c, 0, 74, 62
2, 17880, Note_on_c, 0, 45, 56
2, 17894, Note_on_c, 0, 74, 0
2, 17909, Note_on_c, 0, 45, 0
2, 17910, Note_on_c, 0, 74, 68
2, 17910, Note_on_c, 0, 48, 58
2, 17924, Note_on_c, 0, 74, 0
2, 17939, Note_on_c, 0, 48, 0
2, 17940, Note_on_c, 0, 74, 66
2, 17940, Note_on_c, 0, 54, 62
2, 17954, Note_on_c, 0, 74, 0
2, 17969, Note_on_c, 0, 54, 0
2, 17970, Note_on_c, 0, 74, 68
2, 17970, Note_on_c, 0, 48, 67
2, 17984, Note_on_c, 0, 74, 0
2, 17999, Note_on_c, 0, 48, 0
2, 18000, Note_on_c, 0, 76, 90
2, 18000, Note_on_c, 0, 47, 63
2, 18029, Note_on_c, 0, 47, 0
2, 18030, Note_on_c, 0, 50, 70
2, 18059, Note_on_c, 0, 50, 0
2, 18060, Note_on_c, 0, 55, 63
2, 18089, Note_on_c, 0, 55, 0
2, 18090, Note_on_c, 0, 50, 70
2, 18119, Note_on_c, 0, 50, 0
2, 18119, Note_on_c, 0, 76, 0
2, 18120, Note_on_c, 0, 74, 68
2, 18120, Note_on_c, 0, 47, 70
2, 18149, Note_on_c, 0, 47, 0
2, 18150, Note_on_c, 0, 50, 67
2, 18179, Note_on_c, 0, 50, 0
2, 18179, Note_on_c, 0, 74, 0
2, 18180, Note_on_c, 0, 55, 62
2, 18209, Note_on_c, 0, 55, 0
2, 18210, Note_on_c, 0, 50, 72
2, 18239, Note_on_c, 0, 50, 0
2, 18240, Note_on_c, 0, 47, 56
2, 18269, Note_on_c, 0, 47, 0
2, 18270, Note_on_c, 0, 50, 51
2, 18299, Note_on_c, 0, 50, 0
2, 18300, Note_on_c, 0, 74, 53
2, 18300, Note_on_c, 0, 55, 52
2, 18329, Note_on_c, 0, 55, 0
2, 18330, Note_on_c, 0, 50, 55
2, 18359, Note_on_c, 0, 50, 0
2, 18360, Note_on_c, 0, 47, 54
2, 18389, Note_on_c, 0, 47, 0
2, 18389, Note_on_c, 0, 74, 0
2, 18390, Note_on_c, 0, 76, 55
2, 18390, Note_on_c, 0, 50, 47
2, 18404, Note_on_c, 0, 76, 0
2, 18405, Note_on_c, 0, 74, 57
2, 18419, Note_on_c, 0, 74, 0
2, 18419, Note_on_c, 0, 50, 0
2, 18420, Note_on_c, 0, 72, 59
2, 18420, Note_on_c, 0, 55, 54
2, 18434, Note_on_c, 0, 72, 0
2, 18449, Note_on_c, 0, 55, 0
2, 18450, Note_on_c, 0, 71, 57
2, 18450, Note_on_c, 0, 50, 55
2, 18464, Note_on_c, 0, 71, 0
2, 18479, Note_on_c, 0, 50, 0
2, 18480, Note_on_c, 0, 71, 54
2, 18480, Note_on_c, 0, 48, 55
2, 18509, Note_on_c, 0, 48, 0
2, 18510, Note_on_c, 0, 52, 47
2, 18539, Note_on_c, 0, 52, 0
2, 18539, Note_on_c, 0, 71, 0
2, 18540, Note_on_c, 0, 69, 54
2, 18540, Note_on_c, 0, 57, 58
2, 18569, Note_on_c, 0, 57, 0
2, 18570, Note_on_c, 0, 52, 59
2, 18599, Note_on_c, 0, 52, 0
2, 18600, Note_on_c, 0, 49, 60
2, 18629, Note_on_c, 0, 49, 0
2, 18630, Note_on_c, 0, 52, 58
2, 18659, Note_on_c, 0, 52, 0
2, 18659, Note_on_c, 0, 69, 0
2, 18660, Note_on_c, 0, 67, 62
2, 18660, Note_on_c, 0, 57, 52
2, 18689, Note_on_c, 0, 57, 0
2, 18690, Note_on_c, 0, 52, 59
2, 18694, Note_on_c, 0, 67, 0
2, 18695, Note_on_c, 0, 66, 56
2, 18704, Note_on_c, 0, 66, 0
2, 18705, Note_on_c, 0, 67, 51
2, 18714, Note_on_c, 0, 67, 0
2, 18715, Note_on_c, 0, 69, 53
2, 18719, Note_on_c, 0, 52, 0
2, 18720, Note_on_c, 0, 50, 60
2, 18724, Note_on_c, 0, 69, 0
2, 18725, Note_on_c, 0, 67, 66
2, 18749, Note_on_c, 0, 50, 0
2, 18750, Note_on_c, 0, 54, 55
2, 18779, Note_on_c, 0, 54, 0
2, 18780, Note_on_c, 0, 67, 0
2, 18780, Note_on_c, 0, 66, 66
2, 18780, Note_on_c, 0, 57, 57
2, 18809, Note_on_c, 0, 57, 0
2, 18810, Note_on_c, 0, 54, 62
2, 18839, Note_on_c, 0, 54, 0
2, 18840, Note_on_c, 0, 50, 59
2, 18869, Note_on_c, 0, 50, 0
2, 18870, Note_on_c, 0, 54, 62
2, 18899, Note_on_c, 0, 54, 0
2, 18899, Note_on_c, 0, 66, 0
2, 18900, Note_on_c, 0, 74, 66
2, 18900, Note_on_c, 0, 59, 66
2, 18929, Note_on_c, 0, 59, 0
2, 18930, Note_on_c, 0, 54, 69
2, 18959, Note_on_c, 0, 54, 0
2, 18959, Note_on_c, 0, 74, 0
2, 18960, Note_on_c, 0, 74, 73
2, 18960, Note_on_c, 0, 52, 72
2, 18989, Note_on_c, 0, 52, 0
2, 18990, Note_on_c, 0, 55, 68
2, 19019, Note_on_c, 0, 55, 0
2, 19019, Note_on_c, 0, 74, 0
2, 19020, Note_on_c, 0, 73, 70
2, 19020, Note_on_c, 0, 59, 64
2, 19049, Note_on_c, 0, 59, 0
2, 19050, Note_on_c, 0, 55, 71
2, 19079, Note_on_c, 0, 55, 0
2, 19080, Note_on_c, 0, 52, 74
2, 19109, Note_on_c, 0, 52, 0
2, 19110, Note_on_c, 0, 55, 71
2, 19139, Note_on_c, 0, 55, 0
2, 19139, Note_on_c, 0, 73, 0
2, 19140, Note_on_c, 0, 71, 80
2, 19140, Note_on_c, 0, 61, 76
2, 19169, Note_on_c, 0, 61, 0
2, 19170, Note_on_c, 0, 55, 72
2, 19174, Note_on_c, 0, 71, 0
2, 19175, Note_on_c, 0, 69, 68
2, 19184, Note_on_c, 0, 69, 0
2, 19185, Note_on_c, 0, 71, 69
2, 19194, Note_on_c, 0, 71, 0
2, 19195, Note_on_c, 0, 73, 68
2, 19199, Note_on_c, 0, 55, 0
2, 19200, Note_on_c, 0, 54, 70
2, 19204, Note_on_c, 0, 73, 0
2, 19205, Note_on_c, 0, 71, 76
2, 19229, Note_on_c, 0, 54, 0
2, 19230, Note_on_c, 0, 57, 76
2, 19259, Note_on_c, 0, 57, 0
2, 19259, Note_on_c, 0, 71, 0
2, 19260, Note_on_c, 0, 69, 79
2, 19260, Note_on_c, 0, 61, 70
2, 19289, Note_on_c, 0, 61, 0
2, 19290, Note_on_c, 0, 57, 79
2, 19319, Note_on_c, 0, 57, 0
2, 19320, Note_on_c, 0, 54, 68
2, 19349, Note_on_c, 0, 54, 0
2, 19350, Note_on_c, 0, 57, 72
2, 19379, Note_on_c, 0, 57, 0
2, 19379, Note_on_c, 0, 69, 0
2, 19380, Note_on_c, 0, 78, 75
2, 19380, Note_on_c, 0, 62, 69
2, 19409, Note_on_c, 0, 62, 0
2, 19410, Note_on_c, 0, 57, 71
2, 19439, Note_on_c, 0, 57, 0
2, 19439, Note_on_c, 0, 78, 0
2, 19440, Note_on_c, 0, 78, 79
2, 19440, Note_on_c, 0, 55, 75
2, 19469, Note_on_c, 0, 55, 0
2, 19470, Note_on_c, 0, 59, 74
2, 19499, Note_on_c, 0, 59, 0
2, 19499, Note_on_c, 0, 78, 0
2, 19500, Note_on_c, 0, 76, 73
2, 19500, Note_on_c, 0, 64, 71
2, 19529, Note_on_c, 0, 64, 0
2, 19530, Note_on_c, 0, 59, 75
2, 19559, Note_on_c, 0, 59, 0
2, 19560, Note_on_c, 0, 56, 70
2, 19589, Note_on_c, 0, 56, 0
2, 19590, Note_on_c, 0, 59, 74
2, 19619, Note_on_c, 0, 59, 0
2, 19619, Note_on_c, 0, 76, 0
2, 19620, Note_on_c, 0, 74, 71
2, 19620, Note_on_c, 0, 64, 66
2, 19649, Note_on_c, 0, 64, 0
2, 19650, Note_on_c, 0, 59, 64
2, 19679, Note_on_c, 0, 59, 0
2, 19679, Note_on_c, 0, 74, 0
2, 19680, Note_on_c, 0, 74, 83
2, 19680, Note_on_c, 0, 57, 80
2, 19709, Note_on_c, 0, 57, 0
2, 19710, Note_on_c, 0, 64, 72
2, 19739, Note_on_c, 0, 64, 0
2, 19739, Note_on_c, 0, 74, 0
2, 19740, Note_on_c, 0, 73, 77
2, 19740, Note_on_c, 0, 69, 72
2, 19769, Note_on_c, 0, 69, 0
2, 19770, Note_on_c, 0, 64, 72
2, 19799, Note_on_c, 0, 64, 0
2, 19800, Note_on_c, 0, 57, 70
2, 19829, Note_on_c, 0, 57, 0
2, 19830, Note_on_c, 0, 62, 72
2, 19859, Note_on_c, 0, 62, 0
2, 19859, Note_on_c, 0, 73, 0
2, 19860, Note_on_c, 0, 71, 79
2, 19860, Note_on_c, 0, 68, 70
2, 19889, Note_on_c, 0, 68, 0
2, 19890, Note_on_c, 0, 62, 75
2, 19919, Note_on_c, 0, 62, 0
2, 19919, Note_on_c, 0, 71, 0
2, 19920, Note_on_c, 0, 71, 78
2, 19920, Note_on_c, 0, 57, 69
2, 19949, Note_on_c, 0, 57, 0
2, 19950, Note_on_c, 0, 61, 67
2, 19979, Note_on_c, 0, 61, 0
2, 19979, Note_on_c, 0, 71, 0
2, 19980, Note_on_c, 0, 69, 72
2, 19980, Note_on_c, 0, 64, 66
2, 20009, Note_on_c, 0, 64, 0
2, 20010, Note_on_c, 0, 61, 74
2, 20039, Note_on_c, 0, 61, 0
2, 20039, Note_on_c, 0, 69, 0
2, 20040, Note_on_c, 0, 57, 64
2, 20060, Note_on_c, 0, 74, 69
2, 20069, Note_on_c, 0, 57, 0
2, 20070, Note_on_c, 0, 64, 66
2, 20079, Note_on_c, 0, 74, 0
2, 20080, Note_on_c, 0, 76, 69
2, 20099, Note_on_c, 0, 76, 0
2, 20099, Note_on_c, 0, 64, 0
2, 20100, Note_on_c, 0, 78, 68
2, 20100, Note_on_c, 0, 68, 65
2, 20119, Note_on_c, 0, 78, 0
2, 20120, Note_on_c, 0, 76, 71
2, 20129, Note_on_c, 0, 68, 0
2, 20130, Note_on_c, 0, 64, 71
2, 20139, Note_on_c, 0, 76, 0
2, 20140, Note_on_c, 0, 74, 67
2, 20159, Note_on_c, 0, 74, 0
2, 20159, Note_on_c, 0, 64, 0
2, 20160, Note_on_c, 0, 74, 68
2, 20160, Note_on_c, 0, 57, 65
2, 20189, Note_on_c, 0, 57, 0
2, 20190, Note_on_c, 0, 64, 60
2, 20219, Note_on_c, 0, 64, 0
2, 20219, Note_on_c, 0, 74, 0
2, 20220, Note_on_c, 0, 73, 69
2, 20220, Note_on_c, 0, 69, 70
2, 20249, Note_on_c, 0, 69, 0
2, 20250, Note_on_c, 0, 64, 66
2, 20279, Note_on_c, 0, 64, 0
2, 20279, Note_on_c, 0, 73, 0
2, 20280, Note_on_c, 0, 57, 67
2, 20300, Note_on_c, 0, 71, 66
2, 20309, Note_on_c, 0, 57, 0
2, 20310, Note_on_c, 0, 62, 58
2, 20319, Note_on_c, 0, 71, 0
2, 20320, Note_on_c, 0, 73, 66
2, 20339, Note_on_c, 0, 73, 0
2, 20339, Note_on_c, 0, 62, 0
2, 20340, Note_on_c, 0, 74, 69
2, 20340, Note_on_c, 0, 68, 61
2, 20359, Note_on_c, 0, 74, 0
2, 20360, Note_on_c, 0, 73, 64
2, 20369, Note_on_c, 0, 68, 0
2, 20370, Note_on_c, 0, 62, 64
2, 20379, Note_on_c, 0, 73, 0
2, 20380, Note_on_c, 0, 71, 68
2, 20399, Note_on_c, 0, 71, 0
2, 20399, Note_on_c, 0, 62, 0
2, 20400, Note_on_c, 0, 71, 66
2, 20400, Note_on_c, 0, 57, 56
2, 20429, Note_on_c, 0, 57, 0
2, 20430, Note_on_c, 0, 61, 61
2, 20459, Note_on_c, 0, 61, 0
2, 20459, Note_on_c, 0, 71, 0
2, 20460, Note_on_c, 0, 69, 64
2, 20460, Note_on_c, 0, 64, 58
2, 20489, Note_on_c, 0, 64, 0
2, 20490, Note_on_c, 0, 61, 62
2, 20519, Note_on_c, 0, 61, 0
2, 20519, Note_on_c, 0, 69, 0
2, 20520, Note_on_c, 0, 57, 63
2, 20540, Note_on_c, 0, 74, 61
2, 20549, Note_on_c, 0, 57, 0
2, 20550, Note_on_c, 0, 64, 61
2, 20559, Note_on_c, 0, 74, 0
2, 20560, Note_on_c, 0, 76, 60
2, 20579, Note_on_c, 0, 76, 0
2, 20579, Note_on_c, 0, 64, 0
2, 20580, Note_on_c, 0, 78, 58
2, 20580, Note_on_c, 0, 68, 57
2, 20599, Note_on_c, 0, 78, 0
2, 20600, Note_on_c, 0, 76, 65
2, 20609, Note_on_c, 0, 68, 0
2, 20610, Note_on_c, 0, 64, 53
2, 20619, Note_on_c, 0, 76, 0
2, 20620, Note_on_c, 0, 74, 62
2, 20639, Note_on_c, 0, 74, 0
2, 20639, Note_on_c, 0, 64, 0
2, 20640, Note_on_c, 0, 74, 60
2, 20640, Note_on_c, 0, 57, 60
2, 20659, Note_on_c, 0, 74, 0
2, 20660, Note_on_c, 0, 73, 61
2, 20669, Note_on_c, 0, 57, 0
2, 20670, Note_on_c, 0, 64, 52
2, 20679, Note_on_c, 0, 73, 0
2, 20680, Note_on_c, 0, 74, 60
2, 20699, Note_on_c, 0, 74, 0
2, 20699, Note_on_c, 0, 64, 0
2, 20700, Note_on_c, 0, 76, 57
2, 20700, Note_on_c, 0, 69, 56
2, 20719, Note_on_c, 0, 76, 0
2, 20720, Note_on_c, 0, 74, 59
2, 20729, Note_on_c, 0, 69, 0
2, 20730, Note_on_c, 0, 64, 59
2, 20739, Note_on_c, 0, 74, 0
2, 20740, Note_on_c, 0, 73, 60
2, 20759, Note_on_c, 0, 73, 0
2, 20759, Note_on_c, 0, 64, 0
2, 20760, Note_on_c, 0, 73, 58
2, 20760, Note_on_c, 0, 57, 51
2, 20779, Note_on_c, 0, 73, 0
2, 20780, Note_on_c, 0, 71, 59
2, 20789, Note_on_c, 0, 57, 0
2, 20790, Note_on_c, 0, 62, 57
2, 20799, Note_on_c, 0, 71, 0
2, 20800, Note_on_c, 0, 73, 56
2, 20819, Note_on_c, 0, 73, 0
2, 20819, Note_on_c, 0, 62, 0
2, 20820, Note_on_c, 0, 74, 61
2, 20820, Note_on_c, 0, 68, 48
2, 20839, Note_on_c, 0, 74, 0
2, 20840, Note_on_c, 0, 73, 60
2, 20849, Note_on_c, 0, 68, 0
2, 20850, Note_on_c, 0, 62, 49
2, 20859, Note_on_c, 0, 73, 0
2, 20860, Note_on_c, 0, 71, 53
2, 20879, Note_on_c, 0, 71, 0
2, 20879, Note_on_c, 0, 62, 0
2, 20880, Note_on_c, 0, 71, 75
2, 20880, Note_on_c, 0, 57, 63
2, 20880, Note_on_c, 0, 61, 70
2, 20880, Note_on_c, 0, 64, 67
2, 20899, Note_on_c, 0, 71, 0
2, 20900, Note_on_c, 0, 69, 72
2, 20919, Note_on_c, 0, 69, 0
2, 20920, Note_on_c, 0, 68, 75
2, 20939, Note_on_c, 0, 68, 0
2, 20939, Note_on_c, 0, 57, 0
2, 20939, Note_on_c, 0, 61, 0
2, 20939, Note_on_c, 0, 64, 0
2, 20940, Note_on_c, 0, 69, 72
2, 20959, Note_on_c, 0, 69, 0
2, 20960, Note_on_c, 0, 71, 72
2, 20979, Note_on_c, 0, 71, 0
2, 20980, Note_on_c, 0, 73, 73
2, 20999, Note_on_c, 0, 73, 0
2, 21000, Note_on_c, 0, 74, 72
2, 21019, Note_on_c, 0, 74, 0
2, 21020, Note_on_c, 0, 75, 74
2, 21039, Note_on_c, 0, 75, 0
2, 21040, Note_on_c, 0, 76, 73
2, 21059, Note_on_c, 0, 76, 0
2, 21060, Note_on_c, 0, 77, 70
2, 21074, Note_on_c, 0, 77, 0
2, 21075, Note_on_c, 0, 78, 68
2, 21089, Note_on_c, 0, 78, 0
2, 21090, Note_on_c, 0, 79, 68
2, 21104, Note_on_c, 0, 79, 0
2, 21105, Note_on_c, 0, 80, 72
2, 21119, Note_on_c, 0, 80, 0
2, 21120, Note_on_c, 0, 81, 72
2, 21179, Note_on_c, 0, 81, 0
2, 21180, Note_on_c, 0, 81, 74
2, 21239, Note_on_c, 0, 81, 0
2, 21240, Note_on_c, 0, 81, 68
2, 21299, Note_on_c, 0, 81, 0
2, 21300, Note_on_c, 0, 81, 70
2, 21359, Note_on_c, 0, 81, 0
2, 21360, Note_on_c, 0, 78, 73
2, 21360, Note_on_c, 0, 81, 70
2, 21390, Note_on_c, 0, 38, 72
2, 21419, Note_on_c, 0, 38, 0
2, 21420, Note_on_c, 0, 50, 64
2, 21449, Note_on_c, 0, 50, 0
2, 21449, Note_on_c, 0, 81, 0
2, 21449, Note_on_c, 0, 78, 0
2, 21450, Note_on_c, 0, 77, 71
2, 21450, Note_on_c, 0, 80, 71
2, 21459, Note_on_c, 0, 80, 0
2, 21459, Note_on_c, 0, 77, 0
2, 21480, Note_on_c, 0, 78, 68
2, 21480, Note_on_c, 0, 81, 70
2, 21510, Note_on_c, 0, 50, 71
2, 21539, Note_on_c, 0, 50, 0
2, 21540, Note_on_c, 0, 62, 68
2, 21569, Note_on_c, 0, 62, 0
2, 21569, Note_on_c, 0, 81, 0
2, 21569, Note_on_c, 0, 78, 0
2, 21570, Note_on_c, 0, 77, 74
2, 21570, Note_on_c, 0, 80, 75
2, 21579, Note_on_c, 0, 80, 0
2, 21579, Note_on_c, 0, 77, 0
2, 21600, Note_on_c, 0, 78, 71
2, 21600, Note_on_c, 0, 81, 70
2, 21630, Note_on_c, 0, 62, 69
2, 21659, Note_on_c, 0, 62, 0
2, 21660, Note_on_c, 0, 74, 62
2, 21689, Note_on_c, 0, 74, 0
2, 21689, Note_on_c, 0, 81, 0
2, 21689, Note_on_c, 0, 78, 0
2, 21690, Note_on_c, 0, 79, 71
2, 21690, Note_on_c, 0, 76, 75
2, 21699, Note_on_c, 0, 76, 0
2, 21699, Note_on_c, 0, 79, 0
2, 21720, Note_on_c, 0, 76, 71
2, 21720, Note_on_c, 0, 79, 72
2, 21749, Note_on_c, 0, 79, 0
2, 21749, Note_on_c, 0, 76, 0
2, 21750, Note_on_c, 0, 74, 68
2, 21750, Note_on_c, 0, 78, 68
2, 21759, Note_on_c, 0, 78, 0
2, 21759, Note_on_c, 0, 74, 0
2, 21780, Note_on_c, 0, 74, 70
2, 21780, Note_on_c, 0, 78, 74
2, 21809, Note_on_c, 0, 78, 0
2, 21809, Note_on_c, 0, 74, 0
2, 21810, Note_on_c, 0, 73, 75
2, 21810, Note_on_c, 0, 76, 73
2, 21819, Note_on_c, 0, 76, 0
2, 21819, Note_on_c, 0, 73, 0
2, 21840, Note_on_c, 0, 73, 72
2, 21840, Note_on_c, 0, 76, 71
2, 21869, Note_on_c, 0, 76, 0
2, 21869, Note_on_c, 0, 73, 0
2, 21870, Note_on_c, 0, 71, 75
2, 21870, Note_on_c, 0, 74, 72
2, 21879, Note_on_c, 0, 74, 0
2, 21879, Note_on_c, 0, 71, 0
2, 21900, Note_on_c, 0, 71, 75
2, 21900, Note_on_c, 0, 74, 68
2, 21929, Note_on_c, 0, 74, 0
2, 21929, Note_on_c, 0, 71, 0
2, 21930, Note_on_c, 0, 69, 70
2, 21930, Note_on_c, 0, 73, 75
2, 21939, Note_on_c, 0, 73, 0
2, 21939, Note_on_c, 0, 69, 0
2, 21960, Note_on_c, 0, 69, 75
2, 21960, Note_on_c, 0, 73, 70
2, 21989, Note_on_c, 0, 73, 0
2, 21989, Note_on_c, 0, 69, 0
2, 21990, Note_on_c, 0, 67, 68
2, 21990, Note_on_c, 0, 71, 70
2, 21999, Note_on_c, 0, 71, 0
2, 21999, Note_on_c, 0, 67, 0
2, 22020, Note_on_c, 0, 67, 69
2, 22020, Note_on_c, 0, 71, 74
2, 22049, Note_on_c, 0, 71, 0
2, 22049, Note_on_c, 0, 67, 0
2, 22050, Note_on_c, 0, 66, 70
2, 22050, Note_on_c, 0, 69, 71
2, 22059, Note_on_c, 0, 69, 0
2, 22059, Note_on_c, 0, 66, 0
2, 22080, Note_on_c, 0, 63, 70
2, 22080, Note_on_c, 0, 66, 68
2, 22140, Note_on_c, 0, 33, 72
2, 22169, Note_on_c, 0, 33, 0
2, 22199, Note_on_c, 0, 66, 0
2, 22199, Note_on_c, 0, 63, 0
2, 22200, Note_on_c, 0, 67, 75
2, 22200, Note_on_c, 0, 64, 68
2, 22200, Note_on_c, 0, 33, 70
2, 22229, Note_on_c, 0, 33, 0
2, 22259, Note_on_c, 0, 64, 0
2, 22259, Note_on_c, 0, 67, 0
2, 22260, Note_on_c, 0, 33, 70
2, 22289, Note_on_c, 0, 33, 0
2, 22320, Note_on_c, 0, 76, 69
2, 22320, Note_on_c, 0, 79, 70
2, 22350, Note_on_c, 0, 33, 70
2, 22379, Note_on_c, 0, 33, 0
2, 22380, Note_on_c, 0, 45, 71
2, 22409, Note_on_c, 0, 45, 0
2, 22409, Note_on_c, 0, 79, 0
2, 22409, Note_on_c, 0, 76, 0
2, 22410, Note_on_c, 0, 75, 68
2, 22410, Note_on_c, 0, 78, 71
2, 22419, Note_on_c, 0, 78, 0
2, 22419, Note_on_c, 0, 75, 0
2, 22440, Note_on_c, 0, 76, 74
2, 22440, Note_on_c, 0, 79, 68
2, 22470, Note_on_c, 0, 45, 66
2, 22499, Note_on_c, 0, 45, 0
2, 22500, Note_on_c, 0, 57, 63
2, 22529, Note_on_c, 0, 57, 0
2, 22529, Note_on_c, 0, 79, 0
2, 22529, Note_on_c, 0, 76, 0
2, 22530, Note_on_c, 0, 75, 71
2, 22530, Note_on_c, 0, 78, 73
2, 22539, Note_on_c, 0, 78, 0
2, 22539, Note_on_c, 0, 75, 0
2, 22560, Note_on_c, 0, 76, 74
2, 22560, Note_on_c, 0, 79, 70
2, 22590, Note_on_c, 0, 57, 62
2, 22619, Note_on_c, 0, 57, 0
2, 22620, Note_on_c, 0, 69, 70
2, 22649, Note_on_c, 0, 69, 0
2, 22649, Note_on_c, 0, 79, 0
2, 22649, Note_on_c, 0, 76, 0
2, 22650, Note_on_c, 0, 74, 69
2, 22650, Note_on_c, 0, 78, 70
2, 22659, Note_on_c, 0, 78, 0
2, 22659, Note_on_c, 0, 74, 0
2, 22680, Note_on_c, 0, 78, 69
2, 22680, Note_on_c, 0, 74, 72
2, 22709, Note_on_c, 0, 74, 0
2, 22709, Note_on_c, 0, 78, 0
2, 22710, Note_on_c, 0, 73, 68
2, 22710, Note_on_c, 0, 76, 70
2, 22719, Note_on_c, 0, 76, 0
2, 22719, Note_on_c, 0, 73, 0
2, 22740, Note_on_c, 0, 73, 70
2, 22740, Note_on_c, 0, 76, 75
2, 22769, Note_on_c, 0, 76, 0
2, 22769, Note_on_c, 0, 73, 0
2, 22770, Note_on_c, 0, 71, 69
2, 22770, Note_on_c, 0, 74, 70
2, 22779, Note_on_c, 0, 74, 0
2, 22779, Note_on_c, 0, 71, 0
2, 22800, Note_on_c, 0, 71, 68
2, 22800, Note_on_c, 0, 74, 69
2, 22829, Note_on_c, 0, 74, 0
2, 22829, Note_on_c, 0, 71, 0
2, 22830, Note_on_c, 0, 73, 73
2, 22830, Note_on_c, 0, 69, 75
2, 22839, Note_on_c, 0, 69, 0
2, 22839, Note_on_c, 0, 73, 0
2, 22860, Note_on_c, 0, 73, 74
2, 22860, Note_on_c, 0, 69, 73
2, 22889, Note_on_c, 0, 69, 0
2, 22889, Note_on_c, 0, 73, 0
2, 22890, Note_on_c, 0, 67, 68
2, 22890, Note_on_c, 0, 71, 69
2, 22899, Note_on_c, 0, 71, 0
2, 22899, Note_on_c, 0, 67, 0
2, 22920, Note_on_c, 0, 67, 74
2, 22920, Note_on_c, 0, 71, 74
2, 22949, Note_on_c, 0, 71, 0
2, 22949, Note_on_c, 0, 67, 0
2, 22950, Note_on_c, 0, 66, 69
2, 22950, Note_on_c, 0, 69, 72
2, 22959, Note_on_c, 0, 69, 0
2, 22959, Note_on_c, 0, 66, 0
2, 22980, Note_on_c, 0, 66, 74
2, 22980, Note_on_c, 0, 69, 68
2, 23009, Note_on_c, 0, 69, 0
2, 23009, Note_on_c, 0, 66, 0
2, 23010, Note_on_c, 0, 64, 69
2, 23010, Note_on_c, 0, 67, 72
2, 23019, Note_on_c, 0, 67, 0
2, 23019, Note_on_c, 0, 64, 0
2, 23040, Note_on_c, 0, 66, 81
2, 23040, Note_on_c, 0, 62, 73
2, 23070, Note_on_c, 0, 57, 64
2, 23099, Note_on_c, 0, 57, 0
2, 23099, Note_on_c, 0, 62, 0
2, 23099, Note_on_c, 0, 66, 0
2, 23100, Note_on_c, 0, 71, 80
2, 23100, Note_on_c, 0, 66, 68
2, 23100, Note_on_c, 0, 50, 65
2, 23129, Note_on_c, 0, 50, 0
2, 23130, Note_on_c, 0, 57, 65
2, 23159, Note_on_c, 0, 57, 0
2, 23159, Note_on_c, 0, 66, 0
2, 23159, Note_on_c, 0, 71, 0
2, 23160, Note_on_c, 0, 69, 80
2, 23160, Note_on_c, 0, 64, 70
2, 23160, Note_on_c, 0, 49, 62
2, 23189, Note_on_c, 0, 49, 0
2, 23190, Note_on_c, 0, 57, 67
2, 23219, Note_on_c, 0, 57, 0
2, 23219, Note_on_c, 0, 64, 0
2, 23219, Note_on_c, 0, 69, 0
2, 23220, Note_on_c, 0, 67, 81
2, 23220, Note_on_c, 0, 61, 72
2, 23220, Note_on_c, 0, 45, 62
2, 23249, Note_on_c, 0, 45, 0
2, 23250, Note_on_c, 0, 57, 65
2, 23279, Note_on_c, 0, 57, 0
2, 23279, Note_on_c, 0, 61, 0
2, 23279, Note_on_c, 0, 67, 0
2, 23280, Note_on_c, 0, 66, 80
2, 23280, Note_on_c, 0, 62, 68
2, 23310, Note_on_c, 0, 57, 71
2, 23339, Note_on_c, 0, 57, 0
2, 23339, Note_on_c, 0, 62, 0
2, 23339, Note_on_c, 0, 66, 0
2, 23340, Note_on_c, 0, 71, 83
2, 23340, Note_on_c, 0, 66, 72
2, 23340, Note_on_c, 0, 50, 66
2, 23369, Note_on_c, 0, 50, 0
2, 23370, Note_on_c, 0, 57, 66
2, 23399, Note_on_c, 0, 57, 0
2, 23399, Note_on_c, 0, 66, 0
2, 23399, Note_on_c, 0, 71, 0
2, 23400, Note_on_c, 0, 69, 80
2, 23400, Note_on_c, 0, 64, 70
2, 23400, Note_on_c, 0, 49, 68
2, 23429, Note_on_c, 0, 49, 0
2, 23430, Note_on_c, 0, 57, 62
2, 23459, Note_on_c, 0, 57, 0
2, 23459, Note_on_c, 0, 64, 0
2, 23459, Note_on_c, 0, 69, 0
2, 23460, Note_on_c, 0, 67, 80
2, 23460, Note_on_c, 0, 61, 72
2, 23460, Note_on_c, 0, 45, 67
2, 23489, Note_on_c, 0, 45, 0
2, 23490, Note_on_c, 0, 57, 66
2, 23519, Note_on_c, 0, 57, 0
2, 23519, Note_on_c, 0, 61, 0
2, 23519, Note_on_c, 0, 67, 0
2, 23520, Note_on_c, 0, 66, 83
2, 23520, Note_on_c, 0, 50, 67
2, 23550, Note_on_c, 0, 62, 75
2, 23579, Note_on_c, 0, 62, 0
2, 23579, Note_on_c, 0, 66, 0
2, 23580, Note_on_c, 0, 71, 84
2, 23580, Note_on_c, 0, 66, 75
2, 23609, Note_on_c, 0, 66, 0
2, 23610, Note_on_c, 0, 62, 72
2, 23639, Note_on_c, 0, 62, 0
2, 23639, Note_on_c, 0, 71, 0
2, 23639, Note_on_c, 0, 50, 0
2, 23640, Note_on_c, 0, 69, 80
2, 23640, Note_on_c, 0, 61, 74
2, 23640, Note_on_c, 0, 52, 70
2, 23669, Note_on_c, 0, 61, 0
2, 23670, Note_on_c, 0, 64, 69
2, 23699, Note_on_c, 0, 64, 0
2, 23699, Note_on_c, 0, 69, 0
2, 23700, Note_on_c, 0, 68, 79
2, 23700, Note_on_c, 0, 59, 73
2, 23729, Note_on_c, 0, 59, 0
2, 23730, Note_on_c, 0, 62, 71
2, 23759, Note_on_c, 0, 62, 0
2, 23759, Note_on_c, 0, 68, 0
2, 23759, Note_on_c, 0, 52, 0
2, 23760, Note_on_c, 0, 69, 78
2, 23760, Note_on_c, 0, 57, 68
2, 23789, Note_on_c, 0, 57, 0
2, 23790, Note_on_c, 0, 69, 69
2, 23819, Note_on_c, 0, 69, 0
2, 23819, Note_on_c, 0, 69, 0
2, 23820, Note_on_c, 0, 64, 72
2, 23820, Note_on_c, 0, 67, 64
2, 23849, Note_on_c, 0, 67, 0
2, 23849, Note_on_c, 0, 64, 0
2, 23850, Note_on_c, 0, 69, 70
2, 23879, Note_on_c, 0, 69, 0
2, 23880, Note_on_c, 0, 62, 72
2, 23880, Note_on_c, 0, 66, 68
2, 23909, Note_on_c, 0, 66, 0
2, 23909, Note_on_c, 0, 62, 0
2, 23910, Note_on_c, 0, 69, 66
2, 23930, Control_c, 0, 11, 126
2, 23935, Control_c, 0, 11, 121
2, 23939, Note_on_c, 0, 69, 0
2, 23940, Control_c, 0, 11, 118
2, 23940, Note_on_c, 0, 61, 72
2, 23940, Note_on_c, 0, 64, 70
2, 23945, Control_c, 0, 11, 116
2, 23950, Control_c, 0, 11, 115
2, 23955, Control_c, 0, 11, 113
2, 23960, Control_c, 0, 11, 111
2, 23965, Control_c, 0, 11, 110
2, 23969, Note_on_c, 0, 64, 0
2, 23969, Note_on_c, 0, 61, 0
2, 23970, Control_c, 0, 11, 109
2, 23970, Note_on_c, 0, 69, 71
2, 23975, Control_c, 0, 11, 108
2, 23980, Control_c, 0, 11, 105
2, 23985, Control_c, 0, 11, 104
2, 23990, Control_c, 0, 11, 103
2, 23995, Control_c, 0, 11, 101
2, 23999, Note_on_c, 0, 69, 0
2, 24000, Note_on_c, 0, 78, 85
2, 24000, Control_c, 0, 11, 99
2, 24000, Note_on_c, 0, 62, 65
2, 24000, Note_on_c, 0, 66, 68
2, 24010, Control_c, 0, 11, 98
2, 24015, Control_c, 0, 11, 97
2, 24029, Note_on_c, 0, 66, 0
2, 24029, Note_on_c, 0, 62, 0
2, 24030, Note_on_c, 0, 69, 66
2, 24035, Control_c, 0, 11, 96
2, 24040, Control_c, 0, 11, 97
2, 24055, Control_c, 0, 11, 98
2, 24059, Note_on_c, 0, 69, 0
2, 24059, Note_on_c, 0, 78, 0
2, 24060, Note_on_c, 0, 83, 83
2, 24060, Control_c, 0, 11, 99
2, 24060, Note_on_c, 0, 62, 65
2, 24060, Note_on_c, 0, 66, 68
2, 24065, Control_c, 0, 11, 100
2, 24070, Control_c, 0, 11, 101
2, 24075, Control_c, 0, 11, 102
2, 24080, Control_c, 0, 11, 104
2, 24085, Control_c, 0, 11, 105
2, 24089, Note_on_c, 0, 66, 0
2, 24089, Note_on_c, 0, 62, 0
2, 24090, Control_c, 0, 11, 106
2, 24090, Note_on_c, 0, 69, 65
2, 24095, Control_c, 0, 11, 108
2, 24100, Control_c, 0, 11, 110
2, 24105, Control_c, 0, 11, 112
2, 24110, Control_c, 0, 11, 115
2, 24115, Control_c, 0, 11, 118
2, 24119, Note_on_c, 0, 69, 0
2, 24119, Note_on_c, 0, 83, 0
2, 24120, Note_on_c, 0, 81, 82
2, 24120, Control_c, 0, 11, 120
2, 24120, Note_on_c, 0, 61, 68
2, 24120, Note_on_c, 0, 64, 63
2, 24125, Control_c, 0, 11, 122
2, 24130, Control_c, 0, 11, 123
2, 24140, Control_c, 0, 11, 124
2, 24149, Note_on_c, 0, 64, 0
2, 24149, Note_on_c, 0, 61, 0
2, 24150, Note_on_c, 0, 69, 66
2, 24165, Control_c, 0, 11, 125
2, 24175, Control_c, 0, 11, 124
2, 24179, Note_on_c, 0, 69, 0
2, 24179, Note_on_c, 0, 81, 0
2, 24180, Note_on_c, 0, 79, 80
2, 24180, Note_on_c, 0, 73, 70
2, 24180, Control_c, 0, 11, 122
2, 24180, Note_on_c, 0, 57, 70
2, 24180, Note_on_c, 0, 64, 62
2, 24185, Control_c, 0, 11, 121
2, 24190, Control_c, 0, 11, 119
2, 24195, Control_c, 0, 11, 118
2, 24200, Control_c, 0, 11, 116
2, 24205, Control_c, 0, 11, 114
2, 24209, Note_on_c, 0, 64, 0
2, 24209, Note_on_c, 0, 57, 0
2, 24210, Control_c, 0, 11, 112
2, 24210, Note_on_c, 0, 69, 63
2, 24215, Control_c, 0, 11, 110
2, 24220, Control_c, 0, 11, 109
2, 24225, Control_c, 0, 11, 107
2, 24230, Control_c, 0, 11, 105
2, 24235, Control_c, 0, 11, 104
2, 24239, Note_on_c, 0, 69, 0
2, 24239, Note_on_c, 0, 73, 0
2, 24239, Note_on_c, 0, 79, 0
2, 24240, Note_on_c, 0, 78, 85
2, 24240, Note_on_c, 0, 74, 73
2, 24240, Control_c, 0, 11, 103
2, 24240, Note_on_c, 0, 62, 68
2, 24240, Note_on_c, 0, 66, 62
2, 24250, Control_c, 0, 11, 102
2, 24255, Control_c, 0, 11, 101
2, 24265, Control_c, 0, 11, 100
2, 24269, Note_on_c, 0, 66, 0
2, 24269, Note_on_c, 0, 62, 0
2, 24270, Note_on_c, 0, 69, 70
2, 24290, Control_c, 0, 11, 101
2, 24299, Note_on_c, 0, 69, 0
2, 24299, Note_on_c, 0, 74, 0
2, 24299, Note_on_c, 0, 78, 0
2, 24300, Note_on_c, 0, 83, 82
2, 24300, Control_c, 0, 11, 102
2, 24300, Note_on_c, 0, 62, 63
2, 24300, Note_on_c, 0, 66, 66
2, 24310, Control_c, 0, 11, 104
2, 24315, Control_c, 0, 11, 105
2, 24320, Control_c, 0, 11, 106
2, 24325, Control_c, 0, 11, 109
2, 24329, Note_on_c, 0, 66, 0
2, 24329, Note_on_c, 0, 62, 0
2, 24330, Control_c, 0, 11, 110
2, 24330, Note_on_c, 0, 69, 68
2, 24335, Control_c, 0, 11, 111
2, 24340, Control_c, 0, 11, 114
2, 24345, Control_c, 0, 11, 116
2, 24350, Control_c, 0, 11, 118
2, 24355, Control_c, 0, 11, 119
2, 24359, Note_on_c, 0, 69, 0
2, 24359, Note_on_c, 0, 83, 0
2, 24360, Note_on_c, 0, 81, 78
2, 24360, Control_c, 0, 11, 121
2, 24360, Note_on_c, 0, 61, 66
2, 24360, Note_on_c, 0, 64, 65
2, 24365, Control_c, 0, 11, 123
2, 24370, Control_c, 0, 11, 125
2, 24375, Control_c, 0, 11, 126
2, 24380, Control_c, 0, 11, 127
2, 24389, Note_on_c, 0, 64, 0
2, 24389, Note_on_c, 0, 61, 0
2, 24390, Note_on_c, 0, 69, 72
2, 24400, Control_c, 0, 11, 126
2, 24405, Control_c, 0, 11, 125
2, 24410, Control_c, 0, 11, 124
2, 24419, Note_on_c, 0, 69, 0
2, 24419, Note_on_c, 0, 81, 0
2, 24420, Note_on_c, 0, 79, 82
2, 24420, Note_on_c, 0, 73, 75
2, 24420, Control_c, 0, 11, 123
2, 24420, Note_on_c, 0, 57, 69
2, 24420, Note_on_c, 0, 64, 70
2, 24425, Control_c, 0, 11, 121
2, 24430, Control_c, 0, 11, 119
2, 24435, Control_c, 0, 11, 118
2, 24440, Control_c, 0, 11, 117
2, 24445, Control_c, 0, 11, 114
2, 24449, Note_on_c, 0, 64, 0
2, 24449, Note_on_c, 0, 57, 0
2, 24450, Control_c, 0, 11, 113
2, 24450, Note_on_c, 0, 69, 68
2, 24455, Control_c, 0, 11, 112
2, 24460, Control_c, 0, 11, 110
2, 24465, Control_c, 0, 11, 108
2, 24470, Control_c, 0, 11, 105
2, 24475, Control_c, 0, 11, 106
2, 24479, Note_on_c, 0, 69, 0
2, 24479, Note_on_c, 0, 73, 0
2, 24479, Note_on_c, 0, 79, 0
2, 24480, Note_on_c, 0, 78, 55
2, 24480, Note_on_c, 0, 74, 59
2, 24480, Control_c, 0, 11, 127
2, 24480, Note_on_c, 0, 62, 47
2, 24480, Note_on_c, 0, 66, 49
2, 24509, Note_on_c, 0, 66, 0
2, 24509, Note_on_c, 0, 62, 0
2, 24510, Note_on_c, 0, 74, 49
2, 24539, Note_on_c, 0, 74, 0
2, 24539, Note_on_c, 0, 74, 0
2, 24539, Note_on_c, 0, 78, 0
2, 24540, Note_on_c, 0, 86, 59
2, 24540, Note_on_c, 0, 67, 49
2, 24540, Note_on_c, 0, 64, 54
2, 24569, Note_on_c, 0, 64, 0
2, 24569, Note_on_c, 0, 67, 0
2, 24570, Note_on_c, 0, 74, 55
2, 24599, Note_on_c, 0, 74, 0
2, 24600, Note_on_c, 0, 69, 51
2, 24600, Note_on_c, 0, 66, 57
2, 24629, Note_on_c, 0, 66, 0
2, 24629, Note_on_c, 0, 69, 0
2, 24630, Note_on_c, 0, 74, 57
2, 24659, Note_on_c, 0, 74, 0
2, 24659, Note_on_c, 0, 86, 0
2, 24660, Note_on_c, 0, 86, 59
2, 24660, Note_on_c, 0, 71, 56
2, 24660, Note_on_c, 0, 67, 59
2, 24689, Note_on_c, 0, 67, 0
2, 24689, Note_on_c, 0, 71, 0
2, 24690, Note_on_c, 0, 74, 55
2, 24719, Note_on_c, 0, 74, 0
2, 24720, Note_on_c, 0, 69, 56
2, 24720, Note_on_c, 0, 72, 56
2, 24749, Note_on_c, 0, 72, 0
2, 24749, Note_on_c, 0, 69, 0
2, 24750, Note_on_c, 0, 74, 57
2, 24779, Note_on_c, 0, 74, 0
2, 24779, Note_on_c, 0, 86, 0
2, 24780, Note_on_c, 0, 86, 63
2, 24780, Note_on_c, 0, 68, 65
2, 24780, Note_on_c, 0, 71, 64
2, 24809, Note_on_c, 0, 71, 0
2, 24809, Note_on_c, 0, 68, 0
2, 24809, Note_on_c, 0, 86, 0
2, 24810, Note_on_c, 0, 74, 65
2, 24839, Note_on_c, 0, 74, 0
2, 24840, Note_on_c, 0, 86, 66
2, 24840, Note_on_c, 0, 69, 61
2, 24840, Note_on_c, 0, 72, 58
2, 24869, Note_on_c, 0, 72, 0
2, 24869, Note_on_c, 0, 69, 0
2, 24869, Note_on_c, 0, 86, 0
2, 24870, Note_on_c, 0, 74, 65
2, 24899, Note_on_c, 0, 74, 0
2, 24900, Note_on_c, 0, 86, 69
2, 24900, Note_on_c, 0, 66, 65
2, 24900, Note_on_c, 0, 70, 69
2, 24929, Note_on_c, 0, 70, 0
2, 24929, Note_on_c, 0, 66, 0
2, 24929, Note_on_c, 0, 86, 0
2, 24930, Note_on_c, 0, 74, 62
2, 24959, Note_on_c, 0, 74, 0
2, 24960, Note_on_c, 0, 83, 59
2, 24960, Note_on_c, 0, 71, 54
2, 24960, Note_on_c, 0, 67, 51
2, 24974, Note_on_c, 0, 83, 0
2, 24975, Note_on_c, 0, 85, 58
2, 24989, Note_on_c, 0, 85, 0
2, 24990, Note_on_c, 0, 83, 52
2, 25004, Note_on_c, 0, 83, 0
2, 25005, Note_on_c, 0, 82, 56
2, 25019, Note_on_c, 0, 82, 0
2, 25019, Note_on_c, 0, 67, 0
2, 25019, Note_on_c, 0, 71, 0
2, 25020, Note_on_c, 0, 83, 54
2, 25034, Note_on_c, 0, 83, 0
2, 25035, Note_on_c, 0, 85, 54
2, 25049, Note_on_c, 0, 85, 0
2, 25050, Note_on_c, 0, 86, 52
2, 25064, Note_on_c, 0, 86, 0
2, 25065, Note_on_c, 0, 85, 53
2, 25079, Note_on_c, 0, 85, 0
2, 25080, Note_on_c, 0, 83, 52
2, 25080, Note_on_c, 0, 74, 49
2, 25080, Note_on_c, 0, 71, 52
2, 25080, Note_on_c, 0, 67, 49
2, 25094, Note_on_c, 0, 83, 0
2, 25095, Note_on_c, 0, 85, 56
2, 25109, Note_on_c, 0, 85, 0
2, 25110, Note_on_c, 0, 83, 56
2, 25124, Note_on_c, 0, 83, 0
2, 25125, Note_on_c, 0, 82, 54
2, 25139, Note_on_c, 0, 82, 0
2, 25139, Note_on_c, 0, 67, 0
2, 25139, Note_on_c, 0, 71, 0
2, 25139, Note_on_c, 0, 74, 0
2, 25140, Note_on_c, 0, 83, 53
2, 25154, Note_on_c, 0, 83, 0
2, 25155, Note_on_c, 0, 85, 56
2, 25169, Note_on_c, 0, 85, 0
2, 25170, Note_on_c, 0, 86, 54
2, 25184, Note_on_c, 0, 86, 0
2, 25185, Note_on_c, 0, 85, 57
2, 25199, Note_on_c, 0, 85, 0
2, 25200, Note_on_c, 0, 86, 57
2, 25200, Note_on_c, 0, 68, 56
2, 25200, Note_on_c, 0, 71, 56
2, 25200, Note_on_c, 0, 74, 56
2, 25200, Note_on_c, 0, 77, 56
2, 25214, Note_on_c, 0, 86, 0
2, 25215, Note_on_c, 0, 88, 61
2, 25229, Note_on_c, 0, 88, 0
2, 25230, Note_on_c, 0, 86, 57
2, 25244, Note_on_c, 0, 86, 0
2, 25245, Note_on_c, 0, 85, 59
2, 25259, Note_on_c, 0, 85, 0
2, 25259, Note_on_c, 0, 77, 0
2, 25259, Note_on_c, 0, 68, 0
2, 25259, Note_on_c, 0, 71, 0
2, 25259, Note_on_c, 0, 74, 0
2, 25260, Note_on_c, 0, 86, 64
2, 25274, Note_on_c, 0, 86, 0
2, 25275, Note_on_c, 0, 88, 68
2, 25289, Note_on_c, 0, 88, 0
2, 25290, Note_on_c, 0, 89, 71
2, 25304, Note_on_c, 0, 89, 0
2, 25305, Note_on_c, 0, 88, 71
2, 25319, Note_on_c, 0, 88, 0
2, 25320, Note_on_c, 0, 86, 70
2, 25320, Note_on_c, 0, 71, 69
2, 25320, Note_on_c, 0, 74, 69
2, 25320, Note_on_c, 0, 77, 65
2, 25320, Note_on_c, 0, 68, 71
2, 25334, Note_on_c, 0, 86, 0
2, 25335, Note_on_c, 0, 88, 71
2, 25349, Note_on_c, 0, 88, 0
2, 25350, Note_on_c, 0, 86, 77
2, 25364, Note_on_c, 0, 86, 0
2, 25365, Note_on_c, 0, 85, 79
2, 25379, Note_on_c, 0, 85, 0
2, 25379, Note_on_c, 0, 68, 0
2, 25379, Note_on_c, 0, 71, 0
2, 25379, Note_on_c, 0, 74, 0
2, 25379, Note_on_c, 0, 77, 0
2, 25380, Note_on_c, 0, 86, 80
2, 25394, Note_on_c, 0, 86, 0
2, 25395, Note_on_c, 0, 88, 79
2, 25409, Note_on_c, 0, 88, 0
2, 25410, Note_on_c, 0, 89, 83
2, 25424, Note_on_c, 0, 89, 0
2, 25425, Note_on_c, 0, 88, 88
2, 25439, Note_on_c, 0, 88, 0
2, 25440, Note_on_c, 0, 86, 93
2, 25440, Note_on_c, 0, 78, 91
2, 25440, Note_on_c, 0, 74, 95
2, 25440, Note_on_c, 0, 69, 88
2, 25454, Note_on_c, 0, 86, 0
2, 25455, Note_on_c, 0, 88, 91
2, 25469, Note_on_c, 0, 88, 0
2, 25470, Note_on_c, 0, 86, 95
2, 25484, Note_on_c, 0, 86, 0
2, 25485, Note_on_c, 0, 85, 96
2, 25499, Note_on_c, 0, 85, 0
2, 25499, Note_on_c, 0, 69, 0
2, 25499, Note_on_c, 0, 74, 0
2, 25499, Note_on_c, 0, 78, 0
2, 25500, Note_on_c, 0, 86, 91
2, 25514, Note_on_c, 0, 86, 0
2, 25515, Note_on_c, 0, 85, 94
2, 25529, Note_on_c, 0, 85, 0
2, 25530, Note_on_c, 0, 86, 94
2, 25544, Note_on_c, 0, 86, 0
2, 25545, Note_on_c, 0, 85, 96
2, 25559, Note_on_c, 0, 85, 0
2, 25560, Note_on_c, 0, 86, 92
2, 25574, Note_on_c, 0, 86, 0
2, 25575, Note_on_c, 0, 85, 92
2, 25589, Note_on_c, 0, 85, 0
2, 25590, Note_on_c, 0, 83, 92
2, 25604, Note_on_c, 0, 83, 0
2, 25605, Note_on_c, 0, 81, 95
2, 25619, Note_on_c, 0, 81, 0
2, 25620, Note_on_c, 0, 79, 98
2, 25634, Note_on_c, 0, 79, 0
2, 25635, Note_on_c, 0, 78, 93
2, 25649, Note_on_c, 0, 78, 0
2, 25650, Note_on_c, 0, 76, 91
2, 25664, Note_on_c, 0, 76, 0
2, 25665, Note_on_c, 0, 74, 93
2, 25679, Note_on_c, 0, 74, 0
2, 25680, Note_on_c, 0, 74, 100
2, 25680, Note_on_c, 0, 78, 102
2, 25680, Note_on_c, 0, 69, 93
2, 25680, Note_on_c, 0, 57, 98
2, 25799, Note_on_c, 0, 69, 0
2, 25799, Note_on_c, 0, 74, 0
2, 25799, Note_on_c, 0, 78, 0
2, 25800, Note_on_c, 0, 73, 89
2, 25800, Note_on_c, 0, 76, 92
2, 25800, Note_on_c, 0, 67, 83
2, 25919, Note_on_c, 0, 67, 0
2, 25919, Note_on_c, 0, 57, 0
2, 25919, Note_on_c, 0, 73, 0
2, 25919, Note_on_c, 0, 76, 0
2, 25920, Note_on_c, 0, 74, 92
2, 25920, Note_on_c, 0, 62, 89
2, 25920, Note_on_c, 0, 66, 88
2, 25934, Note_on_c, 0, 74, 0
2, 25935, Note_on_c, 0, 76, 96
2, 25949, Note_on_c, 0, 76, 0
2, 25950, Note_on_c, 0, 78, 91
2, 25964, Note_on_c, 0, 78, 0
2, 25965, Note_on_c, 0, 79, 92
2, 25979, Note_on_c, 0, 79, 0
2, 25979, Note_on_c, 0, 66, 0
2, 25979, Note_on_c, 0, 62, 0
2, 25980, Note_on_c, 0, 81, 95
2, 25994, Note_on_c, 0, 81, 0
2, 25995, Note_on_c, 0, 79, 96
2, 26009, Note_on_c, 0, 79, 0
2, 26010, Note_on_c, 0, 78, 95
2, 26024, Note_on_c, 0, 78, 0
2, 26025, Note_on_c, 0, 76, 93
2, 26039, Note_on_c, 0, 76, 0
2, 26040, Note_on_c, 0, 74, 91
2, 26054, Note_on_c, 0, 74, 0
2, 26055, Note_on_c, 0, 73, 91
2, 26069, Note_on_c, 0, 73, 0
2, 26070, Note_on_c, 0, 71, 96
2, 26084, Note_on_c, 0, 71, 0
2, 26085, Note_on_c, 0, 69, 92
2, 26099, Note_on_c, 0, 69, 0
2, 26100, Note_on_c, 0, 67, 94
2, 26114, Note_on_c, 0, 67, 0
2, 26115, Note_on_c, 0, 66, 91
2, 26129, Note_on_c, 0, 66, 0
2, 26130, Note_on_c, 0, 64, 91
2, 26144, Note_on_c, 0, 64, 0
2, 26145, Note_on_c, 0, 62, 93
2, 26159, Note_on_c, 0, 62, 0
2, 26160, Note_on_c, 0, 62, 103
2, 26160, Note_on_c, 0, 66, 101
2, 26160, Note_on_c, 0, 57, 95
2, 26160, Note_on_c, 0, 45, 99
2, 26279, Note_on_c, 0, 57, 0
2, 26279, Note_on_c, 0, 62, 0
2, 26279, Note_on_c, 0, 66, 0
2, 26280, Note_on_c, 0, 61, 91
2, 26280, Note_on_c, 0, 64, 87
2, 26280, Note_on_c, 0, 55, 85
2, 26399, Note_on_c, 0, 55, 0
2, 26399, Note_on_c, 0, 45, 0
2, 26399, Note_on_c, 0, 61, 0
2, 26399, Note_on_c, 0, 64, 0
2, 26400, Note_on_c, 0, 62, 57
2, 26400, Note_on_c, 0, 50, 56
2, 26400, Note_on_c, 0, 54, 46
2, 26429, Note_on_c, 0, 62, 0
2, 26430, Note_on_c, 0, 57, 57
2, 26459, Note_on_c, 0, 57, 0
2, 26459, Note_on_c, 0, 54, 0
2, 26459, Note_on_c, 0, 50, 0
2, 26460, Note_on_c, 0, 66, 57
2, 26460, Note_on_c, 0, 62, 52
2, 26489, Note_on_c, 0, 62, 0
2, 26489, Note_on_c, 0, 66, 0
2, 26490, Note_on_c, 0, 57, 53
2, 26519, Note_on_c, 0, 57, 0
2, 26520, Note_on_c, 0, 64, 58
2, 26520, Note_on_c, 0, 67, 57
2, 26549, Note_on_c, 0, 67, 0
2, 26549, Note_on_c, 0, 64, 0
2, 26550, Note_on_c, 0, 57, 58
2, 26579, Note_on_c, 0, 57, 0
2, 26580, Note_on_c, 0, 65, 52
2, 26580, Note_on_c, 0, 68, 58
2, 26609, Note_on_c, 0, 68, 0
2, 26609, Note_on_c, 0, 65, 0
2, 26610, Note_on_c, 0, 57, 52
2, 26639, Note_on_c, 0, 57, 0
2, 26640, Note_on_c, 0, 66, 53
2, 26640, Note_on_c, 0, 69, 59
2, 26670, Note_on_c, 0, 57, 55
2, 26700, Note_on_c, 0, 38, 61
2, 26709, Note_on_c, 0, 57, 0
2, 26730, Note_on_c, 0, 57, 58
2, 26759, Note_on_c, 0, 38, 0
2, 26760, Note_on_c, 0, 42, 56
2, 26769, Note_on_c, 0, 57, 0
2, 26790, Note_on_c, 0, 57, 56
2, 26819, Note_on_c, 0, 42, 0
2, 26820, Note_on_c, 0, 45, 58
2, 26829, Note_on_c, 0, 57, 0
2, 26850, Note_on_c, 0, 57, 58
2, 26879, Note_on_c, 0, 45, 0
2, 26880, Note_on_c, 0, 50, 61
2, 26889, Note_on_c, 0, 57, 0
2, 26910, Note_on_c, 0, 57, 53
2, 26939, Note_on_c, 0, 57, 0
2, 26939, Note_on_c, 0, 66, 0
2, 26939, Note_on_c, 0, 69, 0
2, 26940, Note_on_c, 0, 66, 52
2, 26940, Note_on_c, 0, 62, 57
2, 26969, Note_on_c, 0, 62, 0
2, 26970, Note_on_c, 0, 57, 59
2, 26999, Note_on_c, 0, 57, 0
2, 26999, Note_on_c, 0, 66, 0
2, 27000, Note_on_c, 0, 71, 53
2, 27000, Note_on_c, 0, 67, 54
2, 27029, Note_on_c, 0, 67, 0
2, 27030, Note_on_c, 0, 57, 55
2, 27059, Note_on_c, 0, 57, 0
2, 27059, Note_on_c, 0, 71, 0
2, 27060, Note_on_c, 0, 69, 55
2, 27060, Note_on_c, 0, 66, 57
2, 27089, Note_on_c, 0, 66, 0
2, 27090, Note_on_c, 0, 57, 59
2, 27119, Note_on_c, 0, 57, 0
2, 27119, Note_on_c, 0, 69, 0
2, 27120, Note_on_c, 0, 64, 59
2, 27120, Note_on_c, 0, 67, 53
2, 27129, Note_on_c, 0, 50, 0
2, 27150, Note_on_c, 0, 57, 59
2, 27180, Note_on_c, 0, 50, 59
2, 27189, Note_on_c, 0, 57, 0
2, 27210, Note_on_c, 0, 57, 57
2, 27239, Note_on_c, 0, 50, 0
2, 27240, Note_on_c, 0, 49, 59
2, 27249, Note_on_c, 0, 57, 0
2, 27270, Note_on_c, 0, 57, 57
2, 27299, Note_on_c, 0, 49, 0
2, 27300, Note_on_c, 0, 47, 62
2, 27309, Note_on_c, 0, 57, 0
2, 27330, Note_on_c, 0, 57, 58
2, 27359, Note_on_c, 0, 47, 0
2, 27360, Note_on_c, 0, 49, 62
2, 27369, Note_on_c, 0, 57, 0
2, 27390, Note_on_c, 0, 57, 55
2, 27419, Note_on_c, 0, 57, 0
2, 27419, Note_on_c, 0, 64, 0
2, 27419, Note_on_c, 0, 67, 0
2, 27420, Note_on_c, 0, 67, 57
2, 27420, Note_on_c, 0, 64, 54
2, 27449, Note_on_c, 0, 64, 0
2, 27450, Note_on_c, 0, 57, 55
2, 27479, Note_on_c, 0, 57, 0
2, 27479, Note_on_c, 0, 67, 0
2, 27479, Note_on_c, 0, 49, 0
2, 27480, Note_on_c, 0, 69, 55
2, 27480, Note_on_c, 0, 66, 52
2, 27480, Note_on_c, 0, 45, 66
2, 27509, Note_on_c, 0, 66, 0
2, 27510, Note_on_c, 0, 57, 54
2, 27539, Note_on_c, 0, 57, 0
2, 27539, Note_on_c, 0, 69, 0
2, 27540, Note_on_c, 0, 67, 54
2, 27540, Note_on_c, 0, 64, 55
2, 27569, Note_on_c, 0, 64, 0
2, 27570, Note_on_c, 0, 57, 59
2, 27599, Note_on_c, 0, 57, 0
2, 27599, Note_on_c, 0, 67, 0
2, 27600, Note_on_c, 0, 62, 57
2, 27600, Note_on_c, 0, 66, 59
2, 27630, Note_on_c, 0, 57, 53
2, 27659, Note_on_c, 0, 57, 0
2, 27659, Note_on_c, 0, 45, 0
2, 27660, Note_on_c, 0, 46, 58
2, 27690, Note_on_c, 0, 58, 52
2, 27719, Note_on_c, 0, 58, 0
2, 27719, Note_on_c, 0, 46, 0
2, 27720, Note_on_c, 0, 47, 65
2, 27750, Note_on_c, 0, 59, 55
2, 27779, Note_on_c, 0, 59, 0
2, 27779, Note_on_c, 0, 47, 0
2, 27780, Note_on_c, 0, 42, 66
2, 27810, Note_on_c, 0, 54, 57
2, 27839, Note_on_c, 0, 54, 0
2, 27839, Note_on_c, 0, 42, 0
2, 27840, Note_on_c, 0, 43, 63
2, 27870, Note_on_c, 0, 55, 56
2, 27899, Note_on_c, 0, 55, 0
2, 27899, Note_on_c, 0, 62, 0
2, 27899, Note_on_c, 0, 66, 0
2, 27899, Note_on_c, 0, 43, 0
2, 27900, Note_on_c, 0, 64, 58
2, 27900, Note_on_c, 0, 62, 55
2, 27900, Note_on_c, 0, 44, 58
2, 27929, Note_on_c, 0, 62, 0
2, 27930, Note_on_c, 0, 56, 58
2, 27959, Note_on_c, 0, 56, 0
2, 27959, Note_on_c, 0, 44, 0
2, 27959, Note_on_c, 0, 64, 0
2, 27960, Note_on_c, 0, 64, 55
2, 27960, Note_on_c, 0, 62, 56
2, 27960, Note_on_c, 0, 45, 64
2, 27989, Note_on_c, 0, 62, 0
2, 27990, Note_on_c, 0, 57, 55
2, 28019, Note_on_c, 0, 57, 0
2, 28019, Note_on_c, 0, 64, 0
2, 28020, Note_on_c, 0, 67, 54
2, 28020, Note_on_c, 0, 61, 54
2, 28049, Note_on_c, 0, 61, 0
2, 28050, Note_on_c, 0, 57, 54
2, 28079, Note_on_c, 0, 57, 0
2, 28079, Note_on_c, 0, 67, 0
2, 28080, Note_on_c, 0, 62, 55
2, 28080, Note_on_c, 0, 66, 59
2, 28110, Note_on_c, 0, 57, 52
2, 28139, Note_on_c, 0, 57, 0
2, 28139, Note_on_c, 0, 45, 0
2, 28140, Note_on_c, 0, 46, 63
2, 28170, Note_on_c, 0, 58, 54
2, 28199, Note_on_c, 0, 58, 0
2, 28199, Note_on_c, 0, 46, 0
2, 28200, Note_on_c, 0, 47, 61
2, 28230, Note_on_c, 0, 59, 59
2, 28259, Note_on_c, 0, 59, 0
2, 28259, Note_on_c, 0, 47, 0
2, 28260, Note_on_c, 0, 42, 66
2, 28290, Note_on_c, 0, 54, 58
2, 28319, Note_on_c, 0, 54, 0
2, 28319, Note_on_c, 0, 42, 0
2, 28320, Note_on_c, 0, 43, 62
2, 28350, Note_on_c, 0, 55, 56
2, 28379, Note_on_c, 0, 55, 0
2, 28379, Note_on_c, 0, 62, 0
2, 28379, Note_on_c, 0, 66, 0
2, 28379, Note_on_c, 0, 43, 0
2, 28380, Note_on_c, 0, 64, 58
2, 28380, Note_on_c, 0, 62, 52
2, 28380, Note_on_c, 0, 44, 61
2, 28409, Note_on_c, 0, 62, 0
2, 28410, Note_on_c, 0, 56, 56
2, 28439, Note_on_c, 0, 56, 0
2, 28439, Note_on_c, 0, 44, 0
2, 28439, Note_on_c, 0, 64, 0
2, 28440, Note_on_c, 0, 64, 53
2, 28440, Note_on_c, 0, 62, 55
2, 28440, Note_on_c, 0, 45, 60
2, 28469, Note_on_c, 0, 62, 0
2, 28470, Note_on_c, 0, 57, 53
2, 28499, Note_on_c, 0, 57, 0
2, 28499, Note_on_c, 0, 64, 0
2, 28500, Note_on_c, 0, 67, 55
2, 28500, Note_on_c, 0, 61, 53
2, 28529, Note_on_c, 0, 61, 0
2, 28530, Note_on_c, 0, 57, 57
2, 28559, Note_on_c, 0, 57, 0
2, 28559, Note_on_c, 0, 67, 0
2, 28560, Note_on_c, 0, 62, 52
2, 28560, Note_on_c, 0, 66, 53
2, 28590, Note_on_c, 0, 57, 57
2, 28619, Note_on_c, 0, 57, 0
2, 28619, Note_on_c, 0, 45, 0
2, 28620, Note_on_c, 0, 46, 58
2, 28650, Note_on_c, 0, 58, 59
2, 28679, Note_on_c, 0, 58, 0
2, 28679, Note_on_c, 0, 46, 0
2, 28680, Note_on_c, 0, 47, 63
2, 28710, Note_on_c, 0, 59, 61
2, 28739, Note_on_c, 0, 59, 0
2, 28739, Note_on_c, 0, 47, 0
2, 28740, Note_on_c, 0, 48, 65
2, 28770, Note_on_c, 0, 60, 55
2, 28799, Note_on_c, 0, 60, 0
2, 28799, Note_on_c, 0, 48, 0
2, 28800, Note_on_c, 0, 47, 60
2, 28830, Note_on_c, 0, 59, 55
2, 28859, Note_on_c, 0, 59, 0
2, 28859, Note_on_c, 0, 62, 0
2, 28859, Note_on_c, 0, 66, 0
2, 28859, Note_on_c, 0, 47, 0
2, 28860, Note_on_c, 0, 67, 59
2, 28860, Note_on_c, 0, 64, 63
2, 28860, Note_on_c, 0, 43, 60
2, 28889, Note_on_c, 0, 64, 0
2, 28890, Note_on_c, 0, 59, 63
2, 28919, Note_on_c, 0, 59, 0
2, 28919, Note_on_c, 0, 43, 0
2, 28919, Note_on_c, 0, 67, 0
2, 28920, Note_on_c, 0, 66, 62
2, 28920, Note_on_c, 0, 62, 61
2, 28920, Note_on_c, 0, 45, 65
2, 28949, Note_on_c, 0, 62, 0
2, 28950, Note_on_c, 0, 57, 61
2, 28979, Note_on_c, 0, 57, 0
2, 28979, Note_on_c, 0, 45, 0
2, 28979, Note_on_c, 0, 66, 0
2, 28980, Note_on_c, 0, 64, 60
2, 28980, Note_on_c, 0, 61, 59
2, 28980, Note_on_c, 0, 33, 62
2, 29009, Note_on_c, 0, 61, 0
2, 29010, Note_on_c, 0, 55, 61
2, 29039, Note_on_c, 0, 55, 0
2, 29039, Note_on_c, 0, 33, 0
2, 29039, Note_on_c, 0, 64, 0
2, 29040, Note_on_c, 0, 62, 59
2, 29040, Note_on_c, 0, 54, 62
2, 29040, Note_on_c, 0, 38, 63
2, 29069, Note_on_c, 0, 54, 0
2, 29070, Note_on_c, 0, 57, 59
2, 29099, Note_on_c, 0, 57, 0
2, 29100, Note_on_c, 0, 54, 65
2, 29129, Note_on_c, 0, 54, 0
2, 29130, Note_on_c, 0, 57, 66
2, 29159, Note_on_c, 0, 57, 0
2, 29160, Note_on_c, 0, 54, 66
2, 29189, Note_on_c, 0, 54, 0
2, 29190, Note_on_c, 0, 57, 65
2, 29219, Note_on_c, 0, 57, 0
2, 29219, Note_on_c, 0, 62, 0
2, 29220, Note_on_c, 0, 64, 71
2, 29220, Note_on_c, 0, 55, 67
2, 29220, Note_on_c, 0, 50, 59
2, 29249, Note_on_c, 0, 55, 0
2, 29250, Note_on_c, 0, 61, 63
2, 29279, Note_on_c, 0, 61, 0
2, 29279, Note_on_c, 0, 50, 0
2, 29279, Note_on_c, 0, 64, 0
2, 29280, Note_on_c, 0, 66, 68
2, 29280, Note_on_c, 0, 57, 63
2, 29280, Note_on_c, 0, 50, 57
2, 29309, Note_on_c, 0, 57, 0
2, 29310, Note_on_c, 0, 62, 66
2, 29339, Note_on_c, 0, 62, 0
2, 29340, Note_on_c, 0, 57, 67
2, 29369, Note_on_c, 0, 57, 0
2, 29370, Note_on_c, 0, 62, 63
2, 29399, Note_on_c, 0, 62, 0
2, 29400, Note_on_c, 0, 57, 71
2, 29429, Note_on_c, 0, 57, 0
2, 29430, Note_on_c, 0, 62, 65
2, 29459, Note_on_c, 0, 62, 0
2, 29459, Note_on_c, 0, 50, 0
2, 29459, Note_on_c, 0, 66, 0
2, 29460, Note_on_c, 0, 64, 75
2, 29460, Note_on_c, 0, 55, 68
2, 29460, Note_on_c, 0, 50, 65
2, 29489, Note_on_c, 0, 55, 0
2, 29490, Note_on_c, 0, 61, 71
2, 29519, Note_on_c, 0, 61, 0
2, 29519, Note_on_c, 0, 50, 0
2, 29519, Note_on_c, 0, 64, 0
2, 29519, Note_on_c, 0, 38, 0
2, 29520, Note_on_c, 0, 62, 73
2, 29520, Note_on_c, 0, 54, 64
2, 29520, Note_on_c, 0, 50, 67
2, 29549, Note_on_c, 0, 54, 0
2, 29550, Note_on_c, 0, 57, 67
2, 29579, Note_on_c, 0, 57, 0
2, 29580, Note_on_c, 0, 54, 61
2, 29609, Note_on_c, 0, 54, 0
2, 29610, Note_on_c, 0, 57, 63
2, 29639, Note_on_c, 0, 57, 0
2, 29640, Note_on_c, 0, 54, 67
2, 29669, Note_on_c, 0, 54, 0
2, 29670, Note_on_c, 0, 57, 67
2, 29699, Note_on_c, 0, 57, 0
2, 29699, Note_on_c, 0, 50, 0
2, 29699, Note_on_c, 0, 62, 0
2, 29700, Note_on_c, 0, 64, 81
2, 29700, Note_on_c, 0, 73, 82
2, 29700, Note_on_c, 0, 55, 62
2, 29700, Note_on_c, 0, 50, 71
2, 29729, Note_on_c, 0, 55, 0
2, 29730, Note_on_c, 0, 57, 57
2, 29759, Note_on_c, 0, 57, 0
2, 29759, Note_on_c, 0, 64, 0
2, 29759, Note_on_c, 0, 73, 0
2, 29760, Note_on_c, 0, 62, 80
2, 29760, Note_on_c, 0, 74, 83
2, 29760, Note_on_c, 0, 54, 63
2, 29789, Note_on_c, 0, 54, 0
2, 29790, Note_on_c, 0, 57, 59
2, 29819, Note_on_c, 0, 57, 0
2, 29819, Note_on_c, 0, 74, 0
2, 29819, Note_on_c, 0, 62, 0
2, 29819, Note_on_c, 0, 50, 0
2, 29820, Note_on_c, 0, 64, 83
2, 29820, Note_on_c, 0, 73, 82
2, 29820, Note_on_c, 0, 55, 61
2, 29820, Note_on_c, 0, 50, 78
2, 29849, Note_on_c, 0, 55, 0
2, 29850, Note_on_c, 0, 57, 58
2, 29879, Note_on_c, 0, 57, 0
2, 29879, Note_on_c, 0, 64, 0
2, 29879, Note_on_c, 0, 73, 0
2, 29880, Note_on_c, 0, 62, 89
2, 29880, Note_on_c, 0, 74, 92
2, 29880, Note_on_c, 0, 54, 64
2, 29909, Note_on_c, 0, 54, 0
2, 29910, Note_on_c, 0, 57, 67
2, 29939, Note_on_c, 0, 57, 0
2, 29939, Note_on_c, 0, 74, 0
2, 29939, Note_on_c, 0, 62, 0
2, 29939, Note_on_c, 0, 50, 0
2, 29940, Note_on_c, 0, 64, 93
2, 29940, Note_on_c, 0, 73, 74
2, 29940, Note_on_c, 0, 55, 73
2, 29940, Note_on_c, 0, 50, 85
2, 29947, Note_on_c, 0, 73, 0
2, 29948, Note_on_c, 0, 74, 73
2, 29955, Note_on_c, 0, 74, 0
2, 29956, Note_on_c, 0, 73, 73
2, 29963, Note_on_c, 0, 73, 0
2, 29964, Note_on_c, 0, 74, 73
2, 29969, Note_on_c, 0, 55, 0
2, 29970, Note_on_c, 0, 57, 70
2, 29971, Note_on_c, 0, 74, 0
2, 29972, Note_on_c, 0, 73, 76
2, 29980, Note_on_c, 0, 73, 0
2, 29981, Note_on_c, 0, 71, 75
2, 29989, Note_on_c, 0, 71, 0
2, 29990, Note_on_c, 0, 73, 74
2, 29999, Note_on_c, 0, 73, 0
2, 29999, Note_on_c, 0, 57, 0
2, 29999, Note_on_c, 0, 64, 0
2, 29999, Note_on_c, 0, 50, 0
2, 30000, Note_on_c, 0, 67, 95
2, 30000, Note_on_c, 0, 76, 95
2, 30000, Note_on_c, 0, 50, 90
2, 30000, Note_on_c, 0, 57, 90
2, 30000, Note_on_c, 0, 61, 90
2, 30239, Note_on_c, 0, 61, 0
2, 30239, Note_on_c, 0, 67, 0
2, 30239, Note_on_c, 0, 76, 0
2, 30240, Note_on_c, 0, 66, 90
2, 30240, Note_on_c, 0, 74, 92
2, 30240, Note_on_c, 0, 62, 83
2, 30299, Note_on_c, 0, 62, 0
2, 30299, Note_on_c, 0, 66, 0
2, 30299, Note_on_c, 0, 57, 0
2, 30299, Note_on_c, 0, 50, 0
2, 30299, Note_on_c, 0, 74, 0
2, 30390, Note_on_c, 0, 62, 53
2, 30419, Note_on_c, 0, 62, 0
2, 30420, Note_on_c, 0, 74, 56
2, 30449, Note_on_c, 0, 74, 0
2, 30450, Note_on_c, 0, 69, 52
2, 30479, Note_on_c, 0, 69, 0
2, 30480, Note_on_c, 0, 70, 59
2, 30509, Note_on_c, 0, 70, 0
2, 30510, Note_on_c, 0, 66, 52
2, 30539, Note_on_c, 0, 66, 0
2, 30540, Note_on_c, 0, 67, 59
2, 30540, Note_on_c, 0, 43, 49
2, 30570, Note_on_c, 0, 46, 53
2, 30600, Note_on_c, 0, 50, 56
2, 30629, Note_on_c, 0, 67, 0
2, 30630, Note_on_c, 0, 62, 56
2, 30659, Note_on_c, 0, 62, 0
2, 30660, Note_on_c, 0, 74, 57
2, 30689, Note_on_c, 0, 74, 0
2, 30690, Note_on_c, 0, 69, 57
2, 30719, Note_on_c, 0, 69, 0
2, 30719, Note_on_c, 0, 50, 0
2, 30719, Note_on_c, 0, 46, 0
2, 30719, Note_on_c, 0, 43, 0
2, 30720, Note_on_c, 0, 70, 59
2, 30749, Note_on_c, 0, 70, 0
2, 30750, Note_on_c, 0, 66, 57
2, 30779, Note_on_c, 0, 66, 0
2, 30780, Note_on_c, 0, 67, 58
2, 30780, Note_on_c, 0, 55, 54
2, 30810, Note_on_c, 0, 58, 53
2, 30840, Note_on_c, 0, 62, 54
2, 30869, Note_on_c, 0, 67, 0
2, 30870, Note_on_c, 0, 67, 53
2, 30899, Note_on_c, 0, 67, 0
2, 30900, Note_on_c, 0, 79, 56
2, 30929, Note_on_c, 0, 79, 0
2, 30930, Note_on_c, 0, 74, 59
2, 30959, Note_on_c, 0, 74, 0
2, 30959, Note_on_c, 0, 62, 0
2, 30959, Note_on_c, 0, 58, 0
2, 30959, Note_on_c, 0, 55, 0
2, 30960, Note_on_c, 0, 75, 52
2, 30989, Note_on_c, 0, 75, 0
2, 30990, Note_on_c, 0, 71, 56
2, 31019, Note_on_c, 0, 71, 0
2, 31020, Note_on_c, 0, 72, 55
2, 31020, Note_on_c, 0, 43, 48
2, 31050, Note_on_c, 0, 48, 52
2, 31080, Note_on_c, 0, 51, 47
2, 31109, Note_on_c, 0, 72, 0
2, 31110, Note_on_c, 0, 67, 56
2, 31139, Note_on_c, 0, 67, 0
2, 31140, Note_on_c, 0, 79, 54
2, 31169, Note_on_c, 0, 79, 0
2, 31170, Note_on_c, 0, 74, 55
2, 31199, Note_on_c, 0, 74, 0
2, 31199, Note_on_c, 0, 51, 0
2, 31199, Note_on_c, 0, 48, 0
2, 31199, Note_on_c, 0, 43, 0
2, 31200, Note_on_c, 0, 75, 55
2, 31229, Note_on_c, 0, 75, 0
2, 31230, Note_on_c, 0, 71, 55
2, 31259, Note_on_c, 0, 71, 0
2, 31260, Note_on_c, 0, 72, 58
2, 31260, Note_on_c, 0, 55, 55
2, 31290, Note_on_c, 0, 60, 49
2, 31320, Note_on_c, 0, 63, 50
2, 31349, Note_on_c, 0, 72, 0
2, 31350, Note_on_c, 0, 86, 48
2, 31379, Note_on_c, 0, 86, 0
2, 31380, Note_on_c, 0, 87, 45
2, 31409, Note_on_c, 0, 87, 0
2, 31410, Note_on_c, 0, 83, 44
2, 31439, Note_on_c, 0, 83, 0
2, 31440, Note_on_c, 0, 84, 47
2, 31469, Note_on_c, 0, 84, 0
2, 31499, Note_on_c, 0, 55, 0
2, 31499, Note_on_c, 0, 60, 0
2, 31499, Note_on_c, 0, 63, 0
2, 31500, Note_on_c, 0, 54, 47
2, 31530, Note_on_c, 0, 60, 54
2, 31560, Note_on_c, 0, 63, 51
2, 31590, Note_on_c, 0, 74, 45
2, 31619, Note_on_c, 0, 74, 0
2, 31620, Note_on_c, 0, 75, 45
2, 31649, Note_on_c, 0, 75, 0
2, 31650, Note_on_c, 0, 71, 44
2, 31679, Note_on_c, 0, 71, 0
2, 31680, Note_on_c, 0, 72, 45
2, 31709, Note_on_c, 0, 72, 0
2, 31739, Note_on_c, 0, 63, 0
2, 31739, Note_on_c, 0, 60, 0
2, 31739, Note_on_c, 0, 54, 0
2, 31740, Note_on_c, 0, 53, 47
2, 31770, Note_on_c, 0, 60, 48
2, 31800, Note_on_c, 0, 63, 46
2, 31830, Note_on_c, 0, 86, 50
2, 31859, Note_on_c, 0, 86, 0
2, 31860, Note_on_c, 0, 87, 46
2, 31889, Note_on_c, 0, 87, 0
2, 31890, Note_on_c, 0, 83, 47
2, 31919, Note_on_c, 0, 83, 0
2, 31920, Note_on_c, 0, 84, 45
2, 31949, Note_on_c, 0, 84, 0
2, 31950, Note_on_c, 0, 53, 49
2, 31979, Note_on_c, 0, 53, 0
2, 31979, Note_on_c, 0, 53, 0
2, 31979, Note_on_c, 0, 60, 0
2, 31979, Note_on_c, 0, 63, 0
2, 31980, Note_on_c, 0, 63, 45
2, 32009, Note_on_c, 0, 63, 0
2, 32010, Note_on_c, 0, 59, 49
2, 32039, Note_on_c, 0, 59, 0
2, 32040, Note_on_c, 0, 60, 51
2, 32069, Note_on_c, 0, 60, 0
2, 32070, Note_on_c, 0, 65, 61
2, 32070, Note_on_c, 0, 56, 55
2, 32099, Note_on_c, 0, 56, 0
2, 32099, Note_on_c, 0, 65, 0
2, 32100, Note_on_c, 0, 75, 65
2, 32100, Note_on_c, 0, 57, 58
2, 32129, Note_on_c, 0, 75, 0
2, 32130, Note_on_c, 0, 71, 68
2, 32159, Note_on_c, 0, 71, 0
2, 32160, Note_on_c, 0, 72, 73
2, 32189, Note_on_c, 0, 72, 0
2, 32189, Note_on_c, 0, 57, 0
2, 32190, Note_on_c, 0, 68, 77
2, 32190, Note_on_c, 0, 53, 71
2, 32219, Note_on_c, 0, 53, 0
2, 32219, Note_on_c, 0, 68, 0
2, 32220, Note_on_c, 0, 69, 76
2, 32220, Note_on_c, 0, 63, 78
2, 32249, Note_on_c, 0, 63, 0
2, 32250, Note_on_c, 0, 59, 77
2, 32279, Note_on_c, 0, 59, 0
2, 32280, Note_on_c, 0, 60, 85
2, 32309, Note_on_c, 0, 60, 0
2, 32309, Note_on_c, 0, 69, 0
2, 32310, Note_on_c, 0, 65, 86
2, 32310, Note_on_c, 0, 56, 88
2, 32339, Note_on_c, 0, 56, 0
2, 32339, Note_on_c, 0, 65, 0
2, 32340, Note_on_c, 0, 75, 92
2, 32340, Note_on_c, 0, 57, 85
2, 32369, Note_on_c, 0, 75, 0
2, 32370, Note_on_c, 0, 71, 97
2, 32399, Note_on_c, 0, 71, 0
2, 32400, Note_on_c, 0, 72, 99
2, 32429, Note_on_c, 0, 72, 0
2, 32429, Note_on_c, 0, 57, 0
2, 32430, Note_on_c, 0, 68, 98
2, 32430, Note_on_c, 0, 53, 92
2, 32459, Note_on_c, 0, 53, 0
2, 32459, Note_on_c, 0, 68, 0
2, 32460, Note_on_c, 0, 69, 98
2, 32460, Note_on_c, 0, 63, 99
2, 32489, Note_on_c, 0, 63, 0
2, 32490, Note_on_c, 0, 59, 93
2, 32519, Note_on_c, 0, 59, 0
2, 32519, Note_on_c, 0, 69, 0
2, 32520, Note_on_c, 0, 60, 95
2, 32549, Note_on_c, 0, 60, 0
2, 32550, Note_on_c, 0, 56, 100
2, 32579, Note_on_c, 0, 56, 0
2, 32580, Note_on_c, 0, 57, 92
2, 32609, Note_on_c, 0, 57, 0
2, 32610, Note_on_c, 0, 52, 91
2, 32639, Note_on_c, 0, 52, 0
2, 32640, Note_on_c, 0, 53, 99
2, 32669, Note_on_c, 0, 53, 0
2, 32670, Note_on_c, 0, 54, 97
2, 32699, Note_on_c, 0, 54, 0
2, 32700, Note_on_c, 0, 55, 94
2, 32729, Note_on_c, 0, 55, 0
2, 32730, Note_on_c, 0, 51, 95
2, 32759, Note_on_c, 0, 51, 0
2, 32760, Note_on_c, 0, 53, 92
2, 32789, Note_on_c, 0, 53, 0
2, 32790, Note_on_c, 0, 50, 98
2, 32819, Note_on_c, 0, 50, 0
2, 32820, Note_on_c, 0, 51, 92
2, 32849, Note_on_c, 0, 51, 0
2, 32850, Note_on_c, 0, 48, 90
2, 32879, Note_on_c, 0, 48, 0
2, 32880, Note_on_c, 0, 74, 52
2, 32880, Note_on_c, 0, 77, 55
2, 32910, Note_on_c, 0, 46, 56
2, 32939, Note_on_c, 0, 46, 0
2, 32940, Note_on_c, 0, 58, 49
2, 32969, Note_on_c, 0, 58, 0
2, 32969, Note_on_c, 0, 77, 0
2, 32969, Note_on_c, 0, 74, 0
2, 32970, Note_on_c, 0, 73, 57
2, 32970, Note_on_c, 0, 76, 55
2, 32979, Note_on_c, 0, 76, 0
2, 32979, Note_on_c, 0, 73, 0
2, 33000, Note_on_c, 0, 74, 58
2, 33000, Note_on_c, 0, 77, 52
2, 33030, Note_on_c, 0, 58, 49
2, 33059, Note_on_c, 0, 58, 0
2, 33060, Note_on_c, 0, 70, 55
2, 33089, Note_on_c, 0, 70, 0
2, 33089, Note_on_c, 0, 77, 0
2, 33089, Note_on_c, 0, 74, 0
2, 33090, Note_on_c, 0, 73, 58
2, 33090, Note_on_c, 0, 76, 58
2, 33099, Note_on_c, 0, 76, 0
2, 33099, Note_on_c, 0, 73, 0
2, 33120, Note_on_c, 0, 74, 54
2, 33120, Note_on_c, 0, 77, 54
2, 33150, Note_on_c, 0, 70, 56
2, 33179, Note_on_c, 0, 70, 0
2, 33180, Note_on_c, 0, 82, 53
2, 33209, Note_on_c, 0, 82, 0
2, 33209, Note_on_c, 0, 77, 0
2, 33209, Note_on_c, 0, 74, 0
2, 33210, Note_on_c, 0, 75, 55
2, 33210, Note_on_c, 0, 72, 55
2, 33219, Note_on_c, 0, 72, 0
2, 33219, Note_on_c, 0, 75, 0
2, 33240, Note_on_c, 0, 72, 52
2, 33240, Note_on_c, 0, 75, 52
2, 33269, Note_on_c, 0, 75, 0
2, 33269, Note_on_c, 0, 72, 0
2, 33270, Note_on_c, 0, 70, 55
2, 33270, Note_on_c, 0, 74, 55
2, 33279, Note_on_c, 0, 74, 0
2, 33279, Note_on_c, 0, 70, 0
2, 33300, Note_on_c, 0, 70, 55
2, 33300, Note_on_c, 0, 74, 59
2, 33329, Note_on_c, 0, 74, 0
2, 33329, Note_on_c, 0, 70, 0
2, 33330, Note_on_c, 0, 69, 53
2, 33330, Note_on_c, 0, 72, 52
2, 33339, Note_on_c, 0, 72, 0
2, 33339, Note_on_c, 0, 69, 0
2, 33360, Note_on_c, 0, 69, 55
2, 33360, Note_on_c, 0, 72, 57
2, 33389, Note_on_c, 0, 72, 0
2, 33389, Note_on_c, 0, 69, 0
2, 33390, Note_on_c, 0, 67, 60
2, 33390, Note_on_c, 0, 70, 53
2, 33399, Note_on_c, 0, 70, 0
2, 33399, Note_on_c, 0, 67, 0
2, 33420, Note_on_c, 0, 67, 55
2, 33420, Note_on_c, 0, 70, 61
2, 33449, Note_on_c, 0, 70, 0
2, 33449, Note_on_c, 0, 67, 0
2, 33450, Note_on_c, 0, 65, 61
2, 33450, Note_on_c, 0, 69, 56
2, 33459, Note_on_c, 0, 69, 0
2, 33459, Note_on_c, 0, 65, 0
2, 33480, Note_on_c, 0, 65, 61
2, 33480, Note_on_c, 0, 69, 58
2, 33509, Note_on_c, 0, 69, 0
2, 33509, Note_on_c, 0, 65, 0
2, 33510, Note_on_c, 0, 63, 65
2, 33510, Note_on_c, 0, 67, 63
2, 33519, Note_on_c, 0, 67, 0
2, 33519, Note_on_c, 0, 63, 0
2, 33540, Note_on_c, 0, 63, 66
2, 33540, Note_on_c, 0, 67, 66
2, 33569, Note_on_c, 0, 67, 0
2, 33569, Note_on_c, 0, 63, 0
2, 33570, Note_on_c, 0, 62, 65
2, 33570, Note_on_c, 0, 65, 67
2, 33579, Note_on_c, 0, 65, 0
2, 33579, Note_on_c, 0, 62, 0
2, 33600, Note_on_c, 0, 59, 68
2, 33600, Note_on_c, 0, 62, 65
2, 33660, Note_on_c, 0, 41, 61
2, 33689, Note_on_c, 0, 41, 0
2, 33719, Note_on_c, 0, 62, 0
2, 33719, Note_on_c, 0, 59, 0
2, 33720, Note_on_c, 0, 63, 69
2, 33720, Note_on_c, 0, 60, 72
2, 33720, Note_on_c, 0, 41, 62
2, 33749, Note_on_c, 0, 41, 0
2, 33779, Note_on_c, 0, 60, 0
2, 33779, Note_on_c, 0, 63, 0
2, 33780, Note_on_c, 0, 41, 67
2, 33809, Note_on_c, 0, 41, 0
2, 33840, Note_on_c, 0, 72, 62
2, 33840, Note_on_c, 0, 75, 65
2, 33870, Note_on_c, 0, 41, 58
2, 33899, Note_on_c, 0, 41, 0
2, 33900, Note_on_c, 0, 53, 54
2, 33929, Note_on_c, 0, 53, 0
2, 33929, Note_on_c, 0, 75, 0
2, 33929, Note_on_c, 0, 72, 0
2, 33930, Note_on_c, 0, 71, 59
2, 33930, Note_on_c, 0, 74, 62
2, 33939, Note_on_c, 0, 74, 0
2, 33939, Note_on_c, 0, 71, 0
2, 33960, Note_on_c, 0, 75, 63
2, 33960, Note_on_c, 0, 72, 58
2, 33990, Note_on_c, 0, 53, 60
2, 34019, Note_on_c, 0, 53, 0
2, 34020, Note_on_c, 0, 65, 55
2, 34049, Note_on_c, 0, 65, 0
2, 34049, Note_on_c, 0, 72, 0
2, 34049, Note_on_c, 0, 75, 0
2, 34050, Note_on_c, 0, 71, 61
2, 34050, Note_on_c, 0, 74, 61
2, 34059, Note_on_c, 0, 74, 0
2, 34059, Note_on_c, 0, 71, 0
2, 34080, Note_on_c, 0, 72, 59
2, 34080, Note_on_c, 0, 75, 61
2, 34110, Note_on_c, 0, 54, 59
2, 34139, Note_on_c, 0, 54, 0
2, 34140, Note_on_c, 0, 66, 57
2, 34169, Note_on_c, 0, 66, 0
2, 34169, Note_on_c, 0, 75, 0
2, 34169, Note_on_c, 0, 72, 0
2, 34170, Note_on_c, 0, 71, 59
2, 34170, Note_on_c, 0, 74, 58
2, 34179, Note_on_c, 0, 74, 0
2, 34179, Note_on_c, 0, 71, 0
2, 34200, Note_on_c, 0, 72, 57
2, 34200, Note_on_c, 0, 75, 53
2, 34230, Note_on_c, 0, 54, 44
2, 34259, Note_on_c, 0, 54, 0
2, 34260, Note_on_c, 0, 66, 49
2, 34289, Note_on_c, 0, 66, 0
2, 34289, Note_on_c, 0, 75, 0
2, 34289, Note_on_c, 0, 72, 0
2, 34290, Note_on_c, 0, 71, 48
2, 34290, Note_on_c, 0, 74, 48
2, 34299, Note_on_c, 0, 74, 0
2, 34299, Note_on_c, 0, 71, 0
2, 34320, Note_on_c, 0, 72, 45
2, 34320, Note_on_c, 0, 75, 48
2, 34350, Note_on_c, 0, 55, 48
2, 34379, Note_on_c, 0, 55, 0
2, 34380, Note_on_c, 0, 67, 40
2, 34409, Note_on_c, 0, 67, 0
2, 34409, Note_on_c, 0, 75, 0
2, 34409, Note_on_c, 0, 72, 0
2, 34410, Note_on_c, 0, 71, 47
2, 34410, Note_on_c, 0, 74, 50
2, 34419, Note_on_c, 0, 74, 0
2, 34419, Note_on_c, 0, 71, 0
2, 34440, Note_on_c, 0, 72, 48
2, 34440, Note_on_c, 0, 75, 48
2, 34470, Note_on_c, 0, 55, 47
2, 34499, Note_on_c, 0, 55, 0
2, 34500, Note_on_c, 0, 67, 48
2, 34529, Note_on_c, 0, 67, 0
2, 34529, Note_on_c, 0, 75, 0
2, 34529, Note_on_c, 0, 72, 0
2, 34530, Note_on_c, 0, 74, 44
2, 34530, Note_on_c, 0, 71, 44
2, 34539, Note_on_c, 0, 71, 0
2, 34539, Note_on_c, 0, 74, 0
2, 34560, Note_on_c, 0, 75, 89
2, 34560, Note_on_c, 0, 44, 100
2, 34560, Note_on_c, 0, 56, 97
2, 34579, Note_on_c, 0, 75, 0
2, 34580, Note_on_c, 0, 72, 89
2, 34599, Note_on_c, 0, 72, 0
2, 34600, Note_on_c, 0, 63, 89
2, 34619, Note_on_c, 0, 63, 0
2, 34620, Note_on_c, 0, 75, 86
2, 34639, Note_on_c, 0, 75, 0
2, 34640, Note_on_c, 0, 72, 87
2, 34659, Note_on_c, 0, 72, 0
2, 34660, Note_on_c, 0, 63, 82
2, 34679, Note_on_c, 0, 63, 0
2, 34680, Note_on_c, 0, 75, 83
2, 34699, Note_on_c, 0, 75, 0
2, 34700, Note_on_c, 0, 72, 85
2, 34709, Note_on_c, 0, 56, 0
2, 34709, Note_on_c, 0, 44, 0
2, 34710, Note_on_c, 0, 50, 93
2, 34719, Note_on_c, 0, 72, 0
2, 34720, Note_on_c, 0, 63, 86
2, 34739, Note_on_c, 0, 63, 0
2, 34739, Note_on_c, 0, 50, 0
2, 34740, Note_on_c, 0, 75, 86
2, 34740, Note_on_c, 0, 51, 97
2, 34759, Note_on_c, 0, 75, 0
2, 34760, Note_on_c, 0, 72, 82
2, 34769, Note_on_c, 0, 51, 0
2, 34770, Note_on_c, 0, 47, 96
2, 34779, Note_on_c, 0, 72, 0
2, 34780, Note_on_c, 0, 63, 85
2, 34799, Note_on_c, 0, 63, 0
2, 34799, Note_on_c, 0, 47, 0
2, 34800, Note_on_c, 0, 75, 89
2, 34800, Note_on_c, 0, 48, 96
2, 34819, Note_on_c, 0, 75, 0
2, 34820, Note_on_c, 0, 72, 83
2, 34829, Note_on_c, 0, 48, 0
2, 34830, Note_on_c, 0, 43, 100
2, 34839, Note_on_c, 0, 72, 0
2, 34840, Note_on_c, 0, 63, 86
2, 34859, Note_on_c, 0, 63, 0
2, 34859, Note_on_c, 0, 43, 0
2, 34860, Note_on_c, 0, 75, 83
2, 34860, Note_on_c, 0, 44, 95
2, 34879, Note_on_c, 0, 75, 0
2, 34880, Note_on_c, 0, 72, 82
2, 34899, Note_on_c, 0, 72, 0
2, 34900, Note_on_c, 0, 63, 88
2, 34919, Note_on_c, 0, 63, 0
2, 34920, Note_on_c, 0, 75, 89
2, 34939, Note_on_c, 0, 75, 0
2, 34940, Note_on_c, 0, 72, 86
2, 34949, Note_on_c, 0, 44, 0
2, 34950, Note_on_c, 0, 50, 93
2, 34959, Note_on_c, 0, 72, 0
2, 34960, Note_on_c, 0, 63, 89
2, 34979, Note_on_c, 0, 63, 0
2, 34979, Note_on_c, 0, 50, 0
2, 34980, Note_on_c, 0, 75, 87
2, 34980, Note_on_c, 0, 51, 97
2, 34999, Note_on_c, 0, 75, 0
2, 35000, Note_on_c, 0, 72, 87
2, 35009, Note_on_c, 0, 51, 0
2, 35010, Note_on_c, 0, 47, 93
2, 35019, Note_on_c, 0, 72, 0
2, 35020, Note_on_c, 0, 63, 82
2, 35039, Note_on_c, 0, 63, 0
2, 35039, Note_on_c, 0, 47, 0
2, 35040, Note_on_c, 0, 75, 89
2, 35040, Note_on_c, 0, 48, 91
2, 35059, Note_on_c, 0, 75, 0
2, 35060, Note_on_c, 0, 72, 82
2, 35069, Note_on_c, 0, 48, 0
2, 35070, Note_on_c, 0, 43, 95
2, 35079, Note_on_c, 0, 72, 0
2, 35080, Note_on_c, 0, 63, 83
2, 35099, Note_on_c, 0, 63, 0
2, 35099, Note_on_c, 0, 43, 0
2, 35100, Note_on_c, 0, 75, 83
2, 35100, Note_on_c, 0, 44, 94
2, 35119, Note_on_c, 0, 75, 0
2, 35120, Note_on_c, 0, 72, 83
2, 35139, Note_on_c, 0, 72, 0
2, 35140, Note_on_c, 0, 63, 83
2, 35159, Note_on_c, 0, 63, 0
2, 35160, Note_on_c, 0, 75, 85
2, 35179, Note_on_c, 0, 75, 0
2, 35180, Note_on_c, 0, 72, 89
2, 35189, Note_on_c, 0, 44, 0
2, 35190, Note_on_c, 0, 48, 100
2, 35199, Note_on_c, 0, 72, 0
2, 35200, Note_on_c, 0, 63, 89
2, 35219, Note_on_c, 0, 63, 0
2, 35219, Note_on_c, 0, 48, 0
2, 35220, Note_on_c, 0, 75, 85
2, 35220, Note_on_c, 0, 44, 95
2, 35239, Note_on_c, 0, 75, 0
2, 35240, Note_on_c, 0, 72, 84
2, 35249, Note_on_c, 0, 44, 0
2, 35250, Note_on_c, 0, 43, 98
2, 35259, Note_on_c, 0, 72, 0
2, 35260, Note_on_c, 0, 63, 88
2, 35279, Note_on_c, 0, 63, 0
2, 35279, Note_on_c, 0, 43, 0
2, 35280, Note_on_c, 0, 74, 87
2, 35280, Note_on_c, 0, 42, 96
2, 35294, Note_on_c, 0, 42, 0
2, 35299, Note_on_c, 0, 74, 0
2, 35300, Note_on_c, 0, 72, 84
2, 35310, Note_on_c, 0, 38, 91
2, 35319, Note_on_c, 0, 72, 0
2, 35320, Note_on_c, 0, 62, 87
2, 35324, Note_on_c, 0, 38, 0
2, 35339, Note_on_c, 0, 62, 0
2, 35340, Note_on_c, 0, 74, 87
2, 35340, Note_on_c, 0, 42, 94
2, 35354, Note_on_c, 0, 42, 0
2, 35359, Note_on_c, 0, 74, 0
2, 35360, Note_on_c, 0, 72, 85
2, 35370, Note_on_c, 0, 45, 98
2, 35379, Note_on_c, 0, 72, 0
2, 35380, Note_on_c, 0, 62, 82
2, 35384, Note_on_c, 0, 45, 0
2, 35399, Note_on_c, 0, 62, 0
2, 35400, Note_on_c, 0, 74, 82
2, 35400, Note_on_c, 0, 50, 91
2, 35414, Note_on_c, 0, 50, 0
2, 35419, Note_on_c, 0, 74, 0
2, 35420, Note_on_c, 0, 72, 82
2, 35430, Note_on_c, 0, 52, 90
2, 35439, Note_on_c, 0, 72, 0
2, 35440, Note_on_c, 0, 62, 83
2, 35444, Note_on_c, 0, 52, 0
2, 35459, Note_on_c, 0, 62, 0
2, 35460, Note_on_c, 0, 74, 85
2, 35460, Note_on_c, 0, 54, 88
2, 35474, Note_on_c, 0, 54, 0
2, 35479, Note_on_c, 0, 74, 0
2, 35480, Note_on_c, 0, 72, 82
2, 35490, Note_on_c, 0, 55, 86
2, 35499, Note_on_c, 0, 72, 0
2, 35500, Note_on_c, 0, 62, 84
2, 35504, Note_on_c, 0, 55, 0
2, 35519, Note_on_c, 0, 62, 0
2, 35520, Note_on_c, 0, 74, 87
2, 35520, Note_on_c, 0, 57, 85
2, 35534, Note_on_c, 0, 57, 0
2, 35539, Note_on_c, 0, 74, 0
2, 35540, Note_on_c, 0, 72, 82
2, 35550, Note_on_c, 0, 55, 91
2, 35559, Note_on_c, 0, 72, 0
2, 35560, Note_on_c, 0, 62, 86
2, 35564, Note_on_c, 0, 55, 0
2, 35579, Note_on_c, 0, 62, 0
2, 35580, Note_on_c, 0, 74, 82
2, 35580, Note_on_c, 0, 54, 84
2, 35594, Note_on_c, 0, 54, 0
2, 35599, Note_on_c, 0, 74, 0
2, 35600, Note_on_c, 0, 72, 85
2, 35610, Note_on_c, 0, 51, 85
2, 35619, Note_on_c, 0, 72, 0
2, 35620, Note_on_c, 0, 62, 86
2, 35624, Note_on_c, 0, 51, 0
2, 35639, Note_on_c, 0, 62, 0
2, 35640, Note_on_c, 0, 74, 88
2, 35640, Note_on_c, 0, 50, 83
2, 35654, Note_on_c, 0, 50, 0
2, 35659, Note_on_c, 0, 74, 0
2, 35660, Note_on_c, 0, 72, 84
2, 35670, Note_on_c, 0, 48, 82
2, 35679, Note_on_c, 0, 72, 0
2, 35680, Note_on_c, 0, 62, 89
2, 35684, Note_on_c, 0, 48, 0
2, 35699, Note_on_c, 0, 62, 0
2, 35700, Note_on_c, 0, 74, 87
2, 35700, Note_on_c, 0, 46, 82
2, 35714, Note_on_c, 0, 46, 0
2, 35719, Note_on_c, 0, 74, 0
2, 35720, Note_on_c, 0, 72, 85
2, 35730, Note_on_c, 0, 45, 80
2, 35739, Note_on_c, 0, 72, 0
2, 35740, Note_on_c, 0, 62, 88
2, 35744, Note_on_c, 0, 45, 0
2, 35759, Note_on_c, 0, 62, 0
2, 35760, Note_on_c, 0, 74, 89
2, 35760, Note_on_c, 0, 43, 91
2, 35779, Note_on_c, 0, 74, 0
2, 35780, Note_on_c, 0, 70, 88
2, 35799, Note_on_c, 0, 70, 0
2, 35800, Note_on_c, 0, 62, 85
2, 35819, Note_on_c, 0, 62, 0
2, 35820, Note_on_c, 0, 74, 87
2, 35839, Note_on_c, 0, 74, 0
2, 35840, Note_on_c, 0, 70, 83
2, 35859, Note_on_c, 0, 70, 0
2, 35860, Note_on_c, 0, 67, 85
2, 35879, Note_on_c, 0, 67, 0
2, 35880, Note_on_c, 0, 74, 87
2, 35899, Note_on_c, 0, 74, 0
2, 35900, Note_on_c, 0, 70, 89
2, 35909, Note_on_c, 0, 43, 0
2, 35910, Note_on_c, 0, 61, 90
2, 35919, Note_on_c, 0, 70, 0
2, 35920, Note_on_c, 0, 67, 89
2, 35939, Note_on_c, 0, 67, 0
2, 35939, Note_on_c, 0, 61, 0
2, 35940, Note_on_c, 0, 74, 87
2, 35940, Note_on_c, 0, 62, 95
2, 35959, Note_on_c, 0, 74, 0
2, 35960, Note_on_c, 0, 70, 85
2, 35969, Note_on_c, 0, 62, 0
2, 35970, Note_on_c, 0, 57, 96
2, 35979, Note_on_c, 0, 70, 0
2, 35980, Note_on_c, 0, 67, 89
2, 35999, Note_on_c, 0, 67, 0
2, 35999, Note_on_c, 0, 57, 0
2, 36000, Note_on_c, 0, 74, 83
2, 36000, Note_on_c, 0, 58, 99
2, 36019, Note_on_c, 0, 74, 0
2, 36020, Note_on_c, 0, 70, 89
2, 36029, Note_on_c, 0, 58, 0
2, 36030, Note_on_c, 0, 54, 97
2, 36039, Note_on_c, 0, 70, 0
2, 36040, Note_on_c, 0, 67, 82
2, 36059, Note_on_c, 0, 67, 0
2, 36059, Note_on_c, 0, 54, 0
2, 36060, Note_on_c, 0, 74, 83
2, 36060, Note_on_c, 0, 55, 91
2, 36079, Note_on_c, 0, 74, 0
2, 36080, Note_on_c, 0, 70, 88
2, 36099, Note_on_c, 0, 70, 0
2, 36100, Note_on_c, 0, 67, 86
2, 36119, Note_on_c, 0, 67, 0
2, 36120, Note_on_c, 0, 74, 86
2, 36139, Note_on_c, 0, 74, 0
2, 36140, Note_on_c, 0, 70, 83
2, 36149, Note_on_c, 0, 55, 0
2, 36150, Note_on_c, 0, 61, 96
2, 36159, Note_on_c, 0, 70, 0
2, 36160, Note_on_c, 0, 67, 83
2, 36179, Note_on_c, 0, 67, 0
2, 36179, Note_on_c, 0, 61, 0
2, 36180, Note_on_c, 0, 74, 82
2, 36180, Note_on_c, 0, 62, 99
2, 36199, Note_on_c, 0, 74, 0
2, 36200, Note_on_c, 0, 70, 85
2, 36209, Note_on_c, 0, 62, 0
2, 36210, Note_on_c, 0, 57, 100
2, 36219, Note_on_c, 0, 70, 0
2, 36220, Note_on_c, 0, 67, 84
2, 36239, Note_on_c, 0, 67, 0
2, 36239, Note_on_c, 0, 57, 0
2, 36240, Note_on_c, 0, 74, 88
2, 36240, Note_on_c, 0, 58, 93
2, 36259, Note_on_c, 0, 74, 0
2, 36260, Note_on_c, 0, 70, 85
2, 36269, Note_on_c, 0, 58, 0
2, 36270, Note_on_c, 0, 54, 92
2, 36279, Note_on_c, 0, 70, 0
2, 36280, Note_on_c, 0, 67, 84
2, 36299, Note_on_c, 0, 67, 0
2, 36299, Note_on_c, 0, 54, 0
2, 36300, Note_on_c, 0, 74, 84
2, 36300, Note_on_c, 0, 55, 100
2, 36319, Note_on_c, 0, 74, 0
2, 36320, Note_on_c, 0, 70, 82
2, 36339, Note_on_c, 0, 70, 0
2, 36340, Note_on_c, 0, 67, 85
2, 36359, Note_on_c, 0, 67, 0
2, 36360, Note_on_c, 0, 74, 88
2, 36379, Note_on_c, 0, 74, 0
2, 36380, Note_on_c, 0, 70, 87
2, 36389, Note_on_c, 0, 55, 0
2, 36390, Note_on_c, 0, 58, 100
2, 36399, Note_on_c, 0, 70, 0
2, 36400, Note_on_c, 0, 67, 83
2, 36419, Note_on_c, 0, 67, 0
2, 36419, Note_on_c, 0, 58, 0
2, 36420, Note_on_c, 0, 74, 83
2, 36420, Note_on_c, 0, 55, 96
2, 36439, Note_on_c, 0, 74, 0
2, 36440, Note_on_c, 0, 70, 84
2, 36449, Note_on_c, 0, 55, 0
2, 36450, Note_on_c, 0, 53, 93
2, 36459, Note_on_c, 0, 70, 0
2, 36460, Note_on_c, 0, 67, 82
2, 36479, Note_on_c, 0, 67, 0
2, 36479, Note_on_c, 0, 53, 0
2, 36480, Note_on_c, 0, 72, 83
2, 36480, Note_on_c, 0, 52, 92
2, 36494, Note_on_c, 0, 52, 0
2, 36499, Note_on_c, 0, 72, 0
2, 36500, Note_on_c, 0, 70, 89
2, 36510, Note_on_c, 0, 48, 99
2, 36519, Note_on_c, 0, 70, 0
2, 36520, Note_on_c, 0, 67, 89
2, 36524, Note_on_c, 0, 48, 0
2, 36539, Note_on_c, 0, 67, 0
2, 36540, Note_on_c, 0, 72, 89
2, 36540, Note_on_c, 0, 52, 99
2, 36554, Note_on_c, 0, 52, 0
2, 36559, Note_on_c, 0, 72, 0
2, 36560, Note_on_c, 0, 70, 82
2, 36570, Note_on_c, 0, 55, 100
2, 36579, Note_on_c, 0, 70, 0
2, 36580, Note_on_c, 0, 67, 86
2, 36584, Note_on_c, 0, 55, 0
2, 36599, Note_on_c, 0, 67, 0
2, 36600, Note_on_c, 0, 72, 88
2, 36600, Note_on_c, 0, 60, 97
2, 36614, Note_on_c, 0, 60, 0
2, 36619, Note_on_c, 0, 72, 0
2, 36620, Note_on_c, 0, 70, 84
2, 36630, Note_on_c, 0, 62, 100
2, 36639, Note_on_c, 0, 70, 0
2, 36640, Note_on_c, 0, 67, 88
2, 36644, Note_on_c, 0, 62, 0
2, 36659, Note_on_c, 0, 67, 0
2, 36660, Note_on_c, 0, 72, 87
2, 36660, Note_on_c, 0, 64, 90
2, 36674, Note_on_c, 0, 64, 0
2, 36679, Note_on_c, 0, 72, 0
2, 36680, Note_on_c, 0, 70, 83
2, 36690, Note_on_c, 0, 65, 93
2, 36699, Note_on_c, 0, 70, 0
2, 36700, Note_on_c, 0, 67, 84
2, 36704, Note_on_c, 0, 65, 0
2, 36719, Note_on_c, 0, 67, 0
2, 36720, Note_on_c, 0, 72, 82
2, 36720, Note_on_c, 0, 67, 100
2, 36734, Note_on_c, 0, 67, 0
2, 36739, Note_on_c, 0, 72, 0
2, 36740, Note_on_c, 0, 70, 88
2, 36750, Note_on_c, 0, 65, 90
2, 36759, Note_on_c, 0, 70, 0
2, 36760, Note_on_c, 0, 67, 84
2, 36764, Note_on_c, 0, 65, 0
2, 36779, Note_on_c, 0, 67, 0
2, 36780, Note_on_c, 0, 76, 88
2, 36780, Note_on_c, 0, 64, 93
2, 36794, Note_on_c, 0, 64, 0
2, 36799, Note_on_c, 0, 76, 0
2, 36800, Note_on_c, 0, 70, 86
2, 36810, Note_on_c, 0, 61, 96
2, 36819, Note_on_c, 0, 70, 0
2, 36820, Note_on_c, 0, 67, 89
2, 36824, Note_on_c, 0, 61, 0
2, 36839, Note_on_c, 0, 67, 0
2, 36840, Note_on_c, 0, 76, 86
2, 36840, Note_on_c, 0, 60, 100
2, 36854, Note_on_c, 0, 60, 0
2, 36859, Note_on_c, 0, 76, 0
2, 36860, Note_on_c, 0, 70, 83
2, 36870, Note_on_c, 0, 58, 98
2, 36879, Note_on_c, 0, 70, 0
2, 36880, Note_on_c, 0, 67, 83
2, 36884, Note_on_c, 0, 58, 0
2, 36899, Note_on_c, 0, 67, 0
2, 36900, Note_on_c, 0, 76, 83
2, 36900, Note_on_c, 0, 56, 96
2, 36914, Note_on_c, 0, 56, 0
2, 36919, Note_on_c, 0, 76, 0
2, 36920, Note_on_c, 0, 70, 84
2, 36930, Note_on_c, 0, 55, 93
2, 36939, Note_on_c, 0, 70, 0
2, 36940, Note_on_c, 0, 67, 86
2, 36944, Note_on_c, 0, 55, 0
2, 36959, Note_on_c, 0, 67, 0
2, 36960, Note_on_c, 0, 77, 86
2, 36960, Note_on_c, 0, 53, 92
2, 36974, Note_on_c, 0, 53, 0
2, 36979, Note_on_c, 0, 77, 0
2, 36980, Note_on_c, 0, 68, 84
2, 36990, Note_on_c, 0, 41, 100
2, 36999, Note_on_c, 0, 68, 0
2, 37000, Note_on_c, 0, 65, 89
2, 37004, Note_on_c, 0, 41, 0
2, 37019, Note_on_c, 0, 65, 0
2, 37020, Note_on_c, 0, 77, 87
2, 37020, Note_on_c, 0, 44, 91
2, 37034, Note_on_c, 0, 44, 0
2, 37039, Note_on_c, 0, 77, 0
2, 37040, Note_on_c, 0, 68, 88
2, 37050, Note_on_c, 0, 48, 99
2, 37059, Note_on_c, 0, 68, 0
2, 37060, Note_on_c, 0, 65, 88
2, 37064, Note_on_c, 0, 48, 0
2, 37079, Note_on_c, 0, 65, 0
2, 37080, Note_on_c, 0, 77, 85
2, 37080, Note_on_c, 0, 53, 94
2, 37094, Note_on_c, 0, 53, 0
2, 37099, Note_on_c, 0, 77, 0
2, 37100, Note_on_c, 0, 68, 89
2, 37110, Note_on_c, 0, 55, 94
2, 37119, Note_on_c, 0, 68, 0
2, 37120, Note_on_c, 0, 65, 82
2, 37124, Note_on_c, 0, 55, 0
2, 37139, Note_on_c, 0, 65, 0
2, 37140, Note_on_c, 0, 77, 87
2, 37140, Note_on_c, 0, 56, 90
2, 37154, Note_on_c, 0, 56, 0
2, 37159, Note_on_c, 0, 77, 0
2, 37160, Note_on_c, 0, 68, 82
2, 37170, Note_on_c, 0, 58, 95
2, 37179, Note_on_c, 0, 68, 0
2, 37180, Note_on_c, 0, 65, 85
2, 37184, Note_on_c, 0, 58, 0
2, 37199, Note_on_c, 0, 65, 0
2, 37200, Note_on_c, 0, 77, 89
2, 37200, Note_on_c, 0, 60, 98
2, 37214, Note_on_c, 0, 60, 0
2, 37219, Note_on_c, 0, 77, 0
2, 37220, Note_on_c, 0, 69, 85
2, 37230, Note_on_c, 0, 58, 97
2, 37239, Note_on_c, 0, 69, 0
2, 37240, Note_on_c, 0, 65, 86
2, 37244, Note_on_c, 0, 58, 0
2, 37259, Note_on_c, 0, 65, 0
2, 37260, Note_on_c, 0, 75, 88
2, 37260, Note_on_c, 0, 57, 92
2, 37274, Note_on_c, 0, 57, 0
2, 37279, Note_on_c, 0, 75, 0
2, 37280, Note_on_c, 0, 69, 86
2, 37290, Note_on_c, 0, 55, 97
2, 37299, Note_on_c, 0, 69, 0
2, 37300, Note_on_c, 0, 65, 88
2, 37304, Note_on_c, 0, 55, 0
2, 37319, Note_on_c, 0, 65, 0
2, 37320, Note_on_c, 0, 75, 87
2, 37320, Note_on_c, 0, 53, 95
2, 37334, Note_on_c, 0, 53, 0
2, 37339, Note_on_c, 0, 75, 0
2, 37340, Note_on_c, 0, 69, 88
2, 37350, Note_on_c, 0, 51, 94
2, 37359, Note_on_c, 0, 69, 0
2, 37360, Note_on_c, 0, 65, 89
2, 37364, Note_on_c, 0, 51, 0
2, 37379, Note_on_c, 0, 65, 0
2, 37380, Note_on_c, 0, 75, 87
2, 37380, Note_on_c, 0, 50, 99
2, 37394, Note_on_c, 0, 50, 0
2, 37399, Note_on_c, 0, 75, 0
2, 37400, Note_on_c, 0, 69, 85
2, 37410, Note_on_c, 0, 48, 90
2, 37419, Note_on_c, 0, 69, 0
2, 37420, Note_on_c, 0, 65, 83
2, 37424, Note_on_c, 0, 48, 0
2, 37439, Note_on_c, 0, 65, 0
2, 37440, Note_on_c, 0, 75, 87
2, 37440, Note_on_c, 0, 46, 92
2, 37454, Note_on_c, 0, 46, 0
2, 37459, Note_on_c, 0, 75, 0
2, 37460, Note_on_c, 0, 70, 85
2, 37470, Note_on_c, 0, 34, 99
2, 37479, Note_on_c, 0, 70, 0
2, 37480, Note_on_c, 0, 65, 82
2, 37484, Note_on_c, 0, 34, 0
2, 37499, Note_on_c, 0, 65, 0
2, 37500, Note_on_c, 0, 74, 84
2, 37500, Note_on_c, 0, 38, 95
2, 37514, Note_on_c, 0, 38, 0
2, 37519, Note_on_c, 0, 74, 0
2, 37520, Note_on_c, 0, 70, 89
2, 37530, Note_on_c, 0, 41, 93
2, 37539, Note_on_c, 0, 70, 0
2, 37540, Note_on_c, 0, 65, 83
2, 37544, Note_on_c, 0, 41, 0
2, 37559, Note_on_c, 0, 65, 0
2, 37560, Note_on_c, 0, 74, 84
2, 37560, Note_on_c, 0, 46, 90
2, 37574, Note_on_c, 0, 46, 0
2, 37579, Note_on_c, 0, 74, 0
2, 37580, Note_on_c, 0, 70, 89
2, 37590, Note_on_c, 0, 48, 92
2, 37599, Note_on_c, 0, 70, 0
2, 37600, Note_on_c, 0, 65, 89
2, 37604, Note_on_c, 0, 48, 0
2, 37619, Note_on_c, 0, 65, 0
2, 37620, Note_on_c, 0, 74, 85
2, 37620, Note_on_c, 0, 50, 93
2, 37634, Note_on_c, 0, 50, 0
2, 37639, Note_on_c, 0, 74, 0
2, 37640, Note_on_c, 0, 70, 85
2, 37650, Note_on_c, 0, 51, 94
2, 37659, Note_on_c, 0, 70, 0
2, 37660, Note_on_c, 0, 65, 86
2, 37664, Note_on_c, 0, 51, 0
2, 37679, Note_on_c, 0, 65, 0
2, 37680, Note_on_c, 0, 74, 89
2, 37680, Note_on_c, 0, 53, 104
2, 37694, Note_on_c, 0, 53, 0
2, 37699, Note_on_c, 0, 74, 0
2, 37700, Note_on_c, 0, 70, 84
2, 37710, Note_on_c, 0, 51, 93
2, 37719, Note_on_c, 0, 70, 0
2, 37720, Note_on_c, 0, 65, 82
2, 37724, Note_on_c, 0, 51, 0
2, 37739, Note_on_c, 0, 65, 0
2, 37740, Note_on_c, 0, 74, 86
2, 37740, Note_on_c, 0, 50, 97
2, 37754, Note_on_c, 0, 50, 0
2, 37759, Note_on_c, 0, 74, 0
2, 37760, Note_on_c, 0, 70, 89
2, 37770, Note_on_c, 0, 48, 94
2, 37779, Note_on_c, 0, 70, 0
2, 37780, Note_on_c, 0, 65, 87
2, 37784, Note_on_c, 0, 48, 0
2, 37799, Note_on_c, 0, 65, 0
2, 37800, Note_on_c, 0, 74, 83
2, 37800, Note_on_c, 0, 46, 97
2, 37814, Note_on_c, 0, 46, 0
2, 37819, Note_on_c, 0, 74, 0
2, 37820, Note_on_c, 0, 70, 89
2, 37830, Note_on_c, 0, 48, 94
2, 37839, Note_on_c, 0, 70, 0
2, 37840, Note_on_c, 0, 65, 82
2, 37844, Note_on_c, 0, 48, 0
2, 37859, Note_on_c, 0, 65, 0
2, 37860, Note_on_c, 0, 74, 85
2, 37860, Note_on_c, 0, 50, 93
2, 37874, Note_on_c, 0, 50, 0
2, 37879, Note_on_c, 0, 74, 0
2, 37880, Note_on_c, 0, 70, 84
2, 37890, Note_on_c, 0, 51, 98
2, 37899, Note_on_c, 0, 70, 0
2, 37900, Note_on_c, 0, 65, 88
2, 37904, Note_on_c, 0, 51, 0
2, 37919, Note_on_c, 0, 65, 0
2, 37920, Note_on_c, 0, 74, 85
2, 37920, Note_on_c, 0, 53, 108
2, 37934, Note_on_c, 0, 53, 0
2, 37939, Note_on_c, 0, 74, 0
2, 37940, Note_on_c, 0, 70, 89
2, 37950, Note_on_c, 0, 51, 95
2, 37959, Note_on_c, 0, 70, 0
2, 37960, Note_on_c, 0, 65, 87
2, 37964, Note_on_c, 0, 51, 0
2, 37979, Note_on_c, 0, 65, 0
2, 37980, Note_on_c, 0, 77, 85
2, 37980, Note_on_c, 0, 50, 90
2, 37994, Note_on_c, 0, 50, 0
2, 37999, Note_on_c, 0, 77, 0
2, 38000, Note_on_c, 0, 74, 85
2, 38010, Note_on_c, 0, 48, 93
2, 38019, Note_on_c, 0, 74, 0
2, 38020, Note_on_c, 0, 70, 84
2, 38024, Note_on_c, 0, 48, 0
2, 38039, Note_on_c, 0, 70, 0
2, 38040, Note_on_c, 0, 77, 83
2, 38040, Note_on_c, 0, 46, 92
2, 38054, Note_on_c, 0, 46, 0
2, 38059, Note_on_c, 0, 77, 0
2, 38060, Note_on_c, 0, 74, 85
2, 38070, Note_on_c, 0, 48, 94
2, 38079, Note_on_c, 0, 74, 0
2, 38080, Note_on_c, 0, 70, 84
2, 38084, Note_on_c, 0, 48, 0
2, 38099, Note_on_c, 0, 70, 0
2, 38100, Note_on_c, 0, 77, 85
2, 38100, Note_on_c, 0, 50, 96
2, 38114, Note_on_c, 0, 50, 0
2, 38119, Note_on_c, 0, 77, 0
2, 38120, Note_on_c, 0, 74, 82
2, 38130, Note_on_c, 0, 51, 92
2, 38139, Note_on_c, 0, 74, 0
2, 38140, Note_on_c, 0, 70, 87
2, 38144, Note_on_c, 0, 51, 0
2, 38159, Note_on_c, 0, 70, 0
2, 38160, Note_on_c, 0, 77, 89
2, 38160, Note_on_c, 0, 53, 106
2, 38174, Note_on_c, 0, 53, 0
2, 38179, Note_on_c, 0, 77, 0
2, 38180, Note_on_c, 0, 74, 84
2, 38190, Note_on_c, 0, 51, 90
2, 38199, Note_on_c, 0, 74, 0
2, 38200, Note_on_c, 0, 70, 88
2, 38204, Note_on_c, 0, 51, 0
2, 38219, Note_on_c, 0, 70, 0
2, 38220, Note_on_c, 0, 80, 83
2, 38220, Note_on_c, 0, 50, 98
2, 38234, Note_on_c, 0, 50, 0
2, 38239, Note_on_c, 0, 80, 0
2, 38240, Note_on_c, 0, 74, 83
2, 38250, Note_on_c, 0, 48, 94
2, 38259, Note_on_c, 0, 74, 0
2, 38260, Note_on_c, 0, 70, 88
2, 38264, Note_on_c, 0, 48, 0
2, 38279, Note_on_c, 0, 70, 0
2, 38280, Note_on_c, 0, 80, 82
2, 38280, Note_on_c, 0, 46, 90
2, 38294, Note_on_c, 0, 46, 0
2, 38299, Note_on_c, 0, 80, 0
2, 38300, Note_on_c, 0, 74, 86
2, 38310, Note_on_c, 0, 48, 94
2, 38319, Note_on_c, 0, 74, 0
2, 38320, Note_on_c, 0, 70, 85
2, 38324, Note_on_c, 0, 48, 0
2, 38339, Note_on_c, 0, 70, 0
2, 38340, Note_on_c, 0, 80, 83
2, 38340, Note_on_c, 0, 50, 90
2, 38354, Note_on_c, 0, 50, 0
2, 38359, Note_on_c, 0, 80, 0
2, 38360, Note_on_c, 0, 74, 89
2, 38370, Note_on_c, 0, 51, 95
2, 38379, Note_on_c, 0, 74, 0
2, 38380, Note_on_c, 0, 70, 84
2, 38384, Note_on_c, 0, 51, 0
2, 38399, Note_on_c, 0, 70, 0
2, 38400, Note_on_c, 0, 80, 100
2, 38400, Note_on_c, 0, 53, 100
2, 38419, Note_on_c, 0, 80, 0
2, 38420, Note_on_c, 0, 74, 101
2, 38429, Note_on_c, 0, 53, 0
2, 38430, Note_on_c, 0, 55, 101
2, 38439, Note_on_c, 0, 74, 0
2, 38440, Note_on_c, 0, 70, 100
2, 38459, Note_on_c, 0, 70, 0
2, 38459, Note_on_c, 0, 55, 0
2, 38460, Note_on_c, 0, 77, 98
2, 38460, Note_on_c, 0, 56, 96
2, 38460, Note_on_c, 0, 46, 90
2, 38479, Note_on_c, 0, 77, 0
2, 38480, Note_on_c, 0, 74, 103
2, 38489, Note_on_c, 0, 56, 0
2, 38490, Note_on_c, 0, 55, 103
2, 38499, Note_on_c, 0, 74, 0
2, 38500, Note_on_c, 0, 70, 96
2, 38519, Note_on_c, 0, 70, 0
2, 38519, Note_on_c, 0, 55, 0
2, 38519, Note_on_c, 0, 46, 0
2, 38520, Note_on_c, 0, 77, 103
2, 38520, Note_on_c, 0, 56, 105
2, 38520, Note_on_c, 0, 46, 98
2, 38539, Note_on_c, 0, 77, 0
2, 38540, Note_on_c, 0, 74, 102
2, 38549, Note_on_c, 0, 56, 0
2, 38550, Note_on_c, 0, 55, 99
2, 38559, Note_on_c, 0, 74, 0
2, 38560, Note_on_c, 0, 70, 97
2, 38579, Note_on_c, 0, 70, 0
2, 38579, Note_on_c, 0, 55, 0
2, 38579, Note_on_c, 0, 46, 0
2, 38580, Note_on_c, 0, 77, 99
2, 38580, Note_on_c, 0, 56, 97
2, 38580, Note_on_c, 0, 46, 94
2, 38599, Note_on_c, 0, 77, 0
2, 38600, Note_on_c, 0, 74, 101
2, 38609, Note_on_c, 0, 56, 0
2, 38610, Note_on_c, 0, 55, 107
2, 38619, Note_on_c, 0, 74, 0
2, 38620, Note_on_c, 0, 70, 103
2, 38639, Note_on_c, 0, 70, 0
2, 38639, Note_on_c, 0, 55, 0
2, 38639, Note_on_c, 0, 46, 0
2, 38640, Note_on_c, 0, 77, 96
2, 38640, Note_on_c, 0, 74, 98
2, 38640, Note_on_c, 0, 70, 101
2, 38640, Note_on_c, 0, 46, 103
2, 38640, Note_on_c, 0, 56, 110
2, 38759, Note_on_c, 0, 56, 0
2, 38759, Note_on_c, 0, 70, 0
2, 38759, Note_on_c, 0, 77, 0
2, 38759, Note_on_c, 0, 74, 0
2, 38759, Note_on_c, 0, 46, 0
2, 38790, Note_on_c, 0, 70, 59
2, 38819, Note_on_c, 0, 70, 0
2, 38820, Note_on_c, 0, 82, 65
2, 38849, Note_on_c, 0, 82, 0
2, 38850, Note_on_c, 0, 78, 64
2, 38879, Note_on_c, 0, 78, 0
2, 38880, Note_on_c, 0, 79, 64
2, 38909, Note_on_c, 0, 79, 0
2, 38910, Note_on_c, 0, 74, 61
2, 38939, Note_on_c, 0, 74, 0
2, 38940, Note_on_c, 0, 75, 65
2, 38940, Note_on_c, 0, 51, 56
2, 38970, Note_on_c, 0, 55, 57
2, 39000, Note_on_c, 0, 58, 58
2, 39029, Note_on_c, 0, 75, 0
2, 39030, Note_on_c, 0, 70, 64
2, 39059, Note_on_c, 0, 70, 0
2, 39060, Note_on_c, 0, 82, 61
2, 39089, Note_on_c, 0, 82, 0
2, 39090, Note_on_c, 0, 78, 62
2, 39119, Note_on_c, 0, 78, 0
2, 39119, Note_on_c, 0, 58, 0
2, 39119, Note_on_c, 0, 55, 0
2, 39119, Note_on_c, 0, 51, 0
2, 39120, Note_on_c, 0, 79, 62
2, 39149, Note_on_c, 0, 79, 0
2, 39150, Note_on_c, 0, 74, 59
2, 39179, Note_on_c, 0, 74, 0
2, 39180, Note_on_c, 0, 75, 65
2, 39180, Note_on_c, 0, 63, 62
2, 39210, Note_on_c, 0, 67, 52
2, 39240, Note_on_c, 0, 70, 61
2, 39269, Note_on_c, 0, 75, 0
2, 39270, Note_on_c, 0, 72, 62
2, 39299, Note_on_c, 0, 72, 0
2, 39300, Note_on_c, 0, 84, 64
2, 39329, Note_on_c, 0, 84, 0
2, 39330, Note_on_c, 0, 79, 60
2, 39359, Note_on_c, 0, 79, 0
2, 39359, Note_on_c, 0, 70, 0
2, 39359, Note_on_c, 0, 67, 0
2, 39359, Note_on_c, 0, 63, 0
2, 39360, Note_on_c, 0, 80, 63
2, 39389, Note_on_c, 0, 80, 0
2, 39390, Note_on_c, 0, 76, 62
2, 39419, Note_on_c, 0, 76, 0
2, 39420, Note_on_c, 0, 77, 64
2, 39420, Note_on_c, 0, 51, 56
2, 39450, Note_on_c, 0, 56, 62
2, 39480, Note_on_c, 0, 60, 61
2, 39509, Note_on_c, 0, 77, 0
2, 39510, Note_on_c, 0, 72, 63
2, 39539, Note_on_c, 0, 72, 0
2, 39540, Note_on_c, 0, 84, 62
2, 39569, Note_on_c, 0, 84, 0
2, 39570, Note_on_c, 0, 79, 63
2, 39599, Note_on_c, 0, 79, 0
2, 39599, Note_on_c, 0, 60, 0
2, 39599, Note_on_c, 0, 56, 0
2, 39599, Note_on_c, 0, 51, 0
2, 39600, Note_on_c, 0, 80, 63
2, 39629, Note_on_c, 0, 80, 0
2, 39630, Note_on_c, 0, 76, 61
2, 39659, Note_on_c, 0, 76, 0
2, 39660, Note_on_c, 0, 77, 60
2, 39660, Note_on_c, 0, 63, 55
2, 39690, Note_on_c, 0, 68, 59
2, 39720, Note_on_c, 0, 72, 59
2, 39749, Note_on_c, 0, 77, 0
2, 39750, Note_on_c, 0, 77, 62
2, 39779, Note_on_c, 0, 77, 0
2, 39780, Note_on_c, 0, 89, 63
2, 39794, Note_on_c, 0, 89, 0
2, 39810, Note_on_c, 0, 89, 64
2, 39824, Note_on_c, 0, 89, 0
2, 39839, Note_on_c, 0, 72, 0
2, 39839, Note_on_c, 0, 68, 0
2, 39839, Note_on_c, 0, 63, 0
2, 39840, Note_on_c, 0, 89, 58
2, 39870, Note_on_c, 0, 62, 55
2, 39899, Note_on_c, 0, 62, 0
2, 39900, Note_on_c, 0, 65, 58
2, 39929, Note_on_c, 0, 65, 0
2, 39929, Note_on_c, 0, 89, 0
2, 39930, Note_on_c, 0, 87, 64
2, 39930, Note_on_c, 0, 70, 58
2, 39959, Note_on_c, 0, 70, 0
2, 39959, Note_on_c, 0, 87, 0
2, 39960, Note_on_c, 0, 86, 63
2, 39989, Note_on_c, 0, 86, 0
2, 39990, Note_on_c, 0, 84, 62
2, 39990, Note_on_c, 0, 58, 60
2, 40019, Note_on_c, 0, 58, 0
2, 40019, Note_on_c, 0, 84, 0
2, 40020, Note_on_c, 0, 82, 64
2, 40020, Note_on_c, 0, 62, 55
2, 40049, Note_on_c, 0, 62, 0
2, 40049, Note_on_c, 0, 82, 0
2, 40050, Note_on_c, 0, 80, 59
2, 40050, Note_on_c, 0, 65, 61
2, 40079, Note_on_c, 0, 65, 0
2, 40079, Note_on_c, 0, 80, 0
2, 40080, Note_on_c, 0, 79, 58
2, 40110, Note_on_c, 0, 59, 58
2, 40139, Note_on_c, 0, 59, 0
2, 40140, Note_on_c, 0, 62, 59
2, 40169, Note_on_c, 0, 62, 0
2, 40169, Note_on_c, 0, 79, 0
2, 40170, Note_on_c, 0, 77, 63
2, 40170, Note_on_c, 0, 67, 57
2, 40199, Note_on_c, 0, 67, 0
2, 40199, Note_on_c, 0, 77, 0
2, 40200, Note_on_c, 0, 75, 67
2, 40229, Note_on_c, 0, 75, 0
2, 40230, Note_on_c, 0, 74, 66
2, 40230, Note_on_c, 0, 60, 64
2, 40259, Note_on_c, 0, 60, 0
2, 40259, Note_on_c, 0, 74, 0
2, 40260, Note_on_c, 0, 72, 70
2, 40260, Note_on_c, 0, 63, 69
2, 40289, Note_on_c, 0, 63, 0
2, 40289, Note_on_c, 0, 72, 0
2, 40290, Note_on_c, 0, 70, 70
2, 40290, Note_on_c, 0, 55, 67
2, 40319, Note_on_c, 0, 55, 0
2, 40319, Note_on_c, 0, 70, 0
2, 40320, Note_on_c, 0, 69, 74
2, 40350, Note_on_c, 0, 54, 69
2, 40379, Note_on_c, 0, 54, 0
2, 40380, Note_on_c, 0, 57, 73
2, 40409, Note_on_c, 0, 57, 0
2, 40409, Note_on_c, 0, 69, 0
2, 40410, Note_on_c, 0, 67, 75
2, 40410, Note_on_c, 0, 62, 66
2, 40439, Note_on_c, 0, 62, 0
2, 40439, Note_on_c, 0, 67, 0
2, 40440, Note_on_c, 0, 66, 78
2, 40469, Note_on_c, 0, 66, 0
2, 40470, Note_on_c, 0, 63, 78
2, 40470, Note_on_c, 0, 50, 70
2, 40499, Note_on_c, 0, 50, 0
2, 40499, Note_on_c, 0, 63, 0
2, 40500, Note_on_c, 0, 62, 82
2, 40500, Note_on_c, 0, 54, 70
2, 40529, Note_on_c, 0, 54, 0
2, 40529, Note_on_c, 0, 62, 0
2, 40530, Note_on_c, 0, 60, 80
2, 40530, Note_on_c, 0, 57, 73
2, 40559, Note_on_c, 0, 57, 0
2, 40559, Note_on_c, 0, 60, 0
2, 40560, Note_on_c, 0, 58, 83
2, 40590, Note_on_c, 0, 43, 76
2, 40619, Note_on_c, 0, 43, 0
2, 40620, Note_on_c, 0, 46, 79
2, 40649, Note_on_c, 0, 46, 0
2, 40649, Note_on_c, 0, 58, 0
2, 40650, Note_on_c, 0, 57, 86
2, 40650, Note_on_c, 0, 50, 77
2, 40679, Note_on_c, 0, 50, 0
2, 40679, Note_on_c, 0, 57, 0
2, 40680, Note_on_c, 0, 55, 90
2, 40709, Note_on_c, 0, 55, 0
2, 40710, Note_on_c, 0, 57, 87
2, 40710, Note_on_c, 0, 39, 80
2, 40739, Note_on_c, 0, 39, 0
2, 40739, Note_on_c, 0, 57, 0
2, 40740, Note_on_c, 0, 58, 86
2, 40740, Note_on_c, 0, 51, 79
2, 40754, Note_on_c, 0, 51, 0
2, 40769, Note_on_c, 0, 58, 0
2, 40770, Note_on_c, 0, 61, 87
2, 40770, Note_on_c, 0, 51, 85
2, 40784, Note_on_c, 0, 51, 0
2, 40799, Note_on_c, 0, 61, 0
2, 40800, Note_on_c, 0, 38, 107
2, 40815, Note_on_c, 0, 62, 98
2, 40829, Note_on_c, 0, 62, 0
2, 40830, Note_on_c, 0, 64, 99
2, 40844, Note_on_c, 0, 64, 0
2, 40845, Note_on_c, 0, 66, 98
2, 40859, Note_on_c, 0, 66, 0
2, 40859, Note_on_c, 0, 38, 0
2, 40860, Note_on_c, 0, 50, 119
2, 40860, Note_on_c, 0, 67, 96
2, 40874, Note_on_c, 0, 67, 0
2, 40875, Note_on_c, 0, 69, 100
2, 40889, Note_on_c, 0, 69, 0
2, 40890, Note_on_c, 0, 71, 96
2, 40904, Note_on_c, 0, 71, 0
2, 40905, Note_on_c, 0, 73, 98
2, 40919, Note_on_c, 0, 73, 0
2, 40920, Note_on_c, 0, 74, 98
2, 40934, Note_on_c, 0, 74, 0
2, 40935, Note_on_c, 0, 76, 98
2, 40949, Note_on_c, 0, 76, 0
2, 40950, Note_on_c, 0, 78, 96
2, 40964, Note_on_c, 0, 78, 0
2, 40965, Note_on_c, 0, 79, 99
2, 40979, Note_on_c, 0, 79, 0
2, 40980, Note_on_c, 0, 81, 100
2, 40980, Note_on_c, 0, 60, 91
2, 40994, Note_on_c, 0, 81, 0
2, 40995, Note_on_c, 0, 74, 100
2, 41009, Note_on_c, 0, 74, 0
2, 41010, Note_on_c, 0, 76, 97
2, 41024, Note_on_c, 0, 76, 0
2, 41025, Note_on_c, 0, 78, 102
2, 41039, Note_on_c, 0, 78, 0
2, 41039, Note_on_c, 0, 60, 0
2, 41040, Note_on_c, 0, 79, 101
2, 41040, Note_on_c, 0, 58, 91
2, 41054, Note_on_c, 0, 79, 0
2, 41055, Note_on_c, 0, 81, 103
2, 41069, Note_on_c, 0, 81, 0
2, 41070, Note_on_c, 0, 82, 100
2, 41084, Note_on_c, 0, 82, 0
2, 41085, Note_on_c, 0, 84, 101
2, 41099, Note_on_c, 0, 84, 0
2, 41099, Note_on_c, 0, 58, 0
2, 41100, Note_on_c, 0, 86, 100
2, 41100, Note_on_c, 0, 54, 95
2, 41114, Note_on_c, 0, 86, 0
2, 41115, Note_on_c, 0, 87, 103
2, 41129, Note_on_c, 0, 87, 0
2, 41130, Note_on_c, 0, 86, 100
2, 41144, Note_on_c, 0, 86, 0
2, 41145, Note_on_c, 0, 84, 100
2, 41159, Note_on_c, 0, 84, 0
2, 41159, Note_on_c, 0, 54, 0
2, 41160, Note_on_c, 0, 82, 103
2, 41160, Note_on_c, 0, 55, 99
2, 41174, Note_on_c, 0, 82, 0
2, 41175, Note_on_c, 0, 84, 97
2, 41189, Note_on_c, 0, 84, 0
2, 41190, Note_on_c, 0, 82, 102
2, 41204, Note_on_c, 0, 82, 0
2, 41205, Note_on_c, 0, 81, 98
2, 41219, Note_on_c, 0, 81, 0
2, 41219, Note_on_c, 0, 55, 0
2, 41220, Note_on_c, 0, 79, 97
2, 41220, Note_on_c, 0, 61, 91
2, 41234, Note_on_c, 0, 79, 0
2, 41235, Note_on_c, 0, 82, 100
2, 41249, Note_on_c, 0, 82, 0
2, 41250, Note_on_c, 0, 81, 102
2, 41264, Note_on_c, 0, 81, 0
2, 41265, Note_on_c, 0, 79, 97
2, 41279, Note_on_c, 0, 79, 0
2, 41279, Note_on_c, 0, 61, 0
2, 41279, Note_on_c, 0, 50, 0
2, 41280, Note_on_c, 0, 50, 102
2, 41280, Note_on_c, 0, 78, 97
2, 41287, Note_on_c, 0, 78, 0
2, 41295, Note_on_c, 0, 62, 101
2, 41309, Note_on_c, 0, 62, 0
2, 41310, Note_on_c, 0, 64, 103
2, 41324, Note_on_c, 0, 64, 0
2, 41325, Note_on_c, 0, 66, 103
2, 41339, Note_on_c, 0, 66, 0
2, 41340, Note_on_c, 0, 62, 120
2, 41340, Note_on_c, 0, 67, 102
2, 41354, Note_on_c, 0, 67, 0
2, 41355, Note_on_c, 0, 69, 99
2, 41369, Note_on_c, 0, 69, 0
2, 41370, Note_on_c, 0, 71, 100
2, 41384, Note_on_c, 0, 71, 0
2, 41385, Note_on_c, 0, 73, 99
2, 41399, Note_on_c, 0, 73, 0
2, 41400, Note_on_c, 0, 74, 100
2, 41414, Note_on_c, 0, 74, 0
2, 41415, Note_on_c, 0, 76, 96
2, 41429, Note_on_c, 0, 76, 0
2, 41430, Note_on_c, 0, 78, 100
2, 41444, Note_on_c, 0, 78, 0
2, 41445, Note_on_c, 0, 79, 102
2, 41459, Note_on_c, 0, 79, 0
2, 41459, Note_on_c, 0, 62, 0
2, 41460, Note_on_c, 0, 81, 99
2, 41460, Note_on_c, 0, 60, 96
2, 41474, Note_on_c, 0, 81, 0
2, 41475, Note_on_c, 0, 74, 96
2, 41489, Note_on_c, 0, 74, 0
2, 41490, Note_on_c, 0, 76, 99
2, 41504, Note_on_c, 0, 76, 0
2, 41505, Note_on_c, 0, 78, 99
2, 41519, Note_on_c, 0, 78, 0
2, 41519, Note_on_c, 0, 60, 0
2, 41520, Note_on_c, 0, 79, 102
2, 41520, Note_on_c, 0, 58, 90
2, 41534, Note_on_c, 0, 79, 0
2, 41535, Note_on_c, 0, 81, 98
2, 41549, Note_on_c, 0, 81, 0
2, 41550, Note_on_c, 0, 82, 100
2, 41564, Note_on_c, 0, 82, 0
2, 41565, Note_on_c, 0, 84, 97
2, 41579, Note_on_c, 0, 84, 0
2, 41579, Note_on_c, 0, 58, 0
2, 41580, Note_on_c, 0, 86, 101
2, 41580, Note_on_c, 0, 54, 100
2, 41594, Note_on_c, 0, 86, 0
2, 41595, Note_on_c, 0, 87, 99
2, 41609, Note_on_c, 0, 87, 0
2, 41610, Note_on_c, 0, 86, 99
2, 41624, Note_on_c, 0, 86, 0
2, 41625, Note_on_c, 0, 84, 98
2, 41639, Note_on_c, 0, 84, 0
2, 41639, Note_on_c, 0, 54, 0
2, 41640, Note_on_c, 0, 82, 96
2, 41640, Note_on_c, 0, 55, 99
2, 41654, Note_on_c, 0, 82, 0
2, 41655, Note_on_c, 0, 84, 102
2, 41669, Note_on_c, 0, 84, 0
2, 41670, Note_on_c, 0, 82, 101
2, 41684, Note_on_c, 0, 82, 0
2, 41685, Note_on_c, 0, 81, 103
2, 41699, Note_on_c, 0, 81, 0
2, 41699, Note_on_c, 0, 55, 0
2, 41700, Note_on_c, 0, 79, 103
2, 41700, Note_on_c, 0, 61, 98
2, 41714, Note_on_c, 0, 79, 0
2, 41715, Note_on_c, 0, 82, 100
2, 41729, Note_on_c, 0, 82, 0
2, 41730, Note_on_c, 0, 81, 102
2, 41744, Note_on_c, 0, 81, 0
2, 41745, Note_on_c, 0, 79, 102
2, 41759, Note_on_c, 0, 79, 0
2, 41759, Note_on_c, 0, 61, 0
2, 41759, Note_on_c, 0, 50, 0
2, 41760, Note_on_c, 0, 78, 99
2, 41760, Note_on_c, 0, 50, 109
2, 41767, Note_on_c, 0, 78, 0
2, 41775, Note_on_c, 0, 62, 103
2, 41789, Note_on_c, 0, 62, 0
2, 41790, Note_on_c, 0, 64, 96
2, 41804, Note_on_c, 0, 64, 0
2, 41805, Note_on_c, 0, 66, 97
2, 41819, Note_on_c, 0, 66, 0
2, 41820, Note_on_c, 0, 67, 97
2, 41820, Note_on_c, 0, 62, 114
2, 41834, Note_on_c, 0, 67, 0
2, 41835, Note_on_c, 0, 69, 101
2, 41849, Note_on_c, 0, 69, 0
2, 41850, Note_on_c, 0, 71, 100
2, 41864, Note_on_c, 0, 71, 0
2, 41865, Note_on_c, 0, 73, 99
2, 41879, Note_on_c, 0, 73, 0
2, 41880, Note_on_c, 0, 74, 100
2, 41894, Note_on_c, 0, 74, 0
2, 41895, Note_on_c, 0, 76, 97
2, 41909, Note_on_c, 0, 76, 0
2, 41910, Note_on_c, 0, 78, 102
2, 41924, Note_on_c, 0, 78, 0
2, 41925, Note_on_c, 0, 79, 102
2, 41939, Note_on_c, 0, 79, 0
2, 41939, Note_on_c, 0, 62, 0
2, 41940, Note_on_c, 0, 81, 99
2, 41940, Note_on_c, 0, 60, 99
2, 41954, Note_on_c, 0, 81, 0
2, 41955, Note_on_c, 0, 74, 101
2, 41969, Note_on_c, 0, 74, 0
2, 41970, Note_on_c, 0, 76, 98
2, 41984, Note_on_c, 0, 76, 0
2, 41985, Note_on_c, 0, 78, 100
2, 41999, Note_on_c, 0, 78, 0
2, 41999, Note_on_c, 0, 60, 0
2, 42000, Note_on_c, 0, 79, 97
2, 42000, Note_on_c, 0, 58, 94
2, 42014, Note_on_c, 0, 79, 0
2, 42015, Note_on_c, 0, 81, 100
2, 42029, Note_on_c, 0, 81, 0
2, 42030, Note_on_c, 0, 82, 103
2, 42044, Note_on_c, 0, 82, 0
2, 42045, Note_on_c, 0, 84, 99
2, 42059, Note_on_c, 0, 84, 0
2, 42059, Note_on_c, 0, 58, 0
2, 42060, Note_on_c, 0, 86, 96
2, 42060, Note_on_c, 0, 54, 94
2, 42074, Note_on_c, 0, 86, 0
2, 42075, Note_on_c, 0, 87, 100
2, 42089, Note_on_c, 0, 87, 0
2, 42090, Note_on_c, 0, 86, 98
2, 42104, Note_on_c, 0, 86, 0
2, 42105, Note_on_c, 0, 84, 102
2, 42119, Note_on_c, 0, 84, 0
2, 42119, Note_on_c, 0, 54, 0
2, 42120, Note_on_c, 0, 82, 101
2, 42120, Note_on_c, 0, 55, 93
2, 42134, Note_on_c, 0, 82, 0
2, 42135, Note_on_c, 0, 84, 97
2, 42149, Note_on_c, 0, 84, 0
2, 42150, Note_on_c, 0, 82, 96
2, 42164, Note_on_c, 0, 82, 0
2, 42165, Note_on_c, 0, 81, 100
2, 42179, Note_on_c, 0, 81, 0
2, 42179, Note_on_c, 0, 55, 0
2, 42180, Note_on_c, 0, 79, 102
2, 42180, Note_on_c, 0, 61, 92
2, 42194, Note_on_c, 0, 79, 0
2, 42195, Note_on_c, 0, 82, 102
2, 42209, Note_on_c, 0, 82, 0
2, 42210, Note_on_c, 0, 81, 97
2, 42224, Note_on_c, 0, 81, 0
2, 42225, Note_on_c, 0, 79, 100
2, 42239, Note_on_c, 0, 79, 0
2, 42239, Note_on_c, 0, 61, 0
2, 42239, Note_on_c, 0, 50, 0
2, 42240, Note_on_c, 0, 78, 98
2, 42240, Note_on_c, 0, 50, 90
2, 42240, Note_on_c, 0, 62, 93
2, 42254, Note_on_c, 0, 78, 0
2, 42255, Note_on_c, 0, 81, 103
2, 42269, Note_on_c, 0, 81, 0
2, 42270, Note_on_c, 0, 79, 101
2, 42284, Note_on_c, 0, 79, 0
2, 42285, Note_on_c, 0, 78, 102
2, 42299, Note_on_c, 0, 78, 0
2, 42299, Note_on_c, 0, 62, 0
2, 42300, Note_on_c, 0, 79, 96
2, 42300, Note_on_c, 0, 61, 97
2, 42314, Note_on_c, 0, 79, 0
2, 42315, Note_on_c, 0, 82, 96
2, 42329, Note_on_c, 0, 82, 0
2, 42330, Note_on_c, 0, 81, 99
2, 42344, Note_on_c, 0, 81, 0
2, 42345, Note_on_c, 0, 79, 97
2, 42359, Note_on_c, 0, 79, 0
2, 42359, Note_on_c, 0, 61, 0
2, 42360, Note_on_c, 0, 78, 103
2, 42360, Note_on_c, 0, 62, 92
2, 42374, Note_on_c, 0, 78, 0
2, 42375, Note_on_c, 0, 81, 99
2, 42389, Note_on_c, 0, 81, 0
2, 42390, Note_on_c, 0, 79, 97
2, 42404, Note_on_c, 0, 79, 0
2, 42405, Note_on_c, 0, 78, 98
2, 42419, Note_on_c, 0, 78, 0
2, 42419, Note_on_c, 0, 62, 0
2, 42420, Note_on_c, 0, 79, 100
2, 42420, Note_on_c, 0, 61, 96
2, 42434, Note_on_c, 0, 79, 0
2, 42435, Note_on_c, 0, 82, 99
2, 42449, Note_on_c, 0, 82, 0
2, 42450, Note_on_c, 0, 81, 98
2, 42464, Note_on_c, 0, 81, 0
2, 42465, Note_on_c, 0, 79, 98
2, 42479, Note_on_c, 0, 79, 0
2, 42479, Note_on_c, 0, 61, 0
2, 42480, Note_on_c, 0, 78, 101
2, 42480, Note_on_c, 0, 62, 90
2, 42494, Note_on_c, 0, 78, 0
2, 42495, Note_on_c, 0, 81, 94
2, 42509, Note_on_c, 0, 81, 0
2, 42510, Note_on_c, 0, 79, 93
2, 42524, Note_on_c, 0, 79, 0
2, 42525, Note_on_c, 0, 78, 91
2, 42539, Note_on_c, 0, 78, 0
2, 42539, Note_on_c, 0, 62, 0
2, 42540, Note_on_c, 0, 79, 85
2, 42540, Note_on_c, 0, 61, 79
2, 42554, Note_on_c, 0, 79, 0
2, 42555, Note_on_c, 0, 82, 81
2, 42569, Note_on_c, 0, 82, 0
2, 42570, Note_on_c, 0, 81, 80
2, 42584, Note_on_c, 0, 81, 0
2, 42585, Note_on_c, 0, 79, 80
2, 42599, Note_on_c, 0, 79, 0
2, 42599, Note_on_c, 0, 61, 0
2, 42600, Note_on_c, 0, 78, 76
2, 42600, Note_on_c, 0, 62, 72
2, 42614, Note_on_c, 0, 78, 0
2, 42615, Note_on_c, 0, 81, 72
2, 42629, Note_on_c, 0, 81, 0
2, 42630, Note_on_c, 0, 79, 66
2, 42644, Note_on_c, 0, 79, 0
2, 42645, Note_on_c, 0, 78, 61
2, 42659, Note_on_c, 0, 78, 0
2, 42659, Note_on_c, 0, 62, 0
2, 42660, Note_on_c, 0, 79, 62
2, 42660, Note_on_c, 0, 61, 60
2, 42674, Note_on_c, 0, 79, 0
2, 42675, Note_on_c, 0, 82, 58
2, 42689, Note_on_c, 0, 82, 0
2, 42690, Note_on_c, 0, 81, 53
2, 42704, Note_on_c, 0, 81, 0
2, 42705, Note_on_c, 0, 79, 55
2, 42719, Note_on_c, 0, 79, 0
2, 42719, Note_on_c, 0, 61, 0
2, 42719, Note_on_c, 0, 50, 0
2, 42720, Note_on_c, 0, 78, 50
2, 42720, Note_on_c, 0, 62, 44
2, 42739, Note_on_c, 0, 62, 0
2, 42740, Note_on_c, 0, 66, 47
2, 42749, Note_on_c, 0, 78, 0
2, 42759, Note_on_c, 0, 66, 0
2, 42760, Note_on_c, 0, 69, 42
2, 42779, Note_on_c, 0, 69, 0
2, 42780, Note_on_c, 0, 62, 46
2, 42799, Note_on_c, 0, 62, 0
2, 42800, Note_on_c, 0, 66, 38
2, 42819, Note_on_c, 0, 66, 0
2, 42820, Note_on_c, 0, 69, 46
2, 42839, Note_on_c, 0, 69, 0
2, 42840, Note_on_c, 0, 62, 44
2, 42859, Note_on_c, 0, 62, 0
2, 42860, Note_on_c, 0, 66, 45
2, 42870, Note_on_c, 0, 56, 47
2, 42879, Note_on_c, 0, 66, 0
2, 42880, Note_on_c, 0, 69, 47
2, 42899, Note_on_c, 0, 69, 0
2, 42899, Note_on_c, 0, 56, 0
2, 42900, Note_on_c, 0, 57, 44
2, 42900, Note_on_c, 0, 62, 46
2, 42919, Note_on_c, 0, 62, 0
2, 42920, Note_on_c, 0, 66, 48
2, 42929, Note_on_c, 0, 57, 0
2, 42930, Note_on_c, 0, 53, 45
2, 42939, Note_on_c, 0, 66, 0
2, 42940, Note_on_c, 0, 69, 40
2, 42959, Note_on_c, 0, 69, 0
2, 42959, Note_on_c, 0, 53, 0
2, 42960, Note_on_c, 0, 54, 50
2, 42960, Note_on_c, 0, 62, 40
2, 42979, Note_on_c, 0, 62, 0
2, 42980, Note_on_c, 0, 66, 39
2, 42989, Note_on_c, 0, 54, 0
2, 42999, Note_on_c, 0, 66, 0
2, 43000, Note_on_c, 0, 69, 48
2, 43019, Note_on_c, 0, 69, 0
2, 43020, Note_on_c, 0, 62, 44
2, 43039, Note_on_c, 0, 62, 0
2, 43040, Note_on_c, 0, 66, 44
2, 43059, Note_on_c, 0, 66, 0
2, 43060, Note_on_c, 0, 69, 40
2, 43079, Note_on_c, 0, 69, 0
2, 43080, Note_on_c, 0, 62, 43
2, 43099, Note_on_c, 0, 62, 0
2, 43100, Note_on_c, 0, 66, 43
2, 43110, Note_on_c, 0, 80, 45
2, 43119, Note_on_c, 0, 66, 0
2, 43120, Note_on_c, 0, 69, 40
2, 43139, Note_on_c, 0, 69, 0
2, 43139, Note_on_c, 0, 80, 0
2, 43140, Note_on_c, 0, 81, 46
2, 43140, Note_on_c, 0, 62, 46
2, 43159, Note_on_c, 0, 62, 0
2, 43160, Note_on_c, 0, 66, 42
2, 43169, Note_on_c, 0, 81, 0
2, 43170, Note_on_c, 0, 77, 49
2, 43179, Note_on_c, 0, 66, 0
2, 43180, Note_on_c, 0, 69, 47
2, 43199, Note_on_c, 0, 69, 0
2, 43199, Note_on_c, 0, 77, 0
2, 43200, Note_on_c, 0, 78, 50
2, 43200, Note_on_c, 0, 62, 38
2, 43219, Note_on_c, 0, 62, 0
2, 43220, Note_on_c, 0, 69, 39
2, 43229, Note_on_c, 0, 78, 0
2, 43239, Note_on_c, 0, 69, 0
2, 43240, Note_on_c, 0, 72, 39
2, 43259, Note_on_c, 0, 72, 0
2, 43260, Note_on_c, 0, 62, 48
2, 43279, Note_on_c, 0, 62, 0
2, 43280, Note_on_c, 0, 69, 43
2, 43299, Note_on_c, 0, 69, 0
2, 43300, Note_on_c, 0, 72, 42
2, 43319, Note_on_c, 0, 72, 0
2, 43320, Note_on_c, 0, 62, 40
2, 43339, Note_on_c, 0, 62, 0
2, 43340, Note_on_c, 0, 69, 40
2, 43350, Note_on_c, 0, 59, 50
2, 43359, Note_on_c, 0, 69, 0
2, 43360, Note_on_c, 0, 72, 46
2, 43379, Note_on_c, 0, 72, 0
2, 43379, Note_on_c, 0, 59, 0
2, 43380, Note_on_c, 0, 60, 47
2, 43380, Note_on_c, 0, 62, 38
2, 43399, Note_on_c, 0, 62, 0
2, 43400, Note_on_c, 0, 69, 40
2, 43409, Note_on_c, 0, 60, 0
2, 43410, Note_on_c, 0, 56, 45
2, 43419, Note_on_c, 0, 69, 0
2, 43420, Note_on_c, 0, 72, 46
2, 43439, Note_on_c, 0, 72, 0
2, 43439, Note_on_c, 0, 56, 0
2, 43440, Note_on_c, 0, 57, 45
2, 43440, Note_on_c, 0, 62, 42
2, 43459, Note_on_c, 0, 62, 0
2, 43460, Note_on_c, 0, 69, 48
2, 43469, Note_on_c, 0, 57, 0
2, 43479, Note_on_c, 0, 69, 0
2, 43480, Note_on_c, 0, 72, 43
2, 43499, Note_on_c, 0, 72, 0
2, 43500, Note_on_c, 0, 62, 40
2, 43519, Note_on_c, 0, 62, 0
2, 43520, Note_on_c, 0, 69, 41
2, 43539, Note_on_c, 0, 69, 0
2, 43540, Note_on_c, 0, 72, 48
2, 43559, Note_on_c, 0, 72, 0
2, 43560, Note_on_c, 0, 62, 40
2, 43579, Note_on_c, 0, 62, 0
2, 43580, Note_on_c, 0, 69, 43
2, 43590, Note_on_c, 0, 83, 53
2, 43599, Note_on_c, 0, 69, 0
2, 43600, Note_on_c, 0, 72, 41
2, 43619, Note_on_c, 0, 72, 0
2, 43619, Note_on_c, 0, 83, 0
2, 43620, Note_on_c, 0, 84, 50
2, 43620, Note_on_c, 0, 62, 44
2, 43639, Note_on_c, 0, 62, 0
2, 43640, Note_on_c, 0, 69, 46
2, 43649, Note_on_c, 0, 84, 0
2, 43650, Note_on_c, 0, 80, 51
2, 43659, Note_on_c, 0, 69, 0
2, 43660, Note_on_c, 0, 72, 53
2, 43679, Note_on_c, 0, 72, 0
2, 43679, Note_on_c, 0, 80, 0
2, 43680, Note_on_c, 0, 81, 60
2, 43680, Note_on_c, 0, 62, 54
2, 43694, Note_on_c, 0, 81, 0
2, 43699, Note_on_c, 0, 62, 0
2, 43700, Note_on_c, 0, 69, 55
2, 43710, Note_on_c, 0, 59, 64
2, 43719, Note_on_c, 0, 69, 0
2, 43720, Note_on_c, 0, 72, 61
2, 43739, Note_on_c, 0, 72, 0
2, 43739, Note_on_c, 0, 59, 0
2, 43740, Note_on_c, 0, 60, 60
2, 43740, Note_on_c, 0, 62, 56
2, 43759, Note_on_c, 0, 62, 0
2, 43760, Note_on_c, 0, 69, 65
2, 43769, Note_on_c, 0, 60, 0
2, 43770, Note_on_c, 0, 56, 64
2, 43779, Note_on_c, 0, 69, 0
2, 43780, Note_on_c, 0, 72, 59
2, 43799, Note_on_c, 0, 72, 0
2, 43799, Note_on_c, 0, 56, 0
2, 43800, Note_on_c, 0, 57, 68
2, 43800, Note_on_c, 0, 62, 60
2, 43814, Note_on_c, 0, 57, 0
2, 43819, Note_on_c, 0, 62, 0
2, 43820, Note_on_c, 0, 69, 68
2, 43830, Note_on_c, 0, 83, 71
2, 43839, Note_on_c, 0, 69, 0
2, 43840, Note_on_c, 0, 72, 71
2, 43859, Note_on_c, 0, 72, 0
2, 43859, Note_on_c, 0, 83, 0
2, 43860, Note_on_c, 0, 84, 71
2, 43860, Note_on_c, 0, 62, 74
2, 43879, Note_on_c, 0, 62, 0
2, 43880, Note_on_c, 0, 69, 68
2, 43889, Note_on_c, 0, 84, 0
2, 43890, Note_on_c, 0, 80, 79
2, 43899, Note_on_c, 0, 69, 0
2, 43900, Note_on_c, 0, 72, 77
2, 43919, Note_on_c, 0, 72, 0
2, 43919, Note_on_c, 0, 80, 0
2, 43920, Note_on_c, 0, 81, 75
2, 43920, Note_on_c, 0, 62, 76
2, 43934, Note_on_c, 0, 81, 0
2, 43939, Note_on_c, 0, 62, 0
2, 43940, Note_on_c, 0, 69, 73
2, 43950, Note_on_c, 0, 59, 82
2, 43959, Note_on_c, 0, 69, 0
2, 43960, Note_on_c, 0, 72, 74
2, 43979, Note_on_c, 0, 72, 0
2, 43979, Note_on_c, 0, 59, 0
2, 43980, Note_on_c, 0, 60, 81
2, 43980, Note_on_c, 0, 62, 80
2, 43999, Note_on_c, 0, 62, 0
2, 44000, Note_on_c, 0, 69, 76
2, 44009, Note_on_c, 0, 60, 0
2, 44010, Note_on_c, 0, 56, 84
2, 44019, Note_on_c, 0, 69, 0
2, 44020, Note_on_c, 0, 72, 81
2, 44039, Note_on_c, 0, 72, 0
2, 44039, Note_on_c, 0, 56, 0
2, 44040, Note_on_c, 0, 57, 86
2, 44040, Note_on_c, 0, 62, 86
2, 44054, Note_on_c, 0, 57, 0
2, 44059, Note_on_c, 0, 62, 0
2, 44060, Note_on_c, 0, 69, 86
2, 44070, Note_on_c, 0, 83, 94
2, 44079, Note_on_c, 0, 69, 0
2, 44080, Note_on_c, 0, 72, 84
2, 44099, Note_on_c, 0, 72, 0
2, 44099, Note_on_c, 0, 83, 0
2, 44100, Note_on_c, 0, 84, 92
2, 44100, Note_on_c, 0, 62, 94
2, 44119, Note_on_c, 0, 62, 0
2, 44120, Note_on_c, 0, 69, 95
2, 44129, Note_on_c, 0, 84, 0
2, 44130, Note_on_c, 0, 80, 94
2, 44139, Note_on_c, 0, 69, 0
2, 44140, Note_on_c, 0, 72, 97
2, 44159, Note_on_c, 0, 72, 0
2, 44159, Note_on_c, 0, 80, 0
2, 44160, Note_on_c, 0, 81, 98
2, 44160, Note_on_c, 0, 62, 99
2, 44160, Note_on_c, 0, 69, 90
2, 44160, Note_on_c, 0, 72, 97
2, 44174, Note_on_c, 0, 81, 0
2, 44190, Note_on_c, 0, 87, 98
2, 44219, Note_on_c, 0, 87, 0
2, 44219, Note_on_c, 0, 72, 0
2, 44219, Note_on_c, 0, 69, 0
2, 44219, Note_on_c, 0, 62, 0
2, 44220, Note_on_c, 0, 88, 100
2, 44249, Note_on_c, 0, 88, 0
2, 44250, Note_on_c, 0, 83, 100
2, 44279, Note_on_c, 0, 83, 0
2, 44280, Note_on_c, 0, 84, 98
2, 44294, Note_on_c, 0, 84, 0
2, 44310, Note_on_c, 0, 87, 99
2, 44339, Note_on_c, 0, 87, 0
2, 44340, Note_on_c, 0, 88, 98
2, 44369, Note_on_c, 0, 88, 0
2, 44370, Note_on_c, 0, 83, 101
2, 44399, Note_on_c, 0, 83, 0
2, 44400, Note_on_c, 0, 84, 120
2, 44414, Note_on_c, 0, 84, 0
2, 44430, Note_on_c, 0, 87, 117
2, 44459, Note_on_c, 0, 87, 0
2, 44460, Note_on_c, 0, 88, 121
2, 44474, Note_on_c, 0, 88, 0
2, 44490, Note_on_c, 0, 83, 118
2, 44519, Note_on_c, 0, 83, 0
2, 44520, Note_on_c, 0, 84, 117
2, 44534, Note_on_c, 0, 84, 0
2, 44550, Note_on_c, 0, 80, 121
2, 44579, Note_on_c, 0, 80, 0
2, 44580, Note_on_c, 0, 81, 118
2, 44594, Note_on_c, 0, 81, 0
2, 44610, Note_on_c, 0, 77, 120
2, 44639, Note_on_c, 0, 77, 0
2, 44640, Note_on_c, 0, 78, 119
2, 44654, Note_on_c, 0, 78, 0
2, 44670, Note_on_c, 0, 75, 116
2, 44699, Note_on_c, 0, 75, 0
2, 44700, Note_on_c, 0, 76, 116
2, 44714, Note_on_c, 0, 76, 0
2, 44730, Note_on_c, 0, 71, 117
2, 44759, Note_on_c, 0, 71, 0
2, 44760, Note_on_c, 0, 72, 115
2, 44774, Note_on_c, 0, 72, 0
2, 44790, Note_on_c, 0, 68, 118
2, 44819, Note_on_c, 0, 68, 0
2, 44820, Note_on_c, 0, 69, 112
2, 44849, Note_on_c, 0, 69, 0
2, 44850, Note_on_c, 0, 70, 113
2, 44864, Note_on_c, 0, 70, 0
2, 44880, Note_on_c, 0, 71, 108
2, 44894, Note_on_c, 0, 71, 0
2, 44910, Note_on_c, 0, 72, 112
2, 44924, Note_on_c, 0, 72, 0
2, 44940, Note_on_c, 0, 73, 123
2, 45020, Note_on_c, 0, 73, 0
2, 45030, Note_on_c, 0, 62, 61
2, 45059, Note_on_c, 0, 62, 0
2, 45060, Note_on_c, 0, 74, 62
2, 45089, Note_on_c, 0, 74, 0
2, 45090, Note_on_c, 0, 70, 58
2, 45119, Note_on_c, 0, 70, 0
2, 45120, Note_on_c, 0, 71, 60
2, 45149, Note_on_c, 0, 71, 0
2, 45150, Note_on_c, 0, 66, 62
2, 45179, Note_on_c, 0, 66, 0
2, 45180, Note_on_c, 0, 67, 63
2, 45180, Note_on_c, 0, 43, 58
2, 45210, Note_on_c, 0, 47, 54
2, 45240, Note_on_c, 0, 50, 62
2, 45269, Note_on_c, 0, 67, 0
2, 45270, Note_on_c, 0, 62, 60
2, 45299, Note_on_c, 0, 62, 0
2, 45300, Note_on_c, 0, 74, 64
2, 45329, Note_on_c, 0, 74, 0
2, 45330, Note_on_c, 0, 70, 59
2, 45359, Note_on_c, 0, 70, 0
2, 45359, Note_on_c, 0, 50, 0
2, 45359, Note_on_c, 0, 47, 0
2, 45359, Note_on_c, 0, 43, 0
2, 45360, Note_on_c, 0, 71, 64
2, 45389, Note_on_c, 0, 71, 0
2, 45390, Note_on_c, 0, 66, 63
2, 45419, Note_on_c, 0, 66, 0
2, 45420, Note_on_c, 0, 67, 61
2, 45420, Note_on_c, 0, 55, 54
2, 45450, Note_on_c, 0, 59, 60
2, 45480, Note_on_c, 0, 62, 53
2, 45509, Note_on_c, 0, 67, 0
2, 45510, Note_on_c, 0, 64, 65
2, 45539, Note_on_c, 0, 64, 0
2, 45540, Note_on_c, 0, 76, 65
2, 45569, Note_on_c, 0, 76, 0
2, 45570, Note_on_c, 0, 71, 63
2, 45599, Note_on_c, 0, 71, 0
2, 45599, Note_on_c, 0, 62, 0
2, 45599, Note_on_c, 0, 59, 0
2, 45599, Note_on_c, 0, 55, 0
2, 45600, Note_on_c, 0, 72, 63
2, 45629, Note_on_c, 0, 72, 0
2, 45630, Note_on_c, 0, 68, 63
2, 45659, Note_on_c, 0, 68, 0
2, 45660, Note_on_c, 0, 69, 62
2, 45660, Note_on_c, 0, 43, 60
2, 45690, Note_on_c, 0, 48, 60
2, 45720, Note_on_c, 0, 52, 60
2, 45749, Note_on_c, 0, 69, 0
2, 45750, Note_on_c, 0, 64, 58
2, 45779, Note_on_c, 0, 64, 0
2, 45780, Note_on_c, 0, 76, 59
2, 45809, Note_on_c, 0, 76, 0
2, 45810, Note_on_c, 0, 71, 62
2, 45839, Note_on_c, 0, 71, 0
2, 45839, Note_on_c, 0, 52, 0
2, 45839, Note_on_c, 0, 48, 0
2, 45839, Note_on_c, 0, 43, 0
2, 45840, Note_on_c, 0, 72, 62
2, 45869, Note_on_c, 0, 72, 0
2, 45870, Note_on_c, 0, 68, 60
2, 45899, Note_on_c, 0, 68, 0
2, 45900, Note_on_c, 0, 69, 61
2, 45900, Note_on_c, 0, 55, 60
2, 45930, Note_on_c, 0, 60, 53
2, 45960, Note_on_c, 0, 64, 53
2, 45989, Note_on_c, 0, 69, 0
2, 45990, Note_on_c, 0, 69, 63
2, 46019, Note_on_c, 0, 69, 0
2, 46020, Note_on_c, 0, 84, 65
2, 46034, Note_on_c, 0, 84, 0
2, 46050, Note_on_c, 0, 83, 64
2, 46064, Note_on_c, 0, 83, 0
2, 46079, Note_on_c, 0, 64, 0
2, 46079, Note_on_c, 0, 60, 0
2, 46079, Note_on_c, 0, 55, 0
2, 46080, Note_on_c, 0, 81, 64
2, 46110, Note_on_c, 0, 54, 53
2, 46139, Note_on_c, 0, 54, 0
2, 46140, Note_on_c, 0, 57, 53
2, 46169, Note_on_c, 0, 57, 0
2, 46169, Note_on_c, 0, 81, 0
2, 46170, Note_on_c, 0, 79, 65
2, 46170, Note_on_c, 0, 62, 56
2, 46199, Note_on_c, 0, 62, 0
2, 46199, Note_on_c, 0, 79, 0
2, 46200, Note_on_c, 0, 78, 64
2, 46229, Note_on_c, 0, 78, 0
2, 46230, Note_on_c, 0, 76, 62
2, 46230, Note_on_c, 0, 50, 62
2, 46259, Note_on_c, 0, 50, 0
2, 46259, Note_on_c, 0, 76, 0
2, 46260, Note_on_c, 0, 74, 65
2, 46260, Note_on_c, 0, 57, 61
2, 46289, Note_on_c, 0, 57, 0
2, 46289, Note_on_c, 0, 74, 0
2, 46290, Note_on_c, 0, 72, 59
2, 46290, Note_on_c, 0, 60, 60
2, 46315, Note_on_c, 0, 72, 0
2, 46316, Note_on_c, 0, 74, 59
2, 46319, Note_on_c, 0, 60, 0
2, 46323, Note_on_c, 0, 74, 0
2, 46323, Note_on_c, 0, 72, 62
2, 46349, Note_on_c, 0, 72, 0
2, 46350, Note_on_c, 0, 71, 61
2, 46350, Note_on_c, 0, 55, 59
2, 46379, Note_on_c, 0, 55, 0
2, 46380, Note_on_c, 0, 59, 58
2, 46409, Note_on_c, 0, 59, 0
2, 46409, Note_on_c, 0, 71, 0
2, 46410, Note_on_c, 0, 79, 65
2, 46410, Note_on_c, 0, 62, 60
2, 46439, Note_on_c, 0, 62, 0
2, 46439, Note_on_c, 0, 79, 0
2, 46440, Note_on_c, 0, 79, 59
2, 46469, Note_on_c, 0, 79, 0
2, 46470, Note_on_c, 0, 69, 64
2, 46470, Note_on_c, 0, 48, 53
2, 46499, Note_on_c, 0, 48, 0
2, 46500, Note_on_c, 0, 52, 56
2, 46529, Note_on_c, 0, 52, 0
2, 46529, Note_on_c, 0, 69, 0
2, 46530, Note_on_c, 0, 76, 61
2, 46530, Note_on_c, 0, 57, 56
2, 46559, Note_on_c, 0, 57, 0
2, 46559, Note_on_c, 0, 76, 0
2, 46560, Note_on_c, 0, 76, 58
2, 46589, Note_on_c, 0, 76, 0
2, 46590, Note_on_c, 0, 67, 59
2, 46590, Note_on_c, 0, 50, 52
2, 46619, Note_on_c, 0, 50, 0
2, 46620, Note_on_c, 0, 55, 57
2, 46649, Note_on_c, 0, 55, 0
2, 46649, Note_on_c, 0, 67, 0
2, 46650, Note_on_c, 0, 74, 59
2, 46650, Note_on_c, 0, 59, 54
2, 46679, Note_on_c, 0, 59, 0
2, 46679, Note_on_c, 0, 74, 0
2, 46680, Note_on_c, 0, 74, 61
2, 46709, Note_on_c, 0, 74, 0
2, 46710, Note_on_c, 0, 60, 61
2, 46710, Note_on_c, 0, 38, 52
2, 46739, Note_on_c, 0, 38, 0
2, 46740, Note_on_c, 0, 45, 52
2, 46769, Note_on_c, 0, 45, 0
2, 46769, Note_on_c, 0, 60, 0
2, 46770, Note_on_c, 0, 66, 63
2, 46770, Note_on_c, 0, 50, 53
2, 46799, Note_on_c, 0, 50, 0
2, 46799, Note_on_c, 0, 66, 0
2, 46800, Note_on_c, 0, 59, 62
2, 46800, Note_on_c, 0, 67, 60
2, 46800, Note_on_c, 0, 43, 53
2, 46829, Note_on_c, 0, 43, 0
2, 46830, Note_on_c, 0, 47, 61
2, 46859, Note_on_c, 0, 47, 0
2, 46860, Note_on_c, 0, 50, 58
2, 46889, Note_on_c, 0, 50, 0
2, 46890, Note_on_c, 0, 47, 59
2, 46919, Note_on_c, 0, 47, 0
2, 46919, Note_on_c, 0, 67, 0
2, 46919, Note_on_c, 0, 59, 0
2, 46920, Note_on_c, 0, 43, 61
2, 46949, Note_on_c, 0, 43, 0
2, 46950, Note_on_c, 0, 47, 52
2, 46979, Note_on_c, 0, 47, 0
2, 46980, Note_on_c, 0, 74, 65
2, 46980, Note_on_c, 0, 50, 54
2, 47009, Note_on_c, 0, 50, 0
2, 47010, Note_on_c, 0, 47, 55
2, 47039, Note_on_c, 0, 47, 0
2, 47039, Note_on_c, 0, 74, 0
2, 47040, Note_on_c, 0, 74, 61
2, 47040, Note_on_c, 0, 43, 62
2, 47069, Note_on_c, 0, 43, 0
2, 47069, Note_on_c, 0, 74, 0
2, 47070, Note_on_c, 0, 47, 56
2, 47099, Note_on_c, 0, 47, 0
2, 47100, Note_on_c, 0, 74, 68
2, 47100, Note_on_c, 0, 50, 57
2, 47129, Note_on_c, 0, 50, 0
2, 47129, Note_on_c, 0, 74, 0
2, 47130, Note_on_c, 0, 47, 59
2, 47159, Note_on_c, 0, 47, 0
2, 47160, Note_on_c, 0, 74, 72
2, 47160, Note_on_c, 0, 43, 60
2, 47189, Note_on_c, 0, 43, 0
2, 47189, Note_on_c, 0, 74, 0
2, 47190, Note_on_c, 0, 47, 69
2, 47219, Note_on_c, 0, 47, 0
2, 47220, Note_on_c, 0, 74, 74
2, 47220, Note_on_c, 0, 50, 65
2, 47231, Note_on_c, 0, 74, 0
2, 47232, Note_on_c, 0, 76, 71
2, 47243, Note_on_c, 0, 76, 0
2, 47244, Note_on_c, 0, 74, 75
2, 47249, Note_on_c, 0, 50, 0
2, 47250, Note_on_c, 0, 47, 70
2, 47255, Note_on_c, 0, 74, 0
2, 47256, Note_on_c, 0, 73, 70
2, 47267, Note_on_c, 0, 73, 0
2, 47268, Note_on_c, 0, 74, 72
2, 47279, Note_on_c, 0, 74, 0
2, 47279, Note_on_c, 0, 47, 0
2, 47280, Note_on_c, 0, 76, 92
2, 47280, Note_on_c, 0, 45, 69
2, 47309, Note_on_c, 0, 45, 0
2, 47310, Note_on_c, 0, 48, 65
2, 47339, Note_on_c, 0, 48, 0
2, 47340, Note_on_c, 0, 54, 65
2, 47369, Note_on_c, 0, 54, 0
2, 47370, Note_on_c, 0, 48, 73
2, 47399, Note_on_c, 0, 48, 0
2, 47399, Note_on_c, 0, 76, 0
2, 47400, Note_on_c, 0, 74, 70
2, 47400, Note_on_c, 0, 45, 63
2, 47429, Note_on_c, 0, 45, 0
2, 47430, Note_on_c, 0, 48, 66
2, 47459, Note_on_c, 0, 48, 0
2, 47459, Note_on_c, 0, 74, 0
2, 47460, Note_on_c, 0, 54, 69
2, 47489, Note_on_c, 0, 54, 0
2, 47490, Note_on_c, 0, 48, 66
2, 47519, Note_on_c, 0, 48, 0
2, 47520, Note_on_c, 0, 45, 58
2, 47549, Note_on_c, 0, 45, 0
2, 47550, Note_on_c, 0, 48, 62
2, 47579, Note_on_c, 0, 48, 0
2, 47580, Note_on_c, 0, 54, 55
2, 47609, Note_on_c, 0, 54, 0
2, 47610, Note_on_c, 0, 74, 68
2, 47610, Note_on_c, 0, 48, 62
2, 47624, Note_on_c, 0, 74, 0
2, 47639, Note_on_c, 0, 48, 0
2, 47640, Note_on_c, 0, 74, 66
2, 47640, Note_on_c, 0, 45, 67
2, 47654, Note_on_c, 0, 74, 0
2, 47669, Note_on_c, 0, 45, 0
2, 47670, Note_on_c, 0, 74, 72
2, 47670, Note_on_c, 0, 48, 62
2, 47684, Note_on_c, 0, 74, 0
2, 47699, Note_on_c, 0, 48, 0
2, 47700, Note_on_c, 0, 74, 75
2, 47700, Note_on_c, 0, 54, 63
2, 47714, Note_on_c, 0, 74, 0
2, 47729, Note_on_c, 0, 54, 0
2, 47730, Note_on_c, 0, 74, 71
2, 47730, Note_on_c, 0, 48, 72
2, 47744, Note_on_c, 0, 74, 0
2, 47759, Note_on_c, 0, 48, 0
2, 47760, Note_on_c, 0, 76, 98
2, 47760, Note_on_c, 0, 47, 76
2, 47789, Note_on_c, 0, 47, 0
2, 47790, Note_on_c, 0, 50, 67
2, 47819, Note_on_c, 0, 50, 0
2, 47820, Note_on_c, 0, 55, 72
2, 47849, Note_on_c, 0, 55, 0
2, 47850, Note_on_c, 0, 50, 67
2, 47879, Note_on_c, 0, 50, 0
2, 47879, Note_on_c, 0, 76, 0
2, 47880, Note_on_c, 0, 74, 65
2, 47880, Note_on_c, 0, 47, 60
2, 47909, Note_on_c, 0, 47, 0
2, 47910, Note_on_c, 0, 50, 54
2, 47939, Note_on_c, 0, 50, 0
2, 47939, Note_on_c, 0, 74, 0
2, 47940, Note_on_c, 0, 55, 55
2, 47969, Note_on_c, 0, 55, 0
2, 47970, Note_on_c, 0, 50, 48
2, 47999, Note_on_c, 0, 50, 0
2, 48000, Note_on_c, 0, 47, 38
2, 48029, Note_on_c, 0, 47, 0
2, 48030, Note_on_c, 0, 53, 39
2, 48059, Note_on_c, 0, 53, 0
2, 48060, Note_on_c, 0, 79, 50
2, 48060, Note_on_c, 0, 55, 41
2, 48089, Note_on_c, 0, 55, 0
2, 48089, Note_on_c, 0, 79, 0
2, 48090, Note_on_c, 0, 53, 46
2, 48119, Note_on_c, 0, 53, 0
2, 48120, Note_on_c, 0, 79, 47
2, 48120, Note_on_c, 0, 47, 40
2, 48149, Note_on_c, 0, 47, 0
2, 48149, Note_on_c, 0, 79, 0
2, 48150, Note_on_c, 0, 53, 44
2, 48179, Note_on_c, 0, 53, 0
2, 48180, Note_on_c, 0, 79, 44
2, 48180, Note_on_c, 0, 55, 44
2, 48191, Note_on_c, 0, 79, 0
2, 48192, Note_on_c, 0, 81, 48
2, 48203, Note_on_c, 0, 81, 0
2, 48204, Note_on_c, 0, 79, 49
2, 48209, Note_on_c, 0, 55, 0
2, 48210, Note_on_c, 0, 53, 48
2, 48215, Note_on_c, 0, 79, 0
2, 48216, Note_on_c, 0, 78, 51
2, 48227, Note_on_c, 0, 78, 0
2, 48228, Note_on_c, 0, 79, 51
2, 48239, Note_on_c, 0, 79, 0
2, 48239, Note_on_c, 0, 53, 0
2, 48240, Note_on_c, 0, 81, 48
2, 48240, Note_on_c, 0, 48, 42
2, 48269, Note_on_c, 0, 48, 0
2, 48270, Note_on_c, 0, 52, 44
2, 48299, Note_on_c, 0, 52, 0
2, 48300, Note_on_c, 0, 55, 47
2, 48329, Note_on_c, 0, 55, 0
2, 48330, Note_on_c, 0, 52, 45
2, 48359, Note_on_c, 0, 52, 0
2, 48359, Note_on_c, 0, 81, 0
2, 48360, Note_on_c, 0, 79, 51
2, 48360, Note_on_c, 0, 48, 39
2, 48389, Note_on_c, 0, 48, 0
2, 48390, Note_on_c, 0, 52, 46
2, 48419, Note_on_c, 0, 52, 0
2, 48419, Note_on_c, 0, 79, 0
2, 48420, Note_on_c, 0, 55, 38
2, 48449, Note_on_c, 0, 55, 0
2, 48450, Note_on_c, 0, 52, 47
2, 48479, Note_on_c, 0, 52, 0
2, 48480, Note_on_c, 0, 50, 39
2, 48509, Note_on_c, 0, 50, 0
2, 48510, Note_on_c, 0, 53, 40
2, 48539, Note_on_c, 0, 53, 0
2, 48540, Note_on_c, 0, 59, 47
2, 48569, Note_on_c, 0, 59, 0
2, 48570, Note_on_c, 0, 79, 49
2, 48570, Note_on_c, 0, 53, 51
2, 48584, Note_on_c, 0, 79, 0
2, 48599, Note_on_c, 0, 53, 0
2, 48600, Note_on_c, 0, 79, 51
2, 48600, Note_on_c, 0, 50, 49
2, 48614, Note_on_c, 0, 79, 0
2, 48629, Note_on_c, 0, 50, 0
2, 48630, Note_on_c, 0, 79, 58
2, 48630, Note_on_c, 0, 53, 50
2, 48644, Note_on_c, 0, 79, 0
2, 48659, Note_on_c, 0, 53, 0
2, 48660, Note_on_c, 0, 79, 55
2, 48660, Note_on_c, 0, 59, 52
2, 48674, Note_on_c, 0, 79, 0
2, 48689, Note_on_c, 0, 59, 0
2, 48690, Note_on_c, 0, 79, 63
2, 48690, Note_on_c, 0, 53, 56
2, 48704, Note_on_c, 0, 79, 0
2, 48719, Note_on_c, 0, 53, 0
2, 48720, Note_on_c, 0, 81, 59
2, 48720, Note_on_c, 0, 52, 62
2, 48749, Note_on_c, 0, 52, 0
2, 48750, Note_on_c, 0, 55, 53
2, 48779, Note_on_c, 0, 55, 0
2, 48779, Note_on_c, 0, 81, 0
2, 48780, Note_on_c, 0, 79, 64
2, 48780, Note_on_c, 0, 60, 61
2, 48809, Note_on_c, 0, 60, 0
2, 48810, Note_on_c, 0, 55, 60
2, 48839, Note_on_c, 0, 55, 0
2, 48840, Note_on_c, 0, 52, 59
2, 48869, Note_on_c, 0, 52, 0
2, 48869, Note_on_c, 0, 79, 0
2, 48870, Note_on_c, 0, 81, 59
2, 48870, Note_on_c, 0, 55, 55
2, 48884, Note_on_c, 0, 81, 0
2, 48885, Note_on_c, 0, 79, 58
2, 48899, Note_on_c, 0, 79, 0
2, 48899, Note_on_c, 0, 55, 0
2, 48900, Note_on_c, 0, 77, 65
2, 48900, Note_on_c, 0, 60, 56
2, 48914, Note_on_c, 0, 77, 0
2, 48929, Note_on_c, 0, 60, 0
2, 48930, Note_on_c, 0, 76, 65
2, 48930, Note_on_c, 0, 55, 52
2, 48944, Note_on_c, 0, 76, 0
2, 48959, Note_on_c, 0, 55, 0
2, 48960, Note_on_c, 0, 76, 64
2, 48960, Note_on_c, 0, 53, 56
2, 48989, Note_on_c, 0, 53, 0
2, 48990, Note_on_c, 0, 57, 55
2, 49019, Note_on_c, 0, 57, 0
2, 49019, Note_on_c, 0, 76, 0
2, 49020, Note_on_c, 0, 74, 63
2, 49020, Note_on_c, 0, 62, 61
2, 49049, Note_on_c, 0, 62, 0
2, 49050, Note_on_c, 0, 57, 58
2, 49079, Note_on_c, 0, 57, 0
2, 49080, Note_on_c, 0, 54, 61
2, 49109, Note_on_c, 0, 54, 0
2, 49110, Note_on_c, 0, 57, 69
2, 49139, Note_on_c, 0, 57, 0
2, 49139, Note_on_c, 0, 74, 0
2, 49140, Note_on_c, 0, 72, 70
2, 49140, Note_on_c, 0, 62, 67
2, 49169, Note_on_c, 0, 62, 0
2, 49170, Note_on_c, 0, 57, 74
2, 49174, Note_on_c, 0, 72, 0
2, 49175, Note_on_c, 0, 71, 63
2, 49184, Note_on_c, 0, 71, 0
2, 49185, Note_on_c, 0, 72, 64
2, 49194, Note_on_c, 0, 72, 0
2, 49195, Note_on_c, 0, 74, 64
2, 49199, Note_on_c, 0, 57, 0
2, 49200, Note_on_c, 0, 55, 76
2, 49204, Note_on_c, 0, 74, 0
2, 49205, Note_on_c, 0, 72, 75
2, 49229, Note_on_c, 0, 55, 0
2, 49230, Note_on_c, 0, 59, 68
2, 49259, Note_on_c, 0, 59, 0
2, 49259, Note_on_c, 0, 72, 0
2, 49260, Note_on_c, 0, 71, 76
2, 49260, Note_on_c, 0, 62, 73
2, 49289, Note_on_c, 0, 62, 0
2, 49290, Note_on_c, 0, 59, 67
2, 49319, Note_on_c, 0, 59, 0
2, 49320, Note_on_c, 0, 55, 71
2, 49349, Note_on_c, 0, 55, 0
2, 49350, Note_on_c, 0, 59, 68
2, 49379, Note_on_c, 0, 59, 0
2, 49379, Note_on_c, 0, 71, 0
2, 49380, Note_on_c, 0, 79, 77
2, 49380, Note_on_c, 0, 64, 76
2, 49409, Note_on_c, 0, 64, 0
2, 49410, Note_on_c, 0, 59, 70
2, 49439, Note_on_c, 0, 59, 0
2, 49439, Note_on_c, 0, 79, 0
2, 49440, Note_on_c, 0, 79, 75
2, 49440, Note_on_c, 0, 57, 76
2, 49469, Note_on_c, 0, 57, 0
2, 49470, Note_on_c, 0, 60, 69
2, 49499, Note_on_c, 0, 60, 0
2, 49499, Note_on_c, 0, 79, 0
2, 49500, Note_on_c, 0, 78, 74
2, 49500, Note_on_c, 0, 64, 66
2, 49529, Note_on_c, 0, 64, 0
2, 49530, Note_on_c, 0, 60, 71
2, 49559, Note_on_c, 0, 60, 0
2, 49560, Note_on_c, 0, 57, 69
2, 49589, Note_on_c, 0, 57, 0
2, 49590, Note_on_c, 0, 60, 74
2, 49619, Note_on_c, 0, 60, 0
2, 49619, Note_on_c, 0, 78, 0
2, 49620, Note_on_c, 0, 76, 78
2, 49620, Note_on_c, 0, 66, 67
2, 49649, Note_on_c, 0, 66, 0
2, 49650, Note_on_c, 0, 60, 69
2, 49654, Note_on_c, 0, 76, 0
2, 49655, Note_on_c, 0, 74, 64
2, 49664, Note_on_c, 0, 74, 0
2, 49665, Note_on_c, 0, 76, 64
2, 49674, Note_on_c, 0, 76, 0
2, 49675, Note_on_c, 0, 78, 65
2, 49679, Note_on_c, 0, 60, 0
2, 49680, Note_on_c, 0, 59, 70
2, 49684, Note_on_c, 0, 78, 0
2, 49685, Note_on_c, 0, 76, 75
2, 49709, Note_on_c, 0, 59, 0
2, 49710, Note_on_c, 0, 62, 74
2, 49739, Note_on_c, 0, 62, 0
2, 49739, Note_on_c, 0, 76, 0
2, 49740, Note_on_c, 0, 74, 75
2, 49740, Note_on_c, 0, 66, 67
2, 49769, Note_on_c, 0, 66, 0
2, 49770, Note_on_c, 0, 62, 71
2, 49799, Note_on_c, 0, 62, 0
2, 49800, Note_on_c, 0, 59, 68
2, 49829, Note_on_c, 0, 59, 0
2, 49830, Note_on_c, 0, 62, 73
2, 49859, Note_on_c, 0, 62, 0
2, 49859, Note_on_c, 0, 74, 0
2, 49860, Note_on_c, 0, 83, 73
2, 49860, Note_on_c, 0, 67, 76
2, 49889, Note_on_c, 0, 67, 0
2, 49890, Note_on_c, 0, 62, 71
2, 49919, Note_on_c, 0, 62, 0
2, 49919, Note_on_c, 0, 83, 0
2, 49920, Note_on_c, 0, 83, 75
2, 49920, Note_on_c, 0, 60, 70
2, 49949, Note_on_c, 0, 60, 0
2, 49950, Note_on_c, 0, 64, 72
2, 49979, Note_on_c, 0, 64, 0
2, 49979, Note_on_c, 0, 83, 0
2, 49980, Note_on_c, 0, 81, 78
2, 49980, Note_on_c, 0, 69, 72
2, 50009, Note_on_c, 0, 69, 0
2, 50010, Note_on_c, 0, 64, 76
2, 50039, Note_on_c, 0, 64, 0
2, 50040, Note_on_c, 0, 61, 73
2, 50069, Note_on_c, 0, 61, 0
2, 50070, Note_on_c, 0, 64, 70
2, 50099, Note_on_c, 0, 64, 0
2, 50099, Note_on_c, 0, 81, 0
2, 50100, Note_on_c, 0, 79, 76
2, 50100, Note_on_c, 0, 69, 67
2, 50129, Note_on_c, 0, 69, 0
2, 50130, Note_on_c, 0, 64, 72
2, 50159, Note_on_c, 0, 64, 0
2, 50159, Note_on_c, 0, 79, 0
2, 50160, Note_on_c, 0, 79, 59
2, 50160, Note_on_c, 0, 62, 52
2, 50189, Note_on_c, 0, 62, 0
2, 50190, Note_on_c, 0, 69, 58
2, 50219, Note_on_c, 0, 69, 0
2, 50219, Note_on_c, 0, 79, 0
2, 50220, Note_on_c, 0, 78, 60
2, 50220, Note_on_c, 0, 74, 57
2, 50249, Note_on_c, 0, 74, 0
2, 50250, Note_on_c, 0, 69, 62
2, 50279, Note_on_c, 0, 69, 0
2, 50280, Note_on_c, 0, 62, 52
2, 50309, Note_on_c, 0, 62, 0
2, 50310, Note_on_c, 0, 67, 53
2, 50339, Note_on_c, 0, 67, 0
2, 50339, Note_on_c, 0, 78, 0
2, 50340, Note_on_c, 0, 76, 60
2, 50340, Note_on_c, 0, 73, 58
2, 50369, Note_on_c, 0, 73, 0
2, 50370, Note_on_c, 0, 67, 55
2, 50399, Note_on_c, 0, 67, 0
2, 50399, Note_on_c, 0, 76, 0
2, 50400, Note_on_c, 0, 76, 64
2, 50400, Note_on_c, 0, 62, 59
2, 50429, Note_on_c, 0, 62, 0
2, 50430, Note_on_c, 0, 66, 56
2, 50459, Note_on_c, 0, 66, 0
2, 50459, Note_on_c, 0, 76, 0
2, 50460, Note_on_c, 0, 74, 60
2, 50460, Note_on_c, 0, 69, 57
2, 50489, Note_on_c, 0, 69, 0
2, 50490, Note_on_c, 0, 66, 56
2, 50519, Note_on_c, 0, 66, 0
2, 50519, Note_on_c, 0, 74, 0
2, 50520, Note_on_c, 0, 62, 62
2, 50540, Note_on_c, 0, 79, 61
2, 50549, Note_on_c, 0, 62, 0
2, 50550, Note_on_c, 0, 69, 58
2, 50559, Note_on_c, 0, 79, 0
2, 50560, Note_on_c, 0, 81, 63
2, 50579, Note_on_c, 0, 81, 0
2, 50579, Note_on_c, 0, 69, 0
2, 50580, Note_on_c, 0, 83, 60
2, 50580, Note_on_c, 0, 73, 60
2, 50599, Note_on_c, 0, 83, 0
2, 50600, Note_on_c, 0, 81, 59
2, 50609, Note_on_c, 0, 73, 0
2, 50610, Note_on_c, 0, 69, 52
2, 50619, Note_on_c, 0, 81, 0
2, 50620, Note_on_c, 0, 79, 58
2, 50639, Note_on_c, 0, 79, 0
2, 50639, Note_on_c, 0, 69, 0
2, 50640, Note_on_c, 0, 79, 58
2, 50640, Note_on_c, 0, 62, 53
2, 50669, Note_on_c, 0, 62, 0
2, 50670, Note_on_c, 0, 69, 52
2, 50699, Note_on_c, 0, 69, 0
2, 50699, Note_on_c, 0, 79, 0
2, 50700, Note_on_c, 0, 78, 62
2, 50700, Note_on_c, 0, 74, 56
2, 50729, Note_on_c, 0, 74, 0
2, 50730, Note_on_c, 0, 69, 56
2, 50759, Note_on_c, 0, 69, 0
2, 50759, Note_on_c, 0, 78, 0
2, 50760, Note_on_c, 0, 62, 62
2, 50780, Note_on_c, 0, 76, 60
2, 50789, Note_on_c, 0, 62, 0
2, 50790, Note_on_c, 0, 67, 58
2, 50799, Note_on_c, 0, 76, 0
2, 50800, Note_on_c, 0, 78, 59
2, 50819, Note_on_c, 0, 78, 0
2, 50819, Note_on_c, 0, 67, 0
2, 50820, Note_on_c, 0, 79, 62
2, 50820, Note_on_c, 0, 73, 59
2, 50839, Note_on_c, 0, 79, 0
2, 50840, Note_on_c, 0, 78, 63
2, 50849, Note_on_c, 0, 73, 0
2, 50850, Note_on_c, 0, 67, 57
2, 50859, Note_on_c, 0, 78, 0
2, 50860, Note_on_c, 0, 76, 59
2, 50879, Note_on_c, 0, 76, 0
2, 50879, Note_on_c, 0, 67, 0
2, 50880, Note_on_c, 0, 76, 65
2, 50880, Note_on_c, 0, 62, 62
2, 50909, Note_on_c, 0, 62, 0
2, 50910, Note_on_c, 0, 66, 53
2, 50939, Note_on_c, 0, 66, 0
2, 50939, Note_on_c, 0, 76, 0
2, 50940, Note_on_c, 0, 74, 64
2, 50940, Note_on_c, 0, 69, 59
2, 50969, Note_on_c, 0, 69, 0
2, 50970, Note_on_c, 0, 66, 54
2, 50999, Note_on_c, 0, 66, 0
2, 50999, Note_on_c, 0, 74, 0
2, 51000, Note_on_c, 0, 62, 52
2, 51020, Note_on_c, 0, 79, 63
2, 51029, Note_on_c, 0, 62, 0
2, 51030, Note_on_c, 0, 69, 56
2, 51039, Note_on_c, 0, 79, 0
2, 51040, Note_on_c, 0, 81, 63
2, 51059, Note_on_c, 0, 81, 0
2, 51059, Note_on_c, 0, 69, 0
2, 51060, Note_on_c, 0, 83, 63
2, 51060, Note_on_c, 0, 73, 60
2, 51079, Note_on_c, 0, 83, 0
2, 51080, Note_on_c, 0, 81, 60
2, 51089, Note_on_c, 0, 73, 0
2, 51090, Note_on_c, 0, 69, 59
2, 51099, Note_on_c, 0, 81, 0
2, 51100, Note_on_c, 0, 79, 58
2, 51119, Note_on_c, 0, 79, 0
2, 51119, Note_on_c, 0, 69, 0
2, 51120, Note_on_c, 0, 79, 60
2, 51120, Note_on_c, 0, 62, 56
2, 51139, Note_on_c, 0, 79, 0
2, 51140, Note_on_c, 0, 78, 62
2, 51149, Note_on_c, 0, 62, 0
2, 51150, Note_on_c, 0, 69, 53
2, 51159, Note_on_c, 0, 78, 0
2, 51160, Note_on_c, 0, 79, 63
2, 51179, Note_on_c, 0, 79, 0
2, 51179, Note_on_c, 0, 69, 0
2, 51180, Note_on_c, 0, 81, 59
2, 51180, Note_on_c, 0, 74, 60
2, 51199, Note_on_c, 0, 81, 0
2, 51200, Note_on_c, 0, 79, 65
2, 51209, Note_on_c, 0, 74, 0
2, 51210, Note_on_c, 0, 69, 59
2, 51219, Note_on_c, 0, 79, 0
2, 51220, Note_on_c, 0, 78, 59
2, 51239, Note_on_c, 0, 78, 0
2, 51239, Note_on_c, 0, 69, 0
2, 51240, Note_on_c, 0, 78, 58
2, 51240, Note_on_c, 0, 62, 55
2, 51259, Note_on_c, 0, 78, 0
2, 51260, Note_on_c, 0, 76, 60
2, 51269, Note_on_c, 0, 62, 0
2, 51270, Note_on_c, 0, 67, 53
2, 51279, Note_on_c, 0, 76, 0
2, 51280, Note_on_c, 0, 78, 65
2, 51299, Note_on_c, 0, 78, 0
2, 51299, Note_on_c, 0, 67, 0
2, 51300, Note_on_c, 0, 79, 63
2, 51300, Note_on_c, 0, 73, 60
2, 51319, Note_on_c, 0, 79, 0
2, 51320, Note_on_c, 0, 78, 60
2, 51329, Note_on_c, 0, 73, 0
2, 51330, Note_on_c, 0, 67, 60
2, 51339, Note_on_c, 0, 78, 0
2, 51340, Note_on_c, 0, 76, 58
2, 51359, Note_on_c, 0, 76, 0
2, 51359, Note_on_c, 0, 67, 0
2, 51360, Note_on_c, 0, 76, 65
2, 51360, Note_on_c, 0, 62, 59
2, 51360, Note_on_c, 0, 66, 54
2, 51360, Note_on_c, 0, 69, 57
2, 51379, Note_on_c, 0, 76, 0
2, 51380, Note_on_c, 0, 74, 64
2, 51399, Note_on_c, 0, 74, 0
2, 51400, Note_on_c, 0, 73, 66
2, 51419, Note_on_c, 0, 73, 0
2, 51419, Note_on_c, 0, 62, 0
2, 51419, Note_on_c, 0, 66, 0
2, 51419, Note_on_c, 0, 69, 0
2, 51420, Note_on_c, 0, 74, 65
2, 51439, Note_on_c, 0, 74, 0
2, 51440, Note_on_c, 0, 76, 65
2, 51459, Note_on_c, 0, 76, 0
2, 51460, Note_on_c, 0, 78, 63
2, 51479, Note_on_c, 0, 78, 0
2, 51480, Note_on_c, 0, 79, 59
2, 51499, Note_on_c, 0, 79, 0
2, 51500, Note_on_c, 0, 80, 62
2, 51519, Note_on_c, 0, 80, 0
2, 51520, Note_on_c, 0, 81, 61
2, 51539, Note_on_c, 0, 81, 0
2, 51540, Note_on_c, 0, 82, 65
2, 51554, Note_on_c, 0, 82, 0
2, 51555, Note_on_c, 0, 83, 62
2, 51569, Note_on_c, 0, 83, 0
2, 51570, Note_on_c, 0, 84, 63
2, 51584, Note_on_c, 0, 84, 0
2, 51585, Note_on_c, 0, 85, 61
2, 51599, Note_on_c, 0, 85, 0
2, 51600, Note_on_c, 0, 86, 66
2, 51659, Note_on_c, 0, 86, 0
2, 51660, Note_on_c, 0, 86, 60
2, 51719, Note_on_c, 0, 86, 0
2, 51720, Note_on_c, 0, 86, 59
2, 51779, Note_on_c, 0, 86, 0
2, 51780, Note_on_c, 0, 86, 62
2, 51839, Note_on_c, 0, 86, 0
2, 51840, Note_on_c, 0, 83, 64
2, 51840, Note_on_c, 0, 86, 66
2, 51870, Note_on_c, 0, 43, 63
2, 51899, Note_on_c, 0, 43, 0
2, 51900, Note_on_c, 0, 55, 53
2, 51929, Note_on_c, 0, 55, 0
2, 51929, Note_on_c, 0, 86, 0
2, 51929, Note_on_c, 0, 83, 0
2, 51930, Note_on_c, 0, 82, 62
2, 51930, Note_on_c, 0, 85, 61
2, 51939, Note_on_c, 0, 85, 0
2, 51939, Note_on_c, 0, 82, 0
2, 51960, Note_on_c, 0, 83, 62
2, 51960, Note_on_c, 0, 86, 61
2, 51990, Note_on_c, 0, 55, 63
2, 52019, Note_on_c, 0, 55, 0
2, 52020, Note_on_c, 0, 67, 57
2, 52049, Note_on_c, 0, 67, 0
2, 52049, Note_on_c, 0, 86, 0
2, 52049, Note_on_c, 0, 83, 0
2, 52050, Note_on_c, 0, 82, 62
2, 52050, Note_on_c, 0, 85, 64
2, 52059, Note_on_c, 0, 85, 0
2, 52059, Note_on_c, 0, 82, 0
2, 52080, Note_on_c, 0, 83, 63
2, 52080, Note_on_c, 0, 86, 65
2, 52110, Note_on_c, 0, 67, 61
2, 52139, Note_on_c, 0, 67, 0
2, 52140, Note_on_c, 0, 79, 62
2, 52169, Note_on_c, 0, 79, 0
2, 52169, Note_on_c, 0, 86, 0
2, 52169, Note_on_c, 0, 83, 0
2, 52170, Note_on_c, 0, 84, 66
2, 52170, Note_on_c, 0, 81, 65
2, 52179, Note_on_c, 0, 81, 0
2, 52179, Note_on_c, 0, 84, 0
2, 52200, Note_on_c, 0, 81, 64
2, 52200, Note_on_c, 0, 84, 66
2, 52229, Note_on_c, 0, 84, 0
2, 52229, Note_on_c, 0, 81, 0
2, 52230, Note_on_c, 0, 79, 61
2, 52230, Note_on_c, 0, 83, 61
2, 52239, Note_on_c, 0, 83, 0
2, 52239, Note_on_c, 0, 79, 0
2, 52260, Note_on_c, 0, 79, 61
2, 52260, Note_on_c, 0, 83, 62
2, 52289, Note_on_c, 0, 83, 0
2, 52289, Note_on_c, 0, 79, 0
2, 52290, Note_on_c, 0, 78, 60
2, 52290, Note_on_c, 0, 81, 66
2, 52299, Note_on_c, 0, 81, 0
2, 52299, Note_on_c, 0, 78, 0
2, 52320, Note_on_c, 0, 78, 60
2, 52320, Note_on_c, 0, 81, 61
2, 52349, Note_on_c, 0, 81, 0
2, 52349, Note_on_c, 0, 78, 0
2, 52350, Note_on_c, 0, 76, 59
2, 52350, Note_on_c, 0, 79, 65
2, 52359, Note_on_c, 0, 79, 0
2, 52359, Note_on_c, 0, 76, 0
2, 52380, Note_on_c, 0, 76, 65
2, 52380, Note_on_c, 0, 79, 59
2, 52409, Note_on_c, 0, 79, 0
2, 52409, Note_on_c, 0, 76, 0
2, 52410, Note_on_c, 0, 74, 59
2, 52410, Note_on_c, 0, 78, 62
2, 52419, Note_on_c, 0, 78, 0
2, 52419, Note_on_c, 0, 74, 0
2, 52440, Note_on_c, 0, 74, 65
2, 52440, Note_on_c, 0, 78, 60
2, 52469, Note_on_c, 0, 78, 0
2, 52469, Note_on_c, 0, 74, 0
2, 52470, Note_on_c, 0, 72, 65
2, 52470, Note_on_c, 0, 76, 60
2, 52479, Note_on_c, 0, 76, 0
2, 52479, Note_on_c, 0, 72, 0
2, 52500, Note_on_c, 0, 72, 65
2, 52500, Note_on_c, 0, 76, 63
2, 52529, Note_on_c, 0, 76, 0
2, 52529, Note_on_c, 0, 72, 0
2, 52530, Note_on_c, 0, 71, 63
2, 52530, Note_on_c, 0, 74, 63
2, 52539, Note_on_c, 0, 74, 0
2, 52539, Note_on_c, 0, 71, 0
2, 52560, Note_on_c, 0, 68, 61
2, 52560, Note_on_c, 0, 71, 64
2, 52620, Note_on_c, 0, 38, 63
2, 52649, Note_on_c, 0, 38, 0
2, 52679, Note_on_c, 0, 71, 0
2, 52679, Note_on_c, 0, 68, 0
2, 52680, Note_on_c, 0, 72, 65
2, 52680, Note_on_c, 0, 69, 64
2, 52680, Note_on_c, 0, 38, 62
2, 52709, Note_on_c, 0, 38, 0
2, 52739, Note_on_c, 0, 69, 0
2, 52739, Note_on_c, 0, 72, 0
2, 52740, Note_on_c, 0, 38, 59
2, 52769, Note_on_c, 0, 38, 0
2, 52800, Note_on_c, 0, 81, 66
2, 52800, Note_on_c, 0, 84, 63
2, 52830, Note_on_c, 0, 38, 54
2, 52859, Note_on_c, 0, 38, 0
2, 52860, Note_on_c, 0, 50, 64
2, 52889, Note_on_c, 0, 50, 0
2, 52889, Note_on_c, 0, 84, 0
2, 52889, Note_on_c, 0, 81, 0
2, 52890, Note_on_c, 0, 80, 66
2, 52890, Note_on_c, 0, 83, 63
2, 52899, Note_on_c, 0, 83, 0
2, 52899, Note_on_c, 0, 80, 0
2, 52920, Note_on_c, 0, 81, 61
2, 52920, Note_on_c, 0, 84, 60
2, 52950, Note_on_c, 0, 50, 64
2, 52979, Note_on_c, 0, 50, 0
2, 52980, Note_on_c, 0, 62, 61
2, 53009, Note_on_c, 0, 62, 0
2, 53009, Note_on_c, 0, 84, 0
2, 53009, Note_on_c, 0, 81, 0
2, 53010, Note_on_c, 0, 80, 63
2, 53010, Note_on_c, 0, 83, 64
2, 53019, Note_on_c, 0, 83, 0
2, 53019, Note_on_c, 0, 80, 0
2, 53040, Note_on_c, 0, 81, 61
2, 53040, Note_on_c, 0, 84, 60
2, 53070, Note_on_c, 0, 62, 61
2, 53099, Note_on_c, 0, 62, 0
2, 53100, Note_on_c, 0, 74, 59
2, 53129, Note_on_c, 0, 74, 0
2, 53129, Note_on_c, 0, 84, 0
2, 53129, Note_on_c, 0, 81, 0
2, 53130, Note_on_c, 0, 79, 67
2, 53130, Note_on_c, 0, 83, 62
2, 53139, Note_on_c, 0, 83, 0
2, 53139, Note_on_c, 0, 79, 0
2, 53160, Note_on_c, 0, 83, 61
2, 53160, Note_on_c, 0, 79, 62
2, 53189, Note_on_c, 0, 79, 0
2, 53189, Note_on_c, 0, 83, 0
2, 53190, Note_on_c, 0, 78, 66
2, 53190, Note_on_c, 0, 81, 66
2, 53199, Note_on_c, 0, 81, 0
2, 53199, Note_on_c, 0, 78, 0
2, 53220, Note_on_c, 0, 78, 67
2, 53220, Note_on_c, 0, 81, 64
2, 53249, Note_on_c, 0, 81, 0
2, 53249, Note_on_c, 0, 78, 0
2, 53250, Note_on_c, 0, 76, 61
2, 53250, Note_on_c, 0, 79, 67
2, 53259, Note_on_c, 0, 79, 0
2, 53259, Note_on_c, 0, 76, 0
2, 53280, Note_on_c, 0, 76, 64
2, 53280, Note_on_c, 0, 79, 61
2, 53309, Note_on_c, 0, 79, 0
2, 53309, Note_on_c, 0, 76, 0
2, 53310, Note_on_c, 0, 78, 62
2, 53310, Note_on_c, 0, 74, 67
2, 53319, Note_on_c, 0, 74, 0
2, 53319, Note_on_c, 0, 78, 0
2, 53340, Note_on_c, 0, 78, 65
2, 53340, Note_on_c, 0, 74, 64
2, 53369, Note_on_c, 0, 74, 0
2, 53369, Note_on_c, 0, 78, 0
2, 53370, Note_on_c, 0, 72, 61
2, 53370, Note_on_c, 0, 76, 66
2, 53379, Note_on_c, 0, 76, 0
2, 53379, Note_on_c, 0, 72, 0
2, 53400, Note_on_c, 0, 72, 62
2, 53400, Note_on_c, 0, 76, 67
2, 53429, Note_on_c, 0, 76, 0
2, 53429, Note_on_c, 0, 72, 0
2, 53430, Note_on_c, 0, 71, 65
2, 53430, Note_on_c, 0, 74, 63
2, 53439, Note_on_c, 0, 74, 0
2, 53439, Note_on_c, 0, 71, 0
2, 53460, Note_on_c, 0, 71, 66
2, 53460, Note_on_c, 0, 74, 62
2, 53489, Note_on_c, 0, 74, 0
2, 53489, Note_on_c, 0, 71, 0
2, 53490, Note_on_c, 0, 69, 67
2, 53490, Note_on_c, 0, 72, 64
2, 53499, Note_on_c, 0, 72, 0
2, 53499, Note_on_c, 0, 69, 0
2, 53520, Note_on_c, 0, 71, 77
2, 53520, Note_on_c, 0, 67, 63
2, 53550, Note_on_c, 0, 62, 59
2, 53579, Note_on_c, 0, 62, 0
2, 53579, Note_on_c, 0, 67, 0
2, 53579, Note_on_c, 0, 71, 0
2, 53580, Note_on_c, 0, 76, 71
2, 53580, Note_on_c, 0, 71, 60
2, 53580, Note_on_c, 0, 55, 60
2, 53609, Note_on_c, 0, 55, 0
2, 53610, Note_on_c, 0, 62, 54
2, 53639, Note_on_c, 0, 62, 0
2, 53639, Note_on_c, 0, 71, 0
2, 53639, Note_on_c, 0, 76, 0
2, 53640, Note_on_c, 0, 74, 75
2, 53640, Note_on_c, 0, 69, 64
2, 53640, Note_on_c, 0, 54, 58
2, 53669, Note_on_c, 0, 54, 0
2, 53670, Note_on_c, 0, 62, 61
2, 53699, Note_on_c, 0, 62, 0
2, 53699, Note_on_c, 0, 69, 0
2, 53699, Note_on_c, 0, 74, 0
2, 53700, Note_on_c, 0, 72, 75
2, 53700, Note_on_c, 0, 66, 61
2, 53700, Note_on_c, 0, 50, 59
2, 53729, Note_on_c, 0, 50, 0
2, 53730, Note_on_c, 0, 62, 60
2, 53759, Note_on_c, 0, 62, 0
2, 53759, Note_on_c, 0, 66, 0
2, 53759, Note_on_c, 0, 72, 0
2, 53760, Note_on_c, 0, 71, 73
2, 53760, Note_on_c, 0, 67, 68
2, 53790, Note_on_c, 0, 62, 55
2, 53819, Note_on_c, 0, 62, 0
2, 53819, Note_on_c, 0, 67, 0
2, 53819, Note_on_c, 0, 71, 0
2, 53820, Note_on_c, 0, 76, 73
2, 53820, Note_on_c, 0, 71, 62
2, 53820, Note_on_c, 0, 55, 59
2, 53849, Note_on_c, 0, 55, 0
2, 53850, Note_on_c, 0, 62, 56
2, 53879, Note_on_c, 0, 62, 0
2, 53879, Note_on_c, 0, 71, 0
2, 53879, Note_on_c, 0, 76, 0
2, 53880, Note_on_c, 0, 74, 71
2, 53880, Note_on_c, 0, 69, 66
2, 53880, Note_on_c, 0, 54, 57
2, 53909, Note_on_c, 0, 54, 0
2, 53910, Note_on_c, 0, 62, 57
2, 53939, Note_on_c, 0, 62, 0
2, 53939, Note_on_c, 0, 69, 0
2, 53939, Note_on_c, 0, 74, 0
2, 53940, Note_on_c, 0, 72, 72
2, 53940, Note_on_c, 0, 66, 66
2, 53940, Note_on_c, 0, 50, 59
2, 53969, Note_on_c, 0, 50, 0
2, 53970, Note_on_c, 0, 62, 56
2, 53999, Note_on_c, 0, 62, 0
2, 53999, Note_on_c, 0, 66, 0
2, 53999, Note_on_c, 0, 72, 0
2, 54000, Note_on_c, 0, 71, 76
2, 54000, Note_on_c, 0, 55, 62
2, 54030, Note_on_c, 0, 67, 67
2, 54059, Note_on_c, 0, 67, 0
2, 54059, Note_on_c, 0, 71, 0
2, 54060, Note_on_c, 0, 76, 75
2, 54060, Note_on_c, 0, 71, 66
2, 54089, Note_on_c, 0, 71, 0
2, 54090, Note_on_c, 0, 67, 65
2, 54119, Note_on_c, 0, 67, 0
2, 54119, Note_on_c, 0, 76, 0
2, 54119, Note_on_c, 0, 55, 0
2, 54120, Note_on_c, 0, 74, 74
2, 54120, Note_on_c, 0, 66, 66
2, 54120, Note_on_c, 0, 57, 55
2, 54149, Note_on_c, 0, 66, 0
2, 54150, Note_on_c, 0, 69, 67
2, 54179, Note_on_c, 0, 69, 0
2, 54179, Note_on_c, 0, 74, 0
2, 54180, Note_on_c, 0, 73, 75
2, 54180, Note_on_c, 0, 64, 61
2, 54209, Note_on_c, 0, 64, 0
2, 54210, Note_on_c, 0, 67, 68
2, 54239, Note_on_c, 0, 67, 0
2, 54239, Note_on_c, 0, 73, 0
2, 54239, Note_on_c, 0, 57, 0
2, 54240, Note_on_c, 0, 74, 75
2, 54240, Note_on_c, 0, 66, 61
2, 54240, Note_on_c, 0, 50, 63
2, 54269, Note_on_c, 0, 66, 0
2, 54270, Note_on_c, 0, 62, 66
2, 54295, Control_c, 0, 11, 126
2, 54299, Note_on_c, 0, 62, 0
2, 54299, Note_on_c, 0, 50, 0
2, 54299, Note_on_c, 0, 74, 0
2, 54300, Control_c, 0, 11, 124
2, 54300, Note_on_c, 0, 69, 55
2, 54300, Note_on_c, 0, 72, 58
2, 54305, Control_c, 0, 11, 123
2, 54310, Control_c, 0, 11, 122
2, 54315, Control_c, 0, 11, 121
2, 54320, Control_c, 0, 11, 120
2, 54325, Control_c, 0, 11, 118
2, 54329, Note_on_c, 0, 72, 0
2, 54329, Note_on_c, 0, 69, 0
2, 54330, Note_on_c, 0, 62, 64
2, 54335, Control_c, 0, 11, 116
2, 54340, Control_c, 0, 11, 114
2, 54345, Control_c, 0, 11, 112
2, 54355, Control_c, 0, 11, 111
2, 54359, Note_on_c, 0, 62, 0
2, 54360, Control_c, 0, 11, 110
2, 54360, Note_on_c, 0, 67, 57
2, 54360, Note_on_c, 0, 71, 60
2, 54370, Control_c, 0, 11, 109
2, 54380, Control_c, 0, 11, 108
2, 54385, Control_c, 0, 11, 107
2, 54389, Note_on_c, 0, 71, 0
2, 54389, Note_on_c, 0, 67, 0
2, 54390, Note_on_c, 0, 62, 64
2, 54395, Control_c, 0, 11, 106
2, 54405, Control_c, 0, 11, 104
2, 54410, Control_c, 0, 11, 104
2, 54415, Control_c, 0, 11, 103
2, 54419, Note_on_c, 0, 62, 0
2, 54420, Note_on_c, 0, 66, 65
2, 54420, Note_on_c, 0, 69, 65
2, 54430, Control_c, 0, 11, 102
2, 54440, Control_c, 0, 11, 101
2, 54449, Note_on_c, 0, 69, 0
2, 54449, Note_on_c, 0, 66, 0
2, 54450, Control_c, 0, 11, 100
2, 54450, Note_on_c, 0, 62, 60
2, 54460, Control_c, 0, 11, 101
2, 54479, Note_on_c, 0, 62, 0
2, 54480, Note_on_c, 0, 83, 77
2, 54480, Control_c, 0, 11, 103
2, 54480, Note_on_c, 0, 67, 56
2, 54480, Note_on_c, 0, 71, 64
2, 54495, Control_c, 0, 11, 105
2, 54500, Control_c, 0, 11, 106
2, 54505, Control_c, 0, 11, 108
2, 54509, Note_on_c, 0, 71, 0
2, 54509, Note_on_c, 0, 67, 0
2, 54510, Note_on_c, 0, 62, 65
2, 54515, Control_c, 0, 11, 110
2, 54520, Control_c, 0, 11, 113
2, 54525, Control_c, 0, 11, 115
2, 54530, Control_c, 0, 11, 117
2, 54535, Control_c, 0, 11, 119
2, 54539, Note_on_c, 0, 62, 0
2, 54539, Note_on_c, 0, 83, 0
2, 54540, Note_on_c, 0, 88, 71
2, 54540, Note_on_c, 0, 76, 62
2, 54540, Control_c, 0, 11, 121
2, 54540, Note_on_c, 0, 67, 63
2, 54540, Note_on_c, 0, 71, 56
2, 54545, Control_c, 0, 11, 123
2, 54560, Control_c, 0, 11, 124
2, 54569, Note_on_c, 0, 71, 0
2, 54569, Note_on_c, 0, 67, 0
2, 54570, Note_on_c, 0, 62, 57
2, 54599, Note_on_c, 0, 62, 0
2, 54599, Note_on_c, 0, 76, 0
2, 54599, Note_on_c, 0, 88, 0
2, 54600, Note_on_c, 0, 86, 73
2, 54600, Note_on_c, 0, 74, 63
2, 54600, Note_on_c, 0, 66, 57
2, 54600, Note_on_c, 0, 69, 58
2, 54605, Control_c, 0, 11, 123
2, 54615, Control_c, 0, 11, 120
2, 54620, Control_c, 0, 11, 119
2, 54625, Control_c, 0, 11, 118
2, 54629, Note_on_c, 0, 69, 0
2, 54629, Note_on_c, 0, 66, 0
2, 54630, Control_c, 0, 11, 116
2, 54630, Note_on_c, 0, 62, 62
2, 54635, Control_c, 0, 11, 114
2, 54640, Control_c, 0, 11, 112
2, 54645, Control_c, 0, 11, 111
2, 54650, Control_c, 0, 11, 110
2, 54655, Control_c, 0, 11, 109
2, 54659, Note_on_c, 0, 62, 0
2, 54659, Note_on_c, 0, 74, 0
2, 54659, Note_on_c, 0, 86, 0
2, 54660, Note_on_c, 0, 84, 75
2, 54660, Note_on_c, 0, 78, 61
2, 54660, Control_c, 0, 11, 108
2, 54660, Note_on_c, 0, 72, 57
2, 54660, Note_on_c, 0, 69, 55
2, 54665, Control_c, 0, 11, 107
2, 54670, Control_c, 0, 11, 106
2, 54680, Control_c, 0, 11, 105
2, 54689, Note_on_c, 0, 69, 0
2, 54689, Note_on_c, 0, 72, 0
2, 54690, Note_on_c, 0, 62, 56
2, 54695, Control_c, 0, 11, 104
2, 54719, Note_on_c, 0, 62, 0
2, 54719, Note_on_c, 0, 78, 0
2, 54719, Note_on_c, 0, 84, 0
2, 54720, Note_on_c, 0, 83, 71
2, 54720, Note_on_c, 0, 79, 64
2, 54720, Control_c, 0, 11, 105
2, 54720, Note_on_c, 0, 67, 63
2, 54720, Note_on_c, 0, 71, 60
2, 54730, Control_c, 0, 11, 106
2, 54740, Control_c, 0, 11, 107
2, 54745, Control_c, 0, 11, 108
2, 54749, Note_on_c, 0, 71, 0
2, 54749, Note_on_c, 0, 67, 0
2, 54750, Note_on_c, 0, 62, 65
2, 54755, Control_c, 0, 11, 110
2, 54760, Control_c, 0, 11, 112
2, 54765, Control_c, 0, 11, 114
2, 54770, Control_c, 0, 11, 116
2, 54775, Control_c, 0, 11, 118
2, 54779, Note_on_c, 0, 62, 0
2, 54779, Note_on_c, 0, 79, 0
2, 54779, Note_on_c, 0, 83, 0
2, 54780, Note_on_c, 0, 88, 72
2, 54780, Note_on_c, 0, 76, 67
2, 54780, Control_c, 0, 11, 120
2, 54780, Note_on_c, 0, 67, 65
2, 54780, Note_on_c, 0, 71, 65
2, 54790, Control_c, 0, 11, 122
2, 54795, Control_c, 0, 11, 123
2, 54800, Control_c, 0, 11, 124
2, 54805, Control_c, 0, 11, 125
2, 54809, Note_on_c, 0, 71, 0
2, 54809, Note_on_c, 0, 67, 0
2, 54810, Note_on_c, 0, 62, 62
2, 54825, Control_c, 0, 11, 126
2, 54839, Note_on_c, 0, 62, 0
2, 54839, Note_on_c, 0, 76, 0
2, 54839, Note_on_c, 0, 88, 0
2, 54840, Note_on_c, 0, 86, 75
2, 54840, Note_on_c, 0, 74, 67
2, 54840, Note_on_c, 0, 66, 58
2, 54840, Note_on_c, 0, 69, 61
2, 54855, Control_c, 0, 11, 125
2, 54860, Control_c, 0, 11, 124
2, 54865, Control_c, 0, 11, 122
2, 54869, Note_on_c, 0, 69, 0
2, 54869, Note_on_c, 0, 66, 0
2, 54870, Note_on_c, 0, 62, 64
2, 54880, Control_c, 0, 11, 119
2, 54885, Control_c, 0, 11, 118
2, 54890, Control_c, 0, 11, 117
2, 54895, Control_c, 0, 11, 116
2, 54899, Note_on_c, 0, 62, 0
2, 54899, Note_on_c, 0, 74, 0
2, 54899, Note_on_c, 0, 86, 0
2, 54900, Note_on_c, 0, 84, 73
2, 54900, Note_on_c, 0, 78, 63
2, 54900, Control_c, 0, 11, 115
2, 54900, Note_on_c, 0, 72, 62
2, 54900, Note_on_c, 0, 69, 63
2, 54905, Control_c, 0, 11, 114
2, 54915, Control_c, 0, 11, 112
2, 54920, Control_c, 0, 11, 111
2, 54929, Note_on_c, 0, 69, 0
2, 54929, Note_on_c, 0, 72, 0
2, 54930, Control_c, 0, 11, 120
2, 54930, Note_on_c, 0, 62, 57
2, 54950, Control_c, 0, 11, 127
2, 54959, Note_on_c, 0, 62, 0
2, 54959, Note_on_c, 0, 78, 0
2, 54959, Note_on_c, 0, 84, 0
2, 54960, Note_on_c, 0, 83, 72
2, 54960, Note_on_c, 0, 79, 65
2, 54960, Note_on_c, 0, 67, 65
2, 54989, Note_on_c, 0, 67, 0
2, 54990, Note_on_c, 0, 71, 67
2, 55019, Note_on_c, 0, 71, 0
2, 55019, Note_on_c, 0, 79, 0
2, 55019, Note_on_c, 0, 83, 0
2, 55020, Note_on_c, 0, 79, 71
2, 55020, Note_on_c, 0, 69, 63
2, 55049, Note_on_c, 0, 69, 0
2, 55050, Note_on_c, 0, 72, 66
2, 55079, Note_on_c, 0, 72, 0
2, 55080, Note_on_c, 0, 71, 63
2, 55109, Note_on_c, 0, 71, 0
2, 55110, Note_on_c, 0, 74, 71
2, 55139, Note_on_c, 0, 74, 0
2, 55139, Note_on_c, 0, 79, 0
2, 55140, Note_on_c, 0, 79, 69
2, 55140, Note_on_c, 0, 72, 64
2, 55169, Note_on_c, 0, 72, 0
2, 55170, Note_on_c, 0, 76, 73
2, 55199, Note_on_c, 0, 76, 0
2, 55200, Note_on_c, 0, 74, 72
2, 55229, Note_on_c, 0, 74, 0
2, 55230, Note_on_c, 0, 77, 71
2, 55259, Note_on_c, 0, 77, 0
2, 55259, Note_on_c, 0, 79, 0
2, 55260, Note_on_c, 0, 79, 71
2, 55260, Note_on_c, 0, 73, 64
2, 55289, Note_on_c, 0, 73, 0
2, 55289, Note_on_c, 0, 79, 0
2, 55290, Note_on_c, 0, 76, 70
2, 55319, Note_on_c, 0, 76, 0
2, 55320, Note_on_c, 0, 79, 72
2, 55320, Note_on_c, 0, 74, 66
2, 55349, Note_on_c, 0, 74, 0
2, 55349, Note_on_c, 0, 79, 0
2, 55350, Note_on_c, 0, 77, 69
2, 55379, Note_on_c, 0, 77, 0
2, 55380, Note_on_c, 0, 79, 72
2, 55380, Note_on_c, 0, 71, 67
2, 55409, Note_on_c, 0, 71, 0
2, 55409, Note_on_c, 0, 79, 0
2, 55410, Note_on_c, 0, 75, 65
2, 55439, Note_on_c, 0, 75, 0
2, 55440, Note_on_c, 0, 76, 63
2, 55440, Note_on_c, 0, 72, 53
2, 55454, Note_on_c, 0, 76, 0
2, 55455, Note_on_c, 0, 78, 61
2, 55469, Note_on_c, 0, 78, 0
2, 55470, Note_on_c, 0, 76, 61
2, 55484, Note_on_c, 0, 76, 0
2, 55485, Note_on_c, 0, 75, 62
2, 55499, Note_on_c, 0, 75, 0
2, 55499, Note_on_c, 0, 72, 0
2, 55500, Note_on_c, 0, 76, 65
2, 55514, Note_on_c, 0, 76, 0
2, 55515, Note_on_c, 0, 78, 65
2, 55529, Note_on_c, 0, 78, 0
2, 55530, Note_on_c, 0, 79, 61
2, 55544, Note_on_c, 0, 79, 0
2, 55545, Note_on_c, 0, 78, 64
2, 55559, Note_on_c, 0, 78, 0
2, 55560, Note_on_c, 0, 76, 65
2, 55560, Note_on_c, 0, 67, 52
2, 55560, Note_on_c, 0, 64, 52
2, 55560, Note_on_c, 0, 60, 61
2, 55574, Note_on_c, 0, 76, 0
2, 55575, Note_on_c, 0, 78, 65
2, 55589, Note_on_c, 0, 78, 0
2, 55590, Note_on_c, 0, 76, 62
2, 55604, Note_on_c, 0, 76, 0
2, 55605, Note_on_c, 0, 75, 64
2, 55619, Note_on_c, 0, 75, 0
2, 55619, Note_on_c, 0, 60, 0
2, 55619, Note_on_c, 0, 64, 0
2, 55619, Note_on_c, 0, 67, 0
2, 55620, Note_on_c, 0, 76, 65
2, 55634, Note_on_c, 0, 76, 0
2, 55635, Note_on_c, 0, 78, 58
2, 55649, Note_on_c, 0, 78, 0
2, 55650, Note_on_c, 0, 79, 63
2, 55664, Note_on_c, 0, 79, 0
2, 55665, Note_on_c, 0, 78, 59
2, 55679, Note_on_c, 0, 78, 0
2, 55680, Note_on_c, 0, 79, 61
2, 55680, Note_on_c, 0, 61, 61
2, 55680, Note_on_c, 0, 64, 56
2, 55680, Note_on_c, 0, 67, 54
2, 55680, Note_on_c, 0, 70, 53
2, 55694, Note_on_c, 0, 79, 0
2, 55695, Note_on_c, 0, 81, 67
2, 55709, Note_on_c, 0, 81, 0
2, 55710, Note_on_c, 0, 79, 68
2, 55724, Note_on_c, 0, 79, 0
2, 55725, Note_on_c, 0, 78, 66
2, 55739, Note_on_c, 0, 78, 0
2, 55739, Note_on_c, 0, 70, 0
2, 55739, Note_on_c, 0, 61, 0
2, 55739, Note_on_c, 0, 64, 0
2, 55739, Note_on_c, 0, 67, 0
2, 55740, Note_on_c, 0, 79, 68
2, 55754, Note_on_c, 0, 79, 0
2, 55755, Note_on_c, 0, 81, 76
2, 55769, Note_on_c, 0, 81, 0
2, 55770, Note_on_c, 0, 82, 74
2, 55784, Note_on_c, 0, 82, 0
2, 55785, Note_on_c, 0, 81, 76
2, 55799, Note_on_c, 0, 81, 0
2, 55800, Note_on_c, 0, 79, 84
2, 55800, Note_on_c, 0, 64, 81
2, 55800, Note_on_c, 0, 67, 72
2, 55800, Note_on_c, 0, 70, 72
2, 55800, Note_on_c, 0, 61, 77
2, 55814, Note_on_c, 0, 79, 0
2, 55815, Note_on_c, 0, 81, 86
2, 55829, Note_on_c, 0, 81, 0
2, 55830, Note_on_c, 0, 79, 81
2, 55844, Note_on_c, 0, 79, 0
2, 55845, Note_on_c, 0, 78, 84
2, 55859, Note_on_c, 0, 78, 0
2, 55859, Note_on_c, 0, 61, 0
2, 55859, Note_on_c, 0, 64, 0
2, 55859, Note_on_c, 0, 67, 0
2, 55859, Note_on_c, 0, 70, 0
2, 55860, Note_on_c, 0, 79, 91
2, 55874, Note_on_c, 0, 79, 0
2, 55875, Note_on_c, 0, 81, 93
2, 55889, Note_on_c, 0, 81, 0
2, 55890, Note_on_c, 0, 82, 93
2, 55904, Note_on_c, 0, 82, 0
2, 55905, Note_on_c, 0, 81, 94
2, 55919, Note_on_c, 0, 81, 0
2, 55920, Note_on_c, 0, 79, 102
2, 55920, Note_on_c, 0, 71, 94
2, 55920, Note_on_c, 0, 67, 93
2, 55920, Note_on_c, 0, 62, 96
2, 55934, Note_on_c, 0, 79, 0
2, 55935, Note_on_c, 0, 81, 98
2, 55949, Note_on_c, 0, 81, 0
2, 55950, Note_on_c, 0, 79, 99
2, 55964, Note_on_c, 0, 79, 0
2, 55965, Note_on_c, 0, 78, 100
2, 55979, Note_on_c, 0, 78, 0
2, 55979, Note_on_c, 0, 62, 0
2, 55979, Note_on_c, 0, 67, 0
2, 55979, Note_on_c, 0, 71, 0
2, 55980, Note_on_c, 0, 79, 102
2, 55994, Note_on_c, 0, 79, 0
2, 55995, Note_on_c, 0, 78, 97
2, 56009, Note_on_c, 0, 78, 0
2, 56010, Note_on_c, 0, 79, 103
2, 56024, Note_on_c, 0, 79, 0
2, 56025, Note_on_c, 0, 78, 99
2, 56039, Note_on_c, 0, 78, 0
2, 56040, Note_on_c, 0, 79, 97
2, 56054, Note_on_c, 0, 79, 0
2, 56055, Note_on_c, 0, 78, 97
2, 56069, Note_on_c, 0, 78, 0
2, 56070, Note_on_c, 0, 76, 97
2, 56084, Note_on_c, 0, 76, 0
2, 56085, Note_on_c, 0, 74, 101
2, 56099, Note_on_c, 0, 74, 0
2, 56100, Note_on_c, 0, 72, 99
2, 56114, Note_on_c, 0, 72, 0
2, 56115, Note_on_c, 0, 71, 98
2, 56129, Note_on_c, 0, 71, 0
2, 56130, Note_on_c, 0, 69, 101
2, 56144, Note_on_c, 0, 69, 0
2, 56145, Note_on_c, 0, 67, 99
2, 56159, Note_on_c, 0, 67, 0
2, 56160, Note_on_c, 0, 67, 116
2, 56160, Note_on_c, 0, 71, 118
2, 56160, Note_on_c, 0, 50, 117
2, 56160, Note_on_c, 0, 62, 110
2, 56279, Note_on_c, 0, 62, 0
2, 56279, Note_on_c, 0, 67, 0
2, 56279, Note_on_c, 0, 71, 0
2, 56280, Note_on_c, 0, 66, 96
2, 56280, Note_on_c, 0, 69, 96
2, 56280, Note_on_c, 0, 60, 90
2, 56399, Note_on_c, 0, 60, 0
2, 56399, Note_on_c, 0, 50, 0
2, 56399, Note_on_c, 0, 66, 0
2, 56399, Note_on_c, 0, 69, 0
2, 56400, Note_on_c, 0, 67, 98
2, 56400, Note_on_c, 0, 55, 92
2, 56400, Note_on_c, 0, 59, 94
2, 56414, Note_on_c, 0, 67, 0
2, 56415, Note_on_c, 0, 69, 103
2, 56429, Note_on_c, 0, 69, 0
2, 56430, Note_on_c, 0, 71, 99
2, 56444, Note_on_c, 0, 71, 0
2, 56445, Note_on_c, 0, 72, 97
2, 56459, Note_on_c, 0, 72, 0
2, 56459, Note_on_c, 0, 59, 0
2, 56459, Note_on_c, 0, 55, 0
2, 56460, Note_on_c, 0, 74, 101
2, 56474, Note_on_c, 0, 74, 0
2, 56475, Note_on_c, 0, 72, 98
2, 56489, Note_on_c, 0, 72, 0
2, 56490, Note_on_c, 0, 71, 99
2, 56504, Note_on_c, 0, 71, 0
2, 56505, Note_on_c, 0, 69, 100
2, 56519, Note_on_c, 0, 69, 0
2, 56520, Note_on_c, 0, 67, 103
2, 56534, Note_on_c, 0, 67, 0
2, 56535, Note_on_c, 0, 66, 99
2, 56549, Note_on_c, 0, 66, 0
2, 56550, Note_on_c, 0, 64, 99
2, 56564, Note_on_c, 0, 64, 0
2, 56565, Note_on_c, 0, 62, 100
2, 56579, Note_on_c, 0, 62, 0
2, 56580, Note_on_c, 0, 60, 96
2, 56594, Note_on_c, 0, 60, 0
2, 56595, Note_on_c, 0, 59, 101
2, 56609, Note_on_c, 0, 59, 0
2, 56610, Note_on_c, 0, 57, 101
2, 56624, Note_on_c, 0, 57, 0
2, 56625, Note_on_c, 0, 55, 98
2, 56639, Note_on_c, 0, 55, 0
2, 56640, Note_on_c, 0, 55, 120
2, 56640, Note_on_c, 0, 59, 121
2, 56640, Note_on_c, 0, 38, 118
2, 56640, Note_on_c, 0, 50, 119
2, 56759, Note_on_c, 0, 50, 0
2, 56759, Note_on_c, 0, 55, 0
2, 56759, Note_on_c, 0, 59, 0
2, 56760, Note_on_c, 0, 54, 99
2, 56760, Note_on_c, 0, 57, 96
2, 56760, Note_on_c, 0, 48, 98
2, 56879, Note_on_c, 0, 48, 0
2, 56879, Note_on_c, 0, 38, 0
2, 56879, Note_on_c, 0, 54, 0
2, 56879, Note_on_c, 0, 57, 0
2, 56880, Note_on_c, 0, 55, 78
2, 56880, Note_on_c, 0, 47, 76
2, 56880, Note_on_c, 0, 43, 77
2, 56909, Note_on_c, 0, 55, 0
2, 56910, Note_on_c, 0, 50, 64
2, 56939, Note_on_c, 0, 50, 0
2, 56939, Note_on_c, 0, 43, 0
2, 56939, Note_on_c, 0, 47, 0
2, 56940, Note_on_c, 0, 55, 63
2, 56940, Note_on_c, 0, 59, 63
2, 56969, Note_on_c, 0, 59, 0
2, 56969, Note_on_c, 0, 55, 0
2, 56970, Note_on_c, 0, 50, 59
2, 56999, Note_on_c, 0, 50, 0
2, 57000, Note_on_c, 0, 60, 65
2, 57000, Note_on_c, 0, 57, 58
2, 57029, Note_on_c, 0, 57, 0
2, 57029, Note_on_c, 0, 60, 0
2, 57030, Note_on_c, 0, 50, 64
2, 57059, Note_on_c, 0, 50, 0
2, 57060, Note_on_c, 0, 61, 58
2, 57060, Note_on_c, 0, 58, 61
2, 57089, Note_on_c, 0, 58, 0
2, 57089, Note_on_c, 0, 61, 0
2, 57090, Note_on_c, 0, 50, 64
2, 57119, Note_on_c, 0, 50, 0
2, 57120, Note_on_c, 0, 59, 58
2, 57120, Note_on_c, 0, 62, 62
2, 57150, Note_on_c, 0, 50, 59
2, 57180, Note_on_c, 0, 31, 69
2, 57189, Note_on_c, 0, 50, 0
2, 57210, Note_on_c, 0, 50, 65
2, 57239, Note_on_c, 0, 31, 0
2, 57240, Note_on_c, 0, 35, 70
2, 57249, Note_on_c, 0, 50, 0
2, 57270, Note_on_c, 0, 50, 62
2, 57299, Note_on_c, 0, 35, 0
2, 57300, Note_on_c, 0, 38, 67
2, 57309, Note_on_c, 0, 50, 0
2, 57330, Note_on_c, 0, 50, 60
2, 57359, Note_on_c, 0, 38, 0
2, 57360, Note_on_c, 0, 43, 65
2, 57369, Note_on_c, 0, 50, 0
2, 57390, Note_on_c, 0, 50, 63
2, 57419, Note_on_c, 0, 50, 0
2, 57419, Note_on_c, 0, 59, 0
2, 57419, Note_on_c, 0, 62, 0
2, 57420, Note_on_c, 0, 59, 60
2, 57420, Note_on_c, 0, 55, 64
2, 57449, Note_on_c, 0, 55, 0
2, 57450, Note_on_c, 0, 50, 64
2, 57479, Note_on_c, 0, 50, 0
2, 57479, Note_on_c, 0, 59, 0
2, 57480, Note_on_c, 0, 64, 62
2, 57480, Note_on_c, 0, 60, 64
2, 57509, Note_on_c, 0, 60, 0
2, 57510, Note_on_c, 0, 50, 58
2, 57539, Note_on_c, 0, 50, 0
2, 57539, Note_on_c, 0, 64, 0
2, 57540, Note_on_c, 0, 62, 58
2, 57540, Note_on_c, 0, 59, 59
2, 57569, Note_on_c, 0, 59, 0
2, 57570, Note_on_c, 0, 50, 64
2, 57599, Note_on_c, 0, 50, 0
2, 57599, Note_on_c, 0, 62, 0
2, 57600, Note_on_c, 0, 57, 61
2, 57600, Note_on_c, 0, 60, 58
2, 57609, Note_on_c, 0, 43, 0
2, 57630, Note_on_c, 0, 50, 62
2, 57660, Note_on_c, 0, 43, 62
2, 57669, Note_on_c, 0, 50, 0
2, 57690, Note_on_c, 0, 50, 59
2, 57719, Note_on_c, 0, 43, 0
2, 57720, Note_on_c, 0, 42, 65
2, 57729, Note_on_c, 0, 50, 0
2, 57750, Note_on_c, 0, 50, 65
2, 57779, Note_on_c, 0, 42, 0
2, 57780, Note_on_c, 0, 40, 62
2, 57789, Note_on_c, 0, 50, 0
2, 57810, Note_on_c, 0, 50, 63
2, 57839, Note_on_c, 0, 40, 0
2, 57840, Note_on_c, 0, 42, 70
2, 57849, Note_on_c, 0, 50, 0
2, 57870, Note_on_c, 0, 50, 63
2, 57899, Note_on_c, 0, 50, 0
2, 57899, Note_on_c, 0, 57, 0
2, 57899, Note_on_c, 0, 60, 0
2, 57900, Note_on_c, 0, 60, 60
2, 57900, Note_on_c, 0, 57, 63
2, 57929, Note_on_c, 0, 57, 0
2, 57930, Note_on_c, 0, 50, 58
2, 57959, Note_on_c, 0, 50, 0
2, 57959, Note_on_c, 0, 60, 0
2, 57959, Note_on_c, 0, 42, 0
2, 57960, Note_on_c, 0, 62, 61
2, 57960, Note_on_c, 0, 59, 60
2, 57960, Note_on_c, 0, 38, 67
2, 57989, Note_on_c, 0, 59, 0
2, 57990, Note_on_c, 0, 50, 61
2, 58019, Note_on_c, 0, 50, 0
2, 58019, Note_on_c, 0, 62, 0
2, 58020, Note_on_c, 0, 60, 60
2, 58020, Note_on_c, 0, 57, 61
2, 58049, Note_on_c, 0, 57, 0
2, 58050, Note_on_c, 0, 50, 63
2, 58079, Note_on_c, 0, 50, 0
2, 58079, Note_on_c, 0, 60, 0
2, 58080, Note_on_c, 0, 55, 58
2, 58080, Note_on_c, 0, 59, 58
2, 58110, Note_on_c, 0, 50, 65
2, 58139, Note_on_c, 0, 50, 0
2, 58139, Note_on_c, 0, 38, 0
2, 58140, Note_on_c, 0, 39, 70
2, 58170, Note_on_c, 0, 51, 59
2, 58199, Note_on_c, 0, 51, 0
2, 58199, Note_on_c, 0, 39, 0
2, 58200, Note_on_c, 0, 40, 63
2, 58230, Note_on_c, 0, 52, 64
2, 58259, Note_on_c, 0, 52, 0
2, 58259, Note_on_c, 0, 40, 0
2, 58260, Note_on_c, 0, 35, 67
2, 58290, Note_on_c, 0, 47, 62
2, 58319, Note_on_c, 0, 47, 0
2, 58319, Note_on_c, 0, 35, 0
2, 58320, Note_on_c, 0, 36, 69
2, 58350, Note_on_c, 0, 48, 64
2, 58379, Note_on_c, 0, 48, 0
2, 58379, Note_on_c, 0, 55, 0
2, 58379, Note_on_c, 0, 59, 0
2, 58379, Note_on_c, 0, 36, 0
2, 58380, Note_on_c, 0, 57, 60
2, 58380, Note_on_c, 0, 55, 60
2, 58380, Note_on_c, 0, 37, 67
2, 58409, Note_on_c, 0, 55, 0
2, 58410, Note_on_c, 0, 49, 60
2, 58439, Note_on_c, 0, 49, 0
2, 58439, Note_on_c, 0, 37, 0
2, 58439, Note_on_c, 0, 57, 0
2, 58440, Note_on_c, 0, 57, 59
2, 58440, Note_on_c, 0, 55, 58
2, 58440, Note_on_c, 0, 38, 66
2, 58469, Note_on_c, 0, 55, 0
2, 58470, Note_on_c, 0, 50, 60
2, 58499, Note_on_c, 0, 50, 0
2, 58499, Note_on_c, 0, 57, 0
2, 58500, Note_on_c, 0, 60, 59
2, 58500, Note_on_c, 0, 54, 58
2, 58529, Note_on_c, 0, 54, 0
2, 58530, Note_on_c, 0, 50, 58
2, 58559, Note_on_c, 0, 50, 0
2, 58559, Note_on_c, 0, 60, 0
2, 58560, Note_on_c, 0, 55, 65
2, 58560, Note_on_c, 0, 59, 65
2, 58590, Note_on_c, 0, 50, 59
2, 58619, Note_on_c, 0, 50, 0
2, 58619, Note_on_c, 0, 38, 0
2, 58620, Note_on_c, 0, 39, 69
2, 58650, Note_on_c, 0, 51, 59
2, 58679, Note_on_c, 0, 51, 0
2, 58679, Note_on_c, 0, 39, 0
2, 58680, Note_on_c, 0, 40, 69
2, 58710, Note_on_c, 0, 52, 60
2, 58739, Note_on_c, 0, 52, 0
2, 58739, Note_on_c, 0, 40, 0
2, 58740, Note_on_c, 0, 35, 71
2, 58770, Note_on_c, 0, 47, 59
2, 58799, Note_on_c, 0, 47, 0
2, 58799, Note_on_c, 0, 35, 0
2, 58800, Note_on_c, 0, 36, 69
2, 58830, Note_on_c, 0, 48, 61
2, 58859, Note_on_c, 0, 48, 0
2, 58859, Note_on_c, 0, 55, 0
2, 58859, Note_on_c, 0, 59, 0
2, 58859, Note_on_c, 0, 36, 0
2, 58860, Note_on_c, 0, 57, 61
2, 58860, Note_on_c, 0, 55, 63
2, 58860, Note_on_c, 0, 37, 70
2, 58889, Note_on_c, 0, 55, 0
2, 58890, Note_on_c, 0, 49, 60
2, 58919, Note_on_c, 0, 49, 0
2, 58919, Note_on_c, 0, 37, 0
2, 58919, Note_on_c, 0, 57, 0
2, 58920, Note_on_c, 0, 57, 58
2, 58920, Note_on_c, 0, 55, 64
2, 58920, Note_on_c, 0, 38, 62
2, 58949, Note_on_c, 0, 55, 0
2, 58950, Note_on_c, 0, 50, 59
2, 58979, Note_on_c, 0, 50, 0
2, 58979, Note_on_c, 0, 57, 0
2, 58980, Note_on_c, 0, 60, 58
2, 58980, Note_on_c, 0, 54, 62
2, 59009, Note_on_c, 0, 54, 0
2, 59010, Note_on_c, 0, 50, 62
2, 59039, Note_on_c, 0, 50, 0
2, 59039, Note_on_c, 0, 60, 0
2, 59040, Note_on_c, 0, 55, 60
2, 59040, Note_on_c, 0, 59, 59
2, 59070, Note_on_c, 0, 50, 60
2, 59099, Note_on_c, 0, 50, 0
2, 59099, Note_on_c, 0, 38, 0
2, 59100, Note_on_c, 0, 39, 67
2, 59130, Note_on_c, 0, 51, 63
2, 59159, Note_on_c, 0, 51, 0
2, 59159, Note_on_c, 0, 39, 0
2, 59160, Note_on_c, 0, 40, 71
2, 59190, Note_on_c, 0, 52, 73
2, 59219, Note_on_c, 0, 52, 0
2, 59219, Note_on_c, 0, 40, 0
2, 59220, Note_on_c, 0, 41, 75
2, 59250, Note_on_c, 0, 53, 77
2, 59279, Note_on_c, 0, 53, 0
2, 59279, Note_on_c, 0, 41, 0
2, 59280, Note_on_c, 0, 40, 79
2, 59310, Note_on_c, 0, 52, 79
2, 59339, Note_on_c, 0, 52, 0
2, 59339, Note_on_c, 0, 55, 0
2, 59339, Note_on_c, 0, 59, 0
2, 59339, Note_on_c, 0, 40, 0
2, 59340, Note_on_c, 0, 59, 82
2, 59340, Note_on_c, 0, 55, 82
2, 59340, Note_on_c, 0, 41, 87
2, 59369, Note_on_c, 0, 55, 0
2, 59370, Note_on_c, 0, 50, 77
2, 59399, Note_on_c, 0, 50, 0
2, 59399, Note_on_c, 0, 41, 0
2, 59399, Note_on_c, 0, 59, 0
2, 59400, Note_on_c, 0, 55, 83
2, 59400, Note_on_c, 0, 60, 81
2, 59400, Note_on_c, 0, 40, 85
2, 59429, Note_on_c, 0, 55, 0
2, 59430, Note_on_c, 0, 52, 83
2, 59459, Note_on_c, 0, 52, 0
2, 59459, Note_on_c, 0, 40, 0
2, 59459, Note_on_c, 0, 60, 0
2, 59460, Note_on_c, 0, 59, 88
2, 59460, Note_on_c, 0, 62, 88
2, 59460, Note_on_c, 0, 38, 96
2, 59489, Note_on_c, 0, 59, 0
2, 59490, Note_on_c, 0, 53, 86
2, 59519, Note_on_c, 0, 53, 0
2, 59519, Note_on_c, 0, 38, 0
2, 59519, Note_on_c, 0, 62, 0
2, 59520, Note_on_c, 0, 55, 85
2, 59520, Note_on_c, 0, 64, 87
2, 59520, Note_on_c, 0, 36, 91
2, 59549, Note_on_c, 0, 55, 0
2, 59550, Note_on_c, 0, 52, 86
2, 59579, Note_on_c, 0, 52, 0
2, 59580, Note_on_c, 0, 55, 86
2, 59609, Note_on_c, 0, 55, 0
2, 59610, Note_on_c, 0, 52, 81
2, 59639, Note_on_c, 0, 52, 0
2, 59639, Note_on_c, 0, 36, 0
2, 59639, Note_on_c, 0, 64, 0
2, 59640, Note_on_c, 0, 55, 82
2, 59640, Note_on_c, 0, 57, 84
2, 59640, Note_on_c, 0, 37, 83
2, 59669, Note_on_c, 0, 55, 0
2, 59670, Note_on_c, 0, 52, 77
2, 59699, Note_on_c, 0, 52, 0
2, 59700, Note_on_c, 0, 55, 77
2, 59729, Note_on_c, 0, 55, 0
2, 59730, Note_on_c, 0, 52, 79
2, 59759, Note_on_c, 0, 52, 0
2, 59759, Note_on_c, 0, 37, 0
2, 59759, Note_on_c, 0, 57, 0
2, 59760, Note_on_c, 0, 55, 72
2, 59760, Note_on_c, 0, 59, 76
2, 59760, Note_on_c, 0, 38, 82
2, 59789, Note_on_c, 0, 55, 0
2, 59790, Note_on_c, 0, 50, 73
2, 59819, Note_on_c, 0, 50, 0
2, 59820, Note_on_c, 0, 55, 72
2, 59849, Note_on_c, 0, 55, 0
2, 59850, Note_on_c, 0, 50, 73
2, 59879, Note_on_c, 0, 50, 0
2, 59879, Note_on_c, 0, 38, 0
2, 59879, Note_on_c, 0, 59, 0
2, 59880, Note_on_c, 0, 54, 67
2, 59880, Note_on_c, 0, 60, 71
2, 59880, Note_on_c, 0, 38, 79
2, 59909, Note_on_c, 0, 54, 0
2, 59910, Note_on_c, 0, 50, 63
2, 59939, Note_on_c, 0, 50, 0
2, 59940, Note_on_c, 0, 54, 63
2, 59969, Note_on_c, 0, 54, 0
2, 59969, Note_on_c, 0, 60, 0
2, 59970, Note_on_c, 0, 50, 61
2, 59970, Note_on_c, 0, 57, 66
2, 59999, Note_on_c, 0, 57, 0
2, 59999, Note_on_c, 0, 50, 0
2, 59999, Note_on_c, 0, 38, 0
2, 60000, Note_on_c, 0, 55, 73
2, 60060, Note_on_c, 0, 43, 57
2, 60090, Note_on_c, 0, 47, 62
2, 60119, Note_on_c, 0, 55, 0
2, 60120, Note_on_c, 0, 50, 53
2, 60150, Note_on_c, 0, 62, 61
2, 60179, Note_on_c, 0, 62, 0
2, 60180, Note_on_c, 0, 74, 65
2, 60209, Note_on_c, 0, 74, 0
2, 60210, Note_on_c, 0, 70, 61
2, 60239, Note_on_c, 0, 70, 0
2, 60239, Note_on_c, 0, 43, 0
2, 60239, Note_on_c, 0, 47, 0
2, 60239, Note_on_c, 0, 50, 0
2, 60240, Note_on_c, 0, 71, 63
2, 60300, Note_on_c, 0, 43, 58
2, 60330, Note_on_c, 0, 50, 60
2, 60360, Note_on_c, 0, 53, 61
2, 60389, Note_on_c, 0, 71, 0
2, 60390, Note_on_c, 0, 67, 64
2, 60419, Note_on_c, 0, 67, 0
2, 60420, Note_on_c, 0, 79, 66
2, 60449, Note_on_c, 0, 79, 0
2, 60450, Note_on_c, 0, 71, 68
2, 60479, Note_on_c, 0, 71, 0
2, 60479, Note_on_c, 0, 53, 0
2, 60479, Note_on_c, 0, 50, 0
2, 60479, Note_on_c, 0, 43, 0
2, 60480, Note_on_c, 0, 72, 71
2, 60540, Note_on_c, 0, 43, 68
2, 60570, Note_on_c, 0, 48, 67
2, 60600, Note_on_c, 0, 52, 70
2, 60629, Note_on_c, 0, 72, 0
2, 60630, Note_on_c, 0, 72, 79
2, 60659, Note_on_c, 0, 72, 0
2, 60660, Note_on_c, 0, 84, 82
2, 60674, Note_on_c, 0, 84, 0
2, 60690, Note_on_c, 0, 83, 78
2, 60704, Note_on_c, 0, 83, 0
2, 60719, Note_on_c, 0, 52, 0
2, 60719, Note_on_c, 0, 48, 0
2, 60719, Note_on_c, 0, 43, 0
2, 60720, Note_on_c, 0, 81, 85
2, 60780, Note_on_c, 0, 43, 81
2, 60809, Note_on_c, 0, 81, 0
2, 60810, Note_on_c, 0, 79, 89
2, 60810, Note_on_c, 0, 50, 80
2, 60839, Note_on_c, 0, 79, 0
2, 60840, Note_on_c, 0, 78, 86
2, 60840, Note_on_c, 0, 54, 79
2, 60854, Note_on_c, 0, 78, 0
2, 60870, Note_on_c, 0, 76, 86
2, 60884, Note_on_c, 0, 76, 0
2, 60900, Note_on_c, 0, 74, 89
2, 60914, Note_on_c, 0, 74, 0
2, 60930, Note_on_c, 0, 72, 84
2, 60944, Note_on_c, 0, 72, 0
2, 60959, Note_on_c, 0, 54, 0
2, 60959, Note_on_c, 0, 50, 0
2, 60959, Note_on_c, 0, 43, 0
2, 60960, Note_on_c, 0, 70, 60
2, 61019, Note_on_c, 0, 70, 0
2, 61020, Note_on_c, 0, 71, 65
2, 61020, Note_on_c, 0, 43, 61
2, 61050, Note_on_c, 0, 50, 58
2, 61079, Note_on_c, 0, 71, 0
2, 61080, Note_on_c, 0, 55, 54
2, 61110, Note_on_c, 0, 67, 62
2, 61139, Note_on_c, 0, 67, 0
2, 61140, Note_on_c, 0, 74, 65
2, 61169, Note_on_c, 0, 74, 0
2, 61170, Note_on_c, 0, 70, 63
2, 61199, Note_on_c, 0, 70, 0
2, 61199, Note_on_c, 0, 43, 0
2, 61199, Note_on_c, 0, 50, 0
2, 61199, Note_on_c, 0, 55, 0
2, 61200, Note_on_c, 0, 71, 61
2, 61260, Note_on_c, 0, 43, 66
2, 61290, Note_on_c, 0, 50, 64
2, 61320, Note_on_c, 0, 53, 70
2, 61349, Note_on_c, 0, 71, 0
2, 61350, Note_on_c, 0, 67, 69
2, 61379, Note_on_c, 0, 67, 0
2, 61380, Note_on_c, 0, 79, 73
2, 61409, Note_on_c, 0, 79, 0
2, 61410, Note_on_c, 0, 71, 78
2, 61439, Note_on_c, 0, 71, 0
2, 61439, Note_on_c, 0, 53, 0
2, 61439, Note_on_c, 0, 50, 0
2, 61439, Note_on_c, 0, 43, 0
2, 61440, Note_on_c, 0, 72, 76
2, 61500, Note_on_c, 0, 43, 77
2, 61530, Note_on_c, 0, 48, 82
2, 61560, Note_on_c, 0, 52, 86
2, 61589, Note_on_c, 0, 72, 0
2, 61590, Note_on_c, 0, 72, 89
2, 61619, Note_on_c, 0, 72, 0
2, 61620, Note_on_c, 0, 88, 93
2, 61634, Note_on_c, 0, 88, 0
2, 61650, Note_on_c, 0, 86, 96
2, 61664, Note_on_c, 0, 86, 0
2, 61679, Note_on_c, 0, 52, 0
2, 61679, Note_on_c, 0, 48, 0
2, 61679, Note_on_c, 0, 43, 0
2, 61680, Note_on_c, 0, 84, 103
2, 61740, Note_on_c, 0, 43, 98
2, 61770, Note_on_c, 0, 45, 90
2, 61800, Note_on_c, 0, 54, 110
2, 61829, Note_on_c, 0, 84, 0
2, 61830, Note_on_c, 0, 83, 99
2, 61844, Note_on_c, 0, 83, 0
2, 61860, Note_on_c, 0, 81, 99
2, 61874, Note_on_c, 0, 81, 0
2, 61890, Note_on_c, 0, 79, 102
2, 61904, Note_on_c, 0, 79, 0
2, 61920, Note_on_c, 0, 78, 97
2, 61934, Note_on_c, 0, 78, 0
2, 61950, Note_on_c, 0, 76, 99
2, 61964, Note_on_c, 0, 76, 0
2, 61980, Note_on_c, 0, 74, 103
2, 61994, Note_on_c, 0, 74, 0
2, 62010, Note_on_c, 0, 72, 103
2, 62024, Note_on_c, 0, 72, 0
2, 62040, Note_on_c, 0, 71, 98
2, 62054, Note_on_c, 0, 71, 0
2, 62070, Note_on_c, 0, 69, 102
2, 62084, Note_on_c, 0, 69, 0
2, 62100, Note_on_c, 0, 67, 97
2, 62114, Note_on_c, 0, 67, 0
2, 62130, Note_on_c, 0, 66, 96
2, 62144, Note_on_c, 0, 66, 0
2, 62160, Note_on_c, 0, 64, 86
2, 62189, Note_on_c, 0, 64, 0
2, 62190, Note_on_c, 0, 62, 91
2, 62219, Note_on_c, 0, 62, 0
2, 62220, Note_on_c, 0, 61, 88
2, 62249, Note_on_c, 0, 61, 0
2, 62250, Note_on_c, 0, 62, 79
2, 62279, Note_on_c, 0, 62, 0
2, 62280, Note_on_c, 0, 61, 81
2, 62309, Note_on_c, 0, 61, 0
2, 62310, Note_on_c, 0, 62, 80
2, 62339, Note_on_c, 0, 62, 0
2, 62340, Note_on_c, 0, 64, 70
2, 62369, Note_on_c, 0, 64, 0
2, 62370, Note_on_c, 0, 60, 68
2, 62399, Note_on_c, 0, 60, 0
2, 62399, Note_on_c, 0, 54, 0
2, 62399, Note_on_c, 0, 45, 0
2, 62399, Note_on_c, 0, 43, 0
2, 62400, Note_on_c, 0, 59, 62
2, 62400, Note_on_c, 0, 43, 56
2, 62400, Note_on_c, 0, 47, 62
2, 62400, Note_on_c, 0, 50, 58
2, 62400, Note_on_c, 0, 55, 52
2, 62459, Note_on_c, 0, 55, 0
2, 62459, Note_on_c, 0, 47, 0
2, 62459, Note_on_c, 0, 59, 0
2, 62459, Note_on_c, 0, 43, 0
2, 62459, Note_on_c, 0, 50, 0
2, 62520, Note_on_c, 0, 62, 53
2, 62520, Note_on_c, 0, 66, 59
2, 62550, Note_on_c, 0, 75, 63
2, 62579, Note_on_c, 0, 75, 0
2, 62580, Note_on_c, 0, 76, 63
2, 62609, Note_on_c, 0, 76, 0
2, 62610, Note_on_c, 0, 72, 60
2, 62639, Note_on_c, 0, 72, 0
2, 62639, Note_on_c, 0, 66, 0
2, 62639, Note_on_c, 0, 62, 0
2, 62640, Note_on_c, 0, 71, 59
2, 62640, Note_on_c, 0, 55, 60
2, 62640, Note_on_c, 0, 67, 59
2, 62669, Note_on_c, 0, 67, 0
2, 62669, Note_on_c, 0, 55, 0
2, 62669, Note_on_c, 0, 71, 0
2, 62760, Note_on_c, 0, 74, 62
2, 62760, Note_on_c, 0, 78, 52
2, 62790, Note_on_c, 0, 87, 63
2, 62819, Note_on_c, 0, 87, 0
2, 62820, Note_on_c, 0, 88, 60
2, 62849, Note_on_c, 0, 88, 0
2, 62850, Note_on_c, 0, 84, 61
2, 62879, Note_on_c, 0, 84, 0
2, 62879, Note_on_c, 0, 78, 0
2, 62879, Note_on_c, 0, 74, 0
2, 62880, Note_on_c, 0, 84, 61
2, 62880, Note_on_c, 0, 74, 61
2, 62880, Note_on_c, 0, 78, 62
2, 63059, Note_on_c, 0, 84, 0
2, 63060, Note_on_c, 0, 83, 63
2, 63074, Note_on_c, 0, 83, 0
2, 63075, Note_on_c, 0, 84, 63
2, 63089, Note_on_c, 0, 84, 0
2, 63090, Note_on_c, 0, 86, 62
2, 63104, Note_on_c, 0, 86, 0
2, 63105, Note_on_c, 0, 84, 61
2, 63119, Note_on_c, 0, 84, 0
2, 63119, Note_on_c, 0, 78, 0
2, 63119, Note_on_c, 0, 74, 0
2, 63120, Note_on_c, 0, 83, 64
2, 63120, Note_on_c, 0, 67, 60
2, 63120, Note_on_c, 0, 79, 59
2, 63149, Note_on_c, 0, 79, 0
2, 63149, Note_on_c, 0, 67, 0
2, 63149, Note_on_c, 0, 83, 0
2, 63149, End_track
3, 0, Start_track
3, 0, MIDI_port, 0
3, 0, Title_t, "Piano Sonata No. 10, 1st mvment. (op.14-2)"
3, 0, End_track
4, 0, Start_track
4, 0, MIDI_port, 0
4, 0, Title_t, "--=> Allegro --=>"
4, 0, End_track
5, 0, Start_track
5, 0, MIDI_port, 0
5, 0, Title_t, "recorded : Ryu Jaeyaung"
5, 0, End_track
6, 0, Start_track
6, 0, MIDI_port, 0
6, 0, Title_t, "E-mail : qpxhqps@unitel.co.kr"
6, 0, End_track
7, 0, Start_track
7, 0, MIDI_port, 0
7, 0, Title_t, "Welcome to my country;"
7, 0, End_track
8, 0, Start_track
8, 0, MIDI_port, 0
8, 0, Title_t, "Republic of Korea (South Korea)"
8, 0, End_track
0, 0, End_of_file