0, 0, Header, 1, 4, 480
1, 0, Start_track
1, 0, Title_t, "32 Variation"
1, 0, Time_signature, 3, 2, 24, 8
1, 0, Key_signature, 0, "major"
1, 0, Tempo, 500000
1, 0, Tempo, 500000
1, 0, Tempo, 500000
1, 0, Tempo, 500000
1, 0, Tempo, 500000
1, 0, Tempo, 500000
1, 0, Marker_t, "32 Variation"
1, 1440, Tempo, 705882
1, 1440, Marker_t, "Beethoven"
1, 1920, Tempo, 705882
1, 2640, Tempo, 674157
1, 2880, Tempo, 705882
1, 2880, Marker_t, "Bunji Hisamori"
1, 3360, Tempo, 722891
1, 4080, Tempo, 674157
1, 4320, Tempo, 705882
1, 4320, Marker_t, "hisamori@bekkoame.or.jp"
1, 4800, Tempo, 705882
1, 5520, Tempo, 674157
1, 5760, Marker_t, "Mail in English only!"
1, 6240, Tempo, 722891
1, 6960, Tempo, 689655
1, 7200, Marker_t, "Thank you!"
1, 7680, Tempo, 689655
1, 8400, Tempo, 705882
1, 8640, Tempo, 769230
1, 9120, Tempo, 1000000
1, 10080, Tempo, 600000
1, 10440, Tempo, 722891
1, 11430, Tempo, 731707
1, 12720, Tempo, 1224489
1, 12960, Tempo, 638297
1, 14360, Tempo, 652173
1, 14400, Tempo, 638297
1, 15790, Tempo, 652173
1, 15840, Tempo, 638297
1, 17240, Tempo, 652173
1, 17280, Tempo, 638297
1, 18680, Tempo, 652173
1, 18720, Tempo, 638297
1, 20120, Tempo, 652173
1, 20600, Tempo, 659340
1, 22520, Tempo, 674157
1, 23930, Tempo, 689655
1, 24300, Tempo, 769230
1, 24360, Tempo, 789473
1, 24480, Tempo, 638297
1, 25880, Tempo, 652173
1, 25920, Tempo, 638297
1, 27320, Tempo, 652173
1, 27360, Tempo, 638297
1, 28760, Tempo, 652173
1, 28800, Tempo, 638297
1, 30200, Tempo, 652173
1, 30240, Tempo, 638297
1, 31640, Tempo, 652173
1, 32120, Tempo, 659340
1, 34040, Tempo, 674157
1, 35480, Tempo, 689655
1, 35820, Tempo, 722891
1, 35960, Tempo, 1500000
1, 36000, Tempo, 652173
1, 37400, Tempo, 659340
1, 37440, Tempo, 652173
1, 38840, Tempo, 659340
1, 38880, Tempo, 652173
1, 40280, Tempo, 659340
1, 40320, Tempo, 652173
1, 41720, Tempo, 659340
1, 41760, Tempo, 652173
1, 43160, Tempo, 674157
1, 43200, Tempo, 638297
1, 44600, Tempo, 652173
1, 44640, Tempo, 638297
1, 46040, Tempo, 652173
1, 46500, Tempo, 659340
1, 46920, Tempo, 689655
1, 47280, Tempo, 952380
1, 47520, Tempo, 652173
1, 48920, Tempo, 659340
1, 48960, Tempo, 652173
1, 49860, Tempo, 659340
1, 50360, Tempo, 845070
1, 50400, Tempo, 652173
1, 51800, Tempo, 659340
1, 51840, Tempo, 652173
1, 52740, Tempo, 659340
1, 53240, Tempo, 869565
1, 53280, Tempo, 652173
1, 54680, Tempo, 674157
1, 55160, Tempo, 689655
1, 55200, Tempo, 674157
1, 57080, Tempo, 689655
1, 57560, Tempo, 705882
1, 58020, Tempo, 722891
1, 58520, Tempo, 731707
1, 58700, Tempo, 845070
1, 58880, Tempo, 2727272
1, 59040, Tempo, 625000
1, 59480, Tempo, 731707
1, 60250, Tempo, 810810
1, 60480, Tempo, 625000
1, 60920, Tempo, 731707
1, 61690, Tempo, 810810
1, 61920, Tempo, 625000
1, 62360, Tempo, 731707
1, 63130, Tempo, 810810
1, 63360, Tempo, 625000
1, 63800, Tempo, 731707
1, 64560, Tempo, 821917
1, 64800, Tempo, 638297
1, 65240, Tempo, 750000
1, 66000, Tempo, 769230
1, 66240, Tempo, 722891
1, 66720, Tempo, 750000
1, 66840, Tempo, 731707
1, 69320, Tempo, 750000
1, 70040, Tempo, 789473
1, 70320, Tempo, 967741
1, 70560, Tempo, 600000
1, 73380, Tempo, 612244
1, 73440, Tempo, 600000
1, 76280, Tempo, 638297
1, 76320, Tempo, 600000
1, 79140, Tempo, 625000
1, 79280, Tempo, 612244
1, 80600, Tempo, 625000
1, 81240, Tempo, 638297
1, 81480, Tempo, 652173
1, 81560, Tempo, 674157
1, 81840, Tempo, 967741
1, 82080, Tempo, 652173
1, 83480, Tempo, 705882
1, 83520, Tempo, 652173
1, 84920, Tempo, 705882
1, 84960, Tempo, 652173
1, 86360, Tempo, 705882
1, 86400, Tempo, 652173
1, 87800, Tempo, 722891
1, 87840, Tempo, 652173
1, 88980, Tempo, 659340
1, 89220, Tempo, 674157
1, 89400, Tempo, 674157
1, 89520, Tempo, 659340
1, 90660, Tempo, 674157
1, 92120, Tempo, 689655
1, 92880, Tempo, 731707
1, 93000, Tempo, 769230
1, 93120, Tempo, 1224489
1, 93360, Tempo, 769230
1, 93600, Tempo, 625000
1, 93720, Tempo, 612244
1, 95000, Tempo, 625000
1, 95040, Tempo, 612244
1, 96440, Tempo, 652173
1, 96480, Tempo, 625000
1, 96600, Tempo, 612244
1, 97880, Tempo, 625000
1, 97920, Tempo, 612244
1, 99250, Tempo, 923076
1, 99360, Tempo, 625000
1, 99480, Tempo, 612244
1, 100760, Tempo, 625000
1, 101000, Tempo, 638297
1, 102200, Tempo, 652173
1, 103640, Tempo, 674157
1, 104400, Tempo, 689655
1, 104520, Tempo, 722891
1, 104600, Tempo, 845070
1, 104760, Tempo, 1071428
1, 105120, Tempo, 638297
1, 106500, Tempo, 652173
1, 106560, Tempo, 638297
1, 107940, Tempo, 652173
1, 108000, Tempo, 638297
1, 109380, Tempo, 652173
1, 109440, Tempo, 638297
1, 110760, Tempo, 652173
1, 110880, Tempo, 638297
1, 112260, Tempo, 652173
1, 112320, Tempo, 638297
1, 112760, Tempo, 652173
1, 115160, Tempo, 674157
1, 115880, Tempo, 689655
1, 116100, Tempo, 705882
1, 116400, Tempo, 869565
1, 116640, Tempo, 612244
1, 116840, Tempo, 625000
1, 116880, Tempo, 612244
1, 118280, Tempo, 625000
1, 118320, Tempo, 612244
1, 119720, Tempo, 625000
1, 119760, Tempo, 612244
1, 121160, Tempo, 625000
1, 121200, Tempo, 612244
1, 122600, Tempo, 625000
1, 122640, Tempo, 612244
1, 124040, Tempo, 625000
1, 125480, Tempo, 638297
1, 125960, Tempo, 652173
1, 128120, Tempo, 1000000
1, 128160, Tempo, 600000
1, 128360, Tempo, 612244
1, 128400, Tempo, 600000
1, 129800, Tempo, 612244
1, 129840, Tempo, 600000
1, 131240, Tempo, 612244
1, 131280, Tempo, 600000
1, 132680, Tempo, 612244
1, 132720, Tempo, 600000
1, 134120, Tempo, 612244
1, 134160, Tempo, 600000
1, 135560, Tempo, 638297
1, 135600, Tempo, 612244
1, 136040, Tempo, 625000
1, 136080, Tempo, 612244
1, 138200, Tempo, 625000
1, 138720, Tempo, 638297
1, 139320, Tempo, 652173
1, 139380, Tempo, 689655
1, 139440, Tempo, 821917
1, 139500, Tempo, 447761
1, 139680, Tempo, 1500000
1, 140160, Tempo, 750000
1, 141080, Tempo, 769230
1, 141120, Tempo, 731707
1, 142520, Tempo, 750000
1, 142560, Tempo, 731707
1, 143960, Tempo, 750000
1, 144000, Tempo, 731707
1, 145400, Tempo, 769230
1, 145440, Tempo, 731707
1, 146840, Tempo, 789473
1, 146880, Tempo, 769230
1, 147360, Tempo, 750000
1, 148280, Tempo, 789473
1, 148320, Tempo, 750000
1, 148680, Tempo, 769230
1, 149720, Tempo, 789473
1, 149760, Tempo, 769230
1, 150720, Tempo, 821917
1, 150840, Tempo, 769230
1, 151200, Tempo, 731707
1, 156920, Tempo, 750000
1, 156960, Tempo, 731707
1, 158360, Tempo, 750000
1, 158840, Tempo, 769230
1, 158880, Tempo, 750000
1, 161240, Tempo, 769230
1, 162540, Tempo, 789473
1, 162680, Tempo, 845070
1, 162720, Tempo, 731707
1, 168440, Tempo, 750000
1, 168480, Tempo, 731707
1, 169880, Tempo, 810810
1, 169920, Tempo, 750000
1, 170360, Tempo, 769230
1, 170400, Tempo, 750000
1, 172760, Tempo, 769230
1, 173220, Tempo, 789473
1, 173600, Tempo, 845070
1, 173640, Tempo, 895522
1, 174000, Tempo, 1333333
1, 174240, Tempo, 689655
1, 177080, Tempo, 705882
1, 177120, Tempo, 674157
1, 179960, Tempo, 689655
1, 180000, Tempo, 659340
1, 181380, Tempo, 674157
1, 182840, Tempo, 769230
1, 182880, Tempo, 674157
1, 184280, Tempo, 689655
1, 185720, Tempo, 1071428
1, 185760, Tempo, 638297
1, 188600, Tempo, 652173
1, 188640, Tempo, 638297
1, 191480, Tempo, 705882
1, 191520, Tempo, 625000
1, 192900, Tempo, 638297
1, 194360, Tempo, 750000
1, 194400, Tempo, 659340
1, 195800, Tempo, 689655
1, 196560, Tempo, 705882
1, 196720, Tempo, 810810
1, 197040, Tempo, 1818181
1, 197280, Tempo, 652173
1, 198680, Tempo, 659340
1, 198720, Tempo, 652173
1, 200120, Tempo, 659340
1, 200160, Tempo, 652173
1, 201560, Tempo, 659340
1, 201600, Tempo, 652173
1, 202980, Tempo, 659340
1, 203040, Tempo, 652173
1, 204360, Tempo, 659340
1, 204920, Tempo, 674157
1, 204960, Tempo, 659340
1, 206360, Tempo, 674157
1, 206400, Tempo, 674157
1, 207320, Tempo, 689655
1, 208260, Tempo, 705882
1, 208520, Tempo, 722891
1, 208680, Tempo, 1500000
1, 208800, Tempo, 240000
1, 210240, Tempo, 600000
1, 211640, Tempo, 612244
1, 211680, Tempo, 600000
1, 213080, Tempo, 612244
1, 213120, Tempo, 600000
1, 214520, Tempo, 612244
1, 214560, Tempo, 600000
1, 215960, Tempo, 674157
1, 216000, Tempo, 600000
1, 216960, Tempo, 612244
1, 217000, Tempo, 600000
1, 217440, Tempo, 612244
1, 217480, Tempo, 600000
1, 217880, Tempo, 612244
1, 217920, Tempo, 2727272
1, 218040, Tempo, 612244
1, 218400, Tempo, 625000
1, 218880, Tempo, 638297
1, 219360, Tempo, 652173
1, 219840, Tempo, 659340
1, 220320, Tempo, 674157
1, 220920, Tempo, 810810
1, 221240, Tempo, 821917
1, 221520, Tempo, 1000000
1, 221760, Tempo, 600000
1, 224580, Tempo, 612244
1, 224640, Tempo, 600000
1, 227460, Tempo, 612244
1, 227520, Tempo, 612244
1, 228880, Tempo, 625000
1, 228960, Tempo, 705882
1, 229140, Tempo, 845070
1, 229200, Tempo, 600000
1, 232500, Tempo, 612244
1, 232760, Tempo, 659340
1, 232800, Tempo, 612244
1, 233040, Tempo, 750000
1, 233280, Tempo, 600000
1, 234680, Tempo, 625000
1, 234720, Tempo, 600000
1, 236120, Tempo, 625000
1, 236160, Tempo, 600000
1, 237560, Tempo, 625000
1, 237600, Tempo, 600000
1, 239000, Tempo, 659340
1, 239040, Tempo, 600000
1, 240440, Tempo, 625000
1, 240480, Tempo, 600000
1, 240920, Tempo, 625000
1, 240960, Tempo, 600000
1, 244760, Tempo, 612244
1, 244800, Tempo, 600000
1, 246200, Tempo, 625000
1, 246240, Tempo, 600000
1, 247640, Tempo, 625000
1, 247680, Tempo, 600000
1, 249080, Tempo, 625000
1, 249120, Tempo, 600000
1, 250520, Tempo, 659340
1, 250560, Tempo, 600000
1, 251960, Tempo, 638297
1, 252000, Tempo, 600000
1, 252440, Tempo, 625000
1, 252480, Tempo, 600000
1, 254840, Tempo, 612244
1, 256200, Tempo, 625000
1, 256280, Tempo, 2068965
1, 256320, Tempo, 638297
1, 256360, Tempo, 625000
1, 263480, Tempo, 652173
1, 263520, Tempo, 638297
1, 264920, Tempo, 674157
1, 264960, Tempo, 638297
1, 265360, Tempo, 652173
1, 267430, Tempo, 659340
1, 267600, Tempo, 1034482
1, 267720, Tempo, 2727272
1, 267840, Tempo, 612244
1, 273540, Tempo, 638297
1, 273600, Tempo, 612244
1, 274980, Tempo, 625000
1, 275480, Tempo, 652173
1, 275520, Tempo, 625000
1, 277860, Tempo, 638297
1, 279120, Tempo, 652173
1, 279240, Tempo, 2727272
1, 279360, Tempo, 588235
1, 282200, Tempo, 600000
1, 282240, Tempo, 588235
1, 285060, Tempo, 600000
1, 285120, Tempo, 588235
1, 286500, Tempo, 600000
1, 286920, Tempo, 612244
1, 286960, Tempo, 600000
1, 290320, Tempo, 652173
1, 290640, Tempo, 659340
1, 290707, Tempo, 2727272
1, 290880, Tempo, 625000
1, 293400, Tempo, 638297
1, 293520, Tempo, 652173
1, 293650, Tempo, 821917
1, 293760, Tempo, 625000
1, 296280, Tempo, 638297
1, 296400, Tempo, 652173
1, 296520, Tempo, 869565
1, 296640, Tempo, 625000
1, 298520, Tempo, 1034482
1, 298670, Tempo, 625000
1, 299960, Tempo, 652173
1, 300000, Tempo, 638297
1, 300920, Tempo, 652173
1, 301400, Tempo, 689655
1, 301880, Tempo, 1500000
1, 302040, Tempo, 1578947
1, 302280, Tempo, 2400000
1, 302400, Tempo, 600000
1, 303800, Tempo, 652173
1, 303840, Tempo, 600000
1, 305240, Tempo, 652173
1, 305280, Tempo, 600000
1, 306680, Tempo, 652173
1, 306720, Tempo, 600000
1, 308120, Tempo, 689655
1, 308160, Tempo, 600000
1, 309560, Tempo, 689655
1, 309600, Tempo, 625000
1, 309705, Tempo, 612244
1, 311040, Tempo, 612244
1, 312440, Tempo, 625000
1, 313140, Tempo, 638297
1, 313400, Tempo, 659340
1, 313800, Tempo, 923076
1, 313920, Tempo, 600000
1, 315360, Tempo, 600000
1, 316800, Tempo, 600000
1, 318240, Tempo, 600000
1, 319680, Tempo, 600000
1, 321080, Tempo, 612244
1, 321120, Tempo, 600000
1, 323940, Tempo, 612244
1, 324420, Tempo, 625000
1, 324900, Tempo, 652173
1, 324960, Tempo, 895522
1, 325260, Tempo, 2727272
1, 325440, Tempo, 271493
1, 326880, Tempo, 659340
1, 329720, Tempo, 674157
1, 329760, Tempo, 659340
1, 332600, Tempo, 722891
1, 332640, Tempo, 659340
1, 335480, Tempo, 689655
1, 335520, Tempo, 674157
1, 336920, Tempo, 689655
1, 337665, Tempo, 722891
1, 337880, Tempo, 789473
1, 338280, Tempo, 2727272
1, 338400, Tempo, 600000
1, 341240, Tempo, 612244
1, 341280, Tempo, 600000
1, 344120, Tempo, 674157
1, 344160, Tempo, 600000
1, 345560, Tempo, 674157
1, 345600, Tempo, 600000
1, 346040, Tempo, 625000
1, 346080, Tempo, 612244
1, 348440, Tempo, 625000
1, 349680, Tempo, 674157
1, 349760, Tempo, 750000
1, 349840, Tempo, 1818181
1, 349920, Tempo, 1935483
1, 350400, Tempo, 1111111
1, 351320, Tempo, 1224489
1, 351360, Tempo, 1111111
1, 352760, Tempo, 1224489
1, 352800, Tempo, 1111111
1, 354200, Tempo, 1224489
1, 354240, Tempo, 1111111
1, 355550, Tempo, 1578947
1, 355680, Tempo, 1111111
1, 357080, Tempo, 1333333
1, 357120, Tempo, 1224489
1, 357600, Tempo, 1276595
1, 357830, Tempo, 1176470
1, 358450, Tempo, 1276595
1, 358560, Tempo, 1176470
1, 359750, Tempo, 1224489
1, 360480, Tempo, 1333333
1, 360900, Tempo, 2222222
1, 360960, Tempo, 2727272
1, 361440, Tempo, 659340
1, 367140, Tempo, 689655
1, 367200, Tempo, 674157
1, 368580, Tempo, 689655
1, 370020, Tempo, 705882
1, 371280, Tempo, 731707
1, 371400, Tempo, 789473
1, 371520, Tempo, 659340
1, 372960, Tempo, 652173
1, 374400, Tempo, 645161
1, 375840, Tempo, 638297
1, 377280, Tempo, 631578
1, 378720, Tempo, 625000
1, 380160, Tempo, 618556
1, 381600, Tempo, 612244
1, 382060, Tempo, 606060
1, 382550, Tempo, 600000
1, 382860, Tempo, 612244
1, 382920, Tempo, 625000
1, 383000, Tempo, 659340
1, 383090, Tempo, 600000
1, 384440, Tempo, 612244
1, 384480, Tempo, 600000
1, 388740, Tempo, 612244
1, 388800, Tempo, 600000
1, 389480, Tempo, 612244
1, 389520, Tempo, 600000
1, 390920, Tempo, 612244
1, 390960, Tempo, 600000
1, 392120, Tempo, 638297
1, 392160, Tempo, 600000
1, 394280, Tempo, 845070
1, 394320, Tempo, 750000
1, 394400, Tempo, 638297
1, 394480, Tempo, 1132075
1, 394560, Tempo, 638297
1, 394620, Tempo, 612244
1, 395960, Tempo, 638297
1, 396000, Tempo, 625000
1, 397380, Tempo, 638297
1, 398700, Tempo, 652173
1, 398820, Tempo, 1071428
1, 398880, Tempo, 638297
1, 398940, Tempo, 625000
1, 400280, Tempo, 659340
1, 400320, Tempo, 625000
1, 401720, Tempo, 659340
1, 401760, Tempo, 625000
1, 403160, Tempo, 659340
1, 403200, Tempo, 625000
1, 404600, Tempo, 689655
1, 404640, Tempo, 625000
1, 406040, Tempo, 652173
1, 406080, Tempo, 638297
1, 406520, Tempo, 652173
1, 406560, Tempo, 638297
1, 411800, Tempo, 659340
1, 411840, Tempo, 652173
1, 413200, Tempo, 674157
1, 413280, Tempo, 652173
1, 417540, Tempo, 674157
1, 418960, Tempo, 1333333
1, 419040, Tempo, 600000
1, 421880, Tempo, 625000
1, 421920, Tempo, 600000
1, 424760, Tempo, 659340
1, 424800, Tempo, 600000
1, 427640, Tempo, 612244
1, 427680, Tempo, 600000
1, 430520, Tempo, 625000
1, 430560, Tempo, 600000
1, 431000, Tempo, 612244
1, 431040, Tempo, 600000
1, 432440, Tempo, 612244
1, 432480, Tempo, 600000
1, 434820, Tempo, 612244
1, 435360, Tempo, 600000
1, 437700, Tempo, 612244
1, 438200, Tempo, 625000
1, 438240, Tempo, 600000
1, 439050, Tempo, 638297
1, 439200, Tempo, 1000000
1, 439440, Tempo, 526315
1, 439560, Tempo, 521739
1, 439680, Tempo, 517241
1, 439800, Tempo, 512820
1, 439920, Tempo, 508474
1, 440040, Tempo, 504201
1, 440160, Tempo, 500000
1, 440280, Tempo, 495867
1, 440400, Tempo, 491803
1, 440520, Tempo, 487804
1, 440640, Tempo, 483870
1, 440760, Tempo, 480000
1, 440880, Tempo, 476190
1, 441000, Tempo, 472440
1, 441120, Tempo, 468750
1, 441240, Tempo, 465116
1, 441360, Tempo, 500000
1, 441600, Tempo, 550458
1, 441720, Tempo, 582524
1, 441840, Tempo, 638297
1, 441960, Tempo, 1000000
1, 442080, Tempo, 600000
1, 442560, Tempo, 750000
1, 443040, Tempo, 750000
1, 443280, Tempo, 1224489
1, 443520, Tempo, 869565
1, 443520, End_track
2, 0, Start_track
2, 0, Title_t, "No Name"
2, 0, Control_c, 0, 0, 0
2, 0, Control_c, 0, 32, 0
2, 0, Program_c, 0, 0
2, 0, Control_c, 0, 7, 120
2, 0, Pitch_bend_c, 0, 8192
2, 0, Control_c, 0, 1, 0
2, 0, Control_c, 0, 64, 0
2, 0, Control_c, 0, 93, 28
2, 0, Control_c, 0, 91, 91
2, 0, Control_c, 0, 10, 73
2, 1920, Note_on_c, 0, 72, 66
2, 2760, Note_on_c, 0, 75, 66
2, 2770, Note_off_c, 0, 72, 0
2, 2840, Note_off_c, 0, 75, 0
2, 2880, Note_on_c, 0, 74, 66
2, 3035, Note_off_c, 0, 74, 0
2, 3360, Note_on_c, 0, 67, 66
2, 4080, Note_off_c, 0, 67, 0
2, 4080, Note_on_c, 0, 67, 64
2, 4125, Note_on_c, 0, 69, 66
2, 4140, Note_off_c, 0, 67, 0
2, 4170, Note_on_c, 0, 71, 67
2, 4185, Note_off_c, 0, 69, 0
2, 4220, Note_on_c, 0, 72, 69
2, 4230, Note_off_c, 0, 71, 0
2, 4270, Note_on_c, 0, 74, 71
2, 4280, Note_off_c, 0, 72, 0
2, 4320, Note_on_c, 0, 76, 73
2, 4330, Note_off_c, 0, 74, 0
2, 4475, Note_off_c, 0, 76, 0
2, 4800, Note_on_c, 0, 76, 70
2, 5635, Note_off_c, 0, 76, 0
2, 5640, Note_on_c, 0, 79, 74
2, 5720, Note_off_c, 0, 79, 0
2, 5760, Note_on_c, 0, 77, 74
2, 5915, Note_off_c, 0, 77, 0
2, 6240, Note_on_c, 0, 65, 75
2, 6960, Note_off_c, 0, 65, 0
2, 6960, Note_on_c, 0, 72, 73
2, 7020, Note_off_c, 0, 72, 0
2, 7020, Note_on_c, 0, 74, 75
2, 7080, Note_off_c, 0, 74, 0
2, 7080, Note_on_c, 0, 75, 77
2, 7140, Note_off_c, 0, 75, 0
2, 7140, Note_on_c, 0, 77, 80
2, 7200, Note_off_c, 0, 77, 0
2, 7200, Note_on_c, 0, 78, 82
2, 7355, Note_off_c, 0, 78, 0
2, 7680, Note_on_c, 0, 66, 78
2, 8400, Note_off_c, 0, 66, 0
2, 8400, Note_on_c, 0, 72, 81
2, 8460, Note_off_c, 0, 72, 0
2, 8460, Note_on_c, 0, 74, 85
2, 8520, Note_off_c, 0, 74, 0
2, 8520, Note_on_c, 0, 75, 88
2, 8580, Note_off_c, 0, 75, 0
2, 8580, Note_on_c, 0, 78, 91
2, 8640, Note_off_c, 0, 78, 0
2, 8640, Note_on_c, 0, 79, 95
2, 8795, Note_off_c, 0, 79, 0
2, 9120, Note_on_c, 0, 68, 96
2, 9120, Note_on_c, 0, 72, 96
2, 9120, Note_on_c, 0, 77, 96
2, 9120, Note_on_c, 0, 80, 101
2, 10080, Note_off_c, 0, 80, 0
2, 10080, Note_off_c, 0, 77, 0
2, 10080, Note_off_c, 0, 72, 0
2, 10080, Note_off_c, 0, 68, 0
2, 10440, Note_on_c, 0, 68, 70
2, 10520, Note_off_c, 0, 68, 0
2, 10560, Note_on_c, 0, 65, 67
2, 10715, Note_off_c, 0, 65, 0
2, 11040, Note_on_c, 0, 67, 62
2, 11195, Note_off_c, 0, 67, 0
2, 11520, Note_on_c, 0, 60, 57
2, 11675, Note_off_c, 0, 60, 0
2, 12960, Note_on_c, 0, 55, 44
2, 13080, Note_off_c, 0, 55, 0
2, 13080, Note_on_c, 0, 60, 45
2, 13200, Note_off_c, 0, 60, 0
2, 13200, Note_on_c, 0, 63, 45
2, 13320, Note_off_c, 0, 63, 0
2, 13320, Note_on_c, 0, 67, 46
2, 13440, Note_off_c, 0, 67, 0
2, 13440, Note_on_c, 0, 72, 46
2, 13560, Note_off_c, 0, 72, 0
2, 13560, Note_on_c, 0, 75, 47
2, 13680, Note_off_c, 0, 75, 0
2, 13680, Note_on_c, 0, 79, 47
2, 13760, Note_off_c, 0, 79, 0
2, 13800, Note_on_c, 0, 79, 48
2, 13880, Note_off_c, 0, 79, 0
2, 13920, Note_on_c, 0, 79, 48
2, 14000, Note_off_c, 0, 79, 0
2, 14040, Note_on_c, 0, 79, 48
2, 14120, Note_off_c, 0, 79, 0
2, 14160, Note_on_c, 0, 79, 49
2, 14240, Note_off_c, 0, 79, 0
2, 14280, Note_on_c, 0, 79, 49
2, 14360, Note_off_c, 0, 79, 0
2, 14400, Note_on_c, 0, 79, 50
2, 14520, Note_off_c, 0, 79, 0
2, 14520, Note_on_c, 0, 74, 50
2, 14640, Note_off_c, 0, 74, 0
2, 14640, Note_on_c, 0, 71, 51
2, 14760, Note_off_c, 0, 71, 0
2, 14760, Note_on_c, 0, 67, 51
2, 14880, Note_off_c, 0, 67, 0
2, 14880, Note_on_c, 0, 62, 52
2, 15000, Note_off_c, 0, 62, 0
2, 15000, Note_on_c, 0, 59, 52
2, 15120, Note_off_c, 0, 59, 0
2, 15120, Note_on_c, 0, 55, 52
2, 15200, Note_off_c, 0, 55, 0
2, 15240, Note_on_c, 0, 55, 53
2, 15320, Note_off_c, 0, 55, 0
2, 15360, Note_on_c, 0, 55, 53
2, 15440, Note_off_c, 0, 55, 0
2, 15480, Note_on_c, 0, 55, 54
2, 15560, Note_off_c, 0, 55, 0
2, 15600, Note_on_c, 0, 55, 54
2, 15680, Note_off_c, 0, 55, 0
2, 15720, Note_on_c, 0, 55, 55
2, 15800, Note_off_c, 0, 55, 0
2, 15840, Note_on_c, 0, 55, 55
2, 15960, Note_off_c, 0, 55, 0
2, 15960, Note_on_c, 0, 58, 56
2, 16080, Note_off_c, 0, 58, 0
2, 16080, Note_on_c, 0, 61, 56
2, 16200, Note_off_c, 0, 61, 0
2, 16200, Note_on_c, 0, 64, 56
2, 16320, Note_off_c, 0, 64, 0
2, 16320, Note_on_c, 0, 67, 57
2, 16440, Note_off_c, 0, 67, 0
2, 16440, Note_on_c, 0, 70, 57
2, 16560, Note_off_c, 0, 70, 0
2, 16560, Note_on_c, 0, 73, 58
2, 16680, Note_off_c, 0, 73, 0
2, 16680, Note_on_c, 0, 76, 58
2, 16760, Note_off_c, 0, 76, 0
2, 16800, Note_on_c, 0, 76, 59
2, 16880, Note_off_c, 0, 76, 0
2, 16920, Note_on_c, 0, 76, 59
2, 17000, Note_off_c, 0, 76, 0
2, 17040, Note_on_c, 0, 76, 60
2, 17120, Note_off_c, 0, 76, 0
2, 17160, Note_on_c, 0, 76, 60
2, 17240, Note_off_c, 0, 76, 0
2, 17280, Note_on_c, 0, 77, 60
2, 17400, Note_off_c, 0, 77, 0
2, 17400, Note_on_c, 0, 72, 61
2, 17520, Note_off_c, 0, 72, 0
2, 17520, Note_on_c, 0, 69, 61
2, 17640, Note_off_c, 0, 69, 0
2, 17640, Note_on_c, 0, 65, 62
2, 17760, Note_off_c, 0, 65, 0
2, 17760, Note_on_c, 0, 60, 62
2, 17880, Note_off_c, 0, 60, 0
2, 17880, Note_on_c, 0, 57, 63
2, 18000, Note_off_c, 0, 57, 0
2, 18000, Note_on_c, 0, 53, 63
2, 18080, Note_off_c, 0, 53, 0
2, 18120, Note_on_c, 0, 53, 64
2, 18200, Note_off_c, 0, 53, 0
2, 18240, Note_on_c, 0, 53, 64
2, 18320, Note_off_c, 0, 53, 0
2, 18360, Note_on_c, 0, 53, 65
2, 18440, Note_off_c, 0, 53, 0
2, 18480, Note_on_c, 0, 53, 65
2, 18560, Note_off_c, 0, 53, 0
2, 18600, Note_on_c, 0, 53, 65
2, 18680, Note_off_c, 0, 53, 0
2, 18720, Note_on_c, 0, 54, 66
2, 18840, Note_off_c, 0, 54, 0
2, 18840, Note_on_c, 0, 60, 66
2, 18960, Note_off_c, 0, 60, 0
2, 18960, Note_on_c, 0, 63, 67
2, 19080, Note_off_c, 0, 63, 0
2, 19080, Note_on_c, 0, 66, 67
2, 19200, Note_off_c, 0, 66, 0
2, 19200, Note_on_c, 0, 72, 68
2, 19320, Note_off_c, 0, 72, 0
2, 19320, Note_on_c, 0, 75, 68
2, 19440, Note_off_c, 0, 75, 0
2, 19440, Note_on_c, 0, 78, 69
2, 19520, Note_off_c, 0, 78, 0
2, 19560, Note_on_c, 0, 78, 69
2, 19640, Note_off_c, 0, 78, 0
2, 19680, Note_on_c, 0, 78, 69
2, 19760, Note_off_c, 0, 78, 0
2, 19800, Note_on_c, 0, 78, 70
2, 19880, Note_off_c, 0, 78, 0
2, 19920, Note_on_c, 0, 78, 70
2, 20000, Note_off_c, 0, 78, 0
2, 20040, Note_on_c, 0, 78, 71
2, 20120, Note_off_c, 0, 78, 0
2, 20160, Note_on_c, 0, 79, 70
2, 20280, Note_off_c, 0, 79, 0
2, 20280, Note_on_c, 0, 75, 73
2, 20400, Note_off_c, 0, 75, 0
2, 20400, Note_on_c, 0, 72, 75
2, 20520, Note_off_c, 0, 72, 0
2, 20520, Note_on_c, 0, 67, 78
2, 20640, Note_off_c, 0, 67, 0
2, 20640, Note_on_c, 0, 68, 80
2, 20760, Note_off_c, 0, 68, 0
2, 20760, Note_on_c, 0, 72, 77
2, 20880, Note_off_c, 0, 72, 0
2, 20880, Note_on_c, 0, 77, 76
2, 21000, Note_off_c, 0, 77, 0
2, 21000, Note_on_c, 0, 80, 74
2, 21120, Note_off_c, 0, 80, 0
2, 21120, Note_on_c, 0, 84, 73
2, 21240, Note_off_c, 0, 84, 0
2, 21240, Note_on_c, 0, 89, 72
2, 21360, Note_off_c, 0, 89, 0
2, 21360, Note_on_c, 0, 92, 71
2, 21480, Note_off_c, 0, 92, 0
2, 21480, Note_on_c, 0, 89, 69
2, 21600, Note_off_c, 0, 89, 0
2, 21600, Note_on_c, 0, 84, 68
2, 21720, Note_off_c, 0, 84, 0
2, 21720, Note_on_c, 0, 80, 67
2, 21840, Note_off_c, 0, 80, 0
2, 21840, Note_on_c, 0, 77, 66
2, 21960, Note_off_c, 0, 77, 0
2, 21960, Note_on_c, 0, 72, 64
2, 22080, Note_off_c, 0, 72, 0
2, 22080, Note_on_c, 0, 68, 63
2, 22200, Note_off_c, 0, 68, 0
2, 22200, Note_on_c, 0, 65, 62
2, 22320, Note_off_c, 0, 65, 0
2, 22320, Note_on_c, 0, 60, 61
2, 22440, Note_off_c, 0, 60, 0
2, 22440, Note_on_c, 0, 56, 59
2, 22560, Note_off_c, 0, 56, 0
2, 22560, Note_on_c, 0, 55, 58
2, 22680, Note_off_c, 0, 55, 0
2, 22680, Note_on_c, 0, 59, 57
2, 22800, Note_off_c, 0, 59, 0
2, 22800, Note_on_c, 0, 62, 56
2, 22920, Note_off_c, 0, 62, 0
2, 22920, Note_on_c, 0, 67, 54
2, 23040, Note_off_c, 0, 67, 0
2, 23040, Note_on_c, 0, 63, 53
2, 23160, Note_off_c, 0, 63, 0
2, 23160, Note_on_c, 0, 60, 52
2, 23280, Note_off_c, 0, 60, 0
2, 23280, Note_on_c, 0, 55, 51
2, 23400, Note_off_c, 0, 55, 0
2, 23400, Note_on_c, 0, 51, 49
2, 23520, Note_off_c, 0, 51, 0
2, 25440, Note_on_c, 0, 75, 50
2, 25440, Note_on_c, 0, 72, 50
2, 25595, Note_off_c, 0, 72, 0
2, 25595, Note_off_c, 0, 75, 0
2, 25920, Note_on_c, 0, 74, 52
2, 25920, Note_on_c, 0, 71, 52
2, 26075, Note_off_c, 0, 71, 0
2, 26075, Note_off_c, 0, 74, 0
2, 26880, Note_on_c, 0, 67, 55
2, 26880, Note_on_c, 0, 74, 55
2, 27035, Note_off_c, 0, 74, 0
2, 27035, Note_off_c, 0, 67, 0
2, 27360, Note_on_c, 0, 67, 57
2, 27360, Note_on_c, 0, 73, 57
2, 27360, Note_on_c, 0, 76, 57
2, 27515, Note_off_c, 0, 76, 0
2, 27515, Note_off_c, 0, 73, 0
2, 27515, Note_off_c, 0, 67, 0
2, 28320, Note_on_c, 0, 67, 61
2, 28320, Note_on_c, 0, 73, 61
2, 28475, Note_off_c, 0, 73, 0
2, 28475, Note_off_c, 0, 67, 0
2, 28800, Note_on_c, 0, 69, 63
2, 28800, Note_on_c, 0, 72, 63
2, 28955, Note_off_c, 0, 72, 0
2, 28955, Note_off_c, 0, 69, 0
2, 29760, Note_on_c, 0, 72, 66
2, 29760, Note_on_c, 0, 65, 66
2, 29915, Note_off_c, 0, 65, 0
2, 29915, Note_off_c, 0, 72, 0
2, 30240, Note_on_c, 0, 72, 68
2, 30240, Note_on_c, 0, 66, 68
2, 30395, Note_off_c, 0, 66, 0
2, 30395, Note_off_c, 0, 72, 0
2, 31200, Note_on_c, 0, 72, 71
2, 31200, Note_on_c, 0, 75, 71
2, 31355, Note_off_c, 0, 75, 0
2, 31355, Note_off_c, 0, 72, 0
2, 31680, Note_on_c, 0, 74, 78
2, 31680, Note_on_c, 0, 71, 78
2, 31835, Note_off_c, 0, 71, 0
2, 31835, Note_off_c, 0, 74, 0
2, 32160, Note_on_c, 0, 77, 93
2, 32160, Note_on_c, 0, 72, 93
2, 32315, Note_off_c, 0, 72, 0
2, 32315, Note_off_c, 0, 77, 0
2, 33960, Note_on_c, 0, 77, 71
2, 33960, Note_on_c, 0, 72, 71
2, 34040, Note_off_c, 0, 72, 0
2, 34040, Note_off_c, 0, 77, 0
2, 34080, Note_on_c, 0, 71, 69
2, 34080, Note_on_c, 0, 79, 69
2, 34235, Note_off_c, 0, 79, 0
2, 34235, Note_off_c, 0, 71, 0
2, 34560, Note_on_c, 0, 72, 59
2, 34715, Note_off_c, 0, 72, 0
2, 36000, Note_on_c, 0, 87, 57
2, 36120, Note_off_c, 0, 87, 0
2, 36120, Note_on_c, 0, 84, 57
2, 36240, Note_off_c, 0, 84, 0
2, 36240, Note_on_c, 0, 79, 57
2, 36360, Note_off_c, 0, 79, 0
2, 36360, Note_on_c, 0, 75, 58
2, 36480, Note_off_c, 0, 75, 0
2, 36480, Note_on_c, 0, 72, 58
2, 36600, Note_off_c, 0, 72, 0
2, 36600, Note_on_c, 0, 67, 59
2, 36720, Note_off_c, 0, 67, 0
2, 36720, Note_on_c, 0, 63, 59
2, 36800, Note_off_c, 0, 63, 0
2, 36840, Note_on_c, 0, 63, 59
2, 36920, Note_off_c, 0, 63, 0
2, 36960, Note_on_c, 0, 63, 60
2, 37040, Note_off_c, 0, 63, 0
2, 37080, Note_on_c, 0, 63, 60
2, 37160, Note_off_c, 0, 63, 0
2, 37200, Note_on_c, 0, 63, 61
2, 37280, Note_off_c, 0, 63, 0
2, 37320, Note_on_c, 0, 63, 61
2, 37400, Note_off_c, 0, 63, 0
2, 37440, Note_on_c, 0, 62, 61
2, 37560, Note_off_c, 0, 62, 0
2, 37560, Note_on_c, 0, 67, 62
2, 37680, Note_off_c, 0, 67, 0
2, 37680, Note_on_c, 0, 71, 62
2, 37800, Note_off_c, 0, 71, 0
2, 37800, Note_on_c, 0, 74, 63
2, 37920, Note_off_c, 0, 74, 0
2, 37920, Note_on_c, 0, 79, 63
2, 38040, Note_off_c, 0, 79, 0
2, 38040, Note_on_c, 0, 83, 64
2, 38160, Note_off_c, 0, 83, 0
2, 38160, Note_on_c, 0, 86, 64
2, 38240, Note_off_c, 0, 86, 0
2, 38280, Note_on_c, 0, 86, 64
2, 38360, Note_off_c, 0, 86, 0
2, 38400, Note_on_c, 0, 86, 65
2, 38480, Note_off_c, 0, 86, 0
2, 38520, Note_on_c, 0, 86, 65
2, 38600, Note_off_c, 0, 86, 0
2, 38640, Note_on_c, 0, 86, 66
2, 38720, Note_off_c, 0, 86, 0
2, 38760, Note_on_c, 0, 86, 66
2, 38840, Note_off_c, 0, 86, 0
2, 38880, Note_on_c, 0, 85, 66
2, 39000, Note_off_c, 0, 85, 0
2, 39000, Note_on_c, 0, 82, 67
2, 39120, Note_off_c, 0, 82, 0
2, 39120, Note_on_c, 0, 78, 67
2, 39240, Note_off_c, 0, 78, 0
2, 39240, Note_on_c, 0, 73, 68
2, 39360, Note_off_c, 0, 73, 0
2, 39360, Note_on_c, 0, 70, 68
2, 39480, Note_off_c, 0, 70, 0
2, 39480, Note_on_c, 0, 66, 68
2, 39600, Note_off_c, 0, 66, 0
2, 39600, Note_on_c, 0, 61, 69
2, 39680, Note_off_c, 0, 61, 0
2, 39720, Note_on_c, 0, 61, 69
2, 39800, Note_off_c, 0, 61, 0
2, 39840, Note_on_c, 0, 61, 70
2, 39920, Note_off_c, 0, 61, 0
2, 39960, Note_on_c, 0, 61, 70
2, 40040, Note_off_c, 0, 61, 0
2, 40080, Note_on_c, 0, 61, 71
2, 40160, Note_off_c, 0, 61, 0
2, 40200, Note_on_c, 0, 61, 71
2, 40280, Note_off_c, 0, 61, 0
2, 40320, Note_on_c, 0, 60, 71
2, 40440, Note_off_c, 0, 60, 0
2, 40440, Note_on_c, 0, 65, 72
2, 40560, Note_off_c, 0, 65, 0
2, 40560, Note_on_c, 0, 69, 72
2, 40680, Note_off_c, 0, 69, 0
2, 40680, Note_on_c, 0, 72, 73
2, 40800, Note_off_c, 0, 72, 0
2, 40800, Note_on_c, 0, 77, 73
2, 40920, Note_off_c, 0, 77, 0
2, 40920, Note_on_c, 0, 81, 73
2, 41040, Note_off_c, 0, 81, 0
2, 41040, Note_on_c, 0, 84, 74
2, 41120, Note_off_c, 0, 84, 0
2, 41160, Note_on_c, 0, 84, 74
2, 41240, Note_off_c, 0, 84, 0
2, 41280, Note_on_c, 0, 84, 75
2, 41360, Note_off_c, 0, 84, 0
2, 41400, Note_on_c, 0, 84, 75
2, 41480, Note_off_c, 0, 84, 0
2, 41520, Note_on_c, 0, 84, 75
2, 41600, Note_off_c, 0, 84, 0
2, 41640, Note_on_c, 0, 84, 76
2, 41720, Note_off_c, 0, 84, 0
2, 41760, Note_on_c, 0, 84, 76
2, 41880, Note_off_c, 0, 84, 0
2, 41880, Note_on_c, 0, 80, 77
2, 42000, Note_off_c, 0, 80, 0
2, 42000, Note_on_c, 0, 77, 77
2, 42120, Note_off_c, 0, 77, 0
2, 42120, Note_on_c, 0, 72, 78
2, 42240, Note_off_c, 0, 72, 0
2, 42240, Note_on_c, 0, 68, 78
2, 42360, Note_off_c, 0, 68, 0
2, 42360, Note_on_c, 0, 65, 78
2, 42480, Note_off_c, 0, 65, 0
2, 42480, Note_on_c, 0, 60, 79
2, 42560, Note_off_c, 0, 60, 0
2, 42600, Note_on_c, 0, 60, 79
2, 42680, Note_off_c, 0, 60, 0
2, 42720, Note_on_c, 0, 60, 80
2, 42800, Note_off_c, 0, 60, 0
2, 42840, Note_on_c, 0, 60, 80
2, 42920, Note_off_c, 0, 60, 0
2, 42960, Note_on_c, 0, 60, 80
2, 43040, Note_off_c, 0, 60, 0
2, 43080, Note_on_c, 0, 60, 81
2, 43160, Note_off_c, 0, 60, 0
2, 43200, Note_on_c, 0, 59, 81
2, 43320, Note_off_c, 0, 59, 0
2, 43320, Note_on_c, 0, 62, 83
2, 43440, Note_off_c, 0, 62, 0
2, 43440, Note_on_c, 0, 67, 85
2, 43560, Note_off_c, 0, 67, 0
2, 43560, Note_on_c, 0, 71, 87
2, 43680, Note_off_c, 0, 71, 0
2, 43680, Note_on_c, 0, 68, 90
2, 43800, Note_off_c, 0, 68, 0
2, 43800, Note_on_c, 0, 71, 92
2, 43920, Note_off_c, 0, 71, 0
2, 43920, Note_on_c, 0, 74, 94
2, 44040, Note_off_c, 0, 74, 0
2, 44040, Note_on_c, 0, 77, 97
2, 44160, Note_off_c, 0, 77, 0
2, 44160, Note_on_c, 0, 80, 99
2, 44280, Note_off_c, 0, 80, 0
2, 44280, Note_on_c, 0, 83, 101
2, 44400, Note_off_c, 0, 83, 0
2, 44400, Note_on_c, 0, 86, 104
2, 44520, Note_off_c, 0, 86, 0
2, 44520, Note_on_c, 0, 89, 106
2, 44640, Control_c, 0, 64, 0
2, 44640, Note_off_c, 0, 89, 0
2, 44640, Note_on_c, 0, 92, 112
2, 44736, Note_on_c, 0, 89, 110
2, 44760, Note_off_c, 0, 92, 0
2, 44832, Note_on_c, 0, 86, 108
2, 44856, Note_off_c, 0, 89, 0
2, 44928, Note_on_c, 0, 83, 106
2, 44952, Note_off_c, 0, 86, 0
2, 45024, Note_on_c, 0, 80, 105
2, 45048, Note_off_c, 0, 83, 0
2, 45120, Note_on_c, 0, 77, 103
2, 45144, Note_off_c, 0, 80, 0
2, 45240, Note_off_c, 0, 77, 0
2, 45240, Note_on_c, 0, 83, 100
2, 45360, Note_off_c, 0, 83, 0
2, 45360, Note_on_c, 0, 86, 98
2, 45480, Note_off_c, 0, 86, 0
2, 45480, Note_on_c, 0, 89, 96
2, 45600, Note_off_c, 0, 89, 0
2, 45600, Note_on_c, 0, 91, 93
2, 45720, Note_off_c, 0, 91, 0
2, 45720, Note_on_c, 0, 86, 91
2, 45840, Note_off_c, 0, 86, 0
2, 45840, Note_on_c, 0, 83, 88
2, 45960, Note_off_c, 0, 83, 0
2, 45960, Note_on_c, 0, 79, 86
2, 46080, Control_c, 0, 64, 0
2, 46080, Note_off_c, 0, 79, 0
2, 46080, Note_on_c, 0, 87, 85
2, 46200, Note_off_c, 0, 87, 0
2, 46200, Note_on_c, 0, 84, 81
2, 46320, Note_off_c, 0, 84, 0
2, 46320, Note_on_c, 0, 79, 77
2, 46440, Note_off_c, 0, 79, 0
2, 46440, Note_on_c, 0, 75, 73
2, 46560, Note_off_c, 0, 75, 0
2, 46560, Note_on_c, 0, 72, 70
2, 46800, Control_c, 0, 64, 0
2, 46800, Note_off_c, 0, 72, 0
2, 47520, Note_on_c, 0, 67, 44
2, 47675, Note_off_c, 0, 67, 0
2, 48000, Note_on_c, 0, 67, 45
2, 48155, Note_off_c, 0, 67, 0
2, 48480, Note_on_c, 0, 67, 46
2, 48635, Note_off_c, 0, 67, 0
2, 48960, Note_on_c, 0, 67, 47
2, 49115, Note_off_c, 0, 67, 0
2, 50400, Note_on_c, 0, 73, 51
2, 50555, Note_off_c, 0, 73, 0
2, 50880, Note_on_c, 0, 73, 52
2, 51035, Note_off_c, 0, 73, 0
2, 51360, Note_on_c, 0, 73, 53
2, 51515, Note_off_c, 0, 73, 0
2, 51840, Note_on_c, 0, 72, 54
2, 51995, Note_off_c, 0, 72, 0
2, 53280, Note_on_c, 0, 72, 58
2, 53435, Note_off_c, 0, 72, 0
2, 53760, Note_on_c, 0, 72, 59
2, 53915, Note_off_c, 0, 72, 0
2, 54240, Note_on_c, 0, 72, 60
2, 54395, Note_off_c, 0, 72, 0
2, 54720, Note_on_c, 0, 72, 61
2, 54875, Note_off_c, 0, 72, 0
2, 55200, Note_on_c, 0, 80, 74
2, 55355, Note_off_c, 0, 80, 0
2, 57120, Note_on_c, 0, 67, 62
2, 57275, Note_off_c, 0, 67, 0
2, 57600, Note_on_c, 0, 67, 59
2, 57755, Note_off_c, 0, 67, 0
2, 58080, Note_on_c, 0, 67, 56
2, 58235, Note_off_c, 0, 67, 0
2, 58560, Note_on_c, 0, 67, 54
2, 58715, Note_off_c, 0, 67, 0
2, 59160, Note_on_c, 0, 67, 56
2, 59240, Note_off_c, 0, 67, 0
2, 59280, Note_on_c, 0, 72, 59
2, 59360, Note_off_c, 0, 72, 0
2, 59400, Note_on_c, 0, 75, 62
2, 59480, Note_off_c, 0, 75, 0
2, 59520, Note_on_c, 0, 79, 65
2, 59675, Note_off_c, 0, 79, 0
2, 59760, Note_on_c, 0, 87, 69
2, 59760, Note_on_c, 0, 75, 69
2, 60000, Note_off_c, 0, 75, 0
2, 60000, Note_off_c, 0, 87, 0
2, 60000, Note_on_c, 0, 83, 65
2, 60000, Note_on_c, 0, 71, 65
2, 60240, Note_off_c, 0, 71, 0
2, 60240, Note_off_c, 0, 83, 0
2, 60240, Note_on_c, 0, 72, 61
2, 60240, Note_on_c, 0, 84, 61
2, 60420, Note_off_c, 0, 72, 0
2, 60427, Note_off_c, 0, 84, 0
2, 60600, Note_on_c, 0, 67, 60
2, 60680, Note_off_c, 0, 67, 0
2, 60720, Note_on_c, 0, 71, 63
2, 60800, Note_off_c, 0, 71, 0
2, 60840, Note_on_c, 0, 74, 66
2, 60920, Note_off_c, 0, 74, 0
2, 60960, Note_on_c, 0, 79, 68
2, 61115, Note_off_c, 0, 79, 0
2, 61200, Note_on_c, 0, 86, 73
2, 61200, Note_on_c, 0, 74, 73
2, 61440, Note_off_c, 0, 74, 0
2, 61440, Note_off_c, 0, 86, 0
2, 61440, Note_on_c, 0, 78, 69
2, 61440, Note_on_c, 0, 66, 69
2, 61680, Note_off_c, 0, 66, 0
2, 61680, Note_off_c, 0, 78, 0
2, 61680, Note_on_c, 0, 67, 64
2, 61680, Note_on_c, 0, 79, 64
2, 61860, Note_off_c, 0, 79, 0
2, 61860, Note_off_c, 0, 67, 0
2, 62040, Note_on_c, 0, 67, 65
2, 62120, Note_off_c, 0, 67, 0
2, 62160, Note_on_c, 0, 73, 67
2, 62240, Note_off_c, 0, 73, 0
2, 62280, Note_on_c, 0, 76, 70
2, 62360, Note_off_c, 0, 76, 0
2, 62400, Note_on_c, 0, 79, 72
2, 62555, Note_off_c, 0, 79, 0
2, 62640, Note_on_c, 0, 76, 75
2, 62640, Note_on_c, 0, 88, 75
2, 62880, Note_off_c, 0, 88, 0
2, 62880, Note_off_c, 0, 76, 0
2, 62880, Note_on_c, 0, 69, 71
2, 62880, Note_on_c, 0, 81, 71
2, 63120, Note_off_c, 0, 81, 0
2, 63120, Note_off_c, 0, 69, 0
2, 63120, Note_on_c, 0, 70, 67
2, 63120, Note_on_c, 0, 82, 67
2, 63300, Note_off_c, 0, 82, 0
2, 63307, Note_off_c, 0, 70, 0
2, 63480, Note_on_c, 0, 69, 68
2, 63560, Note_off_c, 0, 69, 0
2, 63600, Note_on_c, 0, 72, 70
2, 63680, Note_off_c, 0, 72, 0
2, 63720, Note_on_c, 0, 77, 73
2, 63800, Note_off_c, 0, 77, 0
2, 63840, Note_on_c, 0, 81, 75
2, 63995, Note_off_c, 0, 81, 0
2, 64080, Note_on_c, 0, 89, 78
2, 64080, Note_on_c, 0, 77, 78
2, 64320, Note_off_c, 0, 77, 0
2, 64320, Note_off_c, 0, 89, 0
2, 64320, Note_on_c, 0, 83, 75
2, 64320, Note_on_c, 0, 71, 75
2, 64560, Note_off_c, 0, 71, 0
2, 64560, Note_off_c, 0, 83, 0
2, 64560, Note_on_c, 0, 72, 71
2, 64560, Note_on_c, 0, 84, 71
2, 64740, Note_off_c, 0, 84, 0
2, 64747, Note_off_c, 0, 72, 0
2, 64920, Note_on_c, 0, 69, 74
2, 65000, Note_off_c, 0, 69, 0
2, 65040, Note_on_c, 0, 72, 77
2, 65120, Note_off_c, 0, 72, 0
2, 65160, Note_on_c, 0, 78, 80
2, 65240, Note_off_c, 0, 78, 0
2, 65280, Note_on_c, 0, 81, 82
2, 65435, Note_off_c, 0, 81, 0
2, 65520, Note_on_c, 0, 78, 89
2, 65520, Note_on_c, 0, 90, 89
2, 65760, Note_off_c, 0, 90, 0
2, 65760, Note_off_c, 0, 78, 0
2, 65760, Note_on_c, 0, 71, 83
2, 65760, Note_on_c, 0, 83, 83
2, 66000, Note_off_c, 0, 83, 0
2, 66000, Note_off_c, 0, 71, 0
2, 66000, Note_on_c, 0, 72, 80
2, 66000, Note_on_c, 0, 84, 80
2, 66240, Note_off_c, 0, 84, 0
2, 66240, Note_off_c, 0, 72, 0
2, 66240, Note_on_c, 0, 91, 94
2, 66240, Note_on_c, 0, 79, 94
2, 66480, Note_off_c, 0, 79, 0
2, 66480, Note_on_c, 0, 71, 81
2, 66480, Note_on_c, 0, 83, 81
2, 66672, Note_off_c, 0, 91, 0
2, 66720, Note_off_c, 0, 83, 0
2, 66720, Note_off_c, 0, 71, 0
2, 66720, Note_on_c, 0, 84, 78
2, 66720, Note_on_c, 0, 72, 78
2, 66875, Note_off_c, 0, 72, 0
2, 66875, Note_off_c, 0, 84, 0
2, 66960, Note_on_c, 0, 80, 99
2, 66960, Note_on_c, 0, 92, 99
2, 67200, Note_off_c, 0, 92, 0
2, 67200, Note_off_c, 0, 80, 0
2, 67200, Note_on_c, 0, 76, 84
2, 67200, Note_on_c, 0, 88, 84
2, 67440, Note_off_c, 0, 88, 0
2, 67440, Note_off_c, 0, 76, 0
2, 67440, Note_on_c, 0, 77, 80
2, 67440, Note_on_c, 0, 89, 80
2, 67595, Note_off_c, 0, 89, 0
2, 67595, Note_off_c, 0, 77, 0
2, 67920, Note_on_c, 0, 61, 72
2, 68160, Note_off_c, 0, 61, 0
2, 68160, Note_on_c, 0, 58, 61
2, 68400, Note_off_c, 0, 58, 0
2, 68400, Note_on_c, 0, 59, 59
2, 68555, Note_off_c, 0, 59, 0
2, 68880, Note_on_c, 0, 51, 65
2, 69120, Note_off_c, 0, 51, 0
2, 69120, Note_on_c, 0, 47, 54
2, 69360, Note_off_c, 0, 47, 0
2, 69360, Note_on_c, 0, 48, 52
2, 69515, Note_off_c, 0, 48, 0
2, 70560, Note_on_c, 0, 75, 100
2, 70560, Note_on_c, 0, 79, 100
2, 70560, Note_on_c, 0, 84, 100
2, 70560, Note_on_c, 0, 87, 100
2, 70665, Note_off_c, 0, 87, 0
2, 70665, Note_off_c, 0, 84, 0
2, 70665, Note_off_c, 0, 79, 0
2, 70665, Note_off_c, 0, 75, 0
2, 70720, Note_on_c, 0, 79, 100
2, 70720, Note_on_c, 0, 84, 100
2, 70720, Note_on_c, 0, 75, 100
2, 70720, Note_on_c, 0, 87, 100
2, 70825, Note_off_c, 0, 87, 0
2, 70825, Note_off_c, 0, 75, 0
2, 70825, Note_off_c, 0, 84, 0
2, 70825, Note_off_c, 0, 79, 0
2, 70880, Note_on_c, 0, 79, 100
2, 70880, Note_on_c, 0, 84, 100
2, 70880, Note_on_c, 0, 75, 100
2, 70880, Note_on_c, 0, 87, 100
2, 70985, Note_off_c, 0, 87, 0
2, 70985, Note_off_c, 0, 75, 0
2, 70985, Note_off_c, 0, 84, 0
2, 70985, Note_off_c, 0, 79, 0
2, 71040, Note_on_c, 0, 79, 100
2, 71040, Note_on_c, 0, 84, 100
2, 71040, Note_on_c, 0, 75, 100
2, 71040, Note_on_c, 0, 87, 100
2, 71145, Note_off_c, 0, 87, 0
2, 71145, Note_off_c, 0, 75, 0
2, 71145, Note_off_c, 0, 84, 0
2, 71145, Note_off_c, 0, 79, 0
2, 71200, Control_c, 0, 64, 0
2, 71200, Note_on_c, 0, 60, 79
2, 71305, Note_off_c, 0, 60, 0
2, 71360, Note_on_c, 0, 63, 79
2, 71465, Note_off_c, 0, 63, 0
2, 71520, Note_on_c, 0, 67, 95
2, 71625, Note_off_c, 0, 67, 0
2, 71680, Note_on_c, 0, 63, 79
2, 71785, Note_off_c, 0, 63, 0
2, 71840, Note_on_c, 0, 67, 79
2, 71945, Note_off_c, 0, 67, 0
2, 72000, Note_on_c, 0, 62, 95
2, 72105, Note_off_c, 0, 62, 0
2, 72160, Note_on_c, 0, 67, 79
2, 72265, Note_off_c, 0, 67, 0
2, 72320, Note_on_c, 0, 62, 79
2, 72425, Note_off_c, 0, 62, 0
2, 72480, Note_on_c, 0, 71, 95
2, 72585, Note_off_c, 0, 71, 0
2, 72640, Note_on_c, 0, 67, 79
2, 72745, Note_off_c, 0, 67, 0
2, 72800, Note_on_c, 0, 71, 79
2, 72905, Note_off_c, 0, 71, 0
2, 72960, Note_on_c, 0, 67, 95
2, 73065, Note_off_c, 0, 67, 0
2, 73120, Note_on_c, 0, 74, 77
2, 73225, Note_off_c, 0, 74, 0
2, 73280, Note_on_c, 0, 67, 75
2, 73385, Note_off_c, 0, 67, 0
2, 73440, Note_on_c, 0, 64, 74
2, 73545, Note_off_c, 0, 64, 0
2, 73600, Note_on_c, 0, 67, 74
2, 73705, Note_off_c, 0, 67, 0
2, 73760, Note_on_c, 0, 64, 75
2, 73865, Note_off_c, 0, 64, 0
2, 73920, Note_on_c, 0, 73, 76
2, 74025, Note_off_c, 0, 73, 0
2, 74080, Note_on_c, 0, 67, 76
2, 74185, Note_off_c, 0, 67, 0
2, 74240, Note_on_c, 0, 73, 77
2, 74345, Note_off_c, 0, 73, 0
2, 74400, Note_on_c, 0, 67, 78
2, 74505, Note_off_c, 0, 67, 0
2, 74560, Note_on_c, 0, 76, 78
2, 74665, Note_off_c, 0, 76, 0
2, 74720, Note_on_c, 0, 67, 79
2, 74825, Note_off_c, 0, 67, 0
2, 74880, Note_on_c, 0, 65, 79
2, 74985, Note_off_c, 0, 65, 0
2, 75040, Note_on_c, 0, 69, 76
2, 75145, Note_off_c, 0, 69, 0
2, 75200, Note_on_c, 0, 65, 75
2, 75305, Note_off_c, 0, 65, 0
2, 75360, Note_on_c, 0, 72, 73
2, 75465, Note_off_c, 0, 72, 0
2, 75520, Note_on_c, 0, 69, 71
2, 75625, Note_off_c, 0, 69, 0
2, 75680, Note_on_c, 0, 72, 69
2, 75785, Note_off_c, 0, 72, 0
2, 75840, Note_on_c, 0, 69, 68
2, 75945, Note_off_c, 0, 69, 0
2, 76000, Note_on_c, 0, 77, 66
2, 76105, Note_off_c, 0, 77, 0
2, 76160, Note_on_c, 0, 69, 64
2, 76265, Note_off_c, 0, 69, 0
2, 76320, Note_on_c, 0, 66, 64
2, 76425, Note_off_c, 0, 66, 0
2, 76480, Note_on_c, 0, 72, 65
2, 76585, Note_off_c, 0, 72, 0
2, 76640, Note_on_c, 0, 66, 67
2, 76745, Note_off_c, 0, 66, 0
2, 76800, Note_on_c, 0, 75, 69
2, 76905, Note_off_c, 0, 75, 0
2, 76960, Note_on_c, 0, 66, 70
2, 77065, Note_off_c, 0, 66, 0
2, 77120, Note_on_c, 0, 75, 72
2, 77225, Note_off_c, 0, 75, 0
2, 77280, Note_on_c, 0, 72, 74
2, 77385, Note_off_c, 0, 72, 0
2, 77440, Note_on_c, 0, 78, 75
2, 77545, Note_off_c, 0, 78, 0
2, 77600, Note_on_c, 0, 72, 77
2, 77705, Note_off_c, 0, 72, 0
2, 77760, Note_on_c, 0, 79, 79
2, 77865, Note_off_c, 0, 79, 0
2, 77920, Note_on_c, 0, 71, 80
2, 78025, Note_off_c, 0, 71, 0
2, 78080, Note_on_c, 0, 80, 82
2, 78185, Note_off_c, 0, 80, 0
2, 78240, Note_on_c, 0, 74, 84
2, 78345, Note_off_c, 0, 74, 0
2, 78400, Note_on_c, 0, 83, 85
2, 78505, Note_off_c, 0, 83, 0
2, 78560, Note_on_c, 0, 77, 87
2, 78665, Note_off_c, 0, 77, 0
2, 78720, Note_on_c, 0, 86, 88
2, 78825, Note_off_c, 0, 86, 0
2, 78880, Note_on_c, 0, 80, 90
2, 78985, Note_off_c, 0, 80, 0
2, 79040, Note_on_c, 0, 89, 92
2, 79145, Note_off_c, 0, 89, 0
2, 79200, Note_on_c, 0, 83, 93
2, 79305, Note_off_c, 0, 83, 0
2, 79360, Note_on_c, 0, 92, 94
2, 79465, Note_off_c, 0, 92, 0
2, 79520, Note_on_c, 0, 91, 91
2, 79625, Note_off_c, 0, 91, 0
2, 79680, Note_on_c, 0, 89, 87
2, 79785, Note_off_c, 0, 89, 0
2, 79840, Note_on_c, 0, 86, 84
2, 79945, Note_off_c, 0, 86, 0
2, 80000, Note_on_c, 0, 87, 81
2, 80105, Note_off_c, 0, 87, 0
2, 80160, Note_on_c, 0, 80, 77
2, 80265, Note_off_c, 0, 80, 0
2, 80320, Note_on_c, 0, 77, 74
2, 80425, Note_off_c, 0, 77, 0
2, 80480, Note_on_c, 0, 79, 70
2, 80585, Note_off_c, 0, 79, 0
2, 80640, Note_on_c, 0, 72, 67
2, 80795, Note_off_c, 0, 72, 0
2, 82320, Note_on_c, 0, 79, 68
2, 82320, Note_on_c, 0, 67, 68
2, 82560, Note_off_c, 0, 67, 0
2, 82560, Note_off_c, 0, 79, 0
2, 82560, Note_on_c, 0, 65, 62
2, 82560, Note_on_c, 0, 77, 62
2, 82800, Note_off_c, 0, 77, 0
2, 82800, Note_off_c, 0, 65, 0
2, 82800, Note_on_c, 0, 75, 61
2, 82800, Note_on_c, 0, 63, 61
2, 83040, Note_off_c, 0, 63, 0
2, 83040, Note_off_c, 0, 75, 0
2, 83040, Note_on_c, 0, 74, 60
2, 83040, Note_on_c, 0, 62, 60
2, 83280, Note_off_c, 0, 62, 0
2, 83280, Note_off_c, 0, 74, 0
2, 83280, Note_on_c, 0, 72, 59
2, 83280, Note_on_c, 0, 60, 59
2, 83520, Note_off_c, 0, 60, 0
2, 83520, Note_off_c, 0, 72, 0
2, 83760, Note_on_c, 0, 86, 71
2, 83760, Note_on_c, 0, 74, 71
2, 84000, Note_off_c, 0, 74, 0
2, 84000, Note_off_c, 0, 86, 0
2, 84000, Note_on_c, 0, 84, 64
2, 84000, Note_on_c, 0, 72, 64
2, 84240, Note_off_c, 0, 72, 0
2, 84240, Note_off_c, 0, 84, 0
2, 84240, Note_on_c, 0, 71, 62
2, 84240, Note_on_c, 0, 83, 62
2, 84480, Note_off_c, 0, 83, 0
2, 84480, Note_off_c, 0, 71, 0
2, 84480, Note_on_c, 0, 81, 61
2, 84480, Note_on_c, 0, 69, 61
2, 84720, Note_off_c, 0, 69, 0
2, 84720, Note_off_c, 0, 81, 0
2, 84720, Note_on_c, 0, 79, 59
2, 84720, Note_on_c, 0, 67, 59
2, 84960, Note_off_c, 0, 67, 0
2, 84960, Note_off_c, 0, 79, 0
2, 85200, Note_on_c, 0, 85, 72
2, 85200, Note_on_c, 0, 73, 72
2, 85440, Note_off_c, 0, 73, 0
2, 85440, Note_off_c, 0, 85, 0
2, 85440, Note_on_c, 0, 84, 67
2, 85440, Note_on_c, 0, 72, 67
2, 85680, Note_off_c, 0, 72, 0
2, 85680, Note_off_c, 0, 84, 0
2, 85680, Note_on_c, 0, 70, 66
2, 85680, Note_on_c, 0, 82, 66
2, 85920, Note_off_c, 0, 82, 0
2, 85920, Note_off_c, 0, 70, 0
2, 85920, Note_on_c, 0, 69, 64
2, 85920, Note_on_c, 0, 81, 64
2, 86160, Note_off_c, 0, 81, 0
2, 86160, Note_off_c, 0, 69, 0
2, 86160, Note_on_c, 0, 79, 63
2, 86160, Note_on_c, 0, 67, 63
2, 86400, Note_off_c, 0, 67, 0
2, 86400, Note_off_c, 0, 79, 0
2, 86640, Note_on_c, 0, 84, 74
2, 86640, Note_on_c, 0, 72, 74
2, 86880, Note_off_c, 0, 72, 0
2, 86880, Note_off_c, 0, 84, 0
2, 86880, Note_on_c, 0, 70, 69
2, 86880, Note_on_c, 0, 82, 69
2, 87120, Note_off_c, 0, 82, 0
2, 87120, Note_off_c, 0, 70, 0
2, 87120, Note_on_c, 0, 69, 67
2, 87120, Note_on_c, 0, 81, 67
2, 87360, Note_off_c, 0, 81, 0
2, 87360, Note_off_c, 0, 69, 0
2, 87360, Note_on_c, 0, 67, 66
2, 87360, Note_on_c, 0, 79, 66
2, 87600, Note_off_c, 0, 79, 0
2, 87600, Note_off_c, 0, 67, 0
2, 87600, Note_on_c, 0, 77, 64
2, 87600, Note_on_c, 0, 65, 64
2, 87840, Note_off_c, 0, 65, 0
2, 87840, Note_off_c, 0, 77, 0
2, 88080, Note_on_c, 0, 75, 79
2, 88080, Note_on_c, 0, 87, 79
2, 88320, Note_off_c, 0, 87, 0
2, 88320, Note_off_c, 0, 75, 0
2, 88320, Note_on_c, 0, 86, 73
2, 88320, Note_on_c, 0, 74, 73
2, 88560, Note_off_c, 0, 74, 0
2, 88560, Note_off_c, 0, 86, 0
2, 88560, Note_on_c, 0, 84, 72
2, 88560, Note_on_c, 0, 72, 72
2, 88800, Note_off_c, 0, 72, 0
2, 88800, Note_off_c, 0, 84, 0
2, 88800, Note_on_c, 0, 71, 70
2, 88800, Note_on_c, 0, 83, 70
2, 89040, Note_off_c, 0, 83, 0
2, 89040, Note_off_c, 0, 71, 0
2, 89040, Note_on_c, 0, 81, 69
2, 89040, Note_on_c, 0, 69, 69
2, 89280, Note_off_c, 0, 69, 0
2, 89280, Note_off_c, 0, 81, 0
2, 89280, Note_on_c, 0, 83, 68
2, 89280, Note_on_c, 0, 71, 68
2, 89435, Note_off_c, 0, 71, 0
2, 89435, Note_off_c, 0, 83, 0
2, 89520, Note_on_c, 0, 92, 93
2, 89520, Note_on_c, 0, 80, 93
2, 90000, Note_off_c, 0, 80, 0
2, 90000, Note_off_c, 0, 92, 0
2, 90000, Note_on_c, 0, 91, 88
2, 90000, Note_on_c, 0, 79, 88
2, 90240, Note_off_c, 0, 79, 0
2, 90240, Note_off_c, 0, 91, 0
2, 90240, Note_on_c, 0, 77, 85
2, 90240, Note_on_c, 0, 89, 85
2, 90480, Note_off_c, 0, 89, 0
2, 90480, Note_off_c, 0, 77, 0
2, 90480, Note_on_c, 0, 91, 83
2, 90480, Note_on_c, 0, 79, 83
2, 90720, Note_off_c, 0, 79, 0
2, 90720, Note_off_c, 0, 91, 0
2, 90720, Note_on_c, 0, 92, 80
2, 90720, Note_on_c, 0, 80, 80
2, 90960, Note_off_c, 0, 80, 0
2, 90960, Note_off_c, 0, 92, 0
2, 90960, Note_on_c, 0, 91, 78
2, 90960, Note_on_c, 0, 79, 78
2, 91200, Note_off_c, 0, 79, 0
2, 91200, Note_off_c, 0, 91, 0
2, 91200, Note_on_c, 0, 89, 75
2, 91200, Note_on_c, 0, 77, 75
2, 91440, Note_off_c, 0, 77, 0
2, 91440, Note_off_c, 0, 89, 0
2, 91440, Note_on_c, 0, 92, 73
2, 91440, Note_on_c, 0, 80, 73
2, 91680, Note_off_c, 0, 80, 0
2, 91680, Note_off_c, 0, 92, 0
2, 91680, Note_on_c, 0, 91, 70
2, 91680, Note_on_c, 0, 79, 70
2, 91920, Note_off_c, 0, 79, 0
2, 91920, Note_off_c, 0, 91, 0
2, 91920, Note_on_c, 0, 77, 68
2, 91920, Note_on_c, 0, 89, 68
2, 92160, Note_off_c, 0, 89, 0
2, 92160, Note_off_c, 0, 77, 0
2, 92160, Note_on_c, 0, 75, 65
2, 92160, Note_on_c, 0, 87, 65
2, 92400, Note_off_c, 0, 87, 0
2, 92400, Note_off_c, 0, 75, 0
2, 92400, Note_on_c, 0, 74, 63
2, 92400, Note_on_c, 0, 86, 63
2, 92640, Note_off_c, 0, 86, 0
2, 92640, Note_off_c, 0, 74, 0
2, 92640, Note_on_c, 0, 84, 60
2, 92640, Note_on_c, 0, 72, 60
2, 92880, Note_off_c, 0, 72, 0
2, 92880, Note_off_c, 0, 84, 0
2, 92880, Note_on_c, 0, 71, 58
2, 92880, Note_on_c, 0, 83, 58
2, 93120, Note_off_c, 0, 83, 0
2, 93120, Note_off_c, 0, 71, 0
2, 93120, Note_on_c, 0, 84, 55
2, 93120, Note_on_c, 0, 72, 55
2, 93275, Note_off_c, 0, 72, 0
2, 93275, Note_off_c, 0, 84, 0
2, 93720, Note_on_c, 0, 67, 51
2, 93720, Note_on_c, 0, 63, 51
2, 93840, Note_off_c, 0, 63, 0
2, 93840, Note_off_c, 0, 67, 0
2, 93840, Note_on_c, 0, 72, 53
2, 93840, Note_on_c, 0, 60, 53
2, 93960, Note_off_c, 0, 60, 0
2, 93960, Note_off_c, 0, 72, 0
2, 93960, Note_on_c, 0, 63, 54
2, 93960, Note_on_c, 0, 67, 54
2, 94055, Note_off_c, 0, 67, 0
2, 94055, Note_off_c, 0, 63, 0
2, 94080, Note_on_c, 0, 75, 55
2, 94080, Note_on_c, 0, 63, 55
2, 94200, Note_off_c, 0, 63, 0
2, 94200, Note_off_c, 0, 75, 0
2, 94200, Note_on_c, 0, 67, 56
2, 94200, Note_on_c, 0, 72, 56
2, 94295, Note_off_c, 0, 72, 0
2, 94295, Note_off_c, 0, 67, 0
2, 94320, Note_on_c, 0, 79, 57
2, 94320, Note_on_c, 0, 67, 57
2, 94440, Note_off_c, 0, 67, 0
2, 94440, Note_off_c, 0, 79, 0
2, 94440, Note_on_c, 0, 72, 58
2, 94440, Note_on_c, 0, 75, 58
2, 94535, Note_off_c, 0, 75, 0
2, 94535, Note_off_c, 0, 72, 0
2, 94560, Note_on_c, 0, 84, 59
2, 94560, Note_on_c, 0, 72, 59
2, 94680, Note_off_c, 0, 72, 0
2, 94680, Note_off_c, 0, 84, 0
2, 94680, Note_on_c, 0, 79, 60
2, 94680, Note_on_c, 0, 75, 60
2, 94775, Note_off_c, 0, 75, 0
2, 94775, Note_off_c, 0, 79, 0
2, 94800, Note_on_c, 0, 87, 61
2, 94800, Note_on_c, 0, 75, 61
2, 94920, Note_off_c, 0, 75, 0
2, 94920, Note_off_c, 0, 87, 0
2, 94920, Note_on_c, 0, 79, 63
2, 94920, Note_on_c, 0, 84, 63
2, 95015, Note_off_c, 0, 84, 0
2, 95015, Note_off_c, 0, 79, 0
2, 95040, Note_on_c, 0, 74, 67
2, 95040, Note_on_c, 0, 86, 67
2, 95160, Note_off_c, 0, 86, 0
2, 95160, Note_off_c, 0, 74, 0
2, 95160, Note_on_c, 0, 83, 66
2, 95160, Note_on_c, 0, 79, 66
2, 95255, Note_off_c, 0, 79, 0
2, 95255, Note_off_c, 0, 83, 0
2, 95280, Note_on_c, 0, 83, 64
2, 95280, Note_on_c, 0, 71, 64
2, 95400, Note_off_c, 0, 71, 0
2, 95400, Note_off_c, 0, 83, 0
2, 95400, Note_on_c, 0, 74, 63
2, 95400, Note_on_c, 0, 79, 63
2, 95495, Note_off_c, 0, 79, 0
2, 95495, Note_off_c, 0, 74, 0
2, 95520, Note_on_c, 0, 79, 62
2, 95520, Note_on_c, 0, 67, 62
2, 95640, Note_off_c, 0, 67, 0
2, 95640, Note_off_c, 0, 79, 0
2, 95640, Note_on_c, 0, 74, 61
2, 95640, Note_on_c, 0, 71, 61
2, 95735, Note_off_c, 0, 71, 0
2, 95735, Note_off_c, 0, 74, 0
2, 95760, Note_on_c, 0, 74, 59
2, 95760, Note_on_c, 0, 62, 59
2, 95880, Note_off_c, 0, 62, 0
2, 95880, Note_off_c, 0, 74, 0
2, 95880, Note_on_c, 0, 71, 58
2, 95880, Note_on_c, 0, 67, 58
2, 95975, Note_off_c, 0, 67, 0
2, 95975, Note_off_c, 0, 71, 0
2, 96000, Note_on_c, 0, 71, 57
2, 96000, Note_on_c, 0, 59, 57
2, 96120, Note_off_c, 0, 59, 0
2, 96120, Note_off_c, 0, 71, 0
2, 96120, Note_on_c, 0, 67, 55
2, 96120, Note_on_c, 0, 62, 55
2, 96215, Note_off_c, 0, 62, 0
2, 96215, Note_off_c, 0, 67, 0
2, 96240, Note_on_c, 0, 67, 54
2, 96240, Note_on_c, 0, 55, 54
2, 96360, Note_off_c, 0, 55, 0
2, 96360, Note_off_c, 0, 67, 0
2, 96360, Note_on_c, 0, 59, 53
2, 96360, Note_on_c, 0, 62, 53
2, 96455, Note_off_c, 0, 62, 0
2, 96455, Note_off_c, 0, 59, 0
2, 96600, Note_on_c, 0, 67, 53
2, 96600, Note_on_c, 0, 70, 53
2, 96720, Note_off_c, 0, 70, 0
2, 96720, Note_off_c, 0, 67, 0
2, 96720, Note_on_c, 0, 76, 55
2, 96720, Note_on_c, 0, 64, 55
2, 96840, Note_off_c, 0, 64, 0
2, 96840, Note_off_c, 0, 76, 0
2, 96840, Note_on_c, 0, 67, 57
2, 96840, Note_on_c, 0, 70, 57
2, 96935, Note_off_c, 0, 70, 0
2, 96935, Note_off_c, 0, 67, 0
2, 96960, Note_on_c, 0, 79, 58
2, 96960, Note_on_c, 0, 67, 58
2, 97080, Note_off_c, 0, 67, 0
2, 97080, Note_off_c, 0, 79, 0
2, 97080, Note_on_c, 0, 76, 60
2, 97080, Note_on_c, 0, 70, 60
2, 97175, Note_off_c, 0, 70, 0
2, 97175, Note_off_c, 0, 76, 0
2, 97200, Note_on_c, 0, 82, 62
2, 97200, Note_on_c, 0, 70, 62
2, 97320, Note_off_c, 0, 70, 0
2, 97320, Note_off_c, 0, 82, 0
2, 97320, Note_on_c, 0, 76, 64
2, 97320, Note_on_c, 0, 79, 64
2, 97415, Note_off_c, 0, 79, 0
2, 97415, Note_off_c, 0, 76, 0
2, 97440, Note_on_c, 0, 88, 66
2, 97440, Note_on_c, 0, 76, 66
2, 97560, Note_off_c, 0, 76, 0
2, 97560, Note_off_c, 0, 88, 0
2, 97560, Note_on_c, 0, 79, 68
2, 97560, Note_on_c, 0, 82, 68
2, 97655, Note_off_c, 0, 82, 0
2, 97655, Note_off_c, 0, 79, 0
2, 97680, Note_on_c, 0, 79, 69
2, 97800, Note_off_c, 0, 79, 0
2, 97800, Note_on_c, 0, 88, 71
2, 97800, Note_on_c, 0, 82, 71
2, 97895, Note_off_c, 0, 82, 0
2, 97895, Note_off_c, 0, 88, 0
2, 97920, Note_on_c, 0, 77, 73
2, 97920, Note_on_c, 0, 89, 73
2, 98040, Note_off_c, 0, 89, 0
2, 98040, Note_off_c, 0, 77, 0
2, 98040, Note_on_c, 0, 81, 71
2, 98040, Note_on_c, 0, 84, 71
2, 98135, Note_off_c, 0, 84, 0
2, 98135, Note_off_c, 0, 81, 0
2, 98160, Note_on_c, 0, 84, 69
2, 98160, Note_on_c, 0, 72, 69
2, 98280, Note_off_c, 0, 72, 0
2, 98280, Note_off_c, 0, 84, 0
2, 98280, Note_on_c, 0, 77, 68
2, 98280, Note_on_c, 0, 81, 68
2, 98375, Note_off_c, 0, 81, 0
2, 98375, Note_off_c, 0, 77, 0
2, 98400, Note_on_c, 0, 81, 67
2, 98400, Note_on_c, 0, 69, 67
2, 98520, Note_off_c, 0, 69, 0
2, 98520, Note_off_c, 0, 81, 0
2, 98520, Note_on_c, 0, 72, 65
2, 98520, Note_on_c, 0, 77, 65
2, 98615, Note_off_c, 0, 77, 0
2, 98615, Note_off_c, 0, 72, 0
2, 98640, Note_on_c, 0, 77, 64
2, 98640, Note_on_c, 0, 65, 64
2, 98760, Note_off_c, 0, 65, 0
2, 98760, Note_off_c, 0, 77, 0
2, 98760, Note_on_c, 0, 69, 63
2, 98760, Note_on_c, 0, 72, 63
2, 98855, Note_off_c, 0, 72, 0
2, 98855, Note_off_c, 0, 69, 0
2, 98880, Note_on_c, 0, 72, 61
2, 98880, Note_on_c, 0, 60, 61
2, 99000, Note_off_c, 0, 60, 0
2, 99000, Note_off_c, 0, 72, 0
2, 99000, Note_on_c, 0, 65, 60
2, 99000, Note_on_c, 0, 69, 60
2, 99095, Note_off_c, 0, 69, 0
2, 99095, Note_off_c, 0, 65, 0
2, 99120, Note_on_c, 0, 69, 59
2, 99120, Note_on_c, 0, 57, 59
2, 99240, Note_off_c, 0, 57, 0
2, 99240, Note_off_c, 0, 69, 0
2, 99240, Note_on_c, 0, 65, 57
2, 99240, Note_on_c, 0, 60, 57
2, 99335, Note_off_c, 0, 60, 0
2, 99335, Note_off_c, 0, 65, 0
2, 99480, Note_on_c, 0, 66, 64
2, 99480, Note_on_c, 0, 69, 64
2, 99600, Note_off_c, 0, 69, 0
2, 99600, Note_off_c, 0, 66, 0
2, 99600, Note_on_c, 0, 60, 67
2, 99600, Note_on_c, 0, 72, 67
2, 99720, Note_off_c, 0, 72, 0
2, 99720, Note_off_c, 0, 60, 0
2, 99720, Note_on_c, 0, 69, 69
2, 99720, Note_on_c, 0, 66, 69
2, 99815, Note_off_c, 0, 66, 0
2, 99815, Note_off_c, 0, 69, 0
2, 99840, Note_on_c, 0, 78, 71
2, 99840, Note_on_c, 0, 66, 71
2, 99960, Note_off_c, 0, 66, 0
2, 99960, Note_off_c, 0, 78, 0
2, 99960, Note_on_c, 0, 72, 73
2, 99960, Note_on_c, 0, 69, 73
2, 100055, Note_off_c, 0, 69, 0
2, 100055, Note_off_c, 0, 72, 0
2, 100080, Note_on_c, 0, 81, 75
2, 100080, Note_on_c, 0, 69, 75
2, 100200, Note_off_c, 0, 69, 0
2, 100200, Note_off_c, 0, 81, 0
2, 100200, Note_on_c, 0, 72, 77
2, 100200, Note_on_c, 0, 78, 77
2, 100295, Note_off_c, 0, 78, 0
2, 100295, Note_off_c, 0, 72, 0
2, 100320, Note_on_c, 0, 84, 79
2, 100320, Note_on_c, 0, 72, 79
2, 100440, Note_off_c, 0, 72, 0
2, 100440, Note_off_c, 0, 84, 0
2, 100440, Note_on_c, 0, 81, 81
2, 100440, Note_on_c, 0, 78, 81
2, 100535, Note_off_c, 0, 78, 0
2, 100535, Note_off_c, 0, 81, 0
2, 100560, Note_on_c, 0, 90, 83
2, 100560, Note_on_c, 0, 78, 83
2, 100680, Note_off_c, 0, 78, 0
2, 100680, Note_off_c, 0, 90, 0
2, 100680, Note_on_c, 0, 81, 85
2, 100680, Note_on_c, 0, 84, 85
2, 100775, Note_off_c, 0, 84, 0
2, 100775, Note_off_c, 0, 81, 0
2, 100800, Note_on_c, 0, 91, 87
2, 100800, Note_on_c, 0, 79, 87
2, 100920, Note_off_c, 0, 79, 0
2, 100920, Note_off_c, 0, 91, 0
2, 100920, Note_on_c, 0, 86, 89
2, 100920, Note_on_c, 0, 83, 89
2, 101015, Note_off_c, 0, 83, 0
2, 101015, Note_off_c, 0, 86, 0
2, 101040, Note_on_c, 0, 92, 91
2, 101040, Note_on_c, 0, 80, 91
2, 101160, Note_off_c, 0, 80, 0
2, 101160, Note_off_c, 0, 92, 0
2, 101160, Note_on_c, 0, 86, 90
2, 101160, Note_on_c, 0, 83, 90
2, 101255, Note_off_c, 0, 83, 0
2, 101255, Note_off_c, 0, 86, 0
2, 101280, Note_on_c, 0, 92, 88
2, 101280, Note_on_c, 0, 80, 88
2, 101400, Note_off_c, 0, 80, 0
2, 101400, Note_off_c, 0, 92, 0
2, 101400, Note_on_c, 0, 86, 87
2, 101400, Note_on_c, 0, 83, 87
2, 101495, Note_off_c, 0, 83, 0
2, 101495, Note_off_c, 0, 86, 0
2, 101520, Note_on_c, 0, 91, 85
2, 101520, Note_on_c, 0, 79, 85
2, 101640, Note_off_c, 0, 79, 0
2, 101640, Note_off_c, 0, 91, 0
2, 101640, Note_on_c, 0, 86, 84
2, 101640, Note_on_c, 0, 83, 84
2, 101735, Note_off_c, 0, 83, 0
2, 101735, Note_off_c, 0, 86, 0
2, 101760, Note_on_c, 0, 77, 82
2, 101760, Note_on_c, 0, 89, 82
2, 101880, Note_off_c, 0, 89, 0
2, 101880, Note_off_c, 0, 77, 0
2, 101880, Note_on_c, 0, 86, 80
2, 101880, Note_on_c, 0, 83, 80
2, 101975, Note_off_c, 0, 83, 0
2, 101975, Note_off_c, 0, 86, 0
2, 102000, Note_on_c, 0, 91, 79
2, 102000, Note_on_c, 0, 79, 79
2, 102120, Note_off_c, 0, 79, 0
2, 102120, Note_off_c, 0, 91, 0
2, 102120, Note_on_c, 0, 86, 77
2, 102120, Note_on_c, 0, 83, 77
2, 102215, Note_off_c, 0, 83, 0
2, 102215, Note_off_c, 0, 86, 0
2, 102240, Note_on_c, 0, 92, 76
2, 102240, Note_on_c, 0, 80, 76
2, 102360, Note_off_c, 0, 80, 0
2, 102360, Note_off_c, 0, 92, 0
2, 102360, Note_on_c, 0, 86, 74
2, 102360, Note_on_c, 0, 83, 74
2, 102455, Note_off_c, 0, 83, 0
2, 102455, Note_off_c, 0, 86, 0
2, 102480, Note_on_c, 0, 91, 73
2, 102480, Note_on_c, 0, 79, 73
2, 102600, Note_off_c, 0, 79, 0
2, 102600, Note_off_c, 0, 91, 0
2, 102600, Note_on_c, 0, 86, 73
2, 102600, Note_on_c, 0, 83, 73
2, 102695, Note_off_c, 0, 83, 0
2, 102695, Note_off_c, 0, 86, 0
2, 102720, Note_on_c, 0, 77, 71
2, 102720, Note_on_c, 0, 89, 71
2, 102840, Note_off_c, 0, 89, 0
2, 102840, Note_off_c, 0, 77, 0
2, 102840, Note_on_c, 0, 86, 70
2, 102840, Note_on_c, 0, 83, 70
2, 102935, Note_off_c, 0, 83, 0
2, 102935, Note_off_c, 0, 86, 0
2, 102960, Note_on_c, 0, 92, 69
2, 102960, Note_on_c, 0, 80, 69
2, 103080, Note_off_c, 0, 80, 0
2, 103080, Note_off_c, 0, 92, 0
2, 103080, Note_on_c, 0, 86, 68
2, 103080, Note_on_c, 0, 83, 68
2, 103175, Note_off_c, 0, 83, 0
2, 103175, Note_off_c, 0, 86, 0
2, 103200, Note_on_c, 0, 91, 66
2, 103200, Note_on_c, 0, 79, 66
2, 103320, Note_off_c, 0, 79, 0
2, 103320, Note_off_c, 0, 91, 0
2, 103320, Note_on_c, 0, 86, 65
2, 103320, Note_on_c, 0, 83, 65
2, 103415, Note_off_c, 0, 83, 0
2, 103415, Note_off_c, 0, 86, 0
2, 103440, Note_on_c, 0, 77, 64
2, 103440, Note_on_c, 0, 89, 64
2, 103560, Note_off_c, 0, 89, 0
2, 103560, Note_off_c, 0, 77, 0
2, 103560, Note_on_c, 0, 79, 63
2, 103560, Note_on_c, 0, 86, 63
2, 103655, Note_off_c, 0, 86, 0
2, 103655, Note_off_c, 0, 79, 0
2, 103680, Note_on_c, 0, 87, 61
2, 103680, Note_on_c, 0, 75, 61
2, 103800, Note_off_c, 0, 75, 0
2, 103800, Note_off_c, 0, 87, 0
2, 103800, Note_on_c, 0, 84, 60
2, 103800, Note_on_c, 0, 79, 60
2, 103895, Note_off_c, 0, 79, 0
2, 103895, Note_off_c, 0, 84, 0
2, 103920, Note_on_c, 0, 86, 59
2, 103920, Note_on_c, 0, 74, 59
2, 104040, Note_off_c, 0, 74, 0
2, 104040, Note_off_c, 0, 86, 0
2, 104040, Note_on_c, 0, 79, 58
2, 104040, Note_on_c, 0, 77, 58
2, 104135, Note_off_c, 0, 77, 0
2, 104135, Note_off_c, 0, 79, 0
2, 104160, Note_on_c, 0, 84, 57
2, 104160, Note_on_c, 0, 72, 57
2, 104280, Note_off_c, 0, 72, 0
2, 104280, Note_off_c, 0, 84, 0
2, 104280, Note_on_c, 0, 75, 55
2, 104280, Note_on_c, 0, 79, 55
2, 104375, Note_off_c, 0, 79, 0
2, 104375, Note_off_c, 0, 75, 0
2, 104400, Note_on_c, 0, 83, 54
2, 104400, Note_on_c, 0, 71, 54
2, 104520, Note_off_c, 0, 71, 0
2, 104520, Note_off_c, 0, 83, 0
2, 104520, Note_on_c, 0, 74, 53
2, 104520, Note_on_c, 0, 79, 53
2, 104615, Note_off_c, 0, 79, 0
2, 104615, Note_off_c, 0, 74, 0
2, 104640, Note_on_c, 0, 79, 42
2, 104640, Note_on_c, 0, 72, 42
2, 104640, Note_on_c, 0, 84, 45
2, 104640, Note_on_c, 0, 75, 42
2, 104880, Note_off_c, 0, 75, 0
2, 104880, Note_off_c, 0, 84, 0
2, 104880, Note_off_c, 0, 79, 0
2, 104883, Note_off_c, 0, 72, 0
2, 105600, Note_on_c, 0, 75, 53
2, 106080, Note_off_c, 0, 75, 0
2, 106080, Note_on_c, 0, 72, 54
2, 106320, Note_off_c, 0, 72, 0
2, 107040, Note_on_c, 0, 74, 57
2, 107520, Note_off_c, 0, 74, 0
2, 107520, Note_on_c, 0, 79, 58
2, 107760, Note_off_c, 0, 79, 0
2, 108480, Note_on_c, 0, 75, 60
2, 108960, Note_off_c, 0, 75, 0
2, 108960, Note_on_c, 0, 76, 62
2, 109200, Note_off_c, 0, 76, 0
2, 109920, Note_on_c, 0, 76, 64
2, 110400, Note_off_c, 0, 76, 0
2, 110400, Note_on_c, 0, 77, 66
2, 110640, Note_off_c, 0, 77, 0
2, 111360, Note_on_c, 0, 77, 69
2, 111786, Note_off_c, 0, 77, 0
2, 111840, Note_on_c, 0, 78, 77
2, 112266, Note_off_c, 0, 78, 0
2, 112320, Note_on_c, 0, 79, 86
2, 112746, Note_off_c, 0, 79, 0
2, 112800, Note_on_c, 0, 80, 95
2, 114240, Note_off_c, 0, 80, 0
2, 114240, Note_on_c, 0, 77, 81
2, 114648, Note_off_c, 0, 77, 0
2, 114720, Note_on_c, 0, 79, 72
2, 115128, Note_off_c, 0, 79, 0
2, 115200, Note_on_c, 0, 79, 64
2, 115440, Note_off_c, 0, 79, 0
2, 116880, Note_on_c, 0, 67, 68
2, 116880, Note_on_c, 0, 79, 68
2, 117360, Note_off_c, 0, 79, 0
2, 117360, Note_off_c, 0, 67, 0
2, 117360, Note_on_c, 0, 65, 63
2, 117360, Note_on_c, 0, 77, 63
2, 117440, Note_off_c, 0, 77, 0
2, 117440, Note_off_c, 0, 65, 0
2, 117600, Note_on_c, 0, 75, 62
2, 117600, Note_on_c, 0, 63, 62
2, 117680, Note_off_c, 0, 63, 0
2, 117680, Note_off_c, 0, 75, 0
2, 117840, Note_on_c, 0, 60, 61
2, 117840, Note_on_c, 0, 72, 61
2, 117920, Note_off_c, 0, 72, 0
2, 117920, Note_off_c, 0, 60, 0
2, 118080, Note_on_c, 0, 59, 60
2, 118080, Note_on_c, 0, 71, 60
2, 118160, Note_off_c, 0, 71, 0
2, 118160, Note_off_c, 0, 59, 0
2, 118320, Note_on_c, 0, 86, 73
2, 118320, Note_on_c, 0, 74, 73
2, 118800, Note_off_c, 0, 74, 0
2, 118800, Note_off_c, 0, 86, 0
2, 118800, Note_on_c, 0, 72, 68
2, 118800, Note_on_c, 0, 84, 68
2, 118895, Note_off_c, 0, 84, 0
2, 118895, Note_off_c, 0, 72, 0
2, 119040, Note_on_c, 0, 71, 67
2, 119040, Note_on_c, 0, 83, 67
2, 119135, Note_off_c, 0, 83, 0
2, 119135, Note_off_c, 0, 71, 0
2, 119280, Note_on_c, 0, 67, 65
2, 119280, Note_on_c, 0, 79, 65
2, 119375, Note_off_c, 0, 79, 0
2, 119375, Note_off_c, 0, 67, 0
2, 119760, Note_on_c, 0, 73, 82
2, 119760, Note_on_c, 0, 85, 82
2, 120240, Note_off_c, 0, 85, 0
2, 120240, Note_off_c, 0, 73, 0
2, 120240, Note_on_c, 0, 84, 75
2, 120240, Note_on_c, 0, 72, 75
2, 120320, Note_off_c, 0, 72, 0
2, 120320, Note_off_c, 0, 84, 0
2, 120480, Note_on_c, 0, 82, 72
2, 120480, Note_on_c, 0, 70, 72
2, 120560, Note_off_c, 0, 70, 0
2, 120560, Note_off_c, 0, 82, 0
2, 120720, Note_on_c, 0, 60, 70
2, 120720, Note_on_c, 0, 67, 70
2, 120720, Note_on_c, 0, 72, 70
2, 120800, Note_off_c, 0, 72, 0
2, 120800, Note_off_c, 0, 67, 0
2, 120800, Note_off_c, 0, 60, 0
2, 121200, Note_on_c, 0, 72, 89
2, 121200, Note_on_c, 0, 84, 89
2, 121680, Note_on_c, 0, 82, 83
2, 121680, Note_on_c, 0, 70, 83
2, 121685, Note_off_c, 0, 84, 0
2, 121685, Note_off_c, 0, 72, 0
2, 121760, Note_off_c, 0, 70, 0
2, 121760, Note_off_c, 0, 82, 0
2, 121920, Note_on_c, 0, 69, 79
2, 121920, Note_on_c, 0, 81, 79
2, 122000, Note_off_c, 0, 81, 0
2, 122000, Note_off_c, 0, 69, 0
2, 122160, Note_on_c, 0, 65, 76
2, 122160, Note_on_c, 0, 77, 76
2, 122240, Note_off_c, 0, 77, 0
2, 122240, Note_off_c, 0, 65, 0
2, 122640, Note_on_c, 0, 87, 100
2, 122640, Note_on_c, 0, 75, 100
2, 123120, Note_off_c, 0, 75, 0
2, 123120, Note_off_c, 0, 87, 0
2, 123120, Note_on_c, 0, 74, 92
2, 123120, Note_on_c, 0, 86, 92
2, 123200, Note_off_c, 0, 86, 0
2, 123200, Note_off_c, 0, 74, 0
2, 123360, Note_on_c, 0, 84, 88
2, 123360, Note_on_c, 0, 72, 88
2, 123440, Note_off_c, 0, 72, 0
2, 123440, Note_off_c, 0, 84, 0
2, 123600, Note_on_c, 0, 69, 84
2, 123600, Note_on_c, 0, 81, 84
2, 123680, Note_off_c, 0, 81, 0
2, 123680, Note_off_c, 0, 69, 0
2, 124080, Note_on_c, 0, 92, 112
2, 124080, Note_on_c, 0, 80, 112
2, 124560, Note_off_c, 0, 80, 0
2, 124560, Note_off_c, 0, 92, 0
2, 124560, Note_on_c, 0, 91, 103
2, 124560, Note_on_c, 0, 79, 103
2, 124640, Note_off_c, 0, 79, 0
2, 124640, Note_off_c, 0, 91, 0
2, 124800, Note_on_c, 0, 89, 99
2, 124800, Note_on_c, 0, 77, 99
2, 124880, Note_off_c, 0, 77, 0
2, 124880, Note_off_c, 0, 89, 0
2, 125040, Note_on_c, 0, 86, 97
2, 125040, Note_on_c, 0, 74, 97
2, 125120, Note_off_c, 0, 74, 0
2, 125120, Note_off_c, 0, 86, 0
2, 125520, Note_on_c, 0, 83, 112
2, 125520, Note_on_c, 0, 71, 112
2, 126000, Note_off_c, 0, 71, 0
2, 126000, Note_off_c, 0, 83, 0
2, 126000, Note_on_c, 0, 86, 97
2, 126000, Note_on_c, 0, 74, 97
2, 126310, Note_off_c, 0, 74, 0
2, 126310, Note_off_c, 0, 86, 0
2, 126480, Note_on_c, 0, 71, 81
2, 126480, Note_on_c, 0, 67, 81
2, 126480, Note_on_c, 0, 62, 81
2, 126480, Note_on_c, 0, 59, 81
2, 126635, Note_off_c, 0, 59, 0
2, 126635, Note_off_c, 0, 62, 0
2, 126635, Note_off_c, 0, 67, 0
2, 126635, Note_off_c, 0, 71, 0
2, 126720, Note_on_c, 0, 60, 74
2, 126720, Note_on_c, 0, 67, 74
2, 126720, Note_on_c, 0, 63, 74
2, 126720, Note_on_c, 0, 72, 74
2, 126875, Note_off_c, 0, 72, 0
2, 126875, Note_off_c, 0, 63, 0
2, 126875, Note_off_c, 0, 67, 0
2, 126875, Note_off_c, 0, 60, 0
2, 128160, Note_on_c, 0, 60, 73
2, 128210, Note_off_c, 0, 60, 0
2, 128220, Note_on_c, 0, 55, 63
2, 128270, Note_off_c, 0, 55, 0
2, 128280, Note_on_c, 0, 57, 63
2, 128330, Note_off_c, 0, 57, 0
2, 128340, Note_on_c, 0, 59, 63
2, 128390, Note_off_c, 0, 59, 0
2, 128400, Note_on_c, 0, 60, 73
2, 128450, Note_off_c, 0, 60, 0
2, 128460, Note_on_c, 0, 55, 64
2, 128510, Note_off_c, 0, 55, 0
2, 128520, Note_on_c, 0, 57, 64
2, 128570, Note_off_c, 0, 57, 0
2, 128580, Note_on_c, 0, 59, 64
2, 128630, Note_off_c, 0, 59, 0
2, 128640, Note_on_c, 0, 60, 64
2, 128690, Note_off_c, 0, 60, 0
2, 128700, Note_on_c, 0, 55, 65
2, 128750, Note_off_c, 0, 55, 0
2, 128760, Note_on_c, 0, 57, 65
2, 128810, Note_off_c, 0, 57, 0
2, 128820, Note_on_c, 0, 59, 65
2, 128870, Note_off_c, 0, 59, 0
2, 128880, Note_on_c, 0, 60, 65
2, 128930, Note_off_c, 0, 60, 0
2, 128940, Note_on_c, 0, 55, 66
2, 128990, Note_off_c, 0, 55, 0
2, 129000, Note_on_c, 0, 57, 66
2, 129050, Note_off_c, 0, 57, 0
2, 129060, Note_on_c, 0, 59, 66
2, 129110, Note_off_c, 0, 59, 0
2, 129120, Note_on_c, 0, 60, 66
2, 129170, Note_off_c, 0, 60, 0
2, 129180, Note_on_c, 0, 55, 67
2, 129230, Note_off_c, 0, 55, 0
2, 129240, Note_on_c, 0, 57, 67
2, 129290, Note_off_c, 0, 57, 0
2, 129300, Note_on_c, 0, 59, 67
2, 129350, Note_off_c, 0, 59, 0
2, 129360, Note_on_c, 0, 60, 67
2, 129410, Note_off_c, 0, 60, 0
2, 129420, Note_on_c, 0, 62, 67
2, 129470, Note_off_c, 0, 62, 0
2, 129480, Note_on_c, 0, 63, 68
2, 129530, Note_off_c, 0, 63, 0
2, 129540, Note_on_c, 0, 66, 68
2, 129590, Note_off_c, 0, 66, 0
2, 129600, Note_on_c, 0, 67, 78
2, 129650, Note_off_c, 0, 67, 0
2, 129660, Note_on_c, 0, 62, 68
2, 129710, Note_off_c, 0, 62, 0
2, 129720, Note_on_c, 0, 64, 69
2, 129770, Note_off_c, 0, 64, 0
2, 129780, Note_on_c, 0, 66, 69
2, 129830, Note_off_c, 0, 66, 0
2, 129840, Note_on_c, 0, 67, 79
2, 129890, Note_off_c, 0, 67, 0
2, 129900, Note_on_c, 0, 62, 69
2, 129950, Note_off_c, 0, 62, 0
2, 129960, Note_on_c, 0, 64, 70
2, 130010, Note_off_c, 0, 64, 0
2, 130020, Note_on_c, 0, 66, 70
2, 130070, Note_off_c, 0, 66, 0
2, 130080, Note_on_c, 0, 67, 70
2, 130130, Note_off_c, 0, 67, 0
2, 130140, Note_on_c, 0, 62, 70
2, 130190, Note_off_c, 0, 62, 0
2, 130200, Note_on_c, 0, 64, 71
2, 130250, Note_off_c, 0, 64, 0
2, 130260, Note_on_c, 0, 66, 71
2, 130310, Note_off_c, 0, 66, 0
2, 130320, Note_on_c, 0, 67, 71
2, 130370, Note_off_c, 0, 67, 0
2, 130380, Note_on_c, 0, 62, 71
2, 130430, Note_off_c, 0, 62, 0
2, 130440, Note_on_c, 0, 64, 72
2, 130490, Note_off_c, 0, 64, 0
2, 130500, Note_on_c, 0, 66, 72
2, 130550, Note_off_c, 0, 66, 0
2, 130560, Note_on_c, 0, 67, 72
2, 130610, Note_off_c, 0, 67, 0
2, 130620, Note_on_c, 0, 69, 72
2, 130670, Note_off_c, 0, 69, 0
2, 130680, Note_on_c, 0, 71, 72
2, 130730, Note_off_c, 0, 71, 0
2, 130740, Note_on_c, 0, 67, 73
2, 130790, Note_off_c, 0, 67, 0
2, 130800, Note_on_c, 0, 72, 73
2, 130850, Note_off_c, 0, 72, 0
2, 130860, Note_on_c, 0, 67, 73
2, 130910, Note_off_c, 0, 67, 0
2, 130920, Note_on_c, 0, 69, 73
2, 130970, Note_off_c, 0, 69, 0
2, 130980, Note_on_c, 0, 71, 74
2, 131030, Note_off_c, 0, 71, 0
2, 131040, Note_on_c, 0, 72, 84
2, 131090, Note_off_c, 0, 72, 0
2, 131100, Note_on_c, 0, 67, 74
2, 131150, Note_off_c, 0, 67, 0
2, 131160, Note_on_c, 0, 69, 74
2, 131210, Note_off_c, 0, 69, 0
2, 131220, Note_on_c, 0, 71, 75
2, 131270, Note_off_c, 0, 71, 0
2, 131280, Note_on_c, 0, 72, 85
2, 131330, Note_off_c, 0, 72, 0
2, 131340, Note_on_c, 0, 67, 75
2, 131390, Note_off_c, 0, 67, 0
2, 131400, Note_on_c, 0, 69, 75
2, 131450, Note_off_c, 0, 69, 0
2, 131460, Note_on_c, 0, 71, 76
2, 131510, Note_off_c, 0, 71, 0
2, 131520, Note_on_c, 0, 72, 76
2, 131570, Note_off_c, 0, 72, 0
2, 131580, Note_on_c, 0, 67, 76
2, 131630, Note_off_c, 0, 67, 0
2, 131640, Note_on_c, 0, 69, 76
2, 131690, Note_off_c, 0, 69, 0
2, 131700, Note_on_c, 0, 71, 77
2, 131750, Note_off_c, 0, 71, 0
2, 131760, Note_on_c, 0, 72, 77
2, 131810, Note_off_c, 0, 72, 0
2, 131820, Note_on_c, 0, 67, 77
2, 131870, Note_off_c, 0, 67, 0
2, 131880, Note_on_c, 0, 69, 77
2, 131930, Note_off_c, 0, 69, 0
2, 131940, Note_on_c, 0, 71, 77
2, 131990, Note_off_c, 0, 71, 0
2, 132000, Note_on_c, 0, 72, 78
2, 132050, Note_off_c, 0, 72, 0
2, 132060, Note_on_c, 0, 67, 78
2, 132110, Note_off_c, 0, 67, 0
2, 132120, Note_on_c, 0, 69, 78
2, 132170, Note_off_c, 0, 69, 0
2, 132180, Note_on_c, 0, 71, 78
2, 132230, Note_off_c, 0, 71, 0
2, 132240, Note_on_c, 0, 72, 79
2, 132290, Note_off_c, 0, 72, 0
2, 132300, Note_on_c, 0, 74, 79
2, 132350, Note_off_c, 0, 74, 0
2, 132360, Note_on_c, 0, 76, 79
2, 132410, Note_off_c, 0, 76, 0
2, 132420, Note_on_c, 0, 72, 79
2, 132470, Note_off_c, 0, 72, 0
2, 132480, Note_on_c, 0, 77, 90
2, 132530, Note_off_c, 0, 77, 0
2, 132540, Note_on_c, 0, 72, 80
2, 132590, Note_off_c, 0, 72, 0
2, 132600, Note_on_c, 0, 74, 80
2, 132650, Note_off_c, 0, 74, 0
2, 132660, Note_on_c, 0, 76, 80
2, 132710, Note_off_c, 0, 76, 0
2, 132720, Note_on_c, 0, 77, 91
2, 132770, Note_off_c, 0, 77, 0
2, 132780, Note_on_c, 0, 72, 81
2, 132830, Note_off_c, 0, 72, 0
2, 132840, Note_on_c, 0, 74, 81
2, 132890, Note_off_c, 0, 74, 0
2, 132900, Note_on_c, 0, 76, 81
2, 132950, Note_off_c, 0, 76, 0
2, 132960, Note_on_c, 0, 77, 81
2, 133010, Note_off_c, 0, 77, 0
2, 133020, Note_on_c, 0, 72, 82
2, 133070, Note_off_c, 0, 72, 0
2, 133080, Note_on_c, 0, 74, 82
2, 133130, Note_off_c, 0, 74, 0
2, 133140, Note_on_c, 0, 76, 82
2, 133190, Note_off_c, 0, 76, 0
2, 133200, Note_on_c, 0, 77, 82
2, 133250, Note_off_c, 0, 77, 0
2, 133260, Note_on_c, 0, 72, 83
2, 133310, Note_off_c, 0, 72, 0
2, 133320, Note_on_c, 0, 74, 83
2, 133370, Note_off_c, 0, 74, 0
2, 133380, Note_on_c, 0, 76, 83
2, 133430, Note_off_c, 0, 76, 0
2, 133440, Note_on_c, 0, 77, 83
2, 133490, Note_off_c, 0, 77, 0
2, 133500, Note_on_c, 0, 72, 84
2, 133550, Note_off_c, 0, 72, 0
2, 133560, Note_on_c, 0, 74, 84
2, 133610, Note_off_c, 0, 74, 0
2, 133620, Note_on_c, 0, 76, 84
2, 133670, Note_off_c, 0, 76, 0
2, 133680, Note_on_c, 0, 77, 84
2, 133730, Note_off_c, 0, 77, 0
2, 133740, Note_on_c, 0, 79, 85
2, 133790, Note_off_c, 0, 79, 0
2, 133800, Note_on_c, 0, 81, 85
2, 133850, Note_off_c, 0, 81, 0
2, 133860, Note_on_c, 0, 77, 85
2, 133910, Note_off_c, 0, 77, 0
2, 133920, Note_on_c, 0, 78, 94
2, 133970, Note_off_c, 0, 78, 0
2, 133980, Note_on_c, 0, 79, 86
2, 134030, Note_off_c, 0, 79, 0
2, 134040, Note_on_c, 0, 81, 86
2, 134090, Note_off_c, 0, 81, 0
2, 134100, Note_on_c, 0, 83, 86
2, 134150, Note_off_c, 0, 83, 0
2, 134160, Note_on_c, 0, 84, 96
2, 134210, Note_off_c, 0, 84, 0
2, 134220, Note_on_c, 0, 78, 86
2, 134270, Note_off_c, 0, 78, 0
2, 134280, Note_on_c, 0, 81, 87
2, 134330, Note_off_c, 0, 81, 0
2, 134340, Note_on_c, 0, 83, 87
2, 134390, Note_off_c, 0, 83, 0
2, 134400, Note_on_c, 0, 84, 87
2, 134450, Note_off_c, 0, 84, 0
2, 134460, Note_on_c, 0, 78, 87
2, 134510, Note_off_c, 0, 78, 0
2, 134520, Note_on_c, 0, 81, 88
2, 134570, Note_off_c, 0, 81, 0
2, 134580, Note_on_c, 0, 83, 88
2, 134630, Note_off_c, 0, 83, 0
2, 134640, Note_on_c, 0, 84, 88
2, 134690, Note_off_c, 0, 84, 0
2, 134700, Note_on_c, 0, 78, 88
2, 134750, Note_off_c, 0, 78, 0
2, 134760, Note_on_c, 0, 81, 89
2, 134810, Note_off_c, 0, 81, 0
2, 134820, Note_on_c, 0, 83, 89
2, 134870, Note_off_c, 0, 83, 0
2, 134880, Note_on_c, 0, 84, 89
2, 134930, Note_off_c, 0, 84, 0
2, 134940, Note_on_c, 0, 78, 89
2, 134990, Note_off_c, 0, 78, 0
2, 135000, Note_on_c, 0, 81, 90
2, 135050, Note_off_c, 0, 81, 0
2, 135060, Note_on_c, 0, 83, 90
2, 135110, Note_off_c, 0, 83, 0
2, 135120, Note_on_c, 0, 84, 90
2, 135170, Note_off_c, 0, 84, 0
2, 135180, Note_on_c, 0, 78, 90
2, 135230, Note_off_c, 0, 78, 0
2, 135240, Note_on_c, 0, 81, 91
2, 135290, Note_off_c, 0, 81, 0
2, 135300, Note_on_c, 0, 84, 91
2, 135350, Note_off_c, 0, 84, 0
2, 135360, Note_on_c, 0, 83, 101
2, 135410, Note_off_c, 0, 83, 0
2, 135420, Note_on_c, 0, 84, 92
2, 135470, Note_off_c, 0, 84, 0
2, 135480, Note_on_c, 0, 86, 94
2, 135530, Note_off_c, 0, 86, 0
2, 135540, Note_on_c, 0, 87, 96
2, 135590, Note_off_c, 0, 87, 0
2, 135600, Note_on_c, 0, 89, 108
2, 135650, Note_off_c, 0, 89, 0
2, 135660, Note_on_c, 0, 83, 100
2, 135710, Note_off_c, 0, 83, 0
2, 135720, Note_on_c, 0, 86, 102
2, 135770, Note_off_c, 0, 86, 0
2, 135780, Note_on_c, 0, 87, 104
2, 135830, Note_off_c, 0, 87, 0
2, 135840, Note_on_c, 0, 89, 106
2, 135890, Note_off_c, 0, 89, 0
2, 135900, Note_on_c, 0, 86, 108
2, 135950, Note_off_c, 0, 86, 0
2, 135960, Note_on_c, 0, 89, 110
2, 136010, Note_off_c, 0, 89, 0
2, 136020, Note_on_c, 0, 91, 112
2, 136070, Note_off_c, 0, 91, 0
2, 136080, Note_on_c, 0, 92, 127
2, 136130, Note_off_c, 0, 92, 0
2, 136140, Note_on_c, 0, 86, 116
2, 136190, Note_off_c, 0, 86, 0
2, 136200, Note_on_c, 0, 89, 118
2, 136250, Note_off_c, 0, 89, 0
2, 136260, Note_on_c, 0, 91, 120
2, 136310, Note_off_c, 0, 91, 0
2, 136320, Note_on_c, 0, 92, 125
2, 136370, Note_off_c, 0, 92, 0
2, 136380, Note_on_c, 0, 86, 124
2, 136430, Note_off_c, 0, 86, 0
2, 136440, Note_on_c, 0, 89, 124
2, 136490, Note_off_c, 0, 89, 0
2, 136500, Note_on_c, 0, 91, 123
2, 136550, Note_off_c, 0, 91, 0
2, 136560, Note_on_c, 0, 92, 122
2, 136610, Note_off_c, 0, 92, 0
2, 136620, Note_on_c, 0, 86, 121
2, 136670, Note_off_c, 0, 86, 0
2, 136680, Note_on_c, 0, 89, 121
2, 136730, Note_off_c, 0, 89, 0
2, 136740, Note_on_c, 0, 91, 120
2, 136790, Note_off_c, 0, 91, 0
2, 136800, Note_on_c, 0, 92, 127
2, 136850, Note_off_c, 0, 92, 0
2, 136860, Note_on_c, 0, 91, 118
2, 136910, Note_off_c, 0, 91, 0
2, 136920, Note_on_c, 0, 89, 117
2, 136970, Note_off_c, 0, 89, 0
2, 136980, Note_on_c, 0, 87, 117
2, 137030, Note_off_c, 0, 87, 0
2, 137040, Note_on_c, 0, 86, 116
2, 137090, Note_off_c, 0, 86, 0
2, 137100, Note_on_c, 0, 87, 115
2, 137150, Note_off_c, 0, 87, 0
2, 137160, Note_on_c, 0, 89, 114
2, 137210, Note_off_c, 0, 89, 0
2, 137220, Note_on_c, 0, 91, 114
2, 137270, Note_off_c, 0, 91, 0
2, 137280, Note_on_c, 0, 89, 113
2, 137330, Note_off_c, 0, 89, 0
2, 137340, Note_on_c, 0, 87, 112
2, 137390, Note_off_c, 0, 87, 0
2, 137400, Note_on_c, 0, 86, 111
2, 137450, Note_off_c, 0, 86, 0
2, 137460, Note_on_c, 0, 84, 111
2, 137510, Note_off_c, 0, 84, 0
2, 137520, Note_on_c, 0, 83, 110
2, 137570, Note_off_c, 0, 83, 0
2, 137580, Note_on_c, 0, 84, 109
2, 137630, Note_off_c, 0, 84, 0
2, 137640, Note_on_c, 0, 86, 108
2, 137690, Note_off_c, 0, 86, 0
2, 137700, Note_on_c, 0, 87, 108
2, 137750, Note_off_c, 0, 87, 0
2, 137760, Note_on_c, 0, 86, 107
2, 137810, Note_off_c, 0, 86, 0
2, 137820, Note_on_c, 0, 84, 106
2, 137870, Note_off_c, 0, 84, 0
2, 137880, Note_on_c, 0, 83, 105
2, 137930, Note_off_c, 0, 83, 0
2, 137940, Note_on_c, 0, 80, 104
2, 137990, Note_off_c, 0, 80, 0
2, 138000, Note_on_c, 0, 79, 104
2, 138050, Note_off_c, 0, 79, 0
2, 138060, Note_on_c, 0, 77, 103
2, 138110, Note_off_c, 0, 77, 0
2, 138120, Note_on_c, 0, 75, 102
2, 138170, Note_off_c, 0, 75, 0
2, 138180, Note_on_c, 0, 74, 101
2, 138230, Note_off_c, 0, 74, 0
2, 138240, Note_on_c, 0, 75, 111
2, 138290, Note_off_c, 0, 75, 0
2, 138300, Note_on_c, 0, 72, 100
2, 138350, Note_off_c, 0, 72, 0
2, 138360, Note_on_c, 0, 71, 99
2, 138410, Note_off_c, 0, 71, 0
2, 138420, Note_on_c, 0, 68, 98
2, 138470, Note_off_c, 0, 68, 0
2, 138480, Note_on_c, 0, 67, 97
2, 138530, Note_off_c, 0, 67, 0
2, 138540, Note_on_c, 0, 65, 95
2, 138590, Note_off_c, 0, 65, 0
2, 138600, Note_on_c, 0, 63, 94
2, 138650, Note_off_c, 0, 63, 0
2, 138660, Note_on_c, 0, 62, 93
2, 138710, Note_off_c, 0, 62, 0
2, 140160, Note_on_c, 0, 60, 59
2, 141000, Note_off_c, 0, 60, 0
2, 141000, Note_on_c, 0, 64, 61
2, 141120, Note_off_c, 0, 64, 0
2, 141120, Note_on_c, 0, 62, 61
2, 141367, Note_off_c, 0, 62, 0
2, 141600, Note_on_c, 0, 55, 62
2, 142440, Note_off_c, 0, 55, 0
2, 142440, Note_on_c, 0, 62, 64
2, 142560, Note_off_c, 0, 62, 0
2, 142560, Note_on_c, 0, 64, 64
2, 142870, Note_off_c, 0, 64, 0
2, 143040, Note_on_c, 0, 64, 65
2, 143880, Note_on_c, 0, 67, 67
2, 143915, Note_off_c, 0, 64, 0
2, 144000, Note_off_c, 0, 67, 0
2, 144000, Note_on_c, 0, 64, 67
2, 144310, Note_off_c, 0, 64, 0
2, 144480, Note_on_c, 0, 65, 69
2, 145265, Note_off_c, 0, 65, 0
2, 145320, Note_on_c, 0, 65, 70
2, 145400, Note_off_c, 0, 65, 0
2, 145440, Note_on_c, 0, 66, 81
2, 145750, Note_off_c, 0, 66, 0
2, 145920, Note_on_c, 0, 66, 71
2, 146700, Note_off_c, 0, 66, 0
2, 146760, Note_on_c, 0, 66, 75
2, 146840, Note_off_c, 0, 66, 0
2, 146880, Note_on_c, 0, 67, 76
2, 147195, Note_off_c, 0, 67, 0
2, 147360, Note_on_c, 0, 69, 78
2, 148620, Note_off_c, 0, 69, 0
2, 148680, Note_on_c, 0, 69, 69
2, 148760, Note_off_c, 0, 69, 0
2, 148800, Note_on_c, 0, 65, 68
2, 149040, Note_off_c, 0, 65, 0
2, 149280, Note_on_c, 0, 67, 64
2, 149520, Note_off_c, 0, 67, 0
2, 149760, Note_on_c, 0, 60, 61
2, 150000, Note_off_c, 0, 60, 0
2, 150840, Note_on_c, 0, 67, 58
2, 150960, Note_off_c, 0, 67, 0
2, 150960, Note_on_c, 0, 69, 58
2, 151080, Note_off_c, 0, 69, 0
2, 151080, Note_on_c, 0, 71, 58
2, 151200, Note_off_c, 0, 71, 0
2, 151200, Note_on_c, 0, 72, 58
2, 151320, Note_off_c, 0, 72, 0
2, 151320, Note_on_c, 0, 67, 59
2, 151440, Note_off_c, 0, 67, 0
2, 151440, Note_on_c, 0, 72, 59
2, 151560, Note_off_c, 0, 72, 0
2, 151560, Note_on_c, 0, 74, 59
2, 151680, Note_off_c, 0, 74, 0
2, 151680, Note_on_c, 0, 76, 59
2, 151800, Note_off_c, 0, 76, 0
2, 151800, Note_on_c, 0, 74, 60
2, 151920, Note_off_c, 0, 74, 0
2, 151920, Note_on_c, 0, 72, 60
2, 152040, Note_off_c, 0, 72, 0
2, 152040, Note_on_c, 0, 71, 60
2, 152160, Note_off_c, 0, 71, 0
2, 152160, Note_on_c, 0, 72, 60
2, 152280, Note_off_c, 0, 72, 0
2, 152280, Note_on_c, 0, 67, 60
2, 152400, Note_off_c, 0, 67, 0
2, 152400, Note_on_c, 0, 76, 61
2, 152520, Note_off_c, 0, 76, 0
2, 152520, Note_on_c, 0, 72, 61
2, 152640, Note_off_c, 0, 72, 0
2, 152640, Note_on_c, 0, 71, 61
2, 152760, Note_off_c, 0, 71, 0
2, 152760, Note_on_c, 0, 69, 61
2, 152880, Note_off_c, 0, 69, 0
2, 152880, Note_on_c, 0, 71, 62
2, 153000, Note_off_c, 0, 71, 0
2, 153000, Note_on_c, 0, 72, 62
2, 153120, Note_off_c, 0, 72, 0
2, 153120, Note_on_c, 0, 74, 62
2, 153240, Note_off_c, 0, 74, 0
2, 153240, Note_on_c, 0, 72, 62
2, 153360, Note_off_c, 0, 72, 0
2, 153360, Note_on_c, 0, 71, 63
2, 153480, Note_off_c, 0, 71, 0
2, 153480, Note_on_c, 0, 69, 63
2, 153600, Note_off_c, 0, 69, 0
2, 153600, Note_on_c, 0, 67, 63
2, 153720, Note_off_c, 0, 67, 0
2, 153720, Note_on_c, 0, 69, 63
2, 153840, Note_off_c, 0, 69, 0
2, 153840, Note_on_c, 0, 71, 64
2, 153960, Note_off_c, 0, 71, 0
2, 153960, Note_on_c, 0, 67, 64
2, 154080, Note_off_c, 0, 67, 0
2, 154080, Note_on_c, 0, 73, 64
2, 154200, Note_off_c, 0, 73, 0
2, 154200, Note_on_c, 0, 70, 64
2, 154320, Note_off_c, 0, 70, 0
2, 154320, Note_on_c, 0, 73, 64
2, 154440, Note_off_c, 0, 73, 0
2, 154440, Note_on_c, 0, 76, 65
2, 154560, Note_off_c, 0, 76, 0
2, 154560, Note_on_c, 0, 79, 65
2, 154680, Note_off_c, 0, 79, 0
2, 154680, Note_on_c, 0, 76, 65
2, 154800, Note_off_c, 0, 76, 0
2, 154800, Note_on_c, 0, 82, 65
2, 154920, Note_off_c, 0, 82, 0
2, 154920, Note_on_c, 0, 79, 66
2, 155040, Note_off_c, 0, 79, 0
2, 155040, Note_on_c, 0, 82, 66
2, 155160, Note_off_c, 0, 82, 0
2, 155160, Note_on_c, 0, 79, 66
2, 155280, Note_off_c, 0, 79, 0
2, 155280, Note_on_c, 0, 76, 66
2, 155400, Note_off_c, 0, 76, 0
2, 155400, Note_on_c, 0, 73, 67
2, 155520, Note_off_c, 0, 73, 0
2, 155520, Note_on_c, 0, 82, 67
2, 155640, Note_off_c, 0, 82, 0
2, 155640, Note_on_c, 0, 79, 67
2, 155760, Note_off_c, 0, 79, 0
2, 155760, Note_on_c, 0, 76, 67
2, 155880, Note_off_c, 0, 76, 0
2, 155880, Note_on_c, 0, 73, 67
2, 156000, Note_off_c, 0, 73, 0
2, 156000, Note_on_c, 0, 81, 68
2, 156120, Note_off_c, 0, 81, 0
2, 156120, Note_on_c, 0, 77, 68
2, 156240, Note_off_c, 0, 77, 0
2, 156240, Note_on_c, 0, 74, 68
2, 156360, Note_off_c, 0, 74, 0
2, 156360, Note_on_c, 0, 69, 68
2, 156480, Note_off_c, 0, 69, 0
2, 156480, Note_on_c, 0, 81, 69
2, 156600, Note_off_c, 0, 81, 0
2, 156600, Note_on_c, 0, 74, 69
2, 156720, Note_off_c, 0, 74, 0
2, 156720, Note_on_c, 0, 83, 69
2, 156840, Note_off_c, 0, 83, 0
2, 156840, Note_on_c, 0, 74, 69
2, 156960, Note_off_c, 0, 74, 0
2, 156960, Note_on_c, 0, 84, 70
2, 157080, Note_off_c, 0, 84, 0
2, 157080, Note_on_c, 0, 81, 70
2, 157200, Note_off_c, 0, 81, 0
2, 157200, Note_on_c, 0, 78, 70
2, 157320, Note_off_c, 0, 78, 0
2, 157320, Note_on_c, 0, 75, 70
2, 157440, Note_off_c, 0, 75, 0
2, 157440, Note_on_c, 0, 83, 71
2, 157560, Note_off_c, 0, 83, 0
2, 157560, Note_on_c, 0, 81, 71
2, 157680, Note_off_c, 0, 81, 0
2, 157680, Note_on_c, 0, 78, 71
2, 157800, Note_off_c, 0, 78, 0
2, 157800, Note_on_c, 0, 75, 71
2, 157920, Note_off_c, 0, 75, 0
2, 157920, Note_on_c, 0, 83, 71
2, 158040, Note_off_c, 0, 83, 0
2, 158040, Note_on_c, 0, 81, 72
2, 158160, Note_off_c, 0, 81, 0
2, 158160, Note_on_c, 0, 78, 72
2, 158280, Note_off_c, 0, 78, 0
2, 158280, Note_on_c, 0, 75, 72
2, 158400, Note_off_c, 0, 75, 0
2, 158400, Note_on_c, 0, 83, 72
2, 158520, Note_off_c, 0, 83, 0
2, 158520, Note_on_c, 0, 76, 73
2, 158640, Note_off_c, 0, 76, 0
2, 158640, Note_on_c, 0, 82, 73
2, 158760, Note_off_c, 0, 82, 0
2, 158760, Note_on_c, 0, 74, 73
2, 158880, Note_off_c, 0, 74, 0
2, 158880, Note_on_c, 0, 73, 80
2, 159000, Note_off_c, 0, 73, 0
2, 159000, Note_on_c, 0, 76, 77
2, 159120, Note_off_c, 0, 76, 0
2, 159120, Note_on_c, 0, 77, 76
2, 159240, Note_off_c, 0, 77, 0
2, 159240, Note_on_c, 0, 79, 75
2, 159360, Note_off_c, 0, 79, 0
2, 159360, Note_on_c, 0, 81, 75
2, 159480, Note_off_c, 0, 81, 0
2, 159480, Note_on_c, 0, 73, 74
2, 159600, Note_off_c, 0, 73, 0
2, 159600, Note_on_c, 0, 74, 73
2, 159720, Note_off_c, 0, 74, 0
2, 159720, Note_on_c, 0, 76, 72
2, 159840, Note_off_c, 0, 76, 0
2, 159840, Note_on_c, 0, 77, 71
2, 159960, Note_off_c, 0, 77, 0
2, 159960, Note_on_c, 0, 79, 70
2, 160080, Note_off_c, 0, 79, 0
2, 160080, Note_on_c, 0, 81, 69
2, 160200, Note_off_c, 0, 81, 0
2, 160200, Note_on_c, 0, 77, 68
2, 160320, Note_off_c, 0, 77, 0
2, 160320, Note_on_c, 0, 76, 67
2, 160440, Note_off_c, 0, 76, 0
2, 160440, Note_on_c, 0, 74, 66
2, 160560, Note_off_c, 0, 74, 0
2, 160560, Note_on_c, 0, 77, 65
2, 160680, Note_off_c, 0, 77, 0
2, 160680, Note_on_c, 0, 69, 65
2, 160800, Note_off_c, 0, 69, 0
2, 160800, Note_on_c, 0, 72, 64
2, 160920, Note_off_c, 0, 72, 0
2, 160920, Note_on_c, 0, 71, 63
2, 161040, Note_off_c, 0, 71, 0
2, 161040, Note_on_c, 0, 74, 62
2, 161160, Note_off_c, 0, 74, 0
2, 161160, Note_on_c, 0, 71, 61
2, 161280, Note_off_c, 0, 71, 0
2, 161280, Note_on_c, 0, 72, 57
2, 161375, Note_off_c, 0, 72, 0
2, 161400, Note_on_c, 0, 67, 57
2, 161520, Note_off_c, 0, 67, 0
2, 161520, Note_on_c, 0, 69, 57
2, 161640, Note_off_c, 0, 69, 0
2, 161640, Note_on_c, 0, 67, 57
2, 161760, Note_off_c, 0, 67, 0
2, 161760, Note_on_c, 0, 69, 57
2, 161880, Note_off_c, 0, 69, 0
2, 161880, Note_on_c, 0, 67, 58
2, 162000, Note_off_c, 0, 67, 0
2, 162000, Note_on_c, 0, 69, 58
2, 162120, Note_off_c, 0, 69, 0
2, 162120, Note_on_c, 0, 71, 58
2, 162240, Note_off_c, 0, 71, 0
2, 162240, Note_on_c, 0, 72, 58
2, 162360, Note_off_c, 0, 72, 0
2, 162360, Note_on_c, 0, 67, 59
2, 162360, Note_on_c, 0, 71, 59
2, 162480, Note_off_c, 0, 71, 0
2, 162480, Note_off_c, 0, 67, 0
2, 162480, Note_on_c, 0, 69, 59
2, 162480, Note_on_c, 0, 72, 59
2, 162600, Note_off_c, 0, 72, 0
2, 162600, Note_off_c, 0, 69, 0
2, 162600, Note_on_c, 0, 71, 59
2, 162600, Note_on_c, 0, 74, 59
2, 162720, Note_off_c, 0, 74, 0
2, 162720, Note_off_c, 0, 71, 0
2, 162720, Note_on_c, 0, 72, 59
2, 162720, Note_on_c, 0, 76, 59
2, 162800, Note_off_c, 0, 76, 0
2, 162800, Note_off_c, 0, 72, 0
2, 162840, Note_on_c, 0, 71, 60
2, 162840, Note_on_c, 0, 74, 60
2, 162920, Note_off_c, 0, 74, 0
2, 162920, Note_off_c, 0, 71, 0
2, 162960, Note_on_c, 0, 72, 60
2, 162960, Note_on_c, 0, 76, 60
2, 163040, Note_off_c, 0, 76, 0
2, 163040, Note_off_c, 0, 72, 0
2, 163080, Note_on_c, 0, 74, 60
2, 163080, Note_on_c, 0, 77, 60
2, 163160, Note_off_c, 0, 77, 0
2, 163160, Note_off_c, 0, 74, 0
2, 163200, Note_on_c, 0, 76, 60
2, 163200, Note_on_c, 0, 79, 60
2, 163280, Note_off_c, 0, 79, 0
2, 163280, Note_off_c, 0, 76, 0
2, 163320, Note_on_c, 0, 74, 60
2, 163320, Note_on_c, 0, 77, 60
2, 163400, Note_off_c, 0, 77, 0
2, 163400, Note_off_c, 0, 74, 0
2, 163440, Note_on_c, 0, 72, 61
2, 163440, Note_on_c, 0, 76, 61
2, 163520, Note_off_c, 0, 76, 0
2, 163520, Note_off_c, 0, 72, 0
2, 163560, Note_on_c, 0, 71, 61
2, 163560, Note_on_c, 0, 74, 61
2, 163640, Note_off_c, 0, 74, 0
2, 163640, Note_off_c, 0, 71, 0
2, 163680, Note_on_c, 0, 72, 61
2, 163680, Note_on_c, 0, 76, 61
2, 163760, Note_off_c, 0, 76, 0
2, 163760, Note_off_c, 0, 72, 0
2, 163800, Note_on_c, 0, 71, 61
2, 163800, Note_on_c, 0, 74, 61
2, 163880, Note_off_c, 0, 74, 0
2, 163880, Note_off_c, 0, 71, 0
2, 163920, Note_on_c, 0, 72, 62
2, 163920, Note_on_c, 0, 76, 62
2, 164000, Note_off_c, 0, 76, 0
2, 164000, Note_off_c, 0, 72, 0
2, 164040, Note_on_c, 0, 73, 62
2, 164040, Note_on_c, 0, 76, 62
2, 164120, Note_off_c, 0, 76, 0
2, 164120, Note_off_c, 0, 73, 0
2, 164160, Note_on_c, 0, 74, 62
2, 164160, Note_on_c, 0, 77, 62
2, 164240, Note_off_c, 0, 77, 0
2, 164240, Note_off_c, 0, 74, 0
2, 164280, Note_on_c, 0, 73, 62
2, 164280, Note_on_c, 0, 76, 62
2, 164360, Note_off_c, 0, 76, 0
2, 164360, Note_off_c, 0, 73, 0
2, 164400, Note_on_c, 0, 74, 63
2, 164400, Note_on_c, 0, 77, 63
2, 164480, Note_off_c, 0, 77, 0
2, 164480, Note_off_c, 0, 74, 0
2, 164520, Note_on_c, 0, 76, 63
2, 164520, Note_on_c, 0, 79, 63
2, 164600, Note_off_c, 0, 79, 0
2, 164600, Note_off_c, 0, 76, 0
2, 164640, Note_on_c, 0, 77, 63
2, 164640, Note_on_c, 0, 81, 63
2, 164720, Note_off_c, 0, 81, 0
2, 164720, Note_off_c, 0, 77, 0
2, 164760, Note_on_c, 0, 76, 63
2, 164760, Note_on_c, 0, 79, 63
2, 164840, Note_off_c, 0, 79, 0
2, 164840, Note_off_c, 0, 76, 0
2, 164880, Note_on_c, 0, 74, 63
2, 164880, Note_on_c, 0, 77, 63
2, 164960, Note_off_c, 0, 77, 0
2, 164960, Note_off_c, 0, 74, 0
2, 165000, Note_on_c, 0, 72, 64
2, 165000, Note_on_c, 0, 76, 64
2, 165080, Note_off_c, 0, 76, 0
2, 165080, Note_off_c, 0, 72, 0
2, 165120, Note_on_c, 0, 71, 64
2, 165120, Note_on_c, 0, 74, 64
2, 165200, Note_off_c, 0, 74, 0
2, 165200, Note_off_c, 0, 71, 0
2, 165240, Note_on_c, 0, 72, 64
2, 165240, Note_on_c, 0, 76, 64
2, 165320, Note_off_c, 0, 76, 0
2, 165320, Note_off_c, 0, 72, 0
2, 165360, Note_on_c, 0, 74, 64
2, 165360, Note_on_c, 0, 77, 64
2, 165440, Note_off_c, 0, 77, 0
2, 165440, Note_off_c, 0, 74, 0
2, 165480, Note_on_c, 0, 71, 65
2, 165480, Note_on_c, 0, 79, 65
2, 165560, Note_off_c, 0, 79, 0
2, 165560, Note_off_c, 0, 71, 0
2, 165600, Note_on_c, 0, 70, 65
2, 165600, Note_on_c, 0, 79, 65
2, 165680, Note_off_c, 0, 79, 0
2, 165680, Note_off_c, 0, 70, 0
2, 165720, Note_on_c, 0, 76, 65
2, 165720, Note_on_c, 0, 79, 65
2, 165800, Note_off_c, 0, 79, 0
2, 165800, Note_off_c, 0, 76, 0
2, 165840, Note_on_c, 0, 79, 65
2, 165840, Note_on_c, 0, 82, 65
2, 165920, Note_off_c, 0, 82, 0
2, 165920, Note_off_c, 0, 79, 0
2, 165960, Note_on_c, 0, 77, 66
2, 165960, Note_on_c, 0, 81, 66
2, 166040, Note_off_c, 0, 81, 0
2, 166040, Note_off_c, 0, 77, 0
2, 166080, Note_on_c, 0, 76, 66
2, 166080, Note_on_c, 0, 79, 66
2, 166160, Note_off_c, 0, 79, 0
2, 166160, Note_off_c, 0, 76, 0
2, 166200, Note_on_c, 0, 74, 66
2, 166200, Note_on_c, 0, 77, 66
2, 166280, Note_off_c, 0, 77, 0
2, 166280, Note_off_c, 0, 74, 0
2, 166320, Note_on_c, 0, 72, 66
2, 166320, Note_on_c, 0, 76, 66
2, 166400, Note_off_c, 0, 76, 0
2, 166400, Note_off_c, 0, 72, 0
2, 166440, Note_on_c, 0, 70, 66
2, 166440, Note_on_c, 0, 74, 66
2, 166520, Note_off_c, 0, 74, 0
2, 166520, Note_off_c, 0, 70, 0
2, 166560, Note_on_c, 0, 69, 67
2, 166560, Note_on_c, 0, 72, 67
2, 166640, Note_off_c, 0, 72, 0
2, 166640, Note_off_c, 0, 69, 0
2, 166680, Note_on_c, 0, 67, 67
2, 166680, Note_on_c, 0, 70, 67
2, 166760, Note_off_c, 0, 70, 0
2, 166760, Note_off_c, 0, 67, 0
2, 166800, Note_on_c, 0, 65, 67
2, 166800, Note_on_c, 0, 69, 67
2, 166880, Note_off_c, 0, 69, 0
2, 166880, Note_off_c, 0, 65, 0
2, 166920, Note_on_c, 0, 64, 67
2, 166920, Note_on_c, 0, 67, 67
2, 167000, Note_off_c, 0, 67, 0
2, 167000, Note_off_c, 0, 64, 0
2, 167160, Note_on_c, 0, 79, 68
2, 167160, Note_on_c, 0, 82, 68
2, 167240, Note_off_c, 0, 82, 0
2, 167240, Note_off_c, 0, 79, 0
2, 167280, Note_on_c, 0, 81, 68
2, 167280, Note_on_c, 0, 84, 68
2, 167360, Note_off_c, 0, 84, 0
2, 167360, Note_off_c, 0, 81, 0
2, 167400, Note_on_c, 0, 79, 68
2, 167400, Note_on_c, 0, 82, 68
2, 167480, Note_off_c, 0, 82, 0
2, 167480, Note_off_c, 0, 79, 0
2, 167520, Note_on_c, 0, 77, 69
2, 167520, Note_on_c, 0, 81, 69
2, 167600, Note_off_c, 0, 81, 0
2, 167600, Note_off_c, 0, 77, 0
2, 167640, Note_on_c, 0, 76, 69
2, 167640, Note_on_c, 0, 79, 69
2, 167720, Note_off_c, 0, 79, 0
2, 167720, Note_off_c, 0, 76, 0
2, 167760, Note_on_c, 0, 77, 69
2, 167760, Note_on_c, 0, 81, 69
2, 167840, Note_off_c, 0, 81, 0
2, 167840, Note_off_c, 0, 77, 0
2, 167880, Note_on_c, 0, 80, 69
2, 167880, Note_on_c, 0, 83, 69
2, 167960, Note_off_c, 0, 83, 0
2, 167960, Note_off_c, 0, 80, 0
2, 168000, Note_on_c, 0, 81, 68
2, 168000, Note_on_c, 0, 84, 68
2, 168080, Note_off_c, 0, 84, 0
2, 168080, Note_off_c, 0, 81, 0
2, 168120, Note_on_c, 0, 80, 68
2, 168120, Note_on_c, 0, 83, 68
2, 168200, Note_off_c, 0, 83, 0
2, 168200, Note_off_c, 0, 80, 0
2, 168240, Note_on_c, 0, 81, 69
2, 168240, Note_on_c, 0, 84, 69
2, 168320, Note_off_c, 0, 84, 0
2, 168320, Note_off_c, 0, 81, 0
2, 168360, Note_on_c, 0, 80, 69
2, 168360, Note_on_c, 0, 83, 69
2, 168440, Note_off_c, 0, 83, 0
2, 168440, Note_off_c, 0, 80, 0
2, 168480, Note_on_c, 0, 81, 70
2, 168480, Note_on_c, 0, 84, 70
2, 168560, Note_off_c, 0, 84, 0
2, 168560, Note_off_c, 0, 81, 0
2, 168600, Note_on_c, 0, 80, 70
2, 168600, Note_on_c, 0, 83, 70
2, 168680, Note_off_c, 0, 83, 0
2, 168680, Note_off_c, 0, 80, 0
2, 168720, Note_on_c, 0, 81, 70
2, 168720, Note_on_c, 0, 84, 70
2, 168800, Note_off_c, 0, 84, 0
2, 168800, Note_off_c, 0, 81, 0
2, 168840, Note_on_c, 0, 80, 71
2, 168840, Note_on_c, 0, 83, 71
2, 168920, Note_off_c, 0, 83, 0
2, 168920, Note_off_c, 0, 80, 0
2, 168960, Note_on_c, 0, 81, 71
2, 168960, Note_on_c, 0, 84, 71
2, 169040, Note_off_c, 0, 84, 0
2, 169040, Note_off_c, 0, 81, 0
2, 169080, Note_on_c, 0, 79, 72
2, 169080, Note_on_c, 0, 83, 72
2, 169160, Note_off_c, 0, 83, 0
2, 169160, Note_off_c, 0, 79, 0
2, 169200, Note_on_c, 0, 78, 72
2, 169200, Note_on_c, 0, 81, 72
2, 169280, Note_off_c, 0, 81, 0
2, 169280, Note_off_c, 0, 78, 0
2, 169320, Note_on_c, 0, 76, 73
2, 169320, Note_on_c, 0, 79, 73
2, 169400, Note_off_c, 0, 79, 0
2, 169400, Note_off_c, 0, 76, 0
2, 169440, Note_on_c, 0, 75, 73
2, 169440, Note_on_c, 0, 78, 73
2, 169520, Note_off_c, 0, 78, 0
2, 169520, Note_off_c, 0, 75, 0
2, 169560, Note_on_c, 0, 81, 74
2, 169560, Note_on_c, 0, 84, 74
2, 169640, Note_off_c, 0, 84, 0
2, 169640, Note_off_c, 0, 81, 0
2, 169680, Note_on_c, 0, 79, 74
2, 169680, Note_on_c, 0, 83, 74
2, 169760, Note_off_c, 0, 83, 0
2, 169760, Note_off_c, 0, 79, 0
2, 169800, Note_on_c, 0, 78, 75
2, 169800, Note_on_c, 0, 81, 75
2, 169880, Note_off_c, 0, 81, 0
2, 169880, Note_off_c, 0, 78, 0
2, 169920, Note_on_c, 0, 76, 75
2, 169920, Note_on_c, 0, 79, 75
2, 170000, Note_off_c, 0, 79, 0
2, 170000, Note_off_c, 0, 76, 0
2, 170040, Note_on_c, 0, 75, 76
2, 170040, Note_on_c, 0, 78, 76
2, 170120, Note_off_c, 0, 78, 0
2, 170120, Note_off_c, 0, 75, 0
2, 170160, Note_on_c, 0, 76, 76
2, 170160, Note_on_c, 0, 79, 76
2, 170240, Note_off_c, 0, 79, 0
2, 170240, Note_off_c, 0, 76, 0
2, 170280, Note_on_c, 0, 74, 77
2, 170280, Note_on_c, 0, 77, 77
2, 170360, Note_off_c, 0, 77, 0
2, 170360, Note_off_c, 0, 74, 0
2, 170400, Note_on_c, 0, 72, 80
2, 170400, Note_on_c, 0, 76, 80
2, 170480, Note_off_c, 0, 76, 0
2, 170480, Note_off_c, 0, 72, 0
2, 170520, Note_on_c, 0, 74, 78
2, 170520, Note_on_c, 0, 77, 78
2, 170600, Note_off_c, 0, 77, 0
2, 170600, Note_off_c, 0, 74, 0
2, 170640, Note_on_c, 0, 76, 78
2, 170640, Note_on_c, 0, 79, 78
2, 170720, Note_off_c, 0, 79, 0
2, 170720, Note_off_c, 0, 76, 0
2, 170760, Note_on_c, 0, 77, 79
2, 170760, Note_on_c, 0, 81, 79
2, 170840, Note_off_c, 0, 81, 0
2, 170840, Note_off_c, 0, 77, 0
2, 170880, Note_on_c, 0, 79, 79
2, 170880, Note_on_c, 0, 83, 79
2, 170960, Note_off_c, 0, 83, 0
2, 170960, Note_off_c, 0, 79, 0
2, 171000, Note_on_c, 0, 81, 80
2, 171000, Note_on_c, 0, 84, 80
2, 171080, Note_off_c, 0, 84, 0
2, 171080, Note_off_c, 0, 81, 0
2, 171120, Note_on_c, 0, 83, 80
2, 171120, Note_on_c, 0, 86, 80
2, 171200, Note_off_c, 0, 86, 0
2, 171200, Note_off_c, 0, 83, 0
2, 171240, Note_on_c, 0, 84, 81
2, 171240, Note_on_c, 0, 88, 81
2, 171320, Note_off_c, 0, 88, 0
2, 171320, Note_off_c, 0, 84, 0
2, 171360, Note_on_c, 0, 86, 81
2, 171360, Note_on_c, 0, 89, 81
2, 171440, Note_off_c, 0, 89, 0
2, 171440, Note_off_c, 0, 86, 0
2, 171480, Note_on_c, 0, 88, 80
2, 171480, Note_on_c, 0, 91, 80
2, 171560, Note_off_c, 0, 91, 0
2, 171560, Note_off_c, 0, 88, 0
2, 171600, Note_on_c, 0, 89, 79
2, 171600, Note_on_c, 0, 93, 79
2, 171680, Note_off_c, 0, 93, 0
2, 171680, Note_off_c, 0, 89, 0
2, 171720, Note_on_c, 0, 88, 78
2, 171720, Note_on_c, 0, 91, 78
2, 171800, Note_off_c, 0, 91, 0
2, 171800, Note_off_c, 0, 88, 0
2, 171840, Note_on_c, 0, 86, 77
2, 171840, Note_on_c, 0, 89, 77
2, 171920, Note_off_c, 0, 89, 0
2, 171920, Note_off_c, 0, 86, 0
2, 171960, Note_on_c, 0, 84, 77
2, 171960, Note_on_c, 0, 88, 77
2, 172040, Note_off_c, 0, 88, 0
2, 172040, Note_off_c, 0, 84, 0
2, 172080, Note_on_c, 0, 83, 76
2, 172080, Note_on_c, 0, 86, 76
2, 172160, Note_off_c, 0, 86, 0
2, 172160, Note_off_c, 0, 83, 0
2, 172200, Note_on_c, 0, 81, 75
2, 172200, Note_on_c, 0, 84, 75
2, 172280, Note_off_c, 0, 84, 0
2, 172280, Note_off_c, 0, 81, 0
2, 172320, Note_on_c, 0, 79, 74
2, 172320, Note_on_c, 0, 83, 74
2, 172400, Note_off_c, 0, 83, 0
2, 172400, Note_off_c, 0, 79, 0
2, 172440, Note_on_c, 0, 77, 73
2, 172440, Note_on_c, 0, 81, 73
2, 172520, Note_off_c, 0, 81, 0
2, 172520, Note_off_c, 0, 77, 0
2, 172560, Note_on_c, 0, 76, 72
2, 172560, Note_on_c, 0, 79, 72
2, 172640, Note_off_c, 0, 79, 0
2, 172640, Note_off_c, 0, 76, 0
2, 172680, Note_on_c, 0, 74, 71
2, 172680, Note_on_c, 0, 77, 71
2, 172760, Note_off_c, 0, 77, 0
2, 172760, Note_off_c, 0, 74, 0
2, 172800, Note_on_c, 0, 72, 70
2, 172800, Note_on_c, 0, 76, 70
2, 172880, Note_off_c, 0, 76, 0
2, 172880, Note_off_c, 0, 72, 0
2, 172920, Note_on_c, 0, 71, 69
2, 172920, Note_on_c, 0, 74, 69
2, 173000, Note_off_c, 0, 74, 0
2, 173000, Note_off_c, 0, 71, 0
2, 173040, Note_on_c, 0, 69, 68
2, 173040, Note_on_c, 0, 72, 68
2, 173120, Note_off_c, 0, 72, 0
2, 173120, Note_off_c, 0, 69, 0
2, 173160, Note_on_c, 0, 67, 67
2, 173160, Note_on_c, 0, 71, 67
2, 173240, Note_off_c, 0, 71, 0
2, 173240, Note_off_c, 0, 67, 0
2, 173280, Note_on_c, 0, 65, 66
2, 173280, Note_on_c, 0, 69, 66
2, 173360, Note_off_c, 0, 69, 0
2, 173360, Note_off_c, 0, 65, 0
2, 173400, Note_on_c, 0, 64, 65
2, 173400, Note_on_c, 0, 67, 65
2, 173480, Note_off_c, 0, 67, 0
2, 173480, Note_off_c, 0, 64, 0
2, 173520, Note_on_c, 0, 65, 64
2, 173520, Note_on_c, 0, 69, 64
2, 173600, Note_off_c, 0, 69, 0
2, 173600, Note_off_c, 0, 65, 0
2, 173640, Note_on_c, 0, 62, 63
2, 173640, Note_on_c, 0, 71, 63
2, 173720, Note_off_c, 0, 71, 0
2, 173720, Note_off_c, 0, 62, 0
2, 173760, Note_on_c, 0, 64, 62
2, 173760, Note_on_c, 0, 72, 62
2, 174240, Note_off_c, 0, 72, 0
2, 174240, Note_off_c, 0, 64, 0
2, 174400, Note_on_c, 0, 57, 50
2, 174400, Note_on_c, 0, 69, 50
2, 174560, Note_off_c, 0, 69, 0
2, 174560, Note_off_c, 0, 57, 0
2, 174560, Note_on_c, 0, 67, 50
2, 174560, Note_on_c, 0, 55, 50
2, 174720, Note_off_c, 0, 55, 0
2, 174720, Note_off_c, 0, 67, 0
2, 174720, Note_on_c, 0, 67, 51
2, 174720, Note_on_c, 0, 55, 51
2, 174880, Note_off_c, 0, 55, 0
2, 174880, Note_off_c, 0, 67, 0
2, 174880, Note_on_c, 0, 71, 51
2, 174880, Note_on_c, 0, 59, 51
2, 175040, Note_off_c, 0, 59, 0
2, 175040, Note_off_c, 0, 71, 0
2, 175040, Note_on_c, 0, 72, 52
2, 175040, Note_on_c, 0, 60, 52
2, 175360, Note_off_c, 0, 60, 0
2, 175360, Note_off_c, 0, 72, 0
2, 175360, Note_on_c, 0, 74, 53
2, 175360, Note_on_c, 0, 62, 53
2, 175520, Note_off_c, 0, 62, 0
2, 175520, Note_off_c, 0, 74, 0
2, 175520, Note_on_c, 0, 76, 53
2, 175520, Note_on_c, 0, 64, 53
2, 175840, Note_off_c, 0, 64, 0
2, 175840, Note_off_c, 0, 76, 0
2, 175840, Note_on_c, 0, 74, 54
2, 175840, Note_on_c, 0, 62, 54
2, 176000, Note_off_c, 0, 62, 0
2, 176000, Note_off_c, 0, 74, 0
2, 176000, Note_on_c, 0, 72, 54
2, 176000, Note_on_c, 0, 60, 54
2, 176320, Note_off_c, 0, 60, 0
2, 176320, Note_off_c, 0, 72, 0
2, 176320, Note_on_c, 0, 71, 55
2, 176320, Note_on_c, 0, 59, 55
2, 176480, Note_off_c, 0, 59, 0
2, 176480, Note_off_c, 0, 71, 0
2, 176480, Note_on_c, 0, 69, 56
2, 176480, Note_on_c, 0, 57, 56
2, 176800, Note_off_c, 0, 57, 0
2, 176800, Note_off_c, 0, 69, 0
2, 176800, Note_on_c, 0, 54, 57
2, 176800, Note_on_c, 0, 66, 57
2, 176960, Note_off_c, 0, 66, 0
2, 176960, Note_off_c, 0, 54, 0
2, 176960, Note_on_c, 0, 67, 57
2, 176960, Note_on_c, 0, 55, 57
2, 177250, Note_off_c, 0, 55, 0
2, 177250, Note_off_c, 0, 67, 0
2, 177280, Note_on_c, 0, 58, 58
2, 177280, Note_on_c, 0, 70, 58
2, 177440, Note_off_c, 0, 70, 0
2, 177440, Note_off_c, 0, 58, 0
2, 177440, Note_on_c, 0, 69, 58
2, 177440, Note_on_c, 0, 57, 58
2, 177760, Note_off_c, 0, 57, 0
2, 177760, Note_off_c, 0, 69, 0
2, 177760, Note_on_c, 0, 63, 59
2, 177760, Note_on_c, 0, 75, 59
2, 177920, Note_off_c, 0, 75, 0
2, 177920, Note_off_c, 0, 63, 0
2, 177920, Note_on_c, 0, 76, 60
2, 177920, Note_on_c, 0, 64, 60
2, 178240, Note_off_c, 0, 64, 0
2, 178240, Note_off_c, 0, 76, 0
2, 178240, Note_on_c, 0, 77, 61
2, 178240, Note_on_c, 0, 65, 61
2, 178400, Note_off_c, 0, 65, 0
2, 178400, Note_off_c, 0, 77, 0
2, 178400, Note_on_c, 0, 67, 61
2, 178400, Note_on_c, 0, 79, 61
2, 178720, Note_off_c, 0, 79, 0
2, 178720, Note_on_c, 0, 76, 62
2, 178720, Note_on_c, 0, 64, 62
2, 178730, Note_off_c, 0, 67, 0
2, 178880, Note_off_c, 0, 64, 0
2, 178880, Note_off_c, 0, 76, 0
2, 178880, Note_on_c, 0, 77, 63
2, 178880, Note_on_c, 0, 65, 63
2, 179200, Note_off_c, 0, 65, 0
2, 179200, Note_off_c, 0, 77, 0
2, 179200, Note_on_c, 0, 76, 64
2, 179200, Note_on_c, 0, 64, 64
2, 179360, Note_off_c, 0, 64, 0
2, 179360, Note_off_c, 0, 76, 0
2, 179360, Note_on_c, 0, 74, 64
2, 179360, Note_on_c, 0, 62, 64
2, 179680, Note_off_c, 0, 62, 0
2, 179680, Note_off_c, 0, 74, 0
2, 179680, Note_on_c, 0, 76, 65
2, 179680, Note_on_c, 0, 64, 65
2, 179840, Note_off_c, 0, 64, 0
2, 179840, Note_off_c, 0, 76, 0
2, 179840, Note_on_c, 0, 60, 65
2, 179840, Note_on_c, 0, 72, 65
2, 180160, Note_on_c, 0, 70, 66
2, 180160, Note_on_c, 0, 58, 66
2, 180165, Note_off_c, 0, 72, 0
2, 180165, Note_off_c, 0, 60, 0
2, 180320, Note_off_c, 0, 58, 0
2, 180320, Note_off_c, 0, 70, 0
2, 180320, Note_on_c, 0, 71, 67
2, 180320, Note_on_c, 0, 59, 67
2, 180640, Note_off_c, 0, 59, 0
2, 180640, Note_off_c, 0, 71, 0
2, 180640, Note_on_c, 0, 65, 68
2, 180640, Note_on_c, 0, 77, 68
2, 180800, Note_off_c, 0, 77, 0
2, 180800, Note_off_c, 0, 65, 0
2, 180800, Note_on_c, 0, 66, 68
2, 180800, Note_on_c, 0, 78, 68
2, 181120, Note_off_c, 0, 78, 0
2, 181120, Note_off_c, 0, 66, 0
2, 181120, Note_on_c, 0, 79, 69
2, 181120, Note_on_c, 0, 67, 69
2, 181280, Note_off_c, 0, 67, 0
2, 181280, Note_off_c, 0, 79, 0
2, 181280, Note_on_c, 0, 81, 69
2, 181280, Note_on_c, 0, 69, 69
2, 181600, Note_off_c, 0, 69, 0
2, 181600, Note_off_c, 0, 81, 0
2, 181600, Note_on_c, 0, 79, 70
2, 181600, Note_on_c, 0, 67, 70
2, 181760, Note_off_c, 0, 67, 0
2, 181760, Note_off_c, 0, 79, 0
2, 181760, Note_on_c, 0, 70, 71
2, 181760, Note_on_c, 0, 82, 71
2, 182080, Note_off_c, 0, 82, 0
2, 182080, Note_off_c, 0, 70, 0
2, 182080, Note_on_c, 0, 81, 72
2, 182080, Note_on_c, 0, 69, 72
2, 182240, Note_off_c, 0, 69, 0
2, 182240, Note_off_c, 0, 81, 0
2, 182240, Note_on_c, 0, 69, 72
2, 182240, Note_on_c, 0, 81, 72
2, 182560, Note_off_c, 0, 81, 0
2, 182560, Note_off_c, 0, 69, 0
2, 182560, Note_on_c, 0, 93, 73
2, 182560, Note_on_c, 0, 81, 73
2, 182665, Note_off_c, 0, 81, 0
2, 182665, Note_off_c, 0, 93, 0
2, 182720, Note_on_c, 0, 93, 83
2, 182720, Note_on_c, 0, 81, 83
2, 183040, Note_off_c, 0, 81, 0
2, 183040, Note_off_c, 0, 93, 0
2, 183040, Note_on_c, 0, 79, 69
2, 183040, Note_on_c, 0, 91, 69
2, 183200, Note_off_c, 0, 91, 0
2, 183200, Note_off_c, 0, 79, 0
2, 183200, Note_on_c, 0, 89, 68
2, 183200, Note_on_c, 0, 77, 68
2, 183520, Note_off_c, 0, 77, 0
2, 183520, Note_off_c, 0, 89, 0
2, 183520, Note_on_c, 0, 88, 67
2, 183520, Note_on_c, 0, 76, 67
2, 183680, Note_off_c, 0, 76, 0
2, 183680, Note_off_c, 0, 88, 0
2, 183680, Note_on_c, 0, 77, 66
2, 183680, Note_on_c, 0, 89, 66
2, 183840, Note_off_c, 0, 89, 0
2, 183840, Note_off_c, 0, 77, 0
2, 183840, Note_on_c, 0, 74, 65
2, 183840, Note_on_c, 0, 86, 65
2, 184000, Note_off_c, 0, 86, 0
2, 184000, Note_off_c, 0, 74, 0
2, 184000, Note_on_c, 0, 91, 64
2, 184000, Note_on_c, 0, 79, 64
2, 184105, Note_off_c, 0, 79, 0
2, 184105, Note_off_c, 0, 91, 0
2, 184160, Note_on_c, 0, 91, 63
2, 184160, Note_on_c, 0, 79, 63
2, 184265, Note_off_c, 0, 79, 0
2, 184265, Note_off_c, 0, 91, 0
2, 184320, Note_on_c, 0, 91, 63
2, 184320, Note_on_c, 0, 79, 63
2, 184425, Note_off_c, 0, 79, 0
2, 184425, Note_off_c, 0, 91, 0
2, 184480, Note_on_c, 0, 72, 62
2, 184480, Note_on_c, 0, 84, 62
2, 184640, Note_off_c, 0, 84, 0
2, 184640, Note_off_c, 0, 72, 0
2, 184640, Note_on_c, 0, 71, 61
2, 184640, Note_on_c, 0, 83, 61
2, 184800, Note_off_c, 0, 83, 0
2, 184800, Note_off_c, 0, 71, 0
2, 184800, Note_on_c, 0, 72, 60
2, 184800, Note_on_c, 0, 84, 60
2, 184905, Note_off_c, 0, 84, 0
2, 184905, Note_off_c, 0, 72, 0
2, 184960, Note_on_c, 0, 69, 59
2, 184960, Note_on_c, 0, 81, 59
2, 185120, Note_off_c, 0, 81, 0
2, 185120, Note_off_c, 0, 69, 0
2, 185120, Note_on_c, 0, 67, 59
2, 185120, Note_on_c, 0, 79, 59
2, 185280, Note_off_c, 0, 79, 0
2, 185280, Note_off_c, 0, 67, 0
2, 185280, Note_on_c, 0, 65, 58
2, 185280, Note_on_c, 0, 77, 58
2, 185385, Note_off_c, 0, 77, 0
2, 185385, Note_off_c, 0, 65, 0
2, 185440, Note_on_c, 0, 62, 57
2, 185440, Note_on_c, 0, 74, 57
2, 185545, Note_off_c, 0, 74, 0
2, 185545, Note_off_c, 0, 62, 0
2, 185600, Note_on_c, 0, 79, 56
2, 185600, Note_on_c, 0, 67, 56
2, 185705, Note_off_c, 0, 67, 0
2, 185705, Note_off_c, 0, 79, 0
2, 185760, Note_on_c, 0, 60, 54
2, 185760, Note_on_c, 0, 72, 54
2, 185840, Note_off_c, 0, 72, 0
2, 185840, Note_off_c, 0, 60, 0
2, 185880, Note_on_c, 0, 67, 54
2, 185880, Note_on_c, 0, 55, 54
2, 185960, Note_off_c, 0, 55, 0
2, 185960, Note_off_c, 0, 67, 0
2, 186000, Note_on_c, 0, 69, 54
2, 186000, Note_on_c, 0, 57, 54
2, 186080, Note_off_c, 0, 57, 0
2, 186080, Note_off_c, 0, 69, 0
2, 186120, Note_on_c, 0, 55, 55
2, 186120, Note_on_c, 0, 67, 55
2, 186200, Note_off_c, 0, 67, 0
2, 186200, Note_off_c, 0, 55, 0
2, 186360, Note_on_c, 0, 71, 55
2, 186360, Note_on_c, 0, 59, 55
2, 186440, Note_off_c, 0, 59, 0
2, 186440, Note_off_c, 0, 71, 0
2, 186480, Note_on_c, 0, 74, 55
2, 186480, Note_on_c, 0, 62, 55
2, 186560, Note_off_c, 0, 62, 0
2, 186560, Note_off_c, 0, 74, 0
2, 186600, Note_on_c, 0, 72, 56
2, 186600, Note_on_c, 0, 60, 56
2, 186680, Note_off_c, 0, 60, 0
2, 186680, Note_off_c, 0, 72, 0
2, 186840, Note_on_c, 0, 60, 56
2, 186840, Note_on_c, 0, 72, 56
2, 186920, Note_off_c, 0, 72, 0
2, 186920, Note_off_c, 0, 60, 0
2, 186960, Note_on_c, 0, 62, 57
2, 186960, Note_on_c, 0, 74, 57
2, 187040, Note_off_c, 0, 74, 0
2, 187040, Note_off_c, 0, 62, 0
2, 187080, Note_on_c, 0, 64, 57
2, 187080, Note_on_c, 0, 76, 57
2, 187160, Note_off_c, 0, 76, 0
2, 187160, Note_off_c, 0, 64, 0
2, 187320, Note_on_c, 0, 64, 58
2, 187320, Note_on_c, 0, 76, 58
2, 187400, Note_off_c, 0, 76, 0
2, 187400, Note_off_c, 0, 64, 0
2, 187440, Note_on_c, 0, 62, 58
2, 187440, Note_on_c, 0, 74, 58
2, 187520, Note_off_c, 0, 74, 0
2, 187520, Note_off_c, 0, 62, 0
2, 187560, Note_on_c, 0, 72, 58
2, 187560, Note_on_c, 0, 60, 58
2, 187640, Note_off_c, 0, 60, 0
2, 187640, Note_off_c, 0, 72, 0
2, 187800, Note_on_c, 0, 60, 59
2, 187800, Note_on_c, 0, 72, 59
2, 187880, Note_off_c, 0, 72, 0
2, 187880, Note_off_c, 0, 60, 0
2, 187920, Note_on_c, 0, 59, 59
2, 187920, Note_on_c, 0, 71, 59
2, 188000, Note_off_c, 0, 71, 0
2, 188000, Note_off_c, 0, 59, 0
2, 188040, Note_on_c, 0, 69, 60
2, 188040, Note_on_c, 0, 57, 60
2, 188120, Note_off_c, 0, 57, 0
2, 188120, Note_off_c, 0, 69, 0
2, 188280, Note_on_c, 0, 69, 60
2, 188280, Note_on_c, 0, 57, 60
2, 188360, Note_off_c, 0, 57, 0
2, 188360, Note_off_c, 0, 69, 0
2, 188400, Note_on_c, 0, 54, 60
2, 188400, Note_on_c, 0, 66, 60
2, 188480, Note_off_c, 0, 66, 0
2, 188480, Note_off_c, 0, 54, 0
2, 188520, Note_on_c, 0, 55, 61
2, 188520, Note_on_c, 0, 67, 61
2, 188600, Note_off_c, 0, 67, 0
2, 188600, Note_off_c, 0, 55, 0
2, 188760, Note_on_c, 0, 67, 61
2, 188760, Note_on_c, 0, 55, 61
2, 188840, Note_off_c, 0, 55, 0
2, 188840, Note_off_c, 0, 67, 0
2, 188880, Note_on_c, 0, 58, 62
2, 188880, Note_on_c, 0, 70, 62
2, 188960, Note_off_c, 0, 70, 0
2, 188960, Note_off_c, 0, 58, 0
2, 189000, Note_on_c, 0, 69, 62
2, 189000, Note_on_c, 0, 57, 62
2, 189080, Note_off_c, 0, 57, 0
2, 189080, Note_off_c, 0, 69, 0
2, 189240, Note_on_c, 0, 69, 63
2, 189240, Note_on_c, 0, 57, 63
2, 189320, Note_off_c, 0, 57, 0
2, 189320, Note_off_c, 0, 69, 0
2, 189360, Note_on_c, 0, 63, 63
2, 189360, Note_on_c, 0, 75, 63
2, 189440, Note_off_c, 0, 75, 0
2, 189440, Note_off_c, 0, 63, 0
2, 189480, Note_on_c, 0, 64, 63
2, 189480, Note_on_c, 0, 76, 63
2, 189560, Note_off_c, 0, 76, 0
2, 189560, Note_off_c, 0, 64, 0
2, 189720, Note_on_c, 0, 64, 64
2, 189720, Note_on_c, 0, 76, 64
2, 189800, Note_off_c, 0, 76, 0
2, 189800, Note_off_c, 0, 64, 0
2, 189840, Note_on_c, 0, 77, 64
2, 189840, Note_on_c, 0, 65, 64
2, 189920, Note_off_c, 0, 65, 0
2, 189920, Note_off_c, 0, 77, 0
2, 189960, Note_on_c, 0, 67, 65
2, 189960, Note_on_c, 0, 79, 65
2, 190040, Note_off_c, 0, 79, 0
2, 190040, Note_off_c, 0, 67, 0
2, 190200, Note_on_c, 0, 67, 65
2, 190200, Note_on_c, 0, 79, 65
2, 190280, Note_off_c, 0, 79, 0
2, 190280, Note_off_c, 0, 67, 0
2, 190320, Note_on_c, 0, 76, 66
2, 190320, Note_on_c, 0, 64, 66
2, 190400, Note_off_c, 0, 64, 0
2, 190400, Note_off_c, 0, 76, 0
2, 190440, Note_on_c, 0, 77, 66
2, 190440, Note_on_c, 0, 65, 66
2, 190520, Note_off_c, 0, 65, 0
2, 190520, Note_off_c, 0, 77, 0
2, 190680, Note_on_c, 0, 65, 66
2, 190680, Note_on_c, 0, 77, 66
2, 190760, Note_off_c, 0, 77, 0
2, 190760, Note_off_c, 0, 65, 0
2, 190800, Note_on_c, 0, 76, 67
2, 190800, Note_on_c, 0, 64, 67
2, 190880, Note_off_c, 0, 64, 0
2, 190880, Note_off_c, 0, 76, 0
2, 190920, Note_on_c, 0, 74, 67
2, 190920, Note_on_c, 0, 62, 67
2, 191000, Note_off_c, 0, 62, 0
2, 191000, Note_off_c, 0, 74, 0
2, 191160, Note_on_c, 0, 74, 68
2, 191160, Note_on_c, 0, 62, 68
2, 191240, Note_off_c, 0, 62, 0
2, 191240, Note_off_c, 0, 74, 0
2, 191280, Note_on_c, 0, 76, 68
2, 191280, Note_on_c, 0, 64, 68
2, 191360, Note_off_c, 0, 64, 0
2, 191360, Note_off_c, 0, 76, 0
2, 191400, Note_on_c, 0, 72, 68
2, 191400, Note_on_c, 0, 60, 68
2, 191480, Note_off_c, 0, 60, 0
2, 191480, Note_off_c, 0, 72, 0
2, 191640, Note_on_c, 0, 72, 69
2, 191640, Note_on_c, 0, 60, 69
2, 191720, Note_off_c, 0, 60, 0
2, 191720, Note_off_c, 0, 72, 0
2, 191760, Note_on_c, 0, 58, 69
2, 191760, Note_on_c, 0, 70, 69
2, 191840, Note_off_c, 0, 70, 0
2, 191840, Note_off_c, 0, 58, 0
2, 191880, Note_on_c, 0, 71, 70
2, 191880, Note_on_c, 0, 59, 70
2, 191960, Note_off_c, 0, 59, 0
2, 191960, Note_off_c, 0, 71, 0
2, 192120, Note_on_c, 0, 71, 70
2, 192120, Note_on_c, 0, 59, 70
2, 192200, Note_off_c, 0, 59, 0
2, 192200, Note_off_c, 0, 71, 0
2, 192240, Note_on_c, 0, 65, 71
2, 192240, Note_on_c, 0, 77, 71
2, 192320, Note_off_c, 0, 77, 0
2, 192320, Note_off_c, 0, 65, 0
2, 192360, Note_on_c, 0, 78, 71
2, 192360, Note_on_c, 0, 66, 71
2, 192440, Note_off_c, 0, 66, 0
2, 192440, Note_off_c, 0, 78, 0
2, 192600, Note_on_c, 0, 78, 71
2, 192600, Note_on_c, 0, 66, 71
2, 192680, Note_off_c, 0, 66, 0
2, 192680, Note_off_c, 0, 78, 0
2, 192720, Note_on_c, 0, 79, 72
2, 192720, Note_on_c, 0, 67, 72
2, 192800, Note_off_c, 0, 67, 0
2, 192800, Note_off_c, 0, 79, 0
2, 192840, Note_on_c, 0, 69, 72
2, 192840, Note_on_c, 0, 81, 72
2, 192920, Note_off_c, 0, 81, 0
2, 192920, Note_off_c, 0, 69, 0
2, 193080, Note_on_c, 0, 69, 73
2, 193080, Note_on_c, 0, 81, 73
2, 193160, Note_off_c, 0, 81, 0
2, 193160, Note_off_c, 0, 69, 0
2, 193200, Note_on_c, 0, 66, 73
2, 193200, Note_on_c, 0, 78, 73
2, 193280, Note_off_c, 0, 78, 0
2, 193280, Note_off_c, 0, 66, 0
2, 193320, Note_on_c, 0, 67, 73
2, 193320, Note_on_c, 0, 79, 73
2, 193400, Note_off_c, 0, 79, 0
2, 193400, Note_off_c, 0, 67, 0
2, 193560, Note_on_c, 0, 68, 74
2, 193560, Note_on_c, 0, 80, 74
2, 193640, Note_off_c, 0, 80, 0
2, 193640, Note_off_c, 0, 68, 0
2, 193680, Note_on_c, 0, 71, 74
2, 193680, Note_on_c, 0, 83, 74
2, 193760, Note_off_c, 0, 83, 0
2, 193760, Note_off_c, 0, 71, 0
2, 193800, Note_on_c, 0, 81, 75
2, 193800, Note_on_c, 0, 69, 75
2, 193880, Note_off_c, 0, 69, 0
2, 193880, Note_off_c, 0, 81, 0
2, 194040, Note_on_c, 0, 81, 75
2, 194040, Note_on_c, 0, 69, 75
2, 194120, Note_off_c, 0, 69, 0
2, 194120, Note_off_c, 0, 81, 0
2, 194160, Note_on_c, 0, 93, 78
2, 194160, Note_on_c, 0, 81, 78
2, 194240, Note_off_c, 0, 81, 0
2, 194240, Note_off_c, 0, 93, 0
2, 194280, Note_on_c, 0, 93, 78
2, 194280, Note_on_c, 0, 81, 78
2, 194360, Note_off_c, 0, 81, 0
2, 194360, Note_off_c, 0, 93, 0
2, 194520, Note_on_c, 0, 93, 78
2, 194520, Note_on_c, 0, 81, 78
2, 194600, Note_off_c, 0, 81, 0
2, 194600, Note_off_c, 0, 93, 0
2, 194640, Note_on_c, 0, 91, 77
2, 194640, Note_on_c, 0, 79, 77
2, 194720, Note_off_c, 0, 79, 0
2, 194720, Note_off_c, 0, 91, 0
2, 194760, Note_on_c, 0, 89, 77
2, 194760, Note_on_c, 0, 77, 77
2, 194840, Note_off_c, 0, 77, 0
2, 194840, Note_off_c, 0, 89, 0
2, 195000, Note_on_c, 0, 89, 75
2, 195000, Note_on_c, 0, 77, 75
2, 195080, Note_off_c, 0, 77, 0
2, 195080, Note_off_c, 0, 89, 0
2, 195120, Note_on_c, 0, 88, 74
2, 195120, Note_on_c, 0, 76, 74
2, 195200, Note_off_c, 0, 76, 0
2, 195200, Note_off_c, 0, 88, 0
2, 195240, Note_on_c, 0, 89, 73
2, 195240, Note_on_c, 0, 77, 73
2, 195320, Note_off_c, 0, 77, 0
2, 195320, Note_off_c, 0, 89, 0
2, 195480, Note_on_c, 0, 86, 71
2, 195480, Note_on_c, 0, 74, 71
2, 195560, Note_off_c, 0, 74, 0
2, 195560, Note_off_c, 0, 86, 0
2, 195600, Note_on_c, 0, 91, 71
2, 195600, Note_on_c, 0, 79, 71
2, 195680, Note_off_c, 0, 79, 0
2, 195680, Note_off_c, 0, 91, 0
2, 195720, Note_on_c, 0, 91, 70
2, 195720, Note_on_c, 0, 79, 70
2, 195800, Note_off_c, 0, 79, 0
2, 195800, Note_off_c, 0, 91, 0
2, 195960, Note_on_c, 0, 91, 68
2, 195960, Note_on_c, 0, 79, 68
2, 196040, Note_off_c, 0, 79, 0
2, 196040, Note_off_c, 0, 91, 0
2, 196080, Note_on_c, 0, 84, 67
2, 196080, Note_on_c, 0, 72, 67
2, 196160, Note_off_c, 0, 72, 0
2, 196160, Note_off_c, 0, 84, 0
2, 196200, Note_on_c, 0, 83, 66
2, 196200, Note_on_c, 0, 71, 66
2, 196320, Note_off_c, 0, 71, 0
2, 196320, Note_off_c, 0, 83, 0
2, 196320, Note_on_c, 0, 86, 65
2, 196320, Note_on_c, 0, 74, 65
2, 196400, Note_off_c, 0, 74, 0
2, 196400, Note_off_c, 0, 86, 0
2, 196440, Note_on_c, 0, 84, 64
2, 196440, Note_on_c, 0, 72, 64
2, 196520, Note_off_c, 0, 72, 0
2, 196520, Note_off_c, 0, 84, 0
2, 196560, Note_on_c, 0, 67, 64
2, 196560, Note_on_c, 0, 79, 64
2, 196640, Note_off_c, 0, 79, 0
2, 196640, Note_off_c, 0, 67, 0
2, 196680, Note_on_c, 0, 76, 63
2, 196680, Note_on_c, 0, 64, 63
2, 196760, Note_off_c, 0, 64, 0
2, 196760, Note_off_c, 0, 76, 0
2, 196800, Note_on_c, 0, 60, 58
2, 196800, Note_on_c, 0, 72, 58
2, 197143, Note_off_c, 0, 60, 0
2, 197150, Note_off_c, 0, 72, 0
2, 199200, Note_on_c, 0, 86, 73
2, 199920, Note_off_c, 0, 86, 0
2, 199920, Note_on_c, 0, 89, 67
2, 200160, Note_off_c, 0, 89, 0
2, 200160, Note_on_c, 0, 88, 67
2, 200400, Note_off_c, 0, 88, 0
2, 200400, Note_on_c, 0, 89, 66
2, 200640, Note_off_c, 0, 89, 0
2, 200640, Note_on_c, 0, 91, 65
2, 200880, Note_off_c, 0, 91, 0
2, 200880, Note_on_c, 0, 89, 64
2, 201120, Note_off_c, 0, 89, 0
2, 201120, Note_on_c, 0, 88, 63
2, 201360, Note_off_c, 0, 88, 0
2, 201360, Note_on_c, 0, 88, 62
2, 201600, Note_off_c, 0, 88, 0
2, 201600, Note_on_c, 0, 89, 66
2, 202080, Note_off_c, 0, 89, 0
2, 202080, Note_on_c, 0, 81, 63
2, 202320, Note_off_c, 0, 81, 0
2, 202320, Note_on_c, 0, 79, 63
2, 202560, Note_off_c, 0, 79, 0
2, 202560, Note_on_c, 0, 81, 63
2, 202800, Note_off_c, 0, 81, 0
2, 202800, Note_on_c, 0, 77, 63
2, 203040, Note_off_c, 0, 77, 0
2, 203520, Note_on_c, 0, 78, 79
2, 204240, Note_off_c, 0, 78, 0
2, 204240, Note_on_c, 0, 81, 72
2, 204480, Note_off_c, 0, 81, 0
2, 204480, Note_on_c, 0, 86, 74
2, 204720, Note_off_c, 0, 86, 0
2, 204720, Note_on_c, 0, 84, 76
2, 204960, Note_off_c, 0, 84, 0
2, 204960, Note_on_c, 0, 83, 75
2, 205080, Note_off_c, 0, 83, 0
2, 205080, Note_on_c, 0, 86, 74
2, 205200, Note_off_c, 0, 86, 0
2, 205200, Note_on_c, 0, 80, 74
2, 205320, Note_off_c, 0, 80, 0
2, 205320, Note_on_c, 0, 83, 73
2, 205440, Note_off_c, 0, 83, 0
2, 205440, Note_on_c, 0, 77, 72
2, 205560, Note_off_c, 0, 77, 0
2, 205560, Note_on_c, 0, 80, 72
2, 205680, Note_off_c, 0, 80, 0
2, 205680, Note_on_c, 0, 74, 71
2, 205800, Note_off_c, 0, 74, 0
2, 205800, Note_on_c, 0, 77, 70
2, 205920, Note_off_c, 0, 77, 0
2, 205920, Note_on_c, 0, 71, 69
2, 206040, Note_off_c, 0, 71, 0
2, 206040, Note_on_c, 0, 74, 69
2, 206160, Note_off_c, 0, 74, 0
2, 206160, Note_on_c, 0, 71, 68
2, 206280, Note_off_c, 0, 71, 0
2, 206280, Note_on_c, 0, 74, 67
2, 206400, Note_off_c, 0, 74, 0
2, 206400, Note_on_c, 0, 74, 67
2, 206520, Note_off_c, 0, 74, 0
2, 206520, Note_on_c, 0, 79, 66
2, 206640, Note_off_c, 0, 79, 0
2, 206640, Note_on_c, 0, 74, 65
2, 206760, Note_off_c, 0, 74, 0
2, 206760, Note_on_c, 0, 79, 64
2, 206880, Note_off_c, 0, 79, 0
2, 206880, Note_on_c, 0, 74, 64
2, 207000, Note_off_c, 0, 74, 0
2, 207000, Note_on_c, 0, 79, 63
2, 207120, Note_off_c, 0, 79, 0
2, 207120, Note_on_c, 0, 74, 62
2, 207240, Note_off_c, 0, 74, 0
2, 207240, Note_on_c, 0, 79, 62
2, 207360, Note_off_c, 0, 79, 0
2, 207360, Note_on_c, 0, 75, 61
2, 207480, Note_off_c, 0, 75, 0
2, 207480, Note_on_c, 0, 79, 60
2, 207600, Note_off_c, 0, 79, 0
2, 207600, Note_on_c, 0, 75, 59
2, 207720, Note_off_c, 0, 75, 0
2, 207720, Note_on_c, 0, 79, 59
2, 207840, Note_off_c, 0, 79, 0
2, 207840, Note_on_c, 0, 75, 58
2, 207960, Note_off_c, 0, 75, 0
2, 207960, Note_on_c, 0, 79, 57
2, 208080, Note_off_c, 0, 79, 0
2, 208080, Note_on_c, 0, 75, 57
2, 208200, Note_off_c, 0, 75, 0
2, 208200, Note_on_c, 0, 79, 56
2, 208320, Note_off_c, 0, 79, 0
2, 208320, Note_on_c, 0, 75, 55
2, 208440, Note_off_c, 0, 75, 0
2, 208440, Note_on_c, 0, 79, 54
2, 208560, Note_off_c, 0, 79, 0
2, 208560, Note_on_c, 0, 75, 54
2, 208680, Note_off_c, 0, 75, 0
2, 208680, Note_on_c, 0, 79, 53
2, 208800, Note_off_c, 0, 79, 0
2, 210240, Note_on_c, 0, 67, 80
2, 210240, Note_on_c, 0, 60, 80
2, 210240, Note_on_c, 0, 72, 80
2, 210240, Note_on_c, 0, 63, 80
2, 210395, Note_off_c, 0, 63, 0
2, 210395, Note_off_c, 0, 72, 0
2, 210395, Note_off_c, 0, 60, 0
2, 210395, Note_off_c, 0, 67, 0
2, 210480, Note_on_c, 0, 60, 73
2, 210600, Note_off_c, 0, 60, 0
2, 210600, Note_on_c, 0, 62, 75
2, 210720, Note_off_c, 0, 62, 0
2, 210720, Note_on_c, 0, 63, 78
2, 210760, Note_off_c, 0, 63, 0
2, 210760, Note_on_c, 0, 65, 78
2, 210800, Note_off_c, 0, 65, 0
2, 210800, Note_on_c, 0, 67, 79
2, 210840, Note_off_c, 0, 67, 0
2, 210840, Note_on_c, 0, 69, 80
2, 210880, Note_off_c, 0, 69, 0
2, 210880, Note_on_c, 0, 71, 80
2, 210920, Note_off_c, 0, 71, 0
2, 210920, Note_on_c, 0, 72, 81
2, 210960, Note_off_c, 0, 72, 0
2, 210960, Note_on_c, 0, 74, 82
2, 211000, Note_off_c, 0, 74, 0
2, 211000, Note_on_c, 0, 75, 83
2, 211040, Note_off_c, 0, 75, 0
2, 211040, Note_on_c, 0, 77, 83
2, 211080, Note_off_c, 0, 77, 0
2, 211080, Note_on_c, 0, 79, 84
2, 211120, Note_off_c, 0, 79, 0
2, 211120, Note_on_c, 0, 81, 85
2, 211160, Note_off_c, 0, 81, 0
2, 211160, Note_on_c, 0, 83, 86
2, 211200, Note_off_c, 0, 83, 0
2, 211200, Note_on_c, 0, 84, 92
2, 211355, Note_off_c, 0, 84, 0
2, 211920, Note_on_c, 0, 62, 71
2, 212040, Note_off_c, 0, 62, 0
2, 212040, Note_on_c, 0, 63, 73
2, 212160, Note_off_c, 0, 63, 0
2, 212160, Note_on_c, 0, 65, 76
2, 212200, Note_off_c, 0, 65, 0
2, 212200, Note_on_c, 0, 67, 77
2, 212240, Note_off_c, 0, 67, 0
2, 212240, Note_on_c, 0, 69, 78
2, 212280, Note_off_c, 0, 69, 0
2, 212280, Note_on_c, 0, 71, 79
2, 212320, Note_off_c, 0, 71, 0
2, 212320, Note_on_c, 0, 72, 80
2, 212360, Note_off_c, 0, 72, 0
2, 212360, Note_on_c, 0, 74, 81
2, 212400, Note_off_c, 0, 74, 0
2, 212400, Note_on_c, 0, 75, 82
2, 212440, Note_off_c, 0, 75, 0
2, 212440, Note_on_c, 0, 77, 83
2, 212480, Note_off_c, 0, 77, 0
2, 212480, Note_on_c, 0, 79, 84
2, 212520, Note_off_c, 0, 79, 0
2, 212520, Note_on_c, 0, 81, 84
2, 212560, Note_off_c, 0, 81, 0
2, 212560, Note_on_c, 0, 83, 85
2, 212600, Note_off_c, 0, 83, 0
2, 212600, Note_on_c, 0, 84, 86
2, 212640, Note_off_c, 0, 84, 0
2, 212640, Note_on_c, 0, 86, 92
2, 212795, Note_off_c, 0, 86, 0
2, 213360, Note_on_c, 0, 64, 76
2, 213480, Note_off_c, 0, 64, 0
2, 213480, Note_on_c, 0, 65, 79
2, 213600, Note_off_c, 0, 65, 0
2, 213600, Note_on_c, 0, 67, 82
2, 213640, Note_off_c, 0, 67, 0
2, 213640, Note_on_c, 0, 69, 83
2, 213680, Note_off_c, 0, 69, 0
2, 213680, Note_on_c, 0, 70, 84
2, 213720, Note_off_c, 0, 70, 0
2, 213720, Note_on_c, 0, 72, 85
2, 213760, Note_off_c, 0, 72, 0
2, 213760, Note_on_c, 0, 74, 86
2, 213800, Note_off_c, 0, 74, 0
2, 213800, Note_on_c, 0, 75, 87
2, 213840, Note_off_c, 0, 75, 0
2, 213840, Note_on_c, 0, 77, 88
2, 213880, Note_off_c, 0, 77, 0
2, 213880, Note_on_c, 0, 79, 89
2, 213920, Note_off_c, 0, 79, 0
2, 213920, Note_on_c, 0, 81, 90
2, 213960, Note_off_c, 0, 81, 0
2, 213960, Note_on_c, 0, 82, 91
2, 214000, Note_off_c, 0, 82, 0
2, 214000, Note_on_c, 0, 84, 92
2, 214040, Note_off_c, 0, 84, 0
2, 214040, Note_on_c, 0, 86, 93
2, 214080, Note_off_c, 0, 86, 0
2, 214080, Note_on_c, 0, 88, 98
2, 214235, Note_off_c, 0, 88, 0
2, 214800, Note_on_c, 0, 65, 77
2, 214920, Note_off_c, 0, 65, 0
2, 214920, Note_on_c, 0, 67, 80
2, 215040, Note_off_c, 0, 67, 0
2, 215040, Note_on_c, 0, 69, 84
2, 215080, Note_off_c, 0, 69, 0
2, 215080, Note_on_c, 0, 70, 85
2, 215120, Note_off_c, 0, 70, 0
2, 215120, Note_on_c, 0, 72, 87
2, 215160, Note_off_c, 0, 72, 0
2, 215160, Note_on_c, 0, 74, 88
2, 215200, Note_off_c, 0, 74, 0
2, 215200, Note_on_c, 0, 76, 89
2, 215240, Note_off_c, 0, 76, 0
2, 215240, Note_on_c, 0, 77, 90
2, 215280, Note_off_c, 0, 77, 0
2, 215280, Note_on_c, 0, 79, 92
2, 215320, Note_off_c, 0, 79, 0
2, 215320, Note_on_c, 0, 81, 93
2, 215360, Note_off_c, 0, 81, 0
2, 215360, Note_on_c, 0, 82, 94
2, 215400, Note_off_c, 0, 82, 0
2, 215400, Note_on_c, 0, 84, 96
2, 215440, Note_off_c, 0, 84, 0
2, 215440, Note_on_c, 0, 86, 97
2, 215480, Note_off_c, 0, 86, 0
2, 215480, Note_on_c, 0, 88, 98
2, 215520, Note_off_c, 0, 88, 0
2, 215520, Note_on_c, 0, 89, 104
2, 215675, Note_off_c, 0, 89, 0
2, 216240, Note_on_c, 0, 66, 90
2, 216360, Note_off_c, 0, 66, 0
2, 216360, Note_on_c, 0, 67, 93
2, 216480, Note_off_c, 0, 67, 0
2, 216480, Note_on_c, 0, 69, 96
2, 216520, Note_off_c, 0, 69, 0
2, 216520, Note_on_c, 0, 71, 97
2, 216560, Note_off_c, 0, 71, 0
2, 216560, Note_on_c, 0, 72, 98
2, 216600, Note_off_c, 0, 72, 0
2, 216600, Note_on_c, 0, 74, 99
2, 216640, Note_off_c, 0, 74, 0
2, 216640, Note_on_c, 0, 76, 99
2, 216680, Note_off_c, 0, 76, 0
2, 216680, Note_on_c, 0, 78, 100
2, 216720, Note_off_c, 0, 78, 0
2, 216720, Note_on_c, 0, 79, 101
2, 216760, Note_off_c, 0, 79, 0
2, 216760, Note_on_c, 0, 81, 102
2, 216800, Note_off_c, 0, 81, 0
2, 216800, Note_on_c, 0, 83, 103
2, 216800, Note_on_c, 0, 84, 103
2, 216840, Note_off_c, 0, 84, 0
2, 216840, Note_off_c, 0, 83, 0
2, 216840, Note_on_c, 0, 86, 104
2, 216880, Note_off_c, 0, 86, 0
2, 216880, Note_on_c, 0, 88, 105
2, 216920, Note_off_c, 0, 88, 0
2, 216920, Note_on_c, 0, 90, 110
2, 217076, Note_off_c, 0, 90, 0
2, 217120, Note_on_c, 0, 79, 99
2, 217160, Note_off_c, 0, 79, 0
2, 217160, Note_on_c, 0, 81, 100
2, 217200, Note_off_c, 0, 81, 0
2, 217200, Note_on_c, 0, 83, 102
2, 217240, Note_off_c, 0, 83, 0
2, 217240, Note_on_c, 0, 84, 103
2, 217280, Note_off_c, 0, 84, 0
2, 217280, Note_on_c, 0, 86, 105
2, 217320, Note_off_c, 0, 86, 0
2, 217320, Note_on_c, 0, 88, 106
2, 217360, Note_off_c, 0, 88, 0
2, 217360, Note_on_c, 0, 90, 108
2, 217400, Note_off_c, 0, 90, 0
2, 217400, Note_on_c, 0, 91, 114
2, 217555, Note_off_c, 0, 91, 0
2, 217600, Note_on_c, 0, 80, 106
2, 217640, Note_off_c, 0, 80, 0
2, 217640, Note_on_c, 0, 82, 107
2, 217680, Note_off_c, 0, 82, 0
2, 217680, Note_on_c, 0, 84, 108
2, 217720, Note_off_c, 0, 84, 0
2, 217720, Note_on_c, 0, 86, 110
2, 217760, Note_off_c, 0, 86, 0
2, 217760, Note_on_c, 0, 87, 111
2, 217800, Note_off_c, 0, 87, 0
2, 217800, Note_on_c, 0, 89, 112
2, 217840, Note_off_c, 0, 89, 0
2, 217840, Note_on_c, 0, 91, 113
2, 217880, Note_off_c, 0, 91, 0
2, 217880, Note_on_c, 0, 92, 120
2, 218035, Note_off_c, 0, 92, 0
2, 218080, Note_on_c, 0, 77, 106
2, 218120, Note_off_c, 0, 77, 0
2, 218120, Note_on_c, 0, 79, 107
2, 218160, Note_off_c, 0, 79, 0
2, 218160, Note_on_c, 0, 80, 109
2, 218200, Note_off_c, 0, 80, 0
2, 218200, Note_on_c, 0, 82, 110
2, 218240, Note_off_c, 0, 82, 0
2, 218240, Note_on_c, 0, 84, 111
2, 218280, Note_off_c, 0, 84, 0
2, 218280, Note_on_c, 0, 86, 113
2, 218320, Note_off_c, 0, 86, 0
2, 218320, Note_on_c, 0, 87, 114
2, 218360, Note_off_c, 0, 87, 0
2, 218360, Note_on_c, 0, 89, 119
2, 218515, Note_off_c, 0, 89, 0
2, 218560, Note_on_c, 0, 74, 106
2, 218600, Note_off_c, 0, 74, 0
2, 218600, Note_on_c, 0, 75, 107
2, 218640, Note_off_c, 0, 75, 0
2, 218640, Note_on_c, 0, 77, 108
2, 218680, Note_off_c, 0, 77, 0
2, 218680, Note_on_c, 0, 79, 109
2, 218720, Note_off_c, 0, 79, 0
2, 218720, Note_on_c, 0, 81, 110
2, 218760, Note_off_c, 0, 81, 0
2, 218760, Note_on_c, 0, 83, 111
2, 218800, Note_off_c, 0, 83, 0
2, 218800, Note_on_c, 0, 84, 112
2, 218840, Note_off_c, 0, 84, 0
2, 218840, Note_on_c, 0, 86, 117
2, 218995, Note_off_c, 0, 86, 0
2, 219040, Note_on_c, 0, 68, 101
2, 219080, Note_off_c, 0, 68, 0
2, 219080, Note_on_c, 0, 70, 102
2, 219120, Note_off_c, 0, 70, 0
2, 219120, Note_on_c, 0, 72, 103
2, 219160, Note_off_c, 0, 72, 0
2, 219160, Note_on_c, 0, 74, 105
2, 219200, Note_off_c, 0, 74, 0
2, 219200, Note_on_c, 0, 75, 106
2, 219240, Note_off_c, 0, 75, 0
2, 219240, Note_on_c, 0, 77, 107
2, 219280, Note_off_c, 0, 77, 0
2, 219280, Note_on_c, 0, 79, 109
2, 219320, Note_off_c, 0, 79, 0
2, 219320, Note_on_c, 0, 80, 113
2, 219475, Note_off_c, 0, 80, 0
2, 219520, Note_on_c, 0, 67, 96
2, 219560, Note_off_c, 0, 67, 0
2, 219560, Note_on_c, 0, 69, 98
2, 219600, Note_off_c, 0, 69, 0
2, 219600, Note_on_c, 0, 71, 99
2, 219640, Note_off_c, 0, 71, 0
2, 219640, Note_on_c, 0, 72, 100
2, 219680, Note_off_c, 0, 72, 0
2, 219680, Note_on_c, 0, 74, 102
2, 219720, Note_off_c, 0, 74, 0
2, 219720, Note_on_c, 0, 75, 103
2, 219760, Note_off_c, 0, 75, 0
2, 219760, Note_on_c, 0, 77, 104
2, 219800, Note_off_c, 0, 77, 0
2, 219800, Note_on_c, 0, 79, 109
2, 219955, Note_off_c, 0, 79, 0
2, 220000, Note_on_c, 0, 60, 89
2, 220040, Note_off_c, 0, 60, 0
2, 220040, Note_on_c, 0, 62, 90
2, 220080, Note_off_c, 0, 62, 0
2, 220080, Note_on_c, 0, 63, 91
2, 220120, Note_off_c, 0, 63, 0
2, 220120, Note_on_c, 0, 65, 92
2, 220160, Note_off_c, 0, 65, 0
2, 220160, Note_on_c, 0, 67, 94
2, 220200, Note_off_c, 0, 67, 0
2, 220200, Note_on_c, 0, 69, 95
2, 220240, Note_off_c, 0, 69, 0
2, 220240, Note_on_c, 0, 71, 96
2, 220280, Note_off_c, 0, 71, 0
2, 220280, Note_on_c, 0, 72, 102
2, 220435, Note_off_c, 0, 72, 0
2, 221760, Note_on_c, 0, 55, 81
2, 221825, Note_off_c, 0, 55, 0
2, 221840, Note_on_c, 0, 60, 80
2, 221905, Note_off_c, 0, 60, 0
2, 221920, Note_on_c, 0, 63, 79
2, 221985, Note_off_c, 0, 63, 0
2, 222000, Note_on_c, 0, 67, 78
2, 222065, Note_off_c, 0, 67, 0
2, 222080, Note_on_c, 0, 72, 77
2, 222145, Note_off_c, 0, 72, 0
2, 222160, Note_on_c, 0, 75, 76
2, 222225, Note_off_c, 0, 75, 0
2, 222240, Note_on_c, 0, 79, 75
2, 222305, Note_off_c, 0, 79, 0
2, 222320, Note_on_c, 0, 75, 75
2, 222385, Note_off_c, 0, 75, 0
2, 222400, Note_on_c, 0, 72, 74
2, 222465, Note_off_c, 0, 72, 0
2, 222480, Note_on_c, 0, 79, 73
2, 222545, Note_off_c, 0, 79, 0
2, 222560, Note_on_c, 0, 75, 69
2, 222625, Note_off_c, 0, 75, 0
2, 222640, Note_on_c, 0, 72, 68
2, 222705, Note_off_c, 0, 72, 0
2, 222720, Note_on_c, 0, 79, 67
2, 222785, Note_off_c, 0, 79, 0
2, 222800, Note_on_c, 0, 74, 67
2, 222865, Note_off_c, 0, 74, 0
2, 222880, Note_on_c, 0, 71, 66
2, 222945, Note_off_c, 0, 71, 0
2, 222960, Note_on_c, 0, 79, 65
2, 223025, Note_off_c, 0, 79, 0
2, 223040, Note_on_c, 0, 75, 64
2, 223105, Note_off_c, 0, 75, 0
2, 223120, Note_on_c, 0, 72, 63
2, 223185, Note_off_c, 0, 72, 0
2, 223200, Note_on_c, 0, 79, 63
2, 223265, Note_off_c, 0, 79, 0
2, 223280, Note_on_c, 0, 74, 79
2, 223345, Note_off_c, 0, 74, 0
2, 223360, Note_on_c, 0, 71, 78
2, 223425, Note_off_c, 0, 71, 0
2, 223440, Note_on_c, 0, 67, 77
2, 223505, Note_off_c, 0, 67, 0
2, 223520, Note_on_c, 0, 62, 76
2, 223585, Note_off_c, 0, 62, 0
2, 223600, Note_on_c, 0, 59, 75
2, 223665, Note_off_c, 0, 59, 0
2, 223680, Note_on_c, 0, 67, 74
2, 223745, Note_off_c, 0, 67, 0
2, 223760, Note_on_c, 0, 62, 73
2, 223825, Note_off_c, 0, 62, 0
2, 223840, Note_on_c, 0, 59, 72
2, 223905, Note_off_c, 0, 59, 0
2, 223920, Note_on_c, 0, 67, 69
2, 223985, Note_off_c, 0, 67, 0
2, 224000, Note_on_c, 0, 62, 68
2, 224065, Note_off_c, 0, 62, 0
2, 224080, Note_on_c, 0, 59, 67
2, 224145, Note_off_c, 0, 59, 0
2, 224160, Note_on_c, 0, 67, 66
2, 224225, Note_off_c, 0, 67, 0
2, 224240, Note_on_c, 0, 61, 65
2, 224305, Note_off_c, 0, 61, 0
2, 224320, Note_on_c, 0, 58, 64
2, 224385, Note_off_c, 0, 58, 0
2, 224400, Note_on_c, 0, 67, 63
2, 224465, Note_off_c, 0, 67, 0
2, 224480, Note_on_c, 0, 62, 62
2, 224545, Note_off_c, 0, 62, 0
2, 224560, Note_on_c, 0, 59, 61
2, 224625, Note_off_c, 0, 59, 0
2, 224640, Note_on_c, 0, 64, 79
2, 224705, Note_off_c, 0, 64, 0
2, 224720, Note_on_c, 0, 70, 79
2, 224785, Note_off_c, 0, 70, 0
2, 224800, Note_on_c, 0, 73, 78
2, 224865, Note_off_c, 0, 73, 0
2, 224880, Note_on_c, 0, 76, 78
2, 224945, Note_off_c, 0, 76, 0
2, 224960, Note_on_c, 0, 82, 77
2, 225025, Note_off_c, 0, 82, 0
2, 225040, Note_on_c, 0, 85, 76
2, 225105, Note_off_c, 0, 85, 0
2, 225120, Note_on_c, 0, 88, 76
2, 225185, Note_off_c, 0, 88, 0
2, 225200, Note_on_c, 0, 85, 75
2, 225265, Note_off_c, 0, 85, 0
2, 225280, Note_on_c, 0, 82, 75
2, 225345, Note_off_c, 0, 82, 0
2, 225360, Note_on_c, 0, 88, 70
2, 225425, Note_off_c, 0, 88, 0
2, 225440, Note_on_c, 0, 85, 69
2, 225505, Note_off_c, 0, 85, 0
2, 225520, Note_on_c, 0, 82, 68
2, 225585, Note_off_c, 0, 82, 0
2, 225600, Note_on_c, 0, 88, 67
2, 225665, Note_off_c, 0, 88, 0
2, 225680, Note_on_c, 0, 84, 66
2, 225745, Note_off_c, 0, 84, 0
2, 225760, Note_on_c, 0, 81, 65
2, 225825, Note_off_c, 0, 81, 0
2, 225840, Note_on_c, 0, 88, 64
2, 225905, Note_off_c, 0, 88, 0
2, 225920, Note_on_c, 0, 85, 63
2, 225985, Note_off_c, 0, 85, 0
2, 226000, Note_on_c, 0, 82, 63
2, 226065, Note_off_c, 0, 82, 0
2, 226080, Note_on_c, 0, 89, 78
2, 226145, Note_off_c, 0, 89, 0
2, 226160, Note_on_c, 0, 84, 78
2, 226225, Note_off_c, 0, 84, 0
2, 226240, Note_on_c, 0, 81, 77
2, 226305, Note_off_c, 0, 81, 0
2, 226320, Note_on_c, 0, 77, 77
2, 226385, Note_off_c, 0, 77, 0
2, 226400, Note_on_c, 0, 72, 76
2, 226465, Note_off_c, 0, 72, 0
2, 226480, Note_on_c, 0, 69, 75
2, 226545, Note_off_c, 0, 69, 0
2, 226560, Note_on_c, 0, 77, 75
2, 226625, Note_off_c, 0, 77, 0
2, 226640, Note_on_c, 0, 72, 74
2, 226705, Note_off_c, 0, 72, 0
2, 226720, Note_on_c, 0, 69, 74
2, 226785, Note_off_c, 0, 69, 0
2, 226800, Note_on_c, 0, 77, 69
2, 226865, Note_off_c, 0, 77, 0
2, 226880, Note_on_c, 0, 72, 68
2, 226945, Note_off_c, 0, 72, 0
2, 226960, Note_on_c, 0, 69, 67
2, 227025, Note_off_c, 0, 69, 0
2, 227040, Note_on_c, 0, 77, 66
2, 227105, Note_off_c, 0, 77, 0
2, 227120, Note_on_c, 0, 71, 65
2, 227185, Note_off_c, 0, 71, 0
2, 227200, Note_on_c, 0, 68, 64
2, 227265, Note_off_c, 0, 68, 0
2, 227280, Note_on_c, 0, 77, 63
2, 227345, Note_off_c, 0, 77, 0
2, 227360, Note_on_c, 0, 72, 62
2, 227425, Note_off_c, 0, 72, 0
2, 227440, Note_on_c, 0, 69, 61
2, 227505, Note_off_c, 0, 69, 0
2, 227520, Note_on_c, 0, 66, 79
2, 227585, Note_off_c, 0, 66, 0
2, 227600, Note_on_c, 0, 69, 78
2, 227665, Note_off_c, 0, 69, 0
2, 227680, Note_on_c, 0, 72, 77
2, 227745, Note_off_c, 0, 72, 0
2, 227760, Note_on_c, 0, 78, 76
2, 227825, Note_off_c, 0, 78, 0
2, 227840, Note_on_c, 0, 81, 76
2, 227905, Note_off_c, 0, 81, 0
2, 227920, Note_on_c, 0, 84, 75
2, 227985, Note_off_c, 0, 84, 0
2, 228000, Note_on_c, 0, 90, 74
2, 228065, Note_off_c, 0, 90, 0
2, 228080, Note_on_c, 0, 84, 73
2, 228145, Note_off_c, 0, 84, 0
2, 228160, Note_on_c, 0, 81, 72
2, 228225, Note_off_c, 0, 81, 0
2, 228240, Note_on_c, 0, 90, 63
2, 228305, Note_off_c, 0, 90, 0
2, 228320, Note_on_c, 0, 84, 63
2, 228385, Note_off_c, 0, 84, 0
2, 228400, Note_on_c, 0, 81, 63
2, 228465, Note_off_c, 0, 81, 0
2, 228480, Note_on_c, 0, 90, 63
2, 228545, Note_off_c, 0, 90, 0
2, 228560, Note_on_c, 0, 86, 63
2, 228625, Note_off_c, 0, 86, 0
2, 228640, Note_on_c, 0, 83, 63
2, 228705, Note_off_c, 0, 83, 0
2, 228720, Note_on_c, 0, 90, 63
2, 228785, Note_off_c, 0, 90, 0
2, 228800, Note_on_c, 0, 87, 63
2, 228865, Note_off_c, 0, 87, 0
2, 228880, Note_on_c, 0, 84, 63
2, 228945, Note_off_c, 0, 84, 0
2, 228960, Note_on_c, 0, 91, 63
2, 229025, Note_off_c, 0, 91, 0
2, 229040, Note_on_c, 0, 86, 62
2, 229105, Note_off_c, 0, 86, 0
2, 229120, Note_on_c, 0, 83, 63
2, 229185, Note_off_c, 0, 83, 0
2, 229200, Note_on_c, 0, 92, 64
2, 229265, Note_off_c, 0, 92, 0
2, 229280, Note_on_c, 0, 89, 65
2, 229345, Note_off_c, 0, 89, 0
2, 229360, Note_on_c, 0, 86, 66
2, 229425, Note_off_c, 0, 86, 0
2, 229440, Note_on_c, 0, 89, 67
2, 229505, Note_off_c, 0, 89, 0
2, 229520, Note_on_c, 0, 86, 68
2, 229585, Note_off_c, 0, 86, 0
2, 229600, Note_on_c, 0, 83, 69
2, 229665, Note_off_c, 0, 83, 0
2, 229680, Note_on_c, 0, 86, 71
2, 229745, Note_off_c, 0, 86, 0
2, 229760, Note_on_c, 0, 83, 72
2, 229825, Note_off_c, 0, 83, 0
2, 229840, Note_on_c, 0, 80, 73
2, 229905, Note_off_c, 0, 80, 0
2, 229920, Note_on_c, 0, 83, 74
2, 229985, Note_off_c, 0, 83, 0
2, 230000, Note_on_c, 0, 80, 75
2, 230065, Note_off_c, 0, 80, 0
2, 230080, Note_on_c, 0, 77, 76
2, 230145, Note_off_c, 0, 77, 0
2, 230160, Note_on_c, 0, 80, 77
2, 230225, Note_off_c, 0, 80, 0
2, 230240, Note_on_c, 0, 77, 78
2, 230305, Note_off_c, 0, 77, 0
2, 230320, Note_on_c, 0, 74, 79
2, 230385, Note_off_c, 0, 74, 0
2, 230400, Note_on_c, 0, 77, 80
2, 230465, Note_off_c, 0, 77, 0
2, 230480, Note_on_c, 0, 74, 82
2, 230545, Note_off_c, 0, 74, 0
2, 230560, Note_on_c, 0, 71, 83
2, 230625, Note_off_c, 0, 71, 0
2, 230640, Note_on_c, 0, 74, 84
2, 230705, Note_off_c, 0, 74, 0
2, 230720, Note_on_c, 0, 71, 85
2, 230785, Note_off_c, 0, 71, 0
2, 230800, Note_on_c, 0, 68, 86
2, 230865, Note_off_c, 0, 68, 0
2, 230880, Note_on_c, 0, 71, 87
2, 230945, Note_off_c, 0, 71, 0
2, 230960, Note_on_c, 0, 68, 88
2, 231025, Note_off_c, 0, 68, 0
2, 231040, Note_on_c, 0, 65, 89
2, 231105, Note_off_c, 0, 65, 0
2, 231120, Note_on_c, 0, 71, 90
2, 231185, Note_off_c, 0, 71, 0
2, 231200, Note_on_c, 0, 68, 91
2, 231265, Note_off_c, 0, 68, 0
2, 231280, Note_on_c, 0, 65, 93
2, 231345, Note_off_c, 0, 65, 0
2, 231360, Note_on_c, 0, 72, 94
2, 231425, Note_off_c, 0, 72, 0
2, 231440, Note_on_c, 0, 67, 95
2, 231505, Note_off_c, 0, 67, 0
2, 231520, Note_on_c, 0, 63, 96
2, 231585, Note_off_c, 0, 63, 0
2, 231600, Note_on_c, 0, 71, 97
2, 231665, Note_off_c, 0, 71, 0
2, 231680, Note_on_c, 0, 65, 98
2, 231745, Note_off_c, 0, 65, 0
2, 231760, Note_on_c, 0, 62, 99
2, 231825, Note_off_c, 0, 62, 0
2, 231840, Note_on_c, 0, 72, 100
2, 231905, Note_off_c, 0, 72, 0
2, 231920, Note_on_c, 0, 63, 100
2, 231985, Note_off_c, 0, 63, 0
2, 232000, Note_on_c, 0, 60, 100
2, 232065, Note_off_c, 0, 60, 0
2, 232080, Note_on_c, 0, 74, 99
2, 232145, Note_off_c, 0, 74, 0
2, 232160, Note_on_c, 0, 65, 99
2, 232225, Note_off_c, 0, 65, 0
2, 232240, Note_on_c, 0, 62, 98
2, 232305, Note_off_c, 0, 62, 0
2, 232320, Note_on_c, 0, 75, 98
2, 232385, Note_off_c, 0, 75, 0
2, 232400, Note_on_c, 0, 67, 98
2, 232465, Note_off_c, 0, 67, 0
2, 232480, Note_on_c, 0, 63, 97
2, 232545, Note_off_c, 0, 63, 0
2, 232560, Note_on_c, 0, 71, 97
2, 232625, Note_off_c, 0, 71, 0
2, 232640, Note_on_c, 0, 62, 96
2, 232705, Note_off_c, 0, 62, 0
2, 232720, Note_on_c, 0, 59, 96
2, 232785, Note_off_c, 0, 59, 0
2, 232800, Note_on_c, 0, 60, 93
2, 232800, Note_on_c, 0, 63, 93
2, 232800, Note_on_c, 0, 72, 93
2, 232987, Note_off_c, 0, 72, 0
2, 232987, Note_off_c, 0, 63, 0
2, 232987, Note_off_c, 0, 60, 0
2, 233520, Note_on_c, 0, 72, 64
2, 233520, Note_on_c, 0, 79, 64
2, 233520, Note_on_c, 0, 84, 64
2, 233520, Note_on_c, 0, 75, 64
2, 233825, Note_off_c, 0, 75, 0
2, 233825, Note_off_c, 0, 84, 0
2, 233825, Note_off_c, 0, 79, 0
2, 233825, Note_off_c, 0, 72, 0
2, 234000, Note_on_c, 0, 72, 64
2, 234000, Note_on_c, 0, 79, 64
2, 234000, Note_on_c, 0, 84, 64
2, 234000, Note_on_c, 0, 75, 64
2, 234305, Note_off_c, 0, 75, 0
2, 234305, Note_off_c, 0, 84, 0
2, 234305, Note_off_c, 0, 79, 0
2, 234305, Note_off_c, 0, 72, 0
2, 234480, Note_on_c, 0, 79, 64
2, 234480, Note_on_c, 0, 75, 64
2, 234480, Note_on_c, 0, 84, 64
2, 234635, Note_off_c, 0, 84, 0
2, 234635, Note_off_c, 0, 75, 0
2, 234635, Note_off_c, 0, 79, 0
2, 234960, Note_on_c, 0, 71, 68
2, 234960, Note_on_c, 0, 79, 68
2, 234960, Note_on_c, 0, 83, 68
2, 234960, Note_on_c, 0, 74, 68
2, 235265, Note_off_c, 0, 74, 0
2, 235265, Note_off_c, 0, 83, 0
2, 235265, Note_off_c, 0, 79, 0
2, 235265, Note_off_c, 0, 71, 0
2, 235440, Note_on_c, 0, 71, 68
2, 235440, Note_on_c, 0, 79, 68
2, 235440, Note_on_c, 0, 74, 68
2, 235440, Note_on_c, 0, 83, 68
2, 235745, Note_off_c, 0, 83, 0
2, 235745, Note_off_c, 0, 74, 0
2, 235745, Note_off_c, 0, 79, 0
2, 235745, Note_off_c, 0, 71, 0
2, 235920, Note_on_c, 0, 79, 68
2, 235920, Note_on_c, 0, 71, 68
2, 235920, Note_on_c, 0, 74, 68
2, 235920, Note_on_c, 0, 83, 68
2, 236075, Note_off_c, 0, 83, 0
2, 236075, Note_off_c, 0, 74, 0
2, 236075, Note_off_c, 0, 71, 0
2, 236075, Note_off_c, 0, 79, 0
2, 236400, Note_on_c, 0, 76, 71
2, 236400, Note_on_c, 0, 79, 71
2, 236400, Note_on_c, 0, 70, 71
2, 236400, Note_on_c, 0, 82, 71
2, 236705, Note_off_c, 0, 82, 0
2, 236705, Note_off_c, 0, 70, 0
2, 236705, Note_off_c, 0, 79, 0
2, 236705, Note_off_c, 0, 76, 0
2, 236880, Note_on_c, 0, 79, 71
2, 236880, Note_on_c, 0, 76, 71
2, 236880, Note_on_c, 0, 82, 71
2, 236880, Note_on_c, 0, 70, 71
2, 237185, Note_off_c, 0, 70, 0
2, 237185, Note_off_c, 0, 82, 0
2, 237185, Note_off_c, 0, 76, 0
2, 237185, Note_off_c, 0, 79, 0
2, 237360, Note_on_c, 0, 70, 71
2, 237360, Note_on_c, 0, 76, 71
2, 237360, Note_on_c, 0, 79, 71
2, 237360, Note_on_c, 0, 82, 71
2, 237515, Note_off_c, 0, 82, 0
2, 237515, Note_off_c, 0, 79, 0
2, 237515, Note_off_c, 0, 76, 0
2, 237515, Note_off_c, 0, 70, 0
2, 237840, Note_on_c, 0, 69, 77
2, 237840, Note_on_c, 0, 72, 77
2, 237840, Note_on_c, 0, 77, 77
2, 237840, Note_on_c, 0, 81, 77
2, 238165, Note_off_c, 0, 81, 0
2, 238165, Note_off_c, 0, 77, 0
2, 238165, Note_off_c, 0, 72, 0
2, 238165, Note_off_c, 0, 69, 0
2, 238320, Note_on_c, 0, 77, 77
2, 238320, Note_on_c, 0, 69, 77
2, 238320, Note_on_c, 0, 81, 77
2, 238320, Note_on_c, 0, 72, 77
2, 238645, Note_off_c, 0, 72, 0
2, 238645, Note_off_c, 0, 81, 0
2, 238645, Note_off_c, 0, 69, 0
2, 238645, Note_off_c, 0, 77, 0
2, 238800, Note_on_c, 0, 69, 77
2, 238800, Note_on_c, 0, 77, 77
2, 238800, Note_on_c, 0, 81, 77
2, 238800, Note_on_c, 0, 72, 77
2, 238955, Note_off_c, 0, 72, 0
2, 238955, Note_off_c, 0, 81, 0
2, 238955, Note_off_c, 0, 77, 0
2, 238955, Note_off_c, 0, 69, 0
2, 239280, Note_on_c, 0, 72, 80
2, 239280, Note_on_c, 0, 75, 80
2, 239280, Note_on_c, 0, 78, 80
2, 239280, Note_on_c, 0, 66, 80
2, 239585, Note_off_c, 0, 66, 0
2, 239585, Note_off_c, 0, 78, 0
2, 239585, Note_off_c, 0, 75, 0
2, 239585, Note_off_c, 0, 72, 0
2, 239760, Note_on_c, 0, 72, 84
2, 239760, Note_on_c, 0, 75, 84
2, 239760, Note_on_c, 0, 66, 84
2, 239760, Note_on_c, 0, 78, 84
2, 240065, Note_off_c, 0, 78, 0
2, 240065, Note_off_c, 0, 66, 0
2, 240065, Note_off_c, 0, 75, 0
2, 240065, Note_off_c, 0, 72, 0
2, 240240, Note_on_c, 0, 72, 88
2, 240240, Note_on_c, 0, 75, 88
2, 240240, Note_on_c, 0, 78, 88
2, 240240, Note_on_c, 0, 66, 88
2, 240395, Note_off_c, 0, 66, 0
2, 240395, Note_off_c, 0, 78, 0
2, 240395, Note_off_c, 0, 75, 0
2, 240395, Note_off_c, 0, 72, 0
2, 240480, Note_on_c, 0, 67, 92
2, 240480, Note_on_c, 0, 79, 92
2, 240480, Note_on_c, 0, 74, 92
2, 240635, Note_off_c, 0, 74, 0
2, 240635, Note_off_c, 0, 79, 0
2, 240635, Note_off_c, 0, 67, 0
2, 240960, Note_on_c, 0, 74, 103
2, 240960, Note_on_c, 0, 80, 103
2, 240960, Note_on_c, 0, 71, 103
2, 240960, Note_on_c, 0, 83, 103
2, 240960, Note_on_c, 0, 77, 103
2, 241115, Note_off_c, 0, 77, 0
2, 241115, Note_off_c, 0, 83, 0
2, 241115, Note_off_c, 0, 71, 0
2, 241115, Note_off_c, 0, 80, 0
2, 241115, Note_off_c, 0, 74, 0
2, 242880, Note_on_c, 0, 83, 86
2, 242880, Note_on_c, 0, 74, 86
2, 242880, Note_on_c, 0, 77, 86
2, 242880, Note_on_c, 0, 71, 86
2, 242880, Note_on_c, 0, 79, 86
2, 243035, Note_off_c, 0, 79, 0
2, 243035, Note_off_c, 0, 71, 0
2, 243035, Note_off_c, 0, 77, 0
2, 243035, Note_off_c, 0, 74, 0
2, 243035, Note_off_c, 0, 83, 0
2, 243840, Note_on_c, 0, 75, 77
2, 243840, Note_on_c, 0, 84, 77
2, 243840, Note_on_c, 0, 79, 77
2, 243840, Note_on_c, 0, 72, 77
2, 243995, Note_off_c, 0, 72, 0
2, 243995, Note_off_c, 0, 79, 0
2, 243995, Note_off_c, 0, 84, 0
2, 243995, Note_off_c, 0, 75, 0
2, 244800, Note_on_c, 0, 60, 69
2, 244880, Note_off_c, 0, 60, 0
2, 244880, Note_on_c, 0, 59, 70
2, 244960, Note_off_c, 0, 59, 0
2, 244960, Note_on_c, 0, 60, 70
2, 245040, Note_off_c, 0, 60, 0
2, 245040, Note_on_c, 0, 62, 71
2, 245120, Note_off_c, 0, 62, 0
2, 245120, Note_on_c, 0, 60, 72
2, 245200, Note_off_c, 0, 60, 0
2, 245200, Note_on_c, 0, 62, 73
2, 245280, Note_off_c, 0, 62, 0
2, 245280, Note_on_c, 0, 63, 73
2, 245360, Note_off_c, 0, 63, 0
2, 245360, Note_on_c, 0, 62, 74
2, 245440, Note_off_c, 0, 62, 0
2, 245440, Note_on_c, 0, 63, 75
2, 245520, Note_off_c, 0, 63, 0
2, 245520, Note_on_c, 0, 65, 76
2, 245600, Note_off_c, 0, 65, 0
2, 245600, Note_on_c, 0, 63, 76
2, 245680, Note_off_c, 0, 63, 0
2, 245680, Note_on_c, 0, 65, 77
2, 245760, Note_off_c, 0, 65, 0
2, 245760, Note_on_c, 0, 67, 83
2, 245915, Note_off_c, 0, 67, 0
2, 246000, Note_on_c, 0, 60, 73
2, 246155, Note_off_c, 0, 60, 0
2, 246240, Note_on_c, 0, 67, 72
2, 246320, Note_off_c, 0, 67, 0
2, 246320, Note_on_c, 0, 66, 73
2, 246400, Note_off_c, 0, 66, 0
2, 246400, Note_on_c, 0, 67, 74
2, 246480, Note_off_c, 0, 67, 0
2, 246480, Note_on_c, 0, 69, 75
2, 246560, Note_off_c, 0, 69, 0
2, 246560, Note_on_c, 0, 67, 76
2, 246640, Note_off_c, 0, 67, 0
2, 246640, Note_on_c, 0, 69, 77
2, 246720, Note_off_c, 0, 69, 0
2, 246720, Note_on_c, 0, 71, 79
2, 246800, Note_off_c, 0, 71, 0
2, 246800, Note_on_c, 0, 69, 80
2, 246880, Note_off_c, 0, 69, 0
2, 246880, Note_on_c, 0, 71, 81
2, 246960, Note_off_c, 0, 71, 0
2, 246960, Note_on_c, 0, 72, 82
2, 247040, Note_off_c, 0, 72, 0
2, 247040, Note_on_c, 0, 71, 83
2, 247120, Note_off_c, 0, 71, 0
2, 247120, Note_on_c, 0, 72, 84
2, 247200, Note_off_c, 0, 72, 0
2, 247200, Note_on_c, 0, 74, 91
2, 247355, Note_off_c, 0, 74, 0
2, 247440, Note_on_c, 0, 67, 80
2, 247595, Note_off_c, 0, 67, 0
2, 247680, Note_on_c, 0, 72, 75
2, 247760, Note_off_c, 0, 72, 0
2, 247760, Note_on_c, 0, 71, 76
2, 247840, Note_off_c, 0, 71, 0
2, 247840, Note_on_c, 0, 72, 78
2, 247920, Note_off_c, 0, 72, 0
2, 247920, Note_on_c, 0, 74, 79
2, 248000, Note_off_c, 0, 74, 0
2, 248000, Note_on_c, 0, 72, 81
2, 248080, Note_off_c, 0, 72, 0
2, 248080, Note_on_c, 0, 74, 83
2, 248160, Note_off_c, 0, 74, 0
2, 248160, Note_on_c, 0, 76, 84
2, 248240, Note_off_c, 0, 76, 0
2, 248240, Note_on_c, 0, 74, 86
2, 248320, Note_off_c, 0, 74, 0
2, 248320, Note_on_c, 0, 76, 87
2, 248400, Note_off_c, 0, 76, 0
2, 248400, Note_on_c, 0, 77, 89
2, 248480, Note_off_c, 0, 77, 0
2, 248480, Note_on_c, 0, 76, 91
2, 248560, Note_off_c, 0, 76, 0
2, 248560, Note_on_c, 0, 77, 92
2, 248640, Note_off_c, 0, 77, 0
2, 248640, Note_on_c, 0, 79, 99
2, 248795, Note_off_c, 0, 79, 0
2, 248880, Note_on_c, 0, 72, 86
2, 249035, Note_off_c, 0, 72, 0
2, 249120, Note_on_c, 0, 77, 85
2, 249200, Note_off_c, 0, 77, 0
2, 249200, Note_on_c, 0, 76, 86
2, 249280, Note_off_c, 0, 76, 0
2, 249280, Note_on_c, 0, 77, 87
2, 249360, Note_off_c, 0, 77, 0
2, 249360, Note_on_c, 0, 79, 89
2, 249440, Note_off_c, 0, 79, 0
2, 249440, Note_on_c, 0, 77, 90
2, 249520, Note_off_c, 0, 77, 0
2, 249520, Note_on_c, 0, 79, 91
2, 249600, Note_off_c, 0, 79, 0
2, 249600, Note_on_c, 0, 81, 93
2, 249680, Note_off_c, 0, 81, 0
2, 249680, Note_on_c, 0, 79, 94
2, 249760, Note_off_c, 0, 79, 0
2, 249760, Note_on_c, 0, 81, 95
2, 249840, Note_off_c, 0, 81, 0
2, 249840, Note_on_c, 0, 82, 97
2, 249920, Note_off_c, 0, 82, 0
2, 249920, Note_on_c, 0, 81, 98
2, 250000, Note_off_c, 0, 81, 0
2, 250000, Note_on_c, 0, 82, 99
2, 250080, Note_off_c, 0, 82, 0
2, 250080, Note_on_c, 0, 84, 106
2, 250235, Note_off_c, 0, 84, 0
2, 250320, Note_on_c, 0, 77, 96
2, 250475, Note_off_c, 0, 77, 0
2, 250560, Note_on_c, 0, 78, 92
2, 250640, Note_off_c, 0, 78, 0
2, 250640, Note_on_c, 0, 77, 93
2, 250720, Note_off_c, 0, 77, 0
2, 250720, Note_on_c, 0, 78, 95
2, 250800, Note_off_c, 0, 78, 0
2, 250800, Note_on_c, 0, 79, 96
2, 250880, Note_off_c, 0, 79, 0
2, 250880, Note_on_c, 0, 78, 98
2, 250960, Note_off_c, 0, 78, 0
2, 250960, Note_on_c, 0, 79, 99
2, 251040, Note_off_c, 0, 79, 0
2, 251040, Note_on_c, 0, 81, 100
2, 251120, Note_off_c, 0, 81, 0
2, 251120, Note_on_c, 0, 80, 102
2, 251200, Note_off_c, 0, 80, 0
2, 251200, Note_on_c, 0, 81, 103
2, 251280, Note_off_c, 0, 81, 0
2, 251280, Note_on_c, 0, 83, 105
2, 251360, Note_off_c, 0, 83, 0
2, 251360, Note_on_c, 0, 81, 106
2, 251440, Note_off_c, 0, 81, 0
2, 251440, Note_on_c, 0, 83, 108
2, 251520, Note_off_c, 0, 83, 0
2, 251520, Note_on_c, 0, 84, 114
2, 251675, Note_off_c, 0, 84, 0
2, 251760, Note_on_c, 0, 78, 103
2, 251915, Note_off_c, 0, 78, 0
2, 252000, Note_on_c, 0, 79, 90
2, 252080, Note_off_c, 0, 79, 0
2, 252080, Note_on_c, 0, 81, 92
2, 252160, Note_off_c, 0, 81, 0
2, 252160, Note_on_c, 0, 79, 95
2, 252240, Note_off_c, 0, 79, 0
2, 252240, Note_on_c, 0, 77, 97
2, 252320, Note_off_c, 0, 77, 0
2, 252320, Note_on_c, 0, 79, 100
2, 252400, Note_off_c, 0, 79, 0
2, 252400, Note_on_c, 0, 77, 103
2, 252480, Note_off_c, 0, 77, 0
2, 252480, Note_on_c, 0, 80, 127
2, 252560, Note_off_c, 0, 80, 0
2, 252560, Note_on_c, 0, 82, 108
2, 252640, Note_off_c, 0, 82, 0
2, 252640, Note_on_c, 0, 80, 109
2, 252720, Note_off_c, 0, 80, 0
2, 252720, Note_on_c, 0, 79, 110
2, 252800, Note_off_c, 0, 79, 0
2, 252800, Note_on_c, 0, 80, 111
2, 252880, Note_off_c, 0, 80, 0
2, 252880, Note_on_c, 0, 79, 111
2, 252960, Note_off_c, 0, 79, 0
2, 252960, Note_on_c, 0, 77, 112
2, 253040, Note_off_c, 0, 77, 0
2, 253040, Note_on_c, 0, 79, 113
2, 253120, Note_off_c, 0, 79, 0
2, 253120, Note_on_c, 0, 77, 114
2, 253200, Note_off_c, 0, 77, 0
2, 253200, Note_on_c, 0, 75, 115
2, 253280, Note_off_c, 0, 75, 0
2, 253280, Note_on_c, 0, 77, 116
2, 253360, Note_off_c, 0, 77, 0
2, 253360, Note_on_c, 0, 75, 117
2, 253440, Note_off_c, 0, 75, 0
2, 253440, Note_on_c, 0, 74, 120
2, 253520, Note_off_c, 0, 74, 0
2, 253520, Note_on_c, 0, 75, 119
2, 253600, Note_off_c, 0, 75, 0
2, 253600, Note_on_c, 0, 74, 118
2, 253680, Note_off_c, 0, 74, 0
2, 253680, Note_on_c, 0, 72, 117
2, 253760, Note_off_c, 0, 72, 0
2, 253760, Note_on_c, 0, 74, 116
2, 253840, Note_off_c, 0, 74, 0
2, 253840, Note_on_c, 0, 72, 115
2, 253920, Note_off_c, 0, 72, 0
2, 253920, Note_on_c, 0, 71, 114
2, 254000, Note_off_c, 0, 71, 0
2, 254000, Note_on_c, 0, 72, 113
2, 254080, Note_off_c, 0, 72, 0
2, 254080, Note_on_c, 0, 71, 113
2, 254160, Note_off_c, 0, 71, 0
2, 254160, Note_on_c, 0, 68, 112
2, 254240, Note_off_c, 0, 68, 0
2, 254240, Note_on_c, 0, 70, 111
2, 254320, Note_off_c, 0, 70, 0
2, 254320, Note_on_c, 0, 68, 110
2, 254400, Note_off_c, 0, 68, 0
2, 254400, Note_on_c, 0, 67, 109
2, 254480, Note_off_c, 0, 67, 0
2, 254480, Note_on_c, 0, 68, 108
2, 254560, Note_off_c, 0, 68, 0
2, 254560, Note_on_c, 0, 67, 107
2, 254640, Note_off_c, 0, 67, 0
2, 254640, Note_on_c, 0, 83, 106
2, 254720, Note_off_c, 0, 83, 0
2, 254720, Note_on_c, 0, 84, 106
2, 254800, Note_off_c, 0, 84, 0
2, 254800, Note_on_c, 0, 83, 105
2, 254880, Note_off_c, 0, 83, 0
2, 254880, Note_on_c, 0, 84, 104
2, 254960, Note_off_c, 0, 84, 0
2, 254960, Note_on_c, 0, 86, 102
2, 255040, Note_off_c, 0, 86, 0
2, 255040, Note_on_c, 0, 84, 100
2, 255120, Note_off_c, 0, 84, 0
2, 255120, Note_on_c, 0, 79, 99
2, 255200, Note_off_c, 0, 79, 0
2, 255200, Note_on_c, 0, 80, 97
2, 255280, Note_off_c, 0, 80, 0
2, 255280, Note_on_c, 0, 79, 95
2, 255360, Note_off_c, 0, 79, 0
2, 255360, Note_on_c, 0, 75, 93
2, 255440, Note_off_c, 0, 75, 0
2, 255440, Note_on_c, 0, 77, 92
2, 255520, Note_off_c, 0, 77, 0
2, 255520, Note_on_c, 0, 75, 90
2, 255600, Note_off_c, 0, 75, 0
2, 255600, Note_on_c, 0, 72, 88
2, 255680, Note_off_c, 0, 72, 0
2, 255680, Note_on_c, 0, 74, 86
2, 255760, Note_off_c, 0, 74, 0
2, 255760, Note_on_c, 0, 72, 85
2, 255840, Note_off_c, 0, 72, 0
2, 255840, Note_on_c, 0, 67, 83
2, 255920, Note_off_c, 0, 67, 0
2, 255920, Note_on_c, 0, 68, 81
2, 256000, Note_off_c, 0, 68, 0
2, 256000, Note_on_c, 0, 67, 79
2, 256080, Note_off_c, 0, 67, 0
2, 256080, Note_on_c, 0, 63, 77
2, 256160, Note_off_c, 0, 63, 0
2, 256160, Note_on_c, 0, 65, 76
2, 256240, Note_off_c, 0, 65, 0
2, 256240, Note_on_c, 0, 63, 74
2, 256320, Note_off_c, 0, 63, 0
2, 256320, Note_on_c, 0, 72, 72
2, 256320, Note_on_c, 0, 60, 72
2, 256400, Note_off_c, 0, 60, 0
2, 256400, Note_off_c, 0, 72, 0
2, 256560, Note_on_c, 0, 62, 71
2, 256560, Note_on_c, 0, 74, 71
2, 256640, Note_off_c, 0, 74, 0
2, 256640, Note_off_c, 0, 62, 0
2, 256800, Note_on_c, 0, 75, 75
2, 256800, Note_on_c, 0, 63, 75
2, 256880, Note_off_c, 0, 63, 0
2, 256880, Note_off_c, 0, 75, 0
2, 257040, Note_on_c, 0, 65, 79
2, 257040, Note_on_c, 0, 77, 79
2, 257120, Note_off_c, 0, 77, 0
2, 257120, Note_off_c, 0, 65, 0
2, 257280, Note_on_c, 0, 79, 89
2, 257280, Note_on_c, 0, 67, 89
2, 257760, Note_off_c, 0, 67, 0
2, 257760, Note_off_c, 0, 79, 0
2, 257760, Note_on_c, 0, 67, 75
2, 257760, Note_on_c, 0, 79, 75
2, 257840, Note_off_c, 0, 79, 0
2, 257840, Note_off_c, 0, 67, 0
2, 258000, Note_on_c, 0, 81, 78
2, 258000, Note_on_c, 0, 69, 78
2, 258080, Note_off_c, 0, 69, 0
2, 258080, Note_off_c, 0, 81, 0
2, 258240, Note_on_c, 0, 83, 81
2, 258240, Note_on_c, 0, 71, 81
2, 258320, Note_off_c, 0, 71, 0
2, 258320, Note_off_c, 0, 83, 0
2, 258480, Note_on_c, 0, 84, 84
2, 258480, Note_on_c, 0, 72, 84
2, 258560, Note_off_c, 0, 72, 0
2, 258560, Note_off_c, 0, 84, 0
2, 258720, Note_on_c, 0, 86, 92
2, 258720, Note_on_c, 0, 74, 92
2, 259200, Note_off_c, 0, 74, 0
2, 259200, Note_off_c, 0, 86, 0
2, 259200, Note_on_c, 0, 58, 77
2, 259200, Note_on_c, 0, 70, 77
2, 259280, Note_off_c, 0, 70, 0
2, 259280, Note_off_c, 0, 58, 0
2, 259440, Note_on_c, 0, 60, 79
2, 259440, Note_on_c, 0, 72, 79
2, 259520, Note_off_c, 0, 72, 0
2, 259520, Note_off_c, 0, 60, 0
2, 259680, Note_on_c, 0, 61, 82
2, 259680, Note_on_c, 0, 73, 82
2, 259760, Note_off_c, 0, 73, 0
2, 259760, Note_off_c, 0, 61, 0
2, 259920, Note_on_c, 0, 63, 85
2, 259920, Note_on_c, 0, 75, 85
2, 260000, Note_off_c, 0, 75, 0
2, 260000, Note_off_c, 0, 63, 0
2, 260160, Note_on_c, 0, 65, 95
2, 260160, Note_on_c, 0, 77, 95
2, 260640, Note_off_c, 0, 77, 0
2, 260640, Note_off_c, 0, 65, 0
2, 260640, Note_on_c, 0, 77, 81
2, 260640, Note_on_c, 0, 65, 81
2, 260720, Note_off_c, 0, 65, 0
2, 260720, Note_off_c, 0, 77, 0
2, 260880, Note_on_c, 0, 67, 83
2, 260880, Note_on_c, 0, 79, 83
2, 260960, Note_off_c, 0, 79, 0
2, 260960, Note_off_c, 0, 67, 0
2, 261120, Note_on_c, 0, 80, 86
2, 261120, Note_on_c, 0, 68, 86
2, 261200, Note_off_c, 0, 68, 0
2, 261200, Note_off_c, 0, 80, 0
2, 261360, Note_on_c, 0, 82, 88
2, 261360, Note_on_c, 0, 70, 88
2, 261440, Note_off_c, 0, 70, 0
2, 261440, Note_off_c, 0, 82, 0
2, 261600, Note_on_c, 0, 84, 98
2, 261600, Note_on_c, 0, 72, 98
2, 262080, Note_off_c, 0, 72, 0
2, 262080, Note_off_c, 0, 84, 0
2, 262080, Note_on_c, 0, 81, 85
2, 262080, Note_on_c, 0, 69, 85
2, 262160, Note_off_c, 0, 69, 0
2, 262160, Note_off_c, 0, 81, 0
2, 262320, Note_on_c, 0, 83, 89
2, 262320, Note_on_c, 0, 71, 89
2, 262400, Note_off_c, 0, 71, 0
2, 262400, Note_off_c, 0, 83, 0
2, 262560, Note_on_c, 0, 84, 93
2, 262560, Note_on_c, 0, 72, 93
2, 262640, Note_off_c, 0, 72, 0
2, 262640, Note_off_c, 0, 84, 0
2, 262800, Note_on_c, 0, 74, 96
2, 262800, Note_on_c, 0, 86, 96
2, 262880, Note_off_c, 0, 86, 0
2, 262880, Note_off_c, 0, 74, 0
2, 263040, Note_on_c, 0, 87, 106
2, 263040, Note_on_c, 0, 75, 106
2, 263520, Note_off_c, 0, 75, 0
2, 263520, Note_off_c, 0, 87, 0
2, 263520, Note_on_c, 0, 83, 95
2, 263520, Note_on_c, 0, 71, 95
2, 263600, Note_off_c, 0, 71, 0
2, 263600, Note_off_c, 0, 83, 0
2, 263760, Note_on_c, 0, 84, 98
2, 263760, Note_on_c, 0, 72, 98
2, 263840, Note_off_c, 0, 72, 0
2, 263840, Note_off_c, 0, 84, 0
2, 264000, Note_on_c, 0, 86, 101
2, 264000, Note_on_c, 0, 74, 101
2, 264080, Note_off_c, 0, 74, 0
2, 264080, Note_off_c, 0, 86, 0
2, 264240, Note_on_c, 0, 87, 104
2, 264240, Note_on_c, 0, 75, 104
2, 264320, Note_off_c, 0, 75, 0
2, 264320, Note_off_c, 0, 87, 0
2, 264480, Note_on_c, 0, 89, 107
2, 264480, Note_on_c, 0, 77, 107
2, 264560, Note_off_c, 0, 77, 0
2, 264560, Note_off_c, 0, 89, 0
2, 264720, Note_on_c, 0, 91, 110
2, 264720, Note_on_c, 0, 79, 110
2, 264800, Note_off_c, 0, 79, 0
2, 264800, Note_off_c, 0, 91, 0
2, 264960, Note_on_c, 0, 92, 121
2, 264960, Note_on_c, 0, 80, 121
2, 265680, Note_off_c, 0, 80, 0
2, 265680, Note_off_c, 0, 92, 0
2, 265680, Note_on_c, 0, 91, 118
2, 265680, Note_on_c, 0, 79, 118
2, 265760, Note_off_c, 0, 79, 0
2, 265760, Note_off_c, 0, 91, 0
2, 265920, Note_on_c, 0, 89, 112
2, 265920, Note_on_c, 0, 77, 112
2, 266000, Note_off_c, 0, 77, 0
2, 266000, Note_off_c, 0, 89, 0
2, 266160, Note_on_c, 0, 87, 107
2, 266160, Note_on_c, 0, 75, 107
2, 266240, Note_off_c, 0, 75, 0
2, 266240, Note_off_c, 0, 87, 0
2, 266400, Note_on_c, 0, 86, 101
2, 266400, Note_on_c, 0, 74, 101
2, 266480, Note_off_c, 0, 74, 0
2, 266480, Note_off_c, 0, 86, 0
2, 266640, Note_on_c, 0, 72, 95
2, 266640, Note_on_c, 0, 84, 95
2, 266720, Note_off_c, 0, 84, 0
2, 266720, Note_off_c, 0, 72, 0
2, 266880, Note_on_c, 0, 83, 89
2, 266880, Note_on_c, 0, 71, 89
2, 266960, Note_off_c, 0, 71, 0
2, 266960, Note_off_c, 0, 83, 0
2, 267120, Note_on_c, 0, 72, 83
2, 267120, Note_on_c, 0, 84, 83
2, 267187, Note_off_c, 0, 84, 0
2, 267187, Note_off_c, 0, 72, 0
2, 267840, Note_on_c, 0, 63, 40
2, 267960, Note_off_c, 0, 63, 0
2, 267960, Note_on_c, 0, 67, 40
2, 268080, Note_off_c, 0, 67, 0
2, 268080, Note_on_c, 0, 63, 40
2, 268200, Note_off_c, 0, 63, 0
2, 268200, Note_on_c, 0, 67, 41
2, 268320, Note_off_c, 0, 67, 0
2, 268320, Note_on_c, 0, 63, 41
2, 268440, Note_off_c, 0, 63, 0
2, 268440, Note_on_c, 0, 67, 41
2, 268560, Note_off_c, 0, 67, 0
2, 268560, Note_on_c, 0, 63, 42
2, 268680, Note_off_c, 0, 63, 0
2, 268680, Note_on_c, 0, 67, 42
2, 268800, Note_off_c, 0, 67, 0
2, 268800, Note_on_c, 0, 63, 43
2, 268920, Note_off_c, 0, 63, 0
2, 268920, Note_on_c, 0, 67, 43
2, 269040, Note_off_c, 0, 67, 0
2, 269040, Note_on_c, 0, 63, 43
2, 269160, Note_off_c, 0, 63, 0
2, 269160, Note_on_c, 0, 67, 44
2, 269280, Note_off_c, 0, 67, 0
2, 269280, Note_on_c, 0, 62, 44
2, 269400, Note_off_c, 0, 62, 0
2, 269400, Note_on_c, 0, 67, 44
2, 269520, Note_off_c, 0, 67, 0
2, 269520, Note_on_c, 0, 62, 45
2, 269640, Note_off_c, 0, 62, 0
2, 269640, Note_on_c, 0, 67, 45
2, 269760, Note_off_c, 0, 67, 0
2, 269760, Note_on_c, 0, 62, 45
2, 269880, Note_off_c, 0, 62, 0
2, 269880, Note_on_c, 0, 67, 46
2, 270000, Note_off_c, 0, 67, 0
2, 270000, Note_on_c, 0, 62, 46
2, 270120, Note_off_c, 0, 62, 0
2, 270120, Note_on_c, 0, 67, 46
2, 270240, Note_off_c, 0, 67, 0
2, 270240, Note_on_c, 0, 62, 47
2, 270360, Note_off_c, 0, 62, 0
2, 270360, Note_on_c, 0, 67, 47
2, 270480, Note_off_c, 0, 67, 0
2, 270480, Note_on_c, 0, 62, 47
2, 270600, Note_off_c, 0, 62, 0
2, 270600, Note_on_c, 0, 67, 48
2, 270720, Note_off_c, 0, 67, 0
2, 270720, Note_on_c, 0, 64, 48
2, 270840, Note_off_c, 0, 64, 0
2, 270840, Note_on_c, 0, 67, 48
2, 270960, Note_off_c, 0, 67, 0
2, 270960, Note_on_c, 0, 64, 49
2, 271080, Note_off_c, 0, 64, 0
2, 271080, Note_on_c, 0, 67, 49
2, 271200, Note_off_c, 0, 67, 0
2, 271200, Note_on_c, 0, 64, 49
2, 271320, Note_off_c, 0, 64, 0
2, 271320, Note_on_c, 0, 67, 50
2, 271440, Note_off_c, 0, 67, 0
2, 271440, Note_on_c, 0, 64, 50
2, 271560, Note_off_c, 0, 64, 0
2, 271560, Note_on_c, 0, 67, 50
2, 271680, Note_off_c, 0, 67, 0
2, 271680, Note_on_c, 0, 64, 51
2, 271800, Note_off_c, 0, 64, 0
2, 271800, Note_on_c, 0, 67, 51
2, 271920, Note_off_c, 0, 67, 0
2, 271920, Note_on_c, 0, 64, 51
2, 272040, Note_off_c, 0, 64, 0
2, 272040, Note_on_c, 0, 67, 52
2, 272160, Note_off_c, 0, 67, 0
2, 272160, Note_on_c, 0, 64, 52
2, 272280, Note_off_c, 0, 64, 0
2, 272280, Note_on_c, 0, 67, 52
2, 272400, Note_off_c, 0, 67, 0
2, 272400, Note_on_c, 0, 64, 53
2, 272520, Note_off_c, 0, 64, 0
2, 272520, Note_on_c, 0, 67, 53
2, 272640, Note_off_c, 0, 67, 0
2, 272640, Note_on_c, 0, 65, 54
2, 272760, Note_off_c, 0, 65, 0
2, 272760, Note_on_c, 0, 67, 54
2, 272880, Note_off_c, 0, 67, 0
2, 272880, Note_on_c, 0, 65, 54
2, 273000, Note_off_c, 0, 65, 0
2, 273000, Note_on_c, 0, 67, 55
2, 273120, Note_off_c, 0, 67, 0
2, 273120, Note_on_c, 0, 65, 55
2, 273240, Note_off_c, 0, 65, 0
2, 273240, Note_on_c, 0, 67, 55
2, 273360, Note_off_c, 0, 67, 0
2, 273360, Note_on_c, 0, 65, 56
2, 273480, Note_off_c, 0, 65, 0
2, 273480, Note_on_c, 0, 67, 56
2, 273600, Note_off_c, 0, 67, 0
2, 273600, Note_on_c, 0, 66, 56
2, 273720, Note_off_c, 0, 66, 0
2, 273720, Note_on_c, 0, 67, 57
2, 273840, Note_off_c, 0, 67, 0
2, 273840, Note_on_c, 0, 66, 57
2, 273960, Note_off_c, 0, 66, 0
2, 273960, Note_on_c, 0, 67, 57
2, 274080, Note_off_c, 0, 67, 0
2, 274080, Note_on_c, 0, 66, 58
2, 274200, Note_off_c, 0, 66, 0
2, 274200, Note_on_c, 0, 67, 58
2, 274320, Note_off_c, 0, 67, 0
2, 274320, Note_on_c, 0, 66, 58
2, 274440, Note_off_c, 0, 66, 0
2, 274440, Note_on_c, 0, 67, 59
2, 274560, Note_off_c, 0, 67, 0
2, 274560, Note_on_c, 0, 66, 59
2, 274680, Note_off_c, 0, 66, 0
2, 274680, Note_on_c, 0, 67, 59
2, 274800, Note_off_c, 0, 67, 0
2, 274800, Note_on_c, 0, 66, 60
2, 274920, Note_off_c, 0, 66, 0
2, 274920, Note_on_c, 0, 67, 60
2, 275040, Note_off_c, 0, 67, 0
2, 275040, Note_on_c, 0, 62, 60
2, 275160, Note_off_c, 0, 62, 0
2, 275160, Note_on_c, 0, 67, 61
2, 275280, Note_off_c, 0, 67, 0
2, 275280, Note_on_c, 0, 62, 61
2, 275400, Note_off_c, 0, 62, 0
2, 275400, Note_on_c, 0, 67, 61
2, 275520, Note_off_c, 0, 67, 0
2, 275520, Note_on_c, 0, 62, 62
2, 275640, Note_off_c, 0, 62, 0
2, 275640, Note_on_c, 0, 68, 63
2, 275760, Note_off_c, 0, 68, 0
2, 275760, Note_on_c, 0, 62, 63
2, 275880, Note_off_c, 0, 62, 0
2, 275880, Note_on_c, 0, 68, 62
2, 276000, Note_off_c, 0, 68, 0
2, 276000, Note_on_c, 0, 62, 62
2, 276120, Note_off_c, 0, 62, 0
2, 276120, Note_on_c, 0, 68, 61
2, 276240, Note_off_c, 0, 68, 0
2, 276240, Note_on_c, 0, 62, 60
2, 276360, Note_off_c, 0, 62, 0
2, 276360, Note_on_c, 0, 68, 59
2, 276480, Note_off_c, 0, 68, 0
2, 276480, Note_on_c, 0, 62, 58
2, 276600, Note_off_c, 0, 62, 0
2, 276600, Note_on_c, 0, 68, 58
2, 276720, Note_off_c, 0, 68, 0
2, 276720, Note_on_c, 0, 62, 57
2, 276840, Note_off_c, 0, 62, 0
2, 276840, Note_on_c, 0, 68, 56
2, 276960, Note_off_c, 0, 68, 0
2, 276960, Note_on_c, 0, 62, 55
2, 277080, Note_off_c, 0, 62, 0
2, 277080, Note_on_c, 0, 65, 54
2, 277200, Note_off_c, 0, 65, 0
2, 277200, Note_on_c, 0, 62, 54
2, 277320, Note_off_c, 0, 62, 0
2, 277320, Note_on_c, 0, 65, 53
2, 277440, Note_off_c, 0, 65, 0
2, 277440, Note_on_c, 0, 62, 52
2, 277560, Note_off_c, 0, 62, 0
2, 277560, Note_on_c, 0, 67, 51
2, 277680, Note_off_c, 0, 67, 0
2, 277680, Note_on_c, 0, 62, 50
2, 277800, Note_off_c, 0, 62, 0
2, 277800, Note_on_c, 0, 67, 49
2, 277920, Note_off_c, 0, 67, 0
2, 277920, Note_on_c, 0, 63, 49
2, 278040, Note_off_c, 0, 63, 0
2, 278040, Note_on_c, 0, 67, 48
2, 278160, Note_off_c, 0, 67, 0
2, 278160, Note_on_c, 0, 63, 47
2, 278280, Note_off_c, 0, 63, 0
2, 278280, Note_on_c, 0, 67, 46
2, 278400, Note_off_c, 0, 67, 0
2, 278400, Note_on_c, 0, 62, 45
2, 278520, Note_off_c, 0, 62, 0
2, 278520, Note_on_c, 0, 67, 45
2, 278640, Note_off_c, 0, 67, 0
2, 278640, Note_on_c, 0, 62, 44
2, 278760, Note_off_c, 0, 62, 0
2, 278760, Note_on_c, 0, 67, 43
2, 278880, Note_off_c, 0, 67, 0
2, 278880, Note_on_c, 0, 63, 42
2, 279000, Note_off_c, 0, 63, 0
2, 279000, Note_on_c, 0, 67, 41
2, 279120, Note_off_c, 0, 67, 0
2, 279120, Note_on_c, 0, 63, 41
2, 279240, Note_off_c, 0, 63, 0
2, 279240, Note_on_c, 0, 67, 40
2, 279360, Note_off_c, 0, 67, 0
2, 279360, Note_on_c, 0, 63, 42
2, 279466, Note_off_c, 0, 63, 0
2, 279520, Note_on_c, 0, 67, 45
2, 279625, Note_off_c, 0, 67, 0
2, 279680, Note_on_c, 0, 71, 45
2, 279785, Note_off_c, 0, 71, 0
2, 279840, Note_on_c, 0, 72, 46
2, 279945, Note_off_c, 0, 72, 0
2, 280000, Note_on_c, 0, 72, 46
2, 280105, Note_off_c, 0, 72, 0
2, 280160, Note_on_c, 0, 72, 47
2, 280265, Note_off_c, 0, 72, 0
2, 280320, Note_on_c, 0, 72, 47
2, 280425, Note_off_c, 0, 72, 0
2, 280480, Note_on_c, 0, 74, 48
2, 280585, Note_off_c, 0, 74, 0
2, 280640, Note_on_c, 0, 75, 48
2, 280745, Note_off_c, 0, 75, 0
2, 280800, Note_on_c, 0, 74, 49
2, 280905, Note_off_c, 0, 74, 0
2, 280960, Note_on_c, 0, 71, 49
2, 281065, Note_off_c, 0, 71, 0
2, 281120, Note_on_c, 0, 67, 50
2, 281225, Note_off_c, 0, 67, 0
2, 281280, Note_on_c, 0, 67, 50
2, 281385, Note_off_c, 0, 67, 0
2, 281440, Note_on_c, 0, 67, 51
2, 281545, Note_off_c, 0, 67, 0
2, 281600, Note_on_c, 0, 67, 51
2, 281705, Note_off_c, 0, 67, 0
2, 281720, Note_on_c, 0, 68, 52
2, 281760, Note_off_c, 0, 68, 0
2, 281760, Note_on_c, 0, 67, 52
2, 281865, Note_off_c, 0, 67, 0
2, 281920, Note_on_c, 0, 66, 52
2, 282025, Note_off_c, 0, 66, 0
2, 282080, Note_on_c, 0, 67, 53
2, 282185, Note_off_c, 0, 67, 0
2, 282240, Note_on_c, 0, 67, 53
2, 282345, Note_off_c, 0, 67, 0
2, 282400, Note_on_c, 0, 70, 54
2, 282505, Note_off_c, 0, 70, 0
2, 282560, Note_on_c, 0, 74, 54
2, 282665, Note_off_c, 0, 74, 0
2, 282720, Note_on_c, 0, 76, 55
2, 282825, Note_off_c, 0, 76, 0
2, 282880, Note_on_c, 0, 76, 55
2, 282985, Note_off_c, 0, 76, 0
2, 283040, Note_on_c, 0, 76, 56
2, 283145, Note_off_c, 0, 76, 0
2, 283200, Note_on_c, 0, 76, 56
2, 283305, Note_off_c, 0, 76, 0
2, 283360, Note_on_c, 0, 77, 57
2, 283465, Note_off_c, 0, 77, 0
2, 283520, Note_on_c, 0, 79, 57
2, 283625, Note_off_c, 0, 79, 0
2, 283680, Note_on_c, 0, 77, 58
2, 283785, Note_off_c, 0, 77, 0
2, 283840, Note_on_c, 0, 81, 58
2, 283945, Note_off_c, 0, 81, 0
2, 284000, Note_on_c, 0, 84, 59
2, 284105, Note_off_c, 0, 84, 0
2, 284160, Note_on_c, 0, 84, 59
2, 284265, Note_off_c, 0, 84, 0
2, 284320, Note_on_c, 0, 84, 60
2, 284425, Note_off_c, 0, 84, 0
2, 284480, Note_on_c, 0, 84, 60
2, 284585, Note_off_c, 0, 84, 0
2, 284600, Note_on_c, 0, 86, 60
2, 284640, Note_off_c, 0, 86, 0
2, 284640, Note_on_c, 0, 84, 61
2, 284745, Note_off_c, 0, 84, 0
2, 284800, Note_on_c, 0, 83, 61
2, 284905, Note_off_c, 0, 83, 0
2, 284960, Note_on_c, 0, 84, 62
2, 285065, Note_off_c, 0, 84, 0
2, 285120, Note_on_c, 0, 78, 62
2, 285225, Note_off_c, 0, 78, 0
2, 285280, Note_on_c, 0, 81, 63
2, 285385, Note_off_c, 0, 81, 0
2, 285440, Note_on_c, 0, 84, 63
2, 285545, Note_off_c, 0, 84, 0
2, 285600, Note_on_c, 0, 87, 63
2, 285705, Note_off_c, 0, 87, 0
2, 285760, Note_on_c, 0, 87, 64
2, 285865, Note_off_c, 0, 87, 0
2, 285920, Note_on_c, 0, 87, 64
2, 286025, Note_off_c, 0, 87, 0
2, 286040, Note_on_c, 0, 89, 65
2, 286080, Note_off_c, 0, 89, 0
2, 286080, Note_on_c, 0, 87, 65
2, 286185, Note_off_c, 0, 87, 0
2, 286240, Note_on_c, 0, 86, 65
2, 286345, Note_off_c, 0, 86, 0
2, 286400, Note_on_c, 0, 87, 66
2, 286505, Note_off_c, 0, 87, 0
2, 286560, Note_on_c, 0, 83, 69
2, 286665, Note_off_c, 0, 83, 0
2, 286720, Note_on_c, 0, 86, 79
2, 286825, Note_off_c, 0, 86, 0
2, 286880, Note_on_c, 0, 89, 89
2, 286985, Note_off_c, 0, 89, 0
2, 287000, Note_on_c, 0, 94, 95
2, 287040, Note_off_c, 0, 94, 0
2, 287040, Note_on_c, 0, 92, 91
2, 287145, Note_off_c, 0, 92, 0
2, 287200, Note_on_c, 0, 91, 79
2, 287305, Note_off_c, 0, 91, 0
2, 287360, Note_on_c, 0, 89, 75
2, 287465, Note_off_c, 0, 89, 0
2, 287480, Note_on_c, 0, 91, 78
2, 287520, Note_off_c, 0, 91, 0
2, 287520, Note_on_c, 0, 89, 71
2, 287625, Note_off_c, 0, 89, 0
2, 287680, Note_on_c, 0, 87, 67
2, 287785, Note_off_c, 0, 87, 0
2, 287840, Note_on_c, 0, 86, 64
2, 287945, Note_off_c, 0, 86, 0
2, 287960, Note_on_c, 0, 82, 75
2, 288000, Note_off_c, 0, 82, 0
2, 288000, Note_on_c, 0, 80, 68
2, 288105, Note_off_c, 0, 80, 0
2, 288160, Note_on_c, 0, 79, 65
2, 288265, Note_off_c, 0, 79, 0
2, 288320, Note_on_c, 0, 77, 62
2, 288425, Note_off_c, 0, 77, 0
2, 288440, Note_on_c, 0, 79, 73
2, 288480, Note_off_c, 0, 79, 0
2, 288480, Note_on_c, 0, 77, 65
2, 288585, Note_off_c, 0, 77, 0
2, 288640, Note_on_c, 0, 75, 62
2, 288745, Note_off_c, 0, 75, 0
2, 288800, Note_on_c, 0, 74, 59
2, 288905, Note_off_c, 0, 74, 0
2, 288920, Note_on_c, 0, 69, 68
2, 288960, Note_off_c, 0, 69, 0
2, 288960, Note_on_c, 0, 67, 59
2, 289065, Note_off_c, 0, 67, 0
2, 289120, Note_on_c, 0, 65, 58
2, 289225, Note_off_c, 0, 65, 0
2, 289280, Note_on_c, 0, 63, 57
2, 289385, Note_off_c, 0, 63, 0
2, 289400, Note_on_c, 0, 65, 68
2, 289440, Note_off_c, 0, 65, 0
2, 289440, Note_on_c, 0, 63, 56
2, 289545, Note_off_c, 0, 63, 0
2, 289600, Note_on_c, 0, 62, 55
2, 289705, Note_off_c, 0, 62, 0
2, 289760, Note_on_c, 0, 60, 55
2, 289865, Note_off_c, 0, 60, 0
2, 290880, Note_on_c, 0, 75, 63
2, 290960, Note_off_c, 0, 75, 0
2, 291000, Note_on_c, 0, 67, 63
2, 291080, Note_on_c, 0, 70, 63
2, 291120, Note_off_c, 0, 67, 0
2, 291120, Note_on_c, 0, 68, 63
2, 291140, Note_off_c, 0, 70, 0
2, 291240, Note_off_c, 0, 68, 0
2, 291240, Note_on_c, 0, 67, 63
2, 291360, Note_off_c, 0, 67, 0
2, 291360, Note_on_c, 0, 75, 63
2, 291440, Note_off_c, 0, 75, 0
2, 291480, Note_on_c, 0, 67, 63
2, 291560, Note_on_c, 0, 70, 63
2, 291600, Note_off_c, 0, 67, 0
2, 291600, Note_on_c, 0, 68, 63
2, 291620, Note_off_c, 0, 70, 0
2, 291720, Note_off_c, 0, 68, 0
2, 291720, Note_on_c, 0, 67, 63
2, 291840, Note_off_c, 0, 67, 0
2, 291840, Note_on_c, 0, 75, 63
2, 291920, Note_off_c, 0, 75, 0
2, 291960, Note_on_c, 0, 67, 63
2, 292040, Note_on_c, 0, 70, 63
2, 292080, Note_off_c, 0, 67, 0
2, 292080, Note_on_c, 0, 68, 63
2, 292100, Note_off_c, 0, 70, 0
2, 292200, Note_off_c, 0, 68, 0
2, 292200, Note_on_c, 0, 67, 63
2, 292320, Note_off_c, 0, 67, 0
2, 292320, Note_on_c, 0, 74, 63
2, 292400, Note_off_c, 0, 74, 0
2, 292440, Note_on_c, 0, 67, 63
2, 292520, Note_on_c, 0, 71, 63
2, 292560, Note_off_c, 0, 67, 0
2, 292560, Note_on_c, 0, 69, 63
2, 292580, Note_off_c, 0, 71, 0
2, 292680, Note_off_c, 0, 69, 0
2, 292680, Note_on_c, 0, 67, 63
2, 292800, Note_off_c, 0, 67, 0
2, 292800, Note_on_c, 0, 66, 63
2, 292920, Note_off_c, 0, 66, 0
2, 292920, Note_on_c, 0, 67, 63
2, 293040, Note_off_c, 0, 67, 0
2, 293040, Note_on_c, 0, 71, 65
2, 293160, Note_off_c, 0, 71, 0
2, 293160, Note_on_c, 0, 74, 67
2, 293280, Note_off_c, 0, 74, 0
2, 293280, Note_on_c, 0, 79, 68
2, 293400, Note_off_c, 0, 79, 0
2, 293400, Note_on_c, 0, 83, 70
2, 293520, Note_off_c, 0, 83, 0
2, 293520, Note_on_c, 0, 86, 72
2, 293640, Note_off_c, 0, 86, 0
2, 293640, Note_on_c, 0, 79, 68
2, 293720, Note_off_c, 0, 79, 0
2, 293760, Note_on_c, 0, 73, 63
2, 293840, Note_off_c, 0, 73, 0
2, 293880, Note_on_c, 0, 64, 63
2, 293960, Note_on_c, 0, 67, 63
2, 294000, Note_off_c, 0, 64, 0
2, 294000, Note_on_c, 0, 65, 63
2, 294020, Note_off_c, 0, 67, 0
2, 294120, Note_off_c, 0, 65, 0
2, 294120, Note_on_c, 0, 64, 63
2, 294240, Note_off_c, 0, 64, 0
2, 294240, Note_on_c, 0, 73, 63
2, 294320, Note_off_c, 0, 73, 0
2, 294360, Note_on_c, 0, 64, 63
2, 294440, Note_on_c, 0, 67, 63
2, 294480, Note_off_c, 0, 64, 0
2, 294480, Note_on_c, 0, 65, 63
2, 294500, Note_off_c, 0, 67, 0
2, 294600, Note_off_c, 0, 65, 0
2, 294600, Note_on_c, 0, 64, 63
2, 294720, Note_off_c, 0, 64, 0
2, 294720, Note_on_c, 0, 73, 63
2, 294800, Note_off_c, 0, 73, 0
2, 294840, Note_on_c, 0, 64, 63
2, 294920, Note_on_c, 0, 67, 63
2, 294960, Note_off_c, 0, 64, 0
2, 294960, Note_on_c, 0, 65, 63
2, 294980, Note_off_c, 0, 67, 0
2, 295080, Note_off_c, 0, 65, 0
2, 295080, Note_on_c, 0, 64, 63
2, 295200, Note_off_c, 0, 64, 0
2, 295200, Note_on_c, 0, 72, 63
2, 295280, Note_off_c, 0, 72, 0
2, 295320, Note_on_c, 0, 65, 63
2, 295400, Note_on_c, 0, 69, 63
2, 295440, Note_off_c, 0, 65, 0
2, 295440, Note_on_c, 0, 67, 63
2, 295460, Note_off_c, 0, 69, 0
2, 295560, Note_off_c, 0, 67, 0
2, 295560, Note_on_c, 0, 65, 63
2, 295680, Note_off_c, 0, 65, 0
2, 295680, Note_on_c, 0, 64, 63
2, 295800, Note_off_c, 0, 64, 0
2, 295800, Note_on_c, 0, 65, 64
2, 295920, Note_off_c, 0, 65, 0
2, 295920, Note_on_c, 0, 69, 65
2, 296040, Note_off_c, 0, 69, 0
2, 296040, Note_on_c, 0, 72, 67
2, 296160, Note_off_c, 0, 72, 0
2, 296160, Note_on_c, 0, 77, 68
2, 296280, Note_off_c, 0, 77, 0
2, 296280, Note_on_c, 0, 81, 70
2, 296400, Note_off_c, 0, 81, 0
2, 296400, Note_on_c, 0, 84, 71
2, 296520, Note_off_c, 0, 84, 0
2, 296520, Note_on_c, 0, 77, 68
2, 296600, Note_off_c, 0, 77, 0
2, 296640, Note_on_c, 0, 78, 64
2, 296720, Note_off_c, 0, 78, 0
2, 296760, Note_on_c, 0, 72, 64
2, 296840, Note_on_c, 0, 75, 65
2, 296880, Note_off_c, 0, 72, 0
2, 296880, Note_on_c, 0, 74, 65
2, 296900, Note_off_c, 0, 75, 0
2, 297000, Note_off_c, 0, 74, 0
2, 297000, Note_on_c, 0, 72, 65
2, 297120, Note_off_c, 0, 72, 0
2, 297120, Note_on_c, 0, 78, 66
2, 297200, Note_off_c, 0, 78, 0
2, 297240, Note_on_c, 0, 72, 67
2, 297320, Note_on_c, 0, 75, 67
2, 297360, Note_off_c, 0, 72, 0
2, 297360, Note_on_c, 0, 74, 67
2, 297380, Note_off_c, 0, 75, 0
2, 297480, Note_off_c, 0, 74, 0
2, 297480, Note_on_c, 0, 72, 68
2, 297600, Note_off_c, 0, 72, 0
2, 297600, Note_on_c, 0, 78, 69
2, 297680, Note_off_c, 0, 78, 0
2, 297720, Note_on_c, 0, 72, 69
2, 297800, Note_on_c, 0, 75, 70
2, 297840, Note_off_c, 0, 72, 0
2, 297840, Note_on_c, 0, 74, 70
2, 297860, Note_off_c, 0, 75, 0
2, 297960, Note_off_c, 0, 74, 0
2, 297960, Note_on_c, 0, 72, 71
2, 298080, Note_off_c, 0, 72, 0
2, 298080, Note_on_c, 0, 79, 71
2, 298160, Note_off_c, 0, 79, 0
2, 298200, Note_on_c, 0, 72, 72
2, 298280, Note_on_c, 0, 75, 72
2, 298320, Note_off_c, 0, 72, 0
2, 298320, Note_on_c, 0, 74, 73
2, 298340, Note_off_c, 0, 75, 0
2, 298440, Note_off_c, 0, 74, 0
2, 298440, Note_on_c, 0, 72, 73
2, 298560, Note_off_c, 0, 72, 0
2, 298560, Note_on_c, 0, 80, 79
2, 298640, Note_off_c, 0, 80, 0
2, 298680, Note_on_c, 0, 72, 62
2, 298800, Note_off_c, 0, 72, 0
2, 298800, Note_on_c, 0, 74, 64
2, 298920, Note_off_c, 0, 74, 0
2, 298920, Note_on_c, 0, 77, 66
2, 299040, Note_off_c, 0, 77, 0
2, 299040, Note_on_c, 0, 80, 68
2, 299160, Note_off_c, 0, 80, 0
2, 299160, Note_on_c, 0, 84, 71
2, 299280, Note_off_c, 0, 84, 0
2, 299280, Note_on_c, 0, 86, 73
2, 299400, Note_off_c, 0, 86, 0
2, 299400, Note_on_c, 0, 89, 75
2, 299520, Note_off_c, 0, 89, 0
2, 299520, Note_on_c, 0, 92, 75
2, 299640, Note_off_c, 0, 92, 0
2, 299640, Note_on_c, 0, 91, 75
2, 299760, Note_off_c, 0, 91, 0
2, 299760, Note_on_c, 0, 89, 74
2, 299880, Note_off_c, 0, 89, 0
2, 299880, Note_on_c, 0, 87, 74
2, 300000, Note_off_c, 0, 87, 0
2, 300000, Note_on_c, 0, 86, 73
2, 300120, Note_off_c, 0, 86, 0
2, 300120, Note_on_c, 0, 87, 72
2, 300240, Note_off_c, 0, 87, 0
2, 300240, Note_on_c, 0, 89, 72
2, 300360, Note_off_c, 0, 89, 0
2, 300360, Note_on_c, 0, 84, 71
2, 300480, Note_off_c, 0, 84, 0
2, 300480, Note_on_c, 0, 83, 71
2, 300600, Note_off_c, 0, 83, 0
2, 300600, Note_on_c, 0, 84, 70
2, 300720, Note_off_c, 0, 84, 0
2, 300720, Note_on_c, 0, 86, 69
2, 300840, Note_off_c, 0, 86, 0
2, 300840, Note_on_c, 0, 77, 69
2, 300960, Note_off_c, 0, 77, 0
2, 300960, Note_on_c, 0, 75, 68
2, 301080, Note_off_c, 0, 75, 0
2, 301080, Note_on_c, 0, 77, 68
2, 301200, Note_off_c, 0, 77, 0
2, 301200, Note_on_c, 0, 79, 67
2, 301320, Note_off_c, 0, 79, 0
2, 301320, Note_on_c, 0, 72, 66
2, 301440, Note_off_c, 0, 72, 0
2, 301440, Note_on_c, 0, 63, 66
2, 301560, Note_off_c, 0, 63, 0
2, 301560, Note_on_c, 0, 65, 65
2, 301680, Note_off_c, 0, 65, 0
2, 301680, Note_on_c, 0, 67, 65
2, 301800, Note_off_c, 0, 67, 0
2, 301800, Note_on_c, 0, 60, 64
2, 301920, Note_off_c, 0, 60, 0
2, 302400, Note_on_c, 0, 84, 81
2, 302400, Note_on_c, 0, 79, 81
2, 302400, Note_on_c, 0, 72, 81
2, 302400, Note_on_c, 0, 75, 81
2, 302555, Note_off_c, 0, 75, 0
2, 302555, Note_off_c, 0, 72, 0
2, 302555, Note_off_c, 0, 79, 0
2, 302555, Note_off_c, 0, 84, 0
2, 302640, Note_on_c, 0, 79, 71
2, 302640, Note_on_c, 0, 75, 71
2, 302718, Note_off_c, 0, 75, 0
2, 302718, Note_off_c, 0, 79, 0
2, 302760, Note_on_c, 0, 74, 71
2, 302760, Note_on_c, 0, 77, 71
2, 302838, Note_off_c, 0, 77, 0
2, 302838, Note_off_c, 0, 74, 0
2, 302880, Note_on_c, 0, 75, 72
2, 302880, Note_on_c, 0, 72, 72
2, 303036, Note_off_c, 0, 72, 0
2, 303036, Note_off_c, 0, 75, 0
2, 303120, Note_on_c, 0, 75, 72
2, 303120, Note_on_c, 0, 79, 72
2, 303276, Note_off_c, 0, 79, 0
2, 303276, Note_off_c, 0, 75, 0
2, 303360, Note_on_c, 0, 77, 73
2, 303360, Note_on_c, 0, 74, 73
2, 303516, Note_off_c, 0, 74, 0
2, 303516, Note_off_c, 0, 77, 0
2, 303600, Note_on_c, 0, 75, 73
2, 303600, Note_on_c, 0, 72, 73
2, 303756, Note_off_c, 0, 72, 0
2, 303756, Note_off_c, 0, 75, 0
2, 303840, Note_on_c, 0, 86, 79
2, 303840, Note_on_c, 0, 74, 79
2, 304080, Note_on_c, 0, 71, 74
2, 304155, Note_off_c, 0, 86, 0
2, 304160, Note_off_c, 0, 71, 0
2, 304160, Note_off_c, 0, 74, 0
2, 304200, Note_on_c, 0, 69, 75
2, 304200, Note_on_c, 0, 72, 75
2, 304280, Note_off_c, 0, 72, 0
2, 304280, Note_off_c, 0, 69, 0
2, 304320, Note_on_c, 0, 67, 75
2, 304320, Note_on_c, 0, 71, 75
2, 304475, Note_off_c, 0, 71, 0
2, 304475, Note_off_c, 0, 67, 0
2, 304560, Note_on_c, 0, 71, 75
2, 304560, Note_on_c, 0, 74, 75
2, 304715, Note_off_c, 0, 74, 0
2, 304715, Note_off_c, 0, 71, 0
2, 304800, Note_on_c, 0, 72, 76
2, 304800, Note_on_c, 0, 69, 76
2, 304955, Note_off_c, 0, 69, 0
2, 304955, Note_off_c, 0, 72, 0
2, 305040, Note_on_c, 0, 71, 77
2, 305040, Note_on_c, 0, 67, 77
2, 305195, Note_off_c, 0, 67, 0
2, 305195, Note_off_c, 0, 71, 0
2, 305280, Note_on_c, 0, 88, 82
2, 305280, Note_on_c, 0, 76, 82
2, 305520, Note_on_c, 0, 70, 78
2, 305520, Note_on_c, 0, 73, 78
2, 305590, Note_off_c, 0, 76, 0
2, 305590, Note_off_c, 0, 88, 0
2, 305600, Note_off_c, 0, 73, 0
2, 305600, Note_off_c, 0, 70, 0
2, 305640, Note_on_c, 0, 72, 78
2, 305640, Note_on_c, 0, 68, 78
2, 305720, Note_off_c, 0, 68, 0
2, 305720, Note_off_c, 0, 72, 0
2, 305760, Note_on_c, 0, 67, 78
2, 305760, Note_on_c, 0, 70, 78
2, 305915, Note_off_c, 0, 70, 0
2, 305915, Note_off_c, 0, 67, 0
2, 306000, Note_on_c, 0, 73, 79
2, 306000, Note_on_c, 0, 70, 79
2, 306155, Note_off_c, 0, 70, 0
2, 306155, Note_off_c, 0, 73, 0
2, 306240, Note_on_c, 0, 72, 79
2, 306240, Note_on_c, 0, 68, 79
2, 306395, Note_off_c, 0, 68, 0
2, 306395, Note_off_c, 0, 72, 0
2, 306480, Note_on_c, 0, 67, 80
2, 306480, Note_on_c, 0, 70, 80
2, 306635, Note_off_c, 0, 70, 0
2, 306635, Note_off_c, 0, 67, 0
2, 306720, Note_on_c, 0, 89, 85
2, 306720, Note_on_c, 0, 77, 85
2, 306960, Note_on_c, 0, 72, 81
2, 306960, Note_on_c, 0, 68, 81
2, 306963, Note_off_c, 0, 77, 0
2, 306963, Note_off_c, 0, 89, 0
2, 307040, Note_off_c, 0, 68, 0
2, 307040, Note_off_c, 0, 72, 0
2, 307080, Note_on_c, 0, 67, 81
2, 307080, Note_on_c, 0, 70, 81
2, 307160, Note_off_c, 0, 70, 0
2, 307160, Note_off_c, 0, 67, 0
2, 307200, Note_on_c, 0, 65, 82
2, 307200, Note_on_c, 0, 68, 82
2, 307355, Note_off_c, 0, 68, 0
2, 307355, Note_off_c, 0, 65, 0
2, 307440, Note_on_c, 0, 72, 82
2, 307440, Note_on_c, 0, 68, 82
2, 307595, Note_off_c, 0, 68, 0
2, 307595, Note_off_c, 0, 72, 0
2, 307680, Note_on_c, 0, 70, 83
2, 307680, Note_on_c, 0, 67, 83
2, 307835, Note_off_c, 0, 67, 0
2, 307835, Note_off_c, 0, 70, 0
2, 307920, Note_on_c, 0, 68, 83
2, 307920, Note_on_c, 0, 65, 83
2, 308075, Note_off_c, 0, 65, 0
2, 308075, Note_off_c, 0, 68, 0
2, 308160, Note_on_c, 0, 90, 89
2, 308160, Note_on_c, 0, 78, 89
2, 308400, Note_on_c, 0, 75, 85
2, 308400, Note_on_c, 0, 72, 85
2, 308403, Note_off_c, 0, 78, 0
2, 308403, Note_off_c, 0, 90, 0
2, 308480, Note_off_c, 0, 72, 0
2, 308480, Note_off_c, 0, 75, 0
2, 308520, Note_on_c, 0, 71, 87
2, 308520, Note_on_c, 0, 74, 87
2, 308600, Note_off_c, 0, 74, 0
2, 308600, Note_off_c, 0, 71, 0
2, 308640, Note_on_c, 0, 69, 89
2, 308640, Note_on_c, 0, 72, 89
2, 308795, Note_off_c, 0, 72, 0
2, 308795, Note_off_c, 0, 69, 0
2, 308880, Note_on_c, 0, 72, 94
2, 308880, Note_on_c, 0, 75, 94
2, 309035, Note_off_c, 0, 75, 0
2, 309035, Note_off_c, 0, 72, 0
2, 309120, Note_on_c, 0, 71, 98
2, 309120, Note_on_c, 0, 74, 98
2, 309275, Note_off_c, 0, 74, 0
2, 309275, Note_off_c, 0, 71, 0
2, 309360, Note_on_c, 0, 72, 102
2, 309360, Note_on_c, 0, 69, 102
2, 309515, Note_off_c, 0, 69, 0
2, 309515, Note_off_c, 0, 72, 0
2, 309600, Note_on_c, 0, 91, 107
2, 309600, Note_on_c, 0, 79, 107
2, 309840, Note_on_c, 0, 89, 99
2, 309840, Note_on_c, 0, 86, 99
2, 309843, Note_off_c, 0, 79, 0
2, 309843, Note_off_c, 0, 91, 0
2, 309920, Note_off_c, 0, 86, 0
2, 309920, Note_off_c, 0, 89, 0
2, 309960, Note_on_c, 0, 91, 98
2, 309960, Note_on_c, 0, 87, 98
2, 310040, Note_off_c, 0, 87, 0
2, 310040, Note_off_c, 0, 91, 0
2, 310080, Note_on_c, 0, 92, 97
2, 310080, Note_on_c, 0, 89, 97
2, 310235, Note_off_c, 0, 89, 0
2, 310235, Note_off_c, 0, 92, 0
2, 310320, Note_on_c, 0, 83, 95
2, 310320, Note_on_c, 0, 86, 95
2, 310400, Note_off_c, 0, 86, 0
2, 310400, Note_off_c, 0, 83, 0
2, 310440, Note_on_c, 0, 84, 94
2, 310440, Note_on_c, 0, 87, 94
2, 310520, Note_off_c, 0, 87, 0
2, 310520, Note_off_c, 0, 84, 0
2, 310560, Note_on_c, 0, 86, 93
2, 310560, Note_on_c, 0, 89, 93
2, 310715, Note_off_c, 0, 89, 0
2, 310715, Note_off_c, 0, 86, 0
2, 310800, Note_on_c, 0, 77, 90
2, 310800, Note_on_c, 0, 74, 90
2, 310880, Note_off_c, 0, 74, 0
2, 310880, Note_off_c, 0, 77, 0
2, 310920, Note_on_c, 0, 75, 89
2, 310920, Note_on_c, 0, 79, 89
2, 311000, Note_off_c, 0, 79, 0
2, 311000, Note_off_c, 0, 75, 0
2, 311040, Note_on_c, 0, 80, 88
2, 311040, Note_on_c, 0, 77, 88
2, 311195, Note_off_c, 0, 77, 0
2, 311195, Note_off_c, 0, 80, 0
2, 311280, Note_on_c, 0, 71, 86
2, 311280, Note_on_c, 0, 74, 86
2, 311360, Note_off_c, 0, 74, 0
2, 311360, Note_off_c, 0, 71, 0
2, 311400, Note_on_c, 0, 72, 85
2, 311400, Note_on_c, 0, 75, 85
2, 311480, Note_off_c, 0, 75, 0
2, 311480, Note_off_c, 0, 72, 0
2, 311520, Note_on_c, 0, 74, 84
2, 311520, Note_on_c, 0, 77, 84
2, 311675, Note_off_c, 0, 77, 0
2, 311675, Note_off_c, 0, 74, 0
2, 311760, Note_on_c, 0, 59, 82
2, 311760, Note_on_c, 0, 65, 82
2, 311760, Note_on_c, 0, 62, 82
2, 311840, Note_off_c, 0, 62, 0
2, 311840, Note_off_c, 0, 65, 0
2, 311840, Note_off_c, 0, 59, 0
2, 311880, Note_on_c, 0, 59, 81
2, 311880, Note_on_c, 0, 62, 81
2, 311880, Note_on_c, 0, 68, 81
2, 311960, Note_off_c, 0, 68, 0
2, 311960, Note_off_c, 0, 62, 0
2, 311960, Note_off_c, 0, 59, 0
2, 312000, Note_on_c, 0, 65, 80
2, 312000, Note_on_c, 0, 59, 80
2, 312000, Note_on_c, 0, 67, 80
2, 312155, Note_off_c, 0, 67, 0
2, 312155, Note_off_c, 0, 59, 0
2, 312155, Note_off_c, 0, 65, 0
2, 312240, Note_on_c, 0, 67, 78
2, 312240, Note_on_c, 0, 65, 78
2, 312240, Note_on_c, 0, 62, 78
2, 312320, Note_off_c, 0, 62, 0
2, 312320, Note_off_c, 0, 65, 0
2, 312320, Note_off_c, 0, 67, 0
2, 312360, Note_on_c, 0, 62, 77
2, 312360, Note_on_c, 0, 65, 77
2, 312360, Note_on_c, 0, 71, 77
2, 312440, Note_off_c, 0, 71, 0
2, 312440, Note_off_c, 0, 65, 0
2, 312440, Note_off_c, 0, 62, 0
2, 312480, Note_on_c, 0, 60, 76
2, 312480, Note_on_c, 0, 72, 76
2, 312480, Note_on_c, 0, 63, 76
2, 312635, Note_off_c, 0, 63, 0
2, 312635, Note_off_c, 0, 72, 0
2, 312635, Note_off_c, 0, 60, 0
2, 312720, Note_on_c, 0, 60, 73
2, 312720, Note_on_c, 0, 72, 73
2, 312720, Note_on_c, 0, 63, 73
2, 312800, Note_off_c, 0, 63, 0
2, 312800, Note_off_c, 0, 72, 0
2, 312800, Note_off_c, 0, 60, 0
2, 312840, Note_on_c, 0, 71, 72
2, 312840, Note_on_c, 0, 74, 72
2, 312840, Note_on_c, 0, 62, 72
2, 312920, Note_off_c, 0, 62, 0
2, 312920, Note_off_c, 0, 74, 0
2, 312920, Note_off_c, 0, 71, 0
2, 312960, Note_on_c, 0, 72, 71
2, 312960, Note_on_c, 0, 75, 71
2, 312960, Note_on_c, 0, 63, 71
2, 313115, Note_off_c, 0, 63, 0
2, 313115, Note_off_c, 0, 75, 0
2, 313115, Note_off_c, 0, 72, 0
2, 313200, Note_on_c, 0, 79, 69
2, 313200, Note_on_c, 0, 67, 69
2, 313200, Note_on_c, 0, 75, 69
2, 313280, Note_off_c, 0, 75, 0
2, 313280, Note_off_c, 0, 67, 0
2, 313280, Note_off_c, 0, 79, 0
2, 313320, Note_on_c, 0, 71, 68
2, 313320, Note_on_c, 0, 83, 68
2, 313320, Note_on_c, 0, 74, 68
2, 313400, Note_off_c, 0, 74, 0
2, 313400, Note_off_c, 0, 83, 0
2, 313400, Note_off_c, 0, 71, 0
2, 313440, Note_on_c, 0, 84, 67
2, 313440, Note_on_c, 0, 72, 67
2, 313440, Note_on_c, 0, 75, 67
2, 313800, Note_off_c, 0, 75, 0
2, 313800, Note_off_c, 0, 72, 0
2, 313800, Note_off_c, 0, 84, 0
2, 314040, Note_on_c, 0, 75, 71
2, 314040, Note_on_c, 0, 72, 71
2, 314120, Note_off_c, 0, 72, 0
2, 314120, Note_off_c, 0, 75, 0
2, 314160, Note_on_c, 0, 72, 71
2, 314160, Note_on_c, 0, 69, 71
2, 314240, Note_off_c, 0, 69, 0
2, 314240, Note_off_c, 0, 72, 0
2, 314280, Note_on_c, 0, 71, 71
2, 314280, Note_on_c, 0, 74, 71
2, 314360, Note_off_c, 0, 74, 0
2, 314360, Note_off_c, 0, 71, 0
2, 314400, Note_on_c, 0, 72, 72
2, 314400, Note_on_c, 0, 75, 72
2, 314555, Note_off_c, 0, 75, 0
2, 314555, Note_off_c, 0, 72, 0
2, 315000, Note_on_c, 0, 87, 73
2, 315000, Note_on_c, 0, 84, 73
2, 315080, Note_off_c, 0, 84, 0
2, 315080, Note_off_c, 0, 87, 0
2, 315120, Note_on_c, 0, 83, 74
2, 315120, Note_on_c, 0, 86, 74
2, 315200, Note_off_c, 0, 86, 0
2, 315200, Note_off_c, 0, 83, 0
2, 315240, Note_on_c, 0, 84, 74
2, 315240, Note_on_c, 0, 81, 74
2, 315320, Note_off_c, 0, 81, 0
2, 315320, Note_off_c, 0, 84, 0
2, 315480, Note_on_c, 0, 74, 75
2, 315480, Note_on_c, 0, 71, 75
2, 315560, Note_off_c, 0, 71, 0
2, 315560, Note_off_c, 0, 74, 0
2, 315600, Note_on_c, 0, 71, 75
2, 315600, Note_on_c, 0, 67, 75
2, 315680, Note_off_c, 0, 67, 0
2, 315680, Note_off_c, 0, 71, 0
2, 315720, Note_on_c, 0, 69, 75
2, 315720, Note_on_c, 0, 72, 75
2, 315800, Note_off_c, 0, 72, 0
2, 315800, Note_off_c, 0, 69, 0
2, 315840, Note_on_c, 0, 74, 76
2, 315840, Note_on_c, 0, 71, 76
2, 315995, Note_off_c, 0, 71, 0
2, 315995, Note_off_c, 0, 74, 0
2, 316440, Note_on_c, 0, 83, 78
2, 316440, Note_on_c, 0, 86, 78
2, 316520, Note_off_c, 0, 86, 0
2, 316520, Note_off_c, 0, 83, 0
2, 316560, Note_on_c, 0, 84, 78
2, 316560, Note_on_c, 0, 81, 78
2, 316640, Note_off_c, 0, 81, 0
2, 316640, Note_off_c, 0, 84, 0
2, 316680, Note_on_c, 0, 79, 78
2, 316680, Note_on_c, 0, 83, 78
2, 316760, Note_off_c, 0, 83, 0
2, 316760, Note_off_c, 0, 79, 0
2, 316920, Note_on_c, 0, 76, 79
2, 316920, Note_on_c, 0, 73, 79
2, 316920, Note_on_c, 0, 70, 79
2, 317000, Note_off_c, 0, 70, 0
2, 317000, Note_off_c, 0, 73, 0
2, 317000, Note_off_c, 0, 76, 0
2, 317040, Note_on_c, 0, 67, 79
2, 317040, Note_on_c, 0, 76, 79
2, 317040, Note_on_c, 0, 70, 79
2, 317120, Note_off_c, 0, 70, 0
2, 317120, Note_off_c, 0, 76, 0
2, 317120, Note_off_c, 0, 67, 0
2, 317160, Note_on_c, 0, 72, 80
2, 317160, Note_on_c, 0, 76, 80
2, 317160, Note_on_c, 0, 68, 80
2, 317240, Note_off_c, 0, 68, 0
2, 317240, Note_off_c, 0, 76, 0
2, 317240, Note_off_c, 0, 72, 0
2, 317280, Note_on_c, 0, 70, 80
2, 317280, Note_on_c, 0, 73, 80
2, 317280, Note_on_c, 0, 76, 80
2, 317435, Note_off_c, 0, 76, 0
2, 317435, Note_off_c, 0, 73, 0
2, 317435, Note_off_c, 0, 70, 0
2, 317880, Note_on_c, 0, 76, 82
2, 317880, Note_on_c, 0, 73, 82
2, 317880, Note_on_c, 0, 70, 82
2, 317960, Note_off_c, 0, 70, 0
2, 317960, Note_off_c, 0, 73, 0
2, 317960, Note_off_c, 0, 76, 0
2, 318000, Note_on_c, 0, 72, 82
2, 318000, Note_on_c, 0, 76, 82
2, 318000, Note_on_c, 0, 68, 82
2, 318080, Note_off_c, 0, 68, 0
2, 318080, Note_off_c, 0, 76, 0
2, 318080, Note_off_c, 0, 72, 0
2, 318120, Note_on_c, 0, 67, 83
2, 318120, Note_on_c, 0, 76, 83
2, 318120, Note_on_c, 0, 70, 83
2, 318200, Note_off_c, 0, 70, 0
2, 318200, Note_off_c, 0, 76, 0
2, 318200, Note_off_c, 0, 67, 0
2, 318360, Note_on_c, 0, 72, 83
2, 318360, Note_on_c, 0, 77, 83
2, 318360, Note_on_c, 0, 68, 83
2, 318440, Note_off_c, 0, 68, 0
2, 318440, Note_off_c, 0, 77, 0
2, 318440, Note_off_c, 0, 72, 0
2, 318480, Note_on_c, 0, 65, 84
2, 318480, Note_on_c, 0, 77, 84
2, 318480, Note_on_c, 0, 68, 84
2, 318560, Note_off_c, 0, 68, 0
2, 318560, Note_off_c, 0, 77, 0
2, 318560, Note_off_c, 0, 65, 0
2, 318600, Note_on_c, 0, 67, 84
2, 318600, Note_on_c, 0, 77, 84
2, 318600, Note_on_c, 0, 70, 84
2, 318680, Note_off_c, 0, 70, 0
2, 318680, Note_off_c, 0, 77, 0
2, 318680, Note_off_c, 0, 67, 0
2, 318720, Note_on_c, 0, 72, 84
2, 318720, Note_on_c, 0, 77, 84
2, 318720, Note_on_c, 0, 68, 84
2, 318875, Note_off_c, 0, 68, 0
2, 318875, Note_off_c, 0, 77, 0
2, 318875, Note_off_c, 0, 72, 0
2, 319320, Note_on_c, 0, 68, 86
2, 319320, Note_on_c, 0, 72, 86
2, 319320, Note_on_c, 0, 77, 86
2, 319400, Note_off_c, 0, 77, 0
2, 319400, Note_off_c, 0, 72, 0
2, 319400, Note_off_c, 0, 68, 0
2, 319440, Note_on_c, 0, 67, 86
2, 319440, Note_on_c, 0, 77, 86
2, 319440, Note_on_c, 0, 70, 86
2, 319520, Note_off_c, 0, 70, 0
2, 319520, Note_off_c, 0, 77, 0
2, 319520, Note_off_c, 0, 67, 0
2, 319560, Note_on_c, 0, 65, 87
2, 319560, Note_on_c, 0, 77, 87
2, 319560, Note_on_c, 0, 68, 87
2, 319640, Note_off_c, 0, 68, 0
2, 319640, Note_off_c, 0, 77, 0
2, 319640, Note_off_c, 0, 65, 0
2, 319800, Note_on_c, 0, 75, 87
2, 319800, Note_on_c, 0, 78, 87
2, 319800, Note_on_c, 0, 72, 87
2, 319880, Note_off_c, 0, 72, 0
2, 319880, Note_off_c, 0, 78, 0
2, 319880, Note_off_c, 0, 75, 0
2, 319920, Note_on_c, 0, 72, 88
2, 319920, Note_on_c, 0, 69, 88
2, 319920, Note_on_c, 0, 78, 88
2, 320000, Note_off_c, 0, 78, 0
2, 320000, Note_off_c, 0, 69, 0
2, 320000, Note_off_c, 0, 72, 0
2, 320040, Note_on_c, 0, 74, 88
2, 320040, Note_on_c, 0, 71, 88
2, 320040, Note_on_c, 0, 78, 88
2, 320120, Note_off_c, 0, 78, 0
2, 320120, Note_off_c, 0, 71, 0
2, 320120, Note_off_c, 0, 74, 0
2, 320160, Note_on_c, 0, 75, 89
2, 320160, Note_on_c, 0, 72, 89
2, 320160, Note_on_c, 0, 78, 89
2, 320315, Note_off_c, 0, 78, 0
2, 320315, Note_off_c, 0, 72, 0
2, 320315, Note_off_c, 0, 75, 0
2, 320760, Note_on_c, 0, 75, 90
2, 320760, Note_on_c, 0, 72, 90
2, 320760, Note_on_c, 0, 78, 90
2, 320840, Note_off_c, 0, 78, 0
2, 320840, Note_off_c, 0, 72, 0
2, 320840, Note_off_c, 0, 75, 0
2, 320880, Note_on_c, 0, 74, 91
2, 320880, Note_on_c, 0, 78, 91
2, 320880, Note_on_c, 0, 71, 91
2, 320960, Note_off_c, 0, 71, 0
2, 320960, Note_off_c, 0, 78, 0
2, 320960, Note_off_c, 0, 74, 0
2, 321000, Note_on_c, 0, 72, 91
2, 321000, Note_on_c, 0, 69, 91
2, 321000, Note_on_c, 0, 78, 91
2, 321080, Note_off_c, 0, 78, 0
2, 321080, Note_off_c, 0, 69, 0
2, 321080, Note_off_c, 0, 72, 0
2, 321120, Note_on_c, 0, 74, 95
2, 321120, Note_on_c, 0, 71, 95
2, 321120, Note_on_c, 0, 79, 95
2, 321200, Note_off_c, 0, 79, 0
2, 321200, Note_off_c, 0, 71, 0
2, 321200, Note_off_c, 0, 74, 0
2, 321240, Note_on_c, 0, 80, 95
2, 321240, Note_on_c, 0, 77, 95
2, 321320, Note_off_c, 0, 77, 0
2, 321320, Note_off_c, 0, 80, 0
2, 321360, Note_on_c, 0, 77, 94
2, 321360, Note_on_c, 0, 74, 94
2, 321440, Note_off_c, 0, 74, 0
2, 321440, Note_off_c, 0, 77, 0
2, 321480, Note_on_c, 0, 75, 93
2, 321480, Note_on_c, 0, 79, 93
2, 321560, Note_off_c, 0, 79, 0
2, 321560, Note_off_c, 0, 75, 0
2, 321600, Note_on_c, 0, 77, 93
2, 321600, Note_on_c, 0, 80, 93
2, 321755, Note_off_c, 0, 80, 0
2, 321755, Note_off_c, 0, 77, 0
2, 322200, Note_on_c, 0, 65, 89
2, 322200, Note_on_c, 0, 68, 89
2, 322280, Note_off_c, 0, 68, 0
2, 322280, Note_off_c, 0, 65, 0
2, 322320, Note_on_c, 0, 65, 89
2, 322320, Note_on_c, 0, 62, 89
2, 322400, Note_off_c, 0, 62, 0
2, 322400, Note_off_c, 0, 65, 0
2, 322440, Note_on_c, 0, 67, 88
2, 322440, Note_on_c, 0, 63, 88
2, 322520, Note_off_c, 0, 63, 0
2, 322520, Note_off_c, 0, 67, 0
2, 322560, Note_on_c, 0, 65, 87
2, 322560, Note_on_c, 0, 68, 87
2, 322715, Note_off_c, 0, 68, 0
2, 322715, Note_off_c, 0, 65, 0
2, 323160, Note_on_c, 0, 56, 84
2, 323160, Note_on_c, 0, 53, 84
2, 323240, Note_off_c, 0, 53, 0
2, 323240, Note_off_c, 0, 56, 0
2, 323280, Note_on_c, 0, 53, 83
2, 323280, Note_on_c, 0, 50, 83
2, 323360, Note_off_c, 0, 50, 0
2, 323360, Note_off_c, 0, 53, 0
2, 323400, Note_on_c, 0, 55, 82
2, 323400, Note_on_c, 0, 51, 82
2, 323480, Note_off_c, 0, 51, 0
2, 323480, Note_off_c, 0, 55, 0
2, 323520, Note_on_c, 0, 56, 82
2, 323520, Note_on_c, 0, 53, 82
2, 323675, Note_off_c, 0, 53, 0
2, 323675, Note_off_c, 0, 56, 0
2, 323760, Note_on_c, 0, 55, 80
2, 323760, Note_on_c, 0, 53, 80
2, 323760, Note_on_c, 0, 59, 80
2, 323760, Note_on_c, 0, 50, 80
2, 323915, Note_off_c, 0, 50, 0
2, 323915, Note_off_c, 0, 59, 0
2, 323915, Note_off_c, 0, 53, 0
2, 323915, Note_off_c, 0, 55, 0
2, 324000, Note_on_c, 0, 55, 79
2, 324000, Note_on_c, 0, 60, 79
2, 324000, Note_on_c, 0, 51, 79
2, 324155, Note_off_c, 0, 51, 0
2, 324155, Note_off_c, 0, 60, 0
2, 324155, Note_off_c, 0, 55, 0
2, 324480, Note_on_c, 0, 53, 76
2, 324480, Note_on_c, 0, 55, 76
2, 324480, Note_on_c, 0, 62, 76
2, 324635, Note_off_c, 0, 62, 0
2, 324635, Note_off_c, 0, 55, 0
2, 324635, Note_off_c, 0, 53, 0
2, 324960, Note_on_c, 0, 55, 73
2, 324960, Note_on_c, 0, 60, 73
2, 324960, Note_on_c, 0, 51, 73
2, 325102, Note_off_c, 0, 51, 0
2, 325102, Note_off_c, 0, 60, 0
2, 325102, Note_off_c, 0, 55, 0
2, 326880, Note_on_c, 0, 79, 56
2, 327360, Note_off_c, 0, 79, 0
2, 327360, Note_on_c, 0, 87, 57
2, 327840, Note_off_c, 0, 87, 0
2, 327840, Note_on_c, 0, 84, 58
2, 328320, Note_off_c, 0, 84, 0
2, 328320, Note_on_c, 0, 83, 58
2, 328800, Note_off_c, 0, 83, 0
2, 328800, Note_on_c, 0, 86, 59
2, 329280, Note_off_c, 0, 86, 0
2, 329280, Note_on_c, 0, 79, 60
2, 329760, Note_off_c, 0, 79, 0
2, 329760, Note_on_c, 0, 85, 61
2, 330240, Note_off_c, 0, 85, 0
2, 330240, Note_on_c, 0, 88, 62
2, 330720, Note_off_c, 0, 88, 0
2, 330720, Note_on_c, 0, 82, 63
2, 331200, Note_off_c, 0, 82, 0
2, 331200, Note_on_c, 0, 81, 64
2, 331680, Note_off_c, 0, 81, 0
2, 331680, Note_on_c, 0, 84, 65
2, 332160, Note_off_c, 0, 84, 0
2, 332160, Note_on_c, 0, 77, 66
2, 332640, Note_off_c, 0, 77, 0
2, 332640, Note_on_c, 0, 78, 66
2, 333120, Note_off_c, 0, 78, 0
2, 333120, Note_on_c, 0, 75, 68
2, 333600, Note_off_c, 0, 75, 0
2, 333600, Note_on_c, 0, 72, 70
2, 334080, Note_off_c, 0, 72, 0
2, 334080, Note_on_c, 0, 71, 73
2, 334560, Note_off_c, 0, 71, 0
2, 334560, Note_on_c, 0, 68, 75
2, 335040, Note_off_c, 0, 68, 0
2, 335040, Note_on_c, 0, 65, 78
2, 335520, Note_off_c, 0, 65, 0
2, 335520, Note_on_c, 0, 62, 80
2, 336000, Note_off_c, 0, 62, 0
2, 336000, Note_on_c, 0, 53, 76
2, 336480, Note_off_c, 0, 53, 0
2, 336480, Note_on_c, 0, 55, 72
2, 336960, Note_off_c, 0, 55, 0
2, 336960, Note_on_c, 0, 48, 68
2, 337440, Note_off_c, 0, 48, 0
2, 337440, Note_on_c, 0, 43, 65
2, 337920, Note_off_c, 0, 43, 0
2, 337920, Note_on_c, 0, 48, 61
2, 338287, Note_off_c, 0, 48, 0
2, 338400, Note_on_c, 0, 84, 80
2, 338480, Note_off_c, 0, 84, 0
2, 338480, Note_on_c, 0, 87, 79
2, 338560, Note_off_c, 0, 87, 0
2, 338560, Note_on_c, 0, 84, 79
2, 338640, Note_off_c, 0, 84, 0
2, 338640, Note_on_c, 0, 79, 78
2, 338720, Note_off_c, 0, 79, 0
2, 338720, Note_on_c, 0, 84, 77
2, 338800, Note_off_c, 0, 84, 0
2, 338800, Note_on_c, 0, 79, 77
2, 338880, Note_off_c, 0, 79, 0
2, 338880, Note_on_c, 0, 75, 76
2, 338960, Note_off_c, 0, 75, 0
2, 338960, Note_on_c, 0, 79, 75
2, 339040, Note_off_c, 0, 79, 0
2, 339040, Note_on_c, 0, 75, 74
2, 339120, Note_off_c, 0, 75, 0
2, 339120, Note_on_c, 0, 72, 74
2, 339200, Note_off_c, 0, 72, 0
2, 339200, Note_on_c, 0, 75, 73
2, 339280, Note_off_c, 0, 75, 0
2, 339280, Note_on_c, 0, 72, 72
2, 339360, Note_off_c, 0, 72, 0
2, 339360, Note_on_c, 0, 67, 72
2, 339440, Note_off_c, 0, 67, 0
2, 339440, Note_on_c, 0, 72, 71
2, 339520, Note_off_c, 0, 72, 0
2, 339520, Note_on_c, 0, 67, 70
2, 339600, Note_off_c, 0, 67, 0
2, 339600, Note_on_c, 0, 63, 69
2, 339680, Note_off_c, 0, 63, 0
2, 339680, Note_on_c, 0, 67, 69
2, 339760, Note_off_c, 0, 67, 0
2, 339760, Note_on_c, 0, 63, 68
2, 339840, Note_off_c, 0, 63, 0
2, 339840, Note_on_c, 0, 67, 67
2, 339920, Note_off_c, 0, 67, 0
2, 339920, Note_on_c, 0, 62, 67
2, 340000, Note_off_c, 0, 62, 0
2, 340000, Note_on_c, 0, 67, 69
2, 340080, Note_off_c, 0, 67, 0
2, 340080, Note_on_c, 0, 71, 70
2, 340160, Note_off_c, 0, 71, 0
2, 340160, Note_on_c, 0, 67, 71
2, 340240, Note_off_c, 0, 67, 0
2, 340240, Note_on_c, 0, 71, 72
2, 340320, Note_off_c, 0, 71, 0
2, 340320, Note_on_c, 0, 74, 73
2, 340400, Note_off_c, 0, 74, 0
2, 340400, Note_on_c, 0, 71, 74
2, 340480, Note_off_c, 0, 71, 0
2, 340480, Note_on_c, 0, 74, 75
2, 340560, Note_off_c, 0, 74, 0
2, 340560, Note_on_c, 0, 79, 77
2, 340640, Note_off_c, 0, 79, 0
2, 340640, Note_on_c, 0, 74, 78
2, 340720, Note_off_c, 0, 74, 0
2, 340720, Note_on_c, 0, 79, 79
2, 340800, Note_off_c, 0, 79, 0
2, 340800, Note_on_c, 0, 83, 80
2, 340880, Note_off_c, 0, 83, 0
2, 340880, Note_on_c, 0, 79, 81
2, 340960, Note_off_c, 0, 79, 0
2, 340960, Note_on_c, 0, 83, 82
2, 341040, Note_off_c, 0, 83, 0
2, 341040, Note_on_c, 0, 86, 83
2, 341120, Note_off_c, 0, 86, 0
2, 341120, Note_on_c, 0, 83, 85
2, 341200, Note_off_c, 0, 83, 0
2, 341200, Note_on_c, 0, 86, 86
2, 341280, Note_off_c, 0, 86, 0
2, 341280, Note_on_c, 0, 82, 87
2, 341360, Note_off_c, 0, 82, 0
2, 341360, Note_on_c, 0, 85, 87
2, 341440, Note_off_c, 0, 85, 0
2, 341440, Note_on_c, 0, 82, 86
2, 341520, Note_off_c, 0, 82, 0
2, 341520, Note_on_c, 0, 78, 85
2, 341600, Note_off_c, 0, 78, 0
2, 341600, Note_on_c, 0, 82, 85
2, 341680, Note_off_c, 0, 82, 0
2, 341680, Note_on_c, 0, 78, 84
2, 341760, Note_off_c, 0, 78, 0
2, 341760, Note_on_c, 0, 73, 83
2, 341840, Note_off_c, 0, 73, 0
2, 341840, Note_on_c, 0, 78, 83
2, 341920, Note_off_c, 0, 78, 0
2, 341920, Note_on_c, 0, 73, 82
2, 342000, Note_off_c, 0, 73, 0
2, 342000, Note_on_c, 0, 70, 81
2, 342080, Note_off_c, 0, 70, 0
2, 342080, Note_on_c, 0, 73, 80
2, 342160, Note_off_c, 0, 73, 0
2, 342160, Note_on_c, 0, 70, 80
2, 342240, Note_off_c, 0, 70, 0
2, 342240, Note_on_c, 0, 66, 79
2, 342320, Note_off_c, 0, 66, 0
2, 342320, Note_on_c, 0, 70, 78
2, 342400, Note_off_c, 0, 70, 0
2, 342400, Note_on_c, 0, 66, 78
2, 342480, Note_off_c, 0, 66, 0
2, 342480, Note_on_c, 0, 61, 77
2, 342560, Note_off_c, 0, 61, 0
2, 342560, Note_on_c, 0, 66, 76
2, 342640, Note_off_c, 0, 66, 0
2, 342640, Note_on_c, 0, 61, 76
2, 342720, Note_off_c, 0, 61, 0
2, 342720, Note_on_c, 0, 65, 74
2, 342800, Note_off_c, 0, 65, 0
2, 342800, Note_on_c, 0, 60, 74
2, 342880, Note_off_c, 0, 60, 0
2, 342880, Note_on_c, 0, 65, 75
2, 342960, Note_off_c, 0, 65, 0
2, 342960, Note_on_c, 0, 69, 76
2, 343040, Note_off_c, 0, 69, 0
2, 343040, Note_on_c, 0, 65, 77
2, 343120, Note_off_c, 0, 65, 0
2, 343120, Note_on_c, 0, 69, 77
2, 343200, Note_off_c, 0, 69, 0
2, 343200, Note_on_c, 0, 72, 78
2, 343280, Note_off_c, 0, 72, 0
2, 343280, Note_on_c, 0, 69, 79
2, 343360, Note_off_c, 0, 69, 0
2, 343360, Note_on_c, 0, 72, 80
2, 343440, Note_off_c, 0, 72, 0
2, 343440, Note_on_c, 0, 77, 80
2, 343520, Note_off_c, 0, 77, 0
2, 343520, Note_on_c, 0, 72, 81
2, 343600, Note_off_c, 0, 72, 0
2, 343600, Note_on_c, 0, 77, 82
2, 343680, Note_off_c, 0, 77, 0
2, 343680, Note_on_c, 0, 81, 83
2, 343760, Note_off_c, 0, 81, 0
2, 343760, Note_on_c, 0, 77, 83
2, 343840, Note_off_c, 0, 77, 0
2, 343840, Note_on_c, 0, 81, 84
2, 343920, Note_off_c, 0, 81, 0
2, 343920, Note_on_c, 0, 84, 85
2, 344000, Note_off_c, 0, 84, 0
2, 344000, Note_on_c, 0, 81, 86
2, 344080, Note_off_c, 0, 81, 0
2, 344080, Note_on_c, 0, 84, 86
2, 344160, Note_off_c, 0, 84, 0
2, 344160, Note_on_c, 0, 72, 87
2, 344240, Note_off_c, 0, 72, 0
2, 344240, Note_on_c, 0, 66, 88
2, 344320, Note_off_c, 0, 66, 0
2, 344320, Note_on_c, 0, 72, 89
2, 344400, Note_off_c, 0, 72, 0
2, 344400, Note_on_c, 0, 75, 90
2, 344480, Note_off_c, 0, 75, 0
2, 344480, Note_on_c, 0, 72, 90
2, 344560, Note_off_c, 0, 72, 0
2, 344560, Note_on_c, 0, 75, 91
2, 344640, Note_off_c, 0, 75, 0
2, 344640, Note_on_c, 0, 78, 92
2, 344720, Note_off_c, 0, 78, 0
2, 344720, Note_on_c, 0, 75, 93
2, 344800, Note_off_c, 0, 75, 0
2, 344800, Note_on_c, 0, 78, 93
2, 344880, Note_off_c, 0, 78, 0
2, 344880, Note_on_c, 0, 84, 94
2, 344960, Note_off_c, 0, 84, 0
2, 344960, Note_on_c, 0, 78, 95
2, 345040, Note_off_c, 0, 78, 0
2, 345040, Note_on_c, 0, 84, 96
2, 345120, Note_off_c, 0, 84, 0
2, 345120, Note_on_c, 0, 87, 96
2, 345200, Note_off_c, 0, 87, 0
2, 345200, Note_on_c, 0, 84, 97
2, 345280, Note_off_c, 0, 84, 0
2, 345280, Note_on_c, 0, 87, 98
2, 345360, Note_off_c, 0, 87, 0
2, 345360, Note_on_c, 0, 90, 99
2, 345440, Note_off_c, 0, 90, 0
2, 345440, Note_on_c, 0, 87, 99
2, 345520, Note_off_c, 0, 87, 0
2, 345520, Note_on_c, 0, 90, 100
2, 345600, Note_off_c, 0, 90, 0
2, 345600, Note_on_c, 0, 87, 101
2, 345680, Note_off_c, 0, 87, 0
2, 345680, Note_on_c, 0, 84, 102
2, 345760, Note_off_c, 0, 84, 0
2, 345760, Note_on_c, 0, 87, 103
2, 345840, Note_off_c, 0, 87, 0
2, 345840, Note_on_c, 0, 91, 103
2, 345920, Note_off_c, 0, 91, 0
2, 345920, Note_on_c, 0, 87, 104
2, 346000, Note_off_c, 0, 87, 0
2, 346000, Note_on_c, 0, 91, 105
2, 346080, Note_off_c, 0, 91, 0
2, 346080, Note_on_c, 0, 86, 106
2, 346160, Note_off_c, 0, 86, 0
2, 346160, Note_on_c, 0, 84, 106
2, 346240, Note_off_c, 0, 84, 0
2, 346240, Note_on_c, 0, 86, 105
2, 346320, Note_off_c, 0, 86, 0
2, 346320, Note_on_c, 0, 92, 105
2, 346400, Note_off_c, 0, 92, 0
2, 346400, Note_on_c, 0, 86, 105
2, 346480, Note_off_c, 0, 86, 0
2, 346480, Note_on_c, 0, 92, 105
2, 346560, Note_off_c, 0, 92, 0
2, 346560, Note_on_c, 0, 86, 105
2, 346640, Note_off_c, 0, 86, 0
2, 346640, Note_on_c, 0, 84, 105
2, 346720, Note_off_c, 0, 84, 0
2, 346720, Note_on_c, 0, 86, 105
2, 346800, Note_off_c, 0, 86, 0
2, 346800, Note_on_c, 0, 92, 105
2, 346880, Note_off_c, 0, 92, 0
2, 346880, Note_on_c, 0, 86, 105
2, 346960, Note_off_c, 0, 86, 0
2, 346960, Note_on_c, 0, 92, 105
2, 347040, Note_off_c, 0, 92, 0
2, 347040, Note_on_c, 0, 86, 105
2, 347120, Note_off_c, 0, 86, 0
2, 347120, Note_on_c, 0, 84, 103
2, 347200, Note_off_c, 0, 84, 0
2, 347200, Note_on_c, 0, 86, 102
2, 347280, Note_off_c, 0, 86, 0
2, 347280, Note_on_c, 0, 92, 101
2, 347360, Note_off_c, 0, 92, 0
2, 347360, Note_on_c, 0, 86, 99
2, 347440, Note_off_c, 0, 86, 0
2, 347440, Note_on_c, 0, 92, 98
2, 347520, Note_off_c, 0, 92, 0
2, 347520, Note_on_c, 0, 86, 97
2, 347600, Note_off_c, 0, 86, 0
2, 347600, Note_on_c, 0, 84, 95
2, 347680, Note_off_c, 0, 84, 0
2, 347680, Note_on_c, 0, 86, 94
2, 347760, Note_off_c, 0, 86, 0
2, 347760, Note_on_c, 0, 89, 93
2, 347840, Note_off_c, 0, 89, 0
2, 347840, Note_on_c, 0, 86, 91
2, 347920, Note_off_c, 0, 86, 0
2, 347920, Note_on_c, 0, 89, 90
2, 348000, Note_off_c, 0, 89, 0
2, 348000, Note_on_c, 0, 86, 88
2, 348080, Note_off_c, 0, 86, 0
2, 348080, Note_on_c, 0, 83, 87
2, 348160, Note_off_c, 0, 83, 0
2, 348160, Note_on_c, 0, 86, 86
2, 348240, Note_off_c, 0, 86, 0
2, 348240, Note_on_c, 0, 91, 84
2, 348320, Note_off_c, 0, 91, 0
2, 348320, Note_on_c, 0, 86, 83
2, 348400, Note_off_c, 0, 86, 0
2, 348400, Note_on_c, 0, 91, 82
2, 348480, Note_off_c, 0, 91, 0
2, 348480, Note_on_c, 0, 87, 80
2, 348560, Note_off_c, 0, 87, 0
2, 348560, Note_on_c, 0, 91, 79
2, 348640, Note_off_c, 0, 91, 0
2, 348640, Note_on_c, 0, 87, 77
2, 348720, Note_off_c, 0, 87, 0
2, 348720, Note_on_c, 0, 79, 76
2, 348800, Note_off_c, 0, 79, 0
2, 348800, Note_on_c, 0, 84, 75
2, 348880, Note_off_c, 0, 84, 0
2, 348880, Note_on_c, 0, 75, 73
2, 348960, Note_off_c, 0, 75, 0
2, 348960, Note_on_c, 0, 77, 72
2, 349040, Note_off_c, 0, 77, 0
2, 349040, Note_on_c, 0, 80, 71
2, 349120, Note_off_c, 0, 80, 0
2, 349120, Note_on_c, 0, 74, 69
2, 349200, Note_off_c, 0, 74, 0
2, 349200, Note_on_c, 0, 74, 68
2, 349280, Note_off_c, 0, 74, 0
2, 349280, Note_on_c, 0, 77, 66
2, 349360, Note_off_c, 0, 77, 0
2, 349360, Note_on_c, 0, 71, 65
2, 349440, Note_off_c, 0, 71, 0
2, 349440, Note_on_c, 0, 72, 64
2, 349520, Note_off_c, 0, 72, 0
2, 349520, Note_on_c, 0, 75, 62
2, 349600, Note_off_c, 0, 75, 0
2, 349600, Note_on_c, 0, 67, 61
2, 349680, Note_off_c, 0, 67, 0
2, 349680, Note_on_c, 0, 63, 60
2, 349760, Note_off_c, 0, 63, 0
2, 349760, Note_on_c, 0, 67, 59
2, 349840, Note_off_c, 0, 67, 0
2, 349840, Note_on_c, 0, 60, 58
2, 349912, Note_off_c, 0, 60, 0
2, 349920, Note_on_c, 0, 55, 47
2, 349920, Note_on_c, 0, 60, 53
2, 350305, Note_off_c, 0, 60, 0
2, 350305, Note_off_c, 0, 55, 0
2, 350400, Note_on_c, 0, 55, 40
2, 350400, Note_on_c, 0, 59, 40
2, 350785, Note_off_c, 0, 59, 0
2, 350785, Note_off_c, 0, 55, 0
2, 350880, Note_on_c, 0, 55, 38
2, 350880, Note_on_c, 0, 60, 38
2, 351265, Note_off_c, 0, 60, 0
2, 351265, Note_off_c, 0, 55, 0
2, 351360, Note_on_c, 0, 56, 39
2, 351360, Note_on_c, 0, 61, 39
2, 351745, Note_off_c, 0, 61, 0
2, 351757, Note_off_c, 0, 56, 0
2, 351840, Note_on_c, 0, 56, 40
2, 351840, Note_on_c, 0, 62, 40
2, 352225, Note_off_c, 0, 62, 0
2, 352252, Note_off_c, 0, 56, 0
2, 352320, Note_on_c, 0, 56, 42
2, 352320, Note_on_c, 0, 62, 42
2, 352705, Note_off_c, 0, 62, 0
2, 352732, Note_off_c, 0, 56, 0
2, 352800, Note_on_c, 0, 55, 43
2, 352800, Note_on_c, 0, 63, 43
2, 353185, Note_off_c, 0, 63, 0
2, 353185, Note_off_c, 0, 55, 0
2, 353280, Note_on_c, 0, 55, 44
2, 353280, Note_on_c, 0, 64, 44
2, 353665, Note_off_c, 0, 64, 0
2, 353665, Note_off_c, 0, 55, 0
2, 353760, Note_on_c, 0, 55, 45
2, 353760, Note_on_c, 0, 64, 45
2, 354145, Note_off_c, 0, 64, 0
2, 354145, Note_off_c, 0, 55, 0
2, 354240, Note_on_c, 0, 64, 46
2, 354240, Note_on_c, 0, 60, 46
2, 354625, Note_off_c, 0, 60, 0
2, 354625, Note_off_c, 0, 64, 0
2, 354720, Note_on_c, 0, 60, 47
2, 354720, Note_on_c, 0, 65, 47
2, 355105, Note_off_c, 0, 65, 0
2, 355105, Note_off_c, 0, 60, 0
2, 355200, Note_on_c, 0, 60, 49
2, 355200, Note_on_c, 0, 65, 49
2, 355585, Note_off_c, 0, 65, 0
2, 355585, Note_off_c, 0, 60, 0
2, 355680, Note_on_c, 0, 66, 52
2, 355680, Note_on_c, 0, 60, 52
2, 356065, Note_off_c, 0, 60, 0
2, 356065, Note_off_c, 0, 66, 0
2, 356160, Note_on_c, 0, 66, 56
2, 356160, Note_on_c, 0, 62, 56
2, 356545, Note_off_c, 0, 62, 0
2, 356545, Note_off_c, 0, 66, 0
2, 356640, Note_on_c, 0, 66, 60
2, 356640, Note_on_c, 0, 63, 60
2, 357025, Note_off_c, 0, 63, 0
2, 357025, Note_off_c, 0, 66, 0
2, 357120, Note_on_c, 0, 59, 65
2, 357120, Note_on_c, 0, 67, 65
2, 357505, Note_off_c, 0, 67, 0
2, 357505, Note_off_c, 0, 59, 0
2, 357600, Note_on_c, 0, 68, 69
2, 357600, Note_on_c, 0, 59, 69
2, 357985, Note_off_c, 0, 59, 0
2, 357985, Note_off_c, 0, 68, 0
2, 358080, Note_on_c, 0, 68, 64
2, 358080, Note_on_c, 0, 59, 64
2, 358465, Note_off_c, 0, 59, 0
2, 358465, Note_off_c, 0, 68, 0
2, 358560, Note_on_c, 0, 59, 60
2, 358560, Note_on_c, 0, 68, 60
2, 358945, Note_off_c, 0, 68, 0
2, 358945, Note_off_c, 0, 59, 0
2, 359040, Note_on_c, 0, 65, 56
2, 359040, Note_on_c, 0, 59, 56
2, 359425, Note_off_c, 0, 59, 0
2, 359425, Note_off_c, 0, 65, 0
2, 359520, Note_on_c, 0, 67, 52
2, 359520, Note_on_c, 0, 59, 52
2, 359905, Note_off_c, 0, 59, 0
2, 359905, Note_off_c, 0, 67, 0
2, 360000, Note_on_c, 0, 67, 47
2, 360000, Note_on_c, 0, 60, 47
2, 360385, Note_off_c, 0, 60, 0
2, 360385, Note_off_c, 0, 67, 0
2, 360480, Note_on_c, 0, 67, 43
2, 360480, Note_on_c, 0, 59, 43
2, 360865, Note_off_c, 0, 59, 0
2, 360865, Note_off_c, 0, 67, 0
2, 360960, Note_on_c, 0, 67, 39
2, 360960, Note_on_c, 0, 60, 39
2, 361284, Note_off_c, 0, 60, 0
2, 361284, Note_off_c, 0, 67, 0
2, 361920, Note_on_c, 0, 60, 45
2, 361920, Note_on_c, 0, 72, 45
2, 362760, Note_on_c, 0, 75, 46
2, 362760, Note_on_c, 0, 63, 46
2, 362778, Note_off_c, 0, 72, 0
2, 362780, Note_off_c, 0, 60, 0
2, 362840, Note_off_c, 0, 63, 0
2, 362840, Note_off_c, 0, 75, 0
2, 362880, Note_on_c, 0, 74, 46
2, 362880, Note_on_c, 0, 62, 46
2, 363072, Note_off_c, 0, 62, 0
2, 363072, Note_off_c, 0, 74, 0
2, 363360, Note_on_c, 0, 67, 47
2, 363830, Note_off_c, 0, 67, 0
2, 364080, Note_on_c, 0, 67, 46
2, 364120, Note_off_c, 0, 67, 0
2, 364120, Note_on_c, 0, 69, 47
2, 364160, Note_off_c, 0, 69, 0
2, 364160, Note_on_c, 0, 71, 47
2, 364200, Note_off_c, 0, 71, 0
2, 364200, Note_on_c, 0, 72, 48
2, 364260, Note_off_c, 0, 72, 0
2, 364260, Note_on_c, 0, 74, 50
2, 364320, Note_off_c, 0, 74, 0
2, 364320, Note_on_c, 0, 64, 53
2, 364320, Note_on_c, 0, 76, 53
2, 364512, Note_off_c, 0, 76, 0
2, 364512, Note_off_c, 0, 64, 0
2, 364800, Note_on_c, 0, 64, 50
2, 364800, Note_on_c, 0, 76, 50
2, 365640, Note_off_c, 0, 64, 0
2, 365640, Note_on_c, 0, 79, 51
2, 365640, Note_on_c, 0, 67, 51
2, 365645, Note_off_c, 0, 76, 0
2, 365720, Note_off_c, 0, 67, 0
2, 365720, Note_off_c, 0, 79, 0
2, 365760, Note_on_c, 0, 77, 51
2, 365760, Note_on_c, 0, 65, 51
2, 365952, Note_off_c, 0, 65, 0
2, 365952, Note_off_c, 0, 77, 0
2, 366240, Note_on_c, 0, 65, 52
2, 366960, Note_off_c, 0, 65, 0
2, 366960, Note_on_c, 0, 72, 52
2, 367020, Note_off_c, 0, 72, 0
2, 367020, Note_on_c, 0, 74, 53
2, 367080, Note_off_c, 0, 74, 0
2, 367080, Note_on_c, 0, 76, 55
2, 367140, Note_off_c, 0, 76, 0
2, 367140, Note_on_c, 0, 77, 56
2, 367200, Note_off_c, 0, 77, 0
2, 367200, Note_on_c, 0, 78, 60
2, 367200, Note_on_c, 0, 66, 58
2, 367392, Note_off_c, 0, 66, 0
2, 367392, Note_off_c, 0, 78, 0
2, 367680, Note_on_c, 0, 66, 55
2, 368400, Note_off_c, 0, 66, 0
2, 368400, Note_on_c, 0, 72, 59
2, 368460, Note_off_c, 0, 72, 0
2, 368460, Note_on_c, 0, 74, 61
2, 368520, Note_off_c, 0, 74, 0
2, 368520, Note_on_c, 0, 75, 63
2, 368580, Note_off_c, 0, 75, 0
2, 368580, Note_on_c, 0, 78, 66
2, 368640, Note_off_c, 0, 78, 0
2, 368640, Note_on_c, 0, 67, 68
2, 368640, Note_on_c, 0, 79, 68
2, 368832, Note_off_c, 0, 79, 0
2, 368832, Note_off_c, 0, 67, 0
2, 369120, Note_on_c, 0, 80, 72
2, 369120, Note_on_c, 0, 68, 72
2, 370080, Note_off_c, 0, 68, 0
2, 370080, Note_off_c, 0, 80, 0
2, 370440, Note_on_c, 0, 80, 54
2, 370440, Note_on_c, 0, 68, 54
2, 370520, Note_off_c, 0, 68, 0
2, 370520, Note_off_c, 0, 80, 0
2, 370560, Note_on_c, 0, 77, 53
2, 370560, Note_on_c, 0, 65, 53
2, 370715, Note_off_c, 0, 65, 0
2, 370715, Note_off_c, 0, 77, 0
2, 371040, Note_on_c, 0, 79, 48
2, 371040, Note_on_c, 0, 67, 48
2, 371160, Note_off_c, 0, 67, 0
2, 371160, Note_off_c, 0, 79, 0
2, 371520, Note_on_c, 0, 72, 45
2, 371588, Note_on_c, 0, 71, 45
2, 371589, Note_off_c, 0, 72, 0
2, 371656, Note_on_c, 0, 69, 46
2, 371657, Note_off_c, 0, 71, 0
2, 371725, Note_off_c, 0, 69, 0
2, 371725, Note_on_c, 0, 67, 46
2, 371793, Note_on_c, 0, 65, 47
2, 371794, Note_off_c, 0, 67, 0
2, 371861, Note_on_c, 0, 63, 47
2, 371862, Note_off_c, 0, 65, 0
2, 371929, Note_on_c, 0, 62, 48
2, 371930, Note_off_c, 0, 63, 0
2, 371998, Note_off_c, 0, 62, 0
2, 372000, Note_on_c, 0, 60, 48
2, 372068, Note_on_c, 0, 62, 49
2, 372069, Note_off_c, 0, 60, 0
2, 372136, Note_on_c, 0, 63, 49
2, 372137, Note_off_c, 0, 62, 0
2, 372205, Note_off_c, 0, 63, 0
2, 372205, Note_on_c, 0, 65, 50
2, 372273, Note_on_c, 0, 67, 50
2, 372274, Note_off_c, 0, 65, 0
2, 372341, Note_on_c, 0, 69, 51
2, 372343, Note_off_c, 0, 67, 0
2, 372409, Note_on_c, 0, 71, 51
2, 372410, Note_off_c, 0, 69, 0
2, 372479, Note_off_c, 0, 71, 0
2, 372480, Note_on_c, 0, 72, 52
2, 372548, Note_on_c, 0, 74, 53
2, 372550, Note_off_c, 0, 72, 0
2, 372616, Note_on_c, 0, 75, 53
2, 372617, Note_off_c, 0, 74, 0
2, 372685, Note_off_c, 0, 75, 0
2, 372685, Note_on_c, 0, 77, 54
2, 372753, Note_on_c, 0, 79, 54
2, 372754, Note_off_c, 0, 77, 0
2, 372821, Note_on_c, 0, 81, 55
2, 372822, Note_off_c, 0, 79, 0
2, 372889, Note_on_c, 0, 83, 55
2, 372890, Note_off_c, 0, 81, 0
2, 372958, Note_off_c, 0, 83, 0
2, 372960, Note_on_c, 0, 84, 56
2, 373028, Note_on_c, 0, 83, 56
2, 373029, Note_off_c, 0, 84, 0
2, 373096, Note_on_c, 0, 81, 57
2, 373097, Note_off_c, 0, 83, 0
2, 373165, Note_off_c, 0, 81, 0
2, 373165, Note_on_c, 0, 79, 57
2, 373233, Note_on_c, 0, 77, 58
2, 373234, Note_off_c, 0, 79, 0
2, 373301, Note_on_c, 0, 75, 58
2, 373302, Note_off_c, 0, 77, 0
2, 373369, Note_on_c, 0, 74, 59
2, 373370, Note_off_c, 0, 75, 0
2, 373438, Note_off_c, 0, 74, 0
2, 373440, Note_on_c, 0, 72, 60
2, 373508, Note_on_c, 0, 74, 60
2, 373509, Note_off_c, 0, 72, 0
2, 373576, Note_on_c, 0, 75, 61
2, 373577, Note_off_c, 0, 74, 0
2, 373645, Note_off_c, 0, 75, 0
2, 373645, Note_on_c, 0, 77, 61
2, 373713, Note_on_c, 0, 79, 62
2, 373714, Note_off_c, 0, 77, 0
2, 373781, Note_on_c, 0, 81, 62
2, 373783, Note_off_c, 0, 79, 0
2, 373849, Note_on_c, 0, 83, 63
2, 373850, Note_off_c, 0, 81, 0
2, 373919, Note_off_c, 0, 83, 0
2, 373920, Note_on_c, 0, 84, 63
2, 373980, Note_off_c, 0, 84, 0
2, 373980, Note_on_c, 0, 83, 64
2, 374040, Note_off_c, 0, 83, 0
2, 374040, Note_on_c, 0, 81, 64
2, 374100, Note_off_c, 0, 81, 0
2, 374100, Note_on_c, 0, 79, 65
2, 374160, Note_off_c, 0, 79, 0
2, 374160, Note_on_c, 0, 77, 65
2, 374220, Note_off_c, 0, 77, 0
2, 374220, Note_on_c, 0, 75, 66
2, 374280, Note_off_c, 0, 75, 0
2, 374280, Note_on_c, 0, 74, 66
2, 374340, Note_off_c, 0, 74, 0
2, 374340, Note_on_c, 0, 72, 67
2, 374400, Note_off_c, 0, 72, 0
2, 374400, Note_on_c, 0, 86, 68
2, 374468, Note_on_c, 0, 84, 68
2, 374469, Note_off_c, 0, 86, 0
2, 374536, Note_on_c, 0, 83, 69
2, 374537, Note_off_c, 0, 84, 0
2, 374605, Note_off_c, 0, 83, 0
2, 374605, Note_on_c, 0, 80, 69
2, 374673, Note_on_c, 0, 79, 70
2, 374674, Note_off_c, 0, 80, 0
2, 374741, Note_on_c, 0, 77, 70
2, 374742, Note_off_c, 0, 79, 0
2, 374809, Note_on_c, 0, 75, 71
2, 374810, Note_off_c, 0, 77, 0
2, 374878, Note_off_c, 0, 75, 0
2, 374880, Note_on_c, 0, 74, 71
2, 374948, Note_on_c, 0, 75, 72
2, 374949, Note_off_c, 0, 74, 0
2, 375016, Note_on_c, 0, 77, 72
2, 375017, Note_off_c, 0, 75, 0
2, 375085, Note_off_c, 0, 77, 0
2, 375085, Note_on_c, 0, 79, 73
2, 375153, Note_on_c, 0, 81, 73
2, 375154, Note_off_c, 0, 79, 0
2, 375221, Note_on_c, 0, 83, 74
2, 375223, Note_off_c, 0, 81, 0
2, 375289, Note_on_c, 0, 84, 75
2, 375290, Note_off_c, 0, 83, 0
2, 375359, Note_off_c, 0, 84, 0
2, 375360, Note_on_c, 0, 86, 75
2, 375420, Note_off_c, 0, 86, 0
2, 375420, Note_on_c, 0, 84, 76
2, 375480, Note_off_c, 0, 84, 0
2, 375480, Note_on_c, 0, 83, 76
2, 375540, Note_off_c, 0, 83, 0
2, 375540, Note_on_c, 0, 80, 77
2, 375600, Note_off_c, 0, 80, 0
2, 375600, Note_on_c, 0, 79, 77
2, 375660, Note_off_c, 0, 79, 0
2, 375660, Note_on_c, 0, 77, 77
2, 375720, Note_off_c, 0, 77, 0
2, 375720, Note_on_c, 0, 75, 78
2, 375780, Note_off_c, 0, 75, 0
2, 375780, Note_on_c, 0, 74, 78
2, 375840, Note_off_c, 0, 74, 0
2, 375840, Note_on_c, 0, 88, 79
2, 375908, Note_on_c, 0, 86, 79
2, 375909, Note_off_c, 0, 88, 0
2, 375976, Note_on_c, 0, 84, 80
2, 375977, Note_off_c, 0, 86, 0
2, 376045, Note_off_c, 0, 84, 0
2, 376045, Note_on_c, 0, 82, 81
2, 376113, Note_on_c, 0, 81, 81
2, 376114, Note_off_c, 0, 82, 0
2, 376181, Note_on_c, 0, 79, 82
2, 376182, Note_off_c, 0, 81, 0
2, 376249, Note_on_c, 0, 77, 82
2, 376250, Note_off_c, 0, 79, 0
2, 376318, Note_off_c, 0, 77, 0
2, 376320, Note_on_c, 0, 76, 83
2, 376388, Note_on_c, 0, 77, 83
2, 376389, Note_off_c, 0, 76, 0
2, 376456, Note_on_c, 0, 79, 84
2, 376457, Note_off_c, 0, 77, 0
2, 376525, Note_off_c, 0, 79, 0
2, 376525, Note_on_c, 0, 81, 84
2, 376593, Note_on_c, 0, 83, 85
2, 376594, Note_off_c, 0, 81, 0
2, 376661, Note_on_c, 0, 84, 85
2, 376663, Note_off_c, 0, 83, 0
2, 376729, Note_on_c, 0, 86, 86
2, 376730, Note_off_c, 0, 84, 0
2, 376799, Note_off_c, 0, 86, 0
2, 376800, Note_on_c, 0, 88, 86
2, 376860, Note_off_c, 0, 88, 0
2, 376860, Note_on_c, 0, 86, 87
2, 376920, Note_off_c, 0, 86, 0
2, 376920, Note_on_c, 0, 84, 87
2, 376980, Note_off_c, 0, 84, 0
2, 376980, Note_on_c, 0, 82, 88
2, 377040, Note_off_c, 0, 82, 0
2, 377040, Note_on_c, 0, 81, 88
2, 377100, Note_off_c, 0, 81, 0
2, 377100, Note_on_c, 0, 79, 89
2, 377160, Note_off_c, 0, 79, 0
2, 377160, Note_on_c, 0, 77, 89
2, 377220, Note_off_c, 0, 77, 0
2, 377220, Note_on_c, 0, 76, 90
2, 377280, Note_off_c, 0, 76, 0
2, 377280, Note_on_c, 0, 89, 90
2, 377348, Note_on_c, 0, 88, 91
2, 377349, Note_off_c, 0, 89, 0
2, 377416, Note_on_c, 0, 86, 91
2, 377417, Note_off_c, 0, 88, 0
2, 377485, Note_off_c, 0, 86, 0
2, 377485, Note_on_c, 0, 84, 92
2, 377553, Note_on_c, 0, 83, 92
2, 377554, Note_off_c, 0, 84, 0
2, 377621, Note_on_c, 0, 81, 93
2, 377622, Note_off_c, 0, 83, 0
2, 377689, Note_on_c, 0, 79, 93
2, 377690, Note_off_c, 0, 81, 0
2, 377758, Note_off_c, 0, 79, 0
2, 377760, Note_on_c, 0, 77, 94
2, 377828, Note_on_c, 0, 79, 95
2, 377829, Note_off_c, 0, 77, 0
2, 377896, Note_on_c, 0, 81, 95
2, 377897, Note_off_c, 0, 79, 0
2, 377965, Note_off_c, 0, 81, 0
2, 377965, Note_on_c, 0, 83, 96
2, 378033, Note_on_c, 0, 84, 96
2, 378034, Note_off_c, 0, 83, 0
2, 378101, Note_on_c, 0, 86, 97
2, 378103, Note_off_c, 0, 84, 0
2, 378169, Note_on_c, 0, 88, 97
2, 378170, Note_off_c, 0, 86, 0
2, 378239, Note_off_c, 0, 88, 0
2, 378240, Note_on_c, 0, 89, 98
2, 378300, Note_off_c, 0, 89, 0
2, 378300, Note_on_c, 0, 88, 98
2, 378360, Note_off_c, 0, 88, 0
2, 378360, Note_on_c, 0, 86, 99
2, 378420, Note_off_c, 0, 86, 0
2, 378420, Note_on_c, 0, 84, 99
2, 378480, Note_off_c, 0, 84, 0
2, 378480, Note_on_c, 0, 82, 100
2, 378540, Note_off_c, 0, 82, 0
2, 378540, Note_on_c, 0, 81, 100
2, 378600, Note_off_c, 0, 81, 0
2, 378600, Note_on_c, 0, 79, 101
2, 378660, Note_off_c, 0, 79, 0
2, 378660, Note_on_c, 0, 77, 101
2, 378720, Note_off_c, 0, 77, 0
2, 378720, Note_on_c, 0, 90, 102
2, 378788, Note_on_c, 0, 87, 102
2, 378789, Note_off_c, 0, 90, 0
2, 378856, Note_on_c, 0, 86, 103
2, 378857, Note_off_c, 0, 87, 0
2, 378925, Note_off_c, 0, 86, 0
2, 378925, Note_on_c, 0, 84, 103
2, 378993, Note_on_c, 0, 82, 104
2, 378994, Note_off_c, 0, 84, 0
2, 379061, Note_on_c, 0, 81, 104
2, 379062, Note_off_c, 0, 82, 0
2, 379129, Note_on_c, 0, 79, 105
2, 379130, Note_off_c, 0, 81, 0
2, 379198, Note_off_c, 0, 79, 0
2, 379200, Note_on_c, 0, 78, 105
2, 379268, Note_on_c, 0, 79, 106
2, 379269, Note_off_c, 0, 78, 0
2, 379336, Note_on_c, 0, 81, 106
2, 379337, Note_off_c, 0, 79, 0
2, 379405, Note_off_c, 0, 81, 0
2, 379405, Note_on_c, 0, 82, 107
2, 379473, Note_on_c, 0, 84, 107
2, 379474, Note_off_c, 0, 82, 0
2, 379541, Note_on_c, 0, 86, 108
2, 379543, Note_off_c, 0, 84, 0
2, 379609, Note_on_c, 0, 87, 108
2, 379610, Note_off_c, 0, 86, 0
2, 379679, Note_off_c, 0, 87, 0
2, 379680, Note_on_c, 0, 89, 109
2, 379740, Note_off_c, 0, 89, 0
2, 379740, Note_on_c, 0, 87, 110
2, 379800, Note_off_c, 0, 87, 0
2, 379800, Note_on_c, 0, 86, 110
2, 379860, Note_off_c, 0, 86, 0
2, 379860, Note_on_c, 0, 84, 110
2, 379920, Note_off_c, 0, 84, 0
2, 379920, Note_on_c, 0, 82, 111
2, 379980, Note_off_c, 0, 82, 0
2, 379980, Note_on_c, 0, 81, 111
2, 380040, Note_off_c, 0, 81, 0
2, 380040, Note_on_c, 0, 79, 112
2, 380100, Note_off_c, 0, 79, 0
2, 380100, Note_on_c, 0, 78, 112
2, 380160, Note_off_c, 0, 78, 0
2, 380160, Note_on_c, 0, 91, 112
2, 380220, Note_off_c, 0, 91, 0
2, 380220, Note_on_c, 0, 89, 112
2, 380280, Note_off_c, 0, 89, 0
2, 380280, Note_on_c, 0, 88, 112
2, 380340, Note_off_c, 0, 88, 0
2, 380340, Note_on_c, 0, 86, 113
2, 380400, Note_off_c, 0, 86, 0
2, 380400, Note_on_c, 0, 84, 113
2, 380460, Note_off_c, 0, 84, 0
2, 380460, Note_on_c, 0, 82, 113
2, 380520, Note_off_c, 0, 82, 0
2, 380520, Note_on_c, 0, 80, 113
2, 380580, Note_off_c, 0, 80, 0
2, 380580, Note_on_c, 0, 79, 114
2, 380640, Note_off_c, 0, 79, 0
2, 380640, Note_on_c, 0, 80, 114
2, 380708, Note_on_c, 0, 83, 114
2, 380709, Note_off_c, 0, 80, 0
2, 380776, Note_on_c, 0, 84, 115
2, 380777, Note_off_c, 0, 83, 0
2, 380845, Note_off_c, 0, 84, 0
2, 380845, Note_on_c, 0, 86, 115
2, 380913, Note_on_c, 0, 88, 115
2, 380914, Note_off_c, 0, 86, 0
2, 380981, Note_on_c, 0, 89, 116
2, 380983, Note_off_c, 0, 88, 0
2, 381049, Note_on_c, 0, 91, 116
2, 381050, Note_off_c, 0, 89, 0
2, 381119, Note_off_c, 0, 91, 0
2, 381120, Note_on_c, 0, 93, 117
2, 381180, Note_off_c, 0, 93, 0
2, 381180, Note_on_c, 0, 91, 117
2, 381240, Note_off_c, 0, 91, 0
2, 381240, Note_on_c, 0, 89, 117
2, 381300, Note_off_c, 0, 89, 0
2, 381300, Note_on_c, 0, 88, 117
2, 381360, Note_off_c, 0, 88, 0
2, 381360, Note_on_c, 0, 86, 118
2, 381420, Note_off_c, 0, 86, 0
2, 381420, Note_on_c, 0, 84, 118
2, 381480, Note_off_c, 0, 84, 0
2, 381480, Note_on_c, 0, 82, 118
2, 381540, Note_off_c, 0, 82, 0
2, 381540, Note_on_c, 0, 80, 119
2, 381600, Note_off_c, 0, 80, 0
2, 381600, Note_on_c, 0, 83, 119
2, 381668, Note_on_c, 0, 81, 119
2, 381669, Note_off_c, 0, 83, 0
2, 381736, Note_on_c, 0, 79, 120
2, 381737, Note_off_c, 0, 81, 0
2, 381805, Note_off_c, 0, 79, 0
2, 381805, Note_on_c, 0, 77, 120
2, 381873, Note_on_c, 0, 75, 120
2, 381874, Note_off_c, 0, 77, 0
2, 381941, Note_on_c, 0, 74, 121
2, 381942, Note_off_c, 0, 75, 0
2, 382009, Note_on_c, 0, 72, 121
2, 382010, Note_off_c, 0, 74, 0
2, 382078, Note_off_c, 0, 72, 0
2, 382080, Note_on_c, 0, 71, 122
2, 382148, Note_on_c, 0, 72, 122
2, 382149, Note_off_c, 0, 71, 0
2, 382216, Note_on_c, 0, 74, 122
2, 382217, Note_off_c, 0, 72, 0
2, 382285, Note_off_c, 0, 74, 0
2, 382285, Note_on_c, 0, 75, 123
2, 382353, Note_on_c, 0, 77, 123
2, 382354, Note_off_c, 0, 75, 0
2, 382421, Note_on_c, 0, 79, 123
2, 382423, Note_off_c, 0, 77, 0
2, 382489, Note_on_c, 0, 81, 124
2, 382490, Note_off_c, 0, 79, 0
2, 382559, Note_off_c, 0, 81, 0
2, 382560, Note_on_c, 0, 83, 124
2, 382620, Note_off_c, 0, 83, 0
2, 382620, Note_on_c, 0, 84, 124
2, 382680, Note_off_c, 0, 84, 0
2, 382680, Note_on_c, 0, 86, 125
2, 382740, Note_off_c, 0, 86, 0
2, 382740, Note_on_c, 0, 87, 125
2, 382800, Note_off_c, 0, 87, 0
2, 382800, Note_on_c, 0, 89, 125
2, 382860, Note_off_c, 0, 89, 0
2, 382860, Note_on_c, 0, 91, 126
2, 382920, Note_off_c, 0, 91, 0
2, 382920, Note_on_c, 0, 93, 126
2, 382980, Note_off_c, 0, 93, 0
2, 382980, Note_on_c, 0, 95, 126
2, 383040, Note_off_c, 0, 95, 0
2, 383040, Note_on_c, 0, 96, 126
2, 383120, Note_on_c, 0, 91, 126
2, 383197, Note_off_c, 0, 96, 0
2, 383200, Note_on_c, 0, 89, 125
2, 383280, Note_on_c, 0, 88, 125
2, 383287, Note_off_c, 0, 91, 0
2, 383355, Note_off_c, 0, 89, 0
2, 383360, Note_on_c, 0, 86, 124
2, 383440, Note_on_c, 0, 84, 124
2, 383445, Note_off_c, 0, 88, 0
2, 383520, Note_off_c, 0, 86, 0
2, 383520, Note_on_c, 0, 87, 123
2, 383595, Note_off_c, 0, 84, 0
2, 383600, Note_on_c, 0, 91, 123
2, 383640, Note_off_c, 0, 87, 0
2, 383680, Note_on_c, 0, 89, 122
2, 383722, Note_off_c, 0, 91, 0
2, 383760, Note_on_c, 0, 87, 122
2, 383805, Note_off_c, 0, 89, 0
2, 383840, Note_on_c, 0, 86, 121
2, 383880, Note_off_c, 0, 87, 0
2, 383920, Note_on_c, 0, 84, 121
2, 383962, Note_off_c, 0, 86, 0
2, 384000, Note_on_c, 0, 83, 120
2, 384015, Note_off_c, 0, 84, 0
2, 384080, Note_off_c, 0, 83, 0
2, 384080, Note_on_c, 0, 86, 120
2, 384160, Note_off_c, 0, 86, 0
2, 384160, Note_on_c, 0, 84, 119
2, 384240, Note_off_c, 0, 84, 0
2, 384240, Note_on_c, 0, 83, 119
2, 384320, Note_off_c, 0, 83, 0
2, 384320, Note_on_c, 0, 81, 118
2, 384400, Note_off_c, 0, 81, 0
2, 384420, Note_on_c, 0, 79, 118
2, 384480, Note_on_c, 0, 83, 117
2, 384500, Note_off_c, 0, 79, 0
2, 384560, Note_off_c, 0, 83, 0
2, 384560, Note_on_c, 0, 86, 117
2, 384640, Note_off_c, 0, 86, 0
2, 384640, Note_on_c, 0, 84, 116
2, 384720, Note_off_c, 0, 84, 0
2, 384720, Note_on_c, 0, 83, 116
2, 384800, Note_off_c, 0, 83, 0
2, 384800, Note_on_c, 0, 81, 115
2, 384880, Note_off_c, 0, 81, 0
2, 384880, Note_on_c, 0, 79, 115
2, 384960, Note_off_c, 0, 79, 0
2, 384960, Note_on_c, 0, 77, 115
2, 385040, Note_off_c, 0, 77, 0
2, 385040, Note_on_c, 0, 80, 114
2, 385120, Note_off_c, 0, 80, 0
2, 385120, Note_on_c, 0, 79, 114
2, 385200, Note_off_c, 0, 79, 0
2, 385200, Note_on_c, 0, 77, 113
2, 385280, Note_off_c, 0, 77, 0
2, 385280, Note_on_c, 0, 75, 113
2, 385360, Note_off_c, 0, 75, 0
2, 385360, Note_on_c, 0, 74, 112
2, 385440, Note_off_c, 0, 74, 0
2, 385440, Note_on_c, 0, 75, 112
2, 385520, Note_off_c, 0, 75, 0
2, 385520, Note_on_c, 0, 79, 111
2, 385600, Note_off_c, 0, 79, 0
2, 385600, Note_on_c, 0, 77, 111
2, 385680, Note_off_c, 0, 77, 0
2, 385680, Note_on_c, 0, 75, 110
2, 385760, Note_off_c, 0, 75, 0
2, 385760, Note_on_c, 0, 74, 110
2, 385840, Note_off_c, 0, 74, 0
2, 385840, Note_on_c, 0, 72, 109
2, 385920, Note_off_c, 0, 72, 0
2, 385920, Note_on_c, 0, 75, 109
2, 386000, Note_off_c, 0, 75, 0
2, 386000, Note_on_c, 0, 79, 108
2, 386080, Note_off_c, 0, 79, 0
2, 386080, Note_on_c, 0, 77, 108
2, 386160, Note_off_c, 0, 77, 0
2, 386160, Note_on_c, 0, 75, 107
2, 386240, Note_off_c, 0, 75, 0
2, 386240, Note_on_c, 0, 74, 107
2, 386320, Note_off_c, 0, 74, 0
2, 386320, Note_on_c, 0, 72, 106
2, 386400, Note_off_c, 0, 72, 0
2, 386400, Note_on_c, 0, 75, 106
2, 386480, Note_off_c, 0, 75, 0
2, 386480, Note_on_c, 0, 79, 105
2, 386560, Note_off_c, 0, 79, 0
2, 386560, Note_on_c, 0, 77, 105
2, 386640, Note_off_c, 0, 77, 0
2, 386640, Note_on_c, 0, 75, 104
2, 386720, Note_off_c, 0, 75, 0
2, 386720, Note_on_c, 0, 74, 104
2, 386800, Note_off_c, 0, 74, 0
2, 386800, Note_on_c, 0, 72, 103
2, 386880, Note_off_c, 0, 72, 0
2, 386880, Note_on_c, 0, 75, 103
2, 386960, Note_off_c, 0, 75, 0
2, 386960, Note_on_c, 0, 79, 102
2, 387040, Note_off_c, 0, 79, 0
2, 387040, Note_on_c, 0, 77, 102
2, 387120, Note_off_c, 0, 77, 0
2, 387120, Note_on_c, 0, 75, 101
2, 387200, Note_off_c, 0, 75, 0
2, 387200, Note_on_c, 0, 74, 101
2, 387280, Note_off_c, 0, 74, 0
2, 387280, Note_on_c, 0, 72, 100
2, 387360, Note_off_c, 0, 72, 0
2, 387360, Note_on_c, 0, 71, 100
2, 387440, Note_off_c, 0, 71, 0
2, 387440, Note_on_c, 0, 74, 100
2, 387520, Note_off_c, 0, 74, 0
2, 387520, Note_on_c, 0, 72, 100
2, 387600, Note_off_c, 0, 72, 0
2, 387600, Note_on_c, 0, 71, 99
2, 387680, Note_off_c, 0, 71, 0
2, 387680, Note_on_c, 0, 69, 99
2, 387760, Note_off_c, 0, 69, 0
2, 387760, Note_on_c, 0, 67, 99
2, 387840, Note_off_c, 0, 67, 0
2, 387840, Note_on_c, 0, 71, 98
2, 387920, Note_off_c, 0, 71, 0
2, 387920, Note_on_c, 0, 74, 98
2, 388000, Note_off_c, 0, 74, 0
2, 388000, Note_on_c, 0, 72, 98
2, 388080, Note_off_c, 0, 72, 0
2, 388080, Note_on_c, 0, 71, 97
2, 388160, Note_off_c, 0, 71, 0
2, 388160, Note_on_c, 0, 69, 97
2, 388240, Note_off_c, 0, 69, 0
2, 388240, Note_on_c, 0, 67, 97
2, 388320, Note_off_c, 0, 67, 0
2, 388320, Note_on_c, 0, 65, 96
2, 388400, Note_off_c, 0, 65, 0
2, 388400, Note_on_c, 0, 68, 96
2, 388480, Note_off_c, 0, 68, 0
2, 388480, Note_on_c, 0, 67, 96
2, 388560, Note_off_c, 0, 67, 0
2, 388560, Note_on_c, 0, 65, 95
2, 388640, Note_off_c, 0, 65, 0
2, 388640, Note_on_c, 0, 63, 95
2, 388720, Note_off_c, 0, 63, 0
2, 388720, Note_on_c, 0, 62, 95
2, 388800, Note_off_c, 0, 62, 0
2, 388800, Note_on_c, 0, 63, 95
2, 388880, Note_off_c, 0, 63, 0
2, 388880, Note_on_c, 0, 67, 94
2, 388960, Note_off_c, 0, 67, 0
2, 388960, Note_on_c, 0, 65, 94
2, 389040, Note_off_c, 0, 65, 0
2, 389040, Note_on_c, 0, 63, 93
2, 389120, Note_off_c, 0, 63, 0
2, 389120, Note_on_c, 0, 62, 93
2, 389200, Note_off_c, 0, 62, 0
2, 389200, Note_on_c, 0, 60, 93
2, 389280, Note_off_c, 0, 60, 0
2, 389520, Note_on_c, 0, 59, 99
2, 389600, Note_off_c, 0, 59, 0
2, 389600, Note_on_c, 0, 62, 95
2, 389680, Note_off_c, 0, 62, 0
2, 389680, Note_on_c, 0, 65, 95
2, 389760, Note_off_c, 0, 65, 0
2, 389760, Note_on_c, 0, 68, 95
2, 389840, Note_off_c, 0, 68, 0
2, 389840, Note_on_c, 0, 65, 95
2, 389920, Note_off_c, 0, 65, 0
2, 389920, Note_on_c, 0, 62, 95
2, 390000, Note_off_c, 0, 62, 0
2, 390000, Note_on_c, 0, 67, 95
2, 390080, Note_off_c, 0, 67, 0
2, 390080, Note_on_c, 0, 65, 95
2, 390160, Note_off_c, 0, 65, 0
2, 390160, Note_on_c, 0, 62, 95
2, 390240, Note_off_c, 0, 62, 0
2, 390240, Note_on_c, 0, 63, 95
2, 390320, Note_off_c, 0, 63, 0
2, 390320, Note_on_c, 0, 67, 95
2, 390400, Note_off_c, 0, 67, 0
2, 390400, Note_on_c, 0, 65, 95
2, 390480, Note_off_c, 0, 65, 0
2, 390480, Note_on_c, 0, 63, 95
2, 390560, Note_off_c, 0, 63, 0
2, 390560, Note_on_c, 0, 62, 95
2, 390640, Note_off_c, 0, 62, 0
2, 390640, Note_on_c, 0, 60, 95
2, 390720, Note_off_c, 0, 60, 0
2, 390960, Note_on_c, 0, 59, 98
2, 391040, Note_off_c, 0, 59, 0
2, 391040, Note_on_c, 0, 62, 95
2, 391120, Note_off_c, 0, 62, 0
2, 391120, Note_on_c, 0, 65, 95
2, 391200, Note_off_c, 0, 65, 0
2, 391200, Note_on_c, 0, 68, 95
2, 391280, Note_off_c, 0, 68, 0
2, 391280, Note_on_c, 0, 65, 95
2, 391360, Note_off_c, 0, 65, 0
2, 391360, Note_on_c, 0, 62, 95
2, 391440, Note_off_c, 0, 62, 0
2, 391440, Note_on_c, 0, 67, 95
2, 391520, Note_off_c, 0, 67, 0
2, 391520, Note_on_c, 0, 65, 95
2, 391600, Note_off_c, 0, 65, 0
2, 391600, Note_on_c, 0, 62, 95
2, 391680, Note_off_c, 0, 62, 0
2, 391680, Note_on_c, 0, 63, 94
2, 391760, Note_off_c, 0, 63, 0
2, 391760, Note_on_c, 0, 67, 94
2, 391840, Note_off_c, 0, 67, 0
2, 391840, Note_on_c, 0, 65, 94
2, 391920, Note_off_c, 0, 65, 0
2, 391920, Note_on_c, 0, 63, 95
2, 392000, Note_off_c, 0, 63, 0
2, 392000, Note_on_c, 0, 62, 95
2, 392080, Note_off_c, 0, 62, 0
2, 392080, Note_on_c, 0, 60, 95
2, 392160, Note_off_c, 0, 60, 0
2, 392160, Note_on_c, 0, 59, 96
2, 392240, Note_off_c, 0, 59, 0
2, 392240, Note_on_c, 0, 62, 96
2, 392320, Note_off_c, 0, 62, 0
2, 392320, Note_on_c, 0, 65, 97
2, 392400, Note_off_c, 0, 65, 0
2, 392400, Note_on_c, 0, 68, 97
2, 392480, Note_off_c, 0, 68, 0
2, 392480, Note_on_c, 0, 65, 97
2, 392560, Note_off_c, 0, 65, 0
2, 392560, Note_on_c, 0, 62, 98
2, 392640, Note_off_c, 0, 62, 0
2, 392640, Note_on_c, 0, 71, 98
2, 392720, Note_off_c, 0, 71, 0
2, 392720, Note_on_c, 0, 68, 99
2, 392800, Note_off_c, 0, 68, 0
2, 392800, Note_on_c, 0, 65, 99
2, 392880, Note_off_c, 0, 65, 0
2, 392880, Note_on_c, 0, 74, 99
2, 392960, Note_off_c, 0, 74, 0
2, 392960, Note_on_c, 0, 71, 100
2, 393040, Note_off_c, 0, 71, 0
2, 393040, Note_on_c, 0, 68, 100
2, 393120, Note_off_c, 0, 68, 0
2, 393120, Note_on_c, 0, 77, 100
2, 393200, Note_off_c, 0, 77, 0
2, 393200, Note_on_c, 0, 74, 101
2, 393280, Note_off_c, 0, 74, 0
2, 393280, Note_on_c, 0, 71, 101
2, 393360, Note_off_c, 0, 71, 0
2, 393360, Note_on_c, 0, 80, 102
2, 393440, Note_off_c, 0, 80, 0
2, 393440, Note_on_c, 0, 77, 102
2, 393520, Note_off_c, 0, 77, 0
2, 393520, Note_on_c, 0, 74, 102
2, 393600, Note_off_c, 0, 74, 0
2, 393600, Note_on_c, 0, 83, 103
2, 393680, Note_off_c, 0, 83, 0
2, 393680, Note_on_c, 0, 80, 103
2, 393760, Note_off_c, 0, 80, 0
2, 393760, Note_on_c, 0, 77, 104
2, 393840, Note_off_c, 0, 77, 0
2, 393840, Note_on_c, 0, 86, 104
2, 393920, Note_off_c, 0, 86, 0
2, 393920, Note_on_c, 0, 83, 104
2, 394000, Note_off_c, 0, 83, 0
2, 394000, Note_on_c, 0, 80, 105
2, 394080, Note_off_c, 0, 80, 0
2, 394080, Note_on_c, 0, 89, 105
2, 394160, Note_off_c, 0, 89, 0
2, 394160, Note_on_c, 0, 86, 105
2, 394240, Note_off_c, 0, 86, 0
2, 394240, Note_on_c, 0, 83, 106
2, 394320, Note_off_c, 0, 83, 0
2, 394320, Note_on_c, 0, 92, 106
2, 394400, Note_off_c, 0, 92, 0
2, 394400, Note_on_c, 0, 89, 107
2, 394480, Note_off_c, 0, 89, 0
2, 394480, Note_on_c, 0, 86, 107
2, 394560, Note_off_c, 0, 86, 0
2, 394560, Note_on_c, 0, 83, 107
2, 394640, Note_off_c, 0, 83, 0
2, 394640, Note_on_c, 0, 86, 106
2, 394720, Note_off_c, 0, 86, 0
2, 394720, Note_on_c, 0, 89, 104
2, 394800, Note_off_c, 0, 89, 0
2, 394800, Note_on_c, 0, 80, 102
2, 394880, Note_off_c, 0, 80, 0
2, 394880, Note_on_c, 0, 83, 101
2, 394960, Note_off_c, 0, 83, 0
2, 394960, Note_on_c, 0, 86, 99
2, 395040, Note_off_c, 0, 86, 0
2, 395040, Note_on_c, 0, 77, 98
2, 395120, Note_off_c, 0, 77, 0
2, 395120, Note_on_c, 0, 80, 96
2, 395200, Note_off_c, 0, 80, 0
2, 395200, Note_on_c, 0, 83, 95
2, 395280, Note_off_c, 0, 83, 0
2, 395280, Note_on_c, 0, 74, 93
2, 395360, Note_off_c, 0, 74, 0
2, 395360, Note_on_c, 0, 77, 92
2, 395440, Note_off_c, 0, 77, 0
2, 395440, Note_on_c, 0, 80, 90
2, 395520, Note_off_c, 0, 80, 0
2, 395520, Note_on_c, 0, 71, 89
2, 395600, Note_off_c, 0, 71, 0
2, 395600, Note_on_c, 0, 74, 87
2, 395680, Note_off_c, 0, 74, 0
2, 395680, Note_on_c, 0, 77, 86
2, 395760, Note_off_c, 0, 77, 0
2, 395760, Note_on_c, 0, 68, 84
2, 395840, Note_off_c, 0, 68, 0
2, 395840, Note_on_c, 0, 71, 83
2, 395920, Note_off_c, 0, 71, 0
2, 395920, Note_on_c, 0, 74, 81
2, 396000, Note_off_c, 0, 74, 0
2, 396000, Note_on_c, 0, 67, 80
2, 396080, Note_off_c, 0, 67, 0
2, 396080, Note_on_c, 0, 68, 78
2, 396160, Note_off_c, 0, 68, 0
2, 396160, Note_on_c, 0, 67, 77
2, 396240, Note_off_c, 0, 67, 0
2, 396240, Note_on_c, 0, 68, 75
2, 396320, Note_off_c, 0, 68, 0
2, 396320, Note_on_c, 0, 70, 74
2, 396400, Note_off_c, 0, 70, 0
2, 396400, Note_on_c, 0, 68, 72
2, 396480, Note_off_c, 0, 68, 0
2, 396480, Note_on_c, 0, 67, 71
2, 396560, Note_off_c, 0, 67, 0
2, 396560, Note_on_c, 0, 68, 69
2, 396640, Note_off_c, 0, 68, 0
2, 396640, Note_on_c, 0, 67, 68
2, 396720, Note_off_c, 0, 67, 0
2, 396720, Note_on_c, 0, 68, 66
2, 396800, Note_off_c, 0, 68, 0
2, 396800, Note_on_c, 0, 70, 65
2, 396880, Note_off_c, 0, 70, 0
2, 396880, Note_on_c, 0, 68, 63
2, 396960, Note_off_c, 0, 68, 0
2, 396960, Note_on_c, 0, 67, 61
2, 397040, Note_off_c, 0, 67, 0
2, 397040, Note_on_c, 0, 68, 60
2, 397120, Note_off_c, 0, 68, 0
2, 397120, Note_on_c, 0, 67, 58
2, 397200, Note_off_c, 0, 67, 0
2, 397200, Note_on_c, 0, 68, 57
2, 397280, Note_off_c, 0, 68, 0
2, 397280, Note_on_c, 0, 70, 55
2, 397360, Note_off_c, 0, 70, 0
2, 397360, Note_on_c, 0, 68, 54
2, 397440, Note_off_c, 0, 68, 0
2, 397440, Note_on_c, 0, 67, 53
2, 397520, Note_off_c, 0, 67, 0
2, 397520, Note_on_c, 0, 68, 52
2, 397600, Note_off_c, 0, 68, 0
2, 397600, Note_on_c, 0, 67, 51
2, 397680, Note_off_c, 0, 67, 0
2, 397680, Note_on_c, 0, 68, 51
2, 397760, Note_off_c, 0, 68, 0
2, 397760, Note_on_c, 0, 70, 50
2, 397840, Note_off_c, 0, 70, 0
2, 397840, Note_on_c, 0, 68, 49
2, 397920, Note_off_c, 0, 68, 0
2, 397920, Note_on_c, 0, 69, 48
2, 398000, Note_off_c, 0, 69, 0
2, 398000, Note_on_c, 0, 70, 48
2, 398080, Note_off_c, 0, 70, 0
2, 398080, Note_on_c, 0, 69, 47
2, 398160, Note_off_c, 0, 69, 0
2, 398160, Note_on_c, 0, 70, 46
2, 398240, Note_off_c, 0, 70, 0
2, 398240, Note_on_c, 0, 72, 45
2, 398320, Note_off_c, 0, 72, 0
2, 398320, Note_on_c, 0, 70, 45
2, 398400, Note_off_c, 0, 70, 0
2, 398400, Note_on_c, 0, 71, 44
2, 398480, Note_off_c, 0, 71, 0
2, 398480, Note_on_c, 0, 72, 43
2, 398560, Note_off_c, 0, 72, 0
2, 398560, Note_on_c, 0, 71, 42
2, 398640, Note_off_c, 0, 71, 0
2, 398640, Note_on_c, 0, 67, 41
2, 398720, Note_off_c, 0, 67, 0
2, 398720, Note_on_c, 0, 68, 41
2, 398800, Note_off_c, 0, 68, 0
2, 398800, Note_on_c, 0, 67, 40
2, 398880, Note_off_c, 0, 67, 0
2, 398880, Note_on_c, 0, 72, 46
2, 398958, Note_off_c, 0, 72, 0
2, 399000, Note_on_c, 0, 71, 46
2, 399120, Note_off_c, 0, 71, 0
2, 399120, Note_on_c, 0, 72, 46
2, 399198, Note_off_c, 0, 72, 0
2, 399240, Note_on_c, 0, 74, 46
2, 399360, Note_off_c, 0, 74, 0
2, 399360, Note_on_c, 0, 75, 46
2, 399438, Note_off_c, 0, 75, 0
2, 399480, Note_on_c, 0, 78, 46
2, 399600, Note_off_c, 0, 78, 0
2, 399600, Note_on_c, 0, 79, 47
2, 399678, Note_off_c, 0, 79, 0
2, 399720, Note_on_c, 0, 83, 47
2, 399840, Note_off_c, 0, 83, 0
2, 399840, Note_on_c, 0, 84, 47
2, 399918, Note_off_c, 0, 84, 0
2, 399960, Note_on_c, 0, 86, 47
2, 400080, Note_off_c, 0, 86, 0
2, 400080, Note_on_c, 0, 87, 47
2, 400158, Note_off_c, 0, 87, 0
2, 400200, Note_on_c, 0, 72, 57
2, 400320, Note_off_c, 0, 72, 0
2, 400320, Note_on_c, 0, 74, 48
2, 400398, Note_off_c, 0, 74, 0
2, 400440, Note_on_c, 0, 73, 48
2, 400560, Note_off_c, 0, 73, 0
2, 400560, Note_on_c, 0, 74, 48
2, 400638, Note_off_c, 0, 74, 0
2, 400680, Note_on_c, 0, 76, 48
2, 400800, Note_off_c, 0, 76, 0
2, 400800, Note_on_c, 0, 77, 48
2, 400878, Note_off_c, 0, 77, 0
2, 400920, Note_on_c, 0, 82, 48
2, 401040, Note_off_c, 0, 82, 0
2, 401040, Note_on_c, 0, 83, 49
2, 401118, Note_off_c, 0, 83, 0
2, 401160, Note_on_c, 0, 85, 49
2, 401280, Note_off_c, 0, 85, 0
2, 401280, Note_on_c, 0, 86, 49
2, 401358, Note_off_c, 0, 86, 0
2, 401400, Note_on_c, 0, 88, 49
2, 401520, Note_off_c, 0, 88, 0
2, 401520, Note_on_c, 0, 89, 49
2, 401598, Note_off_c, 0, 89, 0
2, 401640, Note_on_c, 0, 74, 59
2, 401760, Note_off_c, 0, 74, 0
2, 401760, Note_on_c, 0, 76, 50
2, 401838, Note_off_c, 0, 76, 0
2, 401880, Note_on_c, 0, 75, 50
2, 402000, Note_off_c, 0, 75, 0
2, 402000, Note_on_c, 0, 76, 50
2, 402078, Note_off_c, 0, 76, 0
2, 402120, Note_on_c, 0, 78, 50
2, 402240, Note_off_c, 0, 78, 0
2, 402240, Note_on_c, 0, 79, 50
2, 402318, Note_off_c, 0, 79, 0
2, 402360, Note_on_c, 0, 83, 50
2, 402480, Note_off_c, 0, 83, 0
2, 402480, Note_on_c, 0, 84, 51
2, 402558, Note_off_c, 0, 84, 0
2, 402600, Note_on_c, 0, 87, 51
2, 402720, Note_off_c, 0, 87, 0
2, 402720, Note_on_c, 0, 88, 51
2, 402798, Note_off_c, 0, 88, 0
2, 402840, Note_on_c, 0, 90, 51
2, 402960, Note_off_c, 0, 90, 0
2, 402960, Note_on_c, 0, 91, 51
2, 403038, Note_off_c, 0, 91, 0
2, 403080, Note_on_c, 0, 76, 61
2, 403200, Note_off_c, 0, 76, 0
2, 403200, Note_on_c, 0, 77, 52
2, 403278, Note_off_c, 0, 77, 0
2, 403320, Note_on_c, 0, 76, 52
2, 403440, Note_off_c, 0, 76, 0
2, 403440, Note_on_c, 0, 77, 52
2, 403518, Note_off_c, 0, 77, 0
2, 403560, Note_on_c, 0, 80, 52
2, 403680, Note_off_c, 0, 80, 0
2, 403680, Note_on_c, 0, 81, 52
2, 403758, Note_off_c, 0, 81, 0
2, 403800, Note_on_c, 0, 83, 53
2, 403920, Note_off_c, 0, 83, 0
2, 403920, Note_on_c, 0, 84, 53
2, 403998, Note_off_c, 0, 84, 0
2, 404040, Note_on_c, 0, 88, 53
2, 404160, Note_off_c, 0, 88, 0
2, 404160, Note_on_c, 0, 89, 53
2, 404238, Note_off_c, 0, 89, 0
2, 404280, Note_on_c, 0, 92, 53
2, 404400, Note_off_c, 0, 92, 0
2, 404400, Note_on_c, 0, 93, 53
2, 404478, Note_off_c, 0, 93, 0
2, 404520, Note_on_c, 0, 77, 64
2, 404640, Note_off_c, 0, 77, 0
2, 404640, Note_on_c, 0, 78, 54
2, 404718, Note_off_c, 0, 78, 0
2, 404760, Note_on_c, 0, 77, 54
2, 404880, Note_off_c, 0, 77, 0
2, 404880, Note_on_c, 0, 78, 54
2, 404958, Note_off_c, 0, 78, 0
2, 405000, Note_on_c, 0, 83, 54
2, 405120, Note_off_c, 0, 83, 0
2, 405120, Note_on_c, 0, 84, 54
2, 405198, Note_off_c, 0, 84, 0
2, 405240, Note_on_c, 0, 86, 55
2, 405360, Note_off_c, 0, 86, 0
2, 405360, Note_on_c, 0, 87, 56
2, 405438, Note_off_c, 0, 87, 0
2, 405480, Note_on_c, 0, 89, 57
2, 405600, Note_off_c, 0, 89, 0
2, 405600, Note_on_c, 0, 90, 58
2, 405678, Note_off_c, 0, 90, 0
2, 405720, Note_on_c, 0, 89, 59
2, 405840, Note_off_c, 0, 89, 0
2, 405840, Note_on_c, 0, 90, 60
2, 405918, Note_off_c, 0, 90, 0
2, 405960, Note_on_c, 0, 90, 61
2, 406080, Note_off_c, 0, 90, 0
2, 406080, Note_on_c, 0, 91, 64
2, 406158, Note_off_c, 0, 91, 0
2, 406200, Note_on_c, 0, 79, 63
2, 406320, Note_off_c, 0, 79, 0
2, 406320, Note_on_c, 0, 80, 62
2, 406440, Note_off_c, 0, 80, 0
2, 406440, Note_on_c, 0, 79, 65
2, 406560, Note_off_c, 0, 79, 0
2, 406560, Note_on_c, 0, 80, 72
2, 407865, Note_off_c, 0, 80, 0
2, 407880, Note_on_c, 0, 80, 63
2, 407958, Note_off_c, 0, 80, 0
2, 408000, Note_on_c, 0, 77, 62
2, 408156, Note_off_c, 0, 77, 0
2, 408480, Note_on_c, 0, 79, 61
2, 408636, Note_off_c, 0, 79, 0
2, 409320, Note_on_c, 0, 80, 58
2, 409398, Note_off_c, 0, 80, 0
2, 409440, Note_on_c, 0, 77, 57
2, 409596, Note_off_c, 0, 77, 0
2, 409920, Note_on_c, 0, 79, 55
2, 410076, Note_off_c, 0, 79, 0
2, 410760, Note_on_c, 0, 80, 52
2, 410838, Note_off_c, 0, 80, 0
2, 410880, Note_on_c, 0, 77, 52
2, 411036, Note_off_c, 0, 77, 0
2, 411360, Note_on_c, 0, 79, 50
2, 411516, Note_off_c, 0, 79, 0
2, 414120, Note_on_c, 0, 68, 53
2, 414198, Note_off_c, 0, 68, 0
2, 414240, Note_on_c, 0, 65, 53
2, 414396, Note_off_c, 0, 65, 0
2, 414480, Note_on_c, 0, 67, 53
2, 414636, Note_off_c, 0, 67, 0
2, 415560, Note_on_c, 0, 68, 50
2, 415638, Note_off_c, 0, 68, 0
2, 415680, Note_on_c, 0, 65, 50
2, 415836, Note_off_c, 0, 65, 0
2, 415920, Note_on_c, 0, 67, 50
2, 416076, Note_off_c, 0, 67, 0
2, 417000, Note_on_c, 0, 68, 47
2, 417078, Note_off_c, 0, 68, 0
2, 417120, Note_on_c, 0, 65, 47
2, 417276, Note_off_c, 0, 65, 0
2, 418440, Note_on_c, 0, 66, 44
2, 418518, Note_off_c, 0, 66, 0
2, 418560, Note_on_c, 0, 67, 44
2, 418716, Note_off_c, 0, 67, 0
2, 419040, Note_on_c, 0, 67, 38
2, 419120, Note_off_c, 0, 67, 0
2, 419120, Note_on_c, 0, 60, 38
2, 419120, Note_on_c, 0, 63, 38
2, 419200, Note_off_c, 0, 63, 0
2, 419200, Note_off_c, 0, 60, 0
2, 419200, Note_on_c, 0, 67, 39
2, 419280, Note_off_c, 0, 67, 0
2, 419280, Note_on_c, 0, 63, 40
2, 419280, Note_on_c, 0, 60, 40
2, 419360, Note_off_c, 0, 60, 0
2, 419360, Note_off_c, 0, 63, 0
2, 419360, Note_on_c, 0, 67, 40
2, 419440, Note_off_c, 0, 67, 0
2, 419440, Note_on_c, 0, 63, 41
2, 419440, Note_on_c, 0, 60, 41
2, 419520, Note_off_c, 0, 60, 0
2, 419520, Note_off_c, 0, 63, 0
2, 419520, Note_on_c, 0, 67, 41
2, 419600, Note_off_c, 0, 67, 0
2, 419600, Note_on_c, 0, 60, 42
2, 419600, Note_on_c, 0, 63, 42
2, 419680, Note_off_c, 0, 63, 0
2, 419680, Note_off_c, 0, 60, 0
2, 419680, Note_on_c, 0, 67, 42
2, 419760, Note_off_c, 0, 67, 0
2, 419760, Note_on_c, 0, 60, 43
2, 419760, Note_on_c, 0, 63, 43
2, 419840, Note_off_c, 0, 63, 0
2, 419840, Note_off_c, 0, 60, 0
2, 419840, Note_on_c, 0, 67, 44
2, 419920, Note_off_c, 0, 67, 0
2, 419920, Note_on_c, 0, 60, 44
2, 419920, Note_on_c, 0, 63, 44
2, 420000, Note_off_c, 0, 63, 0
2, 420000, Note_off_c, 0, 60, 0
2, 420000, Note_on_c, 0, 67, 45
2, 420080, Note_off_c, 0, 67, 0
2, 420080, Note_on_c, 0, 60, 45
2, 420080, Note_on_c, 0, 63, 45
2, 420160, Note_off_c, 0, 63, 0
2, 420160, Note_off_c, 0, 60, 0
2, 420160, Note_on_c, 0, 67, 46
2, 420240, Note_off_c, 0, 67, 0
2, 420240, Note_on_c, 0, 63, 46
2, 420240, Note_on_c, 0, 60, 46
2, 420320, Note_off_c, 0, 60, 0
2, 420320, Note_off_c, 0, 63, 0
2, 420320, Note_on_c, 0, 67, 47
2, 420400, Note_off_c, 0, 67, 0
2, 420400, Note_on_c, 0, 60, 47
2, 420400, Note_on_c, 0, 63, 47
2, 420480, Note_off_c, 0, 63, 0
2, 420480, Note_off_c, 0, 60, 0
2, 420480, Note_on_c, 0, 67, 48
2, 420560, Note_off_c, 0, 67, 0
2, 420560, Note_on_c, 0, 60, 49
2, 420560, Note_on_c, 0, 63, 49
2, 420640, Note_off_c, 0, 63, 0
2, 420640, Note_off_c, 0, 60, 0
2, 420640, Note_on_c, 0, 67, 49
2, 420720, Note_off_c, 0, 67, 0
2, 420720, Note_on_c, 0, 60, 50
2, 420720, Note_on_c, 0, 63, 50
2, 420800, Note_off_c, 0, 63, 0
2, 420800, Note_off_c, 0, 60, 0
2, 420800, Note_on_c, 0, 67, 50
2, 420880, Note_off_c, 0, 67, 0
2, 420880, Note_on_c, 0, 60, 51
2, 420880, Note_on_c, 0, 63, 51
2, 420960, Note_off_c, 0, 63, 0
2, 420960, Note_off_c, 0, 60, 0
2, 420960, Note_on_c, 0, 72, 51
2, 421040, Note_off_c, 0, 72, 0
2, 421040, Note_on_c, 0, 67, 51
2, 421040, Note_on_c, 0, 63, 51
2, 421120, Note_off_c, 0, 63, 0
2, 421120, Note_off_c, 0, 67, 0
2, 421120, Note_on_c, 0, 72, 50
2, 421200, Note_off_c, 0, 72, 0
2, 421200, Note_on_c, 0, 67, 50
2, 421200, Note_on_c, 0, 63, 50
2, 421280, Note_off_c, 0, 63, 0
2, 421280, Note_off_c, 0, 67, 0
2, 421280, Note_on_c, 0, 72, 49
2, 421360, Note_off_c, 0, 72, 0
2, 421360, Note_on_c, 0, 67, 48
2, 421360, Note_on_c, 0, 63, 48
2, 421440, Note_off_c, 0, 63, 0
2, 421440, Note_off_c, 0, 67, 0
2, 421440, Note_on_c, 0, 71, 48
2, 421520, Note_off_c, 0, 71, 0
2, 421520, Note_on_c, 0, 62, 47
2, 421520, Note_on_c, 0, 67, 47
2, 421600, Note_off_c, 0, 67, 0
2, 421600, Note_off_c, 0, 62, 0
2, 421600, Note_on_c, 0, 71, 46
2, 421680, Note_off_c, 0, 71, 0
2, 421680, Note_on_c, 0, 62, 46
2, 421680, Note_on_c, 0, 67, 46
2, 421760, Note_off_c, 0, 67, 0
2, 421760, Note_off_c, 0, 62, 0
2, 421760, Note_on_c, 0, 71, 45
2, 421840, Note_off_c, 0, 71, 0
2, 421840, Note_on_c, 0, 67, 44
2, 421840, Note_on_c, 0, 62, 44
2, 421920, Note_off_c, 0, 62, 0
2, 421920, Note_off_c, 0, 67, 0
2, 421920, Note_on_c, 0, 79, 42
2, 422000, Note_off_c, 0, 79, 0
2, 422000, Note_on_c, 0, 72, 42
2, 422000, Note_on_c, 0, 75, 42
2, 422080, Note_off_c, 0, 75, 0
2, 422080, Note_off_c, 0, 72, 0
2, 422080, Note_on_c, 0, 79, 43
2, 422160, Note_off_c, 0, 79, 0
2, 422160, Note_on_c, 0, 72, 43
2, 422160, Note_on_c, 0, 75, 43
2, 422240, Note_off_c, 0, 75, 0
2, 422240, Note_off_c, 0, 72, 0
2, 422240, Note_on_c, 0, 79, 44
2, 422320, Note_off_c, 0, 79, 0
2, 422320, Note_on_c, 0, 75, 44
2, 422320, Note_on_c, 0, 72, 44
2, 422400, Note_off_c, 0, 72, 0
2, 422400, Note_off_c, 0, 75, 0
2, 422400, Note_on_c, 0, 79, 45
2, 422480, Note_off_c, 0, 79, 0
2, 422480, Note_on_c, 0, 75, 45
2, 422480, Note_on_c, 0, 72, 45
2, 422560, Note_off_c, 0, 72, 0
2, 422560, Note_off_c, 0, 75, 0
2, 422560, Note_on_c, 0, 79, 46
2, 422640, Note_off_c, 0, 79, 0
2, 422640, Note_on_c, 0, 75, 47
2, 422640, Note_on_c, 0, 72, 47
2, 422720, Note_off_c, 0, 72, 0
2, 422720, Note_off_c, 0, 75, 0
2, 422720, Note_on_c, 0, 79, 47
2, 422800, Note_off_c, 0, 79, 0
2, 422800, Note_on_c, 0, 72, 48
2, 422800, Note_on_c, 0, 75, 48
2, 422880, Note_off_c, 0, 75, 0
2, 422880, Note_off_c, 0, 72, 0
2, 422880, Note_on_c, 0, 79, 48
2, 422960, Note_off_c, 0, 79, 0
2, 422960, Note_on_c, 0, 72, 49
2, 422960, Note_on_c, 0, 75, 49
2, 423040, Note_off_c, 0, 75, 0
2, 423040, Note_off_c, 0, 72, 0
2, 423040, Note_on_c, 0, 79, 49
2, 423120, Note_off_c, 0, 79, 0
2, 423120, Note_on_c, 0, 72, 50
2, 423120, Note_on_c, 0, 75, 50
2, 423200, Note_off_c, 0, 75, 0
2, 423200, Note_off_c, 0, 72, 0
2, 423200, Note_on_c, 0, 79, 51
2, 423280, Note_off_c, 0, 79, 0
2, 423280, Note_on_c, 0, 75, 51
2, 423280, Note_on_c, 0, 72, 51
2, 423360, Note_off_c, 0, 72, 0
2, 423360, Note_off_c, 0, 75, 0
2, 423360, Note_on_c, 0, 79, 52
2, 423440, Note_off_c, 0, 79, 0
2, 423440, Note_on_c, 0, 75, 52
2, 423440, Note_on_c, 0, 72, 52
2, 423520, Note_off_c, 0, 72, 0
2, 423520, Note_off_c, 0, 75, 0
2, 423520, Note_on_c, 0, 79, 53
2, 423600, Note_off_c, 0, 79, 0
2, 423600, Note_on_c, 0, 72, 53
2, 423600, Note_on_c, 0, 75, 53
2, 423680, Note_off_c, 0, 75, 0
2, 423680, Note_off_c, 0, 72, 0
2, 423680, Note_on_c, 0, 79, 54
2, 423760, Note_off_c, 0, 79, 0
2, 423760, Note_on_c, 0, 72, 54
2, 423760, Note_on_c, 0, 75, 54
2, 423840, Note_off_c, 0, 75, 0
2, 423840, Note_off_c, 0, 72, 0
2, 423840, Note_on_c, 0, 84, 55
2, 423920, Note_off_c, 0, 84, 0
2, 423920, Note_on_c, 0, 79, 56
2, 423920, Note_on_c, 0, 75, 56
2, 424000, Note_off_c, 0, 75, 0
2, 424000, Note_off_c, 0, 79, 0
2, 424000, Note_on_c, 0, 84, 56
2, 424080, Note_off_c, 0, 84, 0
2, 424080, Note_on_c, 0, 79, 57
2, 424080, Note_on_c, 0, 75, 57
2, 424160, Note_off_c, 0, 75, 0
2, 424160, Note_off_c, 0, 79, 0
2, 424160, Note_on_c, 0, 84, 57
2, 424240, Note_off_c, 0, 84, 0
2, 424240, Note_on_c, 0, 79, 58
2, 424240, Note_on_c, 0, 75, 58
2, 424320, Note_off_c, 0, 75, 0
2, 424320, Note_off_c, 0, 79, 0
2, 424320, Note_on_c, 0, 83, 58
2, 424400, Note_off_c, 0, 83, 0
2, 424400, Note_on_c, 0, 79, 59
2, 424400, Note_on_c, 0, 74, 59
2, 424480, Note_off_c, 0, 74, 0
2, 424480, Note_off_c, 0, 79, 0
2, 424480, Note_on_c, 0, 83, 60
2, 424560, Note_off_c, 0, 83, 0
2, 424560, Note_on_c, 0, 79, 60
2, 424560, Note_on_c, 0, 74, 60
2, 424640, Note_off_c, 0, 74, 0
2, 424640, Note_off_c, 0, 79, 0
2, 424640, Note_on_c, 0, 83, 61
2, 424720, Note_off_c, 0, 83, 0
2, 424720, Note_on_c, 0, 79, 61
2, 424720, Note_on_c, 0, 74, 61
2, 424800, Note_off_c, 0, 74, 0
2, 424800, Note_off_c, 0, 79, 0
2, 424800, Note_on_c, 0, 84, 66
2, 424956, Note_off_c, 0, 84, 0
2, 425280, Note_on_c, 0, 75, 68
2, 425436, Note_off_c, 0, 75, 0
2, 425760, Note_on_c, 0, 79, 70
2, 425916, Note_off_c, 0, 79, 0
2, 426240, Note_on_c, 0, 77, 73
2, 426600, Note_off_c, 0, 77, 0
2, 426600, Note_on_c, 0, 75, 71
2, 426720, Note_off_c, 0, 75, 0
2, 426720, Note_on_c, 0, 74, 71
2, 426876, Note_off_c, 0, 74, 0
2, 427200, Note_on_c, 0, 79, 69
2, 427356, Note_off_c, 0, 79, 0
2, 427680, Note_on_c, 0, 72, 70
2, 429120, Note_off_c, 0, 72, 0
2, 429120, Note_on_c, 0, 71, 70
2, 430560, Note_off_c, 0, 71, 0
2, 430560, Note_on_c, 0, 60, 79
2, 430716, Note_off_c, 0, 60, 0
2, 431040, Note_on_c, 0, 72, 84
2, 431040, Note_on_c, 0, 84, 84
2, 431857, Note_off_c, 0, 84, 0
2, 431880, Note_on_c, 0, 75, 79
2, 431880, Note_on_c, 0, 87, 79
2, 431925, Note_off_c, 0, 72, 0
2, 431958, Note_off_c, 0, 87, 0
2, 431958, Note_off_c, 0, 75, 0
2, 432000, Note_on_c, 0, 72, 79
2, 432000, Note_on_c, 0, 84, 79
2, 432156, Note_off_c, 0, 84, 0
2, 432156, Note_off_c, 0, 72, 0
2, 432480, Note_on_c, 0, 72, 83
2, 432480, Note_on_c, 0, 84, 83
2, 433305, Note_off_c, 0, 84, 0
2, 433320, Note_on_c, 0, 87, 79
2, 433320, Note_on_c, 0, 75, 79
2, 433327, Note_off_c, 0, 72, 0
2, 433398, Note_off_c, 0, 75, 0
2, 433398, Note_off_c, 0, 87, 0
2, 433440, Note_on_c, 0, 91, 77
2, 433440, Note_on_c, 0, 79, 77
2, 434160, Note_off_c, 0, 79, 0
2, 434160, Note_off_c, 0, 91, 0
2, 434160, Note_on_c, 0, 92, 86
2, 434160, Note_on_c, 0, 80, 86
2, 434316, Note_off_c, 0, 80, 0
2, 434316, Note_off_c, 0, 92, 0
2, 434400, Note_on_c, 0, 77, 84
2, 434400, Note_on_c, 0, 89, 84
2, 434556, Note_off_c, 0, 89, 0
2, 434556, Note_off_c, 0, 77, 0
2, 434640, Note_on_c, 0, 86, 81
2, 434640, Note_on_c, 0, 74, 81
2, 434796, Note_off_c, 0, 74, 0
2, 434796, Note_off_c, 0, 86, 0
2, 434880, Note_on_c, 0, 86, 79
2, 434880, Note_on_c, 0, 74, 79
2, 435120, Note_off_c, 0, 74, 0
2, 435120, Note_off_c, 0, 86, 0
2, 435120, Note_on_c, 0, 87, 79
2, 435120, Note_on_c, 0, 75, 79
2, 435276, Note_off_c, 0, 75, 0
2, 435276, Note_off_c, 0, 87, 0
2, 435360, Note_on_c, 0, 72, 84
2, 435360, Note_on_c, 0, 84, 84
2, 436185, Note_off_c, 0, 84, 0
2, 436192, Note_off_c, 0, 72, 0
2, 436200, Note_on_c, 0, 87, 79
2, 436200, Note_on_c, 0, 75, 79
2, 436278, Note_off_c, 0, 75, 0
2, 436278, Note_off_c, 0, 87, 0
2, 436320, Note_on_c, 0, 91, 79
2, 436320, Note_on_c, 0, 79, 79
2, 437040, Note_off_c, 0, 79, 0
2, 437040, Note_off_c, 0, 91, 0
2, 437040, Note_on_c, 0, 92, 86
2, 437040, Note_on_c, 0, 80, 86
2, 437196, Note_off_c, 0, 80, 0
2, 437196, Note_off_c, 0, 92, 0
2, 437280, Note_on_c, 0, 89, 83
2, 437280, Note_on_c, 0, 77, 83
2, 437436, Note_off_c, 0, 77, 0
2, 437436, Note_off_c, 0, 89, 0
2, 437520, Note_on_c, 0, 86, 80
2, 437520, Note_on_c, 0, 74, 80
2, 437676, Note_off_c, 0, 74, 0
2, 437676, Note_off_c, 0, 86, 0
2, 437760, Note_on_c, 0, 86, 77
2, 437760, Note_on_c, 0, 74, 77
2, 438000, Note_off_c, 0, 74, 0
2, 438000, Note_off_c, 0, 86, 0
2, 438000, Note_on_c, 0, 75, 79
2, 438000, Note_on_c, 0, 87, 79
2, 438156, Note_off_c, 0, 87, 0
2, 438156, Note_off_c, 0, 75, 0
2, 438240, Note_on_c, 0, 72, 83
2, 438240, Note_on_c, 0, 84, 83
2, 439057, Note_off_c, 0, 84, 0
2, 439065, Note_off_c, 0, 72, 0
2, 439080, Note_on_c, 0, 75, 79
2, 439080, Note_on_c, 0, 87, 79
2, 439158, Note_off_c, 0, 87, 0
2, 439158, Note_off_c, 0, 75, 0
2, 439200, Note_on_c, 0, 91, 79
2, 439200, Note_on_c, 0, 79, 79
2, 439356, Note_off_c, 0, 79, 0
2, 439356, Note_off_c, 0, 91, 0
2, 439560, Note_on_c, 0, 92, 87
2, 439560, Note_on_c, 0, 80, 87
2, 439638, Note_off_c, 0, 80, 0
2, 439638, Note_off_c, 0, 92, 0
2, 439800, Note_on_c, 0, 77, 90
2, 439800, Note_on_c, 0, 89, 90
2, 439878, Note_off_c, 0, 89, 0
2, 439878, Note_off_c, 0, 77, 0
2, 440040, Note_on_c, 0, 86, 94
2, 440040, Note_on_c, 0, 74, 94
2, 440118, Note_off_c, 0, 74, 0
2, 440118, Note_off_c, 0, 86, 0
2, 440280, Note_on_c, 0, 71, 97
2, 440280, Note_on_c, 0, 83, 97
2, 440358, Note_off_c, 0, 83, 0
2, 440358, Note_off_c, 0, 71, 0
2, 440520, Note_on_c, 0, 80, 101
2, 440520, Note_on_c, 0, 68, 101
2, 440598, Note_off_c, 0, 68, 0
2, 440598, Note_off_c, 0, 80, 0
2, 440760, Note_on_c, 0, 65, 105
2, 440760, Note_on_c, 0, 77, 105
2, 440838, Note_off_c, 0, 77, 0
2, 440838, Note_off_c, 0, 65, 0
2, 441000, Note_on_c, 0, 62, 108
2, 441000, Note_on_c, 0, 74, 108
2, 441078, Note_off_c, 0, 74, 0
2, 441078, Note_off_c, 0, 62, 0
2, 441240, Note_on_c, 0, 59, 112
2, 441240, Note_on_c, 0, 71, 112
2, 441318, Note_off_c, 0, 71, 0
2, 441318, Note_off_c, 0, 59, 0
2, 441480, Note_on_c, 0, 56, 115
2, 441480, Note_on_c, 0, 68, 115
2, 441558, Note_off_c, 0, 68, 0
2, 441558, Note_off_c, 0, 56, 0
2, 441720, Note_on_c, 0, 67, 119
2, 441720, Note_on_c, 0, 55, 119
2, 441798, Note_off_c, 0, 55, 0
2, 441798, Note_off_c, 0, 67, 0
2, 441960, Note_on_c, 0, 65, 123
2, 441960, Note_on_c, 0, 59, 123
2, 441960, Note_on_c, 0, 62, 123
2, 441960, Note_on_c, 0, 71, 123
2, 442038, Note_off_c, 0, 71, 0
2, 442038, Note_off_c, 0, 62, 0
2, 442038, Note_off_c, 0, 59, 0
2, 442038, Note_off_c, 0, 65, 0
2, 442080, Note_on_c, 0, 60, 124
2, 442080, Note_on_c, 0, 63, 124
2, 442080, Note_on_c, 0, 67, 124
2, 442080, Note_on_c, 0, 72, 124
2, 442560, Note_off_c, 0, 72, 0
2, 442560, Note_off_c, 0, 67, 0
2, 442560, Note_off_c, 0, 63, 0
2, 442560, Note_off_c, 0, 60, 0
2, 443040, Note_on_c, 0, 50, 97
2, 443040, Note_on_c, 0, 53, 97
2, 443040, Note_on_c, 0, 59, 97
2, 443280, Note_off_c, 0, 59, 0
2, 443280, Note_off_c, 0, 53, 0
2, 443280, Note_off_c, 0, 50, 0
2, 443520, Note_on_c, 0, 51, 90
2, 443520, Note_on_c, 0, 55, 90
2, 443520, Note_on_c, 0, 60, 90
2, 443760, Note_off_c, 0, 60, 0
2, 443760, Note_off_c, 0, 55, 0
2, 443760, Note_off_c, 0, 51, 0
2, 443760, End_track
3, 0, Start_track
3, 0, Title_t, "No Name"
3, 0, Control_c, 1, 0, 0
3, 0, Control_c, 1, 32, 0
3, 0, Program_c, 1, 0
3, 0, Control_c, 1, 10, 64
3, 0, Control_c, 1, 91, 91
3, 0, Control_c, 1, 93, 28
3, 0, Control_c, 1, 64, 0
3, 0, Control_c, 1, 1, 0
3, 0, Pitch_bend_c, 1, 8192
3, 0, Control_c, 1, 7, 110
3, 47520, Note_on_c, 1, 55, 44
3, 47625, Note_off_c, 1, 55, 0
3, 47680, Note_on_c, 1, 60, 45
3, 47785, Note_off_c, 1, 60, 0
3, 47840, Note_on_c, 1, 63, 45
3, 47945, Note_off_c, 1, 63, 0
3, 48000, Note_on_c, 1, 62, 46
3, 48105, Note_off_c, 1, 62, 0
3, 48160, Note_on_c, 1, 63, 46
3, 48265, Note_off_c, 1, 63, 0
3, 48320, Note_on_c, 1, 60, 47
3, 48425, Note_off_c, 1, 60, 0
3, 48480, Note_on_c, 1, 55, 47
3, 48585, Note_off_c, 1, 55, 0
3, 48640, Note_on_c, 1, 60, 48
3, 48745, Note_off_c, 1, 60, 0
3, 48800, Note_on_c, 1, 63, 48
3, 48905, Note_off_c, 1, 63, 0
3, 48960, Note_on_c, 1, 55, 49
3, 49065, Note_off_c, 1, 55, 0
3, 49120, Note_on_c, 1, 59, 50
3, 49225, Note_off_c, 1, 59, 0
3, 49280, Note_on_c, 1, 62, 50
3, 49385, Note_off_c, 1, 62, 0
3, 49440, Note_on_c, 1, 61, 51
3, 49545, Note_off_c, 1, 61, 0
3, 49600, Note_on_c, 1, 62, 51
3, 49705, Note_off_c, 1, 62, 0
3, 49760, Note_on_c, 1, 59, 52
3, 49865, Note_off_c, 1, 59, 0
3, 49920, Note_on_c, 1, 55, 52
3, 50025, Note_off_c, 1, 55, 0
3, 50080, Note_on_c, 1, 59, 53
3, 50185, Note_off_c, 1, 59, 0
3, 50240, Note_on_c, 1, 62, 53
3, 50345, Note_off_c, 1, 62, 0
3, 50400, Note_on_c, 1, 61, 54
3, 50505, Note_off_c, 1, 61, 0
3, 50560, Note_on_c, 1, 64, 54
3, 50665, Note_off_c, 1, 64, 0
3, 50720, Note_on_c, 1, 67, 55
3, 50825, Note_off_c, 1, 67, 0
3, 50880, Note_on_c, 1, 66, 56
3, 50985, Note_off_c, 1, 66, 0
3, 51040, Note_on_c, 1, 67, 56
3, 51145, Note_off_c, 1, 67, 0
3, 51200, Note_on_c, 1, 64, 57
3, 51305, Note_off_c, 1, 64, 0
3, 51360, Note_on_c, 1, 61, 57
3, 51465, Note_off_c, 1, 61, 0
3, 51520, Note_on_c, 1, 64, 58
3, 51625, Note_off_c, 1, 64, 0
3, 51680, Note_on_c, 1, 67, 58
3, 51785, Note_off_c, 1, 67, 0
3, 51840, Note_on_c, 1, 60, 59
3, 51945, Note_off_c, 1, 60, 0
3, 52000, Note_on_c, 1, 65, 59
3, 52105, Note_off_c, 1, 65, 0
3, 52160, Note_on_c, 1, 69, 60
3, 52265, Note_off_c, 1, 69, 0
3, 52320, Note_on_c, 1, 68, 60
3, 52425, Note_off_c, 1, 68, 0
3, 52480, Note_on_c, 1, 69, 61
3, 52585, Note_off_c, 1, 69, 0
3, 52640, Note_on_c, 1, 65, 62
3, 52745, Note_off_c, 1, 65, 0
3, 52800, Note_on_c, 1, 60, 62
3, 52905, Note_off_c, 1, 60, 0
3, 52960, Note_on_c, 1, 65, 63
3, 53065, Note_off_c, 1, 65, 0
3, 53120, Note_on_c, 1, 69, 63
3, 53225, Note_off_c, 1, 69, 0
3, 53280, Note_on_c, 1, 60, 64
3, 53385, Note_off_c, 1, 60, 0
3, 53440, Note_on_c, 1, 63, 64
3, 53545, Note_off_c, 1, 63, 0
3, 53600, Note_on_c, 1, 66, 65
3, 53705, Note_off_c, 1, 66, 0
3, 53760, Note_on_c, 1, 65, 65
3, 53865, Note_off_c, 1, 65, 0
3, 53920, Note_on_c, 1, 66, 66
3, 54025, Note_off_c, 1, 66, 0
3, 54080, Note_on_c, 1, 63, 66
3, 54185, Note_off_c, 1, 63, 0
3, 54240, Note_on_c, 1, 60, 67
3, 54345, Note_off_c, 1, 60, 0
3, 54400, Note_on_c, 1, 63, 68
3, 54505, Note_off_c, 1, 63, 0
3, 54560, Note_on_c, 1, 66, 68
3, 54665, Note_off_c, 1, 66, 0
3, 54720, Note_on_c, 1, 60, 69
3, 54825, Note_off_c, 1, 60, 0
3, 54880, Note_on_c, 1, 63, 69
3, 54985, Note_off_c, 1, 63, 0
3, 55040, Note_on_c, 1, 67, 71
3, 55145, Note_off_c, 1, 67, 0
3, 55200, Note_on_c, 1, 68, 73
3, 55305, Note_off_c, 1, 68, 0
3, 55360, Note_on_c, 1, 72, 74
3, 55465, Note_off_c, 1, 72, 0
3, 55520, Note_on_c, 1, 74, 76
3, 55625, Note_off_c, 1, 74, 0
3, 55680, Note_on_c, 1, 77, 77
3, 55785, Note_off_c, 1, 77, 0
3, 55840, Note_on_c, 1, 80, 79
3, 55945, Note_off_c, 1, 80, 0
3, 56000, Note_on_c, 1, 77, 78
3, 56105, Note_off_c, 1, 77, 0
3, 56160, Note_on_c, 1, 74, 76
3, 56265, Note_off_c, 1, 74, 0
3, 56320, Note_on_c, 1, 72, 74
3, 56425, Note_off_c, 1, 72, 0
3, 56480, Note_on_c, 1, 68, 72
3, 56585, Note_off_c, 1, 68, 0
3, 56640, Note_on_c, 1, 65, 70
3, 56745, Note_off_c, 1, 65, 0
3, 56800, Note_on_c, 1, 62, 68
3, 56905, Note_off_c, 1, 62, 0
3, 56960, Note_on_c, 1, 60, 66
3, 57065, Note_off_c, 1, 60, 0
3, 57120, Note_on_c, 1, 59, 64
3, 57225, Note_off_c, 1, 59, 0
3, 57280, Note_on_c, 1, 62, 62
3, 57385, Note_off_c, 1, 62, 0
3, 57440, Note_on_c, 1, 59, 60
3, 57545, Note_off_c, 1, 59, 0
3, 57600, Note_on_c, 1, 60, 58
3, 57705, Note_off_c, 1, 60, 0
3, 57760, Note_on_c, 1, 63, 56
3, 57865, Note_off_c, 1, 63, 0
3, 57920, Note_on_c, 1, 60, 54
3, 58025, Note_off_c, 1, 60, 0
3, 58080, Note_on_c, 1, 59, 53
3, 58185, Note_off_c, 1, 59, 0
3, 58240, Note_on_c, 1, 62, 51
3, 58345, Note_off_c, 1, 62, 0
3, 58400, Note_on_c, 1, 59, 49
3, 58505, Note_off_c, 1, 59, 0
3, 58560, Note_on_c, 1, 60, 47
3, 58665, Note_off_c, 1, 60, 0
3, 58720, Note_on_c, 1, 63, 45
3, 58825, Note_off_c, 1, 63, 0
3, 58880, Note_on_c, 1, 60, 43
3, 58928, Note_off_c, 1, 60, 0
3, 82080, Note_on_c, 1, 36, 60
3, 83520, Note_off_c, 1, 36, 0
3, 83520, Note_on_c, 1, 31, 65
3, 84960, Note_off_c, 1, 31, 0
3, 84960, Note_on_c, 1, 36, 70
3, 86400, Note_off_c, 1, 36, 0
3, 86400, Note_on_c, 1, 32, 75
3, 87840, Note_off_c, 1, 32, 0
3, 87840, Note_on_c, 1, 38, 79
3, 89280, Note_off_c, 1, 38, 0
3, 93600, Note_on_c, 1, 36, 72
3, 95040, Note_off_c, 1, 36, 0
3, 95040, Note_on_c, 1, 43, 75
3, 95040, Note_on_c, 1, 31, 75
3, 96480, Note_off_c, 1, 31, 0
3, 96480, Note_off_c, 1, 43, 0
3, 96480, Note_on_c, 1, 48, 78
3, 96480, Note_on_c, 1, 36, 78
3, 97920, Note_off_c, 1, 36, 0
3, 97920, Note_off_c, 1, 48, 0
3, 97920, Note_on_c, 1, 32, 82
3, 97920, Note_on_c, 1, 42, 82
3, 99360, Note_off_c, 1, 42, 0
3, 99360, Note_off_c, 1, 32, 0
3, 99360, Note_on_c, 1, 38, 85
3, 100800, Note_off_c, 1, 38, 0
3, 105120, Note_on_c, 1, 67, 36
3, 105200, Note_off_c, 1, 67, 0
3, 105200, Note_on_c, 1, 68, 36
3, 105280, Note_off_c, 1, 68, 0
3, 105280, Note_on_c, 1, 67, 36
3, 105360, Note_off_c, 1, 67, 0
3, 105360, Note_on_c, 1, 68, 36
3, 105440, Note_off_c, 1, 68, 0
3, 105440, Note_on_c, 1, 67, 37
3, 105520, Note_off_c, 1, 67, 0
3, 105520, Note_on_c, 1, 68, 37
3, 105600, Note_off_c, 1, 68, 0
3, 105600, Note_on_c, 1, 67, 37
3, 105680, Note_off_c, 1, 67, 0
3, 105680, Note_on_c, 1, 68, 37
3, 105760, Note_off_c, 1, 68, 0
3, 105760, Note_on_c, 1, 67, 37
3, 105840, Note_off_c, 1, 67, 0
3, 105840, Note_on_c, 1, 68, 37
3, 105920, Note_off_c, 1, 68, 0
3, 105920, Note_on_c, 1, 67, 38
3, 106000, Note_off_c, 1, 67, 0
3, 106000, Note_on_c, 1, 68, 38
3, 106080, Note_off_c, 1, 68, 0
3, 106080, Note_on_c, 1, 67, 38
3, 106160, Note_off_c, 1, 67, 0
3, 106160, Note_on_c, 1, 68, 38
3, 106240, Note_off_c, 1, 68, 0
3, 106240, Note_on_c, 1, 67, 38
3, 106320, Note_off_c, 1, 67, 0
3, 106320, Note_on_c, 1, 68, 39
3, 106400, Note_off_c, 1, 68, 0
3, 106400, Note_on_c, 1, 67, 39
3, 106480, Note_off_c, 1, 67, 0
3, 106480, Note_on_c, 1, 68, 39
3, 106560, Note_off_c, 1, 68, 0
3, 106560, Note_on_c, 1, 67, 39
3, 106640, Note_off_c, 1, 67, 0
3, 106640, Note_on_c, 1, 68, 39
3, 106720, Note_off_c, 1, 68, 0
3, 106720, Note_on_c, 1, 67, 40
3, 106800, Note_off_c, 1, 67, 0
3, 106800, Note_on_c, 1, 68, 40
3, 106880, Note_off_c, 1, 68, 0
3, 106880, Note_on_c, 1, 67, 40
3, 106960, Note_off_c, 1, 67, 0
3, 106960, Note_on_c, 1, 68, 40
3, 107040, Note_off_c, 1, 68, 0
3, 107040, Note_on_c, 1, 67, 40
3, 107120, Note_off_c, 1, 67, 0
3, 107120, Note_on_c, 1, 68, 40
3, 107200, Note_off_c, 1, 68, 0
3, 107200, Note_on_c, 1, 67, 41
3, 107280, Note_off_c, 1, 67, 0
3, 107280, Note_on_c, 1, 68, 41
3, 107360, Note_off_c, 1, 68, 0
3, 107360, Note_on_c, 1, 67, 41
3, 107440, Note_off_c, 1, 67, 0
3, 107440, Note_on_c, 1, 68, 41
3, 107520, Note_off_c, 1, 68, 0
3, 107520, Note_on_c, 1, 67, 41
3, 107600, Note_off_c, 1, 67, 0
3, 107600, Note_on_c, 1, 68, 42
3, 107680, Note_off_c, 1, 68, 0
3, 107680, Note_on_c, 1, 67, 42
3, 107760, Note_off_c, 1, 67, 0
3, 107760, Note_on_c, 1, 68, 42
3, 107840, Note_off_c, 1, 68, 0
3, 107840, Note_on_c, 1, 67, 42
3, 107920, Note_off_c, 1, 67, 0
3, 107920, Note_on_c, 1, 68, 42
3, 108000, Note_off_c, 1, 68, 0
3, 108000, Note_on_c, 1, 67, 43
3, 108080, Note_off_c, 1, 67, 0
3, 108080, Note_on_c, 1, 69, 43
3, 108160, Note_off_c, 1, 69, 0
3, 108160, Note_on_c, 1, 67, 43
3, 108240, Note_off_c, 1, 67, 0
3, 108240, Note_on_c, 1, 69, 43
3, 108320, Note_off_c, 1, 69, 0
3, 108320, Note_on_c, 1, 67, 43
3, 108400, Note_off_c, 1, 67, 0
3, 108400, Note_on_c, 1, 69, 44
3, 108480, Note_off_c, 1, 69, 0
3, 108480, Note_on_c, 1, 67, 44
3, 108560, Note_off_c, 1, 67, 0
3, 108560, Note_on_c, 1, 69, 44
3, 108640, Note_off_c, 1, 69, 0
3, 108640, Note_on_c, 1, 67, 44
3, 108720, Note_off_c, 1, 67, 0
3, 108720, Note_on_c, 1, 69, 44
3, 108800, Note_off_c, 1, 69, 0
3, 108800, Note_on_c, 1, 67, 44
3, 108880, Note_off_c, 1, 67, 0
3, 108880, Note_on_c, 1, 69, 45
3, 108960, Note_off_c, 1, 69, 0
3, 108960, Note_on_c, 1, 67, 45
3, 109040, Note_off_c, 1, 67, 0
3, 109040, Note_on_c, 1, 69, 45
3, 109120, Note_off_c, 1, 69, 0
3, 109120, Note_on_c, 1, 67, 45
3, 109200, Note_off_c, 1, 67, 0
3, 109200, Note_on_c, 1, 69, 45
3, 109280, Note_off_c, 1, 69, 0
3, 109280, Note_on_c, 1, 67, 46
3, 109360, Note_off_c, 1, 67, 0
3, 109360, Note_on_c, 1, 69, 46
3, 109440, Note_off_c, 1, 69, 0
3, 109440, Note_on_c, 1, 69, 46
3, 109520, Note_off_c, 1, 69, 0
3, 109520, Note_on_c, 1, 70, 46
3, 109600, Note_off_c, 1, 70, 0
3, 109600, Note_on_c, 1, 69, 46
3, 109680, Note_off_c, 1, 69, 0
3, 109680, Note_on_c, 1, 70, 47
3, 109760, Note_off_c, 1, 70, 0
3, 109760, Note_on_c, 1, 69, 47
3, 109840, Note_off_c, 1, 69, 0
3, 109840, Note_on_c, 1, 70, 47
3, 109920, Note_off_c, 1, 70, 0
3, 109920, Note_on_c, 1, 69, 47
3, 110000, Note_off_c, 1, 69, 0
3, 110000, Note_on_c, 1, 70, 47
3, 110080, Note_off_c, 1, 70, 0
3, 110080, Note_on_c, 1, 69, 48
3, 110160, Note_off_c, 1, 69, 0
3, 110160, Note_on_c, 1, 70, 48
3, 110240, Note_off_c, 1, 70, 0
3, 110240, Note_on_c, 1, 69, 48
3, 110320, Note_off_c, 1, 69, 0
3, 110320, Note_on_c, 1, 70, 48
3, 110400, Note_off_c, 1, 70, 0
3, 110400, Note_on_c, 1, 69, 48
3, 110480, Note_off_c, 1, 69, 0
3, 110480, Note_on_c, 1, 70, 48
3, 110560, Note_off_c, 1, 70, 0
3, 110560, Note_on_c, 1, 69, 49
3, 110640, Note_off_c, 1, 69, 0
3, 110640, Note_on_c, 1, 70, 49
3, 110720, Note_off_c, 1, 70, 0
3, 110720, Note_on_c, 1, 69, 49
3, 110800, Note_off_c, 1, 69, 0
3, 110800, Note_on_c, 1, 70, 49
3, 110880, Note_off_c, 1, 70, 0
3, 110880, Note_on_c, 1, 69, 49
3, 110960, Note_off_c, 1, 69, 0
3, 110960, Note_on_c, 1, 70, 50
3, 111040, Note_off_c, 1, 70, 0
3, 111040, Note_on_c, 1, 69, 50
3, 111120, Note_off_c, 1, 69, 0
3, 111120, Note_on_c, 1, 70, 50
3, 111200, Note_off_c, 1, 70, 0
3, 111200, Note_on_c, 1, 69, 50
3, 111280, Note_off_c, 1, 69, 0
3, 111280, Note_on_c, 1, 70, 50
3, 111360, Note_off_c, 1, 70, 0
3, 111360, Note_on_c, 1, 69, 51
3, 111440, Note_off_c, 1, 69, 0
3, 111440, Note_on_c, 1, 70, 51
3, 111520, Note_off_c, 1, 70, 0
3, 111520, Note_on_c, 1, 69, 50
3, 111600, Note_off_c, 1, 69, 0
3, 111600, Note_on_c, 1, 70, 50
3, 111680, Note_off_c, 1, 70, 0
3, 111680, Note_on_c, 1, 69, 50
3, 111760, Note_off_c, 1, 69, 0
3, 111760, Note_on_c, 1, 70, 51
3, 111840, Note_off_c, 1, 70, 0
3, 111840, Note_on_c, 1, 69, 51
3, 111920, Note_off_c, 1, 69, 0
3, 111920, Note_on_c, 1, 70, 52
3, 112000, Note_off_c, 1, 70, 0
3, 112000, Note_on_c, 1, 69, 52
3, 112080, Note_off_c, 1, 69, 0
3, 112080, Note_on_c, 1, 70, 52
3, 112160, Note_off_c, 1, 70, 0
3, 112160, Note_on_c, 1, 69, 53
3, 112240, Note_off_c, 1, 69, 0
3, 112240, Note_on_c, 1, 70, 53
3, 112320, Note_off_c, 1, 70, 0
3, 112320, Note_on_c, 1, 71, 54
3, 112400, Note_off_c, 1, 71, 0
3, 112400, Note_on_c, 1, 72, 54
3, 112480, Note_off_c, 1, 72, 0
3, 112480, Note_on_c, 1, 71, 54
3, 112560, Note_off_c, 1, 71, 0
3, 112560, Note_on_c, 1, 72, 55
3, 112640, Note_off_c, 1, 72, 0
3, 112640, Note_on_c, 1, 71, 55
3, 112720, Note_off_c, 1, 71, 0
3, 112720, Note_on_c, 1, 72, 55
3, 112800, Note_off_c, 1, 72, 0
3, 112800, Note_on_c, 1, 71, 54
3, 112880, Note_off_c, 1, 71, 0
3, 112880, Note_on_c, 1, 72, 54
3, 112960, Note_off_c, 1, 72, 0
3, 112960, Note_on_c, 1, 71, 54
3, 113040, Note_off_c, 1, 71, 0
3, 113040, Note_on_c, 1, 72, 53
3, 113120, Note_off_c, 1, 72, 0
3, 113120, Note_on_c, 1, 71, 53
3, 113200, Note_off_c, 1, 71, 0
3, 113200, Note_on_c, 1, 72, 53
3, 113280, Note_off_c, 1, 72, 0
3, 113280, Note_on_c, 1, 71, 52
3, 113360, Note_off_c, 1, 71, 0
3, 113360, Note_on_c, 1, 72, 52
3, 113440, Note_off_c, 1, 72, 0
3, 113440, Note_on_c, 1, 71, 51
3, 113520, Note_off_c, 1, 71, 0
3, 113520, Note_on_c, 1, 72, 51
3, 113600, Note_off_c, 1, 72, 0
3, 113600, Note_on_c, 1, 71, 51
3, 113680, Note_off_c, 1, 71, 0
3, 113680, Note_on_c, 1, 72, 50
3, 113760, Note_off_c, 1, 72, 0
3, 113760, Note_on_c, 1, 71, 50
3, 113840, Note_off_c, 1, 71, 0
3, 113840, Note_on_c, 1, 72, 49
3, 113920, Note_off_c, 1, 72, 0
3, 113920, Note_on_c, 1, 71, 49
3, 114000, Note_off_c, 1, 71, 0
3, 114000, Note_on_c, 1, 72, 49
3, 114080, Note_off_c, 1, 72, 0
3, 114080, Note_on_c, 1, 71, 48
3, 114160, Note_off_c, 1, 71, 0
3, 114160, Note_on_c, 1, 72, 48
3, 114240, Note_off_c, 1, 72, 0
3, 114240, Note_on_c, 1, 71, 48
3, 114320, Note_off_c, 1, 71, 0
3, 114320, Note_on_c, 1, 72, 47
3, 114400, Note_off_c, 1, 72, 0
3, 114400, Note_on_c, 1, 71, 47
3, 114480, Note_off_c, 1, 71, 0
3, 114480, Note_on_c, 1, 72, 46
3, 114560, Note_off_c, 1, 72, 0
3, 114560, Note_on_c, 1, 71, 46
3, 114640, Note_off_c, 1, 71, 0
3, 114640, Note_on_c, 1, 72, 46
3, 114720, Note_off_c, 1, 72, 0
3, 114720, Note_on_c, 1, 71, 45
3, 114780, Note_off_c, 1, 71, 0
3, 114780, Note_on_c, 1, 72, 45
3, 114840, Note_off_c, 1, 72, 0
3, 114840, Note_on_c, 1, 71, 45
3, 114900, Note_off_c, 1, 71, 0
3, 114900, Note_on_c, 1, 72, 44
3, 114960, Note_off_c, 1, 72, 0
3, 114960, Note_on_c, 1, 71, 44
3, 115020, Note_off_c, 1, 71, 0
3, 115020, Note_on_c, 1, 72, 44
3, 115080, Note_off_c, 1, 72, 0
3, 115080, Note_on_c, 1, 71, 44
3, 115140, Note_off_c, 1, 71, 0
3, 115140, Note_on_c, 1, 72, 43
3, 115200, Note_off_c, 1, 72, 0
3, 115200, Note_on_c, 1, 72, 43
3, 115260, Note_off_c, 1, 72, 0
3, 115260, Note_on_c, 1, 74, 43
3, 115320, Note_off_c, 1, 74, 0
3, 115320, Note_on_c, 1, 72, 42
3, 115380, Note_off_c, 1, 72, 0
3, 115380, Note_on_c, 1, 74, 42
3, 115440, Note_off_c, 1, 74, 0
3, 115440, Note_on_c, 1, 72, 42
3, 115500, Note_off_c, 1, 72, 0
3, 115500, Note_on_c, 1, 74, 42
3, 115560, Note_off_c, 1, 74, 0
3, 115560, Note_on_c, 1, 72, 41
3, 115620, Note_off_c, 1, 72, 0
3, 115620, Note_on_c, 1, 74, 41
3, 115680, Note_off_c, 1, 74, 0
3, 115680, Note_on_c, 1, 71, 41
3, 115740, Note_off_c, 1, 71, 0
3, 115740, Note_on_c, 1, 72, 40
3, 115800, Note_off_c, 1, 72, 0
3, 115800, Note_on_c, 1, 71, 40
3, 115860, Note_off_c, 1, 71, 0
3, 115860, Note_on_c, 1, 72, 40
3, 115920, Note_off_c, 1, 72, 0
3, 115920, Note_on_c, 1, 71, 40
3, 115960, Note_off_c, 1, 71, 0
3, 115960, Note_on_c, 1, 72, 39
3, 116000, Note_off_c, 1, 72, 0
3, 116000, Note_on_c, 1, 71, 39
3, 116040, Note_off_c, 1, 71, 0
3, 116040, Note_on_c, 1, 69, 39
3, 116100, Note_off_c, 1, 69, 0
3, 116100, Note_on_c, 1, 71, 39
3, 116160, Note_off_c, 1, 71, 0
3, 116160, Note_on_c, 1, 72, 38
3, 116315, Note_off_c, 1, 72, 0
3, 140160, Note_on_c, 1, 52, 44
3, 140160, Note_on_c, 1, 55, 44
3, 141120, Note_off_c, 1, 55, 0
3, 141120, Note_off_c, 1, 52, 0
3, 141120, Note_on_c, 1, 50, 46
3, 141120, Note_on_c, 1, 55, 46
3, 142560, Note_off_c, 1, 55, 0
3, 142560, Note_off_c, 1, 50, 0
3, 142560, Note_on_c, 1, 55, 49
3, 142560, Note_on_c, 1, 58, 49
3, 143040, Note_off_c, 1, 58, 0
3, 143040, Note_off_c, 1, 55, 0
3, 143040, Note_on_c, 1, 57, 50
3, 143040, Note_on_c, 1, 55, 50
3, 144000, Note_off_c, 1, 55, 0
3, 144000, Note_off_c, 1, 57, 0
3, 144000, Note_on_c, 1, 57, 52
3, 144000, Note_on_c, 1, 53, 52
3, 145440, Note_off_c, 1, 53, 0
3, 145440, Note_off_c, 1, 57, 0
3, 145440, Note_on_c, 1, 57, 55
3, 145440, Note_on_c, 1, 60, 55
3, 146880, Note_off_c, 1, 60, 0
3, 146880, Note_off_c, 1, 57, 0
3, 147360, Note_on_c, 1, 57, 59
3, 147360, Note_on_c, 1, 60, 59
3, 147360, Note_on_c, 1, 62, 59
3, 148800, Note_off_c, 1, 62, 0
3, 148800, Note_off_c, 1, 60, 0
3, 148800, Note_off_c, 1, 57, 0
3, 148800, Note_on_c, 1, 59, 53
3, 148800, Note_on_c, 1, 62, 53
3, 149760, Note_off_c, 1, 62, 0
3, 149760, Note_off_c, 1, 59, 0
3, 197760, Note_on_c, 1, 84, 67
3, 198480, Note_off_c, 1, 84, 0
3, 198480, Note_on_c, 1, 87, 62
3, 198720, Note_off_c, 1, 87, 0
3, 198720, Note_on_c, 1, 86, 61
3, 198960, Note_off_c, 1, 86, 0
3, 198960, Note_on_c, 1, 84, 60
3, 199200, Note_off_c, 1, 84, 0
3, 199200, Note_on_c, 1, 83, 59
3, 199440, Note_off_c, 1, 83, 0
3, 199440, Note_on_c, 1, 81, 58
3, 199680, Note_off_c, 1, 81, 0
3, 199680, Note_on_c, 1, 83, 57
3, 199920, Note_off_c, 1, 83, 0
3, 199920, Note_on_c, 1, 79, 56
3, 200160, Note_off_c, 1, 79, 0
3, 200640, Note_on_c, 1, 82, 67
3, 201360, Note_off_c, 1, 82, 0
3, 201360, Note_on_c, 1, 85, 60
3, 201600, Note_off_c, 1, 85, 0
3, 201600, Note_on_c, 1, 84, 59
3, 201840, Note_off_c, 1, 84, 0
3, 201840, Note_on_c, 1, 82, 57
3, 202080, Note_off_c, 1, 82, 0
3, 202080, Note_on_c, 1, 69, 63
3, 202800, Note_off_c, 1, 69, 0
3, 202800, Note_on_c, 1, 72, 58
3, 203040, Note_off_c, 1, 72, 0
3, 203040, Note_on_c, 1, 75, 60
3, 203280, Note_off_c, 1, 75, 0
3, 203280, Note_on_c, 1, 74, 62
3, 203520, Note_off_c, 1, 74, 0
3, 203520, Note_on_c, 1, 72, 64
3, 203760, Note_off_c, 1, 72, 0
3, 203760, Note_on_c, 1, 71, 66
3, 204000, Note_off_c, 1, 71, 0
3, 204000, Note_on_c, 1, 72, 68
3, 204240, Note_off_c, 1, 72, 0
3, 204240, Note_on_c, 1, 69, 70
3, 204480, Note_off_c, 1, 69, 0
3, 204480, Note_on_c, 1, 77, 72
3, 204480, Note_on_c, 1, 74, 72
3, 204960, Note_off_c, 1, 74, 0
3, 204960, Note_off_c, 1, 77, 0
3, 206400, Note_on_c, 1, 67, 61
3, 206400, Note_on_c, 1, 71, 61
3, 206520, Note_off_c, 1, 71, 0
3, 206520, Note_off_c, 1, 67, 0
3, 206640, Note_on_c, 1, 67, 60
3, 206640, Note_on_c, 1, 71, 60
3, 206760, Note_off_c, 1, 71, 0
3, 206760, Note_off_c, 1, 67, 0
3, 206880, Note_on_c, 1, 67, 59
3, 206880, Note_on_c, 1, 71, 59
3, 207000, Note_off_c, 1, 71, 0
3, 207000, Note_off_c, 1, 67, 0
3, 207120, Note_on_c, 1, 71, 57
3, 207120, Note_on_c, 1, 67, 57
3, 207240, Note_off_c, 1, 67, 0
3, 207240, Note_off_c, 1, 71, 0
3, 207360, Note_on_c, 1, 67, 56
3, 207360, Note_on_c, 1, 72, 56
3, 207480, Note_off_c, 1, 72, 0
3, 207480, Note_off_c, 1, 67, 0
3, 207600, Note_on_c, 1, 72, 55
3, 207600, Note_on_c, 1, 67, 55
3, 207720, Note_off_c, 1, 67, 0
3, 207720, Note_off_c, 1, 72, 0
3, 207840, Note_on_c, 1, 72, 53
3, 207840, Note_on_c, 1, 67, 53
3, 207960, Note_off_c, 1, 67, 0
3, 207960, Note_off_c, 1, 72, 0
3, 208080, Note_on_c, 1, 72, 52
3, 208080, Note_on_c, 1, 67, 52
3, 208200, Note_off_c, 1, 67, 0
3, 208200, Note_off_c, 1, 72, 0
3, 208320, Note_on_c, 1, 67, 51
3, 208320, Note_on_c, 1, 72, 51
3, 208440, Note_off_c, 1, 72, 0
3, 208440, Note_off_c, 1, 67, 0
3, 208560, Note_on_c, 1, 67, 50
3, 208560, Note_on_c, 1, 72, 50
3, 208680, Note_off_c, 1, 72, 0
3, 208680, Note_off_c, 1, 67, 0
3, 267840, Note_on_c, 1, 55, 36
3, 267960, Note_off_c, 1, 55, 0
3, 268080, Note_on_c, 1, 55, 36
3, 268200, Note_off_c, 1, 55, 0
3, 268320, Note_on_c, 1, 55, 37
3, 268440, Note_off_c, 1, 55, 0
3, 268560, Note_on_c, 1, 55, 38
3, 268680, Note_off_c, 1, 55, 0
3, 268800, Note_on_c, 1, 55, 39
3, 268920, Note_off_c, 1, 55, 0
3, 269040, Note_on_c, 1, 55, 39
3, 269160, Note_off_c, 1, 55, 0
3, 269280, Note_on_c, 1, 55, 40
3, 269400, Note_off_c, 1, 55, 0
3, 269520, Note_on_c, 1, 55, 41
3, 269640, Note_off_c, 1, 55, 0
3, 269760, Note_on_c, 1, 55, 42
3, 269880, Note_off_c, 1, 55, 0
3, 270000, Note_on_c, 1, 55, 42
3, 270120, Note_off_c, 1, 55, 0
3, 270240, Note_on_c, 1, 55, 43
3, 270360, Note_off_c, 1, 55, 0
3, 270480, Note_on_c, 1, 55, 44
3, 270600, Note_off_c, 1, 55, 0
3, 270720, Note_on_c, 1, 61, 45
3, 270720, Note_on_c, 1, 55, 45
3, 270840, Note_off_c, 1, 55, 0
3, 270840, Note_off_c, 1, 61, 0
3, 270960, Note_on_c, 1, 61, 45
3, 270960, Note_on_c, 1, 55, 45
3, 271080, Note_off_c, 1, 55, 0
3, 271080, Note_off_c, 1, 61, 0
3, 271200, Note_on_c, 1, 55, 46
3, 271200, Note_on_c, 1, 61, 46
3, 271320, Note_off_c, 1, 61, 0
3, 271320, Note_off_c, 1, 55, 0
3, 271440, Note_on_c, 1, 61, 47
3, 271440, Note_on_c, 1, 55, 47
3, 271560, Note_off_c, 1, 55, 0
3, 271560, Note_off_c, 1, 61, 0
3, 271680, Note_on_c, 1, 55, 47
3, 271680, Note_on_c, 1, 61, 47
3, 271800, Note_off_c, 1, 61, 0
3, 271800, Note_off_c, 1, 55, 0
3, 271920, Note_on_c, 1, 55, 48
3, 271920, Note_on_c, 1, 61, 48
3, 272040, Note_off_c, 1, 61, 0
3, 272040, Note_off_c, 1, 55, 0
3, 272160, Note_on_c, 1, 60, 49
3, 272160, Note_on_c, 1, 55, 49
3, 272280, Note_off_c, 1, 55, 0
3, 272280, Note_off_c, 1, 60, 0
3, 272400, Note_on_c, 1, 55, 50
3, 272400, Note_on_c, 1, 60, 50
3, 272520, Note_off_c, 1, 60, 0
3, 272520, Note_off_c, 1, 55, 0
3, 272640, Note_on_c, 1, 55, 50
3, 272640, Note_on_c, 1, 60, 50
3, 272760, Note_off_c, 1, 60, 0
3, 272760, Note_off_c, 1, 55, 0
3, 272880, Note_on_c, 1, 55, 51
3, 272880, Note_on_c, 1, 60, 51
3, 273000, Note_off_c, 1, 60, 0
3, 273000, Note_off_c, 1, 55, 0
3, 273120, Note_on_c, 1, 55, 52
3, 273120, Note_on_c, 1, 60, 52
3, 273240, Note_off_c, 1, 60, 0
3, 273240, Note_off_c, 1, 55, 0
3, 273360, Note_on_c, 1, 55, 53
3, 273360, Note_on_c, 1, 60, 53
3, 273480, Note_off_c, 1, 60, 0
3, 273480, Note_off_c, 1, 55, 0
3, 273600, Note_on_c, 1, 55, 53
3, 273600, Note_on_c, 1, 60, 53
3, 273720, Note_off_c, 1, 60, 0
3, 273720, Note_off_c, 1, 55, 0
3, 273840, Note_on_c, 1, 55, 54
3, 273840, Note_on_c, 1, 60, 54
3, 273960, Note_off_c, 1, 60, 0
3, 273960, Note_off_c, 1, 55, 0
3, 274080, Note_on_c, 1, 55, 55
3, 274080, Note_on_c, 1, 60, 55
3, 274200, Note_off_c, 1, 60, 0
3, 274200, Note_off_c, 1, 55, 0
3, 274320, Note_on_c, 1, 55, 56
3, 274320, Note_on_c, 1, 60, 56
3, 274440, Note_off_c, 1, 60, 0
3, 274440, Note_off_c, 1, 55, 0
3, 274560, Note_on_c, 1, 55, 56
3, 274560, Note_on_c, 1, 60, 56
3, 274680, Note_off_c, 1, 60, 0
3, 274680, Note_off_c, 1, 55, 0
3, 274800, Note_on_c, 1, 55, 57
3, 274800, Note_on_c, 1, 60, 57
3, 274920, Note_off_c, 1, 60, 0
3, 274920, Note_off_c, 1, 55, 0
3, 275040, Note_on_c, 1, 55, 58
3, 275040, Note_on_c, 1, 59, 58
3, 275160, Note_off_c, 1, 59, 0
3, 275160, Note_off_c, 1, 55, 0
3, 275280, Note_on_c, 1, 55, 58
3, 275280, Note_on_c, 1, 59, 58
3, 275400, Note_off_c, 1, 59, 0
3, 275400, Note_off_c, 1, 55, 0
3, 275520, Note_on_c, 1, 59, 61
3, 275520, Note_on_c, 1, 55, 61
3, 275640, Note_off_c, 1, 55, 0
3, 275640, Note_off_c, 1, 59, 0
3, 275760, Note_on_c, 1, 59, 60
3, 275760, Note_on_c, 1, 55, 60
3, 275880, Note_off_c, 1, 55, 0
3, 275880, Note_off_c, 1, 59, 0
3, 276000, Note_on_c, 1, 55, 58
3, 276000, Note_on_c, 1, 59, 58
3, 276120, Note_off_c, 1, 59, 0
3, 276120, Note_off_c, 1, 55, 0
3, 276240, Note_on_c, 1, 59, 56
3, 276240, Note_on_c, 1, 55, 56
3, 276360, Note_off_c, 1, 55, 0
3, 276360, Note_off_c, 1, 59, 0
3, 276480, Note_on_c, 1, 55, 55
3, 276480, Note_on_c, 1, 59, 55
3, 276600, Note_off_c, 1, 59, 0
3, 276600, Note_off_c, 1, 55, 0
3, 276720, Note_on_c, 1, 55, 53
3, 276720, Note_on_c, 1, 59, 53
3, 276840, Note_off_c, 1, 59, 0
3, 276840, Note_off_c, 1, 55, 0
3, 276960, Note_on_c, 1, 59, 51
3, 276960, Note_on_c, 1, 55, 51
3, 277080, Note_off_c, 1, 55, 0
3, 277080, Note_off_c, 1, 59, 0
3, 277200, Note_on_c, 1, 59, 50
3, 277200, Note_on_c, 1, 55, 50
3, 277320, Note_off_c, 1, 55, 0
3, 277320, Note_off_c, 1, 59, 0
3, 277440, Note_on_c, 1, 55, 48
3, 277440, Note_on_c, 1, 59, 48
3, 277560, Note_off_c, 1, 59, 0
3, 277560, Note_off_c, 1, 55, 0
3, 277680, Note_on_c, 1, 59, 46
3, 277680, Note_on_c, 1, 55, 46
3, 277800, Note_off_c, 1, 55, 0
3, 277800, Note_off_c, 1, 59, 0
3, 277920, Note_on_c, 1, 55, 45
3, 277920, Note_on_c, 1, 60, 45
3, 278040, Note_off_c, 1, 60, 0
3, 278040, Note_off_c, 1, 55, 0
3, 278160, Note_on_c, 1, 55, 43
3, 278160, Note_on_c, 1, 60, 43
3, 278280, Note_off_c, 1, 60, 0
3, 278280, Note_off_c, 1, 55, 0
3, 278400, Note_on_c, 1, 59, 41
3, 278400, Note_on_c, 1, 55, 41
3, 278520, Note_off_c, 1, 55, 0
3, 278520, Note_off_c, 1, 59, 0
3, 278640, Note_on_c, 1, 55, 40
3, 278640, Note_on_c, 1, 59, 40
3, 278760, Note_off_c, 1, 59, 0
3, 278760, Note_off_c, 1, 55, 0
3, 278880, Note_on_c, 1, 55, 38
3, 278880, Note_on_c, 1, 60, 38
3, 279000, Note_off_c, 1, 60, 0
3, 279000, Note_off_c, 1, 55, 0
3, 279120, Note_on_c, 1, 55, 36
3, 279120, Note_on_c, 1, 60, 36
3, 279240, Note_off_c, 1, 60, 0
3, 279240, Note_off_c, 1, 55, 0
3, 406560, Note_on_c, 1, 74, 78
3, 406680, Note_off_c, 1, 74, 0
3, 406680, Note_on_c, 1, 72, 76
3, 406800, Note_off_c, 1, 72, 0
3, 406800, Note_on_c, 1, 74, 73
3, 406920, Note_off_c, 1, 74, 0
3, 406920, Note_on_c, 1, 72, 70
3, 407040, Note_off_c, 1, 72, 0
3, 407040, Note_on_c, 1, 74, 69
3, 407160, Note_off_c, 1, 74, 0
3, 407160, Note_on_c, 1, 72, 68
3, 407280, Note_off_c, 1, 72, 0
3, 407280, Note_on_c, 1, 74, 66
3, 407400, Note_off_c, 1, 74, 0
3, 407400, Note_on_c, 1, 72, 63
3, 407520, Note_off_c, 1, 72, 0
3, 407520, Note_on_c, 1, 74, 63
3, 407640, Note_off_c, 1, 74, 0
3, 407640, Note_on_c, 1, 72, 63
3, 407760, Note_off_c, 1, 72, 0
3, 407760, Note_on_c, 1, 74, 62
3, 407880, Note_off_c, 1, 74, 0
3, 407880, Note_on_c, 1, 72, 62
3, 408000, Note_off_c, 1, 72, 0
3, 408000, Note_on_c, 1, 74, 62
3, 408120, Note_off_c, 1, 74, 0
3, 408120, Note_on_c, 1, 72, 61
3, 408240, Note_off_c, 1, 72, 0
3, 408240, Note_on_c, 1, 74, 61
3, 408360, Note_off_c, 1, 74, 0
3, 408360, Note_on_c, 1, 72, 61
3, 408480, Note_off_c, 1, 72, 0
3, 408480, Note_on_c, 1, 74, 60
3, 408600, Note_off_c, 1, 74, 0
3, 408600, Note_on_c, 1, 72, 60
3, 408720, Note_off_c, 1, 72, 0
3, 408720, Note_on_c, 1, 74, 60
3, 408840, Note_off_c, 1, 74, 0
3, 408840, Note_on_c, 1, 72, 59
3, 408960, Note_off_c, 1, 72, 0
3, 408960, Note_on_c, 1, 74, 59
3, 409080, Note_off_c, 1, 74, 0
3, 409080, Note_on_c, 1, 72, 59
3, 409200, Note_off_c, 1, 72, 0
3, 409200, Note_on_c, 1, 74, 58
3, 409320, Note_off_c, 1, 74, 0
3, 409320, Note_on_c, 1, 72, 58
3, 409440, Note_off_c, 1, 72, 0
3, 409440, Note_on_c, 1, 74, 58
3, 409560, Note_off_c, 1, 74, 0
3, 409560, Note_on_c, 1, 72, 57
3, 409680, Note_off_c, 1, 72, 0
3, 409680, Note_on_c, 1, 74, 57
3, 409800, Note_off_c, 1, 74, 0
3, 409800, Note_on_c, 1, 72, 57
3, 409920, Note_off_c, 1, 72, 0
3, 409920, Note_on_c, 1, 74, 56
3, 410040, Note_off_c, 1, 74, 0
3, 410040, Note_on_c, 1, 72, 56
3, 410160, Note_off_c, 1, 72, 0
3, 410160, Note_on_c, 1, 74, 56
3, 410280, Note_off_c, 1, 74, 0
3, 410280, Note_on_c, 1, 72, 56
3, 410400, Note_off_c, 1, 72, 0
3, 410400, Note_on_c, 1, 74, 55
3, 410520, Note_off_c, 1, 74, 0
3, 410520, Note_on_c, 1, 72, 55
3, 410640, Note_off_c, 1, 72, 0
3, 410640, Note_on_c, 1, 74, 55
3, 410760, Note_off_c, 1, 74, 0
3, 410760, Note_on_c, 1, 72, 54
3, 410880, Note_off_c, 1, 72, 0
3, 410880, Note_on_c, 1, 74, 54
3, 411000, Note_off_c, 1, 74, 0
3, 411000, Note_on_c, 1, 72, 54
3, 411120, Note_off_c, 1, 72, 0
3, 411120, Note_on_c, 1, 74, 53
3, 411240, Note_off_c, 1, 74, 0
3, 411240, Note_on_c, 1, 72, 53
3, 411360, Note_off_c, 1, 72, 0
3, 411360, Note_on_c, 1, 74, 53
3, 411480, Note_off_c, 1, 74, 0
3, 411480, Note_on_c, 1, 71, 52
3, 411600, Note_off_c, 1, 71, 0
3, 411600, Note_on_c, 1, 74, 52
3, 411720, Note_off_c, 1, 74, 0
3, 411720, Note_on_c, 1, 71, 52
3, 411840, Note_off_c, 1, 71, 0
3, 411840, Note_on_c, 1, 72, 53
3, 411960, Note_off_c, 1, 72, 0
3, 411960, Note_on_c, 1, 75, 53
3, 412080, Note_off_c, 1, 75, 0
3, 412080, Note_on_c, 1, 79, 52
3, 412200, Note_off_c, 1, 79, 0
3, 412200, Note_on_c, 1, 75, 52
3, 412320, Note_off_c, 1, 75, 0
3, 412320, Note_on_c, 1, 72, 51
3, 412440, Note_off_c, 1, 72, 0
3, 412440, Note_on_c, 1, 75, 50
3, 412560, Note_off_c, 1, 75, 0
3, 412560, Note_on_c, 1, 72, 50
3, 412680, Note_off_c, 1, 72, 0
3, 412680, Note_on_c, 1, 67, 49
3, 412800, Note_off_c, 1, 67, 0
3, 412800, Note_on_c, 1, 63, 49
3, 412920, Note_off_c, 1, 63, 0
3, 412920, Note_on_c, 1, 67, 48
3, 413040, Note_off_c, 1, 67, 0
3, 413040, Note_on_c, 1, 63, 48
3, 413160, Note_off_c, 1, 63, 0
3, 413160, Note_on_c, 1, 60, 47
3, 413280, Note_off_c, 1, 60, 0
3, 413280, Note_on_c, 1, 62, 46
3, 413400, Note_off_c, 1, 62, 0
3, 413400, Note_on_c, 1, 60, 46
3, 413520, Note_off_c, 1, 60, 0
3, 413520, Note_on_c, 1, 62, 47
3, 413640, Note_off_c, 1, 62, 0
3, 413640, Note_on_c, 1, 60, 47
3, 413760, Note_off_c, 1, 60, 0
3, 413760, Note_on_c, 1, 62, 47
3, 413880, Note_off_c, 1, 62, 0
3, 413880, Note_on_c, 1, 60, 46
3, 414000, Note_off_c, 1, 60, 0
3, 414000, Note_on_c, 1, 62, 46
3, 414120, Note_off_c, 1, 62, 0
3, 414120, Note_on_c, 1, 60, 46
3, 414240, Note_off_c, 1, 60, 0
3, 414240, Note_on_c, 1, 62, 46
3, 414360, Note_off_c, 1, 62, 0
3, 414360, Note_on_c, 1, 60, 46
3, 414480, Note_off_c, 1, 60, 0
3, 414480, Note_on_c, 1, 62, 45
3, 414600, Note_off_c, 1, 62, 0
3, 414600, Note_on_c, 1, 60, 45
3, 414720, Note_off_c, 1, 60, 0
3, 414720, Note_on_c, 1, 62, 45
3, 414840, Note_off_c, 1, 62, 0
3, 414840, Note_on_c, 1, 60, 45
3, 414960, Note_off_c, 1, 60, 0
3, 414960, Note_on_c, 1, 62, 45
3, 415080, Note_off_c, 1, 62, 0
3, 415080, Note_on_c, 1, 60, 44
3, 415200, Note_off_c, 1, 60, 0
3, 415200, Note_on_c, 1, 62, 44
3, 415320, Note_off_c, 1, 62, 0
3, 415320, Note_on_c, 1, 60, 44
3, 415440, Note_off_c, 1, 60, 0
3, 415440, Note_on_c, 1, 62, 44
3, 415560, Note_off_c, 1, 62, 0
3, 415560, Note_on_c, 1, 60, 44
3, 415680, Note_off_c, 1, 60, 0
3, 415680, Note_on_c, 1, 62, 43
3, 415800, Note_off_c, 1, 62, 0
3, 415800, Note_on_c, 1, 60, 43
3, 415920, Note_off_c, 1, 60, 0
3, 415920, Note_on_c, 1, 62, 43
3, 416040, Note_off_c, 1, 62, 0
3, 416040, Note_on_c, 1, 60, 43
3, 416160, Note_off_c, 1, 60, 0
3, 416160, Note_on_c, 1, 62, 43
3, 416280, Note_off_c, 1, 62, 0
3, 416280, Note_on_c, 1, 60, 42
3, 416400, Note_off_c, 1, 60, 0
3, 416400, Note_on_c, 1, 62, 42
3, 416520, Note_off_c, 1, 62, 0
3, 416520, Note_on_c, 1, 60, 42
3, 416640, Note_off_c, 1, 60, 0
3, 416640, Note_on_c, 1, 62, 42
3, 416760, Note_off_c, 1, 62, 0
3, 416760, Note_on_c, 1, 60, 42
3, 416880, Note_off_c, 1, 60, 0
3, 416880, Note_on_c, 1, 62, 41
3, 417000, Note_off_c, 1, 62, 0
3, 417000, Note_on_c, 1, 60, 41
3, 417120, Note_off_c, 1, 60, 0
3, 417120, Note_on_c, 1, 62, 41
3, 417240, Note_off_c, 1, 62, 0
3, 417240, Note_on_c, 1, 60, 41
3, 417360, Note_off_c, 1, 60, 0
3, 417360, Note_on_c, 1, 62, 41
3, 417480, Note_off_c, 1, 62, 0
3, 417480, Note_on_c, 1, 60, 40
3, 417600, Note_off_c, 1, 60, 0
3, 417600, Note_on_c, 1, 62, 40
3, 417720, Note_off_c, 1, 62, 0
3, 417720, Note_on_c, 1, 59, 40
3, 417840, Note_off_c, 1, 59, 0
3, 417840, Note_on_c, 1, 62, 40
3, 417960, Note_off_c, 1, 62, 0
3, 417960, Note_on_c, 1, 59, 40
3, 418080, Note_off_c, 1, 59, 0
3, 418080, Note_on_c, 1, 62, 39
3, 418200, Note_off_c, 1, 62, 0
3, 418200, Note_on_c, 1, 59, 39
3, 418320, Note_off_c, 1, 59, 0
3, 418320, Note_on_c, 1, 62, 39
3, 418440, Note_off_c, 1, 62, 0
3, 418440, Note_on_c, 1, 59, 39
3, 418560, Note_off_c, 1, 59, 0
3, 418560, Note_on_c, 1, 62, 39
3, 418680, Note_off_c, 1, 62, 0
3, 418680, Note_on_c, 1, 59, 38
3, 418800, Note_off_c, 1, 59, 0
3, 418800, Note_on_c, 1, 62, 38
3, 418920, Note_off_c, 1, 62, 0
3, 418920, Note_on_c, 1, 59, 38
3, 419040, Note_off_c, 1, 59, 0
3, 427680, Note_on_c, 1, 60, 63
3, 427836, Note_off_c, 1, 60, 0
3, 428160, Note_on_c, 1, 63, 65
3, 428316, Note_off_c, 1, 63, 0
3, 428640, Note_on_c, 1, 67, 68
3, 428796, Note_off_c, 1, 67, 0
3, 429120, Note_on_c, 1, 65, 70
3, 429480, Note_off_c, 1, 65, 0
3, 429480, Note_on_c, 1, 63, 68
3, 429600, Note_off_c, 1, 63, 0
3, 429600, Note_on_c, 1, 62, 67
3, 429756, Note_off_c, 1, 62, 0
3, 430080, Note_on_c, 1, 67, 63
3, 430236, Note_off_c, 1, 67, 0
3, 430560, Note_on_c, 1, 36, 79
3, 432000, Note_off_c, 1, 36, 0
3, 432000, Note_on_c, 1, 36, 79
3, 433440, Note_off_c, 1, 36, 0
3, 433440, Note_on_c, 1, 31, 79
3, 434880, Note_off_c, 1, 31, 0
3, 434880, Note_on_c, 1, 36, 79
3, 436320, Note_off_c, 1, 36, 0
3, 436320, Note_on_c, 1, 31, 79
3, 437760, Note_off_c, 1, 31, 0
3, 437760, Note_on_c, 1, 36, 79
3, 439200, Note_off_c, 1, 36, 0
3, 439200, End_track
4, 0, Start_track
4, 0, Title_t, "No Name"
4, 0, Control_c, 2, 0, 0
4, 0, Control_c, 2, 32, 0
4, 0, Program_c, 2, 0
4, 0, Control_c, 2, 7, 110
4, 0, Pitch_bend_c, 2, 8192
4, 0, Control_c, 2, 1, 0
4, 0, Control_c, 2, 64, 0
4, 0, Control_c, 2, 93, 28
4, 0, Control_c, 2, 91, 91
4, 0, Control_c, 2, 10, 55
4, 1440, Note_on_c, 2, 48, 58
4, 1440, Note_on_c, 2, 55, 53
4, 1440, Note_on_c, 2, 51, 53
4, 2812, Note_off_c, 2, 51, 0
4, 2812, Note_off_c, 2, 55, 0
4, 2812, Note_off_c, 2, 48, 0
4, 2880, Note_on_c, 2, 47, 61
4, 2880, Note_on_c, 2, 50, 56
4, 2880, Note_on_c, 2, 55, 56
4, 4252, Note_off_c, 2, 55, 0
4, 4252, Note_off_c, 2, 50, 0
4, 4252, Note_off_c, 2, 47, 0
4, 4320, Note_on_c, 2, 46, 65
4, 4320, Note_on_c, 2, 48, 60
4, 4320, Note_on_c, 2, 52, 60
4, 4320, Note_on_c, 2, 55, 60
4, 5692, Note_off_c, 2, 55, 0
4, 5692, Note_off_c, 2, 52, 0
4, 5692, Note_off_c, 2, 48, 0
4, 5692, Note_off_c, 2, 46, 0
4, 5760, Note_on_c, 2, 45, 68
4, 5760, Note_on_c, 2, 48, 63
4, 5760, Note_on_c, 2, 53, 63
4, 7132, Note_off_c, 2, 53, 0
4, 7132, Note_off_c, 2, 48, 0
4, 7132, Note_off_c, 2, 45, 0
4, 7200, Note_on_c, 2, 44, 71
4, 7200, Note_on_c, 2, 48, 66
4, 7200, Note_on_c, 2, 51, 66
4, 7200, Note_on_c, 2, 54, 66
4, 8572, Note_off_c, 2, 54, 0
4, 8572, Note_off_c, 2, 51, 0
4, 8572, Note_off_c, 2, 48, 0
4, 8572, Note_off_c, 2, 44, 0
4, 8640, Note_on_c, 2, 55, 70
4, 8640, Note_on_c, 2, 43, 75
4, 8640, Note_on_c, 2, 48, 70
4, 8640, Note_on_c, 2, 51, 70
4, 8795, Note_off_c, 2, 51, 0
4, 8795, Note_off_c, 2, 48, 0
4, 8795, Note_off_c, 2, 43, 0
4, 8795, Note_off_c, 2, 55, 0
4, 9120, Note_on_c, 2, 41, 91
4, 9120, Note_on_c, 2, 44, 86
4, 9120, Note_on_c, 2, 48, 86
4, 9120, Note_on_c, 2, 53, 86
4, 10080, Note_off_c, 2, 53, 0
4, 10080, Note_off_c, 2, 48, 0
4, 10080, Note_off_c, 2, 44, 0
4, 10080, Note_off_c, 2, 41, 0
4, 10440, Note_on_c, 2, 44, 65
4, 10520, Note_off_c, 2, 44, 0
4, 10560, Note_on_c, 2, 41, 64
4, 10715, Note_off_c, 2, 41, 0
4, 11040, Note_on_c, 2, 43, 60
4, 11195, Note_off_c, 2, 43, 0
4, 11520, Note_on_c, 2, 48, 55
4, 11675, Note_off_c, 2, 48, 0
4, 12000, Note_on_c, 2, 43, 51
4, 12155, Note_off_c, 2, 43, 0
4, 12480, Note_on_c, 2, 36, 44
4, 12672, Note_off_c, 2, 36, 0
4, 13920, Note_on_c, 2, 60, 44
4, 13920, Note_on_c, 2, 67, 44
4, 13920, Note_on_c, 2, 63, 44
4, 14075, Note_off_c, 2, 63, 0
4, 14075, Note_off_c, 2, 67, 0
4, 14075, Note_off_c, 2, 60, 0
4, 14400, Note_on_c, 2, 62, 46
4, 14400, Note_on_c, 2, 59, 46
4, 14400, Note_on_c, 2, 67, 46
4, 14555, Note_off_c, 2, 67, 0
4, 14555, Note_off_c, 2, 59, 0
4, 14555, Note_off_c, 2, 62, 0
4, 15360, Note_on_c, 2, 47, 51
4, 15360, Note_on_c, 2, 50, 51
4, 15515, Note_off_c, 2, 50, 0
4, 15515, Note_off_c, 2, 47, 0
4, 15840, Note_on_c, 2, 49, 53
4, 15840, Note_on_c, 2, 52, 53
4, 15840, Note_on_c, 2, 46, 53
4, 15995, Note_off_c, 2, 46, 0
4, 15995, Note_off_c, 2, 52, 0
4, 15995, Note_off_c, 2, 49, 0
4, 16800, Note_on_c, 2, 58, 57
4, 16800, Note_on_c, 2, 61, 57
4, 16800, Note_on_c, 2, 67, 57
4, 16955, Note_off_c, 2, 67, 0
4, 16955, Note_off_c, 2, 61, 0
4, 16955, Note_off_c, 2, 58, 0
4, 17280, Note_on_c, 2, 65, 60
4, 17280, Note_on_c, 2, 60, 60
4, 17280, Note_on_c, 2, 57, 60
4, 17435, Note_off_c, 2, 57, 0
4, 17435, Note_off_c, 2, 60, 0
4, 17435, Note_off_c, 2, 65, 0
4, 18240, Note_on_c, 2, 45, 64
4, 18240, Note_on_c, 2, 48, 64
4, 18395, Note_off_c, 2, 48, 0
4, 18395, Note_off_c, 2, 45, 0
4, 18720, Note_on_c, 2, 48, 66
4, 18720, Note_on_c, 2, 44, 66
4, 18875, Note_off_c, 2, 44, 0
4, 18875, Note_off_c, 2, 48, 0
4, 19680, Note_on_c, 2, 60, 71
4, 19680, Note_on_c, 2, 56, 71
4, 19680, Note_on_c, 2, 63, 71
4, 19680, Note_on_c, 2, 66, 71
4, 19835, Note_off_c, 2, 66, 0
4, 19835, Note_off_c, 2, 63, 0
4, 19835, Note_off_c, 2, 56, 0
4, 19835, Note_off_c, 2, 60, 0
4, 20160, Note_on_c, 2, 60, 73
4, 20160, Note_on_c, 2, 67, 73
4, 20160, Note_on_c, 2, 63, 73
4, 20160, Note_on_c, 2, 55, 73
4, 20315, Note_off_c, 2, 55, 0
4, 20315, Note_off_c, 2, 63, 0
4, 20315, Note_off_c, 2, 67, 0
4, 20315, Note_off_c, 2, 60, 0
4, 20640, Note_on_c, 2, 60, 82
4, 20640, Note_on_c, 2, 53, 82
4, 20640, Note_on_c, 2, 65, 82
4, 20640, Note_on_c, 2, 56, 82
4, 20795, Note_off_c, 2, 56, 0
4, 20795, Note_off_c, 2, 65, 0
4, 20795, Note_off_c, 2, 53, 0
4, 20795, Note_off_c, 2, 60, 0
4, 22440, Note_on_c, 2, 41, 67
4, 22520, Note_off_c, 2, 41, 0
4, 22560, Note_on_c, 2, 43, 67
4, 22715, Note_off_c, 2, 43, 0
4, 23040, Note_on_c, 2, 48, 65
4, 23195, Note_off_c, 2, 48, 0
4, 23520, Note_on_c, 2, 55, 59
4, 23640, Note_off_c, 2, 55, 0
4, 23640, Note_on_c, 2, 51, 58
4, 23760, Note_off_c, 2, 51, 0
4, 23760, Note_on_c, 2, 48, 56
4, 23880, Note_off_c, 2, 48, 0
4, 23880, Note_on_c, 2, 43, 55
4, 24000, Note_off_c, 2, 43, 0
4, 24000, Note_on_c, 2, 48, 53
4, 24120, Note_off_c, 2, 48, 0
4, 24120, Note_on_c, 2, 51, 52
4, 24240, Note_off_c, 2, 51, 0
4, 24240, Note_on_c, 2, 55, 51
4, 24360, Note_off_c, 2, 55, 0
4, 24360, Note_on_c, 2, 51, 49
4, 24480, Note_off_c, 2, 51, 0
4, 24480, Note_on_c, 2, 48, 48
4, 24600, Note_off_c, 2, 48, 0
4, 24600, Note_on_c, 2, 51, 48
4, 24720, Note_off_c, 2, 51, 0
4, 24720, Note_on_c, 2, 55, 48
4, 24840, Note_off_c, 2, 55, 0
4, 24840, Note_on_c, 2, 60, 49
4, 24960, Note_off_c, 2, 60, 0
4, 24960, Note_on_c, 2, 63, 49
4, 25080, Note_off_c, 2, 63, 0
4, 25080, Note_on_c, 2, 67, 50
4, 25160, Note_off_c, 2, 67, 0
4, 25200, Note_on_c, 2, 67, 50
4, 25280, Note_off_c, 2, 67, 0
4, 25320, Note_on_c, 2, 67, 50
4, 25400, Note_off_c, 2, 67, 0
4, 25440, Note_on_c, 2, 67, 51
4, 25520, Note_off_c, 2, 67, 0
4, 25560, Note_on_c, 2, 67, 51
4, 25640, Note_off_c, 2, 67, 0
4, 25680, Note_on_c, 2, 67, 52
4, 25760, Note_off_c, 2, 67, 0
4, 25800, Note_on_c, 2, 67, 52
4, 25880, Note_off_c, 2, 67, 0
4, 25920, Note_on_c, 2, 67, 53
4, 26040, Note_off_c, 2, 67, 0
4, 26040, Note_on_c, 2, 62, 53
4, 26160, Note_off_c, 2, 62, 0
4, 26160, Note_on_c, 2, 59, 53
4, 26280, Note_off_c, 2, 59, 0
4, 26280, Note_on_c, 2, 55, 54
4, 26400, Note_off_c, 2, 55, 0
4, 26400, Note_on_c, 2, 50, 54
4, 26520, Note_off_c, 2, 50, 0
4, 26520, Note_on_c, 2, 47, 55
4, 26600, Note_off_c, 2, 47, 0
4, 26640, Note_on_c, 2, 47, 55
4, 26720, Note_off_c, 2, 47, 0
4, 26760, Note_on_c, 2, 47, 56
4, 26840, Note_off_c, 2, 47, 0
4, 26880, Note_on_c, 2, 47, 56
4, 26960, Note_off_c, 2, 47, 0
4, 27000, Note_on_c, 2, 47, 57
4, 27080, Note_off_c, 2, 47, 0
4, 27120, Note_on_c, 2, 47, 57
4, 27200, Note_off_c, 2, 47, 0
4, 27240, Note_on_c, 2, 47, 57
4, 27320, Note_off_c, 2, 47, 0
4, 27360, Note_on_c, 2, 46, 58
4, 27480, Note_off_c, 2, 46, 0
4, 27480, Note_on_c, 2, 49, 58
4, 27600, Note_off_c, 2, 49, 0
4, 27600, Note_on_c, 2, 52, 59
4, 27720, Note_off_c, 2, 52, 0
4, 27720, Note_on_c, 2, 55, 59
4, 27840, Note_off_c, 2, 55, 0
4, 27840, Note_on_c, 2, 58, 60
4, 27960, Note_off_c, 2, 58, 0
4, 27960, Note_on_c, 2, 61, 60
4, 28080, Note_off_c, 2, 61, 0
4, 28080, Note_on_c, 2, 64, 60
4, 28160, Note_off_c, 2, 64, 0
4, 28200, Note_on_c, 2, 64, 61
4, 28280, Note_off_c, 2, 64, 0
4, 28320, Note_on_c, 2, 64, 61
4, 28400, Note_off_c, 2, 64, 0
4, 28440, Note_on_c, 2, 64, 62
4, 28520, Note_off_c, 2, 64, 0
4, 28560, Note_on_c, 2, 64, 62
4, 28640, Note_off_c, 2, 64, 0
4, 28680, Note_on_c, 2, 64, 63
4, 28760, Note_off_c, 2, 64, 0
4, 28800, Note_on_c, 2, 65, 63
4, 28920, Note_off_c, 2, 65, 0
4, 28920, Note_on_c, 2, 60, 63
4, 29040, Note_off_c, 2, 60, 0
4, 29040, Note_on_c, 2, 57, 64
4, 29160, Note_off_c, 2, 57, 0
4, 29160, Note_on_c, 2, 53, 64
4, 29280, Note_off_c, 2, 53, 0
4, 29280, Note_on_c, 2, 48, 65
4, 29400, Note_off_c, 2, 48, 0
4, 29400, Note_on_c, 2, 45, 65
4, 29480, Note_off_c, 2, 45, 0
4, 29520, Note_on_c, 2, 45, 66
4, 29600, Note_off_c, 2, 45, 0
4, 29640, Note_on_c, 2, 45, 66
4, 29720, Note_off_c, 2, 45, 0
4, 29760, Note_on_c, 2, 45, 66
4, 29840, Note_off_c, 2, 45, 0
4, 29880, Note_on_c, 2, 45, 67
4, 29960, Note_off_c, 2, 45, 0
4, 30000, Note_on_c, 2, 45, 67
4, 30080, Note_off_c, 2, 45, 0
4, 30120, Note_on_c, 2, 45, 68
4, 30200, Note_off_c, 2, 45, 0
4, 30240, Note_on_c, 2, 44, 68
4, 30360, Note_off_c, 2, 44, 0
4, 30360, Note_on_c, 2, 48, 69
4, 30480, Note_off_c, 2, 48, 0
4, 30480, Note_on_c, 2, 51, 69
4, 30600, Note_off_c, 2, 51, 0
4, 30600, Note_on_c, 2, 56, 69
4, 30720, Note_off_c, 2, 56, 0
4, 30720, Note_on_c, 2, 60, 70
4, 30840, Note_off_c, 2, 60, 0
4, 30840, Note_on_c, 2, 63, 70
4, 30960, Note_off_c, 2, 63, 0
4, 30960, Note_on_c, 2, 66, 71
4, 31040, Note_off_c, 2, 66, 0
4, 31080, Note_on_c, 2, 66, 71
4, 31160, Note_off_c, 2, 66, 0
4, 31200, Note_on_c, 2, 66, 72
4, 31280, Note_off_c, 2, 66, 0
4, 31320, Note_on_c, 2, 66, 72
4, 31400, Note_off_c, 2, 66, 0
4, 31440, Note_on_c, 2, 66, 72
4, 31520, Note_off_c, 2, 66, 0
4, 31560, Note_on_c, 2, 66, 73
4, 31640, Note_off_c, 2, 66, 0
4, 31680, Note_on_c, 2, 67, 74
4, 31800, Note_off_c, 2, 67, 0
4, 31800, Note_on_c, 2, 62, 76
4, 31920, Note_off_c, 2, 62, 0
4, 31920, Note_on_c, 2, 59, 78
4, 32040, Note_off_c, 2, 59, 0
4, 32040, Note_on_c, 2, 55, 80
4, 32160, Note_off_c, 2, 55, 0
4, 32160, Note_on_c, 2, 56, 81
4, 32280, Note_off_c, 2, 56, 0
4, 32280, Note_on_c, 2, 60, 80
4, 32400, Note_off_c, 2, 60, 0
4, 32400, Note_on_c, 2, 65, 79
4, 32520, Note_off_c, 2, 65, 0
4, 32520, Note_on_c, 2, 68, 77
4, 32640, Note_off_c, 2, 68, 0
4, 32640, Note_on_c, 2, 65, 76
4, 32760, Note_off_c, 2, 65, 0
4, 32760, Note_on_c, 2, 60, 75
4, 32880, Note_off_c, 2, 60, 0
4, 32880, Note_on_c, 2, 56, 74
4, 33000, Note_off_c, 2, 56, 0
4, 33000, Note_on_c, 2, 53, 72
4, 33120, Note_off_c, 2, 53, 0
4, 33120, Note_on_c, 2, 48, 71
4, 33240, Note_off_c, 2, 48, 0
4, 33240, Note_on_c, 2, 44, 70
4, 33360, Note_off_c, 2, 44, 0
4, 33360, Note_on_c, 2, 41, 69
4, 33480, Note_off_c, 2, 41, 0
4, 33480, Note_on_c, 2, 36, 65
4, 33600, Note_off_c, 2, 36, 0
4, 33600, Note_on_c, 2, 32, 65
4, 33720, Note_off_c, 2, 32, 0
4, 33720, Note_on_c, 2, 36, 64
4, 33840, Note_off_c, 2, 36, 0
4, 33840, Note_on_c, 2, 41, 63
4, 33960, Note_off_c, 2, 41, 0
4, 33960, Note_on_c, 2, 44, 63
4, 34080, Note_off_c, 2, 44, 0
4, 34080, Note_on_c, 2, 43, 62
4, 34200, Note_off_c, 2, 43, 0
4, 34200, Note_on_c, 2, 38, 62
4, 34320, Note_off_c, 2, 38, 0
4, 34320, Note_on_c, 2, 35, 61
4, 34440, Note_off_c, 2, 35, 0
4, 34440, Note_on_c, 2, 31, 60
4, 34560, Note_off_c, 2, 31, 0
4, 34560, Note_on_c, 2, 36, 60
4, 34680, Note_off_c, 2, 36, 0
4, 34680, Note_on_c, 2, 39, 59
4, 34800, Note_off_c, 2, 39, 0
4, 34800, Note_on_c, 2, 43, 58
4, 34920, Note_off_c, 2, 43, 0
4, 34920, Note_on_c, 2, 48, 58
4, 35040, Note_off_c, 2, 48, 0
4, 35040, Note_on_c, 2, 43, 57
4, 35160, Note_off_c, 2, 43, 0
4, 35160, Note_on_c, 2, 48, 56
4, 35280, Note_off_c, 2, 48, 0
4, 35280, Note_on_c, 2, 51, 56
4, 35400, Note_off_c, 2, 51, 0
4, 35400, Note_on_c, 2, 55, 55
4, 35520, Note_off_c, 2, 55, 0
4, 35520, Note_on_c, 2, 51, 54
4, 35640, Note_off_c, 2, 51, 0
4, 35640, Note_on_c, 2, 48, 54
4, 35760, Note_off_c, 2, 48, 0
4, 35760, Note_on_c, 2, 43, 53
4, 35880, Note_off_c, 2, 43, 0
4, 35880, Note_on_c, 2, 39, 52
4, 36000, Note_off_c, 2, 39, 0
4, 36000, Note_on_c, 2, 36, 54
4, 36120, Note_off_c, 2, 36, 0
4, 36120, Note_on_c, 2, 39, 54
4, 36240, Note_off_c, 2, 39, 0
4, 36240, Note_on_c, 2, 43, 55
4, 36360, Note_off_c, 2, 43, 0
4, 36360, Note_on_c, 2, 48, 55
4, 36480, Note_off_c, 2, 48, 0
4, 36480, Note_on_c, 2, 51, 56
4, 36600, Note_off_c, 2, 51, 0
4, 36600, Note_on_c, 2, 55, 56
4, 36720, Note_off_c, 2, 55, 0
4, 36720, Note_on_c, 2, 60, 56
4, 36800, Note_off_c, 2, 60, 0
4, 36840, Note_on_c, 2, 60, 57
4, 36920, Note_off_c, 2, 60, 0
4, 36960, Note_on_c, 2, 60, 57
4, 37040, Note_off_c, 2, 60, 0
4, 37080, Note_on_c, 2, 60, 58
4, 37160, Note_off_c, 2, 60, 0
4, 37200, Note_on_c, 2, 60, 58
4, 37280, Note_off_c, 2, 60, 0
4, 37320, Note_on_c, 2, 60, 59
4, 37400, Note_off_c, 2, 60, 0
4, 37440, Note_on_c, 2, 59, 59
4, 37560, Note_off_c, 2, 59, 0
4, 37560, Note_on_c, 2, 55, 59
4, 37680, Note_off_c, 2, 55, 0
4, 37680, Note_on_c, 2, 50, 60
4, 37800, Note_off_c, 2, 50, 0
4, 37800, Note_on_c, 2, 47, 60
4, 37920, Note_off_c, 2, 47, 0
4, 37920, Note_on_c, 2, 43, 61
4, 38040, Note_off_c, 2, 43, 0
4, 38040, Note_on_c, 2, 38, 61
4, 38160, Note_off_c, 2, 38, 0
4, 38160, Note_on_c, 2, 35, 62
4, 38240, Note_off_c, 2, 35, 0
4, 38280, Note_on_c, 2, 35, 62
4, 38360, Note_off_c, 2, 35, 0
4, 38400, Note_on_c, 2, 35, 62
4, 38480, Note_off_c, 2, 35, 0
4, 38520, Note_on_c, 2, 35, 63
4, 38600, Note_off_c, 2, 35, 0
4, 38640, Note_on_c, 2, 35, 63
4, 38720, Note_off_c, 2, 35, 0
4, 38760, Note_on_c, 2, 35, 64
4, 38840, Note_off_c, 2, 35, 0
4, 38880, Note_on_c, 2, 34, 64
4, 39000, Note_off_c, 2, 34, 0
4, 39000, Note_on_c, 2, 37, 64
4, 39120, Note_off_c, 2, 37, 0
4, 39120, Note_on_c, 2, 42, 65
4, 39240, Note_off_c, 2, 42, 0
4, 39240, Note_on_c, 2, 46, 65
4, 39360, Note_off_c, 2, 46, 0
4, 39360, Note_on_c, 2, 49, 66
4, 39480, Note_off_c, 2, 49, 0
4, 39480, Note_on_c, 2, 54, 66
4, 39600, Note_off_c, 2, 54, 0
4, 39600, Note_on_c, 2, 58, 67
4, 39680, Note_off_c, 2, 58, 0
4, 39720, Note_on_c, 2, 58, 67
4, 39800, Note_off_c, 2, 58, 0
4, 39840, Note_on_c, 2, 58, 67
4, 39920, Note_off_c, 2, 58, 0
4, 39960, Note_on_c, 2, 58, 68
4, 40040, Note_off_c, 2, 58, 0
4, 40080, Note_on_c, 2, 58, 68
4, 40160, Note_off_c, 2, 58, 0
4, 40200, Note_on_c, 2, 58, 69
4, 40280, Note_off_c, 2, 58, 0
4, 40320, Note_on_c, 2, 57, 69
4, 40440, Note_off_c, 2, 57, 0
4, 40440, Note_on_c, 2, 53, 70
4, 40560, Note_off_c, 2, 53, 0
4, 40560, Note_on_c, 2, 48, 70
4, 40680, Note_off_c, 2, 48, 0
4, 40680, Note_on_c, 2, 45, 70
4, 40800, Note_off_c, 2, 45, 0
4, 40800, Note_on_c, 2, 41, 71
4, 40920, Note_off_c, 2, 41, 0
4, 40920, Note_on_c, 2, 36, 71
4, 41040, Note_off_c, 2, 36, 0
4, 41040, Note_on_c, 2, 33, 72
4, 41120, Note_off_c, 2, 33, 0
4, 41160, Note_on_c, 2, 33, 72
4, 41240, Note_off_c, 2, 33, 0
4, 41280, Note_on_c, 2, 33, 73
4, 41360, Note_off_c, 2, 33, 0
4, 41400, Note_on_c, 2, 33, 73
4, 41480, Note_off_c, 2, 33, 0
4, 41520, Note_on_c, 2, 33, 73
4, 41600, Note_off_c, 2, 33, 0
4, 41640, Note_on_c, 2, 33, 74
4, 41720, Note_off_c, 2, 33, 0
4, 41760, Note_on_c, 2, 32, 74
4, 41880, Note_off_c, 2, 32, 0
4, 41880, Note_on_c, 2, 36, 75
4, 42000, Note_off_c, 2, 36, 0
4, 42000, Note_on_c, 2, 41, 75
4, 42120, Note_off_c, 2, 41, 0
4, 42120, Note_on_c, 2, 44, 76
4, 42240, Note_off_c, 2, 44, 0
4, 42240, Note_on_c, 2, 48, 76
4, 42360, Note_off_c, 2, 48, 0
4, 42360, Note_on_c, 2, 53, 76
4, 42480, Note_off_c, 2, 53, 0
4, 42480, Note_on_c, 2, 56, 77
4, 42560, Note_off_c, 2, 56, 0
4, 42600, Note_on_c, 2, 56, 77
4, 42680, Note_off_c, 2, 56, 0
4, 42720, Note_on_c, 2, 56, 78
4, 42800, Note_off_c, 2, 56, 0
4, 42840, Note_on_c, 2, 56, 78
4, 42920, Note_off_c, 2, 56, 0
4, 42960, Note_on_c, 2, 56, 79
4, 43040, Note_off_c, 2, 56, 0
4, 43080, Note_on_c, 2, 56, 79
4, 43160, Note_off_c, 2, 56, 0
4, 43200, Note_on_c, 2, 55, 79
4, 43320, Note_off_c, 2, 55, 0
4, 43320, Note_on_c, 2, 50, 81
4, 43440, Note_off_c, 2, 50, 0
4, 43440, Note_on_c, 2, 47, 83
4, 43560, Note_off_c, 2, 47, 0
4, 43560, Note_on_c, 2, 43, 85
4, 43680, Note_off_c, 2, 43, 0
4, 43680, Note_on_c, 2, 53, 87
4, 43800, Note_off_c, 2, 53, 0
4, 43800, Note_on_c, 2, 50, 89
4, 43920, Note_off_c, 2, 50, 0
4, 43920, Note_on_c, 2, 47, 91
4, 44040, Note_off_c, 2, 47, 0
4, 44040, Note_on_c, 2, 44, 93
4, 44160, Note_off_c, 2, 44, 0
4, 44160, Note_on_c, 2, 41, 95
4, 44280, Note_off_c, 2, 41, 0
4, 44280, Note_on_c, 2, 38, 97
4, 44400, Note_off_c, 2, 38, 0
4, 44400, Note_on_c, 2, 35, 98
4, 44520, Note_off_c, 2, 35, 0
4, 44520, Note_on_c, 2, 32, 100
4, 44640, Control_c, 2, 64, 0
4, 44640, Note_off_c, 2, 32, 0
4, 44640, Note_on_c, 2, 29, 106
4, 44736, Note_on_c, 2, 32, 104
4, 44760, Note_off_c, 2, 29, 0
4, 44832, Note_on_c, 2, 36, 102
4, 44856, Note_off_c, 2, 32, 0
4, 44928, Note_on_c, 2, 38, 100
4, 44952, Note_off_c, 2, 36, 0
4, 45024, Note_on_c, 2, 41, 98
4, 45048, Note_off_c, 2, 38, 0
4, 45120, Note_on_c, 2, 44, 96
4, 45144, Note_off_c, 2, 41, 0
4, 45240, Note_off_c, 2, 44, 0
4, 45240, Note_on_c, 2, 41, 94
4, 45360, Note_off_c, 2, 41, 0
4, 45360, Note_on_c, 2, 38, 91
4, 45480, Note_off_c, 2, 38, 0
4, 45480, Note_on_c, 2, 35, 89
4, 45600, Note_off_c, 2, 35, 0
4, 45600, Note_on_c, 2, 31, 87
4, 45720, Note_off_c, 2, 31, 0
4, 45720, Note_on_c, 2, 35, 84
4, 45840, Note_off_c, 2, 35, 0
4, 45840, Note_on_c, 2, 38, 82
4, 45960, Note_off_c, 2, 38, 0
4, 45960, Note_on_c, 2, 43, 79
4, 46080, Control_c, 2, 64, 0
4, 46080, Note_off_c, 2, 43, 0
4, 46080, Note_on_c, 2, 36, 76
4, 46200, Note_off_c, 2, 36, 0
4, 46200, Note_on_c, 2, 39, 73
4, 46320, Note_off_c, 2, 39, 0
4, 46320, Note_on_c, 2, 43, 71
4, 46440, Note_off_c, 2, 43, 0
4, 46440, Note_on_c, 2, 48, 68
4, 46560, Note_off_c, 2, 48, 0
4, 46560, Note_on_c, 2, 51, 65
4, 46680, Note_off_c, 2, 51, 0
4, 46680, Note_on_c, 2, 48, 62
4, 46800, Note_off_c, 2, 48, 0
4, 46800, Note_on_c, 2, 43, 60
4, 46920, Note_off_c, 2, 43, 0
4, 46920, Note_on_c, 2, 39, 57
4, 47040, Note_off_c, 2, 39, 0
4, 47040, Note_on_c, 2, 36, 54
4, 47280, Control_c, 2, 64, 0
4, 47280, Note_off_c, 2, 36, 0
4, 47520, Note_on_c, 2, 36, 40
4, 47675, Note_off_c, 2, 36, 0
4, 48000, Note_on_c, 2, 36, 41
4, 48155, Note_off_c, 2, 36, 0
4, 48480, Note_on_c, 2, 36, 43
4, 48635, Note_off_c, 2, 36, 0
4, 48960, Note_on_c, 2, 35, 44
4, 49115, Note_off_c, 2, 35, 0
4, 50400, Note_on_c, 2, 34, 48
4, 50555, Note_off_c, 2, 34, 0
4, 50880, Note_on_c, 2, 34, 50
4, 51035, Note_off_c, 2, 34, 0
4, 51360, Note_on_c, 2, 34, 51
4, 51515, Note_off_c, 2, 34, 0
4, 51840, Note_on_c, 2, 33, 53
4, 51995, Note_off_c, 2, 33, 0
4, 53280, Note_on_c, 2, 32, 57
4, 53435, Note_off_c, 2, 32, 0
4, 53760, Note_on_c, 2, 32, 58
4, 53915, Note_off_c, 2, 32, 0
4, 54240, Note_on_c, 2, 32, 60
4, 54395, Note_off_c, 2, 32, 0
4, 54720, Note_on_c, 2, 31, 61
4, 54875, Note_off_c, 2, 31, 0
4, 55200, Note_on_c, 2, 29, 72
4, 55355, Note_off_c, 2, 29, 0
4, 57000, Note_on_c, 2, 53, 58
4, 57080, Note_off_c, 2, 53, 0
4, 57120, Note_on_c, 2, 55, 57
4, 57275, Note_off_c, 2, 55, 0
4, 57600, Note_on_c, 2, 48, 53
4, 57755, Note_off_c, 2, 48, 0
4, 58080, Note_on_c, 2, 43, 49
4, 58235, Note_off_c, 2, 43, 0
4, 58560, Note_on_c, 2, 36, 46
4, 58715, Note_off_c, 2, 36, 0
4, 59040, Note_on_c, 2, 48, 54
4, 59160, Note_on_c, 2, 60, 56
4, 59160, Note_on_c, 2, 55, 56
4, 59160, Note_on_c, 2, 63, 56
4, 59240, Note_off_c, 2, 63, 0
4, 59240, Note_off_c, 2, 55, 0
4, 59240, Note_off_c, 2, 60, 0
4, 59280, Note_on_c, 2, 55, 58
4, 59280, Note_on_c, 2, 60, 58
4, 59280, Note_on_c, 2, 63, 58
4, 59360, Note_off_c, 2, 63, 0
4, 59360, Note_off_c, 2, 60, 0
4, 59360, Note_off_c, 2, 55, 0
4, 59400, Note_on_c, 2, 60, 60
4, 59400, Note_on_c, 2, 55, 60
4, 59400, Note_on_c, 2, 63, 60
4, 59480, Note_off_c, 2, 63, 0
4, 59480, Note_off_c, 2, 55, 0
4, 59480, Note_off_c, 2, 60, 0
4, 59520, Note_on_c, 2, 55, 64
4, 59520, Note_on_c, 2, 60, 64
4, 59520, Note_on_c, 2, 63, 64
4, 60360, Note_off_c, 2, 55, 0
4, 60367, Note_off_c, 2, 63, 0
4, 60367, Note_off_c, 2, 60, 0
4, 60367, Note_off_c, 2, 48, 0
4, 60480, Note_on_c, 2, 43, 58
4, 60600, Note_on_c, 2, 55, 60
4, 60600, Note_on_c, 2, 59, 60
4, 60600, Note_on_c, 2, 62, 60
4, 60680, Note_off_c, 2, 62, 0
4, 60680, Note_off_c, 2, 59, 0
4, 60680, Note_off_c, 2, 55, 0
4, 60720, Note_on_c, 2, 59, 63
4, 60720, Note_on_c, 2, 55, 63
4, 60720, Note_on_c, 2, 62, 63
4, 60800, Note_off_c, 2, 62, 0
4, 60800, Note_off_c, 2, 55, 0
4, 60800, Note_off_c, 2, 59, 0
4, 60840, Note_on_c, 2, 55, 65
4, 60840, Note_on_c, 2, 59, 65
4, 60840, Note_on_c, 2, 62, 65
4, 60920, Note_off_c, 2, 62, 0
4, 60920, Note_off_c, 2, 59, 0
4, 60920, Note_off_c, 2, 55, 0
4, 60960, Note_on_c, 2, 55, 68
4, 60960, Note_on_c, 2, 59, 68
4, 60960, Note_on_c, 2, 62, 68
4, 61800, Note_off_c, 2, 55, 0
4, 61807, Note_off_c, 2, 62, 0
4, 61807, Note_off_c, 2, 59, 0
4, 61807, Note_off_c, 2, 43, 0
4, 61920, Note_on_c, 2, 48, 62
4, 62040, Note_on_c, 2, 60, 65
4, 62040, Note_on_c, 2, 55, 65
4, 62040, Note_on_c, 2, 58, 65
4, 62040, Note_on_c, 2, 64, 65
4, 62120, Note_off_c, 2, 64, 0
4, 62120, Note_off_c, 2, 58, 0
4, 62120, Note_off_c, 2, 55, 0
4, 62120, Note_off_c, 2, 60, 0
4, 62160, Note_on_c, 2, 55, 67
4, 62160, Note_on_c, 2, 60, 67
4, 62160, Note_on_c, 2, 64, 67
4, 62160, Note_on_c, 2, 58, 67
4, 62240, Note_off_c, 2, 58, 0
4, 62240, Note_off_c, 2, 64, 0
4, 62240, Note_off_c, 2, 60, 0
4, 62240, Note_off_c, 2, 55, 0
4, 62280, Note_on_c, 2, 55, 69
4, 62280, Note_on_c, 2, 60, 69
4, 62280, Note_on_c, 2, 58, 69
4, 62280, Note_on_c, 2, 64, 69
4, 62360, Note_off_c, 2, 64, 0
4, 62360, Note_off_c, 2, 58, 0
4, 62360, Note_off_c, 2, 60, 0
4, 62360, Note_off_c, 2, 55, 0
4, 62400, Note_on_c, 2, 55, 72
4, 62400, Note_on_c, 2, 58, 72
4, 62400, Note_on_c, 2, 60, 72
4, 62400, Note_on_c, 2, 64, 72
4, 63232, Note_off_c, 2, 55, 0
4, 63240, Note_off_c, 2, 64, 0
4, 63240, Note_off_c, 2, 58, 0
4, 63240, Note_off_c, 2, 48, 0
4, 63247, Note_off_c, 2, 60, 0
4, 63360, Note_on_c, 2, 53, 66
4, 63480, Note_on_c, 2, 65, 69
4, 63480, Note_on_c, 2, 60, 69
4, 63480, Note_on_c, 2, 57, 69
4, 63560, Note_off_c, 2, 57, 0
4, 63560, Note_off_c, 2, 60, 0
4, 63560, Note_off_c, 2, 65, 0
4, 63600, Note_on_c, 2, 57, 71
4, 63600, Note_on_c, 2, 60, 71
4, 63600, Note_on_c, 2, 65, 71
4, 63680, Note_off_c, 2, 65, 0
4, 63680, Note_off_c, 2, 60, 0
4, 63680, Note_off_c, 2, 57, 0
4, 63720, Note_on_c, 2, 57, 74
4, 63720, Note_on_c, 2, 60, 74
4, 63720, Note_on_c, 2, 65, 74
4, 63800, Note_off_c, 2, 65, 0
4, 63800, Note_off_c, 2, 60, 0
4, 63800, Note_off_c, 2, 57, 0
4, 63840, Note_on_c, 2, 57, 78
4, 63840, Note_on_c, 2, 60, 78
4, 63840, Note_on_c, 2, 65, 78
4, 64680, Note_off_c, 2, 53, 0
4, 64687, Note_off_c, 2, 65, 0
4, 64687, Note_off_c, 2, 60, 0
4, 64687, Note_off_c, 2, 57, 0
4, 64800, Note_on_c, 2, 50, 67
4, 64920, Note_on_c, 2, 60, 71
4, 64920, Note_on_c, 2, 57, 71
4, 64920, Note_on_c, 2, 62, 71
4, 64920, Note_on_c, 2, 66, 71
4, 65000, Note_off_c, 2, 66, 0
4, 65000, Note_off_c, 2, 62, 0
4, 65000, Note_off_c, 2, 57, 0
4, 65000, Note_off_c, 2, 60, 0
4, 65040, Note_on_c, 2, 60, 75
4, 65040, Note_on_c, 2, 62, 75
4, 65040, Note_on_c, 2, 57, 75
4, 65040, Note_on_c, 2, 66, 75
4, 65120, Note_off_c, 2, 66, 0
4, 65120, Note_off_c, 2, 57, 0
4, 65120, Note_off_c, 2, 62, 0
4, 65120, Note_off_c, 2, 60, 0
4, 65160, Note_on_c, 2, 60, 78
4, 65160, Note_on_c, 2, 62, 78
4, 65160, Note_on_c, 2, 57, 78
4, 65160, Note_on_c, 2, 66, 78
4, 65240, Note_off_c, 2, 66, 0
4, 65240, Note_off_c, 2, 57, 0
4, 65240, Note_off_c, 2, 62, 0
4, 65240, Note_off_c, 2, 60, 0
4, 65280, Note_on_c, 2, 57, 84
4, 65280, Note_on_c, 2, 60, 84
4, 65280, Note_on_c, 2, 62, 84
4, 65280, Note_on_c, 2, 66, 84
4, 65880, Note_off_c, 2, 57, 0
4, 65887, Note_off_c, 2, 66, 0
4, 65887, Note_off_c, 2, 60, 0
4, 65895, Note_off_c, 2, 62, 0
4, 65982, Note_off_c, 2, 50, 0
4, 66000, Note_on_c, 2, 62, 71
4, 66000, Note_on_c, 2, 66, 71
4, 66240, Note_off_c, 2, 66, 0
4, 66240, Note_off_c, 2, 62, 0
4, 66240, Note_on_c, 2, 67, 75
4, 66240, Note_on_c, 2, 63, 75
4, 66430, Note_off_c, 2, 63, 0
4, 66430, Note_off_c, 2, 67, 0
4, 66480, Note_on_c, 2, 64, 71
4, 66480, Note_on_c, 2, 67, 71
4, 66865, Note_off_c, 2, 67, 0
4, 66865, Note_off_c, 2, 64, 0
4, 66960, Note_on_c, 2, 65, 79
4, 66960, Note_on_c, 2, 68, 79
4, 67150, Note_off_c, 2, 68, 0
4, 67150, Note_off_c, 2, 65, 0
4, 67200, Note_on_c, 2, 67, 70
4, 67200, Note_on_c, 2, 70, 70
4, 67390, Note_off_c, 2, 70, 0
4, 67390, Note_off_c, 2, 67, 0
4, 67440, Note_on_c, 2, 68, 81
4, 67680, Note_off_c, 2, 68, 0
4, 67680, Note_on_c, 2, 64, 70
4, 67920, Note_off_c, 2, 64, 0
4, 67920, Note_on_c, 2, 65, 67
4, 68075, Note_off_c, 2, 65, 0
4, 68400, Note_on_c, 2, 56, 77
4, 68640, Note_off_c, 2, 56, 0
4, 68640, Note_on_c, 2, 54, 63
4, 68880, Note_off_c, 2, 54, 0
4, 68880, Note_on_c, 2, 55, 59
4, 69035, Note_off_c, 2, 55, 0
4, 69360, Note_on_c, 2, 44, 67
4, 69600, Note_off_c, 2, 44, 0
4, 69600, Note_on_c, 2, 42, 56
4, 69840, Note_off_c, 2, 42, 0
4, 69840, Note_on_c, 2, 43, 52
4, 69995, Note_off_c, 2, 43, 0
4, 70080, Note_on_c, 2, 36, 48
4, 70235, Note_off_c, 2, 36, 0
4, 70560, Note_on_c, 2, 48, 95
4, 70560, Note_on_c, 2, 36, 95
4, 70560, Note_on_c, 2, 43, 95
4, 70560, Note_on_c, 2, 39, 95
4, 70665, Note_off_c, 2, 39, 0
4, 70665, Note_off_c, 2, 43, 0
4, 70665, Note_off_c, 2, 36, 0
4, 70665, Note_off_c, 2, 48, 0
4, 70720, Note_on_c, 2, 48, 95
4, 70720, Note_on_c, 2, 43, 95
4, 70720, Note_on_c, 2, 36, 95
4, 70720, Note_on_c, 2, 39, 95
4, 70825, Note_off_c, 2, 39, 0
4, 70825, Note_off_c, 2, 36, 0
4, 70825, Note_off_c, 2, 43, 0
4, 70825, Note_off_c, 2, 48, 0
4, 70880, Note_on_c, 2, 43, 95
4, 70880, Note_on_c, 2, 48, 95
4, 70880, Note_on_c, 2, 36, 95
4, 70880, Note_on_c, 2, 39, 95
4, 70985, Note_off_c, 2, 39, 0
4, 70985, Note_off_c, 2, 36, 0
4, 70985, Note_off_c, 2, 48, 0
4, 70985, Note_off_c, 2, 43, 0
4, 71040, Note_on_c, 2, 43, 95
4, 71040, Note_on_c, 2, 36, 95
4, 71040, Note_on_c, 2, 48, 95
4, 71040, Note_on_c, 2, 39, 95
4, 71145, Note_off_c, 2, 39, 0
4, 71145, Note_off_c, 2, 48, 0
4, 71145, Note_off_c, 2, 36, 0
4, 71145, Note_off_c, 2, 43, 0
4, 71200, Control_c, 2, 64, 0
4, 71200, Note_on_c, 2, 55, 79
4, 71305, Note_off_c, 2, 55, 0
4, 71360, Note_on_c, 2, 51, 79
4, 71465, Note_off_c, 2, 51, 0
4, 71520, Note_on_c, 2, 48, 95
4, 71625, Note_off_c, 2, 48, 0
4, 71680, Note_on_c, 2, 51, 79
4, 71785, Note_off_c, 2, 51, 0
4, 71840, Note_on_c, 2, 48, 79
4, 71945, Note_off_c, 2, 48, 0
4, 72000, Note_on_c, 2, 47, 95
4, 72105, Note_off_c, 2, 47, 0
4, 72160, Note_on_c, 2, 59, 79
4, 72265, Note_off_c, 2, 59, 0
4, 72320, Note_on_c, 2, 55, 79
4, 72425, Note_off_c, 2, 55, 0
4, 72480, Note_on_c, 2, 50, 95
4, 72585, Note_off_c, 2, 50, 0
4, 72640, Note_on_c, 2, 55, 79
4, 72745, Note_off_c, 2, 55, 0
4, 72800, Note_on_c, 2, 50, 79
4, 72905, Note_off_c, 2, 50, 0
4, 72960, Note_on_c, 2, 59, 95
4, 73065, Note_off_c, 2, 59, 0
4, 73120, Note_on_c, 2, 55, 75
4, 73225, Note_off_c, 2, 55, 0
4, 73280, Note_on_c, 2, 59, 74
4, 73385, Note_off_c, 2, 59, 0
4, 73440, Note_on_c, 2, 58, 72
4, 73545, Note_off_c, 2, 58, 0
4, 73600, Note_on_c, 2, 55, 72
4, 73705, Note_off_c, 2, 55, 0
4, 73760, Note_on_c, 2, 58, 73
4, 73865, Note_off_c, 2, 58, 0
4, 73920, Note_on_c, 2, 55, 74
4, 74025, Note_off_c, 2, 55, 0
4, 74080, Note_on_c, 2, 52, 74
4, 74185, Note_off_c, 2, 52, 0
4, 74240, Note_on_c, 2, 55, 75
4, 74345, Note_off_c, 2, 55, 0
4, 74400, Note_on_c, 2, 52, 76
4, 74505, Note_off_c, 2, 52, 0
4, 74560, Note_on_c, 2, 46, 76
4, 74665, Note_off_c, 2, 46, 0
4, 74720, Note_on_c, 2, 52, 77
4, 74825, Note_off_c, 2, 52, 0
4, 74880, Note_on_c, 2, 57, 78
4, 74985, Note_off_c, 2, 57, 0
4, 75040, Note_on_c, 2, 53, 76
4, 75145, Note_off_c, 2, 53, 0
4, 75200, Note_on_c, 2, 57, 74
4, 75305, Note_off_c, 2, 57, 0
4, 75360, Note_on_c, 2, 53, 73
4, 75465, Note_off_c, 2, 53, 0
4, 75520, Note_on_c, 2, 48, 71
4, 75625, Note_off_c, 2, 48, 0
4, 75680, Note_on_c, 2, 53, 70
4, 75785, Note_off_c, 2, 53, 0
4, 75840, Note_on_c, 2, 48, 68
4, 75945, Note_off_c, 2, 48, 0
4, 76000, Note_on_c, 2, 45, 67
4, 76105, Note_off_c, 2, 45, 0
4, 76160, Note_on_c, 2, 48, 65
4, 76265, Note_off_c, 2, 48, 0
4, 76320, Note_on_c, 2, 56, 64
4, 76425, Note_off_c, 2, 56, 0
4, 76480, Note_on_c, 2, 51, 65
4, 76585, Note_off_c, 2, 51, 0
4, 76640, Note_on_c, 2, 56, 66
4, 76745, Note_off_c, 2, 56, 0
4, 76800, Note_on_c, 2, 48, 68
4, 76905, Note_off_c, 2, 48, 0
4, 76960, Note_on_c, 2, 51, 69
4, 77065, Note_off_c, 2, 51, 0
4, 77120, Note_on_c, 2, 48, 71
4, 77225, Note_off_c, 2, 48, 0
4, 77280, Note_on_c, 2, 51, 72
4, 77385, Note_off_c, 2, 51, 0
4, 77440, Note_on_c, 2, 48, 73
4, 77545, Note_off_c, 2, 48, 0
4, 77600, Note_on_c, 2, 44, 75
4, 77705, Note_off_c, 2, 44, 0
4, 77760, Note_on_c, 2, 43, 76
4, 77865, Note_off_c, 2, 43, 0
4, 77920, Note_on_c, 2, 55, 78
4, 78025, Note_off_c, 2, 55, 0
4, 78080, Note_on_c, 2, 53, 79
4, 78185, Note_off_c, 2, 53, 0
4, 78240, Note_on_c, 2, 56, 80
4, 78345, Note_off_c, 2, 56, 0
4, 78400, Note_on_c, 2, 50, 82
4, 78505, Note_off_c, 2, 50, 0
4, 78560, Note_on_c, 2, 53, 83
4, 78665, Note_off_c, 2, 53, 0
4, 78720, Note_on_c, 2, 47, 85
4, 78825, Note_off_c, 2, 47, 0
4, 78880, Note_on_c, 2, 50, 86
4, 78985, Note_off_c, 2, 50, 0
4, 79040, Note_on_c, 2, 44, 87
4, 79145, Note_off_c, 2, 44, 0
4, 79200, Note_on_c, 2, 41, 88
4, 79305, Note_off_c, 2, 41, 0
4, 79360, Note_on_c, 2, 53, 86
4, 79465, Note_off_c, 2, 53, 0
4, 79520, Note_on_c, 2, 55, 83
4, 79625, Note_off_c, 2, 55, 0
4, 79680, Note_on_c, 2, 56, 81
4, 79785, Note_off_c, 2, 56, 0
4, 79840, Note_on_c, 2, 59, 78
4, 79945, Note_off_c, 2, 59, 0
4, 80000, Note_on_c, 2, 60, 75
4, 80105, Note_off_c, 2, 60, 0
4, 80160, Note_on_c, 2, 53, 73
4, 80265, Note_off_c, 2, 53, 0
4, 80320, Note_on_c, 2, 56, 70
4, 80425, Note_off_c, 2, 56, 0
4, 80480, Note_on_c, 2, 55, 67
4, 80585, Note_off_c, 2, 55, 0
4, 80640, Note_on_c, 2, 48, 64
4, 80745, Note_off_c, 2, 48, 0
4, 80800, Note_on_c, 2, 51, 61
4, 80905, Note_off_c, 2, 51, 0
4, 80960, Note_on_c, 2, 47, 57
4, 81065, Note_off_c, 2, 47, 0
4, 81120, Note_on_c, 2, 48, 54
4, 81225, Note_off_c, 2, 48, 0
4, 81280, Note_on_c, 2, 39, 50
4, 81385, Note_off_c, 2, 39, 0
4, 81440, Note_on_c, 2, 43, 47
4, 81545, Note_off_c, 2, 43, 0
4, 81600, Note_on_c, 2, 36, 44
4, 81817, Note_off_c, 2, 36, 0
4, 82200, Note_on_c, 2, 48, 43
4, 82200, Note_on_c, 2, 51, 43
4, 82320, Note_off_c, 2, 51, 0
4, 82320, Note_off_c, 2, 48, 0
4, 82320, Note_on_c, 2, 43, 42
4, 82320, Note_on_c, 2, 55, 42
4, 82440, Note_off_c, 2, 55, 0
4, 82440, Note_off_c, 2, 43, 0
4, 82440, Note_on_c, 2, 48, 42
4, 82440, Note_on_c, 2, 51, 42
4, 82560, Note_off_c, 2, 51, 0
4, 82560, Note_off_c, 2, 48, 0
4, 82560, Note_on_c, 2, 55, 41
4, 82560, Note_on_c, 2, 43, 41
4, 82680, Note_off_c, 2, 43, 0
4, 82680, Note_off_c, 2, 55, 0
4, 82680, Note_on_c, 2, 48, 40
4, 82680, Note_on_c, 2, 51, 40
4, 82800, Note_off_c, 2, 51, 0
4, 82800, Note_off_c, 2, 48, 0
4, 82800, Note_on_c, 2, 55, 39
4, 82800, Note_on_c, 2, 43, 39
4, 82920, Note_off_c, 2, 43, 0
4, 82920, Note_off_c, 2, 55, 0
4, 82920, Note_on_c, 2, 48, 39
4, 82920, Note_on_c, 2, 51, 39
4, 83040, Note_off_c, 2, 51, 0
4, 83040, Note_off_c, 2, 48, 0
4, 83040, Note_on_c, 2, 55, 38
4, 83040, Note_on_c, 2, 43, 38
4, 83160, Note_off_c, 2, 43, 0
4, 83160, Note_off_c, 2, 55, 0
4, 83160, Note_on_c, 2, 48, 37
4, 83160, Note_on_c, 2, 51, 37
4, 83280, Note_off_c, 2, 51, 0
4, 83280, Note_off_c, 2, 48, 0
4, 83280, Note_on_c, 2, 43, 37
4, 83280, Note_on_c, 2, 55, 37
4, 83400, Note_off_c, 2, 55, 0
4, 83400, Note_off_c, 2, 43, 0
4, 83400, Note_on_c, 2, 51, 36
4, 83400, Note_on_c, 2, 48, 36
4, 83520, Note_off_c, 2, 48, 0
4, 83520, Note_off_c, 2, 51, 0
4, 83640, Note_on_c, 2, 50, 43
4, 83640, Note_on_c, 2, 47, 43
4, 83760, Note_off_c, 2, 47, 0
4, 83760, Note_off_c, 2, 50, 0
4, 83760, Note_on_c, 2, 55, 42
4, 83760, Note_on_c, 2, 43, 42
4, 83880, Note_off_c, 2, 43, 0
4, 83880, Note_off_c, 2, 55, 0
4, 83880, Note_on_c, 2, 47, 42
4, 83880, Note_on_c, 2, 50, 42
4, 84000, Note_off_c, 2, 50, 0
4, 84000, Note_off_c, 2, 47, 0
4, 84000, Note_on_c, 2, 55, 41
4, 84000, Note_on_c, 2, 43, 41
4, 84120, Note_off_c, 2, 43, 0
4, 84120, Note_off_c, 2, 55, 0
4, 84120, Note_on_c, 2, 50, 40
4, 84120, Note_on_c, 2, 47, 40
4, 84240, Note_off_c, 2, 47, 0
4, 84240, Note_off_c, 2, 50, 0
4, 84240, Note_on_c, 2, 55, 40
4, 84240, Note_on_c, 2, 43, 40
4, 84360, Note_off_c, 2, 43, 0
4, 84360, Note_off_c, 2, 55, 0
4, 84360, Note_on_c, 2, 50, 39
4, 84360, Note_on_c, 2, 47, 39
4, 84480, Note_off_c, 2, 47, 0
4, 84480, Note_off_c, 2, 50, 0
4, 84480, Note_on_c, 2, 55, 38
4, 84480, Note_on_c, 2, 43, 38
4, 84600, Note_off_c, 2, 43, 0
4, 84600, Note_off_c, 2, 55, 0
4, 84600, Note_on_c, 2, 50, 38
4, 84600, Note_on_c, 2, 47, 38
4, 84720, Note_off_c, 2, 47, 0
4, 84720, Note_off_c, 2, 50, 0
4, 84720, Note_on_c, 2, 43, 37
4, 84720, Note_on_c, 2, 55, 37
4, 84840, Note_off_c, 2, 55, 0
4, 84840, Note_off_c, 2, 43, 0
4, 84840, Note_on_c, 2, 50, 36
4, 84840, Note_on_c, 2, 48, 36
4, 84960, Note_off_c, 2, 48, 0
4, 84960, Note_off_c, 2, 50, 0
4, 85080, Note_on_c, 2, 48, 45
4, 85080, Note_on_c, 2, 46, 45
4, 85200, Note_off_c, 2, 46, 0
4, 85200, Note_off_c, 2, 48, 0
4, 85200, Note_on_c, 2, 52, 44
4, 85200, Note_on_c, 2, 43, 44
4, 85320, Note_off_c, 2, 43, 0
4, 85320, Note_off_c, 2, 52, 0
4, 85320, Note_on_c, 2, 48, 44
4, 85320, Note_on_c, 2, 46, 44
4, 85440, Note_off_c, 2, 46, 0
4, 85440, Note_off_c, 2, 48, 0
4, 85440, Note_on_c, 2, 52, 43
4, 85440, Note_on_c, 2, 43, 43
4, 85560, Note_off_c, 2, 43, 0
4, 85560, Note_off_c, 2, 52, 0
4, 85560, Note_on_c, 2, 48, 42
4, 85560, Note_on_c, 2, 46, 42
4, 85680, Note_off_c, 2, 46, 0
4, 85680, Note_off_c, 2, 48, 0
4, 85680, Note_on_c, 2, 52, 42
4, 85680, Note_on_c, 2, 43, 42
4, 85800, Note_off_c, 2, 43, 0
4, 85800, Note_off_c, 2, 52, 0
4, 85800, Note_on_c, 2, 48, 41
4, 85800, Note_on_c, 2, 46, 41
4, 85920, Note_off_c, 2, 46, 0
4, 85920, Note_off_c, 2, 48, 0
4, 85920, Note_on_c, 2, 52, 40
4, 85920, Note_on_c, 2, 43, 40
4, 86040, Note_off_c, 2, 43, 0
4, 86040, Note_off_c, 2, 52, 0
4, 86040, Note_on_c, 2, 48, 40
4, 86040, Note_on_c, 2, 46, 40
4, 86160, Note_off_c, 2, 46, 0
4, 86160, Note_off_c, 2, 48, 0
4, 86160, Note_on_c, 2, 52, 39
4, 86160, Note_on_c, 2, 43, 39
4, 86280, Note_off_c, 2, 43, 0
4, 86280, Note_off_c, 2, 52, 0
4, 86280, Note_on_c, 2, 48, 38
4, 86280, Note_on_c, 2, 46, 38
4, 86400, Note_off_c, 2, 46, 0
4, 86400, Note_off_c, 2, 48, 0
4, 86520, Note_on_c, 2, 45, 47
4, 86520, Note_on_c, 2, 48, 47
4, 86640, Note_off_c, 2, 48, 0
4, 86640, Note_off_c, 2, 45, 0
4, 86640, Note_on_c, 2, 53, 47
4, 86640, Note_on_c, 2, 41, 47
4, 86760, Note_off_c, 2, 41, 0
4, 86760, Note_off_c, 2, 53, 0
4, 86760, Note_on_c, 2, 48, 46
4, 86760, Note_on_c, 2, 45, 46
4, 86880, Note_off_c, 2, 45, 0
4, 86880, Note_off_c, 2, 48, 0
4, 86880, Note_on_c, 2, 53, 45
4, 86880, Note_on_c, 2, 41, 45
4, 87000, Note_off_c, 2, 41, 0
4, 87000, Note_off_c, 2, 53, 0
4, 87000, Note_on_c, 2, 45, 45
4, 87000, Note_on_c, 2, 48, 45
4, 87120, Note_off_c, 2, 48, 0
4, 87120, Note_off_c, 2, 45, 0
4, 87120, Note_on_c, 2, 53, 44
4, 87120, Note_on_c, 2, 41, 44
4, 87240, Note_off_c, 2, 41, 0
4, 87240, Note_off_c, 2, 53, 0
4, 87240, Note_on_c, 2, 48, 44
4, 87240, Note_on_c, 2, 45, 44
4, 87360, Note_off_c, 2, 45, 0
4, 87360, Note_off_c, 2, 48, 0
4, 87360, Note_on_c, 2, 53, 43
4, 87360, Note_on_c, 2, 41, 43
4, 87480, Note_off_c, 2, 41, 0
4, 87480, Note_off_c, 2, 53, 0
4, 87480, Note_on_c, 2, 48, 43
4, 87480, Note_on_c, 2, 45, 43
4, 87600, Note_off_c, 2, 45, 0
4, 87600, Note_off_c, 2, 48, 0
4, 87600, Note_on_c, 2, 53, 42
4, 87600, Note_on_c, 2, 41, 42
4, 87720, Note_off_c, 2, 41, 0
4, 87720, Note_off_c, 2, 53, 0
4, 87720, Note_on_c, 2, 48, 42
4, 87720, Note_on_c, 2, 45, 42
4, 87840, Note_off_c, 2, 45, 0
4, 87840, Note_off_c, 2, 48, 0
4, 87960, Note_on_c, 2, 50, 53
4, 87960, Note_on_c, 2, 48, 53
4, 88080, Note_off_c, 2, 48, 0
4, 88080, Note_off_c, 2, 50, 0
4, 88080, Note_on_c, 2, 54, 53
4, 88080, Note_on_c, 2, 45, 53
4, 88200, Note_off_c, 2, 45, 0
4, 88200, Note_off_c, 2, 54, 0
4, 88200, Note_on_c, 2, 48, 53
4, 88200, Note_on_c, 2, 50, 53
4, 88320, Note_off_c, 2, 50, 0
4, 88320, Note_off_c, 2, 48, 0
4, 88320, Note_on_c, 2, 54, 52
4, 88320, Note_on_c, 2, 45, 52
4, 88440, Note_off_c, 2, 45, 0
4, 88440, Note_off_c, 2, 54, 0
4, 88440, Note_on_c, 2, 48, 52
4, 88440, Note_on_c, 2, 50, 52
4, 88560, Note_off_c, 2, 50, 0
4, 88560, Note_off_c, 2, 48, 0
4, 88560, Note_on_c, 2, 54, 52
4, 88560, Note_on_c, 2, 45, 52
4, 88680, Note_off_c, 2, 45, 0
4, 88680, Note_off_c, 2, 54, 0
4, 88680, Note_on_c, 2, 48, 51
4, 88680, Note_on_c, 2, 50, 51
4, 88800, Note_off_c, 2, 50, 0
4, 88800, Note_off_c, 2, 48, 0
4, 88800, Note_on_c, 2, 54, 51
4, 88800, Note_on_c, 2, 45, 51
4, 88920, Note_off_c, 2, 45, 0
4, 88920, Note_off_c, 2, 54, 0
4, 88920, Note_on_c, 2, 48, 51
4, 88920, Note_on_c, 2, 50, 51
4, 89040, Note_off_c, 2, 50, 0
4, 89040, Note_off_c, 2, 48, 0
4, 89040, Note_on_c, 2, 45, 51
4, 89040, Note_on_c, 2, 54, 51
4, 89160, Note_off_c, 2, 54, 0
4, 89160, Note_off_c, 2, 45, 0
4, 89160, Note_on_c, 2, 48, 50
4, 89160, Note_on_c, 2, 50, 50
4, 89280, Note_off_c, 2, 50, 0
4, 89280, Note_off_c, 2, 48, 0
4, 89280, Note_on_c, 2, 43, 50
4, 89280, Note_on_c, 2, 55, 50
4, 89400, Note_off_c, 2, 55, 0
4, 89400, Note_off_c, 2, 43, 0
4, 89400, Note_on_c, 2, 47, 50
4, 89400, Note_on_c, 2, 50, 50
4, 89520, Note_off_c, 2, 50, 0
4, 89520, Note_off_c, 2, 47, 0
4, 89520, Note_on_c, 2, 41, 67
4, 89520, Note_on_c, 2, 53, 67
4, 89640, Note_off_c, 2, 53, 0
4, 89640, Note_off_c, 2, 41, 0
4, 89640, Note_on_c, 2, 47, 65
4, 89640, Note_on_c, 2, 50, 65
4, 89760, Note_off_c, 2, 50, 0
4, 89760, Note_off_c, 2, 47, 0
4, 89760, Note_on_c, 2, 53, 64
4, 89760, Note_on_c, 2, 41, 64
4, 89880, Note_off_c, 2, 41, 0
4, 89880, Note_off_c, 2, 53, 0
4, 89880, Note_on_c, 2, 50, 63
4, 89880, Note_on_c, 2, 47, 63
4, 90000, Note_off_c, 2, 47, 0
4, 90000, Note_off_c, 2, 50, 0
4, 90000, Note_on_c, 2, 43, 62
4, 90000, Note_on_c, 2, 55, 62
4, 90120, Note_off_c, 2, 55, 0
4, 90120, Note_off_c, 2, 43, 0
4, 90120, Note_on_c, 2, 47, 61
4, 90120, Note_on_c, 2, 50, 61
4, 90240, Note_off_c, 2, 50, 0
4, 90240, Note_off_c, 2, 47, 0
4, 90240, Note_on_c, 2, 56, 60
4, 90240, Note_on_c, 2, 44, 60
4, 90360, Note_off_c, 2, 44, 0
4, 90360, Note_off_c, 2, 56, 0
4, 90360, Note_on_c, 2, 47, 59
4, 90360, Note_on_c, 2, 50, 59
4, 90480, Note_off_c, 2, 50, 0
4, 90480, Note_off_c, 2, 47, 0
4, 90480, Note_on_c, 2, 43, 58
4, 90480, Note_on_c, 2, 55, 58
4, 90600, Note_off_c, 2, 55, 0
4, 90600, Note_off_c, 2, 43, 0
4, 90600, Note_on_c, 2, 47, 57
4, 90600, Note_on_c, 2, 50, 57
4, 90720, Note_off_c, 2, 50, 0
4, 90720, Note_off_c, 2, 47, 0
4, 90720, Note_on_c, 2, 53, 56
4, 90720, Note_on_c, 2, 41, 56
4, 90840, Note_off_c, 2, 41, 0
4, 90840, Note_off_c, 2, 53, 0
4, 90840, Note_on_c, 2, 50, 56
4, 90840, Note_on_c, 2, 47, 56
4, 90960, Note_off_c, 2, 47, 0
4, 90960, Note_off_c, 2, 50, 0
4, 90960, Note_on_c, 2, 55, 55
4, 90960, Note_on_c, 2, 43, 55
4, 91080, Note_off_c, 2, 43, 0
4, 91080, Note_off_c, 2, 55, 0
4, 91080, Note_on_c, 2, 47, 54
4, 91080, Note_on_c, 2, 50, 54
4, 91200, Note_off_c, 2, 50, 0
4, 91200, Note_off_c, 2, 47, 0
4, 91200, Note_on_c, 2, 56, 53
4, 91200, Note_on_c, 2, 44, 53
4, 91320, Note_off_c, 2, 44, 0
4, 91320, Note_off_c, 2, 56, 0
4, 91320, Note_on_c, 2, 50, 52
4, 91440, Note_off_c, 2, 50, 0
4, 91440, Note_on_c, 2, 53, 51
4, 91440, Note_on_c, 2, 41, 51
4, 91560, Note_off_c, 2, 41, 0
4, 91560, Note_off_c, 2, 53, 0
4, 91560, Note_on_c, 2, 50, 50
4, 91560, Note_on_c, 2, 47, 50
4, 91680, Note_off_c, 2, 47, 0
4, 91680, Note_off_c, 2, 50, 0
4, 91680, Note_on_c, 2, 55, 49
4, 91680, Note_on_c, 2, 43, 49
4, 91800, Note_off_c, 2, 43, 0
4, 91800, Note_off_c, 2, 55, 0
4, 91800, Note_on_c, 2, 50, 48
4, 91800, Note_on_c, 2, 47, 48
4, 91920, Note_off_c, 2, 47, 0
4, 91920, Note_off_c, 2, 50, 0
4, 91920, Note_on_c, 2, 59, 47
4, 91920, Note_on_c, 2, 47, 47
4, 92040, Note_off_c, 2, 47, 0
4, 92040, Note_off_c, 2, 59, 0
4, 92040, Note_on_c, 2, 55, 46
4, 92040, Note_on_c, 2, 50, 46
4, 92160, Note_off_c, 2, 50, 0
4, 92160, Note_off_c, 2, 55, 0
4, 92160, Note_on_c, 2, 60, 45
4, 92280, Note_off_c, 2, 60, 0
4, 92280, Note_on_c, 2, 48, 45
4, 92400, Note_off_c, 2, 48, 0
4, 92400, Note_on_c, 2, 55, 44
4, 92520, Note_off_c, 2, 55, 0
4, 92520, Note_on_c, 2, 43, 43
4, 92640, Note_off_c, 2, 43, 0
4, 92640, Note_on_c, 2, 48, 42
4, 92760, Note_off_c, 2, 48, 0
4, 92760, Note_on_c, 2, 36, 41
4, 92880, Note_off_c, 2, 36, 0
4, 92880, Note_on_c, 2, 43, 40
4, 93000, Note_off_c, 2, 43, 0
4, 93000, Note_on_c, 2, 31, 39
4, 93120, Note_off_c, 2, 31, 0
4, 93120, Note_on_c, 2, 36, 38
4, 93275, Note_off_c, 2, 36, 0
4, 93720, Note_on_c, 2, 51, 39
4, 93720, Note_on_c, 2, 48, 39
4, 93840, Note_off_c, 2, 48, 0
4, 93840, Note_off_c, 2, 51, 0
4, 93840, Note_on_c, 2, 55, 41
4, 93840, Note_on_c, 2, 43, 41
4, 93960, Note_off_c, 2, 43, 0
4, 93960, Note_off_c, 2, 55, 0
4, 93960, Note_on_c, 2, 51, 42
4, 93960, Note_on_c, 2, 48, 42
4, 94055, Note_off_c, 2, 48, 0
4, 94055, Note_off_c, 2, 51, 0
4, 94080, Note_on_c, 2, 43, 44
4, 94080, Note_on_c, 2, 55, 44
4, 94200, Note_off_c, 2, 55, 0
4, 94200, Note_off_c, 2, 43, 0
4, 94200, Note_on_c, 2, 51, 45
4, 94200, Note_on_c, 2, 48, 45
4, 94295, Note_off_c, 2, 48, 0
4, 94295, Note_off_c, 2, 51, 0
4, 94320, Note_on_c, 2, 43, 47
4, 94320, Note_on_c, 2, 55, 47
4, 94440, Note_off_c, 2, 55, 0
4, 94440, Note_off_c, 2, 43, 0
4, 94440, Note_on_c, 2, 51, 49
4, 94440, Note_on_c, 2, 48, 49
4, 94535, Note_off_c, 2, 48, 0
4, 94535, Note_off_c, 2, 51, 0
4, 94560, Note_on_c, 2, 43, 50
4, 94560, Note_on_c, 2, 55, 50
4, 94680, Note_off_c, 2, 55, 0
4, 94680, Note_off_c, 2, 43, 0
4, 94680, Note_on_c, 2, 51, 52
4, 94680, Note_on_c, 2, 48, 52
4, 94775, Note_off_c, 2, 48, 0
4, 94775, Note_off_c, 2, 51, 0
4, 94800, Note_on_c, 2, 55, 53
4, 94800, Note_on_c, 2, 43, 53
4, 94920, Note_off_c, 2, 43, 0
4, 94920, Note_off_c, 2, 55, 0
4, 94920, Note_on_c, 2, 48, 55
4, 94920, Note_on_c, 2, 51, 55
4, 95015, Note_off_c, 2, 51, 0
4, 95015, Note_off_c, 2, 48, 0
4, 95160, Note_on_c, 2, 47, 53
4, 95160, Note_on_c, 2, 50, 53
4, 95255, Note_off_c, 2, 50, 0
4, 95255, Note_off_c, 2, 47, 0
4, 95280, Note_on_c, 2, 43, 52
4, 95280, Note_on_c, 2, 55, 52
4, 95400, Note_off_c, 2, 55, 0
4, 95400, Note_off_c, 2, 43, 0
4, 95400, Note_on_c, 2, 50, 51
4, 95400, Note_on_c, 2, 47, 51
4, 95495, Note_off_c, 2, 47, 0
4, 95495, Note_off_c, 2, 50, 0
4, 95520, Note_on_c, 2, 43, 50
4, 95520, Note_on_c, 2, 55, 50
4, 95640, Note_off_c, 2, 55, 0
4, 95640, Note_off_c, 2, 43, 0
4, 95640, Note_on_c, 2, 47, 50
4, 95640, Note_on_c, 2, 50, 50
4, 95735, Note_off_c, 2, 50, 0
4, 95735, Note_off_c, 2, 47, 0
4, 95760, Note_on_c, 2, 43, 49
4, 95760, Note_on_c, 2, 55, 49
4, 95880, Note_off_c, 2, 55, 0
4, 95880, Note_off_c, 2, 43, 0
4, 95880, Note_on_c, 2, 47, 48
4, 95880, Note_on_c, 2, 50, 48
4, 95975, Note_off_c, 2, 50, 0
4, 95975, Note_off_c, 2, 47, 0
4, 96000, Note_on_c, 2, 43, 47
4, 96000, Note_on_c, 2, 55, 47
4, 96120, Note_off_c, 2, 55, 0
4, 96120, Note_off_c, 2, 43, 0
4, 96120, Note_on_c, 2, 47, 46
4, 96120, Note_on_c, 2, 50, 46
4, 96215, Note_off_c, 2, 50, 0
4, 96215, Note_off_c, 2, 47, 0
4, 96240, Note_on_c, 2, 55, 45
4, 96240, Note_on_c, 2, 43, 45
4, 96360, Note_off_c, 2, 43, 0
4, 96360, Note_off_c, 2, 55, 0
4, 96360, Note_on_c, 2, 47, 45
4, 96360, Note_on_c, 2, 50, 45
4, 96455, Note_off_c, 2, 50, 0
4, 96455, Note_off_c, 2, 47, 0
4, 96600, Note_on_c, 2, 46, 45
4, 96600, Note_on_c, 2, 48, 45
4, 96720, Note_off_c, 2, 48, 0
4, 96720, Note_off_c, 2, 46, 0
4, 96720, Note_on_c, 2, 43, 47
4, 96720, Note_on_c, 2, 52, 47
4, 96840, Note_off_c, 2, 52, 0
4, 96840, Note_off_c, 2, 43, 0
4, 96840, Note_on_c, 2, 46, 48
4, 96840, Note_on_c, 2, 48, 48
4, 96935, Note_off_c, 2, 48, 0
4, 96935, Note_off_c, 2, 46, 0
4, 96960, Note_on_c, 2, 43, 50
4, 96960, Note_on_c, 2, 52, 50
4, 97080, Note_off_c, 2, 52, 0
4, 97080, Note_off_c, 2, 43, 0
4, 97080, Note_on_c, 2, 46, 52
4, 97080, Note_on_c, 2, 48, 52
4, 97175, Note_off_c, 2, 48, 0
4, 97175, Note_off_c, 2, 46, 0
4, 97200, Note_on_c, 2, 43, 53
4, 97200, Note_on_c, 2, 52, 53
4, 97320, Note_off_c, 2, 52, 0
4, 97320, Note_off_c, 2, 43, 0
4, 97320, Note_on_c, 2, 46, 55
4, 97320, Note_on_c, 2, 48, 55
4, 97415, Note_off_c, 2, 48, 0
4, 97415, Note_off_c, 2, 46, 0
4, 97440, Note_on_c, 2, 43, 56
4, 97440, Note_on_c, 2, 52, 56
4, 97560, Note_off_c, 2, 52, 0
4, 97560, Note_off_c, 2, 43, 0
4, 97560, Note_on_c, 2, 46, 58
4, 97560, Note_on_c, 2, 48, 58
4, 97655, Note_off_c, 2, 48, 0
4, 97655, Note_off_c, 2, 46, 0
4, 97680, Note_on_c, 2, 43, 59
4, 97680, Note_on_c, 2, 52, 59
4, 97800, Note_off_c, 2, 52, 0
4, 97800, Note_off_c, 2, 43, 0
4, 97800, Note_on_c, 2, 46, 61
4, 97800, Note_on_c, 2, 48, 61
4, 97895, Note_off_c, 2, 48, 0
4, 97895, Note_off_c, 2, 46, 0
4, 98040, Note_on_c, 2, 48, 60
4, 98040, Note_on_c, 2, 45, 60
4, 98135, Note_off_c, 2, 45, 0
4, 98135, Note_off_c, 2, 48, 0
4, 98160, Note_on_c, 2, 41, 60
4, 98160, Note_on_c, 2, 53, 60
4, 98280, Note_off_c, 2, 53, 0
4, 98280, Note_off_c, 2, 41, 0
4, 98280, Note_on_c, 2, 45, 59
4, 98280, Note_on_c, 2, 48, 59
4, 98375, Note_off_c, 2, 48, 0
4, 98375, Note_off_c, 2, 45, 0
4, 98400, Note_on_c, 2, 41, 58
4, 98400, Note_on_c, 2, 53, 58
4, 98520, Note_off_c, 2, 53, 0
4, 98520, Note_off_c, 2, 41, 0
4, 98520, Note_on_c, 2, 48, 57
4, 98520, Note_on_c, 2, 45, 57
4, 98615, Note_off_c, 2, 45, 0
4, 98615, Note_off_c, 2, 48, 0
4, 98640, Note_on_c, 2, 41, 56
4, 98640, Note_on_c, 2, 53, 56
4, 98760, Note_off_c, 2, 53, 0
4, 98760, Note_off_c, 2, 41, 0
4, 98760, Note_on_c, 2, 45, 55
4, 98760, Note_on_c, 2, 48, 55
4, 98855, Note_off_c, 2, 48, 0
4, 98855, Note_off_c, 2, 45, 0
4, 98880, Note_on_c, 2, 41, 54
4, 98880, Note_on_c, 2, 53, 54
4, 99000, Note_off_c, 2, 53, 0
4, 99000, Note_off_c, 2, 41, 0
4, 99000, Note_on_c, 2, 45, 54
4, 99000, Note_on_c, 2, 48, 54
4, 99095, Note_off_c, 2, 48, 0
4, 99095, Note_off_c, 2, 45, 0
4, 99120, Note_on_c, 2, 41, 53
4, 99120, Note_on_c, 2, 53, 53
4, 99240, Note_off_c, 2, 53, 0
4, 99240, Note_off_c, 2, 41, 0
4, 99240, Note_on_c, 2, 45, 52
4, 99240, Note_on_c, 2, 48, 52
4, 99335, Note_off_c, 2, 48, 0
4, 99335, Note_off_c, 2, 45, 0
4, 99480, Note_on_c, 2, 48, 57
4, 99480, Note_on_c, 2, 50, 57
4, 99575, Note_off_c, 2, 50, 0
4, 99575, Note_off_c, 2, 48, 0
4, 99600, Note_on_c, 2, 45, 59
4, 99600, Note_on_c, 2, 54, 59
4, 99720, Note_off_c, 2, 54, 0
4, 99720, Note_off_c, 2, 45, 0
4, 99720, Note_on_c, 2, 50, 61
4, 99720, Note_on_c, 2, 48, 61
4, 99815, Note_off_c, 2, 48, 0
4, 99815, Note_off_c, 2, 50, 0
4, 99840, Note_on_c, 2, 45, 63
4, 99840, Note_on_c, 2, 54, 63
4, 99960, Note_off_c, 2, 54, 0
4, 99960, Note_off_c, 2, 45, 0
4, 99960, Note_on_c, 2, 50, 65
4, 99960, Note_on_c, 2, 48, 65
4, 100055, Note_off_c, 2, 48, 0
4, 100055, Note_off_c, 2, 50, 0
4, 100080, Note_on_c, 2, 45, 67
4, 100080, Note_on_c, 2, 54, 67
4, 100200, Note_off_c, 2, 54, 0
4, 100200, Note_off_c, 2, 45, 0
4, 100200, Note_on_c, 2, 50, 69
4, 100200, Note_on_c, 2, 48, 69
4, 100295, Note_off_c, 2, 48, 0
4, 100295, Note_off_c, 2, 50, 0
4, 100320, Note_on_c, 2, 45, 71
4, 100320, Note_on_c, 2, 54, 71
4, 100440, Note_off_c, 2, 54, 0
4, 100440, Note_off_c, 2, 45, 0
4, 100440, Note_on_c, 2, 50, 73
4, 100440, Note_on_c, 2, 48, 73
4, 100535, Note_off_c, 2, 48, 0
4, 100535, Note_off_c, 2, 50, 0
4, 100560, Note_on_c, 2, 54, 75
4, 100560, Note_on_c, 2, 45, 75
4, 100680, Note_off_c, 2, 45, 0
4, 100680, Note_off_c, 2, 54, 0
4, 100680, Note_on_c, 2, 50, 77
4, 100680, Note_on_c, 2, 48, 77
4, 100775, Note_off_c, 2, 48, 0
4, 100775, Note_off_c, 2, 50, 0
4, 100800, Note_on_c, 2, 55, 79
4, 100800, Note_on_c, 2, 43, 79
4, 100920, Note_off_c, 2, 43, 0
4, 100920, Note_off_c, 2, 55, 0
4, 100920, Note_on_c, 2, 50, 81
4, 100920, Note_on_c, 2, 47, 81
4, 101015, Note_off_c, 2, 47, 0
4, 101015, Note_off_c, 2, 50, 0
4, 101040, Note_on_c, 2, 53, 83
4, 101040, Note_on_c, 2, 41, 83
4, 101160, Note_off_c, 2, 41, 0
4, 101160, Note_off_c, 2, 53, 0
4, 101160, Note_on_c, 2, 50, 84
4, 101160, Note_on_c, 2, 47, 84
4, 101255, Note_off_c, 2, 47, 0
4, 101255, Note_off_c, 2, 50, 0
4, 101280, Note_on_c, 2, 41, 83
4, 101280, Note_on_c, 2, 53, 83
4, 101400, Note_off_c, 2, 53, 0
4, 101400, Note_off_c, 2, 41, 0
4, 101400, Note_on_c, 2, 47, 82
4, 101400, Note_on_c, 2, 50, 82
4, 101495, Note_off_c, 2, 50, 0
4, 101495, Note_off_c, 2, 47, 0
4, 101520, Note_on_c, 2, 55, 80
4, 101520, Note_on_c, 2, 43, 80
4, 101640, Note_off_c, 2, 43, 0
4, 101640, Note_off_c, 2, 55, 0
4, 101640, Note_on_c, 2, 50, 79
4, 101640, Note_on_c, 2, 47, 79
4, 101735, Note_off_c, 2, 47, 0
4, 101735, Note_off_c, 2, 50, 0
4, 101760, Note_on_c, 2, 44, 78
4, 101760, Note_on_c, 2, 56, 78
4, 101880, Note_off_c, 2, 56, 0
4, 101880, Note_off_c, 2, 44, 0
4, 101880, Note_on_c, 2, 50, 76
4, 101880, Note_on_c, 2, 47, 76
4, 101975, Note_off_c, 2, 47, 0
4, 101975, Note_off_c, 2, 50, 0
4, 102000, Note_on_c, 2, 55, 75
4, 102000, Note_on_c, 2, 43, 75
4, 102120, Note_off_c, 2, 43, 0
4, 102120, Note_off_c, 2, 55, 0
4, 102120, Note_on_c, 2, 50, 74
4, 102120, Note_on_c, 2, 47, 74
4, 102215, Note_off_c, 2, 47, 0
4, 102215, Note_off_c, 2, 50, 0
4, 102240, Note_on_c, 2, 41, 72
4, 102240, Note_on_c, 2, 53, 72
4, 102360, Note_off_c, 2, 53, 0
4, 102360, Note_off_c, 2, 41, 0
4, 102360, Note_on_c, 2, 47, 71
4, 102360, Note_on_c, 2, 50, 71
4, 102455, Note_off_c, 2, 50, 0
4, 102455, Note_off_c, 2, 47, 0
4, 102480, Note_on_c, 2, 43, 70
4, 102480, Note_on_c, 2, 55, 70
4, 102600, Note_off_c, 2, 55, 0
4, 102600, Note_off_c, 2, 43, 0
4, 102600, Note_on_c, 2, 50, 69
4, 102600, Note_on_c, 2, 47, 69
4, 102695, Note_off_c, 2, 47, 0
4, 102695, Note_off_c, 2, 50, 0
4, 102720, Note_on_c, 2, 44, 67
4, 102720, Note_on_c, 2, 56, 67
4, 102840, Note_off_c, 2, 56, 0
4, 102840, Note_off_c, 2, 44, 0
4, 102840, Note_on_c, 2, 47, 66
4, 102840, Note_on_c, 2, 50, 66
4, 102935, Note_off_c, 2, 50, 0
4, 102935, Note_off_c, 2, 47, 0
4, 102960, Note_on_c, 2, 41, 65
4, 102960, Note_on_c, 2, 53, 65
4, 103080, Note_off_c, 2, 53, 0
4, 103080, Note_off_c, 2, 41, 0
4, 103080, Note_on_c, 2, 47, 63
4, 103080, Note_on_c, 2, 50, 63
4, 103175, Note_off_c, 2, 50, 0
4, 103175, Note_off_c, 2, 47, 0
4, 103200, Note_on_c, 2, 43, 62
4, 103200, Note_on_c, 2, 55, 62
4, 103320, Note_off_c, 2, 55, 0
4, 103320, Note_off_c, 2, 43, 0
4, 103320, Note_on_c, 2, 47, 61
4, 103320, Note_on_c, 2, 50, 61
4, 103415, Note_off_c, 2, 50, 0
4, 103415, Note_off_c, 2, 47, 0
4, 103440, Note_on_c, 2, 47, 59
4, 103440, Note_on_c, 2, 59, 59
4, 103560, Note_off_c, 2, 59, 0
4, 103560, Note_off_c, 2, 47, 0
4, 103560, Note_on_c, 2, 50, 58
4, 103560, Note_on_c, 2, 55, 58
4, 103655, Note_off_c, 2, 55, 0
4, 103655, Note_off_c, 2, 50, 0
4, 103680, Note_on_c, 2, 48, 56
4, 103680, Note_on_c, 2, 60, 56
4, 103800, Note_off_c, 2, 60, 0
4, 103800, Note_off_c, 2, 48, 0
4, 103800, Note_on_c, 2, 55, 55
4, 103800, Note_on_c, 2, 51, 55
4, 103895, Note_off_c, 2, 51, 0
4, 103895, Note_off_c, 2, 55, 0
4, 103920, Note_on_c, 2, 43, 53
4, 103920, Note_on_c, 2, 55, 53
4, 104040, Note_off_c, 2, 55, 0
4, 104040, Note_off_c, 2, 43, 0
4, 104040, Note_on_c, 2, 47, 51
4, 104040, Note_on_c, 2, 50, 51
4, 104135, Note_off_c, 2, 50, 0
4, 104135, Note_off_c, 2, 47, 0
4, 104160, Note_on_c, 2, 36, 50
4, 104160, Note_on_c, 2, 48, 50
4, 104280, Note_off_c, 2, 48, 0
4, 104280, Note_off_c, 2, 36, 0
4, 104280, Note_on_c, 2, 39, 48
4, 104280, Note_on_c, 2, 43, 48
4, 104375, Note_off_c, 2, 43, 0
4, 104375, Note_off_c, 2, 39, 0
4, 104400, Note_on_c, 2, 31, 46
4, 104400, Note_on_c, 2, 43, 46
4, 104520, Note_off_c, 2, 43, 0
4, 104520, Note_off_c, 2, 31, 0
4, 104520, Note_on_c, 2, 35, 44
4, 104520, Note_on_c, 2, 38, 44
4, 104615, Note_off_c, 2, 38, 0
4, 104615, Note_off_c, 2, 35, 0
4, 104640, Note_on_c, 2, 43, 39
4, 104640, Note_on_c, 2, 48, 39
4, 104640, Note_on_c, 2, 39, 39
4, 104640, Note_on_c, 2, 36, 39
4, 104880, Note_off_c, 2, 36, 0
4, 104880, Note_off_c, 2, 39, 0
4, 104880, Note_off_c, 2, 48, 0
4, 104880, Note_off_c, 2, 43, 0
4, 105120, Note_on_c, 2, 60, 42
4, 105240, Note_off_c, 2, 60, 0
4, 105240, Note_on_c, 2, 63, 42
4, 105360, Note_off_c, 2, 63, 0
4, 105360, Note_on_c, 2, 60, 42
4, 105480, Note_off_c, 2, 60, 0
4, 105480, Note_on_c, 2, 63, 43
4, 105600, Note_off_c, 2, 63, 0
4, 105600, Note_on_c, 2, 60, 43
4, 105720, Note_off_c, 2, 60, 0
4, 105720, Note_on_c, 2, 63, 43
4, 105840, Note_off_c, 2, 63, 0
4, 105840, Note_on_c, 2, 60, 43
4, 105960, Note_off_c, 2, 60, 0
4, 105960, Note_on_c, 2, 63, 44
4, 106080, Note_off_c, 2, 63, 0
4, 106080, Note_on_c, 2, 60, 44
4, 106200, Note_off_c, 2, 60, 0
4, 106200, Note_on_c, 2, 63, 44
4, 106320, Note_off_c, 2, 63, 0
4, 106320, Note_on_c, 2, 60, 45
4, 106440, Note_off_c, 2, 60, 0
4, 106440, Note_on_c, 2, 63, 45
4, 106560, Note_off_c, 2, 63, 0
4, 106560, Note_on_c, 2, 59, 45
4, 106680, Note_off_c, 2, 59, 0
4, 106680, Note_on_c, 2, 62, 45
4, 106800, Note_off_c, 2, 62, 0
4, 106800, Note_on_c, 2, 59, 46
4, 106920, Note_off_c, 2, 59, 0
4, 106920, Note_on_c, 2, 62, 46
4, 107040, Note_off_c, 2, 62, 0
4, 107040, Note_on_c, 2, 59, 46
4, 107160, Note_off_c, 2, 59, 0
4, 107160, Note_on_c, 2, 62, 47
4, 107280, Note_off_c, 2, 62, 0
4, 107280, Note_on_c, 2, 59, 47
4, 107400, Note_off_c, 2, 59, 0
4, 107400, Note_on_c, 2, 62, 47
4, 107520, Note_off_c, 2, 62, 0
4, 107520, Note_on_c, 2, 59, 47
4, 107640, Note_off_c, 2, 59, 0
4, 107640, Note_on_c, 2, 62, 48
4, 107760, Note_off_c, 2, 62, 0
4, 107760, Note_on_c, 2, 59, 48
4, 107880, Note_off_c, 2, 59, 0
4, 107880, Note_on_c, 2, 62, 48
4, 108000, Note_off_c, 2, 62, 0
4, 108000, Note_on_c, 2, 58, 48
4, 108120, Note_off_c, 2, 58, 0
4, 108120, Note_on_c, 2, 61, 49
4, 108240, Note_off_c, 2, 61, 0
4, 108240, Note_on_c, 2, 58, 49
4, 108360, Note_off_c, 2, 58, 0
4, 108360, Note_on_c, 2, 61, 49
4, 108480, Note_off_c, 2, 61, 0
4, 108480, Note_on_c, 2, 58, 50
4, 108540, Note_on_c, 2, 61, 50
4, 108600, Note_off_c, 2, 58, 0
4, 108640, Note_on_c, 2, 58, 50
4, 108660, Note_off_c, 2, 61, 0
4, 108720, Note_on_c, 2, 61, 50
4, 108760, Note_off_c, 2, 58, 0
4, 108840, Note_off_c, 2, 61, 0
4, 108840, Note_on_c, 2, 58, 50
4, 108960, Note_off_c, 2, 58, 0
4, 108960, Note_on_c, 2, 61, 51
4, 109080, Note_off_c, 2, 61, 0
4, 109080, Note_on_c, 2, 58, 51
4, 109200, Note_off_c, 2, 58, 0
4, 109200, Note_on_c, 2, 61, 51
4, 109320, Note_off_c, 2, 61, 0
4, 109320, Note_on_c, 2, 57, 52
4, 109440, Note_off_c, 2, 57, 0
4, 109440, Note_on_c, 2, 60, 52
4, 109560, Note_off_c, 2, 60, 0
4, 109560, Note_on_c, 2, 57, 52
4, 109680, Note_off_c, 2, 57, 0
4, 109680, Note_on_c, 2, 60, 52
4, 109800, Note_off_c, 2, 60, 0
4, 109800, Note_on_c, 2, 57, 53
4, 109920, Note_off_c, 2, 57, 0
4, 109920, Note_on_c, 2, 60, 53
4, 110040, Note_off_c, 2, 60, 0
4, 110040, Note_on_c, 2, 57, 53
4, 110160, Note_off_c, 2, 57, 0
4, 110160, Note_on_c, 2, 60, 53
4, 110280, Note_off_c, 2, 60, 0
4, 110280, Note_on_c, 2, 57, 54
4, 110400, Note_off_c, 2, 57, 0
4, 110400, Note_on_c, 2, 57, 54
4, 110520, Note_off_c, 2, 57, 0
4, 110520, Note_on_c, 2, 60, 54
4, 110640, Note_off_c, 2, 60, 0
4, 110640, Note_on_c, 2, 60, 55
4, 110760, Note_off_c, 2, 60, 0
4, 110760, Note_on_c, 2, 63, 55
4, 110880, Note_off_c, 2, 63, 0
4, 110880, Note_on_c, 2, 60, 55
4, 111000, Note_off_c, 2, 60, 0
4, 111000, Note_on_c, 2, 63, 55
4, 111120, Note_off_c, 2, 63, 0
4, 111120, Note_on_c, 2, 60, 56
4, 111240, Note_off_c, 2, 60, 0
4, 111240, Note_on_c, 2, 63, 56
4, 111360, Note_off_c, 2, 63, 0
4, 111360, Note_on_c, 2, 60, 56
4, 111480, Note_off_c, 2, 60, 0
4, 111480, Note_on_c, 2, 63, 57
4, 111600, Note_off_c, 2, 63, 0
4, 111600, Note_on_c, 2, 60, 57
4, 111720, Note_off_c, 2, 60, 0
4, 111720, Note_on_c, 2, 63, 57
4, 111840, Note_off_c, 2, 63, 0
4, 111840, Note_on_c, 2, 60, 57
4, 111960, Note_off_c, 2, 60, 0
4, 111960, Note_on_c, 2, 63, 58
4, 112080, Note_off_c, 2, 63, 0
4, 112080, Note_on_c, 2, 62, 58
4, 112200, Note_off_c, 2, 62, 0
4, 112200, Note_on_c, 2, 65, 58
4, 112320, Note_off_c, 2, 65, 0
4, 112320, Note_on_c, 2, 62, 58
4, 112440, Note_off_c, 2, 62, 0
4, 112440, Note_on_c, 2, 65, 59
4, 112560, Note_off_c, 2, 65, 0
4, 112560, Note_on_c, 2, 62, 59
4, 112680, Note_off_c, 2, 62, 0
4, 112680, Note_on_c, 2, 65, 59
4, 112800, Note_off_c, 2, 65, 0
4, 112800, Note_on_c, 2, 62, 59
4, 112920, Note_off_c, 2, 62, 0
4, 112920, Note_on_c, 2, 65, 58
4, 113040, Note_off_c, 2, 65, 0
4, 113040, Note_on_c, 2, 62, 58
4, 113160, Note_off_c, 2, 62, 0
4, 113160, Note_on_c, 2, 65, 57
4, 113280, Note_off_c, 2, 65, 0
4, 113280, Note_on_c, 2, 62, 56
4, 113400, Note_off_c, 2, 62, 0
4, 113400, Note_on_c, 2, 65, 56
4, 113520, Note_off_c, 2, 65, 0
4, 113520, Note_on_c, 2, 55, 55
4, 113640, Note_off_c, 2, 55, 0
4, 113640, Note_on_c, 2, 65, 54
4, 113760, Note_off_c, 2, 65, 0
4, 113760, Note_on_c, 2, 55, 54
4, 113880, Note_off_c, 2, 55, 0
4, 113880, Note_on_c, 2, 65, 53
4, 114000, Note_off_c, 2, 65, 0
4, 114000, Note_on_c, 2, 55, 53
4, 114120, Note_off_c, 2, 55, 0
4, 114120, Note_on_c, 2, 65, 52
4, 114240, Note_off_c, 2, 65, 0
4, 114240, Note_on_c, 2, 55, 51
4, 114360, Note_off_c, 2, 55, 0
4, 114360, Note_on_c, 2, 65, 51
4, 114480, Note_off_c, 2, 65, 0
4, 114480, Note_on_c, 2, 55, 50
4, 114600, Note_off_c, 2, 55, 0
4, 114600, Note_on_c, 2, 62, 49
4, 114720, Note_off_c, 2, 62, 0
4, 114720, Note_on_c, 2, 55, 49
4, 114840, Note_off_c, 2, 55, 0
4, 114840, Note_on_c, 2, 62, 48
4, 114960, Note_off_c, 2, 62, 0
4, 114960, Note_on_c, 2, 60, 47
4, 115080, Note_off_c, 2, 60, 0
4, 115080, Note_on_c, 2, 63, 47
4, 115200, Note_off_c, 2, 63, 0
4, 115200, Note_on_c, 2, 60, 46
4, 115320, Note_off_c, 2, 60, 0
4, 115320, Note_on_c, 2, 63, 46
4, 115440, Note_off_c, 2, 63, 0
4, 115440, Note_on_c, 2, 55, 45
4, 115560, Note_off_c, 2, 55, 0
4, 115560, Note_on_c, 2, 62, 44
4, 115680, Note_off_c, 2, 62, 0
4, 115680, Note_on_c, 2, 55, 44
4, 115800, Note_off_c, 2, 55, 0
4, 115800, Note_on_c, 2, 62, 43
4, 115920, Note_off_c, 2, 62, 0
4, 115920, Note_on_c, 2, 60, 42
4, 115920, Note_on_c, 2, 48, 42
4, 116075, Note_off_c, 2, 48, 0
4, 116075, Note_off_c, 2, 60, 0
4, 116640, Note_on_c, 2, 36, 60
4, 116690, Note_off_c, 2, 36, 0
4, 116700, Note_on_c, 2, 31, 50
4, 116750, Note_off_c, 2, 31, 0
4, 116760, Note_on_c, 2, 33, 50
4, 116810, Note_off_c, 2, 33, 0
4, 116820, Note_on_c, 2, 35, 50
4, 116870, Note_off_c, 2, 35, 0
4, 116880, Note_on_c, 2, 36, 60
4, 116930, Note_off_c, 2, 36, 0
4, 116940, Note_on_c, 2, 31, 50
4, 116990, Note_off_c, 2, 31, 0
4, 117000, Note_on_c, 2, 33, 51
4, 117050, Note_off_c, 2, 33, 0
4, 117060, Note_on_c, 2, 35, 51
4, 117110, Note_off_c, 2, 35, 0
4, 117120, Note_on_c, 2, 36, 51
4, 117170, Note_off_c, 2, 36, 0
4, 117180, Note_on_c, 2, 31, 51
4, 117230, Note_off_c, 2, 31, 0
4, 117240, Note_on_c, 2, 33, 52
4, 117290, Note_off_c, 2, 33, 0
4, 117300, Note_on_c, 2, 35, 52
4, 117350, Note_off_c, 2, 35, 0
4, 117360, Note_on_c, 2, 36, 52
4, 117410, Note_off_c, 2, 36, 0
4, 117420, Note_on_c, 2, 31, 52
4, 117470, Note_off_c, 2, 31, 0
4, 117480, Note_on_c, 2, 33, 52
4, 117530, Note_off_c, 2, 33, 0
4, 117540, Note_on_c, 2, 35, 52
4, 117590, Note_off_c, 2, 35, 0
4, 117600, Note_on_c, 2, 36, 53
4, 117650, Note_off_c, 2, 36, 0
4, 117660, Note_on_c, 2, 31, 53
4, 117710, Note_off_c, 2, 31, 0
4, 117720, Note_on_c, 2, 33, 53
4, 117770, Note_off_c, 2, 33, 0
4, 117780, Note_on_c, 2, 35, 53
4, 117830, Note_off_c, 2, 35, 0
4, 117840, Note_on_c, 2, 36, 54
4, 117890, Note_off_c, 2, 36, 0
4, 117900, Note_on_c, 2, 38, 54
4, 117950, Note_off_c, 2, 38, 0
4, 117960, Note_on_c, 2, 39, 54
4, 118010, Note_off_c, 2, 39, 0
4, 118020, Note_on_c, 2, 42, 54
4, 118070, Note_off_c, 2, 42, 0
4, 118080, Note_on_c, 2, 43, 64
4, 118130, Note_off_c, 2, 43, 0
4, 118140, Note_on_c, 2, 38, 54
4, 118190, Note_off_c, 2, 38, 0
4, 118200, Note_on_c, 2, 40, 55
4, 118250, Note_off_c, 2, 40, 0
4, 118260, Note_on_c, 2, 42, 55
4, 118310, Note_off_c, 2, 42, 0
4, 118320, Note_on_c, 2, 43, 65
4, 118370, Note_off_c, 2, 43, 0
4, 118380, Note_on_c, 2, 38, 55
4, 118430, Note_off_c, 2, 38, 0
4, 118440, Note_on_c, 2, 40, 56
4, 118490, Note_off_c, 2, 40, 0
4, 118500, Note_on_c, 2, 42, 56
4, 118550, Note_off_c, 2, 42, 0
4, 118560, Note_on_c, 2, 43, 56
4, 118610, Note_off_c, 2, 43, 0
4, 118620, Note_on_c, 2, 38, 56
4, 118670, Note_off_c, 2, 38, 0
4, 118680, Note_on_c, 2, 40, 56
4, 118730, Note_off_c, 2, 40, 0
4, 118740, Note_on_c, 2, 42, 56
4, 118790, Note_off_c, 2, 42, 0
4, 118800, Note_on_c, 2, 43, 57
4, 118850, Note_off_c, 2, 43, 0
4, 118860, Note_on_c, 2, 38, 57
4, 118910, Note_off_c, 2, 38, 0
4, 118920, Note_on_c, 2, 40, 57
4, 118970, Note_off_c, 2, 40, 0
4, 118980, Note_on_c, 2, 42, 57
4, 119030, Note_off_c, 2, 42, 0
4, 119040, Note_on_c, 2, 43, 58
4, 119090, Note_off_c, 2, 43, 0
4, 119100, Note_on_c, 2, 38, 58
4, 119150, Note_off_c, 2, 38, 0
4, 119160, Note_on_c, 2, 40, 58
4, 119210, Note_off_c, 2, 40, 0
4, 119220, Note_on_c, 2, 42, 58
4, 119270, Note_off_c, 2, 42, 0
4, 119280, Note_on_c, 2, 43, 58
4, 119330, Note_off_c, 2, 43, 0
4, 119340, Note_on_c, 2, 45, 58
4, 119390, Note_off_c, 2, 45, 0
4, 119400, Note_on_c, 2, 47, 59
4, 119450, Note_off_c, 2, 47, 0
4, 119460, Note_on_c, 2, 43, 59
4, 119510, Note_off_c, 2, 43, 0
4, 119520, Note_on_c, 2, 48, 69
4, 119570, Note_off_c, 2, 48, 0
4, 119580, Note_on_c, 2, 43, 59
4, 119630, Note_off_c, 2, 43, 0
4, 119640, Note_on_c, 2, 45, 60
4, 119690, Note_off_c, 2, 45, 0
4, 119700, Note_on_c, 2, 47, 60
4, 119750, Note_off_c, 2, 47, 0
4, 119760, Note_on_c, 2, 48, 70
4, 119810, Note_off_c, 2, 48, 0
4, 119820, Note_on_c, 2, 43, 60
4, 119870, Note_off_c, 2, 43, 0
4, 119880, Note_on_c, 2, 45, 61
4, 119930, Note_off_c, 2, 45, 0
4, 119940, Note_on_c, 2, 47, 61
4, 119990, Note_off_c, 2, 47, 0
4, 120000, Note_on_c, 2, 48, 61
4, 120050, Note_off_c, 2, 48, 0
4, 120060, Note_on_c, 2, 43, 61
4, 120110, Note_off_c, 2, 43, 0
4, 120120, Note_on_c, 2, 45, 61
4, 120170, Note_off_c, 2, 45, 0
4, 120180, Note_on_c, 2, 47, 61
4, 120230, Note_off_c, 2, 47, 0
4, 120240, Note_on_c, 2, 48, 62
4, 120290, Note_off_c, 2, 48, 0
4, 120300, Note_on_c, 2, 43, 62
4, 120350, Note_off_c, 2, 43, 0
4, 120360, Note_on_c, 2, 45, 62
4, 120410, Note_off_c, 2, 45, 0
4, 120420, Note_on_c, 2, 47, 62
4, 120470, Note_off_c, 2, 47, 0
4, 120480, Note_on_c, 2, 48, 63
4, 120530, Note_off_c, 2, 48, 0
4, 120540, Note_on_c, 2, 43, 63
4, 120590, Note_off_c, 2, 43, 0
4, 120600, Note_on_c, 2, 45, 63
4, 120650, Note_off_c, 2, 45, 0
4, 120660, Note_on_c, 2, 47, 63
4, 120710, Note_off_c, 2, 47, 0
4, 120720, Note_on_c, 2, 48, 63
4, 120770, Note_off_c, 2, 48, 0
4, 120780, Note_on_c, 2, 50, 63
4, 120830, Note_off_c, 2, 50, 0
4, 120840, Note_on_c, 2, 52, 64
4, 120890, Note_off_c, 2, 52, 0
4, 120900, Note_on_c, 2, 48, 64
4, 120950, Note_off_c, 2, 48, 0
4, 120960, Note_on_c, 2, 53, 74
4, 121010, Note_off_c, 2, 53, 0
4, 121020, Note_on_c, 2, 48, 64
4, 121070, Note_off_c, 2, 48, 0
4, 121080, Note_on_c, 2, 50, 65
4, 121130, Note_off_c, 2, 50, 0
4, 121140, Note_on_c, 2, 52, 65
4, 121190, Note_off_c, 2, 52, 0
4, 121200, Note_on_c, 2, 53, 75
4, 121250, Note_off_c, 2, 53, 0
4, 121260, Note_on_c, 2, 48, 65
4, 121310, Note_off_c, 2, 48, 0
4, 121320, Note_on_c, 2, 50, 65
4, 121370, Note_off_c, 2, 50, 0
4, 121380, Note_on_c, 2, 52, 65
4, 121430, Note_off_c, 2, 52, 0
4, 121440, Note_on_c, 2, 53, 66
4, 121490, Note_off_c, 2, 53, 0
4, 121500, Note_on_c, 2, 48, 66
4, 121550, Note_off_c, 2, 48, 0
4, 121560, Note_on_c, 2, 50, 66
4, 121610, Note_off_c, 2, 50, 0
4, 121620, Note_on_c, 2, 52, 66
4, 121670, Note_off_c, 2, 52, 0
4, 121680, Note_on_c, 2, 53, 67
4, 121730, Note_off_c, 2, 53, 0
4, 121740, Note_on_c, 2, 48, 67
4, 121790, Note_off_c, 2, 48, 0
4, 121800, Note_on_c, 2, 50, 67
4, 121850, Note_off_c, 2, 50, 0
4, 121860, Note_on_c, 2, 52, 67
4, 121910, Note_off_c, 2, 52, 0
4, 121920, Note_on_c, 2, 53, 67
4, 121970, Note_off_c, 2, 53, 0
4, 121980, Note_on_c, 2, 48, 67
4, 122030, Note_off_c, 2, 48, 0
4, 122040, Note_on_c, 2, 50, 68
4, 122090, Note_off_c, 2, 50, 0
4, 122100, Note_on_c, 2, 52, 68
4, 122150, Note_off_c, 2, 52, 0
4, 122160, Note_on_c, 2, 53, 68
4, 122210, Note_off_c, 2, 53, 0
4, 122220, Note_on_c, 2, 55, 68
4, 122270, Note_off_c, 2, 55, 0
4, 122280, Note_on_c, 2, 57, 69
4, 122330, Note_off_c, 2, 57, 0
4, 122340, Note_on_c, 2, 53, 69
4, 122390, Note_off_c, 2, 53, 0
4, 122400, Note_on_c, 2, 57, 79
4, 122450, Note_off_c, 2, 57, 0
4, 122460, Note_on_c, 2, 54, 69
4, 122510, Note_off_c, 2, 54, 0
4, 122520, Note_on_c, 2, 57, 69
4, 122570, Note_off_c, 2, 57, 0
4, 122580, Note_on_c, 2, 59, 69
4, 122630, Note_off_c, 2, 59, 0
4, 122640, Note_on_c, 2, 60, 80
4, 122690, Note_off_c, 2, 60, 0
4, 122700, Note_on_c, 2, 54, 70
4, 122750, Note_off_c, 2, 54, 0
4, 122760, Note_on_c, 2, 57, 70
4, 122810, Note_off_c, 2, 57, 0
4, 122820, Note_on_c, 2, 59, 70
4, 122870, Note_off_c, 2, 59, 0
4, 122880, Note_on_c, 2, 60, 71
4, 122930, Note_off_c, 2, 60, 0
4, 122940, Note_on_c, 2, 54, 71
4, 122990, Note_off_c, 2, 54, 0
4, 123000, Note_on_c, 2, 57, 71
4, 123050, Note_off_c, 2, 57, 0
4, 123060, Note_on_c, 2, 59, 71
4, 123110, Note_off_c, 2, 59, 0
4, 123120, Note_on_c, 2, 60, 72
4, 123170, Note_off_c, 2, 60, 0
4, 123180, Note_on_c, 2, 54, 72
4, 123230, Note_off_c, 2, 54, 0
4, 123240, Note_on_c, 2, 57, 72
4, 123290, Note_off_c, 2, 57, 0
4, 123300, Note_on_c, 2, 59, 72
4, 123350, Note_off_c, 2, 59, 0
4, 123360, Note_on_c, 2, 60, 72
4, 123410, Note_off_c, 2, 60, 0
4, 123420, Note_on_c, 2, 54, 72
4, 123470, Note_off_c, 2, 54, 0
4, 123480, Note_on_c, 2, 57, 73
4, 123530, Note_off_c, 2, 57, 0
4, 123540, Note_on_c, 2, 59, 73
4, 123590, Note_off_c, 2, 59, 0
4, 123600, Note_on_c, 2, 60, 73
4, 123650, Note_off_c, 2, 60, 0
4, 123660, Note_on_c, 2, 54, 73
4, 123710, Note_off_c, 2, 54, 0
4, 123720, Note_on_c, 2, 57, 74
4, 123770, Note_off_c, 2, 57, 0
4, 123780, Note_on_c, 2, 59, 74
4, 123830, Note_off_c, 2, 59, 0
4, 123840, Note_on_c, 2, 62, 88
4, 123890, Note_off_c, 2, 62, 0
4, 123900, Note_on_c, 2, 59, 78
4, 123950, Note_off_c, 2, 59, 0
4, 123960, Note_on_c, 2, 62, 78
4, 124010, Note_off_c, 2, 62, 0
4, 124020, Note_on_c, 2, 63, 78
4, 124070, Note_off_c, 2, 63, 0
4, 124080, Note_on_c, 2, 65, 88
4, 124130, Note_off_c, 2, 65, 0
4, 124140, Note_on_c, 2, 62, 77
4, 124190, Note_off_c, 2, 62, 0
4, 124200, Note_on_c, 2, 65, 77
4, 124250, Note_off_c, 2, 65, 0
4, 124260, Note_on_c, 2, 67, 77
4, 124310, Note_off_c, 2, 67, 0
4, 124320, Note_on_c, 2, 68, 76
4, 124370, Note_off_c, 2, 68, 0
4, 124380, Note_on_c, 2, 62, 76
4, 124430, Note_off_c, 2, 62, 0
4, 124440, Note_on_c, 2, 65, 76
4, 124490, Note_off_c, 2, 65, 0
4, 124500, Note_on_c, 2, 67, 76
4, 124550, Note_off_c, 2, 67, 0
4, 124560, Note_on_c, 2, 68, 75
4, 124610, Note_off_c, 2, 68, 0
4, 124620, Note_on_c, 2, 62, 75
4, 124670, Note_off_c, 2, 62, 0
4, 124680, Note_on_c, 2, 65, 75
4, 124730, Note_off_c, 2, 65, 0
4, 124740, Note_on_c, 2, 67, 75
4, 124790, Note_off_c, 2, 67, 0
4, 124800, Note_on_c, 2, 68, 74
4, 124850, Note_off_c, 2, 68, 0
4, 124860, Note_on_c, 2, 62, 74
4, 124910, Note_off_c, 2, 62, 0
4, 124920, Note_on_c, 2, 65, 74
4, 124970, Note_off_c, 2, 65, 0
4, 124980, Note_on_c, 2, 67, 74
4, 125030, Note_off_c, 2, 67, 0
4, 125040, Note_on_c, 2, 68, 73
4, 125090, Note_off_c, 2, 68, 0
4, 125100, Note_on_c, 2, 62, 73
4, 125150, Note_off_c, 2, 62, 0
4, 125160, Note_on_c, 2, 65, 73
4, 125210, Note_off_c, 2, 65, 0
4, 125220, Note_on_c, 2, 67, 73
4, 125270, Note_off_c, 2, 67, 0
4, 125280, Note_on_c, 2, 68, 82
4, 125330, Note_off_c, 2, 68, 0
4, 125340, Note_on_c, 2, 67, 72
4, 125390, Note_off_c, 2, 67, 0
4, 125400, Note_on_c, 2, 65, 72
4, 125450, Note_off_c, 2, 65, 0
4, 125460, Note_on_c, 2, 63, 72
4, 125510, Note_off_c, 2, 63, 0
4, 125520, Note_on_c, 2, 62, 72
4, 125570, Note_off_c, 2, 62, 0
4, 125580, Note_on_c, 2, 63, 72
4, 125630, Note_off_c, 2, 63, 0
4, 125640, Note_on_c, 2, 65, 71
4, 125690, Note_off_c, 2, 65, 0
4, 125700, Note_on_c, 2, 67, 71
4, 125750, Note_off_c, 2, 67, 0
4, 125760, Note_on_c, 2, 65, 71
4, 125810, Note_off_c, 2, 65, 0
4, 125820, Note_on_c, 2, 63, 71
4, 125870, Note_off_c, 2, 63, 0
4, 125880, Note_on_c, 2, 62, 70
4, 125930, Note_off_c, 2, 62, 0
4, 125940, Note_on_c, 2, 60, 70
4, 125990, Note_off_c, 2, 60, 0
4, 126000, Note_on_c, 2, 59, 70
4, 126050, Note_off_c, 2, 59, 0
4, 126060, Note_on_c, 2, 60, 70
4, 126110, Note_off_c, 2, 60, 0
4, 126120, Note_on_c, 2, 62, 69
4, 126170, Note_off_c, 2, 62, 0
4, 126180, Note_on_c, 2, 63, 69
4, 126230, Note_off_c, 2, 63, 0
4, 126240, Note_on_c, 2, 62, 69
4, 126290, Note_off_c, 2, 62, 0
4, 126300, Note_on_c, 2, 60, 69
4, 126350, Note_off_c, 2, 60, 0
4, 126360, Note_on_c, 2, 59, 68
4, 126410, Note_off_c, 2, 59, 0
4, 126420, Note_on_c, 2, 56, 68
4, 126470, Note_off_c, 2, 56, 0
4, 126480, Note_on_c, 2, 55, 68
4, 126530, Note_off_c, 2, 55, 0
4, 126540, Note_on_c, 2, 53, 68
4, 126590, Note_off_c, 2, 53, 0
4, 126600, Note_on_c, 2, 51, 67
4, 126650, Note_off_c, 2, 51, 0
4, 126660, Note_on_c, 2, 50, 67
4, 126710, Note_off_c, 2, 50, 0
4, 126720, Note_on_c, 2, 48, 77
4, 126770, Note_off_c, 2, 48, 0
4, 126780, Note_on_c, 2, 51, 67
4, 126830, Note_off_c, 2, 51, 0
4, 126840, Note_on_c, 2, 55, 66
4, 126890, Note_off_c, 2, 55, 0
4, 126900, Note_on_c, 2, 53, 66
4, 126950, Note_off_c, 2, 53, 0
4, 126960, Note_on_c, 2, 51, 66
4, 127010, Note_off_c, 2, 51, 0
4, 127020, Note_on_c, 2, 50, 66
4, 127070, Note_off_c, 2, 50, 0
4, 127080, Note_on_c, 2, 48, 65
4, 127130, Note_off_c, 2, 48, 0
4, 127140, Note_on_c, 2, 47, 65
4, 127190, Note_off_c, 2, 47, 0
4, 127200, Note_on_c, 2, 48, 65
4, 127250, Note_off_c, 2, 48, 0
4, 127260, Note_on_c, 2, 50, 65
4, 127310, Note_off_c, 2, 50, 0
4, 127320, Note_on_c, 2, 51, 64
4, 127370, Note_off_c, 2, 51, 0
4, 127380, Note_on_c, 2, 50, 64
4, 127430, Note_off_c, 2, 50, 0
4, 127440, Note_on_c, 2, 48, 64
4, 127490, Note_off_c, 2, 48, 0
4, 127500, Note_on_c, 2, 46, 64
4, 127550, Note_off_c, 2, 46, 0
4, 127560, Note_on_c, 2, 44, 63
4, 127610, Note_off_c, 2, 44, 0
4, 127620, Note_on_c, 2, 43, 63
4, 127670, Note_off_c, 2, 43, 0
4, 127680, Note_on_c, 2, 44, 63
4, 127730, Note_off_c, 2, 44, 0
4, 127740, Note_on_c, 2, 43, 63
4, 127790, Note_off_c, 2, 43, 0
4, 127800, Note_on_c, 2, 41, 62
4, 127850, Note_off_c, 2, 41, 0
4, 127860, Note_on_c, 2, 39, 62
4, 127910, Note_off_c, 2, 39, 0
4, 127920, Note_on_c, 2, 38, 62
4, 127970, Note_off_c, 2, 38, 0
4, 127980, Note_on_c, 2, 39, 62
4, 128030, Note_off_c, 2, 39, 0
4, 128040, Note_on_c, 2, 41, 61
4, 128090, Note_off_c, 2, 41, 0
4, 128100, Note_on_c, 2, 43, 61
4, 128150, Note_off_c, 2, 43, 0
4, 128160, Note_on_c, 2, 36, 70
4, 128352, Note_off_c, 2, 36, 0
4, 128400, Note_on_c, 2, 43, 82
4, 128400, Note_on_c, 2, 31, 82
4, 128880, Note_off_c, 2, 31, 0
4, 128880, Note_off_c, 2, 43, 0
4, 128880, Note_on_c, 2, 41, 70
4, 128880, Note_on_c, 2, 29, 70
4, 128975, Note_off_c, 2, 29, 0
4, 128975, Note_off_c, 2, 41, 0
4, 129120, Note_on_c, 2, 27, 69
4, 129120, Note_on_c, 2, 39, 69
4, 129215, Note_off_c, 2, 39, 0
4, 129215, Note_off_c, 2, 27, 0
4, 129360, Note_on_c, 2, 24, 67
4, 129360, Note_on_c, 2, 36, 67
4, 129455, Note_off_c, 2, 36, 0
4, 129455, Note_off_c, 2, 24, 0
4, 129600, Note_on_c, 2, 23, 66
4, 129600, Note_on_c, 2, 34, 66
4, 129755, Note_off_c, 2, 34, 0
4, 129755, Note_off_c, 2, 23, 0
4, 129840, Note_on_c, 2, 38, 86
4, 129840, Note_on_c, 2, 50, 86
4, 130320, Note_off_c, 2, 50, 0
4, 130320, Note_off_c, 2, 38, 0
4, 130320, Note_on_c, 2, 48, 79
4, 130320, Note_on_c, 2, 36, 79
4, 130415, Note_off_c, 2, 36, 0
4, 130415, Note_off_c, 2, 48, 0
4, 130560, Note_on_c, 2, 47, 77
4, 130560, Note_on_c, 2, 35, 77
4, 130655, Note_off_c, 2, 35, 0
4, 130655, Note_off_c, 2, 47, 0
4, 130800, Note_on_c, 2, 43, 74
4, 130800, Note_on_c, 2, 31, 74
4, 130895, Note_off_c, 2, 31, 0
4, 130895, Note_off_c, 2, 43, 0
4, 131280, Note_on_c, 2, 55, 96
4, 131280, Note_on_c, 2, 43, 96
4, 131760, Note_off_c, 2, 43, 0
4, 131760, Note_off_c, 2, 55, 0
4, 131760, Note_on_c, 2, 41, 88
4, 131760, Note_on_c, 2, 53, 88
4, 131855, Note_off_c, 2, 53, 0
4, 131855, Note_off_c, 2, 41, 0
4, 132000, Note_on_c, 2, 52, 85
4, 132000, Note_on_c, 2, 40, 85
4, 132095, Note_off_c, 2, 40, 0
4, 132095, Note_off_c, 2, 52, 0
4, 132240, Note_on_c, 2, 48, 82
4, 132240, Note_on_c, 2, 36, 82
4, 132335, Note_off_c, 2, 36, 0
4, 132335, Note_off_c, 2, 48, 0
4, 132720, Note_on_c, 2, 60, 107
4, 132720, Note_on_c, 2, 48, 107
4, 133200, Note_off_c, 2, 48, 0
4, 133200, Note_off_c, 2, 60, 0
4, 133200, Note_on_c, 2, 58, 98
4, 133200, Note_on_c, 2, 46, 98
4, 133295, Note_off_c, 2, 46, 0
4, 133295, Note_off_c, 2, 58, 0
4, 133440, Note_on_c, 2, 45, 96
4, 133440, Note_on_c, 2, 57, 96
4, 133535, Note_off_c, 2, 57, 0
4, 133535, Note_off_c, 2, 45, 0
4, 133680, Note_on_c, 2, 53, 94
4, 133680, Note_on_c, 2, 41, 94
4, 133775, Note_off_c, 2, 41, 0
4, 133775, Note_off_c, 2, 53, 0
4, 134160, Note_on_c, 2, 63, 113
4, 134160, Note_on_c, 2, 51, 113
4, 134640, Note_off_c, 2, 51, 0
4, 134640, Note_off_c, 2, 63, 0
4, 134640, Note_on_c, 2, 62, 105
4, 134640, Note_on_c, 2, 50, 105
4, 134735, Note_off_c, 2, 50, 0
4, 134735, Note_off_c, 2, 62, 0
4, 134880, Note_on_c, 2, 48, 103
4, 134880, Note_on_c, 2, 60, 103
4, 134975, Note_off_c, 2, 60, 0
4, 134975, Note_off_c, 2, 48, 0
4, 135120, Note_on_c, 2, 45, 101
4, 135120, Note_on_c, 2, 57, 101
4, 135215, Note_off_c, 2, 57, 0
4, 135215, Note_off_c, 2, 45, 0
4, 135600, Note_on_c, 2, 68, 119
4, 135600, Note_on_c, 2, 56, 119
4, 136080, Note_off_c, 2, 56, 0
4, 136080, Note_off_c, 2, 68, 0
4, 136080, Note_on_c, 2, 53, 125
4, 136080, Note_on_c, 2, 41, 125
4, 136560, Note_off_c, 2, 41, 0
4, 136560, Note_off_c, 2, 53, 0
4, 136560, Note_on_c, 2, 50, 121
4, 136560, Note_on_c, 2, 62, 121
4, 137040, Note_off_c, 2, 62, 0
4, 137040, Note_off_c, 2, 50, 0
4, 137040, Note_on_c, 2, 59, 117
4, 137040, Note_on_c, 2, 47, 117
4, 137520, Note_off_c, 2, 47, 0
4, 137520, Note_off_c, 2, 59, 0
4, 137520, Note_on_c, 2, 43, 114
4, 137520, Note_on_c, 2, 55, 114
4, 138000, Note_off_c, 2, 55, 0
4, 138000, Note_off_c, 2, 43, 0
4, 138000, Note_on_c, 2, 43, 114
4, 138000, Note_on_c, 2, 31, 114
4, 138155, Note_off_c, 2, 31, 0
4, 138155, Note_off_c, 2, 43, 0
4, 138240, Note_on_c, 2, 48, 112
4, 138240, Note_on_c, 2, 36, 112
4, 138395, Note_off_c, 2, 36, 0
4, 138395, Note_off_c, 2, 48, 0
4, 138720, Note_on_c, 2, 60, 99
4, 138770, Note_off_c, 2, 60, 0
4, 138780, Note_on_c, 2, 59, 96
4, 138830, Note_off_c, 2, 59, 0
4, 138840, Note_on_c, 2, 56, 93
4, 138890, Note_off_c, 2, 56, 0
4, 138900, Note_on_c, 2, 55, 90
4, 138950, Note_off_c, 2, 55, 0
4, 138960, Note_on_c, 2, 53, 87
4, 139010, Note_off_c, 2, 53, 0
4, 139020, Note_on_c, 2, 51, 84
4, 139070, Note_off_c, 2, 51, 0
4, 139080, Note_on_c, 2, 50, 81
4, 139130, Note_off_c, 2, 50, 0
4, 139140, Note_on_c, 2, 48, 78
4, 139190, Note_off_c, 2, 48, 0
4, 139200, Note_on_c, 2, 47, 75
4, 139250, Note_off_c, 2, 47, 0
4, 139260, Note_on_c, 2, 44, 72
4, 139310, Note_off_c, 2, 44, 0
4, 139320, Note_on_c, 2, 43, 69
4, 139370, Note_off_c, 2, 43, 0
4, 139380, Note_on_c, 2, 41, 66
4, 139430, Note_off_c, 2, 41, 0
4, 139440, Note_on_c, 2, 39, 63
4, 139490, Note_off_c, 2, 39, 0
4, 139500, Note_on_c, 2, 38, 59
4, 139680, Note_off_c, 2, 38, 0
4, 139680, Note_on_c, 2, 36, 50
4, 140160, Note_on_c, 2, 43, 39
4, 140622, Note_off_c, 2, 43, 0
4, 140640, Note_on_c, 2, 48, 38
4, 141102, Note_off_c, 2, 48, 0
4, 141102, Note_off_c, 2, 36, 0
4, 141120, Note_on_c, 2, 35, 46
4, 141600, Note_on_c, 2, 43, 39
4, 142062, Note_off_c, 2, 43, 0
4, 142080, Note_on_c, 2, 47, 38
4, 142542, Note_off_c, 2, 47, 0
4, 142542, Note_off_c, 2, 35, 0
4, 142560, Note_on_c, 2, 37, 49
4, 143040, Note_on_c, 2, 45, 43
4, 143502, Note_off_c, 2, 45, 0
4, 143520, Note_on_c, 2, 49, 44
4, 143982, Note_off_c, 2, 49, 0
4, 143982, Note_off_c, 2, 37, 0
4, 144000, Note_on_c, 2, 38, 52
4, 144480, Note_on_c, 2, 45, 44
4, 144942, Note_off_c, 2, 45, 0
4, 144960, Note_on_c, 2, 50, 45
4, 145422, Note_off_c, 2, 50, 0
4, 145422, Note_off_c, 2, 38, 0
4, 145440, Note_on_c, 2, 39, 56
4, 145920, Note_on_c, 2, 48, 50
4, 146382, Note_off_c, 2, 48, 0
4, 146400, Note_on_c, 2, 51, 50
4, 146862, Note_off_c, 2, 51, 0
4, 146862, Note_off_c, 2, 39, 0
4, 146880, Note_on_c, 2, 40, 59
4, 147342, Note_off_c, 2, 40, 0
4, 147360, Note_on_c, 2, 41, 71
4, 147360, Note_on_c, 2, 29, 71
4, 147822, Note_off_c, 2, 29, 0
4, 147822, Note_off_c, 2, 41, 0
4, 147840, Note_on_c, 2, 42, 81
4, 147840, Note_on_c, 2, 30, 81
4, 148782, Note_off_c, 2, 30, 0
4, 148782, Note_off_c, 2, 42, 0
4, 148800, Note_on_c, 2, 43, 70
4, 148800, Note_on_c, 2, 31, 70
4, 150222, Note_off_c, 2, 31, 0
4, 150222, Note_off_c, 2, 43, 0
4, 150240, Note_on_c, 2, 40, 59
4, 150436, Note_off_c, 2, 40, 0
4, 150720, Note_on_c, 2, 36, 55
4, 150934, Note_off_c, 2, 36, 0
4, 151680, Note_on_c, 2, 60, 56
4, 152520, Note_off_c, 2, 60, 0
4, 152520, Note_on_c, 2, 64, 57
4, 152640, Note_off_c, 2, 64, 0
4, 152640, Note_on_c, 2, 62, 58
4, 152846, Note_off_c, 2, 62, 0
4, 153120, Note_on_c, 2, 55, 59
4, 153960, Note_off_c, 2, 55, 0
4, 153960, Note_on_c, 2, 62, 60
4, 154080, Note_off_c, 2, 62, 0
4, 154080, Note_on_c, 2, 64, 60
4, 154286, Note_off_c, 2, 64, 0
4, 154560, Note_on_c, 2, 64, 61
4, 155400, Note_on_c, 2, 67, 63
4, 155420, Note_off_c, 2, 64, 0
4, 155520, Note_off_c, 2, 67, 0
4, 155520, Note_on_c, 2, 64, 63
4, 155726, Note_off_c, 2, 64, 0
4, 156000, Note_on_c, 2, 65, 64
4, 156780, Note_off_c, 2, 65, 0
4, 156840, Note_on_c, 2, 65, 66
4, 156920, Note_off_c, 2, 65, 0
4, 156960, Note_on_c, 2, 66, 70
4, 157166, Note_off_c, 2, 66, 0
4, 157440, Note_on_c, 2, 66, 72
4, 158240, Note_off_c, 2, 66, 0
4, 158280, Note_on_c, 2, 66, 77
4, 158360, Note_off_c, 2, 66, 0
4, 158400, Note_on_c, 2, 67, 80
4, 158606, Note_off_c, 2, 67, 0
4, 158880, Note_on_c, 2, 69, 92
4, 160140, Note_off_c, 2, 69, 0
4, 160200, Note_on_c, 2, 69, 76
4, 160280, Note_off_c, 2, 69, 0
4, 160320, Note_on_c, 2, 65, 75
4, 160595, Note_off_c, 2, 65, 0
4, 160800, Note_on_c, 2, 67, 68
4, 161075, Note_off_c, 2, 67, 0
4, 161280, Note_on_c, 2, 60, 61
4, 161562, Note_off_c, 2, 60, 0
4, 163200, Note_on_c, 2, 52, 62
4, 163200, Note_on_c, 2, 48, 62
4, 164035, Note_off_c, 2, 52, 0
4, 164040, Note_on_c, 2, 55, 63
4, 164040, Note_on_c, 2, 52, 63
4, 164045, Note_off_c, 2, 48, 0
4, 164160, Note_off_c, 2, 52, 0
4, 164160, Note_off_c, 2, 55, 0
4, 164160, Note_on_c, 2, 50, 64
4, 164160, Note_on_c, 2, 53, 64
4, 164470, Note_off_c, 2, 53, 0
4, 164470, Note_off_c, 2, 50, 0
4, 164640, Note_on_c, 2, 43, 64
4, 164640, Note_on_c, 2, 50, 64
4, 165470, Note_off_c, 2, 50, 0
4, 165470, Note_off_c, 2, 43, 0
4, 165480, Note_on_c, 2, 53, 66
4, 165480, Note_on_c, 2, 50, 66
4, 165600, Note_off_c, 2, 50, 0
4, 165600, Note_off_c, 2, 53, 0
4, 165600, Note_on_c, 2, 52, 66
4, 165600, Note_on_c, 2, 55, 66
4, 165910, Note_off_c, 2, 55, 0
4, 165910, Note_off_c, 2, 52, 0
4, 166080, Note_on_c, 2, 55, 67
4, 166080, Note_on_c, 2, 52, 67
4, 166865, Note_off_c, 2, 52, 0
4, 166865, Note_off_c, 2, 55, 0
4, 166920, Note_on_c, 2, 55, 68
4, 166920, Note_on_c, 2, 58, 68
4, 167040, Note_off_c, 2, 58, 0
4, 167040, Note_off_c, 2, 55, 0
4, 167040, Note_on_c, 2, 55, 68
4, 167040, Note_on_c, 2, 52, 68
4, 167350, Note_off_c, 2, 52, 0
4, 167350, Note_off_c, 2, 55, 0
4, 167520, Note_on_c, 2, 53, 69
4, 167520, Note_on_c, 2, 57, 69
4, 168300, Note_off_c, 2, 57, 0
4, 168300, Note_off_c, 2, 53, 0
4, 168360, Note_on_c, 2, 57, 70
4, 168360, Note_on_c, 2, 53, 70
4, 168440, Note_off_c, 2, 53, 0
4, 168440, Note_off_c, 2, 57, 0
4, 168480, Note_on_c, 2, 54, 71
4, 168480, Note_on_c, 2, 57, 71
4, 168790, Note_off_c, 2, 57, 0
4, 168790, Note_off_c, 2, 54, 0
4, 168960, Note_on_c, 2, 57, 71
4, 168960, Note_on_c, 2, 54, 71
4, 169740, Note_off_c, 2, 54, 0
4, 169740, Note_off_c, 2, 57, 0
4, 169800, Note_on_c, 2, 57, 80
4, 169800, Note_on_c, 2, 54, 80
4, 169880, Note_off_c, 2, 54, 0
4, 169880, Note_off_c, 2, 57, 0
4, 169920, Note_on_c, 2, 55, 82
4, 169920, Note_on_c, 2, 59, 82
4, 170220, Note_off_c, 2, 55, 0
4, 170227, Note_off_c, 2, 59, 0
4, 170400, Note_on_c, 2, 57, 86
4, 170400, Note_on_c, 2, 60, 86
4, 171660, Note_off_c, 2, 60, 0
4, 171660, Note_off_c, 2, 57, 0
4, 171720, Note_on_c, 2, 60, 68
4, 171720, Note_on_c, 2, 57, 68
4, 171800, Note_off_c, 2, 57, 0
4, 171800, Note_off_c, 2, 60, 0
4, 171840, Note_on_c, 2, 53, 67
4, 171840, Note_on_c, 2, 57, 67
4, 172149, Note_off_c, 2, 53, 0
4, 172156, Note_off_c, 2, 57, 0
4, 172320, Note_on_c, 2, 55, 64
4, 172320, Note_on_c, 2, 59, 64
4, 172629, Note_off_c, 2, 59, 0
4, 172629, Note_off_c, 2, 55, 0
4, 172800, Note_on_c, 2, 48, 61
4, 172800, Note_on_c, 2, 60, 61
4, 173116, Note_off_c, 2, 60, 0
4, 173124, Note_off_c, 2, 48, 0
4, 173640, Note_on_c, 2, 43, 60
4, 173720, Note_off_c, 2, 43, 0
4, 173760, Note_on_c, 2, 36, 59
4, 174070, Note_off_c, 2, 36, 0
4, 174240, Note_on_c, 2, 36, 38
4, 174400, Note_on_c, 2, 43, 39
4, 174560, Note_on_c, 2, 48, 39
4, 174573, Note_off_c, 2, 43, 0
4, 174573, Note_off_c, 2, 36, 0
4, 174720, Note_on_c, 2, 36, 40
4, 174733, Note_off_c, 2, 48, 0
4, 174880, Note_on_c, 2, 43, 41
4, 175040, Note_on_c, 2, 48, 41
4, 175053, Note_off_c, 2, 43, 0
4, 175053, Note_off_c, 2, 36, 0
4, 175200, Note_on_c, 2, 36, 42
4, 175213, Note_off_c, 2, 48, 0
4, 175360, Note_on_c, 2, 43, 43
4, 175520, Note_on_c, 2, 48, 43
4, 175533, Note_off_c, 2, 43, 0
4, 175533, Note_off_c, 2, 36, 0
4, 175680, Note_on_c, 2, 35, 44
4, 175693, Note_off_c, 2, 48, 0
4, 175840, Note_on_c, 2, 43, 44
4, 176000, Note_on_c, 2, 50, 45
4, 176013, Note_off_c, 2, 43, 0
4, 176013, Note_off_c, 2, 35, 0
4, 176160, Note_on_c, 2, 35, 46
4, 176173, Note_off_c, 2, 50, 0
4, 176320, Note_on_c, 2, 43, 46
4, 176480, Note_on_c, 2, 50, 47
4, 176493, Note_off_c, 2, 43, 0
4, 176493, Note_off_c, 2, 35, 0
4, 176640, Note_on_c, 2, 35, 47
4, 176653, Note_off_c, 2, 50, 0
4, 176800, Note_on_c, 2, 43, 48
4, 176960, Note_on_c, 2, 50, 49
4, 176973, Note_off_c, 2, 43, 0
4, 176973, Note_off_c, 2, 35, 0
4, 177120, Note_on_c, 2, 37, 49
4, 177133, Note_off_c, 2, 50, 0
4, 177280, Note_on_c, 2, 43, 50
4, 177440, Note_on_c, 2, 52, 50
4, 177453, Note_off_c, 2, 43, 0
4, 177453, Note_off_c, 2, 37, 0
4, 177600, Note_on_c, 2, 37, 51
4, 177613, Note_off_c, 2, 52, 0
4, 177760, Note_on_c, 2, 45, 52
4, 177920, Note_on_c, 2, 52, 52
4, 177933, Note_off_c, 2, 45, 0
4, 177933, Note_off_c, 2, 37, 0
4, 178080, Note_on_c, 2, 37, 53
4, 178093, Note_off_c, 2, 52, 0
4, 178240, Note_on_c, 2, 45, 53
4, 178400, Note_on_c, 2, 52, 54
4, 178413, Note_off_c, 2, 45, 0
4, 178413, Note_off_c, 2, 37, 0
4, 178560, Note_on_c, 2, 38, 55
4, 178573, Note_off_c, 2, 52, 0
4, 178720, Note_on_c, 2, 45, 55
4, 178880, Note_on_c, 2, 53, 56
4, 178893, Note_off_c, 2, 45, 0
4, 178893, Note_off_c, 2, 38, 0
4, 179040, Note_on_c, 2, 38, 57
4, 179053, Note_off_c, 2, 53, 0
4, 179200, Note_on_c, 2, 45, 57
4, 179360, Note_on_c, 2, 53, 58
4, 179373, Note_off_c, 2, 45, 0
4, 179373, Note_off_c, 2, 38, 0
4, 179520, Note_on_c, 2, 38, 58
4, 179533, Note_off_c, 2, 53, 0
4, 179680, Note_on_c, 2, 45, 59
4, 179840, Note_on_c, 2, 53, 60
4, 179853, Note_off_c, 2, 45, 0
4, 179853, Note_off_c, 2, 38, 0
4, 180000, Note_on_c, 2, 39, 60
4, 180013, Note_off_c, 2, 53, 0
4, 180160, Note_on_c, 2, 47, 61
4, 180320, Note_on_c, 2, 54, 61
4, 180333, Note_off_c, 2, 47, 0
4, 180333, Note_off_c, 2, 39, 0
4, 180480, Note_on_c, 2, 39, 62
4, 180493, Note_off_c, 2, 54, 0
4, 180640, Note_on_c, 2, 47, 63
4, 180800, Note_on_c, 2, 54, 63
4, 180813, Note_off_c, 2, 47, 0
4, 180813, Note_off_c, 2, 39, 0
4, 180960, Note_on_c, 2, 39, 64
4, 180973, Note_off_c, 2, 54, 0
4, 181120, Note_on_c, 2, 47, 64
4, 181280, Note_on_c, 2, 54, 65
4, 181293, Note_off_c, 2, 47, 0
4, 181293, Note_off_c, 2, 39, 0
4, 181440, Note_on_c, 2, 40, 66
4, 181453, Note_off_c, 2, 54, 0
4, 181600, Note_on_c, 2, 48, 66
4, 181760, Note_on_c, 2, 55, 67
4, 181773, Note_off_c, 2, 48, 0
4, 181773, Note_off_c, 2, 40, 0
4, 181920, Note_on_c, 2, 41, 64
4, 181933, Note_off_c, 2, 55, 0
4, 182080, Note_on_c, 2, 48, 64
4, 182240, Note_on_c, 2, 57, 65
4, 182253, Note_off_c, 2, 48, 0
4, 182253, Note_off_c, 2, 41, 0
4, 182400, Note_on_c, 2, 41, 65
4, 182413, Note_off_c, 2, 57, 0
4, 182560, Note_on_c, 2, 49, 63
4, 182720, Note_on_c, 2, 57, 62
4, 182733, Note_off_c, 2, 49, 0
4, 182733, Note_off_c, 2, 41, 0
4, 182880, Note_on_c, 2, 41, 61
4, 182893, Note_off_c, 2, 57, 0
4, 183040, Note_on_c, 2, 50, 60
4, 183200, Note_on_c, 2, 57, 58
4, 183213, Note_off_c, 2, 50, 0
4, 183213, Note_off_c, 2, 41, 0
4, 183360, Note_on_c, 2, 43, 57
4, 183373, Note_off_c, 2, 57, 0
4, 183520, Note_on_c, 2, 50, 56
4, 183661, Note_off_c, 2, 43, 0
4, 183680, Note_on_c, 2, 59, 55
4, 183693, Note_off_c, 2, 50, 0
4, 183840, Note_on_c, 2, 43, 54
4, 183853, Note_off_c, 2, 59, 0
4, 184000, Note_on_c, 2, 53, 52
4, 184141, Note_off_c, 2, 43, 0
4, 184160, Note_on_c, 2, 59, 51
4, 184173, Note_off_c, 2, 53, 0
4, 184320, Note_on_c, 2, 60, 50
4, 184320, Note_on_c, 2, 48, 50
4, 184320, Note_on_c, 2, 52, 50
4, 184333, Note_off_c, 2, 59, 0
4, 184710, Note_off_c, 2, 52, 0
4, 184710, Note_off_c, 2, 48, 0
4, 184710, Note_off_c, 2, 60, 0
4, 185760, Note_on_c, 2, 36, 44
4, 185920, Note_on_c, 2, 43, 45
4, 186048, Note_off_c, 2, 36, 0
4, 186080, Note_off_c, 2, 43, 0
4, 186080, Note_on_c, 2, 48, 45
4, 186240, Note_off_c, 2, 48, 0
4, 186240, Note_on_c, 2, 36, 46
4, 186400, Note_on_c, 2, 43, 46
4, 186528, Note_off_c, 2, 36, 0
4, 186560, Note_off_c, 2, 43, 0
4, 186560, Note_on_c, 2, 48, 47
4, 186720, Note_off_c, 2, 48, 0
4, 186720, Note_on_c, 2, 36, 48
4, 186880, Note_on_c, 2, 43, 48
4, 187008, Note_off_c, 2, 36, 0
4, 187040, Note_off_c, 2, 43, 0
4, 187040, Note_on_c, 2, 48, 49
4, 187200, Note_off_c, 2, 48, 0
4, 187200, Note_on_c, 2, 35, 49
4, 187360, Note_on_c, 2, 43, 50
4, 187488, Note_off_c, 2, 35, 0
4, 187520, Note_off_c, 2, 43, 0
4, 187520, Note_on_c, 2, 50, 50
4, 187680, Note_off_c, 2, 50, 0
4, 187680, Note_on_c, 2, 35, 51
4, 187840, Note_on_c, 2, 43, 52
4, 187968, Note_off_c, 2, 35, 0
4, 188000, Note_off_c, 2, 43, 0
4, 188000, Note_on_c, 2, 50, 52
4, 188160, Note_off_c, 2, 50, 0
4, 188160, Note_on_c, 2, 35, 53
4, 188320, Note_on_c, 2, 43, 53
4, 188448, Note_off_c, 2, 35, 0
4, 188480, Note_off_c, 2, 43, 0
4, 188480, Note_on_c, 2, 50, 54
4, 188640, Note_off_c, 2, 50, 0
4, 188640, Note_on_c, 2, 37, 55
4, 188800, Note_on_c, 2, 43, 55
4, 188928, Note_off_c, 2, 37, 0
4, 188960, Note_off_c, 2, 43, 0
4, 188960, Note_on_c, 2, 52, 56
4, 189120, Note_off_c, 2, 52, 0
4, 189120, Note_on_c, 2, 37, 56
4, 189280, Note_on_c, 2, 45, 57
4, 189408, Note_off_c, 2, 37, 0
4, 189440, Note_off_c, 2, 45, 0
4, 189440, Note_on_c, 2, 52, 58
4, 189600, Note_off_c, 2, 52, 0
4, 189600, Note_on_c, 2, 37, 58
4, 189760, Note_on_c, 2, 45, 59
4, 189888, Note_off_c, 2, 37, 0
4, 189920, Note_off_c, 2, 45, 0
4, 189920, Note_on_c, 2, 52, 59
4, 190080, Note_off_c, 2, 52, 0
4, 190080, Note_on_c, 2, 38, 60
4, 190240, Note_on_c, 2, 45, 60
4, 190368, Note_off_c, 2, 38, 0
4, 190400, Note_off_c, 2, 45, 0
4, 190400, Note_on_c, 2, 53, 61
4, 190560, Note_off_c, 2, 53, 0
4, 190560, Note_on_c, 2, 38, 62
4, 190720, Note_on_c, 2, 45, 62
4, 190848, Note_off_c, 2, 38, 0
4, 190880, Note_off_c, 2, 45, 0
4, 190880, Note_on_c, 2, 53, 63
4, 191040, Note_off_c, 2, 53, 0
4, 191040, Note_on_c, 2, 38, 63
4, 191200, Note_on_c, 2, 45, 64
4, 191328, Note_off_c, 2, 38, 0
4, 191360, Note_off_c, 2, 45, 0
4, 191360, Note_on_c, 2, 53, 65
4, 191520, Note_off_c, 2, 53, 0
4, 191520, Note_on_c, 2, 39, 65
4, 191680, Note_on_c, 2, 47, 66
4, 191808, Note_off_c, 2, 39, 0
4, 191840, Note_off_c, 2, 47, 0
4, 191840, Note_on_c, 2, 54, 66
4, 192000, Note_off_c, 2, 54, 0
4, 192000, Note_on_c, 2, 39, 67
4, 192160, Note_on_c, 2, 47, 68
4, 192288, Note_off_c, 2, 39, 0
4, 192320, Note_off_c, 2, 47, 0
4, 192320, Note_on_c, 2, 54, 68
4, 192480, Note_off_c, 2, 54, 0
4, 192480, Note_on_c, 2, 39, 69
4, 192640, Note_on_c, 2, 47, 69
4, 192768, Note_off_c, 2, 39, 0
4, 192800, Note_off_c, 2, 47, 0
4, 192800, Note_on_c, 2, 54, 70
4, 192960, Note_off_c, 2, 54, 0
4, 192960, Note_on_c, 2, 40, 70
4, 193120, Note_on_c, 2, 48, 71
4, 193248, Note_off_c, 2, 40, 0
4, 193280, Note_off_c, 2, 48, 0
4, 193280, Note_on_c, 2, 55, 72
4, 193440, Note_off_c, 2, 55, 0
4, 193440, Note_on_c, 2, 41, 72
4, 193600, Note_on_c, 2, 48, 73
4, 193728, Note_off_c, 2, 41, 0
4, 193760, Note_off_c, 2, 48, 0
4, 193760, Note_on_c, 2, 57, 73
4, 193920, Note_off_c, 2, 57, 0
4, 193920, Note_on_c, 2, 41, 74
4, 194080, Note_on_c, 2, 49, 75
4, 194208, Note_off_c, 2, 41, 0
4, 194240, Note_off_c, 2, 49, 0
4, 194240, Note_on_c, 2, 57, 75
4, 194400, Note_off_c, 2, 57, 0
4, 194400, Note_on_c, 2, 41, 74
4, 194560, Note_on_c, 2, 50, 73
4, 194688, Note_off_c, 2, 41, 0
4, 194720, Note_off_c, 2, 50, 0
4, 194720, Note_on_c, 2, 57, 71
4, 194835, Note_on_c, 2, 43, 69
4, 194880, Note_off_c, 2, 57, 0
4, 195040, Note_on_c, 2, 50, 68
4, 195123, Note_off_c, 2, 43, 0
4, 195200, Note_off_c, 2, 50, 0
4, 195200, Note_on_c, 2, 59, 66
4, 195360, Note_off_c, 2, 59, 0
4, 195395, Note_on_c, 2, 43, 64
4, 195520, Note_on_c, 2, 53, 63
4, 195680, Note_off_c, 2, 53, 0
4, 195680, Note_on_c, 2, 59, 61
4, 195683, Note_off_c, 2, 43, 0
4, 195840, Note_off_c, 2, 59, 0
4, 195840, Note_on_c, 2, 52, 59
4, 195840, Note_on_c, 2, 48, 59
4, 195840, Note_on_c, 2, 60, 59
4, 196230, Note_off_c, 2, 60, 0
4, 196230, Note_off_c, 2, 48, 0
4, 196230, Note_off_c, 2, 52, 0
4, 197280, Note_on_c, 2, 48, 60
4, 197400, Note_on_c, 2, 63, 46
4, 197520, Note_off_c, 2, 63, 0
4, 197520, Note_on_c, 2, 60, 46
4, 197640, Note_off_c, 2, 60, 0
4, 197640, Note_on_c, 2, 63, 46
4, 197760, Note_off_c, 2, 63, 0
4, 197760, Note_on_c, 2, 55, 46
4, 197880, Note_off_c, 2, 55, 0
4, 197880, Note_on_c, 2, 63, 46
4, 198000, Note_off_c, 2, 63, 0
4, 198000, Note_on_c, 2, 60, 46
4, 198120, Note_off_c, 2, 60, 0
4, 198120, Note_on_c, 2, 63, 46
4, 198240, Note_off_c, 2, 63, 0
4, 198240, Note_on_c, 2, 55, 46
4, 198360, Note_off_c, 2, 55, 0
4, 198360, Note_on_c, 2, 63, 46
4, 198480, Note_off_c, 2, 63, 0
4, 198480, Note_on_c, 2, 60, 47
4, 198600, Note_off_c, 2, 60, 0
4, 198600, Note_on_c, 2, 63, 47
4, 198720, Note_off_c, 2, 63, 0
4, 198720, Note_off_c, 2, 48, 0
4, 198720, Note_on_c, 2, 43, 62
4, 198840, Note_on_c, 2, 62, 47
4, 198960, Note_off_c, 2, 62, 0
4, 198960, Note_on_c, 2, 59, 47
4, 199080, Note_off_c, 2, 59, 0
4, 199080, Note_on_c, 2, 62, 47
4, 199200, Note_off_c, 2, 62, 0
4, 199200, Note_on_c, 2, 55, 47
4, 199320, Note_off_c, 2, 55, 0
4, 199320, Note_on_c, 2, 62, 47
4, 199440, Note_off_c, 2, 62, 0
4, 199440, Note_on_c, 2, 59, 47
4, 199560, Note_off_c, 2, 59, 0
4, 199560, Note_on_c, 2, 62, 47
4, 199680, Note_off_c, 2, 62, 0
4, 199680, Note_on_c, 2, 55, 48
4, 199800, Note_off_c, 2, 55, 0
4, 199800, Note_on_c, 2, 62, 48
4, 199920, Note_off_c, 2, 62, 0
4, 199920, Note_on_c, 2, 59, 48
4, 200040, Note_off_c, 2, 59, 0
4, 200040, Note_on_c, 2, 62, 48
4, 200160, Note_off_c, 2, 62, 0
4, 200160, Note_off_c, 2, 43, 0
4, 200160, Note_on_c, 2, 48, 64
4, 200280, Note_on_c, 2, 61, 48
4, 200400, Note_off_c, 2, 61, 0
4, 200400, Note_on_c, 2, 58, 48
4, 200520, Note_off_c, 2, 58, 0
4, 200520, Note_on_c, 2, 61, 48
4, 200640, Note_off_c, 2, 61, 0
4, 200640, Note_on_c, 2, 55, 48
4, 200760, Note_off_c, 2, 55, 0
4, 200760, Note_on_c, 2, 61, 48
4, 200880, Note_off_c, 2, 61, 0
4, 200880, Note_on_c, 2, 58, 49
4, 201000, Note_off_c, 2, 58, 0
4, 201000, Note_on_c, 2, 61, 49
4, 201120, Note_off_c, 2, 61, 0
4, 201120, Note_on_c, 2, 55, 49
4, 201240, Note_off_c, 2, 55, 0
4, 201240, Note_on_c, 2, 60, 49
4, 201360, Note_off_c, 2, 60, 0
4, 201360, Note_on_c, 2, 58, 49
4, 201480, Note_off_c, 2, 58, 0
4, 201480, Note_on_c, 2, 60, 49
4, 201600, Note_off_c, 2, 60, 0
4, 201600, Note_off_c, 2, 48, 0
4, 201600, Note_on_c, 2, 41, 69
4, 201720, Note_on_c, 2, 60, 49
4, 201840, Note_off_c, 2, 60, 0
4, 201840, Note_on_c, 2, 57, 49
4, 201960, Note_off_c, 2, 57, 0
4, 201960, Note_on_c, 2, 60, 49
4, 202080, Note_off_c, 2, 60, 0
4, 202080, Note_on_c, 2, 53, 50
4, 202200, Note_off_c, 2, 53, 0
4, 202200, Note_on_c, 2, 60, 50
4, 202320, Note_off_c, 2, 60, 0
4, 202320, Note_on_c, 2, 57, 50
4, 202440, Note_off_c, 2, 57, 0
4, 202440, Note_on_c, 2, 60, 50
4, 202560, Note_off_c, 2, 60, 0
4, 202560, Note_on_c, 2, 53, 50
4, 202680, Note_off_c, 2, 53, 0
4, 202680, Note_on_c, 2, 60, 50
4, 202800, Note_off_c, 2, 60, 0
4, 202800, Note_on_c, 2, 57, 50
4, 202920, Note_off_c, 2, 57, 0
4, 202920, Note_on_c, 2, 60, 50
4, 203040, Note_off_c, 2, 60, 0
4, 203040, Note_off_c, 2, 41, 0
4, 203040, Note_on_c, 2, 50, 72
4, 203160, Note_on_c, 2, 62, 50
4, 203280, Note_off_c, 2, 62, 0
4, 203280, Note_on_c, 2, 60, 49
4, 203400, Note_off_c, 2, 60, 0
4, 203400, Note_on_c, 2, 62, 50
4, 203520, Note_off_c, 2, 62, 0
4, 203520, Note_on_c, 2, 57, 51
4, 203640, Note_off_c, 2, 57, 0
4, 203640, Note_on_c, 2, 62, 52
4, 203760, Note_off_c, 2, 62, 0
4, 203760, Note_on_c, 2, 60, 53
4, 203880, Note_off_c, 2, 60, 0
4, 203880, Note_on_c, 2, 62, 54
4, 204000, Note_off_c, 2, 62, 0
4, 204000, Note_on_c, 2, 57, 55
4, 204120, Note_off_c, 2, 57, 0
4, 204120, Note_on_c, 2, 62, 56
4, 204240, Note_off_c, 2, 62, 0
4, 204240, Note_on_c, 2, 60, 57
4, 204360, Note_off_c, 2, 60, 0
4, 204360, Note_on_c, 2, 62, 58
4, 204480, Note_off_c, 2, 62, 0
4, 204480, Note_off_c, 2, 50, 0
4, 204480, Note_on_c, 2, 59, 59
4, 204600, Note_off_c, 2, 59, 0
4, 204600, Note_on_c, 2, 62, 60
4, 204720, Note_off_c, 2, 62, 0
4, 204720, Note_on_c, 2, 65, 61
4, 204840, Note_off_c, 2, 65, 0
4, 204840, Note_on_c, 2, 68, 62
4, 204960, Note_off_c, 2, 68, 0
4, 204960, Note_on_c, 2, 53, 84
4, 205680, Note_off_c, 2, 53, 0
4, 205680, Note_on_c, 2, 56, 71
4, 205920, Note_off_c, 2, 56, 0
4, 205920, Note_on_c, 2, 56, 70
4, 206160, Note_off_c, 2, 56, 0
4, 206160, Note_on_c, 2, 55, 69
4, 206400, Note_off_c, 2, 55, 0
4, 206400, Note_on_c, 2, 41, 80
4, 206400, Note_on_c, 2, 53, 67
4, 206640, Note_off_c, 2, 53, 0
4, 206640, Note_on_c, 2, 51, 63
4, 206880, Note_off_c, 2, 51, 0
4, 206880, Note_on_c, 2, 53, 62
4, 207120, Note_off_c, 2, 53, 0
4, 207120, Note_off_c, 2, 41, 0
4, 207120, Note_on_c, 2, 43, 61
4, 207120, Note_on_c, 2, 50, 61
4, 207360, Note_off_c, 2, 50, 0
4, 207360, Note_off_c, 2, 43, 0
4, 207360, Note_on_c, 2, 48, 60
4, 207360, Note_on_c, 2, 43, 60
4, 207600, Note_off_c, 2, 43, 0
4, 207600, Note_on_c, 2, 41, 59
4, 207840, Note_off_c, 2, 41, 0
4, 207840, Note_on_c, 2, 39, 58
4, 208080, Note_off_c, 2, 39, 0
4, 208080, Note_on_c, 2, 38, 57
4, 208320, Note_off_c, 2, 38, 0
4, 208320, Note_on_c, 2, 39, 56
4, 208560, Note_off_c, 2, 39, 0
4, 208560, Note_on_c, 2, 36, 55
4, 208752, Note_off_c, 2, 36, 0
4, 208764, Note_off_c, 2, 48, 0
4, 210240, Note_on_c, 2, 36, 79
4, 210240, Note_on_c, 2, 39, 79
4, 210240, Note_on_c, 2, 43, 79
4, 210240, Note_on_c, 2, 48, 79
4, 211626, Note_off_c, 2, 48, 0
4, 211626, Note_off_c, 2, 43, 0
4, 211626, Note_off_c, 2, 39, 0
4, 211626, Note_off_c, 2, 36, 0
4, 211680, Note_on_c, 2, 35, 81
4, 211680, Note_on_c, 2, 38, 81
4, 211680, Note_on_c, 2, 43, 81
4, 211680, Note_on_c, 2, 31, 81
4, 213066, Note_off_c, 2, 31, 0
4, 213066, Note_off_c, 2, 43, 0
4, 213066, Note_off_c, 2, 38, 0
4, 213066, Note_off_c, 2, 35, 0
4, 213120, Note_on_c, 2, 36, 87
4, 213120, Note_on_c, 2, 48, 87
4, 213120, Note_on_c, 2, 43, 87
4, 213120, Note_on_c, 2, 46, 87
4, 213120, Note_on_c, 2, 40, 87
4, 214506, Note_off_c, 2, 40, 0
4, 214506, Note_off_c, 2, 46, 0
4, 214506, Note_off_c, 2, 43, 0
4, 214506, Note_off_c, 2, 48, 0
4, 214506, Note_off_c, 2, 36, 0
4, 214560, Note_on_c, 2, 36, 92
4, 214560, Note_on_c, 2, 32, 92
4, 214560, Note_on_c, 2, 29, 92
4, 214560, Note_on_c, 2, 41, 92
4, 215946, Note_off_c, 2, 41, 0
4, 215946, Note_off_c, 2, 29, 0
4, 215946, Note_off_c, 2, 32, 0
4, 215946, Note_off_c, 2, 36, 0
4, 216000, Note_on_c, 2, 45, 97
4, 216000, Note_on_c, 2, 42, 97
4, 216000, Note_on_c, 2, 50, 97
4, 216000, Note_on_c, 2, 38, 97
4, 217386, Note_off_c, 2, 38, 0
4, 217386, Note_off_c, 2, 50, 0
4, 217386, Note_off_c, 2, 42, 0
4, 217386, Note_off_c, 2, 45, 0
4, 217440, Note_on_c, 2, 43, 111
4, 217440, Note_on_c, 2, 31, 111
4, 217595, Note_off_c, 2, 31, 0
4, 217595, Note_off_c, 2, 43, 0
4, 217920, Note_on_c, 2, 44, 121
4, 217920, Note_on_c, 2, 32, 121
4, 218075, Note_off_c, 2, 32, 0
4, 218075, Note_off_c, 2, 44, 0
4, 220520, Note_on_c, 2, 48, 89
4, 220560, Note_off_c, 2, 48, 0
4, 220560, Note_on_c, 2, 50, 91
4, 220600, Note_off_c, 2, 50, 0
4, 220600, Note_on_c, 2, 51, 92
4, 220640, Note_off_c, 2, 51, 0
4, 220640, Note_on_c, 2, 53, 93
4, 220680, Note_off_c, 2, 53, 0
4, 220680, Note_on_c, 2, 55, 94
4, 220720, Note_off_c, 2, 55, 0
4, 220720, Note_on_c, 2, 57, 96
4, 220760, Note_off_c, 2, 57, 0
4, 220760, Note_on_c, 2, 59, 97
4, 220800, Note_off_c, 2, 59, 0
4, 220800, Note_on_c, 2, 60, 98
4, 220955, Note_off_c, 2, 60, 0
4, 221000, Note_on_c, 2, 36, 84
4, 221040, Note_off_c, 2, 36, 0
4, 221040, Note_on_c, 2, 38, 85
4, 221080, Note_off_c, 2, 38, 0
4, 221080, Note_on_c, 2, 39, 87
4, 221120, Note_off_c, 2, 39, 0
4, 221120, Note_on_c, 2, 41, 88
4, 221160, Note_off_c, 2, 41, 0
4, 221160, Note_on_c, 2, 43, 90
4, 221200, Note_off_c, 2, 43, 0
4, 221200, Note_on_c, 2, 45, 91
4, 221240, Note_off_c, 2, 45, 0
4, 221240, Note_on_c, 2, 47, 92
4, 221280, Note_off_c, 2, 47, 0
4, 221280, Note_on_c, 2, 48, 94
4, 221376, Note_off_c, 2, 48, 0
4, 221760, Note_on_c, 2, 43, 75
4, 221760, Note_on_c, 2, 36, 75
4, 221760, Note_on_c, 2, 48, 75
4, 221760, Note_on_c, 2, 39, 75
4, 222150, Note_off_c, 2, 39, 0
4, 222150, Note_off_c, 2, 48, 0
4, 222150, Note_off_c, 2, 36, 0
4, 222150, Note_off_c, 2, 43, 0
4, 222480, Note_on_c, 2, 60, 63
4, 222480, Note_on_c, 2, 63, 63
4, 222675, Note_off_c, 2, 63, 0
4, 222675, Note_off_c, 2, 60, 0
4, 222720, Note_on_c, 2, 59, 66
4, 222720, Note_on_c, 2, 62, 66
4, 222915, Note_off_c, 2, 62, 0
4, 222915, Note_off_c, 2, 59, 0
4, 222960, Note_on_c, 2, 60, 69
4, 222960, Note_on_c, 2, 63, 69
4, 223155, Note_off_c, 2, 63, 0
4, 223155, Note_off_c, 2, 60, 0
4, 223200, Note_on_c, 2, 59, 79
4, 223200, Note_on_c, 2, 62, 79
4, 223200, Note_on_c, 2, 55, 79
4, 223590, Note_off_c, 2, 55, 0
4, 223590, Note_off_c, 2, 62, 0
4, 223590, Note_off_c, 2, 59, 0
4, 223920, Note_on_c, 2, 47, 63
4, 223920, Note_on_c, 2, 50, 63
4, 224115, Note_off_c, 2, 50, 0
4, 224115, Note_off_c, 2, 47, 0
4, 224160, Note_on_c, 2, 49, 66
4, 224160, Note_on_c, 2, 46, 66
4, 224355, Note_off_c, 2, 46, 0
4, 224355, Note_off_c, 2, 49, 0
4, 224400, Note_on_c, 2, 47, 69
4, 224400, Note_on_c, 2, 50, 69
4, 224595, Note_off_c, 2, 50, 0
4, 224595, Note_off_c, 2, 47, 0
4, 224640, Note_on_c, 2, 36, 79
4, 224640, Note_on_c, 2, 48, 79
4, 224640, Note_on_c, 2, 43, 79
4, 224640, Note_on_c, 2, 46, 79
4, 225030, Note_off_c, 2, 46, 0
4, 225030, Note_off_c, 2, 43, 0
4, 225030, Note_off_c, 2, 48, 0
4, 225030, Note_off_c, 2, 36, 0
4, 225360, Note_on_c, 2, 70, 64
4, 225360, Note_on_c, 2, 73, 64
4, 225555, Note_off_c, 2, 73, 0
4, 225555, Note_off_c, 2, 70, 0
4, 225600, Note_on_c, 2, 69, 67
4, 225600, Note_on_c, 2, 72, 67
4, 225795, Note_off_c, 2, 72, 0
4, 225795, Note_off_c, 2, 69, 0
4, 225840, Note_on_c, 2, 73, 69
4, 225840, Note_on_c, 2, 70, 69
4, 226035, Note_off_c, 2, 70, 0
4, 226035, Note_off_c, 2, 73, 0
4, 226080, Note_on_c, 2, 69, 79
4, 226080, Note_on_c, 2, 72, 79
4, 226080, Note_on_c, 2, 65, 79
4, 226470, Note_off_c, 2, 65, 0
4, 226470, Note_off_c, 2, 72, 0
4, 226470, Note_off_c, 2, 69, 0
4, 226800, Note_on_c, 2, 60, 64
4, 226800, Note_on_c, 2, 57, 64
4, 226995, Note_off_c, 2, 57, 0
4, 226995, Note_off_c, 2, 60, 0
4, 227040, Note_on_c, 2, 56, 67
4, 227040, Note_on_c, 2, 59, 67
4, 227235, Note_off_c, 2, 59, 0
4, 227235, Note_off_c, 2, 56, 0
4, 227280, Note_on_c, 2, 60, 70
4, 227280, Note_on_c, 2, 57, 70
4, 227475, Note_off_c, 2, 57, 0
4, 227475, Note_off_c, 2, 60, 0
4, 227520, Note_on_c, 2, 62, 79
4, 227520, Note_on_c, 2, 54, 79
4, 227520, Note_on_c, 2, 60, 79
4, 227520, Note_on_c, 2, 57, 79
4, 227520, Note_on_c, 2, 50, 79
4, 227910, Note_off_c, 2, 50, 0
4, 227910, Note_off_c, 2, 57, 0
4, 227910, Note_off_c, 2, 60, 0
4, 227910, Note_off_c, 2, 54, 0
4, 227910, Note_off_c, 2, 62, 0
4, 228240, Note_on_c, 2, 75, 67
4, 228240, Note_on_c, 2, 72, 67
4, 228435, Note_off_c, 2, 72, 0
4, 228435, Note_off_c, 2, 75, 0
4, 228480, Note_on_c, 2, 71, 73
4, 228480, Note_on_c, 2, 74, 73
4, 228675, Note_off_c, 2, 74, 0
4, 228675, Note_off_c, 2, 71, 0
4, 228720, Note_on_c, 2, 75, 78
4, 228720, Note_on_c, 2, 72, 78
4, 228915, Note_off_c, 2, 72, 0
4, 228915, Note_off_c, 2, 75, 0
4, 228960, Note_on_c, 2, 67, 84
4, 228960, Note_on_c, 2, 71, 84
4, 228960, Note_on_c, 2, 74, 84
4, 229115, Note_off_c, 2, 74, 0
4, 229115, Note_off_c, 2, 71, 0
4, 229115, Note_off_c, 2, 67, 0
4, 229200, Note_on_c, 2, 80, 69
4, 229355, Note_off_c, 2, 80, 0
4, 229440, Note_on_c, 2, 77, 74
4, 229595, Note_off_c, 2, 77, 0
4, 229680, Note_on_c, 2, 74, 78
4, 229835, Note_off_c, 2, 74, 0
4, 229920, Note_on_c, 2, 71, 83
4, 230075, Note_off_c, 2, 71, 0
4, 230160, Note_on_c, 2, 68, 87
4, 230315, Note_off_c, 2, 68, 0
4, 230400, Note_on_c, 2, 65, 92
4, 230555, Note_off_c, 2, 65, 0
4, 230640, Note_on_c, 2, 62, 96
4, 230795, Note_off_c, 2, 62, 0
4, 230880, Note_on_c, 2, 59, 101
4, 231035, Note_off_c, 2, 59, 0
4, 231120, Note_on_c, 2, 56, 105
4, 231275, Note_off_c, 2, 56, 0
4, 231360, Note_on_c, 2, 55, 110
4, 231515, Note_off_c, 2, 55, 0
4, 231600, Note_on_c, 2, 43, 114
4, 231755, Note_off_c, 2, 43, 0
4, 231840, Note_on_c, 2, 48, 120
4, 231995, Note_off_c, 2, 48, 0
4, 232080, Note_on_c, 2, 43, 120
4, 232235, Note_off_c, 2, 43, 0
4, 232320, Note_on_c, 2, 43, 120
4, 232475, Note_off_c, 2, 43, 0
4, 232560, Note_on_c, 2, 31, 120
4, 232715, Note_off_c, 2, 31, 0
4, 232800, Note_on_c, 2, 36, 117
4, 232995, Note_off_c, 2, 36, 0
4, 233280, Note_on_c, 2, 36, 72
4, 233355, Note_off_c, 2, 36, 0
4, 233360, Note_on_c, 2, 35, 73
4, 233440, Note_off_c, 2, 35, 0
4, 233440, Note_on_c, 2, 36, 73
4, 233520, Note_off_c, 2, 36, 0
4, 233520, Note_on_c, 2, 38, 74
4, 233600, Note_off_c, 2, 38, 0
4, 233600, Note_on_c, 2, 36, 76
4, 233680, Note_off_c, 2, 36, 0
4, 233680, Note_on_c, 2, 38, 76
4, 233760, Note_off_c, 2, 38, 0
4, 233760, Note_on_c, 2, 39, 77
4, 233840, Note_on_c, 2, 38, 78
4, 233845, Note_off_c, 2, 39, 0
4, 233920, Note_on_c, 2, 39, 78
4, 233925, Note_off_c, 2, 38, 0
4, 234000, Note_off_c, 2, 39, 0
4, 234000, Note_on_c, 2, 41, 80
4, 234080, Note_off_c, 2, 41, 0
4, 234080, Note_on_c, 2, 39, 81
4, 234155, Note_off_c, 2, 39, 0
4, 234160, Note_on_c, 2, 41, 81
4, 234240, Note_off_c, 2, 41, 0
4, 234240, Note_on_c, 2, 43, 92
4, 234395, Note_off_c, 2, 43, 0
4, 234480, Note_on_c, 2, 36, 79
4, 234635, Note_off_c, 2, 36, 0
4, 234720, Note_on_c, 2, 43, 76
4, 234795, Note_off_c, 2, 43, 0
4, 234800, Note_on_c, 2, 42, 77
4, 234880, Note_on_c, 2, 43, 77
4, 234885, Note_off_c, 2, 42, 0
4, 234960, Note_on_c, 2, 45, 79
4, 234965, Note_off_c, 2, 43, 0
4, 235040, Note_off_c, 2, 45, 0
4, 235040, Note_on_c, 2, 43, 80
4, 235120, Note_off_c, 2, 43, 0
4, 235120, Note_on_c, 2, 45, 80
4, 235200, Note_off_c, 2, 45, 0
4, 235200, Note_on_c, 2, 47, 81
4, 235280, Note_off_c, 2, 47, 0
4, 235280, Note_on_c, 2, 45, 82
4, 235360, Note_off_c, 2, 45, 0
4, 235360, Note_on_c, 2, 47, 82
4, 235440, Note_off_c, 2, 47, 0
4, 235440, Note_on_c, 2, 48, 84
4, 235520, Note_off_c, 2, 48, 0
4, 235520, Note_on_c, 2, 47, 85
4, 235600, Note_on_c, 2, 48, 85
4, 235605, Note_off_c, 2, 47, 0
4, 235680, Note_on_c, 2, 50, 96
4, 235685, Note_off_c, 2, 48, 0
4, 235835, Note_off_c, 2, 50, 0
4, 235920, Note_on_c, 2, 43, 83
4, 236075, Note_off_c, 2, 43, 0
4, 236160, Note_on_c, 2, 48, 82
4, 236240, Note_off_c, 2, 48, 0
4, 236240, Note_on_c, 2, 47, 83
4, 236320, Note_off_c, 2, 47, 0
4, 236320, Note_on_c, 2, 48, 83
4, 236400, Note_off_c, 2, 48, 0
4, 236400, Note_on_c, 2, 50, 85
4, 236480, Note_off_c, 2, 50, 0
4, 236480, Note_on_c, 2, 48, 86
4, 236560, Note_off_c, 2, 48, 0
4, 236560, Note_on_c, 2, 50, 86
4, 236640, Note_off_c, 2, 50, 0
4, 236640, Note_on_c, 2, 52, 88
4, 236720, Note_off_c, 2, 52, 0
4, 236720, Note_on_c, 2, 50, 89
4, 236800, Note_on_c, 2, 52, 89
4, 236805, Note_off_c, 2, 50, 0
4, 236880, Note_on_c, 2, 53, 91
4, 236885, Note_off_c, 2, 52, 0
4, 236960, Note_on_c, 2, 52, 93
4, 236965, Note_off_c, 2, 53, 0
4, 237040, Note_off_c, 2, 52, 0
4, 237040, Note_on_c, 2, 53, 93
4, 237120, Note_on_c, 2, 55, 104
4, 237125, Note_off_c, 2, 53, 0
4, 237275, Note_off_c, 2, 55, 0
4, 237360, Note_on_c, 2, 48, 89
4, 237515, Note_off_c, 2, 48, 0
4, 237600, Note_on_c, 2, 53, 86
4, 237680, Note_on_c, 2, 52, 88
4, 237685, Note_off_c, 2, 53, 0
4, 237760, Note_off_c, 2, 52, 0
4, 237760, Note_on_c, 2, 53, 88
4, 237840, Note_off_c, 2, 53, 0
4, 237840, Note_on_c, 2, 55, 89
4, 237920, Note_off_c, 2, 55, 0
4, 237920, Note_on_c, 2, 53, 91
4, 238000, Note_off_c, 2, 53, 0
4, 238000, Note_on_c, 2, 55, 91
4, 238080, Note_off_c, 2, 55, 0
4, 238080, Note_on_c, 2, 57, 93
4, 238160, Note_off_c, 2, 57, 0
4, 238160, Note_on_c, 2, 55, 95
4, 238240, Note_off_c, 2, 55, 0
4, 238240, Note_on_c, 2, 57, 95
4, 238320, Note_off_c, 2, 57, 0
4, 238320, Note_on_c, 2, 58, 97
4, 238400, Note_on_c, 2, 57, 99
4, 238405, Note_off_c, 2, 58, 0
4, 238480, Note_on_c, 2, 58, 99
4, 238485, Note_off_c, 2, 57, 0
4, 238555, Note_off_c, 2, 58, 0
4, 238560, Note_on_c, 2, 60, 112
4, 238715, Note_off_c, 2, 60, 0
4, 238800, Note_on_c, 2, 53, 92
4, 238955, Note_off_c, 2, 53, 0
4, 239040, Note_on_c, 2, 57, 90
4, 239120, Note_on_c, 2, 55, 92
4, 239125, Note_off_c, 2, 57, 0
4, 239200, Note_on_c, 2, 57, 92
4, 239205, Note_off_c, 2, 55, 0
4, 239280, Note_off_c, 2, 57, 0
4, 239280, Note_on_c, 2, 59, 94
4, 239360, Note_off_c, 2, 59, 0
4, 239360, Note_on_c, 2, 57, 97
4, 239440, Note_on_c, 2, 59, 97
4, 239445, Note_off_c, 2, 57, 0
4, 239520, Note_off_c, 2, 59, 0
4, 239520, Note_on_c, 2, 60, 99
4, 239600, Note_off_c, 2, 60, 0
4, 239600, Note_on_c, 2, 59, 101
4, 239680, Note_on_c, 2, 60, 101
4, 239685, Note_off_c, 2, 59, 0
4, 239760, Note_on_c, 2, 62, 104
4, 239765, Note_off_c, 2, 60, 0
4, 239835, Note_off_c, 2, 62, 0
4, 239840, Note_on_c, 2, 60, 106
4, 239920, Note_off_c, 2, 60, 0
4, 239920, Note_on_c, 2, 62, 106
4, 240000, Note_off_c, 2, 62, 0
4, 240000, Note_on_c, 2, 63, 118
4, 240155, Note_off_c, 2, 63, 0
4, 240240, Note_on_c, 2, 60, 105
4, 240395, Note_off_c, 2, 60, 0
4, 240480, Note_on_c, 2, 59, 100
4, 240560, Note_off_c, 2, 59, 0
4, 240560, Note_on_c, 2, 57, 102
4, 240640, Note_on_c, 2, 59, 102
4, 240641, Note_off_c, 2, 57, 0
4, 240720, Note_on_c, 2, 60, 103
4, 240723, Note_off_c, 2, 59, 0
4, 240800, Note_on_c, 2, 59, 105
4, 240802, Note_off_c, 2, 60, 0
4, 240877, Note_off_c, 2, 59, 0
4, 240880, Note_on_c, 2, 60, 105
4, 240960, Note_on_c, 2, 62, 127
4, 240963, Note_off_c, 2, 60, 0
4, 241040, Note_on_c, 2, 60, 108
4, 241042, Note_off_c, 2, 62, 0
4, 241120, Note_on_c, 2, 62, 110
4, 241121, Note_off_c, 2, 60, 0
4, 241200, Note_on_c, 2, 63, 111
4, 241203, Note_off_c, 2, 62, 0
4, 241280, Note_on_c, 2, 62, 113
4, 241282, Note_off_c, 2, 63, 0
4, 241360, Note_on_c, 2, 63, 115
4, 241368, Note_off_c, 2, 62, 0
4, 241440, Note_on_c, 2, 65, 116
4, 241447, Note_off_c, 2, 63, 0
4, 241520, Note_on_c, 2, 63, 118
4, 241522, Note_off_c, 2, 65, 0
4, 241600, Note_on_c, 2, 65, 120
4, 241601, Note_off_c, 2, 63, 0
4, 241680, Note_on_c, 2, 67, 121
4, 241683, Note_off_c, 2, 65, 0
4, 241758, Note_off_c, 2, 67, 0
4, 241760, Note_on_c, 2, 65, 123
4, 241840, Note_on_c, 2, 67, 125
4, 241841, Note_off_c, 2, 65, 0
4, 241920, Note_on_c, 2, 68, 126
4, 241923, Note_off_c, 2, 67, 0
4, 242000, Note_on_c, 2, 70, 124
4, 242002, Note_off_c, 2, 68, 0
4, 242077, Note_off_c, 2, 70, 0
4, 242080, Note_on_c, 2, 68, 123
4, 242160, Note_off_c, 2, 68, 0
4, 242160, Note_on_c, 2, 67, 121
4, 242240, Note_on_c, 2, 68, 120
4, 242246, Note_off_c, 2, 67, 0
4, 242320, Note_on_c, 2, 67, 119
4, 242321, Note_off_c, 2, 68, 0
4, 242400, Note_off_c, 2, 67, 0
4, 242400, Note_on_c, 2, 65, 117
4, 242480, Note_on_c, 2, 67, 116
4, 242482, Note_off_c, 2, 65, 0
4, 242560, Note_on_c, 2, 65, 115
4, 242561, Note_off_c, 2, 67, 0
4, 242640, Note_on_c, 2, 63, 113
4, 242643, Note_off_c, 2, 65, 0
4, 242720, Note_on_c, 2, 65, 112
4, 242722, Note_off_c, 2, 63, 0
4, 242797, Note_off_c, 2, 65, 0
4, 242800, Note_on_c, 2, 63, 110
4, 242880, Note_on_c, 2, 62, 109
4, 242887, Note_off_c, 2, 63, 0
4, 242960, Note_on_c, 2, 63, 108
4, 242966, Note_off_c, 2, 62, 0
4, 243040, Note_on_c, 2, 62, 106
4, 243041, Note_off_c, 2, 63, 0
4, 243120, Note_off_c, 2, 62, 0
4, 243120, Note_on_c, 2, 60, 105
4, 243200, Note_on_c, 2, 62, 103
4, 243202, Note_off_c, 2, 60, 0
4, 243280, Note_on_c, 2, 60, 102
4, 243281, Note_off_c, 2, 62, 0
4, 243360, Note_off_c, 2, 60, 0
4, 243360, Note_on_c, 2, 59, 101
4, 243440, Note_on_c, 2, 60, 99
4, 243442, Note_off_c, 2, 59, 0
4, 243520, Note_on_c, 2, 59, 98
4, 243521, Note_off_c, 2, 60, 0
4, 243600, Note_on_c, 2, 56, 97
4, 243603, Note_off_c, 2, 59, 0
4, 243680, Note_on_c, 2, 58, 95
4, 243686, Note_off_c, 2, 56, 0
4, 243760, Note_on_c, 2, 56, 94
4, 243761, Note_off_c, 2, 58, 0
4, 243840, Note_on_c, 2, 55, 92
4, 243843, Note_off_c, 2, 56, 0
4, 243920, Note_on_c, 2, 56, 91
4, 243922, Note_off_c, 2, 55, 0
4, 244000, Note_on_c, 2, 55, 90
4, 244001, Note_off_c, 2, 56, 0
4, 244080, Note_on_c, 2, 53, 88
4, 244083, Note_off_c, 2, 55, 0
4, 244160, Note_on_c, 2, 55, 87
4, 244162, Note_off_c, 2, 53, 0
4, 244240, Note_on_c, 2, 53, 85
4, 244241, Note_off_c, 2, 55, 0
4, 244320, Note_on_c, 2, 51, 84
4, 244323, Note_off_c, 2, 53, 0
4, 244400, Note_on_c, 2, 53, 83
4, 244402, Note_off_c, 2, 51, 0
4, 244480, Note_on_c, 2, 51, 81
4, 244481, Note_off_c, 2, 53, 0
4, 244560, Note_off_c, 2, 51, 0
4, 244560, Note_on_c, 2, 50, 80
4, 244640, Note_on_c, 2, 51, 79
4, 244646, Note_off_c, 2, 50, 0
4, 244720, Note_on_c, 2, 50, 77
4, 244721, Note_off_c, 2, 51, 0
4, 244800, Note_off_c, 2, 50, 0
4, 244800, Note_on_c, 2, 48, 76
4, 244961, Note_off_c, 2, 48, 0
4, 245040, Note_on_c, 2, 43, 66
4, 245040, Note_on_c, 2, 48, 66
4, 245040, Note_on_c, 2, 36, 66
4, 245040, Note_on_c, 2, 39, 66
4, 245365, Note_off_c, 2, 39, 0
4, 245365, Note_off_c, 2, 36, 0
4, 245365, Note_off_c, 2, 48, 0
4, 245365, Note_off_c, 2, 43, 0
4, 245520, Note_on_c, 2, 43, 66
4, 245520, Note_on_c, 2, 36, 66
4, 245520, Note_on_c, 2, 48, 66
4, 245520, Note_on_c, 2, 39, 66
4, 245845, Note_off_c, 2, 39, 0
4, 245845, Note_off_c, 2, 48, 0
4, 245845, Note_off_c, 2, 36, 0
4, 245845, Note_off_c, 2, 43, 0
4, 246000, Note_on_c, 2, 48, 66
4, 246000, Note_on_c, 2, 43, 66
4, 246000, Note_on_c, 2, 39, 66
4, 246000, Note_on_c, 2, 36, 66
4, 246155, Note_off_c, 2, 36, 0
4, 246155, Note_off_c, 2, 39, 0
4, 246155, Note_off_c, 2, 43, 0
4, 246155, Note_off_c, 2, 48, 0
4, 246480, Note_on_c, 2, 31, 70
4, 246480, Note_on_c, 2, 38, 70
4, 246480, Note_on_c, 2, 35, 70
4, 246480, Note_on_c, 2, 43, 70
4, 246765, Note_off_c, 2, 43, 0
4, 246765, Note_off_c, 2, 35, 0
4, 246765, Note_off_c, 2, 38, 0
4, 246765, Note_off_c, 2, 31, 0
4, 246960, Note_on_c, 2, 35, 71
4, 246960, Note_on_c, 2, 38, 71
4, 246960, Note_on_c, 2, 31, 71
4, 246960, Note_on_c, 2, 43, 71
4, 247245, Note_off_c, 2, 43, 0
4, 247245, Note_off_c, 2, 31, 0
4, 247245, Note_off_c, 2, 38, 0
4, 247245, Note_off_c, 2, 35, 0
4, 247440, Note_on_c, 2, 31, 71
4, 247440, Note_on_c, 2, 38, 71
4, 247440, Note_on_c, 2, 35, 71
4, 247440, Note_on_c, 2, 43, 71
4, 247595, Note_off_c, 2, 43, 0
4, 247595, Note_off_c, 2, 35, 0
4, 247595, Note_off_c, 2, 38, 0
4, 247595, Note_off_c, 2, 31, 0
4, 247920, Note_on_c, 2, 52, 74
4, 247920, Note_on_c, 2, 46, 74
4, 247920, Note_on_c, 2, 55, 74
4, 247920, Note_on_c, 2, 48, 74
4, 248245, Note_off_c, 2, 48, 0
4, 248245, Note_off_c, 2, 55, 0
4, 248245, Note_off_c, 2, 46, 0
4, 248245, Note_off_c, 2, 52, 0
4, 248400, Note_on_c, 2, 52, 75
4, 248400, Note_on_c, 2, 48, 75
4, 248400, Note_on_c, 2, 46, 75
4, 248400, Note_on_c, 2, 55, 75
4, 248725, Note_off_c, 2, 55, 0
4, 248725, Note_off_c, 2, 46, 0
4, 248725, Note_off_c, 2, 48, 0
4, 248725, Note_off_c, 2, 52, 0
4, 248880, Note_on_c, 2, 52, 75
4, 248880, Note_on_c, 2, 48, 75
4, 248880, Note_on_c, 2, 46, 75
4, 248880, Note_on_c, 2, 55, 75
4, 249035, Note_off_c, 2, 55, 0
4, 249035, Note_off_c, 2, 46, 0
4, 249035, Note_off_c, 2, 48, 0
4, 249035, Note_off_c, 2, 52, 0
4, 249360, Note_on_c, 2, 45, 77
4, 249360, Note_on_c, 2, 53, 77
4, 249360, Note_on_c, 2, 48, 77
4, 249360, Note_on_c, 2, 57, 77
4, 249665, Note_off_c, 2, 57, 0
4, 249665, Note_off_c, 2, 48, 0
4, 249665, Note_off_c, 2, 53, 0
4, 249665, Note_off_c, 2, 45, 0
4, 249840, Note_on_c, 2, 45, 79
4, 249840, Note_on_c, 2, 48, 79
4, 249840, Note_on_c, 2, 53, 79
4, 249840, Note_on_c, 2, 57, 79
4, 250145, Note_off_c, 2, 57, 0
4, 250145, Note_off_c, 2, 53, 0
4, 250145, Note_off_c, 2, 48, 0
4, 250145, Note_off_c, 2, 45, 0
4, 250320, Note_on_c, 2, 48, 79
4, 250320, Note_on_c, 2, 53, 79
4, 250320, Note_on_c, 2, 57, 79
4, 250320, Note_on_c, 2, 45, 79
4, 250475, Note_off_c, 2, 45, 0
4, 250475, Note_off_c, 2, 57, 0
4, 250475, Note_off_c, 2, 53, 0
4, 250475, Note_off_c, 2, 48, 0
4, 250800, Note_on_c, 2, 57, 82
4, 250800, Note_on_c, 2, 50, 82
4, 250800, Note_on_c, 2, 60, 82
4, 250800, Note_on_c, 2, 54, 82
4, 251105, Note_off_c, 2, 54, 0
4, 251105, Note_off_c, 2, 60, 0
4, 251105, Note_off_c, 2, 50, 0
4, 251105, Note_off_c, 2, 57, 0
4, 251280, Note_on_c, 2, 57, 82
4, 251280, Note_on_c, 2, 54, 82
4, 251280, Note_on_c, 2, 50, 82
4, 251280, Note_on_c, 2, 60, 82
4, 251585, Note_off_c, 2, 60, 0
4, 251585, Note_off_c, 2, 50, 0
4, 251585, Note_off_c, 2, 54, 0
4, 251585, Note_off_c, 2, 57, 0
4, 251760, Note_on_c, 2, 57, 82
4, 251760, Note_on_c, 2, 60, 82
4, 251760, Note_on_c, 2, 50, 82
4, 251760, Note_on_c, 2, 54, 82
4, 251915, Note_off_c, 2, 54, 0
4, 251915, Note_off_c, 2, 50, 0
4, 251915, Note_off_c, 2, 60, 0
4, 251915, Note_off_c, 2, 57, 0
4, 252240, Note_on_c, 2, 59, 88
4, 252240, Note_on_c, 2, 62, 88
4, 252240, Note_on_c, 2, 65, 88
4, 252240, Note_on_c, 2, 55, 88
4, 252565, Note_off_c, 2, 55, 0
4, 252565, Note_off_c, 2, 65, 0
4, 252565, Note_off_c, 2, 62, 0
4, 252565, Note_off_c, 2, 59, 0
4, 252720, Note_on_c, 2, 55, 92
4, 252720, Note_on_c, 2, 62, 92
4, 252720, Note_on_c, 2, 59, 92
4, 252720, Note_on_c, 2, 65, 92
4, 253045, Note_off_c, 2, 65, 0
4, 253045, Note_off_c, 2, 59, 0
4, 253045, Note_off_c, 2, 62, 0
4, 253045, Note_off_c, 2, 55, 0
4, 253200, Note_on_c, 2, 59, 96
4, 253200, Note_on_c, 2, 55, 96
4, 253200, Note_on_c, 2, 62, 96
4, 253200, Note_on_c, 2, 65, 96
4, 253525, Note_off_c, 2, 65, 0
4, 253525, Note_off_c, 2, 62, 0
4, 253525, Note_off_c, 2, 55, 0
4, 253525, Note_off_c, 2, 59, 0
4, 253680, Note_on_c, 2, 50, 101
4, 253680, Note_on_c, 2, 47, 101
4, 253680, Note_on_c, 2, 55, 101
4, 253680, Note_on_c, 2, 43, 101
4, 254005, Note_off_c, 2, 43, 0
4, 254005, Note_off_c, 2, 55, 0
4, 254005, Note_off_c, 2, 47, 0
4, 254005, Note_off_c, 2, 50, 0
4, 254160, Note_on_c, 2, 50, 94
4, 254160, Note_on_c, 2, 47, 94
4, 254160, Note_on_c, 2, 43, 94
4, 254160, Note_on_c, 2, 55, 94
4, 254485, Note_off_c, 2, 55, 0
4, 254485, Note_off_c, 2, 43, 0
4, 254485, Note_off_c, 2, 47, 0
4, 254485, Note_off_c, 2, 50, 0
4, 254640, Note_on_c, 2, 50, 88
4, 254640, Note_on_c, 2, 47, 88
4, 254640, Note_on_c, 2, 55, 88
4, 254640, Note_on_c, 2, 43, 88
4, 254795, Note_off_c, 2, 43, 0
4, 254795, Note_off_c, 2, 55, 0
4, 254795, Note_off_c, 2, 47, 0
4, 254795, Note_off_c, 2, 50, 0
4, 254880, Note_on_c, 2, 48, 84
4, 254880, Note_on_c, 2, 43, 84
4, 254880, Note_on_c, 2, 39, 84
4, 254880, Note_on_c, 2, 36, 84
4, 255035, Note_off_c, 2, 36, 0
4, 255035, Note_off_c, 2, 39, 0
4, 255035, Note_off_c, 2, 43, 0
4, 255035, Note_off_c, 2, 48, 0
4, 256800, Note_on_c, 2, 48, 69
4, 256800, Note_on_c, 2, 36, 69
4, 256880, Note_off_c, 2, 36, 0
4, 256880, Note_off_c, 2, 48, 0
4, 257040, Note_on_c, 2, 50, 72
4, 257040, Note_on_c, 2, 38, 72
4, 257120, Note_off_c, 2, 38, 0
4, 257120, Note_off_c, 2, 50, 0
4, 257280, Note_on_c, 2, 51, 75
4, 257280, Note_on_c, 2, 39, 75
4, 257360, Note_off_c, 2, 39, 0
4, 257360, Note_off_c, 2, 51, 0
4, 257520, Note_on_c, 2, 53, 78
4, 257520, Note_on_c, 2, 41, 78
4, 257600, Note_off_c, 2, 41, 0
4, 257600, Note_off_c, 2, 53, 0
4, 257760, Note_on_c, 2, 43, 88
4, 257760, Note_on_c, 2, 55, 88
4, 258240, Note_off_c, 2, 55, 0
4, 258240, Note_off_c, 2, 43, 0
4, 258240, Note_on_c, 2, 43, 74
4, 258240, Note_on_c, 2, 31, 74
4, 258320, Note_off_c, 2, 31, 0
4, 258320, Note_off_c, 2, 43, 0
4, 258480, Note_on_c, 2, 45, 77
4, 258480, Note_on_c, 2, 33, 77
4, 258560, Note_off_c, 2, 33, 0
4, 258560, Note_off_c, 2, 45, 0
4, 258720, Note_on_c, 2, 47, 80
4, 258720, Note_on_c, 2, 35, 80
4, 258800, Note_off_c, 2, 35, 0
4, 258800, Note_off_c, 2, 47, 0
4, 258960, Note_on_c, 2, 48, 83
4, 258960, Note_on_c, 2, 36, 83
4, 259040, Note_off_c, 2, 36, 0
4, 259040, Note_off_c, 2, 48, 0
4, 259200, Note_on_c, 2, 49, 91
4, 259200, Note_on_c, 2, 37, 91
4, 259680, Note_off_c, 2, 37, 0
4, 259680, Note_off_c, 2, 49, 0
4, 259680, Note_on_c, 2, 46, 76
4, 259680, Note_on_c, 2, 34, 76
4, 259760, Note_off_c, 2, 34, 0
4, 259760, Note_off_c, 2, 46, 0
4, 259920, Note_on_c, 2, 48, 79
4, 259920, Note_on_c, 2, 36, 79
4, 260000, Note_off_c, 2, 36, 0
4, 260000, Note_off_c, 2, 48, 0
4, 260160, Note_on_c, 2, 38, 82
4, 260160, Note_on_c, 2, 50, 82
4, 260240, Note_off_c, 2, 50, 0
4, 260240, Note_off_c, 2, 38, 0
4, 260400, Note_on_c, 2, 51, 85
4, 260400, Note_on_c, 2, 39, 85
4, 260480, Note_off_c, 2, 39, 0
4, 260480, Note_off_c, 2, 51, 0
4, 260640, Note_on_c, 2, 41, 92
4, 260640, Note_on_c, 2, 53, 92
4, 261120, Note_off_c, 2, 53, 0
4, 261120, Note_off_c, 2, 41, 0
4, 261120, Note_on_c, 2, 53, 81
4, 261120, Note_on_c, 2, 41, 81
4, 261200, Note_off_c, 2, 41, 0
4, 261200, Note_off_c, 2, 53, 0
4, 261360, Note_on_c, 2, 55, 84
4, 261360, Note_on_c, 2, 43, 84
4, 261440, Note_off_c, 2, 43, 0
4, 261440, Note_off_c, 2, 55, 0
4, 261600, Note_on_c, 2, 56, 87
4, 261600, Note_on_c, 2, 44, 87
4, 261680, Note_off_c, 2, 44, 0
4, 261680, Note_off_c, 2, 56, 0
4, 261840, Note_on_c, 2, 58, 90
4, 261840, Note_on_c, 2, 46, 90
4, 261920, Note_off_c, 2, 46, 0
4, 261920, Note_off_c, 2, 58, 0
4, 262080, Note_on_c, 2, 60, 98
4, 262080, Note_on_c, 2, 48, 98
4, 262560, Note_off_c, 2, 48, 0
4, 262560, Note_off_c, 2, 60, 0
4, 262560, Note_on_c, 2, 45, 85
4, 262560, Note_on_c, 2, 57, 85
4, 262640, Note_off_c, 2, 57, 0
4, 262640, Note_off_c, 2, 45, 0
4, 262800, Note_on_c, 2, 59, 88
4, 262800, Note_on_c, 2, 47, 88
4, 262880, Note_off_c, 2, 47, 0
4, 262880, Note_off_c, 2, 59, 0
4, 263040, Note_on_c, 2, 60, 91
4, 263040, Note_on_c, 2, 48, 91
4, 263120, Note_off_c, 2, 48, 0
4, 263120, Note_off_c, 2, 60, 0
4, 263280, Note_on_c, 2, 50, 94
4, 263280, Note_on_c, 2, 62, 94
4, 263360, Note_off_c, 2, 62, 0
4, 263360, Note_off_c, 2, 50, 0
4, 263520, Note_on_c, 2, 63, 102
4, 263520, Note_on_c, 2, 51, 102
4, 264000, Note_off_c, 2, 51, 0
4, 264000, Note_off_c, 2, 63, 0
4, 264000, Note_on_c, 2, 59, 90
4, 264000, Note_on_c, 2, 47, 90
4, 264080, Note_off_c, 2, 47, 0
4, 264080, Note_off_c, 2, 59, 0
4, 264240, Note_on_c, 2, 48, 94
4, 264240, Note_on_c, 2, 60, 94
4, 264320, Note_off_c, 2, 60, 0
4, 264320, Note_off_c, 2, 48, 0
4, 264480, Note_on_c, 2, 50, 99
4, 264480, Note_on_c, 2, 62, 99
4, 264560, Note_off_c, 2, 62, 0
4, 264560, Note_off_c, 2, 50, 0
4, 264720, Note_on_c, 2, 51, 104
4, 264720, Note_on_c, 2, 63, 104
4, 264800, Note_off_c, 2, 63, 0
4, 264800, Note_off_c, 2, 51, 0
4, 264960, Note_on_c, 2, 53, 109
4, 264960, Note_on_c, 2, 65, 109
4, 265040, Note_off_c, 2, 65, 0
4, 265040, Note_off_c, 2, 53, 0
4, 265200, Note_on_c, 2, 55, 117
4, 265200, Note_on_c, 2, 67, 117
4, 265280, Note_off_c, 2, 67, 0
4, 265280, Note_off_c, 2, 55, 0
4, 265440, Note_on_c, 2, 56, 125
4, 265440, Note_on_c, 2, 68, 125
4, 266160, Note_off_c, 2, 68, 0
4, 266160, Note_off_c, 2, 56, 0
4, 266160, Note_on_c, 2, 55, 99
4, 266160, Note_on_c, 2, 67, 99
4, 266240, Note_off_c, 2, 67, 0
4, 266240, Note_off_c, 2, 55, 0
4, 266400, Note_on_c, 2, 53, 91
4, 266400, Note_on_c, 2, 65, 91
4, 266480, Note_off_c, 2, 65, 0
4, 266480, Note_off_c, 2, 53, 0
4, 266640, Note_on_c, 2, 63, 82
4, 266640, Note_on_c, 2, 51, 82
4, 266720, Note_off_c, 2, 51, 0
4, 266720, Note_off_c, 2, 63, 0
4, 266880, Note_on_c, 2, 50, 74
4, 266880, Note_on_c, 2, 62, 74
4, 266960, Note_off_c, 2, 62, 0
4, 266960, Note_off_c, 2, 50, 0
4, 267120, Note_on_c, 2, 48, 66
4, 267120, Note_on_c, 2, 60, 66
4, 267200, Note_off_c, 2, 60, 0
4, 267200, Note_off_c, 2, 48, 0
4, 267360, Note_on_c, 2, 47, 58
4, 267360, Note_on_c, 2, 59, 58
4, 267440, Note_off_c, 2, 59, 0
4, 267440, Note_off_c, 2, 47, 0
4, 267600, Note_on_c, 2, 60, 50
4, 267600, Note_on_c, 2, 48, 50
4, 267660, Note_off_c, 2, 48, 0
4, 267660, Note_off_c, 2, 60, 0
4, 267840, Note_on_c, 2, 36, 40
4, 268030, Note_off_c, 2, 36, 0
4, 268080, Note_on_c, 2, 36, 40
4, 268270, Note_off_c, 2, 36, 0
4, 268320, Note_on_c, 2, 36, 40
4, 268510, Note_off_c, 2, 36, 0
4, 268560, Note_on_c, 2, 36, 40
4, 268750, Note_off_c, 2, 36, 0
4, 268800, Note_on_c, 2, 36, 41
4, 268990, Note_off_c, 2, 36, 0
4, 269040, Note_on_c, 2, 36, 41
4, 269230, Note_off_c, 2, 36, 0
4, 269280, Note_on_c, 2, 35, 41
4, 269470, Note_off_c, 2, 35, 0
4, 269520, Note_on_c, 2, 35, 41
4, 269710, Note_off_c, 2, 35, 0
4, 269760, Note_on_c, 2, 35, 41
4, 269950, Note_off_c, 2, 35, 0
4, 270000, Note_on_c, 2, 35, 42
4, 270190, Note_off_c, 2, 35, 0
4, 270240, Note_on_c, 2, 35, 42
4, 270430, Note_off_c, 2, 35, 0
4, 270480, Note_on_c, 2, 35, 42
4, 270670, Note_off_c, 2, 35, 0
4, 270720, Note_on_c, 2, 34, 42
4, 270910, Note_off_c, 2, 34, 0
4, 270960, Note_on_c, 2, 34, 43
4, 271150, Note_off_c, 2, 34, 0
4, 271200, Note_on_c, 2, 34, 43
4, 271390, Note_off_c, 2, 34, 0
4, 271440, Note_on_c, 2, 34, 43
4, 271630, Note_off_c, 2, 34, 0
4, 271680, Note_on_c, 2, 34, 43
4, 271870, Note_off_c, 2, 34, 0
4, 271920, Note_on_c, 2, 34, 44
4, 272110, Note_off_c, 2, 34, 0
4, 272160, Note_on_c, 2, 33, 44
4, 272350, Note_off_c, 2, 33, 0
4, 272400, Note_on_c, 2, 33, 44
4, 272590, Note_off_c, 2, 33, 0
4, 272640, Note_on_c, 2, 33, 44
4, 272830, Note_off_c, 2, 33, 0
4, 272880, Note_on_c, 2, 33, 45
4, 273070, Note_off_c, 2, 33, 0
4, 273120, Note_on_c, 2, 33, 45
4, 273310, Note_off_c, 2, 33, 0
4, 273360, Note_on_c, 2, 33, 45
4, 273550, Note_off_c, 2, 33, 0
4, 273600, Note_on_c, 2, 32, 45
4, 273790, Note_off_c, 2, 32, 0
4, 273840, Note_on_c, 2, 32, 46
4, 274030, Note_off_c, 2, 32, 0
4, 274080, Note_on_c, 2, 32, 46
4, 274270, Note_off_c, 2, 32, 0
4, 274320, Note_on_c, 2, 32, 46
4, 274510, Note_off_c, 2, 32, 0
4, 274560, Note_on_c, 2, 32, 46
4, 274750, Note_off_c, 2, 32, 0
4, 274800, Note_on_c, 2, 32, 47
4, 274990, Note_off_c, 2, 32, 0
4, 275040, Note_on_c, 2, 31, 47
4, 275230, Note_off_c, 2, 31, 0
4, 275280, Note_on_c, 2, 31, 47
4, 275470, Note_off_c, 2, 31, 0
4, 275520, Note_on_c, 2, 29, 51
4, 275710, Note_off_c, 2, 29, 0
4, 275760, Note_on_c, 2, 29, 50
4, 275950, Note_off_c, 2, 29, 0
4, 276000, Note_on_c, 2, 29, 48
4, 276190, Note_off_c, 2, 29, 0
4, 276240, Note_on_c, 2, 29, 47
4, 276430, Note_off_c, 2, 29, 0
4, 276480, Note_on_c, 2, 29, 45
4, 276670, Note_off_c, 2, 29, 0
4, 276720, Note_on_c, 2, 29, 44
4, 276910, Note_off_c, 2, 29, 0
4, 276960, Note_on_c, 2, 32, 42
4, 277150, Note_off_c, 2, 32, 0
4, 277200, Note_on_c, 2, 32, 41
4, 277390, Note_off_c, 2, 32, 0
4, 277440, Note_on_c, 2, 31, 39
4, 277630, Note_off_c, 2, 31, 0
4, 277680, Note_on_c, 2, 31, 38
4, 277870, Note_off_c, 2, 31, 0
4, 277920, Note_on_c, 2, 36, 36
4, 278110, Note_off_c, 2, 36, 0
4, 278160, Note_on_c, 2, 36, 35
4, 278350, Note_off_c, 2, 36, 0
4, 278400, Note_on_c, 2, 31, 33
4, 278590, Note_off_c, 2, 31, 0
4, 278640, Note_on_c, 2, 31, 31
4, 278830, Note_off_c, 2, 31, 0
4, 278880, Note_on_c, 2, 36, 30
4, 279070, Note_off_c, 2, 36, 0
4, 279120, Note_on_c, 2, 36, 28
4, 279310, Note_off_c, 2, 36, 0
4, 279840, Note_on_c, 2, 67, 47
4, 279840, Note_on_c, 2, 63, 47
4, 279840, Note_on_c, 2, 60, 47
4, 279945, Note_off_c, 2, 60, 0
4, 279945, Note_off_c, 2, 63, 0
4, 279945, Note_off_c, 2, 67, 0
4, 280000, Note_on_c, 2, 60, 44
4, 280000, Note_on_c, 2, 67, 44
4, 280000, Note_on_c, 2, 63, 44
4, 280105, Note_off_c, 2, 63, 0
4, 280105, Note_off_c, 2, 67, 0
4, 280105, Note_off_c, 2, 60, 0
4, 280160, Note_on_c, 2, 60, 45
4, 280160, Note_on_c, 2, 67, 45
4, 280160, Note_on_c, 2, 63, 45
4, 280265, Note_off_c, 2, 63, 0
4, 280265, Note_off_c, 2, 67, 0
4, 280265, Note_off_c, 2, 60, 0
4, 280320, Note_on_c, 2, 60, 45
4, 280320, Note_on_c, 2, 67, 45
4, 280320, Note_on_c, 2, 63, 45
4, 280425, Note_off_c, 2, 63, 0
4, 280425, Note_off_c, 2, 67, 0
4, 280425, Note_off_c, 2, 60, 0
4, 281280, Note_on_c, 2, 62, 48
4, 281280, Note_on_c, 2, 59, 48
4, 281385, Note_off_c, 2, 59, 0
4, 281385, Note_off_c, 2, 62, 0
4, 281440, Note_on_c, 2, 62, 49
4, 281440, Note_on_c, 2, 59, 49
4, 281545, Note_off_c, 2, 59, 0
4, 281545, Note_off_c, 2, 62, 0
4, 281600, Note_on_c, 2, 59, 49
4, 281600, Note_on_c, 2, 62, 49
4, 281705, Note_off_c, 2, 62, 0
4, 281705, Note_off_c, 2, 59, 0
4, 281760, Note_on_c, 2, 59, 50
4, 281760, Note_on_c, 2, 62, 50
4, 281865, Note_off_c, 2, 62, 0
4, 281865, Note_off_c, 2, 59, 0
4, 282720, Note_on_c, 2, 67, 53
4, 282720, Note_on_c, 2, 70, 53
4, 282720, Note_on_c, 2, 73, 53
4, 282825, Note_off_c, 2, 73, 0
4, 282825, Note_off_c, 2, 70, 0
4, 282825, Note_off_c, 2, 67, 0
4, 282880, Note_on_c, 2, 67, 53
4, 282880, Note_on_c, 2, 70, 53
4, 282880, Note_on_c, 2, 73, 53
4, 282985, Note_off_c, 2, 73, 0
4, 282985, Note_off_c, 2, 70, 0
4, 282985, Note_off_c, 2, 67, 0
4, 283040, Note_on_c, 2, 67, 54
4, 283040, Note_on_c, 2, 70, 54
4, 283040, Note_on_c, 2, 73, 54
4, 283145, Note_off_c, 2, 73, 0
4, 283145, Note_off_c, 2, 70, 0
4, 283145, Note_off_c, 2, 67, 0
4, 283200, Note_on_c, 2, 67, 55
4, 283200, Note_on_c, 2, 70, 55
4, 283200, Note_on_c, 2, 73, 55
4, 283305, Note_off_c, 2, 73, 0
4, 283305, Note_off_c, 2, 70, 0
4, 283305, Note_off_c, 2, 67, 0
4, 284160, Note_on_c, 2, 72, 58
4, 284160, Note_on_c, 2, 69, 58
4, 284160, Note_on_c, 2, 77, 58
4, 284265, Note_off_c, 2, 77, 0
4, 284265, Note_off_c, 2, 69, 0
4, 284265, Note_off_c, 2, 72, 0
4, 284320, Note_on_c, 2, 72, 58
4, 284320, Note_on_c, 2, 69, 58
4, 284320, Note_on_c, 2, 77, 58
4, 284425, Note_off_c, 2, 77, 0
4, 284425, Note_off_c, 2, 69, 0
4, 284425, Note_off_c, 2, 72, 0
4, 284480, Note_on_c, 2, 69, 59
4, 284480, Note_on_c, 2, 77, 59
4, 284480, Note_on_c, 2, 72, 59
4, 284585, Note_off_c, 2, 72, 0
4, 284585, Note_off_c, 2, 77, 0
4, 284585, Note_off_c, 2, 69, 0
4, 284640, Note_on_c, 2, 69, 59
4, 284640, Note_on_c, 2, 77, 59
4, 284640, Note_on_c, 2, 72, 59
4, 284745, Note_off_c, 2, 72, 0
4, 284745, Note_off_c, 2, 77, 0
4, 284746, Note_off_c, 2, 69, 0
4, 285600, Note_on_c, 2, 81, 63
4, 285600, Note_on_c, 2, 72, 63
4, 285600, Note_on_c, 2, 78, 63
4, 285705, Note_off_c, 2, 78, 0
4, 285705, Note_off_c, 2, 72, 0
4, 285705, Note_off_c, 2, 81, 0
4, 285760, Note_on_c, 2, 81, 63
4, 285760, Note_on_c, 2, 78, 63
4, 285760, Note_on_c, 2, 72, 63
4, 285865, Note_off_c, 2, 72, 0
4, 285865, Note_off_c, 2, 78, 0
4, 285865, Note_off_c, 2, 81, 0
4, 285920, Note_on_c, 2, 81, 64
4, 285920, Note_on_c, 2, 78, 64
4, 285920, Note_on_c, 2, 72, 64
4, 286025, Note_off_c, 2, 72, 0
4, 286025, Note_off_c, 2, 78, 0
4, 286025, Note_off_c, 2, 81, 0
4, 286080, Note_on_c, 2, 78, 64
4, 286080, Note_on_c, 2, 81, 64
4, 286080, Note_on_c, 2, 72, 64
4, 286185, Note_off_c, 2, 72, 0
4, 286185, Note_off_c, 2, 81, 0
4, 286185, Note_off_c, 2, 78, 0
4, 287040, Note_on_c, 2, 77, 82
4, 287040, Note_on_c, 2, 74, 82
4, 287040, Note_on_c, 2, 80, 82
4, 287040, Note_on_c, 2, 71, 82
4, 287145, Note_off_c, 2, 71, 0
4, 287145, Note_off_c, 2, 80, 0
4, 287145, Note_off_c, 2, 74, 0
4, 287145, Note_off_c, 2, 77, 0
4, 289880, Note_on_c, 2, 53, 66
4, 289920, Note_off_c, 2, 53, 0
4, 289920, Note_on_c, 2, 51, 61
4, 290025, Note_off_c, 2, 51, 0
4, 290080, Note_on_c, 2, 50, 55
4, 290185, Note_off_c, 2, 50, 0
4, 290240, Note_on_c, 2, 48, 53
4, 290345, Note_off_c, 2, 48, 0
4, 290360, Note_on_c, 2, 41, 63
4, 290400, Note_off_c, 2, 41, 0
4, 290400, Note_on_c, 2, 39, 57
4, 290505, Note_off_c, 2, 39, 0
4, 290560, Note_on_c, 2, 38, 51
4, 290665, Note_off_c, 2, 38, 0
4, 290720, Note_on_c, 2, 36, 49
4, 290798, Note_off_c, 2, 36, 0
4, 290880, Note_on_c, 2, 36, 58
4, 291035, Note_off_c, 2, 36, 0
4, 291360, Note_on_c, 2, 36, 58
4, 291515, Note_off_c, 2, 36, 0
4, 291840, Note_on_c, 2, 36, 59
4, 291995, Note_off_c, 2, 36, 0
4, 292320, Note_on_c, 2, 35, 60
4, 292475, Note_off_c, 2, 35, 0
4, 293760, Note_on_c, 2, 34, 61
4, 293915, Note_off_c, 2, 34, 0
4, 294240, Note_on_c, 2, 34, 62
4, 294395, Note_off_c, 2, 34, 0
4, 294720, Note_on_c, 2, 34, 63
4, 294875, Note_off_c, 2, 34, 0
4, 295200, Note_on_c, 2, 33, 63
4, 295355, Note_off_c, 2, 33, 0
4, 296640, Note_on_c, 2, 32, 65
4, 296795, Note_off_c, 2, 32, 0
4, 297120, Note_on_c, 2, 32, 67
4, 297275, Note_off_c, 2, 32, 0
4, 297600, Note_on_c, 2, 32, 71
4, 297755, Note_off_c, 2, 32, 0
4, 298080, Note_on_c, 2, 31, 74
4, 298235, Note_off_c, 2, 31, 0
4, 298560, Note_on_c, 2, 29, 88
4, 298715, Note_off_c, 2, 29, 0
4, 300000, Note_on_c, 2, 65, 73
4, 300000, Note_on_c, 2, 74, 73
4, 300000, Note_on_c, 2, 68, 73
4, 300155, Note_off_c, 2, 68, 0
4, 300155, Note_off_c, 2, 74, 0
4, 300155, Note_off_c, 2, 65, 0
4, 300480, Note_on_c, 2, 67, 68
4, 300480, Note_on_c, 2, 71, 68
4, 300480, Note_on_c, 2, 74, 68
4, 300635, Note_off_c, 2, 74, 0
4, 300635, Note_off_c, 2, 71, 0
4, 300635, Note_off_c, 2, 67, 0
4, 300960, Note_on_c, 2, 60, 63
4, 300960, Note_on_c, 2, 67, 63
4, 300960, Note_on_c, 2, 72, 63
4, 300960, Note_on_c, 2, 63, 63
4, 301115, Note_off_c, 2, 63, 0
4, 301115, Note_off_c, 2, 72, 0
4, 301115, Note_off_c, 2, 67, 0
4, 301115, Note_off_c, 2, 60, 0
4, 301920, Note_on_c, 2, 51, 66
4, 301980, Note_on_c, 2, 53, 65
4, 301987, Note_off_c, 2, 51, 0
4, 302040, Note_on_c, 2, 55, 63
4, 302047, Note_off_c, 2, 53, 0
4, 302100, Note_off_c, 2, 55, 0
4, 302100, Note_on_c, 2, 48, 61
4, 302167, Note_off_c, 2, 48, 0
4, 302400, Note_on_c, 2, 36, 83
4, 302400, Note_on_c, 2, 43, 83
4, 302400, Note_on_c, 2, 48, 83
4, 302400, Note_on_c, 2, 39, 83
4, 302640, Note_on_c, 2, 60, 73
4, 302640, Note_on_c, 2, 63, 73
4, 302651, Note_off_c, 2, 39, 0
4, 302651, Note_off_c, 2, 48, 0
4, 302651, Note_off_c, 2, 43, 0
4, 302651, Note_off_c, 2, 36, 0
4, 302720, Note_off_c, 2, 63, 0
4, 302720, Note_off_c, 2, 60, 0
4, 302760, Note_on_c, 2, 62, 74
4, 302760, Note_on_c, 2, 65, 74
4, 302840, Note_off_c, 2, 65, 0
4, 302840, Note_off_c, 2, 62, 0
4, 302880, Note_on_c, 2, 67, 74
4, 302880, Note_on_c, 2, 63, 74
4, 303035, Note_off_c, 2, 63, 0
4, 303035, Note_off_c, 2, 67, 0
4, 303120, Note_on_c, 2, 60, 75
4, 303120, Note_on_c, 2, 63, 75
4, 303275, Note_off_c, 2, 63, 0
4, 303275, Note_off_c, 2, 60, 0
4, 303360, Note_on_c, 2, 65, 76
4, 303360, Note_on_c, 2, 62, 76
4, 303515, Note_off_c, 2, 62, 0
4, 303515, Note_off_c, 2, 65, 0
4, 303600, Note_on_c, 2, 67, 76
4, 303600, Note_on_c, 2, 63, 76
4, 303755, Note_off_c, 2, 63, 0
4, 303755, Note_off_c, 2, 67, 0
4, 303840, Note_on_c, 2, 55, 90
4, 303840, Note_on_c, 2, 43, 90
4, 304055, Note_off_c, 2, 55, 0
4, 304080, Note_on_c, 2, 59, 78
4, 304080, Note_on_c, 2, 55, 78
4, 304091, Note_off_c, 2, 43, 0
4, 304160, Note_off_c, 2, 55, 0
4, 304160, Note_off_c, 2, 59, 0
4, 304200, Note_on_c, 2, 60, 78
4, 304200, Note_on_c, 2, 57, 78
4, 304280, Note_off_c, 2, 57, 0
4, 304280, Note_off_c, 2, 60, 0
4, 304320, Note_on_c, 2, 59, 79
4, 304320, Note_on_c, 2, 62, 79
4, 304475, Note_off_c, 2, 62, 0
4, 304475, Note_off_c, 2, 59, 0
4, 304560, Note_on_c, 2, 55, 79
4, 304560, Note_on_c, 2, 59, 79
4, 304715, Note_off_c, 2, 59, 0
4, 304715, Note_off_c, 2, 55, 0
4, 304800, Note_on_c, 2, 60, 80
4, 304800, Note_on_c, 2, 57, 80
4, 304955, Note_off_c, 2, 57, 0
4, 304955, Note_off_c, 2, 60, 0
4, 305040, Note_on_c, 2, 59, 81
4, 305040, Note_on_c, 2, 62, 81
4, 305195, Note_off_c, 2, 62, 0
4, 305195, Note_off_c, 2, 59, 0
4, 305280, Note_on_c, 2, 48, 96
4, 305280, Note_on_c, 2, 36, 96
4, 305520, Note_on_c, 2, 55, 82
4, 305520, Note_on_c, 2, 58, 82
4, 305531, Note_off_c, 2, 36, 0
4, 305531, Note_off_c, 2, 48, 0
4, 305600, Note_off_c, 2, 58, 0
4, 305600, Note_off_c, 2, 55, 0
4, 305640, Note_on_c, 2, 60, 83
4, 305640, Note_on_c, 2, 56, 83
4, 305720, Note_off_c, 2, 56, 0
4, 305720, Note_off_c, 2, 60, 0
4, 305760, Note_on_c, 2, 61, 83
4, 305760, Note_on_c, 2, 58, 83
4, 305920, Note_off_c, 2, 58, 0
4, 305920, Note_off_c, 2, 61, 0
4, 306000, Note_on_c, 2, 58, 84
4, 306000, Note_on_c, 2, 55, 84
4, 306155, Note_off_c, 2, 55, 0
4, 306155, Note_off_c, 2, 58, 0
4, 306240, Note_on_c, 2, 60, 85
4, 306240, Note_on_c, 2, 56, 85
4, 306395, Note_off_c, 2, 56, 0
4, 306395, Note_off_c, 2, 60, 0
4, 306480, Note_on_c, 2, 61, 85
4, 306480, Note_on_c, 2, 58, 85
4, 306635, Note_off_c, 2, 58, 0
4, 306635, Note_off_c, 2, 61, 0
4, 306720, Note_on_c, 2, 41, 99
4, 306720, Note_on_c, 2, 53, 99
4, 306955, Note_off_c, 2, 53, 0
4, 306960, Note_on_c, 2, 56, 87
4, 306960, Note_on_c, 2, 53, 87
4, 306971, Note_off_c, 2, 41, 0
4, 307040, Note_off_c, 2, 53, 0
4, 307040, Note_off_c, 2, 56, 0
4, 307080, Note_on_c, 2, 55, 87
4, 307080, Note_on_c, 2, 58, 87
4, 307160, Note_off_c, 2, 58, 0
4, 307160, Note_off_c, 2, 55, 0
4, 307200, Note_on_c, 2, 60, 88
4, 307200, Note_on_c, 2, 56, 88
4, 307355, Note_off_c, 2, 56, 0
4, 307355, Note_off_c, 2, 60, 0
4, 307440, Note_on_c, 2, 53, 89
4, 307440, Note_on_c, 2, 56, 89
4, 307595, Note_off_c, 2, 56, 0
4, 307595, Note_off_c, 2, 53, 0
4, 307680, Note_on_c, 2, 58, 89
4, 307680, Note_on_c, 2, 55, 89
4, 307835, Note_off_c, 2, 55, 0
4, 307835, Note_off_c, 2, 58, 0
4, 307920, Note_on_c, 2, 60, 90
4, 307920, Note_on_c, 2, 56, 90
4, 308075, Note_off_c, 2, 56, 0
4, 308075, Note_off_c, 2, 60, 0
4, 308160, Note_on_c, 2, 50, 104
4, 308160, Note_on_c, 2, 38, 104
4, 308400, Note_on_c, 2, 60, 90
4, 308400, Note_on_c, 2, 57, 90
4, 308411, Note_off_c, 2, 38, 0
4, 308411, Note_off_c, 2, 50, 0
4, 308480, Note_off_c, 2, 57, 0
4, 308480, Note_off_c, 2, 60, 0
4, 308520, Note_on_c, 2, 62, 92
4, 308520, Note_on_c, 2, 59, 92
4, 308600, Note_off_c, 2, 59, 0
4, 308600, Note_off_c, 2, 62, 0
4, 308640, Note_on_c, 2, 60, 93
4, 308640, Note_on_c, 2, 63, 93
4, 308795, Note_off_c, 2, 63, 0
4, 308795, Note_off_c, 2, 60, 0
4, 308880, Note_on_c, 2, 60, 96
4, 308880, Note_on_c, 2, 57, 96
4, 309035, Note_off_c, 2, 57, 0
4, 309035, Note_off_c, 2, 60, 0
4, 309120, Note_on_c, 2, 62, 99
4, 309120, Note_on_c, 2, 59, 99
4, 309275, Note_off_c, 2, 59, 0
4, 309275, Note_off_c, 2, 62, 0
4, 309360, Note_on_c, 2, 60, 102
4, 309360, Note_on_c, 2, 63, 102
4, 309515, Note_off_c, 2, 63, 0
4, 309515, Note_off_c, 2, 60, 0
4, 309600, Note_on_c, 2, 55, 114
4, 309600, Note_on_c, 2, 43, 114
4, 309840, Note_on_c, 2, 80, 97
4, 309840, Note_on_c, 2, 77, 97
4, 309851, Note_off_c, 2, 43, 0
4, 309851, Note_off_c, 2, 55, 0
4, 309920, Note_off_c, 2, 77, 0
4, 309920, Note_off_c, 2, 80, 0
4, 309960, Note_on_c, 2, 79, 96
4, 309960, Note_on_c, 2, 75, 96
4, 310040, Note_off_c, 2, 75, 0
4, 310040, Note_off_c, 2, 79, 0
4, 310080, Note_on_c, 2, 74, 96
4, 310080, Note_on_c, 2, 77, 96
4, 310235, Note_off_c, 2, 77, 0
4, 310235, Note_off_c, 2, 74, 0
4, 310320, Note_on_c, 2, 74, 94
4, 310320, Note_on_c, 2, 77, 94
4, 310400, Note_off_c, 2, 77, 0
4, 310400, Note_off_c, 2, 74, 0
4, 310440, Note_on_c, 2, 72, 93
4, 310440, Note_on_c, 2, 75, 93
4, 310520, Note_off_c, 2, 75, 0
4, 310520, Note_off_c, 2, 72, 0
4, 310560, Note_on_c, 2, 71, 93
4, 310560, Note_on_c, 2, 74, 93
4, 310715, Note_off_c, 2, 74, 0
4, 310715, Note_off_c, 2, 71, 0
4, 310800, Note_on_c, 2, 65, 91
4, 310800, Note_on_c, 2, 68, 91
4, 310880, Note_off_c, 2, 68, 0
4, 310880, Note_off_c, 2, 65, 0
4, 310920, Note_on_c, 2, 67, 91
4, 310920, Note_on_c, 2, 63, 91
4, 311000, Note_off_c, 2, 63, 0
4, 311000, Note_off_c, 2, 67, 0
4, 311040, Note_on_c, 2, 65, 90
4, 311040, Note_on_c, 2, 62, 90
4, 311195, Note_off_c, 2, 62, 0
4, 311195, Note_off_c, 2, 65, 0
4, 311280, Note_on_c, 2, 65, 88
4, 311280, Note_on_c, 2, 62, 88
4, 311360, Note_off_c, 2, 62, 0
4, 311360, Note_off_c, 2, 65, 0
4, 311400, Note_on_c, 2, 60, 88
4, 311400, Note_on_c, 2, 63, 88
4, 311480, Note_off_c, 2, 63, 0
4, 311480, Note_off_c, 2, 60, 0
4, 311520, Note_on_c, 2, 59, 87
4, 311520, Note_on_c, 2, 62, 87
4, 311675, Note_off_c, 2, 62, 0
4, 311675, Note_off_c, 2, 59, 0
4, 311760, Note_on_c, 2, 56, 85
4, 311840, Note_off_c, 2, 56, 0
4, 311880, Note_on_c, 2, 53, 85
4, 311960, Note_off_c, 2, 53, 0
4, 312000, Note_on_c, 2, 50, 84
4, 312155, Note_off_c, 2, 50, 0
4, 312240, Note_on_c, 2, 47, 83
4, 312320, Note_off_c, 2, 47, 0
4, 312360, Note_on_c, 2, 43, 82
4, 312440, Note_off_c, 2, 43, 0
4, 312480, Note_on_c, 2, 48, 81
4, 312635, Note_off_c, 2, 48, 0
4, 312720, Note_on_c, 2, 48, 80
4, 312800, Note_off_c, 2, 48, 0
4, 312840, Note_on_c, 2, 43, 79
4, 312920, Note_off_c, 2, 43, 0
4, 312960, Note_on_c, 2, 36, 78
4, 313115, Note_off_c, 2, 36, 0
4, 313200, Note_on_c, 2, 36, 77
4, 313280, Note_off_c, 2, 36, 0
4, 313320, Note_on_c, 2, 31, 76
4, 313400, Note_off_c, 2, 31, 0
4, 313440, Note_on_c, 2, 36, 75
4, 313800, Note_off_c, 2, 36, 0
4, 313920, Note_on_c, 2, 36, 77
4, 313920, Note_on_c, 2, 43, 72
4, 313920, Note_on_c, 2, 39, 72
4, 313920, Note_on_c, 2, 48, 77
4, 314075, Note_off_c, 2, 48, 0
4, 314075, Note_off_c, 2, 39, 0
4, 314075, Note_off_c, 2, 43, 0
4, 314075, Note_off_c, 2, 36, 0
4, 314520, Note_on_c, 2, 60, 73
4, 314520, Note_on_c, 2, 63, 73
4, 314600, Note_off_c, 2, 63, 0
4, 314600, Note_off_c, 2, 60, 0
4, 314640, Note_on_c, 2, 57, 73
4, 314640, Note_on_c, 2, 60, 73
4, 314720, Note_off_c, 2, 60, 0
4, 314720, Note_off_c, 2, 57, 0
4, 314760, Note_on_c, 2, 59, 74
4, 314760, Note_on_c, 2, 62, 74
4, 314840, Note_off_c, 2, 62, 0
4, 314840, Note_off_c, 2, 59, 0
4, 314880, Note_on_c, 2, 63, 74
4, 314880, Note_on_c, 2, 60, 74
4, 315035, Note_off_c, 2, 60, 0
4, 315035, Note_off_c, 2, 63, 0
4, 315360, Note_on_c, 2, 50, 75
4, 315360, Note_on_c, 2, 47, 75
4, 315360, Note_on_c, 2, 43, 80
4, 315360, Note_on_c, 2, 55, 80
4, 315515, Note_off_c, 2, 55, 0
4, 315515, Note_off_c, 2, 43, 0
4, 315515, Note_off_c, 2, 47, 0
4, 315515, Note_off_c, 2, 50, 0
4, 315960, Note_on_c, 2, 59, 76
4, 315960, Note_on_c, 2, 62, 76
4, 316040, Note_off_c, 2, 62, 0
4, 316040, Note_off_c, 2, 59, 0
4, 316080, Note_on_c, 2, 59, 77
4, 316080, Note_on_c, 2, 55, 77
4, 316160, Note_off_c, 2, 55, 0
4, 316160, Note_off_c, 2, 59, 0
4, 316200, Note_on_c, 2, 60, 77
4, 316200, Note_on_c, 2, 57, 77
4, 316280, Note_off_c, 2, 57, 0
4, 316280, Note_off_c, 2, 60, 0
4, 316320, Note_on_c, 2, 59, 77
4, 316320, Note_on_c, 2, 62, 77
4, 316475, Note_off_c, 2, 62, 0
4, 316475, Note_off_c, 2, 59, 0
4, 316800, Note_on_c, 2, 36, 83
4, 316800, Note_on_c, 2, 48, 83
4, 316800, Note_on_c, 2, 43, 78
4, 316800, Note_on_c, 2, 40, 78
4, 316955, Note_off_c, 2, 40, 0
4, 316955, Note_off_c, 2, 43, 0
4, 316955, Note_off_c, 2, 48, 0
4, 316955, Note_off_c, 2, 36, 0
4, 317400, Note_on_c, 2, 61, 80
4, 317400, Note_on_c, 2, 58, 80
4, 317480, Note_off_c, 2, 58, 0
4, 317480, Note_off_c, 2, 61, 0
4, 317520, Note_on_c, 2, 58, 80
4, 317520, Note_on_c, 2, 55, 80
4, 317600, Note_off_c, 2, 55, 0
4, 317600, Note_off_c, 2, 58, 0
4, 317640, Note_on_c, 2, 60, 80
4, 317640, Note_on_c, 2, 56, 80
4, 317720, Note_off_c, 2, 56, 0
4, 317720, Note_off_c, 2, 60, 0
4, 317760, Note_on_c, 2, 61, 80
4, 317760, Note_on_c, 2, 58, 80
4, 317915, Note_off_c, 2, 58, 0
4, 317915, Note_off_c, 2, 61, 0
4, 318240, Note_on_c, 2, 41, 87
4, 318240, Note_on_c, 2, 48, 82
4, 318240, Note_on_c, 2, 53, 87
4, 318240, Note_on_c, 2, 44, 82
4, 318395, Note_off_c, 2, 44, 0
4, 318395, Note_off_c, 2, 53, 0
4, 318395, Note_off_c, 2, 48, 0
4, 318395, Note_off_c, 2, 41, 0
4, 318840, Note_on_c, 2, 60, 83
4, 318840, Note_on_c, 2, 56, 83
4, 318920, Note_off_c, 2, 56, 0
4, 318920, Note_off_c, 2, 60, 0
4, 318960, Note_on_c, 2, 53, 83
4, 318960, Note_on_c, 2, 56, 83
4, 319040, Note_off_c, 2, 56, 0
4, 319040, Note_off_c, 2, 53, 0
4, 319080, Note_on_c, 2, 55, 83
4, 319080, Note_on_c, 2, 58, 83
4, 319160, Note_off_c, 2, 58, 0
4, 319160, Note_off_c, 2, 55, 0
4, 319200, Note_on_c, 2, 60, 84
4, 319200, Note_on_c, 2, 56, 84
4, 319355, Note_off_c, 2, 56, 0
4, 319355, Note_off_c, 2, 60, 0
4, 319680, Note_on_c, 2, 38, 90
4, 319680, Note_on_c, 2, 45, 85
4, 319680, Note_on_c, 2, 50, 90
4, 319680, Note_on_c, 2, 42, 85
4, 319835, Note_off_c, 2, 42, 0
4, 319835, Note_off_c, 2, 50, 0
4, 319835, Note_off_c, 2, 45, 0
4, 319835, Note_off_c, 2, 38, 0
4, 320280, Note_on_c, 2, 60, 86
4, 320280, Note_on_c, 2, 63, 86
4, 320360, Note_off_c, 2, 63, 0
4, 320360, Note_off_c, 2, 60, 0
4, 320400, Note_on_c, 2, 60, 87
4, 320400, Note_on_c, 2, 57, 87
4, 320480, Note_off_c, 2, 57, 0
4, 320480, Note_off_c, 2, 60, 0
4, 320520, Note_on_c, 2, 62, 87
4, 320520, Note_on_c, 2, 59, 87
4, 320600, Note_off_c, 2, 59, 0
4, 320600, Note_off_c, 2, 62, 0
4, 320640, Note_on_c, 2, 60, 87
4, 320640, Note_on_c, 2, 63, 87
4, 320795, Note_off_c, 2, 63, 0
4, 320795, Note_off_c, 2, 60, 0
4, 321120, Note_on_c, 2, 55, 97
4, 321120, Note_on_c, 2, 50, 92
4, 321120, Note_on_c, 2, 43, 97
4, 321120, Note_on_c, 2, 47, 92
4, 321275, Note_off_c, 2, 47, 0
4, 321275, Note_off_c, 2, 43, 0
4, 321275, Note_off_c, 2, 50, 0
4, 321275, Note_off_c, 2, 55, 0
4, 321720, Note_on_c, 2, 68, 89
4, 321720, Note_on_c, 2, 65, 89
4, 321800, Note_off_c, 2, 65, 0
4, 321800, Note_off_c, 2, 68, 0
4, 321840, Note_on_c, 2, 65, 89
4, 321840, Note_on_c, 2, 62, 89
4, 321920, Note_off_c, 2, 62, 0
4, 321920, Note_off_c, 2, 65, 0
4, 321960, Note_on_c, 2, 67, 88
4, 321960, Note_on_c, 2, 63, 88
4, 322040, Note_off_c, 2, 63, 0
4, 322040, Note_off_c, 2, 67, 0
4, 322080, Note_on_c, 2, 68, 88
4, 322080, Note_on_c, 2, 65, 88
4, 322235, Note_off_c, 2, 65, 0
4, 322235, Note_off_c, 2, 68, 0
4, 322680, Note_on_c, 2, 56, 85
4, 322680, Note_on_c, 2, 53, 85
4, 322760, Note_off_c, 2, 53, 0
4, 322760, Note_off_c, 2, 56, 0
4, 322800, Note_on_c, 2, 53, 84
4, 322800, Note_on_c, 2, 50, 84
4, 322880, Note_off_c, 2, 50, 0
4, 322880, Note_off_c, 2, 53, 0
4, 322920, Note_on_c, 2, 55, 84
4, 322920, Note_on_c, 2, 51, 84
4, 323000, Note_off_c, 2, 51, 0
4, 323000, Note_off_c, 2, 55, 0
4, 323040, Note_on_c, 2, 53, 83
4, 323040, Note_on_c, 2, 56, 83
4, 323120, Note_off_c, 2, 56, 0
4, 323120, Note_off_c, 2, 53, 0
4, 323640, Note_on_c, 2, 44, 80
4, 323640, Note_on_c, 2, 41, 80
4, 323720, Note_off_c, 2, 41, 0
4, 323720, Note_off_c, 2, 44, 0
4, 323760, Note_on_c, 2, 43, 80
4, 323760, Note_on_c, 2, 39, 80
4, 323840, Note_off_c, 2, 39, 0
4, 323840, Note_off_c, 2, 43, 0
4, 323880, Note_on_c, 2, 41, 79
4, 323880, Note_on_c, 2, 38, 79
4, 323960, Note_off_c, 2, 38, 0
4, 323960, Note_off_c, 2, 41, 0
4, 324120, Note_on_c, 2, 39, 78
4, 324200, Note_off_c, 2, 39, 0
4, 324240, Note_on_c, 2, 38, 77
4, 324320, Note_off_c, 2, 38, 0
4, 324360, Note_on_c, 2, 36, 77
4, 324440, Note_off_c, 2, 36, 0
4, 324600, Note_on_c, 2, 35, 76
4, 324680, Note_off_c, 2, 35, 0
4, 324720, Note_on_c, 2, 33, 75
4, 324800, Note_off_c, 2, 33, 0
4, 324840, Note_on_c, 2, 31, 75
4, 324920, Note_off_c, 2, 31, 0
4, 325200, Note_on_c, 2, 36, 73
4, 325278, Note_off_c, 2, 36, 0
4, 326880, Note_on_c, 2, 48, 52
4, 327000, Note_on_c, 2, 63, 44
4, 327120, Note_off_c, 2, 63, 0
4, 327120, Note_on_c, 2, 60, 44
4, 327240, Note_off_c, 2, 60, 0
4, 327240, Note_on_c, 2, 63, 45
4, 327360, Note_off_c, 2, 63, 0
4, 327360, Note_on_c, 2, 55, 45
4, 327480, Note_off_c, 2, 55, 0
4, 327480, Note_on_c, 2, 63, 45
4, 327600, Note_off_c, 2, 63, 0
4, 327600, Note_on_c, 2, 60, 46
4, 327720, Note_off_c, 2, 60, 0
4, 327720, Note_on_c, 2, 63, 46
4, 327840, Note_off_c, 2, 63, 0
4, 327840, Note_on_c, 2, 55, 46
4, 327960, Note_off_c, 2, 55, 0
4, 327960, Note_on_c, 2, 63, 46
4, 328080, Note_off_c, 2, 63, 0
4, 328080, Note_on_c, 2, 60, 47
4, 328200, Note_off_c, 2, 60, 0
4, 328200, Note_on_c, 2, 63, 47
4, 328320, Note_off_c, 2, 63, 0
4, 328320, Note_off_c, 2, 48, 0
4, 328320, Note_on_c, 2, 43, 55
4, 328440, Note_on_c, 2, 62, 48
4, 328560, Note_off_c, 2, 62, 0
4, 328560, Note_on_c, 2, 59, 48
4, 328680, Note_off_c, 2, 59, 0
4, 328680, Note_on_c, 2, 62, 48
4, 328800, Note_off_c, 2, 62, 0
4, 328800, Note_on_c, 2, 55, 48
4, 328920, Note_off_c, 2, 55, 0
4, 328920, Note_on_c, 2, 62, 49
4, 329040, Note_off_c, 2, 62, 0
4, 329040, Note_on_c, 2, 59, 49
4, 329160, Note_off_c, 2, 59, 0
4, 329160, Note_on_c, 2, 62, 49
4, 329280, Note_off_c, 2, 62, 0
4, 329280, Note_on_c, 2, 55, 50
4, 329400, Note_off_c, 2, 55, 0
4, 329400, Note_on_c, 2, 62, 50
4, 329520, Note_off_c, 2, 62, 0
4, 329520, Note_on_c, 2, 59, 50
4, 329640, Note_off_c, 2, 59, 0
4, 329640, Note_on_c, 2, 62, 51
4, 329760, Note_off_c, 2, 62, 0
4, 329760, Note_off_c, 2, 43, 0
4, 329760, Note_on_c, 2, 48, 58
4, 329880, Note_on_c, 2, 64, 51
4, 330000, Note_off_c, 2, 64, 0
4, 330000, Note_on_c, 2, 58, 51
4, 330120, Note_off_c, 2, 58, 0
4, 330120, Note_on_c, 2, 64, 52
4, 330240, Note_off_c, 2, 64, 0
4, 330240, Note_on_c, 2, 55, 52
4, 330360, Note_off_c, 2, 55, 0
4, 330360, Note_on_c, 2, 64, 52
4, 330480, Note_off_c, 2, 64, 0
4, 330480, Note_on_c, 2, 58, 53
4, 330600, Note_off_c, 2, 58, 0
4, 330600, Note_on_c, 2, 64, 53
4, 330720, Note_off_c, 2, 64, 0
4, 330720, Note_on_c, 2, 55, 53
4, 330840, Note_off_c, 2, 55, 0
4, 330840, Note_on_c, 2, 64, 53
4, 330960, Note_off_c, 2, 64, 0
4, 330960, Note_on_c, 2, 58, 54
4, 331080, Note_off_c, 2, 58, 0
4, 331080, Note_on_c, 2, 64, 54
4, 331200, Note_off_c, 2, 64, 0
4, 331200, Note_off_c, 2, 48, 0
4, 331200, Note_on_c, 2, 53, 64
4, 331320, Note_on_c, 2, 65, 55
4, 331440, Note_off_c, 2, 65, 0
4, 331440, Note_on_c, 2, 60, 55
4, 331560, Note_off_c, 2, 60, 0
4, 331560, Note_on_c, 2, 65, 55
4, 331680, Note_off_c, 2, 65, 0
4, 331680, Note_on_c, 2, 57, 55
4, 331800, Note_off_c, 2, 57, 0
4, 331800, Note_on_c, 2, 65, 56
4, 331920, Note_off_c, 2, 65, 0
4, 331920, Note_on_c, 2, 60, 56
4, 332040, Note_off_c, 2, 60, 0
4, 332040, Note_on_c, 2, 65, 56
4, 332160, Note_off_c, 2, 65, 0
4, 332160, Note_on_c, 2, 57, 57
4, 332280, Note_off_c, 2, 57, 0
4, 332280, Note_on_c, 2, 65, 57
4, 332400, Note_off_c, 2, 65, 0
4, 332400, Note_on_c, 2, 60, 57
4, 332520, Note_off_c, 2, 60, 0
4, 332520, Note_on_c, 2, 65, 58
4, 332640, Note_off_c, 2, 65, 0
4, 332640, Note_off_c, 2, 53, 0
4, 332640, Note_on_c, 2, 50, 66
4, 332760, Note_on_c, 2, 60, 58
4, 332880, Note_off_c, 2, 60, 0
4, 332880, Note_on_c, 2, 57, 58
4, 333000, Note_off_c, 2, 57, 0
4, 333000, Note_on_c, 2, 60, 59
4, 333120, Note_off_c, 2, 60, 0
4, 333120, Note_on_c, 2, 54, 59
4, 333240, Note_off_c, 2, 54, 0
4, 333240, Note_on_c, 2, 60, 59
4, 333360, Note_off_c, 2, 60, 0
4, 333360, Note_on_c, 2, 57, 60
4, 333480, Note_off_c, 2, 57, 0
4, 333480, Note_on_c, 2, 60, 60
4, 333600, Note_off_c, 2, 60, 0
4, 333600, Note_on_c, 2, 54, 60
4, 333720, Note_off_c, 2, 54, 0
4, 333720, Note_on_c, 2, 60, 60
4, 333840, Note_off_c, 2, 60, 0
4, 333840, Note_on_c, 2, 57, 61
4, 333960, Note_off_c, 2, 57, 0
4, 333960, Note_on_c, 2, 60, 61
4, 334080, Note_off_c, 2, 60, 0
4, 334080, Note_off_c, 2, 50, 0
4, 334080, Note_on_c, 2, 43, 69
4, 334200, Note_on_c, 2, 56, 62
4, 334320, Note_off_c, 2, 56, 0
4, 334320, Note_on_c, 2, 53, 62
4, 334440, Note_off_c, 2, 53, 0
4, 334440, Note_on_c, 2, 56, 62
4, 334560, Note_off_c, 2, 56, 0
4, 334560, Note_on_c, 2, 50, 63
4, 334680, Note_off_c, 2, 50, 0
4, 334680, Note_on_c, 2, 56, 63
4, 334800, Note_off_c, 2, 56, 0
4, 334800, Note_on_c, 2, 53, 63
4, 334920, Note_off_c, 2, 53, 0
4, 334920, Note_on_c, 2, 56, 63
4, 335040, Note_off_c, 2, 56, 0
4, 335040, Note_on_c, 2, 50, 64
4, 335160, Note_off_c, 2, 50, 0
4, 335160, Note_on_c, 2, 56, 64
4, 335280, Note_off_c, 2, 56, 0
4, 335280, Note_on_c, 2, 53, 64
4, 335400, Note_off_c, 2, 53, 0
4, 335400, Note_on_c, 2, 56, 65
4, 335520, Note_off_c, 2, 56, 0
4, 335520, Note_off_c, 2, 43, 0
4, 335520, Note_on_c, 2, 47, 74
4, 335640, Note_on_c, 2, 56, 64
4, 335760, Note_off_c, 2, 56, 0
4, 335760, Note_on_c, 2, 53, 63
4, 335880, Note_off_c, 2, 53, 0
4, 335880, Note_on_c, 2, 56, 62
4, 336000, Note_off_c, 2, 56, 0
4, 336000, Note_off_c, 2, 47, 0
4, 336000, Note_on_c, 2, 44, 69
4, 336120, Note_on_c, 2, 50, 60
4, 336240, Note_off_c, 2, 50, 0
4, 336240, Note_on_c, 2, 47, 59
4, 336360, Note_off_c, 2, 47, 0
4, 336360, Note_on_c, 2, 50, 58
4, 336480, Note_off_c, 2, 50, 0
4, 336480, Note_off_c, 2, 44, 0
4, 336480, Note_on_c, 2, 43, 64
4, 336600, Note_off_c, 2, 43, 0
4, 336600, Note_on_c, 2, 44, 56
4, 336720, Note_off_c, 2, 44, 0
4, 336720, Note_on_c, 2, 43, 55
4, 336840, Note_off_c, 2, 43, 0
4, 336840, Note_on_c, 2, 41, 55
4, 336960, Note_off_c, 2, 41, 0
4, 336960, Note_on_c, 2, 39, 59
4, 337080, Note_off_c, 2, 39, 0
4, 337080, Note_on_c, 2, 38, 53
4, 337200, Note_off_c, 2, 38, 0
4, 337200, Note_on_c, 2, 39, 52
4, 337320, Note_off_c, 2, 39, 0
4, 337320, Note_on_c, 2, 36, 51
4, 337440, Note_off_c, 2, 36, 0
4, 337440, Note_on_c, 2, 35, 56
4, 337560, Note_off_c, 2, 35, 0
4, 337560, Note_on_c, 2, 31, 49
4, 337680, Note_off_c, 2, 31, 0
4, 337680, Note_on_c, 2, 33, 48
4, 337800, Note_off_c, 2, 33, 0
4, 337800, Note_on_c, 2, 35, 47
4, 337920, Note_off_c, 2, 35, 0
4, 337920, Note_on_c, 2, 36, 52
4, 338280, Note_off_c, 2, 36, 0
4, 338400, Note_on_c, 2, 39, 77
4, 338480, Note_off_c, 2, 39, 0
4, 338480, Note_on_c, 2, 36, 76
4, 338560, Note_off_c, 2, 36, 0
4, 338560, Note_on_c, 2, 39, 76
4, 338640, Note_off_c, 2, 39, 0
4, 338640, Note_on_c, 2, 43, 75
4, 338720, Note_off_c, 2, 43, 0
4, 338720, Note_on_c, 2, 39, 74
4, 338800, Note_off_c, 2, 39, 0
4, 338800, Note_on_c, 2, 43, 74
4, 338880, Note_off_c, 2, 43, 0
4, 338880, Note_on_c, 2, 48, 73
4, 338960, Note_off_c, 2, 48, 0
4, 338960, Note_on_c, 2, 43, 72
4, 339040, Note_off_c, 2, 43, 0
4, 339040, Note_on_c, 2, 48, 72
4, 339120, Note_off_c, 2, 48, 0
4, 339120, Note_on_c, 2, 51, 71
4, 339200, Note_off_c, 2, 51, 0
4, 339200, Note_on_c, 2, 48, 70
4, 339280, Note_off_c, 2, 48, 0
4, 339280, Note_on_c, 2, 51, 70
4, 339360, Note_off_c, 2, 51, 0
4, 339360, Note_on_c, 2, 55, 69
4, 339440, Note_off_c, 2, 55, 0
4, 339440, Note_on_c, 2, 51, 68
4, 339520, Note_off_c, 2, 51, 0
4, 339520, Note_on_c, 2, 55, 68
4, 339600, Note_off_c, 2, 55, 0
4, 339600, Note_on_c, 2, 60, 67
4, 339680, Note_off_c, 2, 60, 0
4, 339680, Note_on_c, 2, 55, 66
4, 339760, Note_off_c, 2, 55, 0
4, 339760, Note_on_c, 2, 60, 66
4, 339840, Note_off_c, 2, 60, 0
4, 339840, Note_on_c, 2, 47, 64
4, 339840, Note_on_c, 2, 59, 64
4, 339920, Note_off_c, 2, 59, 0
4, 339920, Note_off_c, 2, 47, 0
4, 340080, Note_on_c, 2, 43, 69
4, 340080, Note_on_c, 2, 55, 69
4, 340160, Note_off_c, 2, 55, 0
4, 340160, Note_off_c, 2, 43, 0
4, 340320, Note_on_c, 2, 38, 74
4, 340320, Note_on_c, 2, 50, 74
4, 340400, Note_off_c, 2, 50, 0
4, 340400, Note_off_c, 2, 38, 0
4, 340560, Note_on_c, 2, 35, 80
4, 340560, Note_on_c, 2, 47, 80
4, 340640, Note_off_c, 2, 47, 0
4, 340640, Note_off_c, 2, 35, 0
4, 340800, Note_on_c, 2, 31, 87
4, 340800, Note_on_c, 2, 43, 87
4, 341040, Note_off_c, 2, 43, 0
4, 341040, Note_off_c, 2, 31, 0
4, 341280, Note_on_c, 2, 37, 85
4, 341360, Note_off_c, 2, 37, 0
4, 341360, Note_on_c, 2, 34, 83
4, 341440, Note_off_c, 2, 34, 0
4, 341440, Note_on_c, 2, 37, 83
4, 341520, Note_off_c, 2, 37, 0
4, 341520, Note_on_c, 2, 42, 82
4, 341600, Note_off_c, 2, 42, 0
4, 341600, Note_on_c, 2, 37, 81
4, 341680, Note_off_c, 2, 37, 0
4, 341680, Note_on_c, 2, 42, 81
4, 341760, Note_off_c, 2, 42, 0
4, 341760, Note_on_c, 2, 46, 79
4, 341840, Note_off_c, 2, 46, 0
4, 341840, Note_on_c, 2, 42, 78
4, 341920, Note_off_c, 2, 42, 0
4, 341920, Note_on_c, 2, 46, 78
4, 342000, Note_off_c, 2, 46, 0
4, 342000, Note_on_c, 2, 49, 77
4, 342080, Note_off_c, 2, 49, 0
4, 342080, Note_on_c, 2, 46, 76
4, 342160, Note_off_c, 2, 46, 0
4, 342160, Note_on_c, 2, 49, 76
4, 342240, Note_off_c, 2, 49, 0
4, 342240, Note_on_c, 2, 54, 75
4, 342320, Note_off_c, 2, 54, 0
4, 342320, Note_on_c, 2, 49, 74
4, 342400, Note_off_c, 2, 49, 0
4, 342400, Note_on_c, 2, 54, 74
4, 342480, Note_off_c, 2, 54, 0
4, 342480, Note_on_c, 2, 58, 73
4, 342560, Note_off_c, 2, 58, 0
4, 342560, Note_on_c, 2, 54, 72
4, 342640, Note_off_c, 2, 54, 0
4, 342640, Note_on_c, 2, 58, 72
4, 342720, Note_off_c, 2, 58, 0
4, 342720, Note_on_c, 2, 45, 70
4, 342720, Note_on_c, 2, 57, 70
4, 342800, Note_off_c, 2, 57, 0
4, 342800, Note_off_c, 2, 45, 0
4, 342960, Note_on_c, 2, 53, 74
4, 342960, Note_on_c, 2, 41, 74
4, 343040, Note_off_c, 2, 41, 0
4, 343040, Note_off_c, 2, 53, 0
4, 343200, Note_on_c, 2, 36, 78
4, 343200, Note_on_c, 2, 48, 78
4, 343280, Note_off_c, 2, 48, 0
4, 343280, Note_off_c, 2, 36, 0
4, 343440, Note_on_c, 2, 33, 82
4, 343440, Note_on_c, 2, 45, 82
4, 343520, Note_off_c, 2, 45, 0
4, 343520, Note_off_c, 2, 33, 0
4, 343680, Note_on_c, 2, 29, 86
4, 343680, Note_on_c, 2, 41, 86
4, 343920, Note_off_c, 2, 41, 0
4, 343920, Note_off_c, 2, 29, 0
4, 344160, Note_on_c, 2, 51, 85
4, 344240, Note_off_c, 2, 51, 0
4, 344240, Note_on_c, 2, 56, 87
4, 344320, Note_off_c, 2, 56, 0
4, 344320, Note_on_c, 2, 51, 87
4, 344400, Note_off_c, 2, 51, 0
4, 344400, Note_on_c, 2, 48, 88
4, 344480, Note_off_c, 2, 48, 0
4, 344480, Note_on_c, 2, 51, 89
4, 344560, Note_off_c, 2, 51, 0
4, 344560, Note_on_c, 2, 48, 89
4, 344640, Note_off_c, 2, 48, 0
4, 344640, Note_on_c, 2, 44, 91
4, 344720, Note_off_c, 2, 44, 0
4, 344720, Note_on_c, 2, 48, 92
4, 344800, Note_off_c, 2, 48, 0
4, 344800, Note_on_c, 2, 44, 92
4, 344880, Note_off_c, 2, 44, 0
4, 344880, Note_on_c, 2, 39, 93
4, 344960, Note_off_c, 2, 39, 0
4, 344960, Note_on_c, 2, 44, 95
4, 345040, Note_off_c, 2, 44, 0
4, 345040, Note_on_c, 2, 39, 95
4, 345120, Note_off_c, 2, 39, 0
4, 345120, Note_on_c, 2, 36, 96
4, 345200, Note_off_c, 2, 36, 0
4, 345200, Note_on_c, 2, 39, 97
4, 345280, Note_off_c, 2, 39, 0
4, 345280, Note_on_c, 2, 36, 97
4, 345360, Note_off_c, 2, 36, 0
4, 345360, Note_on_c, 2, 32, 99
4, 345440, Note_off_c, 2, 32, 0
4, 345440, Note_on_c, 2, 36, 100
4, 345520, Note_off_c, 2, 36, 0
4, 345520, Note_on_c, 2, 32, 100
4, 345600, Note_off_c, 2, 32, 0
4, 345600, Note_on_c, 2, 36, 101
4, 345680, Note_off_c, 2, 36, 0
4, 345680, Note_on_c, 2, 39, 103
4, 345760, Note_off_c, 2, 39, 0
4, 345760, Note_on_c, 2, 36, 103
4, 345840, Note_off_c, 2, 36, 0
4, 345840, Note_on_c, 2, 31, 104
4, 345920, Note_off_c, 2, 31, 0
4, 345920, Note_on_c, 2, 36, 105
4, 346000, Note_off_c, 2, 36, 0
4, 346000, Note_on_c, 2, 31, 105
4, 346080, Note_off_c, 2, 31, 0
4, 346080, Note_on_c, 2, 36, 106
4, 346160, Note_off_c, 2, 36, 0
4, 346160, Note_on_c, 2, 38, 106
4, 346240, Note_off_c, 2, 38, 0
4, 346240, Note_on_c, 2, 36, 106
4, 346320, Note_off_c, 2, 36, 0
4, 346320, Note_on_c, 2, 29, 106
4, 346400, Note_off_c, 2, 29, 0
4, 346400, Note_on_c, 2, 36, 106
4, 346480, Note_off_c, 2, 36, 0
4, 346480, Note_on_c, 2, 29, 106
4, 346560, Note_off_c, 2, 29, 0
4, 346560, Note_on_c, 2, 36, 106
4, 346640, Note_off_c, 2, 36, 0
4, 346640, Note_on_c, 2, 38, 106
4, 346720, Note_off_c, 2, 38, 0
4, 346720, Note_on_c, 2, 36, 106
4, 346800, Note_off_c, 2, 36, 0
4, 346800, Note_on_c, 2, 29, 106
4, 346880, Note_off_c, 2, 29, 0
4, 346880, Note_on_c, 2, 36, 106
4, 346960, Note_off_c, 2, 36, 0
4, 346960, Note_on_c, 2, 29, 106
4, 347040, Note_off_c, 2, 29, 0
4, 347040, Note_on_c, 2, 36, 104
4, 347120, Note_off_c, 2, 36, 0
4, 347120, Note_on_c, 2, 38, 103
4, 347200, Note_off_c, 2, 38, 0
4, 347200, Note_on_c, 2, 36, 101
4, 347280, Note_off_c, 2, 36, 0
4, 347280, Note_on_c, 2, 29, 100
4, 347360, Note_off_c, 2, 29, 0
4, 347360, Note_on_c, 2, 36, 98
4, 347440, Note_off_c, 2, 36, 0
4, 347440, Note_on_c, 2, 29, 96
4, 347520, Note_off_c, 2, 29, 0
4, 347520, Note_on_c, 2, 36, 95
4, 347600, Note_off_c, 2, 36, 0
4, 347600, Note_on_c, 2, 38, 93
4, 347680, Note_off_c, 2, 38, 0
4, 347680, Note_on_c, 2, 36, 91
4, 347760, Note_off_c, 2, 36, 0
4, 347760, Note_on_c, 2, 32, 90
4, 347840, Note_off_c, 2, 32, 0
4, 347840, Note_on_c, 2, 36, 88
4, 347920, Note_off_c, 2, 36, 0
4, 347920, Note_on_c, 2, 32, 86
4, 348000, Note_off_c, 2, 32, 0
4, 348000, Note_on_c, 2, 35, 85
4, 348080, Note_off_c, 2, 35, 0
4, 348080, Note_on_c, 2, 38, 83
4, 348160, Note_off_c, 2, 38, 0
4, 348160, Note_on_c, 2, 35, 81
4, 348240, Note_off_c, 2, 35, 0
4, 348240, Note_on_c, 2, 31, 80
4, 348320, Note_off_c, 2, 31, 0
4, 348320, Note_on_c, 2, 35, 78
4, 348400, Note_off_c, 2, 35, 0
4, 348400, Note_on_c, 2, 31, 76
4, 348480, Note_off_c, 2, 31, 0
4, 348480, Note_on_c, 2, 36, 75
4, 348560, Note_off_c, 2, 36, 0
4, 348560, Note_on_c, 2, 39, 73
4, 348640, Note_off_c, 2, 39, 0
4, 348640, Note_on_c, 2, 43, 71
4, 348720, Note_off_c, 2, 43, 0
4, 348720, Note_on_c, 2, 39, 70
4, 348800, Note_off_c, 2, 39, 0
4, 348800, Note_on_c, 2, 43, 68
4, 348880, Note_off_c, 2, 43, 0
4, 348880, Note_on_c, 2, 48, 67
4, 348960, Note_off_c, 2, 48, 0
4, 348960, Note_on_c, 2, 43, 65
4, 349040, Note_off_c, 2, 43, 0
4, 349040, Note_on_c, 2, 47, 63
4, 349120, Note_off_c, 2, 47, 0
4, 349120, Note_on_c, 2, 50, 62
4, 349200, Note_off_c, 2, 50, 0
4, 349200, Note_on_c, 2, 43, 60
4, 349280, Note_off_c, 2, 43, 0
4, 349280, Note_on_c, 2, 50, 58
4, 349360, Note_off_c, 2, 50, 0
4, 349360, Note_on_c, 2, 53, 57
4, 349440, Note_off_c, 2, 53, 0
4, 349440, Note_on_c, 2, 48, 55
4, 349520, Note_off_c, 2, 48, 0
4, 349520, Note_on_c, 2, 51, 53
4, 349600, Note_off_c, 2, 51, 0
4, 349600, Note_on_c, 2, 55, 52
4, 349680, Note_off_c, 2, 55, 0
4, 349680, Note_on_c, 2, 48, 50
4, 349760, Note_off_c, 2, 48, 0
4, 349760, Note_on_c, 2, 51, 48
4, 349840, Note_off_c, 2, 51, 0
4, 349840, Note_on_c, 2, 55, 47
4, 349920, Note_off_c, 2, 55, 0
4, 349920, Note_on_c, 2, 51, 47
4, 349920, Note_on_c, 2, 48, 47
4, 350305, Note_off_c, 2, 48, 0
4, 350305, Note_off_c, 2, 51, 0
4, 350400, Note_on_c, 2, 50, 35
4, 350400, Note_on_c, 2, 53, 35
4, 350785, Note_off_c, 2, 53, 0
4, 350785, Note_off_c, 2, 50, 0
4, 350880, Note_on_c, 2, 48, 32
4, 350880, Note_on_c, 2, 51, 32
4, 351265, Note_off_c, 2, 51, 0
4, 351265, Note_off_c, 2, 48, 0
4, 351360, Note_on_c, 2, 53, 34
4, 351360, Note_on_c, 2, 47, 34
4, 351745, Note_off_c, 2, 47, 0
4, 351745, Note_off_c, 2, 53, 0
4, 351840, Note_on_c, 2, 53, 35
4, 351840, Note_on_c, 2, 47, 35
4, 352225, Note_off_c, 2, 47, 0
4, 352225, Note_off_c, 2, 53, 0
4, 352320, Note_on_c, 2, 53, 36
4, 352320, Note_on_c, 2, 47, 36
4, 352705, Note_off_c, 2, 47, 0
4, 352705, Note_off_c, 2, 53, 0
4, 352800, Note_on_c, 2, 48, 38
4, 352800, Note_on_c, 2, 46, 38
4, 353185, Note_off_c, 2, 46, 0
4, 353185, Note_off_c, 2, 48, 0
4, 353280, Note_on_c, 2, 48, 39
4, 353280, Note_on_c, 2, 46, 39
4, 353665, Note_off_c, 2, 46, 0
4, 353665, Note_off_c, 2, 48, 0
4, 353760, Note_on_c, 2, 48, 40
4, 353760, Note_on_c, 2, 46, 40
4, 354145, Note_off_c, 2, 46, 0
4, 354145, Note_off_c, 2, 48, 0
4, 354240, Note_on_c, 2, 48, 42
4, 354240, Note_on_c, 2, 45, 42
4, 354625, Note_off_c, 2, 45, 0
4, 354625, Note_off_c, 2, 48, 0
4, 354720, Note_on_c, 2, 48, 43
4, 354720, Note_on_c, 2, 45, 43
4, 355105, Note_off_c, 2, 45, 0
4, 355105, Note_off_c, 2, 48, 0
4, 355200, Note_on_c, 2, 48, 44
4, 355200, Note_on_c, 2, 45, 44
4, 355585, Note_off_c, 2, 45, 0
4, 355585, Note_off_c, 2, 48, 0
4, 355680, Note_on_c, 2, 51, 46
4, 355680, Note_on_c, 2, 44, 46
4, 356065, Note_off_c, 2, 44, 0
4, 356065, Note_off_c, 2, 51, 0
4, 356160, Note_on_c, 2, 50, 51
4, 356160, Note_on_c, 2, 44, 51
4, 356545, Note_off_c, 2, 44, 0
4, 356545, Note_off_c, 2, 50, 0
4, 356640, Note_on_c, 2, 48, 56
4, 356640, Note_on_c, 2, 44, 56
4, 357025, Note_off_c, 2, 44, 0
4, 357025, Note_off_c, 2, 48, 0
4, 357120, Note_on_c, 2, 50, 60
4, 357120, Note_on_c, 2, 43, 60
4, 357505, Note_off_c, 2, 43, 0
4, 357505, Note_off_c, 2, 50, 0
4, 357600, Note_on_c, 2, 41, 67
4, 357600, Note_on_c, 2, 50, 67
4, 357985, Note_off_c, 2, 50, 0
4, 357985, Note_off_c, 2, 41, 0
4, 358080, Note_on_c, 2, 50, 59
4, 358080, Note_on_c, 2, 41, 59
4, 358465, Note_off_c, 2, 41, 0
4, 358465, Note_off_c, 2, 50, 0
4, 358560, Note_on_c, 2, 50, 55
4, 358560, Note_on_c, 2, 41, 55
4, 358945, Note_off_c, 2, 41, 0
4, 358945, Note_off_c, 2, 50, 0
4, 359040, Note_on_c, 2, 50, 52
4, 359040, Note_on_c, 2, 44, 52
4, 359425, Note_off_c, 2, 44, 0
4, 359425, Note_off_c, 2, 50, 0
4, 359520, Note_on_c, 2, 50, 48
4, 359520, Note_on_c, 2, 43, 48
4, 359905, Note_off_c, 2, 43, 0
4, 359905, Note_off_c, 2, 50, 0
4, 360000, Note_on_c, 2, 51, 44
4, 360000, Note_on_c, 2, 48, 44
4, 360385, Note_off_c, 2, 48, 0
4, 360385, Note_off_c, 2, 51, 0
4, 360480, Note_on_c, 2, 50, 41
4, 360480, Note_on_c, 2, 43, 41
4, 360865, Note_off_c, 2, 43, 0
4, 360865, Note_off_c, 2, 50, 0
4, 360960, Note_on_c, 2, 36, 37
4, 360960, Note_on_c, 2, 48, 37
4, 361284, Note_off_c, 2, 48, 0
4, 361284, Note_off_c, 2, 36, 0
4, 361440, Note_on_c, 2, 36, 38
4, 361500, Note_on_c, 2, 39, 38
4, 361560, Note_off_c, 2, 39, 0
4, 361560, Note_on_c, 2, 43, 38
4, 361620, Note_off_c, 2, 43, 0
4, 361620, Note_on_c, 2, 48, 38
4, 361650, Note_off_c, 2, 36, 0
4, 361680, Note_off_c, 2, 48, 0
4, 361680, Note_on_c, 2, 36, 38
4, 361740, Note_on_c, 2, 39, 38
4, 361800, Note_off_c, 2, 39, 0
4, 361800, Note_on_c, 2, 43, 38
4, 361860, Note_off_c, 2, 43, 0
4, 361860, Note_on_c, 2, 48, 38
4, 361890, Note_off_c, 2, 36, 0
4, 361920, Note_off_c, 2, 48, 0
4, 361920, Note_on_c, 2, 36, 38
4, 361980, Note_on_c, 2, 39, 38
4, 362040, Note_off_c, 2, 39, 0
4, 362040, Note_on_c, 2, 43, 38
4, 362100, Note_off_c, 2, 43, 0
4, 362100, Note_on_c, 2, 48, 39
4, 362130, Note_off_c, 2, 36, 0
4, 362160, Note_off_c, 2, 48, 0
4, 362160, Note_on_c, 2, 36, 39
4, 362220, Note_on_c, 2, 39, 39
4, 362280, Note_off_c, 2, 39, 0
4, 362280, Note_on_c, 2, 43, 39
4, 362340, Note_off_c, 2, 43, 0
4, 362340, Note_on_c, 2, 48, 39
4, 362370, Note_off_c, 2, 36, 0
4, 362400, Note_off_c, 2, 48, 0
4, 362400, Note_on_c, 2, 36, 39
4, 362460, Note_on_c, 2, 39, 39
4, 362520, Note_off_c, 2, 39, 0
4, 362520, Note_on_c, 2, 43, 39
4, 362580, Note_off_c, 2, 43, 0
4, 362580, Note_on_c, 2, 48, 39
4, 362610, Note_off_c, 2, 36, 0
4, 362640, Note_off_c, 2, 48, 0
4, 362640, Note_on_c, 2, 36, 39
4, 362700, Note_on_c, 2, 39, 39
4, 362760, Note_off_c, 2, 39, 0
4, 362760, Note_on_c, 2, 43, 39
4, 362820, Note_off_c, 2, 43, 0
4, 362820, Note_on_c, 2, 48, 39
4, 362850, Note_off_c, 2, 36, 0
4, 362880, Note_off_c, 2, 48, 0
4, 362880, Note_on_c, 2, 36, 40
4, 362925, Note_on_c, 2, 38, 40
4, 362970, Note_on_c, 2, 41, 40
4, 362985, Note_off_c, 2, 38, 0
4, 363020, Note_on_c, 2, 43, 40
4, 363030, Note_off_c, 2, 41, 0
4, 363070, Note_on_c, 2, 47, 40
4, 363080, Note_off_c, 2, 43, 0
4, 363090, Note_off_c, 2, 36, 0
4, 363120, Note_on_c, 2, 36, 40
4, 363130, Note_off_c, 2, 47, 0
4, 363165, Note_on_c, 2, 38, 40
4, 363210, Note_on_c, 2, 41, 40
4, 363225, Note_off_c, 2, 38, 0
4, 363260, Note_on_c, 2, 43, 40
4, 363270, Note_off_c, 2, 41, 0
4, 363310, Note_on_c, 2, 47, 40
4, 363320, Note_off_c, 2, 43, 0
4, 363330, Note_off_c, 2, 36, 0
4, 363360, Note_on_c, 2, 36, 40
4, 363370, Note_off_c, 2, 47, 0
4, 363405, Note_on_c, 2, 38, 40
4, 363450, Note_on_c, 2, 41, 40
4, 363465, Note_off_c, 2, 38, 0
4, 363500, Note_on_c, 2, 43, 40
4, 363510, Note_off_c, 2, 41, 0
4, 363550, Note_on_c, 2, 47, 40
4, 363560, Note_off_c, 2, 43, 0
4, 363570, Note_off_c, 2, 36, 0
4, 363600, Note_on_c, 2, 36, 41
4, 363610, Note_off_c, 2, 47, 0
4, 363645, Note_on_c, 2, 38, 41
4, 363690, Note_on_c, 2, 41, 41
4, 363705, Note_off_c, 2, 38, 0
4, 363740, Note_on_c, 2, 43, 41
4, 363750, Note_off_c, 2, 41, 0
4, 363790, Note_on_c, 2, 47, 41
4, 363800, Note_off_c, 2, 43, 0
4, 363810, Note_off_c, 2, 36, 0
4, 363840, Note_on_c, 2, 36, 41
4, 363850, Note_off_c, 2, 47, 0
4, 363885, Note_on_c, 2, 38, 41
4, 363930, Note_on_c, 2, 41, 41
4, 363945, Note_off_c, 2, 38, 0
4, 363980, Note_on_c, 2, 43, 41
4, 363990, Note_off_c, 2, 41, 0
4, 364030, Note_on_c, 2, 47, 41
4, 364040, Note_off_c, 2, 43, 0
4, 364050, Note_off_c, 2, 36, 0
4, 364080, Note_on_c, 2, 36, 41
4, 364090, Note_off_c, 2, 47, 0
4, 364125, Note_on_c, 2, 38, 41
4, 364170, Note_on_c, 2, 41, 41
4, 364185, Note_off_c, 2, 38, 0
4, 364220, Note_on_c, 2, 43, 41
4, 364230, Note_off_c, 2, 41, 0
4, 364270, Note_on_c, 2, 47, 41
4, 364280, Note_off_c, 2, 43, 0
4, 364290, Note_off_c, 2, 36, 0
4, 364320, Note_on_c, 2, 36, 42
4, 364330, Note_off_c, 2, 47, 0
4, 364365, Note_on_c, 2, 40, 42
4, 364410, Note_on_c, 2, 43, 42
4, 364425, Note_off_c, 2, 40, 0
4, 364460, Note_on_c, 2, 47, 42
4, 364470, Note_off_c, 2, 43, 0
4, 364510, Note_on_c, 2, 48, 42
4, 364520, Note_off_c, 2, 47, 0
4, 364530, Note_off_c, 2, 36, 0
4, 364560, Note_on_c, 2, 36, 42
4, 364570, Note_off_c, 2, 48, 0
4, 364605, Note_on_c, 2, 40, 42
4, 364650, Note_on_c, 2, 43, 42
4, 364665, Note_off_c, 2, 40, 0
4, 364700, Note_on_c, 2, 47, 42
4, 364710, Note_off_c, 2, 43, 0
4, 364750, Note_on_c, 2, 48, 42
4, 364760, Note_off_c, 2, 47, 0
4, 364770, Note_off_c, 2, 36, 0
4, 364800, Note_on_c, 2, 36, 42
4, 364810, Note_off_c, 2, 48, 0
4, 364845, Note_on_c, 2, 40, 42
4, 364890, Note_on_c, 2, 43, 42
4, 364905, Note_off_c, 2, 40, 0
4, 364940, Note_on_c, 2, 47, 42
4, 364950, Note_off_c, 2, 43, 0
4, 364990, Note_on_c, 2, 48, 42
4, 365000, Note_off_c, 2, 47, 0
4, 365010, Note_off_c, 2, 36, 0
4, 365040, Note_on_c, 2, 36, 43
4, 365050, Note_off_c, 2, 48, 0
4, 365085, Note_on_c, 2, 40, 43
4, 365130, Note_on_c, 2, 43, 43
4, 365145, Note_off_c, 2, 40, 0
4, 365180, Note_on_c, 2, 47, 43
4, 365190, Note_off_c, 2, 43, 0
4, 365230, Note_on_c, 2, 48, 43
4, 365240, Note_off_c, 2, 47, 0
4, 365250, Note_off_c, 2, 36, 0
4, 365280, Note_on_c, 2, 36, 43
4, 365290, Note_off_c, 2, 48, 0
4, 365325, Note_on_c, 2, 40, 43
4, 365370, Note_on_c, 2, 43, 43
4, 365385, Note_off_c, 2, 40, 0
4, 365420, Note_on_c, 2, 47, 43
4, 365430, Note_off_c, 2, 43, 0
4, 365470, Note_on_c, 2, 48, 43
4, 365480, Note_off_c, 2, 47, 0
4, 365490, Note_off_c, 2, 36, 0
4, 365520, Note_on_c, 2, 36, 43
4, 365530, Note_off_c, 2, 48, 0
4, 365565, Note_on_c, 2, 40, 43
4, 365610, Note_on_c, 2, 43, 43
4, 365625, Note_off_c, 2, 40, 0
4, 365660, Note_on_c, 2, 47, 43
4, 365670, Note_off_c, 2, 43, 0
4, 365710, Note_on_c, 2, 48, 43
4, 365720, Note_off_c, 2, 47, 0
4, 365730, Note_off_c, 2, 36, 0
4, 365760, Note_on_c, 2, 36, 43
4, 365770, Note_off_c, 2, 48, 0
4, 365820, Note_on_c, 2, 41, 44
4, 365880, Note_off_c, 2, 41, 0
4, 365880, Note_on_c, 2, 45, 44
4, 365940, Note_off_c, 2, 45, 0
4, 365940, Note_on_c, 2, 48, 44
4, 365970, Note_off_c, 2, 36, 0
4, 366000, Note_off_c, 2, 48, 0
4, 366000, Note_on_c, 2, 36, 44
4, 366060, Note_on_c, 2, 41, 44
4, 366120, Note_off_c, 2, 41, 0
4, 366120, Note_on_c, 2, 45, 44
4, 366180, Note_off_c, 2, 45, 0
4, 366180, Note_on_c, 2, 48, 44
4, 366210, Note_off_c, 2, 36, 0
4, 366240, Note_off_c, 2, 48, 0
4, 366240, Note_on_c, 2, 36, 44
4, 366300, Note_on_c, 2, 41, 44
4, 366360, Note_off_c, 2, 41, 0
4, 366360, Note_on_c, 2, 45, 44
4, 366420, Note_off_c, 2, 45, 0
4, 366420, Note_on_c, 2, 48, 44
4, 366450, Note_off_c, 2, 36, 0
4, 366480, Note_off_c, 2, 48, 0
4, 366480, Note_on_c, 2, 36, 44
4, 366540, Note_on_c, 2, 41, 45
4, 366600, Note_off_c, 2, 41, 0
4, 366600, Note_on_c, 2, 45, 45
4, 366660, Note_off_c, 2, 45, 0
4, 366660, Note_on_c, 2, 48, 45
4, 366690, Note_off_c, 2, 36, 0
4, 366720, Note_off_c, 2, 48, 0
4, 366720, Note_on_c, 2, 36, 45
4, 366780, Note_on_c, 2, 41, 45
4, 366840, Note_off_c, 2, 41, 0
4, 366840, Note_on_c, 2, 45, 45
4, 366900, Note_off_c, 2, 45, 0
4, 366900, Note_on_c, 2, 48, 45
4, 366930, Note_off_c, 2, 36, 0
4, 366960, Note_off_c, 2, 48, 0
4, 366960, Note_on_c, 2, 36, 45
4, 367020, Note_on_c, 2, 41, 45
4, 367080, Note_off_c, 2, 41, 0
4, 367080, Note_on_c, 2, 45, 45
4, 367140, Note_off_c, 2, 45, 0
4, 367140, Note_on_c, 2, 48, 45
4, 367170, Note_off_c, 2, 36, 0
4, 367200, Note_off_c, 2, 48, 0
4, 367200, Note_on_c, 2, 36, 45
4, 367245, Note_on_c, 2, 39, 46
4, 367290, Note_on_c, 2, 42, 46
4, 367305, Note_off_c, 2, 39, 0
4, 367340, Note_on_c, 2, 45, 46
4, 367350, Note_off_c, 2, 42, 0
4, 367390, Note_on_c, 2, 48, 46
4, 367400, Note_off_c, 2, 45, 0
4, 367410, Note_off_c, 2, 36, 0
4, 367440, Note_on_c, 2, 36, 46
4, 367450, Note_off_c, 2, 48, 0
4, 367485, Note_on_c, 2, 39, 46
4, 367530, Note_on_c, 2, 42, 46
4, 367545, Note_off_c, 2, 39, 0
4, 367580, Note_on_c, 2, 45, 46
4, 367590, Note_off_c, 2, 42, 0
4, 367630, Note_on_c, 2, 48, 46
4, 367640, Note_off_c, 2, 45, 0
4, 367650, Note_off_c, 2, 36, 0
4, 367680, Note_on_c, 2, 36, 46
4, 367690, Note_off_c, 2, 48, 0
4, 367725, Note_on_c, 2, 39, 46
4, 367770, Note_on_c, 2, 42, 46
4, 367785, Note_off_c, 2, 39, 0
4, 367820, Note_on_c, 2, 45, 46
4, 367830, Note_off_c, 2, 42, 0
4, 367870, Note_on_c, 2, 48, 46
4, 367880, Note_off_c, 2, 45, 0
4, 367890, Note_off_c, 2, 36, 0
4, 367920, Note_on_c, 2, 36, 46
4, 367930, Note_off_c, 2, 48, 0
4, 367965, Note_on_c, 2, 39, 46
4, 368010, Note_on_c, 2, 42, 47
4, 368025, Note_off_c, 2, 39, 0
4, 368060, Note_on_c, 2, 45, 47
4, 368070, Note_off_c, 2, 42, 0
4, 368110, Note_on_c, 2, 48, 47
4, 368120, Note_off_c, 2, 45, 0
4, 368130, Note_off_c, 2, 36, 0
4, 368160, Note_on_c, 2, 36, 47
4, 368170, Note_off_c, 2, 48, 0
4, 368205, Note_on_c, 2, 39, 47
4, 368250, Note_on_c, 2, 42, 47
4, 368265, Note_off_c, 2, 39, 0
4, 368300, Note_on_c, 2, 45, 47
4, 368310, Note_off_c, 2, 42, 0
4, 368350, Note_on_c, 2, 48, 47
4, 368360, Note_off_c, 2, 45, 0
4, 368370, Note_off_c, 2, 36, 0
4, 368400, Note_on_c, 2, 36, 47
4, 368410, Note_off_c, 2, 48, 0
4, 368445, Note_on_c, 2, 39, 47
4, 368490, Note_on_c, 2, 42, 47
4, 368505, Note_off_c, 2, 39, 0
4, 368540, Note_on_c, 2, 45, 47
4, 368550, Note_off_c, 2, 42, 0
4, 368590, Note_on_c, 2, 48, 47
4, 368600, Note_off_c, 2, 45, 0
4, 368610, Note_off_c, 2, 36, 0
4, 368640, Note_on_c, 2, 36, 47
4, 368650, Note_off_c, 2, 48, 0
4, 368685, Note_on_c, 2, 40, 47
4, 368730, Note_on_c, 2, 43, 43
4, 368745, Note_off_c, 2, 40, 0
4, 368780, Note_on_c, 2, 46, 43
4, 368790, Note_off_c, 2, 43, 0
4, 368830, Note_on_c, 2, 48, 43
4, 368840, Note_off_c, 2, 46, 0
4, 368850, Note_off_c, 2, 36, 0
4, 368880, Note_on_c, 2, 36, 44
4, 368890, Note_off_c, 2, 48, 0
4, 368925, Note_on_c, 2, 40, 44
4, 368970, Note_on_c, 2, 43, 44
4, 368985, Note_off_c, 2, 40, 0
4, 369020, Note_on_c, 2, 46, 44
4, 369030, Note_off_c, 2, 43, 0
4, 369070, Note_on_c, 2, 48, 44
4, 369080, Note_off_c, 2, 46, 0
4, 369090, Note_off_c, 2, 36, 0
4, 369120, Note_on_c, 2, 36, 44
4, 369130, Note_off_c, 2, 48, 0
4, 369165, Note_on_c, 2, 40, 43
4, 369210, Note_on_c, 2, 43, 43
4, 369225, Note_off_c, 2, 40, 0
4, 369260, Note_on_c, 2, 46, 43
4, 369270, Note_off_c, 2, 43, 0
4, 369310, Note_on_c, 2, 48, 43
4, 369320, Note_off_c, 2, 46, 0
4, 369330, Note_off_c, 2, 36, 0
4, 369360, Note_on_c, 2, 36, 43
4, 369370, Note_off_c, 2, 48, 0
4, 369405, Note_on_c, 2, 40, 43
4, 369450, Note_on_c, 2, 43, 43
4, 369465, Note_off_c, 2, 40, 0
4, 369500, Note_on_c, 2, 46, 43
4, 369510, Note_off_c, 2, 43, 0
4, 369550, Note_on_c, 2, 48, 42
4, 369560, Note_off_c, 2, 46, 0
4, 369570, Note_off_c, 2, 36, 0
4, 369600, Note_on_c, 2, 36, 42
4, 369610, Note_off_c, 2, 48, 0
4, 369645, Note_on_c, 2, 40, 42
4, 369690, Note_on_c, 2, 43, 42
4, 369705, Note_off_c, 2, 40, 0
4, 369740, Note_on_c, 2, 46, 42
4, 369750, Note_off_c, 2, 43, 0
4, 369790, Note_on_c, 2, 48, 42
4, 369800, Note_off_c, 2, 46, 0
4, 369810, Note_off_c, 2, 36, 0
4, 369840, Note_on_c, 2, 36, 42
4, 369850, Note_off_c, 2, 48, 0
4, 369885, Note_on_c, 2, 40, 42
4, 369930, Note_on_c, 2, 43, 42
4, 369945, Note_off_c, 2, 40, 0
4, 369980, Note_on_c, 2, 46, 41
4, 369990, Note_off_c, 2, 43, 0
4, 370030, Note_on_c, 2, 48, 41
4, 370040, Note_off_c, 2, 46, 0
4, 370050, Note_off_c, 2, 36, 0
4, 370080, Note_on_c, 2, 36, 41
4, 370090, Note_off_c, 2, 48, 0
4, 370125, Note_on_c, 2, 38, 41
4, 370170, Note_on_c, 2, 41, 41
4, 370185, Note_off_c, 2, 38, 0
4, 370220, Note_on_c, 2, 44, 41
4, 370230, Note_off_c, 2, 41, 0
4, 370270, Note_on_c, 2, 47, 41
4, 370280, Note_off_c, 2, 44, 0
4, 370290, Note_off_c, 2, 36, 0
4, 370320, Note_on_c, 2, 36, 41
4, 370330, Note_off_c, 2, 47, 0
4, 370365, Note_on_c, 2, 38, 40
4, 370410, Note_on_c, 2, 41, 40
4, 370425, Note_off_c, 2, 38, 0
4, 370460, Note_on_c, 2, 44, 40
4, 370470, Note_off_c, 2, 41, 0
4, 370510, Note_on_c, 2, 47, 40
4, 370520, Note_off_c, 2, 44, 0
4, 370530, Note_off_c, 2, 36, 0
4, 370560, Note_on_c, 2, 36, 40
4, 370570, Note_off_c, 2, 47, 0
4, 370605, Note_on_c, 2, 38, 40
4, 370650, Note_on_c, 2, 41, 40
4, 370665, Note_off_c, 2, 38, 0
4, 370700, Note_on_c, 2, 44, 40
4, 370710, Note_off_c, 2, 41, 0
4, 370750, Note_on_c, 2, 47, 39
4, 370760, Note_off_c, 2, 44, 0
4, 370770, Note_off_c, 2, 36, 0
4, 370800, Note_on_c, 2, 36, 39
4, 370810, Note_off_c, 2, 47, 0
4, 370845, Note_on_c, 2, 38, 39
4, 370890, Note_on_c, 2, 41, 39
4, 370905, Note_off_c, 2, 38, 0
4, 370940, Note_on_c, 2, 44, 39
4, 370950, Note_off_c, 2, 41, 0
4, 370990, Note_on_c, 2, 47, 38
4, 371000, Note_off_c, 2, 44, 0
4, 371010, Note_off_c, 2, 36, 0
4, 371040, Note_on_c, 2, 36, 38
4, 371050, Note_off_c, 2, 47, 0
4, 371085, Note_on_c, 2, 38, 38
4, 371130, Note_on_c, 2, 41, 38
4, 371145, Note_off_c, 2, 38, 0
4, 371180, Note_on_c, 2, 44, 38
4, 371190, Note_off_c, 2, 41, 0
4, 371230, Note_on_c, 2, 47, 38
4, 371240, Note_off_c, 2, 44, 0
4, 371250, Note_off_c, 2, 36, 0
4, 371280, Note_on_c, 2, 36, 38
4, 371290, Note_off_c, 2, 47, 0
4, 371325, Note_on_c, 2, 38, 38
4, 371370, Note_on_c, 2, 41, 38
4, 371385, Note_off_c, 2, 38, 0
4, 371420, Note_on_c, 2, 44, 38
4, 371430, Note_off_c, 2, 41, 0
4, 371470, Note_on_c, 2, 47, 38
4, 371480, Note_off_c, 2, 44, 0
4, 371490, Note_off_c, 2, 36, 0
4, 371520, Note_on_c, 2, 36, 38
4, 371530, Note_off_c, 2, 47, 0
4, 371580, Note_on_c, 2, 39, 38
4, 371640, Note_off_c, 2, 39, 0
4, 371640, Note_on_c, 2, 43, 38
4, 371700, Note_off_c, 2, 43, 0
4, 371700, Note_on_c, 2, 48, 39
4, 371730, Note_off_c, 2, 36, 0
4, 371760, Note_off_c, 2, 48, 0
4, 371760, Note_on_c, 2, 36, 39
4, 371820, Note_on_c, 2, 39, 39
4, 371880, Note_off_c, 2, 39, 0
4, 371880, Note_on_c, 2, 43, 39
4, 371940, Note_off_c, 2, 43, 0
4, 371940, Note_on_c, 2, 48, 40
4, 371970, Note_off_c, 2, 36, 0
4, 372000, Note_off_c, 2, 48, 0
4, 372000, Note_on_c, 2, 36, 40
4, 372060, Note_on_c, 2, 39, 40
4, 372120, Note_off_c, 2, 39, 0
4, 372120, Note_on_c, 2, 43, 40
4, 372180, Note_off_c, 2, 43, 0
4, 372180, Note_on_c, 2, 48, 41
4, 372210, Note_off_c, 2, 36, 0
4, 372240, Note_off_c, 2, 48, 0
4, 372240, Note_on_c, 2, 36, 41
4, 372300, Note_on_c, 2, 39, 41
4, 372360, Note_off_c, 2, 39, 0
4, 372360, Note_on_c, 2, 43, 41
4, 372420, Note_off_c, 2, 43, 0
4, 372420, Note_on_c, 2, 48, 42
4, 372465, Note_off_c, 2, 36, 0
4, 372480, Note_off_c, 2, 48, 0
4, 372480, Note_on_c, 2, 36, 42
4, 372540, Note_on_c, 2, 39, 42
4, 372600, Note_off_c, 2, 39, 0
4, 372600, Note_on_c, 2, 43, 42
4, 372660, Note_off_c, 2, 43, 0
4, 372660, Note_on_c, 2, 48, 43
4, 372705, Note_off_c, 2, 36, 0
4, 372720, Note_off_c, 2, 48, 0
4, 372720, Note_on_c, 2, 36, 43
4, 372780, Note_on_c, 2, 39, 43
4, 372840, Note_off_c, 2, 39, 0
4, 372840, Note_on_c, 2, 43, 43
4, 372900, Note_off_c, 2, 43, 0
4, 372900, Note_on_c, 2, 48, 44
4, 372945, Note_off_c, 2, 36, 0
4, 372960, Note_off_c, 2, 48, 0
4, 372960, Note_on_c, 2, 36, 44
4, 373020, Note_on_c, 2, 39, 44
4, 373080, Note_off_c, 2, 39, 0
4, 373080, Note_on_c, 2, 43, 44
4, 373140, Note_off_c, 2, 43, 0
4, 373140, Note_on_c, 2, 48, 45
4, 373185, Note_off_c, 2, 36, 0
4, 373200, Note_off_c, 2, 48, 0
4, 373200, Note_on_c, 2, 36, 45
4, 373260, Note_on_c, 2, 39, 45
4, 373320, Note_off_c, 2, 39, 0
4, 373320, Note_on_c, 2, 43, 45
4, 373380, Note_off_c, 2, 43, 0
4, 373380, Note_on_c, 2, 48, 46
4, 373425, Note_off_c, 2, 36, 0
4, 373440, Note_off_c, 2, 48, 0
4, 373440, Note_on_c, 2, 36, 46
4, 373500, Note_on_c, 2, 39, 46
4, 373560, Note_off_c, 2, 39, 0
4, 373560, Note_on_c, 2, 43, 46
4, 373620, Note_off_c, 2, 43, 0
4, 373620, Note_on_c, 2, 48, 47
4, 373665, Note_off_c, 2, 36, 0
4, 373680, Note_off_c, 2, 48, 0
4, 373680, Note_on_c, 2, 36, 47
4, 373740, Note_on_c, 2, 39, 47
4, 373800, Note_off_c, 2, 39, 0
4, 373800, Note_on_c, 2, 43, 47
4, 373860, Note_off_c, 2, 43, 0
4, 373860, Note_on_c, 2, 48, 48
4, 373905, Note_off_c, 2, 36, 0
4, 373920, Note_off_c, 2, 48, 0
4, 373920, Note_on_c, 2, 36, 48
4, 373980, Note_on_c, 2, 39, 48
4, 374040, Note_off_c, 2, 39, 0
4, 374040, Note_on_c, 2, 43, 48
4, 374100, Note_off_c, 2, 43, 0
4, 374100, Note_on_c, 2, 48, 49
4, 374145, Note_off_c, 2, 36, 0
4, 374160, Note_off_c, 2, 48, 0
4, 374160, Note_on_c, 2, 36, 49
4, 374220, Note_on_c, 2, 39, 49
4, 374280, Note_off_c, 2, 39, 0
4, 374280, Note_on_c, 2, 43, 49
4, 374340, Note_off_c, 2, 43, 0
4, 374340, Note_on_c, 2, 48, 50
4, 374385, Note_off_c, 2, 36, 0
4, 374400, Note_off_c, 2, 48, 0
4, 374400, Note_on_c, 2, 36, 50
4, 374445, Note_on_c, 2, 38, 50
4, 374490, Note_on_c, 2, 41, 50
4, 374505, Note_off_c, 2, 38, 0
4, 374540, Note_on_c, 2, 43, 50
4, 374550, Note_off_c, 2, 41, 0
4, 374590, Note_on_c, 2, 47, 51
4, 374600, Note_off_c, 2, 43, 0
4, 374625, Note_off_c, 2, 36, 0
4, 374640, Note_on_c, 2, 36, 51
4, 374650, Note_off_c, 2, 47, 0
4, 374685, Note_on_c, 2, 38, 51
4, 374730, Note_on_c, 2, 41, 51
4, 374745, Note_off_c, 2, 38, 0
4, 374780, Note_on_c, 2, 43, 51
4, 374790, Note_off_c, 2, 41, 0
4, 374830, Note_on_c, 2, 47, 51
4, 374840, Note_off_c, 2, 43, 0
4, 374865, Note_off_c, 2, 36, 0
4, 374880, Note_on_c, 2, 36, 51
4, 374890, Note_off_c, 2, 47, 0
4, 374925, Note_on_c, 2, 38, 51
4, 374970, Note_on_c, 2, 41, 52
4, 374985, Note_off_c, 2, 38, 0
4, 375020, Note_on_c, 2, 43, 52
4, 375030, Note_off_c, 2, 41, 0
4, 375070, Note_on_c, 2, 47, 53
4, 375080, Note_off_c, 2, 43, 0
4, 375105, Note_off_c, 2, 36, 0
4, 375120, Note_on_c, 2, 36, 53
4, 375130, Note_off_c, 2, 47, 0
4, 375165, Note_on_c, 2, 38, 53
4, 375210, Note_on_c, 2, 41, 54
4, 375225, Note_off_c, 2, 38, 0
4, 375260, Note_on_c, 2, 43, 54
4, 375270, Note_off_c, 2, 41, 0
4, 375310, Note_on_c, 2, 47, 55
4, 375320, Note_off_c, 2, 43, 0
4, 375345, Note_off_c, 2, 36, 0
4, 375360, Note_on_c, 2, 36, 55
4, 375370, Note_off_c, 2, 47, 0
4, 375405, Note_on_c, 2, 38, 55
4, 375450, Note_on_c, 2, 41, 56
4, 375465, Note_off_c, 2, 38, 0
4, 375500, Note_on_c, 2, 43, 56
4, 375510, Note_off_c, 2, 41, 0
4, 375550, Note_on_c, 2, 47, 57
4, 375560, Note_off_c, 2, 43, 0
4, 375585, Note_off_c, 2, 36, 0
4, 375600, Note_on_c, 2, 36, 57
4, 375610, Note_off_c, 2, 47, 0
4, 375645, Note_on_c, 2, 38, 57
4, 375690, Note_on_c, 2, 41, 58
4, 375705, Note_off_c, 2, 38, 0
4, 375740, Note_on_c, 2, 43, 58
4, 375750, Note_off_c, 2, 41, 0
4, 375790, Note_on_c, 2, 47, 59
4, 375800, Note_off_c, 2, 43, 0
4, 375825, Note_off_c, 2, 36, 0
4, 375840, Note_on_c, 2, 36, 59
4, 375850, Note_off_c, 2, 47, 0
4, 375885, Note_on_c, 2, 40, 59
4, 375930, Note_on_c, 2, 43, 60
4, 375945, Note_off_c, 2, 40, 0
4, 375980, Note_on_c, 2, 47, 60
4, 375990, Note_off_c, 2, 43, 0
4, 376030, Note_on_c, 2, 48, 60
4, 376040, Note_off_c, 2, 47, 0
4, 376065, Note_off_c, 2, 36, 0
4, 376080, Note_on_c, 2, 36, 60
4, 376090, Note_off_c, 2, 48, 0
4, 376125, Note_on_c, 2, 40, 60
4, 376170, Note_on_c, 2, 43, 61
4, 376185, Note_off_c, 2, 40, 0
4, 376220, Note_on_c, 2, 47, 61
4, 376230, Note_off_c, 2, 43, 0
4, 376270, Note_on_c, 2, 48, 62
4, 376280, Note_off_c, 2, 47, 0
4, 376305, Note_off_c, 2, 36, 0
4, 376320, Note_on_c, 2, 36, 62
4, 376330, Note_off_c, 2, 48, 0
4, 376365, Note_on_c, 2, 40, 62
4, 376410, Note_on_c, 2, 43, 63
4, 376425, Note_off_c, 2, 40, 0
4, 376460, Note_on_c, 2, 47, 63
4, 376470, Note_off_c, 2, 43, 0
4, 376510, Note_on_c, 2, 48, 64
4, 376520, Note_off_c, 2, 47, 0
4, 376545, Note_off_c, 2, 36, 0
4, 376560, Note_on_c, 2, 36, 64
4, 376570, Note_off_c, 2, 48, 0
4, 376605, Note_on_c, 2, 40, 64
4, 376650, Note_on_c, 2, 43, 65
4, 376665, Note_off_c, 2, 40, 0
4, 376700, Note_on_c, 2, 47, 65
4, 376710, Note_off_c, 2, 43, 0
4, 376750, Note_on_c, 2, 48, 66
4, 376760, Note_off_c, 2, 47, 0
4, 376785, Note_off_c, 2, 36, 0
4, 376800, Note_on_c, 2, 36, 66
4, 376810, Note_off_c, 2, 48, 0
4, 376845, Note_on_c, 2, 40, 66
4, 376890, Note_on_c, 2, 43, 67
4, 376905, Note_off_c, 2, 40, 0
4, 376940, Note_on_c, 2, 47, 67
4, 376950, Note_off_c, 2, 43, 0
4, 376990, Note_on_c, 2, 48, 68
4, 377000, Note_off_c, 2, 47, 0
4, 377025, Note_off_c, 2, 36, 0
4, 377040, Note_on_c, 2, 36, 68
4, 377050, Note_off_c, 2, 48, 0
4, 377085, Note_on_c, 2, 40, 68
4, 377130, Note_on_c, 2, 43, 69
4, 377145, Note_off_c, 2, 40, 0
4, 377180, Note_on_c, 2, 47, 69
4, 377190, Note_off_c, 2, 43, 0
4, 377230, Note_on_c, 2, 48, 70
4, 377240, Note_off_c, 2, 47, 0
4, 377265, Note_off_c, 2, 36, 0
4, 377280, Note_on_c, 2, 36, 70
4, 377290, Note_off_c, 2, 48, 0
4, 377340, Note_on_c, 2, 41, 70
4, 377400, Note_off_c, 2, 41, 0
4, 377400, Note_on_c, 2, 45, 71
4, 377460, Note_off_c, 2, 45, 0
4, 377460, Note_on_c, 2, 48, 71
4, 377505, Note_off_c, 2, 36, 0
4, 377520, Note_off_c, 2, 48, 0
4, 377520, Note_on_c, 2, 36, 71
4, 377580, Note_on_c, 2, 41, 71
4, 377640, Note_off_c, 2, 41, 0
4, 377640, Note_on_c, 2, 45, 72
4, 377700, Note_off_c, 2, 45, 0
4, 377700, Note_on_c, 2, 48, 72
4, 377745, Note_off_c, 2, 36, 0
4, 377760, Note_off_c, 2, 48, 0
4, 377760, Note_on_c, 2, 36, 73
4, 377820, Note_on_c, 2, 41, 73
4, 377880, Note_off_c, 2, 41, 0
4, 377880, Note_on_c, 2, 45, 74
4, 377940, Note_off_c, 2, 45, 0
4, 377940, Note_on_c, 2, 48, 74
4, 377985, Note_off_c, 2, 36, 0
4, 378000, Note_off_c, 2, 48, 0
4, 378000, Note_on_c, 2, 36, 75
4, 378060, Note_on_c, 2, 41, 75
4, 378120, Note_off_c, 2, 41, 0
4, 378120, Note_on_c, 2, 45, 76
4, 378180, Note_off_c, 2, 45, 0
4, 378180, Note_on_c, 2, 48, 76
4, 378225, Note_off_c, 2, 36, 0
4, 378240, Note_off_c, 2, 48, 0
4, 378240, Note_on_c, 2, 36, 77
4, 378300, Note_on_c, 2, 41, 77
4, 378360, Note_off_c, 2, 41, 0
4, 378360, Note_on_c, 2, 45, 78
4, 378420, Note_off_c, 2, 45, 0
4, 378420, Note_on_c, 2, 48, 78
4, 378465, Note_off_c, 2, 36, 0
4, 378480, Note_off_c, 2, 48, 0
4, 378480, Note_on_c, 2, 36, 79
4, 378540, Note_on_c, 2, 41, 79
4, 378600, Note_off_c, 2, 41, 0
4, 378600, Note_on_c, 2, 45, 80
4, 378660, Note_off_c, 2, 45, 0
4, 378660, Note_on_c, 2, 48, 80
4, 378705, Note_off_c, 2, 36, 0
4, 378720, Note_off_c, 2, 48, 0
4, 378720, Note_on_c, 2, 36, 81
4, 378765, Note_on_c, 2, 39, 81
4, 378810, Note_on_c, 2, 42, 82
4, 378825, Note_off_c, 2, 39, 0
4, 378860, Note_on_c, 2, 45, 82
4, 378870, Note_off_c, 2, 42, 0
4, 378910, Note_on_c, 2, 48, 83
4, 378920, Note_off_c, 2, 45, 0
4, 378945, Note_off_c, 2, 36, 0
4, 378960, Note_on_c, 2, 36, 83
4, 378970, Note_off_c, 2, 48, 0
4, 379005, Note_on_c, 2, 39, 83
4, 379050, Note_on_c, 2, 42, 83
4, 379065, Note_off_c, 2, 39, 0
4, 379100, Note_on_c, 2, 45, 83
4, 379110, Note_off_c, 2, 42, 0
4, 379150, Note_on_c, 2, 48, 84
4, 379160, Note_off_c, 2, 45, 0
4, 379185, Note_off_c, 2, 36, 0
4, 379200, Note_on_c, 2, 36, 84
4, 379210, Note_off_c, 2, 48, 0
4, 379245, Note_on_c, 2, 39, 84
4, 379290, Note_on_c, 2, 42, 85
4, 379305, Note_off_c, 2, 39, 0
4, 379340, Note_on_c, 2, 45, 85
4, 379350, Note_off_c, 2, 42, 0
4, 379390, Note_on_c, 2, 48, 86
4, 379400, Note_off_c, 2, 45, 0
4, 379425, Note_off_c, 2, 36, 0
4, 379440, Note_on_c, 2, 36, 86
4, 379450, Note_off_c, 2, 48, 0
4, 379485, Note_on_c, 2, 39, 86
4, 379530, Note_on_c, 2, 42, 87
4, 379545, Note_off_c, 2, 39, 0
4, 379580, Note_on_c, 2, 45, 87
4, 379590, Note_off_c, 2, 42, 0
4, 379630, Note_on_c, 2, 48, 88
4, 379640, Note_off_c, 2, 45, 0
4, 379665, Note_off_c, 2, 36, 0
4, 379680, Note_on_c, 2, 36, 88
4, 379690, Note_off_c, 2, 48, 0
4, 379725, Note_on_c, 2, 39, 88
4, 379770, Note_on_c, 2, 42, 89
4, 379785, Note_off_c, 2, 39, 0
4, 379820, Note_on_c, 2, 45, 89
4, 379830, Note_off_c, 2, 42, 0
4, 379870, Note_on_c, 2, 48, 90
4, 379880, Note_off_c, 2, 45, 0
4, 379905, Note_off_c, 2, 36, 0
4, 379920, Note_on_c, 2, 36, 90
4, 379930, Note_off_c, 2, 48, 0
4, 379965, Note_on_c, 2, 39, 90
4, 380010, Note_on_c, 2, 42, 91
4, 380025, Note_off_c, 2, 39, 0
4, 380060, Note_on_c, 2, 45, 91
4, 380070, Note_off_c, 2, 42, 0
4, 380110, Note_on_c, 2, 48, 92
4, 380120, Note_off_c, 2, 45, 0
4, 380145, Note_off_c, 2, 36, 0
4, 380160, Note_on_c, 2, 36, 94
4, 380170, Note_off_c, 2, 48, 0
4, 380205, Note_on_c, 2, 40, 94
4, 380250, Note_on_c, 2, 43, 94
4, 380265, Note_off_c, 2, 40, 0
4, 380300, Note_on_c, 2, 46, 95
4, 380310, Note_off_c, 2, 43, 0
4, 380350, Note_on_c, 2, 48, 95
4, 380360, Note_off_c, 2, 46, 0
4, 380385, Note_off_c, 2, 36, 0
4, 380400, Note_on_c, 2, 36, 96
4, 380410, Note_off_c, 2, 48, 0
4, 380445, Note_on_c, 2, 40, 96
4, 380490, Note_on_c, 2, 43, 97
4, 380505, Note_off_c, 2, 40, 0
4, 380540, Note_on_c, 2, 46, 97
4, 380550, Note_off_c, 2, 43, 0
4, 380590, Note_on_c, 2, 48, 97
4, 380600, Note_off_c, 2, 46, 0
4, 380625, Note_off_c, 2, 36, 0
4, 380640, Note_on_c, 2, 36, 98
4, 380650, Note_off_c, 2, 48, 0
4, 380685, Note_on_c, 2, 40, 98
4, 380730, Note_on_c, 2, 43, 99
4, 380745, Note_off_c, 2, 40, 0
4, 380780, Note_on_c, 2, 46, 99
4, 380790, Note_off_c, 2, 43, 0
4, 380830, Note_on_c, 2, 48, 100
4, 380840, Note_off_c, 2, 46, 0
4, 380865, Note_off_c, 2, 36, 0
4, 380880, Note_on_c, 2, 36, 100
4, 380890, Note_off_c, 2, 48, 0
4, 380925, Note_on_c, 2, 40, 100
4, 380970, Note_on_c, 2, 43, 101
4, 380985, Note_off_c, 2, 40, 0
4, 381020, Note_on_c, 2, 46, 101
4, 381030, Note_off_c, 2, 43, 0
4, 381070, Note_on_c, 2, 48, 102
4, 381080, Note_off_c, 2, 46, 0
4, 381090, Note_off_c, 2, 36, 0
4, 381120, Note_on_c, 2, 36, 102
4, 381130, Note_off_c, 2, 48, 0
4, 381165, Note_on_c, 2, 40, 103
4, 381210, Note_on_c, 2, 43, 103
4, 381225, Note_off_c, 2, 40, 0
4, 381260, Note_on_c, 2, 46, 104
4, 381270, Note_off_c, 2, 43, 0
4, 381310, Note_on_c, 2, 48, 104
4, 381320, Note_off_c, 2, 46, 0
4, 381330, Note_off_c, 2, 36, 0
4, 381360, Note_on_c, 2, 36, 104
4, 381370, Note_off_c, 2, 48, 0
4, 381405, Note_on_c, 2, 40, 105
4, 381450, Note_on_c, 2, 43, 105
4, 381465, Note_off_c, 2, 40, 0
4, 381500, Note_on_c, 2, 46, 106
4, 381510, Note_off_c, 2, 43, 0
4, 381550, Note_on_c, 2, 48, 106
4, 381560, Note_off_c, 2, 46, 0
4, 381570, Note_off_c, 2, 36, 0
4, 381600, Note_on_c, 2, 36, 106
4, 381610, Note_off_c, 2, 48, 0
4, 381645, Note_on_c, 2, 38, 107
4, 381690, Note_on_c, 2, 41, 107
4, 381705, Note_off_c, 2, 38, 0
4, 381740, Note_on_c, 2, 44, 108
4, 381750, Note_off_c, 2, 41, 0
4, 381790, Note_on_c, 2, 47, 109
4, 381800, Note_off_c, 2, 44, 0
4, 381810, Note_off_c, 2, 36, 0
4, 381840, Note_on_c, 2, 36, 109
4, 381850, Note_off_c, 2, 47, 0
4, 381885, Note_on_c, 2, 38, 110
4, 381930, Note_on_c, 2, 41, 110
4, 381945, Note_off_c, 2, 38, 0
4, 381980, Note_on_c, 2, 44, 111
4, 381990, Note_off_c, 2, 41, 0
4, 382030, Note_on_c, 2, 47, 112
4, 382040, Note_off_c, 2, 44, 0
4, 382050, Note_off_c, 2, 36, 0
4, 382080, Note_on_c, 2, 36, 112
4, 382090, Note_off_c, 2, 47, 0
4, 382125, Note_on_c, 2, 38, 113
4, 382170, Note_on_c, 2, 41, 114
4, 382185, Note_off_c, 2, 38, 0
4, 382220, Note_on_c, 2, 44, 114
4, 382230, Note_off_c, 2, 41, 0
4, 382270, Note_on_c, 2, 47, 115
4, 382280, Note_off_c, 2, 44, 0
4, 382290, Note_off_c, 2, 36, 0
4, 382320, Note_on_c, 2, 36, 115
4, 382330, Note_off_c, 2, 47, 0
4, 382365, Note_on_c, 2, 38, 116
4, 382410, Note_on_c, 2, 41, 117
4, 382425, Note_off_c, 2, 38, 0
4, 382460, Note_on_c, 2, 44, 117
4, 382470, Note_off_c, 2, 41, 0
4, 382510, Note_on_c, 2, 47, 118
4, 382520, Note_off_c, 2, 44, 0
4, 382530, Note_off_c, 2, 36, 0
4, 382560, Note_on_c, 2, 36, 119
4, 382570, Note_off_c, 2, 47, 0
4, 382605, Note_on_c, 2, 38, 119
4, 382650, Note_on_c, 2, 41, 120
4, 382665, Note_off_c, 2, 38, 0
4, 382700, Note_on_c, 2, 44, 120
4, 382710, Note_off_c, 2, 41, 0
4, 382750, Note_on_c, 2, 47, 121
4, 382760, Note_off_c, 2, 44, 0
4, 382770, Note_off_c, 2, 36, 0
4, 382800, Note_on_c, 2, 36, 122
4, 382810, Note_off_c, 2, 47, 0
4, 382845, Note_on_c, 2, 38, 122
4, 382890, Note_on_c, 2, 41, 123
4, 382905, Note_off_c, 2, 38, 0
4, 382940, Note_on_c, 2, 44, 123
4, 382950, Note_off_c, 2, 41, 0
4, 382990, Note_on_c, 2, 47, 124
4, 383000, Note_off_c, 2, 44, 0
4, 383010, Note_off_c, 2, 36, 0
4, 383040, Note_on_c, 2, 36, 125
4, 383040, Note_on_c, 2, 43, 125
4, 383040, Note_on_c, 2, 48, 125
4, 383040, Note_on_c, 2, 39, 125
4, 383050, Note_off_c, 2, 47, 0
4, 383272, Note_off_c, 2, 36, 0
4, 383280, Note_off_c, 2, 39, 0
4, 383280, Note_off_c, 2, 48, 0
4, 383280, Note_off_c, 2, 43, 0
4, 383280, Note_on_c, 2, 67, 113
4, 383280, Note_on_c, 2, 63, 113
4, 383436, Note_off_c, 2, 63, 0
4, 383436, Note_off_c, 2, 67, 0
4, 383520, Note_on_c, 2, 63, 112
4, 383520, Note_on_c, 2, 60, 112
4, 383676, Note_off_c, 2, 60, 0
4, 383676, Note_off_c, 2, 63, 0
4, 383760, Note_on_c, 2, 67, 111
4, 383760, Note_on_c, 2, 63, 111
4, 383916, Note_off_c, 2, 63, 0
4, 383916, Note_off_c, 2, 67, 0
4, 384000, Note_on_c, 2, 63, 109
4, 384000, Note_on_c, 2, 60, 109
4, 384156, Note_off_c, 2, 60, 0
4, 384156, Note_off_c, 2, 63, 0
4, 384240, Note_on_c, 2, 67, 108
4, 384240, Note_on_c, 2, 63, 108
4, 384396, Note_off_c, 2, 63, 0
4, 384396, Note_off_c, 2, 67, 0
4, 384480, Note_on_c, 2, 62, 107
4, 384480, Note_on_c, 2, 55, 107
4, 384636, Note_off_c, 2, 55, 0
4, 384636, Note_off_c, 2, 62, 0
4, 384720, Note_on_c, 2, 62, 106
4, 384720, Note_on_c, 2, 65, 106
4, 384876, Note_off_c, 2, 65, 0
4, 384876, Note_off_c, 2, 62, 0
4, 384960, Note_on_c, 2, 62, 104
4, 384960, Note_on_c, 2, 55, 104
4, 385116, Note_off_c, 2, 55, 0
4, 385116, Note_off_c, 2, 62, 0
4, 385200, Note_on_c, 2, 62, 103
4, 385200, Note_on_c, 2, 65, 103
4, 385356, Note_off_c, 2, 65, 0
4, 385356, Note_off_c, 2, 62, 0
4, 385440, Note_on_c, 2, 62, 102
4, 385440, Note_on_c, 2, 55, 102
4, 385596, Note_off_c, 2, 55, 0
4, 385596, Note_off_c, 2, 62, 0
4, 385680, Note_on_c, 2, 62, 101
4, 385680, Note_on_c, 2, 65, 101
4, 385836, Note_off_c, 2, 65, 0
4, 385836, Note_off_c, 2, 62, 0
4, 385920, Note_on_c, 2, 48, 99
4, 385920, Note_on_c, 2, 51, 99
4, 386076, Note_off_c, 2, 51, 0
4, 386076, Note_off_c, 2, 48, 0
4, 386160, Note_on_c, 2, 51, 98
4, 386160, Note_on_c, 2, 55, 98
4, 386316, Note_off_c, 2, 55, 0
4, 386316, Note_off_c, 2, 51, 0
4, 386400, Note_on_c, 2, 48, 97
4, 386400, Note_on_c, 2, 51, 97
4, 386556, Note_off_c, 2, 51, 0
4, 386556, Note_off_c, 2, 48, 0
4, 386640, Note_on_c, 2, 55, 96
4, 386640, Note_on_c, 2, 51, 96
4, 386796, Note_off_c, 2, 51, 0
4, 386796, Note_off_c, 2, 55, 0
4, 386880, Note_on_c, 2, 48, 94
4, 386880, Note_on_c, 2, 51, 94
4, 387036, Note_off_c, 2, 51, 0
4, 387036, Note_off_c, 2, 48, 0
4, 387120, Note_on_c, 2, 55, 93
4, 387120, Note_on_c, 2, 51, 93
4, 387276, Note_off_c, 2, 51, 0
4, 387276, Note_off_c, 2, 55, 0
4, 387360, Note_on_c, 2, 50, 92
4, 387360, Note_on_c, 2, 43, 92
4, 387516, Note_off_c, 2, 43, 0
4, 387516, Note_off_c, 2, 50, 0
4, 387600, Note_on_c, 2, 53, 91
4, 387600, Note_on_c, 2, 50, 91
4, 387756, Note_off_c, 2, 50, 0
4, 387756, Note_off_c, 2, 53, 0
4, 387840, Note_on_c, 2, 50, 89
4, 387840, Note_on_c, 2, 43, 89
4, 387996, Note_off_c, 2, 43, 0
4, 387996, Note_off_c, 2, 50, 0
4, 388080, Note_on_c, 2, 53, 88
4, 388080, Note_on_c, 2, 50, 88
4, 388236, Note_off_c, 2, 50, 0
4, 388236, Note_off_c, 2, 53, 0
4, 388320, Note_on_c, 2, 50, 87
4, 388320, Note_on_c, 2, 43, 87
4, 388476, Note_off_c, 2, 43, 0
4, 388476, Note_off_c, 2, 50, 0
4, 388560, Note_on_c, 2, 53, 86
4, 388560, Note_on_c, 2, 50, 86
4, 388716, Note_off_c, 2, 50, 0
4, 388716, Note_off_c, 2, 53, 0
4, 388800, Note_on_c, 2, 51, 86
4, 388800, Note_on_c, 2, 48, 86
4, 388956, Note_off_c, 2, 48, 0
4, 388956, Note_off_c, 2, 51, 0
4, 389040, Note_on_c, 2, 55, 85
4, 389040, Note_on_c, 2, 51, 85
4, 389196, Note_off_c, 2, 51, 0
4, 389196, Note_off_c, 2, 55, 0
4, 389280, Control_c, 2, 64, 127
4, 389280, Note_on_c, 2, 43, 85
4, 389360, Note_off_c, 2, 43, 0
4, 389360, Note_on_c, 2, 50, 85
4, 389440, Note_off_c, 2, 50, 0
4, 389440, Note_on_c, 2, 53, 85
4, 389520, Note_off_c, 2, 53, 0
4, 389520, Note_on_c, 2, 56, 85
4, 390000, Control_c, 2, 64, 0
4, 390000, Note_off_c, 2, 56, 0
4, 390000, Note_on_c, 2, 55, 84
4, 390156, Note_off_c, 2, 55, 0
4, 390240, Note_on_c, 2, 48, 85
4, 390240, Note_on_c, 2, 51, 85
4, 390396, Note_off_c, 2, 51, 0
4, 390396, Note_off_c, 2, 48, 0
4, 390480, Note_on_c, 2, 55, 85
4, 390636, Note_off_c, 2, 55, 0
4, 390720, Control_c, 2, 64, 127
4, 390720, Note_on_c, 2, 43, 84
4, 390800, Note_off_c, 2, 43, 0
4, 390800, Note_on_c, 2, 50, 84
4, 390880, Note_off_c, 2, 50, 0
4, 390880, Note_on_c, 2, 53, 84
4, 390960, Note_off_c, 2, 53, 0
4, 390960, Note_on_c, 2, 56, 84
4, 391440, Control_c, 2, 64, 0
4, 391440, Note_off_c, 2, 56, 0
4, 391440, Note_on_c, 2, 55, 82
4, 391596, Note_off_c, 2, 55, 0
4, 391680, Note_on_c, 2, 48, 82
4, 391680, Note_on_c, 2, 51, 82
4, 391836, Note_off_c, 2, 51, 0
4, 391836, Note_off_c, 2, 48, 0
4, 391920, Note_on_c, 2, 55, 81
4, 392076, Note_off_c, 2, 55, 0
4, 392160, Control_c, 2, 64, 127
4, 392160, Note_on_c, 2, 43, 81
4, 392240, Note_off_c, 2, 43, 0
4, 392240, Note_on_c, 2, 50, 80
4, 392320, Note_off_c, 2, 50, 0
4, 392320, Note_on_c, 2, 53, 80
4, 392400, Note_off_c, 2, 53, 0
4, 392400, Note_on_c, 2, 56, 80
4, 392640, Note_off_c, 2, 56, 0
4, 392880, Control_c, 2, 64, 0
4, 398880, Note_on_c, 2, 60, 45
4, 398880, Note_on_c, 2, 67, 45
4, 398880, Note_on_c, 2, 63, 45
4, 399036, Note_off_c, 2, 63, 0
4, 399036, Note_off_c, 2, 67, 0
4, 399036, Note_off_c, 2, 60, 0
4, 399360, Note_on_c, 2, 60, 45
4, 399360, Note_on_c, 2, 67, 45
4, 399360, Note_on_c, 2, 63, 45
4, 399516, Note_off_c, 2, 63, 0
4, 399516, Note_off_c, 2, 67, 0
4, 399516, Note_off_c, 2, 60, 0
4, 400200, Note_on_c, 2, 60, 46
4, 400200, Note_on_c, 2, 67, 46
4, 400200, Note_on_c, 2, 63, 46
4, 400278, Note_off_c, 2, 63, 0
4, 400278, Note_off_c, 2, 67, 0
4, 400278, Note_off_c, 2, 60, 0
4, 400320, Note_on_c, 2, 59, 47
4, 400320, Note_on_c, 2, 67, 47
4, 400320, Note_on_c, 2, 62, 47
4, 400476, Note_off_c, 2, 62, 0
4, 400476, Note_off_c, 2, 67, 0
4, 400476, Note_off_c, 2, 59, 0
4, 400800, Note_on_c, 2, 62, 47
4, 400800, Note_on_c, 2, 59, 47
4, 400800, Note_on_c, 2, 67, 47
4, 400956, Note_off_c, 2, 67, 0
4, 400956, Note_off_c, 2, 59, 0
4, 400956, Note_off_c, 2, 62, 0
4, 401640, Note_on_c, 2, 59, 48
4, 401640, Note_on_c, 2, 62, 48
4, 401640, Note_on_c, 2, 67, 48
4, 401718, Note_off_c, 2, 67, 0
4, 401718, Note_off_c, 2, 62, 0
4, 401718, Note_off_c, 2, 59, 0
4, 401760, Note_on_c, 2, 67, 49
4, 401760, Note_on_c, 2, 64, 49
4, 401760, Note_on_c, 2, 58, 49
4, 401760, Note_on_c, 2, 60, 49
4, 401916, Note_off_c, 2, 60, 0
4, 401916, Note_off_c, 2, 58, 0
4, 401916, Note_off_c, 2, 64, 0
4, 401916, Note_off_c, 2, 67, 0
4, 402240, Note_on_c, 2, 58, 49
4, 402240, Note_on_c, 2, 60, 49
4, 402240, Note_on_c, 2, 64, 49
4, 402240, Note_on_c, 2, 67, 49
4, 402396, Note_off_c, 2, 67, 0
4, 402396, Note_off_c, 2, 64, 0
4, 402396, Note_off_c, 2, 60, 0
4, 402396, Note_off_c, 2, 58, 0
4, 403080, Note_on_c, 2, 60, 50
4, 403080, Note_on_c, 2, 58, 50
4, 403080, Note_on_c, 2, 64, 50
4, 403080, Note_on_c, 2, 67, 50
4, 403158, Note_off_c, 2, 67, 0
4, 403158, Note_off_c, 2, 64, 0
4, 403158, Note_off_c, 2, 58, 0
4, 403158, Note_off_c, 2, 60, 0
4, 403200, Note_on_c, 2, 60, 51
4, 403200, Note_on_c, 2, 65, 51
4, 403200, Note_on_c, 2, 57, 51
4, 403356, Note_off_c, 2, 57, 0
4, 403356, Note_off_c, 2, 65, 0
4, 403356, Note_off_c, 2, 60, 0
4, 403680, Note_on_c, 2, 60, 51
4, 403680, Note_on_c, 2, 65, 51
4, 403680, Note_on_c, 2, 57, 51
4, 403836, Note_off_c, 2, 57, 0
4, 403836, Note_off_c, 2, 65, 0
4, 403836, Note_off_c, 2, 60, 0
4, 404520, Note_on_c, 2, 60, 53
4, 404520, Note_on_c, 2, 65, 53
4, 404520, Note_on_c, 2, 57, 53
4, 404598, Note_off_c, 2, 57, 0
4, 404598, Note_off_c, 2, 65, 0
4, 404598, Note_off_c, 2, 60, 0
4, 404640, Note_on_c, 2, 63, 53
4, 404640, Note_on_c, 2, 60, 53
4, 404640, Note_on_c, 2, 56, 53
4, 404640, Note_on_c, 2, 66, 53
4, 404796, Note_off_c, 2, 66, 0
4, 404796, Note_off_c, 2, 56, 0
4, 404796, Note_off_c, 2, 60, 0
4, 404796, Note_off_c, 2, 63, 0
4, 405120, Note_on_c, 2, 63, 54
4, 405120, Note_on_c, 2, 60, 54
4, 405120, Note_on_c, 2, 56, 54
4, 405120, Note_on_c, 2, 66, 54
4, 405276, Note_off_c, 2, 66, 0
4, 405276, Note_off_c, 2, 56, 0
4, 405276, Note_off_c, 2, 60, 0
4, 405276, Note_off_c, 2, 63, 0
4, 405960, Note_on_c, 2, 60, 63
4, 405960, Note_on_c, 2, 56, 63
4, 405960, Note_on_c, 2, 63, 63
4, 405960, Note_on_c, 2, 66, 63
4, 406038, Note_off_c, 2, 66, 0
4, 406038, Note_off_c, 2, 63, 0
4, 406038, Note_off_c, 2, 56, 0
4, 406038, Note_off_c, 2, 60, 0
4, 406080, Note_on_c, 2, 60, 66
4, 406080, Note_on_c, 2, 67, 66
4, 406080, Note_on_c, 2, 63, 66
4, 406080, Note_on_c, 2, 55, 66
4, 406236, Note_off_c, 2, 55, 0
4, 406236, Note_off_c, 2, 63, 0
4, 406236, Note_off_c, 2, 67, 0
4, 406236, Note_off_c, 2, 60, 0
4, 406560, Note_on_c, 2, 56, 79
4, 406560, Note_on_c, 2, 65, 79
4, 406560, Note_on_c, 2, 53, 79
4, 406560, Note_on_c, 2, 60, 79
4, 406716, Note_off_c, 2, 60, 0
4, 406716, Note_off_c, 2, 53, 0
4, 406716, Note_off_c, 2, 65, 0
4, 406716, Note_off_c, 2, 56, 0
4, 407880, Note_on_c, 2, 65, 63
4, 407958, Note_off_c, 2, 65, 0
4, 408000, Note_on_c, 2, 68, 63
4, 408156, Note_off_c, 2, 68, 0
4, 408480, Note_on_c, 2, 67, 62
4, 408636, Note_off_c, 2, 67, 0
4, 409320, Note_on_c, 2, 65, 60
4, 409398, Note_off_c, 2, 65, 0
4, 409440, Note_on_c, 2, 68, 60
4, 409596, Note_off_c, 2, 68, 0
4, 409920, Note_on_c, 2, 67, 59
4, 410076, Note_off_c, 2, 67, 0
4, 410760, Note_on_c, 2, 65, 58
4, 410838, Note_off_c, 2, 65, 0
4, 410880, Note_on_c, 2, 68, 58
4, 411036, Note_off_c, 2, 68, 0
4, 411360, Note_on_c, 2, 67, 57
4, 411516, Note_off_c, 2, 67, 0
4, 411840, Note_on_c, 2, 60, 56
4, 412152, Note_off_c, 2, 60, 0
4, 413640, Note_on_c, 2, 44, 55
4, 413718, Note_off_c, 2, 44, 0
4, 413760, Note_on_c, 2, 41, 55
4, 413916, Note_off_c, 2, 41, 0
4, 414240, Note_on_c, 2, 43, 53
4, 414396, Note_off_c, 2, 43, 0
4, 415080, Note_on_c, 2, 44, 50
4, 415158, Note_off_c, 2, 44, 0
4, 415200, Note_on_c, 2, 41, 50
4, 415356, Note_off_c, 2, 41, 0
4, 415680, Note_on_c, 2, 43, 48
4, 415836, Note_off_c, 2, 43, 0
4, 416520, Note_on_c, 2, 44, 46
4, 416598, Note_off_c, 2, 44, 0
4, 416640, Note_on_c, 2, 41, 45
4, 416796, Note_off_c, 2, 41, 0
4, 417960, Note_on_c, 2, 43, 54
4, 418038, Note_off_c, 2, 43, 0
4, 418080, Note_on_c, 2, 31, 54
4, 418236, Note_off_c, 2, 31, 0
4, 419040, Note_on_c, 2, 36, 44
4, 419196, Note_off_c, 2, 36, 0
4, 419400, Note_on_c, 2, 43, 47
4, 419478, Note_off_c, 2, 43, 0
4, 419520, Note_on_c, 2, 39, 48
4, 419676, Note_off_c, 2, 39, 0
4, 419880, Note_on_c, 2, 48, 51
4, 419958, Note_off_c, 2, 48, 0
4, 420000, Note_on_c, 2, 43, 52
4, 420156, Note_off_c, 2, 43, 0
4, 420360, Note_on_c, 2, 51, 54
4, 420438, Note_off_c, 2, 51, 0
4, 420480, Note_on_c, 2, 48, 55
4, 420636, Note_off_c, 2, 48, 0
4, 420840, Note_on_c, 2, 55, 58
4, 420918, Note_off_c, 2, 55, 0
4, 420960, Note_on_c, 2, 51, 59
4, 421116, Note_off_c, 2, 51, 0
4, 421320, Note_on_c, 2, 60, 58
4, 421398, Note_off_c, 2, 60, 0
4, 421440, Note_on_c, 2, 43, 57
4, 421596, Note_off_c, 2, 43, 0
4, 421800, Note_on_c, 2, 53, 55
4, 421878, Note_off_c, 2, 53, 0
4, 421920, Note_on_c, 2, 48, 54
4, 422076, Note_off_c, 2, 48, 0
4, 422280, Note_on_c, 2, 55, 57
4, 422358, Note_off_c, 2, 55, 0
4, 422400, Note_on_c, 2, 51, 58
4, 422556, Note_off_c, 2, 51, 0
4, 422760, Note_on_c, 2, 60, 60
4, 422838, Note_off_c, 2, 60, 0
4, 422880, Note_on_c, 2, 55, 61
4, 423036, Note_off_c, 2, 55, 0
4, 423240, Note_on_c, 2, 63, 63
4, 423318, Note_off_c, 2, 63, 0
4, 423360, Note_on_c, 2, 60, 64
4, 423516, Note_off_c, 2, 60, 0
4, 423720, Note_on_c, 2, 67, 66
4, 423798, Note_off_c, 2, 67, 0
4, 423840, Note_on_c, 2, 63, 67
4, 423996, Note_off_c, 2, 63, 0
4, 424200, Note_on_c, 2, 72, 69
4, 424278, Note_off_c, 2, 72, 0
4, 424320, Note_on_c, 2, 55, 70
4, 424476, Note_off_c, 2, 55, 0
4, 424680, Note_on_c, 2, 65, 66
4, 424758, Note_off_c, 2, 65, 0
4, 424800, Note_on_c, 2, 48, 48
4, 424880, Note_on_c, 2, 51, 41
4, 424891, Note_off_c, 2, 48, 0
4, 424944, Note_off_c, 2, 51, 0
4, 424960, Note_on_c, 2, 55, 41
4, 425024, Note_off_c, 2, 55, 0
4, 425040, Note_on_c, 2, 60, 41
4, 425104, Note_off_c, 2, 60, 0
4, 425120, Note_on_c, 2, 55, 41
4, 425184, Note_off_c, 2, 55, 0
4, 425200, Note_on_c, 2, 51, 41
4, 425264, Note_off_c, 2, 51, 0
4, 425280, Note_on_c, 2, 43, 49
4, 425360, Note_on_c, 2, 51, 41
4, 425371, Note_off_c, 2, 43, 0
4, 425424, Note_off_c, 2, 51, 0
4, 425440, Note_on_c, 2, 55, 41
4, 425504, Note_off_c, 2, 55, 0
4, 425520, Note_on_c, 2, 60, 41
4, 425584, Note_off_c, 2, 60, 0
4, 425600, Note_on_c, 2, 55, 41
4, 425664, Note_off_c, 2, 55, 0
4, 425680, Note_on_c, 2, 51, 41
4, 425744, Note_off_c, 2, 51, 0
4, 425760, Note_on_c, 2, 48, 49
4, 425840, Note_on_c, 2, 51, 40
4, 425851, Note_off_c, 2, 48, 0
4, 425904, Note_off_c, 2, 51, 0
4, 425920, Note_on_c, 2, 55, 40
4, 425984, Note_off_c, 2, 55, 0
4, 426000, Note_on_c, 2, 60, 40
4, 426064, Note_off_c, 2, 60, 0
4, 426080, Note_on_c, 2, 55, 40
4, 426144, Note_off_c, 2, 55, 0
4, 426160, Note_on_c, 2, 51, 40
4, 426224, Note_off_c, 2, 51, 0
4, 426240, Note_on_c, 2, 50, 48
4, 426320, Note_on_c, 2, 53, 40
4, 426331, Note_off_c, 2, 50, 0
4, 426384, Note_off_c, 2, 53, 0
4, 426400, Note_on_c, 2, 55, 40
4, 426464, Note_off_c, 2, 55, 0
4, 426480, Note_on_c, 2, 59, 40
4, 426544, Note_off_c, 2, 59, 0
4, 426560, Note_on_c, 2, 55, 40
4, 426624, Note_off_c, 2, 55, 0
4, 426640, Note_on_c, 2, 53, 40
4, 426704, Note_off_c, 2, 53, 0
4, 426720, Note_on_c, 2, 43, 48
4, 426800, Note_on_c, 2, 53, 39
4, 426811, Note_off_c, 2, 43, 0
4, 426864, Note_off_c, 2, 53, 0
4, 426880, Note_on_c, 2, 55, 39
4, 426944, Note_off_c, 2, 55, 0
4, 426960, Note_on_c, 2, 59, 39
4, 427024, Note_off_c, 2, 59, 0
4, 427040, Note_on_c, 2, 55, 39
4, 427104, Note_off_c, 2, 55, 0
4, 427120, Note_on_c, 2, 53, 39
4, 427184, Note_off_c, 2, 53, 0
4, 427200, Note_on_c, 2, 50, 46
4, 427280, Note_on_c, 2, 53, 39
4, 427291, Note_off_c, 2, 50, 0
4, 427344, Note_off_c, 2, 53, 0
4, 427360, Note_on_c, 2, 55, 39
4, 427424, Note_off_c, 2, 55, 0
4, 427440, Note_on_c, 2, 59, 39
4, 427504, Note_off_c, 2, 59, 0
4, 427520, Note_on_c, 2, 55, 39
4, 427584, Note_off_c, 2, 55, 0
4, 427600, Note_on_c, 2, 53, 39
4, 427664, Note_off_c, 2, 53, 0
4, 427680, Note_on_c, 2, 48, 48
4, 427760, Note_on_c, 2, 51, 38
4, 427771, Note_off_c, 2, 48, 0
4, 427824, Note_off_c, 2, 51, 0
4, 427840, Note_on_c, 2, 55, 38
4, 427904, Note_off_c, 2, 55, 0
4, 427920, Note_on_c, 2, 60, 38
4, 427984, Note_off_c, 2, 60, 0
4, 428000, Note_on_c, 2, 55, 38
4, 428064, Note_off_c, 2, 55, 0
4, 428080, Note_on_c, 2, 51, 38
4, 428144, Note_off_c, 2, 51, 0
4, 428160, Note_on_c, 2, 43, 46
4, 428240, Note_on_c, 2, 51, 38
4, 428251, Note_off_c, 2, 43, 0
4, 428304, Note_off_c, 2, 51, 0
4, 428320, Note_on_c, 2, 55, 38
4, 428384, Note_off_c, 2, 55, 0
4, 428400, Note_on_c, 2, 60, 38
4, 428464, Note_off_c, 2, 60, 0
4, 428480, Note_on_c, 2, 55, 38
4, 428544, Note_off_c, 2, 55, 0
4, 428560, Note_on_c, 2, 51, 38
4, 428624, Note_off_c, 2, 51, 0
4, 428640, Note_on_c, 2, 48, 46
4, 428720, Note_on_c, 2, 51, 37
4, 428731, Note_off_c, 2, 48, 0
4, 428784, Note_off_c, 2, 51, 0
4, 428800, Note_on_c, 2, 55, 37
4, 428864, Note_off_c, 2, 55, 0
4, 428880, Note_on_c, 2, 60, 37
4, 428944, Note_off_c, 2, 60, 0
4, 428960, Note_on_c, 2, 55, 37
4, 429024, Note_off_c, 2, 55, 0
4, 429040, Note_on_c, 2, 51, 37
4, 429104, Note_off_c, 2, 51, 0
4, 429120, Note_on_c, 2, 50, 44
4, 429200, Note_on_c, 2, 53, 37
4, 429211, Note_off_c, 2, 50, 0
4, 429264, Note_off_c, 2, 53, 0
4, 429280, Note_on_c, 2, 55, 37
4, 429344, Note_off_c, 2, 55, 0
4, 429360, Note_on_c, 2, 59, 37
4, 429424, Note_off_c, 2, 59, 0
4, 429440, Note_on_c, 2, 55, 37
4, 429504, Note_off_c, 2, 55, 0
4, 429520, Note_on_c, 2, 53, 37
4, 429584, Note_off_c, 2, 53, 0
4, 429600, Note_on_c, 2, 43, 43
4, 429680, Note_on_c, 2, 53, 36
4, 429691, Note_off_c, 2, 43, 0
4, 429744, Note_off_c, 2, 53, 0
4, 429760, Note_on_c, 2, 55, 36
4, 429824, Note_off_c, 2, 55, 0
4, 429840, Note_on_c, 2, 59, 36
4, 429904, Note_off_c, 2, 59, 0
4, 429920, Note_on_c, 2, 55, 36
4, 429984, Note_off_c, 2, 55, 0
4, 430000, Note_on_c, 2, 53, 36
4, 430064, Note_off_c, 2, 53, 0
4, 430080, Note_on_c, 2, 50, 44
4, 430160, Note_on_c, 2, 53, 36
4, 430171, Note_off_c, 2, 50, 0
4, 430224, Note_off_c, 2, 53, 0
4, 430240, Note_on_c, 2, 55, 36
4, 430304, Note_off_c, 2, 55, 0
4, 430320, Note_on_c, 2, 59, 36
4, 430384, Note_off_c, 2, 59, 0
4, 430400, Note_on_c, 2, 55, 36
4, 430464, Note_off_c, 2, 55, 0
4, 430480, Note_on_c, 2, 53, 36
4, 430544, Note_off_c, 2, 53, 0
4, 430680, Note_on_c, 2, 48, 38
4, 430680, Note_on_c, 2, 51, 38
4, 430800, Note_off_c, 2, 51, 0
4, 430800, Note_off_c, 2, 48, 0
4, 430800, Note_on_c, 2, 55, 39
4, 430800, Note_on_c, 2, 43, 39
4, 430920, Note_off_c, 2, 43, 0
4, 430920, Note_off_c, 2, 55, 0
4, 430920, Note_on_c, 2, 51, 39
4, 430920, Note_on_c, 2, 48, 39
4, 431040, Note_off_c, 2, 48, 0
4, 431040, Note_off_c, 2, 51, 0
4, 431040, Note_on_c, 2, 55, 40
4, 431040, Note_on_c, 2, 43, 40
4, 431160, Note_off_c, 2, 43, 0
4, 431160, Note_off_c, 2, 55, 0
4, 431160, Note_on_c, 2, 51, 40
4, 431160, Note_on_c, 2, 48, 40
4, 431280, Note_off_c, 2, 48, 0
4, 431280, Note_off_c, 2, 51, 0
4, 431280, Note_on_c, 2, 55, 41
4, 431280, Note_on_c, 2, 43, 41
4, 431400, Note_off_c, 2, 43, 0
4, 431400, Note_off_c, 2, 55, 0
4, 431400, Note_on_c, 2, 51, 41
4, 431400, Note_on_c, 2, 48, 41
4, 431520, Note_off_c, 2, 48, 0
4, 431520, Note_off_c, 2, 51, 0
4, 431520, Note_on_c, 2, 55, 42
4, 431520, Note_on_c, 2, 43, 42
4, 431640, Note_off_c, 2, 43, 0
4, 431640, Note_off_c, 2, 55, 0
4, 431640, Note_on_c, 2, 48, 43
4, 431640, Note_on_c, 2, 51, 43
4, 431760, Note_off_c, 2, 51, 0
4, 431760, Note_off_c, 2, 48, 0
4, 431760, Note_on_c, 2, 55, 43
4, 431760, Note_on_c, 2, 43, 43
4, 431880, Note_off_c, 2, 43, 0
4, 431880, Note_off_c, 2, 55, 0
4, 431880, Note_on_c, 2, 48, 44
4, 431880, Note_on_c, 2, 51, 44
4, 432000, Note_off_c, 2, 51, 0
4, 432000, Note_off_c, 2, 48, 0
4, 432120, Note_on_c, 2, 48, 45
4, 432120, Note_on_c, 2, 51, 45
4, 432240, Note_off_c, 2, 51, 0
4, 432240, Note_off_c, 2, 48, 0
4, 432240, Note_on_c, 2, 55, 45
4, 432240, Note_on_c, 2, 43, 45
4, 432360, Note_off_c, 2, 43, 0
4, 432360, Note_off_c, 2, 55, 0
4, 432360, Note_on_c, 2, 48, 46
4, 432360, Note_on_c, 2, 51, 46
4, 432480, Note_off_c, 2, 51, 0
4, 432480, Note_off_c, 2, 48, 0
4, 432480, Note_on_c, 2, 55, 47
4, 432480, Note_on_c, 2, 43, 47
4, 432600, Note_off_c, 2, 43, 0
4, 432600, Note_off_c, 2, 55, 0
4, 432600, Note_on_c, 2, 48, 47
4, 432600, Note_on_c, 2, 51, 47
4, 432720, Note_off_c, 2, 51, 0
4, 432720, Note_off_c, 2, 48, 0
4, 432720, Note_on_c, 2, 55, 48
4, 432720, Note_on_c, 2, 43, 48
4, 432840, Note_off_c, 2, 43, 0
4, 432840, Note_off_c, 2, 55, 0
4, 432840, Note_on_c, 2, 48, 48
4, 432840, Note_on_c, 2, 51, 48
4, 432960, Note_off_c, 2, 51, 0
4, 432960, Note_off_c, 2, 48, 0
4, 432960, Note_on_c, 2, 55, 49
4, 432960, Note_on_c, 2, 43, 49
4, 433080, Note_off_c, 2, 43, 0
4, 433080, Note_off_c, 2, 55, 0
4, 433080, Note_on_c, 2, 48, 49
4, 433080, Note_on_c, 2, 51, 49
4, 433200, Note_off_c, 2, 51, 0
4, 433200, Note_off_c, 2, 48, 0
4, 433200, Note_on_c, 2, 55, 50
4, 433200, Note_on_c, 2, 43, 50
4, 433320, Note_off_c, 2, 43, 0
4, 433320, Note_off_c, 2, 55, 0
4, 433320, Note_on_c, 2, 48, 50
4, 433320, Note_on_c, 2, 51, 50
4, 433440, Note_off_c, 2, 51, 0
4, 433440, Note_off_c, 2, 48, 0
4, 433560, Note_on_c, 2, 50, 52
4, 433560, Note_on_c, 2, 47, 52
4, 433680, Note_off_c, 2, 47, 0
4, 433680, Note_off_c, 2, 50, 0
4, 433680, Note_on_c, 2, 43, 52
4, 433680, Note_on_c, 2, 55, 52
4, 433800, Note_off_c, 2, 55, 0
4, 433800, Note_off_c, 2, 43, 0
4, 433800, Note_on_c, 2, 50, 53
4, 433800, Note_on_c, 2, 47, 53
4, 433920, Note_off_c, 2, 47, 0
4, 433920, Note_off_c, 2, 50, 0
4, 433920, Note_on_c, 2, 55, 53
4, 433920, Note_on_c, 2, 43, 53
4, 434040, Note_off_c, 2, 43, 0
4, 434040, Note_off_c, 2, 55, 0
4, 434040, Note_on_c, 2, 50, 54
4, 434040, Note_on_c, 2, 47, 54
4, 434160, Note_off_c, 2, 47, 0
4, 434160, Note_off_c, 2, 50, 0
4, 434160, Note_on_c, 2, 55, 54
4, 434160, Note_on_c, 2, 43, 54
4, 434280, Note_off_c, 2, 43, 0
4, 434280, Note_off_c, 2, 55, 0
4, 434280, Note_on_c, 2, 50, 55
4, 434280, Note_on_c, 2, 47, 55
4, 434400, Note_off_c, 2, 47, 0
4, 434400, Note_off_c, 2, 50, 0
4, 434400, Note_on_c, 2, 55, 56
4, 434400, Note_on_c, 2, 43, 56
4, 434520, Note_off_c, 2, 43, 0
4, 434520, Note_off_c, 2, 55, 0
4, 434520, Note_on_c, 2, 50, 56
4, 434520, Note_on_c, 2, 47, 56
4, 434640, Note_off_c, 2, 47, 0
4, 434640, Note_off_c, 2, 50, 0
4, 434640, Note_on_c, 2, 55, 57
4, 434640, Note_on_c, 2, 43, 57
4, 434760, Note_off_c, 2, 43, 0
4, 434760, Note_off_c, 2, 55, 0
4, 434760, Note_on_c, 2, 47, 57
4, 434760, Note_on_c, 2, 50, 57
4, 434880, Note_off_c, 2, 50, 0
4, 434880, Note_off_c, 2, 47, 0
4, 435000, Note_on_c, 2, 48, 54
4, 435000, Note_on_c, 2, 51, 54
4, 435120, Note_off_c, 2, 51, 0
4, 435120, Note_off_c, 2, 48, 0
4, 435120, Note_on_c, 2, 55, 54
4, 435120, Note_on_c, 2, 43, 54
4, 435240, Note_off_c, 2, 43, 0
4, 435240, Note_off_c, 2, 55, 0
4, 435240, Note_on_c, 2, 51, 53
4, 435240, Note_on_c, 2, 48, 53
4, 435360, Note_off_c, 2, 48, 0
4, 435360, Note_off_c, 2, 51, 0
4, 435360, Note_on_c, 2, 55, 52
4, 435360, Note_on_c, 2, 43, 52
4, 435480, Note_off_c, 2, 43, 0
4, 435480, Note_off_c, 2, 55, 0
4, 435480, Note_on_c, 2, 51, 52
4, 435480, Note_on_c, 2, 48, 52
4, 435600, Note_off_c, 2, 48, 0
4, 435600, Note_off_c, 2, 51, 0
4, 435600, Note_on_c, 2, 55, 51
4, 435600, Note_on_c, 2, 43, 51
4, 435720, Note_off_c, 2, 43, 0
4, 435720, Note_off_c, 2, 55, 0
4, 435720, Note_on_c, 2, 51, 51
4, 435720, Note_on_c, 2, 48, 51
4, 435840, Note_off_c, 2, 48, 0
4, 435840, Note_off_c, 2, 51, 0
4, 435840, Note_on_c, 2, 55, 50
4, 435840, Note_on_c, 2, 43, 50
4, 435960, Note_off_c, 2, 43, 0
4, 435960, Note_off_c, 2, 55, 0
4, 435960, Note_on_c, 2, 48, 49
4, 435960, Note_on_c, 2, 51, 49
4, 436080, Note_off_c, 2, 51, 0
4, 436080, Note_off_c, 2, 48, 0
4, 436080, Note_on_c, 2, 55, 49
4, 436080, Note_on_c, 2, 43, 49
4, 436200, Note_off_c, 2, 43, 0
4, 436200, Note_off_c, 2, 55, 0
4, 436200, Note_on_c, 2, 48, 48
4, 436200, Note_on_c, 2, 51, 48
4, 436320, Note_off_c, 2, 51, 0
4, 436320, Note_off_c, 2, 48, 0
4, 436440, Note_on_c, 2, 50, 50
4, 436440, Note_on_c, 2, 47, 50
4, 436560, Note_off_c, 2, 47, 0
4, 436560, Note_off_c, 2, 50, 0
4, 436560, Note_on_c, 2, 55, 51
4, 436560, Note_on_c, 2, 43, 51
4, 436680, Note_off_c, 2, 43, 0
4, 436680, Note_off_c, 2, 55, 0
4, 436680, Note_on_c, 2, 47, 53
4, 436680, Note_on_c, 2, 50, 53
4, 436800, Note_off_c, 2, 50, 0
4, 436800, Note_off_c, 2, 47, 0
4, 436800, Note_on_c, 2, 55, 55
4, 436800, Note_on_c, 2, 43, 55
4, 436920, Note_off_c, 2, 43, 0
4, 436920, Note_off_c, 2, 55, 0
4, 436920, Note_on_c, 2, 50, 56
4, 436920, Note_on_c, 2, 47, 56
4, 437040, Note_off_c, 2, 47, 0
4, 437040, Note_off_c, 2, 50, 0
4, 437040, Note_on_c, 2, 55, 58
4, 437040, Note_on_c, 2, 43, 58
4, 437160, Note_off_c, 2, 43, 0
4, 437160, Note_off_c, 2, 55, 0
4, 437160, Note_on_c, 2, 50, 61
4, 437160, Note_on_c, 2, 47, 61
4, 437280, Note_off_c, 2, 47, 0
4, 437280, Note_off_c, 2, 50, 0
4, 437280, Note_on_c, 2, 55, 60
4, 437280, Note_on_c, 2, 43, 60
4, 437400, Note_off_c, 2, 43, 0
4, 437400, Note_off_c, 2, 55, 0
4, 437400, Note_on_c, 2, 50, 59
4, 437400, Note_on_c, 2, 47, 59
4, 437520, Note_off_c, 2, 47, 0
4, 437520, Note_off_c, 2, 50, 0
4, 437520, Note_on_c, 2, 55, 59
4, 437520, Note_on_c, 2, 43, 59
4, 437640, Note_off_c, 2, 43, 0
4, 437640, Note_off_c, 2, 55, 0
4, 437640, Note_on_c, 2, 47, 58
4, 437640, Note_on_c, 2, 50, 58
4, 437760, Note_off_c, 2, 50, 0
4, 437760, Note_off_c, 2, 47, 0
4, 437880, Note_on_c, 2, 48, 58
4, 437880, Note_on_c, 2, 51, 58
4, 438000, Note_off_c, 2, 51, 0
4, 438000, Note_off_c, 2, 48, 0
4, 438000, Note_on_c, 2, 55, 57
4, 438000, Note_on_c, 2, 43, 57
4, 438120, Note_off_c, 2, 43, 0
4, 438120, Note_off_c, 2, 55, 0
4, 438120, Note_on_c, 2, 48, 57
4, 438120, Note_on_c, 2, 51, 57
4, 438240, Note_off_c, 2, 51, 0
4, 438240, Note_off_c, 2, 48, 0
4, 438240, Note_on_c, 2, 55, 56
4, 438240, Note_on_c, 2, 43, 56
4, 438360, Note_off_c, 2, 43, 0
4, 438360, Note_off_c, 2, 55, 0
4, 438360, Note_on_c, 2, 48, 56
4, 438360, Note_on_c, 2, 51, 56
4, 438480, Note_off_c, 2, 51, 0
4, 438480, Note_off_c, 2, 48, 0
4, 438480, Note_on_c, 2, 55, 56
4, 438480, Note_on_c, 2, 43, 56
4, 438600, Note_off_c, 2, 43, 0
4, 438600, Note_off_c, 2, 55, 0
4, 438600, Note_on_c, 2, 48, 55
4, 438600, Note_on_c, 2, 51, 55
4, 438720, Note_off_c, 2, 51, 0
4, 438720, Note_off_c, 2, 48, 0
4, 438720, Note_on_c, 2, 55, 55
4, 438720, Note_on_c, 2, 43, 55
4, 438840, Note_off_c, 2, 43, 0
4, 438840, Note_off_c, 2, 55, 0
4, 438840, Note_on_c, 2, 51, 54
4, 438840, Note_on_c, 2, 48, 54
4, 438960, Note_off_c, 2, 48, 0
4, 438960, Note_off_c, 2, 51, 0
4, 438960, Note_on_c, 2, 55, 54
4, 438960, Note_on_c, 2, 43, 54
4, 439080, Note_off_c, 2, 43, 0
4, 439080, Note_off_c, 2, 55, 0
4, 439080, Note_on_c, 2, 48, 54
4, 439080, Note_on_c, 2, 51, 54
4, 439200, Note_off_c, 2, 51, 0
4, 439200, Note_off_c, 2, 48, 0
4, 439200, Note_on_c, 2, 47, 84
4, 439200, Note_on_c, 2, 50, 84
4, 439200, Note_on_c, 2, 55, 84
4, 439200, Note_on_c, 2, 43, 84
4, 439356, Note_off_c, 2, 43, 0
4, 439356, Note_off_c, 2, 55, 0
4, 439356, Note_off_c, 2, 50, 0
4, 439356, Note_off_c, 2, 47, 0
4, 439440, Note_on_c, 2, 68, 87
4, 439440, Note_on_c, 2, 56, 87
4, 439596, Note_off_c, 2, 56, 0
4, 439596, Note_off_c, 2, 68, 0
4, 439680, Note_on_c, 2, 53, 91
4, 439680, Note_on_c, 2, 65, 91
4, 439836, Note_off_c, 2, 65, 0
4, 439836, Note_off_c, 2, 53, 0
4, 439920, Note_on_c, 2, 62, 94
4, 439920, Note_on_c, 2, 50, 94
4, 440076, Note_off_c, 2, 50, 0
4, 440076, Note_off_c, 2, 62, 0
4, 440160, Note_on_c, 2, 59, 97
4, 440160, Note_on_c, 2, 47, 97
4, 440316, Note_off_c, 2, 47, 0
4, 440316, Note_off_c, 2, 59, 0
4, 440400, Note_on_c, 2, 56, 100
4, 440400, Note_on_c, 2, 44, 100
4, 440556, Note_off_c, 2, 44, 0
4, 440556, Note_off_c, 2, 56, 0
4, 440640, Note_on_c, 2, 53, 104
4, 440640, Note_on_c, 2, 41, 104
4, 440796, Note_off_c, 2, 41, 0
4, 440796, Note_off_c, 2, 53, 0
4, 440880, Note_on_c, 2, 50, 107
4, 440880, Note_on_c, 2, 38, 107
4, 441036, Note_off_c, 2, 38, 0
4, 441036, Note_off_c, 2, 50, 0
4, 441120, Note_on_c, 2, 35, 110
4, 441120, Note_on_c, 2, 47, 110
4, 441276, Note_off_c, 2, 47, 0
4, 441276, Note_off_c, 2, 35, 0
4, 441360, Note_on_c, 2, 44, 113
4, 441360, Note_on_c, 2, 32, 113
4, 441516, Note_off_c, 2, 32, 0
4, 441516, Note_off_c, 2, 44, 0
4, 441600, Note_on_c, 2, 43, 117
4, 441600, Note_on_c, 2, 31, 117
4, 441756, Note_off_c, 2, 31, 0
4, 441756, Note_off_c, 2, 43, 0
4, 441840, Note_on_c, 2, 50, 120
4, 441840, Note_on_c, 2, 55, 120
4, 441840, Note_on_c, 2, 47, 120
4, 441840, Note_on_c, 2, 43, 120
4, 441996, Note_off_c, 2, 43, 0
4, 441996, Note_off_c, 2, 47, 0
4, 441996, Note_off_c, 2, 55, 0
4, 441996, Note_off_c, 2, 50, 0
4, 442080, Note_on_c, 2, 55, 123
4, 442080, Note_on_c, 2, 51, 123
4, 442080, Note_on_c, 2, 48, 123
4, 442560, Note_off_c, 2, 48, 0
4, 442560, Note_off_c, 2, 51, 0
4, 442560, Note_off_c, 2, 55, 0
4, 443040, Note_on_c, 2, 43, 95
4, 443280, Note_off_c, 2, 43, 0
4, 443520, Note_on_c, 2, 36, 89
4, 443760, Note_off_c, 2, 36, 0
4, 443760, End_track
0, 0, End_of_file