0, 0, Header, 1, 5, 192
1, 0, Start_track
1, 0, Title_t, "String Quartet No.2 - II"
1, 0, Text_t, "By Ludwig van Beethoven"
1, 0, Copyright_t, "Copyright \251 2000 by S.E.Edwards"
1, 0, Copyright_t, "All Rights Reserved"
1, 0, Text_t, "Generated by NoteWorthy Composer"
1, 0, Tempo, 1250000
1, 0, Time_signature, 3, 2, 24, 8
1, 14976, Tempo, 461538
1, 14976, Key_signature, -1, "major"
1, 14976, Time_signature, 2, 2, 24, 8
1, 37248, Tempo, 1250000
1, 37248, Key_signature, 0, "major"
1, 37248, Time_signature, 3, 2, 24, 8
1, 37248, End_track
2, 0, Start_track
2, 0, MIDI_port, 0
2, 0, Title_t, "Violino I."
2, 0, Program_c, 1, 0
2, 0, Control_c, 1, 7, 127
2, 0, Control_c, 1, 10, 64
2, 0, Note_on_c, 1, 67, 45
2, 160, Note_on_c, 1, 67, 0
2, 192, Note_on_c, 1, 72, 45
2, 480, Note_on_c, 1, 72, 0
2, 480, Note_on_c, 1, 67, 45
2, 576, Note_on_c, 1, 67, 0
2, 576, Note_on_c, 1, 64, 45
2, 672, Note_on_c, 1, 64, 0
2, 672, Note_on_c, 1, 60, 45
2, 766, Note_on_c, 1, 60, 0
2, 768, Note_on_c, 1, 60, 45
2, 960, Note_on_c, 1, 60, 0
2, 960, Note_on_c, 1, 59, 45
2, 1152, Note_on_c, 1, 59, 0
2, 1152, Note_on_c, 1, 60, 45
2, 1312, Note_on_c, 1, 60, 0
2, 1344, Note_on_c, 1, 62, 45
2, 1368, Note_on_c, 1, 62, 0
2, 1368, Note_on_c, 1, 60, 45
2, 1392, Note_on_c, 1, 60, 0
2, 1392, Note_on_c, 1, 59, 45
2, 1416, Note_on_c, 1, 59, 0
2, 1416, Note_on_c, 1, 60, 45
2, 1438, Note_on_c, 1, 60, 0
2, 1440, Note_on_c, 1, 64, 45
2, 1536, Note_on_c, 1, 64, 0
2, 1536, Note_on_c, 1, 62, 45
2, 1630, Note_on_c, 1, 62, 0
2, 1824, Note_on_c, 1, 65, 45
2, 1918, Note_on_c, 1, 65, 0
2, 1920, Note_on_c, 1, 77, 45
2, 2208, Note_on_c, 1, 77, 0
2, 2208, Note_on_c, 1, 74, 60
2, 2304, Note_on_c, 1, 74, 0
2, 2304, Note_on_c, 1, 71, 65
2, 2400, Note_on_c, 1, 71, 0
2, 2400, Note_on_c, 1, 72, 70
2, 2494, Note_on_c, 1, 72, 0
2, 2496, Note_on_c, 1, 62, 45
2, 2656, Note_on_c, 1, 62, 0
2, 2688, Note_on_c, 1, 62, 45
2, 2712, Note_on_c, 1, 62, 0
2, 2712, Note_on_c, 1, 65, 45
2, 2736, Note_on_c, 1, 65, 0
2, 2736, Note_on_c, 1, 69, 45
2, 2926, Note_on_c, 1, 69, 0
2, 2928, Note_on_c, 1, 67, 45
2, 2952, Note_on_c, 1, 67, 0
2, 2952, Note_on_c, 1, 65, 45
2, 2976, Note_on_c, 1, 65, 0
2, 2976, Note_on_c, 1, 64, 45
2, 3000, Note_on_c, 1, 64, 0
2, 3000, Note_on_c, 1, 62, 45
2, 3024, Note_on_c, 1, 62, 0
2, 3024, Note_on_c, 1, 60, 45
2, 3048, Note_on_c, 1, 60, 0
2, 3048, Note_on_c, 1, 59, 45
2, 3070, Note_on_c, 1, 59, 0
2, 3072, Note_on_c, 1, 62, 45
2, 3264, Note_on_c, 1, 62, 0
2, 3264, Note_on_c, 1, 60, 45
2, 3358, Note_on_c, 1, 60, 0
2, 3456, Note_on_c, 1, 60, 45
2, 3504, Note_on_c, 1, 60, 0
2, 3504, Note_on_c, 1, 64, 45
2, 3552, Note_on_c, 1, 64, 0
2, 3552, Note_on_c, 1, 67, 45
2, 3600, Note_on_c, 1, 67, 0
2, 3600, Note_on_c, 1, 72, 45
2, 3646, Note_on_c, 1, 72, 0
2, 3648, Note_on_c, 1, 76, 45
2, 3864, Note_on_c, 1, 76, 0
2, 3864, Note_on_c, 1, 74, 45
2, 3888, Note_on_c, 1, 74, 0
2, 3888, Note_on_c, 1, 72, 45
2, 3912, Note_on_c, 1, 72, 0
2, 3912, Note_on_c, 1, 71, 45
2, 3936, Note_on_c, 1, 71, 0
2, 3936, Note_on_c, 1, 72, 45
2, 3960, Note_on_c, 1, 72, 0
2, 3960, Note_on_c, 1, 74, 45
2, 3984, Note_on_c, 1, 74, 0
2, 3984, Note_on_c, 1, 76, 45
2, 4008, Note_on_c, 1, 76, 0
2, 4008, Note_on_c, 1, 77, 45
2, 4030, Note_on_c, 1, 77, 0
2, 4032, Note_on_c, 1, 79, 45
2, 4056, Note_on_c, 1, 79, 0
2, 4056, Note_on_c, 1, 78, 45
2, 4080, Note_on_c, 1, 78, 0
2, 4080, Note_on_c, 1, 81, 45
2, 4104, Note_on_c, 1, 81, 0
2, 4104, Note_on_c, 1, 79, 45
2, 4128, Note_on_c, 1, 79, 0
2, 4128, Note_on_c, 1, 77, 45
2, 4152, Note_on_c, 1, 77, 0
2, 4152, Note_on_c, 1, 76, 45
2, 4176, Note_on_c, 1, 76, 0
2, 4176, Note_on_c, 1, 74, 45
2, 4200, Note_on_c, 1, 74, 0
2, 4200, Note_on_c, 1, 72, 45
2, 4222, Note_on_c, 1, 72, 0
2, 4224, Note_on_c, 1, 76, 45
2, 4416, Note_on_c, 1, 76, 0
2, 4416, Note_on_c, 1, 74, 45
2, 4510, Note_on_c, 1, 74, 0
2, 4608, Note_on_c, 1, 60, 45
2, 4656, Note_on_c, 1, 60, 0
2, 4656, Note_on_c, 1, 64, 45
2, 4704, Note_on_c, 1, 64, 0
2, 4704, Note_on_c, 1, 67, 45
2, 4752, Note_on_c, 1, 67, 0
2, 4752, Note_on_c, 1, 72, 45
2, 4798, Note_on_c, 1, 72, 0
2, 4800, Note_on_c, 1, 76, 45
2, 5016, Note_on_c, 1, 76, 0
2, 5016, Note_on_c, 1, 72, 45
2, 5040, Note_on_c, 1, 72, 0
2, 5040, Note_on_c, 1, 79, 45
2, 5064, Note_on_c, 1, 79, 0
2, 5064, Note_on_c, 1, 78, 45
2, 5086, Note_on_c, 1, 78, 0
2, 5088, Note_on_c, 1, 79, 45
2, 5112, Note_on_c, 1, 79, 0
2, 5112, Note_on_c, 1, 76, 45
2, 5136, Note_on_c, 1, 76, 0
2, 5136, Note_on_c, 1, 84, 45
2, 5160, Note_on_c, 1, 84, 0
2, 5160, Note_on_c, 1, 83, 45
2, 5182, Note_on_c, 1, 83, 0
2, 5184, Note_on_c, 1, 84, 45
2, 5208, Note_on_c, 1, 84, 0
2, 5208, Note_on_c, 1, 79, 45
2, 5230, Note_on_c, 1, 79, 0
2, 5232, Note_on_c, 1, 88, 45
2, 5256, Note_on_c, 1, 88, 0
2, 5256, Note_on_c, 1, 84, 45
2, 5280, Note_on_c, 1, 84, 0
2, 5280, Note_on_c, 1, 79, 45
2, 5304, Note_on_c, 1, 79, 0
2, 5304, Note_on_c, 1, 76, 45
2, 5328, Note_on_c, 1, 76, 0
2, 5328, Note_on_c, 1, 74, 45
2, 5352, Note_on_c, 1, 74, 0
2, 5352, Note_on_c, 1, 72, 45
2, 5374, Note_on_c, 1, 72, 0
2, 5376, Note_on_c, 1, 76, 45
2, 5470, Note_on_c, 1, 76, 0
2, 5472, Note_on_c, 1, 77, 45
2, 5480, Note_on_c, 1, 77, 0
2, 5480, Note_on_c, 1, 76, 45
2, 5488, Note_on_c, 1, 76, 0
2, 5488, Note_on_c, 1, 74, 45
2, 5496, Note_on_c, 1, 74, 0
2, 5496, Note_on_c, 1, 76, 45
2, 5508, Note_on_c, 1, 76, 0
2, 5508, Note_on_c, 1, 77, 45
2, 5520, Note_on_c, 1, 77, 0
2, 5520, Note_on_c, 1, 78, 45
2, 5544, Note_on_c, 1, 78, 0
2, 5544, Note_on_c, 1, 79, 45
2, 5566, Note_on_c, 1, 79, 0
2, 5568, Note_on_c, 1, 74, 45
2, 5662, Note_on_c, 1, 74, 0
2, 5760, Note_on_c, 1, 73, 45
2, 5782, Note_on_c, 1, 73, 0
2, 5784, Note_on_c, 1, 74, 45
2, 5854, Note_on_c, 1, 74, 0
2, 5856, Note_on_c, 1, 73, 45
2, 5878, Note_on_c, 1, 73, 0
2, 5880, Note_on_c, 1, 74, 45
2, 5950, Note_on_c, 1, 74, 0
2, 5952, Note_on_c, 1, 74, 45
2, 6208, Note_on_c, 1, 74, 0
2, 6240, Note_on_c, 1, 76, 45
2, 6312, Note_on_c, 1, 76, 0
2, 6312, Note_on_c, 1, 74, 45
2, 6334, Note_on_c, 1, 74, 0
2, 6336, Note_on_c, 1, 79, 45
2, 6408, Note_on_c, 1, 79, 0
2, 6408, Note_on_c, 1, 74, 45
2, 6430, Note_on_c, 1, 74, 0
2, 6432, Note_on_c, 1, 83, 45
2, 6504, Note_on_c, 1, 83, 0
2, 6504, Note_on_c, 1, 74, 45
2, 6526, Note_on_c, 1, 74, 0
2, 6528, Note_on_c, 1, 74, 45
2, 6784, Note_on_c, 1, 74, 0
2, 6816, Note_on_c, 1, 76, 45
2, 6888, Note_on_c, 1, 76, 0
2, 6888, Note_on_c, 1, 74, 45
2, 6910, Note_on_c, 1, 74, 0
2, 6912, Note_on_c, 1, 79, 45
2, 6984, Note_on_c, 1, 79, 0
2, 6984, Note_on_c, 1, 74, 45
2, 7006, Note_on_c, 1, 74, 0
2, 7008, Note_on_c, 1, 83, 45
2, 7080, Note_on_c, 1, 83, 0
2, 7080, Note_on_c, 1, 75, 45
2, 7102, Note_on_c, 1, 75, 0
2, 7104, Note_on_c, 1, 78, 45
2, 7128, Note_on_c, 1, 78, 0
2, 7128, Note_on_c, 1, 76, 48
2, 7152, Note_on_c, 1, 76, 0
2, 7152, Note_on_c, 1, 74, 51
2, 7176, Note_on_c, 1, 74, 0
2, 7176, Note_on_c, 1, 72, 55
2, 7200, Note_on_c, 1, 72, 0
2, 7200, Note_on_c, 1, 71, 59
2, 7224, Note_on_c, 1, 71, 0
2, 7224, Note_on_c, 1, 69, 63
2, 7246, Note_on_c, 1, 69, 0
2, 7248, Note_on_c, 1, 76, 67
2, 7264, Note_on_c, 1, 76, 0
2, 7272, Note_on_c, 1, 76, 71
2, 7288, Note_on_c, 1, 76, 0
2, 7296, Note_on_c, 1, 76, 45
2, 7392, Note_on_c, 1, 76, 0
2, 7392, Note_on_c, 1, 67, 45
2, 7558, Note_on_c, 1, 67, 0
2, 7560, Note_on_c, 1, 69, 45
2, 7568, Note_on_c, 1, 69, 0
2, 7568, Note_on_c, 1, 67, 45
2, 7576, Note_on_c, 1, 67, 0
2, 7576, Note_on_c, 1, 66, 45
2, 7584, Note_on_c, 1, 66, 0
2, 7584, Note_on_c, 1, 67, 45
2, 7592, Note_on_c, 1, 67, 0
2, 7592, Note_on_c, 1, 69, 45
2, 7600, Note_on_c, 1, 69, 0
2, 7600, Note_on_c, 1, 71, 45
2, 7608, Note_on_c, 1, 71, 0
2, 7608, Note_on_c, 1, 72, 45
2, 7616, Note_on_c, 1, 72, 0
2, 7616, Note_on_c, 1, 74, 45
2, 7624, Note_on_c, 1, 74, 0
2, 7624, Note_on_c, 1, 76, 45
2, 7642, Note_on_c, 1, 76, 0
2, 7656, Note_on_c, 1, 66, 45
2, 7678, Note_on_c, 1, 66, 0
2, 7680, Note_on_c, 1, 69, 45
2, 7872, Note_on_c, 1, 69, 0
2, 7872, Note_on_c, 1, 67, 45
2, 7966, Note_on_c, 1, 67, 0
2, 8064, Note_on_c, 1, 67, 45
2, 8132, Note_on_c, 1, 67, 0
2, 8160, Note_on_c, 1, 67, 45
2, 8192, Note_on_c, 1, 67, 0
2, 8256, Note_on_c, 1, 71, 45
2, 8544, Note_on_c, 1, 71, 0
2, 8544, Note_on_c, 1, 72, 54
2, 8640, Note_on_c, 1, 72, 0
2, 8640, Note_on_c, 1, 74, 57
2, 8736, Note_on_c, 1, 74, 0
2, 8736, Note_on_c, 1, 76, 60
2, 8808, Note_on_c, 1, 76, 0
2, 8808, Note_on_c, 1, 72, 49
2, 8830, Note_on_c, 1, 72, 0
2, 8832, Note_on_c, 1, 76, 45
2, 9024, Note_on_c, 1, 76, 0
2, 9024, Note_on_c, 1, 74, 45
2, 9118, Note_on_c, 1, 74, 0
2, 9216, Note_on_c, 1, 79, 45
2, 9284, Note_on_c, 1, 79, 0
2, 9312, Note_on_c, 1, 79, 45
2, 9344, Note_on_c, 1, 79, 0
2, 9408, Note_on_c, 1, 83, 45
2, 9664, Note_on_c, 1, 83, 0
2, 9696, Note_on_c, 1, 84, 68
2, 9792, Note_on_c, 1, 84, 0
2, 9792, Note_on_c, 1, 86, 76
2, 9888, Note_on_c, 1, 86, 0
2, 9888, Note_on_c, 1, 88, 84
2, 9960, Note_on_c, 1, 88, 0
2, 9960, Note_on_c, 1, 84, 90
2, 9982, Note_on_c, 1, 84, 0
2, 9984, Note_on_c, 1, 89, 92
2, 10222, Note_on_c, 1, 89, 0
2, 10224, Note_on_c, 1, 86, 45
2, 10272, Note_on_c, 1, 86, 0
2, 10272, Note_on_c, 1, 83, 45
2, 10320, Note_on_c, 1, 83, 0
2, 10320, Note_on_c, 1, 79, 45
2, 10368, Note_on_c, 1, 79, 0
2, 10368, Note_on_c, 1, 80, 45
2, 10416, Note_on_c, 1, 80, 0
2, 10416, Note_on_c, 1, 81, 45
2, 10464, Note_on_c, 1, 81, 0
2, 10464, Note_on_c, 1, 82, 45
2, 10512, Note_on_c, 1, 82, 0
2, 10512, Note_on_c, 1, 83, 45
2, 10558, Note_on_c, 1, 83, 0
2, 10560, Note_on_c, 1, 84, 45
2, 10848, Note_on_c, 1, 84, 0
2, 10848, Note_on_c, 1, 79, 45
2, 10944, Note_on_c, 1, 79, 0
2, 10944, Note_on_c, 1, 76, 45
2, 11040, Note_on_c, 1, 76, 0
2, 11040, Note_on_c, 1, 72, 45
2, 11134, Note_on_c, 1, 72, 0
2, 11136, Note_on_c, 1, 84, 45
2, 11424, Note_on_c, 1, 84, 0
2, 11424, Note_on_c, 1, 79, 45
2, 11520, Note_on_c, 1, 79, 0
2, 11520, Note_on_c, 1, 76, 45
2, 11616, Note_on_c, 1, 76, 0
2, 11616, Note_on_c, 1, 72, 45
2, 11710, Note_on_c, 1, 72, 0
2, 11712, Note_on_c, 1, 84, 45
2, 11872, Note_on_c, 1, 84, 0
2, 11904, Note_on_c, 1, 86, 68
2, 12064, Note_on_c, 1, 86, 0
2, 12096, Note_on_c, 1, 75, 92
2, 12096, Note_on_c, 1, 87, 92
2, 12256, Note_on_c, 1, 75, 0
2, 12256, Note_on_c, 1, 87, 0
2, 12288, Note_on_c, 1, 76, 92
2, 12288, Note_on_c, 1, 88, 92
2, 12448, Note_on_c, 1, 76, 0
2, 12502, Note_on_c, 1, 88, 0
2, 12504, Note_on_c, 1, 87, 45
2, 12528, Note_on_c, 1, 87, 0
2, 12528, Note_on_c, 1, 89, 45
2, 12552, Note_on_c, 1, 89, 0
2, 12552, Note_on_c, 1, 88, 45
2, 12576, Note_on_c, 1, 88, 0
2, 12576, Note_on_c, 1, 86, 45
2, 12600, Note_on_c, 1, 86, 0
2, 12600, Note_on_c, 1, 84, 45
2, 12624, Note_on_c, 1, 84, 0
2, 12624, Note_on_c, 1, 83, 45
2, 12648, Note_on_c, 1, 83, 0
2, 12648, Note_on_c, 1, 81, 45
2, 12670, Note_on_c, 1, 81, 0
2, 12672, Note_on_c, 1, 79, 45
2, 12696, Note_on_c, 1, 79, 0
2, 12696, Note_on_c, 1, 80, 45
2, 12720, Note_on_c, 1, 80, 0
2, 12720, Note_on_c, 1, 83, 45
2, 12744, Note_on_c, 1, 83, 0
2, 12744, Note_on_c, 1, 81, 45
2, 12768, Note_on_c, 1, 81, 0
2, 12768, Note_on_c, 1, 79, 45
2, 12792, Note_on_c, 1, 79, 0
2, 12792, Note_on_c, 1, 77, 45
2, 12816, Note_on_c, 1, 77, 0
2, 12816, Note_on_c, 1, 76, 45
2, 12840, Note_on_c, 1, 76, 0
2, 12840, Note_on_c, 1, 74, 45
2, 12862, Note_on_c, 1, 74, 0
2, 12864, Note_on_c, 1, 72, 45
2, 12958, Note_on_c, 1, 72, 0
2, 13248, Note_on_c, 1, 71, 30
2, 13282, Note_on_c, 1, 71, 0
2, 13296, Note_on_c, 1, 71, 30
2, 13330, Note_on_c, 1, 71, 0
2, 13344, Note_on_c, 1, 69, 30
2, 13378, Note_on_c, 1, 69, 0
2, 13392, Note_on_c, 1, 67, 30
2, 13424, Note_on_c, 1, 67, 0
2, 13440, Note_on_c, 1, 72, 30
2, 13534, Note_on_c, 1, 72, 0
2, 13824, Note_on_c, 1, 67, 30
2, 13858, Note_on_c, 1, 67, 0
2, 13872, Note_on_c, 1, 67, 30
2, 13906, Note_on_c, 1, 67, 0
2, 13920, Note_on_c, 1, 67, 30
2, 13954, Note_on_c, 1, 67, 0
2, 13968, Note_on_c, 1, 67, 30
2, 14000, Note_on_c, 1, 67, 0
2, 14016, Note_on_c, 1, 67, 30
2, 14110, Note_on_c, 1, 67, 0
2, 14400, Note_on_c, 1, 64, 30
2, 14494, Note_on_c, 1, 64, 0
2, 14592, Note_on_c, 1, 60, 30
2, 14686, Note_on_c, 1, 60, 0
2, 14976, Note_on_c, 1, 72, 30
2, 15008, Note_on_c, 1, 72, 0
2, 15024, Note_on_c, 1, 72, 30
2, 15056, Note_on_c, 1, 72, 0
2, 15072, Note_on_c, 1, 70, 30
2, 15104, Note_on_c, 1, 70, 0
2, 15120, Note_on_c, 1, 69, 30
2, 15152, Note_on_c, 1, 69, 0
2, 15168, Note_on_c, 1, 74, 30
2, 15262, Note_on_c, 1, 74, 0
2, 15360, Note_on_c, 1, 70, 30
2, 15406, Note_on_c, 1, 70, 0
2, 15408, Note_on_c, 1, 70, 30
2, 15454, Note_on_c, 1, 70, 0
2, 15456, Note_on_c, 1, 69, 30
2, 15502, Note_on_c, 1, 69, 0
2, 15504, Note_on_c, 1, 67, 30
2, 15550, Note_on_c, 1, 67, 0
2, 15552, Note_on_c, 1, 72, 30
2, 15646, Note_on_c, 1, 72, 0
2, 15744, Note_on_c, 1, 72, 45
2, 15776, Note_on_c, 1, 72, 0
2, 15792, Note_on_c, 1, 72, 45
2, 15840, Note_on_c, 1, 72, 0
2, 15840, Note_on_c, 1, 70, 45
2, 15888, Note_on_c, 1, 70, 0
2, 15888, Note_on_c, 1, 69, 45
2, 15934, Note_on_c, 1, 69, 0
2, 15936, Note_on_c, 1, 69, 45
2, 15968, Note_on_c, 1, 69, 0
2, 15984, Note_on_c, 1, 69, 45
2, 16032, Note_on_c, 1, 69, 0
2, 16032, Note_on_c, 1, 67, 45
2, 16080, Note_on_c, 1, 67, 0
2, 16080, Note_on_c, 1, 65, 45
2, 16126, Note_on_c, 1, 65, 0
2, 16128, Note_on_c, 1, 65, 45
2, 16160, Note_on_c, 1, 65, 0
2, 16176, Note_on_c, 1, 65, 45
2, 16224, Note_on_c, 1, 65, 0
2, 16224, Note_on_c, 1, 64, 45
2, 16270, Note_on_c, 1, 64, 0
2, 16272, Note_on_c, 1, 65, 45
2, 16304, Note_on_c, 1, 65, 0
2, 16320, Note_on_c, 1, 66, 45
2, 16368, Note_on_c, 1, 66, 0
2, 16368, Note_on_c, 1, 67, 45
2, 16414, Note_on_c, 1, 67, 0
2, 16416, Note_on_c, 1, 67, 45
2, 16448, Note_on_c, 1, 67, 0
2, 16464, Note_on_c, 1, 67, 45
2, 16496, Note_on_c, 1, 67, 0
2, 16512, Note_on_c, 1, 74, 45
2, 16544, Note_on_c, 1, 74, 0
2, 16560, Note_on_c, 1, 74, 45
2, 16608, Note_on_c, 1, 74, 0
2, 16608, Note_on_c, 1, 72, 45
2, 16656, Note_on_c, 1, 72, 0
2, 16656, Note_on_c, 1, 70, 45
2, 16702, Note_on_c, 1, 70, 0
2, 16704, Note_on_c, 1, 70, 45
2, 16736, Note_on_c, 1, 70, 0
2, 16752, Note_on_c, 1, 70, 45
2, 16800, Note_on_c, 1, 70, 0
2, 16800, Note_on_c, 1, 69, 45
2, 16848, Note_on_c, 1, 69, 0
2, 16848, Note_on_c, 1, 67, 45
2, 16894, Note_on_c, 1, 67, 0
2, 16896, Note_on_c, 1, 67, 45
2, 16928, Note_on_c, 1, 67, 0
2, 16944, Note_on_c, 1, 67, 45
2, 16992, Note_on_c, 1, 67, 0
2, 16992, Note_on_c, 1, 66, 45
2, 17038, Note_on_c, 1, 66, 0
2, 17040, Note_on_c, 1, 67, 45
2, 17072, Note_on_c, 1, 67, 0
2, 17088, Note_on_c, 1, 68, 45
2, 17136, Note_on_c, 1, 68, 0
2, 17136, Note_on_c, 1, 69, 45
2, 17182, Note_on_c, 1, 69, 0
2, 17184, Note_on_c, 1, 69, 45
2, 17216, Note_on_c, 1, 69, 0
2, 17232, Note_on_c, 1, 69, 45
2, 17264, Note_on_c, 1, 69, 0
2, 17280, Note_on_c, 1, 77, 45
2, 17312, Note_on_c, 1, 77, 0
2, 17328, Note_on_c, 1, 77, 45
2, 17376, Note_on_c, 1, 77, 0
2, 17376, Note_on_c, 1, 79, 45
2, 17424, Note_on_c, 1, 79, 0
2, 17424, Note_on_c, 1, 81, 45
2, 17470, Note_on_c, 1, 81, 0
2, 17472, Note_on_c, 1, 79, 45
2, 17504, Note_on_c, 1, 79, 0
2, 17520, Note_on_c, 1, 79, 45
2, 17568, Note_on_c, 1, 79, 0
2, 17568, Note_on_c, 1, 77, 45
2, 17616, Note_on_c, 1, 77, 0
2, 17616, Note_on_c, 1, 76, 45
2, 17662, Note_on_c, 1, 76, 0
2, 17664, Note_on_c, 1, 74, 45
2, 17696, Note_on_c, 1, 74, 0
2, 17712, Note_on_c, 1, 74, 45
2, 17760, Note_on_c, 1, 74, 0
2, 17760, Note_on_c, 1, 76, 45
2, 17808, Note_on_c, 1, 76, 0
2, 17808, Note_on_c, 1, 77, 45
2, 17854, Note_on_c, 1, 77, 0
2, 17856, Note_on_c, 1, 76, 45
2, 17888, Note_on_c, 1, 76, 0
2, 17904, Note_on_c, 1, 76, 45
2, 17952, Note_on_c, 1, 76, 0
2, 17952, Note_on_c, 1, 74, 45
2, 18000, Note_on_c, 1, 74, 0
2, 18000, Note_on_c, 1, 72, 45
2, 18046, Note_on_c, 1, 72, 0
2, 18048, Note_on_c, 1, 77, 92
2, 18080, Note_on_c, 1, 77, 0
2, 18096, Note_on_c, 1, 77, 92
2, 18144, Note_on_c, 1, 77, 0
2, 18144, Note_on_c, 1, 79, 92
2, 18192, Note_on_c, 1, 79, 0
2, 18192, Note_on_c, 1, 81, 92
2, 18238, Note_on_c, 1, 81, 0
2, 18240, Note_on_c, 1, 79, 92
2, 18272, Note_on_c, 1, 79, 0
2, 18288, Note_on_c, 1, 79, 92
2, 18336, Note_on_c, 1, 79, 0
2, 18336, Note_on_c, 1, 77, 92
2, 18384, Note_on_c, 1, 77, 0
2, 18384, Note_on_c, 1, 76, 92
2, 18430, Note_on_c, 1, 76, 0
2, 18432, Note_on_c, 1, 74, 92
2, 18464, Note_on_c, 1, 74, 0
2, 18480, Note_on_c, 1, 74, 92
2, 18528, Note_on_c, 1, 74, 0
2, 18528, Note_on_c, 1, 79, 92
2, 18576, Note_on_c, 1, 79, 0
2, 18576, Note_on_c, 1, 71, 92
2, 18624, Note_on_c, 1, 71, 0
2, 18624, Note_on_c, 1, 72, 92
2, 18784, Note_on_c, 1, 72, 0
2, 18816, Note_on_c, 1, 72, 45
2, 18848, Note_on_c, 1, 72, 0
2, 18864, Note_on_c, 1, 72, 45
2, 18912, Note_on_c, 1, 72, 0
2, 18912, Note_on_c, 1, 70, 45
2, 18960, Note_on_c, 1, 70, 0
2, 18960, Note_on_c, 1, 69, 45
2, 19006, Note_on_c, 1, 69, 0
2, 19008, Note_on_c, 1, 69, 45
2, 19040, Note_on_c, 1, 69, 0
2, 19056, Note_on_c, 1, 69, 45
2, 19104, Note_on_c, 1, 69, 0
2, 19104, Note_on_c, 1, 67, 45
2, 19152, Note_on_c, 1, 67, 0
2, 19152, Note_on_c, 1, 65, 45
2, 19198, Note_on_c, 1, 65, 0
2, 19200, Note_on_c, 1, 65, 45
2, 19232, Note_on_c, 1, 65, 0
2, 19248, Note_on_c, 1, 65, 45
2, 19296, Note_on_c, 1, 65, 0
2, 19296, Note_on_c, 1, 64, 45
2, 19342, Note_on_c, 1, 64, 0
2, 19344, Note_on_c, 1, 65, 45
2, 19376, Note_on_c, 1, 65, 0
2, 19392, Note_on_c, 1, 66, 45
2, 19440, Note_on_c, 1, 66, 0
2, 19440, Note_on_c, 1, 67, 45
2, 19486, Note_on_c, 1, 67, 0
2, 19488, Note_on_c, 1, 67, 45
2, 19520, Note_on_c, 1, 67, 0
2, 19536, Note_on_c, 1, 67, 45
2, 19568, Note_on_c, 1, 67, 0
2, 19584, Note_on_c, 1, 74, 45
2, 19616, Note_on_c, 1, 74, 0
2, 19632, Note_on_c, 1, 74, 45
2, 19680, Note_on_c, 1, 74, 0
2, 19680, Note_on_c, 1, 72, 45
2, 19728, Note_on_c, 1, 72, 0
2, 19728, Note_on_c, 1, 70, 45
2, 19774, Note_on_c, 1, 70, 0
2, 19776, Note_on_c, 1, 70, 45
2, 19808, Note_on_c, 1, 70, 0
2, 19824, Note_on_c, 1, 70, 45
2, 19872, Note_on_c, 1, 70, 0
2, 19872, Note_on_c, 1, 69, 45
2, 19920, Note_on_c, 1, 69, 0
2, 19920, Note_on_c, 1, 67, 45
2, 19966, Note_on_c, 1, 67, 0
2, 19968, Note_on_c, 1, 67, 45
2, 20000, Note_on_c, 1, 67, 0
2, 20016, Note_on_c, 1, 67, 45
2, 20064, Note_on_c, 1, 67, 0
2, 20064, Note_on_c, 1, 66, 45
2, 20110, Note_on_c, 1, 66, 0
2, 20112, Note_on_c, 1, 67, 45
2, 20144, Note_on_c, 1, 67, 0
2, 20160, Note_on_c, 1, 68, 45
2, 20208, Note_on_c, 1, 68, 0
2, 20208, Note_on_c, 1, 69, 45
2, 20254, Note_on_c, 1, 69, 0
2, 20256, Note_on_c, 1, 69, 45
2, 20288, Note_on_c, 1, 69, 0
2, 20304, Note_on_c, 1, 69, 45
2, 20336, Note_on_c, 1, 69, 0
2, 20352, Note_on_c, 1, 77, 45
2, 20384, Note_on_c, 1, 77, 0
2, 20400, Note_on_c, 1, 77, 45
2, 20448, Note_on_c, 1, 77, 0
2, 20448, Note_on_c, 1, 79, 45
2, 20496, Note_on_c, 1, 79, 0
2, 20496, Note_on_c, 1, 81, 45
2, 20542, Note_on_c, 1, 81, 0
2, 20544, Note_on_c, 1, 79, 45
2, 20576, Note_on_c, 1, 79, 0
2, 20592, Note_on_c, 1, 79, 45
2, 20640, Note_on_c, 1, 79, 0
2, 20640, Note_on_c, 1, 77, 45
2, 20688, Note_on_c, 1, 77, 0
2, 20688, Note_on_c, 1, 76, 45
2, 20734, Note_on_c, 1, 76, 0
2, 20736, Note_on_c, 1, 74, 45
2, 20768, Note_on_c, 1, 74, 0
2, 20784, Note_on_c, 1, 74, 45
2, 20832, Note_on_c, 1, 74, 0
2, 20832, Note_on_c, 1, 76, 45
2, 20880, Note_on_c, 1, 76, 0
2, 20880, Note_on_c, 1, 77, 45
2, 20926, Note_on_c, 1, 77, 0
2, 20928, Note_on_c, 1, 76, 45
2, 20960, Note_on_c, 1, 76, 0
2, 20976, Note_on_c, 1, 76, 45
2, 21024, Note_on_c, 1, 76, 0
2, 21024, Note_on_c, 1, 74, 45
2, 21072, Note_on_c, 1, 74, 0
2, 21072, Note_on_c, 1, 72, 45
2, 21118, Note_on_c, 1, 72, 0
2, 21120, Note_on_c, 1, 77, 92
2, 21152, Note_on_c, 1, 77, 0
2, 21168, Note_on_c, 1, 77, 92
2, 21216, Note_on_c, 1, 77, 0
2, 21216, Note_on_c, 1, 79, 92
2, 21264, Note_on_c, 1, 79, 0
2, 21264, Note_on_c, 1, 81, 92
2, 21310, Note_on_c, 1, 81, 0
2, 21312, Note_on_c, 1, 79, 92
2, 21344, Note_on_c, 1, 79, 0
2, 21360, Note_on_c, 1, 79, 92
2, 21408, Note_on_c, 1, 79, 0
2, 21408, Note_on_c, 1, 77, 92
2, 21456, Note_on_c, 1, 77, 0
2, 21456, Note_on_c, 1, 76, 92
2, 21502, Note_on_c, 1, 76, 0
2, 21504, Note_on_c, 1, 74, 92
2, 21536, Note_on_c, 1, 74, 0
2, 21552, Note_on_c, 1, 74, 92
2, 21600, Note_on_c, 1, 74, 0
2, 21600, Note_on_c, 1, 79, 92
2, 21648, Note_on_c, 1, 79, 0
2, 21648, Note_on_c, 1, 71, 92
2, 21696, Note_on_c, 1, 71, 0
2, 21696, Note_on_c, 1, 72, 92
2, 21856, Note_on_c, 1, 72, 0
2, 22272, Note_on_c, 1, 77, 45
2, 22304, Note_on_c, 1, 77, 0
2, 22320, Note_on_c, 1, 77, 45
2, 22368, Note_on_c, 1, 77, 0
2, 22368, Note_on_c, 1, 79, 45
2, 22416, Note_on_c, 1, 79, 0
2, 22416, Note_on_c, 1, 81, 45
2, 22462, Note_on_c, 1, 81, 0
2, 22464, Note_on_c, 1, 82, 45
2, 22496, Note_on_c, 1, 82, 0
2, 22512, Note_on_c, 1, 82, 45
2, 22560, Note_on_c, 1, 82, 0
2, 22560, Note_on_c, 1, 84, 45
2, 22608, Note_on_c, 1, 84, 0
2, 22608, Note_on_c, 1, 86, 45
2, 22654, Note_on_c, 1, 86, 0
2, 23040, Note_on_c, 1, 76, 45
2, 23072, Note_on_c, 1, 76, 0
2, 23088, Note_on_c, 1, 76, 45
2, 23136, Note_on_c, 1, 76, 0
2, 23136, Note_on_c, 1, 77, 45
2, 23184, Note_on_c, 1, 77, 0
2, 23184, Note_on_c, 1, 79, 45
2, 23230, Note_on_c, 1, 79, 0
2, 23232, Note_on_c, 1, 81, 45
2, 23264, Note_on_c, 1, 81, 0
2, 23280, Note_on_c, 1, 81, 45
2, 23328, Note_on_c, 1, 81, 0
2, 23328, Note_on_c, 1, 82, 45
2, 23376, Note_on_c, 1, 82, 0
2, 23376, Note_on_c, 1, 84, 45
2, 23422, Note_on_c, 1, 84, 0
2, 23424, Note_on_c, 1, 81, 45
2, 23456, Note_on_c, 1, 81, 0
2, 23472, Note_on_c, 1, 81, 46
2, 23520, Note_on_c, 1, 81, 0
2, 23520, Note_on_c, 1, 79, 47
2, 23568, Note_on_c, 1, 79, 0
2, 23568, Note_on_c, 1, 77, 48
2, 23614, Note_on_c, 1, 77, 0
2, 23616, Note_on_c, 1, 82, 49
2, 23648, Note_on_c, 1, 82, 0
2, 23664, Note_on_c, 1, 82, 50
2, 23712, Note_on_c, 1, 82, 0
2, 23712, Note_on_c, 1, 81, 51
2, 23760, Note_on_c, 1, 81, 0
2, 23760, Note_on_c, 1, 79, 52
2, 23806, Note_on_c, 1, 79, 0
2, 23808, Note_on_c, 1, 81, 53
2, 23840, Note_on_c, 1, 81, 0
2, 23856, Note_on_c, 1, 81, 54
2, 23904, Note_on_c, 1, 81, 0
2, 23904, Note_on_c, 1, 79, 56
2, 23952, Note_on_c, 1, 79, 0
2, 23952, Note_on_c, 1, 77, 58
2, 23998, Note_on_c, 1, 77, 0
2, 24000, Note_on_c, 1, 76, 60
2, 24032, Note_on_c, 1, 76, 0
2, 24048, Note_on_c, 1, 76, 62
2, 24096, Note_on_c, 1, 76, 0
2, 24096, Note_on_c, 1, 74, 64
2, 24144, Note_on_c, 1, 74, 0
2, 24144, Note_on_c, 1, 72, 66
2, 24190, Note_on_c, 1, 72, 0
2, 24192, Note_on_c, 1, 81, 68
2, 24224, Note_on_c, 1, 81, 0
2, 24240, Note_on_c, 1, 81, 70
2, 24288, Note_on_c, 1, 81, 0
2, 24288, Note_on_c, 1, 79, 72
2, 24336, Note_on_c, 1, 79, 0
2, 24336, Note_on_c, 1, 77, 74
2, 24382, Note_on_c, 1, 77, 0
2, 24384, Note_on_c, 1, 82, 76
2, 24416, Note_on_c, 1, 82, 0
2, 24432, Note_on_c, 1, 82, 78
2, 24480, Note_on_c, 1, 82, 0
2, 24480, Note_on_c, 1, 81, 80
2, 24528, Note_on_c, 1, 81, 0
2, 24528, Note_on_c, 1, 79, 82
2, 24574, Note_on_c, 1, 79, 0
2, 24576, Note_on_c, 1, 81, 84
2, 24608, Note_on_c, 1, 81, 0
2, 24624, Note_on_c, 1, 81, 86
2, 24672, Note_on_c, 1, 81, 0
2, 24672, Note_on_c, 1, 79, 88
2, 24720, Note_on_c, 1, 79, 0
2, 24720, Note_on_c, 1, 77, 90
2, 24766, Note_on_c, 1, 77, 0
2, 24768, Note_on_c, 1, 84, 92
2, 25696, Note_on_c, 1, 84, 0
2, 25728, Note_on_c, 1, 86, 45
2, 25760, Note_on_c, 1, 86, 0
2, 25776, Note_on_c, 1, 86, 45
2, 25824, Note_on_c, 1, 86, 0
2, 25824, Note_on_c, 1, 84, 45
2, 25872, Note_on_c, 1, 84, 0
2, 25872, Note_on_c, 1, 82, 45
2, 25918, Note_on_c, 1, 82, 0
2, 25920, Note_on_c, 1, 82, 45
2, 25952, Note_on_c, 1, 82, 0
2, 25968, Note_on_c, 1, 82, 45
2, 26016, Note_on_c, 1, 82, 0
2, 26016, Note_on_c, 1, 81, 45
2, 26064, Note_on_c, 1, 81, 0
2, 26064, Note_on_c, 1, 79, 45
2, 26110, Note_on_c, 1, 79, 0
2, 26112, Note_on_c, 1, 79, 45
2, 26144, Note_on_c, 1, 79, 0
2, 26160, Note_on_c, 1, 79, 45
2, 26208, Note_on_c, 1, 79, 0
2, 26208, Note_on_c, 1, 77, 45
2, 26254, Note_on_c, 1, 77, 0
2, 26256, Note_on_c, 1, 79, 45
2, 26288, Note_on_c, 1, 79, 0
2, 26304, Note_on_c, 1, 80, 45
2, 26352, Note_on_c, 1, 80, 0
2, 26352, Note_on_c, 1, 81, 45
2, 26398, Note_on_c, 1, 81, 0
2, 26400, Note_on_c, 1, 81, 45
2, 26432, Note_on_c, 1, 81, 0
2, 26448, Note_on_c, 1, 81, 45
2, 26480, Note_on_c, 1, 81, 0
2, 26496, Note_on_c, 1, 82, 45
2, 26528, Note_on_c, 1, 82, 0
2, 26544, Note_on_c, 1, 82, 45
2, 26592, Note_on_c, 1, 82, 0
2, 26592, Note_on_c, 1, 84, 45
2, 26640, Note_on_c, 1, 84, 0
2, 26640, Note_on_c, 1, 86, 45
2, 26686, Note_on_c, 1, 86, 0
2, 26688, Note_on_c, 1, 84, 45
2, 26720, Note_on_c, 1, 84, 0
2, 26736, Note_on_c, 1, 84, 45
2, 26784, Note_on_c, 1, 84, 0
2, 26784, Note_on_c, 1, 82, 45
2, 26832, Note_on_c, 1, 82, 0
2, 26832, Note_on_c, 1, 81, 45
2, 26878, Note_on_c, 1, 81, 0
2, 26880, Note_on_c, 1, 79, 45
2, 26912, Note_on_c, 1, 79, 0
2, 26928, Note_on_c, 1, 79, 45
2, 26976, Note_on_c, 1, 79, 0
2, 26976, Note_on_c, 1, 81, 45
2, 27024, Note_on_c, 1, 81, 0
2, 27024, Note_on_c, 1, 82, 45
2, 27070, Note_on_c, 1, 82, 0
2, 27072, Note_on_c, 1, 81, 45
2, 27104, Note_on_c, 1, 81, 0
2, 27120, Note_on_c, 1, 81, 45
2, 27168, Note_on_c, 1, 81, 0
2, 27168, Note_on_c, 1, 79, 45
2, 27216, Note_on_c, 1, 79, 0
2, 27216, Note_on_c, 1, 77, 45
2, 27262, Note_on_c, 1, 77, 0
2, 27264, Note_on_c, 1, 82, 92
2, 27296, Note_on_c, 1, 82, 0
2, 27312, Note_on_c, 1, 82, 92
2, 27360, Note_on_c, 1, 82, 0
2, 27360, Note_on_c, 1, 84, 92
2, 27408, Note_on_c, 1, 84, 0
2, 27408, Note_on_c, 1, 86, 92
2, 27454, Note_on_c, 1, 86, 0
2, 27456, Note_on_c, 1, 84, 92
2, 27488, Note_on_c, 1, 84, 0
2, 27504, Note_on_c, 1, 84, 92
2, 27552, Note_on_c, 1, 84, 0
2, 27552, Note_on_c, 1, 82, 92
2, 27600, Note_on_c, 1, 82, 0
2, 27600, Note_on_c, 1, 81, 92
2, 27646, Note_on_c, 1, 81, 0
2, 27648, Note_on_c, 1, 79, 92
2, 27680, Note_on_c, 1, 79, 0
2, 27696, Note_on_c, 1, 79, 92
2, 27744, Note_on_c, 1, 79, 0
2, 27744, Note_on_c, 1, 84, 92
2, 27792, Note_on_c, 1, 84, 0
2, 27792, Note_on_c, 1, 76, 92
2, 27840, Note_on_c, 1, 76, 0
2, 27840, Note_on_c, 1, 77, 92
2, 28000, Note_on_c, 1, 77, 0
2, 28416, Note_on_c, 1, 77, 45
2, 28448, Note_on_c, 1, 77, 0
2, 28464, Note_on_c, 1, 77, 45
2, 28512, Note_on_c, 1, 77, 0
2, 28512, Note_on_c, 1, 79, 45
2, 28560, Note_on_c, 1, 79, 0
2, 28560, Note_on_c, 1, 81, 45
2, 28606, Note_on_c, 1, 81, 0
2, 28608, Note_on_c, 1, 82, 45
2, 28640, Note_on_c, 1, 82, 0
2, 28656, Note_on_c, 1, 82, 45
2, 28704, Note_on_c, 1, 82, 0
2, 28704, Note_on_c, 1, 84, 45
2, 28752, Note_on_c, 1, 84, 0
2, 28752, Note_on_c, 1, 86, 45
2, 28798, Note_on_c, 1, 86, 0
2, 29184, Note_on_c, 1, 76, 45
2, 29216, Note_on_c, 1, 76, 0
2, 29232, Note_on_c, 1, 76, 45
2, 29280, Note_on_c, 1, 76, 0
2, 29280, Note_on_c, 1, 77, 45
2, 29328, Note_on_c, 1, 77, 0
2, 29328, Note_on_c, 1, 79, 45
2, 29374, Note_on_c, 1, 79, 0
2, 29376, Note_on_c, 1, 81, 45
2, 29408, Note_on_c, 1, 81, 0
2, 29424, Note_on_c, 1, 81, 45
2, 29472, Note_on_c, 1, 81, 0
2, 29472, Note_on_c, 1, 82, 45
2, 29520, Note_on_c, 1, 82, 0
2, 29520, Note_on_c, 1, 84, 45
2, 29566, Note_on_c, 1, 84, 0
2, 29568, Note_on_c, 1, 81, 45
2, 29600, Note_on_c, 1, 81, 0
2, 29616, Note_on_c, 1, 81, 46
2, 29664, Note_on_c, 1, 81, 0
2, 29664, Note_on_c, 1, 79, 47
2, 29712, Note_on_c, 1, 79, 0
2, 29712, Note_on_c, 1, 77, 48
2, 29758, Note_on_c, 1, 77, 0
2, 29760, Note_on_c, 1, 82, 49
2, 29792, Note_on_c, 1, 82, 0
2, 29808, Note_on_c, 1, 82, 50
2, 29856, Note_on_c, 1, 82, 0
2, 29856, Note_on_c, 1, 81, 51
2, 29904, Note_on_c, 1, 81, 0
2, 29904, Note_on_c, 1, 79, 52
2, 29950, Note_on_c, 1, 79, 0
2, 29952, Note_on_c, 1, 81, 53
2, 29984, Note_on_c, 1, 81, 0
2, 30000, Note_on_c, 1, 81, 54
2, 30048, Note_on_c, 1, 81, 0
2, 30048, Note_on_c, 1, 79, 56
2, 30096, Note_on_c, 1, 79, 0
2, 30096, Note_on_c, 1, 77, 58
2, 30142, Note_on_c, 1, 77, 0
2, 30144, Note_on_c, 1, 76, 60
2, 30176, Note_on_c, 1, 76, 0
2, 30192, Note_on_c, 1, 76, 62
2, 30240, Note_on_c, 1, 76, 0
2, 30240, Note_on_c, 1, 74, 64
2, 30288, Note_on_c, 1, 74, 0
2, 30288, Note_on_c, 1, 72, 66
2, 30334, Note_on_c, 1, 72, 0
2, 30336, Note_on_c, 1, 81, 68
2, 30368, Note_on_c, 1, 81, 0
2, 30384, Note_on_c, 1, 81, 70
2, 30432, Note_on_c, 1, 81, 0
2, 30432, Note_on_c, 1, 79, 72
2, 30480, Note_on_c, 1, 79, 0
2, 30480, Note_on_c, 1, 77, 74
2, 30526, Note_on_c, 1, 77, 0
2, 30528, Note_on_c, 1, 82, 76
2, 30560, Note_on_c, 1, 82, 0
2, 30576, Note_on_c, 1, 82, 78
2, 30624, Note_on_c, 1, 82, 0
2, 30624, Note_on_c, 1, 81, 80
2, 30672, Note_on_c, 1, 81, 0
2, 30672, Note_on_c, 1, 79, 82
2, 30718, Note_on_c, 1, 79, 0
2, 30720, Note_on_c, 1, 81, 84
2, 30752, Note_on_c, 1, 81, 0
2, 30768, Note_on_c, 1, 81, 86
2, 30816, Note_on_c, 1, 81, 0
2, 30816, Note_on_c, 1, 79, 88
2, 30864, Note_on_c, 1, 79, 0
2, 30864, Note_on_c, 1, 77, 90
2, 30910, Note_on_c, 1, 77, 0
2, 30912, Note_on_c, 1, 84, 92
2, 31840, Note_on_c, 1, 84, 0
2, 31872, Note_on_c, 1, 86, 45
2, 31904, Note_on_c, 1, 86, 0
2, 31920, Note_on_c, 1, 86, 45
2, 31968, Note_on_c, 1, 86, 0
2, 31968, Note_on_c, 1, 84, 45
2, 32016, Note_on_c, 1, 84, 0
2, 32016, Note_on_c, 1, 82, 45
2, 32062, Note_on_c, 1, 82, 0
2, 32064, Note_on_c, 1, 82, 45
2, 32096, Note_on_c, 1, 82, 0
2, 32112, Note_on_c, 1, 82, 45
2, 32160, Note_on_c, 1, 82, 0
2, 32160, Note_on_c, 1, 81, 45
2, 32208, Note_on_c, 1, 81, 0
2, 32208, Note_on_c, 1, 79, 45
2, 32254, Note_on_c, 1, 79, 0
2, 32256, Note_on_c, 1, 79, 45
2, 32288, Note_on_c, 1, 79, 0
2, 32304, Note_on_c, 1, 79, 45
2, 32352, Note_on_c, 1, 79, 0
2, 32352, Note_on_c, 1, 77, 45
2, 32398, Note_on_c, 1, 77, 0
2, 32400, Note_on_c, 1, 79, 45
2, 32432, Note_on_c, 1, 79, 0
2, 32448, Note_on_c, 1, 80, 45
2, 32496, Note_on_c, 1, 80, 0
2, 32496, Note_on_c, 1, 81, 45
2, 32542, Note_on_c, 1, 81, 0
2, 32544, Note_on_c, 1, 81, 45
2, 32576, Note_on_c, 1, 81, 0
2, 32592, Note_on_c, 1, 81, 45
2, 32624, Note_on_c, 1, 81, 0
2, 32640, Note_on_c, 1, 82, 45
2, 32672, Note_on_c, 1, 82, 0
2, 32688, Note_on_c, 1, 82, 45
2, 32736, Note_on_c, 1, 82, 0
2, 32736, Note_on_c, 1, 84, 45
2, 32784, Note_on_c, 1, 84, 0
2, 32784, Note_on_c, 1, 86, 45
2, 32830, Note_on_c, 1, 86, 0
2, 32832, Note_on_c, 1, 84, 45
2, 32864, Note_on_c, 1, 84, 0
2, 32880, Note_on_c, 1, 84, 45
2, 32928, Note_on_c, 1, 84, 0
2, 32928, Note_on_c, 1, 82, 45
2, 32976, Note_on_c, 1, 82, 0
2, 32976, Note_on_c, 1, 81, 45
2, 33022, Note_on_c, 1, 81, 0
2, 33024, Note_on_c, 1, 79, 45
2, 33056, Note_on_c, 1, 79, 0
2, 33072, Note_on_c, 1, 79, 45
2, 33120, Note_on_c, 1, 79, 0
2, 33120, Note_on_c, 1, 81, 45
2, 33168, Note_on_c, 1, 81, 0
2, 33168, Note_on_c, 1, 82, 45
2, 33214, Note_on_c, 1, 82, 0
2, 33216, Note_on_c, 1, 81, 45
2, 33248, Note_on_c, 1, 81, 0
2, 33264, Note_on_c, 1, 81, 45
2, 33312, Note_on_c, 1, 81, 0
2, 33312, Note_on_c, 1, 79, 45
2, 33360, Note_on_c, 1, 79, 0
2, 33360, Note_on_c, 1, 77, 45
2, 33406, Note_on_c, 1, 77, 0
2, 33408, Note_on_c, 1, 82, 92
2, 33440, Note_on_c, 1, 82, 0
2, 33456, Note_on_c, 1, 82, 92
2, 33504, Note_on_c, 1, 82, 0
2, 33504, Note_on_c, 1, 84, 92
2, 33552, Note_on_c, 1, 84, 0
2, 33552, Note_on_c, 1, 86, 92
2, 33598, Note_on_c, 1, 86, 0
2, 33600, Note_on_c, 1, 84, 92
2, 33632, Note_on_c, 1, 84, 0
2, 33648, Note_on_c, 1, 84, 92
2, 33696, Note_on_c, 1, 84, 0
2, 33696, Note_on_c, 1, 82, 92
2, 33744, Note_on_c, 1, 82, 0
2, 33744, Note_on_c, 1, 81, 92
2, 33790, Note_on_c, 1, 81, 0
2, 33792, Note_on_c, 1, 79, 92
2, 33824, Note_on_c, 1, 79, 0
2, 33840, Note_on_c, 1, 79, 92
2, 33888, Note_on_c, 1, 79, 0
2, 33888, Note_on_c, 1, 84, 92
2, 33936, Note_on_c, 1, 84, 0
2, 33936, Note_on_c, 1, 76, 92
2, 33984, Note_on_c, 1, 76, 0
2, 33984, Note_on_c, 1, 77, 92
2, 34144, Note_on_c, 1, 77, 0
2, 34176, Note_on_c, 1, 81, 45
2, 34208, Note_on_c, 1, 81, 0
2, 34224, Note_on_c, 1, 81, 45
2, 34272, Note_on_c, 1, 81, 0
2, 34272, Note_on_c, 1, 79, 45
2, 34320, Note_on_c, 1, 79, 0
2, 34320, Note_on_c, 1, 77, 45
2, 34366, Note_on_c, 1, 77, 0
2, 34368, Note_on_c, 1, 77, 45
2, 34400, Note_on_c, 1, 77, 0
2, 34416, Note_on_c, 1, 77, 45
2, 34464, Note_on_c, 1, 77, 0
2, 34464, Note_on_c, 1, 76, 45
2, 34512, Note_on_c, 1, 76, 0
2, 34512, Note_on_c, 1, 74, 45
2, 34558, Note_on_c, 1, 74, 0
2, 34560, Note_on_c, 1, 74, 45
2, 34592, Note_on_c, 1, 74, 0
2, 34608, Note_on_c, 1, 74, 45
2, 34656, Note_on_c, 1, 74, 0
2, 34656, Note_on_c, 1, 72, 45
2, 34704, Note_on_c, 1, 72, 0
2, 34704, Note_on_c, 1, 71, 45
2, 34750, Note_on_c, 1, 71, 0
2, 34752, Note_on_c, 1, 71, 45
2, 34784, Note_on_c, 1, 71, 0
2, 34800, Note_on_c, 1, 71, 45
2, 34848, Note_on_c, 1, 71, 0
2, 34848, Note_on_c, 1, 69, 45
2, 34896, Note_on_c, 1, 69, 0
2, 34896, Note_on_c, 1, 67, 45
2, 34942, Note_on_c, 1, 67, 0
2, 34944, Note_on_c, 1, 67, 45
2, 35038, Note_on_c, 1, 67, 0
2, 35136, Note_on_c, 1, 71, 51
2, 35230, Note_on_c, 1, 71, 0
2, 35328, Note_on_c, 1, 74, 57
2, 35422, Note_on_c, 1, 74, 0
2, 35520, Note_on_c, 1, 77, 63
2, 35614, Note_on_c, 1, 77, 0
2, 35712, Note_on_c, 1, 83, 69
2, 35806, Note_on_c, 1, 83, 0
2, 35904, Note_on_c, 1, 86, 76
2, 35998, Note_on_c, 1, 86, 0
2, 36096, Note_on_c, 1, 89, 84
2, 36190, Note_on_c, 1, 89, 0
2, 36288, Note_on_c, 1, 55, 127
2, 36288, Note_on_c, 1, 65, 127
2, 37200, Note_on_c, 1, 55, 0
2, 37200, Note_on_c, 1, 65, 0
2, 37536, Note_on_c, 1, 64, 45
2, 37632, Note_on_c, 1, 64, 0
2, 37632, Note_on_c, 1, 67, 45
2, 37728, Note_on_c, 1, 67, 0
2, 37728, Note_on_c, 1, 72, 45
2, 37824, Note_on_c, 1, 72, 0
2, 37824, Note_on_c, 1, 76, 45
2, 37920, Note_on_c, 1, 76, 0
2, 37920, Note_on_c, 1, 79, 45
2, 38014, Note_on_c, 1, 79, 0
2, 38016, Note_on_c, 1, 79, 45
2, 38352, Note_on_c, 1, 79, 0
2, 38400, Note_on_c, 1, 67, 45
2, 38560, Note_on_c, 1, 67, 0
2, 38592, Note_on_c, 1, 67, 63
2, 38848, Note_on_c, 1, 67, 0
2, 39264, Note_on_c, 1, 71, 45
2, 39358, Note_on_c, 1, 71, 0
2, 39360, Note_on_c, 1, 80, 48
2, 39456, Note_on_c, 1, 80, 0
2, 39456, Note_on_c, 1, 79, 51
2, 39696, Note_on_c, 1, 79, 0
2, 39696, Note_on_c, 1, 77, 58
2, 39720, Note_on_c, 1, 77, 0
2, 39720, Note_on_c, 1, 76, 58
2, 39742, Note_on_c, 1, 76, 0
2, 39744, Note_on_c, 1, 76, 58
2, 39840, Note_on_c, 1, 76, 0
2, 39840, Note_on_c, 1, 74, 61
2, 39936, Note_on_c, 1, 74, 0
2, 39936, Note_on_c, 1, 77, 64
2, 40032, Note_on_c, 1, 77, 0
2, 40032, Note_on_c, 1, 81, 67
2, 40222, Note_on_c, 1, 81, 0
2, 40224, Note_on_c, 1, 71, 73
2, 40344, Note_on_c, 1, 71, 0
2, 40344, Note_on_c, 1, 72, 77
2, 40368, Note_on_c, 1, 72, 0
2, 40368, Note_on_c, 1, 74, 78
2, 40392, Note_on_c, 1, 74, 0
2, 40392, Note_on_c, 1, 76, 79
2, 40416, Note_on_c, 1, 76, 0
2, 40416, Note_on_c, 1, 77, 80
2, 40440, Note_on_c, 1, 77, 0
2, 40440, Note_on_c, 1, 67, 81
2, 40464, Note_on_c, 1, 67, 0
2, 40464, Note_on_c, 1, 69, 82
2, 40488, Note_on_c, 1, 69, 0
2, 40488, Note_on_c, 1, 71, 83
2, 40510, Note_on_c, 1, 71, 0
2, 40512, Note_on_c, 1, 72, 84
2, 40606, Note_on_c, 1, 72, 0
2, 40704, Note_on_c, 1, 60, 45
2, 40752, Note_on_c, 1, 60, 0
2, 40752, Note_on_c, 1, 64, 45
2, 40800, Note_on_c, 1, 64, 0
2, 40800, Note_on_c, 1, 67, 45
2, 40848, Note_on_c, 1, 67, 0
2, 40848, Note_on_c, 1, 72, 45
2, 40894, Note_on_c, 1, 72, 0
2, 40896, Note_on_c, 1, 76, 45
2, 41112, Note_on_c, 1, 76, 0
2, 41112, Note_on_c, 1, 74, 45
2, 41136, Note_on_c, 1, 74, 0
2, 41136, Note_on_c, 1, 72, 45
2, 41160, Note_on_c, 1, 72, 0
2, 41160, Note_on_c, 1, 71, 45
2, 41184, Note_on_c, 1, 71, 0
2, 41184, Note_on_c, 1, 72, 45
2, 41208, Note_on_c, 1, 72, 0
2, 41208, Note_on_c, 1, 74, 45
2, 41232, Note_on_c, 1, 74, 0
2, 41232, Note_on_c, 1, 76, 45
2, 41256, Note_on_c, 1, 76, 0
2, 41256, Note_on_c, 1, 77, 45
2, 41278, Note_on_c, 1, 77, 0
2, 41280, Note_on_c, 1, 79, 45
2, 41304, Note_on_c, 1, 79, 0
2, 41304, Note_on_c, 1, 78, 45
2, 41328, Note_on_c, 1, 78, 0
2, 41328, Note_on_c, 1, 81, 45
2, 41352, Note_on_c, 1, 81, 0
2, 41352, Note_on_c, 1, 79, 45
2, 41376, Note_on_c, 1, 79, 0
2, 41376, Note_on_c, 1, 77, 45
2, 41400, Note_on_c, 1, 77, 0
2, 41400, Note_on_c, 1, 76, 45
2, 41424, Note_on_c, 1, 76, 0
2, 41424, Note_on_c, 1, 74, 45
2, 41448, Note_on_c, 1, 74, 0
2, 41448, Note_on_c, 1, 72, 45
2, 41470, Note_on_c, 1, 72, 0
2, 41472, Note_on_c, 1, 76, 45
2, 41616, Note_on_c, 1, 76, 0
2, 41616, Note_on_c, 1, 77, 45
2, 41640, Note_on_c, 1, 77, 0
2, 41640, Note_on_c, 1, 76, 45
2, 41662, Note_on_c, 1, 76, 0
2, 41664, Note_on_c, 1, 74, 45
2, 41758, Note_on_c, 1, 74, 0
2, 41856, Note_on_c, 1, 55, 45
2, 41880, Note_on_c, 1, 55, 0
2, 41880, Note_on_c, 1, 60, 45
2, 41904, Note_on_c, 1, 60, 0
2, 41904, Note_on_c, 1, 64, 45
2, 41928, Note_on_c, 1, 64, 0
2, 41928, Note_on_c, 1, 60, 45
2, 41952, Note_on_c, 1, 60, 0
2, 41952, Note_on_c, 1, 67, 45
2, 41976, Note_on_c, 1, 67, 0
2, 41976, Note_on_c, 1, 64, 45
2, 42000, Note_on_c, 1, 64, 0
2, 42000, Note_on_c, 1, 72, 45
2, 42024, Note_on_c, 1, 72, 0
2, 42024, Note_on_c, 1, 67, 45
2, 42046, Note_on_c, 1, 67, 0
2, 42048, Note_on_c, 1, 76, 45
2, 42252, Note_on_c, 1, 76, 0
2, 42252, Note_on_c, 1, 74, 45
2, 42264, Note_on_c, 1, 74, 0
2, 42264, Note_on_c, 1, 72, 45
2, 42276, Note_on_c, 1, 72, 0
2, 42276, Note_on_c, 1, 71, 45
2, 42288, Note_on_c, 1, 71, 0
2, 42288, Note_on_c, 1, 72, 45
2, 42300, Note_on_c, 1, 72, 0
2, 42300, Note_on_c, 1, 74, 45
2, 42312, Note_on_c, 1, 74, 0
2, 42312, Note_on_c, 1, 76, 45
2, 42324, Note_on_c, 1, 76, 0
2, 42324, Note_on_c, 1, 77, 45
2, 42336, Note_on_c, 1, 77, 0
2, 42336, Note_on_c, 1, 81, 45
2, 42348, Note_on_c, 1, 81, 0
2, 42348, Note_on_c, 1, 79, 45
2, 42360, Note_on_c, 1, 79, 0
2, 42360, Note_on_c, 1, 77, 45
2, 42372, Note_on_c, 1, 77, 0
2, 42372, Note_on_c, 1, 76, 45
2, 42384, Note_on_c, 1, 76, 0
2, 42384, Note_on_c, 1, 77, 45
2, 42396, Note_on_c, 1, 77, 0
2, 42396, Note_on_c, 1, 79, 45
2, 42408, Note_on_c, 1, 79, 0
2, 42408, Note_on_c, 1, 81, 45
2, 42420, Note_on_c, 1, 81, 0
2, 42420, Note_on_c, 1, 83, 45
2, 42432, Note_on_c, 1, 83, 0
2, 42432, Note_on_c, 1, 84, 45
2, 42444, Note_on_c, 1, 84, 0
2, 42444, Note_on_c, 1, 83, 45
2, 42456, Note_on_c, 1, 83, 0
2, 42456, Note_on_c, 1, 88, 45
2, 42468, Note_on_c, 1, 88, 0
2, 42468, Note_on_c, 1, 86, 45
2, 42480, Note_on_c, 1, 86, 0
2, 42480, Note_on_c, 1, 84, 45
2, 42492, Note_on_c, 1, 84, 0
2, 42492, Note_on_c, 1, 83, 45
2, 42504, Note_on_c, 1, 83, 0
2, 42504, Note_on_c, 1, 81, 45
2, 42516, Note_on_c, 1, 81, 0
2, 42516, Note_on_c, 1, 79, 45
2, 42528, Note_on_c, 1, 79, 0
2, 42528, Note_on_c, 1, 78, 45
2, 42540, Note_on_c, 1, 78, 0
2, 42540, Note_on_c, 1, 79, 45
2, 42552, Note_on_c, 1, 79, 0
2, 42552, Note_on_c, 1, 81, 45
2, 42564, Note_on_c, 1, 81, 0
2, 42564, Note_on_c, 1, 79, 45
2, 42576, Note_on_c, 1, 79, 0
2, 42576, Note_on_c, 1, 77, 45
2, 42588, Note_on_c, 1, 77, 0
2, 42588, Note_on_c, 1, 76, 45
2, 42600, Note_on_c, 1, 76, 0
2, 42600, Note_on_c, 1, 74, 45
2, 42612, Note_on_c, 1, 74, 0
2, 42612, Note_on_c, 1, 72, 45
2, 42622, Note_on_c, 1, 72, 0
2, 42624, Note_on_c, 1, 76, 45
2, 42718, Note_on_c, 1, 76, 0
2, 42720, Note_on_c, 1, 77, 45
2, 42728, Note_on_c, 1, 77, 0
2, 42728, Note_on_c, 1, 76, 45
2, 42736, Note_on_c, 1, 76, 0
2, 42736, Note_on_c, 1, 74, 45
2, 42744, Note_on_c, 1, 74, 0
2, 42744, Note_on_c, 1, 76, 45
2, 42756, Note_on_c, 1, 76, 0
2, 42756, Note_on_c, 1, 77, 45
2, 42768, Note_on_c, 1, 77, 0
2, 42768, Note_on_c, 1, 78, 45
2, 42792, Note_on_c, 1, 78, 0
2, 42792, Note_on_c, 1, 79, 45
2, 42814, Note_on_c, 1, 79, 0
2, 42816, Note_on_c, 1, 74, 45
2, 42910, Note_on_c, 1, 74, 0
2, 43008, Note_on_c, 1, 73, 45
2, 43030, Note_on_c, 1, 73, 0
2, 43032, Note_on_c, 1, 74, 45
2, 43102, Note_on_c, 1, 74, 0
2, 43104, Note_on_c, 1, 73, 45
2, 43126, Note_on_c, 1, 73, 0
2, 43128, Note_on_c, 1, 74, 45
2, 43198, Note_on_c, 1, 74, 0
2, 43200, Note_on_c, 1, 74, 45
2, 43456, Note_on_c, 1, 74, 0
2, 43488, Note_on_c, 1, 76, 45
2, 43560, Note_on_c, 1, 76, 0
2, 43560, Note_on_c, 1, 74, 45
2, 43582, Note_on_c, 1, 74, 0
2, 43584, Note_on_c, 1, 79, 45
2, 43656, Note_on_c, 1, 79, 0
2, 43656, Note_on_c, 1, 74, 45
2, 43678, Note_on_c, 1, 74, 0
2, 43680, Note_on_c, 1, 83, 45
2, 43752, Note_on_c, 1, 83, 0
2, 43752, Note_on_c, 1, 74, 45
2, 43774, Note_on_c, 1, 74, 0
2, 43776, Note_on_c, 1, 74, 45
2, 43990, Note_on_c, 1, 74, 0
2, 43992, Note_on_c, 1, 74, 45
2, 44008, Note_on_c, 1, 74, 0
2, 44016, Note_on_c, 1, 74, 45
2, 44032, Note_on_c, 1, 74, 0
2, 44040, Note_on_c, 1, 74, 45
2, 44056, Note_on_c, 1, 74, 0
2, 44064, Note_on_c, 1, 76, 45
2, 44088, Note_on_c, 1, 76, 0
2, 44088, Note_on_c, 1, 74, 45
2, 44110, Note_on_c, 1, 74, 0
2, 44112, Note_on_c, 1, 74, 45
2, 44128, Note_on_c, 1, 74, 0
2, 44136, Note_on_c, 1, 74, 45
2, 44152, Note_on_c, 1, 74, 0
2, 44160, Note_on_c, 1, 79, 45
2, 44184, Note_on_c, 1, 79, 0
2, 44184, Note_on_c, 1, 74, 45
2, 44206, Note_on_c, 1, 74, 0
2, 44208, Note_on_c, 1, 74, 45
2, 44224, Note_on_c, 1, 74, 0
2, 44232, Note_on_c, 1, 74, 45
2, 44248, Note_on_c, 1, 74, 0
2, 44256, Note_on_c, 1, 83, 45
2, 44280, Note_on_c, 1, 83, 0
2, 44280, Note_on_c, 1, 75, 45
2, 44302, Note_on_c, 1, 75, 0
2, 44304, Note_on_c, 1, 75, 45
2, 44320, Note_on_c, 1, 75, 0
2, 44328, Note_on_c, 1, 75, 45
2, 44344, Note_on_c, 1, 75, 0
2, 44352, Note_on_c, 1, 78, 45
2, 44376, Note_on_c, 1, 78, 0
2, 44376, Note_on_c, 1, 76, 48
2, 44400, Note_on_c, 1, 76, 0
2, 44400, Note_on_c, 1, 74, 51
2, 44424, Note_on_c, 1, 74, 0
2, 44424, Note_on_c, 1, 72, 55
2, 44448, Note_on_c, 1, 72, 0
2, 44448, Note_on_c, 1, 71, 59
2, 44472, Note_on_c, 1, 71, 0
2, 44472, Note_on_c, 1, 69, 63
2, 44494, Note_on_c, 1, 69, 0
2, 44496, Note_on_c, 1, 76, 67
2, 44512, Note_on_c, 1, 76, 0
2, 44520, Note_on_c, 1, 76, 71
2, 44536, Note_on_c, 1, 76, 0
2, 44544, Note_on_c, 1, 76, 45
2, 44640, Note_on_c, 1, 76, 0
2, 44640, Note_on_c, 1, 67, 45
2, 44806, Note_on_c, 1, 67, 0
2, 44808, Note_on_c, 1, 69, 45
2, 44816, Note_on_c, 1, 69, 0
2, 44816, Note_on_c, 1, 67, 45
2, 44824, Note_on_c, 1, 67, 0
2, 44824, Note_on_c, 1, 66, 45
2, 44832, Note_on_c, 1, 66, 0
2, 44832, Note_on_c, 1, 67, 45
2, 44840, Note_on_c, 1, 67, 0
2, 44840, Note_on_c, 1, 69, 45
2, 44848, Note_on_c, 1, 69, 0
2, 44848, Note_on_c, 1, 71, 45
2, 44856, Note_on_c, 1, 71, 0
2, 44856, Note_on_c, 1, 72, 45
2, 44864, Note_on_c, 1, 72, 0
2, 44864, Note_on_c, 1, 74, 45
2, 44872, Note_on_c, 1, 74, 0
2, 44872, Note_on_c, 1, 76, 45
2, 44890, Note_on_c, 1, 76, 0
2, 44904, Note_on_c, 1, 66, 45
2, 44926, Note_on_c, 1, 66, 0
2, 44928, Note_on_c, 1, 69, 45
2, 45120, Note_on_c, 1, 69, 0
2, 45120, Note_on_c, 1, 67, 45
2, 45214, Note_on_c, 1, 67, 0
2, 45312, Note_on_c, 1, 67, 45
2, 45380, Note_on_c, 1, 67, 0
2, 45408, Note_on_c, 1, 67, 45
2, 45440, Note_on_c, 1, 67, 0
2, 45504, Note_on_c, 1, 71, 45
2, 45792, Note_on_c, 1, 71, 0
2, 45792, Note_on_c, 1, 72, 67
2, 45888, Note_on_c, 1, 72, 0
2, 45888, Note_on_c, 1, 74, 75
2, 45984, Note_on_c, 1, 74, 0
2, 45984, Note_on_c, 1, 76, 60
2, 46056, Note_on_c, 1, 76, 0
2, 46056, Note_on_c, 1, 72, 49
2, 46078, Note_on_c, 1, 72, 0
2, 46080, Note_on_c, 1, 76, 45
2, 46272, Note_on_c, 1, 76, 0
2, 46272, Note_on_c, 1, 74, 45
2, 46366, Note_on_c, 1, 74, 0
2, 46464, Note_on_c, 1, 79, 45
2, 46532, Note_on_c, 1, 79, 0
2, 46560, Note_on_c, 1, 79, 45
2, 46592, Note_on_c, 1, 79, 0
2, 46656, Note_on_c, 1, 83, 45
2, 46944, Note_on_c, 1, 83, 0
2, 46944, Note_on_c, 1, 84, 68
2, 47040, Note_on_c, 1, 84, 0
2, 47040, Note_on_c, 1, 86, 76
2, 47136, Note_on_c, 1, 86, 0
2, 47136, Note_on_c, 1, 88, 84
2, 47208, Note_on_c, 1, 88, 0
2, 47208, Note_on_c, 1, 84, 90
2, 47230, Note_on_c, 1, 84, 0
2, 47232, Note_on_c, 1, 89, 92
2, 47472, Note_on_c, 1, 89, 0
2, 47472, Note_on_c, 1, 86, 45
2, 47520, Note_on_c, 1, 86, 0
2, 47520, Note_on_c, 1, 83, 45
2, 47568, Note_on_c, 1, 83, 0
2, 47568, Note_on_c, 1, 79, 45
2, 47616, Note_on_c, 1, 79, 0
2, 47616, Note_on_c, 1, 80, 45
2, 47664, Note_on_c, 1, 80, 0
2, 47664, Note_on_c, 1, 81, 45
2, 47712, Note_on_c, 1, 81, 0
2, 47712, Note_on_c, 1, 82, 45
2, 47760, Note_on_c, 1, 82, 0
2, 47760, Note_on_c, 1, 83, 45
2, 47806, Note_on_c, 1, 83, 0
2, 47808, Note_on_c, 1, 84, 45
2, 48096, Note_on_c, 1, 84, 0
2, 48096, Note_on_c, 1, 79, 45
2, 48192, Note_on_c, 1, 79, 0
2, 48192, Note_on_c, 1, 76, 45
2, 48288, Note_on_c, 1, 76, 0
2, 48288, Note_on_c, 1, 72, 45
2, 48382, Note_on_c, 1, 72, 0
2, 48384, Note_on_c, 1, 84, 45
2, 48672, Note_on_c, 1, 84, 0
2, 48672, Note_on_c, 1, 79, 45
2, 48768, Note_on_c, 1, 79, 0
2, 48768, Note_on_c, 1, 76, 45
2, 48864, Note_on_c, 1, 76, 0
2, 48864, Note_on_c, 1, 72, 45
2, 48958, Note_on_c, 1, 72, 0
2, 48960, Note_on_c, 1, 84, 45
2, 49120, Note_on_c, 1, 84, 0
2, 49152, Note_on_c, 1, 86, 68
2, 49312, Note_on_c, 1, 86, 0
2, 49344, Note_on_c, 1, 75, 92
2, 49344, Note_on_c, 1, 87, 92
2, 49504, Note_on_c, 1, 75, 0
2, 49504, Note_on_c, 1, 87, 0
2, 49536, Note_on_c, 1, 76, 92
2, 49536, Note_on_c, 1, 88, 92
2, 49696, Note_on_c, 1, 76, 0
2, 49752, Note_on_c, 1, 88, 0
2, 49752, Note_on_c, 1, 87, 45
2, 49776, Note_on_c, 1, 87, 0
2, 49776, Note_on_c, 1, 89, 45
2, 49800, Note_on_c, 1, 89, 0
2, 49800, Note_on_c, 1, 88, 45
2, 49824, Note_on_c, 1, 88, 0
2, 49824, Note_on_c, 1, 86, 45
2, 49848, Note_on_c, 1, 86, 0
2, 49848, Note_on_c, 1, 84, 45
2, 49872, Note_on_c, 1, 84, 0
2, 49872, Note_on_c, 1, 83, 45
2, 49896, Note_on_c, 1, 83, 0
2, 49896, Note_on_c, 1, 81, 45
2, 49918, Note_on_c, 1, 81, 0
2, 49920, Note_on_c, 1, 79, 45
2, 49944, Note_on_c, 1, 79, 0
2, 49944, Note_on_c, 1, 80, 45
2, 49968, Note_on_c, 1, 80, 0
2, 49968, Note_on_c, 1, 83, 45
2, 49992, Note_on_c, 1, 83, 0
2, 49992, Note_on_c, 1, 81, 45
2, 50016, Note_on_c, 1, 81, 0
2, 50016, Note_on_c, 1, 79, 45
2, 50040, Note_on_c, 1, 79, 0
2, 50040, Note_on_c, 1, 77, 45
2, 50064, Note_on_c, 1, 77, 0
2, 50064, Note_on_c, 1, 76, 45
2, 50088, Note_on_c, 1, 76, 0
2, 50088, Note_on_c, 1, 74, 45
2, 50110, Note_on_c, 1, 74, 0
2, 50112, Note_on_c, 1, 72, 45
2, 50206, Note_on_c, 1, 72, 0
2, 50496, Note_on_c, 1, 71, 30
2, 50530, Note_on_c, 1, 71, 0
2, 50544, Note_on_c, 1, 71, 30
2, 50578, Note_on_c, 1, 71, 0
2, 50592, Note_on_c, 1, 69, 30
2, 50626, Note_on_c, 1, 69, 0
2, 50640, Note_on_c, 1, 67, 30
2, 50672, Note_on_c, 1, 67, 0
2, 50688, Note_on_c, 1, 72, 30
2, 50782, Note_on_c, 1, 72, 0
2, 51072, Note_on_c, 1, 67, 30
2, 51106, Note_on_c, 1, 67, 0
2, 51120, Note_on_c, 1, 67, 30
2, 51154, Note_on_c, 1, 67, 0
2, 51168, Note_on_c, 1, 67, 30
2, 51202, Note_on_c, 1, 67, 0
2, 51216, Note_on_c, 1, 67, 30
2, 51248, Note_on_c, 1, 67, 0
2, 51264, Note_on_c, 1, 67, 30
2, 51358, Note_on_c, 1, 67, 0
2, 51648, Note_on_c, 1, 65, 30
2, 51682, Note_on_c, 1, 65, 0
2, 51696, Note_on_c, 1, 65, 33
2, 51730, Note_on_c, 1, 65, 0
2, 51744, Note_on_c, 1, 67, 37
2, 51778, Note_on_c, 1, 67, 0
2, 51792, Note_on_c, 1, 68, 41
2, 51824, Note_on_c, 1, 68, 0
2, 51840, Note_on_c, 1, 67, 45
2, 51934, Note_on_c, 1, 67, 0
2, 52224, Note_on_c, 1, 60, 45
2, 52258, Note_on_c, 1, 60, 0
2, 52272, Note_on_c, 1, 60, 48
2, 52306, Note_on_c, 1, 60, 0
2, 52320, Note_on_c, 1, 60, 52
2, 52354, Note_on_c, 1, 60, 0
2, 52368, Note_on_c, 1, 60, 56
2, 52400, Note_on_c, 1, 60, 0
2, 52416, Note_on_c, 1, 60, 45
2, 52510, Note_on_c, 1, 60, 0
2, 52800, Note_on_c, 1, 60, 30
2, 52966, Note_on_c, 1, 60, 0
2, 52968, Note_on_c, 1, 60, 30
2, 52990, Note_on_c, 1, 60, 0
2, 52992, Note_on_c, 1, 60, 30
2, 53712, Note_on_c, 1, 60, 0
2, 53760, Control_c, 1, 7, 0
2, 53760, Note_on_c, 1, 71, 60
2, 54480, Note_on_c, 1, 71, 0
2, 54480, End_track
3, 0, Start_track
3, 0, MIDI_port, 0
3, 0, Title_t, "Violino II."
3, 0, Program_c, 2, 0
3, 0, Control_c, 2, 7, 127
3, 0, Control_c, 2, 10, 64
3, 192, Note_on_c, 2, 67, 45
3, 480, Note_on_c, 2, 67, 0
3, 480, Note_on_c, 2, 64, 45
3, 576, Note_on_c, 2, 64, 0
3, 576, Note_on_c, 2, 60, 45
3, 672, Note_on_c, 2, 60, 0
3, 672, Note_on_c, 2, 55, 45
3, 766, Note_on_c, 2, 55, 0
3, 768, Note_on_c, 2, 55, 45
3, 1104, Note_on_c, 2, 55, 0
3, 1152, Note_on_c, 2, 55, 45
3, 1312, Note_on_c, 2, 55, 0
3, 1344, Note_on_c, 2, 60, 45
3, 1536, Note_on_c, 2, 60, 0
3, 1536, Note_on_c, 2, 59, 45
3, 1630, Note_on_c, 2, 59, 0
3, 1920, Note_on_c, 2, 62, 45
3, 2176, Note_on_c, 2, 62, 0
3, 2208, Note_on_c, 2, 65, 60
3, 2302, Note_on_c, 2, 65, 0
3, 2304, Note_on_c, 2, 65, 65
3, 2400, Note_on_c, 2, 65, 0
3, 2400, Note_on_c, 2, 64, 70
3, 2494, Note_on_c, 2, 64, 0
3, 2496, Note_on_c, 2, 57, 60
3, 2880, Note_on_c, 2, 57, 0
3, 2880, Note_on_c, 2, 59, 45
3, 3040, Note_on_c, 2, 59, 0
3, 3072, Note_on_c, 2, 59, 45
3, 3264, Note_on_c, 2, 59, 0
3, 3264, Note_on_c, 2, 55, 45
3, 3358, Note_on_c, 2, 55, 0
3, 3648, Note_on_c, 2, 55, 45
3, 3648, Note_on_c, 2, 64, 45
3, 3904, Note_on_c, 2, 55, 0
3, 3904, Note_on_c, 2, 64, 0
3, 4224, Note_on_c, 2, 64, 45
3, 4320, Note_on_c, 2, 64, 0
3, 4320, Note_on_c, 2, 67, 45
3, 4416, Note_on_c, 2, 67, 0
3, 4416, Note_on_c, 2, 62, 45
3, 4510, Note_on_c, 2, 62, 0
3, 4800, Note_on_c, 2, 55, 45
3, 4800, Note_on_c, 2, 64, 45
3, 5056, Note_on_c, 2, 55, 0
3, 5056, Note_on_c, 2, 64, 0
3, 5376, Note_on_c, 2, 64, 45
3, 5472, Note_on_c, 2, 64, 0
3, 5472, Note_on_c, 2, 67, 45
3, 5568, Note_on_c, 2, 67, 0
3, 5568, Note_on_c, 2, 62, 45
3, 5662, Note_on_c, 2, 62, 0
3, 5952, Note_on_c, 2, 66, 45
3, 6048, Note_on_c, 2, 66, 0
3, 6048, Note_on_c, 2, 69, 60
3, 6120, Note_on_c, 2, 69, 0
3, 6120, Note_on_c, 2, 66, 45
3, 6142, Note_on_c, 2, 66, 0
3, 6144, Note_on_c, 2, 71, 45
3, 6238, Note_on_c, 2, 71, 0
3, 6528, Note_on_c, 2, 66, 45
3, 6624, Note_on_c, 2, 66, 0
3, 6624, Note_on_c, 2, 69, 60
3, 6696, Note_on_c, 2, 69, 0
3, 6696, Note_on_c, 2, 66, 45
3, 6718, Note_on_c, 2, 66, 0
3, 6720, Note_on_c, 2, 71, 45
3, 6814, Note_on_c, 2, 71, 0
3, 6816, Note_on_c, 2, 62, 45
3, 7008, Note_on_c, 2, 62, 0
3, 7008, Note_on_c, 2, 63, 45
3, 7102, Note_on_c, 2, 63, 0
3, 7104, Note_on_c, 2, 64, 45
3, 7248, Note_on_c, 2, 64, 0
3, 7248, Note_on_c, 2, 67, 67
3, 7294, Note_on_c, 2, 67, 0
3, 7296, Note_on_c, 2, 67, 45
3, 7390, Note_on_c, 2, 67, 0
3, 7392, Note_on_c, 2, 62, 45
3, 7488, Note_on_c, 2, 62, 0
3, 7488, Note_on_c, 2, 60, 45
3, 7582, Note_on_c, 2, 60, 0
3, 7584, Note_on_c, 2, 60, 45
3, 7678, Note_on_c, 2, 60, 0
3, 7680, Note_on_c, 2, 60, 45
3, 7824, Note_on_c, 2, 60, 0
3, 7824, Note_on_c, 2, 62, 45
3, 7848, Note_on_c, 2, 62, 0
3, 7848, Note_on_c, 2, 60, 45
3, 7870, Note_on_c, 2, 60, 0
3, 7872, Note_on_c, 2, 59, 45
3, 7966, Note_on_c, 2, 59, 0
3, 8256, Note_on_c, 2, 67, 45
3, 8512, Note_on_c, 2, 67, 0
3, 8544, Note_on_c, 2, 67, 54
3, 8638, Note_on_c, 2, 67, 0
3, 8640, Note_on_c, 2, 67, 57
3, 8734, Note_on_c, 2, 67, 0
3, 8736, Note_on_c, 2, 67, 60
3, 8806, Note_on_c, 2, 67, 0
3, 8832, Note_on_c, 2, 72, 45
3, 9024, Note_on_c, 2, 72, 0
3, 9024, Note_on_c, 2, 71, 45
3, 9118, Note_on_c, 2, 71, 0
3, 9216, Note_on_c, 2, 67, 45
3, 9284, Note_on_c, 2, 67, 0
3, 9312, Note_on_c, 2, 67, 45
3, 9344, Note_on_c, 2, 67, 0
3, 9408, Note_on_c, 2, 71, 45
3, 9664, Note_on_c, 2, 71, 0
3, 9696, Note_on_c, 2, 72, 68
3, 9792, Note_on_c, 2, 72, 0
3, 9792, Note_on_c, 2, 74, 76
3, 9888, Note_on_c, 2, 74, 0
3, 9888, Note_on_c, 2, 76, 84
3, 9960, Note_on_c, 2, 76, 0
3, 9960, Note_on_c, 2, 72, 90
3, 9982, Note_on_c, 2, 72, 0
3, 9984, Note_on_c, 2, 77, 92
3, 10222, Note_on_c, 2, 77, 0
3, 10224, Note_on_c, 2, 74, 45
3, 10272, Note_on_c, 2, 74, 0
3, 10272, Note_on_c, 2, 71, 45
3, 10320, Note_on_c, 2, 71, 0
3, 10320, Note_on_c, 2, 67, 45
3, 10368, Note_on_c, 2, 67, 0
3, 10368, Note_on_c, 2, 68, 45
3, 10416, Note_on_c, 2, 68, 0
3, 10416, Note_on_c, 2, 69, 45
3, 10464, Note_on_c, 2, 69, 0
3, 10464, Note_on_c, 2, 70, 45
3, 10512, Note_on_c, 2, 70, 0
3, 10512, Note_on_c, 2, 71, 45
3, 10558, Note_on_c, 2, 71, 0
3, 10560, Note_on_c, 2, 72, 45
3, 10654, Note_on_c, 2, 72, 0
3, 10656, Note_on_c, 2, 55, 45
3, 10656, Note_on_c, 2, 64, 45
3, 10816, Note_on_c, 2, 55, 0
3, 10816, Note_on_c, 2, 64, 0
3, 10848, Note_on_c, 2, 55, 45
3, 10848, Note_on_c, 2, 64, 45
3, 10916, Note_on_c, 2, 55, 0
3, 10916, Note_on_c, 2, 64, 0
3, 10944, Note_on_c, 2, 55, 45
3, 10944, Note_on_c, 2, 64, 45
3, 11012, Note_on_c, 2, 55, 0
3, 11012, Note_on_c, 2, 64, 0
3, 11040, Note_on_c, 2, 55, 45
3, 11040, Note_on_c, 2, 64, 45
3, 11072, Note_on_c, 2, 55, 0
3, 11072, Note_on_c, 2, 64, 0
3, 11232, Note_on_c, 2, 55, 45
3, 11232, Note_on_c, 2, 64, 45
3, 11392, Note_on_c, 2, 55, 0
3, 11392, Note_on_c, 2, 64, 0
3, 11424, Note_on_c, 2, 55, 45
3, 11424, Note_on_c, 2, 64, 45
3, 11492, Note_on_c, 2, 55, 0
3, 11492, Note_on_c, 2, 64, 0
3, 11520, Note_on_c, 2, 55, 45
3, 11520, Note_on_c, 2, 64, 45
3, 11588, Note_on_c, 2, 55, 0
3, 11588, Note_on_c, 2, 64, 0
3, 11616, Note_on_c, 2, 55, 45
3, 11616, Note_on_c, 2, 64, 45
3, 11648, Note_on_c, 2, 55, 0
3, 11648, Note_on_c, 2, 64, 0
3, 11712, Note_on_c, 2, 65, 45
3, 11872, Note_on_c, 2, 65, 0
3, 11904, Note_on_c, 2, 65, 68
3, 12064, Note_on_c, 2, 65, 0
3, 12096, Note_on_c, 2, 66, 92
3, 12256, Note_on_c, 2, 66, 0
3, 12288, Note_on_c, 2, 55, 92
3, 12288, Note_on_c, 2, 67, 92
3, 12382, Note_on_c, 2, 55, 0
3, 12382, Note_on_c, 2, 67, 0
3, 12384, Note_on_c, 2, 55, 45
3, 12480, Note_on_c, 2, 55, 0
3, 12480, Note_on_c, 2, 60, 45
3, 12576, Note_on_c, 2, 60, 0
3, 12576, Note_on_c, 2, 64, 45
3, 12672, Note_on_c, 2, 64, 0
3, 12672, Note_on_c, 2, 65, 45
3, 12768, Note_on_c, 2, 65, 0
3, 12768, Note_on_c, 2, 59, 45
3, 12862, Note_on_c, 2, 59, 0
3, 12864, Note_on_c, 2, 60, 45
3, 12958, Note_on_c, 2, 60, 0
3, 13248, Note_on_c, 2, 62, 30
3, 13282, Note_on_c, 2, 62, 0
3, 13296, Note_on_c, 2, 62, 30
3, 13330, Note_on_c, 2, 62, 0
3, 13344, Note_on_c, 2, 60, 30
3, 13378, Note_on_c, 2, 60, 0
3, 13392, Note_on_c, 2, 59, 30
3, 13424, Note_on_c, 2, 59, 0
3, 13440, Note_on_c, 2, 60, 30
3, 13534, Note_on_c, 2, 60, 0
3, 13824, Note_on_c, 2, 55, 30
3, 13824, Note_on_c, 2, 65, 30
3, 13858, Note_on_c, 2, 55, 0
3, 13858, Note_on_c, 2, 65, 0
3, 13872, Note_on_c, 2, 55, 30
3, 13872, Note_on_c, 2, 65, 30
3, 13906, Note_on_c, 2, 55, 0
3, 13906, Note_on_c, 2, 65, 0
3, 13920, Note_on_c, 2, 55, 30
3, 13920, Note_on_c, 2, 65, 30
3, 13954, Note_on_c, 2, 55, 0
3, 13954, Note_on_c, 2, 65, 0
3, 13968, Note_on_c, 2, 55, 30
3, 13968, Note_on_c, 2, 65, 30
3, 14000, Note_on_c, 2, 55, 0
3, 14000, Note_on_c, 2, 65, 0
3, 14016, Note_on_c, 2, 55, 30
3, 14016, Note_on_c, 2, 64, 30
3, 14110, Note_on_c, 2, 55, 0
3, 14110, Note_on_c, 2, 64, 0
3, 14400, Note_on_c, 2, 60, 30
3, 14494, Note_on_c, 2, 60, 0
3, 14592, Note_on_c, 2, 55, 30
3, 14686, Note_on_c, 2, 55, 0
3, 15936, Note_on_c, 2, 60, 60
3, 16414, Note_on_c, 2, 60, 0
3, 16704, Note_on_c, 2, 60, 45
3, 17182, Note_on_c, 2, 60, 0
3, 17280, Note_on_c, 2, 69, 45
3, 17312, Note_on_c, 2, 69, 0
3, 17328, Note_on_c, 2, 69, 45
3, 17376, Note_on_c, 2, 69, 0
3, 17376, Note_on_c, 2, 67, 45
3, 17424, Note_on_c, 2, 67, 0
3, 17424, Note_on_c, 2, 65, 45
3, 17470, Note_on_c, 2, 65, 0
3, 17472, Note_on_c, 2, 64, 45
3, 17504, Note_on_c, 2, 64, 0
3, 17520, Note_on_c, 2, 64, 45
3, 17568, Note_on_c, 2, 64, 0
3, 17568, Note_on_c, 2, 65, 45
3, 17616, Note_on_c, 2, 65, 0
3, 17616, Note_on_c, 2, 67, 45
3, 17662, Note_on_c, 2, 67, 0
3, 17664, Note_on_c, 2, 65, 45
3, 17696, Note_on_c, 2, 65, 0
3, 17712, Note_on_c, 2, 65, 45
3, 17760, Note_on_c, 2, 65, 0
3, 17760, Note_on_c, 2, 64, 45
3, 17808, Note_on_c, 2, 64, 0
3, 17808, Note_on_c, 2, 62, 45
3, 17854, Note_on_c, 2, 62, 0
3, 17904, Note_on_c, 2, 60, 45
3, 17952, Note_on_c, 2, 60, 0
3, 17952, Note_on_c, 2, 62, 45
3, 18000, Note_on_c, 2, 62, 0
3, 18000, Note_on_c, 2, 64, 45
3, 18046, Note_on_c, 2, 64, 0
3, 18048, Note_on_c, 2, 62, 92
3, 18080, Note_on_c, 2, 62, 0
3, 18096, Note_on_c, 2, 62, 92
3, 18144, Note_on_c, 2, 62, 0
3, 18144, Note_on_c, 2, 64, 92
3, 18192, Note_on_c, 2, 64, 0
3, 18192, Note_on_c, 2, 65, 92
3, 18238, Note_on_c, 2, 65, 0
3, 18240, Note_on_c, 2, 64, 92
3, 18272, Note_on_c, 2, 64, 0
3, 18288, Note_on_c, 2, 64, 92
3, 18336, Note_on_c, 2, 64, 0
3, 18336, Note_on_c, 2, 62, 92
3, 18384, Note_on_c, 2, 62, 0
3, 18384, Note_on_c, 2, 60, 108
3, 18430, Note_on_c, 2, 60, 0
3, 18432, Note_on_c, 2, 65, 92
3, 18478, Note_on_c, 2, 65, 0
3, 18480, Note_on_c, 2, 65, 92
3, 18526, Note_on_c, 2, 65, 0
3, 18528, Note_on_c, 2, 65, 92
3, 18574, Note_on_c, 2, 65, 0
3, 18576, Note_on_c, 2, 65, 92
3, 18622, Note_on_c, 2, 65, 0
3, 18624, Note_on_c, 2, 64, 92
3, 18784, Note_on_c, 2, 64, 0
3, 19008, Note_on_c, 2, 60, 60
3, 19486, Note_on_c, 2, 60, 0
3, 19776, Note_on_c, 2, 60, 45
3, 20254, Note_on_c, 2, 60, 0
3, 20352, Note_on_c, 2, 69, 45
3, 20384, Note_on_c, 2, 69, 0
3, 20400, Note_on_c, 2, 69, 45
3, 20448, Note_on_c, 2, 69, 0
3, 20448, Note_on_c, 2, 67, 45
3, 20496, Note_on_c, 2, 67, 0
3, 20496, Note_on_c, 2, 65, 45
3, 20542, Note_on_c, 2, 65, 0
3, 20544, Note_on_c, 2, 64, 45
3, 20576, Note_on_c, 2, 64, 0
3, 20592, Note_on_c, 2, 64, 45
3, 20640, Note_on_c, 2, 64, 0
3, 20640, Note_on_c, 2, 65, 45
3, 20688, Note_on_c, 2, 65, 0
3, 20688, Note_on_c, 2, 67, 45
3, 20734, Note_on_c, 2, 67, 0
3, 20736, Note_on_c, 2, 65, 45
3, 20768, Note_on_c, 2, 65, 0
3, 20784, Note_on_c, 2, 65, 45
3, 20832, Note_on_c, 2, 65, 0
3, 20832, Note_on_c, 2, 64, 45
3, 20880, Note_on_c, 2, 64, 0
3, 20880, Note_on_c, 2, 62, 45
3, 20926, Note_on_c, 2, 62, 0
3, 20976, Note_on_c, 2, 60, 45
3, 21024, Note_on_c, 2, 60, 0
3, 21024, Note_on_c, 2, 62, 45
3, 21072, Note_on_c, 2, 62, 0
3, 21072, Note_on_c, 2, 64, 45
3, 21118, Note_on_c, 2, 64, 0
3, 21120, Note_on_c, 2, 62, 92
3, 21152, Note_on_c, 2, 62, 0
3, 21168, Note_on_c, 2, 62, 92
3, 21216, Note_on_c, 2, 62, 0
3, 21216, Note_on_c, 2, 64, 92
3, 21264, Note_on_c, 2, 64, 0
3, 21264, Note_on_c, 2, 65, 92
3, 21310, Note_on_c, 2, 65, 0
3, 21312, Note_on_c, 2, 64, 92
3, 21344, Note_on_c, 2, 64, 0
3, 21360, Note_on_c, 2, 64, 92
3, 21408, Note_on_c, 2, 64, 0
3, 21408, Note_on_c, 2, 62, 92
3, 21456, Note_on_c, 2, 62, 0
3, 21456, Note_on_c, 2, 60, 108
3, 21502, Note_on_c, 2, 60, 0
3, 21504, Note_on_c, 2, 65, 92
3, 21550, Note_on_c, 2, 65, 0
3, 21552, Note_on_c, 2, 65, 92
3, 21598, Note_on_c, 2, 65, 0
3, 21600, Note_on_c, 2, 65, 92
3, 21646, Note_on_c, 2, 65, 0
3, 21648, Note_on_c, 2, 65, 92
3, 21694, Note_on_c, 2, 65, 0
3, 21696, Note_on_c, 2, 64, 92
3, 21856, Note_on_c, 2, 64, 0
3, 21888, Note_on_c, 2, 75, 45
3, 21920, Note_on_c, 2, 75, 0
3, 21936, Note_on_c, 2, 75, 45
3, 21984, Note_on_c, 2, 75, 0
3, 21984, Note_on_c, 2, 74, 45
3, 22032, Note_on_c, 2, 74, 0
3, 22032, Note_on_c, 2, 72, 45
3, 22078, Note_on_c, 2, 72, 0
3, 22080, Note_on_c, 2, 72, 45
3, 22112, Note_on_c, 2, 72, 0
3, 22128, Note_on_c, 2, 72, 45
3, 22176, Note_on_c, 2, 72, 0
3, 22176, Note_on_c, 2, 70, 45
3, 22224, Note_on_c, 2, 70, 0
3, 22224, Note_on_c, 2, 69, 45
3, 22270, Note_on_c, 2, 69, 0
3, 22272, Note_on_c, 2, 69, 60
3, 22304, Note_on_c, 2, 69, 0
3, 22320, Note_on_c, 2, 69, 60
3, 22368, Note_on_c, 2, 69, 0
3, 22368, Note_on_c, 2, 70, 60
3, 22416, Note_on_c, 2, 70, 0
3, 22416, Note_on_c, 2, 72, 45
3, 22462, Note_on_c, 2, 72, 0
3, 22464, Note_on_c, 2, 74, 45
3, 22558, Note_on_c, 2, 74, 0
3, 22656, Note_on_c, 2, 74, 45
3, 22688, Note_on_c, 2, 74, 0
3, 22704, Note_on_c, 2, 74, 45
3, 22752, Note_on_c, 2, 74, 0
3, 22752, Note_on_c, 2, 72, 45
3, 22800, Note_on_c, 2, 72, 0
3, 22800, Note_on_c, 2, 70, 45
3, 22846, Note_on_c, 2, 70, 0
3, 22848, Note_on_c, 2, 70, 45
3, 22880, Note_on_c, 2, 70, 0
3, 22896, Note_on_c, 2, 70, 45
3, 22944, Note_on_c, 2, 70, 0
3, 22944, Note_on_c, 2, 69, 45
3, 22992, Note_on_c, 2, 69, 0
3, 22992, Note_on_c, 2, 67, 45
3, 23038, Note_on_c, 2, 67, 0
3, 23040, Note_on_c, 2, 67, 60
3, 23072, Note_on_c, 2, 67, 0
3, 23088, Note_on_c, 2, 67, 60
3, 23136, Note_on_c, 2, 67, 0
3, 23136, Note_on_c, 2, 69, 60
3, 23184, Note_on_c, 2, 69, 0
3, 23184, Note_on_c, 2, 70, 45
3, 23230, Note_on_c, 2, 70, 0
3, 23232, Note_on_c, 2, 72, 45
3, 23326, Note_on_c, 2, 72, 0
3, 23424, Note_on_c, 2, 69, 45
3, 23456, Note_on_c, 2, 69, 0
3, 23472, Note_on_c, 2, 69, 46
3, 23520, Note_on_c, 2, 69, 0
3, 23520, Note_on_c, 2, 67, 47
3, 23568, Note_on_c, 2, 67, 0
3, 23568, Note_on_c, 2, 65, 48
3, 23614, Note_on_c, 2, 65, 0
3, 23616, Note_on_c, 2, 70, 49
3, 23648, Note_on_c, 2, 70, 0
3, 23664, Note_on_c, 2, 70, 50
3, 23712, Note_on_c, 2, 70, 0
3, 23712, Note_on_c, 2, 69, 51
3, 23760, Note_on_c, 2, 69, 0
3, 23760, Note_on_c, 2, 67, 52
3, 23806, Note_on_c, 2, 67, 0
3, 23808, Note_on_c, 2, 69, 53
3, 23840, Note_on_c, 2, 69, 0
3, 23856, Note_on_c, 2, 69, 54
3, 23904, Note_on_c, 2, 69, 0
3, 23904, Note_on_c, 2, 67, 56
3, 23952, Note_on_c, 2, 67, 0
3, 23952, Note_on_c, 2, 65, 58
3, 23998, Note_on_c, 2, 65, 0
3, 24000, Note_on_c, 2, 64, 60
3, 24032, Note_on_c, 2, 64, 0
3, 24048, Note_on_c, 2, 64, 62
3, 24096, Note_on_c, 2, 64, 0
3, 24096, Note_on_c, 2, 62, 64
3, 24144, Note_on_c, 2, 62, 0
3, 24144, Note_on_c, 2, 60, 66
3, 24190, Note_on_c, 2, 60, 0
3, 24192, Note_on_c, 2, 69, 68
3, 24224, Note_on_c, 2, 69, 0
3, 24240, Note_on_c, 2, 69, 70
3, 24288, Note_on_c, 2, 69, 0
3, 24288, Note_on_c, 2, 67, 72
3, 24336, Note_on_c, 2, 67, 0
3, 24336, Note_on_c, 2, 65, 74
3, 24382, Note_on_c, 2, 65, 0
3, 24384, Note_on_c, 2, 70, 76
3, 24416, Note_on_c, 2, 70, 0
3, 24432, Note_on_c, 2, 70, 78
3, 24480, Note_on_c, 2, 70, 0
3, 24480, Note_on_c, 2, 69, 80
3, 24528, Note_on_c, 2, 69, 0
3, 24528, Note_on_c, 2, 67, 82
3, 24574, Note_on_c, 2, 67, 0
3, 24576, Note_on_c, 2, 69, 84
3, 24608, Note_on_c, 2, 69, 0
3, 24624, Note_on_c, 2, 69, 86
3, 24672, Note_on_c, 2, 69, 0
3, 24672, Note_on_c, 2, 67, 88
3, 24720, Note_on_c, 2, 67, 0
3, 24720, Note_on_c, 2, 65, 90
3, 24766, Note_on_c, 2, 65, 0
3, 24768, Note_on_c, 2, 72, 92
3, 24928, Note_on_c, 2, 72, 0
3, 24960, Note_on_c, 2, 72, 45
3, 24992, Note_on_c, 2, 72, 0
3, 25008, Note_on_c, 2, 72, 45
3, 25056, Note_on_c, 2, 72, 0
3, 25056, Note_on_c, 2, 70, 45
3, 25104, Note_on_c, 2, 70, 0
3, 25104, Note_on_c, 2, 69, 45
3, 25150, Note_on_c, 2, 69, 0
3, 25152, Note_on_c, 2, 69, 45
3, 25184, Note_on_c, 2, 69, 0
3, 25200, Note_on_c, 2, 69, 45
3, 25248, Note_on_c, 2, 69, 0
3, 25248, Note_on_c, 2, 67, 45
3, 25296, Note_on_c, 2, 67, 0
3, 25296, Note_on_c, 2, 65, 45
3, 25342, Note_on_c, 2, 65, 0
3, 25344, Note_on_c, 2, 65, 45
3, 25376, Note_on_c, 2, 65, 0
3, 25392, Note_on_c, 2, 65, 45
3, 25440, Note_on_c, 2, 65, 0
3, 25440, Note_on_c, 2, 64, 45
3, 25486, Note_on_c, 2, 64, 0
3, 25488, Note_on_c, 2, 65, 45
3, 25520, Note_on_c, 2, 65, 0
3, 25536, Note_on_c, 2, 66, 45
3, 25584, Note_on_c, 2, 66, 0
3, 25584, Note_on_c, 2, 67, 45
3, 25630, Note_on_c, 2, 67, 0
3, 25632, Note_on_c, 2, 67, 45
3, 25664, Note_on_c, 2, 67, 0
3, 25680, Note_on_c, 2, 67, 45
3, 25712, Note_on_c, 2, 67, 0
3, 25728, Note_on_c, 2, 74, 45
3, 25760, Note_on_c, 2, 74, 0
3, 25776, Note_on_c, 2, 74, 45
3, 25824, Note_on_c, 2, 74, 0
3, 25824, Note_on_c, 2, 72, 45
3, 25872, Note_on_c, 2, 72, 0
3, 25872, Note_on_c, 2, 70, 45
3, 25918, Note_on_c, 2, 70, 0
3, 25920, Note_on_c, 2, 70, 45
3, 25952, Note_on_c, 2, 70, 0
3, 25968, Note_on_c, 2, 70, 45
3, 26016, Note_on_c, 2, 70, 0
3, 26016, Note_on_c, 2, 69, 45
3, 26064, Note_on_c, 2, 69, 0
3, 26064, Note_on_c, 2, 67, 45
3, 26110, Note_on_c, 2, 67, 0
3, 26112, Note_on_c, 2, 67, 45
3, 26144, Note_on_c, 2, 67, 0
3, 26160, Note_on_c, 2, 67, 45
3, 26208, Note_on_c, 2, 67, 0
3, 26208, Note_on_c, 2, 65, 45
3, 26254, Note_on_c, 2, 65, 0
3, 26256, Note_on_c, 2, 67, 45
3, 26288, Note_on_c, 2, 67, 0
3, 26304, Note_on_c, 2, 69, 45
3, 26336, Note_on_c, 2, 69, 0
3, 26352, Note_on_c, 2, 65, 45
3, 26400, Note_on_c, 2, 65, 0
3, 26400, Note_on_c, 2, 64, 45
3, 26448, Note_on_c, 2, 64, 0
3, 26448, Note_on_c, 2, 63, 45
3, 26494, Note_on_c, 2, 63, 0
3, 26496, Note_on_c, 2, 62, 45
3, 26528, Note_on_c, 2, 62, 0
3, 26544, Note_on_c, 2, 74, 45
3, 26592, Note_on_c, 2, 74, 0
3, 26592, Note_on_c, 2, 72, 45
3, 26640, Note_on_c, 2, 72, 0
3, 26640, Note_on_c, 2, 70, 45
3, 26686, Note_on_c, 2, 70, 0
3, 26688, Note_on_c, 2, 69, 45
3, 26720, Note_on_c, 2, 69, 0
3, 26736, Note_on_c, 2, 69, 45
3, 26784, Note_on_c, 2, 69, 0
3, 26784, Note_on_c, 2, 70, 45
3, 26832, Note_on_c, 2, 70, 0
3, 26832, Note_on_c, 2, 72, 45
3, 26878, Note_on_c, 2, 72, 0
3, 26880, Note_on_c, 2, 70, 45
3, 26912, Note_on_c, 2, 70, 0
3, 26928, Note_on_c, 2, 70, 45
3, 26976, Note_on_c, 2, 70, 0
3, 26976, Note_on_c, 2, 69, 45
3, 27024, Note_on_c, 2, 69, 0
3, 27024, Note_on_c, 2, 67, 45
3, 27070, Note_on_c, 2, 67, 0
3, 27072, Note_on_c, 2, 65, 60
3, 27104, Note_on_c, 2, 65, 0
3, 27120, Note_on_c, 2, 65, 60
3, 27168, Note_on_c, 2, 65, 0
3, 27168, Note_on_c, 2, 67, 45
3, 27216, Note_on_c, 2, 67, 0
3, 27216, Note_on_c, 2, 69, 45
3, 27262, Note_on_c, 2, 69, 0
3, 27264, Note_on_c, 2, 70, 92
3, 27296, Note_on_c, 2, 70, 0
3, 27312, Note_on_c, 2, 67, 92
3, 27360, Note_on_c, 2, 67, 0
3, 27360, Note_on_c, 2, 69, 92
3, 27408, Note_on_c, 2, 69, 0
3, 27408, Note_on_c, 2, 70, 92
3, 27454, Note_on_c, 2, 70, 0
3, 27456, Note_on_c, 2, 69, 92
3, 27488, Note_on_c, 2, 69, 0
3, 27504, Note_on_c, 2, 69, 92
3, 27552, Note_on_c, 2, 69, 0
3, 27552, Note_on_c, 2, 67, 92
3, 27600, Note_on_c, 2, 67, 0
3, 27600, Note_on_c, 2, 65, 92
3, 27646, Note_on_c, 2, 65, 0
3, 27648, Note_on_c, 2, 70, 92
3, 27694, Note_on_c, 2, 70, 0
3, 27696, Note_on_c, 2, 70, 92
3, 27742, Note_on_c, 2, 70, 0
3, 27744, Note_on_c, 2, 70, 92
3, 27790, Note_on_c, 2, 70, 0
3, 27792, Note_on_c, 2, 70, 92
3, 27838, Note_on_c, 2, 70, 0
3, 27840, Note_on_c, 2, 69, 92
3, 28000, Note_on_c, 2, 69, 0
3, 28032, Note_on_c, 2, 75, 45
3, 28064, Note_on_c, 2, 75, 0
3, 28080, Note_on_c, 2, 75, 45
3, 28128, Note_on_c, 2, 75, 0
3, 28128, Note_on_c, 2, 74, 45
3, 28176, Note_on_c, 2, 74, 0
3, 28176, Note_on_c, 2, 72, 45
3, 28222, Note_on_c, 2, 72, 0
3, 28224, Note_on_c, 2, 72, 45
3, 28256, Note_on_c, 2, 72, 0
3, 28272, Note_on_c, 2, 72, 45
3, 28320, Note_on_c, 2, 72, 0
3, 28320, Note_on_c, 2, 70, 45
3, 28368, Note_on_c, 2, 70, 0
3, 28368, Note_on_c, 2, 69, 45
3, 28414, Note_on_c, 2, 69, 0
3, 28416, Note_on_c, 2, 69, 60
3, 28448, Note_on_c, 2, 69, 0
3, 28464, Note_on_c, 2, 69, 60
3, 28512, Note_on_c, 2, 69, 0
3, 28512, Note_on_c, 2, 70, 60
3, 28560, Note_on_c, 2, 70, 0
3, 28560, Note_on_c, 2, 72, 45
3, 28606, Note_on_c, 2, 72, 0
3, 28608, Note_on_c, 2, 74, 45
3, 28702, Note_on_c, 2, 74, 0
3, 28800, Note_on_c, 2, 74, 45
3, 28832, Note_on_c, 2, 74, 0
3, 28848, Note_on_c, 2, 74, 45
3, 28896, Note_on_c, 2, 74, 0
3, 28896, Note_on_c, 2, 72, 45
3, 28944, Note_on_c, 2, 72, 0
3, 28944, Note_on_c, 2, 70, 45
3, 28990, Note_on_c, 2, 70, 0
3, 28992, Note_on_c, 2, 70, 45
3, 29024, Note_on_c, 2, 70, 0
3, 29040, Note_on_c, 2, 70, 45
3, 29088, Note_on_c, 2, 70, 0
3, 29088, Note_on_c, 2, 69, 45
3, 29136, Note_on_c, 2, 69, 0
3, 29136, Note_on_c, 2, 67, 45
3, 29182, Note_on_c, 2, 67, 0
3, 29184, Note_on_c, 2, 67, 60
3, 29216, Note_on_c, 2, 67, 0
3, 29232, Note_on_c, 2, 67, 60
3, 29280, Note_on_c, 2, 67, 0
3, 29280, Note_on_c, 2, 69, 60
3, 29328, Note_on_c, 2, 69, 0
3, 29328, Note_on_c, 2, 70, 45
3, 29374, Note_on_c, 2, 70, 0
3, 29376, Note_on_c, 2, 72, 45
3, 29470, Note_on_c, 2, 72, 0
3, 29568, Note_on_c, 2, 69, 45
3, 29600, Note_on_c, 2, 69, 0
3, 29616, Note_on_c, 2, 69, 46
3, 29664, Note_on_c, 2, 69, 0
3, 29664, Note_on_c, 2, 67, 47
3, 29712, Note_on_c, 2, 67, 0
3, 29712, Note_on_c, 2, 65, 48
3, 29758, Note_on_c, 2, 65, 0
3, 29760, Note_on_c, 2, 70, 49
3, 29792, Note_on_c, 2, 70, 0
3, 29808, Note_on_c, 2, 70, 50
3, 29856, Note_on_c, 2, 70, 0
3, 29856, Note_on_c, 2, 69, 51
3, 29904, Note_on_c, 2, 69, 0
3, 29904, Note_on_c, 2, 67, 52
3, 29950, Note_on_c, 2, 67, 0
3, 29952, Note_on_c, 2, 69, 53
3, 29984, Note_on_c, 2, 69, 0
3, 30000, Note_on_c, 2, 69, 54
3, 30048, Note_on_c, 2, 69, 0
3, 30048, Note_on_c, 2, 67, 56
3, 30096, Note_on_c, 2, 67, 0
3, 30096, Note_on_c, 2, 65, 58
3, 30142, Note_on_c, 2, 65, 0
3, 30144, Note_on_c, 2, 64, 60
3, 30176, Note_on_c, 2, 64, 0
3, 30192, Note_on_c, 2, 64, 62
3, 30240, Note_on_c, 2, 64, 0
3, 30240, Note_on_c, 2, 62, 64
3, 30288, Note_on_c, 2, 62, 0
3, 30288, Note_on_c, 2, 60, 66
3, 30334, Note_on_c, 2, 60, 0
3, 30336, Note_on_c, 2, 69, 68
3, 30368, Note_on_c, 2, 69, 0
3, 30384, Note_on_c, 2, 69, 70
3, 30432, Note_on_c, 2, 69, 0
3, 30432, Note_on_c, 2, 67, 72
3, 30480, Note_on_c, 2, 67, 0
3, 30480, Note_on_c, 2, 65, 74
3, 30526, Note_on_c, 2, 65, 0
3, 30528, Note_on_c, 2, 70, 76
3, 30560, Note_on_c, 2, 70, 0
3, 30576, Note_on_c, 2, 70, 78
3, 30624, Note_on_c, 2, 70, 0
3, 30624, Note_on_c, 2, 69, 80
3, 30672, Note_on_c, 2, 69, 0
3, 30672, Note_on_c, 2, 67, 82
3, 30718, Note_on_c, 2, 67, 0
3, 30720, Note_on_c, 2, 69, 84
3, 30752, Note_on_c, 2, 69, 0
3, 30768, Note_on_c, 2, 69, 86
3, 30816, Note_on_c, 2, 69, 0
3, 30816, Note_on_c, 2, 67, 88
3, 30864, Note_on_c, 2, 67, 0
3, 30864, Note_on_c, 2, 65, 90
3, 30910, Note_on_c, 2, 65, 0
3, 30912, Note_on_c, 2, 72, 92
3, 31072, Note_on_c, 2, 72, 0
3, 31104, Note_on_c, 2, 72, 45
3, 31136, Note_on_c, 2, 72, 0
3, 31152, Note_on_c, 2, 72, 45
3, 31200, Note_on_c, 2, 72, 0
3, 31200, Note_on_c, 2, 70, 45
3, 31248, Note_on_c, 2, 70, 0
3, 31248, Note_on_c, 2, 69, 45
3, 31294, Note_on_c, 2, 69, 0
3, 31296, Note_on_c, 2, 69, 45
3, 31328, Note_on_c, 2, 69, 0
3, 31344, Note_on_c, 2, 69, 45
3, 31392, Note_on_c, 2, 69, 0
3, 31392, Note_on_c, 2, 67, 45
3, 31440, Note_on_c, 2, 67, 0
3, 31440, Note_on_c, 2, 65, 45
3, 31486, Note_on_c, 2, 65, 0
3, 31488, Note_on_c, 2, 65, 45
3, 31520, Note_on_c, 2, 65, 0
3, 31536, Note_on_c, 2, 65, 45
3, 31584, Note_on_c, 2, 65, 0
3, 31584, Note_on_c, 2, 64, 45
3, 31630, Note_on_c, 2, 64, 0
3, 31632, Note_on_c, 2, 65, 45
3, 31664, Note_on_c, 2, 65, 0
3, 31680, Note_on_c, 2, 66, 45
3, 31728, Note_on_c, 2, 66, 0
3, 31728, Note_on_c, 2, 67, 45
3, 31774, Note_on_c, 2, 67, 0
3, 31776, Note_on_c, 2, 67, 45
3, 31808, Note_on_c, 2, 67, 0
3, 31824, Note_on_c, 2, 67, 45
3, 31856, Note_on_c, 2, 67, 0
3, 31872, Note_on_c, 2, 74, 45
3, 31904, Note_on_c, 2, 74, 0
3, 31920, Note_on_c, 2, 74, 45
3, 31968, Note_on_c, 2, 74, 0
3, 31968, Note_on_c, 2, 72, 45
3, 32016, Note_on_c, 2, 72, 0
3, 32016, Note_on_c, 2, 70, 45
3, 32062, Note_on_c, 2, 70, 0
3, 32064, Note_on_c, 2, 70, 45
3, 32096, Note_on_c, 2, 70, 0
3, 32112, Note_on_c, 2, 70, 45
3, 32160, Note_on_c, 2, 70, 0
3, 32160, Note_on_c, 2, 69, 45
3, 32208, Note_on_c, 2, 69, 0
3, 32208, Note_on_c, 2, 67, 45
3, 32254, Note_on_c, 2, 67, 0
3, 32256, Note_on_c, 2, 67, 45
3, 32288, Note_on_c, 2, 67, 0
3, 32304, Note_on_c, 2, 67, 45
3, 32352, Note_on_c, 2, 67, 0
3, 32352, Note_on_c, 2, 65, 45
3, 32398, Note_on_c, 2, 65, 0
3, 32400, Note_on_c, 2, 67, 45
3, 32432, Note_on_c, 2, 67, 0
3, 32448, Note_on_c, 2, 69, 45
3, 32480, Note_on_c, 2, 69, 0
3, 32496, Note_on_c, 2, 65, 45
3, 32544, Note_on_c, 2, 65, 0
3, 32544, Note_on_c, 2, 64, 45
3, 32592, Note_on_c, 2, 64, 0
3, 32592, Note_on_c, 2, 63, 45
3, 32638, Note_on_c, 2, 63, 0
3, 32640, Note_on_c, 2, 62, 45
3, 32672, Note_on_c, 2, 62, 0
3, 32688, Note_on_c, 2, 74, 45
3, 32736, Note_on_c, 2, 74, 0
3, 32736, Note_on_c, 2, 72, 45
3, 32784, Note_on_c, 2, 72, 0
3, 32784, Note_on_c, 2, 70, 45
3, 32830, Note_on_c, 2, 70, 0
3, 32832, Note_on_c, 2, 69, 45
3, 32864, Note_on_c, 2, 69, 0
3, 32880, Note_on_c, 2, 69, 45
3, 32928, Note_on_c, 2, 69, 0
3, 32928, Note_on_c, 2, 70, 45
3, 32976, Note_on_c, 2, 70, 0
3, 32976, Note_on_c, 2, 72, 45
3, 33022, Note_on_c, 2, 72, 0
3, 33024, Note_on_c, 2, 70, 45
3, 33056, Note_on_c, 2, 70, 0
3, 33072, Note_on_c, 2, 70, 45
3, 33120, Note_on_c, 2, 70, 0
3, 33120, Note_on_c, 2, 69, 45
3, 33168, Note_on_c, 2, 69, 0
3, 33168, Note_on_c, 2, 67, 45
3, 33214, Note_on_c, 2, 67, 0
3, 33216, Note_on_c, 2, 65, 60
3, 33248, Note_on_c, 2, 65, 0
3, 33264, Note_on_c, 2, 65, 60
3, 33312, Note_on_c, 2, 65, 0
3, 33312, Note_on_c, 2, 67, 45
3, 33360, Note_on_c, 2, 67, 0
3, 33360, Note_on_c, 2, 69, 45
3, 33406, Note_on_c, 2, 69, 0
3, 33408, Note_on_c, 2, 70, 92
3, 33440, Note_on_c, 2, 70, 0
3, 33456, Note_on_c, 2, 67, 92
3, 33504, Note_on_c, 2, 67, 0
3, 33504, Note_on_c, 2, 69, 92
3, 33552, Note_on_c, 2, 69, 0
3, 33552, Note_on_c, 2, 70, 92
3, 33598, Note_on_c, 2, 70, 0
3, 33600, Note_on_c, 2, 69, 92
3, 33632, Note_on_c, 2, 69, 0
3, 33648, Note_on_c, 2, 69, 92
3, 33696, Note_on_c, 2, 69, 0
3, 33696, Note_on_c, 2, 67, 92
3, 33744, Note_on_c, 2, 67, 0
3, 33744, Note_on_c, 2, 65, 92
3, 33790, Note_on_c, 2, 65, 0
3, 33792, Note_on_c, 2, 70, 92
3, 33838, Note_on_c, 2, 70, 0
3, 33840, Note_on_c, 2, 70, 92
3, 33886, Note_on_c, 2, 70, 0
3, 33888, Note_on_c, 2, 70, 92
3, 33934, Note_on_c, 2, 70, 0
3, 33936, Note_on_c, 2, 70, 92
3, 33982, Note_on_c, 2, 70, 0
3, 33984, Note_on_c, 2, 69, 92
3, 34144, Note_on_c, 2, 69, 0
3, 34368, Note_on_c, 2, 69, 45
3, 34400, Note_on_c, 2, 69, 0
3, 34416, Note_on_c, 2, 69, 45
3, 34464, Note_on_c, 2, 69, 0
3, 34464, Note_on_c, 2, 67, 45
3, 34512, Note_on_c, 2, 67, 0
3, 34512, Note_on_c, 2, 65, 45
3, 34558, Note_on_c, 2, 65, 0
3, 34560, Note_on_c, 2, 65, 45
3, 34592, Note_on_c, 2, 65, 0
3, 34608, Note_on_c, 2, 65, 45
3, 34656, Note_on_c, 2, 65, 0
3, 34656, Note_on_c, 2, 64, 45
3, 34704, Note_on_c, 2, 64, 0
3, 34704, Note_on_c, 2, 62, 45
3, 34750, Note_on_c, 2, 62, 0
3, 34752, Note_on_c, 2, 62, 45
3, 34784, Note_on_c, 2, 62, 0
3, 34800, Note_on_c, 2, 62, 45
3, 34848, Note_on_c, 2, 62, 0
3, 34848, Note_on_c, 2, 60, 45
3, 34896, Note_on_c, 2, 60, 0
3, 34896, Note_on_c, 2, 59, 45
3, 34942, Note_on_c, 2, 59, 0
3, 34944, Note_on_c, 2, 59, 45
3, 35038, Note_on_c, 2, 59, 0
3, 35136, Note_on_c, 2, 62, 51
3, 35230, Note_on_c, 2, 62, 0
3, 35328, Note_on_c, 2, 67, 57
3, 35422, Note_on_c, 2, 67, 0
3, 35520, Note_on_c, 2, 74, 63
3, 35614, Note_on_c, 2, 74, 0
3, 35712, Note_on_c, 2, 74, 69
3, 35806, Note_on_c, 2, 74, 0
3, 35904, Note_on_c, 2, 77, 76
3, 35998, Note_on_c, 2, 77, 0
3, 36096, Note_on_c, 2, 74, 84
3, 36190, Note_on_c, 2, 74, 0
3, 36288, Note_on_c, 2, 62, 127
3, 37200, Note_on_c, 2, 62, 0
3, 37536, Note_on_c, 2, 60, 45
3, 37632, Note_on_c, 2, 60, 0
3, 37632, Note_on_c, 2, 64, 45
3, 37728, Note_on_c, 2, 64, 0
3, 37728, Note_on_c, 2, 67, 45
3, 37824, Note_on_c, 2, 67, 0
3, 37824, Note_on_c, 2, 72, 45
3, 37920, Note_on_c, 2, 72, 0
3, 37920, Note_on_c, 2, 76, 45
3, 38014, Note_on_c, 2, 76, 0
3, 38016, Note_on_c, 2, 77, 45
3, 38352, Note_on_c, 2, 77, 0
3, 38400, Note_on_c, 2, 64, 45
3, 38560, Note_on_c, 2, 64, 0
3, 38592, Note_on_c, 2, 61, 63
3, 38784, Note_on_c, 2, 61, 0
3, 38784, Note_on_c, 2, 65, 45
3, 38878, Note_on_c, 2, 65, 0
3, 39456, Note_on_c, 2, 65, 45
3, 39648, Note_on_c, 2, 65, 0
3, 39648, Note_on_c, 2, 64, 51
3, 39742, Note_on_c, 2, 64, 0
3, 39744, Note_on_c, 2, 69, 54
3, 39936, Note_on_c, 2, 69, 0
3, 39936, Note_on_c, 2, 65, 60
3, 40096, Note_on_c, 2, 65, 0
3, 40128, Note_on_c, 2, 59, 66
3, 40224, Note_on_c, 2, 59, 0
3, 40224, Note_on_c, 2, 65, 69
3, 40318, Note_on_c, 2, 65, 0
3, 40320, Note_on_c, 2, 65, 72
3, 40512, Note_on_c, 2, 65, 0
3, 40512, Note_on_c, 2, 64, 78
3, 40606, Note_on_c, 2, 64, 0
3, 40896, Note_on_c, 2, 55, 45
3, 40896, Note_on_c, 2, 64, 45
3, 41152, Note_on_c, 2, 55, 0
3, 41152, Note_on_c, 2, 64, 0
3, 41472, Note_on_c, 2, 64, 45
3, 41568, Note_on_c, 2, 64, 0
3, 41568, Note_on_c, 2, 67, 45
3, 41664, Note_on_c, 2, 67, 0
3, 41664, Note_on_c, 2, 62, 45
3, 41758, Note_on_c, 2, 62, 0
3, 42048, Note_on_c, 2, 55, 45
3, 42048, Note_on_c, 2, 64, 45
3, 42304, Note_on_c, 2, 55, 0
3, 42304, Note_on_c, 2, 64, 0
3, 42624, Note_on_c, 2, 64, 45
3, 42720, Note_on_c, 2, 64, 0
3, 42720, Note_on_c, 2, 67, 45
3, 42816, Note_on_c, 2, 67, 0
3, 42816, Note_on_c, 2, 62, 45
3, 42910, Note_on_c, 2, 62, 0
3, 43200, Note_on_c, 2, 66, 45
3, 43296, Note_on_c, 2, 66, 0
3, 43296, Note_on_c, 2, 69, 60
3, 43368, Note_on_c, 2, 69, 0
3, 43368, Note_on_c, 2, 66, 45
3, 43390, Note_on_c, 2, 66, 0
3, 43392, Note_on_c, 2, 71, 45
3, 43486, Note_on_c, 2, 71, 0
3, 43776, Note_on_c, 2, 66, 45
3, 43872, Note_on_c, 2, 66, 0
3, 43872, Note_on_c, 2, 69, 60
3, 43896, Note_on_c, 2, 69, 0
3, 43896, Note_on_c, 2, 66, 57
3, 43920, Note_on_c, 2, 66, 0
3, 43920, Note_on_c, 2, 69, 53
3, 43944, Note_on_c, 2, 69, 0
3, 43944, Note_on_c, 2, 66, 49
3, 43966, Note_on_c, 2, 66, 0
3, 43968, Note_on_c, 2, 71, 45
3, 44062, Note_on_c, 2, 71, 0
3, 44064, Note_on_c, 2, 62, 45
3, 44256, Note_on_c, 2, 62, 0
3, 44256, Note_on_c, 2, 63, 45
3, 44350, Note_on_c, 2, 63, 0
3, 44352, Note_on_c, 2, 64, 45
3, 44496, Note_on_c, 2, 64, 0
3, 44496, Note_on_c, 2, 67, 67
3, 44542, Note_on_c, 2, 67, 0
3, 44544, Note_on_c, 2, 67, 45
3, 44640, Note_on_c, 2, 67, 0
3, 44640, Note_on_c, 2, 62, 45
3, 44736, Note_on_c, 2, 62, 0
3, 44736, Note_on_c, 2, 60, 45
3, 44830, Note_on_c, 2, 60, 0
3, 44832, Note_on_c, 2, 60, 45
3, 44926, Note_on_c, 2, 60, 0
3, 44952, Note_on_c, 2, 60, 45
3, 44976, Note_on_c, 2, 60, 0
3, 44976, Note_on_c, 2, 59, 45
3, 45000, Note_on_c, 2, 59, 0
3, 45000, Note_on_c, 2, 60, 45
3, 45024, Note_on_c, 2, 60, 0
3, 45024, Note_on_c, 2, 59, 45
3, 45048, Note_on_c, 2, 59, 0
3, 45048, Note_on_c, 2, 60, 45
3, 45072, Note_on_c, 2, 60, 0
3, 45072, Note_on_c, 2, 62, 45
3, 45096, Note_on_c, 2, 62, 0
3, 45096, Note_on_c, 2, 60, 45
3, 45118, Note_on_c, 2, 60, 0
3, 45120, Note_on_c, 2, 59, 45
3, 45214, Note_on_c, 2, 59, 0
3, 45504, Note_on_c, 2, 67, 45
3, 45792, Note_on_c, 2, 67, 0
3, 45792, Note_on_c, 2, 67, 67
3, 45888, Note_on_c, 2, 67, 0
3, 45888, Note_on_c, 2, 67, 75
3, 45984, Note_on_c, 2, 67, 0
3, 45984, Note_on_c, 2, 67, 60
3, 46054, Note_on_c, 2, 67, 0
3, 46080, Note_on_c, 2, 72, 45
3, 46272, Note_on_c, 2, 72, 0
3, 46272, Note_on_c, 2, 71, 45
3, 46366, Note_on_c, 2, 71, 0
3, 46464, Note_on_c, 2, 67, 45
3, 46532, Note_on_c, 2, 67, 0
3, 46560, Note_on_c, 2, 67, 45
3, 46592, Note_on_c, 2, 67, 0
3, 46656, Note_on_c, 2, 74, 45
3, 46944, Note_on_c, 2, 74, 0
3, 46944, Note_on_c, 2, 72, 68
3, 47040, Note_on_c, 2, 72, 0
3, 47040, Note_on_c, 2, 77, 76
3, 47136, Note_on_c, 2, 77, 0
3, 47136, Note_on_c, 2, 76, 84
3, 47208, Note_on_c, 2, 76, 0
3, 47208, Note_on_c, 2, 72, 90
3, 47230, Note_on_c, 2, 72, 0
3, 47232, Note_on_c, 2, 77, 92
3, 47472, Note_on_c, 2, 77, 0
3, 47472, Note_on_c, 2, 74, 45
3, 47520, Note_on_c, 2, 74, 0
3, 47520, Note_on_c, 2, 71, 45
3, 47568, Note_on_c, 2, 71, 0
3, 47568, Note_on_c, 2, 67, 45
3, 47616, Note_on_c, 2, 67, 0
3, 47616, Note_on_c, 2, 68, 45
3, 47664, Note_on_c, 2, 68, 0
3, 47664, Note_on_c, 2, 69, 45
3, 47712, Note_on_c, 2, 69, 0
3, 47712, Note_on_c, 2, 70, 45
3, 47760, Note_on_c, 2, 70, 0
3, 47760, Note_on_c, 2, 71, 45
3, 47806, Note_on_c, 2, 71, 0
3, 47808, Note_on_c, 2, 64, 45
3, 47808, Note_on_c, 2, 72, 45
3, 48214, Note_on_c, 2, 64, 0
3, 48214, Note_on_c, 2, 72, 0
3, 48216, Note_on_c, 2, 60, 45
3, 48240, Note_on_c, 2, 60, 0
3, 48240, Note_on_c, 2, 64, 45
3, 48264, Note_on_c, 2, 64, 0
3, 48264, Note_on_c, 2, 67, 45
3, 48288, Note_on_c, 2, 67, 0
3, 48312, Note_on_c, 2, 67, 45
3, 48336, Note_on_c, 2, 67, 0
3, 48336, Note_on_c, 2, 64, 45
3, 48360, Note_on_c, 2, 64, 0
3, 48360, Note_on_c, 2, 60, 45
3, 48382, Note_on_c, 2, 60, 0
3, 48384, Note_on_c, 2, 76, 45
3, 48790, Note_on_c, 2, 76, 0
3, 48792, Note_on_c, 2, 60, 45
3, 48816, Note_on_c, 2, 60, 0
3, 48816, Note_on_c, 2, 64, 45
3, 48840, Note_on_c, 2, 64, 0
3, 48840, Note_on_c, 2, 67, 45
3, 48864, Note_on_c, 2, 67, 0
3, 48888, Note_on_c, 2, 67, 45
3, 48912, Note_on_c, 2, 67, 0
3, 48912, Note_on_c, 2, 64, 45
3, 48936, Note_on_c, 2, 64, 0
3, 48936, Note_on_c, 2, 60, 45
3, 48958, Note_on_c, 2, 60, 0
3, 48984, Note_on_c, 2, 60, 45
3, 49008, Note_on_c, 2, 60, 0
3, 49008, Note_on_c, 2, 65, 47
3, 49032, Note_on_c, 2, 65, 0
3, 49032, Note_on_c, 2, 69, 50
3, 49056, Note_on_c, 2, 69, 0
3, 49056, Note_on_c, 2, 72, 53
3, 49080, Note_on_c, 2, 72, 0
3, 49080, Note_on_c, 2, 69, 56
3, 49104, Note_on_c, 2, 69, 0
3, 49104, Note_on_c, 2, 65, 59
3, 49128, Note_on_c, 2, 65, 0
3, 49128, Note_on_c, 2, 60, 62
3, 49150, Note_on_c, 2, 60, 0
3, 49176, Note_on_c, 2, 60, 68
3, 49200, Note_on_c, 2, 60, 0
3, 49200, Note_on_c, 2, 65, 71
3, 49224, Note_on_c, 2, 65, 0
3, 49224, Note_on_c, 2, 69, 74
3, 49248, Note_on_c, 2, 69, 0
3, 49248, Note_on_c, 2, 72, 77
3, 49272, Note_on_c, 2, 72, 0
3, 49272, Note_on_c, 2, 69, 80
3, 49296, Note_on_c, 2, 69, 0
3, 49296, Note_on_c, 2, 65, 83
3, 49320, Note_on_c, 2, 65, 0
3, 49320, Note_on_c, 2, 60, 86
3, 49342, Note_on_c, 2, 60, 0
3, 49368, Note_on_c, 2, 60, 92
3, 49392, Note_on_c, 2, 60, 0
3, 49392, Note_on_c, 2, 72, 92
3, 49416, Note_on_c, 2, 72, 0
3, 49416, Note_on_c, 2, 60, 92
3, 49440, Note_on_c, 2, 60, 0
3, 49440, Note_on_c, 2, 72, 92
3, 49464, Note_on_c, 2, 72, 0
3, 49464, Note_on_c, 2, 60, 92
3, 49488, Note_on_c, 2, 60, 0
3, 49488, Note_on_c, 2, 72, 92
3, 49512, Note_on_c, 2, 72, 0
3, 49512, Note_on_c, 2, 60, 92
3, 49534, Note_on_c, 2, 60, 0
3, 49560, Note_on_c, 2, 60, 45
3, 49584, Note_on_c, 2, 60, 0
3, 49584, Note_on_c, 2, 64, 45
3, 49608, Note_on_c, 2, 64, 0
3, 49608, Note_on_c, 2, 67, 45
3, 49632, Note_on_c, 2, 67, 0
3, 49632, Note_on_c, 2, 72, 45
3, 49656, Note_on_c, 2, 72, 0
3, 49656, Note_on_c, 2, 67, 45
3, 49680, Note_on_c, 2, 67, 0
3, 49680, Note_on_c, 2, 64, 45
3, 49704, Note_on_c, 2, 64, 0
3, 49704, Note_on_c, 2, 60, 45
3, 49726, Note_on_c, 2, 60, 0
3, 49752, Note_on_c, 2, 60, 45
3, 49776, Note_on_c, 2, 60, 0
3, 49776, Note_on_c, 2, 64, 45
3, 49800, Note_on_c, 2, 64, 0
3, 49800, Note_on_c, 2, 67, 45
3, 49824, Note_on_c, 2, 67, 0
3, 49824, Note_on_c, 2, 72, 45
3, 49848, Note_on_c, 2, 72, 0
3, 49848, Note_on_c, 2, 67, 45
3, 49872, Note_on_c, 2, 67, 0
3, 49872, Note_on_c, 2, 64, 45
3, 49896, Note_on_c, 2, 64, 0
3, 49896, Note_on_c, 2, 60, 45
3, 49918, Note_on_c, 2, 60, 0
3, 49944, Note_on_c, 2, 59, 45
3, 49968, Note_on_c, 2, 59, 0
3, 49968, Note_on_c, 2, 62, 45
3, 49992, Note_on_c, 2, 62, 0
3, 49992, Note_on_c, 2, 59, 45
3, 50016, Note_on_c, 2, 59, 0
3, 50016, Note_on_c, 2, 62, 45
3, 50040, Note_on_c, 2, 62, 0
3, 50040, Note_on_c, 2, 59, 45
3, 50064, Note_on_c, 2, 59, 0
3, 50064, Note_on_c, 2, 62, 45
3, 50088, Note_on_c, 2, 62, 0
3, 50088, Note_on_c, 2, 59, 45
3, 50110, Note_on_c, 2, 59, 0
3, 50112, Note_on_c, 2, 60, 45
3, 50206, Note_on_c, 2, 60, 0
3, 50496, Note_on_c, 2, 62, 30
3, 50530, Note_on_c, 2, 62, 0
3, 50544, Note_on_c, 2, 62, 30
3, 50578, Note_on_c, 2, 62, 0
3, 50592, Note_on_c, 2, 60, 30
3, 50626, Note_on_c, 2, 60, 0
3, 50640, Note_on_c, 2, 59, 30
3, 50672, Note_on_c, 2, 59, 0
3, 50688, Note_on_c, 2, 60, 30
3, 50782, Note_on_c, 2, 60, 0
3, 51072, Note_on_c, 2, 55, 30
3, 51072, Note_on_c, 2, 65, 30
3, 51106, Note_on_c, 2, 55, 0
3, 51106, Note_on_c, 2, 65, 0
3, 51120, Note_on_c, 2, 55, 30
3, 51120, Note_on_c, 2, 65, 30
3, 51154, Note_on_c, 2, 55, 0
3, 51154, Note_on_c, 2, 65, 0
3, 51168, Note_on_c, 2, 55, 30
3, 51168, Note_on_c, 2, 65, 30
3, 51202, Note_on_c, 2, 55, 0
3, 51202, Note_on_c, 2, 65, 0
3, 51216, Note_on_c, 2, 55, 30
3, 51216, Note_on_c, 2, 65, 30
3, 51248, Note_on_c, 2, 55, 0
3, 51248, Note_on_c, 2, 65, 0
3, 51264, Note_on_c, 2, 55, 30
3, 51264, Note_on_c, 2, 64, 30
3, 51358, Note_on_c, 2, 55, 0
3, 51358, Note_on_c, 2, 64, 0
3, 51648, Note_on_c, 2, 60, 30
3, 51682, Note_on_c, 2, 60, 0
3, 51696, Note_on_c, 2, 60, 33
3, 51730, Note_on_c, 2, 60, 0
3, 51744, Note_on_c, 2, 64, 37
3, 51778, Note_on_c, 2, 64, 0
3, 51792, Note_on_c, 2, 65, 41
3, 51824, Note_on_c, 2, 65, 0
3, 51840, Note_on_c, 2, 64, 45
3, 51934, Note_on_c, 2, 64, 0
3, 52320, Note_on_c, 2, 55, 52
3, 52354, Note_on_c, 2, 55, 0
3, 52368, Note_on_c, 2, 56, 56
3, 52400, Note_on_c, 2, 56, 0
3, 52416, Note_on_c, 2, 55, 45
3, 52510, Note_on_c, 2, 55, 0
3, 52800, Note_on_c, 2, 55, 30
3, 52966, Note_on_c, 2, 55, 0
3, 52968, Note_on_c, 2, 55, 30
3, 52990, Note_on_c, 2, 55, 0
3, 52992, Note_on_c, 2, 55, 30
3, 53712, Note_on_c, 2, 55, 0
3, 53712, End_track
4, 0, Start_track
4, 0, MIDI_port, 0
4, 0, Title_t, "Viola."
4, 0, Program_c, 3, 0
4, 0, Control_c, 3, 7, 127
4, 0, Control_c, 3, 10, 64
4, 192, Note_on_c, 3, 64, 45
4, 480, Note_on_c, 3, 64, 0
4, 480, Note_on_c, 3, 60, 45
4, 576, Note_on_c, 3, 60, 0
4, 576, Note_on_c, 3, 55, 45
4, 672, Note_on_c, 3, 55, 0
4, 672, Note_on_c, 3, 52, 45
4, 766, Note_on_c, 3, 52, 0
4, 768, Note_on_c, 3, 53, 45
4, 1152, Note_on_c, 3, 53, 0
4, 1152, Note_on_c, 3, 52, 45
4, 1312, Note_on_c, 3, 52, 0
4, 1344, Note_on_c, 3, 55, 45
4, 1440, Note_on_c, 3, 55, 0
4, 1440, Note_on_c, 3, 54, 45
4, 1536, Note_on_c, 3, 54, 0
4, 1536, Note_on_c, 3, 55, 45
4, 1630, Note_on_c, 3, 55, 0
4, 1920, Note_on_c, 3, 59, 45
4, 2176, Note_on_c, 3, 59, 0
4, 2208, Note_on_c, 3, 59, 60
4, 2304, Note_on_c, 3, 59, 0
4, 2304, Note_on_c, 3, 62, 65
4, 2400, Note_on_c, 3, 62, 0
4, 2400, Note_on_c, 3, 60, 70
4, 2494, Note_on_c, 3, 60, 0
4, 2688, Note_on_c, 3, 53, 45
4, 2848, Note_on_c, 3, 53, 0
4, 2880, Note_on_c, 3, 53, 45
4, 3040, Note_on_c, 3, 53, 0
4, 3072, Note_on_c, 3, 53, 45
4, 3216, Note_on_c, 3, 53, 0
4, 3216, Note_on_c, 3, 55, 45
4, 3240, Note_on_c, 3, 55, 0
4, 3240, Note_on_c, 3, 53, 45
4, 3262, Note_on_c, 3, 53, 0
4, 3264, Note_on_c, 3, 52, 45
4, 3358, Note_on_c, 3, 52, 0
4, 3648, Note_on_c, 3, 60, 45
4, 3904, Note_on_c, 3, 60, 0
4, 4224, Note_on_c, 3, 55, 45
4, 4320, Note_on_c, 3, 55, 0
4, 4320, Note_on_c, 3, 60, 45
4, 4416, Note_on_c, 3, 60, 0
4, 4416, Note_on_c, 3, 59, 45
4, 4510, Note_on_c, 3, 59, 0
4, 4800, Note_on_c, 3, 60, 45
4, 5056, Note_on_c, 3, 60, 0
4, 5376, Note_on_c, 3, 55, 45
4, 5472, Note_on_c, 3, 55, 0
4, 5472, Note_on_c, 3, 60, 45
4, 5568, Note_on_c, 3, 60, 0
4, 5568, Note_on_c, 3, 59, 45
4, 5662, Note_on_c, 3, 59, 0
4, 5664, Note_on_c, 3, 62, 45
4, 5760, Note_on_c, 3, 62, 0
4, 5760, Note_on_c, 3, 59, 45
4, 5856, Note_on_c, 3, 59, 0
4, 5856, Note_on_c, 3, 55, 45
4, 5950, Note_on_c, 3, 55, 0
4, 5952, Note_on_c, 3, 57, 45
4, 6048, Note_on_c, 3, 57, 0
4, 6048, Note_on_c, 3, 54, 60
4, 6120, Note_on_c, 3, 54, 0
4, 6120, Note_on_c, 3, 50, 45
4, 6142, Note_on_c, 3, 50, 0
4, 6144, Note_on_c, 3, 55, 45
4, 6238, Note_on_c, 3, 55, 0
4, 6528, Note_on_c, 3, 57, 45
4, 6624, Note_on_c, 3, 57, 0
4, 6624, Note_on_c, 3, 54, 60
4, 6696, Note_on_c, 3, 54, 0
4, 6696, Note_on_c, 3, 50, 45
4, 6718, Note_on_c, 3, 50, 0
4, 6720, Note_on_c, 3, 55, 45
4, 6814, Note_on_c, 3, 55, 0
4, 6816, Note_on_c, 3, 55, 45
4, 6976, Note_on_c, 3, 55, 0
4, 7008, Note_on_c, 3, 55, 45
4, 7102, Note_on_c, 3, 55, 0
4, 7104, Note_on_c, 3, 55, 45
4, 7152, Note_on_c, 3, 55, 0
4, 7152, Note_on_c, 3, 56, 52
4, 7200, Note_on_c, 3, 56, 0
4, 7200, Note_on_c, 3, 57, 59
4, 7248, Note_on_c, 3, 57, 0
4, 7248, Note_on_c, 3, 58, 67
4, 7294, Note_on_c, 3, 58, 0
4, 7296, Note_on_c, 3, 59, 45
4, 7390, Note_on_c, 3, 59, 0
4, 7392, Note_on_c, 3, 59, 45
4, 7488, Note_on_c, 3, 59, 0
4, 7488, Note_on_c, 3, 57, 45
4, 7582, Note_on_c, 3, 57, 0
4, 7584, Note_on_c, 3, 57, 45
4, 7678, Note_on_c, 3, 57, 0
4, 7776, Note_on_c, 3, 54, 45
4, 7872, Note_on_c, 3, 54, 0
4, 7872, Note_on_c, 3, 55, 45
4, 7966, Note_on_c, 3, 55, 0
4, 8256, Note_on_c, 3, 62, 45
4, 8512, Note_on_c, 3, 62, 0
4, 8544, Note_on_c, 3, 60, 54
4, 8640, Note_on_c, 3, 60, 0
4, 8640, Note_on_c, 3, 65, 57
4, 8734, Note_on_c, 3, 65, 0
4, 8736, Note_on_c, 3, 64, 60
4, 8808, Note_on_c, 3, 64, 0
4, 8808, Note_on_c, 3, 67, 49
4, 8830, Note_on_c, 3, 67, 0
4, 8832, Note_on_c, 3, 67, 60
4, 8926, Note_on_c, 3, 67, 0
4, 8928, Note_on_c, 3, 55, 45
4, 9022, Note_on_c, 3, 55, 0
4, 9024, Note_on_c, 3, 55, 45
4, 9118, Note_on_c, 3, 55, 0
4, 9120, Note_on_c, 3, 55, 45
4, 9216, Note_on_c, 3, 55, 0
4, 9216, Note_on_c, 3, 59, 45
4, 9312, Note_on_c, 3, 59, 0
4, 9312, Note_on_c, 3, 62, 45
4, 9406, Note_on_c, 3, 62, 0
4, 9408, Note_on_c, 3, 55, 45
4, 9408, Note_on_c, 3, 67, 45
4, 9664, Note_on_c, 3, 55, 0
4, 9664, Note_on_c, 3, 67, 0
4, 9696, Note_on_c, 3, 55, 68
4, 9696, Note_on_c, 3, 67, 68
4, 9790, Note_on_c, 3, 55, 0
4, 9790, Note_on_c, 3, 67, 0
4, 9792, Note_on_c, 3, 55, 76
4, 9792, Note_on_c, 3, 65, 76
4, 9886, Note_on_c, 3, 55, 0
4, 9886, Note_on_c, 3, 65, 0
4, 9888, Note_on_c, 3, 55, 84
4, 9888, Note_on_c, 3, 64, 84
4, 9982, Note_on_c, 3, 55, 0
4, 9982, Note_on_c, 3, 64, 0
4, 9984, Note_on_c, 3, 55, 92
4, 9984, Note_on_c, 3, 62, 92
4, 10240, Note_on_c, 3, 55, 0
4, 10240, Note_on_c, 3, 62, 0
4, 10560, Note_on_c, 3, 60, 45
4, 10816, Note_on_c, 3, 60, 0
4, 10848, Note_on_c, 3, 60, 45
4, 10916, Note_on_c, 3, 60, 0
4, 10944, Note_on_c, 3, 60, 45
4, 11012, Note_on_c, 3, 60, 0
4, 11040, Note_on_c, 3, 60, 45
4, 11072, Note_on_c, 3, 60, 0
4, 11136, Note_on_c, 3, 48, 45
4, 11136, Note_on_c, 3, 60, 45
4, 11392, Note_on_c, 3, 48, 0
4, 11392, Note_on_c, 3, 60, 0
4, 11424, Note_on_c, 3, 48, 45
4, 11424, Note_on_c, 3, 60, 45
4, 11492, Note_on_c, 3, 48, 0
4, 11492, Note_on_c, 3, 60, 0
4, 11520, Note_on_c, 3, 48, 45
4, 11520, Note_on_c, 3, 60, 45
4, 11588, Note_on_c, 3, 48, 0
4, 11588, Note_on_c, 3, 60, 0
4, 11616, Note_on_c, 3, 48, 45
4, 11616, Note_on_c, 3, 60, 45
4, 11648, Note_on_c, 3, 48, 0
4, 11648, Note_on_c, 3, 60, 0
4, 11712, Note_on_c, 3, 48, 45
4, 11712, Note_on_c, 3, 60, 45
4, 11872, Note_on_c, 3, 48, 0
4, 11872, Note_on_c, 3, 60, 0
4, 11904, Note_on_c, 3, 48, 68
4, 11904, Note_on_c, 3, 60, 68
4, 12064, Note_on_c, 3, 48, 0
4, 12064, Note_on_c, 3, 60, 0
4, 12096, Note_on_c, 3, 48, 92
4, 12096, Note_on_c, 3, 60, 92
4, 12256, Note_on_c, 3, 48, 0
4, 12256, Note_on_c, 3, 60, 0
4, 12288, Note_on_c, 3, 48, 92
4, 12288, Note_on_c, 3, 60, 92
4, 12382, Note_on_c, 3, 48, 0
4, 12382, Note_on_c, 3, 60, 0
4, 12384, Note_on_c, 3, 52, 45
4, 12480, Note_on_c, 3, 52, 0
4, 12480, Note_on_c, 3, 55, 45
4, 12576, Note_on_c, 3, 55, 0
4, 12576, Note_on_c, 3, 60, 45
4, 12672, Note_on_c, 3, 60, 0
4, 12672, Note_on_c, 3, 59, 45
4, 12768, Note_on_c, 3, 59, 0
4, 12768, Note_on_c, 3, 53, 45
4, 12862, Note_on_c, 3, 53, 0
4, 12864, Note_on_c, 3, 52, 45
4, 12958, Note_on_c, 3, 52, 0
4, 13248, Note_on_c, 3, 55, 30
4, 13282, Note_on_c, 3, 55, 0
4, 13296, Note_on_c, 3, 55, 30
4, 13330, Note_on_c, 3, 55, 0
4, 13344, Note_on_c, 3, 55, 30
4, 13378, Note_on_c, 3, 55, 0
4, 13392, Note_on_c, 3, 55, 30
4, 13424, Note_on_c, 3, 55, 0
4, 13440, Note_on_c, 3, 55, 30
4, 13534, Note_on_c, 3, 55, 0
4, 13824, Note_on_c, 3, 62, 30
4, 13858, Note_on_c, 3, 62, 0
4, 13872, Note_on_c, 3, 62, 30
4, 13906, Note_on_c, 3, 62, 0
4, 13920, Note_on_c, 3, 60, 30
4, 13954, Note_on_c, 3, 60, 0
4, 13968, Note_on_c, 3, 59, 30
4, 14000, Note_on_c, 3, 59, 0
4, 14016, Note_on_c, 3, 60, 30
4, 14110, Note_on_c, 3, 60, 0
4, 14400, Note_on_c, 3, 55, 30
4, 14494, Note_on_c, 3, 55, 0
4, 14592, Note_on_c, 3, 52, 30
4, 14686, Note_on_c, 3, 52, 0
4, 15984, Note_on_c, 3, 60, 45
4, 16032, Note_on_c, 3, 60, 0
4, 16032, Note_on_c, 3, 58, 45
4, 16080, Note_on_c, 3, 58, 0
4, 16080, Note_on_c, 3, 57, 45
4, 16126, Note_on_c, 3, 57, 0
4, 16128, Note_on_c, 3, 57, 45
4, 16160, Note_on_c, 3, 57, 0
4, 16176, Note_on_c, 3, 57, 45
4, 16224, Note_on_c, 3, 57, 0
4, 16224, Note_on_c, 3, 55, 45
4, 16272, Note_on_c, 3, 55, 0
4, 16272, Note_on_c, 3, 53, 45
4, 16318, Note_on_c, 3, 53, 0
4, 16320, Note_on_c, 3, 52, 45
4, 16414, Note_on_c, 3, 52, 0
4, 16704, Note_on_c, 3, 62, 45
4, 16736, Note_on_c, 3, 62, 0
4, 16752, Note_on_c, 3, 62, 45
4, 16800, Note_on_c, 3, 62, 0
4, 16800, Note_on_c, 3, 60, 45
4, 16848, Note_on_c, 3, 60, 0
4, 16848, Note_on_c, 3, 58, 45
4, 16894, Note_on_c, 3, 58, 0
4, 16896, Note_on_c, 3, 58, 45
4, 16928, Note_on_c, 3, 58, 0
4, 16944, Note_on_c, 3, 58, 45
4, 16992, Note_on_c, 3, 58, 0
4, 16992, Note_on_c, 3, 57, 45
4, 17040, Note_on_c, 3, 57, 0
4, 17040, Note_on_c, 3, 55, 45
4, 17086, Note_on_c, 3, 55, 0
4, 17088, Note_on_c, 3, 53, 45
4, 17182, Note_on_c, 3, 53, 0
4, 17280, Note_on_c, 3, 60, 45
4, 17566, Note_on_c, 3, 60, 0
4, 17664, Note_on_c, 3, 59, 45
4, 17856, Note_on_c, 3, 59, 0
4, 17856, Note_on_c, 3, 60, 60
4, 17950, Note_on_c, 3, 60, 0
4, 18048, Note_on_c, 3, 57, 92
4, 18080, Note_on_c, 3, 57, 0
4, 18096, Note_on_c, 3, 57, 92
4, 18144, Note_on_c, 3, 57, 0
4, 18144, Note_on_c, 3, 55, 92
4, 18192, Note_on_c, 3, 55, 0
4, 18192, Note_on_c, 3, 53, 92
4, 18238, Note_on_c, 3, 53, 0
4, 18240, Note_on_c, 3, 60, 92
4, 18272, Note_on_c, 3, 60, 0
4, 18288, Note_on_c, 3, 60, 92
4, 18336, Note_on_c, 3, 60, 0
4, 18336, Note_on_c, 3, 59, 92
4, 18382, Note_on_c, 3, 59, 0
4, 18432, Note_on_c, 3, 55, 92
4, 18478, Note_on_c, 3, 55, 0
4, 18480, Note_on_c, 3, 55, 92
4, 18526, Note_on_c, 3, 55, 0
4, 18528, Note_on_c, 3, 55, 92
4, 18574, Note_on_c, 3, 55, 0
4, 18576, Note_on_c, 3, 55, 92
4, 18622, Note_on_c, 3, 55, 0
4, 18624, Note_on_c, 3, 55, 92
4, 18784, Note_on_c, 3, 55, 0
4, 19056, Note_on_c, 3, 60, 45
4, 19104, Note_on_c, 3, 60, 0
4, 19104, Note_on_c, 3, 58, 45
4, 19152, Note_on_c, 3, 58, 0
4, 19152, Note_on_c, 3, 57, 45
4, 19198, Note_on_c, 3, 57, 0
4, 19200, Note_on_c, 3, 57, 45
4, 19232, Note_on_c, 3, 57, 0
4, 19248, Note_on_c, 3, 57, 45
4, 19296, Note_on_c, 3, 57, 0
4, 19296, Note_on_c, 3, 55, 45
4, 19344, Note_on_c, 3, 55, 0
4, 19344, Note_on_c, 3, 53, 45
4, 19390, Note_on_c, 3, 53, 0
4, 19392, Note_on_c, 3, 52, 45
4, 19486, Note_on_c, 3, 52, 0
4, 19776, Note_on_c, 3, 62, 45
4, 19808, Note_on_c, 3, 62, 0
4, 19824, Note_on_c, 3, 62, 45
4, 19872, Note_on_c, 3, 62, 0
4, 19872, Note_on_c, 3, 60, 45
4, 19920, Note_on_c, 3, 60, 0
4, 19920, Note_on_c, 3, 58, 45
4, 19966, Note_on_c, 3, 58, 0
4, 19968, Note_on_c, 3, 58, 45
4, 20000, Note_on_c, 3, 58, 0
4, 20016, Note_on_c, 3, 58, 45
4, 20064, Note_on_c, 3, 58, 0
4, 20064, Note_on_c, 3, 57, 45
4, 20112, Note_on_c, 3, 57, 0
4, 20112, Note_on_c, 3, 55, 45
4, 20158, Note_on_c, 3, 55, 0
4, 20160, Note_on_c, 3, 53, 45
4, 20254, Note_on_c, 3, 53, 0
4, 20352, Note_on_c, 3, 60, 45
4, 20638, Note_on_c, 3, 60, 0
4, 20736, Note_on_c, 3, 59, 45
4, 20928, Note_on_c, 3, 59, 0
4, 20928, Note_on_c, 3, 60, 60
4, 21022, Note_on_c, 3, 60, 0
4, 21120, Note_on_c, 3, 57, 92
4, 21152, Note_on_c, 3, 57, 0
4, 21168, Note_on_c, 3, 57, 92
4, 21216, Note_on_c, 3, 57, 0
4, 21216, Note_on_c, 3, 55, 92
4, 21264, Note_on_c, 3, 55, 0
4, 21264, Note_on_c, 3, 53, 92
4, 21310, Note_on_c, 3, 53, 0
4, 21312, Note_on_c, 3, 60, 92
4, 21344, Note_on_c, 3, 60, 0
4, 21360, Note_on_c, 3, 60, 92
4, 21408, Note_on_c, 3, 60, 0
4, 21408, Note_on_c, 3, 59, 92
4, 21454, Note_on_c, 3, 59, 0
4, 21504, Note_on_c, 3, 55, 92
4, 21550, Note_on_c, 3, 55, 0
4, 21552, Note_on_c, 3, 55, 92
4, 21598, Note_on_c, 3, 55, 0
4, 21600, Note_on_c, 3, 55, 92
4, 21646, Note_on_c, 3, 55, 0
4, 21648, Note_on_c, 3, 55, 92
4, 21694, Note_on_c, 3, 55, 0
4, 21696, Note_on_c, 3, 55, 92
4, 21856, Note_on_c, 3, 55, 0
4, 22080, Note_on_c, 3, 69, 45
4, 22112, Note_on_c, 3, 69, 0
4, 22128, Note_on_c, 3, 69, 45
4, 22176, Note_on_c, 3, 69, 0
4, 22176, Note_on_c, 3, 67, 45
4, 22224, Note_on_c, 3, 67, 0
4, 22224, Note_on_c, 3, 66, 45
4, 22270, Note_on_c, 3, 66, 0
4, 22416, Note_on_c, 3, 69, 45
4, 22462, Note_on_c, 3, 69, 0
4, 22464, Note_on_c, 3, 62, 45
4, 22496, Note_on_c, 3, 62, 0
4, 22512, Note_on_c, 3, 62, 45
4, 22560, Note_on_c, 3, 62, 0
4, 22560, Note_on_c, 3, 60, 45
4, 22608, Note_on_c, 3, 60, 0
4, 22608, Note_on_c, 3, 58, 45
4, 22654, Note_on_c, 3, 58, 0
4, 22848, Note_on_c, 3, 67, 45
4, 22880, Note_on_c, 3, 67, 0
4, 22896, Note_on_c, 3, 67, 45
4, 22944, Note_on_c, 3, 67, 0
4, 22944, Note_on_c, 3, 65, 45
4, 22992, Note_on_c, 3, 65, 0
4, 22992, Note_on_c, 3, 64, 45
4, 23038, Note_on_c, 3, 64, 0
4, 23184, Note_on_c, 3, 67, 45
4, 23230, Note_on_c, 3, 67, 0
4, 23232, Note_on_c, 3, 60, 45
4, 23264, Note_on_c, 3, 60, 0
4, 23280, Note_on_c, 3, 60, 45
4, 23328, Note_on_c, 3, 60, 0
4, 23328, Note_on_c, 3, 58, 45
4, 23376, Note_on_c, 3, 58, 0
4, 23376, Note_on_c, 3, 57, 45
4, 23422, Note_on_c, 3, 57, 0
4, 23424, Note_on_c, 3, 53, 45
4, 23456, Note_on_c, 3, 53, 0
4, 23472, Note_on_c, 3, 53, 46
4, 23520, Note_on_c, 3, 53, 0
4, 23520, Note_on_c, 3, 55, 47
4, 23568, Note_on_c, 3, 55, 0
4, 23568, Note_on_c, 3, 57, 48
4, 23614, Note_on_c, 3, 57, 0
4, 23616, Note_on_c, 3, 52, 49
4, 23648, Note_on_c, 3, 52, 0
4, 23664, Note_on_c, 3, 52, 50
4, 23712, Note_on_c, 3, 52, 0
4, 23712, Note_on_c, 3, 53, 51
4, 23760, Note_on_c, 3, 53, 0
4, 23760, Note_on_c, 3, 55, 52
4, 23806, Note_on_c, 3, 55, 0
4, 23808, Note_on_c, 3, 53, 53
4, 23840, Note_on_c, 3, 53, 0
4, 23856, Note_on_c, 3, 53, 54
4, 23904, Note_on_c, 3, 53, 0
4, 23904, Note_on_c, 3, 55, 55
4, 23952, Note_on_c, 3, 55, 0
4, 23952, Note_on_c, 3, 57, 56
4, 23998, Note_on_c, 3, 57, 0
4, 24000, Note_on_c, 3, 58, 57
4, 24160, Note_on_c, 3, 58, 0
4, 24192, Note_on_c, 3, 48, 64
4, 24286, Note_on_c, 3, 48, 0
4, 24288, Note_on_c, 3, 60, 67
4, 24382, Note_on_c, 3, 60, 0
4, 24384, Note_on_c, 3, 48, 70
4, 24478, Note_on_c, 3, 48, 0
4, 24480, Note_on_c, 3, 60, 73
4, 24574, Note_on_c, 3, 60, 0
4, 24576, Note_on_c, 3, 48, 76
4, 24670, Note_on_c, 3, 48, 0
4, 24672, Note_on_c, 3, 60, 80
4, 24766, Note_on_c, 3, 60, 0
4, 24768, Note_on_c, 3, 48, 84
4, 24862, Note_on_c, 3, 48, 0
4, 24960, Note_on_c, 3, 60, 108
4, 26398, Note_on_c, 3, 60, 0
4, 26496, Note_on_c, 3, 65, 45
4, 26782, Note_on_c, 3, 65, 0
4, 26880, Note_on_c, 3, 64, 45
4, 27040, Note_on_c, 3, 64, 0
4, 27168, Note_on_c, 3, 64, 45
4, 27216, Note_on_c, 3, 64, 0
4, 27216, Note_on_c, 3, 63, 45
4, 27262, Note_on_c, 3, 63, 0
4, 27264, Note_on_c, 3, 62, 92
4, 27296, Note_on_c, 3, 62, 0
4, 27312, Note_on_c, 3, 62, 92
4, 27360, Note_on_c, 3, 62, 0
4, 27360, Note_on_c, 3, 60, 92
4, 27408, Note_on_c, 3, 60, 0
4, 27408, Note_on_c, 3, 58, 92
4, 27454, Note_on_c, 3, 58, 0
4, 27456, Note_on_c, 3, 60, 92
4, 27502, Note_on_c, 3, 60, 0
4, 27504, Note_on_c, 3, 60, 92
4, 27550, Note_on_c, 3, 60, 0
4, 27552, Note_on_c, 3, 60, 92
4, 27598, Note_on_c, 3, 60, 0
4, 27600, Note_on_c, 3, 60, 92
4, 27646, Note_on_c, 3, 60, 0
4, 27648, Note_on_c, 3, 48, 92
4, 27648, Note_on_c, 3, 60, 92
4, 27694, Note_on_c, 3, 48, 0
4, 27694, Note_on_c, 3, 60, 0
4, 27696, Note_on_c, 3, 48, 92
4, 27696, Note_on_c, 3, 60, 92
4, 27742, Note_on_c, 3, 48, 0
4, 27742, Note_on_c, 3, 60, 0
4, 27744, Note_on_c, 3, 48, 92
4, 27744, Note_on_c, 3, 60, 92
4, 27790, Note_on_c, 3, 48, 0
4, 27790, Note_on_c, 3, 60, 0
4, 27792, Note_on_c, 3, 48, 92
4, 27792, Note_on_c, 3, 60, 92
4, 27838, Note_on_c, 3, 48, 0
4, 27838, Note_on_c, 3, 60, 0
4, 27840, Note_on_c, 3, 53, 92
4, 28000, Note_on_c, 3, 53, 0
4, 28224, Note_on_c, 3, 69, 45
4, 28256, Note_on_c, 3, 69, 0
4, 28272, Note_on_c, 3, 69, 45
4, 28320, Note_on_c, 3, 69, 0
4, 28320, Note_on_c, 3, 67, 45
4, 28368, Note_on_c, 3, 67, 0
4, 28368, Note_on_c, 3, 66, 45
4, 28414, Note_on_c, 3, 66, 0
4, 28560, Note_on_c, 3, 69, 45
4, 28606, Note_on_c, 3, 69, 0
4, 28608, Note_on_c, 3, 62, 45
4, 28640, Note_on_c, 3, 62, 0
4, 28656, Note_on_c, 3, 62, 45
4, 28704, Note_on_c, 3, 62, 0
4, 28704, Note_on_c, 3, 60, 45
4, 28752, Note_on_c, 3, 60, 0
4, 28752, Note_on_c, 3, 58, 45
4, 28798, Note_on_c, 3, 58, 0
4, 28992, Note_on_c, 3, 67, 45
4, 29024, Note_on_c, 3, 67, 0
4, 29040, Note_on_c, 3, 67, 45
4, 29088, Note_on_c, 3, 67, 0
4, 29088, Note_on_c, 3, 65, 45
4, 29136, Note_on_c, 3, 65, 0
4, 29136, Note_on_c, 3, 64, 45
4, 29182, Note_on_c, 3, 64, 0
4, 29328, Note_on_c, 3, 67, 45
4, 29374, Note_on_c, 3, 67, 0
4, 29376, Note_on_c, 3, 60, 45
4, 29408, Note_on_c, 3, 60, 0
4, 29424, Note_on_c, 3, 60, 45
4, 29472, Note_on_c, 3, 60, 0
4, 29472, Note_on_c, 3, 58, 45
4, 29520, Note_on_c, 3, 58, 0
4, 29520, Note_on_c, 3, 57, 45
4, 29566, Note_on_c, 3, 57, 0
4, 29568, Note_on_c, 3, 53, 45
4, 29600, Note_on_c, 3, 53, 0
4, 29616, Note_on_c, 3, 53, 46
4, 29664, Note_on_c, 3, 53, 0
4, 29664, Note_on_c, 3, 55, 47
4, 29712, Note_on_c, 3, 55, 0
4, 29712, Note_on_c, 3, 57, 48
4, 29758, Note_on_c, 3, 57, 0
4, 29760, Note_on_c, 3, 52, 49
4, 29792, Note_on_c, 3, 52, 0
4, 29808, Note_on_c, 3, 52, 50
4, 29856, Note_on_c, 3, 52, 0
4, 29856, Note_on_c, 3, 53, 51
4, 29904, Note_on_c, 3, 53, 0
4, 29904, Note_on_c, 3, 55, 52
4, 29950, Note_on_c, 3, 55, 0
4, 29952, Note_on_c, 3, 53, 53
4, 29984, Note_on_c, 3, 53, 0
4, 30000, Note_on_c, 3, 53, 54
4, 30048, Note_on_c, 3, 53, 0
4, 30048, Note_on_c, 3, 55, 55
4, 30096, Note_on_c, 3, 55, 0
4, 30096, Note_on_c, 3, 57, 56
4, 30142, Note_on_c, 3, 57, 0
4, 30144, Note_on_c, 3, 58, 57
4, 30304, Note_on_c, 3, 58, 0
4, 30336, Note_on_c, 3, 48, 64
4, 30430, Note_on_c, 3, 48, 0
4, 30432, Note_on_c, 3, 60, 67
4, 30526, Note_on_c, 3, 60, 0
4, 30528, Note_on_c, 3, 48, 70
4, 30622, Note_on_c, 3, 48, 0
4, 30624, Note_on_c, 3, 60, 73
4, 30718, Note_on_c, 3, 60, 0
4, 30720, Note_on_c, 3, 48, 76
4, 30814, Note_on_c, 3, 48, 0
4, 30816, Note_on_c, 3, 60, 80
4, 30910, Note_on_c, 3, 60, 0
4, 30912, Note_on_c, 3, 48, 84
4, 31006, Note_on_c, 3, 48, 0
4, 31104, Note_on_c, 3, 60, 108
4, 32542, Note_on_c, 3, 60, 0
4, 32640, Note_on_c, 3, 65, 45
4, 32926, Note_on_c, 3, 65, 0
4, 33024, Note_on_c, 3, 64, 45
4, 33184, Note_on_c, 3, 64, 0
4, 33312, Note_on_c, 3, 64, 45
4, 33360, Note_on_c, 3, 64, 0
4, 33360, Note_on_c, 3, 63, 45
4, 33406, Note_on_c, 3, 63, 0
4, 33408, Note_on_c, 3, 62, 92
4, 33440, Note_on_c, 3, 62, 0
4, 33456, Note_on_c, 3, 62, 92
4, 33504, Note_on_c, 3, 62, 0
4, 33504, Note_on_c, 3, 60, 92
4, 33552, Note_on_c, 3, 60, 0
4, 33552, Note_on_c, 3, 58, 92
4, 33598, Note_on_c, 3, 58, 0
4, 33600, Note_on_c, 3, 60, 92
4, 33646, Note_on_c, 3, 60, 0
4, 33648, Note_on_c, 3, 60, 92
4, 33694, Note_on_c, 3, 60, 0
4, 33696, Note_on_c, 3, 60, 92
4, 33742, Note_on_c, 3, 60, 0
4, 33744, Note_on_c, 3, 60, 92
4, 33790, Note_on_c, 3, 60, 0
4, 33792, Note_on_c, 3, 48, 92
4, 33792, Note_on_c, 3, 60, 92
4, 33838, Note_on_c, 3, 48, 0
4, 33838, Note_on_c, 3, 60, 0
4, 33840, Note_on_c, 3, 48, 92
4, 33840, Note_on_c, 3, 60, 92
4, 33886, Note_on_c, 3, 48, 0
4, 33886, Note_on_c, 3, 60, 0
4, 33888, Note_on_c, 3, 48, 92
4, 33888, Note_on_c, 3, 60, 92
4, 33934, Note_on_c, 3, 48, 0
4, 33934, Note_on_c, 3, 60, 0
4, 33936, Note_on_c, 3, 48, 92
4, 33936, Note_on_c, 3, 60, 92
4, 33982, Note_on_c, 3, 48, 0
4, 33982, Note_on_c, 3, 60, 0
4, 33984, Note_on_c, 3, 53, 92
4, 34144, Note_on_c, 3, 53, 0
4, 34560, Note_on_c, 3, 69, 45
4, 34592, Note_on_c, 3, 69, 0
4, 34608, Note_on_c, 3, 69, 45
4, 34656, Note_on_c, 3, 69, 0
4, 34656, Note_on_c, 3, 67, 45
4, 34704, Note_on_c, 3, 67, 0
4, 34704, Note_on_c, 3, 65, 45
4, 34750, Note_on_c, 3, 65, 0
4, 34752, Note_on_c, 3, 65, 45
4, 34784, Note_on_c, 3, 65, 0
4, 34800, Note_on_c, 3, 65, 45
4, 34848, Note_on_c, 3, 65, 0
4, 34848, Note_on_c, 3, 64, 45
4, 34896, Note_on_c, 3, 64, 0
4, 34896, Note_on_c, 3, 62, 45
4, 34942, Note_on_c, 3, 62, 0
4, 34944, Note_on_c, 3, 62, 45
4, 35038, Note_on_c, 3, 62, 0
4, 35136, Note_on_c, 3, 67, 51
4, 35230, Note_on_c, 3, 67, 0
4, 35328, Note_on_c, 3, 71, 57
4, 35422, Note_on_c, 3, 71, 0
4, 35520, Note_on_c, 3, 67, 63
4, 35614, Note_on_c, 3, 67, 0
4, 35712, Note_on_c, 3, 67, 69
4, 35806, Note_on_c, 3, 67, 0
4, 35904, Note_on_c, 3, 67, 76
4, 35998, Note_on_c, 3, 67, 0
4, 36096, Note_on_c, 3, 67, 84
4, 36190, Note_on_c, 3, 67, 0
4, 36288, Note_on_c, 3, 59, 127
4, 37200, Note_on_c, 3, 59, 0
4, 37536, Note_on_c, 3, 55, 45
4, 37632, Note_on_c, 3, 55, 0
4, 37632, Note_on_c, 3, 60, 45
4, 37728, Note_on_c, 3, 60, 0
4, 37728, Note_on_c, 3, 64, 45
4, 37824, Note_on_c, 3, 64, 0
4, 37824, Note_on_c, 3, 67, 45
4, 37920, Note_on_c, 3, 67, 0
4, 37920, Note_on_c, 3, 72, 45
4, 38014, Note_on_c, 3, 72, 0
4, 38016, Note_on_c, 3, 74, 45
4, 38352, Note_on_c, 3, 74, 0
4, 38400, Note_on_c, 3, 60, 45
4, 38560, Note_on_c, 3, 60, 0
4, 38592, Note_on_c, 3, 58, 63
4, 38784, Note_on_c, 3, 58, 0
4, 38784, Note_on_c, 3, 59, 45
4, 38878, Note_on_c, 3, 59, 0
4, 38880, Note_on_c, 3, 55, 45
4, 38976, Note_on_c, 3, 55, 0
4, 38976, Note_on_c, 3, 59, 45
4, 39072, Note_on_c, 3, 59, 0
4, 39072, Note_on_c, 3, 62, 45
4, 39166, Note_on_c, 3, 62, 0
4, 39168, Note_on_c, 3, 65, 45
4, 39456, Note_on_c, 3, 65, 0
4, 39456, Note_on_c, 3, 59, 52
4, 39552, Note_on_c, 3, 59, 0
4, 39552, Note_on_c, 3, 62, 54
4, 39648, Note_on_c, 3, 62, 0
4, 39648, Note_on_c, 3, 60, 56
4, 39742, Note_on_c, 3, 60, 0
4, 39744, Note_on_c, 3, 53, 58
4, 39936, Note_on_c, 3, 53, 0
4, 39936, Note_on_c, 3, 50, 63
4, 40128, Note_on_c, 3, 50, 0
4, 40128, Note_on_c, 3, 55, 68
4, 40288, Note_on_c, 3, 55, 0
4, 40320, Note_on_c, 3, 48, 74
4, 40576, Note_on_c, 3, 48, 0
4, 40896, Note_on_c, 3, 60, 45
4, 41152, Note_on_c, 3, 60, 0
4, 41472, Note_on_c, 3, 55, 45
4, 41568, Note_on_c, 3, 55, 0
4, 41568, Note_on_c, 3, 60, 45
4, 41664, Note_on_c, 3, 60, 0
4, 41664, Note_on_c, 3, 59, 45
4, 41758, Note_on_c, 3, 59, 0
4, 42048, Note_on_c, 3, 60, 45
4, 42304, Note_on_c, 3, 60, 0
4, 42624, Note_on_c, 3, 55, 45
4, 42720, Note_on_c, 3, 55, 0
4, 42720, Note_on_c, 3, 60, 45
4, 42816, Note_on_c, 3, 60, 0
4, 42816, Note_on_c, 3, 59, 45
4, 42910, Note_on_c, 3, 59, 0
4, 43200, Note_on_c, 3, 57, 45
4, 43296, Note_on_c, 3, 57, 0
4, 43296, Note_on_c, 3, 54, 60
4, 43368, Note_on_c, 3, 54, 0
4, 43368, Note_on_c, 3, 50, 45
4, 43390, Note_on_c, 3, 50, 0
4, 43392, Note_on_c, 3, 55, 45
4, 43486, Note_on_c, 3, 55, 0
4, 43776, Note_on_c, 3, 57, 45
4, 43872, Note_on_c, 3, 57, 0
4, 43872, Note_on_c, 3, 54, 60
4, 43896, Note_on_c, 3, 54, 0
4, 43896, Note_on_c, 3, 50, 57
4, 43920, Note_on_c, 3, 50, 0
4, 43920, Note_on_c, 3, 54, 53
4, 43944, Note_on_c, 3, 54, 0
4, 43944, Note_on_c, 3, 50, 49
4, 43966, Note_on_c, 3, 50, 0
4, 43968, Note_on_c, 3, 55, 45
4, 44062, Note_on_c, 3, 55, 0
4, 44064, Note_on_c, 3, 55, 45
4, 44224, Note_on_c, 3, 55, 0
4, 44256, Note_on_c, 3, 55, 45
4, 44350, Note_on_c, 3, 55, 0
4, 44352, Note_on_c, 3, 55, 45
4, 44400, Note_on_c, 3, 55, 0
4, 44400, Note_on_c, 3, 56, 52
4, 44448, Note_on_c, 3, 56, 0
4, 44448, Note_on_c, 3, 57, 59
4, 44496, Note_on_c, 3, 57, 0
4, 44496, Note_on_c, 3, 58, 67
4, 44542, Note_on_c, 3, 58, 0
4, 44544, Note_on_c, 3, 59, 45
4, 44638, Note_on_c, 3, 59, 0
4, 44640, Note_on_c, 3, 59, 45
4, 44736, Note_on_c, 3, 59, 0
4, 44736, Note_on_c, 3, 57, 45
4, 44830, Note_on_c, 3, 57, 0
4, 44832, Note_on_c, 3, 57, 45
4, 44926, Note_on_c, 3, 57, 0
4, 45024, Note_on_c, 3, 54, 45
4, 45120, Note_on_c, 3, 54, 0
4, 45120, Note_on_c, 3, 55, 45
4, 45214, Note_on_c, 3, 55, 0
4, 45504, Note_on_c, 3, 62, 45
4, 45792, Note_on_c, 3, 62, 0
4, 45792, Note_on_c, 3, 60, 67
4, 45888, Note_on_c, 3, 60, 0
4, 45888, Note_on_c, 3, 65, 75
4, 45984, Note_on_c, 3, 65, 0
4, 45984, Note_on_c, 3, 64, 60
4, 46056, Note_on_c, 3, 64, 0
4, 46056, Note_on_c, 3, 67, 49
4, 46078, Note_on_c, 3, 67, 0
4, 46176, Note_on_c, 3, 55, 45
4, 46270, Note_on_c, 3, 55, 0
4, 46272, Note_on_c, 3, 55, 45
4, 46366, Note_on_c, 3, 55, 0
4, 46656, Note_on_c, 3, 67, 45
4, 46912, Note_on_c, 3, 67, 0
4, 46944, Note_on_c, 3, 67, 68
4, 47038, Note_on_c, 3, 67, 0
4, 47040, Note_on_c, 3, 67, 76
4, 47134, Note_on_c, 3, 67, 0
4, 47136, Note_on_c, 3, 67, 84
4, 47208, Note_on_c, 3, 67, 0
4, 47208, Note_on_c, 3, 64, 90
4, 47230, Note_on_c, 3, 64, 0
4, 47232, Note_on_c, 3, 62, 92
4, 47326, Note_on_c, 3, 62, 0
4, 47424, Note_on_c, 3, 55, 45
4, 47518, Note_on_c, 3, 55, 0
4, 48024, Note_on_c, 3, 48, 45
4, 48048, Note_on_c, 3, 48, 0
4, 48048, Note_on_c, 3, 52, 45
4, 48072, Note_on_c, 3, 52, 0
4, 48072, Note_on_c, 3, 55, 45
4, 48096, Note_on_c, 3, 55, 0
4, 48096, Note_on_c, 3, 60, 45
4, 48120, Note_on_c, 3, 60, 0
4, 48120, Note_on_c, 3, 55, 45
4, 48144, Note_on_c, 3, 55, 0
4, 48144, Note_on_c, 3, 52, 45
4, 48168, Note_on_c, 3, 52, 0
4, 48168, Note_on_c, 3, 48, 45
4, 48190, Note_on_c, 3, 48, 0
4, 48192, Note_on_c, 3, 60, 45
4, 48598, Note_on_c, 3, 60, 0
4, 48600, Note_on_c, 3, 48, 45
4, 48624, Note_on_c, 3, 48, 0
4, 48624, Note_on_c, 3, 52, 45
4, 48648, Note_on_c, 3, 52, 0
4, 48648, Note_on_c, 3, 55, 45
4, 48672, Note_on_c, 3, 55, 0
4, 48672, Note_on_c, 3, 60, 45
4, 48696, Note_on_c, 3, 60, 0
4, 48696, Note_on_c, 3, 55, 45
4, 48720, Note_on_c, 3, 55, 0
4, 48720, Note_on_c, 3, 52, 45
4, 48744, Note_on_c, 3, 52, 0
4, 48744, Note_on_c, 3, 48, 45
4, 48766, Note_on_c, 3, 48, 0
4, 48768, Note_on_c, 3, 60, 45
4, 49054, Note_on_c, 3, 60, 0
4, 49056, Note_on_c, 3, 48, 54
4, 49056, Note_on_c, 3, 60, 54
4, 49216, Note_on_c, 3, 48, 0
4, 49216, Note_on_c, 3, 60, 0
4, 49248, Note_on_c, 3, 48, 73
4, 49248, Note_on_c, 3, 60, 73
4, 49408, Note_on_c, 3, 48, 0
4, 49408, Note_on_c, 3, 60, 0
4, 49440, Note_on_c, 3, 54, 92
4, 49536, Note_on_c, 3, 54, 0
4, 49536, Note_on_c, 3, 55, 92
4, 49630, Note_on_c, 3, 55, 0
4, 49632, Note_on_c, 3, 55, 45
4, 49728, Note_on_c, 3, 55, 0
4, 49728, Note_on_c, 3, 60, 45
4, 49824, Note_on_c, 3, 60, 0
4, 49824, Note_on_c, 3, 64, 45
4, 49920, Note_on_c, 3, 64, 0
4, 49920, Note_on_c, 3, 65, 45
4, 50016, Note_on_c, 3, 65, 0
4, 50016, Note_on_c, 3, 53, 45
4, 50110, Note_on_c, 3, 53, 0
4, 50112, Note_on_c, 3, 52, 45
4, 50206, Note_on_c, 3, 52, 0
4, 50496, Note_on_c, 3, 55, 30
4, 50530, Note_on_c, 3, 55, 0
4, 50544, Note_on_c, 3, 55, 30
4, 50578, Note_on_c, 3, 55, 0
4, 50592, Note_on_c, 3, 55, 30
4, 50626, Note_on_c, 3, 55, 0
4, 50640, Note_on_c, 3, 55, 30
4, 50672, Note_on_c, 3, 55, 0
4, 50688, Note_on_c, 3, 55, 30
4, 50782, Note_on_c, 3, 55, 0
4, 51072, Note_on_c, 3, 62, 30
4, 51106, Note_on_c, 3, 62, 0
4, 51120, Note_on_c, 3, 62, 30
4, 51154, Note_on_c, 3, 62, 0
4, 51168, Note_on_c, 3, 60, 30
4, 51202, Note_on_c, 3, 60, 0
4, 51216, Note_on_c, 3, 59, 30
4, 51248, Note_on_c, 3, 59, 0
4, 51264, Note_on_c, 3, 60, 30
4, 51358, Note_on_c, 3, 60, 0
4, 51456, Note_on_c, 3, 60, 30
4, 51490, Note_on_c, 3, 60, 0
4, 51504, Note_on_c, 3, 60, 30
4, 51538, Note_on_c, 3, 60, 0
4, 51552, Note_on_c, 3, 58, 30
4, 51586, Note_on_c, 3, 58, 0
4, 51600, Note_on_c, 3, 56, 30
4, 51632, Note_on_c, 3, 56, 0
4, 51648, Note_on_c, 3, 56, 30
4, 51682, Note_on_c, 3, 56, 0
4, 51696, Note_on_c, 3, 56, 33
4, 51730, Note_on_c, 3, 56, 0
4, 51744, Note_on_c, 3, 55, 37
4, 51778, Note_on_c, 3, 55, 0
4, 51792, Note_on_c, 3, 53, 41
4, 51824, Note_on_c, 3, 53, 0
4, 51840, Note_on_c, 3, 60, 45
4, 51934, Note_on_c, 3, 60, 0
4, 52224, Note_on_c, 3, 53, 45
4, 52258, Note_on_c, 3, 53, 0
4, 52272, Note_on_c, 3, 53, 48
4, 52306, Note_on_c, 3, 53, 0
4, 52320, Note_on_c, 3, 52, 52
4, 52354, Note_on_c, 3, 52, 0
4, 52368, Note_on_c, 3, 53, 56
4, 52400, Note_on_c, 3, 53, 0
4, 52416, Note_on_c, 3, 52, 45
4, 52510, Note_on_c, 3, 52, 0
4, 52800, Note_on_c, 3, 52, 30
4, 52966, Note_on_c, 3, 52, 0
4, 52968, Note_on_c, 3, 52, 30
4, 52990, Note_on_c, 3, 52, 0
4, 52992, Note_on_c, 3, 52, 30
4, 53712, Note_on_c, 3, 52, 0
4, 53712, End_track
5, 0, Start_track
5, 0, MIDI_port, 0
5, 0, Title_t, "Violoncello."
5, 0, Program_c, 4, 0
5, 0, Control_c, 4, 7, 127
5, 0, Control_c, 4, 10, 64
5, 192, Note_on_c, 4, 36, 45
5, 480, Note_on_c, 4, 36, 0
5, 480, Note_on_c, 4, 40, 45
5, 576, Note_on_c, 4, 40, 0
5, 576, Note_on_c, 4, 43, 45
5, 672, Note_on_c, 4, 43, 0
5, 672, Note_on_c, 4, 48, 45
5, 766, Note_on_c, 4, 48, 0
5, 768, Note_on_c, 4, 50, 45
5, 1152, Note_on_c, 4, 50, 0
5, 1152, Note_on_c, 4, 48, 45
5, 1312, Note_on_c, 4, 48, 0
5, 1344, Note_on_c, 4, 43, 45
5, 1600, Note_on_c, 4, 43, 0
5, 1920, Note_on_c, 4, 43, 45
5, 2176, Note_on_c, 4, 43, 0
5, 2208, Note_on_c, 4, 55, 60
5, 2304, Note_on_c, 4, 55, 0
5, 2304, Note_on_c, 4, 56, 65
5, 2400, Note_on_c, 4, 56, 0
5, 2400, Note_on_c, 4, 57, 70
5, 2494, Note_on_c, 4, 57, 0
5, 2496, Note_on_c, 4, 53, 45
5, 2656, Note_on_c, 4, 53, 0
5, 2688, Note_on_c, 4, 38, 45
5, 2880, Note_on_c, 4, 38, 0
5, 2880, Note_on_c, 4, 43, 45
5, 3040, Note_on_c, 4, 43, 0
5, 3072, Note_on_c, 4, 36, 45
5, 3328, Note_on_c, 4, 36, 0
5, 3648, Note_on_c, 4, 48, 45
5, 3904, Note_on_c, 4, 48, 0
5, 4224, Note_on_c, 4, 48, 45
5, 4320, Note_on_c, 4, 48, 0
5, 4320, Note_on_c, 4, 52, 45
5, 4416, Note_on_c, 4, 52, 0
5, 4416, Note_on_c, 4, 55, 45
5, 4510, Note_on_c, 4, 55, 0
5, 4800, Note_on_c, 4, 48, 45
5, 5056, Note_on_c, 4, 48, 0
5, 5376, Note_on_c, 4, 48, 45
5, 5472, Note_on_c, 4, 48, 0
5, 5472, Note_on_c, 4, 52, 45
5, 5568, Note_on_c, 4, 52, 0
5, 5568, Note_on_c, 4, 55, 45
5, 5662, Note_on_c, 4, 55, 0
5, 5952, Note_on_c, 4, 48, 45
5, 6144, Note_on_c, 4, 48, 0
5, 6144, Note_on_c, 4, 47, 45
5, 6238, Note_on_c, 4, 47, 0
5, 6528, Note_on_c, 4, 48, 45
5, 6720, Note_on_c, 4, 48, 0
5, 6720, Note_on_c, 4, 47, 45
5, 6880, Note_on_c, 4, 47, 0
5, 6912, Note_on_c, 4, 47, 45
5, 7072, Note_on_c, 4, 47, 0
5, 7104, Note_on_c, 4, 48, 45
5, 7248, Note_on_c, 4, 48, 0
5, 7248, Note_on_c, 4, 49, 67
5, 7294, Note_on_c, 4, 49, 0
5, 7296, Note_on_c, 4, 50, 45
5, 7456, Note_on_c, 4, 50, 0
5, 7488, Note_on_c, 4, 38, 45
5, 7648, Note_on_c, 4, 38, 0
5, 7680, Note_on_c, 4, 43, 45
5, 7936, Note_on_c, 4, 43, 0
5, 7968, Note_on_c, 4, 55, 45
5, 8064, Note_on_c, 4, 55, 0
5, 8064, Note_on_c, 4, 59, 45
5, 8160, Note_on_c, 4, 59, 0
5, 8160, Note_on_c, 4, 62, 45
5, 8254, Note_on_c, 4, 62, 0
5, 8256, Note_on_c, 4, 67, 45
5, 8544, Note_on_c, 4, 67, 0
5, 8544, Note_on_c, 4, 64, 54
5, 8640, Note_on_c, 4, 64, 0
5, 8640, Note_on_c, 4, 59, 57
5, 8736, Note_on_c, 4, 59, 0
5, 8736, Note_on_c, 4, 60, 60
5, 8808, Note_on_c, 4, 60, 0
5, 8808, Note_on_c, 4, 64, 49
5, 8830, Note_on_c, 4, 64, 0
5, 8880, Note_on_c, 4, 66, 45
5, 8928, Note_on_c, 4, 66, 0
5, 8928, Note_on_c, 4, 67, 45
5, 8976, Note_on_c, 4, 67, 0
5, 8976, Note_on_c, 4, 66, 45
5, 9024, Note_on_c, 4, 66, 0
5, 9024, Note_on_c, 4, 67, 45
5, 9118, Note_on_c, 4, 67, 0
5, 9120, Note_on_c, 4, 43, 45
5, 9216, Note_on_c, 4, 43, 0
5, 9216, Note_on_c, 4, 47, 45
5, 9312, Note_on_c, 4, 47, 0
5, 9312, Note_on_c, 4, 50, 45
5, 9406, Note_on_c, 4, 50, 0
5, 9408, Note_on_c, 4, 53, 45
5, 9664, Note_on_c, 4, 53, 0
5, 9696, Note_on_c, 4, 52, 68
5, 9792, Note_on_c, 4, 52, 0
5, 9792, Note_on_c, 4, 47, 76
5, 9888, Note_on_c, 4, 47, 0
5, 9888, Note_on_c, 4, 48, 84
5, 9982, Note_on_c, 4, 48, 0
5, 9984, Note_on_c, 4, 43, 92
5, 10240, Note_on_c, 4, 43, 0
5, 10560, Note_on_c, 4, 48, 60
5, 10816, Note_on_c, 4, 48, 0
5, 10848, Note_on_c, 4, 48, 60
5, 10916, Note_on_c, 4, 48, 0
5, 10944, Note_on_c, 4, 48, 60
5, 11012, Note_on_c, 4, 48, 0
5, 11040, Note_on_c, 4, 48, 60
5, 11072, Note_on_c, 4, 48, 0
5, 11136, Note_on_c, 4, 46, 45
5, 11392, Note_on_c, 4, 46, 0
5, 11424, Note_on_c, 4, 46, 45
5, 11492, Note_on_c, 4, 46, 0
5, 11520, Note_on_c, 4, 46, 45
5, 11588, Note_on_c, 4, 46, 0
5, 11616, Note_on_c, 4, 46, 45
5, 11648, Note_on_c, 4, 46, 0
5, 11712, Note_on_c, 4, 45, 45
5, 11872, Note_on_c, 4, 45, 0
5, 11904, Note_on_c, 4, 45, 68
5, 12064, Note_on_c, 4, 45, 0
5, 12096, Note_on_c, 4, 44, 92
5, 12256, Note_on_c, 4, 44, 0
5, 12288, Note_on_c, 4, 43, 92
5, 12624, Note_on_c, 4, 43, 0
5, 12672, Note_on_c, 4, 43, 45
5, 12832, Note_on_c, 4, 43, 0
5, 12864, Note_on_c, 4, 48, 45
5, 12958, Note_on_c, 4, 48, 0
5, 13248, Note_on_c, 4, 53, 30
5, 13282, Note_on_c, 4, 53, 0
5, 13296, Note_on_c, 4, 53, 30
5, 13330, Note_on_c, 4, 53, 0
5, 13344, Note_on_c, 4, 53, 30
5, 13378, Note_on_c, 4, 53, 0
5, 13392, Note_on_c, 4, 53, 30
5, 13424, Note_on_c, 4, 53, 0
5, 13440, Note_on_c, 4, 52, 30
5, 13534, Note_on_c, 4, 52, 0
5, 13824, Note_on_c, 4, 47, 30
5, 13858, Note_on_c, 4, 47, 0
5, 13872, Note_on_c, 4, 47, 30
5, 13906, Note_on_c, 4, 47, 0
5, 13920, Note_on_c, 4, 45, 30
5, 13954, Note_on_c, 4, 45, 0
5, 13968, Note_on_c, 4, 43, 30
5, 14000, Note_on_c, 4, 43, 0
5, 14016, Note_on_c, 4, 48, 30
5, 14110, Note_on_c, 4, 48, 0
5, 14400, Note_on_c, 4, 36, 30
5, 14494, Note_on_c, 4, 36, 0
5, 14592, Note_on_c, 4, 36, 30
5, 14686, Note_on_c, 4, 36, 0
5, 15936, Note_on_c, 4, 53, 45
5, 16030, Note_on_c, 4, 53, 0
5, 16128, Note_on_c, 4, 53, 45
5, 16222, Note_on_c, 4, 53, 0
5, 16320, Note_on_c, 4, 48, 45
5, 16414, Note_on_c, 4, 48, 0
5, 16704, Note_on_c, 4, 36, 45
5, 16798, Note_on_c, 4, 36, 0
5, 16896, Note_on_c, 4, 48, 45
5, 16990, Note_on_c, 4, 48, 0
5, 17088, Note_on_c, 4, 41, 45
5, 17182, Note_on_c, 4, 41, 0
5, 17280, Note_on_c, 4, 53, 45
5, 17472, Note_on_c, 4, 53, 0
5, 17472, Note_on_c, 4, 48, 45
5, 17566, Note_on_c, 4, 48, 0
5, 17664, Note_on_c, 4, 43, 45
5, 17856, Note_on_c, 4, 43, 0
5, 17856, Note_on_c, 4, 48, 45
5, 17950, Note_on_c, 4, 48, 0
5, 18048, Note_on_c, 4, 53, 92
5, 18080, Note_on_c, 4, 53, 0
5, 18096, Note_on_c, 4, 53, 92
5, 18144, Note_on_c, 4, 53, 0
5, 18144, Note_on_c, 4, 52, 92
5, 18192, Note_on_c, 4, 52, 0
5, 18192, Note_on_c, 4, 50, 92
5, 18238, Note_on_c, 4, 50, 0
5, 18240, Note_on_c, 4, 55, 92
5, 18334, Note_on_c, 4, 55, 0
5, 18432, Note_on_c, 4, 47, 92
5, 18464, Note_on_c, 4, 47, 0
5, 18480, Note_on_c, 4, 47, 92
5, 18528, Note_on_c, 4, 47, 0
5, 18528, Note_on_c, 4, 45, 92
5, 18576, Note_on_c, 4, 45, 0
5, 18576, Note_on_c, 4, 43, 92
5, 18624, Note_on_c, 4, 43, 0
5, 18624, Note_on_c, 4, 48, 92
5, 18784, Note_on_c, 4, 48, 0
5, 19008, Note_on_c, 4, 53, 45
5, 19102, Note_on_c, 4, 53, 0
5, 19200, Note_on_c, 4, 53, 45
5, 19294, Note_on_c, 4, 53, 0
5, 19392, Note_on_c, 4, 48, 45
5, 19486, Note_on_c, 4, 48, 0
5, 19776, Note_on_c, 4, 36, 45
5, 19870, Note_on_c, 4, 36, 0
5, 19968, Note_on_c, 4, 48, 45
5, 20062, Note_on_c, 4, 48, 0
5, 20160, Note_on_c, 4, 41, 45
5, 20254, Note_on_c, 4, 41, 0
5, 20352, Note_on_c, 4, 53, 45
5, 20544, Note_on_c, 4, 53, 0
5, 20544, Note_on_c, 4, 48, 45
5, 20638, Note_on_c, 4, 48, 0
5, 20736, Note_on_c, 4, 43, 45
5, 20928, Note_on_c, 4, 43, 0
5, 20928, Note_on_c, 4, 48, 45
5, 21022, Note_on_c, 4, 48, 0
5, 21120, Note_on_c, 4, 53, 92
5, 21152, Note_on_c, 4, 53, 0
5, 21168, Note_on_c, 4, 53, 92
5, 21216, Note_on_c, 4, 53, 0
5, 21216, Note_on_c, 4, 52, 92
5, 21264, Note_on_c, 4, 52, 0
5, 21264, Note_on_c, 4, 50, 92
5, 21310, Note_on_c, 4, 50, 0
5, 21312, Note_on_c, 4, 55, 92
5, 21406, Note_on_c, 4, 55, 0
5, 21504, Note_on_c, 4, 47, 92
5, 21536, Note_on_c, 4, 47, 0
5, 21552, Note_on_c, 4, 47, 92
5, 21600, Note_on_c, 4, 47, 0
5, 21600, Note_on_c, 4, 45, 92
5, 21648, Note_on_c, 4, 45, 0
5, 21648, Note_on_c, 4, 43, 92
5, 21696, Note_on_c, 4, 43, 0
5, 21696, Note_on_c, 4, 48, 92
5, 21856, Note_on_c, 4, 48, 0
5, 22272, Note_on_c, 4, 63, 45
5, 22304, Note_on_c, 4, 63, 0
5, 22320, Note_on_c, 4, 63, 45
5, 22368, Note_on_c, 4, 63, 0
5, 22368, Note_on_c, 4, 62, 45
5, 22416, Note_on_c, 4, 62, 0
5, 22416, Note_on_c, 4, 60, 45
5, 22462, Note_on_c, 4, 60, 0
5, 22464, Note_on_c, 4, 58, 45
5, 22496, Note_on_c, 4, 58, 0
5, 22512, Note_on_c, 4, 58, 45
5, 22560, Note_on_c, 4, 58, 0
5, 22560, Note_on_c, 4, 57, 45
5, 22608, Note_on_c, 4, 57, 0
5, 22608, Note_on_c, 4, 55, 45
5, 22654, Note_on_c, 4, 55, 0
5, 23040, Note_on_c, 4, 61, 45
5, 23072, Note_on_c, 4, 61, 0
5, 23088, Note_on_c, 4, 61, 45
5, 23136, Note_on_c, 4, 61, 0
5, 23136, Note_on_c, 4, 60, 45
5, 23184, Note_on_c, 4, 60, 0
5, 23184, Note_on_c, 4, 58, 45
5, 23230, Note_on_c, 4, 58, 0
5, 23232, Note_on_c, 4, 57, 45
5, 23264, Note_on_c, 4, 57, 0
5, 23280, Note_on_c, 4, 57, 45
5, 23328, Note_on_c, 4, 57, 0
5, 23328, Note_on_c, 4, 55, 45
5, 23376, Note_on_c, 4, 55, 0
5, 23376, Note_on_c, 4, 53, 45
5, 23422, Note_on_c, 4, 53, 0
5, 23424, Note_on_c, 4, 48, 45
5, 23518, Note_on_c, 4, 48, 0
5, 23520, Note_on_c, 4, 60, 47
5, 23614, Note_on_c, 4, 60, 0
5, 23616, Note_on_c, 4, 48, 50
5, 23710, Note_on_c, 4, 48, 0
5, 23712, Note_on_c, 4, 60, 53
5, 23806, Note_on_c, 4, 60, 0
5, 23808, Note_on_c, 4, 48, 56
5, 23902, Note_on_c, 4, 48, 0
5, 23904, Note_on_c, 4, 60, 59
5, 23998, Note_on_c, 4, 60, 0
5, 24000, Note_on_c, 4, 48, 62
5, 24094, Note_on_c, 4, 48, 0
5, 24096, Note_on_c, 4, 60, 65
5, 24190, Note_on_c, 4, 60, 0
5, 24192, Note_on_c, 4, 41, 68
5, 24224, Note_on_c, 4, 41, 0
5, 24240, Note_on_c, 4, 41, 69
5, 24288, Note_on_c, 4, 41, 0
5, 24288, Note_on_c, 4, 43, 70
5, 24336, Note_on_c, 4, 43, 0
5, 24336, Note_on_c, 4, 45, 71
5, 24382, Note_on_c, 4, 45, 0
5, 24384, Note_on_c, 4, 40, 72
5, 24416, Note_on_c, 4, 40, 0
5, 24432, Note_on_c, 4, 40, 73
5, 24480, Note_on_c, 4, 40, 0
5, 24480, Note_on_c, 4, 41, 74
5, 24528, Note_on_c, 4, 41, 0
5, 24528, Note_on_c, 4, 43, 75
5, 24574, Note_on_c, 4, 43, 0
5, 24576, Note_on_c, 4, 41, 76
5, 24608, Note_on_c, 4, 41, 0
5, 24624, Note_on_c, 4, 41, 78
5, 24672, Note_on_c, 4, 41, 0
5, 24672, Note_on_c, 4, 40, 80
5, 24720, Note_on_c, 4, 40, 0
5, 24720, Note_on_c, 4, 41, 82
5, 24766, Note_on_c, 4, 41, 0
5, 24768, Note_on_c, 4, 36, 84
5, 24862, Note_on_c, 4, 36, 0
5, 25200, Note_on_c, 4, 60, 45
5, 25248, Note_on_c, 4, 60, 0
5, 25248, Note_on_c, 4, 58, 45
5, 25296, Note_on_c, 4, 58, 0
5, 25296, Note_on_c, 4, 57, 45
5, 25342, Note_on_c, 4, 57, 0
5, 25344, Note_on_c, 4, 57, 45
5, 25376, Note_on_c, 4, 57, 0
5, 25392, Note_on_c, 4, 57, 45
5, 25440, Note_on_c, 4, 57, 0
5, 25440, Note_on_c, 4, 55, 45
5, 25488, Note_on_c, 4, 55, 0
5, 25488, Note_on_c, 4, 53, 45
5, 25534, Note_on_c, 4, 53, 0
5, 25536, Note_on_c, 4, 52, 45
5, 25630, Note_on_c, 4, 52, 0
5, 25920, Note_on_c, 4, 62, 45
5, 25952, Note_on_c, 4, 62, 0
5, 25968, Note_on_c, 4, 62, 45
5, 26016, Note_on_c, 4, 62, 0
5, 26016, Note_on_c, 4, 60, 45
5, 26064, Note_on_c, 4, 60, 0
5, 26064, Note_on_c, 4, 58, 45
5, 26110, Note_on_c, 4, 58, 0
5, 26112, Note_on_c, 4, 58, 45
5, 26144, Note_on_c, 4, 58, 0
5, 26160, Note_on_c, 4, 58, 45
5, 26208, Note_on_c, 4, 58, 0
5, 26208, Note_on_c, 4, 57, 45
5, 26256, Note_on_c, 4, 57, 0
5, 26256, Note_on_c, 4, 55, 45
5, 26302, Note_on_c, 4, 55, 0
5, 26304, Note_on_c, 4, 53, 45
5, 26398, Note_on_c, 4, 53, 0
5, 26496, Note_on_c, 4, 58, 45
5, 26688, Note_on_c, 4, 58, 0
5, 26688, Note_on_c, 4, 53, 45
5, 26782, Note_on_c, 4, 53, 0
5, 26880, Note_on_c, 4, 48, 45
5, 27072, Note_on_c, 4, 48, 0
5, 27072, Note_on_c, 4, 53, 45
5, 27166, Note_on_c, 4, 53, 0
5, 27264, Note_on_c, 4, 46, 92
5, 27296, Note_on_c, 4, 46, 0
5, 27312, Note_on_c, 4, 46, 92
5, 27360, Note_on_c, 4, 46, 0
5, 27360, Note_on_c, 4, 45, 92
5, 27408, Note_on_c, 4, 45, 0
5, 27408, Note_on_c, 4, 43, 92
5, 27454, Note_on_c, 4, 43, 0
5, 27456, Note_on_c, 4, 48, 92
5, 27550, Note_on_c, 4, 48, 0
5, 27648, Note_on_c, 4, 40, 92
5, 27680, Note_on_c, 4, 40, 0
5, 27696, Note_on_c, 4, 40, 92
5, 27744, Note_on_c, 4, 40, 0
5, 27744, Note_on_c, 4, 38, 92
5, 27792, Note_on_c, 4, 38, 0
5, 27792, Note_on_c, 4, 36, 92
5, 27840, Note_on_c, 4, 36, 0
5, 27840, Note_on_c, 4, 41, 92
5, 28000, Note_on_c, 4, 41, 0
5, 28416, Note_on_c, 4, 63, 45
5, 28448, Note_on_c, 4, 63, 0
5, 28464, Note_on_c, 4, 63, 45
5, 28512, Note_on_c, 4, 63, 0
5, 28512, Note_on_c, 4, 62, 45
5, 28560, Note_on_c, 4, 62, 0
5, 28560, Note_on_c, 4, 60, 45
5, 28606, Note_on_c, 4, 60, 0
5, 28608, Note_on_c, 4, 58, 45
5, 28640, Note_on_c, 4, 58, 0
5, 28656, Note_on_c, 4, 58, 45
5, 28704, Note_on_c, 4, 58, 0
5, 28704, Note_on_c, 4, 57, 45
5, 28752, Note_on_c, 4, 57, 0
5, 28752, Note_on_c, 4, 55, 45
5, 28798, Note_on_c, 4, 55, 0
5, 29184, Note_on_c, 4, 61, 45
5, 29216, Note_on_c, 4, 61, 0
5, 29232, Note_on_c, 4, 61, 45
5, 29280, Note_on_c, 4, 61, 0
5, 29280, Note_on_c, 4, 60, 45
5, 29328, Note_on_c, 4, 60, 0
5, 29328, Note_on_c, 4, 58, 45
5, 29374, Note_on_c, 4, 58, 0
5, 29376, Note_on_c, 4, 57, 45
5, 29408, Note_on_c, 4, 57, 0
5, 29424, Note_on_c, 4, 57, 45
5, 29472, Note_on_c, 4, 57, 0
5, 29472, Note_on_c, 4, 55, 45
5, 29520, Note_on_c, 4, 55, 0
5, 29520, Note_on_c, 4, 53, 45
5, 29566, Note_on_c, 4, 53, 0
5, 29568, Note_on_c, 4, 48, 45
5, 29662, Note_on_c, 4, 48, 0
5, 29664, Note_on_c, 4, 60, 47
5, 29758, Note_on_c, 4, 60, 0
5, 29760, Note_on_c, 4, 48, 50
5, 29854, Note_on_c, 4, 48, 0
5, 29856, Note_on_c, 4, 60, 53
5, 29950, Note_on_c, 4, 60, 0
5, 29952, Note_on_c, 4, 48, 56
5, 30046, Note_on_c, 4, 48, 0
5, 30048, Note_on_c, 4, 60, 59
5, 30142, Note_on_c, 4, 60, 0
5, 30144, Note_on_c, 4, 48, 62
5, 30238, Note_on_c, 4, 48, 0
5, 30240, Note_on_c, 4, 60, 65
5, 30334, Note_on_c, 4, 60, 0
5, 30336, Note_on_c, 4, 41, 68
5, 30368, Note_on_c, 4, 41, 0
5, 30384, Note_on_c, 4, 41, 69
5, 30432, Note_on_c, 4, 41, 0
5, 30432, Note_on_c, 4, 43, 70
5, 30480, Note_on_c, 4, 43, 0
5, 30480, Note_on_c, 4, 45, 71
5, 30526, Note_on_c, 4, 45, 0
5, 30528, Note_on_c, 4, 40, 72
5, 30560, Note_on_c, 4, 40, 0
5, 30576, Note_on_c, 4, 40, 73
5, 30624, Note_on_c, 4, 40, 0
5, 30624, Note_on_c, 4, 41, 74
5, 30672, Note_on_c, 4, 41, 0
5, 30672, Note_on_c, 4, 43, 75
5, 30718, Note_on_c, 4, 43, 0
5, 30720, Note_on_c, 4, 41, 76
5, 30752, Note_on_c, 4, 41, 0
5, 30768, Note_on_c, 4, 41, 78
5, 30816, Note_on_c, 4, 41, 0
5, 30816, Note_on_c, 4, 40, 80
5, 30864, Note_on_c, 4, 40, 0
5, 30864, Note_on_c, 4, 41, 82
5, 30910, Note_on_c, 4, 41, 0
5, 30912, Note_on_c, 4, 36, 84
5, 31006, Note_on_c, 4, 36, 0
5, 31344, Note_on_c, 4, 60, 45
5, 31392, Note_on_c, 4, 60, 0
5, 31392, Note_on_c, 4, 58, 45
5, 31440, Note_on_c, 4, 58, 0
5, 31440, Note_on_c, 4, 57, 45
5, 31486, Note_on_c, 4, 57, 0
5, 31488, Note_on_c, 4, 57, 45
5, 31520, Note_on_c, 4, 57, 0
5, 31536, Note_on_c, 4, 57, 45
5, 31584, Note_on_c, 4, 57, 0
5, 31584, Note_on_c, 4, 55, 45
5, 31632, Note_on_c, 4, 55, 0
5, 31632, Note_on_c, 4, 53, 45
5, 31678, Note_on_c, 4, 53, 0
5, 31680, Note_on_c, 4, 52, 45
5, 31774, Note_on_c, 4, 52, 0
5, 32064, Note_on_c, 4, 62, 45
5, 32096, Note_on_c, 4, 62, 0
5, 32112, Note_on_c, 4, 62, 45
5, 32160, Note_on_c, 4, 62, 0
5, 32160, Note_on_c, 4, 60, 45
5, 32208, Note_on_c, 4, 60, 0
5, 32208, Note_on_c, 4, 58, 45
5, 32254, Note_on_c, 4, 58, 0
5, 32256, Note_on_c, 4, 58, 45
5, 32288, Note_on_c, 4, 58, 0
5, 32304, Note_on_c, 4, 58, 45
5, 32352, Note_on_c, 4, 58, 0
5, 32352, Note_on_c, 4, 57, 45
5, 32400, Note_on_c, 4, 57, 0
5, 32400, Note_on_c, 4, 55, 45
5, 32446, Note_on_c, 4, 55, 0
5, 32448, Note_on_c, 4, 53, 45
5, 32542, Note_on_c, 4, 53, 0
5, 32640, Note_on_c, 4, 58, 45
5, 32832, Note_on_c, 4, 58, 0
5, 32832, Note_on_c, 4, 53, 45
5, 32926, Note_on_c, 4, 53, 0
5, 33024, Note_on_c, 4, 48, 45
5, 33216, Note_on_c, 4, 48, 0
5, 33216, Note_on_c, 4, 53, 45
5, 33310, Note_on_c, 4, 53, 0
5, 33408, Note_on_c, 4, 46, 92
5, 33440, Note_on_c, 4, 46, 0
5, 33456, Note_on_c, 4, 46, 92
5, 33504, Note_on_c, 4, 46, 0
5, 33504, Note_on_c, 4, 45, 92
5, 33552, Note_on_c, 4, 45, 0
5, 33552, Note_on_c, 4, 43, 92
5, 33598, Note_on_c, 4, 43, 0
5, 33600, Note_on_c, 4, 48, 92
5, 33694, Note_on_c, 4, 48, 0
5, 33792, Note_on_c, 4, 40, 92
5, 33824, Note_on_c, 4, 40, 0
5, 33840, Note_on_c, 4, 40, 92
5, 33888, Note_on_c, 4, 40, 0
5, 33888, Note_on_c, 4, 38, 92
5, 33936, Note_on_c, 4, 38, 0
5, 33936, Note_on_c, 4, 36, 92
5, 33984, Note_on_c, 4, 36, 0
5, 33984, Note_on_c, 4, 41, 92
5, 34144, Note_on_c, 4, 41, 0
5, 34944, Note_on_c, 4, 57, 45
5, 34976, Note_on_c, 4, 57, 0
5, 34992, Note_on_c, 4, 57, 46
5, 35040, Note_on_c, 4, 57, 0
5, 35040, Note_on_c, 4, 55, 47
5, 35088, Note_on_c, 4, 55, 0
5, 35088, Note_on_c, 4, 53, 48
5, 35134, Note_on_c, 4, 53, 0
5, 35136, Note_on_c, 4, 53, 49
5, 35168, Note_on_c, 4, 53, 0
5, 35184, Note_on_c, 4, 53, 50
5, 35232, Note_on_c, 4, 53, 0
5, 35232, Note_on_c, 4, 52, 51
5, 35280, Note_on_c, 4, 52, 0
5, 35280, Note_on_c, 4, 50, 52
5, 35326, Note_on_c, 4, 50, 0
5, 35328, Note_on_c, 4, 50, 53
5, 35360, Note_on_c, 4, 50, 0
5, 35376, Note_on_c, 4, 50, 54
5, 35424, Note_on_c, 4, 50, 0
5, 35424, Note_on_c, 4, 48, 56
5, 35472, Note_on_c, 4, 48, 0
5, 35472, Note_on_c, 4, 47, 58
5, 35518, Note_on_c, 4, 47, 0
5, 35520, Note_on_c, 4, 47, 60
5, 35552, Note_on_c, 4, 47, 0
5, 35568, Note_on_c, 4, 47, 62
5, 35616, Note_on_c, 4, 47, 0
5, 35616, Note_on_c, 4, 45, 64
5, 35664, Note_on_c, 4, 45, 0
5, 35664, Note_on_c, 4, 43, 66
5, 35710, Note_on_c, 4, 43, 0
5, 35712, Note_on_c, 4, 47, 68
5, 35744, Note_on_c, 4, 47, 0
5, 35760, Note_on_c, 4, 47, 70
5, 35808, Note_on_c, 4, 47, 0
5, 35808, Note_on_c, 4, 45, 72
5, 35856, Note_on_c, 4, 45, 0
5, 35856, Note_on_c, 4, 43, 74
5, 35902, Note_on_c, 4, 43, 0
5, 35904, Note_on_c, 4, 47, 76
5, 35936, Note_on_c, 4, 47, 0
5, 35952, Note_on_c, 4, 47, 78
5, 36000, Note_on_c, 4, 47, 0
5, 36000, Note_on_c, 4, 45, 80
5, 36048, Note_on_c, 4, 45, 0
5, 36048, Note_on_c, 4, 43, 82
5, 36094, Note_on_c, 4, 43, 0
5, 36096, Note_on_c, 4, 47, 84
5, 36128, Note_on_c, 4, 47, 0
5, 36144, Note_on_c, 4, 47, 86
5, 36192, Note_on_c, 4, 47, 0
5, 36192, Note_on_c, 4, 45, 88
5, 36240, Note_on_c, 4, 45, 0
5, 36240, Note_on_c, 4, 43, 90
5, 36286, Note_on_c, 4, 43, 0
5, 36288, Note_on_c, 4, 47, 127
5, 36320, Note_on_c, 4, 47, 0
5, 36336, Note_on_c, 4, 47, 92
5, 36384, Note_on_c, 4, 47, 0
5, 36384, Note_on_c, 4, 45, 92
5, 36432, Note_on_c, 4, 45, 0
5, 36432, Note_on_c, 4, 43, 92
5, 37200, Note_on_c, 4, 43, 0
5, 37248, Note_on_c, 4, 55, 45
5, 37408, Note_on_c, 4, 55, 0
5, 37440, Note_on_c, 4, 60, 45
5, 37728, Note_on_c, 4, 60, 0
5, 37728, Note_on_c, 4, 55, 45
5, 37824, Note_on_c, 4, 55, 0
5, 37824, Note_on_c, 4, 52, 45
5, 37920, Note_on_c, 4, 52, 0
5, 37920, Note_on_c, 4, 48, 45
5, 38014, Note_on_c, 4, 48, 0
5, 38016, Note_on_c, 4, 48, 45
5, 38208, Note_on_c, 4, 48, 0
5, 38208, Note_on_c, 4, 47, 45
5, 38400, Note_on_c, 4, 47, 0
5, 38400, Note_on_c, 4, 48, 45
5, 38560, Note_on_c, 4, 48, 0
5, 38592, Note_on_c, 4, 50, 45
5, 38616, Note_on_c, 4, 50, 0
5, 38616, Note_on_c, 4, 48, 45
5, 38640, Note_on_c, 4, 48, 0
5, 38640, Note_on_c, 4, 47, 45
5, 38664, Note_on_c, 4, 47, 0
5, 38664, Note_on_c, 4, 48, 45
5, 38686, Note_on_c, 4, 48, 0
5, 38688, Note_on_c, 4, 52, 63
5, 38784, Note_on_c, 4, 52, 0
5, 38784, Note_on_c, 4, 50, 45
5, 38878, Note_on_c, 4, 50, 0
5, 39072, Note_on_c, 4, 50, 45
5, 39166, Note_on_c, 4, 50, 0
5, 39168, Note_on_c, 4, 53, 45
5, 39456, Note_on_c, 4, 53, 0
5, 39456, Note_on_c, 4, 50, 52
5, 39552, Note_on_c, 4, 50, 0
5, 39552, Note_on_c, 4, 47, 54
5, 39648, Note_on_c, 4, 47, 0
5, 39648, Note_on_c, 4, 48, 56
5, 39742, Note_on_c, 4, 48, 0
5, 39744, Note_on_c, 4, 41, 58
5, 39904, Note_on_c, 4, 41, 0
5, 39936, Note_on_c, 4, 69, 63
5, 40176, Note_on_c, 4, 69, 0
5, 40176, Note_on_c, 4, 67, 69
5, 40200, Note_on_c, 4, 67, 0
5, 40200, Note_on_c, 4, 65, 69
5, 40224, Note_on_c, 4, 65, 0
5, 40224, Note_on_c, 4, 64, 69
5, 40248, Note_on_c, 4, 64, 0
5, 40248, Note_on_c, 4, 62, 69
5, 40272, Note_on_c, 4, 62, 0
5, 40272, Note_on_c, 4, 60, 69
5, 40296, Note_on_c, 4, 60, 0
5, 40296, Note_on_c, 4, 59, 69
5, 40318, Note_on_c, 4, 59, 0
5, 40320, Note_on_c, 4, 62, 69
5, 40512, Note_on_c, 4, 62, 0
5, 40512, Note_on_c, 4, 60, 76
5, 40606, Note_on_c, 4, 60, 0
5, 40896, Note_on_c, 4, 36, 45
5, 40944, Note_on_c, 4, 36, 0
5, 40944, Note_on_c, 4, 48, 45
5, 40992, Note_on_c, 4, 48, 0
5, 40992, Note_on_c, 4, 52, 45
5, 41040, Note_on_c, 4, 52, 0
5, 41040, Note_on_c, 4, 55, 45
5, 41086, Note_on_c, 4, 55, 0
5, 41088, Note_on_c, 4, 60, 45
5, 41182, Note_on_c, 4, 60, 0
5, 41472, Note_on_c, 4, 48, 45
5, 41568, Note_on_c, 4, 48, 0
5, 41568, Note_on_c, 4, 52, 45
5, 41664, Note_on_c, 4, 52, 0
5, 41664, Note_on_c, 4, 55, 45
5, 41758, Note_on_c, 4, 55, 0
5, 42048, Note_on_c, 4, 36, 45
5, 42072, Note_on_c, 4, 36, 0
5, 42072, Note_on_c, 4, 43, 45
5, 42096, Note_on_c, 4, 43, 0
5, 42096, Note_on_c, 4, 48, 45
5, 42120, Note_on_c, 4, 48, 0
5, 42120, Note_on_c, 4, 43, 45
5, 42144, Note_on_c, 4, 43, 0
5, 42144, Note_on_c, 4, 52, 45
5, 42168, Note_on_c, 4, 52, 0
5, 42168, Note_on_c, 4, 48, 45
5, 42192, Note_on_c, 4, 48, 0
5, 42192, Note_on_c, 4, 55, 45
5, 42216, Note_on_c, 4, 55, 0
5, 42216, Note_on_c, 4, 52, 45
5, 42238, Note_on_c, 4, 52, 0
5, 42240, Note_on_c, 4, 60, 45
5, 42334, Note_on_c, 4, 60, 0
5, 42624, Note_on_c, 4, 48, 45
5, 42720, Note_on_c, 4, 48, 0
5, 42720, Note_on_c, 4, 52, 45
5, 42816, Note_on_c, 4, 52, 0
5, 42816, Note_on_c, 4, 55, 45
5, 42838, Note_on_c, 4, 55, 0
5, 42840, Note_on_c, 4, 43, 45
5, 42864, Note_on_c, 4, 43, 0
5, 42864, Note_on_c, 4, 47, 45
5, 42888, Note_on_c, 4, 47, 0
5, 42888, Note_on_c, 4, 50, 45
5, 42912, Note_on_c, 4, 50, 0
5, 42912, Note_on_c, 4, 55, 45
5, 42936, Note_on_c, 4, 55, 0
5, 42936, Note_on_c, 4, 59, 45
5, 42960, Note_on_c, 4, 59, 0
5, 42960, Note_on_c, 4, 62, 45
5, 42984, Note_on_c, 4, 62, 0
5, 42984, Note_on_c, 4, 60, 45
5, 43008, Note_on_c, 4, 60, 0
5, 43008, Note_on_c, 4, 59, 45
5, 43032, Note_on_c, 4, 59, 0
5, 43032, Note_on_c, 4, 57, 45
5, 43056, Note_on_c, 4, 57, 0
5, 43056, Note_on_c, 4, 55, 45
5, 43080, Note_on_c, 4, 55, 0
5, 43080, Note_on_c, 4, 54, 45
5, 43104, Note_on_c, 4, 54, 0
5, 43104, Note_on_c, 4, 55, 45
5, 43128, Note_on_c, 4, 55, 0
5, 43128, Note_on_c, 4, 50, 45
5, 43152, Note_on_c, 4, 50, 0
5, 43152, Note_on_c, 4, 47, 45
5, 43176, Note_on_c, 4, 47, 0
5, 43176, Note_on_c, 4, 43, 45
5, 43198, Note_on_c, 4, 43, 0
5, 43200, Note_on_c, 4, 48, 45
5, 43360, Note_on_c, 4, 48, 0
5, 43392, Note_on_c, 4, 47, 45
5, 43608, Note_on_c, 4, 47, 0
5, 43608, Note_on_c, 4, 50, 45
5, 43632, Note_on_c, 4, 50, 0
5, 43632, Note_on_c, 4, 49, 45
5, 43656, Note_on_c, 4, 49, 0
5, 43656, Note_on_c, 4, 50, 45
5, 43680, Note_on_c, 4, 50, 0
5, 43680, Note_on_c, 4, 48, 45
5, 43704, Note_on_c, 4, 48, 0
5, 43704, Note_on_c, 4, 47, 45
5, 43728, Note_on_c, 4, 47, 0
5, 43728, Note_on_c, 4, 45, 45
5, 43752, Note_on_c, 4, 45, 0
5, 43752, Note_on_c, 4, 43, 45
5, 43774, Note_on_c, 4, 43, 0
5, 43776, Note_on_c, 4, 48, 45
5, 43936, Note_on_c, 4, 48, 0
5, 43968, Note_on_c, 4, 47, 45
5, 44184, Note_on_c, 4, 47, 0
5, 44184, Note_on_c, 4, 50, 45
5, 44208, Note_on_c, 4, 50, 0
5, 44208, Note_on_c, 4, 49, 45
5, 44232, Note_on_c, 4, 49, 0
5, 44232, Note_on_c, 4, 50, 45
5, 44256, Note_on_c, 4, 50, 0
5, 44256, Note_on_c, 4, 48, 45
5, 44280, Note_on_c, 4, 48, 0
5, 44280, Note_on_c, 4, 47, 45
5, 44304, Note_on_c, 4, 47, 0
5, 44304, Note_on_c, 4, 45, 45
5, 44328, Note_on_c, 4, 45, 0
5, 44328, Note_on_c, 4, 43, 45
5, 44350, Note_on_c, 4, 43, 0
5, 44352, Note_on_c, 4, 48, 45
5, 44496, Note_on_c, 4, 48, 0
5, 44496, Note_on_c, 4, 49, 67
5, 44542, Note_on_c, 4, 49, 0
5, 44544, Note_on_c, 4, 50, 45
5, 44704, Note_on_c, 4, 50, 0
5, 44736, Note_on_c, 4, 38, 45
5, 44896, Note_on_c, 4, 38, 0
5, 44928, Note_on_c, 4, 43, 45
5, 45144, Note_on_c, 4, 43, 0
5, 45144, Note_on_c, 4, 43, 45
5, 45168, Note_on_c, 4, 43, 0
5, 45168, Note_on_c, 4, 47, 45
5, 45192, Note_on_c, 4, 47, 0
5, 45192, Note_on_c, 4, 50, 45
5, 45216, Note_on_c, 4, 50, 0
5, 45216, Note_on_c, 4, 55, 45
5, 45240, Note_on_c, 4, 55, 0
5, 45240, Note_on_c, 4, 47, 45
5, 45264, Note_on_c, 4, 47, 0
5, 45264, Note_on_c, 4, 50, 45
5, 45288, Note_on_c, 4, 50, 0
5, 45288, Note_on_c, 4, 55, 45
5, 45312, Note_on_c, 4, 55, 0
5, 45312, Note_on_c, 4, 59, 45
5, 45336, Note_on_c, 4, 59, 0
5, 45336, Note_on_c, 4, 50, 45
5, 45360, Note_on_c, 4, 50, 0
5, 45360, Note_on_c, 4, 55, 45
5, 45384, Note_on_c, 4, 55, 0
5, 45384, Note_on_c, 4, 59, 45
5, 45408, Note_on_c, 4, 59, 0
5, 45408, Note_on_c, 4, 62, 45
5, 45432, Note_on_c, 4, 62, 0
5, 45432, Note_on_c, 4, 55, 45
5, 45456, Note_on_c, 4, 55, 0
5, 45456, Note_on_c, 4, 59, 45
5, 45480, Note_on_c, 4, 59, 0
5, 45480, Note_on_c, 4, 62, 45
5, 45502, Note_on_c, 4, 62, 0
5, 45504, Note_on_c, 4, 65, 45
5, 45792, Note_on_c, 4, 65, 0
5, 45792, Note_on_c, 4, 64, 67
5, 45888, Note_on_c, 4, 64, 0
5, 45888, Note_on_c, 4, 59, 75
5, 45984, Note_on_c, 4, 59, 0
5, 45984, Note_on_c, 4, 60, 60
5, 46056, Note_on_c, 4, 60, 0
5, 46056, Note_on_c, 4, 64, 49
5, 46078, Note_on_c, 4, 64, 0
5, 46080, Note_on_c, 4, 67, 60
5, 46200, Note_on_c, 4, 67, 0
5, 46200, Note_on_c, 4, 66, 45
5, 46224, Note_on_c, 4, 66, 0
5, 46224, Note_on_c, 4, 67, 45
5, 46248, Note_on_c, 4, 67, 0
5, 46248, Note_on_c, 4, 66, 45
5, 46272, Note_on_c, 4, 66, 0
5, 46272, Note_on_c, 4, 67, 45
5, 46294, Note_on_c, 4, 67, 0
5, 46296, Note_on_c, 4, 43, 45
5, 46320, Note_on_c, 4, 43, 0
5, 46320, Note_on_c, 4, 47, 45
5, 46344, Note_on_c, 4, 47, 0
5, 46344, Note_on_c, 4, 50, 45
5, 46368, Note_on_c, 4, 50, 0
5, 46368, Note_on_c, 4, 55, 45
5, 46392, Note_on_c, 4, 55, 0
5, 46392, Note_on_c, 4, 47, 45
5, 46416, Note_on_c, 4, 47, 0
5, 46416, Note_on_c, 4, 50, 45
5, 46440, Note_on_c, 4, 50, 0
5, 46440, Note_on_c, 4, 55, 45
5, 46464, Note_on_c, 4, 55, 0
5, 46464, Note_on_c, 4, 59, 45
5, 46488, Note_on_c, 4, 59, 0
5, 46488, Note_on_c, 4, 50, 45
5, 46512, Note_on_c, 4, 50, 0
5, 46512, Note_on_c, 4, 55, 45
5, 46536, Note_on_c, 4, 55, 0
5, 46536, Note_on_c, 4, 59, 45
5, 46560, Note_on_c, 4, 59, 0
5, 46560, Note_on_c, 4, 62, 45
5, 46584, Note_on_c, 4, 62, 0
5, 46584, Note_on_c, 4, 55, 45
5, 46608, Note_on_c, 4, 55, 0
5, 46608, Note_on_c, 4, 59, 45
5, 46632, Note_on_c, 4, 59, 0
5, 46632, Note_on_c, 4, 62, 45
5, 46654, Note_on_c, 4, 62, 0
5, 46656, Note_on_c, 4, 65, 45
5, 46944, Note_on_c, 4, 65, 0
5, 46944, Note_on_c, 4, 64, 68
5, 47040, Note_on_c, 4, 64, 0
5, 47040, Note_on_c, 4, 59, 76
5, 47136, Note_on_c, 4, 59, 0
5, 47136, Note_on_c, 4, 60, 84
5, 47230, Note_on_c, 4, 60, 0
5, 47232, Note_on_c, 4, 55, 92
5, 47326, Note_on_c, 4, 55, 0
5, 47424, Note_on_c, 4, 43, 45
5, 47640, Note_on_c, 4, 43, 0
5, 47640, Note_on_c, 4, 42, 45
5, 47664, Note_on_c, 4, 42, 0
5, 47664, Note_on_c, 4, 43, 45
5, 47688, Note_on_c, 4, 43, 0
5, 47688, Note_on_c, 4, 42, 45
5, 47712, Note_on_c, 4, 42, 0
5, 47712, Note_on_c, 4, 43, 45
5, 47736, Note_on_c, 4, 43, 0
5, 47736, Note_on_c, 4, 41, 45
5, 47760, Note_on_c, 4, 41, 0
5, 47760, Note_on_c, 4, 40, 45
5, 47784, Note_on_c, 4, 40, 0
5, 47784, Note_on_c, 4, 38, 45
5, 47808, Note_on_c, 4, 38, 0
5, 47808, Note_on_c, 4, 36, 45
5, 47824, Note_on_c, 4, 36, 0
5, 47832, Note_on_c, 4, 36, 45
5, 47856, Note_on_c, 4, 36, 0
5, 47856, Note_on_c, 4, 40, 45
5, 47880, Note_on_c, 4, 40, 0
5, 47880, Note_on_c, 4, 43, 45
5, 47904, Note_on_c, 4, 43, 0
5, 47904, Note_on_c, 4, 48, 45
5, 47928, Note_on_c, 4, 48, 0
5, 47928, Note_on_c, 4, 43, 45
5, 47952, Note_on_c, 4, 43, 0
5, 47952, Note_on_c, 4, 40, 45
5, 47976, Note_on_c, 4, 40, 0
5, 47976, Note_on_c, 4, 36, 45
5, 47998, Note_on_c, 4, 36, 0
5, 48000, Note_on_c, 4, 48, 45
5, 48384, Note_on_c, 4, 48, 0
5, 48384, Note_on_c, 4, 46, 45
5, 48400, Note_on_c, 4, 46, 0
5, 48408, Note_on_c, 4, 46, 45
5, 48432, Note_on_c, 4, 46, 0
5, 48432, Note_on_c, 4, 52, 45
5, 48456, Note_on_c, 4, 52, 0
5, 48456, Note_on_c, 4, 55, 45
5, 48480, Note_on_c, 4, 55, 0
5, 48480, Note_on_c, 4, 58, 45
5, 48504, Note_on_c, 4, 58, 0
5, 48504, Note_on_c, 4, 55, 45
5, 48528, Note_on_c, 4, 55, 0
5, 48528, Note_on_c, 4, 52, 45
5, 48552, Note_on_c, 4, 52, 0
5, 48552, Note_on_c, 4, 46, 45
5, 48574, Note_on_c, 4, 46, 0
5, 48576, Note_on_c, 4, 58, 45
5, 48736, Note_on_c, 4, 58, 0
5, 48768, Note_on_c, 4, 46, 45
5, 48928, Note_on_c, 4, 46, 0
5, 48960, Note_on_c, 4, 45, 45
5, 49120, Note_on_c, 4, 45, 0
5, 49152, Note_on_c, 4, 45, 68
5, 49312, Note_on_c, 4, 45, 0
5, 49344, Note_on_c, 4, 44, 92
5, 49504, Note_on_c, 4, 44, 0
5, 49536, Note_on_c, 4, 43, 92
5, 49632, Note_on_c, 4, 43, 0
5, 49632, Note_on_c, 4, 48, 45
5, 49728, Note_on_c, 4, 48, 0
5, 49728, Note_on_c, 4, 52, 45
5, 49824, Note_on_c, 4, 52, 0
5, 49824, Note_on_c, 4, 55, 45
5, 49918, Note_on_c, 4, 55, 0
5, 49920, Note_on_c, 4, 43, 45
5, 50080, Note_on_c, 4, 43, 0
5, 50112, Note_on_c, 4, 48, 45
5, 50206, Note_on_c, 4, 48, 0
5, 50496, Note_on_c, 4, 53, 30
5, 50530, Note_on_c, 4, 53, 0
5, 50544, Note_on_c, 4, 53, 30
5, 50578, Note_on_c, 4, 53, 0
5, 50592, Note_on_c, 4, 53, 30
5, 50626, Note_on_c, 4, 53, 0
5, 50640, Note_on_c, 4, 53, 30
5, 50672, Note_on_c, 4, 53, 0
5, 50688, Note_on_c, 4, 52, 30
5, 50782, Note_on_c, 4, 52, 0
5, 51072, Note_on_c, 4, 47, 30
5, 51106, Note_on_c, 4, 47, 0
5, 51120, Note_on_c, 4, 47, 30
5, 51154, Note_on_c, 4, 47, 0
5, 51168, Note_on_c, 4, 45, 30
5, 51202, Note_on_c, 4, 45, 0
5, 51216, Note_on_c, 4, 43, 30
5, 51248, Note_on_c, 4, 43, 0
5, 51264, Note_on_c, 4, 48, 30
5, 51358, Note_on_c, 4, 48, 0
5, 51648, Note_on_c, 4, 48, 30
5, 51682, Note_on_c, 4, 48, 0
5, 51696, Note_on_c, 4, 48, 33
5, 51730, Note_on_c, 4, 48, 0
5, 51744, Note_on_c, 4, 48, 37
5, 51778, Note_on_c, 4, 48, 0
5, 51792, Note_on_c, 4, 48, 41
5, 51824, Note_on_c, 4, 48, 0
5, 51840, Note_on_c, 4, 48, 45
5, 51934, Note_on_c, 4, 48, 0
5, 52032, Note_on_c, 4, 48, 45
5, 52066, Note_on_c, 4, 48, 0
5, 52080, Note_on_c, 4, 48, 45
5, 52114, Note_on_c, 4, 48, 0
5, 52128, Note_on_c, 4, 46, 45
5, 52162, Note_on_c, 4, 46, 0
5, 52176, Note_on_c, 4, 44, 45
5, 52208, Note_on_c, 4, 44, 0
5, 52224, Note_on_c, 4, 44, 45
5, 52258, Note_on_c, 4, 44, 0
5, 52272, Note_on_c, 4, 44, 48
5, 52306, Note_on_c, 4, 44, 0
5, 52320, Note_on_c, 4, 43, 52
5, 52354, Note_on_c, 4, 43, 0
5, 52368, Note_on_c, 4, 41, 56
5, 52400, Note_on_c, 4, 41, 0
5, 52416, Note_on_c, 4, 48, 45
5, 52510, Note_on_c, 4, 48, 0
5, 52800, Note_on_c, 4, 36, 30
5, 52966, Note_on_c, 4, 36, 0
5, 52968, Note_on_c, 4, 36, 30
5, 52990, Note_on_c, 4, 36, 0
5, 52992, Note_on_c, 4, 36, 30
5, 53712, Note_on_c, 4, 36, 0
5, 53712, End_track
0, 0, End_of_file