0, 0, Header, 1, 17, 120
1, 0, Start_track
1, 0, Title_t, "Piano Concerto No. 2 in B-flat Major, Op. 19"
1, 0, Title_t, "Mov't. 2"
1, 0, Text_t, "Ludwig van Beethoven"
1, 0, Text_t, "Adagio"
1, 0, Text_t, "\012"
1, 0, Time_signature, 3, 2, 24, 8
1, 0, Key_signature, -3, "major"
1, 0, Tempo, 869565
1, 0, Marker_t, "Adagio"
1, 22080, Tempo, 937500
1, 22200, Tempo, 1016949
1, 22320, Tempo, 1111111
1, 22440, Tempo, 1016949
1, 22560, Tempo, 937500
1, 22680, Tempo, 869565
1, 32760, Tempo, 1538462
1, 32880, Tempo, 3157895
1, 32880, End_track
2, 0, Start_track
2, 0, MIDI_port, 0
2, 0, Title_t, "Flutes"
2, 0, Program_c, 0, 73
2, 0, Control_c, 0, 7, 100
2, 0, Control_c, 0, 10, 40
2, 0, Control_c, 0, 93, 0
2, 0, Control_c, 0, 91, 66
2, 2025, Note_on_c, 0, 81, 95
2, 2040, Note_on_c, 0, 81, 0
2, 2040, Note_on_c, 0, 81, 95
2, 2130, Note_on_c, 0, 81, 0
2, 2145, Note_on_c, 0, 81, 93
2, 2160, Note_on_c, 0, 81, 0
2, 2160, Note_on_c, 0, 82, 94
2, 2280, Control_c, 0, 7, 98
2, 2282, Control_c, 0, 7, 94
2, 2284, Control_c, 0, 7, 90
2, 2286, Control_c, 0, 7, 86
2, 2288, Control_c, 0, 7, 81
2, 2290, Control_c, 0, 7, 77
2, 2292, Control_c, 0, 7, 73
2, 2294, Control_c, 0, 7, 69
2, 2296, Control_c, 0, 7, 64
2, 2520, Control_c, 0, 7, 64
2, 2532, Control_c, 0, 7, 65
2, 2542, Control_c, 0, 7, 66
2, 2552, Control_c, 0, 7, 67
2, 2562, Control_c, 0, 7, 68
2, 2572, Control_c, 0, 7, 69
2, 2582, Control_c, 0, 7, 70
2, 2592, Control_c, 0, 7, 71
2, 2604, Control_c, 0, 7, 72
2, 2614, Control_c, 0, 7, 73
2, 2624, Control_c, 0, 7, 74
2, 2634, Control_c, 0, 7, 75
2, 2640, Note_on_c, 0, 82, 0
2, 2640, Note_on_c, 0, 82, 73
2, 2644, Control_c, 0, 7, 76
2, 2654, Control_c, 0, 7, 77
2, 2664, Control_c, 0, 7, 78
2, 2676, Control_c, 0, 7, 79
2, 2686, Control_c, 0, 7, 80
2, 2696, Control_c, 0, 7, 81
2, 2700, Note_on_c, 0, 82, 0
2, 2700, Note_on_c, 0, 82, 84
2, 2706, Control_c, 0, 7, 82
2, 2716, Control_c, 0, 7, 83
2, 2726, Control_c, 0, 7, 84
2, 2736, Control_c, 0, 7, 85
2, 2748, Control_c, 0, 7, 86
2, 2758, Control_c, 0, 7, 87
2, 2768, Control_c, 0, 7, 88
2, 2778, Control_c, 0, 7, 89
2, 2788, Control_c, 0, 7, 90
2, 2798, Control_c, 0, 7, 91
2, 2808, Control_c, 0, 7, 92
2, 2820, Note_on_c, 0, 82, 0
2, 2820, Note_on_c, 0, 82, 76
2, 2820, Control_c, 0, 7, 93
2, 2830, Control_c, 0, 7, 94
2, 2840, Control_c, 0, 7, 95
2, 2850, Control_c, 0, 7, 96
2, 2860, Control_c, 0, 7, 97
2, 2870, Control_c, 0, 7, 98
2, 2880, Control_c, 0, 7, 83
2, 3000, Note_on_c, 0, 82, 0
2, 3066, Control_c, 0, 7, 99
2, 3150, Note_on_c, 0, 86, 94
2, 3165, Note_on_c, 0, 86, 0
2, 3180, Note_on_c, 0, 87, 90
2, 3195, Note_on_c, 0, 87, 0
2, 3210, Note_on_c, 0, 79, 84
2, 3225, Note_on_c, 0, 79, 0
2, 3240, Note_on_c, 0, 77, 81
2, 3300, Note_on_c, 0, 77, 0
2, 3360, Note_on_c, 0, 82, 82
2, 3480, Note_on_c, 0, 82, 0
2, 3480, Note_on_c, 0, 82, 68
2, 3510, Note_on_c, 0, 82, 0
2, 3510, Note_on_c, 0, 86, 89
2, 3525, Note_on_c, 0, 86, 0
2, 3540, Note_on_c, 0, 87, 89
2, 3555, Note_on_c, 0, 87, 0
2, 3570, Note_on_c, 0, 79, 89
2, 3585, Note_on_c, 0, 79, 0
2, 3600, Note_on_c, 0, 77, 84
2, 3660, Note_on_c, 0, 77, 0
2, 3825, Note_on_c, 0, 82, 86
2, 3840, Note_on_c, 0, 82, 0
2, 3840, Note_on_c, 0, 82, 89
2, 3930, Note_on_c, 0, 82, 0
2, 3945, Note_on_c, 0, 82, 86
2, 3960, Note_on_c, 0, 82, 0
2, 3960, Note_on_c, 0, 86, 94
2, 3960, Control_c, 0, 7, 99
2, 3972, Control_c, 0, 7, 98
2, 3982, Control_c, 0, 7, 97
2, 3992, Control_c, 0, 7, 96
2, 4002, Control_c, 0, 7, 95
2, 4012, Control_c, 0, 7, 94
2, 4022, Control_c, 0, 7, 93
2, 4032, Control_c, 0, 7, 92
2, 4044, Control_c, 0, 7, 91
2, 4054, Control_c, 0, 7, 90
2, 4064, Control_c, 0, 7, 89
2, 4074, Control_c, 0, 7, 88
2, 4084, Control_c, 0, 7, 87
2, 4094, Control_c, 0, 7, 86
2, 4104, Control_c, 0, 7, 85
2, 4116, Control_c, 0, 7, 84
2, 4126, Control_c, 0, 7, 83
2, 4136, Control_c, 0, 7, 82
2, 4146, Control_c, 0, 7, 81
2, 4156, Control_c, 0, 7, 80
2, 4166, Control_c, 0, 7, 79
2, 4176, Control_c, 0, 7, 78
2, 4188, Control_c, 0, 7, 77
2, 4198, Control_c, 0, 7, 76
2, 4208, Control_c, 0, 7, 75
2, 4218, Control_c, 0, 7, 74
2, 4228, Control_c, 0, 7, 73
2, 4238, Control_c, 0, 7, 72
2, 4248, Control_c, 0, 7, 71
2, 4260, Control_c, 0, 7, 70
2, 4270, Control_c, 0, 7, 69
2, 4280, Control_c, 0, 7, 68
2, 4290, Control_c, 0, 7, 67
2, 4300, Control_c, 0, 7, 66
2, 4310, Control_c, 0, 7, 65
2, 4320, Note_on_c, 0, 86, 0
2, 4320, Control_c, 0, 7, 64
2, 4320, Note_on_c, 0, 87, 86
2, 4380, Note_on_c, 0, 87, 0
2, 4500, Control_c, 0, 7, 99
2, 5820, Note_on_c, 0, 70, 89
2, 5850, Note_on_c, 0, 70, 0
2, 5880, Note_on_c, 0, 75, 86
2, 5910, Note_on_c, 0, 75, 0
2, 5940, Note_on_c, 0, 79, 94
2, 5970, Note_on_c, 0, 79, 0
2, 6000, Note_on_c, 0, 82, 86
2, 6030, Note_on_c, 0, 82, 0
2, 6060, Note_on_c, 0, 87, 82
2, 6090, Note_on_c, 0, 87, 0
2, 6120, Note_on_c, 0, 91, 89
2, 6150, Note_on_c, 0, 91, 0
2, 8100, Note_on_c, 0, 70, 84
2, 8160, Note_on_c, 0, 70, 0
2, 8160, Note_on_c, 0, 75, 89
2, 8220, Note_on_c, 0, 75, 0
2, 8220, Note_on_c, 0, 79, 62
2, 8280, Note_on_c, 0, 79, 0
2, 8280, Note_on_c, 0, 77, 93
2, 8370, Note_on_c, 0, 77, 0
2, 8370, Note_on_c, 0, 75, 84
2, 8400, Note_on_c, 0, 75, 0
2, 8400, Note_on_c, 0, 74, 84
2, 8430, Note_on_c, 0, 74, 0
2, 8820, Note_on_c, 0, 84, 65
2, 8880, Note_on_c, 0, 84, 0
2, 8880, Note_on_c, 0, 83, 77
2, 8940, Note_on_c, 0, 83, 0
2, 8940, Note_on_c, 0, 80, 86
2, 9000, Note_on_c, 0, 80, 0
2, 9000, Note_on_c, 0, 79, 77
2, 9090, Note_on_c, 0, 79, 0
2, 9090, Note_on_c, 0, 89, 58
2, 9120, Note_on_c, 0, 89, 0
2, 9120, Note_on_c, 0, 87, 65
2, 9150, Note_on_c, 0, 87, 0
2, 10778, Control_c, 0, 7, 63
2, 10800, Control_c, 0, 7, 63
2, 10800, Note_on_c, 0, 82, 84
2, 10810, Control_c, 0, 7, 64
2, 10820, Control_c, 0, 7, 65
2, 10830, Control_c, 0, 7, 66
2, 10840, Control_c, 0, 7, 67
2, 10850, Control_c, 0, 7, 68
2, 10860, Control_c, 0, 7, 69
2, 10870, Control_c, 0, 7, 70
2, 10880, Control_c, 0, 7, 71
2, 10890, Control_c, 0, 7, 72
2, 10900, Control_c, 0, 7, 73
2, 10910, Control_c, 0, 7, 74
2, 10920, Control_c, 0, 7, 75
2, 10930, Control_c, 0, 7, 76
2, 10940, Control_c, 0, 7, 77
2, 10950, Control_c, 0, 7, 78
2, 10960, Control_c, 0, 7, 79
2, 10970, Control_c, 0, 7, 80
2, 10980, Control_c, 0, 7, 81
2, 10990, Control_c, 0, 7, 82
2, 11000, Control_c, 0, 7, 83
2, 11010, Control_c, 0, 7, 84
2, 11020, Control_c, 0, 7, 85
2, 11030, Control_c, 0, 7, 86
2, 11040, Note_on_c, 0, 82, 0
2, 11040, Note_on_c, 0, 78, 89
2, 11040, Control_c, 0, 7, 87
2, 11050, Control_c, 0, 7, 88
2, 11060, Control_c, 0, 7, 89
2, 11070, Control_c, 0, 7, 90
2, 11080, Control_c, 0, 7, 91
2, 11090, Control_c, 0, 7, 92
2, 11100, Control_c, 0, 7, 93
2, 11110, Control_c, 0, 7, 94
2, 11120, Control_c, 0, 7, 95
2, 11130, Control_c, 0, 7, 96
2, 11140, Control_c, 0, 7, 97
2, 11150, Control_c, 0, 7, 98
2, 11160, Note_on_c, 0, 78, 0
2, 11160, Note_on_c, 0, 77, 86
2, 11160, Control_c, 0, 7, 99
2, 11280, Note_on_c, 0, 77, 0
2, 11280, Note_on_c, 0, 75, 85
2, 11340, Note_on_c, 0, 75, 0
2, 11400, Note_on_c, 0, 80, 85
2, 11520, Note_on_c, 0, 80, 0
2, 11520, Note_on_c, 0, 78, 93
2, 11640, Note_on_c, 0, 78, 0
2, 11640, Note_on_c, 0, 77, 81
2, 11700, Note_on_c, 0, 77, 0
2, 11760, Note_on_c, 0, 82, 81
2, 11850, Note_on_c, 0, 82, 0
2, 11865, Note_on_c, 0, 81, 90
2, 11880, Note_on_c, 0, 81, 0
2, 11880, Note_on_c, 0, 81, 93
2, 11910, Note_on_c, 0, 81, 0
2, 11940, Note_on_c, 0, 81, 90
2, 12060, Note_on_c, 0, 81, 0
2, 12060, Note_on_c, 0, 81, 90
2, 12180, Note_on_c, 0, 81, 0
2, 12180, Note_on_c, 0, 81, 94
2, 12240, Note_on_c, 0, 81, 0
2, 12240, Note_on_c, 0, 82, 82
2, 12300, Note_on_c, 0, 82, 0
2, 17460, Note_on_c, 0, 75, 65
2, 17520, Note_on_c, 0, 75, 0
2, 17520, Note_on_c, 0, 80, 74
2, 17580, Note_on_c, 0, 80, 0
2, 17580, Note_on_c, 0, 84, 76
2, 17640, Note_on_c, 0, 84, 0
2, 17640, Note_on_c, 0, 82, 76
2, 17730, Note_on_c, 0, 82, 0
2, 17730, Note_on_c, 0, 80, 73
2, 17760, Note_on_c, 0, 80, 0
2, 17760, Note_on_c, 0, 79, 68
2, 17790, Note_on_c, 0, 79, 0
2, 24480, Note_on_c, 0, 75, 81
2, 24600, Note_on_c, 0, 75, 0
2, 24600, Note_on_c, 0, 79, 80
2, 24720, Note_on_c, 0, 79, 0
2, 24720, Note_on_c, 0, 80, 82
2, 24810, Note_on_c, 0, 80, 0
2, 24825, Note_on_c, 0, 83, 89
2, 24840, Note_on_c, 0, 83, 0
2, 24840, Note_on_c, 0, 78, 84
2, 24960, Note_on_c, 0, 78, 0
2, 24960, Note_on_c, 0, 77, 80
2, 25020, Note_on_c, 0, 77, 0
2, 25140, Note_on_c, 0, 82, 80
2, 25200, Note_on_c, 0, 82, 0
2, 25200, Note_on_c, 0, 80, 93
2, 25320, Note_on_c, 0, 80, 0
2, 25320, Note_on_c, 0, 79, 85
2, 25380, Note_on_c, 0, 79, 0
2, 25500, Note_on_c, 0, 79, 80
2, 25560, Note_on_c, 0, 79, 0
2, 25560, Note_on_c, 0, 80, 94
2, 25680, Note_on_c, 0, 80, 0
2, 25680, Note_on_c, 0, 81, 95
2, 25920, Note_on_c, 0, 81, 0
2, 25920, Note_on_c, 0, 82, 84
2, 26040, Note_on_c, 0, 82, 0
2, 26040, Note_on_c, 0, 84, 81
2, 26160, Note_on_c, 0, 84, 0
2, 26160, Note_on_c, 0, 81, 95
2, 26280, Note_on_c, 0, 81, 0
2, 26280, Note_on_c, 0, 82, 89
2, 26520, Note_on_c, 0, 82, 0
2, 31320, Note_on_c, 0, 74, 65
2, 31410, Note_on_c, 0, 74, 0
2, 31440, Note_on_c, 0, 74, 64
2, 31530, Note_on_c, 0, 74, 0
2, 31560, Note_on_c, 0, 74, 58
2, 31650, Note_on_c, 0, 74, 0
2, 31680, Note_on_c, 0, 75, 72
2, 31800, Note_on_c, 0, 75, 0
2, 31980, Note_on_c, 0, 82, 86
2, 32100, Note_on_c, 0, 82, 0
2, 32100, Note_on_c, 0, 84, 52
2, 32130, Note_on_c, 0, 84, 0
2, 32130, Note_on_c, 0, 82, 38
2, 32160, Note_on_c, 0, 82, 0
2, 32160, Note_on_c, 0, 82, 43
2, 32280, Note_on_c, 0, 82, 0
2, 32340, Note_on_c, 0, 82, 76
2, 32460, Note_on_c, 0, 82, 0
2, 32460, Note_on_c, 0, 84, 53
2, 32490, Note_on_c, 0, 84, 0
2, 32490, Note_on_c, 0, 86, 43
2, 32520, Note_on_c, 0, 86, 0
2, 32520, Note_on_c, 0, 87, 37
2, 32610, Note_on_c, 0, 87, 0
2, 32640, Note_on_c, 0, 87, 38
2, 32730, Note_on_c, 0, 87, 0
2, 32760, Control_c, 0, 7, 99
2, 32760, Note_on_c, 0, 87, 38
2, 32768, Control_c, 0, 7, 100
2, 32774, Control_c, 0, 7, 101
2, 32782, Control_c, 0, 7, 102
2, 32788, Control_c, 0, 7, 103
2, 32796, Control_c, 0, 7, 104
2, 32802, Control_c, 0, 7, 105
2, 32810, Control_c, 0, 7, 106
2, 32816, Control_c, 0, 7, 107
2, 32824, Control_c, 0, 7, 108
2, 32830, Control_c, 0, 7, 109
2, 32838, Control_c, 0, 7, 110
2, 32844, Control_c, 0, 7, 111
2, 32850, Control_c, 0, 7, 112
2, 32858, Control_c, 0, 7, 113
2, 32864, Control_c, 0, 7, 114
2, 32872, Control_c, 0, 7, 115
2, 32878, Control_c, 0, 7, 116
2, 32886, Control_c, 0, 7, 117
2, 32892, Control_c, 0, 7, 118
2, 32900, Control_c, 0, 7, 119
2, 32906, Control_c, 0, 7, 120
2, 32914, Control_c, 0, 7, 121
2, 32920, Control_c, 0, 7, 122
2, 32928, Control_c, 0, 7, 123
2, 32934, Control_c, 0, 7, 124
2, 32940, Control_c, 0, 7, 125
2, 32942, Control_c, 0, 7, 126
2, 32946, Control_c, 0, 7, 125
2, 32948, Control_c, 0, 7, 124
2, 32950, Control_c, 0, 7, 123
2, 32952, Control_c, 0, 7, 122
2, 32956, Control_c, 0, 7, 121
2, 32958, Control_c, 0, 7, 120
2, 32960, Control_c, 0, 7, 119
2, 32962, Control_c, 0, 7, 118
2, 32964, Control_c, 0, 7, 117
2, 32968, Control_c, 0, 7, 116
2, 32970, Control_c, 0, 7, 115
2, 32972, Control_c, 0, 7, 114
2, 32974, Control_c, 0, 7, 113
2, 32978, Control_c, 0, 7, 112
2, 32980, Control_c, 0, 7, 111
2, 32982, Control_c, 0, 7, 110
2, 32984, Control_c, 0, 7, 109
2, 32986, Control_c, 0, 7, 108
2, 32990, Control_c, 0, 7, 107
2, 32992, Control_c, 0, 7, 106
2, 32994, Control_c, 0, 7, 105
2, 32996, Control_c, 0, 7, 104
2, 33000, Control_c, 0, 7, 103
2, 33002, Control_c, 0, 7, 102
2, 33004, Control_c, 0, 7, 101
2, 33006, Control_c, 0, 7, 100
2, 33008, Control_c, 0, 7, 99
2, 33012, Control_c, 0, 7, 98
2, 33014, Control_c, 0, 7, 97
2, 33016, Control_c, 0, 7, 96
2, 33018, Control_c, 0, 7, 95
2, 33022, Control_c, 0, 7, 94
2, 33024, Control_c, 0, 7, 93
2, 33026, Control_c, 0, 7, 92
2, 33028, Control_c, 0, 7, 91
2, 33030, Control_c, 0, 7, 90
2, 33034, Control_c, 0, 7, 89
2, 33036, Control_c, 0, 7, 88
2, 33038, Control_c, 0, 7, 87
2, 33040, Control_c, 0, 7, 86
2, 33042, Control_c, 0, 7, 85
2, 33046, Control_c, 0, 7, 84
2, 33048, Control_c, 0, 7, 83
2, 33050, Control_c, 0, 7, 82
2, 33052, Control_c, 0, 7, 81
2, 33056, Control_c, 0, 7, 80
2, 33058, Control_c, 0, 7, 79
2, 33060, Control_c, 0, 7, 78
2, 33062, Control_c, 0, 7, 77
2, 33064, Control_c, 0, 7, 76
2, 33068, Control_c, 0, 7, 75
2, 33070, Control_c, 0, 7, 74
2, 33072, Control_c, 0, 7, 73
2, 33074, Control_c, 0, 7, 72
2, 33078, Control_c, 0, 7, 71
2, 33080, Control_c, 0, 7, 70
2, 33082, Control_c, 0, 7, 69
2, 33084, Control_c, 0, 7, 68
2, 33086, Control_c, 0, 7, 67
2, 33090, Control_c, 0, 7, 66
2, 33092, Control_c, 0, 7, 65
2, 33094, Control_c, 0, 7, 64
2, 33096, Control_c, 0, 7, 63
2, 33100, Control_c, 0, 7, 62
2, 33102, Control_c, 0, 7, 61
2, 33104, Control_c, 0, 7, 60
2, 33106, Control_c, 0, 7, 59
2, 33108, Control_c, 0, 7, 58
2, 33112, Control_c, 0, 7, 57
2, 33114, Control_c, 0, 7, 56
2, 33116, Control_c, 0, 7, 55
2, 33118, Control_c, 0, 7, 54
2, 33120, Note_on_c, 0, 87, 0
2, 33120, Control_c, 0, 7, 53
2, 33120, End_track
3, 0, Start_track
3, 0, MIDI_port, 0
3, 0, Title_t, "Oboes"
3, 0, Program_c, 1, 68
3, 0, Control_c, 1, 7, 100
3, 0, Control_c, 1, 10, 58
3, 0, Control_c, 1, 93, 0
3, 0, Control_c, 1, 91, 66
3, 2025, Note_on_c, 1, 75, 72
3, 2025, Note_on_c, 1, 69, 99
3, 2040, Note_on_c, 1, 69, 0
3, 2040, Note_on_c, 1, 75, 0
3, 2040, Note_on_c, 1, 75, 77
3, 2040, Note_on_c, 1, 69, 99
3, 2130, Note_on_c, 1, 69, 0
3, 2130, Note_on_c, 1, 75, 0
3, 2145, Note_on_c, 1, 75, 86
3, 2145, Note_on_c, 1, 69, 99
3, 2160, Note_on_c, 1, 69, 0
3, 2160, Note_on_c, 1, 75, 0
3, 2160, Note_on_c, 1, 74, 68
3, 2160, Note_on_c, 1, 70, 73
3, 2280, Note_on_c, 1, 70, 0
3, 2280, Note_on_c, 1, 74, 0
3, 2280, Note_on_c, 1, 70, 61
3, 2640, Note_on_c, 1, 70, 0
3, 2640, Note_on_c, 1, 80, 68
3, 2640, Note_on_c, 1, 77, 65
3, 2760, Note_on_c, 1, 77, 0
3, 2760, Note_on_c, 1, 80, 0
3, 2760, Note_on_c, 1, 80, 68
3, 2760, Note_on_c, 1, 77, 55
3, 2790, Note_on_c, 1, 77, 0
3, 2790, Note_on_c, 1, 80, 0
3, 2790, Note_on_c, 1, 79, 65
3, 2790, Note_on_c, 1, 75, 81
3, 2820, Note_on_c, 1, 75, 0
3, 2820, Note_on_c, 1, 79, 0
3, 2820, Note_on_c, 1, 78, 64
3, 2820, Note_on_c, 1, 74, 74
3, 2850, Note_on_c, 1, 74, 0
3, 2850, Note_on_c, 1, 78, 0
3, 2850, Note_on_c, 1, 79, 55
3, 2850, Note_on_c, 1, 75, 73
3, 2880, Note_on_c, 1, 75, 0
3, 2880, Note_on_c, 1, 79, 0
3, 2880, Note_on_c, 1, 77, 44
3, 2880, Note_on_c, 1, 74, 60
3, 3000, Note_on_c, 1, 74, 0
3, 3000, Note_on_c, 1, 77, 0
3, 3150, Note_on_c, 1, 77, 58
3, 3150, Note_on_c, 1, 74, 77
3, 3165, Note_on_c, 1, 74, 0
3, 3165, Note_on_c, 1, 77, 0
3, 3180, Note_on_c, 1, 79, 67
3, 3180, Note_on_c, 1, 75, 82
3, 3195, Note_on_c, 1, 75, 0
3, 3195, Note_on_c, 1, 79, 0
3, 3210, Note_on_c, 1, 75, 64
3, 3210, Note_on_c, 1, 67, 76
3, 3225, Note_on_c, 1, 67, 0
3, 3225, Note_on_c, 1, 75, 0
3, 3240, Note_on_c, 1, 74, 68
3, 3240, Note_on_c, 1, 65, 73
3, 3300, Note_on_c, 1, 65, 0
3, 3300, Note_on_c, 1, 74, 0
3, 3360, Note_on_c, 1, 82, 76
3, 3360, Note_on_c, 1, 70, 90
3, 3480, Note_on_c, 1, 70, 0
3, 3480, Note_on_c, 1, 82, 0
3, 3480, Note_on_c, 1, 82, 39
3, 3480, Note_on_c, 1, 70, 43
3, 3510, Note_on_c, 1, 70, 0
3, 3510, Note_on_c, 1, 82, 0
3, 3510, Note_on_c, 1, 77, 67
3, 3510, Note_on_c, 1, 74, 84
3, 3525, Note_on_c, 1, 74, 0
3, 3525, Note_on_c, 1, 77, 0
3, 3540, Note_on_c, 1, 79, 67
3, 3540, Note_on_c, 1, 75, 82
3, 3555, Note_on_c, 1, 75, 0
3, 3555, Note_on_c, 1, 79, 0
3, 3570, Note_on_c, 1, 75, 74
3, 3570, Note_on_c, 1, 67, 84
3, 3585, Note_on_c, 1, 67, 0
3, 3585, Note_on_c, 1, 75, 0
3, 3600, Note_on_c, 1, 74, 73
3, 3600, Note_on_c, 1, 65, 72
3, 3660, Note_on_c, 1, 65, 0
3, 3660, Note_on_c, 1, 74, 0
3, 3825, Note_on_c, 1, 70, 93
3, 3840, Note_on_c, 1, 70, 0
3, 3840, Note_on_c, 1, 70, 89
3, 3930, Note_on_c, 1, 70, 0
3, 3945, Note_on_c, 1, 70, 89
3, 3960, Note_on_c, 1, 70, 0
3, 3960, Note_on_c, 1, 74, 81
3, 3960, Note_on_c, 1, 68, 77
3, 3960, Control_c, 1, 7, 99
3, 3972, Control_c, 1, 7, 98
3, 3982, Control_c, 1, 7, 97
3, 3992, Control_c, 1, 7, 96
3, 4002, Control_c, 1, 7, 95
3, 4012, Control_c, 1, 7, 94
3, 4022, Control_c, 1, 7, 93
3, 4032, Control_c, 1, 7, 92
3, 4042, Control_c, 1, 7, 91
3, 4052, Control_c, 1, 7, 90
3, 4062, Control_c, 1, 7, 89
3, 4072, Control_c, 1, 7, 88
3, 4084, Control_c, 1, 7, 87
3, 4094, Control_c, 1, 7, 86
3, 4104, Control_c, 1, 7, 85
3, 4114, Control_c, 1, 7, 84
3, 4124, Control_c, 1, 7, 83
3, 4134, Control_c, 1, 7, 82
3, 4144, Control_c, 1, 7, 81
3, 4154, Control_c, 1, 7, 80
3, 4164, Control_c, 1, 7, 79
3, 4174, Control_c, 1, 7, 78
3, 4184, Control_c, 1, 7, 77
3, 4194, Control_c, 1, 7, 76
3, 4206, Control_c, 1, 7, 75
3, 4216, Control_c, 1, 7, 74
3, 4226, Control_c, 1, 7, 73
3, 4236, Control_c, 1, 7, 72
3, 4246, Control_c, 1, 7, 71
3, 4256, Control_c, 1, 7, 70
3, 4266, Control_c, 1, 7, 69
3, 4276, Control_c, 1, 7, 68
3, 4286, Control_c, 1, 7, 67
3, 4296, Control_c, 1, 7, 66
3, 4306, Control_c, 1, 7, 65
3, 4316, Control_c, 1, 7, 64
3, 4320, Note_on_c, 1, 68, 0
3, 4320, Note_on_c, 1, 74, 0
3, 4320, Note_on_c, 1, 75, 77
3, 4320, Note_on_c, 1, 67, 85
3, 4380, Note_on_c, 1, 67, 0
3, 4380, Note_on_c, 1, 75, 0
3, 4502, Control_c, 1, 7, 99
3, 5820, Note_on_c, 1, 67, 66
3, 5820, Note_on_c, 1, 63, 73
3, 5850, Note_on_c, 1, 63, 0
3, 5850, Note_on_c, 1, 67, 0
3, 5880, Note_on_c, 1, 70, 80
3, 5880, Note_on_c, 1, 67, 73
3, 5910, Note_on_c, 1, 67, 0
3, 5910, Note_on_c, 1, 70, 0
3, 5940, Note_on_c, 1, 75, 89
3, 5940, Note_on_c, 1, 70, 86
3, 5970, Note_on_c, 1, 70, 0
3, 5970, Note_on_c, 1, 75, 0
3, 6000, Note_on_c, 1, 79, 69
3, 6000, Note_on_c, 1, 75, 84
3, 6030, Note_on_c, 1, 75, 0
3, 6030, Note_on_c, 1, 79, 0
3, 6060, Note_on_c, 1, 82, 84
3, 6060, Note_on_c, 1, 79, 80
3, 6090, Note_on_c, 1, 79, 0
3, 6090, Note_on_c, 1, 82, 0
3, 6120, Note_on_c, 1, 82, 85
3, 6120, Note_on_c, 1, 79, 73
3, 6150, Note_on_c, 1, 79, 0
3, 6150, Note_on_c, 1, 82, 0
3, 8100, Note_on_c, 1, 70, 74
3, 8160, Note_on_c, 1, 70, 0
3, 8160, Note_on_c, 1, 75, 71
3, 8160, Note_on_c, 1, 69, 85
3, 8220, Note_on_c, 1, 69, 0
3, 8220, Note_on_c, 1, 75, 0
3, 8220, Note_on_c, 1, 79, 73
3, 8220, Note_on_c, 1, 74, 95
3, 8280, Note_on_c, 1, 74, 0
3, 8280, Note_on_c, 1, 79, 0
3, 8280, Note_on_c, 1, 77, 84
3, 8280, Note_on_c, 1, 72, 84
3, 8340, Note_on_c, 1, 72, 0
3, 8340, Note_on_c, 1, 69, 93
3, 8370, Note_on_c, 1, 77, 0
3, 8370, Note_on_c, 1, 75, 81
3, 8400, Note_on_c, 1, 75, 0
3, 8400, Note_on_c, 1, 69, 0
3, 8400, Note_on_c, 1, 74, 89
3, 8400, Note_on_c, 1, 70, 81
3, 8430, Note_on_c, 1, 70, 0
3, 8430, Note_on_c, 1, 74, 0
3, 8820, Note_on_c, 1, 72, 59
3, 8880, Note_on_c, 1, 72, 0
3, 8880, Note_on_c, 1, 77, 62
3, 8880, Note_on_c, 1, 71, 73
3, 8940, Note_on_c, 1, 71, 0
3, 8940, Note_on_c, 1, 77, 0
3, 8940, Note_on_c, 1, 80, 76
3, 8940, Note_on_c, 1, 75, 80
3, 9000, Note_on_c, 1, 75, 0
3, 9000, Note_on_c, 1, 80, 0
3, 9000, Note_on_c, 1, 79, 74
3, 9000, Note_on_c, 1, 74, 70
3, 9060, Note_on_c, 1, 74, 0
3, 9060, Note_on_c, 1, 71, 69
3, 9090, Note_on_c, 1, 79, 0
3, 9090, Note_on_c, 1, 77, 71
3, 9120, Note_on_c, 1, 77, 0
3, 9120, Note_on_c, 1, 71, 0
3, 9120, Note_on_c, 1, 75, 81
3, 9120, Note_on_c, 1, 72, 62
3, 9150, Note_on_c, 1, 72, 0
3, 9150, Note_on_c, 1, 75, 0
3, 10770, Control_c, 1, 7, 63
3, 10800, Control_c, 1, 7, 63
3, 10800, Note_on_c, 1, 70, 85
3, 10810, Control_c, 1, 7, 64
3, 10820, Control_c, 1, 7, 65
3, 10830, Control_c, 1, 7, 66
3, 10840, Control_c, 1, 7, 67
3, 10850, Control_c, 1, 7, 68
3, 10860, Control_c, 1, 7, 69
3, 10870, Control_c, 1, 7, 70
3, 10880, Control_c, 1, 7, 71
3, 10890, Control_c, 1, 7, 72
3, 10900, Control_c, 1, 7, 73
3, 10910, Control_c, 1, 7, 74
3, 10920, Control_c, 1, 7, 75
3, 10930, Control_c, 1, 7, 76
3, 10940, Control_c, 1, 7, 77
3, 10950, Control_c, 1, 7, 78
3, 10960, Control_c, 1, 7, 79
3, 10970, Control_c, 1, 7, 80
3, 10980, Control_c, 1, 7, 81
3, 10990, Control_c, 1, 7, 82
3, 11000, Control_c, 1, 7, 83
3, 11010, Control_c, 1, 7, 84
3, 11020, Control_c, 1, 7, 85
3, 11030, Control_c, 1, 7, 86
3, 11040, Note_on_c, 1, 70, 0
3, 11040, Note_on_c, 1, 66, 78
3, 11040, Note_on_c, 1, 75, 73
3, 11040, Control_c, 1, 7, 87
3, 11050, Control_c, 1, 7, 88
3, 11060, Control_c, 1, 7, 89
3, 11070, Control_c, 1, 7, 90
3, 11080, Control_c, 1, 7, 91
3, 11090, Control_c, 1, 7, 92
3, 11100, Control_c, 1, 7, 93
3, 11110, Control_c, 1, 7, 94
3, 11120, Control_c, 1, 7, 95
3, 11130, Control_c, 1, 7, 96
3, 11140, Control_c, 1, 7, 97
3, 11150, Control_c, 1, 7, 98
3, 11160, Note_on_c, 1, 75, 0
3, 11160, Note_on_c, 1, 66, 0
3, 11160, Note_on_c, 1, 73, 69
3, 11160, Note_on_c, 1, 65, 74
3, 11160, Control_c, 1, 7, 99
3, 11280, Note_on_c, 1, 65, 0
3, 11280, Note_on_c, 1, 73, 0
3, 11280, Note_on_c, 1, 72, 45
3, 11280, Note_on_c, 1, 63, 73
3, 11340, Note_on_c, 1, 63, 0
3, 11340, Note_on_c, 1, 72, 0
3, 11400, Note_on_c, 1, 68, 74
3, 11400, Note_on_c, 1, 77, 60
3, 11520, Note_on_c, 1, 77, 0
3, 11520, Note_on_c, 1, 68, 0
3, 11520, Note_on_c, 1, 75, 77
3, 11520, Note_on_c, 1, 66, 89
3, 11640, Note_on_c, 1, 66, 0
3, 11640, Note_on_c, 1, 75, 0
3, 11640, Note_on_c, 1, 74, 68
3, 11640, Note_on_c, 1, 65, 70
3, 11700, Note_on_c, 1, 65, 0
3, 11700, Note_on_c, 1, 74, 0
3, 11760, Note_on_c, 1, 74, 77
3, 11760, Note_on_c, 1, 70, 72
3, 11850, Note_on_c, 1, 70, 0
3, 11850, Note_on_c, 1, 74, 0
3, 11865, Note_on_c, 1, 69, 94
3, 11865, Note_on_c, 1, 75, 57
3, 11880, Note_on_c, 1, 75, 0
3, 11880, Note_on_c, 1, 69, 0
3, 11880, Note_on_c, 1, 75, 66
3, 11880, Note_on_c, 1, 69, 85
3, 11940, Note_on_c, 1, 69, 0
3, 11940, Note_on_c, 1, 75, 0
3, 11940, Note_on_c, 1, 78, 76
3, 11940, Note_on_c, 1, 69, 94
3, 12060, Note_on_c, 1, 69, 0
3, 12060, Note_on_c, 1, 78, 0
3, 12060, Note_on_c, 1, 77, 84
3, 12060, Note_on_c, 1, 69, 90
3, 12120, Note_on_c, 1, 77, 0
3, 12120, Note_on_c, 1, 75, 89
3, 12180, Note_on_c, 1, 75, 0
3, 12180, Note_on_c, 1, 69, 0
3, 12180, Note_on_c, 1, 69, 94
3, 12180, Note_on_c, 1, 78, 80
3, 12240, Note_on_c, 1, 78, 0
3, 12240, Note_on_c, 1, 69, 0
3, 12240, Note_on_c, 1, 74, 74
3, 12240, Note_on_c, 1, 70, 71
3, 12300, Note_on_c, 1, 70, 0
3, 12300, Note_on_c, 1, 74, 0
3, 14760, Note_on_c, 1, 79, 39
3, 14760, Note_on_c, 1, 70, 43
3, 14880, Note_on_c, 1, 70, 0
3, 14880, Note_on_c, 1, 79, 0
3, 14880, Note_on_c, 1, 79, 40
3, 14880, Note_on_c, 1, 75, 43
3, 15000, Note_on_c, 1, 75, 0
3, 15000, Note_on_c, 1, 79, 0
3, 15000, Note_on_c, 1, 80, 60
3, 15000, Note_on_c, 1, 77, 45
3, 15090, Note_on_c, 1, 80, 0
3, 15105, Note_on_c, 1, 84, 51
3, 15120, Note_on_c, 1, 84, 0
3, 15120, Note_on_c, 1, 77, 0
3, 15120, Note_on_c, 1, 79, 44
3, 15120, Note_on_c, 1, 75, 53
3, 15240, Note_on_c, 1, 75, 0
3, 15240, Note_on_c, 1, 79, 0
3, 15240, Note_on_c, 1, 77, 40
3, 15240, Note_on_c, 1, 74, 43
3, 15300, Note_on_c, 1, 74, 0
3, 15300, Note_on_c, 1, 77, 0
3, 15480, Control_c, 1, 7, 99
3, 15480, Note_on_c, 1, 80, 57
3, 15488, Control_c, 1, 7, 100
3, 15496, Control_c, 1, 7, 101
3, 15504, Control_c, 1, 7, 102
3, 15510, Control_c, 1, 7, 103
3, 15518, Control_c, 1, 7, 104
3, 15526, Control_c, 1, 7, 105
3, 15534, Control_c, 1, 7, 106
3, 15540, Control_c, 1, 7, 107
3, 15548, Control_c, 1, 7, 108
3, 15556, Control_c, 1, 7, 109
3, 15564, Control_c, 1, 7, 110
3, 15570, Control_c, 1, 7, 111
3, 15578, Control_c, 1, 7, 112
3, 15586, Control_c, 1, 7, 113
3, 15594, Control_c, 1, 7, 114
3, 15600, Control_c, 1, 7, 115
3, 15600, Note_on_c, 1, 70, 57
3, 15608, Control_c, 1, 7, 116
3, 15616, Control_c, 1, 7, 117
3, 15624, Control_c, 1, 7, 118
3, 15630, Control_c, 1, 7, 119
3, 15638, Control_c, 1, 7, 120
3, 15646, Control_c, 1, 7, 121
3, 15654, Control_c, 1, 7, 122
3, 15660, Control_c, 1, 7, 123
3, 15668, Control_c, 1, 7, 122
3, 15676, Control_c, 1, 7, 121
3, 15684, Control_c, 1, 7, 120
3, 15690, Note_on_c, 1, 70, 0
3, 15690, Control_c, 1, 7, 119
3, 15698, Control_c, 1, 7, 118
3, 15706, Control_c, 1, 7, 117
3, 15714, Control_c, 1, 7, 116
3, 15720, Note_on_c, 1, 80, 0
3, 15720, Note_on_c, 1, 79, 62
3, 15720, Control_c, 1, 7, 115
3, 15720, Note_on_c, 1, 70, 43
3, 15728, Control_c, 1, 7, 114
3, 15736, Control_c, 1, 7, 113
3, 15744, Control_c, 1, 7, 112
3, 15750, Control_c, 1, 7, 111
3, 15758, Control_c, 1, 7, 110
3, 15766, Control_c, 1, 7, 109
3, 15774, Control_c, 1, 7, 108
3, 15780, Control_c, 1, 7, 107
3, 15788, Control_c, 1, 7, 106
3, 15796, Control_c, 1, 7, 105
3, 15804, Control_c, 1, 7, 104
3, 15810, Note_on_c, 1, 70, 0
3, 15810, Control_c, 1, 7, 103
3, 15818, Control_c, 1, 7, 102
3, 15826, Control_c, 1, 7, 101
3, 15834, Control_c, 1, 7, 100
3, 15840, Note_on_c, 1, 79, 0
3, 15840, Control_c, 1, 7, 99
3, 15840, Note_on_c, 1, 77, 61
3, 15840, Note_on_c, 1, 72, 56
3, 15870, Note_on_c, 1, 77, 0
3, 15870, Note_on_c, 1, 84, 53
3, 15900, Note_on_c, 1, 84, 0
3, 15900, Note_on_c, 1, 80, 65
3, 15930, Note_on_c, 1, 80, 0
3, 15930, Note_on_c, 1, 77, 62
3, 15960, Note_on_c, 1, 77, 0
3, 15960, Note_on_c, 1, 72, 0
3, 15960, Note_on_c, 1, 75, 44
3, 15960, Note_on_c, 1, 70, 60
3, 16080, Note_on_c, 1, 70, 0
3, 16080, Note_on_c, 1, 75, 0
3, 16080, Note_on_c, 1, 77, 49
3, 16080, Note_on_c, 1, 70, 40
3, 16200, Note_on_c, 1, 70, 0
3, 16200, Note_on_c, 1, 77, 0
3, 16200, Note_on_c, 1, 80, 61
3, 16200, Note_on_c, 1, 70, 57
3, 16290, Note_on_c, 1, 70, 0
3, 16290, Note_on_c, 1, 74, 50
3, 16320, Note_on_c, 1, 74, 0
3, 16320, Note_on_c, 1, 80, 0
3, 16320, Note_on_c, 1, 79, 43
3, 16320, Note_on_c, 1, 75, 43
3, 16380, Note_on_c, 1, 75, 0
3, 16380, Note_on_c, 1, 79, 0
3, 17460, Note_on_c, 1, 75, 57
3, 17460, Note_on_c, 1, 70, 56
3, 17520, Note_on_c, 1, 70, 0
3, 17520, Note_on_c, 1, 75, 0
3, 17520, Note_on_c, 1, 74, 62
3, 17520, Note_on_c, 1, 68, 70
3, 17580, Note_on_c, 1, 68, 0
3, 17580, Note_on_c, 1, 74, 0
3, 17580, Note_on_c, 1, 67, 72
3, 17640, Note_on_c, 1, 67, 0
3, 17640, Note_on_c, 1, 70, 81
3, 17700, Note_on_c, 1, 74, 81
3, 17730, Note_on_c, 1, 70, 0
3, 17730, Note_on_c, 1, 80, 74
3, 17760, Note_on_c, 1, 80, 0
3, 17760, Note_on_c, 1, 74, 0
3, 17760, Note_on_c, 1, 79, 64
3, 17760, Note_on_c, 1, 75, 69
3, 17790, Note_on_c, 1, 75, 0
3, 17790, Note_on_c, 1, 79, 0
3, 24480, Note_on_c, 1, 75, 72
3, 24480, Note_on_c, 1, 67, 81
3, 24720, Note_on_c, 1, 67, 0
3, 24720, Note_on_c, 1, 75, 0
3, 24720, Note_on_c, 1, 80, 68
3, 24720, Note_on_c, 1, 75, 76
3, 24840, Note_on_c, 1, 75, 0
3, 24840, Note_on_c, 1, 80, 0
3, 24840, Note_on_c, 1, 78, 62
3, 24840, Note_on_c, 1, 70, 84
3, 24960, Note_on_c, 1, 70, 0
3, 24960, Note_on_c, 1, 78, 0
3, 24960, Note_on_c, 1, 77, 71
3, 24960, Note_on_c, 1, 68, 66
3, 25020, Note_on_c, 1, 68, 0
3, 25080, Note_on_c, 1, 77, 0
3, 25080, Note_on_c, 1, 76, 81
3, 25140, Note_on_c, 1, 70, 70
3, 25200, Note_on_c, 1, 70, 0
3, 25200, Note_on_c, 1, 76, 0
3, 25200, Note_on_c, 1, 75, 84
3, 25200, Note_on_c, 1, 68, 84
3, 25320, Note_on_c, 1, 68, 0
3, 25320, Note_on_c, 1, 67, 69
3, 25440, Note_on_c, 1, 75, 0
3, 25440, Note_on_c, 1, 75, 64
3, 25500, Note_on_c, 1, 75, 0
3, 25500, Note_on_c, 1, 67, 0
3, 25500, Note_on_c, 1, 75, 66
3, 25500, Note_on_c, 1, 67, 58
3, 25560, Note_on_c, 1, 67, 0
3, 25560, Note_on_c, 1, 75, 0
3, 25560, Note_on_c, 1, 75, 85
3, 25560, Note_on_c, 1, 68, 89
3, 25680, Note_on_c, 1, 68, 0
3, 25680, Note_on_c, 1, 75, 0
3, 25680, Note_on_c, 1, 78, 66
3, 25680, Note_on_c, 1, 75, 86
3, 25920, Note_on_c, 1, 75, 0
3, 25920, Note_on_c, 1, 78, 0
3, 25920, Note_on_c, 1, 78, 60
3, 25920, Note_on_c, 1, 75, 93
3, 26040, Note_on_c, 1, 75, 0
3, 26040, Note_on_c, 1, 78, 0
3, 26040, Note_on_c, 1, 78, 64
3, 26040, Note_on_c, 1, 75, 93
3, 26160, Note_on_c, 1, 75, 0
3, 26160, Note_on_c, 1, 78, 0
3, 26160, Note_on_c, 1, 78, 69
3, 26160, Note_on_c, 1, 75, 99
3, 26280, Note_on_c, 1, 75, 0
3, 26280, Note_on_c, 1, 78, 0
3, 26280, Note_on_c, 1, 79, 67
3, 26280, Note_on_c, 1, 75, 77
3, 26520, Note_on_c, 1, 75, 0
3, 26520, Note_on_c, 1, 79, 0
3, 31320, Note_on_c, 1, 77, 45
3, 31320, Note_on_c, 1, 68, 45
3, 31410, Note_on_c, 1, 68, 0
3, 31410, Note_on_c, 1, 77, 0
3, 31440, Note_on_c, 1, 77, 44
3, 31440, Note_on_c, 1, 68, 39
3, 31530, Note_on_c, 1, 68, 0
3, 31530, Note_on_c, 1, 77, 0
3, 31560, Note_on_c, 1, 77, 44
3, 31560, Note_on_c, 1, 68, 49
3, 31650, Note_on_c, 1, 68, 0
3, 31650, Note_on_c, 1, 77, 0
3, 31650, Note_on_c, 1, 79, 50
3, 31680, Note_on_c, 1, 79, 0
3, 31680, Control_c, 1, 7, 99
3, 31680, Note_on_c, 1, 75, 43
3, 31680, Note_on_c, 1, 67, 38
3, 31688, Control_c, 1, 7, 100
3, 31696, Control_c, 1, 7, 101
3, 31704, Control_c, 1, 7, 102
3, 31712, Control_c, 1, 7, 103
3, 31720, Control_c, 1, 7, 104
3, 31728, Control_c, 1, 7, 105
3, 31736, Control_c, 1, 7, 106
3, 31744, Control_c, 1, 7, 107
3, 31752, Control_c, 1, 7, 108
3, 31760, Control_c, 1, 7, 109
3, 31768, Control_c, 1, 7, 110
3, 31774, Control_c, 1, 7, 111
3, 31782, Control_c, 1, 7, 112
3, 31790, Control_c, 1, 7, 113
3, 31798, Control_c, 1, 7, 114
3, 31806, Control_c, 1, 7, 115
3, 31814, Control_c, 1, 7, 116
3, 31822, Control_c, 1, 7, 117
3, 31830, Control_c, 1, 7, 118
3, 31838, Control_c, 1, 7, 119
3, 31846, Control_c, 1, 7, 120
3, 31854, Control_c, 1, 7, 121
3, 31860, Control_c, 1, 7, 122
3, 31868, Control_c, 1, 7, 121
3, 31876, Control_c, 1, 7, 120
3, 31884, Control_c, 1, 7, 119
3, 31892, Control_c, 1, 7, 118
3, 31900, Control_c, 1, 7, 117
3, 31908, Control_c, 1, 7, 116
3, 31916, Control_c, 1, 7, 115
3, 31920, Note_on_c, 1, 67, 0
3, 31920, Note_on_c, 1, 75, 0
3, 31920, Note_on_c, 1, 77, 45
3, 31920, Note_on_c, 1, 68, 45
3, 31924, Control_c, 1, 7, 114
3, 31932, Control_c, 1, 7, 113
3, 31940, Control_c, 1, 7, 112
3, 31948, Control_c, 1, 7, 111
3, 31954, Control_c, 1, 7, 110
3, 31962, Control_c, 1, 7, 109
3, 31970, Control_c, 1, 7, 108
3, 31978, Control_c, 1, 7, 107
3, 31986, Control_c, 1, 7, 106
3, 31994, Control_c, 1, 7, 105
3, 32002, Control_c, 1, 7, 104
3, 32010, Control_c, 1, 7, 103
3, 32018, Control_c, 1, 7, 102
3, 32026, Control_c, 1, 7, 101
3, 32034, Control_c, 1, 7, 100
3, 32040, Note_on_c, 1, 68, 0
3, 32040, Note_on_c, 1, 77, 0
3, 32040, Control_c, 1, 7, 99
3, 32040, Note_on_c, 1, 75, 53
3, 32040, Note_on_c, 1, 67, 62
3, 32048, Control_c, 1, 7, 100
3, 32056, Control_c, 1, 7, 101
3, 32064, Control_c, 1, 7, 102
3, 32072, Control_c, 1, 7, 103
3, 32080, Control_c, 1, 7, 104
3, 32088, Control_c, 1, 7, 105
3, 32096, Control_c, 1, 7, 106
3, 32104, Control_c, 1, 7, 107
3, 32112, Control_c, 1, 7, 108
3, 32120, Control_c, 1, 7, 109
3, 32128, Control_c, 1, 7, 110
3, 32136, Control_c, 1, 7, 111
3, 32144, Control_c, 1, 7, 112
3, 32152, Control_c, 1, 7, 113
3, 32160, Control_c, 1, 7, 114
3, 32168, Control_c, 1, 7, 115
3, 32176, Control_c, 1, 7, 116
3, 32184, Control_c, 1, 7, 117
3, 32192, Control_c, 1, 7, 118
3, 32200, Control_c, 1, 7, 119
3, 32208, Control_c, 1, 7, 120
3, 32216, Control_c, 1, 7, 121
3, 32222, Control_c, 1, 7, 122
3, 32230, Control_c, 1, 7, 121
3, 32238, Control_c, 1, 7, 120
3, 32246, Control_c, 1, 7, 119
3, 32252, Control_c, 1, 7, 118
3, 32260, Control_c, 1, 7, 117
3, 32268, Control_c, 1, 7, 116
3, 32274, Control_c, 1, 7, 115
3, 32280, Note_on_c, 1, 67, 0
3, 32280, Note_on_c, 1, 75, 0
3, 32280, Note_on_c, 1, 77, 44
3, 32280, Note_on_c, 1, 68, 51
3, 32282, Control_c, 1, 7, 114
3, 32290, Control_c, 1, 7, 113
3, 32298, Control_c, 1, 7, 112
3, 32304, Control_c, 1, 7, 111
3, 32312, Control_c, 1, 7, 110
3, 32320, Control_c, 1, 7, 109
3, 32326, Control_c, 1, 7, 108
3, 32334, Control_c, 1, 7, 107
3, 32342, Control_c, 1, 7, 106
3, 32350, Control_c, 1, 7, 105
3, 32356, Control_c, 1, 7, 104
3, 32364, Control_c, 1, 7, 103
3, 32372, Control_c, 1, 7, 102
3, 32378, Control_c, 1, 7, 101
3, 32386, Control_c, 1, 7, 100
3, 32394, Control_c, 1, 7, 99
3, 32400, Note_on_c, 1, 68, 0
3, 32400, Note_on_c, 1, 77, 0
3, 32400, Control_c, 1, 7, 98
3, 32400, Note_on_c, 1, 75, 46
3, 32400, Note_on_c, 1, 67, 62
3, 32520, Note_on_c, 1, 67, 0
3, 32520, Note_on_c, 1, 75, 0
3, 32520, Note_on_c, 1, 79, 42
3, 32520, Note_on_c, 1, 70, 53
3, 32610, Note_on_c, 1, 70, 0
3, 32610, Note_on_c, 1, 79, 0
3, 32640, Note_on_c, 1, 79, 40
3, 32640, Note_on_c, 1, 70, 50
3, 32730, Note_on_c, 1, 70, 0
3, 32730, Note_on_c, 1, 79, 0
3, 32760, Control_c, 1, 7, 99
3, 32760, Note_on_c, 1, 75, 36
3, 32760, Note_on_c, 1, 67, 41
3, 32768, Control_c, 1, 7, 100
3, 32776, Control_c, 1, 7, 101
3, 32784, Control_c, 1, 7, 102
3, 32792, Control_c, 1, 7, 103
3, 32800, Control_c, 1, 7, 104
3, 32808, Control_c, 1, 7, 105
3, 32816, Control_c, 1, 7, 106
3, 32824, Control_c, 1, 7, 107
3, 32832, Control_c, 1, 7, 108
3, 32840, Control_c, 1, 7, 109
3, 32848, Control_c, 1, 7, 110
3, 32856, Control_c, 1, 7, 111
3, 32864, Control_c, 1, 7, 112
3, 32872, Control_c, 1, 7, 113
3, 32880, Control_c, 1, 7, 114
3, 32888, Control_c, 1, 7, 115
3, 32896, Control_c, 1, 7, 116
3, 32904, Control_c, 1, 7, 117
3, 32912, Control_c, 1, 7, 118
3, 32920, Control_c, 1, 7, 119
3, 32928, Control_c, 1, 7, 120
3, 32936, Control_c, 1, 7, 121
3, 32940, Control_c, 1, 7, 122
3, 32942, Control_c, 1, 7, 121
3, 32946, Control_c, 1, 7, 120
3, 32948, Control_c, 1, 7, 119
3, 32950, Control_c, 1, 7, 118
3, 32954, Control_c, 1, 7, 117
3, 32956, Control_c, 1, 7, 116
3, 32958, Control_c, 1, 7, 115
3, 32962, Control_c, 1, 7, 114
3, 32964, Control_c, 1, 7, 113
3, 32966, Control_c, 1, 7, 112
3, 32970, Control_c, 1, 7, 111
3, 32972, Control_c, 1, 7, 110
3, 32974, Control_c, 1, 7, 109
3, 32978, Control_c, 1, 7, 108
3, 32980, Control_c, 1, 7, 107
3, 32982, Control_c, 1, 7, 106
3, 32984, Control_c, 1, 7, 105
3, 32988, Control_c, 1, 7, 104
3, 32990, Control_c, 1, 7, 103
3, 32992, Control_c, 1, 7, 102
3, 32996, Control_c, 1, 7, 101
3, 32998, Control_c, 1, 7, 100
3, 33000, Control_c, 1, 7, 99
3, 33004, Control_c, 1, 7, 98
3, 33006, Control_c, 1, 7, 97
3, 33008, Control_c, 1, 7, 96
3, 33012, Control_c, 1, 7, 95
3, 33014, Control_c, 1, 7, 94
3, 33016, Control_c, 1, 7, 93
3, 33018, Control_c, 1, 7, 92
3, 33022, Control_c, 1, 7, 91
3, 33024, Control_c, 1, 7, 90
3, 33026, Control_c, 1, 7, 89
3, 33030, Control_c, 1, 7, 88
3, 33032, Control_c, 1, 7, 87
3, 33034, Control_c, 1, 7, 86
3, 33038, Control_c, 1, 7, 85
3, 33040, Control_c, 1, 7, 84
3, 33042, Control_c, 1, 7, 83
3, 33046, Control_c, 1, 7, 82
3, 33048, Control_c, 1, 7, 81
3, 33050, Control_c, 1, 7, 80
3, 33052, Control_c, 1, 7, 79
3, 33056, Control_c, 1, 7, 78
3, 33058, Control_c, 1, 7, 77
3, 33060, Control_c, 1, 7, 76
3, 33064, Control_c, 1, 7, 75
3, 33066, Control_c, 1, 7, 74
3, 33068, Control_c, 1, 7, 73
3, 33072, Control_c, 1, 7, 72
3, 33074, Control_c, 1, 7, 71
3, 33076, Control_c, 1, 7, 70
3, 33080, Control_c, 1, 7, 69
3, 33082, Control_c, 1, 7, 68
3, 33084, Control_c, 1, 7, 67
3, 33086, Control_c, 1, 7, 66
3, 33090, Control_c, 1, 7, 65
3, 33092, Control_c, 1, 7, 64
3, 33094, Control_c, 1, 7, 63
3, 33098, Control_c, 1, 7, 62
3, 33100, Control_c, 1, 7, 61
3, 33102, Control_c, 1, 7, 60
3, 33106, Control_c, 1, 7, 59
3, 33108, Control_c, 1, 7, 58
3, 33110, Control_c, 1, 7, 57
3, 33114, Control_c, 1, 7, 56
3, 33116, Control_c, 1, 7, 55
3, 33118, Control_c, 1, 7, 54
3, 33120, Note_on_c, 1, 67, 0
3, 33120, Note_on_c, 1, 75, 0
3, 33120, Control_c, 1, 7, 53
3, 33120, End_track
4, 0, Start_track
4, 0, MIDI_port, 0
4, 0, Title_t, "Bassoons"
4, 0, Program_c, 2, 70
4, 0, Control_c, 2, 7, 100
4, 0, Control_c, 2, 10, 89
4, 0, Control_c, 2, 93, 0
4, 0, Control_c, 2, 91, 66
4, 0, Note_on_c, 2, 55, 46
4, 0, Note_on_c, 2, 51, 56
4, 240, Note_on_c, 2, 51, 0
4, 240, Note_on_c, 2, 55, 0
4, 240, Note_on_c, 2, 53, 45
4, 240, Note_on_c, 2, 56, 61
4, 360, Note_on_c, 2, 56, 0
4, 360, Note_on_c, 2, 53, 0
4, 360, Note_on_c, 2, 55, 42
4, 360, Note_on_c, 2, 51, 61
4, 480, Note_on_c, 2, 51, 0
4, 480, Note_on_c, 2, 55, 0
4, 480, Note_on_c, 2, 53, 53
4, 480, Note_on_c, 2, 50, 52
4, 540, Note_on_c, 2, 50, 0
4, 540, Note_on_c, 2, 53, 0
4, 720, Control_c, 2, 7, 100
4, 720, Note_on_c, 2, 56, 73
4, 720, Note_on_c, 2, 51, 81
4, 728, Control_c, 2, 7, 101
4, 736, Control_c, 2, 7, 102
4, 744, Control_c, 2, 7, 103
4, 750, Control_c, 2, 7, 104
4, 758, Control_c, 2, 7, 105
4, 766, Control_c, 2, 7, 106
4, 774, Control_c, 2, 7, 107
4, 780, Control_c, 2, 7, 108
4, 788, Control_c, 2, 7, 109
4, 796, Control_c, 2, 7, 110
4, 804, Control_c, 2, 7, 111
4, 810, Control_c, 2, 7, 112
4, 818, Control_c, 2, 7, 113
4, 826, Control_c, 2, 7, 114
4, 834, Control_c, 2, 7, 115
4, 840, Note_on_c, 2, 51, 0
4, 840, Control_c, 2, 7, 116
4, 840, Note_on_c, 2, 53, 76
4, 848, Control_c, 2, 7, 115
4, 856, Control_c, 2, 7, 114
4, 862, Control_c, 2, 7, 113
4, 870, Control_c, 2, 7, 112
4, 878, Control_c, 2, 7, 111
4, 884, Control_c, 2, 7, 110
4, 892, Control_c, 2, 7, 109
4, 900, Control_c, 2, 7, 108
4, 906, Control_c, 2, 7, 107
4, 914, Control_c, 2, 7, 106
4, 922, Control_c, 2, 7, 105
4, 928, Control_c, 2, 7, 104
4, 936, Control_c, 2, 7, 103
4, 944, Control_c, 2, 7, 102
4, 950, Control_c, 2, 7, 101
4, 958, Control_c, 2, 7, 100
4, 960, Note_on_c, 2, 53, 0
4, 960, Note_on_c, 2, 56, 0
4, 960, Note_on_c, 2, 51, 66
4, 960, Note_on_c, 2, 55, 46
4, 964, Control_c, 2, 7, 99
4, 1080, Note_on_c, 2, 55, 0
4, 1080, Note_on_c, 2, 51, 0
4, 1080, Note_on_c, 2, 55, 74
4, 1080, Note_on_c, 2, 51, 78
4, 1200, Note_on_c, 2, 55, 0
4, 1200, Note_on_c, 2, 53, 74
4, 1260, Note_on_c, 2, 53, 0
4, 1260, Note_on_c, 2, 51, 0
4, 2025, Note_on_c, 2, 63, 82
4, 2025, Note_on_c, 2, 57, 105
4, 2040, Note_on_c, 2, 57, 0
4, 2040, Note_on_c, 2, 63, 0
4, 2040, Note_on_c, 2, 63, 78
4, 2040, Note_on_c, 2, 57, 107
4, 2130, Note_on_c, 2, 57, 0
4, 2130, Note_on_c, 2, 63, 0
4, 2145, Note_on_c, 2, 63, 76
4, 2145, Note_on_c, 2, 57, 104
4, 2160, Note_on_c, 2, 57, 0
4, 2160, Note_on_c, 2, 63, 0
4, 2160, Note_on_c, 2, 62, 66
4, 2160, Note_on_c, 2, 58, 74
4, 2280, Note_on_c, 2, 58, 0
4, 2280, Note_on_c, 2, 62, 0
4, 2280, Note_on_c, 2, 58, 69
4, 2280, Note_on_c, 2, 50, 64
4, 2400, Note_on_c, 2, 50, 0
4, 2400, Note_on_c, 2, 51, 64
4, 2520, Note_on_c, 2, 51, 0
4, 2520, Note_on_c, 2, 46, 73
4, 2640, Note_on_c, 2, 46, 0
4, 2640, Note_on_c, 2, 58, 0
4, 2640, Note_on_c, 2, 56, 73
4, 2640, Note_on_c, 2, 53, 78
4, 2760, Note_on_c, 2, 53, 0
4, 2760, Note_on_c, 2, 56, 0
4, 2760, Note_on_c, 2, 55, 82
4, 2760, Note_on_c, 2, 51, 80
4, 2880, Note_on_c, 2, 51, 0
4, 2880, Note_on_c, 2, 55, 0
4, 2880, Note_on_c, 2, 53, 45
4, 2880, Note_on_c, 2, 50, 45
4, 3000, Note_on_c, 2, 50, 0
4, 3000, Note_on_c, 2, 53, 0
4, 3150, Note_on_c, 2, 62, 72
4, 3150, Note_on_c, 2, 53, 76
4, 3165, Note_on_c, 2, 53, 0
4, 3165, Note_on_c, 2, 62, 0
4, 3180, Note_on_c, 2, 63, 73
4, 3180, Note_on_c, 2, 55, 90
4, 3195, Note_on_c, 2, 55, 0
4, 3195, Note_on_c, 2, 63, 0
4, 3210, Note_on_c, 2, 67, 72
4, 3210, Note_on_c, 2, 63, 81
4, 3225, Note_on_c, 2, 63, 0
4, 3225, Note_on_c, 2, 67, 0
4, 3240, Note_on_c, 2, 65, 72
4, 3240, Note_on_c, 2, 62, 82
4, 3300, Note_on_c, 2, 62, 0
4, 3300, Note_on_c, 2, 65, 0
4, 3510, Note_on_c, 2, 62, 72
4, 3510, Note_on_c, 2, 53, 84
4, 3525, Note_on_c, 2, 53, 0
4, 3525, Note_on_c, 2, 62, 0
4, 3540, Note_on_c, 2, 63, 81
4, 3540, Note_on_c, 2, 55, 94
4, 3555, Note_on_c, 2, 55, 0
4, 3555, Note_on_c, 2, 63, 0
4, 3570, Note_on_c, 2, 55, 73
4, 3570, Note_on_c, 2, 51, 84
4, 3585, Note_on_c, 2, 51, 0
4, 3585, Note_on_c, 2, 55, 0
4, 3600, Note_on_c, 2, 53, 74
4, 3600, Note_on_c, 2, 50, 73
4, 3660, Note_on_c, 2, 50, 0
4, 3660, Note_on_c, 2, 53, 0
4, 3825, Note_on_c, 2, 58, 84
4, 3825, Note_on_c, 2, 46, 94
4, 3840, Note_on_c, 2, 46, 0
4, 3840, Note_on_c, 2, 58, 0
4, 3840, Note_on_c, 2, 58, 78
4, 3840, Note_on_c, 2, 46, 90
4, 3930, Note_on_c, 2, 46, 0
4, 3930, Note_on_c, 2, 58, 0
4, 3945, Note_on_c, 2, 58, 84
4, 3945, Note_on_c, 2, 46, 94
4, 3960, Note_on_c, 2, 46, 0
4, 3960, Note_on_c, 2, 58, 0
4, 3960, Note_on_c, 2, 56, 77
4, 3960, Note_on_c, 2, 53, 68
4, 3960, Control_c, 2, 7, 99
4, 3972, Control_c, 2, 7, 98
4, 3982, Control_c, 2, 7, 97
4, 3992, Control_c, 2, 7, 96
4, 4002, Control_c, 2, 7, 95
4, 4012, Control_c, 2, 7, 94
4, 4022, Control_c, 2, 7, 93
4, 4032, Control_c, 2, 7, 92
4, 4044, Control_c, 2, 7, 91
4, 4054, Control_c, 2, 7, 90
4, 4064, Control_c, 2, 7, 89
4, 4074, Control_c, 2, 7, 88
4, 4084, Control_c, 2, 7, 87
4, 4094, Control_c, 2, 7, 86
4, 4104, Control_c, 2, 7, 85
4, 4116, Control_c, 2, 7, 84
4, 4126, Control_c, 2, 7, 83
4, 4136, Control_c, 2, 7, 82
4, 4146, Control_c, 2, 7, 81
4, 4156, Control_c, 2, 7, 80
4, 4166, Control_c, 2, 7, 79
4, 4176, Control_c, 2, 7, 78
4, 4188, Control_c, 2, 7, 77
4, 4198, Control_c, 2, 7, 76
4, 4208, Control_c, 2, 7, 75
4, 4218, Control_c, 2, 7, 74
4, 4228, Control_c, 2, 7, 73
4, 4238, Control_c, 2, 7, 72
4, 4248, Control_c, 2, 7, 71
4, 4260, Control_c, 2, 7, 70
4, 4270, Control_c, 2, 7, 69
4, 4280, Control_c, 2, 7, 68
4, 4290, Control_c, 2, 7, 67
4, 4300, Control_c, 2, 7, 66
4, 4310, Control_c, 2, 7, 65
4, 4320, Note_on_c, 2, 53, 0
4, 4320, Note_on_c, 2, 56, 0
4, 4320, Control_c, 2, 7, 64
4, 4320, Note_on_c, 2, 55, 68
4, 4320, Note_on_c, 2, 51, 78
4, 4380, Note_on_c, 2, 51, 0
4, 4380, Note_on_c, 2, 55, 0
4, 4500, Control_c, 2, 7, 99
4, 5760, Note_on_c, 2, 55, 81
4, 5760, Note_on_c, 2, 51, 80
4, 5880, Note_on_c, 2, 51, 0
4, 5880, Note_on_c, 2, 55, 0
4, 5940, Note_on_c, 2, 55, 80
4, 5940, Note_on_c, 2, 51, 81
4, 5970, Note_on_c, 2, 51, 0
4, 5970, Note_on_c, 2, 55, 0
4, 6000, Note_on_c, 2, 58, 84
4, 6000, Note_on_c, 2, 55, 82
4, 6030, Note_on_c, 2, 55, 0
4, 6030, Note_on_c, 2, 58, 0
4, 6060, Note_on_c, 2, 63, 78
4, 6060, Note_on_c, 2, 58, 94
4, 6090, Note_on_c, 2, 58, 0
4, 6090, Note_on_c, 2, 63, 0
4, 6120, Note_on_c, 2, 67, 74
4, 6120, Note_on_c, 2, 63, 80
4, 6150, Note_on_c, 2, 63, 0
4, 6150, Note_on_c, 2, 67, 0
4, 8100, Note_on_c, 2, 58, 72
4, 8160, Note_on_c, 2, 58, 0
4, 8160, Note_on_c, 2, 63, 61
4, 8160, Note_on_c, 2, 57, 95
4, 8220, Note_on_c, 2, 57, 0
4, 8220, Note_on_c, 2, 63, 0
4, 8220, Note_on_c, 2, 67, 84
4, 8220, Note_on_c, 2, 62, 84
4, 8280, Note_on_c, 2, 62, 0
4, 8280, Note_on_c, 2, 67, 0
4, 8280, Note_on_c, 2, 65, 95
4, 8280, Note_on_c, 2, 60, 99
4, 8340, Note_on_c, 2, 60, 0
4, 8340, Note_on_c, 2, 57, 93
4, 8370, Note_on_c, 2, 65, 0
4, 8370, Note_on_c, 2, 63, 82
4, 8400, Note_on_c, 2, 63, 0
4, 8400, Note_on_c, 2, 57, 0
4, 8400, Note_on_c, 2, 62, 84
4, 8400, Note_on_c, 2, 58, 78
4, 8430, Note_on_c, 2, 58, 0
4, 8430, Note_on_c, 2, 62, 0
4, 8820, Note_on_c, 2, 67, 68
4, 8820, Note_on_c, 2, 55, 73
4, 8880, Note_on_c, 2, 55, 0
4, 8880, Note_on_c, 2, 67, 0
4, 8880, Note_on_c, 2, 65, 81
4, 8880, Note_on_c, 2, 59, 85
4, 8940, Note_on_c, 2, 59, 0
4, 8940, Note_on_c, 2, 65, 0
4, 8940, Note_on_c, 2, 63, 94
4, 8940, Note_on_c, 2, 60, 89
4, 9000, Note_on_c, 2, 60, 0
4, 9000, Note_on_c, 2, 63, 0
4, 9000, Note_on_c, 2, 62, 86
4, 9000, Note_on_c, 2, 59, 99
4, 9060, Note_on_c, 2, 59, 0
4, 9060, Note_on_c, 2, 62, 0
4, 9060, Note_on_c, 2, 59, 66
4, 9060, Note_on_c, 2, 55, 80
4, 9120, Note_on_c, 2, 55, 0
4, 9120, Note_on_c, 2, 59, 0
4, 9120, Note_on_c, 2, 60, 73
4, 9180, Note_on_c, 2, 60, 0
4, 10760, Control_c, 2, 7, 64
4, 10800, Control_c, 2, 7, 63
4, 10800, Note_on_c, 2, 58, 77
4, 10800, Note_on_c, 2, 46, 84
4, 10810, Control_c, 2, 7, 64
4, 10820, Control_c, 2, 7, 65
4, 10830, Control_c, 2, 7, 66
4, 10840, Control_c, 2, 7, 67
4, 10850, Control_c, 2, 7, 68
4, 10860, Control_c, 2, 7, 69
4, 10870, Control_c, 2, 7, 70
4, 10880, Control_c, 2, 7, 71
4, 10890, Control_c, 2, 7, 72
4, 10900, Control_c, 2, 7, 73
4, 10910, Control_c, 2, 7, 74
4, 10920, Control_c, 2, 7, 75
4, 10930, Control_c, 2, 7, 76
4, 10940, Control_c, 2, 7, 77
4, 10950, Control_c, 2, 7, 78
4, 10960, Control_c, 2, 7, 79
4, 10970, Control_c, 2, 7, 80
4, 10980, Control_c, 2, 7, 81
4, 10990, Control_c, 2, 7, 82
4, 11000, Control_c, 2, 7, 83
4, 11010, Control_c, 2, 7, 84
4, 11020, Control_c, 2, 7, 85
4, 11030, Control_c, 2, 7, 86
4, 11040, Note_on_c, 2, 46, 0
4, 11040, Note_on_c, 2, 58, 0
4, 11040, Note_on_c, 2, 54, 93
4, 11040, Note_on_c, 2, 63, 76
4, 11040, Control_c, 2, 7, 87
4, 11050, Control_c, 2, 7, 88
4, 11060, Control_c, 2, 7, 89
4, 11070, Control_c, 2, 7, 90
4, 11080, Control_c, 2, 7, 91
4, 11090, Control_c, 2, 7, 92
4, 11100, Control_c, 2, 7, 93
4, 11110, Control_c, 2, 7, 94
4, 11120, Control_c, 2, 7, 95
4, 11130, Control_c, 2, 7, 96
4, 11140, Control_c, 2, 7, 97
4, 11150, Control_c, 2, 7, 98
4, 11160, Note_on_c, 2, 63, 0
4, 11160, Note_on_c, 2, 54, 0
4, 11160, Note_on_c, 2, 61, 84
4, 11160, Note_on_c, 2, 53, 80
4, 11160, Control_c, 2, 7, 99
4, 11280, Note_on_c, 2, 53, 0
4, 11280, Note_on_c, 2, 61, 0
4, 11280, Note_on_c, 2, 60, 73
4, 11280, Note_on_c, 2, 51, 73
4, 11340, Note_on_c, 2, 51, 0
4, 11340, Note_on_c, 2, 60, 0
4, 11400, Note_on_c, 2, 56, 78
4, 11400, Note_on_c, 2, 65, 72
4, 11520, Note_on_c, 2, 65, 0
4, 11520, Note_on_c, 2, 56, 0
4, 11520, Note_on_c, 2, 63, 86
4, 11520, Note_on_c, 2, 54, 98
4, 11640, Note_on_c, 2, 54, 0
4, 11640, Note_on_c, 2, 63, 0
4, 11640, Note_on_c, 2, 62, 70
4, 11640, Note_on_c, 2, 53, 77
4, 11700, Note_on_c, 2, 53, 0
4, 11700, Note_on_c, 2, 62, 0
4, 11760, Note_on_c, 2, 62, 86
4, 11760, Note_on_c, 2, 58, 89
4, 11850, Note_on_c, 2, 58, 0
4, 11850, Note_on_c, 2, 62, 0
4, 11865, Note_on_c, 2, 57, 104
4, 11865, Note_on_c, 2, 63, 78
4, 11880, Note_on_c, 2, 63, 0
4, 11880, Note_on_c, 2, 57, 0
4, 11880, Note_on_c, 2, 63, 76
4, 11880, Note_on_c, 2, 57, 99
4, 11940, Note_on_c, 2, 57, 0
4, 11940, Note_on_c, 2, 63, 0
4, 11940, Note_on_c, 2, 63, 84
4, 11940, Note_on_c, 2, 51, 99
4, 12060, Note_on_c, 2, 51, 0
4, 12060, Note_on_c, 2, 63, 0
4, 12060, Note_on_c, 2, 65, 95
4, 12060, Note_on_c, 2, 53, 94
4, 12120, Note_on_c, 2, 53, 0
4, 12120, Note_on_c, 2, 65, 0
4, 12120, Note_on_c, 2, 66, 90
4, 12120, Note_on_c, 2, 54, 94
4, 12180, Note_on_c, 2, 54, 0
4, 12180, Note_on_c, 2, 66, 0
4, 12180, Note_on_c, 2, 51, 99
4, 12180, Note_on_c, 2, 63, 89
4, 12240, Note_on_c, 2, 63, 0
4, 12240, Note_on_c, 2, 51, 0
4, 12240, Note_on_c, 2, 65, 74
4, 12240, Note_on_c, 2, 53, 73
4, 12300, Note_on_c, 2, 53, 0
4, 12300, Note_on_c, 2, 65, 0
4, 14760, Note_on_c, 2, 63, 59
4, 14760, Note_on_c, 2, 63, 65
4, 14880, Note_on_c, 2, 63, 0
4, 14880, Note_on_c, 2, 60, 59
4, 15000, Note_on_c, 2, 60, 0
4, 15000, Note_on_c, 2, 63, 0
4, 15000, Note_on_c, 2, 60, 46
4, 15000, Note_on_c, 2, 56, 68
4, 15120, Note_on_c, 2, 56, 0
4, 15120, Note_on_c, 2, 60, 0
4, 15120, Note_on_c, 2, 58, 74
4, 15240, Note_on_c, 2, 58, 0
4, 15240, Note_on_c, 2, 46, 71
4, 15300, Note_on_c, 2, 46, 0
4, 15480, Control_c, 2, 7, 99
4, 15480, Note_on_c, 2, 63, 45
4, 15480, Note_on_c, 2, 60, 58
4, 15488, Control_c, 2, 7, 100
4, 15494, Control_c, 2, 7, 101
4, 15502, Control_c, 2, 7, 102
4, 15508, Control_c, 2, 7, 103
4, 15516, Control_c, 2, 7, 104
4, 15522, Control_c, 2, 7, 105
4, 15530, Control_c, 2, 7, 106
4, 15536, Control_c, 2, 7, 107
4, 15544, Control_c, 2, 7, 108
4, 15550, Control_c, 2, 7, 109
4, 15558, Control_c, 2, 7, 110
4, 15564, Control_c, 2, 7, 111
4, 15570, Control_c, 2, 7, 112
4, 15578, Control_c, 2, 7, 113
4, 15584, Control_c, 2, 7, 114
4, 15592, Control_c, 2, 7, 115
4, 15598, Control_c, 2, 7, 116
4, 15600, Note_on_c, 2, 60, 0
4, 15600, Note_on_c, 2, 63, 0
4, 15600, Note_on_c, 2, 65, 43
4, 15600, Note_on_c, 2, 62, 53
4, 15606, Control_c, 2, 7, 117
4, 15612, Control_c, 2, 7, 118
4, 15620, Control_c, 2, 7, 119
4, 15626, Control_c, 2, 7, 120
4, 15634, Control_c, 2, 7, 121
4, 15640, Control_c, 2, 7, 122
4, 15648, Control_c, 2, 7, 123
4, 15654, Control_c, 2, 7, 124
4, 15660, Control_c, 2, 7, 125
4, 15668, Control_c, 2, 7, 124
4, 15674, Control_c, 2, 7, 123
4, 15680, Control_c, 2, 7, 122
4, 15688, Control_c, 2, 7, 121
4, 15694, Control_c, 2, 7, 120
4, 15700, Control_c, 2, 7, 119
4, 15708, Control_c, 2, 7, 118
4, 15714, Control_c, 2, 7, 117
4, 15720, Note_on_c, 2, 62, 0
4, 15720, Note_on_c, 2, 65, 0
4, 15720, Note_on_c, 2, 67, 44
4, 15720, Note_on_c, 2, 63, 55
4, 15720, Control_c, 2, 7, 116
4, 15728, Control_c, 2, 7, 115
4, 15734, Control_c, 2, 7, 114
4, 15740, Control_c, 2, 7, 113
4, 15748, Control_c, 2, 7, 112
4, 15754, Control_c, 2, 7, 111
4, 15760, Control_c, 2, 7, 110
4, 15768, Control_c, 2, 7, 109
4, 15774, Control_c, 2, 7, 108
4, 15780, Control_c, 2, 7, 107
4, 15788, Control_c, 2, 7, 106
4, 15794, Control_c, 2, 7, 105
4, 15800, Control_c, 2, 7, 104
4, 15808, Control_c, 2, 7, 103
4, 15814, Control_c, 2, 7, 102
4, 15820, Control_c, 2, 7, 101
4, 15828, Control_c, 2, 7, 100
4, 15834, Control_c, 2, 7, 99
4, 15840, Note_on_c, 2, 63, 0
4, 15840, Note_on_c, 2, 67, 0
4, 15840, Control_c, 2, 7, 98
4, 15840, Note_on_c, 2, 68, 60
4, 15840, Note_on_c, 2, 56, 64
4, 15960, Note_on_c, 2, 56, 0
4, 15960, Note_on_c, 2, 68, 0
4, 15960, Note_on_c, 2, 67, 53
4, 15960, Note_on_c, 2, 58, 60
4, 16080, Note_on_c, 2, 58, 0
4, 16080, Note_on_c, 2, 67, 0
4, 16080, Note_on_c, 2, 62, 58
4, 16080, Note_on_c, 2, 46, 65
4, 16200, Note_on_c, 2, 46, 0
4, 16200, Note_on_c, 2, 62, 0
4, 16200, Note_on_c, 2, 65, 63
4, 16200, Note_on_c, 2, 51, 56
4, 16320, Note_on_c, 2, 65, 0
4, 16320, Note_on_c, 2, 63, 53
4, 16380, Note_on_c, 2, 63, 0
4, 16380, Note_on_c, 2, 51, 0
4, 17460, Note_on_c, 2, 63, 52
4, 17460, Note_on_c, 2, 58, 68
4, 17520, Note_on_c, 2, 58, 0
4, 17520, Note_on_c, 2, 63, 0
4, 17520, Note_on_c, 2, 62, 54
4, 17520, Note_on_c, 2, 56, 74
4, 17580, Note_on_c, 2, 56, 0
4, 17580, Note_on_c, 2, 62, 0
4, 17580, Note_on_c, 2, 60, 81
4, 17580, Note_on_c, 2, 55, 76
4, 17640, Note_on_c, 2, 55, 0
4, 17640, Note_on_c, 2, 60, 0
4, 17640, Note_on_c, 2, 58, 89
4, 17640, Note_on_c, 2, 53, 89
4, 17700, Note_on_c, 2, 53, 0
4, 17700, Note_on_c, 2, 58, 0
4, 17700, Note_on_c, 2, 62, 44
4, 17700, Note_on_c, 2, 53, 74
4, 17760, Note_on_c, 2, 53, 0
4, 17760, Note_on_c, 2, 62, 0
4, 17760, Note_on_c, 2, 63, 61
4, 17760, Note_on_c, 2, 55, 77
4, 17790, Note_on_c, 2, 55, 0
4, 17790, Note_on_c, 2, 63, 0
4, 24480, Note_on_c, 2, 63, 76
4, 24480, Note_on_c, 2, 51, 94
4, 24720, Note_on_c, 2, 51, 0
4, 24720, Note_on_c, 2, 63, 0
4, 24720, Note_on_c, 2, 63, 72
4, 24720, Note_on_c, 2, 59, 84
4, 24840, Note_on_c, 2, 59, 0
4, 24840, Note_on_c, 2, 63, 0
4, 24840, Note_on_c, 2, 66, 89
4, 24840, Note_on_c, 2, 61, 78
4, 24960, Note_on_c, 2, 66, 0
4, 24960, Note_on_c, 2, 65, 94
4, 25080, Note_on_c, 2, 65, 0
4, 25080, Note_on_c, 2, 61, 0
4, 25080, Note_on_c, 2, 64, 89
4, 25080, Note_on_c, 2, 61, 84
4, 25200, Note_on_c, 2, 61, 0
4, 25200, Note_on_c, 2, 64, 0
4, 25200, Note_on_c, 2, 63, 82
4, 25200, Note_on_c, 2, 59, 93
4, 25320, Note_on_c, 2, 59, 0
4, 25320, Note_on_c, 2, 58, 80
4, 25440, Note_on_c, 2, 63, 0
4, 25440, Note_on_c, 2, 63, 81
4, 25500, Note_on_c, 2, 63, 0
4, 25500, Note_on_c, 2, 58, 0
4, 25500, Note_on_c, 2, 63, 73
4, 25500, Note_on_c, 2, 58, 77
4, 25560, Note_on_c, 2, 58, 0
4, 25560, Note_on_c, 2, 63, 0
4, 25560, Note_on_c, 2, 63, 86
4, 25560, Note_on_c, 2, 56, 89
4, 25680, Note_on_c, 2, 56, 0
4, 25680, Note_on_c, 2, 63, 0
4, 25680, Note_on_c, 2, 54, 74
4, 25680, Note_on_c, 2, 51, 99
4, 25920, Note_on_c, 2, 51, 0
4, 25920, Note_on_c, 2, 54, 0
4, 25920, Note_on_c, 2, 54, 77
4, 25920, Note_on_c, 2, 51, 98
4, 26040, Note_on_c, 2, 51, 0
4, 26040, Note_on_c, 2, 54, 0
4, 26040, Note_on_c, 2, 54, 77
4, 26040, Note_on_c, 2, 51, 99
4, 26160, Note_on_c, 2, 51, 0
4, 26160, Note_on_c, 2, 54, 0
4, 26160, Note_on_c, 2, 54, 77
4, 26160, Note_on_c, 2, 51, 99
4, 26280, Note_on_c, 2, 51, 0
4, 26280, Note_on_c, 2, 54, 0
4, 26280, Note_on_c, 2, 55, 94
4, 26280, Note_on_c, 2, 51, 89
4, 26520, Note_on_c, 2, 51, 0
4, 26520, Note_on_c, 2, 55, 0
4, 31320, Note_on_c, 2, 62, 54
4, 31320, Note_on_c, 2, 46, 66
4, 31410, Note_on_c, 2, 46, 0
4, 31410, Note_on_c, 2, 62, 0
4, 31440, Note_on_c, 2, 62, 72
4, 31440, Note_on_c, 2, 46, 70
4, 31530, Note_on_c, 2, 46, 0
4, 31530, Note_on_c, 2, 62, 0
4, 31560, Note_on_c, 2, 62, 69
4, 31560, Note_on_c, 2, 46, 68
4, 31650, Note_on_c, 2, 46, 0
4, 31650, Note_on_c, 2, 62, 0
4, 31680, Control_c, 2, 7, 99
4, 31680, Note_on_c, 2, 63, 47
4, 31680, Note_on_c, 2, 55, 72
4, 31688, Control_c, 2, 7, 100
4, 31694, Control_c, 2, 7, 101
4, 31700, Control_c, 2, 7, 102
4, 31708, Control_c, 2, 7, 103
4, 31714, Control_c, 2, 7, 104
4, 31720, Control_c, 2, 7, 105
4, 31728, Control_c, 2, 7, 106
4, 31734, Control_c, 2, 7, 107
4, 31740, Control_c, 2, 7, 108
4, 31748, Control_c, 2, 7, 109
4, 31754, Control_c, 2, 7, 110
4, 31760, Control_c, 2, 7, 111
4, 31768, Control_c, 2, 7, 112
4, 31774, Control_c, 2, 7, 113
4, 31780, Control_c, 2, 7, 114
4, 31788, Control_c, 2, 7, 115
4, 31794, Control_c, 2, 7, 116
4, 31800, Control_c, 2, 7, 117
4, 31808, Control_c, 2, 7, 118
4, 31814, Control_c, 2, 7, 119
4, 31820, Control_c, 2, 7, 120
4, 31828, Control_c, 2, 7, 121
4, 31834, Control_c, 2, 7, 122
4, 31840, Control_c, 2, 7, 123
4, 31848, Control_c, 2, 7, 124
4, 31854, Control_c, 2, 7, 125
4, 31860, Control_c, 2, 7, 126
4, 31868, Control_c, 2, 7, 125
4, 31874, Control_c, 2, 7, 124
4, 31880, Control_c, 2, 7, 123
4, 31888, Control_c, 2, 7, 122
4, 31894, Control_c, 2, 7, 121
4, 31900, Control_c, 2, 7, 120
4, 31908, Control_c, 2, 7, 119
4, 31914, Control_c, 2, 7, 118
4, 31920, Note_on_c, 2, 55, 0
4, 31920, Note_on_c, 2, 63, 0
4, 31920, Control_c, 2, 7, 117
4, 31920, Note_on_c, 2, 62, 61
4, 31920, Note_on_c, 2, 56, 60
4, 31928, Control_c, 2, 7, 116
4, 31934, Control_c, 2, 7, 115
4, 31940, Control_c, 2, 7, 114
4, 31948, Control_c, 2, 7, 113
4, 31954, Control_c, 2, 7, 112
4, 31960, Control_c, 2, 7, 111
4, 31968, Control_c, 2, 7, 110
4, 31974, Control_c, 2, 7, 109
4, 31980, Control_c, 2, 7, 108
4, 31988, Control_c, 2, 7, 107
4, 31994, Control_c, 2, 7, 106
4, 32000, Control_c, 2, 7, 105
4, 32008, Control_c, 2, 7, 104
4, 32014, Control_c, 2, 7, 103
4, 32020, Control_c, 2, 7, 102
4, 32028, Control_c, 2, 7, 101
4, 32034, Control_c, 2, 7, 100
4, 32040, Note_on_c, 2, 56, 0
4, 32040, Note_on_c, 2, 62, 0
4, 32040, Control_c, 2, 7, 99
4, 32040, Note_on_c, 2, 63, 64
4, 32040, Note_on_c, 2, 55, 80
4, 32048, Control_c, 2, 7, 100
4, 32054, Control_c, 2, 7, 101
4, 32060, Control_c, 2, 7, 102
4, 32068, Control_c, 2, 7, 103
4, 32074, Control_c, 2, 7, 104
4, 32080, Control_c, 2, 7, 105
4, 32088, Control_c, 2, 7, 106
4, 32094, Control_c, 2, 7, 107
4, 32100, Control_c, 2, 7, 108
4, 32108, Control_c, 2, 7, 109
4, 32114, Control_c, 2, 7, 110
4, 32120, Control_c, 2, 7, 111
4, 32128, Control_c, 2, 7, 112
4, 32134, Control_c, 2, 7, 113
4, 32140, Control_c, 2, 7, 114
4, 32148, Control_c, 2, 7, 115
4, 32154, Control_c, 2, 7, 116
4, 32160, Control_c, 2, 7, 117
4, 32168, Control_c, 2, 7, 118
4, 32174, Control_c, 2, 7, 119
4, 32180, Control_c, 2, 7, 120
4, 32188, Control_c, 2, 7, 121
4, 32194, Control_c, 2, 7, 122
4, 32200, Control_c, 2, 7, 123
4, 32208, Control_c, 2, 7, 124
4, 32214, Control_c, 2, 7, 125
4, 32220, Control_c, 2, 7, 126
4, 32228, Control_c, 2, 7, 125
4, 32234, Control_c, 2, 7, 124
4, 32240, Control_c, 2, 7, 123
4, 32248, Control_c, 2, 7, 122
4, 32254, Control_c, 2, 7, 121
4, 32260, Control_c, 2, 7, 120
4, 32268, Control_c, 2, 7, 119
4, 32274, Control_c, 2, 7, 118
4, 32280, Note_on_c, 2, 55, 0
4, 32280, Note_on_c, 2, 63, 0
4, 32280, Control_c, 2, 7, 117
4, 32280, Note_on_c, 2, 62, 53
4, 32280, Note_on_c, 2, 56, 64
4, 32288, Control_c, 2, 7, 116
4, 32294, Control_c, 2, 7, 115
4, 32300, Control_c, 2, 7, 114
4, 32308, Control_c, 2, 7, 113
4, 32314, Control_c, 2, 7, 112
4, 32320, Control_c, 2, 7, 111
4, 32328, Control_c, 2, 7, 110
4, 32334, Control_c, 2, 7, 109
4, 32340, Control_c, 2, 7, 108
4, 32348, Control_c, 2, 7, 107
4, 32354, Control_c, 2, 7, 106
4, 32360, Control_c, 2, 7, 105
4, 32368, Control_c, 2, 7, 104
4, 32374, Control_c, 2, 7, 103
4, 32380, Control_c, 2, 7, 102
4, 32388, Control_c, 2, 7, 101
4, 32394, Control_c, 2, 7, 100
4, 32400, Note_on_c, 2, 56, 0
4, 32400, Note_on_c, 2, 62, 0
4, 32400, Control_c, 2, 7, 99
4, 32400, Note_on_c, 2, 63, 61
4, 32400, Note_on_c, 2, 55, 68
4, 32520, Note_on_c, 2, 55, 0
4, 32520, Note_on_c, 2, 63, 0
4, 32520, Note_on_c, 2, 58, 43
4, 32520, Note_on_c, 2, 55, 48
4, 32610, Note_on_c, 2, 55, 0
4, 32610, Note_on_c, 2, 58, 0
4, 32640, Note_on_c, 2, 58, 43
4, 32640, Note_on_c, 2, 55, 53
4, 32730, Note_on_c, 2, 55, 0
4, 32730, Note_on_c, 2, 58, 0
4, 32760, Control_c, 2, 7, 99
4, 32760, Note_on_c, 2, 55, 43
4, 32760, Note_on_c, 2, 51, 40
4, 32768, Control_c, 2, 7, 100
4, 32774, Control_c, 2, 7, 101
4, 32780, Control_c, 2, 7, 102
4, 32786, Control_c, 2, 7, 103
4, 32794, Control_c, 2, 7, 104
4, 32800, Control_c, 2, 7, 105
4, 32806, Control_c, 2, 7, 106
4, 32812, Control_c, 2, 7, 107
4, 32818, Control_c, 2, 7, 108
4, 32826, Control_c, 2, 7, 109
4, 32832, Control_c, 2, 7, 110
4, 32838, Control_c, 2, 7, 111
4, 32844, Control_c, 2, 7, 112
4, 32850, Control_c, 2, 7, 113
4, 32858, Control_c, 2, 7, 114
4, 32864, Control_c, 2, 7, 115
4, 32870, Control_c, 2, 7, 116
4, 32876, Control_c, 2, 7, 117
4, 32884, Control_c, 2, 7, 118
4, 32890, Control_c, 2, 7, 119
4, 32896, Control_c, 2, 7, 120
4, 32902, Control_c, 2, 7, 121
4, 32908, Control_c, 2, 7, 122
4, 32916, Control_c, 2, 7, 123
4, 32922, Control_c, 2, 7, 124
4, 32928, Control_c, 2, 7, 125
4, 32934, Control_c, 2, 7, 126
4, 32940, Control_c, 2, 7, 126
4, 32944, Control_c, 2, 7, 125
4, 32946, Control_c, 2, 7, 124
4, 32948, Control_c, 2, 7, 123
4, 32950, Control_c, 2, 7, 122
4, 32954, Control_c, 2, 7, 121
4, 32956, Control_c, 2, 7, 120
4, 32958, Control_c, 2, 7, 119
4, 32960, Control_c, 2, 7, 118
4, 32964, Control_c, 2, 7, 117
4, 32966, Control_c, 2, 7, 116
4, 32968, Control_c, 2, 7, 115
4, 32970, Control_c, 2, 7, 114
4, 32974, Control_c, 2, 7, 113
4, 32976, Control_c, 2, 7, 112
4, 32978, Control_c, 2, 7, 111
4, 32980, Control_c, 2, 7, 110
4, 32982, Control_c, 2, 7, 109
4, 32986, Control_c, 2, 7, 108
4, 32988, Control_c, 2, 7, 107
4, 32990, Control_c, 2, 7, 106
4, 32992, Control_c, 2, 7, 105
4, 32996, Control_c, 2, 7, 104
4, 32998, Control_c, 2, 7, 103
4, 33000, Control_c, 2, 7, 102
4, 33002, Control_c, 2, 7, 101
4, 33006, Control_c, 2, 7, 100
4, 33008, Control_c, 2, 7, 99
4, 33010, Control_c, 2, 7, 98
4, 33012, Control_c, 2, 7, 97
4, 33014, Control_c, 2, 7, 96
4, 33018, Control_c, 2, 7, 95
4, 33020, Control_c, 2, 7, 94
4, 33022, Control_c, 2, 7, 93
4, 33024, Control_c, 2, 7, 92
4, 33028, Control_c, 2, 7, 91
4, 33030, Control_c, 2, 7, 90
4, 33032, Control_c, 2, 7, 89
4, 33034, Control_c, 2, 7, 88
4, 33038, Control_c, 2, 7, 87
4, 33040, Control_c, 2, 7, 86
4, 33042, Control_c, 2, 7, 85
4, 33044, Control_c, 2, 7, 84
4, 33048, Control_c, 2, 7, 83
4, 33050, Control_c, 2, 7, 82
4, 33052, Control_c, 2, 7, 81
4, 33054, Control_c, 2, 7, 80
4, 33056, Control_c, 2, 7, 79
4, 33060, Control_c, 2, 7, 78
4, 33062, Control_c, 2, 7, 77
4, 33064, Control_c, 2, 7, 76
4, 33066, Control_c, 2, 7, 75
4, 33070, Control_c, 2, 7, 74
4, 33072, Control_c, 2, 7, 73
4, 33074, Control_c, 2, 7, 72
4, 33076, Control_c, 2, 7, 71
4, 33080, Control_c, 2, 7, 70
4, 33082, Control_c, 2, 7, 69
4, 33084, Control_c, 2, 7, 68
4, 33086, Control_c, 2, 7, 67
4, 33088, Control_c, 2, 7, 66
4, 33092, Control_c, 2, 7, 65
4, 33094, Control_c, 2, 7, 64
4, 33096, Control_c, 2, 7, 63
4, 33098, Control_c, 2, 7, 62
4, 33102, Control_c, 2, 7, 61
4, 33104, Control_c, 2, 7, 60
4, 33106, Control_c, 2, 7, 59
4, 33108, Control_c, 2, 7, 58
4, 33112, Control_c, 2, 7, 57
4, 33114, Control_c, 2, 7, 56
4, 33116, Control_c, 2, 7, 55
4, 33118, Control_c, 2, 7, 54
4, 33120, Note_on_c, 2, 51, 0
4, 33120, Note_on_c, 2, 55, 0
4, 33120, Control_c, 2, 7, 53
4, 33120, End_track
5, 0, Start_track
5, 0, MIDI_port, 0
5, 0, Title_t, "French Horns"
5, 0, Program_c, 3, 60
5, 0, Control_c, 3, 7, 100
5, 0, Control_c, 3, 10, 53
5, 0, Control_c, 3, 93, 0
5, 0, Control_c, 3, 91, 66
5, 840, Note_on_c, 3, 58, 76
5, 960, Note_on_c, 3, 58, 0
5, 960, Note_on_c, 3, 58, 78
5, 1080, Note_on_c, 3, 58, 0
5, 1080, Note_on_c, 3, 63, 70
5, 1080, Note_on_c, 3, 51, 68
5, 1200, Note_on_c, 3, 51, 0
5, 1200, Note_on_c, 3, 63, 0
5, 1200, Note_on_c, 3, 63, 77
5, 1200, Note_on_c, 3, 51, 80
5, 1290, Note_on_c, 3, 51, 0
5, 1290, Note_on_c, 3, 63, 0
5, 1305, Note_on_c, 3, 63, 84
5, 1305, Note_on_c, 3, 51, 90
5, 1320, Note_on_c, 3, 51, 0
5, 1320, Note_on_c, 3, 63, 0
5, 1320, Note_on_c, 3, 51, 94
5, 1320, Note_on_c, 3, 63, 85
5, 1440, Note_on_c, 3, 63, 0
5, 1440, Note_on_c, 3, 51, 0
5, 1440, Note_on_c, 3, 63, 112
5, 1440, Note_on_c, 3, 51, 105
5, 1560, Note_on_c, 3, 51, 0
5, 1560, Note_on_c, 3, 63, 0
5, 1560, Note_on_c, 3, 63, 81
5, 1560, Note_on_c, 3, 51, 89
5, 1650, Note_on_c, 3, 51, 0
5, 1650, Note_on_c, 3, 63, 0
5, 1665, Note_on_c, 3, 63, 76
5, 1665, Note_on_c, 3, 51, 85
5, 1680, Note_on_c, 3, 51, 0
5, 1680, Note_on_c, 3, 63, 0
5, 1680, Note_on_c, 3, 51, 82
5, 1680, Note_on_c, 3, 63, 80
5, 1800, Note_on_c, 3, 63, 0
5, 1800, Note_on_c, 3, 51, 0
5, 1800, Note_on_c, 3, 63, 89
5, 1800, Note_on_c, 3, 51, 99
5, 1980, Note_on_c, 3, 51, 0
5, 1980, Note_on_c, 3, 63, 0
5, 2025, Note_on_c, 3, 63, 81
5, 2025, Note_on_c, 3, 51, 99
5, 2040, Note_on_c, 3, 51, 0
5, 2040, Note_on_c, 3, 63, 0
5, 2040, Note_on_c, 3, 63, 81
5, 2040, Note_on_c, 3, 51, 98
5, 2130, Note_on_c, 3, 51, 0
5, 2130, Note_on_c, 3, 63, 0
5, 2145, Note_on_c, 3, 51, 99
5, 2145, Note_on_c, 3, 63, 82
5, 2160, Note_on_c, 3, 63, 0
5, 2160, Note_on_c, 3, 51, 0
5, 2160, Note_on_c, 3, 46, 95
5, 2160, Note_on_c, 3, 58, 84
5, 2280, Control_c, 3, 7, 99
5, 2282, Control_c, 3, 7, 95
5, 2284, Control_c, 3, 7, 91
5, 2286, Control_c, 3, 7, 86
5, 2288, Control_c, 3, 7, 82
5, 2290, Control_c, 3, 7, 78
5, 2292, Control_c, 3, 7, 73
5, 2294, Control_c, 3, 7, 69
5, 2296, Control_c, 3, 7, 64
5, 2640, Note_on_c, 3, 58, 0
5, 2640, Note_on_c, 3, 46, 0
5, 2640, Note_on_c, 3, 46, 84
5, 2640, Note_on_c, 3, 58, 74
5, 2640, Control_c, 3, 7, 74
5, 2650, Control_c, 3, 7, 75
5, 2660, Control_c, 3, 7, 76
5, 2670, Control_c, 3, 7, 77
5, 2680, Control_c, 3, 7, 78
5, 2688, Control_c, 3, 7, 79
5, 2698, Control_c, 3, 7, 80
5, 2708, Control_c, 3, 7, 81
5, 2718, Control_c, 3, 7, 82
5, 2728, Control_c, 3, 7, 83
5, 2736, Control_c, 3, 7, 84
5, 2746, Control_c, 3, 7, 85
5, 2756, Control_c, 3, 7, 86
5, 2766, Control_c, 3, 7, 87
5, 2776, Control_c, 3, 7, 88
5, 2784, Control_c, 3, 7, 89
5, 2794, Control_c, 3, 7, 90
5, 2804, Control_c, 3, 7, 91
5, 2814, Control_c, 3, 7, 92
5, 2824, Control_c, 3, 7, 93
5, 2832, Control_c, 3, 7, 94
5, 2842, Control_c, 3, 7, 95
5, 2852, Control_c, 3, 7, 96
5, 2862, Control_c, 3, 7, 97
5, 2872, Control_c, 3, 7, 98
5, 2880, Control_c, 3, 7, 99
5, 3000, Note_on_c, 3, 58, 0
5, 3000, Note_on_c, 3, 46, 0
5, 3150, Note_on_c, 3, 65, 84
5, 3150, Note_on_c, 3, 58, 85
5, 3165, Note_on_c, 3, 58, 0
5, 3165, Note_on_c, 3, 65, 0
5, 3180, Note_on_c, 3, 67, 73
5, 3180, Note_on_c, 3, 63, 84
5, 3195, Note_on_c, 3, 63, 0
5, 3195, Note_on_c, 3, 67, 0
5, 3210, Note_on_c, 3, 67, 76
5, 3210, Note_on_c, 3, 63, 86
5, 3225, Note_on_c, 3, 63, 0
5, 3225, Note_on_c, 3, 67, 0
5, 3240, Note_on_c, 3, 65, 85
5, 3240, Note_on_c, 3, 58, 86
5, 3300, Note_on_c, 3, 58, 0
5, 3300, Note_on_c, 3, 65, 0
5, 3360, Note_on_c, 3, 58, 89
5, 3360, Note_on_c, 3, 46, 98
5, 3480, Note_on_c, 3, 46, 0
5, 3480, Note_on_c, 3, 58, 0
5, 3480, Note_on_c, 3, 58, 58
5, 3480, Note_on_c, 3, 46, 74
5, 3510, Note_on_c, 3, 46, 0
5, 3510, Note_on_c, 3, 58, 0
5, 3510, Note_on_c, 3, 65, 76
5, 3510, Note_on_c, 3, 58, 80
5, 3525, Note_on_c, 3, 58, 0
5, 3525, Note_on_c, 3, 65, 0
5, 3540, Note_on_c, 3, 67, 55
5, 3540, Note_on_c, 3, 63, 77
5, 3555, Note_on_c, 3, 63, 0
5, 3555, Note_on_c, 3, 67, 0
5, 3570, Note_on_c, 3, 67, 71
5, 3570, Note_on_c, 3, 63, 84
5, 3585, Note_on_c, 3, 63, 0
5, 3585, Note_on_c, 3, 67, 0
5, 3600, Note_on_c, 3, 65, 69
5, 3600, Note_on_c, 3, 58, 73
5, 3660, Note_on_c, 3, 58, 0
5, 3660, Note_on_c, 3, 65, 0
5, 3825, Note_on_c, 3, 58, 93
5, 3825, Note_on_c, 3, 46, 98
5, 3840, Note_on_c, 3, 46, 0
5, 3840, Note_on_c, 3, 58, 0
5, 3840, Note_on_c, 3, 58, 90
5, 3840, Note_on_c, 3, 46, 94
5, 3930, Note_on_c, 3, 46, 0
5, 3930, Note_on_c, 3, 58, 0
5, 3945, Note_on_c, 3, 58, 89
5, 3945, Note_on_c, 3, 46, 94
5, 3960, Note_on_c, 3, 46, 0
5, 3960, Note_on_c, 3, 58, 0
5, 3960, Note_on_c, 3, 58, 78
5, 3960, Note_on_c, 3, 46, 80
5, 3960, Control_c, 3, 7, 99
5, 3972, Control_c, 3, 7, 98
5, 3982, Control_c, 3, 7, 97
5, 3992, Control_c, 3, 7, 96
5, 4004, Control_c, 3, 7, 95
5, 4014, Control_c, 3, 7, 94
5, 4024, Control_c, 3, 7, 93
5, 4036, Control_c, 3, 7, 92
5, 4046, Control_c, 3, 7, 91
5, 4056, Control_c, 3, 7, 90
5, 4066, Control_c, 3, 7, 89
5, 4078, Control_c, 3, 7, 88
5, 4088, Control_c, 3, 7, 87
5, 4098, Control_c, 3, 7, 86
5, 4110, Control_c, 3, 7, 85
5, 4120, Control_c, 3, 7, 84
5, 4130, Control_c, 3, 7, 83
5, 4140, Control_c, 3, 7, 82
5, 4152, Control_c, 3, 7, 81
5, 4162, Control_c, 3, 7, 80
5, 4172, Control_c, 3, 7, 79
5, 4184, Control_c, 3, 7, 78
5, 4194, Control_c, 3, 7, 77
5, 4204, Control_c, 3, 7, 76
5, 4216, Control_c, 3, 7, 75
5, 4226, Control_c, 3, 7, 74
5, 4236, Control_c, 3, 7, 73
5, 4246, Control_c, 3, 7, 72
5, 4258, Control_c, 3, 7, 71
5, 4268, Control_c, 3, 7, 70
5, 4278, Control_c, 3, 7, 69
5, 4290, Control_c, 3, 7, 68
5, 4300, Control_c, 3, 7, 67
5, 4310, Control_c, 3, 7, 66
5, 4320, Note_on_c, 3, 46, 0
5, 4320, Note_on_c, 3, 58, 0
5, 4320, Control_c, 3, 7, 65
5, 4320, Note_on_c, 3, 63, 72
5, 4320, Note_on_c, 3, 51, 86
5, 4380, Note_on_c, 3, 51, 0
5, 4380, Note_on_c, 3, 63, 0
5, 4500, Control_c, 3, 7, 99
5, 5760, Note_on_c, 3, 63, 84
5, 5760, Note_on_c, 3, 51, 89
5, 5880, Note_on_c, 3, 51, 0
5, 5880, Note_on_c, 3, 63, 0
5, 5940, Note_on_c, 3, 63, 89
5, 5970, Note_on_c, 3, 63, 0
5, 6000, Note_on_c, 3, 70, 81
5, 6000, Note_on_c, 3, 58, 94
5, 6030, Note_on_c, 3, 58, 0
5, 6030, Note_on_c, 3, 70, 0
5, 6060, Note_on_c, 3, 67, 80
5, 6060, Note_on_c, 3, 55, 86
5, 6090, Note_on_c, 3, 55, 0
5, 6090, Note_on_c, 3, 67, 0
5, 6120, Note_on_c, 3, 63, 85
5, 6120, Note_on_c, 3, 51, 95
5, 6150, Note_on_c, 3, 51, 0
5, 6150, Note_on_c, 3, 63, 0
5, 7920, Note_on_c, 3, 65, 43
5, 7980, Note_on_c, 3, 65, 0
5, 7980, Note_on_c, 3, 65, 62
5, 8025, Note_on_c, 3, 65, 0
5, 8040, Note_on_c, 3, 65, 78
5, 8085, Note_on_c, 3, 65, 0
5, 8100, Note_on_c, 3, 65, 89
5, 8145, Note_on_c, 3, 65, 0
5, 8160, Note_on_c, 3, 65, 93
5, 8205, Note_on_c, 3, 65, 0
5, 8220, Note_on_c, 3, 65, 99
5, 8265, Note_on_c, 3, 65, 0
5, 8280, Note_on_c, 3, 65, 105
5, 8325, Note_on_c, 3, 65, 0
5, 8340, Note_on_c, 3, 65, 86
5, 8385, Note_on_c, 3, 65, 0
5, 8400, Note_on_c, 3, 65, 86
5, 8445, Note_on_c, 3, 65, 0
5, 8820, Note_on_c, 3, 67, 62
5, 8820, Note_on_c, 3, 55, 52
5, 8865, Note_on_c, 3, 55, 0
5, 8865, Note_on_c, 3, 67, 0
5, 8880, Note_on_c, 3, 67, 80
5, 8880, Note_on_c, 3, 55, 76
5, 8925, Note_on_c, 3, 55, 0
5, 8925, Note_on_c, 3, 67, 0
5, 8940, Note_on_c, 3, 67, 77
5, 8940, Note_on_c, 3, 55, 89
5, 8985, Note_on_c, 3, 55, 0
5, 8985, Note_on_c, 3, 67, 0
5, 9000, Note_on_c, 3, 67, 94
5, 9000, Note_on_c, 3, 55, 94
5, 9060, Note_on_c, 3, 55, 0
5, 9060, Note_on_c, 3, 67, 0
5, 9060, Note_on_c, 3, 67, 72
5, 9060, Note_on_c, 3, 55, 76
5, 9120, Note_on_c, 3, 55, 0
5, 9120, Note_on_c, 3, 67, 0
5, 9120, Note_on_c, 3, 67, 61
5, 9120, Note_on_c, 3, 55, 61
5, 9180, Note_on_c, 3, 55, 0
5, 9180, Note_on_c, 3, 67, 0
5, 10776, Control_c, 3, 7, 63
5, 10800, Note_on_c, 3, 46, 90
5, 10800, Note_on_c, 3, 58, 77
5, 10800, Control_c, 3, 7, 63
5, 10812, Control_c, 3, 7, 64
5, 10822, Control_c, 3, 7, 65
5, 10832, Control_c, 3, 7, 66
5, 10842, Control_c, 3, 7, 67
5, 10852, Control_c, 3, 7, 68
5, 10862, Control_c, 3, 7, 69
5, 10872, Control_c, 3, 7, 70
5, 10884, Control_c, 3, 7, 71
5, 10894, Control_c, 3, 7, 72
5, 10904, Control_c, 3, 7, 73
5, 10914, Control_c, 3, 7, 74
5, 10924, Control_c, 3, 7, 75
5, 10934, Control_c, 3, 7, 76
5, 10944, Control_c, 3, 7, 77
5, 10956, Control_c, 3, 7, 78
5, 10966, Control_c, 3, 7, 79
5, 10976, Control_c, 3, 7, 80
5, 10986, Control_c, 3, 7, 81
5, 10996, Control_c, 3, 7, 82
5, 11006, Control_c, 3, 7, 83
5, 11016, Control_c, 3, 7, 84
5, 11028, Control_c, 3, 7, 85
5, 11038, Control_c, 3, 7, 86
5, 11048, Control_c, 3, 7, 87
5, 11058, Control_c, 3, 7, 88
5, 11068, Control_c, 3, 7, 89
5, 11078, Control_c, 3, 7, 90
5, 11088, Control_c, 3, 7, 91
5, 11100, Control_c, 3, 7, 92
5, 11110, Control_c, 3, 7, 93
5, 11120, Control_c, 3, 7, 94
5, 11130, Control_c, 3, 7, 95
5, 11140, Control_c, 3, 7, 96
5, 11150, Control_c, 3, 7, 97
5, 11160, Note_on_c, 3, 58, 0
5, 11160, Note_on_c, 3, 46, 0
5, 11160, Control_c, 3, 7, 98
5, 11760, Note_on_c, 3, 46, 95
5, 11760, Note_on_c, 3, 58, 93
5, 11880, Note_on_c, 3, 58, 0
5, 11880, Note_on_c, 3, 46, 0
5, 11880, Note_on_c, 3, 63, 93
5, 11880, Note_on_c, 3, 51, 101
5, 11940, Note_on_c, 3, 51, 0
5, 11940, Note_on_c, 3, 63, 0
5, 11940, Note_on_c, 3, 63, 105
5, 11940, Note_on_c, 3, 51, 99
5, 12060, Note_on_c, 3, 51, 0
5, 12060, Note_on_c, 3, 63, 0
5, 12060, Note_on_c, 3, 63, 105
5, 12060, Note_on_c, 3, 51, 105
5, 12180, Note_on_c, 3, 51, 0
5, 12180, Note_on_c, 3, 63, 0
5, 12180, Note_on_c, 3, 51, 99
5, 12180, Note_on_c, 3, 63, 93
5, 12240, Note_on_c, 3, 63, 0
5, 12240, Note_on_c, 3, 51, 0
5, 12240, Note_on_c, 3, 46, 99
5, 12240, Note_on_c, 3, 58, 94
5, 12306, Control_c, 3, 7, 99
5, 12308, Control_c, 3, 7, 90
5, 12310, Control_c, 3, 7, 81
5, 12312, Control_c, 3, 7, 72
5, 12314, Control_c, 3, 7, 63
5, 12960, Note_on_c, 3, 58, 0
5, 12960, Note_on_c, 3, 46, 0
5, 12960, Note_on_c, 3, 63, 84
5, 12960, Note_on_c, 3, 51, 95
5, 13020, Note_on_c, 3, 51, 0
5, 13020, Note_on_c, 3, 63, 0
5, 13136, Control_c, 3, 7, 99
5, 14760, Note_on_c, 3, 67, 68
5, 14760, Note_on_c, 3, 63, 62
5, 15000, Note_on_c, 3, 63, 0
5, 15000, Note_on_c, 3, 67, 0
5, 15000, Note_on_c, 3, 65, 56
5, 15000, Note_on_c, 3, 68, 61
5, 15120, Note_on_c, 3, 68, 0
5, 15120, Note_on_c, 3, 65, 0
5, 15120, Note_on_c, 3, 67, 68
5, 15120, Note_on_c, 3, 63, 72
5, 15240, Note_on_c, 3, 63, 0
5, 15240, Note_on_c, 3, 67, 0
5, 15240, Note_on_c, 3, 65, 60
5, 15240, Note_on_c, 3, 58, 61
5, 15300, Note_on_c, 3, 58, 0
5, 15300, Note_on_c, 3, 65, 0
5, 15480, Control_c, 3, 7, 99
5, 15480, Note_on_c, 3, 68, 64
5, 15480, Note_on_c, 3, 63, 67
5, 15488, Control_c, 3, 7, 100
5, 15494, Control_c, 3, 7, 101
5, 15500, Control_c, 3, 7, 102
5, 15508, Control_c, 3, 7, 103
5, 15514, Control_c, 3, 7, 104
5, 15520, Control_c, 3, 7, 105
5, 15528, Control_c, 3, 7, 106
5, 15534, Control_c, 3, 7, 107
5, 15540, Control_c, 3, 7, 108
5, 15548, Control_c, 3, 7, 109
5, 15554, Control_c, 3, 7, 110
5, 15560, Control_c, 3, 7, 111
5, 15568, Control_c, 3, 7, 112
5, 15574, Control_c, 3, 7, 113
5, 15580, Control_c, 3, 7, 114
5, 15588, Control_c, 3, 7, 115
5, 15594, Control_c, 3, 7, 116
5, 15600, Note_on_c, 3, 63, 0
5, 15600, Control_c, 3, 7, 117
5, 15600, Note_on_c, 3, 65, 72
5, 15608, Control_c, 3, 7, 118
5, 15614, Control_c, 3, 7, 119
5, 15620, Control_c, 3, 7, 120
5, 15628, Control_c, 3, 7, 121
5, 15634, Control_c, 3, 7, 122
5, 15640, Control_c, 3, 7, 123
5, 15648, Control_c, 3, 7, 124
5, 15654, Control_c, 3, 7, 125
5, 15660, Control_c, 3, 7, 126
5, 15668, Control_c, 3, 7, 125
5, 15674, Control_c, 3, 7, 124
5, 15680, Control_c, 3, 7, 123
5, 15688, Control_c, 3, 7, 122
5, 15694, Control_c, 3, 7, 121
5, 15700, Control_c, 3, 7, 120
5, 15708, Control_c, 3, 7, 119
5, 15714, Control_c, 3, 7, 118
5, 15720, Note_on_c, 3, 65, 0
5, 15720, Note_on_c, 3, 68, 0
5, 15720, Note_on_c, 3, 63, 64
5, 15720, Note_on_c, 3, 67, 57
5, 15720, Control_c, 3, 7, 117
5, 15728, Control_c, 3, 7, 116
5, 15734, Control_c, 3, 7, 115
5, 15740, Control_c, 3, 7, 114
5, 15748, Control_c, 3, 7, 113
5, 15754, Control_c, 3, 7, 112
5, 15760, Control_c, 3, 7, 111
5, 15768, Control_c, 3, 7, 110
5, 15774, Control_c, 3, 7, 109
5, 15780, Control_c, 3, 7, 108
5, 15788, Control_c, 3, 7, 107
5, 15794, Control_c, 3, 7, 106
5, 15800, Control_c, 3, 7, 105
5, 15808, Control_c, 3, 7, 104
5, 15814, Control_c, 3, 7, 103
5, 15820, Control_c, 3, 7, 102
5, 15828, Control_c, 3, 7, 101
5, 15834, Control_c, 3, 7, 100
5, 15840, Note_on_c, 3, 67, 0
5, 15840, Note_on_c, 3, 63, 0
5, 15840, Control_c, 3, 7, 99
5, 15960, Note_on_c, 3, 63, 56
5, 15960, Note_on_c, 3, 55, 76
5, 16080, Note_on_c, 3, 55, 0
5, 16080, Note_on_c, 3, 63, 0
5, 16080, Note_on_c, 3, 65, 53
5, 16080, Note_on_c, 3, 58, 44
5, 16200, Note_on_c, 3, 58, 0
5, 16200, Note_on_c, 3, 65, 0
5, 16200, Note_on_c, 3, 68, 61
5, 16200, Note_on_c, 3, 65, 61
5, 16320, Note_on_c, 3, 65, 0
5, 16320, Note_on_c, 3, 68, 0
5, 16320, Note_on_c, 3, 67, 61
5, 16320, Note_on_c, 3, 63, 45
5, 16380, Note_on_c, 3, 63, 0
5, 16380, Note_on_c, 3, 67, 0
5, 17280, Note_on_c, 3, 58, 51
5, 17280, Note_on_c, 3, 46, 64
5, 17325, Note_on_c, 3, 46, 0
5, 17325, Note_on_c, 3, 58, 0
5, 17340, Note_on_c, 3, 58, 56
5, 17340, Note_on_c, 3, 46, 61
5, 17385, Note_on_c, 3, 46, 0
5, 17385, Note_on_c, 3, 58, 0
5, 17400, Note_on_c, 3, 58, 53
5, 17400, Note_on_c, 3, 46, 54
5, 17445, Note_on_c, 3, 46, 0
5, 17445, Note_on_c, 3, 58, 0
5, 17460, Note_on_c, 3, 58, 66
5, 17460, Note_on_c, 3, 46, 80
5, 17505, Note_on_c, 3, 46, 0
5, 17505, Note_on_c, 3, 58, 0
5, 17520, Note_on_c, 3, 58, 74
5, 17520, Note_on_c, 3, 46, 84
5, 17565, Note_on_c, 3, 46, 0
5, 17565, Note_on_c, 3, 58, 0
5, 17580, Note_on_c, 3, 58, 78
5, 17580, Note_on_c, 3, 46, 86
5, 17625, Note_on_c, 3, 46, 0
5, 17625, Note_on_c, 3, 58, 0
5, 17640, Note_on_c, 3, 58, 90
5, 17640, Note_on_c, 3, 46, 95
5, 17700, Note_on_c, 3, 46, 0
5, 17700, Note_on_c, 3, 58, 0
5, 17700, Note_on_c, 3, 58, 69
5, 17700, Note_on_c, 3, 46, 80
5, 17760, Note_on_c, 3, 46, 0
5, 17760, Note_on_c, 3, 58, 0
5, 17760, Note_on_c, 3, 58, 66
5, 17760, Note_on_c, 3, 46, 78
5, 17820, Note_on_c, 3, 46, 0
5, 17820, Note_on_c, 3, 58, 0
5, 20580, Note_on_c, 3, 63, 60
5, 20580, Note_on_c, 3, 51, 69
5, 20700, Note_on_c, 3, 51, 0
5, 20700, Note_on_c, 3, 63, 0
5, 20700, Note_on_c, 3, 63, 53
5, 20700, Note_on_c, 3, 51, 64
5, 20820, Note_on_c, 3, 51, 0
5, 20820, Note_on_c, 3, 63, 0
5, 20820, Note_on_c, 3, 63, 58
5, 20820, Note_on_c, 3, 51, 66
5, 20940, Note_on_c, 3, 51, 0
5, 20940, Note_on_c, 3, 63, 0
5, 24480, Note_on_c, 3, 63, 72
5, 24480, Note_on_c, 3, 51, 93
5, 24600, Note_on_c, 3, 51, 0
5, 24600, Note_on_c, 3, 63, 0
5, 24600, Note_on_c, 3, 63, 72
5, 24600, Note_on_c, 3, 51, 94
5, 24720, Note_on_c, 3, 51, 0
5, 24720, Note_on_c, 3, 63, 0
5, 24720, Note_on_c, 3, 63, 72
5, 24720, Note_on_c, 3, 51, 89
5, 24840, Note_on_c, 3, 51, 0
5, 24840, Note_on_c, 3, 63, 0
5, 25200, Note_on_c, 3, 63, 71
5, 25200, Note_on_c, 3, 51, 90
5, 25380, Note_on_c, 3, 51, 0
5, 25380, Note_on_c, 3, 63, 0
5, 25380, Note_on_c, 3, 63, 67
5, 25380, Note_on_c, 3, 51, 89
5, 25440, Note_on_c, 3, 51, 0
5, 25440, Note_on_c, 3, 63, 0
5, 25440, Note_on_c, 3, 63, 71
5, 25440, Note_on_c, 3, 51, 93
5, 25500, Note_on_c, 3, 51, 0
5, 25500, Note_on_c, 3, 63, 0
5, 25500, Note_on_c, 3, 63, 63
5, 25500, Note_on_c, 3, 51, 77
5, 25560, Note_on_c, 3, 51, 0
5, 25560, Note_on_c, 3, 63, 0
5, 25560, Note_on_c, 3, 63, 89
5, 25560, Note_on_c, 3, 51, 98
5, 25680, Note_on_c, 3, 51, 0
5, 25680, Note_on_c, 3, 63, 0
5, 25680, Note_on_c, 3, 63, 89
5, 25680, Note_on_c, 3, 51, 98
5, 25920, Note_on_c, 3, 51, 0
5, 25920, Note_on_c, 3, 63, 0
5, 25920, Note_on_c, 3, 63, 89
5, 25920, Note_on_c, 3, 51, 99
5, 26040, Note_on_c, 3, 51, 0
5, 26040, Note_on_c, 3, 63, 0
5, 26040, Note_on_c, 3, 63, 89
5, 26040, Note_on_c, 3, 51, 98
5, 26160, Note_on_c, 3, 51, 0
5, 26160, Note_on_c, 3, 63, 0
5, 26160, Note_on_c, 3, 63, 94
5, 26160, Note_on_c, 3, 51, 104
5, 26280, Note_on_c, 3, 51, 0
5, 26280, Note_on_c, 3, 63, 0
5, 26280, Note_on_c, 3, 63, 93
5, 26280, Note_on_c, 3, 51, 101
5, 26520, Note_on_c, 3, 51, 0
5, 26520, Note_on_c, 3, 63, 0
5, 31320, Note_on_c, 3, 58, 51
5, 31320, Note_on_c, 3, 46, 46
5, 31410, Note_on_c, 3, 46, 0
5, 31410, Note_on_c, 3, 58, 0
5, 31440, Note_on_c, 3, 58, 53
5, 31440, Note_on_c, 3, 46, 42
5, 31530, Note_on_c, 3, 46, 0
5, 31530, Note_on_c, 3, 58, 0
5, 31560, Note_on_c, 3, 58, 52
5, 31560, Note_on_c, 3, 46, 61
5, 31650, Note_on_c, 3, 46, 0
5, 31650, Note_on_c, 3, 58, 0
5, 31680, Note_on_c, 3, 58, 49
5, 31680, Note_on_c, 3, 51, 65
5, 31800, Note_on_c, 3, 51, 0
5, 31800, Note_on_c, 3, 58, 0
5, 31800, Note_on_c, 3, 58, 69
5, 31800, Note_on_c, 3, 46, 86
5, 32040, Note_on_c, 3, 46, 0
5, 32040, Note_on_c, 3, 58, 0
5, 32040, Note_on_c, 3, 58, 42
5, 32040, Note_on_c, 3, 51, 57
5, 32160, Note_on_c, 3, 51, 0
5, 32160, Note_on_c, 3, 58, 0
5, 32160, Note_on_c, 3, 58, 74
5, 32160, Note_on_c, 3, 46, 89
5, 32400, Note_on_c, 3, 46, 0
5, 32400, Note_on_c, 3, 58, 0
5, 32400, Note_on_c, 3, 58, 45
5, 32400, Note_on_c, 3, 51, 61
5, 32520, Note_on_c, 3, 51, 0
5, 32520, Note_on_c, 3, 58, 0
5, 32520, Note_on_c, 3, 58, 50
5, 32520, Note_on_c, 3, 39, 67
5, 32610, Note_on_c, 3, 39, 0
5, 32610, Note_on_c, 3, 58, 0
5, 32640, Note_on_c, 3, 58, 42
5, 32640, Note_on_c, 3, 39, 52
5, 32730, Note_on_c, 3, 39, 0
5, 32730, Note_on_c, 3, 58, 0
5, 32760, Control_c, 3, 7, 99
5, 32760, Note_on_c, 3, 58, 45
5, 32760, Note_on_c, 3, 39, 48
5, 32768, Control_c, 3, 7, 100
5, 32774, Control_c, 3, 7, 101
5, 32780, Control_c, 3, 7, 102
5, 32788, Control_c, 3, 7, 103
5, 32794, Control_c, 3, 7, 104
5, 32800, Control_c, 3, 7, 105
5, 32808, Control_c, 3, 7, 106
5, 32814, Control_c, 3, 7, 107
5, 32820, Control_c, 3, 7, 108
5, 32828, Control_c, 3, 7, 109
5, 32834, Control_c, 3, 7, 110
5, 32840, Control_c, 3, 7, 111
5, 32848, Control_c, 3, 7, 112
5, 32854, Control_c, 3, 7, 113
5, 32860, Control_c, 3, 7, 114
5, 32868, Control_c, 3, 7, 115
5, 32874, Control_c, 3, 7, 116
5, 32880, Control_c, 3, 7, 117
5, 32888, Control_c, 3, 7, 118
5, 32894, Control_c, 3, 7, 119
5, 32900, Control_c, 3, 7, 120
5, 32908, Control_c, 3, 7, 121
5, 32914, Control_c, 3, 7, 122
5, 32920, Control_c, 3, 7, 123
5, 32928, Control_c, 3, 7, 124
5, 32934, Control_c, 3, 7, 125
5, 32940, Control_c, 3, 7, 125
5, 32944, Control_c, 3, 7, 124
5, 32946, Control_c, 3, 7, 123
5, 32948, Control_c, 3, 7, 122
5, 32950, Control_c, 3, 7, 121
5, 32954, Control_c, 3, 7, 120
5, 32956, Control_c, 3, 7, 119
5, 32958, Control_c, 3, 7, 118
5, 32960, Control_c, 3, 7, 117
5, 32964, Control_c, 3, 7, 116
5, 32966, Control_c, 3, 7, 115
5, 32968, Control_c, 3, 7, 114
5, 32970, Control_c, 3, 7, 113
5, 32974, Control_c, 3, 7, 112
5, 32976, Control_c, 3, 7, 111
5, 32978, Control_c, 3, 7, 110
5, 32980, Control_c, 3, 7, 109
5, 32984, Control_c, 3, 7, 108
5, 32986, Control_c, 3, 7, 107
5, 32988, Control_c, 3, 7, 106
5, 32990, Control_c, 3, 7, 105
5, 32994, Control_c, 3, 7, 104
5, 32996, Control_c, 3, 7, 103
5, 32998, Control_c, 3, 7, 102
5, 33000, Control_c, 3, 7, 101
5, 33004, Control_c, 3, 7, 100
5, 33006, Control_c, 3, 7, 99
5, 33008, Control_c, 3, 7, 98
5, 33010, Control_c, 3, 7, 97
5, 33014, Control_c, 3, 7, 96
5, 33016, Control_c, 3, 7, 95
5, 33018, Control_c, 3, 7, 94
5, 33020, Control_c, 3, 7, 93
5, 33024, Control_c, 3, 7, 92
5, 33026, Control_c, 3, 7, 91
5, 33028, Control_c, 3, 7, 90
5, 33030, Control_c, 3, 7, 89
5, 33034, Control_c, 3, 7, 88
5, 33036, Control_c, 3, 7, 87
5, 33038, Control_c, 3, 7, 86
5, 33040, Control_c, 3, 7, 85
5, 33044, Control_c, 3, 7, 84
5, 33046, Control_c, 3, 7, 83
5, 33048, Control_c, 3, 7, 82
5, 33050, Control_c, 3, 7, 81
5, 33054, Control_c, 3, 7, 80
5, 33056, Control_c, 3, 7, 79
5, 33058, Control_c, 3, 7, 78
5, 33060, Control_c, 3, 7, 77
5, 33064, Control_c, 3, 7, 76
5, 33066, Control_c, 3, 7, 75
5, 33068, Control_c, 3, 7, 74
5, 33070, Control_c, 3, 7, 73
5, 33074, Control_c, 3, 7, 72
5, 33076, Control_c, 3, 7, 71
5, 33078, Control_c, 3, 7, 70
5, 33080, Control_c, 3, 7, 69
5, 33084, Control_c, 3, 7, 68
5, 33086, Control_c, 3, 7, 67
5, 33088, Control_c, 3, 7, 66
5, 33090, Control_c, 3, 7, 65
5, 33094, Control_c, 3, 7, 64
5, 33096, Control_c, 3, 7, 63
5, 33098, Control_c, 3, 7, 62
5, 33100, Control_c, 3, 7, 61
5, 33104, Control_c, 3, 7, 60
5, 33106, Control_c, 3, 7, 59
5, 33108, Control_c, 3, 7, 58
5, 33110, Control_c, 3, 7, 57
5, 33114, Control_c, 3, 7, 56
5, 33116, Control_c, 3, 7, 55
5, 33118, Control_c, 3, 7, 54
5, 33120, Note_on_c, 3, 39, 0
5, 33120, Note_on_c, 3, 58, 0
5, 33120, Control_c, 3, 7, 53
5, 33120, End_track
6, 0, Start_track
6, 0, MIDI_port, 0
6, 0, Title_t, "Piano"
6, 0, Program_c, 4, 0
6, 0, Control_c, 4, 7, 100
6, 0, Control_c, 4, 10, 64
6, 0, Control_c, 4, 93, 0
6, 0, Control_c, 4, 91, 66
6, 3720, Control_c, 4, 7, 112
6, 4080, Note_on_c, 4, 80, 94
6, 4080, Note_on_c, 4, 68, 99
6, 4095, Note_on_c, 4, 68, 0
6, 4095, Note_on_c, 4, 80, 0
6, 4095, Note_on_c, 4, 79, 99
6, 4095, Note_on_c, 4, 67, 98
6, 4110, Note_on_c, 4, 67, 0
6, 4110, Note_on_c, 4, 79, 0
6, 4110, Note_on_c, 4, 84, 94
6, 4110, Note_on_c, 4, 72, 68
6, 4125, Note_on_c, 4, 72, 0
6, 4125, Note_on_c, 4, 84, 0
6, 4125, Note_on_c, 4, 82, 93
6, 4125, Note_on_c, 4, 70, 95
6, 4140, Note_on_c, 4, 70, 0
6, 4140, Note_on_c, 4, 82, 0
6, 4140, Note_on_c, 4, 80, 85
6, 4140, Note_on_c, 4, 68, 89
6, 4155, Note_on_c, 4, 68, 0
6, 4155, Note_on_c, 4, 80, 0
6, 4155, Note_on_c, 4, 79, 85
6, 4155, Note_on_c, 4, 67, 73
6, 4170, Note_on_c, 4, 67, 0
6, 4170, Note_on_c, 4, 79, 0
6, 4170, Note_on_c, 4, 77, 68
6, 4170, Note_on_c, 4, 65, 89
6, 4185, Note_on_c, 4, 65, 0
6, 4185, Note_on_c, 4, 77, 0
6, 4185, Note_on_c, 4, 75, 93
6, 4185, Note_on_c, 4, 63, 77
6, 4200, Note_on_c, 4, 63, 0
6, 4200, Note_on_c, 4, 75, 0
6, 4200, Note_on_c, 4, 74, 99
6, 4200, Note_on_c, 4, 62, 93
6, 4215, Note_on_c, 4, 62, 0
6, 4215, Note_on_c, 4, 74, 0
6, 4215, Note_on_c, 4, 75, 94
6, 4215, Note_on_c, 4, 63, 82
6, 4230, Note_on_c, 4, 63, 0
6, 4230, Note_on_c, 4, 75, 0
6, 4230, Note_on_c, 4, 77, 85
6, 4230, Note_on_c, 4, 65, 82
6, 4245, Note_on_c, 4, 65, 0
6, 4245, Note_on_c, 4, 77, 0
6, 4245, Note_on_c, 4, 75, 84
6, 4245, Note_on_c, 4, 63, 81
6, 4260, Note_on_c, 4, 63, 0
6, 4260, Note_on_c, 4, 75, 0
6, 4260, Note_on_c, 4, 74, 93
6, 4260, Note_on_c, 4, 62, 76
6, 4275, Note_on_c, 4, 62, 0
6, 4275, Note_on_c, 4, 74, 0
6, 4275, Note_on_c, 4, 72, 45
6, 4275, Note_on_c, 4, 60, 80
6, 4290, Note_on_c, 4, 60, 0
6, 4290, Note_on_c, 4, 72, 0
6, 4290, Note_on_c, 4, 70, 78
6, 4290, Note_on_c, 4, 58, 81
6, 4305, Note_on_c, 4, 58, 0
6, 4305, Note_on_c, 4, 70, 0
6, 4305, Note_on_c, 4, 68, 70
6, 4305, Note_on_c, 4, 56, 69
6, 4320, Note_on_c, 4, 56, 0
6, 4320, Note_on_c, 4, 68, 0
6, 4320, Note_on_c, 4, 67, 57
6, 4320, Note_on_c, 4, 63, 68
6, 4320, Note_on_c, 4, 58, 44
6, 4320, Note_on_c, 4, 55, 50
6, 4320, Note_on_c, 4, 51, 44
6, 4440, Note_on_c, 4, 51, 0
6, 4440, Note_on_c, 4, 58, 0
6, 4440, Note_on_c, 4, 67, 0
6, 4440, Note_on_c, 4, 63, 0
6, 4440, Note_on_c, 4, 55, 0
6, 4440, Note_on_c, 4, 67, 52
6, 4440, Note_on_c, 4, 60, 42
6, 4440, Note_on_c, 4, 51, 43
6, 4440, Note_on_c, 4, 48, 65
6, 4560, Note_on_c, 4, 48, 0
6, 4560, Note_on_c, 4, 67, 0
6, 4560, Note_on_c, 4, 60, 0
6, 4560, Note_on_c, 4, 51, 0
6, 4560, Note_on_c, 4, 68, 72
6, 4560, Note_on_c, 4, 60, 44
6, 4560, Note_on_c, 4, 53, 65
6, 4560, Note_on_c, 4, 44, 62
6, 4650, Note_on_c, 4, 53, 0
6, 4650, Note_on_c, 4, 68, 0
6, 4665, Note_on_c, 4, 72, 76
6, 4665, Note_on_c, 4, 56, 65
6, 4680, Note_on_c, 4, 56, 0
6, 4680, Note_on_c, 4, 44, 0
6, 4680, Note_on_c, 4, 60, 0
6, 4680, Note_on_c, 4, 72, 0
6, 4680, Note_on_c, 4, 67, 77
6, 4680, Note_on_c, 4, 58, 64
6, 4680, Note_on_c, 4, 51, 62
6, 4680, Note_on_c, 4, 46, 64
6, 4800, Note_on_c, 4, 46, 0
6, 4800, Note_on_c, 4, 67, 0
6, 4800, Note_on_c, 4, 58, 0
6, 4800, Note_on_c, 4, 51, 0
6, 4800, Note_on_c, 4, 65, 73
6, 4800, Note_on_c, 4, 58, 44
6, 4800, Note_on_c, 4, 50, 64
6, 4800, Note_on_c, 4, 46, 55
6, 4860, Note_on_c, 4, 46, 0
6, 4860, Note_on_c, 4, 65, 0
6, 4860, Note_on_c, 4, 58, 0
6, 4860, Note_on_c, 4, 50, 0
6, 4860, Note_on_c, 4, 70, 74
6, 4905, Note_on_c, 4, 70, 0
6, 4920, Note_on_c, 4, 70, 71
6, 4965, Note_on_c, 4, 70, 0
6, 4980, Note_on_c, 4, 70, 84
6, 5017, Note_on_c, 4, 69, 78
6, 5025, Note_on_c, 4, 69, 0
6, 5025, Note_on_c, 4, 70, 0
6, 5025, Note_on_c, 4, 70, 73
6, 5032, Note_on_c, 4, 72, 53
6, 5033, Note_on_c, 4, 70, 0
6, 5040, Note_on_c, 4, 72, 0
6, 5040, Note_on_c, 4, 70, 80
6, 5040, Note_on_c, 4, 56, 56
6, 5040, Note_on_c, 4, 51, 67
6, 5040, Note_on_c, 4, 48, 74
6, 5100, Note_on_c, 4, 70, 0
6, 5100, Note_on_c, 4, 68, 73
6, 5160, Note_on_c, 4, 56, 0
6, 5160, Note_on_c, 4, 48, 0
6, 5160, Note_on_c, 4, 51, 0
6, 5160, Note_on_c, 4, 58, 39
6, 5160, Note_on_c, 4, 53, 64
6, 5160, Note_on_c, 4, 50, 46
6, 5190, Note_on_c, 4, 68, 0
6, 5190, Note_on_c, 4, 77, 67
6, 5220, Note_on_c, 4, 77, 0
6, 5220, Note_on_c, 4, 74, 84
6, 5250, Note_on_c, 4, 74, 0
6, 5250, Note_on_c, 4, 68, 71
6, 5280, Note_on_c, 4, 68, 0
6, 5280, Note_on_c, 4, 50, 0
6, 5280, Note_on_c, 4, 53, 0
6, 5280, Note_on_c, 4, 58, 0
6, 5280, Note_on_c, 4, 67, 65
6, 5280, Note_on_c, 4, 58, 50
6, 5280, Note_on_c, 4, 55, 76
6, 5280, Note_on_c, 4, 51, 67
6, 5310, Note_on_c, 4, 67, 0
6, 5310, Note_on_c, 4, 75, 57
6, 5340, Note_on_c, 4, 75, 0
6, 5340, Note_on_c, 4, 70, 73
6, 5370, Note_on_c, 4, 70, 0
6, 5370, Note_on_c, 4, 67, 72
6, 5400, Note_on_c, 4, 67, 0
6, 5400, Note_on_c, 4, 51, 0
6, 5400, Note_on_c, 4, 55, 0
6, 5400, Note_on_c, 4, 58, 0
6, 5400, Note_on_c, 4, 65, 84
6, 5400, Note_on_c, 4, 48, 65
6, 5400, Note_on_c, 4, 44, 65
6, 5430, Note_on_c, 4, 65, 0
6, 5430, Note_on_c, 4, 72, 57
6, 5445, Note_on_c, 4, 72, 0
6, 5445, Note_on_c, 4, 70, 68
6, 5460, Note_on_c, 4, 70, 0
6, 5460, Note_on_c, 4, 48, 0
6, 5460, Note_on_c, 4, 68, 61
6, 5460, Note_on_c, 4, 53, 72
6, 5475, Note_on_c, 4, 68, 0
6, 5475, Note_on_c, 4, 67, 65
6, 5490, Note_on_c, 4, 67, 0
6, 5490, Note_on_c, 4, 53, 0
6, 5490, Note_on_c, 4, 68, 77
6, 5490, Note_on_c, 4, 56, 62
6, 5505, Note_on_c, 4, 68, 0
6, 5505, Note_on_c, 4, 65, 61
6, 5520, Note_on_c, 4, 65, 0
6, 5520, Note_on_c, 4, 56, 0
6, 5520, Note_on_c, 4, 44, 0
6, 5520, Note_on_c, 4, 65, 84
6, 5520, Note_on_c, 4, 55, 56
6, 5520, Note_on_c, 4, 46, 52
6, 5580, Note_on_c, 4, 65, 0
6, 5580, Note_on_c, 4, 63, 84
6, 5640, Note_on_c, 4, 63, 0
6, 5640, Note_on_c, 4, 46, 0
6, 5640, Note_on_c, 4, 55, 0
6, 5640, Note_on_c, 4, 65, 78
6, 5640, Note_on_c, 4, 56, 62
6, 5640, Note_on_c, 4, 46, 68
6, 5655, Note_on_c, 4, 65, 0
6, 5655, Note_on_c, 4, 63, 78
6, 5670, Note_on_c, 4, 63, 0
6, 5670, Note_on_c, 4, 62, 80
6, 5685, Note_on_c, 4, 62, 0
6, 5685, Note_on_c, 4, 63, 80
6, 5700, Note_on_c, 4, 63, 0
6, 5700, Note_on_c, 4, 67, 74
6, 5730, Note_on_c, 4, 67, 0
6, 5730, Note_on_c, 4, 65, 89
6, 5760, Note_on_c, 4, 65, 0
6, 5760, Note_on_c, 4, 46, 0
6, 5760, Note_on_c, 4, 56, 0
6, 5760, Note_on_c, 4, 63, 84
6, 5760, Note_on_c, 4, 58, 84
6, 5760, Note_on_c, 4, 55, 78
6, 5820, Note_on_c, 4, 55, 0
6, 5820, Note_on_c, 4, 58, 0
6, 5820, Note_on_c, 4, 63, 0
6, 6097, Note_on_c, 4, 67, 89
6, 6105, Note_on_c, 4, 67, 0
6, 6105, Note_on_c, 4, 70, 99
6, 6112, Note_on_c, 4, 75, 105
6, 6113, Note_on_c, 4, 70, 0
6, 6120, Note_on_c, 4, 75, 0
6, 6120, Note_on_c, 4, 79, 104
6, 6120, Note_on_c, 4, 51, 84
6, 6120, Note_on_c, 4, 46, 94
6, 6120, Note_on_c, 4, 43, 99
6, 6120, Note_on_c, 4, 39, 85
6, 6180, Note_on_c, 4, 39, 0
6, 6180, Note_on_c, 4, 46, 0
6, 6180, Note_on_c, 4, 43, 0
6, 6180, Note_on_c, 4, 51, 0
6, 6180, Note_on_c, 4, 51, 76
6, 6210, Note_on_c, 4, 51, 0
6, 6240, Note_on_c, 4, 79, 0
6, 6240, Note_on_c, 4, 79, 78
6, 6240, Note_on_c, 4, 55, 81
6, 6270, Note_on_c, 4, 55, 0
6, 6300, Note_on_c, 4, 58, 74
6, 6330, Note_on_c, 4, 58, 0
6, 6360, Note_on_c, 4, 79, 0
6, 6360, Note_on_c, 4, 80, 60
6, 6360, Note_on_c, 4, 63, 76
6, 6375, Note_on_c, 4, 80, 0
6, 6375, Note_on_c, 4, 79, 67
6, 6390, Note_on_c, 4, 79, 0
6, 6390, Note_on_c, 4, 63, 0
6, 6390, Note_on_c, 4, 77, 62
6, 6405, Note_on_c, 4, 77, 0
6, 6405, Note_on_c, 4, 79, 78
6, 6420, Note_on_c, 4, 79, 0
6, 6420, Note_on_c, 4, 82, 70
6, 6420, Note_on_c, 4, 67, 71
6, 6450, Note_on_c, 4, 67, 0
6, 6465, Note_on_c, 4, 82, 0
6, 6465, Note_on_c, 4, 80, 76
6, 6480, Note_on_c, 4, 80, 0
6, 6480, Note_on_c, 4, 79, 71
6, 6540, Note_on_c, 4, 79, 0
6, 6540, Note_on_c, 4, 77, 81
6, 6540, Note_on_c, 4, 50, 76
6, 6570, Note_on_c, 4, 50, 0
6, 6600, Note_on_c, 4, 55, 80
6, 6630, Note_on_c, 4, 55, 0
6, 6630, Note_on_c, 4, 77, 0
6, 6630, Note_on_c, 4, 89, 74
6, 6660, Note_on_c, 4, 59, 73
6, 6690, Note_on_c, 4, 59, 0
6, 6690, Note_on_c, 4, 89, 0
6, 6690, Note_on_c, 4, 86, 95
6, 6720, Note_on_c, 4, 62, 80
6, 6750, Note_on_c, 4, 62, 0
6, 6750, Note_on_c, 4, 86, 0
6, 6750, Note_on_c, 4, 83, 86
6, 6780, Note_on_c, 4, 55, 80
6, 6810, Note_on_c, 4, 55, 0
6, 6810, Note_on_c, 4, 83, 0
6, 6810, Note_on_c, 4, 77, 84
6, 6840, Note_on_c, 4, 77, 0
6, 6840, Note_on_c, 4, 74, 80
6, 6900, Note_on_c, 4, 74, 0
6, 6900, Note_on_c, 4, 75, 86
6, 6900, Note_on_c, 4, 48, 80
6, 6930, Note_on_c, 4, 48, 0
6, 6960, Note_on_c, 4, 60, 61
6, 6990, Note_on_c, 4, 60, 0
6, 6990, Note_on_c, 4, 75, 0
6, 6990, Note_on_c, 4, 77, 73
6, 7020, Note_on_c, 4, 77, 0
6, 7020, Note_on_c, 4, 78, 77
6, 7020, Note_on_c, 4, 58, 80
6, 7050, Note_on_c, 4, 58, 0
6, 7050, Note_on_c, 4, 78, 0
6, 7050, Note_on_c, 4, 79, 81
6, 7080, Note_on_c, 4, 79, 0
6, 7080, Note_on_c, 4, 78, 73
6, 7080, Note_on_c, 4, 57, 86
6, 7095, Note_on_c, 4, 78, 0
6, 7095, Note_on_c, 4, 79, 77
6, 7110, Note_on_c, 4, 79, 0
6, 7110, Note_on_c, 4, 57, 0
6, 7110, Note_on_c, 4, 81, 74
6, 7125, Note_on_c, 4, 81, 0
6, 7125, Note_on_c, 4, 79, 78
6, 7140, Note_on_c, 4, 79, 0
6, 7140, Note_on_c, 4, 77, 73
6, 7140, Note_on_c, 4, 53, 71
6, 7155, Note_on_c, 4, 77, 0
6, 7155, Note_on_c, 4, 75, 81
6, 7170, Note_on_c, 4, 75, 0
6, 7170, Note_on_c, 4, 53, 0
6, 7170, Note_on_c, 4, 74, 80
6, 7185, Note_on_c, 4, 74, 0
6, 7185, Note_on_c, 4, 72, 77
6, 7200, Note_on_c, 4, 72, 0
6, 7200, Note_on_c, 4, 73, 71
6, 7260, Note_on_c, 4, 73, 0
6, 7260, Note_on_c, 4, 74, 82
6, 7260, Note_on_c, 4, 46, 86
6, 7290, Note_on_c, 4, 46, 0
6, 7320, Note_on_c, 4, 74, 0
6, 7320, Note_on_c, 4, 74, 43
6, 7320, Note_on_c, 4, 50, 89
6, 7335, Note_on_c, 4, 74, 0
6, 7335, Note_on_c, 4, 70, 71
6, 7350, Note_on_c, 4, 70, 0
6, 7350, Note_on_c, 4, 50, 0
6, 7350, Note_on_c, 4, 72, 76
6, 7365, Note_on_c, 4, 72, 0
6, 7365, Note_on_c, 4, 74, 65
6, 7380, Note_on_c, 4, 74, 0
6, 7380, Note_on_c, 4, 75, 74
6, 7380, Note_on_c, 4, 53, 85
6, 7395, Note_on_c, 4, 75, 0
6, 7395, Note_on_c, 4, 77, 44
6, 7410, Note_on_c, 4, 77, 0
6, 7410, Note_on_c, 4, 53, 0
6, 7410, Note_on_c, 4, 79, 71
6, 7425, Note_on_c, 4, 79, 0
6, 7425, Note_on_c, 4, 81, 44
6, 7440, Note_on_c, 4, 81, 0
6, 7440, Note_on_c, 4, 82, 72
6, 7440, Note_on_c, 4, 58, 78
6, 7455, Note_on_c, 4, 82, 0
6, 7455, Note_on_c, 4, 84, 74
6, 7470, Note_on_c, 4, 84, 0
6, 7470, Note_on_c, 4, 58, 0
6, 7470, Note_on_c, 4, 86, 76
6, 7485, Note_on_c, 4, 86, 0
6, 7485, Note_on_c, 4, 87, 84
6, 7500, Note_on_c, 4, 87, 0
6, 7500, Note_on_c, 4, 89, 76
6, 7500, Note_on_c, 4, 62, 76
6, 7515, Note_on_c, 4, 89, 0
6, 7515, Note_on_c, 4, 88, 89
6, 7530, Note_on_c, 4, 88, 0
6, 7530, Note_on_c, 4, 62, 0
6, 7530, Note_on_c, 4, 87, 74
6, 7537, Note_on_c, 4, 84, 73
6, 7545, Note_on_c, 4, 84, 0
6, 7545, Note_on_c, 4, 87, 0
6, 7545, Note_on_c, 4, 86, 84
6, 7545, Note_on_c, 4, 86, 76
6, 7552, Note_on_c, 4, 87, 78
6, 7553, Note_on_c, 4, 86, 0
6, 7560, Note_on_c, 4, 87, 0
6, 7560, Note_on_c, 4, 86, 0
6, 7560, Note_on_c, 4, 86, 71
6, 7620, Note_on_c, 4, 86, 0
6, 7620, Note_on_c, 4, 84, 81
6, 7620, Note_on_c, 4, 60, 43
6, 7620, Note_on_c, 4, 55, 46
6, 7620, Note_on_c, 4, 51, 57
6, 7680, Note_on_c, 4, 51, 0
6, 7680, Note_on_c, 4, 84, 0
6, 7680, Note_on_c, 4, 60, 0
6, 7680, Note_on_c, 4, 55, 0
6, 7680, Note_on_c, 4, 84, 45
6, 7680, Note_on_c, 4, 60, 45
6, 7680, Note_on_c, 4, 55, 57
6, 7680, Note_on_c, 4, 51, 65
6, 7687, Note_on_c, 4, 85, 67
6, 7688, Note_on_c, 4, 84, 0
6, 7695, Note_on_c, 4, 85, 0
6, 7695, Note_on_c, 4, 84, 62
6, 7702, Note_on_c, 4, 85, 63
6, 7703, Note_on_c, 4, 84, 0
6, 7710, Note_on_c, 4, 85, 0
6, 7710, Note_on_c, 4, 84, 46
6, 7717, Note_on_c, 4, 85, 68
6, 7718, Note_on_c, 4, 84, 0
6, 7725, Note_on_c, 4, 85, 0
6, 7725, Note_on_c, 4, 84, 52
6, 7732, Note_on_c, 4, 85, 65
6, 7733, Note_on_c, 4, 84, 0
6, 7740, Note_on_c, 4, 60, 0
6, 7740, Note_on_c, 4, 51, 0
6, 7740, Note_on_c, 4, 55, 0
6, 7740, Note_on_c, 4, 85, 0
6, 7740, Note_on_c, 4, 84, 46
6, 7740, Note_on_c, 4, 60, 64
6, 7740, Note_on_c, 4, 55, 63
6, 7740, Note_on_c, 4, 51, 64
6, 7747, Note_on_c, 4, 85, 62
6, 7748, Note_on_c, 4, 84, 0
6, 7755, Note_on_c, 4, 85, 0
6, 7755, Note_on_c, 4, 84, 58
6, 7762, Note_on_c, 4, 85, 65
6, 7763, Note_on_c, 4, 84, 0
6, 7770, Note_on_c, 4, 85, 0
6, 7770, Note_on_c, 4, 84, 60
6, 7777, Note_on_c, 4, 85, 66
6, 7778, Note_on_c, 4, 84, 0
6, 7785, Note_on_c, 4, 85, 0
6, 7785, Note_on_c, 4, 84, 59
6, 7792, Note_on_c, 4, 85, 71
6, 7793, Note_on_c, 4, 84, 0
6, 7800, Note_on_c, 4, 60, 0
6, 7800, Note_on_c, 4, 51, 0
6, 7800, Note_on_c, 4, 55, 0
6, 7800, Note_on_c, 4, 85, 0
6, 7800, Note_on_c, 4, 85, 61
6, 7800, Note_on_c, 4, 58, 43
6, 7800, Note_on_c, 4, 55, 62
6, 7800, Note_on_c, 4, 52, 65
6, 7807, Note_on_c, 4, 87, 68
6, 7808, Note_on_c, 4, 85, 0
6, 7815, Note_on_c, 4, 87, 0
6, 7815, Note_on_c, 4, 85, 69
6, 7822, Note_on_c, 4, 87, 69
6, 7823, Note_on_c, 4, 85, 0
6, 7830, Note_on_c, 4, 87, 0
6, 7830, Note_on_c, 4, 85, 45
6, 7837, Note_on_c, 4, 87, 84
6, 7838, Note_on_c, 4, 85, 0
6, 7845, Note_on_c, 4, 87, 0
6, 7845, Note_on_c, 4, 84, 64
6, 7852, Note_on_c, 4, 85, 73
6, 7853, Note_on_c, 4, 84, 0
6, 7860, Note_on_c, 4, 58, 0
6, 7860, Note_on_c, 4, 52, 0
6, 7860, Note_on_c, 4, 55, 0
6, 7860, Note_on_c, 4, 85, 0
6, 7860, Note_on_c, 4, 61, 46
6, 7860, Note_on_c, 4, 87, 55
6, 7860, Note_on_c, 4, 55, 73
6, 7860, Note_on_c, 4, 52, 70
6, 7875, Note_on_c, 4, 87, 0
6, 7875, Note_on_c, 4, 86, 80
6, 7890, Note_on_c, 4, 86, 0
6, 7890, Note_on_c, 4, 84, 77
6, 7905, Note_on_c, 4, 84, 0
6, 7905, Note_on_c, 4, 82, 77
6, 7920, Note_on_c, 4, 82, 0
6, 7920, Note_on_c, 4, 52, 0
6, 7920, Note_on_c, 4, 55, 0
6, 7920, Note_on_c, 4, 61, 0
6, 7920, Note_on_c, 4, 82, 64
6, 7920, Note_on_c, 4, 60, 45
6, 7920, Note_on_c, 4, 53, 46
6, 7930, Note_on_c, 4, 82, 0
6, 7930, Note_on_c, 4, 84, 67
6, 7940, Note_on_c, 4, 84, 0
6, 7940, Note_on_c, 4, 82, 64
6, 7950, Note_on_c, 4, 82, 0
6, 7950, Note_on_c, 4, 81, 76
6, 7980, Note_on_c, 4, 81, 0
6, 7980, Note_on_c, 4, 79, 58
6, 7990, Note_on_c, 4, 79, 0
6, 7990, Note_on_c, 4, 81, 69
6, 8000, Note_on_c, 4, 81, 0
6, 8000, Note_on_c, 4, 79, 72
6, 8010, Note_on_c, 4, 79, 0
6, 8010, Note_on_c, 4, 77, 84
6, 8040, Note_on_c, 4, 77, 0
6, 8040, Note_on_c, 4, 53, 0
6, 8040, Note_on_c, 4, 60, 0
6, 8040, Note_on_c, 4, 77, 78
6, 8100, Note_on_c, 4, 77, 0
6, 8460, Note_on_c, 4, 70, 78
6, 8460, Note_on_c, 4, 62, 77
6, 8490, Note_on_c, 4, 62, 0
6, 8490, Note_on_c, 4, 65, 84
6, 8520, Note_on_c, 4, 65, 0
6, 8520, Note_on_c, 4, 70, 0
6, 8520, Note_on_c, 4, 75, 81
6, 8520, Note_on_c, 4, 69, 68
6, 8520, Note_on_c, 4, 60, 73
6, 8550, Note_on_c, 4, 60, 0
6, 8550, Note_on_c, 4, 63, 67
6, 8580, Note_on_c, 4, 63, 0
6, 8580, Note_on_c, 4, 69, 0
6, 8580, Note_on_c, 4, 75, 0
6, 8580, Note_on_c, 4, 79, 53
6, 8580, Note_on_c, 4, 67, 50
6, 8580, Note_on_c, 4, 58, 71
6, 8610, Note_on_c, 4, 58, 0
6, 8610, Note_on_c, 4, 62, 69
6, 8640, Note_on_c, 4, 62, 0
6, 8640, Note_on_c, 4, 67, 0
6, 8640, Note_on_c, 4, 79, 0
6, 8640, Note_on_c, 4, 77, 76
6, 8640, Note_on_c, 4, 72, 29
6, 8640, Note_on_c, 4, 57, 84
6, 8670, Note_on_c, 4, 57, 0
6, 8670, Note_on_c, 4, 60, 81
6, 8700, Note_on_c, 4, 60, 0
6, 8700, Note_on_c, 4, 53, 76
6, 8730, Note_on_c, 4, 53, 0
6, 8730, Note_on_c, 4, 77, 0
6, 8730, Note_on_c, 4, 57, 94
6, 8745, Note_on_c, 4, 75, 85
6, 8760, Note_on_c, 4, 75, 0
6, 8760, Note_on_c, 4, 57, 0
6, 8760, Note_on_c, 4, 72, 0
6, 8760, Note_on_c, 4, 74, 76
6, 8760, Note_on_c, 4, 65, 80
6, 8760, Note_on_c, 4, 58, 78
6, 8820, Note_on_c, 4, 58, 0
6, 8820, Note_on_c, 4, 65, 0
6, 8820, Note_on_c, 4, 74, 0
6, 9180, Note_on_c, 4, 72, 72
6, 9180, Note_on_c, 4, 63, 60
6, 9195, Note_on_c, 4, 72, 0
6, 9195, Note_on_c, 4, 74, 86
6, 9198, Note_on_c, 4, 72, 74
6, 9199, Note_on_c, 4, 74, 0
6, 9202, Note_on_c, 4, 72, 0
6, 9202, Note_on_c, 4, 71, 86
6, 9205, Note_on_c, 4, 72, 76
6, 9206, Note_on_c, 4, 71, 0
6, 9209, Note_on_c, 4, 72, 0
6, 9209, Note_on_c, 4, 74, 89
6, 9210, Note_on_c, 4, 63, 0
6, 9210, Note_on_c, 4, 67, 67
6, 9224, Note_on_c, 4, 74, 0
6, 9224, Note_on_c, 4, 75, 84
6, 9239, Note_on_c, 4, 75, 0
6, 9240, Note_on_c, 4, 67, 0
6, 9240, Note_on_c, 4, 77, 81
6, 9240, Note_on_c, 4, 62, 76
6, 9255, Note_on_c, 4, 77, 0
6, 9255, Note_on_c, 4, 79, 81
6, 9260, Note_on_c, 4, 79, 0
6, 9260, Note_on_c, 4, 77, 69
6, 9265, Note_on_c, 4, 77, 0
6, 9265, Note_on_c, 4, 76, 84
6, 9270, Note_on_c, 4, 76, 0
6, 9270, Note_on_c, 4, 62, 0
6, 9270, Note_on_c, 4, 77, 76
6, 9270, Note_on_c, 4, 65, 80
6, 9275, Note_on_c, 4, 77, 0
6, 9285, Note_on_c, 4, 79, 78
6, 9300, Note_on_c, 4, 79, 0
6, 9300, Note_on_c, 4, 65, 0
6, 9300, Note_on_c, 4, 80, 77
6, 9300, Note_on_c, 4, 60, 62
6, 9315, Note_on_c, 4, 80, 0
6, 9330, Note_on_c, 4, 60, 0
6, 9330, Note_on_c, 4, 80, 84
6, 9330, Note_on_c, 4, 63, 76
6, 9345, Note_on_c, 4, 80, 0
6, 9360, Note_on_c, 4, 63, 0
6, 9360, Note_on_c, 4, 80, 82
6, 9360, Note_on_c, 4, 59, 81
6, 9390, Note_on_c, 4, 59, 0
6, 9390, Note_on_c, 4, 80, 0
6, 9390, Note_on_c, 4, 79, 84
6, 9390, Note_on_c, 4, 62, 69
6, 9405, Note_on_c, 4, 79, 0
6, 9420, Note_on_c, 4, 62, 0
6, 9420, Note_on_c, 4, 55, 77
6, 9450, Note_on_c, 4, 55, 0
6, 9450, Note_on_c, 4, 59, 80
6, 9465, Note_on_c, 4, 77, 77
6, 9480, Note_on_c, 4, 77, 0
6, 9480, Note_on_c, 4, 59, 0
6, 9480, Note_on_c, 4, 77, 80
6, 9480, Note_on_c, 4, 60, 84
6, 9510, Note_on_c, 4, 60, 0
6, 9510, Note_on_c, 4, 77, 0
6, 9510, Note_on_c, 4, 75, 82
6, 9510, Note_on_c, 4, 63, 68
6, 9525, Note_on_c, 4, 75, 0
6, 9540, Note_on_c, 4, 63, 0
6, 9540, Note_on_c, 4, 58, 73
6, 9570, Note_on_c, 4, 58, 0
6, 9570, Note_on_c, 4, 61, 76
6, 9585, Note_on_c, 4, 79, 82
6, 9600, Note_on_c, 4, 79, 0
6, 9600, Note_on_c, 4, 61, 0
6, 9600, Note_on_c, 4, 79, 80
6, 9600, Note_on_c, 4, 57, 94
6, 9630, Note_on_c, 4, 57, 0
6, 9630, Note_on_c, 4, 79, 0
6, 9630, Note_on_c, 4, 77, 80
6, 9630, Note_on_c, 4, 60, 84
6, 9645, Note_on_c, 4, 77, 0
6, 9660, Note_on_c, 4, 60, 0
6, 9660, Note_on_c, 4, 53, 72
6, 9690, Note_on_c, 4, 53, 0
6, 9690, Note_on_c, 4, 57, 84
6, 9705, Note_on_c, 4, 75, 81
6, 9720, Note_on_c, 4, 75, 0
6, 9720, Note_on_c, 4, 57, 0
6, 9720, Note_on_c, 4, 75, 82
6, 9720, Note_on_c, 4, 58, 77
6, 9750, Note_on_c, 4, 58, 0
6, 9750, Note_on_c, 4, 75, 0
6, 9750, Note_on_c, 4, 74, 93
6, 9750, Note_on_c, 4, 70, 80
6, 9765, Note_on_c, 4, 74, 0
6, 9765, Note_on_c, 4, 86, 77
6, 9780, Note_on_c, 4, 86, 0
6, 9780, Note_on_c, 4, 70, 0
6, 9780, Note_on_c, 4, 57, 93
6, 9810, Note_on_c, 4, 57, 0
6, 9810, Note_on_c, 4, 77, 81
6, 9810, Note_on_c, 4, 69, 80
6, 9825, Note_on_c, 4, 77, 0
6, 9825, Note_on_c, 4, 89, 69
6, 9840, Note_on_c, 4, 89, 0
6, 9840, Note_on_c, 4, 69, 0
6, 9840, Note_on_c, 4, 89, 84
6, 9840, Note_on_c, 4, 55, 67
6, 9870, Note_on_c, 4, 55, 0
6, 9870, Note_on_c, 4, 67, 73
6, 9885, Note_on_c, 4, 89, 0
6, 9885, Note_on_c, 4, 87, 86
6, 9900, Note_on_c, 4, 87, 0
6, 9900, Note_on_c, 4, 67, 0
6, 9900, Note_on_c, 4, 87, 89
6, 9900, Note_on_c, 4, 53, 77
6, 9930, Note_on_c, 4, 53, 0
6, 9930, Note_on_c, 4, 65, 65
6, 9945, Note_on_c, 4, 87, 0
6, 9945, Note_on_c, 4, 86, 93
6, 9960, Note_on_c, 4, 86, 0
6, 9960, Note_on_c, 4, 65, 0
6, 9960, Note_on_c, 4, 86, 90
6, 9960, Note_on_c, 4, 51, 89
6, 9990, Note_on_c, 4, 51, 0
6, 9990, Note_on_c, 4, 63, 72
6, 10005, Note_on_c, 4, 86, 0
6, 10005, Note_on_c, 4, 84, 86
6, 10020, Note_on_c, 4, 84, 0
6, 10020, Note_on_c, 4, 63, 0
6, 10020, Note_on_c, 4, 84, 94
6, 10020, Note_on_c, 4, 50, 73
6, 10050, Note_on_c, 4, 50, 0
6, 10050, Note_on_c, 4, 62, 72
6, 10065, Note_on_c, 4, 84, 0
6, 10065, Note_on_c, 4, 83, 94
6, 10080, Note_on_c, 4, 83, 0
6, 10080, Note_on_c, 4, 62, 0
6, 10080, Note_on_c, 4, 83, 84
6, 10080, Note_on_c, 4, 51, 77
6, 10110, Note_on_c, 4, 51, 0
6, 10110, Note_on_c, 4, 60, 72
6, 10140, Note_on_c, 4, 60, 0
6, 10140, Note_on_c, 4, 83, 0
6, 10140, Note_on_c, 4, 84, 86
6, 10140, Note_on_c, 4, 55, 86
6, 10170, Note_on_c, 4, 55, 0
6, 10170, Note_on_c, 4, 60, 73
6, 10200, Note_on_c, 4, 60, 0
6, 10200, Note_on_c, 4, 51, 86
6, 10230, Note_on_c, 4, 51, 0
6, 10230, Note_on_c, 4, 84, 0
6, 10230, Note_on_c, 4, 86, 89
6, 10230, Note_on_c, 4, 60, 74
6, 10260, Note_on_c, 4, 60, 0
6, 10260, Note_on_c, 4, 86, 0
6, 10260, Note_on_c, 4, 87, 84
6, 10260, Note_on_c, 4, 55, 82
6, 10290, Note_on_c, 4, 55, 0
6, 10290, Note_on_c, 4, 87, 0
6, 10290, Note_on_c, 4, 86, 89
6, 10290, Note_on_c, 4, 60, 67
6, 10320, Note_on_c, 4, 60, 0
6, 10320, Note_on_c, 4, 86, 0
6, 10320, Note_on_c, 4, 89, 84
6, 10320, Note_on_c, 4, 51, 89
6, 10350, Note_on_c, 4, 51, 0
6, 10350, Note_on_c, 4, 89, 0
6, 10350, Note_on_c, 4, 87, 86
6, 10350, Note_on_c, 4, 60, 76
6, 10380, Note_on_c, 4, 60, 0
6, 10380, Note_on_c, 4, 87, 0
6, 10380, Note_on_c, 4, 86, 82
6, 10380, Note_on_c, 4, 55, 82
6, 10410, Note_on_c, 4, 55, 0
6, 10410, Note_on_c, 4, 86, 0
6, 10410, Note_on_c, 4, 84, 78
6, 10410, Note_on_c, 4, 60, 76
6, 10425, Note_on_c, 4, 84, 0
6, 10425, Note_on_c, 4, 77, 72
6, 10440, Note_on_c, 4, 77, 0
6, 10440, Note_on_c, 4, 60, 0
6, 10440, Note_on_c, 4, 89, 94
6, 10440, Note_on_c, 4, 53, 78
6, 10470, Note_on_c, 4, 53, 0
6, 10470, Note_on_c, 4, 62, 68
6, 10500, Note_on_c, 4, 62, 0
6, 10500, Note_on_c, 4, 58, 64
6, 10530, Note_on_c, 4, 58, 0
6, 10530, Note_on_c, 4, 89, 0
6, 10530, Note_on_c, 4, 62, 70
6, 10545, Note_on_c, 4, 86, 93
6, 10560, Note_on_c, 4, 86, 0
6, 10560, Note_on_c, 4, 62, 0
6, 10560, Note_on_c, 4, 82, 73
6, 10560, Note_on_c, 4, 53, 74
6, 10590, Note_on_c, 4, 53, 0
6, 10590, Note_on_c, 4, 62, 74
6, 10620, Note_on_c, 4, 62, 0
6, 10620, Note_on_c, 4, 82, 0
6, 10620, Note_on_c, 4, 84, 71
6, 10620, Note_on_c, 4, 58, 73
6, 10635, Note_on_c, 4, 84, 0
6, 10635, Note_on_c, 4, 82, 81
6, 10650, Note_on_c, 4, 82, 0
6, 10650, Note_on_c, 4, 58, 0
6, 10650, Note_on_c, 4, 81, 84
6, 10650, Note_on_c, 4, 62, 73
6, 10665, Note_on_c, 4, 81, 0
6, 10665, Note_on_c, 4, 82, 77
6, 10680, Note_on_c, 4, 82, 0
6, 10680, Note_on_c, 4, 62, 0
6, 10680, Note_on_c, 4, 86, 73
6, 10680, Note_on_c, 4, 53, 84
6, 10710, Note_on_c, 4, 53, 0
6, 10710, Note_on_c, 4, 63, 74
6, 10740, Note_on_c, 4, 63, 0
6, 10740, Note_on_c, 4, 86, 0
6, 10740, Note_on_c, 4, 84, 80
6, 10740, Note_on_c, 4, 57, 99
6, 10770, Note_on_c, 4, 57, 0
6, 10770, Note_on_c, 4, 63, 72
6, 10785, Note_on_c, 4, 84, 0
6, 10785, Note_on_c, 4, 82, 82
6, 10800, Note_on_c, 4, 82, 0
6, 10800, Note_on_c, 4, 63, 0
6, 10800, Note_on_c, 4, 82, 81
6, 10800, Note_on_c, 4, 46, 73
6, 10920, Note_on_c, 4, 46, 0
6, 10920, Note_on_c, 4, 82, 0
6, 12240, Note_on_c, 4, 63, 53
6, 12260, Note_on_c, 4, 63, 0
6, 12260, Note_on_c, 4, 69, 72
6, 12260, Note_on_c, 4, 57, 76
6, 12280, Note_on_c, 4, 57, 0
6, 12280, Note_on_c, 4, 69, 0
6, 12280, Note_on_c, 4, 70, 74
6, 12280, Note_on_c, 4, 58, 70
6, 12300, Note_on_c, 4, 58, 0
6, 12300, Note_on_c, 4, 70, 0
6, 12300, Note_on_c, 4, 74, 80
6, 12320, Note_on_c, 4, 74, 0
6, 12320, Note_on_c, 4, 72, 52
6, 12340, Note_on_c, 4, 72, 0
6, 12340, Note_on_c, 4, 70, 64
6, 12360, Note_on_c, 4, 70, 0
6, 12360, Note_on_c, 4, 62, 60
6, 12380, Note_on_c, 4, 62, 0
6, 12380, Note_on_c, 4, 69, 78
6, 12380, Note_on_c, 4, 57, 90
6, 12400, Note_on_c, 4, 57, 0
6, 12400, Note_on_c, 4, 69, 0
6, 12400, Note_on_c, 4, 70, 89
6, 12400, Note_on_c, 4, 58, 76
6, 12420, Note_on_c, 4, 58, 0
6, 12420, Note_on_c, 4, 70, 0
6, 12420, Note_on_c, 4, 74, 93
6, 12440, Note_on_c, 4, 74, 0
6, 12440, Note_on_c, 4, 72, 67
6, 12460, Note_on_c, 4, 72, 0
6, 12460, Note_on_c, 4, 70, 86
6, 12480, Note_on_c, 4, 70, 0
6, 12480, Note_on_c, 4, 63, 73
6, 12500, Note_on_c, 4, 63, 0
6, 12500, Note_on_c, 4, 71, 81
6, 12500, Note_on_c, 4, 59, 81
6, 12520, Note_on_c, 4, 59, 0
6, 12520, Note_on_c, 4, 71, 0
6, 12520, Note_on_c, 4, 72, 68
6, 12520, Note_on_c, 4, 60, 84
6, 12540, Note_on_c, 4, 60, 0
6, 12540, Note_on_c, 4, 72, 0
6, 12540, Note_on_c, 4, 75, 90
6, 12560, Note_on_c, 4, 75, 0
6, 12560, Note_on_c, 4, 74, 93
6, 12580, Note_on_c, 4, 74, 0
6, 12580, Note_on_c, 4, 72, 70
6, 12600, Note_on_c, 4, 72, 0
6, 12600, Note_on_c, 4, 65, 84
6, 12620, Note_on_c, 4, 65, 0
6, 12620, Note_on_c, 4, 73, 81
6, 12620, Note_on_c, 4, 61, 80
6, 12640, Note_on_c, 4, 61, 0
6, 12640, Note_on_c, 4, 73, 0
6, 12640, Note_on_c, 4, 74, 104
6, 12640, Note_on_c, 4, 62, 84
6, 12660, Note_on_c, 4, 62, 0
6, 12660, Note_on_c, 4, 74, 0
6, 12660, Note_on_c, 4, 77, 86
6, 12680, Note_on_c, 4, 77, 0
6, 12680, Note_on_c, 4, 75, 95
6, 12700, Note_on_c, 4, 75, 0
6, 12700, Note_on_c, 4, 74, 94
6, 12720, Note_on_c, 4, 74, 0
6, 12720, Note_on_c, 4, 67, 76
6, 12740, Note_on_c, 4, 67, 0
6, 12740, Note_on_c, 4, 74, 99
6, 12740, Note_on_c, 4, 62, 81
6, 12760, Note_on_c, 4, 62, 0
6, 12760, Note_on_c, 4, 74, 0
6, 12760, Note_on_c, 4, 75, 95
6, 12760, Note_on_c, 4, 63, 84
6, 12780, Note_on_c, 4, 63, 0
6, 12780, Note_on_c, 4, 75, 0
6, 12780, Note_on_c, 4, 79, 76
6, 12800, Note_on_c, 4, 79, 0
6, 12800, Note_on_c, 4, 77, 95
6, 12820, Note_on_c, 4, 77, 0
6, 12820, Note_on_c, 4, 75, 90
6, 12840, Note_on_c, 4, 75, 0
6, 12840, Note_on_c, 4, 68, 86
6, 12860, Note_on_c, 4, 68, 0
6, 12860, Note_on_c, 4, 76, 99
6, 12860, Note_on_c, 4, 64, 85
6, 12880, Note_on_c, 4, 64, 0
6, 12880, Note_on_c, 4, 76, 0
6, 12880, Note_on_c, 4, 77, 95
6, 12880, Note_on_c, 4, 65, 72
6, 12900, Note_on_c, 4, 65, 0
6, 12900, Note_on_c, 4, 77, 0
6, 12900, Note_on_c, 4, 80, 93
6, 12900, Note_on_c, 4, 68, 74
6, 12920, Note_on_c, 4, 68, 0
6, 12920, Note_on_c, 4, 80, 0
6, 12920, Note_on_c, 4, 79, 94
6, 12920, Note_on_c, 4, 67, 80
6, 12940, Note_on_c, 4, 67, 0
6, 12940, Note_on_c, 4, 79, 0
6, 12940, Note_on_c, 4, 77, 95
6, 12940, Note_on_c, 4, 65, 86
6, 12960, Note_on_c, 4, 65, 0
6, 12960, Note_on_c, 4, 77, 0
6, 12960, Note_on_c, 4, 79, 85
6, 12960, Note_on_c, 4, 63, 63
6, 12990, Note_on_c, 4, 63, 0
6, 12990, Note_on_c, 4, 58, 72
6, 13020, Note_on_c, 4, 58, 0
6, 13020, Note_on_c, 4, 55, 76
6, 13050, Note_on_c, 4, 55, 0
6, 13050, Note_on_c, 4, 51, 72
6, 13080, Note_on_c, 4, 51, 0
6, 13080, Note_on_c, 4, 79, 0
6, 13080, Note_on_c, 4, 79, 61
6, 13080, Note_on_c, 4, 75, 65
6, 13080, Note_on_c, 4, 70, 62
6, 13080, Note_on_c, 4, 67, 64
6, 13080, Note_on_c, 4, 46, 72
6, 13110, Note_on_c, 4, 46, 0
6, 13110, Note_on_c, 4, 43, 80
6, 13140, Note_on_c, 4, 43, 0
6, 13140, Note_on_c, 4, 39, 72
6, 13170, Note_on_c, 4, 39, 0
6, 13170, Note_on_c, 4, 37, 69
6, 13200, Note_on_c, 4, 37, 0
6, 13200, Note_on_c, 4, 67, 0
6, 13200, Note_on_c, 4, 79, 0
6, 13200, Note_on_c, 4, 75, 0
6, 13200, Note_on_c, 4, 70, 0
6, 13200, Note_on_c, 4, 80, 61
6, 13200, Note_on_c, 4, 36, 84
6, 13215, Note_on_c, 4, 80, 0
6, 13215, Note_on_c, 4, 82, 71
6, 13220, Note_on_c, 4, 82, 0
6, 13220, Note_on_c, 4, 80, 80
6, 13225, Note_on_c, 4, 80, 0
6, 13225, Note_on_c, 4, 79, 73
6, 13230, Note_on_c, 4, 79, 0
6, 13230, Note_on_c, 4, 36, 0
6, 13230, Note_on_c, 4, 80, 69
6, 13230, Note_on_c, 4, 39, 73
6, 13245, Note_on_c, 4, 80, 0
6, 13245, Note_on_c, 4, 82, 72
6, 13260, Note_on_c, 4, 82, 0
6, 13260, Note_on_c, 4, 39, 0
6, 13260, Note_on_c, 4, 86, 69
6, 13260, Note_on_c, 4, 32, 80
6, 13275, Note_on_c, 4, 86, 0
6, 13275, Note_on_c, 4, 84, 65
6, 13290, Note_on_c, 4, 84, 0
6, 13290, Note_on_c, 4, 32, 0
6, 13290, Note_on_c, 4, 82, 49
6, 13290, Note_on_c, 4, 77, 61
6, 13290, Note_on_c, 4, 44, 60
6, 13305, Note_on_c, 4, 77, 0
6, 13305, Note_on_c, 4, 82, 0
6, 13305, Note_on_c, 4, 80, 58
6, 13320, Note_on_c, 4, 80, 0
6, 13320, Note_on_c, 4, 44, 0
6, 13320, Note_on_c, 4, 79, 64
6, 13320, Note_on_c, 4, 75, 52
6, 13320, Note_on_c, 4, 34, 80
6, 13350, Note_on_c, 4, 34, 0
6, 13350, Note_on_c, 4, 39, 80
6, 13380, Note_on_c, 4, 39, 0
6, 13380, Note_on_c, 4, 79, 0
6, 13380, Note_on_c, 4, 79, 58
6, 13380, Note_on_c, 4, 43, 73
6, 13395, Note_on_c, 4, 79, 0
6, 13395, Note_on_c, 4, 80, 78
6, 13410, Note_on_c, 4, 80, 0
6, 13410, Note_on_c, 4, 43, 0
6, 13410, Note_on_c, 4, 81, 80
6, 13410, Note_on_c, 4, 46, 67
6, 13425, Note_on_c, 4, 81, 0
6, 13425, Note_on_c, 4, 82, 71
6, 13440, Note_on_c, 4, 82, 0
6, 13440, Note_on_c, 4, 46, 0
6, 13440, Note_on_c, 4, 75, 0
6, 13440, Note_on_c, 4, 77, 48
6, 13440, Note_on_c, 4, 74, 57
6, 13440, Note_on_c, 4, 34, 80
6, 13470, Note_on_c, 4, 34, 0
6, 13470, Note_on_c, 4, 38, 43
6, 13500, Note_on_c, 4, 38, 0
6, 13500, Note_on_c, 4, 74, 0
6, 13500, Note_on_c, 4, 77, 0
6, 13500, Note_on_c, 4, 41, 76
6, 13530, Note_on_c, 4, 41, 0
6, 13530, Note_on_c, 4, 45, 59
6, 13560, Note_on_c, 4, 45, 0
6, 13560, Note_on_c, 4, 46, 74
6, 13590, Note_on_c, 4, 46, 0
6, 13590, Note_on_c, 4, 82, 61
6, 13590, Note_on_c, 4, 50, 78
6, 13620, Note_on_c, 4, 50, 0
6, 13620, Note_on_c, 4, 82, 0
6, 13620, Note_on_c, 4, 82, 71
6, 13620, Note_on_c, 4, 53, 67
6, 13650, Note_on_c, 4, 53, 0
6, 13650, Note_on_c, 4, 82, 0
6, 13650, Note_on_c, 4, 82, 65
6, 13650, Note_on_c, 4, 58, 72
6, 13657, Note_on_c, 4, 81, 85
6, 13658, Note_on_c, 4, 82, 0
6, 13665, Note_on_c, 4, 81, 0
6, 13665, Note_on_c, 4, 82, 62
6, 13672, Note_on_c, 4, 84, 65
6, 13673, Note_on_c, 4, 82, 0
6, 13680, Note_on_c, 4, 84, 0
6, 13680, Note_on_c, 4, 58, 0
6, 13680, Note_on_c, 4, 82, 72
6, 13680, Note_on_c, 4, 48, 72
6, 13710, Note_on_c, 4, 48, 0
6, 13710, Note_on_c, 4, 51, 73
6, 13740, Note_on_c, 4, 51, 0
6, 13740, Note_on_c, 4, 82, 0
6, 13740, Note_on_c, 4, 80, 74
6, 13740, Note_on_c, 4, 56, 68
6, 13770, Note_on_c, 4, 56, 0
6, 13770, Note_on_c, 4, 60, 66
6, 13800, Note_on_c, 4, 60, 0
6, 13800, Note_on_c, 4, 50, 73
6, 13830, Note_on_c, 4, 50, 0
6, 13830, Note_on_c, 4, 80, 0
6, 13830, Note_on_c, 4, 88, 78
6, 13830, Note_on_c, 4, 53, 72
6, 13845, Note_on_c, 4, 88, 0
6, 13845, Note_on_c, 4, 89, 73
6, 13860, Note_on_c, 4, 89, 0
6, 13860, Note_on_c, 4, 53, 0
6, 13860, Note_on_c, 4, 87, 81
6, 13860, Note_on_c, 4, 56, 76
6, 13875, Note_on_c, 4, 87, 0
6, 13875, Note_on_c, 4, 86, 48
6, 13890, Note_on_c, 4, 86, 0
6, 13890, Note_on_c, 4, 56, 0
6, 13890, Note_on_c, 4, 84, 43
6, 13890, Note_on_c, 4, 58, 57
6, 13905, Note_on_c, 4, 84, 0
6, 13905, Note_on_c, 4, 82, 73
6, 13920, Note_on_c, 4, 82, 0
6, 13920, Note_on_c, 4, 58, 0
6, 13920, Note_on_c, 4, 80, 76
6, 13920, Note_on_c, 4, 51, 74
6, 13935, Note_on_c, 4, 80, 0
6, 13935, Note_on_c, 4, 79, 76
6, 13950, Note_on_c, 4, 79, 0
6, 13950, Note_on_c, 4, 51, 0
6, 13950, Note_on_c, 4, 89, 76
6, 13950, Note_on_c, 4, 55, 65
6, 13965, Note_on_c, 4, 89, 0
6, 13965, Note_on_c, 4, 87, 85
6, 13980, Note_on_c, 4, 87, 0
6, 13980, Note_on_c, 4, 55, 0
6, 13980, Note_on_c, 4, 86, 77
6, 13980, Note_on_c, 4, 43, 61
6, 13995, Note_on_c, 4, 86, 0
6, 13995, Note_on_c, 4, 84, 73
6, 14010, Note_on_c, 4, 84, 0
6, 14010, Note_on_c, 4, 43, 0
6, 14010, Note_on_c, 4, 82, 58
6, 14010, Note_on_c, 4, 46, 72
6, 14025, Note_on_c, 4, 82, 0
6, 14025, Note_on_c, 4, 80, 73
6, 14040, Note_on_c, 4, 80, 0
6, 14040, Note_on_c, 4, 46, 0
6, 14040, Note_on_c, 4, 79, 69
6, 14040, Note_on_c, 4, 44, 68
6, 14055, Note_on_c, 4, 79, 0
6, 14055, Note_on_c, 4, 77, 61
6, 14070, Note_on_c, 4, 77, 0
6, 14070, Note_on_c, 4, 44, 0
6, 14070, Note_on_c, 4, 83, 72
6, 14070, Note_on_c, 4, 53, 64
6, 14085, Note_on_c, 4, 83, 0
6, 14085, Note_on_c, 4, 84, 73
6, 14100, Note_on_c, 4, 84, 0
6, 14100, Note_on_c, 4, 53, 0
6, 14100, Note_on_c, 4, 82, 78
6, 14100, Note_on_c, 4, 48, 81
6, 14115, Note_on_c, 4, 82, 0
6, 14115, Note_on_c, 4, 80, 69
6, 14130, Note_on_c, 4, 80, 0
6, 14130, Note_on_c, 4, 48, 0
6, 14130, Note_on_c, 4, 79, 71
6, 14130, Note_on_c, 4, 56, 65
6, 14145, Note_on_c, 4, 79, 0
6, 14145, Note_on_c, 4, 77, 71
6, 14160, Note_on_c, 4, 77, 0
6, 14160, Note_on_c, 4, 56, 0
6, 14160, Note_on_c, 4, 82, 65
6, 14160, Note_on_c, 4, 46, 65
6, 14182, Note_on_c, 4, 84, 72
6, 14183, Note_on_c, 4, 82, 0
6, 14186, Note_on_c, 4, 84, 0
6, 14186, Note_on_c, 4, 82, 69
6, 14189, Note_on_c, 4, 81, 76
6, 14190, Note_on_c, 4, 82, 0
6, 14190, Note_on_c, 4, 46, 0
6, 14190, Note_on_c, 4, 55, 64
6, 14193, Note_on_c, 4, 81, 0
6, 14193, Note_on_c, 4, 82, 74
6, 14197, Note_on_c, 4, 82, 0
6, 14205, Note_on_c, 4, 84, 61
6, 14213, Note_on_c, 4, 84, 0
6, 14220, Note_on_c, 4, 55, 0
6, 14220, Note_on_c, 4, 75, 67
6, 14220, Note_on_c, 4, 51, 74
6, 14250, Note_on_c, 4, 51, 0
6, 14250, Note_on_c, 4, 55, 56
6, 14280, Note_on_c, 4, 55, 0
6, 14280, Note_on_c, 4, 75, 0
6, 14280, Note_on_c, 4, 77, 65
6, 14280, Note_on_c, 4, 46, 71
6, 14295, Note_on_c, 4, 77, 0
6, 14295, Note_on_c, 4, 75, 73
6, 14310, Note_on_c, 4, 75, 0
6, 14310, Note_on_c, 4, 46, 0
6, 14310, Note_on_c, 4, 74, 86
6, 14310, Note_on_c, 4, 56, 72
6, 14325, Note_on_c, 4, 74, 0
6, 14325, Note_on_c, 4, 75, 72
6, 14340, Note_on_c, 4, 75, 0
6, 14340, Note_on_c, 4, 56, 0
6, 14340, Note_on_c, 4, 79, 65
6, 14340, Note_on_c, 4, 50, 89
6, 14370, Note_on_c, 4, 50, 0
6, 14370, Note_on_c, 4, 79, 0
6, 14370, Note_on_c, 4, 77, 80
6, 14370, Note_on_c, 4, 56, 57
6, 14400, Note_on_c, 4, 56, 0
6, 14400, Note_on_c, 4, 77, 0
6, 14400, Note_on_c, 4, 51, 73
6, 14410, Note_on_c, 4, 51, 0
6, 14410, Note_on_c, 4, 75, 66
6, 14410, Note_on_c, 4, 55, 64
6, 14420, Note_on_c, 4, 55, 0
6, 14420, Note_on_c, 4, 75, 0
6, 14420, Note_on_c, 4, 79, 84
6, 14430, Note_on_c, 4, 79, 0
6, 14430, Note_on_c, 4, 63, 73
6, 14440, Note_on_c, 4, 63, 0
6, 14440, Note_on_c, 4, 75, 65
6, 14440, Note_on_c, 4, 67, 70
6, 14450, Note_on_c, 4, 67, 0
6, 14450, Note_on_c, 4, 75, 0
6, 14450, Note_on_c, 4, 79, 80
6, 14460, Note_on_c, 4, 79, 0
6, 14460, Note_on_c, 4, 62, 78
6, 14470, Note_on_c, 4, 62, 0
6, 14470, Note_on_c, 4, 74, 74
6, 14470, Note_on_c, 4, 65, 64
6, 14480, Note_on_c, 4, 65, 0
6, 14480, Note_on_c, 4, 74, 0
6, 14480, Note_on_c, 4, 77, 67
6, 14490, Note_on_c, 4, 77, 0
6, 14490, Note_on_c, 4, 60, 74
6, 14500, Note_on_c, 4, 60, 0
6, 14500, Note_on_c, 4, 63, 68
6, 14510, Note_on_c, 4, 63, 0
6, 14510, Note_on_c, 4, 75, 81
6, 14520, Note_on_c, 4, 75, 0
6, 14520, Note_on_c, 4, 58, 69
6, 14530, Note_on_c, 4, 58, 0
6, 14530, Note_on_c, 4, 70, 72
6, 14530, Note_on_c, 4, 62, 68
6, 14540, Note_on_c, 4, 62, 0
6, 14540, Note_on_c, 4, 70, 0
6, 14540, Note_on_c, 4, 74, 82
6, 14550, Note_on_c, 4, 74, 0
6, 14550, Note_on_c, 4, 60, 85
6, 14560, Note_on_c, 4, 60, 0
6, 14560, Note_on_c, 4, 63, 72
6, 14570, Note_on_c, 4, 63, 0
6, 14570, Note_on_c, 4, 75, 82
6, 14580, Note_on_c, 4, 75, 0
6, 14580, Note_on_c, 4, 58, 65
6, 14590, Note_on_c, 4, 58, 0
6, 14590, Note_on_c, 4, 70, 67
6, 14590, Note_on_c, 4, 62, 70
6, 14600, Note_on_c, 4, 62, 0
6, 14600, Note_on_c, 4, 70, 0
6, 14600, Note_on_c, 4, 74, 93
6, 14610, Note_on_c, 4, 74, 0
6, 14610, Note_on_c, 4, 56, 67
6, 14620, Note_on_c, 4, 56, 0
6, 14620, Note_on_c, 4, 68, 69
6, 14620, Note_on_c, 4, 60, 69
6, 14630, Note_on_c, 4, 60, 0
6, 14630, Note_on_c, 4, 68, 0
6, 14630, Note_on_c, 4, 72, 62
6, 14640, Note_on_c, 4, 72, 0
6, 14640, Note_on_c, 4, 55, 77
6, 14650, Note_on_c, 4, 55, 0
6, 14650, Note_on_c, 4, 67, 69
6, 14650, Note_on_c, 4, 58, 64
6, 14660, Note_on_c, 4, 58, 0
6, 14660, Note_on_c, 4, 67, 0
6, 14660, Note_on_c, 4, 70, 64
6, 14670, Note_on_c, 4, 70, 0
6, 14670, Note_on_c, 4, 56, 73
6, 14680, Note_on_c, 4, 56, 0
6, 14680, Note_on_c, 4, 68, 72
6, 14680, Note_on_c, 4, 60, 60
6, 14690, Note_on_c, 4, 60, 0
6, 14690, Note_on_c, 4, 68, 0
6, 14690, Note_on_c, 4, 72, 57
6, 14700, Note_on_c, 4, 72, 0
6, 14700, Note_on_c, 4, 55, 80
6, 14710, Note_on_c, 4, 55, 0
6, 14710, Note_on_c, 4, 67, 74
6, 14710, Note_on_c, 4, 58, 71
6, 14720, Note_on_c, 4, 58, 0
6, 14720, Note_on_c, 4, 67, 0
6, 14720, Note_on_c, 4, 70, 80
6, 14730, Note_on_c, 4, 70, 0
6, 14730, Note_on_c, 4, 53, 80
6, 14740, Note_on_c, 4, 53, 0
6, 14740, Note_on_c, 4, 65, 74
6, 14740, Note_on_c, 4, 56, 72
6, 14750, Note_on_c, 4, 56, 0
6, 14750, Note_on_c, 4, 65, 0
6, 14750, Note_on_c, 4, 68, 80
6, 14760, Note_on_c, 4, 68, 0
6, 14760, Note_on_c, 4, 51, 78
6, 14770, Note_on_c, 4, 51, 0
6, 14770, Note_on_c, 4, 63, 62
6, 14770, Note_on_c, 4, 55, 64
6, 14780, Note_on_c, 4, 55, 0
6, 14780, Note_on_c, 4, 63, 0
6, 14780, Note_on_c, 4, 67, 84
6, 14790, Note_on_c, 4, 67, 0
6, 14790, Note_on_c, 4, 46, 76
6, 14800, Note_on_c, 4, 46, 0
6, 14800, Note_on_c, 4, 58, 61
6, 14800, Note_on_c, 4, 51, 73
6, 14810, Note_on_c, 4, 51, 0
6, 14810, Note_on_c, 4, 58, 0
6, 14810, Note_on_c, 4, 63, 81
6, 14820, Note_on_c, 4, 63, 0
6, 14820, Note_on_c, 4, 43, 80
6, 14830, Note_on_c, 4, 43, 0
6, 14830, Note_on_c, 4, 55, 65
6, 14830, Note_on_c, 4, 46, 71
6, 14840, Note_on_c, 4, 46, 0
6, 14840, Note_on_c, 4, 55, 0
6, 14840, Note_on_c, 4, 58, 64
6, 14850, Note_on_c, 4, 58, 0
6, 14850, Note_on_c, 4, 46, 78
6, 14860, Note_on_c, 4, 46, 0
6, 14860, Note_on_c, 4, 58, 71
6, 14860, Note_on_c, 4, 51, 72
6, 14870, Note_on_c, 4, 51, 0
6, 14870, Note_on_c, 4, 58, 0
6, 14870, Note_on_c, 4, 63, 77
6, 14880, Note_on_c, 4, 63, 0
6, 14880, Note_on_c, 4, 43, 77
6, 14890, Note_on_c, 4, 43, 0
6, 14890, Note_on_c, 4, 55, 64
6, 14890, Note_on_c, 4, 48, 65
6, 14900, Note_on_c, 4, 48, 0
6, 14900, Note_on_c, 4, 55, 0
6, 14900, Note_on_c, 4, 60, 73
6, 14910, Note_on_c, 4, 60, 0
6, 14910, Note_on_c, 4, 48, 80
6, 14920, Note_on_c, 4, 48, 0
6, 14920, Note_on_c, 4, 60, 72
6, 14920, Note_on_c, 4, 51, 73
6, 14930, Note_on_c, 4, 51, 0
6, 14930, Note_on_c, 4, 60, 0
6, 14930, Note_on_c, 4, 63, 81
6, 14940, Note_on_c, 4, 63, 0
6, 14940, Note_on_c, 4, 51, 82
6, 14950, Note_on_c, 4, 51, 0
6, 14950, Note_on_c, 4, 63, 65
6, 14950, Note_on_c, 4, 55, 68
6, 14960, Note_on_c, 4, 55, 0
6, 14960, Note_on_c, 4, 63, 0
6, 14960, Note_on_c, 4, 67, 84
6, 14970, Note_on_c, 4, 67, 0
6, 14970, Note_on_c, 4, 48, 81
6, 14980, Note_on_c, 4, 48, 0
6, 14980, Note_on_c, 4, 60, 74
6, 14980, Note_on_c, 4, 51, 74
6, 14990, Note_on_c, 4, 51, 0
6, 14990, Note_on_c, 4, 60, 0
6, 14990, Note_on_c, 4, 63, 81
6, 15000, Note_on_c, 4, 63, 0
6, 15000, Note_on_c, 4, 44, 81
6, 15010, Note_on_c, 4, 44, 0
6, 15010, Note_on_c, 4, 56, 73
6, 15010, Note_on_c, 4, 48, 72
6, 15020, Note_on_c, 4, 48, 0
6, 15020, Note_on_c, 4, 56, 0
6, 15020, Note_on_c, 4, 60, 89
6, 15030, Note_on_c, 4, 60, 0
6, 15030, Note_on_c, 4, 48, 89
6, 15040, Note_on_c, 4, 48, 0
6, 15040, Note_on_c, 4, 60, 73
6, 15040, Note_on_c, 4, 53, 72
6, 15050, Note_on_c, 4, 53, 0
6, 15050, Note_on_c, 4, 60, 0
6, 15050, Note_on_c, 4, 65, 85
6, 15060, Note_on_c, 4, 65, 0
6, 15060, Note_on_c, 4, 53, 78
6, 15070, Note_on_c, 4, 53, 0
6, 15070, Note_on_c, 4, 65, 73
6, 15070, Note_on_c, 4, 56, 76
6, 15080, Note_on_c, 4, 56, 0
6, 15080, Note_on_c, 4, 65, 0
6, 15080, Note_on_c, 4, 68, 80
6, 15090, Note_on_c, 4, 68, 0
6, 15090, Note_on_c, 4, 48, 84
6, 15100, Note_on_c, 4, 48, 0
6, 15100, Note_on_c, 4, 60, 72
6, 15100, Note_on_c, 4, 53, 76
6, 15110, Note_on_c, 4, 53, 0
6, 15110, Note_on_c, 4, 60, 0
6, 15110, Note_on_c, 4, 65, 84
6, 15120, Note_on_c, 4, 65, 0
6, 15120, Note_on_c, 4, 46, 77
6, 15130, Note_on_c, 4, 46, 0
6, 15130, Note_on_c, 4, 58, 65
6, 15130, Note_on_c, 4, 51, 76
6, 15140, Note_on_c, 4, 51, 0
6, 15140, Note_on_c, 4, 58, 0
6, 15140, Note_on_c, 4, 63, 78
6, 15150, Note_on_c, 4, 63, 0
6, 15150, Note_on_c, 4, 51, 81
6, 15160, Note_on_c, 4, 51, 0
6, 15160, Note_on_c, 4, 63, 64
6, 15160, Note_on_c, 4, 55, 67
6, 15170, Note_on_c, 4, 55, 0
6, 15170, Note_on_c, 4, 63, 0
6, 15170, Note_on_c, 4, 67, 84
6, 15180, Note_on_c, 4, 67, 0
6, 15180, Note_on_c, 4, 55, 86
6, 15190, Note_on_c, 4, 55, 0
6, 15190, Note_on_c, 4, 67, 80
6, 15190, Note_on_c, 4, 58, 73
6, 15200, Note_on_c, 4, 58, 0
6, 15200, Note_on_c, 4, 67, 0
6, 15200, Note_on_c, 4, 70, 84
6, 15210, Note_on_c, 4, 70, 0
6, 15210, Note_on_c, 4, 51, 84
6, 15220, Note_on_c, 4, 51, 0
6, 15220, Note_on_c, 4, 63, 70
6, 15220, Note_on_c, 4, 55, 68
6, 15230, Note_on_c, 4, 55, 0
6, 15230, Note_on_c, 4, 63, 0
6, 15230, Note_on_c, 4, 67, 84
6, 15240, Note_on_c, 4, 67, 0
6, 15240, Note_on_c, 4, 46, 89
6, 15250, Note_on_c, 4, 46, 0
6, 15250, Note_on_c, 4, 58, 68
6, 15250, Note_on_c, 4, 51, 80
6, 15260, Note_on_c, 4, 51, 0
6, 15260, Note_on_c, 4, 58, 0
6, 15260, Note_on_c, 4, 63, 84
6, 15270, Note_on_c, 4, 63, 0
6, 15270, Note_on_c, 4, 53, 89
6, 15280, Note_on_c, 4, 53, 0
6, 15280, Note_on_c, 4, 65, 78
6, 15280, Note_on_c, 4, 58, 74
6, 15290, Note_on_c, 4, 58, 0
6, 15290, Note_on_c, 4, 65, 0
6, 15290, Note_on_c, 4, 70, 81
6, 15300, Note_on_c, 4, 70, 0
6, 15300, Note_on_c, 4, 50, 90
6, 15310, Note_on_c, 4, 50, 0
6, 15310, Note_on_c, 4, 62, 76
6, 15310, Note_on_c, 4, 53, 70
6, 15320, Note_on_c, 4, 53, 0
6, 15320, Note_on_c, 4, 62, 0
6, 15320, Note_on_c, 4, 65, 84
6, 15330, Note_on_c, 4, 65, 0
6, 15330, Note_on_c, 4, 58, 73
6, 15340, Note_on_c, 4, 58, 0
6, 15340, Note_on_c, 4, 70, 70
6, 15340, Note_on_c, 4, 62, 70
6, 15350, Note_on_c, 4, 62, 0
6, 15350, Note_on_c, 4, 70, 0
6, 15350, Note_on_c, 4, 74, 98
6, 15360, Note_on_c, 4, 74, 0
6, 15360, Note_on_c, 4, 53, 89
6, 15370, Note_on_c, 4, 53, 0
6, 15370, Note_on_c, 4, 65, 78
6, 15370, Note_on_c, 4, 58, 76
6, 15380, Note_on_c, 4, 58, 0
6, 15380, Note_on_c, 4, 65, 0
6, 15380, Note_on_c, 4, 70, 89
6, 15390, Note_on_c, 4, 70, 0
6, 15390, Note_on_c, 4, 62, 85
6, 15400, Note_on_c, 4, 62, 0
6, 15400, Note_on_c, 4, 74, 81
6, 15400, Note_on_c, 4, 65, 71
6, 15410, Note_on_c, 4, 65, 0
6, 15410, Note_on_c, 4, 74, 0
6, 15410, Note_on_c, 4, 77, 81
6, 15420, Note_on_c, 4, 77, 0
6, 15420, Note_on_c, 4, 58, 76
6, 15430, Note_on_c, 4, 58, 0
6, 15430, Note_on_c, 4, 70, 70
6, 15430, Note_on_c, 4, 62, 61
6, 15440, Note_on_c, 4, 62, 0
6, 15440, Note_on_c, 4, 70, 0
6, 15440, Note_on_c, 4, 74, 99
6, 15450, Note_on_c, 4, 74, 0
6, 15450, Note_on_c, 4, 65, 94
6, 15460, Note_on_c, 4, 65, 0
6, 15460, Note_on_c, 4, 77, 76
6, 15460, Note_on_c, 4, 70, 76
6, 15470, Note_on_c, 4, 70, 0
6, 15470, Note_on_c, 4, 77, 0
6, 15470, Note_on_c, 4, 82, 76
6, 15480, Note_on_c, 4, 82, 0
6, 15480, Note_on_c, 4, 63, 80
6, 15490, Note_on_c, 4, 63, 0
6, 15490, Note_on_c, 4, 75, 72
6, 15490, Note_on_c, 4, 68, 72
6, 15500, Note_on_c, 4, 68, 0
6, 15500, Note_on_c, 4, 75, 0
6, 15500, Note_on_c, 4, 80, 77
6, 15510, Note_on_c, 4, 80, 0
6, 15510, Note_on_c, 4, 60, 89
6, 15520, Note_on_c, 4, 60, 0
6, 15520, Note_on_c, 4, 72, 53
6, 15520, Note_on_c, 4, 63, 72
6, 15530, Note_on_c, 4, 63, 0
6, 15530, Note_on_c, 4, 72, 0
6, 15530, Note_on_c, 4, 75, 90
6, 15540, Note_on_c, 4, 75, 0
6, 15540, Note_on_c, 4, 56, 74
6, 15550, Note_on_c, 4, 56, 0
6, 15550, Note_on_c, 4, 68, 76
6, 15550, Note_on_c, 4, 60, 78
6, 15560, Note_on_c, 4, 60, 0
6, 15560, Note_on_c, 4, 68, 0
6, 15560, Note_on_c, 4, 72, 69
6, 15570, Note_on_c, 4, 72, 0
6, 15570, Note_on_c, 4, 51, 82
6, 15580, Note_on_c, 4, 51, 0
6, 15580, Note_on_c, 4, 63, 73
6, 15580, Note_on_c, 4, 56, 76
6, 15590, Note_on_c, 4, 56, 0
6, 15590, Note_on_c, 4, 63, 0
6, 15590, Note_on_c, 4, 68, 89
6, 15600, Note_on_c, 4, 68, 0
6, 15600, Note_on_c, 4, 53, 89
6, 15610, Note_on_c, 4, 53, 0
6, 15610, Note_on_c, 4, 65, 80
6, 15610, Note_on_c, 4, 58, 71
6, 15620, Note_on_c, 4, 58, 0
6, 15620, Note_on_c, 4, 65, 0
6, 15620, Note_on_c, 4, 70, 82
6, 15630, Note_on_c, 4, 70, 0
6, 15630, Note_on_c, 4, 58, 84
6, 15640, Note_on_c, 4, 58, 0
6, 15640, Note_on_c, 4, 70, 76
6, 15640, Note_on_c, 4, 62, 68
6, 15650, Note_on_c, 4, 62, 0
6, 15650, Note_on_c, 4, 70, 0
6, 15650, Note_on_c, 4, 74, 98
6, 15660, Note_on_c, 4, 74, 0
6, 15660, Note_on_c, 4, 62, 84
6, 15670, Note_on_c, 4, 62, 0
6, 15670, Note_on_c, 4, 74, 89
6, 15670, Note_on_c, 4, 65, 78
6, 15680, Note_on_c, 4, 65, 0
6, 15680, Note_on_c, 4, 74, 0
6, 15680, Note_on_c, 4, 77, 93
6, 15690, Note_on_c, 4, 77, 0
6, 15690, Note_on_c, 4, 65, 80
6, 15700, Note_on_c, 4, 65, 0
6, 15700, Note_on_c, 4, 77, 64
6, 15700, Note_on_c, 4, 68, 84
6, 15710, Note_on_c, 4, 68, 0
6, 15710, Note_on_c, 4, 77, 0
6, 15710, Note_on_c, 4, 80, 86
6, 15720, Note_on_c, 4, 80, 0
6, 15720, Note_on_c, 4, 63, 82
6, 15730, Note_on_c, 4, 63, 0
6, 15730, Note_on_c, 4, 75, 76
6, 15730, Note_on_c, 4, 67, 68
6, 15740, Note_on_c, 4, 67, 0
6, 15740, Note_on_c, 4, 75, 0
6, 15740, Note_on_c, 4, 79, 94
6, 15750, Note_on_c, 4, 79, 0
6, 15750, Note_on_c, 4, 58, 90
6, 15760, Note_on_c, 4, 58, 0
6, 15760, Note_on_c, 4, 70, 77
6, 15760, Note_on_c, 4, 63, 78
6, 15770, Note_on_c, 4, 63, 0
6, 15770, Note_on_c, 4, 70, 0
6, 15770, Note_on_c, 4, 75, 94
6, 15780, Note_on_c, 4, 75, 0
6, 15780, Note_on_c, 4, 55, 86
6, 15790, Note_on_c, 4, 55, 0
6, 15790, Note_on_c, 4, 67, 78
6, 15790, Note_on_c, 4, 58, 74
6, 15800, Note_on_c, 4, 58, 0
6, 15800, Note_on_c, 4, 67, 0
6, 15800, Note_on_c, 4, 70, 86
6, 15810, Note_on_c, 4, 70, 0
6, 15810, Note_on_c, 4, 51, 85
6, 15820, Note_on_c, 4, 51, 0
6, 15820, Note_on_c, 4, 63, 76
6, 15820, Note_on_c, 4, 55, 64
6, 15830, Note_on_c, 4, 55, 0
6, 15830, Note_on_c, 4, 63, 0
6, 15830, Note_on_c, 4, 67, 90
6, 15840, Note_on_c, 4, 67, 0
6, 15840, Note_on_c, 4, 48, 84
6, 15850, Note_on_c, 4, 48, 0
6, 15850, Note_on_c, 4, 60, 72
6, 15850, Note_on_c, 4, 53, 73
6, 15860, Note_on_c, 4, 53, 0
6, 15860, Note_on_c, 4, 60, 0
6, 15860, Note_on_c, 4, 65, 72
6, 15870, Note_on_c, 4, 65, 0
6, 15870, Note_on_c, 4, 53, 89
6, 15880, Note_on_c, 4, 53, 0
6, 15880, Note_on_c, 4, 65, 82
6, 15880, Note_on_c, 4, 56, 76
6, 15890, Note_on_c, 4, 56, 0
6, 15890, Note_on_c, 4, 65, 0
6, 15890, Note_on_c, 4, 68, 85
6, 15900, Note_on_c, 4, 68, 0
6, 15900, Note_on_c, 4, 56, 85
6, 15910, Note_on_c, 4, 56, 0
6, 15910, Note_on_c, 4, 68, 78
6, 15910, Note_on_c, 4, 60, 76
6, 15920, Note_on_c, 4, 60, 0
6, 15920, Note_on_c, 4, 68, 0
6, 15920, Note_on_c, 4, 72, 84
6, 15930, Note_on_c, 4, 72, 0
6, 15930, Note_on_c, 4, 60, 94
6, 15940, Note_on_c, 4, 60, 0
6, 15940, Note_on_c, 4, 72, 59
6, 15940, Note_on_c, 4, 65, 78
6, 15950, Note_on_c, 4, 65, 0
6, 15950, Note_on_c, 4, 72, 0
6, 15950, Note_on_c, 4, 77, 89
6, 15960, Note_on_c, 4, 77, 0
6, 15960, Note_on_c, 4, 46, 86
6, 15970, Note_on_c, 4, 46, 0
6, 15970, Note_on_c, 4, 58, 73
6, 15970, Note_on_c, 4, 51, 84
6, 15980, Note_on_c, 4, 51, 0
6, 15980, Note_on_c, 4, 58, 0
6, 15980, Note_on_c, 4, 63, 81
6, 15990, Note_on_c, 4, 63, 0
6, 15990, Note_on_c, 4, 51, 82
6, 16000, Note_on_c, 4, 51, 0
6, 16000, Note_on_c, 4, 63, 74
6, 16000, Note_on_c, 4, 55, 69
6, 16010, Note_on_c, 4, 55, 0
6, 16010, Note_on_c, 4, 63, 0
6, 16010, Note_on_c, 4, 67, 86
6, 16020, Note_on_c, 4, 67, 0
6, 16020, Note_on_c, 4, 55, 86
6, 16030, Note_on_c, 4, 55, 0
6, 16030, Note_on_c, 4, 67, 80
6, 16030, Note_on_c, 4, 58, 76
6, 16040, Note_on_c, 4, 58, 0
6, 16040, Note_on_c, 4, 67, 0
6, 16040, Note_on_c, 4, 70, 94
6, 16050, Note_on_c, 4, 70, 0
6, 16050, Note_on_c, 4, 58, 94
6, 16060, Note_on_c, 4, 58, 0
6, 16060, Note_on_c, 4, 70, 76
6, 16060, Note_on_c, 4, 63, 76
6, 16070, Note_on_c, 4, 63, 0
6, 16070, Note_on_c, 4, 70, 0
6, 16070, Note_on_c, 4, 75, 104
6, 16080, Note_on_c, 4, 75, 0
6, 16080, Note_on_c, 4, 46, 86
6, 16090, Note_on_c, 4, 46, 0
6, 16090, Note_on_c, 4, 58, 74
6, 16090, Note_on_c, 4, 50, 80
6, 16100, Note_on_c, 4, 50, 0
6, 16100, Note_on_c, 4, 58, 0
6, 16100, Note_on_c, 4, 62, 94
6, 16110, Note_on_c, 4, 62, 0
6, 16110, Note_on_c, 4, 50, 90
6, 16120, Note_on_c, 4, 50, 0
6, 16120, Note_on_c, 4, 62, 82
6, 16120, Note_on_c, 4, 53, 74
6, 16130, Note_on_c, 4, 53, 0
6, 16130, Note_on_c, 4, 62, 0
6, 16130, Note_on_c, 4, 65, 72
6, 16140, Note_on_c, 4, 65, 0
6, 16140, Note_on_c, 4, 53, 82
6, 16150, Note_on_c, 4, 53, 0
6, 16150, Note_on_c, 4, 65, 82
6, 16150, Note_on_c, 4, 58, 74
6, 16160, Note_on_c, 4, 58, 0
6, 16160, Note_on_c, 4, 65, 0
6, 16160, Note_on_c, 4, 70, 89
6, 16170, Note_on_c, 4, 70, 0
6, 16170, Note_on_c, 4, 58, 86
6, 16180, Note_on_c, 4, 58, 0
6, 16180, Note_on_c, 4, 70, 80
6, 16180, Note_on_c, 4, 62, 68
6, 16190, Note_on_c, 4, 62, 0
6, 16190, Note_on_c, 4, 70, 0
6, 16190, Note_on_c, 4, 74, 101
6, 16200, Note_on_c, 4, 74, 0
6, 16200, Note_on_c, 4, 46, 80
6, 16210, Note_on_c, 4, 46, 0
6, 16210, Note_on_c, 4, 58, 70
6, 16210, Note_on_c, 4, 50, 80
6, 16220, Note_on_c, 4, 50, 0
6, 16220, Note_on_c, 4, 58, 0
6, 16220, Note_on_c, 4, 62, 90
6, 16230, Note_on_c, 4, 62, 0
6, 16230, Note_on_c, 4, 50, 94
6, 16240, Note_on_c, 4, 50, 0
6, 16240, Note_on_c, 4, 62, 78
6, 16240, Note_on_c, 4, 53, 69
6, 16250, Note_on_c, 4, 53, 0
6, 16250, Note_on_c, 4, 62, 0
6, 16250, Note_on_c, 4, 65, 81
6, 16260, Note_on_c, 4, 65, 0
6, 16260, Note_on_c, 4, 53, 86
6, 16270, Note_on_c, 4, 53, 0
6, 16270, Note_on_c, 4, 65, 84
6, 16270, Note_on_c, 4, 58, 80
6, 16280, Note_on_c, 4, 58, 0
6, 16280, Note_on_c, 4, 65, 0
6, 16280, Note_on_c, 4, 70, 93
6, 16290, Note_on_c, 4, 70, 0
6, 16290, Note_on_c, 4, 58, 86
6, 16300, Note_on_c, 4, 58, 0
6, 16300, Note_on_c, 4, 70, 76
6, 16300, Note_on_c, 4, 62, 69
6, 16310, Note_on_c, 4, 62, 0
6, 16310, Note_on_c, 4, 70, 0
6, 16310, Note_on_c, 4, 74, 104
6, 16320, Note_on_c, 4, 74, 0
6, 16320, Note_on_c, 4, 51, 86
6, 16330, Note_on_c, 4, 51, 0
6, 16330, Note_on_c, 4, 63, 72
6, 16330, Note_on_c, 4, 55, 74
6, 16340, Note_on_c, 4, 55, 0
6, 16340, Note_on_c, 4, 63, 0
6, 16340, Note_on_c, 4, 67, 94
6, 16350, Note_on_c, 4, 67, 0
6, 16350, Note_on_c, 4, 58, 94
6, 16360, Note_on_c, 4, 58, 0
6, 16360, Note_on_c, 4, 70, 73
6, 16360, Note_on_c, 4, 63, 81
6, 16370, Note_on_c, 4, 63, 0
6, 16370, Note_on_c, 4, 70, 0
6, 16370, Note_on_c, 4, 75, 95
6, 16380, Note_on_c, 4, 75, 0
6, 16380, Note_on_c, 4, 55, 94
6, 16390, Note_on_c, 4, 55, 0
6, 16390, Note_on_c, 4, 67, 78
6, 16390, Note_on_c, 4, 58, 81
6, 16400, Note_on_c, 4, 58, 0
6, 16400, Note_on_c, 4, 67, 0
6, 16400, Note_on_c, 4, 70, 95
6, 16410, Note_on_c, 4, 70, 0
6, 16410, Note_on_c, 4, 63, 89
6, 16420, Note_on_c, 4, 63, 0
6, 16420, Note_on_c, 4, 75, 76
6, 16420, Note_on_c, 4, 67, 76
6, 16430, Note_on_c, 4, 67, 0
6, 16430, Note_on_c, 4, 75, 0
6, 16430, Note_on_c, 4, 79, 99
6, 16440, Note_on_c, 4, 79, 0
6, 16440, Note_on_c, 4, 58, 93
6, 16450, Note_on_c, 4, 58, 0
6, 16450, Note_on_c, 4, 70, 81
6, 16450, Note_on_c, 4, 63, 74
6, 16460, Note_on_c, 4, 63, 0
6, 16460, Note_on_c, 4, 70, 0
6, 16460, Note_on_c, 4, 75, 95
6, 16470, Note_on_c, 4, 75, 0
6, 16470, Note_on_c, 4, 67, 93
6, 16480, Note_on_c, 4, 67, 0
6, 16480, Note_on_c, 4, 79, 89
6, 16480, Note_on_c, 4, 70, 80
6, 16490, Note_on_c, 4, 70, 0
6, 16490, Note_on_c, 4, 79, 0
6, 16490, Note_on_c, 4, 82, 95
6, 16500, Note_on_c, 4, 82, 0
6, 16500, Note_on_c, 4, 63, 94
6, 16510, Note_on_c, 4, 63, 0
6, 16510, Note_on_c, 4, 75, 78
6, 16510, Note_on_c, 4, 67, 71
6, 16520, Note_on_c, 4, 67, 0
6, 16520, Note_on_c, 4, 75, 0
6, 16520, Note_on_c, 4, 79, 94
6, 16530, Note_on_c, 4, 79, 0
6, 16530, Note_on_c, 4, 70, 94
6, 16540, Note_on_c, 4, 70, 0
6, 16540, Note_on_c, 4, 82, 76
6, 16540, Note_on_c, 4, 75, 85
6, 16550, Note_on_c, 4, 75, 0
6, 16550, Note_on_c, 4, 82, 0
6, 16550, Note_on_c, 4, 87, 99
6, 16560, Note_on_c, 4, 87, 0
6, 16560, Note_on_c, 4, 82, 71
6, 16560, Note_on_c, 4, 60, 80
6, 16575, Note_on_c, 4, 82, 0
6, 16575, Note_on_c, 4, 84, 80
6, 16580, Note_on_c, 4, 84, 0
6, 16580, Note_on_c, 4, 82, 80
6, 16585, Note_on_c, 4, 82, 0
6, 16585, Note_on_c, 4, 81, 80
6, 16590, Note_on_c, 4, 81, 0
6, 16590, Note_on_c, 4, 60, 0
6, 16590, Note_on_c, 4, 82, 84
6, 16590, Note_on_c, 4, 68, 67
6, 16595, Note_on_c, 4, 82, 0
6, 16605, Note_on_c, 4, 80, 73
6, 16620, Note_on_c, 4, 80, 0
6, 16620, Note_on_c, 4, 68, 0
6, 16620, Note_on_c, 4, 89, 86
6, 16620, Note_on_c, 4, 63, 81
6, 16650, Note_on_c, 4, 63, 0
6, 16650, Note_on_c, 4, 68, 72
6, 16680, Note_on_c, 4, 68, 0
6, 16680, Note_on_c, 4, 62, 81
6, 16710, Note_on_c, 4, 62, 0
6, 16710, Note_on_c, 4, 89, 0
6, 16710, Note_on_c, 4, 88, 68
6, 16710, Note_on_c, 4, 68, 77
6, 16725, Note_on_c, 4, 88, 0
6, 16725, Note_on_c, 4, 89, 84
6, 16740, Note_on_c, 4, 89, 0
6, 16740, Note_on_c, 4, 68, 0
6, 16740, Note_on_c, 4, 87, 82
6, 16740, Note_on_c, 4, 65, 84
6, 16755, Note_on_c, 4, 87, 0
6, 16755, Note_on_c, 4, 86, 89
6, 16770, Note_on_c, 4, 86, 0
6, 16770, Note_on_c, 4, 65, 0
6, 16770, Note_on_c, 4, 84, 73
6, 16770, Note_on_c, 4, 70, 78
6, 16785, Note_on_c, 4, 84, 0
6, 16785, Note_on_c, 4, 82, 81
6, 16800, Note_on_c, 4, 82, 0
6, 16800, Note_on_c, 4, 70, 0
6, 16800, Note_on_c, 4, 80, 85
6, 16800, Note_on_c, 4, 63, 81
6, 16815, Note_on_c, 4, 80, 0
6, 16815, Note_on_c, 4, 79, 81
6, 16830, Note_on_c, 4, 79, 0
6, 16830, Note_on_c, 4, 63, 0
6, 16830, Note_on_c, 4, 89, 84
6, 16830, Note_on_c, 4, 67, 74
6, 16845, Note_on_c, 4, 89, 0
6, 16845, Note_on_c, 4, 87, 77
6, 16860, Note_on_c, 4, 87, 0
6, 16860, Note_on_c, 4, 67, 0
6, 16860, Note_on_c, 4, 86, 81
6, 16860, Note_on_c, 4, 55, 84
6, 16875, Note_on_c, 4, 86, 0
6, 16875, Note_on_c, 4, 84, 78
6, 16890, Note_on_c, 4, 84, 0
6, 16890, Note_on_c, 4, 55, 0
6, 16890, Note_on_c, 4, 82, 76
6, 16890, Note_on_c, 4, 58, 81
6, 16905, Note_on_c, 4, 82, 0
6, 16905, Note_on_c, 4, 80, 74
6, 16920, Note_on_c, 4, 80, 0
6, 16920, Note_on_c, 4, 58, 0
6, 16920, Note_on_c, 4, 79, 74
6, 16920, Note_on_c, 4, 56, 84
6, 16935, Note_on_c, 4, 79, 0
6, 16935, Note_on_c, 4, 77, 65
6, 16950, Note_on_c, 4, 77, 0
6, 16950, Note_on_c, 4, 56, 0
6, 16950, Note_on_c, 4, 76, 80
6, 16950, Note_on_c, 4, 65, 81
6, 16965, Note_on_c, 4, 76, 0
6, 16965, Note_on_c, 4, 77, 81
6, 16980, Note_on_c, 4, 77, 0
6, 16980, Note_on_c, 4, 65, 0
6, 16980, Note_on_c, 4, 76, 84
6, 16980, Note_on_c, 4, 60, 89
6, 16995, Note_on_c, 4, 76, 0
6, 16995, Note_on_c, 4, 77, 84
6, 17010, Note_on_c, 4, 77, 0
6, 17010, Note_on_c, 4, 60, 0
6, 17010, Note_on_c, 4, 79, 86
6, 17010, Note_on_c, 4, 65, 84
6, 17025, Note_on_c, 4, 79, 0
6, 17025, Note_on_c, 4, 80, 74
6, 17040, Note_on_c, 4, 80, 0
6, 17040, Note_on_c, 4, 65, 0
6, 17040, Note_on_c, 4, 79, 80
6, 17040, Note_on_c, 4, 56, 84
6, 17055, Note_on_c, 4, 79, 0
6, 17055, Note_on_c, 4, 80, 86
6, 17070, Note_on_c, 4, 80, 0
6, 17070, Note_on_c, 4, 56, 0
6, 17070, Note_on_c, 4, 83, 80
6, 17070, Note_on_c, 4, 65, 84
6, 17085, Note_on_c, 4, 83, 0
6, 17085, Note_on_c, 4, 84, 74
6, 17100, Note_on_c, 4, 84, 0
6, 17100, Note_on_c, 4, 65, 0
6, 17100, Note_on_c, 4, 82, 84
6, 17100, Note_on_c, 4, 60, 81
6, 17115, Note_on_c, 4, 82, 0
6, 17115, Note_on_c, 4, 80, 80
6, 17130, Note_on_c, 4, 80, 0
6, 17130, Note_on_c, 4, 60, 0
6, 17130, Note_on_c, 4, 79, 76
6, 17130, Note_on_c, 4, 65, 76
6, 17145, Note_on_c, 4, 79, 0
6, 17145, Note_on_c, 4, 77, 58
6, 17160, Note_on_c, 4, 77, 0
6, 17160, Note_on_c, 4, 65, 0
6, 17160, Note_on_c, 4, 76, 80
6, 17160, Note_on_c, 4, 57, 95
6, 17175, Note_on_c, 4, 76, 0
6, 17175, Note_on_c, 4, 77, 71
6, 17190, Note_on_c, 4, 77, 0
6, 17190, Note_on_c, 4, 57, 0
6, 17190, Note_on_c, 4, 76, 80
6, 17190, Note_on_c, 4, 65, 81
6, 17205, Note_on_c, 4, 76, 0
6, 17205, Note_on_c, 4, 77, 77
6, 17220, Note_on_c, 4, 77, 0
6, 17220, Note_on_c, 4, 65, 0
6, 17220, Note_on_c, 4, 76, 84
6, 17220, Note_on_c, 4, 60, 86
6, 17235, Note_on_c, 4, 76, 0
6, 17235, Note_on_c, 4, 77, 81
6, 17250, Note_on_c, 4, 77, 0
6, 17250, Note_on_c, 4, 60, 0
6, 17250, Note_on_c, 4, 79, 86
6, 17250, Note_on_c, 4, 65, 84
6, 17265, Note_on_c, 4, 79, 0
6, 17265, Note_on_c, 4, 75, 93
6, 17280, Note_on_c, 4, 75, 0
6, 17280, Note_on_c, 4, 65, 0
6, 17280, Note_on_c, 4, 75, 76
6, 17280, Note_on_c, 4, 58, 65
6, 17290, Note_on_c, 4, 75, 0
6, 17290, Note_on_c, 4, 77, 73
6, 17300, Note_on_c, 4, 77, 0
6, 17300, Note_on_c, 4, 75, 89
6, 17310, Note_on_c, 4, 75, 0
6, 17310, Note_on_c, 4, 74, 86
6, 17340, Note_on_c, 4, 74, 0
6, 17340, Note_on_c, 4, 72, 64
6, 17350, Note_on_c, 4, 72, 0
6, 17350, Note_on_c, 4, 74, 80
6, 17360, Note_on_c, 4, 74, 0
6, 17360, Note_on_c, 4, 72, 68
6, 17370, Note_on_c, 4, 72, 0
6, 17370, Note_on_c, 4, 70, 76
6, 17400, Note_on_c, 4, 58, 0
6, 17460, Note_on_c, 4, 70, 0
6, 17820, Note_on_c, 4, 75, 86
6, 17820, Note_on_c, 4, 67, 84
6, 17850, Note_on_c, 4, 67, 0
6, 17850, Note_on_c, 4, 70, 72
6, 17880, Note_on_c, 4, 70, 0
6, 17880, Note_on_c, 4, 75, 0
6, 17880, Note_on_c, 4, 80, 72
6, 17880, Note_on_c, 4, 74, 90
6, 17880, Note_on_c, 4, 65, 84
6, 17910, Note_on_c, 4, 65, 0
6, 17910, Note_on_c, 4, 68, 65
6, 17940, Note_on_c, 4, 68, 0
6, 17940, Note_on_c, 4, 74, 0
6, 17940, Note_on_c, 4, 80, 0
6, 17940, Note_on_c, 4, 84, 71
6, 17940, Note_on_c, 4, 72, 48
6, 17940, Note_on_c, 4, 63, 77
6, 17970, Note_on_c, 4, 63, 0
6, 17970, Note_on_c, 4, 67, 72
6, 18000, Note_on_c, 4, 67, 0
6, 18000, Note_on_c, 4, 72, 0
6, 18000, Note_on_c, 4, 84, 0
6, 18000, Note_on_c, 4, 82, 73
6, 18000, Note_on_c, 4, 77, 84
6, 18000, Note_on_c, 4, 62, 72
6, 18030, Note_on_c, 4, 62, 0
6, 18030, Note_on_c, 4, 65, 74
6, 18060, Note_on_c, 4, 65, 0
6, 18060, Note_on_c, 4, 58, 77
6, 18090, Note_on_c, 4, 58, 0
6, 18090, Note_on_c, 4, 82, 0
6, 18090, Note_on_c, 4, 84, 77
6, 18090, Note_on_c, 4, 62, 84
6, 18105, Note_on_c, 4, 84, 0
6, 18105, Note_on_c, 4, 80, 80
6, 18120, Note_on_c, 4, 80, 0
6, 18120, Note_on_c, 4, 62, 0
6, 18120, Note_on_c, 4, 77, 0
6, 18120, Note_on_c, 4, 79, 66
6, 18120, Note_on_c, 4, 70, 76
6, 18120, Note_on_c, 4, 63, 76
6, 18180, Note_on_c, 4, 63, 0
6, 18180, Note_on_c, 4, 70, 0
6, 18180, Note_on_c, 4, 79, 0
6, 18540, Note_on_c, 4, 80, 71
6, 18540, Note_on_c, 4, 72, 61
6, 18555, Note_on_c, 4, 80, 0
6, 18555, Note_on_c, 4, 82, 80
6, 18558, Note_on_c, 4, 80, 84
6, 18559, Note_on_c, 4, 82, 0
6, 18562, Note_on_c, 4, 80, 0
6, 18562, Note_on_c, 4, 79, 80
6, 18565, Note_on_c, 4, 80, 84
6, 18566, Note_on_c, 4, 79, 0
6, 18569, Note_on_c, 4, 80, 0
6, 18570, Note_on_c, 4, 72, 0
6, 18570, Note_on_c, 4, 82, 74
6, 18570, Note_on_c, 4, 75, 84
6, 18585, Note_on_c, 4, 82, 0
6, 18585, Note_on_c, 4, 84, 67
6, 18600, Note_on_c, 4, 84, 0
6, 18600, Note_on_c, 4, 75, 0
6, 18600, Note_on_c, 4, 85, 77
6, 18600, Note_on_c, 4, 70, 85
6, 18615, Note_on_c, 4, 85, 0
6, 18615, Note_on_c, 4, 87, 86
6, 18620, Note_on_c, 4, 87, 0
6, 18620, Note_on_c, 4, 85, 84
6, 18625, Note_on_c, 4, 85, 0
6, 18625, Note_on_c, 4, 84, 84
6, 18630, Note_on_c, 4, 84, 0
6, 18630, Note_on_c, 4, 70, 0
6, 18630, Note_on_c, 4, 85, 84
6, 18630, Note_on_c, 4, 73, 80
6, 18635, Note_on_c, 4, 85, 0
6, 18645, Note_on_c, 4, 87, 90
6, 18660, Note_on_c, 4, 87, 0
6, 18660, Note_on_c, 4, 73, 0
6, 18660, Note_on_c, 4, 89, 86
6, 18660, Note_on_c, 4, 68, 86
6, 18675, Note_on_c, 4, 89, 0
6, 18690, Note_on_c, 4, 68, 0
6, 18690, Note_on_c, 4, 89, 85
6, 18690, Note_on_c, 4, 72, 80
6, 18705, Note_on_c, 4, 89, 0
6, 18720, Note_on_c, 4, 72, 0
6, 18720, Note_on_c, 4, 89, 85
6, 18720, Note_on_c, 4, 67, 77
6, 18750, Note_on_c, 4, 67, 0
6, 18750, Note_on_c, 4, 89, 0
6, 18750, Note_on_c, 4, 87, 74
6, 18750, Note_on_c, 4, 70, 76
6, 18765, Note_on_c, 4, 87, 0
6, 18780, Note_on_c, 4, 70, 0
6, 18780, Note_on_c, 4, 63, 74
6, 18810, Note_on_c, 4, 63, 0
6, 18810, Note_on_c, 4, 67, 68
6, 18825, Note_on_c, 4, 85, 80
6, 18840, Note_on_c, 4, 85, 0
6, 18840, Note_on_c, 4, 67, 0
6, 18840, Note_on_c, 4, 85, 80
6, 18840, Note_on_c, 4, 68, 86
6, 18870, Note_on_c, 4, 68, 0
6, 18870, Note_on_c, 4, 85, 0
6, 18870, Note_on_c, 4, 84, 81
6, 18870, Note_on_c, 4, 72, 80
6, 18885, Note_on_c, 4, 84, 0
6, 18900, Note_on_c, 4, 72, 0
6, 18900, Note_on_c, 4, 64, 81
6, 18930, Note_on_c, 4, 64, 0
6, 18930, Note_on_c, 4, 67, 82
6, 18945, Note_on_c, 4, 82, 81
6, 18960, Note_on_c, 4, 82, 0
6, 18960, Note_on_c, 4, 67, 0
6, 18960, Note_on_c, 4, 82, 85
6, 18960, Note_on_c, 4, 65, 84
6, 18975, Note_on_c, 4, 82, 0
6, 18975, Note_on_c, 4, 80, 72
6, 18990, Note_on_c, 4, 80, 0
6, 18990, Note_on_c, 4, 65, 0
6, 18990, Note_on_c, 4, 68, 68
6, 19005, Note_on_c, 4, 80, 89
6, 19020, Note_on_c, 4, 80, 0
6, 19020, Note_on_c, 4, 68, 0
6, 19020, Note_on_c, 4, 80, 86
6, 19020, Note_on_c, 4, 67, 72
6, 19035, Note_on_c, 4, 80, 0
6, 19035, Note_on_c, 4, 79, 86
6, 19050, Note_on_c, 4, 79, 0
6, 19050, Note_on_c, 4, 67, 0
6, 19050, Note_on_c, 4, 70, 74
6, 19065, Note_on_c, 4, 79, 89
6, 19080, Note_on_c, 4, 79, 0
6, 19080, Note_on_c, 4, 70, 0
6, 19080, Note_on_c, 4, 79, 77
6, 19080, Note_on_c, 4, 56, 84
6, 19095, Note_on_c, 4, 79, 0
6, 19095, Note_on_c, 4, 77, 86
6, 19110, Note_on_c, 4, 77, 0
6, 19110, Note_on_c, 4, 56, 0
6, 19110, Note_on_c, 4, 76, 85
6, 19110, Note_on_c, 4, 60, 89
6, 19125, Note_on_c, 4, 76, 0
6, 19125, Note_on_c, 4, 77, 89
6, 19140, Note_on_c, 4, 77, 0
6, 19140, Note_on_c, 4, 60, 0
6, 19140, Note_on_c, 4, 80, 81
6, 19140, Note_on_c, 4, 65, 73
6, 19170, Note_on_c, 4, 65, 0
6, 19170, Note_on_c, 4, 80, 0
6, 19170, Note_on_c, 4, 77, 89
6, 19170, Note_on_c, 4, 68, 73
6, 19200, Note_on_c, 4, 68, 0
6, 19200, Note_on_c, 4, 77, 0
6, 19200, Note_on_c, 4, 58, 80
6, 19215, Note_on_c, 4, 75, 95
6, 19230, Note_on_c, 4, 75, 0
6, 19230, Note_on_c, 4, 58, 0
6, 19230, Note_on_c, 4, 74, 95
6, 19230, Note_on_c, 4, 67, 65
6, 19245, Note_on_c, 4, 74, 0
6, 19245, Note_on_c, 4, 75, 95
6, 19260, Note_on_c, 4, 75, 0
6, 19260, Note_on_c, 4, 67, 0
6, 19260, Note_on_c, 4, 79, 73
6, 19260, Note_on_c, 4, 63, 73
6, 19290, Note_on_c, 4, 63, 0
6, 19290, Note_on_c, 4, 79, 0
6, 19290, Note_on_c, 4, 75, 89
6, 19290, Note_on_c, 4, 67, 73
6, 19320, Note_on_c, 4, 67, 0
6, 19320, Note_on_c, 4, 75, 0
6, 19320, Note_on_c, 4, 56, 85
6, 19335, Note_on_c, 4, 74, 90
6, 19350, Note_on_c, 4, 74, 0
6, 19350, Note_on_c, 4, 56, 0
6, 19350, Note_on_c, 4, 73, 80
6, 19350, Note_on_c, 4, 65, 62
6, 19365, Note_on_c, 4, 73, 0
6, 19365, Note_on_c, 4, 74, 95
6, 19380, Note_on_c, 4, 74, 0
6, 19380, Note_on_c, 4, 65, 0
6, 19380, Note_on_c, 4, 77, 81
6, 19380, Note_on_c, 4, 58, 72
6, 19410, Note_on_c, 4, 58, 0
6, 19410, Note_on_c, 4, 77, 0
6, 19410, Note_on_c, 4, 74, 98
6, 19410, Note_on_c, 4, 65, 74
6, 19440, Note_on_c, 4, 65, 0
6, 19440, Note_on_c, 4, 74, 0
6, 19440, Note_on_c, 4, 82, 84
6, 19470, Note_on_c, 4, 43, 76
6, 19500, Note_on_c, 4, 43, 0
6, 19500, Note_on_c, 4, 82, 0
6, 19500, Note_on_c, 4, 84, 82
6, 19500, Note_on_c, 4, 46, 89
6, 19515, Note_on_c, 4, 84, 0
6, 19515, Note_on_c, 4, 82, 86
6, 19530, Note_on_c, 4, 82, 0
6, 19530, Note_on_c, 4, 46, 0
6, 19530, Note_on_c, 4, 81, 86
6, 19530, Note_on_c, 4, 51, 84
6, 19545, Note_on_c, 4, 81, 0
6, 19545, Note_on_c, 4, 82, 85
6, 19560, Note_on_c, 4, 82, 0
6, 19560, Note_on_c, 4, 51, 0
6, 19560, Note_on_c, 4, 84, 78
6, 19560, Note_on_c, 4, 55, 71
6, 19590, Note_on_c, 4, 84, 0
6, 19590, Note_on_c, 4, 82, 84
6, 19620, Note_on_c, 4, 82, 0
6, 19620, Note_on_c, 4, 55, 0
6, 19620, Note_on_c, 4, 80, 85
6, 19650, Note_on_c, 4, 80, 0
6, 19650, Note_on_c, 4, 79, 80
6, 19680, Note_on_c, 4, 79, 0
6, 19680, Note_on_c, 4, 80, 73
6, 19710, Note_on_c, 4, 80, 0
6, 19710, Note_on_c, 4, 79, 45
6, 19740, Note_on_c, 4, 79, 0
6, 19740, Note_on_c, 4, 77, 84
6, 19770, Note_on_c, 4, 77, 0
6, 19770, Note_on_c, 4, 75, 90
6, 19800, Note_on_c, 4, 75, 0
6, 19800, Note_on_c, 4, 74, 90
6, 19830, Note_on_c, 4, 44, 82
6, 19860, Note_on_c, 4, 44, 0
6, 19860, Note_on_c, 4, 74, 0
6, 19860, Note_on_c, 4, 72, 68
6, 19860, Note_on_c, 4, 48, 94
6, 19890, Note_on_c, 4, 48, 0
6, 19890, Note_on_c, 4, 51, 89
6, 19920, Note_on_c, 4, 51, 0
6, 19920, Note_on_c, 4, 56, 73
6, 19950, Note_on_c, 4, 72, 0
6, 19950, Note_on_c, 4, 74, 94
6, 19980, Note_on_c, 4, 74, 0
6, 19980, Note_on_c, 4, 56, 0
6, 19980, Note_on_c, 4, 75, 89
6, 20010, Note_on_c, 4, 75, 0
6, 20010, Note_on_c, 4, 74, 94
6, 20040, Note_on_c, 4, 74, 0
6, 20040, Note_on_c, 4, 77, 76
6, 20070, Note_on_c, 4, 77, 0
6, 20070, Note_on_c, 4, 75, 93
6, 20100, Note_on_c, 4, 75, 0
6, 20100, Note_on_c, 4, 74, 90
6, 20130, Note_on_c, 4, 74, 0
6, 20130, Note_on_c, 4, 72, 80
6, 20160, Note_on_c, 4, 72, 0
6, 20160, Note_on_c, 4, 69, 86
6, 20190, Note_on_c, 4, 46, 78
6, 20220, Note_on_c, 4, 46, 0
6, 20220, Note_on_c, 4, 69, 0
6, 20220, Note_on_c, 4, 70, 84
6, 20220, Note_on_c, 4, 51, 77
6, 20250, Note_on_c, 4, 51, 0
6, 20250, Note_on_c, 4, 55, 60
6, 20280, Note_on_c, 4, 55, 0
6, 20280, Note_on_c, 4, 51, 68
6, 20280, Note_on_c, 4, 46, 71
6, 20310, Note_on_c, 4, 51, 0
6, 20310, Note_on_c, 4, 70, 0
6, 20310, Note_on_c, 4, 71, 80
6, 20310, Note_on_c, 4, 55, 62
6, 20340, Note_on_c, 4, 55, 0
6, 20340, Note_on_c, 4, 71, 0
6, 20340, Note_on_c, 4, 46, 0
6, 20340, Note_on_c, 4, 72, 61
6, 20340, Note_on_c, 4, 51, 84
6, 20340, Note_on_c, 4, 46, 73
6, 20370, Note_on_c, 4, 51, 0
6, 20370, Note_on_c, 4, 72, 0
6, 20370, Note_on_c, 4, 70, 78
6, 20370, Note_on_c, 4, 55, 64
6, 20400, Note_on_c, 4, 55, 0
6, 20400, Note_on_c, 4, 70, 0
6, 20400, Note_on_c, 4, 46, 0
6, 20400, Note_on_c, 4, 70, 81
6, 20400, Note_on_c, 4, 50, 76
6, 20400, Note_on_c, 4, 47, 76
6, 20430, Note_on_c, 4, 50, 0
6, 20430, Note_on_c, 4, 70, 0
6, 20430, Note_on_c, 4, 68, 80
6, 20430, Note_on_c, 4, 53, 78
6, 20460, Note_on_c, 4, 53, 0
6, 20460, Note_on_c, 4, 68, 0
6, 20460, Note_on_c, 4, 47, 0
6, 20460, Note_on_c, 4, 67, 80
6, 20460, Note_on_c, 4, 50, 74
6, 20460, Note_on_c, 4, 47, 74
6, 20490, Note_on_c, 4, 50, 0
6, 20490, Note_on_c, 4, 67, 0
6, 20490, Note_on_c, 4, 68, 82
6, 20490, Note_on_c, 4, 53, 68
6, 20505, Note_on_c, 4, 68, 0
6, 20505, Note_on_c, 4, 67, 65
6, 20510, Note_on_c, 4, 67, 0
6, 20510, Note_on_c, 4, 68, 81
6, 20515, Note_on_c, 4, 68, 0
6, 20515, Note_on_c, 4, 70, 93
6, 20520, Note_on_c, 4, 70, 0
6, 20520, Note_on_c, 4, 53, 0
6, 20520, Note_on_c, 4, 47, 0
6, 20520, Note_on_c, 4, 68, 81
6, 20560, Note_on_c, 4, 68, 0
6, 20560, Note_on_c, 4, 67, 81
6, 20580, Note_on_c, 4, 55, 66
6, 20580, Note_on_c, 4, 51, 65
6, 20600, Note_on_c, 4, 67, 0
6, 20640, Note_on_c, 4, 51, 0
6, 20640, Note_on_c, 4, 55, 0
6, 20640, Note_on_c, 4, 53, 59
6, 20640, Note_on_c, 4, 50, 73
6, 20655, Note_on_c, 4, 51, 81
6, 20663, Note_on_c, 4, 51, 0
6, 20670, Note_on_c, 4, 53, 84
6, 20678, Note_on_c, 4, 53, 0
6, 20685, Note_on_c, 4, 55, 82
6, 20693, Note_on_c, 4, 55, 0
6, 20700, Note_on_c, 4, 53, 0
6, 20700, Note_on_c, 4, 50, 0
6, 20700, Note_on_c, 4, 56, 90
6, 20700, Note_on_c, 4, 55, 72
6, 20700, Note_on_c, 4, 51, 82
6, 20708, Note_on_c, 4, 56, 0
6, 20715, Note_on_c, 4, 58, 86
6, 20723, Note_on_c, 4, 58, 0
6, 20730, Note_on_c, 4, 60, 95
6, 20738, Note_on_c, 4, 60, 0
6, 20745, Note_on_c, 4, 62, 89
6, 20753, Note_on_c, 4, 62, 0
6, 20760, Note_on_c, 4, 51, 0
6, 20760, Note_on_c, 4, 55, 0
6, 20760, Note_on_c, 4, 63, 89
6, 20760, Note_on_c, 4, 50, 85
6, 20760, Note_on_c, 4, 46, 84
6, 20765, Note_on_c, 4, 63, 0
6, 20770, Note_on_c, 4, 65, 93
6, 20775, Note_on_c, 4, 65, 0
6, 20780, Note_on_c, 4, 67, 89
6, 20785, Note_on_c, 4, 67, 0
6, 20790, Note_on_c, 4, 68, 89
6, 20795, Note_on_c, 4, 68, 0
6, 20800, Note_on_c, 4, 70, 89
6, 20805, Note_on_c, 4, 70, 0
6, 20810, Note_on_c, 4, 72, 93
6, 20815, Note_on_c, 4, 72, 0
6, 20820, Note_on_c, 4, 46, 0
6, 20820, Note_on_c, 4, 50, 0
6, 20820, Note_on_c, 4, 74, 99
6, 20820, Note_on_c, 4, 48, 73
6, 20820, Note_on_c, 4, 44, 76
6, 20827, Note_on_c, 4, 75, 99
6, 20828, Note_on_c, 4, 74, 0
6, 20835, Note_on_c, 4, 75, 0
6, 20835, Note_on_c, 4, 77, 99
6, 20842, Note_on_c, 4, 79, 89
6, 20843, Note_on_c, 4, 77, 0
6, 20850, Note_on_c, 4, 79, 0
6, 20850, Note_on_c, 4, 80, 99
6, 20857, Note_on_c, 4, 82, 94
6, 20858, Note_on_c, 4, 80, 0
6, 20865, Note_on_c, 4, 82, 0
6, 20865, Note_on_c, 4, 84, 95
6, 20872, Note_on_c, 4, 86, 105
6, 20873, Note_on_c, 4, 84, 0
6, 20880, Note_on_c, 4, 48, 0
6, 20880, Note_on_c, 4, 44, 0
6, 20880, Note_on_c, 4, 86, 0
6, 20880, Note_on_c, 4, 87, 105
6, 20880, Note_on_c, 4, 31, 104
6, 20890, Note_on_c, 4, 31, 0
6, 20900, Note_on_c, 4, 34, 94
6, 20910, Note_on_c, 4, 34, 0
6, 20920, Note_on_c, 4, 39, 80
6, 20930, Note_on_c, 4, 39, 0
6, 20940, Note_on_c, 4, 43, 93
6, 20950, Note_on_c, 4, 43, 0
6, 20960, Note_on_c, 4, 46, 86
6, 20970, Note_on_c, 4, 46, 0
6, 20980, Note_on_c, 4, 51, 68
6, 20990, Note_on_c, 4, 51, 0
6, 21000, Note_on_c, 4, 87, 0
6, 21000, Note_on_c, 4, 86, 84
6, 21000, Note_on_c, 4, 55, 80
6, 21015, Note_on_c, 4, 86, 0
6, 21015, Note_on_c, 4, 87, 84
6, 21030, Note_on_c, 4, 87, 0
6, 21030, Note_on_c, 4, 86, 93
6, 21045, Note_on_c, 4, 86, 0
6, 21045, Note_on_c, 4, 87, 89
6, 21060, Note_on_c, 4, 87, 0
6, 21060, Note_on_c, 4, 55, 0
6, 21060, Note_on_c, 4, 86, 93
6, 21075, Note_on_c, 4, 86, 0
6, 21075, Note_on_c, 4, 87, 89
6, 21090, Note_on_c, 4, 87, 0
6, 21090, Note_on_c, 4, 86, 86
6, 21105, Note_on_c, 4, 86, 0
6, 21105, Note_on_c, 4, 87, 86
6, 21120, Note_on_c, 4, 87, 0
6, 21120, Note_on_c, 4, 89, 85
6, 21135, Note_on_c, 4, 89, 0
6, 21135, Note_on_c, 4, 87, 90
6, 21150, Note_on_c, 4, 87, 0
6, 21150, Note_on_c, 4, 86, 89
6, 21165, Note_on_c, 4, 86, 0
6, 21165, Note_on_c, 4, 84, 89
6, 21180, Note_on_c, 4, 84, 0
6, 21180, Note_on_c, 4, 84, 72
6, 21195, Note_on_c, 4, 84, 0
6, 21195, Note_on_c, 4, 82, 84
6, 21210, Note_on_c, 4, 82, 0
6, 21210, Note_on_c, 4, 80, 84
6, 21225, Note_on_c, 4, 80, 0
6, 21225, Note_on_c, 4, 79, 80
6, 21240, Note_on_c, 4, 79, 0
6, 21240, Note_on_c, 4, 83, 84
6, 21240, Note_on_c, 4, 32, 84
6, 21250, Note_on_c, 4, 32, 0
6, 21260, Note_on_c, 4, 36, 94
6, 21270, Note_on_c, 4, 36, 0
6, 21280, Note_on_c, 4, 39, 73
6, 21290, Note_on_c, 4, 39, 0
6, 21300, Note_on_c, 4, 83, 0
6, 21300, Note_on_c, 4, 84, 73
6, 21300, Note_on_c, 4, 44, 81
6, 21310, Note_on_c, 4, 44, 0
6, 21320, Note_on_c, 4, 48, 82
6, 21330, Note_on_c, 4, 48, 0
6, 21340, Note_on_c, 4, 51, 68
6, 21350, Note_on_c, 4, 51, 0
6, 21360, Note_on_c, 4, 56, 78
6, 21390, Note_on_c, 4, 84, 0
6, 21390, Note_on_c, 4, 86, 82
6, 21397, Note_on_c, 4, 84, 82
6, 21398, Note_on_c, 4, 86, 0
6, 21405, Note_on_c, 4, 84, 0
6, 21405, Note_on_c, 4, 83, 84
6, 21412, Note_on_c, 4, 84, 89
6, 21413, Note_on_c, 4, 83, 0
6, 21420, Note_on_c, 4, 84, 0
6, 21420, Note_on_c, 4, 56, 0
6, 21420, Note_on_c, 4, 87, 84
6, 21450, Note_on_c, 4, 87, 0
6, 21450, Note_on_c, 4, 86, 82
6, 21480, Note_on_c, 4, 86, 0
6, 21480, Note_on_c, 4, 89, 80
6, 21510, Note_on_c, 4, 89, 0
6, 21510, Note_on_c, 4, 87, 85
6, 21540, Note_on_c, 4, 87, 0
6, 21540, Note_on_c, 4, 86, 86
6, 21540, Note_on_c, 4, 65, 66
6, 21540, Note_on_c, 4, 63, 64
6, 21540, Note_on_c, 4, 57, 84
6, 21570, Note_on_c, 4, 86, 0
6, 21570, Note_on_c, 4, 84, 76
6, 21600, Note_on_c, 4, 84, 0
6, 21600, Note_on_c, 4, 57, 0
6, 21600, Note_on_c, 4, 63, 0
6, 21600, Note_on_c, 4, 65, 0
6, 21600, Note_on_c, 4, 82, 77
6, 21600, Note_on_c, 4, 67, 44
6, 21600, Note_on_c, 4, 63, 48
6, 21600, Note_on_c, 4, 58, 65
6, 21620, Note_on_c, 4, 82, 0
6, 21620, Note_on_c, 4, 87, 72
6, 21640, Note_on_c, 4, 87, 0
6, 21640, Note_on_c, 4, 86, 86
6, 21660, Note_on_c, 4, 86, 0
6, 21660, Note_on_c, 4, 67, 0
6, 21660, Note_on_c, 4, 63, 0
6, 21660, Note_on_c, 4, 58, 0
6, 21660, Note_on_c, 4, 84, 74
6, 21680, Note_on_c, 4, 84, 0
6, 21680, Note_on_c, 4, 82, 78
6, 21700, Note_on_c, 4, 82, 0
6, 21700, Note_on_c, 4, 81, 76
6, 21720, Note_on_c, 4, 81, 0
6, 21720, Note_on_c, 4, 82, 76
6, 21740, Note_on_c, 4, 82, 0
6, 21740, Note_on_c, 4, 87, 74
6, 21760, Note_on_c, 4, 87, 0
6, 21760, Note_on_c, 4, 86, 84
6, 21780, Note_on_c, 4, 86, 0
6, 21780, Note_on_c, 4, 84, 82
6, 21800, Note_on_c, 4, 84, 0
6, 21800, Note_on_c, 4, 82, 76
6, 21820, Note_on_c, 4, 82, 0
6, 21820, Note_on_c, 4, 81, 71
6, 21840, Note_on_c, 4, 81, 0
6, 21840, Note_on_c, 4, 82, 78
6, 21860, Note_on_c, 4, 82, 0
6, 21860, Note_on_c, 4, 84, 71
6, 21860, Note_on_c, 4, 75, 71
6, 21880, Note_on_c, 4, 75, 0
6, 21880, Note_on_c, 4, 84, 0
6, 21880, Note_on_c, 4, 82, 73
6, 21880, Note_on_c, 4, 74, 94
6, 21900, Note_on_c, 4, 74, 0
6, 21900, Note_on_c, 4, 82, 0
6, 21900, Note_on_c, 4, 80, 78
6, 21900, Note_on_c, 4, 72, 73
6, 21920, Note_on_c, 4, 72, 0
6, 21920, Note_on_c, 4, 80, 0
6, 21920, Note_on_c, 4, 79, 62
6, 21920, Note_on_c, 4, 70, 85
6, 21940, Note_on_c, 4, 70, 0
6, 21940, Note_on_c, 4, 79, 0
6, 21940, Note_on_c, 4, 78, 72
6, 21940, Note_on_c, 4, 69, 81
6, 21960, Note_on_c, 4, 69, 0
6, 21960, Note_on_c, 4, 78, 0
6, 21960, Note_on_c, 4, 79, 84
6, 21960, Note_on_c, 4, 70, 78
6, 21980, Note_on_c, 4, 70, 0
6, 21980, Note_on_c, 4, 79, 0
6, 21980, Note_on_c, 4, 80, 65
6, 21980, Note_on_c, 4, 75, 76
6, 21980, Note_on_c, 4, 72, 66
6, 22000, Note_on_c, 4, 72, 0
6, 22000, Note_on_c, 4, 75, 0
6, 22000, Note_on_c, 4, 80, 0
6, 22000, Note_on_c, 4, 79, 73
6, 22000, Note_on_c, 4, 74, 74
6, 22000, Note_on_c, 4, 70, 85
6, 22020, Note_on_c, 4, 70, 0
6, 22020, Note_on_c, 4, 74, 0
6, 22020, Note_on_c, 4, 79, 0
6, 22020, Note_on_c, 4, 77, 84
6, 22020, Note_on_c, 4, 72, 44
6, 22020, Note_on_c, 4, 68, 84
6, 22040, Note_on_c, 4, 68, 0
6, 22040, Note_on_c, 4, 72, 0
6, 22040, Note_on_c, 4, 77, 0
6, 22040, Note_on_c, 4, 75, 84
6, 22040, Note_on_c, 4, 70, 76
6, 22040, Note_on_c, 4, 67, 72
6, 22060, Note_on_c, 4, 67, 0
6, 22060, Note_on_c, 4, 70, 0
6, 22060, Note_on_c, 4, 75, 0
6, 22060, Note_on_c, 4, 74, 94
6, 22060, Note_on_c, 4, 68, 70
6, 22060, Note_on_c, 4, 65, 73
6, 22080, Note_on_c, 4, 65, 0
6, 22080, Note_on_c, 4, 68, 0
6, 22080, Note_on_c, 4, 74, 0
6, 22080, Note_on_c, 4, 75, 94
6, 22080, Note_on_c, 4, 70, 82
6, 22080, Note_on_c, 4, 67, 72
6, 22100, Note_on_c, 4, 67, 0
6, 22100, Note_on_c, 4, 70, 0
6, 22100, Note_on_c, 4, 75, 0
6, 22100, Note_on_c, 4, 77, 84
6, 22100, Note_on_c, 4, 68, 82
6, 22120, Note_on_c, 4, 68, 0
6, 22120, Note_on_c, 4, 77, 0
6, 22120, Note_on_c, 4, 75, 86
6, 22120, Note_on_c, 4, 70, 76
6, 22120, Note_on_c, 4, 67, 73
6, 22140, Note_on_c, 4, 67, 0
6, 22140, Note_on_c, 4, 70, 0
6, 22140, Note_on_c, 4, 75, 0
6, 22140, Note_on_c, 4, 74, 99
6, 22140, Note_on_c, 4, 68, 74
6, 22140, Note_on_c, 4, 65, 89
6, 22160, Note_on_c, 4, 65, 0
6, 22160, Note_on_c, 4, 68, 0
6, 22160, Note_on_c, 4, 74, 0
6, 22160, Note_on_c, 4, 72, 65
6, 22160, Note_on_c, 4, 67, 45
6, 22160, Note_on_c, 4, 63, 84
6, 22180, Note_on_c, 4, 63, 0
6, 22180, Note_on_c, 4, 67, 0
6, 22180, Note_on_c, 4, 72, 0
6, 22180, Note_on_c, 4, 71, 80
6, 22180, Note_on_c, 4, 65, 65
6, 22180, Note_on_c, 4, 62, 77
6, 22200, Note_on_c, 4, 62, 0
6, 22200, Note_on_c, 4, 65, 0
6, 22200, Note_on_c, 4, 71, 0
6, 22200, Note_on_c, 4, 72, 58
6, 22200, Note_on_c, 4, 67, 69
6, 22200, Note_on_c, 4, 63, 89
6, 22220, Note_on_c, 4, 63, 0
6, 22220, Note_on_c, 4, 67, 0
6, 22220, Note_on_c, 4, 72, 0
6, 22220, Note_on_c, 4, 73, 84
6, 22220, Note_on_c, 4, 68, 80
6, 22220, Note_on_c, 4, 65, 74
6, 22240, Note_on_c, 4, 65, 0
6, 22240, Note_on_c, 4, 68, 0
6, 22240, Note_on_c, 4, 73, 0
6, 22240, Note_on_c, 4, 72, 53
6, 22240, Note_on_c, 4, 67, 77
6, 22240, Note_on_c, 4, 63, 84
6, 22260, Note_on_c, 4, 63, 0
6, 22260, Note_on_c, 4, 67, 0
6, 22260, Note_on_c, 4, 72, 0
6, 22260, Note_on_c, 4, 70, 90
6, 22260, Note_on_c, 4, 65, 78
6, 22260, Note_on_c, 4, 61, 80
6, 22280, Note_on_c, 4, 61, 0
6, 22280, Note_on_c, 4, 65, 0
6, 22280, Note_on_c, 4, 70, 0
6, 22280, Note_on_c, 4, 68, 77
6, 22280, Note_on_c, 4, 63, 72
6, 22280, Note_on_c, 4, 60, 84
6, 22300, Note_on_c, 4, 60, 0
6, 22300, Note_on_c, 4, 63, 0
6, 22300, Note_on_c, 4, 68, 0
6, 22300, Note_on_c, 4, 67, 89
6, 22300, Note_on_c, 4, 61, 72
6, 22300, Note_on_c, 4, 58, 74
6, 22320, Note_on_c, 4, 58, 0
6, 22320, Note_on_c, 4, 61, 0
6, 22320, Note_on_c, 4, 67, 0
6, 22320, Note_on_c, 4, 68, 85
6, 22320, Note_on_c, 4, 63, 78
6, 22320, Note_on_c, 4, 60, 77
6, 22340, Note_on_c, 4, 60, 0
6, 22340, Note_on_c, 4, 68, 0
6, 22340, Note_on_c, 4, 70, 90
6, 22340, Note_on_c, 4, 54, 84
6, 22360, Note_on_c, 4, 54, 0
6, 22360, Note_on_c, 4, 70, 0
6, 22360, Note_on_c, 4, 69, 93
6, 22360, Note_on_c, 4, 53, 72
6, 22380, Note_on_c, 4, 53, 0
6, 22380, Note_on_c, 4, 69, 0
6, 22380, Note_on_c, 4, 63, 0
6, 22380, Note_on_c, 4, 72, 57
6, 22380, Note_on_c, 4, 63, 62
6, 22380, Note_on_c, 4, 57, 90
6, 22400, Note_on_c, 4, 57, 0
6, 22400, Note_on_c, 4, 63, 0
6, 22400, Note_on_c, 4, 72, 0
6, 22400, Note_on_c, 4, 69, 81
6, 22400, Note_on_c, 4, 63, 68
6, 22400, Note_on_c, 4, 60, 86
6, 22420, Note_on_c, 4, 60, 0
6, 22420, Note_on_c, 4, 63, 0
6, 22420, Note_on_c, 4, 69, 0
6, 22420, Note_on_c, 4, 70, 85
6, 22420, Note_on_c, 4, 65, 69
6, 22420, Note_on_c, 4, 61, 80
6, 22440, Note_on_c, 4, 61, 0
6, 22440, Note_on_c, 4, 65, 0
6, 22440, Note_on_c, 4, 70, 0
6, 22440, Note_on_c, 4, 71, 81
6, 22440, Note_on_c, 4, 65, 84
6, 22440, Note_on_c, 4, 62, 77
6, 22460, Note_on_c, 4, 62, 0
6, 22460, Note_on_c, 4, 71, 0
6, 22460, Note_on_c, 4, 72, 50
6, 22460, Note_on_c, 4, 56, 80
6, 22480, Note_on_c, 4, 56, 0
6, 22480, Note_on_c, 4, 72, 0
6, 22480, Note_on_c, 4, 71, 80
6, 22480, Note_on_c, 4, 55, 81
6, 22500, Note_on_c, 4, 55, 0
6, 22500, Note_on_c, 4, 71, 0
6, 22500, Note_on_c, 4, 65, 0
6, 22500, Note_on_c, 4, 74, 81
6, 22500, Note_on_c, 4, 65, 74
6, 22500, Note_on_c, 4, 59, 93
6, 22520, Note_on_c, 4, 59, 0
6, 22520, Note_on_c, 4, 65, 0
6, 22520, Note_on_c, 4, 74, 0
6, 22520, Note_on_c, 4, 71, 77
6, 22520, Note_on_c, 4, 65, 93
6, 22520, Note_on_c, 4, 62, 86
6, 22540, Note_on_c, 4, 62, 0
6, 22540, Note_on_c, 4, 65, 0
6, 22540, Note_on_c, 4, 71, 0
6, 22540, Note_on_c, 4, 72, 61
6, 22540, Note_on_c, 4, 67, 77
6, 22540, Note_on_c, 4, 63, 86
6, 22560, Note_on_c, 4, 63, 0
6, 22560, Note_on_c, 4, 67, 0
6, 22560, Note_on_c, 4, 72, 0
6, 22560, Note_on_c, 4, 74, 80
6, 22560, Note_on_c, 4, 68, 80
6, 22560, Note_on_c, 4, 65, 65
6, 22580, Note_on_c, 4, 65, 0
6, 22580, Note_on_c, 4, 74, 0
6, 22580, Note_on_c, 4, 75, 85
6, 22580, Note_on_c, 4, 70, 86
6, 22580, Note_on_c, 4, 59, 84
6, 22590, Note_on_c, 4, 70, 0
6, 22600, Note_on_c, 4, 59, 0
6, 22600, Note_on_c, 4, 75, 0
6, 22600, Note_on_c, 4, 74, 86
6, 22600, Note_on_c, 4, 58, 81
6, 22620, Note_on_c, 4, 58, 0
6, 22620, Note_on_c, 4, 74, 0
6, 22620, Note_on_c, 4, 68, 0
6, 22620, Note_on_c, 4, 77, 80
6, 22620, Note_on_c, 4, 68, 45
6, 22620, Note_on_c, 4, 62, 82
6, 22640, Note_on_c, 4, 62, 0
6, 22640, Note_on_c, 4, 68, 0
6, 22640, Note_on_c, 4, 77, 0
6, 22640, Note_on_c, 4, 74, 80
6, 22640, Note_on_c, 4, 68, 86
6, 22640, Note_on_c, 4, 65, 84
6, 22660, Note_on_c, 4, 65, 0
6, 22660, Note_on_c, 4, 68, 0
6, 22660, Note_on_c, 4, 74, 0
6, 22660, Note_on_c, 4, 75, 85
6, 22660, Note_on_c, 4, 70, 84
6, 22660, Note_on_c, 4, 67, 71
6, 22680, Note_on_c, 4, 67, 0
6, 22680, Note_on_c, 4, 70, 0
6, 22680, Note_on_c, 4, 75, 0
6, 22680, Note_on_c, 4, 76, 89
6, 22680, Note_on_c, 4, 70, 71
6, 22680, Note_on_c, 4, 67, 77
6, 22700, Note_on_c, 4, 67, 0
6, 22700, Note_on_c, 4, 70, 0
6, 22700, Note_on_c, 4, 76, 0
6, 22700, Note_on_c, 4, 79, 80
6, 22700, Note_on_c, 4, 73, 80
6, 22700, Note_on_c, 4, 70, 82
6, 22720, Note_on_c, 4, 70, 0
6, 22720, Note_on_c, 4, 73, 0
6, 22720, Note_on_c, 4, 79, 0
6, 22720, Note_on_c, 4, 77, 80
6, 22720, Note_on_c, 4, 72, 36
6, 22720, Note_on_c, 4, 68, 85
6, 22740, Note_on_c, 4, 68, 0
6, 22740, Note_on_c, 4, 72, 0
6, 22740, Note_on_c, 4, 77, 0
6, 22740, Note_on_c, 4, 78, 76
6, 22740, Note_on_c, 4, 72, 52
6, 22740, Note_on_c, 4, 69, 82
6, 22760, Note_on_c, 4, 69, 0
6, 22760, Note_on_c, 4, 72, 0
6, 22760, Note_on_c, 4, 78, 0
6, 22760, Note_on_c, 4, 80, 80
6, 22760, Note_on_c, 4, 75, 94
6, 22760, Note_on_c, 4, 72, 78
6, 22780, Note_on_c, 4, 72, 0
6, 22780, Note_on_c, 4, 75, 0
6, 22780, Note_on_c, 4, 80, 0
6, 22780, Note_on_c, 4, 79, 93
6, 22780, Note_on_c, 4, 73, 76
6, 22780, Note_on_c, 4, 70, 86
6, 22800, Note_on_c, 4, 70, 0
6, 22800, Note_on_c, 4, 73, 0
6, 22800, Note_on_c, 4, 79, 0
6, 22800, Note_on_c, 4, 79, 81
6, 22800, Note_on_c, 4, 76, 80
6, 22800, Note_on_c, 4, 73, 80
6, 22820, Note_on_c, 4, 73, 0
6, 22820, Note_on_c, 4, 76, 0
6, 22820, Note_on_c, 4, 79, 0
6, 22820, Note_on_c, 4, 82, 82
6, 22820, Note_on_c, 4, 73, 76
6, 22820, Note_on_c, 4, 70, 86
6, 22840, Note_on_c, 4, 70, 0
6, 22840, Note_on_c, 4, 73, 0
6, 22840, Note_on_c, 4, 82, 0
6, 22840, Note_on_c, 4, 80, 82
6, 22840, Note_on_c, 4, 75, 94
6, 22840, Note_on_c, 4, 72, 62
6, 22860, Note_on_c, 4, 72, 0
6, 22860, Note_on_c, 4, 75, 0
6, 22860, Note_on_c, 4, 80, 0
6, 22860, Note_on_c, 4, 81, 84
6, 22860, Note_on_c, 4, 78, 80
6, 22860, Note_on_c, 4, 75, 89
6, 22880, Note_on_c, 4, 75, 0
6, 22880, Note_on_c, 4, 78, 0
6, 22880, Note_on_c, 4, 81, 0
6, 22880, Note_on_c, 4, 84, 86
6, 22880, Note_on_c, 4, 75, 84
6, 22880, Note_on_c, 4, 72, 68
6, 22900, Note_on_c, 4, 72, 0
6, 22900, Note_on_c, 4, 75, 0
6, 22900, Note_on_c, 4, 84, 0
6, 22900, Note_on_c, 4, 82, 80
6, 22900, Note_on_c, 4, 77, 76
6, 22900, Note_on_c, 4, 74, 93
6, 22920, Note_on_c, 4, 74, 0
6, 22920, Note_on_c, 4, 77, 0
6, 22920, Note_on_c, 4, 82, 0
6, 22920, Note_on_c, 4, 83, 80
6, 22920, Note_on_c, 4, 80, 68
6, 22920, Note_on_c, 4, 77, 76
6, 22940, Note_on_c, 4, 77, 0
6, 22940, Note_on_c, 4, 80, 0
6, 22940, Note_on_c, 4, 83, 0
6, 22940, Note_on_c, 4, 86, 82
6, 22940, Note_on_c, 4, 77, 80
6, 22940, Note_on_c, 4, 74, 93
6, 22960, Note_on_c, 4, 74, 0
6, 22960, Note_on_c, 4, 77, 0
6, 22960, Note_on_c, 4, 86, 0
6, 22960, Note_on_c, 4, 84, 84
6, 22960, Note_on_c, 4, 79, 74
6, 22960, Note_on_c, 4, 75, 89
6, 22980, Note_on_c, 4, 75, 0
6, 22980, Note_on_c, 4, 79, 0
6, 22980, Note_on_c, 4, 84, 0
6, 22980, Note_on_c, 4, 85, 78
6, 22980, Note_on_c, 4, 79, 78
6, 22980, Note_on_c, 4, 76, 93
6, 23000, Note_on_c, 4, 76, 0
6, 23000, Note_on_c, 4, 79, 0
6, 23000, Note_on_c, 4, 85, 0
6, 23000, Note_on_c, 4, 87, 82
6, 23000, Note_on_c, 4, 82, 84
6, 23000, Note_on_c, 4, 79, 73
6, 23020, Note_on_c, 4, 79, 0
6, 23020, Note_on_c, 4, 82, 0
6, 23020, Note_on_c, 4, 87, 0
6, 23020, Note_on_c, 4, 86, 98
6, 23020, Note_on_c, 4, 80, 74
6, 23020, Note_on_c, 4, 77, 89
6, 23040, Note_on_c, 4, 77, 0
6, 23040, Note_on_c, 4, 80, 0
6, 23040, Note_on_c, 4, 86, 0
6, 23040, Note_on_c, 4, 87, 94
6, 23040, Note_on_c, 4, 78, 78
6, 23040, Note_on_c, 4, 75, 98
6, 23060, Note_on_c, 4, 75, 0
6, 23060, Note_on_c, 4, 78, 0
6, 23060, Note_on_c, 4, 87, 0
6, 23060, Note_on_c, 4, 78, 84
6, 23060, Note_on_c, 4, 75, 84
6, 23070, Note_on_c, 4, 75, 0
6, 23070, Note_on_c, 4, 78, 0
6, 23080, Note_on_c, 4, 78, 86
6, 23080, Note_on_c, 4, 75, 85
6, 23090, Note_on_c, 4, 75, 0
6, 23090, Note_on_c, 4, 78, 0
6, 23100, Note_on_c, 4, 78, 82
6, 23100, Note_on_c, 4, 75, 86
6, 23100, Note_on_c, 4, 69, 86
6, 23100, Note_on_c, 4, 57, 98
6, 23110, Note_on_c, 4, 75, 0
6, 23110, Note_on_c, 4, 78, 0
6, 23120, Note_on_c, 4, 78, 89
6, 23120, Note_on_c, 4, 75, 94
6, 23130, Note_on_c, 4, 75, 0
6, 23130, Note_on_c, 4, 78, 0
6, 23140, Note_on_c, 4, 78, 86
6, 23140, Note_on_c, 4, 75, 89
6, 23150, Note_on_c, 4, 75, 0
6, 23150, Note_on_c, 4, 78, 0
6, 23160, Note_on_c, 4, 69, 0
6, 23160, Note_on_c, 4, 57, 0
6, 23160, Note_on_c, 4, 78, 77
6, 23160, Note_on_c, 4, 75, 73
6, 23170, Note_on_c, 4, 75, 0
6, 23170, Note_on_c, 4, 78, 0
6, 23180, Note_on_c, 4, 78, 76
6, 23180, Note_on_c, 4, 75, 77
6, 23190, Note_on_c, 4, 75, 0
6, 23190, Note_on_c, 4, 78, 0
6, 23200, Note_on_c, 4, 78, 71
6, 23200, Note_on_c, 4, 75, 77
6, 23210, Note_on_c, 4, 75, 0
6, 23210, Note_on_c, 4, 78, 0
6, 23220, Note_on_c, 4, 78, 76
6, 23220, Note_on_c, 4, 75, 84
6, 23220, Note_on_c, 4, 70, 80
6, 23220, Note_on_c, 4, 58, 89
6, 23230, Note_on_c, 4, 75, 0
6, 23230, Note_on_c, 4, 78, 0
6, 23240, Note_on_c, 4, 78, 67
6, 23240, Note_on_c, 4, 75, 76
6, 23250, Note_on_c, 4, 75, 0
6, 23250, Note_on_c, 4, 78, 0
6, 23260, Note_on_c, 4, 78, 71
6, 23260, Note_on_c, 4, 75, 77
6, 23270, Note_on_c, 4, 75, 0
6, 23270, Note_on_c, 4, 78, 0
6, 23280, Note_on_c, 4, 70, 0
6, 23280, Note_on_c, 4, 58, 0
6, 23280, Note_on_c, 4, 78, 62
6, 23280, Note_on_c, 4, 75, 65
6, 23290, Note_on_c, 4, 75, 0
6, 23290, Note_on_c, 4, 78, 0
6, 23300, Note_on_c, 4, 78, 58
6, 23300, Note_on_c, 4, 75, 63
6, 23310, Note_on_c, 4, 75, 0
6, 23310, Note_on_c, 4, 78, 0
6, 23320, Note_on_c, 4, 78, 45
6, 23320, Note_on_c, 4, 75, 69
6, 23330, Note_on_c, 4, 75, 0
6, 23330, Note_on_c, 4, 78, 0
6, 23340, Note_on_c, 4, 78, 53
6, 23340, Note_on_c, 4, 75, 64
6, 23340, Note_on_c, 4, 71, 63
6, 23340, Note_on_c, 4, 59, 66
6, 23350, Note_on_c, 4, 75, 0
6, 23350, Note_on_c, 4, 78, 0
6, 23360, Note_on_c, 4, 78, 51
6, 23360, Note_on_c, 4, 75, 61
6, 23370, Note_on_c, 4, 75, 0
6, 23370, Note_on_c, 4, 78, 0
6, 23380, Note_on_c, 4, 78, 53
6, 23380, Note_on_c, 4, 75, 72
6, 23390, Note_on_c, 4, 75, 0
6, 23390, Note_on_c, 4, 78, 0
6, 23400, Note_on_c, 4, 71, 0
6, 23400, Note_on_c, 4, 59, 0
6, 23400, Note_on_c, 4, 78, 43
6, 23400, Note_on_c, 4, 75, 43
6, 23410, Note_on_c, 4, 75, 0
6, 23410, Note_on_c, 4, 78, 0
6, 23420, Note_on_c, 4, 77, 43
6, 23420, Note_on_c, 4, 75, 44
6, 23430, Note_on_c, 4, 75, 0
6, 23430, Note_on_c, 4, 77, 0
6, 23440, Note_on_c, 4, 77, 43
6, 23440, Note_on_c, 4, 75, 42
6, 23450, Note_on_c, 4, 75, 0
6, 23450, Note_on_c, 4, 77, 0
6, 23460, Note_on_c, 4, 77, 43
6, 23460, Note_on_c, 4, 75, 52
6, 23460, Note_on_c, 4, 69, 44
6, 23460, Note_on_c, 4, 57, 43
6, 23470, Note_on_c, 4, 75, 0
6, 23470, Note_on_c, 4, 77, 0
6, 23480, Note_on_c, 4, 77, 42
6, 23480, Note_on_c, 4, 75, 31
6, 23490, Note_on_c, 4, 75, 0
6, 23490, Note_on_c, 4, 77, 0
6, 23500, Note_on_c, 4, 77, 42
6, 23500, Note_on_c, 4, 75, 45
6, 23510, Note_on_c, 4, 75, 0
6, 23510, Note_on_c, 4, 77, 0
6, 23520, Note_on_c, 4, 69, 0
6, 23520, Note_on_c, 4, 57, 0
6, 23520, Note_on_c, 4, 77, 43
6, 23520, Note_on_c, 4, 75, 51
6, 23530, Note_on_c, 4, 75, 0
6, 23530, Note_on_c, 4, 77, 0
6, 23540, Note_on_c, 4, 77, 43
6, 23540, Note_on_c, 4, 75, 43
6, 23550, Note_on_c, 4, 75, 0
6, 23550, Note_on_c, 4, 77, 0
6, 23560, Note_on_c, 4, 77, 44
6, 23560, Note_on_c, 4, 75, 43
6, 23570, Note_on_c, 4, 75, 0
6, 23570, Note_on_c, 4, 77, 0
6, 23580, Note_on_c, 4, 77, 41
6, 23580, Note_on_c, 4, 75, 43
6, 23580, Note_on_c, 4, 72, 64
6, 23580, Note_on_c, 4, 60, 41
6, 23590, Note_on_c, 4, 75, 0
6, 23590, Note_on_c, 4, 77, 0
6, 23600, Note_on_c, 4, 77, 42
6, 23600, Note_on_c, 4, 75, 45
6, 23610, Note_on_c, 4, 75, 0
6, 23610, Note_on_c, 4, 77, 0
6, 23620, Note_on_c, 4, 77, 40
6, 23620, Note_on_c, 4, 75, 43
6, 23630, Note_on_c, 4, 75, 0
6, 23630, Note_on_c, 4, 77, 0
6, 23640, Note_on_c, 4, 72, 0
6, 23640, Note_on_c, 4, 60, 0
6, 23640, Note_on_c, 4, 77, 40
6, 23640, Note_on_c, 4, 75, 40
6, 23650, Note_on_c, 4, 75, 0
6, 23650, Note_on_c, 4, 77, 0
6, 23660, Note_on_c, 4, 77, 35
6, 23660, Note_on_c, 4, 75, 32
6, 23670, Note_on_c, 4, 75, 0
6, 23670, Note_on_c, 4, 77, 0
6, 23680, Note_on_c, 4, 77, 42
6, 23680, Note_on_c, 4, 75, 43
6, 23690, Note_on_c, 4, 75, 0
6, 23690, Note_on_c, 4, 77, 0
6, 23700, Note_on_c, 4, 77, 40
6, 23700, Note_on_c, 4, 75, 39
6, 23700, Note_on_c, 4, 69, 43
6, 23700, Note_on_c, 4, 57, 39
6, 23710, Note_on_c, 4, 75, 0
6, 23710, Note_on_c, 4, 77, 0
6, 23720, Note_on_c, 4, 77, 40
6, 23720, Note_on_c, 4, 75, 43
6, 23730, Note_on_c, 4, 75, 0
6, 23730, Note_on_c, 4, 77, 0
6, 23740, Note_on_c, 4, 77, 44
6, 23740, Note_on_c, 4, 75, 49
6, 23745, Note_on_c, 4, 77, 41
6, 23745, Note_on_c, 4, 75, 45
6, 23750, Note_on_c, 4, 75, 0
6, 23750, Note_on_c, 4, 77, 0
6, 23760, Note_on_c, 4, 77, 0
6, 23760, Note_on_c, 4, 57, 0
6, 23760, Note_on_c, 4, 75, 0
6, 23760, Note_on_c, 4, 69, 0
6, 23760, Note_on_c, 4, 75, 67
6, 23770, Note_on_c, 4, 75, 0
6, 23770, Note_on_c, 4, 77, 44
6, 23780, Note_on_c, 4, 77, 0
6, 23780, Note_on_c, 4, 75, 53
6, 23790, Note_on_c, 4, 75, 0
6, 23790, Note_on_c, 4, 77, 43
6, 23797, Note_on_c, 4, 75, 80
6, 23798, Note_on_c, 4, 77, 0
6, 23805, Note_on_c, 4, 75, 0
6, 23805, Note_on_c, 4, 77, 54
6, 23812, Note_on_c, 4, 75, 71
6, 23813, Note_on_c, 4, 77, 0
6, 23820, Note_on_c, 4, 75, 0
6, 23820, Note_on_c, 4, 77, 50
6, 23830, Note_on_c, 4, 77, 0
6, 23830, Note_on_c, 4, 75, 69
6, 23840, Note_on_c, 4, 75, 0
6, 23840, Note_on_c, 4, 77, 61
6, 23850, Note_on_c, 4, 77, 0
6, 23850, Note_on_c, 4, 75, 72
6, 23857, Note_on_c, 4, 77, 68
6, 23858, Note_on_c, 4, 75, 0
6, 23865, Note_on_c, 4, 77, 0
6, 23865, Note_on_c, 4, 75, 80
6, 23872, Note_on_c, 4, 77, 80
6, 23873, Note_on_c, 4, 75, 0
6, 23880, Note_on_c, 4, 77, 0
6, 23880, Note_on_c, 4, 75, 70
6, 23890, Note_on_c, 4, 75, 0
6, 23890, Note_on_c, 4, 77, 73
6, 23900, Note_on_c, 4, 77, 0
6, 23900, Note_on_c, 4, 75, 84
6, 23910, Note_on_c, 4, 75, 0
6, 23910, Note_on_c, 4, 77, 73
6, 23917, Note_on_c, 4, 75, 80
6, 23918, Note_on_c, 4, 77, 0
6, 23925, Note_on_c, 4, 75, 0
6, 23925, Note_on_c, 4, 77, 71
6, 23932, Note_on_c, 4, 75, 84
6, 23933, Note_on_c, 4, 77, 0
6, 23940, Note_on_c, 4, 75, 0
6, 23940, Note_on_c, 4, 77, 59
6, 23950, Note_on_c, 4, 77, 0
6, 23950, Note_on_c, 4, 75, 78
6, 23960, Note_on_c, 4, 75, 0
6, 23960, Note_on_c, 4, 77, 71
6, 23970, Note_on_c, 4, 77, 0
6, 23970, Note_on_c, 4, 75, 89
6, 23977, Note_on_c, 4, 77, 78
6, 23978, Note_on_c, 4, 75, 0
6, 23985, Note_on_c, 4, 77, 0
6, 23985, Note_on_c, 4, 75, 85
6, 23992, Note_on_c, 4, 77, 76
6, 23993, Note_on_c, 4, 75, 0
6, 24000, Note_on_c, 4, 77, 0
6, 24000, Note_on_c, 4, 76, 94
6, 24010, Note_on_c, 4, 76, 0
6, 24010, Note_on_c, 4, 77, 84
6, 24020, Note_on_c, 4, 77, 0
6, 24020, Note_on_c, 4, 76, 90
6, 24030, Note_on_c, 4, 76, 0
6, 24030, Note_on_c, 4, 77, 82
6, 24037, Note_on_c, 4, 76, 95
6, 24038, Note_on_c, 4, 77, 0
6, 24045, Note_on_c, 4, 76, 0
6, 24045, Note_on_c, 4, 77, 85
6, 24052, Note_on_c, 4, 76, 99
6, 24053, Note_on_c, 4, 77, 0
6, 24060, Note_on_c, 4, 76, 0
6, 24060, Note_on_c, 4, 77, 85
6, 24070, Note_on_c, 4, 77, 0
6, 24070, Note_on_c, 4, 76, 98
6, 24080, Note_on_c, 4, 76, 0
6, 24080, Note_on_c, 4, 77, 94
6, 24090, Note_on_c, 4, 77, 0
6, 24090, Note_on_c, 4, 76, 99
6, 24097, Note_on_c, 4, 77, 90
6, 24098, Note_on_c, 4, 76, 0
6, 24105, Note_on_c, 4, 77, 0
6, 24105, Note_on_c, 4, 76, 99
6, 24112, Note_on_c, 4, 77, 90
6, 24113, Note_on_c, 4, 76, 0
6, 24120, Note_on_c, 4, 77, 0
6, 24120, Note_on_c, 4, 77, 99
6, 24127, Note_on_c, 4, 79, 90
6, 24128, Note_on_c, 4, 77, 0
6, 24135, Note_on_c, 4, 79, 0
6, 24135, Note_on_c, 4, 77, 101
6, 24142, Note_on_c, 4, 79, 95
6, 24143, Note_on_c, 4, 77, 0
6, 24150, Note_on_c, 4, 79, 0
6, 24150, Note_on_c, 4, 77, 95
6, 24160, Note_on_c, 4, 77, 0
6, 24160, Note_on_c, 4, 79, 99
6, 24170, Note_on_c, 4, 79, 0
6, 24170, Note_on_c, 4, 77, 98
6, 24180, Note_on_c, 4, 77, 0
6, 24180, Note_on_c, 4, 79, 94
6, 24187, Note_on_c, 4, 77, 95
6, 24188, Note_on_c, 4, 79, 0
6, 24195, Note_on_c, 4, 77, 0
6, 24195, Note_on_c, 4, 79, 99
6, 24202, Note_on_c, 4, 77, 95
6, 24203, Note_on_c, 4, 79, 0
6, 24210, Note_on_c, 4, 77, 0
6, 24210, Note_on_c, 4, 76, 107
6, 24225, Note_on_c, 4, 76, 0
6, 24225, Note_on_c, 4, 77, 104
6, 24240, Note_on_c, 4, 77, 0
6, 24240, Note_on_c, 4, 82, 84
6, 24247, Note_on_c, 4, 84, 93
6, 24248, Note_on_c, 4, 82, 0
6, 24255, Note_on_c, 4, 84, 0
6, 24255, Note_on_c, 4, 82, 93
6, 24262, Note_on_c, 4, 84, 90
6, 24263, Note_on_c, 4, 82, 0
6, 24270, Note_on_c, 4, 84, 0
6, 24270, Note_on_c, 4, 82, 93
6, 24280, Note_on_c, 4, 82, 0
6, 24280, Note_on_c, 4, 84, 95
6, 24290, Note_on_c, 4, 84, 0
6, 24290, Note_on_c, 4, 82, 90
6, 24300, Note_on_c, 4, 82, 0
6, 24300, Note_on_c, 4, 84, 94
6, 24307, Note_on_c, 4, 82, 89
6, 24308, Note_on_c, 4, 84, 0
6, 24315, Note_on_c, 4, 82, 0
6, 24315, Note_on_c, 4, 84, 94
6, 24322, Note_on_c, 4, 82, 93
6, 24323, Note_on_c, 4, 84, 0
6, 24330, Note_on_c, 4, 82, 0
6, 24330, Note_on_c, 4, 81, 105
6, 24345, Note_on_c, 4, 81, 0
6, 24345, Note_on_c, 4, 82, 101
6, 24360, Note_on_c, 4, 82, 0
6, 24360, Note_on_c, 4, 88, 107
6, 24370, Note_on_c, 4, 88, 0
6, 24370, Note_on_c, 4, 89, 107
6, 24380, Note_on_c, 4, 89, 0
6, 24380, Note_on_c, 4, 88, 105
6, 24390, Note_on_c, 4, 88, 0
6, 24390, Note_on_c, 4, 86, 110
6, 24405, Note_on_c, 4, 86, 0
6, 24405, Note_on_c, 4, 88, 112
6, 24420, Note_on_c, 4, 88, 0
6, 24420, Note_on_c, 4, 89, 112
6, 24450, Note_on_c, 4, 89, 0
6, 24450, Note_on_c, 4, 87, 104
6, 24454, Note_on_c, 4, 87, 0
6, 24454, Note_on_c, 4, 86, 104
6, 24458, Note_on_c, 4, 86, 0
6, 24458, Note_on_c, 4, 84, 89
6, 24462, Note_on_c, 4, 84, 0
6, 24462, Note_on_c, 4, 82, 84
6, 24466, Note_on_c, 4, 82, 0
6, 24466, Note_on_c, 4, 80, 69
6, 24470, Note_on_c, 4, 80, 0
6, 24470, Note_on_c, 4, 79, 71
6, 24474, Note_on_c, 4, 79, 0
6, 24474, Note_on_c, 4, 77, 73
6, 24478, Note_on_c, 4, 77, 0
6, 24480, Note_on_c, 4, 75, 99
6, 24480, Note_on_c, 4, 67, 85
6, 24480, Note_on_c, 4, 63, 94
6, 24600, Note_on_c, 4, 63, 0
6, 24600, Note_on_c, 4, 67, 0
6, 24600, Note_on_c, 4, 75, 0
6, 26280, Control_c, 4, 64, 80
6, 26505, Note_on_c, 4, 67, 82
6, 26520, Note_on_c, 4, 67, 0
6, 26520, Note_on_c, 4, 75, 76
6, 26610, Note_on_c, 4, 75, 0
6, 26625, Note_on_c, 4, 70, 76
6, 26640, Note_on_c, 4, 70, 0
6, 26640, Note_on_c, 4, 79, 71
6, 26820, Note_on_c, 4, 79, 0
6, 26865, Note_on_c, 4, 70, 85
6, 26880, Note_on_c, 4, 70, 0
6, 26880, Note_on_c, 4, 79, 71
6, 26970, Note_on_c, 4, 79, 0
6, 26985, Note_on_c, 4, 75, 89
6, 27000, Note_on_c, 4, 75, 0
6, 27000, Note_on_c, 4, 82, 80
6, 27180, Note_on_c, 4, 82, 0
6, 27225, Note_on_c, 4, 82, 74
6, 27240, Note_on_c, 4, 82, 0
6, 27240, Note_on_c, 4, 82, 73
6, 27270, Note_on_c, 4, 82, 0
6, 27270, Note_on_c, 4, 79, 80
6, 27300, Note_on_c, 4, 79, 0
6, 27330, Note_on_c, 4, 79, 69
6, 27360, Note_on_c, 4, 79, 0
6, 27360, Note_on_c, 4, 79, 73
6, 27390, Note_on_c, 4, 79, 0
6, 27390, Note_on_c, 4, 75, 86
6, 27420, Note_on_c, 4, 75, 0
6, 27450, Note_on_c, 4, 75, 89
6, 27480, Note_on_c, 4, 75, 0
6, 27480, Note_on_c, 4, 75, 86
6, 27510, Note_on_c, 4, 75, 0
6, 27510, Note_on_c, 4, 70, 86
6, 27540, Note_on_c, 4, 70, 0
6, 27570, Note_on_c, 4, 70, 89
6, 27600, Note_on_c, 4, 70, 0
6, 27600, Note_on_c, 4, 70, 90
6, 27630, Note_on_c, 4, 70, 0
6, 27630, Note_on_c, 4, 68, 89
6, 27660, Note_on_c, 4, 68, 0
6, 27690, Note_on_c, 4, 68, 93
6, 27720, Note_on_c, 4, 68, 0
6, 27720, Note_on_c, 4, 67, 80
6, 27840, Note_on_c, 4, 67, 0
6, 28305, Note_on_c, 4, 89, 78
6, 28320, Note_on_c, 4, 89, 0
6, 28320, Note_on_c, 4, 89, 76
6, 28350, Note_on_c, 4, 89, 0
6, 28350, Note_on_c, 4, 86, 94
6, 28380, Note_on_c, 4, 86, 0
6, 28410, Note_on_c, 4, 86, 73
6, 28440, Note_on_c, 4, 86, 0
6, 28440, Note_on_c, 4, 86, 81
6, 28470, Note_on_c, 4, 86, 0
6, 28470, Note_on_c, 4, 80, 80
6, 28500, Note_on_c, 4, 80, 0
6, 28530, Note_on_c, 4, 80, 81
6, 28560, Note_on_c, 4, 80, 0
6, 28560, Note_on_c, 4, 80, 84
6, 28590, Note_on_c, 4, 80, 0
6, 28590, Note_on_c, 4, 77, 82
6, 28620, Note_on_c, 4, 77, 0
6, 28650, Note_on_c, 4, 77, 89
6, 28680, Note_on_c, 4, 77, 0
6, 28680, Note_on_c, 4, 76, 86
6, 28695, Note_on_c, 4, 76, 0
6, 28695, Note_on_c, 4, 77, 89
6, 28710, Note_on_c, 4, 77, 0
6, 28710, Note_on_c, 4, 79, 76
6, 28718, Note_on_c, 4, 79, 0
6, 28725, Note_on_c, 4, 77, 89
6, 28733, Note_on_c, 4, 77, 0
6, 28740, Note_on_c, 4, 75, 86
6, 28748, Note_on_c, 4, 75, 0
6, 28755, Note_on_c, 4, 74, 94
6, 28763, Note_on_c, 4, 74, 0
6, 28770, Note_on_c, 4, 72, 76
6, 28778, Note_on_c, 4, 72, 0
6, 28785, Note_on_c, 4, 70, 84
6, 28793, Note_on_c, 4, 70, 0
6, 28800, Note_on_c, 4, 68, 89
6, 28920, Note_on_c, 4, 68, 0
6, 29265, Note_on_c, 4, 70, 94
6, 29280, Note_on_c, 4, 70, 0
6, 29280, Note_on_c, 4, 82, 73
6, 29400, Note_on_c, 4, 82, 0
6, 29400, Note_on_c, 4, 80, 80
6, 29430, Note_on_c, 4, 80, 0
6, 29430, Note_on_c, 4, 79, 77
6, 29460, Note_on_c, 4, 79, 0
6, 29460, Note_on_c, 4, 77, 76
6, 29490, Note_on_c, 4, 77, 0
6, 29490, Note_on_c, 4, 75, 81
6, 29520, Note_on_c, 4, 75, 0
6, 29520, Note_on_c, 4, 74, 81
6, 29640, Note_on_c, 4, 74, 0
6, 29970, Note_on_c, 4, 70, 86
6, 29980, Note_on_c, 4, 70, 0
6, 29980, Note_on_c, 4, 75, 85
6, 29990, Note_on_c, 4, 75, 0
6, 29990, Note_on_c, 4, 79, 62
6, 30000, Note_on_c, 4, 79, 0
6, 30000, Note_on_c, 4, 82, 81
6, 30180, Note_on_c, 4, 82, 0
6, 30180, Note_on_c, 4, 81, 89
6, 30240, Note_on_c, 4, 81, 0
6, 30240, Note_on_c, 4, 82, 82
6, 30300, Note_on_c, 4, 82, 0
6, 30300, Note_on_c, 4, 81, 93
6, 30360, Note_on_c, 4, 81, 0
6, 30360, Note_on_c, 4, 82, 84
6, 30390, Note_on_c, 4, 82, 0
6, 30390, Note_on_c, 4, 81, 84
6, 30420, Note_on_c, 4, 81, 0
6, 30420, Note_on_c, 4, 82, 81
6, 30450, Note_on_c, 4, 82, 0
6, 30450, Note_on_c, 4, 81, 89
6, 30480, Note_on_c, 4, 81, 0
6, 30480, Note_on_c, 4, 82, 81
6, 30500, Note_on_c, 4, 82, 0
6, 30500, Note_on_c, 4, 81, 84
6, 30520, Note_on_c, 4, 81, 0
6, 30520, Note_on_c, 4, 82, 84
6, 30540, Note_on_c, 4, 82, 0
6, 30540, Note_on_c, 4, 81, 86
6, 30555, Note_on_c, 4, 81, 0
6, 30555, Note_on_c, 4, 82, 84
6, 30570, Note_on_c, 4, 82, 0
6, 30570, Note_on_c, 4, 81, 85
6, 30585, Note_on_c, 4, 81, 0
6, 30585, Note_on_c, 4, 82, 85
6, 30600, Note_on_c, 4, 82, 0
6, 30600, Note_on_c, 4, 81, 81
6, 30610, Note_on_c, 4, 81, 0
6, 30610, Note_on_c, 4, 82, 71
6, 30620, Note_on_c, 4, 82, 0
6, 30620, Note_on_c, 4, 81, 81
6, 30630, Note_on_c, 4, 81, 0
6, 30630, Note_on_c, 4, 82, 84
6, 30637, Note_on_c, 4, 81, 71
6, 30638, Note_on_c, 4, 82, 0
6, 30645, Note_on_c, 4, 81, 0
6, 30645, Note_on_c, 4, 82, 73
6, 30652, Note_on_c, 4, 81, 80
6, 30653, Note_on_c, 4, 82, 0
6, 30660, Note_on_c, 4, 81, 0
6, 30660, Note_on_c, 4, 82, 78
6, 30670, Note_on_c, 4, 82, 0
6, 30670, Note_on_c, 4, 81, 76
6, 30680, Note_on_c, 4, 81, 0
6, 30680, Note_on_c, 4, 82, 81
6, 30690, Note_on_c, 4, 82, 0
6, 30690, Note_on_c, 4, 81, 71
6, 30697, Note_on_c, 4, 82, 84
6, 30698, Note_on_c, 4, 81, 0
6, 30705, Note_on_c, 4, 82, 0
6, 30705, Note_on_c, 4, 81, 86
6, 30712, Note_on_c, 4, 82, 84
6, 30713, Note_on_c, 4, 81, 0
6, 30720, Note_on_c, 4, 82, 0
6, 30720, Note_on_c, 4, 81, 89
6, 30730, Note_on_c, 4, 81, 0
6, 30730, Note_on_c, 4, 82, 80
6, 30740, Note_on_c, 4, 82, 0
6, 30740, Note_on_c, 4, 81, 86
6, 30750, Note_on_c, 4, 81, 0
6, 30750, Note_on_c, 4, 82, 81
6, 30757, Note_on_c, 4, 81, 84
6, 30758, Note_on_c, 4, 82, 0
6, 30765, Note_on_c, 4, 81, 0
6, 30765, Note_on_c, 4, 82, 80
6, 30772, Note_on_c, 4, 81, 86
6, 30773, Note_on_c, 4, 82, 0
6, 30780, Note_on_c, 4, 81, 0
6, 30780, Note_on_c, 4, 82, 81
6, 30790, Note_on_c, 4, 82, 0
6, 30790, Note_on_c, 4, 81, 93
6, 30800, Note_on_c, 4, 81, 0
6, 30800, Note_on_c, 4, 82, 81
6, 30810, Note_on_c, 4, 82, 0
6, 30810, Note_on_c, 4, 81, 86
6, 30817, Note_on_c, 4, 82, 84
6, 30818, Note_on_c, 4, 81, 0
6, 30825, Note_on_c, 4, 82, 0
6, 30825, Note_on_c, 4, 81, 90
6, 30832, Note_on_c, 4, 82, 89
6, 30833, Note_on_c, 4, 81, 0
6, 30840, Note_on_c, 4, 82, 0
6, 30840, Note_on_c, 4, 82, 81
6, 30847, Note_on_c, 4, 83, 94
6, 30848, Note_on_c, 4, 82, 0
6, 30855, Note_on_c, 4, 83, 0
6, 30855, Note_on_c, 4, 84, 81
6, 30862, Note_on_c, 4, 83, 86
6, 30863, Note_on_c, 4, 84, 0
6, 30870, Note_on_c, 4, 83, 0
6, 30870, Note_on_c, 4, 86, 89
6, 30877, Note_on_c, 4, 84, 90
6, 30878, Note_on_c, 4, 86, 0
6, 30885, Note_on_c, 4, 84, 0
6, 30885, Note_on_c, 4, 82, 93
6, 30892, Note_on_c, 4, 80, 94
6, 30893, Note_on_c, 4, 82, 0
6, 30900, Note_on_c, 4, 80, 0
6, 30900, Note_on_c, 4, 79, 90
6, 30907, Note_on_c, 4, 77, 81
6, 30908, Note_on_c, 4, 79, 0
6, 30915, Note_on_c, 4, 77, 0
6, 30915, Note_on_c, 4, 80, 89
6, 30922, Note_on_c, 4, 79, 89
6, 30923, Note_on_c, 4, 80, 0
6, 30930, Note_on_c, 4, 79, 0
6, 30930, Note_on_c, 4, 82, 84
6, 30937, Note_on_c, 4, 80, 93
6, 30938, Note_on_c, 4, 82, 0
6, 30945, Note_on_c, 4, 80, 0
6, 30945, Note_on_c, 4, 79, 90
6, 30952, Note_on_c, 4, 77, 93
6, 30953, Note_on_c, 4, 79, 0
6, 30960, Note_on_c, 4, 77, 0
6, 30960, Note_on_c, 4, 75, 94
6, 31020, Note_on_c, 4, 75, 0
6, 31035, Note_on_c, 4, 74, 93
6, 31050, Note_on_c, 4, 74, 0
6, 31050, Note_on_c, 4, 77, 68
6, 31065, Note_on_c, 4, 77, 0
6, 31065, Note_on_c, 4, 75, 90
6, 31080, Note_on_c, 4, 75, 0
6, 31080, Note_on_c, 4, 74, 84
6, 31140, Note_on_c, 4, 74, 0
6, 31140, End_track
7, 0, Start_track
7, 0, MIDI_port, 0
7, 0, Title_t, "1st Violins"
7, 0, Program_c, 5, 48
7, 0, Control_c, 5, 7, 100
7, 0, Control_c, 5, 10, 37
7, 0, Control_c, 5, 93, 0
7, 0, Control_c, 5, 91, 66
7, 0, Note_on_c, 5, 67, 58
7, 90, Note_on_c, 5, 67, 0
7, 120, Note_on_c, 5, 67, 64
7, 210, Note_on_c, 5, 67, 0
7, 240, Note_on_c, 5, 68, 73
7, 330, Note_on_c, 5, 68, 0
7, 345, Note_on_c, 5, 72, 72
7, 360, Note_on_c, 5, 72, 0
7, 360, Note_on_c, 5, 67, 72
7, 480, Note_on_c, 5, 67, 0
7, 480, Note_on_c, 5, 65, 71
7, 540, Note_on_c, 5, 65, 0
7, 720, Note_on_c, 5, 68, 84
7, 722, Control_c, 5, 7, 99
7, 730, Control_c, 5, 7, 100
7, 736, Control_c, 5, 7, 101
7, 742, Control_c, 5, 7, 102
7, 748, Control_c, 5, 7, 103
7, 754, Control_c, 5, 7, 104
7, 760, Control_c, 5, 7, 105
7, 766, Control_c, 5, 7, 106
7, 772, Control_c, 5, 7, 107
7, 778, Control_c, 5, 7, 108
7, 786, Control_c, 5, 7, 109
7, 792, Control_c, 5, 7, 110
7, 798, Control_c, 5, 7, 111
7, 804, Control_c, 5, 7, 112
7, 810, Control_c, 5, 7, 113
7, 816, Control_c, 5, 7, 114
7, 822, Control_c, 5, 7, 115
7, 828, Control_c, 5, 7, 116
7, 834, Control_c, 5, 7, 117
7, 840, Control_c, 5, 7, 118
7, 842, Control_c, 5, 7, 118
7, 850, Control_c, 5, 7, 117
7, 856, Control_c, 5, 7, 116
7, 862, Control_c, 5, 7, 115
7, 868, Control_c, 5, 7, 114
7, 874, Control_c, 5, 7, 113
7, 880, Control_c, 5, 7, 112
7, 888, Control_c, 5, 7, 111
7, 894, Control_c, 5, 7, 110
7, 900, Control_c, 5, 7, 109
7, 906, Control_c, 5, 7, 108
7, 912, Control_c, 5, 7, 107
7, 918, Control_c, 5, 7, 106
7, 926, Control_c, 5, 7, 105
7, 932, Control_c, 5, 7, 104
7, 938, Control_c, 5, 7, 103
7, 944, Control_c, 5, 7, 102
7, 950, Control_c, 5, 7, 101
7, 956, Control_c, 5, 7, 100
7, 960, Note_on_c, 5, 68, 0
7, 960, Note_on_c, 5, 67, 62
7, 962, Control_c, 5, 7, 99
7, 1080, Note_on_c, 5, 67, 0
7, 1080, Note_on_c, 5, 67, 73
7, 1200, Note_on_c, 5, 67, 0
7, 1200, Note_on_c, 5, 65, 74
7, 1260, Note_on_c, 5, 65, 0
7, 1350, Note_on_c, 5, 71, 95
7, 1380, Note_on_c, 5, 71, 0
7, 1380, Note_on_c, 5, 72, 89
7, 1410, Note_on_c, 5, 72, 0
7, 1410, Note_on_c, 5, 68, 99
7, 1440, Note_on_c, 5, 68, 0
7, 1440, Note_on_c, 5, 67, 98
7, 1560, Note_on_c, 5, 67, 0
7, 1560, Note_on_c, 5, 66, 80
7, 1620, Note_on_c, 5, 66, 0
7, 1710, Note_on_c, 5, 74, 90
7, 1740, Note_on_c, 5, 74, 0
7, 1740, Note_on_c, 5, 75, 89
7, 1770, Note_on_c, 5, 75, 0
7, 1770, Note_on_c, 5, 72, 67
7, 1800, Note_on_c, 5, 72, 0
7, 1800, Note_on_c, 5, 70, 99
7, 1890, Note_on_c, 5, 70, 0
7, 1890, Note_on_c, 5, 69, 99
7, 1905, Note_on_c, 5, 69, 0
7, 1905, Note_on_c, 5, 72, 94
7, 1920, Note_on_c, 5, 72, 0
7, 1920, Note_on_c, 5, 75, 99
7, 1950, Note_on_c, 5, 75, 0
7, 2025, Note_on_c, 5, 69, 95
7, 2040, Note_on_c, 5, 69, 0
7, 2040, Note_on_c, 5, 69, 101
7, 2130, Note_on_c, 5, 69, 0
7, 2145, Note_on_c, 5, 69, 99
7, 2160, Note_on_c, 5, 69, 0
7, 2160, Note_on_c, 5, 70, 99
7, 2280, Note_on_c, 5, 70, 0
7, 2280, Note_on_c, 5, 80, 71
7, 2400, Note_on_c, 5, 80, 0
7, 2400, Note_on_c, 5, 80, 61
7, 2430, Note_on_c, 5, 80, 0
7, 2430, Note_on_c, 5, 79, 73
7, 2460, Note_on_c, 5, 79, 0
7, 2460, Note_on_c, 5, 77, 71
7, 2490, Note_on_c, 5, 77, 0
7, 2490, Note_on_c, 5, 75, 76
7, 2520, Note_on_c, 5, 75, 0
7, 2520, Note_on_c, 5, 75, 80
7, 2550, Note_on_c, 5, 75, 0
7, 2550, Note_on_c, 5, 74, 82
7, 2580, Note_on_c, 5, 74, 0
7, 2580, Note_on_c, 5, 72, 84
7, 2610, Note_on_c, 5, 72, 0
7, 2610, Note_on_c, 5, 70, 94
7, 2640, Note_on_c, 5, 70, 0
7, 2640, Note_on_c, 5, 70, 95
7, 2700, Note_on_c, 5, 70, 0
7, 2700, Note_on_c, 5, 70, 90
7, 2820, Note_on_c, 5, 70, 0
7, 2820, Note_on_c, 5, 70, 95
7, 2880, Note_on_c, 5, 70, 0
7, 2880, Note_on_c, 5, 70, 77
7, 2895, Note_on_c, 5, 70, 0
7, 2895, Note_on_c, 5, 58, 72
7, 2910, Note_on_c, 5, 58, 0
7, 2910, Note_on_c, 5, 60, 76
7, 2925, Note_on_c, 5, 60, 0
7, 2925, Note_on_c, 5, 62, 64
7, 2940, Note_on_c, 5, 62, 0
7, 2940, Note_on_c, 5, 63, 72
7, 2955, Note_on_c, 5, 63, 0
7, 2955, Note_on_c, 5, 65, 77
7, 2970, Note_on_c, 5, 65, 0
7, 2970, Note_on_c, 5, 67, 67
7, 2985, Note_on_c, 5, 67, 0
7, 2985, Note_on_c, 5, 69, 81
7, 3000, Note_on_c, 5, 69, 0
7, 3000, Note_on_c, 5, 70, 86
7, 3015, Note_on_c, 5, 70, 0
7, 3015, Note_on_c, 5, 72, 62
7, 3030, Note_on_c, 5, 72, 0
7, 3030, Note_on_c, 5, 74, 86
7, 3045, Note_on_c, 5, 74, 0
7, 3045, Note_on_c, 5, 75, 94
7, 3060, Note_on_c, 5, 75, 0
7, 3060, Note_on_c, 5, 77, 85
7, 3075, Note_on_c, 5, 77, 0
7, 3075, Note_on_c, 5, 79, 86
7, 3090, Note_on_c, 5, 79, 0
7, 3090, Note_on_c, 5, 80, 95
7, 3105, Note_on_c, 5, 80, 0
7, 3105, Note_on_c, 5, 81, 95
7, 3120, Note_on_c, 5, 81, 0
7, 3120, Note_on_c, 5, 82, 89
7, 3135, Note_on_c, 5, 82, 0
7, 3150, Note_on_c, 5, 74, 99
7, 3165, Note_on_c, 5, 74, 0
7, 3180, Note_on_c, 5, 75, 95
7, 3195, Note_on_c, 5, 75, 0
7, 3210, Note_on_c, 5, 79, 84
7, 3210, Note_on_c, 5, 70, 94
7, 3225, Note_on_c, 5, 70, 0
7, 3225, Note_on_c, 5, 79, 0
7, 3240, Note_on_c, 5, 77, 85
7, 3240, Note_on_c, 5, 70, 94
7, 3255, Note_on_c, 5, 70, 0
7, 3255, Note_on_c, 5, 77, 0
7, 3255, Note_on_c, 5, 58, 73
7, 3270, Note_on_c, 5, 58, 0
7, 3270, Note_on_c, 5, 60, 74
7, 3285, Note_on_c, 5, 60, 0
7, 3285, Note_on_c, 5, 62, 67
7, 3300, Note_on_c, 5, 62, 0
7, 3300, Note_on_c, 5, 63, 77
7, 3315, Note_on_c, 5, 63, 0
7, 3315, Note_on_c, 5, 65, 73
7, 3330, Note_on_c, 5, 65, 0
7, 3330, Note_on_c, 5, 67, 67
7, 3345, Note_on_c, 5, 67, 0
7, 3345, Note_on_c, 5, 69, 85
7, 3360, Note_on_c, 5, 69, 0
7, 3360, Note_on_c, 5, 70, 84
7, 3375, Note_on_c, 5, 70, 0
7, 3375, Note_on_c, 5, 72, 71
7, 3390, Note_on_c, 5, 72, 0
7, 3390, Note_on_c, 5, 74, 84
7, 3405, Note_on_c, 5, 74, 0
7, 3405, Note_on_c, 5, 75, 90
7, 3420, Note_on_c, 5, 75, 0
7, 3420, Note_on_c, 5, 77, 86
7, 3435, Note_on_c, 5, 77, 0
7, 3435, Note_on_c, 5, 79, 89
7, 3450, Note_on_c, 5, 79, 0
7, 3450, Note_on_c, 5, 80, 95
7, 3465, Note_on_c, 5, 80, 0
7, 3465, Note_on_c, 5, 81, 99
7, 3480, Note_on_c, 5, 81, 0
7, 3480, Note_on_c, 5, 82, 94
7, 3495, Note_on_c, 5, 82, 0
7, 3510, Note_on_c, 5, 74, 101
7, 3525, Note_on_c, 5, 74, 0
7, 3540, Note_on_c, 5, 75, 98
7, 3555, Note_on_c, 5, 75, 0
7, 3570, Note_on_c, 5, 79, 84
7, 3570, Note_on_c, 5, 70, 99
7, 3585, Note_on_c, 5, 70, 0
7, 3585, Note_on_c, 5, 79, 0
7, 3600, Note_on_c, 5, 77, 78
7, 3600, Note_on_c, 5, 70, 82
7, 3660, Note_on_c, 5, 70, 0
7, 3660, Note_on_c, 5, 77, 0
7, 3705, Note_on_c, 5, 82, 99
7, 3720, Note_on_c, 5, 82, 0
7, 3720, Note_on_c, 5, 70, 99
7, 3780, Note_on_c, 5, 70, 0
7, 3825, Note_on_c, 5, 70, 104
7, 3840, Note_on_c, 5, 70, 0
7, 3840, Note_on_c, 5, 58, 99
7, 3930, Note_on_c, 5, 58, 0
7, 3945, Note_on_c, 5, 58, 95
7, 3960, Note_on_c, 5, 58, 0
7, 3960, Note_on_c, 5, 62, 93
7, 3960, Control_c, 5, 7, 99
7, 3972, Control_c, 5, 7, 98
7, 3982, Control_c, 5, 7, 97
7, 3992, Control_c, 5, 7, 96
7, 4004, Control_c, 5, 7, 95
7, 4014, Control_c, 5, 7, 94
7, 4024, Control_c, 5, 7, 93
7, 4036, Control_c, 5, 7, 92
7, 4046, Control_c, 5, 7, 91
7, 4056, Control_c, 5, 7, 90
7, 4068, Control_c, 5, 7, 89
7, 4078, Control_c, 5, 7, 88
7, 4088, Control_c, 5, 7, 87
7, 4100, Control_c, 5, 7, 86
7, 4110, Control_c, 5, 7, 85
7, 4120, Control_c, 5, 7, 84
7, 4132, Control_c, 5, 7, 83
7, 4142, Control_c, 5, 7, 82
7, 4152, Control_c, 5, 7, 81
7, 4164, Control_c, 5, 7, 80
7, 4174, Control_c, 5, 7, 79
7, 4184, Control_c, 5, 7, 78
7, 4196, Control_c, 5, 7, 77
7, 4206, Control_c, 5, 7, 76
7, 4216, Control_c, 5, 7, 75
7, 4228, Control_c, 5, 7, 74
7, 4238, Control_c, 5, 7, 73
7, 4248, Control_c, 5, 7, 72
7, 4260, Control_c, 5, 7, 71
7, 4270, Control_c, 5, 7, 70
7, 4280, Control_c, 5, 7, 69
7, 4292, Control_c, 5, 7, 68
7, 4302, Control_c, 5, 7, 67
7, 4312, Control_c, 5, 7, 66
7, 4320, Note_on_c, 5, 62, 0
7, 4320, Note_on_c, 5, 63, 90
7, 4322, Control_c, 5, 7, 65
7, 4380, Note_on_c, 5, 63, 0
7, 4500, Control_c, 5, 7, 99
7, 5760, Note_on_c, 5, 63, 86
7, 5760, Note_on_c, 5, 55, 80
7, 5820, Note_on_c, 5, 55, 0
7, 5820, Note_on_c, 5, 63, 0
7, 5820, Note_on_c, 5, 58, 94
7, 5850, Note_on_c, 5, 58, 0
7, 5880, Note_on_c, 5, 63, 94
7, 5910, Note_on_c, 5, 63, 0
7, 5940, Note_on_c, 5, 67, 93
7, 5970, Note_on_c, 5, 67, 0
7, 6000, Note_on_c, 5, 70, 95
7, 6030, Note_on_c, 5, 70, 0
7, 6060, Note_on_c, 5, 75, 101
7, 6090, Note_on_c, 5, 75, 0
7, 6120, Note_on_c, 5, 79, 99
7, 6150, Note_on_c, 5, 79, 0
7, 6180, Note_on_c, 5, 70, 65
7, 6225, Note_on_c, 5, 70, 0
7, 6240, Note_on_c, 5, 70, 60
7, 6285, Note_on_c, 5, 70, 0
7, 6300, Note_on_c, 5, 70, 60
7, 6345, Note_on_c, 5, 70, 0
7, 6360, Note_on_c, 5, 70, 65
7, 6405, Note_on_c, 5, 70, 0
7, 6420, Note_on_c, 5, 70, 59
7, 6465, Note_on_c, 5, 70, 0
7, 6540, Note_on_c, 5, 71, 65
7, 6600, Note_on_c, 5, 71, 0
7, 6600, Note_on_c, 5, 71, 64
7, 6660, Note_on_c, 5, 71, 0
7, 6660, Note_on_c, 5, 71, 64
7, 6720, Note_on_c, 5, 71, 0
7, 6720, Note_on_c, 5, 71, 62
7, 6780, Note_on_c, 5, 71, 0
7, 6780, Note_on_c, 5, 71, 71
7, 6840, Note_on_c, 5, 71, 0
7, 6900, Note_on_c, 5, 72, 60
7, 6960, Note_on_c, 5, 72, 0
7, 6960, Note_on_c, 5, 72, 63
7, 7020, Note_on_c, 5, 72, 0
7, 7020, Note_on_c, 5, 72, 53
7, 7080, Note_on_c, 5, 72, 0
7, 7080, Note_on_c, 5, 72, 61
7, 7140, Note_on_c, 5, 72, 0
7, 7140, Note_on_c, 5, 72, 60
7, 7200, Note_on_c, 5, 72, 0
7, 7260, Note_on_c, 5, 70, 52
7, 7320, Note_on_c, 5, 70, 0
7, 7320, Note_on_c, 5, 70, 60
7, 7380, Note_on_c, 5, 70, 0
7, 7380, Note_on_c, 5, 70, 43
7, 7440, Note_on_c, 5, 70, 0
7, 7440, Note_on_c, 5, 70, 57
7, 7500, Note_on_c, 5, 70, 0
7, 7500, Note_on_c, 5, 70, 43
7, 7560, Note_on_c, 5, 70, 0
7, 7620, Note_on_c, 5, 70, 62
7, 7680, Note_on_c, 5, 70, 0
7, 7680, Note_on_c, 5, 70, 46
7, 7740, Note_on_c, 5, 70, 0
7, 7740, Note_on_c, 5, 70, 44
7, 7800, Note_on_c, 5, 70, 0
7, 7800, Note_on_c, 5, 70, 46
7, 7860, Note_on_c, 5, 70, 0
7, 7860, Note_on_c, 5, 70, 56
7, 7920, Note_on_c, 5, 70, 0
7, 7920, Note_on_c, 5, 69, 45
7, 8040, Note_on_c, 5, 69, 0
7, 8100, Note_on_c, 5, 70, 76
7, 8160, Note_on_c, 5, 70, 0
7, 8160, Note_on_c, 5, 75, 93
7, 8220, Note_on_c, 5, 75, 0
7, 8220, Note_on_c, 5, 79, 90
7, 8280, Note_on_c, 5, 79, 0
7, 8280, Note_on_c, 5, 77, 99
7, 8370, Note_on_c, 5, 77, 0
7, 8370, Note_on_c, 5, 75, 86
7, 8400, Note_on_c, 5, 75, 0
7, 8400, Note_on_c, 5, 74, 86
7, 8460, Note_on_c, 5, 74, 0
7, 8820, Note_on_c, 5, 72, 68
7, 8880, Note_on_c, 5, 72, 0
7, 8880, Note_on_c, 5, 77, 84
7, 8940, Note_on_c, 5, 77, 0
7, 8940, Note_on_c, 5, 80, 89
7, 9000, Note_on_c, 5, 80, 0
7, 9000, Note_on_c, 5, 79, 89
7, 9090, Note_on_c, 5, 79, 0
7, 9090, Note_on_c, 5, 77, 81
7, 9120, Note_on_c, 5, 77, 0
7, 9120, Note_on_c, 5, 75, 89
7, 9180, Note_on_c, 5, 75, 0
7, 9210, Note_on_c, 5, 72, 33
7, 9240, Note_on_c, 5, 72, 0
7, 9270, Note_on_c, 5, 71, 70
7, 9300, Note_on_c, 5, 71, 0
7, 9330, Note_on_c, 5, 68, 68
7, 9360, Note_on_c, 5, 68, 0
7, 9390, Note_on_c, 5, 67, 68
7, 9420, Note_on_c, 5, 67, 0
7, 9450, Note_on_c, 5, 65, 65
7, 9480, Note_on_c, 5, 65, 0
7, 9510, Note_on_c, 5, 63, 53
7, 9540, Note_on_c, 5, 63, 0
7, 9570, Note_on_c, 5, 67, 41
7, 9570, Note_on_c, 5, 58, 51
7, 9600, Note_on_c, 5, 58, 0
7, 9600, Note_on_c, 5, 67, 0
7, 9630, Note_on_c, 5, 65, 64
7, 9660, Note_on_c, 5, 65, 0
7, 9690, Note_on_c, 5, 63, 67
7, 9720, Note_on_c, 5, 63, 0
7, 9750, Note_on_c, 5, 62, 66
7, 9780, Note_on_c, 5, 62, 0
7, 9810, Note_on_c, 5, 77, 52
7, 9840, Note_on_c, 5, 77, 0
7, 9870, Note_on_c, 5, 75, 64
7, 9900, Note_on_c, 5, 75, 0
7, 9930, Note_on_c, 5, 74, 55
7, 9960, Note_on_c, 5, 74, 0
7, 9990, Note_on_c, 5, 72, 63
7, 10020, Note_on_c, 5, 72, 0
7, 10050, Note_on_c, 5, 71, 55
7, 10080, Note_on_c, 5, 71, 0
7, 10140, Note_on_c, 5, 72, 67
7, 10200, Note_on_c, 5, 72, 0
7, 10260, Note_on_c, 5, 75, 62
7, 10320, Note_on_c, 5, 75, 0
7, 10380, Note_on_c, 5, 79, 64
7, 10440, Note_on_c, 5, 79, 0
7, 10500, Note_on_c, 5, 70, 62
7, 10560, Note_on_c, 5, 70, 0
7, 10560, Note_on_c, 5, 70, 64
7, 10620, Note_on_c, 5, 70, 0
7, 10620, Note_on_c, 5, 70, 64
7, 10680, Note_on_c, 5, 70, 0
7, 10680, Note_on_c, 5, 69, 64
7, 10740, Note_on_c, 5, 69, 0
7, 10740, Note_on_c, 5, 69, 77
7, 10800, Note_on_c, 5, 69, 0
7, 10800, Note_on_c, 5, 58, 71
7, 10920, Note_on_c, 5, 58, 0
7, 10920, Note_on_c, 5, 61, 82
7, 11040, Note_on_c, 5, 61, 0
7, 11040, Note_on_c, 5, 63, 98
7, 11130, Note_on_c, 5, 63, 0
7, 11145, Note_on_c, 5, 66, 101
7, 11160, Note_on_c, 5, 66, 0
7, 11160, Note_on_c, 5, 61, 93
7, 11280, Note_on_c, 5, 61, 0
7, 11280, Note_on_c, 5, 60, 89
7, 11340, Note_on_c, 5, 60, 0
7, 11400, Note_on_c, 5, 65, 99
7, 11490, Note_on_c, 5, 65, 0
7, 11505, Note_on_c, 5, 68, 90
7, 11520, Note_on_c, 5, 68, 0
7, 11520, Note_on_c, 5, 63, 95
7, 11640, Note_on_c, 5, 63, 0
7, 11640, Note_on_c, 5, 62, 89
7, 11700, Note_on_c, 5, 62, 0
7, 11760, Note_on_c, 5, 70, 101
7, 11850, Note_on_c, 5, 70, 0
7, 11865, Note_on_c, 5, 69, 94
7, 11880, Note_on_c, 5, 69, 0
7, 11880, Note_on_c, 5, 69, 99
7, 11910, Note_on_c, 5, 69, 0
7, 11940, Note_on_c, 5, 81, 98
7, 11940, Note_on_c, 5, 69, 99
7, 12060, Note_on_c, 5, 69, 0
7, 12060, Note_on_c, 5, 81, 0
7, 12060, Note_on_c, 5, 81, 94
7, 12060, Note_on_c, 5, 69, 101
7, 12180, Note_on_c, 5, 69, 0
7, 12180, Note_on_c, 5, 81, 0
7, 12180, Note_on_c, 5, 81, 98
7, 12180, Note_on_c, 5, 69, 101
7, 12240, Note_on_c, 5, 69, 0
7, 12240, Note_on_c, 5, 81, 0
7, 12240, Note_on_c, 5, 82, 90
7, 12240, Note_on_c, 5, 70, 95
7, 12300, Note_on_c, 5, 70, 0
7, 12300, Note_on_c, 5, 82, 0
7, 12300, Note_on_c, 5, 58, 59
7, 12360, Note_on_c, 5, 58, 0
7, 12360, Note_on_c, 5, 62, 44
7, 12420, Note_on_c, 5, 62, 0
7, 12420, Note_on_c, 5, 58, 56
7, 12480, Note_on_c, 5, 58, 0
7, 12480, Note_on_c, 5, 63, 44
7, 12540, Note_on_c, 5, 63, 0
7, 12540, Note_on_c, 5, 58, 62
7, 12600, Note_on_c, 5, 58, 0
7, 12600, Note_on_c, 5, 65, 45
7, 12660, Note_on_c, 5, 65, 0
7, 12660, Note_on_c, 5, 58, 52
7, 12720, Note_on_c, 5, 58, 0
7, 12720, Note_on_c, 5, 67, 42
7, 12780, Note_on_c, 5, 67, 0
7, 12780, Note_on_c, 5, 58, 44
7, 12840, Note_on_c, 5, 58, 0
7, 12840, Note_on_c, 5, 68, 58
7, 12900, Note_on_c, 5, 68, 0
7, 12900, Note_on_c, 5, 58, 73
7, 12960, Note_on_c, 5, 58, 0
7, 12960, Note_on_c, 5, 67, 62
7, 13020, Note_on_c, 5, 67, 0
7, 14760, Program_c, 5, 45
7, 14820, Note_on_c, 5, 67, 78
7, 14880, Note_on_c, 5, 67, 0
7, 14940, Note_on_c, 5, 67, 81
7, 15000, Note_on_c, 5, 67, 0
7, 15060, Note_on_c, 5, 68, 80
7, 15120, Note_on_c, 5, 68, 0
7, 15180, Note_on_c, 5, 67, 77
7, 15240, Note_on_c, 5, 67, 0
7, 15300, Note_on_c, 5, 65, 84
7, 15360, Note_on_c, 5, 65, 0
7, 15360, Note_on_c, 5, 70, 89
7, 15420, Note_on_c, 5, 70, 0
7, 15420, Note_on_c, 5, 70, 77
7, 15480, Note_on_c, 5, 70, 0
7, 15540, Note_on_c, 5, 68, 86
7, 15600, Note_on_c, 5, 68, 0
7, 15660, Note_on_c, 5, 68, 93
7, 15720, Note_on_c, 5, 68, 0
7, 15780, Note_on_c, 5, 67, 81
7, 15840, Note_on_c, 5, 67, 0
7, 15900, Note_on_c, 5, 65, 76
7, 15960, Note_on_c, 5, 65, 0
7, 16020, Note_on_c, 5, 63, 77
7, 16080, Note_on_c, 5, 63, 0
7, 16140, Note_on_c, 5, 65, 65
7, 16200, Note_on_c, 5, 65, 0
7, 16260, Note_on_c, 5, 68, 80
7, 16320, Note_on_c, 5, 68, 0
7, 16380, Note_on_c, 5, 67, 80
7, 16440, Note_on_c, 5, 67, 0
7, 16440, Note_on_c, 5, 67, 72
7, 16500, Note_on_c, 5, 67, 0
7, 16500, Note_on_c, 5, 67, 70
7, 16560, Note_on_c, 5, 67, 0
7, 16620, Note_on_c, 5, 68, 78
7, 16680, Note_on_c, 5, 68, 0
7, 16740, Note_on_c, 5, 68, 80
7, 16800, Note_on_c, 5, 68, 0
7, 16860, Note_on_c, 5, 67, 74
7, 16920, Note_on_c, 5, 67, 0
7, 16980, Note_on_c, 5, 65, 76
7, 17040, Note_on_c, 5, 65, 0
7, 17100, Note_on_c, 5, 65, 72
7, 17160, Note_on_c, 5, 65, 0
7, 17220, Note_on_c, 5, 65, 77
7, 17280, Note_on_c, 5, 65, 0
7, 17280, Note_on_c, 5, 65, 74
7, 17400, Note_on_c, 5, 65, 0
7, 17400, Program_c, 5, 48
7, 17460, Note_on_c, 5, 63, 71
7, 17520, Note_on_c, 5, 63, 0
7, 17520, Note_on_c, 5, 68, 89
7, 17580, Note_on_c, 5, 68, 0
7, 17580, Note_on_c, 5, 72, 68
7, 17640, Note_on_c, 5, 72, 0
7, 17640, Note_on_c, 5, 70, 99
7, 17730, Note_on_c, 5, 70, 0
7, 17730, Note_on_c, 5, 68, 90
7, 17760, Note_on_c, 5, 68, 0
7, 17760, Note_on_c, 5, 67, 76
7, 17790, Note_on_c, 5, 67, 0
7, 18180, Note_on_c, 5, 68, 63
7, 18240, Note_on_c, 5, 68, 0
7, 18240, Note_on_c, 5, 73, 80
7, 18300, Note_on_c, 5, 73, 0
7, 18300, Note_on_c, 5, 77, 90
7, 18360, Note_on_c, 5, 77, 0
7, 18360, Note_on_c, 5, 75, 98
7, 18450, Note_on_c, 5, 75, 0
7, 18450, Note_on_c, 5, 73, 77
7, 18480, Note_on_c, 5, 73, 0
7, 18480, Note_on_c, 5, 72, 43
7, 18510, Note_on_c, 5, 72, 0
7, 18570, Note_on_c, 5, 68, 67
7, 18600, Note_on_c, 5, 68, 0
7, 18630, Note_on_c, 5, 73, 68
7, 18660, Note_on_c, 5, 73, 0
7, 18690, Note_on_c, 5, 77, 67
7, 18720, Note_on_c, 5, 77, 0
7, 18750, Note_on_c, 5, 75, 70
7, 18780, Note_on_c, 5, 75, 0
7, 18810, Note_on_c, 5, 73, 58
7, 18840, Note_on_c, 5, 73, 0
7, 18870, Note_on_c, 5, 72, 44
7, 18900, Note_on_c, 5, 72, 0
7, 18930, Note_on_c, 5, 70, 65
7, 18960, Note_on_c, 5, 70, 0
7, 18990, Note_on_c, 5, 68, 62
7, 19020, Note_on_c, 5, 68, 0
7, 19050, Note_on_c, 5, 67, 60
7, 19080, Note_on_c, 5, 67, 0
7, 19140, Note_on_c, 5, 65, 65
7, 19200, Note_on_c, 5, 65, 0
7, 19260, Note_on_c, 5, 63, 66
7, 19320, Note_on_c, 5, 63, 0
7, 19380, Note_on_c, 5, 62, 68
7, 19440, Note_on_c, 5, 62, 0
7, 19470, Note_on_c, 5, 58, 61
7, 19500, Note_on_c, 5, 58, 0
7, 19500, Note_on_c, 5, 63, 56
7, 19530, Note_on_c, 5, 63, 0
7, 19530, Note_on_c, 5, 58, 53
7, 19560, Note_on_c, 5, 58, 0
7, 19590, Note_on_c, 5, 58, 67
7, 19620, Note_on_c, 5, 58, 0
7, 19620, Note_on_c, 5, 63, 56
7, 19650, Note_on_c, 5, 63, 0
7, 19650, Note_on_c, 5, 58, 57
7, 19680, Note_on_c, 5, 58, 0
7, 19710, Note_on_c, 5, 58, 63
7, 19740, Note_on_c, 5, 58, 0
7, 19740, Note_on_c, 5, 63, 52
7, 19770, Note_on_c, 5, 63, 0
7, 19770, Note_on_c, 5, 58, 58
7, 19800, Note_on_c, 5, 58, 0
7, 19830, Note_on_c, 5, 60, 51
7, 19860, Note_on_c, 5, 60, 0
7, 19860, Note_on_c, 5, 63, 64
7, 19890, Note_on_c, 5, 63, 0
7, 19890, Note_on_c, 5, 60, 61
7, 19920, Note_on_c, 5, 60, 0
7, 19950, Note_on_c, 5, 60, 70
7, 19980, Note_on_c, 5, 60, 0
7, 19980, Note_on_c, 5, 63, 64
7, 20010, Note_on_c, 5, 63, 0
7, 20010, Note_on_c, 5, 60, 66
7, 20040, Note_on_c, 5, 60, 0
7, 20070, Note_on_c, 5, 60, 68
7, 20100, Note_on_c, 5, 60, 0
7, 20100, Note_on_c, 5, 63, 65
7, 20130, Note_on_c, 5, 63, 0
7, 20130, Note_on_c, 5, 60, 68
7, 20160, Note_on_c, 5, 60, 0
7, 20190, Note_on_c, 5, 58, 60
7, 20220, Note_on_c, 5, 58, 0
7, 20220, Note_on_c, 5, 63, 45
7, 20250, Note_on_c, 5, 63, 0
7, 20250, Note_on_c, 5, 58, 44
7, 20280, Note_on_c, 5, 58, 0
7, 20310, Note_on_c, 5, 58, 54
7, 20340, Note_on_c, 5, 58, 0
7, 20340, Note_on_c, 5, 67, 53
7, 20370, Note_on_c, 5, 67, 0
7, 20370, Note_on_c, 5, 58, 66
7, 20400, Note_on_c, 5, 58, 0
7, 20430, Note_on_c, 5, 62, 64
7, 20460, Note_on_c, 5, 62, 0
7, 20460, Note_on_c, 5, 62, 65
7, 20490, Note_on_c, 5, 62, 0
7, 20490, Note_on_c, 5, 62, 57
7, 20520, Note_on_c, 5, 62, 0
7, 20520, Note_on_c, 5, 63, 62
7, 20550, Note_on_c, 5, 63, 0
7, 20580, Note_on_c, 5, 75, 64
7, 20640, Note_on_c, 5, 75, 0
7, 20640, Note_on_c, 5, 74, 71
7, 20700, Note_on_c, 5, 74, 0
7, 20700, Note_on_c, 5, 75, 76
7, 20760, Note_on_c, 5, 75, 0
7, 20760, Note_on_c, 5, 74, 86
7, 20820, Note_on_c, 5, 74, 0
7, 20820, Note_on_c, 5, 72, 52
7, 20880, Note_on_c, 5, 72, 0
7, 20880, Note_on_c, 5, 70, 58
7, 20895, Note_on_c, 5, 70, 0
7, 20910, Note_on_c, 5, 70, 72
7, 20940, Note_on_c, 5, 70, 0
7, 20940, Note_on_c, 5, 75, 54
7, 20970, Note_on_c, 5, 75, 0
7, 20970, Note_on_c, 5, 70, 74
7, 21000, Note_on_c, 5, 70, 0
7, 21030, Note_on_c, 5, 70, 65
7, 21060, Note_on_c, 5, 70, 0
7, 21060, Note_on_c, 5, 75, 56
7, 21090, Note_on_c, 5, 75, 0
7, 21090, Note_on_c, 5, 70, 54
7, 21120, Note_on_c, 5, 70, 0
7, 21150, Note_on_c, 5, 70, 63
7, 21180, Note_on_c, 5, 70, 0
7, 21180, Note_on_c, 5, 75, 63
7, 21210, Note_on_c, 5, 75, 0
7, 21210, Note_on_c, 5, 70, 73
7, 21240, Note_on_c, 5, 70, 0
7, 21270, Note_on_c, 5, 72, 62
7, 21300, Note_on_c, 5, 72, 0
7, 21300, Note_on_c, 5, 75, 65
7, 21330, Note_on_c, 5, 75, 0
7, 21330, Note_on_c, 5, 72, 68
7, 21360, Note_on_c, 5, 72, 0
7, 21390, Note_on_c, 5, 72, 59
7, 21420, Note_on_c, 5, 72, 0
7, 21420, Note_on_c, 5, 75, 60
7, 21450, Note_on_c, 5, 75, 0
7, 21450, Note_on_c, 5, 72, 65
7, 21480, Note_on_c, 5, 72, 0
7, 21510, Note_on_c, 5, 72, 64
7, 21540, Note_on_c, 5, 72, 0
7, 21540, Note_on_c, 5, 75, 60
7, 21570, Note_on_c, 5, 75, 0
7, 21570, Note_on_c, 5, 72, 69
7, 21600, Note_on_c, 5, 72, 0
7, 21600, Note_on_c, 5, 70, 43
7, 21600, Note_on_c, 5, 63, 58
7, 21660, Note_on_c, 5, 63, 0
7, 21660, Note_on_c, 5, 70, 0
7, 23040, Note_on_c, 5, 57, 77
7, 23100, Note_on_c, 5, 57, 0
7, 23160, Note_on_c, 5, 58, 71
7, 23220, Note_on_c, 5, 58, 0
7, 23280, Note_on_c, 5, 59, 57
7, 23340, Note_on_c, 5, 59, 0
7, 23400, Note_on_c, 5, 57, 55
7, 23460, Note_on_c, 5, 57, 0
7, 23520, Note_on_c, 5, 60, 45
7, 23580, Note_on_c, 5, 60, 0
7, 23640, Note_on_c, 5, 57, 43
7, 23700, Note_on_c, 5, 57, 0
7, 23760, Note_on_c, 5, 58, 33
7, 23820, Note_on_c, 5, 58, 0
7, 24180, Note_on_c, 5, 65, 45
7, 24180, Note_on_c, 5, 56, 40
7, 24240, Note_on_c, 5, 56, 0
7, 24240, Note_on_c, 5, 65, 0
7, 24300, Note_on_c, 5, 65, 43
7, 24300, Note_on_c, 5, 56, 35
7, 24360, Note_on_c, 5, 56, 0
7, 24360, Note_on_c, 5, 65, 0
7, 24420, Note_on_c, 5, 65, 35
7, 24420, Note_on_c, 5, 56, 40
7, 24480, Note_on_c, 5, 56, 0
7, 24480, Note_on_c, 5, 65, 0
7, 24480, Note_on_c, 5, 63, 86
7, 24600, Note_on_c, 5, 63, 0
7, 24600, Note_on_c, 5, 67, 90
7, 24720, Note_on_c, 5, 67, 0
7, 24720, Note_on_c, 5, 68, 95
7, 24810, Note_on_c, 5, 68, 0
7, 24825, Note_on_c, 5, 71, 90
7, 24840, Note_on_c, 5, 71, 0
7, 24840, Note_on_c, 5, 66, 95
7, 24960, Note_on_c, 5, 66, 0
7, 24960, Note_on_c, 5, 65, 84
7, 25020, Note_on_c, 5, 65, 0
7, 25140, Note_on_c, 5, 70, 86
7, 25200, Note_on_c, 5, 70, 0
7, 25200, Note_on_c, 5, 68, 104
7, 25320, Note_on_c, 5, 68, 0
7, 25320, Note_on_c, 5, 67, 84
7, 25380, Note_on_c, 5, 67, 0
7, 25470, Note_on_c, 5, 67, 82
7, 25485, Note_on_c, 5, 67, 0
7, 25500, Note_on_c, 5, 67, 76
7, 25515, Note_on_c, 5, 67, 0
7, 25530, Note_on_c, 5, 67, 77
7, 25545, Note_on_c, 5, 67, 0
7, 25560, Note_on_c, 5, 68, 104
7, 25590, Note_on_c, 5, 68, 0
7, 25590, Note_on_c, 5, 68, 89
7, 25620, Note_on_c, 5, 68, 0
7, 25620, Note_on_c, 5, 68, 84
7, 25650, Note_on_c, 5, 68, 0
7, 25650, Note_on_c, 5, 68, 86
7, 25680, Note_on_c, 5, 68, 0
7, 25680, Note_on_c, 5, 69, 104
7, 25680, Note_on_c, 5, 63, 99
7, 25710, Note_on_c, 5, 63, 0
7, 25710, Note_on_c, 5, 69, 0
7, 25710, Note_on_c, 5, 69, 80
7, 25710, Note_on_c, 5, 63, 77
7, 25740, Note_on_c, 5, 63, 0
7, 25740, Note_on_c, 5, 69, 0
7, 25740, Note_on_c, 5, 69, 80
7, 25740, Note_on_c, 5, 63, 76
7, 25770, Note_on_c, 5, 63, 0
7, 25770, Note_on_c, 5, 69, 0
7, 25770, Note_on_c, 5, 69, 76
7, 25770, Note_on_c, 5, 63, 73
7, 25800, Note_on_c, 5, 63, 0
7, 25800, Note_on_c, 5, 69, 0
7, 25800, Note_on_c, 5, 69, 68
7, 25800, Note_on_c, 5, 63, 68
7, 25830, Note_on_c, 5, 63, 0
7, 25830, Note_on_c, 5, 69, 0
7, 25830, Note_on_c, 5, 69, 73
7, 25830, Note_on_c, 5, 63, 73
7, 25860, Note_on_c, 5, 63, 0
7, 25860, Note_on_c, 5, 69, 0
7, 25860, Note_on_c, 5, 69, 71
7, 25860, Note_on_c, 5, 63, 69
7, 25890, Note_on_c, 5, 63, 0
7, 25890, Note_on_c, 5, 69, 0
7, 25890, Note_on_c, 5, 69, 77
7, 25890, Note_on_c, 5, 63, 80
7, 25920, Note_on_c, 5, 63, 0
7, 25920, Note_on_c, 5, 69, 0
7, 25920, Note_on_c, 5, 70, 101
7, 25920, Note_on_c, 5, 63, 105
7, 25950, Note_on_c, 5, 63, 0
7, 25950, Note_on_c, 5, 70, 0
7, 25950, Note_on_c, 5, 70, 68
7, 25950, Note_on_c, 5, 63, 67
7, 25980, Note_on_c, 5, 63, 0
7, 25980, Note_on_c, 5, 70, 0
7, 25980, Note_on_c, 5, 70, 70
7, 25980, Note_on_c, 5, 63, 57
7, 26010, Note_on_c, 5, 63, 0
7, 26010, Note_on_c, 5, 70, 0
7, 26010, Note_on_c, 5, 70, 72
7, 26010, Note_on_c, 5, 63, 65
7, 26040, Note_on_c, 5, 63, 0
7, 26040, Note_on_c, 5, 70, 0
7, 26040, Note_on_c, 5, 72, 90
7, 26040, Note_on_c, 5, 63, 99
7, 26070, Note_on_c, 5, 63, 0
7, 26070, Note_on_c, 5, 72, 0
7, 26070, Note_on_c, 5, 72, 52
7, 26070, Note_on_c, 5, 63, 77
7, 26100, Note_on_c, 5, 63, 0
7, 26100, Note_on_c, 5, 72, 0
7, 26100, Note_on_c, 5, 72, 43
7, 26100, Note_on_c, 5, 63, 73
7, 26130, Note_on_c, 5, 63, 0
7, 26130, Note_on_c, 5, 72, 0
7, 26130, Note_on_c, 5, 72, 62
7, 26130, Note_on_c, 5, 63, 76
7, 26160, Note_on_c, 5, 63, 0
7, 26160, Note_on_c, 5, 72, 0
7, 26160, Note_on_c, 5, 69, 99
7, 26160, Note_on_c, 5, 63, 99
7, 26190, Note_on_c, 5, 63, 0
7, 26190, Note_on_c, 5, 69, 0
7, 26190, Note_on_c, 5, 69, 80
7, 26190, Note_on_c, 5, 63, 77
7, 26220, Note_on_c, 5, 63, 0
7, 26220, Note_on_c, 5, 69, 0
7, 26220, Note_on_c, 5, 69, 73
7, 26220, Note_on_c, 5, 63, 76
7, 26250, Note_on_c, 5, 63, 0
7, 26250, Note_on_c, 5, 69, 0
7, 26250, Note_on_c, 5, 69, 74
7, 26250, Note_on_c, 5, 63, 76
7, 26280, Note_on_c, 5, 63, 0
7, 26280, Note_on_c, 5, 69, 0
7, 26280, Note_on_c, 5, 70, 82
7, 26280, Note_on_c, 5, 63, 95
7, 26520, Note_on_c, 5, 63, 0
7, 26520, Note_on_c, 5, 70, 0
7, 27720, Note_on_c, 5, 67, 53
7, 27810, Note_on_c, 5, 67, 0
7, 27840, Note_on_c, 5, 67, 52
7, 27930, Note_on_c, 5, 67, 0
7, 27960, Note_on_c, 5, 68, 67
7, 28050, Note_on_c, 5, 68, 0
7, 28065, Note_on_c, 5, 72, 64
7, 28080, Note_on_c, 5, 72, 0
7, 28080, Note_on_c, 5, 65, 43
7, 28200, Note_on_c, 5, 65, 0
7, 28800, Note_on_c, 5, 68, 53
7, 28890, Note_on_c, 5, 68, 0
7, 28920, Note_on_c, 5, 68, 62
7, 29010, Note_on_c, 5, 68, 0
7, 29040, Note_on_c, 5, 68, 45
7, 29130, Note_on_c, 5, 68, 0
7, 29130, Note_on_c, 5, 70, 45
7, 29160, Note_on_c, 5, 70, 0
7, 29160, Note_on_c, 5, 67, 44
7, 29280, Note_on_c, 5, 67, 0
7, 29520, Note_on_c, 5, 65, 52
7, 29610, Note_on_c, 5, 65, 0
7, 29640, Note_on_c, 5, 65, 46
7, 29730, Note_on_c, 5, 65, 0
7, 29760, Note_on_c, 5, 65, 53
7, 29850, Note_on_c, 5, 65, 0
7, 29850, Note_on_c, 5, 67, 45
7, 29880, Note_on_c, 5, 67, 0
7, 29880, Note_on_c, 5, 63, 62
7, 30000, Note_on_c, 5, 63, 0
7, 31320, Note_on_c, 5, 62, 65
7, 31410, Note_on_c, 5, 62, 0
7, 31440, Note_on_c, 5, 62, 64
7, 31530, Note_on_c, 5, 62, 0
7, 31560, Note_on_c, 5, 62, 53
7, 31650, Note_on_c, 5, 62, 0
7, 31680, Note_on_c, 5, 63, 76
7, 31800, Note_on_c, 5, 63, 0
7, 31800, Note_on_c, 5, 58, 86
7, 31920, Note_on_c, 5, 58, 0
7, 31920, Note_on_c, 5, 62, 65
7, 32040, Note_on_c, 5, 62, 0
7, 32040, Note_on_c, 5, 63, 69
7, 32160, Note_on_c, 5, 63, 0
7, 32160, Note_on_c, 5, 58, 93
7, 32280, Note_on_c, 5, 58, 0
7, 32280, Note_on_c, 5, 62, 71
7, 32400, Note_on_c, 5, 62, 0
7, 32400, Note_on_c, 5, 63, 67
7, 32520, Note_on_c, 5, 63, 0
7, 32520, Program_c, 5, 45
7, 32640, Note_on_c, 5, 63, 50
7, 32640, Note_on_c, 5, 55, 68
7, 32760, Note_on_c, 5, 55, 0
7, 32760, Note_on_c, 5, 63, 0
7, 32760, Note_on_c, 5, 63, 48
7, 32760, Note_on_c, 5, 55, 74
7, 32880, Note_on_c, 5, 55, 0
7, 32880, Note_on_c, 5, 63, 0
7, 32880, End_track
8, 0, Start_track
8, 0, MIDI_port, 0
8, 0, Title_t, "2nd Violins"
8, 0, Program_c, 6, 48
8, 0, Control_c, 6, 7, 100
8, 0, Control_c, 6, 10, 9
8, 0, Control_c, 6, 93, 0
8, 0, Control_c, 6, 91, 66
8, 0, Note_on_c, 6, 63, 40
8, 0, Note_on_c, 6, 55, 58
8, 90, Note_on_c, 6, 55, 0
8, 90, Note_on_c, 6, 63, 0
8, 120, Note_on_c, 6, 63, 44
8, 120, Note_on_c, 6, 55, 67
8, 210, Note_on_c, 6, 55, 0
8, 210, Note_on_c, 6, 63, 0
8, 240, Note_on_c, 6, 60, 49
8, 240, Note_on_c, 6, 65, 49
8, 360, Note_on_c, 6, 65, 0
8, 360, Note_on_c, 6, 60, 0
8, 360, Note_on_c, 6, 63, 61
8, 480, Note_on_c, 6, 63, 0
8, 480, Note_on_c, 6, 62, 71
8, 540, Note_on_c, 6, 62, 0
8, 720, Note_on_c, 6, 63, 72
8, 840, Note_on_c, 6, 63, 0
8, 840, Note_on_c, 6, 65, 93
8, 960, Note_on_c, 6, 65, 0
8, 960, Note_on_c, 6, 63, 67
8, 1080, Note_on_c, 6, 63, 0
8, 1080, Control_c, 6, 7, 101
8, 1080, Note_on_c, 6, 63, 84
8, 1080, Note_on_c, 6, 60, 76
8, 1096, Control_c, 6, 7, 102
8, 1110, Control_c, 6, 7, 103
8, 1124, Control_c, 6, 7, 104
8, 1138, Control_c, 6, 7, 105
8, 1152, Control_c, 6, 7, 106
8, 1166, Control_c, 6, 7, 107
8, 1180, Control_c, 6, 7, 108
8, 1194, Control_c, 6, 7, 109
8, 1208, Control_c, 6, 7, 110
8, 1222, Control_c, 6, 7, 111
8, 1236, Control_c, 6, 7, 112
8, 1250, Control_c, 6, 7, 113
8, 1264, Control_c, 6, 7, 114
8, 1278, Control_c, 6, 7, 115
8, 1292, Control_c, 6, 7, 116
8, 1306, Control_c, 6, 7, 117
8, 1320, Note_on_c, 6, 60, 0
8, 1320, Note_on_c, 6, 63, 0
8, 1320, Note_on_c, 6, 60, 76
8, 1320, Note_on_c, 6, 63, 80
8, 1320, Control_c, 6, 7, 118
8, 1334, Control_c, 6, 7, 119
8, 1348, Control_c, 6, 7, 120
8, 1362, Control_c, 6, 7, 121
8, 1376, Control_c, 6, 7, 122
8, 1390, Control_c, 6, 7, 123
8, 1404, Control_c, 6, 7, 124
8, 1438, Control_c, 6, 7, 99
8, 1440, Note_on_c, 6, 63, 0
8, 1440, Note_on_c, 6, 60, 0
8, 1440, Note_on_c, 6, 63, 90
8, 1440, Note_on_c, 6, 60, 89
8, 1680, Note_on_c, 6, 60, 0
8, 1680, Note_on_c, 6, 63, 0
8, 1680, Note_on_c, 6, 60, 77
8, 1680, Note_on_c, 6, 63, 74
8, 1800, Note_on_c, 6, 63, 0
8, 1800, Note_on_c, 6, 60, 0
8, 1800, Note_on_c, 6, 63, 95
8, 1980, Note_on_c, 6, 63, 0
8, 2025, Note_on_c, 6, 63, 99
8, 2040, Note_on_c, 6, 63, 0
8, 2040, Note_on_c, 6, 63, 99
8, 2130, Note_on_c, 6, 63, 0
8, 2145, Note_on_c, 6, 63, 95
8, 2160, Note_on_c, 6, 63, 0
8, 2160, Note_on_c, 6, 62, 101
8, 2220, Note_on_c, 6, 62, 0
8, 2220, Note_on_c, 6, 58, 84
8, 2280, Note_on_c, 6, 58, 0
8, 2280, Note_on_c, 6, 68, 69
8, 2340, Note_on_c, 6, 68, 0
8, 2340, Note_on_c, 6, 58, 62
8, 2400, Note_on_c, 6, 58, 0
8, 2400, Note_on_c, 6, 67, 62
8, 2460, Note_on_c, 6, 67, 0
8, 2460, Note_on_c, 6, 58, 71
8, 2520, Note_on_c, 6, 58, 0
8, 2520, Note_on_c, 6, 65, 72
8, 2580, Note_on_c, 6, 65, 0
8, 2580, Note_on_c, 6, 58, 90
8, 2640, Note_on_c, 6, 58, 0
8, 2640, Note_on_c, 6, 68, 86
8, 2760, Note_on_c, 6, 68, 0
8, 2760, Note_on_c, 6, 68, 80
8, 2790, Note_on_c, 6, 68, 0
8, 2790, Note_on_c, 6, 67, 89
8, 2820, Note_on_c, 6, 67, 0
8, 2820, Note_on_c, 6, 66, 98
8, 2850, Note_on_c, 6, 66, 0
8, 2850, Note_on_c, 6, 67, 99
8, 2880, Note_on_c, 6, 67, 0
8, 2880, Note_on_c, 6, 65, 53
8, 3000, Note_on_c, 6, 65, 0
8, 3150, Note_on_c, 6, 74, 77
8, 3150, Note_on_c, 6, 65, 94
8, 3165, Note_on_c, 6, 65, 0
8, 3165, Note_on_c, 6, 74, 0
8, 3180, Note_on_c, 6, 75, 80
8, 3180, Note_on_c, 6, 67, 89
8, 3195, Note_on_c, 6, 67, 0
8, 3195, Note_on_c, 6, 75, 0
8, 3210, Note_on_c, 6, 75, 84
8, 3210, Note_on_c, 6, 67, 94
8, 3225, Note_on_c, 6, 67, 0
8, 3225, Note_on_c, 6, 75, 0
8, 3240, Note_on_c, 6, 74, 78
8, 3240, Note_on_c, 6, 65, 84
8, 3300, Note_on_c, 6, 65, 0
8, 3300, Note_on_c, 6, 74, 0
8, 3360, Note_on_c, 6, 58, 77
8, 3375, Note_on_c, 6, 58, 0
8, 3375, Note_on_c, 6, 60, 78
8, 3390, Note_on_c, 6, 60, 0
8, 3390, Note_on_c, 6, 62, 73
8, 3405, Note_on_c, 6, 62, 0
8, 3405, Note_on_c, 6, 63, 84
8, 3420, Note_on_c, 6, 63, 0
8, 3420, Note_on_c, 6, 65, 93
8, 3435, Note_on_c, 6, 65, 0
8, 3435, Note_on_c, 6, 67, 81
8, 3450, Note_on_c, 6, 67, 0
8, 3450, Note_on_c, 6, 68, 94
8, 3465, Note_on_c, 6, 68, 0
8, 3465, Note_on_c, 6, 69, 101
8, 3480, Note_on_c, 6, 69, 0
8, 3480, Note_on_c, 6, 70, 82
8, 3495, Note_on_c, 6, 70, 0
8, 3510, Note_on_c, 6, 70, 84
8, 3510, Note_on_c, 6, 62, 104
8, 3525, Note_on_c, 6, 62, 0
8, 3525, Note_on_c, 6, 70, 0
8, 3540, Note_on_c, 6, 70, 89
8, 3540, Note_on_c, 6, 63, 94
8, 3555, Note_on_c, 6, 63, 0
8, 3555, Note_on_c, 6, 70, 0
8, 3570, Note_on_c, 6, 70, 82
8, 3570, Note_on_c, 6, 63, 94
8, 3585, Note_on_c, 6, 63, 0
8, 3585, Note_on_c, 6, 70, 0
8, 3600, Note_on_c, 6, 70, 64
8, 3600, Note_on_c, 6, 62, 89
8, 3660, Note_on_c, 6, 62, 0
8, 3660, Note_on_c, 6, 70, 0
8, 3705, Note_on_c, 6, 70, 104
8, 3720, Note_on_c, 6, 70, 0
8, 3720, Note_on_c, 6, 58, 99
8, 3780, Note_on_c, 6, 58, 0
8, 3825, Note_on_c, 6, 58, 95
8, 3840, Note_on_c, 6, 58, 0
8, 3840, Note_on_c, 6, 58, 94
8, 3930, Note_on_c, 6, 58, 0
8, 3945, Note_on_c, 6, 58, 95
8, 3960, Note_on_c, 6, 58, 0
8, 3960, Note_on_c, 6, 56, 98
8, 3960, Control_c, 6, 7, 99
8, 3972, Control_c, 6, 7, 98
8, 3982, Control_c, 6, 7, 97
8, 3992, Control_c, 6, 7, 96
8, 4004, Control_c, 6, 7, 95
8, 4014, Control_c, 6, 7, 94
8, 4024, Control_c, 6, 7, 93
8, 4036, Control_c, 6, 7, 92
8, 4046, Control_c, 6, 7, 91
8, 4056, Control_c, 6, 7, 90
8, 4066, Control_c, 6, 7, 89
8, 4078, Control_c, 6, 7, 88
8, 4088, Control_c, 6, 7, 87
8, 4098, Control_c, 6, 7, 86
8, 4110, Control_c, 6, 7, 85
8, 4120, Control_c, 6, 7, 84
8, 4130, Control_c, 6, 7, 83
8, 4140, Control_c, 6, 7, 82
8, 4152, Control_c, 6, 7, 81
8, 4162, Control_c, 6, 7, 80
8, 4172, Control_c, 6, 7, 79
8, 4184, Control_c, 6, 7, 78
8, 4194, Control_c, 6, 7, 77
8, 4204, Control_c, 6, 7, 76
8, 4216, Control_c, 6, 7, 75
8, 4226, Control_c, 6, 7, 74
8, 4236, Control_c, 6, 7, 73
8, 4246, Control_c, 6, 7, 72
8, 4258, Control_c, 6, 7, 71
8, 4268, Control_c, 6, 7, 70
8, 4278, Control_c, 6, 7, 69
8, 4290, Control_c, 6, 7, 68
8, 4300, Control_c, 6, 7, 67
8, 4310, Control_c, 6, 7, 66
8, 4320, Note_on_c, 6, 56, 0
8, 4320, Control_c, 6, 7, 65
8, 4320, Note_on_c, 6, 63, 78
8, 4320, Note_on_c, 6, 55, 94
8, 4380, Note_on_c, 6, 55, 0
8, 4380, Note_on_c, 6, 63, 0
8, 4504, Control_c, 6, 7, 99
8, 5760, Note_on_c, 6, 63, 95
8, 5760, Note_on_c, 6, 55, 90
8, 5820, Note_on_c, 6, 55, 0
8, 5820, Note_on_c, 6, 63, 0
8, 5820, Note_on_c, 6, 55, 99
8, 5850, Note_on_c, 6, 55, 0
8, 5880, Note_on_c, 6, 58, 90
8, 5910, Note_on_c, 6, 58, 0
8, 5940, Note_on_c, 6, 63, 95
8, 5970, Note_on_c, 6, 63, 0
8, 6000, Note_on_c, 6, 67, 99
8, 6030, Note_on_c, 6, 67, 0
8, 6060, Note_on_c, 6, 70, 98
8, 6090, Note_on_c, 6, 70, 0
8, 6120, Note_on_c, 6, 75, 101
8, 6150, Note_on_c, 6, 75, 0
8, 6180, Note_on_c, 6, 63, 52
8, 6225, Note_on_c, 6, 63, 0
8, 6240, Note_on_c, 6, 63, 43
8, 6285, Note_on_c, 6, 63, 0
8, 6300, Note_on_c, 6, 63, 58
8, 6345, Note_on_c, 6, 63, 0
8, 6360, Note_on_c, 6, 63, 61
8, 6405, Note_on_c, 6, 63, 0
8, 6420, Note_on_c, 6, 63, 62
8, 6465, Note_on_c, 6, 63, 0
8, 6540, Note_on_c, 6, 65, 47
8, 6600, Note_on_c, 6, 65, 0
8, 6600, Note_on_c, 6, 65, 69
8, 6660, Note_on_c, 6, 65, 0
8, 6660, Note_on_c, 6, 65, 56
8, 6720, Note_on_c, 6, 65, 0
8, 6720, Note_on_c, 6, 65, 64
8, 6780, Note_on_c, 6, 65, 0
8, 6780, Note_on_c, 6, 65, 66
8, 6840, Note_on_c, 6, 65, 0
8, 6900, Note_on_c, 6, 63, 48
8, 6960, Note_on_c, 6, 63, 0
8, 6960, Note_on_c, 6, 63, 66
8, 7020, Note_on_c, 6, 63, 0
8, 7020, Note_on_c, 6, 63, 51
8, 7080, Note_on_c, 6, 63, 0
8, 7080, Note_on_c, 6, 63, 46
8, 7140, Note_on_c, 6, 63, 0
8, 7140, Note_on_c, 6, 63, 57
8, 7200, Note_on_c, 6, 63, 0
8, 7260, Note_on_c, 6, 62, 45
8, 7320, Note_on_c, 6, 62, 0
8, 7320, Note_on_c, 6, 62, 49
8, 7380, Note_on_c, 6, 62, 0
8, 7380, Note_on_c, 6, 62, 59
8, 7440, Note_on_c, 6, 62, 0
8, 7440, Note_on_c, 6, 62, 58
8, 7500, Note_on_c, 6, 62, 0
8, 7500, Note_on_c, 6, 62, 56
8, 7560, Note_on_c, 6, 62, 0
8, 7620, Note_on_c, 6, 60, 63
8, 7650, Note_on_c, 6, 60, 0
8, 7680, Note_on_c, 6, 60, 54
8, 7740, Note_on_c, 6, 60, 0
8, 7740, Note_on_c, 6, 60, 64
8, 7800, Note_on_c, 6, 60, 0
8, 7800, Note_on_c, 6, 61, 52
8, 7860, Note_on_c, 6, 61, 0
8, 7860, Note_on_c, 6, 61, 68
8, 7920, Note_on_c, 6, 61, 0
8, 7920, Note_on_c, 6, 60, 65
8, 8040, Note_on_c, 6, 60, 0
8, 8100, Note_on_c, 6, 70, 76
8, 8160, Note_on_c, 6, 70, 0
8, 8160, Note_on_c, 6, 69, 94
8, 8220, Note_on_c, 6, 69, 0
8, 8220, Note_on_c, 6, 74, 104
8, 8280, Note_on_c, 6, 74, 0
8, 8280, Note_on_c, 6, 72, 99
8, 8340, Note_on_c, 6, 72, 0
8, 8340, Note_on_c, 6, 69, 84
8, 8400, Note_on_c, 6, 69, 0
8, 8400, Note_on_c, 6, 70, 80
8, 8430, Note_on_c, 6, 70, 0
8, 8820, Note_on_c, 6, 60, 68
8, 8880, Note_on_c, 6, 60, 0
8, 8880, Note_on_c, 6, 65, 65
8, 8940, Note_on_c, 6, 65, 0
8, 8940, Note_on_c, 6, 68, 84
8, 9000, Note_on_c, 6, 68, 0
8, 9000, Note_on_c, 6, 67, 86
8, 9090, Note_on_c, 6, 67, 0
8, 9090, Note_on_c, 6, 65, 81
8, 9120, Note_on_c, 6, 65, 0
8, 9120, Note_on_c, 6, 63, 73
8, 9150, Note_on_c, 6, 63, 0
8, 9210, Note_on_c, 6, 67, 51
8, 9240, Note_on_c, 6, 67, 0
8, 9270, Note_on_c, 6, 65, 50
8, 9300, Note_on_c, 6, 65, 0
8, 9330, Note_on_c, 6, 63, 62
8, 9360, Note_on_c, 6, 63, 0
8, 9390, Note_on_c, 6, 62, 57
8, 9420, Note_on_c, 6, 62, 0
8, 9450, Note_on_c, 6, 62, 55
8, 9480, Note_on_c, 6, 62, 0
8, 9510, Note_on_c, 6, 60, 65
8, 9540, Note_on_c, 6, 60, 0
8, 9570, Note_on_c, 6, 61, 52
8, 9600, Note_on_c, 6, 61, 0
8, 9630, Note_on_c, 6, 60, 46
8, 9660, Note_on_c, 6, 60, 0
8, 9690, Note_on_c, 6, 60, 46
8, 9720, Note_on_c, 6, 60, 0
8, 9750, Note_on_c, 6, 58, 54
8, 9780, Note_on_c, 6, 58, 0
8, 9810, Note_on_c, 6, 65, 48
8, 9840, Note_on_c, 6, 65, 0
8, 9870, Note_on_c, 6, 63, 58
8, 9900, Note_on_c, 6, 63, 0
8, 9930, Note_on_c, 6, 62, 59
8, 9960, Note_on_c, 6, 62, 0
8, 9990, Note_on_c, 6, 60, 46
8, 10020, Note_on_c, 6, 60, 0
8, 10050, Note_on_c, 6, 59, 62
8, 10080, Note_on_c, 6, 59, 0
8, 10140, Note_on_c, 6, 63, 53
8, 10200, Note_on_c, 6, 63, 0
8, 10260, Note_on_c, 6, 67, 44
8, 10320, Note_on_c, 6, 67, 0
8, 10380, Note_on_c, 6, 67, 46
8, 10440, Note_on_c, 6, 67, 0
8, 10500, Note_on_c, 6, 65, 46
8, 10560, Note_on_c, 6, 65, 0
8, 10560, Note_on_c, 6, 65, 45
8, 10620, Note_on_c, 6, 65, 0
8, 10620, Note_on_c, 6, 65, 52
8, 10680, Note_on_c, 6, 65, 0
8, 10680, Note_on_c, 6, 65, 46
8, 10740, Note_on_c, 6, 65, 0
8, 10740, Note_on_c, 6, 65, 57
8, 10800, Note_on_c, 6, 65, 0
8, 10800, Note_on_c, 6, 70, 61
8, 10860, Note_on_c, 6, 70, 0
8, 10860, Note_on_c, 6, 58, 76
8, 10980, Note_on_c, 6, 58, 0
8, 10980, Note_on_c, 6, 58, 98
8, 11100, Note_on_c, 6, 58, 0
8, 11100, Note_on_c, 6, 58, 84
8, 11160, Note_on_c, 6, 58, 0
8, 11160, Note_on_c, 6, 56, 98
8, 11175, Note_on_c, 6, 56, 0
8, 11175, Note_on_c, 6, 55, 104
8, 11190, Note_on_c, 6, 55, 0
8, 11190, Note_on_c, 6, 56, 94
8, 11205, Note_on_c, 6, 56, 0
8, 11205, Note_on_c, 6, 55, 99
8, 11220, Note_on_c, 6, 55, 0
8, 11220, Note_on_c, 6, 56, 98
8, 11235, Note_on_c, 6, 56, 0
8, 11235, Note_on_c, 6, 55, 101
8, 11250, Note_on_c, 6, 55, 0
8, 11250, Note_on_c, 6, 56, 99
8, 11265, Note_on_c, 6, 56, 0
8, 11265, Note_on_c, 6, 55, 101
8, 11280, Note_on_c, 6, 55, 0
8, 11280, Note_on_c, 6, 56, 80
8, 11400, Note_on_c, 6, 56, 0
8, 11400, Note_on_c, 6, 59, 105
8, 11520, Note_on_c, 6, 59, 0
8, 11520, Note_on_c, 6, 58, 101
8, 11535, Note_on_c, 6, 58, 0
8, 11535, Note_on_c, 6, 57, 110
8, 11550, Note_on_c, 6, 57, 0
8, 11550, Note_on_c, 6, 58, 95
8, 11565, Note_on_c, 6, 58, 0
8, 11565, Note_on_c, 6, 57, 107
8, 11580, Note_on_c, 6, 57, 0
8, 11580, Note_on_c, 6, 58, 95
8, 11595, Note_on_c, 6, 58, 0
8, 11595, Note_on_c, 6, 57, 110
8, 11610, Note_on_c, 6, 57, 0
8, 11610, Note_on_c, 6, 58, 99
8, 11625, Note_on_c, 6, 58, 0
8, 11625, Note_on_c, 6, 57, 110
8, 11640, Note_on_c, 6, 57, 0
8, 11640, Note_on_c, 6, 58, 76
8, 11760, Note_on_c, 6, 58, 0
8, 11760, Note_on_c, 6, 58, 101
8, 11850, Note_on_c, 6, 58, 0
8, 11865, Note_on_c, 6, 57, 95
8, 11880, Note_on_c, 6, 57, 0
8, 11880, Note_on_c, 6, 57, 98
8, 11910, Note_on_c, 6, 57, 0
8, 11940, Note_on_c, 6, 66, 99
8, 12060, Note_on_c, 6, 66, 0
8, 12060, Note_on_c, 6, 65, 104
8, 12120, Note_on_c, 6, 65, 0
8, 12120, Note_on_c, 6, 63, 94
8, 12180, Note_on_c, 6, 63, 0
8, 12180, Note_on_c, 6, 66, 90
8, 12240, Note_on_c, 6, 66, 0
8, 12240, Note_on_c, 6, 62, 101
8, 12300, Note_on_c, 6, 62, 0
8, 12300, Note_on_c, 6, 58, 56
8, 12420, Note_on_c, 6, 58, 0
8, 12420, Note_on_c, 6, 58, 44
8, 12480, Note_on_c, 6, 58, 0
8, 12480, Note_on_c, 6, 60, 43
8, 12540, Note_on_c, 6, 60, 0
8, 12540, Note_on_c, 6, 58, 53
8, 12600, Note_on_c, 6, 58, 0
8, 12600, Note_on_c, 6, 62, 43
8, 12660, Note_on_c, 6, 62, 0
8, 12660, Note_on_c, 6, 58, 52
8, 12720, Note_on_c, 6, 58, 0
8, 12720, Note_on_c, 6, 63, 45
8, 12780, Note_on_c, 6, 63, 0
8, 12780, Note_on_c, 6, 58, 52
8, 12840, Note_on_c, 6, 58, 0
8, 12840, Note_on_c, 6, 65, 63
8, 12900, Note_on_c, 6, 65, 0
8, 12900, Note_on_c, 6, 58, 56
8, 12960, Note_on_c, 6, 58, 0
8, 12960, Note_on_c, 6, 63, 44
8, 13020, Note_on_c, 6, 63, 0
8, 14760, Program_c, 6, 45
8, 14820, Note_on_c, 6, 63, 73
8, 14880, Note_on_c, 6, 63, 0
8, 14940, Note_on_c, 6, 63, 72
8, 15000, Note_on_c, 6, 63, 0
8, 15060, Note_on_c, 6, 65, 81
8, 15120, Note_on_c, 6, 65, 0
8, 15180, Note_on_c, 6, 63, 67
8, 15240, Note_on_c, 6, 63, 0
8, 15300, Note_on_c, 6, 62, 67
8, 15360, Note_on_c, 6, 62, 0
8, 15360, Note_on_c, 6, 65, 71
8, 15420, Note_on_c, 6, 65, 0
8, 15420, Note_on_c, 6, 65, 65
8, 15480, Note_on_c, 6, 65, 0
8, 15540, Note_on_c, 6, 63, 58
8, 15600, Note_on_c, 6, 63, 0
8, 15660, Note_on_c, 6, 65, 80
8, 15720, Note_on_c, 6, 65, 0
8, 15780, Note_on_c, 6, 63, 62
8, 15840, Note_on_c, 6, 63, 0
8, 15900, Note_on_c, 6, 60, 76
8, 15960, Note_on_c, 6, 60, 0
8, 16020, Note_on_c, 6, 58, 71
8, 16080, Note_on_c, 6, 58, 0
8, 16080, Note_on_c, 6, 62, 78
8, 16140, Note_on_c, 6, 62, 0
8, 16260, Note_on_c, 6, 65, 76
8, 16320, Note_on_c, 6, 65, 0
8, 16380, Note_on_c, 6, 63, 69
8, 16440, Note_on_c, 6, 63, 0
8, 16440, Note_on_c, 6, 63, 73
8, 16500, Note_on_c, 6, 63, 0
8, 16500, Note_on_c, 6, 63, 72
8, 16560, Note_on_c, 6, 63, 0
8, 16620, Note_on_c, 6, 63, 72
8, 16680, Note_on_c, 6, 63, 0
8, 16740, Note_on_c, 6, 65, 74
8, 16800, Note_on_c, 6, 65, 0
8, 16860, Note_on_c, 6, 63, 73
8, 16920, Note_on_c, 6, 63, 0
8, 16980, Note_on_c, 6, 63, 72
8, 17040, Note_on_c, 6, 63, 0
8, 17100, Note_on_c, 6, 63, 70
8, 17160, Note_on_c, 6, 63, 0
8, 17220, Note_on_c, 6, 63, 74
8, 17280, Note_on_c, 6, 63, 0
8, 17280, Note_on_c, 6, 62, 72
8, 17400, Note_on_c, 6, 62, 0
8, 17400, Program_c, 6, 48
8, 17460, Note_on_c, 6, 63, 73
8, 17520, Note_on_c, 6, 63, 0
8, 17520, Note_on_c, 6, 68, 89
8, 17580, Note_on_c, 6, 68, 0
8, 17580, Note_on_c, 6, 72, 62
8, 17640, Note_on_c, 6, 72, 0
8, 17640, Note_on_c, 6, 70, 99
8, 17730, Note_on_c, 6, 70, 0
8, 17730, Note_on_c, 6, 68, 80
8, 17760, Note_on_c, 6, 68, 0
8, 17760, Note_on_c, 6, 67, 80
8, 17790, Note_on_c, 6, 67, 0
8, 18180, Note_on_c, 6, 56, 53
8, 18240, Note_on_c, 6, 56, 0
8, 18240, Note_on_c, 6, 61, 82
8, 18300, Note_on_c, 6, 61, 0
8, 18300, Note_on_c, 6, 65, 86
8, 18360, Note_on_c, 6, 65, 0
8, 18360, Note_on_c, 6, 63, 93
8, 18450, Note_on_c, 6, 63, 0
8, 18450, Note_on_c, 6, 61, 74
8, 18480, Note_on_c, 6, 61, 0
8, 18480, Note_on_c, 6, 60, 78
8, 18510, Note_on_c, 6, 60, 0
8, 18570, Note_on_c, 6, 68, 61
8, 18600, Note_on_c, 6, 68, 0
8, 18630, Note_on_c, 6, 61, 71
8, 18660, Note_on_c, 6, 61, 0
8, 18690, Note_on_c, 6, 65, 65
8, 18720, Note_on_c, 6, 65, 0
8, 18750, Note_on_c, 6, 63, 71
8, 18780, Note_on_c, 6, 63, 0
8, 18810, Note_on_c, 6, 61, 63
8, 18840, Note_on_c, 6, 61, 0
8, 18870, Note_on_c, 6, 60, 68
8, 18900, Note_on_c, 6, 60, 0
8, 18930, Note_on_c, 6, 67, 62
8, 18960, Note_on_c, 6, 67, 0
8, 18990, Note_on_c, 6, 65, 64
8, 19020, Note_on_c, 6, 65, 0
8, 19050, Note_on_c, 6, 64, 72
8, 19080, Note_on_c, 6, 64, 0
8, 19140, Note_on_c, 6, 60, 74
8, 19200, Note_on_c, 6, 60, 0
8, 19260, Note_on_c, 6, 58, 65
8, 19320, Note_on_c, 6, 58, 0
8, 19380, Note_on_c, 6, 58, 58
8, 19440, Note_on_c, 6, 58, 0
8, 20580, Note_on_c, 6, 63, 52
8, 20640, Note_on_c, 6, 63, 0
8, 20640, Note_on_c, 6, 62, 67
8, 20700, Note_on_c, 6, 62, 0
8, 20700, Note_on_c, 6, 63, 71
8, 20760, Note_on_c, 6, 63, 0
8, 20760, Note_on_c, 6, 62, 80
8, 20820, Note_on_c, 6, 62, 0
8, 20820, Note_on_c, 6, 60, 72
8, 20880, Note_on_c, 6, 60, 0
8, 20880, Note_on_c, 6, 58, 55
8, 20940, Note_on_c, 6, 58, 0
8, 20940, Note_on_c, 6, 63, 62
8, 21060, Note_on_c, 6, 63, 0
8, 21060, Note_on_c, 6, 58, 69
8, 21180, Note_on_c, 6, 58, 0
8, 21180, Note_on_c, 6, 55, 64
8, 21240, Note_on_c, 6, 55, 0
8, 21300, Note_on_c, 6, 63, 52
8, 21420, Note_on_c, 6, 63, 0
8, 21420, Note_on_c, 6, 60, 67
8, 21540, Note_on_c, 6, 60, 0
8, 21540, Note_on_c, 6, 57, 76
8, 21600, Note_on_c, 6, 57, 0
8, 21600, Note_on_c, 6, 58, 51
8, 21660, Note_on_c, 6, 58, 0
8, 23040, Note_on_c, 6, 57, 77
8, 23100, Note_on_c, 6, 57, 0
8, 23160, Note_on_c, 6, 58, 71
8, 23220, Note_on_c, 6, 58, 0
8, 23280, Note_on_c, 6, 59, 57
8, 23340, Note_on_c, 6, 59, 0
8, 23400, Note_on_c, 6, 57, 55
8, 23460, Note_on_c, 6, 57, 0
8, 23520, Note_on_c, 6, 60, 45
8, 23580, Note_on_c, 6, 60, 0
8, 23640, Note_on_c, 6, 57, 43
8, 23700, Note_on_c, 6, 57, 0
8, 23760, Note_on_c, 6, 58, 33
8, 23820, Note_on_c, 6, 58, 0
8, 24180, Note_on_c, 6, 63, 45
8, 24240, Note_on_c, 6, 63, 0
8, 24300, Note_on_c, 6, 63, 38
8, 24360, Note_on_c, 6, 63, 0
8, 24420, Note_on_c, 6, 62, 49
8, 24480, Note_on_c, 6, 62, 0
8, 24480, Note_on_c, 6, 63, 71
8, 24480, Note_on_c, 6, 55, 84
8, 24495, Note_on_c, 6, 55, 0
8, 24495, Note_on_c, 6, 63, 0
8, 24510, Note_on_c, 6, 55, 89
8, 24525, Note_on_c, 6, 55, 0
8, 24540, Note_on_c, 6, 55, 84
8, 24555, Note_on_c, 6, 55, 0
8, 24570, Note_on_c, 6, 55, 89
8, 24585, Note_on_c, 6, 55, 0
8, 24600, Note_on_c, 6, 55, 89
8, 24615, Note_on_c, 6, 55, 0
8, 24630, Note_on_c, 6, 63, 74
8, 24630, Note_on_c, 6, 55, 82
8, 24645, Note_on_c, 6, 55, 0
8, 24645, Note_on_c, 6, 63, 0
8, 24660, Note_on_c, 6, 63, 80
8, 24660, Note_on_c, 6, 55, 94
8, 24675, Note_on_c, 6, 55, 0
8, 24675, Note_on_c, 6, 63, 0
8, 24690, Note_on_c, 6, 63, 77
8, 24690, Note_on_c, 6, 55, 89
8, 24705, Note_on_c, 6, 55, 0
8, 24705, Note_on_c, 6, 63, 0
8, 24720, Note_on_c, 6, 63, 78
8, 24720, Note_on_c, 6, 56, 89
8, 24735, Note_on_c, 6, 56, 0
8, 24735, Note_on_c, 6, 63, 0
8, 24750, Note_on_c, 6, 63, 77
8, 24750, Note_on_c, 6, 56, 89
8, 24765, Note_on_c, 6, 56, 0
8, 24765, Note_on_c, 6, 63, 0
8, 24780, Note_on_c, 6, 63, 73
8, 24780, Note_on_c, 6, 59, 94
8, 24795, Note_on_c, 6, 59, 0
8, 24795, Note_on_c, 6, 63, 0
8, 24810, Note_on_c, 6, 63, 71
8, 24810, Note_on_c, 6, 59, 95
8, 24825, Note_on_c, 6, 59, 0
8, 24825, Note_on_c, 6, 63, 0
8, 24840, Note_on_c, 6, 61, 89
8, 24855, Note_on_c, 6, 61, 0
8, 24855, Note_on_c, 6, 60, 98
8, 24870, Note_on_c, 6, 60, 0
8, 24870, Note_on_c, 6, 61, 90
8, 24885, Note_on_c, 6, 61, 0
8, 24885, Note_on_c, 6, 60, 99
8, 24900, Note_on_c, 6, 60, 0
8, 24900, Note_on_c, 6, 61, 89
8, 24915, Note_on_c, 6, 61, 0
8, 24915, Note_on_c, 6, 60, 95
8, 24930, Note_on_c, 6, 60, 0
8, 24930, Note_on_c, 6, 61, 93
8, 24945, Note_on_c, 6, 61, 0
8, 24945, Note_on_c, 6, 60, 95
8, 24960, Note_on_c, 6, 60, 0
8, 24960, Note_on_c, 6, 61, 78
8, 25020, Note_on_c, 6, 61, 0
8, 25020, Note_on_c, 6, 61, 72
8, 25035, Note_on_c, 6, 61, 0
8, 25035, Note_on_c, 6, 60, 90
8, 25050, Note_on_c, 6, 60, 0
8, 25050, Note_on_c, 6, 61, 80
8, 25065, Note_on_c, 6, 61, 0
8, 25065, Note_on_c, 6, 63, 89
8, 25080, Note_on_c, 6, 63, 0
8, 25080, Note_on_c, 6, 64, 105
8, 25095, Note_on_c, 6, 64, 0
8, 25095, Note_on_c, 6, 64, 99
8, 25110, Note_on_c, 6, 64, 0
8, 25110, Note_on_c, 6, 64, 101
8, 25125, Note_on_c, 6, 64, 0
8, 25125, Note_on_c, 6, 64, 98
8, 25140, Note_on_c, 6, 64, 0
8, 25140, Note_on_c, 6, 64, 99
8, 25155, Note_on_c, 6, 64, 0
8, 25155, Note_on_c, 6, 64, 94
8, 25170, Note_on_c, 6, 64, 0
8, 25170, Note_on_c, 6, 64, 90
8, 25185, Note_on_c, 6, 64, 0
8, 25185, Note_on_c, 6, 64, 89
8, 25200, Note_on_c, 6, 64, 0
8, 25200, Note_on_c, 6, 63, 99
8, 25215, Note_on_c, 6, 63, 0
8, 25215, Note_on_c, 6, 62, 101
8, 25230, Note_on_c, 6, 62, 0
8, 25230, Note_on_c, 6, 63, 95
8, 25245, Note_on_c, 6, 63, 0
8, 25245, Note_on_c, 6, 62, 95
8, 25260, Note_on_c, 6, 62, 0
8, 25260, Note_on_c, 6, 63, 89
8, 25275, Note_on_c, 6, 63, 0
8, 25275, Note_on_c, 6, 62, 94
8, 25290, Note_on_c, 6, 62, 0
8, 25290, Note_on_c, 6, 63, 90
8, 25305, Note_on_c, 6, 63, 0
8, 25305, Note_on_c, 6, 62, 89
8, 25320, Note_on_c, 6, 62, 0
8, 25320, Note_on_c, 6, 63, 81
8, 25440, Note_on_c, 6, 63, 0
8, 25440, Note_on_c, 6, 63, 86
8, 25455, Note_on_c, 6, 63, 0
8, 25455, Note_on_c, 6, 63, 74
8, 25455, Note_on_c, 6, 58, 84
8, 25470, Note_on_c, 6, 58, 0
8, 25470, Note_on_c, 6, 63, 0
8, 25470, Note_on_c, 6, 63, 76
8, 25470, Note_on_c, 6, 58, 80
8, 25485, Note_on_c, 6, 58, 0
8, 25485, Note_on_c, 6, 63, 0
8, 25485, Note_on_c, 6, 63, 73
8, 25485, Note_on_c, 6, 58, 78
8, 25500, Note_on_c, 6, 58, 0
8, 25500, Note_on_c, 6, 63, 0
8, 25500, Note_on_c, 6, 63, 71
8, 25500, Note_on_c, 6, 58, 73
8, 25515, Note_on_c, 6, 58, 0
8, 25515, Note_on_c, 6, 63, 0
8, 25515, Note_on_c, 6, 63, 73
8, 25515, Note_on_c, 6, 58, 77
8, 25530, Note_on_c, 6, 58, 0
8, 25530, Note_on_c, 6, 63, 0
8, 25530, Note_on_c, 6, 63, 70
8, 25530, Note_on_c, 6, 58, 78
8, 25545, Note_on_c, 6, 58, 0
8, 25545, Note_on_c, 6, 63, 0
8, 25545, Note_on_c, 6, 63, 73
8, 25545, Note_on_c, 6, 58, 78
8, 25560, Note_on_c, 6, 58, 0
8, 25560, Note_on_c, 6, 63, 0
8, 25560, Note_on_c, 6, 63, 85
8, 25560, Note_on_c, 6, 56, 99
8, 25590, Note_on_c, 6, 56, 0
8, 25590, Note_on_c, 6, 63, 0
8, 25590, Note_on_c, 6, 63, 69
8, 25590, Note_on_c, 6, 56, 67
8, 25620, Note_on_c, 6, 56, 0
8, 25620, Note_on_c, 6, 63, 0
8, 25620, Note_on_c, 6, 63, 69
8, 25620, Note_on_c, 6, 56, 68
8, 25650, Note_on_c, 6, 56, 0
8, 25650, Note_on_c, 6, 63, 0
8, 25650, Note_on_c, 6, 63, 71
8, 25650, Note_on_c, 6, 56, 80
8, 25680, Note_on_c, 6, 56, 0
8, 25680, Note_on_c, 6, 63, 0
8, 25680, Note_on_c, 6, 66, 89
8, 25680, Note_on_c, 6, 57, 112
8, 25710, Note_on_c, 6, 57, 0
8, 25710, Note_on_c, 6, 66, 0
8, 25710, Note_on_c, 6, 66, 69
8, 25710, Note_on_c, 6, 57, 98
8, 25740, Note_on_c, 6, 57, 0
8, 25740, Note_on_c, 6, 66, 0
8, 25740, Note_on_c, 6, 66, 65
8, 25740, Note_on_c, 6, 57, 98
8, 25770, Note_on_c, 6, 57, 0
8, 25770, Note_on_c, 6, 66, 0
8, 25770, Note_on_c, 6, 66, 52
8, 25770, Note_on_c, 6, 57, 85
8, 25800, Note_on_c, 6, 57, 0
8, 25800, Note_on_c, 6, 66, 0
8, 25800, Note_on_c, 6, 66, 64
8, 25800, Note_on_c, 6, 57, 94
8, 25830, Note_on_c, 6, 57, 0
8, 25830, Note_on_c, 6, 66, 0
8, 25830, Note_on_c, 6, 66, 62
8, 25830, Note_on_c, 6, 57, 94
8, 25860, Note_on_c, 6, 57, 0
8, 25860, Note_on_c, 6, 66, 0
8, 25860, Note_on_c, 6, 66, 45
8, 25860, Note_on_c, 6, 57, 90
8, 25890, Note_on_c, 6, 57, 0
8, 25890, Note_on_c, 6, 66, 0
8, 25890, Note_on_c, 6, 66, 54
8, 25890, Note_on_c, 6, 57, 94
8, 25920, Note_on_c, 6, 57, 0
8, 25920, Note_on_c, 6, 66, 0
8, 25920, Note_on_c, 6, 66, 90
8, 25920, Note_on_c, 6, 58, 99
8, 25950, Note_on_c, 6, 58, 0
8, 25950, Note_on_c, 6, 66, 0
8, 25950, Note_on_c, 6, 66, 72
8, 25950, Note_on_c, 6, 58, 81
8, 25980, Note_on_c, 6, 58, 0
8, 25980, Note_on_c, 6, 66, 0
8, 25980, Note_on_c, 6, 66, 65
8, 25980, Note_on_c, 6, 58, 70
8, 26010, Note_on_c, 6, 58, 0
8, 26010, Note_on_c, 6, 66, 0
8, 26010, Note_on_c, 6, 66, 72
8, 26010, Note_on_c, 6, 58, 81
8, 26040, Note_on_c, 6, 58, 0
8, 26040, Note_on_c, 6, 66, 0
8, 26040, Note_on_c, 6, 66, 89
8, 26040, Note_on_c, 6, 57, 115
8, 26070, Note_on_c, 6, 57, 0
8, 26070, Note_on_c, 6, 66, 0
8, 26070, Note_on_c, 6, 66, 73
8, 26070, Note_on_c, 6, 57, 99
8, 26100, Note_on_c, 6, 57, 0
8, 26100, Note_on_c, 6, 66, 0
8, 26100, Note_on_c, 6, 66, 68
8, 26100, Note_on_c, 6, 57, 94
8, 26130, Note_on_c, 6, 57, 0
8, 26130, Note_on_c, 6, 66, 0
8, 26130, Note_on_c, 6, 66, 68
8, 26130, Note_on_c, 6, 57, 95
8, 26160, Note_on_c, 6, 57, 0
8, 26160, Note_on_c, 6, 66, 0
8, 26160, Note_on_c, 6, 66, 90
8, 26160, Note_on_c, 6, 57, 115
8, 26190, Note_on_c, 6, 57, 0
8, 26190, Note_on_c, 6, 66, 0
8, 26190, Note_on_c, 6, 66, 73
8, 26190, Note_on_c, 6, 57, 99
8, 26220, Note_on_c, 6, 57, 0
8, 26220, Note_on_c, 6, 66, 0
8, 26220, Note_on_c, 6, 66, 69
8, 26220, Note_on_c, 6, 57, 95
8, 26250, Note_on_c, 6, 57, 0
8, 26250, Note_on_c, 6, 66, 0
8, 26250, Note_on_c, 6, 66, 69
8, 26250, Note_on_c, 6, 57, 98
8, 26280, Note_on_c, 6, 57, 0
8, 26280, Note_on_c, 6, 66, 0
8, 26280, Note_on_c, 6, 67, 86
8, 26280, Note_on_c, 6, 58, 94
8, 26520, Note_on_c, 6, 58, 0
8, 26520, Note_on_c, 6, 67, 0
8, 27720, Note_on_c, 6, 63, 38
8, 27720, Note_on_c, 6, 55, 58
8, 27960, Note_on_c, 6, 55, 0
8, 27960, Note_on_c, 6, 63, 0
8, 27960, Note_on_c, 6, 65, 38
8, 27960, Note_on_c, 6, 56, 32
8, 28080, Note_on_c, 6, 56, 0
8, 28080, Note_on_c, 6, 65, 0
8, 28080, Note_on_c, 6, 62, 39
8, 28200, Note_on_c, 6, 62, 0
8, 28800, Note_on_c, 6, 62, 43
8, 28890, Note_on_c, 6, 62, 0
8, 28920, Note_on_c, 6, 65, 46
8, 29010, Note_on_c, 6, 65, 0
8, 29040, Note_on_c, 6, 62, 45
8, 29130, Note_on_c, 6, 62, 0
8, 29160, Note_on_c, 6, 63, 48
8, 29280, Note_on_c, 6, 63, 0
8, 29520, Note_on_c, 6, 62, 44
8, 29610, Note_on_c, 6, 62, 0
8, 29640, Note_on_c, 6, 62, 42
8, 29730, Note_on_c, 6, 62, 0
8, 29760, Note_on_c, 6, 62, 43
8, 29850, Note_on_c, 6, 62, 0
8, 29880, Note_on_c, 6, 63, 44
8, 30000, Note_on_c, 6, 63, 0
8, 31320, Note_on_c, 6, 56, 64
8, 31410, Note_on_c, 6, 56, 0
8, 31440, Note_on_c, 6, 56, 55
8, 31530, Note_on_c, 6, 56, 0
8, 31560, Note_on_c, 6, 56, 56
8, 31650, Note_on_c, 6, 56, 0
8, 31680, Note_on_c, 6, 55, 53
8, 31800, Note_on_c, 6, 55, 0
8, 31920, Note_on_c, 6, 56, 47
8, 32040, Note_on_c, 6, 56, 0
8, 32040, Note_on_c, 6, 55, 65
8, 32160, Note_on_c, 6, 55, 0
8, 32280, Note_on_c, 6, 56, 55
8, 32400, Note_on_c, 6, 56, 0
8, 32400, Note_on_c, 6, 55, 52
8, 32520, Note_on_c, 6, 55, 0
8, 32520, Program_c, 6, 45
8, 32640, Note_on_c, 6, 58, 58
8, 32760, Note_on_c, 6, 58, 0
8, 32760, Note_on_c, 6, 55, 69
8, 32880, Note_on_c, 6, 55, 0
8, 32880, End_track
9, 0, Start_track
9, 0, MIDI_port, 0
9, 0, Title_t, "Violas"
9, 0, Program_c, 7, 48
9, 0, Control_c, 7, 7, 100
9, 0, Control_c, 7, 10, 64
9, 0, Control_c, 7, 93, 0
9, 0, Control_c, 7, 91, 66
9, 0, Note_on_c, 7, 58, 62
9, 90, Note_on_c, 7, 58, 0
9, 120, Note_on_c, 7, 60, 66
9, 210, Note_on_c, 7, 60, 0
9, 240, Note_on_c, 7, 56, 73
9, 360, Note_on_c, 7, 56, 0
9, 360, Note_on_c, 7, 58, 62
9, 540, Note_on_c, 7, 58, 0
9, 720, Note_on_c, 7, 60, 62
9, 840, Note_on_c, 7, 60, 0
9, 840, Note_on_c, 7, 58, 80
9, 960, Note_on_c, 7, 58, 0
9, 960, Note_on_c, 7, 58, 58
9, 1080, Note_on_c, 7, 58, 0
9, 1080, Note_on_c, 7, 56, 81
9, 1082, Control_c, 7, 7, 99
9, 1094, Control_c, 7, 7, 100
9, 1106, Control_c, 7, 7, 101
9, 1118, Control_c, 7, 7, 102
9, 1130, Control_c, 7, 7, 103
9, 1142, Control_c, 7, 7, 104
9, 1154, Control_c, 7, 7, 105
9, 1166, Control_c, 7, 7, 106
9, 1178, Control_c, 7, 7, 107
9, 1188, Control_c, 7, 7, 108
9, 1200, Control_c, 7, 7, 109
9, 1212, Control_c, 7, 7, 110
9, 1224, Control_c, 7, 7, 111
9, 1236, Control_c, 7, 7, 112
9, 1248, Control_c, 7, 7, 113
9, 1260, Control_c, 7, 7, 114
9, 1272, Control_c, 7, 7, 115
9, 1282, Control_c, 7, 7, 116
9, 1294, Control_c, 7, 7, 117
9, 1306, Control_c, 7, 7, 118
9, 1318, Control_c, 7, 7, 119
9, 1320, Note_on_c, 7, 56, 0
9, 1320, Note_on_c, 7, 56, 78
9, 1330, Control_c, 7, 7, 120
9, 1342, Control_c, 7, 7, 121
9, 1354, Control_c, 7, 7, 122
9, 1366, Control_c, 7, 7, 123
9, 1376, Control_c, 7, 7, 124
9, 1440, Note_on_c, 7, 56, 0
9, 1440, Control_c, 7, 7, 99
9, 1440, Note_on_c, 7, 56, 95
9, 1560, Note_on_c, 7, 56, 0
9, 1560, Note_on_c, 7, 57, 90
9, 1800, Note_on_c, 7, 57, 0
9, 1800, Note_on_c, 7, 60, 99
9, 1980, Note_on_c, 7, 60, 0
9, 2025, Note_on_c, 7, 60, 95
9, 2040, Note_on_c, 7, 60, 0
9, 2040, Note_on_c, 7, 60, 98
9, 2130, Note_on_c, 7, 60, 0
9, 2145, Note_on_c, 7, 60, 99
9, 2160, Note_on_c, 7, 60, 0
9, 2160, Note_on_c, 7, 58, 95
9, 2220, Note_on_c, 7, 58, 0
9, 2220, Note_on_c, 7, 58, 76
9, 2280, Note_on_c, 7, 58, 0
9, 2280, Note_on_c, 7, 65, 71
9, 2340, Note_on_c, 7, 65, 0
9, 2340, Note_on_c, 7, 58, 66
9, 2400, Note_on_c, 7, 58, 0
9, 2400, Note_on_c, 7, 63, 76
9, 2460, Note_on_c, 7, 63, 0
9, 2460, Note_on_c, 7, 58, 76
9, 2520, Note_on_c, 7, 58, 0
9, 2520, Note_on_c, 7, 62, 58
9, 2580, Note_on_c, 7, 62, 0
9, 2580, Note_on_c, 7, 58, 84
9, 2640, Note_on_c, 7, 58, 0
9, 2640, Note_on_c, 7, 65, 85
9, 2760, Note_on_c, 7, 65, 0
9, 2760, Note_on_c, 7, 65, 71
9, 2790, Note_on_c, 7, 65, 0
9, 2790, Note_on_c, 7, 63, 94
9, 2820, Note_on_c, 7, 63, 0
9, 2820, Note_on_c, 7, 62, 90
9, 2850, Note_on_c, 7, 62, 0
9, 2850, Note_on_c, 7, 63, 89
9, 2880, Note_on_c, 7, 63, 0
9, 2880, Note_on_c, 7, 62, 57
9, 3000, Note_on_c, 7, 62, 0
9, 3150, Note_on_c, 7, 68, 86
9, 3165, Note_on_c, 7, 68, 0
9, 3180, Note_on_c, 7, 67, 86
9, 3195, Note_on_c, 7, 67, 0
9, 3210, Note_on_c, 7, 63, 86
9, 3225, Note_on_c, 7, 63, 0
9, 3240, Note_on_c, 7, 70, 93
9, 3300, Note_on_c, 7, 70, 0
9, 3360, Note_on_c, 7, 58, 99
9, 3480, Note_on_c, 7, 58, 0
9, 3480, Note_on_c, 7, 58, 77
9, 3510, Note_on_c, 7, 58, 0
9, 3510, Note_on_c, 7, 68, 94
9, 3525, Note_on_c, 7, 68, 0
9, 3540, Note_on_c, 7, 67, 89
9, 3555, Note_on_c, 7, 67, 0
9, 3570, Note_on_c, 7, 63, 86
9, 3585, Note_on_c, 7, 63, 0
9, 3600, Note_on_c, 7, 70, 86
9, 3660, Note_on_c, 7, 70, 0
9, 3705, Note_on_c, 7, 58, 95
9, 3720, Note_on_c, 7, 58, 0
9, 3720, Note_on_c, 7, 58, 93
9, 3810, Note_on_c, 7, 58, 0
9, 3825, Note_on_c, 7, 58, 93
9, 3840, Note_on_c, 7, 58, 0
9, 3840, Note_on_c, 7, 58, 95
9, 3930, Note_on_c, 7, 58, 0
9, 3945, Note_on_c, 7, 58, 98
9, 3960, Note_on_c, 7, 58, 0
9, 3960, Note_on_c, 7, 53, 80
9, 3960, Control_c, 7, 7, 99
9, 3972, Control_c, 7, 7, 98
9, 3982, Control_c, 7, 7, 97
9, 3992, Control_c, 7, 7, 96
9, 4002, Control_c, 7, 7, 95
9, 4012, Control_c, 7, 7, 94
9, 4022, Control_c, 7, 7, 93
9, 4032, Control_c, 7, 7, 92
9, 4044, Control_c, 7, 7, 91
9, 4054, Control_c, 7, 7, 90
9, 4064, Control_c, 7, 7, 89
9, 4074, Control_c, 7, 7, 88
9, 4084, Control_c, 7, 7, 87
9, 4094, Control_c, 7, 7, 86
9, 4104, Control_c, 7, 7, 85
9, 4116, Control_c, 7, 7, 84
9, 4126, Control_c, 7, 7, 83
9, 4136, Control_c, 7, 7, 82
9, 4146, Control_c, 7, 7, 81
9, 4156, Control_c, 7, 7, 80
9, 4166, Control_c, 7, 7, 79
9, 4176, Control_c, 7, 7, 78
9, 4188, Control_c, 7, 7, 77
9, 4198, Control_c, 7, 7, 76
9, 4208, Control_c, 7, 7, 75
9, 4218, Control_c, 7, 7, 74
9, 4228, Control_c, 7, 7, 73
9, 4238, Control_c, 7, 7, 72
9, 4248, Control_c, 7, 7, 71
9, 4260, Control_c, 7, 7, 70
9, 4270, Control_c, 7, 7, 69
9, 4280, Control_c, 7, 7, 68
9, 4290, Control_c, 7, 7, 67
9, 4300, Control_c, 7, 7, 66
9, 4310, Control_c, 7, 7, 65
9, 4320, Note_on_c, 7, 53, 0
9, 4320, Control_c, 7, 7, 64
9, 4320, Note_on_c, 7, 51, 73
9, 4380, Note_on_c, 7, 51, 0
9, 4500, Control_c, 7, 7, 99
9, 5760, Note_on_c, 7, 63, 95
9, 5820, Note_on_c, 7, 63, 0
9, 5820, Note_on_c, 7, 51, 99
9, 5850, Note_on_c, 7, 51, 0
9, 5880, Note_on_c, 7, 55, 98
9, 5910, Note_on_c, 7, 55, 0
9, 5940, Note_on_c, 7, 58, 95
9, 5970, Note_on_c, 7, 58, 0
9, 6000, Note_on_c, 7, 63, 90
9, 6030, Note_on_c, 7, 63, 0
9, 6060, Note_on_c, 7, 67, 94
9, 6090, Note_on_c, 7, 67, 0
9, 6120, Note_on_c, 7, 70, 98
9, 6150, Note_on_c, 7, 70, 0
9, 6180, Note_on_c, 7, 67, 57
9, 6225, Note_on_c, 7, 67, 0
9, 6240, Note_on_c, 7, 67, 44
9, 6285, Note_on_c, 7, 67, 0
9, 6300, Note_on_c, 7, 67, 52
9, 6345, Note_on_c, 7, 67, 0
9, 6360, Note_on_c, 7, 67, 59
9, 6405, Note_on_c, 7, 67, 0
9, 6420, Note_on_c, 7, 67, 64
9, 6465, Note_on_c, 7, 67, 0
9, 6540, Note_on_c, 7, 67, 57
9, 6600, Note_on_c, 7, 67, 0
9, 6600, Note_on_c, 7, 67, 45
9, 6660, Note_on_c, 7, 67, 0
9, 6660, Note_on_c, 7, 67, 43
9, 6720, Note_on_c, 7, 67, 0
9, 6720, Note_on_c, 7, 67, 44
9, 6780, Note_on_c, 7, 67, 0
9, 6780, Note_on_c, 7, 67, 45
9, 6840, Note_on_c, 7, 67, 0
9, 6900, Note_on_c, 7, 67, 59
9, 6960, Note_on_c, 7, 67, 0
9, 6960, Note_on_c, 7, 67, 42
9, 7020, Note_on_c, 7, 67, 0
9, 7020, Note_on_c, 7, 67, 43
9, 7080, Note_on_c, 7, 67, 0
9, 7080, Note_on_c, 7, 69, 49
9, 7140, Note_on_c, 7, 69, 0
9, 7140, Note_on_c, 7, 69, 45
9, 7200, Note_on_c, 7, 69, 0
9, 7260, Note_on_c, 7, 65, 45
9, 7320, Note_on_c, 7, 65, 0
9, 7320, Note_on_c, 7, 65, 50
9, 7380, Note_on_c, 7, 65, 0
9, 7380, Note_on_c, 7, 65, 45
9, 7440, Note_on_c, 7, 65, 0
9, 7440, Note_on_c, 7, 65, 45
9, 7500, Note_on_c, 7, 65, 0
9, 7500, Note_on_c, 7, 65, 43
9, 7560, Note_on_c, 7, 65, 0
9, 7620, Note_on_c, 7, 67, 50
9, 7680, Note_on_c, 7, 67, 0
9, 7680, Note_on_c, 7, 67, 57
9, 7740, Note_on_c, 7, 67, 0
9, 7740, Note_on_c, 7, 67, 55
9, 7800, Note_on_c, 7, 67, 0
9, 7800, Note_on_c, 7, 67, 51
9, 7860, Note_on_c, 7, 67, 0
9, 7860, Note_on_c, 7, 67, 68
9, 7920, Note_on_c, 7, 67, 0
9, 7920, Note_on_c, 7, 65, 53
9, 7980, Note_on_c, 7, 65, 0
9, 7980, Note_on_c, 7, 53, 68
9, 8040, Note_on_c, 7, 53, 0
9, 8040, Note_on_c, 7, 53, 73
9, 8085, Note_on_c, 7, 53, 0
9, 8100, Note_on_c, 7, 53, 84
9, 8145, Note_on_c, 7, 53, 0
9, 8160, Note_on_c, 7, 53, 93
9, 8205, Note_on_c, 7, 53, 0
9, 8220, Note_on_c, 7, 53, 95
9, 8265, Note_on_c, 7, 53, 0
9, 8280, Note_on_c, 7, 53, 101
9, 8325, Note_on_c, 7, 53, 0
9, 8340, Note_on_c, 7, 53, 90
9, 8385, Note_on_c, 7, 53, 0
9, 8400, Note_on_c, 7, 53, 84
9, 8445, Note_on_c, 7, 53, 0
9, 8820, Note_on_c, 7, 67, 64
9, 8880, Note_on_c, 7, 67, 0
9, 8880, Note_on_c, 7, 65, 82
9, 8940, Note_on_c, 7, 65, 0
9, 8940, Note_on_c, 7, 63, 89
9, 9000, Note_on_c, 7, 63, 0
9, 9000, Note_on_c, 7, 62, 95
9, 9060, Note_on_c, 7, 62, 0
9, 9060, Note_on_c, 7, 59, 82
9, 9120, Note_on_c, 7, 59, 0
9, 9120, Note_on_c, 7, 60, 68
9, 9150, Note_on_c, 7, 60, 0
9, 9210, Note_on_c, 7, 63, 58
9, 9240, Note_on_c, 7, 63, 0
9, 9270, Note_on_c, 7, 62, 61
9, 9300, Note_on_c, 7, 62, 0
9, 9330, Note_on_c, 7, 60, 70
9, 9360, Note_on_c, 7, 60, 0
9, 9390, Note_on_c, 7, 59, 78
9, 9420, Note_on_c, 7, 59, 0
9, 9450, Note_on_c, 7, 59, 73
9, 9480, Note_on_c, 7, 59, 0
9, 9510, Note_on_c, 7, 55, 67
9, 9540, Note_on_c, 7, 55, 0
9, 9570, Note_on_c, 7, 64, 72
9, 9600, Note_on_c, 7, 64, 0
9, 9630, Note_on_c, 7, 57, 80
9, 9660, Note_on_c, 7, 57, 0
9, 9690, Note_on_c, 7, 57, 71
9, 9720, Note_on_c, 7, 57, 0
9, 9750, Note_on_c, 7, 53, 69
9, 9780, Note_on_c, 7, 53, 0
9, 9810, Note_on_c, 7, 60, 40
9, 9840, Note_on_c, 7, 60, 0
9, 9870, Note_on_c, 7, 58, 55
9, 9900, Note_on_c, 7, 58, 0
9, 9930, Note_on_c, 7, 57, 81
9, 9960, Note_on_c, 7, 57, 0
9, 9990, Note_on_c, 7, 55, 66
9, 10020, Note_on_c, 7, 55, 0
9, 10050, Note_on_c, 7, 56, 45
9, 10050, Note_on_c, 7, 53, 43
9, 10080, Note_on_c, 7, 53, 0
9, 10080, Note_on_c, 7, 56, 0
9, 10140, Note_on_c, 7, 55, 71
9, 10200, Note_on_c, 7, 55, 0
9, 10260, Note_on_c, 7, 60, 59
9, 10320, Note_on_c, 7, 60, 0
9, 10380, Note_on_c, 7, 63, 51
9, 10440, Note_on_c, 7, 63, 0
9, 10500, Note_on_c, 7, 62, 58
9, 10560, Note_on_c, 7, 62, 0
9, 10560, Note_on_c, 7, 62, 65
9, 10620, Note_on_c, 7, 62, 0
9, 10620, Note_on_c, 7, 62, 63
9, 10680, Note_on_c, 7, 62, 0
9, 10680, Note_on_c, 7, 63, 54
9, 10740, Note_on_c, 7, 63, 0
9, 10740, Note_on_c, 7, 63, 64
9, 10800, Note_on_c, 7, 63, 0
9, 10800, Note_on_c, 7, 62, 56
9, 10860, Note_on_c, 7, 62, 0
9, 10920, Note_on_c, 7, 53, 84
9, 11040, Note_on_c, 7, 53, 0
9, 11040, Note_on_c, 7, 54, 95
9, 11160, Note_on_c, 7, 54, 0
9, 11160, Note_on_c, 7, 53, 95
9, 11280, Note_on_c, 7, 53, 0
9, 11280, Note_on_c, 7, 51, 86
9, 11295, Note_on_c, 7, 51, 0
9, 11295, Note_on_c, 7, 56, 82
9, 11310, Note_on_c, 7, 56, 0
9, 11310, Note_on_c, 7, 58, 81
9, 11325, Note_on_c, 7, 58, 0
9, 11325, Note_on_c, 7, 60, 89
9, 11340, Note_on_c, 7, 60, 0
9, 11340, Note_on_c, 7, 61, 84
9, 11355, Note_on_c, 7, 61, 0
9, 11355, Note_on_c, 7, 63, 89
9, 11370, Note_on_c, 7, 63, 0
9, 11370, Note_on_c, 7, 65, 94
9, 11385, Note_on_c, 7, 65, 0
9, 11385, Note_on_c, 7, 67, 84
9, 11400, Note_on_c, 7, 67, 0
9, 11400, Note_on_c, 7, 68, 74
9, 11430, Note_on_c, 7, 68, 0
9, 11460, Note_on_c, 7, 56, 89
9, 11490, Note_on_c, 7, 56, 0
9, 11520, Note_on_c, 7, 54, 98
9, 11640, Note_on_c, 7, 54, 0
9, 11640, Note_on_c, 7, 53, 94
9, 11655, Note_on_c, 7, 53, 0
9, 11655, Note_on_c, 7, 58, 81
9, 11670, Note_on_c, 7, 58, 0
9, 11670, Note_on_c, 7, 60, 89
9, 11685, Note_on_c, 7, 60, 0
9, 11685, Note_on_c, 7, 62, 80
9, 11700, Note_on_c, 7, 62, 0
9, 11700, Note_on_c, 7, 63, 84
9, 11715, Note_on_c, 7, 63, 0
9, 11715, Note_on_c, 7, 65, 84
9, 11730, Note_on_c, 7, 65, 0
9, 11730, Note_on_c, 7, 67, 80
9, 11745, Note_on_c, 7, 67, 0
9, 11745, Note_on_c, 7, 69, 86
9, 11760, Note_on_c, 7, 69, 0
9, 11760, Note_on_c, 7, 70, 81
9, 11790, Note_on_c, 7, 70, 0
9, 11820, Note_on_c, 7, 62, 81
9, 11865, Note_on_c, 7, 62, 0
9, 11865, Note_on_c, 7, 63, 74
9, 11880, Note_on_c, 7, 63, 0
9, 11880, Note_on_c, 7, 63, 76
9, 11910, Note_on_c, 7, 63, 0
9, 11940, Note_on_c, 7, 51, 99
9, 12060, Note_on_c, 7, 51, 0
9, 12060, Note_on_c, 7, 53, 94
9, 12120, Note_on_c, 7, 53, 0
9, 12120, Note_on_c, 7, 54, 95
9, 12180, Note_on_c, 7, 54, 0
9, 12180, Note_on_c, 7, 51, 99
9, 12240, Note_on_c, 7, 51, 0
9, 12240, Note_on_c, 7, 53, 93
9, 12300, Note_on_c, 7, 53, 0
9, 12360, Note_on_c, 7, 58, 43
9, 12480, Note_on_c, 7, 58, 0
9, 12480, Note_on_c, 7, 57, 54
9, 12600, Note_on_c, 7, 57, 0
9, 12600, Note_on_c, 7, 56, 62
9, 12720, Note_on_c, 7, 56, 0
9, 12720, Note_on_c, 7, 55, 57
9, 12840, Note_on_c, 7, 55, 0
9, 12840, Note_on_c, 7, 50, 61
9, 12900, Note_on_c, 7, 50, 0
9, 12960, Note_on_c, 7, 51, 62
9, 13020, Note_on_c, 7, 51, 0
9, 14760, Program_c, 7, 45
9, 14820, Note_on_c, 7, 58, 71
9, 14880, Note_on_c, 7, 58, 0
9, 14940, Note_on_c, 7, 60, 71
9, 15000, Note_on_c, 7, 60, 0
9, 15060, Note_on_c, 7, 60, 80
9, 15120, Note_on_c, 7, 60, 0
9, 15180, Note_on_c, 7, 58, 67
9, 15240, Note_on_c, 7, 58, 0
9, 15300, Note_on_c, 7, 58, 69
9, 15360, Note_on_c, 7, 58, 0
9, 15360, Note_on_c, 7, 62, 54
9, 15420, Note_on_c, 7, 62, 0
9, 15420, Note_on_c, 7, 62, 67
9, 15480, Note_on_c, 7, 62, 0
9, 15540, Note_on_c, 7, 60, 78
9, 15600, Note_on_c, 7, 60, 0
9, 15660, Note_on_c, 7, 58, 89
9, 15720, Note_on_c, 7, 58, 0
9, 15780, Note_on_c, 7, 58, 73
9, 15840, Note_on_c, 7, 58, 0
9, 15900, Note_on_c, 7, 56, 72
9, 15960, Note_on_c, 7, 56, 0
9, 16020, Note_on_c, 7, 55, 72
9, 16080, Note_on_c, 7, 55, 0
9, 16140, Note_on_c, 7, 56, 73
9, 16200, Note_on_c, 7, 56, 0
9, 16260, Note_on_c, 7, 62, 80
9, 16320, Note_on_c, 7, 62, 0
9, 16380, Note_on_c, 7, 58, 77
9, 16440, Note_on_c, 7, 58, 0
9, 16440, Note_on_c, 7, 58, 76
9, 16500, Note_on_c, 7, 58, 0
9, 16500, Note_on_c, 7, 58, 74
9, 16560, Note_on_c, 7, 58, 0
9, 16620, Note_on_c, 7, 60, 81
9, 16680, Note_on_c, 7, 60, 0
9, 16740, Note_on_c, 7, 58, 76
9, 16800, Note_on_c, 7, 58, 0
9, 16860, Note_on_c, 7, 58, 78
9, 16920, Note_on_c, 7, 58, 0
9, 16980, Note_on_c, 7, 60, 86
9, 17040, Note_on_c, 7, 60, 0
9, 17100, Note_on_c, 7, 60, 81
9, 17160, Note_on_c, 7, 60, 0
9, 17220, Note_on_c, 7, 60, 85
9, 17280, Note_on_c, 7, 60, 0
9, 17280, Note_on_c, 7, 58, 84
9, 17400, Note_on_c, 7, 58, 0
9, 17400, Program_c, 7, 48
9, 17460, Note_on_c, 7, 58, 73
9, 17520, Note_on_c, 7, 58, 0
9, 17520, Note_on_c, 7, 56, 86
9, 17580, Note_on_c, 7, 56, 0
9, 17580, Note_on_c, 7, 55, 89
9, 17640, Note_on_c, 7, 55, 0
9, 17640, Note_on_c, 7, 53, 94
9, 17700, Note_on_c, 7, 53, 0
9, 17700, Note_on_c, 7, 58, 86
9, 17760, Note_on_c, 7, 58, 0
9, 17760, Note_on_c, 7, 58, 70
9, 17790, Note_on_c, 7, 58, 0
9, 18180, Note_on_c, 7, 63, 60
9, 18240, Note_on_c, 7, 63, 0
9, 18240, Note_on_c, 7, 61, 78
9, 18300, Note_on_c, 7, 61, 0
9, 18300, Note_on_c, 7, 60, 90
9, 18360, Note_on_c, 7, 60, 0
9, 18360, Note_on_c, 7, 58, 95
9, 18420, Note_on_c, 7, 58, 0
9, 18420, Note_on_c, 7, 55, 72
9, 18480, Note_on_c, 7, 55, 0
9, 18480, Note_on_c, 7, 56, 77
9, 18510, Note_on_c, 7, 56, 0
9, 18540, Note_on_c, 7, 63, 45
9, 18570, Note_on_c, 7, 63, 0
9, 18600, Note_on_c, 7, 61, 64
9, 18630, Note_on_c, 7, 61, 0
9, 18660, Note_on_c, 7, 60, 65
9, 18690, Note_on_c, 7, 60, 0
9, 18720, Note_on_c, 7, 58, 45
9, 18750, Note_on_c, 7, 58, 0
9, 18780, Note_on_c, 7, 55, 43
9, 18810, Note_on_c, 7, 55, 0
9, 18840, Note_on_c, 7, 56, 62
9, 18870, Note_on_c, 7, 56, 0
9, 18870, Note_on_c, 7, 60, 65
9, 18900, Note_on_c, 7, 60, 0
9, 18930, Note_on_c, 7, 60, 52
9, 18960, Note_on_c, 7, 60, 0
9, 18990, Note_on_c, 7, 60, 60
9, 19020, Note_on_c, 7, 60, 0
9, 19050, Note_on_c, 7, 58, 57
9, 19080, Note_on_c, 7, 58, 0
9, 19140, Note_on_c, 7, 56, 58
9, 19200, Note_on_c, 7, 56, 0
9, 19260, Note_on_c, 7, 55, 62
9, 19320, Note_on_c, 7, 55, 0
9, 19380, Note_on_c, 7, 53, 53
9, 19440, Note_on_c, 7, 53, 0
9, 19500, Note_on_c, 7, 55, 43
9, 19500, Note_on_c, 7, 51, 43
9, 19545, Note_on_c, 7, 51, 0
9, 19545, Note_on_c, 7, 55, 0
9, 19560, Note_on_c, 7, 55, 43
9, 19560, Note_on_c, 7, 51, 43
9, 19605, Note_on_c, 7, 51, 0
9, 19605, Note_on_c, 7, 55, 0
9, 19620, Note_on_c, 7, 55, 42
9, 19620, Note_on_c, 7, 51, 44
9, 19665, Note_on_c, 7, 51, 0
9, 19665, Note_on_c, 7, 55, 0
9, 19680, Note_on_c, 7, 55, 45
9, 19680, Note_on_c, 7, 51, 43
9, 19725, Note_on_c, 7, 51, 0
9, 19725, Note_on_c, 7, 55, 0
9, 19740, Note_on_c, 7, 55, 52
9, 19740, Note_on_c, 7, 51, 46
9, 19785, Note_on_c, 7, 51, 0
9, 19785, Note_on_c, 7, 55, 0
9, 19800, Note_on_c, 7, 53, 40
9, 19800, Note_on_c, 7, 51, 43
9, 19845, Note_on_c, 7, 51, 0
9, 19845, Note_on_c, 7, 53, 0
9, 19860, Note_on_c, 7, 53, 45
9, 19860, Note_on_c, 7, 51, 42
9, 19905, Note_on_c, 7, 51, 0
9, 19905, Note_on_c, 7, 53, 0
9, 19920, Note_on_c, 7, 53, 43
9, 19920, Note_on_c, 7, 51, 46
9, 19965, Note_on_c, 7, 51, 0
9, 19965, Note_on_c, 7, 53, 0
9, 19980, Note_on_c, 7, 53, 47
9, 19980, Note_on_c, 7, 51, 61
9, 20025, Note_on_c, 7, 51, 0
9, 20025, Note_on_c, 7, 53, 0
9, 20040, Note_on_c, 7, 53, 47
9, 20040, Note_on_c, 7, 51, 69
9, 20085, Note_on_c, 7, 51, 0
9, 20085, Note_on_c, 7, 53, 0
9, 20100, Note_on_c, 7, 53, 50
9, 20100, Note_on_c, 7, 51, 45
9, 20145, Note_on_c, 7, 51, 0
9, 20145, Note_on_c, 7, 53, 0
9, 20160, Note_on_c, 7, 55, 44
9, 20160, Note_on_c, 7, 51, 46
9, 20220, Note_on_c, 7, 51, 0
9, 20220, Note_on_c, 7, 55, 0
9, 20220, Note_on_c, 7, 55, 65
9, 20220, Note_on_c, 7, 51, 64
9, 20280, Note_on_c, 7, 51, 0
9, 20280, Note_on_c, 7, 55, 0
9, 20280, Note_on_c, 7, 55, 70
9, 20280, Note_on_c, 7, 51, 73
9, 20340, Note_on_c, 7, 51, 0
9, 20340, Note_on_c, 7, 55, 0
9, 20340, Note_on_c, 7, 55, 77
9, 20340, Note_on_c, 7, 51, 78
9, 20400, Note_on_c, 7, 51, 0
9, 20400, Note_on_c, 7, 55, 0
9, 20400, Note_on_c, 7, 56, 70
9, 20400, Note_on_c, 7, 53, 59
9, 20460, Note_on_c, 7, 53, 0
9, 20460, Note_on_c, 7, 56, 0
9, 20460, Note_on_c, 7, 56, 52
9, 20460, Note_on_c, 7, 53, 43
9, 20520, Note_on_c, 7, 53, 0
9, 20520, Note_on_c, 7, 56, 0
9, 20520, Note_on_c, 7, 51, 71
9, 20580, Note_on_c, 7, 51, 0
9, 20580, Note_on_c, 7, 51, 66
9, 20700, Note_on_c, 7, 51, 0
9, 20700, Note_on_c, 7, 51, 68
9, 20820, Note_on_c, 7, 51, 0
9, 20820, Note_on_c, 7, 51, 52
9, 20940, Note_on_c, 7, 51, 0
9, 20940, Note_on_c, 7, 55, 43
9, 20940, Note_on_c, 7, 51, 40
9, 20985, Note_on_c, 7, 51, 0
9, 20985, Note_on_c, 7, 55, 0
9, 21000, Note_on_c, 7, 55, 42
9, 21000, Note_on_c, 7, 51, 43
9, 21045, Note_on_c, 7, 51, 0
9, 21045, Note_on_c, 7, 55, 0
9, 21060, Note_on_c, 7, 55, 44
9, 21060, Note_on_c, 7, 51, 45
9, 21105, Note_on_c, 7, 51, 0
9, 21105, Note_on_c, 7, 55, 0
9, 21120, Note_on_c, 7, 55, 43
9, 21120, Note_on_c, 7, 51, 42
9, 21165, Note_on_c, 7, 51, 0
9, 21165, Note_on_c, 7, 55, 0
9, 21180, Note_on_c, 7, 55, 43
9, 21180, Note_on_c, 7, 51, 45
9, 21225, Note_on_c, 7, 51, 0
9, 21225, Note_on_c, 7, 55, 0
9, 21240, Note_on_c, 7, 53, 40
9, 21240, Note_on_c, 7, 51, 48
9, 21285, Note_on_c, 7, 51, 0
9, 21285, Note_on_c, 7, 53, 0
9, 21300, Note_on_c, 7, 53, 40
9, 21300, Note_on_c, 7, 51, 53
9, 21345, Note_on_c, 7, 51, 0
9, 21345, Note_on_c, 7, 53, 0
9, 21360, Note_on_c, 7, 53, 41
9, 21360, Note_on_c, 7, 51, 40
9, 21405, Note_on_c, 7, 51, 0
9, 21405, Note_on_c, 7, 53, 0
9, 21420, Note_on_c, 7, 53, 35
9, 21420, Note_on_c, 7, 51, 43
9, 21465, Note_on_c, 7, 51, 0
9, 21465, Note_on_c, 7, 53, 0
9, 21480, Note_on_c, 7, 53, 41
9, 21480, Note_on_c, 7, 51, 45
9, 21525, Note_on_c, 7, 51, 0
9, 21525, Note_on_c, 7, 53, 0
9, 21540, Note_on_c, 7, 53, 43
9, 21540, Note_on_c, 7, 51, 45
9, 21585, Note_on_c, 7, 51, 0
9, 21585, Note_on_c, 7, 53, 0
9, 21600, Note_on_c, 7, 55, 46
9, 21600, Note_on_c, 7, 51, 46
9, 21660, Note_on_c, 7, 51, 0
9, 21660, Note_on_c, 7, 55, 0
9, 23040, Note_on_c, 7, 57, 77
9, 23100, Note_on_c, 7, 57, 0
9, 23160, Note_on_c, 7, 58, 71
9, 23220, Note_on_c, 7, 58, 0
9, 23280, Note_on_c, 7, 59, 57
9, 23340, Note_on_c, 7, 59, 0
9, 23400, Note_on_c, 7, 57, 55
9, 23460, Note_on_c, 7, 57, 0
9, 23520, Note_on_c, 7, 60, 45
9, 23580, Note_on_c, 7, 60, 0
9, 23640, Note_on_c, 7, 57, 43
9, 23700, Note_on_c, 7, 57, 0
9, 23760, Note_on_c, 7, 58, 33
9, 23820, Note_on_c, 7, 58, 0
9, 24180, Note_on_c, 7, 58, 52
9, 24240, Note_on_c, 7, 58, 0
9, 24300, Note_on_c, 7, 58, 45
9, 24360, Note_on_c, 7, 58, 0
9, 24420, Note_on_c, 7, 58, 48
9, 24480, Note_on_c, 7, 58, 0
9, 24480, Note_on_c, 7, 51, 94
9, 24495, Note_on_c, 7, 51, 0
9, 24510, Note_on_c, 7, 63, 84
9, 24525, Note_on_c, 7, 63, 0
9, 24540, Note_on_c, 7, 63, 78
9, 24555, Note_on_c, 7, 63, 0
9, 24570, Note_on_c, 7, 63, 82
9, 24585, Note_on_c, 7, 63, 0
9, 24600, Note_on_c, 7, 63, 84
9, 24615, Note_on_c, 7, 63, 0
9, 24630, Note_on_c, 7, 63, 85
9, 24645, Note_on_c, 7, 63, 0
9, 24660, Note_on_c, 7, 63, 85
9, 24675, Note_on_c, 7, 63, 0
9, 24690, Note_on_c, 7, 63, 86
9, 24705, Note_on_c, 7, 63, 0
9, 24720, Note_on_c, 7, 59, 99
9, 24735, Note_on_c, 7, 59, 0
9, 24750, Note_on_c, 7, 59, 99
9, 24765, Note_on_c, 7, 59, 0
9, 24780, Note_on_c, 7, 56, 93
9, 24795, Note_on_c, 7, 56, 0
9, 24810, Note_on_c, 7, 56, 95
9, 24825, Note_on_c, 7, 56, 0
9, 24840, Note_on_c, 7, 58, 86
9, 24840, Note_on_c, 7, 49, 95
9, 24960, Note_on_c, 7, 49, 0
9, 24960, Note_on_c, 7, 58, 0
9, 24960, Note_on_c, 7, 56, 76
9, 24960, Note_on_c, 7, 49, 84
9, 24975, Note_on_c, 7, 49, 0
9, 24975, Note_on_c, 7, 56, 0
9, 24975, Note_on_c, 7, 49, 86
9, 24990, Note_on_c, 7, 49, 0
9, 24990, Note_on_c, 7, 51, 89
9, 25005, Note_on_c, 7, 51, 0
9, 25005, Note_on_c, 7, 53, 73
9, 25020, Note_on_c, 7, 53, 0
9, 25020, Note_on_c, 7, 54, 84
9, 25035, Note_on_c, 7, 54, 0
9, 25035, Note_on_c, 7, 56, 89
9, 25050, Note_on_c, 7, 56, 0
9, 25050, Note_on_c, 7, 58, 89
9, 25065, Note_on_c, 7, 58, 0
9, 25065, Note_on_c, 7, 60, 84
9, 25080, Note_on_c, 7, 60, 0
9, 25080, Note_on_c, 7, 61, 74
9, 25095, Note_on_c, 7, 61, 0
9, 25110, Note_on_c, 7, 49, 84
9, 25125, Note_on_c, 7, 49, 0
9, 25140, Note_on_c, 7, 61, 68
9, 25155, Note_on_c, 7, 61, 0
9, 25170, Note_on_c, 7, 61, 74
9, 25185, Note_on_c, 7, 61, 0
9, 25200, Note_on_c, 7, 59, 101
9, 25320, Note_on_c, 7, 59, 0
9, 25320, Note_on_c, 7, 58, 80
9, 25335, Note_on_c, 7, 58, 0
9, 25335, Note_on_c, 7, 51, 89
9, 25350, Note_on_c, 7, 51, 0
9, 25350, Note_on_c, 7, 53, 89
9, 25365, Note_on_c, 7, 53, 0
9, 25365, Note_on_c, 7, 55, 89
9, 25380, Note_on_c, 7, 55, 0
9, 25380, Note_on_c, 7, 56, 90
9, 25395, Note_on_c, 7, 56, 0
9, 25395, Note_on_c, 7, 58, 80
9, 25410, Note_on_c, 7, 58, 0
9, 25410, Note_on_c, 7, 60, 89
9, 25425, Note_on_c, 7, 60, 0
9, 25425, Note_on_c, 7, 62, 80
9, 25440, Note_on_c, 7, 62, 0
9, 25440, Note_on_c, 7, 63, 77
9, 25455, Note_on_c, 7, 63, 0
9, 25470, Note_on_c, 7, 51, 82
9, 25485, Note_on_c, 7, 51, 0
9, 25500, Note_on_c, 7, 51, 93
9, 25515, Note_on_c, 7, 51, 0
9, 25530, Note_on_c, 7, 51, 99
9, 25545, Note_on_c, 7, 51, 0
9, 25560, Note_on_c, 7, 60, 104
9, 25590, Note_on_c, 7, 60, 0
9, 25590, Note_on_c, 7, 60, 84
9, 25620, Note_on_c, 7, 60, 0
9, 25620, Note_on_c, 7, 60, 90
9, 25650, Note_on_c, 7, 60, 0
9, 25650, Note_on_c, 7, 60, 94
9, 25680, Note_on_c, 7, 60, 0
9, 25680, Note_on_c, 7, 59, 110
9, 25710, Note_on_c, 7, 59, 0
9, 25710, Note_on_c, 7, 59, 95
9, 25740, Note_on_c, 7, 59, 0
9, 25740, Note_on_c, 7, 59, 94
9, 25770, Note_on_c, 7, 59, 0
9, 25770, Note_on_c, 7, 59, 93
9, 25800, Note_on_c, 7, 59, 0
9, 25800, Note_on_c, 7, 59, 93
9, 25830, Note_on_c, 7, 59, 0
9, 25830, Note_on_c, 7, 59, 93
9, 25860, Note_on_c, 7, 59, 0
9, 25860, Note_on_c, 7, 59, 89
9, 25890, Note_on_c, 7, 59, 0
9, 25890, Note_on_c, 7, 59, 94
9, 25920, Note_on_c, 7, 59, 0
9, 25920, Note_on_c, 7, 58, 99
9, 25950, Note_on_c, 7, 58, 0
9, 25950, Note_on_c, 7, 58, 86
9, 25980, Note_on_c, 7, 58, 0
9, 25980, Note_on_c, 7, 58, 81
9, 26010, Note_on_c, 7, 58, 0
9, 26010, Note_on_c, 7, 58, 84
9, 26040, Note_on_c, 7, 58, 0
9, 26040, Note_on_c, 7, 57, 105
9, 26070, Note_on_c, 7, 57, 0
9, 26070, Note_on_c, 7, 57, 93
9, 26100, Note_on_c, 7, 57, 0
9, 26100, Note_on_c, 7, 57, 86
9, 26130, Note_on_c, 7, 57, 0
9, 26130, Note_on_c, 7, 57, 90
9, 26160, Note_on_c, 7, 57, 0
9, 26160, Note_on_c, 7, 60, 105
9, 26190, Note_on_c, 7, 60, 0
9, 26190, Note_on_c, 7, 60, 94
9, 26220, Note_on_c, 7, 60, 0
9, 26220, Note_on_c, 7, 60, 94
9, 26250, Note_on_c, 7, 60, 0
9, 26250, Note_on_c, 7, 60, 94
9, 26280, Note_on_c, 7, 60, 0
9, 26280, Note_on_c, 7, 58, 95
9, 26520, Note_on_c, 7, 58, 0
9, 27720, Note_on_c, 7, 58, 39
9, 27960, Note_on_c, 7, 58, 0
9, 27960, Note_on_c, 7, 60, 50
9, 28080, Note_on_c, 7, 60, 0
9, 28080, Note_on_c, 7, 58, 51
9, 28200, Note_on_c, 7, 58, 0
9, 28800, Note_on_c, 7, 58, 45
9, 28890, Note_on_c, 7, 58, 0
9, 28920, Note_on_c, 7, 58, 43
9, 29010, Note_on_c, 7, 58, 0
9, 29040, Note_on_c, 7, 58, 43
9, 29130, Note_on_c, 7, 58, 0
9, 29160, Note_on_c, 7, 58, 35
9, 29280, Note_on_c, 7, 58, 0
9, 29520, Note_on_c, 7, 56, 37
9, 29610, Note_on_c, 7, 56, 0
9, 29640, Note_on_c, 7, 56, 33
9, 29730, Note_on_c, 7, 56, 0
9, 29760, Note_on_c, 7, 56, 47
9, 29850, Note_on_c, 7, 56, 0
9, 29880, Note_on_c, 7, 55, 43
9, 30000, Note_on_c, 7, 55, 0
9, 31320, Note_on_c, 7, 58, 59
9, 31410, Note_on_c, 7, 58, 0
9, 31440, Note_on_c, 7, 58, 58
9, 31530, Note_on_c, 7, 58, 0
9, 31560, Note_on_c, 7, 58, 53
9, 31650, Note_on_c, 7, 58, 0
9, 31680, Note_on_c, 7, 58, 58
9, 31800, Note_on_c, 7, 58, 0
9, 31920, Note_on_c, 7, 58, 60
9, 32160, Note_on_c, 7, 58, 0
9, 32280, Note_on_c, 7, 58, 50
9, 32520, Note_on_c, 7, 58, 0
9, 32520, Program_c, 7, 45
9, 32640, Note_on_c, 7, 55, 62
9, 32760, Note_on_c, 7, 55, 0
9, 32760, Note_on_c, 7, 51, 63
9, 32880, Note_on_c, 7, 51, 0
9, 32880, End_track
10, 0, Start_track
10, 0, MIDI_port, 0
10, 0, Title_t, "Cellos"
10, 0, Program_c, 8, 48
10, 0, Control_c, 8, 7, 100
10, 0, Control_c, 8, 10, 103
10, 0, Control_c, 8, 93, 0
10, 0, Control_c, 8, 91, 66
10, 0, Note_on_c, 8, 51, 57
10, 90, Note_on_c, 8, 51, 0
10, 120, Note_on_c, 8, 48, 57
10, 210, Note_on_c, 8, 48, 0
10, 240, Note_on_c, 8, 44, 54
10, 360, Note_on_c, 8, 44, 0
10, 360, Note_on_c, 8, 46, 71
10, 540, Note_on_c, 8, 46, 0
10, 720, Note_on_c, 8, 48, 56
10, 840, Note_on_c, 8, 48, 0
10, 840, Note_on_c, 8, 50, 93
10, 960, Note_on_c, 8, 50, 0
10, 960, Note_on_c, 8, 51, 53
10, 1080, Note_on_c, 8, 51, 0
10, 1080, Control_c, 8, 7, 99
10, 1080, Note_on_c, 8, 44, 85
10, 1092, Control_c, 8, 7, 100
10, 1104, Control_c, 8, 7, 101
10, 1116, Control_c, 8, 7, 102
10, 1126, Control_c, 8, 7, 103
10, 1138, Control_c, 8, 7, 104
10, 1150, Control_c, 8, 7, 105
10, 1160, Control_c, 8, 7, 106
10, 1172, Control_c, 8, 7, 107
10, 1184, Control_c, 8, 7, 108
10, 1194, Control_c, 8, 7, 109
10, 1206, Control_c, 8, 7, 110
10, 1218, Control_c, 8, 7, 111
10, 1228, Control_c, 8, 7, 112
10, 1240, Control_c, 8, 7, 113
10, 1252, Control_c, 8, 7, 114
10, 1264, Control_c, 8, 7, 115
10, 1274, Control_c, 8, 7, 116
10, 1286, Control_c, 8, 7, 117
10, 1298, Control_c, 8, 7, 118
10, 1308, Control_c, 8, 7, 119
10, 1320, Note_on_c, 8, 44, 0
10, 1320, Note_on_c, 8, 44, 82
10, 1320, Control_c, 8, 7, 120
10, 1332, Control_c, 8, 7, 121
10, 1342, Control_c, 8, 7, 122
10, 1354, Control_c, 8, 7, 123
10, 1366, Control_c, 8, 7, 124
10, 1376, Control_c, 8, 7, 125
10, 1440, Note_on_c, 8, 44, 0
10, 1440, Control_c, 8, 7, 99
10, 1440, Note_on_c, 8, 44, 99
10, 1560, Note_on_c, 8, 44, 0
10, 1560, Note_on_c, 8, 45, 93
10, 1800, Note_on_c, 8, 45, 0
10, 1800, Note_on_c, 8, 48, 104
10, 1980, Note_on_c, 8, 48, 0
10, 2025, Note_on_c, 8, 60, 99
10, 2040, Note_on_c, 8, 60, 0
10, 2040, Note_on_c, 8, 60, 99
10, 2130, Note_on_c, 8, 60, 0
10, 2145, Note_on_c, 8, 60, 101
10, 2160, Note_on_c, 8, 60, 0
10, 2160, Note_on_c, 8, 58, 94
10, 2280, Note_on_c, 8, 58, 0
10, 2280, Note_on_c, 8, 50, 71
10, 2400, Note_on_c, 8, 50, 0
10, 2400, Note_on_c, 8, 51, 59
10, 2520, Note_on_c, 8, 51, 0
10, 2520, Note_on_c, 8, 46, 69
10, 2640, Note_on_c, 8, 46, 0
10, 2640, Note_on_c, 8, 50, 95
10, 2760, Note_on_c, 8, 50, 0
10, 2760, Note_on_c, 8, 51, 95
10, 2880, Note_on_c, 8, 51, 0
10, 2880, Note_on_c, 8, 46, 44
10, 3000, Note_on_c, 8, 46, 0
10, 3150, Note_on_c, 8, 56, 94
10, 3165, Note_on_c, 8, 56, 0
10, 3180, Note_on_c, 8, 55, 94
10, 3195, Note_on_c, 8, 55, 0
10, 3210, Note_on_c, 8, 51, 99
10, 3225, Note_on_c, 8, 51, 0
10, 3240, Note_on_c, 8, 58, 84
10, 3300, Note_on_c, 8, 58, 0
10, 3360, Note_on_c, 8, 46, 117
10, 3480, Note_on_c, 8, 46, 0
10, 3480, Note_on_c, 8, 46, 81
10, 3510, Note_on_c, 8, 46, 0
10, 3510, Note_on_c, 8, 56, 84
10, 3525, Note_on_c, 8, 56, 0
10, 3540, Note_on_c, 8, 55, 93
10, 3555, Note_on_c, 8, 55, 0
10, 3570, Note_on_c, 8, 51, 94
10, 3585, Note_on_c, 8, 51, 0
10, 3600, Note_on_c, 8, 58, 81
10, 3660, Note_on_c, 8, 58, 0
10, 3705, Note_on_c, 8, 46, 94
10, 3720, Note_on_c, 8, 46, 0
10, 3720, Note_on_c, 8, 46, 94
10, 3810, Note_on_c, 8, 46, 0
10, 3825, Note_on_c, 8, 46, 95
10, 3840, Note_on_c, 8, 46, 0
10, 3840, Note_on_c, 8, 46, 95
10, 3930, Note_on_c, 8, 46, 0
10, 3945, Note_on_c, 8, 46, 93
10, 3960, Note_on_c, 8, 46, 0
10, 3960, Note_on_c, 8, 46, 89
10, 3960, Control_c, 8, 7, 99
10, 3972, Control_c, 8, 7, 98
10, 3982, Control_c, 8, 7, 97
10, 3992, Control_c, 8, 7, 96
10, 4004, Control_c, 8, 7, 95
10, 4014, Control_c, 8, 7, 94
10, 4024, Control_c, 8, 7, 93
10, 4036, Control_c, 8, 7, 92
10, 4046, Control_c, 8, 7, 91
10, 4056, Control_c, 8, 7, 90
10, 4068, Control_c, 8, 7, 89
10, 4078, Control_c, 8, 7, 88
10, 4088, Control_c, 8, 7, 87
10, 4100, Control_c, 8, 7, 86
10, 4110, Control_c, 8, 7, 85
10, 4120, Control_c, 8, 7, 84
10, 4132, Control_c, 8, 7, 83
10, 4142, Control_c, 8, 7, 82
10, 4152, Control_c, 8, 7, 81
10, 4164, Control_c, 8, 7, 80
10, 4174, Control_c, 8, 7, 79
10, 4184, Control_c, 8, 7, 78
10, 4196, Control_c, 8, 7, 77
10, 4206, Control_c, 8, 7, 76
10, 4216, Control_c, 8, 7, 75
10, 4228, Control_c, 8, 7, 74
10, 4238, Control_c, 8, 7, 73
10, 4248, Control_c, 8, 7, 72
10, 4260, Control_c, 8, 7, 71
10, 4270, Control_c, 8, 7, 70
10, 4280, Control_c, 8, 7, 69
10, 4292, Control_c, 8, 7, 68
10, 4302, Control_c, 8, 7, 67
10, 4312, Control_c, 8, 7, 66
10, 4320, Note_on_c, 8, 46, 0
10, 4320, Note_on_c, 8, 51, 94
10, 4322, Control_c, 8, 7, 65
10, 4380, Note_on_c, 8, 51, 0
10, 4500, Control_c, 8, 7, 99
10, 5760, Note_on_c, 8, 51, 98
10, 5880, Note_on_c, 8, 51, 0
10, 5940, Note_on_c, 8, 63, 89
10, 5970, Note_on_c, 8, 63, 0
10, 6000, Note_on_c, 8, 58, 93
10, 6030, Note_on_c, 8, 58, 0
10, 6060, Note_on_c, 8, 55, 99
10, 6090, Note_on_c, 8, 55, 0
10, 6120, Note_on_c, 8, 51, 98
10, 6150, Note_on_c, 8, 51, 0
10, 6360, Note_on_c, 8, 51, 69
10, 6420, Note_on_c, 8, 51, 0
10, 6480, Note_on_c, 8, 50, 73
10, 6540, Note_on_c, 8, 50, 0
10, 6720, Note_on_c, 8, 55, 62
10, 6780, Note_on_c, 8, 55, 0
10, 6840, Note_on_c, 8, 48, 53
10, 6900, Note_on_c, 8, 48, 0
10, 7080, Note_on_c, 8, 53, 72
10, 7140, Note_on_c, 8, 53, 0
10, 7200, Note_on_c, 8, 58, 64
10, 7260, Note_on_c, 8, 58, 0
10, 7440, Note_on_c, 8, 50, 60
10, 7500, Note_on_c, 8, 50, 0
10, 7560, Note_on_c, 8, 51, 70
10, 7680, Note_on_c, 8, 51, 0
10, 7800, Note_on_c, 8, 52, 78
10, 7860, Note_on_c, 8, 52, 0
10, 7920, Note_on_c, 8, 53, 62
10, 8040, Note_on_c, 8, 53, 0
10, 8100, Note_on_c, 8, 62, 72
10, 8160, Note_on_c, 8, 62, 0
10, 8160, Note_on_c, 8, 60, 90
10, 8220, Note_on_c, 8, 60, 0
10, 8220, Note_on_c, 8, 58, 93
10, 8280, Note_on_c, 8, 58, 0
10, 8280, Note_on_c, 8, 57, 112
10, 8340, Note_on_c, 8, 57, 0
10, 8340, Note_on_c, 8, 53, 89
10, 8400, Note_on_c, 8, 53, 0
10, 8400, Note_on_c, 8, 58, 84
10, 8430, Note_on_c, 8, 58, 0
10, 8820, Note_on_c, 8, 63, 66
10, 8880, Note_on_c, 8, 63, 0
10, 8880, Note_on_c, 8, 62, 81
10, 8940, Note_on_c, 8, 62, 0
10, 8940, Note_on_c, 8, 60, 94
10, 9000, Note_on_c, 8, 60, 0
10, 9000, Note_on_c, 8, 59, 104
10, 9060, Note_on_c, 8, 59, 0
10, 9060, Note_on_c, 8, 55, 84
10, 9120, Note_on_c, 8, 55, 0
10, 9120, Note_on_c, 8, 60, 89
10, 9150, Note_on_c, 8, 60, 0
10, 9180, Note_on_c, 8, 63, 65
10, 9210, Note_on_c, 8, 63, 0
10, 9240, Note_on_c, 8, 62, 54
10, 9270, Note_on_c, 8, 62, 0
10, 9300, Note_on_c, 8, 60, 74
10, 9330, Note_on_c, 8, 60, 0
10, 9360, Note_on_c, 8, 59, 62
10, 9390, Note_on_c, 8, 59, 0
10, 9420, Note_on_c, 8, 55, 76
10, 9450, Note_on_c, 8, 55, 0
10, 9480, Note_on_c, 8, 60, 65
10, 9510, Note_on_c, 8, 60, 0
10, 9540, Note_on_c, 8, 58, 72
10, 9570, Note_on_c, 8, 58, 0
10, 9600, Note_on_c, 8, 57, 81
10, 9630, Note_on_c, 8, 57, 0
10, 9660, Note_on_c, 8, 53, 74
10, 9690, Note_on_c, 8, 53, 0
10, 9720, Note_on_c, 8, 58, 73
10, 9750, Note_on_c, 8, 58, 0
10, 9780, Note_on_c, 8, 57, 82
10, 9810, Note_on_c, 8, 57, 0
10, 9840, Note_on_c, 8, 55, 76
10, 9870, Note_on_c, 8, 55, 0
10, 9900, Note_on_c, 8, 53, 73
10, 9930, Note_on_c, 8, 53, 0
10, 9960, Note_on_c, 8, 51, 62
10, 9990, Note_on_c, 8, 51, 0
10, 10020, Note_on_c, 8, 50, 76
10, 10050, Note_on_c, 8, 50, 0
10, 10080, Note_on_c, 8, 51, 68
10, 10140, Note_on_c, 8, 51, 0
10, 10200, Note_on_c, 8, 51, 62
10, 10260, Note_on_c, 8, 51, 0
10, 10320, Note_on_c, 8, 51, 66
10, 10380, Note_on_c, 8, 51, 0
10, 10440, Note_on_c, 8, 53, 68
10, 10500, Note_on_c, 8, 53, 0
10, 10680, Note_on_c, 8, 53, 72
10, 10740, Note_on_c, 8, 53, 0
10, 10792, Control_c, 8, 7, 63
10, 10800, Control_c, 8, 7, 63
10, 10800, Note_on_c, 8, 46, 94
10, 10812, Control_c, 8, 7, 64
10, 10822, Control_c, 8, 7, 65
10, 10832, Control_c, 8, 7, 66
10, 10842, Control_c, 8, 7, 67
10, 10852, Control_c, 8, 7, 68
10, 10862, Control_c, 8, 7, 69
10, 10872, Control_c, 8, 7, 70
10, 10884, Control_c, 8, 7, 71
10, 10894, Control_c, 8, 7, 72
10, 10904, Control_c, 8, 7, 73
10, 10914, Control_c, 8, 7, 74
10, 10924, Control_c, 8, 7, 75
10, 10934, Control_c, 8, 7, 76
10, 10944, Control_c, 8, 7, 77
10, 10956, Control_c, 8, 7, 78
10, 10966, Control_c, 8, 7, 79
10, 10976, Control_c, 8, 7, 80
10, 10986, Control_c, 8, 7, 81
10, 10996, Control_c, 8, 7, 82
10, 11006, Control_c, 8, 7, 83
10, 11016, Control_c, 8, 7, 84
10, 11028, Control_c, 8, 7, 85
10, 11038, Control_c, 8, 7, 86
10, 11040, Note_on_c, 8, 46, 0
10, 11040, Note_on_c, 8, 42, 85
10, 11048, Control_c, 8, 7, 87
10, 11058, Control_c, 8, 7, 88
10, 11068, Control_c, 8, 7, 89
10, 11078, Control_c, 8, 7, 90
10, 11088, Control_c, 8, 7, 91
10, 11100, Control_c, 8, 7, 92
10, 11110, Control_c, 8, 7, 93
10, 11120, Control_c, 8, 7, 94
10, 11130, Control_c, 8, 7, 95
10, 11140, Control_c, 8, 7, 96
10, 11150, Control_c, 8, 7, 97
10, 11160, Note_on_c, 8, 42, 0
10, 11160, Note_on_c, 8, 44, 95
10, 11160, Control_c, 8, 7, 99
10, 11280, Note_on_c, 8, 44, 0
10, 11280, Note_on_c, 8, 44, 67
10, 11295, Note_on_c, 8, 44, 0
10, 11295, Note_on_c, 8, 44, 82
10, 11310, Note_on_c, 8, 44, 0
10, 11310, Note_on_c, 8, 46, 85
10, 11325, Note_on_c, 8, 46, 0
10, 11325, Note_on_c, 8, 48, 69
10, 11340, Note_on_c, 8, 48, 0
10, 11340, Note_on_c, 8, 49, 80
10, 11355, Note_on_c, 8, 49, 0
10, 11355, Note_on_c, 8, 51, 85
10, 11370, Note_on_c, 8, 51, 0
10, 11370, Note_on_c, 8, 53, 54
10, 11385, Note_on_c, 8, 53, 0
10, 11385, Note_on_c, 8, 55, 94
10, 11400, Note_on_c, 8, 55, 0
10, 11400, Note_on_c, 8, 56, 74
10, 11430, Note_on_c, 8, 56, 0
10, 11460, Note_on_c, 8, 44, 76
10, 11490, Note_on_c, 8, 44, 0
10, 11520, Note_on_c, 8, 46, 95
10, 11640, Note_on_c, 8, 46, 0
10, 11640, Note_on_c, 8, 46, 71
10, 11655, Note_on_c, 8, 46, 0
10, 11655, Note_on_c, 8, 46, 84
10, 11670, Note_on_c, 8, 46, 0
10, 11670, Note_on_c, 8, 48, 82
10, 11685, Note_on_c, 8, 48, 0
10, 11685, Note_on_c, 8, 50, 81
10, 11700, Note_on_c, 8, 50, 0
10, 11700, Note_on_c, 8, 51, 85
10, 11715, Note_on_c, 8, 51, 0
10, 11715, Note_on_c, 8, 53, 84
10, 11730, Note_on_c, 8, 53, 0
10, 11730, Note_on_c, 8, 55, 71
10, 11745, Note_on_c, 8, 55, 0
10, 11745, Note_on_c, 8, 57, 94
10, 11760, Note_on_c, 8, 57, 0
10, 11760, Note_on_c, 8, 58, 70
10, 11790, Note_on_c, 8, 58, 0
10, 11820, Note_on_c, 8, 46, 84
10, 11850, Note_on_c, 8, 46, 0
10, 11880, Note_on_c, 8, 47, 104
10, 12000, Note_on_c, 8, 47, 0
10, 12000, Note_on_c, 8, 47, 110
10, 12120, Note_on_c, 8, 47, 0
10, 12120, Note_on_c, 8, 47, 105
10, 12240, Note_on_c, 8, 47, 0
10, 12240, Note_on_c, 8, 46, 101
10, 12300, Note_on_c, 8, 46, 0
10, 12360, Note_on_c, 8, 58, 61
10, 12480, Note_on_c, 8, 58, 0
10, 12480, Note_on_c, 8, 57, 57
10, 12600, Note_on_c, 8, 57, 0
10, 12600, Note_on_c, 8, 56, 58
10, 12720, Note_on_c, 8, 56, 0
10, 12720, Note_on_c, 8, 55, 52
10, 12840, Note_on_c, 8, 55, 0
10, 12840, Note_on_c, 8, 50, 66
10, 12960, Note_on_c, 8, 50, 0
10, 12960, Note_on_c, 8, 51, 54
10, 13020, Note_on_c, 8, 51, 0
10, 14760, Program_c, 8, 45
10, 14760, Note_on_c, 8, 51, 64
10, 14820, Note_on_c, 8, 51, 0
10, 14880, Note_on_c, 8, 48, 67
10, 14940, Note_on_c, 8, 48, 0
10, 15000, Note_on_c, 8, 44, 55
10, 15060, Note_on_c, 8, 44, 0
10, 15120, Note_on_c, 8, 46, 76
10, 15180, Note_on_c, 8, 46, 0
10, 15240, Note_on_c, 8, 58, 78
10, 15300, Note_on_c, 8, 58, 0
10, 15480, Note_on_c, 8, 48, 76
10, 15540, Note_on_c, 8, 48, 0
10, 15600, Note_on_c, 8, 50, 84
10, 15660, Note_on_c, 8, 50, 0
10, 15720, Note_on_c, 8, 51, 74
10, 15780, Note_on_c, 8, 51, 0
10, 15840, Note_on_c, 8, 56, 74
10, 15900, Note_on_c, 8, 56, 0
10, 15960, Note_on_c, 8, 58, 73
10, 16020, Note_on_c, 8, 58, 0
10, 16080, Note_on_c, 8, 46, 72
10, 16140, Note_on_c, 8, 46, 0
10, 16200, Note_on_c, 8, 51, 77
10, 16260, Note_on_c, 8, 51, 0
10, 16320, Note_on_c, 8, 51, 76
10, 16380, Note_on_c, 8, 51, 0
10, 16560, Note_on_c, 8, 48, 90
10, 16620, Note_on_c, 8, 48, 0
10, 16680, Note_on_c, 8, 50, 80
10, 16740, Note_on_c, 8, 50, 0
10, 16800, Note_on_c, 8, 51, 85
10, 16860, Note_on_c, 8, 51, 0
10, 16920, Note_on_c, 8, 56, 81
10, 16980, Note_on_c, 8, 56, 0
10, 17040, Note_on_c, 8, 56, 81
10, 17100, Note_on_c, 8, 56, 0
10, 17160, Note_on_c, 8, 57, 94
10, 17220, Note_on_c, 8, 57, 0
10, 17280, Note_on_c, 8, 58, 81
10, 17400, Note_on_c, 8, 58, 0
10, 17400, Program_c, 8, 48
10, 17460, Note_on_c, 8, 55, 64
10, 17520, Note_on_c, 8, 55, 0
10, 17520, Note_on_c, 8, 53, 93
10, 17580, Note_on_c, 8, 53, 0
10, 17580, Note_on_c, 8, 51, 89
10, 17640, Note_on_c, 8, 51, 0
10, 17640, Note_on_c, 8, 50, 99
10, 17700, Note_on_c, 8, 50, 0
10, 17700, Note_on_c, 8, 46, 86
10, 17760, Note_on_c, 8, 46, 0
10, 17760, Note_on_c, 8, 51, 84
10, 17790, Note_on_c, 8, 51, 0
10, 18180, Note_on_c, 8, 60, 70
10, 18240, Note_on_c, 8, 60, 0
10, 18240, Note_on_c, 8, 58, 84
10, 18300, Note_on_c, 8, 58, 0
10, 18300, Note_on_c, 8, 56, 93
10, 18360, Note_on_c, 8, 56, 0
10, 18360, Note_on_c, 8, 55, 104
10, 18420, Note_on_c, 8, 55, 0
10, 18420, Note_on_c, 8, 51, 85
10, 18480, Note_on_c, 8, 51, 0
10, 18480, Note_on_c, 8, 56, 85
10, 18510, Note_on_c, 8, 56, 0
10, 18540, Note_on_c, 8, 60, 53
10, 18570, Note_on_c, 8, 60, 0
10, 18600, Note_on_c, 8, 58, 48
10, 18630, Note_on_c, 8, 58, 0
10, 18660, Note_on_c, 8, 56, 60
10, 18690, Note_on_c, 8, 56, 0
10, 18720, Note_on_c, 8, 55, 45
10, 18750, Note_on_c, 8, 55, 0
10, 18780, Note_on_c, 8, 51, 60
10, 18810, Note_on_c, 8, 51, 0
10, 18840, Note_on_c, 8, 56, 51
10, 18870, Note_on_c, 8, 56, 0
10, 18900, Note_on_c, 8, 52, 73
10, 18930, Note_on_c, 8, 52, 0
10, 18960, Note_on_c, 8, 53, 43
10, 18990, Note_on_c, 8, 53, 0
10, 19020, Note_on_c, 8, 55, 64
10, 19050, Note_on_c, 8, 55, 0
10, 19080, Note_on_c, 8, 56, 62
10, 19140, Note_on_c, 8, 56, 0
10, 19200, Note_on_c, 8, 58, 59
10, 19260, Note_on_c, 8, 58, 0
10, 19320, Note_on_c, 8, 56, 68
10, 19380, Note_on_c, 8, 56, 0
10, 19440, Note_on_c, 8, 55, 68
10, 19500, Note_on_c, 8, 55, 0
10, 19680, Note_on_c, 8, 55, 71
10, 19740, Note_on_c, 8, 55, 0
10, 19800, Note_on_c, 8, 56, 64
10, 19860, Note_on_c, 8, 56, 0
10, 20040, Note_on_c, 8, 56, 57
10, 20100, Note_on_c, 8, 56, 0
10, 20160, Note_on_c, 8, 58, 57
10, 20220, Note_on_c, 8, 58, 0
10, 20400, Note_on_c, 8, 59, 60
10, 20520, Note_on_c, 8, 59, 0
10, 20520, Note_on_c, 8, 48, 81
10, 20550, Note_on_c, 8, 48, 0
10, 20580, Note_on_c, 8, 60, 65
10, 20640, Note_on_c, 8, 60, 0
10, 20640, Note_on_c, 8, 59, 84
10, 20700, Note_on_c, 8, 59, 0
10, 20700, Note_on_c, 8, 60, 64
10, 20760, Note_on_c, 8, 60, 0
10, 20760, Note_on_c, 8, 58, 80
10, 20820, Note_on_c, 8, 58, 0
10, 20820, Note_on_c, 8, 56, 43
10, 20880, Note_on_c, 8, 56, 0
10, 20880, Note_on_c, 8, 55, 72
10, 20940, Note_on_c, 8, 55, 0
10, 21120, Note_on_c, 8, 55, 72
10, 21180, Note_on_c, 8, 55, 0
10, 21240, Note_on_c, 8, 56, 78
10, 21300, Note_on_c, 8, 56, 0
10, 21480, Note_on_c, 8, 57, 86
10, 21540, Note_on_c, 8, 57, 0
10, 21600, Note_on_c, 8, 58, 62
10, 21660, Note_on_c, 8, 58, 0
10, 23040, Note_on_c, 8, 45, 77
10, 23100, Note_on_c, 8, 45, 0
10, 23160, Note_on_c, 8, 46, 71
10, 23220, Note_on_c, 8, 46, 0
10, 23280, Note_on_c, 8, 47, 81
10, 23340, Note_on_c, 8, 47, 0
10, 23400, Note_on_c, 8, 45, 55
10, 23460, Note_on_c, 8, 45, 0
10, 23520, Note_on_c, 8, 48, 45
10, 23580, Note_on_c, 8, 48, 0
10, 23640, Note_on_c, 8, 45, 57
10, 23700, Note_on_c, 8, 45, 0
10, 23760, Note_on_c, 8, 46, 33
10, 23820, Note_on_c, 8, 46, 0
10, 24120, Note_on_c, 8, 46, 44
10, 24180, Note_on_c, 8, 46, 0
10, 24240, Note_on_c, 8, 46, 43
10, 24300, Note_on_c, 8, 46, 0
10, 24360, Note_on_c, 8, 46, 57
10, 24420, Note_on_c, 8, 46, 0
10, 24480, Note_on_c, 8, 39, 94
10, 24495, Note_on_c, 8, 39, 0
10, 24510, Note_on_c, 8, 51, 84
10, 24525, Note_on_c, 8, 51, 0
10, 24540, Note_on_c, 8, 51, 78
10, 24555, Note_on_c, 8, 51, 0
10, 24570, Note_on_c, 8, 51, 82
10, 24585, Note_on_c, 8, 51, 0
10, 24600, Note_on_c, 8, 51, 84
10, 24615, Note_on_c, 8, 51, 0
10, 24630, Note_on_c, 8, 51, 85
10, 24645, Note_on_c, 8, 51, 0
10, 24660, Note_on_c, 8, 51, 85
10, 24675, Note_on_c, 8, 51, 0
10, 24690, Note_on_c, 8, 51, 86
10, 24705, Note_on_c, 8, 51, 0
10, 24720, Note_on_c, 8, 47, 99
10, 24735, Note_on_c, 8, 47, 0
10, 24750, Note_on_c, 8, 47, 99
10, 24765, Note_on_c, 8, 47, 0
10, 24780, Note_on_c, 8, 44, 93
10, 24795, Note_on_c, 8, 44, 0
10, 24810, Note_on_c, 8, 44, 95
10, 24825, Note_on_c, 8, 44, 0
10, 24840, Note_on_c, 8, 49, 95
10, 24960, Note_on_c, 8, 49, 0
10, 24960, Note_on_c, 8, 49, 74
10, 24975, Note_on_c, 8, 49, 0
10, 24975, Note_on_c, 8, 49, 86
10, 24990, Note_on_c, 8, 49, 0
10, 24990, Note_on_c, 8, 51, 93
10, 25005, Note_on_c, 8, 51, 0
10, 25005, Note_on_c, 8, 53, 81
10, 25020, Note_on_c, 8, 53, 0
10, 25020, Note_on_c, 8, 54, 86
10, 25035, Note_on_c, 8, 54, 0
10, 25035, Note_on_c, 8, 56, 89
10, 25050, Note_on_c, 8, 56, 0
10, 25050, Note_on_c, 8, 58, 89
10, 25065, Note_on_c, 8, 58, 0
10, 25065, Note_on_c, 8, 60, 85
10, 25080, Note_on_c, 8, 60, 0
10, 25080, Note_on_c, 8, 61, 74
10, 25095, Note_on_c, 8, 61, 0
10, 25110, Note_on_c, 8, 49, 89
10, 25125, Note_on_c, 8, 49, 0
10, 25140, Note_on_c, 8, 49, 93
10, 25155, Note_on_c, 8, 49, 0
10, 25170, Note_on_c, 8, 49, 94
10, 25185, Note_on_c, 8, 49, 0
10, 25200, Note_on_c, 8, 51, 99
10, 25320, Note_on_c, 8, 51, 0
10, 25320, Note_on_c, 8, 51, 74
10, 25335, Note_on_c, 8, 51, 0
10, 25335, Note_on_c, 8, 51, 90
10, 25350, Note_on_c, 8, 51, 0
10, 25350, Note_on_c, 8, 53, 89
10, 25365, Note_on_c, 8, 53, 0
10, 25365, Note_on_c, 8, 55, 76
10, 25380, Note_on_c, 8, 55, 0
10, 25380, Note_on_c, 8, 56, 89
10, 25395, Note_on_c, 8, 56, 0
10, 25395, Note_on_c, 8, 58, 84
10, 25410, Note_on_c, 8, 58, 0
10, 25410, Note_on_c, 8, 60, 80
10, 25425, Note_on_c, 8, 60, 0
10, 25425, Note_on_c, 8, 62, 81
10, 25440, Note_on_c, 8, 62, 0
10, 25440, Note_on_c, 8, 63, 77
10, 25455, Note_on_c, 8, 63, 0
10, 25470, Note_on_c, 8, 51, 90
10, 25485, Note_on_c, 8, 51, 0
10, 25500, Note_on_c, 8, 51, 89
10, 25515, Note_on_c, 8, 51, 0
10, 25530, Note_on_c, 8, 51, 90
10, 25545, Note_on_c, 8, 51, 0
10, 25560, Note_on_c, 8, 48, 104
10, 25590, Note_on_c, 8, 48, 0
10, 25590, Note_on_c, 8, 48, 84
10, 25620, Note_on_c, 8, 48, 0
10, 25620, Note_on_c, 8, 48, 90
10, 25650, Note_on_c, 8, 48, 0
10, 25650, Note_on_c, 8, 48, 94
10, 25680, Note_on_c, 8, 48, 0
10, 25680, Note_on_c, 8, 47, 110
10, 25710, Note_on_c, 8, 47, 0
10, 25710, Note_on_c, 8, 47, 95
10, 25740, Note_on_c, 8, 47, 0
10, 25740, Note_on_c, 8, 47, 94
10, 25770, Note_on_c, 8, 47, 0
10, 25770, Note_on_c, 8, 47, 93
10, 25800, Note_on_c, 8, 47, 0
10, 25800, Note_on_c, 8, 47, 93
10, 25830, Note_on_c, 8, 47, 0
10, 25830, Note_on_c, 8, 47, 93
10, 25860, Note_on_c, 8, 47, 0
10, 25860, Note_on_c, 8, 47, 89
10, 25890, Note_on_c, 8, 47, 0
10, 25890, Note_on_c, 8, 47, 94
10, 25920, Note_on_c, 8, 47, 0
10, 25920, Note_on_c, 8, 46, 99
10, 25950, Note_on_c, 8, 46, 0
10, 25950, Note_on_c, 8, 46, 86
10, 25980, Note_on_c, 8, 46, 0
10, 25980, Note_on_c, 8, 46, 81
10, 26010, Note_on_c, 8, 46, 0
10, 26010, Note_on_c, 8, 46, 84
10, 26040, Note_on_c, 8, 46, 0
10, 26040, Note_on_c, 8, 45, 105
10, 26070, Note_on_c, 8, 45, 0
10, 26070, Note_on_c, 8, 45, 93
10, 26100, Note_on_c, 8, 45, 0
10, 26100, Note_on_c, 8, 45, 86
10, 26130, Note_on_c, 8, 45, 0
10, 26130, Note_on_c, 8, 45, 90
10, 26160, Note_on_c, 8, 45, 0
10, 26160, Note_on_c, 8, 48, 105
10, 26190, Note_on_c, 8, 48, 0
10, 26190, Note_on_c, 8, 48, 94
10, 26220, Note_on_c, 8, 48, 0
10, 26220, Note_on_c, 8, 48, 94
10, 26250, Note_on_c, 8, 48, 0
10, 26250, Note_on_c, 8, 48, 94
10, 26280, Note_on_c, 8, 48, 0
10, 26280, Note_on_c, 8, 46, 95
10, 26520, Note_on_c, 8, 46, 0
10, 27720, Note_on_c, 8, 51, 43
10, 27960, Note_on_c, 8, 51, 0
10, 27960, Note_on_c, 8, 44, 43
10, 28080, Note_on_c, 8, 44, 0
10, 28080, Note_on_c, 8, 46, 53
10, 28200, Note_on_c, 8, 46, 0
10, 28800, Note_on_c, 8, 46, 54
10, 28890, Note_on_c, 8, 46, 0
10, 28920, Note_on_c, 8, 50, 42
10, 29010, Note_on_c, 8, 50, 0
10, 29040, Note_on_c, 8, 46, 52
10, 29130, Note_on_c, 8, 46, 0
10, 29160, Note_on_c, 8, 51, 43
10, 29280, Note_on_c, 8, 51, 0
10, 29520, Note_on_c, 8, 46, 44
10, 29610, Note_on_c, 8, 46, 0
10, 29640, Note_on_c, 8, 46, 38
10, 29730, Note_on_c, 8, 46, 0
10, 29760, Note_on_c, 8, 46, 50
10, 29850, Note_on_c, 8, 46, 0
10, 29880, Note_on_c, 8, 51, 43
10, 30000, Note_on_c, 8, 51, 0
10, 31320, Note_on_c, 8, 46, 58
10, 31410, Note_on_c, 8, 46, 0
10, 31440, Note_on_c, 8, 46, 62
10, 31530, Note_on_c, 8, 46, 0
10, 31560, Note_on_c, 8, 46, 68
10, 31650, Note_on_c, 8, 46, 0
10, 31680, Note_on_c, 8, 51, 67
10, 31800, Note_on_c, 8, 51, 0
10, 31920, Note_on_c, 8, 46, 70
10, 32040, Note_on_c, 8, 46, 0
10, 32040, Note_on_c, 8, 51, 53
10, 32160, Note_on_c, 8, 51, 0
10, 32280, Note_on_c, 8, 46, 71
10, 32400, Note_on_c, 8, 46, 0
10, 32400, Note_on_c, 8, 51, 65
10, 32520, Note_on_c, 8, 51, 0
10, 32520, Program_c, 8, 45
10, 32640, Note_on_c, 8, 39, 58
10, 32760, Note_on_c, 8, 39, 0
10, 32760, Note_on_c, 8, 39, 58
10, 32880, Note_on_c, 8, 39, 0
10, 32880, End_track
11, 0, Start_track
11, 0, MIDI_port, 0
11, 0, Title_t, "Contrabasses"
11, 0, Program_c, 10, 48
11, 0, Control_c, 10, 7, 100
11, 0, Control_c, 10, 10, 119
11, 0, Control_c, 10, 93, 0
11, 0, Control_c, 10, 91, 66
11, 0, Note_on_c, 10, 39, 57
11, 90, Note_on_c, 10, 39, 0
11, 120, Note_on_c, 10, 36, 57
11, 210, Note_on_c, 10, 36, 0
11, 240, Note_on_c, 10, 32, 54
11, 360, Note_on_c, 10, 32, 0
11, 360, Note_on_c, 10, 34, 71
11, 540, Note_on_c, 10, 34, 0
11, 720, Note_on_c, 10, 36, 56
11, 840, Note_on_c, 10, 36, 0
11, 840, Note_on_c, 10, 38, 93
11, 960, Note_on_c, 10, 38, 0
11, 960, Note_on_c, 10, 39, 53
11, 1080, Note_on_c, 10, 39, 0
11, 1080, Control_c, 10, 7, 99
11, 1080, Note_on_c, 10, 32, 85
11, 1092, Control_c, 10, 7, 100
11, 1104, Control_c, 10, 7, 101
11, 1114, Control_c, 10, 7, 102
11, 1126, Control_c, 10, 7, 103
11, 1136, Control_c, 10, 7, 104
11, 1148, Control_c, 10, 7, 105
11, 1158, Control_c, 10, 7, 106
11, 1170, Control_c, 10, 7, 107
11, 1180, Control_c, 10, 7, 108
11, 1192, Control_c, 10, 7, 109
11, 1202, Control_c, 10, 7, 110
11, 1214, Control_c, 10, 7, 111
11, 1224, Control_c, 10, 7, 112
11, 1236, Control_c, 10, 7, 113
11, 1248, Control_c, 10, 7, 114
11, 1258, Control_c, 10, 7, 115
11, 1270, Control_c, 10, 7, 116
11, 1280, Control_c, 10, 7, 117
11, 1292, Control_c, 10, 7, 118
11, 1302, Control_c, 10, 7, 119
11, 1314, Control_c, 10, 7, 120
11, 1320, Note_on_c, 10, 32, 0
11, 1320, Note_on_c, 10, 32, 82
11, 1324, Control_c, 10, 7, 121
11, 1336, Control_c, 10, 7, 122
11, 1346, Control_c, 10, 7, 123
11, 1358, Control_c, 10, 7, 124
11, 1368, Control_c, 10, 7, 125
11, 1440, Note_on_c, 10, 32, 0
11, 1440, Control_c, 10, 7, 99
11, 1440, Note_on_c, 10, 32, 99
11, 1560, Note_on_c, 10, 32, 0
11, 1560, Note_on_c, 10, 33, 93
11, 1800, Note_on_c, 10, 33, 0
11, 1800, Note_on_c, 10, 36, 104
11, 1980, Note_on_c, 10, 36, 0
11, 2025, Note_on_c, 10, 48, 99
11, 2040, Note_on_c, 10, 48, 0
11, 2040, Note_on_c, 10, 48, 99
11, 2130, Note_on_c, 10, 48, 0
11, 2145, Note_on_c, 10, 48, 101
11, 2160, Note_on_c, 10, 48, 0
11, 2160, Note_on_c, 10, 46, 94
11, 2280, Note_on_c, 10, 46, 0
11, 2280, Note_on_c, 10, 38, 71
11, 2400, Note_on_c, 10, 38, 0
11, 2400, Note_on_c, 10, 39, 59
11, 2520, Note_on_c, 10, 39, 0
11, 2520, Note_on_c, 10, 34, 69
11, 2640, Note_on_c, 10, 34, 0
11, 2640, Note_on_c, 10, 38, 95
11, 2760, Note_on_c, 10, 38, 0
11, 2760, Note_on_c, 10, 39, 95
11, 2880, Note_on_c, 10, 39, 0
11, 2880, Note_on_c, 10, 34, 44
11, 3000, Note_on_c, 10, 34, 0
11, 3150, Note_on_c, 10, 44, 94
11, 3165, Note_on_c, 10, 44, 0
11, 3180, Note_on_c, 10, 43, 94
11, 3195, Note_on_c, 10, 43, 0
11, 3210, Note_on_c, 10, 39, 99
11, 3225, Note_on_c, 10, 39, 0
11, 3240, Note_on_c, 10, 46, 84
11, 3300, Note_on_c, 10, 46, 0
11, 3360, Note_on_c, 10, 34, 117
11, 3480, Note_on_c, 10, 34, 0
11, 3480, Note_on_c, 10, 34, 81
11, 3510, Note_on_c, 10, 34, 0
11, 3510, Note_on_c, 10, 44, 84
11, 3525, Note_on_c, 10, 44, 0
11, 3540, Note_on_c, 10, 43, 93
11, 3555, Note_on_c, 10, 43, 0
11, 3570, Note_on_c, 10, 39, 94
11, 3585, Note_on_c, 10, 39, 0
11, 3600, Note_on_c, 10, 46, 81
11, 3660, Note_on_c, 10, 46, 0
11, 3705, Note_on_c, 10, 34, 94
11, 3720, Note_on_c, 10, 34, 0
11, 3720, Note_on_c, 10, 34, 94
11, 3810, Note_on_c, 10, 34, 0
11, 3825, Note_on_c, 10, 34, 95
11, 3840, Note_on_c, 10, 34, 0
11, 3840, Note_on_c, 10, 34, 95
11, 3930, Note_on_c, 10, 34, 0
11, 3945, Note_on_c, 10, 34, 93
11, 3960, Note_on_c, 10, 34, 0
11, 3960, Note_on_c, 10, 34, 89
11, 3960, Control_c, 10, 7, 99
11, 3972, Control_c, 10, 7, 98
11, 3982, Control_c, 10, 7, 97
11, 3994, Control_c, 10, 7, 96
11, 4004, Control_c, 10, 7, 95
11, 4016, Control_c, 10, 7, 94
11, 4026, Control_c, 10, 7, 93
11, 4036, Control_c, 10, 7, 92
11, 4048, Control_c, 10, 7, 91
11, 4058, Control_c, 10, 7, 90
11, 4070, Control_c, 10, 7, 89
11, 4080, Control_c, 10, 7, 88
11, 4092, Control_c, 10, 7, 87
11, 4102, Control_c, 10, 7, 86
11, 4112, Control_c, 10, 7, 85
11, 4124, Control_c, 10, 7, 84
11, 4134, Control_c, 10, 7, 83
11, 4146, Control_c, 10, 7, 82
11, 4156, Control_c, 10, 7, 81
11, 4168, Control_c, 10, 7, 80
11, 4178, Control_c, 10, 7, 79
11, 4188, Control_c, 10, 7, 78
11, 4200, Control_c, 10, 7, 77
11, 4210, Control_c, 10, 7, 76
11, 4222, Control_c, 10, 7, 75
11, 4232, Control_c, 10, 7, 74
11, 4244, Control_c, 10, 7, 73
11, 4254, Control_c, 10, 7, 72
11, 4264, Control_c, 10, 7, 71
11, 4276, Control_c, 10, 7, 70
11, 4286, Control_c, 10, 7, 69
11, 4298, Control_c, 10, 7, 68
11, 4308, Control_c, 10, 7, 67
11, 4318, Control_c, 10, 7, 66
11, 4320, Note_on_c, 10, 34, 0
11, 4320, Note_on_c, 10, 39, 94
11, 4380, Note_on_c, 10, 39, 0
11, 4502, Control_c, 10, 7, 99
11, 5760, Note_on_c, 10, 39, 98
11, 5880, Note_on_c, 10, 39, 0
11, 5940, Note_on_c, 10, 51, 89
11, 5970, Note_on_c, 10, 51, 0
11, 6000, Note_on_c, 10, 46, 93
11, 6030, Note_on_c, 10, 46, 0
11, 6060, Note_on_c, 10, 43, 99
11, 6090, Note_on_c, 10, 43, 0
11, 6120, Note_on_c, 10, 39, 98
11, 6150, Note_on_c, 10, 39, 0
11, 6360, Note_on_c, 10, 39, 69
11, 6420, Note_on_c, 10, 39, 0
11, 6480, Note_on_c, 10, 38, 73
11, 6540, Note_on_c, 10, 38, 0
11, 6720, Note_on_c, 10, 43, 62
11, 6780, Note_on_c, 10, 43, 0
11, 6840, Note_on_c, 10, 36, 53
11, 6900, Note_on_c, 10, 36, 0
11, 7080, Note_on_c, 10, 41, 72
11, 7140, Note_on_c, 10, 41, 0
11, 7200, Note_on_c, 10, 46, 64
11, 7260, Note_on_c, 10, 46, 0
11, 7440, Note_on_c, 10, 38, 60
11, 7500, Note_on_c, 10, 38, 0
11, 7560, Note_on_c, 10, 39, 70
11, 7680, Note_on_c, 10, 39, 0
11, 7800, Note_on_c, 10, 40, 78
11, 7860, Note_on_c, 10, 40, 0
11, 7920, Note_on_c, 10, 41, 62
11, 8040, Note_on_c, 10, 41, 0
11, 8100, Note_on_c, 10, 50, 72
11, 8160, Note_on_c, 10, 50, 0
11, 8160, Note_on_c, 10, 48, 90
11, 8220, Note_on_c, 10, 48, 0
11, 8220, Note_on_c, 10, 46, 93
11, 8280, Note_on_c, 10, 46, 0
11, 8280, Note_on_c, 10, 45, 112
11, 8340, Note_on_c, 10, 45, 0
11, 8340, Note_on_c, 10, 41, 89
11, 8400, Note_on_c, 10, 41, 0
11, 8400, Note_on_c, 10, 46, 84
11, 8430, Note_on_c, 10, 46, 0
11, 8820, Note_on_c, 10, 51, 66
11, 8880, Note_on_c, 10, 51, 0
11, 8880, Note_on_c, 10, 50, 81
11, 8940, Note_on_c, 10, 50, 0
11, 8940, Note_on_c, 10, 48, 94
11, 9000, Note_on_c, 10, 48, 0
11, 9000, Note_on_c, 10, 47, 104
11, 9060, Note_on_c, 10, 47, 0
11, 9060, Note_on_c, 10, 43, 84
11, 9120, Note_on_c, 10, 43, 0
11, 9120, Note_on_c, 10, 48, 89
11, 9150, Note_on_c, 10, 48, 0
11, 9180, Note_on_c, 10, 51, 65
11, 9210, Note_on_c, 10, 51, 0
11, 9240, Note_on_c, 10, 50, 54
11, 9270, Note_on_c, 10, 50, 0
11, 9300, Note_on_c, 10, 48, 74
11, 9330, Note_on_c, 10, 48, 0
11, 9360, Note_on_c, 10, 47, 62
11, 9390, Note_on_c, 10, 47, 0
11, 9420, Note_on_c, 10, 43, 76
11, 9450, Note_on_c, 10, 43, 0
11, 9480, Note_on_c, 10, 48, 65
11, 9510, Note_on_c, 10, 48, 0
11, 9540, Note_on_c, 10, 46, 72
11, 9570, Note_on_c, 10, 46, 0
11, 9600, Note_on_c, 10, 45, 81
11, 9630, Note_on_c, 10, 45, 0
11, 9660, Note_on_c, 10, 41, 74
11, 9690, Note_on_c, 10, 41, 0
11, 9720, Note_on_c, 10, 46, 73
11, 9750, Note_on_c, 10, 46, 0
11, 9780, Note_on_c, 10, 45, 82
11, 9810, Note_on_c, 10, 45, 0
11, 9840, Note_on_c, 10, 43, 76
11, 9870, Note_on_c, 10, 43, 0
11, 9900, Note_on_c, 10, 41, 73
11, 9930, Note_on_c, 10, 41, 0
11, 9960, Note_on_c, 10, 39, 62
11, 9990, Note_on_c, 10, 39, 0
11, 10020, Note_on_c, 10, 38, 76
11, 10050, Note_on_c, 10, 38, 0
11, 10080, Note_on_c, 10, 39, 68
11, 10140, Note_on_c, 10, 39, 0
11, 10200, Note_on_c, 10, 39, 62
11, 10260, Note_on_c, 10, 39, 0
11, 10320, Note_on_c, 10, 39, 66
11, 10380, Note_on_c, 10, 39, 0
11, 10440, Note_on_c, 10, 41, 68
11, 10500, Note_on_c, 10, 41, 0
11, 10680, Note_on_c, 10, 41, 72
11, 10740, Note_on_c, 10, 41, 0
11, 10794, Control_c, 10, 7, 63
11, 10800, Control_c, 10, 7, 63
11, 10800, Note_on_c, 10, 34, 94
11, 10810, Control_c, 10, 7, 64
11, 10820, Control_c, 10, 7, 65
11, 10830, Control_c, 10, 7, 66
11, 10840, Control_c, 10, 7, 67
11, 10850, Control_c, 10, 7, 68
11, 10860, Control_c, 10, 7, 69
11, 10870, Control_c, 10, 7, 70
11, 10880, Control_c, 10, 7, 71
11, 10890, Control_c, 10, 7, 72
11, 10900, Control_c, 10, 7, 73
11, 10910, Control_c, 10, 7, 74
11, 10920, Control_c, 10, 7, 75
11, 10930, Control_c, 10, 7, 76
11, 10940, Control_c, 10, 7, 77
11, 10950, Control_c, 10, 7, 78
11, 10960, Control_c, 10, 7, 79
11, 10970, Control_c, 10, 7, 80
11, 10980, Control_c, 10, 7, 81
11, 10990, Control_c, 10, 7, 82
11, 11000, Control_c, 10, 7, 83
11, 11010, Control_c, 10, 7, 84
11, 11020, Control_c, 10, 7, 85
11, 11030, Control_c, 10, 7, 86
11, 11040, Note_on_c, 10, 34, 0
11, 11040, Note_on_c, 10, 30, 85
11, 11040, Control_c, 10, 7, 87
11, 11050, Control_c, 10, 7, 88
11, 11060, Control_c, 10, 7, 89
11, 11070, Control_c, 10, 7, 90
11, 11080, Control_c, 10, 7, 91
11, 11090, Control_c, 10, 7, 92
11, 11100, Control_c, 10, 7, 93
11, 11110, Control_c, 10, 7, 94
11, 11120, Control_c, 10, 7, 95
11, 11130, Control_c, 10, 7, 96
11, 11140, Control_c, 10, 7, 97
11, 11150, Control_c, 10, 7, 98
11, 11160, Note_on_c, 10, 30, 0
11, 11160, Note_on_c, 10, 32, 95
11, 11160, Control_c, 10, 7, 99
11, 11280, Note_on_c, 10, 32, 0
11, 11280, Note_on_c, 10, 32, 67
11, 11295, Note_on_c, 10, 32, 0
11, 11295, Note_on_c, 10, 32, 82
11, 11310, Note_on_c, 10, 32, 0
11, 11310, Note_on_c, 10, 34, 85
11, 11325, Note_on_c, 10, 34, 0
11, 11325, Note_on_c, 10, 36, 69
11, 11340, Note_on_c, 10, 36, 0
11, 11340, Note_on_c, 10, 37, 80
11, 11355, Note_on_c, 10, 37, 0
11, 11355, Note_on_c, 10, 39, 85
11, 11370, Note_on_c, 10, 39, 0
11, 11370, Note_on_c, 10, 41, 54
11, 11385, Note_on_c, 10, 41, 0
11, 11385, Note_on_c, 10, 43, 94
11, 11400, Note_on_c, 10, 43, 0
11, 11400, Note_on_c, 10, 44, 74
11, 11430, Note_on_c, 10, 44, 0
11, 11460, Note_on_c, 10, 32, 76
11, 11490, Note_on_c, 10, 32, 0
11, 11520, Note_on_c, 10, 34, 95
11, 11640, Note_on_c, 10, 34, 0
11, 11640, Note_on_c, 10, 34, 71
11, 11655, Note_on_c, 10, 34, 0
11, 11655, Note_on_c, 10, 34, 84
11, 11670, Note_on_c, 10, 34, 0
11, 11670, Note_on_c, 10, 36, 82
11, 11685, Note_on_c, 10, 36, 0
11, 11685, Note_on_c, 10, 38, 81
11, 11700, Note_on_c, 10, 38, 0
11, 11700, Note_on_c, 10, 39, 85
11, 11715, Note_on_c, 10, 39, 0
11, 11715, Note_on_c, 10, 41, 84
11, 11730, Note_on_c, 10, 41, 0
11, 11730, Note_on_c, 10, 43, 71
11, 11745, Note_on_c, 10, 43, 0
11, 11745, Note_on_c, 10, 45, 94
11, 11760, Note_on_c, 10, 45, 0
11, 11760, Note_on_c, 10, 46, 70
11, 11790, Note_on_c, 10, 46, 0
11, 11820, Note_on_c, 10, 34, 84
11, 11850, Note_on_c, 10, 34, 0
11, 11880, Note_on_c, 10, 35, 104
11, 12000, Note_on_c, 10, 35, 0
11, 12000, Note_on_c, 10, 35, 110
11, 12120, Note_on_c, 10, 35, 0
11, 12120, Note_on_c, 10, 35, 105
11, 12240, Note_on_c, 10, 35, 0
11, 12240, Note_on_c, 10, 34, 101
11, 12300, Note_on_c, 10, 34, 0
11, 12360, Note_on_c, 10, 46, 61
11, 12480, Note_on_c, 10, 46, 0
11, 12480, Note_on_c, 10, 45, 57
11, 12600, Note_on_c, 10, 45, 0
11, 12600, Note_on_c, 10, 44, 58
11, 12720, Note_on_c, 10, 44, 0
11, 12720, Note_on_c, 10, 43, 52
11, 12840, Note_on_c, 10, 43, 0
11, 12840, Note_on_c, 10, 38, 66
11, 12960, Note_on_c, 10, 38, 0
11, 12960, Note_on_c, 10, 39, 54
11, 13020, Note_on_c, 10, 39, 0
11, 14760, Program_c, 10, 45
11, 14760, Note_on_c, 10, 39, 64
11, 14820, Note_on_c, 10, 39, 0
11, 14880, Note_on_c, 10, 36, 67
11, 14940, Note_on_c, 10, 36, 0
11, 15000, Note_on_c, 10, 32, 55
11, 15060, Note_on_c, 10, 32, 0
11, 15120, Note_on_c, 10, 34, 76
11, 15180, Note_on_c, 10, 34, 0
11, 15240, Note_on_c, 10, 46, 78
11, 15300, Note_on_c, 10, 46, 0
11, 15480, Note_on_c, 10, 36, 76
11, 15540, Note_on_c, 10, 36, 0
11, 15600, Note_on_c, 10, 38, 84
11, 15660, Note_on_c, 10, 38, 0
11, 15720, Note_on_c, 10, 39, 74
11, 15780, Note_on_c, 10, 39, 0
11, 15840, Note_on_c, 10, 44, 74
11, 15900, Note_on_c, 10, 44, 0
11, 15960, Note_on_c, 10, 46, 73
11, 16020, Note_on_c, 10, 46, 0
11, 16080, Note_on_c, 10, 34, 72
11, 16140, Note_on_c, 10, 34, 0
11, 16200, Note_on_c, 10, 39, 77
11, 16260, Note_on_c, 10, 39, 0
11, 16320, Note_on_c, 10, 39, 73
11, 16380, Note_on_c, 10, 39, 0
11, 16560, Note_on_c, 10, 36, 90
11, 16620, Note_on_c, 10, 36, 0
11, 16680, Note_on_c, 10, 38, 80
11, 16740, Note_on_c, 10, 38, 0
11, 16800, Note_on_c, 10, 39, 85
11, 16860, Note_on_c, 10, 39, 0
11, 16920, Note_on_c, 10, 44, 81
11, 16980, Note_on_c, 10, 44, 0
11, 17040, Note_on_c, 10, 44, 81
11, 17100, Note_on_c, 10, 44, 0
11, 17160, Note_on_c, 10, 45, 94
11, 17220, Note_on_c, 10, 45, 0
11, 17280, Note_on_c, 10, 46, 81
11, 17400, Note_on_c, 10, 46, 0
11, 17400, Program_c, 10, 48
11, 17460, Note_on_c, 10, 43, 64
11, 17520, Note_on_c, 10, 43, 0
11, 17520, Note_on_c, 10, 41, 93
11, 17580, Note_on_c, 10, 41, 0
11, 17580, Note_on_c, 10, 39, 89
11, 17640, Note_on_c, 10, 39, 0
11, 17640, Note_on_c, 10, 38, 99
11, 17700, Note_on_c, 10, 38, 0
11, 17700, Note_on_c, 10, 34, 86
11, 17760, Note_on_c, 10, 34, 0
11, 17760, Note_on_c, 10, 39, 84
11, 17790, Note_on_c, 10, 39, 0
11, 18180, Note_on_c, 10, 48, 70
11, 18240, Note_on_c, 10, 48, 0
11, 18240, Note_on_c, 10, 46, 84
11, 18300, Note_on_c, 10, 46, 0
11, 18300, Note_on_c, 10, 44, 93
11, 18360, Note_on_c, 10, 44, 0
11, 18360, Note_on_c, 10, 43, 104
11, 18420, Note_on_c, 10, 43, 0
11, 18420, Note_on_c, 10, 39, 85
11, 18480, Note_on_c, 10, 39, 0
11, 18480, Note_on_c, 10, 44, 85
11, 18510, Note_on_c, 10, 44, 0
11, 18540, Note_on_c, 10, 48, 53
11, 18570, Note_on_c, 10, 48, 0
11, 18600, Note_on_c, 10, 46, 48
11, 18630, Note_on_c, 10, 46, 0
11, 18660, Note_on_c, 10, 44, 60
11, 18690, Note_on_c, 10, 44, 0
11, 18720, Note_on_c, 10, 43, 45
11, 18750, Note_on_c, 10, 43, 0
11, 18780, Note_on_c, 10, 39, 60
11, 18810, Note_on_c, 10, 39, 0
11, 18840, Note_on_c, 10, 44, 51
11, 18870, Note_on_c, 10, 44, 0
11, 18900, Note_on_c, 10, 40, 73
11, 18930, Note_on_c, 10, 40, 0
11, 18960, Note_on_c, 10, 41, 43
11, 18990, Note_on_c, 10, 41, 0
11, 19020, Note_on_c, 10, 43, 64
11, 19050, Note_on_c, 10, 43, 0
11, 19080, Note_on_c, 10, 44, 62
11, 19140, Note_on_c, 10, 44, 0
11, 19200, Note_on_c, 10, 46, 59
11, 19260, Note_on_c, 10, 46, 0
11, 19320, Note_on_c, 10, 44, 68
11, 19380, Note_on_c, 10, 44, 0
11, 19440, Note_on_c, 10, 43, 68
11, 19500, Note_on_c, 10, 43, 0
11, 19680, Note_on_c, 10, 43, 71
11, 19740, Note_on_c, 10, 43, 0
11, 19800, Note_on_c, 10, 44, 64
11, 19860, Note_on_c, 10, 44, 0
11, 20040, Note_on_c, 10, 44, 57
11, 20100, Note_on_c, 10, 44, 0
11, 20160, Note_on_c, 10, 46, 57
11, 20220, Note_on_c, 10, 46, 0
11, 20400, Note_on_c, 10, 47, 60
11, 20520, Note_on_c, 10, 47, 0
11, 20520, Note_on_c, 10, 36, 81
11, 20550, Note_on_c, 10, 36, 0
11, 20580, Note_on_c, 10, 48, 62
11, 20640, Note_on_c, 10, 48, 0
11, 20640, Note_on_c, 10, 47, 76
11, 20700, Note_on_c, 10, 47, 0
11, 20700, Note_on_c, 10, 48, 70
11, 20760, Note_on_c, 10, 48, 0
11, 20760, Note_on_c, 10, 46, 84
11, 20820, Note_on_c, 10, 46, 0
11, 20820, Note_on_c, 10, 44, 85
11, 20880, Note_on_c, 10, 44, 0
11, 20880, Note_on_c, 10, 43, 72
11, 20940, Note_on_c, 10, 43, 0
11, 21120, Note_on_c, 10, 43, 72
11, 21180, Note_on_c, 10, 43, 0
11, 21240, Note_on_c, 10, 44, 78
11, 21300, Note_on_c, 10, 44, 0
11, 21480, Note_on_c, 10, 45, 86
11, 21540, Note_on_c, 10, 45, 0
11, 21600, Note_on_c, 10, 46, 62
11, 21660, Note_on_c, 10, 46, 0
11, 23040, Note_on_c, 10, 33, 77
11, 23100, Note_on_c, 10, 33, 0
11, 23160, Note_on_c, 10, 34, 71
11, 23220, Note_on_c, 10, 34, 0
11, 23280, Note_on_c, 10, 35, 81
11, 23340, Note_on_c, 10, 35, 0
11, 23400, Note_on_c, 10, 33, 55
11, 23460, Note_on_c, 10, 33, 0
11, 23520, Note_on_c, 10, 36, 45
11, 23580, Note_on_c, 10, 36, 0
11, 23640, Note_on_c, 10, 33, 57
11, 23700, Note_on_c, 10, 33, 0
11, 23760, Note_on_c, 10, 34, 33
11, 23820, Note_on_c, 10, 34, 0
11, 24120, Note_on_c, 10, 34, 44
11, 24180, Note_on_c, 10, 34, 0
11, 24240, Note_on_c, 10, 34, 43
11, 24300, Note_on_c, 10, 34, 0
11, 24360, Note_on_c, 10, 34, 57
11, 24420, Note_on_c, 10, 34, 0
11, 24480, Note_on_c, 10, 27, 94
11, 24495, Note_on_c, 10, 27, 0
11, 24510, Note_on_c, 10, 39, 84
11, 24525, Note_on_c, 10, 39, 0
11, 24540, Note_on_c, 10, 39, 78
11, 24555, Note_on_c, 10, 39, 0
11, 24570, Note_on_c, 10, 39, 82
11, 24585, Note_on_c, 10, 39, 0
11, 24600, Note_on_c, 10, 39, 84
11, 24615, Note_on_c, 10, 39, 0
11, 24630, Note_on_c, 10, 39, 85
11, 24645, Note_on_c, 10, 39, 0
11, 24660, Note_on_c, 10, 39, 85
11, 24675, Note_on_c, 10, 39, 0
11, 24690, Note_on_c, 10, 39, 86
11, 24705, Note_on_c, 10, 39, 0
11, 24720, Note_on_c, 10, 35, 99
11, 24735, Note_on_c, 10, 35, 0
11, 24750, Note_on_c, 10, 35, 99
11, 24765, Note_on_c, 10, 35, 0
11, 24780, Note_on_c, 10, 32, 93
11, 24795, Note_on_c, 10, 32, 0
11, 24810, Note_on_c, 10, 32, 95
11, 24825, Note_on_c, 10, 32, 0
11, 24840, Note_on_c, 10, 37, 95
11, 24960, Note_on_c, 10, 37, 0
11, 24960, Note_on_c, 10, 37, 74
11, 24975, Note_on_c, 10, 37, 0
11, 24975, Note_on_c, 10, 37, 86
11, 24990, Note_on_c, 10, 37, 0
11, 24990, Note_on_c, 10, 39, 93
11, 25005, Note_on_c, 10, 39, 0
11, 25005, Note_on_c, 10, 41, 81
11, 25020, Note_on_c, 10, 41, 0
11, 25020, Note_on_c, 10, 42, 86
11, 25035, Note_on_c, 10, 42, 0
11, 25035, Note_on_c, 10, 44, 89
11, 25050, Note_on_c, 10, 44, 0
11, 25050, Note_on_c, 10, 46, 89
11, 25065, Note_on_c, 10, 46, 0
11, 25065, Note_on_c, 10, 48, 85
11, 25080, Note_on_c, 10, 48, 0
11, 25080, Note_on_c, 10, 49, 74
11, 25095, Note_on_c, 10, 49, 0
11, 25110, Note_on_c, 10, 37, 89
11, 25125, Note_on_c, 10, 37, 0
11, 25140, Note_on_c, 10, 37, 93
11, 25155, Note_on_c, 10, 37, 0
11, 25170, Note_on_c, 10, 37, 94
11, 25185, Note_on_c, 10, 37, 0
11, 25200, Note_on_c, 10, 39, 99
11, 25320, Note_on_c, 10, 39, 0
11, 25320, Note_on_c, 10, 39, 74
11, 25335, Note_on_c, 10, 39, 0
11, 25335, Note_on_c, 10, 39, 90
11, 25350, Note_on_c, 10, 39, 0
11, 25350, Note_on_c, 10, 41, 89
11, 25365, Note_on_c, 10, 41, 0
11, 25365, Note_on_c, 10, 43, 76
11, 25380, Note_on_c, 10, 43, 0
11, 25380, Note_on_c, 10, 44, 89
11, 25395, Note_on_c, 10, 44, 0
11, 25395, Note_on_c, 10, 46, 84
11, 25410, Note_on_c, 10, 46, 0
11, 25410, Note_on_c, 10, 48, 80
11, 25425, Note_on_c, 10, 48, 0
11, 25425, Note_on_c, 10, 50, 81
11, 25440, Note_on_c, 10, 50, 0
11, 25440, Note_on_c, 10, 51, 77
11, 25455, Note_on_c, 10, 51, 0
11, 25470, Note_on_c, 10, 39, 90
11, 25485, Note_on_c, 10, 39, 0
11, 25500, Note_on_c, 10, 39, 89
11, 25515, Note_on_c, 10, 39, 0
11, 25530, Note_on_c, 10, 39, 90
11, 25545, Note_on_c, 10, 39, 0
11, 25560, Note_on_c, 10, 36, 104
11, 25590, Note_on_c, 10, 36, 0
11, 25590, Note_on_c, 10, 36, 84
11, 25620, Note_on_c, 10, 36, 0
11, 25620, Note_on_c, 10, 36, 90
11, 25650, Note_on_c, 10, 36, 0
11, 25650, Note_on_c, 10, 36, 94
11, 25680, Note_on_c, 10, 36, 0
11, 25680, Note_on_c, 10, 35, 110
11, 25710, Note_on_c, 10, 35, 0
11, 25710, Note_on_c, 10, 35, 95
11, 25740, Note_on_c, 10, 35, 0
11, 25740, Note_on_c, 10, 35, 94
11, 25770, Note_on_c, 10, 35, 0
11, 25770, Note_on_c, 10, 35, 93
11, 25800, Note_on_c, 10, 35, 0
11, 25800, Note_on_c, 10, 35, 93
11, 25830, Note_on_c, 10, 35, 0
11, 25830, Note_on_c, 10, 35, 93
11, 25860, Note_on_c, 10, 35, 0
11, 25860, Note_on_c, 10, 35, 89
11, 25890, Note_on_c, 10, 35, 0
11, 25890, Note_on_c, 10, 35, 94
11, 25920, Note_on_c, 10, 35, 0
11, 25920, Note_on_c, 10, 34, 99
11, 25950, Note_on_c, 10, 34, 0
11, 25950, Note_on_c, 10, 34, 86
11, 25980, Note_on_c, 10, 34, 0
11, 25980, Note_on_c, 10, 34, 81
11, 26010, Note_on_c, 10, 34, 0
11, 26010, Note_on_c, 10, 34, 84
11, 26040, Note_on_c, 10, 34, 0
11, 26040, Note_on_c, 10, 33, 105
11, 26070, Note_on_c, 10, 33, 0
11, 26070, Note_on_c, 10, 33, 93
11, 26100, Note_on_c, 10, 33, 0
11, 26100, Note_on_c, 10, 33, 86
11, 26130, Note_on_c, 10, 33, 0
11, 26130, Note_on_c, 10, 33, 90
11, 26160, Note_on_c, 10, 33, 0
11, 26160, Note_on_c, 10, 36, 105
11, 26190, Note_on_c, 10, 36, 0
11, 26190, Note_on_c, 10, 36, 94
11, 26220, Note_on_c, 10, 36, 0
11, 26220, Note_on_c, 10, 36, 94
11, 26250, Note_on_c, 10, 36, 0
11, 26250, Note_on_c, 10, 36, 94
11, 26280, Note_on_c, 10, 36, 0
11, 26280, Note_on_c, 10, 34, 95
11, 26520, Note_on_c, 10, 34, 0
11, 27720, Note_on_c, 10, 39, 43
11, 27960, Note_on_c, 10, 39, 0
11, 27960, Note_on_c, 10, 32, 43
11, 28080, Note_on_c, 10, 32, 0
11, 28080, Note_on_c, 10, 34, 53
11, 28200, Note_on_c, 10, 34, 0
11, 28800, Note_on_c, 10, 34, 54
11, 28890, Note_on_c, 10, 34, 0
11, 28920, Note_on_c, 10, 38, 42
11, 29010, Note_on_c, 10, 38, 0
11, 29040, Note_on_c, 10, 34, 52
11, 29130, Note_on_c, 10, 34, 0
11, 29160, Note_on_c, 10, 39, 43
11, 29280, Note_on_c, 10, 39, 0
11, 29520, Note_on_c, 10, 34, 44
11, 29610, Note_on_c, 10, 34, 0
11, 29640, Note_on_c, 10, 34, 38
11, 29730, Note_on_c, 10, 34, 0
11, 29760, Note_on_c, 10, 34, 50
11, 29850, Note_on_c, 10, 34, 0
11, 29880, Note_on_c, 10, 39, 43
11, 30000, Note_on_c, 10, 39, 0
11, 31320, Note_on_c, 10, 34, 58
11, 31410, Note_on_c, 10, 34, 0
11, 31440, Note_on_c, 10, 34, 62
11, 31530, Note_on_c, 10, 34, 0
11, 31560, Note_on_c, 10, 34, 68
11, 31650, Note_on_c, 10, 34, 0
11, 31680, Note_on_c, 10, 39, 67
11, 31800, Note_on_c, 10, 39, 0
11, 31920, Note_on_c, 10, 34, 70
11, 32040, Note_on_c, 10, 34, 0
11, 32040, Note_on_c, 10, 39, 53
11, 32160, Note_on_c, 10, 39, 0
11, 32280, Note_on_c, 10, 34, 71
11, 32400, Note_on_c, 10, 34, 0
11, 32400, Note_on_c, 10, 39, 65
11, 32520, Note_on_c, 10, 39, 0
11, 32520, Program_c, 10, 45
11, 32640, Note_on_c, 10, 27, 58
11, 32760, Note_on_c, 10, 27, 0
11, 32760, Note_on_c, 10, 27, 58
11, 32880, Note_on_c, 10, 27, 0
11, 32880, End_track
12, 0, Start_track
12, 0, MIDI_port, 0
12, 0, Title_t, "   Ludwig van Beethoven"
12, 0, End_track
13, 0, Start_track
13, 0, MIDI_port, 0
13, 0, Title_t, "Piano Concerto No.2 "
13, 0, End_track
14, 0, Start_track
14, 0, MIDI_port, 0
14, 0, Title_t, "  in B-flat Major, Op. 19"
14, 0, End_track
15, 0, Start_track
15, 0, MIDI_port, 0
15, 0, Title_t, "Mov't. 2 - Adagio"
15, 0, End_track
16, 0, Start_track
16, 0, MIDI_port, 0
16, 0, Title_t, "Sequenced by Bill Nemitz"
16, 0, End_track
17, 0, Start_track
17, 0, MIDI_port, 0
17, 0, Title_t, "Email at billnem@ix.netcom.com"
17, 0, End_track
0, 0, End_of_file