0, 0, Header, 1, 15, 120
1, 0, Start_track
1, 0, Title_t, "untitled"
1, 0, Text_t, "\012"
1, 0, Time_signature, 2, 2, 24, 8
1, 0, Key_signature, 1, "major"
1, 0, Tempo, 1333333
1, 0, Marker_t, "Andante con moto"
1, 4320, Tempo, 1428571
1, 8395, Tempo, 1463415
1, 8640, Tempo, 1538462
1, 9000, Tempo, 1428571
1, 9360, Tempo, 1578947
1, 11275, Tempo, 1621622
1, 11400, Tempo, 1666667
1, 11875, Tempo, 1764706
1, 12360, Tempo, 1818182
1, 12480, Tempo, 1875000
1, 12595, Tempo, 1935484
1, 12715, Tempo, 2000000
1, 12960, Time_signature, 4, 2, 24, 8
1, 12960, Tempo, 666667
1, 18240, Tempo, 594059
1, 18330, Tempo, 600000
1, 18415, Tempo, 606061
1, 18500, Tempo, 612245
1, 18590, Tempo, 618557
1, 18675, Tempo, 625000
1, 18760, Tempo, 631579
1, 18845, Tempo, 638298
1, 18935, Tempo, 645161
1, 19020, Tempo, 652174
1, 19105, Tempo, 659341
1, 19190, Tempo, 666667
1, 19200, Time_signature, 2, 2, 24, 8
1, 19200, Tempo, 1333333
1, 19385, Tempo, 2857143
1, 19440, Tempo, 1428571
1, 19625, Tempo, 3157895
1, 19675, Tempo, 1333333
1, 21360, Tempo, 2222222
1, 21485, Tempo, 2608696
1, 21600, Tempo, 2857143
1, 21720, Tempo, 3750000
1, 21795, Tempo, 7500000
1, 21795, End_track
2, 0, Start_track
2, 0, MIDI_port, 0
2, 0, Title_t, "Piano"
2, 0, Control_c, 1, 0, 0
2, 0, Control_c, 1, 32, 0
2, 0, Program_c, 1, 0
2, 0, Control_c, 1, 7, 100
2, 0, Control_c, 1, 10, 64
2, 0, Control_c, 1, 93, 0
2, 0, Control_c, 1, 91, 66
2, 5, Control_c, 1, 67, 99
2, 1115, Control_c, 1, 7, 78
2, 1200, Note_on_c, 1, 66, 76
2, 1200, Note_on_c, 1, 71, 76
2, 1200, Note_on_c, 1, 62, 68
2, 1200, Note_on_c, 1, 59, 84
2, 1320, Note_on_c, 1, 59, 0
2, 1320, Note_on_c, 1, 66, 0
2, 1320, Note_on_c, 1, 71, 0
2, 1320, Note_on_c, 1, 62, 0
2, 1320, Note_on_c, 1, 66, 80
2, 1320, Note_on_c, 1, 75, 82
2, 1320, Note_on_c, 1, 57, 90
2, 1320, Note_on_c, 1, 59, 73
2, 1320, Note_on_c, 1, 71, 86
2, 1440, Note_on_c, 1, 71, 0
2, 1440, Note_on_c, 1, 57, 0
2, 1440, Note_on_c, 1, 66, 0
2, 1440, Note_on_c, 1, 75, 0
2, 1440, Note_on_c, 1, 59, 0
2, 1440, Note_on_c, 1, 64, 77
2, 1440, Note_on_c, 1, 55, 81
2, 1440, Note_on_c, 1, 76, 60
2, 1440, Note_on_c, 1, 59, 72
2, 1440, Note_on_c, 1, 71, 85
2, 1620, Note_on_c, 1, 71, 0
2, 1620, Note_on_c, 1, 76, 0
2, 1620, Note_on_c, 1, 64, 0
2, 1620, Note_on_c, 1, 55, 0
2, 1620, Note_on_c, 1, 59, 0
2, 1620, Note_on_c, 1, 64, 80
2, 1620, Note_on_c, 1, 56, 82
2, 1620, Note_on_c, 1, 59, 77
2, 1620, Note_on_c, 1, 71, 84
2, 1620, Note_on_c, 1, 74, 76
2, 1680, Note_on_c, 1, 74, 0
2, 1680, Note_on_c, 1, 59, 0
2, 1680, Note_on_c, 1, 64, 0
2, 1680, Note_on_c, 1, 56, 0
2, 1680, Note_on_c, 1, 71, 0
2, 1680, Note_on_c, 1, 60, 76
2, 1680, Note_on_c, 1, 64, 74
2, 1680, Note_on_c, 1, 69, 89
2, 1680, Note_on_c, 1, 57, 90
2, 1680, Note_on_c, 1, 72, 98
2, 1800, Note_on_c, 1, 72, 0
2, 1800, Note_on_c, 1, 69, 0
2, 1800, Note_on_c, 1, 60, 0
2, 1800, Note_on_c, 1, 64, 0
2, 1800, Note_on_c, 1, 57, 0
2, 1800, Note_on_c, 1, 66, 67
2, 1800, Note_on_c, 1, 69, 80
2, 1800, Note_on_c, 1, 57, 81
2, 1800, Note_on_c, 1, 50, 89
2, 1800, Note_on_c, 1, 74, 82
2, 1890, Note_on_c, 1, 74, 0
2, 1890, Note_on_c, 1, 72, 76
2, 1920, Note_on_c, 1, 72, 0
2, 1920, Note_on_c, 1, 50, 0
2, 1920, Note_on_c, 1, 66, 0
2, 1920, Note_on_c, 1, 69, 0
2, 1920, Note_on_c, 1, 57, 0
2, 1920, Note_on_c, 1, 62, 72
2, 1920, Note_on_c, 1, 71, 82
2, 1920, Note_on_c, 1, 55, 71
2, 1920, Note_on_c, 1, 67, 73
2, 1920, Note_on_c, 1, 59, 63
2, 2160, Note_on_c, 1, 59, 0
2, 2160, Note_on_c, 1, 55, 0
2, 2160, Note_on_c, 1, 62, 0
2, 2160, Note_on_c, 1, 71, 0
2, 2160, Note_on_c, 1, 67, 0
2, 2160, Note_on_c, 1, 54, 69
2, 2160, Note_on_c, 1, 63, 69
2, 2160, Note_on_c, 1, 57, 73
2, 2160, Note_on_c, 1, 69, 89
2, 2280, Note_on_c, 1, 69, 0
2, 2280, Note_on_c, 1, 54, 0
2, 2280, Note_on_c, 1, 63, 0
2, 2280, Note_on_c, 1, 57, 0
2, 2280, Note_on_c, 1, 54, 64
2, 2280, Note_on_c, 1, 66, 80
2, 2280, Note_on_c, 1, 47, 82
2, 2280, Note_on_c, 1, 63, 73
2, 2280, Note_on_c, 1, 71, 84
2, 2370, Note_on_c, 1, 71, 0
2, 2370, Note_on_c, 1, 69, 89
2, 2400, Note_on_c, 1, 69, 0
2, 2400, Note_on_c, 1, 63, 0
2, 2400, Note_on_c, 1, 54, 0
2, 2400, Note_on_c, 1, 66, 0
2, 2400, Note_on_c, 1, 47, 0
2, 2400, Note_on_c, 1, 55, 73
2, 2400, Note_on_c, 1, 59, 72
2, 2400, Note_on_c, 1, 52, 89
2, 2400, Note_on_c, 1, 64, 84
2, 2400, Note_on_c, 1, 69, 86
2, 2430, Note_on_c, 1, 69, 0
2, 2430, Note_on_c, 1, 67, 74
2, 2460, Note_on_c, 1, 67, 0
2, 2460, Note_on_c, 1, 66, 81
2, 2490, Note_on_c, 1, 66, 0
2, 2490, Note_on_c, 1, 67, 78
2, 2520, Note_on_c, 1, 67, 0
2, 2520, Note_on_c, 1, 64, 0
2, 2520, Note_on_c, 1, 55, 0
2, 2520, Note_on_c, 1, 59, 0
2, 2520, Note_on_c, 1, 52, 0
2, 2520, Note_on_c, 1, 45, 76
2, 2520, Note_on_c, 1, 48, 81
2, 2520, Note_on_c, 1, 60, 84
2, 2520, Note_on_c, 1, 69, 86
2, 2610, Note_on_c, 1, 69, 0
2, 2610, Note_on_c, 1, 66, 82
2, 2640, Note_on_c, 1, 66, 0
2, 2640, Note_on_c, 1, 60, 0
2, 2640, Note_on_c, 1, 48, 0
2, 2640, Note_on_c, 1, 45, 0
2, 2640, Note_on_c, 1, 59, 73
2, 2640, Note_on_c, 1, 47, 82
2, 2640, Note_on_c, 1, 55, 69
2, 2640, Note_on_c, 1, 64, 94
2, 2700, Note_on_c, 1, 64, 0
2, 2700, Note_on_c, 1, 66, 77
2, 2715, Note_on_c, 1, 66, 0
2, 2715, Note_on_c, 1, 64, 89
2, 2730, Note_on_c, 1, 64, 0
2, 2730, Note_on_c, 1, 63, 86
2, 2745, Note_on_c, 1, 63, 0
2, 2745, Note_on_c, 1, 64, 95
2, 2759, Note_on_c, 1, 35, 100
2, 2760, Note_on_c, 1, 64, 0
2, 2760, Note_on_c, 1, 55, 0
2, 2760, Note_on_c, 1, 59, 0
2, 2760, Note_on_c, 1, 47, 0
2, 2760, Note_on_c, 1, 47, 86
2, 2760, Note_on_c, 1, 63, 80
2, 2760, Note_on_c, 1, 57, 86
2, 2760, Note_on_c, 1, 67, 76
2, 2850, Note_on_c, 1, 67, 0
2, 2850, Note_on_c, 1, 66, 86
2, 2879, Note_on_c, 1, 35, 0
2, 2880, Note_on_c, 1, 57, 0
2, 2880, Note_on_c, 1, 47, 0
2, 2880, Note_on_c, 1, 63, 0
2, 2880, Note_on_c, 1, 66, 0
2, 2880, Note_on_c, 1, 64, 89
2, 2880, Note_on_c, 1, 55, 73
2, 2880, Note_on_c, 1, 40, 77
2, 2880, Note_on_c, 1, 52, 62
2, 2880, Note_on_c, 1, 47, 73
2, 2940, Note_on_c, 1, 47, 0
2, 2940, Note_on_c, 1, 40, 0
2, 2940, Note_on_c, 1, 64, 0
2, 2940, Note_on_c, 1, 55, 0
2, 2940, Note_on_c, 1, 52, 0
2, 4275, Control_c, 1, 7, 127
2, 4320, Note_on_c, 1, 57, 41
2, 4320, Note_on_c, 1, 50, 35
2, 4320, Note_on_c, 1, 69, 43
2, 4320, Note_on_c, 1, 66, 40
2, 4320, Note_on_c, 1, 62, 29
2, 4440, Note_on_c, 1, 62, 0
2, 4440, Note_on_c, 1, 69, 0
2, 4440, Note_on_c, 1, 57, 0
2, 4440, Note_on_c, 1, 50, 0
2, 4440, Note_on_c, 1, 66, 0
2, 4440, Note_on_c, 1, 61, 39
2, 4440, Note_on_c, 1, 52, 44
2, 4440, Note_on_c, 1, 73, 32
2, 4440, Note_on_c, 1, 57, 40
2, 4440, Note_on_c, 1, 67, 31
2, 4560, Note_on_c, 1, 67, 0
2, 4560, Note_on_c, 1, 73, 0
2, 4560, Note_on_c, 1, 61, 0
2, 4560, Note_on_c, 1, 52, 0
2, 4560, Note_on_c, 1, 57, 0
2, 4560, Note_on_c, 1, 54, 44
2, 4560, Note_on_c, 1, 57, 45
2, 4560, Note_on_c, 1, 74, 44
2, 4680, Note_on_c, 1, 57, 0
2, 4680, Note_on_c, 1, 54, 0
2, 4680, Note_on_c, 1, 42, 44
2, 4740, Note_on_c, 1, 74, 0
2, 4740, Note_on_c, 1, 73, 38
2, 4800, Note_on_c, 1, 73, 0
2, 4800, Note_on_c, 1, 42, 0
2, 4800, Note_on_c, 1, 43, 44
2, 4800, Note_on_c, 1, 62, 41
2, 4800, Note_on_c, 1, 71, 47
2, 4800, Note_on_c, 1, 67, 46
2, 4920, Note_on_c, 1, 67, 0
2, 4920, Note_on_c, 1, 43, 0
2, 4920, Note_on_c, 1, 62, 0
2, 4920, Note_on_c, 1, 71, 0
2, 4920, Note_on_c, 1, 45, 50
2, 4920, Note_on_c, 1, 66, 43
2, 4920, Note_on_c, 1, 69, 44
2, 5010, Note_on_c, 1, 69, 0
2, 5010, Note_on_c, 1, 66, 0
2, 5010, Note_on_c, 1, 64, 46
2, 5010, Note_on_c, 1, 67, 39
2, 5040, Note_on_c, 1, 67, 0
2, 5040, Note_on_c, 1, 64, 0
2, 5040, Note_on_c, 1, 45, 0
2, 5040, Note_on_c, 1, 67, 37
2, 5040, Note_on_c, 1, 64, 41
2, 5040, Note_on_c, 1, 47, 40
2, 5040, Note_on_c, 1, 59, 47
2, 5160, Note_on_c, 1, 64, 0
2, 5160, Note_on_c, 1, 67, 0
2, 5160, Note_on_c, 1, 66, 40
2, 5160, Note_on_c, 1, 62, 43
2, 5220, Note_on_c, 1, 62, 0
2, 5220, Note_on_c, 1, 59, 0
2, 5220, Note_on_c, 1, 47, 0
2, 5220, Note_on_c, 1, 66, 0
2, 5280, Note_on_c, 1, 54, 40
2, 5280, Note_on_c, 1, 66, 43
2, 5280, Note_on_c, 1, 50, 42
2, 5280, Note_on_c, 1, 69, 43
2, 5370, Note_on_c, 1, 69, 0
2, 5370, Note_on_c, 1, 54, 0
2, 5370, Note_on_c, 1, 66, 0
2, 5370, Note_on_c, 1, 50, 0
2, 5400, Note_on_c, 1, 69, 44
2, 5400, Note_on_c, 1, 64, 40
2, 5400, Note_on_c, 1, 48, 43
2, 5400, Note_on_c, 1, 57, 43
2, 5490, Note_on_c, 1, 57, 0
2, 5490, Note_on_c, 1, 69, 0
2, 5490, Note_on_c, 1, 64, 0
2, 5490, Note_on_c, 1, 48, 0
2, 5520, Note_on_c, 1, 54, 45
2, 5520, Note_on_c, 1, 47, 43
2, 5520, Note_on_c, 1, 59, 40
2, 5520, Note_on_c, 1, 66, 45
2, 5520, Note_on_c, 1, 63, 41
2, 5520, Note_on_c, 1, 69, 46
2, 5700, Note_on_c, 1, 69, 0
2, 5700, Note_on_c, 1, 71, 53
2, 5730, Note_on_c, 1, 71, 0
2, 5730, Note_on_c, 1, 72, 44
2, 5760, Note_on_c, 1, 72, 0
2, 5760, Note_on_c, 1, 47, 0
2, 5760, Note_on_c, 1, 59, 0
2, 5760, Note_on_c, 1, 54, 0
2, 5760, Note_on_c, 1, 63, 0
2, 5760, Note_on_c, 1, 66, 0
2, 5760, Note_on_c, 1, 66, 43
2, 5760, Note_on_c, 1, 51, 40
2, 5760, Note_on_c, 1, 72, 42
2, 5820, Note_on_c, 1, 54, 38
2, 5880, Note_on_c, 1, 72, 0
2, 5880, Note_on_c, 1, 66, 0
2, 5880, Note_on_c, 1, 51, 0
2, 5880, Note_on_c, 1, 47, 42
2, 5880, Note_on_c, 1, 71, 43
2, 5910, Note_on_c, 1, 71, 0
2, 5910, Note_on_c, 1, 69, 43
2, 5940, Note_on_c, 1, 69, 0
2, 5940, Note_on_c, 1, 54, 0
2, 5940, Note_on_c, 1, 59, 44
2, 5940, Note_on_c, 1, 67, 40
2, 5970, Note_on_c, 1, 67, 0
2, 5970, Note_on_c, 1, 66, 29
2, 6000, Note_on_c, 1, 66, 0
2, 6000, Note_on_c, 1, 59, 0
2, 6000, Note_on_c, 1, 47, 0
2, 6000, Note_on_c, 1, 64, 45
2, 6000, Note_on_c, 1, 52, 44
2, 6000, Note_on_c, 1, 69, 41
2, 6000, Note_on_c, 1, 59, 40
2, 6060, Note_on_c, 1, 59, 0
2, 6060, Note_on_c, 1, 69, 0
2, 6060, Note_on_c, 1, 52, 0
2, 6060, Note_on_c, 1, 67, 38
2, 6120, Note_on_c, 1, 67, 0
2, 6120, Note_on_c, 1, 64, 0
2, 6440, Control_c, 1, 7, 100
2, 6540, Note_on_c, 1, 69, 45
2, 6540, Note_on_c, 1, 57, 39
2, 6585, Note_on_c, 1, 57, 0
2, 6585, Note_on_c, 1, 69, 0
2, 6600, Note_on_c, 1, 69, 42
2, 6600, Note_on_c, 1, 57, 57
2, 6600, Note_on_c, 1, 60, 49
2, 6600, Note_on_c, 1, 72, 29
2, 6645, Note_on_c, 1, 72, 0
2, 6645, Note_on_c, 1, 69, 0
2, 6645, Note_on_c, 1, 57, 0
2, 6645, Note_on_c, 1, 60, 0
2, 6660, Note_on_c, 1, 69, 72
2, 6660, Note_on_c, 1, 57, 57
2, 6660, Note_on_c, 1, 64, 65
2, 6660, Note_on_c, 1, 60, 59
2, 6660, Note_on_c, 1, 76, 76
2, 6660, Note_on_c, 1, 72, 29
2, 6705, Note_on_c, 1, 72, 0
2, 6705, Note_on_c, 1, 57, 0
2, 6705, Note_on_c, 1, 64, 0
2, 6705, Note_on_c, 1, 69, 0
2, 6705, Note_on_c, 1, 76, 0
2, 6705, Note_on_c, 1, 60, 0
2, 6720, Note_on_c, 1, 79, 72
2, 6720, Note_on_c, 1, 76, 77
2, 6720, Note_on_c, 1, 64, 84
2, 6720, Note_on_c, 1, 67, 58
2, 6720, Note_on_c, 1, 69, 49
2, 6720, Note_on_c, 1, 60, 45
2, 6720, Note_on_c, 1, 57, 63
2, 6720, Note_on_c, 1, 72, 29
2, 6840, Note_on_c, 1, 67, 0
2, 6840, Note_on_c, 1, 64, 0
2, 6840, Note_on_c, 1, 79, 0
2, 6840, Note_on_c, 1, 76, 0
2, 6840, Note_on_c, 1, 77, 50
2, 6840, Note_on_c, 1, 65, 53
2, 6900, Note_on_c, 1, 65, 0
2, 6900, Note_on_c, 1, 60, 0
2, 6900, Note_on_c, 1, 57, 0
2, 6900, Note_on_c, 1, 72, 0
2, 6900, Note_on_c, 1, 77, 0
2, 6900, Note_on_c, 1, 69, 0
2, 7260, Note_on_c, 1, 71, 56
2, 7260, Note_on_c, 1, 59, 45
2, 7305, Note_on_c, 1, 59, 0
2, 7305, Note_on_c, 1, 71, 0
2, 7320, Note_on_c, 1, 71, 61
2, 7320, Note_on_c, 1, 74, 61
2, 7320, Note_on_c, 1, 59, 57
2, 7320, Note_on_c, 1, 62, 44
2, 7365, Note_on_c, 1, 62, 0
2, 7365, Note_on_c, 1, 71, 0
2, 7365, Note_on_c, 1, 74, 0
2, 7365, Note_on_c, 1, 59, 0
2, 7380, Note_on_c, 1, 77, 53
2, 7380, Note_on_c, 1, 71, 58
2, 7380, Note_on_c, 1, 65, 58
2, 7380, Note_on_c, 1, 62, 66
2, 7380, Note_on_c, 1, 74, 73
2, 7380, Note_on_c, 1, 59, 63
2, 7425, Note_on_c, 1, 59, 0
2, 7425, Note_on_c, 1, 71, 0
2, 7425, Note_on_c, 1, 65, 0
2, 7425, Note_on_c, 1, 77, 0
2, 7425, Note_on_c, 1, 74, 0
2, 7425, Note_on_c, 1, 62, 0
2, 7440, Note_on_c, 1, 71, 46
2, 7440, Note_on_c, 1, 62, 65
2, 7440, Note_on_c, 1, 59, 73
2, 7440, Note_on_c, 1, 74, 64
2, 7440, Note_on_c, 1, 65, 62
2, 7440, Note_on_c, 1, 77, 61
2, 7440, Note_on_c, 1, 81, 67
2, 7440, Note_on_c, 1, 69, 73
2, 7560, Note_on_c, 1, 69, 0
2, 7560, Note_on_c, 1, 81, 0
2, 7560, Note_on_c, 1, 80, 48
2, 7560, Note_on_c, 1, 68, 35
2, 7620, Note_on_c, 1, 68, 0
2, 7620, Note_on_c, 1, 74, 0
2, 7620, Note_on_c, 1, 77, 0
2, 7620, Note_on_c, 1, 62, 0
2, 7620, Note_on_c, 1, 59, 0
2, 7620, Note_on_c, 1, 71, 0
2, 7620, Note_on_c, 1, 65, 0
2, 7620, Note_on_c, 1, 80, 0
2, 7740, Note_on_c, 1, 76, 53
2, 7740, Note_on_c, 1, 60, 42
2, 7740, Note_on_c, 1, 64, 45
2, 7740, Note_on_c, 1, 72, 29
2, 7740, Note_on_c, 1, 80, 45
2, 7740, Note_on_c, 1, 68, 48
2, 7800, Note_on_c, 1, 68, 0
2, 7800, Note_on_c, 1, 80, 0
2, 7800, Note_on_c, 1, 71, 44
2, 7800, Note_on_c, 1, 83, 32
2, 7860, Note_on_c, 1, 83, 0
2, 7860, Note_on_c, 1, 71, 0
2, 7860, Note_on_c, 1, 81, 46
2, 7860, Note_on_c, 1, 69, 46
2, 7920, Note_on_c, 1, 69, 0
2, 7920, Note_on_c, 1, 60, 0
2, 7920, Note_on_c, 1, 64, 0
2, 7920, Note_on_c, 1, 76, 0
2, 7920, Note_on_c, 1, 81, 0
2, 7920, Note_on_c, 1, 72, 0
2, 7980, Note_on_c, 1, 78, 45
2, 7980, Note_on_c, 1, 75, 45
2, 7980, Note_on_c, 1, 66, 33
2, 7980, Note_on_c, 1, 63, 42
2, 7980, Note_on_c, 1, 69, 40
2, 7980, Note_on_c, 1, 81, 48
2, 8040, Note_on_c, 1, 81, 0
2, 8040, Note_on_c, 1, 69, 0
2, 8040, Note_on_c, 1, 84, 45
2, 8040, Note_on_c, 1, 72, 29
2, 8100, Note_on_c, 1, 72, 0
2, 8100, Note_on_c, 1, 75, 0
2, 8100, Note_on_c, 1, 63, 0
2, 8100, Note_on_c, 1, 78, 0
2, 8100, Note_on_c, 1, 84, 0
2, 8100, Note_on_c, 1, 66, 0
2, 8100, Note_on_c, 1, 78, 42
2, 8100, Note_on_c, 1, 66, 42
2, 8100, Note_on_c, 1, 63, 29
2, 8100, Note_on_c, 1, 78, 44
2, 8100, Note_on_c, 1, 83, 40
2, 8160, Note_on_c, 1, 83, 0
2, 8160, Note_on_c, 1, 63, 0
2, 8160, Note_on_c, 1, 78, 0
2, 8160, Note_on_c, 1, 66, 0
2, 8160, Note_on_c, 1, 78, 0
2, 8160, Note_on_c, 1, 64, 63
2, 8160, Note_on_c, 1, 71, 43
2, 8160, Note_on_c, 1, 67, 29
2, 8160, Note_on_c, 1, 81, 45
2, 8220, Note_on_c, 1, 81, 0
2, 8220, Note_on_c, 1, 79, 65
2, 8280, Note_on_c, 1, 79, 0
2, 8280, Note_on_c, 1, 67, 0
2, 8280, Note_on_c, 1, 71, 0
2, 8280, Note_on_c, 1, 64, 0
2, 8280, Note_on_c, 1, 71, 40
2, 8280, Note_on_c, 1, 55, 42
2, 8280, Note_on_c, 1, 64, 44
2, 8280, Note_on_c, 1, 78, 43
2, 8340, Note_on_c, 1, 78, 0
2, 8340, Note_on_c, 1, 76, 63
2, 8400, Note_on_c, 1, 76, 0
2, 8400, Note_on_c, 1, 64, 0
2, 8400, Note_on_c, 1, 55, 0
2, 8400, Note_on_c, 1, 71, 0
2, 8400, Note_on_c, 1, 64, 43
2, 8400, Note_on_c, 1, 57, 43
2, 8400, Note_on_c, 1, 74, 40
2, 8460, Note_on_c, 1, 74, 0
2, 8460, Note_on_c, 1, 72, 43
2, 8520, Note_on_c, 1, 72, 0
2, 8520, Note_on_c, 1, 57, 0
2, 8520, Note_on_c, 1, 64, 0
2, 8520, Note_on_c, 1, 64, 53
2, 8520, Note_on_c, 1, 60, 45
2, 8520, Note_on_c, 1, 71, 62
2, 8580, Note_on_c, 1, 71, 0
2, 8580, Note_on_c, 1, 69, 43
2, 8640, Note_on_c, 1, 69, 0
2, 8640, Note_on_c, 1, 60, 0
2, 8640, Note_on_c, 1, 64, 0
2, 8640, Note_on_c, 1, 64, 48
2, 8640, Note_on_c, 1, 67, 43
2, 8640, Note_on_c, 1, 59, 43
2, 8760, Note_on_c, 1, 59, 0
2, 8760, Note_on_c, 1, 67, 0
2, 8760, Note_on_c, 1, 64, 0
2, 8760, Note_on_c, 1, 57, 47
2, 8760, Note_on_c, 1, 45, 43
2, 8760, Note_on_c, 1, 60, 41
2, 8760, Note_on_c, 1, 64, 48
2, 8760, Note_on_c, 1, 65, 59
2, 8800, Note_on_c, 1, 65, 0
2, 8800, Note_on_c, 1, 69, 62
2, 8840, Note_on_c, 1, 69, 0
2, 8840, Note_on_c, 1, 72, 43
2, 8880, Note_on_c, 1, 72, 0
2, 8880, Note_on_c, 1, 60, 0
2, 8880, Note_on_c, 1, 57, 0
2, 8880, Note_on_c, 1, 45, 0
2, 8880, Note_on_c, 1, 64, 0
2, 8880, Note_on_c, 1, 47, 62
2, 8880, Note_on_c, 1, 64, 61
2, 8880, Note_on_c, 1, 55, 47
2, 8880, Note_on_c, 1, 59, 43
2, 9000, Note_on_c, 1, 55, 0
2, 9000, Note_on_c, 1, 47, 0
2, 9000, Note_on_c, 1, 64, 0
2, 9000, Note_on_c, 1, 54, 38
2, 9000, Note_on_c, 1, 47, 43
2, 9000, Note_on_c, 1, 63, 39
2, 9060, Note_on_c, 1, 63, 0
2, 9060, Note_on_c, 1, 59, 0
2, 9060, Note_on_c, 1, 54, 0
2, 9060, Note_on_c, 1, 47, 0
2, 9420, Note_on_c, 1, 69, 45
2, 9420, Note_on_c, 1, 65, 44
2, 9420, Note_on_c, 1, 60, 40
2, 9420, Note_on_c, 1, 57, 43
2, 9420, Note_on_c, 1, 84, 41
2, 9420, Note_on_c, 1, 72, 29
2, 9465, Note_on_c, 1, 72, 0
2, 9465, Note_on_c, 1, 65, 0
2, 9465, Note_on_c, 1, 60, 0
2, 9465, Note_on_c, 1, 69, 0
2, 9465, Note_on_c, 1, 84, 0
2, 9465, Note_on_c, 1, 57, 0
2, 9480, Note_on_c, 1, 65, 45
2, 9480, Note_on_c, 1, 69, 49
2, 9480, Note_on_c, 1, 60, 44
2, 9480, Note_on_c, 1, 57, 53
2, 9480, Note_on_c, 1, 83, 48
2, 9480, Note_on_c, 1, 72, 68
2, 9525, Note_on_c, 1, 72, 0
2, 9525, Note_on_c, 1, 69, 0
2, 9525, Note_on_c, 1, 60, 0
2, 9525, Note_on_c, 1, 65, 0
2, 9525, Note_on_c, 1, 83, 0
2, 9525, Note_on_c, 1, 57, 0
2, 9540, Note_on_c, 1, 65, 65
2, 9540, Note_on_c, 1, 69, 68
2, 9540, Note_on_c, 1, 57, 62
2, 9540, Note_on_c, 1, 60, 50
2, 9540, Note_on_c, 1, 81, 65
2, 9540, Note_on_c, 1, 72, 60
2, 9585, Note_on_c, 1, 72, 0
2, 9585, Note_on_c, 1, 69, 0
2, 9585, Note_on_c, 1, 57, 0
2, 9585, Note_on_c, 1, 65, 0
2, 9585, Note_on_c, 1, 81, 0
2, 9585, Note_on_c, 1, 60, 0
2, 9600, Note_on_c, 1, 69, 65
2, 9600, Note_on_c, 1, 65, 62
2, 9600, Note_on_c, 1, 60, 43
2, 9600, Note_on_c, 1, 57, 50
2, 9600, Note_on_c, 1, 72, 62
2, 9600, Note_on_c, 1, 79, 73
2, 9720, Note_on_c, 1, 79, 0
2, 9720, Note_on_c, 1, 77, 43
2, 9780, Note_on_c, 1, 77, 0
2, 9780, Note_on_c, 1, 72, 0
2, 9780, Note_on_c, 1, 60, 0
2, 9780, Note_on_c, 1, 69, 0
2, 9780, Note_on_c, 1, 65, 0
2, 9780, Note_on_c, 1, 57, 0
2, 10140, Note_on_c, 1, 68, 40
2, 10140, Note_on_c, 1, 71, 44
2, 10140, Note_on_c, 1, 65, 35
2, 10140, Note_on_c, 1, 62, 40
2, 10140, Note_on_c, 1, 59, 41
2, 10140, Note_on_c, 1, 86, 43
2, 10140, Note_on_c, 1, 80, 30
2, 10140, Note_on_c, 1, 77, 43
2, 10140, Note_on_c, 1, 74, 53
2, 10185, Note_on_c, 1, 74, 0
2, 10185, Note_on_c, 1, 62, 0
2, 10185, Note_on_c, 1, 68, 0
2, 10185, Note_on_c, 1, 59, 0
2, 10185, Note_on_c, 1, 71, 0
2, 10185, Note_on_c, 1, 65, 0
2, 10185, Note_on_c, 1, 80, 0
2, 10185, Note_on_c, 1, 86, 0
2, 10185, Note_on_c, 1, 77, 0
2, 10200, Note_on_c, 1, 71, 46
2, 10200, Note_on_c, 1, 68, 44
2, 10200, Note_on_c, 1, 62, 43
2, 10200, Note_on_c, 1, 65, 38
2, 10200, Note_on_c, 1, 59, 43
2, 10200, Note_on_c, 1, 84, 52
2, 10200, Note_on_c, 1, 80, 40
2, 10200, Note_on_c, 1, 77, 43
2, 10200, Note_on_c, 1, 74, 53
2, 10245, Note_on_c, 1, 74, 0
2, 10245, Note_on_c, 1, 65, 0
2, 10245, Note_on_c, 1, 71, 0
2, 10245, Note_on_c, 1, 59, 0
2, 10245, Note_on_c, 1, 68, 0
2, 10245, Note_on_c, 1, 62, 0
2, 10245, Note_on_c, 1, 80, 0
2, 10245, Note_on_c, 1, 84, 0
2, 10245, Note_on_c, 1, 77, 0
2, 10260, Note_on_c, 1, 68, 66
2, 10260, Note_on_c, 1, 71, 65
2, 10260, Note_on_c, 1, 59, 59
2, 10260, Note_on_c, 1, 65, 43
2, 10260, Note_on_c, 1, 62, 59
2, 10260, Note_on_c, 1, 80, 46
2, 10260, Note_on_c, 1, 83, 67
2, 10260, Note_on_c, 1, 77, 51
2, 10260, Note_on_c, 1, 74, 64
2, 10305, Note_on_c, 1, 74, 0
2, 10305, Note_on_c, 1, 65, 0
2, 10305, Note_on_c, 1, 68, 0
2, 10305, Note_on_c, 1, 62, 0
2, 10305, Note_on_c, 1, 71, 0
2, 10305, Note_on_c, 1, 59, 0
2, 10305, Note_on_c, 1, 83, 0
2, 10305, Note_on_c, 1, 80, 0
2, 10305, Note_on_c, 1, 77, 0
2, 10320, Note_on_c, 1, 71, 71
2, 10320, Note_on_c, 1, 68, 61
2, 10320, Note_on_c, 1, 65, 43
2, 10320, Note_on_c, 1, 62, 54
2, 10320, Note_on_c, 1, 59, 50
2, 10320, Note_on_c, 1, 77, 60
2, 10320, Note_on_c, 1, 74, 61
2, 10320, Note_on_c, 1, 81, 64
2, 10440, Note_on_c, 1, 81, 0
2, 10440, Note_on_c, 1, 80, 43
2, 10500, Note_on_c, 1, 80, 0
2, 10500, Note_on_c, 1, 62, 0
2, 10500, Note_on_c, 1, 59, 0
2, 10500, Note_on_c, 1, 68, 0
2, 10500, Note_on_c, 1, 65, 0
2, 10500, Note_on_c, 1, 74, 0
2, 10500, Note_on_c, 1, 77, 0
2, 10500, Note_on_c, 1, 71, 0
2, 10620, Note_on_c, 1, 73, 51
2, 10620, Note_on_c, 1, 61, 44
2, 10620, Note_on_c, 1, 70, 52
2, 10620, Note_on_c, 1, 64, 67
2, 10620, Note_on_c, 1, 76, 64
2, 10620, Note_on_c, 1, 79, 46
2, 10620, Note_on_c, 1, 82, 40
2, 10620, Note_on_c, 1, 88, 61
2, 10740, Note_on_c, 1, 88, 0
2, 10740, Note_on_c, 1, 73, 0
2, 10740, Note_on_c, 1, 76, 0
2, 10740, Note_on_c, 1, 61, 0
2, 10740, Note_on_c, 1, 70, 0
2, 10740, Note_on_c, 1, 64, 0
2, 10740, Note_on_c, 1, 79, 0
2, 10740, Note_on_c, 1, 82, 0
2, 10860, Note_on_c, 1, 75, 65
2, 10860, Note_on_c, 1, 66, 46
2, 10860, Note_on_c, 1, 63, 45
2, 10860, Note_on_c, 1, 69, 63
2, 10860, Note_on_c, 1, 90, 45
2, 10860, Note_on_c, 1, 78, 42
2, 10860, Note_on_c, 1, 81, 41
2, 10860, Note_on_c, 1, 84, 52
2, 10860, Note_on_c, 1, 72, 84
2, 10980, Note_on_c, 1, 72, 0
2, 10980, Note_on_c, 1, 84, 0
2, 10980, Note_on_c, 1, 83, 45
2, 10980, Note_on_c, 1, 71, 41
2, 11040, Note_on_c, 1, 71, 0
2, 11040, Note_on_c, 1, 69, 0
2, 11040, Note_on_c, 1, 81, 0
2, 11040, Note_on_c, 1, 90, 0
2, 11040, Note_on_c, 1, 66, 0
2, 11040, Note_on_c, 1, 63, 0
2, 11040, Note_on_c, 1, 75, 0
2, 11040, Note_on_c, 1, 78, 0
2, 11040, Note_on_c, 1, 83, 0
2, 11040, Control_c, 1, 64, 126
2, 11040, Note_on_c, 1, 91, 58
2, 11040, Note_on_c, 1, 40, 42
2, 11070, Note_on_c, 1, 40, 0
2, 11070, Note_on_c, 1, 52, 59
2, 11100, Note_on_c, 1, 52, 0
2, 11100, Note_on_c, 1, 55, 50
2, 11130, Note_on_c, 1, 55, 0
2, 11130, Note_on_c, 1, 59, 52
2, 11160, Note_on_c, 1, 59, 0
2, 11160, Note_on_c, 1, 64, 48
2, 11190, Note_on_c, 1, 91, 0
2, 11190, Note_on_c, 1, 90, 51
2, 11220, Note_on_c, 1, 90, 0
2, 11220, Note_on_c, 1, 64, 0
2, 11220, Note_on_c, 1, 91, 68
2, 11250, Note_on_c, 1, 91, 0
2, 11250, Note_on_c, 1, 87, 64
2, 11280, Note_on_c, 1, 87, 0
2, 11280, Note_on_c, 1, 88, 72
2, 11310, Note_on_c, 1, 88, 0
2, 11310, Note_on_c, 1, 87, 65
2, 11340, Note_on_c, 1, 87, 0
2, 11340, Note_on_c, 1, 88, 73
2, 11370, Note_on_c, 1, 88, 0
2, 11370, Note_on_c, 1, 83, 67
2, 11400, Note_on_c, 1, 83, 0
2, 11400, Note_on_c, 1, 81, 47
2, 11430, Note_on_c, 1, 81, 0
2, 11430, Note_on_c, 1, 79, 68
2, 11460, Note_on_c, 1, 79, 0
2, 11460, Note_on_c, 1, 78, 72
2, 11490, Note_on_c, 1, 78, 0
2, 11490, Note_on_c, 1, 76, 64
2, 11510, Control_c, 1, 64, 0
2, 11520, Note_on_c, 1, 76, 0
2, 11520, Note_on_c, 1, 33, 59
2, 11520, Note_on_c, 1, 74, 52
2, 11525, Control_c, 1, 64, 126
2, 11550, Note_on_c, 1, 33, 0
2, 11550, Note_on_c, 1, 45, 53
2, 11580, Note_on_c, 1, 45, 0
2, 11580, Note_on_c, 1, 74, 0
2, 11580, Note_on_c, 1, 48, 43
2, 11580, Note_on_c, 1, 72, 65
2, 11610, Note_on_c, 1, 48, 0
2, 11610, Note_on_c, 1, 52, 45
2, 11640, Note_on_c, 1, 52, 0
2, 11640, Note_on_c, 1, 57, 56
2, 11670, Note_on_c, 1, 57, 0
2, 11670, Note_on_c, 1, 60, 43
2, 11700, Note_on_c, 1, 60, 0
2, 11700, Note_on_c, 1, 64, 59
2, 11730, Note_on_c, 1, 64, 0
2, 11730, Note_on_c, 1, 68, 53
2, 11760, Note_on_c, 1, 68, 0
2, 11760, Note_on_c, 1, 69, 52
2, 11790, Note_on_c, 1, 72, 0
2, 11790, Note_on_c, 1, 71, 54
2, 11820, Note_on_c, 1, 71, 0
2, 11820, Note_on_c, 1, 69, 0
2, 11820, Note_on_c, 1, 72, 29
2, 11850, Note_on_c, 1, 72, 0
2, 11850, Note_on_c, 1, 69, 43
2, 11880, Note_on_c, 1, 69, 0
2, 11880, Note_on_c, 1, 67, 53
2, 11910, Note_on_c, 1, 67, 0
2, 11910, Note_on_c, 1, 66, 71
2, 11940, Note_on_c, 1, 66, 0
2, 11940, Note_on_c, 1, 69, 40
2, 11970, Note_on_c, 1, 69, 0
2, 11970, Note_on_c, 1, 66, 57
2, 11990, Control_c, 1, 64, 0
2, 12000, Note_on_c, 1, 66, 0
2, 12000, Note_on_c, 1, 35, 51
2, 12000, Note_on_c, 1, 64, 53
2, 12005, Control_c, 1, 64, 126
2, 12030, Note_on_c, 1, 35, 0
2, 12030, Note_on_c, 1, 47, 44
2, 12060, Note_on_c, 1, 47, 0
2, 12060, Note_on_c, 1, 52, 58
2, 12090, Note_on_c, 1, 52, 0
2, 12090, Note_on_c, 1, 55, 42
2, 12120, Note_on_c, 1, 55, 0
2, 12120, Note_on_c, 1, 59, 38
2, 12150, Note_on_c, 1, 64, 0
2, 12150, Note_on_c, 1, 64, 50
2, 12180, Note_on_c, 1, 64, 0
2, 12180, Note_on_c, 1, 59, 0
2, 12180, Note_on_c, 1, 67, 37
2, 12210, Note_on_c, 1, 67, 0
2, 12210, Note_on_c, 1, 71, 42
2, 12230, Control_c, 1, 64, 0
2, 12240, Note_on_c, 1, 71, 0
2, 12240, Note_on_c, 1, 76, 62
2, 12270, Note_on_c, 1, 76, 0
2, 12270, Note_on_c, 1, 78, 59
2, 12300, Note_on_c, 1, 78, 0
2, 12300, Note_on_c, 1, 79, 64
2, 12300, Note_on_c, 1, 58, 45
2, 12300, Note_on_c, 1, 73, 52
2, 12300, Note_on_c, 1, 64, 59
2, 12330, Note_on_c, 1, 64, 0
2, 12330, Note_on_c, 1, 79, 0
2, 12330, Note_on_c, 1, 76, 65
2, 12330, Note_on_c, 1, 67, 43
2, 12360, Note_on_c, 1, 73, 0
2, 12360, Note_on_c, 1, 58, 0
2, 12360, Note_on_c, 1, 57, 59
2, 12360, Note_on_c, 1, 72, 65
2, 12390, Note_on_c, 1, 76, 0
2, 12390, Note_on_c, 1, 67, 0
2, 12390, Note_on_c, 1, 75, 74
2, 12390, Note_on_c, 1, 66, 58
2, 12420, Note_on_c, 1, 66, 0
2, 12420, Note_on_c, 1, 72, 0
2, 12420, Note_on_c, 1, 57, 0
2, 12420, Note_on_c, 1, 75, 0
2, 12420, Note_on_c, 1, 77, 63
2, 12420, Note_on_c, 1, 56, 43
2, 12420, Note_on_c, 1, 71, 44
2, 12420, Note_on_c, 1, 62, 46
2, 12450, Note_on_c, 1, 62, 0
2, 12450, Note_on_c, 1, 77, 0
2, 12450, Note_on_c, 1, 74, 53
2, 12450, Note_on_c, 1, 65, 57
2, 12480, Note_on_c, 1, 71, 0
2, 12480, Note_on_c, 1, 56, 0
2, 12480, Note_on_c, 1, 70, 50
2, 12480, Note_on_c, 1, 55, 42
2, 12510, Note_on_c, 1, 74, 0
2, 12510, Note_on_c, 1, 65, 0
2, 12510, Note_on_c, 1, 73, 52
2, 12510, Note_on_c, 1, 64, 51
2, 12540, Note_on_c, 1, 64, 0
2, 12540, Note_on_c, 1, 55, 0
2, 12540, Note_on_c, 1, 70, 0
2, 12540, Note_on_c, 1, 73, 0
2, 12540, Note_on_c, 1, 75, 65
2, 12540, Note_on_c, 1, 60, 45
2, 12540, Note_on_c, 1, 69, 57
2, 12540, Note_on_c, 1, 54, 57
2, 12570, Note_on_c, 1, 60, 0
2, 12570, Note_on_c, 1, 75, 0
2, 12570, Note_on_c, 1, 72, 89
2, 12570, Note_on_c, 1, 63, 53
2, 12600, Note_on_c, 1, 63, 0
2, 12600, Note_on_c, 1, 54, 0
2, 12600, Note_on_c, 1, 69, 0
2, 12600, Note_on_c, 1, 55, 59
2, 12600, Note_on_c, 1, 55, 47
2, 12600, Note_on_c, 1, 67, 40
2, 12630, Note_on_c, 1, 55, 0
2, 12630, Note_on_c, 1, 72, 0
2, 12630, Note_on_c, 1, 71, 52
2, 12630, Note_on_c, 1, 62, 52
2, 12660, Note_on_c, 1, 62, 0
2, 12660, Note_on_c, 1, 67, 0
2, 12660, Note_on_c, 1, 55, 0
2, 12660, Note_on_c, 1, 51, 52
2, 12660, Note_on_c, 1, 51, 58
2, 12660, Note_on_c, 1, 66, 43
2, 12690, Note_on_c, 1, 51, 0
2, 12690, Note_on_c, 1, 71, 0
2, 12690, Note_on_c, 1, 69, 67
2, 12690, Note_on_c, 1, 60, 47
2, 12720, Note_on_c, 1, 60, 0
2, 12720, Note_on_c, 1, 66, 0
2, 12720, Note_on_c, 1, 51, 0
2, 12720, Note_on_c, 1, 66, 50
2, 12720, Note_on_c, 1, 52, 50
2, 12720, Note_on_c, 1, 52, 58
2, 12750, Note_on_c, 1, 52, 0
2, 12750, Note_on_c, 1, 69, 0
2, 12750, Note_on_c, 1, 66, 0
2, 12750, Note_on_c, 1, 67, 52
2, 12750, Note_on_c, 1, 59, 44
2, 12750, Note_on_c, 1, 67, 43
2, 12780, Note_on_c, 1, 59, 0
2, 12780, Note_on_c, 1, 52, 0
2, 12780, Note_on_c, 1, 67, 0
2, 12780, Note_on_c, 1, 57, 40
2, 12780, Note_on_c, 1, 48, 45
2, 12810, Note_on_c, 1, 57, 0
2, 12810, Note_on_c, 1, 67, 0
2, 12810, Note_on_c, 1, 66, 45
2, 12810, Note_on_c, 1, 64, 53
2, 12840, Note_on_c, 1, 64, 0
2, 12840, Note_on_c, 1, 48, 0
2, 12840, Note_on_c, 1, 59, 56
2, 12840, Note_on_c, 1, 47, 52
2, 12870, Note_on_c, 1, 59, 0
2, 12870, Note_on_c, 1, 66, 0
2, 12870, Note_on_c, 1, 66, 56
2, 12870, Note_on_c, 1, 64, 60
2, 12900, Note_on_c, 1, 64, 0
2, 12900, Note_on_c, 1, 47, 0
2, 12900, Note_on_c, 1, 61, 44
2, 12900, Note_on_c, 1, 46, 43
2, 12930, Note_on_c, 1, 61, 0
2, 12930, Note_on_c, 1, 66, 0
2, 12930, Note_on_c, 1, 66, 52
2, 12930, Note_on_c, 1, 64, 60
2, 12960, Note_on_c, 1, 64, 0
2, 12960, Note_on_c, 1, 66, 0
2, 12960, Note_on_c, 1, 46, 0
2, 12960, Note_on_c, 1, 57, 45
2, 12960, Note_on_c, 1, 63, 45
2, 12960, Note_on_c, 1, 54, 43
2, 12960, Note_on_c, 1, 47, 29
2, 12960, Note_on_c, 1, 51, 29
2, 12960, Note_on_c, 1, 66, 60
2, 12980, Note_on_c, 1, 66, 0
2, 12980, Note_on_c, 1, 67, 39
2, 13000, Note_on_c, 1, 67, 0
2, 13000, Note_on_c, 1, 66, 46
2, 13020, Note_on_c, 1, 66, 0
2, 13020, Note_on_c, 1, 63, 0
2, 13020, Note_on_c, 1, 54, 0
2, 13020, Note_on_c, 1, 57, 0
2, 13020, Note_on_c, 1, 51, 0
2, 13020, Note_on_c, 1, 47, 0
2, 13020, Note_on_c, 1, 67, 53
2, 13040, Note_on_c, 1, 67, 0
2, 13040, Note_on_c, 1, 66, 66
2, 13060, Note_on_c, 1, 66, 0
2, 13060, Note_on_c, 1, 67, 54
2, 13080, Note_on_c, 1, 67, 0
2, 13080, Note_on_c, 1, 66, 64
2, 13095, Note_on_c, 1, 66, 0
2, 13095, Note_on_c, 1, 67, 43
2, 13110, Note_on_c, 1, 67, 0
2, 13110, Note_on_c, 1, 66, 68
2, 13125, Note_on_c, 1, 66, 0
2, 13125, Note_on_c, 1, 67, 40
2, 13140, Note_on_c, 1, 67, 0
2, 13140, Note_on_c, 1, 66, 68
2, 13155, Note_on_c, 1, 66, 0
2, 13155, Note_on_c, 1, 67, 64
2, 13170, Note_on_c, 1, 67, 0
2, 13170, Note_on_c, 1, 66, 68
2, 13185, Note_on_c, 1, 66, 0
2, 13185, Note_on_c, 1, 67, 71
2, 13200, Note_on_c, 1, 67, 0
2, 13200, Note_on_c, 1, 66, 73
2, 13215, Note_on_c, 1, 66, 0
2, 13215, Note_on_c, 1, 67, 60
2, 13230, Note_on_c, 1, 67, 0
2, 13230, Note_on_c, 1, 66, 74
2, 13245, Note_on_c, 1, 66, 0
2, 13245, Note_on_c, 1, 67, 59
2, 13260, Note_on_c, 1, 67, 0
2, 13260, Note_on_c, 1, 66, 68
2, 13275, Note_on_c, 1, 66, 0
2, 13275, Note_on_c, 1, 67, 67
2, 13290, Note_on_c, 1, 67, 0
2, 13290, Note_on_c, 1, 66, 68
2, 13305, Note_on_c, 1, 66, 0
2, 13305, Note_on_c, 1, 67, 59
2, 13320, Note_on_c, 1, 67, 0
2, 13320, Note_on_c, 1, 66, 69
2, 13335, Note_on_c, 1, 66, 0
2, 13335, Note_on_c, 1, 67, 50
2, 13350, Note_on_c, 1, 67, 0
2, 13350, Note_on_c, 1, 66, 65
2, 13365, Note_on_c, 1, 66, 0
2, 13365, Note_on_c, 1, 67, 58
2, 13380, Note_on_c, 1, 67, 0
2, 13380, Note_on_c, 1, 66, 71
2, 13395, Note_on_c, 1, 66, 0
2, 13395, Note_on_c, 1, 67, 65
2, 13410, Note_on_c, 1, 67, 0
2, 13410, Note_on_c, 1, 66, 72
2, 13425, Note_on_c, 1, 66, 0
2, 13425, Note_on_c, 1, 67, 64
2, 13440, Note_on_c, 1, 67, 0
2, 13440, Note_on_c, 1, 66, 64
2, 13440, Note_on_c, 1, 69, 71
2, 13455, Note_on_c, 1, 69, 0
2, 13455, Note_on_c, 1, 66, 0
2, 13455, Note_on_c, 1, 71, 76
2, 13455, Note_on_c, 1, 67, 43
2, 13470, Note_on_c, 1, 67, 0
2, 13470, Note_on_c, 1, 71, 0
2, 13470, Note_on_c, 1, 66, 73
2, 13470, Note_on_c, 1, 69, 73
2, 13485, Note_on_c, 1, 69, 0
2, 13485, Note_on_c, 1, 66, 0
2, 13485, Note_on_c, 1, 71, 71
2, 13485, Note_on_c, 1, 67, 44
2, 13500, Note_on_c, 1, 67, 0
2, 13500, Note_on_c, 1, 71, 0
2, 13500, Note_on_c, 1, 66, 69
2, 13500, Note_on_c, 1, 69, 70
2, 13515, Note_on_c, 1, 69, 0
2, 13515, Note_on_c, 1, 66, 0
2, 13515, Note_on_c, 1, 71, 62
2, 13515, Note_on_c, 1, 67, 43
2, 13530, Note_on_c, 1, 67, 0
2, 13530, Note_on_c, 1, 71, 0
2, 13530, Note_on_c, 1, 66, 73
2, 13530, Note_on_c, 1, 69, 72
2, 13545, Note_on_c, 1, 69, 0
2, 13545, Note_on_c, 1, 66, 0
2, 13545, Note_on_c, 1, 71, 66
2, 13545, Note_on_c, 1, 67, 40
2, 13560, Note_on_c, 1, 67, 0
2, 13560, Note_on_c, 1, 71, 0
2, 13560, Note_on_c, 1, 66, 56
2, 13560, Note_on_c, 1, 69, 43
2, 13575, Note_on_c, 1, 69, 0
2, 13575, Note_on_c, 1, 66, 0
2, 13575, Note_on_c, 1, 71, 72
2, 13575, Note_on_c, 1, 67, 43
2, 13590, Note_on_c, 1, 67, 0
2, 13590, Note_on_c, 1, 71, 0
2, 13590, Note_on_c, 1, 66, 74
2, 13590, Note_on_c, 1, 69, 74
2, 13605, Note_on_c, 1, 69, 0
2, 13605, Note_on_c, 1, 66, 0
2, 13605, Note_on_c, 1, 67, 76
2, 13605, Note_on_c, 1, 71, 67
2, 13620, Note_on_c, 1, 71, 0
2, 13620, Note_on_c, 1, 67, 0
2, 13620, Note_on_c, 1, 66, 81
2, 13620, Note_on_c, 1, 69, 63
2, 13635, Note_on_c, 1, 69, 0
2, 13635, Note_on_c, 1, 66, 0
2, 13635, Note_on_c, 1, 67, 72
2, 13635, Note_on_c, 1, 71, 69
2, 13650, Note_on_c, 1, 71, 0
2, 13650, Note_on_c, 1, 67, 0
2, 13650, Note_on_c, 1, 66, 76
2, 13650, Note_on_c, 1, 69, 76
2, 13665, Note_on_c, 1, 69, 0
2, 13665, Note_on_c, 1, 66, 0
2, 13665, Note_on_c, 1, 67, 65
2, 13665, Note_on_c, 1, 71, 82
2, 13680, Note_on_c, 1, 71, 0
2, 13680, Note_on_c, 1, 67, 0
2, 13680, Note_on_c, 1, 66, 57
2, 13680, Note_on_c, 1, 69, 62
2, 13695, Note_on_c, 1, 69, 0
2, 13695, Note_on_c, 1, 66, 0
2, 13695, Note_on_c, 1, 67, 53
2, 13695, Note_on_c, 1, 71, 62
2, 13710, Note_on_c, 1, 71, 0
2, 13710, Note_on_c, 1, 67, 0
2, 13710, Note_on_c, 1, 66, 63
2, 13710, Note_on_c, 1, 69, 65
2, 13725, Note_on_c, 1, 69, 0
2, 13725, Note_on_c, 1, 66, 0
2, 13725, Note_on_c, 1, 67, 61
2, 13725, Note_on_c, 1, 71, 64
2, 13740, Note_on_c, 1, 71, 0
2, 13740, Note_on_c, 1, 67, 0
2, 13740, Note_on_c, 1, 66, 74
2, 13740, Note_on_c, 1, 69, 72
2, 13755, Note_on_c, 1, 69, 0
2, 13755, Note_on_c, 1, 66, 0
2, 13755, Note_on_c, 1, 67, 69
2, 13755, Note_on_c, 1, 71, 72
2, 13770, Note_on_c, 1, 71, 0
2, 13770, Note_on_c, 1, 67, 0
2, 13770, Note_on_c, 1, 66, 68
2, 13770, Note_on_c, 1, 69, 72
2, 13785, Note_on_c, 1, 69, 0
2, 13785, Note_on_c, 1, 66, 0
2, 13785, Note_on_c, 1, 67, 76
2, 13785, Note_on_c, 1, 71, 68
2, 13800, Note_on_c, 1, 71, 0
2, 13800, Note_on_c, 1, 67, 0
2, 13800, Note_on_c, 1, 66, 84
2, 13800, Note_on_c, 1, 69, 67
2, 13815, Note_on_c, 1, 69, 0
2, 13815, Note_on_c, 1, 66, 0
2, 13815, Note_on_c, 1, 67, 72
2, 13815, Note_on_c, 1, 71, 67
2, 13830, Note_on_c, 1, 71, 0
2, 13830, Note_on_c, 1, 67, 0
2, 13830, Note_on_c, 1, 66, 84
2, 13830, Note_on_c, 1, 69, 62
2, 13845, Note_on_c, 1, 69, 0
2, 13845, Note_on_c, 1, 66, 0
2, 13845, Note_on_c, 1, 67, 64
2, 13845, Note_on_c, 1, 71, 69
2, 13860, Note_on_c, 1, 71, 0
2, 13860, Note_on_c, 1, 67, 0
2, 13860, Note_on_c, 1, 66, 80
2, 13860, Note_on_c, 1, 69, 78
2, 13875, Note_on_c, 1, 69, 0
2, 13875, Note_on_c, 1, 66, 0
2, 13875, Note_on_c, 1, 67, 64
2, 13875, Note_on_c, 1, 71, 63
2, 13890, Note_on_c, 1, 71, 0
2, 13890, Note_on_c, 1, 67, 0
2, 13890, Note_on_c, 1, 66, 78
2, 13890, Note_on_c, 1, 69, 73
2, 13905, Note_on_c, 1, 69, 0
2, 13905, Note_on_c, 1, 66, 0
2, 13905, Note_on_c, 1, 67, 67
2, 13905, Note_on_c, 1, 71, 72
2, 13920, Note_on_c, 1, 71, 0
2, 13920, Note_on_c, 1, 67, 0
2, 13920, Note_on_c, 1, 66, 52
2, 13920, Note_on_c, 1, 72, 66
2, 13920, Note_on_c, 1, 69, 57
2, 13935, Note_on_c, 1, 69, 0
2, 13935, Note_on_c, 1, 72, 0
2, 13935, Note_on_c, 1, 66, 0
2, 13935, Note_on_c, 1, 71, 68
2, 13935, Note_on_c, 1, 74, 76
2, 13935, Note_on_c, 1, 67, 57
2, 13950, Note_on_c, 1, 67, 0
2, 13950, Note_on_c, 1, 74, 0
2, 13950, Note_on_c, 1, 71, 0
2, 13950, Note_on_c, 1, 66, 72
2, 13950, Note_on_c, 1, 72, 66
2, 13950, Note_on_c, 1, 69, 58
2, 13965, Note_on_c, 1, 69, 0
2, 13965, Note_on_c, 1, 72, 0
2, 13965, Note_on_c, 1, 66, 0
2, 13965, Note_on_c, 1, 71, 60
2, 13965, Note_on_c, 1, 67, 54
2, 13965, Note_on_c, 1, 74, 76
2, 13980, Note_on_c, 1, 74, 0
2, 13980, Note_on_c, 1, 67, 0
2, 13980, Note_on_c, 1, 71, 0
2, 13980, Note_on_c, 1, 66, 65
2, 13980, Note_on_c, 1, 72, 52
2, 13980, Note_on_c, 1, 69, 65
2, 13995, Note_on_c, 1, 69, 0
2, 13995, Note_on_c, 1, 72, 0
2, 13995, Note_on_c, 1, 66, 0
2, 13995, Note_on_c, 1, 71, 63
2, 13995, Note_on_c, 1, 67, 50
2, 13995, Note_on_c, 1, 74, 72
2, 14010, Note_on_c, 1, 74, 0
2, 14010, Note_on_c, 1, 67, 0
2, 14010, Note_on_c, 1, 71, 0
2, 14010, Note_on_c, 1, 72, 46
2, 14010, Note_on_c, 1, 69, 67
2, 14010, Note_on_c, 1, 66, 62
2, 14025, Note_on_c, 1, 66, 0
2, 14025, Note_on_c, 1, 69, 0
2, 14025, Note_on_c, 1, 72, 0
2, 14025, Note_on_c, 1, 67, 64
2, 14025, Note_on_c, 1, 71, 65
2, 14025, Note_on_c, 1, 74, 70
2, 14040, Note_on_c, 1, 74, 0
2, 14040, Note_on_c, 1, 71, 0
2, 14040, Note_on_c, 1, 67, 0
2, 14040, Note_on_c, 1, 72, 68
2, 14040, Note_on_c, 1, 66, 63
2, 14040, Note_on_c, 1, 69, 70
2, 14055, Note_on_c, 1, 69, 0
2, 14055, Note_on_c, 1, 66, 0
2, 14055, Note_on_c, 1, 72, 0
2, 14055, Note_on_c, 1, 67, 65
2, 14055, Note_on_c, 1, 71, 74
2, 14055, Note_on_c, 1, 74, 80
2, 14070, Note_on_c, 1, 74, 0
2, 14070, Note_on_c, 1, 71, 0
2, 14070, Note_on_c, 1, 67, 0
2, 14070, Note_on_c, 1, 72, 64
2, 14070, Note_on_c, 1, 66, 70
2, 14070, Note_on_c, 1, 69, 76
2, 14085, Note_on_c, 1, 69, 0
2, 14085, Note_on_c, 1, 66, 0
2, 14085, Note_on_c, 1, 72, 0
2, 14085, Note_on_c, 1, 67, 73
2, 14085, Note_on_c, 1, 71, 80
2, 14085, Note_on_c, 1, 74, 80
2, 14100, Note_on_c, 1, 74, 0
2, 14100, Note_on_c, 1, 71, 0
2, 14100, Note_on_c, 1, 67, 0
2, 14100, Note_on_c, 1, 66, 72
2, 14100, Note_on_c, 1, 72, 73
2, 14100, Note_on_c, 1, 69, 72
2, 14115, Note_on_c, 1, 69, 0
2, 14115, Note_on_c, 1, 72, 0
2, 14115, Note_on_c, 1, 66, 0
2, 14115, Note_on_c, 1, 67, 82
2, 14115, Note_on_c, 1, 71, 80
2, 14115, Note_on_c, 1, 74, 80
2, 14130, Note_on_c, 1, 74, 0
2, 14130, Note_on_c, 1, 71, 0
2, 14130, Note_on_c, 1, 67, 0
2, 14130, Note_on_c, 1, 72, 72
2, 14130, Note_on_c, 1, 69, 73
2, 14130, Note_on_c, 1, 66, 68
2, 14145, Note_on_c, 1, 66, 0
2, 14145, Note_on_c, 1, 69, 0
2, 14145, Note_on_c, 1, 72, 0
2, 14145, Note_on_c, 1, 67, 76
2, 14145, Note_on_c, 1, 71, 80
2, 14145, Note_on_c, 1, 74, 76
2, 14160, Note_on_c, 1, 74, 0
2, 14160, Note_on_c, 1, 71, 0
2, 14160, Note_on_c, 1, 67, 0
2, 14160, Note_on_c, 1, 66, 74
2, 14160, Note_on_c, 1, 69, 76
2, 14160, Note_on_c, 1, 72, 77
2, 14175, Note_on_c, 1, 72, 0
2, 14175, Note_on_c, 1, 69, 0
2, 14175, Note_on_c, 1, 66, 0
2, 14175, Note_on_c, 1, 67, 80
2, 14175, Note_on_c, 1, 71, 76
2, 14175, Note_on_c, 1, 74, 80
2, 14190, Note_on_c, 1, 74, 0
2, 14190, Note_on_c, 1, 71, 0
2, 14190, Note_on_c, 1, 67, 0
2, 14190, Note_on_c, 1, 69, 73
2, 14190, Note_on_c, 1, 66, 73
2, 14190, Note_on_c, 1, 72, 76
2, 14205, Note_on_c, 1, 72, 0
2, 14205, Note_on_c, 1, 66, 0
2, 14205, Note_on_c, 1, 69, 0
2, 14205, Note_on_c, 1, 67, 69
2, 14205, Note_on_c, 1, 71, 78
2, 14205, Note_on_c, 1, 74, 81
2, 14220, Note_on_c, 1, 74, 0
2, 14220, Note_on_c, 1, 71, 0
2, 14220, Note_on_c, 1, 67, 0
2, 14220, Note_on_c, 1, 72, 64
2, 14220, Note_on_c, 1, 66, 70
2, 14220, Note_on_c, 1, 69, 77
2, 14235, Note_on_c, 1, 69, 0
2, 14235, Note_on_c, 1, 66, 0
2, 14235, Note_on_c, 1, 72, 0
2, 14235, Note_on_c, 1, 67, 77
2, 14235, Note_on_c, 1, 71, 85
2, 14235, Note_on_c, 1, 74, 80
2, 14250, Note_on_c, 1, 74, 0
2, 14250, Note_on_c, 1, 71, 0
2, 14250, Note_on_c, 1, 67, 0
2, 14250, Note_on_c, 1, 72, 72
2, 14250, Note_on_c, 1, 69, 69
2, 14250, Note_on_c, 1, 66, 72
2, 14265, Note_on_c, 1, 66, 0
2, 14265, Note_on_c, 1, 69, 0
2, 14265, Note_on_c, 1, 72, 0
2, 14265, Note_on_c, 1, 67, 80
2, 14265, Note_on_c, 1, 71, 80
2, 14265, Note_on_c, 1, 74, 84
2, 14280, Note_on_c, 1, 74, 0
2, 14280, Note_on_c, 1, 71, 0
2, 14280, Note_on_c, 1, 67, 0
2, 14280, Note_on_c, 1, 72, 74
2, 14280, Note_on_c, 1, 69, 73
2, 14280, Note_on_c, 1, 66, 73
2, 14295, Note_on_c, 1, 66, 0
2, 14295, Note_on_c, 1, 69, 0
2, 14295, Note_on_c, 1, 72, 0
2, 14295, Note_on_c, 1, 71, 76
2, 14295, Note_on_c, 1, 74, 77
2, 14295, Note_on_c, 1, 67, 78
2, 14310, Note_on_c, 1, 67, 0
2, 14310, Note_on_c, 1, 74, 0
2, 14310, Note_on_c, 1, 71, 0
2, 14310, Note_on_c, 1, 66, 66
2, 14310, Note_on_c, 1, 69, 67
2, 14310, Note_on_c, 1, 72, 76
2, 14325, Note_on_c, 1, 72, 0
2, 14325, Note_on_c, 1, 69, 0
2, 14325, Note_on_c, 1, 66, 0
2, 14325, Note_on_c, 1, 67, 76
2, 14325, Note_on_c, 1, 71, 80
2, 14325, Note_on_c, 1, 74, 81
2, 14340, Note_on_c, 1, 74, 0
2, 14340, Note_on_c, 1, 71, 0
2, 14340, Note_on_c, 1, 67, 0
2, 14340, Note_on_c, 1, 66, 73
2, 14340, Note_on_c, 1, 69, 77
2, 14340, Note_on_c, 1, 72, 78
2, 14355, Note_on_c, 1, 72, 0
2, 14355, Note_on_c, 1, 69, 0
2, 14355, Note_on_c, 1, 66, 0
2, 14355, Note_on_c, 1, 67, 80
2, 14355, Note_on_c, 1, 71, 77
2, 14355, Note_on_c, 1, 74, 84
2, 14370, Note_on_c, 1, 74, 0
2, 14370, Note_on_c, 1, 71, 0
2, 14370, Note_on_c, 1, 67, 0
2, 14370, Note_on_c, 1, 72, 78
2, 14370, Note_on_c, 1, 66, 73
2, 14370, Note_on_c, 1, 69, 73
2, 14385, Note_on_c, 1, 69, 0
2, 14385, Note_on_c, 1, 66, 0
2, 14385, Note_on_c, 1, 72, 0
2, 14385, Note_on_c, 1, 67, 89
2, 14385, Note_on_c, 1, 71, 84
2, 14385, Note_on_c, 1, 74, 89
2, 14400, Note_on_c, 1, 74, 0
2, 14400, Note_on_c, 1, 71, 0
2, 14400, Note_on_c, 1, 67, 0
2, 14400, Note_on_c, 1, 69, 86
2, 14400, Note_on_c, 1, 72, 74
2, 14415, Note_on_c, 1, 72, 0
2, 14415, Note_on_c, 1, 69, 0
2, 14415, Note_on_c, 1, 71, 90
2, 14415, Note_on_c, 1, 74, 89
2, 14430, Note_on_c, 1, 74, 0
2, 14430, Note_on_c, 1, 71, 0
2, 14430, Note_on_c, 1, 69, 90
2, 14430, Note_on_c, 1, 72, 90
2, 14445, Note_on_c, 1, 72, 0
2, 14445, Note_on_c, 1, 69, 0
2, 14445, Note_on_c, 1, 71, 94
2, 14445, Note_on_c, 1, 74, 84
2, 14460, Note_on_c, 1, 74, 0
2, 14460, Note_on_c, 1, 71, 0
2, 14460, Note_on_c, 1, 69, 89
2, 14460, Note_on_c, 1, 72, 82
2, 14475, Note_on_c, 1, 72, 0
2, 14475, Note_on_c, 1, 69, 0
2, 14475, Note_on_c, 1, 71, 99
2, 14475, Note_on_c, 1, 74, 89
2, 14490, Note_on_c, 1, 74, 0
2, 14490, Note_on_c, 1, 71, 0
2, 14490, Note_on_c, 1, 69, 86
2, 14490, Note_on_c, 1, 72, 94
2, 14505, Note_on_c, 1, 72, 0
2, 14505, Note_on_c, 1, 69, 0
2, 14505, Note_on_c, 1, 71, 95
2, 14505, Note_on_c, 1, 74, 84
2, 14520, Note_on_c, 1, 74, 0
2, 14520, Note_on_c, 1, 71, 0
2, 14520, Note_on_c, 1, 69, 85
2, 14520, Note_on_c, 1, 72, 89
2, 14535, Note_on_c, 1, 72, 0
2, 14535, Note_on_c, 1, 69, 0
2, 14535, Note_on_c, 1, 71, 95
2, 14535, Note_on_c, 1, 74, 84
2, 14550, Note_on_c, 1, 74, 0
2, 14550, Note_on_c, 1, 71, 0
2, 14550, Note_on_c, 1, 69, 84
2, 14550, Note_on_c, 1, 72, 89
2, 14565, Note_on_c, 1, 72, 0
2, 14565, Note_on_c, 1, 69, 0
2, 14565, Note_on_c, 1, 71, 99
2, 14565, Note_on_c, 1, 74, 89
2, 14580, Note_on_c, 1, 74, 0
2, 14580, Note_on_c, 1, 71, 0
2, 14580, Note_on_c, 1, 69, 94
2, 14580, Note_on_c, 1, 72, 86
2, 14595, Note_on_c, 1, 72, 0
2, 14595, Note_on_c, 1, 69, 0
2, 14595, Note_on_c, 1, 71, 94
2, 14595, Note_on_c, 1, 74, 89
2, 14610, Note_on_c, 1, 74, 0
2, 14610, Note_on_c, 1, 71, 0
2, 14610, Note_on_c, 1, 72, 86
2, 14610, Note_on_c, 1, 69, 90
2, 14625, Note_on_c, 1, 69, 0
2, 14625, Note_on_c, 1, 72, 0
2, 14625, Note_on_c, 1, 71, 94
2, 14625, Note_on_c, 1, 74, 84
2, 14640, Note_on_c, 1, 74, 0
2, 14640, Note_on_c, 1, 71, 0
2, 14640, Note_on_c, 1, 72, 90
2, 14640, Note_on_c, 1, 69, 90
2, 14655, Note_on_c, 1, 69, 0
2, 14655, Note_on_c, 1, 72, 0
2, 14655, Note_on_c, 1, 71, 99
2, 14655, Note_on_c, 1, 74, 94
2, 14670, Note_on_c, 1, 74, 0
2, 14670, Note_on_c, 1, 71, 0
2, 14670, Note_on_c, 1, 72, 93
2, 14670, Note_on_c, 1, 69, 90
2, 14685, Note_on_c, 1, 69, 0
2, 14685, Note_on_c, 1, 72, 0
2, 14685, Note_on_c, 1, 71, 99
2, 14685, Note_on_c, 1, 74, 89
2, 14700, Note_on_c, 1, 74, 0
2, 14700, Note_on_c, 1, 71, 0
2, 14700, Note_on_c, 1, 72, 90
2, 14700, Note_on_c, 1, 69, 84
2, 14715, Note_on_c, 1, 69, 0
2, 14715, Note_on_c, 1, 72, 0
2, 14715, Note_on_c, 1, 71, 95
2, 14715, Note_on_c, 1, 74, 93
2, 14730, Note_on_c, 1, 74, 0
2, 14730, Note_on_c, 1, 71, 0
2, 14730, Note_on_c, 1, 69, 86
2, 14730, Note_on_c, 1, 72, 98
2, 14745, Note_on_c, 1, 72, 0
2, 14745, Note_on_c, 1, 69, 0
2, 14745, Note_on_c, 1, 71, 99
2, 14745, Note_on_c, 1, 74, 98
2, 14760, Note_on_c, 1, 74, 0
2, 14760, Note_on_c, 1, 71, 0
2, 14760, Note_on_c, 1, 72, 90
2, 14760, Note_on_c, 1, 69, 86
2, 14760, Note_on_c, 1, 69, 112
2, 14775, Note_on_c, 1, 69, 0
2, 14775, Note_on_c, 1, 72, 0
2, 14775, Note_on_c, 1, 71, 98
2, 14775, Note_on_c, 1, 74, 93
2, 14780, Note_on_c, 1, 69, 0
2, 14780, Note_on_c, 1, 68, 119
2, 14790, Note_on_c, 1, 74, 0
2, 14790, Note_on_c, 1, 71, 0
2, 14790, Note_on_c, 1, 69, 84
2, 14790, Note_on_c, 1, 72, 94
2, 14800, Note_on_c, 1, 68, 0
2, 14800, Note_on_c, 1, 67, 105
2, 14805, Note_on_c, 1, 72, 0
2, 14805, Note_on_c, 1, 69, 0
2, 14805, Note_on_c, 1, 71, 90
2, 14805, Note_on_c, 1, 74, 89
2, 14820, Note_on_c, 1, 74, 0
2, 14820, Note_on_c, 1, 71, 0
2, 14820, Note_on_c, 1, 67, 0
2, 14820, Note_on_c, 1, 72, 95
2, 14820, Note_on_c, 1, 69, 89
2, 14820, Note_on_c, 1, 66, 119
2, 14835, Note_on_c, 1, 69, 0
2, 14835, Note_on_c, 1, 72, 0
2, 14835, Note_on_c, 1, 71, 98
2, 14835, Note_on_c, 1, 74, 84
2, 14840, Note_on_c, 1, 66, 0
2, 14840, Note_on_c, 1, 65, 115
2, 14850, Note_on_c, 1, 74, 0
2, 14850, Note_on_c, 1, 71, 0
2, 14850, Note_on_c, 1, 69, 82
2, 14850, Note_on_c, 1, 72, 95
2, 14860, Note_on_c, 1, 65, 0
2, 14860, Note_on_c, 1, 64, 115
2, 14865, Note_on_c, 1, 72, 0
2, 14865, Note_on_c, 1, 69, 0
2, 14865, Note_on_c, 1, 71, 94
2, 14865, Note_on_c, 1, 74, 93
2, 14880, Note_on_c, 1, 74, 0
2, 14880, Note_on_c, 1, 71, 0
2, 14880, Note_on_c, 1, 64, 0
2, 14880, Note_on_c, 1, 69, 84
2, 14880, Note_on_c, 1, 72, 85
2, 14880, Note_on_c, 1, 63, 105
2, 14895, Note_on_c, 1, 72, 0
2, 14895, Note_on_c, 1, 69, 0
2, 14895, Note_on_c, 1, 71, 95
2, 14895, Note_on_c, 1, 74, 89
2, 14910, Note_on_c, 1, 74, 0
2, 14910, Note_on_c, 1, 71, 0
2, 14910, Note_on_c, 1, 69, 82
2, 14910, Note_on_c, 1, 72, 90
2, 14925, Note_on_c, 1, 72, 0
2, 14925, Note_on_c, 1, 69, 0
2, 14925, Note_on_c, 1, 71, 94
2, 14925, Note_on_c, 1, 74, 85
2, 14940, Note_on_c, 1, 74, 0
2, 14940, Note_on_c, 1, 71, 0
2, 14940, Note_on_c, 1, 69, 85
2, 14940, Note_on_c, 1, 72, 90
2, 14955, Note_on_c, 1, 72, 0
2, 14955, Note_on_c, 1, 69, 0
2, 14955, Note_on_c, 1, 71, 95
2, 14955, Note_on_c, 1, 74, 89
2, 14970, Note_on_c, 1, 74, 0
2, 14970, Note_on_c, 1, 71, 0
2, 14970, Note_on_c, 1, 69, 85
2, 14970, Note_on_c, 1, 72, 89
2, 14985, Note_on_c, 1, 72, 0
2, 14985, Note_on_c, 1, 69, 0
2, 14985, Note_on_c, 1, 71, 94
2, 14985, Note_on_c, 1, 74, 89
2, 15000, Note_on_c, 1, 74, 0
2, 15000, Note_on_c, 1, 71, 0
2, 15000, Note_on_c, 1, 63, 0
2, 15000, Note_on_c, 1, 69, 89
2, 15000, Note_on_c, 1, 72, 89
2, 15000, Note_on_c, 1, 80, 123
2, 15015, Note_on_c, 1, 72, 0
2, 15015, Note_on_c, 1, 69, 0
2, 15015, Note_on_c, 1, 71, 95
2, 15015, Note_on_c, 1, 74, 85
2, 15030, Note_on_c, 1, 74, 0
2, 15030, Note_on_c, 1, 71, 0
2, 15030, Note_on_c, 1, 72, 84
2, 15030, Note_on_c, 1, 69, 86
2, 15045, Note_on_c, 1, 69, 0
2, 15045, Note_on_c, 1, 72, 0
2, 15045, Note_on_c, 1, 71, 94
2, 15045, Note_on_c, 1, 74, 80
2, 15060, Note_on_c, 1, 74, 0
2, 15060, Note_on_c, 1, 71, 0
2, 15060, Note_on_c, 1, 69, 85
2, 15060, Note_on_c, 1, 72, 85
2, 15075, Note_on_c, 1, 72, 0
2, 15075, Note_on_c, 1, 69, 0
2, 15075, Note_on_c, 1, 71, 95
2, 15075, Note_on_c, 1, 74, 81
2, 15090, Note_on_c, 1, 74, 0
2, 15090, Note_on_c, 1, 71, 0
2, 15090, Note_on_c, 1, 69, 89
2, 15090, Note_on_c, 1, 72, 86
2, 15105, Note_on_c, 1, 72, 0
2, 15105, Note_on_c, 1, 69, 0
2, 15105, Note_on_c, 1, 71, 94
2, 15105, Note_on_c, 1, 74, 85
2, 15120, Note_on_c, 1, 74, 0
2, 15120, Note_on_c, 1, 71, 0
2, 15120, Note_on_c, 1, 80, 0
2, 15120, Note_on_c, 1, 69, 86
2, 15120, Note_on_c, 1, 72, 84
2, 15120, Note_on_c, 1, 81, 112
2, 15135, Note_on_c, 1, 72, 0
2, 15135, Note_on_c, 1, 69, 0
2, 15135, Note_on_c, 1, 71, 93
2, 15135, Note_on_c, 1, 74, 84
2, 15150, Note_on_c, 1, 74, 0
2, 15150, Note_on_c, 1, 71, 0
2, 15150, Note_on_c, 1, 69, 89
2, 15150, Note_on_c, 1, 72, 90
2, 15165, Note_on_c, 1, 72, 0
2, 15165, Note_on_c, 1, 69, 0
2, 15165, Note_on_c, 1, 71, 98
2, 15165, Note_on_c, 1, 74, 90
2, 15180, Note_on_c, 1, 74, 0
2, 15180, Note_on_c, 1, 71, 0
2, 15180, Note_on_c, 1, 69, 94
2, 15180, Note_on_c, 1, 72, 94
2, 15195, Note_on_c, 1, 72, 0
2, 15195, Note_on_c, 1, 69, 0
2, 15195, Note_on_c, 1, 71, 93
2, 15195, Note_on_c, 1, 74, 80
2, 15210, Note_on_c, 1, 74, 0
2, 15210, Note_on_c, 1, 71, 0
2, 15210, Note_on_c, 1, 72, 90
2, 15210, Note_on_c, 1, 69, 93
2, 15225, Note_on_c, 1, 69, 0
2, 15225, Note_on_c, 1, 72, 0
2, 15225, Note_on_c, 1, 71, 95
2, 15225, Note_on_c, 1, 74, 89
2, 15240, Note_on_c, 1, 74, 0
2, 15240, Note_on_c, 1, 71, 0
2, 15240, Note_on_c, 1, 81, 0
2, 15240, Note_on_c, 1, 72, 94
2, 15240, Note_on_c, 1, 69, 95
2, 15240, Note_on_c, 1, 69, 110
2, 15255, Note_on_c, 1, 69, 0
2, 15255, Note_on_c, 1, 72, 0
2, 15255, Note_on_c, 1, 71, 99
2, 15255, Note_on_c, 1, 74, 90
2, 15260, Note_on_c, 1, 69, 0
2, 15260, Note_on_c, 1, 68, 105
2, 15270, Note_on_c, 1, 74, 0
2, 15270, Note_on_c, 1, 71, 0
2, 15270, Note_on_c, 1, 69, 90
2, 15270, Note_on_c, 1, 72, 93
2, 15280, Note_on_c, 1, 68, 0
2, 15280, Note_on_c, 1, 67, 95
2, 15285, Note_on_c, 1, 72, 0
2, 15285, Note_on_c, 1, 69, 0
2, 15285, Note_on_c, 1, 71, 101
2, 15285, Note_on_c, 1, 74, 90
2, 15300, Note_on_c, 1, 74, 0
2, 15300, Note_on_c, 1, 71, 0
2, 15300, Note_on_c, 1, 67, 0
2, 15300, Note_on_c, 1, 72, 89
2, 15300, Note_on_c, 1, 69, 89
2, 15300, Note_on_c, 1, 66, 115
2, 15315, Note_on_c, 1, 69, 0
2, 15315, Note_on_c, 1, 72, 0
2, 15315, Note_on_c, 1, 71, 98
2, 15315, Note_on_c, 1, 74, 98
2, 15320, Note_on_c, 1, 66, 0
2, 15320, Note_on_c, 1, 65, 105
2, 15330, Note_on_c, 1, 74, 0
2, 15330, Note_on_c, 1, 71, 0
2, 15330, Note_on_c, 1, 72, 93
2, 15330, Note_on_c, 1, 69, 98
2, 15340, Note_on_c, 1, 65, 0
2, 15340, Note_on_c, 1, 64, 105
2, 15345, Note_on_c, 1, 69, 0
2, 15345, Note_on_c, 1, 72, 0
2, 15345, Note_on_c, 1, 71, 95
2, 15345, Note_on_c, 1, 74, 95
2, 15360, Note_on_c, 1, 74, 0
2, 15360, Note_on_c, 1, 71, 0
2, 15360, Note_on_c, 1, 64, 0
2, 15360, Note_on_c, 1, 69, 90
2, 15360, Note_on_c, 1, 72, 90
2, 15360, Note_on_c, 1, 63, 112
2, 15375, Note_on_c, 1, 72, 0
2, 15375, Note_on_c, 1, 69, 0
2, 15375, Note_on_c, 1, 71, 101
2, 15375, Note_on_c, 1, 74, 98
2, 15390, Note_on_c, 1, 74, 0
2, 15390, Note_on_c, 1, 71, 0
2, 15390, Note_on_c, 1, 69, 86
2, 15390, Note_on_c, 1, 72, 94
2, 15405, Note_on_c, 1, 72, 0
2, 15405, Note_on_c, 1, 69, 0
2, 15405, Note_on_c, 1, 71, 101
2, 15405, Note_on_c, 1, 74, 95
2, 15420, Note_on_c, 1, 74, 0
2, 15420, Note_on_c, 1, 71, 0
2, 15420, Note_on_c, 1, 69, 94
2, 15420, Note_on_c, 1, 72, 98
2, 15435, Note_on_c, 1, 72, 0
2, 15435, Note_on_c, 1, 69, 0
2, 15435, Note_on_c, 1, 71, 104
2, 15435, Note_on_c, 1, 74, 98
2, 15450, Note_on_c, 1, 74, 0
2, 15450, Note_on_c, 1, 71, 0
2, 15450, Note_on_c, 1, 69, 95
2, 15450, Note_on_c, 1, 72, 94
2, 15465, Note_on_c, 1, 72, 0
2, 15465, Note_on_c, 1, 69, 0
2, 15465, Note_on_c, 1, 71, 98
2, 15465, Note_on_c, 1, 74, 94
2, 15480, Note_on_c, 1, 74, 0
2, 15480, Note_on_c, 1, 71, 0
2, 15480, Note_on_c, 1, 63, 0
2, 15480, Note_on_c, 1, 69, 89
2, 15480, Note_on_c, 1, 72, 93
2, 15480, Note_on_c, 1, 80, 119
2, 15495, Note_on_c, 1, 72, 0
2, 15495, Note_on_c, 1, 69, 0
2, 15495, Note_on_c, 1, 71, 95
2, 15495, Note_on_c, 1, 74, 85
2, 15510, Note_on_c, 1, 74, 0
2, 15510, Note_on_c, 1, 71, 0
2, 15510, Note_on_c, 1, 69, 89
2, 15510, Note_on_c, 1, 72, 94
2, 15525, Note_on_c, 1, 72, 0
2, 15525, Note_on_c, 1, 69, 0
2, 15525, Note_on_c, 1, 71, 99
2, 15525, Note_on_c, 1, 74, 93
2, 15540, Note_on_c, 1, 74, 0
2, 15540, Note_on_c, 1, 71, 0
2, 15540, Note_on_c, 1, 69, 99
2, 15540, Note_on_c, 1, 72, 99
2, 15555, Note_on_c, 1, 72, 0
2, 15555, Note_on_c, 1, 69, 0
2, 15555, Note_on_c, 1, 71, 99
2, 15555, Note_on_c, 1, 74, 94
2, 15570, Note_on_c, 1, 74, 0
2, 15570, Note_on_c, 1, 71, 0
2, 15570, Note_on_c, 1, 69, 94
2, 15570, Note_on_c, 1, 72, 90
2, 15585, Note_on_c, 1, 72, 0
2, 15585, Note_on_c, 1, 69, 0
2, 15585, Note_on_c, 1, 71, 104
2, 15585, Note_on_c, 1, 74, 94
2, 15600, Note_on_c, 1, 74, 0
2, 15600, Note_on_c, 1, 71, 0
2, 15600, Note_on_c, 1, 80, 0
2, 15600, Note_on_c, 1, 69, 89
2, 15600, Note_on_c, 1, 72, 99
2, 15600, Note_on_c, 1, 81, 119
2, 15615, Note_on_c, 1, 72, 0
2, 15615, Note_on_c, 1, 69, 0
2, 15615, Note_on_c, 1, 71, 99
2, 15615, Note_on_c, 1, 74, 99
2, 15630, Note_on_c, 1, 74, 0
2, 15630, Note_on_c, 1, 71, 0
2, 15630, Note_on_c, 1, 69, 93
2, 15630, Note_on_c, 1, 72, 98
2, 15645, Note_on_c, 1, 72, 0
2, 15645, Note_on_c, 1, 69, 0
2, 15645, Note_on_c, 1, 71, 99
2, 15645, Note_on_c, 1, 74, 99
2, 15660, Note_on_c, 1, 74, 0
2, 15660, Note_on_c, 1, 71, 0
2, 15660, Note_on_c, 1, 69, 89
2, 15660, Note_on_c, 1, 72, 93
2, 15675, Note_on_c, 1, 72, 0
2, 15675, Note_on_c, 1, 69, 0
2, 15675, Note_on_c, 1, 71, 98
2, 15675, Note_on_c, 1, 74, 93
2, 15690, Note_on_c, 1, 74, 0
2, 15690, Note_on_c, 1, 71, 0
2, 15690, Note_on_c, 1, 69, 93
2, 15690, Note_on_c, 1, 72, 99
2, 15705, Note_on_c, 1, 72, 0
2, 15705, Note_on_c, 1, 69, 0
2, 15705, Note_on_c, 1, 71, 95
2, 15705, Note_on_c, 1, 74, 95
2, 15720, Note_on_c, 1, 74, 0
2, 15720, Note_on_c, 1, 71, 0
2, 15720, Note_on_c, 1, 81, 0
2, 15720, Note_on_c, 1, 69, 93
2, 15720, Note_on_c, 1, 72, 95
2, 15720, Note_on_c, 1, 69, 112
2, 15735, Note_on_c, 1, 72, 0
2, 15735, Note_on_c, 1, 69, 0
2, 15735, Note_on_c, 1, 71, 94
2, 15735, Note_on_c, 1, 74, 93
2, 15740, Note_on_c, 1, 69, 0
2, 15740, Note_on_c, 1, 68, 119
2, 15750, Note_on_c, 1, 74, 0
2, 15750, Note_on_c, 1, 71, 0
2, 15750, Note_on_c, 1, 69, 84
2, 15750, Note_on_c, 1, 72, 94
2, 15760, Note_on_c, 1, 68, 0
2, 15760, Note_on_c, 1, 67, 104
2, 15765, Note_on_c, 1, 72, 0
2, 15765, Note_on_c, 1, 69, 0
2, 15765, Note_on_c, 1, 71, 95
2, 15765, Note_on_c, 1, 74, 93
2, 15780, Note_on_c, 1, 74, 0
2, 15780, Note_on_c, 1, 71, 0
2, 15780, Note_on_c, 1, 67, 0
2, 15780, Note_on_c, 1, 69, 94
2, 15780, Note_on_c, 1, 72, 93
2, 15780, Note_on_c, 1, 66, 112
2, 15795, Note_on_c, 1, 72, 0
2, 15795, Note_on_c, 1, 69, 0
2, 15795, Note_on_c, 1, 71, 95
2, 15795, Note_on_c, 1, 74, 94
2, 15800, Note_on_c, 1, 66, 0
2, 15800, Note_on_c, 1, 65, 115
2, 15810, Note_on_c, 1, 74, 0
2, 15810, Note_on_c, 1, 71, 0
2, 15810, Note_on_c, 1, 69, 86
2, 15810, Note_on_c, 1, 72, 99
2, 15820, Note_on_c, 1, 65, 0
2, 15820, Note_on_c, 1, 64, 112
2, 15825, Note_on_c, 1, 72, 0
2, 15825, Note_on_c, 1, 69, 0
2, 15825, Note_on_c, 1, 74, 90
2, 15825, Note_on_c, 1, 71, 104
2, 15840, Note_on_c, 1, 71, 0
2, 15840, Note_on_c, 1, 74, 0
2, 15840, Note_on_c, 1, 64, 0
2, 15840, Note_on_c, 1, 69, 89
2, 15840, Note_on_c, 1, 72, 94
2, 15840, Note_on_c, 1, 63, 117
2, 15855, Note_on_c, 1, 72, 0
2, 15855, Note_on_c, 1, 69, 0
2, 15855, Note_on_c, 1, 71, 98
2, 15855, Note_on_c, 1, 74, 89
2, 15860, Note_on_c, 1, 63, 0
2, 15860, Note_on_c, 1, 64, 99
2, 15870, Note_on_c, 1, 74, 0
2, 15870, Note_on_c, 1, 71, 0
2, 15870, Note_on_c, 1, 69, 89
2, 15870, Note_on_c, 1, 72, 89
2, 15880, Note_on_c, 1, 64, 0
2, 15880, Note_on_c, 1, 65, 112
2, 15885, Note_on_c, 1, 72, 0
2, 15885, Note_on_c, 1, 69, 0
2, 15885, Note_on_c, 1, 71, 98
2, 15885, Note_on_c, 1, 74, 98
2, 15900, Note_on_c, 1, 74, 0
2, 15900, Note_on_c, 1, 71, 0
2, 15900, Note_on_c, 1, 65, 0
2, 15900, Note_on_c, 1, 69, 93
2, 15900, Note_on_c, 1, 72, 99
2, 15900, Note_on_c, 1, 66, 115
2, 15915, Note_on_c, 1, 72, 0
2, 15915, Note_on_c, 1, 69, 0
2, 15915, Note_on_c, 1, 71, 94
2, 15915, Note_on_c, 1, 74, 95
2, 15920, Note_on_c, 1, 66, 0
2, 15920, Note_on_c, 1, 67, 99
2, 15930, Note_on_c, 1, 74, 0
2, 15930, Note_on_c, 1, 71, 0
2, 15930, Note_on_c, 1, 69, 94
2, 15930, Note_on_c, 1, 72, 95
2, 15940, Note_on_c, 1, 67, 0
2, 15940, Note_on_c, 1, 68, 112
2, 15945, Note_on_c, 1, 72, 0
2, 15945, Note_on_c, 1, 69, 0
2, 15945, Note_on_c, 1, 71, 95
2, 15945, Note_on_c, 1, 74, 94
2, 15960, Note_on_c, 1, 74, 0
2, 15960, Note_on_c, 1, 71, 0
2, 15960, Note_on_c, 1, 68, 0
2, 15960, Note_on_c, 1, 69, 93
2, 15960, Note_on_c, 1, 72, 94
2, 15960, Note_on_c, 1, 69, 110
2, 15975, Note_on_c, 1, 72, 0
2, 15975, Note_on_c, 1, 69, 0
2, 15975, Note_on_c, 1, 71, 95
2, 15975, Note_on_c, 1, 74, 93
2, 15980, Note_on_c, 1, 69, 0
2, 15980, Note_on_c, 1, 68, 112
2, 15990, Note_on_c, 1, 74, 0
2, 15990, Note_on_c, 1, 71, 0
2, 15990, Note_on_c, 1, 69, 86
2, 15990, Note_on_c, 1, 72, 95
2, 16000, Note_on_c, 1, 68, 0
2, 16000, Note_on_c, 1, 67, 101
2, 16005, Note_on_c, 1, 72, 0
2, 16005, Note_on_c, 1, 69, 0
2, 16005, Note_on_c, 1, 71, 99
2, 16005, Note_on_c, 1, 74, 95
2, 16020, Note_on_c, 1, 74, 0
2, 16020, Note_on_c, 1, 71, 0
2, 16020, Note_on_c, 1, 67, 0
2, 16020, Note_on_c, 1, 69, 93
2, 16020, Note_on_c, 1, 72, 98
2, 16020, Note_on_c, 1, 66, 112
2, 16035, Note_on_c, 1, 72, 0
2, 16035, Note_on_c, 1, 69, 0
2, 16035, Note_on_c, 1, 71, 99
2, 16035, Note_on_c, 1, 74, 98
2, 16040, Note_on_c, 1, 66, 0
2, 16040, Note_on_c, 1, 65, 110
2, 16050, Note_on_c, 1, 74, 0
2, 16050, Note_on_c, 1, 71, 0
2, 16050, Note_on_c, 1, 69, 86
2, 16050, Note_on_c, 1, 72, 90
2, 16060, Note_on_c, 1, 65, 0
2, 16060, Note_on_c, 1, 64, 105
2, 16065, Note_on_c, 1, 72, 0
2, 16065, Note_on_c, 1, 69, 0
2, 16065, Note_on_c, 1, 74, 89
2, 16065, Note_on_c, 1, 71, 99
2, 16080, Note_on_c, 1, 71, 0
2, 16080, Note_on_c, 1, 74, 0
2, 16080, Note_on_c, 1, 64, 0
2, 16080, Note_on_c, 1, 69, 94
2, 16080, Note_on_c, 1, 72, 94
2, 16080, Note_on_c, 1, 63, 112
2, 16095, Note_on_c, 1, 72, 0
2, 16095, Note_on_c, 1, 69, 0
2, 16095, Note_on_c, 1, 71, 101
2, 16095, Note_on_c, 1, 74, 89
2, 16100, Note_on_c, 1, 63, 0
2, 16100, Note_on_c, 1, 64, 110
2, 16110, Note_on_c, 1, 74, 0
2, 16110, Note_on_c, 1, 71, 0
2, 16110, Note_on_c, 1, 69, 85
2, 16110, Note_on_c, 1, 72, 89
2, 16120, Note_on_c, 1, 64, 0
2, 16120, Note_on_c, 1, 65, 112
2, 16125, Note_on_c, 1, 72, 0
2, 16125, Note_on_c, 1, 69, 0
2, 16125, Note_on_c, 1, 71, 99
2, 16125, Note_on_c, 1, 74, 94
2, 16140, Note_on_c, 1, 74, 0
2, 16140, Note_on_c, 1, 71, 0
2, 16140, Note_on_c, 1, 65, 0
2, 16140, Note_on_c, 1, 69, 95
2, 16140, Note_on_c, 1, 72, 93
2, 16140, Note_on_c, 1, 66, 112
2, 16155, Note_on_c, 1, 72, 0
2, 16155, Note_on_c, 1, 69, 0
2, 16155, Note_on_c, 1, 71, 98
2, 16155, Note_on_c, 1, 74, 94
2, 16160, Note_on_c, 1, 66, 0
2, 16160, Note_on_c, 1, 67, 85
2, 16170, Note_on_c, 1, 74, 0
2, 16170, Note_on_c, 1, 71, 0
2, 16170, Note_on_c, 1, 69, 90
2, 16170, Note_on_c, 1, 72, 98
2, 16180, Note_on_c, 1, 67, 0
2, 16180, Note_on_c, 1, 68, 112
2, 16185, Note_on_c, 1, 72, 0
2, 16185, Note_on_c, 1, 69, 0
2, 16185, Note_on_c, 1, 71, 95
2, 16185, Note_on_c, 1, 74, 93
2, 16200, Note_on_c, 1, 74, 0
2, 16200, Note_on_c, 1, 71, 0
2, 16200, Note_on_c, 1, 68, 0
2, 16200, Note_on_c, 1, 69, 89
2, 16200, Note_on_c, 1, 72, 94
2, 16200, Note_on_c, 1, 69, 101
2, 16215, Note_on_c, 1, 69, 0
2, 16215, Note_on_c, 1, 72, 0
2, 16215, Note_on_c, 1, 69, 0
2, 16215, Note_on_c, 1, 71, 101
2, 16215, Note_on_c, 1, 74, 94
2, 16215, Note_on_c, 1, 67, 93
2, 16230, Note_on_c, 1, 67, 0
2, 16230, Note_on_c, 1, 74, 0
2, 16230, Note_on_c, 1, 71, 0
2, 16230, Note_on_c, 1, 69, 94
2, 16230, Note_on_c, 1, 72, 95
2, 16230, Note_on_c, 1, 69, 104
2, 16245, Note_on_c, 1, 69, 0
2, 16245, Note_on_c, 1, 72, 0
2, 16245, Note_on_c, 1, 69, 0
2, 16245, Note_on_c, 1, 74, 90
2, 16245, Note_on_c, 1, 71, 99
2, 16245, Note_on_c, 1, 67, 89
2, 16260, Note_on_c, 1, 67, 0
2, 16260, Note_on_c, 1, 71, 0
2, 16260, Note_on_c, 1, 74, 0
2, 16260, Note_on_c, 1, 72, 94
2, 16260, Note_on_c, 1, 69, 94
2, 16260, Note_on_c, 1, 69, 105
2, 16275, Note_on_c, 1, 69, 0
2, 16275, Note_on_c, 1, 69, 0
2, 16275, Note_on_c, 1, 72, 0
2, 16275, Note_on_c, 1, 71, 95
2, 16275, Note_on_c, 1, 74, 85
2, 16275, Note_on_c, 1, 67, 94
2, 16290, Note_on_c, 1, 67, 0
2, 16290, Note_on_c, 1, 74, 0
2, 16290, Note_on_c, 1, 71, 0
2, 16290, Note_on_c, 1, 69, 90
2, 16290, Note_on_c, 1, 72, 90
2, 16290, Note_on_c, 1, 69, 107
2, 16305, Note_on_c, 1, 69, 0
2, 16305, Note_on_c, 1, 72, 0
2, 16305, Note_on_c, 1, 69, 0
2, 16305, Note_on_c, 1, 71, 93
2, 16305, Note_on_c, 1, 74, 94
2, 16305, Note_on_c, 1, 67, 98
2, 16320, Note_on_c, 1, 67, 0
2, 16320, Note_on_c, 1, 74, 0
2, 16320, Note_on_c, 1, 71, 0
2, 16320, Note_on_c, 1, 72, 89
2, 16320, Note_on_c, 1, 69, 90
2, 16335, Note_on_c, 1, 69, 0
2, 16335, Note_on_c, 1, 72, 0
2, 16335, Note_on_c, 1, 71, 99
2, 16335, Note_on_c, 1, 74, 105
2, 16350, Note_on_c, 1, 74, 0
2, 16350, Note_on_c, 1, 71, 0
2, 16350, Note_on_c, 1, 69, 94
2, 16350, Note_on_c, 1, 72, 94
2, 16365, Note_on_c, 1, 72, 0
2, 16365, Note_on_c, 1, 69, 0
2, 16365, Note_on_c, 1, 71, 95
2, 16365, Note_on_c, 1, 74, 94
2, 16380, Note_on_c, 1, 74, 0
2, 16380, Note_on_c, 1, 71, 0
2, 16380, Note_on_c, 1, 72, 86
2, 16380, Note_on_c, 1, 69, 94
2, 16395, Note_on_c, 1, 69, 0
2, 16395, Note_on_c, 1, 72, 0
2, 16395, Note_on_c, 1, 74, 89
2, 16395, Note_on_c, 1, 71, 94
2, 16410, Note_on_c, 1, 71, 0
2, 16410, Note_on_c, 1, 74, 0
2, 16410, Note_on_c, 1, 69, 86
2, 16410, Note_on_c, 1, 72, 94
2, 16425, Note_on_c, 1, 72, 0
2, 16425, Note_on_c, 1, 69, 0
2, 16425, Note_on_c, 1, 74, 93
2, 16425, Note_on_c, 1, 71, 89
2, 16440, Note_on_c, 1, 71, 0
2, 16440, Note_on_c, 1, 74, 0
2, 16440, Note_on_c, 1, 72, 95
2, 16440, Note_on_c, 1, 69, 84
2, 16455, Note_on_c, 1, 69, 0
2, 16455, Note_on_c, 1, 72, 0
2, 16455, Note_on_c, 1, 74, 90
2, 16455, Note_on_c, 1, 71, 94
2, 16470, Note_on_c, 1, 71, 0
2, 16470, Note_on_c, 1, 74, 0
2, 16470, Note_on_c, 1, 72, 89
2, 16470, Note_on_c, 1, 69, 82
2, 16485, Note_on_c, 1, 69, 0
2, 16485, Note_on_c, 1, 72, 0
2, 16485, Note_on_c, 1, 71, 89
2, 16485, Note_on_c, 1, 74, 89
2, 16500, Note_on_c, 1, 74, 0
2, 16500, Note_on_c, 1, 71, 0
2, 16500, Note_on_c, 1, 72, 84
2, 16500, Note_on_c, 1, 69, 82
2, 16515, Note_on_c, 1, 69, 0
2, 16515, Note_on_c, 1, 72, 0
2, 16515, Note_on_c, 1, 71, 82
2, 16515, Note_on_c, 1, 74, 86
2, 16530, Note_on_c, 1, 74, 0
2, 16530, Note_on_c, 1, 71, 0
2, 16530, Note_on_c, 1, 72, 85
2, 16530, Note_on_c, 1, 69, 80
2, 16545, Note_on_c, 1, 69, 0
2, 16545, Note_on_c, 1, 72, 0
2, 16545, Note_on_c, 1, 71, 82
2, 16545, Note_on_c, 1, 74, 85
2, 16560, Note_on_c, 1, 74, 0
2, 16560, Note_on_c, 1, 71, 0
2, 16560, Note_on_c, 1, 72, 80
2, 16560, Note_on_c, 1, 69, 78
2, 16575, Note_on_c, 1, 69, 0
2, 16575, Note_on_c, 1, 72, 0
2, 16575, Note_on_c, 1, 71, 80
2, 16575, Note_on_c, 1, 74, 82
2, 16590, Note_on_c, 1, 74, 0
2, 16590, Note_on_c, 1, 71, 0
2, 16590, Note_on_c, 1, 72, 73
2, 16590, Note_on_c, 1, 69, 80
2, 16605, Note_on_c, 1, 69, 0
2, 16605, Note_on_c, 1, 72, 0
2, 16605, Note_on_c, 1, 71, 78
2, 16605, Note_on_c, 1, 74, 72
2, 16620, Note_on_c, 1, 74, 0
2, 16620, Note_on_c, 1, 71, 0
2, 16620, Note_on_c, 1, 72, 76
2, 16620, Note_on_c, 1, 69, 78
2, 16635, Note_on_c, 1, 69, 0
2, 16635, Note_on_c, 1, 72, 0
2, 16635, Note_on_c, 1, 74, 73
2, 16635, Note_on_c, 1, 71, 66
2, 16650, Note_on_c, 1, 71, 0
2, 16650, Note_on_c, 1, 74, 0
2, 16650, Note_on_c, 1, 72, 72
2, 16650, Note_on_c, 1, 69, 77
2, 16665, Note_on_c, 1, 69, 0
2, 16665, Note_on_c, 1, 72, 0
2, 16665, Note_on_c, 1, 74, 77
2, 16665, Note_on_c, 1, 71, 81
2, 16680, Note_on_c, 1, 71, 0
2, 16680, Note_on_c, 1, 74, 0
2, 16680, Note_on_c, 1, 72, 62
2, 16680, Note_on_c, 1, 69, 73
2, 16695, Note_on_c, 1, 69, 0
2, 16695, Note_on_c, 1, 72, 0
2, 16695, Note_on_c, 1, 71, 62
2, 16695, Note_on_c, 1, 74, 72
2, 16710, Note_on_c, 1, 74, 0
2, 16710, Note_on_c, 1, 71, 0
2, 16710, Note_on_c, 1, 72, 72
2, 16710, Note_on_c, 1, 69, 74
2, 16725, Note_on_c, 1, 69, 0
2, 16725, Note_on_c, 1, 72, 0
2, 16725, Note_on_c, 1, 71, 72
2, 16725, Note_on_c, 1, 74, 65
2, 16740, Note_on_c, 1, 74, 0
2, 16740, Note_on_c, 1, 71, 0
2, 16740, Note_on_c, 1, 72, 65
2, 16740, Note_on_c, 1, 69, 76
2, 16755, Note_on_c, 1, 69, 0
2, 16755, Note_on_c, 1, 72, 0
2, 16755, Note_on_c, 1, 71, 73
2, 16755, Note_on_c, 1, 74, 73
2, 16770, Note_on_c, 1, 74, 0
2, 16770, Note_on_c, 1, 71, 0
2, 16770, Note_on_c, 1, 72, 64
2, 16770, Note_on_c, 1, 69, 67
2, 16785, Note_on_c, 1, 69, 0
2, 16785, Note_on_c, 1, 72, 0
2, 16785, Note_on_c, 1, 71, 73
2, 16785, Note_on_c, 1, 74, 64
2, 16800, Note_on_c, 1, 74, 0
2, 16800, Note_on_c, 1, 71, 0
2, 16800, Note_on_c, 1, 72, 71
2, 16800, Note_on_c, 1, 69, 72
2, 16800, Note_on_c, 1, 61, 76
2, 16800, Note_on_c, 1, 69, 73
2, 16815, Note_on_c, 1, 69, 0
2, 16815, Note_on_c, 1, 72, 0
2, 16815, Note_on_c, 1, 71, 66
2, 16815, Note_on_c, 1, 74, 67
2, 16830, Note_on_c, 1, 74, 0
2, 16830, Note_on_c, 1, 71, 0
2, 16830, Note_on_c, 1, 72, 64
2, 16830, Note_on_c, 1, 69, 73
2, 16845, Note_on_c, 1, 72, 0
2, 16845, Note_on_c, 1, 69, 0
2, 16845, Note_on_c, 1, 74, 65
2, 16845, Note_on_c, 1, 71, 72
2, 16860, Note_on_c, 1, 71, 0
2, 16860, Note_on_c, 1, 69, 0
2, 16860, Note_on_c, 1, 61, 0
2, 16860, Note_on_c, 1, 74, 0
2, 16860, Note_on_c, 1, 72, 64
2, 16860, Note_on_c, 1, 69, 71
2, 16875, Note_on_c, 1, 69, 0
2, 16875, Note_on_c, 1, 72, 0
2, 16875, Note_on_c, 1, 71, 74
2, 16875, Note_on_c, 1, 74, 68
2, 16890, Note_on_c, 1, 74, 0
2, 16890, Note_on_c, 1, 71, 0
2, 16890, Note_on_c, 1, 72, 64
2, 16890, Note_on_c, 1, 69, 68
2, 16905, Note_on_c, 1, 69, 0
2, 16905, Note_on_c, 1, 72, 0
2, 16905, Note_on_c, 1, 71, 78
2, 16905, Note_on_c, 1, 74, 71
2, 16920, Note_on_c, 1, 74, 0
2, 16920, Note_on_c, 1, 71, 0
2, 16920, Note_on_c, 1, 72, 70
2, 16920, Note_on_c, 1, 69, 68
2, 16935, Note_on_c, 1, 69, 0
2, 16935, Note_on_c, 1, 72, 0
2, 16935, Note_on_c, 1, 71, 73
2, 16935, Note_on_c, 1, 74, 71
2, 16950, Note_on_c, 1, 74, 0
2, 16950, Note_on_c, 1, 71, 0
2, 16950, Note_on_c, 1, 72, 66
2, 16950, Note_on_c, 1, 69, 73
2, 16965, Note_on_c, 1, 69, 0
2, 16965, Note_on_c, 1, 72, 0
2, 16965, Note_on_c, 1, 74, 62
2, 16965, Note_on_c, 1, 71, 73
2, 16980, Note_on_c, 1, 71, 0
2, 16980, Note_on_c, 1, 74, 0
2, 16980, Note_on_c, 1, 72, 64
2, 16980, Note_on_c, 1, 69, 68
2, 16995, Note_on_c, 1, 69, 0
2, 16995, Note_on_c, 1, 72, 0
2, 16995, Note_on_c, 1, 71, 68
2, 16995, Note_on_c, 1, 74, 64
2, 17010, Note_on_c, 1, 74, 0
2, 17010, Note_on_c, 1, 71, 0
2, 17010, Note_on_c, 1, 69, 68
2, 17010, Note_on_c, 1, 72, 65
2, 17025, Note_on_c, 1, 72, 0
2, 17025, Note_on_c, 1, 69, 0
2, 17025, Note_on_c, 1, 74, 69
2, 17025, Note_on_c, 1, 71, 68
2, 17040, Note_on_c, 1, 71, 0
2, 17040, Note_on_c, 1, 74, 0
2, 17040, Note_on_c, 1, 72, 66
2, 17040, Note_on_c, 1, 69, 68
2, 17055, Note_on_c, 1, 69, 0
2, 17055, Note_on_c, 1, 72, 0
2, 17055, Note_on_c, 1, 74, 74
2, 17055, Note_on_c, 1, 71, 66
2, 17070, Note_on_c, 1, 71, 0
2, 17070, Note_on_c, 1, 74, 0
2, 17070, Note_on_c, 1, 72, 65
2, 17070, Note_on_c, 1, 69, 77
2, 17085, Note_on_c, 1, 69, 0
2, 17085, Note_on_c, 1, 72, 0
2, 17085, Note_on_c, 1, 74, 68
2, 17085, Note_on_c, 1, 71, 73
2, 17100, Note_on_c, 1, 71, 0
2, 17100, Note_on_c, 1, 74, 0
2, 17100, Note_on_c, 1, 72, 64
2, 17100, Note_on_c, 1, 69, 68
2, 17115, Note_on_c, 1, 69, 0
2, 17115, Note_on_c, 1, 72, 0
2, 17115, Note_on_c, 1, 71, 66
2, 17115, Note_on_c, 1, 74, 53
2, 17130, Note_on_c, 1, 74, 0
2, 17130, Note_on_c, 1, 71, 0
2, 17130, Note_on_c, 1, 72, 64
2, 17130, Note_on_c, 1, 69, 55
2, 17145, Note_on_c, 1, 69, 0
2, 17145, Note_on_c, 1, 72, 0
2, 17145, Note_on_c, 1, 71, 64
2, 17145, Note_on_c, 1, 74, 53
2, 17160, Note_on_c, 1, 74, 0
2, 17160, Note_on_c, 1, 71, 0
2, 17160, Note_on_c, 1, 72, 64
2, 17160, Note_on_c, 1, 69, 71
2, 17175, Note_on_c, 1, 69, 0
2, 17175, Note_on_c, 1, 72, 0
2, 17175, Note_on_c, 1, 74, 76
2, 17175, Note_on_c, 1, 71, 73
2, 17190, Note_on_c, 1, 71, 0
2, 17190, Note_on_c, 1, 74, 0
2, 17190, Note_on_c, 1, 72, 65
2, 17190, Note_on_c, 1, 69, 66
2, 17205, Note_on_c, 1, 69, 0
2, 17205, Note_on_c, 1, 72, 0
2, 17205, Note_on_c, 1, 74, 52
2, 17205, Note_on_c, 1, 71, 57
2, 17220, Note_on_c, 1, 71, 0
2, 17220, Note_on_c, 1, 74, 0
2, 17220, Note_on_c, 1, 72, 66
2, 17220, Note_on_c, 1, 69, 72
2, 17235, Note_on_c, 1, 69, 0
2, 17235, Note_on_c, 1, 72, 0
2, 17235, Note_on_c, 1, 74, 53
2, 17235, Note_on_c, 1, 71, 70
2, 17250, Note_on_c, 1, 71, 0
2, 17250, Note_on_c, 1, 74, 0
2, 17250, Note_on_c, 1, 72, 46
2, 17250, Note_on_c, 1, 69, 60
2, 17265, Note_on_c, 1, 69, 0
2, 17265, Note_on_c, 1, 72, 0
2, 17265, Note_on_c, 1, 74, 53
2, 17265, Note_on_c, 1, 71, 63
2, 17280, Note_on_c, 1, 71, 0
2, 17280, Note_on_c, 1, 74, 0
2, 17280, Note_on_c, 1, 71, 65
2, 17317, Note_on_c, 1, 71, 0
2, 17317, Note_on_c, 1, 74, 64
2, 17354, Note_on_c, 1, 74, 0
2, 17354, Note_on_c, 1, 72, 64
2, 17391, Note_on_c, 1, 72, 0
2, 17391, Note_on_c, 1, 71, 45
2, 17428, Note_on_c, 1, 71, 0
2, 17428, Note_on_c, 1, 69, 52
2, 17465, Note_on_c, 1, 69, 0
2, 17465, Note_on_c, 1, 67, 53
2, 17502, Note_on_c, 1, 67, 0
2, 17502, Note_on_c, 1, 66, 44
2, 17539, Note_on_c, 1, 66, 0
2, 17539, Note_on_c, 1, 69, 64
2, 17576, Note_on_c, 1, 69, 0
2, 17576, Note_on_c, 1, 67, 43
2, 17613, Note_on_c, 1, 67, 0
2, 17613, Note_on_c, 1, 71, 29
2, 17650, Note_on_c, 1, 71, 0
2, 17650, Note_on_c, 1, 69, 50
2, 17687, Note_on_c, 1, 69, 0
2, 17687, Note_on_c, 1, 72, 47
2, 17724, Note_on_c, 1, 72, 0
2, 17724, Note_on_c, 1, 71, 52
2, 17760, Note_on_c, 1, 71, 0
2, 17760, Note_on_c, 1, 74, 61
2, 17800, Note_on_c, 1, 74, 0
2, 17800, Note_on_c, 1, 72, 50
2, 17840, Note_on_c, 1, 72, 0
2, 17840, Note_on_c, 1, 71, 52
2, 17880, Note_on_c, 1, 71, 0
2, 17880, Note_on_c, 1, 69, 63
2, 17920, Note_on_c, 1, 69, 0
2, 17920, Note_on_c, 1, 67, 64
2, 17960, Note_on_c, 1, 67, 0
2, 17960, Note_on_c, 1, 66, 50
2, 18000, Note_on_c, 1, 66, 0
2, 18000, Note_on_c, 1, 69, 50
2, 18040, Note_on_c, 1, 69, 0
2, 18040, Note_on_c, 1, 67, 52
2, 18080, Note_on_c, 1, 67, 0
2, 18080, Note_on_c, 1, 71, 64
2, 18120, Note_on_c, 1, 71, 0
2, 18120, Note_on_c, 1, 69, 46
2, 18160, Note_on_c, 1, 69, 0
2, 18160, Note_on_c, 1, 72, 67
2, 18200, Note_on_c, 1, 72, 0
2, 18200, Note_on_c, 1, 71, 62
2, 18240, Note_on_c, 1, 71, 0
2, 18240, Note_on_c, 1, 74, 32
2, 18360, Note_on_c, 1, 74, 0
2, 18360, Note_on_c, 1, 72, 48
2, 18480, Note_on_c, 1, 72, 0
2, 18480, Note_on_c, 1, 71, 60
2, 18600, Note_on_c, 1, 71, 0
2, 18600, Note_on_c, 1, 69, 56
2, 18720, Note_on_c, 1, 69, 0
2, 18720, Note_on_c, 1, 67, 52
2, 18810, Note_on_c, 1, 67, 0
2, 18840, Note_on_c, 1, 66, 43
2, 18930, Note_on_c, 1, 66, 0
2, 18960, Note_on_c, 1, 69, 41
2, 19050, Note_on_c, 1, 69, 0
2, 19080, Note_on_c, 1, 72, 49
2, 19170, Note_on_c, 1, 72, 0
2, 19200, Control_c, 1, 64, 127
2, 19200, Note_on_c, 1, 35, 44
2, 19230, Note_on_c, 1, 35, 0
2, 19230, Note_on_c, 1, 47, 57
2, 19260, Note_on_c, 1, 47, 0
2, 19260, Note_on_c, 1, 52, 68
2, 19280, Note_on_c, 1, 52, 0
2, 19280, Note_on_c, 1, 55, 48
2, 19300, Note_on_c, 1, 55, 0
2, 19300, Note_on_c, 1, 59, 56
2, 19315, Note_on_c, 1, 59, 0
2, 19315, Note_on_c, 1, 64, 73
2, 19330, Note_on_c, 1, 64, 0
2, 19330, Note_on_c, 1, 67, 43
2, 19345, Note_on_c, 1, 67, 0
2, 19345, Note_on_c, 1, 71, 65
2, 19360, Note_on_c, 1, 71, 0
2, 19435, Control_c, 1, 64, 0
2, 19440, Note_on_c, 1, 47, 52
2, 19450, Control_c, 1, 64, 127
2, 19470, Note_on_c, 1, 47, 0
2, 19470, Note_on_c, 1, 51, 44
2, 19490, Note_on_c, 1, 51, 0
2, 19490, Note_on_c, 1, 54, 54
2, 19510, Note_on_c, 1, 54, 0
2, 19510, Note_on_c, 1, 59, 64
2, 19525, Note_on_c, 1, 59, 0
2, 19525, Note_on_c, 1, 63, 62
2, 19540, Note_on_c, 1, 63, 0
2, 19540, Note_on_c, 1, 66, 50
2, 19550, Note_on_c, 1, 66, 0
2, 19550, Note_on_c, 1, 71, 53
2, 19560, Note_on_c, 1, 71, 0
2, 19560, Note_on_c, 1, 75, 60
2, 19570, Note_on_c, 1, 75, 0
2, 19675, Control_c, 1, 64, 0
2, 19680, Note_on_c, 1, 52, 58
2, 19680, Note_on_c, 1, 40, 43
2, 19680, Note_on_c, 1, 64, 47
2, 19690, Control_c, 1, 64, 126
2, 19740, Note_on_c, 1, 64, 0
2, 19740, Note_on_c, 1, 40, 0
2, 19740, Note_on_c, 1, 52, 0
2, 19915, Control_c, 1, 64, 0
2, 20880, Note_on_c, 1, 60, 45
2, 20880, Note_on_c, 1, 57, 53
2, 20880, Note_on_c, 1, 76, 58
2, 20880, Note_on_c, 1, 72, 64
2, 21060, Note_on_c, 1, 72, 0
2, 21060, Note_on_c, 1, 60, 0
2, 21060, Note_on_c, 1, 57, 0
2, 21060, Note_on_c, 1, 76, 0
2, 21060, Note_on_c, 1, 66, 40
2, 21060, Note_on_c, 1, 75, 46
2, 21060, Note_on_c, 1, 71, 51
2, 21060, Note_on_c, 1, 59, 59
2, 21120, Note_on_c, 1, 59, 0
2, 21120, Note_on_c, 1, 66, 0
2, 21120, Note_on_c, 1, 75, 0
2, 21120, Note_on_c, 1, 71, 0
2, 21120, Note_on_c, 1, 75, 64
2, 21120, Note_on_c, 1, 66, 42
2, 21120, Note_on_c, 1, 71, 48
2, 21120, Note_on_c, 1, 59, 56
2, 21180, Note_on_c, 1, 59, 0
2, 21180, Note_on_c, 1, 75, 0
2, 21180, Note_on_c, 1, 66, 0
2, 21180, Note_on_c, 1, 71, 0
2, 21600, Control_c, 1, 64, 127
2, 21600, Note_on_c, 1, 40, 60
2, 21620, Note_on_c, 1, 40, 0
2, 21620, Note_on_c, 1, 52, 65
2, 21640, Note_on_c, 1, 59, 52
2, 21660, Note_on_c, 1, 64, 56
2, 21680, Note_on_c, 1, 67, 62
2, 21700, Note_on_c, 1, 79, 46
2, 21720, Note_on_c, 1, 79, 0
2, 21720, Note_on_c, 1, 78, 45
2, 21780, Note_on_c, 1, 78, 0
2, 21780, Note_on_c, 1, 76, 50
2, 21810, Note_on_c, 1, 76, 0
2, 21810, Note_on_c, 1, 64, 0
2, 21810, Note_on_c, 1, 52, 0
2, 21810, Note_on_c, 1, 59, 0
2, 21810, Note_on_c, 1, 67, 0
2, 21835, Control_c, 1, 64, 0
2, 21835, End_track
3, 0, Start_track
3, 0, MIDI_port, 0
3, 0, Title_t, "1st Violins"
3, 0, Control_c, 2, 7, 100
3, 0, Control_c, 2, 10, 32
3, 0, Control_c, 2, 93, 0
3, 0, Control_c, 2, 91, 66
3, 0, Control_c, 2, 0, 0
3, 0, Control_c, 2, 32, 0
3, 0, Program_c, 2, 48
3, 0, Note_on_c, 2, 64, 89
3, 60, Note_on_c, 2, 64, 0
3, 165, Note_on_c, 2, 67, 71
3, 175, Note_on_c, 2, 67, 0
3, 180, Note_on_c, 2, 66, 80
3, 202, Note_on_c, 2, 66, 0
3, 225, Note_on_c, 2, 67, 80
3, 235, Note_on_c, 2, 67, 0
3, 240, Note_on_c, 2, 64, 95
3, 270, Note_on_c, 2, 64, 0
3, 300, Note_on_c, 2, 59, 99
3, 330, Note_on_c, 2, 59, 0
3, 360, Note_on_c, 2, 62, 84
3, 375, Note_on_c, 2, 62, 0
3, 375, Note_on_c, 2, 60, 89
3, 385, Note_on_c, 2, 60, 0
3, 405, Note_on_c, 2, 59, 89
3, 415, Note_on_c, 2, 59, 0
3, 420, Note_on_c, 2, 60, 89
3, 442, Note_on_c, 2, 60, 0
3, 465, Note_on_c, 2, 60, 93
3, 475, Note_on_c, 2, 60, 0
3, 480, Note_on_c, 2, 60, 94
3, 600, Note_on_c, 2, 60, 0
3, 660, Note_on_c, 2, 72, 112
3, 682, Note_on_c, 2, 72, 0
3, 705, Note_on_c, 2, 71, 81
3, 715, Note_on_c, 2, 71, 0
3, 720, Note_on_c, 2, 69, 80
3, 742, Note_on_c, 2, 69, 0
3, 765, Note_on_c, 2, 67, 64
3, 775, Note_on_c, 2, 67, 0
3, 780, Note_on_c, 2, 66, 80
3, 802, Note_on_c, 2, 66, 0
3, 825, Note_on_c, 2, 67, 78
3, 835, Note_on_c, 2, 67, 0
3, 840, Note_on_c, 2, 69, 94
3, 870, Note_on_c, 2, 69, 0
3, 900, Note_on_c, 2, 60, 89
3, 930, Note_on_c, 2, 60, 0
3, 960, Note_on_c, 2, 59, 104
3, 990, Note_on_c, 2, 59, 0
3, 3120, Note_on_c, 2, 64, 89
3, 3180, Note_on_c, 2, 64, 0
3, 3285, Note_on_c, 2, 67, 78
3, 3295, Note_on_c, 2, 67, 0
3, 3300, Note_on_c, 2, 66, 81
3, 3322, Note_on_c, 2, 66, 0
3, 3345, Note_on_c, 2, 67, 77
3, 3355, Note_on_c, 2, 67, 0
3, 3360, Note_on_c, 2, 64, 94
3, 3390, Note_on_c, 2, 64, 0
3, 3420, Note_on_c, 2, 59, 93
3, 3450, Note_on_c, 2, 59, 0
3, 3480, Note_on_c, 2, 62, 86
3, 3495, Note_on_c, 2, 62, 0
3, 3495, Note_on_c, 2, 61, 84
3, 3517, Note_on_c, 2, 61, 0
3, 3525, Note_on_c, 2, 59, 90
3, 3535, Note_on_c, 2, 59, 0
3, 3540, Note_on_c, 2, 61, 81
3, 3562, Note_on_c, 2, 61, 0
3, 3585, Note_on_c, 2, 61, 84
3, 3595, Note_on_c, 2, 61, 0
3, 3600, Note_on_c, 2, 61, 74
3, 3630, Note_on_c, 2, 61, 0
3, 3660, Note_on_c, 2, 64, 89
3, 3682, Note_on_c, 2, 64, 0
3, 3705, Note_on_c, 2, 67, 84
3, 3715, Note_on_c, 2, 67, 0
3, 3720, Note_on_c, 2, 73, 89
3, 3750, Note_on_c, 2, 73, 0
3, 3780, Note_on_c, 2, 76, 95
3, 3810, Note_on_c, 2, 76, 0
3, 3840, Note_on_c, 2, 79, 90
3, 3870, Note_on_c, 2, 79, 0
3, 3945, Note_on_c, 2, 61, 81
3, 3955, Note_on_c, 2, 61, 0
3, 3960, Note_on_c, 2, 62, 86
3, 3990, Note_on_c, 2, 62, 0
3, 4065, Note_on_c, 2, 57, 101
3, 4075, Note_on_c, 2, 57, 0
3, 4080, Note_on_c, 2, 57, 99
3, 4110, Note_on_c, 2, 57, 0
3, 6000, Note_on_c, 2, 64, 80
3, 6060, Note_on_c, 2, 64, 0
3, 6165, Note_on_c, 2, 64, 67
3, 6175, Note_on_c, 2, 64, 0
3, 6180, Note_on_c, 2, 62, 73
3, 6202, Note_on_c, 2, 62, 0
3, 6225, Note_on_c, 2, 64, 82
3, 6235, Note_on_c, 2, 64, 0
3, 6240, Note_on_c, 2, 60, 69
3, 6262, Note_on_c, 2, 60, 0
3, 6285, Note_on_c, 2, 60, 74
3, 6295, Note_on_c, 2, 60, 0
3, 6300, Note_on_c, 2, 59, 81
3, 6322, Note_on_c, 2, 59, 0
3, 6345, Note_on_c, 2, 60, 73
3, 6355, Note_on_c, 2, 60, 0
3, 6360, Note_on_c, 2, 57, 86
3, 6390, Note_on_c, 2, 57, 0
3, 6420, Note_on_c, 2, 57, 85
3, 6450, Note_on_c, 2, 57, 0
3, 6480, Note_on_c, 2, 57, 86
3, 6540, Note_on_c, 2, 57, 0
3, 6885, Note_on_c, 2, 65, 81
3, 6895, Note_on_c, 2, 65, 0
3, 6900, Note_on_c, 2, 64, 84
3, 6922, Note_on_c, 2, 64, 0
3, 6945, Note_on_c, 2, 65, 84
3, 6955, Note_on_c, 2, 65, 0
3, 6960, Note_on_c, 2, 62, 74
3, 6982, Note_on_c, 2, 62, 0
3, 7005, Note_on_c, 2, 62, 74
3, 7015, Note_on_c, 2, 62, 0
3, 7020, Note_on_c, 2, 60, 72
3, 7042, Note_on_c, 2, 60, 0
3, 7065, Note_on_c, 2, 62, 76
3, 7075, Note_on_c, 2, 62, 0
3, 7080, Note_on_c, 2, 59, 77
3, 7110, Note_on_c, 2, 59, 0
3, 7140, Note_on_c, 2, 59, 93
3, 7170, Note_on_c, 2, 59, 0
3, 7200, Note_on_c, 2, 59, 84
3, 7320, Note_on_c, 2, 59, 0
3, 7665, Note_on_c, 2, 59, 95
3, 7680, Note_on_c, 2, 59, 0
3, 7680, Note_on_c, 2, 60, 76
3, 7740, Note_on_c, 2, 60, 0
3, 7905, Note_on_c, 2, 60, 72
3, 7920, Note_on_c, 2, 60, 0
3, 7920, Note_on_c, 2, 63, 89
3, 7980, Note_on_c, 2, 63, 0
3, 8145, Note_on_c, 2, 63, 84
3, 8160, Note_on_c, 2, 63, 0
3, 8160, Note_on_c, 2, 64, 94
3, 8190, Note_on_c, 2, 64, 0
3, 9045, Note_on_c, 2, 64, 57
3, 9055, Note_on_c, 2, 64, 0
3, 9060, Note_on_c, 2, 62, 44
3, 9082, Note_on_c, 2, 62, 0
3, 9105, Note_on_c, 2, 64, 54
3, 9115, Note_on_c, 2, 64, 0
3, 9120, Note_on_c, 2, 60, 43
3, 9142, Note_on_c, 2, 60, 0
3, 9165, Note_on_c, 2, 60, 44
3, 9175, Note_on_c, 2, 60, 0
3, 9180, Note_on_c, 2, 59, 55
3, 9202, Note_on_c, 2, 59, 0
3, 9225, Note_on_c, 2, 60, 45
3, 9235, Note_on_c, 2, 60, 0
3, 9240, Note_on_c, 2, 57, 40
3, 9270, Note_on_c, 2, 57, 0
3, 9300, Note_on_c, 2, 57, 50
3, 9330, Note_on_c, 2, 57, 0
3, 9360, Note_on_c, 2, 57, 43
3, 9420, Note_on_c, 2, 57, 0
3, 9765, Note_on_c, 2, 65, 56
3, 9775, Note_on_c, 2, 65, 0
3, 9780, Note_on_c, 2, 64, 49
3, 9802, Note_on_c, 2, 64, 0
3, 9825, Note_on_c, 2, 65, 54
3, 9835, Note_on_c, 2, 65, 0
3, 9840, Note_on_c, 2, 62, 57
3, 9862, Note_on_c, 2, 62, 0
3, 9885, Note_on_c, 2, 62, 45
3, 9895, Note_on_c, 2, 62, 0
3, 9900, Note_on_c, 2, 60, 44
3, 9922, Note_on_c, 2, 60, 0
3, 9945, Note_on_c, 2, 62, 43
3, 9955, Note_on_c, 2, 62, 0
3, 9960, Note_on_c, 2, 59, 43
3, 9990, Note_on_c, 2, 59, 0
3, 10020, Note_on_c, 2, 59, 45
3, 10050, Note_on_c, 2, 59, 0
3, 10080, Note_on_c, 2, 59, 39
3, 10140, Note_on_c, 2, 59, 0
3, 10545, Note_on_c, 2, 59, 40
3, 10560, Note_on_c, 2, 59, 0
3, 10560, Note_on_c, 2, 61, 43
3, 10620, Note_on_c, 2, 61, 0
3, 10785, Note_on_c, 2, 61, 43
3, 10800, Note_on_c, 2, 61, 0
3, 10800, Note_on_c, 2, 63, 45
3, 10860, Note_on_c, 2, 63, 0
3, 10920, Program_c, 2, 45
3, 11040, Note_on_c, 2, 64, 45
3, 11100, Note_on_c, 2, 64, 0
3, 11520, Note_on_c, 2, 64, 45
3, 11580, Note_on_c, 2, 64, 0
3, 12000, Note_on_c, 2, 64, 46
3, 12060, Note_on_c, 2, 64, 0
3, 12960, Note_on_c, 2, 63, 60
3, 13020, Note_on_c, 2, 63, 0
3, 19440, Program_c, 2, 48
3, 19680, Note_on_c, 2, 64, 34
3, 20520, Note_on_c, 2, 64, 0
3, 20520, Note_on_c, 2, 65, 38
3, 20580, Note_on_c, 2, 65, 0
3, 20580, Note_on_c, 2, 65, 40
3, 20640, Note_on_c, 2, 65, 0
3, 20640, Note_on_c, 2, 65, 42
3, 20820, Note_on_c, 2, 65, 0
3, 20820, Note_on_c, 2, 64, 29
3, 20880, Note_on_c, 2, 64, 0
3, 20880, Note_on_c, 2, 64, 29
3, 20940, Note_on_c, 2, 64, 0
3, 21120, Note_on_c, 2, 63, 43
3, 21360, Note_on_c, 2, 63, 0
3, 21360, Note_on_c, 2, 64, 43
3, 21450, Note_on_c, 2, 64, 0
3, 21480, Note_on_c, 2, 64, 45
3, 21570, Note_on_c, 2, 64, 0
3, 21600, Note_on_c, 2, 64, 42
3, 21840, Note_on_c, 2, 64, 0
3, 21840, End_track
4, 0, Start_track
4, 0, MIDI_port, 0
4, 0, Title_t, "2nd Violins"
4, 0, Control_c, 3, 7, 100
4, 0, Control_c, 3, 10, 13
4, 0, Control_c, 3, 93, 0
4, 0, Control_c, 3, 91, 66
4, 0, Control_c, 3, 0, 0
4, 0, Control_c, 3, 32, 0
4, 0, Program_c, 3, 49
4, 0, Note_on_c, 3, 64, 89
4, 60, Note_on_c, 3, 64, 0
4, 165, Note_on_c, 3, 67, 71
4, 175, Note_on_c, 3, 67, 0
4, 180, Note_on_c, 3, 66, 80
4, 202, Note_on_c, 3, 66, 0
4, 225, Note_on_c, 3, 67, 80
4, 235, Note_on_c, 3, 67, 0
4, 240, Note_on_c, 3, 64, 95
4, 270, Note_on_c, 3, 64, 0
4, 300, Note_on_c, 3, 59, 99
4, 330, Note_on_c, 3, 59, 0
4, 360, Note_on_c, 3, 62, 84
4, 375, Note_on_c, 3, 62, 0
4, 375, Note_on_c, 3, 60, 89
4, 385, Note_on_c, 3, 60, 0
4, 405, Note_on_c, 3, 59, 89
4, 415, Note_on_c, 3, 59, 0
4, 420, Note_on_c, 3, 60, 89
4, 442, Note_on_c, 3, 60, 0
4, 465, Note_on_c, 3, 60, 93
4, 475, Note_on_c, 3, 60, 0
4, 480, Note_on_c, 3, 60, 94
4, 600, Note_on_c, 3, 60, 0
4, 660, Note_on_c, 3, 72, 112
4, 682, Note_on_c, 3, 72, 0
4, 705, Note_on_c, 3, 71, 81
4, 715, Note_on_c, 3, 71, 0
4, 720, Note_on_c, 3, 69, 80
4, 742, Note_on_c, 3, 69, 0
4, 765, Note_on_c, 3, 67, 64
4, 775, Note_on_c, 3, 67, 0
4, 780, Note_on_c, 3, 66, 80
4, 802, Note_on_c, 3, 66, 0
4, 825, Note_on_c, 3, 67, 78
4, 835, Note_on_c, 3, 67, 0
4, 840, Note_on_c, 3, 69, 94
4, 870, Note_on_c, 3, 69, 0
4, 900, Note_on_c, 3, 60, 89
4, 930, Note_on_c, 3, 60, 0
4, 960, Note_on_c, 3, 59, 104
4, 990, Note_on_c, 3, 59, 0
4, 3120, Note_on_c, 3, 64, 89
4, 3180, Note_on_c, 3, 64, 0
4, 3285, Note_on_c, 3, 67, 78
4, 3295, Note_on_c, 3, 67, 0
4, 3300, Note_on_c, 3, 66, 81
4, 3322, Note_on_c, 3, 66, 0
4, 3345, Note_on_c, 3, 67, 77
4, 3355, Note_on_c, 3, 67, 0
4, 3360, Note_on_c, 3, 64, 94
4, 3390, Note_on_c, 3, 64, 0
4, 3420, Note_on_c, 3, 59, 93
4, 3450, Note_on_c, 3, 59, 0
4, 3480, Note_on_c, 3, 62, 86
4, 3495, Note_on_c, 3, 62, 0
4, 3495, Note_on_c, 3, 61, 84
4, 3517, Note_on_c, 3, 61, 0
4, 3525, Note_on_c, 3, 59, 90
4, 3535, Note_on_c, 3, 59, 0
4, 3540, Note_on_c, 3, 61, 81
4, 3562, Note_on_c, 3, 61, 0
4, 3585, Note_on_c, 3, 61, 84
4, 3595, Note_on_c, 3, 61, 0
4, 3600, Note_on_c, 3, 61, 74
4, 3630, Note_on_c, 3, 61, 0
4, 3660, Note_on_c, 3, 64, 89
4, 3682, Note_on_c, 3, 64, 0
4, 3705, Note_on_c, 3, 67, 84
4, 3715, Note_on_c, 3, 67, 0
4, 3720, Note_on_c, 3, 73, 89
4, 3750, Note_on_c, 3, 73, 0
4, 3780, Note_on_c, 3, 76, 95
4, 3810, Note_on_c, 3, 76, 0
4, 3840, Note_on_c, 3, 79, 90
4, 3870, Note_on_c, 3, 79, 0
4, 3945, Note_on_c, 3, 61, 81
4, 3955, Note_on_c, 3, 61, 0
4, 3960, Note_on_c, 3, 62, 86
4, 3990, Note_on_c, 3, 62, 0
4, 4065, Note_on_c, 3, 57, 101
4, 4075, Note_on_c, 3, 57, 0
4, 4080, Note_on_c, 3, 57, 99
4, 4110, Note_on_c, 3, 57, 0
4, 6000, Note_on_c, 3, 64, 80
4, 6060, Note_on_c, 3, 64, 0
4, 6165, Note_on_c, 3, 64, 67
4, 6175, Note_on_c, 3, 64, 0
4, 6180, Note_on_c, 3, 62, 73
4, 6202, Note_on_c, 3, 62, 0
4, 6225, Note_on_c, 3, 64, 82
4, 6235, Note_on_c, 3, 64, 0
4, 6240, Note_on_c, 3, 60, 69
4, 6262, Note_on_c, 3, 60, 0
4, 6285, Note_on_c, 3, 60, 74
4, 6295, Note_on_c, 3, 60, 0
4, 6300, Note_on_c, 3, 59, 81
4, 6322, Note_on_c, 3, 59, 0
4, 6345, Note_on_c, 3, 60, 73
4, 6355, Note_on_c, 3, 60, 0
4, 6360, Note_on_c, 3, 57, 86
4, 6390, Note_on_c, 3, 57, 0
4, 6420, Note_on_c, 3, 57, 85
4, 6450, Note_on_c, 3, 57, 0
4, 6480, Note_on_c, 3, 57, 86
4, 6540, Note_on_c, 3, 57, 0
4, 6885, Note_on_c, 3, 65, 81
4, 6895, Note_on_c, 3, 65, 0
4, 6900, Note_on_c, 3, 64, 84
4, 6922, Note_on_c, 3, 64, 0
4, 6945, Note_on_c, 3, 65, 84
4, 6955, Note_on_c, 3, 65, 0
4, 6960, Note_on_c, 3, 62, 74
4, 6982, Note_on_c, 3, 62, 0
4, 7005, Note_on_c, 3, 62, 74
4, 7015, Note_on_c, 3, 62, 0
4, 7020, Note_on_c, 3, 60, 72
4, 7042, Note_on_c, 3, 60, 0
4, 7065, Note_on_c, 3, 62, 76
4, 7075, Note_on_c, 3, 62, 0
4, 7080, Note_on_c, 3, 59, 77
4, 7110, Note_on_c, 3, 59, 0
4, 7140, Note_on_c, 3, 59, 93
4, 7170, Note_on_c, 3, 59, 0
4, 7200, Note_on_c, 3, 59, 84
4, 7320, Note_on_c, 3, 59, 0
4, 7665, Note_on_c, 3, 59, 95
4, 7680, Note_on_c, 3, 59, 0
4, 7680, Note_on_c, 3, 60, 76
4, 7740, Note_on_c, 3, 60, 0
4, 7905, Note_on_c, 3, 60, 72
4, 7920, Note_on_c, 3, 60, 0
4, 7920, Note_on_c, 3, 63, 89
4, 7980, Note_on_c, 3, 63, 0
4, 8145, Note_on_c, 3, 63, 84
4, 8160, Note_on_c, 3, 63, 0
4, 8160, Note_on_c, 3, 64, 94
4, 8190, Note_on_c, 3, 64, 0
4, 9045, Note_on_c, 3, 64, 57
4, 9055, Note_on_c, 3, 64, 0
4, 9060, Note_on_c, 3, 62, 44
4, 9082, Note_on_c, 3, 62, 0
4, 9105, Note_on_c, 3, 64, 54
4, 9115, Note_on_c, 3, 64, 0
4, 9120, Note_on_c, 3, 60, 43
4, 9142, Note_on_c, 3, 60, 0
4, 9165, Note_on_c, 3, 60, 44
4, 9175, Note_on_c, 3, 60, 0
4, 9180, Note_on_c, 3, 59, 55
4, 9202, Note_on_c, 3, 59, 0
4, 9225, Note_on_c, 3, 60, 45
4, 9235, Note_on_c, 3, 60, 0
4, 9240, Note_on_c, 3, 57, 40
4, 9270, Note_on_c, 3, 57, 0
4, 9300, Note_on_c, 3, 57, 50
4, 9330, Note_on_c, 3, 57, 0
4, 9360, Note_on_c, 3, 57, 43
4, 9420, Note_on_c, 3, 57, 0
4, 9765, Note_on_c, 3, 65, 56
4, 9775, Note_on_c, 3, 65, 0
4, 9780, Note_on_c, 3, 64, 49
4, 9802, Note_on_c, 3, 64, 0
4, 9825, Note_on_c, 3, 65, 54
4, 9835, Note_on_c, 3, 65, 0
4, 9840, Note_on_c, 3, 62, 57
4, 9862, Note_on_c, 3, 62, 0
4, 9885, Note_on_c, 3, 62, 45
4, 9895, Note_on_c, 3, 62, 0
4, 9900, Note_on_c, 3, 60, 44
4, 9922, Note_on_c, 3, 60, 0
4, 9945, Note_on_c, 3, 62, 43
4, 9955, Note_on_c, 3, 62, 0
4, 9960, Note_on_c, 3, 59, 43
4, 9990, Note_on_c, 3, 59, 0
4, 10020, Note_on_c, 3, 59, 45
4, 10050, Note_on_c, 3, 59, 0
4, 10080, Note_on_c, 3, 59, 39
4, 10140, Note_on_c, 3, 59, 0
4, 10545, Note_on_c, 3, 59, 40
4, 10560, Note_on_c, 3, 59, 0
4, 10560, Note_on_c, 3, 61, 43
4, 10620, Note_on_c, 3, 61, 0
4, 10785, Note_on_c, 3, 61, 43
4, 10800, Note_on_c, 3, 61, 0
4, 10800, Note_on_c, 3, 63, 45
4, 10860, Note_on_c, 3, 63, 0
4, 10920, Program_c, 3, 45
4, 11040, Note_on_c, 3, 64, 46
4, 11100, Note_on_c, 3, 64, 0
4, 11520, Note_on_c, 3, 60, 45
4, 11580, Note_on_c, 3, 60, 0
4, 12000, Note_on_c, 3, 55, 49
4, 12060, Note_on_c, 3, 55, 0
4, 12960, Note_on_c, 3, 59, 45
4, 13020, Note_on_c, 3, 59, 0
4, 19560, Program_c, 3, 49
4, 19680, Note_on_c, 3, 64, 29
4, 20520, Note_on_c, 3, 64, 0
4, 20520, Note_on_c, 3, 62, 35
4, 20580, Note_on_c, 3, 62, 0
4, 20580, Note_on_c, 3, 60, 36
4, 20640, Note_on_c, 3, 60, 0
4, 20640, Note_on_c, 3, 59, 38
4, 20880, Note_on_c, 3, 59, 0
4, 20880, Note_on_c, 3, 60, 34
4, 20940, Note_on_c, 3, 60, 0
4, 21120, Note_on_c, 3, 59, 45
4, 21360, Note_on_c, 3, 59, 0
4, 21360, Note_on_c, 3, 59, 43
4, 21450, Note_on_c, 3, 59, 0
4, 21480, Note_on_c, 3, 55, 40
4, 21570, Note_on_c, 3, 55, 0
4, 21600, Note_on_c, 3, 55, 39
4, 21840, Note_on_c, 3, 55, 0
4, 21840, End_track
5, 0, Start_track
5, 0, MIDI_port, 0
5, 0, Title_t, "Violas"
5, 0, Control_c, 4, 7, 100
5, 0, Control_c, 4, 10, 64
5, 0, Control_c, 4, 93, 0
5, 0, Control_c, 4, 91, 66
5, 0, Control_c, 4, 0, 0
5, 0, Control_c, 4, 32, 0
5, 0, Program_c, 4, 49
5, 0, Note_on_c, 4, 52, 89
5, 60, Note_on_c, 4, 52, 0
5, 165, Note_on_c, 4, 55, 71
5, 175, Note_on_c, 4, 55, 0
5, 180, Note_on_c, 4, 54, 80
5, 202, Note_on_c, 4, 54, 0
5, 225, Note_on_c, 4, 55, 80
5, 235, Note_on_c, 4, 55, 0
5, 240, Note_on_c, 4, 52, 95
5, 270, Note_on_c, 4, 52, 0
5, 300, Note_on_c, 4, 59, 99
5, 330, Note_on_c, 4, 59, 0
5, 360, Note_on_c, 4, 62, 84
5, 375, Note_on_c, 4, 62, 0
5, 375, Note_on_c, 4, 60, 89
5, 385, Note_on_c, 4, 60, 0
5, 405, Note_on_c, 4, 59, 89
5, 415, Note_on_c, 4, 59, 0
5, 420, Note_on_c, 4, 60, 89
5, 442, Note_on_c, 4, 60, 0
5, 465, Note_on_c, 4, 60, 93
5, 475, Note_on_c, 4, 60, 0
5, 480, Note_on_c, 4, 60, 94
5, 600, Note_on_c, 4, 60, 0
5, 660, Note_on_c, 4, 72, 112
5, 682, Note_on_c, 4, 72, 0
5, 705, Note_on_c, 4, 71, 81
5, 715, Note_on_c, 4, 71, 0
5, 720, Note_on_c, 4, 69, 80
5, 742, Note_on_c, 4, 69, 0
5, 765, Note_on_c, 4, 67, 64
5, 775, Note_on_c, 4, 67, 0
5, 780, Note_on_c, 4, 66, 80
5, 802, Note_on_c, 4, 66, 0
5, 825, Note_on_c, 4, 67, 78
5, 835, Note_on_c, 4, 67, 0
5, 840, Note_on_c, 4, 69, 94
5, 870, Note_on_c, 4, 69, 0
5, 900, Note_on_c, 4, 60, 89
5, 930, Note_on_c, 4, 60, 0
5, 960, Note_on_c, 4, 59, 104
5, 990, Note_on_c, 4, 59, 0
5, 3120, Note_on_c, 4, 52, 89
5, 3180, Note_on_c, 4, 52, 0
5, 3285, Note_on_c, 4, 55, 78
5, 3295, Note_on_c, 4, 55, 0
5, 3300, Note_on_c, 4, 54, 81
5, 3322, Note_on_c, 4, 54, 0
5, 3345, Note_on_c, 4, 55, 77
5, 3355, Note_on_c, 4, 55, 0
5, 3360, Note_on_c, 4, 52, 94
5, 3390, Note_on_c, 4, 52, 0
5, 3420, Note_on_c, 4, 59, 93
5, 3450, Note_on_c, 4, 59, 0
5, 3480, Note_on_c, 4, 62, 86
5, 3495, Note_on_c, 4, 62, 0
5, 3495, Note_on_c, 4, 61, 84
5, 3517, Note_on_c, 4, 61, 0
5, 3525, Note_on_c, 4, 59, 90
5, 3535, Note_on_c, 4, 59, 0
5, 3540, Note_on_c, 4, 61, 81
5, 3562, Note_on_c, 4, 61, 0
5, 3585, Note_on_c, 4, 49, 84
5, 3595, Note_on_c, 4, 49, 0
5, 3600, Note_on_c, 4, 49, 74
5, 3630, Note_on_c, 4, 49, 0
5, 3660, Note_on_c, 4, 52, 89
5, 3682, Note_on_c, 4, 52, 0
5, 3705, Note_on_c, 4, 55, 84
5, 3715, Note_on_c, 4, 55, 0
5, 3720, Note_on_c, 4, 61, 89
5, 3750, Note_on_c, 4, 61, 0
5, 3780, Note_on_c, 4, 64, 95
5, 3810, Note_on_c, 4, 64, 0
5, 3840, Note_on_c, 4, 67, 90
5, 3870, Note_on_c, 4, 67, 0
5, 3945, Note_on_c, 4, 61, 81
5, 3955, Note_on_c, 4, 61, 0
5, 3960, Note_on_c, 4, 62, 86
5, 3990, Note_on_c, 4, 62, 0
5, 4065, Note_on_c, 4, 57, 101
5, 4075, Note_on_c, 4, 57, 0
5, 4080, Note_on_c, 4, 57, 99
5, 4110, Note_on_c, 4, 57, 0
5, 6000, Note_on_c, 4, 52, 89
5, 6060, Note_on_c, 4, 52, 0
5, 6165, Note_on_c, 4, 64, 67
5, 6175, Note_on_c, 4, 64, 0
5, 6180, Note_on_c, 4, 62, 73
5, 6202, Note_on_c, 4, 62, 0
5, 6225, Note_on_c, 4, 64, 82
5, 6235, Note_on_c, 4, 64, 0
5, 6240, Note_on_c, 4, 60, 69
5, 6262, Note_on_c, 4, 60, 0
5, 6285, Note_on_c, 4, 60, 74
5, 6295, Note_on_c, 4, 60, 0
5, 6300, Note_on_c, 4, 59, 81
5, 6322, Note_on_c, 4, 59, 0
5, 6345, Note_on_c, 4, 60, 73
5, 6355, Note_on_c, 4, 60, 0
5, 6360, Note_on_c, 4, 57, 86
5, 6390, Note_on_c, 4, 57, 0
5, 6420, Note_on_c, 4, 57, 85
5, 6450, Note_on_c, 4, 57, 0
5, 6480, Note_on_c, 4, 57, 86
5, 6540, Note_on_c, 4, 57, 0
5, 6885, Note_on_c, 4, 53, 81
5, 6895, Note_on_c, 4, 53, 0
5, 6900, Note_on_c, 4, 52, 84
5, 6922, Note_on_c, 4, 52, 0
5, 6945, Note_on_c, 4, 53, 84
5, 6955, Note_on_c, 4, 53, 0
5, 6960, Note_on_c, 4, 50, 74
5, 6982, Note_on_c, 4, 50, 0
5, 7005, Note_on_c, 4, 62, 74
5, 7015, Note_on_c, 4, 62, 0
5, 7020, Note_on_c, 4, 60, 72
5, 7042, Note_on_c, 4, 60, 0
5, 7065, Note_on_c, 4, 62, 76
5, 7075, Note_on_c, 4, 62, 0
5, 7080, Note_on_c, 4, 59, 77
5, 7110, Note_on_c, 4, 59, 0
5, 7140, Note_on_c, 4, 59, 93
5, 7170, Note_on_c, 4, 59, 0
5, 7200, Note_on_c, 4, 59, 84
5, 7320, Note_on_c, 4, 59, 0
5, 7665, Note_on_c, 4, 59, 95
5, 7680, Note_on_c, 4, 59, 0
5, 7680, Note_on_c, 4, 48, 100
5, 7740, Note_on_c, 4, 48, 0
5, 7905, Note_on_c, 4, 60, 72
5, 7920, Note_on_c, 4, 60, 0
5, 7920, Note_on_c, 4, 51, 89
5, 7980, Note_on_c, 4, 51, 0
5, 8145, Note_on_c, 4, 51, 84
5, 8160, Note_on_c, 4, 51, 0
5, 8160, Note_on_c, 4, 52, 94
5, 8190, Note_on_c, 4, 52, 0
5, 9045, Note_on_c, 4, 52, 57
5, 9055, Note_on_c, 4, 52, 0
5, 9060, Note_on_c, 4, 50, 44
5, 9082, Note_on_c, 4, 50, 0
5, 9105, Note_on_c, 4, 52, 54
5, 9115, Note_on_c, 4, 52, 0
5, 9120, Note_on_c, 4, 48, 43
5, 9142, Note_on_c, 4, 48, 0
5, 9165, Note_on_c, 4, 60, 44
5, 9175, Note_on_c, 4, 60, 0
5, 9180, Note_on_c, 4, 59, 55
5, 9202, Note_on_c, 4, 59, 0
5, 9225, Note_on_c, 4, 60, 45
5, 9235, Note_on_c, 4, 60, 0
5, 9240, Note_on_c, 4, 57, 40
5, 9270, Note_on_c, 4, 57, 0
5, 9300, Note_on_c, 4, 57, 50
5, 9330, Note_on_c, 4, 57, 0
5, 9360, Note_on_c, 4, 57, 43
5, 9420, Note_on_c, 4, 57, 0
5, 9765, Note_on_c, 4, 53, 56
5, 9775, Note_on_c, 4, 53, 0
5, 9780, Note_on_c, 4, 52, 49
5, 9802, Note_on_c, 4, 52, 0
5, 9825, Note_on_c, 4, 53, 54
5, 9835, Note_on_c, 4, 53, 0
5, 9840, Note_on_c, 4, 50, 57
5, 9862, Note_on_c, 4, 50, 0
5, 9885, Note_on_c, 4, 62, 45
5, 9895, Note_on_c, 4, 62, 0
5, 9900, Note_on_c, 4, 60, 44
5, 9922, Note_on_c, 4, 60, 0
5, 9945, Note_on_c, 4, 62, 43
5, 9955, Note_on_c, 4, 62, 0
5, 9960, Note_on_c, 4, 59, 43
5, 9990, Note_on_c, 4, 59, 0
5, 10020, Note_on_c, 4, 59, 45
5, 10050, Note_on_c, 4, 59, 0
5, 10080, Note_on_c, 4, 59, 39
5, 10140, Note_on_c, 4, 59, 0
5, 10545, Note_on_c, 4, 59, 40
5, 10560, Note_on_c, 4, 59, 0
5, 10560, Note_on_c, 4, 49, 38
5, 10620, Note_on_c, 4, 49, 0
5, 10785, Note_on_c, 4, 61, 43
5, 10800, Note_on_c, 4, 61, 0
5, 10800, Note_on_c, 4, 51, 43
5, 10860, Note_on_c, 4, 51, 0
5, 10920, Program_c, 4, 45
5, 11040, Note_on_c, 4, 52, 43
5, 11100, Note_on_c, 4, 52, 0
5, 11520, Note_on_c, 4, 57, 50
5, 11580, Note_on_c, 4, 57, 0
5, 12000, Note_on_c, 4, 59, 46
5, 12060, Note_on_c, 4, 59, 0
5, 12960, Note_on_c, 4, 59, 50
5, 13020, Note_on_c, 4, 59, 0
5, 19620, Program_c, 4, 49
5, 19680, Note_on_c, 4, 52, 29
5, 20520, Note_on_c, 4, 52, 0
5, 20520, Note_on_c, 4, 53, 38
5, 20580, Note_on_c, 4, 53, 0
5, 20580, Note_on_c, 4, 57, 35
5, 20640, Note_on_c, 4, 57, 0
5, 20640, Note_on_c, 4, 50, 41
5, 20880, Note_on_c, 4, 50, 0
5, 20880, Note_on_c, 4, 48, 34
5, 20940, Note_on_c, 4, 48, 0
5, 21120, Note_on_c, 4, 54, 50
5, 21360, Note_on_c, 4, 54, 0
5, 21360, Note_on_c, 4, 55, 46
5, 21450, Note_on_c, 4, 55, 0
5, 21480, Note_on_c, 4, 59, 46
5, 21570, Note_on_c, 4, 59, 0
5, 21600, Note_on_c, 4, 59, 42
5, 21840, Note_on_c, 4, 59, 0
5, 21840, End_track
6, 0, Start_track
6, 0, MIDI_port, 0
6, 0, Title_t, "Cellos"
6, 0, Control_c, 5, 7, 100
6, 0, Control_c, 5, 10, 97
6, 0, Control_c, 5, 93, 0
6, 0, Control_c, 5, 91, 66
6, 0, Control_c, 5, 0, 0
6, 0, Control_c, 5, 32, 0
6, 0, Program_c, 5, 48
6, 0, Note_on_c, 5, 52, 89
6, 60, Note_on_c, 5, 52, 0
6, 165, Note_on_c, 5, 55, 71
6, 175, Note_on_c, 5, 55, 0
6, 180, Note_on_c, 5, 54, 80
6, 202, Note_on_c, 5, 54, 0
6, 225, Note_on_c, 5, 55, 80
6, 235, Note_on_c, 5, 55, 0
6, 240, Note_on_c, 5, 52, 95
6, 270, Note_on_c, 5, 52, 0
6, 300, Note_on_c, 5, 47, 99
6, 330, Note_on_c, 5, 47, 0
6, 360, Note_on_c, 5, 50, 84
6, 375, Note_on_c, 5, 50, 0
6, 375, Note_on_c, 5, 48, 89
6, 385, Note_on_c, 5, 48, 0
6, 405, Note_on_c, 5, 47, 89
6, 415, Note_on_c, 5, 47, 0
6, 420, Note_on_c, 5, 48, 89
6, 442, Note_on_c, 5, 48, 0
6, 465, Note_on_c, 5, 48, 93
6, 475, Note_on_c, 5, 48, 0
6, 480, Note_on_c, 5, 48, 94
6, 600, Note_on_c, 5, 48, 0
6, 660, Note_on_c, 5, 60, 112
6, 682, Note_on_c, 5, 60, 0
6, 705, Note_on_c, 5, 59, 81
6, 715, Note_on_c, 5, 59, 0
6, 720, Note_on_c, 5, 57, 80
6, 742, Note_on_c, 5, 57, 0
6, 765, Note_on_c, 5, 55, 64
6, 775, Note_on_c, 5, 55, 0
6, 780, Note_on_c, 5, 54, 80
6, 802, Note_on_c, 5, 54, 0
6, 825, Note_on_c, 5, 55, 78
6, 835, Note_on_c, 5, 55, 0
6, 840, Note_on_c, 5, 57, 94
6, 870, Note_on_c, 5, 57, 0
6, 900, Note_on_c, 5, 48, 89
6, 930, Note_on_c, 5, 48, 0
6, 960, Note_on_c, 5, 47, 104
6, 990, Note_on_c, 5, 47, 0
6, 3120, Note_on_c, 5, 52, 89
6, 3180, Note_on_c, 5, 52, 0
6, 3285, Note_on_c, 5, 55, 78
6, 3295, Note_on_c, 5, 55, 0
6, 3300, Note_on_c, 5, 54, 81
6, 3322, Note_on_c, 5, 54, 0
6, 3345, Note_on_c, 5, 55, 77
6, 3355, Note_on_c, 5, 55, 0
6, 3360, Note_on_c, 5, 52, 94
6, 3390, Note_on_c, 5, 52, 0
6, 3420, Note_on_c, 5, 47, 93
6, 3450, Note_on_c, 5, 47, 0
6, 3480, Note_on_c, 5, 50, 86
6, 3495, Note_on_c, 5, 50, 0
6, 3495, Note_on_c, 5, 49, 84
6, 3517, Note_on_c, 5, 49, 0
6, 3525, Note_on_c, 5, 47, 90
6, 3535, Note_on_c, 5, 47, 0
6, 3540, Note_on_c, 5, 49, 81
6, 3562, Note_on_c, 5, 49, 0
6, 3585, Note_on_c, 5, 49, 84
6, 3595, Note_on_c, 5, 49, 0
6, 3600, Note_on_c, 5, 49, 74
6, 3630, Note_on_c, 5, 49, 0
6, 3660, Note_on_c, 5, 52, 89
6, 3682, Note_on_c, 5, 52, 0
6, 3705, Note_on_c, 5, 55, 84
6, 3715, Note_on_c, 5, 55, 0
6, 3720, Note_on_c, 5, 61, 89
6, 3750, Note_on_c, 5, 61, 0
6, 3780, Note_on_c, 5, 64, 95
6, 3810, Note_on_c, 5, 64, 0
6, 3840, Note_on_c, 5, 67, 90
6, 3870, Note_on_c, 5, 67, 0
6, 3945, Note_on_c, 5, 49, 81
6, 3955, Note_on_c, 5, 49, 0
6, 3960, Note_on_c, 5, 50, 86
6, 3990, Note_on_c, 5, 50, 0
6, 4065, Note_on_c, 5, 45, 101
6, 4075, Note_on_c, 5, 45, 0
6, 4080, Note_on_c, 5, 45, 99
6, 4110, Note_on_c, 5, 45, 0
6, 6000, Note_on_c, 5, 52, 80
6, 6060, Note_on_c, 5, 52, 0
6, 6165, Note_on_c, 5, 52, 67
6, 6175, Note_on_c, 5, 52, 0
6, 6180, Note_on_c, 5, 50, 73
6, 6202, Note_on_c, 5, 50, 0
6, 6225, Note_on_c, 5, 52, 82
6, 6235, Note_on_c, 5, 52, 0
6, 6240, Note_on_c, 5, 48, 69
6, 6262, Note_on_c, 5, 48, 0
6, 6285, Note_on_c, 5, 48, 74
6, 6295, Note_on_c, 5, 48, 0
6, 6300, Note_on_c, 5, 47, 81
6, 6322, Note_on_c, 5, 47, 0
6, 6345, Note_on_c, 5, 48, 73
6, 6355, Note_on_c, 5, 48, 0
6, 6360, Note_on_c, 5, 45, 86
6, 6390, Note_on_c, 5, 45, 0
6, 6420, Note_on_c, 5, 45, 85
6, 6450, Note_on_c, 5, 45, 0
6, 6480, Note_on_c, 5, 45, 86
6, 6540, Note_on_c, 5, 45, 0
6, 6885, Note_on_c, 5, 53, 81
6, 6895, Note_on_c, 5, 53, 0
6, 6900, Note_on_c, 5, 52, 84
6, 6922, Note_on_c, 5, 52, 0
6, 6945, Note_on_c, 5, 53, 84
6, 6955, Note_on_c, 5, 53, 0
6, 6960, Note_on_c, 5, 50, 74
6, 6982, Note_on_c, 5, 50, 0
6, 7005, Note_on_c, 5, 50, 74
6, 7015, Note_on_c, 5, 50, 0
6, 7020, Note_on_c, 5, 48, 72
6, 7042, Note_on_c, 5, 48, 0
6, 7065, Note_on_c, 5, 50, 76
6, 7075, Note_on_c, 5, 50, 0
6, 7080, Note_on_c, 5, 47, 77
6, 7110, Note_on_c, 5, 47, 0
6, 7140, Note_on_c, 5, 47, 93
6, 7170, Note_on_c, 5, 47, 0
6, 7200, Note_on_c, 5, 47, 84
6, 7320, Note_on_c, 5, 47, 0
6, 7665, Note_on_c, 5, 47, 95
6, 7680, Note_on_c, 5, 47, 0
6, 7680, Note_on_c, 5, 48, 76
6, 7740, Note_on_c, 5, 48, 0
6, 7905, Note_on_c, 5, 48, 72
6, 7920, Note_on_c, 5, 48, 0
6, 7920, Note_on_c, 5, 51, 89
6, 7980, Note_on_c, 5, 51, 0
6, 8145, Note_on_c, 5, 51, 84
6, 8160, Note_on_c, 5, 51, 0
6, 8160, Note_on_c, 5, 52, 94
6, 8190, Note_on_c, 5, 52, 0
6, 9045, Note_on_c, 5, 52, 57
6, 9055, Note_on_c, 5, 52, 0
6, 9060, Note_on_c, 5, 50, 44
6, 9082, Note_on_c, 5, 50, 0
6, 9105, Note_on_c, 5, 52, 54
6, 9115, Note_on_c, 5, 52, 0
6, 9120, Note_on_c, 5, 48, 43
6, 9142, Note_on_c, 5, 48, 0
6, 9165, Note_on_c, 5, 48, 44
6, 9175, Note_on_c, 5, 48, 0
6, 9180, Note_on_c, 5, 47, 55
6, 9202, Note_on_c, 5, 47, 0
6, 9225, Note_on_c, 5, 48, 45
6, 9235, Note_on_c, 5, 48, 0
6, 9240, Note_on_c, 5, 45, 40
6, 9270, Note_on_c, 5, 45, 0
6, 9300, Note_on_c, 5, 45, 50
6, 9330, Note_on_c, 5, 45, 0
6, 9360, Note_on_c, 5, 45, 43
6, 9420, Note_on_c, 5, 45, 0
6, 9765, Note_on_c, 5, 53, 56
6, 9775, Note_on_c, 5, 53, 0
6, 9780, Note_on_c, 5, 52, 49
6, 9802, Note_on_c, 5, 52, 0
6, 9825, Note_on_c, 5, 53, 54
6, 9835, Note_on_c, 5, 53, 0
6, 9840, Note_on_c, 5, 50, 57
6, 9862, Note_on_c, 5, 50, 0
6, 9885, Note_on_c, 5, 50, 45
6, 9895, Note_on_c, 5, 50, 0
6, 9900, Note_on_c, 5, 48, 44
6, 9922, Note_on_c, 5, 48, 0
6, 9945, Note_on_c, 5, 50, 43
6, 9955, Note_on_c, 5, 50, 0
6, 9960, Note_on_c, 5, 47, 43
6, 9990, Note_on_c, 5, 47, 0
6, 10020, Note_on_c, 5, 47, 45
6, 10050, Note_on_c, 5, 47, 0
6, 10080, Note_on_c, 5, 47, 39
6, 10140, Note_on_c, 5, 47, 0
6, 10545, Note_on_c, 5, 47, 40
6, 10560, Note_on_c, 5, 47, 0
6, 10560, Note_on_c, 5, 49, 43
6, 10620, Note_on_c, 5, 49, 0
6, 10785, Note_on_c, 5, 49, 43
6, 10800, Note_on_c, 5, 49, 0
6, 10800, Note_on_c, 5, 51, 45
6, 10860, Note_on_c, 5, 51, 0
6, 10920, Program_c, 5, 45
6, 11040, Note_on_c, 5, 52, 39
6, 11100, Note_on_c, 5, 52, 0
6, 11520, Note_on_c, 5, 45, 43
6, 11580, Note_on_c, 5, 45, 0
6, 12000, Note_on_c, 5, 47, 49
6, 12060, Note_on_c, 5, 47, 0
6, 12960, Note_on_c, 5, 47, 50
6, 13020, Note_on_c, 5, 47, 0
6, 19440, Program_c, 5, 48
6, 19680, Note_on_c, 5, 52, 62
6, 19740, Note_on_c, 5, 52, 0
6, 19845, Note_on_c, 5, 52, 56
6, 19855, Note_on_c, 5, 52, 0
6, 19860, Note_on_c, 5, 50, 56
6, 19882, Note_on_c, 5, 50, 0
6, 19905, Note_on_c, 5, 52, 62
6, 19915, Note_on_c, 5, 52, 0
6, 19920, Note_on_c, 5, 48, 52
6, 19980, Note_on_c, 5, 48, 0
6, 20085, Note_on_c, 5, 52, 61
6, 20095, Note_on_c, 5, 52, 0
6, 20100, Note_on_c, 5, 50, 53
6, 20122, Note_on_c, 5, 50, 0
6, 20145, Note_on_c, 5, 52, 59
6, 20155, Note_on_c, 5, 52, 0
6, 20160, Note_on_c, 5, 48, 46
6, 20220, Note_on_c, 5, 48, 0
6, 20325, Note_on_c, 5, 52, 65
6, 20335, Note_on_c, 5, 52, 0
6, 20340, Note_on_c, 5, 50, 62
6, 20362, Note_on_c, 5, 50, 0
6, 20385, Note_on_c, 5, 52, 67
6, 20395, Note_on_c, 5, 52, 0
6, 20400, Note_on_c, 5, 48, 59
6, 20520, Note_on_c, 5, 48, 0
6, 20520, Note_on_c, 5, 47, 61
6, 20580, Note_on_c, 5, 47, 0
6, 20580, Note_on_c, 5, 45, 64
6, 20640, Note_on_c, 5, 45, 0
6, 20640, Note_on_c, 5, 44, 52
6, 20880, Note_on_c, 5, 44, 0
6, 20880, Note_on_c, 5, 45, 51
6, 20940, Note_on_c, 5, 45, 0
6, 21120, Note_on_c, 5, 47, 64
6, 21360, Note_on_c, 5, 47, 0
6, 21360, Note_on_c, 5, 40, 65
6, 21450, Note_on_c, 5, 40, 0
6, 21480, Note_on_c, 5, 40, 64
6, 21570, Note_on_c, 5, 40, 0
6, 21600, Note_on_c, 5, 40, 66
6, 21840, Note_on_c, 5, 40, 0
6, 21840, End_track
7, 0, Start_track
7, 0, MIDI_port, 0
7, 0, Title_t, "Contrabasses"
7, 0, Control_c, 6, 7, 100
7, 0, Control_c, 6, 10, 119
7, 0, Control_c, 6, 93, 0
7, 0, Control_c, 6, 91, 66
7, 0, Control_c, 6, 0, 0
7, 0, Control_c, 6, 32, 0
7, 0, Program_c, 6, 49
7, 0, Note_on_c, 6, 40, 89
7, 60, Note_on_c, 6, 40, 0
7, 165, Note_on_c, 6, 43, 71
7, 175, Note_on_c, 6, 43, 0
7, 180, Note_on_c, 6, 42, 80
7, 202, Note_on_c, 6, 42, 0
7, 225, Note_on_c, 6, 43, 80
7, 235, Note_on_c, 6, 43, 0
7, 240, Note_on_c, 6, 40, 95
7, 270, Note_on_c, 6, 40, 0
7, 300, Note_on_c, 6, 35, 99
7, 330, Note_on_c, 6, 35, 0
7, 360, Note_on_c, 6, 38, 84
7, 375, Note_on_c, 6, 38, 0
7, 375, Note_on_c, 6, 36, 89
7, 385, Note_on_c, 6, 36, 0
7, 405, Note_on_c, 6, 35, 89
7, 415, Note_on_c, 6, 35, 0
7, 420, Note_on_c, 6, 36, 89
7, 442, Note_on_c, 6, 36, 0
7, 465, Note_on_c, 6, 36, 93
7, 475, Note_on_c, 6, 36, 0
7, 480, Note_on_c, 6, 36, 94
7, 600, Note_on_c, 6, 36, 0
7, 660, Note_on_c, 6, 48, 112
7, 682, Note_on_c, 6, 48, 0
7, 705, Note_on_c, 6, 47, 81
7, 715, Note_on_c, 6, 47, 0
7, 720, Note_on_c, 6, 45, 80
7, 742, Note_on_c, 6, 45, 0
7, 765, Note_on_c, 6, 43, 64
7, 775, Note_on_c, 6, 43, 0
7, 780, Note_on_c, 6, 42, 80
7, 802, Note_on_c, 6, 42, 0
7, 825, Note_on_c, 6, 43, 78
7, 835, Note_on_c, 6, 43, 0
7, 840, Note_on_c, 6, 45, 94
7, 870, Note_on_c, 6, 45, 0
7, 900, Note_on_c, 6, 36, 89
7, 930, Note_on_c, 6, 36, 0
7, 960, Note_on_c, 6, 35, 104
7, 990, Note_on_c, 6, 35, 0
7, 3120, Note_on_c, 6, 40, 89
7, 3180, Note_on_c, 6, 40, 0
7, 3285, Note_on_c, 6, 43, 78
7, 3295, Note_on_c, 6, 43, 0
7, 3300, Note_on_c, 6, 42, 81
7, 3322, Note_on_c, 6, 42, 0
7, 3345, Note_on_c, 6, 43, 77
7, 3355, Note_on_c, 6, 43, 0
7, 3360, Note_on_c, 6, 40, 94
7, 3390, Note_on_c, 6, 40, 0
7, 3420, Note_on_c, 6, 35, 93
7, 3450, Note_on_c, 6, 35, 0
7, 3480, Note_on_c, 6, 38, 86
7, 3495, Note_on_c, 6, 38, 0
7, 3495, Note_on_c, 6, 37, 84
7, 3517, Note_on_c, 6, 37, 0
7, 3525, Note_on_c, 6, 35, 90
7, 3535, Note_on_c, 6, 35, 0
7, 3540, Note_on_c, 6, 37, 81
7, 3562, Note_on_c, 6, 37, 0
7, 3585, Note_on_c, 6, 37, 84
7, 3595, Note_on_c, 6, 37, 0
7, 3600, Note_on_c, 6, 37, 74
7, 3630, Note_on_c, 6, 37, 0
7, 3660, Note_on_c, 6, 40, 89
7, 3682, Note_on_c, 6, 40, 0
7, 3705, Note_on_c, 6, 43, 84
7, 3715, Note_on_c, 6, 43, 0
7, 3720, Note_on_c, 6, 49, 89
7, 3750, Note_on_c, 6, 49, 0
7, 3780, Note_on_c, 6, 52, 95
7, 3810, Note_on_c, 6, 52, 0
7, 3840, Note_on_c, 6, 55, 90
7, 3870, Note_on_c, 6, 55, 0
7, 3945, Note_on_c, 6, 37, 81
7, 3955, Note_on_c, 6, 37, 0
7, 3960, Note_on_c, 6, 38, 86
7, 3990, Note_on_c, 6, 38, 0
7, 4065, Note_on_c, 6, 33, 101
7, 4075, Note_on_c, 6, 33, 0
7, 4080, Note_on_c, 6, 33, 99
7, 4110, Note_on_c, 6, 33, 0
7, 6000, Note_on_c, 6, 40, 80
7, 6060, Note_on_c, 6, 40, 0
7, 6165, Note_on_c, 6, 40, 67
7, 6175, Note_on_c, 6, 40, 0
7, 6180, Note_on_c, 6, 38, 73
7, 6202, Note_on_c, 6, 38, 0
7, 6225, Note_on_c, 6, 40, 82
7, 6235, Note_on_c, 6, 40, 0
7, 6240, Note_on_c, 6, 36, 69
7, 6262, Note_on_c, 6, 36, 0
7, 6285, Note_on_c, 6, 36, 74
7, 6295, Note_on_c, 6, 36, 0
7, 6300, Note_on_c, 6, 35, 81
7, 6322, Note_on_c, 6, 35, 0
7, 6345, Note_on_c, 6, 36, 73
7, 6355, Note_on_c, 6, 36, 0
7, 6360, Note_on_c, 6, 33, 86
7, 6390, Note_on_c, 6, 33, 0
7, 6420, Note_on_c, 6, 33, 85
7, 6450, Note_on_c, 6, 33, 0
7, 6480, Note_on_c, 6, 33, 86
7, 6540, Note_on_c, 6, 33, 0
7, 6885, Note_on_c, 6, 41, 81
7, 6895, Note_on_c, 6, 41, 0
7, 6900, Note_on_c, 6, 40, 84
7, 6922, Note_on_c, 6, 40, 0
7, 6945, Note_on_c, 6, 41, 84
7, 6955, Note_on_c, 6, 41, 0
7, 6960, Note_on_c, 6, 38, 74
7, 6982, Note_on_c, 6, 38, 0
7, 7005, Note_on_c, 6, 38, 74
7, 7015, Note_on_c, 6, 38, 0
7, 7020, Note_on_c, 6, 36, 72
7, 7042, Note_on_c, 6, 36, 0
7, 7065, Note_on_c, 6, 38, 76
7, 7075, Note_on_c, 6, 38, 0
7, 7080, Note_on_c, 6, 35, 77
7, 7110, Note_on_c, 6, 35, 0
7, 7140, Note_on_c, 6, 35, 93
7, 7170, Note_on_c, 6, 35, 0
7, 7200, Note_on_c, 6, 35, 84
7, 7320, Note_on_c, 6, 35, 0
7, 7665, Note_on_c, 6, 35, 95
7, 7680, Note_on_c, 6, 35, 0
7, 7680, Note_on_c, 6, 36, 76
7, 7740, Note_on_c, 6, 36, 0
7, 7905, Note_on_c, 6, 36, 72
7, 7920, Note_on_c, 6, 36, 0
7, 7920, Note_on_c, 6, 39, 89
7, 7980, Note_on_c, 6, 39, 0
7, 8145, Note_on_c, 6, 39, 84
7, 8160, Note_on_c, 6, 39, 0
7, 8160, Note_on_c, 6, 40, 94
7, 8190, Note_on_c, 6, 40, 0
7, 9045, Note_on_c, 6, 40, 57
7, 9055, Note_on_c, 6, 40, 0
7, 9060, Note_on_c, 6, 38, 44
7, 9082, Note_on_c, 6, 38, 0
7, 9105, Note_on_c, 6, 40, 54
7, 9115, Note_on_c, 6, 40, 0
7, 9120, Note_on_c, 6, 36, 43
7, 9142, Note_on_c, 6, 36, 0
7, 9165, Note_on_c, 6, 36, 44
7, 9175, Note_on_c, 6, 36, 0
7, 9180, Note_on_c, 6, 35, 55
7, 9202, Note_on_c, 6, 35, 0
7, 9225, Note_on_c, 6, 36, 45
7, 9235, Note_on_c, 6, 36, 0
7, 9240, Note_on_c, 6, 33, 40
7, 9270, Note_on_c, 6, 33, 0
7, 9300, Note_on_c, 6, 33, 50
7, 9330, Note_on_c, 6, 33, 0
7, 9360, Note_on_c, 6, 33, 43
7, 9420, Note_on_c, 6, 33, 0
7, 9765, Note_on_c, 6, 41, 56
7, 9775, Note_on_c, 6, 41, 0
7, 9780, Note_on_c, 6, 40, 49
7, 9802, Note_on_c, 6, 40, 0
7, 9825, Note_on_c, 6, 41, 54
7, 9835, Note_on_c, 6, 41, 0
7, 9840, Note_on_c, 6, 38, 57
7, 9862, Note_on_c, 6, 38, 0
7, 9885, Note_on_c, 6, 38, 45
7, 9895, Note_on_c, 6, 38, 0
7, 9900, Note_on_c, 6, 36, 44
7, 9922, Note_on_c, 6, 36, 0
7, 9945, Note_on_c, 6, 38, 43
7, 9955, Note_on_c, 6, 38, 0
7, 9960, Note_on_c, 6, 35, 43
7, 9990, Note_on_c, 6, 35, 0
7, 10020, Note_on_c, 6, 35, 45
7, 10050, Note_on_c, 6, 35, 0
7, 10080, Note_on_c, 6, 35, 39
7, 10140, Note_on_c, 6, 35, 0
7, 10545, Note_on_c, 6, 35, 40
7, 10560, Note_on_c, 6, 35, 0
7, 10560, Note_on_c, 6, 37, 43
7, 10620, Note_on_c, 6, 37, 0
7, 10785, Note_on_c, 6, 37, 43
7, 10800, Note_on_c, 6, 37, 0
7, 10800, Note_on_c, 6, 39, 45
7, 10860, Note_on_c, 6, 39, 0
7, 10920, Program_c, 6, 45
7, 11040, Note_on_c, 6, 40, 41
7, 11100, Note_on_c, 6, 40, 0
7, 11520, Note_on_c, 6, 33, 43
7, 11580, Note_on_c, 6, 33, 0
7, 12000, Note_on_c, 6, 35, 49
7, 12060, Note_on_c, 6, 35, 0
7, 12960, Note_on_c, 6, 35, 50
7, 13020, Note_on_c, 6, 35, 0
7, 19560, Program_c, 6, 49
7, 19680, Note_on_c, 6, 40, 62
7, 19740, Note_on_c, 6, 40, 0
7, 19845, Note_on_c, 6, 40, 56
7, 19855, Note_on_c, 6, 40, 0
7, 19860, Note_on_c, 6, 38, 56
7, 19882, Note_on_c, 6, 38, 0
7, 19905, Note_on_c, 6, 40, 62
7, 19915, Note_on_c, 6, 40, 0
7, 19920, Note_on_c, 6, 36, 52
7, 19980, Note_on_c, 6, 36, 0
7, 20085, Note_on_c, 6, 40, 61
7, 20095, Note_on_c, 6, 40, 0
7, 20100, Note_on_c, 6, 38, 53
7, 20122, Note_on_c, 6, 38, 0
7, 20145, Note_on_c, 6, 40, 59
7, 20155, Note_on_c, 6, 40, 0
7, 20160, Note_on_c, 6, 36, 46
7, 20220, Note_on_c, 6, 36, 0
7, 20325, Note_on_c, 6, 40, 65
7, 20335, Note_on_c, 6, 40, 0
7, 20340, Note_on_c, 6, 38, 62
7, 20362, Note_on_c, 6, 38, 0
7, 20385, Note_on_c, 6, 40, 67
7, 20395, Note_on_c, 6, 40, 0
7, 20400, Note_on_c, 6, 36, 59
7, 20520, Note_on_c, 6, 36, 0
7, 20520, Note_on_c, 6, 35, 61
7, 20580, Note_on_c, 6, 35, 0
7, 20580, Note_on_c, 6, 33, 64
7, 20640, Note_on_c, 6, 33, 0
7, 20640, Note_on_c, 6, 32, 52
7, 20880, Note_on_c, 6, 32, 0
7, 20880, Note_on_c, 6, 33, 51
7, 20940, Note_on_c, 6, 33, 0
7, 21120, Note_on_c, 6, 35, 64
7, 21360, Note_on_c, 6, 35, 0
7, 21360, Note_on_c, 6, 28, 65
7, 21450, Note_on_c, 6, 28, 0
7, 21480, Note_on_c, 6, 28, 64
7, 21570, Note_on_c, 6, 28, 0
7, 21600, Note_on_c, 6, 28, 66
7, 21840, Note_on_c, 6, 28, 0
7, 21840, End_track
8, 0, Start_track
8, 0, MIDI_port, 0
8, 0, Title_t, "Ludwig van Beethoven"
8, 0, End_track
9, 0, Start_track
9, 0, MIDI_port, 0
9, 0, Title_t, "Piano Concerto No. 4"
9, 0, End_track
10, 0, Start_track
10, 0, MIDI_port, 0
10, 0, Title_t, "in G Major, Op. 58"
10, 0, End_track
11, 0, Start_track
11, 0, MIDI_port, 0
11, 0, Title_t, "Mov't. 2 - Andante con moto"
11, 0, End_track
12, 0, Start_track
12, 0, MIDI_port, 0
12, 0, Title_t, "Sequenced by Bill Nemitz"
12, 0, End_track
13, 0, Start_track
13, 0, MIDI_port, 0
13, 0, Title_t, "Email at billnem@ix.netcom.com"
13, 0, End_track
14, 0, Start_track
14, 0, MIDI_port, 0
14, 0, End_track
15, 0, Start_track
15, 0, MIDI_port, 0
15, 0, End_track
0, 0, End_of_file