0, 0, Header, 1, 6, 192
1, 0, Start_track
1, 0, Title_t, "String Quartet No.1 - I"
1, 0, Copyright_t, "Copyright \251 2000 by S.E.Edwards All Rights Reserved"
1, 0, Text_t, "By Ludwig van Beethoven\012"
1, 0, Text_t, "Generated by NoteWorthy Composer\012"
1, 0, Time_signature, 3, 2, 24, 8
1, 0, Key_signature, -1, "major"
1, 0, Tempo, 379747
1, 65664, Tempo, 379747
1, 65664, End_track
2, 0, Start_track
2, 0, Title_t, "Violino I."
2, 0, Program_c, 1, 48
2, 0, Control_c, 1, 7, 127
2, 0, Control_c, 1, 10, 64
2, 0, Note_on_c, 1, 65, 60
2, 288, Note_on_c, 1, 65, 0
2, 288, Note_on_c, 1, 67, 60
2, 336, Note_on_c, 1, 67, 0
2, 336, Note_on_c, 1, 65, 60
2, 382, Note_on_c, 1, 65, 0
2, 384, Note_on_c, 1, 64, 60
2, 416, Note_on_c, 1, 64, 0
2, 480, Note_on_c, 1, 65, 60
2, 512, Note_on_c, 1, 65, 0
2, 576, Note_on_c, 1, 60, 60
2, 736, Note_on_c, 1, 60, 0
2, 1152, Note_on_c, 1, 65, 60
2, 1440, Note_on_c, 1, 65, 0
2, 1440, Note_on_c, 1, 67, 60
2, 1488, Note_on_c, 1, 67, 0
2, 1488, Note_on_c, 1, 65, 60
2, 1534, Note_on_c, 1, 65, 0
2, 1536, Note_on_c, 1, 64, 60
2, 1568, Note_on_c, 1, 64, 0
2, 1632, Note_on_c, 1, 65, 60
2, 1664, Note_on_c, 1, 65, 0
2, 1728, Note_on_c, 1, 62, 60
2, 1888, Note_on_c, 1, 62, 0
2, 2304, Note_on_c, 1, 77, 45
2, 2592, Note_on_c, 1, 77, 0
2, 2592, Note_on_c, 1, 79, 68
2, 2640, Note_on_c, 1, 79, 0
2, 2640, Note_on_c, 1, 77, 72
2, 2686, Note_on_c, 1, 77, 0
2, 2688, Note_on_c, 1, 76, 76
2, 2720, Note_on_c, 1, 76, 0
2, 2784, Note_on_c, 1, 77, 84
2, 2816, Note_on_c, 1, 77, 0
2, 2880, Note_on_c, 1, 79, 92
2, 3264, Note_on_c, 1, 79, 0
2, 3264, Note_on_c, 1, 70, 61
2, 3424, Note_on_c, 1, 70, 0
2, 3456, Note_on_c, 1, 69, 45
2, 3840, Note_on_c, 1, 69, 0
2, 3840, Note_on_c, 1, 74, 45
2, 3984, Note_on_c, 1, 74, 0
2, 3984, Note_on_c, 1, 70, 45
2, 4030, Note_on_c, 1, 70, 0
2, 4032, Note_on_c, 1, 69, 45
2, 4416, Note_on_c, 1, 69, 0
2, 4416, Note_on_c, 1, 67, 45
2, 4576, Note_on_c, 1, 67, 0
2, 4608, Note_on_c, 1, 65, 108
2, 4896, Note_on_c, 1, 65, 0
2, 4896, Note_on_c, 1, 67, 108
2, 4944, Note_on_c, 1, 67, 0
2, 4944, Note_on_c, 1, 65, 108
2, 4990, Note_on_c, 1, 65, 0
2, 4992, Note_on_c, 1, 64, 108
2, 5024, Note_on_c, 1, 64, 0
2, 5088, Note_on_c, 1, 65, 108
2, 5120, Note_on_c, 1, 65, 0
2, 5184, Note_on_c, 1, 60, 108
2, 5344, Note_on_c, 1, 60, 0
2, 5760, Note_on_c, 1, 65, 108
2, 6048, Note_on_c, 1, 65, 0
2, 6048, Note_on_c, 1, 67, 108
2, 6096, Note_on_c, 1, 67, 0
2, 6096, Note_on_c, 1, 65, 108
2, 6142, Note_on_c, 1, 65, 0
2, 6144, Note_on_c, 1, 64, 108
2, 6176, Note_on_c, 1, 64, 0
2, 6240, Note_on_c, 1, 65, 108
2, 6272, Note_on_c, 1, 65, 0
2, 6336, Note_on_c, 1, 62, 108
2, 6496, Note_on_c, 1, 62, 0
2, 6912, Note_on_c, 1, 77, 45
2, 7200, Note_on_c, 1, 77, 0
2, 7200, Note_on_c, 1, 79, 45
2, 7248, Note_on_c, 1, 79, 0
2, 7248, Note_on_c, 1, 77, 45
2, 7294, Note_on_c, 1, 77, 0
2, 7296, Note_on_c, 1, 76, 45
2, 7328, Note_on_c, 1, 76, 0
2, 7392, Note_on_c, 1, 77, 45
2, 7424, Note_on_c, 1, 77, 0
2, 7488, Note_on_c, 1, 81, 45
2, 7872, Note_on_c, 1, 81, 0
2, 7872, Note_on_c, 1, 79, 92
2, 8032, Note_on_c, 1, 79, 0
2, 8064, Note_on_c, 1, 79, 45
2, 8352, Note_on_c, 1, 79, 0
2, 8352, Note_on_c, 1, 81, 45
2, 8400, Note_on_c, 1, 81, 0
2, 8400, Note_on_c, 1, 79, 45
2, 8446, Note_on_c, 1, 79, 0
2, 8448, Note_on_c, 1, 78, 45
2, 8480, Note_on_c, 1, 78, 0
2, 8544, Note_on_c, 1, 79, 45
2, 8576, Note_on_c, 1, 79, 0
2, 8640, Note_on_c, 1, 82, 45
2, 9024, Note_on_c, 1, 82, 0
2, 9024, Note_on_c, 1, 81, 92
2, 9184, Note_on_c, 1, 81, 0
2, 9216, Note_on_c, 1, 81, 45
2, 9504, Note_on_c, 1, 81, 0
2, 9504, Note_on_c, 1, 82, 45
2, 9552, Note_on_c, 1, 82, 0
2, 9552, Note_on_c, 1, 81, 45
2, 9598, Note_on_c, 1, 81, 0
2, 9600, Note_on_c, 1, 79, 45
2, 9632, Note_on_c, 1, 79, 0
2, 9696, Note_on_c, 1, 81, 45
2, 9728, Note_on_c, 1, 81, 0
2, 9792, Note_on_c, 1, 84, 45
2, 10080, Note_on_c, 1, 84, 0
2, 10080, Note_on_c, 1, 82, 56
2, 10176, Note_on_c, 1, 82, 0
2, 10176, Note_on_c, 1, 81, 60
2, 10272, Note_on_c, 1, 81, 0
2, 10272, Note_on_c, 1, 79, 64
2, 10366, Note_on_c, 1, 79, 0
2, 10368, Note_on_c, 1, 77, 68
2, 10656, Note_on_c, 1, 77, 0
2, 10656, Note_on_c, 1, 79, 80
2, 10680, Note_on_c, 1, 79, 0
2, 10680, Note_on_c, 1, 77, 80
2, 10704, Note_on_c, 1, 77, 0
2, 10704, Note_on_c, 1, 76, 80
2, 10728, Note_on_c, 1, 76, 0
2, 10728, Note_on_c, 1, 77, 80
2, 10752, Note_on_c, 1, 77, 0
2, 10752, Note_on_c, 1, 81, 80
2, 10848, Note_on_c, 1, 81, 0
2, 10848, Note_on_c, 1, 79, 88
2, 10942, Note_on_c, 1, 79, 0
2, 10944, Note_on_c, 1, 77, 45
2, 11104, Note_on_c, 1, 77, 0
2, 12096, Note_on_c, 1, 77, 63
2, 12384, Note_on_c, 1, 77, 0
2, 12384, Note_on_c, 1, 79, 45
2, 12432, Note_on_c, 1, 79, 0
2, 12432, Note_on_c, 1, 77, 45
2, 12478, Note_on_c, 1, 77, 0
2, 12480, Note_on_c, 1, 76, 45
2, 12512, Note_on_c, 1, 76, 0
2, 12576, Note_on_c, 1, 77, 45
2, 12608, Note_on_c, 1, 77, 0
2, 13248, Note_on_c, 1, 79, 63
2, 13536, Note_on_c, 1, 79, 0
2, 13536, Note_on_c, 1, 81, 45
2, 13584, Note_on_c, 1, 81, 0
2, 13584, Note_on_c, 1, 79, 45
2, 13630, Note_on_c, 1, 79, 0
2, 13632, Note_on_c, 1, 78, 45
2, 13664, Note_on_c, 1, 78, 0
2, 13728, Note_on_c, 1, 79, 45
2, 13760, Note_on_c, 1, 79, 0
2, 14400, Note_on_c, 1, 84, 63
2, 14688, Note_on_c, 1, 84, 0
2, 14688, Note_on_c, 1, 86, 45
2, 14736, Note_on_c, 1, 86, 0
2, 14736, Note_on_c, 1, 84, 45
2, 14782, Note_on_c, 1, 84, 0
2, 14784, Note_on_c, 1, 83, 45
2, 14816, Note_on_c, 1, 83, 0
2, 14880, Note_on_c, 1, 84, 45
2, 14912, Note_on_c, 1, 84, 0
2, 14976, Note_on_c, 1, 86, 63
2, 15264, Note_on_c, 1, 86, 0
2, 15264, Note_on_c, 1, 87, 45
2, 15312, Note_on_c, 1, 87, 0
2, 15312, Note_on_c, 1, 86, 45
2, 15358, Note_on_c, 1, 86, 0
2, 15360, Note_on_c, 1, 85, 45
2, 15392, Note_on_c, 1, 85, 0
2, 15456, Note_on_c, 1, 86, 45
2, 15550, Note_on_c, 1, 86, 0
2, 15552, Note_on_c, 1, 88, 92
2, 15600, Note_on_c, 1, 88, 0
2, 15744, Note_on_c, 1, 88, 92
2, 15792, Note_on_c, 1, 88, 0
2, 15936, Note_on_c, 1, 88, 92
2, 15984, Note_on_c, 1, 88, 0
2, 16128, Note_on_c, 1, 89, 92
2, 16288, Note_on_c, 1, 89, 0
2, 16992, Note_on_c, 1, 69, 45
2, 17086, Note_on_c, 1, 69, 0
2, 17088, Note_on_c, 1, 70, 45
2, 17118, Note_on_c, 1, 70, 0
2, 17120, Note_on_c, 1, 69, 45
2, 17152, Note_on_c, 1, 69, 0
2, 17152, Note_on_c, 1, 70, 45
2, 17184, Note_on_c, 1, 70, 0
2, 17184, Note_on_c, 1, 69, 45
2, 17216, Note_on_c, 1, 69, 0
2, 17216, Note_on_c, 1, 67, 45
2, 17248, Note_on_c, 1, 67, 0
2, 17248, Note_on_c, 1, 69, 45
2, 17280, Note_on_c, 1, 69, 0
2, 17280, Note_on_c, 1, 72, 45
2, 17568, Note_on_c, 1, 72, 0
2, 17568, Note_on_c, 1, 70, 45
2, 17662, Note_on_c, 1, 70, 0
2, 17664, Note_on_c, 1, 67, 45
2, 17696, Note_on_c, 1, 67, 0
2, 17760, Note_on_c, 1, 65, 45
2, 17792, Note_on_c, 1, 65, 0
2, 17856, Note_on_c, 1, 64, 60
2, 18016, Note_on_c, 1, 64, 0
2, 18144, Note_on_c, 1, 70, 45
2, 18238, Note_on_c, 1, 70, 0
2, 18240, Note_on_c, 1, 72, 45
2, 18272, Note_on_c, 1, 72, 0
2, 18272, Note_on_c, 1, 70, 45
2, 18304, Note_on_c, 1, 70, 0
2, 18304, Note_on_c, 1, 72, 45
2, 18336, Note_on_c, 1, 72, 0
2, 18336, Note_on_c, 1, 70, 45
2, 18368, Note_on_c, 1, 70, 0
2, 18368, Note_on_c, 1, 69, 45
2, 18400, Note_on_c, 1, 69, 0
2, 18400, Note_on_c, 1, 70, 45
2, 18430, Note_on_c, 1, 70, 0
2, 18432, Note_on_c, 1, 74, 45
2, 18720, Note_on_c, 1, 74, 0
2, 18720, Note_on_c, 1, 72, 45
2, 18814, Note_on_c, 1, 72, 0
2, 18816, Note_on_c, 1, 69, 45
2, 18848, Note_on_c, 1, 69, 0
2, 18912, Note_on_c, 1, 67, 45
2, 18944, Note_on_c, 1, 67, 0
2, 19008, Note_on_c, 1, 65, 60
2, 19168, Note_on_c, 1, 65, 0
2, 19296, Note_on_c, 1, 77, 45
2, 19390, Note_on_c, 1, 77, 0
2, 19392, Note_on_c, 1, 79, 45
2, 19424, Note_on_c, 1, 79, 0
2, 19424, Note_on_c, 1, 77, 45
2, 19456, Note_on_c, 1, 77, 0
2, 19456, Note_on_c, 1, 79, 45
2, 19488, Note_on_c, 1, 79, 0
2, 19488, Note_on_c, 1, 77, 45
2, 19520, Note_on_c, 1, 77, 0
2, 19520, Note_on_c, 1, 76, 45
2, 19552, Note_on_c, 1, 76, 0
2, 19552, Note_on_c, 1, 77, 45
2, 19582, Note_on_c, 1, 77, 0
2, 19584, Note_on_c, 1, 81, 45
2, 19872, Note_on_c, 1, 81, 0
2, 19872, Note_on_c, 1, 79, 45
2, 19966, Note_on_c, 1, 79, 0
2, 19968, Note_on_c, 1, 79, 45
2, 20000, Note_on_c, 1, 79, 0
2, 20064, Note_on_c, 1, 77, 45
2, 20096, Note_on_c, 1, 77, 0
2, 20160, Note_on_c, 1, 77, 45
2, 20256, Note_on_c, 1, 77, 0
2, 20256, Note_on_c, 1, 76, 45
2, 20350, Note_on_c, 1, 76, 0
2, 20352, Note_on_c, 1, 76, 45
2, 20384, Note_on_c, 1, 76, 0
2, 20448, Note_on_c, 1, 74, 45
2, 20480, Note_on_c, 1, 74, 0
2, 20544, Note_on_c, 1, 72, 45
2, 20576, Note_on_c, 1, 72, 0
2, 20640, Note_on_c, 1, 70, 45
2, 20672, Note_on_c, 1, 70, 0
2, 20736, Note_on_c, 1, 69, 45
2, 21406, Note_on_c, 1, 69, 0
2, 21408, Note_on_c, 1, 71, 45
2, 21456, Note_on_c, 1, 71, 0
2, 21456, Note_on_c, 1, 73, 45
2, 21504, Note_on_c, 1, 73, 0
2, 21504, Note_on_c, 1, 74, 45
2, 21552, Note_on_c, 1, 74, 0
2, 21552, Note_on_c, 1, 76, 45
2, 21600, Note_on_c, 1, 76, 0
2, 21600, Note_on_c, 1, 77, 45
2, 21648, Note_on_c, 1, 77, 0
2, 21648, Note_on_c, 1, 76, 45
2, 21696, Note_on_c, 1, 76, 0
2, 21696, Note_on_c, 1, 74, 45
2, 21744, Note_on_c, 1, 74, 0
2, 21744, Note_on_c, 1, 72, 45
2, 21792, Note_on_c, 1, 72, 0
2, 21792, Note_on_c, 1, 71, 45
2, 21840, Note_on_c, 1, 71, 0
2, 21840, Note_on_c, 1, 69, 45
2, 21886, Note_on_c, 1, 69, 0
2, 21888, Note_on_c, 1, 67, 45
2, 22558, Note_on_c, 1, 67, 0
2, 22560, Note_on_c, 1, 69, 45
2, 22608, Note_on_c, 1, 69, 0
2, 22608, Note_on_c, 1, 71, 45
2, 22656, Note_on_c, 1, 71, 0
2, 22656, Note_on_c, 1, 72, 45
2, 22704, Note_on_c, 1, 72, 0
2, 22704, Note_on_c, 1, 71, 45
2, 22752, Note_on_c, 1, 71, 0
2, 22752, Note_on_c, 1, 72, 45
2, 22800, Note_on_c, 1, 72, 0
2, 22800, Note_on_c, 1, 71, 45
2, 22848, Note_on_c, 1, 71, 0
2, 22848, Note_on_c, 1, 72, 45
2, 22896, Note_on_c, 1, 72, 0
2, 22896, Note_on_c, 1, 71, 45
2, 22944, Note_on_c, 1, 71, 0
2, 22944, Note_on_c, 1, 72, 45
2, 22992, Note_on_c, 1, 72, 0
2, 22992, Note_on_c, 1, 71, 45
2, 23038, Note_on_c, 1, 71, 0
2, 23040, Note_on_c, 1, 72, 30
2, 23904, Note_on_c, 1, 72, 0
2, 23904, Note_on_c, 1, 73, 30
2, 23952, Note_on_c, 1, 73, 0
2, 23952, Note_on_c, 1, 72, 30
2, 23998, Note_on_c, 1, 72, 0
2, 24000, Note_on_c, 1, 70, 30
2, 24032, Note_on_c, 1, 70, 0
2, 24096, Note_on_c, 1, 72, 30
2, 24128, Note_on_c, 1, 72, 0
2, 24192, Note_on_c, 1, 75, 30
2, 24480, Note_on_c, 1, 75, 0
2, 24480, Note_on_c, 1, 73, 30
2, 24574, Note_on_c, 1, 73, 0
2, 24576, Note_on_c, 1, 70, 30
2, 24608, Note_on_c, 1, 70, 0
2, 24672, Note_on_c, 1, 68, 30
2, 24704, Note_on_c, 1, 68, 0
2, 24768, Note_on_c, 1, 67, 30
2, 24928, Note_on_c, 1, 67, 0
2, 25056, Note_on_c, 1, 75, 30
2, 25104, Note_on_c, 1, 75, 0
2, 25104, Note_on_c, 1, 73, 30
2, 25150, Note_on_c, 1, 73, 0
2, 25152, Note_on_c, 1, 72, 30
2, 25184, Note_on_c, 1, 72, 0
2, 25248, Note_on_c, 1, 73, 30
2, 25280, Note_on_c, 1, 73, 0
2, 25344, Note_on_c, 1, 77, 30
2, 25632, Note_on_c, 1, 77, 0
2, 25632, Note_on_c, 1, 75, 30
2, 25726, Note_on_c, 1, 75, 0
2, 25728, Note_on_c, 1, 72, 30
2, 25760, Note_on_c, 1, 72, 0
2, 25824, Note_on_c, 1, 70, 30
2, 25856, Note_on_c, 1, 70, 0
2, 25920, Note_on_c, 1, 69, 30
2, 26080, Note_on_c, 1, 69, 0
2, 26208, Note_on_c, 1, 77, 30
2, 26256, Note_on_c, 1, 77, 0
2, 26256, Note_on_c, 1, 75, 33
2, 26302, Note_on_c, 1, 75, 0
2, 26304, Note_on_c, 1, 74, 36
2, 26336, Note_on_c, 1, 74, 0
2, 26400, Note_on_c, 1, 75, 43
2, 26432, Note_on_c, 1, 75, 0
2, 26496, Note_on_c, 1, 77, 70
2, 27024, Note_on_c, 1, 77, 0
2, 27072, Note_on_c, 1, 75, 92
2, 27120, Note_on_c, 1, 75, 0
2, 27264, Note_on_c, 1, 74, 92
2, 27312, Note_on_c, 1, 74, 0
2, 27456, Note_on_c, 1, 72, 92
2, 27504, Note_on_c, 1, 72, 0
2, 27648, Note_on_c, 1, 71, 92
2, 27680, Note_on_c, 1, 71, 0
2, 27696, Note_on_c, 1, 67, 45
2, 27728, Note_on_c, 1, 67, 0
2, 27744, Note_on_c, 1, 69, 45
2, 27776, Note_on_c, 1, 69, 0
2, 27792, Note_on_c, 1, 71, 45
2, 27824, Note_on_c, 1, 71, 0
2, 27840, Note_on_c, 1, 72, 45
2, 27872, Note_on_c, 1, 72, 0
2, 27888, Note_on_c, 1, 74, 45
2, 27920, Note_on_c, 1, 74, 0
2, 27936, Note_on_c, 1, 76, 45
2, 27968, Note_on_c, 1, 76, 0
2, 27984, Note_on_c, 1, 78, 45
2, 28016, Note_on_c, 1, 78, 0
2, 28032, Note_on_c, 1, 79, 45
2, 28064, Note_on_c, 1, 79, 0
2, 28080, Note_on_c, 1, 78, 45
2, 28112, Note_on_c, 1, 78, 0
2, 28128, Note_on_c, 1, 79, 45
2, 28160, Note_on_c, 1, 79, 0
2, 28176, Note_on_c, 1, 78, 45
2, 28208, Note_on_c, 1, 78, 0
2, 28224, Note_on_c, 1, 79, 45
2, 28384, Note_on_c, 1, 79, 0
2, 28512, Note_on_c, 1, 83, 45
2, 28544, Note_on_c, 1, 83, 0
2, 28608, Note_on_c, 1, 83, 45
2, 28640, Note_on_c, 1, 83, 0
2, 28704, Note_on_c, 1, 84, 45
2, 28736, Note_on_c, 1, 84, 0
2, 28800, Note_on_c, 1, 83, 45
2, 28846, Note_on_c, 1, 83, 0
2, 28848, Note_on_c, 1, 67, 45
2, 28894, Note_on_c, 1, 67, 0
2, 28896, Note_on_c, 1, 69, 46
2, 28942, Note_on_c, 1, 69, 0
2, 28944, Note_on_c, 1, 71, 47
2, 28990, Note_on_c, 1, 71, 0
2, 28992, Note_on_c, 1, 72, 48
2, 29038, Note_on_c, 1, 72, 0
2, 29040, Note_on_c, 1, 74, 49
2, 29086, Note_on_c, 1, 74, 0
2, 29088, Note_on_c, 1, 76, 50
2, 29134, Note_on_c, 1, 76, 0
2, 29136, Note_on_c, 1, 78, 51
2, 29182, Note_on_c, 1, 78, 0
2, 29184, Note_on_c, 1, 79, 52
2, 29230, Note_on_c, 1, 79, 0
2, 29232, Note_on_c, 1, 78, 54
2, 29278, Note_on_c, 1, 78, 0
2, 29280, Note_on_c, 1, 79, 56
2, 29326, Note_on_c, 1, 79, 0
2, 29328, Note_on_c, 1, 78, 58
2, 29374, Note_on_c, 1, 78, 0
2, 29376, Note_on_c, 1, 79, 59
2, 29536, Note_on_c, 1, 79, 0
2, 29664, Note_on_c, 1, 83, 71
2, 29696, Note_on_c, 1, 83, 0
2, 29760, Note_on_c, 1, 83, 75
2, 29792, Note_on_c, 1, 83, 0
2, 29856, Note_on_c, 1, 84, 79
2, 29888, Note_on_c, 1, 84, 0
2, 29952, Note_on_c, 1, 83, 83
2, 29998, Note_on_c, 1, 83, 0
2, 30000, Note_on_c, 1, 55, 85
2, 30046, Note_on_c, 1, 55, 0
2, 30048, Note_on_c, 1, 57, 87
2, 30094, Note_on_c, 1, 57, 0
2, 30096, Note_on_c, 1, 59, 89
2, 30142, Note_on_c, 1, 59, 0
2, 30144, Note_on_c, 1, 60, 91
2, 30190, Note_on_c, 1, 60, 0
2, 30192, Note_on_c, 1, 62, 93
2, 30238, Note_on_c, 1, 62, 0
2, 30240, Note_on_c, 1, 64, 95
2, 30286, Note_on_c, 1, 64, 0
2, 30288, Note_on_c, 1, 66, 97
2, 30334, Note_on_c, 1, 66, 0
2, 30336, Note_on_c, 1, 67, 99
2, 30382, Note_on_c, 1, 67, 0
2, 30384, Note_on_c, 1, 66, 101
2, 30430, Note_on_c, 1, 66, 0
2, 30432, Note_on_c, 1, 67, 103
2, 30478, Note_on_c, 1, 67, 0
2, 30480, Note_on_c, 1, 66, 105
2, 30526, Note_on_c, 1, 66, 0
2, 30528, Note_on_c, 1, 67, 108
2, 30574, Note_on_c, 1, 67, 0
2, 30576, Note_on_c, 1, 67, 108
2, 30622, Note_on_c, 1, 67, 0
2, 30624, Note_on_c, 1, 69, 108
2, 30670, Note_on_c, 1, 69, 0
2, 30672, Note_on_c, 1, 71, 108
2, 30718, Note_on_c, 1, 71, 0
2, 30720, Note_on_c, 1, 72, 108
2, 30766, Note_on_c, 1, 72, 0
2, 30768, Note_on_c, 1, 74, 108
2, 30814, Note_on_c, 1, 74, 0
2, 30816, Note_on_c, 1, 76, 108
2, 30862, Note_on_c, 1, 76, 0
2, 30864, Note_on_c, 1, 78, 108
2, 30910, Note_on_c, 1, 78, 0
2, 30912, Note_on_c, 1, 79, 108
2, 30958, Note_on_c, 1, 79, 0
2, 30960, Note_on_c, 1, 78, 108
2, 31006, Note_on_c, 1, 78, 0
2, 31008, Note_on_c, 1, 79, 108
2, 31054, Note_on_c, 1, 79, 0
2, 31056, Note_on_c, 1, 78, 108
2, 31102, Note_on_c, 1, 78, 0
2, 31104, Note_on_c, 1, 79, 108
2, 31198, Note_on_c, 1, 79, 0
2, 31200, Note_on_c, 1, 79, 108
2, 31360, Note_on_c, 1, 79, 0
2, 31392, Note_on_c, 1, 79, 108
2, 31552, Note_on_c, 1, 79, 0
2, 31584, Note_on_c, 1, 79, 108
2, 31680, Note_on_c, 1, 79, 0
2, 31680, Note_on_c, 1, 80, 108
2, 31774, Note_on_c, 1, 80, 0
2, 31776, Note_on_c, 1, 80, 98
2, 31936, Note_on_c, 1, 80, 0
2, 31968, Note_on_c, 1, 80, 77
2, 32128, Note_on_c, 1, 80, 0
2, 32160, Note_on_c, 1, 80, 56
2, 32256, Note_on_c, 1, 80, 0
2, 32256, Note_on_c, 1, 81, 45
2, 32350, Note_on_c, 1, 81, 0
2, 32352, Note_on_c, 1, 81, 45
2, 32448, Note_on_c, 1, 81, 0
2, 32448, Note_on_c, 1, 77, 45
2, 32542, Note_on_c, 1, 77, 0
2, 32544, Note_on_c, 1, 77, 45
2, 32640, Note_on_c, 1, 77, 0
2, 32640, Note_on_c, 1, 74, 45
2, 32734, Note_on_c, 1, 74, 0
2, 32736, Note_on_c, 1, 74, 45
2, 32832, Note_on_c, 1, 74, 0
2, 32832, Note_on_c, 1, 71, 45
2, 32926, Note_on_c, 1, 71, 0
2, 32928, Note_on_c, 1, 71, 45
2, 33024, Note_on_c, 1, 71, 0
2, 33024, Note_on_c, 1, 67, 45
2, 33118, Note_on_c, 1, 67, 0
2, 33120, Note_on_c, 1, 67, 45
2, 33216, Note_on_c, 1, 67, 0
2, 33216, Note_on_c, 1, 71, 45
2, 33310, Note_on_c, 1, 71, 0
2, 33312, Note_on_c, 1, 71, 45
2, 33408, Note_on_c, 1, 71, 0
2, 33408, Note_on_c, 1, 72, 45
2, 33502, Note_on_c, 1, 72, 0
2, 33504, Note_on_c, 1, 72, 45
2, 33600, Note_on_c, 1, 72, 0
2, 33600, Note_on_c, 1, 74, 45
2, 33694, Note_on_c, 1, 74, 0
2, 33696, Note_on_c, 1, 74, 45
2, 33792, Note_on_c, 1, 74, 0
2, 33792, Note_on_c, 1, 76, 45
2, 33886, Note_on_c, 1, 76, 0
2, 33888, Note_on_c, 1, 76, 45
2, 33984, Note_on_c, 1, 76, 0
2, 33984, Note_on_c, 1, 79, 45
2, 34176, Note_on_c, 1, 79, 0
2, 34176, Note_on_c, 1, 77, 45
2, 34336, Note_on_c, 1, 77, 0
2, 35520, Note_on_c, 1, 80, 45
2, 35712, Note_on_c, 1, 80, 0
2, 35712, Note_on_c, 1, 81, 45
2, 35904, Note_on_c, 1, 81, 0
2, 35904, Note_on_c, 1, 84, 45
2, 36096, Note_on_c, 1, 84, 0
2, 36096, Note_on_c, 1, 78, 45
2, 36256, Note_on_c, 1, 78, 0
2, 36288, Note_on_c, 1, 81, 45
2, 36480, Note_on_c, 1, 81, 0
2, 36480, Note_on_c, 1, 79, 45
2, 36574, Note_on_c, 1, 79, 0
2, 37824, Note_on_c, 1, 77, 45
2, 37856, Note_on_c, 1, 77, 0
2, 37920, Note_on_c, 1, 77, 45
2, 38016, Note_on_c, 1, 77, 0
2, 38016, Note_on_c, 1, 76, 45
2, 38110, Note_on_c, 1, 76, 0
2, 38112, Note_on_c, 1, 76, 45
2, 38208, Note_on_c, 1, 76, 0
2, 38208, Note_on_c, 1, 74, 45
2, 38302, Note_on_c, 1, 74, 0
2, 38304, Note_on_c, 1, 74, 45
2, 38400, Note_on_c, 1, 74, 0
2, 38400, Note_on_c, 1, 72, 45
2, 38494, Note_on_c, 1, 72, 0
2, 38496, Note_on_c, 1, 72, 45
2, 38590, Note_on_c, 1, 72, 0
2, 38592, Note_on_c, 1, 72, 45
2, 38784, Note_on_c, 1, 72, 0
2, 38784, Note_on_c, 1, 71, 45
2, 38878, Note_on_c, 1, 71, 0
2, 39552, Note_on_c, 1, 80, 45
2, 39936, Note_on_c, 1, 80, 0
2, 39936, Note_on_c, 1, 79, 53
2, 40128, Note_on_c, 1, 79, 0
2, 40128, Note_on_c, 1, 84, 57
2, 40288, Note_on_c, 1, 84, 0
2, 40320, Note_on_c, 1, 84, 86
2, 40704, Note_on_c, 1, 84, 0
2, 40704, Note_on_c, 1, 86, 72
2, 40848, Note_on_c, 1, 86, 0
2, 40848, Note_on_c, 1, 83, 75
2, 40894, Note_on_c, 1, 83, 0
2, 40896, Note_on_c, 1, 84, 76
2, 41056, Note_on_c, 1, 84, 0
2, 41472, Note_on_c, 1, 76, 45
2, 41760, Note_on_c, 1, 76, 0
2, 41760, Note_on_c, 1, 77, 45
2, 41808, Note_on_c, 1, 77, 0
2, 41808, Note_on_c, 1, 76, 45
2, 41854, Note_on_c, 1, 76, 0
2, 41856, Note_on_c, 1, 74, 45
2, 41888, Note_on_c, 1, 74, 0
2, 41952, Note_on_c, 1, 72, 45
2, 41984, Note_on_c, 1, 72, 0
2, 42048, Note_on_c, 1, 71, 45
2, 42208, Note_on_c, 1, 71, 0
2, 42624, Note_on_c, 1, 77, 45
2, 42912, Note_on_c, 1, 77, 0
2, 42912, Note_on_c, 1, 79, 45
2, 42960, Note_on_c, 1, 79, 0
2, 42960, Note_on_c, 1, 77, 47
2, 43006, Note_on_c, 1, 77, 0
2, 43008, Note_on_c, 1, 76, 49
2, 43040, Note_on_c, 1, 76, 0
2, 43104, Note_on_c, 1, 74, 54
2, 43136, Note_on_c, 1, 74, 0
2, 43200, Note_on_c, 1, 73, 59
2, 43360, Note_on_c, 1, 73, 0
2, 43776, Note_on_c, 1, 82, 92
2, 44062, Note_on_c, 1, 82, 0
2, 44064, Note_on_c, 1, 81, 92
2, 44112, Note_on_c, 1, 81, 0
2, 44112, Note_on_c, 1, 79, 92
2, 44160, Note_on_c, 1, 79, 0
2, 44160, Note_on_c, 1, 77, 92
2, 44208, Note_on_c, 1, 77, 0
2, 44208, Note_on_c, 1, 76, 92
2, 44256, Note_on_c, 1, 76, 0
2, 44256, Note_on_c, 1, 74, 92
2, 44304, Note_on_c, 1, 74, 0
2, 44304, Note_on_c, 1, 73, 92
2, 44350, Note_on_c, 1, 73, 0
2, 44352, Note_on_c, 1, 74, 92
2, 44384, Note_on_c, 1, 74, 0
2, 44400, Note_on_c, 1, 69, 45
2, 44432, Note_on_c, 1, 69, 0
2, 44448, Note_on_c, 1, 71, 45
2, 44480, Note_on_c, 1, 71, 0
2, 44496, Note_on_c, 1, 73, 45
2, 44528, Note_on_c, 1, 73, 0
2, 44544, Note_on_c, 1, 74, 45
2, 44576, Note_on_c, 1, 74, 0
2, 44592, Note_on_c, 1, 76, 45
2, 44624, Note_on_c, 1, 76, 0
2, 44640, Note_on_c, 1, 77, 45
2, 44672, Note_on_c, 1, 77, 0
2, 44688, Note_on_c, 1, 76, 45
2, 44720, Note_on_c, 1, 76, 0
2, 44736, Note_on_c, 1, 74, 45
2, 44768, Note_on_c, 1, 74, 0
2, 44784, Note_on_c, 1, 69, 45
2, 44816, Note_on_c, 1, 69, 0
2, 44832, Note_on_c, 1, 71, 45
2, 44864, Note_on_c, 1, 71, 0
2, 44880, Note_on_c, 1, 73, 45
2, 44912, Note_on_c, 1, 73, 0
2, 44928, Note_on_c, 1, 74, 45
2, 44974, Note_on_c, 1, 74, 0
2, 44976, Note_on_c, 1, 76, 45
2, 45022, Note_on_c, 1, 76, 0
2, 45024, Note_on_c, 1, 77, 45
2, 45070, Note_on_c, 1, 77, 0
2, 45072, Note_on_c, 1, 76, 45
2, 45118, Note_on_c, 1, 76, 0
2, 45120, Note_on_c, 1, 74, 45
2, 45166, Note_on_c, 1, 74, 0
2, 45168, Note_on_c, 1, 69, 46
2, 45214, Note_on_c, 1, 69, 0
2, 45216, Note_on_c, 1, 71, 47
2, 45262, Note_on_c, 1, 71, 0
2, 45264, Note_on_c, 1, 73, 48
2, 45310, Note_on_c, 1, 73, 0
2, 45312, Note_on_c, 1, 74, 49
2, 45358, Note_on_c, 1, 74, 0
2, 45360, Note_on_c, 1, 76, 50
2, 45406, Note_on_c, 1, 76, 0
2, 45408, Note_on_c, 1, 77, 51
2, 45454, Note_on_c, 1, 77, 0
2, 45456, Note_on_c, 1, 76, 52
2, 45502, Note_on_c, 1, 76, 0
2, 45504, Note_on_c, 1, 74, 53
2, 45550, Note_on_c, 1, 74, 0
2, 45552, Note_on_c, 1, 69, 54
2, 45598, Note_on_c, 1, 69, 0
2, 45600, Note_on_c, 1, 71, 55
2, 45646, Note_on_c, 1, 71, 0
2, 45648, Note_on_c, 1, 73, 56
2, 45694, Note_on_c, 1, 73, 0
2, 45696, Note_on_c, 1, 74, 57
2, 45742, Note_on_c, 1, 74, 0
2, 45744, Note_on_c, 1, 76, 58
2, 45790, Note_on_c, 1, 76, 0
2, 45792, Note_on_c, 1, 77, 59
2, 45838, Note_on_c, 1, 77, 0
2, 45840, Note_on_c, 1, 76, 60
2, 45886, Note_on_c, 1, 76, 0
2, 45888, Note_on_c, 1, 74, 61
2, 45934, Note_on_c, 1, 74, 0
2, 45936, Note_on_c, 1, 69, 62
2, 45982, Note_on_c, 1, 69, 0
2, 45984, Note_on_c, 1, 71, 64
2, 46030, Note_on_c, 1, 71, 0
2, 46032, Note_on_c, 1, 73, 66
2, 46078, Note_on_c, 1, 73, 0
2, 46080, Note_on_c, 1, 74, 68
2, 46126, Note_on_c, 1, 74, 0
2, 46128, Note_on_c, 1, 76, 70
2, 46174, Note_on_c, 1, 76, 0
2, 46176, Note_on_c, 1, 77, 72
2, 46222, Note_on_c, 1, 77, 0
2, 46224, Note_on_c, 1, 79, 74
2, 46270, Note_on_c, 1, 79, 0
2, 46272, Note_on_c, 1, 81, 76
2, 46318, Note_on_c, 1, 81, 0
2, 46320, Note_on_c, 1, 79, 78
2, 46366, Note_on_c, 1, 79, 0
2, 46368, Note_on_c, 1, 77, 80
2, 46414, Note_on_c, 1, 77, 0
2, 46416, Note_on_c, 1, 76, 82
2, 46462, Note_on_c, 1, 76, 0
2, 46464, Note_on_c, 1, 74, 84
2, 46510, Note_on_c, 1, 74, 0
2, 46512, Note_on_c, 1, 72, 86
2, 46558, Note_on_c, 1, 72, 0
2, 46560, Note_on_c, 1, 71, 88
2, 46606, Note_on_c, 1, 71, 0
2, 46608, Note_on_c, 1, 69, 90
2, 46654, Note_on_c, 1, 69, 0
2, 46656, Note_on_c, 1, 67, 92
2, 47184, Note_on_c, 1, 67, 0
2, 47232, Note_on_c, 1, 76, 92
2, 47262, Note_on_c, 1, 76, 0
2, 47264, Note_on_c, 1, 74, 92
2, 47296, Note_on_c, 1, 74, 0
2, 47296, Note_on_c, 1, 76, 92
2, 47328, Note_on_c, 1, 76, 0
2, 47328, Note_on_c, 1, 74, 92
2, 47360, Note_on_c, 1, 74, 0
2, 47360, Note_on_c, 1, 76, 92
2, 47392, Note_on_c, 1, 76, 0
2, 47392, Note_on_c, 1, 74, 92
2, 47424, Note_on_c, 1, 74, 0
2, 47424, Note_on_c, 1, 76, 92
2, 47456, Note_on_c, 1, 76, 0
2, 47456, Note_on_c, 1, 74, 92
2, 47488, Note_on_c, 1, 74, 0
2, 47488, Note_on_c, 1, 76, 92
2, 47520, Note_on_c, 1, 76, 0
2, 47520, Note_on_c, 1, 74, 92
2, 47552, Note_on_c, 1, 74, 0
2, 47552, Note_on_c, 1, 76, 92
2, 47584, Note_on_c, 1, 76, 0
2, 47584, Note_on_c, 1, 74, 92
2, 47616, Note_on_c, 1, 74, 0
2, 47616, Note_on_c, 1, 76, 92
2, 47648, Note_on_c, 1, 76, 0
2, 47648, Note_on_c, 1, 74, 92
2, 47680, Note_on_c, 1, 74, 0
2, 47680, Note_on_c, 1, 76, 92
2, 47712, Note_on_c, 1, 76, 0
2, 47712, Note_on_c, 1, 74, 92
2, 47744, Note_on_c, 1, 74, 0
2, 47744, Note_on_c, 1, 76, 92
2, 47776, Note_on_c, 1, 76, 0
2, 47776, Note_on_c, 1, 74, 92
2, 47808, Note_on_c, 1, 74, 0
2, 47808, Note_on_c, 1, 72, 108
2, 47968, Note_on_c, 1, 72, 0
2, 48000, Note_on_c, 1, 60, 45
2, 48288, Note_on_c, 1, 60, 0
2, 48288, Note_on_c, 1, 59, 45
2, 48382, Note_on_c, 1, 59, 0
2, 48384, Note_on_c, 1, 59, 45
2, 48480, Note_on_c, 1, 59, 0
2, 48480, Note_on_c, 1, 65, 45
2, 48574, Note_on_c, 1, 65, 0
2, 48576, Note_on_c, 1, 65, 45
2, 48672, Note_on_c, 1, 65, 0
2, 48672, Note_on_c, 1, 64, 45
2, 48766, Note_on_c, 1, 64, 0
2, 48768, Note_on_c, 1, 64, 45
2, 48864, Note_on_c, 1, 64, 0
2, 48864, Note_on_c, 1, 69, 45
2, 48958, Note_on_c, 1, 69, 0
2, 48960, Note_on_c, 1, 69, 45
2, 49056, Note_on_c, 1, 69, 0
2, 49056, Note_on_c, 1, 67, 45
2, 49150, Note_on_c, 1, 67, 0
2, 49152, Note_on_c, 1, 67, 45
2, 49248, Note_on_c, 1, 67, 0
2, 49248, Note_on_c, 1, 72, 45
2, 49342, Note_on_c, 1, 72, 0
2, 49344, Note_on_c, 1, 72, 45
2, 49440, Note_on_c, 1, 72, 0
2, 49440, Note_on_c, 1, 71, 45
2, 49534, Note_on_c, 1, 71, 0
2, 49536, Note_on_c, 1, 71, 45
2, 49632, Note_on_c, 1, 71, 0
2, 49632, Note_on_c, 1, 77, 45
2, 49726, Note_on_c, 1, 77, 0
2, 49728, Note_on_c, 1, 77, 45
2, 49888, Note_on_c, 1, 77, 0
2, 50688, Note_on_c, 1, 76, 45
2, 50976, Note_on_c, 1, 76, 0
2, 50976, Note_on_c, 1, 77, 68
2, 51024, Note_on_c, 1, 77, 0
2, 51024, Note_on_c, 1, 76, 72
2, 51070, Note_on_c, 1, 76, 0
2, 51072, Note_on_c, 1, 74, 76
2, 51104, Note_on_c, 1, 74, 0
2, 51168, Note_on_c, 1, 76, 84
2, 51200, Note_on_c, 1, 76, 0
2, 51264, Note_on_c, 1, 81, 92
2, 51840, Note_on_c, 1, 81, 0
2, 51840, Note_on_c, 1, 81, 45
2, 52032, Note_on_c, 1, 81, 0
2, 52032, Note_on_c, 1, 79, 45
2, 52080, Note_on_c, 1, 79, 0
2, 52224, Note_on_c, 1, 71, 45
2, 52272, Note_on_c, 1, 71, 0
2, 52416, Note_on_c, 1, 72, 45
2, 52464, Note_on_c, 1, 72, 0
2, 52608, Note_on_c, 1, 72, 92
2, 52896, Note_on_c, 1, 72, 0
2, 52896, Note_on_c, 1, 71, 45
2, 52990, Note_on_c, 1, 71, 0
2, 52992, Note_on_c, 1, 71, 45
2, 53088, Note_on_c, 1, 71, 0
2, 53088, Note_on_c, 1, 77, 45
2, 53182, Note_on_c, 1, 77, 0
2, 53184, Note_on_c, 1, 77, 45
2, 53280, Note_on_c, 1, 77, 0
2, 53280, Note_on_c, 1, 76, 45
2, 53374, Note_on_c, 1, 76, 0
2, 53376, Note_on_c, 1, 76, 45
2, 53472, Note_on_c, 1, 76, 0
2, 53472, Note_on_c, 1, 81, 45
2, 53566, Note_on_c, 1, 81, 0
2, 53568, Note_on_c, 1, 81, 45
2, 53664, Note_on_c, 1, 81, 0
2, 53664, Note_on_c, 1, 79, 45
2, 53758, Note_on_c, 1, 79, 0
2, 53760, Note_on_c, 1, 79, 45
2, 53856, Note_on_c, 1, 79, 0
2, 53856, Note_on_c, 1, 84, 45
2, 53950, Note_on_c, 1, 84, 0
2, 53952, Note_on_c, 1, 84, 45
2, 54048, Note_on_c, 1, 84, 0
2, 54048, Note_on_c, 1, 83, 45
2, 54142, Note_on_c, 1, 83, 0
2, 54144, Note_on_c, 1, 83, 45
2, 54240, Note_on_c, 1, 83, 0
2, 54240, Note_on_c, 1, 89, 45
2, 54334, Note_on_c, 1, 89, 0
2, 54336, Note_on_c, 1, 89, 45
2, 54496, Note_on_c, 1, 89, 0
2, 55296, Note_on_c, 1, 63, 63
2, 55824, Note_on_c, 1, 63, 0
2, 55872, Note_on_c, 1, 60, 63
2, 55872, Note_on_c, 1, 63, 63
2, 56400, Note_on_c, 1, 63, 0
2, 56400, Note_on_c, 1, 60, 0
2, 56448, Note_on_c, 1, 60, 63
2, 56448, Note_on_c, 1, 63, 63
2, 56784, Note_on_c, 1, 63, 0
2, 56784, Note_on_c, 1, 60, 0
2, 56832, Note_on_c, 1, 60, 63
2, 56832, Note_on_c, 1, 63, 63
2, 56992, Note_on_c, 1, 63, 0
2, 56992, Note_on_c, 1, 60, 0
2, 57024, Note_on_c, 1, 60, 108
2, 57024, Note_on_c, 1, 64, 108
2, 57072, Note_on_c, 1, 64, 0
2, 57072, Note_on_c, 1, 60, 0
2, 57216, Note_on_c, 1, 65, 108
2, 57264, Note_on_c, 1, 65, 0
2, 57408, Note_on_c, 1, 62, 108
2, 57456, Note_on_c, 1, 62, 0
2, 57600, Note_on_c, 1, 60, 127
2, 57760, Note_on_c, 1, 60, 0
2, 58368, Note_on_c, 1, 76, 45
2, 58528, Note_on_c, 1, 76, 0
2, 58560, Note_on_c, 1, 77, 45
2, 58592, Note_on_c, 1, 77, 0
2, 58592, Note_on_c, 1, 76, 45
2, 58624, Note_on_c, 1, 76, 0
2, 58624, Note_on_c, 1, 77, 45
2, 58656, Note_on_c, 1, 77, 0
2, 58656, Note_on_c, 1, 76, 45
2, 58688, Note_on_c, 1, 76, 0
2, 58688, Note_on_c, 1, 74, 45
2, 58720, Note_on_c, 1, 74, 0
2, 58720, Note_on_c, 1, 76, 45
2, 58750, Note_on_c, 1, 76, 0
2, 58752, Note_on_c, 1, 79, 45
2, 58944, Note_on_c, 1, 79, 0
2, 58944, Note_on_c, 1, 77, 45
2, 59104, Note_on_c, 1, 77, 0
2, 59520, Note_on_c, 1, 83, 45
2, 59680, Note_on_c, 1, 83, 0
2, 59712, Note_on_c, 1, 84, 45
2, 59744, Note_on_c, 1, 84, 0
2, 59744, Note_on_c, 1, 83, 45
2, 59776, Note_on_c, 1, 83, 0
2, 59776, Note_on_c, 1, 84, 45
2, 59808, Note_on_c, 1, 84, 0
2, 59808, Note_on_c, 1, 83, 45
2, 59840, Note_on_c, 1, 83, 0
2, 59840, Note_on_c, 1, 81, 45
2, 59872, Note_on_c, 1, 81, 0
2, 59872, Note_on_c, 1, 83, 45
2, 59902, Note_on_c, 1, 83, 0
2, 59904, Note_on_c, 1, 84, 45
2, 60000, Note_on_c, 1, 84, 0
2, 60000, Note_on_c, 1, 88, 45
2, 60094, Note_on_c, 1, 88, 0
2, 60096, Note_on_c, 1, 79, 45
2, 60256, Note_on_c, 1, 79, 0
2, 60480, Note_on_c, 1, 77, 45
2, 60528, Note_on_c, 1, 77, 0
2, 60528, Note_on_c, 1, 76, 45
2, 60576, Note_on_c, 1, 76, 0
2, 60576, Note_on_c, 1, 74, 45
2, 60624, Note_on_c, 1, 74, 0
2, 60624, Note_on_c, 1, 76, 45
2, 60670, Note_on_c, 1, 76, 0
2, 60672, Note_on_c, 1, 77, 45
2, 60720, Note_on_c, 1, 77, 0
2, 60720, Note_on_c, 1, 76, 45
2, 60768, Note_on_c, 1, 76, 0
2, 60768, Note_on_c, 1, 74, 45
2, 60816, Note_on_c, 1, 74, 0
2, 60816, Note_on_c, 1, 76, 45
2, 60862, Note_on_c, 1, 76, 0
2, 60864, Note_on_c, 1, 77, 45
2, 60912, Note_on_c, 1, 77, 0
2, 60912, Note_on_c, 1, 76, 45
2, 60960, Note_on_c, 1, 76, 0
2, 60960, Note_on_c, 1, 74, 45
2, 61008, Note_on_c, 1, 74, 0
2, 61008, Note_on_c, 1, 76, 45
2, 61054, Note_on_c, 1, 76, 0
2, 61056, Note_on_c, 1, 79, 45
2, 61248, Note_on_c, 1, 79, 0
2, 61248, Note_on_c, 1, 77, 45
2, 61408, Note_on_c, 1, 77, 0
2, 61632, Note_on_c, 1, 84, 45
2, 61680, Note_on_c, 1, 84, 0
2, 61680, Note_on_c, 1, 83, 45
2, 61728, Note_on_c, 1, 83, 0
2, 61728, Note_on_c, 1, 81, 45
2, 61776, Note_on_c, 1, 81, 0
2, 61776, Note_on_c, 1, 83, 45
2, 61822, Note_on_c, 1, 83, 0
2, 61824, Note_on_c, 1, 84, 45
2, 61872, Note_on_c, 1, 84, 0
2, 61872, Note_on_c, 1, 83, 45
2, 61920, Note_on_c, 1, 83, 0
2, 61920, Note_on_c, 1, 81, 45
2, 61968, Note_on_c, 1, 81, 0
2, 61968, Note_on_c, 1, 83, 45
2, 62014, Note_on_c, 1, 83, 0
2, 62016, Note_on_c, 1, 84, 45
2, 62064, Note_on_c, 1, 84, 0
2, 62064, Note_on_c, 1, 83, 45
2, 62112, Note_on_c, 1, 83, 0
2, 62112, Note_on_c, 1, 81, 45
2, 62160, Note_on_c, 1, 81, 0
2, 62160, Note_on_c, 1, 83, 45
2, 62206, Note_on_c, 1, 83, 0
2, 62208, Note_on_c, 1, 84, 45
2, 62240, Note_on_c, 1, 84, 0
2, 62256, Note_on_c, 1, 88, 45
2, 62288, Note_on_c, 1, 88, 0
2, 62304, Note_on_c, 1, 86, 45
2, 62336, Note_on_c, 1, 86, 0
2, 62352, Note_on_c, 1, 84, 45
2, 62384, Note_on_c, 1, 84, 0
2, 62400, Note_on_c, 1, 83, 45
2, 62432, Note_on_c, 1, 83, 0
2, 62448, Note_on_c, 1, 81, 45
2, 62480, Note_on_c, 1, 81, 0
2, 62496, Note_on_c, 1, 79, 45
2, 62528, Note_on_c, 1, 79, 0
2, 62544, Note_on_c, 1, 77, 45
2, 62576, Note_on_c, 1, 77, 0
2, 62592, Note_on_c, 1, 76, 45
2, 62624, Note_on_c, 1, 76, 0
2, 62640, Note_on_c, 1, 84, 45
2, 62672, Note_on_c, 1, 84, 0
2, 62688, Note_on_c, 1, 83, 45
2, 62720, Note_on_c, 1, 83, 0
2, 62736, Note_on_c, 1, 81, 45
2, 62768, Note_on_c, 1, 81, 0
2, 62784, Note_on_c, 1, 79, 45
2, 62830, Note_on_c, 1, 79, 0
2, 62832, Note_on_c, 1, 77, 46
2, 62878, Note_on_c, 1, 77, 0
2, 62880, Note_on_c, 1, 76, 47
2, 62926, Note_on_c, 1, 76, 0
2, 62928, Note_on_c, 1, 74, 48
2, 62974, Note_on_c, 1, 74, 0
2, 62976, Note_on_c, 1, 72, 49
2, 63022, Note_on_c, 1, 72, 0
2, 63024, Note_on_c, 1, 79, 50
2, 63070, Note_on_c, 1, 79, 0
2, 63072, Note_on_c, 1, 77, 51
2, 63118, Note_on_c, 1, 77, 0
2, 63120, Note_on_c, 1, 76, 52
2, 63166, Note_on_c, 1, 76, 0
2, 63168, Note_on_c, 1, 74, 53
2, 63214, Note_on_c, 1, 74, 0
2, 63216, Note_on_c, 1, 72, 54
2, 63262, Note_on_c, 1, 72, 0
2, 63264, Note_on_c, 1, 71, 55
2, 63310, Note_on_c, 1, 71, 0
2, 63312, Note_on_c, 1, 69, 57
2, 63358, Note_on_c, 1, 69, 0
2, 63360, Note_on_c, 1, 67, 59
2, 63406, Note_on_c, 1, 67, 0
2, 63408, Note_on_c, 1, 76, 61
2, 63454, Note_on_c, 1, 76, 0
2, 63456, Note_on_c, 1, 74, 63
2, 63502, Note_on_c, 1, 74, 0
2, 63504, Note_on_c, 1, 72, 65
2, 63550, Note_on_c, 1, 72, 0
2, 63552, Note_on_c, 1, 71, 67
2, 63598, Note_on_c, 1, 71, 0
2, 63600, Note_on_c, 1, 69, 69
2, 63646, Note_on_c, 1, 69, 0
2, 63648, Note_on_c, 1, 67, 71
2, 63694, Note_on_c, 1, 67, 0
2, 63696, Note_on_c, 1, 65, 73
2, 63742, Note_on_c, 1, 65, 0
2, 63744, Note_on_c, 1, 64, 75
2, 63790, Note_on_c, 1, 64, 0
2, 63792, Note_on_c, 1, 72, 78
2, 63838, Note_on_c, 1, 72, 0
2, 63840, Note_on_c, 1, 71, 81
2, 63886, Note_on_c, 1, 71, 0
2, 63888, Note_on_c, 1, 69, 84
2, 63934, Note_on_c, 1, 69, 0
2, 63936, Note_on_c, 1, 67, 87
2, 63982, Note_on_c, 1, 67, 0
2, 63984, Note_on_c, 1, 65, 90
2, 64030, Note_on_c, 1, 65, 0
2, 64032, Note_on_c, 1, 64, 93
2, 64078, Note_on_c, 1, 64, 0
2, 64080, Note_on_c, 1, 62, 96
2, 64126, Note_on_c, 1, 62, 0
2, 64128, Note_on_c, 1, 60, 99
2, 64176, Note_on_c, 1, 60, 0
2, 64176, Note_on_c, 1, 59, 102
2, 64224, Note_on_c, 1, 59, 0
2, 64224, Note_on_c, 1, 60, 105
2, 64272, Note_on_c, 1, 60, 0
2, 64272, Note_on_c, 1, 59, 108
2, 64320, Note_on_c, 1, 59, 0
2, 64320, Note_on_c, 1, 60, 111
2, 64368, Note_on_c, 1, 60, 0
2, 64368, Note_on_c, 1, 59, 115
2, 64416, Note_on_c, 1, 59, 0
2, 64416, Note_on_c, 1, 60, 119
2, 64464, Note_on_c, 1, 60, 0
2, 64464, Note_on_c, 1, 59, 123
2, 64510, Note_on_c, 1, 59, 0
2, 64512, Note_on_c, 1, 60, 127
2, 64560, Note_on_c, 1, 60, 0
2, 64704, Note_on_c, 1, 60, 92
2, 64752, Note_on_c, 1, 60, 0
2, 64896, Note_on_c, 1, 60, 92
2, 64944, Note_on_c, 1, 60, 0
2, 65088, Note_on_c, 1, 60, 92
2, 65136, Note_on_c, 1, 60, 0
2, 65664, Note_on_c, 1, 65, 60
2, 65952, Note_on_c, 1, 65, 0
2, 65952, Note_on_c, 1, 67, 60
2, 66000, Note_on_c, 1, 67, 0
2, 66000, Note_on_c, 1, 65, 60
2, 66046, Note_on_c, 1, 65, 0
2, 66048, Note_on_c, 1, 64, 60
2, 66080, Note_on_c, 1, 64, 0
2, 66144, Note_on_c, 1, 65, 60
2, 66176, Note_on_c, 1, 65, 0
2, 66240, Note_on_c, 1, 60, 60
2, 66400, Note_on_c, 1, 60, 0
2, 66816, Note_on_c, 1, 65, 60
2, 67104, Note_on_c, 1, 65, 0
2, 67104, Note_on_c, 1, 67, 60
2, 67152, Note_on_c, 1, 67, 0
2, 67152, Note_on_c, 1, 65, 60
2, 67198, Note_on_c, 1, 65, 0
2, 67200, Note_on_c, 1, 64, 60
2, 67232, Note_on_c, 1, 64, 0
2, 67296, Note_on_c, 1, 65, 60
2, 67328, Note_on_c, 1, 65, 0
2, 67392, Note_on_c, 1, 62, 60
2, 67552, Note_on_c, 1, 62, 0
2, 67968, Note_on_c, 1, 77, 45
2, 68256, Note_on_c, 1, 77, 0
2, 68256, Note_on_c, 1, 79, 68
2, 68304, Note_on_c, 1, 79, 0
2, 68304, Note_on_c, 1, 77, 72
2, 68350, Note_on_c, 1, 77, 0
2, 68352, Note_on_c, 1, 76, 76
2, 68384, Note_on_c, 1, 76, 0
2, 68448, Note_on_c, 1, 77, 84
2, 68480, Note_on_c, 1, 77, 0
2, 68544, Note_on_c, 1, 79, 92
2, 68928, Note_on_c, 1, 79, 0
2, 68928, Note_on_c, 1, 70, 61
2, 69088, Note_on_c, 1, 70, 0
2, 69120, Note_on_c, 1, 69, 45
2, 69504, Note_on_c, 1, 69, 0
2, 69504, Note_on_c, 1, 74, 45
2, 69648, Note_on_c, 1, 74, 0
2, 69648, Note_on_c, 1, 70, 45
2, 69694, Note_on_c, 1, 70, 0
2, 69696, Note_on_c, 1, 69, 45
2, 70080, Note_on_c, 1, 69, 0
2, 70080, Note_on_c, 1, 67, 45
2, 70240, Note_on_c, 1, 67, 0
2, 70272, Note_on_c, 1, 65, 108
2, 70560, Note_on_c, 1, 65, 0
2, 70560, Note_on_c, 1, 67, 108
2, 70608, Note_on_c, 1, 67, 0
2, 70608, Note_on_c, 1, 65, 108
2, 70654, Note_on_c, 1, 65, 0
2, 70656, Note_on_c, 1, 64, 108
2, 70688, Note_on_c, 1, 64, 0
2, 70752, Note_on_c, 1, 65, 108
2, 70784, Note_on_c, 1, 65, 0
2, 70848, Note_on_c, 1, 60, 108
2, 71008, Note_on_c, 1, 60, 0
2, 71424, Note_on_c, 1, 65, 108
2, 71712, Note_on_c, 1, 65, 0
2, 71712, Note_on_c, 1, 67, 108
2, 71760, Note_on_c, 1, 67, 0
2, 71760, Note_on_c, 1, 65, 108
2, 71806, Note_on_c, 1, 65, 0
2, 71808, Note_on_c, 1, 64, 108
2, 71840, Note_on_c, 1, 64, 0
2, 71904, Note_on_c, 1, 65, 108
2, 71936, Note_on_c, 1, 65, 0
2, 72000, Note_on_c, 1, 62, 108
2, 72160, Note_on_c, 1, 62, 0
2, 72576, Note_on_c, 1, 77, 45
2, 72864, Note_on_c, 1, 77, 0
2, 72864, Note_on_c, 1, 79, 45
2, 72912, Note_on_c, 1, 79, 0
2, 72912, Note_on_c, 1, 77, 45
2, 72958, Note_on_c, 1, 77, 0
2, 72960, Note_on_c, 1, 76, 45
2, 72992, Note_on_c, 1, 76, 0
2, 73056, Note_on_c, 1, 77, 45
2, 73088, Note_on_c, 1, 77, 0
2, 73152, Note_on_c, 1, 81, 45
2, 73536, Note_on_c, 1, 81, 0
2, 73536, Note_on_c, 1, 79, 92
2, 73696, Note_on_c, 1, 79, 0
2, 73728, Note_on_c, 1, 79, 45
2, 74016, Note_on_c, 1, 79, 0
2, 74016, Note_on_c, 1, 81, 45
2, 74064, Note_on_c, 1, 81, 0
2, 74064, Note_on_c, 1, 79, 45
2, 74110, Note_on_c, 1, 79, 0
2, 74112, Note_on_c, 1, 78, 45
2, 74144, Note_on_c, 1, 78, 0
2, 74208, Note_on_c, 1, 79, 45
2, 74240, Note_on_c, 1, 79, 0
2, 74304, Note_on_c, 1, 82, 45
2, 74688, Note_on_c, 1, 82, 0
2, 74688, Note_on_c, 1, 81, 92
2, 74848, Note_on_c, 1, 81, 0
2, 74880, Note_on_c, 1, 81, 45
2, 75168, Note_on_c, 1, 81, 0
2, 75168, Note_on_c, 1, 82, 45
2, 75216, Note_on_c, 1, 82, 0
2, 75216, Note_on_c, 1, 81, 45
2, 75262, Note_on_c, 1, 81, 0
2, 75264, Note_on_c, 1, 79, 45
2, 75296, Note_on_c, 1, 79, 0
2, 75360, Note_on_c, 1, 81, 45
2, 75392, Note_on_c, 1, 81, 0
2, 75456, Note_on_c, 1, 84, 45
2, 75744, Note_on_c, 1, 84, 0
2, 75744, Note_on_c, 1, 82, 56
2, 75840, Note_on_c, 1, 82, 0
2, 75840, Note_on_c, 1, 81, 60
2, 75936, Note_on_c, 1, 81, 0
2, 75936, Note_on_c, 1, 79, 64
2, 76030, Note_on_c, 1, 79, 0
2, 76032, Note_on_c, 1, 77, 68
2, 76320, Note_on_c, 1, 77, 0
2, 76320, Note_on_c, 1, 79, 80
2, 76344, Note_on_c, 1, 79, 0
2, 76344, Note_on_c, 1, 77, 80
2, 76368, Note_on_c, 1, 77, 0
2, 76368, Note_on_c, 1, 76, 80
2, 76392, Note_on_c, 1, 76, 0
2, 76392, Note_on_c, 1, 77, 80
2, 76416, Note_on_c, 1, 77, 0
2, 76416, Note_on_c, 1, 81, 80
2, 76512, Note_on_c, 1, 81, 0
2, 76512, Note_on_c, 1, 79, 88
2, 76606, Note_on_c, 1, 79, 0
2, 76608, Note_on_c, 1, 77, 45
2, 76768, Note_on_c, 1, 77, 0
2, 77760, Note_on_c, 1, 77, 63
2, 78048, Note_on_c, 1, 77, 0
2, 78048, Note_on_c, 1, 79, 45
2, 78096, Note_on_c, 1, 79, 0
2, 78096, Note_on_c, 1, 77, 45
2, 78142, Note_on_c, 1, 77, 0
2, 78144, Note_on_c, 1, 76, 45
2, 78176, Note_on_c, 1, 76, 0
2, 78240, Note_on_c, 1, 77, 45
2, 78272, Note_on_c, 1, 77, 0
2, 78912, Note_on_c, 1, 79, 63
2, 79200, Note_on_c, 1, 79, 0
2, 79200, Note_on_c, 1, 81, 45
2, 79248, Note_on_c, 1, 81, 0
2, 79248, Note_on_c, 1, 79, 45
2, 79294, Note_on_c, 1, 79, 0
2, 79296, Note_on_c, 1, 78, 45
2, 79328, Note_on_c, 1, 78, 0
2, 79392, Note_on_c, 1, 79, 45
2, 79424, Note_on_c, 1, 79, 0
2, 80064, Note_on_c, 1, 84, 63
2, 80352, Note_on_c, 1, 84, 0
2, 80352, Note_on_c, 1, 86, 45
2, 80400, Note_on_c, 1, 86, 0
2, 80400, Note_on_c, 1, 84, 45
2, 80446, Note_on_c, 1, 84, 0
2, 80448, Note_on_c, 1, 83, 45
2, 80480, Note_on_c, 1, 83, 0
2, 80544, Note_on_c, 1, 84, 45
2, 80576, Note_on_c, 1, 84, 0
2, 80640, Note_on_c, 1, 86, 63
2, 80928, Note_on_c, 1, 86, 0
2, 80928, Note_on_c, 1, 87, 45
2, 80976, Note_on_c, 1, 87, 0
2, 80976, Note_on_c, 1, 86, 45
2, 81022, Note_on_c, 1, 86, 0
2, 81024, Note_on_c, 1, 85, 45
2, 81056, Note_on_c, 1, 85, 0
2, 81120, Note_on_c, 1, 86, 45
2, 81214, Note_on_c, 1, 86, 0
2, 81216, Note_on_c, 1, 88, 92
2, 81264, Note_on_c, 1, 88, 0
2, 81408, Note_on_c, 1, 88, 92
2, 81456, Note_on_c, 1, 88, 0
2, 81600, Note_on_c, 1, 88, 92
2, 81648, Note_on_c, 1, 88, 0
2, 81792, Note_on_c, 1, 89, 92
2, 81952, Note_on_c, 1, 89, 0
2, 82656, Note_on_c, 1, 69, 45
2, 82750, Note_on_c, 1, 69, 0
2, 82752, Note_on_c, 1, 70, 45
2, 82782, Note_on_c, 1, 70, 0
2, 82784, Note_on_c, 1, 69, 45
2, 82816, Note_on_c, 1, 69, 0
2, 82816, Note_on_c, 1, 70, 45
2, 82848, Note_on_c, 1, 70, 0
2, 82848, Note_on_c, 1, 69, 45
2, 82880, Note_on_c, 1, 69, 0
2, 82880, Note_on_c, 1, 67, 45
2, 82912, Note_on_c, 1, 67, 0
2, 82912, Note_on_c, 1, 69, 45
2, 82944, Note_on_c, 1, 69, 0
2, 82944, Note_on_c, 1, 72, 45
2, 83232, Note_on_c, 1, 72, 0
2, 83232, Note_on_c, 1, 70, 45
2, 83326, Note_on_c, 1, 70, 0
2, 83328, Note_on_c, 1, 67, 45
2, 83360, Note_on_c, 1, 67, 0
2, 83424, Note_on_c, 1, 65, 45
2, 83456, Note_on_c, 1, 65, 0
2, 83520, Note_on_c, 1, 64, 60
2, 83680, Note_on_c, 1, 64, 0
2, 83808, Note_on_c, 1, 70, 45
2, 83902, Note_on_c, 1, 70, 0
2, 83904, Note_on_c, 1, 72, 45
2, 83936, Note_on_c, 1, 72, 0
2, 83936, Note_on_c, 1, 70, 45
2, 83968, Note_on_c, 1, 70, 0
2, 83968, Note_on_c, 1, 72, 45
2, 84000, Note_on_c, 1, 72, 0
2, 84000, Note_on_c, 1, 70, 45
2, 84032, Note_on_c, 1, 70, 0
2, 84032, Note_on_c, 1, 69, 45
2, 84064, Note_on_c, 1, 69, 0
2, 84064, Note_on_c, 1, 70, 45
2, 84094, Note_on_c, 1, 70, 0
2, 84096, Note_on_c, 1, 74, 45
2, 84384, Note_on_c, 1, 74, 0
2, 84384, Note_on_c, 1, 72, 45
2, 84478, Note_on_c, 1, 72, 0
2, 84480, Note_on_c, 1, 69, 45
2, 84512, Note_on_c, 1, 69, 0
2, 84576, Note_on_c, 1, 67, 45
2, 84608, Note_on_c, 1, 67, 0
2, 84672, Note_on_c, 1, 65, 60
2, 84832, Note_on_c, 1, 65, 0
2, 84960, Note_on_c, 1, 77, 45
2, 85054, Note_on_c, 1, 77, 0
2, 85056, Note_on_c, 1, 79, 45
2, 85088, Note_on_c, 1, 79, 0
2, 85088, Note_on_c, 1, 77, 45
2, 85120, Note_on_c, 1, 77, 0
2, 85120, Note_on_c, 1, 79, 45
2, 85152, Note_on_c, 1, 79, 0
2, 85152, Note_on_c, 1, 77, 45
2, 85184, Note_on_c, 1, 77, 0
2, 85184, Note_on_c, 1, 76, 45
2, 85216, Note_on_c, 1, 76, 0
2, 85216, Note_on_c, 1, 77, 45
2, 85246, Note_on_c, 1, 77, 0
2, 85248, Note_on_c, 1, 81, 45
2, 85536, Note_on_c, 1, 81, 0
2, 85536, Note_on_c, 1, 79, 45
2, 85630, Note_on_c, 1, 79, 0
2, 85632, Note_on_c, 1, 79, 45
2, 85664, Note_on_c, 1, 79, 0
2, 85728, Note_on_c, 1, 77, 45
2, 85760, Note_on_c, 1, 77, 0
2, 85824, Note_on_c, 1, 77, 45
2, 85920, Note_on_c, 1, 77, 0
2, 85920, Note_on_c, 1, 76, 45
2, 86014, Note_on_c, 1, 76, 0
2, 86016, Note_on_c, 1, 76, 45
2, 86048, Note_on_c, 1, 76, 0
2, 86112, Note_on_c, 1, 74, 45
2, 86144, Note_on_c, 1, 74, 0
2, 86208, Note_on_c, 1, 72, 45
2, 86240, Note_on_c, 1, 72, 0
2, 86304, Note_on_c, 1, 70, 45
2, 86336, Note_on_c, 1, 70, 0
2, 86400, Note_on_c, 1, 69, 45
2, 87070, Note_on_c, 1, 69, 0
2, 87072, Note_on_c, 1, 71, 45
2, 87120, Note_on_c, 1, 71, 0
2, 87120, Note_on_c, 1, 73, 45
2, 87168, Note_on_c, 1, 73, 0
2, 87168, Note_on_c, 1, 74, 45
2, 87216, Note_on_c, 1, 74, 0
2, 87216, Note_on_c, 1, 76, 45
2, 87264, Note_on_c, 1, 76, 0
2, 87264, Note_on_c, 1, 77, 45
2, 87312, Note_on_c, 1, 77, 0
2, 87312, Note_on_c, 1, 76, 45
2, 87360, Note_on_c, 1, 76, 0
2, 87360, Note_on_c, 1, 74, 45
2, 87408, Note_on_c, 1, 74, 0
2, 87408, Note_on_c, 1, 72, 45
2, 87456, Note_on_c, 1, 72, 0
2, 87456, Note_on_c, 1, 71, 45
2, 87504, Note_on_c, 1, 71, 0
2, 87504, Note_on_c, 1, 69, 45
2, 87550, Note_on_c, 1, 69, 0
2, 87552, Note_on_c, 1, 67, 45
2, 88222, Note_on_c, 1, 67, 0
2, 88224, Note_on_c, 1, 69, 45
2, 88272, Note_on_c, 1, 69, 0
2, 88272, Note_on_c, 1, 71, 45
2, 88320, Note_on_c, 1, 71, 0
2, 88320, Note_on_c, 1, 72, 45
2, 88368, Note_on_c, 1, 72, 0
2, 88368, Note_on_c, 1, 71, 45
2, 88416, Note_on_c, 1, 71, 0
2, 88416, Note_on_c, 1, 72, 45
2, 88464, Note_on_c, 1, 72, 0
2, 88464, Note_on_c, 1, 71, 45
2, 88512, Note_on_c, 1, 71, 0
2, 88512, Note_on_c, 1, 72, 45
2, 88560, Note_on_c, 1, 72, 0
2, 88560, Note_on_c, 1, 71, 45
2, 88608, Note_on_c, 1, 71, 0
2, 88608, Note_on_c, 1, 72, 45
2, 88656, Note_on_c, 1, 72, 0
2, 88656, Note_on_c, 1, 71, 45
2, 88702, Note_on_c, 1, 71, 0
2, 88704, Note_on_c, 1, 72, 30
2, 89568, Note_on_c, 1, 72, 0
2, 89568, Note_on_c, 1, 73, 30
2, 89616, Note_on_c, 1, 73, 0
2, 89616, Note_on_c, 1, 72, 30
2, 89662, Note_on_c, 1, 72, 0
2, 89664, Note_on_c, 1, 70, 30
2, 89696, Note_on_c, 1, 70, 0
2, 89760, Note_on_c, 1, 72, 30
2, 89792, Note_on_c, 1, 72, 0
2, 89856, Note_on_c, 1, 75, 30
2, 90144, Note_on_c, 1, 75, 0
2, 90144, Note_on_c, 1, 73, 30
2, 90238, Note_on_c, 1, 73, 0
2, 90240, Note_on_c, 1, 70, 30
2, 90272, Note_on_c, 1, 70, 0
2, 90336, Note_on_c, 1, 68, 30
2, 90368, Note_on_c, 1, 68, 0
2, 90432, Note_on_c, 1, 67, 30
2, 90592, Note_on_c, 1, 67, 0
2, 90720, Note_on_c, 1, 75, 30
2, 90768, Note_on_c, 1, 75, 0
2, 90768, Note_on_c, 1, 73, 30
2, 90814, Note_on_c, 1, 73, 0
2, 90816, Note_on_c, 1, 72, 30
2, 90848, Note_on_c, 1, 72, 0
2, 90912, Note_on_c, 1, 73, 30
2, 90944, Note_on_c, 1, 73, 0
2, 91008, Note_on_c, 1, 77, 30
2, 91296, Note_on_c, 1, 77, 0
2, 91296, Note_on_c, 1, 75, 30
2, 91390, Note_on_c, 1, 75, 0
2, 91392, Note_on_c, 1, 72, 30
2, 91424, Note_on_c, 1, 72, 0
2, 91488, Note_on_c, 1, 70, 30
2, 91520, Note_on_c, 1, 70, 0
2, 91584, Note_on_c, 1, 69, 30
2, 91744, Note_on_c, 1, 69, 0
2, 91872, Note_on_c, 1, 77, 30
2, 91920, Note_on_c, 1, 77, 0
2, 91920, Note_on_c, 1, 75, 33
2, 91966, Note_on_c, 1, 75, 0
2, 91968, Note_on_c, 1, 74, 36
2, 92000, Note_on_c, 1, 74, 0
2, 92064, Note_on_c, 1, 75, 43
2, 92096, Note_on_c, 1, 75, 0
2, 92160, Note_on_c, 1, 77, 70
2, 92688, Note_on_c, 1, 77, 0
2, 92736, Note_on_c, 1, 75, 92
2, 92784, Note_on_c, 1, 75, 0
2, 92928, Note_on_c, 1, 74, 92
2, 92976, Note_on_c, 1, 74, 0
2, 93120, Note_on_c, 1, 72, 92
2, 93168, Note_on_c, 1, 72, 0
2, 93312, Note_on_c, 1, 71, 92
2, 93344, Note_on_c, 1, 71, 0
2, 93360, Note_on_c, 1, 67, 45
2, 93392, Note_on_c, 1, 67, 0
2, 93408, Note_on_c, 1, 69, 45
2, 93440, Note_on_c, 1, 69, 0
2, 93456, Note_on_c, 1, 71, 45
2, 93488, Note_on_c, 1, 71, 0
2, 93504, Note_on_c, 1, 72, 45
2, 93536, Note_on_c, 1, 72, 0
2, 93552, Note_on_c, 1, 74, 45
2, 93584, Note_on_c, 1, 74, 0
2, 93600, Note_on_c, 1, 76, 45
2, 93632, Note_on_c, 1, 76, 0
2, 93648, Note_on_c, 1, 78, 45
2, 93680, Note_on_c, 1, 78, 0
2, 93696, Note_on_c, 1, 79, 45
2, 93728, Note_on_c, 1, 79, 0
2, 93744, Note_on_c, 1, 78, 45
2, 93776, Note_on_c, 1, 78, 0
2, 93792, Note_on_c, 1, 79, 45
2, 93824, Note_on_c, 1, 79, 0
2, 93840, Note_on_c, 1, 78, 45
2, 93872, Note_on_c, 1, 78, 0
2, 93888, Note_on_c, 1, 79, 45
2, 94048, Note_on_c, 1, 79, 0
2, 94176, Note_on_c, 1, 83, 45
2, 94208, Note_on_c, 1, 83, 0
2, 94272, Note_on_c, 1, 83, 45
2, 94304, Note_on_c, 1, 83, 0
2, 94368, Note_on_c, 1, 84, 45
2, 94400, Note_on_c, 1, 84, 0
2, 94464, Note_on_c, 1, 83, 45
2, 94510, Note_on_c, 1, 83, 0
2, 94512, Note_on_c, 1, 67, 45
2, 94558, Note_on_c, 1, 67, 0
2, 94560, Note_on_c, 1, 69, 46
2, 94606, Note_on_c, 1, 69, 0
2, 94608, Note_on_c, 1, 71, 47
2, 94654, Note_on_c, 1, 71, 0
2, 94656, Note_on_c, 1, 72, 48
2, 94702, Note_on_c, 1, 72, 0
2, 94704, Note_on_c, 1, 74, 49
2, 94750, Note_on_c, 1, 74, 0
2, 94752, Note_on_c, 1, 76, 50
2, 94798, Note_on_c, 1, 76, 0
2, 94800, Note_on_c, 1, 78, 51
2, 94846, Note_on_c, 1, 78, 0
2, 94848, Note_on_c, 1, 79, 52
2, 94894, Note_on_c, 1, 79, 0
2, 94896, Note_on_c, 1, 78, 54
2, 94942, Note_on_c, 1, 78, 0
2, 94944, Note_on_c, 1, 79, 56
2, 94990, Note_on_c, 1, 79, 0
2, 94992, Note_on_c, 1, 78, 58
2, 95038, Note_on_c, 1, 78, 0
2, 95040, Note_on_c, 1, 79, 59
2, 95200, Note_on_c, 1, 79, 0
2, 95328, Note_on_c, 1, 83, 71
2, 95360, Note_on_c, 1, 83, 0
2, 95424, Note_on_c, 1, 83, 75
2, 95456, Note_on_c, 1, 83, 0
2, 95520, Note_on_c, 1, 84, 79
2, 95552, Note_on_c, 1, 84, 0
2, 95616, Note_on_c, 1, 83, 83
2, 95662, Note_on_c, 1, 83, 0
2, 95664, Note_on_c, 1, 55, 85
2, 95710, Note_on_c, 1, 55, 0
2, 95712, Note_on_c, 1, 57, 87
2, 95758, Note_on_c, 1, 57, 0
2, 95760, Note_on_c, 1, 59, 89
2, 95806, Note_on_c, 1, 59, 0
2, 95808, Note_on_c, 1, 60, 91
2, 95854, Note_on_c, 1, 60, 0
2, 95856, Note_on_c, 1, 62, 93
2, 95902, Note_on_c, 1, 62, 0
2, 95904, Note_on_c, 1, 64, 95
2, 95950, Note_on_c, 1, 64, 0
2, 95952, Note_on_c, 1, 66, 97
2, 95998, Note_on_c, 1, 66, 0
2, 96000, Note_on_c, 1, 67, 99
2, 96046, Note_on_c, 1, 67, 0
2, 96048, Note_on_c, 1, 66, 101
2, 96094, Note_on_c, 1, 66, 0
2, 96096, Note_on_c, 1, 67, 103
2, 96142, Note_on_c, 1, 67, 0
2, 96144, Note_on_c, 1, 66, 105
2, 96190, Note_on_c, 1, 66, 0
2, 96192, Note_on_c, 1, 67, 108
2, 96238, Note_on_c, 1, 67, 0
2, 96240, Note_on_c, 1, 67, 108
2, 96286, Note_on_c, 1, 67, 0
2, 96288, Note_on_c, 1, 69, 108
2, 96334, Note_on_c, 1, 69, 0
2, 96336, Note_on_c, 1, 71, 108
2, 96382, Note_on_c, 1, 71, 0
2, 96384, Note_on_c, 1, 72, 108
2, 96430, Note_on_c, 1, 72, 0
2, 96432, Note_on_c, 1, 74, 108
2, 96478, Note_on_c, 1, 74, 0
2, 96480, Note_on_c, 1, 76, 108
2, 96526, Note_on_c, 1, 76, 0
2, 96528, Note_on_c, 1, 78, 108
2, 96574, Note_on_c, 1, 78, 0
2, 96576, Note_on_c, 1, 79, 108
2, 96622, Note_on_c, 1, 79, 0
2, 96624, Note_on_c, 1, 78, 108
2, 96670, Note_on_c, 1, 78, 0
2, 96672, Note_on_c, 1, 79, 108
2, 96718, Note_on_c, 1, 79, 0
2, 96720, Note_on_c, 1, 78, 108
2, 96766, Note_on_c, 1, 78, 0
2, 96768, Note_on_c, 1, 79, 108
2, 96862, Note_on_c, 1, 79, 0
2, 96864, Note_on_c, 1, 79, 108
2, 97024, Note_on_c, 1, 79, 0
2, 97056, Note_on_c, 1, 79, 108
2, 97216, Note_on_c, 1, 79, 0
2, 97248, Note_on_c, 1, 79, 108
2, 97344, Note_on_c, 1, 79, 0
2, 97344, Note_on_c, 1, 80, 108
2, 97438, Note_on_c, 1, 80, 0
2, 97440, Note_on_c, 1, 80, 98
2, 97600, Note_on_c, 1, 80, 0
2, 97632, Note_on_c, 1, 80, 77
2, 97792, Note_on_c, 1, 80, 0
2, 97824, Note_on_c, 1, 80, 56
2, 97920, Note_on_c, 1, 80, 0
2, 97920, Note_on_c, 1, 81, 45
2, 98014, Note_on_c, 1, 81, 0
2, 98016, Note_on_c, 1, 81, 45
2, 98112, Note_on_c, 1, 81, 0
2, 98112, Note_on_c, 1, 77, 45
2, 98206, Note_on_c, 1, 77, 0
2, 98208, Note_on_c, 1, 77, 45
2, 98304, Note_on_c, 1, 77, 0
2, 98304, Note_on_c, 1, 74, 45
2, 98398, Note_on_c, 1, 74, 0
2, 98400, Note_on_c, 1, 74, 45
2, 98496, Note_on_c, 1, 74, 0
2, 98496, Note_on_c, 1, 71, 45
2, 98590, Note_on_c, 1, 71, 0
2, 98592, Note_on_c, 1, 71, 45
2, 98688, Note_on_c, 1, 71, 0
2, 98688, Note_on_c, 1, 67, 45
2, 98782, Note_on_c, 1, 67, 0
2, 98784, Note_on_c, 1, 67, 45
2, 98880, Note_on_c, 1, 67, 0
2, 98880, Note_on_c, 1, 71, 45
2, 98974, Note_on_c, 1, 71, 0
2, 98976, Note_on_c, 1, 71, 45
2, 99072, Note_on_c, 1, 71, 0
2, 99072, Note_on_c, 1, 72, 45
2, 99166, Note_on_c, 1, 72, 0
2, 99168, Note_on_c, 1, 72, 45
2, 99264, Note_on_c, 1, 72, 0
2, 99264, Note_on_c, 1, 74, 45
2, 99358, Note_on_c, 1, 74, 0
2, 99360, Note_on_c, 1, 74, 45
2, 99456, Note_on_c, 1, 74, 0
2, 99456, Note_on_c, 1, 76, 45
2, 99550, Note_on_c, 1, 76, 0
2, 99552, Note_on_c, 1, 76, 45
2, 99648, Note_on_c, 1, 76, 0
2, 99648, Note_on_c, 1, 79, 45
2, 99840, Note_on_c, 1, 79, 0
2, 99840, Note_on_c, 1, 77, 45
2, 100000, Note_on_c, 1, 77, 0
2, 101184, Note_on_c, 1, 80, 45
2, 101376, Note_on_c, 1, 80, 0
2, 101376, Note_on_c, 1, 81, 45
2, 101568, Note_on_c, 1, 81, 0
2, 101568, Note_on_c, 1, 84, 45
2, 101760, Note_on_c, 1, 84, 0
2, 101760, Note_on_c, 1, 78, 45
2, 101920, Note_on_c, 1, 78, 0
2, 101952, Note_on_c, 1, 81, 45
2, 102144, Note_on_c, 1, 81, 0
2, 102144, Note_on_c, 1, 79, 45
2, 102238, Note_on_c, 1, 79, 0
2, 103488, Note_on_c, 1, 77, 45
2, 103520, Note_on_c, 1, 77, 0
2, 103584, Note_on_c, 1, 77, 45
2, 103680, Note_on_c, 1, 77, 0
2, 103680, Note_on_c, 1, 76, 45
2, 103774, Note_on_c, 1, 76, 0
2, 103776, Note_on_c, 1, 76, 45
2, 103872, Note_on_c, 1, 76, 0
2, 103872, Note_on_c, 1, 74, 45
2, 103966, Note_on_c, 1, 74, 0
2, 103968, Note_on_c, 1, 74, 45
2, 104064, Note_on_c, 1, 74, 0
2, 104064, Note_on_c, 1, 72, 45
2, 104158, Note_on_c, 1, 72, 0
2, 104160, Note_on_c, 1, 72, 45
2, 104254, Note_on_c, 1, 72, 0
2, 104256, Note_on_c, 1, 72, 45
2, 104448, Note_on_c, 1, 72, 0
2, 104448, Note_on_c, 1, 71, 45
2, 104542, Note_on_c, 1, 71, 0
2, 105216, Note_on_c, 1, 80, 45
2, 105600, Note_on_c, 1, 80, 0
2, 105600, Note_on_c, 1, 79, 53
2, 105792, Note_on_c, 1, 79, 0
2, 105792, Note_on_c, 1, 84, 57
2, 105952, Note_on_c, 1, 84, 0
2, 105984, Note_on_c, 1, 84, 86
2, 106368, Note_on_c, 1, 84, 0
2, 106368, Note_on_c, 1, 86, 72
2, 106512, Note_on_c, 1, 86, 0
2, 106512, Note_on_c, 1, 83, 75
2, 106558, Note_on_c, 1, 83, 0
2, 106560, Note_on_c, 1, 84, 76
2, 106720, Note_on_c, 1, 84, 0
2, 107136, Note_on_c, 1, 76, 45
2, 107424, Note_on_c, 1, 76, 0
2, 107424, Note_on_c, 1, 77, 45
2, 107472, Note_on_c, 1, 77, 0
2, 107472, Note_on_c, 1, 76, 45
2, 107518, Note_on_c, 1, 76, 0
2, 107520, Note_on_c, 1, 74, 45
2, 107552, Note_on_c, 1, 74, 0
2, 107616, Note_on_c, 1, 72, 45
2, 107648, Note_on_c, 1, 72, 0
2, 107712, Note_on_c, 1, 71, 45
2, 107872, Note_on_c, 1, 71, 0
2, 108288, Note_on_c, 1, 77, 45
2, 108576, Note_on_c, 1, 77, 0
2, 108576, Note_on_c, 1, 79, 45
2, 108624, Note_on_c, 1, 79, 0
2, 108624, Note_on_c, 1, 77, 47
2, 108670, Note_on_c, 1, 77, 0
2, 108672, Note_on_c, 1, 76, 49
2, 108704, Note_on_c, 1, 76, 0
2, 108768, Note_on_c, 1, 74, 54
2, 108800, Note_on_c, 1, 74, 0
2, 108864, Note_on_c, 1, 73, 59
2, 109024, Note_on_c, 1, 73, 0
2, 109440, Note_on_c, 1, 82, 92
2, 109726, Note_on_c, 1, 82, 0
2, 109728, Note_on_c, 1, 81, 92
2, 109776, Note_on_c, 1, 81, 0
2, 109776, Note_on_c, 1, 79, 92
2, 109824, Note_on_c, 1, 79, 0
2, 109824, Note_on_c, 1, 77, 92
2, 109872, Note_on_c, 1, 77, 0
2, 109872, Note_on_c, 1, 76, 92
2, 109920, Note_on_c, 1, 76, 0
2, 109920, Note_on_c, 1, 74, 92
2, 109968, Note_on_c, 1, 74, 0
2, 109968, Note_on_c, 1, 73, 92
2, 110014, Note_on_c, 1, 73, 0
2, 110016, Note_on_c, 1, 74, 92
2, 110048, Note_on_c, 1, 74, 0
2, 110064, Note_on_c, 1, 69, 45
2, 110096, Note_on_c, 1, 69, 0
2, 110112, Note_on_c, 1, 71, 45
2, 110144, Note_on_c, 1, 71, 0
2, 110160, Note_on_c, 1, 73, 45
2, 110192, Note_on_c, 1, 73, 0
2, 110208, Note_on_c, 1, 74, 45
2, 110240, Note_on_c, 1, 74, 0
2, 110256, Note_on_c, 1, 76, 45
2, 110288, Note_on_c, 1, 76, 0
2, 110304, Note_on_c, 1, 77, 45
2, 110336, Note_on_c, 1, 77, 0
2, 110352, Note_on_c, 1, 76, 45
2, 110384, Note_on_c, 1, 76, 0
2, 110400, Note_on_c, 1, 74, 45
2, 110432, Note_on_c, 1, 74, 0
2, 110448, Note_on_c, 1, 69, 45
2, 110480, Note_on_c, 1, 69, 0
2, 110496, Note_on_c, 1, 71, 45
2, 110528, Note_on_c, 1, 71, 0
2, 110544, Note_on_c, 1, 73, 45
2, 110576, Note_on_c, 1, 73, 0
2, 110592, Note_on_c, 1, 74, 45
2, 110638, Note_on_c, 1, 74, 0
2, 110640, Note_on_c, 1, 76, 45
2, 110686, Note_on_c, 1, 76, 0
2, 110688, Note_on_c, 1, 77, 45
2, 110734, Note_on_c, 1, 77, 0
2, 110736, Note_on_c, 1, 76, 45
2, 110782, Note_on_c, 1, 76, 0
2, 110784, Note_on_c, 1, 74, 45
2, 110830, Note_on_c, 1, 74, 0
2, 110832, Note_on_c, 1, 69, 46
2, 110878, Note_on_c, 1, 69, 0
2, 110880, Note_on_c, 1, 71, 47
2, 110926, Note_on_c, 1, 71, 0
2, 110928, Note_on_c, 1, 73, 48
2, 110974, Note_on_c, 1, 73, 0
2, 110976, Note_on_c, 1, 74, 49
2, 111022, Note_on_c, 1, 74, 0
2, 111024, Note_on_c, 1, 76, 50
2, 111070, Note_on_c, 1, 76, 0
2, 111072, Note_on_c, 1, 77, 51
2, 111118, Note_on_c, 1, 77, 0
2, 111120, Note_on_c, 1, 76, 52
2, 111166, Note_on_c, 1, 76, 0
2, 111168, Note_on_c, 1, 74, 53
2, 111214, Note_on_c, 1, 74, 0
2, 111216, Note_on_c, 1, 69, 54
2, 111262, Note_on_c, 1, 69, 0
2, 111264, Note_on_c, 1, 71, 55
2, 111310, Note_on_c, 1, 71, 0
2, 111312, Note_on_c, 1, 73, 56
2, 111358, Note_on_c, 1, 73, 0
2, 111360, Note_on_c, 1, 74, 57
2, 111406, Note_on_c, 1, 74, 0
2, 111408, Note_on_c, 1, 76, 58
2, 111454, Note_on_c, 1, 76, 0
2, 111456, Note_on_c, 1, 77, 59
2, 111502, Note_on_c, 1, 77, 0
2, 111504, Note_on_c, 1, 76, 60
2, 111550, Note_on_c, 1, 76, 0
2, 111552, Note_on_c, 1, 74, 61
2, 111598, Note_on_c, 1, 74, 0
2, 111600, Note_on_c, 1, 69, 62
2, 111646, Note_on_c, 1, 69, 0
2, 111648, Note_on_c, 1, 71, 64
2, 111694, Note_on_c, 1, 71, 0
2, 111696, Note_on_c, 1, 73, 66
2, 111742, Note_on_c, 1, 73, 0
2, 111744, Note_on_c, 1, 74, 68
2, 111790, Note_on_c, 1, 74, 0
2, 111792, Note_on_c, 1, 76, 70
2, 111838, Note_on_c, 1, 76, 0
2, 111840, Note_on_c, 1, 77, 72
2, 111886, Note_on_c, 1, 77, 0
2, 111888, Note_on_c, 1, 79, 74
2, 111934, Note_on_c, 1, 79, 0
2, 111936, Note_on_c, 1, 81, 76
2, 111982, Note_on_c, 1, 81, 0
2, 111984, Note_on_c, 1, 79, 78
2, 112030, Note_on_c, 1, 79, 0
2, 112032, Note_on_c, 1, 77, 80
2, 112078, Note_on_c, 1, 77, 0
2, 112080, Note_on_c, 1, 76, 82
2, 112126, Note_on_c, 1, 76, 0
2, 112128, Note_on_c, 1, 74, 84
2, 112174, Note_on_c, 1, 74, 0
2, 112176, Note_on_c, 1, 72, 86
2, 112222, Note_on_c, 1, 72, 0
2, 112224, Note_on_c, 1, 71, 88
2, 112270, Note_on_c, 1, 71, 0
2, 112272, Note_on_c, 1, 69, 90
2, 112318, Note_on_c, 1, 69, 0
2, 112320, Note_on_c, 1, 67, 92
2, 112848, Note_on_c, 1, 67, 0
2, 112896, Note_on_c, 1, 76, 92
2, 112926, Note_on_c, 1, 76, 0
2, 112928, Note_on_c, 1, 74, 92
2, 112960, Note_on_c, 1, 74, 0
2, 112960, Note_on_c, 1, 76, 92
2, 112992, Note_on_c, 1, 76, 0
2, 112992, Note_on_c, 1, 74, 92
2, 113024, Note_on_c, 1, 74, 0
2, 113024, Note_on_c, 1, 76, 92
2, 113056, Note_on_c, 1, 76, 0
2, 113056, Note_on_c, 1, 74, 92
2, 113088, Note_on_c, 1, 74, 0
2, 113088, Note_on_c, 1, 76, 92
2, 113120, Note_on_c, 1, 76, 0
2, 113120, Note_on_c, 1, 74, 92
2, 113152, Note_on_c, 1, 74, 0
2, 113152, Note_on_c, 1, 76, 92
2, 113184, Note_on_c, 1, 76, 0
2, 113184, Note_on_c, 1, 74, 92
2, 113216, Note_on_c, 1, 74, 0
2, 113216, Note_on_c, 1, 76, 92
2, 113248, Note_on_c, 1, 76, 0
2, 113248, Note_on_c, 1, 74, 92
2, 113280, Note_on_c, 1, 74, 0
2, 113280, Note_on_c, 1, 76, 92
2, 113312, Note_on_c, 1, 76, 0
2, 113312, Note_on_c, 1, 74, 92
2, 113344, Note_on_c, 1, 74, 0
2, 113344, Note_on_c, 1, 76, 92
2, 113376, Note_on_c, 1, 76, 0
2, 113376, Note_on_c, 1, 74, 92
2, 113408, Note_on_c, 1, 74, 0
2, 113408, Note_on_c, 1, 76, 92
2, 113440, Note_on_c, 1, 76, 0
2, 113440, Note_on_c, 1, 74, 92
2, 113472, Note_on_c, 1, 74, 0
2, 113472, Note_on_c, 1, 72, 108
2, 113632, Note_on_c, 1, 72, 0
2, 113664, Note_on_c, 1, 60, 45
2, 113952, Note_on_c, 1, 60, 0
2, 113952, Note_on_c, 1, 59, 45
2, 114046, Note_on_c, 1, 59, 0
2, 114048, Note_on_c, 1, 59, 45
2, 114144, Note_on_c, 1, 59, 0
2, 114144, Note_on_c, 1, 65, 45
2, 114238, Note_on_c, 1, 65, 0
2, 114240, Note_on_c, 1, 65, 45
2, 114336, Note_on_c, 1, 65, 0
2, 114336, Note_on_c, 1, 64, 45
2, 114430, Note_on_c, 1, 64, 0
2, 114432, Note_on_c, 1, 64, 45
2, 114528, Note_on_c, 1, 64, 0
2, 114528, Note_on_c, 1, 69, 45
2, 114622, Note_on_c, 1, 69, 0
2, 114624, Note_on_c, 1, 69, 45
2, 114720, Note_on_c, 1, 69, 0
2, 114720, Note_on_c, 1, 67, 45
2, 114814, Note_on_c, 1, 67, 0
2, 114816, Note_on_c, 1, 67, 45
2, 114912, Note_on_c, 1, 67, 0
2, 114912, Note_on_c, 1, 72, 45
2, 115006, Note_on_c, 1, 72, 0
2, 115008, Note_on_c, 1, 72, 45
2, 115104, Note_on_c, 1, 72, 0
2, 115104, Note_on_c, 1, 71, 45
2, 115198, Note_on_c, 1, 71, 0
2, 115200, Note_on_c, 1, 71, 45
2, 115296, Note_on_c, 1, 71, 0
2, 115296, Note_on_c, 1, 77, 45
2, 115390, Note_on_c, 1, 77, 0
2, 115392, Note_on_c, 1, 77, 45
2, 115552, Note_on_c, 1, 77, 0
2, 116352, Note_on_c, 1, 76, 45
2, 116640, Note_on_c, 1, 76, 0
2, 116640, Note_on_c, 1, 77, 68
2, 116688, Note_on_c, 1, 77, 0
2, 116688, Note_on_c, 1, 76, 72
2, 116734, Note_on_c, 1, 76, 0
2, 116736, Note_on_c, 1, 74, 76
2, 116768, Note_on_c, 1, 74, 0
2, 116832, Note_on_c, 1, 76, 84
2, 116864, Note_on_c, 1, 76, 0
2, 116928, Note_on_c, 1, 81, 92
2, 117504, Note_on_c, 1, 81, 0
2, 117504, Note_on_c, 1, 81, 45
2, 117696, Note_on_c, 1, 81, 0
2, 117696, Note_on_c, 1, 79, 45
2, 117744, Note_on_c, 1, 79, 0
2, 117888, Note_on_c, 1, 71, 45
2, 117936, Note_on_c, 1, 71, 0
2, 118080, Note_on_c, 1, 72, 45
2, 118128, Note_on_c, 1, 72, 0
2, 118272, Note_on_c, 1, 72, 92
2, 118560, Note_on_c, 1, 72, 0
2, 118560, Note_on_c, 1, 71, 45
2, 118654, Note_on_c, 1, 71, 0
2, 118656, Note_on_c, 1, 71, 45
2, 118752, Note_on_c, 1, 71, 0
2, 118752, Note_on_c, 1, 77, 45
2, 118846, Note_on_c, 1, 77, 0
2, 118848, Note_on_c, 1, 77, 45
2, 118944, Note_on_c, 1, 77, 0
2, 118944, Note_on_c, 1, 76, 45
2, 119038, Note_on_c, 1, 76, 0
2, 119040, Note_on_c, 1, 76, 45
2, 119136, Note_on_c, 1, 76, 0
2, 119136, Note_on_c, 1, 81, 45
2, 119230, Note_on_c, 1, 81, 0
2, 119232, Note_on_c, 1, 81, 45
2, 119328, Note_on_c, 1, 81, 0
2, 119328, Note_on_c, 1, 79, 45
2, 119422, Note_on_c, 1, 79, 0
2, 119424, Note_on_c, 1, 79, 45
2, 119520, Note_on_c, 1, 79, 0
2, 119520, Note_on_c, 1, 84, 45
2, 119614, Note_on_c, 1, 84, 0
2, 119616, Note_on_c, 1, 84, 45
2, 119712, Note_on_c, 1, 84, 0
2, 119712, Note_on_c, 1, 83, 45
2, 119806, Note_on_c, 1, 83, 0
2, 119808, Note_on_c, 1, 83, 45
2, 119904, Note_on_c, 1, 83, 0
2, 119904, Note_on_c, 1, 89, 45
2, 119998, Note_on_c, 1, 89, 0
2, 120000, Note_on_c, 1, 89, 45
2, 120160, Note_on_c, 1, 89, 0
2, 120960, Note_on_c, 1, 63, 63
2, 121488, Note_on_c, 1, 63, 0
2, 121536, Note_on_c, 1, 60, 63
2, 121536, Note_on_c, 1, 63, 63
2, 122064, Note_on_c, 1, 63, 0
2, 122064, Note_on_c, 1, 60, 0
2, 122112, Note_on_c, 1, 60, 63
2, 122112, Note_on_c, 1, 63, 63
2, 122448, Note_on_c, 1, 63, 0
2, 122448, Note_on_c, 1, 60, 0
2, 122496, Note_on_c, 1, 60, 63
2, 122496, Note_on_c, 1, 63, 63
2, 122656, Note_on_c, 1, 63, 0
2, 122656, Note_on_c, 1, 60, 0
2, 122688, Note_on_c, 1, 60, 108
2, 122688, Note_on_c, 1, 64, 108
2, 122736, Note_on_c, 1, 64, 0
2, 122736, Note_on_c, 1, 60, 0
2, 122880, Note_on_c, 1, 65, 108
2, 122928, Note_on_c, 1, 65, 0
2, 123072, Note_on_c, 1, 62, 108
2, 123120, Note_on_c, 1, 62, 0
2, 123264, Note_on_c, 1, 60, 127
2, 123424, Note_on_c, 1, 60, 0
2, 124032, Note_on_c, 1, 76, 45
2, 124192, Note_on_c, 1, 76, 0
2, 124224, Note_on_c, 1, 77, 45
2, 124256, Note_on_c, 1, 77, 0
2, 124256, Note_on_c, 1, 76, 45
2, 124288, Note_on_c, 1, 76, 0
2, 124288, Note_on_c, 1, 77, 45
2, 124320, Note_on_c, 1, 77, 0
2, 124320, Note_on_c, 1, 76, 45
2, 124352, Note_on_c, 1, 76, 0
2, 124352, Note_on_c, 1, 74, 45
2, 124384, Note_on_c, 1, 74, 0
2, 124384, Note_on_c, 1, 76, 45
2, 124414, Note_on_c, 1, 76, 0
2, 124416, Note_on_c, 1, 79, 45
2, 124608, Note_on_c, 1, 79, 0
2, 124608, Note_on_c, 1, 77, 45
2, 124768, Note_on_c, 1, 77, 0
2, 125184, Note_on_c, 1, 83, 45
2, 125344, Note_on_c, 1, 83, 0
2, 125376, Note_on_c, 1, 84, 45
2, 125408, Note_on_c, 1, 84, 0
2, 125408, Note_on_c, 1, 83, 45
2, 125440, Note_on_c, 1, 83, 0
2, 125440, Note_on_c, 1, 84, 45
2, 125472, Note_on_c, 1, 84, 0
2, 125472, Note_on_c, 1, 83, 45
2, 125504, Note_on_c, 1, 83, 0
2, 125504, Note_on_c, 1, 81, 45
2, 125536, Note_on_c, 1, 81, 0
2, 125536, Note_on_c, 1, 83, 45
2, 125566, Note_on_c, 1, 83, 0
2, 125568, Note_on_c, 1, 84, 45
2, 125664, Note_on_c, 1, 84, 0
2, 125664, Note_on_c, 1, 88, 45
2, 125758, Note_on_c, 1, 88, 0
2, 125760, Note_on_c, 1, 79, 45
2, 125920, Note_on_c, 1, 79, 0
2, 126144, Note_on_c, 1, 77, 45
2, 126192, Note_on_c, 1, 77, 0
2, 126192, Note_on_c, 1, 76, 45
2, 126240, Note_on_c, 1, 76, 0
2, 126240, Note_on_c, 1, 74, 45
2, 126288, Note_on_c, 1, 74, 0
2, 126288, Note_on_c, 1, 76, 45
2, 126334, Note_on_c, 1, 76, 0
2, 126336, Note_on_c, 1, 77, 45
2, 126384, Note_on_c, 1, 77, 0
2, 126384, Note_on_c, 1, 76, 45
2, 126432, Note_on_c, 1, 76, 0
2, 126432, Note_on_c, 1, 74, 45
2, 126480, Note_on_c, 1, 74, 0
2, 126480, Note_on_c, 1, 76, 45
2, 126526, Note_on_c, 1, 76, 0
2, 126528, Note_on_c, 1, 77, 45
2, 126576, Note_on_c, 1, 77, 0
2, 126576, Note_on_c, 1, 76, 45
2, 126624, Note_on_c, 1, 76, 0
2, 126624, Note_on_c, 1, 74, 45
2, 126672, Note_on_c, 1, 74, 0
2, 126672, Note_on_c, 1, 76, 45
2, 126718, Note_on_c, 1, 76, 0
2, 126720, Note_on_c, 1, 79, 45
2, 126912, Note_on_c, 1, 79, 0
2, 126912, Note_on_c, 1, 77, 45
2, 127072, Note_on_c, 1, 77, 0
2, 127296, Note_on_c, 1, 84, 45
2, 127344, Note_on_c, 1, 84, 0
2, 127344, Note_on_c, 1, 83, 45
2, 127392, Note_on_c, 1, 83, 0
2, 127392, Note_on_c, 1, 81, 45
2, 127440, Note_on_c, 1, 81, 0
2, 127440, Note_on_c, 1, 83, 45
2, 127486, Note_on_c, 1, 83, 0
2, 127488, Note_on_c, 1, 84, 45
2, 127536, Note_on_c, 1, 84, 0
2, 127536, Note_on_c, 1, 83, 45
2, 127584, Note_on_c, 1, 83, 0
2, 127584, Note_on_c, 1, 81, 45
2, 127632, Note_on_c, 1, 81, 0
2, 127632, Note_on_c, 1, 83, 45
2, 127678, Note_on_c, 1, 83, 0
2, 127680, Note_on_c, 1, 84, 45
2, 127728, Note_on_c, 1, 84, 0
2, 127728, Note_on_c, 1, 83, 45
2, 127776, Note_on_c, 1, 83, 0
2, 127776, Note_on_c, 1, 81, 45
2, 127824, Note_on_c, 1, 81, 0
2, 127824, Note_on_c, 1, 83, 45
2, 127870, Note_on_c, 1, 83, 0
2, 127872, Note_on_c, 1, 84, 45
2, 127904, Note_on_c, 1, 84, 0
2, 127920, Note_on_c, 1, 88, 45
2, 127952, Note_on_c, 1, 88, 0
2, 127968, Note_on_c, 1, 86, 45
2, 128000, Note_on_c, 1, 86, 0
2, 128016, Note_on_c, 1, 84, 45
2, 128048, Note_on_c, 1, 84, 0
2, 128064, Note_on_c, 1, 83, 45
2, 128096, Note_on_c, 1, 83, 0
2, 128112, Note_on_c, 1, 81, 45
2, 128144, Note_on_c, 1, 81, 0
2, 128160, Note_on_c, 1, 79, 45
2, 128192, Note_on_c, 1, 79, 0
2, 128208, Note_on_c, 1, 77, 45
2, 128240, Note_on_c, 1, 77, 0
2, 128256, Note_on_c, 1, 76, 45
2, 128288, Note_on_c, 1, 76, 0
2, 128304, Note_on_c, 1, 84, 45
2, 128336, Note_on_c, 1, 84, 0
2, 128352, Note_on_c, 1, 83, 45
2, 128384, Note_on_c, 1, 83, 0
2, 128400, Note_on_c, 1, 81, 45
2, 128432, Note_on_c, 1, 81, 0
2, 128448, Note_on_c, 1, 79, 45
2, 128494, Note_on_c, 1, 79, 0
2, 128496, Note_on_c, 1, 77, 46
2, 128542, Note_on_c, 1, 77, 0
2, 128544, Note_on_c, 1, 76, 47
2, 128590, Note_on_c, 1, 76, 0
2, 128592, Note_on_c, 1, 74, 48
2, 128638, Note_on_c, 1, 74, 0
2, 128640, Note_on_c, 1, 72, 49
2, 128686, Note_on_c, 1, 72, 0
2, 128688, Note_on_c, 1, 79, 50
2, 128734, Note_on_c, 1, 79, 0
2, 128736, Note_on_c, 1, 77, 51
2, 128782, Note_on_c, 1, 77, 0
2, 128784, Note_on_c, 1, 76, 52
2, 128830, Note_on_c, 1, 76, 0
2, 128832, Note_on_c, 1, 74, 53
2, 128878, Note_on_c, 1, 74, 0
2, 128880, Note_on_c, 1, 72, 54
2, 128926, Note_on_c, 1, 72, 0
2, 128928, Note_on_c, 1, 71, 55
2, 128974, Note_on_c, 1, 71, 0
2, 128976, Note_on_c, 1, 69, 57
2, 129022, Note_on_c, 1, 69, 0
2, 129024, Note_on_c, 1, 67, 59
2, 129070, Note_on_c, 1, 67, 0
2, 129072, Note_on_c, 1, 76, 61
2, 129118, Note_on_c, 1, 76, 0
2, 129120, Note_on_c, 1, 74, 63
2, 129166, Note_on_c, 1, 74, 0
2, 129168, Note_on_c, 1, 72, 65
2, 129214, Note_on_c, 1, 72, 0
2, 129216, Note_on_c, 1, 71, 67
2, 129262, Note_on_c, 1, 71, 0
2, 129264, Note_on_c, 1, 69, 69
2, 129310, Note_on_c, 1, 69, 0
2, 129312, Note_on_c, 1, 67, 71
2, 129358, Note_on_c, 1, 67, 0
2, 129360, Note_on_c, 1, 65, 73
2, 129406, Note_on_c, 1, 65, 0
2, 129408, Note_on_c, 1, 64, 75
2, 129454, Note_on_c, 1, 64, 0
2, 129456, Note_on_c, 1, 72, 78
2, 129502, Note_on_c, 1, 72, 0
2, 129504, Note_on_c, 1, 71, 81
2, 129550, Note_on_c, 1, 71, 0
2, 129552, Note_on_c, 1, 69, 84
2, 129598, Note_on_c, 1, 69, 0
2, 129600, Note_on_c, 1, 67, 87
2, 129646, Note_on_c, 1, 67, 0
2, 129648, Note_on_c, 1, 65, 90
2, 129694, Note_on_c, 1, 65, 0
2, 129696, Note_on_c, 1, 64, 93
2, 129742, Note_on_c, 1, 64, 0
2, 129744, Note_on_c, 1, 62, 96
2, 129790, Note_on_c, 1, 62, 0
2, 129792, Note_on_c, 1, 60, 99
2, 129840, Note_on_c, 1, 60, 0
2, 129840, Note_on_c, 1, 59, 102
2, 129888, Note_on_c, 1, 59, 0
2, 129888, Note_on_c, 1, 60, 105
2, 129936, Note_on_c, 1, 60, 0
2, 129936, Note_on_c, 1, 59, 108
2, 129984, Note_on_c, 1, 59, 0
2, 129984, Note_on_c, 1, 60, 111
2, 130032, Note_on_c, 1, 60, 0
2, 130032, Note_on_c, 1, 59, 115
2, 130080, Note_on_c, 1, 59, 0
2, 130080, Note_on_c, 1, 60, 119
2, 130128, Note_on_c, 1, 60, 0
2, 130128, Note_on_c, 1, 59, 123
2, 130174, Note_on_c, 1, 59, 0
2, 130176, Note_on_c, 1, 60, 127
2, 130224, Note_on_c, 1, 60, 0
2, 130368, Note_on_c, 1, 60, 92
2, 130416, Note_on_c, 1, 60, 0
2, 130560, Note_on_c, 1, 60, 92
2, 130608, Note_on_c, 1, 60, 0
2, 130752, Note_on_c, 1, 60, 92
2, 130800, Note_on_c, 1, 60, 0
2, 131328, Note_on_c, 1, 81, 92
2, 131360, Note_on_c, 1, 81, 0
2, 131376, Note_on_c, 1, 88, 92
2, 131408, Note_on_c, 1, 88, 0
2, 131424, Note_on_c, 1, 86, 92
2, 131456, Note_on_c, 1, 86, 0
2, 131472, Note_on_c, 1, 85, 92
2, 131504, Note_on_c, 1, 85, 0
2, 131520, Note_on_c, 1, 83, 92
2, 131552, Note_on_c, 1, 83, 0
2, 131568, Note_on_c, 1, 81, 92
2, 131600, Note_on_c, 1, 81, 0
2, 131616, Note_on_c, 1, 80, 92
2, 131648, Note_on_c, 1, 80, 0
2, 131664, Note_on_c, 1, 78, 92
2, 131696, Note_on_c, 1, 78, 0
2, 131712, Note_on_c, 1, 76, 92
2, 131744, Note_on_c, 1, 76, 0
2, 131760, Note_on_c, 1, 81, 92
2, 131792, Note_on_c, 1, 81, 0
2, 131808, Note_on_c, 1, 80, 92
2, 131840, Note_on_c, 1, 80, 0
2, 131856, Note_on_c, 1, 78, 92
2, 131888, Note_on_c, 1, 78, 0
2, 131904, Note_on_c, 1, 76, 92
2, 131936, Note_on_c, 1, 76, 0
2, 131952, Note_on_c, 1, 74, 92
2, 131984, Note_on_c, 1, 74, 0
2, 132000, Note_on_c, 1, 73, 92
2, 132032, Note_on_c, 1, 73, 0
2, 132048, Note_on_c, 1, 71, 92
2, 132080, Note_on_c, 1, 71, 0
2, 132096, Note_on_c, 1, 69, 92
2, 132142, Note_on_c, 1, 69, 0
2, 132144, Note_on_c, 1, 76, 92
2, 132190, Note_on_c, 1, 76, 0
2, 132192, Note_on_c, 1, 74, 92
2, 132238, Note_on_c, 1, 74, 0
2, 132240, Note_on_c, 1, 73, 92
2, 132286, Note_on_c, 1, 73, 0
2, 132288, Note_on_c, 1, 71, 92
2, 132334, Note_on_c, 1, 71, 0
2, 132336, Note_on_c, 1, 69, 92
2, 132382, Note_on_c, 1, 69, 0
2, 132384, Note_on_c, 1, 68, 92
2, 132430, Note_on_c, 1, 68, 0
2, 132432, Note_on_c, 1, 66, 92
2, 132478, Note_on_c, 1, 66, 0
2, 132480, Note_on_c, 1, 64, 92
2, 132526, Note_on_c, 1, 64, 0
2, 132528, Note_on_c, 1, 69, 127
2, 132574, Note_on_c, 1, 69, 0
2, 132576, Note_on_c, 1, 68, 127
2, 132622, Note_on_c, 1, 68, 0
2, 132624, Note_on_c, 1, 66, 127
2, 132670, Note_on_c, 1, 66, 0
2, 132672, Note_on_c, 1, 64, 127
2, 132718, Note_on_c, 1, 64, 0
2, 132720, Note_on_c, 1, 62, 127
2, 132766, Note_on_c, 1, 62, 0
2, 132768, Note_on_c, 1, 61, 127
2, 132814, Note_on_c, 1, 61, 0
2, 132816, Note_on_c, 1, 59, 127
2, 132862, Note_on_c, 1, 59, 0
2, 132864, Note_on_c, 1, 57, 127
2, 132912, Note_on_c, 1, 57, 0
2, 132912, Note_on_c, 1, 56, 127
2, 132960, Note_on_c, 1, 56, 0
2, 132960, Note_on_c, 1, 57, 127
2, 133008, Note_on_c, 1, 57, 0
2, 133008, Note_on_c, 1, 56, 127
2, 133054, Note_on_c, 1, 56, 0
2, 133056, Note_on_c, 1, 57, 127
2, 133104, Note_on_c, 1, 57, 0
2, 133248, Note_on_c, 1, 57, 127
2, 133296, Note_on_c, 1, 57, 0
2, 133440, Note_on_c, 1, 57, 127
2, 133632, Note_on_c, 1, 57, 0
2, 133632, Note_on_c, 1, 58, 127
2, 134254, Note_on_c, 1, 58, 0
2, 134256, Note_on_c, 1, 74, 45
2, 134302, Note_on_c, 1, 74, 0
2, 134304, Note_on_c, 1, 77, 45
2, 134350, Note_on_c, 1, 77, 0
2, 134352, Note_on_c, 1, 82, 45
2, 134398, Note_on_c, 1, 82, 0
2, 134400, Note_on_c, 1, 86, 45
2, 134446, Note_on_c, 1, 86, 0
2, 134448, Note_on_c, 1, 82, 45
2, 134494, Note_on_c, 1, 82, 0
2, 134496, Note_on_c, 1, 86, 45
2, 134542, Note_on_c, 1, 86, 0
2, 134544, Note_on_c, 1, 82, 45
2, 134590, Note_on_c, 1, 82, 0
2, 134592, Note_on_c, 1, 86, 45
2, 134638, Note_on_c, 1, 86, 0
2, 134640, Note_on_c, 1, 82, 45
2, 134686, Note_on_c, 1, 82, 0
2, 134688, Note_on_c, 1, 86, 45
2, 134734, Note_on_c, 1, 86, 0
2, 134736, Note_on_c, 1, 82, 45
2, 134782, Note_on_c, 1, 82, 0
2, 134784, Note_on_c, 1, 87, 92
2, 134944, Note_on_c, 1, 87, 0
2, 135408, Note_on_c, 1, 75, 45
2, 135454, Note_on_c, 1, 75, 0
2, 135456, Note_on_c, 1, 79, 45
2, 135502, Note_on_c, 1, 79, 0
2, 135504, Note_on_c, 1, 82, 45
2, 135550, Note_on_c, 1, 82, 0
2, 135552, Note_on_c, 1, 87, 45
2, 135598, Note_on_c, 1, 87, 0
2, 135600, Note_on_c, 1, 82, 45
2, 135646, Note_on_c, 1, 82, 0
2, 135648, Note_on_c, 1, 87, 45
2, 135694, Note_on_c, 1, 87, 0
2, 135696, Note_on_c, 1, 82, 45
2, 135742, Note_on_c, 1, 82, 0
2, 135744, Note_on_c, 1, 87, 45
2, 135790, Note_on_c, 1, 87, 0
2, 135792, Note_on_c, 1, 82, 45
2, 135838, Note_on_c, 1, 82, 0
2, 135840, Note_on_c, 1, 87, 45
2, 135886, Note_on_c, 1, 87, 0
2, 135888, Note_on_c, 1, 82, 45
2, 135934, Note_on_c, 1, 82, 0
2, 135936, Note_on_c, 1, 87, 45
2, 136096, Note_on_c, 1, 87, 0
2, 137088, Note_on_c, 1, 84, 30
2, 137472, Note_on_c, 1, 84, 0
2, 137472, Note_on_c, 1, 75, 30
2, 137632, Note_on_c, 1, 75, 0
2, 138816, Note_on_c, 1, 88, 30
2, 139200, Note_on_c, 1, 88, 0
2, 139200, Note_on_c, 1, 79, 30
2, 139360, Note_on_c, 1, 79, 0
2, 140544, Note_on_c, 1, 82, 92
2, 140832, Note_on_c, 1, 82, 0
2, 140832, Note_on_c, 1, 84, 92
2, 140880, Note_on_c, 1, 84, 0
2, 140880, Note_on_c, 1, 82, 92
2, 140926, Note_on_c, 1, 82, 0
2, 140928, Note_on_c, 1, 81, 92
2, 140960, Note_on_c, 1, 81, 0
2, 141024, Note_on_c, 1, 82, 92
2, 141056, Note_on_c, 1, 82, 0
2, 141120, Note_on_c, 1, 73, 92
2, 141168, Note_on_c, 1, 73, 0
2, 141312, Note_on_c, 1, 88, 92
2, 141360, Note_on_c, 1, 88, 0
2, 141504, Note_on_c, 1, 86, 92
2, 141552, Note_on_c, 1, 86, 0
2, 141696, Note_on_c, 1, 85, 92
2, 141792, Note_on_c, 1, 85, 0
2, 141792, Note_on_c, 1, 88, 92
2, 141840, Note_on_c, 1, 88, 0
2, 141840, Note_on_c, 1, 86, 92
2, 141886, Note_on_c, 1, 86, 0
2, 141888, Note_on_c, 1, 85, 127
2, 142176, Note_on_c, 1, 85, 0
2, 142176, Note_on_c, 1, 86, 92
2, 142270, Note_on_c, 1, 86, 0
2, 142272, Note_on_c, 1, 85, 92
2, 142368, Note_on_c, 1, 85, 0
2, 142368, Note_on_c, 1, 88, 92
2, 142416, Note_on_c, 1, 88, 0
2, 142416, Note_on_c, 1, 86, 92
2, 142462, Note_on_c, 1, 86, 0
2, 142464, Note_on_c, 1, 85, 127
2, 142752, Note_on_c, 1, 85, 0
2, 142752, Note_on_c, 1, 86, 92
2, 142846, Note_on_c, 1, 86, 0
2, 144000, Note_on_c, 1, 87, 92
2, 144288, Note_on_c, 1, 87, 0
2, 144288, Note_on_c, 1, 89, 92
2, 144336, Note_on_c, 1, 89, 0
2, 144336, Note_on_c, 1, 87, 92
2, 144382, Note_on_c, 1, 87, 0
2, 144384, Note_on_c, 1, 86, 92
2, 144416, Note_on_c, 1, 86, 0
2, 144480, Note_on_c, 1, 87, 92
2, 144512, Note_on_c, 1, 87, 0
2, 144576, Note_on_c, 1, 78, 92
2, 144624, Note_on_c, 1, 78, 0
2, 144768, Note_on_c, 1, 84, 92
2, 144816, Note_on_c, 1, 84, 0
2, 144960, Note_on_c, 1, 82, 92
2, 145008, Note_on_c, 1, 82, 0
2, 145152, Note_on_c, 1, 81, 92
2, 145248, Note_on_c, 1, 81, 0
2, 145248, Note_on_c, 1, 84, 92
2, 145296, Note_on_c, 1, 84, 0
2, 145296, Note_on_c, 1, 82, 92
2, 145342, Note_on_c, 1, 82, 0
2, 145344, Note_on_c, 1, 81, 127
2, 145632, Note_on_c, 1, 81, 0
2, 145632, Note_on_c, 1, 82, 92
2, 145726, Note_on_c, 1, 82, 0
2, 145728, Note_on_c, 1, 81, 92
2, 145824, Note_on_c, 1, 81, 0
2, 145824, Note_on_c, 1, 84, 92
2, 145872, Note_on_c, 1, 84, 0
2, 145872, Note_on_c, 1, 82, 92
2, 145918, Note_on_c, 1, 82, 0
2, 145920, Note_on_c, 1, 81, 127
2, 146208, Note_on_c, 1, 81, 0
2, 146208, Note_on_c, 1, 82, 92
2, 146302, Note_on_c, 1, 82, 0
2, 147456, Note_on_c, 1, 80, 92
2, 147744, Note_on_c, 1, 80, 0
2, 147744, Note_on_c, 1, 82, 92
2, 147792, Note_on_c, 1, 82, 0
2, 147792, Note_on_c, 1, 80, 92
2, 147838, Note_on_c, 1, 80, 0
2, 147840, Note_on_c, 1, 79, 92
2, 147872, Note_on_c, 1, 79, 0
2, 147936, Note_on_c, 1, 80, 92
2, 147968, Note_on_c, 1, 80, 0
2, 148032, Note_on_c, 1, 71, 92
2, 148080, Note_on_c, 1, 71, 0
2, 148224, Note_on_c, 1, 80, 92
2, 148272, Note_on_c, 1, 80, 0
2, 148416, Note_on_c, 1, 80, 92
2, 148464, Note_on_c, 1, 80, 0
2, 148608, Note_on_c, 1, 80, 92
2, 148896, Note_on_c, 1, 80, 0
2, 148896, Note_on_c, 1, 77, 92
2, 148944, Note_on_c, 1, 77, 0
2, 148944, Note_on_c, 1, 79, 92
2, 148990, Note_on_c, 1, 79, 0
2, 148992, Note_on_c, 1, 80, 92
2, 149088, Note_on_c, 1, 80, 0
2, 149088, Note_on_c, 1, 79, 92
2, 149182, Note_on_c, 1, 79, 0
2, 149184, Note_on_c, 1, 80, 92
2, 149472, Note_on_c, 1, 80, 0
2, 149472, Note_on_c, 1, 77, 92
2, 149520, Note_on_c, 1, 77, 0
2, 149520, Note_on_c, 1, 79, 92
2, 149566, Note_on_c, 1, 79, 0
2, 149568, Note_on_c, 1, 80, 92
2, 149664, Note_on_c, 1, 80, 0
2, 149664, Note_on_c, 1, 79, 92
2, 149758, Note_on_c, 1, 79, 0
2, 149952, Note_on_c, 1, 88, 127
2, 150048, Note_on_c, 1, 88, 0
2, 150048, Note_on_c, 1, 91, 92
2, 150096, Note_on_c, 1, 91, 0
2, 150096, Note_on_c, 1, 89, 92
2, 150142, Note_on_c, 1, 89, 0
2, 150144, Note_on_c, 1, 88, 92
2, 150240, Note_on_c, 1, 88, 0
2, 150240, Note_on_c, 1, 89, 92
2, 150334, Note_on_c, 1, 89, 0
2, 150528, Note_on_c, 1, 88, 127
2, 150624, Note_on_c, 1, 88, 0
2, 150624, Note_on_c, 1, 91, 92
2, 150672, Note_on_c, 1, 91, 0
2, 150672, Note_on_c, 1, 89, 92
2, 150718, Note_on_c, 1, 89, 0
2, 150720, Note_on_c, 1, 88, 92
2, 150816, Note_on_c, 1, 88, 0
2, 150816, Note_on_c, 1, 89, 92
2, 150910, Note_on_c, 1, 89, 0
2, 150912, Note_on_c, 1, 81, 92
2, 151200, Note_on_c, 1, 81, 0
2, 151200, Note_on_c, 1, 84, 92
2, 151248, Note_on_c, 1, 84, 0
2, 151248, Note_on_c, 1, 82, 92
2, 151294, Note_on_c, 1, 82, 0
2, 151296, Note_on_c, 1, 81, 92
2, 151392, Note_on_c, 1, 81, 0
2, 151392, Note_on_c, 1, 82, 92
2, 151486, Note_on_c, 1, 82, 0
2, 151488, Note_on_c, 1, 81, 92
2, 151776, Note_on_c, 1, 81, 0
2, 151776, Note_on_c, 1, 84, 92
2, 151824, Note_on_c, 1, 84, 0
2, 151824, Note_on_c, 1, 82, 92
2, 151870, Note_on_c, 1, 82, 0
2, 151872, Note_on_c, 1, 81, 92
2, 151968, Note_on_c, 1, 81, 0
2, 151968, Note_on_c, 1, 82, 92
2, 152062, Note_on_c, 1, 82, 0
2, 152064, Note_on_c, 1, 85, 92
2, 152352, Note_on_c, 1, 85, 0
2, 152352, Note_on_c, 1, 87, 45
2, 152400, Note_on_c, 1, 87, 0
2, 152400, Note_on_c, 1, 85, 45
2, 152446, Note_on_c, 1, 85, 0
2, 152448, Note_on_c, 1, 84, 45
2, 152480, Note_on_c, 1, 84, 0
2, 152544, Note_on_c, 1, 85, 45
2, 152576, Note_on_c, 1, 85, 0
2, 152640, Note_on_c, 1, 82, 45
2, 152928, Note_on_c, 1, 82, 0
2, 152928, Note_on_c, 1, 84, 45
2, 152976, Note_on_c, 1, 84, 0
2, 152976, Note_on_c, 1, 82, 45
2, 153022, Note_on_c, 1, 82, 0
2, 153024, Note_on_c, 1, 81, 45
2, 153056, Note_on_c, 1, 81, 0
2, 153120, Note_on_c, 1, 82, 45
2, 153152, Note_on_c, 1, 82, 0
2, 153216, Note_on_c, 1, 77, 45
2, 153504, Note_on_c, 1, 77, 0
2, 153504, Note_on_c, 1, 78, 45
2, 153552, Note_on_c, 1, 78, 0
2, 153552, Note_on_c, 1, 77, 45
2, 153598, Note_on_c, 1, 77, 0
2, 153600, Note_on_c, 1, 76, 45
2, 153632, Note_on_c, 1, 76, 0
2, 153696, Note_on_c, 1, 77, 45
2, 153728, Note_on_c, 1, 77, 0
2, 153792, Note_on_c, 1, 73, 45
2, 154080, Note_on_c, 1, 73, 0
2, 154080, Note_on_c, 1, 75, 45
2, 154128, Note_on_c, 1, 75, 0
2, 154128, Note_on_c, 1, 73, 45
2, 154174, Note_on_c, 1, 73, 0
2, 154176, Note_on_c, 1, 72, 45
2, 154208, Note_on_c, 1, 72, 0
2, 154272, Note_on_c, 1, 73, 45
2, 154304, Note_on_c, 1, 73, 0
2, 154368, Note_on_c, 1, 61, 92
2, 154462, Note_on_c, 1, 61, 0
2, 154464, Note_on_c, 1, 61, 45
2, 154558, Note_on_c, 1, 61, 0
2, 154560, Note_on_c, 1, 61, 45
2, 154654, Note_on_c, 1, 61, 0
2, 154656, Note_on_c, 1, 61, 45
2, 154750, Note_on_c, 1, 61, 0
2, 154752, Note_on_c, 1, 61, 45
2, 154846, Note_on_c, 1, 61, 0
2, 154848, Note_on_c, 1, 61, 45
2, 154942, Note_on_c, 1, 61, 0
2, 154944, Note_on_c, 1, 61, 45
2, 155038, Note_on_c, 1, 61, 0
2, 155040, Note_on_c, 1, 61, 45
2, 155134, Note_on_c, 1, 61, 0
2, 155136, Note_on_c, 1, 61, 45
2, 155230, Note_on_c, 1, 61, 0
2, 155232, Note_on_c, 1, 61, 45
2, 155326, Note_on_c, 1, 61, 0
2, 155328, Note_on_c, 1, 61, 45
2, 155422, Note_on_c, 1, 61, 0
2, 155424, Note_on_c, 1, 61, 45
2, 155518, Note_on_c, 1, 61, 0
2, 155520, Note_on_c, 1, 61, 45
2, 155614, Note_on_c, 1, 61, 0
2, 155616, Note_on_c, 1, 61, 45
2, 155710, Note_on_c, 1, 61, 0
2, 155712, Note_on_c, 1, 61, 45
2, 155806, Note_on_c, 1, 61, 0
2, 155808, Note_on_c, 1, 61, 45
2, 155902, Note_on_c, 1, 61, 0
2, 155904, Note_on_c, 1, 61, 45
2, 155998, Note_on_c, 1, 61, 0
2, 156000, Note_on_c, 1, 61, 45
2, 156094, Note_on_c, 1, 61, 0
2, 156096, Note_on_c, 1, 61, 45
2, 156190, Note_on_c, 1, 61, 0
2, 156192, Note_on_c, 1, 61, 45
2, 156286, Note_on_c, 1, 61, 0
2, 156288, Note_on_c, 1, 61, 45
2, 156382, Note_on_c, 1, 61, 0
2, 156384, Note_on_c, 1, 61, 45
2, 156478, Note_on_c, 1, 61, 0
2, 156480, Note_on_c, 1, 60, 45
2, 156574, Note_on_c, 1, 60, 0
2, 156576, Note_on_c, 1, 60, 45
2, 156670, Note_on_c, 1, 60, 0
2, 156672, Note_on_c, 1, 77, 92
2, 156960, Note_on_c, 1, 77, 0
2, 156960, Note_on_c, 1, 79, 45
2, 157008, Note_on_c, 1, 79, 0
2, 157008, Note_on_c, 1, 77, 45
2, 157054, Note_on_c, 1, 77, 0
2, 157056, Note_on_c, 1, 76, 45
2, 157088, Note_on_c, 1, 76, 0
2, 157152, Note_on_c, 1, 77, 45
2, 157184, Note_on_c, 1, 77, 0
2, 157248, Note_on_c, 1, 72, 45
2, 157536, Note_on_c, 1, 72, 0
2, 157536, Note_on_c, 1, 73, 45
2, 157584, Note_on_c, 1, 73, 0
2, 157584, Note_on_c, 1, 72, 45
2, 157630, Note_on_c, 1, 72, 0
2, 157632, Note_on_c, 1, 71, 45
2, 157664, Note_on_c, 1, 71, 0
2, 157728, Note_on_c, 1, 72, 45
2, 157760, Note_on_c, 1, 72, 0
2, 157824, Note_on_c, 1, 68, 45
2, 158112, Note_on_c, 1, 68, 0
2, 158112, Note_on_c, 1, 70, 45
2, 158160, Note_on_c, 1, 70, 0
2, 158160, Note_on_c, 1, 68, 45
2, 158206, Note_on_c, 1, 68, 0
2, 158208, Note_on_c, 1, 67, 45
2, 158240, Note_on_c, 1, 67, 0
2, 158304, Note_on_c, 1, 68, 45
2, 158336, Note_on_c, 1, 68, 0
2, 158400, Note_on_c, 1, 65, 45
2, 158688, Note_on_c, 1, 65, 0
2, 158688, Note_on_c, 1, 67, 45
2, 158736, Note_on_c, 1, 67, 0
2, 158736, Note_on_c, 1, 65, 45
2, 158782, Note_on_c, 1, 65, 0
2, 158784, Note_on_c, 1, 64, 45
2, 158816, Note_on_c, 1, 64, 0
2, 158880, Note_on_c, 1, 65, 45
2, 158912, Note_on_c, 1, 65, 0
2, 158976, Note_on_c, 1, 65, 92
2, 159070, Note_on_c, 1, 65, 0
2, 159072, Note_on_c, 1, 65, 45
2, 159166, Note_on_c, 1, 65, 0
2, 159168, Note_on_c, 1, 65, 45
2, 159262, Note_on_c, 1, 65, 0
2, 159264, Note_on_c, 1, 65, 45
2, 159358, Note_on_c, 1, 65, 0
2, 159360, Note_on_c, 1, 65, 45
2, 159454, Note_on_c, 1, 65, 0
2, 159456, Note_on_c, 1, 65, 45
2, 159550, Note_on_c, 1, 65, 0
2, 159552, Note_on_c, 1, 65, 45
2, 159646, Note_on_c, 1, 65, 0
2, 159648, Note_on_c, 1, 65, 45
2, 159742, Note_on_c, 1, 65, 0
2, 159744, Note_on_c, 1, 65, 45
2, 159838, Note_on_c, 1, 65, 0
2, 159840, Note_on_c, 1, 65, 45
2, 159934, Note_on_c, 1, 65, 0
2, 159936, Note_on_c, 1, 65, 45
2, 160030, Note_on_c, 1, 65, 0
2, 160032, Note_on_c, 1, 65, 45
2, 160126, Note_on_c, 1, 65, 0
2, 160224, Note_on_c, 1, 65, 45
2, 160318, Note_on_c, 1, 65, 0
2, 160320, Note_on_c, 1, 65, 45
2, 160414, Note_on_c, 1, 65, 0
2, 160416, Note_on_c, 1, 65, 45
2, 160510, Note_on_c, 1, 65, 0
2, 160512, Note_on_c, 1, 65, 45
2, 160606, Note_on_c, 1, 65, 0
2, 160704, Note_on_c, 1, 65, 45
2, 160798, Note_on_c, 1, 65, 0
2, 160800, Note_on_c, 1, 65, 45
2, 160894, Note_on_c, 1, 65, 0
2, 160896, Note_on_c, 1, 65, 45
2, 160990, Note_on_c, 1, 65, 0
2, 160992, Note_on_c, 1, 65, 45
2, 161086, Note_on_c, 1, 65, 0
2, 161088, Note_on_c, 1, 65, 45
2, 161182, Note_on_c, 1, 65, 0
2, 161184, Note_on_c, 1, 65, 45
2, 161278, Note_on_c, 1, 65, 0
2, 161280, Note_on_c, 1, 64, 45
2, 161312, Note_on_c, 1, 64, 0
2, 161328, Note_on_c, 1, 84, 45
2, 161360, Note_on_c, 1, 84, 0
2, 161376, Note_on_c, 1, 83, 45
2, 161408, Note_on_c, 1, 83, 0
2, 161424, Note_on_c, 1, 81, 45
2, 161456, Note_on_c, 1, 81, 0
2, 161472, Note_on_c, 1, 79, 45
2, 161504, Note_on_c, 1, 79, 0
2, 161520, Note_on_c, 1, 77, 45
2, 161552, Note_on_c, 1, 77, 0
2, 161568, Note_on_c, 1, 76, 45
2, 161600, Note_on_c, 1, 76, 0
2, 161616, Note_on_c, 1, 74, 45
2, 161648, Note_on_c, 1, 74, 0
2, 161664, Note_on_c, 1, 72, 63
2, 161902, Note_on_c, 1, 72, 0
2, 161904, Note_on_c, 1, 84, 45
2, 161936, Note_on_c, 1, 84, 0
2, 161952, Note_on_c, 1, 83, 45
2, 161984, Note_on_c, 1, 83, 0
2, 162000, Note_on_c, 1, 81, 45
2, 162032, Note_on_c, 1, 81, 0
2, 162048, Note_on_c, 1, 79, 45
2, 162094, Note_on_c, 1, 79, 0
2, 162096, Note_on_c, 1, 77, 45
2, 162142, Note_on_c, 1, 77, 0
2, 162144, Note_on_c, 1, 76, 45
2, 162190, Note_on_c, 1, 76, 0
2, 162192, Note_on_c, 1, 74, 45
2, 162238, Note_on_c, 1, 74, 0
2, 162240, Note_on_c, 1, 72, 63
2, 162478, Note_on_c, 1, 72, 0
2, 162480, Note_on_c, 1, 84, 45
2, 162526, Note_on_c, 1, 84, 0
2, 162528, Note_on_c, 1, 83, 45
2, 162574, Note_on_c, 1, 83, 0
2, 162576, Note_on_c, 1, 81, 45
2, 162622, Note_on_c, 1, 81, 0
2, 162624, Note_on_c, 1, 79, 45
2, 162670, Note_on_c, 1, 79, 0
2, 162672, Note_on_c, 1, 77, 45
2, 162718, Note_on_c, 1, 77, 0
2, 162720, Note_on_c, 1, 76, 45
2, 162766, Note_on_c, 1, 76, 0
2, 162768, Note_on_c, 1, 74, 45
2, 162814, Note_on_c, 1, 74, 0
2, 162816, Note_on_c, 1, 72, 45
2, 162862, Note_on_c, 1, 72, 0
2, 162864, Note_on_c, 1, 84, 45
2, 162910, Note_on_c, 1, 84, 0
2, 162912, Note_on_c, 1, 83, 45
2, 162958, Note_on_c, 1, 83, 0
2, 162960, Note_on_c, 1, 81, 45
2, 163006, Note_on_c, 1, 81, 0
2, 163008, Note_on_c, 1, 79, 45
2, 163054, Note_on_c, 1, 79, 0
2, 163056, Note_on_c, 1, 77, 45
2, 163102, Note_on_c, 1, 77, 0
2, 163104, Note_on_c, 1, 76, 45
2, 163150, Note_on_c, 1, 76, 0
2, 163152, Note_on_c, 1, 74, 45
2, 163198, Note_on_c, 1, 74, 0
2, 163200, Note_on_c, 1, 72, 45
2, 163246, Note_on_c, 1, 72, 0
2, 163248, Note_on_c, 1, 71, 45
2, 163294, Note_on_c, 1, 71, 0
2, 163296, Note_on_c, 1, 74, 45
2, 163342, Note_on_c, 1, 74, 0
2, 163344, Note_on_c, 1, 72, 45
2, 163390, Note_on_c, 1, 72, 0
2, 163392, Note_on_c, 1, 71, 45
2, 163438, Note_on_c, 1, 71, 0
2, 163440, Note_on_c, 1, 72, 45
2, 163486, Note_on_c, 1, 72, 0
2, 163488, Note_on_c, 1, 74, 45
2, 163534, Note_on_c, 1, 74, 0
2, 163536, Note_on_c, 1, 72, 45
2, 163582, Note_on_c, 1, 72, 0
2, 163584, Note_on_c, 1, 70, 45
2, 163632, Note_on_c, 1, 70, 0
2, 163776, Note_on_c, 1, 76, 63
2, 164320, Note_on_c, 1, 76, 0
2, 164352, Note_on_c, 1, 79, 63
2, 164784, Note_on_c, 1, 79, 0
2, 164928, Note_on_c, 1, 82, 63
2, 165360, Note_on_c, 1, 82, 0
2, 165504, Note_on_c, 1, 88, 45
2, 165552, Note_on_c, 1, 88, 0
2, 165696, Note_on_c, 1, 91, 45
2, 165744, Note_on_c, 1, 91, 0
2, 165888, Note_on_c, 1, 94, 63
2, 166416, Note_on_c, 1, 94, 0
2, 166464, Note_on_c, 1, 76, 63
2, 166992, Note_on_c, 1, 76, 0
2, 167040, Note_on_c, 1, 79, 63
2, 167568, Note_on_c, 1, 79, 0
2, 167664, Note_on_c, 1, 59, 50
2, 167710, Note_on_c, 1, 59, 0
2, 167760, Note_on_c, 1, 62, 60
2, 167806, Note_on_c, 1, 62, 0
2, 167856, Note_on_c, 1, 65, 70
2, 167904, Note_on_c, 1, 65, 0
2, 167904, Note_on_c, 1, 67, 75
2, 167952, Note_on_c, 1, 67, 0
2, 167952, Note_on_c, 1, 69, 80
2, 168000, Note_on_c, 1, 69, 0
2, 168000, Note_on_c, 1, 70, 85
2, 168048, Note_on_c, 1, 70, 0
2, 168048, Note_on_c, 1, 72, 90
2, 168096, Note_on_c, 1, 72, 0
2, 168096, Note_on_c, 1, 74, 96
2, 168144, Note_on_c, 1, 74, 0
2, 168144, Note_on_c, 1, 76, 102
2, 168190, Note_on_c, 1, 76, 0
2, 168192, Note_on_c, 1, 77, 108
2, 168480, Note_on_c, 1, 77, 0
2, 168480, Note_on_c, 1, 79, 108
2, 168528, Note_on_c, 1, 79, 0
2, 168528, Note_on_c, 1, 77, 108
2, 168574, Note_on_c, 1, 77, 0
2, 168576, Note_on_c, 1, 76, 108
2, 168608, Note_on_c, 1, 76, 0
2, 168672, Note_on_c, 1, 77, 108
2, 168704, Note_on_c, 1, 77, 0
2, 168768, Note_on_c, 1, 72, 108
2, 168928, Note_on_c, 1, 72, 0
2, 169344, Note_on_c, 1, 77, 108
2, 169632, Note_on_c, 1, 77, 0
2, 169632, Note_on_c, 1, 79, 108
2, 169680, Note_on_c, 1, 79, 0
2, 169680, Note_on_c, 1, 77, 108
2, 169726, Note_on_c, 1, 77, 0
2, 169728, Note_on_c, 1, 76, 108
2, 169760, Note_on_c, 1, 76, 0
2, 169824, Note_on_c, 1, 77, 108
2, 169856, Note_on_c, 1, 77, 0
2, 169920, Note_on_c, 1, 74, 108
2, 170080, Note_on_c, 1, 74, 0
2, 170496, Note_on_c, 1, 77, 45
2, 170784, Note_on_c, 1, 77, 0
2, 170784, Note_on_c, 1, 79, 68
2, 170832, Note_on_c, 1, 79, 0
2, 170832, Note_on_c, 1, 77, 72
2, 170878, Note_on_c, 1, 77, 0
2, 170880, Note_on_c, 1, 76, 76
2, 170912, Note_on_c, 1, 76, 0
2, 170976, Note_on_c, 1, 77, 84
2, 171008, Note_on_c, 1, 77, 0
2, 171072, Note_on_c, 1, 79, 92
2, 171456, Note_on_c, 1, 79, 0
2, 171456, Note_on_c, 1, 70, 61
2, 171616, Note_on_c, 1, 70, 0
2, 171648, Note_on_c, 1, 69, 45
2, 172032, Note_on_c, 1, 69, 0
2, 172032, Note_on_c, 1, 74, 45
2, 172176, Note_on_c, 1, 74, 0
2, 172176, Note_on_c, 1, 70, 45
2, 172222, Note_on_c, 1, 70, 0
2, 172224, Note_on_c, 1, 69, 45
2, 172608, Note_on_c, 1, 69, 0
2, 172608, Note_on_c, 1, 67, 45
2, 172768, Note_on_c, 1, 67, 0
2, 173376, Note_on_c, 1, 77, 45
2, 174144, Note_on_c, 1, 77, 0
2, 174144, Note_on_c, 1, 82, 45
2, 174480, Note_on_c, 1, 82, 0
2, 174480, Note_on_c, 1, 78, 45
2, 174526, Note_on_c, 1, 78, 0
2, 174528, Note_on_c, 1, 77, 45
2, 174912, Note_on_c, 1, 77, 0
2, 174912, Note_on_c, 1, 75, 45
2, 175072, Note_on_c, 1, 75, 0
2, 176256, Note_on_c, 1, 73, 45
2, 176640, Note_on_c, 1, 73, 0
2, 176640, Note_on_c, 1, 78, 45
2, 176784, Note_on_c, 1, 78, 0
2, 176784, Note_on_c, 1, 75, 45
2, 176830, Note_on_c, 1, 75, 0
2, 176832, Note_on_c, 1, 73, 45
2, 177216, Note_on_c, 1, 73, 0
2, 177216, Note_on_c, 1, 72, 45
2, 177376, Note_on_c, 1, 72, 0
2, 178176, Note_on_c, 1, 73, 45
2, 178336, Note_on_c, 1, 73, 0
2, 178368, Note_on_c, 1, 73, 54
2, 178528, Note_on_c, 1, 73, 0
2, 178560, Note_on_c, 1, 73, 63
2, 178656, Note_on_c, 1, 73, 0
2, 178656, Note_on_c, 1, 71, 67
2, 178752, Note_on_c, 1, 71, 0
2, 178752, Note_on_c, 1, 70, 72
2, 178848, Note_on_c, 1, 70, 0
2, 178848, Note_on_c, 1, 71, 77
2, 178944, Note_on_c, 1, 71, 0
2, 178944, Note_on_c, 1, 73, 82
2, 179040, Note_on_c, 1, 73, 0
2, 179040, Note_on_c, 1, 71, 87
2, 179134, Note_on_c, 1, 71, 0
2, 179136, Note_on_c, 1, 70, 45
2, 179296, Note_on_c, 1, 70, 0
2, 180000, Note_on_c, 1, 70, 45
2, 180094, Note_on_c, 1, 70, 0
2, 180096, Note_on_c, 1, 71, 45
2, 180128, Note_on_c, 1, 71, 0
2, 180128, Note_on_c, 1, 70, 45
2, 180160, Note_on_c, 1, 70, 0
2, 180160, Note_on_c, 1, 71, 45
2, 180192, Note_on_c, 1, 71, 0
2, 180192, Note_on_c, 1, 70, 45
2, 180224, Note_on_c, 1, 70, 0
2, 180224, Note_on_c, 1, 69, 45
2, 180256, Note_on_c, 1, 69, 0
2, 180256, Note_on_c, 1, 70, 45
2, 180286, Note_on_c, 1, 70, 0
2, 180288, Note_on_c, 1, 73, 45
2, 180576, Note_on_c, 1, 73, 0
2, 180576, Note_on_c, 1, 71, 45
2, 180670, Note_on_c, 1, 71, 0
2, 180672, Note_on_c, 1, 68, 45
2, 180704, Note_on_c, 1, 68, 0
2, 180768, Note_on_c, 1, 66, 45
2, 180800, Note_on_c, 1, 66, 0
2, 180864, Note_on_c, 1, 65, 45
2, 181024, Note_on_c, 1, 65, 0
2, 181152, Note_on_c, 1, 71, 45
2, 181246, Note_on_c, 1, 71, 0
2, 181248, Note_on_c, 1, 73, 45
2, 181280, Note_on_c, 1, 73, 0
2, 181280, Note_on_c, 1, 71, 45
2, 181312, Note_on_c, 1, 71, 0
2, 181312, Note_on_c, 1, 73, 45
2, 181344, Note_on_c, 1, 73, 0
2, 181344, Note_on_c, 1, 71, 45
2, 181376, Note_on_c, 1, 71, 0
2, 181376, Note_on_c, 1, 70, 45
2, 181408, Note_on_c, 1, 70, 0
2, 181408, Note_on_c, 1, 71, 45
2, 181438, Note_on_c, 1, 71, 0
2, 181440, Note_on_c, 1, 75, 45
2, 181728, Note_on_c, 1, 75, 0
2, 181728, Note_on_c, 1, 73, 45
2, 181822, Note_on_c, 1, 73, 0
2, 181824, Note_on_c, 1, 70, 45
2, 181856, Note_on_c, 1, 70, 0
2, 181920, Note_on_c, 1, 68, 45
2, 181952, Note_on_c, 1, 68, 0
2, 182016, Note_on_c, 1, 66, 45
2, 182176, Note_on_c, 1, 66, 0
2, 182304, Note_on_c, 1, 78, 45
2, 182398, Note_on_c, 1, 78, 0
2, 182400, Note_on_c, 1, 80, 45
2, 182432, Note_on_c, 1, 80, 0
2, 182432, Note_on_c, 1, 78, 45
2, 182464, Note_on_c, 1, 78, 0
2, 182464, Note_on_c, 1, 80, 45
2, 182496, Note_on_c, 1, 80, 0
2, 182496, Note_on_c, 1, 78, 45
2, 182528, Note_on_c, 1, 78, 0
2, 182528, Note_on_c, 1, 77, 45
2, 182560, Note_on_c, 1, 77, 0
2, 182560, Note_on_c, 1, 78, 45
2, 182590, Note_on_c, 1, 78, 0
2, 182592, Note_on_c, 1, 82, 45
2, 182880, Note_on_c, 1, 82, 0
2, 182880, Note_on_c, 1, 80, 45
2, 182974, Note_on_c, 1, 80, 0
2, 182976, Note_on_c, 1, 80, 45
2, 183008, Note_on_c, 1, 80, 0
2, 183072, Note_on_c, 1, 78, 45
2, 183104, Note_on_c, 1, 78, 0
2, 183168, Note_on_c, 1, 78, 45
2, 183264, Note_on_c, 1, 78, 0
2, 183264, Note_on_c, 1, 77, 45
2, 183358, Note_on_c, 1, 77, 0
2, 183360, Note_on_c, 1, 77, 45
2, 183392, Note_on_c, 1, 77, 0
2, 183456, Note_on_c, 1, 75, 45
2, 183488, Note_on_c, 1, 75, 0
2, 183552, Note_on_c, 1, 73, 45
2, 183584, Note_on_c, 1, 73, 0
2, 183648, Note_on_c, 1, 71, 45
2, 183680, Note_on_c, 1, 71, 0
2, 183744, Note_on_c, 1, 69, 45
2, 183936, Note_on_c, 1, 69, 0
2, 183936, Note_on_c, 1, 70, 52
2, 184096, Note_on_c, 1, 70, 0
2, 184128, Note_on_c, 1, 70, 60
2, 184176, Note_on_c, 1, 70, 0
2, 184320, Note_on_c, 1, 70, 68
2, 184608, Note_on_c, 1, 70, 0
2, 184608, Note_on_c, 1, 72, 80
2, 184656, Note_on_c, 1, 72, 0
2, 184656, Note_on_c, 1, 70, 82
2, 184702, Note_on_c, 1, 70, 0
2, 184704, Note_on_c, 1, 69, 84
2, 184736, Note_on_c, 1, 69, 0
2, 184800, Note_on_c, 1, 70, 88
2, 184832, Note_on_c, 1, 70, 0
2, 184896, Note_on_c, 1, 79, 92
2, 185232, Note_on_c, 1, 79, 0
2, 185280, Note_on_c, 1, 70, 92
2, 185328, Note_on_c, 1, 70, 0
2, 185472, Note_on_c, 1, 68, 92
2, 185520, Note_on_c, 1, 68, 0
2, 185664, Note_on_c, 1, 67, 92
2, 185712, Note_on_c, 1, 67, 0
2, 185856, Note_on_c, 1, 65, 92
2, 185904, Note_on_c, 1, 65, 0
2, 186048, Note_on_c, 1, 72, 92
2, 186080, Note_on_c, 1, 72, 0
2, 186096, Note_on_c, 1, 60, 45
2, 186128, Note_on_c, 1, 60, 0
2, 186144, Note_on_c, 1, 62, 45
2, 186176, Note_on_c, 1, 62, 0
2, 186192, Note_on_c, 1, 64, 45
2, 186224, Note_on_c, 1, 64, 0
2, 186240, Note_on_c, 1, 65, 45
2, 186272, Note_on_c, 1, 65, 0
2, 186288, Note_on_c, 1, 67, 45
2, 186320, Note_on_c, 1, 67, 0
2, 186336, Note_on_c, 1, 69, 45
2, 186368, Note_on_c, 1, 69, 0
2, 186384, Note_on_c, 1, 71, 45
2, 186416, Note_on_c, 1, 71, 0
2, 186432, Note_on_c, 1, 72, 45
2, 186464, Note_on_c, 1, 72, 0
2, 186480, Note_on_c, 1, 71, 45
2, 186512, Note_on_c, 1, 71, 0
2, 186528, Note_on_c, 1, 72, 45
2, 186560, Note_on_c, 1, 72, 0
2, 186576, Note_on_c, 1, 71, 45
2, 186608, Note_on_c, 1, 71, 0
2, 186624, Note_on_c, 1, 72, 45
2, 186784, Note_on_c, 1, 72, 0
2, 186912, Note_on_c, 1, 76, 45
2, 186944, Note_on_c, 1, 76, 0
2, 187008, Note_on_c, 1, 76, 45
2, 187040, Note_on_c, 1, 76, 0
2, 187104, Note_on_c, 1, 77, 45
2, 187136, Note_on_c, 1, 77, 0
2, 187200, Note_on_c, 1, 76, 45
2, 187246, Note_on_c, 1, 76, 0
2, 187248, Note_on_c, 1, 60, 45
2, 187294, Note_on_c, 1, 60, 0
2, 187296, Note_on_c, 1, 62, 45
2, 187342, Note_on_c, 1, 62, 0
2, 187344, Note_on_c, 1, 64, 45
2, 187390, Note_on_c, 1, 64, 0
2, 187392, Note_on_c, 1, 65, 45
2, 187438, Note_on_c, 1, 65, 0
2, 187440, Note_on_c, 1, 67, 45
2, 187486, Note_on_c, 1, 67, 0
2, 187488, Note_on_c, 1, 69, 45
2, 187534, Note_on_c, 1, 69, 0
2, 187536, Note_on_c, 1, 71, 45
2, 187582, Note_on_c, 1, 71, 0
2, 187584, Note_on_c, 1, 72, 45
2, 187630, Note_on_c, 1, 72, 0
2, 187632, Note_on_c, 1, 71, 45
2, 187678, Note_on_c, 1, 71, 0
2, 187680, Note_on_c, 1, 72, 45
2, 187726, Note_on_c, 1, 72, 0
2, 187728, Note_on_c, 1, 71, 45
2, 187774, Note_on_c, 1, 71, 0
2, 187776, Note_on_c, 1, 72, 45
2, 187936, Note_on_c, 1, 72, 0
2, 188064, Note_on_c, 1, 76, 45
2, 188096, Note_on_c, 1, 76, 0
2, 188160, Note_on_c, 1, 76, 45
2, 188192, Note_on_c, 1, 76, 0
2, 188256, Note_on_c, 1, 77, 45
2, 188288, Note_on_c, 1, 77, 0
2, 188352, Note_on_c, 1, 76, 45
2, 188398, Note_on_c, 1, 76, 0
2, 188400, Note_on_c, 1, 60, 50
2, 188446, Note_on_c, 1, 60, 0
2, 188448, Note_on_c, 1, 62, 55
2, 188494, Note_on_c, 1, 62, 0
2, 188496, Note_on_c, 1, 64, 60
2, 188542, Note_on_c, 1, 64, 0
2, 188544, Note_on_c, 1, 65, 65
2, 188590, Note_on_c, 1, 65, 0
2, 188592, Note_on_c, 1, 67, 70
2, 188638, Note_on_c, 1, 67, 0
2, 188640, Note_on_c, 1, 69, 75
2, 188686, Note_on_c, 1, 69, 0
2, 188688, Note_on_c, 1, 71, 80
2, 188734, Note_on_c, 1, 71, 0
2, 188736, Note_on_c, 1, 72, 85
2, 188782, Note_on_c, 1, 72, 0
2, 188784, Note_on_c, 1, 71, 90
2, 188830, Note_on_c, 1, 71, 0
2, 188832, Note_on_c, 1, 72, 96
2, 188878, Note_on_c, 1, 72, 0
2, 188880, Note_on_c, 1, 71, 102
2, 188926, Note_on_c, 1, 71, 0
2, 188928, Note_on_c, 1, 72, 108
2, 188974, Note_on_c, 1, 72, 0
2, 188976, Note_on_c, 1, 72, 108
2, 189022, Note_on_c, 1, 72, 0
2, 189024, Note_on_c, 1, 74, 108
2, 189070, Note_on_c, 1, 74, 0
2, 189072, Note_on_c, 1, 76, 108
2, 189118, Note_on_c, 1, 76, 0
2, 189120, Note_on_c, 1, 77, 108
2, 189166, Note_on_c, 1, 77, 0
2, 189168, Note_on_c, 1, 79, 108
2, 189214, Note_on_c, 1, 79, 0
2, 189216, Note_on_c, 1, 81, 108
2, 189262, Note_on_c, 1, 81, 0
2, 189264, Note_on_c, 1, 83, 108
2, 189310, Note_on_c, 1, 83, 0
2, 189312, Note_on_c, 1, 84, 108
2, 189358, Note_on_c, 1, 84, 0
2, 189360, Note_on_c, 1, 83, 108
2, 189406, Note_on_c, 1, 83, 0
2, 189408, Note_on_c, 1, 84, 108
2, 189454, Note_on_c, 1, 84, 0
2, 189456, Note_on_c, 1, 83, 108
2, 189502, Note_on_c, 1, 83, 0
2, 189504, Note_on_c, 1, 84, 108
2, 189598, Note_on_c, 1, 84, 0
2, 189600, Note_on_c, 1, 84, 108
2, 189760, Note_on_c, 1, 84, 0
2, 189792, Note_on_c, 1, 84, 108
2, 189952, Note_on_c, 1, 84, 0
2, 189984, Note_on_c, 1, 84, 108
2, 190080, Note_on_c, 1, 84, 0
2, 190080, Note_on_c, 1, 85, 108
2, 190174, Note_on_c, 1, 85, 0
2, 190176, Note_on_c, 1, 85, 98
2, 190336, Note_on_c, 1, 85, 0
2, 190368, Note_on_c, 1, 85, 77
2, 190528, Note_on_c, 1, 85, 0
2, 190560, Note_on_c, 1, 85, 56
2, 190656, Note_on_c, 1, 85, 0
2, 190656, Note_on_c, 1, 86, 45
2, 190750, Note_on_c, 1, 86, 0
2, 190752, Note_on_c, 1, 86, 45
2, 190848, Note_on_c, 1, 86, 0
2, 190848, Note_on_c, 1, 82, 45
2, 190942, Note_on_c, 1, 82, 0
2, 190944, Note_on_c, 1, 82, 45
2, 191040, Note_on_c, 1, 82, 0
2, 191040, Note_on_c, 1, 79, 45
2, 191134, Note_on_c, 1, 79, 0
2, 191136, Note_on_c, 1, 79, 45
2, 191232, Note_on_c, 1, 79, 0
2, 191232, Note_on_c, 1, 76, 45
2, 191326, Note_on_c, 1, 76, 0
2, 191328, Note_on_c, 1, 76, 45
2, 191424, Note_on_c, 1, 76, 0
2, 191424, Note_on_c, 1, 72, 45
2, 191518, Note_on_c, 1, 72, 0
2, 191520, Note_on_c, 1, 72, 45
2, 191616, Note_on_c, 1, 72, 0
2, 191616, Note_on_c, 1, 76, 45
2, 191710, Note_on_c, 1, 76, 0
2, 191712, Note_on_c, 1, 76, 45
2, 191808, Note_on_c, 1, 76, 0
2, 191808, Note_on_c, 1, 77, 45
2, 191902, Note_on_c, 1, 77, 0
2, 191904, Note_on_c, 1, 77, 45
2, 192000, Note_on_c, 1, 77, 0
2, 192000, Note_on_c, 1, 79, 45
2, 192094, Note_on_c, 1, 79, 0
2, 192096, Note_on_c, 1, 79, 45
2, 192192, Note_on_c, 1, 79, 0
2, 192192, Note_on_c, 1, 81, 45
2, 192286, Note_on_c, 1, 81, 0
2, 192288, Note_on_c, 1, 81, 45
2, 192384, Note_on_c, 1, 81, 0
2, 192384, Note_on_c, 1, 84, 45
2, 192576, Note_on_c, 1, 84, 0
2, 192576, Note_on_c, 1, 82, 45
2, 192670, Note_on_c, 1, 82, 0
2, 193920, Note_on_c, 1, 85, 45
2, 194112, Note_on_c, 1, 85, 0
2, 194112, Note_on_c, 1, 86, 45
2, 194304, Note_on_c, 1, 86, 0
2, 194304, Note_on_c, 1, 89, 45
2, 194496, Note_on_c, 1, 89, 0
2, 194496, Note_on_c, 1, 83, 45
2, 194656, Note_on_c, 1, 83, 0
2, 194688, Note_on_c, 1, 86, 45
2, 194880, Note_on_c, 1, 86, 0
2, 194880, Note_on_c, 1, 84, 45
2, 194974, Note_on_c, 1, 84, 0
2, 196224, Note_on_c, 1, 82, 45
2, 196256, Note_on_c, 1, 82, 0
2, 196320, Note_on_c, 1, 82, 45
2, 196416, Note_on_c, 1, 82, 0
2, 196416, Note_on_c, 1, 81, 45
2, 196510, Note_on_c, 1, 81, 0
2, 196512, Note_on_c, 1, 81, 45
2, 196608, Note_on_c, 1, 81, 0
2, 196608, Note_on_c, 1, 79, 45
2, 196702, Note_on_c, 1, 79, 0
2, 196704, Note_on_c, 1, 79, 45
2, 196800, Note_on_c, 1, 79, 0
2, 196800, Note_on_c, 1, 77, 45
2, 196894, Note_on_c, 1, 77, 0
2, 196896, Note_on_c, 1, 77, 45
2, 196990, Note_on_c, 1, 77, 0
2, 196992, Note_on_c, 1, 77, 45
2, 197184, Note_on_c, 1, 77, 0
2, 197184, Note_on_c, 1, 76, 45
2, 197344, Note_on_c, 1, 76, 0
2, 197952, Note_on_c, 1, 85, 45
2, 198336, Note_on_c, 1, 86, 0
2, 198336, Note_on_c, 1, 86, 0
2, 198336, Note_on_c, 1, 84, 50
2, 198528, Note_on_c, 1, 84, 0
2, 198528, Note_on_c, 1, 89, 55
2, 198688, Note_on_c, 1, 89, 0
2, 198720, Note_on_c, 1, 89, 84
2, 199104, Note_on_c, 1, 89, 0
2, 199104, Note_on_c, 1, 91, 70
2, 199248, Note_on_c, 1, 91, 0
2, 199248, Note_on_c, 1, 88, 74
2, 199294, Note_on_c, 1, 88, 0
2, 199296, Note_on_c, 1, 89, 75
2, 199456, Note_on_c, 1, 89, 0
2, 199872, Note_on_c, 1, 81, 45
2, 200160, Note_on_c, 1, 81, 0
2, 200160, Note_on_c, 1, 82, 45
2, 200208, Note_on_c, 1, 82, 0
2, 200208, Note_on_c, 1, 81, 45
2, 200254, Note_on_c, 1, 81, 0
2, 200256, Note_on_c, 1, 79, 45
2, 200288, Note_on_c, 1, 79, 0
2, 200352, Note_on_c, 1, 77, 45
2, 200384, Note_on_c, 1, 77, 0
2, 200448, Note_on_c, 1, 76, 45
2, 200608, Note_on_c, 1, 76, 0
2, 201024, Note_on_c, 1, 82, 45
2, 201312, Note_on_c, 1, 82, 0
2, 201312, Note_on_c, 1, 84, 56
2, 201360, Note_on_c, 1, 84, 0
2, 201360, Note_on_c, 1, 82, 58
2, 201406, Note_on_c, 1, 82, 0
2, 201408, Note_on_c, 1, 81, 60
2, 201440, Note_on_c, 1, 81, 0
2, 201504, Note_on_c, 1, 79, 64
2, 201536, Note_on_c, 1, 79, 0
2, 201600, Note_on_c, 1, 78, 68
2, 201760, Note_on_c, 1, 78, 0
2, 202176, Note_on_c, 1, 87, 92
2, 202462, Note_on_c, 1, 87, 0
2, 202464, Note_on_c, 1, 86, 92
2, 202512, Note_on_c, 1, 86, 0
2, 202512, Note_on_c, 1, 84, 92
2, 202560, Note_on_c, 1, 84, 0
2, 202560, Note_on_c, 1, 82, 92
2, 202608, Note_on_c, 1, 82, 0
2, 202608, Note_on_c, 1, 81, 92
2, 202656, Note_on_c, 1, 81, 0
2, 202656, Note_on_c, 1, 79, 92
2, 202704, Note_on_c, 1, 79, 0
2, 202704, Note_on_c, 1, 78, 92
2, 202750, Note_on_c, 1, 78, 0
2, 202752, Note_on_c, 1, 79, 92
2, 202784, Note_on_c, 1, 79, 0
2, 202800, Note_on_c, 1, 74, 45
2, 202832, Note_on_c, 1, 74, 0
2, 202848, Note_on_c, 1, 76, 45
2, 202880, Note_on_c, 1, 76, 0
2, 202896, Note_on_c, 1, 78, 45
2, 202928, Note_on_c, 1, 78, 0
2, 202944, Note_on_c, 1, 79, 45
2, 202976, Note_on_c, 1, 79, 0
2, 202992, Note_on_c, 1, 81, 45
2, 203024, Note_on_c, 1, 81, 0
2, 203040, Note_on_c, 1, 82, 45
2, 203072, Note_on_c, 1, 82, 0
2, 203088, Note_on_c, 1, 81, 45
2, 203120, Note_on_c, 1, 81, 0
2, 203136, Note_on_c, 1, 79, 45
2, 203168, Note_on_c, 1, 79, 0
2, 203184, Note_on_c, 1, 74, 45
2, 203216, Note_on_c, 1, 74, 0
2, 203232, Note_on_c, 1, 76, 45
2, 203264, Note_on_c, 1, 76, 0
2, 203280, Note_on_c, 1, 78, 45
2, 203312, Note_on_c, 1, 78, 0
2, 203328, Note_on_c, 1, 79, 45
2, 203374, Note_on_c, 1, 79, 0
2, 203376, Note_on_c, 1, 81, 45
2, 203422, Note_on_c, 1, 81, 0
2, 203424, Note_on_c, 1, 82, 45
2, 203470, Note_on_c, 1, 82, 0
2, 203472, Note_on_c, 1, 81, 45
2, 203518, Note_on_c, 1, 81, 0
2, 203520, Note_on_c, 1, 79, 45
2, 203566, Note_on_c, 1, 79, 0
2, 203568, Note_on_c, 1, 74, 46
2, 203614, Note_on_c, 1, 74, 0
2, 203616, Note_on_c, 1, 76, 47
2, 203662, Note_on_c, 1, 76, 0
2, 203664, Note_on_c, 1, 78, 48
2, 203710, Note_on_c, 1, 78, 0
2, 203712, Note_on_c, 1, 79, 49
2, 203758, Note_on_c, 1, 79, 0
2, 203760, Note_on_c, 1, 81, 50
2, 203806, Note_on_c, 1, 81, 0
2, 203808, Note_on_c, 1, 82, 51
2, 203854, Note_on_c, 1, 82, 0
2, 203856, Note_on_c, 1, 81, 52
2, 203902, Note_on_c, 1, 81, 0
2, 203904, Note_on_c, 1, 79, 53
2, 203950, Note_on_c, 1, 79, 0
2, 203952, Note_on_c, 1, 74, 54
2, 203998, Note_on_c, 1, 74, 0
2, 204000, Note_on_c, 1, 76, 55
2, 204046, Note_on_c, 1, 76, 0
2, 204048, Note_on_c, 1, 78, 56
2, 204094, Note_on_c, 1, 78, 0
2, 204096, Note_on_c, 1, 79, 57
2, 204142, Note_on_c, 1, 79, 0
2, 204144, Note_on_c, 1, 81, 58
2, 204190, Note_on_c, 1, 81, 0
2, 204192, Note_on_c, 1, 82, 59
2, 204238, Note_on_c, 1, 82, 0
2, 204240, Note_on_c, 1, 81, 60
2, 204286, Note_on_c, 1, 81, 0
2, 204288, Note_on_c, 1, 79, 61
2, 204334, Note_on_c, 1, 79, 0
2, 204336, Note_on_c, 1, 74, 62
2, 204382, Note_on_c, 1, 74, 0
2, 204384, Note_on_c, 1, 76, 64
2, 204430, Note_on_c, 1, 76, 0
2, 204432, Note_on_c, 1, 78, 66
2, 204478, Note_on_c, 1, 78, 0
2, 204480, Note_on_c, 1, 79, 68
2, 204526, Note_on_c, 1, 79, 0
2, 204528, Note_on_c, 1, 81, 70
2, 204574, Note_on_c, 1, 81, 0
2, 204576, Note_on_c, 1, 82, 72
2, 204622, Note_on_c, 1, 82, 0
2, 204624, Note_on_c, 1, 84, 74
2, 204670, Note_on_c, 1, 84, 0
2, 204672, Note_on_c, 1, 86, 76
2, 204718, Note_on_c, 1, 86, 0
2, 204720, Note_on_c, 1, 84, 78
2, 204766, Note_on_c, 1, 84, 0
2, 204768, Note_on_c, 1, 82, 80
2, 204814, Note_on_c, 1, 82, 0
2, 204816, Note_on_c, 1, 81, 82
2, 204862, Note_on_c, 1, 81, 0
2, 204864, Note_on_c, 1, 79, 84
2, 204910, Note_on_c, 1, 79, 0
2, 204912, Note_on_c, 1, 77, 86
2, 204958, Note_on_c, 1, 77, 0
2, 204960, Note_on_c, 1, 76, 88
2, 205006, Note_on_c, 1, 76, 0
2, 205008, Note_on_c, 1, 74, 90
2, 205054, Note_on_c, 1, 74, 0
2, 205056, Note_on_c, 1, 72, 92
2, 205584, Note_on_c, 1, 72, 0
2, 205632, Note_on_c, 1, 81, 92
2, 205664, Note_on_c, 1, 81, 0
2, 205664, Note_on_c, 1, 79, 92
2, 205696, Note_on_c, 1, 79, 0
2, 205696, Note_on_c, 1, 81, 92
2, 205728, Note_on_c, 1, 81, 0
2, 205728, Note_on_c, 1, 79, 92
2, 205760, Note_on_c, 1, 79, 0
2, 205760, Note_on_c, 1, 81, 92
2, 205792, Note_on_c, 1, 81, 0
2, 205792, Note_on_c, 1, 79, 92
2, 205824, Note_on_c, 1, 79, 0
2, 205824, Note_on_c, 1, 81, 92
2, 205856, Note_on_c, 1, 81, 0
2, 205856, Note_on_c, 1, 79, 92
2, 205888, Note_on_c, 1, 79, 0
2, 205888, Note_on_c, 1, 81, 92
2, 205920, Note_on_c, 1, 81, 0
2, 205920, Note_on_c, 1, 79, 92
2, 205952, Note_on_c, 1, 79, 0
2, 205952, Note_on_c, 1, 81, 92
2, 205984, Note_on_c, 1, 81, 0
2, 205984, Note_on_c, 1, 79, 92
2, 206016, Note_on_c, 1, 79, 0
2, 206016, Note_on_c, 1, 81, 92
2, 206048, Note_on_c, 1, 81, 0
2, 206048, Note_on_c, 1, 79, 92
2, 206080, Note_on_c, 1, 79, 0
2, 206080, Note_on_c, 1, 81, 92
2, 206112, Note_on_c, 1, 81, 0
2, 206112, Note_on_c, 1, 79, 92
2, 206144, Note_on_c, 1, 79, 0
2, 206144, Note_on_c, 1, 81, 92
2, 206176, Note_on_c, 1, 81, 0
2, 206176, Note_on_c, 1, 79, 92
2, 206206, Note_on_c, 1, 79, 0
2, 206208, Note_on_c, 1, 77, 92
2, 206256, Note_on_c, 1, 77, 0
2, 206400, Note_on_c, 1, 65, 92
2, 206688, Note_on_c, 1, 65, 0
2, 206688, Note_on_c, 1, 64, 45
2, 206782, Note_on_c, 1, 64, 0
2, 206784, Note_on_c, 1, 64, 45
2, 206880, Note_on_c, 1, 64, 0
2, 206880, Note_on_c, 1, 70, 45
2, 206974, Note_on_c, 1, 70, 0
2, 206976, Note_on_c, 1, 70, 45
2, 207072, Note_on_c, 1, 70, 0
2, 207072, Note_on_c, 1, 69, 45
2, 207166, Note_on_c, 1, 69, 0
2, 207168, Note_on_c, 1, 69, 45
2, 207264, Note_on_c, 1, 69, 0
2, 207264, Note_on_c, 1, 74, 45
2, 207358, Note_on_c, 1, 74, 0
2, 207360, Note_on_c, 1, 74, 45
2, 207456, Note_on_c, 1, 74, 0
2, 207456, Note_on_c, 1, 72, 45
2, 207550, Note_on_c, 1, 72, 0
2, 207552, Note_on_c, 1, 72, 45
2, 207648, Note_on_c, 1, 72, 0
2, 207648, Note_on_c, 1, 77, 45
2, 207742, Note_on_c, 1, 77, 0
2, 207744, Note_on_c, 1, 77, 45
2, 207840, Note_on_c, 1, 77, 0
2, 207840, Note_on_c, 1, 76, 45
2, 207934, Note_on_c, 1, 76, 0
2, 207936, Note_on_c, 1, 76, 45
2, 208032, Note_on_c, 1, 76, 0
2, 208032, Note_on_c, 1, 82, 45
2, 208126, Note_on_c, 1, 82, 0
2, 208128, Note_on_c, 1, 82, 45
2, 208288, Note_on_c, 1, 82, 0
2, 209088, Note_on_c, 1, 69, 30
2, 209376, Note_on_c, 1, 69, 0
2, 209376, Note_on_c, 1, 70, 30
2, 209424, Note_on_c, 1, 70, 0
2, 209424, Note_on_c, 1, 69, 30
2, 209470, Note_on_c, 1, 69, 0
2, 209472, Note_on_c, 1, 67, 30
2, 209504, Note_on_c, 1, 67, 0
2, 209568, Note_on_c, 1, 69, 30
2, 209600, Note_on_c, 1, 69, 0
2, 209664, Note_on_c, 1, 74, 92
2, 210432, Note_on_c, 1, 74, 0
2, 210432, Note_on_c, 1, 72, 45
2, 210480, Note_on_c, 1, 72, 0
2, 210624, Note_on_c, 1, 64, 45
2, 210672, Note_on_c, 1, 64, 0
2, 210816, Note_on_c, 1, 65, 45
2, 210864, Note_on_c, 1, 65, 0
2, 211008, Note_on_c, 1, 77, 92
2, 211296, Note_on_c, 1, 77, 0
2, 211296, Note_on_c, 1, 76, 45
2, 211390, Note_on_c, 1, 76, 0
2, 211392, Note_on_c, 1, 76, 45
2, 211488, Note_on_c, 1, 76, 0
2, 211488, Note_on_c, 1, 82, 45
2, 211582, Note_on_c, 1, 82, 0
2, 211584, Note_on_c, 1, 82, 45
2, 211680, Note_on_c, 1, 82, 0
2, 211680, Note_on_c, 1, 81, 45
2, 211774, Note_on_c, 1, 81, 0
2, 211776, Note_on_c, 1, 81, 45
2, 211872, Note_on_c, 1, 81, 0
2, 211872, Note_on_c, 1, 86, 45
2, 211966, Note_on_c, 1, 86, 0
2, 211968, Note_on_c, 1, 86, 45
2, 212064, Note_on_c, 1, 86, 0
2, 212064, Note_on_c, 1, 84, 45
2, 212158, Note_on_c, 1, 84, 0
2, 212160, Note_on_c, 1, 84, 45
2, 212256, Note_on_c, 1, 84, 0
2, 212256, Note_on_c, 1, 89, 45
2, 212350, Note_on_c, 1, 89, 0
2, 212352, Note_on_c, 1, 89, 45
2, 212448, Note_on_c, 1, 89, 0
2, 212448, Note_on_c, 1, 88, 45
2, 212542, Note_on_c, 1, 88, 0
2, 212544, Note_on_c, 1, 88, 45
2, 212640, Note_on_c, 1, 88, 0
2, 212640, Note_on_c, 1, 94, 45
2, 212734, Note_on_c, 1, 94, 0
2, 212736, Note_on_c, 1, 94, 45
2, 212896, Note_on_c, 1, 94, 0
2, 213696, Note_on_c, 1, 56, 63
2, 213696, Note_on_c, 1, 68, 63
2, 214224, Note_on_c, 1, 68, 0
2, 214224, Note_on_c, 1, 56, 0
2, 214272, Note_on_c, 1, 56, 63
2, 214272, Note_on_c, 1, 68, 63
2, 214800, Note_on_c, 1, 68, 0
2, 214800, Note_on_c, 1, 56, 0
2, 214848, Note_on_c, 1, 56, 63
2, 214848, Note_on_c, 1, 68, 63
2, 215184, Note_on_c, 1, 68, 0
2, 215184, Note_on_c, 1, 56, 0
2, 215232, Note_on_c, 1, 56, 63
2, 215232, Note_on_c, 1, 68, 63
2, 215392, Note_on_c, 1, 68, 0
2, 215392, Note_on_c, 1, 56, 0
2, 215424, Note_on_c, 1, 57, 108
2, 215424, Note_on_c, 1, 69, 108
2, 215472, Note_on_c, 1, 69, 0
2, 215472, Note_on_c, 1, 57, 0
2, 215616, Note_on_c, 1, 70, 108
2, 215664, Note_on_c, 1, 70, 0
2, 215808, Note_on_c, 1, 67, 108
2, 215856, Note_on_c, 1, 67, 0
2, 216000, Note_on_c, 1, 65, 127
2, 216048, Note_on_c, 1, 65, 0
2, 216768, Note_on_c, 1, 69, 45
2, 216928, Note_on_c, 1, 69, 0
2, 216960, Note_on_c, 1, 70, 45
2, 216992, Note_on_c, 1, 70, 0
2, 216992, Note_on_c, 1, 69, 45
2, 217024, Note_on_c, 1, 69, 0
2, 217024, Note_on_c, 1, 70, 45
2, 217056, Note_on_c, 1, 70, 0
2, 217056, Note_on_c, 1, 69, 45
2, 217088, Note_on_c, 1, 69, 0
2, 217088, Note_on_c, 1, 67, 45
2, 217120, Note_on_c, 1, 67, 0
2, 217120, Note_on_c, 1, 69, 45
2, 217150, Note_on_c, 1, 69, 0
2, 217152, Note_on_c, 1, 72, 45
2, 217344, Note_on_c, 1, 72, 0
2, 217344, Note_on_c, 1, 70, 45
2, 217504, Note_on_c, 1, 70, 0
2, 217920, Note_on_c, 1, 76, 45
2, 218080, Note_on_c, 1, 76, 0
2, 218112, Note_on_c, 1, 77, 45
2, 218144, Note_on_c, 1, 77, 0
2, 218144, Note_on_c, 1, 76, 45
2, 218176, Note_on_c, 1, 76, 0
2, 218176, Note_on_c, 1, 77, 45
2, 218208, Note_on_c, 1, 77, 0
2, 218208, Note_on_c, 1, 76, 45
2, 218240, Note_on_c, 1, 76, 0
2, 218240, Note_on_c, 1, 74, 45
2, 218272, Note_on_c, 1, 74, 0
2, 218272, Note_on_c, 1, 76, 45
2, 218302, Note_on_c, 1, 76, 0
2, 218304, Note_on_c, 1, 77, 45
2, 218400, Note_on_c, 1, 77, 0
2, 218400, Note_on_c, 1, 81, 45
2, 218494, Note_on_c, 1, 81, 0
2, 218496, Note_on_c, 1, 72, 45
2, 218656, Note_on_c, 1, 72, 0
2, 218880, Note_on_c, 1, 82, 45
2, 218928, Note_on_c, 1, 82, 0
2, 218928, Note_on_c, 1, 81, 45
2, 218976, Note_on_c, 1, 81, 0
2, 218976, Note_on_c, 1, 79, 45
2, 219024, Note_on_c, 1, 79, 0
2, 219024, Note_on_c, 1, 81, 45
2, 219070, Note_on_c, 1, 81, 0
2, 219072, Note_on_c, 1, 82, 45
2, 219120, Note_on_c, 1, 82, 0
2, 219120, Note_on_c, 1, 81, 45
2, 219168, Note_on_c, 1, 81, 0
2, 219168, Note_on_c, 1, 79, 45
2, 219216, Note_on_c, 1, 79, 0
2, 219216, Note_on_c, 1, 81, 45
2, 219262, Note_on_c, 1, 81, 0
2, 219264, Note_on_c, 1, 82, 45
2, 219312, Note_on_c, 1, 82, 0
2, 219312, Note_on_c, 1, 81, 45
2, 219360, Note_on_c, 1, 81, 0
2, 219360, Note_on_c, 1, 79, 45
2, 219408, Note_on_c, 1, 79, 0
2, 219408, Note_on_c, 1, 81, 45
2, 219454, Note_on_c, 1, 81, 0
2, 219456, Note_on_c, 1, 84, 45
2, 219648, Note_on_c, 1, 84, 0
2, 219648, Note_on_c, 1, 82, 45
2, 219808, Note_on_c, 1, 82, 0
2, 220032, Note_on_c, 1, 89, 45
2, 220080, Note_on_c, 1, 89, 0
2, 220080, Note_on_c, 1, 88, 45
2, 220128, Note_on_c, 1, 88, 0
2, 220128, Note_on_c, 1, 86, 45
2, 220176, Note_on_c, 1, 86, 0
2, 220176, Note_on_c, 1, 88, 45
2, 220222, Note_on_c, 1, 88, 0
2, 220224, Note_on_c, 1, 89, 45
2, 220272, Note_on_c, 1, 89, 0
2, 220272, Note_on_c, 1, 88, 45
2, 220320, Note_on_c, 1, 88, 0
2, 220320, Note_on_c, 1, 86, 45
2, 220368, Note_on_c, 1, 86, 0
2, 220368, Note_on_c, 1, 88, 45
2, 220414, Note_on_c, 1, 88, 0
2, 220416, Note_on_c, 1, 89, 45
2, 220464, Note_on_c, 1, 89, 0
2, 220464, Note_on_c, 1, 88, 45
2, 220512, Note_on_c, 1, 88, 0
2, 220512, Note_on_c, 1, 86, 45
2, 220560, Note_on_c, 1, 86, 0
2, 220560, Note_on_c, 1, 88, 45
2, 220606, Note_on_c, 1, 88, 0
2, 220608, Note_on_c, 1, 89, 45
2, 220640, Note_on_c, 1, 89, 0
2, 220704, Note_on_c, 1, 88, 45
2, 220736, Note_on_c, 1, 88, 0
2, 220752, Note_on_c, 1, 86, 45
2, 220784, Note_on_c, 1, 86, 0
2, 220800, Note_on_c, 1, 84, 45
2, 220832, Note_on_c, 1, 84, 0
2, 220848, Note_on_c, 1, 82, 45
2, 220880, Note_on_c, 1, 82, 0
2, 220896, Note_on_c, 1, 81, 45
2, 220928, Note_on_c, 1, 81, 0
2, 220944, Note_on_c, 1, 79, 45
2, 220976, Note_on_c, 1, 79, 0
2, 220992, Note_on_c, 1, 77, 45
2, 221024, Note_on_c, 1, 77, 0
2, 221040, Note_on_c, 1, 84, 45
2, 221072, Note_on_c, 1, 84, 0
2, 221088, Note_on_c, 1, 82, 45
2, 221120, Note_on_c, 1, 82, 0
2, 221136, Note_on_c, 1, 81, 45
2, 221168, Note_on_c, 1, 81, 0
2, 221184, Note_on_c, 1, 79, 45
2, 221230, Note_on_c, 1, 79, 0
2, 221232, Note_on_c, 1, 77, 47
2, 221278, Note_on_c, 1, 77, 0
2, 221280, Note_on_c, 1, 76, 49
2, 221326, Note_on_c, 1, 76, 0
2, 221328, Note_on_c, 1, 74, 51
2, 221374, Note_on_c, 1, 74, 0
2, 221376, Note_on_c, 1, 72, 53
2, 221422, Note_on_c, 1, 72, 0
2, 221424, Note_on_c, 1, 81, 55
2, 221470, Note_on_c, 1, 81, 0
2, 221472, Note_on_c, 1, 79, 57
2, 221518, Note_on_c, 1, 79, 0
2, 221520, Note_on_c, 1, 77, 59
2, 221566, Note_on_c, 1, 77, 0
2, 221568, Note_on_c, 1, 76, 61
2, 221614, Note_on_c, 1, 76, 0
2, 221616, Note_on_c, 1, 74, 63
2, 221662, Note_on_c, 1, 74, 0
2, 221664, Note_on_c, 1, 72, 65
2, 221710, Note_on_c, 1, 72, 0
2, 221712, Note_on_c, 1, 70, 67
2, 221758, Note_on_c, 1, 70, 0
2, 221760, Note_on_c, 1, 69, 69
2, 221806, Note_on_c, 1, 69, 0
2, 221808, Note_on_c, 1, 77, 71
2, 221854, Note_on_c, 1, 77, 0
2, 221856, Note_on_c, 1, 76, 73
2, 221902, Note_on_c, 1, 76, 0
2, 221904, Note_on_c, 1, 74, 75
2, 221950, Note_on_c, 1, 74, 0
2, 221952, Note_on_c, 1, 72, 77
2, 221998, Note_on_c, 1, 72, 0
2, 222000, Note_on_c, 1, 70, 79
2, 222046, Note_on_c, 1, 70, 0
2, 222048, Note_on_c, 1, 69, 81
2, 222094, Note_on_c, 1, 69, 0
2, 222096, Note_on_c, 1, 67, 83
2, 222142, Note_on_c, 1, 67, 0
2, 222144, Note_on_c, 1, 65, 85
2, 222190, Note_on_c, 1, 65, 0
2, 222192, Note_on_c, 1, 77, 87
2, 222238, Note_on_c, 1, 77, 0
2, 222240, Note_on_c, 1, 76, 89
2, 222286, Note_on_c, 1, 76, 0
2, 222288, Note_on_c, 1, 74, 91
2, 222334, Note_on_c, 1, 74, 0
2, 222336, Note_on_c, 1, 72, 93
2, 222382, Note_on_c, 1, 72, 0
2, 222384, Note_on_c, 1, 70, 95
2, 222430, Note_on_c, 1, 70, 0
2, 222432, Note_on_c, 1, 69, 97
2, 222478, Note_on_c, 1, 69, 0
2, 222480, Note_on_c, 1, 67, 100
2, 222526, Note_on_c, 1, 67, 0
2, 222528, Note_on_c, 1, 65, 103
2, 222576, Note_on_c, 1, 65, 0
2, 222576, Note_on_c, 1, 64, 106
2, 222624, Note_on_c, 1, 64, 0
2, 222624, Note_on_c, 1, 65, 109
2, 222672, Note_on_c, 1, 65, 0
2, 222672, Note_on_c, 1, 64, 112
2, 222720, Note_on_c, 1, 64, 0
2, 222720, Note_on_c, 1, 65, 115
2, 222768, Note_on_c, 1, 65, 0
2, 222768, Note_on_c, 1, 64, 118
2, 222816, Note_on_c, 1, 64, 0
2, 222816, Note_on_c, 1, 65, 121
2, 222864, Note_on_c, 1, 65, 0
2, 222864, Note_on_c, 1, 64, 124
2, 222910, Note_on_c, 1, 64, 0
2, 222912, Note_on_c, 1, 65, 127
2, 222960, Note_on_c, 1, 65, 0
2, 223104, Note_on_c, 1, 67, 127
2, 223152, Note_on_c, 1, 67, 0
2, 223296, Note_on_c, 1, 69, 127
2, 223344, Note_on_c, 1, 69, 0
2, 223488, Note_on_c, 1, 70, 108
2, 223536, Note_on_c, 1, 70, 0
2, 223680, Note_on_c, 1, 72, 108
2, 223728, Note_on_c, 1, 72, 0
2, 223872, Note_on_c, 1, 74, 108
2, 223920, Note_on_c, 1, 74, 0
2, 224064, Note_on_c, 1, 75, 127
2, 225744, Note_on_c, 1, 75, 0
2, 225792, Note_on_c, 1, 62, 127
2, 225840, Note_on_c, 1, 62, 0
2, 225984, Note_on_c, 1, 64, 127
2, 226032, Note_on_c, 1, 64, 0
2, 226176, Note_on_c, 1, 66, 127
2, 226224, Note_on_c, 1, 66, 0
2, 226368, Note_on_c, 1, 67, 108
2, 226416, Note_on_c, 1, 67, 0
2, 226560, Note_on_c, 1, 69, 108
2, 226608, Note_on_c, 1, 69, 0
2, 226752, Note_on_c, 1, 70, 108
2, 226800, Note_on_c, 1, 70, 0
2, 226944, Note_on_c, 1, 72, 127
2, 228624, Note_on_c, 1, 72, 0
2, 228672, Note_on_c, 1, 77, 30
2, 228704, Note_on_c, 1, 77, 0
2, 228768, Note_on_c, 1, 79, 30
2, 228816, Note_on_c, 1, 79, 0
2, 228816, Note_on_c, 1, 77, 30
2, 228862, Note_on_c, 1, 77, 0
2, 228864, Note_on_c, 1, 76, 30
2, 228896, Note_on_c, 1, 76, 0
2, 228960, Note_on_c, 1, 77, 30
2, 229008, Note_on_c, 1, 77, 0
2, 229008, Note_on_c, 1, 76, 30
2, 229054, Note_on_c, 1, 76, 0
2, 229056, Note_on_c, 1, 74, 30
2, 229088, Note_on_c, 1, 74, 0
2, 229152, Note_on_c, 1, 76, 30
2, 229200, Note_on_c, 1, 76, 0
2, 229200, Note_on_c, 1, 74, 30
2, 229246, Note_on_c, 1, 74, 0
2, 229248, Note_on_c, 1, 72, 30
2, 229280, Note_on_c, 1, 72, 0
2, 229344, Note_on_c, 1, 74, 30
2, 229392, Note_on_c, 1, 74, 0
2, 229392, Note_on_c, 1, 72, 30
2, 229438, Note_on_c, 1, 72, 0
2, 229440, Note_on_c, 1, 71, 30
2, 229472, Note_on_c, 1, 71, 0
2, 229536, Note_on_c, 1, 72, 30
2, 229584, Note_on_c, 1, 72, 0
2, 229584, Note_on_c, 1, 71, 30
2, 229630, Note_on_c, 1, 71, 0
2, 229632, Note_on_c, 1, 69, 30
2, 229664, Note_on_c, 1, 69, 0
2, 229728, Note_on_c, 1, 71, 30
2, 229776, Note_on_c, 1, 71, 0
2, 229776, Note_on_c, 1, 69, 30
2, 229822, Note_on_c, 1, 69, 0
2, 229824, Note_on_c, 1, 67, 30
2, 230112, Note_on_c, 1, 67, 0
2, 230112, Note_on_c, 1, 69, 30
2, 230160, Note_on_c, 1, 69, 0
2, 230160, Note_on_c, 1, 67, 30
2, 230206, Note_on_c, 1, 67, 0
2, 230208, Note_on_c, 1, 66, 30
2, 230240, Note_on_c, 1, 66, 0
2, 230304, Note_on_c, 1, 67, 30
2, 230336, Note_on_c, 1, 67, 0
2, 230400, Note_on_c, 1, 86, 30
2, 230592, Note_on_c, 1, 86, 0
2, 230592, Note_on_c, 1, 83, 30
2, 230784, Note_on_c, 1, 83, 0
2, 230784, Note_on_c, 1, 77, 30
2, 230944, Note_on_c, 1, 77, 0
2, 230976, Note_on_c, 1, 76, 30
2, 231136, Note_on_c, 1, 76, 0
2, 232704, Note_on_c, 1, 79, 30
2, 232896, Note_on_c, 1, 79, 0
2, 232896, Note_on_c, 1, 76, 30
2, 233088, Note_on_c, 1, 76, 0
2, 233088, Note_on_c, 1, 70, 30
2, 233248, Note_on_c, 1, 70, 0
2, 233280, Note_on_c, 1, 65, 30
2, 233280, Note_on_c, 1, 69, 30
2, 233440, Note_on_c, 1, 69, 0
2, 233440, Note_on_c, 1, 65, 0
2, 233856, Note_on_c, 1, 81, 30
2, 234048, Note_on_c, 1, 81, 0
2, 234048, Note_on_c, 1, 77, 30
2, 234240, Note_on_c, 1, 77, 0
2, 234240, Note_on_c, 1, 72, 30
2, 234400, Note_on_c, 1, 72, 0
2, 234432, Note_on_c, 1, 70, 30
2, 234720, Note_on_c, 1, 70, 0
2, 234720, Note_on_c, 1, 72, 33
2, 234768, Note_on_c, 1, 72, 0
2, 234768, Note_on_c, 1, 70, 33
2, 234814, Note_on_c, 1, 70, 0
2, 234816, Note_on_c, 1, 69, 33
2, 234848, Note_on_c, 1, 69, 0
2, 234912, Note_on_c, 1, 70, 34
2, 234944, Note_on_c, 1, 70, 0
2, 235008, Note_on_c, 1, 82, 35
2, 235200, Note_on_c, 1, 82, 0
2, 235200, Note_on_c, 1, 79, 37
2, 235392, Note_on_c, 1, 79, 0
2, 235392, Note_on_c, 1, 76, 39
2, 235552, Note_on_c, 1, 76, 0
2, 235584, Note_on_c, 1, 77, 41
2, 235872, Note_on_c, 1, 77, 0
2, 235872, Note_on_c, 1, 79, 45
2, 235920, Note_on_c, 1, 79, 0
2, 235920, Note_on_c, 1, 77, 45
2, 235966, Note_on_c, 1, 77, 0
2, 235968, Note_on_c, 1, 76, 45
2, 236000, Note_on_c, 1, 76, 0
2, 236064, Note_on_c, 1, 77, 46
2, 236096, Note_on_c, 1, 77, 0
2, 236160, Note_on_c, 1, 79, 65
2, 236688, Note_on_c, 1, 79, 0
2, 236736, Note_on_c, 1, 81, 56
2, 237024, Note_on_c, 1, 81, 0
2, 237024, Note_on_c, 1, 82, 60
2, 237072, Note_on_c, 1, 82, 0
2, 237072, Note_on_c, 1, 81, 60
2, 237118, Note_on_c, 1, 81, 0
2, 237120, Note_on_c, 1, 79, 60
2, 237152, Note_on_c, 1, 79, 0
2, 237216, Note_on_c, 1, 81, 61
2, 237248, Note_on_c, 1, 81, 0
2, 237312, Note_on_c, 1, 82, 86
2, 237840, Note_on_c, 1, 82, 0
2, 237888, Note_on_c, 1, 84, 72
2, 238176, Note_on_c, 1, 84, 0
2, 238176, Note_on_c, 1, 86, 76
2, 238224, Note_on_c, 1, 86, 0
2, 238224, Note_on_c, 1, 84, 76
2, 238270, Note_on_c, 1, 84, 0
2, 238272, Note_on_c, 1, 82, 76
2, 238304, Note_on_c, 1, 82, 0
2, 238368, Note_on_c, 1, 84, 78
2, 238400, Note_on_c, 1, 84, 0
2, 238464, Note_on_c, 1, 86, 112
2, 238992, Note_on_c, 1, 86, 0
2, 239232, Note_on_c, 1, 72, 30
2, 239280, Note_on_c, 1, 72, 0
2, 239424, Note_on_c, 1, 72, 30
2, 239472, Note_on_c, 1, 72, 0
2, 239616, Note_on_c, 1, 72, 30
2, 239904, Note_on_c, 1, 72, 0
2, 239904, Note_on_c, 1, 74, 30
2, 239952, Note_on_c, 1, 74, 0
2, 239952, Note_on_c, 1, 72, 30
2, 239998, Note_on_c, 1, 72, 0
2, 240000, Note_on_c, 1, 71, 30
2, 240032, Note_on_c, 1, 71, 0
2, 240096, Note_on_c, 1, 72, 30
2, 240128, Note_on_c, 1, 72, 0
2, 240192, Note_on_c, 1, 65, 30
2, 240352, Note_on_c, 1, 65, 0
2, 240768, Note_on_c, 1, 65, 30
2, 240816, Note_on_c, 1, 65, 0
2, 240816, Note_on_c, 1, 64, 30
2, 240864, Note_on_c, 1, 64, 0
2, 240864, Note_on_c, 1, 62, 30
2, 240912, Note_on_c, 1, 62, 0
2, 240912, Note_on_c, 1, 64, 30
2, 240960, Note_on_c, 1, 64, 0
2, 240960, Note_on_c, 1, 65, 30
2, 241008, Note_on_c, 1, 65, 0
2, 241008, Note_on_c, 1, 64, 30
2, 241056, Note_on_c, 1, 64, 0
2, 241056, Note_on_c, 1, 62, 30
2, 241104, Note_on_c, 1, 62, 0
2, 241104, Note_on_c, 1, 64, 30
2, 241152, Note_on_c, 1, 64, 0
2, 241152, Note_on_c, 1, 65, 30
2, 241200, Note_on_c, 1, 65, 0
2, 241200, Note_on_c, 1, 64, 30
2, 241248, Note_on_c, 1, 64, 0
2, 241248, Note_on_c, 1, 62, 30
2, 241296, Note_on_c, 1, 62, 0
2, 241296, Note_on_c, 1, 64, 30
2, 241342, Note_on_c, 1, 64, 0
2, 241344, Note_on_c, 1, 65, 30
2, 241392, Note_on_c, 1, 65, 0
2, 241536, Note_on_c, 1, 69, 30
2, 241584, Note_on_c, 1, 69, 0
2, 241728, Note_on_c, 1, 69, 30
2, 241776, Note_on_c, 1, 69, 0
2, 241920, Note_on_c, 1, 70, 30
2, 242496, Note_on_c, 1, 70, 0
2, 242496, Note_on_c, 1, 69, 30
2, 242656, Note_on_c, 1, 69, 0
2, 242784, Note_on_c, 1, 73, 30
2, 242832, Note_on_c, 1, 73, 0
2, 242832, Note_on_c, 1, 72, 30
2, 242878, Note_on_c, 1, 72, 0
2, 242880, Note_on_c, 1, 70, 30
2, 242912, Note_on_c, 1, 70, 0
2, 242976, Note_on_c, 1, 72, 30
2, 243008, Note_on_c, 1, 72, 0
2, 243072, Note_on_c, 1, 73, 30
2, 243648, Note_on_c, 1, 73, 0
2, 243648, Note_on_c, 1, 72, 30
2, 243808, Note_on_c, 1, 72, 0
2, 243936, Note_on_c, 1, 82, 30
2, 243984, Note_on_c, 1, 82, 0
2, 243984, Note_on_c, 1, 81, 30
2, 244030, Note_on_c, 1, 81, 0
2, 244032, Note_on_c, 1, 79, 30
2, 244064, Note_on_c, 1, 79, 0
2, 244128, Note_on_c, 1, 81, 30
2, 244160, Note_on_c, 1, 81, 0
2, 244224, Note_on_c, 1, 82, 30
2, 244752, Note_on_c, 1, 82, 0
2, 244800, Note_on_c, 1, 81, 92
2, 244896, Note_on_c, 1, 81, 0
2, 244896, Note_on_c, 1, 82, 92
2, 244944, Note_on_c, 1, 82, 0
2, 244944, Note_on_c, 1, 81, 92
2, 244990, Note_on_c, 1, 81, 0
2, 244992, Note_on_c, 1, 80, 92
2, 245024, Note_on_c, 1, 80, 0
2, 245088, Note_on_c, 1, 81, 92
2, 245120, Note_on_c, 1, 81, 0
2, 245184, Note_on_c, 1, 76, 127
2, 245216, Note_on_c, 1, 76, 0
2, 245280, Note_on_c, 1, 77, 108
2, 245312, Note_on_c, 1, 77, 0
2, 245376, Note_on_c, 1, 72, 108
2, 245472, Note_on_c, 1, 72, 0
2, 245472, Note_on_c, 1, 74, 92
2, 245520, Note_on_c, 1, 74, 0
2, 245520, Note_on_c, 1, 72, 92
2, 245566, Note_on_c, 1, 72, 0
2, 245568, Note_on_c, 1, 71, 92
2, 245600, Note_on_c, 1, 71, 0
2, 245664, Note_on_c, 1, 72, 92
2, 245696, Note_on_c, 1, 72, 0
2, 245760, Note_on_c, 1, 68, 127
2, 245792, Note_on_c, 1, 68, 0
2, 245856, Note_on_c, 1, 69, 108
2, 245888, Note_on_c, 1, 69, 0
2, 245952, Note_on_c, 1, 65, 108
2, 246048, Note_on_c, 1, 65, 0
2, 246048, Note_on_c, 1, 67, 92
2, 246096, Note_on_c, 1, 67, 0
2, 246096, Note_on_c, 1, 65, 92
2, 246142, Note_on_c, 1, 65, 0
2, 246144, Note_on_c, 1, 64, 92
2, 246176, Note_on_c, 1, 64, 0
2, 246240, Note_on_c, 1, 65, 92
2, 246272, Note_on_c, 1, 65, 0
2, 246336, Note_on_c, 1, 60, 127
2, 246368, Note_on_c, 1, 60, 0
2, 246432, Note_on_c, 1, 64, 108
2, 246464, Note_on_c, 1, 64, 0
2, 246528, Note_on_c, 1, 65, 108
2, 246576, Note_on_c, 1, 65, 0
2, 246720, Note_on_c, 1, 69, 92
2, 246720, Note_on_c, 1, 77, 92
2, 246768, Note_on_c, 1, 77, 0
2, 246768, Note_on_c, 1, 69, 0
2, 247104, Control_c, 1, 7, 0
2, 247104, Note_on_c, 1, 70, 60
2, 247824, Note_on_c, 1, 70, 0
2, 247824, Note_on_c, 1, 85, 0
2, 247824, End_track
3, 0, Start_track
3, 0, Title_t, "Violino II."
3, 0, Program_c, 2, 48
3, 0, Control_c, 2, 7, 127
3, 0, Control_c, 2, 10, 64
3, 2304, Note_on_c, 2, 70, 45
3, 2880, Note_on_c, 2, 70, 0
3, 2880, Note_on_c, 2, 70, 92
3, 3264, Note_on_c, 2, 70, 0
3, 3264, Note_on_c, 2, 67, 61
3, 3424, Note_on_c, 2, 67, 0
3, 3456, Note_on_c, 2, 65, 45
3, 3840, Note_on_c, 2, 65, 0
3, 3840, Note_on_c, 2, 70, 45
3, 3982, Note_on_c, 2, 70, 0
3, 3984, Note_on_c, 2, 67, 45
3, 4030, Note_on_c, 2, 67, 0
3, 4032, Note_on_c, 2, 65, 45
3, 4416, Note_on_c, 2, 65, 0
3, 4416, Note_on_c, 2, 64, 45
3, 4576, Note_on_c, 2, 64, 0
3, 7488, Note_on_c, 2, 76, 45
3, 7872, Note_on_c, 2, 76, 0
3, 7872, Note_on_c, 2, 76, 92
3, 8032, Note_on_c, 2, 76, 0
3, 8640, Note_on_c, 2, 72, 45
3, 9024, Note_on_c, 2, 72, 0
3, 9024, Note_on_c, 2, 72, 92
3, 9184, Note_on_c, 2, 72, 0
3, 9792, Note_on_c, 2, 75, 45
3, 10080, Note_on_c, 2, 75, 0
3, 10080, Note_on_c, 2, 74, 56
3, 10176, Note_on_c, 2, 74, 0
3, 10176, Note_on_c, 2, 72, 60
3, 10272, Note_on_c, 2, 72, 0
3, 10272, Note_on_c, 2, 70, 64
3, 10366, Note_on_c, 2, 70, 0
3, 10368, Note_on_c, 2, 69, 68
3, 10656, Note_on_c, 2, 69, 0
3, 10656, Note_on_c, 2, 70, 80
3, 10680, Note_on_c, 2, 70, 0
3, 10680, Note_on_c, 2, 69, 80
3, 10704, Note_on_c, 2, 69, 0
3, 10704, Note_on_c, 2, 67, 80
3, 10728, Note_on_c, 2, 67, 0
3, 10728, Note_on_c, 2, 69, 80
3, 10752, Note_on_c, 2, 69, 0
3, 10752, Note_on_c, 2, 72, 80
3, 10848, Note_on_c, 2, 72, 0
3, 10848, Note_on_c, 2, 70, 88
3, 10942, Note_on_c, 2, 70, 0
3, 10944, Note_on_c, 2, 69, 45
3, 11104, Note_on_c, 2, 69, 0
3, 11520, Note_on_c, 2, 60, 45
3, 11808, Note_on_c, 2, 60, 0
3, 11808, Note_on_c, 2, 62, 45
3, 11856, Note_on_c, 2, 62, 0
3, 11856, Note_on_c, 2, 60, 45
3, 11902, Note_on_c, 2, 60, 0
3, 11904, Note_on_c, 2, 59, 45
3, 11936, Note_on_c, 2, 59, 0
3, 12000, Note_on_c, 2, 60, 45
3, 12032, Note_on_c, 2, 60, 0
3, 12096, Note_on_c, 2, 63, 63
3, 12480, Note_on_c, 2, 63, 0
3, 12480, Note_on_c, 2, 62, 45
3, 12640, Note_on_c, 2, 62, 0
3, 12672, Note_on_c, 2, 62, 45
3, 12960, Note_on_c, 2, 62, 0
3, 12960, Note_on_c, 2, 63, 45
3, 13008, Note_on_c, 2, 63, 0
3, 13008, Note_on_c, 2, 62, 45
3, 13054, Note_on_c, 2, 62, 0
3, 13056, Note_on_c, 2, 61, 45
3, 13088, Note_on_c, 2, 61, 0
3, 13152, Note_on_c, 2, 62, 45
3, 13184, Note_on_c, 2, 62, 0
3, 13248, Note_on_c, 2, 65, 63
3, 13632, Note_on_c, 2, 65, 0
3, 13632, Note_on_c, 2, 64, 45
3, 13792, Note_on_c, 2, 64, 0
3, 13824, Note_on_c, 2, 67, 45
3, 14112, Note_on_c, 2, 67, 0
3, 14112, Note_on_c, 2, 69, 45
3, 14160, Note_on_c, 2, 69, 0
3, 14160, Note_on_c, 2, 67, 45
3, 14206, Note_on_c, 2, 67, 0
3, 14208, Note_on_c, 2, 66, 45
3, 14240, Note_on_c, 2, 66, 0
3, 14304, Note_on_c, 2, 67, 45
3, 14336, Note_on_c, 2, 67, 0
3, 14400, Note_on_c, 2, 70, 63
3, 14784, Note_on_c, 2, 70, 0
3, 14784, Note_on_c, 2, 69, 45
3, 14944, Note_on_c, 2, 69, 0
3, 14976, Note_on_c, 2, 72, 63
3, 15360, Note_on_c, 2, 72, 0
3, 15360, Note_on_c, 2, 70, 45
3, 15408, Note_on_c, 2, 70, 0
3, 15552, Note_on_c, 2, 69, 92
3, 15648, Note_on_c, 2, 69, 0
3, 15648, Note_on_c, 2, 67, 92
3, 15742, Note_on_c, 2, 67, 0
3, 15744, Note_on_c, 2, 69, 92
3, 15840, Note_on_c, 2, 69, 0
3, 15840, Note_on_c, 2, 67, 92
3, 15934, Note_on_c, 2, 67, 0
3, 15936, Note_on_c, 2, 69, 92
3, 16032, Note_on_c, 2, 69, 0
3, 16032, Note_on_c, 2, 67, 92
3, 16126, Note_on_c, 2, 67, 0
3, 16128, Note_on_c, 2, 65, 92
3, 16222, Note_on_c, 2, 65, 0
3, 16224, Note_on_c, 2, 57, 45
3, 16224, Note_on_c, 2, 65, 45
3, 16318, Note_on_c, 2, 65, 0
3, 16318, Note_on_c, 2, 57, 0
3, 16320, Note_on_c, 2, 57, 45
3, 16320, Note_on_c, 2, 65, 45
3, 16414, Note_on_c, 2, 65, 0
3, 16414, Note_on_c, 2, 57, 0
3, 16416, Note_on_c, 2, 57, 45
3, 16416, Note_on_c, 2, 65, 45
3, 16510, Note_on_c, 2, 65, 0
3, 16510, Note_on_c, 2, 57, 0
3, 16512, Note_on_c, 2, 57, 45
3, 16512, Note_on_c, 2, 65, 45
3, 16606, Note_on_c, 2, 65, 0
3, 16606, Note_on_c, 2, 57, 0
3, 16608, Note_on_c, 2, 57, 45
3, 16608, Note_on_c, 2, 65, 45
3, 16702, Note_on_c, 2, 65, 0
3, 16702, Note_on_c, 2, 57, 0
3, 16704, Note_on_c, 2, 57, 45
3, 16704, Note_on_c, 2, 65, 45
3, 16798, Note_on_c, 2, 65, 0
3, 16798, Note_on_c, 2, 57, 0
3, 16800, Note_on_c, 2, 57, 45
3, 16800, Note_on_c, 2, 65, 45
3, 16894, Note_on_c, 2, 65, 0
3, 16894, Note_on_c, 2, 57, 0
3, 16896, Note_on_c, 2, 57, 45
3, 16896, Note_on_c, 2, 65, 45
3, 16990, Note_on_c, 2, 65, 0
3, 16990, Note_on_c, 2, 57, 0
3, 16992, Note_on_c, 2, 57, 45
3, 16992, Note_on_c, 2, 65, 45
3, 17086, Note_on_c, 2, 65, 0
3, 17086, Note_on_c, 2, 57, 0
3, 17088, Note_on_c, 2, 57, 45
3, 17088, Note_on_c, 2, 65, 45
3, 17182, Note_on_c, 2, 65, 0
3, 17182, Note_on_c, 2, 57, 0
3, 17184, Note_on_c, 2, 57, 45
3, 17184, Note_on_c, 2, 65, 45
3, 17278, Note_on_c, 2, 65, 0
3, 17278, Note_on_c, 2, 57, 0
3, 17280, Note_on_c, 2, 55, 45
3, 17280, Note_on_c, 2, 64, 45
3, 17374, Note_on_c, 2, 64, 0
3, 17374, Note_on_c, 2, 55, 0
3, 17376, Note_on_c, 2, 55, 45
3, 17376, Note_on_c, 2, 64, 45
3, 17470, Note_on_c, 2, 64, 0
3, 17470, Note_on_c, 2, 55, 0
3, 17472, Note_on_c, 2, 55, 45
3, 17472, Note_on_c, 2, 64, 45
3, 17566, Note_on_c, 2, 64, 0
3, 17566, Note_on_c, 2, 55, 0
3, 17568, Note_on_c, 2, 55, 45
3, 17568, Note_on_c, 2, 64, 45
3, 17662, Note_on_c, 2, 64, 0
3, 17662, Note_on_c, 2, 55, 0
3, 17664, Note_on_c, 2, 55, 45
3, 17664, Note_on_c, 2, 64, 45
3, 17758, Note_on_c, 2, 64, 0
3, 17758, Note_on_c, 2, 55, 0
3, 17760, Note_on_c, 2, 55, 45
3, 17760, Note_on_c, 2, 64, 45
3, 17854, Note_on_c, 2, 64, 0
3, 17854, Note_on_c, 2, 55, 0
3, 17856, Note_on_c, 2, 55, 45
3, 17950, Note_on_c, 2, 55, 0
3, 17952, Note_on_c, 2, 55, 45
3, 17952, Note_on_c, 2, 64, 45
3, 18046, Note_on_c, 2, 64, 0
3, 18046, Note_on_c, 2, 55, 0
3, 18048, Note_on_c, 2, 55, 45
3, 18048, Note_on_c, 2, 64, 45
3, 18142, Note_on_c, 2, 64, 0
3, 18142, Note_on_c, 2, 55, 0
3, 18144, Note_on_c, 2, 55, 45
3, 18144, Note_on_c, 2, 64, 45
3, 18238, Note_on_c, 2, 64, 0
3, 18238, Note_on_c, 2, 55, 0
3, 18240, Note_on_c, 2, 55, 45
3, 18240, Note_on_c, 2, 64, 45
3, 18334, Note_on_c, 2, 64, 0
3, 18334, Note_on_c, 2, 55, 0
3, 18336, Note_on_c, 2, 55, 45
3, 18336, Note_on_c, 2, 64, 45
3, 18430, Note_on_c, 2, 64, 0
3, 18430, Note_on_c, 2, 55, 0
3, 18432, Note_on_c, 2, 57, 45
3, 18432, Note_on_c, 2, 65, 45
3, 18526, Note_on_c, 2, 65, 0
3, 18526, Note_on_c, 2, 57, 0
3, 18528, Note_on_c, 2, 57, 45
3, 18528, Note_on_c, 2, 65, 45
3, 18622, Note_on_c, 2, 65, 0
3, 18622, Note_on_c, 2, 57, 0
3, 18624, Note_on_c, 2, 57, 45
3, 18624, Note_on_c, 2, 65, 45
3, 18718, Note_on_c, 2, 65, 0
3, 18718, Note_on_c, 2, 57, 0
3, 18720, Note_on_c, 2, 57, 45
3, 18720, Note_on_c, 2, 65, 45
3, 18814, Note_on_c, 2, 65, 0
3, 18814, Note_on_c, 2, 57, 0
3, 18816, Note_on_c, 2, 57, 45
3, 18816, Note_on_c, 2, 65, 45
3, 18910, Note_on_c, 2, 65, 0
3, 18910, Note_on_c, 2, 57, 0
3, 18912, Note_on_c, 2, 57, 45
3, 18912, Note_on_c, 2, 65, 45
3, 19006, Note_on_c, 2, 65, 0
3, 19006, Note_on_c, 2, 57, 0
3, 19008, Note_on_c, 2, 57, 45
3, 19102, Note_on_c, 2, 57, 0
3, 19104, Note_on_c, 2, 57, 45
3, 19104, Note_on_c, 2, 65, 45
3, 19198, Note_on_c, 2, 65, 0
3, 19198, Note_on_c, 2, 57, 0
3, 19200, Note_on_c, 2, 57, 45
3, 19200, Note_on_c, 2, 65, 45
3, 19294, Note_on_c, 2, 65, 0
3, 19294, Note_on_c, 2, 57, 0
3, 19296, Note_on_c, 2, 57, 45
3, 19296, Note_on_c, 2, 65, 45
3, 19390, Note_on_c, 2, 65, 0
3, 19390, Note_on_c, 2, 57, 0
3, 19392, Note_on_c, 2, 57, 45
3, 19392, Note_on_c, 2, 65, 45
3, 19486, Note_on_c, 2, 65, 0
3, 19486, Note_on_c, 2, 57, 0
3, 19488, Note_on_c, 2, 57, 45
3, 19488, Note_on_c, 2, 65, 45
3, 19582, Note_on_c, 2, 65, 0
3, 19582, Note_on_c, 2, 57, 0
3, 19584, Note_on_c, 2, 58, 45
3, 19584, Note_on_c, 2, 67, 45
3, 19678, Note_on_c, 2, 67, 0
3, 19678, Note_on_c, 2, 58, 0
3, 19680, Note_on_c, 2, 58, 45
3, 19680, Note_on_c, 2, 67, 45
3, 19774, Note_on_c, 2, 67, 0
3, 19774, Note_on_c, 2, 58, 0
3, 19776, Note_on_c, 2, 58, 45
3, 19776, Note_on_c, 2, 67, 45
3, 19870, Note_on_c, 2, 67, 0
3, 19870, Note_on_c, 2, 58, 0
3, 19872, Note_on_c, 2, 58, 45
3, 19872, Note_on_c, 2, 67, 45
3, 19966, Note_on_c, 2, 67, 0
3, 19966, Note_on_c, 2, 58, 0
3, 19968, Note_on_c, 2, 58, 45
3, 19968, Note_on_c, 2, 67, 45
3, 20062, Note_on_c, 2, 67, 0
3, 20062, Note_on_c, 2, 58, 0
3, 20064, Note_on_c, 2, 58, 45
3, 20064, Note_on_c, 2, 67, 45
3, 20158, Note_on_c, 2, 67, 0
3, 20158, Note_on_c, 2, 58, 0
3, 20160, Note_on_c, 2, 58, 45
3, 20160, Note_on_c, 2, 67, 45
3, 20254, Note_on_c, 2, 67, 0
3, 20254, Note_on_c, 2, 58, 0
3, 20256, Note_on_c, 2, 58, 45
3, 20256, Note_on_c, 2, 67, 45
3, 20350, Note_on_c, 2, 67, 0
3, 20350, Note_on_c, 2, 58, 0
3, 20352, Note_on_c, 2, 58, 45
3, 20352, Note_on_c, 2, 67, 45
3, 20446, Note_on_c, 2, 67, 0
3, 20446, Note_on_c, 2, 58, 0
3, 20448, Note_on_c, 2, 58, 45
3, 20448, Note_on_c, 2, 67, 45
3, 20542, Note_on_c, 2, 67, 0
3, 20542, Note_on_c, 2, 58, 0
3, 20544, Note_on_c, 2, 58, 45
3, 20544, Note_on_c, 2, 67, 45
3, 20638, Note_on_c, 2, 67, 0
3, 20638, Note_on_c, 2, 58, 0
3, 20640, Note_on_c, 2, 58, 45
3, 20640, Note_on_c, 2, 67, 45
3, 20734, Note_on_c, 2, 67, 0
3, 20734, Note_on_c, 2, 58, 0
3, 20736, Note_on_c, 2, 57, 45
3, 20736, Note_on_c, 2, 67, 45
3, 20830, Note_on_c, 2, 67, 0
3, 20830, Note_on_c, 2, 57, 0
3, 20832, Note_on_c, 2, 57, 45
3, 20832, Note_on_c, 2, 67, 45
3, 20926, Note_on_c, 2, 67, 0
3, 20926, Note_on_c, 2, 57, 0
3, 20928, Note_on_c, 2, 57, 45
3, 20928, Note_on_c, 2, 67, 45
3, 21022, Note_on_c, 2, 67, 0
3, 21022, Note_on_c, 2, 57, 0
3, 21024, Note_on_c, 2, 57, 45
3, 21024, Note_on_c, 2, 67, 45
3, 21118, Note_on_c, 2, 67, 0
3, 21118, Note_on_c, 2, 57, 0
3, 21120, Note_on_c, 2, 57, 45
3, 21120, Note_on_c, 2, 67, 45
3, 21214, Note_on_c, 2, 67, 0
3, 21214, Note_on_c, 2, 57, 0
3, 21216, Note_on_c, 2, 57, 45
3, 21216, Note_on_c, 2, 67, 45
3, 21310, Note_on_c, 2, 67, 0
3, 21310, Note_on_c, 2, 57, 0
3, 21312, Note_on_c, 2, 57, 45
3, 21312, Note_on_c, 2, 65, 45
3, 21406, Note_on_c, 2, 65, 0
3, 21406, Note_on_c, 2, 57, 0
3, 21408, Note_on_c, 2, 57, 45
3, 21408, Note_on_c, 2, 65, 45
3, 21502, Note_on_c, 2, 65, 0
3, 21502, Note_on_c, 2, 57, 0
3, 21504, Note_on_c, 2, 57, 45
3, 21504, Note_on_c, 2, 65, 45
3, 21598, Note_on_c, 2, 65, 0
3, 21598, Note_on_c, 2, 57, 0
3, 21600, Note_on_c, 2, 57, 45
3, 21600, Note_on_c, 2, 65, 45
3, 21694, Note_on_c, 2, 65, 0
3, 21694, Note_on_c, 2, 57, 0
3, 21696, Note_on_c, 2, 57, 45
3, 21696, Note_on_c, 2, 65, 45
3, 21790, Note_on_c, 2, 65, 0
3, 21790, Note_on_c, 2, 57, 0
3, 21792, Note_on_c, 2, 57, 45
3, 21792, Note_on_c, 2, 65, 45
3, 21886, Note_on_c, 2, 65, 0
3, 21886, Note_on_c, 2, 57, 0
3, 21888, Note_on_c, 2, 55, 45
3, 21888, Note_on_c, 2, 65, 45
3, 21982, Note_on_c, 2, 65, 0
3, 21982, Note_on_c, 2, 55, 0
3, 21984, Note_on_c, 2, 55, 45
3, 21984, Note_on_c, 2, 65, 45
3, 22078, Note_on_c, 2, 65, 0
3, 22078, Note_on_c, 2, 55, 0
3, 22080, Note_on_c, 2, 55, 45
3, 22080, Note_on_c, 2, 65, 45
3, 22174, Note_on_c, 2, 65, 0
3, 22174, Note_on_c, 2, 55, 0
3, 22176, Note_on_c, 2, 55, 45
3, 22176, Note_on_c, 2, 65, 45
3, 22270, Note_on_c, 2, 65, 0
3, 22270, Note_on_c, 2, 55, 0
3, 22272, Note_on_c, 2, 55, 45
3, 22272, Note_on_c, 2, 65, 45
3, 22366, Note_on_c, 2, 65, 0
3, 22366, Note_on_c, 2, 55, 0
3, 22368, Note_on_c, 2, 55, 45
3, 22368, Note_on_c, 2, 65, 45
3, 22462, Note_on_c, 2, 65, 0
3, 22462, Note_on_c, 2, 55, 0
3, 22464, Note_on_c, 2, 55, 45
3, 22464, Note_on_c, 2, 63, 45
3, 22558, Note_on_c, 2, 63, 0
3, 22558, Note_on_c, 2, 55, 0
3, 22560, Note_on_c, 2, 55, 45
3, 22560, Note_on_c, 2, 63, 45
3, 22654, Note_on_c, 2, 63, 0
3, 22654, Note_on_c, 2, 55, 0
3, 22656, Note_on_c, 2, 55, 45
3, 22656, Note_on_c, 2, 63, 45
3, 22750, Note_on_c, 2, 63, 0
3, 22750, Note_on_c, 2, 55, 0
3, 22752, Note_on_c, 2, 55, 45
3, 22752, Note_on_c, 2, 63, 45
3, 22846, Note_on_c, 2, 63, 0
3, 22846, Note_on_c, 2, 55, 0
3, 22848, Note_on_c, 2, 55, 45
3, 22848, Note_on_c, 2, 63, 45
3, 22942, Note_on_c, 2, 63, 0
3, 22942, Note_on_c, 2, 55, 0
3, 22944, Note_on_c, 2, 55, 45
3, 22944, Note_on_c, 2, 63, 45
3, 23038, Note_on_c, 2, 63, 0
3, 23038, Note_on_c, 2, 55, 0
3, 23040, Note_on_c, 2, 60, 30
3, 23040, Note_on_c, 2, 63, 30
3, 23776, Note_on_c, 2, 63, 0
3, 23776, Note_on_c, 2, 60, 0
3, 23808, Note_on_c, 2, 60, 30
3, 23968, Note_on_c, 2, 60, 0
3, 24000, Note_on_c, 2, 60, 30
3, 24160, Note_on_c, 2, 60, 0
3, 24192, Note_on_c, 2, 61, 30
3, 24928, Note_on_c, 2, 61, 0
3, 24960, Note_on_c, 2, 61, 30
3, 25120, Note_on_c, 2, 61, 0
3, 25152, Note_on_c, 2, 61, 30
3, 25312, Note_on_c, 2, 61, 0
3, 25344, Note_on_c, 2, 63, 30
3, 26080, Note_on_c, 2, 63, 0
3, 26112, Note_on_c, 2, 66, 30
3, 26160, Note_on_c, 2, 66, 0
3, 26304, Note_on_c, 2, 66, 42
3, 26352, Note_on_c, 2, 66, 0
3, 26496, Note_on_c, 2, 68, 75
3, 27024, Note_on_c, 2, 68, 0
3, 27072, Note_on_c, 2, 67, 92
3, 27120, Note_on_c, 2, 67, 0
3, 27264, Note_on_c, 2, 68, 92
3, 27312, Note_on_c, 2, 68, 0
3, 27456, Note_on_c, 2, 69, 92
3, 27504, Note_on_c, 2, 69, 0
3, 27648, Note_on_c, 2, 67, 92
3, 27808, Note_on_c, 2, 67, 0
3, 27936, Note_on_c, 2, 62, 45
3, 27968, Note_on_c, 2, 62, 0
3, 28032, Note_on_c, 2, 62, 45
3, 28064, Note_on_c, 2, 62, 0
3, 28128, Note_on_c, 2, 63, 45
3, 28160, Note_on_c, 2, 63, 0
3, 28224, Note_on_c, 2, 62, 45
3, 28384, Note_on_c, 2, 62, 0
3, 28512, Note_on_c, 2, 74, 45
3, 28544, Note_on_c, 2, 74, 0
3, 28608, Note_on_c, 2, 74, 45
3, 28640, Note_on_c, 2, 74, 0
3, 28704, Note_on_c, 2, 75, 45
3, 28736, Note_on_c, 2, 75, 0
3, 28800, Note_on_c, 2, 74, 45
3, 28960, Note_on_c, 2, 74, 0
3, 29088, Note_on_c, 2, 62, 45
3, 29120, Note_on_c, 2, 62, 0
3, 29184, Note_on_c, 2, 62, 49
3, 29216, Note_on_c, 2, 62, 0
3, 29280, Note_on_c, 2, 63, 53
3, 29312, Note_on_c, 2, 63, 0
3, 29376, Note_on_c, 2, 62, 57
3, 29536, Note_on_c, 2, 62, 0
3, 29664, Note_on_c, 2, 74, 69
3, 29696, Note_on_c, 2, 74, 0
3, 29760, Note_on_c, 2, 74, 73
3, 29792, Note_on_c, 2, 74, 0
3, 29856, Note_on_c, 2, 75, 77
3, 29888, Note_on_c, 2, 75, 0
3, 29952, Note_on_c, 2, 74, 81
3, 30112, Note_on_c, 2, 74, 0
3, 30240, Note_on_c, 2, 74, 94
3, 30272, Note_on_c, 2, 74, 0
3, 30336, Note_on_c, 2, 74, 98
3, 30368, Note_on_c, 2, 74, 0
3, 30432, Note_on_c, 2, 75, 103
3, 30464, Note_on_c, 2, 75, 0
3, 30528, Note_on_c, 2, 74, 108
3, 30574, Note_on_c, 2, 74, 0
3, 30576, Note_on_c, 2, 55, 127
3, 30622, Note_on_c, 2, 55, 0
3, 30624, Note_on_c, 2, 57, 127
3, 30670, Note_on_c, 2, 57, 0
3, 30672, Note_on_c, 2, 59, 127
3, 30718, Note_on_c, 2, 59, 0
3, 30720, Note_on_c, 2, 60, 127
3, 30766, Note_on_c, 2, 60, 0
3, 30768, Note_on_c, 2, 62, 127
3, 30814, Note_on_c, 2, 62, 0
3, 30816, Note_on_c, 2, 64, 127
3, 30862, Note_on_c, 2, 64, 0
3, 30864, Note_on_c, 2, 66, 127
3, 30910, Note_on_c, 2, 66, 0
3, 30912, Note_on_c, 2, 67, 127
3, 30958, Note_on_c, 2, 67, 0
3, 30960, Note_on_c, 2, 66, 127
3, 31006, Note_on_c, 2, 66, 0
3, 31008, Note_on_c, 2, 67, 127
3, 31054, Note_on_c, 2, 67, 0
3, 31056, Note_on_c, 2, 66, 127
3, 31102, Note_on_c, 2, 66, 0
3, 31104, Note_on_c, 2, 67, 127
3, 31264, Note_on_c, 2, 67, 0
3, 33216, Note_on_c, 2, 67, 45
3, 33248, Note_on_c, 2, 67, 0
3, 33312, Note_on_c, 2, 67, 45
3, 33502, Note_on_c, 2, 67, 0
3, 33504, Note_on_c, 2, 67, 45
3, 33600, Note_on_c, 2, 67, 0
3, 33600, Note_on_c, 2, 71, 45
3, 33694, Note_on_c, 2, 71, 0
3, 33696, Note_on_c, 2, 71, 45
3, 33792, Note_on_c, 2, 71, 0
3, 33792, Note_on_c, 2, 72, 45
3, 33886, Note_on_c, 2, 72, 0
3, 33888, Note_on_c, 2, 72, 45
3, 33984, Note_on_c, 2, 72, 0
3, 33984, Note_on_c, 2, 76, 45
3, 34176, Note_on_c, 2, 76, 0
3, 34176, Note_on_c, 2, 74, 45
3, 34336, Note_on_c, 2, 74, 0
3, 35520, Note_on_c, 2, 71, 45
3, 35712, Note_on_c, 2, 71, 0
3, 35712, Note_on_c, 2, 76, 45
3, 35904, Note_on_c, 2, 76, 0
3, 35904, Note_on_c, 2, 64, 45
3, 36096, Note_on_c, 2, 64, 0
3, 36096, Note_on_c, 2, 72, 45
3, 36480, Note_on_c, 2, 72, 0
3, 36480, Note_on_c, 2, 71, 45
3, 36574, Note_on_c, 2, 71, 0
3, 37824, Note_on_c, 2, 62, 45
3, 37856, Note_on_c, 2, 62, 0
3, 37920, Note_on_c, 2, 62, 45
3, 38016, Note_on_c, 2, 62, 0
3, 38016, Note_on_c, 2, 64, 45
3, 38110, Note_on_c, 2, 64, 0
3, 38112, Note_on_c, 2, 72, 45
3, 38208, Note_on_c, 2, 72, 0
3, 38208, Note_on_c, 2, 71, 45
3, 38302, Note_on_c, 2, 71, 0
3, 38304, Note_on_c, 2, 71, 45
3, 38400, Note_on_c, 2, 71, 0
3, 38400, Note_on_c, 2, 67, 45
3, 38494, Note_on_c, 2, 67, 0
3, 38496, Note_on_c, 2, 67, 45
3, 38590, Note_on_c, 2, 67, 0
3, 38592, Note_on_c, 2, 68, 45
3, 38848, Note_on_c, 2, 68, 0
3, 38976, Note_on_c, 2, 67, 45
3, 39008, Note_on_c, 2, 67, 0
3, 39072, Note_on_c, 2, 67, 45
3, 39168, Note_on_c, 2, 67, 0
3, 39168, Note_on_c, 2, 68, 45
3, 39262, Note_on_c, 2, 68, 0
3, 39264, Note_on_c, 2, 68, 45
3, 39360, Note_on_c, 2, 68, 0
3, 39360, Note_on_c, 2, 65, 45
3, 39454, Note_on_c, 2, 65, 0
3, 39456, Note_on_c, 2, 65, 45
3, 39552, Note_on_c, 2, 65, 0
3, 39552, Note_on_c, 2, 62, 45
3, 39646, Note_on_c, 2, 62, 0
3, 39648, Note_on_c, 2, 62, 45
3, 39744, Note_on_c, 2, 62, 0
3, 39744, Note_on_c, 2, 59, 45
3, 39838, Note_on_c, 2, 59, 0
3, 39840, Note_on_c, 2, 59, 45
3, 39936, Note_on_c, 2, 59, 0
3, 39936, Note_on_c, 2, 60, 49
3, 40030, Note_on_c, 2, 60, 0
3, 40032, Note_on_c, 2, 75, 53
3, 40192, Note_on_c, 2, 75, 0
3, 40224, Note_on_c, 2, 75, 61
3, 40318, Note_on_c, 2, 75, 0
3, 40320, Note_on_c, 2, 75, 65
3, 40704, Note_on_c, 2, 75, 0
3, 40704, Note_on_c, 2, 77, 83
3, 40848, Note_on_c, 2, 77, 0
3, 40848, Note_on_c, 2, 74, 89
3, 40894, Note_on_c, 2, 74, 0
3, 40896, Note_on_c, 2, 72, 45
3, 40990, Note_on_c, 2, 72, 0
3, 40992, Note_on_c, 2, 55, 45
3, 40992, Note_on_c, 2, 64, 45
3, 41086, Note_on_c, 2, 64, 0
3, 41086, Note_on_c, 2, 55, 0
3, 41088, Note_on_c, 2, 55, 45
3, 41088, Note_on_c, 2, 64, 45
3, 41182, Note_on_c, 2, 64, 0
3, 41182, Note_on_c, 2, 55, 0
3, 41184, Note_on_c, 2, 55, 45
3, 41184, Note_on_c, 2, 64, 45
3, 41278, Note_on_c, 2, 64, 0
3, 41278, Note_on_c, 2, 55, 0
3, 41280, Note_on_c, 2, 55, 45
3, 41280, Note_on_c, 2, 64, 45
3, 41374, Note_on_c, 2, 64, 0
3, 41374, Note_on_c, 2, 55, 0
3, 41376, Note_on_c, 2, 55, 45
3, 41376, Note_on_c, 2, 64, 45
3, 41470, Note_on_c, 2, 64, 0
3, 41470, Note_on_c, 2, 55, 0
3, 41472, Note_on_c, 2, 55, 45
3, 41472, Note_on_c, 2, 64, 45
3, 41566, Note_on_c, 2, 64, 0
3, 41566, Note_on_c, 2, 55, 0
3, 41568, Note_on_c, 2, 55, 45
3, 41568, Note_on_c, 2, 64, 45
3, 41662, Note_on_c, 2, 64, 0
3, 41662, Note_on_c, 2, 55, 0
3, 41664, Note_on_c, 2, 55, 45
3, 41664, Note_on_c, 2, 64, 45
3, 41758, Note_on_c, 2, 64, 0
3, 41758, Note_on_c, 2, 55, 0
3, 41760, Note_on_c, 2, 55, 45
3, 41760, Note_on_c, 2, 64, 45
3, 41854, Note_on_c, 2, 64, 0
3, 41854, Note_on_c, 2, 55, 0
3, 41856, Note_on_c, 2, 55, 45
3, 41856, Note_on_c, 2, 64, 45
3, 41950, Note_on_c, 2, 64, 0
3, 41950, Note_on_c, 2, 55, 0
3, 41952, Note_on_c, 2, 55, 45
3, 41952, Note_on_c, 2, 64, 45
3, 42046, Note_on_c, 2, 64, 0
3, 42046, Note_on_c, 2, 55, 0
3, 42048, Note_on_c, 2, 55, 45
3, 42048, Note_on_c, 2, 65, 45
3, 42142, Note_on_c, 2, 65, 0
3, 42142, Note_on_c, 2, 55, 0
3, 42144, Note_on_c, 2, 55, 45
3, 42144, Note_on_c, 2, 65, 45
3, 42238, Note_on_c, 2, 65, 0
3, 42238, Note_on_c, 2, 55, 0
3, 42240, Note_on_c, 2, 55, 45
3, 42240, Note_on_c, 2, 65, 45
3, 42334, Note_on_c, 2, 65, 0
3, 42334, Note_on_c, 2, 55, 0
3, 42336, Note_on_c, 2, 55, 45
3, 42336, Note_on_c, 2, 65, 45
3, 42430, Note_on_c, 2, 65, 0
3, 42430, Note_on_c, 2, 55, 0
3, 42432, Note_on_c, 2, 55, 45
3, 42432, Note_on_c, 2, 65, 45
3, 42526, Note_on_c, 2, 65, 0
3, 42526, Note_on_c, 2, 55, 0
3, 42528, Note_on_c, 2, 55, 45
3, 42528, Note_on_c, 2, 65, 45
3, 42622, Note_on_c, 2, 65, 0
3, 42622, Note_on_c, 2, 55, 0
3, 42624, Note_on_c, 2, 59, 45
3, 42718, Note_on_c, 2, 59, 0
3, 42720, Note_on_c, 2, 59, 45
3, 42814, Note_on_c, 2, 59, 0
3, 42816, Note_on_c, 2, 59, 45
3, 42910, Note_on_c, 2, 59, 0
3, 42912, Note_on_c, 2, 59, 45
3, 43006, Note_on_c, 2, 59, 0
3, 43008, Note_on_c, 2, 59, 45
3, 43102, Note_on_c, 2, 59, 0
3, 43104, Note_on_c, 2, 59, 45
3, 43198, Note_on_c, 2, 59, 0
3, 43200, Note_on_c, 2, 58, 45
3, 43294, Note_on_c, 2, 58, 0
3, 43296, Note_on_c, 2, 58, 52
3, 43390, Note_on_c, 2, 58, 0
3, 43392, Note_on_c, 2, 58, 60
3, 43486, Note_on_c, 2, 58, 0
3, 43488, Note_on_c, 2, 58, 68
3, 43582, Note_on_c, 2, 58, 0
3, 43584, Note_on_c, 2, 58, 76
3, 43678, Note_on_c, 2, 58, 0
3, 43680, Note_on_c, 2, 58, 84
3, 43774, Note_on_c, 2, 58, 0
3, 43776, Note_on_c, 2, 55, 92
3, 43776, Note_on_c, 2, 67, 92
3, 43870, Note_on_c, 2, 67, 0
3, 43870, Note_on_c, 2, 55, 0
3, 43872, Note_on_c, 2, 55, 92
3, 43872, Note_on_c, 2, 67, 92
3, 43966, Note_on_c, 2, 67, 0
3, 43966, Note_on_c, 2, 55, 0
3, 43968, Note_on_c, 2, 55, 92
3, 43968, Note_on_c, 2, 67, 92
3, 44062, Note_on_c, 2, 67, 0
3, 44062, Note_on_c, 2, 55, 0
3, 44064, Note_on_c, 2, 55, 92
3, 44064, Note_on_c, 2, 67, 92
3, 44158, Note_on_c, 2, 67, 0
3, 44158, Note_on_c, 2, 55, 0
3, 44160, Note_on_c, 2, 55, 92
3, 44160, Note_on_c, 2, 67, 92
3, 44254, Note_on_c, 2, 67, 0
3, 44254, Note_on_c, 2, 55, 0
3, 44256, Note_on_c, 2, 55, 92
3, 44256, Note_on_c, 2, 67, 92
3, 44350, Note_on_c, 2, 67, 0
3, 44350, Note_on_c, 2, 55, 0
3, 44352, Note_on_c, 2, 57, 92
3, 44400, Note_on_c, 2, 57, 0
3, 44544, Note_on_c, 2, 65, 45
3, 44544, Note_on_c, 2, 69, 45
3, 44592, Note_on_c, 2, 69, 0
3, 44592, Note_on_c, 2, 65, 0
3, 45936, Note_on_c, 2, 57, 60
3, 45982, Note_on_c, 2, 57, 0
3, 45984, Note_on_c, 2, 59, 63
3, 46030, Note_on_c, 2, 59, 0
3, 46032, Note_on_c, 2, 61, 66
3, 46078, Note_on_c, 2, 61, 0
3, 46080, Note_on_c, 2, 62, 69
3, 46126, Note_on_c, 2, 62, 0
3, 46128, Note_on_c, 2, 64, 72
3, 46174, Note_on_c, 2, 64, 0
3, 46176, Note_on_c, 2, 65, 75
3, 46222, Note_on_c, 2, 65, 0
3, 46224, Note_on_c, 2, 67, 78
3, 46270, Note_on_c, 2, 67, 0
3, 46272, Note_on_c, 2, 69, 81
3, 46318, Note_on_c, 2, 69, 0
3, 46320, Note_on_c, 2, 67, 84
3, 46366, Note_on_c, 2, 67, 0
3, 46368, Note_on_c, 2, 65, 87
3, 46414, Note_on_c, 2, 65, 0
3, 46416, Note_on_c, 2, 64, 90
3, 46462, Note_on_c, 2, 64, 0
3, 46464, Note_on_c, 2, 62, 93
3, 46510, Note_on_c, 2, 62, 0
3, 46512, Note_on_c, 2, 60, 96
3, 46558, Note_on_c, 2, 60, 0
3, 46560, Note_on_c, 2, 59, 100
3, 46606, Note_on_c, 2, 59, 0
3, 46608, Note_on_c, 2, 57, 104
3, 46654, Note_on_c, 2, 57, 0
3, 46656, Note_on_c, 2, 55, 108
3, 46912, Note_on_c, 2, 55, 0
3, 46944, Note_on_c, 2, 57, 108
3, 46992, Note_on_c, 2, 57, 0
3, 46992, Note_on_c, 2, 59, 108
3, 47040, Note_on_c, 2, 59, 0
3, 47040, Note_on_c, 2, 60, 108
3, 47088, Note_on_c, 2, 60, 0
3, 47088, Note_on_c, 2, 62, 108
3, 47136, Note_on_c, 2, 62, 0
3, 47136, Note_on_c, 2, 64, 108
3, 47184, Note_on_c, 2, 64, 0
3, 47184, Note_on_c, 2, 66, 108
3, 47230, Note_on_c, 2, 66, 0
3, 47232, Note_on_c, 2, 67, 108
3, 47326, Note_on_c, 2, 67, 0
3, 47328, Note_on_c, 2, 71, 92
3, 47422, Note_on_c, 2, 71, 0
3, 47424, Note_on_c, 2, 71, 92
3, 47518, Note_on_c, 2, 71, 0
3, 47520, Note_on_c, 2, 71, 92
3, 47614, Note_on_c, 2, 71, 0
3, 47616, Note_on_c, 2, 71, 92
3, 47710, Note_on_c, 2, 71, 0
3, 47712, Note_on_c, 2, 71, 92
3, 47806, Note_on_c, 2, 71, 0
3, 48000, Note_on_c, 2, 55, 45
3, 48256, Note_on_c, 2, 55, 0
3, 48288, Note_on_c, 2, 55, 45
3, 48382, Note_on_c, 2, 55, 0
3, 48384, Note_on_c, 2, 55, 45
3, 48480, Note_on_c, 2, 55, 0
3, 48480, Note_on_c, 2, 62, 45
3, 48574, Note_on_c, 2, 62, 0
3, 48576, Note_on_c, 2, 62, 45
3, 48672, Note_on_c, 2, 62, 0
3, 48672, Note_on_c, 2, 60, 60
3, 48766, Note_on_c, 2, 60, 0
3, 48768, Note_on_c, 2, 60, 60
3, 48862, Note_on_c, 2, 60, 0
3, 48864, Note_on_c, 2, 60, 45
3, 48958, Note_on_c, 2, 60, 0
3, 48960, Note_on_c, 2, 60, 45
3, 49054, Note_on_c, 2, 60, 0
3, 49056, Note_on_c, 2, 60, 45
3, 49150, Note_on_c, 2, 60, 0
3, 49152, Note_on_c, 2, 60, 45
3, 49248, Note_on_c, 2, 60, 0
3, 49248, Note_on_c, 2, 67, 45
3, 49342, Note_on_c, 2, 67, 0
3, 49344, Note_on_c, 2, 67, 45
3, 49440, Note_on_c, 2, 67, 0
3, 49440, Note_on_c, 2, 65, 45
3, 49534, Note_on_c, 2, 65, 0
3, 49536, Note_on_c, 2, 65, 45
3, 49632, Note_on_c, 2, 65, 0
3, 49632, Note_on_c, 2, 62, 45
3, 49726, Note_on_c, 2, 62, 0
3, 49728, Note_on_c, 2, 62, 45
3, 49888, Note_on_c, 2, 62, 0
3, 50688, Note_on_c, 2, 72, 45
3, 51216, Note_on_c, 2, 72, 0
3, 51264, Note_on_c, 2, 72, 92
3, 51840, Note_on_c, 2, 72, 0
3, 51840, Note_on_c, 2, 72, 45
3, 52032, Note_on_c, 2, 72, 0
3, 52032, Note_on_c, 2, 72, 45
3, 52080, Note_on_c, 2, 72, 0
3, 52224, Note_on_c, 2, 65, 45
3, 52272, Note_on_c, 2, 65, 0
3, 52416, Note_on_c, 2, 64, 45
3, 52464, Note_on_c, 2, 64, 0
3, 52608, Note_on_c, 2, 67, 92
3, 52896, Note_on_c, 2, 67, 0
3, 52896, Note_on_c, 2, 65, 45
3, 52990, Note_on_c, 2, 65, 0
3, 52992, Note_on_c, 2, 65, 45
3, 53088, Note_on_c, 2, 65, 0
3, 53088, Note_on_c, 2, 62, 45
3, 53182, Note_on_c, 2, 62, 0
3, 53184, Note_on_c, 2, 62, 45
3, 53280, Note_on_c, 2, 62, 0
3, 53280, Note_on_c, 2, 64, 45
3, 53374, Note_on_c, 2, 64, 0
3, 53376, Note_on_c, 2, 64, 45
3, 53472, Note_on_c, 2, 64, 0
3, 53472, Note_on_c, 2, 72, 45
3, 53566, Note_on_c, 2, 72, 0
3, 53568, Note_on_c, 2, 72, 45
3, 53662, Note_on_c, 2, 72, 0
3, 53664, Note_on_c, 2, 72, 45
3, 53758, Note_on_c, 2, 72, 0
3, 53760, Note_on_c, 2, 72, 45
3, 53856, Note_on_c, 2, 72, 0
3, 53856, Note_on_c, 2, 79, 45
3, 53950, Note_on_c, 2, 79, 0
3, 53952, Note_on_c, 2, 79, 45
3, 54048, Note_on_c, 2, 79, 0
3, 54048, Note_on_c, 2, 77, 45
3, 54142, Note_on_c, 2, 77, 0
3, 54144, Note_on_c, 2, 77, 45
3, 54240, Note_on_c, 2, 77, 0
3, 54240, Note_on_c, 2, 74, 45
3, 54334, Note_on_c, 2, 74, 0
3, 54336, Note_on_c, 2, 74, 45
3, 54496, Note_on_c, 2, 74, 0
3, 55296, Note_on_c, 2, 55, 63
3, 55824, Note_on_c, 2, 55, 0
3, 56448, Note_on_c, 2, 57, 63
3, 56784, Note_on_c, 2, 57, 0
3, 56832, Note_on_c, 2, 57, 63
3, 56992, Note_on_c, 2, 57, 0
3, 57024, Note_on_c, 2, 57, 108
3, 57072, Note_on_c, 2, 57, 0
3, 57216, Note_on_c, 2, 62, 108
3, 57264, Note_on_c, 2, 62, 0
3, 57408, Note_on_c, 2, 59, 108
3, 57456, Note_on_c, 2, 59, 0
3, 57696, Note_on_c, 2, 55, 45
3, 57696, Note_on_c, 2, 64, 45
3, 57790, Note_on_c, 2, 64, 0
3, 57790, Note_on_c, 2, 55, 0
3, 57792, Note_on_c, 2, 55, 45
3, 57792, Note_on_c, 2, 64, 45
3, 57886, Note_on_c, 2, 64, 0
3, 57886, Note_on_c, 2, 55, 0
3, 57888, Note_on_c, 2, 55, 45
3, 57888, Note_on_c, 2, 64, 45
3, 57982, Note_on_c, 2, 64, 0
3, 57982, Note_on_c, 2, 55, 0
3, 57984, Note_on_c, 2, 55, 45
3, 57984, Note_on_c, 2, 64, 45
3, 58078, Note_on_c, 2, 64, 0
3, 58078, Note_on_c, 2, 55, 0
3, 58080, Note_on_c, 2, 55, 45
3, 58080, Note_on_c, 2, 64, 45
3, 58174, Note_on_c, 2, 64, 0
3, 58174, Note_on_c, 2, 55, 0
3, 58176, Note_on_c, 2, 55, 45
3, 58176, Note_on_c, 2, 64, 45
3, 58270, Note_on_c, 2, 64, 0
3, 58270, Note_on_c, 2, 55, 0
3, 58272, Note_on_c, 2, 55, 45
3, 58272, Note_on_c, 2, 64, 45
3, 58366, Note_on_c, 2, 64, 0
3, 58366, Note_on_c, 2, 55, 0
3, 58368, Note_on_c, 2, 55, 45
3, 58368, Note_on_c, 2, 64, 45
3, 58462, Note_on_c, 2, 64, 0
3, 58462, Note_on_c, 2, 55, 0
3, 58464, Note_on_c, 2, 55, 45
3, 58464, Note_on_c, 2, 64, 45
3, 58558, Note_on_c, 2, 64, 0
3, 58558, Note_on_c, 2, 55, 0
3, 58560, Note_on_c, 2, 55, 45
3, 58560, Note_on_c, 2, 64, 45
3, 58654, Note_on_c, 2, 64, 0
3, 58654, Note_on_c, 2, 55, 0
3, 58656, Note_on_c, 2, 55, 45
3, 58656, Note_on_c, 2, 64, 45
3, 58750, Note_on_c, 2, 64, 0
3, 58750, Note_on_c, 2, 55, 0
3, 58752, Note_on_c, 2, 55, 45
3, 58752, Note_on_c, 2, 65, 45
3, 58846, Note_on_c, 2, 65, 0
3, 58846, Note_on_c, 2, 55, 0
3, 58848, Note_on_c, 2, 55, 45
3, 58848, Note_on_c, 2, 65, 45
3, 58942, Note_on_c, 2, 65, 0
3, 58942, Note_on_c, 2, 55, 0
3, 58944, Note_on_c, 2, 55, 45
3, 58944, Note_on_c, 2, 65, 45
3, 59038, Note_on_c, 2, 65, 0
3, 59038, Note_on_c, 2, 55, 0
3, 59040, Note_on_c, 2, 55, 45
3, 59040, Note_on_c, 2, 65, 45
3, 59134, Note_on_c, 2, 65, 0
3, 59134, Note_on_c, 2, 55, 0
3, 59136, Note_on_c, 2, 55, 45
3, 59136, Note_on_c, 2, 65, 45
3, 59230, Note_on_c, 2, 65, 0
3, 59230, Note_on_c, 2, 55, 0
3, 59232, Note_on_c, 2, 55, 45
3, 59232, Note_on_c, 2, 65, 45
3, 59326, Note_on_c, 2, 65, 0
3, 59326, Note_on_c, 2, 55, 0
3, 59328, Note_on_c, 2, 55, 45
3, 59328, Note_on_c, 2, 65, 45
3, 59422, Note_on_c, 2, 65, 0
3, 59422, Note_on_c, 2, 55, 0
3, 59424, Note_on_c, 2, 55, 45
3, 59424, Note_on_c, 2, 65, 45
3, 59518, Note_on_c, 2, 65, 0
3, 59518, Note_on_c, 2, 55, 0
3, 59520, Note_on_c, 2, 55, 45
3, 59520, Note_on_c, 2, 65, 45
3, 59614, Note_on_c, 2, 65, 0
3, 59614, Note_on_c, 2, 55, 0
3, 59616, Note_on_c, 2, 55, 45
3, 59616, Note_on_c, 2, 65, 45
3, 59710, Note_on_c, 2, 65, 0
3, 59710, Note_on_c, 2, 55, 0
3, 59712, Note_on_c, 2, 55, 45
3, 59712, Note_on_c, 2, 65, 45
3, 59806, Note_on_c, 2, 65, 0
3, 59806, Note_on_c, 2, 55, 0
3, 59808, Note_on_c, 2, 55, 45
3, 59808, Note_on_c, 2, 65, 45
3, 59902, Note_on_c, 2, 65, 0
3, 59902, Note_on_c, 2, 55, 0
3, 59904, Note_on_c, 2, 55, 45
3, 59904, Note_on_c, 2, 64, 45
3, 59998, Note_on_c, 2, 64, 0
3, 59998, Note_on_c, 2, 55, 0
3, 60000, Note_on_c, 2, 55, 45
3, 60000, Note_on_c, 2, 64, 45
3, 60094, Note_on_c, 2, 64, 0
3, 60094, Note_on_c, 2, 55, 0
3, 60096, Note_on_c, 2, 55, 45
3, 60096, Note_on_c, 2, 64, 45
3, 60190, Note_on_c, 2, 64, 0
3, 60190, Note_on_c, 2, 55, 0
3, 60192, Note_on_c, 2, 55, 45
3, 60192, Note_on_c, 2, 64, 45
3, 60286, Note_on_c, 2, 64, 0
3, 60286, Note_on_c, 2, 55, 0
3, 60288, Note_on_c, 2, 55, 45
3, 60288, Note_on_c, 2, 64, 45
3, 60382, Note_on_c, 2, 64, 0
3, 60382, Note_on_c, 2, 55, 0
3, 60384, Note_on_c, 2, 55, 45
3, 60384, Note_on_c, 2, 64, 45
3, 60478, Note_on_c, 2, 64, 0
3, 60478, Note_on_c, 2, 55, 0
3, 60480, Note_on_c, 2, 55, 45
3, 60480, Note_on_c, 2, 64, 45
3, 60574, Note_on_c, 2, 64, 0
3, 60574, Note_on_c, 2, 55, 0
3, 60576, Note_on_c, 2, 55, 45
3, 60576, Note_on_c, 2, 64, 45
3, 60670, Note_on_c, 2, 64, 0
3, 60670, Note_on_c, 2, 55, 0
3, 60672, Note_on_c, 2, 55, 45
3, 60672, Note_on_c, 2, 64, 45
3, 60766, Note_on_c, 2, 64, 0
3, 60766, Note_on_c, 2, 55, 0
3, 60768, Note_on_c, 2, 55, 45
3, 60768, Note_on_c, 2, 64, 45
3, 60862, Note_on_c, 2, 64, 0
3, 60862, Note_on_c, 2, 55, 0
3, 60864, Note_on_c, 2, 55, 45
3, 60864, Note_on_c, 2, 64, 45
3, 60958, Note_on_c, 2, 64, 0
3, 60958, Note_on_c, 2, 55, 0
3, 60960, Note_on_c, 2, 55, 45
3, 60960, Note_on_c, 2, 64, 45
3, 61054, Note_on_c, 2, 64, 0
3, 61054, Note_on_c, 2, 55, 0
3, 61056, Note_on_c, 2, 55, 45
3, 61056, Note_on_c, 2, 65, 45
3, 61150, Note_on_c, 2, 65, 0
3, 61150, Note_on_c, 2, 55, 0
3, 61152, Note_on_c, 2, 55, 45
3, 61152, Note_on_c, 2, 65, 45
3, 61246, Note_on_c, 2, 65, 0
3, 61246, Note_on_c, 2, 55, 0
3, 61248, Note_on_c, 2, 55, 45
3, 61248, Note_on_c, 2, 65, 45
3, 61342, Note_on_c, 2, 65, 0
3, 61342, Note_on_c, 2, 55, 0
3, 61344, Note_on_c, 2, 55, 45
3, 61344, Note_on_c, 2, 65, 45
3, 61438, Note_on_c, 2, 65, 0
3, 61438, Note_on_c, 2, 55, 0
3, 61440, Note_on_c, 2, 55, 45
3, 61440, Note_on_c, 2, 65, 45
3, 61534, Note_on_c, 2, 65, 0
3, 61534, Note_on_c, 2, 55, 0
3, 61536, Note_on_c, 2, 55, 45
3, 61536, Note_on_c, 2, 65, 45
3, 61630, Note_on_c, 2, 65, 0
3, 61630, Note_on_c, 2, 55, 0
3, 61632, Note_on_c, 2, 55, 45
3, 61632, Note_on_c, 2, 65, 45
3, 61726, Note_on_c, 2, 65, 0
3, 61726, Note_on_c, 2, 55, 0
3, 61728, Note_on_c, 2, 55, 45
3, 61728, Note_on_c, 2, 65, 45
3, 61822, Note_on_c, 2, 65, 0
3, 61822, Note_on_c, 2, 55, 0
3, 61824, Note_on_c, 2, 55, 45
3, 61824, Note_on_c, 2, 65, 45
3, 61918, Note_on_c, 2, 65, 0
3, 61918, Note_on_c, 2, 55, 0
3, 61920, Note_on_c, 2, 55, 45
3, 61920, Note_on_c, 2, 65, 45
3, 62014, Note_on_c, 2, 65, 0
3, 62014, Note_on_c, 2, 55, 0
3, 62016, Note_on_c, 2, 55, 45
3, 62016, Note_on_c, 2, 65, 45
3, 62110, Note_on_c, 2, 65, 0
3, 62110, Note_on_c, 2, 55, 0
3, 62112, Note_on_c, 2, 55, 45
3, 62112, Note_on_c, 2, 65, 45
3, 62206, Note_on_c, 2, 65, 0
3, 62206, Note_on_c, 2, 55, 0
3, 62208, Note_on_c, 2, 55, 45
3, 62208, Note_on_c, 2, 64, 45
3, 62256, Note_on_c, 2, 64, 0
3, 62256, Note_on_c, 2, 55, 0
3, 62400, Note_on_c, 2, 72, 45
3, 62448, Note_on_c, 2, 72, 0
3, 64704, Note_on_c, 2, 55, 92
3, 64752, Note_on_c, 2, 55, 0
3, 64896, Note_on_c, 2, 55, 92
3, 64944, Note_on_c, 2, 55, 0
3, 65088, Note_on_c, 2, 55, 92
3, 65136, Note_on_c, 2, 55, 0
3, 67968, Note_on_c, 2, 70, 45
3, 68544, Note_on_c, 2, 70, 0
3, 68544, Note_on_c, 2, 70, 92
3, 68928, Note_on_c, 2, 70, 0
3, 68928, Note_on_c, 2, 67, 61
3, 69088, Note_on_c, 2, 67, 0
3, 69120, Note_on_c, 2, 65, 45
3, 69504, Note_on_c, 2, 65, 0
3, 69504, Note_on_c, 2, 70, 45
3, 69646, Note_on_c, 2, 70, 0
3, 69648, Note_on_c, 2, 67, 45
3, 69694, Note_on_c, 2, 67, 0
3, 69696, Note_on_c, 2, 65, 45
3, 70080, Note_on_c, 2, 65, 0
3, 70080, Note_on_c, 2, 64, 45
3, 70240, Note_on_c, 2, 64, 0
3, 73152, Note_on_c, 2, 76, 45
3, 73536, Note_on_c, 2, 76, 0
3, 73536, Note_on_c, 2, 76, 92
3, 73696, Note_on_c, 2, 76, 0
3, 74304, Note_on_c, 2, 72, 45
3, 74688, Note_on_c, 2, 72, 0
3, 74688, Note_on_c, 2, 72, 92
3, 74848, Note_on_c, 2, 72, 0
3, 75456, Note_on_c, 2, 75, 45
3, 75744, Note_on_c, 2, 75, 0
3, 75744, Note_on_c, 2, 74, 56
3, 75840, Note_on_c, 2, 74, 0
3, 75840, Note_on_c, 2, 72, 60
3, 75936, Note_on_c, 2, 72, 0
3, 75936, Note_on_c, 2, 70, 64
3, 76030, Note_on_c, 2, 70, 0
3, 76032, Note_on_c, 2, 69, 68
3, 76320, Note_on_c, 2, 69, 0
3, 76320, Note_on_c, 2, 70, 80
3, 76344, Note_on_c, 2, 70, 0
3, 76344, Note_on_c, 2, 69, 80
3, 76368, Note_on_c, 2, 69, 0
3, 76368, Note_on_c, 2, 67, 80
3, 76392, Note_on_c, 2, 67, 0
3, 76392, Note_on_c, 2, 69, 80
3, 76416, Note_on_c, 2, 69, 0
3, 76416, Note_on_c, 2, 72, 80
3, 76512, Note_on_c, 2, 72, 0
3, 76512, Note_on_c, 2, 70, 88
3, 76606, Note_on_c, 2, 70, 0
3, 76608, Note_on_c, 2, 69, 45
3, 76768, Note_on_c, 2, 69, 0
3, 77184, Note_on_c, 2, 60, 45
3, 77472, Note_on_c, 2, 60, 0
3, 77472, Note_on_c, 2, 62, 45
3, 77520, Note_on_c, 2, 62, 0
3, 77520, Note_on_c, 2, 60, 45
3, 77566, Note_on_c, 2, 60, 0
3, 77568, Note_on_c, 2, 59, 45
3, 77600, Note_on_c, 2, 59, 0
3, 77664, Note_on_c, 2, 60, 45
3, 77696, Note_on_c, 2, 60, 0
3, 77760, Note_on_c, 2, 63, 63
3, 78144, Note_on_c, 2, 63, 0
3, 78144, Note_on_c, 2, 62, 45
3, 78304, Note_on_c, 2, 62, 0
3, 78336, Note_on_c, 2, 62, 45
3, 78624, Note_on_c, 2, 62, 0
3, 78624, Note_on_c, 2, 63, 45
3, 78672, Note_on_c, 2, 63, 0
3, 78672, Note_on_c, 2, 62, 45
3, 78718, Note_on_c, 2, 62, 0
3, 78720, Note_on_c, 2, 61, 45
3, 78752, Note_on_c, 2, 61, 0
3, 78816, Note_on_c, 2, 62, 45
3, 78848, Note_on_c, 2, 62, 0
3, 78912, Note_on_c, 2, 65, 63
3, 79296, Note_on_c, 2, 65, 0
3, 79296, Note_on_c, 2, 64, 45
3, 79456, Note_on_c, 2, 64, 0
3, 79488, Note_on_c, 2, 67, 45
3, 79776, Note_on_c, 2, 67, 0
3, 79776, Note_on_c, 2, 69, 45
3, 79824, Note_on_c, 2, 69, 0
3, 79824, Note_on_c, 2, 67, 45
3, 79870, Note_on_c, 2, 67, 0
3, 79872, Note_on_c, 2, 66, 45
3, 79904, Note_on_c, 2, 66, 0
3, 79968, Note_on_c, 2, 67, 45
3, 80000, Note_on_c, 2, 67, 0
3, 80064, Note_on_c, 2, 70, 63
3, 80448, Note_on_c, 2, 70, 0
3, 80448, Note_on_c, 2, 69, 45
3, 80608, Note_on_c, 2, 69, 0
3, 80640, Note_on_c, 2, 72, 63
3, 81024, Note_on_c, 2, 72, 0
3, 81024, Note_on_c, 2, 70, 45
3, 81072, Note_on_c, 2, 70, 0
3, 81216, Note_on_c, 2, 69, 92
3, 81312, Note_on_c, 2, 69, 0
3, 81312, Note_on_c, 2, 67, 92
3, 81406, Note_on_c, 2, 67, 0
3, 81408, Note_on_c, 2, 69, 92
3, 81504, Note_on_c, 2, 69, 0
3, 81504, Note_on_c, 2, 67, 92
3, 81598, Note_on_c, 2, 67, 0
3, 81600, Note_on_c, 2, 69, 92
3, 81696, Note_on_c, 2, 69, 0
3, 81696, Note_on_c, 2, 67, 92
3, 81790, Note_on_c, 2, 67, 0
3, 81792, Note_on_c, 2, 65, 92
3, 81886, Note_on_c, 2, 65, 0
3, 81888, Note_on_c, 2, 57, 45
3, 81888, Note_on_c, 2, 65, 45
3, 81982, Note_on_c, 2, 65, 0
3, 81982, Note_on_c, 2, 57, 0
3, 81984, Note_on_c, 2, 57, 45
3, 81984, Note_on_c, 2, 65, 45
3, 82078, Note_on_c, 2, 65, 0
3, 82078, Note_on_c, 2, 57, 0
3, 82080, Note_on_c, 2, 57, 45
3, 82080, Note_on_c, 2, 65, 45
3, 82174, Note_on_c, 2, 65, 0
3, 82174, Note_on_c, 2, 57, 0
3, 82176, Note_on_c, 2, 57, 45
3, 82176, Note_on_c, 2, 65, 45
3, 82270, Note_on_c, 2, 65, 0
3, 82270, Note_on_c, 2, 57, 0
3, 82272, Note_on_c, 2, 57, 45
3, 82272, Note_on_c, 2, 65, 45
3, 82366, Note_on_c, 2, 65, 0
3, 82366, Note_on_c, 2, 57, 0
3, 82368, Note_on_c, 2, 57, 45
3, 82368, Note_on_c, 2, 65, 45
3, 82462, Note_on_c, 2, 65, 0
3, 82462, Note_on_c, 2, 57, 0
3, 82464, Note_on_c, 2, 57, 45
3, 82464, Note_on_c, 2, 65, 45
3, 82558, Note_on_c, 2, 65, 0
3, 82558, Note_on_c, 2, 57, 0
3, 82560, Note_on_c, 2, 57, 45
3, 82560, Note_on_c, 2, 65, 45
3, 82654, Note_on_c, 2, 65, 0
3, 82654, Note_on_c, 2, 57, 0
3, 82656, Note_on_c, 2, 57, 45
3, 82656, Note_on_c, 2, 65, 45
3, 82750, Note_on_c, 2, 65, 0
3, 82750, Note_on_c, 2, 57, 0
3, 82752, Note_on_c, 2, 57, 45
3, 82752, Note_on_c, 2, 65, 45
3, 82846, Note_on_c, 2, 65, 0
3, 82846, Note_on_c, 2, 57, 0
3, 82848, Note_on_c, 2, 57, 45
3, 82848, Note_on_c, 2, 65, 45
3, 82942, Note_on_c, 2, 65, 0
3, 82942, Note_on_c, 2, 57, 0
3, 82944, Note_on_c, 2, 55, 45
3, 82944, Note_on_c, 2, 64, 45
3, 83038, Note_on_c, 2, 64, 0
3, 83038, Note_on_c, 2, 55, 0
3, 83040, Note_on_c, 2, 55, 45
3, 83040, Note_on_c, 2, 64, 45
3, 83134, Note_on_c, 2, 64, 0
3, 83134, Note_on_c, 2, 55, 0
3, 83136, Note_on_c, 2, 55, 45
3, 83136, Note_on_c, 2, 64, 45
3, 83230, Note_on_c, 2, 64, 0
3, 83230, Note_on_c, 2, 55, 0
3, 83232, Note_on_c, 2, 55, 45
3, 83232, Note_on_c, 2, 64, 45
3, 83326, Note_on_c, 2, 64, 0
3, 83326, Note_on_c, 2, 55, 0
3, 83328, Note_on_c, 2, 55, 45
3, 83328, Note_on_c, 2, 64, 45
3, 83422, Note_on_c, 2, 64, 0
3, 83422, Note_on_c, 2, 55, 0
3, 83424, Note_on_c, 2, 55, 45
3, 83424, Note_on_c, 2, 64, 45
3, 83518, Note_on_c, 2, 64, 0
3, 83518, Note_on_c, 2, 55, 0
3, 83520, Note_on_c, 2, 55, 45
3, 83614, Note_on_c, 2, 55, 0
3, 83616, Note_on_c, 2, 55, 45
3, 83616, Note_on_c, 2, 64, 45
3, 83710, Note_on_c, 2, 64, 0
3, 83710, Note_on_c, 2, 55, 0
3, 83712, Note_on_c, 2, 55, 45
3, 83712, Note_on_c, 2, 64, 45
3, 83806, Note_on_c, 2, 64, 0
3, 83806, Note_on_c, 2, 55, 0
3, 83808, Note_on_c, 2, 55, 45
3, 83808, Note_on_c, 2, 64, 45
3, 83902, Note_on_c, 2, 64, 0
3, 83902, Note_on_c, 2, 55, 0
3, 83904, Note_on_c, 2, 55, 45
3, 83904, Note_on_c, 2, 64, 45
3, 83998, Note_on_c, 2, 64, 0
3, 83998, Note_on_c, 2, 55, 0
3, 84000, Note_on_c, 2, 55, 45
3, 84000, Note_on_c, 2, 64, 45
3, 84094, Note_on_c, 2, 64, 0
3, 84094, Note_on_c, 2, 55, 0
3, 84096, Note_on_c, 2, 57, 45
3, 84096, Note_on_c, 2, 65, 45
3, 84190, Note_on_c, 2, 65, 0
3, 84190, Note_on_c, 2, 57, 0
3, 84192, Note_on_c, 2, 57, 45
3, 84192, Note_on_c, 2, 65, 45
3, 84286, Note_on_c, 2, 65, 0
3, 84286, Note_on_c, 2, 57, 0
3, 84288, Note_on_c, 2, 57, 45
3, 84288, Note_on_c, 2, 65, 45
3, 84382, Note_on_c, 2, 65, 0
3, 84382, Note_on_c, 2, 57, 0
3, 84384, Note_on_c, 2, 57, 45
3, 84384, Note_on_c, 2, 65, 45
3, 84478, Note_on_c, 2, 65, 0
3, 84478, Note_on_c, 2, 57, 0
3, 84480, Note_on_c, 2, 57, 45
3, 84480, Note_on_c, 2, 65, 45
3, 84574, Note_on_c, 2, 65, 0
3, 84574, Note_on_c, 2, 57, 0
3, 84576, Note_on_c, 2, 57, 45
3, 84576, Note_on_c, 2, 65, 45
3, 84670, Note_on_c, 2, 65, 0
3, 84670, Note_on_c, 2, 57, 0
3, 84672, Note_on_c, 2, 57, 45
3, 84766, Note_on_c, 2, 57, 0
3, 84768, Note_on_c, 2, 57, 45
3, 84768, Note_on_c, 2, 65, 45
3, 84862, Note_on_c, 2, 65, 0
3, 84862, Note_on_c, 2, 57, 0
3, 84864, Note_on_c, 2, 57, 45
3, 84864, Note_on_c, 2, 65, 45
3, 84958, Note_on_c, 2, 65, 0
3, 84958, Note_on_c, 2, 57, 0
3, 84960, Note_on_c, 2, 57, 45
3, 84960, Note_on_c, 2, 65, 45
3, 85054, Note_on_c, 2, 65, 0
3, 85054, Note_on_c, 2, 57, 0
3, 85056, Note_on_c, 2, 57, 45
3, 85056, Note_on_c, 2, 65, 45
3, 85150, Note_on_c, 2, 65, 0
3, 85150, Note_on_c, 2, 57, 0
3, 85152, Note_on_c, 2, 57, 45
3, 85152, Note_on_c, 2, 65, 45
3, 85246, Note_on_c, 2, 65, 0
3, 85246, Note_on_c, 2, 57, 0
3, 85248, Note_on_c, 2, 58, 45
3, 85248, Note_on_c, 2, 67, 45
3, 85342, Note_on_c, 2, 67, 0
3, 85342, Note_on_c, 2, 58, 0
3, 85344, Note_on_c, 2, 58, 45
3, 85344, Note_on_c, 2, 67, 45
3, 85438, Note_on_c, 2, 67, 0
3, 85438, Note_on_c, 2, 58, 0
3, 85440, Note_on_c, 2, 58, 45
3, 85440, Note_on_c, 2, 67, 45
3, 85534, Note_on_c, 2, 67, 0
3, 85534, Note_on_c, 2, 58, 0
3, 85536, Note_on_c, 2, 58, 45
3, 85536, Note_on_c, 2, 67, 45
3, 85630, Note_on_c, 2, 67, 0
3, 85630, Note_on_c, 2, 58, 0
3, 85632, Note_on_c, 2, 58, 45
3, 85632, Note_on_c, 2, 67, 45
3, 85726, Note_on_c, 2, 67, 0
3, 85726, Note_on_c, 2, 58, 0
3, 85728, Note_on_c, 2, 58, 45
3, 85728, Note_on_c, 2, 67, 45
3, 85822, Note_on_c, 2, 67, 0
3, 85822, Note_on_c, 2, 58, 0
3, 85824, Note_on_c, 2, 58, 45
3, 85824, Note_on_c, 2, 67, 45
3, 85918, Note_on_c, 2, 67, 0
3, 85918, Note_on_c, 2, 58, 0
3, 85920, Note_on_c, 2, 58, 45
3, 85920, Note_on_c, 2, 67, 45
3, 86014, Note_on_c, 2, 67, 0
3, 86014, Note_on_c, 2, 58, 0
3, 86016, Note_on_c, 2, 58, 45
3, 86016, Note_on_c, 2, 67, 45
3, 86110, Note_on_c, 2, 67, 0
3, 86110, Note_on_c, 2, 58, 0
3, 86112, Note_on_c, 2, 58, 45
3, 86112, Note_on_c, 2, 67, 45
3, 86206, Note_on_c, 2, 67, 0
3, 86206, Note_on_c, 2, 58, 0
3, 86208, Note_on_c, 2, 58, 45
3, 86208, Note_on_c, 2, 67, 45
3, 86302, Note_on_c, 2, 67, 0
3, 86302, Note_on_c, 2, 58, 0
3, 86304, Note_on_c, 2, 58, 45
3, 86304, Note_on_c, 2, 67, 45
3, 86398, Note_on_c, 2, 67, 0
3, 86398, Note_on_c, 2, 58, 0
3, 86400, Note_on_c, 2, 57, 45
3, 86400, Note_on_c, 2, 67, 45
3, 86494, Note_on_c, 2, 67, 0
3, 86494, Note_on_c, 2, 57, 0
3, 86496, Note_on_c, 2, 57, 45
3, 86496, Note_on_c, 2, 67, 45
3, 86590, Note_on_c, 2, 67, 0
3, 86590, Note_on_c, 2, 57, 0
3, 86592, Note_on_c, 2, 57, 45
3, 86592, Note_on_c, 2, 67, 45
3, 86686, Note_on_c, 2, 67, 0
3, 86686, Note_on_c, 2, 57, 0
3, 86688, Note_on_c, 2, 57, 45
3, 86688, Note_on_c, 2, 67, 45
3, 86782, Note_on_c, 2, 67, 0
3, 86782, Note_on_c, 2, 57, 0
3, 86784, Note_on_c, 2, 57, 45
3, 86784, Note_on_c, 2, 67, 45
3, 86878, Note_on_c, 2, 67, 0
3, 86878, Note_on_c, 2, 57, 0
3, 86880, Note_on_c, 2, 57, 45
3, 86880, Note_on_c, 2, 67, 45
3, 86974, Note_on_c, 2, 67, 0
3, 86974, Note_on_c, 2, 57, 0
3, 86976, Note_on_c, 2, 57, 45
3, 86976, Note_on_c, 2, 65, 45
3, 87070, Note_on_c, 2, 65, 0
3, 87070, Note_on_c, 2, 57, 0
3, 87072, Note_on_c, 2, 57, 45
3, 87072, Note_on_c, 2, 65, 45
3, 87166, Note_on_c, 2, 65, 0
3, 87166, Note_on_c, 2, 57, 0
3, 87168, Note_on_c, 2, 57, 45
3, 87168, Note_on_c, 2, 65, 45
3, 87262, Note_on_c, 2, 65, 0
3, 87262, Note_on_c, 2, 57, 0
3, 87264, Note_on_c, 2, 57, 45
3, 87264, Note_on_c, 2, 65, 45
3, 87358, Note_on_c, 2, 65, 0
3, 87358, Note_on_c, 2, 57, 0
3, 87360, Note_on_c, 2, 57, 45
3, 87360, Note_on_c, 2, 65, 45
3, 87454, Note_on_c, 2, 65, 0
3, 87454, Note_on_c, 2, 57, 0
3, 87456, Note_on_c, 2, 57, 45
3, 87456, Note_on_c, 2, 65, 45
3, 87550, Note_on_c, 2, 65, 0
3, 87550, Note_on_c, 2, 57, 0
3, 87552, Note_on_c, 2, 55, 45
3, 87552, Note_on_c, 2, 65, 45
3, 87646, Note_on_c, 2, 65, 0
3, 87646, Note_on_c, 2, 55, 0
3, 87648, Note_on_c, 2, 55, 45
3, 87648, Note_on_c, 2, 65, 45
3, 87742, Note_on_c, 2, 65, 0
3, 87742, Note_on_c, 2, 55, 0
3, 87744, Note_on_c, 2, 55, 45
3, 87744, Note_on_c, 2, 65, 45
3, 87838, Note_on_c, 2, 65, 0
3, 87838, Note_on_c, 2, 55, 0
3, 87840, Note_on_c, 2, 55, 45
3, 87840, Note_on_c, 2, 65, 45
3, 87934, Note_on_c, 2, 65, 0
3, 87934, Note_on_c, 2, 55, 0
3, 87936, Note_on_c, 2, 55, 45
3, 87936, Note_on_c, 2, 65, 45
3, 88030, Note_on_c, 2, 65, 0
3, 88030, Note_on_c, 2, 55, 0
3, 88032, Note_on_c, 2, 55, 45
3, 88032, Note_on_c, 2, 65, 45
3, 88126, Note_on_c, 2, 65, 0
3, 88126, Note_on_c, 2, 55, 0
3, 88128, Note_on_c, 2, 55, 45
3, 88128, Note_on_c, 2, 63, 45
3, 88222, Note_on_c, 2, 63, 0
3, 88222, Note_on_c, 2, 55, 0
3, 88224, Note_on_c, 2, 55, 45
3, 88224, Note_on_c, 2, 63, 45
3, 88318, Note_on_c, 2, 63, 0
3, 88318, Note_on_c, 2, 55, 0
3, 88320, Note_on_c, 2, 55, 45
3, 88320, Note_on_c, 2, 63, 45
3, 88414, Note_on_c, 2, 63, 0
3, 88414, Note_on_c, 2, 55, 0
3, 88416, Note_on_c, 2, 55, 45
3, 88416, Note_on_c, 2, 63, 45
3, 88510, Note_on_c, 2, 63, 0
3, 88510, Note_on_c, 2, 55, 0
3, 88512, Note_on_c, 2, 55, 45
3, 88512, Note_on_c, 2, 63, 45
3, 88606, Note_on_c, 2, 63, 0
3, 88606, Note_on_c, 2, 55, 0
3, 88608, Note_on_c, 2, 55, 45
3, 88608, Note_on_c, 2, 63, 45
3, 88702, Note_on_c, 2, 63, 0
3, 88702, Note_on_c, 2, 55, 0
3, 88704, Note_on_c, 2, 60, 30
3, 88704, Note_on_c, 2, 63, 30
3, 89440, Note_on_c, 2, 63, 0
3, 89440, Note_on_c, 2, 60, 0
3, 89472, Note_on_c, 2, 60, 30
3, 89632, Note_on_c, 2, 60, 0
3, 89664, Note_on_c, 2, 60, 30
3, 89824, Note_on_c, 2, 60, 0
3, 89856, Note_on_c, 2, 61, 30
3, 90592, Note_on_c, 2, 61, 0
3, 90624, Note_on_c, 2, 61, 30
3, 90784, Note_on_c, 2, 61, 0
3, 90816, Note_on_c, 2, 61, 30
3, 90976, Note_on_c, 2, 61, 0
3, 91008, Note_on_c, 2, 63, 30
3, 91744, Note_on_c, 2, 63, 0
3, 91776, Note_on_c, 2, 66, 30
3, 91824, Note_on_c, 2, 66, 0
3, 91968, Note_on_c, 2, 66, 42
3, 92016, Note_on_c, 2, 66, 0
3, 92160, Note_on_c, 2, 68, 75
3, 92688, Note_on_c, 2, 68, 0
3, 92736, Note_on_c, 2, 67, 92
3, 92784, Note_on_c, 2, 67, 0
3, 92928, Note_on_c, 2, 68, 92
3, 92976, Note_on_c, 2, 68, 0
3, 93120, Note_on_c, 2, 69, 92
3, 93168, Note_on_c, 2, 69, 0
3, 93312, Note_on_c, 2, 67, 92
3, 93472, Note_on_c, 2, 67, 0
3, 93600, Note_on_c, 2, 62, 45
3, 93632, Note_on_c, 2, 62, 0
3, 93696, Note_on_c, 2, 62, 45
3, 93728, Note_on_c, 2, 62, 0
3, 93792, Note_on_c, 2, 63, 45
3, 93824, Note_on_c, 2, 63, 0
3, 93888, Note_on_c, 2, 62, 45
3, 94048, Note_on_c, 2, 62, 0
3, 94176, Note_on_c, 2, 74, 45
3, 94208, Note_on_c, 2, 74, 0
3, 94272, Note_on_c, 2, 74, 45
3, 94304, Note_on_c, 2, 74, 0
3, 94368, Note_on_c, 2, 75, 45
3, 94400, Note_on_c, 2, 75, 0
3, 94464, Note_on_c, 2, 74, 45
3, 94624, Note_on_c, 2, 74, 0
3, 94752, Note_on_c, 2, 62, 45
3, 94784, Note_on_c, 2, 62, 0
3, 94848, Note_on_c, 2, 62, 49
3, 94880, Note_on_c, 2, 62, 0
3, 94944, Note_on_c, 2, 63, 53
3, 94976, Note_on_c, 2, 63, 0
3, 95040, Note_on_c, 2, 62, 57
3, 95200, Note_on_c, 2, 62, 0
3, 95328, Note_on_c, 2, 74, 69
3, 95360, Note_on_c, 2, 74, 0
3, 95424, Note_on_c, 2, 74, 73
3, 95456, Note_on_c, 2, 74, 0
3, 95520, Note_on_c, 2, 75, 77
3, 95552, Note_on_c, 2, 75, 0
3, 95616, Note_on_c, 2, 74, 81
3, 95776, Note_on_c, 2, 74, 0
3, 95904, Note_on_c, 2, 74, 94
3, 95936, Note_on_c, 2, 74, 0
3, 96000, Note_on_c, 2, 74, 98
3, 96032, Note_on_c, 2, 74, 0
3, 96096, Note_on_c, 2, 75, 103
3, 96128, Note_on_c, 2, 75, 0
3, 96192, Note_on_c, 2, 74, 108
3, 96238, Note_on_c, 2, 74, 0
3, 96240, Note_on_c, 2, 55, 127
3, 96286, Note_on_c, 2, 55, 0
3, 96288, Note_on_c, 2, 57, 127
3, 96334, Note_on_c, 2, 57, 0
3, 96336, Note_on_c, 2, 59, 127
3, 96382, Note_on_c, 2, 59, 0
3, 96384, Note_on_c, 2, 60, 127
3, 96430, Note_on_c, 2, 60, 0
3, 96432, Note_on_c, 2, 62, 127
3, 96478, Note_on_c, 2, 62, 0
3, 96480, Note_on_c, 2, 64, 127
3, 96526, Note_on_c, 2, 64, 0
3, 96528, Note_on_c, 2, 66, 127
3, 96574, Note_on_c, 2, 66, 0
3, 96576, Note_on_c, 2, 67, 127
3, 96622, Note_on_c, 2, 67, 0
3, 96624, Note_on_c, 2, 66, 127
3, 96670, Note_on_c, 2, 66, 0
3, 96672, Note_on_c, 2, 67, 127
3, 96718, Note_on_c, 2, 67, 0
3, 96720, Note_on_c, 2, 66, 127
3, 96766, Note_on_c, 2, 66, 0
3, 96768, Note_on_c, 2, 67, 127
3, 96928, Note_on_c, 2, 67, 0
3, 98880, Note_on_c, 2, 67, 45
3, 98912, Note_on_c, 2, 67, 0
3, 98976, Note_on_c, 2, 67, 45
3, 99166, Note_on_c, 2, 67, 0
3, 99168, Note_on_c, 2, 67, 45
3, 99264, Note_on_c, 2, 67, 0
3, 99264, Note_on_c, 2, 71, 45
3, 99358, Note_on_c, 2, 71, 0
3, 99360, Note_on_c, 2, 71, 45
3, 99456, Note_on_c, 2, 71, 0
3, 99456, Note_on_c, 2, 72, 45
3, 99550, Note_on_c, 2, 72, 0
3, 99552, Note_on_c, 2, 72, 45
3, 99648, Note_on_c, 2, 72, 0
3, 99648, Note_on_c, 2, 76, 45
3, 99840, Note_on_c, 2, 76, 0
3, 99840, Note_on_c, 2, 74, 45
3, 100000, Note_on_c, 2, 74, 0
3, 101184, Note_on_c, 2, 71, 45
3, 101376, Note_on_c, 2, 71, 0
3, 101376, Note_on_c, 2, 76, 45
3, 101568, Note_on_c, 2, 76, 0
3, 101568, Note_on_c, 2, 64, 45
3, 101760, Note_on_c, 2, 64, 0
3, 101760, Note_on_c, 2, 72, 45
3, 102144, Note_on_c, 2, 72, 0
3, 102144, Note_on_c, 2, 71, 45
3, 102238, Note_on_c, 2, 71, 0
3, 103488, Note_on_c, 2, 62, 45
3, 103520, Note_on_c, 2, 62, 0
3, 103584, Note_on_c, 2, 62, 45
3, 103680, Note_on_c, 2, 62, 0
3, 103680, Note_on_c, 2, 64, 45
3, 103774, Note_on_c, 2, 64, 0
3, 103776, Note_on_c, 2, 72, 45
3, 103872, Note_on_c, 2, 72, 0
3, 103872, Note_on_c, 2, 71, 45
3, 103966, Note_on_c, 2, 71, 0
3, 103968, Note_on_c, 2, 71, 45
3, 104064, Note_on_c, 2, 71, 0
3, 104064, Note_on_c, 2, 67, 45
3, 104158, Note_on_c, 2, 67, 0
3, 104160, Note_on_c, 2, 67, 45
3, 104254, Note_on_c, 2, 67, 0
3, 104256, Note_on_c, 2, 68, 45
3, 104512, Note_on_c, 2, 68, 0
3, 104640, Note_on_c, 2, 67, 45
3, 104672, Note_on_c, 2, 67, 0
3, 104736, Note_on_c, 2, 67, 45
3, 104832, Note_on_c, 2, 67, 0
3, 104832, Note_on_c, 2, 68, 45
3, 104926, Note_on_c, 2, 68, 0
3, 104928, Note_on_c, 2, 68, 45
3, 105024, Note_on_c, 2, 68, 0
3, 105024, Note_on_c, 2, 65, 45
3, 105118, Note_on_c, 2, 65, 0
3, 105120, Note_on_c, 2, 65, 45
3, 105216, Note_on_c, 2, 65, 0
3, 105216, Note_on_c, 2, 62, 45
3, 105310, Note_on_c, 2, 62, 0
3, 105312, Note_on_c, 2, 62, 45
3, 105408, Note_on_c, 2, 62, 0
3, 105408, Note_on_c, 2, 59, 45
3, 105502, Note_on_c, 2, 59, 0
3, 105504, Note_on_c, 2, 59, 45
3, 105600, Note_on_c, 2, 59, 0
3, 105600, Note_on_c, 2, 60, 49
3, 105694, Note_on_c, 2, 60, 0
3, 105696, Note_on_c, 2, 75, 53
3, 105856, Note_on_c, 2, 75, 0
3, 105888, Note_on_c, 2, 75, 61
3, 105982, Note_on_c, 2, 75, 0
3, 105984, Note_on_c, 2, 75, 65
3, 106368, Note_on_c, 2, 75, 0
3, 106368, Note_on_c, 2, 77, 83
3, 106512, Note_on_c, 2, 77, 0
3, 106512, Note_on_c, 2, 74, 89
3, 106558, Note_on_c, 2, 74, 0
3, 106560, Note_on_c, 2, 72, 45
3, 106654, Note_on_c, 2, 72, 0
3, 106656, Note_on_c, 2, 55, 45
3, 106656, Note_on_c, 2, 64, 45
3, 106750, Note_on_c, 2, 64, 0
3, 106750, Note_on_c, 2, 55, 0
3, 106752, Note_on_c, 2, 55, 45
3, 106752, Note_on_c, 2, 64, 45
3, 106846, Note_on_c, 2, 64, 0
3, 106846, Note_on_c, 2, 55, 0
3, 106848, Note_on_c, 2, 55, 45
3, 106848, Note_on_c, 2, 64, 45
3, 106942, Note_on_c, 2, 64, 0
3, 106942, Note_on_c, 2, 55, 0
3, 106944, Note_on_c, 2, 55, 45
3, 106944, Note_on_c, 2, 64, 45
3, 107038, Note_on_c, 2, 64, 0
3, 107038, Note_on_c, 2, 55, 0
3, 107040, Note_on_c, 2, 55, 45
3, 107040, Note_on_c, 2, 64, 45
3, 107134, Note_on_c, 2, 64, 0
3, 107134, Note_on_c, 2, 55, 0
3, 107136, Note_on_c, 2, 55, 45
3, 107136, Note_on_c, 2, 64, 45
3, 107230, Note_on_c, 2, 64, 0
3, 107230, Note_on_c, 2, 55, 0
3, 107232, Note_on_c, 2, 55, 45
3, 107232, Note_on_c, 2, 64, 45
3, 107326, Note_on_c, 2, 64, 0
3, 107326, Note_on_c, 2, 55, 0
3, 107328, Note_on_c, 2, 55, 45
3, 107328, Note_on_c, 2, 64, 45
3, 107422, Note_on_c, 2, 64, 0
3, 107422, Note_on_c, 2, 55, 0
3, 107424, Note_on_c, 2, 55, 45
3, 107424, Note_on_c, 2, 64, 45
3, 107518, Note_on_c, 2, 64, 0
3, 107518, Note_on_c, 2, 55, 0
3, 107520, Note_on_c, 2, 55, 45
3, 107520, Note_on_c, 2, 64, 45
3, 107614, Note_on_c, 2, 64, 0
3, 107614, Note_on_c, 2, 55, 0
3, 107616, Note_on_c, 2, 55, 45
3, 107616, Note_on_c, 2, 64, 45
3, 107710, Note_on_c, 2, 64, 0
3, 107710, Note_on_c, 2, 55, 0
3, 107712, Note_on_c, 2, 55, 45
3, 107712, Note_on_c, 2, 65, 45
3, 107806, Note_on_c, 2, 65, 0
3, 107806, Note_on_c, 2, 55, 0
3, 107808, Note_on_c, 2, 55, 45
3, 107808, Note_on_c, 2, 65, 45
3, 107902, Note_on_c, 2, 65, 0
3, 107902, Note_on_c, 2, 55, 0
3, 107904, Note_on_c, 2, 55, 45
3, 107904, Note_on_c, 2, 65, 45
3, 107998, Note_on_c, 2, 65, 0
3, 107998, Note_on_c, 2, 55, 0
3, 108000, Note_on_c, 2, 55, 45
3, 108000, Note_on_c, 2, 65, 45
3, 108094, Note_on_c, 2, 65, 0
3, 108094, Note_on_c, 2, 55, 0
3, 108096, Note_on_c, 2, 55, 45
3, 108096, Note_on_c, 2, 65, 45
3, 108190, Note_on_c, 2, 65, 0
3, 108190, Note_on_c, 2, 55, 0
3, 108192, Note_on_c, 2, 55, 45
3, 108192, Note_on_c, 2, 65, 45
3, 108286, Note_on_c, 2, 65, 0
3, 108286, Note_on_c, 2, 55, 0
3, 108288, Note_on_c, 2, 59, 45
3, 108382, Note_on_c, 2, 59, 0
3, 108384, Note_on_c, 2, 59, 45
3, 108478, Note_on_c, 2, 59, 0
3, 108480, Note_on_c, 2, 59, 45
3, 108574, Note_on_c, 2, 59, 0
3, 108576, Note_on_c, 2, 59, 45
3, 108670, Note_on_c, 2, 59, 0
3, 108672, Note_on_c, 2, 59, 45
3, 108766, Note_on_c, 2, 59, 0
3, 108768, Note_on_c, 2, 59, 45
3, 108862, Note_on_c, 2, 59, 0
3, 108864, Note_on_c, 2, 58, 45
3, 108958, Note_on_c, 2, 58, 0
3, 108960, Note_on_c, 2, 58, 52
3, 109054, Note_on_c, 2, 58, 0
3, 109056, Note_on_c, 2, 58, 60
3, 109150, Note_on_c, 2, 58, 0
3, 109152, Note_on_c, 2, 58, 68
3, 109246, Note_on_c, 2, 58, 0
3, 109248, Note_on_c, 2, 58, 76
3, 109342, Note_on_c, 2, 58, 0
3, 109344, Note_on_c, 2, 58, 84
3, 109438, Note_on_c, 2, 58, 0
3, 109440, Note_on_c, 2, 55, 92
3, 109440, Note_on_c, 2, 67, 92
3, 109534, Note_on_c, 2, 67, 0
3, 109534, Note_on_c, 2, 55, 0
3, 109536, Note_on_c, 2, 55, 92
3, 109536, Note_on_c, 2, 67, 92
3, 109630, Note_on_c, 2, 67, 0
3, 109630, Note_on_c, 2, 55, 0
3, 109632, Note_on_c, 2, 55, 92
3, 109632, Note_on_c, 2, 67, 92
3, 109726, Note_on_c, 2, 67, 0
3, 109726, Note_on_c, 2, 55, 0
3, 109728, Note_on_c, 2, 55, 92
3, 109728, Note_on_c, 2, 67, 92
3, 109822, Note_on_c, 2, 67, 0
3, 109822, Note_on_c, 2, 55, 0
3, 109824, Note_on_c, 2, 55, 92
3, 109824, Note_on_c, 2, 67, 92
3, 109918, Note_on_c, 2, 67, 0
3, 109918, Note_on_c, 2, 55, 0
3, 109920, Note_on_c, 2, 55, 92
3, 109920, Note_on_c, 2, 67, 92
3, 110014, Note_on_c, 2, 67, 0
3, 110014, Note_on_c, 2, 55, 0
3, 110016, Note_on_c, 2, 57, 92
3, 110064, Note_on_c, 2, 57, 0
3, 110208, Note_on_c, 2, 65, 45
3, 110208, Note_on_c, 2, 69, 45
3, 110256, Note_on_c, 2, 69, 0
3, 110256, Note_on_c, 2, 65, 0
3, 111600, Note_on_c, 2, 57, 60
3, 111646, Note_on_c, 2, 57, 0
3, 111648, Note_on_c, 2, 59, 63
3, 111694, Note_on_c, 2, 59, 0
3, 111696, Note_on_c, 2, 61, 66
3, 111742, Note_on_c, 2, 61, 0
3, 111744, Note_on_c, 2, 62, 69
3, 111790, Note_on_c, 2, 62, 0
3, 111792, Note_on_c, 2, 64, 72
3, 111838, Note_on_c, 2, 64, 0
3, 111840, Note_on_c, 2, 65, 75
3, 111886, Note_on_c, 2, 65, 0
3, 111888, Note_on_c, 2, 67, 78
3, 111934, Note_on_c, 2, 67, 0
3, 111936, Note_on_c, 2, 69, 81
3, 111982, Note_on_c, 2, 69, 0
3, 111984, Note_on_c, 2, 67, 84
3, 112030, Note_on_c, 2, 67, 0
3, 112032, Note_on_c, 2, 65, 87
3, 112078, Note_on_c, 2, 65, 0
3, 112080, Note_on_c, 2, 64, 90
3, 112126, Note_on_c, 2, 64, 0
3, 112128, Note_on_c, 2, 62, 93
3, 112174, Note_on_c, 2, 62, 0
3, 112176, Note_on_c, 2, 60, 96
3, 112222, Note_on_c, 2, 60, 0
3, 112224, Note_on_c, 2, 59, 100
3, 112270, Note_on_c, 2, 59, 0
3, 112272, Note_on_c, 2, 57, 104
3, 112318, Note_on_c, 2, 57, 0
3, 112320, Note_on_c, 2, 55, 108
3, 112576, Note_on_c, 2, 55, 0
3, 112608, Note_on_c, 2, 57, 108
3, 112656, Note_on_c, 2, 57, 0
3, 112656, Note_on_c, 2, 59, 108
3, 112704, Note_on_c, 2, 59, 0
3, 112704, Note_on_c, 2, 60, 108
3, 112752, Note_on_c, 2, 60, 0
3, 112752, Note_on_c, 2, 62, 108
3, 112800, Note_on_c, 2, 62, 0
3, 112800, Note_on_c, 2, 64, 108
3, 112848, Note_on_c, 2, 64, 0
3, 112848, Note_on_c, 2, 66, 108
3, 112894, Note_on_c, 2, 66, 0
3, 112896, Note_on_c, 2, 67, 108
3, 112990, Note_on_c, 2, 67, 0
3, 112992, Note_on_c, 2, 71, 92
3, 113086, Note_on_c, 2, 71, 0
3, 113088, Note_on_c, 2, 71, 92
3, 113182, Note_on_c, 2, 71, 0
3, 113184, Note_on_c, 2, 71, 92
3, 113278, Note_on_c, 2, 71, 0
3, 113280, Note_on_c, 2, 71, 92
3, 113374, Note_on_c, 2, 71, 0
3, 113376, Note_on_c, 2, 71, 92
3, 113470, Note_on_c, 2, 71, 0
3, 113664, Note_on_c, 2, 55, 45
3, 113920, Note_on_c, 2, 55, 0
3, 113952, Note_on_c, 2, 55, 45
3, 114046, Note_on_c, 2, 55, 0
3, 114048, Note_on_c, 2, 55, 45
3, 114144, Note_on_c, 2, 55, 0
3, 114144, Note_on_c, 2, 62, 45
3, 114238, Note_on_c, 2, 62, 0
3, 114240, Note_on_c, 2, 62, 45
3, 114336, Note_on_c, 2, 62, 0
3, 114336, Note_on_c, 2, 60, 60
3, 114430, Note_on_c, 2, 60, 0
3, 114432, Note_on_c, 2, 60, 60
3, 114526, Note_on_c, 2, 60, 0
3, 114528, Note_on_c, 2, 60, 45
3, 114622, Note_on_c, 2, 60, 0
3, 114624, Note_on_c, 2, 60, 45
3, 114718, Note_on_c, 2, 60, 0
3, 114720, Note_on_c, 2, 60, 45
3, 114814, Note_on_c, 2, 60, 0
3, 114816, Note_on_c, 2, 60, 45
3, 114912, Note_on_c, 2, 60, 0
3, 114912, Note_on_c, 2, 67, 45
3, 115006, Note_on_c, 2, 67, 0
3, 115008, Note_on_c, 2, 67, 45
3, 115104, Note_on_c, 2, 67, 0
3, 115104, Note_on_c, 2, 65, 45
3, 115198, Note_on_c, 2, 65, 0
3, 115200, Note_on_c, 2, 65, 45
3, 115296, Note_on_c, 2, 65, 0
3, 115296, Note_on_c, 2, 62, 45
3, 115390, Note_on_c, 2, 62, 0
3, 115392, Note_on_c, 2, 62, 45
3, 115552, Note_on_c, 2, 62, 0
3, 116352, Note_on_c, 2, 72, 45
3, 116880, Note_on_c, 2, 72, 0
3, 116928, Note_on_c, 2, 72, 92
3, 117504, Note_on_c, 2, 72, 0
3, 117504, Note_on_c, 2, 72, 45
3, 117696, Note_on_c, 2, 72, 0
3, 117696, Note_on_c, 2, 72, 45
3, 117744, Note_on_c, 2, 72, 0
3, 117888, Note_on_c, 2, 65, 45
3, 117936, Note_on_c, 2, 65, 0
3, 118080, Note_on_c, 2, 64, 45
3, 118128, Note_on_c, 2, 64, 0
3, 118272, Note_on_c, 2, 67, 92
3, 118560, Note_on_c, 2, 67, 0
3, 118560, Note_on_c, 2, 65, 45
3, 118654, Note_on_c, 2, 65, 0
3, 118656, Note_on_c, 2, 65, 45
3, 118752, Note_on_c, 2, 65, 0
3, 118752, Note_on_c, 2, 62, 45
3, 118846, Note_on_c, 2, 62, 0
3, 118848, Note_on_c, 2, 62, 45
3, 118944, Note_on_c, 2, 62, 0
3, 118944, Note_on_c, 2, 64, 45
3, 119038, Note_on_c, 2, 64, 0
3, 119040, Note_on_c, 2, 64, 45
3, 119136, Note_on_c, 2, 64, 0
3, 119136, Note_on_c, 2, 72, 45
3, 119230, Note_on_c, 2, 72, 0
3, 119232, Note_on_c, 2, 72, 45
3, 119326, Note_on_c, 2, 72, 0
3, 119328, Note_on_c, 2, 72, 45
3, 119422, Note_on_c, 2, 72, 0
3, 119424, Note_on_c, 2, 72, 45
3, 119520, Note_on_c, 2, 72, 0
3, 119520, Note_on_c, 2, 79, 45
3, 119614, Note_on_c, 2, 79, 0
3, 119616, Note_on_c, 2, 79, 45
3, 119712, Note_on_c, 2, 79, 0
3, 119712, Note_on_c, 2, 77, 45
3, 119806, Note_on_c, 2, 77, 0
3, 119808, Note_on_c, 2, 77, 45
3, 119904, Note_on_c, 2, 77, 0
3, 119904, Note_on_c, 2, 74, 45
3, 119998, Note_on_c, 2, 74, 0
3, 120000, Note_on_c, 2, 74, 45
3, 120160, Note_on_c, 2, 74, 0
3, 120960, Note_on_c, 2, 55, 63
3, 121488, Note_on_c, 2, 55, 0
3, 122112, Note_on_c, 2, 57, 63
3, 122448, Note_on_c, 2, 57, 0
3, 122496, Note_on_c, 2, 57, 63
3, 122656, Note_on_c, 2, 57, 0
3, 122688, Note_on_c, 2, 57, 108
3, 122736, Note_on_c, 2, 57, 0
3, 122880, Note_on_c, 2, 62, 108
3, 122928, Note_on_c, 2, 62, 0
3, 123072, Note_on_c, 2, 59, 108
3, 123120, Note_on_c, 2, 59, 0
3, 123360, Note_on_c, 2, 55, 45
3, 123360, Note_on_c, 2, 64, 45
3, 123454, Note_on_c, 2, 64, 0
3, 123454, Note_on_c, 2, 55, 0
3, 123456, Note_on_c, 2, 55, 45
3, 123456, Note_on_c, 2, 64, 45
3, 123550, Note_on_c, 2, 64, 0
3, 123550, Note_on_c, 2, 55, 0
3, 123552, Note_on_c, 2, 55, 45
3, 123552, Note_on_c, 2, 64, 45
3, 123646, Note_on_c, 2, 64, 0
3, 123646, Note_on_c, 2, 55, 0
3, 123648, Note_on_c, 2, 55, 45
3, 123648, Note_on_c, 2, 64, 45
3, 123742, Note_on_c, 2, 64, 0
3, 123742, Note_on_c, 2, 55, 0
3, 123744, Note_on_c, 2, 55, 45
3, 123744, Note_on_c, 2, 64, 45
3, 123838, Note_on_c, 2, 64, 0
3, 123838, Note_on_c, 2, 55, 0
3, 123840, Note_on_c, 2, 55, 45
3, 123840, Note_on_c, 2, 64, 45
3, 123934, Note_on_c, 2, 64, 0
3, 123934, Note_on_c, 2, 55, 0
3, 123936, Note_on_c, 2, 55, 45
3, 123936, Note_on_c, 2, 64, 45
3, 124030, Note_on_c, 2, 64, 0
3, 124030, Note_on_c, 2, 55, 0
3, 124032, Note_on_c, 2, 55, 45
3, 124032, Note_on_c, 2, 64, 45
3, 124126, Note_on_c, 2, 64, 0
3, 124126, Note_on_c, 2, 55, 0
3, 124128, Note_on_c, 2, 55, 45
3, 124128, Note_on_c, 2, 64, 45
3, 124222, Note_on_c, 2, 64, 0
3, 124222, Note_on_c, 2, 55, 0
3, 124224, Note_on_c, 2, 55, 45
3, 124224, Note_on_c, 2, 64, 45
3, 124318, Note_on_c, 2, 64, 0
3, 124318, Note_on_c, 2, 55, 0
3, 124320, Note_on_c, 2, 55, 45
3, 124320, Note_on_c, 2, 64, 45
3, 124414, Note_on_c, 2, 64, 0
3, 124414, Note_on_c, 2, 55, 0
3, 124416, Note_on_c, 2, 55, 45
3, 124416, Note_on_c, 2, 65, 45
3, 124510, Note_on_c, 2, 65, 0
3, 124510, Note_on_c, 2, 55, 0
3, 124512, Note_on_c, 2, 55, 45
3, 124512, Note_on_c, 2, 65, 45
3, 124606, Note_on_c, 2, 65, 0
3, 124606, Note_on_c, 2, 55, 0
3, 124608, Note_on_c, 2, 55, 45
3, 124608, Note_on_c, 2, 65, 45
3, 124702, Note_on_c, 2, 65, 0
3, 124702, Note_on_c, 2, 55, 0
3, 124704, Note_on_c, 2, 55, 45
3, 124704, Note_on_c, 2, 65, 45
3, 124798, Note_on_c, 2, 65, 0
3, 124798, Note_on_c, 2, 55, 0
3, 124800, Note_on_c, 2, 55, 45
3, 124800, Note_on_c, 2, 65, 45
3, 124894, Note_on_c, 2, 65, 0
3, 124894, Note_on_c, 2, 55, 0
3, 124896, Note_on_c, 2, 55, 45
3, 124896, Note_on_c, 2, 65, 45
3, 124990, Note_on_c, 2, 65, 0
3, 124990, Note_on_c, 2, 55, 0
3, 124992, Note_on_c, 2, 55, 45
3, 124992, Note_on_c, 2, 65, 45
3, 125086, Note_on_c, 2, 65, 0
3, 125086, Note_on_c, 2, 55, 0
3, 125088, Note_on_c, 2, 55, 45
3, 125088, Note_on_c, 2, 65, 45
3, 125182, Note_on_c, 2, 65, 0
3, 125182, Note_on_c, 2, 55, 0
3, 125184, Note_on_c, 2, 55, 45
3, 125184, Note_on_c, 2, 65, 45
3, 125278, Note_on_c, 2, 65, 0
3, 125278, Note_on_c, 2, 55, 0
3, 125280, Note_on_c, 2, 55, 45
3, 125280, Note_on_c, 2, 65, 45
3, 125374, Note_on_c, 2, 65, 0
3, 125374, Note_on_c, 2, 55, 0
3, 125376, Note_on_c, 2, 55, 45
3, 125376, Note_on_c, 2, 65, 45
3, 125470, Note_on_c, 2, 65, 0
3, 125470, Note_on_c, 2, 55, 0
3, 125472, Note_on_c, 2, 55, 45
3, 125472, Note_on_c, 2, 65, 45
3, 125566, Note_on_c, 2, 65, 0
3, 125566, Note_on_c, 2, 55, 0
3, 125568, Note_on_c, 2, 55, 45
3, 125568, Note_on_c, 2, 64, 45
3, 125662, Note_on_c, 2, 64, 0
3, 125662, Note_on_c, 2, 55, 0
3, 125664, Note_on_c, 2, 55, 45
3, 125664, Note_on_c, 2, 64, 45
3, 125758, Note_on_c, 2, 64, 0
3, 125758, Note_on_c, 2, 55, 0
3, 125760, Note_on_c, 2, 55, 45
3, 125760, Note_on_c, 2, 64, 45
3, 125854, Note_on_c, 2, 64, 0
3, 125854, Note_on_c, 2, 55, 0
3, 125856, Note_on_c, 2, 55, 45
3, 125856, Note_on_c, 2, 64, 45
3, 125950, Note_on_c, 2, 64, 0
3, 125950, Note_on_c, 2, 55, 0
3, 125952, Note_on_c, 2, 55, 45
3, 125952, Note_on_c, 2, 64, 45
3, 126046, Note_on_c, 2, 64, 0
3, 126046, Note_on_c, 2, 55, 0
3, 126048, Note_on_c, 2, 55, 45
3, 126048, Note_on_c, 2, 64, 45
3, 126142, Note_on_c, 2, 64, 0
3, 126142, Note_on_c, 2, 55, 0
3, 126144, Note_on_c, 2, 55, 45
3, 126144, Note_on_c, 2, 64, 45
3, 126238, Note_on_c, 2, 64, 0
3, 126238, Note_on_c, 2, 55, 0
3, 126240, Note_on_c, 2, 55, 45
3, 126240, Note_on_c, 2, 64, 45
3, 126334, Note_on_c, 2, 64, 0
3, 126334, Note_on_c, 2, 55, 0
3, 126336, Note_on_c, 2, 55, 45
3, 126336, Note_on_c, 2, 64, 45
3, 126430, Note_on_c, 2, 64, 0
3, 126430, Note_on_c, 2, 55, 0
3, 126432, Note_on_c, 2, 55, 45
3, 126432, Note_on_c, 2, 64, 45
3, 126526, Note_on_c, 2, 64, 0
3, 126526, Note_on_c, 2, 55, 0
3, 126528, Note_on_c, 2, 55, 45
3, 126528, Note_on_c, 2, 64, 45
3, 126622, Note_on_c, 2, 64, 0
3, 126622, Note_on_c, 2, 55, 0
3, 126624, Note_on_c, 2, 55, 45
3, 126624, Note_on_c, 2, 64, 45
3, 126718, Note_on_c, 2, 64, 0
3, 126718, Note_on_c, 2, 55, 0
3, 126720, Note_on_c, 2, 55, 45
3, 126720, Note_on_c, 2, 65, 45
3, 126814, Note_on_c, 2, 65, 0
3, 126814, Note_on_c, 2, 55, 0
3, 126816, Note_on_c, 2, 55, 45
3, 126816, Note_on_c, 2, 65, 45
3, 126910, Note_on_c, 2, 65, 0
3, 126910, Note_on_c, 2, 55, 0
3, 126912, Note_on_c, 2, 55, 45
3, 126912, Note_on_c, 2, 65, 45
3, 127006, Note_on_c, 2, 65, 0
3, 127006, Note_on_c, 2, 55, 0
3, 127008, Note_on_c, 2, 55, 45
3, 127008, Note_on_c, 2, 65, 45
3, 127102, Note_on_c, 2, 65, 0
3, 127102, Note_on_c, 2, 55, 0
3, 127104, Note_on_c, 2, 55, 45
3, 127104, Note_on_c, 2, 65, 45
3, 127198, Note_on_c, 2, 65, 0
3, 127198, Note_on_c, 2, 55, 0
3, 127200, Note_on_c, 2, 55, 45
3, 127200, Note_on_c, 2, 65, 45
3, 127294, Note_on_c, 2, 65, 0
3, 127294, Note_on_c, 2, 55, 0
3, 127296, Note_on_c, 2, 55, 45
3, 127296, Note_on_c, 2, 65, 45
3, 127390, Note_on_c, 2, 65, 0
3, 127390, Note_on_c, 2, 55, 0
3, 127392, Note_on_c, 2, 55, 45
3, 127392, Note_on_c, 2, 65, 45
3, 127486, Note_on_c, 2, 65, 0
3, 127486, Note_on_c, 2, 55, 0
3, 127488, Note_on_c, 2, 55, 45
3, 127488, Note_on_c, 2, 65, 45
3, 127582, Note_on_c, 2, 65, 0
3, 127582, Note_on_c, 2, 55, 0
3, 127584, Note_on_c, 2, 55, 45
3, 127584, Note_on_c, 2, 65, 45
3, 127678, Note_on_c, 2, 65, 0
3, 127678, Note_on_c, 2, 55, 0
3, 127680, Note_on_c, 2, 55, 45
3, 127680, Note_on_c, 2, 65, 45
3, 127774, Note_on_c, 2, 65, 0
3, 127774, Note_on_c, 2, 55, 0
3, 127776, Note_on_c, 2, 55, 45
3, 127776, Note_on_c, 2, 65, 45
3, 127870, Note_on_c, 2, 65, 0
3, 127870, Note_on_c, 2, 55, 0
3, 127872, Note_on_c, 2, 55, 45
3, 127872, Note_on_c, 2, 64, 45
3, 127920, Note_on_c, 2, 64, 0
3, 127920, Note_on_c, 2, 55, 0
3, 128064, Note_on_c, 2, 72, 45
3, 128112, Note_on_c, 2, 72, 0
3, 130368, Note_on_c, 2, 55, 92
3, 130416, Note_on_c, 2, 55, 0
3, 130560, Note_on_c, 2, 55, 92
3, 130608, Note_on_c, 2, 55, 0
3, 130752, Note_on_c, 2, 55, 92
3, 130800, Note_on_c, 2, 55, 0
3, 131328, Note_on_c, 2, 69, 92
3, 131488, Note_on_c, 2, 69, 0
3, 134208, Note_on_c, 2, 58, 45
3, 134368, Note_on_c, 2, 58, 0
3, 134400, Note_on_c, 2, 58, 45
3, 134448, Note_on_c, 2, 58, 0
3, 134592, Note_on_c, 2, 58, 45
3, 134640, Note_on_c, 2, 58, 0
3, 134784, Note_on_c, 2, 58, 92
3, 135360, Note_on_c, 2, 58, 0
3, 135360, Note_on_c, 2, 58, 45
3, 135408, Note_on_c, 2, 58, 0
3, 135552, Note_on_c, 2, 58, 45
3, 135600, Note_on_c, 2, 58, 0
3, 135744, Note_on_c, 2, 58, 45
3, 135792, Note_on_c, 2, 58, 0
3, 135936, Note_on_c, 2, 70, 30
3, 136224, Note_on_c, 2, 70, 0
3, 136224, Note_on_c, 2, 72, 30
3, 136272, Note_on_c, 2, 72, 0
3, 136272, Note_on_c, 2, 70, 30
3, 136318, Note_on_c, 2, 70, 0
3, 136320, Note_on_c, 2, 69, 30
3, 136352, Note_on_c, 2, 69, 0
3, 136416, Note_on_c, 2, 70, 30
3, 136448, Note_on_c, 2, 70, 0
3, 136512, Note_on_c, 2, 72, 30
3, 136896, Note_on_c, 2, 72, 0
3, 136896, Note_on_c, 2, 63, 30
3, 137056, Note_on_c, 2, 63, 0
3, 137664, Note_on_c, 2, 74, 30
3, 137952, Note_on_c, 2, 74, 0
3, 137952, Note_on_c, 2, 76, 30
3, 138000, Note_on_c, 2, 76, 0
3, 138000, Note_on_c, 2, 74, 30
3, 138046, Note_on_c, 2, 74, 0
3, 138048, Note_on_c, 2, 73, 30
3, 138080, Note_on_c, 2, 73, 0
3, 138144, Note_on_c, 2, 74, 30
3, 138176, Note_on_c, 2, 74, 0
3, 138240, Note_on_c, 2, 76, 30
3, 138624, Note_on_c, 2, 76, 0
3, 138624, Note_on_c, 2, 67, 30
3, 138784, Note_on_c, 2, 67, 0
3, 140736, Note_on_c, 2, 70, 92
3, 141024, Note_on_c, 2, 70, 0
3, 141024, Note_on_c, 2, 72, 92
3, 141072, Note_on_c, 2, 72, 0
3, 141072, Note_on_c, 2, 70, 92
3, 141118, Note_on_c, 2, 70, 0
3, 141120, Note_on_c, 2, 69, 92
3, 141152, Note_on_c, 2, 69, 0
3, 141216, Note_on_c, 2, 70, 92
3, 141248, Note_on_c, 2, 70, 0
3, 141312, Note_on_c, 2, 79, 92
3, 141360, Note_on_c, 2, 79, 0
3, 141504, Note_on_c, 2, 77, 92
3, 141552, Note_on_c, 2, 77, 0
3, 141696, Note_on_c, 2, 76, 92
3, 141984, Note_on_c, 2, 76, 0
3, 141984, Note_on_c, 2, 79, 92
3, 142032, Note_on_c, 2, 79, 0
3, 142032, Note_on_c, 2, 77, 92
3, 142078, Note_on_c, 2, 77, 0
3, 142080, Note_on_c, 2, 76, 92
3, 142176, Note_on_c, 2, 76, 0
3, 142176, Note_on_c, 2, 74, 92
3, 142270, Note_on_c, 2, 74, 0
3, 142272, Note_on_c, 2, 76, 92
3, 142560, Note_on_c, 2, 76, 0
3, 142560, Note_on_c, 2, 79, 92
3, 142608, Note_on_c, 2, 79, 0
3, 142608, Note_on_c, 2, 77, 92
3, 142654, Note_on_c, 2, 77, 0
3, 142656, Note_on_c, 2, 76, 92
3, 142752, Note_on_c, 2, 76, 0
3, 142752, Note_on_c, 2, 74, 92
3, 142846, Note_on_c, 2, 74, 0
3, 142848, Note_on_c, 2, 75, 92
3, 143136, Note_on_c, 2, 75, 0
3, 143136, Note_on_c, 2, 77, 92
3, 143184, Note_on_c, 2, 77, 0
3, 143184, Note_on_c, 2, 75, 92
3, 143230, Note_on_c, 2, 75, 0
3, 143232, Note_on_c, 2, 74, 92
3, 143264, Note_on_c, 2, 74, 0
3, 143328, Note_on_c, 2, 75, 92
3, 143360, Note_on_c, 2, 75, 0
3, 143424, Note_on_c, 2, 66, 92
3, 143472, Note_on_c, 2, 66, 0
3, 143616, Note_on_c, 2, 67, 92
3, 143664, Note_on_c, 2, 67, 0
3, 143808, Note_on_c, 2, 68, 92
3, 143856, Note_on_c, 2, 68, 0
3, 144000, Note_on_c, 2, 69, 92
3, 144048, Note_on_c, 2, 69, 0
3, 144192, Note_on_c, 2, 70, 92
3, 144240, Note_on_c, 2, 70, 0
3, 144384, Note_on_c, 2, 71, 92
3, 144432, Note_on_c, 2, 71, 0
3, 144576, Note_on_c, 2, 72, 92
3, 144624, Note_on_c, 2, 72, 0
3, 144768, Note_on_c, 2, 81, 92
3, 144816, Note_on_c, 2, 81, 0
3, 144960, Note_on_c, 2, 79, 92
3, 145008, Note_on_c, 2, 79, 0
3, 145152, Note_on_c, 2, 78, 92
3, 145248, Note_on_c, 2, 78, 0
3, 145248, Note_on_c, 2, 81, 92
3, 145296, Note_on_c, 2, 81, 0
3, 145296, Note_on_c, 2, 79, 92
3, 145342, Note_on_c, 2, 79, 0
3, 145344, Note_on_c, 2, 78, 127
3, 145632, Note_on_c, 2, 78, 0
3, 145632, Note_on_c, 2, 79, 92
3, 145726, Note_on_c, 2, 79, 0
3, 145728, Note_on_c, 2, 78, 92
3, 145824, Note_on_c, 2, 78, 0
3, 145824, Note_on_c, 2, 81, 92
3, 145872, Note_on_c, 2, 81, 0
3, 145872, Note_on_c, 2, 79, 92
3, 145918, Note_on_c, 2, 79, 0
3, 145920, Note_on_c, 2, 78, 127
3, 146208, Note_on_c, 2, 78, 0
3, 146208, Note_on_c, 2, 79, 92
3, 146302, Note_on_c, 2, 79, 0
3, 147648, Note_on_c, 2, 68, 92
3, 147936, Note_on_c, 2, 68, 0
3, 147936, Note_on_c, 2, 70, 92
3, 147984, Note_on_c, 2, 70, 0
3, 147984, Note_on_c, 2, 68, 92
3, 148030, Note_on_c, 2, 68, 0
3, 148032, Note_on_c, 2, 67, 92
3, 148064, Note_on_c, 2, 67, 0
3, 148128, Note_on_c, 2, 68, 92
3, 148160, Note_on_c, 2, 68, 0
3, 148224, Note_on_c, 2, 74, 92
3, 148272, Note_on_c, 2, 74, 0
3, 148416, Note_on_c, 2, 72, 92
3, 148464, Note_on_c, 2, 72, 0
3, 148608, Note_on_c, 2, 71, 92
3, 148704, Note_on_c, 2, 71, 0
3, 148704, Note_on_c, 2, 74, 92
3, 148752, Note_on_c, 2, 74, 0
3, 148752, Note_on_c, 2, 72, 92
3, 148798, Note_on_c, 2, 72, 0
3, 148800, Note_on_c, 2, 71, 127
3, 149088, Note_on_c, 2, 71, 0
3, 149088, Note_on_c, 2, 72, 92
3, 149182, Note_on_c, 2, 72, 0
3, 149184, Note_on_c, 2, 71, 92
3, 149280, Note_on_c, 2, 71, 0
3, 149280, Note_on_c, 2, 74, 92
3, 149328, Note_on_c, 2, 74, 0
3, 149328, Note_on_c, 2, 72, 92
3, 149374, Note_on_c, 2, 72, 0
3, 149376, Note_on_c, 2, 71, 127
3, 149664, Note_on_c, 2, 71, 0
3, 149664, Note_on_c, 2, 72, 92
3, 149758, Note_on_c, 2, 72, 0
3, 149760, Note_on_c, 2, 73, 92
3, 149856, Note_on_c, 2, 73, 0
3, 149856, Note_on_c, 2, 70, 92
3, 149904, Note_on_c, 2, 70, 0
3, 149904, Note_on_c, 2, 72, 92
3, 149950, Note_on_c, 2, 72, 0
3, 149952, Note_on_c, 2, 73, 127
3, 150240, Note_on_c, 2, 73, 0
3, 150240, Note_on_c, 2, 72, 92
3, 150334, Note_on_c, 2, 72, 0
3, 150336, Note_on_c, 2, 73, 92
3, 150432, Note_on_c, 2, 73, 0
3, 150432, Note_on_c, 2, 70, 92
3, 150480, Note_on_c, 2, 70, 0
3, 150480, Note_on_c, 2, 72, 92
3, 150526, Note_on_c, 2, 72, 0
3, 150528, Note_on_c, 2, 73, 127
3, 150816, Note_on_c, 2, 73, 0
3, 150816, Note_on_c, 2, 72, 92
3, 150910, Note_on_c, 2, 72, 0
3, 150912, Note_on_c, 2, 72, 92
3, 151008, Note_on_c, 2, 72, 0
3, 151008, Note_on_c, 2, 75, 92
3, 151056, Note_on_c, 2, 75, 0
3, 151056, Note_on_c, 2, 73, 92
3, 151102, Note_on_c, 2, 73, 0
3, 151104, Note_on_c, 2, 72, 127
3, 151392, Note_on_c, 2, 72, 0
3, 151392, Note_on_c, 2, 70, 92
3, 151486, Note_on_c, 2, 70, 0
3, 151488, Note_on_c, 2, 72, 92
3, 151584, Note_on_c, 2, 72, 0
3, 151584, Note_on_c, 2, 75, 92
3, 151632, Note_on_c, 2, 75, 0
3, 151632, Note_on_c, 2, 73, 92
3, 151678, Note_on_c, 2, 73, 0
3, 151680, Note_on_c, 2, 72, 127
3, 151968, Note_on_c, 2, 72, 0
3, 151968, Note_on_c, 2, 70, 92
3, 152062, Note_on_c, 2, 70, 0
3, 152064, Note_on_c, 2, 61, 92
3, 152158, Note_on_c, 2, 61, 0
3, 152160, Note_on_c, 2, 61, 45
3, 152254, Note_on_c, 2, 61, 0
3, 152256, Note_on_c, 2, 61, 45
3, 152350, Note_on_c, 2, 61, 0
3, 152352, Note_on_c, 2, 61, 45
3, 152446, Note_on_c, 2, 61, 0
3, 152448, Note_on_c, 2, 61, 45
3, 152542, Note_on_c, 2, 61, 0
3, 152544, Note_on_c, 2, 61, 45
3, 152638, Note_on_c, 2, 61, 0
3, 152640, Note_on_c, 2, 61, 45
3, 152734, Note_on_c, 2, 61, 0
3, 152736, Note_on_c, 2, 61, 45
3, 152830, Note_on_c, 2, 61, 0
3, 152832, Note_on_c, 2, 61, 45
3, 152926, Note_on_c, 2, 61, 0
3, 152928, Note_on_c, 2, 61, 45
3, 153022, Note_on_c, 2, 61, 0
3, 153024, Note_on_c, 2, 61, 45
3, 153118, Note_on_c, 2, 61, 0
3, 153120, Note_on_c, 2, 61, 45
3, 153214, Note_on_c, 2, 61, 0
3, 153216, Note_on_c, 2, 61, 45
3, 153310, Note_on_c, 2, 61, 0
3, 153312, Note_on_c, 2, 61, 45
3, 153406, Note_on_c, 2, 61, 0
3, 153408, Note_on_c, 2, 61, 45
3, 153502, Note_on_c, 2, 61, 0
3, 153504, Note_on_c, 2, 61, 45
3, 153598, Note_on_c, 2, 61, 0
3, 153600, Note_on_c, 2, 61, 45
3, 153694, Note_on_c, 2, 61, 0
3, 153696, Note_on_c, 2, 61, 45
3, 153790, Note_on_c, 2, 61, 0
3, 153792, Note_on_c, 2, 61, 45
3, 153886, Note_on_c, 2, 61, 0
3, 153888, Note_on_c, 2, 61, 45
3, 153982, Note_on_c, 2, 61, 0
3, 153984, Note_on_c, 2, 61, 45
3, 154078, Note_on_c, 2, 61, 0
3, 154080, Note_on_c, 2, 61, 45
3, 154174, Note_on_c, 2, 61, 0
3, 154176, Note_on_c, 2, 61, 45
3, 154270, Note_on_c, 2, 61, 0
3, 154272, Note_on_c, 2, 61, 45
3, 154366, Note_on_c, 2, 61, 0
3, 154368, Note_on_c, 2, 78, 92
3, 154656, Note_on_c, 2, 78, 0
3, 154656, Note_on_c, 2, 80, 45
3, 154704, Note_on_c, 2, 80, 0
3, 154704, Note_on_c, 2, 78, 45
3, 154750, Note_on_c, 2, 78, 0
3, 154752, Note_on_c, 2, 77, 45
3, 154784, Note_on_c, 2, 77, 0
3, 154848, Note_on_c, 2, 78, 45
3, 154880, Note_on_c, 2, 78, 0
3, 154944, Note_on_c, 2, 73, 45
3, 155232, Note_on_c, 2, 73, 0
3, 155232, Note_on_c, 2, 75, 45
3, 155280, Note_on_c, 2, 75, 0
3, 155280, Note_on_c, 2, 73, 45
3, 155326, Note_on_c, 2, 73, 0
3, 155328, Note_on_c, 2, 72, 45
3, 155360, Note_on_c, 2, 72, 0
3, 155424, Note_on_c, 2, 73, 45
3, 155456, Note_on_c, 2, 73, 0
3, 155520, Note_on_c, 2, 70, 45
3, 155808, Note_on_c, 2, 70, 0
3, 155808, Note_on_c, 2, 71, 45
3, 155856, Note_on_c, 2, 71, 0
3, 155856, Note_on_c, 2, 70, 45
3, 155902, Note_on_c, 2, 70, 0
3, 155904, Note_on_c, 2, 69, 45
3, 155936, Note_on_c, 2, 69, 0
3, 156000, Note_on_c, 2, 70, 45
3, 156032, Note_on_c, 2, 70, 0
3, 156096, Note_on_c, 2, 66, 45
3, 156144, Note_on_c, 2, 66, 0
3, 156288, Note_on_c, 2, 65, 45
3, 156336, Note_on_c, 2, 65, 0
3, 156480, Note_on_c, 2, 64, 45
3, 156528, Note_on_c, 2, 64, 0
3, 156672, Note_on_c, 2, 60, 92
3, 156766, Note_on_c, 2, 60, 0
3, 156768, Note_on_c, 2, 60, 45
3, 156862, Note_on_c, 2, 60, 0
3, 156864, Note_on_c, 2, 60, 45
3, 156958, Note_on_c, 2, 60, 0
3, 156960, Note_on_c, 2, 60, 45
3, 157054, Note_on_c, 2, 60, 0
3, 157056, Note_on_c, 2, 60, 45
3, 157150, Note_on_c, 2, 60, 0
3, 157152, Note_on_c, 2, 60, 45
3, 157246, Note_on_c, 2, 60, 0
3, 157248, Note_on_c, 2, 60, 45
3, 157342, Note_on_c, 2, 60, 0
3, 157344, Note_on_c, 2, 60, 45
3, 157438, Note_on_c, 2, 60, 0
3, 157440, Note_on_c, 2, 60, 45
3, 157534, Note_on_c, 2, 60, 0
3, 157536, Note_on_c, 2, 60, 45
3, 157630, Note_on_c, 2, 60, 0
3, 157632, Note_on_c, 2, 60, 45
3, 157726, Note_on_c, 2, 60, 0
3, 157728, Note_on_c, 2, 60, 45
3, 157822, Note_on_c, 2, 60, 0
3, 157824, Note_on_c, 2, 60, 45
3, 157918, Note_on_c, 2, 60, 0
3, 157920, Note_on_c, 2, 60, 45
3, 158014, Note_on_c, 2, 60, 0
3, 158016, Note_on_c, 2, 60, 45
3, 158110, Note_on_c, 2, 60, 0
3, 158112, Note_on_c, 2, 60, 45
3, 158206, Note_on_c, 2, 60, 0
3, 158208, Note_on_c, 2, 60, 45
3, 158302, Note_on_c, 2, 60, 0
3, 158304, Note_on_c, 2, 60, 45
3, 158398, Note_on_c, 2, 60, 0
3, 158400, Note_on_c, 2, 60, 45
3, 158494, Note_on_c, 2, 60, 0
3, 158496, Note_on_c, 2, 60, 45
3, 158590, Note_on_c, 2, 60, 0
3, 158592, Note_on_c, 2, 60, 45
3, 158686, Note_on_c, 2, 60, 0
3, 158688, Note_on_c, 2, 60, 45
3, 158782, Note_on_c, 2, 60, 0
3, 158784, Note_on_c, 2, 60, 45
3, 158878, Note_on_c, 2, 60, 0
3, 158880, Note_on_c, 2, 60, 45
3, 158974, Note_on_c, 2, 60, 0
3, 158976, Note_on_c, 2, 73, 92
3, 159264, Note_on_c, 2, 73, 0
3, 159264, Note_on_c, 2, 75, 45
3, 159312, Note_on_c, 2, 75, 0
3, 159312, Note_on_c, 2, 73, 45
3, 159358, Note_on_c, 2, 73, 0
3, 159360, Note_on_c, 2, 72, 45
3, 159392, Note_on_c, 2, 72, 0
3, 159456, Note_on_c, 2, 73, 45
3, 159488, Note_on_c, 2, 73, 0
3, 159552, Note_on_c, 2, 68, 45
3, 159840, Note_on_c, 2, 68, 0
3, 159840, Note_on_c, 2, 70, 45
3, 159888, Note_on_c, 2, 70, 0
3, 159888, Note_on_c, 2, 68, 45
3, 159934, Note_on_c, 2, 68, 0
3, 159936, Note_on_c, 2, 67, 45
3, 159968, Note_on_c, 2, 67, 0
3, 160032, Note_on_c, 2, 68, 45
3, 160064, Note_on_c, 2, 68, 0
3, 160128, Note_on_c, 2, 65, 60
3, 160416, Note_on_c, 2, 65, 0
3, 160416, Note_on_c, 2, 66, 45
3, 160464, Note_on_c, 2, 66, 0
3, 160464, Note_on_c, 2, 65, 45
3, 160510, Note_on_c, 2, 65, 0
3, 160512, Note_on_c, 2, 63, 45
3, 160544, Note_on_c, 2, 63, 0
3, 160608, Note_on_c, 2, 65, 60
3, 160640, Note_on_c, 2, 65, 0
3, 160704, Note_on_c, 2, 61, 45
3, 160752, Note_on_c, 2, 61, 0
3, 160896, Note_on_c, 2, 60, 45
3, 160944, Note_on_c, 2, 60, 0
3, 161088, Note_on_c, 2, 59, 45
3, 161136, Note_on_c, 2, 59, 0
3, 161280, Note_on_c, 2, 60, 45
3, 161440, Note_on_c, 2, 60, 0
3, 161472, Note_on_c, 2, 55, 63
3, 161472, Note_on_c, 2, 64, 63
3, 162016, Note_on_c, 2, 64, 0
3, 162016, Note_on_c, 2, 55, 0
3, 162048, Note_on_c, 2, 55, 63
3, 162048, Note_on_c, 2, 64, 63
3, 162592, Note_on_c, 2, 64, 0
3, 162592, Note_on_c, 2, 55, 0
3, 162624, Note_on_c, 2, 55, 63
3, 162624, Note_on_c, 2, 64, 63
3, 163168, Note_on_c, 2, 64, 0
3, 163168, Note_on_c, 2, 55, 0
3, 163200, Note_on_c, 2, 55, 45
3, 163200, Note_on_c, 2, 64, 45
3, 163360, Note_on_c, 2, 64, 0
3, 163360, Note_on_c, 2, 55, 0
3, 163392, Note_on_c, 2, 55, 45
3, 163392, Note_on_c, 2, 64, 45
3, 163552, Note_on_c, 2, 64, 0
3, 163552, Note_on_c, 2, 55, 0
3, 163584, Note_on_c, 2, 55, 45
3, 163584, Note_on_c, 2, 64, 45
3, 163744, Note_on_c, 2, 64, 0
3, 163744, Note_on_c, 2, 55, 0
3, 164016, Note_on_c, 2, 60, 45
3, 164048, Note_on_c, 2, 60, 0
3, 164064, Note_on_c, 2, 62, 45
3, 164096, Note_on_c, 2, 62, 0
3, 164112, Note_on_c, 2, 64, 45
3, 164144, Note_on_c, 2, 64, 0
3, 164160, Note_on_c, 2, 65, 45
3, 164192, Note_on_c, 2, 65, 0
3, 164208, Note_on_c, 2, 67, 45
3, 164240, Note_on_c, 2, 67, 0
3, 164256, Note_on_c, 2, 69, 45
3, 164288, Note_on_c, 2, 69, 0
3, 164304, Note_on_c, 2, 71, 45
3, 164336, Note_on_c, 2, 71, 0
3, 164352, Note_on_c, 2, 72, 63
3, 164590, Note_on_c, 2, 72, 0
3, 164592, Note_on_c, 2, 60, 45
3, 164624, Note_on_c, 2, 60, 0
3, 164640, Note_on_c, 2, 62, 45
3, 164672, Note_on_c, 2, 62, 0
3, 164688, Note_on_c, 2, 64, 45
3, 164720, Note_on_c, 2, 64, 0
3, 164736, Note_on_c, 2, 65, 45
3, 164768, Note_on_c, 2, 65, 0
3, 164784, Note_on_c, 2, 67, 45
3, 164816, Note_on_c, 2, 67, 0
3, 164832, Note_on_c, 2, 69, 45
3, 164864, Note_on_c, 2, 69, 0
3, 164880, Note_on_c, 2, 71, 45
3, 164912, Note_on_c, 2, 71, 0
3, 164928, Note_on_c, 2, 72, 63
3, 165166, Note_on_c, 2, 72, 0
3, 165168, Note_on_c, 2, 60, 45
3, 165200, Note_on_c, 2, 60, 0
3, 165216, Note_on_c, 2, 62, 45
3, 165248, Note_on_c, 2, 62, 0
3, 165264, Note_on_c, 2, 64, 45
3, 165296, Note_on_c, 2, 64, 0
3, 165312, Note_on_c, 2, 65, 45
3, 165358, Note_on_c, 2, 65, 0
3, 165360, Note_on_c, 2, 67, 45
3, 165406, Note_on_c, 2, 67, 0
3, 165408, Note_on_c, 2, 69, 45
3, 165454, Note_on_c, 2, 69, 0
3, 165456, Note_on_c, 2, 71, 45
3, 165502, Note_on_c, 2, 71, 0
3, 165504, Note_on_c, 2, 72, 45
3, 165536, Note_on_c, 2, 72, 0
3, 165552, Note_on_c, 2, 60, 45
3, 165584, Note_on_c, 2, 60, 0
3, 165600, Note_on_c, 2, 62, 45
3, 165632, Note_on_c, 2, 62, 0
3, 165648, Note_on_c, 2, 64, 45
3, 165680, Note_on_c, 2, 64, 0
3, 165696, Note_on_c, 2, 65, 45
3, 165728, Note_on_c, 2, 65, 0
3, 165744, Note_on_c, 2, 67, 45
3, 165776, Note_on_c, 2, 67, 0
3, 165792, Note_on_c, 2, 69, 45
3, 165824, Note_on_c, 2, 69, 0
3, 165840, Note_on_c, 2, 71, 45
3, 165872, Note_on_c, 2, 71, 0
3, 165888, Note_on_c, 2, 72, 63
3, 166366, Note_on_c, 2, 72, 0
3, 166368, Note_on_c, 2, 71, 45
3, 166400, Note_on_c, 2, 71, 0
3, 166416, Note_on_c, 2, 69, 45
3, 166448, Note_on_c, 2, 69, 0
3, 166464, Note_on_c, 2, 67, 63
3, 166496, Note_on_c, 2, 67, 0
3, 166512, Note_on_c, 2, 65, 45
3, 166544, Note_on_c, 2, 65, 0
3, 166560, Note_on_c, 2, 64, 45
3, 166592, Note_on_c, 2, 64, 0
3, 166608, Note_on_c, 2, 62, 45
3, 166640, Note_on_c, 2, 62, 0
3, 166656, Note_on_c, 2, 60, 63
3, 166942, Note_on_c, 2, 60, 0
3, 166944, Note_on_c, 2, 60, 45
3, 166976, Note_on_c, 2, 60, 0
3, 166992, Note_on_c, 2, 62, 45
3, 167024, Note_on_c, 2, 62, 0
3, 167040, Note_on_c, 2, 64, 45
3, 167088, Note_on_c, 2, 64, 0
3, 167088, Note_on_c, 2, 65, 45
3, 167136, Note_on_c, 2, 65, 0
3, 167136, Note_on_c, 2, 67, 45
3, 167184, Note_on_c, 2, 67, 0
3, 167184, Note_on_c, 2, 69, 45
3, 167230, Note_on_c, 2, 69, 0
3, 167232, Note_on_c, 2, 70, 45
3, 167264, Note_on_c, 2, 70, 0
3, 167328, Note_on_c, 2, 69, 45
3, 167360, Note_on_c, 2, 69, 0
3, 167424, Note_on_c, 2, 67, 45
3, 167456, Note_on_c, 2, 67, 0
3, 167520, Note_on_c, 2, 65, 45
3, 167552, Note_on_c, 2, 65, 0
3, 167616, Note_on_c, 2, 64, 45
3, 167648, Note_on_c, 2, 64, 0
3, 167712, Note_on_c, 2, 65, 55
3, 167744, Note_on_c, 2, 65, 0
3, 167808, Note_on_c, 2, 64, 65
3, 167840, Note_on_c, 2, 64, 0
3, 167904, Note_on_c, 2, 62, 75
3, 167936, Note_on_c, 2, 62, 0
3, 168000, Note_on_c, 2, 60, 86
3, 168032, Note_on_c, 2, 60, 0
3, 168096, Note_on_c, 2, 58, 97
3, 168128, Note_on_c, 2, 58, 0
3, 168192, Note_on_c, 2, 57, 108
3, 168192, Note_on_c, 2, 65, 108
3, 168480, Note_on_c, 2, 65, 0
3, 168480, Note_on_c, 2, 57, 0
3, 168480, Note_on_c, 2, 67, 108
3, 168528, Note_on_c, 2, 67, 0
3, 168528, Note_on_c, 2, 65, 108
3, 168574, Note_on_c, 2, 65, 0
3, 168576, Note_on_c, 2, 64, 108
3, 168608, Note_on_c, 2, 64, 0
3, 168672, Note_on_c, 2, 65, 108
3, 168704, Note_on_c, 2, 65, 0
3, 168768, Note_on_c, 2, 60, 108
3, 168928, Note_on_c, 2, 60, 0
3, 169344, Note_on_c, 2, 65, 108
3, 169632, Note_on_c, 2, 65, 0
3, 169632, Note_on_c, 2, 67, 108
3, 169680, Note_on_c, 2, 67, 0
3, 169680, Note_on_c, 2, 65, 108
3, 169726, Note_on_c, 2, 65, 0
3, 169728, Note_on_c, 2, 64, 108
3, 169760, Note_on_c, 2, 64, 0
3, 169824, Note_on_c, 2, 65, 108
3, 169856, Note_on_c, 2, 65, 0
3, 169920, Note_on_c, 2, 62, 108
3, 170080, Note_on_c, 2, 62, 0
3, 170496, Note_on_c, 2, 70, 45
3, 171456, Note_on_c, 2, 70, 0
3, 171456, Note_on_c, 2, 67, 61
3, 171616, Note_on_c, 2, 67, 0
3, 171648, Note_on_c, 2, 65, 45
3, 172032, Note_on_c, 2, 65, 0
3, 172032, Note_on_c, 2, 70, 45
3, 172176, Note_on_c, 2, 70, 0
3, 172176, Note_on_c, 2, 67, 45
3, 172222, Note_on_c, 2, 67, 0
3, 172224, Note_on_c, 2, 65, 45
3, 172608, Note_on_c, 2, 65, 0
3, 172608, Note_on_c, 2, 64, 45
3, 172768, Note_on_c, 2, 64, 0
3, 172800, Note_on_c, 2, 70, 45
3, 173088, Note_on_c, 2, 70, 0
3, 173088, Note_on_c, 2, 72, 45
3, 173136, Note_on_c, 2, 72, 0
3, 173136, Note_on_c, 2, 70, 45
3, 173182, Note_on_c, 2, 70, 0
3, 173184, Note_on_c, 2, 69, 45
3, 173216, Note_on_c, 2, 69, 0
3, 173280, Note_on_c, 2, 70, 45
3, 173312, Note_on_c, 2, 70, 0
3, 173376, Note_on_c, 2, 72, 45
3, 173664, Note_on_c, 2, 72, 0
3, 173664, Note_on_c, 2, 73, 45
3, 173712, Note_on_c, 2, 73, 0
3, 173712, Note_on_c, 2, 72, 45
3, 173758, Note_on_c, 2, 72, 0
3, 173760, Note_on_c, 2, 70, 45
3, 173792, Note_on_c, 2, 70, 0
3, 173856, Note_on_c, 2, 72, 45
3, 173888, Note_on_c, 2, 72, 0
3, 173952, Note_on_c, 2, 73, 45
3, 174288, Note_on_c, 2, 73, 0
3, 174336, Note_on_c, 2, 78, 45
3, 174480, Note_on_c, 2, 78, 0
3, 174480, Note_on_c, 2, 75, 45
3, 174526, Note_on_c, 2, 75, 0
3, 174528, Note_on_c, 2, 73, 45
3, 174912, Note_on_c, 2, 73, 0
3, 174912, Note_on_c, 2, 72, 45
3, 175072, Note_on_c, 2, 72, 0
3, 175104, Note_on_c, 2, 65, 45
3, 175488, Note_on_c, 2, 65, 0
3, 175488, Note_on_c, 2, 70, 45
3, 175632, Note_on_c, 2, 70, 0
3, 175632, Note_on_c, 2, 66, 45
3, 175678, Note_on_c, 2, 66, 0
3, 175680, Note_on_c, 2, 65, 45
3, 176064, Note_on_c, 2, 65, 0
3, 176064, Note_on_c, 2, 63, 45
3, 176224, Note_on_c, 2, 63, 0
3, 176256, Note_on_c, 2, 70, 60
3, 176592, Note_on_c, 2, 70, 0
3, 176640, Note_on_c, 2, 70, 45
3, 176800, Note_on_c, 2, 70, 0
3, 176832, Note_on_c, 2, 70, 45
3, 177216, Note_on_c, 2, 70, 0
3, 177216, Note_on_c, 2, 69, 45
3, 177376, Note_on_c, 2, 69, 0
3, 177408, Note_on_c, 2, 61, 45
3, 177792, Note_on_c, 2, 61, 0
3, 177792, Note_on_c, 2, 66, 45
3, 177936, Note_on_c, 2, 66, 0
3, 177936, Note_on_c, 2, 63, 45
3, 177982, Note_on_c, 2, 63, 0
3, 177984, Note_on_c, 2, 61, 45
3, 178560, Note_on_c, 2, 61, 0
3, 178560, Note_on_c, 2, 68, 68
3, 179088, Note_on_c, 2, 68, 0
3, 179136, Note_on_c, 2, 66, 45
3, 179296, Note_on_c, 2, 66, 0
3, 179904, Note_on_c, 2, 58, 45
3, 180064, Note_on_c, 2, 58, 0
3, 180096, Note_on_c, 2, 58, 45
3, 180256, Note_on_c, 2, 58, 0
3, 180288, Note_on_c, 2, 59, 45
3, 181024, Note_on_c, 2, 59, 0
3, 181056, Note_on_c, 2, 59, 45
3, 181216, Note_on_c, 2, 59, 0
3, 181248, Note_on_c, 2, 59, 45
3, 181408, Note_on_c, 2, 59, 0
3, 181440, Note_on_c, 2, 61, 45
3, 182176, Note_on_c, 2, 61, 0
3, 182208, Note_on_c, 2, 61, 45
3, 182368, Note_on_c, 2, 61, 0
3, 182400, Note_on_c, 2, 61, 45
3, 182560, Note_on_c, 2, 61, 0
3, 182592, Note_on_c, 2, 68, 45
3, 182928, Note_on_c, 2, 68, 0
3, 182976, Note_on_c, 2, 68, 45
3, 183008, Note_on_c, 2, 68, 0
3, 183072, Note_on_c, 2, 66, 45
3, 183104, Note_on_c, 2, 66, 0
3, 183168, Note_on_c, 2, 66, 45
3, 183264, Note_on_c, 2, 66, 0
3, 183264, Note_on_c, 2, 65, 45
3, 183358, Note_on_c, 2, 65, 0
3, 183360, Note_on_c, 2, 65, 45
3, 183392, Note_on_c, 2, 65, 0
3, 183456, Note_on_c, 2, 63, 45
3, 183488, Note_on_c, 2, 63, 0
3, 183552, Note_on_c, 2, 61, 45
3, 183584, Note_on_c, 2, 61, 0
3, 183648, Note_on_c, 2, 59, 45
3, 183680, Note_on_c, 2, 59, 0
3, 183744, Note_on_c, 2, 57, 45
3, 183936, Note_on_c, 2, 57, 0
3, 183936, Note_on_c, 2, 58, 52
3, 184096, Note_on_c, 2, 58, 0
3, 184128, Note_on_c, 2, 58, 60
3, 184176, Note_on_c, 2, 58, 0
3, 184320, Note_on_c, 2, 58, 68
3, 184608, Note_on_c, 2, 58, 0
3, 184608, Note_on_c, 2, 60, 80
3, 184656, Note_on_c, 2, 60, 0
3, 184656, Note_on_c, 2, 58, 82
3, 184702, Note_on_c, 2, 58, 0
3, 184704, Note_on_c, 2, 57, 84
3, 184736, Note_on_c, 2, 57, 0
3, 184800, Note_on_c, 2, 58, 88
3, 184832, Note_on_c, 2, 58, 0
3, 184896, Note_on_c, 2, 67, 92
3, 185232, Note_on_c, 2, 67, 0
3, 185280, Note_on_c, 2, 67, 92
3, 185328, Note_on_c, 2, 67, 0
3, 185472, Note_on_c, 2, 60, 108
3, 185520, Note_on_c, 2, 60, 0
3, 185664, Note_on_c, 2, 60, 92
3, 185712, Note_on_c, 2, 60, 0
3, 185856, Note_on_c, 2, 59, 92
3, 185904, Note_on_c, 2, 59, 0
3, 186048, Note_on_c, 2, 55, 92
3, 186208, Note_on_c, 2, 55, 0
3, 186336, Note_on_c, 2, 67, 45
3, 186368, Note_on_c, 2, 67, 0
3, 186432, Note_on_c, 2, 67, 45
3, 186464, Note_on_c, 2, 67, 0
3, 186528, Note_on_c, 2, 68, 45
3, 186560, Note_on_c, 2, 68, 0
3, 186624, Note_on_c, 2, 67, 45
3, 186784, Note_on_c, 2, 67, 0
3, 186912, Note_on_c, 2, 67, 45
3, 186944, Note_on_c, 2, 67, 0
3, 187008, Note_on_c, 2, 67, 45
3, 187040, Note_on_c, 2, 67, 0
3, 187104, Note_on_c, 2, 68, 45
3, 187136, Note_on_c, 2, 68, 0
3, 187200, Note_on_c, 2, 67, 45
3, 187360, Note_on_c, 2, 67, 0
3, 187488, Note_on_c, 2, 55, 45
3, 187520, Note_on_c, 2, 55, 0
3, 187584, Note_on_c, 2, 55, 45
3, 187616, Note_on_c, 2, 55, 0
3, 187680, Note_on_c, 2, 56, 45
3, 187712, Note_on_c, 2, 56, 0
3, 187776, Note_on_c, 2, 55, 45
3, 187936, Note_on_c, 2, 55, 0
3, 188064, Note_on_c, 2, 67, 45
3, 188096, Note_on_c, 2, 67, 0
3, 188160, Note_on_c, 2, 67, 45
3, 188192, Note_on_c, 2, 67, 0
3, 188256, Note_on_c, 2, 68, 45
3, 188288, Note_on_c, 2, 68, 0
3, 188352, Note_on_c, 2, 67, 45
3, 188512, Note_on_c, 2, 67, 0
3, 188640, Note_on_c, 2, 76, 76
3, 188672, Note_on_c, 2, 76, 0
3, 188736, Note_on_c, 2, 76, 86
3, 188768, Note_on_c, 2, 76, 0
3, 188832, Note_on_c, 2, 77, 97
3, 188864, Note_on_c, 2, 77, 0
3, 188928, Note_on_c, 2, 76, 108
3, 188974, Note_on_c, 2, 76, 0
3, 188976, Note_on_c, 2, 60, 108
3, 189022, Note_on_c, 2, 60, 0
3, 189024, Note_on_c, 2, 62, 108
3, 189070, Note_on_c, 2, 62, 0
3, 189072, Note_on_c, 2, 64, 108
3, 189118, Note_on_c, 2, 64, 0
3, 189120, Note_on_c, 2, 65, 108
3, 189166, Note_on_c, 2, 65, 0
3, 189168, Note_on_c, 2, 67, 108
3, 189214, Note_on_c, 2, 67, 0
3, 189216, Note_on_c, 2, 69, 108
3, 189262, Note_on_c, 2, 69, 0
3, 189264, Note_on_c, 2, 71, 108
3, 189310, Note_on_c, 2, 71, 0
3, 189312, Note_on_c, 2, 72, 108
3, 189358, Note_on_c, 2, 72, 0
3, 189360, Note_on_c, 2, 71, 108
3, 189406, Note_on_c, 2, 71, 0
3, 189408, Note_on_c, 2, 72, 108
3, 189454, Note_on_c, 2, 72, 0
3, 189456, Note_on_c, 2, 71, 108
3, 189502, Note_on_c, 2, 71, 0
3, 189504, Note_on_c, 2, 72, 108
3, 189664, Note_on_c, 2, 72, 0
3, 191616, Note_on_c, 2, 72, 45
3, 191648, Note_on_c, 2, 72, 0
3, 191712, Note_on_c, 2, 72, 45
3, 191902, Note_on_c, 2, 72, 0
3, 191904, Note_on_c, 2, 72, 45
3, 192000, Note_on_c, 2, 72, 0
3, 192000, Note_on_c, 2, 76, 45
3, 192094, Note_on_c, 2, 76, 0
3, 192096, Note_on_c, 2, 76, 45
3, 192192, Note_on_c, 2, 76, 0
3, 192192, Note_on_c, 2, 77, 45
3, 192286, Note_on_c, 2, 77, 0
3, 192288, Note_on_c, 2, 77, 45
3, 192384, Note_on_c, 2, 77, 0
3, 192384, Note_on_c, 2, 81, 45
3, 192576, Note_on_c, 2, 81, 0
3, 192576, Note_on_c, 2, 79, 45
3, 192670, Note_on_c, 2, 79, 0
3, 193920, Note_on_c, 2, 76, 45
3, 194112, Note_on_c, 2, 76, 0
3, 194112, Note_on_c, 2, 77, 45
3, 194304, Note_on_c, 2, 77, 0
3, 194304, Note_on_c, 2, 81, 45
3, 194496, Note_on_c, 2, 81, 0
3, 194496, Note_on_c, 2, 74, 45
3, 194656, Note_on_c, 2, 74, 0
3, 194688, Note_on_c, 2, 77, 45
3, 194880, Note_on_c, 2, 77, 0
3, 194880, Note_on_c, 2, 76, 45
3, 194974, Note_on_c, 2, 76, 0
3, 196224, Note_on_c, 2, 72, 45
3, 196256, Note_on_c, 2, 72, 0
3, 196320, Note_on_c, 2, 72, 45
3, 196510, Note_on_c, 2, 72, 0
3, 196512, Note_on_c, 2, 72, 45
3, 196608, Note_on_c, 2, 72, 0
3, 196608, Note_on_c, 2, 70, 45
3, 196702, Note_on_c, 2, 70, 0
3, 196704, Note_on_c, 2, 70, 45
3, 196800, Note_on_c, 2, 70, 0
3, 196800, Note_on_c, 2, 69, 45
3, 196894, Note_on_c, 2, 69, 0
3, 196896, Note_on_c, 2, 69, 45
3, 196992, Note_on_c, 2, 69, 0
3, 196992, Note_on_c, 2, 67, 45
3, 197248, Note_on_c, 2, 67, 0
3, 197376, Note_on_c, 2, 72, 45
3, 197408, Note_on_c, 2, 72, 0
3, 197472, Note_on_c, 2, 72, 45
3, 197568, Note_on_c, 2, 72, 0
3, 197568, Note_on_c, 2, 73, 45
3, 197662, Note_on_c, 2, 73, 0
3, 197664, Note_on_c, 2, 73, 45
3, 197760, Note_on_c, 2, 73, 0
3, 197760, Note_on_c, 2, 70, 45
3, 197854, Note_on_c, 2, 70, 0
3, 197856, Note_on_c, 2, 70, 45
3, 197952, Note_on_c, 2, 70, 0
3, 197952, Note_on_c, 2, 67, 45
3, 198046, Note_on_c, 2, 67, 0
3, 198048, Note_on_c, 2, 67, 45
3, 198144, Note_on_c, 2, 67, 0
3, 198144, Note_on_c, 2, 64, 45
3, 198238, Note_on_c, 2, 64, 0
3, 198240, Note_on_c, 2, 64, 48
3, 198336, Note_on_c, 2, 64, 0
3, 198336, Note_on_c, 2, 65, 51
3, 198430, Note_on_c, 2, 65, 0
3, 198432, Note_on_c, 2, 80, 54
3, 198592, Note_on_c, 2, 80, 0
3, 198624, Note_on_c, 2, 80, 61
3, 198718, Note_on_c, 2, 80, 0
3, 198720, Note_on_c, 2, 80, 89
3, 199104, Note_on_c, 2, 80, 0
3, 199104, Note_on_c, 2, 82, 80
3, 199248, Note_on_c, 2, 82, 0
3, 199248, Note_on_c, 2, 79, 86
3, 199294, Note_on_c, 2, 79, 0
3, 199296, Note_on_c, 2, 77, 88
3, 199390, Note_on_c, 2, 77, 0
3, 199392, Note_on_c, 2, 57, 45
3, 199424, Note_on_c, 2, 57, 0
3, 199488, Note_on_c, 2, 57, 45
3, 199520, Note_on_c, 2, 57, 0
3, 199584, Note_on_c, 2, 57, 45
3, 199616, Note_on_c, 2, 57, 0
3, 199680, Note_on_c, 2, 57, 45
3, 199712, Note_on_c, 2, 57, 0
3, 199776, Note_on_c, 2, 57, 45
3, 199808, Note_on_c, 2, 57, 0
3, 199872, Note_on_c, 2, 57, 45
3, 199966, Note_on_c, 2, 57, 0
3, 199968, Note_on_c, 2, 57, 45
3, 200062, Note_on_c, 2, 57, 0
3, 200064, Note_on_c, 2, 57, 45
3, 200158, Note_on_c, 2, 57, 0
3, 200160, Note_on_c, 2, 57, 45
3, 200254, Note_on_c, 2, 57, 0
3, 200256, Note_on_c, 2, 57, 45
3, 200350, Note_on_c, 2, 57, 0
3, 200352, Note_on_c, 2, 57, 45
3, 200446, Note_on_c, 2, 57, 0
3, 200448, Note_on_c, 2, 58, 45
3, 200542, Note_on_c, 2, 58, 0
3, 200544, Note_on_c, 2, 58, 45
3, 200638, Note_on_c, 2, 58, 0
3, 200640, Note_on_c, 2, 58, 45
3, 200734, Note_on_c, 2, 58, 0
3, 200736, Note_on_c, 2, 58, 45
3, 200830, Note_on_c, 2, 58, 0
3, 200832, Note_on_c, 2, 58, 45
3, 200926, Note_on_c, 2, 58, 0
3, 200928, Note_on_c, 2, 58, 45
3, 201022, Note_on_c, 2, 58, 0
3, 201024, Note_on_c, 2, 58, 45
3, 201024, Note_on_c, 2, 64, 45
3, 201118, Note_on_c, 2, 64, 0
3, 201118, Note_on_c, 2, 58, 0
3, 201120, Note_on_c, 2, 58, 45
3, 201120, Note_on_c, 2, 64, 45
3, 201214, Note_on_c, 2, 64, 0
3, 201214, Note_on_c, 2, 58, 0
3, 201216, Note_on_c, 2, 58, 45
3, 201216, Note_on_c, 2, 64, 45
3, 201310, Note_on_c, 2, 64, 0
3, 201310, Note_on_c, 2, 58, 0
3, 201312, Note_on_c, 2, 58, 45
3, 201312, Note_on_c, 2, 64, 45
3, 201406, Note_on_c, 2, 64, 0
3, 201406, Note_on_c, 2, 58, 0
3, 201408, Note_on_c, 2, 58, 45
3, 201408, Note_on_c, 2, 64, 45
3, 201502, Note_on_c, 2, 64, 0
3, 201502, Note_on_c, 2, 58, 0
3, 201504, Note_on_c, 2, 58, 45
3, 201504, Note_on_c, 2, 64, 45
3, 201598, Note_on_c, 2, 64, 0
3, 201598, Note_on_c, 2, 58, 0
3, 201600, Note_on_c, 2, 60, 45
3, 201694, Note_on_c, 2, 60, 0
3, 201696, Note_on_c, 2, 60, 52
3, 201696, Note_on_c, 2, 66, 52
3, 201790, Note_on_c, 2, 66, 0
3, 201790, Note_on_c, 2, 60, 0
3, 201792, Note_on_c, 2, 60, 60
3, 201792, Note_on_c, 2, 66, 60
3, 201886, Note_on_c, 2, 66, 0
3, 201886, Note_on_c, 2, 60, 0
3, 201888, Note_on_c, 2, 60, 68
3, 201888, Note_on_c, 2, 66, 68
3, 201982, Note_on_c, 2, 66, 0
3, 201982, Note_on_c, 2, 60, 0
3, 201984, Note_on_c, 2, 60, 76
3, 201984, Note_on_c, 2, 66, 76
3, 202078, Note_on_c, 2, 66, 0
3, 202078, Note_on_c, 2, 60, 0
3, 202080, Note_on_c, 2, 60, 84
3, 202080, Note_on_c, 2, 66, 84
3, 202174, Note_on_c, 2, 66, 0
3, 202174, Note_on_c, 2, 60, 0
3, 202176, Note_on_c, 2, 60, 92
3, 202176, Note_on_c, 2, 66, 92
3, 202270, Note_on_c, 2, 66, 0
3, 202270, Note_on_c, 2, 60, 0
3, 202272, Note_on_c, 2, 60, 92
3, 202272, Note_on_c, 2, 66, 92
3, 202366, Note_on_c, 2, 66, 0
3, 202366, Note_on_c, 2, 60, 0
3, 202368, Note_on_c, 2, 60, 92
3, 202368, Note_on_c, 2, 66, 92
3, 202462, Note_on_c, 2, 66, 0
3, 202462, Note_on_c, 2, 60, 0
3, 202464, Note_on_c, 2, 60, 92
3, 202464, Note_on_c, 2, 66, 92
3, 202558, Note_on_c, 2, 66, 0
3, 202558, Note_on_c, 2, 60, 0
3, 202560, Note_on_c, 2, 60, 92
3, 202560, Note_on_c, 2, 66, 92
3, 202654, Note_on_c, 2, 66, 0
3, 202654, Note_on_c, 2, 60, 0
3, 202656, Note_on_c, 2, 60, 92
3, 202656, Note_on_c, 2, 66, 92
3, 202750, Note_on_c, 2, 66, 0
3, 202750, Note_on_c, 2, 60, 0
3, 202752, Note_on_c, 2, 67, 92
3, 202912, Note_on_c, 2, 67, 0
3, 202944, Note_on_c, 2, 58, 45
3, 202944, Note_on_c, 2, 67, 45
3, 203104, Note_on_c, 2, 67, 0
3, 203104, Note_on_c, 2, 58, 0
3, 204336, Note_on_c, 2, 62, 45
3, 204382, Note_on_c, 2, 62, 0
3, 204384, Note_on_c, 2, 64, 48
3, 204430, Note_on_c, 2, 64, 0
3, 204432, Note_on_c, 2, 66, 51
3, 204478, Note_on_c, 2, 66, 0
3, 204480, Note_on_c, 2, 67, 54
3, 204526, Note_on_c, 2, 67, 0
3, 204528, Note_on_c, 2, 69, 57
3, 204574, Note_on_c, 2, 69, 0
3, 204576, Note_on_c, 2, 70, 60
3, 204622, Note_on_c, 2, 70, 0
3, 204624, Note_on_c, 2, 72, 63
3, 204670, Note_on_c, 2, 72, 0
3, 204672, Note_on_c, 2, 74, 66
3, 204718, Note_on_c, 2, 74, 0
3, 204720, Note_on_c, 2, 72, 69
3, 204766, Note_on_c, 2, 72, 0
3, 204768, Note_on_c, 2, 70, 72
3, 204814, Note_on_c, 2, 70, 0
3, 204816, Note_on_c, 2, 69, 75
3, 204862, Note_on_c, 2, 69, 0
3, 204864, Note_on_c, 2, 67, 78
3, 204910, Note_on_c, 2, 67, 0
3, 204912, Note_on_c, 2, 65, 81
3, 204958, Note_on_c, 2, 65, 0
3, 204960, Note_on_c, 2, 64, 84
3, 205006, Note_on_c, 2, 64, 0
3, 205008, Note_on_c, 2, 62, 88
3, 205054, Note_on_c, 2, 62, 0
3, 205056, Note_on_c, 2, 60, 92
3, 205312, Note_on_c, 2, 60, 0
3, 205344, Note_on_c, 2, 62, 92
3, 205392, Note_on_c, 2, 62, 0
3, 205392, Note_on_c, 2, 64, 92
3, 205440, Note_on_c, 2, 64, 0
3, 205440, Note_on_c, 2, 65, 92
3, 205488, Note_on_c, 2, 65, 0
3, 205488, Note_on_c, 2, 67, 92
3, 205536, Note_on_c, 2, 67, 0
3, 205536, Note_on_c, 2, 69, 92
3, 205584, Note_on_c, 2, 69, 0
3, 205584, Note_on_c, 2, 71, 92
3, 205630, Note_on_c, 2, 71, 0
3, 205632, Note_on_c, 2, 72, 92
3, 205726, Note_on_c, 2, 72, 0
3, 205728, Note_on_c, 2, 64, 92
3, 205822, Note_on_c, 2, 64, 0
3, 205824, Note_on_c, 2, 64, 92
3, 205918, Note_on_c, 2, 64, 0
3, 205920, Note_on_c, 2, 64, 92
3, 206014, Note_on_c, 2, 64, 0
3, 206016, Note_on_c, 2, 64, 92
3, 206110, Note_on_c, 2, 64, 0
3, 206112, Note_on_c, 2, 64, 92
3, 206206, Note_on_c, 2, 64, 0
3, 206208, Note_on_c, 2, 65, 92
3, 206256, Note_on_c, 2, 65, 0
3, 206400, Note_on_c, 2, 60, 92
3, 206656, Note_on_c, 2, 60, 0
3, 206688, Note_on_c, 2, 60, 45
3, 206782, Note_on_c, 2, 60, 0
3, 206784, Note_on_c, 2, 60, 45
3, 206880, Note_on_c, 2, 60, 0
3, 206880, Note_on_c, 2, 67, 45
3, 206974, Note_on_c, 2, 67, 0
3, 206976, Note_on_c, 2, 67, 45
3, 207072, Note_on_c, 2, 67, 0
3, 207072, Note_on_c, 2, 65, 45
3, 207166, Note_on_c, 2, 65, 0
3, 207168, Note_on_c, 2, 65, 45
3, 207262, Note_on_c, 2, 65, 0
3, 207264, Note_on_c, 2, 65, 45
3, 207358, Note_on_c, 2, 65, 0
3, 207360, Note_on_c, 2, 65, 45
3, 207454, Note_on_c, 2, 65, 0
3, 207456, Note_on_c, 2, 65, 45
3, 207550, Note_on_c, 2, 65, 0
3, 207552, Note_on_c, 2, 65, 45
3, 207648, Note_on_c, 2, 65, 0
3, 207648, Note_on_c, 2, 72, 45
3, 207742, Note_on_c, 2, 72, 0
3, 207744, Note_on_c, 2, 72, 45
3, 207840, Note_on_c, 2, 72, 0
3, 207840, Note_on_c, 2, 70, 45
3, 207934, Note_on_c, 2, 70, 0
3, 207936, Note_on_c, 2, 70, 45
3, 208032, Note_on_c, 2, 70, 0
3, 208032, Note_on_c, 2, 67, 45
3, 208126, Note_on_c, 2, 67, 0
3, 208128, Note_on_c, 2, 67, 45
3, 208288, Note_on_c, 2, 67, 0
3, 209088, Note_on_c, 2, 65, 30
3, 209616, Note_on_c, 2, 65, 0
3, 209664, Note_on_c, 2, 65, 92
3, 210400, Note_on_c, 2, 65, 0
3, 210432, Note_on_c, 2, 65, 45
3, 210480, Note_on_c, 2, 65, 0
3, 210624, Note_on_c, 2, 58, 45
3, 210672, Note_on_c, 2, 58, 0
3, 210816, Note_on_c, 2, 57, 45
3, 210864, Note_on_c, 2, 57, 0
3, 211008, Note_on_c, 2, 72, 92
3, 211296, Note_on_c, 2, 72, 0
3, 211296, Note_on_c, 2, 70, 45
3, 211390, Note_on_c, 2, 70, 0
3, 211392, Note_on_c, 2, 70, 45
3, 211488, Note_on_c, 2, 70, 0
3, 211488, Note_on_c, 2, 67, 45
3, 211582, Note_on_c, 2, 67, 0
3, 211584, Note_on_c, 2, 67, 45
3, 211680, Note_on_c, 2, 67, 0
3, 211680, Note_on_c, 2, 69, 45
3, 211774, Note_on_c, 2, 69, 0
3, 211776, Note_on_c, 2, 69, 45
3, 211872, Note_on_c, 2, 69, 0
3, 211872, Note_on_c, 2, 77, 45
3, 211966, Note_on_c, 2, 77, 0
3, 211968, Note_on_c, 2, 77, 45
3, 212062, Note_on_c, 2, 77, 0
3, 212064, Note_on_c, 2, 77, 45
3, 212158, Note_on_c, 2, 77, 0
3, 212160, Note_on_c, 2, 77, 45
3, 212256, Note_on_c, 2, 77, 0
3, 212256, Note_on_c, 2, 72, 45
3, 212350, Note_on_c, 2, 72, 0
3, 212352, Note_on_c, 2, 72, 45
3, 212448, Note_on_c, 2, 72, 0
3, 212448, Note_on_c, 2, 70, 45
3, 212542, Note_on_c, 2, 70, 0
3, 212544, Note_on_c, 2, 70, 45
3, 212640, Note_on_c, 2, 70, 0
3, 212640, Note_on_c, 2, 79, 45
3, 212734, Note_on_c, 2, 79, 0
3, 212736, Note_on_c, 2, 79, 45
3, 212896, Note_on_c, 2, 79, 0
3, 213696, Note_on_c, 2, 60, 63
3, 214224, Note_on_c, 2, 60, 0
3, 214272, Note_on_c, 2, 65, 63
3, 214800, Note_on_c, 2, 65, 0
3, 214848, Note_on_c, 2, 62, 63
3, 214848, Note_on_c, 2, 65, 63
3, 215184, Note_on_c, 2, 65, 0
3, 215184, Note_on_c, 2, 62, 0
3, 215232, Note_on_c, 2, 62, 63
3, 215232, Note_on_c, 2, 65, 63
3, 215392, Note_on_c, 2, 65, 0
3, 215392, Note_on_c, 2, 62, 0
3, 215424, Note_on_c, 2, 62, 108
3, 215424, Note_on_c, 2, 65, 108
3, 215472, Note_on_c, 2, 65, 0
3, 215472, Note_on_c, 2, 62, 0
3, 215616, Note_on_c, 2, 67, 108
3, 215664, Note_on_c, 2, 67, 0
3, 215808, Note_on_c, 2, 64, 108
3, 215856, Note_on_c, 2, 64, 0
3, 216096, Note_on_c, 2, 57, 45
3, 216096, Note_on_c, 2, 65, 45
3, 216190, Note_on_c, 2, 65, 0
3, 216190, Note_on_c, 2, 57, 0
3, 216192, Note_on_c, 2, 57, 45
3, 216192, Note_on_c, 2, 65, 45
3, 216286, Note_on_c, 2, 65, 0
3, 216286, Note_on_c, 2, 57, 0
3, 216288, Note_on_c, 2, 57, 45
3, 216288, Note_on_c, 2, 65, 45
3, 216382, Note_on_c, 2, 65, 0
3, 216382, Note_on_c, 2, 57, 0
3, 216384, Note_on_c, 2, 57, 45
3, 216384, Note_on_c, 2, 65, 45
3, 216478, Note_on_c, 2, 65, 0
3, 216478, Note_on_c, 2, 57, 0
3, 216480, Note_on_c, 2, 57, 45
3, 216480, Note_on_c, 2, 65, 45
3, 216574, Note_on_c, 2, 65, 0
3, 216574, Note_on_c, 2, 57, 0
3, 216576, Note_on_c, 2, 57, 45
3, 216576, Note_on_c, 2, 65, 45
3, 216670, Note_on_c, 2, 65, 0
3, 216670, Note_on_c, 2, 57, 0
3, 216672, Note_on_c, 2, 57, 45
3, 216672, Note_on_c, 2, 65, 45
3, 216766, Note_on_c, 2, 65, 0
3, 216766, Note_on_c, 2, 57, 0
3, 216768, Note_on_c, 2, 57, 45
3, 216768, Note_on_c, 2, 65, 45
3, 216862, Note_on_c, 2, 65, 0
3, 216862, Note_on_c, 2, 57, 0
3, 216864, Note_on_c, 2, 57, 45
3, 216864, Note_on_c, 2, 65, 45
3, 216958, Note_on_c, 2, 65, 0
3, 216958, Note_on_c, 2, 57, 0
3, 216960, Note_on_c, 2, 57, 45
3, 216960, Note_on_c, 2, 65, 45
3, 217054, Note_on_c, 2, 65, 0
3, 217054, Note_on_c, 2, 57, 0
3, 217056, Note_on_c, 2, 57, 45
3, 217056, Note_on_c, 2, 65, 45
3, 217150, Note_on_c, 2, 65, 0
3, 217150, Note_on_c, 2, 57, 0
3, 217152, Note_on_c, 2, 58, 45
3, 217152, Note_on_c, 2, 67, 45
3, 217246, Note_on_c, 2, 67, 0
3, 217246, Note_on_c, 2, 58, 0
3, 217248, Note_on_c, 2, 58, 45
3, 217248, Note_on_c, 2, 67, 45
3, 217342, Note_on_c, 2, 67, 0
3, 217342, Note_on_c, 2, 58, 0
3, 217344, Note_on_c, 2, 58, 45
3, 217344, Note_on_c, 2, 67, 45
3, 217438, Note_on_c, 2, 67, 0
3, 217438, Note_on_c, 2, 58, 0
3, 217440, Note_on_c, 2, 58, 45
3, 217440, Note_on_c, 2, 67, 45
3, 217534, Note_on_c, 2, 67, 0
3, 217534, Note_on_c, 2, 58, 0
3, 217536, Note_on_c, 2, 58, 45
3, 217536, Note_on_c, 2, 67, 45
3, 217630, Note_on_c, 2, 67, 0
3, 217630, Note_on_c, 2, 58, 0
3, 217632, Note_on_c, 2, 58, 45
3, 217632, Note_on_c, 2, 67, 45
3, 217726, Note_on_c, 2, 67, 0
3, 217726, Note_on_c, 2, 58, 0
3, 217728, Note_on_c, 2, 58, 45
3, 217728, Note_on_c, 2, 67, 45
3, 217822, Note_on_c, 2, 67, 0
3, 217822, Note_on_c, 2, 58, 0
3, 217824, Note_on_c, 2, 58, 45
3, 217824, Note_on_c, 2, 67, 45
3, 217918, Note_on_c, 2, 67, 0
3, 217918, Note_on_c, 2, 58, 0
3, 217920, Note_on_c, 2, 58, 45
3, 217920, Note_on_c, 2, 67, 45
3, 218014, Note_on_c, 2, 67, 0
3, 218014, Note_on_c, 2, 58, 0
3, 218016, Note_on_c, 2, 58, 45
3, 218016, Note_on_c, 2, 67, 45
3, 218110, Note_on_c, 2, 67, 0
3, 218110, Note_on_c, 2, 58, 0
3, 218112, Note_on_c, 2, 58, 45
3, 218112, Note_on_c, 2, 67, 45
3, 218206, Note_on_c, 2, 67, 0
3, 218206, Note_on_c, 2, 58, 0
3, 218208, Note_on_c, 2, 58, 45
3, 218208, Note_on_c, 2, 67, 45
3, 218302, Note_on_c, 2, 67, 0
3, 218302, Note_on_c, 2, 58, 0
3, 218304, Note_on_c, 2, 57, 45
3, 218304, Note_on_c, 2, 65, 45
3, 218398, Note_on_c, 2, 65, 0
3, 218398, Note_on_c, 2, 57, 0
3, 218400, Note_on_c, 2, 65, 45
3, 218400, Note_on_c, 2, 69, 45
3, 218494, Note_on_c, 2, 69, 0
3, 218494, Note_on_c, 2, 65, 0
3, 218496, Note_on_c, 2, 65, 45
3, 218496, Note_on_c, 2, 69, 45
3, 218590, Note_on_c, 2, 69, 0
3, 218590, Note_on_c, 2, 65, 0
3, 218592, Note_on_c, 2, 65, 45
3, 218592, Note_on_c, 2, 69, 45
3, 218686, Note_on_c, 2, 69, 0
3, 218686, Note_on_c, 2, 65, 0
3, 218688, Note_on_c, 2, 65, 45
3, 218688, Note_on_c, 2, 69, 45
3, 218782, Note_on_c, 2, 69, 0
3, 218782, Note_on_c, 2, 65, 0
3, 218784, Note_on_c, 2, 65, 45
3, 218784, Note_on_c, 2, 69, 45
3, 218878, Note_on_c, 2, 69, 0
3, 218878, Note_on_c, 2, 65, 0
3, 218880, Note_on_c, 2, 65, 45
3, 218880, Note_on_c, 2, 69, 45
3, 218974, Note_on_c, 2, 69, 0
3, 218974, Note_on_c, 2, 65, 0
3, 218976, Note_on_c, 2, 65, 45
3, 218976, Note_on_c, 2, 69, 45
3, 219070, Note_on_c, 2, 69, 0
3, 219070, Note_on_c, 2, 65, 0
3, 219072, Note_on_c, 2, 65, 45
3, 219072, Note_on_c, 2, 69, 45
3, 219166, Note_on_c, 2, 69, 0
3, 219166, Note_on_c, 2, 65, 0
3, 219168, Note_on_c, 2, 65, 45
3, 219168, Note_on_c, 2, 69, 45
3, 219262, Note_on_c, 2, 69, 0
3, 219262, Note_on_c, 2, 65, 0
3, 219264, Note_on_c, 2, 65, 45
3, 219264, Note_on_c, 2, 69, 45
3, 219358, Note_on_c, 2, 69, 0
3, 219358, Note_on_c, 2, 65, 0
3, 219360, Note_on_c, 2, 65, 45
3, 219360, Note_on_c, 2, 69, 45
3, 219454, Note_on_c, 2, 69, 0
3, 219454, Note_on_c, 2, 65, 0
3, 219456, Note_on_c, 2, 67, 45
3, 219456, Note_on_c, 2, 70, 45
3, 219550, Note_on_c, 2, 70, 0
3, 219550, Note_on_c, 2, 67, 0
3, 219552, Note_on_c, 2, 67, 45
3, 219552, Note_on_c, 2, 70, 45
3, 219646, Note_on_c, 2, 70, 0
3, 219646, Note_on_c, 2, 67, 0
3, 219648, Note_on_c, 2, 67, 45
3, 219648, Note_on_c, 2, 70, 45
3, 219742, Note_on_c, 2, 70, 0
3, 219742, Note_on_c, 2, 67, 0
3, 219744, Note_on_c, 2, 67, 45
3, 219744, Note_on_c, 2, 70, 45
3, 219838, Note_on_c, 2, 70, 0
3, 219838, Note_on_c, 2, 67, 0
3, 219840, Note_on_c, 2, 67, 45
3, 219840, Note_on_c, 2, 70, 45
3, 219934, Note_on_c, 2, 70, 0
3, 219934, Note_on_c, 2, 67, 0
3, 219936, Note_on_c, 2, 67, 45
3, 219936, Note_on_c, 2, 70, 45
3, 220030, Note_on_c, 2, 70, 0
3, 220030, Note_on_c, 2, 67, 0
3, 220032, Note_on_c, 2, 67, 45
3, 220032, Note_on_c, 2, 70, 45
3, 220126, Note_on_c, 2, 70, 0
3, 220126, Note_on_c, 2, 67, 0
3, 220128, Note_on_c, 2, 67, 45
3, 220128, Note_on_c, 2, 70, 45
3, 220222, Note_on_c, 2, 70, 0
3, 220222, Note_on_c, 2, 67, 0
3, 220224, Note_on_c, 2, 67, 45
3, 220224, Note_on_c, 2, 70, 45
3, 220318, Note_on_c, 2, 70, 0
3, 220318, Note_on_c, 2, 67, 0
3, 220320, Note_on_c, 2, 67, 45
3, 220320, Note_on_c, 2, 70, 45
3, 220414, Note_on_c, 2, 70, 0
3, 220414, Note_on_c, 2, 67, 0
3, 220416, Note_on_c, 2, 67, 45
3, 220416, Note_on_c, 2, 70, 45
3, 220510, Note_on_c, 2, 70, 0
3, 220510, Note_on_c, 2, 67, 0
3, 220512, Note_on_c, 2, 67, 45
3, 220512, Note_on_c, 2, 70, 45
3, 220606, Note_on_c, 2, 70, 0
3, 220606, Note_on_c, 2, 67, 0
3, 220608, Note_on_c, 2, 65, 45
3, 220608, Note_on_c, 2, 69, 45
3, 220656, Note_on_c, 2, 69, 0
3, 220656, Note_on_c, 2, 65, 0
3, 220800, Note_on_c, 2, 65, 45
3, 220800, Note_on_c, 2, 69, 45
3, 220848, Note_on_c, 2, 69, 0
3, 220848, Note_on_c, 2, 65, 0
3, 223488, Note_on_c, 2, 58, 127
3, 223536, Note_on_c, 2, 58, 0
3, 223680, Note_on_c, 2, 60, 127
3, 223728, Note_on_c, 2, 60, 0
3, 223872, Note_on_c, 2, 62, 127
3, 223920, Note_on_c, 2, 62, 0
3, 224064, Note_on_c, 2, 63, 127
3, 225744, Note_on_c, 2, 63, 0
3, 226368, Note_on_c, 2, 55, 127
3, 226416, Note_on_c, 2, 55, 0
3, 226560, Note_on_c, 2, 57, 127
3, 226608, Note_on_c, 2, 57, 0
3, 226752, Note_on_c, 2, 58, 127
3, 226800, Note_on_c, 2, 58, 0
3, 226944, Note_on_c, 2, 60, 127
3, 228624, Note_on_c, 2, 60, 0
3, 228672, Note_on_c, 2, 55, 30
3, 228720, Note_on_c, 2, 55, 0
3, 228864, Note_on_c, 2, 57, 30
3, 228912, Note_on_c, 2, 57, 0
3, 229056, Note_on_c, 2, 59, 30
3, 229104, Note_on_c, 2, 59, 0
3, 229248, Note_on_c, 2, 60, 30
3, 229296, Note_on_c, 2, 60, 0
3, 229440, Note_on_c, 2, 62, 30
3, 229488, Note_on_c, 2, 62, 0
3, 229632, Note_on_c, 2, 64, 30
3, 229680, Note_on_c, 2, 64, 0
3, 229824, Note_on_c, 2, 65, 30
3, 230016, Note_on_c, 2, 65, 0
3, 230016, Note_on_c, 2, 62, 30
3, 230208, Note_on_c, 2, 62, 0
3, 230208, Note_on_c, 2, 59, 30
3, 230368, Note_on_c, 2, 59, 0
3, 230976, Note_on_c, 2, 70, 30
3, 231008, Note_on_c, 2, 70, 0
3, 231072, Note_on_c, 2, 72, 30
3, 231120, Note_on_c, 2, 72, 0
3, 231120, Note_on_c, 2, 70, 30
3, 231166, Note_on_c, 2, 70, 0
3, 231168, Note_on_c, 2, 69, 30
3, 231200, Note_on_c, 2, 69, 0
3, 231264, Note_on_c, 2, 70, 30
3, 231312, Note_on_c, 2, 70, 0
3, 231312, Note_on_c, 2, 69, 30
3, 231358, Note_on_c, 2, 69, 0
3, 231360, Note_on_c, 2, 67, 30
3, 231392, Note_on_c, 2, 67, 0
3, 231456, Note_on_c, 2, 69, 30
3, 231504, Note_on_c, 2, 69, 0
3, 231504, Note_on_c, 2, 67, 30
3, 231550, Note_on_c, 2, 67, 0
3, 231552, Note_on_c, 2, 65, 30
3, 231584, Note_on_c, 2, 65, 0
3, 231648, Note_on_c, 2, 67, 30
3, 231696, Note_on_c, 2, 67, 0
3, 231696, Note_on_c, 2, 65, 30
3, 231742, Note_on_c, 2, 65, 0
3, 231744, Note_on_c, 2, 64, 30
3, 231776, Note_on_c, 2, 64, 0
3, 231840, Note_on_c, 2, 65, 30
3, 231888, Note_on_c, 2, 65, 0
3, 231888, Note_on_c, 2, 64, 30
3, 231934, Note_on_c, 2, 64, 0
3, 231936, Note_on_c, 2, 62, 30
3, 231968, Note_on_c, 2, 62, 0
3, 232032, Note_on_c, 2, 64, 30
3, 232080, Note_on_c, 2, 64, 0
3, 232080, Note_on_c, 2, 62, 30
3, 232126, Note_on_c, 2, 62, 0
3, 232128, Note_on_c, 2, 60, 30
3, 232416, Note_on_c, 2, 60, 0
3, 232416, Note_on_c, 2, 62, 30
3, 232464, Note_on_c, 2, 62, 0
3, 232464, Note_on_c, 2, 60, 30
3, 232510, Note_on_c, 2, 60, 0
3, 232512, Note_on_c, 2, 59, 30
3, 232544, Note_on_c, 2, 59, 0
3, 232608, Note_on_c, 2, 60, 30
3, 232640, Note_on_c, 2, 60, 0
3, 232704, Note_on_c, 2, 70, 30
3, 232864, Note_on_c, 2, 70, 0
3, 233280, Note_on_c, 2, 60, 45
3, 233568, Note_on_c, 2, 60, 0
3, 233568, Note_on_c, 2, 62, 30
3, 233616, Note_on_c, 2, 62, 0
3, 233616, Note_on_c, 2, 60, 30
3, 233662, Note_on_c, 2, 60, 0
3, 233664, Note_on_c, 2, 59, 30
3, 233696, Note_on_c, 2, 59, 0
3, 233760, Note_on_c, 2, 60, 30
3, 233792, Note_on_c, 2, 60, 0
3, 233856, Note_on_c, 2, 69, 30
3, 234016, Note_on_c, 2, 69, 0
3, 235008, Note_on_c, 2, 79, 30
3, 235200, Note_on_c, 2, 79, 0
3, 235200, Note_on_c, 2, 76, 32
3, 235392, Note_on_c, 2, 76, 0
3, 235392, Note_on_c, 2, 70, 35
3, 235552, Note_on_c, 2, 70, 0
3, 235584, Note_on_c, 2, 69, 38
3, 236112, Note_on_c, 2, 69, 0
3, 236160, Note_on_c, 2, 73, 65
3, 236688, Note_on_c, 2, 73, 0
3, 236736, Note_on_c, 2, 72, 56
3, 237264, Note_on_c, 2, 72, 0
3, 237312, Note_on_c, 2, 70, 91
3, 237840, Note_on_c, 2, 70, 0
3, 237888, Note_on_c, 2, 75, 74
3, 238416, Note_on_c, 2, 75, 0
3, 238464, Note_on_c, 2, 68, 116
3, 238992, Note_on_c, 2, 68, 0
3, 239040, Note_on_c, 2, 69, 30
3, 239328, Note_on_c, 2, 69, 0
3, 239328, Note_on_c, 2, 70, 30
3, 239376, Note_on_c, 2, 70, 0
3, 239376, Note_on_c, 2, 69, 30
3, 239422, Note_on_c, 2, 69, 0
3, 239424, Note_on_c, 2, 67, 30
3, 239456, Note_on_c, 2, 67, 0
3, 239520, Note_on_c, 2, 69, 30
3, 239552, Note_on_c, 2, 69, 0
3, 239616, Note_on_c, 2, 70, 30
3, 240000, Note_on_c, 2, 70, 0
3, 240000, Note_on_c, 2, 55, 30
3, 240160, Note_on_c, 2, 55, 0
3, 240192, Note_on_c, 2, 57, 30
3, 240352, Note_on_c, 2, 57, 0
3, 240384, Note_on_c, 2, 57, 30
3, 240544, Note_on_c, 2, 57, 0
3, 240576, Note_on_c, 2, 57, 30
3, 240736, Note_on_c, 2, 57, 0
3, 240768, Note_on_c, 2, 58, 30
3, 241296, Note_on_c, 2, 58, 0
3, 241344, Note_on_c, 2, 57, 30
3, 241392, Note_on_c, 2, 57, 0
3, 241536, Note_on_c, 2, 65, 30
3, 241584, Note_on_c, 2, 65, 0
3, 241728, Note_on_c, 2, 65, 30
3, 241776, Note_on_c, 2, 65, 0
3, 241920, Note_on_c, 2, 65, 30
3, 241968, Note_on_c, 2, 65, 0
3, 241968, Note_on_c, 2, 64, 30
3, 242016, Note_on_c, 2, 64, 0
3, 242016, Note_on_c, 2, 62, 30
3, 242064, Note_on_c, 2, 62, 0
3, 242064, Note_on_c, 2, 64, 30
3, 242112, Note_on_c, 2, 64, 0
3, 242112, Note_on_c, 2, 65, 30
3, 242160, Note_on_c, 2, 65, 0
3, 242160, Note_on_c, 2, 64, 30
3, 242208, Note_on_c, 2, 64, 0
3, 242208, Note_on_c, 2, 62, 30
3, 242256, Note_on_c, 2, 62, 0
3, 242256, Note_on_c, 2, 64, 30
3, 242304, Note_on_c, 2, 64, 0
3, 242304, Note_on_c, 2, 65, 30
3, 242352, Note_on_c, 2, 65, 0
3, 242352, Note_on_c, 2, 64, 30
3, 242400, Note_on_c, 2, 64, 0
3, 242400, Note_on_c, 2, 62, 30
3, 242448, Note_on_c, 2, 62, 0
3, 242448, Note_on_c, 2, 64, 30
3, 242494, Note_on_c, 2, 64, 0
3, 242496, Note_on_c, 2, 65, 30
3, 242656, Note_on_c, 2, 65, 0
3, 242784, Note_on_c, 2, 70, 30
3, 242832, Note_on_c, 2, 70, 0
3, 242832, Note_on_c, 2, 69, 30
3, 242878, Note_on_c, 2, 69, 0
3, 242880, Note_on_c, 2, 67, 30
3, 242912, Note_on_c, 2, 67, 0
3, 242976, Note_on_c, 2, 69, 30
3, 243008, Note_on_c, 2, 69, 0
3, 243072, Note_on_c, 2, 70, 30
3, 243648, Note_on_c, 2, 70, 0
3, 243648, Note_on_c, 2, 69, 30
3, 243808, Note_on_c, 2, 69, 0
3, 243936, Note_on_c, 2, 79, 30
3, 243984, Note_on_c, 2, 79, 0
3, 243984, Note_on_c, 2, 77, 30
3, 244030, Note_on_c, 2, 77, 0
3, 244032, Note_on_c, 2, 76, 30
3, 244064, Note_on_c, 2, 76, 0
3, 244128, Note_on_c, 2, 77, 30
3, 244160, Note_on_c, 2, 77, 0
3, 244224, Note_on_c, 2, 79, 30
3, 244752, Note_on_c, 2, 79, 0
3, 244800, Note_on_c, 2, 77, 92
3, 244960, Note_on_c, 2, 77, 0
3, 246720, Note_on_c, 2, 57, 92
3, 246720, Note_on_c, 2, 65, 92
3, 246768, Note_on_c, 2, 65, 0
3, 246768, Note_on_c, 2, 57, 0
3, 246768, End_track
4, 0, Start_track
4, 0, Title_t, "Viola."
4, 0, Program_c, 3, 48
4, 0, Control_c, 3, 7, 127
4, 0, Control_c, 3, 10, 64
4, 0, Note_on_c, 3, 53, 60
4, 288, Note_on_c, 3, 53, 0
4, 288, Note_on_c, 3, 55, 60
4, 336, Note_on_c, 3, 55, 0
4, 336, Note_on_c, 3, 53, 60
4, 382, Note_on_c, 3, 53, 0
4, 384, Note_on_c, 3, 52, 60
4, 416, Note_on_c, 3, 52, 0
4, 480, Note_on_c, 3, 53, 60
4, 512, Note_on_c, 3, 53, 0
4, 576, Note_on_c, 3, 48, 60
4, 736, Note_on_c, 3, 48, 0
4, 1152, Note_on_c, 3, 53, 60
4, 1440, Note_on_c, 3, 53, 0
4, 1440, Note_on_c, 3, 55, 60
4, 1488, Note_on_c, 3, 55, 0
4, 1488, Note_on_c, 3, 53, 60
4, 1534, Note_on_c, 3, 53, 0
4, 1536, Note_on_c, 3, 52, 60
4, 1568, Note_on_c, 3, 52, 0
4, 1632, Note_on_c, 3, 53, 60
4, 1664, Note_on_c, 3, 53, 0
4, 1728, Note_on_c, 3, 50, 60
4, 1888, Note_on_c, 3, 50, 0
4, 2304, Note_on_c, 3, 62, 45
4, 2880, Note_on_c, 3, 62, 0
4, 2880, Note_on_c, 3, 60, 92
4, 3456, Note_on_c, 3, 60, 0
4, 3456, Note_on_c, 3, 60, 45
4, 3648, Note_on_c, 3, 60, 0
4, 3648, Note_on_c, 3, 62, 45
4, 3840, Note_on_c, 3, 62, 0
4, 3840, Note_on_c, 3, 55, 45
4, 4000, Note_on_c, 3, 55, 0
4, 4032, Note_on_c, 3, 60, 45
4, 4128, Note_on_c, 3, 60, 0
4, 4128, Note_on_c, 3, 59, 45
4, 4224, Note_on_c, 3, 59, 0
4, 4224, Note_on_c, 3, 60, 45
4, 4320, Note_on_c, 3, 60, 0
4, 4320, Note_on_c, 3, 59, 45
4, 4416, Note_on_c, 3, 59, 0
4, 4416, Note_on_c, 3, 60, 45
4, 4576, Note_on_c, 3, 60, 0
4, 4608, Note_on_c, 3, 53, 108
4, 4896, Note_on_c, 3, 53, 0
4, 4896, Note_on_c, 3, 55, 108
4, 4944, Note_on_c, 3, 55, 0
4, 4944, Note_on_c, 3, 53, 108
4, 4990, Note_on_c, 3, 53, 0
4, 4992, Note_on_c, 3, 52, 108
4, 5024, Note_on_c, 3, 52, 0
4, 5088, Note_on_c, 3, 53, 108
4, 5120, Note_on_c, 3, 53, 0
4, 5184, Note_on_c, 3, 48, 108
4, 5344, Note_on_c, 3, 48, 0
4, 5760, Note_on_c, 3, 53, 108
4, 6048, Note_on_c, 3, 53, 0
4, 6048, Note_on_c, 3, 55, 108
4, 6096, Note_on_c, 3, 55, 0
4, 6096, Note_on_c, 3, 53, 108
4, 6142, Note_on_c, 3, 53, 0
4, 6144, Note_on_c, 3, 52, 108
4, 6176, Note_on_c, 3, 52, 0
4, 6240, Note_on_c, 3, 53, 108
4, 6272, Note_on_c, 3, 53, 0
4, 6336, Note_on_c, 3, 50, 108
4, 6496, Note_on_c, 3, 50, 0
4, 7488, Note_on_c, 3, 70, 45
4, 7872, Note_on_c, 3, 70, 0
4, 7872, Note_on_c, 3, 70, 92
4, 8032, Note_on_c, 3, 70, 0
4, 8640, Note_on_c, 3, 75, 45
4, 9024, Note_on_c, 3, 75, 0
4, 9024, Note_on_c, 3, 75, 92
4, 9184, Note_on_c, 3, 75, 0
4, 9792, Note_on_c, 3, 66, 45
4, 10080, Note_on_c, 3, 66, 0
4, 10080, Note_on_c, 3, 67, 56
4, 10176, Note_on_c, 3, 67, 0
4, 10176, Note_on_c, 3, 69, 60
4, 10270, Note_on_c, 3, 69, 0
4, 10368, Note_on_c, 3, 72, 68
4, 10752, Note_on_c, 3, 72, 0
4, 10752, Note_on_c, 3, 64, 84
4, 10912, Note_on_c, 3, 64, 0
4, 10944, Note_on_c, 3, 65, 45
4, 11104, Note_on_c, 3, 65, 0
4, 12096, Note_on_c, 3, 68, 63
4, 12624, Note_on_c, 3, 68, 0
4, 13248, Note_on_c, 3, 58, 63
4, 13776, Note_on_c, 3, 58, 0
4, 14400, Note_on_c, 3, 63, 63
4, 14736, Note_on_c, 3, 63, 0
4, 14784, Note_on_c, 3, 63, 45
4, 14944, Note_on_c, 3, 63, 0
4, 14976, Note_on_c, 3, 66, 63
4, 15360, Note_on_c, 3, 66, 0
4, 15360, Note_on_c, 3, 67, 45
4, 15408, Note_on_c, 3, 67, 0
4, 15552, Note_on_c, 3, 58, 92
4, 15600, Note_on_c, 3, 58, 0
4, 15744, Note_on_c, 3, 58, 92
4, 15792, Note_on_c, 3, 58, 0
4, 15936, Note_on_c, 3, 58, 92
4, 15984, Note_on_c, 3, 58, 0
4, 16128, Note_on_c, 3, 57, 92
4, 16222, Note_on_c, 3, 57, 0
4, 16224, Note_on_c, 3, 60, 45
4, 16318, Note_on_c, 3, 60, 0
4, 16320, Note_on_c, 3, 60, 45
4, 16414, Note_on_c, 3, 60, 0
4, 16416, Note_on_c, 3, 60, 45
4, 16510, Note_on_c, 3, 60, 0
4, 16512, Note_on_c, 3, 60, 45
4, 16606, Note_on_c, 3, 60, 0
4, 16608, Note_on_c, 3, 60, 45
4, 16702, Note_on_c, 3, 60, 0
4, 16704, Note_on_c, 3, 60, 45
4, 16798, Note_on_c, 3, 60, 0
4, 16800, Note_on_c, 3, 60, 45
4, 16894, Note_on_c, 3, 60, 0
4, 16896, Note_on_c, 3, 60, 45
4, 16990, Note_on_c, 3, 60, 0
4, 16992, Note_on_c, 3, 60, 45
4, 17086, Note_on_c, 3, 60, 0
4, 17088, Note_on_c, 3, 60, 45
4, 17182, Note_on_c, 3, 60, 0
4, 17184, Note_on_c, 3, 60, 45
4, 17278, Note_on_c, 3, 60, 0
4, 17280, Note_on_c, 3, 60, 45
4, 17374, Note_on_c, 3, 60, 0
4, 17376, Note_on_c, 3, 60, 45
4, 17470, Note_on_c, 3, 60, 0
4, 17472, Note_on_c, 3, 60, 45
4, 17566, Note_on_c, 3, 60, 0
4, 17568, Note_on_c, 3, 60, 45
4, 17662, Note_on_c, 3, 60, 0
4, 17664, Note_on_c, 3, 60, 45
4, 17758, Note_on_c, 3, 60, 0
4, 17760, Note_on_c, 3, 60, 45
4, 17854, Note_on_c, 3, 60, 0
4, 17856, Note_on_c, 3, 60, 45
4, 17950, Note_on_c, 3, 60, 0
4, 17952, Note_on_c, 3, 60, 45
4, 18046, Note_on_c, 3, 60, 0
4, 18048, Note_on_c, 3, 60, 45
4, 18142, Note_on_c, 3, 60, 0
4, 18144, Note_on_c, 3, 60, 45
4, 18238, Note_on_c, 3, 60, 0
4, 18240, Note_on_c, 3, 60, 45
4, 18334, Note_on_c, 3, 60, 0
4, 18336, Note_on_c, 3, 60, 45
4, 18430, Note_on_c, 3, 60, 0
4, 18432, Note_on_c, 3, 60, 45
4, 18526, Note_on_c, 3, 60, 0
4, 18528, Note_on_c, 3, 60, 45
4, 18622, Note_on_c, 3, 60, 0
4, 18624, Note_on_c, 3, 60, 45
4, 18718, Note_on_c, 3, 60, 0
4, 18720, Note_on_c, 3, 60, 45
4, 18814, Note_on_c, 3, 60, 0
4, 18816, Note_on_c, 3, 60, 45
4, 18910, Note_on_c, 3, 60, 0
4, 18912, Note_on_c, 3, 60, 45
4, 19006, Note_on_c, 3, 60, 0
4, 19008, Note_on_c, 3, 60, 45
4, 19102, Note_on_c, 3, 60, 0
4, 19104, Note_on_c, 3, 60, 45
4, 19198, Note_on_c, 3, 60, 0
4, 19200, Note_on_c, 3, 60, 45
4, 19294, Note_on_c, 3, 60, 0
4, 19296, Note_on_c, 3, 60, 45
4, 19390, Note_on_c, 3, 60, 0
4, 19392, Note_on_c, 3, 60, 45
4, 19486, Note_on_c, 3, 60, 0
4, 19488, Note_on_c, 3, 60, 45
4, 19582, Note_on_c, 3, 60, 0
4, 19584, Note_on_c, 3, 64, 45
4, 19678, Note_on_c, 3, 64, 0
4, 19680, Note_on_c, 3, 64, 45
4, 19774, Note_on_c, 3, 64, 0
4, 19776, Note_on_c, 3, 64, 45
4, 19870, Note_on_c, 3, 64, 0
4, 19872, Note_on_c, 3, 64, 45
4, 19966, Note_on_c, 3, 64, 0
4, 19968, Note_on_c, 3, 64, 45
4, 20062, Note_on_c, 3, 64, 0
4, 20064, Note_on_c, 3, 64, 45
4, 20158, Note_on_c, 3, 64, 0
4, 20160, Note_on_c, 3, 64, 45
4, 20254, Note_on_c, 3, 64, 0
4, 20256, Note_on_c, 3, 64, 45
4, 20350, Note_on_c, 3, 64, 0
4, 20352, Note_on_c, 3, 64, 45
4, 20446, Note_on_c, 3, 64, 0
4, 20448, Note_on_c, 3, 64, 45
4, 20542, Note_on_c, 3, 64, 0
4, 20544, Note_on_c, 3, 64, 45
4, 20638, Note_on_c, 3, 64, 0
4, 20640, Note_on_c, 3, 64, 45
4, 20734, Note_on_c, 3, 64, 0
4, 20736, Note_on_c, 3, 64, 45
4, 20830, Note_on_c, 3, 64, 0
4, 20832, Note_on_c, 3, 64, 45
4, 20926, Note_on_c, 3, 64, 0
4, 20928, Note_on_c, 3, 61, 45
4, 21022, Note_on_c, 3, 61, 0
4, 21024, Note_on_c, 3, 61, 45
4, 21118, Note_on_c, 3, 61, 0
4, 21120, Note_on_c, 3, 64, 45
4, 21214, Note_on_c, 3, 64, 0
4, 21216, Note_on_c, 3, 64, 45
4, 21310, Note_on_c, 3, 64, 0
4, 21312, Note_on_c, 3, 62, 45
4, 21406, Note_on_c, 3, 62, 0
4, 21408, Note_on_c, 3, 62, 45
4, 21502, Note_on_c, 3, 62, 0
4, 21504, Note_on_c, 3, 62, 45
4, 21598, Note_on_c, 3, 62, 0
4, 21600, Note_on_c, 3, 62, 45
4, 21694, Note_on_c, 3, 62, 0
4, 21696, Note_on_c, 3, 62, 45
4, 21790, Note_on_c, 3, 62, 0
4, 21792, Note_on_c, 3, 62, 45
4, 21886, Note_on_c, 3, 62, 0
4, 21888, Note_on_c, 3, 62, 45
4, 21982, Note_on_c, 3, 62, 0
4, 21984, Note_on_c, 3, 62, 45
4, 22078, Note_on_c, 3, 62, 0
4, 22080, Note_on_c, 3, 59, 45
4, 22174, Note_on_c, 3, 59, 0
4, 22176, Note_on_c, 3, 59, 45
4, 22270, Note_on_c, 3, 59, 0
4, 22272, Note_on_c, 3, 62, 45
4, 22366, Note_on_c, 3, 62, 0
4, 22368, Note_on_c, 3, 62, 45
4, 22462, Note_on_c, 3, 62, 0
4, 22464, Note_on_c, 3, 60, 45
4, 22558, Note_on_c, 3, 60, 0
4, 22560, Note_on_c, 3, 60, 45
4, 22654, Note_on_c, 3, 60, 0
4, 22656, Note_on_c, 3, 60, 45
4, 22750, Note_on_c, 3, 60, 0
4, 22752, Note_on_c, 3, 60, 45
4, 22846, Note_on_c, 3, 60, 0
4, 22848, Note_on_c, 3, 60, 45
4, 22942, Note_on_c, 3, 60, 0
4, 22944, Note_on_c, 3, 60, 45
4, 23038, Note_on_c, 3, 60, 0
4, 23040, Note_on_c, 3, 51, 30
4, 23328, Note_on_c, 3, 51, 0
4, 23328, Note_on_c, 3, 53, 30
4, 23376, Note_on_c, 3, 53, 0
4, 23376, Note_on_c, 3, 51, 30
4, 23422, Note_on_c, 3, 51, 0
4, 23424, Note_on_c, 3, 50, 30
4, 23456, Note_on_c, 3, 50, 0
4, 23520, Note_on_c, 3, 51, 30
4, 23552, Note_on_c, 3, 51, 0
4, 23616, Note_on_c, 3, 51, 30
4, 24144, Note_on_c, 3, 51, 0
4, 24192, Note_on_c, 3, 51, 30
4, 24480, Note_on_c, 3, 51, 0
4, 24480, Note_on_c, 3, 53, 30
4, 24526, Note_on_c, 3, 53, 0
4, 24528, Note_on_c, 3, 51, 30
4, 24574, Note_on_c, 3, 51, 0
4, 24576, Note_on_c, 3, 50, 30
4, 24608, Note_on_c, 3, 50, 0
4, 24672, Note_on_c, 3, 51, 30
4, 24704, Note_on_c, 3, 51, 0
4, 24768, Note_on_c, 3, 51, 30
4, 25296, Note_on_c, 3, 51, 0
4, 25344, Note_on_c, 3, 51, 30
4, 25632, Note_on_c, 3, 51, 0
4, 25632, Note_on_c, 3, 52, 30
4, 25680, Note_on_c, 3, 52, 0
4, 25680, Note_on_c, 3, 51, 30
4, 25726, Note_on_c, 3, 51, 0
4, 25728, Note_on_c, 3, 50, 30
4, 25760, Note_on_c, 3, 50, 0
4, 25824, Note_on_c, 3, 51, 30
4, 25856, Note_on_c, 3, 51, 0
4, 25920, Note_on_c, 3, 51, 30
4, 26080, Note_on_c, 3, 51, 0
4, 26112, Note_on_c, 3, 69, 30
4, 26160, Note_on_c, 3, 69, 0
4, 26304, Note_on_c, 3, 69, 42
4, 26352, Note_on_c, 3, 69, 0
4, 26496, Note_on_c, 3, 59, 75
4, 27024, Note_on_c, 3, 59, 0
4, 27072, Note_on_c, 3, 60, 92
4, 27120, Note_on_c, 3, 60, 0
4, 27264, Note_on_c, 3, 65, 92
4, 27312, Note_on_c, 3, 65, 0
4, 27456, Note_on_c, 3, 63, 92
4, 27504, Note_on_c, 3, 63, 0
4, 27648, Note_on_c, 3, 62, 92
4, 27808, Note_on_c, 3, 62, 0
4, 27936, Note_on_c, 3, 59, 45
4, 27968, Note_on_c, 3, 59, 0
4, 28032, Note_on_c, 3, 59, 45
4, 28064, Note_on_c, 3, 59, 0
4, 28128, Note_on_c, 3, 60, 45
4, 28160, Note_on_c, 3, 60, 0
4, 28224, Note_on_c, 3, 59, 45
4, 28384, Note_on_c, 3, 59, 0
4, 28512, Note_on_c, 3, 67, 45
4, 28544, Note_on_c, 3, 67, 0
4, 28608, Note_on_c, 3, 67, 45
4, 28640, Note_on_c, 3, 67, 0
4, 28704, Note_on_c, 3, 67, 45
4, 28736, Note_on_c, 3, 67, 0
4, 28800, Note_on_c, 3, 67, 45
4, 28960, Note_on_c, 3, 67, 0
4, 29088, Note_on_c, 3, 59, 45
4, 29120, Note_on_c, 3, 59, 0
4, 29184, Note_on_c, 3, 59, 49
4, 29216, Note_on_c, 3, 59, 0
4, 29280, Note_on_c, 3, 60, 53
4, 29312, Note_on_c, 3, 60, 0
4, 29376, Note_on_c, 3, 59, 57
4, 29536, Note_on_c, 3, 59, 0
4, 29664, Note_on_c, 3, 67, 69
4, 29696, Note_on_c, 3, 67, 0
4, 29760, Note_on_c, 3, 67, 73
4, 29792, Note_on_c, 3, 67, 0
4, 29856, Note_on_c, 3, 67, 77
4, 29888, Note_on_c, 3, 67, 0
4, 29952, Note_on_c, 3, 67, 81
4, 30112, Note_on_c, 3, 67, 0
4, 30240, Note_on_c, 3, 59, 94
4, 30272, Note_on_c, 3, 59, 0
4, 30336, Note_on_c, 3, 59, 98
4, 30368, Note_on_c, 3, 59, 0
4, 30432, Note_on_c, 3, 60, 103
4, 30464, Note_on_c, 3, 60, 0
4, 30528, Note_on_c, 3, 59, 108
4, 30574, Note_on_c, 3, 59, 0
4, 33216, Note_on_c, 3, 65, 45
4, 33248, Note_on_c, 3, 65, 0
4, 33312, Note_on_c, 3, 65, 45
4, 33408, Note_on_c, 3, 65, 0
4, 33408, Note_on_c, 3, 64, 45
4, 33502, Note_on_c, 3, 64, 0
4, 33504, Note_on_c, 3, 64, 45
4, 33600, Note_on_c, 3, 64, 0
4, 33600, Note_on_c, 3, 62, 45
4, 33694, Note_on_c, 3, 62, 0
4, 33696, Note_on_c, 3, 62, 45
4, 33792, Note_on_c, 3, 62, 0
4, 33792, Note_on_c, 3, 60, 45
4, 33886, Note_on_c, 3, 60, 0
4, 33888, Note_on_c, 3, 60, 45
4, 33982, Note_on_c, 3, 60, 0
4, 33984, Note_on_c, 3, 59, 45
4, 34320, Note_on_c, 3, 59, 0
4, 34368, Note_on_c, 3, 64, 45
4, 34400, Note_on_c, 3, 64, 0
4, 34464, Note_on_c, 3, 64, 45
4, 34560, Note_on_c, 3, 64, 0
4, 34560, Note_on_c, 3, 65, 45
4, 34654, Note_on_c, 3, 65, 0
4, 34656, Note_on_c, 3, 65, 45
4, 34752, Note_on_c, 3, 65, 0
4, 34752, Note_on_c, 3, 62, 45
4, 34846, Note_on_c, 3, 62, 0
4, 34848, Note_on_c, 3, 62, 45
4, 34944, Note_on_c, 3, 62, 0
4, 34944, Note_on_c, 3, 59, 45
4, 35038, Note_on_c, 3, 59, 0
4, 35040, Note_on_c, 3, 59, 45
4, 35136, Note_on_c, 3, 59, 0
4, 35136, Note_on_c, 3, 56, 45
4, 35230, Note_on_c, 3, 56, 0
4, 35232, Note_on_c, 3, 56, 45
4, 35328, Note_on_c, 3, 56, 0
4, 35328, Note_on_c, 3, 64, 45
4, 35422, Note_on_c, 3, 64, 0
4, 35424, Note_on_c, 3, 64, 45
4, 35520, Note_on_c, 3, 64, 0
4, 35520, Note_on_c, 3, 62, 45
4, 35614, Note_on_c, 3, 62, 0
4, 35616, Note_on_c, 3, 62, 45
4, 35712, Note_on_c, 3, 62, 0
4, 35712, Note_on_c, 3, 60, 45
4, 35806, Note_on_c, 3, 60, 0
4, 35808, Note_on_c, 3, 60, 45
4, 35904, Note_on_c, 3, 60, 0
4, 35904, Note_on_c, 3, 57, 45
4, 35998, Note_on_c, 3, 57, 0
4, 36000, Note_on_c, 3, 57, 45
4, 36096, Note_on_c, 3, 57, 0
4, 36096, Note_on_c, 3, 62, 45
4, 36190, Note_on_c, 3, 62, 0
4, 36192, Note_on_c, 3, 62, 45
4, 36288, Note_on_c, 3, 62, 0
4, 36288, Note_on_c, 3, 55, 45
4, 36382, Note_on_c, 3, 55, 0
4, 36384, Note_on_c, 3, 55, 45
4, 36480, Note_on_c, 3, 55, 0
4, 36480, Note_on_c, 3, 67, 45
4, 36574, Note_on_c, 3, 67, 0
4, 37824, Note_on_c, 3, 55, 45
4, 37856, Note_on_c, 3, 55, 0
4, 37920, Note_on_c, 3, 55, 45
4, 38110, Note_on_c, 3, 55, 0
4, 38112, Note_on_c, 3, 67, 45
4, 38208, Note_on_c, 3, 67, 0
4, 38208, Note_on_c, 3, 65, 45
4, 38302, Note_on_c, 3, 65, 0
4, 38304, Note_on_c, 3, 65, 45
4, 38400, Note_on_c, 3, 65, 0
4, 38400, Note_on_c, 3, 64, 45
4, 38494, Note_on_c, 3, 64, 0
4, 38496, Note_on_c, 3, 64, 45
4, 38590, Note_on_c, 3, 64, 0
4, 38592, Note_on_c, 3, 62, 45
4, 38848, Note_on_c, 3, 62, 0
4, 39360, Note_on_c, 3, 68, 45
4, 39392, Note_on_c, 3, 68, 0
4, 39456, Note_on_c, 3, 68, 45
4, 39552, Note_on_c, 3, 68, 0
4, 39552, Note_on_c, 3, 65, 45
4, 39646, Note_on_c, 3, 65, 0
4, 39648, Note_on_c, 3, 65, 45
4, 39744, Note_on_c, 3, 65, 0
4, 39744, Note_on_c, 3, 62, 45
4, 39838, Note_on_c, 3, 62, 0
4, 39840, Note_on_c, 3, 62, 45
4, 39936, Note_on_c, 3, 62, 0
4, 39936, Note_on_c, 3, 63, 49
4, 40030, Note_on_c, 3, 63, 0
4, 40032, Note_on_c, 3, 60, 53
4, 40128, Note_on_c, 3, 60, 0
4, 40128, Note_on_c, 3, 54, 57
4, 40222, Note_on_c, 3, 54, 0
4, 40224, Note_on_c, 3, 54, 61
4, 40320, Note_on_c, 3, 54, 0
4, 40320, Note_on_c, 3, 55, 65
4, 40414, Note_on_c, 3, 55, 0
4, 40416, Note_on_c, 3, 55, 69
4, 40512, Note_on_c, 3, 55, 0
4, 40512, Note_on_c, 3, 67, 73
4, 40606, Note_on_c, 3, 67, 0
4, 40608, Note_on_c, 3, 67, 77
4, 40704, Note_on_c, 3, 67, 0
4, 40704, Note_on_c, 3, 55, 82
4, 40798, Note_on_c, 3, 55, 0
4, 40800, Note_on_c, 3, 55, 87
4, 40894, Note_on_c, 3, 55, 0
4, 40896, Note_on_c, 3, 60, 45
4, 40990, Note_on_c, 3, 60, 0
4, 40992, Note_on_c, 3, 48, 45
4, 41086, Note_on_c, 3, 48, 0
4, 41088, Note_on_c, 3, 48, 45
4, 41182, Note_on_c, 3, 48, 0
4, 41184, Note_on_c, 3, 48, 45
4, 41278, Note_on_c, 3, 48, 0
4, 41280, Note_on_c, 3, 48, 45
4, 41374, Note_on_c, 3, 48, 0
4, 41376, Note_on_c, 3, 48, 45
4, 41470, Note_on_c, 3, 48, 0
4, 41472, Note_on_c, 3, 48, 45
4, 41566, Note_on_c, 3, 48, 0
4, 41568, Note_on_c, 3, 48, 45
4, 41662, Note_on_c, 3, 48, 0
4, 41664, Note_on_c, 3, 48, 45
4, 41758, Note_on_c, 3, 48, 0
4, 41760, Note_on_c, 3, 48, 45
4, 41854, Note_on_c, 3, 48, 0
4, 41856, Note_on_c, 3, 48, 45
4, 41950, Note_on_c, 3, 48, 0
4, 41952, Note_on_c, 3, 48, 45
4, 42046, Note_on_c, 3, 48, 0
4, 42048, Note_on_c, 3, 50, 45
4, 42142, Note_on_c, 3, 50, 0
4, 42144, Note_on_c, 3, 50, 45
4, 42238, Note_on_c, 3, 50, 0
4, 42240, Note_on_c, 3, 50, 45
4, 42334, Note_on_c, 3, 50, 0
4, 42336, Note_on_c, 3, 50, 45
4, 42430, Note_on_c, 3, 50, 0
4, 42432, Note_on_c, 3, 50, 45
4, 42526, Note_on_c, 3, 50, 0
4, 42528, Note_on_c, 3, 50, 45
4, 42622, Note_on_c, 3, 50, 0
4, 42624, Note_on_c, 3, 50, 45
4, 42624, Note_on_c, 3, 55, 45
4, 42718, Note_on_c, 3, 55, 0
4, 42718, Note_on_c, 3, 50, 0
4, 42720, Note_on_c, 3, 50, 45
4, 42720, Note_on_c, 3, 55, 45
4, 42814, Note_on_c, 3, 55, 0
4, 42814, Note_on_c, 3, 50, 0
4, 42816, Note_on_c, 3, 50, 45
4, 42816, Note_on_c, 3, 55, 45
4, 42910, Note_on_c, 3, 55, 0
4, 42910, Note_on_c, 3, 50, 0
4, 42912, Note_on_c, 3, 50, 45
4, 42912, Note_on_c, 3, 55, 45
4, 43006, Note_on_c, 3, 55, 0
4, 43006, Note_on_c, 3, 50, 0
4, 43008, Note_on_c, 3, 50, 45
4, 43008, Note_on_c, 3, 55, 45
4, 43102, Note_on_c, 3, 55, 0
4, 43102, Note_on_c, 3, 50, 0
4, 43104, Note_on_c, 3, 50, 45
4, 43104, Note_on_c, 3, 55, 45
4, 43198, Note_on_c, 3, 55, 0
4, 43198, Note_on_c, 3, 50, 0
4, 43200, Note_on_c, 3, 52, 45
4, 43200, Note_on_c, 3, 55, 45
4, 43294, Note_on_c, 3, 55, 0
4, 43294, Note_on_c, 3, 52, 0
4, 43296, Note_on_c, 3, 52, 52
4, 43296, Note_on_c, 3, 55, 52
4, 43390, Note_on_c, 3, 55, 0
4, 43390, Note_on_c, 3, 52, 0
4, 43392, Note_on_c, 3, 52, 60
4, 43392, Note_on_c, 3, 55, 60
4, 43486, Note_on_c, 3, 55, 0
4, 43486, Note_on_c, 3, 52, 0
4, 43488, Note_on_c, 3, 52, 68
4, 43488, Note_on_c, 3, 55, 68
4, 43582, Note_on_c, 3, 55, 0
4, 43582, Note_on_c, 3, 52, 0
4, 43584, Note_on_c, 3, 52, 76
4, 43584, Note_on_c, 3, 55, 76
4, 43678, Note_on_c, 3, 55, 0
4, 43678, Note_on_c, 3, 52, 0
4, 43680, Note_on_c, 3, 52, 84
4, 43680, Note_on_c, 3, 55, 84
4, 43774, Note_on_c, 3, 55, 0
4, 43774, Note_on_c, 3, 52, 0
4, 43776, Note_on_c, 3, 52, 92
4, 43870, Note_on_c, 3, 52, 0
4, 43872, Note_on_c, 3, 52, 92
4, 43966, Note_on_c, 3, 52, 0
4, 43968, Note_on_c, 3, 52, 92
4, 44062, Note_on_c, 3, 52, 0
4, 44064, Note_on_c, 3, 52, 92
4, 44158, Note_on_c, 3, 52, 0
4, 44160, Note_on_c, 3, 52, 92
4, 44254, Note_on_c, 3, 52, 0
4, 44256, Note_on_c, 3, 52, 92
4, 44350, Note_on_c, 3, 52, 0
4, 44352, Note_on_c, 3, 53, 92
4, 44400, Note_on_c, 3, 53, 0
4, 44544, Note_on_c, 3, 62, 45
4, 44592, Note_on_c, 3, 62, 0
4, 47328, Note_on_c, 3, 65, 92
4, 47422, Note_on_c, 3, 65, 0
4, 47424, Note_on_c, 3, 65, 92
4, 47518, Note_on_c, 3, 65, 0
4, 47520, Note_on_c, 3, 65, 92
4, 47614, Note_on_c, 3, 65, 0
4, 47616, Note_on_c, 3, 65, 92
4, 47710, Note_on_c, 3, 65, 0
4, 47712, Note_on_c, 3, 65, 92
4, 47806, Note_on_c, 3, 65, 0
4, 47808, Note_on_c, 3, 64, 92
4, 47968, Note_on_c, 3, 64, 0
4, 48000, Note_on_c, 3, 52, 45
4, 48288, Note_on_c, 3, 52, 0
4, 48288, Note_on_c, 3, 50, 45
4, 48382, Note_on_c, 3, 50, 0
4, 48384, Note_on_c, 3, 50, 45
4, 48480, Note_on_c, 3, 50, 0
4, 48480, Note_on_c, 3, 59, 45
4, 48574, Note_on_c, 3, 59, 0
4, 48576, Note_on_c, 3, 59, 45
4, 48670, Note_on_c, 3, 59, 0
4, 48864, Note_on_c, 3, 53, 45
4, 48958, Note_on_c, 3, 53, 0
4, 48960, Note_on_c, 3, 53, 45
4, 49056, Note_on_c, 3, 53, 0
4, 49056, Note_on_c, 3, 52, 45
4, 49150, Note_on_c, 3, 52, 0
4, 49152, Note_on_c, 3, 52, 45
4, 49248, Note_on_c, 3, 52, 0
4, 49248, Note_on_c, 3, 64, 45
4, 49342, Note_on_c, 3, 64, 0
4, 49344, Note_on_c, 3, 64, 45
4, 49440, Note_on_c, 3, 64, 0
4, 49440, Note_on_c, 3, 62, 45
4, 49534, Note_on_c, 3, 62, 0
4, 49536, Note_on_c, 3, 62, 45
4, 49632, Note_on_c, 3, 62, 0
4, 49632, Note_on_c, 3, 59, 45
4, 49726, Note_on_c, 3, 59, 0
4, 49728, Note_on_c, 3, 59, 45
4, 49888, Note_on_c, 3, 59, 0
4, 50688, Note_on_c, 3, 67, 45
4, 51216, Note_on_c, 3, 67, 0
4, 51264, Note_on_c, 3, 62, 92
4, 51840, Note_on_c, 3, 62, 0
4, 51840, Note_on_c, 3, 62, 45
4, 52032, Note_on_c, 3, 62, 0
4, 52032, Note_on_c, 3, 64, 45
4, 52080, Note_on_c, 3, 64, 0
4, 52224, Note_on_c, 3, 62, 45
4, 52272, Note_on_c, 3, 62, 0
4, 52416, Note_on_c, 3, 60, 45
4, 52464, Note_on_c, 3, 60, 0
4, 52608, Note_on_c, 3, 64, 92
4, 52896, Note_on_c, 3, 64, 0
4, 52896, Note_on_c, 3, 62, 45
4, 52990, Note_on_c, 3, 62, 0
4, 52992, Note_on_c, 3, 62, 45
4, 53088, Note_on_c, 3, 62, 0
4, 53088, Note_on_c, 3, 59, 45
4, 53182, Note_on_c, 3, 59, 0
4, 53184, Note_on_c, 3, 59, 45
4, 53280, Note_on_c, 3, 59, 0
4, 53280, Note_on_c, 3, 60, 45
4, 53374, Note_on_c, 3, 60, 0
4, 53376, Note_on_c, 3, 60, 45
4, 53472, Note_on_c, 3, 60, 0
4, 53472, Note_on_c, 3, 65, 45
4, 53566, Note_on_c, 3, 65, 0
4, 53568, Note_on_c, 3, 65, 45
4, 53664, Note_on_c, 3, 65, 0
4, 53664, Note_on_c, 3, 64, 45
4, 53758, Note_on_c, 3, 64, 0
4, 53760, Note_on_c, 3, 64, 45
4, 53856, Note_on_c, 3, 64, 0
4, 53856, Note_on_c, 3, 76, 45
4, 53950, Note_on_c, 3, 76, 0
4, 53952, Note_on_c, 3, 76, 45
4, 54048, Note_on_c, 3, 76, 0
4, 54048, Note_on_c, 3, 74, 45
4, 54142, Note_on_c, 3, 74, 0
4, 54144, Note_on_c, 3, 74, 45
4, 54240, Note_on_c, 3, 74, 0
4, 54240, Note_on_c, 3, 71, 45
4, 54334, Note_on_c, 3, 71, 0
4, 54336, Note_on_c, 3, 71, 45
4, 54496, Note_on_c, 3, 71, 0
4, 55296, Note_on_c, 3, 60, 84
4, 55824, Note_on_c, 3, 60, 0
4, 55872, Note_on_c, 3, 56, 84
4, 56400, Note_on_c, 3, 56, 0
4, 56448, Note_on_c, 3, 54, 63
4, 56784, Note_on_c, 3, 54, 0
4, 56832, Note_on_c, 3, 53, 63
4, 56992, Note_on_c, 3, 53, 0
4, 57024, Note_on_c, 3, 52, 108
4, 57072, Note_on_c, 3, 52, 0
4, 57216, Note_on_c, 3, 57, 108
4, 57264, Note_on_c, 3, 57, 0
4, 57408, Note_on_c, 3, 53, 108
4, 57456, Note_on_c, 3, 53, 0
4, 57600, Note_on_c, 3, 52, 108
4, 57694, Note_on_c, 3, 52, 0
4, 57696, Note_on_c, 3, 60, 45
4, 57790, Note_on_c, 3, 60, 0
4, 57792, Note_on_c, 3, 60, 45
4, 57886, Note_on_c, 3, 60, 0
4, 57888, Note_on_c, 3, 60, 45
4, 57982, Note_on_c, 3, 60, 0
4, 57984, Note_on_c, 3, 60, 45
4, 58078, Note_on_c, 3, 60, 0
4, 58080, Note_on_c, 3, 60, 45
4, 58174, Note_on_c, 3, 60, 0
4, 58176, Note_on_c, 3, 60, 45
4, 58270, Note_on_c, 3, 60, 0
4, 58272, Note_on_c, 3, 60, 45
4, 58366, Note_on_c, 3, 60, 0
4, 58368, Note_on_c, 3, 60, 45
4, 58462, Note_on_c, 3, 60, 0
4, 58464, Note_on_c, 3, 60, 45
4, 58558, Note_on_c, 3, 60, 0
4, 58560, Note_on_c, 3, 60, 45
4, 58654, Note_on_c, 3, 60, 0
4, 58656, Note_on_c, 3, 60, 45
4, 58750, Note_on_c, 3, 60, 0
4, 58752, Note_on_c, 3, 62, 45
4, 58846, Note_on_c, 3, 62, 0
4, 58848, Note_on_c, 3, 62, 45
4, 58942, Note_on_c, 3, 62, 0
4, 58944, Note_on_c, 3, 62, 45
4, 59038, Note_on_c, 3, 62, 0
4, 59040, Note_on_c, 3, 62, 45
4, 59134, Note_on_c, 3, 62, 0
4, 59136, Note_on_c, 3, 62, 45
4, 59230, Note_on_c, 3, 62, 0
4, 59232, Note_on_c, 3, 62, 45
4, 59326, Note_on_c, 3, 62, 0
4, 59328, Note_on_c, 3, 62, 45
4, 59422, Note_on_c, 3, 62, 0
4, 59424, Note_on_c, 3, 62, 45
4, 59518, Note_on_c, 3, 62, 0
4, 59520, Note_on_c, 3, 62, 45
4, 59614, Note_on_c, 3, 62, 0
4, 59616, Note_on_c, 3, 62, 45
4, 59710, Note_on_c, 3, 62, 0
4, 59712, Note_on_c, 3, 62, 45
4, 59806, Note_on_c, 3, 62, 0
4, 59808, Note_on_c, 3, 62, 45
4, 59902, Note_on_c, 3, 62, 0
4, 59904, Note_on_c, 3, 60, 45
4, 59998, Note_on_c, 3, 60, 0
4, 60000, Note_on_c, 3, 60, 45
4, 60094, Note_on_c, 3, 60, 0
4, 60096, Note_on_c, 3, 60, 45
4, 60190, Note_on_c, 3, 60, 0
4, 60192, Note_on_c, 3, 60, 45
4, 60286, Note_on_c, 3, 60, 0
4, 60288, Note_on_c, 3, 60, 45
4, 60382, Note_on_c, 3, 60, 0
4, 60384, Note_on_c, 3, 60, 45
4, 60478, Note_on_c, 3, 60, 0
4, 60480, Note_on_c, 3, 60, 45
4, 60574, Note_on_c, 3, 60, 0
4, 60576, Note_on_c, 3, 60, 45
4, 60670, Note_on_c, 3, 60, 0
4, 60672, Note_on_c, 3, 60, 45
4, 60766, Note_on_c, 3, 60, 0
4, 60768, Note_on_c, 3, 60, 45
4, 60862, Note_on_c, 3, 60, 0
4, 60864, Note_on_c, 3, 60, 45
4, 60958, Note_on_c, 3, 60, 0
4, 60960, Note_on_c, 3, 60, 45
4, 61054, Note_on_c, 3, 60, 0
4, 61056, Note_on_c, 3, 62, 45
4, 61150, Note_on_c, 3, 62, 0
4, 61152, Note_on_c, 3, 62, 45
4, 61246, Note_on_c, 3, 62, 0
4, 61248, Note_on_c, 3, 62, 45
4, 61342, Note_on_c, 3, 62, 0
4, 61344, Note_on_c, 3, 62, 45
4, 61438, Note_on_c, 3, 62, 0
4, 61440, Note_on_c, 3, 62, 45
4, 61534, Note_on_c, 3, 62, 0
4, 61536, Note_on_c, 3, 62, 45
4, 61630, Note_on_c, 3, 62, 0
4, 61632, Note_on_c, 3, 62, 45
4, 61726, Note_on_c, 3, 62, 0
4, 61728, Note_on_c, 3, 62, 45
4, 61822, Note_on_c, 3, 62, 0
4, 61824, Note_on_c, 3, 62, 45
4, 61918, Note_on_c, 3, 62, 0
4, 61920, Note_on_c, 3, 62, 45
4, 62014, Note_on_c, 3, 62, 0
4, 62016, Note_on_c, 3, 62, 45
4, 62110, Note_on_c, 3, 62, 0
4, 62112, Note_on_c, 3, 62, 45
4, 62206, Note_on_c, 3, 62, 0
4, 62208, Note_on_c, 3, 60, 45
4, 62256, Note_on_c, 3, 60, 0
4, 62400, Note_on_c, 3, 55, 60
4, 62400, Note_on_c, 3, 64, 60
4, 62448, Note_on_c, 3, 64, 0
4, 62448, Note_on_c, 3, 55, 0
4, 64704, Note_on_c, 3, 52, 92
4, 64752, Note_on_c, 3, 52, 0
4, 64896, Note_on_c, 3, 52, 92
4, 64944, Note_on_c, 3, 52, 0
4, 65088, Note_on_c, 3, 52, 92
4, 65136, Note_on_c, 3, 52, 0
4, 65664, Note_on_c, 3, 53, 60
4, 65952, Note_on_c, 3, 53, 0
4, 65952, Note_on_c, 3, 55, 60
4, 66000, Note_on_c, 3, 55, 0
4, 66000, Note_on_c, 3, 53, 60
4, 66046, Note_on_c, 3, 53, 0
4, 66048, Note_on_c, 3, 52, 60
4, 66080, Note_on_c, 3, 52, 0
4, 66144, Note_on_c, 3, 53, 60
4, 66176, Note_on_c, 3, 53, 0
4, 66240, Note_on_c, 3, 48, 60
4, 66400, Note_on_c, 3, 48, 0
4, 66816, Note_on_c, 3, 53, 60
4, 67104, Note_on_c, 3, 53, 0
4, 67104, Note_on_c, 3, 55, 60
4, 67152, Note_on_c, 3, 55, 0
4, 67152, Note_on_c, 3, 53, 60
4, 67198, Note_on_c, 3, 53, 0
4, 67200, Note_on_c, 3, 52, 60
4, 67232, Note_on_c, 3, 52, 0
4, 67296, Note_on_c, 3, 53, 60
4, 67328, Note_on_c, 3, 53, 0
4, 67392, Note_on_c, 3, 50, 60
4, 67552, Note_on_c, 3, 50, 0
4, 67968, Note_on_c, 3, 62, 45
4, 68544, Note_on_c, 3, 62, 0
4, 68544, Note_on_c, 3, 60, 92
4, 69120, Note_on_c, 3, 60, 0
4, 69120, Note_on_c, 3, 60, 45
4, 69312, Note_on_c, 3, 60, 0
4, 69312, Note_on_c, 3, 62, 45
4, 69504, Note_on_c, 3, 62, 0
4, 69504, Note_on_c, 3, 55, 45
4, 69664, Note_on_c, 3, 55, 0
4, 69696, Note_on_c, 3, 60, 45
4, 69792, Note_on_c, 3, 60, 0
4, 69792, Note_on_c, 3, 59, 45
4, 69888, Note_on_c, 3, 59, 0
4, 69888, Note_on_c, 3, 60, 45
4, 69984, Note_on_c, 3, 60, 0
4, 69984, Note_on_c, 3, 59, 45
4, 70080, Note_on_c, 3, 59, 0
4, 70080, Note_on_c, 3, 60, 45
4, 70240, Note_on_c, 3, 60, 0
4, 70272, Note_on_c, 3, 53, 108
4, 70560, Note_on_c, 3, 53, 0
4, 70560, Note_on_c, 3, 55, 108
4, 70608, Note_on_c, 3, 55, 0
4, 70608, Note_on_c, 3, 53, 108
4, 70654, Note_on_c, 3, 53, 0
4, 70656, Note_on_c, 3, 52, 108
4, 70688, Note_on_c, 3, 52, 0
4, 70752, Note_on_c, 3, 53, 108
4, 70784, Note_on_c, 3, 53, 0
4, 70848, Note_on_c, 3, 48, 108
4, 71008, Note_on_c, 3, 48, 0
4, 71424, Note_on_c, 3, 53, 108
4, 71712, Note_on_c, 3, 53, 0
4, 71712, Note_on_c, 3, 55, 108
4, 71760, Note_on_c, 3, 55, 0
4, 71760, Note_on_c, 3, 53, 108
4, 71806, Note_on_c, 3, 53, 0
4, 71808, Note_on_c, 3, 52, 108
4, 71840, Note_on_c, 3, 52, 0
4, 71904, Note_on_c, 3, 53, 108
4, 71936, Note_on_c, 3, 53, 0
4, 72000, Note_on_c, 3, 50, 108
4, 72160, Note_on_c, 3, 50, 0
4, 73152, Note_on_c, 3, 70, 45
4, 73536, Note_on_c, 3, 70, 0
4, 73536, Note_on_c, 3, 70, 92
4, 73696, Note_on_c, 3, 70, 0
4, 74304, Note_on_c, 3, 75, 45
4, 74688, Note_on_c, 3, 75, 0
4, 74688, Note_on_c, 3, 75, 92
4, 74848, Note_on_c, 3, 75, 0
4, 75456, Note_on_c, 3, 66, 45
4, 75744, Note_on_c, 3, 66, 0
4, 75744, Note_on_c, 3, 67, 56
4, 75840, Note_on_c, 3, 67, 0
4, 75840, Note_on_c, 3, 69, 60
4, 75934, Note_on_c, 3, 69, 0
4, 76032, Note_on_c, 3, 72, 68
4, 76416, Note_on_c, 3, 72, 0
4, 76416, Note_on_c, 3, 64, 84
4, 76576, Note_on_c, 3, 64, 0
4, 76608, Note_on_c, 3, 65, 45
4, 76768, Note_on_c, 3, 65, 0
4, 77760, Note_on_c, 3, 68, 63
4, 78288, Note_on_c, 3, 68, 0
4, 78912, Note_on_c, 3, 58, 63
4, 79440, Note_on_c, 3, 58, 0
4, 80064, Note_on_c, 3, 63, 63
4, 80400, Note_on_c, 3, 63, 0
4, 80448, Note_on_c, 3, 63, 45
4, 80608, Note_on_c, 3, 63, 0
4, 80640, Note_on_c, 3, 66, 63
4, 81024, Note_on_c, 3, 66, 0
4, 81024, Note_on_c, 3, 67, 45
4, 81072, Note_on_c, 3, 67, 0
4, 81216, Note_on_c, 3, 58, 92
4, 81264, Note_on_c, 3, 58, 0
4, 81408, Note_on_c, 3, 58, 92
4, 81456, Note_on_c, 3, 58, 0
4, 81600, Note_on_c, 3, 58, 92
4, 81648, Note_on_c, 3, 58, 0
4, 81792, Note_on_c, 3, 57, 92
4, 81886, Note_on_c, 3, 57, 0
4, 81888, Note_on_c, 3, 60, 45
4, 81982, Note_on_c, 3, 60, 0
4, 81984, Note_on_c, 3, 60, 45
4, 82078, Note_on_c, 3, 60, 0
4, 82080, Note_on_c, 3, 60, 45
4, 82174, Note_on_c, 3, 60, 0
4, 82176, Note_on_c, 3, 60, 45
4, 82270, Note_on_c, 3, 60, 0
4, 82272, Note_on_c, 3, 60, 45
4, 82366, Note_on_c, 3, 60, 0
4, 82368, Note_on_c, 3, 60, 45
4, 82462, Note_on_c, 3, 60, 0
4, 82464, Note_on_c, 3, 60, 45
4, 82558, Note_on_c, 3, 60, 0
4, 82560, Note_on_c, 3, 60, 45
4, 82654, Note_on_c, 3, 60, 0
4, 82656, Note_on_c, 3, 60, 45
4, 82750, Note_on_c, 3, 60, 0
4, 82752, Note_on_c, 3, 60, 45
4, 82846, Note_on_c, 3, 60, 0
4, 82848, Note_on_c, 3, 60, 45
4, 82942, Note_on_c, 3, 60, 0
4, 82944, Note_on_c, 3, 60, 45
4, 83038, Note_on_c, 3, 60, 0
4, 83040, Note_on_c, 3, 60, 45
4, 83134, Note_on_c, 3, 60, 0
4, 83136, Note_on_c, 3, 60, 45
4, 83230, Note_on_c, 3, 60, 0
4, 83232, Note_on_c, 3, 60, 45
4, 83326, Note_on_c, 3, 60, 0
4, 83328, Note_on_c, 3, 60, 45
4, 83422, Note_on_c, 3, 60, 0
4, 83424, Note_on_c, 3, 60, 45
4, 83518, Note_on_c, 3, 60, 0
4, 83520, Note_on_c, 3, 60, 45
4, 83614, Note_on_c, 3, 60, 0
4, 83616, Note_on_c, 3, 60, 45
4, 83710, Note_on_c, 3, 60, 0
4, 83712, Note_on_c, 3, 60, 45
4, 83806, Note_on_c, 3, 60, 0
4, 83808, Note_on_c, 3, 60, 45
4, 83902, Note_on_c, 3, 60, 0
4, 83904, Note_on_c, 3, 60, 45
4, 83998, Note_on_c, 3, 60, 0
4, 84000, Note_on_c, 3, 60, 45
4, 84094, Note_on_c, 3, 60, 0
4, 84096, Note_on_c, 3, 60, 45
4, 84190, Note_on_c, 3, 60, 0
4, 84192, Note_on_c, 3, 60, 45
4, 84286, Note_on_c, 3, 60, 0
4, 84288, Note_on_c, 3, 60, 45
4, 84382, Note_on_c, 3, 60, 0
4, 84384, Note_on_c, 3, 60, 45
4, 84478, Note_on_c, 3, 60, 0
4, 84480, Note_on_c, 3, 60, 45
4, 84574, Note_on_c, 3, 60, 0
4, 84576, Note_on_c, 3, 60, 45
4, 84670, Note_on_c, 3, 60, 0
4, 84672, Note_on_c, 3, 60, 45
4, 84766, Note_on_c, 3, 60, 0
4, 84768, Note_on_c, 3, 60, 45
4, 84862, Note_on_c, 3, 60, 0
4, 84864, Note_on_c, 3, 60, 45
4, 84958, Note_on_c, 3, 60, 0
4, 84960, Note_on_c, 3, 60, 45
4, 85054, Note_on_c, 3, 60, 0
4, 85056, Note_on_c, 3, 60, 45
4, 85150, Note_on_c, 3, 60, 0
4, 85152, Note_on_c, 3, 60, 45
4, 85246, Note_on_c, 3, 60, 0
4, 85248, Note_on_c, 3, 64, 45
4, 85342, Note_on_c, 3, 64, 0
4, 85344, Note_on_c, 3, 64, 45
4, 85438, Note_on_c, 3, 64, 0
4, 85440, Note_on_c, 3, 64, 45
4, 85534, Note_on_c, 3, 64, 0
4, 85536, Note_on_c, 3, 64, 45
4, 85630, Note_on_c, 3, 64, 0
4, 85632, Note_on_c, 3, 64, 45
4, 85726, Note_on_c, 3, 64, 0
4, 85728, Note_on_c, 3, 64, 45
4, 85822, Note_on_c, 3, 64, 0
4, 85824, Note_on_c, 3, 64, 45
4, 85918, Note_on_c, 3, 64, 0
4, 85920, Note_on_c, 3, 64, 45
4, 86014, Note_on_c, 3, 64, 0
4, 86016, Note_on_c, 3, 64, 45
4, 86110, Note_on_c, 3, 64, 0
4, 86112, Note_on_c, 3, 64, 45
4, 86206, Note_on_c, 3, 64, 0
4, 86208, Note_on_c, 3, 64, 45
4, 86302, Note_on_c, 3, 64, 0
4, 86304, Note_on_c, 3, 64, 45
4, 86398, Note_on_c, 3, 64, 0
4, 86400, Note_on_c, 3, 64, 45
4, 86494, Note_on_c, 3, 64, 0
4, 86496, Note_on_c, 3, 64, 45
4, 86590, Note_on_c, 3, 64, 0
4, 86592, Note_on_c, 3, 61, 45
4, 86686, Note_on_c, 3, 61, 0
4, 86688, Note_on_c, 3, 61, 45
4, 86782, Note_on_c, 3, 61, 0
4, 86784, Note_on_c, 3, 64, 45
4, 86878, Note_on_c, 3, 64, 0
4, 86880, Note_on_c, 3, 64, 45
4, 86974, Note_on_c, 3, 64, 0
4, 86976, Note_on_c, 3, 62, 45
4, 87070, Note_on_c, 3, 62, 0
4, 87072, Note_on_c, 3, 62, 45
4, 87166, Note_on_c, 3, 62, 0
4, 87168, Note_on_c, 3, 62, 45
4, 87262, Note_on_c, 3, 62, 0
4, 87264, Note_on_c, 3, 62, 45
4, 87358, Note_on_c, 3, 62, 0
4, 87360, Note_on_c, 3, 62, 45
4, 87454, Note_on_c, 3, 62, 0
4, 87456, Note_on_c, 3, 62, 45
4, 87550, Note_on_c, 3, 62, 0
4, 87552, Note_on_c, 3, 62, 45
4, 87646, Note_on_c, 3, 62, 0
4, 87648, Note_on_c, 3, 62, 45
4, 87742, Note_on_c, 3, 62, 0
4, 87744, Note_on_c, 3, 59, 45
4, 87838, Note_on_c, 3, 59, 0
4, 87840, Note_on_c, 3, 59, 45
4, 87934, Note_on_c, 3, 59, 0
4, 87936, Note_on_c, 3, 62, 45
4, 88030, Note_on_c, 3, 62, 0
4, 88032, Note_on_c, 3, 62, 45
4, 88126, Note_on_c, 3, 62, 0
4, 88128, Note_on_c, 3, 60, 45
4, 88222, Note_on_c, 3, 60, 0
4, 88224, Note_on_c, 3, 60, 45
4, 88318, Note_on_c, 3, 60, 0
4, 88320, Note_on_c, 3, 60, 45
4, 88414, Note_on_c, 3, 60, 0
4, 88416, Note_on_c, 3, 60, 45
4, 88510, Note_on_c, 3, 60, 0
4, 88512, Note_on_c, 3, 60, 45
4, 88606, Note_on_c, 3, 60, 0
4, 88608, Note_on_c, 3, 60, 45
4, 88702, Note_on_c, 3, 60, 0
4, 88704, Note_on_c, 3, 51, 30
4, 88992, Note_on_c, 3, 51, 0
4, 88992, Note_on_c, 3, 53, 30
4, 89040, Note_on_c, 3, 53, 0
4, 89040, Note_on_c, 3, 51, 30
4, 89086, Note_on_c, 3, 51, 0
4, 89088, Note_on_c, 3, 50, 30
4, 89120, Note_on_c, 3, 50, 0
4, 89184, Note_on_c, 3, 51, 30
4, 89216, Note_on_c, 3, 51, 0
4, 89280, Note_on_c, 3, 51, 30
4, 89808, Note_on_c, 3, 51, 0
4, 89856, Note_on_c, 3, 51, 30
4, 90144, Note_on_c, 3, 51, 0
4, 90144, Note_on_c, 3, 53, 30
4, 90190, Note_on_c, 3, 53, 0
4, 90192, Note_on_c, 3, 51, 30
4, 90238, Note_on_c, 3, 51, 0
4, 90240, Note_on_c, 3, 50, 30
4, 90272, Note_on_c, 3, 50, 0
4, 90336, Note_on_c, 3, 51, 30
4, 90368, Note_on_c, 3, 51, 0
4, 90432, Note_on_c, 3, 51, 30
4, 90960, Note_on_c, 3, 51, 0
4, 91008, Note_on_c, 3, 51, 30
4, 91296, Note_on_c, 3, 51, 0
4, 91296, Note_on_c, 3, 52, 30
4, 91344, Note_on_c, 3, 52, 0
4, 91344, Note_on_c, 3, 51, 30
4, 91390, Note_on_c, 3, 51, 0
4, 91392, Note_on_c, 3, 50, 30
4, 91424, Note_on_c, 3, 50, 0
4, 91488, Note_on_c, 3, 51, 30
4, 91520, Note_on_c, 3, 51, 0
4, 91584, Note_on_c, 3, 51, 30
4, 91744, Note_on_c, 3, 51, 0
4, 91776, Note_on_c, 3, 69, 30
4, 91824, Note_on_c, 3, 69, 0
4, 91968, Note_on_c, 3, 69, 42
4, 92016, Note_on_c, 3, 69, 0
4, 92160, Note_on_c, 3, 59, 75
4, 92688, Note_on_c, 3, 59, 0
4, 92736, Note_on_c, 3, 60, 92
4, 92784, Note_on_c, 3, 60, 0
4, 92928, Note_on_c, 3, 65, 92
4, 92976, Note_on_c, 3, 65, 0
4, 93120, Note_on_c, 3, 63, 92
4, 93168, Note_on_c, 3, 63, 0
4, 93312, Note_on_c, 3, 62, 92
4, 93472, Note_on_c, 3, 62, 0
4, 93600, Note_on_c, 3, 59, 45
4, 93632, Note_on_c, 3, 59, 0
4, 93696, Note_on_c, 3, 59, 45
4, 93728, Note_on_c, 3, 59, 0
4, 93792, Note_on_c, 3, 60, 45
4, 93824, Note_on_c, 3, 60, 0
4, 93888, Note_on_c, 3, 59, 45
4, 94048, Note_on_c, 3, 59, 0
4, 94176, Note_on_c, 3, 67, 45
4, 94208, Note_on_c, 3, 67, 0
4, 94272, Note_on_c, 3, 67, 45
4, 94304, Note_on_c, 3, 67, 0
4, 94368, Note_on_c, 3, 67, 45
4, 94400, Note_on_c, 3, 67, 0
4, 94464, Note_on_c, 3, 67, 45
4, 94624, Note_on_c, 3, 67, 0
4, 94752, Note_on_c, 3, 59, 45
4, 94784, Note_on_c, 3, 59, 0
4, 94848, Note_on_c, 3, 59, 49
4, 94880, Note_on_c, 3, 59, 0
4, 94944, Note_on_c, 3, 60, 53
4, 94976, Note_on_c, 3, 60, 0
4, 95040, Note_on_c, 3, 59, 57
4, 95200, Note_on_c, 3, 59, 0
4, 95328, Note_on_c, 3, 67, 69
4, 95360, Note_on_c, 3, 67, 0
4, 95424, Note_on_c, 3, 67, 73
4, 95456, Note_on_c, 3, 67, 0
4, 95520, Note_on_c, 3, 67, 77
4, 95552, Note_on_c, 3, 67, 0
4, 95616, Note_on_c, 3, 67, 81
4, 95776, Note_on_c, 3, 67, 0
4, 95904, Note_on_c, 3, 59, 94
4, 95936, Note_on_c, 3, 59, 0
4, 96000, Note_on_c, 3, 59, 98
4, 96032, Note_on_c, 3, 59, 0
4, 96096, Note_on_c, 3, 60, 103
4, 96128, Note_on_c, 3, 60, 0
4, 96192, Note_on_c, 3, 59, 108
4, 96238, Note_on_c, 3, 59, 0
4, 98880, Note_on_c, 3, 65, 45
4, 98912, Note_on_c, 3, 65, 0
4, 98976, Note_on_c, 3, 65, 45
4, 99072, Note_on_c, 3, 65, 0
4, 99072, Note_on_c, 3, 64, 45
4, 99166, Note_on_c, 3, 64, 0
4, 99168, Note_on_c, 3, 64, 45
4, 99264, Note_on_c, 3, 64, 0
4, 99264, Note_on_c, 3, 62, 45
4, 99358, Note_on_c, 3, 62, 0
4, 99360, Note_on_c, 3, 62, 45
4, 99456, Note_on_c, 3, 62, 0
4, 99456, Note_on_c, 3, 60, 45
4, 99550, Note_on_c, 3, 60, 0
4, 99552, Note_on_c, 3, 60, 45
4, 99646, Note_on_c, 3, 60, 0
4, 99648, Note_on_c, 3, 59, 45
4, 99984, Note_on_c, 3, 59, 0
4, 100032, Note_on_c, 3, 64, 45
4, 100064, Note_on_c, 3, 64, 0
4, 100128, Note_on_c, 3, 64, 45
4, 100224, Note_on_c, 3, 64, 0
4, 100224, Note_on_c, 3, 65, 45
4, 100318, Note_on_c, 3, 65, 0
4, 100320, Note_on_c, 3, 65, 45
4, 100416, Note_on_c, 3, 65, 0
4, 100416, Note_on_c, 3, 62, 45
4, 100510, Note_on_c, 3, 62, 0
4, 100512, Note_on_c, 3, 62, 45
4, 100608, Note_on_c, 3, 62, 0
4, 100608, Note_on_c, 3, 59, 45
4, 100702, Note_on_c, 3, 59, 0
4, 100704, Note_on_c, 3, 59, 45
4, 100800, Note_on_c, 3, 59, 0
4, 100800, Note_on_c, 3, 56, 45
4, 100894, Note_on_c, 3, 56, 0
4, 100896, Note_on_c, 3, 56, 45
4, 100992, Note_on_c, 3, 56, 0
4, 100992, Note_on_c, 3, 64, 45
4, 101086, Note_on_c, 3, 64, 0
4, 101088, Note_on_c, 3, 64, 45
4, 101184, Note_on_c, 3, 64, 0
4, 101184, Note_on_c, 3, 62, 45
4, 101278, Note_on_c, 3, 62, 0
4, 101280, Note_on_c, 3, 62, 45
4, 101376, Note_on_c, 3, 62, 0
4, 101376, Note_on_c, 3, 60, 45
4, 101470, Note_on_c, 3, 60, 0
4, 101472, Note_on_c, 3, 60, 45
4, 101568, Note_on_c, 3, 60, 0
4, 101568, Note_on_c, 3, 57, 45
4, 101662, Note_on_c, 3, 57, 0
4, 101664, Note_on_c, 3, 57, 45
4, 101760, Note_on_c, 3, 57, 0
4, 101760, Note_on_c, 3, 62, 45
4, 101854, Note_on_c, 3, 62, 0
4, 101856, Note_on_c, 3, 62, 45
4, 101952, Note_on_c, 3, 62, 0
4, 101952, Note_on_c, 3, 55, 45
4, 102046, Note_on_c, 3, 55, 0
4, 102048, Note_on_c, 3, 55, 45
4, 102144, Note_on_c, 3, 55, 0
4, 102144, Note_on_c, 3, 67, 45
4, 102238, Note_on_c, 3, 67, 0
4, 103488, Note_on_c, 3, 55, 45
4, 103520, Note_on_c, 3, 55, 0
4, 103584, Note_on_c, 3, 55, 45
4, 103774, Note_on_c, 3, 55, 0
4, 103776, Note_on_c, 3, 67, 45
4, 103872, Note_on_c, 3, 67, 0
4, 103872, Note_on_c, 3, 65, 45
4, 103966, Note_on_c, 3, 65, 0
4, 103968, Note_on_c, 3, 65, 45
4, 104064, Note_on_c, 3, 65, 0
4, 104064, Note_on_c, 3, 64, 45
4, 104158, Note_on_c, 3, 64, 0
4, 104160, Note_on_c, 3, 64, 45
4, 104254, Note_on_c, 3, 64, 0
4, 104256, Note_on_c, 3, 62, 45
4, 104512, Note_on_c, 3, 62, 0
4, 105024, Note_on_c, 3, 68, 45
4, 105056, Note_on_c, 3, 68, 0
4, 105120, Note_on_c, 3, 68, 45
4, 105216, Note_on_c, 3, 68, 0
4, 105216, Note_on_c, 3, 65, 45
4, 105310, Note_on_c, 3, 65, 0
4, 105312, Note_on_c, 3, 65, 45
4, 105408, Note_on_c, 3, 65, 0
4, 105408, Note_on_c, 3, 62, 45
4, 105502, Note_on_c, 3, 62, 0
4, 105504, Note_on_c, 3, 62, 45
4, 105600, Note_on_c, 3, 62, 0
4, 105600, Note_on_c, 3, 63, 49
4, 105694, Note_on_c, 3, 63, 0
4, 105696, Note_on_c, 3, 60, 53
4, 105792, Note_on_c, 3, 60, 0
4, 105792, Note_on_c, 3, 54, 57
4, 105886, Note_on_c, 3, 54, 0
4, 105888, Note_on_c, 3, 54, 61
4, 105984, Note_on_c, 3, 54, 0
4, 105984, Note_on_c, 3, 55, 65
4, 106078, Note_on_c, 3, 55, 0
4, 106080, Note_on_c, 3, 55, 69
4, 106176, Note_on_c, 3, 55, 0
4, 106176, Note_on_c, 3, 67, 73
4, 106270, Note_on_c, 3, 67, 0
4, 106272, Note_on_c, 3, 67, 77
4, 106368, Note_on_c, 3, 67, 0
4, 106368, Note_on_c, 3, 55, 82
4, 106462, Note_on_c, 3, 55, 0
4, 106464, Note_on_c, 3, 55, 87
4, 106558, Note_on_c, 3, 55, 0
4, 106560, Note_on_c, 3, 60, 45
4, 106654, Note_on_c, 3, 60, 0
4, 106656, Note_on_c, 3, 48, 45
4, 106750, Note_on_c, 3, 48, 0
4, 106752, Note_on_c, 3, 48, 45
4, 106846, Note_on_c, 3, 48, 0
4, 106848, Note_on_c, 3, 48, 45
4, 106942, Note_on_c, 3, 48, 0
4, 106944, Note_on_c, 3, 48, 45
4, 107038, Note_on_c, 3, 48, 0
4, 107040, Note_on_c, 3, 48, 45
4, 107134, Note_on_c, 3, 48, 0
4, 107136, Note_on_c, 3, 48, 45
4, 107230, Note_on_c, 3, 48, 0
4, 107232, Note_on_c, 3, 48, 45
4, 107326, Note_on_c, 3, 48, 0
4, 107328, Note_on_c, 3, 48, 45
4, 107422, Note_on_c, 3, 48, 0
4, 107424, Note_on_c, 3, 48, 45
4, 107518, Note_on_c, 3, 48, 0
4, 107520, Note_on_c, 3, 48, 45
4, 107614, Note_on_c, 3, 48, 0
4, 107616, Note_on_c, 3, 48, 45
4, 107710, Note_on_c, 3, 48, 0
4, 107712, Note_on_c, 3, 50, 45
4, 107806, Note_on_c, 3, 50, 0
4, 107808, Note_on_c, 3, 50, 45
4, 107902, Note_on_c, 3, 50, 0
4, 107904, Note_on_c, 3, 50, 45
4, 107998, Note_on_c, 3, 50, 0
4, 108000, Note_on_c, 3, 50, 45
4, 108094, Note_on_c, 3, 50, 0
4, 108096, Note_on_c, 3, 50, 45
4, 108190, Note_on_c, 3, 50, 0
4, 108192, Note_on_c, 3, 50, 45
4, 108286, Note_on_c, 3, 50, 0
4, 108288, Note_on_c, 3, 50, 45
4, 108288, Note_on_c, 3, 55, 45
4, 108382, Note_on_c, 3, 55, 0
4, 108382, Note_on_c, 3, 50, 0
4, 108384, Note_on_c, 3, 50, 45
4, 108384, Note_on_c, 3, 55, 45
4, 108478, Note_on_c, 3, 55, 0
4, 108478, Note_on_c, 3, 50, 0
4, 108480, Note_on_c, 3, 50, 45
4, 108480, Note_on_c, 3, 55, 45
4, 108574, Note_on_c, 3, 55, 0
4, 108574, Note_on_c, 3, 50, 0
4, 108576, Note_on_c, 3, 50, 45
4, 108576, Note_on_c, 3, 55, 45
4, 108670, Note_on_c, 3, 55, 0
4, 108670, Note_on_c, 3, 50, 0
4, 108672, Note_on_c, 3, 50, 45
4, 108672, Note_on_c, 3, 55, 45
4, 108766, Note_on_c, 3, 55, 0
4, 108766, Note_on_c, 3, 50, 0
4, 108768, Note_on_c, 3, 50, 45
4, 108768, Note_on_c, 3, 55, 45
4, 108862, Note_on_c, 3, 55, 0
4, 108862, Note_on_c, 3, 50, 0
4, 108864, Note_on_c, 3, 52, 45
4, 108864, Note_on_c, 3, 55, 45
4, 108958, Note_on_c, 3, 55, 0
4, 108958, Note_on_c, 3, 52, 0
4, 108960, Note_on_c, 3, 52, 52
4, 108960, Note_on_c, 3, 55, 52
4, 109054, Note_on_c, 3, 55, 0
4, 109054, Note_on_c, 3, 52, 0
4, 109056, Note_on_c, 3, 52, 60
4, 109056, Note_on_c, 3, 55, 60
4, 109150, Note_on_c, 3, 55, 0
4, 109150, Note_on_c, 3, 52, 0
4, 109152, Note_on_c, 3, 52, 68
4, 109152, Note_on_c, 3, 55, 68
4, 109246, Note_on_c, 3, 55, 0
4, 109246, Note_on_c, 3, 52, 0
4, 109248, Note_on_c, 3, 52, 76
4, 109248, Note_on_c, 3, 55, 76
4, 109342, Note_on_c, 3, 55, 0
4, 109342, Note_on_c, 3, 52, 0
4, 109344, Note_on_c, 3, 52, 84
4, 109344, Note_on_c, 3, 55, 84
4, 109438, Note_on_c, 3, 55, 0
4, 109438, Note_on_c, 3, 52, 0
4, 109440, Note_on_c, 3, 52, 92
4, 109534, Note_on_c, 3, 52, 0
4, 109536, Note_on_c, 3, 52, 92
4, 109630, Note_on_c, 3, 52, 0
4, 109632, Note_on_c, 3, 52, 92
4, 109726, Note_on_c, 3, 52, 0
4, 109728, Note_on_c, 3, 52, 92
4, 109822, Note_on_c, 3, 52, 0
4, 109824, Note_on_c, 3, 52, 92
4, 109918, Note_on_c, 3, 52, 0
4, 109920, Note_on_c, 3, 52, 92
4, 110014, Note_on_c, 3, 52, 0
4, 110016, Note_on_c, 3, 53, 92
4, 110064, Note_on_c, 3, 53, 0
4, 110208, Note_on_c, 3, 62, 45
4, 110256, Note_on_c, 3, 62, 0
4, 112992, Note_on_c, 3, 65, 92
4, 113086, Note_on_c, 3, 65, 0
4, 113088, Note_on_c, 3, 65, 92
4, 113182, Note_on_c, 3, 65, 0
4, 113184, Note_on_c, 3, 65, 92
4, 113278, Note_on_c, 3, 65, 0
4, 113280, Note_on_c, 3, 65, 92
4, 113374, Note_on_c, 3, 65, 0
4, 113376, Note_on_c, 3, 65, 92
4, 113470, Note_on_c, 3, 65, 0
4, 113472, Note_on_c, 3, 64, 92
4, 113632, Note_on_c, 3, 64, 0
4, 113664, Note_on_c, 3, 52, 45
4, 113952, Note_on_c, 3, 52, 0
4, 113952, Note_on_c, 3, 50, 45
4, 114046, Note_on_c, 3, 50, 0
4, 114048, Note_on_c, 3, 50, 45
4, 114144, Note_on_c, 3, 50, 0
4, 114144, Note_on_c, 3, 59, 45
4, 114238, Note_on_c, 3, 59, 0
4, 114240, Note_on_c, 3, 59, 45
4, 114334, Note_on_c, 3, 59, 0
4, 114528, Note_on_c, 3, 53, 45
4, 114622, Note_on_c, 3, 53, 0
4, 114624, Note_on_c, 3, 53, 45
4, 114720, Note_on_c, 3, 53, 0
4, 114720, Note_on_c, 3, 52, 45
4, 114814, Note_on_c, 3, 52, 0
4, 114816, Note_on_c, 3, 52, 45
4, 114912, Note_on_c, 3, 52, 0
4, 114912, Note_on_c, 3, 64, 45
4, 115006, Note_on_c, 3, 64, 0
4, 115008, Note_on_c, 3, 64, 45
4, 115104, Note_on_c, 3, 64, 0
4, 115104, Note_on_c, 3, 62, 45
4, 115198, Note_on_c, 3, 62, 0
4, 115200, Note_on_c, 3, 62, 45
4, 115296, Note_on_c, 3, 62, 0
4, 115296, Note_on_c, 3, 59, 45
4, 115390, Note_on_c, 3, 59, 0
4, 115392, Note_on_c, 3, 59, 45
4, 115552, Note_on_c, 3, 59, 0
4, 116352, Note_on_c, 3, 67, 45
4, 116880, Note_on_c, 3, 67, 0
4, 116928, Note_on_c, 3, 62, 92
4, 117504, Note_on_c, 3, 62, 0
4, 117504, Note_on_c, 3, 62, 45
4, 117696, Note_on_c, 3, 62, 0
4, 117696, Note_on_c, 3, 64, 45
4, 117744, Note_on_c, 3, 64, 0
4, 117888, Note_on_c, 3, 62, 45
4, 117936, Note_on_c, 3, 62, 0
4, 118080, Note_on_c, 3, 60, 45
4, 118128, Note_on_c, 3, 60, 0
4, 118272, Note_on_c, 3, 64, 92
4, 118560, Note_on_c, 3, 64, 0
4, 118560, Note_on_c, 3, 62, 45
4, 118654, Note_on_c, 3, 62, 0
4, 118656, Note_on_c, 3, 62, 45
4, 118752, Note_on_c, 3, 62, 0
4, 118752, Note_on_c, 3, 59, 45
4, 118846, Note_on_c, 3, 59, 0
4, 118848, Note_on_c, 3, 59, 45
4, 118944, Note_on_c, 3, 59, 0
4, 118944, Note_on_c, 3, 60, 45
4, 119038, Note_on_c, 3, 60, 0
4, 119040, Note_on_c, 3, 60, 45
4, 119136, Note_on_c, 3, 60, 0
4, 119136, Note_on_c, 3, 65, 45
4, 119230, Note_on_c, 3, 65, 0
4, 119232, Note_on_c, 3, 65, 45
4, 119328, Note_on_c, 3, 65, 0
4, 119328, Note_on_c, 3, 64, 45
4, 119422, Note_on_c, 3, 64, 0
4, 119424, Note_on_c, 3, 64, 45
4, 119520, Note_on_c, 3, 64, 0
4, 119520, Note_on_c, 3, 76, 45
4, 119614, Note_on_c, 3, 76, 0
4, 119616, Note_on_c, 3, 76, 45
4, 119712, Note_on_c, 3, 76, 0
4, 119712, Note_on_c, 3, 74, 45
4, 119806, Note_on_c, 3, 74, 0
4, 119808, Note_on_c, 3, 74, 45
4, 119904, Note_on_c, 3, 74, 0
4, 119904, Note_on_c, 3, 71, 45
4, 119998, Note_on_c, 3, 71, 0
4, 120000, Note_on_c, 3, 71, 45
4, 120160, Note_on_c, 3, 71, 0
4, 120960, Note_on_c, 3, 60, 84
4, 121488, Note_on_c, 3, 60, 0
4, 121536, Note_on_c, 3, 56, 84
4, 122064, Note_on_c, 3, 56, 0
4, 122112, Note_on_c, 3, 54, 63
4, 122448, Note_on_c, 3, 54, 0
4, 122496, Note_on_c, 3, 53, 63
4, 122656, Note_on_c, 3, 53, 0
4, 122688, Note_on_c, 3, 52, 108
4, 122736, Note_on_c, 3, 52, 0
4, 122880, Note_on_c, 3, 57, 108
4, 122928, Note_on_c, 3, 57, 0
4, 123072, Note_on_c, 3, 53, 108
4, 123120, Note_on_c, 3, 53, 0
4, 123264, Note_on_c, 3, 52, 108
4, 123358, Note_on_c, 3, 52, 0
4, 123360, Note_on_c, 3, 60, 45
4, 123454, Note_on_c, 3, 60, 0
4, 123456, Note_on_c, 3, 60, 45
4, 123550, Note_on_c, 3, 60, 0
4, 123552, Note_on_c, 3, 60, 45
4, 123646, Note_on_c, 3, 60, 0
4, 123648, Note_on_c, 3, 60, 45
4, 123742, Note_on_c, 3, 60, 0
4, 123744, Note_on_c, 3, 60, 45
4, 123838, Note_on_c, 3, 60, 0
4, 123840, Note_on_c, 3, 60, 45
4, 123934, Note_on_c, 3, 60, 0
4, 123936, Note_on_c, 3, 60, 45
4, 124030, Note_on_c, 3, 60, 0
4, 124032, Note_on_c, 3, 60, 45
4, 124126, Note_on_c, 3, 60, 0
4, 124128, Note_on_c, 3, 60, 45
4, 124222, Note_on_c, 3, 60, 0
4, 124224, Note_on_c, 3, 60, 45
4, 124318, Note_on_c, 3, 60, 0
4, 124320, Note_on_c, 3, 60, 45
4, 124414, Note_on_c, 3, 60, 0
4, 124416, Note_on_c, 3, 62, 45
4, 124510, Note_on_c, 3, 62, 0
4, 124512, Note_on_c, 3, 62, 45
4, 124606, Note_on_c, 3, 62, 0
4, 124608, Note_on_c, 3, 62, 45
4, 124702, Note_on_c, 3, 62, 0
4, 124704, Note_on_c, 3, 62, 45
4, 124798, Note_on_c, 3, 62, 0
4, 124800, Note_on_c, 3, 62, 45
4, 124894, Note_on_c, 3, 62, 0
4, 124896, Note_on_c, 3, 62, 45
4, 124990, Note_on_c, 3, 62, 0
4, 124992, Note_on_c, 3, 62, 45
4, 125086, Note_on_c, 3, 62, 0
4, 125088, Note_on_c, 3, 62, 45
4, 125182, Note_on_c, 3, 62, 0
4, 125184, Note_on_c, 3, 62, 45
4, 125278, Note_on_c, 3, 62, 0
4, 125280, Note_on_c, 3, 62, 45
4, 125374, Note_on_c, 3, 62, 0
4, 125376, Note_on_c, 3, 62, 45
4, 125470, Note_on_c, 3, 62, 0
4, 125472, Note_on_c, 3, 62, 45
4, 125566, Note_on_c, 3, 62, 0
4, 125568, Note_on_c, 3, 60, 45
4, 125662, Note_on_c, 3, 60, 0
4, 125664, Note_on_c, 3, 60, 45
4, 125758, Note_on_c, 3, 60, 0
4, 125760, Note_on_c, 3, 60, 45
4, 125854, Note_on_c, 3, 60, 0
4, 125856, Note_on_c, 3, 60, 45
4, 125950, Note_on_c, 3, 60, 0
4, 125952, Note_on_c, 3, 60, 45
4, 126046, Note_on_c, 3, 60, 0
4, 126048, Note_on_c, 3, 60, 45
4, 126142, Note_on_c, 3, 60, 0
4, 126144, Note_on_c, 3, 60, 45
4, 126238, Note_on_c, 3, 60, 0
4, 126240, Note_on_c, 3, 60, 45
4, 126334, Note_on_c, 3, 60, 0
4, 126336, Note_on_c, 3, 60, 45
4, 126430, Note_on_c, 3, 60, 0
4, 126432, Note_on_c, 3, 60, 45
4, 126526, Note_on_c, 3, 60, 0
4, 126528, Note_on_c, 3, 60, 45
4, 126622, Note_on_c, 3, 60, 0
4, 126624, Note_on_c, 3, 60, 45
4, 126718, Note_on_c, 3, 60, 0
4, 126720, Note_on_c, 3, 62, 45
4, 126814, Note_on_c, 3, 62, 0
4, 126816, Note_on_c, 3, 62, 45
4, 126910, Note_on_c, 3, 62, 0
4, 126912, Note_on_c, 3, 62, 45
4, 127006, Note_on_c, 3, 62, 0
4, 127008, Note_on_c, 3, 62, 45
4, 127102, Note_on_c, 3, 62, 0
4, 127104, Note_on_c, 3, 62, 45
4, 127198, Note_on_c, 3, 62, 0
4, 127200, Note_on_c, 3, 62, 45
4, 127294, Note_on_c, 3, 62, 0
4, 127296, Note_on_c, 3, 62, 45
4, 127390, Note_on_c, 3, 62, 0
4, 127392, Note_on_c, 3, 62, 45
4, 127486, Note_on_c, 3, 62, 0
4, 127488, Note_on_c, 3, 62, 45
4, 127582, Note_on_c, 3, 62, 0
4, 127584, Note_on_c, 3, 62, 45
4, 127678, Note_on_c, 3, 62, 0
4, 127680, Note_on_c, 3, 62, 45
4, 127774, Note_on_c, 3, 62, 0
4, 127776, Note_on_c, 3, 62, 45
4, 127870, Note_on_c, 3, 62, 0
4, 127872, Note_on_c, 3, 60, 45
4, 127920, Note_on_c, 3, 60, 0
4, 128064, Note_on_c, 3, 55, 60
4, 128064, Note_on_c, 3, 64, 60
4, 128112, Note_on_c, 3, 64, 0
4, 128112, Note_on_c, 3, 55, 0
4, 130368, Note_on_c, 3, 52, 92
4, 130416, Note_on_c, 3, 52, 0
4, 130560, Note_on_c, 3, 52, 92
4, 130608, Note_on_c, 3, 52, 0
4, 130752, Note_on_c, 3, 52, 92
4, 130800, Note_on_c, 3, 52, 0
4, 131328, Note_on_c, 3, 57, 108
4, 131488, Note_on_c, 3, 57, 0
4, 133920, Note_on_c, 3, 60, 45
4, 133968, Note_on_c, 3, 60, 0
4, 133968, Note_on_c, 3, 58, 45
4, 134014, Note_on_c, 3, 58, 0
4, 134016, Note_on_c, 3, 57, 45
4, 134048, Note_on_c, 3, 57, 0
4, 134112, Note_on_c, 3, 58, 45
4, 134144, Note_on_c, 3, 58, 0
4, 134208, Note_on_c, 3, 53, 45
4, 134736, Note_on_c, 3, 53, 0
4, 134784, Note_on_c, 3, 58, 92
4, 135072, Note_on_c, 3, 58, 0
4, 135072, Note_on_c, 3, 60, 45
4, 135120, Note_on_c, 3, 60, 0
4, 135120, Note_on_c, 3, 58, 45
4, 135166, Note_on_c, 3, 58, 0
4, 135168, Note_on_c, 3, 57, 45
4, 135200, Note_on_c, 3, 57, 0
4, 135264, Note_on_c, 3, 58, 45
4, 135296, Note_on_c, 3, 58, 0
4, 135360, Note_on_c, 3, 55, 45
4, 135888, Note_on_c, 3, 55, 0
4, 135936, Note_on_c, 3, 63, 30
4, 136896, Note_on_c, 3, 63, 0
4, 136896, Note_on_c, 3, 60, 30
4, 137056, Note_on_c, 3, 60, 0
4, 137664, Note_on_c, 3, 67, 30
4, 138624, Note_on_c, 3, 67, 0
4, 138624, Note_on_c, 3, 64, 30
4, 138784, Note_on_c, 3, 64, 0
4, 139968, Note_on_c, 3, 70, 92
4, 140256, Note_on_c, 3, 70, 0
4, 140256, Note_on_c, 3, 72, 92
4, 140304, Note_on_c, 3, 72, 0
4, 140304, Note_on_c, 3, 70, 92
4, 140350, Note_on_c, 3, 70, 0
4, 140352, Note_on_c, 3, 69, 92
4, 140384, Note_on_c, 3, 69, 0
4, 140448, Note_on_c, 3, 70, 92
4, 140480, Note_on_c, 3, 70, 0
4, 140544, Note_on_c, 3, 61, 92
4, 140592, Note_on_c, 3, 61, 0
4, 140736, Note_on_c, 3, 64, 92
4, 140784, Note_on_c, 3, 64, 0
4, 140928, Note_on_c, 3, 65, 92
4, 140976, Note_on_c, 3, 65, 0
4, 141120, Note_on_c, 3, 67, 92
4, 141168, Note_on_c, 3, 67, 0
4, 141312, Note_on_c, 3, 67, 92
4, 141360, Note_on_c, 3, 67, 0
4, 141504, Note_on_c, 3, 69, 92
4, 141552, Note_on_c, 3, 69, 0
4, 141696, Note_on_c, 3, 70, 92
4, 141744, Note_on_c, 3, 70, 0
4, 141888, Note_on_c, 3, 70, 127
4, 142176, Note_on_c, 3, 70, 0
4, 142176, Note_on_c, 3, 69, 92
4, 142270, Note_on_c, 3, 69, 0
4, 142272, Note_on_c, 3, 70, 92
4, 142320, Note_on_c, 3, 70, 0
4, 142464, Note_on_c, 3, 70, 127
4, 142752, Note_on_c, 3, 70, 0
4, 142752, Note_on_c, 3, 69, 92
4, 142846, Note_on_c, 3, 69, 0
4, 144192, Note_on_c, 3, 63, 92
4, 144480, Note_on_c, 3, 63, 0
4, 144480, Note_on_c, 3, 65, 92
4, 144528, Note_on_c, 3, 65, 0
4, 144528, Note_on_c, 3, 63, 92
4, 144574, Note_on_c, 3, 63, 0
4, 144576, Note_on_c, 3, 62, 92
4, 144608, Note_on_c, 3, 62, 0
4, 144672, Note_on_c, 3, 63, 92
4, 144704, Note_on_c, 3, 63, 0
4, 144768, Note_on_c, 3, 60, 92
4, 144816, Note_on_c, 3, 60, 0
4, 144960, Note_on_c, 3, 62, 92
4, 145008, Note_on_c, 3, 62, 0
4, 145152, Note_on_c, 3, 63, 92
4, 145440, Note_on_c, 3, 63, 0
4, 145440, Note_on_c, 3, 60, 92
4, 145488, Note_on_c, 3, 60, 0
4, 145488, Note_on_c, 3, 62, 92
4, 145534, Note_on_c, 3, 62, 0
4, 145536, Note_on_c, 3, 63, 92
4, 145632, Note_on_c, 3, 63, 0
4, 145632, Note_on_c, 3, 62, 92
4, 145726, Note_on_c, 3, 62, 0
4, 145728, Note_on_c, 3, 63, 92
4, 146016, Note_on_c, 3, 63, 0
4, 146016, Note_on_c, 3, 60, 92
4, 146064, Note_on_c, 3, 60, 0
4, 146064, Note_on_c, 3, 62, 92
4, 146110, Note_on_c, 3, 62, 0
4, 146112, Note_on_c, 3, 63, 92
4, 146208, Note_on_c, 3, 63, 0
4, 146208, Note_on_c, 3, 62, 92
4, 146302, Note_on_c, 3, 62, 0
4, 146304, Note_on_c, 3, 68, 92
4, 146592, Note_on_c, 3, 68, 0
4, 146592, Note_on_c, 3, 70, 92
4, 146640, Note_on_c, 3, 70, 0
4, 146640, Note_on_c, 3, 68, 92
4, 146686, Note_on_c, 3, 68, 0
4, 146688, Note_on_c, 3, 67, 92
4, 146720, Note_on_c, 3, 67, 0
4, 146784, Note_on_c, 3, 68, 92
4, 146816, Note_on_c, 3, 68, 0
4, 146880, Note_on_c, 3, 59, 92
4, 146928, Note_on_c, 3, 59, 0
4, 147072, Note_on_c, 3, 60, 92
4, 147120, Note_on_c, 3, 60, 0
4, 147264, Note_on_c, 3, 61, 92
4, 147312, Note_on_c, 3, 61, 0
4, 147456, Note_on_c, 3, 62, 92
4, 147504, Note_on_c, 3, 62, 0
4, 147648, Note_on_c, 3, 63, 92
4, 147696, Note_on_c, 3, 63, 0
4, 147840, Note_on_c, 3, 64, 92
4, 147888, Note_on_c, 3, 64, 0
4, 148032, Note_on_c, 3, 65, 92
4, 148080, Note_on_c, 3, 65, 0
4, 148224, Note_on_c, 3, 68, 92
4, 148272, Note_on_c, 3, 68, 0
4, 148416, Note_on_c, 3, 67, 92
4, 148464, Note_on_c, 3, 67, 0
4, 148608, Note_on_c, 3, 65, 92
4, 148704, Note_on_c, 3, 65, 0
4, 148704, Note_on_c, 3, 68, 92
4, 148752, Note_on_c, 3, 68, 0
4, 148752, Note_on_c, 3, 67, 92
4, 148798, Note_on_c, 3, 67, 0
4, 148800, Note_on_c, 3, 65, 127
4, 149088, Note_on_c, 3, 65, 0
4, 149088, Note_on_c, 3, 67, 92
4, 149182, Note_on_c, 3, 67, 0
4, 149184, Note_on_c, 3, 65, 92
4, 149280, Note_on_c, 3, 65, 0
4, 149280, Note_on_c, 3, 68, 92
4, 149328, Note_on_c, 3, 68, 0
4, 149328, Note_on_c, 3, 67, 92
4, 149374, Note_on_c, 3, 67, 0
4, 149376, Note_on_c, 3, 65, 127
4, 149664, Note_on_c, 3, 65, 0
4, 149664, Note_on_c, 3, 67, 92
4, 149758, Note_on_c, 3, 67, 0
4, 149760, Note_on_c, 3, 70, 92
4, 149856, Note_on_c, 3, 70, 0
4, 149856, Note_on_c, 3, 67, 92
4, 149904, Note_on_c, 3, 67, 0
4, 149904, Note_on_c, 3, 68, 92
4, 149950, Note_on_c, 3, 68, 0
4, 149952, Note_on_c, 3, 70, 127
4, 150240, Note_on_c, 3, 70, 0
4, 150240, Note_on_c, 3, 68, 92
4, 150334, Note_on_c, 3, 68, 0
4, 150336, Note_on_c, 3, 70, 92
4, 150432, Note_on_c, 3, 70, 0
4, 150432, Note_on_c, 3, 67, 92
4, 150480, Note_on_c, 3, 67, 0
4, 150480, Note_on_c, 3, 68, 92
4, 150526, Note_on_c, 3, 68, 0
4, 150528, Note_on_c, 3, 70, 127
4, 150816, Note_on_c, 3, 70, 0
4, 150816, Note_on_c, 3, 68, 92
4, 150910, Note_on_c, 3, 68, 0
4, 150912, Note_on_c, 3, 66, 92
4, 151008, Note_on_c, 3, 66, 0
4, 151008, Note_on_c, 3, 63, 92
4, 151056, Note_on_c, 3, 63, 0
4, 151056, Note_on_c, 3, 65, 92
4, 151102, Note_on_c, 3, 65, 0
4, 151104, Note_on_c, 3, 66, 127
4, 151392, Note_on_c, 3, 66, 0
4, 151392, Note_on_c, 3, 65, 92
4, 151486, Note_on_c, 3, 65, 0
4, 151488, Note_on_c, 3, 66, 92
4, 151584, Note_on_c, 3, 66, 0
4, 151584, Note_on_c, 3, 63, 92
4, 151632, Note_on_c, 3, 63, 0
4, 151632, Note_on_c, 3, 65, 92
4, 151678, Note_on_c, 3, 65, 0
4, 151680, Note_on_c, 3, 66, 127
4, 151968, Note_on_c, 3, 66, 0
4, 151968, Note_on_c, 3, 65, 92
4, 152062, Note_on_c, 3, 65, 0
4, 152064, Note_on_c, 3, 58, 92
4, 152158, Note_on_c, 3, 58, 0
4, 152160, Note_on_c, 3, 58, 45
4, 152254, Note_on_c, 3, 58, 0
4, 152256, Note_on_c, 3, 58, 45
4, 152350, Note_on_c, 3, 58, 0
4, 152352, Note_on_c, 3, 58, 45
4, 152446, Note_on_c, 3, 58, 0
4, 152448, Note_on_c, 3, 58, 45
4, 152542, Note_on_c, 3, 58, 0
4, 152544, Note_on_c, 3, 58, 45
4, 152638, Note_on_c, 3, 58, 0
4, 152640, Note_on_c, 3, 58, 45
4, 152734, Note_on_c, 3, 58, 0
4, 152736, Note_on_c, 3, 58, 45
4, 152830, Note_on_c, 3, 58, 0
4, 152832, Note_on_c, 3, 58, 45
4, 152926, Note_on_c, 3, 58, 0
4, 152928, Note_on_c, 3, 58, 45
4, 153022, Note_on_c, 3, 58, 0
4, 153024, Note_on_c, 3, 58, 45
4, 153118, Note_on_c, 3, 58, 0
4, 153120, Note_on_c, 3, 58, 45
4, 153214, Note_on_c, 3, 58, 0
4, 153216, Note_on_c, 3, 58, 45
4, 153310, Note_on_c, 3, 58, 0
4, 153312, Note_on_c, 3, 58, 45
4, 153406, Note_on_c, 3, 58, 0
4, 153408, Note_on_c, 3, 58, 45
4, 153502, Note_on_c, 3, 58, 0
4, 153504, Note_on_c, 3, 58, 45
4, 153598, Note_on_c, 3, 58, 0
4, 153600, Note_on_c, 3, 58, 45
4, 153694, Note_on_c, 3, 58, 0
4, 153696, Note_on_c, 3, 58, 45
4, 153790, Note_on_c, 3, 58, 0
4, 153792, Note_on_c, 3, 58, 45
4, 153886, Note_on_c, 3, 58, 0
4, 153888, Note_on_c, 3, 58, 45
4, 153982, Note_on_c, 3, 58, 0
4, 153984, Note_on_c, 3, 58, 45
4, 154078, Note_on_c, 3, 58, 0
4, 154080, Note_on_c, 3, 58, 45
4, 154174, Note_on_c, 3, 58, 0
4, 154176, Note_on_c, 3, 58, 45
4, 154270, Note_on_c, 3, 58, 0
4, 154272, Note_on_c, 3, 58, 45
4, 154366, Note_on_c, 3, 58, 0
4, 154368, Note_on_c, 3, 58, 92
4, 154462, Note_on_c, 3, 58, 0
4, 154464, Note_on_c, 3, 58, 45
4, 154558, Note_on_c, 3, 58, 0
4, 154560, Note_on_c, 3, 58, 45
4, 154654, Note_on_c, 3, 58, 0
4, 154656, Note_on_c, 3, 58, 45
4, 154750, Note_on_c, 3, 58, 0
4, 154752, Note_on_c, 3, 58, 45
4, 154846, Note_on_c, 3, 58, 0
4, 154848, Note_on_c, 3, 58, 45
4, 154942, Note_on_c, 3, 58, 0
4, 154944, Note_on_c, 3, 58, 45
4, 155038, Note_on_c, 3, 58, 0
4, 155040, Note_on_c, 3, 58, 45
4, 155134, Note_on_c, 3, 58, 0
4, 155136, Note_on_c, 3, 58, 45
4, 155230, Note_on_c, 3, 58, 0
4, 155232, Note_on_c, 3, 58, 45
4, 155326, Note_on_c, 3, 58, 0
4, 155328, Note_on_c, 3, 58, 45
4, 155422, Note_on_c, 3, 58, 0
4, 155424, Note_on_c, 3, 58, 45
4, 155518, Note_on_c, 3, 58, 0
4, 155520, Note_on_c, 3, 58, 45
4, 155614, Note_on_c, 3, 58, 0
4, 155616, Note_on_c, 3, 58, 45
4, 155710, Note_on_c, 3, 58, 0
4, 155712, Note_on_c, 3, 58, 45
4, 155806, Note_on_c, 3, 58, 0
4, 155808, Note_on_c, 3, 58, 45
4, 155902, Note_on_c, 3, 58, 0
4, 155904, Note_on_c, 3, 58, 45
4, 155998, Note_on_c, 3, 58, 0
4, 156000, Note_on_c, 3, 58, 45
4, 156094, Note_on_c, 3, 58, 0
4, 156096, Note_on_c, 3, 58, 45
4, 156190, Note_on_c, 3, 58, 0
4, 156192, Note_on_c, 3, 58, 45
4, 156286, Note_on_c, 3, 58, 0
4, 156288, Note_on_c, 3, 58, 45
4, 156382, Note_on_c, 3, 58, 0
4, 156384, Note_on_c, 3, 58, 45
4, 156478, Note_on_c, 3, 58, 0
4, 156480, Note_on_c, 3, 58, 45
4, 156574, Note_on_c, 3, 58, 0
4, 156576, Note_on_c, 3, 58, 45
4, 156670, Note_on_c, 3, 58, 0
4, 156672, Note_on_c, 3, 56, 92
4, 156766, Note_on_c, 3, 56, 0
4, 156768, Note_on_c, 3, 56, 45
4, 156862, Note_on_c, 3, 56, 0
4, 156864, Note_on_c, 3, 56, 45
4, 156958, Note_on_c, 3, 56, 0
4, 156960, Note_on_c, 3, 56, 45
4, 157054, Note_on_c, 3, 56, 0
4, 157056, Note_on_c, 3, 56, 45
4, 157150, Note_on_c, 3, 56, 0
4, 157152, Note_on_c, 3, 56, 45
4, 157246, Note_on_c, 3, 56, 0
4, 157248, Note_on_c, 3, 56, 45
4, 157342, Note_on_c, 3, 56, 0
4, 157344, Note_on_c, 3, 56, 45
4, 157438, Note_on_c, 3, 56, 0
4, 157440, Note_on_c, 3, 56, 45
4, 157534, Note_on_c, 3, 56, 0
4, 157536, Note_on_c, 3, 56, 45
4, 157630, Note_on_c, 3, 56, 0
4, 157632, Note_on_c, 3, 56, 45
4, 157726, Note_on_c, 3, 56, 0
4, 157728, Note_on_c, 3, 56, 45
4, 157822, Note_on_c, 3, 56, 0
4, 157824, Note_on_c, 3, 56, 45
4, 157918, Note_on_c, 3, 56, 0
4, 157920, Note_on_c, 3, 56, 45
4, 158014, Note_on_c, 3, 56, 0
4, 158016, Note_on_c, 3, 56, 45
4, 158110, Note_on_c, 3, 56, 0
4, 158112, Note_on_c, 3, 56, 45
4, 158206, Note_on_c, 3, 56, 0
4, 158208, Note_on_c, 3, 56, 45
4, 158302, Note_on_c, 3, 56, 0
4, 158304, Note_on_c, 3, 56, 45
4, 158398, Note_on_c, 3, 56, 0
4, 158400, Note_on_c, 3, 56, 45
4, 158494, Note_on_c, 3, 56, 0
4, 158496, Note_on_c, 3, 56, 45
4, 158590, Note_on_c, 3, 56, 0
4, 158592, Note_on_c, 3, 56, 45
4, 158686, Note_on_c, 3, 56, 0
4, 158688, Note_on_c, 3, 56, 45
4, 158782, Note_on_c, 3, 56, 0
4, 158784, Note_on_c, 3, 56, 45
4, 158878, Note_on_c, 3, 56, 0
4, 158880, Note_on_c, 3, 56, 45
4, 158974, Note_on_c, 3, 56, 0
4, 158976, Note_on_c, 3, 56, 92
4, 159070, Note_on_c, 3, 56, 0
4, 159072, Note_on_c, 3, 56, 45
4, 159166, Note_on_c, 3, 56, 0
4, 159168, Note_on_c, 3, 56, 45
4, 159262, Note_on_c, 3, 56, 0
4, 159264, Note_on_c, 3, 56, 45
4, 159358, Note_on_c, 3, 56, 0
4, 159360, Note_on_c, 3, 56, 45
4, 159454, Note_on_c, 3, 56, 0
4, 159456, Note_on_c, 3, 56, 45
4, 159550, Note_on_c, 3, 56, 0
4, 159552, Note_on_c, 3, 56, 45
4, 159646, Note_on_c, 3, 56, 0
4, 159648, Note_on_c, 3, 56, 45
4, 159742, Note_on_c, 3, 56, 0
4, 159744, Note_on_c, 3, 56, 45
4, 159838, Note_on_c, 3, 56, 0
4, 159840, Note_on_c, 3, 56, 45
4, 159934, Note_on_c, 3, 56, 0
4, 159936, Note_on_c, 3, 56, 45
4, 160030, Note_on_c, 3, 56, 0
4, 160032, Note_on_c, 3, 56, 45
4, 160126, Note_on_c, 3, 56, 0
4, 160128, Note_on_c, 3, 56, 45
4, 160222, Note_on_c, 3, 56, 0
4, 160224, Note_on_c, 3, 56, 45
4, 160318, Note_on_c, 3, 56, 0
4, 160320, Note_on_c, 3, 56, 45
4, 160414, Note_on_c, 3, 56, 0
4, 160416, Note_on_c, 3, 56, 45
4, 160510, Note_on_c, 3, 56, 0
4, 160512, Note_on_c, 3, 56, 45
4, 160606, Note_on_c, 3, 56, 0
4, 160608, Note_on_c, 3, 56, 45
4, 160702, Note_on_c, 3, 56, 0
4, 160704, Note_on_c, 3, 56, 45
4, 160798, Note_on_c, 3, 56, 0
4, 160800, Note_on_c, 3, 56, 45
4, 160894, Note_on_c, 3, 56, 0
4, 160896, Note_on_c, 3, 56, 45
4, 160990, Note_on_c, 3, 56, 0
4, 160992, Note_on_c, 3, 56, 45
4, 161086, Note_on_c, 3, 56, 0
4, 161088, Note_on_c, 3, 56, 45
4, 161182, Note_on_c, 3, 56, 0
4, 161184, Note_on_c, 3, 56, 45
4, 161278, Note_on_c, 3, 56, 0
4, 161280, Note_on_c, 3, 55, 45
4, 161440, Note_on_c, 3, 55, 0
4, 161472, Note_on_c, 3, 60, 63
4, 162016, Note_on_c, 3, 60, 0
4, 162048, Note_on_c, 3, 60, 63
4, 162592, Note_on_c, 3, 60, 0
4, 162624, Note_on_c, 3, 60, 63
4, 163168, Note_on_c, 3, 60, 0
4, 163200, Note_on_c, 3, 60, 45
4, 163360, Note_on_c, 3, 60, 0
4, 163392, Note_on_c, 3, 60, 60
4, 163552, Note_on_c, 3, 60, 0
4, 163584, Note_on_c, 3, 60, 45
4, 163744, Note_on_c, 3, 60, 0
4, 163776, Note_on_c, 3, 48, 63
4, 163776, Note_on_c, 3, 60, 63
4, 164320, Note_on_c, 3, 60, 0
4, 164320, Note_on_c, 3, 48, 0
4, 164352, Note_on_c, 3, 60, 63
4, 164352, Note_on_c, 3, 64, 63
4, 164896, Note_on_c, 3, 64, 0
4, 164896, Note_on_c, 3, 60, 0
4, 164928, Note_on_c, 3, 60, 63
4, 164928, Note_on_c, 3, 67, 63
4, 165472, Note_on_c, 3, 67, 0
4, 165472, Note_on_c, 3, 60, 0
4, 165504, Note_on_c, 3, 60, 45
4, 165504, Note_on_c, 3, 67, 45
4, 165664, Note_on_c, 3, 67, 0
4, 165664, Note_on_c, 3, 60, 0
4, 165696, Note_on_c, 3, 60, 45
4, 165696, Note_on_c, 3, 67, 45
4, 165856, Note_on_c, 3, 67, 0
4, 165856, Note_on_c, 3, 60, 0
4, 165888, Note_on_c, 3, 60, 63
4, 165888, Note_on_c, 3, 67, 63
4, 166416, Note_on_c, 3, 67, 0
4, 166416, Note_on_c, 3, 60, 0
4, 166464, Note_on_c, 3, 48, 63
4, 166464, Note_on_c, 3, 60, 63
4, 166992, Note_on_c, 3, 60, 0
4, 166992, Note_on_c, 3, 48, 0
4, 167040, Note_on_c, 3, 48, 45
4, 167040, Note_on_c, 3, 60, 45
4, 167134, Note_on_c, 3, 60, 0
4, 167134, Note_on_c, 3, 48, 0
4, 167136, Note_on_c, 3, 48, 45
4, 167136, Note_on_c, 3, 60, 45
4, 167230, Note_on_c, 3, 60, 0
4, 167230, Note_on_c, 3, 48, 0
4, 167232, Note_on_c, 3, 48, 45
4, 167232, Note_on_c, 3, 60, 45
4, 167326, Note_on_c, 3, 60, 0
4, 167326, Note_on_c, 3, 48, 0
4, 167328, Note_on_c, 3, 48, 45
4, 167328, Note_on_c, 3, 60, 45
4, 167422, Note_on_c, 3, 60, 0
4, 167422, Note_on_c, 3, 48, 0
4, 167424, Note_on_c, 3, 48, 45
4, 167424, Note_on_c, 3, 60, 45
4, 167518, Note_on_c, 3, 60, 0
4, 167518, Note_on_c, 3, 48, 0
4, 167520, Note_on_c, 3, 48, 45
4, 167520, Note_on_c, 3, 60, 45
4, 167614, Note_on_c, 3, 60, 0
4, 167614, Note_on_c, 3, 48, 0
4, 167616, Note_on_c, 3, 60, 45
4, 167710, Note_on_c, 3, 60, 0
4, 167712, Note_on_c, 3, 48, 55
4, 167712, Note_on_c, 3, 60, 55
4, 167806, Note_on_c, 3, 60, 0
4, 167806, Note_on_c, 3, 48, 0
4, 167808, Note_on_c, 3, 60, 65
4, 167902, Note_on_c, 3, 60, 0
4, 167904, Note_on_c, 3, 48, 75
4, 167904, Note_on_c, 3, 60, 75
4, 167998, Note_on_c, 3, 60, 0
4, 167998, Note_on_c, 3, 48, 0
4, 168000, Note_on_c, 3, 48, 86
4, 168094, Note_on_c, 3, 48, 0
4, 168096, Note_on_c, 3, 48, 97
4, 168096, Note_on_c, 3, 60, 97
4, 168190, Note_on_c, 3, 60, 0
4, 168190, Note_on_c, 3, 48, 0
4, 168192, Note_on_c, 3, 53, 108
4, 168480, Note_on_c, 3, 53, 0
4, 168480, Note_on_c, 3, 55, 108
4, 168528, Note_on_c, 3, 55, 0
4, 168528, Note_on_c, 3, 53, 108
4, 168574, Note_on_c, 3, 53, 0
4, 168576, Note_on_c, 3, 52, 108
4, 168608, Note_on_c, 3, 52, 0
4, 168672, Note_on_c, 3, 53, 108
4, 168704, Note_on_c, 3, 53, 0
4, 168768, Note_on_c, 3, 48, 108
4, 168928, Note_on_c, 3, 48, 0
4, 169344, Note_on_c, 3, 53, 108
4, 169632, Note_on_c, 3, 53, 0
4, 169632, Note_on_c, 3, 55, 108
4, 169680, Note_on_c, 3, 55, 0
4, 169680, Note_on_c, 3, 53, 108
4, 169726, Note_on_c, 3, 53, 0
4, 169728, Note_on_c, 3, 52, 108
4, 169760, Note_on_c, 3, 52, 0
4, 169824, Note_on_c, 3, 53, 108
4, 169856, Note_on_c, 3, 53, 0
4, 169920, Note_on_c, 3, 50, 108
4, 170080, Note_on_c, 3, 50, 0
4, 170496, Note_on_c, 3, 62, 45
4, 171072, Note_on_c, 3, 62, 0
4, 171072, Note_on_c, 3, 60, 92
4, 171840, Note_on_c, 3, 60, 0
4, 171840, Note_on_c, 3, 62, 45
4, 172032, Note_on_c, 3, 62, 0
4, 172032, Note_on_c, 3, 55, 45
4, 172192, Note_on_c, 3, 55, 0
4, 172224, Note_on_c, 3, 60, 45
4, 172320, Note_on_c, 3, 60, 0
4, 172320, Note_on_c, 3, 59, 45
4, 172416, Note_on_c, 3, 59, 0
4, 172416, Note_on_c, 3, 60, 45
4, 172512, Note_on_c, 3, 60, 0
4, 172512, Note_on_c, 3, 59, 45
4, 172608, Note_on_c, 3, 59, 0
4, 172608, Note_on_c, 3, 60, 45
4, 172768, Note_on_c, 3, 60, 0
4, 173376, Note_on_c, 3, 69, 45
4, 173664, Note_on_c, 3, 69, 0
4, 173664, Note_on_c, 3, 70, 45
4, 173712, Note_on_c, 3, 70, 0
4, 173712, Note_on_c, 3, 69, 45
4, 173758, Note_on_c, 3, 69, 0
4, 173760, Note_on_c, 3, 67, 45
4, 173792, Note_on_c, 3, 67, 0
4, 173856, Note_on_c, 3, 69, 45
4, 173888, Note_on_c, 3, 69, 0
4, 173952, Note_on_c, 3, 70, 45
4, 174144, Note_on_c, 3, 70, 0
4, 174144, Note_on_c, 3, 66, 45
4, 174336, Note_on_c, 3, 66, 0
4, 174336, Note_on_c, 3, 63, 45
4, 174496, Note_on_c, 3, 63, 0
4, 174528, Note_on_c, 3, 68, 45
4, 174576, Note_on_c, 3, 68, 0
4, 174720, Note_on_c, 3, 56, 45
4, 174768, Note_on_c, 3, 56, 0
4, 175104, Note_on_c, 3, 61, 45
4, 175488, Note_on_c, 3, 61, 0
4, 175488, Note_on_c, 3, 66, 45
4, 175632, Note_on_c, 3, 66, 0
4, 175632, Note_on_c, 3, 63, 45
4, 175678, Note_on_c, 3, 63, 0
4, 175680, Note_on_c, 3, 61, 45
4, 176064, Note_on_c, 3, 61, 0
4, 176064, Note_on_c, 3, 60, 45
4, 176224, Note_on_c, 3, 60, 0
4, 176448, Note_on_c, 3, 66, 45
4, 176640, Note_on_c, 3, 66, 0
4, 176640, Note_on_c, 3, 63, 45
4, 176800, Note_on_c, 3, 63, 0
4, 176832, Note_on_c, 3, 65, 45
4, 176880, Note_on_c, 3, 65, 0
4, 177024, Note_on_c, 3, 53, 45
4, 177072, Note_on_c, 3, 53, 0
4, 177408, Note_on_c, 3, 58, 60
4, 177744, Note_on_c, 3, 58, 0
4, 177792, Note_on_c, 3, 58, 45
4, 177952, Note_on_c, 3, 58, 0
4, 177984, Note_on_c, 3, 56, 45
4, 178560, Note_on_c, 3, 56, 0
4, 178560, Note_on_c, 3, 53, 68
4, 179088, Note_on_c, 3, 53, 0
4, 179136, Note_on_c, 3, 49, 45
4, 179424, Note_on_c, 3, 49, 0
4, 179424, Note_on_c, 3, 51, 45
4, 179472, Note_on_c, 3, 51, 0
4, 179472, Note_on_c, 3, 49, 45
4, 179518, Note_on_c, 3, 49, 0
4, 179520, Note_on_c, 3, 48, 45
4, 179552, Note_on_c, 3, 48, 0
4, 179616, Note_on_c, 3, 49, 45
4, 179648, Note_on_c, 3, 49, 0
4, 179712, Note_on_c, 3, 49, 45
4, 180576, Note_on_c, 3, 49, 0
4, 180576, Note_on_c, 3, 51, 45
4, 180624, Note_on_c, 3, 51, 0
4, 180624, Note_on_c, 3, 49, 45
4, 180670, Note_on_c, 3, 49, 0
4, 180672, Note_on_c, 3, 48, 45
4, 180704, Note_on_c, 3, 48, 0
4, 180768, Note_on_c, 3, 49, 45
4, 180800, Note_on_c, 3, 49, 0
4, 180864, Note_on_c, 3, 49, 45
4, 181728, Note_on_c, 3, 49, 0
4, 181728, Note_on_c, 3, 51, 45
4, 181776, Note_on_c, 3, 51, 0
4, 181776, Note_on_c, 3, 49, 45
4, 181822, Note_on_c, 3, 49, 0
4, 181824, Note_on_c, 3, 48, 45
4, 181856, Note_on_c, 3, 48, 0
4, 181920, Note_on_c, 3, 49, 45
4, 181952, Note_on_c, 3, 49, 0
4, 182016, Note_on_c, 3, 49, 45
4, 182544, Note_on_c, 3, 49, 0
4, 182592, Note_on_c, 3, 49, 45
4, 182880, Note_on_c, 3, 49, 0
4, 182880, Note_on_c, 3, 51, 45
4, 182928, Note_on_c, 3, 51, 0
4, 182928, Note_on_c, 3, 49, 45
4, 182974, Note_on_c, 3, 49, 0
4, 182976, Note_on_c, 3, 48, 45
4, 183008, Note_on_c, 3, 48, 0
4, 183072, Note_on_c, 3, 49, 45
4, 183104, Note_on_c, 3, 49, 0
4, 183168, Note_on_c, 3, 49, 45
4, 183696, Note_on_c, 3, 49, 0
4, 183744, Note_on_c, 3, 49, 45
4, 184032, Note_on_c, 3, 49, 0
4, 184032, Note_on_c, 3, 51, 56
4, 184080, Note_on_c, 3, 51, 0
4, 184080, Note_on_c, 3, 49, 58
4, 184126, Note_on_c, 3, 49, 0
4, 184128, Note_on_c, 3, 48, 60
4, 184160, Note_on_c, 3, 48, 0
4, 184224, Note_on_c, 3, 49, 64
4, 184256, Note_on_c, 3, 49, 0
4, 184320, Note_on_c, 3, 49, 68
4, 184848, Note_on_c, 3, 49, 0
4, 184896, Note_on_c, 3, 48, 92
4, 185184, Note_on_c, 3, 48, 0
4, 185184, Note_on_c, 3, 61, 92
4, 185232, Note_on_c, 3, 61, 0
4, 185232, Note_on_c, 3, 60, 92
4, 185278, Note_on_c, 3, 60, 0
4, 185280, Note_on_c, 3, 59, 92
4, 185312, Note_on_c, 3, 59, 0
4, 185376, Note_on_c, 3, 60, 92
4, 185408, Note_on_c, 3, 60, 0
4, 185664, Note_on_c, 3, 55, 92
4, 185712, Note_on_c, 3, 55, 0
4, 185856, Note_on_c, 3, 56, 92
4, 185888, Note_on_c, 3, 56, 0
4, 185952, Note_on_c, 3, 53, 92
4, 185984, Note_on_c, 3, 53, 0
4, 186048, Note_on_c, 3, 52, 92
4, 186208, Note_on_c, 3, 52, 0
4, 186336, Note_on_c, 3, 64, 45
4, 186368, Note_on_c, 3, 64, 0
4, 186432, Note_on_c, 3, 64, 45
4, 186464, Note_on_c, 3, 64, 0
4, 186528, Note_on_c, 3, 65, 45
4, 186560, Note_on_c, 3, 65, 0
4, 186624, Note_on_c, 3, 64, 45
4, 186784, Note_on_c, 3, 64, 0
4, 186912, Note_on_c, 3, 60, 45
4, 186944, Note_on_c, 3, 60, 0
4, 187008, Note_on_c, 3, 60, 60
4, 187040, Note_on_c, 3, 60, 0
4, 187104, Note_on_c, 3, 60, 60
4, 187136, Note_on_c, 3, 60, 0
4, 187200, Note_on_c, 3, 60, 60
4, 187360, Note_on_c, 3, 60, 0
4, 187488, Note_on_c, 3, 52, 45
4, 187520, Note_on_c, 3, 52, 0
4, 187584, Note_on_c, 3, 52, 45
4, 187616, Note_on_c, 3, 52, 0
4, 187680, Note_on_c, 3, 53, 45
4, 187712, Note_on_c, 3, 53, 0
4, 187776, Note_on_c, 3, 52, 45
4, 187936, Note_on_c, 3, 52, 0
4, 188064, Note_on_c, 3, 60, 45
4, 188096, Note_on_c, 3, 60, 0
4, 188160, Note_on_c, 3, 60, 60
4, 188192, Note_on_c, 3, 60, 0
4, 188256, Note_on_c, 3, 60, 60
4, 188288, Note_on_c, 3, 60, 0
4, 188352, Note_on_c, 3, 60, 45
4, 188512, Note_on_c, 3, 60, 0
4, 188640, Note_on_c, 3, 67, 76
4, 188672, Note_on_c, 3, 67, 0
4, 188736, Note_on_c, 3, 67, 86
4, 188768, Note_on_c, 3, 67, 0
4, 188832, Note_on_c, 3, 68, 97
4, 188864, Note_on_c, 3, 68, 0
4, 188928, Note_on_c, 3, 67, 108
4, 188974, Note_on_c, 3, 67, 0
4, 188976, Note_on_c, 3, 48, 108
4, 189022, Note_on_c, 3, 48, 0
4, 189024, Note_on_c, 3, 50, 108
4, 189070, Note_on_c, 3, 50, 0
4, 189072, Note_on_c, 3, 52, 108
4, 189118, Note_on_c, 3, 52, 0
4, 189120, Note_on_c, 3, 53, 108
4, 189166, Note_on_c, 3, 53, 0
4, 189168, Note_on_c, 3, 55, 108
4, 189214, Note_on_c, 3, 55, 0
4, 189216, Note_on_c, 3, 57, 108
4, 189262, Note_on_c, 3, 57, 0
4, 189264, Note_on_c, 3, 59, 108
4, 189310, Note_on_c, 3, 59, 0
4, 189312, Note_on_c, 3, 60, 108
4, 189358, Note_on_c, 3, 60, 0
4, 189360, Note_on_c, 3, 59, 108
4, 189406, Note_on_c, 3, 59, 0
4, 189408, Note_on_c, 3, 60, 108
4, 189454, Note_on_c, 3, 60, 0
4, 189456, Note_on_c, 3, 59, 108
4, 189502, Note_on_c, 3, 59, 0
4, 189504, Note_on_c, 3, 60, 108
4, 189664, Note_on_c, 3, 60, 0
4, 191616, Note_on_c, 3, 70, 45
4, 191648, Note_on_c, 3, 70, 0
4, 191712, Note_on_c, 3, 70, 45
4, 191808, Note_on_c, 3, 70, 0
4, 191808, Note_on_c, 3, 69, 45
4, 191902, Note_on_c, 3, 69, 0
4, 191904, Note_on_c, 3, 69, 45
4, 192000, Note_on_c, 3, 69, 0
4, 192000, Note_on_c, 3, 67, 45
4, 192094, Note_on_c, 3, 67, 0
4, 192096, Note_on_c, 3, 67, 45
4, 192192, Note_on_c, 3, 67, 0
4, 192192, Note_on_c, 3, 65, 45
4, 192286, Note_on_c, 3, 65, 0
4, 192288, Note_on_c, 3, 65, 45
4, 192384, Note_on_c, 3, 65, 0
4, 192384, Note_on_c, 3, 64, 45
4, 192640, Note_on_c, 3, 64, 0
4, 192768, Note_on_c, 3, 69, 45
4, 192800, Note_on_c, 3, 69, 0
4, 192864, Note_on_c, 3, 69, 45
4, 192960, Note_on_c, 3, 69, 0
4, 192960, Note_on_c, 3, 70, 45
4, 193054, Note_on_c, 3, 70, 0
4, 193056, Note_on_c, 3, 70, 45
4, 193152, Note_on_c, 3, 70, 0
4, 193152, Note_on_c, 3, 67, 45
4, 193246, Note_on_c, 3, 67, 0
4, 193248, Note_on_c, 3, 67, 45
4, 193344, Note_on_c, 3, 67, 0
4, 193344, Note_on_c, 3, 64, 45
4, 193438, Note_on_c, 3, 64, 0
4, 193440, Note_on_c, 3, 64, 45
4, 193536, Note_on_c, 3, 64, 0
4, 193536, Note_on_c, 3, 61, 45
4, 193630, Note_on_c, 3, 61, 0
4, 193632, Note_on_c, 3, 61, 45
4, 193728, Note_on_c, 3, 61, 0
4, 193728, Note_on_c, 3, 69, 45
4, 193822, Note_on_c, 3, 69, 0
4, 193824, Note_on_c, 3, 69, 45
4, 193920, Note_on_c, 3, 69, 0
4, 193920, Note_on_c, 3, 67, 45
4, 194014, Note_on_c, 3, 67, 0
4, 194016, Note_on_c, 3, 67, 45
4, 194112, Note_on_c, 3, 67, 0
4, 194112, Note_on_c, 3, 65, 45
4, 194206, Note_on_c, 3, 65, 0
4, 194208, Note_on_c, 3, 65, 45
4, 194304, Note_on_c, 3, 65, 0
4, 194304, Note_on_c, 3, 62, 45
4, 194398, Note_on_c, 3, 62, 0
4, 194400, Note_on_c, 3, 62, 45
4, 194496, Note_on_c, 3, 62, 0
4, 194496, Note_on_c, 3, 67, 45
4, 194590, Note_on_c, 3, 67, 0
4, 194592, Note_on_c, 3, 67, 45
4, 194688, Note_on_c, 3, 67, 0
4, 194688, Note_on_c, 3, 60, 45
4, 194944, Note_on_c, 3, 60, 0
4, 196224, Note_on_c, 3, 67, 45
4, 196256, Note_on_c, 3, 67, 0
4, 196320, Note_on_c, 3, 67, 45
4, 196416, Note_on_c, 3, 67, 0
4, 196416, Note_on_c, 3, 65, 45
4, 196510, Note_on_c, 3, 65, 0
4, 196512, Note_on_c, 3, 65, 45
4, 196608, Note_on_c, 3, 65, 0
4, 196608, Note_on_c, 3, 64, 45
4, 196702, Note_on_c, 3, 64, 0
4, 196704, Note_on_c, 3, 64, 45
4, 196800, Note_on_c, 3, 64, 0
4, 196800, Note_on_c, 3, 60, 45
4, 196894, Note_on_c, 3, 60, 0
4, 196896, Note_on_c, 3, 60, 45
4, 196990, Note_on_c, 3, 60, 0
4, 196992, Note_on_c, 3, 61, 45
4, 197248, Note_on_c, 3, 61, 0
4, 197760, Note_on_c, 3, 73, 45
4, 197792, Note_on_c, 3, 73, 0
4, 197856, Note_on_c, 3, 73, 45
4, 197952, Note_on_c, 3, 73, 0
4, 197952, Note_on_c, 3, 70, 45
4, 198046, Note_on_c, 3, 70, 0
4, 198048, Note_on_c, 3, 70, 45
4, 198144, Note_on_c, 3, 70, 0
4, 198144, Note_on_c, 3, 67, 45
4, 198238, Note_on_c, 3, 67, 0
4, 198240, Note_on_c, 3, 67, 45
4, 198336, Note_on_c, 3, 67, 0
4, 198336, Note_on_c, 3, 68, 48
4, 198430, Note_on_c, 3, 68, 0
4, 198432, Note_on_c, 3, 65, 52
4, 198528, Note_on_c, 3, 65, 0
4, 198528, Note_on_c, 3, 59, 56
4, 198622, Note_on_c, 3, 59, 0
4, 198624, Note_on_c, 3, 59, 60
4, 198720, Note_on_c, 3, 59, 0
4, 198720, Note_on_c, 3, 60, 89
4, 198814, Note_on_c, 3, 60, 0
4, 198816, Note_on_c, 3, 60, 68
4, 198912, Note_on_c, 3, 60, 0
4, 198912, Note_on_c, 3, 72, 72
4, 199006, Note_on_c, 3, 72, 0
4, 199008, Note_on_c, 3, 72, 76
4, 199104, Note_on_c, 3, 72, 0
4, 199104, Note_on_c, 3, 60, 80
4, 199198, Note_on_c, 3, 60, 0
4, 199200, Note_on_c, 3, 60, 84
4, 199294, Note_on_c, 3, 60, 0
4, 199296, Note_on_c, 3, 65, 88
4, 199390, Note_on_c, 3, 65, 0
4, 199392, Note_on_c, 3, 53, 45
4, 199424, Note_on_c, 3, 53, 0
4, 199488, Note_on_c, 3, 53, 45
4, 199520, Note_on_c, 3, 53, 0
4, 199584, Note_on_c, 3, 53, 45
4, 199616, Note_on_c, 3, 53, 0
4, 199680, Note_on_c, 3, 53, 45
4, 199712, Note_on_c, 3, 53, 0
4, 199776, Note_on_c, 3, 53, 45
4, 199808, Note_on_c, 3, 53, 0
4, 199872, Note_on_c, 3, 53, 45
4, 199966, Note_on_c, 3, 53, 0
4, 199968, Note_on_c, 3, 53, 45
4, 200062, Note_on_c, 3, 53, 0
4, 200064, Note_on_c, 3, 53, 45
4, 200158, Note_on_c, 3, 53, 0
4, 200160, Note_on_c, 3, 53, 45
4, 200254, Note_on_c, 3, 53, 0
4, 200256, Note_on_c, 3, 53, 45
4, 200350, Note_on_c, 3, 53, 0
4, 200352, Note_on_c, 3, 53, 45
4, 200446, Note_on_c, 3, 53, 0
4, 200448, Note_on_c, 3, 55, 45
4, 200542, Note_on_c, 3, 55, 0
4, 200544, Note_on_c, 3, 55, 45
4, 200638, Note_on_c, 3, 55, 0
4, 200640, Note_on_c, 3, 55, 45
4, 200734, Note_on_c, 3, 55, 0
4, 200736, Note_on_c, 3, 55, 45
4, 200830, Note_on_c, 3, 55, 0
4, 200832, Note_on_c, 3, 55, 45
4, 200926, Note_on_c, 3, 55, 0
4, 200928, Note_on_c, 3, 55, 45
4, 201022, Note_on_c, 3, 55, 0
4, 201024, Note_on_c, 3, 55, 45
4, 201118, Note_on_c, 3, 55, 0
4, 201120, Note_on_c, 3, 55, 45
4, 201214, Note_on_c, 3, 55, 0
4, 201216, Note_on_c, 3, 55, 45
4, 201310, Note_on_c, 3, 55, 0
4, 201312, Note_on_c, 3, 55, 45
4, 201406, Note_on_c, 3, 55, 0
4, 201408, Note_on_c, 3, 55, 45
4, 201502, Note_on_c, 3, 55, 0
4, 201504, Note_on_c, 3, 55, 45
4, 201598, Note_on_c, 3, 55, 0
4, 201600, Note_on_c, 3, 57, 45
4, 201694, Note_on_c, 3, 57, 0
4, 201696, Note_on_c, 3, 57, 52
4, 201790, Note_on_c, 3, 57, 0
4, 201792, Note_on_c, 3, 57, 60
4, 201886, Note_on_c, 3, 57, 0
4, 201888, Note_on_c, 3, 57, 68
4, 201982, Note_on_c, 3, 57, 0
4, 201984, Note_on_c, 3, 57, 76
4, 202078, Note_on_c, 3, 57, 0
4, 202080, Note_on_c, 3, 57, 84
4, 202174, Note_on_c, 3, 57, 0
4, 202176, Note_on_c, 3, 57, 92
4, 202270, Note_on_c, 3, 57, 0
4, 202272, Note_on_c, 3, 57, 92
4, 202366, Note_on_c, 3, 57, 0
4, 202368, Note_on_c, 3, 57, 92
4, 202462, Note_on_c, 3, 57, 0
4, 202464, Note_on_c, 3, 57, 92
4, 202558, Note_on_c, 3, 57, 0
4, 202560, Note_on_c, 3, 57, 92
4, 202654, Note_on_c, 3, 57, 0
4, 202656, Note_on_c, 3, 57, 92
4, 202750, Note_on_c, 3, 57, 0
4, 202752, Note_on_c, 3, 58, 92
4, 202912, Note_on_c, 3, 58, 0
4, 202944, Note_on_c, 3, 62, 45
4, 203104, Note_on_c, 3, 62, 0
4, 204336, Note_on_c, 3, 50, 60
4, 204382, Note_on_c, 3, 50, 0
4, 204384, Note_on_c, 3, 52, 63
4, 204430, Note_on_c, 3, 52, 0
4, 204432, Note_on_c, 3, 54, 66
4, 204478, Note_on_c, 3, 54, 0
4, 204480, Note_on_c, 3, 55, 69
4, 204526, Note_on_c, 3, 55, 0
4, 204528, Note_on_c, 3, 57, 72
4, 204574, Note_on_c, 3, 57, 0
4, 204576, Note_on_c, 3, 58, 75
4, 204622, Note_on_c, 3, 58, 0
4, 204624, Note_on_c, 3, 60, 78
4, 204670, Note_on_c, 3, 60, 0
4, 204672, Note_on_c, 3, 62, 81
4, 204718, Note_on_c, 3, 62, 0
4, 204720, Note_on_c, 3, 60, 84
4, 204766, Note_on_c, 3, 60, 0
4, 204768, Note_on_c, 3, 58, 87
4, 204814, Note_on_c, 3, 58, 0
4, 204816, Note_on_c, 3, 57, 90
4, 204862, Note_on_c, 3, 57, 0
4, 204864, Note_on_c, 3, 55, 93
4, 204910, Note_on_c, 3, 55, 0
4, 204912, Note_on_c, 3, 53, 96
4, 204958, Note_on_c, 3, 53, 0
4, 204960, Note_on_c, 3, 52, 100
4, 205006, Note_on_c, 3, 52, 0
4, 205008, Note_on_c, 3, 50, 104
4, 205054, Note_on_c, 3, 50, 0
4, 205056, Note_on_c, 3, 48, 108
4, 205312, Note_on_c, 3, 48, 0
4, 205344, Note_on_c, 3, 50, 108
4, 205392, Note_on_c, 3, 50, 0
4, 205392, Note_on_c, 3, 52, 108
4, 205440, Note_on_c, 3, 52, 0
4, 205440, Note_on_c, 3, 53, 108
4, 205488, Note_on_c, 3, 53, 0
4, 205488, Note_on_c, 3, 55, 108
4, 205536, Note_on_c, 3, 55, 0
4, 205536, Note_on_c, 3, 57, 108
4, 205584, Note_on_c, 3, 57, 0
4, 205584, Note_on_c, 3, 59, 108
4, 205630, Note_on_c, 3, 59, 0
4, 205632, Note_on_c, 3, 60, 108
4, 205726, Note_on_c, 3, 60, 0
4, 205728, Note_on_c, 3, 58, 92
4, 205822, Note_on_c, 3, 58, 0
4, 205824, Note_on_c, 3, 58, 92
4, 205918, Note_on_c, 3, 58, 0
4, 205920, Note_on_c, 3, 58, 92
4, 206014, Note_on_c, 3, 58, 0
4, 206016, Note_on_c, 3, 58, 92
4, 206110, Note_on_c, 3, 58, 0
4, 206112, Note_on_c, 3, 58, 92
4, 206206, Note_on_c, 3, 58, 0
4, 206208, Note_on_c, 3, 57, 92
4, 206256, Note_on_c, 3, 57, 0
4, 206400, Note_on_c, 3, 57, 92
4, 206688, Note_on_c, 3, 57, 0
4, 206688, Note_on_c, 3, 55, 45
4, 206782, Note_on_c, 3, 55, 0
4, 206784, Note_on_c, 3, 55, 45
4, 206880, Note_on_c, 3, 55, 0
4, 206880, Note_on_c, 3, 52, 45
4, 206974, Note_on_c, 3, 52, 0
4, 206976, Note_on_c, 3, 52, 45
4, 207072, Note_on_c, 3, 52, 0
4, 207072, Note_on_c, 3, 53, 45
4, 207166, Note_on_c, 3, 53, 0
4, 207168, Note_on_c, 3, 53, 45
4, 207264, Note_on_c, 3, 53, 0
4, 207264, Note_on_c, 3, 58, 45
4, 207358, Note_on_c, 3, 58, 0
4, 207360, Note_on_c, 3, 58, 45
4, 207456, Note_on_c, 3, 58, 0
4, 207456, Note_on_c, 3, 57, 45
4, 207550, Note_on_c, 3, 57, 0
4, 207552, Note_on_c, 3, 57, 45
4, 207648, Note_on_c, 3, 57, 0
4, 207648, Note_on_c, 3, 69, 45
4, 207742, Note_on_c, 3, 69, 0
4, 207744, Note_on_c, 3, 69, 45
4, 207840, Note_on_c, 3, 69, 0
4, 207840, Note_on_c, 3, 67, 45
4, 207934, Note_on_c, 3, 67, 0
4, 207936, Note_on_c, 3, 67, 45
4, 208032, Note_on_c, 3, 67, 0
4, 208032, Note_on_c, 3, 64, 45
4, 208126, Note_on_c, 3, 64, 0
4, 208128, Note_on_c, 3, 64, 45
4, 208288, Note_on_c, 3, 64, 0
4, 209088, Note_on_c, 3, 60, 30
4, 209616, Note_on_c, 3, 60, 0
4, 209664, Note_on_c, 3, 55, 92
4, 210432, Note_on_c, 3, 55, 0
4, 210432, Note_on_c, 3, 57, 45
4, 210480, Note_on_c, 3, 57, 0
4, 210624, Note_on_c, 3, 55, 45
4, 210672, Note_on_c, 3, 55, 0
4, 210816, Note_on_c, 3, 53, 45
4, 210864, Note_on_c, 3, 53, 0
4, 211008, Note_on_c, 3, 69, 92
4, 211296, Note_on_c, 3, 69, 0
4, 211296, Note_on_c, 3, 67, 45
4, 211390, Note_on_c, 3, 67, 0
4, 211392, Note_on_c, 3, 67, 45
4, 211488, Note_on_c, 3, 67, 0
4, 211488, Note_on_c, 3, 64, 45
4, 211582, Note_on_c, 3, 64, 0
4, 211584, Note_on_c, 3, 64, 45
4, 211680, Note_on_c, 3, 64, 0
4, 211680, Note_on_c, 3, 65, 45
4, 211774, Note_on_c, 3, 65, 0
4, 211776, Note_on_c, 3, 65, 45
4, 211872, Note_on_c, 3, 65, 0
4, 211872, Note_on_c, 3, 70, 45
4, 211966, Note_on_c, 3, 70, 0
4, 211968, Note_on_c, 3, 70, 45
4, 212064, Note_on_c, 3, 70, 0
4, 212064, Note_on_c, 3, 69, 45
4, 212158, Note_on_c, 3, 69, 0
4, 212160, Note_on_c, 3, 57, 45
4, 212256, Note_on_c, 3, 57, 0
4, 212256, Note_on_c, 3, 69, 45
4, 212350, Note_on_c, 3, 69, 0
4, 212352, Note_on_c, 3, 69, 45
4, 212448, Note_on_c, 3, 69, 0
4, 212448, Note_on_c, 3, 67, 45
4, 212542, Note_on_c, 3, 67, 0
4, 212544, Note_on_c, 3, 67, 45
4, 212640, Note_on_c, 3, 67, 0
4, 212640, Note_on_c, 3, 65, 45
4, 212734, Note_on_c, 3, 65, 0
4, 212736, Note_on_c, 3, 64, 45
4, 212896, Note_on_c, 3, 64, 0
4, 213696, Note_on_c, 3, 65, 63
4, 214224, Note_on_c, 3, 65, 0
4, 214272, Note_on_c, 3, 61, 63
4, 214800, Note_on_c, 3, 61, 0
4, 214848, Note_on_c, 3, 59, 63
4, 215184, Note_on_c, 3, 59, 0
4, 215232, Note_on_c, 3, 58, 63
4, 215392, Note_on_c, 3, 58, 0
4, 215424, Note_on_c, 3, 57, 108
4, 215472, Note_on_c, 3, 57, 0
4, 215616, Note_on_c, 3, 62, 108
4, 215664, Note_on_c, 3, 62, 0
4, 215808, Note_on_c, 3, 58, 108
4, 215856, Note_on_c, 3, 58, 0
4, 216000, Note_on_c, 3, 57, 108
4, 216094, Note_on_c, 3, 57, 0
4, 216096, Note_on_c, 3, 60, 45
4, 216190, Note_on_c, 3, 60, 0
4, 216192, Note_on_c, 3, 60, 45
4, 216286, Note_on_c, 3, 60, 0
4, 216288, Note_on_c, 3, 60, 45
4, 216382, Note_on_c, 3, 60, 0
4, 216384, Note_on_c, 3, 60, 45
4, 216478, Note_on_c, 3, 60, 0
4, 216480, Note_on_c, 3, 60, 45
4, 216574, Note_on_c, 3, 60, 0
4, 216576, Note_on_c, 3, 60, 45
4, 216670, Note_on_c, 3, 60, 0
4, 216672, Note_on_c, 3, 60, 45
4, 216766, Note_on_c, 3, 60, 0
4, 216768, Note_on_c, 3, 60, 45
4, 216862, Note_on_c, 3, 60, 0
4, 216864, Note_on_c, 3, 60, 45
4, 216958, Note_on_c, 3, 60, 0
4, 216960, Note_on_c, 3, 60, 45
4, 217054, Note_on_c, 3, 60, 0
4, 217056, Note_on_c, 3, 60, 45
4, 217150, Note_on_c, 3, 60, 0
4, 217152, Note_on_c, 3, 60, 45
4, 217246, Note_on_c, 3, 60, 0
4, 217248, Note_on_c, 3, 60, 45
4, 217342, Note_on_c, 3, 60, 0
4, 217344, Note_on_c, 3, 60, 45
4, 217438, Note_on_c, 3, 60, 0
4, 217440, Note_on_c, 3, 60, 45
4, 217534, Note_on_c, 3, 60, 0
4, 217536, Note_on_c, 3, 60, 45
4, 217630, Note_on_c, 3, 60, 0
4, 217632, Note_on_c, 3, 60, 45
4, 217726, Note_on_c, 3, 60, 0
4, 217728, Note_on_c, 3, 60, 45
4, 217822, Note_on_c, 3, 60, 0
4, 217824, Note_on_c, 3, 60, 45
4, 217918, Note_on_c, 3, 60, 0
4, 217920, Note_on_c, 3, 60, 45
4, 218014, Note_on_c, 3, 60, 0
4, 218016, Note_on_c, 3, 60, 45
4, 218110, Note_on_c, 3, 60, 0
4, 218112, Note_on_c, 3, 60, 45
4, 218206, Note_on_c, 3, 60, 0
4, 218208, Note_on_c, 3, 60, 45
4, 218302, Note_on_c, 3, 60, 0
4, 218304, Note_on_c, 3, 60, 45
4, 218398, Note_on_c, 3, 60, 0
4, 218400, Note_on_c, 3, 60, 45
4, 218494, Note_on_c, 3, 60, 0
4, 218496, Note_on_c, 3, 60, 45
4, 218590, Note_on_c, 3, 60, 0
4, 218592, Note_on_c, 3, 60, 45
4, 218686, Note_on_c, 3, 60, 0
4, 218688, Note_on_c, 3, 60, 45
4, 218782, Note_on_c, 3, 60, 0
4, 218784, Note_on_c, 3, 60, 45
4, 218878, Note_on_c, 3, 60, 0
4, 218880, Note_on_c, 3, 60, 45
4, 218974, Note_on_c, 3, 60, 0
4, 218976, Note_on_c, 3, 60, 45
4, 219070, Note_on_c, 3, 60, 0
4, 219072, Note_on_c, 3, 60, 45
4, 219166, Note_on_c, 3, 60, 0
4, 219168, Note_on_c, 3, 60, 45
4, 219262, Note_on_c, 3, 60, 0
4, 219264, Note_on_c, 3, 60, 45
4, 219358, Note_on_c, 3, 60, 0
4, 219360, Note_on_c, 3, 60, 45
4, 219454, Note_on_c, 3, 60, 0
4, 219456, Note_on_c, 3, 60, 45
4, 219550, Note_on_c, 3, 60, 0
4, 219552, Note_on_c, 3, 60, 45
4, 219646, Note_on_c, 3, 60, 0
4, 219648, Note_on_c, 3, 60, 45
4, 219742, Note_on_c, 3, 60, 0
4, 219744, Note_on_c, 3, 60, 45
4, 219838, Note_on_c, 3, 60, 0
4, 219840, Note_on_c, 3, 60, 45
4, 219934, Note_on_c, 3, 60, 0
4, 219936, Note_on_c, 3, 60, 45
4, 220030, Note_on_c, 3, 60, 0
4, 220032, Note_on_c, 3, 60, 45
4, 220126, Note_on_c, 3, 60, 0
4, 220128, Note_on_c, 3, 60, 45
4, 220222, Note_on_c, 3, 60, 0
4, 220224, Note_on_c, 3, 60, 45
4, 220318, Note_on_c, 3, 60, 0
4, 220320, Note_on_c, 3, 60, 45
4, 220414, Note_on_c, 3, 60, 0
4, 220416, Note_on_c, 3, 60, 45
4, 220510, Note_on_c, 3, 60, 0
4, 220512, Note_on_c, 3, 60, 45
4, 220606, Note_on_c, 3, 60, 0
4, 220608, Note_on_c, 3, 60, 45
4, 220656, Note_on_c, 3, 60, 0
4, 220800, Note_on_c, 3, 60, 45
4, 220848, Note_on_c, 3, 60, 0
4, 221808, Note_on_c, 3, 65, 45
4, 221854, Note_on_c, 3, 65, 0
4, 221856, Note_on_c, 3, 64, 47
4, 221902, Note_on_c, 3, 64, 0
4, 221904, Note_on_c, 3, 62, 49
4, 221950, Note_on_c, 3, 62, 0
4, 221952, Note_on_c, 3, 60, 51
4, 221998, Note_on_c, 3, 60, 0
4, 222000, Note_on_c, 3, 58, 53
4, 222046, Note_on_c, 3, 58, 0
4, 222048, Note_on_c, 3, 57, 55
4, 222094, Note_on_c, 3, 57, 0
4, 222096, Note_on_c, 3, 55, 57
4, 222142, Note_on_c, 3, 55, 0
4, 222144, Note_on_c, 3, 53, 60
4, 222190, Note_on_c, 3, 53, 0
4, 222192, Note_on_c, 3, 65, 63
4, 222238, Note_on_c, 3, 65, 0
4, 222240, Note_on_c, 3, 64, 66
4, 222286, Note_on_c, 3, 64, 0
4, 222288, Note_on_c, 3, 62, 69
4, 222334, Note_on_c, 3, 62, 0
4, 222336, Note_on_c, 3, 60, 72
4, 222382, Note_on_c, 3, 60, 0
4, 222384, Note_on_c, 3, 58, 75
4, 222430, Note_on_c, 3, 58, 0
4, 222432, Note_on_c, 3, 57, 78
4, 222478, Note_on_c, 3, 57, 0
4, 222480, Note_on_c, 3, 55, 81
4, 222526, Note_on_c, 3, 55, 0
4, 222528, Note_on_c, 3, 53, 84
4, 222576, Note_on_c, 3, 53, 0
4, 222576, Note_on_c, 3, 52, 87
4, 222624, Note_on_c, 3, 52, 0
4, 222624, Note_on_c, 3, 53, 90
4, 222672, Note_on_c, 3, 53, 0
4, 222672, Note_on_c, 3, 52, 93
4, 222720, Note_on_c, 3, 52, 0
4, 222720, Note_on_c, 3, 53, 96
4, 222768, Note_on_c, 3, 53, 0
4, 222768, Note_on_c, 3, 52, 99
4, 222816, Note_on_c, 3, 52, 0
4, 222816, Note_on_c, 3, 53, 102
4, 222864, Note_on_c, 3, 53, 0
4, 222864, Note_on_c, 3, 52, 105
4, 222910, Note_on_c, 3, 52, 0
4, 222912, Note_on_c, 3, 53, 108
4, 222960, Note_on_c, 3, 53, 0
4, 223104, Note_on_c, 3, 55, 108
4, 223152, Note_on_c, 3, 55, 0
4, 223296, Note_on_c, 3, 57, 108
4, 223344, Note_on_c, 3, 57, 0
4, 225792, Note_on_c, 3, 50, 108
4, 225840, Note_on_c, 3, 50, 0
4, 225984, Note_on_c, 3, 52, 108
4, 226032, Note_on_c, 3, 52, 0
4, 226176, Note_on_c, 3, 54, 108
4, 226224, Note_on_c, 3, 54, 0
4, 230400, Note_on_c, 3, 55, 45
4, 230688, Note_on_c, 3, 55, 0
4, 230688, Note_on_c, 3, 57, 30
4, 230736, Note_on_c, 3, 57, 0
4, 230736, Note_on_c, 3, 55, 30
4, 230782, Note_on_c, 3, 55, 0
4, 230784, Note_on_c, 3, 54, 30
4, 230816, Note_on_c, 3, 54, 0
4, 230880, Note_on_c, 3, 55, 30
4, 230912, Note_on_c, 3, 55, 0
4, 231168, Note_on_c, 3, 50, 30
4, 231216, Note_on_c, 3, 50, 0
4, 231360, Note_on_c, 3, 52, 30
4, 231408, Note_on_c, 3, 52, 0
4, 231552, Note_on_c, 3, 53, 30
4, 231600, Note_on_c, 3, 53, 0
4, 231744, Note_on_c, 3, 55, 30
4, 231792, Note_on_c, 3, 55, 0
4, 231936, Note_on_c, 3, 57, 30
4, 231984, Note_on_c, 3, 57, 0
4, 232128, Note_on_c, 3, 58, 30
4, 232320, Note_on_c, 3, 58, 0
4, 232320, Note_on_c, 3, 55, 30
4, 232512, Note_on_c, 3, 55, 0
4, 232512, Note_on_c, 3, 52, 30
4, 232672, Note_on_c, 3, 52, 0
4, 232704, Note_on_c, 3, 48, 30
4, 232992, Note_on_c, 3, 48, 0
4, 232992, Note_on_c, 3, 62, 30
4, 233040, Note_on_c, 3, 62, 0
4, 233040, Note_on_c, 3, 60, 30
4, 233086, Note_on_c, 3, 60, 0
4, 233088, Note_on_c, 3, 59, 30
4, 233120, Note_on_c, 3, 59, 0
4, 233184, Note_on_c, 3, 60, 30
4, 233216, Note_on_c, 3, 60, 0
4, 233472, Note_on_c, 3, 57, 30
4, 233664, Note_on_c, 3, 57, 0
4, 233664, Note_on_c, 3, 53, 30
4, 233824, Note_on_c, 3, 53, 0
4, 233856, Note_on_c, 3, 48, 30
4, 234144, Note_on_c, 3, 48, 0
4, 234144, Note_on_c, 3, 62, 30
4, 234192, Note_on_c, 3, 62, 0
4, 234192, Note_on_c, 3, 60, 30
4, 234238, Note_on_c, 3, 60, 0
4, 234240, Note_on_c, 3, 59, 30
4, 234272, Note_on_c, 3, 59, 0
4, 234336, Note_on_c, 3, 60, 30
4, 234368, Note_on_c, 3, 60, 0
4, 234432, Note_on_c, 3, 67, 30
4, 234624, Note_on_c, 3, 67, 0
4, 234624, Note_on_c, 3, 64, 32
4, 234816, Note_on_c, 3, 64, 0
4, 234816, Note_on_c, 3, 60, 34
4, 234976, Note_on_c, 3, 60, 0
4, 235008, Note_on_c, 3, 76, 36
4, 235200, Note_on_c, 3, 76, 0
4, 235200, Note_on_c, 3, 70, 38
4, 235392, Note_on_c, 3, 70, 0
4, 235392, Note_on_c, 3, 67, 40
4, 235552, Note_on_c, 3, 67, 0
4, 235584, Note_on_c, 3, 65, 42
4, 236112, Note_on_c, 3, 65, 0
4, 236160, Note_on_c, 3, 58, 70
4, 236688, Note_on_c, 3, 58, 0
4, 236736, Note_on_c, 3, 63, 58
4, 237264, Note_on_c, 3, 63, 0
4, 237312, Note_on_c, 3, 62, 92
4, 237840, Note_on_c, 3, 62, 0
4, 237888, Note_on_c, 3, 66, 74
4, 238416, Note_on_c, 3, 66, 0
4, 238464, Note_on_c, 3, 65, 116
4, 238992, Note_on_c, 3, 65, 0
4, 239040, Note_on_c, 3, 65, 30
4, 239328, Note_on_c, 3, 65, 0
4, 239328, Note_on_c, 3, 67, 30
4, 239376, Note_on_c, 3, 67, 0
4, 239376, Note_on_c, 3, 65, 30
4, 239422, Note_on_c, 3, 65, 0
4, 239424, Note_on_c, 3, 64, 30
4, 239456, Note_on_c, 3, 64, 0
4, 239520, Note_on_c, 3, 65, 30
4, 239552, Note_on_c, 3, 65, 0
4, 239616, Note_on_c, 3, 67, 30
4, 240000, Note_on_c, 3, 67, 0
4, 240000, Note_on_c, 3, 52, 30
4, 240160, Note_on_c, 3, 52, 0
4, 240192, Note_on_c, 3, 53, 30
4, 240352, Note_on_c, 3, 53, 0
4, 240384, Note_on_c, 3, 48, 30
4, 240544, Note_on_c, 3, 48, 0
4, 240576, Note_on_c, 3, 48, 30
4, 240736, Note_on_c, 3, 48, 0
4, 240768, Note_on_c, 3, 49, 30
4, 241344, Note_on_c, 3, 49, 0
4, 241344, Note_on_c, 3, 48, 30
4, 241920, Note_on_c, 3, 48, 0
4, 241920, Note_on_c, 3, 49, 30
4, 242496, Note_on_c, 3, 49, 0
4, 242496, Note_on_c, 3, 48, 30
4, 242656, Note_on_c, 3, 48, 0
4, 242688, Note_on_c, 3, 65, 30
4, 242736, Note_on_c, 3, 65, 0
4, 242880, Note_on_c, 3, 65, 30
4, 242928, Note_on_c, 3, 65, 0
4, 243072, Note_on_c, 3, 65, 30
4, 243120, Note_on_c, 3, 65, 0
4, 243120, Note_on_c, 3, 64, 30
4, 243168, Note_on_c, 3, 64, 0
4, 243168, Note_on_c, 3, 62, 30
4, 243216, Note_on_c, 3, 62, 0
4, 243216, Note_on_c, 3, 64, 30
4, 243264, Note_on_c, 3, 64, 0
4, 243264, Note_on_c, 3, 65, 30
4, 243312, Note_on_c, 3, 65, 0
4, 243312, Note_on_c, 3, 64, 30
4, 243360, Note_on_c, 3, 64, 0
4, 243360, Note_on_c, 3, 62, 30
4, 243408, Note_on_c, 3, 62, 0
4, 243408, Note_on_c, 3, 64, 30
4, 243456, Note_on_c, 3, 64, 0
4, 243456, Note_on_c, 3, 65, 30
4, 243504, Note_on_c, 3, 65, 0
4, 243504, Note_on_c, 3, 64, 30
4, 243552, Note_on_c, 3, 64, 0
4, 243552, Note_on_c, 3, 62, 30
4, 243600, Note_on_c, 3, 62, 0
4, 243600, Note_on_c, 3, 64, 30
4, 243646, Note_on_c, 3, 64, 0
4, 243648, Note_on_c, 3, 65, 30
4, 243840, Note_on_c, 3, 65, 0
4, 243840, Note_on_c, 3, 72, 30
4, 244000, Note_on_c, 3, 72, 0
4, 244032, Note_on_c, 3, 72, 30
4, 244080, Note_on_c, 3, 72, 0
4, 244224, Note_on_c, 3, 73, 30
4, 244752, Note_on_c, 3, 73, 0
4, 244800, Note_on_c, 3, 72, 92
4, 244960, Note_on_c, 3, 72, 0
4, 245184, Note_on_c, 3, 64, 127
4, 245216, Note_on_c, 3, 64, 0
4, 245280, Note_on_c, 3, 65, 92
4, 245312, Note_on_c, 3, 65, 0
4, 245376, Note_on_c, 3, 60, 92
4, 245536, Note_on_c, 3, 60, 0
4, 245760, Note_on_c, 3, 56, 127
4, 245792, Note_on_c, 3, 56, 0
4, 245856, Note_on_c, 3, 57, 92
4, 245888, Note_on_c, 3, 57, 0
4, 245952, Note_on_c, 3, 53, 92
4, 246112, Note_on_c, 3, 53, 0
4, 246336, Note_on_c, 3, 48, 127
4, 246368, Note_on_c, 3, 48, 0
4, 246432, Note_on_c, 3, 52, 92
4, 246464, Note_on_c, 3, 52, 0
4, 246528, Note_on_c, 3, 53, 92
4, 246576, Note_on_c, 3, 53, 0
4, 246720, Note_on_c, 3, 53, 92
4, 246768, Note_on_c, 3, 53, 0
4, 246768, End_track
5, 0, Start_track
5, 0, Title_t, "Violoncello."
5, 0, Program_c, 4, 48
5, 0, Control_c, 4, 7, 127
5, 0, Control_c, 4, 10, 64
5, 2304, Note_on_c, 4, 50, 45
5, 2880, Note_on_c, 4, 50, 0
5, 2880, Note_on_c, 4, 52, 92
5, 3456, Note_on_c, 4, 52, 0
5, 3456, Note_on_c, 4, 53, 45
5, 3648, Note_on_c, 4, 53, 0
5, 3648, Note_on_c, 4, 50, 45
5, 3840, Note_on_c, 4, 50, 0
5, 3840, Note_on_c, 4, 46, 45
5, 4000, Note_on_c, 4, 46, 0
5, 4032, Note_on_c, 4, 48, 45
5, 4560, Note_on_c, 4, 48, 0
5, 7488, Note_on_c, 4, 61, 45
5, 7872, Note_on_c, 4, 61, 0
5, 7872, Note_on_c, 4, 61, 92
5, 8032, Note_on_c, 4, 61, 0
5, 8640, Note_on_c, 4, 66, 45
5, 9024, Note_on_c, 4, 66, 0
5, 9024, Note_on_c, 4, 66, 92
5, 9184, Note_on_c, 4, 66, 0
5, 9792, Note_on_c, 4, 58, 45
5, 10048, Note_on_c, 4, 58, 0
5, 10080, Note_on_c, 4, 58, 56
5, 10174, Note_on_c, 4, 58, 0
5, 10176, Note_on_c, 4, 58, 60
5, 10270, Note_on_c, 4, 58, 0
5, 10272, Note_on_c, 4, 58, 64
5, 10366, Note_on_c, 4, 58, 0
5, 10368, Note_on_c, 4, 60, 68
5, 10752, Note_on_c, 4, 60, 0
5, 10752, Note_on_c, 4, 48, 84
5, 10912, Note_on_c, 4, 48, 0
5, 10944, Note_on_c, 4, 53, 45
5, 11104, Note_on_c, 4, 53, 0
5, 12096, Note_on_c, 4, 59, 63
5, 12624, Note_on_c, 4, 59, 0
5, 13248, Note_on_c, 4, 49, 63
5, 13776, Note_on_c, 4, 49, 0
5, 14400, Note_on_c, 4, 53, 63
5, 14736, Note_on_c, 4, 53, 0
5, 14784, Note_on_c, 4, 46, 45
5, 14944, Note_on_c, 4, 46, 0
5, 14976, Note_on_c, 4, 58, 63
5, 15312, Note_on_c, 4, 58, 0
5, 15360, Note_on_c, 4, 46, 45
5, 15520, Note_on_c, 4, 46, 0
5, 15552, Note_on_c, 4, 48, 92
5, 15600, Note_on_c, 4, 48, 0
5, 15744, Note_on_c, 4, 48, 92
5, 15792, Note_on_c, 4, 48, 0
5, 15936, Note_on_c, 4, 48, 92
5, 15984, Note_on_c, 4, 48, 0
5, 16128, Note_on_c, 4, 41, 92
5, 16288, Note_on_c, 4, 41, 0
5, 16704, Note_on_c, 4, 48, 45
5, 16992, Note_on_c, 4, 48, 0
5, 16992, Note_on_c, 4, 50, 45
5, 17040, Note_on_c, 4, 50, 0
5, 17040, Note_on_c, 4, 48, 45
5, 17086, Note_on_c, 4, 48, 0
5, 17088, Note_on_c, 4, 47, 45
5, 17120, Note_on_c, 4, 47, 0
5, 17184, Note_on_c, 4, 48, 45
5, 17216, Note_on_c, 4, 48, 0
5, 17280, Note_on_c, 4, 36, 45
5, 17440, Note_on_c, 4, 36, 0
5, 17856, Note_on_c, 4, 48, 45
5, 18144, Note_on_c, 4, 48, 0
5, 18144, Note_on_c, 4, 50, 45
5, 18192, Note_on_c, 4, 50, 0
5, 18192, Note_on_c, 4, 48, 45
5, 18238, Note_on_c, 4, 48, 0
5, 18240, Note_on_c, 4, 47, 45
5, 18272, Note_on_c, 4, 47, 0
5, 18336, Note_on_c, 4, 48, 45
5, 18368, Note_on_c, 4, 48, 0
5, 18432, Note_on_c, 4, 36, 45
5, 18592, Note_on_c, 4, 36, 0
5, 19008, Note_on_c, 4, 48, 45
5, 19296, Note_on_c, 4, 48, 0
5, 19296, Note_on_c, 4, 50, 45
5, 19344, Note_on_c, 4, 50, 0
5, 19344, Note_on_c, 4, 48, 45
5, 19390, Note_on_c, 4, 48, 0
5, 19392, Note_on_c, 4, 47, 45
5, 19424, Note_on_c, 4, 47, 0
5, 19488, Note_on_c, 4, 48, 45
5, 19582, Note_on_c, 4, 48, 0
5, 19584, Note_on_c, 4, 36, 45
5, 19744, Note_on_c, 4, 36, 0
5, 20160, Note_on_c, 4, 48, 45
5, 20448, Note_on_c, 4, 48, 0
5, 20448, Note_on_c, 4, 50, 45
5, 20496, Note_on_c, 4, 50, 0
5, 20496, Note_on_c, 4, 48, 45
5, 20542, Note_on_c, 4, 48, 0
5, 20544, Note_on_c, 4, 47, 45
5, 20576, Note_on_c, 4, 47, 0
5, 20640, Note_on_c, 4, 48, 45
5, 20672, Note_on_c, 4, 48, 0
5, 20736, Note_on_c, 4, 49, 45
5, 20784, Note_on_c, 4, 49, 0
5, 20928, Note_on_c, 4, 45, 45
5, 20976, Note_on_c, 4, 45, 0
5, 21120, Note_on_c, 4, 49, 45
5, 21168, Note_on_c, 4, 49, 0
5, 21312, Note_on_c, 4, 50, 45
5, 21472, Note_on_c, 4, 50, 0
5, 21888, Note_on_c, 4, 47, 45
5, 21936, Note_on_c, 4, 47, 0
5, 22080, Note_on_c, 4, 43, 45
5, 22128, Note_on_c, 4, 43, 0
5, 22272, Note_on_c, 4, 47, 45
5, 22320, Note_on_c, 4, 47, 0
5, 22464, Note_on_c, 4, 48, 45
5, 22624, Note_on_c, 4, 48, 0
5, 23040, Note_on_c, 4, 44, 30
5, 24144, Note_on_c, 4, 44, 0
5, 24192, Note_on_c, 4, 46, 30
5, 25296, Note_on_c, 4, 46, 0
5, 25344, Note_on_c, 4, 48, 30
5, 26080, Note_on_c, 4, 48, 0
5, 26112, Note_on_c, 4, 48, 30
5, 26160, Note_on_c, 4, 48, 0
5, 26304, Note_on_c, 4, 48, 42
5, 26352, Note_on_c, 4, 48, 0
5, 26496, Note_on_c, 4, 50, 75
5, 27024, Note_on_c, 4, 50, 0
5, 27072, Note_on_c, 4, 51, 92
5, 27120, Note_on_c, 4, 51, 0
5, 27264, Note_on_c, 4, 53, 92
5, 27312, Note_on_c, 4, 53, 0
5, 27456, Note_on_c, 4, 54, 92
5, 27504, Note_on_c, 4, 54, 0
5, 27648, Note_on_c, 4, 55, 92
5, 27808, Note_on_c, 4, 55, 0
5, 28224, Note_on_c, 4, 55, 45
5, 28256, Note_on_c, 4, 55, 0
5, 28272, Note_on_c, 4, 43, 45
5, 28304, Note_on_c, 4, 43, 0
5, 28320, Note_on_c, 4, 45, 45
5, 28352, Note_on_c, 4, 45, 0
5, 28368, Note_on_c, 4, 47, 45
5, 28400, Note_on_c, 4, 47, 0
5, 28416, Note_on_c, 4, 48, 45
5, 28448, Note_on_c, 4, 48, 0
5, 28464, Note_on_c, 4, 50, 45
5, 28496, Note_on_c, 4, 50, 0
5, 28512, Note_on_c, 4, 52, 45
5, 28544, Note_on_c, 4, 52, 0
5, 28560, Note_on_c, 4, 54, 45
5, 28592, Note_on_c, 4, 54, 0
5, 28608, Note_on_c, 4, 55, 45
5, 28640, Note_on_c, 4, 55, 0
5, 28656, Note_on_c, 4, 54, 45
5, 28688, Note_on_c, 4, 54, 0
5, 28704, Note_on_c, 4, 55, 45
5, 28736, Note_on_c, 4, 55, 0
5, 28752, Note_on_c, 4, 54, 45
5, 28784, Note_on_c, 4, 54, 0
5, 28800, Note_on_c, 4, 55, 45
5, 28960, Note_on_c, 4, 55, 0
5, 29376, Note_on_c, 4, 55, 45
5, 29422, Note_on_c, 4, 55, 0
5, 29424, Note_on_c, 4, 43, 45
5, 29470, Note_on_c, 4, 43, 0
5, 29472, Note_on_c, 4, 45, 45
5, 29518, Note_on_c, 4, 45, 0
5, 29520, Note_on_c, 4, 47, 45
5, 29566, Note_on_c, 4, 47, 0
5, 29568, Note_on_c, 4, 48, 45
5, 29614, Note_on_c, 4, 48, 0
5, 29616, Note_on_c, 4, 50, 45
5, 29662, Note_on_c, 4, 50, 0
5, 29664, Note_on_c, 4, 52, 45
5, 29710, Note_on_c, 4, 52, 0
5, 29712, Note_on_c, 4, 54, 45
5, 29758, Note_on_c, 4, 54, 0
5, 29760, Note_on_c, 4, 55, 45
5, 29806, Note_on_c, 4, 55, 0
5, 29808, Note_on_c, 4, 54, 45
5, 29854, Note_on_c, 4, 54, 0
5, 29856, Note_on_c, 4, 55, 45
5, 29902, Note_on_c, 4, 55, 0
5, 29904, Note_on_c, 4, 54, 45
5, 29950, Note_on_c, 4, 54, 0
5, 29952, Note_on_c, 4, 55, 45
5, 30112, Note_on_c, 4, 55, 0
5, 30240, Note_on_c, 4, 55, 45
5, 30272, Note_on_c, 4, 55, 0
5, 30336, Note_on_c, 4, 55, 45
5, 30368, Note_on_c, 4, 55, 0
5, 30432, Note_on_c, 4, 48, 45
5, 30464, Note_on_c, 4, 48, 0
5, 30528, Note_on_c, 4, 55, 108
5, 30574, Note_on_c, 4, 55, 0
5, 30576, Note_on_c, 4, 43, 108
5, 30622, Note_on_c, 4, 43, 0
5, 30624, Note_on_c, 4, 45, 108
5, 30670, Note_on_c, 4, 45, 0
5, 30672, Note_on_c, 4, 47, 108
5, 30718, Note_on_c, 4, 47, 0
5, 30720, Note_on_c, 4, 48, 108
5, 30766, Note_on_c, 4, 48, 0
5, 30768, Note_on_c, 4, 50, 108
5, 30814, Note_on_c, 4, 50, 0
5, 30816, Note_on_c, 4, 52, 108
5, 30862, Note_on_c, 4, 52, 0
5, 30864, Note_on_c, 4, 54, 108
5, 30910, Note_on_c, 4, 54, 0
5, 30912, Note_on_c, 4, 55, 108
5, 30958, Note_on_c, 4, 55, 0
5, 30960, Note_on_c, 4, 54, 108
5, 31006, Note_on_c, 4, 54, 0
5, 31008, Note_on_c, 4, 55, 108
5, 31054, Note_on_c, 4, 55, 0
5, 31056, Note_on_c, 4, 54, 108
5, 31102, Note_on_c, 4, 54, 0
5, 31104, Note_on_c, 4, 55, 108
5, 31264, Note_on_c, 4, 55, 0
5, 36576, Note_on_c, 4, 54, 45
5, 36672, Note_on_c, 4, 54, 0
5, 36672, Note_on_c, 4, 55, 45
5, 36768, Note_on_c, 4, 55, 0
5, 36768, Note_on_c, 4, 56, 45
5, 36864, Note_on_c, 4, 56, 0
5, 36864, Note_on_c, 4, 57, 45
5, 36896, Note_on_c, 4, 57, 0
5, 36960, Note_on_c, 4, 57, 45
5, 37056, Note_on_c, 4, 57, 0
5, 37056, Note_on_c, 4, 53, 45
5, 37150, Note_on_c, 4, 53, 0
5, 37152, Note_on_c, 4, 53, 45
5, 37248, Note_on_c, 4, 53, 0
5, 37248, Note_on_c, 4, 50, 45
5, 37342, Note_on_c, 4, 50, 0
5, 37344, Note_on_c, 4, 50, 45
5, 37440, Note_on_c, 4, 50, 0
5, 37440, Note_on_c, 4, 47, 45
5, 37534, Note_on_c, 4, 47, 0
5, 37536, Note_on_c, 4, 47, 45
5, 37632, Note_on_c, 4, 47, 0
5, 37632, Note_on_c, 4, 43, 45
5, 37726, Note_on_c, 4, 43, 0
5, 37728, Note_on_c, 4, 43, 45
5, 37824, Note_on_c, 4, 43, 0
5, 37824, Note_on_c, 4, 47, 45
5, 37918, Note_on_c, 4, 47, 0
5, 37920, Note_on_c, 4, 47, 45
5, 38016, Note_on_c, 4, 47, 0
5, 38016, Note_on_c, 4, 48, 45
5, 38110, Note_on_c, 4, 48, 0
5, 38112, Note_on_c, 4, 48, 45
5, 38208, Note_on_c, 4, 48, 0
5, 38208, Note_on_c, 4, 50, 45
5, 38302, Note_on_c, 4, 50, 0
5, 38304, Note_on_c, 4, 50, 45
5, 38400, Note_on_c, 4, 50, 0
5, 38400, Note_on_c, 4, 52, 45
5, 38494, Note_on_c, 4, 52, 0
5, 38496, Note_on_c, 4, 52, 45
5, 38590, Note_on_c, 4, 52, 0
5, 38592, Note_on_c, 4, 53, 45
5, 38848, Note_on_c, 4, 53, 0
5, 40896, Note_on_c, 4, 67, 45
5, 41184, Note_on_c, 4, 67, 0
5, 41184, Note_on_c, 4, 69, 45
5, 41232, Note_on_c, 4, 69, 0
5, 41232, Note_on_c, 4, 67, 45
5, 41278, Note_on_c, 4, 67, 0
5, 41280, Note_on_c, 4, 66, 45
5, 41312, Note_on_c, 4, 66, 0
5, 41376, Note_on_c, 4, 67, 45
5, 41470, Note_on_c, 4, 67, 0
5, 41472, Note_on_c, 4, 67, 45
5, 42000, Note_on_c, 4, 67, 0
5, 42048, Note_on_c, 4, 67, 45
5, 42336, Note_on_c, 4, 67, 0
5, 42336, Note_on_c, 4, 69, 45
5, 42384, Note_on_c, 4, 69, 0
5, 42384, Note_on_c, 4, 67, 45
5, 42430, Note_on_c, 4, 67, 0
5, 42432, Note_on_c, 4, 66, 45
5, 42464, Note_on_c, 4, 66, 0
5, 42528, Note_on_c, 4, 67, 45
5, 42622, Note_on_c, 4, 67, 0
5, 42624, Note_on_c, 4, 67, 45
5, 43152, Note_on_c, 4, 67, 0
5, 43200, Note_on_c, 4, 67, 45
5, 43488, Note_on_c, 4, 67, 0
5, 43488, Note_on_c, 4, 69, 68
5, 43536, Note_on_c, 4, 69, 0
5, 43536, Note_on_c, 4, 67, 72
5, 43582, Note_on_c, 4, 67, 0
5, 43584, Note_on_c, 4, 66, 76
5, 43616, Note_on_c, 4, 66, 0
5, 43680, Note_on_c, 4, 67, 84
5, 43774, Note_on_c, 4, 67, 0
5, 43776, Note_on_c, 4, 70, 92
5, 44304, Note_on_c, 4, 70, 0
5, 44352, Note_on_c, 4, 69, 92
5, 44400, Note_on_c, 4, 69, 0
5, 44544, Note_on_c, 4, 53, 45
5, 44592, Note_on_c, 4, 53, 0
5, 45936, Note_on_c, 4, 45, 45
5, 45982, Note_on_c, 4, 45, 0
5, 45984, Note_on_c, 4, 47, 48
5, 46030, Note_on_c, 4, 47, 0
5, 46032, Note_on_c, 4, 49, 51
5, 46078, Note_on_c, 4, 49, 0
5, 46080, Note_on_c, 4, 50, 54
5, 46126, Note_on_c, 4, 50, 0
5, 46128, Note_on_c, 4, 52, 57
5, 46174, Note_on_c, 4, 52, 0
5, 46176, Note_on_c, 4, 53, 60
5, 46222, Note_on_c, 4, 53, 0
5, 46224, Note_on_c, 4, 55, 63
5, 46270, Note_on_c, 4, 55, 0
5, 46272, Note_on_c, 4, 57, 66
5, 46318, Note_on_c, 4, 57, 0
5, 46320, Note_on_c, 4, 55, 69
5, 46366, Note_on_c, 4, 55, 0
5, 46368, Note_on_c, 4, 53, 72
5, 46414, Note_on_c, 4, 53, 0
5, 46416, Note_on_c, 4, 52, 75
5, 46462, Note_on_c, 4, 52, 0
5, 46464, Note_on_c, 4, 50, 78
5, 46510, Note_on_c, 4, 50, 0
5, 46512, Note_on_c, 4, 48, 81
5, 46558, Note_on_c, 4, 48, 0
5, 46560, Note_on_c, 4, 47, 84
5, 46606, Note_on_c, 4, 47, 0
5, 46608, Note_on_c, 4, 45, 88
5, 46654, Note_on_c, 4, 45, 0
5, 46656, Note_on_c, 4, 43, 92
5, 46912, Note_on_c, 4, 43, 0
5, 46944, Note_on_c, 4, 45, 92
5, 46992, Note_on_c, 4, 45, 0
5, 46992, Note_on_c, 4, 47, 92
5, 47040, Note_on_c, 4, 47, 0
5, 47040, Note_on_c, 4, 48, 92
5, 47088, Note_on_c, 4, 48, 0
5, 47088, Note_on_c, 4, 50, 92
5, 47136, Note_on_c, 4, 50, 0
5, 47136, Note_on_c, 4, 52, 92
5, 47184, Note_on_c, 4, 52, 0
5, 47184, Note_on_c, 4, 54, 92
5, 47230, Note_on_c, 4, 54, 0
5, 47232, Note_on_c, 4, 55, 92
5, 47326, Note_on_c, 4, 55, 0
5, 47328, Note_on_c, 4, 55, 92
5, 47422, Note_on_c, 4, 55, 0
5, 47424, Note_on_c, 4, 55, 92
5, 47518, Note_on_c, 4, 55, 0
5, 47520, Note_on_c, 4, 55, 92
5, 47614, Note_on_c, 4, 55, 0
5, 47616, Note_on_c, 4, 55, 92
5, 47710, Note_on_c, 4, 55, 0
5, 47712, Note_on_c, 4, 55, 92
5, 47806, Note_on_c, 4, 55, 0
5, 47808, Note_on_c, 4, 48, 92
5, 47968, Note_on_c, 4, 48, 0
5, 50688, Note_on_c, 4, 60, 45
5, 51216, Note_on_c, 4, 60, 0
5, 51264, Note_on_c, 4, 54, 92
5, 51840, Note_on_c, 4, 54, 0
5, 51840, Note_on_c, 4, 53, 45
5, 52032, Note_on_c, 4, 53, 0
5, 52032, Note_on_c, 4, 55, 45
5, 52080, Note_on_c, 4, 55, 0
5, 52224, Note_on_c, 4, 43, 45
5, 52272, Note_on_c, 4, 43, 0
5, 52416, Note_on_c, 4, 48, 45
5, 52464, Note_on_c, 4, 48, 0
5, 55296, Note_on_c, 4, 48, 63
5, 55824, Note_on_c, 4, 48, 0
5, 55872, Note_on_c, 4, 44, 63
5, 56400, Note_on_c, 4, 44, 0
5, 56448, Note_on_c, 4, 42, 63
5, 56784, Note_on_c, 4, 42, 0
5, 56832, Note_on_c, 4, 41, 63
5, 56992, Note_on_c, 4, 41, 0
5, 57024, Note_on_c, 4, 40, 108
5, 57072, Note_on_c, 4, 40, 0
5, 57216, Note_on_c, 4, 38, 108
5, 57264, Note_on_c, 4, 38, 0
5, 57408, Note_on_c, 4, 43, 108
5, 57456, Note_on_c, 4, 43, 0
5, 57600, Note_on_c, 4, 48, 45
5, 57888, Note_on_c, 4, 48, 0
5, 57888, Note_on_c, 4, 50, 45
5, 57936, Note_on_c, 4, 50, 0
5, 57936, Note_on_c, 4, 48, 45
5, 57982, Note_on_c, 4, 48, 0
5, 57984, Note_on_c, 4, 47, 45
5, 58016, Note_on_c, 4, 47, 0
5, 58080, Note_on_c, 4, 48, 45
5, 58112, Note_on_c, 4, 48, 0
5, 58176, Note_on_c, 4, 36, 45
5, 58336, Note_on_c, 4, 36, 0
5, 58752, Note_on_c, 4, 48, 45
5, 59040, Note_on_c, 4, 48, 0
5, 59040, Note_on_c, 4, 50, 45
5, 59088, Note_on_c, 4, 50, 0
5, 59088, Note_on_c, 4, 48, 45
5, 59134, Note_on_c, 4, 48, 0
5, 59136, Note_on_c, 4, 47, 45
5, 59168, Note_on_c, 4, 47, 0
5, 59232, Note_on_c, 4, 48, 45
5, 59264, Note_on_c, 4, 48, 0
5, 59328, Note_on_c, 4, 36, 45
5, 59488, Note_on_c, 4, 36, 0
5, 59904, Note_on_c, 4, 50, 45
5, 59952, Note_on_c, 4, 50, 0
5, 59952, Note_on_c, 4, 48, 45
5, 60000, Note_on_c, 4, 48, 0
5, 60000, Note_on_c, 4, 47, 45
5, 60048, Note_on_c, 4, 47, 0
5, 60048, Note_on_c, 4, 48, 45
5, 60094, Note_on_c, 4, 48, 0
5, 60096, Note_on_c, 4, 50, 45
5, 60144, Note_on_c, 4, 50, 0
5, 60144, Note_on_c, 4, 48, 45
5, 60192, Note_on_c, 4, 48, 0
5, 60192, Note_on_c, 4, 47, 45
5, 60240, Note_on_c, 4, 47, 0
5, 60240, Note_on_c, 4, 48, 45
5, 60286, Note_on_c, 4, 48, 0
5, 60288, Note_on_c, 4, 50, 45
5, 60336, Note_on_c, 4, 50, 0
5, 60336, Note_on_c, 4, 48, 45
5, 60384, Note_on_c, 4, 48, 0
5, 60384, Note_on_c, 4, 47, 45
5, 60432, Note_on_c, 4, 47, 0
5, 60432, Note_on_c, 4, 48, 45
5, 60478, Note_on_c, 4, 48, 0
5, 60480, Note_on_c, 4, 36, 45
5, 60640, Note_on_c, 4, 36, 0
5, 61056, Note_on_c, 4, 50, 45
5, 61104, Note_on_c, 4, 50, 0
5, 61104, Note_on_c, 4, 48, 45
5, 61152, Note_on_c, 4, 48, 0
5, 61152, Note_on_c, 4, 47, 45
5, 61200, Note_on_c, 4, 47, 0
5, 61200, Note_on_c, 4, 48, 45
5, 61246, Note_on_c, 4, 48, 0
5, 61248, Note_on_c, 4, 50, 45
5, 61296, Note_on_c, 4, 50, 0
5, 61296, Note_on_c, 4, 48, 45
5, 61344, Note_on_c, 4, 48, 0
5, 61344, Note_on_c, 4, 47, 45
5, 61392, Note_on_c, 4, 47, 0
5, 61392, Note_on_c, 4, 48, 45
5, 61438, Note_on_c, 4, 48, 0
5, 61440, Note_on_c, 4, 50, 45
5, 61488, Note_on_c, 4, 50, 0
5, 61488, Note_on_c, 4, 48, 45
5, 61536, Note_on_c, 4, 48, 0
5, 61536, Note_on_c, 4, 47, 45
5, 61584, Note_on_c, 4, 47, 0
5, 61584, Note_on_c, 4, 48, 45
5, 61630, Note_on_c, 4, 48, 0
5, 61632, Note_on_c, 4, 36, 45
5, 61792, Note_on_c, 4, 36, 0
5, 62208, Note_on_c, 4, 48, 45
5, 62256, Note_on_c, 4, 48, 0
5, 62400, Note_on_c, 4, 48, 45
5, 62448, Note_on_c, 4, 48, 0
5, 63744, Note_on_c, 4, 52, 45
5, 63790, Note_on_c, 4, 52, 0
5, 63792, Note_on_c, 4, 60, 47
5, 63838, Note_on_c, 4, 60, 0
5, 63840, Note_on_c, 4, 59, 50
5, 63886, Note_on_c, 4, 59, 0
5, 63888, Note_on_c, 4, 57, 53
5, 63934, Note_on_c, 4, 57, 0
5, 63936, Note_on_c, 4, 55, 56
5, 63982, Note_on_c, 4, 55, 0
5, 63984, Note_on_c, 4, 53, 59
5, 64030, Note_on_c, 4, 53, 0
5, 64032, Note_on_c, 4, 52, 62
5, 64078, Note_on_c, 4, 52, 0
5, 64080, Note_on_c, 4, 50, 65
5, 64126, Note_on_c, 4, 50, 0
5, 64128, Note_on_c, 4, 48, 68
5, 64176, Note_on_c, 4, 48, 0
5, 64176, Note_on_c, 4, 47, 71
5, 64224, Note_on_c, 4, 47, 0
5, 64224, Note_on_c, 4, 48, 74
5, 64272, Note_on_c, 4, 48, 0
5, 64272, Note_on_c, 4, 47, 77
5, 64320, Note_on_c, 4, 47, 0
5, 64320, Note_on_c, 4, 48, 80
5, 64368, Note_on_c, 4, 48, 0
5, 64368, Note_on_c, 4, 47, 83
5, 64416, Note_on_c, 4, 47, 0
5, 64416, Note_on_c, 4, 48, 86
5, 64464, Note_on_c, 4, 48, 0
5, 64464, Note_on_c, 4, 47, 89
5, 64510, Note_on_c, 4, 47, 0
5, 64512, Note_on_c, 4, 48, 92
5, 64560, Note_on_c, 4, 48, 0
5, 64704, Note_on_c, 4, 36, 92
5, 64752, Note_on_c, 4, 36, 0
5, 64896, Note_on_c, 4, 36, 92
5, 64944, Note_on_c, 4, 36, 0
5, 65088, Note_on_c, 4, 36, 92
5, 65136, Note_on_c, 4, 36, 0
5, 67968, Note_on_c, 4, 50, 45
5, 68544, Note_on_c, 4, 50, 0
5, 68544, Note_on_c, 4, 52, 92
5, 69120, Note_on_c, 4, 52, 0
5, 69120, Note_on_c, 4, 53, 45
5, 69312, Note_on_c, 4, 53, 0
5, 69312, Note_on_c, 4, 50, 45
5, 69504, Note_on_c, 4, 50, 0
5, 69504, Note_on_c, 4, 46, 45
5, 69664, Note_on_c, 4, 46, 0
5, 69696, Note_on_c, 4, 48, 45
5, 70224, Note_on_c, 4, 48, 0
5, 73152, Note_on_c, 4, 61, 45
5, 73536, Note_on_c, 4, 61, 0
5, 73536, Note_on_c, 4, 61, 92
5, 73696, Note_on_c, 4, 61, 0
5, 74304, Note_on_c, 4, 66, 45
5, 74688, Note_on_c, 4, 66, 0
5, 74688, Note_on_c, 4, 66, 92
5, 74848, Note_on_c, 4, 66, 0
5, 75456, Note_on_c, 4, 58, 45
5, 75712, Note_on_c, 4, 58, 0
5, 75744, Note_on_c, 4, 58, 56
5, 75838, Note_on_c, 4, 58, 0
5, 75840, Note_on_c, 4, 58, 60
5, 75934, Note_on_c, 4, 58, 0
5, 75936, Note_on_c, 4, 58, 64
5, 76030, Note_on_c, 4, 58, 0
5, 76032, Note_on_c, 4, 60, 68
5, 76416, Note_on_c, 4, 60, 0
5, 76416, Note_on_c, 4, 48, 84
5, 76576, Note_on_c, 4, 48, 0
5, 76608, Note_on_c, 4, 53, 45
5, 76768, Note_on_c, 4, 53, 0
5, 77760, Note_on_c, 4, 59, 63
5, 78288, Note_on_c, 4, 59, 0
5, 78912, Note_on_c, 4, 49, 63
5, 79440, Note_on_c, 4, 49, 0
5, 80064, Note_on_c, 4, 53, 63
5, 80400, Note_on_c, 4, 53, 0
5, 80448, Note_on_c, 4, 46, 45
5, 80608, Note_on_c, 4, 46, 0
5, 80640, Note_on_c, 4, 58, 63
5, 80976, Note_on_c, 4, 58, 0
5, 81024, Note_on_c, 4, 46, 45
5, 81184, Note_on_c, 4, 46, 0
5, 81216, Note_on_c, 4, 48, 92
5, 81264, Note_on_c, 4, 48, 0
5, 81408, Note_on_c, 4, 48, 92
5, 81456, Note_on_c, 4, 48, 0
5, 81600, Note_on_c, 4, 48, 92
5, 81648, Note_on_c, 4, 48, 0
5, 81792, Note_on_c, 4, 41, 92
5, 81952, Note_on_c, 4, 41, 0
5, 82368, Note_on_c, 4, 48, 45
5, 82656, Note_on_c, 4, 48, 0
5, 82656, Note_on_c, 4, 50, 45
5, 82704, Note_on_c, 4, 50, 0
5, 82704, Note_on_c, 4, 48, 45
5, 82750, Note_on_c, 4, 48, 0
5, 82752, Note_on_c, 4, 47, 45
5, 82784, Note_on_c, 4, 47, 0
5, 82848, Note_on_c, 4, 48, 45
5, 82880, Note_on_c, 4, 48, 0
5, 82944, Note_on_c, 4, 36, 45
5, 83104, Note_on_c, 4, 36, 0
5, 83520, Note_on_c, 4, 48, 45
5, 83808, Note_on_c, 4, 48, 0
5, 83808, Note_on_c, 4, 50, 45
5, 83856, Note_on_c, 4, 50, 0
5, 83856, Note_on_c, 4, 48, 45
5, 83902, Note_on_c, 4, 48, 0
5, 83904, Note_on_c, 4, 47, 45
5, 83936, Note_on_c, 4, 47, 0
5, 84000, Note_on_c, 4, 48, 45
5, 84032, Note_on_c, 4, 48, 0
5, 84096, Note_on_c, 4, 36, 45
5, 84256, Note_on_c, 4, 36, 0
5, 84672, Note_on_c, 4, 48, 45
5, 84960, Note_on_c, 4, 48, 0
5, 84960, Note_on_c, 4, 50, 45
5, 85008, Note_on_c, 4, 50, 0
5, 85008, Note_on_c, 4, 48, 45
5, 85054, Note_on_c, 4, 48, 0
5, 85056, Note_on_c, 4, 47, 45
5, 85088, Note_on_c, 4, 47, 0
5, 85152, Note_on_c, 4, 48, 45
5, 85246, Note_on_c, 4, 48, 0
5, 85248, Note_on_c, 4, 36, 45
5, 85408, Note_on_c, 4, 36, 0
5, 85824, Note_on_c, 4, 48, 45
5, 86112, Note_on_c, 4, 48, 0
5, 86112, Note_on_c, 4, 50, 45
5, 86160, Note_on_c, 4, 50, 0
5, 86160, Note_on_c, 4, 48, 45
5, 86206, Note_on_c, 4, 48, 0
5, 86208, Note_on_c, 4, 47, 45
5, 86240, Note_on_c, 4, 47, 0
5, 86304, Note_on_c, 4, 48, 45
5, 86336, Note_on_c, 4, 48, 0
5, 86400, Note_on_c, 4, 49, 45
5, 86448, Note_on_c, 4, 49, 0
5, 86592, Note_on_c, 4, 45, 45
5, 86640, Note_on_c, 4, 45, 0
5, 86784, Note_on_c, 4, 49, 45
5, 86832, Note_on_c, 4, 49, 0
5, 86976, Note_on_c, 4, 50, 45
5, 87136, Note_on_c, 4, 50, 0
5, 87552, Note_on_c, 4, 47, 45
5, 87600, Note_on_c, 4, 47, 0
5, 87744, Note_on_c, 4, 43, 45
5, 87792, Note_on_c, 4, 43, 0
5, 87936, Note_on_c, 4, 47, 45
5, 87984, Note_on_c, 4, 47, 0
5, 88128, Note_on_c, 4, 48, 45
5, 88288, Note_on_c, 4, 48, 0
5, 88704, Note_on_c, 4, 44, 30
5, 89808, Note_on_c, 4, 44, 0
5, 89856, Note_on_c, 4, 46, 30
5, 90960, Note_on_c, 4, 46, 0
5, 91008, Note_on_c, 4, 48, 30
5, 91744, Note_on_c, 4, 48, 0
5, 91776, Note_on_c, 4, 48, 30
5, 91824, Note_on_c, 4, 48, 0
5, 91968, Note_on_c, 4, 48, 42
5, 92016, Note_on_c, 4, 48, 0
5, 92160, Note_on_c, 4, 50, 75
5, 92688, Note_on_c, 4, 50, 0
5, 92736, Note_on_c, 4, 51, 92
5, 92784, Note_on_c, 4, 51, 0
5, 92928, Note_on_c, 4, 53, 92
5, 92976, Note_on_c, 4, 53, 0
5, 93120, Note_on_c, 4, 54, 92
5, 93168, Note_on_c, 4, 54, 0
5, 93312, Note_on_c, 4, 55, 92
5, 93472, Note_on_c, 4, 55, 0
5, 93888, Note_on_c, 4, 55, 45
5, 93920, Note_on_c, 4, 55, 0
5, 93936, Note_on_c, 4, 43, 45
5, 93968, Note_on_c, 4, 43, 0
5, 93984, Note_on_c, 4, 45, 45
5, 94016, Note_on_c, 4, 45, 0
5, 94032, Note_on_c, 4, 47, 45
5, 94064, Note_on_c, 4, 47, 0
5, 94080, Note_on_c, 4, 48, 45
5, 94112, Note_on_c, 4, 48, 0
5, 94128, Note_on_c, 4, 50, 45
5, 94160, Note_on_c, 4, 50, 0
5, 94176, Note_on_c, 4, 52, 45
5, 94208, Note_on_c, 4, 52, 0
5, 94224, Note_on_c, 4, 54, 45
5, 94256, Note_on_c, 4, 54, 0
5, 94272, Note_on_c, 4, 55, 45
5, 94304, Note_on_c, 4, 55, 0
5, 94320, Note_on_c, 4, 54, 45
5, 94352, Note_on_c, 4, 54, 0
5, 94368, Note_on_c, 4, 55, 45
5, 94400, Note_on_c, 4, 55, 0
5, 94416, Note_on_c, 4, 54, 45
5, 94448, Note_on_c, 4, 54, 0
5, 94464, Note_on_c, 4, 55, 45
5, 94624, Note_on_c, 4, 55, 0
5, 95040, Note_on_c, 4, 55, 45
5, 95086, Note_on_c, 4, 55, 0
5, 95088, Note_on_c, 4, 43, 45
5, 95134, Note_on_c, 4, 43, 0
5, 95136, Note_on_c, 4, 45, 45
5, 95182, Note_on_c, 4, 45, 0
5, 95184, Note_on_c, 4, 47, 45
5, 95230, Note_on_c, 4, 47, 0
5, 95232, Note_on_c, 4, 48, 45
5, 95278, Note_on_c, 4, 48, 0
5, 95280, Note_on_c, 4, 50, 45
5, 95326, Note_on_c, 4, 50, 0
5, 95328, Note_on_c, 4, 52, 45
5, 95374, Note_on_c, 4, 52, 0
5, 95376, Note_on_c, 4, 54, 45
5, 95422, Note_on_c, 4, 54, 0
5, 95424, Note_on_c, 4, 55, 45
5, 95470, Note_on_c, 4, 55, 0
5, 95472, Note_on_c, 4, 54, 45
5, 95518, Note_on_c, 4, 54, 0
5, 95520, Note_on_c, 4, 55, 45
5, 95566, Note_on_c, 4, 55, 0
5, 95568, Note_on_c, 4, 54, 45
5, 95614, Note_on_c, 4, 54, 0
5, 95616, Note_on_c, 4, 55, 45
5, 95776, Note_on_c, 4, 55, 0
5, 95904, Note_on_c, 4, 55, 45
5, 95936, Note_on_c, 4, 55, 0
5, 96000, Note_on_c, 4, 55, 45
5, 96032, Note_on_c, 4, 55, 0
5, 96096, Note_on_c, 4, 48, 45
5, 96128, Note_on_c, 4, 48, 0
5, 96192, Note_on_c, 4, 55, 108
5, 96238, Note_on_c, 4, 55, 0
5, 96240, Note_on_c, 4, 43, 108
5, 96286, Note_on_c, 4, 43, 0
5, 96288, Note_on_c, 4, 45, 108
5, 96334, Note_on_c, 4, 45, 0
5, 96336, Note_on_c, 4, 47, 108
5, 96382, Note_on_c, 4, 47, 0
5, 96384, Note_on_c, 4, 48, 108
5, 96430, Note_on_c, 4, 48, 0
5, 96432, Note_on_c, 4, 50, 108
5, 96478, Note_on_c, 4, 50, 0
5, 96480, Note_on_c, 4, 52, 108
5, 96526, Note_on_c, 4, 52, 0
5, 96528, Note_on_c, 4, 54, 108
5, 96574, Note_on_c, 4, 54, 0
5, 96576, Note_on_c, 4, 55, 108
5, 96622, Note_on_c, 4, 55, 0
5, 96624, Note_on_c, 4, 54, 108
5, 96670, Note_on_c, 4, 54, 0
5, 96672, Note_on_c, 4, 55, 108
5, 96718, Note_on_c, 4, 55, 0
5, 96720, Note_on_c, 4, 54, 108
5, 96766, Note_on_c, 4, 54, 0
5, 96768, Note_on_c, 4, 55, 108
5, 96928, Note_on_c, 4, 55, 0
5, 102240, Note_on_c, 4, 54, 45
5, 102336, Note_on_c, 4, 54, 0
5, 102336, Note_on_c, 4, 55, 45
5, 102432, Note_on_c, 4, 55, 0
5, 102432, Note_on_c, 4, 56, 45
5, 102528, Note_on_c, 4, 56, 0
5, 102528, Note_on_c, 4, 57, 45
5, 102560, Note_on_c, 4, 57, 0
5, 102624, Note_on_c, 4, 57, 45
5, 102720, Note_on_c, 4, 57, 0
5, 102720, Note_on_c, 4, 53, 45
5, 102814, Note_on_c, 4, 53, 0
5, 102816, Note_on_c, 4, 53, 45
5, 102912, Note_on_c, 4, 53, 0
5, 102912, Note_on_c, 4, 50, 45
5, 103006, Note_on_c, 4, 50, 0
5, 103008, Note_on_c, 4, 50, 45
5, 103104, Note_on_c, 4, 50, 0
5, 103104, Note_on_c, 4, 47, 45
5, 103198, Note_on_c, 4, 47, 0
5, 103200, Note_on_c, 4, 47, 45
5, 103296, Note_on_c, 4, 47, 0
5, 103296, Note_on_c, 4, 43, 45
5, 103390, Note_on_c, 4, 43, 0
5, 103392, Note_on_c, 4, 43, 45
5, 103488, Note_on_c, 4, 43, 0
5, 103488, Note_on_c, 4, 47, 45
5, 103582, Note_on_c, 4, 47, 0
5, 103584, Note_on_c, 4, 47, 45
5, 103680, Note_on_c, 4, 47, 0
5, 103680, Note_on_c, 4, 48, 45
5, 103774, Note_on_c, 4, 48, 0
5, 103776, Note_on_c, 4, 48, 45
5, 103872, Note_on_c, 4, 48, 0
5, 103872, Note_on_c, 4, 50, 45
5, 103966, Note_on_c, 4, 50, 0
5, 103968, Note_on_c, 4, 50, 45
5, 104064, Note_on_c, 4, 50, 0
5, 104064, Note_on_c, 4, 52, 45
5, 104158, Note_on_c, 4, 52, 0
5, 104160, Note_on_c, 4, 52, 45
5, 104254, Note_on_c, 4, 52, 0
5, 104256, Note_on_c, 4, 53, 45
5, 104512, Note_on_c, 4, 53, 0
5, 106560, Note_on_c, 4, 67, 45
5, 106848, Note_on_c, 4, 67, 0
5, 106848, Note_on_c, 4, 69, 45
5, 106896, Note_on_c, 4, 69, 0
5, 106896, Note_on_c, 4, 67, 45
5, 106942, Note_on_c, 4, 67, 0
5, 106944, Note_on_c, 4, 66, 45
5, 106976, Note_on_c, 4, 66, 0
5, 107040, Note_on_c, 4, 67, 45
5, 107134, Note_on_c, 4, 67, 0
5, 107136, Note_on_c, 4, 67, 45
5, 107664, Note_on_c, 4, 67, 0
5, 107712, Note_on_c, 4, 67, 45
5, 108000, Note_on_c, 4, 67, 0
5, 108000, Note_on_c, 4, 69, 45
5, 108048, Note_on_c, 4, 69, 0
5, 108048, Note_on_c, 4, 67, 45
5, 108094, Note_on_c, 4, 67, 0
5, 108096, Note_on_c, 4, 66, 45
5, 108128, Note_on_c, 4, 66, 0
5, 108192, Note_on_c, 4, 67, 45
5, 108286, Note_on_c, 4, 67, 0
5, 108288, Note_on_c, 4, 67, 45
5, 108816, Note_on_c, 4, 67, 0
5, 108864, Note_on_c, 4, 67, 45
5, 109152, Note_on_c, 4, 67, 0
5, 109152, Note_on_c, 4, 69, 68
5, 109200, Note_on_c, 4, 69, 0
5, 109200, Note_on_c, 4, 67, 72
5, 109246, Note_on_c, 4, 67, 0
5, 109248, Note_on_c, 4, 66, 76
5, 109280, Note_on_c, 4, 66, 0
5, 109344, Note_on_c, 4, 67, 84
5, 109438, Note_on_c, 4, 67, 0
5, 109440, Note_on_c, 4, 70, 92
5, 109968, Note_on_c, 4, 70, 0
5, 110016, Note_on_c, 4, 69, 92
5, 110064, Note_on_c, 4, 69, 0
5, 110208, Note_on_c, 4, 53, 45
5, 110256, Note_on_c, 4, 53, 0
5, 111600, Note_on_c, 4, 45, 45
5, 111646, Note_on_c, 4, 45, 0
5, 111648, Note_on_c, 4, 47, 48
5, 111694, Note_on_c, 4, 47, 0
5, 111696, Note_on_c, 4, 49, 51
5, 111742, Note_on_c, 4, 49, 0
5, 111744, Note_on_c, 4, 50, 54
5, 111790, Note_on_c, 4, 50, 0
5, 111792, Note_on_c, 4, 52, 57
5, 111838, Note_on_c, 4, 52, 0
5, 111840, Note_on_c, 4, 53, 60
5, 111886, Note_on_c, 4, 53, 0
5, 111888, Note_on_c, 4, 55, 63
5, 111934, Note_on_c, 4, 55, 0
5, 111936, Note_on_c, 4, 57, 66
5, 111982, Note_on_c, 4, 57, 0
5, 111984, Note_on_c, 4, 55, 69
5, 112030, Note_on_c, 4, 55, 0
5, 112032, Note_on_c, 4, 53, 72
5, 112078, Note_on_c, 4, 53, 0
5, 112080, Note_on_c, 4, 52, 75
5, 112126, Note_on_c, 4, 52, 0
5, 112128, Note_on_c, 4, 50, 78
5, 112174, Note_on_c, 4, 50, 0
5, 112176, Note_on_c, 4, 48, 81
5, 112222, Note_on_c, 4, 48, 0
5, 112224, Note_on_c, 4, 47, 84
5, 112270, Note_on_c, 4, 47, 0
5, 112272, Note_on_c, 4, 45, 88
5, 112318, Note_on_c, 4, 45, 0
5, 112320, Note_on_c, 4, 43, 92
5, 112576, Note_on_c, 4, 43, 0
5, 112608, Note_on_c, 4, 45, 92
5, 112656, Note_on_c, 4, 45, 0
5, 112656, Note_on_c, 4, 47, 92
5, 112704, Note_on_c, 4, 47, 0
5, 112704, Note_on_c, 4, 48, 92
5, 112752, Note_on_c, 4, 48, 0
5, 112752, Note_on_c, 4, 50, 92
5, 112800, Note_on_c, 4, 50, 0
5, 112800, Note_on_c, 4, 52, 92
5, 112848, Note_on_c, 4, 52, 0
5, 112848, Note_on_c, 4, 54, 92
5, 112894, Note_on_c, 4, 54, 0
5, 112896, Note_on_c, 4, 55, 92
5, 112990, Note_on_c, 4, 55, 0
5, 112992, Note_on_c, 4, 55, 92
5, 113086, Note_on_c, 4, 55, 0
5, 113088, Note_on_c, 4, 55, 92
5, 113182, Note_on_c, 4, 55, 0
5, 113184, Note_on_c, 4, 55, 92
5, 113278, Note_on_c, 4, 55, 0
5, 113280, Note_on_c, 4, 55, 92
5, 113374, Note_on_c, 4, 55, 0
5, 113376, Note_on_c, 4, 55, 92
5, 113470, Note_on_c, 4, 55, 0
5, 113472, Note_on_c, 4, 48, 92
5, 113632, Note_on_c, 4, 48, 0
5, 116352, Note_on_c, 4, 60, 45
5, 116880, Note_on_c, 4, 60, 0
5, 116928, Note_on_c, 4, 54, 92
5, 117504, Note_on_c, 4, 54, 0
5, 117504, Note_on_c, 4, 53, 45
5, 117696, Note_on_c, 4, 53, 0
5, 117696, Note_on_c, 4, 55, 45
5, 117744, Note_on_c, 4, 55, 0
5, 117888, Note_on_c, 4, 43, 45
5, 117936, Note_on_c, 4, 43, 0
5, 118080, Note_on_c, 4, 48, 45
5, 118128, Note_on_c, 4, 48, 0
5, 120960, Note_on_c, 4, 48, 63
5, 121488, Note_on_c, 4, 48, 0
5, 121536, Note_on_c, 4, 44, 63
5, 122064, Note_on_c, 4, 44, 0
5, 122112, Note_on_c, 4, 42, 63
5, 122448, Note_on_c, 4, 42, 0
5, 122496, Note_on_c, 4, 41, 63
5, 122656, Note_on_c, 4, 41, 0
5, 122688, Note_on_c, 4, 40, 108
5, 122736, Note_on_c, 4, 40, 0
5, 122880, Note_on_c, 4, 38, 108
5, 122928, Note_on_c, 4, 38, 0
5, 123072, Note_on_c, 4, 43, 108
5, 123120, Note_on_c, 4, 43, 0
5, 123264, Note_on_c, 4, 48, 45
5, 123552, Note_on_c, 4, 48, 0
5, 123552, Note_on_c, 4, 50, 45
5, 123600, Note_on_c, 4, 50, 0
5, 123600, Note_on_c, 4, 48, 45
5, 123646, Note_on_c, 4, 48, 0
5, 123648, Note_on_c, 4, 47, 45
5, 123680, Note_on_c, 4, 47, 0
5, 123744, Note_on_c, 4, 48, 45
5, 123776, Note_on_c, 4, 48, 0
5, 123840, Note_on_c, 4, 36, 45
5, 124000, Note_on_c, 4, 36, 0
5, 124416, Note_on_c, 4, 48, 45
5, 124704, Note_on_c, 4, 48, 0
5, 124704, Note_on_c, 4, 50, 45
5, 124752, Note_on_c, 4, 50, 0
5, 124752, Note_on_c, 4, 48, 45
5, 124798, Note_on_c, 4, 48, 0
5, 124800, Note_on_c, 4, 47, 45
5, 124832, Note_on_c, 4, 47, 0
5, 124896, Note_on_c, 4, 48, 45
5, 124928, Note_on_c, 4, 48, 0
5, 124992, Note_on_c, 4, 36, 45
5, 125152, Note_on_c, 4, 36, 0
5, 125568, Note_on_c, 4, 50, 45
5, 125616, Note_on_c, 4, 50, 0
5, 125616, Note_on_c, 4, 48, 45
5, 125664, Note_on_c, 4, 48, 0
5, 125664, Note_on_c, 4, 47, 45
5, 125712, Note_on_c, 4, 47, 0
5, 125712, Note_on_c, 4, 48, 45
5, 125758, Note_on_c, 4, 48, 0
5, 125760, Note_on_c, 4, 50, 45
5, 125808, Note_on_c, 4, 50, 0
5, 125808, Note_on_c, 4, 48, 45
5, 125856, Note_on_c, 4, 48, 0
5, 125856, Note_on_c, 4, 47, 45
5, 125904, Note_on_c, 4, 47, 0
5, 125904, Note_on_c, 4, 48, 45
5, 125950, Note_on_c, 4, 48, 0
5, 125952, Note_on_c, 4, 50, 45
5, 126000, Note_on_c, 4, 50, 0
5, 126000, Note_on_c, 4, 48, 45
5, 126048, Note_on_c, 4, 48, 0
5, 126048, Note_on_c, 4, 47, 45
5, 126096, Note_on_c, 4, 47, 0
5, 126096, Note_on_c, 4, 48, 45
5, 126142, Note_on_c, 4, 48, 0
5, 126144, Note_on_c, 4, 36, 45
5, 126304, Note_on_c, 4, 36, 0
5, 126720, Note_on_c, 4, 50, 45
5, 126768, Note_on_c, 4, 50, 0
5, 126768, Note_on_c, 4, 48, 45
5, 126816, Note_on_c, 4, 48, 0
5, 126816, Note_on_c, 4, 47, 45
5, 126864, Note_on_c, 4, 47, 0
5, 126864, Note_on_c, 4, 48, 45
5, 126910, Note_on_c, 4, 48, 0
5, 126912, Note_on_c, 4, 50, 45
5, 126960, Note_on_c, 4, 50, 0
5, 126960, Note_on_c, 4, 48, 45
5, 127008, Note_on_c, 4, 48, 0
5, 127008, Note_on_c, 4, 47, 45
5, 127056, Note_on_c, 4, 47, 0
5, 127056, Note_on_c, 4, 48, 45
5, 127102, Note_on_c, 4, 48, 0
5, 127104, Note_on_c, 4, 50, 45
5, 127152, Note_on_c, 4, 50, 0
5, 127152, Note_on_c, 4, 48, 45
5, 127200, Note_on_c, 4, 48, 0
5, 127200, Note_on_c, 4, 47, 45
5, 127248, Note_on_c, 4, 47, 0
5, 127248, Note_on_c, 4, 48, 45
5, 127294, Note_on_c, 4, 48, 0
5, 127296, Note_on_c, 4, 36, 45
5, 127456, Note_on_c, 4, 36, 0
5, 127872, Note_on_c, 4, 48, 45
5, 127920, Note_on_c, 4, 48, 0
5, 128064, Note_on_c, 4, 48, 45
5, 128112, Note_on_c, 4, 48, 0
5, 129408, Note_on_c, 4, 52, 45
5, 129454, Note_on_c, 4, 52, 0
5, 129456, Note_on_c, 4, 60, 47
5, 129502, Note_on_c, 4, 60, 0
5, 129504, Note_on_c, 4, 59, 50
5, 129550, Note_on_c, 4, 59, 0
5, 129552, Note_on_c, 4, 57, 53
5, 129598, Note_on_c, 4, 57, 0
5, 129600, Note_on_c, 4, 55, 56
5, 129646, Note_on_c, 4, 55, 0
5, 129648, Note_on_c, 4, 53, 59
5, 129694, Note_on_c, 4, 53, 0
5, 129696, Note_on_c, 4, 52, 62
5, 129742, Note_on_c, 4, 52, 0
5, 129744, Note_on_c, 4, 50, 65
5, 129790, Note_on_c, 4, 50, 0
5, 129792, Note_on_c, 4, 48, 68
5, 129840, Note_on_c, 4, 48, 0
5, 129840, Note_on_c, 4, 47, 71
5, 129888, Note_on_c, 4, 47, 0
5, 129888, Note_on_c, 4, 48, 74
5, 129936, Note_on_c, 4, 48, 0
5, 129936, Note_on_c, 4, 47, 77
5, 129984, Note_on_c, 4, 47, 0
5, 129984, Note_on_c, 4, 48, 80
5, 130032, Note_on_c, 4, 48, 0
5, 130032, Note_on_c, 4, 47, 83
5, 130080, Note_on_c, 4, 47, 0
5, 130080, Note_on_c, 4, 48, 86
5, 130128, Note_on_c, 4, 48, 0
5, 130128, Note_on_c, 4, 47, 89
5, 130174, Note_on_c, 4, 47, 0
5, 130176, Note_on_c, 4, 48, 92
5, 130224, Note_on_c, 4, 48, 0
5, 130368, Note_on_c, 4, 36, 92
5, 130416, Note_on_c, 4, 36, 0
5, 130560, Note_on_c, 4, 36, 92
5, 130608, Note_on_c, 4, 36, 0
5, 130752, Note_on_c, 4, 36, 92
5, 130800, Note_on_c, 4, 36, 0
5, 131328, Note_on_c, 4, 45, 92
5, 131488, Note_on_c, 4, 45, 0
5, 132480, Note_on_c, 4, 52, 92
5, 132526, Note_on_c, 4, 52, 0
5, 132528, Note_on_c, 4, 57, 92
5, 132574, Note_on_c, 4, 57, 0
5, 132576, Note_on_c, 4, 56, 92
5, 132622, Note_on_c, 4, 56, 0
5, 132624, Note_on_c, 4, 54, 92
5, 132670, Note_on_c, 4, 54, 0
5, 132672, Note_on_c, 4, 52, 92
5, 132718, Note_on_c, 4, 52, 0
5, 132720, Note_on_c, 4, 50, 92
5, 132766, Note_on_c, 4, 50, 0
5, 132768, Note_on_c, 4, 49, 92
5, 132814, Note_on_c, 4, 49, 0
5, 132816, Note_on_c, 4, 47, 92
5, 132862, Note_on_c, 4, 47, 0
5, 132864, Note_on_c, 4, 45, 92
5, 132912, Note_on_c, 4, 45, 0
5, 132912, Note_on_c, 4, 44, 92
5, 132960, Note_on_c, 4, 44, 0
5, 132960, Note_on_c, 4, 45, 92
5, 133008, Note_on_c, 4, 45, 0
5, 133008, Note_on_c, 4, 44, 92
5, 133054, Note_on_c, 4, 44, 0
5, 133056, Note_on_c, 4, 45, 92
5, 133104, Note_on_c, 4, 45, 0
5, 133248, Note_on_c, 4, 45, 92
5, 133296, Note_on_c, 4, 45, 0
5, 133440, Note_on_c, 4, 45, 92
5, 133488, Note_on_c, 4, 45, 0
5, 133632, Note_on_c, 4, 46, 92
5, 133920, Note_on_c, 4, 46, 0
5, 133920, Note_on_c, 4, 48, 45
5, 133968, Note_on_c, 4, 48, 0
5, 133968, Note_on_c, 4, 46, 45
5, 134014, Note_on_c, 4, 46, 0
5, 134016, Note_on_c, 4, 45, 45
5, 134048, Note_on_c, 4, 45, 0
5, 134112, Note_on_c, 4, 46, 45
5, 134144, Note_on_c, 4, 46, 0
5, 134208, Note_on_c, 4, 41, 45
5, 134736, Note_on_c, 4, 41, 0
5, 134784, Note_on_c, 4, 46, 92
5, 135072, Note_on_c, 4, 46, 0
5, 135072, Note_on_c, 4, 48, 45
5, 135120, Note_on_c, 4, 48, 0
5, 135120, Note_on_c, 4, 46, 45
5, 135166, Note_on_c, 4, 46, 0
5, 135168, Note_on_c, 4, 45, 45
5, 135200, Note_on_c, 4, 45, 0
5, 135264, Note_on_c, 4, 46, 45
5, 135296, Note_on_c, 4, 46, 0
5, 135360, Note_on_c, 4, 43, 45
5, 135888, Note_on_c, 4, 43, 0
5, 135936, Note_on_c, 4, 55, 30
5, 136512, Note_on_c, 4, 55, 0
5, 136512, Note_on_c, 4, 57, 30
5, 137040, Note_on_c, 4, 57, 0
5, 137664, Note_on_c, 4, 58, 30
5, 138240, Note_on_c, 4, 58, 0
5, 138240, Note_on_c, 4, 61, 30
5, 138768, Note_on_c, 4, 61, 0
5, 139392, Note_on_c, 4, 58, 92
5, 139680, Note_on_c, 4, 58, 0
5, 139680, Note_on_c, 4, 60, 92
5, 139728, Note_on_c, 4, 60, 0
5, 139728, Note_on_c, 4, 58, 92
5, 139774, Note_on_c, 4, 58, 0
5, 139776, Note_on_c, 4, 57, 92
5, 139808, Note_on_c, 4, 57, 0
5, 139872, Note_on_c, 4, 58, 92
5, 139904, Note_on_c, 4, 58, 0
5, 139968, Note_on_c, 4, 49, 92
5, 140016, Note_on_c, 4, 49, 0
5, 140160, Note_on_c, 4, 50, 92
5, 140208, Note_on_c, 4, 50, 0
5, 140352, Note_on_c, 4, 51, 92
5, 140400, Note_on_c, 4, 51, 0
5, 140544, Note_on_c, 4, 52, 92
5, 140592, Note_on_c, 4, 52, 0
5, 140736, Note_on_c, 4, 61, 92
5, 140784, Note_on_c, 4, 61, 0
5, 140928, Note_on_c, 4, 62, 92
5, 140976, Note_on_c, 4, 62, 0
5, 141120, Note_on_c, 4, 64, 92
5, 141168, Note_on_c, 4, 64, 0
5, 141312, Note_on_c, 4, 64, 92
5, 141360, Note_on_c, 4, 64, 0
5, 141504, Note_on_c, 4, 65, 92
5, 141552, Note_on_c, 4, 65, 0
5, 141696, Note_on_c, 4, 67, 92
5, 141744, Note_on_c, 4, 67, 0
5, 141888, Note_on_c, 4, 67, 127
5, 142176, Note_on_c, 4, 67, 0
5, 142176, Note_on_c, 4, 65, 92
5, 142270, Note_on_c, 4, 65, 0
5, 142272, Note_on_c, 4, 67, 92
5, 142320, Note_on_c, 4, 67, 0
5, 142464, Note_on_c, 4, 67, 127
5, 142752, Note_on_c, 4, 67, 0
5, 142752, Note_on_c, 4, 65, 92
5, 142846, Note_on_c, 4, 65, 0
5, 143424, Note_on_c, 4, 63, 92
5, 143712, Note_on_c, 4, 63, 0
5, 143712, Note_on_c, 4, 65, 92
5, 143760, Note_on_c, 4, 65, 0
5, 143760, Note_on_c, 4, 63, 92
5, 143806, Note_on_c, 4, 63, 0
5, 143808, Note_on_c, 4, 62, 92
5, 143840, Note_on_c, 4, 62, 0
5, 143904, Note_on_c, 4, 63, 92
5, 143936, Note_on_c, 4, 63, 0
5, 144000, Note_on_c, 4, 54, 92
5, 144048, Note_on_c, 4, 54, 0
5, 144192, Note_on_c, 4, 55, 92
5, 144240, Note_on_c, 4, 55, 0
5, 144384, Note_on_c, 4, 56, 92
5, 144432, Note_on_c, 4, 56, 0
5, 144576, Note_on_c, 4, 57, 92
5, 144624, Note_on_c, 4, 57, 0
5, 144768, Note_on_c, 4, 57, 92
5, 144816, Note_on_c, 4, 57, 0
5, 144960, Note_on_c, 4, 58, 92
5, 145008, Note_on_c, 4, 58, 0
5, 145152, Note_on_c, 4, 60, 92
5, 145440, Note_on_c, 4, 60, 0
5, 145440, Note_on_c, 4, 57, 92
5, 145488, Note_on_c, 4, 57, 0
5, 145488, Note_on_c, 4, 58, 92
5, 145534, Note_on_c, 4, 58, 0
5, 145536, Note_on_c, 4, 60, 92
5, 145632, Note_on_c, 4, 60, 0
5, 145632, Note_on_c, 4, 58, 92
5, 145726, Note_on_c, 4, 58, 0
5, 145728, Note_on_c, 4, 60, 92
5, 146016, Note_on_c, 4, 60, 0
5, 146016, Note_on_c, 4, 57, 92
5, 146064, Note_on_c, 4, 57, 0
5, 146064, Note_on_c, 4, 58, 92
5, 146110, Note_on_c, 4, 58, 0
5, 146112, Note_on_c, 4, 60, 92
5, 146208, Note_on_c, 4, 60, 0
5, 146208, Note_on_c, 4, 58, 92
5, 146302, Note_on_c, 4, 58, 0
5, 146880, Note_on_c, 4, 56, 92
5, 147168, Note_on_c, 4, 56, 0
5, 147168, Note_on_c, 4, 58, 92
5, 147216, Note_on_c, 4, 58, 0
5, 147216, Note_on_c, 4, 56, 92
5, 147262, Note_on_c, 4, 56, 0
5, 147264, Note_on_c, 4, 55, 92
5, 147296, Note_on_c, 4, 55, 0
5, 147360, Note_on_c, 4, 56, 92
5, 147392, Note_on_c, 4, 56, 0
5, 147456, Note_on_c, 4, 47, 92
5, 147504, Note_on_c, 4, 47, 0
5, 147648, Note_on_c, 4, 48, 92
5, 147696, Note_on_c, 4, 48, 0
5, 147840, Note_on_c, 4, 49, 92
5, 147888, Note_on_c, 4, 49, 0
5, 148032, Note_on_c, 4, 50, 92
5, 148080, Note_on_c, 4, 50, 0
5, 148224, Note_on_c, 4, 65, 92
5, 148272, Note_on_c, 4, 65, 0
5, 148416, Note_on_c, 4, 63, 92
5, 148464, Note_on_c, 4, 63, 0
5, 148608, Note_on_c, 4, 62, 92
5, 148704, Note_on_c, 4, 62, 0
5, 148704, Note_on_c, 4, 65, 92
5, 148752, Note_on_c, 4, 65, 0
5, 148752, Note_on_c, 4, 63, 92
5, 148798, Note_on_c, 4, 63, 0
5, 148800, Note_on_c, 4, 62, 127
5, 149088, Note_on_c, 4, 62, 0
5, 149088, Note_on_c, 4, 63, 92
5, 149182, Note_on_c, 4, 63, 0
5, 149184, Note_on_c, 4, 62, 92
5, 149280, Note_on_c, 4, 62, 0
5, 149280, Note_on_c, 4, 65, 92
5, 149328, Note_on_c, 4, 65, 0
5, 149328, Note_on_c, 4, 63, 92
5, 149374, Note_on_c, 4, 63, 0
5, 149376, Note_on_c, 4, 62, 127
5, 149664, Note_on_c, 4, 62, 0
5, 149664, Note_on_c, 4, 63, 92
5, 149758, Note_on_c, 4, 63, 0
5, 150912, Note_on_c, 4, 63, 92
5, 151008, Note_on_c, 4, 63, 0
5, 151008, Note_on_c, 4, 60, 92
5, 151056, Note_on_c, 4, 60, 0
5, 151056, Note_on_c, 4, 61, 92
5, 151102, Note_on_c, 4, 61, 0
5, 151104, Note_on_c, 4, 63, 127
5, 151392, Note_on_c, 4, 63, 0
5, 151392, Note_on_c, 4, 61, 92
5, 151486, Note_on_c, 4, 61, 0
5, 151488, Note_on_c, 4, 63, 92
5, 151584, Note_on_c, 4, 63, 0
5, 151584, Note_on_c, 4, 60, 92
5, 151632, Note_on_c, 4, 60, 0
5, 151632, Note_on_c, 4, 61, 92
5, 151678, Note_on_c, 4, 61, 0
5, 151680, Note_on_c, 4, 63, 127
5, 151968, Note_on_c, 4, 63, 0
5, 151968, Note_on_c, 4, 61, 92
5, 152062, Note_on_c, 4, 61, 0
5, 152064, Note_on_c, 4, 46, 92
5, 152224, Note_on_c, 4, 46, 0
5, 154368, Note_on_c, 4, 54, 92
5, 154896, Note_on_c, 4, 54, 0
5, 154944, Note_on_c, 4, 49, 45
5, 155472, Note_on_c, 4, 49, 0
5, 155520, Note_on_c, 4, 46, 45
5, 156048, Note_on_c, 4, 46, 0
5, 156096, Note_on_c, 4, 42, 45
5, 156144, Note_on_c, 4, 42, 0
5, 156288, Note_on_c, 4, 41, 45
5, 156336, Note_on_c, 4, 41, 0
5, 156480, Note_on_c, 4, 40, 45
5, 156528, Note_on_c, 4, 40, 0
5, 156672, Note_on_c, 4, 41, 92
5, 156832, Note_on_c, 4, 41, 0
5, 158976, Note_on_c, 4, 49, 92
5, 159504, Note_on_c, 4, 49, 0
5, 159552, Note_on_c, 4, 44, 45
5, 160080, Note_on_c, 4, 44, 0
5, 160128, Note_on_c, 4, 41, 45
5, 160464, Note_on_c, 4, 41, 0
5, 160512, Note_on_c, 4, 37, 45
5, 160560, Note_on_c, 4, 37, 0
5, 160704, Note_on_c, 4, 49, 45
5, 160752, Note_on_c, 4, 49, 0
5, 160896, Note_on_c, 4, 48, 45
5, 160944, Note_on_c, 4, 48, 0
5, 161088, Note_on_c, 4, 47, 45
5, 161136, Note_on_c, 4, 47, 0
5, 161280, Note_on_c, 4, 36, 45
5, 161280, Note_on_c, 4, 48, 45
5, 161440, Note_on_c, 4, 48, 0
5, 161440, Note_on_c, 4, 36, 0
5, 161568, Note_on_c, 4, 48, 63
5, 161600, Note_on_c, 4, 48, 0
5, 161664, Note_on_c, 4, 48, 45
5, 161696, Note_on_c, 4, 48, 0
5, 161760, Note_on_c, 4, 48, 45
5, 161792, Note_on_c, 4, 48, 0
5, 161856, Note_on_c, 4, 40, 45
5, 162016, Note_on_c, 4, 40, 0
5, 162144, Note_on_c, 4, 52, 63
5, 162176, Note_on_c, 4, 52, 0
5, 162240, Note_on_c, 4, 52, 45
5, 162272, Note_on_c, 4, 52, 0
5, 162336, Note_on_c, 4, 52, 45
5, 162368, Note_on_c, 4, 52, 0
5, 162432, Note_on_c, 4, 43, 45
5, 162592, Note_on_c, 4, 43, 0
5, 162720, Note_on_c, 4, 55, 63
5, 162752, Note_on_c, 4, 55, 0
5, 162816, Note_on_c, 4, 55, 45
5, 162848, Note_on_c, 4, 55, 0
5, 162912, Note_on_c, 4, 55, 45
5, 162944, Note_on_c, 4, 55, 0
5, 163008, Note_on_c, 4, 48, 45
5, 163168, Note_on_c, 4, 48, 0
5, 163296, Note_on_c, 4, 60, 63
5, 163328, Note_on_c, 4, 60, 0
5, 163488, Note_on_c, 4, 60, 45
5, 163520, Note_on_c, 4, 60, 0
5, 163584, Note_on_c, 4, 36, 45
5, 163616, Note_on_c, 4, 36, 0
5, 163632, Note_on_c, 4, 48, 45
5, 163664, Note_on_c, 4, 48, 0
5, 163680, Note_on_c, 4, 47, 45
5, 163712, Note_on_c, 4, 47, 0
5, 163728, Note_on_c, 4, 45, 45
5, 163760, Note_on_c, 4, 45, 0
5, 163776, Note_on_c, 4, 43, 45
5, 163808, Note_on_c, 4, 43, 0
5, 163824, Note_on_c, 4, 41, 45
5, 163856, Note_on_c, 4, 41, 0
5, 163872, Note_on_c, 4, 40, 45
5, 163904, Note_on_c, 4, 40, 0
5, 163920, Note_on_c, 4, 38, 45
5, 163952, Note_on_c, 4, 38, 0
5, 163968, Note_on_c, 4, 36, 63
5, 164206, Note_on_c, 4, 36, 0
5, 164208, Note_on_c, 4, 48, 45
5, 164240, Note_on_c, 4, 48, 0
5, 164256, Note_on_c, 4, 47, 45
5, 164288, Note_on_c, 4, 47, 0
5, 164304, Note_on_c, 4, 45, 45
5, 164336, Note_on_c, 4, 45, 0
5, 164352, Note_on_c, 4, 43, 45
5, 164384, Note_on_c, 4, 43, 0
5, 164400, Note_on_c, 4, 41, 45
5, 164432, Note_on_c, 4, 41, 0
5, 164448, Note_on_c, 4, 40, 45
5, 164480, Note_on_c, 4, 40, 0
5, 164496, Note_on_c, 4, 38, 45
5, 164528, Note_on_c, 4, 38, 0
5, 164544, Note_on_c, 4, 36, 63
5, 164782, Note_on_c, 4, 36, 0
5, 164784, Note_on_c, 4, 48, 45
5, 164816, Note_on_c, 4, 48, 0
5, 164832, Note_on_c, 4, 47, 45
5, 164864, Note_on_c, 4, 47, 0
5, 164880, Note_on_c, 4, 45, 45
5, 164912, Note_on_c, 4, 45, 0
5, 164928, Note_on_c, 4, 43, 45
5, 164960, Note_on_c, 4, 43, 0
5, 164976, Note_on_c, 4, 41, 45
5, 165008, Note_on_c, 4, 41, 0
5, 165024, Note_on_c, 4, 40, 45
5, 165056, Note_on_c, 4, 40, 0
5, 165072, Note_on_c, 4, 38, 45
5, 165104, Note_on_c, 4, 38, 0
5, 165120, Note_on_c, 4, 36, 45
5, 165152, Note_on_c, 4, 36, 0
5, 165168, Note_on_c, 4, 48, 45
5, 165200, Note_on_c, 4, 48, 0
5, 165216, Note_on_c, 4, 47, 45
5, 165248, Note_on_c, 4, 47, 0
5, 165264, Note_on_c, 4, 45, 45
5, 165296, Note_on_c, 4, 45, 0
5, 165312, Note_on_c, 4, 43, 45
5, 165344, Note_on_c, 4, 43, 0
5, 165360, Note_on_c, 4, 41, 45
5, 165392, Note_on_c, 4, 41, 0
5, 165408, Note_on_c, 4, 40, 45
5, 165440, Note_on_c, 4, 40, 0
5, 165456, Note_on_c, 4, 38, 45
5, 165488, Note_on_c, 4, 38, 0
5, 165504, Note_on_c, 4, 36, 45
5, 165536, Note_on_c, 4, 36, 0
5, 165552, Note_on_c, 4, 48, 45
5, 165584, Note_on_c, 4, 48, 0
5, 165600, Note_on_c, 4, 47, 45
5, 165632, Note_on_c, 4, 47, 0
5, 165648, Note_on_c, 4, 45, 45
5, 165680, Note_on_c, 4, 45, 0
5, 165696, Note_on_c, 4, 43, 45
5, 165728, Note_on_c, 4, 43, 0
5, 165744, Note_on_c, 4, 41, 45
5, 165776, Note_on_c, 4, 41, 0
5, 165792, Note_on_c, 4, 40, 45
5, 165824, Note_on_c, 4, 40, 0
5, 165840, Note_on_c, 4, 38, 45
5, 165872, Note_on_c, 4, 38, 0
5, 165888, Note_on_c, 4, 36, 45
5, 165982, Note_on_c, 4, 36, 0
5, 165984, Note_on_c, 4, 38, 45
5, 166016, Note_on_c, 4, 38, 0
5, 166032, Note_on_c, 4, 40, 45
5, 166064, Note_on_c, 4, 40, 0
5, 166080, Note_on_c, 4, 41, 45
5, 166112, Note_on_c, 4, 41, 0
5, 166128, Note_on_c, 4, 43, 45
5, 166160, Note_on_c, 4, 43, 0
5, 166176, Note_on_c, 4, 45, 45
5, 166208, Note_on_c, 4, 45, 0
5, 166224, Note_on_c, 4, 47, 45
5, 166256, Note_on_c, 4, 47, 0
5, 166272, Note_on_c, 4, 48, 63
5, 166558, Note_on_c, 4, 48, 0
5, 166560, Note_on_c, 4, 48, 45
5, 166592, Note_on_c, 4, 48, 0
5, 166608, Note_on_c, 4, 50, 45
5, 166640, Note_on_c, 4, 50, 0
5, 166656, Note_on_c, 4, 52, 45
5, 166704, Note_on_c, 4, 52, 0
5, 166704, Note_on_c, 4, 53, 45
5, 166752, Note_on_c, 4, 53, 0
5, 166752, Note_on_c, 4, 55, 45
5, 166800, Note_on_c, 4, 55, 0
5, 166800, Note_on_c, 4, 57, 45
5, 166846, Note_on_c, 4, 57, 0
5, 166848, Note_on_c, 4, 58, 63
5, 167134, Note_on_c, 4, 58, 0
5, 167136, Note_on_c, 4, 57, 45
5, 167168, Note_on_c, 4, 57, 0
5, 167232, Note_on_c, 4, 55, 45
5, 167264, Note_on_c, 4, 55, 0
5, 167328, Note_on_c, 4, 53, 45
5, 167360, Note_on_c, 4, 53, 0
5, 167424, Note_on_c, 4, 52, 45
5, 167456, Note_on_c, 4, 52, 0
5, 167520, Note_on_c, 4, 50, 45
5, 167552, Note_on_c, 4, 50, 0
5, 167616, Note_on_c, 4, 48, 45
5, 167648, Note_on_c, 4, 48, 0
5, 167712, Note_on_c, 4, 50, 55
5, 167744, Note_on_c, 4, 50, 0
5, 167808, Note_on_c, 4, 48, 65
5, 167840, Note_on_c, 4, 48, 0
5, 167904, Note_on_c, 4, 46, 75
5, 167936, Note_on_c, 4, 46, 0
5, 168000, Note_on_c, 4, 45, 86
5, 168032, Note_on_c, 4, 45, 0
5, 168096, Note_on_c, 4, 43, 97
5, 168128, Note_on_c, 4, 43, 0
5, 168192, Note_on_c, 4, 41, 108
5, 168480, Note_on_c, 4, 41, 0
5, 168480, Note_on_c, 4, 43, 108
5, 168528, Note_on_c, 4, 43, 0
5, 168528, Note_on_c, 4, 41, 108
5, 168574, Note_on_c, 4, 41, 0
5, 168576, Note_on_c, 4, 40, 108
5, 168608, Note_on_c, 4, 40, 0
5, 168672, Note_on_c, 4, 41, 108
5, 168704, Note_on_c, 4, 41, 0
5, 168768, Note_on_c, 4, 36, 108
5, 168928, Note_on_c, 4, 36, 0
5, 169344, Note_on_c, 4, 41, 108
5, 169632, Note_on_c, 4, 41, 0
5, 169632, Note_on_c, 4, 43, 108
5, 169680, Note_on_c, 4, 43, 0
5, 169680, Note_on_c, 4, 41, 108
5, 169726, Note_on_c, 4, 41, 0
5, 169728, Note_on_c, 4, 40, 108
5, 169760, Note_on_c, 4, 40, 0
5, 169824, Note_on_c, 4, 41, 108
5, 169856, Note_on_c, 4, 41, 0
5, 169920, Note_on_c, 4, 38, 108
5, 170080, Note_on_c, 4, 38, 0
5, 170496, Note_on_c, 4, 50, 45
5, 171072, Note_on_c, 4, 50, 0
5, 171072, Note_on_c, 4, 52, 92
5, 171600, Note_on_c, 4, 52, 0
5, 171648, Note_on_c, 4, 53, 45
5, 171840, Note_on_c, 4, 53, 0
5, 171840, Note_on_c, 4, 50, 45
5, 172032, Note_on_c, 4, 50, 0
5, 172032, Note_on_c, 4, 46, 45
5, 172192, Note_on_c, 4, 46, 0
5, 172224, Note_on_c, 4, 48, 45
5, 172752, Note_on_c, 4, 48, 0
5, 175104, Note_on_c, 4, 49, 45
5, 175296, Note_on_c, 4, 49, 0
5, 175296, Note_on_c, 4, 46, 45
5, 175488, Note_on_c, 4, 46, 0
5, 175488, Note_on_c, 4, 42, 45
5, 175648, Note_on_c, 4, 42, 0
5, 175680, Note_on_c, 4, 44, 45
5, 175728, Note_on_c, 4, 44, 0
5, 175872, Note_on_c, 4, 56, 45
5, 175920, Note_on_c, 4, 56, 0
5, 177600, Note_on_c, 4, 54, 45
5, 177792, Note_on_c, 4, 54, 0
5, 177792, Note_on_c, 4, 51, 45
5, 177952, Note_on_c, 4, 51, 0
5, 177984, Note_on_c, 4, 53, 45
5, 178560, Note_on_c, 4, 53, 0
5, 178560, Note_on_c, 4, 49, 68
5, 178720, Note_on_c, 4, 49, 0
5, 178752, Note_on_c, 4, 37, 76
5, 178912, Note_on_c, 4, 37, 0
5, 178944, Note_on_c, 4, 37, 84
5, 179104, Note_on_c, 4, 37, 0
5, 179136, Note_on_c, 4, 42, 45
5, 180240, Note_on_c, 4, 42, 0
5, 180288, Note_on_c, 4, 44, 45
5, 181392, Note_on_c, 4, 44, 0
5, 181440, Note_on_c, 4, 46, 45
5, 182544, Note_on_c, 4, 46, 0
5, 182592, Note_on_c, 4, 41, 45
5, 183360, Note_on_c, 4, 41, 0
5, 183360, Note_on_c, 4, 44, 45
5, 183552, Note_on_c, 4, 44, 0
5, 183552, Note_on_c, 4, 37, 45
5, 183712, Note_on_c, 4, 37, 0
5, 183744, Note_on_c, 4, 42, 45
5, 184320, Note_on_c, 4, 42, 0
5, 184320, Note_on_c, 4, 41, 68
5, 184848, Note_on_c, 4, 41, 0
5, 184896, Note_on_c, 4, 40, 92
5, 185232, Note_on_c, 4, 40, 0
5, 185280, Note_on_c, 4, 52, 92
5, 185328, Note_on_c, 4, 52, 0
5, 185472, Note_on_c, 4, 53, 92
5, 185520, Note_on_c, 4, 53, 0
5, 185664, Note_on_c, 4, 51, 92
5, 185712, Note_on_c, 4, 51, 0
5, 185856, Note_on_c, 4, 49, 92
5, 185904, Note_on_c, 4, 49, 0
5, 186048, Note_on_c, 4, 48, 92
5, 186208, Note_on_c, 4, 48, 0
5, 186672, Note_on_c, 4, 48, 45
5, 186704, Note_on_c, 4, 48, 0
5, 186720, Note_on_c, 4, 50, 45
5, 186752, Note_on_c, 4, 50, 0
5, 186768, Note_on_c, 4, 52, 45
5, 186800, Note_on_c, 4, 52, 0
5, 186816, Note_on_c, 4, 53, 45
5, 186848, Note_on_c, 4, 53, 0
5, 186864, Note_on_c, 4, 55, 45
5, 186896, Note_on_c, 4, 55, 0
5, 186912, Note_on_c, 4, 57, 45
5, 186944, Note_on_c, 4, 57, 0
5, 186960, Note_on_c, 4, 59, 45
5, 186992, Note_on_c, 4, 59, 0
5, 187056, Note_on_c, 4, 59, 45
5, 187088, Note_on_c, 4, 59, 0
5, 187152, Note_on_c, 4, 59, 45
5, 187184, Note_on_c, 4, 59, 0
5, 187824, Note_on_c, 4, 48, 45
5, 187870, Note_on_c, 4, 48, 0
5, 187872, Note_on_c, 4, 50, 45
5, 187918, Note_on_c, 4, 50, 0
5, 187920, Note_on_c, 4, 52, 45
5, 187966, Note_on_c, 4, 52, 0
5, 187968, Note_on_c, 4, 53, 45
5, 188014, Note_on_c, 4, 53, 0
5, 188016, Note_on_c, 4, 55, 45
5, 188062, Note_on_c, 4, 55, 0
5, 188064, Note_on_c, 4, 57, 45
5, 188110, Note_on_c, 4, 57, 0
5, 188112, Note_on_c, 4, 59, 45
5, 188158, Note_on_c, 4, 59, 0
5, 188208, Note_on_c, 4, 59, 45
5, 188254, Note_on_c, 4, 59, 0
5, 188304, Note_on_c, 4, 59, 45
5, 188350, Note_on_c, 4, 59, 0
5, 188640, Note_on_c, 4, 60, 76
5, 188672, Note_on_c, 4, 60, 0
5, 188736, Note_on_c, 4, 60, 86
5, 188768, Note_on_c, 4, 60, 0
5, 188832, Note_on_c, 4, 53, 97
5, 188864, Note_on_c, 4, 53, 0
5, 188928, Note_on_c, 4, 60, 108
5, 188974, Note_on_c, 4, 60, 0
5, 188976, Note_on_c, 4, 36, 108
5, 189022, Note_on_c, 4, 36, 0
5, 189024, Note_on_c, 4, 38, 108
5, 189070, Note_on_c, 4, 38, 0
5, 189072, Note_on_c, 4, 40, 108
5, 189118, Note_on_c, 4, 40, 0
5, 189120, Note_on_c, 4, 41, 108
5, 189166, Note_on_c, 4, 41, 0
5, 189168, Note_on_c, 4, 43, 108
5, 189214, Note_on_c, 4, 43, 0
5, 189216, Note_on_c, 4, 45, 108
5, 189262, Note_on_c, 4, 45, 0
5, 189264, Note_on_c, 4, 47, 108
5, 189310, Note_on_c, 4, 47, 0
5, 189312, Note_on_c, 4, 48, 108
5, 189358, Note_on_c, 4, 48, 0
5, 189360, Note_on_c, 4, 47, 108
5, 189406, Note_on_c, 4, 47, 0
5, 189408, Note_on_c, 4, 48, 108
5, 189454, Note_on_c, 4, 48, 0
5, 189456, Note_on_c, 4, 47, 108
5, 189502, Note_on_c, 4, 47, 0
5, 189504, Note_on_c, 4, 48, 108
5, 189664, Note_on_c, 4, 48, 0
5, 194976, Note_on_c, 4, 59, 45
5, 195072, Note_on_c, 4, 59, 0
5, 195072, Note_on_c, 4, 60, 45
5, 195168, Note_on_c, 4, 60, 0
5, 195168, Note_on_c, 4, 61, 45
5, 195264, Note_on_c, 4, 61, 0
5, 195264, Note_on_c, 4, 62, 45
5, 195296, Note_on_c, 4, 62, 0
5, 195360, Note_on_c, 4, 62, 45
5, 195456, Note_on_c, 4, 62, 0
5, 195456, Note_on_c, 4, 58, 45
5, 195550, Note_on_c, 4, 58, 0
5, 195552, Note_on_c, 4, 58, 45
5, 195648, Note_on_c, 4, 58, 0
5, 195648, Note_on_c, 4, 55, 45
5, 195742, Note_on_c, 4, 55, 0
5, 195744, Note_on_c, 4, 55, 45
5, 195840, Note_on_c, 4, 55, 0
5, 195840, Note_on_c, 4, 52, 45
5, 195934, Note_on_c, 4, 52, 0
5, 195936, Note_on_c, 4, 52, 45
5, 196032, Note_on_c, 4, 52, 0
5, 196032, Note_on_c, 4, 48, 45
5, 196126, Note_on_c, 4, 48, 0
5, 196128, Note_on_c, 4, 48, 45
5, 196224, Note_on_c, 4, 48, 0
5, 196224, Note_on_c, 4, 52, 45
5, 196318, Note_on_c, 4, 52, 0
5, 196320, Note_on_c, 4, 52, 45
5, 196416, Note_on_c, 4, 52, 0
5, 196416, Note_on_c, 4, 53, 45
5, 196510, Note_on_c, 4, 53, 0
5, 196512, Note_on_c, 4, 53, 45
5, 196608, Note_on_c, 4, 53, 0
5, 196608, Note_on_c, 4, 55, 45
5, 196702, Note_on_c, 4, 55, 0
5, 196704, Note_on_c, 4, 55, 45
5, 196800, Note_on_c, 4, 55, 0
5, 196800, Note_on_c, 4, 57, 45
5, 196894, Note_on_c, 4, 57, 0
5, 196896, Note_on_c, 4, 57, 45
5, 196990, Note_on_c, 4, 57, 0
5, 196992, Note_on_c, 4, 58, 45
5, 197248, Note_on_c, 4, 58, 0
5, 199296, Note_on_c, 4, 60, 63
5, 199584, Note_on_c, 4, 60, 0
5, 199584, Note_on_c, 4, 62, 45
5, 199632, Note_on_c, 4, 62, 0
5, 199632, Note_on_c, 4, 60, 45
5, 199678, Note_on_c, 4, 60, 0
5, 199680, Note_on_c, 4, 59, 45
5, 199712, Note_on_c, 4, 59, 0
5, 199776, Note_on_c, 4, 60, 45
5, 199808, Note_on_c, 4, 60, 0
5, 199872, Note_on_c, 4, 60, 45
5, 200400, Note_on_c, 4, 60, 0
5, 200448, Note_on_c, 4, 60, 45
5, 200736, Note_on_c, 4, 60, 0
5, 200736, Note_on_c, 4, 62, 45
5, 200784, Note_on_c, 4, 62, 0
5, 200784, Note_on_c, 4, 60, 45
5, 200830, Note_on_c, 4, 60, 0
5, 200832, Note_on_c, 4, 59, 45
5, 200864, Note_on_c, 4, 59, 0
5, 200928, Note_on_c, 4, 60, 45
5, 200960, Note_on_c, 4, 60, 0
5, 201024, Note_on_c, 4, 60, 45
5, 201552, Note_on_c, 4, 60, 0
5, 201600, Note_on_c, 4, 60, 45
5, 201888, Note_on_c, 4, 60, 0
5, 201888, Note_on_c, 4, 62, 68
5, 201936, Note_on_c, 4, 62, 0
5, 201936, Note_on_c, 4, 60, 72
5, 201982, Note_on_c, 4, 60, 0
5, 201984, Note_on_c, 4, 59, 76
5, 202016, Note_on_c, 4, 59, 0
5, 202080, Note_on_c, 4, 60, 84
5, 202112, Note_on_c, 4, 60, 0
5, 202176, Note_on_c, 4, 63, 92
5, 202512, Note_on_c, 4, 63, 0
5, 202560, Note_on_c, 4, 60, 92
5, 202720, Note_on_c, 4, 60, 0
5, 202752, Note_on_c, 4, 62, 92
5, 202912, Note_on_c, 4, 62, 0
5, 202944, Note_on_c, 4, 46, 45
5, 203104, Note_on_c, 4, 46, 0
5, 205728, Note_on_c, 4, 48, 92
5, 205822, Note_on_c, 4, 48, 0
5, 205824, Note_on_c, 4, 48, 92
5, 205918, Note_on_c, 4, 48, 0
5, 205920, Note_on_c, 4, 48, 92
5, 206014, Note_on_c, 4, 48, 0
5, 206016, Note_on_c, 4, 48, 92
5, 206110, Note_on_c, 4, 48, 0
5, 206112, Note_on_c, 4, 48, 92
5, 206206, Note_on_c, 4, 48, 0
5, 206208, Note_on_c, 4, 53, 92
5, 206256, Note_on_c, 4, 53, 0
5, 209088, Note_on_c, 4, 53, 30
5, 209616, Note_on_c, 4, 53, 0
5, 209664, Note_on_c, 4, 47, 92
5, 210432, Note_on_c, 4, 47, 0
5, 210432, Note_on_c, 4, 48, 45
5, 210592, Note_on_c, 4, 48, 0
5, 210624, Note_on_c, 4, 36, 45
5, 210672, Note_on_c, 4, 36, 0
5, 210816, Note_on_c, 4, 41, 45
5, 210864, Note_on_c, 4, 41, 0
5, 213696, Note_on_c, 4, 53, 63
5, 214224, Note_on_c, 4, 53, 0
5, 214272, Note_on_c, 4, 49, 63
5, 214800, Note_on_c, 4, 49, 0
5, 214848, Note_on_c, 4, 47, 63
5, 215184, Note_on_c, 4, 47, 0
5, 215232, Note_on_c, 4, 46, 63
5, 215392, Note_on_c, 4, 46, 0
5, 215424, Note_on_c, 4, 45, 108
5, 215472, Note_on_c, 4, 45, 0
5, 215616, Note_on_c, 4, 43, 108
5, 215664, Note_on_c, 4, 43, 0
5, 215808, Note_on_c, 4, 48, 108
5, 215856, Note_on_c, 4, 48, 0
5, 216000, Note_on_c, 4, 53, 63
5, 216288, Note_on_c, 4, 53, 0
5, 216288, Note_on_c, 4, 55, 45
5, 216336, Note_on_c, 4, 55, 0
5, 216336, Note_on_c, 4, 53, 45
5, 216382, Note_on_c, 4, 53, 0
5, 216384, Note_on_c, 4, 52, 45
5, 216416, Note_on_c, 4, 52, 0
5, 216480, Note_on_c, 4, 53, 45
5, 216512, Note_on_c, 4, 53, 0
5, 216576, Note_on_c, 4, 41, 45
5, 216736, Note_on_c, 4, 41, 0
5, 217152, Note_on_c, 4, 53, 63
5, 217440, Note_on_c, 4, 53, 0
5, 217440, Note_on_c, 4, 55, 45
5, 217488, Note_on_c, 4, 55, 0
5, 217488, Note_on_c, 4, 53, 45
5, 217534, Note_on_c, 4, 53, 0
5, 217536, Note_on_c, 4, 52, 45
5, 217568, Note_on_c, 4, 52, 0
5, 217632, Note_on_c, 4, 53, 45
5, 217664, Note_on_c, 4, 53, 0
5, 217728, Note_on_c, 4, 41, 45
5, 217888, Note_on_c, 4, 41, 0
5, 218304, Note_on_c, 4, 55, 45
5, 218352, Note_on_c, 4, 55, 0
5, 218352, Note_on_c, 4, 53, 45
5, 218400, Note_on_c, 4, 53, 0
5, 218400, Note_on_c, 4, 52, 45
5, 218448, Note_on_c, 4, 52, 0
5, 218448, Note_on_c, 4, 53, 45
5, 218494, Note_on_c, 4, 53, 0
5, 218496, Note_on_c, 4, 55, 45
5, 218544, Note_on_c, 4, 55, 0
5, 218544, Note_on_c, 4, 53, 45
5, 218592, Note_on_c, 4, 53, 0
5, 218592, Note_on_c, 4, 52, 45
5, 218640, Note_on_c, 4, 52, 0
5, 218640, Note_on_c, 4, 53, 45
5, 218686, Note_on_c, 4, 53, 0
5, 218688, Note_on_c, 4, 55, 45
5, 218736, Note_on_c, 4, 55, 0
5, 218736, Note_on_c, 4, 53, 45
5, 218784, Note_on_c, 4, 53, 0
5, 218784, Note_on_c, 4, 52, 45
5, 218832, Note_on_c, 4, 52, 0
5, 218832, Note_on_c, 4, 53, 45
5, 218878, Note_on_c, 4, 53, 0
5, 218880, Note_on_c, 4, 41, 45
5, 219040, Note_on_c, 4, 41, 0
5, 219456, Note_on_c, 4, 55, 45
5, 219504, Note_on_c, 4, 55, 0
5, 219504, Note_on_c, 4, 53, 45
5, 219552, Note_on_c, 4, 53, 0
5, 219552, Note_on_c, 4, 52, 45
5, 219600, Note_on_c, 4, 52, 0
5, 219600, Note_on_c, 4, 53, 45
5, 219646, Note_on_c, 4, 53, 0
5, 219648, Note_on_c, 4, 55, 45
5, 219696, Note_on_c, 4, 55, 0
5, 219696, Note_on_c, 4, 53, 45
5, 219744, Note_on_c, 4, 53, 0
5, 219744, Note_on_c, 4, 52, 45
5, 219792, Note_on_c, 4, 52, 0
5, 219792, Note_on_c, 4, 53, 45
5, 219838, Note_on_c, 4, 53, 0
5, 219840, Note_on_c, 4, 55, 45
5, 219888, Note_on_c, 4, 55, 0
5, 219888, Note_on_c, 4, 53, 45
5, 219936, Note_on_c, 4, 53, 0
5, 219936, Note_on_c, 4, 52, 45
5, 219984, Note_on_c, 4, 52, 0
5, 219984, Note_on_c, 4, 53, 45
5, 220030, Note_on_c, 4, 53, 0
5, 220032, Note_on_c, 4, 41, 45
5, 220192, Note_on_c, 4, 41, 0
5, 220608, Note_on_c, 4, 41, 45
5, 220656, Note_on_c, 4, 41, 0
5, 220800, Note_on_c, 4, 53, 45
5, 220848, Note_on_c, 4, 53, 0
5, 221808, Note_on_c, 4, 53, 45
5, 221854, Note_on_c, 4, 53, 0
5, 221856, Note_on_c, 4, 52, 47
5, 221902, Note_on_c, 4, 52, 0
5, 221904, Note_on_c, 4, 50, 49
5, 221950, Note_on_c, 4, 50, 0
5, 221952, Note_on_c, 4, 48, 51
5, 221998, Note_on_c, 4, 48, 0
5, 222000, Note_on_c, 4, 46, 53
5, 222046, Note_on_c, 4, 46, 0
5, 222048, Note_on_c, 4, 45, 55
5, 222094, Note_on_c, 4, 45, 0
5, 222096, Note_on_c, 4, 43, 57
5, 222142, Note_on_c, 4, 43, 0
5, 222144, Note_on_c, 4, 41, 60
5, 222190, Note_on_c, 4, 41, 0
5, 222192, Note_on_c, 4, 53, 63
5, 222238, Note_on_c, 4, 53, 0
5, 222240, Note_on_c, 4, 52, 66
5, 222286, Note_on_c, 4, 52, 0
5, 222288, Note_on_c, 4, 50, 69
5, 222334, Note_on_c, 4, 50, 0
5, 222336, Note_on_c, 4, 48, 72
5, 222382, Note_on_c, 4, 48, 0
5, 222384, Note_on_c, 4, 46, 75
5, 222430, Note_on_c, 4, 46, 0
5, 222432, Note_on_c, 4, 45, 78
5, 222478, Note_on_c, 4, 45, 0
5, 222480, Note_on_c, 4, 43, 81
5, 222526, Note_on_c, 4, 43, 0
5, 222528, Note_on_c, 4, 41, 84
5, 222576, Note_on_c, 4, 41, 0
5, 222576, Note_on_c, 4, 40, 87
5, 222624, Note_on_c, 4, 40, 0
5, 222624, Note_on_c, 4, 41, 90
5, 222672, Note_on_c, 4, 41, 0
5, 222672, Note_on_c, 4, 40, 93
5, 222720, Note_on_c, 4, 40, 0
5, 222720, Note_on_c, 4, 41, 96
5, 222768, Note_on_c, 4, 41, 0
5, 222768, Note_on_c, 4, 40, 99
5, 222816, Note_on_c, 4, 40, 0
5, 222816, Note_on_c, 4, 41, 102
5, 222864, Note_on_c, 4, 41, 0
5, 222864, Note_on_c, 4, 40, 105
5, 222910, Note_on_c, 4, 40, 0
5, 222912, Note_on_c, 4, 41, 108
5, 222960, Note_on_c, 4, 41, 0
5, 223104, Note_on_c, 4, 43, 108
5, 223152, Note_on_c, 4, 43, 0
5, 223296, Note_on_c, 4, 45, 108
5, 223344, Note_on_c, 4, 45, 0
5, 223488, Note_on_c, 4, 46, 108
5, 223536, Note_on_c, 4, 46, 0
5, 223680, Note_on_c, 4, 48, 108
5, 223728, Note_on_c, 4, 48, 0
5, 223872, Note_on_c, 4, 50, 108
5, 223920, Note_on_c, 4, 50, 0
5, 224064, Note_on_c, 4, 51, 127
5, 225744, Note_on_c, 4, 51, 0
5, 225792, Note_on_c, 4, 38, 108
5, 225840, Note_on_c, 4, 38, 0
5, 225984, Note_on_c, 4, 40, 108
5, 226032, Note_on_c, 4, 40, 0
5, 226176, Note_on_c, 4, 42, 108
5, 226224, Note_on_c, 4, 42, 0
5, 226368, Note_on_c, 4, 43, 108
5, 226416, Note_on_c, 4, 43, 0
5, 226560, Note_on_c, 4, 45, 108
5, 226608, Note_on_c, 4, 45, 0
5, 226752, Note_on_c, 4, 46, 108
5, 226800, Note_on_c, 4, 46, 0
5, 226944, Note_on_c, 4, 48, 127
5, 228624, Note_on_c, 4, 48, 0
5, 230400, Note_on_c, 4, 47, 30
5, 230592, Note_on_c, 4, 47, 0
5, 230592, Note_on_c, 4, 50, 30
5, 230784, Note_on_c, 4, 50, 0
5, 230784, Note_on_c, 4, 43, 30
5, 230944, Note_on_c, 4, 43, 0
5, 230976, Note_on_c, 4, 48, 45
5, 231136, Note_on_c, 4, 48, 0
5, 232704, Note_on_c, 4, 36, 30
5, 232896, Note_on_c, 4, 36, 0
5, 232896, Note_on_c, 4, 40, 30
5, 233088, Note_on_c, 4, 40, 0
5, 233088, Note_on_c, 4, 43, 30
5, 233248, Note_on_c, 4, 43, 0
5, 233280, Note_on_c, 4, 48, 30
5, 233440, Note_on_c, 4, 48, 0
5, 233856, Note_on_c, 4, 36, 30
5, 234048, Note_on_c, 4, 36, 0
5, 234048, Note_on_c, 4, 41, 30
5, 234240, Note_on_c, 4, 41, 0
5, 234240, Note_on_c, 4, 45, 30
5, 234400, Note_on_c, 4, 45, 0
5, 234432, Note_on_c, 4, 48, 30
5, 234592, Note_on_c, 4, 48, 0
5, 235008, Note_on_c, 4, 36, 30
5, 235200, Note_on_c, 4, 36, 0
5, 235200, Note_on_c, 4, 48, 32
5, 235392, Note_on_c, 4, 48, 0
5, 235392, Note_on_c, 4, 49, 35
5, 235552, Note_on_c, 4, 49, 0
5, 235584, Note_on_c, 4, 50, 38
5, 236112, Note_on_c, 4, 50, 0
5, 236160, Note_on_c, 4, 52, 65
5, 236688, Note_on_c, 4, 52, 0
5, 236736, Note_on_c, 4, 54, 56
5, 237264, Note_on_c, 4, 54, 0
5, 237312, Note_on_c, 4, 55, 91
5, 237840, Note_on_c, 4, 55, 0
5, 237888, Note_on_c, 4, 57, 74
5, 238416, Note_on_c, 4, 57, 0
5, 238464, Note_on_c, 4, 59, 116
5, 238992, Note_on_c, 4, 59, 0
5, 239040, Note_on_c, 4, 60, 30
5, 239568, Note_on_c, 4, 60, 0
5, 239616, Note_on_c, 4, 48, 30
5, 240000, Note_on_c, 4, 48, 0
5, 240000, Note_on_c, 4, 36, 30
5, 240160, Note_on_c, 4, 36, 0
5, 240192, Note_on_c, 4, 41, 30
5, 240480, Note_on_c, 4, 41, 0
5, 240480, Note_on_c, 4, 43, 30
5, 240528, Note_on_c, 4, 43, 0
5, 240528, Note_on_c, 4, 41, 30
5, 240574, Note_on_c, 4, 41, 0
5, 240576, Note_on_c, 4, 40, 30
5, 240608, Note_on_c, 4, 40, 0
5, 240672, Note_on_c, 4, 41, 30
5, 240704, Note_on_c, 4, 41, 0
5, 240768, Note_on_c, 4, 41, 30
5, 241296, Note_on_c, 4, 41, 0
5, 241344, Note_on_c, 4, 41, 30
5, 241632, Note_on_c, 4, 41, 0
5, 241632, Note_on_c, 4, 43, 30
5, 241680, Note_on_c, 4, 43, 0
5, 241680, Note_on_c, 4, 41, 30
5, 241726, Note_on_c, 4, 41, 0
5, 241728, Note_on_c, 4, 40, 30
5, 241760, Note_on_c, 4, 40, 0
5, 241824, Note_on_c, 4, 41, 30
5, 241856, Note_on_c, 4, 41, 0
5, 241920, Note_on_c, 4, 41, 30
5, 242656, Note_on_c, 4, 41, 0
5, 243840, Note_on_c, 4, 41, 30
5, 244000, Note_on_c, 4, 41, 0
5, 244032, Note_on_c, 4, 41, 30
5, 244192, Note_on_c, 4, 41, 0
5, 244224, Note_on_c, 4, 41, 30
5, 244272, Note_on_c, 4, 41, 0
5, 244272, Note_on_c, 4, 40, 35
5, 244320, Note_on_c, 4, 40, 0
5, 244320, Note_on_c, 4, 38, 40
5, 244368, Note_on_c, 4, 38, 0
5, 244368, Note_on_c, 4, 40, 45
5, 244416, Note_on_c, 4, 40, 0
5, 244416, Note_on_c, 4, 41, 50
5, 244464, Note_on_c, 4, 41, 0
5, 244464, Note_on_c, 4, 40, 55
5, 244512, Note_on_c, 4, 40, 0
5, 244512, Note_on_c, 4, 38, 60
5, 244560, Note_on_c, 4, 38, 0
5, 244560, Note_on_c, 4, 40, 65
5, 244608, Note_on_c, 4, 40, 0
5, 244608, Note_on_c, 4, 41, 70
5, 244656, Note_on_c, 4, 41, 0
5, 244656, Note_on_c, 4, 40, 75
5, 244704, Note_on_c, 4, 40, 0
5, 244704, Note_on_c, 4, 38, 80
5, 244752, Note_on_c, 4, 38, 0
5, 244752, Note_on_c, 4, 40, 86
5, 244798, Note_on_c, 4, 40, 0
5, 244800, Note_on_c, 4, 41, 92
5, 244960, Note_on_c, 4, 41, 0
5, 245184, Note_on_c, 4, 52, 127
5, 245216, Note_on_c, 4, 52, 0
5, 245280, Note_on_c, 4, 53, 92
5, 245312, Note_on_c, 4, 53, 0
5, 245376, Note_on_c, 4, 48, 92
5, 245536, Note_on_c, 4, 48, 0
5, 245760, Note_on_c, 4, 44, 127
5, 245792, Note_on_c, 4, 44, 0
5, 245856, Note_on_c, 4, 45, 92
5, 245888, Note_on_c, 4, 45, 0
5, 245952, Note_on_c, 4, 41, 92
5, 246112, Note_on_c, 4, 41, 0
5, 246336, Note_on_c, 4, 36, 127
5, 246368, Note_on_c, 4, 36, 0
5, 246432, Note_on_c, 4, 40, 92
5, 246464, Note_on_c, 4, 40, 0
5, 246528, Note_on_c, 4, 41, 92
5, 246576, Note_on_c, 4, 41, 0
5, 246720, Note_on_c, 4, 41, 92
5, 246768, Note_on_c, 4, 41, 0
5, 246768, End_track
6, 0, Start_track
6, 0, End_track
0, 0, End_of_file