0, 0, Header, 1, 5, 192
1, 0, Start_track
1, 0, Title_t, "String Quartet No.16 - II"
1, 0, Text_t, "By Ludwig van Beethoven"
1, 0, Copyright_t, "Copyright \251 2001 by S.E.Edwards"
1, 0, Copyright_t, "All Rights Reserved"
1, 0, Text_t, "Generated by NoteWorthy Composer"
1, 0, Tempo, 230769
1, 0, Key_signature, -1, "major"
1, 0, Time_signature, 3, 2, 24, 8
1, 84288, Key_signature, 1, "major"
1, 99264, Key_signature, 3, "major"
1, 139008, Key_signature, -1, "major"
1, 139008, End_track
2, 0, Start_track
2, 0, MIDI_port, 0
2, 0, Title_t, "Violino I."
2, 0, Program_c, 1, 0
2, 0, Control_c, 1, 7, 127
2, 0, Control_c, 1, 10, 64
2, 384, Note_on_c, 1, 69, 45
2, 928, Note_on_c, 1, 69, 0
2, 960, Note_on_c, 1, 67, 45
2, 1504, Note_on_c, 1, 67, 0
2, 1536, Note_on_c, 1, 65, 45
2, 2080, Note_on_c, 1, 65, 0
2, 2112, Note_on_c, 1, 67, 45
2, 2656, Note_on_c, 1, 67, 0
2, 2688, Note_on_c, 1, 69, 45
2, 3232, Note_on_c, 1, 69, 0
2, 3264, Note_on_c, 1, 67, 45
2, 3696, Note_on_c, 1, 67, 0
2, 3840, Note_on_c, 1, 65, 45
2, 3888, Note_on_c, 1, 65, 0
2, 4032, Note_on_c, 1, 67, 45
2, 4080, Note_on_c, 1, 67, 0
2, 4224, Note_on_c, 1, 65, 45
2, 4272, Note_on_c, 1, 65, 0
2, 4608, Note_on_c, 1, 84, 30
2, 5136, Note_on_c, 1, 84, 0
2, 5184, Note_on_c, 1, 84, 30
2, 5712, Note_on_c, 1, 84, 0
2, 5760, Note_on_c, 1, 84, 30
2, 6288, Note_on_c, 1, 84, 0
2, 6336, Note_on_c, 1, 84, 30
2, 6864, Note_on_c, 1, 84, 0
2, 6912, Note_on_c, 1, 84, 30
2, 7440, Note_on_c, 1, 84, 0
2, 7488, Note_on_c, 1, 84, 30
2, 8016, Note_on_c, 1, 84, 0
2, 8064, Note_on_c, 1, 84, 30
2, 8304, Note_on_c, 1, 84, 0
2, 8448, Note_on_c, 1, 86, 30
2, 8496, Note_on_c, 1, 86, 0
2, 8640, Note_on_c, 1, 88, 30
2, 8688, Note_on_c, 1, 88, 0
2, 8832, Note_on_c, 1, 89, 30
2, 8880, Note_on_c, 1, 89, 0
2, 9024, Note_on_c, 1, 63, 127
2, 9360, Note_on_c, 1, 63, 0
2, 10752, Note_on_c, 1, 63, 68
2, 11088, Note_on_c, 1, 63, 0
2, 11136, Note_on_c, 1, 63, 61
2, 11472, Note_on_c, 1, 63, 0
2, 11520, Note_on_c, 1, 63, 53
2, 11680, Note_on_c, 1, 63, 0
2, 11904, Note_on_c, 1, 63, 45
2, 12240, Note_on_c, 1, 63, 0
2, 12480, Note_on_c, 1, 63, 45
2, 12816, Note_on_c, 1, 63, 0
2, 13056, Note_on_c, 1, 64, 30
2, 13392, Note_on_c, 1, 64, 0
2, 13632, Note_on_c, 1, 64, 30
2, 13968, Note_on_c, 1, 64, 0
2, 14208, Note_on_c, 1, 69, 36
2, 14752, Note_on_c, 1, 69, 0
2, 14784, Note_on_c, 1, 67, 42
2, 15328, Note_on_c, 1, 67, 0
2, 15360, Note_on_c, 1, 65, 49
2, 15904, Note_on_c, 1, 65, 0
2, 15936, Note_on_c, 1, 67, 56
2, 16480, Note_on_c, 1, 67, 0
2, 16512, Note_on_c, 1, 69, 63
2, 17056, Note_on_c, 1, 69, 0
2, 17088, Note_on_c, 1, 67, 70
2, 17520, Note_on_c, 1, 67, 0
2, 17664, Note_on_c, 1, 65, 77
2, 17712, Note_on_c, 1, 65, 0
2, 17856, Note_on_c, 1, 67, 80
2, 17904, Note_on_c, 1, 67, 0
2, 18048, Note_on_c, 1, 65, 83
2, 18208, Note_on_c, 1, 65, 0
2, 18624, Note_on_c, 1, 77, 92
2, 18672, Note_on_c, 1, 77, 0
2, 19008, Note_on_c, 1, 81, 92
2, 19056, Note_on_c, 1, 81, 0
2, 19200, Note_on_c, 1, 82, 92
2, 19248, Note_on_c, 1, 82, 0
2, 19584, Note_on_c, 1, 84, 92
2, 19744, Note_on_c, 1, 84, 0
2, 19776, Note_on_c, 1, 86, 92
2, 19936, Note_on_c, 1, 86, 0
2, 20160, Note_on_c, 1, 84, 92
2, 20320, Note_on_c, 1, 84, 0
2, 20352, Note_on_c, 1, 82, 92
2, 20512, Note_on_c, 1, 82, 0
2, 20736, Note_on_c, 1, 79, 92
2, 20896, Note_on_c, 1, 79, 0
2, 20928, Note_on_c, 1, 77, 92
2, 21088, Note_on_c, 1, 77, 0
2, 21312, Note_on_c, 1, 81, 92
2, 21472, Note_on_c, 1, 81, 0
2, 21504, Note_on_c, 1, 82, 82
2, 21664, Note_on_c, 1, 82, 0
2, 21888, Note_on_c, 1, 84, 62
2, 22048, Note_on_c, 1, 84, 0
2, 22080, Note_on_c, 1, 86, 52
2, 22240, Note_on_c, 1, 86, 0
2, 22464, Note_on_c, 1, 84, 30
2, 22624, Note_on_c, 1, 84, 0
2, 22656, Note_on_c, 1, 84, 30
2, 22704, Note_on_c, 1, 84, 0
2, 22848, Note_on_c, 1, 84, 30
2, 22896, Note_on_c, 1, 84, 0
2, 23040, Note_on_c, 1, 87, 30
2, 23088, Note_on_c, 1, 87, 0
2, 23232, Note_on_c, 1, 86, 30
2, 23280, Note_on_c, 1, 86, 0
2, 24000, Note_on_c, 1, 88, 30
2, 24048, Note_on_c, 1, 88, 0
2, 24192, Note_on_c, 1, 89, 30
2, 24240, Note_on_c, 1, 89, 0
2, 24384, Note_on_c, 1, 84, 30
2, 24432, Note_on_c, 1, 84, 0
2, 25152, Note_on_c, 1, 86, 30
2, 25312, Note_on_c, 1, 86, 0
2, 25344, Note_on_c, 1, 84, 30
2, 25504, Note_on_c, 1, 84, 0
2, 25536, Note_on_c, 1, 84, 30
2, 25584, Note_on_c, 1, 84, 0
2, 25728, Note_on_c, 1, 82, 30
2, 25776, Note_on_c, 1, 82, 0
2, 25920, Note_on_c, 1, 81, 30
2, 25968, Note_on_c, 1, 81, 0
2, 26112, Note_on_c, 1, 81, 30
2, 26304, Note_on_c, 1, 81, 0
2, 26304, Note_on_c, 1, 82, 30
2, 26464, Note_on_c, 1, 82, 0
2, 26496, Note_on_c, 1, 79, 30
2, 26544, Note_on_c, 1, 79, 0
2, 26688, Note_on_c, 1, 81, 30
2, 26736, Note_on_c, 1, 81, 0
2, 26880, Note_on_c, 1, 77, 30
2, 26928, Note_on_c, 1, 77, 0
2, 27072, Note_on_c, 1, 79, 30
2, 27120, Note_on_c, 1, 79, 0
2, 27264, Note_on_c, 1, 77, 30
2, 27424, Note_on_c, 1, 77, 0
2, 28032, Note_on_c, 1, 77, 30
2, 28192, Note_on_c, 1, 77, 0
2, 28224, Note_on_c, 1, 79, 30
2, 28384, Note_on_c, 1, 79, 0
2, 28416, Note_on_c, 1, 77, 30
2, 28576, Note_on_c, 1, 77, 0
2, 29184, Note_on_c, 1, 77, 30
2, 29344, Note_on_c, 1, 77, 0
2, 29376, Note_on_c, 1, 79, 30
2, 29536, Note_on_c, 1, 79, 0
2, 29568, Note_on_c, 1, 77, 30
2, 29728, Note_on_c, 1, 77, 0
2, 29760, Note_on_c, 1, 78, 30
2, 29920, Note_on_c, 1, 78, 0
2, 29952, Note_on_c, 1, 79, 30
2, 30112, Note_on_c, 1, 79, 0
2, 30144, Note_on_c, 1, 79, 30
2, 30304, Note_on_c, 1, 79, 0
2, 30336, Note_on_c, 1, 79, 30
2, 30496, Note_on_c, 1, 79, 0
2, 30528, Note_on_c, 1, 84, 30
2, 30688, Note_on_c, 1, 84, 0
2, 30720, Note_on_c, 1, 84, 30
2, 30880, Note_on_c, 1, 84, 0
2, 30912, Note_on_c, 1, 84, 30
2, 31072, Note_on_c, 1, 84, 0
2, 31104, Note_on_c, 1, 84, 30
2, 31264, Note_on_c, 1, 84, 0
2, 31296, Note_on_c, 1, 84, 30
2, 31344, Note_on_c, 1, 84, 0
2, 31488, Note_on_c, 1, 82, 30
2, 31536, Note_on_c, 1, 82, 0
2, 31680, Note_on_c, 1, 81, 30
2, 31728, Note_on_c, 1, 81, 0
2, 31872, Note_on_c, 1, 81, 30
2, 32064, Note_on_c, 1, 81, 0
2, 32064, Note_on_c, 1, 82, 35
2, 32224, Note_on_c, 1, 82, 0
2, 32256, Note_on_c, 1, 79, 40
2, 32304, Note_on_c, 1, 79, 0
2, 32448, Note_on_c, 1, 79, 45
2, 32640, Note_on_c, 1, 79, 0
2, 32640, Note_on_c, 1, 81, 50
2, 32800, Note_on_c, 1, 81, 0
2, 32832, Note_on_c, 1, 77, 55
2, 32880, Note_on_c, 1, 77, 0
2, 33024, Note_on_c, 1, 76, 60
2, 33216, Note_on_c, 1, 76, 0
2, 33216, Note_on_c, 1, 77, 65
2, 33376, Note_on_c, 1, 77, 0
2, 33408, Note_on_c, 1, 79, 70
2, 33456, Note_on_c, 1, 79, 0
2, 33600, Note_on_c, 1, 76, 75
2, 33792, Note_on_c, 1, 76, 0
2, 33792, Note_on_c, 1, 77, 72
2, 33952, Note_on_c, 1, 77, 0
2, 33984, Note_on_c, 1, 79, 69
2, 34032, Note_on_c, 1, 79, 0
2, 34176, Note_on_c, 1, 72, 66
2, 34336, Note_on_c, 1, 72, 0
2, 34368, Note_on_c, 1, 72, 63
2, 34528, Note_on_c, 1, 72, 0
2, 34560, Note_on_c, 1, 72, 60
2, 34720, Note_on_c, 1, 72, 0
2, 34752, Note_on_c, 1, 76, 57
2, 34944, Note_on_c, 1, 76, 0
2, 34944, Note_on_c, 1, 77, 53
2, 35104, Note_on_c, 1, 77, 0
2, 35136, Note_on_c, 1, 79, 49
2, 35184, Note_on_c, 1, 79, 0
2, 35328, Note_on_c, 1, 72, 45
2, 35488, Note_on_c, 1, 72, 0
2, 35520, Note_on_c, 1, 72, 45
2, 35680, Note_on_c, 1, 72, 0
2, 35712, Note_on_c, 1, 72, 45
2, 35872, Note_on_c, 1, 72, 0
2, 35904, Note_on_c, 1, 76, 45
2, 36096, Note_on_c, 1, 76, 0
2, 36096, Note_on_c, 1, 77, 43
2, 36256, Note_on_c, 1, 77, 0
2, 36288, Note_on_c, 1, 79, 41
2, 36336, Note_on_c, 1, 79, 0
2, 36480, Note_on_c, 1, 72, 39
2, 36640, Note_on_c, 1, 72, 0
2, 36672, Note_on_c, 1, 72, 36
2, 36832, Note_on_c, 1, 72, 0
2, 36864, Note_on_c, 1, 72, 33
2, 37024, Note_on_c, 1, 72, 0
2, 37056, Note_on_c, 1, 76, 30
2, 37248, Note_on_c, 1, 76, 0
2, 37248, Note_on_c, 1, 77, 30
2, 37408, Note_on_c, 1, 77, 0
2, 37440, Note_on_c, 1, 79, 30
2, 37488, Note_on_c, 1, 79, 0
2, 37632, Note_on_c, 1, 72, 92
2, 37792, Note_on_c, 1, 72, 0
2, 37824, Note_on_c, 1, 63, 127
2, 38160, Note_on_c, 1, 63, 0
2, 39552, Note_on_c, 1, 63, 68
2, 39888, Note_on_c, 1, 63, 0
2, 39936, Note_on_c, 1, 63, 61
2, 40272, Note_on_c, 1, 63, 0
2, 40320, Note_on_c, 1, 63, 53
2, 40480, Note_on_c, 1, 63, 0
2, 40704, Note_on_c, 1, 63, 45
2, 41040, Note_on_c, 1, 63, 0
2, 41280, Note_on_c, 1, 63, 45
2, 41616, Note_on_c, 1, 63, 0
2, 41856, Note_on_c, 1, 64, 30
2, 42192, Note_on_c, 1, 64, 0
2, 42432, Note_on_c, 1, 64, 30
2, 42768, Note_on_c, 1, 64, 0
2, 43008, Note_on_c, 1, 69, 36
2, 43552, Note_on_c, 1, 69, 0
2, 43584, Note_on_c, 1, 67, 42
2, 44128, Note_on_c, 1, 67, 0
2, 44160, Note_on_c, 1, 65, 49
2, 44704, Note_on_c, 1, 65, 0
2, 44736, Note_on_c, 1, 67, 56
2, 45280, Note_on_c, 1, 67, 0
2, 45312, Note_on_c, 1, 69, 63
2, 45856, Note_on_c, 1, 69, 0
2, 45888, Note_on_c, 1, 67, 70
2, 46320, Note_on_c, 1, 67, 0
2, 46464, Note_on_c, 1, 65, 77
2, 46512, Note_on_c, 1, 65, 0
2, 46656, Note_on_c, 1, 67, 80
2, 46704, Note_on_c, 1, 67, 0
2, 46848, Note_on_c, 1, 65, 83
2, 47008, Note_on_c, 1, 65, 0
2, 47424, Note_on_c, 1, 77, 92
2, 47472, Note_on_c, 1, 77, 0
2, 47808, Note_on_c, 1, 81, 92
2, 47856, Note_on_c, 1, 81, 0
2, 48000, Note_on_c, 1, 82, 92
2, 48048, Note_on_c, 1, 82, 0
2, 48384, Note_on_c, 1, 84, 92
2, 48544, Note_on_c, 1, 84, 0
2, 48576, Note_on_c, 1, 86, 92
2, 48736, Note_on_c, 1, 86, 0
2, 48960, Note_on_c, 1, 84, 92
2, 49120, Note_on_c, 1, 84, 0
2, 49152, Note_on_c, 1, 82, 92
2, 49312, Note_on_c, 1, 82, 0
2, 49536, Note_on_c, 1, 79, 92
2, 49696, Note_on_c, 1, 79, 0
2, 49728, Note_on_c, 1, 77, 92
2, 49888, Note_on_c, 1, 77, 0
2, 50112, Note_on_c, 1, 81, 92
2, 50272, Note_on_c, 1, 81, 0
2, 50304, Note_on_c, 1, 82, 82
2, 50464, Note_on_c, 1, 82, 0
2, 50688, Note_on_c, 1, 84, 62
2, 50848, Note_on_c, 1, 84, 0
2, 50880, Note_on_c, 1, 86, 52
2, 51040, Note_on_c, 1, 86, 0
2, 51264, Note_on_c, 1, 84, 30
2, 51424, Note_on_c, 1, 84, 0
2, 51456, Note_on_c, 1, 84, 30
2, 51504, Note_on_c, 1, 84, 0
2, 51648, Note_on_c, 1, 84, 30
2, 51696, Note_on_c, 1, 84, 0
2, 51840, Note_on_c, 1, 87, 30
2, 51888, Note_on_c, 1, 87, 0
2, 52032, Note_on_c, 1, 86, 30
2, 52080, Note_on_c, 1, 86, 0
2, 52800, Note_on_c, 1, 88, 30
2, 52848, Note_on_c, 1, 88, 0
2, 52992, Note_on_c, 1, 89, 30
2, 53040, Note_on_c, 1, 89, 0
2, 53184, Note_on_c, 1, 84, 30
2, 53232, Note_on_c, 1, 84, 0
2, 53952, Note_on_c, 1, 86, 30
2, 54112, Note_on_c, 1, 86, 0
2, 54144, Note_on_c, 1, 84, 30
2, 54304, Note_on_c, 1, 84, 0
2, 54336, Note_on_c, 1, 84, 30
2, 54384, Note_on_c, 1, 84, 0
2, 54528, Note_on_c, 1, 82, 30
2, 54576, Note_on_c, 1, 82, 0
2, 54720, Note_on_c, 1, 81, 30
2, 54768, Note_on_c, 1, 81, 0
2, 54912, Note_on_c, 1, 81, 30
2, 55104, Note_on_c, 1, 81, 0
2, 55104, Note_on_c, 1, 82, 30
2, 55264, Note_on_c, 1, 82, 0
2, 55296, Note_on_c, 1, 79, 30
2, 55344, Note_on_c, 1, 79, 0
2, 55488, Note_on_c, 1, 81, 30
2, 55536, Note_on_c, 1, 81, 0
2, 55680, Note_on_c, 1, 77, 30
2, 55728, Note_on_c, 1, 77, 0
2, 55872, Note_on_c, 1, 79, 30
2, 55920, Note_on_c, 1, 79, 0
2, 56064, Note_on_c, 1, 77, 30
2, 56224, Note_on_c, 1, 77, 0
2, 56832, Note_on_c, 1, 77, 30
2, 56992, Note_on_c, 1, 77, 0
2, 57024, Note_on_c, 1, 79, 30
2, 57184, Note_on_c, 1, 79, 0
2, 57216, Note_on_c, 1, 77, 30
2, 57376, Note_on_c, 1, 77, 0
2, 57984, Note_on_c, 1, 77, 30
2, 58144, Note_on_c, 1, 77, 0
2, 58176, Note_on_c, 1, 79, 30
2, 58336, Note_on_c, 1, 79, 0
2, 58368, Note_on_c, 1, 77, 30
2, 58528, Note_on_c, 1, 77, 0
2, 58560, Note_on_c, 1, 78, 30
2, 58720, Note_on_c, 1, 78, 0
2, 58752, Note_on_c, 1, 79, 30
2, 58912, Note_on_c, 1, 79, 0
2, 58944, Note_on_c, 1, 79, 30
2, 59104, Note_on_c, 1, 79, 0
2, 59136, Note_on_c, 1, 79, 30
2, 59296, Note_on_c, 1, 79, 0
2, 59328, Note_on_c, 1, 84, 30
2, 59488, Note_on_c, 1, 84, 0
2, 59520, Note_on_c, 1, 84, 30
2, 59680, Note_on_c, 1, 84, 0
2, 59712, Note_on_c, 1, 84, 30
2, 59872, Note_on_c, 1, 84, 0
2, 59904, Note_on_c, 1, 84, 30
2, 60064, Note_on_c, 1, 84, 0
2, 60096, Note_on_c, 1, 84, 30
2, 60144, Note_on_c, 1, 84, 0
2, 60288, Note_on_c, 1, 82, 30
2, 60336, Note_on_c, 1, 82, 0
2, 60480, Note_on_c, 1, 81, 30
2, 60528, Note_on_c, 1, 81, 0
2, 60672, Note_on_c, 1, 81, 30
2, 60864, Note_on_c, 1, 81, 0
2, 60864, Note_on_c, 1, 82, 35
2, 61024, Note_on_c, 1, 82, 0
2, 61056, Note_on_c, 1, 79, 40
2, 61104, Note_on_c, 1, 79, 0
2, 61248, Note_on_c, 1, 79, 45
2, 61440, Note_on_c, 1, 79, 0
2, 61440, Note_on_c, 1, 81, 50
2, 61600, Note_on_c, 1, 81, 0
2, 61632, Note_on_c, 1, 77, 55
2, 61680, Note_on_c, 1, 77, 0
2, 61824, Note_on_c, 1, 76, 60
2, 62016, Note_on_c, 1, 76, 0
2, 62016, Note_on_c, 1, 77, 65
2, 62176, Note_on_c, 1, 77, 0
2, 62208, Note_on_c, 1, 79, 70
2, 62256, Note_on_c, 1, 79, 0
2, 62400, Note_on_c, 1, 76, 75
2, 62592, Note_on_c, 1, 76, 0
2, 62592, Note_on_c, 1, 77, 72
2, 62752, Note_on_c, 1, 77, 0
2, 62784, Note_on_c, 1, 79, 69
2, 62832, Note_on_c, 1, 79, 0
2, 62976, Note_on_c, 1, 72, 66
2, 63136, Note_on_c, 1, 72, 0
2, 63168, Note_on_c, 1, 72, 63
2, 63328, Note_on_c, 1, 72, 0
2, 63360, Note_on_c, 1, 72, 60
2, 63520, Note_on_c, 1, 72, 0
2, 63552, Note_on_c, 1, 76, 57
2, 63744, Note_on_c, 1, 76, 0
2, 63744, Note_on_c, 1, 77, 53
2, 63904, Note_on_c, 1, 77, 0
2, 63936, Note_on_c, 1, 79, 49
2, 63984, Note_on_c, 1, 79, 0
2, 64128, Note_on_c, 1, 72, 45
2, 64288, Note_on_c, 1, 72, 0
2, 64320, Note_on_c, 1, 72, 45
2, 64480, Note_on_c, 1, 72, 0
2, 64512, Note_on_c, 1, 72, 45
2, 64672, Note_on_c, 1, 72, 0
2, 64704, Note_on_c, 1, 76, 45
2, 64896, Note_on_c, 1, 76, 0
2, 64896, Note_on_c, 1, 77, 43
2, 65056, Note_on_c, 1, 77, 0
2, 65088, Note_on_c, 1, 79, 41
2, 65136, Note_on_c, 1, 79, 0
2, 65280, Note_on_c, 1, 72, 39
2, 65440, Note_on_c, 1, 72, 0
2, 65472, Note_on_c, 1, 72, 36
2, 65632, Note_on_c, 1, 72, 0
2, 65664, Note_on_c, 1, 72, 33
2, 65824, Note_on_c, 1, 72, 0
2, 65856, Note_on_c, 1, 76, 30
2, 66048, Note_on_c, 1, 76, 0
2, 66048, Note_on_c, 1, 77, 30
2, 66208, Note_on_c, 1, 77, 0
2, 66240, Note_on_c, 1, 79, 30
2, 66288, Note_on_c, 1, 79, 0
2, 66432, Note_on_c, 1, 72, 92
2, 66592, Note_on_c, 1, 72, 0
2, 66624, Note_on_c, 1, 65, 92
2, 66720, Note_on_c, 1, 65, 0
2, 66720, Note_on_c, 1, 64, 92
2, 66816, Note_on_c, 1, 64, 0
2, 66816, Note_on_c, 1, 65, 92
2, 66912, Note_on_c, 1, 65, 0
2, 66912, Note_on_c, 1, 67, 92
2, 67006, Note_on_c, 1, 67, 0
2, 67008, Note_on_c, 1, 69, 92
2, 67168, Note_on_c, 1, 69, 0
2, 67200, Note_on_c, 1, 72, 45
2, 67360, Note_on_c, 1, 72, 0
2, 67392, Note_on_c, 1, 72, 45
2, 67552, Note_on_c, 1, 72, 0
2, 67584, Note_on_c, 1, 72, 45
2, 67744, Note_on_c, 1, 72, 0
2, 67776, Note_on_c, 1, 72, 45
2, 67936, Note_on_c, 1, 72, 0
2, 67968, Note_on_c, 1, 72, 45
2, 68128, Note_on_c, 1, 72, 0
2, 68160, Note_on_c, 1, 72, 45
2, 68320, Note_on_c, 1, 72, 0
2, 68352, Note_on_c, 1, 72, 45
2, 68512, Note_on_c, 1, 72, 0
2, 68544, Note_on_c, 1, 72, 45
2, 68704, Note_on_c, 1, 72, 0
2, 68736, Note_on_c, 1, 72, 45
2, 68896, Note_on_c, 1, 72, 0
2, 68928, Note_on_c, 1, 72, 45
2, 69088, Note_on_c, 1, 72, 0
2, 69120, Note_on_c, 1, 72, 45
2, 69280, Note_on_c, 1, 72, 0
2, 69504, Note_on_c, 1, 74, 45
2, 69552, Note_on_c, 1, 74, 0
2, 69696, Note_on_c, 1, 76, 45
2, 69744, Note_on_c, 1, 76, 0
2, 69888, Note_on_c, 1, 77, 45
2, 69936, Note_on_c, 1, 77, 0
2, 70080, Note_on_c, 1, 79, 45
2, 70128, Note_on_c, 1, 79, 0
2, 70272, Note_on_c, 1, 81, 45
2, 70320, Note_on_c, 1, 81, 0
2, 70464, Note_on_c, 1, 82, 45
2, 70512, Note_on_c, 1, 82, 0
2, 70656, Note_on_c, 1, 55, 45
2, 70704, Note_on_c, 1, 55, 0
2, 70848, Note_on_c, 1, 81, 45
2, 70896, Note_on_c, 1, 81, 0
2, 71040, Note_on_c, 1, 82, 45
2, 71088, Note_on_c, 1, 82, 0
2, 71232, Note_on_c, 1, 70, 45
2, 71280, Note_on_c, 1, 70, 0
2, 71424, Note_on_c, 1, 84, 45
2, 71472, Note_on_c, 1, 84, 0
2, 71616, Note_on_c, 1, 81, 92
2, 71664, Note_on_c, 1, 81, 0
2, 71808, Note_on_c, 1, 65, 45
2, 71904, Note_on_c, 1, 65, 0
2, 71904, Note_on_c, 1, 64, 45
2, 72000, Note_on_c, 1, 64, 0
2, 72000, Note_on_c, 1, 65, 45
2, 72096, Note_on_c, 1, 65, 0
2, 72096, Note_on_c, 1, 67, 45
2, 72190, Note_on_c, 1, 67, 0
2, 72384, Note_on_c, 1, 70, 45
2, 72432, Note_on_c, 1, 70, 0
2, 72768, Note_on_c, 1, 74, 45
2, 72816, Note_on_c, 1, 74, 0
2, 72960, Note_on_c, 1, 76, 45
2, 73008, Note_on_c, 1, 76, 0
2, 73344, Note_on_c, 1, 79, 45
2, 73392, Note_on_c, 1, 79, 0
2, 73536, Note_on_c, 1, 81, 45
2, 73584, Note_on_c, 1, 81, 0
2, 73728, Note_on_c, 1, 82, 45
2, 73776, Note_on_c, 1, 82, 0
2, 73920, Note_on_c, 1, 84, 45
2, 74080, Note_on_c, 1, 84, 0
2, 74112, Note_on_c, 1, 86, 45
2, 74272, Note_on_c, 1, 86, 0
2, 74304, Note_on_c, 1, 88, 45
2, 74464, Note_on_c, 1, 88, 0
2, 74496, Note_on_c, 1, 89, 45
2, 74656, Note_on_c, 1, 89, 0
2, 74688, Note_on_c, 1, 91, 45
2, 74848, Note_on_c, 1, 91, 0
2, 74880, Note_on_c, 1, 93, 45
2, 75040, Note_on_c, 1, 93, 0
2, 75072, Note_on_c, 1, 94, 45
2, 75232, Note_on_c, 1, 94, 0
2, 75456, Note_on_c, 1, 81, 45
2, 75616, Note_on_c, 1, 81, 0
2, 75648, Note_on_c, 1, 82, 45
2, 75808, Note_on_c, 1, 82, 0
2, 76032, Note_on_c, 1, 84, 45
2, 76192, Note_on_c, 1, 84, 0
2, 76224, Note_on_c, 1, 81, 45
2, 76384, Note_on_c, 1, 81, 0
2, 76992, Note_on_c, 1, 76, 45
2, 77088, Note_on_c, 1, 76, 0
2, 77088, Note_on_c, 1, 74, 46
2, 77184, Note_on_c, 1, 74, 0
2, 77184, Note_on_c, 1, 76, 47
2, 77280, Note_on_c, 1, 76, 0
2, 77280, Note_on_c, 1, 77, 48
2, 77374, Note_on_c, 1, 77, 0
2, 77376, Note_on_c, 1, 79, 49
2, 77536, Note_on_c, 1, 79, 0
2, 78144, Note_on_c, 1, 79, 57
2, 78240, Note_on_c, 1, 79, 0
2, 78240, Note_on_c, 1, 77, 58
2, 78336, Note_on_c, 1, 77, 0
2, 78336, Note_on_c, 1, 79, 59
2, 78432, Note_on_c, 1, 79, 0
2, 78432, Note_on_c, 1, 81, 60
2, 78526, Note_on_c, 1, 81, 0
2, 78528, Note_on_c, 1, 82, 61
2, 78688, Note_on_c, 1, 82, 0
2, 79296, Note_on_c, 1, 79, 75
2, 79392, Note_on_c, 1, 79, 0
2, 79392, Note_on_c, 1, 77, 68
2, 79488, Note_on_c, 1, 77, 0
2, 79488, Note_on_c, 1, 79, 61
2, 79584, Note_on_c, 1, 79, 0
2, 79584, Note_on_c, 1, 81, 53
2, 79678, Note_on_c, 1, 81, 0
2, 79680, Note_on_c, 1, 82, 45
2, 79840, Note_on_c, 1, 82, 0
2, 80064, Note_on_c, 1, 81, 45
2, 80224, Note_on_c, 1, 81, 0
2, 80256, Note_on_c, 1, 81, 45
2, 80640, Note_on_c, 1, 81, 0
2, 80640, Note_on_c, 1, 80, 45
2, 80800, Note_on_c, 1, 80, 0
2, 80832, Note_on_c, 1, 81, 45
2, 80992, Note_on_c, 1, 81, 0
2, 81600, Note_on_c, 1, 79, 45
2, 81696, Note_on_c, 1, 79, 0
2, 81696, Note_on_c, 1, 77, 52
2, 81792, Note_on_c, 1, 77, 0
2, 81792, Note_on_c, 1, 79, 59
2, 81888, Note_on_c, 1, 79, 0
2, 81888, Note_on_c, 1, 81, 67
2, 81982, Note_on_c, 1, 81, 0
2, 81984, Note_on_c, 1, 82, 45
2, 82144, Note_on_c, 1, 82, 0
2, 82368, Note_on_c, 1, 81, 45
2, 82528, Note_on_c, 1, 81, 0
2, 82560, Note_on_c, 1, 81, 45
2, 82944, Note_on_c, 1, 81, 0
2, 82944, Note_on_c, 1, 80, 45
2, 83104, Note_on_c, 1, 80, 0
2, 83136, Note_on_c, 1, 81, 45
2, 83296, Note_on_c, 1, 81, 0
2, 83520, Note_on_c, 1, 79, 45
2, 83680, Note_on_c, 1, 79, 0
2, 83712, Note_on_c, 1, 79, 45
2, 84096, Note_on_c, 1, 79, 0
2, 84096, Note_on_c, 1, 78, 45
2, 84256, Note_on_c, 1, 78, 0
2, 84288, Note_on_c, 1, 71, 92
2, 84288, Note_on_c, 1, 79, 92
2, 84448, Note_on_c, 1, 71, 0
2, 84448, Note_on_c, 1, 79, 0
2, 84576, Note_on_c, 1, 66, 45
2, 84672, Note_on_c, 1, 66, 0
2, 84768, Note_on_c, 1, 69, 45
2, 84862, Note_on_c, 1, 69, 0
2, 85056, Note_on_c, 1, 72, 45
2, 85104, Note_on_c, 1, 72, 0
2, 85440, Note_on_c, 1, 76, 45
2, 85488, Note_on_c, 1, 76, 0
2, 85632, Note_on_c, 1, 78, 45
2, 85680, Note_on_c, 1, 78, 0
2, 85824, Note_on_c, 1, 79, 45
2, 85872, Note_on_c, 1, 79, 0
2, 86016, Note_on_c, 1, 81, 45
2, 86064, Note_on_c, 1, 81, 0
2, 86208, Note_on_c, 1, 83, 45
2, 86256, Note_on_c, 1, 83, 0
2, 86592, Note_on_c, 1, 86, 45
2, 86752, Note_on_c, 1, 86, 0
2, 86784, Note_on_c, 1, 88, 45
2, 86944, Note_on_c, 1, 88, 0
2, 86976, Note_on_c, 1, 90, 45
2, 87136, Note_on_c, 1, 90, 0
2, 87168, Note_on_c, 1, 91, 45
2, 87328, Note_on_c, 1, 91, 0
2, 87360, Note_on_c, 1, 93, 45
2, 87520, Note_on_c, 1, 93, 0
2, 87552, Note_on_c, 1, 95, 45
2, 87712, Note_on_c, 1, 95, 0
2, 87744, Note_on_c, 1, 96, 45
2, 87904, Note_on_c, 1, 96, 0
2, 88128, Note_on_c, 1, 71, 45
2, 88288, Note_on_c, 1, 71, 0
2, 88320, Note_on_c, 1, 72, 45
2, 88480, Note_on_c, 1, 72, 0
2, 89184, Note_on_c, 1, 66, 45
2, 89280, Note_on_c, 1, 66, 0
2, 89376, Note_on_c, 1, 69, 45
2, 89470, Note_on_c, 1, 69, 0
2, 89664, Note_on_c, 1, 72, 45
2, 89712, Note_on_c, 1, 72, 0
2, 90048, Note_on_c, 1, 76, 45
2, 90208, Note_on_c, 1, 76, 0
2, 90240, Note_on_c, 1, 78, 45
2, 90400, Note_on_c, 1, 78, 0
2, 90432, Note_on_c, 1, 79, 45
2, 90592, Note_on_c, 1, 79, 0
2, 90624, Note_on_c, 1, 81, 45
2, 90784, Note_on_c, 1, 81, 0
2, 91008, Note_on_c, 1, 84, 45
2, 91168, Note_on_c, 1, 84, 0
2, 91200, Note_on_c, 1, 86, 45
2, 91360, Note_on_c, 1, 86, 0
2, 91392, Note_on_c, 1, 88, 45
2, 91552, Note_on_c, 1, 88, 0
2, 91584, Note_on_c, 1, 90, 45
2, 91744, Note_on_c, 1, 90, 0
2, 91776, Note_on_c, 1, 91, 45
2, 91936, Note_on_c, 1, 91, 0
2, 91968, Note_on_c, 1, 93, 45
2, 92128, Note_on_c, 1, 93, 0
2, 92160, Note_on_c, 1, 95, 45
2, 92320, Note_on_c, 1, 95, 0
2, 92352, Note_on_c, 1, 96, 45
2, 92512, Note_on_c, 1, 96, 0
2, 92736, Note_on_c, 1, 75, 44
2, 92896, Note_on_c, 1, 75, 0
2, 93312, Note_on_c, 1, 74, 41
2, 93472, Note_on_c, 1, 74, 0
2, 93888, Note_on_c, 1, 71, 37
2, 94048, Note_on_c, 1, 71, 0
2, 94464, Note_on_c, 1, 71, 32
2, 94624, Note_on_c, 1, 71, 0
2, 94656, Note_on_c, 1, 71, 30
2, 94816, Note_on_c, 1, 71, 0
2, 95040, Note_on_c, 1, 72, 30
2, 95200, Note_on_c, 1, 72, 0
2, 95232, Note_on_c, 1, 72, 30
2, 95392, Note_on_c, 1, 72, 0
2, 96192, Note_on_c, 1, 72, 30
2, 96352, Note_on_c, 1, 72, 0
2, 96384, Note_on_c, 1, 72, 30
2, 96544, Note_on_c, 1, 72, 0
2, 97152, Note_on_c, 1, 83, 30
2, 97312, Note_on_c, 1, 83, 0
2, 97344, Note_on_c, 1, 83, 35
2, 97504, Note_on_c, 1, 83, 0
2, 97536, Note_on_c, 1, 83, 40
2, 97696, Note_on_c, 1, 83, 0
2, 97728, Note_on_c, 1, 83, 45
2, 97888, Note_on_c, 1, 83, 0
2, 97920, Note_on_c, 1, 83, 50
2, 98080, Note_on_c, 1, 83, 0
2, 98112, Note_on_c, 1, 83, 56
2, 98272, Note_on_c, 1, 83, 0
2, 98304, Note_on_c, 1, 83, 62
2, 98464, Note_on_c, 1, 83, 0
2, 98496, Note_on_c, 1, 83, 68
2, 98656, Note_on_c, 1, 83, 0
2, 98688, Note_on_c, 1, 83, 74
2, 98848, Note_on_c, 1, 83, 0
2, 98880, Note_on_c, 1, 88, 80
2, 99040, Note_on_c, 1, 88, 0
2, 99072, Note_on_c, 1, 86, 86
2, 99232, Note_on_c, 1, 86, 0
2, 99264, Note_on_c, 1, 85, 92
2, 99312, Note_on_c, 1, 85, 0
2, 99456, Note_on_c, 1, 57, 45
2, 99552, Note_on_c, 1, 57, 0
2, 99552, Note_on_c, 1, 56, 45
2, 99648, Note_on_c, 1, 56, 0
2, 99648, Note_on_c, 1, 57, 45
2, 99744, Note_on_c, 1, 57, 0
2, 99744, Note_on_c, 1, 59, 45
2, 99838, Note_on_c, 1, 59, 0
2, 99840, Note_on_c, 1, 61, 45
2, 99888, Note_on_c, 1, 61, 0
2, 100032, Note_on_c, 1, 62, 45
2, 100080, Note_on_c, 1, 62, 0
2, 100416, Note_on_c, 1, 66, 45
2, 100464, Note_on_c, 1, 66, 0
2, 100608, Note_on_c, 1, 68, 45
2, 100656, Note_on_c, 1, 68, 0
2, 101184, Note_on_c, 1, 73, 45
2, 101344, Note_on_c, 1, 73, 0
2, 101376, Note_on_c, 1, 74, 45
2, 101536, Note_on_c, 1, 74, 0
2, 101760, Note_on_c, 1, 78, 45
2, 101920, Note_on_c, 1, 78, 0
2, 101952, Note_on_c, 1, 80, 45
2, 102112, Note_on_c, 1, 80, 0
2, 102144, Note_on_c, 1, 81, 45
2, 102304, Note_on_c, 1, 81, 0
2, 102336, Note_on_c, 1, 83, 45
2, 102496, Note_on_c, 1, 83, 0
2, 102528, Note_on_c, 1, 85, 45
2, 102688, Note_on_c, 1, 85, 0
2, 102720, Note_on_c, 1, 86, 45
2, 102880, Note_on_c, 1, 86, 0
2, 102912, Note_on_c, 1, 76, 45
2, 103072, Note_on_c, 1, 76, 0
2, 103104, Note_on_c, 1, 85, 45
2, 103264, Note_on_c, 1, 85, 0
2, 103296, Note_on_c, 1, 86, 45
2, 103456, Note_on_c, 1, 86, 0
2, 103488, Note_on_c, 1, 76, 45
2, 103648, Note_on_c, 1, 76, 0
2, 103680, Note_on_c, 1, 88, 45
2, 103840, Note_on_c, 1, 88, 0
2, 103872, Note_on_c, 1, 85, 92
2, 104032, Note_on_c, 1, 85, 0
2, 104064, Note_on_c, 1, 76, 45
2, 104064, Note_on_c, 1, 88, 45
2, 104224, Note_on_c, 1, 76, 0
2, 104224, Note_on_c, 1, 88, 0
2, 104256, Note_on_c, 1, 76, 45
2, 104256, Note_on_c, 1, 88, 45
2, 104416, Note_on_c, 1, 76, 0
2, 104416, Note_on_c, 1, 88, 0
2, 104448, Note_on_c, 1, 76, 45
2, 104448, Note_on_c, 1, 88, 45
2, 104608, Note_on_c, 1, 76, 0
2, 104608, Note_on_c, 1, 88, 0
2, 104640, Note_on_c, 1, 76, 45
2, 104640, Note_on_c, 1, 88, 45
2, 104800, Note_on_c, 1, 76, 0
2, 104800, Note_on_c, 1, 88, 0
2, 104832, Note_on_c, 1, 76, 45
2, 104832, Note_on_c, 1, 88, 45
2, 104992, Note_on_c, 1, 76, 0
2, 104992, Note_on_c, 1, 88, 0
2, 105024, Note_on_c, 1, 76, 45
2, 105024, Note_on_c, 1, 88, 45
2, 105184, Note_on_c, 1, 76, 0
2, 105184, Note_on_c, 1, 88, 0
2, 105216, Note_on_c, 1, 76, 45
2, 105216, Note_on_c, 1, 88, 45
2, 105376, Note_on_c, 1, 76, 0
2, 105376, Note_on_c, 1, 88, 0
2, 105408, Note_on_c, 1, 76, 45
2, 105408, Note_on_c, 1, 88, 45
2, 105568, Note_on_c, 1, 76, 0
2, 105568, Note_on_c, 1, 88, 0
2, 105600, Note_on_c, 1, 76, 45
2, 105600, Note_on_c, 1, 88, 45
2, 105760, Note_on_c, 1, 76, 0
2, 105760, Note_on_c, 1, 88, 0
2, 105792, Note_on_c, 1, 76, 45
2, 105792, Note_on_c, 1, 88, 45
2, 105952, Note_on_c, 1, 76, 0
2, 105952, Note_on_c, 1, 88, 0
2, 105984, Note_on_c, 1, 76, 45
2, 105984, Note_on_c, 1, 88, 45
2, 106144, Note_on_c, 1, 76, 0
2, 106144, Note_on_c, 1, 88, 0
2, 106176, Note_on_c, 1, 76, 45
2, 106176, Note_on_c, 1, 88, 45
2, 106336, Note_on_c, 1, 76, 0
2, 106336, Note_on_c, 1, 88, 0
2, 106368, Note_on_c, 1, 78, 45
2, 106528, Note_on_c, 1, 78, 0
2, 106560, Note_on_c, 1, 80, 45
2, 106720, Note_on_c, 1, 80, 0
2, 106752, Note_on_c, 1, 81, 45
2, 106912, Note_on_c, 1, 81, 0
2, 106944, Note_on_c, 1, 83, 45
2, 107104, Note_on_c, 1, 83, 0
2, 107136, Note_on_c, 1, 85, 45
2, 107296, Note_on_c, 1, 85, 0
2, 107328, Note_on_c, 1, 86, 45
2, 107488, Note_on_c, 1, 86, 0
2, 107520, Note_on_c, 1, 76, 45
2, 107680, Note_on_c, 1, 76, 0
2, 107712, Note_on_c, 1, 85, 45
2, 107872, Note_on_c, 1, 85, 0
2, 107904, Note_on_c, 1, 86, 45
2, 108064, Note_on_c, 1, 86, 0
2, 108096, Note_on_c, 1, 76, 45
2, 108256, Note_on_c, 1, 76, 0
2, 108288, Note_on_c, 1, 88, 45
2, 108448, Note_on_c, 1, 88, 0
2, 108480, Note_on_c, 1, 86, 45
2, 108528, Note_on_c, 1, 86, 0
2, 108672, Note_on_c, 1, 86, 50
2, 108768, Note_on_c, 1, 86, 0
2, 108768, Note_on_c, 1, 88, 52
2, 108864, Note_on_c, 1, 88, 0
2, 108864, Note_on_c, 1, 86, 54
2, 108960, Note_on_c, 1, 86, 0
2, 108960, Note_on_c, 1, 85, 56
2, 109054, Note_on_c, 1, 85, 0
2, 109056, Note_on_c, 1, 83, 58
2, 109104, Note_on_c, 1, 83, 0
2, 109248, Note_on_c, 1, 71, 63
2, 109344, Note_on_c, 1, 71, 0
2, 109344, Note_on_c, 1, 73, 65
2, 109440, Note_on_c, 1, 73, 0
2, 109440, Note_on_c, 1, 71, 67
2, 109536, Note_on_c, 1, 71, 0
2, 109536, Note_on_c, 1, 69, 69
2, 109630, Note_on_c, 1, 69, 0
2, 109632, Note_on_c, 1, 68, 72
2, 109680, Note_on_c, 1, 68, 0
2, 109824, Note_on_c, 1, 71, 78
2, 109920, Note_on_c, 1, 71, 0
2, 109920, Note_on_c, 1, 69, 81
2, 110016, Note_on_c, 1, 69, 0
2, 110016, Note_on_c, 1, 71, 84
2, 110112, Note_on_c, 1, 71, 0
2, 110112, Note_on_c, 1, 73, 87
2, 110206, Note_on_c, 1, 73, 0
2, 110208, Note_on_c, 1, 74, 90
2, 110256, Note_on_c, 1, 74, 0
2, 110400, Note_on_c, 1, 86, 96
2, 110496, Note_on_c, 1, 86, 0
2, 110496, Note_on_c, 1, 85, 99
2, 110592, Note_on_c, 1, 85, 0
2, 110592, Note_on_c, 1, 86, 102
2, 110688, Note_on_c, 1, 86, 0
2, 110688, Note_on_c, 1, 83, 105
2, 110782, Note_on_c, 1, 83, 0
2, 110784, Note_on_c, 1, 81, 108
2, 110832, Note_on_c, 1, 81, 0
2, 110976, Note_on_c, 1, 69, 108
2, 111024, Note_on_c, 1, 69, 0
2, 111168, Note_on_c, 1, 85, 108
2, 111216, Note_on_c, 1, 85, 0
2, 111360, Note_on_c, 1, 69, 127
2, 111520, Note_on_c, 1, 69, 0
2, 111552, Note_on_c, 1, 88, 108
2, 111712, Note_on_c, 1, 88, 0
2, 111744, Note_on_c, 1, 69, 108
2, 111904, Note_on_c, 1, 69, 0
2, 111936, Note_on_c, 1, 88, 127
2, 112096, Note_on_c, 1, 88, 0
2, 112128, Note_on_c, 1, 69, 108
2, 112288, Note_on_c, 1, 69, 0
2, 112320, Note_on_c, 1, 93, 108
2, 112480, Note_on_c, 1, 93, 0
2, 112512, Note_on_c, 1, 88, 127
2, 113248, Note_on_c, 1, 88, 0
2, 113280, Note_on_c, 1, 69, 108
2, 113328, Note_on_c, 1, 69, 0
2, 113472, Note_on_c, 1, 86, 108
2, 113520, Note_on_c, 1, 86, 0
2, 113664, Note_on_c, 1, 85, 127
2, 113712, Note_on_c, 1, 85, 0
2, 113856, Note_on_c, 1, 69, 108
2, 113904, Note_on_c, 1, 69, 0
2, 114048, Note_on_c, 1, 86, 108
2, 114096, Note_on_c, 1, 86, 0
2, 114240, Note_on_c, 1, 85, 108
2, 114400, Note_on_c, 1, 85, 0
2, 114432, Note_on_c, 1, 69, 108
2, 114592, Note_on_c, 1, 69, 0
2, 114624, Note_on_c, 1, 86, 108
2, 114784, Note_on_c, 1, 86, 0
2, 114816, Note_on_c, 1, 85, 108
2, 114976, Note_on_c, 1, 85, 0
2, 115008, Note_on_c, 1, 69, 108
2, 115168, Note_on_c, 1, 69, 0
2, 115200, Note_on_c, 1, 83, 108
2, 115360, Note_on_c, 1, 83, 0
2, 115392, Note_on_c, 1, 81, 108
2, 115552, Note_on_c, 1, 81, 0
2, 115584, Note_on_c, 1, 69, 108
2, 115744, Note_on_c, 1, 69, 0
2, 115776, Note_on_c, 1, 85, 108
2, 115936, Note_on_c, 1, 85, 0
2, 115968, Note_on_c, 1, 69, 108
2, 116128, Note_on_c, 1, 69, 0
2, 116160, Note_on_c, 1, 88, 108
2, 116320, Note_on_c, 1, 88, 0
2, 116352, Note_on_c, 1, 69, 108
2, 116512, Note_on_c, 1, 69, 0
2, 116544, Note_on_c, 1, 88, 108
2, 116704, Note_on_c, 1, 88, 0
2, 116736, Note_on_c, 1, 69, 108
2, 116896, Note_on_c, 1, 69, 0
2, 116928, Note_on_c, 1, 93, 108
2, 117088, Note_on_c, 1, 93, 0
2, 117120, Note_on_c, 1, 88, 127
2, 117856, Note_on_c, 1, 88, 0
2, 117888, Note_on_c, 1, 69, 108
2, 117936, Note_on_c, 1, 69, 0
2, 118080, Note_on_c, 1, 86, 108
2, 118128, Note_on_c, 1, 86, 0
2, 118272, Note_on_c, 1, 85, 108
2, 118320, Note_on_c, 1, 85, 0
2, 118464, Note_on_c, 1, 69, 108
2, 118512, Note_on_c, 1, 69, 0
2, 118656, Note_on_c, 1, 86, 108
2, 118704, Note_on_c, 1, 86, 0
2, 118848, Note_on_c, 1, 85, 108
2, 119008, Note_on_c, 1, 85, 0
2, 119040, Note_on_c, 1, 69, 108
2, 119200, Note_on_c, 1, 69, 0
2, 119232, Note_on_c, 1, 86, 108
2, 119392, Note_on_c, 1, 86, 0
2, 119424, Note_on_c, 1, 85, 108
2, 119584, Note_on_c, 1, 85, 0
2, 119616, Note_on_c, 1, 69, 108
2, 119776, Note_on_c, 1, 69, 0
2, 119808, Note_on_c, 1, 86, 108
2, 119968, Note_on_c, 1, 86, 0
2, 120000, Note_on_c, 1, 86, 108
2, 120160, Note_on_c, 1, 86, 0
2, 120192, Note_on_c, 1, 71, 108
2, 120384, Note_on_c, 1, 71, 0
2, 120384, Note_on_c, 1, 85, 108
2, 120544, Note_on_c, 1, 85, 0
2, 120576, Note_on_c, 1, 85, 108
2, 120600, Note_on_c, 1, 85, 0
2, 120600, Note_on_c, 1, 86, 108
2, 120656, Note_on_c, 1, 86, 0
2, 120768, Note_on_c, 1, 71, 108
2, 120816, Note_on_c, 1, 71, 0
2, 120960, Note_on_c, 1, 88, 108
2, 121008, Note_on_c, 1, 88, 0
2, 121152, Note_on_c, 1, 85, 108
2, 121312, Note_on_c, 1, 85, 0
2, 121344, Note_on_c, 1, 69, 108
2, 121504, Note_on_c, 1, 69, 0
2, 121536, Note_on_c, 1, 86, 108
2, 121696, Note_on_c, 1, 86, 0
2, 121728, Note_on_c, 1, 85, 108
2, 121888, Note_on_c, 1, 85, 0
2, 121920, Note_on_c, 1, 88, 108
2, 122080, Note_on_c, 1, 88, 0
2, 122112, Note_on_c, 1, 93, 108
2, 122272, Note_on_c, 1, 93, 0
2, 122304, Note_on_c, 1, 86, 108
2, 122464, Note_on_c, 1, 86, 0
2, 122496, Note_on_c, 1, 71, 108
2, 122688, Note_on_c, 1, 71, 0
2, 122688, Note_on_c, 1, 85, 108
2, 122848, Note_on_c, 1, 85, 0
2, 122880, Note_on_c, 1, 85, 108
2, 122904, Note_on_c, 1, 85, 0
2, 122904, Note_on_c, 1, 86, 108
2, 122960, Note_on_c, 1, 86, 0
2, 123072, Note_on_c, 1, 71, 108
2, 123120, Note_on_c, 1, 71, 0
2, 123264, Note_on_c, 1, 88, 108
2, 123312, Note_on_c, 1, 88, 0
2, 123456, Note_on_c, 1, 85, 108
2, 123616, Note_on_c, 1, 85, 0
2, 123648, Note_on_c, 1, 69, 108
2, 123808, Note_on_c, 1, 69, 0
2, 123840, Note_on_c, 1, 88, 108
2, 124000, Note_on_c, 1, 88, 0
2, 124032, Note_on_c, 1, 88, 108
2, 124056, Note_on_c, 1, 88, 0
2, 124056, Note_on_c, 1, 93, 108
2, 124224, Note_on_c, 1, 93, 0
2, 124224, Note_on_c, 1, 69, 108
2, 124512, Note_on_c, 1, 69, 0
2, 124512, Note_on_c, 1, 88, 108
2, 124606, Note_on_c, 1, 88, 0
2, 124608, Note_on_c, 1, 86, 108
2, 124656, Note_on_c, 1, 86, 0
2, 124800, Note_on_c, 1, 71, 108
2, 124992, Note_on_c, 1, 71, 0
2, 124992, Note_on_c, 1, 85, 108
2, 125152, Note_on_c, 1, 85, 0
2, 125184, Note_on_c, 1, 85, 108
2, 125208, Note_on_c, 1, 85, 0
2, 125208, Note_on_c, 1, 86, 108
2, 125264, Note_on_c, 1, 86, 0
2, 125376, Note_on_c, 1, 71, 108
2, 125424, Note_on_c, 1, 71, 0
2, 125568, Note_on_c, 1, 88, 108
2, 125616, Note_on_c, 1, 88, 0
2, 125760, Note_on_c, 1, 85, 108
2, 125920, Note_on_c, 1, 85, 0
2, 125952, Note_on_c, 1, 69, 108
2, 126112, Note_on_c, 1, 69, 0
2, 126144, Note_on_c, 1, 86, 108
2, 126304, Note_on_c, 1, 86, 0
2, 126336, Note_on_c, 1, 85, 108
2, 126496, Note_on_c, 1, 85, 0
2, 126528, Note_on_c, 1, 88, 108
2, 126688, Note_on_c, 1, 88, 0
2, 126720, Note_on_c, 1, 93, 108
2, 126880, Note_on_c, 1, 93, 0
2, 126912, Note_on_c, 1, 86, 108
2, 127072, Note_on_c, 1, 86, 0
2, 127104, Note_on_c, 1, 71, 108
2, 127296, Note_on_c, 1, 71, 0
2, 127296, Note_on_c, 1, 85, 108
2, 127456, Note_on_c, 1, 85, 0
2, 127488, Note_on_c, 1, 85, 108
2, 127512, Note_on_c, 1, 85, 0
2, 127512, Note_on_c, 1, 86, 108
2, 127568, Note_on_c, 1, 86, 0
2, 127680, Note_on_c, 1, 71, 108
2, 127728, Note_on_c, 1, 71, 0
2, 127872, Note_on_c, 1, 88, 108
2, 127920, Note_on_c, 1, 88, 0
2, 128064, Note_on_c, 1, 85, 108
2, 128224, Note_on_c, 1, 85, 0
2, 128256, Note_on_c, 1, 69, 108
2, 128416, Note_on_c, 1, 69, 0
2, 128448, Note_on_c, 1, 88, 108
2, 128608, Note_on_c, 1, 88, 0
2, 128640, Note_on_c, 1, 88, 108
2, 128664, Note_on_c, 1, 88, 0
2, 128664, Note_on_c, 1, 93, 108
2, 128832, Note_on_c, 1, 93, 0
2, 128832, Note_on_c, 1, 69, 108
2, 129120, Note_on_c, 1, 69, 0
2, 129120, Note_on_c, 1, 88, 108
2, 129214, Note_on_c, 1, 88, 0
2, 129216, Note_on_c, 1, 86, 108
2, 129264, Note_on_c, 1, 86, 0
2, 129408, Note_on_c, 1, 71, 103
2, 129456, Note_on_c, 1, 71, 0
2, 129600, Note_on_c, 1, 88, 98
2, 129648, Note_on_c, 1, 88, 0
2, 129792, Note_on_c, 1, 85, 93
2, 129952, Note_on_c, 1, 85, 0
2, 129984, Note_on_c, 1, 69, 88
2, 130144, Note_on_c, 1, 69, 0
2, 130176, Note_on_c, 1, 88, 83
2, 130336, Note_on_c, 1, 88, 0
2, 130368, Note_on_c, 1, 86, 78
2, 130528, Note_on_c, 1, 86, 0
2, 130560, Note_on_c, 1, 71, 73
2, 130720, Note_on_c, 1, 71, 0
2, 130752, Note_on_c, 1, 88, 68
2, 130912, Note_on_c, 1, 88, 0
2, 130944, Note_on_c, 1, 88, 63
2, 130968, Note_on_c, 1, 88, 0
2, 130968, Note_on_c, 1, 93, 63
2, 131136, Note_on_c, 1, 93, 0
2, 131136, Note_on_c, 1, 69, 57
2, 131424, Note_on_c, 1, 69, 0
2, 131424, Note_on_c, 1, 88, 48
2, 131518, Note_on_c, 1, 88, 0
2, 131520, Note_on_c, 1, 86, 45
2, 131568, Note_on_c, 1, 86, 0
2, 131712, Note_on_c, 1, 71, 45
2, 131760, Note_on_c, 1, 71, 0
2, 131904, Note_on_c, 1, 88, 45
2, 131952, Note_on_c, 1, 88, 0
2, 132096, Note_on_c, 1, 85, 45
2, 132256, Note_on_c, 1, 85, 0
2, 132288, Note_on_c, 1, 69, 45
2, 132448, Note_on_c, 1, 69, 0
2, 132480, Note_on_c, 1, 88, 45
2, 132640, Note_on_c, 1, 88, 0
2, 132672, Note_on_c, 1, 85, 45
2, 132832, Note_on_c, 1, 85, 0
2, 132864, Note_on_c, 1, 69, 44
2, 133024, Note_on_c, 1, 69, 0
2, 133056, Note_on_c, 1, 88, 43
2, 133216, Note_on_c, 1, 88, 0
2, 133248, Note_on_c, 1, 88, 42
2, 133272, Note_on_c, 1, 88, 0
2, 133272, Note_on_c, 1, 93, 42
2, 133440, Note_on_c, 1, 93, 0
2, 133440, Note_on_c, 1, 69, 41
2, 133776, Note_on_c, 1, 69, 0
2, 133824, Note_on_c, 1, 73, 39
2, 133984, Note_on_c, 1, 73, 0
2, 134016, Note_on_c, 1, 57, 38
2, 134176, Note_on_c, 1, 57, 0
2, 134208, Note_on_c, 1, 76, 37
2, 134368, Note_on_c, 1, 76, 0
2, 134400, Note_on_c, 1, 76, 36
2, 134424, Note_on_c, 1, 76, 0
2, 134424, Note_on_c, 1, 81, 36
2, 134496, Note_on_c, 1, 81, 0
2, 134496, Note_on_c, 1, 69, 36
2, 134592, Note_on_c, 1, 57, 36
2, 134928, Note_on_c, 1, 57, 0
2, 134928, Note_on_c, 1, 69, 0
2, 134976, Note_on_c, 1, 85, 34
2, 135136, Note_on_c, 1, 85, 0
2, 135168, Note_on_c, 1, 69, 33
2, 135328, Note_on_c, 1, 69, 0
2, 135360, Note_on_c, 1, 88, 32
2, 135520, Note_on_c, 1, 88, 0
2, 135552, Note_on_c, 1, 88, 30
2, 135576, Note_on_c, 1, 88, 0
2, 135576, Note_on_c, 1, 93, 30
2, 135744, Note_on_c, 1, 93, 0
2, 135744, Note_on_c, 1, 69, 30
2, 136080, Note_on_c, 1, 69, 0
2, 136128, Note_on_c, 1, 64, 30
2, 136152, Note_on_c, 1, 64, 0
2, 136152, Note_on_c, 1, 69, 30
2, 136320, Note_on_c, 1, 69, 0
2, 136320, Note_on_c, 1, 57, 30
2, 136656, Note_on_c, 1, 57, 0
2, 136704, Note_on_c, 1, 64, 30
2, 136728, Note_on_c, 1, 64, 0
2, 136728, Note_on_c, 1, 69, 30
2, 136896, Note_on_c, 1, 69, 0
2, 136896, Note_on_c, 1, 57, 30
2, 137440, Note_on_c, 1, 57, 0
2, 137472, Note_on_c, 1, 66, 30
2, 137568, Note_on_c, 1, 66, 0
2, 137568, Note_on_c, 1, 64, 30
2, 137664, Note_on_c, 1, 64, 0
2, 137664, Note_on_c, 1, 66, 30
2, 137760, Note_on_c, 1, 66, 0
2, 137760, Note_on_c, 1, 68, 30
2, 137856, Note_on_c, 1, 68, 0
2, 137856, Note_on_c, 1, 69, 30
2, 137904, Note_on_c, 1, 69, 0
2, 138048, Note_on_c, 1, 66, 30
2, 138144, Note_on_c, 1, 66, 0
2, 138144, Note_on_c, 1, 64, 30
2, 138240, Note_on_c, 1, 64, 0
2, 138240, Note_on_c, 1, 66, 30
2, 138336, Note_on_c, 1, 66, 0
2, 138336, Note_on_c, 1, 67, 30
2, 138432, Note_on_c, 1, 67, 0
2, 138432, Note_on_c, 1, 69, 30
2, 138480, Note_on_c, 1, 69, 0
2, 138624, Note_on_c, 1, 66, 30
2, 138720, Note_on_c, 1, 66, 0
2, 138720, Note_on_c, 1, 64, 30
2, 138816, Note_on_c, 1, 64, 0
2, 138816, Note_on_c, 1, 65, 30
2, 138912, Note_on_c, 1, 65, 0
2, 138912, Note_on_c, 1, 67, 30
2, 139008, Note_on_c, 1, 67, 0
2, 139008, Note_on_c, 1, 69, 30
2, 139056, Note_on_c, 1, 69, 0
2, 139200, Note_on_c, 1, 65, 30
2, 139296, Note_on_c, 1, 65, 0
2, 139296, Note_on_c, 1, 64, 30
2, 139392, Note_on_c, 1, 64, 0
2, 139392, Note_on_c, 1, 65, 30
2, 139488, Note_on_c, 1, 65, 0
2, 139488, Note_on_c, 1, 67, 30
2, 139776, Note_on_c, 1, 67, 0
2, 139776, Note_on_c, 1, 69, 30
2, 140352, Note_on_c, 1, 69, 0
2, 140352, Note_on_c, 1, 67, 30
2, 140928, Note_on_c, 1, 67, 0
2, 140928, Note_on_c, 1, 65, 30
2, 141504, Note_on_c, 1, 65, 0
2, 141504, Note_on_c, 1, 67, 30
2, 142080, Note_on_c, 1, 67, 0
2, 142080, Note_on_c, 1, 79, 30
2, 142656, Note_on_c, 1, 79, 0
2, 142656, Note_on_c, 1, 91, 30
2, 143232, Note_on_c, 1, 91, 0
2, 143232, Note_on_c, 1, 79, 30
2, 143808, Note_on_c, 1, 79, 0
2, 143808, Note_on_c, 1, 67, 30
2, 144352, Note_on_c, 1, 67, 0
2, 144384, Note_on_c, 1, 69, 45
2, 144928, Note_on_c, 1, 69, 0
2, 144960, Note_on_c, 1, 67, 45
2, 145504, Note_on_c, 1, 67, 0
2, 145536, Note_on_c, 1, 65, 45
2, 146080, Note_on_c, 1, 65, 0
2, 146112, Note_on_c, 1, 67, 45
2, 146656, Note_on_c, 1, 67, 0
2, 146688, Note_on_c, 1, 69, 45
2, 147232, Note_on_c, 1, 69, 0
2, 147264, Note_on_c, 1, 67, 45
2, 147696, Note_on_c, 1, 67, 0
2, 147840, Note_on_c, 1, 65, 45
2, 147888, Note_on_c, 1, 65, 0
2, 148032, Note_on_c, 1, 67, 45
2, 148080, Note_on_c, 1, 67, 0
2, 148224, Note_on_c, 1, 65, 45
2, 148272, Note_on_c, 1, 65, 0
2, 148608, Note_on_c, 1, 84, 30
2, 149136, Note_on_c, 1, 84, 0
2, 149184, Note_on_c, 1, 84, 30
2, 149712, Note_on_c, 1, 84, 0
2, 149760, Note_on_c, 1, 84, 30
2, 150288, Note_on_c, 1, 84, 0
2, 150336, Note_on_c, 1, 84, 30
2, 150864, Note_on_c, 1, 84, 0
2, 150912, Note_on_c, 1, 84, 30
2, 151440, Note_on_c, 1, 84, 0
2, 151488, Note_on_c, 1, 84, 30
2, 152016, Note_on_c, 1, 84, 0
2, 152064, Note_on_c, 1, 84, 30
2, 152304, Note_on_c, 1, 84, 0
2, 152448, Note_on_c, 1, 86, 30
2, 152496, Note_on_c, 1, 86, 0
2, 152640, Note_on_c, 1, 88, 30
2, 152688, Note_on_c, 1, 88, 0
2, 152832, Note_on_c, 1, 89, 30
2, 152880, Note_on_c, 1, 89, 0
2, 153024, Note_on_c, 1, 63, 127
2, 153360, Note_on_c, 1, 63, 0
2, 154752, Note_on_c, 1, 63, 68
2, 155088, Note_on_c, 1, 63, 0
2, 155136, Note_on_c, 1, 63, 61
2, 155472, Note_on_c, 1, 63, 0
2, 155520, Note_on_c, 1, 63, 53
2, 155680, Note_on_c, 1, 63, 0
2, 155904, Note_on_c, 1, 63, 45
2, 156240, Note_on_c, 1, 63, 0
2, 156480, Note_on_c, 1, 63, 45
2, 156816, Note_on_c, 1, 63, 0
2, 157056, Note_on_c, 1, 64, 30
2, 157392, Note_on_c, 1, 64, 0
2, 157632, Note_on_c, 1, 64, 30
2, 157968, Note_on_c, 1, 64, 0
2, 158208, Note_on_c, 1, 69, 36
2, 158752, Note_on_c, 1, 69, 0
2, 158784, Note_on_c, 1, 67, 42
2, 159328, Note_on_c, 1, 67, 0
2, 159360, Note_on_c, 1, 65, 49
2, 159904, Note_on_c, 1, 65, 0
2, 159936, Note_on_c, 1, 67, 56
2, 160480, Note_on_c, 1, 67, 0
2, 160512, Note_on_c, 1, 69, 63
2, 161056, Note_on_c, 1, 69, 0
2, 161088, Note_on_c, 1, 67, 70
2, 161520, Note_on_c, 1, 67, 0
2, 161664, Note_on_c, 1, 65, 77
2, 161712, Note_on_c, 1, 65, 0
2, 161856, Note_on_c, 1, 67, 80
2, 161904, Note_on_c, 1, 67, 0
2, 162048, Note_on_c, 1, 65, 83
2, 162208, Note_on_c, 1, 65, 0
2, 162624, Note_on_c, 1, 77, 92
2, 162672, Note_on_c, 1, 77, 0
2, 163008, Note_on_c, 1, 81, 92
2, 163056, Note_on_c, 1, 81, 0
2, 163200, Note_on_c, 1, 82, 92
2, 163248, Note_on_c, 1, 82, 0
2, 163584, Note_on_c, 1, 84, 92
2, 163744, Note_on_c, 1, 84, 0
2, 163776, Note_on_c, 1, 86, 92
2, 163936, Note_on_c, 1, 86, 0
2, 164160, Note_on_c, 1, 84, 92
2, 164320, Note_on_c, 1, 84, 0
2, 164352, Note_on_c, 1, 82, 92
2, 164512, Note_on_c, 1, 82, 0
2, 164736, Note_on_c, 1, 79, 92
2, 164896, Note_on_c, 1, 79, 0
2, 164928, Note_on_c, 1, 77, 92
2, 165088, Note_on_c, 1, 77, 0
2, 165312, Note_on_c, 1, 81, 92
2, 165472, Note_on_c, 1, 81, 0
2, 165504, Note_on_c, 1, 82, 82
2, 165664, Note_on_c, 1, 82, 0
2, 165888, Note_on_c, 1, 84, 62
2, 166048, Note_on_c, 1, 84, 0
2, 166080, Note_on_c, 1, 86, 52
2, 166240, Note_on_c, 1, 86, 0
2, 166464, Note_on_c, 1, 84, 30
2, 166624, Note_on_c, 1, 84, 0
2, 166656, Note_on_c, 1, 84, 30
2, 166704, Note_on_c, 1, 84, 0
2, 166848, Note_on_c, 1, 84, 30
2, 166896, Note_on_c, 1, 84, 0
2, 167040, Note_on_c, 1, 87, 30
2, 167088, Note_on_c, 1, 87, 0
2, 167232, Note_on_c, 1, 86, 30
2, 167280, Note_on_c, 1, 86, 0
2, 168000, Note_on_c, 1, 88, 30
2, 168048, Note_on_c, 1, 88, 0
2, 168192, Note_on_c, 1, 89, 30
2, 168240, Note_on_c, 1, 89, 0
2, 168384, Note_on_c, 1, 84, 30
2, 168432, Note_on_c, 1, 84, 0
2, 169152, Note_on_c, 1, 86, 30
2, 169312, Note_on_c, 1, 86, 0
2, 169344, Note_on_c, 1, 84, 30
2, 169504, Note_on_c, 1, 84, 0
2, 169536, Note_on_c, 1, 84, 30
2, 169584, Note_on_c, 1, 84, 0
2, 169728, Note_on_c, 1, 82, 30
2, 169776, Note_on_c, 1, 82, 0
2, 169920, Note_on_c, 1, 81, 30
2, 169968, Note_on_c, 1, 81, 0
2, 170112, Note_on_c, 1, 81, 30
2, 170304, Note_on_c, 1, 81, 0
2, 170304, Note_on_c, 1, 82, 30
2, 170464, Note_on_c, 1, 82, 0
2, 170496, Note_on_c, 1, 79, 30
2, 170544, Note_on_c, 1, 79, 0
2, 170688, Note_on_c, 1, 81, 30
2, 170736, Note_on_c, 1, 81, 0
2, 170880, Note_on_c, 1, 77, 30
2, 170928, Note_on_c, 1, 77, 0
2, 171072, Note_on_c, 1, 79, 30
2, 171120, Note_on_c, 1, 79, 0
2, 171264, Note_on_c, 1, 77, 30
2, 171424, Note_on_c, 1, 77, 0
2, 172032, Note_on_c, 1, 77, 30
2, 172192, Note_on_c, 1, 77, 0
2, 172224, Note_on_c, 1, 79, 30
2, 172384, Note_on_c, 1, 79, 0
2, 172416, Note_on_c, 1, 77, 30
2, 172576, Note_on_c, 1, 77, 0
2, 173184, Note_on_c, 1, 77, 30
2, 173344, Note_on_c, 1, 77, 0
2, 173376, Note_on_c, 1, 79, 30
2, 173536, Note_on_c, 1, 79, 0
2, 173568, Note_on_c, 1, 77, 30
2, 173728, Note_on_c, 1, 77, 0
2, 173760, Note_on_c, 1, 78, 30
2, 173920, Note_on_c, 1, 78, 0
2, 173952, Note_on_c, 1, 79, 30
2, 174112, Note_on_c, 1, 79, 0
2, 174144, Note_on_c, 1, 79, 30
2, 174304, Note_on_c, 1, 79, 0
2, 174336, Note_on_c, 1, 79, 30
2, 174496, Note_on_c, 1, 79, 0
2, 174528, Note_on_c, 1, 84, 30
2, 174688, Note_on_c, 1, 84, 0
2, 174720, Note_on_c, 1, 84, 30
2, 174880, Note_on_c, 1, 84, 0
2, 174912, Note_on_c, 1, 84, 30
2, 175072, Note_on_c, 1, 84, 0
2, 175104, Note_on_c, 1, 84, 30
2, 175264, Note_on_c, 1, 84, 0
2, 175296, Note_on_c, 1, 84, 30
2, 175344, Note_on_c, 1, 84, 0
2, 175488, Note_on_c, 1, 82, 30
2, 175536, Note_on_c, 1, 82, 0
2, 175680, Note_on_c, 1, 81, 30
2, 175728, Note_on_c, 1, 81, 0
2, 175872, Note_on_c, 1, 81, 30
2, 176064, Note_on_c, 1, 81, 0
2, 176064, Note_on_c, 1, 82, 35
2, 176224, Note_on_c, 1, 82, 0
2, 176256, Note_on_c, 1, 79, 40
2, 176304, Note_on_c, 1, 79, 0
2, 176448, Note_on_c, 1, 79, 45
2, 176640, Note_on_c, 1, 79, 0
2, 176640, Note_on_c, 1, 81, 50
2, 176800, Note_on_c, 1, 81, 0
2, 176832, Note_on_c, 1, 77, 55
2, 176880, Note_on_c, 1, 77, 0
2, 177024, Note_on_c, 1, 76, 60
2, 177216, Note_on_c, 1, 76, 0
2, 177216, Note_on_c, 1, 77, 65
2, 177376, Note_on_c, 1, 77, 0
2, 177408, Note_on_c, 1, 79, 70
2, 177456, Note_on_c, 1, 79, 0
2, 177600, Note_on_c, 1, 76, 75
2, 177792, Note_on_c, 1, 76, 0
2, 177792, Note_on_c, 1, 77, 72
2, 177952, Note_on_c, 1, 77, 0
2, 177984, Note_on_c, 1, 79, 69
2, 178032, Note_on_c, 1, 79, 0
2, 178176, Note_on_c, 1, 72, 66
2, 178336, Note_on_c, 1, 72, 0
2, 178368, Note_on_c, 1, 72, 63
2, 178528, Note_on_c, 1, 72, 0
2, 178560, Note_on_c, 1, 72, 60
2, 178720, Note_on_c, 1, 72, 0
2, 178752, Note_on_c, 1, 76, 57
2, 178944, Note_on_c, 1, 76, 0
2, 178944, Note_on_c, 1, 77, 53
2, 179104, Note_on_c, 1, 77, 0
2, 179136, Note_on_c, 1, 79, 49
2, 179184, Note_on_c, 1, 79, 0
2, 179328, Note_on_c, 1, 72, 45
2, 179488, Note_on_c, 1, 72, 0
2, 179520, Note_on_c, 1, 72, 45
2, 179680, Note_on_c, 1, 72, 0
2, 179712, Note_on_c, 1, 72, 45
2, 179872, Note_on_c, 1, 72, 0
2, 179904, Note_on_c, 1, 76, 45
2, 180096, Note_on_c, 1, 76, 0
2, 180096, Note_on_c, 1, 77, 43
2, 180256, Note_on_c, 1, 77, 0
2, 180288, Note_on_c, 1, 79, 41
2, 180336, Note_on_c, 1, 79, 0
2, 180480, Note_on_c, 1, 72, 39
2, 180640, Note_on_c, 1, 72, 0
2, 180672, Note_on_c, 1, 72, 36
2, 180832, Note_on_c, 1, 72, 0
2, 180864, Note_on_c, 1, 72, 33
2, 181024, Note_on_c, 1, 72, 0
2, 181056, Note_on_c, 1, 76, 30
2, 181248, Note_on_c, 1, 76, 0
2, 181248, Note_on_c, 1, 77, 30
2, 181408, Note_on_c, 1, 77, 0
2, 181440, Note_on_c, 1, 79, 30
2, 181488, Note_on_c, 1, 79, 0
2, 181632, Note_on_c, 1, 72, 92
2, 181792, Note_on_c, 1, 72, 0
2, 181824, Note_on_c, 1, 63, 127
2, 182160, Note_on_c, 1, 63, 0
2, 183552, Note_on_c, 1, 63, 68
2, 183888, Note_on_c, 1, 63, 0
2, 183936, Note_on_c, 1, 63, 61
2, 184272, Note_on_c, 1, 63, 0
2, 184320, Note_on_c, 1, 63, 53
2, 184480, Note_on_c, 1, 63, 0
2, 184704, Note_on_c, 1, 63, 45
2, 185040, Note_on_c, 1, 63, 0
2, 185280, Note_on_c, 1, 63, 45
2, 185616, Note_on_c, 1, 63, 0
2, 185856, Note_on_c, 1, 64, 30
2, 186192, Note_on_c, 1, 64, 0
2, 186432, Note_on_c, 1, 64, 30
2, 186768, Note_on_c, 1, 64, 0
2, 187008, Note_on_c, 1, 69, 36
2, 187552, Note_on_c, 1, 69, 0
2, 187584, Note_on_c, 1, 67, 42
2, 188128, Note_on_c, 1, 67, 0
2, 188160, Note_on_c, 1, 65, 49
2, 188704, Note_on_c, 1, 65, 0
2, 188736, Note_on_c, 1, 67, 56
2, 189280, Note_on_c, 1, 67, 0
2, 189312, Note_on_c, 1, 69, 63
2, 189856, Note_on_c, 1, 69, 0
2, 189888, Note_on_c, 1, 67, 70
2, 190320, Note_on_c, 1, 67, 0
2, 190464, Note_on_c, 1, 65, 77
2, 190512, Note_on_c, 1, 65, 0
2, 190656, Note_on_c, 1, 67, 80
2, 190704, Note_on_c, 1, 67, 0
2, 190848, Note_on_c, 1, 65, 83
2, 191008, Note_on_c, 1, 65, 0
2, 191424, Note_on_c, 1, 77, 92
2, 191472, Note_on_c, 1, 77, 0
2, 191808, Note_on_c, 1, 81, 92
2, 191856, Note_on_c, 1, 81, 0
2, 192000, Note_on_c, 1, 82, 92
2, 192048, Note_on_c, 1, 82, 0
2, 192384, Note_on_c, 1, 84, 92
2, 192544, Note_on_c, 1, 84, 0
2, 192576, Note_on_c, 1, 86, 92
2, 192736, Note_on_c, 1, 86, 0
2, 192960, Note_on_c, 1, 84, 92
2, 193120, Note_on_c, 1, 84, 0
2, 193152, Note_on_c, 1, 82, 92
2, 193312, Note_on_c, 1, 82, 0
2, 193536, Note_on_c, 1, 79, 92
2, 193696, Note_on_c, 1, 79, 0
2, 193728, Note_on_c, 1, 77, 92
2, 193888, Note_on_c, 1, 77, 0
2, 194112, Note_on_c, 1, 81, 92
2, 194272, Note_on_c, 1, 81, 0
2, 194304, Note_on_c, 1, 82, 82
2, 194464, Note_on_c, 1, 82, 0
2, 194688, Note_on_c, 1, 84, 62
2, 194848, Note_on_c, 1, 84, 0
2, 194880, Note_on_c, 1, 86, 52
2, 195040, Note_on_c, 1, 86, 0
2, 195264, Note_on_c, 1, 84, 30
2, 195424, Note_on_c, 1, 84, 0
2, 195456, Note_on_c, 1, 84, 30
2, 195504, Note_on_c, 1, 84, 0
2, 195648, Note_on_c, 1, 84, 30
2, 195696, Note_on_c, 1, 84, 0
2, 195840, Note_on_c, 1, 87, 30
2, 195888, Note_on_c, 1, 87, 0
2, 196032, Note_on_c, 1, 86, 30
2, 196080, Note_on_c, 1, 86, 0
2, 196800, Note_on_c, 1, 88, 30
2, 196848, Note_on_c, 1, 88, 0
2, 196992, Note_on_c, 1, 89, 30
2, 197040, Note_on_c, 1, 89, 0
2, 197184, Note_on_c, 1, 84, 30
2, 197232, Note_on_c, 1, 84, 0
2, 197952, Note_on_c, 1, 86, 30
2, 198112, Note_on_c, 1, 86, 0
2, 198144, Note_on_c, 1, 84, 30
2, 198304, Note_on_c, 1, 84, 0
2, 198336, Note_on_c, 1, 84, 30
2, 198384, Note_on_c, 1, 84, 0
2, 198528, Note_on_c, 1, 82, 30
2, 198576, Note_on_c, 1, 82, 0
2, 198720, Note_on_c, 1, 81, 30
2, 198768, Note_on_c, 1, 81, 0
2, 198912, Note_on_c, 1, 81, 30
2, 199104, Note_on_c, 1, 81, 0
2, 199104, Note_on_c, 1, 82, 30
2, 199264, Note_on_c, 1, 82, 0
2, 199296, Note_on_c, 1, 79, 30
2, 199344, Note_on_c, 1, 79, 0
2, 199488, Note_on_c, 1, 81, 30
2, 199536, Note_on_c, 1, 81, 0
2, 199680, Note_on_c, 1, 77, 30
2, 199728, Note_on_c, 1, 77, 0
2, 199872, Note_on_c, 1, 79, 30
2, 199920, Note_on_c, 1, 79, 0
2, 200064, Note_on_c, 1, 77, 30
2, 200224, Note_on_c, 1, 77, 0
2, 200832, Note_on_c, 1, 77, 30
2, 200992, Note_on_c, 1, 77, 0
2, 201024, Note_on_c, 1, 79, 30
2, 201184, Note_on_c, 1, 79, 0
2, 201216, Note_on_c, 1, 77, 30
2, 201376, Note_on_c, 1, 77, 0
2, 201984, Note_on_c, 1, 77, 30
2, 202144, Note_on_c, 1, 77, 0
2, 202176, Note_on_c, 1, 79, 30
2, 202336, Note_on_c, 1, 79, 0
2, 202368, Note_on_c, 1, 77, 30
2, 202528, Note_on_c, 1, 77, 0
2, 202560, Note_on_c, 1, 78, 30
2, 202720, Note_on_c, 1, 78, 0
2, 202752, Note_on_c, 1, 79, 30
2, 202912, Note_on_c, 1, 79, 0
2, 202944, Note_on_c, 1, 79, 30
2, 203104, Note_on_c, 1, 79, 0
2, 203136, Note_on_c, 1, 79, 30
2, 203296, Note_on_c, 1, 79, 0
2, 203328, Note_on_c, 1, 84, 30
2, 203488, Note_on_c, 1, 84, 0
2, 203520, Note_on_c, 1, 84, 30
2, 203680, Note_on_c, 1, 84, 0
2, 203712, Note_on_c, 1, 84, 30
2, 203872, Note_on_c, 1, 84, 0
2, 203904, Note_on_c, 1, 84, 30
2, 204064, Note_on_c, 1, 84, 0
2, 204096, Note_on_c, 1, 84, 30
2, 204144, Note_on_c, 1, 84, 0
2, 204288, Note_on_c, 1, 82, 30
2, 204336, Note_on_c, 1, 82, 0
2, 204480, Note_on_c, 1, 81, 30
2, 204528, Note_on_c, 1, 81, 0
2, 204672, Note_on_c, 1, 81, 30
2, 204864, Note_on_c, 1, 81, 0
2, 204864, Note_on_c, 1, 82, 35
2, 205024, Note_on_c, 1, 82, 0
2, 205056, Note_on_c, 1, 79, 40
2, 205104, Note_on_c, 1, 79, 0
2, 205248, Note_on_c, 1, 79, 45
2, 205440, Note_on_c, 1, 79, 0
2, 205440, Note_on_c, 1, 81, 50
2, 205600, Note_on_c, 1, 81, 0
2, 205632, Note_on_c, 1, 77, 55
2, 205680, Note_on_c, 1, 77, 0
2, 205824, Note_on_c, 1, 76, 60
2, 206016, Note_on_c, 1, 76, 0
2, 206016, Note_on_c, 1, 77, 65
2, 206176, Note_on_c, 1, 77, 0
2, 206208, Note_on_c, 1, 79, 70
2, 206256, Note_on_c, 1, 79, 0
2, 206400, Note_on_c, 1, 76, 75
2, 206592, Note_on_c, 1, 76, 0
2, 206592, Note_on_c, 1, 77, 72
2, 206752, Note_on_c, 1, 77, 0
2, 206784, Note_on_c, 1, 79, 69
2, 206832, Note_on_c, 1, 79, 0
2, 206976, Note_on_c, 1, 72, 66
2, 207136, Note_on_c, 1, 72, 0
2, 207168, Note_on_c, 1, 72, 63
2, 207328, Note_on_c, 1, 72, 0
2, 207360, Note_on_c, 1, 72, 60
2, 207520, Note_on_c, 1, 72, 0
2, 207552, Note_on_c, 1, 76, 57
2, 207744, Note_on_c, 1, 76, 0
2, 207744, Note_on_c, 1, 77, 53
2, 207904, Note_on_c, 1, 77, 0
2, 207936, Note_on_c, 1, 79, 49
2, 207984, Note_on_c, 1, 79, 0
2, 208128, Note_on_c, 1, 72, 45
2, 208288, Note_on_c, 1, 72, 0
2, 208320, Note_on_c, 1, 72, 45
2, 208480, Note_on_c, 1, 72, 0
2, 208512, Note_on_c, 1, 72, 45
2, 208672, Note_on_c, 1, 72, 0
2, 208704, Note_on_c, 1, 76, 45
2, 208896, Note_on_c, 1, 76, 0
2, 208896, Note_on_c, 1, 77, 43
2, 209056, Note_on_c, 1, 77, 0
2, 209088, Note_on_c, 1, 79, 41
2, 209136, Note_on_c, 1, 79, 0
2, 209280, Note_on_c, 1, 72, 39
2, 209440, Note_on_c, 1, 72, 0
2, 209472, Note_on_c, 1, 72, 36
2, 209632, Note_on_c, 1, 72, 0
2, 209664, Note_on_c, 1, 72, 33
2, 209824, Note_on_c, 1, 72, 0
2, 209856, Note_on_c, 1, 76, 30
2, 210048, Note_on_c, 1, 76, 0
2, 210048, Note_on_c, 1, 77, 30
2, 210208, Note_on_c, 1, 77, 0
2, 210240, Note_on_c, 1, 79, 30
2, 210288, Note_on_c, 1, 79, 0
2, 210432, Note_on_c, 1, 72, 45
2, 210592, Note_on_c, 1, 72, 0
2, 212352, Note_on_c, 1, 84, 45
2, 212688, Note_on_c, 1, 84, 0
2, 212736, Note_on_c, 1, 84, 45
2, 213072, Note_on_c, 1, 84, 0
2, 213120, Note_on_c, 1, 84, 38
2, 213280, Note_on_c, 1, 84, 0
2, 213504, Note_on_c, 1, 84, 30
2, 213840, Note_on_c, 1, 84, 0
2, 213888, Note_on_c, 1, 84, 92
2, 214048, Note_on_c, 1, 84, 0
2, 214272, Control_c, 1, 7, 0
2, 214272, Note_on_c, 1, 70, 60
2, 214992, Note_on_c, 1, 70, 0
2, 214992, End_track
3, 0, Start_track
3, 0, MIDI_port, 0
3, 0, Title_t, "Violino II."
3, 0, Program_c, 2, 0
3, 0, Control_c, 2, 7, 127
3, 0, Control_c, 2, 10, 64
3, 0, Note_on_c, 2, 60, 45
3, 528, Note_on_c, 2, 60, 0
3, 576, Note_on_c, 2, 60, 45
3, 1104, Note_on_c, 2, 60, 0
3, 1152, Note_on_c, 2, 60, 45
3, 1680, Note_on_c, 2, 60, 0
3, 1728, Note_on_c, 2, 60, 45
3, 2256, Note_on_c, 2, 60, 0
3, 2304, Note_on_c, 2, 60, 45
3, 2832, Note_on_c, 2, 60, 0
3, 2880, Note_on_c, 2, 60, 45
3, 3408, Note_on_c, 2, 60, 0
3, 3456, Note_on_c, 2, 60, 45
3, 3616, Note_on_c, 2, 60, 0
3, 3648, Note_on_c, 2, 57, 45
3, 3696, Note_on_c, 2, 57, 0
3, 3840, Note_on_c, 2, 57, 45
3, 3888, Note_on_c, 2, 57, 0
3, 4032, Note_on_c, 2, 64, 45
3, 4080, Note_on_c, 2, 64, 0
3, 4224, Note_on_c, 2, 57, 45
3, 4272, Note_on_c, 2, 57, 0
3, 4416, Note_on_c, 2, 77, 30
3, 4464, Note_on_c, 2, 77, 0
3, 4608, Note_on_c, 2, 79, 30
3, 4656, Note_on_c, 2, 79, 0
3, 4800, Note_on_c, 2, 77, 30
3, 4848, Note_on_c, 2, 77, 0
3, 4992, Note_on_c, 2, 81, 30
3, 5536, Note_on_c, 2, 81, 0
3, 5568, Note_on_c, 2, 79, 30
3, 6112, Note_on_c, 2, 79, 0
3, 6144, Note_on_c, 2, 77, 30
3, 6688, Note_on_c, 2, 77, 0
3, 6720, Note_on_c, 2, 79, 30
3, 7264, Note_on_c, 2, 79, 0
3, 7296, Note_on_c, 2, 81, 30
3, 7840, Note_on_c, 2, 81, 0
3, 7872, Note_on_c, 2, 79, 30
3, 8304, Note_on_c, 2, 79, 0
3, 8448, Note_on_c, 2, 77, 30
3, 8496, Note_on_c, 2, 77, 0
3, 8640, Note_on_c, 2, 79, 30
3, 8688, Note_on_c, 2, 79, 0
3, 8832, Note_on_c, 2, 77, 30
3, 8880, Note_on_c, 2, 77, 0
3, 14400, Note_on_c, 2, 65, 38
3, 14976, Note_on_c, 2, 65, 0
3, 14976, Note_on_c, 2, 64, 44
3, 15168, Note_on_c, 2, 64, 0
3, 15168, Note_on_c, 2, 57, 46
3, 15552, Note_on_c, 2, 57, 0
3, 15552, Note_on_c, 2, 56, 51
3, 15744, Note_on_c, 2, 56, 0
3, 15744, Note_on_c, 2, 62, 53
3, 16128, Note_on_c, 2, 62, 0
3, 16128, Note_on_c, 2, 64, 58
3, 16480, Note_on_c, 2, 64, 0
3, 16512, Note_on_c, 2, 57, 62
3, 16704, Note_on_c, 2, 57, 0
3, 16704, Note_on_c, 2, 65, 64
3, 17056, Note_on_c, 2, 65, 0
3, 17088, Note_on_c, 2, 65, 68
3, 17280, Note_on_c, 2, 65, 0
3, 17280, Note_on_c, 2, 64, 71
3, 17440, Note_on_c, 2, 64, 0
3, 17472, Note_on_c, 2, 56, 74
3, 17664, Note_on_c, 2, 62, 77
3, 17808, Note_on_c, 2, 56, 0
3, 17824, Note_on_c, 2, 62, 0
3, 17856, Note_on_c, 2, 55, 80
3, 17856, Note_on_c, 2, 64, 80
3, 18016, Note_on_c, 2, 55, 0
3, 18016, Note_on_c, 2, 64, 0
3, 18048, Note_on_c, 2, 57, 83
3, 18208, Note_on_c, 2, 57, 0
3, 18624, Note_on_c, 2, 65, 92
3, 18672, Note_on_c, 2, 65, 0
3, 19008, Note_on_c, 2, 69, 92
3, 19056, Note_on_c, 2, 69, 0
3, 19200, Note_on_c, 2, 70, 92
3, 19248, Note_on_c, 2, 70, 0
3, 19584, Note_on_c, 2, 72, 92
3, 19744, Note_on_c, 2, 72, 0
3, 19776, Note_on_c, 2, 74, 92
3, 19936, Note_on_c, 2, 74, 0
3, 20160, Note_on_c, 2, 72, 92
3, 20320, Note_on_c, 2, 72, 0
3, 20352, Note_on_c, 2, 70, 92
3, 20512, Note_on_c, 2, 70, 0
3, 20736, Note_on_c, 2, 67, 92
3, 20896, Note_on_c, 2, 67, 0
3, 20928, Note_on_c, 2, 65, 92
3, 21088, Note_on_c, 2, 65, 0
3, 21312, Note_on_c, 2, 69, 92
3, 21472, Note_on_c, 2, 69, 0
3, 21504, Note_on_c, 2, 70, 82
3, 21664, Note_on_c, 2, 70, 0
3, 21888, Note_on_c, 2, 72, 62
3, 22048, Note_on_c, 2, 72, 0
3, 22080, Note_on_c, 2, 74, 52
3, 22240, Note_on_c, 2, 74, 0
3, 22464, Note_on_c, 2, 64, 30
3, 22464, Note_on_c, 2, 72, 30
3, 22624, Note_on_c, 2, 64, 0
3, 22624, Note_on_c, 2, 72, 0
3, 22656, Note_on_c, 2, 69, 30
3, 22656, Note_on_c, 2, 72, 30
3, 22704, Note_on_c, 2, 69, 0
3, 22704, Note_on_c, 2, 72, 0
3, 22848, Note_on_c, 2, 72, 30
3, 22896, Note_on_c, 2, 72, 0
3, 23040, Note_on_c, 2, 69, 30
3, 23088, Note_on_c, 2, 69, 0
3, 23232, Note_on_c, 2, 65, 30
3, 23280, Note_on_c, 2, 65, 0
3, 24000, Note_on_c, 2, 65, 30
3, 24000, Note_on_c, 2, 74, 30
3, 24048, Note_on_c, 2, 65, 0
3, 24048, Note_on_c, 2, 74, 0
3, 24192, Note_on_c, 2, 65, 30
3, 24192, Note_on_c, 2, 74, 30
3, 24240, Note_on_c, 2, 65, 0
3, 24240, Note_on_c, 2, 74, 0
3, 24384, Note_on_c, 2, 69, 30
3, 24544, Note_on_c, 2, 69, 0
3, 24576, Note_on_c, 2, 77, 30
3, 24736, Note_on_c, 2, 77, 0
3, 24768, Note_on_c, 2, 79, 30
3, 24928, Note_on_c, 2, 79, 0
3, 24960, Note_on_c, 2, 78, 30
3, 25120, Note_on_c, 2, 78, 0
3, 25152, Note_on_c, 2, 82, 30
3, 25312, Note_on_c, 2, 82, 0
3, 25344, Note_on_c, 2, 81, 30
3, 25504, Note_on_c, 2, 81, 0
3, 25536, Note_on_c, 2, 81, 30
3, 25584, Note_on_c, 2, 81, 0
3, 25728, Note_on_c, 2, 79, 30
3, 25776, Note_on_c, 2, 79, 0
3, 25920, Note_on_c, 2, 77, 30
3, 25968, Note_on_c, 2, 77, 0
3, 26112, Note_on_c, 2, 77, 30
3, 26304, Note_on_c, 2, 77, 0
3, 26304, Note_on_c, 2, 74, 30
3, 26464, Note_on_c, 2, 74, 0
3, 26496, Note_on_c, 2, 70, 30
3, 26496, Note_on_c, 2, 76, 30
3, 26544, Note_on_c, 2, 70, 0
3, 26544, Note_on_c, 2, 76, 0
3, 26688, Note_on_c, 2, 69, 30
3, 26736, Note_on_c, 2, 69, 0
3, 26880, Note_on_c, 2, 65, 30
3, 26928, Note_on_c, 2, 65, 0
3, 27072, Note_on_c, 2, 67, 30
3, 27120, Note_on_c, 2, 67, 0
3, 27264, Note_on_c, 2, 65, 30
3, 27424, Note_on_c, 2, 65, 0
3, 28032, Note_on_c, 2, 65, 30
3, 28192, Note_on_c, 2, 65, 0
3, 28224, Note_on_c, 2, 67, 30
3, 28384, Note_on_c, 2, 67, 0
3, 28416, Note_on_c, 2, 65, 30
3, 28576, Note_on_c, 2, 65, 0
3, 29184, Note_on_c, 2, 65, 30
3, 29344, Note_on_c, 2, 65, 0
3, 29376, Note_on_c, 2, 67, 30
3, 29536, Note_on_c, 2, 67, 0
3, 29568, Note_on_c, 2, 65, 30
3, 29728, Note_on_c, 2, 65, 0
3, 29760, Note_on_c, 2, 66, 30
3, 29920, Note_on_c, 2, 66, 0
3, 29952, Note_on_c, 2, 67, 30
3, 30112, Note_on_c, 2, 67, 0
3, 30144, Note_on_c, 2, 67, 30
3, 30304, Note_on_c, 2, 67, 0
3, 30336, Note_on_c, 2, 67, 30
3, 30496, Note_on_c, 2, 67, 0
3, 30528, Note_on_c, 2, 72, 30
3, 30688, Note_on_c, 2, 72, 0
3, 30720, Note_on_c, 2, 72, 30
3, 30880, Note_on_c, 2, 72, 0
3, 30912, Note_on_c, 2, 72, 30
3, 31072, Note_on_c, 2, 72, 0
3, 31104, Note_on_c, 2, 72, 30
3, 31264, Note_on_c, 2, 72, 0
3, 31296, Note_on_c, 2, 72, 30
3, 31344, Note_on_c, 2, 72, 0
3, 31488, Note_on_c, 2, 60, 30
3, 31536, Note_on_c, 2, 60, 0
3, 31680, Note_on_c, 2, 72, 30
3, 31728, Note_on_c, 2, 72, 0
3, 31872, Note_on_c, 2, 72, 30
3, 32064, Note_on_c, 2, 72, 0
3, 32064, Note_on_c, 2, 67, 35
3, 32064, Note_on_c, 2, 74, 35
3, 32224, Note_on_c, 2, 67, 0
3, 32224, Note_on_c, 2, 74, 0
3, 32256, Note_on_c, 2, 64, 40
3, 32304, Note_on_c, 2, 64, 0
3, 32448, Note_on_c, 2, 70, 45
3, 32640, Note_on_c, 2, 70, 0
3, 32640, Note_on_c, 2, 69, 50
3, 32800, Note_on_c, 2, 69, 0
3, 32832, Note_on_c, 2, 65, 55
3, 32832, Note_on_c, 2, 69, 55
3, 32880, Note_on_c, 2, 65, 0
3, 32880, Note_on_c, 2, 69, 0
3, 33024, Note_on_c, 2, 67, 60
3, 33216, Note_on_c, 2, 67, 0
3, 33216, Note_on_c, 2, 65, 65
3, 33376, Note_on_c, 2, 65, 0
3, 33408, Note_on_c, 2, 64, 70
3, 33456, Note_on_c, 2, 64, 0
3, 33600, Note_on_c, 2, 70, 75
3, 33648, Note_on_c, 2, 70, 0
3, 33792, Note_on_c, 2, 58, 72
3, 33840, Note_on_c, 2, 58, 0
3, 33984, Note_on_c, 2, 70, 69
3, 34032, Note_on_c, 2, 70, 0
3, 34176, Note_on_c, 2, 69, 66
3, 34224, Note_on_c, 2, 69, 0
3, 34368, Note_on_c, 2, 67, 63
3, 34416, Note_on_c, 2, 67, 0
3, 34560, Note_on_c, 2, 65, 60
3, 34608, Note_on_c, 2, 65, 0
3, 34752, Note_on_c, 2, 58, 57
3, 34912, Note_on_c, 2, 58, 0
3, 34944, Note_on_c, 2, 70, 53
3, 35104, Note_on_c, 2, 70, 0
3, 35136, Note_on_c, 2, 70, 49
3, 35296, Note_on_c, 2, 70, 0
3, 35328, Note_on_c, 2, 69, 45
3, 35376, Note_on_c, 2, 69, 0
3, 35520, Note_on_c, 2, 67, 45
3, 35568, Note_on_c, 2, 67, 0
3, 35712, Note_on_c, 2, 65, 45
3, 35760, Note_on_c, 2, 65, 0
3, 35904, Note_on_c, 2, 58, 45
3, 36064, Note_on_c, 2, 58, 0
3, 36096, Note_on_c, 2, 70, 43
3, 36256, Note_on_c, 2, 70, 0
3, 36288, Note_on_c, 2, 70, 41
3, 36448, Note_on_c, 2, 70, 0
3, 36480, Note_on_c, 2, 69, 39
3, 36528, Note_on_c, 2, 69, 0
3, 36672, Note_on_c, 2, 67, 36
3, 36720, Note_on_c, 2, 67, 0
3, 36864, Note_on_c, 2, 65, 33
3, 36912, Note_on_c, 2, 65, 0
3, 37056, Note_on_c, 2, 58, 30
3, 37216, Note_on_c, 2, 58, 0
3, 37248, Note_on_c, 2, 70, 30
3, 37408, Note_on_c, 2, 70, 0
3, 37440, Note_on_c, 2, 70, 30
3, 37600, Note_on_c, 2, 70, 0
3, 37632, Note_on_c, 2, 69, 92
3, 37792, Note_on_c, 2, 69, 0
3, 43200, Note_on_c, 2, 65, 38
3, 43776, Note_on_c, 2, 65, 0
3, 43776, Note_on_c, 2, 64, 44
3, 43968, Note_on_c, 2, 64, 0
3, 43968, Note_on_c, 2, 57, 46
3, 44352, Note_on_c, 2, 57, 0
3, 44352, Note_on_c, 2, 56, 51
3, 44544, Note_on_c, 2, 56, 0
3, 44544, Note_on_c, 2, 62, 53
3, 44928, Note_on_c, 2, 62, 0
3, 44928, Note_on_c, 2, 64, 58
3, 45280, Note_on_c, 2, 64, 0
3, 45312, Note_on_c, 2, 57, 62
3, 45504, Note_on_c, 2, 57, 0
3, 45504, Note_on_c, 2, 65, 64
3, 45856, Note_on_c, 2, 65, 0
3, 45888, Note_on_c, 2, 65, 68
3, 46080, Note_on_c, 2, 65, 0
3, 46080, Note_on_c, 2, 64, 71
3, 46240, Note_on_c, 2, 64, 0
3, 46272, Note_on_c, 2, 56, 74
3, 46464, Note_on_c, 2, 62, 77
3, 46608, Note_on_c, 2, 56, 0
3, 46624, Note_on_c, 2, 62, 0
3, 46656, Note_on_c, 2, 55, 80
3, 46656, Note_on_c, 2, 64, 80
3, 46816, Note_on_c, 2, 55, 0
3, 46816, Note_on_c, 2, 64, 0
3, 46848, Note_on_c, 2, 57, 83
3, 47008, Note_on_c, 2, 57, 0
3, 47424, Note_on_c, 2, 65, 92
3, 47472, Note_on_c, 2, 65, 0
3, 47808, Note_on_c, 2, 69, 92
3, 47856, Note_on_c, 2, 69, 0
3, 48000, Note_on_c, 2, 70, 92
3, 48048, Note_on_c, 2, 70, 0
3, 48384, Note_on_c, 2, 72, 92
3, 48544, Note_on_c, 2, 72, 0
3, 48576, Note_on_c, 2, 74, 92
3, 48736, Note_on_c, 2, 74, 0
3, 48960, Note_on_c, 2, 72, 92
3, 49120, Note_on_c, 2, 72, 0
3, 49152, Note_on_c, 2, 70, 92
3, 49312, Note_on_c, 2, 70, 0
3, 49536, Note_on_c, 2, 67, 92
3, 49696, Note_on_c, 2, 67, 0
3, 49728, Note_on_c, 2, 65, 92
3, 49888, Note_on_c, 2, 65, 0
3, 50112, Note_on_c, 2, 69, 92
3, 50272, Note_on_c, 2, 69, 0
3, 50304, Note_on_c, 2, 70, 82
3, 50464, Note_on_c, 2, 70, 0
3, 50688, Note_on_c, 2, 72, 62
3, 50848, Note_on_c, 2, 72, 0
3, 50880, Note_on_c, 2, 74, 52
3, 51040, Note_on_c, 2, 74, 0
3, 51264, Note_on_c, 2, 64, 30
3, 51264, Note_on_c, 2, 72, 30
3, 51424, Note_on_c, 2, 64, 0
3, 51424, Note_on_c, 2, 72, 0
3, 51456, Note_on_c, 2, 69, 30
3, 51456, Note_on_c, 2, 72, 30
3, 51504, Note_on_c, 2, 69, 0
3, 51504, Note_on_c, 2, 72, 0
3, 51648, Note_on_c, 2, 72, 30
3, 51696, Note_on_c, 2, 72, 0
3, 51840, Note_on_c, 2, 69, 30
3, 51888, Note_on_c, 2, 69, 0
3, 52032, Note_on_c, 2, 65, 30
3, 52080, Note_on_c, 2, 65, 0
3, 52800, Note_on_c, 2, 65, 30
3, 52800, Note_on_c, 2, 74, 30
3, 52848, Note_on_c, 2, 65, 0
3, 52848, Note_on_c, 2, 74, 0
3, 52992, Note_on_c, 2, 65, 30
3, 52992, Note_on_c, 2, 74, 30
3, 53040, Note_on_c, 2, 65, 0
3, 53040, Note_on_c, 2, 74, 0
3, 53184, Note_on_c, 2, 69, 30
3, 53344, Note_on_c, 2, 69, 0
3, 53376, Note_on_c, 2, 77, 30
3, 53536, Note_on_c, 2, 77, 0
3, 53568, Note_on_c, 2, 79, 30
3, 53728, Note_on_c, 2, 79, 0
3, 53760, Note_on_c, 2, 78, 30
3, 53920, Note_on_c, 2, 78, 0
3, 53952, Note_on_c, 2, 82, 30
3, 54112, Note_on_c, 2, 82, 0
3, 54144, Note_on_c, 2, 81, 30
3, 54304, Note_on_c, 2, 81, 0
3, 54336, Note_on_c, 2, 81, 30
3, 54384, Note_on_c, 2, 81, 0
3, 54528, Note_on_c, 2, 79, 30
3, 54576, Note_on_c, 2, 79, 0
3, 54720, Note_on_c, 2, 77, 30
3, 54768, Note_on_c, 2, 77, 0
3, 54912, Note_on_c, 2, 77, 30
3, 55104, Note_on_c, 2, 77, 0
3, 55104, Note_on_c, 2, 74, 30
3, 55264, Note_on_c, 2, 74, 0
3, 55296, Note_on_c, 2, 70, 30
3, 55296, Note_on_c, 2, 76, 30
3, 55344, Note_on_c, 2, 70, 0
3, 55344, Note_on_c, 2, 76, 0
3, 55488, Note_on_c, 2, 69, 30
3, 55536, Note_on_c, 2, 69, 0
3, 55680, Note_on_c, 2, 65, 30
3, 55728, Note_on_c, 2, 65, 0
3, 55872, Note_on_c, 2, 67, 30
3, 55920, Note_on_c, 2, 67, 0
3, 56064, Note_on_c, 2, 65, 30
3, 56224, Note_on_c, 2, 65, 0
3, 56832, Note_on_c, 2, 65, 30
3, 56992, Note_on_c, 2, 65, 0
3, 57024, Note_on_c, 2, 67, 30
3, 57184, Note_on_c, 2, 67, 0
3, 57216, Note_on_c, 2, 65, 30
3, 57376, Note_on_c, 2, 65, 0
3, 57984, Note_on_c, 2, 65, 30
3, 58144, Note_on_c, 2, 65, 0
3, 58176, Note_on_c, 2, 67, 30
3, 58336, Note_on_c, 2, 67, 0
3, 58368, Note_on_c, 2, 65, 30
3, 58528, Note_on_c, 2, 65, 0
3, 58560, Note_on_c, 2, 66, 30
3, 58720, Note_on_c, 2, 66, 0
3, 58752, Note_on_c, 2, 67, 30
3, 58912, Note_on_c, 2, 67, 0
3, 58944, Note_on_c, 2, 67, 30
3, 59104, Note_on_c, 2, 67, 0
3, 59136, Note_on_c, 2, 67, 30
3, 59296, Note_on_c, 2, 67, 0
3, 59328, Note_on_c, 2, 72, 30
3, 59488, Note_on_c, 2, 72, 0
3, 59520, Note_on_c, 2, 72, 30
3, 59680, Note_on_c, 2, 72, 0
3, 59712, Note_on_c, 2, 72, 30
3, 59872, Note_on_c, 2, 72, 0
3, 59904, Note_on_c, 2, 72, 30
3, 60064, Note_on_c, 2, 72, 0
3, 60096, Note_on_c, 2, 72, 30
3, 60144, Note_on_c, 2, 72, 0
3, 60288, Note_on_c, 2, 60, 30
3, 60336, Note_on_c, 2, 60, 0
3, 60480, Note_on_c, 2, 72, 30
3, 60528, Note_on_c, 2, 72, 0
3, 60672, Note_on_c, 2, 72, 30
3, 60864, Note_on_c, 2, 72, 0
3, 60864, Note_on_c, 2, 67, 35
3, 60864, Note_on_c, 2, 74, 35
3, 61024, Note_on_c, 2, 67, 0
3, 61024, Note_on_c, 2, 74, 0
3, 61056, Note_on_c, 2, 64, 40
3, 61104, Note_on_c, 2, 64, 0
3, 61248, Note_on_c, 2, 70, 45
3, 61440, Note_on_c, 2, 70, 0
3, 61440, Note_on_c, 2, 69, 50
3, 61600, Note_on_c, 2, 69, 0
3, 61632, Note_on_c, 2, 65, 55
3, 61632, Note_on_c, 2, 69, 55
3, 61680, Note_on_c, 2, 65, 0
3, 61680, Note_on_c, 2, 69, 0
3, 61824, Note_on_c, 2, 67, 60
3, 62016, Note_on_c, 2, 67, 0
3, 62016, Note_on_c, 2, 65, 65
3, 62176, Note_on_c, 2, 65, 0
3, 62208, Note_on_c, 2, 64, 70
3, 62256, Note_on_c, 2, 64, 0
3, 62400, Note_on_c, 2, 70, 75
3, 62448, Note_on_c, 2, 70, 0
3, 62592, Note_on_c, 2, 58, 72
3, 62640, Note_on_c, 2, 58, 0
3, 62784, Note_on_c, 2, 70, 69
3, 62832, Note_on_c, 2, 70, 0
3, 62976, Note_on_c, 2, 69, 66
3, 63024, Note_on_c, 2, 69, 0
3, 63168, Note_on_c, 2, 67, 63
3, 63216, Note_on_c, 2, 67, 0
3, 63360, Note_on_c, 2, 65, 60
3, 63408, Note_on_c, 2, 65, 0
3, 63552, Note_on_c, 2, 58, 57
3, 63712, Note_on_c, 2, 58, 0
3, 63744, Note_on_c, 2, 70, 53
3, 63904, Note_on_c, 2, 70, 0
3, 63936, Note_on_c, 2, 70, 49
3, 64096, Note_on_c, 2, 70, 0
3, 64128, Note_on_c, 2, 69, 45
3, 64176, Note_on_c, 2, 69, 0
3, 64320, Note_on_c, 2, 67, 45
3, 64368, Note_on_c, 2, 67, 0
3, 64512, Note_on_c, 2, 65, 45
3, 64560, Note_on_c, 2, 65, 0
3, 64704, Note_on_c, 2, 58, 45
3, 64864, Note_on_c, 2, 58, 0
3, 64896, Note_on_c, 2, 70, 43
3, 65056, Note_on_c, 2, 70, 0
3, 65088, Note_on_c, 2, 70, 41
3, 65248, Note_on_c, 2, 70, 0
3, 65280, Note_on_c, 2, 69, 39
3, 65328, Note_on_c, 2, 69, 0
3, 65472, Note_on_c, 2, 67, 36
3, 65520, Note_on_c, 2, 67, 0
3, 65664, Note_on_c, 2, 65, 33
3, 65712, Note_on_c, 2, 65, 0
3, 65856, Note_on_c, 2, 58, 30
3, 66016, Note_on_c, 2, 58, 0
3, 66048, Note_on_c, 2, 70, 30
3, 66208, Note_on_c, 2, 70, 0
3, 66240, Note_on_c, 2, 70, 30
3, 66400, Note_on_c, 2, 70, 0
3, 66432, Note_on_c, 2, 69, 92
3, 66592, Note_on_c, 2, 69, 0
3, 67008, Note_on_c, 2, 60, 92
3, 67168, Note_on_c, 2, 60, 0
3, 67200, Note_on_c, 2, 65, 45
3, 67200, Note_on_c, 2, 69, 45
3, 67360, Note_on_c, 2, 65, 0
3, 67360, Note_on_c, 2, 69, 0
3, 67392, Note_on_c, 2, 65, 45
3, 67392, Note_on_c, 2, 69, 45
3, 67552, Note_on_c, 2, 65, 0
3, 67552, Note_on_c, 2, 69, 0
3, 67584, Note_on_c, 2, 65, 45
3, 67584, Note_on_c, 2, 69, 45
3, 67744, Note_on_c, 2, 65, 0
3, 67744, Note_on_c, 2, 69, 0
3, 67776, Note_on_c, 2, 65, 45
3, 67776, Note_on_c, 2, 69, 45
3, 67936, Note_on_c, 2, 65, 0
3, 67936, Note_on_c, 2, 69, 0
3, 67968, Note_on_c, 2, 65, 45
3, 67968, Note_on_c, 2, 69, 45
3, 68128, Note_on_c, 2, 65, 0
3, 68128, Note_on_c, 2, 69, 0
3, 68160, Note_on_c, 2, 65, 45
3, 68160, Note_on_c, 2, 69, 45
3, 68320, Note_on_c, 2, 65, 0
3, 68320, Note_on_c, 2, 69, 0
3, 68352, Note_on_c, 2, 65, 45
3, 68352, Note_on_c, 2, 69, 45
3, 68512, Note_on_c, 2, 65, 0
3, 68512, Note_on_c, 2, 69, 0
3, 68544, Note_on_c, 2, 65, 45
3, 68544, Note_on_c, 2, 69, 45
3, 68704, Note_on_c, 2, 65, 0
3, 68704, Note_on_c, 2, 69, 0
3, 68736, Note_on_c, 2, 65, 45
3, 68736, Note_on_c, 2, 69, 45
3, 68896, Note_on_c, 2, 65, 0
3, 68896, Note_on_c, 2, 69, 0
3, 68928, Note_on_c, 2, 65, 45
3, 68928, Note_on_c, 2, 69, 45
3, 69088, Note_on_c, 2, 65, 0
3, 69088, Note_on_c, 2, 69, 0
3, 69120, Note_on_c, 2, 65, 45
3, 69120, Note_on_c, 2, 69, 45
3, 69280, Note_on_c, 2, 65, 0
3, 69280, Note_on_c, 2, 69, 0
3, 69312, Note_on_c, 2, 65, 45
3, 69312, Note_on_c, 2, 69, 45
3, 69472, Note_on_c, 2, 65, 0
3, 69472, Note_on_c, 2, 69, 0
3, 69504, Note_on_c, 2, 65, 45
3, 69664, Note_on_c, 2, 65, 0
3, 69696, Note_on_c, 2, 65, 45
3, 69856, Note_on_c, 2, 65, 0
3, 69888, Note_on_c, 2, 65, 45
3, 70048, Note_on_c, 2, 65, 0
3, 70080, Note_on_c, 2, 65, 45
3, 70240, Note_on_c, 2, 65, 0
3, 70272, Note_on_c, 2, 65, 45
3, 70432, Note_on_c, 2, 65, 0
3, 70464, Note_on_c, 2, 64, 45
3, 70624, Note_on_c, 2, 64, 0
3, 70656, Note_on_c, 2, 64, 45
3, 70816, Note_on_c, 2, 64, 0
3, 70848, Note_on_c, 2, 64, 45
3, 71008, Note_on_c, 2, 64, 0
3, 71040, Note_on_c, 2, 64, 45
3, 71200, Note_on_c, 2, 64, 0
3, 71232, Note_on_c, 2, 64, 45
3, 71392, Note_on_c, 2, 64, 0
3, 71424, Note_on_c, 2, 64, 45
3, 71584, Note_on_c, 2, 64, 0
3, 71616, Note_on_c, 2, 65, 92
3, 71616, Note_on_c, 2, 69, 92
3, 71776, Note_on_c, 2, 65, 0
3, 71776, Note_on_c, 2, 69, 0
3, 71808, Note_on_c, 2, 69, 45
3, 71808, Note_on_c, 2, 77, 45
3, 71968, Note_on_c, 2, 69, 0
3, 71968, Note_on_c, 2, 77, 0
3, 72000, Note_on_c, 2, 69, 45
3, 72000, Note_on_c, 2, 77, 45
3, 72160, Note_on_c, 2, 69, 0
3, 72160, Note_on_c, 2, 77, 0
3, 72192, Note_on_c, 2, 69, 45
3, 72192, Note_on_c, 2, 77, 45
3, 72352, Note_on_c, 2, 69, 0
3, 72352, Note_on_c, 2, 77, 0
3, 72384, Note_on_c, 2, 69, 45
3, 72384, Note_on_c, 2, 77, 45
3, 72544, Note_on_c, 2, 69, 0
3, 72544, Note_on_c, 2, 77, 0
3, 72576, Note_on_c, 2, 69, 45
3, 72576, Note_on_c, 2, 77, 45
3, 72736, Note_on_c, 2, 69, 0
3, 72736, Note_on_c, 2, 77, 0
3, 72768, Note_on_c, 2, 69, 45
3, 72768, Note_on_c, 2, 77, 45
3, 72928, Note_on_c, 2, 69, 0
3, 72928, Note_on_c, 2, 77, 0
3, 72960, Note_on_c, 2, 69, 45
3, 72960, Note_on_c, 2, 77, 45
3, 73120, Note_on_c, 2, 69, 0
3, 73120, Note_on_c, 2, 77, 0
3, 73152, Note_on_c, 2, 69, 45
3, 73152, Note_on_c, 2, 77, 45
3, 73312, Note_on_c, 2, 69, 0
3, 73312, Note_on_c, 2, 77, 0
3, 73344, Note_on_c, 2, 69, 45
3, 73344, Note_on_c, 2, 77, 45
3, 73504, Note_on_c, 2, 69, 0
3, 73504, Note_on_c, 2, 77, 0
3, 73536, Note_on_c, 2, 69, 45
3, 73536, Note_on_c, 2, 77, 45
3, 73696, Note_on_c, 2, 69, 0
3, 73696, Note_on_c, 2, 77, 0
3, 73728, Note_on_c, 2, 69, 45
3, 73728, Note_on_c, 2, 77, 45
3, 73888, Note_on_c, 2, 69, 0
3, 73888, Note_on_c, 2, 77, 0
3, 73920, Note_on_c, 2, 67, 45
3, 73920, Note_on_c, 2, 76, 45
3, 74080, Note_on_c, 2, 67, 0
3, 74080, Note_on_c, 2, 76, 0
3, 74112, Note_on_c, 2, 67, 45
3, 74112, Note_on_c, 2, 76, 45
3, 74272, Note_on_c, 2, 67, 0
3, 74272, Note_on_c, 2, 76, 0
3, 74304, Note_on_c, 2, 67, 45
3, 74304, Note_on_c, 2, 76, 45
3, 74464, Note_on_c, 2, 67, 0
3, 74464, Note_on_c, 2, 76, 0
3, 74496, Note_on_c, 2, 67, 45
3, 74496, Note_on_c, 2, 76, 45
3, 74656, Note_on_c, 2, 67, 0
3, 74656, Note_on_c, 2, 76, 0
3, 74688, Note_on_c, 2, 67, 45
3, 74688, Note_on_c, 2, 76, 45
3, 74848, Note_on_c, 2, 67, 0
3, 74848, Note_on_c, 2, 76, 0
3, 74880, Note_on_c, 2, 67, 45
3, 74880, Note_on_c, 2, 76, 45
3, 75040, Note_on_c, 2, 67, 0
3, 75040, Note_on_c, 2, 76, 0
3, 75072, Note_on_c, 2, 67, 45
3, 75072, Note_on_c, 2, 76, 45
3, 75232, Note_on_c, 2, 67, 0
3, 75232, Note_on_c, 2, 76, 0
3, 75264, Note_on_c, 2, 67, 45
3, 75264, Note_on_c, 2, 76, 45
3, 75424, Note_on_c, 2, 67, 0
3, 75424, Note_on_c, 2, 76, 0
3, 75456, Note_on_c, 2, 67, 45
3, 75456, Note_on_c, 2, 76, 45
3, 75616, Note_on_c, 2, 67, 0
3, 75616, Note_on_c, 2, 76, 0
3, 75648, Note_on_c, 2, 67, 45
3, 75648, Note_on_c, 2, 76, 45
3, 75808, Note_on_c, 2, 67, 0
3, 75808, Note_on_c, 2, 76, 0
3, 75840, Note_on_c, 2, 67, 45
3, 75840, Note_on_c, 2, 76, 45
3, 76000, Note_on_c, 2, 67, 0
3, 76000, Note_on_c, 2, 76, 0
3, 76032, Note_on_c, 2, 67, 45
3, 76032, Note_on_c, 2, 76, 45
3, 76192, Note_on_c, 2, 67, 0
3, 76192, Note_on_c, 2, 76, 0
3, 76224, Note_on_c, 2, 69, 45
3, 76224, Note_on_c, 2, 77, 45
3, 76384, Note_on_c, 2, 69, 0
3, 76384, Note_on_c, 2, 77, 0
3, 76992, Note_on_c, 2, 64, 45
3, 77088, Note_on_c, 2, 64, 0
3, 77088, Note_on_c, 2, 62, 46
3, 77184, Note_on_c, 2, 62, 0
3, 77184, Note_on_c, 2, 64, 47
3, 77280, Note_on_c, 2, 64, 0
3, 77280, Note_on_c, 2, 65, 48
3, 77374, Note_on_c, 2, 65, 0
3, 77376, Note_on_c, 2, 67, 49
3, 77536, Note_on_c, 2, 67, 0
3, 78144, Note_on_c, 2, 67, 57
3, 78240, Note_on_c, 2, 67, 0
3, 78240, Note_on_c, 2, 65, 58
3, 78336, Note_on_c, 2, 65, 0
3, 78336, Note_on_c, 2, 67, 59
3, 78432, Note_on_c, 2, 67, 0
3, 78432, Note_on_c, 2, 69, 60
3, 78526, Note_on_c, 2, 69, 0
3, 78528, Note_on_c, 2, 70, 61
3, 78688, Note_on_c, 2, 70, 0
3, 79296, Note_on_c, 2, 67, 75
3, 79392, Note_on_c, 2, 67, 0
3, 79392, Note_on_c, 2, 65, 68
3, 79488, Note_on_c, 2, 65, 0
3, 79488, Note_on_c, 2, 67, 61
3, 79584, Note_on_c, 2, 67, 0
3, 79584, Note_on_c, 2, 69, 53
3, 79678, Note_on_c, 2, 69, 0
3, 79680, Note_on_c, 2, 70, 45
3, 79840, Note_on_c, 2, 70, 0
3, 80064, Note_on_c, 2, 77, 45
3, 80224, Note_on_c, 2, 77, 0
3, 80256, Note_on_c, 2, 76, 45
3, 80784, Note_on_c, 2, 76, 0
3, 80832, Note_on_c, 2, 65, 45
3, 80880, Note_on_c, 2, 65, 0
3, 81024, Note_on_c, 2, 81, 45
3, 81120, Note_on_c, 2, 81, 0
3, 81120, Note_on_c, 2, 80, 48
3, 81216, Note_on_c, 2, 80, 0
3, 81216, Note_on_c, 2, 81, 51
3, 81312, Note_on_c, 2, 81, 0
3, 81312, Note_on_c, 2, 83, 54
3, 81406, Note_on_c, 2, 83, 0
3, 81408, Note_on_c, 2, 84, 57
3, 81568, Note_on_c, 2, 84, 0
3, 81600, Note_on_c, 2, 67, 63
3, 81696, Note_on_c, 2, 67, 0
3, 81696, Note_on_c, 2, 65, 66
3, 81792, Note_on_c, 2, 65, 0
3, 81792, Note_on_c, 2, 67, 69
3, 81888, Note_on_c, 2, 67, 0
3, 81888, Note_on_c, 2, 69, 72
3, 81982, Note_on_c, 2, 69, 0
3, 81984, Note_on_c, 2, 70, 45
3, 82144, Note_on_c, 2, 70, 0
3, 82368, Note_on_c, 2, 77, 45
3, 82528, Note_on_c, 2, 77, 0
3, 82560, Note_on_c, 2, 76, 45
3, 83088, Note_on_c, 2, 76, 0
3, 83136, Note_on_c, 2, 76, 45
3, 83296, Note_on_c, 2, 76, 0
3, 83520, Note_on_c, 2, 76, 45
3, 83680, Note_on_c, 2, 76, 0
3, 83712, Note_on_c, 2, 74, 45
3, 84240, Note_on_c, 2, 74, 0
3, 84288, Note_on_c, 2, 74, 92
3, 84448, Note_on_c, 2, 74, 0
3, 84480, Note_on_c, 2, 74, 45
3, 84480, Note_on_c, 2, 83, 45
3, 84640, Note_on_c, 2, 74, 0
3, 84640, Note_on_c, 2, 83, 0
3, 84672, Note_on_c, 2, 74, 45
3, 84672, Note_on_c, 2, 83, 45
3, 84832, Note_on_c, 2, 74, 0
3, 84832, Note_on_c, 2, 83, 0
3, 84864, Note_on_c, 2, 74, 45
3, 84864, Note_on_c, 2, 83, 45
3, 85024, Note_on_c, 2, 74, 0
3, 85024, Note_on_c, 2, 83, 0
3, 85056, Note_on_c, 2, 74, 45
3, 85056, Note_on_c, 2, 83, 45
3, 85216, Note_on_c, 2, 74, 0
3, 85216, Note_on_c, 2, 83, 0
3, 85248, Note_on_c, 2, 74, 45
3, 85248, Note_on_c, 2, 83, 45
3, 85408, Note_on_c, 2, 74, 0
3, 85408, Note_on_c, 2, 83, 0
3, 85440, Note_on_c, 2, 74, 45
3, 85440, Note_on_c, 2, 83, 45
3, 85600, Note_on_c, 2, 74, 0
3, 85600, Note_on_c, 2, 83, 0
3, 85632, Note_on_c, 2, 74, 45
3, 85632, Note_on_c, 2, 83, 45
3, 85792, Note_on_c, 2, 74, 0
3, 85792, Note_on_c, 2, 83, 0
3, 85824, Note_on_c, 2, 74, 45
3, 85824, Note_on_c, 2, 83, 45
3, 85984, Note_on_c, 2, 74, 0
3, 85984, Note_on_c, 2, 83, 0
3, 86016, Note_on_c, 2, 74, 45
3, 86016, Note_on_c, 2, 84, 45
3, 86176, Note_on_c, 2, 74, 0
3, 86176, Note_on_c, 2, 84, 0
3, 86208, Note_on_c, 2, 74, 45
3, 86208, Note_on_c, 2, 84, 45
3, 86368, Note_on_c, 2, 74, 0
3, 86368, Note_on_c, 2, 84, 0
3, 86400, Note_on_c, 2, 74, 45
3, 86400, Note_on_c, 2, 84, 45
3, 86560, Note_on_c, 2, 74, 0
3, 86560, Note_on_c, 2, 84, 0
3, 86592, Note_on_c, 2, 74, 45
3, 86592, Note_on_c, 2, 84, 45
3, 86752, Note_on_c, 2, 74, 0
3, 86752, Note_on_c, 2, 84, 0
3, 86784, Note_on_c, 2, 74, 45
3, 86784, Note_on_c, 2, 84, 45
3, 86944, Note_on_c, 2, 74, 0
3, 86944, Note_on_c, 2, 84, 0
3, 86976, Note_on_c, 2, 74, 45
3, 86976, Note_on_c, 2, 84, 45
3, 87136, Note_on_c, 2, 74, 0
3, 87136, Note_on_c, 2, 84, 0
3, 87168, Note_on_c, 2, 74, 45
3, 87168, Note_on_c, 2, 84, 45
3, 87328, Note_on_c, 2, 74, 0
3, 87328, Note_on_c, 2, 84, 0
3, 87360, Note_on_c, 2, 74, 45
3, 87360, Note_on_c, 2, 84, 45
3, 87520, Note_on_c, 2, 74, 0
3, 87520, Note_on_c, 2, 84, 0
3, 87552, Note_on_c, 2, 74, 45
3, 87552, Note_on_c, 2, 84, 45
3, 87712, Note_on_c, 2, 74, 0
3, 87712, Note_on_c, 2, 84, 0
3, 87744, Note_on_c, 2, 74, 45
3, 87744, Note_on_c, 2, 84, 45
3, 87904, Note_on_c, 2, 74, 0
3, 87904, Note_on_c, 2, 84, 0
3, 87936, Note_on_c, 2, 74, 45
3, 87936, Note_on_c, 2, 84, 45
3, 88096, Note_on_c, 2, 74, 0
3, 88096, Note_on_c, 2, 84, 0
3, 88128, Note_on_c, 2, 74, 45
3, 88128, Note_on_c, 2, 84, 45
3, 88288, Note_on_c, 2, 74, 0
3, 88288, Note_on_c, 2, 84, 0
3, 88320, Note_on_c, 2, 74, 45
3, 88320, Note_on_c, 2, 84, 45
3, 88480, Note_on_c, 2, 74, 0
3, 88480, Note_on_c, 2, 84, 0
3, 88512, Note_on_c, 2, 74, 45
3, 88512, Note_on_c, 2, 84, 45
3, 88672, Note_on_c, 2, 74, 0
3, 88672, Note_on_c, 2, 84, 0
3, 88704, Note_on_c, 2, 74, 45
3, 88704, Note_on_c, 2, 84, 45
3, 88864, Note_on_c, 2, 74, 0
3, 88864, Note_on_c, 2, 84, 0
3, 88896, Note_on_c, 2, 74, 92
3, 88896, Note_on_c, 2, 83, 92
3, 89056, Note_on_c, 2, 74, 0
3, 89056, Note_on_c, 2, 83, 0
3, 89088, Note_on_c, 2, 74, 45
3, 89088, Note_on_c, 2, 83, 45
3, 89248, Note_on_c, 2, 74, 0
3, 89248, Note_on_c, 2, 83, 0
3, 89280, Note_on_c, 2, 74, 45
3, 89280, Note_on_c, 2, 83, 45
3, 89440, Note_on_c, 2, 74, 0
3, 89440, Note_on_c, 2, 83, 0
3, 89472, Note_on_c, 2, 74, 45
3, 89472, Note_on_c, 2, 83, 45
3, 89632, Note_on_c, 2, 74, 0
3, 89632, Note_on_c, 2, 83, 0
3, 89664, Note_on_c, 2, 74, 45
3, 89664, Note_on_c, 2, 83, 45
3, 89824, Note_on_c, 2, 74, 0
3, 89824, Note_on_c, 2, 83, 0
3, 89856, Note_on_c, 2, 74, 45
3, 89856, Note_on_c, 2, 83, 45
3, 90016, Note_on_c, 2, 74, 0
3, 90016, Note_on_c, 2, 83, 0
3, 90048, Note_on_c, 2, 74, 45
3, 90048, Note_on_c, 2, 83, 45
3, 90208, Note_on_c, 2, 74, 0
3, 90208, Note_on_c, 2, 83, 0
3, 90240, Note_on_c, 2, 74, 45
3, 90240, Note_on_c, 2, 83, 45
3, 90400, Note_on_c, 2, 74, 0
3, 90400, Note_on_c, 2, 83, 0
3, 90432, Note_on_c, 2, 74, 45
3, 90432, Note_on_c, 2, 83, 45
3, 90592, Note_on_c, 2, 74, 0
3, 90592, Note_on_c, 2, 83, 0
3, 90624, Note_on_c, 2, 74, 45
3, 90624, Note_on_c, 2, 83, 45
3, 90784, Note_on_c, 2, 74, 0
3, 90784, Note_on_c, 2, 83, 0
3, 90816, Note_on_c, 2, 74, 45
3, 90816, Note_on_c, 2, 83, 45
3, 90976, Note_on_c, 2, 74, 0
3, 90976, Note_on_c, 2, 83, 0
3, 91008, Note_on_c, 2, 74, 45
3, 91008, Note_on_c, 2, 83, 45
3, 91168, Note_on_c, 2, 74, 0
3, 91168, Note_on_c, 2, 83, 0
3, 91200, Note_on_c, 2, 74, 45
3, 91200, Note_on_c, 2, 83, 45
3, 91360, Note_on_c, 2, 74, 0
3, 91360, Note_on_c, 2, 83, 0
3, 91392, Note_on_c, 2, 74, 45
3, 91392, Note_on_c, 2, 83, 45
3, 91552, Note_on_c, 2, 74, 0
3, 91552, Note_on_c, 2, 83, 0
3, 91584, Note_on_c, 2, 74, 45
3, 91584, Note_on_c, 2, 83, 45
3, 91744, Note_on_c, 2, 74, 0
3, 91744, Note_on_c, 2, 83, 0
3, 91776, Note_on_c, 2, 74, 45
3, 91776, Note_on_c, 2, 83, 45
3, 91936, Note_on_c, 2, 74, 0
3, 91936, Note_on_c, 2, 83, 0
3, 91968, Note_on_c, 2, 74, 45
3, 91968, Note_on_c, 2, 83, 45
3, 92128, Note_on_c, 2, 74, 0
3, 92128, Note_on_c, 2, 83, 0
3, 92160, Note_on_c, 2, 74, 45
3, 92160, Note_on_c, 2, 83, 45
3, 92320, Note_on_c, 2, 74, 0
3, 92320, Note_on_c, 2, 83, 0
3, 92352, Note_on_c, 2, 74, 45
3, 92352, Note_on_c, 2, 83, 45
3, 92512, Note_on_c, 2, 74, 0
3, 92512, Note_on_c, 2, 83, 0
3, 92544, Note_on_c, 2, 76, 45
3, 92544, Note_on_c, 2, 83, 45
3, 92704, Note_on_c, 2, 76, 0
3, 92704, Note_on_c, 2, 83, 0
3, 92736, Note_on_c, 2, 76, 44
3, 92736, Note_on_c, 2, 83, 44
3, 92896, Note_on_c, 2, 76, 0
3, 92896, Note_on_c, 2, 83, 0
3, 92928, Note_on_c, 2, 76, 43
3, 92928, Note_on_c, 2, 83, 43
3, 93088, Note_on_c, 2, 76, 0
3, 93088, Note_on_c, 2, 83, 0
3, 93120, Note_on_c, 2, 76, 42
3, 93120, Note_on_c, 2, 83, 42
3, 93280, Note_on_c, 2, 76, 0
3, 93280, Note_on_c, 2, 83, 0
3, 93312, Note_on_c, 2, 76, 41
3, 93312, Note_on_c, 2, 83, 41
3, 93472, Note_on_c, 2, 76, 0
3, 93472, Note_on_c, 2, 83, 0
3, 93504, Note_on_c, 2, 76, 40
3, 93504, Note_on_c, 2, 84, 40
3, 93664, Note_on_c, 2, 76, 0
3, 93664, Note_on_c, 2, 84, 0
3, 93696, Note_on_c, 2, 76, 39
3, 93696, Note_on_c, 2, 84, 39
3, 93856, Note_on_c, 2, 76, 0
3, 93856, Note_on_c, 2, 84, 0
3, 93888, Note_on_c, 2, 76, 38
3, 93888, Note_on_c, 2, 84, 38
3, 94048, Note_on_c, 2, 76, 0
3, 94048, Note_on_c, 2, 84, 0
3, 94080, Note_on_c, 2, 76, 36
3, 94080, Note_on_c, 2, 84, 36
3, 94240, Note_on_c, 2, 76, 0
3, 94240, Note_on_c, 2, 84, 0
3, 94272, Note_on_c, 2, 76, 34
3, 94272, Note_on_c, 2, 84, 34
3, 94432, Note_on_c, 2, 76, 0
3, 94432, Note_on_c, 2, 84, 0
3, 94464, Note_on_c, 2, 76, 32
3, 94464, Note_on_c, 2, 83, 32
3, 94624, Note_on_c, 2, 76, 0
3, 94624, Note_on_c, 2, 83, 0
3, 94656, Note_on_c, 2, 76, 30
3, 94656, Note_on_c, 2, 83, 30
3, 94816, Note_on_c, 2, 76, 0
3, 94816, Note_on_c, 2, 83, 0
3, 94848, Note_on_c, 2, 76, 30
3, 94848, Note_on_c, 2, 83, 30
3, 95008, Note_on_c, 2, 76, 0
3, 95008, Note_on_c, 2, 83, 0
3, 95040, Note_on_c, 2, 76, 30
3, 95040, Note_on_c, 2, 83, 30
3, 95200, Note_on_c, 2, 76, 0
3, 95200, Note_on_c, 2, 83, 0
3, 95232, Note_on_c, 2, 76, 30
3, 95232, Note_on_c, 2, 83, 30
3, 95392, Note_on_c, 2, 76, 0
3, 95392, Note_on_c, 2, 83, 0
3, 95424, Note_on_c, 2, 76, 30
3, 95424, Note_on_c, 2, 83, 30
3, 95584, Note_on_c, 2, 76, 0
3, 95584, Note_on_c, 2, 83, 0
3, 95616, Note_on_c, 2, 76, 30
3, 95616, Note_on_c, 2, 83, 30
3, 95776, Note_on_c, 2, 76, 0
3, 95776, Note_on_c, 2, 83, 0
3, 95808, Note_on_c, 2, 76, 30
3, 95808, Note_on_c, 2, 83, 30
3, 95968, Note_on_c, 2, 76, 0
3, 95968, Note_on_c, 2, 83, 0
3, 96000, Note_on_c, 2, 76, 30
3, 96000, Note_on_c, 2, 83, 30
3, 96160, Note_on_c, 2, 76, 0
3, 96160, Note_on_c, 2, 83, 0
3, 96192, Note_on_c, 2, 76, 30
3, 96192, Note_on_c, 2, 83, 30
3, 96352, Note_on_c, 2, 76, 0
3, 96352, Note_on_c, 2, 83, 0
3, 96384, Note_on_c, 2, 76, 30
3, 96384, Note_on_c, 2, 83, 30
3, 96544, Note_on_c, 2, 76, 0
3, 96544, Note_on_c, 2, 83, 0
3, 96576, Note_on_c, 2, 76, 30
3, 96576, Note_on_c, 2, 83, 30
3, 96736, Note_on_c, 2, 76, 0
3, 96736, Note_on_c, 2, 83, 0
3, 96768, Note_on_c, 2, 76, 30
3, 96768, Note_on_c, 2, 83, 30
3, 96928, Note_on_c, 2, 76, 0
3, 96928, Note_on_c, 2, 83, 0
3, 96960, Note_on_c, 2, 76, 30
3, 96960, Note_on_c, 2, 83, 30
3, 97120, Note_on_c, 2, 76, 0
3, 97120, Note_on_c, 2, 83, 0
3, 97152, Note_on_c, 2, 76, 30
3, 97152, Note_on_c, 2, 80, 30
3, 97312, Note_on_c, 2, 76, 0
3, 97312, Note_on_c, 2, 80, 0
3, 97344, Note_on_c, 2, 76, 35
3, 97344, Note_on_c, 2, 80, 35
3, 97504, Note_on_c, 2, 76, 0
3, 97504, Note_on_c, 2, 80, 0
3, 97536, Note_on_c, 2, 76, 40
3, 97536, Note_on_c, 2, 80, 40
3, 97696, Note_on_c, 2, 76, 0
3, 97696, Note_on_c, 2, 80, 0
3, 97728, Note_on_c, 2, 76, 45
3, 97728, Note_on_c, 2, 80, 45
3, 97888, Note_on_c, 2, 76, 0
3, 97888, Note_on_c, 2, 80, 0
3, 97920, Note_on_c, 2, 76, 50
3, 97920, Note_on_c, 2, 80, 50
3, 98080, Note_on_c, 2, 76, 0
3, 98080, Note_on_c, 2, 80, 0
3, 98112, Note_on_c, 2, 76, 56
3, 98112, Note_on_c, 2, 80, 56
3, 98272, Note_on_c, 2, 76, 0
3, 98272, Note_on_c, 2, 80, 0
3, 98304, Note_on_c, 2, 76, 62
3, 98304, Note_on_c, 2, 80, 62
3, 98464, Note_on_c, 2, 76, 0
3, 98464, Note_on_c, 2, 80, 0
3, 98496, Note_on_c, 2, 76, 68
3, 98496, Note_on_c, 2, 80, 68
3, 98656, Note_on_c, 2, 76, 0
3, 98656, Note_on_c, 2, 80, 0
3, 98688, Note_on_c, 2, 76, 74
3, 98688, Note_on_c, 2, 80, 74
3, 98848, Note_on_c, 2, 76, 0
3, 98848, Note_on_c, 2, 80, 0
3, 98880, Note_on_c, 2, 66, 80
3, 98976, Note_on_c, 2, 66, 0
3, 98976, Note_on_c, 2, 64, 83
3, 99072, Note_on_c, 2, 64, 0
3, 99072, Note_on_c, 2, 66, 86
3, 99168, Note_on_c, 2, 66, 0
3, 99168, Note_on_c, 2, 68, 89
3, 99262, Note_on_c, 2, 68, 0
3, 99264, Note_on_c, 2, 69, 92
3, 99424, Note_on_c, 2, 69, 0
3, 99456, Note_on_c, 2, 85, 45
3, 99616, Note_on_c, 2, 85, 0
3, 99648, Note_on_c, 2, 85, 45
3, 99808, Note_on_c, 2, 85, 0
3, 99840, Note_on_c, 2, 76, 45
3, 99840, Note_on_c, 2, 85, 45
3, 100000, Note_on_c, 2, 76, 0
3, 100000, Note_on_c, 2, 85, 0
3, 100032, Note_on_c, 2, 76, 45
3, 100032, Note_on_c, 2, 85, 45
3, 100192, Note_on_c, 2, 76, 0
3, 100192, Note_on_c, 2, 85, 0
3, 100224, Note_on_c, 2, 76, 45
3, 100224, Note_on_c, 2, 85, 45
3, 100384, Note_on_c, 2, 76, 0
3, 100384, Note_on_c, 2, 85, 0
3, 100416, Note_on_c, 2, 76, 45
3, 100416, Note_on_c, 2, 85, 45
3, 100576, Note_on_c, 2, 76, 0
3, 100576, Note_on_c, 2, 85, 0
3, 100608, Note_on_c, 2, 76, 45
3, 100608, Note_on_c, 2, 85, 45
3, 100768, Note_on_c, 2, 76, 0
3, 100768, Note_on_c, 2, 85, 0
3, 100800, Note_on_c, 2, 76, 45
3, 100800, Note_on_c, 2, 85, 45
3, 100960, Note_on_c, 2, 76, 0
3, 100960, Note_on_c, 2, 85, 0
3, 100992, Note_on_c, 2, 76, 45
3, 100992, Note_on_c, 2, 86, 45
3, 101152, Note_on_c, 2, 76, 0
3, 101152, Note_on_c, 2, 86, 0
3, 101184, Note_on_c, 2, 76, 45
3, 101184, Note_on_c, 2, 86, 45
3, 101344, Note_on_c, 2, 76, 0
3, 101344, Note_on_c, 2, 86, 0
3, 101376, Note_on_c, 2, 76, 45
3, 101376, Note_on_c, 2, 86, 45
3, 101536, Note_on_c, 2, 76, 0
3, 101536, Note_on_c, 2, 86, 0
3, 101568, Note_on_c, 2, 76, 45
3, 101568, Note_on_c, 2, 86, 45
3, 101728, Note_on_c, 2, 76, 0
3, 101728, Note_on_c, 2, 86, 0
3, 101760, Note_on_c, 2, 76, 45
3, 101760, Note_on_c, 2, 86, 45
3, 101920, Note_on_c, 2, 76, 0
3, 101920, Note_on_c, 2, 86, 0
3, 101952, Note_on_c, 2, 76, 45
3, 101952, Note_on_c, 2, 86, 45
3, 102112, Note_on_c, 2, 76, 0
3, 102112, Note_on_c, 2, 86, 0
3, 102144, Note_on_c, 2, 76, 45
3, 102144, Note_on_c, 2, 86, 45
3, 102304, Note_on_c, 2, 76, 0
3, 102304, Note_on_c, 2, 86, 0
3, 102336, Note_on_c, 2, 76, 45
3, 102336, Note_on_c, 2, 86, 45
3, 102496, Note_on_c, 2, 76, 0
3, 102496, Note_on_c, 2, 86, 0
3, 102528, Note_on_c, 2, 76, 45
3, 102528, Note_on_c, 2, 86, 45
3, 102688, Note_on_c, 2, 76, 0
3, 102688, Note_on_c, 2, 86, 0
3, 102720, Note_on_c, 2, 76, 45
3, 102720, Note_on_c, 2, 83, 45
3, 102880, Note_on_c, 2, 76, 0
3, 102880, Note_on_c, 2, 83, 0
3, 102912, Note_on_c, 2, 71, 45
3, 103008, Note_on_c, 2, 71, 0
3, 103008, Note_on_c, 2, 69, 45
3, 103104, Note_on_c, 2, 69, 0
3, 103104, Note_on_c, 2, 71, 45
3, 103200, Note_on_c, 2, 71, 0
3, 103200, Note_on_c, 2, 73, 45
3, 103294, Note_on_c, 2, 73, 0
3, 103296, Note_on_c, 2, 74, 45
3, 103344, Note_on_c, 2, 74, 0
3, 103488, Note_on_c, 2, 71, 45
3, 103584, Note_on_c, 2, 71, 0
3, 103584, Note_on_c, 2, 69, 45
3, 103680, Note_on_c, 2, 69, 0
3, 103680, Note_on_c, 2, 71, 45
3, 103776, Note_on_c, 2, 71, 0
3, 103776, Note_on_c, 2, 73, 45
3, 103870, Note_on_c, 2, 73, 0
3, 103872, Note_on_c, 2, 73, 92
3, 103920, Note_on_c, 2, 73, 0
3, 104064, Note_on_c, 2, 73, 45
3, 104064, Note_on_c, 2, 81, 45
3, 104224, Note_on_c, 2, 73, 0
3, 104224, Note_on_c, 2, 81, 0
3, 104256, Note_on_c, 2, 73, 45
3, 104256, Note_on_c, 2, 81, 45
3, 104416, Note_on_c, 2, 73, 0
3, 104416, Note_on_c, 2, 81, 0
3, 104448, Note_on_c, 2, 73, 45
3, 104448, Note_on_c, 2, 81, 45
3, 104608, Note_on_c, 2, 73, 0
3, 104608, Note_on_c, 2, 81, 0
3, 104640, Note_on_c, 2, 73, 45
3, 104640, Note_on_c, 2, 81, 45
3, 104800, Note_on_c, 2, 73, 0
3, 104800, Note_on_c, 2, 81, 0
3, 104832, Note_on_c, 2, 73, 45
3, 104832, Note_on_c, 2, 81, 45
3, 104992, Note_on_c, 2, 73, 0
3, 104992, Note_on_c, 2, 81, 0
3, 105024, Note_on_c, 2, 73, 45
3, 105024, Note_on_c, 2, 81, 45
3, 105184, Note_on_c, 2, 73, 0
3, 105184, Note_on_c, 2, 81, 0
3, 105216, Note_on_c, 2, 68, 45
3, 105312, Note_on_c, 2, 68, 0
3, 105312, Note_on_c, 2, 66, 45
3, 105408, Note_on_c, 2, 66, 0
3, 105408, Note_on_c, 2, 68, 45
3, 105504, Note_on_c, 2, 68, 0
3, 105504, Note_on_c, 2, 69, 45
3, 105598, Note_on_c, 2, 69, 0
3, 105600, Note_on_c, 2, 71, 45
3, 105648, Note_on_c, 2, 71, 0
3, 105792, Note_on_c, 2, 73, 45
3, 105840, Note_on_c, 2, 73, 0
3, 105984, Note_on_c, 2, 74, 45
3, 106032, Note_on_c, 2, 74, 0
3, 106176, Note_on_c, 2, 71, 45
3, 106224, Note_on_c, 2, 71, 0
3, 106368, Note_on_c, 2, 69, 45
3, 106416, Note_on_c, 2, 69, 0
3, 106560, Note_on_c, 2, 74, 45
3, 106608, Note_on_c, 2, 74, 0
3, 106752, Note_on_c, 2, 74, 45
3, 106912, Note_on_c, 2, 74, 0
3, 106944, Note_on_c, 2, 74, 45
3, 107104, Note_on_c, 2, 74, 0
3, 107136, Note_on_c, 2, 74, 45
3, 107296, Note_on_c, 2, 74, 0
3, 107328, Note_on_c, 2, 74, 45
3, 107488, Note_on_c, 2, 74, 0
3, 107520, Note_on_c, 2, 74, 45
3, 107520, Note_on_c, 2, 83, 45
3, 107680, Note_on_c, 2, 74, 0
3, 107680, Note_on_c, 2, 83, 0
3, 107712, Note_on_c, 2, 74, 45
3, 107712, Note_on_c, 2, 83, 45
3, 107872, Note_on_c, 2, 74, 0
3, 107872, Note_on_c, 2, 83, 0
3, 107904, Note_on_c, 2, 74, 45
3, 107904, Note_on_c, 2, 83, 45
3, 108064, Note_on_c, 2, 74, 0
3, 108064, Note_on_c, 2, 83, 0
3, 108096, Note_on_c, 2, 74, 45
3, 108096, Note_on_c, 2, 83, 45
3, 108256, Note_on_c, 2, 74, 0
3, 108256, Note_on_c, 2, 83, 0
3, 108288, Note_on_c, 2, 74, 45
3, 108288, Note_on_c, 2, 83, 45
3, 108448, Note_on_c, 2, 74, 0
3, 108448, Note_on_c, 2, 83, 0
3, 108480, Note_on_c, 2, 74, 45
3, 108480, Note_on_c, 2, 83, 45
3, 108640, Note_on_c, 2, 74, 0
3, 108640, Note_on_c, 2, 83, 0
3, 108672, Note_on_c, 2, 74, 48
3, 108672, Note_on_c, 2, 83, 48
3, 108832, Note_on_c, 2, 74, 0
3, 108832, Note_on_c, 2, 83, 0
3, 108864, Note_on_c, 2, 74, 52
3, 108864, Note_on_c, 2, 83, 52
3, 109024, Note_on_c, 2, 74, 0
3, 109024, Note_on_c, 2, 83, 0
3, 109056, Note_on_c, 2, 74, 56
3, 109104, Note_on_c, 2, 74, 0
3, 109248, Note_on_c, 2, 59, 60
3, 109344, Note_on_c, 2, 59, 0
3, 109344, Note_on_c, 2, 57, 62
3, 109440, Note_on_c, 2, 57, 0
3, 109440, Note_on_c, 2, 59, 64
3, 109536, Note_on_c, 2, 59, 0
3, 109536, Note_on_c, 2, 61, 66
3, 109630, Note_on_c, 2, 61, 0
3, 109632, Note_on_c, 2, 62, 68
3, 109680, Note_on_c, 2, 62, 0
3, 109824, Note_on_c, 2, 68, 72
3, 109920, Note_on_c, 2, 68, 0
3, 109920, Note_on_c, 2, 66, 74
3, 110016, Note_on_c, 2, 66, 0
3, 110016, Note_on_c, 2, 68, 76
3, 110112, Note_on_c, 2, 68, 0
3, 110112, Note_on_c, 2, 69, 78
3, 110206, Note_on_c, 2, 69, 0
3, 110208, Note_on_c, 2, 68, 80
3, 110256, Note_on_c, 2, 68, 0
3, 110400, Note_on_c, 2, 66, 84
3, 110496, Note_on_c, 2, 66, 0
3, 110496, Note_on_c, 2, 64, 86
3, 110592, Note_on_c, 2, 64, 0
3, 110592, Note_on_c, 2, 66, 88
3, 110688, Note_on_c, 2, 66, 0
3, 110688, Note_on_c, 2, 68, 90
3, 110782, Note_on_c, 2, 68, 0
3, 110784, Note_on_c, 2, 69, 92
3, 110832, Note_on_c, 2, 69, 0
3, 110976, Note_on_c, 2, 66, 92
3, 111072, Note_on_c, 2, 66, 0
3, 111072, Note_on_c, 2, 64, 92
3, 111168, Note_on_c, 2, 64, 0
3, 111168, Note_on_c, 2, 66, 92
3, 111264, Note_on_c, 2, 66, 0
3, 111264, Note_on_c, 2, 68, 92
3, 111358, Note_on_c, 2, 68, 0
3, 111552, Note_on_c, 2, 66, 92
3, 111648, Note_on_c, 2, 66, 0
3, 111648, Note_on_c, 2, 64, 92
3, 111744, Note_on_c, 2, 64, 0
3, 111744, Note_on_c, 2, 66, 92
3, 111840, Note_on_c, 2, 66, 0
3, 111840, Note_on_c, 2, 68, 92
3, 111934, Note_on_c, 2, 68, 0
3, 111936, Note_on_c, 2, 69, 92
3, 112096, Note_on_c, 2, 69, 0
3, 112128, Note_on_c, 2, 66, 92
3, 112224, Note_on_c, 2, 66, 0
3, 112224, Note_on_c, 2, 64, 92
3, 112320, Note_on_c, 2, 64, 0
3, 112320, Note_on_c, 2, 66, 92
3, 112416, Note_on_c, 2, 66, 0
3, 112416, Note_on_c, 2, 68, 92
3, 112510, Note_on_c, 2, 68, 0
3, 112512, Note_on_c, 2, 69, 92
3, 112672, Note_on_c, 2, 69, 0
3, 112704, Note_on_c, 2, 66, 92
3, 112800, Note_on_c, 2, 66, 0
3, 112800, Note_on_c, 2, 64, 92
3, 112896, Note_on_c, 2, 64, 0
3, 112896, Note_on_c, 2, 66, 92
3, 112992, Note_on_c, 2, 66, 0
3, 112992, Note_on_c, 2, 68, 92
3, 113086, Note_on_c, 2, 68, 0
3, 113088, Note_on_c, 2, 69, 92
3, 113248, Note_on_c, 2, 69, 0
3, 113280, Note_on_c, 2, 66, 92
3, 113376, Note_on_c, 2, 66, 0
3, 113376, Note_on_c, 2, 64, 92
3, 113472, Note_on_c, 2, 64, 0
3, 113472, Note_on_c, 2, 66, 92
3, 113568, Note_on_c, 2, 66, 0
3, 113568, Note_on_c, 2, 68, 92
3, 113662, Note_on_c, 2, 68, 0
3, 113664, Note_on_c, 2, 69, 92
3, 113824, Note_on_c, 2, 69, 0
3, 113856, Note_on_c, 2, 66, 92
3, 113952, Note_on_c, 2, 66, 0
3, 113952, Note_on_c, 2, 64, 92
3, 114048, Note_on_c, 2, 64, 0
3, 114048, Note_on_c, 2, 66, 92
3, 114144, Note_on_c, 2, 66, 0
3, 114144, Note_on_c, 2, 68, 92
3, 114238, Note_on_c, 2, 68, 0
3, 114240, Note_on_c, 2, 69, 92
3, 114400, Note_on_c, 2, 69, 0
3, 114432, Note_on_c, 2, 66, 92
3, 114528, Note_on_c, 2, 66, 0
3, 114528, Note_on_c, 2, 64, 92
3, 114624, Note_on_c, 2, 64, 0
3, 114624, Note_on_c, 2, 66, 92
3, 114720, Note_on_c, 2, 66, 0
3, 114720, Note_on_c, 2, 68, 92
3, 114814, Note_on_c, 2, 68, 0
3, 114816, Note_on_c, 2, 69, 92
3, 114976, Note_on_c, 2, 69, 0
3, 115008, Note_on_c, 2, 66, 92
3, 115104, Note_on_c, 2, 66, 0
3, 115104, Note_on_c, 2, 64, 92
3, 115200, Note_on_c, 2, 64, 0
3, 115200, Note_on_c, 2, 66, 92
3, 115296, Note_on_c, 2, 66, 0
3, 115296, Note_on_c, 2, 68, 92
3, 115390, Note_on_c, 2, 68, 0
3, 115392, Note_on_c, 2, 69, 92
3, 115552, Note_on_c, 2, 69, 0
3, 115584, Note_on_c, 2, 66, 92
3, 115680, Note_on_c, 2, 66, 0
3, 115680, Note_on_c, 2, 64, 92
3, 115776, Note_on_c, 2, 64, 0
3, 115776, Note_on_c, 2, 66, 92
3, 115872, Note_on_c, 2, 66, 0
3, 115872, Note_on_c, 2, 68, 92
3, 115966, Note_on_c, 2, 68, 0
3, 116160, Note_on_c, 2, 66, 92
3, 116256, Note_on_c, 2, 66, 0
3, 116256, Note_on_c, 2, 64, 92
3, 116352, Note_on_c, 2, 64, 0
3, 116352, Note_on_c, 2, 66, 92
3, 116448, Note_on_c, 2, 66, 0
3, 116448, Note_on_c, 2, 68, 92
3, 116542, Note_on_c, 2, 68, 0
3, 116544, Note_on_c, 2, 69, 92
3, 116704, Note_on_c, 2, 69, 0
3, 116736, Note_on_c, 2, 66, 92
3, 116832, Note_on_c, 2, 66, 0
3, 116832, Note_on_c, 2, 64, 92
3, 116928, Note_on_c, 2, 64, 0
3, 116928, Note_on_c, 2, 66, 92
3, 117024, Note_on_c, 2, 66, 0
3, 117024, Note_on_c, 2, 68, 92
3, 117118, Note_on_c, 2, 68, 0
3, 117120, Note_on_c, 2, 69, 92
3, 117280, Note_on_c, 2, 69, 0
3, 117312, Note_on_c, 2, 66, 92
3, 117408, Note_on_c, 2, 66, 0
3, 117408, Note_on_c, 2, 64, 92
3, 117504, Note_on_c, 2, 64, 0
3, 117504, Note_on_c, 2, 66, 92
3, 117600, Note_on_c, 2, 66, 0
3, 117600, Note_on_c, 2, 68, 92
3, 117694, Note_on_c, 2, 68, 0
3, 117696, Note_on_c, 2, 69, 92
3, 117856, Note_on_c, 2, 69, 0
3, 117888, Note_on_c, 2, 66, 92
3, 117984, Note_on_c, 2, 66, 0
3, 117984, Note_on_c, 2, 64, 92
3, 118080, Note_on_c, 2, 64, 0
3, 118080, Note_on_c, 2, 66, 92
3, 118176, Note_on_c, 2, 66, 0
3, 118176, Note_on_c, 2, 68, 92
3, 118270, Note_on_c, 2, 68, 0
3, 118272, Note_on_c, 2, 69, 92
3, 118432, Note_on_c, 2, 69, 0
3, 118464, Note_on_c, 2, 66, 92
3, 118560, Note_on_c, 2, 66, 0
3, 118560, Note_on_c, 2, 64, 92
3, 118656, Note_on_c, 2, 64, 0
3, 118656, Note_on_c, 2, 66, 92
3, 118752, Note_on_c, 2, 66, 0
3, 118752, Note_on_c, 2, 68, 92
3, 118846, Note_on_c, 2, 68, 0
3, 118848, Note_on_c, 2, 69, 92
3, 119008, Note_on_c, 2, 69, 0
3, 119040, Note_on_c, 2, 66, 92
3, 119136, Note_on_c, 2, 66, 0
3, 119136, Note_on_c, 2, 64, 92
3, 119232, Note_on_c, 2, 64, 0
3, 119232, Note_on_c, 2, 66, 92
3, 119328, Note_on_c, 2, 66, 0
3, 119328, Note_on_c, 2, 68, 92
3, 119422, Note_on_c, 2, 68, 0
3, 119424, Note_on_c, 2, 69, 92
3, 119584, Note_on_c, 2, 69, 0
3, 119616, Note_on_c, 2, 66, 92
3, 119712, Note_on_c, 2, 66, 0
3, 119712, Note_on_c, 2, 64, 92
3, 119808, Note_on_c, 2, 64, 0
3, 119808, Note_on_c, 2, 66, 92
3, 119904, Note_on_c, 2, 66, 0
3, 119904, Note_on_c, 2, 68, 92
3, 119998, Note_on_c, 2, 68, 0
3, 120000, Note_on_c, 2, 69, 92
3, 120160, Note_on_c, 2, 69, 0
3, 120192, Note_on_c, 2, 66, 92
3, 120288, Note_on_c, 2, 66, 0
3, 120288, Note_on_c, 2, 64, 92
3, 120384, Note_on_c, 2, 64, 0
3, 120384, Note_on_c, 2, 66, 92
3, 120480, Note_on_c, 2, 66, 0
3, 120480, Note_on_c, 2, 68, 92
3, 120574, Note_on_c, 2, 68, 0
3, 120576, Note_on_c, 2, 69, 92
3, 120736, Note_on_c, 2, 69, 0
3, 120768, Note_on_c, 2, 66, 92
3, 120864, Note_on_c, 2, 66, 0
3, 120864, Note_on_c, 2, 64, 92
3, 120960, Note_on_c, 2, 64, 0
3, 120960, Note_on_c, 2, 66, 92
3, 121056, Note_on_c, 2, 66, 0
3, 121056, Note_on_c, 2, 68, 92
3, 121150, Note_on_c, 2, 68, 0
3, 121152, Note_on_c, 2, 69, 92
3, 121312, Note_on_c, 2, 69, 0
3, 121344, Note_on_c, 2, 66, 92
3, 121440, Note_on_c, 2, 66, 0
3, 121440, Note_on_c, 2, 64, 92
3, 121536, Note_on_c, 2, 64, 0
3, 121536, Note_on_c, 2, 66, 92
3, 121632, Note_on_c, 2, 66, 0
3, 121632, Note_on_c, 2, 68, 92
3, 121726, Note_on_c, 2, 68, 0
3, 121728, Note_on_c, 2, 69, 92
3, 121888, Note_on_c, 2, 69, 0
3, 121920, Note_on_c, 2, 66, 92
3, 122016, Note_on_c, 2, 66, 0
3, 122016, Note_on_c, 2, 64, 92
3, 122112, Note_on_c, 2, 64, 0
3, 122112, Note_on_c, 2, 66, 92
3, 122208, Note_on_c, 2, 66, 0
3, 122208, Note_on_c, 2, 68, 92
3, 122302, Note_on_c, 2, 68, 0
3, 122304, Note_on_c, 2, 69, 92
3, 122464, Note_on_c, 2, 69, 0
3, 122496, Note_on_c, 2, 66, 92
3, 122592, Note_on_c, 2, 66, 0
3, 122592, Note_on_c, 2, 64, 92
3, 122688, Note_on_c, 2, 64, 0
3, 122688, Note_on_c, 2, 66, 92
3, 122784, Note_on_c, 2, 66, 0
3, 122784, Note_on_c, 2, 68, 92
3, 122878, Note_on_c, 2, 68, 0
3, 122880, Note_on_c, 2, 69, 92
3, 123040, Note_on_c, 2, 69, 0
3, 123072, Note_on_c, 2, 66, 92
3, 123168, Note_on_c, 2, 66, 0
3, 123168, Note_on_c, 2, 64, 92
3, 123264, Note_on_c, 2, 64, 0
3, 123264, Note_on_c, 2, 66, 92
3, 123360, Note_on_c, 2, 66, 0
3, 123360, Note_on_c, 2, 68, 92
3, 123454, Note_on_c, 2, 68, 0
3, 123456, Note_on_c, 2, 69, 92
3, 123616, Note_on_c, 2, 69, 0
3, 123648, Note_on_c, 2, 66, 92
3, 123744, Note_on_c, 2, 66, 0
3, 123744, Note_on_c, 2, 64, 92
3, 123840, Note_on_c, 2, 64, 0
3, 123840, Note_on_c, 2, 66, 92
3, 123936, Note_on_c, 2, 66, 0
3, 123936, Note_on_c, 2, 68, 92
3, 124030, Note_on_c, 2, 68, 0
3, 124032, Note_on_c, 2, 69, 92
3, 124192, Note_on_c, 2, 69, 0
3, 124224, Note_on_c, 2, 66, 92
3, 124320, Note_on_c, 2, 66, 0
3, 124320, Note_on_c, 2, 64, 92
3, 124416, Note_on_c, 2, 64, 0
3, 124416, Note_on_c, 2, 66, 92
3, 124512, Note_on_c, 2, 66, 0
3, 124512, Note_on_c, 2, 68, 92
3, 124606, Note_on_c, 2, 68, 0
3, 124608, Note_on_c, 2, 69, 92
3, 124768, Note_on_c, 2, 69, 0
3, 124800, Note_on_c, 2, 66, 92
3, 124896, Note_on_c, 2, 66, 0
3, 124896, Note_on_c, 2, 64, 92
3, 124992, Note_on_c, 2, 64, 0
3, 124992, Note_on_c, 2, 66, 92
3, 125088, Note_on_c, 2, 66, 0
3, 125088, Note_on_c, 2, 68, 92
3, 125182, Note_on_c, 2, 68, 0
3, 125184, Note_on_c, 2, 69, 92
3, 125344, Note_on_c, 2, 69, 0
3, 125376, Note_on_c, 2, 66, 92
3, 125472, Note_on_c, 2, 66, 0
3, 125472, Note_on_c, 2, 64, 92
3, 125568, Note_on_c, 2, 64, 0
3, 125568, Note_on_c, 2, 66, 92
3, 125664, Note_on_c, 2, 66, 0
3, 125664, Note_on_c, 2, 68, 92
3, 125758, Note_on_c, 2, 68, 0
3, 125760, Note_on_c, 2, 69, 92
3, 125920, Note_on_c, 2, 69, 0
3, 125952, Note_on_c, 2, 66, 92
3, 126048, Note_on_c, 2, 66, 0
3, 126048, Note_on_c, 2, 64, 92
3, 126144, Note_on_c, 2, 64, 0
3, 126144, Note_on_c, 2, 66, 92
3, 126240, Note_on_c, 2, 66, 0
3, 126240, Note_on_c, 2, 68, 92
3, 126334, Note_on_c, 2, 68, 0
3, 126336, Note_on_c, 2, 69, 92
3, 126496, Note_on_c, 2, 69, 0
3, 126528, Note_on_c, 2, 66, 92
3, 126624, Note_on_c, 2, 66, 0
3, 126624, Note_on_c, 2, 64, 92
3, 126720, Note_on_c, 2, 64, 0
3, 126720, Note_on_c, 2, 66, 92
3, 126816, Note_on_c, 2, 66, 0
3, 126816, Note_on_c, 2, 68, 92
3, 126910, Note_on_c, 2, 68, 0
3, 126912, Note_on_c, 2, 69, 92
3, 127072, Note_on_c, 2, 69, 0
3, 127104, Note_on_c, 2, 66, 92
3, 127200, Note_on_c, 2, 66, 0
3, 127200, Note_on_c, 2, 64, 92
3, 127296, Note_on_c, 2, 64, 0
3, 127296, Note_on_c, 2, 66, 92
3, 127392, Note_on_c, 2, 66, 0
3, 127392, Note_on_c, 2, 68, 92
3, 127486, Note_on_c, 2, 68, 0
3, 127488, Note_on_c, 2, 69, 92
3, 127648, Note_on_c, 2, 69, 0
3, 127680, Note_on_c, 2, 66, 92
3, 127776, Note_on_c, 2, 66, 0
3, 127776, Note_on_c, 2, 64, 92
3, 127872, Note_on_c, 2, 64, 0
3, 127872, Note_on_c, 2, 66, 92
3, 127968, Note_on_c, 2, 66, 0
3, 127968, Note_on_c, 2, 68, 92
3, 128062, Note_on_c, 2, 68, 0
3, 128064, Note_on_c, 2, 69, 92
3, 128224, Note_on_c, 2, 69, 0
3, 128256, Note_on_c, 2, 66, 92
3, 128352, Note_on_c, 2, 66, 0
3, 128352, Note_on_c, 2, 64, 92
3, 128448, Note_on_c, 2, 64, 0
3, 128448, Note_on_c, 2, 66, 92
3, 128544, Note_on_c, 2, 66, 0
3, 128544, Note_on_c, 2, 68, 92
3, 128638, Note_on_c, 2, 68, 0
3, 128640, Note_on_c, 2, 69, 92
3, 128800, Note_on_c, 2, 69, 0
3, 128832, Note_on_c, 2, 66, 92
3, 128928, Note_on_c, 2, 66, 0
3, 128928, Note_on_c, 2, 64, 92
3, 129024, Note_on_c, 2, 64, 0
3, 129024, Note_on_c, 2, 66, 92
3, 129120, Note_on_c, 2, 66, 0
3, 129120, Note_on_c, 2, 68, 92
3, 129214, Note_on_c, 2, 68, 0
3, 129216, Note_on_c, 2, 69, 92
3, 129376, Note_on_c, 2, 69, 0
3, 129408, Note_on_c, 2, 66, 89
3, 129504, Note_on_c, 2, 66, 0
3, 129504, Note_on_c, 2, 64, 87
3, 129600, Note_on_c, 2, 64, 0
3, 129600, Note_on_c, 2, 66, 85
3, 129696, Note_on_c, 2, 66, 0
3, 129696, Note_on_c, 2, 68, 83
3, 129790, Note_on_c, 2, 68, 0
3, 129792, Note_on_c, 2, 69, 81
3, 129952, Note_on_c, 2, 69, 0
3, 129984, Note_on_c, 2, 66, 77
3, 130080, Note_on_c, 2, 66, 0
3, 130080, Note_on_c, 2, 64, 75
3, 130176, Note_on_c, 2, 64, 0
3, 130176, Note_on_c, 2, 66, 73
3, 130272, Note_on_c, 2, 66, 0
3, 130272, Note_on_c, 2, 68, 71
3, 130366, Note_on_c, 2, 68, 0
3, 130368, Note_on_c, 2, 69, 69
3, 130528, Note_on_c, 2, 69, 0
3, 130560, Note_on_c, 2, 66, 65
3, 130656, Note_on_c, 2, 66, 0
3, 130656, Note_on_c, 2, 64, 63
3, 130752, Note_on_c, 2, 64, 0
3, 130752, Note_on_c, 2, 66, 61
3, 130848, Note_on_c, 2, 66, 0
3, 130848, Note_on_c, 2, 68, 59
3, 130942, Note_on_c, 2, 68, 0
3, 130944, Note_on_c, 2, 69, 57
3, 131104, Note_on_c, 2, 69, 0
3, 131136, Note_on_c, 2, 66, 53
3, 131232, Note_on_c, 2, 66, 0
3, 131232, Note_on_c, 2, 64, 51
3, 131328, Note_on_c, 2, 64, 0
3, 131328, Note_on_c, 2, 66, 49
3, 131424, Note_on_c, 2, 66, 0
3, 131424, Note_on_c, 2, 68, 47
3, 131518, Note_on_c, 2, 68, 0
3, 131520, Note_on_c, 2, 69, 45
3, 131680, Note_on_c, 2, 69, 0
3, 131712, Note_on_c, 2, 66, 45
3, 131808, Note_on_c, 2, 66, 0
3, 131808, Note_on_c, 2, 64, 45
3, 131904, Note_on_c, 2, 64, 0
3, 131904, Note_on_c, 2, 66, 45
3, 132000, Note_on_c, 2, 66, 0
3, 132000, Note_on_c, 2, 68, 45
3, 132094, Note_on_c, 2, 68, 0
3, 132096, Note_on_c, 2, 69, 45
3, 132256, Note_on_c, 2, 69, 0
3, 132288, Note_on_c, 2, 66, 45
3, 132384, Note_on_c, 2, 66, 0
3, 132384, Note_on_c, 2, 64, 45
3, 132480, Note_on_c, 2, 64, 0
3, 132480, Note_on_c, 2, 66, 45
3, 132576, Note_on_c, 2, 66, 0
3, 132576, Note_on_c, 2, 68, 45
3, 132670, Note_on_c, 2, 68, 0
3, 132672, Note_on_c, 2, 69, 45
3, 132832, Note_on_c, 2, 69, 0
3, 132864, Note_on_c, 2, 66, 44
3, 132960, Note_on_c, 2, 66, 0
3, 132960, Note_on_c, 2, 64, 44
3, 133056, Note_on_c, 2, 64, 0
3, 133056, Note_on_c, 2, 66, 44
3, 133152, Note_on_c, 2, 66, 0
3, 133152, Note_on_c, 2, 68, 44
3, 133246, Note_on_c, 2, 68, 0
3, 133248, Note_on_c, 2, 69, 44
3, 133408, Note_on_c, 2, 69, 0
3, 133440, Note_on_c, 2, 66, 43
3, 133536, Note_on_c, 2, 66, 0
3, 133536, Note_on_c, 2, 64, 43
3, 133632, Note_on_c, 2, 64, 0
3, 133632, Note_on_c, 2, 66, 43
3, 133728, Note_on_c, 2, 66, 0
3, 133728, Note_on_c, 2, 68, 43
3, 133822, Note_on_c, 2, 68, 0
3, 133824, Note_on_c, 2, 69, 43
3, 133984, Note_on_c, 2, 69, 0
3, 134016, Note_on_c, 2, 66, 42
3, 134112, Note_on_c, 2, 66, 0
3, 134112, Note_on_c, 2, 64, 42
3, 134208, Note_on_c, 2, 64, 0
3, 134208, Note_on_c, 2, 66, 42
3, 134304, Note_on_c, 2, 66, 0
3, 134304, Note_on_c, 2, 68, 42
3, 134398, Note_on_c, 2, 68, 0
3, 134400, Note_on_c, 2, 69, 42
3, 134560, Note_on_c, 2, 69, 0
3, 134592, Note_on_c, 2, 66, 40
3, 134688, Note_on_c, 2, 66, 0
3, 134688, Note_on_c, 2, 64, 39
3, 134784, Note_on_c, 2, 64, 0
3, 134784, Note_on_c, 2, 66, 38
3, 134880, Note_on_c, 2, 66, 0
3, 134880, Note_on_c, 2, 68, 37
3, 134974, Note_on_c, 2, 68, 0
3, 134976, Note_on_c, 2, 69, 36
3, 135136, Note_on_c, 2, 69, 0
3, 135168, Note_on_c, 2, 66, 34
3, 135264, Note_on_c, 2, 66, 0
3, 135264, Note_on_c, 2, 64, 33
3, 135360, Note_on_c, 2, 64, 0
3, 135360, Note_on_c, 2, 66, 32
3, 135456, Note_on_c, 2, 66, 0
3, 135456, Note_on_c, 2, 68, 31
3, 135550, Note_on_c, 2, 68, 0
3, 135552, Note_on_c, 2, 69, 30
3, 135712, Note_on_c, 2, 69, 0
3, 135744, Note_on_c, 2, 66, 30
3, 135840, Note_on_c, 2, 66, 0
3, 135840, Note_on_c, 2, 64, 30
3, 135936, Note_on_c, 2, 64, 0
3, 135936, Note_on_c, 2, 66, 30
3, 136032, Note_on_c, 2, 66, 0
3, 136032, Note_on_c, 2, 68, 30
3, 136126, Note_on_c, 2, 68, 0
3, 136320, Note_on_c, 2, 66, 30
3, 136416, Note_on_c, 2, 66, 0
3, 136416, Note_on_c, 2, 64, 30
3, 136512, Note_on_c, 2, 64, 0
3, 136512, Note_on_c, 2, 66, 30
3, 136608, Note_on_c, 2, 66, 0
3, 136608, Note_on_c, 2, 68, 30
3, 136702, Note_on_c, 2, 68, 0
3, 136896, Note_on_c, 2, 66, 30
3, 136992, Note_on_c, 2, 66, 0
3, 136992, Note_on_c, 2, 64, 30
3, 137088, Note_on_c, 2, 64, 0
3, 137088, Note_on_c, 2, 66, 30
3, 137184, Note_on_c, 2, 66, 0
3, 137184, Note_on_c, 2, 68, 30
3, 137278, Note_on_c, 2, 68, 0
3, 137280, Note_on_c, 2, 69, 30
3, 137440, Note_on_c, 2, 69, 0
3, 142080, Note_on_c, 2, 67, 30
3, 142656, Note_on_c, 2, 67, 0
3, 142656, Note_on_c, 2, 79, 30
3, 143232, Note_on_c, 2, 79, 0
3, 143232, Note_on_c, 2, 67, 30
3, 143776, Note_on_c, 2, 67, 0
3, 144000, Note_on_c, 2, 60, 30
3, 144528, Note_on_c, 2, 60, 0
3, 144576, Note_on_c, 2, 60, 45
3, 145104, Note_on_c, 2, 60, 0
3, 145152, Note_on_c, 2, 60, 45
3, 145680, Note_on_c, 2, 60, 0
3, 145728, Note_on_c, 2, 60, 45
3, 146256, Note_on_c, 2, 60, 0
3, 146304, Note_on_c, 2, 60, 45
3, 146832, Note_on_c, 2, 60, 0
3, 146880, Note_on_c, 2, 60, 45
3, 147408, Note_on_c, 2, 60, 0
3, 147456, Note_on_c, 2, 60, 45
3, 147616, Note_on_c, 2, 60, 0
3, 147648, Note_on_c, 2, 57, 45
3, 147696, Note_on_c, 2, 57, 0
3, 147840, Note_on_c, 2, 57, 45
3, 147888, Note_on_c, 2, 57, 0
3, 148032, Note_on_c, 2, 64, 45
3, 148080, Note_on_c, 2, 64, 0
3, 148224, Note_on_c, 2, 57, 45
3, 148272, Note_on_c, 2, 57, 0
3, 148416, Note_on_c, 2, 77, 30
3, 148464, Note_on_c, 2, 77, 0
3, 148608, Note_on_c, 2, 79, 30
3, 148656, Note_on_c, 2, 79, 0
3, 148800, Note_on_c, 2, 77, 30
3, 148848, Note_on_c, 2, 77, 0
3, 148992, Note_on_c, 2, 81, 30
3, 149536, Note_on_c, 2, 81, 0
3, 149568, Note_on_c, 2, 79, 30
3, 150112, Note_on_c, 2, 79, 0
3, 150144, Note_on_c, 2, 77, 30
3, 150688, Note_on_c, 2, 77, 0
3, 150720, Note_on_c, 2, 79, 30
3, 151264, Note_on_c, 2, 79, 0
3, 151296, Note_on_c, 2, 81, 30
3, 151840, Note_on_c, 2, 81, 0
3, 151872, Note_on_c, 2, 79, 30
3, 152304, Note_on_c, 2, 79, 0
3, 152448, Note_on_c, 2, 77, 30
3, 152496, Note_on_c, 2, 77, 0
3, 152640, Note_on_c, 2, 79, 30
3, 152688, Note_on_c, 2, 79, 0
3, 152832, Note_on_c, 2, 77, 30
3, 152880, Note_on_c, 2, 77, 0
3, 158400, Note_on_c, 2, 65, 38
3, 158976, Note_on_c, 2, 65, 0
3, 158976, Note_on_c, 2, 64, 44
3, 159168, Note_on_c, 2, 64, 0
3, 159168, Note_on_c, 2, 57, 46
3, 159552, Note_on_c, 2, 57, 0
3, 159552, Note_on_c, 2, 56, 51
3, 159744, Note_on_c, 2, 56, 0
3, 159744, Note_on_c, 2, 62, 53
3, 160128, Note_on_c, 2, 62, 0
3, 160128, Note_on_c, 2, 64, 58
3, 160480, Note_on_c, 2, 64, 0
3, 160512, Note_on_c, 2, 57, 62
3, 160704, Note_on_c, 2, 57, 0
3, 160704, Note_on_c, 2, 65, 64
3, 161056, Note_on_c, 2, 65, 0
3, 161088, Note_on_c, 2, 65, 68
3, 161280, Note_on_c, 2, 65, 0
3, 161280, Note_on_c, 2, 64, 71
3, 161440, Note_on_c, 2, 64, 0
3, 161472, Note_on_c, 2, 56, 74
3, 161664, Note_on_c, 2, 62, 77
3, 161808, Note_on_c, 2, 56, 0
3, 161824, Note_on_c, 2, 62, 0
3, 161856, Note_on_c, 2, 55, 80
3, 161856, Note_on_c, 2, 64, 80
3, 162016, Note_on_c, 2, 55, 0
3, 162016, Note_on_c, 2, 64, 0
3, 162048, Note_on_c, 2, 57, 83
3, 162208, Note_on_c, 2, 57, 0
3, 162624, Note_on_c, 2, 65, 92
3, 162672, Note_on_c, 2, 65, 0
3, 163008, Note_on_c, 2, 69, 92
3, 163056, Note_on_c, 2, 69, 0
3, 163200, Note_on_c, 2, 70, 92
3, 163248, Note_on_c, 2, 70, 0
3, 163584, Note_on_c, 2, 72, 92
3, 163744, Note_on_c, 2, 72, 0
3, 163776, Note_on_c, 2, 74, 92
3, 163936, Note_on_c, 2, 74, 0
3, 164160, Note_on_c, 2, 72, 92
3, 164320, Note_on_c, 2, 72, 0
3, 164352, Note_on_c, 2, 70, 92
3, 164512, Note_on_c, 2, 70, 0
3, 164736, Note_on_c, 2, 67, 92
3, 164896, Note_on_c, 2, 67, 0
3, 164928, Note_on_c, 2, 65, 92
3, 165088, Note_on_c, 2, 65, 0
3, 165312, Note_on_c, 2, 69, 92
3, 165472, Note_on_c, 2, 69, 0
3, 165504, Note_on_c, 2, 70, 82
3, 165664, Note_on_c, 2, 70, 0
3, 165888, Note_on_c, 2, 72, 62
3, 166048, Note_on_c, 2, 72, 0
3, 166080, Note_on_c, 2, 74, 52
3, 166240, Note_on_c, 2, 74, 0
3, 166464, Note_on_c, 2, 64, 30
3, 166464, Note_on_c, 2, 72, 30
3, 166624, Note_on_c, 2, 64, 0
3, 166624, Note_on_c, 2, 72, 0
3, 166656, Note_on_c, 2, 69, 30
3, 166656, Note_on_c, 2, 72, 30
3, 166704, Note_on_c, 2, 69, 0
3, 166704, Note_on_c, 2, 72, 0
3, 166848, Note_on_c, 2, 72, 30
3, 166896, Note_on_c, 2, 72, 0
3, 167040, Note_on_c, 2, 69, 30
3, 167088, Note_on_c, 2, 69, 0
3, 167232, Note_on_c, 2, 65, 30
3, 167280, Note_on_c, 2, 65, 0
3, 168000, Note_on_c, 2, 65, 30
3, 168000, Note_on_c, 2, 74, 30
3, 168048, Note_on_c, 2, 65, 0
3, 168048, Note_on_c, 2, 74, 0
3, 168192, Note_on_c, 2, 65, 30
3, 168192, Note_on_c, 2, 74, 30
3, 168240, Note_on_c, 2, 65, 0
3, 168240, Note_on_c, 2, 74, 0
3, 168384, Note_on_c, 2, 69, 30
3, 168544, Note_on_c, 2, 69, 0
3, 168576, Note_on_c, 2, 77, 30
3, 168736, Note_on_c, 2, 77, 0
3, 168768, Note_on_c, 2, 79, 30
3, 168928, Note_on_c, 2, 79, 0
3, 168960, Note_on_c, 2, 78, 30
3, 169120, Note_on_c, 2, 78, 0
3, 169152, Note_on_c, 2, 82, 30
3, 169312, Note_on_c, 2, 82, 0
3, 169344, Note_on_c, 2, 81, 30
3, 169504, Note_on_c, 2, 81, 0
3, 169536, Note_on_c, 2, 81, 30
3, 169584, Note_on_c, 2, 81, 0
3, 169728, Note_on_c, 2, 79, 30
3, 169776, Note_on_c, 2, 79, 0
3, 169920, Note_on_c, 2, 77, 30
3, 169968, Note_on_c, 2, 77, 0
3, 170112, Note_on_c, 2, 77, 30
3, 170304, Note_on_c, 2, 77, 0
3, 170304, Note_on_c, 2, 74, 30
3, 170464, Note_on_c, 2, 74, 0
3, 170496, Note_on_c, 2, 70, 30
3, 170496, Note_on_c, 2, 76, 30
3, 170544, Note_on_c, 2, 70, 0
3, 170544, Note_on_c, 2, 76, 0
3, 170688, Note_on_c, 2, 69, 30
3, 170736, Note_on_c, 2, 69, 0
3, 170880, Note_on_c, 2, 65, 30
3, 170928, Note_on_c, 2, 65, 0
3, 171072, Note_on_c, 2, 67, 30
3, 171120, Note_on_c, 2, 67, 0
3, 171264, Note_on_c, 2, 65, 30
3, 171424, Note_on_c, 2, 65, 0
3, 172032, Note_on_c, 2, 65, 30
3, 172192, Note_on_c, 2, 65, 0
3, 172224, Note_on_c, 2, 67, 30
3, 172384, Note_on_c, 2, 67, 0
3, 172416, Note_on_c, 2, 65, 30
3, 172576, Note_on_c, 2, 65, 0
3, 173184, Note_on_c, 2, 65, 30
3, 173344, Note_on_c, 2, 65, 0
3, 173376, Note_on_c, 2, 67, 30
3, 173536, Note_on_c, 2, 67, 0
3, 173568, Note_on_c, 2, 65, 30
3, 173728, Note_on_c, 2, 65, 0
3, 173760, Note_on_c, 2, 66, 30
3, 173920, Note_on_c, 2, 66, 0
3, 173952, Note_on_c, 2, 67, 30
3, 174112, Note_on_c, 2, 67, 0
3, 174144, Note_on_c, 2, 67, 30
3, 174304, Note_on_c, 2, 67, 0
3, 174336, Note_on_c, 2, 67, 30
3, 174496, Note_on_c, 2, 67, 0
3, 174528, Note_on_c, 2, 72, 30
3, 174688, Note_on_c, 2, 72, 0
3, 174720, Note_on_c, 2, 72, 30
3, 174880, Note_on_c, 2, 72, 0
3, 174912, Note_on_c, 2, 72, 30
3, 175072, Note_on_c, 2, 72, 0
3, 175104, Note_on_c, 2, 72, 30
3, 175264, Note_on_c, 2, 72, 0
3, 175296, Note_on_c, 2, 72, 30
3, 175344, Note_on_c, 2, 72, 0
3, 175488, Note_on_c, 2, 60, 30
3, 175536, Note_on_c, 2, 60, 0
3, 175680, Note_on_c, 2, 72, 30
3, 175728, Note_on_c, 2, 72, 0
3, 175872, Note_on_c, 2, 72, 30
3, 176064, Note_on_c, 2, 72, 0
3, 176064, Note_on_c, 2, 67, 35
3, 176064, Note_on_c, 2, 74, 35
3, 176224, Note_on_c, 2, 67, 0
3, 176224, Note_on_c, 2, 74, 0
3, 176256, Note_on_c, 2, 64, 40
3, 176304, Note_on_c, 2, 64, 0
3, 176448, Note_on_c, 2, 70, 45
3, 176640, Note_on_c, 2, 70, 0
3, 176640, Note_on_c, 2, 69, 50
3, 176800, Note_on_c, 2, 69, 0
3, 176832, Note_on_c, 2, 65, 55
3, 176832, Note_on_c, 2, 69, 55
3, 176880, Note_on_c, 2, 65, 0
3, 176880, Note_on_c, 2, 69, 0
3, 177024, Note_on_c, 2, 67, 60
3, 177216, Note_on_c, 2, 67, 0
3, 177216, Note_on_c, 2, 65, 65
3, 177376, Note_on_c, 2, 65, 0
3, 177408, Note_on_c, 2, 64, 70
3, 177456, Note_on_c, 2, 64, 0
3, 177600, Note_on_c, 2, 70, 75
3, 177648, Note_on_c, 2, 70, 0
3, 177792, Note_on_c, 2, 58, 72
3, 177840, Note_on_c, 2, 58, 0
3, 177984, Note_on_c, 2, 70, 69
3, 178032, Note_on_c, 2, 70, 0
3, 178176, Note_on_c, 2, 69, 66
3, 178224, Note_on_c, 2, 69, 0
3, 178368, Note_on_c, 2, 67, 63
3, 178416, Note_on_c, 2, 67, 0
3, 178560, Note_on_c, 2, 65, 60
3, 178608, Note_on_c, 2, 65, 0
3, 178752, Note_on_c, 2, 58, 57
3, 178912, Note_on_c, 2, 58, 0
3, 178944, Note_on_c, 2, 70, 53
3, 179104, Note_on_c, 2, 70, 0
3, 179136, Note_on_c, 2, 70, 49
3, 179296, Note_on_c, 2, 70, 0
3, 179328, Note_on_c, 2, 69, 45
3, 179376, Note_on_c, 2, 69, 0
3, 179520, Note_on_c, 2, 67, 45
3, 179568, Note_on_c, 2, 67, 0
3, 179712, Note_on_c, 2, 65, 45
3, 179760, Note_on_c, 2, 65, 0
3, 179904, Note_on_c, 2, 58, 45
3, 180064, Note_on_c, 2, 58, 0
3, 180096, Note_on_c, 2, 70, 43
3, 180256, Note_on_c, 2, 70, 0
3, 180288, Note_on_c, 2, 70, 41
3, 180448, Note_on_c, 2, 70, 0
3, 180480, Note_on_c, 2, 69, 39
3, 180528, Note_on_c, 2, 69, 0
3, 180672, Note_on_c, 2, 67, 36
3, 180720, Note_on_c, 2, 67, 0
3, 180864, Note_on_c, 2, 65, 33
3, 180912, Note_on_c, 2, 65, 0
3, 181056, Note_on_c, 2, 58, 30
3, 181216, Note_on_c, 2, 58, 0
3, 181248, Note_on_c, 2, 70, 30
3, 181408, Note_on_c, 2, 70, 0
3, 181440, Note_on_c, 2, 70, 30
3, 181600, Note_on_c, 2, 70, 0
3, 181632, Note_on_c, 2, 69, 92
3, 181792, Note_on_c, 2, 69, 0
3, 187200, Note_on_c, 2, 65, 38
3, 187776, Note_on_c, 2, 65, 0
3, 187776, Note_on_c, 2, 64, 44
3, 187968, Note_on_c, 2, 64, 0
3, 187968, Note_on_c, 2, 57, 46
3, 188352, Note_on_c, 2, 57, 0
3, 188352, Note_on_c, 2, 56, 51
3, 188544, Note_on_c, 2, 56, 0
3, 188544, Note_on_c, 2, 62, 53
3, 188928, Note_on_c, 2, 62, 0
3, 188928, Note_on_c, 2, 64, 58
3, 189280, Note_on_c, 2, 64, 0
3, 189312, Note_on_c, 2, 57, 62
3, 189504, Note_on_c, 2, 57, 0
3, 189504, Note_on_c, 2, 65, 64
3, 189856, Note_on_c, 2, 65, 0
3, 189888, Note_on_c, 2, 65, 68
3, 190080, Note_on_c, 2, 65, 0
3, 190080, Note_on_c, 2, 64, 71
3, 190240, Note_on_c, 2, 64, 0
3, 190272, Note_on_c, 2, 56, 74
3, 190464, Note_on_c, 2, 62, 77
3, 190608, Note_on_c, 2, 56, 0
3, 190624, Note_on_c, 2, 62, 0
3, 190656, Note_on_c, 2, 55, 80
3, 190656, Note_on_c, 2, 64, 80
3, 190816, Note_on_c, 2, 55, 0
3, 190816, Note_on_c, 2, 64, 0
3, 190848, Note_on_c, 2, 57, 83
3, 191008, Note_on_c, 2, 57, 0
3, 191424, Note_on_c, 2, 65, 92
3, 191472, Note_on_c, 2, 65, 0
3, 191808, Note_on_c, 2, 69, 92
3, 191856, Note_on_c, 2, 69, 0
3, 192000, Note_on_c, 2, 70, 92
3, 192048, Note_on_c, 2, 70, 0
3, 192384, Note_on_c, 2, 72, 92
3, 192544, Note_on_c, 2, 72, 0
3, 192576, Note_on_c, 2, 74, 92
3, 192736, Note_on_c, 2, 74, 0
3, 192960, Note_on_c, 2, 72, 92
3, 193120, Note_on_c, 2, 72, 0
3, 193152, Note_on_c, 2, 70, 92
3, 193312, Note_on_c, 2, 70, 0
3, 193536, Note_on_c, 2, 67, 92
3, 193696, Note_on_c, 2, 67, 0
3, 193728, Note_on_c, 2, 65, 92
3, 193888, Note_on_c, 2, 65, 0
3, 194112, Note_on_c, 2, 69, 92
3, 194272, Note_on_c, 2, 69, 0
3, 194304, Note_on_c, 2, 70, 82
3, 194464, Note_on_c, 2, 70, 0
3, 194688, Note_on_c, 2, 72, 62
3, 194848, Note_on_c, 2, 72, 0
3, 194880, Note_on_c, 2, 74, 52
3, 195040, Note_on_c, 2, 74, 0
3, 195264, Note_on_c, 2, 64, 30
3, 195264, Note_on_c, 2, 72, 30
3, 195424, Note_on_c, 2, 64, 0
3, 195424, Note_on_c, 2, 72, 0
3, 195456, Note_on_c, 2, 69, 30
3, 195456, Note_on_c, 2, 72, 30
3, 195504, Note_on_c, 2, 69, 0
3, 195504, Note_on_c, 2, 72, 0
3, 195648, Note_on_c, 2, 72, 30
3, 195696, Note_on_c, 2, 72, 0
3, 195840, Note_on_c, 2, 69, 30
3, 195888, Note_on_c, 2, 69, 0
3, 196032, Note_on_c, 2, 65, 30
3, 196080, Note_on_c, 2, 65, 0
3, 196800, Note_on_c, 2, 65, 30
3, 196800, Note_on_c, 2, 74, 30
3, 196848, Note_on_c, 2, 65, 0
3, 196848, Note_on_c, 2, 74, 0
3, 196992, Note_on_c, 2, 65, 30
3, 196992, Note_on_c, 2, 74, 30
3, 197040, Note_on_c, 2, 65, 0
3, 197040, Note_on_c, 2, 74, 0
3, 197184, Note_on_c, 2, 69, 30
3, 197344, Note_on_c, 2, 69, 0
3, 197376, Note_on_c, 2, 77, 30
3, 197536, Note_on_c, 2, 77, 0
3, 197568, Note_on_c, 2, 79, 30
3, 197728, Note_on_c, 2, 79, 0
3, 197760, Note_on_c, 2, 78, 30
3, 197920, Note_on_c, 2, 78, 0
3, 197952, Note_on_c, 2, 82, 30
3, 198112, Note_on_c, 2, 82, 0
3, 198144, Note_on_c, 2, 81, 30
3, 198304, Note_on_c, 2, 81, 0
3, 198336, Note_on_c, 2, 81, 30
3, 198384, Note_on_c, 2, 81, 0
3, 198528, Note_on_c, 2, 79, 30
3, 198576, Note_on_c, 2, 79, 0
3, 198720, Note_on_c, 2, 77, 30
3, 198768, Note_on_c, 2, 77, 0
3, 198912, Note_on_c, 2, 77, 30
3, 199104, Note_on_c, 2, 77, 0
3, 199104, Note_on_c, 2, 74, 30
3, 199264, Note_on_c, 2, 74, 0
3, 199296, Note_on_c, 2, 70, 30
3, 199296, Note_on_c, 2, 76, 30
3, 199344, Note_on_c, 2, 70, 0
3, 199344, Note_on_c, 2, 76, 0
3, 199488, Note_on_c, 2, 69, 30
3, 199536, Note_on_c, 2, 69, 0
3, 199680, Note_on_c, 2, 65, 30
3, 199728, Note_on_c, 2, 65, 0
3, 199872, Note_on_c, 2, 67, 30
3, 199920, Note_on_c, 2, 67, 0
3, 200064, Note_on_c, 2, 65, 30
3, 200224, Note_on_c, 2, 65, 0
3, 200832, Note_on_c, 2, 65, 30
3, 200992, Note_on_c, 2, 65, 0
3, 201024, Note_on_c, 2, 67, 30
3, 201184, Note_on_c, 2, 67, 0
3, 201216, Note_on_c, 2, 65, 30
3, 201376, Note_on_c, 2, 65, 0
3, 201984, Note_on_c, 2, 65, 30
3, 202144, Note_on_c, 2, 65, 0
3, 202176, Note_on_c, 2, 67, 30
3, 202336, Note_on_c, 2, 67, 0
3, 202368, Note_on_c, 2, 65, 30
3, 202528, Note_on_c, 2, 65, 0
3, 202560, Note_on_c, 2, 66, 30
3, 202720, Note_on_c, 2, 66, 0
3, 202752, Note_on_c, 2, 67, 30
3, 202912, Note_on_c, 2, 67, 0
3, 202944, Note_on_c, 2, 67, 30
3, 203104, Note_on_c, 2, 67, 0
3, 203136, Note_on_c, 2, 67, 30
3, 203296, Note_on_c, 2, 67, 0
3, 203328, Note_on_c, 2, 72, 30
3, 203488, Note_on_c, 2, 72, 0
3, 203520, Note_on_c, 2, 72, 30
3, 203680, Note_on_c, 2, 72, 0
3, 203712, Note_on_c, 2, 72, 30
3, 203872, Note_on_c, 2, 72, 0
3, 203904, Note_on_c, 2, 72, 30
3, 204064, Note_on_c, 2, 72, 0
3, 204096, Note_on_c, 2, 72, 30
3, 204144, Note_on_c, 2, 72, 0
3, 204288, Note_on_c, 2, 60, 30
3, 204336, Note_on_c, 2, 60, 0
3, 204480, Note_on_c, 2, 72, 30
3, 204528, Note_on_c, 2, 72, 0
3, 204672, Note_on_c, 2, 72, 30
3, 204864, Note_on_c, 2, 72, 0
3, 204864, Note_on_c, 2, 67, 35
3, 204864, Note_on_c, 2, 74, 35
3, 205024, Note_on_c, 2, 67, 0
3, 205024, Note_on_c, 2, 74, 0
3, 205056, Note_on_c, 2, 64, 40
3, 205104, Note_on_c, 2, 64, 0
3, 205248, Note_on_c, 2, 70, 45
3, 205440, Note_on_c, 2, 70, 0
3, 205440, Note_on_c, 2, 69, 50
3, 205600, Note_on_c, 2, 69, 0
3, 205632, Note_on_c, 2, 65, 55
3, 205632, Note_on_c, 2, 69, 55
3, 205680, Note_on_c, 2, 65, 0
3, 205680, Note_on_c, 2, 69, 0
3, 205824, Note_on_c, 2, 67, 60
3, 206016, Note_on_c, 2, 67, 0
3, 206016, Note_on_c, 2, 65, 65
3, 206176, Note_on_c, 2, 65, 0
3, 206208, Note_on_c, 2, 64, 70
3, 206256, Note_on_c, 2, 64, 0
3, 206400, Note_on_c, 2, 70, 75
3, 206448, Note_on_c, 2, 70, 0
3, 206592, Note_on_c, 2, 58, 72
3, 206640, Note_on_c, 2, 58, 0
3, 206784, Note_on_c, 2, 70, 69
3, 206832, Note_on_c, 2, 70, 0
3, 206976, Note_on_c, 2, 69, 66
3, 207024, Note_on_c, 2, 69, 0
3, 207168, Note_on_c, 2, 67, 63
3, 207216, Note_on_c, 2, 67, 0
3, 207360, Note_on_c, 2, 65, 60
3, 207408, Note_on_c, 2, 65, 0
3, 207552, Note_on_c, 2, 58, 57
3, 207712, Note_on_c, 2, 58, 0
3, 207744, Note_on_c, 2, 70, 53
3, 207904, Note_on_c, 2, 70, 0
3, 207936, Note_on_c, 2, 70, 49
3, 208096, Note_on_c, 2, 70, 0
3, 208128, Note_on_c, 2, 69, 45
3, 208176, Note_on_c, 2, 69, 0
3, 208320, Note_on_c, 2, 67, 45
3, 208368, Note_on_c, 2, 67, 0
3, 208512, Note_on_c, 2, 65, 45
3, 208560, Note_on_c, 2, 65, 0
3, 208704, Note_on_c, 2, 58, 45
3, 208864, Note_on_c, 2, 58, 0
3, 208896, Note_on_c, 2, 70, 43
3, 209056, Note_on_c, 2, 70, 0
3, 209088, Note_on_c, 2, 70, 41
3, 209248, Note_on_c, 2, 70, 0
3, 209280, Note_on_c, 2, 69, 39
3, 209328, Note_on_c, 2, 69, 0
3, 209472, Note_on_c, 2, 67, 36
3, 209520, Note_on_c, 2, 67, 0
3, 209664, Note_on_c, 2, 65, 33
3, 209712, Note_on_c, 2, 65, 0
3, 209856, Note_on_c, 2, 58, 30
3, 210016, Note_on_c, 2, 58, 0
3, 210048, Note_on_c, 2, 70, 30
3, 210208, Note_on_c, 2, 70, 0
3, 210240, Note_on_c, 2, 70, 30
3, 210400, Note_on_c, 2, 70, 0
3, 210432, Note_on_c, 2, 69, 45
3, 210592, Note_on_c, 2, 69, 0
3, 210624, Note_on_c, 2, 57, 127
3, 210960, Note_on_c, 2, 57, 0
3, 211200, Note_on_c, 2, 57, 77
3, 211536, Note_on_c, 2, 57, 0
3, 211584, Note_on_c, 2, 57, 67
3, 211920, Note_on_c, 2, 57, 0
3, 211968, Note_on_c, 2, 57, 56
3, 212128, Note_on_c, 2, 57, 0
3, 212352, Note_on_c, 2, 72, 45
3, 212352, Note_on_c, 2, 81, 45
3, 212688, Note_on_c, 2, 72, 0
3, 212688, Note_on_c, 2, 81, 0
3, 212736, Note_on_c, 2, 72, 45
3, 212736, Note_on_c, 2, 81, 45
3, 213072, Note_on_c, 2, 72, 0
3, 213072, Note_on_c, 2, 81, 0
3, 213120, Note_on_c, 2, 72, 38
3, 213120, Note_on_c, 2, 81, 38
3, 213280, Note_on_c, 2, 72, 0
3, 213280, Note_on_c, 2, 81, 0
3, 213504, Note_on_c, 2, 72, 30
3, 213504, Note_on_c, 2, 81, 30
3, 213840, Note_on_c, 2, 72, 0
3, 213840, Note_on_c, 2, 81, 0
3, 213888, Note_on_c, 2, 72, 92
3, 213888, Note_on_c, 2, 81, 92
3, 214048, Note_on_c, 2, 72, 0
3, 214048, Note_on_c, 2, 81, 0
3, 214048, End_track
4, 0, Start_track
4, 0, MIDI_port, 0
4, 0, Title_t, "Viola."
4, 0, Program_c, 3, 0
4, 0, Control_c, 3, 7, 127
4, 0, Control_c, 3, 10, 64
4, 192, Note_on_c, 3, 53, 45
4, 720, Note_on_c, 3, 53, 0
4, 768, Note_on_c, 3, 52, 45
4, 1296, Note_on_c, 3, 52, 0
4, 1344, Note_on_c, 3, 53, 45
4, 1872, Note_on_c, 3, 53, 0
4, 1920, Note_on_c, 3, 52, 45
4, 2448, Note_on_c, 3, 52, 0
4, 2496, Note_on_c, 3, 53, 45
4, 3024, Note_on_c, 3, 53, 0
4, 3072, Note_on_c, 3, 52, 45
4, 3600, Note_on_c, 3, 52, 0
4, 3648, Note_on_c, 3, 53, 45
4, 3696, Note_on_c, 3, 53, 0
4, 3840, Note_on_c, 3, 53, 45
4, 3888, Note_on_c, 3, 53, 0
4, 4032, Note_on_c, 3, 52, 45
4, 4080, Note_on_c, 3, 52, 0
4, 4224, Note_on_c, 3, 53, 45
4, 4272, Note_on_c, 3, 53, 0
4, 4416, Note_on_c, 3, 69, 30
4, 4464, Note_on_c, 3, 69, 0
4, 4608, Note_on_c, 3, 76, 30
4, 4656, Note_on_c, 3, 76, 0
4, 4800, Note_on_c, 3, 69, 30
4, 4848, Note_on_c, 3, 69, 0
4, 4992, Note_on_c, 3, 53, 30
4, 5040, Note_on_c, 3, 53, 0
4, 5184, Note_on_c, 3, 65, 30
4, 5536, Note_on_c, 3, 65, 0
4, 5568, Note_on_c, 3, 64, 30
4, 5728, Note_on_c, 3, 64, 0
4, 5760, Note_on_c, 3, 70, 30
4, 5952, Note_on_c, 3, 70, 0
4, 5952, Note_on_c, 3, 69, 30
4, 6112, Note_on_c, 3, 69, 0
4, 6144, Note_on_c, 3, 57, 30
4, 6304, Note_on_c, 3, 57, 0
4, 6336, Note_on_c, 3, 69, 30
4, 6496, Note_on_c, 3, 69, 0
4, 6528, Note_on_c, 3, 62, 30
4, 6688, Note_on_c, 3, 62, 0
4, 6720, Note_on_c, 3, 70, 30
4, 6880, Note_on_c, 3, 70, 0
4, 6912, Note_on_c, 3, 64, 30
4, 7072, Note_on_c, 3, 64, 0
4, 7104, Note_on_c, 3, 69, 30
4, 7264, Note_on_c, 3, 69, 0
4, 7296, Note_on_c, 3, 60, 30
4, 7456, Note_on_c, 3, 60, 0
4, 7488, Note_on_c, 3, 65, 30
4, 7840, Note_on_c, 3, 65, 0
4, 7872, Note_on_c, 3, 52, 30
4, 8032, Note_on_c, 3, 52, 0
4, 8064, Note_on_c, 3, 64, 30
4, 8224, Note_on_c, 3, 64, 0
4, 8256, Note_on_c, 3, 57, 30
4, 8416, Note_on_c, 3, 57, 0
4, 8448, Note_on_c, 3, 69, 30
4, 8608, Note_on_c, 3, 69, 0
4, 8640, Note_on_c, 3, 60, 30
4, 8800, Note_on_c, 3, 60, 0
4, 9024, Note_on_c, 3, 51, 127
4, 9360, Note_on_c, 3, 51, 0
4, 9600, Note_on_c, 3, 51, 89
4, 9936, Note_on_c, 3, 51, 0
4, 9984, Note_on_c, 3, 51, 82
4, 10320, Note_on_c, 3, 51, 0
4, 10368, Note_on_c, 3, 51, 75
4, 10528, Note_on_c, 3, 51, 0
4, 10752, Note_on_c, 3, 51, 69
4, 11088, Note_on_c, 3, 51, 0
4, 11136, Note_on_c, 3, 51, 61
4, 11472, Note_on_c, 3, 51, 0
4, 11520, Note_on_c, 3, 51, 53
4, 11680, Note_on_c, 3, 51, 0
4, 11904, Note_on_c, 3, 51, 45
4, 12240, Note_on_c, 3, 51, 0
4, 12480, Note_on_c, 3, 51, 45
4, 12816, Note_on_c, 3, 51, 0
4, 13056, Note_on_c, 3, 52, 30
4, 13392, Note_on_c, 3, 52, 0
4, 13632, Note_on_c, 3, 52, 30
4, 13968, Note_on_c, 3, 52, 0
4, 14016, Note_on_c, 3, 53, 35
4, 14176, Note_on_c, 3, 53, 0
4, 14208, Note_on_c, 3, 48, 37
4, 14400, Note_on_c, 3, 57, 39
4, 14592, Note_on_c, 3, 57, 0
4, 14592, Note_on_c, 3, 59, 41
4, 14752, Note_on_c, 3, 48, 0
4, 14752, Note_on_c, 3, 59, 0
4, 14784, Note_on_c, 3, 48, 43
4, 14976, Note_on_c, 3, 60, 45
4, 15168, Note_on_c, 3, 60, 0
4, 15168, Note_on_c, 3, 62, 47
4, 15328, Note_on_c, 3, 48, 0
4, 15328, Note_on_c, 3, 62, 0
4, 15360, Note_on_c, 3, 48, 49
4, 15552, Note_on_c, 3, 60, 51
4, 15744, Note_on_c, 3, 60, 0
4, 15744, Note_on_c, 3, 59, 53
4, 15904, Note_on_c, 3, 48, 0
4, 15904, Note_on_c, 3, 59, 0
4, 15936, Note_on_c, 3, 48, 56
4, 16128, Note_on_c, 3, 48, 0
4, 16128, Note_on_c, 3, 49, 59
4, 16128, Note_on_c, 3, 58, 59
4, 16320, Note_on_c, 3, 49, 0
4, 16320, Note_on_c, 3, 58, 0
4, 16320, Note_on_c, 3, 48, 62
4, 16320, Note_on_c, 3, 57, 62
4, 16480, Note_on_c, 3, 48, 0
4, 16480, Note_on_c, 3, 57, 0
4, 16512, Note_on_c, 3, 48, 65
4, 16704, Note_on_c, 3, 57, 68
4, 16896, Note_on_c, 3, 57, 0
4, 16896, Note_on_c, 3, 59, 71
4, 17056, Note_on_c, 3, 48, 0
4, 17056, Note_on_c, 3, 59, 0
4, 17088, Note_on_c, 3, 48, 74
4, 17280, Note_on_c, 3, 60, 77
4, 17472, Note_on_c, 3, 60, 0
4, 17472, Note_on_c, 3, 59, 80
4, 17632, Note_on_c, 3, 48, 0
4, 17632, Note_on_c, 3, 59, 0
4, 17664, Note_on_c, 3, 48, 83
4, 17856, Note_on_c, 3, 58, 86
4, 18048, Note_on_c, 3, 58, 0
4, 18208, Note_on_c, 3, 48, 0
4, 18240, Note_on_c, 3, 53, 92
4, 18288, Note_on_c, 3, 53, 0
4, 18432, Note_on_c, 3, 55, 92
4, 18784, Note_on_c, 3, 55, 0
4, 18816, Note_on_c, 3, 57, 92
4, 19360, Note_on_c, 3, 57, 0
4, 19392, Note_on_c, 3, 55, 92
4, 19936, Note_on_c, 3, 55, 0
4, 19968, Note_on_c, 3, 53, 92
4, 20512, Note_on_c, 3, 53, 0
4, 20544, Note_on_c, 3, 55, 92
4, 21088, Note_on_c, 3, 55, 0
4, 21120, Note_on_c, 3, 57, 92
4, 21664, Note_on_c, 3, 57, 0
4, 21696, Note_on_c, 3, 55, 62
4, 22240, Note_on_c, 3, 55, 0
4, 22272, Note_on_c, 3, 53, 30
4, 22320, Note_on_c, 3, 53, 0
4, 22464, Note_on_c, 3, 55, 30
4, 22512, Note_on_c, 3, 55, 0
4, 22656, Note_on_c, 3, 53, 30
4, 22704, Note_on_c, 3, 53, 0
4, 22848, Note_on_c, 3, 57, 30
4, 22896, Note_on_c, 3, 57, 0
4, 23040, Note_on_c, 3, 53, 30
4, 23088, Note_on_c, 3, 53, 0
4, 23232, Note_on_c, 3, 58, 30
4, 23280, Note_on_c, 3, 58, 0
4, 24000, Note_on_c, 3, 58, 30
4, 24048, Note_on_c, 3, 58, 0
4, 24192, Note_on_c, 3, 58, 30
4, 24240, Note_on_c, 3, 58, 0
4, 24384, Note_on_c, 3, 65, 30
4, 24544, Note_on_c, 3, 65, 0
4, 24576, Note_on_c, 3, 65, 30
4, 24736, Note_on_c, 3, 65, 0
4, 24768, Note_on_c, 3, 67, 30
4, 24928, Note_on_c, 3, 67, 0
4, 24960, Note_on_c, 3, 66, 30
4, 25120, Note_on_c, 3, 66, 0
4, 25152, Note_on_c, 3, 67, 30
4, 25312, Note_on_c, 3, 67, 0
4, 25344, Note_on_c, 3, 69, 30
4, 25504, Note_on_c, 3, 69, 0
4, 25536, Note_on_c, 3, 62, 30
4, 25696, Note_on_c, 3, 62, 0
4, 25728, Note_on_c, 3, 64, 30
4, 25888, Note_on_c, 3, 64, 0
4, 25920, Note_on_c, 3, 60, 30
4, 26080, Note_on_c, 3, 60, 0
4, 26112, Note_on_c, 3, 62, 30
4, 26304, Note_on_c, 3, 62, 0
4, 26304, Note_on_c, 3, 55, 30
4, 26464, Note_on_c, 3, 55, 0
4, 26496, Note_on_c, 3, 60, 30
4, 26544, Note_on_c, 3, 60, 0
4, 26688, Note_on_c, 3, 60, 30
4, 26848, Note_on_c, 3, 60, 0
4, 27456, Note_on_c, 3, 57, 30
4, 27504, Note_on_c, 3, 57, 0
4, 27648, Note_on_c, 3, 60, 30
4, 27696, Note_on_c, 3, 60, 0
4, 27840, Note_on_c, 3, 58, 30
4, 28000, Note_on_c, 3, 58, 0
4, 28608, Note_on_c, 3, 58, 30
4, 28768, Note_on_c, 3, 58, 0
4, 28800, Note_on_c, 3, 58, 30
4, 28960, Note_on_c, 3, 58, 0
4, 28992, Note_on_c, 3, 57, 30
4, 29152, Note_on_c, 3, 57, 0
4, 29760, Note_on_c, 3, 60, 30
4, 29920, Note_on_c, 3, 60, 0
4, 29952, Note_on_c, 3, 58, 30
4, 30112, Note_on_c, 3, 58, 0
4, 30144, Note_on_c, 3, 58, 30
4, 30192, Note_on_c, 3, 58, 0
4, 30336, Note_on_c, 3, 57, 30
4, 30384, Note_on_c, 3, 57, 0
4, 30528, Note_on_c, 3, 55, 30
4, 30576, Note_on_c, 3, 55, 0
4, 30720, Note_on_c, 3, 53, 30
4, 30912, Note_on_c, 3, 53, 0
4, 30912, Note_on_c, 3, 55, 30
4, 31072, Note_on_c, 3, 55, 0
4, 31104, Note_on_c, 3, 52, 30
4, 31152, Note_on_c, 3, 52, 0
4, 31296, Note_on_c, 3, 53, 30
4, 31344, Note_on_c, 3, 53, 0
4, 31488, Note_on_c, 3, 64, 30
4, 31536, Note_on_c, 3, 64, 0
4, 31680, Note_on_c, 3, 65, 30
4, 31728, Note_on_c, 3, 65, 0
4, 31872, Note_on_c, 3, 62, 30
4, 32064, Note_on_c, 3, 62, 0
4, 32064, Note_on_c, 3, 50, 35
4, 32224, Note_on_c, 3, 50, 0
4, 32256, Note_on_c, 3, 52, 40
4, 32304, Note_on_c, 3, 52, 0
4, 32448, Note_on_c, 3, 52, 45
4, 32640, Note_on_c, 3, 52, 0
4, 32640, Note_on_c, 3, 53, 50
4, 32800, Note_on_c, 3, 53, 0
4, 32832, Note_on_c, 3, 57, 55
4, 32880, Note_on_c, 3, 57, 0
4, 33024, Note_on_c, 3, 58, 60
4, 33216, Note_on_c, 3, 58, 0
4, 33216, Note_on_c, 3, 57, 65
4, 33376, Note_on_c, 3, 57, 0
4, 33408, Note_on_c, 3, 55, 70
4, 33456, Note_on_c, 3, 55, 0
4, 33600, Note_on_c, 3, 55, 75
4, 33792, Note_on_c, 3, 55, 0
4, 33792, Note_on_c, 3, 53, 72
4, 33952, Note_on_c, 3, 53, 0
4, 33984, Note_on_c, 3, 52, 69
4, 34032, Note_on_c, 3, 52, 0
4, 34176, Note_on_c, 3, 57, 66
4, 34224, Note_on_c, 3, 57, 0
4, 34368, Note_on_c, 3, 58, 63
4, 34416, Note_on_c, 3, 58, 0
4, 34560, Note_on_c, 3, 60, 60
4, 34608, Note_on_c, 3, 60, 0
4, 34752, Note_on_c, 3, 55, 57
4, 34944, Note_on_c, 3, 55, 0
4, 34944, Note_on_c, 3, 53, 53
4, 35104, Note_on_c, 3, 53, 0
4, 35136, Note_on_c, 3, 52, 49
4, 35184, Note_on_c, 3, 52, 0
4, 35328, Note_on_c, 3, 57, 45
4, 35376, Note_on_c, 3, 57, 0
4, 35520, Note_on_c, 3, 58, 45
4, 35568, Note_on_c, 3, 58, 0
4, 35712, Note_on_c, 3, 60, 45
4, 35760, Note_on_c, 3, 60, 0
4, 35904, Note_on_c, 3, 55, 45
4, 36096, Note_on_c, 3, 55, 0
4, 36096, Note_on_c, 3, 53, 43
4, 36256, Note_on_c, 3, 53, 0
4, 36288, Note_on_c, 3, 52, 41
4, 36336, Note_on_c, 3, 52, 0
4, 36480, Note_on_c, 3, 57, 39
4, 36528, Note_on_c, 3, 57, 0
4, 36672, Note_on_c, 3, 58, 36
4, 36720, Note_on_c, 3, 58, 0
4, 36864, Note_on_c, 3, 60, 33
4, 36912, Note_on_c, 3, 60, 0
4, 37056, Note_on_c, 3, 55, 30
4, 37248, Note_on_c, 3, 55, 0
4, 37248, Note_on_c, 3, 53, 30
4, 37408, Note_on_c, 3, 53, 0
4, 37440, Note_on_c, 3, 52, 30
4, 37488, Note_on_c, 3, 52, 0
4, 37632, Note_on_c, 3, 53, 92
4, 37792, Note_on_c, 3, 53, 0
4, 37824, Note_on_c, 3, 51, 127
4, 38160, Note_on_c, 3, 51, 0
4, 38400, Note_on_c, 3, 51, 89
4, 38736, Note_on_c, 3, 51, 0
4, 38784, Note_on_c, 3, 51, 82
4, 39120, Note_on_c, 3, 51, 0
4, 39168, Note_on_c, 3, 51, 75
4, 39328, Note_on_c, 3, 51, 0
4, 39552, Note_on_c, 3, 51, 69
4, 39888, Note_on_c, 3, 51, 0
4, 39936, Note_on_c, 3, 51, 61
4, 40272, Note_on_c, 3, 51, 0
4, 40320, Note_on_c, 3, 51, 53
4, 40480, Note_on_c, 3, 51, 0
4, 40704, Note_on_c, 3, 51, 45
4, 41040, Note_on_c, 3, 51, 0
4, 41280, Note_on_c, 3, 51, 45
4, 41616, Note_on_c, 3, 51, 0
4, 41856, Note_on_c, 3, 52, 30
4, 42192, Note_on_c, 3, 52, 0
4, 42432, Note_on_c, 3, 52, 30
4, 42768, Note_on_c, 3, 52, 0
4, 42816, Note_on_c, 3, 53, 35
4, 42976, Note_on_c, 3, 53, 0
4, 43008, Note_on_c, 3, 48, 37
4, 43200, Note_on_c, 3, 57, 39
4, 43392, Note_on_c, 3, 57, 0
4, 43392, Note_on_c, 3, 59, 41
4, 43552, Note_on_c, 3, 48, 0
4, 43552, Note_on_c, 3, 59, 0
4, 43584, Note_on_c, 3, 48, 43
4, 43776, Note_on_c, 3, 60, 45
4, 43968, Note_on_c, 3, 60, 0
4, 43968, Note_on_c, 3, 62, 47
4, 44128, Note_on_c, 3, 48, 0
4, 44128, Note_on_c, 3, 62, 0
4, 44160, Note_on_c, 3, 48, 49
4, 44352, Note_on_c, 3, 60, 51
4, 44544, Note_on_c, 3, 60, 0
4, 44544, Note_on_c, 3, 59, 53
4, 44704, Note_on_c, 3, 48, 0
4, 44704, Note_on_c, 3, 59, 0
4, 44736, Note_on_c, 3, 48, 56
4, 44928, Note_on_c, 3, 48, 0
4, 44928, Note_on_c, 3, 49, 59
4, 44928, Note_on_c, 3, 58, 59
4, 45120, Note_on_c, 3, 49, 0
4, 45120, Note_on_c, 3, 58, 0
4, 45120, Note_on_c, 3, 48, 62
4, 45120, Note_on_c, 3, 57, 62
4, 45280, Note_on_c, 3, 48, 0
4, 45280, Note_on_c, 3, 57, 0
4, 45312, Note_on_c, 3, 48, 65
4, 45504, Note_on_c, 3, 57, 68
4, 45696, Note_on_c, 3, 57, 0
4, 45696, Note_on_c, 3, 59, 71
4, 45856, Note_on_c, 3, 48, 0
4, 45856, Note_on_c, 3, 59, 0
4, 45888, Note_on_c, 3, 48, 74
4, 46080, Note_on_c, 3, 60, 77
4, 46272, Note_on_c, 3, 60, 0
4, 46272, Note_on_c, 3, 59, 80
4, 46432, Note_on_c, 3, 48, 0
4, 46432, Note_on_c, 3, 59, 0
4, 46464, Note_on_c, 3, 48, 83
4, 46656, Note_on_c, 3, 58, 86
4, 46848, Note_on_c, 3, 58, 0
4, 47008, Note_on_c, 3, 48, 0
4, 47040, Note_on_c, 3, 53, 92
4, 47088, Note_on_c, 3, 53, 0
4, 47232, Note_on_c, 3, 55, 92
4, 47584, Note_on_c, 3, 55, 0
4, 47616, Note_on_c, 3, 57, 92
4, 48160, Note_on_c, 3, 57, 0
4, 48192, Note_on_c, 3, 55, 92
4, 48736, Note_on_c, 3, 55, 0
4, 48768, Note_on_c, 3, 53, 92
4, 49312, Note_on_c, 3, 53, 0
4, 49344, Note_on_c, 3, 55, 92
4, 49888, Note_on_c, 3, 55, 0
4, 49920, Note_on_c, 3, 57, 92
4, 50464, Note_on_c, 3, 57, 0
4, 50496, Note_on_c, 3, 55, 62
4, 51040, Note_on_c, 3, 55, 0
4, 51072, Note_on_c, 3, 53, 30
4, 51120, Note_on_c, 3, 53, 0
4, 51264, Note_on_c, 3, 55, 30
4, 51312, Note_on_c, 3, 55, 0
4, 51456, Note_on_c, 3, 53, 30
4, 51504, Note_on_c, 3, 53, 0
4, 51648, Note_on_c, 3, 57, 30
4, 51696, Note_on_c, 3, 57, 0
4, 51840, Note_on_c, 3, 53, 30
4, 51888, Note_on_c, 3, 53, 0
4, 52032, Note_on_c, 3, 58, 30
4, 52080, Note_on_c, 3, 58, 0
4, 52800, Note_on_c, 3, 58, 30
4, 52848, Note_on_c, 3, 58, 0
4, 52992, Note_on_c, 3, 58, 30
4, 53040, Note_on_c, 3, 58, 0
4, 53184, Note_on_c, 3, 65, 30
4, 53344, Note_on_c, 3, 65, 0
4, 53376, Note_on_c, 3, 65, 30
4, 53536, Note_on_c, 3, 65, 0
4, 53568, Note_on_c, 3, 67, 30
4, 53728, Note_on_c, 3, 67, 0
4, 53760, Note_on_c, 3, 66, 30
4, 53920, Note_on_c, 3, 66, 0
4, 53952, Note_on_c, 3, 67, 30
4, 54112, Note_on_c, 3, 67, 0
4, 54144, Note_on_c, 3, 69, 30
4, 54304, Note_on_c, 3, 69, 0
4, 54336, Note_on_c, 3, 62, 30
4, 54496, Note_on_c, 3, 62, 0
4, 54528, Note_on_c, 3, 64, 30
4, 54688, Note_on_c, 3, 64, 0
4, 54720, Note_on_c, 3, 60, 30
4, 54880, Note_on_c, 3, 60, 0
4, 54912, Note_on_c, 3, 62, 30
4, 55104, Note_on_c, 3, 62, 0
4, 55104, Note_on_c, 3, 55, 30
4, 55264, Note_on_c, 3, 55, 0
4, 55296, Note_on_c, 3, 60, 30
4, 55344, Note_on_c, 3, 60, 0
4, 55488, Note_on_c, 3, 60, 30
4, 55648, Note_on_c, 3, 60, 0
4, 56256, Note_on_c, 3, 57, 30
4, 56304, Note_on_c, 3, 57, 0
4, 56448, Note_on_c, 3, 60, 30
4, 56496, Note_on_c, 3, 60, 0
4, 56640, Note_on_c, 3, 58, 30
4, 56800, Note_on_c, 3, 58, 0
4, 57408, Note_on_c, 3, 58, 30
4, 57568, Note_on_c, 3, 58, 0
4, 57600, Note_on_c, 3, 58, 30
4, 57760, Note_on_c, 3, 58, 0
4, 57792, Note_on_c, 3, 57, 30
4, 57952, Note_on_c, 3, 57, 0
4, 58560, Note_on_c, 3, 60, 30
4, 58720, Note_on_c, 3, 60, 0
4, 58752, Note_on_c, 3, 58, 30
4, 58912, Note_on_c, 3, 58, 0
4, 58944, Note_on_c, 3, 58, 30
4, 58992, Note_on_c, 3, 58, 0
4, 59136, Note_on_c, 3, 57, 30
4, 59184, Note_on_c, 3, 57, 0
4, 59328, Note_on_c, 3, 55, 30
4, 59376, Note_on_c, 3, 55, 0
4, 59520, Note_on_c, 3, 53, 30
4, 59712, Note_on_c, 3, 53, 0
4, 59712, Note_on_c, 3, 55, 30
4, 59872, Note_on_c, 3, 55, 0
4, 59904, Note_on_c, 3, 52, 30
4, 59952, Note_on_c, 3, 52, 0
4, 60096, Note_on_c, 3, 53, 30
4, 60144, Note_on_c, 3, 53, 0
4, 60288, Note_on_c, 3, 64, 30
4, 60336, Note_on_c, 3, 64, 0
4, 60480, Note_on_c, 3, 65, 30
4, 60528, Note_on_c, 3, 65, 0
4, 60672, Note_on_c, 3, 62, 30
4, 60864, Note_on_c, 3, 62, 0
4, 60864, Note_on_c, 3, 50, 35
4, 61024, Note_on_c, 3, 50, 0
4, 61056, Note_on_c, 3, 52, 40
4, 61104, Note_on_c, 3, 52, 0
4, 61248, Note_on_c, 3, 52, 45
4, 61440, Note_on_c, 3, 52, 0
4, 61440, Note_on_c, 3, 53, 50
4, 61600, Note_on_c, 3, 53, 0
4, 61632, Note_on_c, 3, 57, 55
4, 61680, Note_on_c, 3, 57, 0
4, 61824, Note_on_c, 3, 58, 60
4, 62016, Note_on_c, 3, 58, 0
4, 62016, Note_on_c, 3, 57, 65
4, 62176, Note_on_c, 3, 57, 0
4, 62208, Note_on_c, 3, 55, 70
4, 62256, Note_on_c, 3, 55, 0
4, 62400, Note_on_c, 3, 55, 75
4, 62592, Note_on_c, 3, 55, 0
4, 62592, Note_on_c, 3, 53, 72
4, 62752, Note_on_c, 3, 53, 0
4, 62784, Note_on_c, 3, 52, 69
4, 62832, Note_on_c, 3, 52, 0
4, 62976, Note_on_c, 3, 57, 66
4, 63024, Note_on_c, 3, 57, 0
4, 63168, Note_on_c, 3, 58, 63
4, 63216, Note_on_c, 3, 58, 0
4, 63360, Note_on_c, 3, 60, 60
4, 63408, Note_on_c, 3, 60, 0
4, 63552, Note_on_c, 3, 55, 57
4, 63744, Note_on_c, 3, 55, 0
4, 63744, Note_on_c, 3, 53, 53
4, 63904, Note_on_c, 3, 53, 0
4, 63936, Note_on_c, 3, 52, 49
4, 63984, Note_on_c, 3, 52, 0
4, 64128, Note_on_c, 3, 57, 45
4, 64176, Note_on_c, 3, 57, 0
4, 64320, Note_on_c, 3, 58, 45
4, 64368, Note_on_c, 3, 58, 0
4, 64512, Note_on_c, 3, 60, 45
4, 64560, Note_on_c, 3, 60, 0
4, 64704, Note_on_c, 3, 55, 45
4, 64896, Note_on_c, 3, 55, 0
4, 64896, Note_on_c, 3, 53, 43
4, 65056, Note_on_c, 3, 53, 0
4, 65088, Note_on_c, 3, 52, 41
4, 65136, Note_on_c, 3, 52, 0
4, 65280, Note_on_c, 3, 57, 39
4, 65328, Note_on_c, 3, 57, 0
4, 65472, Note_on_c, 3, 58, 36
4, 65520, Note_on_c, 3, 58, 0
4, 65664, Note_on_c, 3, 60, 33
4, 65712, Note_on_c, 3, 60, 0
4, 65856, Note_on_c, 3, 55, 30
4, 66048, Note_on_c, 3, 55, 0
4, 66048, Note_on_c, 3, 53, 30
4, 66208, Note_on_c, 3, 53, 0
4, 66240, Note_on_c, 3, 52, 30
4, 66288, Note_on_c, 3, 52, 0
4, 66432, Note_on_c, 3, 53, 92
4, 66592, Note_on_c, 3, 53, 0
4, 67008, Note_on_c, 3, 53, 92
4, 67168, Note_on_c, 3, 53, 0
4, 67200, Note_on_c, 3, 53, 45
4, 67296, Note_on_c, 3, 53, 0
4, 67296, Note_on_c, 3, 52, 45
4, 67392, Note_on_c, 3, 52, 0
4, 67392, Note_on_c, 3, 53, 45
4, 67488, Note_on_c, 3, 53, 0
4, 67488, Note_on_c, 3, 55, 45
4, 67582, Note_on_c, 3, 55, 0
4, 67584, Note_on_c, 3, 57, 45
4, 67632, Note_on_c, 3, 57, 0
4, 67776, Note_on_c, 3, 58, 45
4, 67824, Note_on_c, 3, 58, 0
4, 67968, Note_on_c, 3, 60, 45
4, 68016, Note_on_c, 3, 60, 0
4, 68160, Note_on_c, 3, 62, 45
4, 68208, Note_on_c, 3, 62, 0
4, 68352, Note_on_c, 3, 64, 45
4, 68400, Note_on_c, 3, 64, 0
4, 68736, Note_on_c, 3, 67, 45
4, 68784, Note_on_c, 3, 67, 0
4, 69120, Note_on_c, 3, 70, 45
4, 69168, Note_on_c, 3, 70, 0
4, 69312, Note_on_c, 3, 72, 45
4, 69472, Note_on_c, 3, 72, 0
4, 69504, Note_on_c, 3, 69, 45
4, 69664, Note_on_c, 3, 69, 0
4, 69696, Note_on_c, 3, 69, 45
4, 69856, Note_on_c, 3, 69, 0
4, 69888, Note_on_c, 3, 69, 45
4, 70048, Note_on_c, 3, 69, 0
4, 70080, Note_on_c, 3, 69, 45
4, 70240, Note_on_c, 3, 69, 0
4, 70272, Note_on_c, 3, 69, 45
4, 70432, Note_on_c, 3, 69, 0
4, 70464, Note_on_c, 3, 67, 45
4, 70624, Note_on_c, 3, 67, 0
4, 70656, Note_on_c, 3, 67, 45
4, 70816, Note_on_c, 3, 67, 0
4, 70848, Note_on_c, 3, 67, 45
4, 71008, Note_on_c, 3, 67, 0
4, 71040, Note_on_c, 3, 67, 45
4, 71200, Note_on_c, 3, 67, 0
4, 71232, Note_on_c, 3, 67, 45
4, 71392, Note_on_c, 3, 67, 0
4, 71424, Note_on_c, 3, 67, 45
4, 71584, Note_on_c, 3, 67, 0
4, 71616, Note_on_c, 3, 72, 92
4, 71776, Note_on_c, 3, 72, 0
4, 71808, Note_on_c, 3, 72, 45
4, 71968, Note_on_c, 3, 72, 0
4, 72000, Note_on_c, 3, 72, 45
4, 72160, Note_on_c, 3, 72, 0
4, 72192, Note_on_c, 3, 72, 45
4, 72352, Note_on_c, 3, 72, 0
4, 72384, Note_on_c, 3, 72, 45
4, 72544, Note_on_c, 3, 72, 0
4, 72576, Note_on_c, 3, 72, 45
4, 72736, Note_on_c, 3, 72, 0
4, 72768, Note_on_c, 3, 72, 45
4, 72928, Note_on_c, 3, 72, 0
4, 72960, Note_on_c, 3, 72, 45
4, 73120, Note_on_c, 3, 72, 0
4, 73152, Note_on_c, 3, 72, 45
4, 73312, Note_on_c, 3, 72, 0
4, 73344, Note_on_c, 3, 72, 45
4, 73504, Note_on_c, 3, 72, 0
4, 73536, Note_on_c, 3, 72, 45
4, 73696, Note_on_c, 3, 72, 0
4, 73728, Note_on_c, 3, 72, 45
4, 73888, Note_on_c, 3, 72, 0
4, 73920, Note_on_c, 3, 72, 45
4, 74080, Note_on_c, 3, 72, 0
4, 74112, Note_on_c, 3, 72, 45
4, 74272, Note_on_c, 3, 72, 0
4, 74304, Note_on_c, 3, 72, 45
4, 74464, Note_on_c, 3, 72, 0
4, 74496, Note_on_c, 3, 72, 45
4, 74656, Note_on_c, 3, 72, 0
4, 74688, Note_on_c, 3, 72, 45
4, 74848, Note_on_c, 3, 72, 0
4, 74880, Note_on_c, 3, 72, 45
4, 75040, Note_on_c, 3, 72, 0
4, 75072, Note_on_c, 3, 72, 45
4, 75232, Note_on_c, 3, 72, 0
4, 75264, Note_on_c, 3, 72, 45
4, 75424, Note_on_c, 3, 72, 0
4, 75456, Note_on_c, 3, 72, 45
4, 75616, Note_on_c, 3, 72, 0
4, 75648, Note_on_c, 3, 72, 45
4, 75808, Note_on_c, 3, 72, 0
4, 75840, Note_on_c, 3, 72, 45
4, 76000, Note_on_c, 3, 72, 0
4, 76032, Note_on_c, 3, 72, 45
4, 76192, Note_on_c, 3, 72, 0
4, 76224, Note_on_c, 3, 72, 45
4, 76384, Note_on_c, 3, 72, 0
4, 76416, Note_on_c, 3, 50, 45
4, 76512, Note_on_c, 3, 50, 0
4, 76512, Note_on_c, 3, 48, 45
4, 76608, Note_on_c, 3, 48, 0
4, 76608, Note_on_c, 3, 50, 45
4, 76704, Note_on_c, 3, 50, 0
4, 76704, Note_on_c, 3, 52, 45
4, 76798, Note_on_c, 3, 52, 0
4, 76800, Note_on_c, 3, 53, 45
4, 76960, Note_on_c, 3, 53, 0
4, 77568, Note_on_c, 3, 53, 53
4, 77664, Note_on_c, 3, 53, 0
4, 77664, Note_on_c, 3, 52, 54
4, 77760, Note_on_c, 3, 52, 0
4, 77760, Note_on_c, 3, 53, 55
4, 77856, Note_on_c, 3, 53, 0
4, 77856, Note_on_c, 3, 55, 56
4, 77950, Note_on_c, 3, 55, 0
4, 77952, Note_on_c, 3, 57, 57
4, 78112, Note_on_c, 3, 57, 0
4, 78720, Note_on_c, 3, 57, 65
4, 78816, Note_on_c, 3, 57, 0
4, 78816, Note_on_c, 3, 55, 66
4, 78912, Note_on_c, 3, 55, 0
4, 78912, Note_on_c, 3, 57, 67
4, 79008, Note_on_c, 3, 57, 0
4, 79008, Note_on_c, 3, 58, 68
4, 79102, Note_on_c, 3, 58, 0
4, 79104, Note_on_c, 3, 60, 69
4, 79264, Note_on_c, 3, 60, 0
4, 79680, Note_on_c, 3, 65, 45
4, 79840, Note_on_c, 3, 65, 0
4, 80064, Note_on_c, 3, 72, 45
4, 80224, Note_on_c, 3, 72, 0
4, 80256, Note_on_c, 3, 72, 45
4, 80640, Note_on_c, 3, 72, 0
4, 80640, Note_on_c, 3, 71, 45
4, 80800, Note_on_c, 3, 71, 0
4, 80832, Note_on_c, 3, 69, 45
4, 80880, Note_on_c, 3, 69, 0
4, 81024, Note_on_c, 3, 69, 45
4, 81120, Note_on_c, 3, 69, 0
4, 81120, Note_on_c, 3, 68, 48
4, 81216, Note_on_c, 3, 68, 0
4, 81216, Note_on_c, 3, 69, 51
4, 81312, Note_on_c, 3, 69, 0
4, 81312, Note_on_c, 3, 71, 54
4, 81406, Note_on_c, 3, 71, 0
4, 81408, Note_on_c, 3, 72, 57
4, 81568, Note_on_c, 3, 72, 0
4, 81984, Note_on_c, 3, 65, 45
4, 82144, Note_on_c, 3, 65, 0
4, 82368, Note_on_c, 3, 65, 45
4, 82528, Note_on_c, 3, 65, 0
4, 82560, Note_on_c, 3, 72, 45
4, 82944, Note_on_c, 3, 72, 0
4, 82944, Note_on_c, 3, 71, 45
4, 83104, Note_on_c, 3, 71, 0
4, 83136, Note_on_c, 3, 72, 45
4, 83296, Note_on_c, 3, 72, 0
4, 83520, Note_on_c, 3, 72, 45
4, 83680, Note_on_c, 3, 72, 0
4, 83712, Note_on_c, 3, 71, 45
4, 84096, Note_on_c, 3, 71, 0
4, 84096, Note_on_c, 3, 69, 45
4, 84256, Note_on_c, 3, 69, 0
4, 84288, Note_on_c, 3, 67, 92
4, 84448, Note_on_c, 3, 67, 0
4, 84480, Note_on_c, 3, 67, 45
4, 84480, Note_on_c, 3, 71, 45
4, 84640, Note_on_c, 3, 67, 0
4, 84640, Note_on_c, 3, 71, 0
4, 84672, Note_on_c, 3, 67, 45
4, 84672, Note_on_c, 3, 71, 45
4, 84832, Note_on_c, 3, 67, 0
4, 84832, Note_on_c, 3, 71, 0
4, 84864, Note_on_c, 3, 67, 45
4, 84864, Note_on_c, 3, 71, 45
4, 85024, Note_on_c, 3, 67, 0
4, 85024, Note_on_c, 3, 71, 0
4, 85056, Note_on_c, 3, 67, 45
4, 85056, Note_on_c, 3, 71, 45
4, 85216, Note_on_c, 3, 67, 0
4, 85216, Note_on_c, 3, 71, 0
4, 85248, Note_on_c, 3, 67, 45
4, 85248, Note_on_c, 3, 71, 45
4, 85408, Note_on_c, 3, 67, 0
4, 85408, Note_on_c, 3, 71, 0
4, 85440, Note_on_c, 3, 67, 45
4, 85440, Note_on_c, 3, 71, 45
4, 85600, Note_on_c, 3, 67, 0
4, 85600, Note_on_c, 3, 71, 0
4, 85632, Note_on_c, 3, 67, 45
4, 85632, Note_on_c, 3, 71, 45
4, 85792, Note_on_c, 3, 67, 0
4, 85792, Note_on_c, 3, 71, 0
4, 85824, Note_on_c, 3, 67, 45
4, 85824, Note_on_c, 3, 71, 45
4, 85984, Note_on_c, 3, 67, 0
4, 85984, Note_on_c, 3, 71, 0
4, 86016, Note_on_c, 3, 66, 45
4, 86016, Note_on_c, 3, 69, 45
4, 86176, Note_on_c, 3, 66, 0
4, 86176, Note_on_c, 3, 69, 0
4, 86208, Note_on_c, 3, 66, 45
4, 86208, Note_on_c, 3, 69, 45
4, 86368, Note_on_c, 3, 66, 0
4, 86368, Note_on_c, 3, 69, 0
4, 86400, Note_on_c, 3, 66, 45
4, 86400, Note_on_c, 3, 69, 45
4, 86560, Note_on_c, 3, 66, 0
4, 86560, Note_on_c, 3, 69, 0
4, 86592, Note_on_c, 3, 66, 45
4, 86592, Note_on_c, 3, 69, 45
4, 86752, Note_on_c, 3, 66, 0
4, 86752, Note_on_c, 3, 69, 0
4, 86784, Note_on_c, 3, 66, 45
4, 86784, Note_on_c, 3, 69, 45
4, 86944, Note_on_c, 3, 66, 0
4, 86944, Note_on_c, 3, 69, 0
4, 86976, Note_on_c, 3, 66, 45
4, 86976, Note_on_c, 3, 69, 45
4, 87136, Note_on_c, 3, 66, 0
4, 87136, Note_on_c, 3, 69, 0
4, 87168, Note_on_c, 3, 66, 45
4, 87168, Note_on_c, 3, 69, 45
4, 87328, Note_on_c, 3, 66, 0
4, 87328, Note_on_c, 3, 69, 0
4, 87360, Note_on_c, 3, 66, 45
4, 87360, Note_on_c, 3, 69, 45
4, 87520, Note_on_c, 3, 66, 0
4, 87520, Note_on_c, 3, 69, 0
4, 87552, Note_on_c, 3, 66, 45
4, 87552, Note_on_c, 3, 69, 45
4, 87712, Note_on_c, 3, 66, 0
4, 87712, Note_on_c, 3, 69, 0
4, 87744, Note_on_c, 3, 66, 45
4, 87744, Note_on_c, 3, 69, 45
4, 87904, Note_on_c, 3, 66, 0
4, 87904, Note_on_c, 3, 69, 0
4, 87936, Note_on_c, 3, 66, 45
4, 87936, Note_on_c, 3, 69, 45
4, 88096, Note_on_c, 3, 66, 0
4, 88096, Note_on_c, 3, 69, 0
4, 88128, Note_on_c, 3, 66, 45
4, 88128, Note_on_c, 3, 69, 45
4, 88288, Note_on_c, 3, 66, 0
4, 88288, Note_on_c, 3, 69, 0
4, 88320, Note_on_c, 3, 66, 45
4, 88320, Note_on_c, 3, 69, 45
4, 88480, Note_on_c, 3, 66, 0
4, 88480, Note_on_c, 3, 69, 0
4, 88512, Note_on_c, 3, 66, 45
4, 88512, Note_on_c, 3, 69, 45
4, 88672, Note_on_c, 3, 66, 0
4, 88672, Note_on_c, 3, 69, 0
4, 88704, Note_on_c, 3, 66, 45
4, 88704, Note_on_c, 3, 69, 45
4, 88864, Note_on_c, 3, 66, 0
4, 88864, Note_on_c, 3, 69, 0
4, 88896, Note_on_c, 3, 67, 92
4, 88896, Note_on_c, 3, 71, 92
4, 89056, Note_on_c, 3, 67, 0
4, 89056, Note_on_c, 3, 71, 0
4, 89088, Note_on_c, 3, 67, 45
4, 89088, Note_on_c, 3, 71, 45
4, 89248, Note_on_c, 3, 67, 0
4, 89248, Note_on_c, 3, 71, 0
4, 89280, Note_on_c, 3, 67, 45
4, 89280, Note_on_c, 3, 71, 45
4, 89440, Note_on_c, 3, 67, 0
4, 89440, Note_on_c, 3, 71, 0
4, 89472, Note_on_c, 3, 67, 45
4, 89472, Note_on_c, 3, 71, 45
4, 89632, Note_on_c, 3, 67, 0
4, 89632, Note_on_c, 3, 71, 0
4, 89664, Note_on_c, 3, 67, 45
4, 89664, Note_on_c, 3, 71, 45
4, 89824, Note_on_c, 3, 67, 0
4, 89824, Note_on_c, 3, 71, 0
4, 89856, Note_on_c, 3, 67, 45
4, 89856, Note_on_c, 3, 71, 45
4, 90016, Note_on_c, 3, 67, 0
4, 90016, Note_on_c, 3, 71, 0
4, 90048, Note_on_c, 3, 67, 45
4, 90048, Note_on_c, 3, 71, 45
4, 90208, Note_on_c, 3, 67, 0
4, 90208, Note_on_c, 3, 71, 0
4, 90240, Note_on_c, 3, 67, 45
4, 90240, Note_on_c, 3, 71, 45
4, 90400, Note_on_c, 3, 67, 0
4, 90400, Note_on_c, 3, 71, 0
4, 90432, Note_on_c, 3, 67, 45
4, 90432, Note_on_c, 3, 71, 45
4, 90592, Note_on_c, 3, 67, 0
4, 90592, Note_on_c, 3, 71, 0
4, 90624, Note_on_c, 3, 67, 45
4, 90624, Note_on_c, 3, 71, 45
4, 90784, Note_on_c, 3, 67, 0
4, 90784, Note_on_c, 3, 71, 0
4, 90816, Note_on_c, 3, 71, 45
4, 90976, Note_on_c, 3, 71, 0
4, 91008, Note_on_c, 3, 71, 45
4, 91168, Note_on_c, 3, 71, 0
4, 91200, Note_on_c, 3, 71, 45
4, 91360, Note_on_c, 3, 71, 0
4, 91392, Note_on_c, 3, 71, 45
4, 91552, Note_on_c, 3, 71, 0
4, 91584, Note_on_c, 3, 71, 45
4, 91744, Note_on_c, 3, 71, 0
4, 91776, Note_on_c, 3, 67, 45
4, 91776, Note_on_c, 3, 71, 45
4, 91936, Note_on_c, 3, 67, 0
4, 91936, Note_on_c, 3, 71, 0
4, 91968, Note_on_c, 3, 67, 45
4, 91968, Note_on_c, 3, 71, 45
4, 92128, Note_on_c, 3, 67, 0
4, 92128, Note_on_c, 3, 71, 0
4, 92160, Note_on_c, 3, 67, 45
4, 92160, Note_on_c, 3, 71, 45
4, 92320, Note_on_c, 3, 67, 0
4, 92320, Note_on_c, 3, 71, 0
4, 92352, Note_on_c, 3, 68, 45
4, 92352, Note_on_c, 3, 71, 45
4, 92512, Note_on_c, 3, 68, 0
4, 92512, Note_on_c, 3, 71, 0
4, 92544, Note_on_c, 3, 68, 45
4, 92544, Note_on_c, 3, 71, 45
4, 92704, Note_on_c, 3, 68, 0
4, 92704, Note_on_c, 3, 71, 0
4, 92736, Note_on_c, 3, 68, 44
4, 92736, Note_on_c, 3, 71, 44
4, 92896, Note_on_c, 3, 68, 0
4, 92896, Note_on_c, 3, 71, 0
4, 92928, Note_on_c, 3, 68, 43
4, 92928, Note_on_c, 3, 71, 43
4, 93088, Note_on_c, 3, 68, 0
4, 93088, Note_on_c, 3, 71, 0
4, 93120, Note_on_c, 3, 68, 42
4, 93120, Note_on_c, 3, 71, 42
4, 93280, Note_on_c, 3, 68, 0
4, 93280, Note_on_c, 3, 71, 0
4, 93312, Note_on_c, 3, 68, 41
4, 93312, Note_on_c, 3, 71, 41
4, 93472, Note_on_c, 3, 68, 0
4, 93472, Note_on_c, 3, 71, 0
4, 93504, Note_on_c, 3, 69, 40
4, 93504, Note_on_c, 3, 72, 40
4, 93664, Note_on_c, 3, 69, 0
4, 93664, Note_on_c, 3, 72, 0
4, 93696, Note_on_c, 3, 69, 39
4, 93696, Note_on_c, 3, 72, 39
4, 93856, Note_on_c, 3, 69, 0
4, 93856, Note_on_c, 3, 72, 0
4, 93888, Note_on_c, 3, 69, 38
4, 93888, Note_on_c, 3, 72, 38
4, 94048, Note_on_c, 3, 69, 0
4, 94048, Note_on_c, 3, 72, 0
4, 94080, Note_on_c, 3, 69, 36
4, 94080, Note_on_c, 3, 72, 36
4, 94240, Note_on_c, 3, 69, 0
4, 94240, Note_on_c, 3, 72, 0
4, 94272, Note_on_c, 3, 69, 34
4, 94432, Note_on_c, 3, 69, 0
4, 94464, Note_on_c, 3, 68, 32
4, 94624, Note_on_c, 3, 68, 0
4, 94656, Note_on_c, 3, 68, 30
4, 94816, Note_on_c, 3, 68, 0
4, 94848, Note_on_c, 3, 68, 30
4, 94848, Note_on_c, 3, 71, 30
4, 95008, Note_on_c, 3, 68, 0
4, 95008, Note_on_c, 3, 71, 0
4, 95040, Note_on_c, 3, 68, 30
4, 95040, Note_on_c, 3, 71, 30
4, 95200, Note_on_c, 3, 68, 0
4, 95200, Note_on_c, 3, 71, 0
4, 95232, Note_on_c, 3, 68, 30
4, 95232, Note_on_c, 3, 71, 30
4, 95392, Note_on_c, 3, 68, 0
4, 95392, Note_on_c, 3, 71, 0
4, 95424, Note_on_c, 3, 68, 30
4, 95424, Note_on_c, 3, 71, 30
4, 95584, Note_on_c, 3, 68, 0
4, 95584, Note_on_c, 3, 71, 0
4, 95616, Note_on_c, 3, 68, 30
4, 95616, Note_on_c, 3, 71, 30
4, 95776, Note_on_c, 3, 68, 0
4, 95776, Note_on_c, 3, 71, 0
4, 95808, Note_on_c, 3, 68, 30
4, 95808, Note_on_c, 3, 71, 30
4, 95968, Note_on_c, 3, 68, 0
4, 95968, Note_on_c, 3, 71, 0
4, 96000, Note_on_c, 3, 68, 30
4, 96000, Note_on_c, 3, 71, 30
4, 96160, Note_on_c, 3, 68, 0
4, 96160, Note_on_c, 3, 71, 0
4, 96192, Note_on_c, 3, 68, 30
4, 96192, Note_on_c, 3, 71, 30
4, 96352, Note_on_c, 3, 68, 0
4, 96352, Note_on_c, 3, 71, 0
4, 96384, Note_on_c, 3, 68, 30
4, 96384, Note_on_c, 3, 71, 30
4, 96544, Note_on_c, 3, 68, 0
4, 96544, Note_on_c, 3, 71, 0
4, 96576, Note_on_c, 3, 68, 30
4, 96576, Note_on_c, 3, 71, 30
4, 96736, Note_on_c, 3, 68, 0
4, 96736, Note_on_c, 3, 71, 0
4, 96768, Note_on_c, 3, 68, 30
4, 96768, Note_on_c, 3, 71, 30
4, 96928, Note_on_c, 3, 68, 0
4, 96928, Note_on_c, 3, 71, 0
4, 96960, Note_on_c, 3, 68, 30
4, 96960, Note_on_c, 3, 71, 30
4, 97120, Note_on_c, 3, 68, 0
4, 97120, Note_on_c, 3, 71, 0
4, 97152, Note_on_c, 3, 56, 30
4, 97248, Note_on_c, 3, 56, 0
4, 97248, Note_on_c, 3, 54, 32
4, 97344, Note_on_c, 3, 54, 0
4, 97344, Note_on_c, 3, 56, 34
4, 97440, Note_on_c, 3, 56, 0
4, 97440, Note_on_c, 3, 57, 36
4, 97534, Note_on_c, 3, 57, 0
4, 97536, Note_on_c, 3, 59, 38
4, 97584, Note_on_c, 3, 59, 0
4, 97728, Note_on_c, 3, 61, 44
4, 97824, Note_on_c, 3, 61, 0
4, 97824, Note_on_c, 3, 59, 47
4, 97920, Note_on_c, 3, 59, 0
4, 97920, Note_on_c, 3, 61, 50
4, 98016, Note_on_c, 3, 61, 0
4, 98016, Note_on_c, 3, 62, 53
4, 98110, Note_on_c, 3, 62, 0
4, 98112, Note_on_c, 3, 64, 56
4, 98160, Note_on_c, 3, 64, 0
4, 98304, Note_on_c, 3, 68, 62
4, 98400, Note_on_c, 3, 68, 0
4, 98400, Note_on_c, 3, 66, 65
4, 98496, Note_on_c, 3, 66, 0
4, 98496, Note_on_c, 3, 68, 68
4, 98592, Note_on_c, 3, 68, 0
4, 98592, Note_on_c, 3, 69, 71
4, 98686, Note_on_c, 3, 69, 0
4, 98688, Note_on_c, 3, 71, 74
4, 98736, Note_on_c, 3, 71, 0
4, 98880, Note_on_c, 3, 69, 80
4, 98976, Note_on_c, 3, 69, 0
4, 98976, Note_on_c, 3, 68, 83
4, 99072, Note_on_c, 3, 68, 0
4, 99072, Note_on_c, 3, 69, 86
4, 99168, Note_on_c, 3, 69, 0
4, 99168, Note_on_c, 3, 71, 89
4, 99262, Note_on_c, 3, 71, 0
4, 99264, Note_on_c, 3, 64, 92
4, 99264, Note_on_c, 3, 73, 92
4, 99424, Note_on_c, 3, 64, 0
4, 99424, Note_on_c, 3, 73, 0
4, 99456, Note_on_c, 3, 69, 45
4, 99456, Note_on_c, 3, 73, 45
4, 99616, Note_on_c, 3, 69, 0
4, 99616, Note_on_c, 3, 73, 0
4, 99648, Note_on_c, 3, 69, 45
4, 99648, Note_on_c, 3, 73, 45
4, 99808, Note_on_c, 3, 69, 0
4, 99808, Note_on_c, 3, 73, 0
4, 99840, Note_on_c, 3, 69, 45
4, 99840, Note_on_c, 3, 73, 45
4, 100000, Note_on_c, 3, 69, 0
4, 100000, Note_on_c, 3, 73, 0
4, 100032, Note_on_c, 3, 69, 45
4, 100032, Note_on_c, 3, 73, 45
4, 100192, Note_on_c, 3, 69, 0
4, 100192, Note_on_c, 3, 73, 0
4, 100224, Note_on_c, 3, 69, 45
4, 100224, Note_on_c, 3, 73, 45
4, 100384, Note_on_c, 3, 69, 0
4, 100384, Note_on_c, 3, 73, 0
4, 100416, Note_on_c, 3, 69, 45
4, 100416, Note_on_c, 3, 73, 45
4, 100576, Note_on_c, 3, 69, 0
4, 100576, Note_on_c, 3, 73, 0
4, 100608, Note_on_c, 3, 69, 45
4, 100608, Note_on_c, 3, 73, 45
4, 100768, Note_on_c, 3, 69, 0
4, 100768, Note_on_c, 3, 73, 0
4, 100800, Note_on_c, 3, 69, 45
4, 100800, Note_on_c, 3, 73, 45
4, 100960, Note_on_c, 3, 69, 0
4, 100960, Note_on_c, 3, 73, 0
4, 100992, Note_on_c, 3, 68, 45
4, 100992, Note_on_c, 3, 71, 45
4, 101152, Note_on_c, 3, 68, 0
4, 101152, Note_on_c, 3, 71, 0
4, 101184, Note_on_c, 3, 68, 45
4, 101184, Note_on_c, 3, 71, 45
4, 101344, Note_on_c, 3, 68, 0
4, 101344, Note_on_c, 3, 71, 0
4, 101376, Note_on_c, 3, 68, 45
4, 101376, Note_on_c, 3, 71, 45
4, 101536, Note_on_c, 3, 68, 0
4, 101536, Note_on_c, 3, 71, 0
4, 101568, Note_on_c, 3, 68, 45
4, 101568, Note_on_c, 3, 71, 45
4, 101728, Note_on_c, 3, 68, 0
4, 101728, Note_on_c, 3, 71, 0
4, 101760, Note_on_c, 3, 68, 45
4, 101760, Note_on_c, 3, 71, 45
4, 101920, Note_on_c, 3, 68, 0
4, 101920, Note_on_c, 3, 71, 0
4, 101952, Note_on_c, 3, 68, 45
4, 101952, Note_on_c, 3, 71, 45
4, 102112, Note_on_c, 3, 68, 0
4, 102112, Note_on_c, 3, 71, 0
4, 102144, Note_on_c, 3, 68, 45
4, 102144, Note_on_c, 3, 71, 45
4, 102304, Note_on_c, 3, 68, 0
4, 102304, Note_on_c, 3, 71, 0
4, 102336, Note_on_c, 3, 68, 45
4, 102336, Note_on_c, 3, 71, 45
4, 102496, Note_on_c, 3, 68, 0
4, 102496, Note_on_c, 3, 71, 0
4, 102528, Note_on_c, 3, 68, 45
4, 102528, Note_on_c, 3, 71, 45
4, 102688, Note_on_c, 3, 68, 0
4, 102688, Note_on_c, 3, 71, 0
4, 102720, Note_on_c, 3, 68, 45
4, 102720, Note_on_c, 3, 71, 45
4, 102880, Note_on_c, 3, 68, 0
4, 102880, Note_on_c, 3, 71, 0
4, 102912, Note_on_c, 3, 68, 45
4, 103008, Note_on_c, 3, 68, 0
4, 103008, Note_on_c, 3, 66, 45
4, 103104, Note_on_c, 3, 66, 0
4, 103104, Note_on_c, 3, 68, 45
4, 103200, Note_on_c, 3, 68, 0
4, 103200, Note_on_c, 3, 69, 45
4, 103294, Note_on_c, 3, 69, 0
4, 103296, Note_on_c, 3, 71, 45
4, 103344, Note_on_c, 3, 71, 0
4, 103488, Note_on_c, 3, 68, 45
4, 103584, Note_on_c, 3, 68, 0
4, 103584, Note_on_c, 3, 66, 45
4, 103680, Note_on_c, 3, 66, 0
4, 103680, Note_on_c, 3, 68, 45
4, 103776, Note_on_c, 3, 68, 0
4, 103776, Note_on_c, 3, 69, 45
4, 103870, Note_on_c, 3, 69, 0
4, 103872, Note_on_c, 3, 69, 92
4, 103920, Note_on_c, 3, 69, 0
4, 104640, Note_on_c, 3, 50, 45
4, 104736, Note_on_c, 3, 50, 0
4, 104736, Note_on_c, 3, 49, 45
4, 104832, Note_on_c, 3, 49, 0
4, 104832, Note_on_c, 3, 50, 45
4, 104928, Note_on_c, 3, 50, 0
4, 104928, Note_on_c, 3, 52, 45
4, 105022, Note_on_c, 3, 52, 0
4, 105024, Note_on_c, 3, 54, 45
4, 105072, Note_on_c, 3, 54, 0
4, 105216, Note_on_c, 3, 56, 45
4, 105312, Note_on_c, 3, 56, 0
4, 105312, Note_on_c, 3, 54, 45
4, 105408, Note_on_c, 3, 54, 0
4, 105408, Note_on_c, 3, 56, 45
4, 105504, Note_on_c, 3, 56, 0
4, 105504, Note_on_c, 3, 57, 45
4, 105598, Note_on_c, 3, 57, 0
4, 105600, Note_on_c, 3, 56, 45
4, 105600, Note_on_c, 3, 59, 45
4, 105648, Note_on_c, 3, 56, 0
4, 105648, Note_on_c, 3, 59, 0
4, 105792, Note_on_c, 3, 57, 45
4, 105840, Note_on_c, 3, 57, 0
4, 105984, Note_on_c, 3, 59, 45
4, 106032, Note_on_c, 3, 59, 0
4, 106176, Note_on_c, 3, 68, 45
4, 106224, Note_on_c, 3, 68, 0
4, 106368, Note_on_c, 3, 73, 45
4, 106416, Note_on_c, 3, 73, 0
4, 106560, Note_on_c, 3, 71, 45
4, 106608, Note_on_c, 3, 71, 0
4, 106752, Note_on_c, 3, 66, 45
4, 106912, Note_on_c, 3, 66, 0
4, 106944, Note_on_c, 3, 68, 45
4, 107104, Note_on_c, 3, 68, 0
4, 107136, Note_on_c, 3, 69, 45
4, 107296, Note_on_c, 3, 69, 0
4, 107328, Note_on_c, 3, 68, 45
4, 107328, Note_on_c, 3, 71, 45
4, 107488, Note_on_c, 3, 68, 0
4, 107488, Note_on_c, 3, 71, 0
4, 107520, Note_on_c, 3, 68, 45
4, 107520, Note_on_c, 3, 71, 45
4, 107680, Note_on_c, 3, 68, 0
4, 107680, Note_on_c, 3, 71, 0
4, 107712, Note_on_c, 3, 68, 45
4, 107712, Note_on_c, 3, 71, 45
4, 107872, Note_on_c, 3, 68, 0
4, 107872, Note_on_c, 3, 71, 0
4, 107904, Note_on_c, 3, 68, 45
4, 107904, Note_on_c, 3, 71, 45
4, 108064, Note_on_c, 3, 68, 0
4, 108064, Note_on_c, 3, 71, 0
4, 108096, Note_on_c, 3, 68, 45
4, 108096, Note_on_c, 3, 71, 45
4, 108256, Note_on_c, 3, 68, 0
4, 108256, Note_on_c, 3, 71, 0
4, 108288, Note_on_c, 3, 68, 45
4, 108288, Note_on_c, 3, 71, 45
4, 108448, Note_on_c, 3, 68, 0
4, 108448, Note_on_c, 3, 71, 0
4, 108480, Note_on_c, 3, 68, 45
4, 108480, Note_on_c, 3, 71, 45
4, 108640, Note_on_c, 3, 68, 0
4, 108640, Note_on_c, 3, 71, 0
4, 108672, Note_on_c, 3, 68, 48
4, 108672, Note_on_c, 3, 76, 48
4, 108832, Note_on_c, 3, 68, 0
4, 108832, Note_on_c, 3, 76, 0
4, 108864, Note_on_c, 3, 68, 52
4, 108864, Note_on_c, 3, 76, 52
4, 109024, Note_on_c, 3, 68, 0
4, 109024, Note_on_c, 3, 76, 0
4, 109056, Note_on_c, 3, 68, 56
4, 109056, Note_on_c, 3, 76, 56
4, 109216, Note_on_c, 3, 68, 0
4, 109216, Note_on_c, 3, 76, 0
4, 109248, Note_on_c, 3, 56, 60
4, 109344, Note_on_c, 3, 56, 0
4, 109344, Note_on_c, 3, 54, 62
4, 109440, Note_on_c, 3, 54, 0
4, 109440, Note_on_c, 3, 56, 64
4, 109536, Note_on_c, 3, 56, 0
4, 109536, Note_on_c, 3, 57, 66
4, 109630, Note_on_c, 3, 57, 0
4, 109632, Note_on_c, 3, 59, 68
4, 109680, Note_on_c, 3, 59, 0
4, 109824, Note_on_c, 3, 62, 72
4, 109920, Note_on_c, 3, 62, 0
4, 109920, Note_on_c, 3, 64, 74
4, 110016, Note_on_c, 3, 64, 0
4, 110016, Note_on_c, 3, 62, 76
4, 110112, Note_on_c, 3, 62, 0
4, 110112, Note_on_c, 3, 61, 78
4, 110206, Note_on_c, 3, 61, 0
4, 110208, Note_on_c, 3, 59, 80
4, 110256, Note_on_c, 3, 59, 0
4, 110400, Note_on_c, 3, 54, 84
4, 110496, Note_on_c, 3, 54, 0
4, 110496, Note_on_c, 3, 52, 86
4, 110592, Note_on_c, 3, 52, 0
4, 110592, Note_on_c, 3, 54, 88
4, 110688, Note_on_c, 3, 54, 0
4, 110688, Note_on_c, 3, 56, 90
4, 110782, Note_on_c, 3, 56, 0
4, 110784, Note_on_c, 3, 57, 92
4, 110832, Note_on_c, 3, 57, 0
4, 110976, Note_on_c, 3, 54, 92
4, 111072, Note_on_c, 3, 54, 0
4, 111072, Note_on_c, 3, 52, 92
4, 111168, Note_on_c, 3, 52, 0
4, 111168, Note_on_c, 3, 54, 92
4, 111264, Note_on_c, 3, 54, 0
4, 111264, Note_on_c, 3, 56, 92
4, 111358, Note_on_c, 3, 56, 0
4, 111360, Note_on_c, 3, 57, 92
4, 111408, Note_on_c, 3, 57, 0
4, 111552, Note_on_c, 3, 54, 92
4, 111648, Note_on_c, 3, 54, 0
4, 111648, Note_on_c, 3, 52, 92
4, 111744, Note_on_c, 3, 52, 0
4, 111744, Note_on_c, 3, 54, 92
4, 111840, Note_on_c, 3, 54, 0
4, 111840, Note_on_c, 3, 56, 92
4, 111934, Note_on_c, 3, 56, 0
4, 111936, Note_on_c, 3, 57, 92
4, 112096, Note_on_c, 3, 57, 0
4, 112128, Note_on_c, 3, 54, 92
4, 112224, Note_on_c, 3, 54, 0
4, 112224, Note_on_c, 3, 52, 92
4, 112320, Note_on_c, 3, 52, 0
4, 112320, Note_on_c, 3, 54, 92
4, 112416, Note_on_c, 3, 54, 0
4, 112416, Note_on_c, 3, 56, 92
4, 112510, Note_on_c, 3, 56, 0
4, 112512, Note_on_c, 3, 57, 92
4, 112672, Note_on_c, 3, 57, 0
4, 112704, Note_on_c, 3, 54, 92
4, 112800, Note_on_c, 3, 54, 0
4, 112800, Note_on_c, 3, 52, 92
4, 112896, Note_on_c, 3, 52, 0
4, 112896, Note_on_c, 3, 54, 92
4, 112992, Note_on_c, 3, 54, 0
4, 112992, Note_on_c, 3, 56, 92
4, 113086, Note_on_c, 3, 56, 0
4, 113088, Note_on_c, 3, 57, 92
4, 113248, Note_on_c, 3, 57, 0
4, 113280, Note_on_c, 3, 54, 92
4, 113376, Note_on_c, 3, 54, 0
4, 113376, Note_on_c, 3, 52, 92
4, 113472, Note_on_c, 3, 52, 0
4, 113472, Note_on_c, 3, 54, 92
4, 113568, Note_on_c, 3, 54, 0
4, 113568, Note_on_c, 3, 56, 92
4, 113662, Note_on_c, 3, 56, 0
4, 113664, Note_on_c, 3, 57, 92
4, 113824, Note_on_c, 3, 57, 0
4, 113856, Note_on_c, 3, 54, 92
4, 113952, Note_on_c, 3, 54, 0
4, 113952, Note_on_c, 3, 52, 92
4, 114048, Note_on_c, 3, 52, 0
4, 114048, Note_on_c, 3, 54, 92
4, 114144, Note_on_c, 3, 54, 0
4, 114144, Note_on_c, 3, 56, 92
4, 114238, Note_on_c, 3, 56, 0
4, 114240, Note_on_c, 3, 57, 92
4, 114400, Note_on_c, 3, 57, 0
4, 114432, Note_on_c, 3, 54, 92
4, 114528, Note_on_c, 3, 54, 0
4, 114528, Note_on_c, 3, 52, 92
4, 114624, Note_on_c, 3, 52, 0
4, 114624, Note_on_c, 3, 54, 92
4, 114720, Note_on_c, 3, 54, 0
4, 114720, Note_on_c, 3, 56, 92
4, 114814, Note_on_c, 3, 56, 0
4, 114816, Note_on_c, 3, 57, 92
4, 114976, Note_on_c, 3, 57, 0
4, 115008, Note_on_c, 3, 54, 92
4, 115104, Note_on_c, 3, 54, 0
4, 115104, Note_on_c, 3, 52, 92
4, 115200, Note_on_c, 3, 52, 0
4, 115200, Note_on_c, 3, 54, 92
4, 115296, Note_on_c, 3, 54, 0
4, 115296, Note_on_c, 3, 56, 92
4, 115390, Note_on_c, 3, 56, 0
4, 115392, Note_on_c, 3, 57, 92
4, 115552, Note_on_c, 3, 57, 0
4, 115584, Note_on_c, 3, 54, 92
4, 115680, Note_on_c, 3, 54, 0
4, 115680, Note_on_c, 3, 52, 92
4, 115776, Note_on_c, 3, 52, 0
4, 115776, Note_on_c, 3, 54, 92
4, 115872, Note_on_c, 3, 54, 0
4, 115872, Note_on_c, 3, 56, 92
4, 115966, Note_on_c, 3, 56, 0
4, 115968, Note_on_c, 3, 57, 92
4, 116128, Note_on_c, 3, 57, 0
4, 116160, Note_on_c, 3, 54, 92
4, 116256, Note_on_c, 3, 54, 0
4, 116256, Note_on_c, 3, 52, 92
4, 116352, Note_on_c, 3, 52, 0
4, 116352, Note_on_c, 3, 54, 92
4, 116448, Note_on_c, 3, 54, 0
4, 116448, Note_on_c, 3, 56, 92
4, 116542, Note_on_c, 3, 56, 0
4, 116544, Note_on_c, 3, 57, 92
4, 116704, Note_on_c, 3, 57, 0
4, 116736, Note_on_c, 3, 54, 92
4, 116832, Note_on_c, 3, 54, 0
4, 116832, Note_on_c, 3, 52, 92
4, 116928, Note_on_c, 3, 52, 0
4, 116928, Note_on_c, 3, 54, 92
4, 117024, Note_on_c, 3, 54, 0
4, 117024, Note_on_c, 3, 56, 92
4, 117118, Note_on_c, 3, 56, 0
4, 117120, Note_on_c, 3, 57, 92
4, 117280, Note_on_c, 3, 57, 0
4, 117312, Note_on_c, 3, 54, 92
4, 117408, Note_on_c, 3, 54, 0
4, 117408, Note_on_c, 3, 52, 92
4, 117504, Note_on_c, 3, 52, 0
4, 117504, Note_on_c, 3, 54, 92
4, 117600, Note_on_c, 3, 54, 0
4, 117600, Note_on_c, 3, 56, 92
4, 117694, Note_on_c, 3, 56, 0
4, 117696, Note_on_c, 3, 57, 92
4, 117856, Note_on_c, 3, 57, 0
4, 117888, Note_on_c, 3, 54, 92
4, 117984, Note_on_c, 3, 54, 0
4, 117984, Note_on_c, 3, 52, 92
4, 118080, Note_on_c, 3, 52, 0
4, 118080, Note_on_c, 3, 54, 92
4, 118176, Note_on_c, 3, 54, 0
4, 118176, Note_on_c, 3, 56, 92
4, 118270, Note_on_c, 3, 56, 0
4, 118272, Note_on_c, 3, 57, 92
4, 118432, Note_on_c, 3, 57, 0
4, 118464, Note_on_c, 3, 54, 92
4, 118560, Note_on_c, 3, 54, 0
4, 118560, Note_on_c, 3, 52, 92
4, 118656, Note_on_c, 3, 52, 0
4, 118656, Note_on_c, 3, 54, 92
4, 118752, Note_on_c, 3, 54, 0
4, 118752, Note_on_c, 3, 56, 92
4, 118846, Note_on_c, 3, 56, 0
4, 118848, Note_on_c, 3, 57, 92
4, 119008, Note_on_c, 3, 57, 0
4, 119040, Note_on_c, 3, 54, 92
4, 119136, Note_on_c, 3, 54, 0
4, 119136, Note_on_c, 3, 52, 92
4, 119232, Note_on_c, 3, 52, 0
4, 119232, Note_on_c, 3, 54, 92
4, 119328, Note_on_c, 3, 54, 0
4, 119328, Note_on_c, 3, 56, 92
4, 119422, Note_on_c, 3, 56, 0
4, 119424, Note_on_c, 3, 57, 92
4, 119584, Note_on_c, 3, 57, 0
4, 119616, Note_on_c, 3, 54, 92
4, 119712, Note_on_c, 3, 54, 0
4, 119712, Note_on_c, 3, 52, 92
4, 119808, Note_on_c, 3, 52, 0
4, 119808, Note_on_c, 3, 54, 92
4, 119904, Note_on_c, 3, 54, 0
4, 119904, Note_on_c, 3, 56, 92
4, 119998, Note_on_c, 3, 56, 0
4, 120000, Note_on_c, 3, 57, 92
4, 120160, Note_on_c, 3, 57, 0
4, 120192, Note_on_c, 3, 54, 92
4, 120288, Note_on_c, 3, 54, 0
4, 120288, Note_on_c, 3, 52, 92
4, 120384, Note_on_c, 3, 52, 0
4, 120384, Note_on_c, 3, 54, 92
4, 120480, Note_on_c, 3, 54, 0
4, 120480, Note_on_c, 3, 56, 92
4, 120574, Note_on_c, 3, 56, 0
4, 120576, Note_on_c, 3, 57, 92
4, 120736, Note_on_c, 3, 57, 0
4, 120768, Note_on_c, 3, 54, 92
4, 120864, Note_on_c, 3, 54, 0
4, 120864, Note_on_c, 3, 52, 92
4, 120960, Note_on_c, 3, 52, 0
4, 120960, Note_on_c, 3, 54, 92
4, 121056, Note_on_c, 3, 54, 0
4, 121056, Note_on_c, 3, 56, 92
4, 121150, Note_on_c, 3, 56, 0
4, 121152, Note_on_c, 3, 57, 92
4, 121312, Note_on_c, 3, 57, 0
4, 121344, Note_on_c, 3, 54, 92
4, 121440, Note_on_c, 3, 54, 0
4, 121440, Note_on_c, 3, 52, 92
4, 121536, Note_on_c, 3, 52, 0
4, 121536, Note_on_c, 3, 54, 92
4, 121632, Note_on_c, 3, 54, 0
4, 121632, Note_on_c, 3, 56, 92
4, 121726, Note_on_c, 3, 56, 0
4, 121728, Note_on_c, 3, 57, 92
4, 121888, Note_on_c, 3, 57, 0
4, 121920, Note_on_c, 3, 54, 92
4, 122016, Note_on_c, 3, 54, 0
4, 122016, Note_on_c, 3, 52, 92
4, 122112, Note_on_c, 3, 52, 0
4, 122112, Note_on_c, 3, 54, 92
4, 122208, Note_on_c, 3, 54, 0
4, 122208, Note_on_c, 3, 56, 92
4, 122302, Note_on_c, 3, 56, 0
4, 122304, Note_on_c, 3, 57, 92
4, 122464, Note_on_c, 3, 57, 0
4, 122496, Note_on_c, 3, 54, 92
4, 122592, Note_on_c, 3, 54, 0
4, 122592, Note_on_c, 3, 52, 92
4, 122688, Note_on_c, 3, 52, 0
4, 122688, Note_on_c, 3, 54, 92
4, 122784, Note_on_c, 3, 54, 0
4, 122784, Note_on_c, 3, 56, 92
4, 122878, Note_on_c, 3, 56, 0
4, 122880, Note_on_c, 3, 57, 92
4, 123040, Note_on_c, 3, 57, 0
4, 123072, Note_on_c, 3, 54, 92
4, 123168, Note_on_c, 3, 54, 0
4, 123168, Note_on_c, 3, 52, 92
4, 123264, Note_on_c, 3, 52, 0
4, 123264, Note_on_c, 3, 54, 92
4, 123360, Note_on_c, 3, 54, 0
4, 123360, Note_on_c, 3, 56, 92
4, 123454, Note_on_c, 3, 56, 0
4, 123456, Note_on_c, 3, 57, 92
4, 123616, Note_on_c, 3, 57, 0
4, 123648, Note_on_c, 3, 54, 92
4, 123744, Note_on_c, 3, 54, 0
4, 123744, Note_on_c, 3, 52, 92
4, 123840, Note_on_c, 3, 52, 0
4, 123840, Note_on_c, 3, 54, 92
4, 123936, Note_on_c, 3, 54, 0
4, 123936, Note_on_c, 3, 56, 92
4, 124030, Note_on_c, 3, 56, 0
4, 124032, Note_on_c, 3, 57, 92
4, 124192, Note_on_c, 3, 57, 0
4, 124224, Note_on_c, 3, 54, 92
4, 124320, Note_on_c, 3, 54, 0
4, 124320, Note_on_c, 3, 52, 92
4, 124416, Note_on_c, 3, 52, 0
4, 124416, Note_on_c, 3, 54, 92
4, 124512, Note_on_c, 3, 54, 0
4, 124512, Note_on_c, 3, 56, 92
4, 124606, Note_on_c, 3, 56, 0
4, 124608, Note_on_c, 3, 57, 92
4, 124768, Note_on_c, 3, 57, 0
4, 124800, Note_on_c, 3, 54, 92
4, 124896, Note_on_c, 3, 54, 0
4, 124896, Note_on_c, 3, 52, 92
4, 124992, Note_on_c, 3, 52, 0
4, 124992, Note_on_c, 3, 54, 92
4, 125088, Note_on_c, 3, 54, 0
4, 125088, Note_on_c, 3, 56, 92
4, 125182, Note_on_c, 3, 56, 0
4, 125184, Note_on_c, 3, 57, 92
4, 125344, Note_on_c, 3, 57, 0
4, 125376, Note_on_c, 3, 54, 92
4, 125472, Note_on_c, 3, 54, 0
4, 125472, Note_on_c, 3, 52, 92
4, 125568, Note_on_c, 3, 52, 0
4, 125568, Note_on_c, 3, 54, 92
4, 125664, Note_on_c, 3, 54, 0
4, 125664, Note_on_c, 3, 56, 92
4, 125758, Note_on_c, 3, 56, 0
4, 125760, Note_on_c, 3, 57, 92
4, 125920, Note_on_c, 3, 57, 0
4, 125952, Note_on_c, 3, 54, 92
4, 126048, Note_on_c, 3, 54, 0
4, 126048, Note_on_c, 3, 52, 92
4, 126144, Note_on_c, 3, 52, 0
4, 126144, Note_on_c, 3, 54, 92
4, 126240, Note_on_c, 3, 54, 0
4, 126240, Note_on_c, 3, 56, 92
4, 126334, Note_on_c, 3, 56, 0
4, 126336, Note_on_c, 3, 57, 92
4, 126496, Note_on_c, 3, 57, 0
4, 126528, Note_on_c, 3, 54, 92
4, 126624, Note_on_c, 3, 54, 0
4, 126624, Note_on_c, 3, 52, 92
4, 126720, Note_on_c, 3, 52, 0
4, 126720, Note_on_c, 3, 54, 92
4, 126816, Note_on_c, 3, 54, 0
4, 126816, Note_on_c, 3, 56, 92
4, 126910, Note_on_c, 3, 56, 0
4, 126912, Note_on_c, 3, 57, 92
4, 127072, Note_on_c, 3, 57, 0
4, 127104, Note_on_c, 3, 54, 92
4, 127200, Note_on_c, 3, 54, 0
4, 127200, Note_on_c, 3, 52, 92
4, 127296, Note_on_c, 3, 52, 0
4, 127296, Note_on_c, 3, 54, 92
4, 127392, Note_on_c, 3, 54, 0
4, 127392, Note_on_c, 3, 56, 92
4, 127486, Note_on_c, 3, 56, 0
4, 127488, Note_on_c, 3, 57, 92
4, 127648, Note_on_c, 3, 57, 0
4, 127680, Note_on_c, 3, 54, 92
4, 127776, Note_on_c, 3, 54, 0
4, 127776, Note_on_c, 3, 52, 92
4, 127872, Note_on_c, 3, 52, 0
4, 127872, Note_on_c, 3, 54, 92
4, 127968, Note_on_c, 3, 54, 0
4, 127968, Note_on_c, 3, 56, 92
4, 128062, Note_on_c, 3, 56, 0
4, 128064, Note_on_c, 3, 57, 92
4, 128224, Note_on_c, 3, 57, 0
4, 128256, Note_on_c, 3, 54, 92
4, 128352, Note_on_c, 3, 54, 0
4, 128352, Note_on_c, 3, 52, 92
4, 128448, Note_on_c, 3, 52, 0
4, 128448, Note_on_c, 3, 54, 92
4, 128544, Note_on_c, 3, 54, 0
4, 128544, Note_on_c, 3, 56, 92
4, 128638, Note_on_c, 3, 56, 0
4, 128640, Note_on_c, 3, 57, 92
4, 128800, Note_on_c, 3, 57, 0
4, 128832, Note_on_c, 3, 54, 92
4, 128928, Note_on_c, 3, 54, 0
4, 128928, Note_on_c, 3, 52, 92
4, 129024, Note_on_c, 3, 52, 0
4, 129024, Note_on_c, 3, 54, 92
4, 129120, Note_on_c, 3, 54, 0
4, 129120, Note_on_c, 3, 56, 92
4, 129214, Note_on_c, 3, 56, 0
4, 129216, Note_on_c, 3, 57, 92
4, 129376, Note_on_c, 3, 57, 0
4, 129408, Note_on_c, 3, 54, 89
4, 129504, Note_on_c, 3, 54, 0
4, 129504, Note_on_c, 3, 52, 87
4, 129600, Note_on_c, 3, 52, 0
4, 129600, Note_on_c, 3, 54, 85
4, 129696, Note_on_c, 3, 54, 0
4, 129696, Note_on_c, 3, 56, 83
4, 129790, Note_on_c, 3, 56, 0
4, 129792, Note_on_c, 3, 57, 81
4, 129952, Note_on_c, 3, 57, 0
4, 129984, Note_on_c, 3, 54, 77
4, 130080, Note_on_c, 3, 54, 0
4, 130080, Note_on_c, 3, 52, 75
4, 130176, Note_on_c, 3, 52, 0
4, 130176, Note_on_c, 3, 54, 73
4, 130272, Note_on_c, 3, 54, 0
4, 130272, Note_on_c, 3, 56, 71
4, 130366, Note_on_c, 3, 56, 0
4, 130368, Note_on_c, 3, 57, 69
4, 130528, Note_on_c, 3, 57, 0
4, 130560, Note_on_c, 3, 54, 65
4, 130656, Note_on_c, 3, 54, 0
4, 130656, Note_on_c, 3, 52, 63
4, 130752, Note_on_c, 3, 52, 0
4, 130752, Note_on_c, 3, 54, 61
4, 130848, Note_on_c, 3, 54, 0
4, 130848, Note_on_c, 3, 56, 59
4, 130942, Note_on_c, 3, 56, 0
4, 130944, Note_on_c, 3, 57, 57
4, 131104, Note_on_c, 3, 57, 0
4, 131136, Note_on_c, 3, 54, 53
4, 131232, Note_on_c, 3, 54, 0
4, 131232, Note_on_c, 3, 52, 51
4, 131328, Note_on_c, 3, 52, 0
4, 131328, Note_on_c, 3, 54, 49
4, 131424, Note_on_c, 3, 54, 0
4, 131424, Note_on_c, 3, 56, 47
4, 131518, Note_on_c, 3, 56, 0
4, 131520, Note_on_c, 3, 57, 45
4, 131680, Note_on_c, 3, 57, 0
4, 131712, Note_on_c, 3, 54, 45
4, 131808, Note_on_c, 3, 54, 0
4, 131808, Note_on_c, 3, 52, 45
4, 131904, Note_on_c, 3, 52, 0
4, 131904, Note_on_c, 3, 54, 45
4, 132000, Note_on_c, 3, 54, 0
4, 132000, Note_on_c, 3, 56, 45
4, 132094, Note_on_c, 3, 56, 0
4, 132096, Note_on_c, 3, 57, 45
4, 132256, Note_on_c, 3, 57, 0
4, 132288, Note_on_c, 3, 54, 45
4, 132384, Note_on_c, 3, 54, 0
4, 132384, Note_on_c, 3, 52, 45
4, 132480, Note_on_c, 3, 52, 0
4, 132480, Note_on_c, 3, 54, 45
4, 132576, Note_on_c, 3, 54, 0
4, 132576, Note_on_c, 3, 56, 45
4, 132670, Note_on_c, 3, 56, 0
4, 132672, Note_on_c, 3, 57, 45
4, 132832, Note_on_c, 3, 57, 0
4, 132864, Note_on_c, 3, 54, 44
4, 132960, Note_on_c, 3, 54, 0
4, 132960, Note_on_c, 3, 52, 44
4, 133056, Note_on_c, 3, 52, 0
4, 133056, Note_on_c, 3, 54, 44
4, 133152, Note_on_c, 3, 54, 0
4, 133152, Note_on_c, 3, 56, 44
4, 133246, Note_on_c, 3, 56, 0
4, 133248, Note_on_c, 3, 57, 44
4, 133408, Note_on_c, 3, 57, 0
4, 133440, Note_on_c, 3, 54, 43
4, 133536, Note_on_c, 3, 54, 0
4, 133536, Note_on_c, 3, 52, 43
4, 133632, Note_on_c, 3, 52, 0
4, 133632, Note_on_c, 3, 54, 43
4, 133728, Note_on_c, 3, 54, 0
4, 133728, Note_on_c, 3, 56, 43
4, 133822, Note_on_c, 3, 56, 0
4, 133824, Note_on_c, 3, 57, 43
4, 133984, Note_on_c, 3, 57, 0
4, 134016, Note_on_c, 3, 54, 42
4, 134112, Note_on_c, 3, 54, 0
4, 134112, Note_on_c, 3, 52, 42
4, 134208, Note_on_c, 3, 52, 0
4, 134208, Note_on_c, 3, 54, 42
4, 134304, Note_on_c, 3, 54, 0
4, 134304, Note_on_c, 3, 56, 42
4, 134398, Note_on_c, 3, 56, 0
4, 134400, Note_on_c, 3, 57, 42
4, 134560, Note_on_c, 3, 57, 0
4, 134592, Note_on_c, 3, 54, 40
4, 134688, Note_on_c, 3, 54, 0
4, 134688, Note_on_c, 3, 52, 39
4, 134784, Note_on_c, 3, 52, 0
4, 134784, Note_on_c, 3, 54, 38
4, 134880, Note_on_c, 3, 54, 0
4, 134880, Note_on_c, 3, 56, 37
4, 134974, Note_on_c, 3, 56, 0
4, 134976, Note_on_c, 3, 57, 36
4, 135136, Note_on_c, 3, 57, 0
4, 135168, Note_on_c, 3, 54, 34
4, 135264, Note_on_c, 3, 54, 0
4, 135264, Note_on_c, 3, 52, 33
4, 135360, Note_on_c, 3, 52, 0
4, 135360, Note_on_c, 3, 54, 32
4, 135456, Note_on_c, 3, 54, 0
4, 135456, Note_on_c, 3, 56, 31
4, 135550, Note_on_c, 3, 56, 0
4, 135552, Note_on_c, 3, 57, 30
4, 135712, Note_on_c, 3, 57, 0
4, 135744, Note_on_c, 3, 54, 30
4, 135840, Note_on_c, 3, 54, 0
4, 135840, Note_on_c, 3, 52, 30
4, 135936, Note_on_c, 3, 52, 0
4, 135936, Note_on_c, 3, 54, 30
4, 136032, Note_on_c, 3, 54, 0
4, 136032, Note_on_c, 3, 56, 30
4, 136126, Note_on_c, 3, 56, 0
4, 136128, Note_on_c, 3, 57, 30
4, 136288, Note_on_c, 3, 57, 0
4, 136320, Note_on_c, 3, 54, 30
4, 136416, Note_on_c, 3, 54, 0
4, 136416, Note_on_c, 3, 52, 30
4, 136512, Note_on_c, 3, 52, 0
4, 136512, Note_on_c, 3, 54, 30
4, 136608, Note_on_c, 3, 54, 0
4, 136608, Note_on_c, 3, 56, 30
4, 136702, Note_on_c, 3, 56, 0
4, 136704, Note_on_c, 3, 57, 30
4, 136864, Note_on_c, 3, 57, 0
4, 136896, Note_on_c, 3, 54, 30
4, 136992, Note_on_c, 3, 54, 0
4, 136992, Note_on_c, 3, 52, 30
4, 137088, Note_on_c, 3, 52, 0
4, 137088, Note_on_c, 3, 54, 30
4, 137184, Note_on_c, 3, 54, 0
4, 137184, Note_on_c, 3, 56, 30
4, 137278, Note_on_c, 3, 56, 0
4, 137280, Note_on_c, 3, 57, 30
4, 137440, Note_on_c, 3, 57, 0
4, 137472, Note_on_c, 3, 54, 30
4, 137568, Note_on_c, 3, 54, 0
4, 137568, Note_on_c, 3, 52, 30
4, 137664, Note_on_c, 3, 52, 0
4, 137664, Note_on_c, 3, 54, 30
4, 137760, Note_on_c, 3, 54, 0
4, 137760, Note_on_c, 3, 56, 30
4, 137856, Note_on_c, 3, 56, 0
4, 137856, Note_on_c, 3, 57, 30
4, 137904, Note_on_c, 3, 57, 0
4, 138048, Note_on_c, 3, 54, 30
4, 138144, Note_on_c, 3, 54, 0
4, 138144, Note_on_c, 3, 52, 30
4, 138240, Note_on_c, 3, 52, 0
4, 138240, Note_on_c, 3, 54, 30
4, 138336, Note_on_c, 3, 54, 0
4, 138336, Note_on_c, 3, 55, 30
4, 138432, Note_on_c, 3, 55, 0
4, 138432, Note_on_c, 3, 57, 30
4, 138480, Note_on_c, 3, 57, 0
4, 138624, Note_on_c, 3, 54, 30
4, 138720, Note_on_c, 3, 54, 0
4, 138720, Note_on_c, 3, 52, 30
4, 138816, Note_on_c, 3, 52, 0
4, 138816, Note_on_c, 3, 53, 30
4, 138912, Note_on_c, 3, 53, 0
4, 138912, Note_on_c, 3, 55, 30
4, 139008, Note_on_c, 3, 55, 0
4, 139008, Note_on_c, 3, 57, 30
4, 139056, Note_on_c, 3, 57, 0
4, 139200, Note_on_c, 3, 53, 30
4, 139296, Note_on_c, 3, 53, 0
4, 139296, Note_on_c, 3, 52, 30
4, 139392, Note_on_c, 3, 52, 0
4, 139392, Note_on_c, 3, 53, 30
4, 139488, Note_on_c, 3, 53, 0
4, 139488, Note_on_c, 3, 55, 30
4, 139776, Note_on_c, 3, 55, 0
4, 139776, Note_on_c, 3, 57, 30
4, 140352, Note_on_c, 3, 57, 0
4, 140352, Note_on_c, 3, 55, 30
4, 140928, Note_on_c, 3, 55, 0
4, 140928, Note_on_c, 3, 53, 30
4, 141504, Note_on_c, 3, 53, 0
4, 141504, Note_on_c, 3, 55, 30
4, 142048, Note_on_c, 3, 55, 0
4, 143808, Note_on_c, 3, 55, 30
4, 144144, Note_on_c, 3, 55, 0
4, 144192, Note_on_c, 3, 53, 30
4, 144720, Note_on_c, 3, 53, 0
4, 144768, Note_on_c, 3, 52, 45
4, 145296, Note_on_c, 3, 52, 0
4, 145344, Note_on_c, 3, 53, 45
4, 145872, Note_on_c, 3, 53, 0
4, 145920, Note_on_c, 3, 52, 45
4, 146448, Note_on_c, 3, 52, 0
4, 146496, Note_on_c, 3, 53, 45
4, 147024, Note_on_c, 3, 53, 0
4, 147072, Note_on_c, 3, 52, 45
4, 147600, Note_on_c, 3, 52, 0
4, 147648, Note_on_c, 3, 53, 45
4, 147696, Note_on_c, 3, 53, 0
4, 147840, Note_on_c, 3, 53, 45
4, 147888, Note_on_c, 3, 53, 0
4, 148032, Note_on_c, 3, 52, 45
4, 148080, Note_on_c, 3, 52, 0
4, 148224, Note_on_c, 3, 53, 45
4, 148272, Note_on_c, 3, 53, 0
4, 148416, Note_on_c, 3, 69, 30
4, 148464, Note_on_c, 3, 69, 0
4, 148608, Note_on_c, 3, 76, 30
4, 148656, Note_on_c, 3, 76, 0
4, 148800, Note_on_c, 3, 69, 30
4, 148848, Note_on_c, 3, 69, 0
4, 148992, Note_on_c, 3, 53, 30
4, 149040, Note_on_c, 3, 53, 0
4, 149184, Note_on_c, 3, 65, 30
4, 149536, Note_on_c, 3, 65, 0
4, 149568, Note_on_c, 3, 64, 30
4, 149728, Note_on_c, 3, 64, 0
4, 149760, Note_on_c, 3, 70, 30
4, 149952, Note_on_c, 3, 70, 0
4, 149952, Note_on_c, 3, 69, 30
4, 150112, Note_on_c, 3, 69, 0
4, 150144, Note_on_c, 3, 57, 30
4, 150304, Note_on_c, 3, 57, 0
4, 150336, Note_on_c, 3, 69, 30
4, 150496, Note_on_c, 3, 69, 0
4, 150528, Note_on_c, 3, 62, 30
4, 150688, Note_on_c, 3, 62, 0
4, 150720, Note_on_c, 3, 70, 30
4, 150880, Note_on_c, 3, 70, 0
4, 150912, Note_on_c, 3, 64, 30
4, 151072, Note_on_c, 3, 64, 0
4, 151104, Note_on_c, 3, 69, 30
4, 151264, Note_on_c, 3, 69, 0
4, 151296, Note_on_c, 3, 60, 30
4, 151456, Note_on_c, 3, 60, 0
4, 151488, Note_on_c, 3, 65, 30
4, 151840, Note_on_c, 3, 65, 0
4, 151872, Note_on_c, 3, 52, 30
4, 152032, Note_on_c, 3, 52, 0
4, 152064, Note_on_c, 3, 64, 30
4, 152224, Note_on_c, 3, 64, 0
4, 152256, Note_on_c, 3, 57, 30
4, 152416, Note_on_c, 3, 57, 0
4, 152448, Note_on_c, 3, 69, 30
4, 152608, Note_on_c, 3, 69, 0
4, 152640, Note_on_c, 3, 60, 30
4, 152800, Note_on_c, 3, 60, 0
4, 153024, Note_on_c, 3, 51, 127
4, 153360, Note_on_c, 3, 51, 0
4, 153600, Note_on_c, 3, 51, 89
4, 153936, Note_on_c, 3, 51, 0
4, 153984, Note_on_c, 3, 51, 82
4, 154320, Note_on_c, 3, 51, 0
4, 154368, Note_on_c, 3, 51, 75
4, 154528, Note_on_c, 3, 51, 0
4, 154752, Note_on_c, 3, 51, 69
4, 155088, Note_on_c, 3, 51, 0
4, 155136, Note_on_c, 3, 51, 61
4, 155472, Note_on_c, 3, 51, 0
4, 155520, Note_on_c, 3, 51, 53
4, 155680, Note_on_c, 3, 51, 0
4, 155904, Note_on_c, 3, 51, 45
4, 156240, Note_on_c, 3, 51, 0
4, 156480, Note_on_c, 3, 51, 45
4, 156816, Note_on_c, 3, 51, 0
4, 157056, Note_on_c, 3, 52, 30
4, 157392, Note_on_c, 3, 52, 0
4, 157632, Note_on_c, 3, 52, 30
4, 157968, Note_on_c, 3, 52, 0
4, 158016, Note_on_c, 3, 53, 35
4, 158176, Note_on_c, 3, 53, 0
4, 158208, Note_on_c, 3, 48, 37
4, 158400, Note_on_c, 3, 57, 39
4, 158592, Note_on_c, 3, 57, 0
4, 158592, Note_on_c, 3, 59, 41
4, 158752, Note_on_c, 3, 48, 0
4, 158752, Note_on_c, 3, 59, 0
4, 158784, Note_on_c, 3, 48, 43
4, 158976, Note_on_c, 3, 60, 45
4, 159168, Note_on_c, 3, 60, 0
4, 159168, Note_on_c, 3, 62, 47
4, 159328, Note_on_c, 3, 48, 0
4, 159328, Note_on_c, 3, 62, 0
4, 159360, Note_on_c, 3, 48, 49
4, 159552, Note_on_c, 3, 60, 51
4, 159744, Note_on_c, 3, 60, 0
4, 159744, Note_on_c, 3, 59, 53
4, 159904, Note_on_c, 3, 48, 0
4, 159904, Note_on_c, 3, 59, 0
4, 159936, Note_on_c, 3, 48, 56
4, 160128, Note_on_c, 3, 48, 0
4, 160128, Note_on_c, 3, 49, 59
4, 160128, Note_on_c, 3, 58, 59
4, 160320, Note_on_c, 3, 49, 0
4, 160320, Note_on_c, 3, 58, 0
4, 160320, Note_on_c, 3, 48, 62
4, 160320, Note_on_c, 3, 57, 62
4, 160480, Note_on_c, 3, 48, 0
4, 160480, Note_on_c, 3, 57, 0
4, 160512, Note_on_c, 3, 48, 65
4, 160704, Note_on_c, 3, 57, 68
4, 160896, Note_on_c, 3, 57, 0
4, 160896, Note_on_c, 3, 59, 71
4, 161056, Note_on_c, 3, 48, 0
4, 161056, Note_on_c, 3, 59, 0
4, 161088, Note_on_c, 3, 48, 74
4, 161280, Note_on_c, 3, 60, 77
4, 161472, Note_on_c, 3, 60, 0
4, 161472, Note_on_c, 3, 59, 80
4, 161632, Note_on_c, 3, 48, 0
4, 161632, Note_on_c, 3, 59, 0
4, 161664, Note_on_c, 3, 48, 83
4, 161856, Note_on_c, 3, 58, 86
4, 162048, Note_on_c, 3, 58, 0
4, 162208, Note_on_c, 3, 48, 0
4, 162240, Note_on_c, 3, 53, 92
4, 162288, Note_on_c, 3, 53, 0
4, 162432, Note_on_c, 3, 55, 92
4, 162784, Note_on_c, 3, 55, 0
4, 162816, Note_on_c, 3, 57, 92
4, 163360, Note_on_c, 3, 57, 0
4, 163392, Note_on_c, 3, 55, 92
4, 163936, Note_on_c, 3, 55, 0
4, 163968, Note_on_c, 3, 53, 92
4, 164512, Note_on_c, 3, 53, 0
4, 164544, Note_on_c, 3, 55, 92
4, 165088, Note_on_c, 3, 55, 0
4, 165120, Note_on_c, 3, 57, 92
4, 165664, Note_on_c, 3, 57, 0
4, 165696, Note_on_c, 3, 55, 62
4, 166240, Note_on_c, 3, 55, 0
4, 166272, Note_on_c, 3, 53, 30
4, 166320, Note_on_c, 3, 53, 0
4, 166464, Note_on_c, 3, 55, 30
4, 166512, Note_on_c, 3, 55, 0
4, 166656, Note_on_c, 3, 53, 30
4, 166704, Note_on_c, 3, 53, 0
4, 166848, Note_on_c, 3, 57, 30
4, 166896, Note_on_c, 3, 57, 0
4, 167040, Note_on_c, 3, 53, 30
4, 167088, Note_on_c, 3, 53, 0
4, 167232, Note_on_c, 3, 58, 30
4, 167280, Note_on_c, 3, 58, 0
4, 168000, Note_on_c, 3, 58, 30
4, 168048, Note_on_c, 3, 58, 0
4, 168192, Note_on_c, 3, 58, 30
4, 168240, Note_on_c, 3, 58, 0
4, 168384, Note_on_c, 3, 65, 30
4, 168544, Note_on_c, 3, 65, 0
4, 168576, Note_on_c, 3, 65, 30
4, 168736, Note_on_c, 3, 65, 0
4, 168768, Note_on_c, 3, 67, 30
4, 168928, Note_on_c, 3, 67, 0
4, 168960, Note_on_c, 3, 66, 30
4, 169120, Note_on_c, 3, 66, 0
4, 169152, Note_on_c, 3, 67, 30
4, 169312, Note_on_c, 3, 67, 0
4, 169344, Note_on_c, 3, 69, 30
4, 169504, Note_on_c, 3, 69, 0
4, 169536, Note_on_c, 3, 62, 30
4, 169696, Note_on_c, 3, 62, 0
4, 169728, Note_on_c, 3, 64, 30
4, 169888, Note_on_c, 3, 64, 0
4, 169920, Note_on_c, 3, 60, 30
4, 170080, Note_on_c, 3, 60, 0
4, 170112, Note_on_c, 3, 62, 30
4, 170304, Note_on_c, 3, 62, 0
4, 170304, Note_on_c, 3, 55, 30
4, 170464, Note_on_c, 3, 55, 0
4, 170496, Note_on_c, 3, 60, 30
4, 170544, Note_on_c, 3, 60, 0
4, 170688, Note_on_c, 3, 60, 30
4, 170848, Note_on_c, 3, 60, 0
4, 171456, Note_on_c, 3, 57, 30
4, 171504, Note_on_c, 3, 57, 0
4, 171648, Note_on_c, 3, 60, 30
4, 171696, Note_on_c, 3, 60, 0
4, 171840, Note_on_c, 3, 58, 30
4, 172000, Note_on_c, 3, 58, 0
4, 172608, Note_on_c, 3, 58, 30
4, 172768, Note_on_c, 3, 58, 0
4, 172800, Note_on_c, 3, 58, 30
4, 172960, Note_on_c, 3, 58, 0
4, 172992, Note_on_c, 3, 57, 30
4, 173152, Note_on_c, 3, 57, 0
4, 173760, Note_on_c, 3, 60, 30
4, 173920, Note_on_c, 3, 60, 0
4, 173952, Note_on_c, 3, 58, 30
4, 174112, Note_on_c, 3, 58, 0
4, 174144, Note_on_c, 3, 58, 30
4, 174192, Note_on_c, 3, 58, 0
4, 174336, Note_on_c, 3, 57, 30
4, 174384, Note_on_c, 3, 57, 0
4, 174528, Note_on_c, 3, 55, 30
4, 174576, Note_on_c, 3, 55, 0
4, 174720, Note_on_c, 3, 53, 30
4, 174912, Note_on_c, 3, 53, 0
4, 174912, Note_on_c, 3, 55, 30
4, 175072, Note_on_c, 3, 55, 0
4, 175104, Note_on_c, 3, 52, 30
4, 175152, Note_on_c, 3, 52, 0
4, 175296, Note_on_c, 3, 53, 30
4, 175344, Note_on_c, 3, 53, 0
4, 175488, Note_on_c, 3, 64, 30
4, 175536, Note_on_c, 3, 64, 0
4, 175680, Note_on_c, 3, 65, 30
4, 175728, Note_on_c, 3, 65, 0
4, 175872, Note_on_c, 3, 62, 30
4, 176064, Note_on_c, 3, 62, 0
4, 176064, Note_on_c, 3, 50, 35
4, 176224, Note_on_c, 3, 50, 0
4, 176256, Note_on_c, 3, 52, 40
4, 176304, Note_on_c, 3, 52, 0
4, 176448, Note_on_c, 3, 52, 45
4, 176640, Note_on_c, 3, 52, 0
4, 176640, Note_on_c, 3, 53, 50
4, 176800, Note_on_c, 3, 53, 0
4, 176832, Note_on_c, 3, 57, 55
4, 176880, Note_on_c, 3, 57, 0
4, 177024, Note_on_c, 3, 58, 60
4, 177216, Note_on_c, 3, 58, 0
4, 177216, Note_on_c, 3, 57, 65
4, 177376, Note_on_c, 3, 57, 0
4, 177408, Note_on_c, 3, 55, 70
4, 177456, Note_on_c, 3, 55, 0
4, 177600, Note_on_c, 3, 55, 75
4, 177792, Note_on_c, 3, 55, 0
4, 177792, Note_on_c, 3, 53, 72
4, 177952, Note_on_c, 3, 53, 0
4, 177984, Note_on_c, 3, 52, 69
4, 178032, Note_on_c, 3, 52, 0
4, 178176, Note_on_c, 3, 57, 66
4, 178224, Note_on_c, 3, 57, 0
4, 178368, Note_on_c, 3, 58, 63
4, 178416, Note_on_c, 3, 58, 0
4, 178560, Note_on_c, 3, 60, 60
4, 178608, Note_on_c, 3, 60, 0
4, 178752, Note_on_c, 3, 55, 57
4, 178944, Note_on_c, 3, 55, 0
4, 178944, Note_on_c, 3, 53, 53
4, 179104, Note_on_c, 3, 53, 0
4, 179136, Note_on_c, 3, 52, 49
4, 179184, Note_on_c, 3, 52, 0
4, 179328, Note_on_c, 3, 57, 45
4, 179376, Note_on_c, 3, 57, 0
4, 179520, Note_on_c, 3, 58, 45
4, 179568, Note_on_c, 3, 58, 0
4, 179712, Note_on_c, 3, 60, 45
4, 179760, Note_on_c, 3, 60, 0
4, 179904, Note_on_c, 3, 55, 45
4, 180096, Note_on_c, 3, 55, 0
4, 180096, Note_on_c, 3, 53, 43
4, 180256, Note_on_c, 3, 53, 0
4, 180288, Note_on_c, 3, 52, 41
4, 180336, Note_on_c, 3, 52, 0
4, 180480, Note_on_c, 3, 57, 39
4, 180528, Note_on_c, 3, 57, 0
4, 180672, Note_on_c, 3, 58, 36
4, 180720, Note_on_c, 3, 58, 0
4, 180864, Note_on_c, 3, 60, 33
4, 180912, Note_on_c, 3, 60, 0
4, 181056, Note_on_c, 3, 55, 30
4, 181248, Note_on_c, 3, 55, 0
4, 181248, Note_on_c, 3, 53, 30
4, 181408, Note_on_c, 3, 53, 0
4, 181440, Note_on_c, 3, 52, 30
4, 181488, Note_on_c, 3, 52, 0
4, 181632, Note_on_c, 3, 53, 92
4, 181792, Note_on_c, 3, 53, 0
4, 181824, Note_on_c, 3, 51, 127
4, 182160, Note_on_c, 3, 51, 0
4, 182400, Note_on_c, 3, 51, 89
4, 182736, Note_on_c, 3, 51, 0
4, 182784, Note_on_c, 3, 51, 82
4, 183120, Note_on_c, 3, 51, 0
4, 183168, Note_on_c, 3, 51, 75
4, 183328, Note_on_c, 3, 51, 0
4, 183552, Note_on_c, 3, 51, 69
4, 183888, Note_on_c, 3, 51, 0
4, 183936, Note_on_c, 3, 51, 61
4, 184272, Note_on_c, 3, 51, 0
4, 184320, Note_on_c, 3, 51, 53
4, 184480, Note_on_c, 3, 51, 0
4, 184704, Note_on_c, 3, 51, 45
4, 185040, Note_on_c, 3, 51, 0
4, 185280, Note_on_c, 3, 51, 45
4, 185616, Note_on_c, 3, 51, 0
4, 185856, Note_on_c, 3, 52, 30
4, 186192, Note_on_c, 3, 52, 0
4, 186432, Note_on_c, 3, 52, 30
4, 186768, Note_on_c, 3, 52, 0
4, 186816, Note_on_c, 3, 53, 35
4, 186976, Note_on_c, 3, 53, 0
4, 187008, Note_on_c, 3, 48, 37
4, 187200, Note_on_c, 3, 57, 39
4, 187392, Note_on_c, 3, 57, 0
4, 187392, Note_on_c, 3, 59, 41
4, 187552, Note_on_c, 3, 48, 0
4, 187552, Note_on_c, 3, 59, 0
4, 187584, Note_on_c, 3, 48, 43
4, 187776, Note_on_c, 3, 60, 45
4, 187968, Note_on_c, 3, 60, 0
4, 187968, Note_on_c, 3, 62, 47
4, 188128, Note_on_c, 3, 48, 0
4, 188128, Note_on_c, 3, 62, 0
4, 188160, Note_on_c, 3, 48, 49
4, 188352, Note_on_c, 3, 60, 51
4, 188544, Note_on_c, 3, 60, 0
4, 188544, Note_on_c, 3, 59, 53
4, 188704, Note_on_c, 3, 48, 0
4, 188704, Note_on_c, 3, 59, 0
4, 188736, Note_on_c, 3, 48, 56
4, 188928, Note_on_c, 3, 48, 0
4, 188928, Note_on_c, 3, 49, 59
4, 188928, Note_on_c, 3, 58, 59
4, 189120, Note_on_c, 3, 49, 0
4, 189120, Note_on_c, 3, 58, 0
4, 189120, Note_on_c, 3, 48, 62
4, 189120, Note_on_c, 3, 57, 62
4, 189280, Note_on_c, 3, 48, 0
4, 189280, Note_on_c, 3, 57, 0
4, 189312, Note_on_c, 3, 48, 65
4, 189504, Note_on_c, 3, 57, 68
4, 189696, Note_on_c, 3, 57, 0
4, 189696, Note_on_c, 3, 59, 71
4, 189856, Note_on_c, 3, 48, 0
4, 189856, Note_on_c, 3, 59, 0
4, 189888, Note_on_c, 3, 48, 74
4, 190080, Note_on_c, 3, 60, 77
4, 190272, Note_on_c, 3, 60, 0
4, 190272, Note_on_c, 3, 59, 80
4, 190432, Note_on_c, 3, 48, 0
4, 190432, Note_on_c, 3, 59, 0
4, 190464, Note_on_c, 3, 48, 83
4, 190656, Note_on_c, 3, 58, 86
4, 190848, Note_on_c, 3, 58, 0
4, 191008, Note_on_c, 3, 48, 0
4, 191040, Note_on_c, 3, 53, 92
4, 191088, Note_on_c, 3, 53, 0
4, 191232, Note_on_c, 3, 55, 92
4, 191584, Note_on_c, 3, 55, 0
4, 191616, Note_on_c, 3, 57, 92
4, 192160, Note_on_c, 3, 57, 0
4, 192192, Note_on_c, 3, 55, 92
4, 192736, Note_on_c, 3, 55, 0
4, 192768, Note_on_c, 3, 53, 92
4, 193312, Note_on_c, 3, 53, 0
4, 193344, Note_on_c, 3, 55, 92
4, 193888, Note_on_c, 3, 55, 0
4, 193920, Note_on_c, 3, 57, 92
4, 194464, Note_on_c, 3, 57, 0
4, 194496, Note_on_c, 3, 55, 62
4, 195040, Note_on_c, 3, 55, 0
4, 195072, Note_on_c, 3, 53, 30
4, 195120, Note_on_c, 3, 53, 0
4, 195264, Note_on_c, 3, 55, 30
4, 195312, Note_on_c, 3, 55, 0
4, 195456, Note_on_c, 3, 53, 30
4, 195504, Note_on_c, 3, 53, 0
4, 195648, Note_on_c, 3, 57, 30
4, 195696, Note_on_c, 3, 57, 0
4, 195840, Note_on_c, 3, 53, 30
4, 195888, Note_on_c, 3, 53, 0
4, 196032, Note_on_c, 3, 58, 30
4, 196080, Note_on_c, 3, 58, 0
4, 196800, Note_on_c, 3, 58, 30
4, 196848, Note_on_c, 3, 58, 0
4, 196992, Note_on_c, 3, 58, 30
4, 197040, Note_on_c, 3, 58, 0
4, 197184, Note_on_c, 3, 65, 30
4, 197344, Note_on_c, 3, 65, 0
4, 197376, Note_on_c, 3, 65, 30
4, 197536, Note_on_c, 3, 65, 0
4, 197568, Note_on_c, 3, 67, 30
4, 197728, Note_on_c, 3, 67, 0
4, 197760, Note_on_c, 3, 66, 30
4, 197920, Note_on_c, 3, 66, 0
4, 197952, Note_on_c, 3, 67, 30
4, 198112, Note_on_c, 3, 67, 0
4, 198144, Note_on_c, 3, 69, 30
4, 198304, Note_on_c, 3, 69, 0
4, 198336, Note_on_c, 3, 62, 30
4, 198496, Note_on_c, 3, 62, 0
4, 198528, Note_on_c, 3, 64, 30
4, 198688, Note_on_c, 3, 64, 0
4, 198720, Note_on_c, 3, 60, 30
4, 198880, Note_on_c, 3, 60, 0
4, 198912, Note_on_c, 3, 62, 30
4, 199104, Note_on_c, 3, 62, 0
4, 199104, Note_on_c, 3, 55, 30
4, 199264, Note_on_c, 3, 55, 0
4, 199296, Note_on_c, 3, 60, 30
4, 199344, Note_on_c, 3, 60, 0
4, 199488, Note_on_c, 3, 60, 30
4, 199648, Note_on_c, 3, 60, 0
4, 200256, Note_on_c, 3, 57, 30
4, 200304, Note_on_c, 3, 57, 0
4, 200448, Note_on_c, 3, 60, 30
4, 200496, Note_on_c, 3, 60, 0
4, 200640, Note_on_c, 3, 58, 30
4, 200800, Note_on_c, 3, 58, 0
4, 201408, Note_on_c, 3, 58, 30
4, 201568, Note_on_c, 3, 58, 0
4, 201600, Note_on_c, 3, 58, 30
4, 201760, Note_on_c, 3, 58, 0
4, 201792, Note_on_c, 3, 57, 30
4, 201952, Note_on_c, 3, 57, 0
4, 202560, Note_on_c, 3, 60, 30
4, 202720, Note_on_c, 3, 60, 0
4, 202752, Note_on_c, 3, 58, 30
4, 202912, Note_on_c, 3, 58, 0
4, 202944, Note_on_c, 3, 58, 30
4, 202992, Note_on_c, 3, 58, 0
4, 203136, Note_on_c, 3, 57, 30
4, 203184, Note_on_c, 3, 57, 0
4, 203328, Note_on_c, 3, 55, 30
4, 203376, Note_on_c, 3, 55, 0
4, 203520, Note_on_c, 3, 53, 30
4, 203712, Note_on_c, 3, 53, 0
4, 203712, Note_on_c, 3, 55, 30
4, 203872, Note_on_c, 3, 55, 0
4, 203904, Note_on_c, 3, 52, 30
4, 203952, Note_on_c, 3, 52, 0
4, 204096, Note_on_c, 3, 53, 30
4, 204144, Note_on_c, 3, 53, 0
4, 204288, Note_on_c, 3, 64, 30
4, 204336, Note_on_c, 3, 64, 0
4, 204480, Note_on_c, 3, 65, 30
4, 204528, Note_on_c, 3, 65, 0
4, 204672, Note_on_c, 3, 62, 30
4, 204864, Note_on_c, 3, 62, 0
4, 204864, Note_on_c, 3, 50, 35
4, 205024, Note_on_c, 3, 50, 0
4, 205056, Note_on_c, 3, 52, 40
4, 205104, Note_on_c, 3, 52, 0
4, 205248, Note_on_c, 3, 52, 45
4, 205440, Note_on_c, 3, 52, 0
4, 205440, Note_on_c, 3, 53, 50
4, 205600, Note_on_c, 3, 53, 0
4, 205632, Note_on_c, 3, 57, 55
4, 205680, Note_on_c, 3, 57, 0
4, 205824, Note_on_c, 3, 58, 60
4, 206016, Note_on_c, 3, 58, 0
4, 206016, Note_on_c, 3, 57, 65
4, 206176, Note_on_c, 3, 57, 0
4, 206208, Note_on_c, 3, 55, 70
4, 206256, Note_on_c, 3, 55, 0
4, 206400, Note_on_c, 3, 55, 75
4, 206592, Note_on_c, 3, 55, 0
4, 206592, Note_on_c, 3, 53, 72
4, 206752, Note_on_c, 3, 53, 0
4, 206784, Note_on_c, 3, 52, 69
4, 206832, Note_on_c, 3, 52, 0
4, 206976, Note_on_c, 3, 57, 66
4, 207024, Note_on_c, 3, 57, 0
4, 207168, Note_on_c, 3, 58, 63
4, 207216, Note_on_c, 3, 58, 0
4, 207360, Note_on_c, 3, 60, 60
4, 207408, Note_on_c, 3, 60, 0
4, 207552, Note_on_c, 3, 55, 57
4, 207744, Note_on_c, 3, 55, 0
4, 207744, Note_on_c, 3, 53, 53
4, 207904, Note_on_c, 3, 53, 0
4, 207936, Note_on_c, 3, 52, 49
4, 207984, Note_on_c, 3, 52, 0
4, 208128, Note_on_c, 3, 57, 45
4, 208176, Note_on_c, 3, 57, 0
4, 208320, Note_on_c, 3, 58, 45
4, 208368, Note_on_c, 3, 58, 0
4, 208512, Note_on_c, 3, 60, 45
4, 208560, Note_on_c, 3, 60, 0
4, 208704, Note_on_c, 3, 55, 45
4, 208896, Note_on_c, 3, 55, 0
4, 208896, Note_on_c, 3, 53, 43
4, 209056, Note_on_c, 3, 53, 0
4, 209088, Note_on_c, 3, 52, 41
4, 209136, Note_on_c, 3, 52, 0
4, 209280, Note_on_c, 3, 57, 39
4, 209328, Note_on_c, 3, 57, 0
4, 209472, Note_on_c, 3, 58, 36
4, 209520, Note_on_c, 3, 58, 0
4, 209664, Note_on_c, 3, 60, 33
4, 209712, Note_on_c, 3, 60, 0
4, 209856, Note_on_c, 3, 55, 30
4, 210048, Note_on_c, 3, 55, 0
4, 210048, Note_on_c, 3, 53, 30
4, 210208, Note_on_c, 3, 53, 0
4, 210240, Note_on_c, 3, 52, 30
4, 210288, Note_on_c, 3, 52, 0
4, 210432, Note_on_c, 3, 53, 45
4, 210592, Note_on_c, 3, 53, 0
4, 210624, Note_on_c, 3, 48, 127
4, 210624, Note_on_c, 3, 60, 127
4, 210960, Note_on_c, 3, 48, 0
4, 210960, Note_on_c, 3, 60, 0
4, 211200, Note_on_c, 3, 48, 77
4, 211200, Note_on_c, 3, 60, 77
4, 211536, Note_on_c, 3, 48, 0
4, 211536, Note_on_c, 3, 60, 0
4, 211584, Note_on_c, 3, 48, 67
4, 211584, Note_on_c, 3, 60, 67
4, 211920, Note_on_c, 3, 48, 0
4, 211920, Note_on_c, 3, 60, 0
4, 211968, Note_on_c, 3, 48, 56
4, 211968, Note_on_c, 3, 60, 56
4, 212128, Note_on_c, 3, 48, 0
4, 212128, Note_on_c, 3, 60, 0
4, 212352, Note_on_c, 3, 69, 45
4, 212688, Note_on_c, 3, 69, 0
4, 212736, Note_on_c, 3, 69, 45
4, 213072, Note_on_c, 3, 69, 0
4, 213120, Note_on_c, 3, 69, 38
4, 213280, Note_on_c, 3, 69, 0
4, 213504, Note_on_c, 3, 69, 30
4, 213840, Note_on_c, 3, 69, 0
4, 213888, Note_on_c, 3, 69, 92
4, 214048, Note_on_c, 3, 69, 0
4, 214048, End_track
5, 0, Start_track
5, 0, MIDI_port, 0
5, 0, Title_t, "Violoncello."
5, 0, Program_c, 4, 0
5, 0, Control_c, 4, 7, 127
5, 0, Control_c, 4, 10, 64
5, 192, Note_on_c, 4, 41, 45
5, 240, Note_on_c, 4, 41, 0
5, 576, Note_on_c, 4, 45, 45
5, 624, Note_on_c, 4, 45, 0
5, 768, Note_on_c, 4, 46, 45
5, 816, Note_on_c, 4, 46, 0
5, 1152, Note_on_c, 4, 48, 45
5, 1200, Note_on_c, 4, 48, 0
5, 1344, Note_on_c, 4, 50, 45
5, 1504, Note_on_c, 4, 50, 0
5, 1728, Note_on_c, 4, 48, 45
5, 1888, Note_on_c, 4, 48, 0
5, 1920, Note_on_c, 4, 46, 45
5, 2080, Note_on_c, 4, 46, 0
5, 2304, Note_on_c, 4, 43, 45
5, 2464, Note_on_c, 4, 43, 0
5, 2496, Note_on_c, 4, 41, 45
5, 2656, Note_on_c, 4, 41, 0
5, 2880, Note_on_c, 4, 45, 45
5, 3040, Note_on_c, 4, 45, 0
5, 3072, Note_on_c, 4, 46, 45
5, 3232, Note_on_c, 4, 46, 0
5, 3456, Note_on_c, 4, 48, 45
5, 3616, Note_on_c, 4, 48, 0
5, 3648, Note_on_c, 4, 50, 45
5, 3696, Note_on_c, 4, 50, 0
5, 3840, Note_on_c, 4, 38, 45
5, 3888, Note_on_c, 4, 38, 0
5, 4032, Note_on_c, 4, 36, 45
5, 4080, Note_on_c, 4, 36, 0
5, 4224, Note_on_c, 4, 41, 45
5, 4272, Note_on_c, 4, 41, 0
5, 4416, Note_on_c, 4, 62, 30
5, 4464, Note_on_c, 4, 62, 0
5, 4608, Note_on_c, 4, 60, 30
5, 4656, Note_on_c, 4, 60, 0
5, 4800, Note_on_c, 4, 65, 30
5, 4960, Note_on_c, 4, 65, 0
5, 5184, Note_on_c, 4, 57, 30
5, 5344, Note_on_c, 4, 57, 0
5, 5376, Note_on_c, 4, 58, 30
5, 5536, Note_on_c, 4, 58, 0
5, 5760, Note_on_c, 4, 60, 30
5, 5920, Note_on_c, 4, 60, 0
5, 5952, Note_on_c, 4, 62, 30
5, 6112, Note_on_c, 4, 62, 0
5, 6336, Note_on_c, 4, 60, 30
5, 6496, Note_on_c, 4, 60, 0
5, 6528, Note_on_c, 4, 58, 30
5, 6688, Note_on_c, 4, 58, 0
5, 6912, Note_on_c, 4, 55, 30
5, 7072, Note_on_c, 4, 55, 0
5, 7104, Note_on_c, 4, 53, 30
5, 7264, Note_on_c, 4, 53, 0
5, 7488, Note_on_c, 4, 57, 30
5, 7648, Note_on_c, 4, 57, 0
5, 7680, Note_on_c, 4, 58, 30
5, 7840, Note_on_c, 4, 58, 0
5, 8064, Note_on_c, 4, 60, 30
5, 8224, Note_on_c, 4, 60, 0
5, 8256, Note_on_c, 4, 62, 30
5, 8416, Note_on_c, 4, 62, 0
5, 8448, Note_on_c, 4, 50, 30
5, 8608, Note_on_c, 4, 50, 0
5, 8640, Note_on_c, 4, 48, 30
5, 8800, Note_on_c, 4, 48, 0
5, 8832, Note_on_c, 4, 53, 30
5, 8992, Note_on_c, 4, 53, 0
5, 9024, Note_on_c, 4, 39, 127
5, 9360, Note_on_c, 4, 39, 0
5, 9600, Note_on_c, 4, 39, 89
5, 9936, Note_on_c, 4, 39, 0
5, 9984, Note_on_c, 4, 39, 82
5, 10320, Note_on_c, 4, 39, 0
5, 10368, Note_on_c, 4, 39, 75
5, 10528, Note_on_c, 4, 39, 0
5, 10752, Note_on_c, 4, 39, 69
5, 11088, Note_on_c, 4, 39, 0
5, 11136, Note_on_c, 4, 39, 61
5, 11472, Note_on_c, 4, 39, 0
5, 11520, Note_on_c, 4, 39, 53
5, 11680, Note_on_c, 4, 39, 0
5, 11904, Note_on_c, 4, 39, 45
5, 12240, Note_on_c, 4, 39, 0
5, 12480, Note_on_c, 4, 39, 45
5, 12816, Note_on_c, 4, 39, 0
5, 13056, Note_on_c, 4, 40, 30
5, 13392, Note_on_c, 4, 40, 0
5, 13632, Note_on_c, 4, 36, 30
5, 14352, Note_on_c, 4, 36, 0
5, 14400, Note_on_c, 4, 36, 40
5, 14928, Note_on_c, 4, 36, 0
5, 14976, Note_on_c, 4, 36, 47
5, 15504, Note_on_c, 4, 36, 0
5, 15552, Note_on_c, 4, 36, 54
5, 16080, Note_on_c, 4, 36, 0
5, 16128, Note_on_c, 4, 36, 61
5, 16656, Note_on_c, 4, 36, 0
5, 16704, Note_on_c, 4, 36, 68
5, 17232, Note_on_c, 4, 36, 0
5, 17280, Note_on_c, 4, 36, 77
5, 17808, Note_on_c, 4, 36, 0
5, 17856, Note_on_c, 4, 36, 86
5, 18208, Note_on_c, 4, 36, 0
5, 18240, Note_on_c, 4, 41, 92
5, 18288, Note_on_c, 4, 41, 0
5, 18432, Note_on_c, 4, 43, 92
5, 18784, Note_on_c, 4, 43, 0
5, 18816, Note_on_c, 4, 45, 92
5, 19360, Note_on_c, 4, 45, 0
5, 19392, Note_on_c, 4, 43, 92
5, 19936, Note_on_c, 4, 43, 0
5, 19968, Note_on_c, 4, 41, 92
5, 20512, Note_on_c, 4, 41, 0
5, 20544, Note_on_c, 4, 43, 92
5, 21088, Note_on_c, 4, 43, 0
5, 21120, Note_on_c, 4, 45, 92
5, 21664, Note_on_c, 4, 45, 0
5, 21696, Note_on_c, 4, 43, 62
5, 22240, Note_on_c, 4, 43, 0
5, 22272, Note_on_c, 4, 41, 30
5, 22320, Note_on_c, 4, 41, 0
5, 22464, Note_on_c, 4, 43, 30
5, 22512, Note_on_c, 4, 43, 0
5, 22656, Note_on_c, 4, 41, 30
5, 22704, Note_on_c, 4, 41, 0
5, 23424, Note_on_c, 4, 41, 30
5, 23472, Note_on_c, 4, 41, 0
5, 23616, Note_on_c, 4, 43, 30
5, 23664, Note_on_c, 4, 43, 0
5, 23808, Note_on_c, 4, 41, 30
5, 23856, Note_on_c, 4, 41, 0
5, 24576, Note_on_c, 4, 41, 30
5, 24624, Note_on_c, 4, 41, 0
5, 24768, Note_on_c, 4, 39, 30
5, 24816, Note_on_c, 4, 39, 0
5, 24960, Note_on_c, 4, 38, 30
5, 25008, Note_on_c, 4, 38, 0
5, 25152, Note_on_c, 4, 40, 30
5, 25200, Note_on_c, 4, 40, 0
5, 25344, Note_on_c, 4, 42, 30
5, 25392, Note_on_c, 4, 42, 0
5, 25536, Note_on_c, 4, 43, 30
5, 25696, Note_on_c, 4, 43, 0
5, 25728, Note_on_c, 4, 43, 30
5, 25888, Note_on_c, 4, 43, 0
5, 25920, Note_on_c, 4, 45, 30
5, 26080, Note_on_c, 4, 45, 0
5, 26112, Note_on_c, 4, 46, 30
5, 26272, Note_on_c, 4, 46, 0
5, 26304, Note_on_c, 4, 46, 30
5, 26464, Note_on_c, 4, 46, 0
5, 26496, Note_on_c, 4, 48, 30
5, 26656, Note_on_c, 4, 48, 0
5, 26688, Note_on_c, 4, 41, 30
5, 26848, Note_on_c, 4, 41, 0
5, 27456, Note_on_c, 4, 60, 30
5, 27504, Note_on_c, 4, 60, 0
5, 27648, Note_on_c, 4, 63, 30
5, 27696, Note_on_c, 4, 63, 0
5, 27840, Note_on_c, 4, 62, 30
5, 28000, Note_on_c, 4, 62, 0
5, 28608, Note_on_c, 4, 64, 30
5, 28768, Note_on_c, 4, 64, 0
5, 28800, Note_on_c, 4, 65, 30
5, 28960, Note_on_c, 4, 65, 0
5, 28992, Note_on_c, 4, 60, 30
5, 29152, Note_on_c, 4, 60, 0
5, 29760, Note_on_c, 4, 63, 30
5, 29920, Note_on_c, 4, 63, 0
5, 29952, Note_on_c, 4, 62, 30
5, 30112, Note_on_c, 4, 62, 0
5, 30144, Note_on_c, 4, 62, 30
5, 30192, Note_on_c, 4, 62, 0
5, 30336, Note_on_c, 4, 60, 30
5, 30384, Note_on_c, 4, 60, 0
5, 30528, Note_on_c, 4, 58, 30
5, 30576, Note_on_c, 4, 58, 0
5, 30720, Note_on_c, 4, 57, 30
5, 30912, Note_on_c, 4, 57, 0
5, 30912, Note_on_c, 4, 58, 30
5, 31072, Note_on_c, 4, 58, 0
5, 31104, Note_on_c, 4, 55, 30
5, 31152, Note_on_c, 4, 55, 0
5, 31296, Note_on_c, 4, 57, 30
5, 31344, Note_on_c, 4, 57, 0
5, 31488, Note_on_c, 4, 55, 30
5, 31536, Note_on_c, 4, 55, 0
5, 31680, Note_on_c, 4, 57, 30
5, 31728, Note_on_c, 4, 57, 0
5, 31872, Note_on_c, 4, 58, 30
5, 32064, Note_on_c, 4, 58, 0
5, 32064, Note_on_c, 4, 46, 35
5, 32224, Note_on_c, 4, 46, 0
5, 32256, Note_on_c, 4, 48, 40
5, 32304, Note_on_c, 4, 48, 0
5, 32448, Note_on_c, 4, 48, 45
5, 32496, Note_on_c, 4, 48, 0
5, 32640, Note_on_c, 4, 36, 50
5, 32688, Note_on_c, 4, 36, 0
5, 32832, Note_on_c, 4, 36, 55
5, 32880, Note_on_c, 4, 36, 0
5, 33024, Note_on_c, 4, 36, 60
5, 33184, Note_on_c, 4, 36, 0
5, 33216, Note_on_c, 4, 36, 65
5, 33376, Note_on_c, 4, 36, 0
5, 33408, Note_on_c, 4, 36, 70
5, 33568, Note_on_c, 4, 36, 0
5, 33600, Note_on_c, 4, 36, 75
5, 33792, Note_on_c, 4, 36, 0
5, 33792, Note_on_c, 4, 38, 72
5, 33952, Note_on_c, 4, 38, 0
5, 33984, Note_on_c, 4, 40, 69
5, 34032, Note_on_c, 4, 40, 0
5, 34176, Note_on_c, 4, 41, 66
5, 34224, Note_on_c, 4, 41, 0
5, 34368, Note_on_c, 4, 43, 63
5, 34416, Note_on_c, 4, 43, 0
5, 34560, Note_on_c, 4, 45, 60
5, 34608, Note_on_c, 4, 45, 0
5, 34752, Note_on_c, 4, 36, 57
5, 34944, Note_on_c, 4, 36, 0
5, 34944, Note_on_c, 4, 38, 53
5, 35104, Note_on_c, 4, 38, 0
5, 35136, Note_on_c, 4, 40, 49
5, 35184, Note_on_c, 4, 40, 0
5, 35328, Note_on_c, 4, 41, 45
5, 35376, Note_on_c, 4, 41, 0
5, 35520, Note_on_c, 4, 43, 45
5, 35568, Note_on_c, 4, 43, 0
5, 35712, Note_on_c, 4, 45, 45
5, 35760, Note_on_c, 4, 45, 0
5, 35904, Note_on_c, 4, 36, 45
5, 36096, Note_on_c, 4, 36, 0
5, 36096, Note_on_c, 4, 38, 43
5, 36256, Note_on_c, 4, 38, 0
5, 36288, Note_on_c, 4, 40, 41
5, 36336, Note_on_c, 4, 40, 0
5, 36480, Note_on_c, 4, 41, 39
5, 36528, Note_on_c, 4, 41, 0
5, 36672, Note_on_c, 4, 43, 36
5, 36720, Note_on_c, 4, 43, 0
5, 36864, Note_on_c, 4, 45, 33
5, 36912, Note_on_c, 4, 45, 0
5, 37056, Note_on_c, 4, 36, 30
5, 37248, Note_on_c, 4, 36, 0
5, 37248, Note_on_c, 4, 38, 30
5, 37408, Note_on_c, 4, 38, 0
5, 37440, Note_on_c, 4, 40, 30
5, 37488, Note_on_c, 4, 40, 0
5, 37632, Note_on_c, 4, 41, 92
5, 37792, Note_on_c, 4, 41, 0
5, 37824, Note_on_c, 4, 39, 127
5, 38160, Note_on_c, 4, 39, 0
5, 38400, Note_on_c, 4, 39, 89
5, 38736, Note_on_c, 4, 39, 0
5, 38784, Note_on_c, 4, 39, 82
5, 39120, Note_on_c, 4, 39, 0
5, 39168, Note_on_c, 4, 39, 75
5, 39328, Note_on_c, 4, 39, 0
5, 39552, Note_on_c, 4, 39, 69
5, 39888, Note_on_c, 4, 39, 0
5, 39936, Note_on_c, 4, 39, 61
5, 40272, Note_on_c, 4, 39, 0
5, 40320, Note_on_c, 4, 39, 53
5, 40480, Note_on_c, 4, 39, 0
5, 40704, Note_on_c, 4, 39, 45
5, 41040, Note_on_c, 4, 39, 0
5, 41280, Note_on_c, 4, 39, 45
5, 41616, Note_on_c, 4, 39, 0
5, 41856, Note_on_c, 4, 40, 30
5, 42192, Note_on_c, 4, 40, 0
5, 42432, Note_on_c, 4, 36, 30
5, 43152, Note_on_c, 4, 36, 0
5, 43200, Note_on_c, 4, 36, 40
5, 43728, Note_on_c, 4, 36, 0
5, 43776, Note_on_c, 4, 36, 47
5, 44304, Note_on_c, 4, 36, 0
5, 44352, Note_on_c, 4, 36, 54
5, 44880, Note_on_c, 4, 36, 0
5, 44928, Note_on_c, 4, 36, 61
5, 45456, Note_on_c, 4, 36, 0
5, 45504, Note_on_c, 4, 36, 68
5, 46032, Note_on_c, 4, 36, 0
5, 46080, Note_on_c, 4, 36, 77
5, 46608, Note_on_c, 4, 36, 0
5, 46656, Note_on_c, 4, 36, 86
5, 47008, Note_on_c, 4, 36, 0
5, 47040, Note_on_c, 4, 41, 92
5, 47088, Note_on_c, 4, 41, 0
5, 47232, Note_on_c, 4, 43, 92
5, 47584, Note_on_c, 4, 43, 0
5, 47616, Note_on_c, 4, 45, 92
5, 48160, Note_on_c, 4, 45, 0
5, 48192, Note_on_c, 4, 43, 92
5, 48736, Note_on_c, 4, 43, 0
5, 48768, Note_on_c, 4, 41, 92
5, 49312, Note_on_c, 4, 41, 0
5, 49344, Note_on_c, 4, 43, 92
5, 49888, Note_on_c, 4, 43, 0
5, 49920, Note_on_c, 4, 45, 92
5, 50464, Note_on_c, 4, 45, 0
5, 50496, Note_on_c, 4, 43, 62
5, 51040, Note_on_c, 4, 43, 0
5, 51072, Note_on_c, 4, 41, 30
5, 51120, Note_on_c, 4, 41, 0
5, 51264, Note_on_c, 4, 43, 30
5, 51312, Note_on_c, 4, 43, 0
5, 51456, Note_on_c, 4, 41, 30
5, 51504, Note_on_c, 4, 41, 0
5, 52224, Note_on_c, 4, 41, 30
5, 52272, Note_on_c, 4, 41, 0
5, 52416, Note_on_c, 4, 43, 30
5, 52464, Note_on_c, 4, 43, 0
5, 52608, Note_on_c, 4, 41, 30
5, 52656, Note_on_c, 4, 41, 0
5, 53376, Note_on_c, 4, 41, 30
5, 53424, Note_on_c, 4, 41, 0
5, 53568, Note_on_c, 4, 39, 30
5, 53616, Note_on_c, 4, 39, 0
5, 53760, Note_on_c, 4, 38, 30
5, 53808, Note_on_c, 4, 38, 0
5, 53952, Note_on_c, 4, 40, 30
5, 54000, Note_on_c, 4, 40, 0
5, 54144, Note_on_c, 4, 42, 30
5, 54192, Note_on_c, 4, 42, 0
5, 54336, Note_on_c, 4, 43, 30
5, 54496, Note_on_c, 4, 43, 0
5, 54528, Note_on_c, 4, 43, 30
5, 54688, Note_on_c, 4, 43, 0
5, 54720, Note_on_c, 4, 45, 30
5, 54880, Note_on_c, 4, 45, 0
5, 54912, Note_on_c, 4, 46, 30
5, 55072, Note_on_c, 4, 46, 0
5, 55104, Note_on_c, 4, 46, 30
5, 55264, Note_on_c, 4, 46, 0
5, 55296, Note_on_c, 4, 48, 30
5, 55456, Note_on_c, 4, 48, 0
5, 55488, Note_on_c, 4, 41, 30
5, 55648, Note_on_c, 4, 41, 0
5, 56256, Note_on_c, 4, 60, 30
5, 56304, Note_on_c, 4, 60, 0
5, 56448, Note_on_c, 4, 63, 30
5, 56496, Note_on_c, 4, 63, 0
5, 56640, Note_on_c, 4, 62, 30
5, 56800, Note_on_c, 4, 62, 0
5, 57408, Note_on_c, 4, 64, 30
5, 57568, Note_on_c, 4, 64, 0
5, 57600, Note_on_c, 4, 65, 30
5, 57760, Note_on_c, 4, 65, 0
5, 57792, Note_on_c, 4, 60, 30
5, 57952, Note_on_c, 4, 60, 0
5, 58560, Note_on_c, 4, 63, 30
5, 58720, Note_on_c, 4, 63, 0
5, 58752, Note_on_c, 4, 62, 30
5, 58912, Note_on_c, 4, 62, 0
5, 58944, Note_on_c, 4, 62, 30
5, 58992, Note_on_c, 4, 62, 0
5, 59136, Note_on_c, 4, 60, 30
5, 59184, Note_on_c, 4, 60, 0
5, 59328, Note_on_c, 4, 58, 30
5, 59376, Note_on_c, 4, 58, 0
5, 59520, Note_on_c, 4, 57, 30
5, 59712, Note_on_c, 4, 57, 0
5, 59712, Note_on_c, 4, 58, 30
5, 59872, Note_on_c, 4, 58, 0
5, 59904, Note_on_c, 4, 55, 30
5, 59952, Note_on_c, 4, 55, 0
5, 60096, Note_on_c, 4, 57, 30
5, 60144, Note_on_c, 4, 57, 0
5, 60288, Note_on_c, 4, 55, 30
5, 60336, Note_on_c, 4, 55, 0
5, 60480, Note_on_c, 4, 57, 30
5, 60528, Note_on_c, 4, 57, 0
5, 60672, Note_on_c, 4, 58, 30
5, 60864, Note_on_c, 4, 58, 0
5, 60864, Note_on_c, 4, 46, 35
5, 61024, Note_on_c, 4, 46, 0
5, 61056, Note_on_c, 4, 48, 40
5, 61104, Note_on_c, 4, 48, 0
5, 61248, Note_on_c, 4, 48, 45
5, 61296, Note_on_c, 4, 48, 0
5, 61440, Note_on_c, 4, 36, 50
5, 61488, Note_on_c, 4, 36, 0
5, 61632, Note_on_c, 4, 36, 55
5, 61680, Note_on_c, 4, 36, 0
5, 61824, Note_on_c, 4, 36, 60
5, 61984, Note_on_c, 4, 36, 0
5, 62016, Note_on_c, 4, 36, 65
5, 62176, Note_on_c, 4, 36, 0
5, 62208, Note_on_c, 4, 36, 70
5, 62368, Note_on_c, 4, 36, 0
5, 62400, Note_on_c, 4, 36, 75
5, 62592, Note_on_c, 4, 36, 0
5, 62592, Note_on_c, 4, 38, 72
5, 62752, Note_on_c, 4, 38, 0
5, 62784, Note_on_c, 4, 40, 69
5, 62832, Note_on_c, 4, 40, 0
5, 62976, Note_on_c, 4, 41, 66
5, 63024, Note_on_c, 4, 41, 0
5, 63168, Note_on_c, 4, 43, 63
5, 63216, Note_on_c, 4, 43, 0
5, 63360, Note_on_c, 4, 45, 60
5, 63408, Note_on_c, 4, 45, 0
5, 63552, Note_on_c, 4, 36, 57
5, 63744, Note_on_c, 4, 36, 0
5, 63744, Note_on_c, 4, 38, 53
5, 63904, Note_on_c, 4, 38, 0
5, 63936, Note_on_c, 4, 40, 49
5, 63984, Note_on_c, 4, 40, 0
5, 64128, Note_on_c, 4, 41, 45
5, 64176, Note_on_c, 4, 41, 0
5, 64320, Note_on_c, 4, 43, 45
5, 64368, Note_on_c, 4, 43, 0
5, 64512, Note_on_c, 4, 45, 45
5, 64560, Note_on_c, 4, 45, 0
5, 64704, Note_on_c, 4, 36, 45
5, 64896, Note_on_c, 4, 36, 0
5, 64896, Note_on_c, 4, 38, 43
5, 65056, Note_on_c, 4, 38, 0
5, 65088, Note_on_c, 4, 40, 41
5, 65136, Note_on_c, 4, 40, 0
5, 65280, Note_on_c, 4, 41, 39
5, 65328, Note_on_c, 4, 41, 0
5, 65472, Note_on_c, 4, 43, 36
5, 65520, Note_on_c, 4, 43, 0
5, 65664, Note_on_c, 4, 45, 33
5, 65712, Note_on_c, 4, 45, 0
5, 65856, Note_on_c, 4, 36, 30
5, 66048, Note_on_c, 4, 36, 0
5, 66048, Note_on_c, 4, 38, 30
5, 66208, Note_on_c, 4, 38, 0
5, 66240, Note_on_c, 4, 40, 30
5, 66288, Note_on_c, 4, 40, 0
5, 66432, Note_on_c, 4, 41, 92
5, 66592, Note_on_c, 4, 41, 0
5, 67008, Note_on_c, 4, 41, 92
5, 67168, Note_on_c, 4, 41, 0
5, 67200, Note_on_c, 4, 41, 45
5, 67296, Note_on_c, 4, 41, 0
5, 67296, Note_on_c, 4, 40, 45
5, 67392, Note_on_c, 4, 40, 0
5, 67392, Note_on_c, 4, 41, 45
5, 67488, Note_on_c, 4, 41, 0
5, 67488, Note_on_c, 4, 43, 45
5, 67582, Note_on_c, 4, 43, 0
5, 67584, Note_on_c, 4, 45, 45
5, 67632, Note_on_c, 4, 45, 0
5, 67776, Note_on_c, 4, 46, 45
5, 67824, Note_on_c, 4, 46, 0
5, 67968, Note_on_c, 4, 48, 45
5, 68016, Note_on_c, 4, 48, 0
5, 68160, Note_on_c, 4, 50, 45
5, 68208, Note_on_c, 4, 50, 0
5, 68352, Note_on_c, 4, 52, 45
5, 68400, Note_on_c, 4, 52, 0
5, 68544, Note_on_c, 4, 53, 45
5, 68592, Note_on_c, 4, 53, 0
5, 68736, Note_on_c, 4, 55, 45
5, 68784, Note_on_c, 4, 55, 0
5, 68928, Note_on_c, 4, 57, 45
5, 68976, Note_on_c, 4, 57, 0
5, 69120, Note_on_c, 4, 58, 45
5, 69168, Note_on_c, 4, 58, 0
5, 69312, Note_on_c, 4, 60, 45
5, 69472, Note_on_c, 4, 60, 0
5, 69504, Note_on_c, 4, 60, 45
5, 69664, Note_on_c, 4, 60, 0
5, 69696, Note_on_c, 4, 60, 45
5, 69856, Note_on_c, 4, 60, 0
5, 69888, Note_on_c, 4, 60, 45
5, 70048, Note_on_c, 4, 60, 0
5, 70080, Note_on_c, 4, 60, 45
5, 70240, Note_on_c, 4, 60, 0
5, 70272, Note_on_c, 4, 60, 45
5, 70432, Note_on_c, 4, 60, 0
5, 70464, Note_on_c, 4, 60, 45
5, 70624, Note_on_c, 4, 60, 0
5, 70656, Note_on_c, 4, 60, 45
5, 70816, Note_on_c, 4, 60, 0
5, 70848, Note_on_c, 4, 60, 45
5, 71008, Note_on_c, 4, 60, 0
5, 71040, Note_on_c, 4, 60, 45
5, 71200, Note_on_c, 4, 60, 0
5, 71232, Note_on_c, 4, 60, 45
5, 71392, Note_on_c, 4, 60, 0
5, 71424, Note_on_c, 4, 60, 45
5, 71584, Note_on_c, 4, 60, 0
5, 71616, Note_on_c, 4, 53, 92
5, 71776, Note_on_c, 4, 53, 0
5, 71808, Note_on_c, 4, 60, 45
5, 71968, Note_on_c, 4, 60, 0
5, 72000, Note_on_c, 4, 60, 45
5, 72160, Note_on_c, 4, 60, 0
5, 72192, Note_on_c, 4, 60, 45
5, 72352, Note_on_c, 4, 60, 0
5, 72384, Note_on_c, 4, 60, 45
5, 72544, Note_on_c, 4, 60, 0
5, 72576, Note_on_c, 4, 60, 45
5, 72736, Note_on_c, 4, 60, 0
5, 72768, Note_on_c, 4, 60, 45
5, 72928, Note_on_c, 4, 60, 0
5, 72960, Note_on_c, 4, 60, 45
5, 73120, Note_on_c, 4, 60, 0
5, 73152, Note_on_c, 4, 60, 45
5, 73312, Note_on_c, 4, 60, 0
5, 73344, Note_on_c, 4, 60, 45
5, 73504, Note_on_c, 4, 60, 0
5, 73536, Note_on_c, 4, 60, 45
5, 73696, Note_on_c, 4, 60, 0
5, 73728, Note_on_c, 4, 60, 45
5, 73888, Note_on_c, 4, 60, 0
5, 73920, Note_on_c, 4, 60, 45
5, 74080, Note_on_c, 4, 60, 0
5, 74112, Note_on_c, 4, 60, 45
5, 74272, Note_on_c, 4, 60, 0
5, 74304, Note_on_c, 4, 60, 45
5, 74464, Note_on_c, 4, 60, 0
5, 74496, Note_on_c, 4, 60, 45
5, 74656, Note_on_c, 4, 60, 0
5, 74688, Note_on_c, 4, 60, 45
5, 74848, Note_on_c, 4, 60, 0
5, 74880, Note_on_c, 4, 60, 45
5, 75040, Note_on_c, 4, 60, 0
5, 75072, Note_on_c, 4, 60, 45
5, 75232, Note_on_c, 4, 60, 0
5, 75264, Note_on_c, 4, 60, 45
5, 75424, Note_on_c, 4, 60, 0
5, 75456, Note_on_c, 4, 60, 45
5, 75616, Note_on_c, 4, 60, 0
5, 75648, Note_on_c, 4, 60, 45
5, 75808, Note_on_c, 4, 60, 0
5, 75840, Note_on_c, 4, 60, 45
5, 76000, Note_on_c, 4, 60, 0
5, 76032, Note_on_c, 4, 60, 45
5, 76192, Note_on_c, 4, 60, 0
5, 76224, Note_on_c, 4, 60, 45
5, 76384, Note_on_c, 4, 60, 0
5, 76416, Note_on_c, 4, 38, 45
5, 76512, Note_on_c, 4, 38, 0
5, 76512, Note_on_c, 4, 36, 45
5, 76608, Note_on_c, 4, 36, 0
5, 76608, Note_on_c, 4, 38, 45
5, 76704, Note_on_c, 4, 38, 0
5, 76704, Note_on_c, 4, 40, 45
5, 76798, Note_on_c, 4, 40, 0
5, 76800, Note_on_c, 4, 41, 45
5, 76960, Note_on_c, 4, 41, 0
5, 77568, Note_on_c, 4, 41, 53
5, 77664, Note_on_c, 4, 41, 0
5, 77664, Note_on_c, 4, 40, 54
5, 77760, Note_on_c, 4, 40, 0
5, 77760, Note_on_c, 4, 41, 55
5, 77856, Note_on_c, 4, 41, 0
5, 77856, Note_on_c, 4, 43, 56
5, 77950, Note_on_c, 4, 43, 0
5, 77952, Note_on_c, 4, 45, 57
5, 78112, Note_on_c, 4, 45, 0
5, 78720, Note_on_c, 4, 45, 65
5, 78816, Note_on_c, 4, 45, 0
5, 78816, Note_on_c, 4, 43, 66
5, 78912, Note_on_c, 4, 43, 0
5, 78912, Note_on_c, 4, 45, 67
5, 79008, Note_on_c, 4, 45, 0
5, 79008, Note_on_c, 4, 46, 68
5, 79102, Note_on_c, 4, 46, 0
5, 79104, Note_on_c, 4, 48, 69
5, 79264, Note_on_c, 4, 48, 0
5, 79680, Note_on_c, 4, 62, 45
5, 79840, Note_on_c, 4, 62, 0
5, 80064, Note_on_c, 4, 62, 45
5, 80224, Note_on_c, 4, 62, 0
5, 80256, Note_on_c, 4, 64, 45
5, 80784, Note_on_c, 4, 64, 0
5, 80832, Note_on_c, 4, 41, 45
5, 81936, Note_on_c, 4, 41, 0
5, 81984, Note_on_c, 4, 38, 45
5, 82144, Note_on_c, 4, 38, 0
5, 82368, Note_on_c, 4, 62, 45
5, 82528, Note_on_c, 4, 62, 0
5, 82560, Note_on_c, 4, 64, 45
5, 83088, Note_on_c, 4, 64, 0
5, 83136, Note_on_c, 4, 60, 45
5, 83296, Note_on_c, 4, 60, 0
5, 83520, Note_on_c, 4, 60, 45
5, 83680, Note_on_c, 4, 60, 0
5, 83712, Note_on_c, 4, 62, 45
5, 84240, Note_on_c, 4, 62, 0
5, 84288, Note_on_c, 4, 55, 92
5, 84448, Note_on_c, 4, 55, 0
5, 84480, Note_on_c, 4, 62, 45
5, 84640, Note_on_c, 4, 62, 0
5, 84672, Note_on_c, 4, 62, 45
5, 84832, Note_on_c, 4, 62, 0
5, 84864, Note_on_c, 4, 62, 45
5, 85024, Note_on_c, 4, 62, 0
5, 85056, Note_on_c, 4, 62, 45
5, 85216, Note_on_c, 4, 62, 0
5, 85248, Note_on_c, 4, 62, 45
5, 85408, Note_on_c, 4, 62, 0
5, 85440, Note_on_c, 4, 62, 45
5, 85600, Note_on_c, 4, 62, 0
5, 85632, Note_on_c, 4, 62, 45
5, 85792, Note_on_c, 4, 62, 0
5, 85824, Note_on_c, 4, 62, 45
5, 85984, Note_on_c, 4, 62, 0
5, 86016, Note_on_c, 4, 62, 45
5, 86176, Note_on_c, 4, 62, 0
5, 86208, Note_on_c, 4, 62, 45
5, 86368, Note_on_c, 4, 62, 0
5, 86400, Note_on_c, 4, 62, 45
5, 86560, Note_on_c, 4, 62, 0
5, 86592, Note_on_c, 4, 62, 45
5, 86752, Note_on_c, 4, 62, 0
5, 86784, Note_on_c, 4, 62, 45
5, 86944, Note_on_c, 4, 62, 0
5, 86976, Note_on_c, 4, 62, 45
5, 87136, Note_on_c, 4, 62, 0
5, 87168, Note_on_c, 4, 62, 45
5, 87328, Note_on_c, 4, 62, 0
5, 87360, Note_on_c, 4, 62, 45
5, 87520, Note_on_c, 4, 62, 0
5, 87552, Note_on_c, 4, 62, 45
5, 87712, Note_on_c, 4, 62, 0
5, 87744, Note_on_c, 4, 62, 45
5, 87904, Note_on_c, 4, 62, 0
5, 87936, Note_on_c, 4, 62, 45
5, 88096, Note_on_c, 4, 62, 0
5, 88128, Note_on_c, 4, 62, 45
5, 88288, Note_on_c, 4, 62, 0
5, 88320, Note_on_c, 4, 62, 45
5, 88480, Note_on_c, 4, 62, 0
5, 88512, Note_on_c, 4, 62, 45
5, 88672, Note_on_c, 4, 62, 0
5, 88704, Note_on_c, 4, 62, 45
5, 88864, Note_on_c, 4, 62, 0
5, 88896, Note_on_c, 4, 55, 92
5, 89056, Note_on_c, 4, 55, 0
5, 89088, Note_on_c, 4, 62, 45
5, 89248, Note_on_c, 4, 62, 0
5, 89280, Note_on_c, 4, 62, 45
5, 89440, Note_on_c, 4, 62, 0
5, 89472, Note_on_c, 4, 62, 45
5, 89632, Note_on_c, 4, 62, 0
5, 89664, Note_on_c, 4, 62, 45
5, 89824, Note_on_c, 4, 62, 0
5, 89856, Note_on_c, 4, 62, 45
5, 90016, Note_on_c, 4, 62, 0
5, 90048, Note_on_c, 4, 62, 45
5, 90208, Note_on_c, 4, 62, 0
5, 90240, Note_on_c, 4, 62, 45
5, 90400, Note_on_c, 4, 62, 0
5, 90432, Note_on_c, 4, 62, 45
5, 90592, Note_on_c, 4, 62, 0
5, 90624, Note_on_c, 4, 62, 45
5, 90784, Note_on_c, 4, 62, 0
5, 90816, Note_on_c, 4, 67, 45
5, 90976, Note_on_c, 4, 67, 0
5, 91008, Note_on_c, 4, 67, 45
5, 91168, Note_on_c, 4, 67, 0
5, 91200, Note_on_c, 4, 67, 45
5, 91360, Note_on_c, 4, 67, 0
5, 91392, Note_on_c, 4, 67, 45
5, 91552, Note_on_c, 4, 67, 0
5, 91584, Note_on_c, 4, 67, 45
5, 91744, Note_on_c, 4, 67, 0
5, 91776, Note_on_c, 4, 65, 45
5, 91936, Note_on_c, 4, 65, 0
5, 91968, Note_on_c, 4, 65, 45
5, 92128, Note_on_c, 4, 65, 0
5, 92160, Note_on_c, 4, 65, 45
5, 92320, Note_on_c, 4, 65, 0
5, 92352, Note_on_c, 4, 64, 45
5, 92512, Note_on_c, 4, 64, 0
5, 92544, Note_on_c, 4, 64, 45
5, 92704, Note_on_c, 4, 64, 0
5, 92736, Note_on_c, 4, 64, 44
5, 92896, Note_on_c, 4, 64, 0
5, 92928, Note_on_c, 4, 64, 43
5, 93088, Note_on_c, 4, 64, 0
5, 93120, Note_on_c, 4, 64, 42
5, 93280, Note_on_c, 4, 64, 0
5, 93312, Note_on_c, 4, 64, 41
5, 93472, Note_on_c, 4, 64, 0
5, 93504, Note_on_c, 4, 64, 40
5, 93664, Note_on_c, 4, 64, 0
5, 93696, Note_on_c, 4, 64, 39
5, 93856, Note_on_c, 4, 64, 0
5, 93888, Note_on_c, 4, 64, 38
5, 94048, Note_on_c, 4, 64, 0
5, 94080, Note_on_c, 4, 64, 36
5, 94240, Note_on_c, 4, 64, 0
5, 94272, Note_on_c, 4, 64, 34
5, 94432, Note_on_c, 4, 64, 0
5, 94464, Note_on_c, 4, 64, 32
5, 94624, Note_on_c, 4, 64, 0
5, 94656, Note_on_c, 4, 64, 30
5, 94816, Note_on_c, 4, 64, 0
5, 94848, Note_on_c, 4, 64, 30
5, 95008, Note_on_c, 4, 64, 0
5, 95040, Note_on_c, 4, 64, 30
5, 95200, Note_on_c, 4, 64, 0
5, 95232, Note_on_c, 4, 64, 30
5, 95392, Note_on_c, 4, 64, 0
5, 95424, Note_on_c, 4, 64, 30
5, 95584, Note_on_c, 4, 64, 0
5, 95616, Note_on_c, 4, 64, 30
5, 95776, Note_on_c, 4, 64, 0
5, 95808, Note_on_c, 4, 64, 30
5, 95968, Note_on_c, 4, 64, 0
5, 96000, Note_on_c, 4, 64, 30
5, 96160, Note_on_c, 4, 64, 0
5, 96192, Note_on_c, 4, 64, 30
5, 96352, Note_on_c, 4, 64, 0
5, 96384, Note_on_c, 4, 64, 30
5, 96544, Note_on_c, 4, 64, 0
5, 96576, Note_on_c, 4, 64, 30
5, 96736, Note_on_c, 4, 64, 0
5, 96768, Note_on_c, 4, 64, 30
5, 96928, Note_on_c, 4, 64, 0
5, 96960, Note_on_c, 4, 64, 30
5, 97120, Note_on_c, 4, 64, 0
5, 97152, Note_on_c, 4, 52, 30
5, 97248, Note_on_c, 4, 52, 0
5, 97248, Note_on_c, 4, 51, 32
5, 97344, Note_on_c, 4, 51, 0
5, 97344, Note_on_c, 4, 52, 34
5, 97440, Note_on_c, 4, 52, 0
5, 97440, Note_on_c, 4, 54, 36
5, 97534, Note_on_c, 4, 54, 0
5, 97536, Note_on_c, 4, 56, 38
5, 97584, Note_on_c, 4, 56, 0
5, 98304, Note_on_c, 4, 64, 62
5, 98464, Note_on_c, 4, 64, 0
5, 98496, Note_on_c, 4, 64, 68
5, 98656, Note_on_c, 4, 64, 0
5, 98688, Note_on_c, 4, 64, 74
5, 98848, Note_on_c, 4, 64, 0
5, 98880, Note_on_c, 4, 64, 80
5, 99040, Note_on_c, 4, 64, 0
5, 99072, Note_on_c, 4, 64, 86
5, 99232, Note_on_c, 4, 64, 0
5, 99264, Note_on_c, 4, 57, 92
5, 99424, Note_on_c, 4, 57, 0
5, 99456, Note_on_c, 4, 64, 45
5, 99616, Note_on_c, 4, 64, 0
5, 99648, Note_on_c, 4, 64, 45
5, 99808, Note_on_c, 4, 64, 0
5, 99840, Note_on_c, 4, 64, 45
5, 100000, Note_on_c, 4, 64, 0
5, 100032, Note_on_c, 4, 64, 45
5, 100192, Note_on_c, 4, 64, 0
5, 100224, Note_on_c, 4, 64, 45
5, 100384, Note_on_c, 4, 64, 0
5, 100416, Note_on_c, 4, 64, 45
5, 100576, Note_on_c, 4, 64, 0
5, 100608, Note_on_c, 4, 64, 45
5, 100768, Note_on_c, 4, 64, 0
5, 100800, Note_on_c, 4, 64, 45
5, 100960, Note_on_c, 4, 64, 0
5, 100992, Note_on_c, 4, 64, 45
5, 101152, Note_on_c, 4, 64, 0
5, 101184, Note_on_c, 4, 64, 45
5, 101344, Note_on_c, 4, 64, 0
5, 101376, Note_on_c, 4, 64, 45
5, 101536, Note_on_c, 4, 64, 0
5, 101568, Note_on_c, 4, 64, 45
5, 101728, Note_on_c, 4, 64, 0
5, 101760, Note_on_c, 4, 64, 45
5, 101920, Note_on_c, 4, 64, 0
5, 101952, Note_on_c, 4, 64, 45
5, 102112, Note_on_c, 4, 64, 0
5, 102144, Note_on_c, 4, 64, 45
5, 102304, Note_on_c, 4, 64, 0
5, 102336, Note_on_c, 4, 64, 45
5, 102496, Note_on_c, 4, 64, 0
5, 102528, Note_on_c, 4, 64, 45
5, 102688, Note_on_c, 4, 64, 0
5, 102720, Note_on_c, 4, 64, 45
5, 102880, Note_on_c, 4, 64, 0
5, 102912, Note_on_c, 4, 64, 45
5, 103072, Note_on_c, 4, 64, 0
5, 103104, Note_on_c, 4, 64, 45
5, 103264, Note_on_c, 4, 64, 0
5, 103296, Note_on_c, 4, 64, 45
5, 103456, Note_on_c, 4, 64, 0
5, 103488, Note_on_c, 4, 64, 45
5, 103648, Note_on_c, 4, 64, 0
5, 103680, Note_on_c, 4, 64, 45
5, 103840, Note_on_c, 4, 64, 0
5, 103872, Note_on_c, 4, 57, 92
5, 104032, Note_on_c, 4, 57, 0
5, 104064, Note_on_c, 4, 45, 45
5, 104160, Note_on_c, 4, 45, 0
5, 104160, Note_on_c, 4, 44, 45
5, 104256, Note_on_c, 4, 44, 0
5, 104256, Note_on_c, 4, 45, 45
5, 104352, Note_on_c, 4, 45, 0
5, 104352, Note_on_c, 4, 47, 45
5, 104446, Note_on_c, 4, 47, 0
5, 104448, Note_on_c, 4, 49, 45
5, 104496, Note_on_c, 4, 49, 0
5, 105600, Note_on_c, 4, 64, 45
5, 105760, Note_on_c, 4, 64, 0
5, 105792, Note_on_c, 4, 64, 45
5, 105952, Note_on_c, 4, 64, 0
5, 105984, Note_on_c, 4, 64, 45
5, 106144, Note_on_c, 4, 64, 0
5, 106176, Note_on_c, 4, 64, 45
5, 106336, Note_on_c, 4, 64, 0
5, 106368, Note_on_c, 4, 64, 45
5, 106528, Note_on_c, 4, 64, 0
5, 106560, Note_on_c, 4, 64, 45
5, 106720, Note_on_c, 4, 64, 0
5, 106752, Note_on_c, 4, 64, 45
5, 106912, Note_on_c, 4, 64, 0
5, 106944, Note_on_c, 4, 64, 45
5, 107104, Note_on_c, 4, 64, 0
5, 107136, Note_on_c, 4, 64, 45
5, 107296, Note_on_c, 4, 64, 0
5, 107328, Note_on_c, 4, 64, 45
5, 107488, Note_on_c, 4, 64, 0
5, 107520, Note_on_c, 4, 64, 45
5, 107680, Note_on_c, 4, 64, 0
5, 107712, Note_on_c, 4, 64, 45
5, 107872, Note_on_c, 4, 64, 0
5, 107904, Note_on_c, 4, 64, 45
5, 108064, Note_on_c, 4, 64, 0
5, 108096, Note_on_c, 4, 64, 45
5, 108256, Note_on_c, 4, 64, 0
5, 108288, Note_on_c, 4, 64, 45
5, 108448, Note_on_c, 4, 64, 0
5, 108480, Note_on_c, 4, 64, 45
5, 108640, Note_on_c, 4, 64, 0
5, 108672, Note_on_c, 4, 44, 48
5, 108768, Note_on_c, 4, 44, 0
5, 108768, Note_on_c, 4, 42, 50
5, 108864, Note_on_c, 4, 42, 0
5, 108864, Note_on_c, 4, 44, 52
5, 108960, Note_on_c, 4, 44, 0
5, 108960, Note_on_c, 4, 45, 54
5, 109054, Note_on_c, 4, 45, 0
5, 109056, Note_on_c, 4, 47, 56
5, 109104, Note_on_c, 4, 47, 0
5, 109248, Note_on_c, 4, 64, 60
5, 109408, Note_on_c, 4, 64, 0
5, 109440, Note_on_c, 4, 64, 64
5, 109600, Note_on_c, 4, 64, 0
5, 109632, Note_on_c, 4, 64, 68
5, 109792, Note_on_c, 4, 64, 0
5, 109824, Note_on_c, 4, 64, 72
5, 109984, Note_on_c, 4, 64, 0
5, 110016, Note_on_c, 4, 64, 76
5, 110176, Note_on_c, 4, 64, 0
5, 110208, Note_on_c, 4, 64, 80
5, 110368, Note_on_c, 4, 64, 0
5, 110400, Note_on_c, 4, 42, 84
5, 110496, Note_on_c, 4, 42, 0
5, 110496, Note_on_c, 4, 40, 86
5, 110592, Note_on_c, 4, 40, 0
5, 110592, Note_on_c, 4, 42, 88
5, 110688, Note_on_c, 4, 42, 0
5, 110688, Note_on_c, 4, 44, 90
5, 110782, Note_on_c, 4, 44, 0
5, 110784, Note_on_c, 4, 45, 92
5, 110832, Note_on_c, 4, 45, 0
5, 110976, Note_on_c, 4, 42, 92
5, 111072, Note_on_c, 4, 42, 0
5, 111072, Note_on_c, 4, 40, 92
5, 111168, Note_on_c, 4, 40, 0
5, 111168, Note_on_c, 4, 42, 92
5, 111264, Note_on_c, 4, 42, 0
5, 111264, Note_on_c, 4, 44, 92
5, 111358, Note_on_c, 4, 44, 0
5, 111360, Note_on_c, 4, 45, 92
5, 111408, Note_on_c, 4, 45, 0
5, 111552, Note_on_c, 4, 42, 92
5, 111648, Note_on_c, 4, 42, 0
5, 111648, Note_on_c, 4, 40, 92
5, 111744, Note_on_c, 4, 40, 0
5, 111744, Note_on_c, 4, 42, 92
5, 111840, Note_on_c, 4, 42, 0
5, 111840, Note_on_c, 4, 44, 92
5, 111934, Note_on_c, 4, 44, 0
5, 111936, Note_on_c, 4, 45, 92
5, 112096, Note_on_c, 4, 45, 0
5, 112128, Note_on_c, 4, 42, 92
5, 112224, Note_on_c, 4, 42, 0
5, 112224, Note_on_c, 4, 40, 92
5, 112320, Note_on_c, 4, 40, 0
5, 112320, Note_on_c, 4, 42, 92
5, 112416, Note_on_c, 4, 42, 0
5, 112416, Note_on_c, 4, 44, 92
5, 112510, Note_on_c, 4, 44, 0
5, 112512, Note_on_c, 4, 45, 92
5, 112672, Note_on_c, 4, 45, 0
5, 112704, Note_on_c, 4, 42, 92
5, 112800, Note_on_c, 4, 42, 0
5, 112800, Note_on_c, 4, 40, 92
5, 112896, Note_on_c, 4, 40, 0
5, 112896, Note_on_c, 4, 42, 92
5, 112992, Note_on_c, 4, 42, 0
5, 112992, Note_on_c, 4, 44, 92
5, 113086, Note_on_c, 4, 44, 0
5, 113088, Note_on_c, 4, 45, 92
5, 113248, Note_on_c, 4, 45, 0
5, 113280, Note_on_c, 4, 42, 92
5, 113376, Note_on_c, 4, 42, 0
5, 113376, Note_on_c, 4, 40, 92
5, 113472, Note_on_c, 4, 40, 0
5, 113472, Note_on_c, 4, 42, 92
5, 113568, Note_on_c, 4, 42, 0
5, 113568, Note_on_c, 4, 44, 92
5, 113662, Note_on_c, 4, 44, 0
5, 113664, Note_on_c, 4, 45, 92
5, 113824, Note_on_c, 4, 45, 0
5, 113856, Note_on_c, 4, 42, 92
5, 113952, Note_on_c, 4, 42, 0
5, 113952, Note_on_c, 4, 40, 92
5, 114048, Note_on_c, 4, 40, 0
5, 114048, Note_on_c, 4, 42, 92
5, 114144, Note_on_c, 4, 42, 0
5, 114144, Note_on_c, 4, 44, 92
5, 114238, Note_on_c, 4, 44, 0
5, 114240, Note_on_c, 4, 45, 92
5, 114400, Note_on_c, 4, 45, 0
5, 114432, Note_on_c, 4, 42, 92
5, 114528, Note_on_c, 4, 42, 0
5, 114528, Note_on_c, 4, 40, 92
5, 114624, Note_on_c, 4, 40, 0
5, 114624, Note_on_c, 4, 42, 92
5, 114720, Note_on_c, 4, 42, 0
5, 114720, Note_on_c, 4, 44, 92
5, 114814, Note_on_c, 4, 44, 0
5, 114816, Note_on_c, 4, 45, 92
5, 114976, Note_on_c, 4, 45, 0
5, 115008, Note_on_c, 4, 42, 92
5, 115104, Note_on_c, 4, 42, 0
5, 115104, Note_on_c, 4, 40, 92
5, 115200, Note_on_c, 4, 40, 0
5, 115200, Note_on_c, 4, 42, 92
5, 115296, Note_on_c, 4, 42, 0
5, 115296, Note_on_c, 4, 44, 92
5, 115390, Note_on_c, 4, 44, 0
5, 115392, Note_on_c, 4, 45, 92
5, 115552, Note_on_c, 4, 45, 0
5, 115584, Note_on_c, 4, 42, 92
5, 115680, Note_on_c, 4, 42, 0
5, 115680, Note_on_c, 4, 40, 92
5, 115776, Note_on_c, 4, 40, 0
5, 115776, Note_on_c, 4, 42, 92
5, 115872, Note_on_c, 4, 42, 0
5, 115872, Note_on_c, 4, 44, 92
5, 115966, Note_on_c, 4, 44, 0
5, 115968, Note_on_c, 4, 45, 92
5, 116128, Note_on_c, 4, 45, 0
5, 116160, Note_on_c, 4, 42, 92
5, 116256, Note_on_c, 4, 42, 0
5, 116256, Note_on_c, 4, 40, 92
5, 116352, Note_on_c, 4, 40, 0
5, 116352, Note_on_c, 4, 42, 92
5, 116448, Note_on_c, 4, 42, 0
5, 116448, Note_on_c, 4, 44, 92
5, 116542, Note_on_c, 4, 44, 0
5, 116544, Note_on_c, 4, 45, 92
5, 116704, Note_on_c, 4, 45, 0
5, 116736, Note_on_c, 4, 42, 92
5, 116832, Note_on_c, 4, 42, 0
5, 116832, Note_on_c, 4, 40, 92
5, 116928, Note_on_c, 4, 40, 0
5, 116928, Note_on_c, 4, 42, 92
5, 117024, Note_on_c, 4, 42, 0
5, 117024, Note_on_c, 4, 44, 92
5, 117118, Note_on_c, 4, 44, 0
5, 117120, Note_on_c, 4, 45, 92
5, 117280, Note_on_c, 4, 45, 0
5, 117312, Note_on_c, 4, 42, 92
5, 117408, Note_on_c, 4, 42, 0
5, 117408, Note_on_c, 4, 40, 92
5, 117504, Note_on_c, 4, 40, 0
5, 117504, Note_on_c, 4, 42, 92
5, 117600, Note_on_c, 4, 42, 0
5, 117600, Note_on_c, 4, 44, 92
5, 117694, Note_on_c, 4, 44, 0
5, 117696, Note_on_c, 4, 45, 92
5, 117856, Note_on_c, 4, 45, 0
5, 117888, Note_on_c, 4, 42, 92
5, 117984, Note_on_c, 4, 42, 0
5, 117984, Note_on_c, 4, 40, 92
5, 118080, Note_on_c, 4, 40, 0
5, 118080, Note_on_c, 4, 42, 92
5, 118176, Note_on_c, 4, 42, 0
5, 118176, Note_on_c, 4, 44, 92
5, 118270, Note_on_c, 4, 44, 0
5, 118272, Note_on_c, 4, 45, 92
5, 118432, Note_on_c, 4, 45, 0
5, 118464, Note_on_c, 4, 42, 92
5, 118560, Note_on_c, 4, 42, 0
5, 118560, Note_on_c, 4, 40, 92
5, 118656, Note_on_c, 4, 40, 0
5, 118656, Note_on_c, 4, 42, 92
5, 118752, Note_on_c, 4, 42, 0
5, 118752, Note_on_c, 4, 44, 92
5, 118846, Note_on_c, 4, 44, 0
5, 118848, Note_on_c, 4, 45, 92
5, 119008, Note_on_c, 4, 45, 0
5, 119040, Note_on_c, 4, 42, 92
5, 119136, Note_on_c, 4, 42, 0
5, 119136, Note_on_c, 4, 40, 92
5, 119232, Note_on_c, 4, 40, 0
5, 119232, Note_on_c, 4, 42, 92
5, 119328, Note_on_c, 4, 42, 0
5, 119328, Note_on_c, 4, 44, 92
5, 119422, Note_on_c, 4, 44, 0
5, 119424, Note_on_c, 4, 45, 92
5, 119584, Note_on_c, 4, 45, 0
5, 119616, Note_on_c, 4, 42, 92
5, 119712, Note_on_c, 4, 42, 0
5, 119712, Note_on_c, 4, 40, 92
5, 119808, Note_on_c, 4, 40, 0
5, 119808, Note_on_c, 4, 42, 92
5, 119904, Note_on_c, 4, 42, 0
5, 119904, Note_on_c, 4, 44, 92
5, 119998, Note_on_c, 4, 44, 0
5, 120000, Note_on_c, 4, 45, 92
5, 120160, Note_on_c, 4, 45, 0
5, 120192, Note_on_c, 4, 42, 92
5, 120288, Note_on_c, 4, 42, 0
5, 120288, Note_on_c, 4, 40, 92
5, 120384, Note_on_c, 4, 40, 0
5, 120384, Note_on_c, 4, 42, 92
5, 120480, Note_on_c, 4, 42, 0
5, 120480, Note_on_c, 4, 44, 92
5, 120574, Note_on_c, 4, 44, 0
5, 120576, Note_on_c, 4, 45, 92
5, 120736, Note_on_c, 4, 45, 0
5, 120768, Note_on_c, 4, 42, 92
5, 120864, Note_on_c, 4, 42, 0
5, 120864, Note_on_c, 4, 40, 92
5, 120960, Note_on_c, 4, 40, 0
5, 120960, Note_on_c, 4, 42, 92
5, 121056, Note_on_c, 4, 42, 0
5, 121056, Note_on_c, 4, 44, 92
5, 121150, Note_on_c, 4, 44, 0
5, 121152, Note_on_c, 4, 45, 92
5, 121312, Note_on_c, 4, 45, 0
5, 121344, Note_on_c, 4, 42, 92
5, 121440, Note_on_c, 4, 42, 0
5, 121440, Note_on_c, 4, 40, 92
5, 121536, Note_on_c, 4, 40, 0
5, 121536, Note_on_c, 4, 42, 92
5, 121632, Note_on_c, 4, 42, 0
5, 121632, Note_on_c, 4, 44, 92
5, 121726, Note_on_c, 4, 44, 0
5, 121728, Note_on_c, 4, 45, 92
5, 121888, Note_on_c, 4, 45, 0
5, 121920, Note_on_c, 4, 42, 92
5, 122016, Note_on_c, 4, 42, 0
5, 122016, Note_on_c, 4, 40, 92
5, 122112, Note_on_c, 4, 40, 0
5, 122112, Note_on_c, 4, 42, 92
5, 122208, Note_on_c, 4, 42, 0
5, 122208, Note_on_c, 4, 44, 92
5, 122302, Note_on_c, 4, 44, 0
5, 122304, Note_on_c, 4, 45, 92
5, 122464, Note_on_c, 4, 45, 0
5, 122496, Note_on_c, 4, 42, 92
5, 122592, Note_on_c, 4, 42, 0
5, 122592, Note_on_c, 4, 40, 92
5, 122688, Note_on_c, 4, 40, 0
5, 122688, Note_on_c, 4, 42, 92
5, 122784, Note_on_c, 4, 42, 0
5, 122784, Note_on_c, 4, 44, 92
5, 122878, Note_on_c, 4, 44, 0
5, 122880, Note_on_c, 4, 45, 92
5, 123040, Note_on_c, 4, 45, 0
5, 123072, Note_on_c, 4, 42, 92
5, 123168, Note_on_c, 4, 42, 0
5, 123168, Note_on_c, 4, 40, 92
5, 123264, Note_on_c, 4, 40, 0
5, 123264, Note_on_c, 4, 42, 92
5, 123360, Note_on_c, 4, 42, 0
5, 123360, Note_on_c, 4, 44, 92
5, 123454, Note_on_c, 4, 44, 0
5, 123456, Note_on_c, 4, 45, 92
5, 123616, Note_on_c, 4, 45, 0
5, 123648, Note_on_c, 4, 42, 92
5, 123744, Note_on_c, 4, 42, 0
5, 123744, Note_on_c, 4, 40, 92
5, 123840, Note_on_c, 4, 40, 0
5, 123840, Note_on_c, 4, 42, 92
5, 123936, Note_on_c, 4, 42, 0
5, 123936, Note_on_c, 4, 44, 92
5, 124030, Note_on_c, 4, 44, 0
5, 124032, Note_on_c, 4, 45, 92
5, 124192, Note_on_c, 4, 45, 0
5, 124224, Note_on_c, 4, 42, 92
5, 124320, Note_on_c, 4, 42, 0
5, 124320, Note_on_c, 4, 40, 92
5, 124416, Note_on_c, 4, 40, 0
5, 124416, Note_on_c, 4, 42, 92
5, 124512, Note_on_c, 4, 42, 0
5, 124512, Note_on_c, 4, 44, 92
5, 124606, Note_on_c, 4, 44, 0
5, 124608, Note_on_c, 4, 45, 92
5, 124768, Note_on_c, 4, 45, 0
5, 124800, Note_on_c, 4, 42, 92
5, 124896, Note_on_c, 4, 42, 0
5, 124896, Note_on_c, 4, 40, 92
5, 124992, Note_on_c, 4, 40, 0
5, 124992, Note_on_c, 4, 42, 92
5, 125088, Note_on_c, 4, 42, 0
5, 125088, Note_on_c, 4, 44, 92
5, 125182, Note_on_c, 4, 44, 0
5, 125184, Note_on_c, 4, 45, 92
5, 125344, Note_on_c, 4, 45, 0
5, 125376, Note_on_c, 4, 42, 92
5, 125472, Note_on_c, 4, 42, 0
5, 125472, Note_on_c, 4, 40, 92
5, 125568, Note_on_c, 4, 40, 0
5, 125568, Note_on_c, 4, 42, 92
5, 125664, Note_on_c, 4, 42, 0
5, 125664, Note_on_c, 4, 44, 92
5, 125758, Note_on_c, 4, 44, 0
5, 125760, Note_on_c, 4, 45, 92
5, 125920, Note_on_c, 4, 45, 0
5, 125952, Note_on_c, 4, 42, 92
5, 126048, Note_on_c, 4, 42, 0
5, 126048, Note_on_c, 4, 40, 92
5, 126144, Note_on_c, 4, 40, 0
5, 126144, Note_on_c, 4, 42, 92
5, 126240, Note_on_c, 4, 42, 0
5, 126240, Note_on_c, 4, 44, 92
5, 126334, Note_on_c, 4, 44, 0
5, 126336, Note_on_c, 4, 45, 92
5, 126496, Note_on_c, 4, 45, 0
5, 126528, Note_on_c, 4, 42, 92
5, 126624, Note_on_c, 4, 42, 0
5, 126624, Note_on_c, 4, 40, 92
5, 126720, Note_on_c, 4, 40, 0
5, 126720, Note_on_c, 4, 42, 92
5, 126816, Note_on_c, 4, 42, 0
5, 126816, Note_on_c, 4, 44, 92
5, 126910, Note_on_c, 4, 44, 0
5, 126912, Note_on_c, 4, 45, 92
5, 127072, Note_on_c, 4, 45, 0
5, 127104, Note_on_c, 4, 42, 92
5, 127200, Note_on_c, 4, 42, 0
5, 127200, Note_on_c, 4, 40, 92
5, 127296, Note_on_c, 4, 40, 0
5, 127296, Note_on_c, 4, 42, 92
5, 127392, Note_on_c, 4, 42, 0
5, 127392, Note_on_c, 4, 44, 92
5, 127486, Note_on_c, 4, 44, 0
5, 127488, Note_on_c, 4, 45, 92
5, 127648, Note_on_c, 4, 45, 0
5, 127680, Note_on_c, 4, 42, 92
5, 127776, Note_on_c, 4, 42, 0
5, 127776, Note_on_c, 4, 40, 92
5, 127872, Note_on_c, 4, 40, 0
5, 127872, Note_on_c, 4, 42, 92
5, 127968, Note_on_c, 4, 42, 0
5, 127968, Note_on_c, 4, 44, 92
5, 128062, Note_on_c, 4, 44, 0
5, 128064, Note_on_c, 4, 45, 92
5, 128224, Note_on_c, 4, 45, 0
5, 128256, Note_on_c, 4, 42, 92
5, 128352, Note_on_c, 4, 42, 0
5, 128352, Note_on_c, 4, 40, 92
5, 128448, Note_on_c, 4, 40, 0
5, 128448, Note_on_c, 4, 42, 92
5, 128544, Note_on_c, 4, 42, 0
5, 128544, Note_on_c, 4, 44, 92
5, 128638, Note_on_c, 4, 44, 0
5, 128640, Note_on_c, 4, 45, 92
5, 128800, Note_on_c, 4, 45, 0
5, 128832, Note_on_c, 4, 42, 92
5, 128928, Note_on_c, 4, 42, 0
5, 128928, Note_on_c, 4, 40, 92
5, 129024, Note_on_c, 4, 40, 0
5, 129024, Note_on_c, 4, 42, 92
5, 129120, Note_on_c, 4, 42, 0
5, 129120, Note_on_c, 4, 44, 92
5, 129214, Note_on_c, 4, 44, 0
5, 129216, Note_on_c, 4, 45, 92
5, 129376, Note_on_c, 4, 45, 0
5, 129408, Note_on_c, 4, 42, 89
5, 129504, Note_on_c, 4, 42, 0
5, 129504, Note_on_c, 4, 40, 87
5, 129600, Note_on_c, 4, 40, 0
5, 129600, Note_on_c, 4, 42, 85
5, 129696, Note_on_c, 4, 42, 0
5, 129696, Note_on_c, 4, 44, 83
5, 129790, Note_on_c, 4, 44, 0
5, 129792, Note_on_c, 4, 45, 81
5, 129952, Note_on_c, 4, 45, 0
5, 129984, Note_on_c, 4, 42, 77
5, 130080, Note_on_c, 4, 42, 0
5, 130080, Note_on_c, 4, 40, 75
5, 130176, Note_on_c, 4, 40, 0
5, 130176, Note_on_c, 4, 42, 73
5, 130272, Note_on_c, 4, 42, 0
5, 130272, Note_on_c, 4, 44, 71
5, 130366, Note_on_c, 4, 44, 0
5, 130368, Note_on_c, 4, 45, 69
5, 130528, Note_on_c, 4, 45, 0
5, 130560, Note_on_c, 4, 42, 65
5, 130656, Note_on_c, 4, 42, 0
5, 130656, Note_on_c, 4, 40, 63
5, 130752, Note_on_c, 4, 40, 0
5, 130752, Note_on_c, 4, 42, 61
5, 130848, Note_on_c, 4, 42, 0
5, 130848, Note_on_c, 4, 44, 59
5, 130942, Note_on_c, 4, 44, 0
5, 130944, Note_on_c, 4, 45, 57
5, 131104, Note_on_c, 4, 45, 0
5, 131136, Note_on_c, 4, 42, 53
5, 131232, Note_on_c, 4, 42, 0
5, 131232, Note_on_c, 4, 40, 51
5, 131328, Note_on_c, 4, 40, 0
5, 131328, Note_on_c, 4, 42, 49
5, 131424, Note_on_c, 4, 42, 0
5, 131424, Note_on_c, 4, 44, 47
5, 131518, Note_on_c, 4, 44, 0
5, 131520, Note_on_c, 4, 45, 45
5, 131680, Note_on_c, 4, 45, 0
5, 131712, Note_on_c, 4, 42, 45
5, 131808, Note_on_c, 4, 42, 0
5, 131808, Note_on_c, 4, 40, 45
5, 131904, Note_on_c, 4, 40, 0
5, 131904, Note_on_c, 4, 42, 45
5, 132000, Note_on_c, 4, 42, 0
5, 132000, Note_on_c, 4, 44, 45
5, 132094, Note_on_c, 4, 44, 0
5, 132096, Note_on_c, 4, 45, 45
5, 132256, Note_on_c, 4, 45, 0
5, 132288, Note_on_c, 4, 42, 45
5, 132384, Note_on_c, 4, 42, 0
5, 132384, Note_on_c, 4, 40, 45
5, 132480, Note_on_c, 4, 40, 0
5, 132480, Note_on_c, 4, 42, 45
5, 132576, Note_on_c, 4, 42, 0
5, 132576, Note_on_c, 4, 44, 45
5, 132670, Note_on_c, 4, 44, 0
5, 132672, Note_on_c, 4, 45, 45
5, 132832, Note_on_c, 4, 45, 0
5, 132864, Note_on_c, 4, 42, 44
5, 132960, Note_on_c, 4, 42, 0
5, 132960, Note_on_c, 4, 40, 44
5, 133056, Note_on_c, 4, 40, 0
5, 133056, Note_on_c, 4, 42, 44
5, 133152, Note_on_c, 4, 42, 0
5, 133152, Note_on_c, 4, 44, 44
5, 133246, Note_on_c, 4, 44, 0
5, 133248, Note_on_c, 4, 45, 44
5, 133408, Note_on_c, 4, 45, 0
5, 133440, Note_on_c, 4, 42, 43
5, 133536, Note_on_c, 4, 42, 0
5, 133536, Note_on_c, 4, 40, 43
5, 133632, Note_on_c, 4, 40, 0
5, 133632, Note_on_c, 4, 42, 43
5, 133728, Note_on_c, 4, 42, 0
5, 133728, Note_on_c, 4, 44, 43
5, 133822, Note_on_c, 4, 44, 0
5, 133824, Note_on_c, 4, 45, 43
5, 133984, Note_on_c, 4, 45, 0
5, 134016, Note_on_c, 4, 42, 42
5, 134112, Note_on_c, 4, 42, 0
5, 134112, Note_on_c, 4, 40, 42
5, 134208, Note_on_c, 4, 40, 0
5, 134208, Note_on_c, 4, 42, 42
5, 134304, Note_on_c, 4, 42, 0
5, 134304, Note_on_c, 4, 44, 42
5, 134398, Note_on_c, 4, 44, 0
5, 134400, Note_on_c, 4, 45, 42
5, 134560, Note_on_c, 4, 45, 0
5, 134592, Note_on_c, 4, 42, 40
5, 134688, Note_on_c, 4, 42, 0
5, 134688, Note_on_c, 4, 40, 39
5, 134784, Note_on_c, 4, 40, 0
5, 134784, Note_on_c, 4, 42, 38
5, 134880, Note_on_c, 4, 42, 0
5, 134880, Note_on_c, 4, 44, 37
5, 134974, Note_on_c, 4, 44, 0
5, 134976, Note_on_c, 4, 45, 36
5, 135136, Note_on_c, 4, 45, 0
5, 135168, Note_on_c, 4, 42, 34
5, 135264, Note_on_c, 4, 42, 0
5, 135264, Note_on_c, 4, 40, 33
5, 135360, Note_on_c, 4, 40, 0
5, 135360, Note_on_c, 4, 42, 32
5, 135456, Note_on_c, 4, 42, 0
5, 135456, Note_on_c, 4, 44, 31
5, 135550, Note_on_c, 4, 44, 0
5, 135552, Note_on_c, 4, 45, 30
5, 135712, Note_on_c, 4, 45, 0
5, 135744, Note_on_c, 4, 42, 30
5, 135840, Note_on_c, 4, 42, 0
5, 135840, Note_on_c, 4, 40, 30
5, 135936, Note_on_c, 4, 40, 0
5, 135936, Note_on_c, 4, 42, 30
5, 136032, Note_on_c, 4, 42, 0
5, 136032, Note_on_c, 4, 44, 30
5, 136126, Note_on_c, 4, 44, 0
5, 136128, Note_on_c, 4, 45, 30
5, 136288, Note_on_c, 4, 45, 0
5, 136320, Note_on_c, 4, 42, 30
5, 136416, Note_on_c, 4, 42, 0
5, 136416, Note_on_c, 4, 40, 30
5, 136512, Note_on_c, 4, 40, 0
5, 136512, Note_on_c, 4, 42, 30
5, 136608, Note_on_c, 4, 42, 0
5, 136608, Note_on_c, 4, 44, 30
5, 136702, Note_on_c, 4, 44, 0
5, 136704, Note_on_c, 4, 45, 30
5, 136864, Note_on_c, 4, 45, 0
5, 136896, Note_on_c, 4, 42, 30
5, 136992, Note_on_c, 4, 42, 0
5, 136992, Note_on_c, 4, 40, 30
5, 137088, Note_on_c, 4, 40, 0
5, 137088, Note_on_c, 4, 42, 30
5, 137184, Note_on_c, 4, 42, 0
5, 137184, Note_on_c, 4, 44, 30
5, 137278, Note_on_c, 4, 44, 0
5, 137280, Note_on_c, 4, 45, 30
5, 137440, Note_on_c, 4, 45, 0
5, 137472, Note_on_c, 4, 42, 30
5, 137568, Note_on_c, 4, 42, 0
5, 137568, Note_on_c, 4, 40, 30
5, 137664, Note_on_c, 4, 40, 0
5, 137664, Note_on_c, 4, 42, 30
5, 137760, Note_on_c, 4, 42, 0
5, 137760, Note_on_c, 4, 44, 30
5, 137856, Note_on_c, 4, 44, 0
5, 137856, Note_on_c, 4, 45, 30
5, 137904, Note_on_c, 4, 45, 0
5, 138048, Note_on_c, 4, 42, 30
5, 138144, Note_on_c, 4, 42, 0
5, 138144, Note_on_c, 4, 40, 30
5, 138240, Note_on_c, 4, 40, 0
5, 138240, Note_on_c, 4, 42, 30
5, 138336, Note_on_c, 4, 42, 0
5, 138336, Note_on_c, 4, 43, 30
5, 138432, Note_on_c, 4, 43, 0
5, 138432, Note_on_c, 4, 45, 30
5, 138480, Note_on_c, 4, 45, 0
5, 138624, Note_on_c, 4, 42, 30
5, 138720, Note_on_c, 4, 42, 0
5, 138720, Note_on_c, 4, 40, 30
5, 138816, Note_on_c, 4, 40, 0
5, 138816, Note_on_c, 4, 41, 30
5, 138912, Note_on_c, 4, 41, 0
5, 138912, Note_on_c, 4, 43, 30
5, 139008, Note_on_c, 4, 43, 0
5, 139008, Note_on_c, 4, 45, 30
5, 139056, Note_on_c, 4, 45, 0
5, 139200, Note_on_c, 4, 41, 30
5, 139296, Note_on_c, 4, 41, 0
5, 139296, Note_on_c, 4, 40, 30
5, 139392, Note_on_c, 4, 40, 0
5, 139392, Note_on_c, 4, 41, 30
5, 139488, Note_on_c, 4, 41, 0
5, 139488, Note_on_c, 4, 43, 30
5, 139776, Note_on_c, 4, 43, 0
5, 139776, Note_on_c, 4, 45, 30
5, 140352, Note_on_c, 4, 45, 0
5, 140352, Note_on_c, 4, 43, 30
5, 140928, Note_on_c, 4, 43, 0
5, 140928, Note_on_c, 4, 41, 30
5, 141504, Note_on_c, 4, 41, 0
5, 141504, Note_on_c, 4, 43, 30
5, 142080, Note_on_c, 4, 43, 0
5, 142080, Note_on_c, 4, 55, 30
5, 142656, Note_on_c, 4, 55, 0
5, 142656, Note_on_c, 4, 67, 30
5, 143232, Note_on_c, 4, 67, 0
5, 143232, Note_on_c, 4, 55, 30
5, 143808, Note_on_c, 4, 55, 0
5, 143808, Note_on_c, 4, 43, 30
5, 144144, Note_on_c, 4, 43, 0
5, 144192, Note_on_c, 4, 41, 30
5, 144240, Note_on_c, 4, 41, 0
5, 144576, Note_on_c, 4, 45, 45
5, 144624, Note_on_c, 4, 45, 0
5, 144768, Note_on_c, 4, 46, 45
5, 144816, Note_on_c, 4, 46, 0
5, 145152, Note_on_c, 4, 48, 45
5, 145200, Note_on_c, 4, 48, 0
5, 145344, Note_on_c, 4, 50, 45
5, 145504, Note_on_c, 4, 50, 0
5, 145728, Note_on_c, 4, 48, 45
5, 145888, Note_on_c, 4, 48, 0
5, 145920, Note_on_c, 4, 46, 45
5, 146080, Note_on_c, 4, 46, 0
5, 146304, Note_on_c, 4, 43, 45
5, 146464, Note_on_c, 4, 43, 0
5, 146496, Note_on_c, 4, 41, 45
5, 146656, Note_on_c, 4, 41, 0
5, 146880, Note_on_c, 4, 45, 45
5, 147040, Note_on_c, 4, 45, 0
5, 147072, Note_on_c, 4, 46, 45
5, 147232, Note_on_c, 4, 46, 0
5, 147456, Note_on_c, 4, 48, 45
5, 147616, Note_on_c, 4, 48, 0
5, 147648, Note_on_c, 4, 50, 45
5, 147696, Note_on_c, 4, 50, 0
5, 147840, Note_on_c, 4, 38, 45
5, 147888, Note_on_c, 4, 38, 0
5, 148032, Note_on_c, 4, 36, 45
5, 148080, Note_on_c, 4, 36, 0
5, 148224, Note_on_c, 4, 41, 45
5, 148272, Note_on_c, 4, 41, 0
5, 148416, Note_on_c, 4, 62, 30
5, 148464, Note_on_c, 4, 62, 0
5, 148608, Note_on_c, 4, 60, 30
5, 148656, Note_on_c, 4, 60, 0
5, 148800, Note_on_c, 4, 65, 30
5, 148960, Note_on_c, 4, 65, 0
5, 149184, Note_on_c, 4, 57, 30
5, 149344, Note_on_c, 4, 57, 0
5, 149376, Note_on_c, 4, 58, 30
5, 149536, Note_on_c, 4, 58, 0
5, 149760, Note_on_c, 4, 60, 30
5, 149920, Note_on_c, 4, 60, 0
5, 149952, Note_on_c, 4, 62, 30
5, 150112, Note_on_c, 4, 62, 0
5, 150336, Note_on_c, 4, 60, 30
5, 150496, Note_on_c, 4, 60, 0
5, 150528, Note_on_c, 4, 58, 30
5, 150688, Note_on_c, 4, 58, 0
5, 150912, Note_on_c, 4, 55, 30
5, 151072, Note_on_c, 4, 55, 0
5, 151104, Note_on_c, 4, 53, 30
5, 151264, Note_on_c, 4, 53, 0
5, 151488, Note_on_c, 4, 57, 30
5, 151648, Note_on_c, 4, 57, 0
5, 151680, Note_on_c, 4, 58, 30
5, 151840, Note_on_c, 4, 58, 0
5, 152064, Note_on_c, 4, 60, 30
5, 152224, Note_on_c, 4, 60, 0
5, 152256, Note_on_c, 4, 62, 30
5, 152416, Note_on_c, 4, 62, 0
5, 152448, Note_on_c, 4, 50, 30
5, 152608, Note_on_c, 4, 50, 0
5, 152640, Note_on_c, 4, 48, 30
5, 152800, Note_on_c, 4, 48, 0
5, 152832, Note_on_c, 4, 53, 30
5, 152992, Note_on_c, 4, 53, 0
5, 153024, Note_on_c, 4, 39, 127
5, 153360, Note_on_c, 4, 39, 0
5, 153600, Note_on_c, 4, 39, 89
5, 153936, Note_on_c, 4, 39, 0
5, 153984, Note_on_c, 4, 39, 82
5, 154320, Note_on_c, 4, 39, 0
5, 154368, Note_on_c, 4, 39, 75
5, 154528, Note_on_c, 4, 39, 0
5, 154752, Note_on_c, 4, 39, 69
5, 155088, Note_on_c, 4, 39, 0
5, 155136, Note_on_c, 4, 39, 61
5, 155472, Note_on_c, 4, 39, 0
5, 155520, Note_on_c, 4, 39, 53
5, 155680, Note_on_c, 4, 39, 0
5, 155904, Note_on_c, 4, 39, 45
5, 156240, Note_on_c, 4, 39, 0
5, 156480, Note_on_c, 4, 39, 45
5, 156816, Note_on_c, 4, 39, 0
5, 157056, Note_on_c, 4, 40, 30
5, 157392, Note_on_c, 4, 40, 0
5, 157632, Note_on_c, 4, 36, 30
5, 158352, Note_on_c, 4, 36, 0
5, 158400, Note_on_c, 4, 36, 40
5, 158928, Note_on_c, 4, 36, 0
5, 158976, Note_on_c, 4, 36, 47
5, 159504, Note_on_c, 4, 36, 0
5, 159552, Note_on_c, 4, 36, 54
5, 160080, Note_on_c, 4, 36, 0
5, 160128, Note_on_c, 4, 36, 61
5, 160656, Note_on_c, 4, 36, 0
5, 160704, Note_on_c, 4, 36, 68
5, 161232, Note_on_c, 4, 36, 0
5, 161280, Note_on_c, 4, 36, 77
5, 161808, Note_on_c, 4, 36, 0
5, 161856, Note_on_c, 4, 36, 86
5, 162208, Note_on_c, 4, 36, 0
5, 162240, Note_on_c, 4, 41, 92
5, 162288, Note_on_c, 4, 41, 0
5, 162432, Note_on_c, 4, 43, 92
5, 162784, Note_on_c, 4, 43, 0
5, 162816, Note_on_c, 4, 45, 92
5, 163360, Note_on_c, 4, 45, 0
5, 163392, Note_on_c, 4, 43, 92
5, 163936, Note_on_c, 4, 43, 0
5, 163968, Note_on_c, 4, 41, 92
5, 164512, Note_on_c, 4, 41, 0
5, 164544, Note_on_c, 4, 43, 92
5, 165088, Note_on_c, 4, 43, 0
5, 165120, Note_on_c, 4, 45, 92
5, 165664, Note_on_c, 4, 45, 0
5, 165696, Note_on_c, 4, 43, 62
5, 166240, Note_on_c, 4, 43, 0
5, 166272, Note_on_c, 4, 41, 30
5, 166320, Note_on_c, 4, 41, 0
5, 166464, Note_on_c, 4, 43, 30
5, 166512, Note_on_c, 4, 43, 0
5, 166656, Note_on_c, 4, 41, 30
5, 166704, Note_on_c, 4, 41, 0
5, 167424, Note_on_c, 4, 41, 30
5, 167472, Note_on_c, 4, 41, 0
5, 167616, Note_on_c, 4, 43, 30
5, 167664, Note_on_c, 4, 43, 0
5, 167808, Note_on_c, 4, 41, 30
5, 167856, Note_on_c, 4, 41, 0
5, 168576, Note_on_c, 4, 41, 30
5, 168624, Note_on_c, 4, 41, 0
5, 168768, Note_on_c, 4, 39, 30
5, 168816, Note_on_c, 4, 39, 0
5, 168960, Note_on_c, 4, 38, 30
5, 169008, Note_on_c, 4, 38, 0
5, 169152, Note_on_c, 4, 40, 30
5, 169200, Note_on_c, 4, 40, 0
5, 169344, Note_on_c, 4, 42, 30
5, 169392, Note_on_c, 4, 42, 0
5, 169536, Note_on_c, 4, 43, 30
5, 169696, Note_on_c, 4, 43, 0
5, 169728, Note_on_c, 4, 43, 30
5, 169888, Note_on_c, 4, 43, 0
5, 169920, Note_on_c, 4, 45, 30
5, 170080, Note_on_c, 4, 45, 0
5, 170112, Note_on_c, 4, 46, 30
5, 170272, Note_on_c, 4, 46, 0
5, 170304, Note_on_c, 4, 46, 30
5, 170464, Note_on_c, 4, 46, 0
5, 170496, Note_on_c, 4, 48, 30
5, 170656, Note_on_c, 4, 48, 0
5, 170688, Note_on_c, 4, 41, 30
5, 170848, Note_on_c, 4, 41, 0
5, 171456, Note_on_c, 4, 60, 30
5, 171504, Note_on_c, 4, 60, 0
5, 171648, Note_on_c, 4, 63, 30
5, 171696, Note_on_c, 4, 63, 0
5, 171840, Note_on_c, 4, 62, 30
5, 172000, Note_on_c, 4, 62, 0
5, 172608, Note_on_c, 4, 64, 30
5, 172768, Note_on_c, 4, 64, 0
5, 172800, Note_on_c, 4, 65, 30
5, 172960, Note_on_c, 4, 65, 0
5, 172992, Note_on_c, 4, 60, 30
5, 173152, Note_on_c, 4, 60, 0
5, 173760, Note_on_c, 4, 63, 30
5, 173920, Note_on_c, 4, 63, 0
5, 173952, Note_on_c, 4, 62, 30
5, 174112, Note_on_c, 4, 62, 0
5, 174144, Note_on_c, 4, 62, 30
5, 174192, Note_on_c, 4, 62, 0
5, 174336, Note_on_c, 4, 60, 30
5, 174384, Note_on_c, 4, 60, 0
5, 174528, Note_on_c, 4, 58, 30
5, 174576, Note_on_c, 4, 58, 0
5, 174720, Note_on_c, 4, 57, 30
5, 174912, Note_on_c, 4, 57, 0
5, 174912, Note_on_c, 4, 58, 30
5, 175072, Note_on_c, 4, 58, 0
5, 175104, Note_on_c, 4, 55, 30
5, 175152, Note_on_c, 4, 55, 0
5, 175296, Note_on_c, 4, 57, 30
5, 175344, Note_on_c, 4, 57, 0
5, 175488, Note_on_c, 4, 55, 30
5, 175536, Note_on_c, 4, 55, 0
5, 175680, Note_on_c, 4, 57, 30
5, 175728, Note_on_c, 4, 57, 0
5, 175872, Note_on_c, 4, 58, 30
5, 176064, Note_on_c, 4, 58, 0
5, 176064, Note_on_c, 4, 46, 35
5, 176224, Note_on_c, 4, 46, 0
5, 176256, Note_on_c, 4, 48, 40
5, 176304, Note_on_c, 4, 48, 0
5, 176448, Note_on_c, 4, 48, 45
5, 176496, Note_on_c, 4, 48, 0
5, 176640, Note_on_c, 4, 36, 50
5, 176688, Note_on_c, 4, 36, 0
5, 176832, Note_on_c, 4, 36, 55
5, 176880, Note_on_c, 4, 36, 0
5, 177024, Note_on_c, 4, 36, 60
5, 177184, Note_on_c, 4, 36, 0
5, 177216, Note_on_c, 4, 36, 65
5, 177376, Note_on_c, 4, 36, 0
5, 177408, Note_on_c, 4, 36, 70
5, 177568, Note_on_c, 4, 36, 0
5, 177600, Note_on_c, 4, 36, 75
5, 177792, Note_on_c, 4, 36, 0
5, 177792, Note_on_c, 4, 38, 72
5, 177952, Note_on_c, 4, 38, 0
5, 177984, Note_on_c, 4, 40, 69
5, 178032, Note_on_c, 4, 40, 0
5, 178176, Note_on_c, 4, 41, 66
5, 178224, Note_on_c, 4, 41, 0
5, 178368, Note_on_c, 4, 43, 63
5, 178416, Note_on_c, 4, 43, 0
5, 178560, Note_on_c, 4, 45, 60
5, 178608, Note_on_c, 4, 45, 0
5, 178752, Note_on_c, 4, 36, 57
5, 178944, Note_on_c, 4, 36, 0
5, 178944, Note_on_c, 4, 38, 53
5, 179104, Note_on_c, 4, 38, 0
5, 179136, Note_on_c, 4, 40, 49
5, 179184, Note_on_c, 4, 40, 0
5, 179328, Note_on_c, 4, 41, 45
5, 179376, Note_on_c, 4, 41, 0
5, 179520, Note_on_c, 4, 43, 45
5, 179568, Note_on_c, 4, 43, 0
5, 179712, Note_on_c, 4, 45, 45
5, 179760, Note_on_c, 4, 45, 0
5, 179904, Note_on_c, 4, 36, 45
5, 180096, Note_on_c, 4, 36, 0
5, 180096, Note_on_c, 4, 38, 43
5, 180256, Note_on_c, 4, 38, 0
5, 180288, Note_on_c, 4, 40, 41
5, 180336, Note_on_c, 4, 40, 0
5, 180480, Note_on_c, 4, 41, 39
5, 180528, Note_on_c, 4, 41, 0
5, 180672, Note_on_c, 4, 43, 36
5, 180720, Note_on_c, 4, 43, 0
5, 180864, Note_on_c, 4, 45, 33
5, 180912, Note_on_c, 4, 45, 0
5, 181056, Note_on_c, 4, 36, 30
5, 181248, Note_on_c, 4, 36, 0
5, 181248, Note_on_c, 4, 38, 30
5, 181408, Note_on_c, 4, 38, 0
5, 181440, Note_on_c, 4, 40, 30
5, 181488, Note_on_c, 4, 40, 0
5, 181632, Note_on_c, 4, 41, 92
5, 181792, Note_on_c, 4, 41, 0
5, 181824, Note_on_c, 4, 39, 127
5, 182160, Note_on_c, 4, 39, 0
5, 182400, Note_on_c, 4, 39, 89
5, 182736, Note_on_c, 4, 39, 0
5, 182784, Note_on_c, 4, 39, 82
5, 183120, Note_on_c, 4, 39, 0
5, 183168, Note_on_c, 4, 39, 75
5, 183328, Note_on_c, 4, 39, 0
5, 183552, Note_on_c, 4, 39, 69
5, 183888, Note_on_c, 4, 39, 0
5, 183936, Note_on_c, 4, 39, 61
5, 184272, Note_on_c, 4, 39, 0
5, 184320, Note_on_c, 4, 39, 53
5, 184480, Note_on_c, 4, 39, 0
5, 184704, Note_on_c, 4, 39, 45
5, 185040, Note_on_c, 4, 39, 0
5, 185280, Note_on_c, 4, 39, 45
5, 185616, Note_on_c, 4, 39, 0
5, 185856, Note_on_c, 4, 40, 30
5, 186192, Note_on_c, 4, 40, 0
5, 186432, Note_on_c, 4, 36, 30
5, 187152, Note_on_c, 4, 36, 0
5, 187200, Note_on_c, 4, 36, 40
5, 187728, Note_on_c, 4, 36, 0
5, 187776, Note_on_c, 4, 36, 47
5, 188304, Note_on_c, 4, 36, 0
5, 188352, Note_on_c, 4, 36, 54
5, 188880, Note_on_c, 4, 36, 0
5, 188928, Note_on_c, 4, 36, 61
5, 189456, Note_on_c, 4, 36, 0
5, 189504, Note_on_c, 4, 36, 68
5, 190032, Note_on_c, 4, 36, 0
5, 190080, Note_on_c, 4, 36, 77
5, 190608, Note_on_c, 4, 36, 0
5, 190656, Note_on_c, 4, 36, 86
5, 191008, Note_on_c, 4, 36, 0
5, 191040, Note_on_c, 4, 41, 92
5, 191088, Note_on_c, 4, 41, 0
5, 191232, Note_on_c, 4, 43, 92
5, 191584, Note_on_c, 4, 43, 0
5, 191616, Note_on_c, 4, 45, 92
5, 192160, Note_on_c, 4, 45, 0
5, 192192, Note_on_c, 4, 43, 92
5, 192736, Note_on_c, 4, 43, 0
5, 192768, Note_on_c, 4, 41, 92
5, 193312, Note_on_c, 4, 41, 0
5, 193344, Note_on_c, 4, 43, 92
5, 193888, Note_on_c, 4, 43, 0
5, 193920, Note_on_c, 4, 45, 92
5, 194464, Note_on_c, 4, 45, 0
5, 194496, Note_on_c, 4, 43, 62
5, 195040, Note_on_c, 4, 43, 0
5, 195072, Note_on_c, 4, 41, 30
5, 195120, Note_on_c, 4, 41, 0
5, 195264, Note_on_c, 4, 43, 30
5, 195312, Note_on_c, 4, 43, 0
5, 195456, Note_on_c, 4, 41, 30
5, 195504, Note_on_c, 4, 41, 0
5, 196224, Note_on_c, 4, 41, 30
5, 196272, Note_on_c, 4, 41, 0
5, 196416, Note_on_c, 4, 43, 30
5, 196464, Note_on_c, 4, 43, 0
5, 196608, Note_on_c, 4, 41, 30
5, 196656, Note_on_c, 4, 41, 0
5, 197376, Note_on_c, 4, 41, 30
5, 197424, Note_on_c, 4, 41, 0
5, 197568, Note_on_c, 4, 39, 30
5, 197616, Note_on_c, 4, 39, 0
5, 197760, Note_on_c, 4, 38, 30
5, 197808, Note_on_c, 4, 38, 0
5, 197952, Note_on_c, 4, 40, 30
5, 198000, Note_on_c, 4, 40, 0
5, 198144, Note_on_c, 4, 42, 30
5, 198192, Note_on_c, 4, 42, 0
5, 198336, Note_on_c, 4, 43, 30
5, 198496, Note_on_c, 4, 43, 0
5, 198528, Note_on_c, 4, 43, 30
5, 198688, Note_on_c, 4, 43, 0
5, 198720, Note_on_c, 4, 45, 30
5, 198880, Note_on_c, 4, 45, 0
5, 198912, Note_on_c, 4, 46, 30
5, 199072, Note_on_c, 4, 46, 0
5, 199104, Note_on_c, 4, 46, 30
5, 199264, Note_on_c, 4, 46, 0
5, 199296, Note_on_c, 4, 48, 30
5, 199456, Note_on_c, 4, 48, 0
5, 199488, Note_on_c, 4, 41, 30
5, 199648, Note_on_c, 4, 41, 0
5, 200256, Note_on_c, 4, 60, 30
5, 200304, Note_on_c, 4, 60, 0
5, 200448, Note_on_c, 4, 63, 30
5, 200496, Note_on_c, 4, 63, 0
5, 200640, Note_on_c, 4, 62, 30
5, 200800, Note_on_c, 4, 62, 0
5, 201408, Note_on_c, 4, 64, 30
5, 201568, Note_on_c, 4, 64, 0
5, 201600, Note_on_c, 4, 65, 30
5, 201760, Note_on_c, 4, 65, 0
5, 201792, Note_on_c, 4, 60, 30
5, 201952, Note_on_c, 4, 60, 0
5, 202560, Note_on_c, 4, 63, 30
5, 202720, Note_on_c, 4, 63, 0
5, 202752, Note_on_c, 4, 62, 30
5, 202912, Note_on_c, 4, 62, 0
5, 202944, Note_on_c, 4, 62, 30
5, 202992, Note_on_c, 4, 62, 0
5, 203136, Note_on_c, 4, 60, 30
5, 203184, Note_on_c, 4, 60, 0
5, 203328, Note_on_c, 4, 58, 30
5, 203376, Note_on_c, 4, 58, 0
5, 203520, Note_on_c, 4, 57, 30
5, 203712, Note_on_c, 4, 57, 0
5, 203712, Note_on_c, 4, 58, 30
5, 203872, Note_on_c, 4, 58, 0
5, 203904, Note_on_c, 4, 55, 30
5, 203952, Note_on_c, 4, 55, 0
5, 204096, Note_on_c, 4, 57, 30
5, 204144, Note_on_c, 4, 57, 0
5, 204288, Note_on_c, 4, 55, 30
5, 204336, Note_on_c, 4, 55, 0
5, 204480, Note_on_c, 4, 57, 30
5, 204528, Note_on_c, 4, 57, 0
5, 204672, Note_on_c, 4, 58, 30
5, 204864, Note_on_c, 4, 58, 0
5, 204864, Note_on_c, 4, 46, 35
5, 205024, Note_on_c, 4, 46, 0
5, 205056, Note_on_c, 4, 48, 40
5, 205104, Note_on_c, 4, 48, 0
5, 205248, Note_on_c, 4, 48, 45
5, 205296, Note_on_c, 4, 48, 0
5, 205440, Note_on_c, 4, 36, 50
5, 205488, Note_on_c, 4, 36, 0
5, 205632, Note_on_c, 4, 36, 55
5, 205680, Note_on_c, 4, 36, 0
5, 205824, Note_on_c, 4, 36, 60
5, 205984, Note_on_c, 4, 36, 0
5, 206016, Note_on_c, 4, 36, 65
5, 206176, Note_on_c, 4, 36, 0
5, 206208, Note_on_c, 4, 36, 70
5, 206368, Note_on_c, 4, 36, 0
5, 206400, Note_on_c, 4, 36, 75
5, 206592, Note_on_c, 4, 36, 0
5, 206592, Note_on_c, 4, 38, 72
5, 206752, Note_on_c, 4, 38, 0
5, 206784, Note_on_c, 4, 40, 69
5, 206832, Note_on_c, 4, 40, 0
5, 206976, Note_on_c, 4, 41, 66
5, 207024, Note_on_c, 4, 41, 0
5, 207168, Note_on_c, 4, 43, 63
5, 207216, Note_on_c, 4, 43, 0
5, 207360, Note_on_c, 4, 45, 60
5, 207408, Note_on_c, 4, 45, 0
5, 207552, Note_on_c, 4, 36, 57
5, 207744, Note_on_c, 4, 36, 0
5, 207744, Note_on_c, 4, 38, 53
5, 207904, Note_on_c, 4, 38, 0
5, 207936, Note_on_c, 4, 40, 49
5, 207984, Note_on_c, 4, 40, 0
5, 208128, Note_on_c, 4, 41, 45
5, 208176, Note_on_c, 4, 41, 0
5, 208320, Note_on_c, 4, 43, 45
5, 208368, Note_on_c, 4, 43, 0
5, 208512, Note_on_c, 4, 45, 45
5, 208560, Note_on_c, 4, 45, 0
5, 208704, Note_on_c, 4, 36, 45
5, 208896, Note_on_c, 4, 36, 0
5, 208896, Note_on_c, 4, 38, 43
5, 209056, Note_on_c, 4, 38, 0
5, 209088, Note_on_c, 4, 40, 41
5, 209136, Note_on_c, 4, 40, 0
5, 209280, Note_on_c, 4, 41, 39
5, 209328, Note_on_c, 4, 41, 0
5, 209472, Note_on_c, 4, 43, 36
5, 209520, Note_on_c, 4, 43, 0
5, 209664, Note_on_c, 4, 45, 33
5, 209712, Note_on_c, 4, 45, 0
5, 209856, Note_on_c, 4, 36, 30
5, 210048, Note_on_c, 4, 36, 0
5, 210048, Note_on_c, 4, 38, 30
5, 210208, Note_on_c, 4, 38, 0
5, 210240, Note_on_c, 4, 40, 30
5, 210288, Note_on_c, 4, 40, 0
5, 210432, Note_on_c, 4, 41, 45
5, 210592, Note_on_c, 4, 41, 0
5, 210624, Note_on_c, 4, 41, 127
5, 210624, Note_on_c, 4, 45, 127
5, 210960, Note_on_c, 4, 41, 0
5, 210960, Note_on_c, 4, 45, 0
5, 211200, Note_on_c, 4, 41, 77
5, 211200, Note_on_c, 4, 45, 77
5, 211536, Note_on_c, 4, 41, 0
5, 211536, Note_on_c, 4, 45, 0
5, 211584, Note_on_c, 4, 41, 67
5, 211584, Note_on_c, 4, 45, 67
5, 211920, Note_on_c, 4, 41, 0
5, 211920, Note_on_c, 4, 45, 0
5, 211968, Note_on_c, 4, 41, 56
5, 211968, Note_on_c, 4, 45, 56
5, 212128, Note_on_c, 4, 41, 0
5, 212128, Note_on_c, 4, 45, 0
5, 212352, Note_on_c, 4, 65, 45
5, 212688, Note_on_c, 4, 65, 0
5, 212736, Note_on_c, 4, 65, 45
5, 213072, Note_on_c, 4, 65, 0
5, 213120, Note_on_c, 4, 65, 38
5, 213280, Note_on_c, 4, 65, 0
5, 213504, Note_on_c, 4, 65, 30
5, 213840, Note_on_c, 4, 65, 0
5, 213888, Note_on_c, 4, 65, 92
5, 214048, Note_on_c, 4, 65, 0
5, 214048, End_track
0, 0, End_of_file