0, 0, Header, 1, 3, 120
1, 0, Start_track
1, 0, Title_t, "WoO 81 Allemanda in la maggiore"
1, 0, Copyright_t, "Copyright \251 fiorellaearmando@panet.it"
1, 0, Time_signature, 3, 3, 12, 8
1, 0, Key_signature, 3, "major"
1, 0, Tempo, 600000
1, 5760, Key_signature, 0, "major"
1, 11700, Key_signature, 3, "major"
1, 11700, End_track
2, 0, Start_track
2, 0, MIDI_port, 0
2, 0, Title_t, "Piano R"
2, 0, Program_c, 0, 0
2, 0, Control_c, 0, 7, 111
2, 0, Control_c, 0, 10, 42
2, 0, Control_c, 0, 93, 0
2, 0, Control_c, 0, 91, 21
2, 28, Control_c, 0, 91, 40
2, 30, Control_c, 0, 93, 0
2, 31, Control_c, 0, 101, 0
2, 31, Control_c, 0, 100, 0
2, 31, Control_c, 0, 6, 2
2, 32, Control_c, 0, 99, 1
2, 32, Control_c, 0, 98, 8
2, 32, Control_c, 0, 6, 64
2, 33, Control_c, 0, 99, 1
2, 33, Control_c, 0, 98, 9
2, 33, Control_c, 0, 6, 64
2, 35, Control_c, 0, 99, 1
2, 35, Control_c, 0, 98, 10
2, 35, Control_c, 0, 6, 64
2, 36, Control_c, 0, 99, 1
2, 36, Control_c, 0, 98, 32
2, 36, Control_c, 0, 6, 64
2, 37, Control_c, 0, 99, 1
2, 37, Control_c, 0, 98, 33
2, 37, Control_c, 0, 6, 64
2, 38, Control_c, 0, 99, 1
2, 38, Control_c, 0, 98, 99
2, 38, Control_c, 0, 6, 64
2, 40, Control_c, 0, 99, 1
2, 40, Control_c, 0, 98, 100
2, 40, Control_c, 0, 6, 64
2, 41, Control_c, 0, 99, 1
2, 41, Control_c, 0, 98, 102
2, 41, Control_c, 0, 6, 64
2, 180, Note_on_c, 0, 69, 64
2, 210, Note_on_c, 0, 69, 0
2, 210, Note_on_c, 0, 73, 64
2, 240, Note_on_c, 0, 73, 0
2, 240, Note_on_c, 0, 76, 64
2, 270, Note_on_c, 0, 76, 0
2, 270, Note_on_c, 0, 81, 64
2, 300, Note_on_c, 0, 81, 0
2, 300, Note_on_c, 0, 85, 64
2, 330, Note_on_c, 0, 85, 0
2, 330, Note_on_c, 0, 88, 64
2, 360, Note_on_c, 0, 88, 0
2, 360, Note_on_c, 0, 86, 64
2, 390, Note_on_c, 0, 86, 0
2, 390, Note_on_c, 0, 83, 64
2, 420, Note_on_c, 0, 83, 0
2, 420, Note_on_c, 0, 80, 64
2, 450, Note_on_c, 0, 80, 0
2, 450, Note_on_c, 0, 76, 64
2, 480, Note_on_c, 0, 76, 0
2, 480, Note_on_c, 0, 74, 64
2, 510, Note_on_c, 0, 74, 0
2, 510, Note_on_c, 0, 71, 64
2, 540, Note_on_c, 0, 71, 0
2, 540, Note_on_c, 0, 73, 64
2, 570, Note_on_c, 0, 73, 0
2, 570, Note_on_c, 0, 76, 64
2, 600, Note_on_c, 0, 76, 0
2, 600, Note_on_c, 0, 74, 64
2, 630, Note_on_c, 0, 74, 0
2, 630, Note_on_c, 0, 73, 64
2, 660, Note_on_c, 0, 73, 0
2, 660, Note_on_c, 0, 71, 64
2, 690, Note_on_c, 0, 71, 0
2, 690, Note_on_c, 0, 69, 64
2, 720, Note_on_c, 0, 69, 0
2, 720, Note_on_c, 0, 68, 76
2, 750, Note_on_c, 0, 68, 0
2, 750, Note_on_c, 0, 71, 76
2, 780, Note_on_c, 0, 71, 0
2, 780, Note_on_c, 0, 69, 76
2, 810, Note_on_c, 0, 69, 0
2, 810, Note_on_c, 0, 68, 70
2, 840, Note_on_c, 0, 68, 0
2, 840, Note_on_c, 0, 66, 70
2, 870, Note_on_c, 0, 66, 0
2, 870, Note_on_c, 0, 64, 70
2, 900, Note_on_c, 0, 64, 0
2, 900, Note_on_c, 0, 69, 52
2, 930, Note_on_c, 0, 69, 0
2, 930, Note_on_c, 0, 73, 52
2, 960, Note_on_c, 0, 73, 0
2, 960, Note_on_c, 0, 76, 52
2, 990, Note_on_c, 0, 76, 0
2, 990, Note_on_c, 0, 81, 52
2, 1020, Note_on_c, 0, 81, 0
2, 1020, Note_on_c, 0, 85, 52
2, 1050, Note_on_c, 0, 85, 0
2, 1050, Note_on_c, 0, 88, 52
2, 1080, Note_on_c, 0, 88, 0
2, 1080, Note_on_c, 0, 86, 52
2, 1110, Note_on_c, 0, 86, 0
2, 1110, Note_on_c, 0, 83, 52
2, 1140, Note_on_c, 0, 83, 0
2, 1140, Note_on_c, 0, 80, 52
2, 1170, Note_on_c, 0, 80, 0
2, 1170, Note_on_c, 0, 76, 52
2, 1200, Note_on_c, 0, 76, 0
2, 1200, Note_on_c, 0, 74, 52
2, 1230, Note_on_c, 0, 74, 0
2, 1230, Note_on_c, 0, 71, 52
2, 1260, Note_on_c, 0, 71, 0
2, 1260, Note_on_c, 0, 73, 52
2, 1290, Note_on_c, 0, 73, 0
2, 1290, Note_on_c, 0, 76, 52
2, 1320, Note_on_c, 0, 76, 0
2, 1320, Note_on_c, 0, 74, 52
2, 1350, Note_on_c, 0, 74, 0
2, 1350, Note_on_c, 0, 73, 52
2, 1380, Note_on_c, 0, 73, 0
2, 1380, Note_on_c, 0, 71, 52
2, 1410, Note_on_c, 0, 71, 0
2, 1410, Note_on_c, 0, 69, 52
2, 1440, Note_on_c, 0, 69, 0
2, 1440, Note_on_c, 0, 64, 58
2, 1440, Note_on_c, 0, 76, 58
2, 1500, Note_on_c, 0, 64, 0
2, 1500, Note_on_c, 0, 59, 58
2, 1560, Note_on_c, 0, 59, 0
2, 1560, Note_on_c, 0, 62, 58
2, 1620, Note_on_c, 0, 62, 0
2, 1620, Note_on_c, 0, 76, 0
2, 1620, Note_on_c, 0, 69, 64
2, 1650, Note_on_c, 0, 69, 0
2, 1650, Note_on_c, 0, 73, 64
2, 1680, Note_on_c, 0, 73, 0
2, 1680, Note_on_c, 0, 76, 64
2, 1710, Note_on_c, 0, 76, 0
2, 1710, Note_on_c, 0, 81, 64
2, 1740, Note_on_c, 0, 81, 0
2, 1740, Note_on_c, 0, 85, 64
2, 1770, Note_on_c, 0, 85, 0
2, 1770, Note_on_c, 0, 88, 64
2, 1800, Note_on_c, 0, 88, 0
2, 1800, Note_on_c, 0, 86, 64
2, 1830, Note_on_c, 0, 86, 0
2, 1830, Note_on_c, 0, 83, 64
2, 1860, Note_on_c, 0, 83, 0
2, 1860, Note_on_c, 0, 80, 64
2, 1890, Note_on_c, 0, 80, 0
2, 1890, Note_on_c, 0, 76, 64
2, 1920, Note_on_c, 0, 76, 0
2, 1920, Note_on_c, 0, 74, 64
2, 1950, Note_on_c, 0, 74, 0
2, 1950, Note_on_c, 0, 71, 64
2, 1980, Note_on_c, 0, 71, 0
2, 1980, Note_on_c, 0, 73, 64
2, 2010, Note_on_c, 0, 73, 0
2, 2010, Note_on_c, 0, 76, 64
2, 2040, Note_on_c, 0, 76, 0
2, 2040, Note_on_c, 0, 74, 64
2, 2070, Note_on_c, 0, 74, 0
2, 2070, Note_on_c, 0, 73, 64
2, 2100, Note_on_c, 0, 73, 0
2, 2100, Note_on_c, 0, 71, 64
2, 2130, Note_on_c, 0, 71, 0
2, 2130, Note_on_c, 0, 69, 64
2, 2160, Note_on_c, 0, 69, 0
2, 2160, Note_on_c, 0, 68, 76
2, 2190, Note_on_c, 0, 68, 0
2, 2190, Note_on_c, 0, 71, 76
2, 2220, Note_on_c, 0, 71, 0
2, 2220, Note_on_c, 0, 69, 76
2, 2250, Note_on_c, 0, 69, 0
2, 2250, Note_on_c, 0, 68, 70
2, 2280, Note_on_c, 0, 68, 0
2, 2280, Note_on_c, 0, 66, 70
2, 2310, Note_on_c, 0, 66, 0
2, 2310, Note_on_c, 0, 64, 70
2, 2340, Note_on_c, 0, 64, 0
2, 2340, Note_on_c, 0, 69, 52
2, 2370, Note_on_c, 0, 69, 0
2, 2370, Note_on_c, 0, 73, 52
2, 2400, Note_on_c, 0, 73, 0
2, 2400, Note_on_c, 0, 76, 52
2, 2430, Note_on_c, 0, 76, 0
2, 2430, Note_on_c, 0, 81, 52
2, 2460, Note_on_c, 0, 81, 0
2, 2460, Note_on_c, 0, 85, 52
2, 2490, Note_on_c, 0, 85, 0
2, 2490, Note_on_c, 0, 88, 52
2, 2520, Note_on_c, 0, 88, 0
2, 2520, Note_on_c, 0, 86, 52
2, 2550, Note_on_c, 0, 86, 0
2, 2550, Note_on_c, 0, 83, 52
2, 2580, Note_on_c, 0, 83, 0
2, 2580, Note_on_c, 0, 80, 52
2, 2610, Note_on_c, 0, 80, 0
2, 2610, Note_on_c, 0, 76, 52
2, 2640, Note_on_c, 0, 76, 0
2, 2640, Note_on_c, 0, 74, 52
2, 2670, Note_on_c, 0, 74, 0
2, 2670, Note_on_c, 0, 71, 52
2, 2700, Note_on_c, 0, 71, 0
2, 2700, Note_on_c, 0, 73, 52
2, 2730, Note_on_c, 0, 73, 0
2, 2730, Note_on_c, 0, 76, 52
2, 2760, Note_on_c, 0, 76, 0
2, 2760, Note_on_c, 0, 74, 52
2, 2790, Note_on_c, 0, 74, 0
2, 2790, Note_on_c, 0, 73, 52
2, 2820, Note_on_c, 0, 73, 0
2, 2820, Note_on_c, 0, 71, 52
2, 2850, Note_on_c, 0, 71, 0
2, 2850, Note_on_c, 0, 69, 52
2, 2880, Note_on_c, 0, 69, 0
2, 2880, Note_on_c, 0, 76, 58
2, 3000, Note_on_c, 0, 76, 0
2, 3000, Note_on_c, 0, 77, 64
2, 3090, Note_on_c, 0, 77, 0
2, 3090, Note_on_c, 0, 78, 64
2, 3120, Note_on_c, 0, 78, 0
2, 3120, Note_on_c, 0, 73, 64
2, 3150, Note_on_c, 0, 73, 0
2, 3150, Note_on_c, 0, 74, 64
2, 3180, Note_on_c, 0, 74, 0
2, 3180, Note_on_c, 0, 76, 64
2, 3210, Note_on_c, 0, 76, 0
2, 3210, Note_on_c, 0, 73, 64
2, 3240, Note_on_c, 0, 73, 0
2, 3240, Note_on_c, 0, 59, 64
2, 3240, Note_on_c, 0, 62, 64
2, 3240, Note_on_c, 0, 76, 64
2, 3270, Note_on_c, 0, 76, 0
2, 3270, Note_on_c, 0, 74, 64
2, 3300, Note_on_c, 0, 74, 0
2, 3300, Note_on_c, 0, 71, 64
2, 3330, Note_on_c, 0, 71, 0
2, 3330, Note_on_c, 0, 73, 64
2, 3360, Note_on_c, 0, 73, 0
2, 3360, Note_on_c, 0, 74, 64
2, 3390, Note_on_c, 0, 74, 0
2, 3390, Note_on_c, 0, 71, 64
2, 3420, Note_on_c, 0, 71, 0
2, 3420, Note_on_c, 0, 62, 0
2, 3420, Note_on_c, 0, 59, 0
2, 3420, Note_on_c, 0, 75, 64
2, 3450, Note_on_c, 0, 75, 0
2, 3450, Note_on_c, 0, 76, 64
2, 3480, Note_on_c, 0, 76, 0
2, 3480, Note_on_c, 0, 71, 64
2, 3510, Note_on_c, 0, 71, 0
2, 3510, Note_on_c, 0, 73, 64
2, 3540, Note_on_c, 0, 73, 0
2, 3540, Note_on_c, 0, 74, 64
2, 3570, Note_on_c, 0, 74, 0
2, 3570, Note_on_c, 0, 71, 64
2, 3600, Note_on_c, 0, 71, 0
2, 3600, Note_on_c, 0, 74, 64
2, 3630, Note_on_c, 0, 74, 0
2, 3630, Note_on_c, 0, 73, 64
2, 3660, Note_on_c, 0, 73, 0
2, 3660, Note_on_c, 0, 69, 64
2, 3690, Note_on_c, 0, 69, 0
2, 3690, Note_on_c, 0, 71, 64
2, 3720, Note_on_c, 0, 71, 0
2, 3720, Note_on_c, 0, 73, 64
2, 3750, Note_on_c, 0, 73, 0
2, 3750, Note_on_c, 0, 69, 64
2, 3780, Note_on_c, 0, 69, 0
2, 3780, Note_on_c, 0, 74, 70
2, 3810, Note_on_c, 0, 74, 0
2, 3810, Note_on_c, 0, 73, 70
2, 3840, Note_on_c, 0, 73, 0
2, 3840, Note_on_c, 0, 74, 76
2, 3870, Note_on_c, 0, 74, 0
2, 3870, Note_on_c, 0, 76, 76
2, 3900, Note_on_c, 0, 76, 0
2, 3900, Note_on_c, 0, 78, 82
2, 3930, Note_on_c, 0, 78, 0
2, 3930, Note_on_c, 0, 80, 82
2, 3960, Note_on_c, 0, 80, 0
2, 3960, Note_on_c, 0, 81, 88
2, 3990, Note_on_c, 0, 81, 0
2, 3990, Note_on_c, 0, 80, 88
2, 4020, Note_on_c, 0, 80, 0
2, 4020, Note_on_c, 0, 81, 88
2, 4050, Note_on_c, 0, 81, 0
2, 4050, Note_on_c, 0, 76, 88
2, 4080, Note_on_c, 0, 76, 0
2, 4080, Note_on_c, 0, 78, 88
2, 4110, Note_on_c, 0, 78, 0
2, 4110, Note_on_c, 0, 74, 88
2, 4140, Note_on_c, 0, 74, 0
2, 4140, Note_on_c, 0, 73, 64
2, 4170, Note_on_c, 0, 73, 0
2, 4170, Note_on_c, 0, 72, 64
2, 4200, Note_on_c, 0, 72, 0
2, 4200, Note_on_c, 0, 73, 64
2, 4230, Note_on_c, 0, 73, 0
2, 4230, Note_on_c, 0, 76, 64
2, 4260, Note_on_c, 0, 76, 0
2, 4260, Note_on_c, 0, 74, 64
2, 4290, Note_on_c, 0, 74, 0
2, 4290, Note_on_c, 0, 71, 64
2, 4320, Note_on_c, 0, 71, 0
2, 4320, Note_on_c, 0, 69, 64
2, 4350, Note_on_c, 0, 69, 0
2, 4350, Note_on_c, 0, 71, 64
2, 4380, Note_on_c, 0, 71, 0
2, 4380, Note_on_c, 0, 73, 64
2, 4410, Note_on_c, 0, 73, 0
2, 4410, Note_on_c, 0, 74, 64
2, 4440, Note_on_c, 0, 74, 0
2, 4440, Note_on_c, 0, 76, 64
2, 4470, Note_on_c, 0, 76, 0
2, 4470, Note_on_c, 0, 77, 64
2, 4530, Note_on_c, 0, 77, 0
2, 4530, Note_on_c, 0, 78, 64
2, 4560, Note_on_c, 0, 78, 0
2, 4560, Note_on_c, 0, 73, 64
2, 4590, Note_on_c, 0, 73, 0
2, 4590, Note_on_c, 0, 74, 64
2, 4620, Note_on_c, 0, 74, 0
2, 4620, Note_on_c, 0, 76, 64
2, 4650, Note_on_c, 0, 76, 0
2, 4650, Note_on_c, 0, 73, 64
2, 4680, Note_on_c, 0, 73, 0
2, 4680, Note_on_c, 0, 76, 64
2, 4710, Note_on_c, 0, 76, 0
2, 4710, Note_on_c, 0, 74, 64
2, 4740, Note_on_c, 0, 74, 0
2, 4740, Note_on_c, 0, 71, 64
2, 4770, Note_on_c, 0, 71, 0
2, 4770, Note_on_c, 0, 73, 64
2, 4800, Note_on_c, 0, 73, 0
2, 4800, Note_on_c, 0, 74, 64
2, 4830, Note_on_c, 0, 74, 0
2, 4830, Note_on_c, 0, 71, 64
2, 4860, Note_on_c, 0, 71, 0
2, 4860, Note_on_c, 0, 75, 64
2, 4890, Note_on_c, 0, 75, 0
2, 4890, Note_on_c, 0, 76, 64
2, 4920, Note_on_c, 0, 76, 0
2, 4920, Note_on_c, 0, 71, 64
2, 4950, Note_on_c, 0, 71, 0
2, 4950, Note_on_c, 0, 73, 64
2, 4980, Note_on_c, 0, 73, 0
2, 4980, Note_on_c, 0, 74, 64
2, 5010, Note_on_c, 0, 74, 0
2, 5010, Note_on_c, 0, 71, 64
2, 5040, Note_on_c, 0, 71, 0
2, 5040, Note_on_c, 0, 74, 64
2, 5070, Note_on_c, 0, 74, 0
2, 5070, Note_on_c, 0, 73, 64
2, 5100, Note_on_c, 0, 73, 0
2, 5100, Note_on_c, 0, 69, 64
2, 5130, Note_on_c, 0, 69, 0
2, 5130, Note_on_c, 0, 71, 64
2, 5160, Note_on_c, 0, 71, 0
2, 5160, Note_on_c, 0, 73, 64
2, 5190, Note_on_c, 0, 73, 0
2, 5190, Note_on_c, 0, 69, 64
2, 5220, Note_on_c, 0, 69, 0
2, 5220, Note_on_c, 0, 74, 70
2, 5250, Note_on_c, 0, 74, 0
2, 5250, Note_on_c, 0, 73, 70
2, 5280, Note_on_c, 0, 73, 0
2, 5280, Note_on_c, 0, 74, 76
2, 5310, Note_on_c, 0, 74, 0
2, 5310, Note_on_c, 0, 76, 76
2, 5340, Note_on_c, 0, 76, 0
2, 5340, Note_on_c, 0, 78, 82
2, 5370, Note_on_c, 0, 78, 0
2, 5370, Note_on_c, 0, 80, 82
2, 5400, Note_on_c, 0, 80, 0
2, 5400, Note_on_c, 0, 81, 88
2, 5430, Note_on_c, 0, 81, 0
2, 5430, Note_on_c, 0, 80, 88
2, 5460, Note_on_c, 0, 80, 0
2, 5460, Note_on_c, 0, 81, 88
2, 5490, Note_on_c, 0, 81, 0
2, 5490, Note_on_c, 0, 76, 88
2, 5520, Note_on_c, 0, 76, 0
2, 5520, Note_on_c, 0, 78, 88
2, 5550, Note_on_c, 0, 78, 0
2, 5550, Note_on_c, 0, 74, 88
2, 5580, Note_on_c, 0, 74, 0
2, 5580, Note_on_c, 0, 73, 64
2, 5610, Note_on_c, 0, 73, 0
2, 5610, Note_on_c, 0, 72, 64
2, 5640, Note_on_c, 0, 72, 0
2, 5640, Note_on_c, 0, 73, 64
2, 5670, Note_on_c, 0, 73, 0
2, 5670, Note_on_c, 0, 76, 64
2, 5700, Note_on_c, 0, 76, 0
2, 5700, Note_on_c, 0, 74, 64
2, 5730, Note_on_c, 0, 74, 0
2, 5730, Note_on_c, 0, 71, 64
2, 5760, Note_on_c, 0, 71, 0
2, 5760, Note_on_c, 0, 69, 64
2, 5880, Note_on_c, 0, 69, 0
2, 5880, Note_on_c, 0, 76, 64
2, 5940, Note_on_c, 0, 76, 0
2, 5940, Note_on_c, 0, 77, 64
2, 5970, Note_on_c, 0, 77, 0
2, 5970, Note_on_c, 0, 76, 64
2, 6000, Note_on_c, 0, 76, 0
2, 6000, Note_on_c, 0, 72, 64
2, 6060, Note_on_c, 0, 72, 0
2, 6060, Note_on_c, 0, 76, 64
2, 6120, Note_on_c, 0, 76, 0
2, 6120, Note_on_c, 0, 77, 64
2, 6150, Note_on_c, 0, 77, 0
2, 6150, Note_on_c, 0, 76, 64
2, 6180, Note_on_c, 0, 76, 0
2, 6180, Note_on_c, 0, 71, 64
2, 6240, Note_on_c, 0, 71, 0
2, 6240, Note_on_c, 0, 76, 64
2, 6300, Note_on_c, 0, 76, 0
2, 6300, Note_on_c, 0, 76, 64
2, 6420, Note_on_c, 0, 76, 0
2, 6420, Note_on_c, 0, 68, 64
2, 6480, Note_on_c, 0, 68, 0
2, 6480, Note_on_c, 0, 69, 64
2, 6540, Note_on_c, 0, 69, 0
2, 6600, Note_on_c, 0, 76, 64
2, 6660, Note_on_c, 0, 76, 0
2, 6660, Note_on_c, 0, 77, 64
2, 6690, Note_on_c, 0, 77, 0
2, 6690, Note_on_c, 0, 76, 64
2, 6720, Note_on_c, 0, 76, 0
2, 6720, Note_on_c, 0, 72, 64
2, 6780, Note_on_c, 0, 72, 0
2, 6780, Note_on_c, 0, 76, 64
2, 6840, Note_on_c, 0, 76, 0
2, 6840, Note_on_c, 0, 77, 64
2, 6870, Note_on_c, 0, 77, 0
2, 6870, Note_on_c, 0, 76, 64
2, 6900, Note_on_c, 0, 76, 0
2, 6900, Note_on_c, 0, 71, 64
2, 6960, Note_on_c, 0, 71, 0
2, 6960, Note_on_c, 0, 76, 64
2, 7020, Note_on_c, 0, 76, 0
2, 7020, Note_on_c, 0, 76, 114
2, 7140, Note_on_c, 0, 76, 0
2, 7140, Note_on_c, 0, 68, 64
2, 7200, Note_on_c, 0, 68, 0
2, 7200, Note_on_c, 0, 69, 64
2, 7320, Note_on_c, 0, 69, 0
2, 7320, Note_on_c, 0, 76, 64
2, 7380, Note_on_c, 0, 76, 0
2, 7380, Note_on_c, 0, 77, 64
2, 7410, Note_on_c, 0, 77, 0
2, 7410, Note_on_c, 0, 76, 64
2, 7440, Note_on_c, 0, 76, 0
2, 7440, Note_on_c, 0, 72, 64
2, 7500, Note_on_c, 0, 72, 0
2, 7500, Note_on_c, 0, 76, 64
2, 7560, Note_on_c, 0, 76, 0
2, 7560, Note_on_c, 0, 77, 64
2, 7590, Note_on_c, 0, 77, 0
2, 7590, Note_on_c, 0, 76, 64
2, 7620, Note_on_c, 0, 76, 0
2, 7620, Note_on_c, 0, 71, 64
2, 7680, Note_on_c, 0, 71, 0
2, 7680, Note_on_c, 0, 76, 64
2, 7740, Note_on_c, 0, 76, 0
2, 7740, Note_on_c, 0, 76, 124
2, 7860, Note_on_c, 0, 76, 0
2, 7860, Note_on_c, 0, 68, 94
2, 7920, Note_on_c, 0, 68, 0
2, 7920, Note_on_c, 0, 69, 64
2, 7980, Note_on_c, 0, 69, 0
2, 8040, Note_on_c, 0, 76, 64
2, 8100, Note_on_c, 0, 76, 0
2, 8100, Note_on_c, 0, 77, 64
2, 8130, Note_on_c, 0, 77, 0
2, 8130, Note_on_c, 0, 76, 64
2, 8160, Note_on_c, 0, 76, 0
2, 8160, Note_on_c, 0, 72, 64
2, 8220, Note_on_c, 0, 72, 0
2, 8220, Note_on_c, 0, 76, 64
2, 8280, Note_on_c, 0, 76, 0
2, 8280, Note_on_c, 0, 77, 64
2, 8310, Note_on_c, 0, 77, 0
2, 8310, Note_on_c, 0, 76, 64
2, 8340, Note_on_c, 0, 76, 0
2, 8340, Note_on_c, 0, 71, 64
2, 8400, Note_on_c, 0, 71, 0
2, 8400, Note_on_c, 0, 76, 64
2, 8460, Note_on_c, 0, 76, 0
2, 8460, Note_on_c, 0, 76, 64
2, 8580, Note_on_c, 0, 76, 0
2, 8580, Note_on_c, 0, 68, 64
2, 8640, Note_on_c, 0, 68, 0
2, 8640, Note_on_c, 0, 69, 64
2, 8760, Note_on_c, 0, 69, 0
2, 8760, Note_on_c, 0, 64, 64
2, 8820, Note_on_c, 0, 64, 0
2, 8820, Note_on_c, 0, 64, 64
2, 8820, Note_on_c, 0, 72, 64
2, 8880, Note_on_c, 0, 72, 0
2, 8880, Note_on_c, 0, 69, 64
2, 8940, Note_on_c, 0, 69, 0
2, 8940, Note_on_c, 0, 64, 0
2, 8940, Note_on_c, 0, 64, 64
2, 8940, Note_on_c, 0, 68, 64
2, 9000, Note_on_c, 0, 68, 0
2, 9000, Note_on_c, 0, 64, 0
2, 9000, Note_on_c, 0, 72, 64
2, 9000, Note_on_c, 0, 64, 64
2, 9060, Note_on_c, 0, 72, 0
2, 9060, Note_on_c, 0, 69, 64
2, 9120, Note_on_c, 0, 69, 0
2, 9120, Note_on_c, 0, 64, 0
2, 9120, Note_on_c, 0, 68, 64
2, 9120, Note_on_c, 0, 64, 64
2, 9180, Note_on_c, 0, 64, 0
2, 9180, Note_on_c, 0, 68, 0
2, 9180, Note_on_c, 0, 72, 64
2, 9180, Note_on_c, 0, 64, 64
2, 9240, Note_on_c, 0, 72, 0
2, 9240, Note_on_c, 0, 69, 64
2, 9300, Note_on_c, 0, 69, 0
2, 9300, Note_on_c, 0, 64, 0
2, 9300, Note_on_c, 0, 64, 64
2, 9300, Note_on_c, 0, 68, 64
2, 9360, Note_on_c, 0, 68, 0
2, 9360, Note_on_c, 0, 64, 0
2, 9360, Note_on_c, 0, 64, 64
2, 9420, Note_on_c, 0, 64, 0
2, 9420, Note_on_c, 0, 68, 64
2, 9450, Note_on_c, 0, 68, 0
2, 9450, Note_on_c, 0, 71, 64
2, 9480, Note_on_c, 0, 71, 0
2, 9480, Note_on_c, 0, 76, 64
2, 9540, Note_on_c, 0, 76, 0
2, 9540, Note_on_c, 0, 64, 64
2, 9540, Note_on_c, 0, 72, 64
2, 9600, Note_on_c, 0, 72, 0
2, 9600, Note_on_c, 0, 69, 64
2, 9660, Note_on_c, 0, 69, 0
2, 9660, Note_on_c, 0, 64, 0
2, 9660, Note_on_c, 0, 64, 64
2, 9660, Note_on_c, 0, 68, 64
2, 9720, Note_on_c, 0, 68, 0
2, 9720, Note_on_c, 0, 64, 0
2, 9720, Note_on_c, 0, 72, 64
2, 9720, Note_on_c, 0, 64, 64
2, 9780, Note_on_c, 0, 72, 0
2, 9780, Note_on_c, 0, 69, 64
2, 9840, Note_on_c, 0, 69, 0
2, 9840, Note_on_c, 0, 64, 0
2, 9840, Note_on_c, 0, 68, 64
2, 9840, Note_on_c, 0, 64, 64
2, 9900, Note_on_c, 0, 64, 0
2, 9900, Note_on_c, 0, 68, 0
2, 9900, Note_on_c, 0, 72, 64
2, 9900, Note_on_c, 0, 64, 64
2, 9960, Note_on_c, 0, 72, 0
2, 9960, Note_on_c, 0, 69, 64
2, 10020, Note_on_c, 0, 69, 0
2, 10020, Note_on_c, 0, 64, 0
2, 10020, Note_on_c, 0, 64, 64
2, 10020, Note_on_c, 0, 68, 64
2, 10080, Note_on_c, 0, 68, 0
2, 10080, Note_on_c, 0, 64, 0
2, 10080, Note_on_c, 0, 69, 64
2, 10140, Note_on_c, 0, 69, 0
2, 10140, Note_on_c, 0, 72, 64
2, 10170, Note_on_c, 0, 72, 0
2, 10170, Note_on_c, 0, 76, 64
2, 10200, Note_on_c, 0, 76, 0
2, 10200, Note_on_c, 0, 81, 64
2, 10260, Note_on_c, 0, 81, 0
2, 10260, Note_on_c, 0, 72, 64
2, 10260, Note_on_c, 0, 64, 64
2, 10320, Note_on_c, 0, 72, 0
2, 10320, Note_on_c, 0, 69, 64
2, 10380, Note_on_c, 0, 69, 0
2, 10380, Note_on_c, 0, 64, 0
2, 10380, Note_on_c, 0, 68, 64
2, 10380, Note_on_c, 0, 64, 64
2, 10440, Note_on_c, 0, 64, 0
2, 10440, Note_on_c, 0, 68, 0
2, 10440, Note_on_c, 0, 72, 64
2, 10440, Note_on_c, 0, 64, 64
2, 10500, Note_on_c, 0, 72, 0
2, 10500, Note_on_c, 0, 69, 64
2, 10560, Note_on_c, 0, 69, 0
2, 10560, Note_on_c, 0, 64, 0
2, 10560, Note_on_c, 0, 68, 64
2, 10560, Note_on_c, 0, 64, 64
2, 10620, Note_on_c, 0, 64, 0
2, 10620, Note_on_c, 0, 68, 0
2, 10620, Note_on_c, 0, 64, 64
2, 10620, Note_on_c, 0, 72, 64
2, 10680, Note_on_c, 0, 72, 0
2, 10680, Note_on_c, 0, 69, 64
2, 10740, Note_on_c, 0, 69, 0
2, 10740, Note_on_c, 0, 64, 0
2, 10740, Note_on_c, 0, 68, 64
2, 10740, Note_on_c, 0, 64, 64
2, 10800, Note_on_c, 0, 64, 0
2, 10800, Note_on_c, 0, 68, 0
2, 10800, Note_on_c, 0, 64, 64
2, 10860, Note_on_c, 0, 64, 0
2, 10860, Note_on_c, 0, 68, 64
2, 10890, Note_on_c, 0, 68, 0
2, 10890, Note_on_c, 0, 71, 64
2, 10920, Note_on_c, 0, 71, 0
2, 10920, Note_on_c, 0, 76, 64
2, 10980, Note_on_c, 0, 76, 0
2, 10980, Note_on_c, 0, 64, 64
2, 10980, Note_on_c, 0, 72, 64
2, 11040, Note_on_c, 0, 72, 0
2, 11040, Note_on_c, 0, 69, 64
2, 11100, Note_on_c, 0, 69, 0
2, 11100, Note_on_c, 0, 64, 0
2, 11100, Note_on_c, 0, 64, 64
2, 11100, Note_on_c, 0, 68, 64
2, 11160, Note_on_c, 0, 68, 0
2, 11160, Note_on_c, 0, 64, 0
2, 11160, Note_on_c, 0, 72, 64
2, 11160, Note_on_c, 0, 64, 64
2, 11220, Note_on_c, 0, 72, 0
2, 11220, Note_on_c, 0, 69, 64
2, 11280, Note_on_c, 0, 69, 0
2, 11280, Note_on_c, 0, 64, 0
2, 11280, Note_on_c, 0, 68, 64
2, 11280, Note_on_c, 0, 64, 64
2, 11340, Note_on_c, 0, 64, 0
2, 11340, Note_on_c, 0, 68, 0
2, 11340, Note_on_c, 0, 72, 64
2, 11340, Note_on_c, 0, 64, 64
2, 11400, Note_on_c, 0, 72, 0
2, 11400, Note_on_c, 0, 69, 64
2, 11460, Note_on_c, 0, 69, 0
2, 11460, Note_on_c, 0, 64, 0
2, 11460, Note_on_c, 0, 64, 64
2, 11460, Note_on_c, 0, 68, 64
2, 11520, Note_on_c, 0, 68, 0
2, 11520, Note_on_c, 0, 64, 0
2, 11520, Note_on_c, 0, 69, 64
2, 11580, Note_on_c, 0, 69, 0
2, 11580, Note_on_c, 0, 72, 64
2, 11610, Note_on_c, 0, 72, 0
2, 11610, Note_on_c, 0, 76, 64
2, 11640, Note_on_c, 0, 76, 0
2, 11640, Note_on_c, 0, 81, 64
2, 11700, Note_on_c, 0, 81, 0
2, 11700, Note_on_c, 0, 69, 64
2, 11730, Note_on_c, 0, 69, 0
2, 11730, Note_on_c, 0, 73, 64
2, 11760, Note_on_c, 0, 73, 0
2, 11760, Note_on_c, 0, 76, 64
2, 11790, Note_on_c, 0, 76, 0
2, 11790, Note_on_c, 0, 81, 64
2, 11820, Note_on_c, 0, 81, 0
2, 11820, Note_on_c, 0, 85, 64
2, 11850, Note_on_c, 0, 85, 0
2, 11850, Note_on_c, 0, 88, 64
2, 11880, Note_on_c, 0, 88, 0
2, 11880, Note_on_c, 0, 86, 64
2, 11910, Note_on_c, 0, 86, 0
2, 11910, Note_on_c, 0, 83, 64
2, 11940, Note_on_c, 0, 83, 0
2, 11940, Note_on_c, 0, 80, 64
2, 11970, Note_on_c, 0, 80, 0
2, 11970, Note_on_c, 0, 76, 64
2, 12000, Note_on_c, 0, 76, 0
2, 12000, Note_on_c, 0, 74, 64
2, 12030, Note_on_c, 0, 74, 0
2, 12030, Note_on_c, 0, 71, 64
2, 12060, Note_on_c, 0, 71, 0
2, 12060, Note_on_c, 0, 73, 64
2, 12090, Note_on_c, 0, 73, 0
2, 12090, Note_on_c, 0, 76, 64
2, 12120, Note_on_c, 0, 76, 0
2, 12120, Note_on_c, 0, 74, 64
2, 12150, Note_on_c, 0, 74, 0
2, 12150, Note_on_c, 0, 73, 64
2, 12180, Note_on_c, 0, 73, 0
2, 12180, Note_on_c, 0, 71, 64
2, 12210, Note_on_c, 0, 71, 0
2, 12210, Note_on_c, 0, 69, 64
2, 12240, Note_on_c, 0, 69, 0
2, 12240, Note_on_c, 0, 68, 76
2, 12270, Note_on_c, 0, 68, 0
2, 12270, Note_on_c, 0, 71, 76
2, 12300, Note_on_c, 0, 71, 0
2, 12300, Note_on_c, 0, 69, 76
2, 12330, Note_on_c, 0, 69, 0
2, 12330, Note_on_c, 0, 68, 70
2, 12360, Note_on_c, 0, 68, 0
2, 12360, Note_on_c, 0, 66, 70
2, 12390, Note_on_c, 0, 66, 0
2, 12390, Note_on_c, 0, 64, 70
2, 12420, Note_on_c, 0, 64, 0
2, 12420, Note_on_c, 0, 69, 52
2, 12450, Note_on_c, 0, 69, 0
2, 12450, Note_on_c, 0, 73, 52
2, 12480, Note_on_c, 0, 73, 0
2, 12480, Note_on_c, 0, 76, 52
2, 12510, Note_on_c, 0, 76, 0
2, 12510, Note_on_c, 0, 81, 52
2, 12540, Note_on_c, 0, 81, 0
2, 12540, Note_on_c, 0, 85, 52
2, 12570, Note_on_c, 0, 85, 0
2, 12570, Note_on_c, 0, 88, 52
2, 12600, Note_on_c, 0, 88, 0
2, 12600, Note_on_c, 0, 86, 52
2, 12630, Note_on_c, 0, 86, 0
2, 12630, Note_on_c, 0, 83, 52
2, 12660, Note_on_c, 0, 83, 0
2, 12660, Note_on_c, 0, 80, 52
2, 12690, Note_on_c, 0, 80, 0
2, 12690, Note_on_c, 0, 76, 52
2, 12720, Note_on_c, 0, 76, 0
2, 12720, Note_on_c, 0, 74, 52
2, 12750, Note_on_c, 0, 74, 0
2, 12750, Note_on_c, 0, 71, 52
2, 12780, Note_on_c, 0, 71, 0
2, 12780, Note_on_c, 0, 73, 52
2, 12810, Note_on_c, 0, 73, 0
2, 12810, Note_on_c, 0, 76, 52
2, 12840, Note_on_c, 0, 76, 0
2, 12840, Note_on_c, 0, 74, 52
2, 12870, Note_on_c, 0, 74, 0
2, 12870, Note_on_c, 0, 73, 52
2, 12900, Note_on_c, 0, 73, 0
2, 12900, Note_on_c, 0, 71, 52
2, 12930, Note_on_c, 0, 71, 0
2, 12930, Note_on_c, 0, 69, 52
2, 12960, Note_on_c, 0, 69, 0
2, 12960, Note_on_c, 0, 76, 58
2, 13080, Note_on_c, 0, 76, 0
2, 13080, Note_on_c, 0, 77, 64
2, 13170, Note_on_c, 0, 77, 0
2, 13170, Note_on_c, 0, 78, 64
2, 13200, Note_on_c, 0, 78, 0
2, 13200, Note_on_c, 0, 73, 64
2, 13230, Note_on_c, 0, 73, 0
2, 13230, Note_on_c, 0, 74, 64
2, 13260, Note_on_c, 0, 74, 0
2, 13260, Note_on_c, 0, 76, 64
2, 13290, Note_on_c, 0, 76, 0
2, 13290, Note_on_c, 0, 73, 64
2, 13320, Note_on_c, 0, 73, 0
2, 13320, Note_on_c, 0, 76, 64
2, 13350, Note_on_c, 0, 76, 0
2, 13350, Note_on_c, 0, 74, 64
2, 13380, Note_on_c, 0, 74, 0
2, 13380, Note_on_c, 0, 71, 64
2, 13410, Note_on_c, 0, 71, 0
2, 13410, Note_on_c, 0, 73, 64
2, 13440, Note_on_c, 0, 73, 0
2, 13440, Note_on_c, 0, 74, 64
2, 13470, Note_on_c, 0, 74, 0
2, 13470, Note_on_c, 0, 71, 64
2, 13500, Note_on_c, 0, 71, 0
2, 13500, Note_on_c, 0, 75, 64
2, 13530, Note_on_c, 0, 75, 0
2, 13530, Note_on_c, 0, 76, 64
2, 13560, Note_on_c, 0, 76, 0
2, 13560, Note_on_c, 0, 71, 64
2, 13590, Note_on_c, 0, 71, 0
2, 13590, Note_on_c, 0, 73, 64
2, 13620, Note_on_c, 0, 73, 0
2, 13620, Note_on_c, 0, 74, 64
2, 13650, Note_on_c, 0, 74, 0
2, 13650, Note_on_c, 0, 71, 64
2, 13680, Note_on_c, 0, 71, 0
2, 13680, Note_on_c, 0, 74, 64
2, 13710, Note_on_c, 0, 74, 0
2, 13710, Note_on_c, 0, 73, 64
2, 13740, Note_on_c, 0, 73, 0
2, 13740, Note_on_c, 0, 69, 64
2, 13770, Note_on_c, 0, 69, 0
2, 13770, Note_on_c, 0, 71, 64
2, 13800, Note_on_c, 0, 71, 0
2, 13800, Note_on_c, 0, 73, 64
2, 13830, Note_on_c, 0, 73, 0
2, 13830, Note_on_c, 0, 69, 64
2, 13860, Note_on_c, 0, 69, 0
2, 13860, Note_on_c, 0, 74, 64
2, 13890, Note_on_c, 0, 74, 0
2, 13890, Note_on_c, 0, 73, 64
2, 13920, Note_on_c, 0, 73, 0
2, 13920, Note_on_c, 0, 74, 64
2, 13950, Note_on_c, 0, 74, 0
2, 13950, Note_on_c, 0, 76, 64
2, 13980, Note_on_c, 0, 76, 0
2, 13980, Note_on_c, 0, 78, 64
2, 14010, Note_on_c, 0, 78, 0
2, 14010, Note_on_c, 0, 80, 64
2, 14040, Note_on_c, 0, 80, 0
2, 14040, Note_on_c, 0, 81, 52
2, 14070, Note_on_c, 0, 81, 0
2, 14070, Note_on_c, 0, 80, 52
2, 14100, Note_on_c, 0, 80, 0
2, 14100, Note_on_c, 0, 81, 52
2, 14130, Note_on_c, 0, 81, 0
2, 14130, Note_on_c, 0, 76, 52
2, 14160, Note_on_c, 0, 76, 0
2, 14160, Note_on_c, 0, 78, 52
2, 14190, Note_on_c, 0, 78, 0
2, 14190, Note_on_c, 0, 74, 52
2, 14220, Note_on_c, 0, 74, 0
2, 14220, Note_on_c, 0, 73, 46
2, 14250, Note_on_c, 0, 73, 0
2, 14250, Note_on_c, 0, 72, 46
2, 14280, Note_on_c, 0, 72, 0
2, 14280, Note_on_c, 0, 73, 46
2, 14310, Note_on_c, 0, 73, 0
2, 14310, Note_on_c, 0, 76, 46
2, 14340, Note_on_c, 0, 76, 0
2, 14340, Note_on_c, 0, 74, 46
2, 14370, Note_on_c, 0, 74, 0
2, 14370, Note_on_c, 0, 71, 46
2, 14400, Note_on_c, 0, 71, 0
2, 14400, Note_on_c, 0, 69, 40
2, 14580, Note_on_c, 0, 69, 0
2, 14580, End_track
3, 0, Start_track
3, 0, MIDI_port, 0
3, 0, Title_t, "Piano L"
3, 0, Program_c, 1, 0
3, 0, Control_c, 1, 7, 100
3, 0, Control_c, 1, 10, 87
3, 0, Control_c, 1, 93, 10
3, 0, Control_c, 1, 91, 21
3, 180, Note_on_c, 1, 61, 64
3, 180, Note_on_c, 1, 57, 64
3, 300, Note_on_c, 1, 61, 0
3, 300, Note_on_c, 1, 64, 64
3, 360, Note_on_c, 1, 64, 0
3, 360, Note_on_c, 1, 57, 0
3, 360, Note_on_c, 1, 64, 64
3, 360, Note_on_c, 1, 56, 64
3, 540, Note_on_c, 1, 56, 0
3, 540, Note_on_c, 1, 64, 0
3, 540, Note_on_c, 1, 64, 64
3, 540, Note_on_c, 1, 57, 64
3, 720, Note_on_c, 1, 57, 0
3, 720, Note_on_c, 1, 64, 0
3, 720, Note_on_c, 1, 64, 100
3, 720, Note_on_c, 1, 52, 76
3, 840, Note_on_c, 1, 64, 0
3, 840, Note_on_c, 1, 62, 100
3, 900, Note_on_c, 1, 62, 0
3, 900, Note_on_c, 1, 52, 0
3, 900, Note_on_c, 1, 61, 52
3, 900, Note_on_c, 1, 57, 52
3, 1020, Note_on_c, 1, 61, 0
3, 1020, Note_on_c, 1, 64, 52
3, 1080, Note_on_c, 1, 64, 0
3, 1080, Note_on_c, 1, 57, 0
3, 1080, Note_on_c, 1, 64, 52
3, 1080, Note_on_c, 1, 56, 52
3, 1260, Note_on_c, 1, 56, 0
3, 1260, Note_on_c, 1, 64, 0
3, 1260, Note_on_c, 1, 64, 52
3, 1260, Note_on_c, 1, 57, 52
3, 1440, Note_on_c, 1, 57, 0
3, 1440, Note_on_c, 1, 64, 0
3, 1440, Note_on_c, 1, 52, 58
3, 1620, Note_on_c, 1, 52, 0
3, 1620, Note_on_c, 1, 61, 64
3, 1620, Note_on_c, 1, 57, 64
3, 1740, Note_on_c, 1, 61, 0
3, 1740, Note_on_c, 1, 64, 64
3, 1800, Note_on_c, 1, 64, 0
3, 1800, Note_on_c, 1, 57, 0
3, 1800, Note_on_c, 1, 64, 64
3, 1800, Note_on_c, 1, 56, 64
3, 1980, Note_on_c, 1, 56, 0
3, 1980, Note_on_c, 1, 64, 0
3, 1980, Note_on_c, 1, 64, 64
3, 1980, Note_on_c, 1, 57, 64
3, 2160, Note_on_c, 1, 57, 0
3, 2160, Note_on_c, 1, 64, 0
3, 2160, Note_on_c, 1, 64, 100
3, 2160, Note_on_c, 1, 52, 76
3, 2280, Note_on_c, 1, 64, 0
3, 2280, Note_on_c, 1, 62, 100
3, 2340, Note_on_c, 1, 62, 0
3, 2340, Note_on_c, 1, 52, 0
3, 2340, Note_on_c, 1, 61, 100
3, 2340, Note_on_c, 1, 57, 52
3, 2460, Note_on_c, 1, 61, 0
3, 2460, Note_on_c, 1, 64, 100
3, 2520, Note_on_c, 1, 64, 0
3, 2520, Note_on_c, 1, 57, 0
3, 2520, Note_on_c, 1, 64, 52
3, 2520, Note_on_c, 1, 56, 52
3, 2700, Note_on_c, 1, 56, 0
3, 2700, Note_on_c, 1, 64, 0
3, 2700, Note_on_c, 1, 64, 52
3, 2700, Note_on_c, 1, 57, 52
3, 2880, Note_on_c, 1, 57, 0
3, 2880, Note_on_c, 1, 64, 0
3, 2880, Note_on_c, 1, 64, 100
3, 2880, Note_on_c, 1, 52, 58
3, 2940, Note_on_c, 1, 52, 0
3, 2940, Note_on_c, 1, 64, 0
3, 2940, Note_on_c, 1, 64, 100
3, 2940, Note_on_c, 1, 61, 100
3, 3000, Note_on_c, 1, 61, 0
3, 3000, Note_on_c, 1, 64, 0
3, 3000, Note_on_c, 1, 62, 100
3, 3000, Note_on_c, 1, 59, 64
3, 3060, Note_on_c, 1, 59, 0
3, 3060, Note_on_c, 1, 62, 0
3, 3060, Note_on_c, 1, 58, 64
3, 3240, Note_on_c, 1, 58, 0
3, 3240, Note_on_c, 1, 59, 64
3, 3420, Note_on_c, 1, 59, 0
3, 3420, Note_on_c, 1, 56, 64
3, 3420, Note_on_c, 1, 59, 64
3, 3600, Note_on_c, 1, 59, 0
3, 3600, Note_on_c, 1, 56, 0
3, 3600, Note_on_c, 1, 61, 64
3, 3600, Note_on_c, 1, 57, 64
3, 3780, Note_on_c, 1, 57, 0
3, 3780, Note_on_c, 1, 61, 0
3, 3780, Note_on_c, 1, 54, 70
3, 3780, Note_on_c, 1, 57, 70
3, 3900, Note_on_c, 1, 54, 0
3, 3900, Note_on_c, 1, 50, 82
3, 3960, Note_on_c, 1, 50, 0
3, 3960, Note_on_c, 1, 49, 88
3, 4080, Note_on_c, 1, 49, 0
3, 4080, Note_on_c, 1, 50, 88
3, 4140, Note_on_c, 1, 50, 0
3, 4140, Note_on_c, 1, 57, 0
3, 4140, Note_on_c, 1, 52, 64
3, 4140, Note_on_c, 1, 57, 64
3, 4260, Note_on_c, 1, 57, 0
3, 4260, Note_on_c, 1, 56, 64
3, 4320, Note_on_c, 1, 56, 0
3, 4320, Note_on_c, 1, 52, 0
3, 4320, Note_on_c, 1, 61, 100
3, 4320, Note_on_c, 1, 57, 64
3, 4350, Note_on_c, 1, 61, 0
3, 4350, Note_on_c, 1, 62, 100
3, 4380, Note_on_c, 1, 62, 0
3, 4380, Note_on_c, 1, 64, 100
3, 4410, Note_on_c, 1, 64, 0
3, 4410, Note_on_c, 1, 62, 100
3, 4440, Note_on_c, 1, 62, 0
3, 4440, Note_on_c, 1, 61, 100
3, 4470, Note_on_c, 1, 61, 0
3, 4470, Note_on_c, 1, 59, 64
3, 4500, Note_on_c, 1, 59, 0
3, 4500, Note_on_c, 1, 57, 0
3, 4500, Note_on_c, 1, 61, 64
3, 4500, Note_on_c, 1, 58, 64
3, 4680, Note_on_c, 1, 58, 0
3, 4680, Note_on_c, 1, 61, 0
3, 4680, Note_on_c, 1, 59, 64
3, 4860, Note_on_c, 1, 59, 0
3, 4860, Note_on_c, 1, 56, 64
3, 4860, Note_on_c, 1, 59, 64
3, 5040, Note_on_c, 1, 59, 0
3, 5040, Note_on_c, 1, 56, 0
3, 5040, Note_on_c, 1, 57, 64
3, 5220, Note_on_c, 1, 57, 0
3, 5220, Note_on_c, 1, 57, 70
3, 5220, Note_on_c, 1, 54, 70
3, 5340, Note_on_c, 1, 54, 0
3, 5340, Note_on_c, 1, 50, 82
3, 5400, Note_on_c, 1, 50, 0
3, 5400, Note_on_c, 1, 49, 88
3, 5520, Note_on_c, 1, 49, 0
3, 5520, Note_on_c, 1, 50, 88
3, 5580, Note_on_c, 1, 50, 0
3, 5580, Note_on_c, 1, 57, 0
3, 5580, Note_on_c, 1, 52, 64
3, 5580, Note_on_c, 1, 57, 64
3, 5700, Note_on_c, 1, 57, 0
3, 5700, Note_on_c, 1, 56, 64
3, 5760, Note_on_c, 1, 56, 0
3, 5760, Note_on_c, 1, 52, 0
3, 5760, Note_on_c, 1, 57, 64
3, 5880, Note_on_c, 1, 57, 0
3, 5940, Note_on_c, 1, 53, 46
3, 5940, Note_on_c, 1, 57, 46
3, 6120, Note_on_c, 1, 57, 0
3, 6120, Note_on_c, 1, 53, 0
3, 6120, Note_on_c, 1, 56, 46
3, 6120, Note_on_c, 1, 59, 46
3, 6300, Note_on_c, 1, 59, 0
3, 6300, Note_on_c, 1, 56, 0
3, 6300, Note_on_c, 1, 52, 46
3, 6300, Note_on_c, 1, 59, 46
3, 6360, Note_on_c, 1, 59, 0
3, 6360, Note_on_c, 1, 60, 64
3, 6420, Note_on_c, 1, 60, 0
3, 6420, Note_on_c, 1, 62, 64
3, 6480, Note_on_c, 1, 62, 0
3, 6480, Note_on_c, 1, 52, 0
3, 6480, Note_on_c, 1, 60, 64
3, 6480, Note_on_c, 1, 57, 88
3, 6510, Note_on_c, 1, 60, 0
3, 6510, Note_on_c, 1, 62, 64
3, 6540, Note_on_c, 1, 62, 0
3, 6540, Note_on_c, 1, 64, 64
3, 6570, Note_on_c, 1, 64, 0
3, 6570, Note_on_c, 1, 62, 64
3, 6600, Note_on_c, 1, 62, 0
3, 6600, Note_on_c, 1, 60, 64
3, 6630, Note_on_c, 1, 60, 0
3, 6630, Note_on_c, 1, 59, 76
3, 6660, Note_on_c, 1, 59, 0
3, 6660, Note_on_c, 1, 57, 0
3, 6660, Note_on_c, 1, 57, 46
3, 6840, Note_on_c, 1, 57, 0
3, 6840, Note_on_c, 1, 56, 46
3, 6840, Note_on_c, 1, 59, 46
3, 7020, Note_on_c, 1, 56, 0
3, 7020, Note_on_c, 1, 52, 46
3, 7080, Note_on_c, 1, 59, 0
3, 7080, Note_on_c, 1, 60, 64
3, 7140, Note_on_c, 1, 60, 0
3, 7140, Note_on_c, 1, 62, 64
3, 7200, Note_on_c, 1, 62, 0
3, 7200, Note_on_c, 1, 52, 0
3, 7200, Note_on_c, 1, 60, 64
3, 7200, Note_on_c, 1, 57, 64
3, 7320, Note_on_c, 1, 57, 0
3, 7320, Note_on_c, 1, 60, 0
3, 7380, Note_on_c, 1, 57, 46
3, 7380, Note_on_c, 1, 53, 46
3, 7560, Note_on_c, 1, 53, 0
3, 7560, Note_on_c, 1, 57, 0
3, 7560, Note_on_c, 1, 59, 64
3, 7560, Note_on_c, 1, 56, 64
3, 7740, Note_on_c, 1, 56, 0
3, 7740, Note_on_c, 1, 59, 0
3, 7740, Note_on_c, 1, 52, 46
3, 7740, Note_on_c, 1, 59, 46
3, 7800, Note_on_c, 1, 59, 0
3, 7800, Note_on_c, 1, 60, 64
3, 7860, Note_on_c, 1, 60, 0
3, 7860, Note_on_c, 1, 62, 64
3, 7920, Note_on_c, 1, 62, 0
3, 7920, Note_on_c, 1, 52, 0
3, 7920, Note_on_c, 1, 60, 64
3, 7920, Note_on_c, 1, 57, 88
3, 7950, Note_on_c, 1, 60, 0
3, 7950, Note_on_c, 1, 62, 64
3, 7980, Note_on_c, 1, 62, 0
3, 7980, Note_on_c, 1, 64, 64
3, 8010, Note_on_c, 1, 64, 0
3, 8010, Note_on_c, 1, 62, 64
3, 8040, Note_on_c, 1, 62, 0
3, 8040, Note_on_c, 1, 60, 64
3, 8070, Note_on_c, 1, 60, 0
3, 8070, Note_on_c, 1, 59, 76
3, 8100, Note_on_c, 1, 59, 0
3, 8100, Note_on_c, 1, 57, 0
3, 8100, Note_on_c, 1, 60, 64
3, 8100, Note_on_c, 1, 57, 64
3, 8280, Note_on_c, 1, 57, 0
3, 8280, Note_on_c, 1, 60, 0
3, 8280, Note_on_c, 1, 56, 46
3, 8280, Note_on_c, 1, 59, 46
3, 8460, Note_on_c, 1, 56, 0
3, 8460, Note_on_c, 1, 52, 46
3, 8520, Note_on_c, 1, 59, 0
3, 8520, Note_on_c, 1, 60, 64
3, 8580, Note_on_c, 1, 60, 0
3, 8580, Note_on_c, 1, 62, 64
3, 8640, Note_on_c, 1, 62, 0
3, 8640, Note_on_c, 1, 52, 0
3, 8640, Note_on_c, 1, 60, 64
3, 8640, Note_on_c, 1, 57, 64
3, 8760, Note_on_c, 1, 57, 0
3, 8760, Note_on_c, 1, 60, 0
3, 8820, Note_on_c, 1, 60, 64
3, 8820, Note_on_c, 1, 57, 48
3, 8940, Note_on_c, 1, 57, 0
3, 8940, Note_on_c, 1, 60, 0
3, 8940, Note_on_c, 1, 52, 64
3, 8940, Note_on_c, 1, 59, 64
3, 9000, Note_on_c, 1, 59, 0
3, 9000, Note_on_c, 1, 52, 0
3, 9000, Note_on_c, 1, 60, 64
3, 9000, Note_on_c, 1, 57, 68
3, 9120, Note_on_c, 1, 57, 0
3, 9120, Note_on_c, 1, 60, 0
3, 9120, Note_on_c, 1, 52, 76
3, 9120, Note_on_c, 1, 59, 76
3, 9180, Note_on_c, 1, 59, 0
3, 9180, Note_on_c, 1, 52, 0
3, 9180, Note_on_c, 1, 60, 64
3, 9180, Note_on_c, 1, 57, 80
3, 9300, Note_on_c, 1, 57, 0
3, 9300, Note_on_c, 1, 60, 0
3, 9300, Note_on_c, 1, 52, 88
3, 9300, Note_on_c, 1, 59, 88
3, 9360, Note_on_c, 1, 59, 0
3, 9360, Note_on_c, 1, 52, 0
3, 9540, Note_on_c, 1, 60, 64
3, 9540, Note_on_c, 1, 57, 56
3, 9660, Note_on_c, 1, 57, 0
3, 9660, Note_on_c, 1, 60, 0
3, 9660, Note_on_c, 1, 52, 72
3, 9660, Note_on_c, 1, 59, 72
3, 9720, Note_on_c, 1, 59, 0
3, 9720, Note_on_c, 1, 52, 0
3, 9720, Note_on_c, 1, 60, 64
3, 9720, Note_on_c, 1, 57, 80
3, 9840, Note_on_c, 1, 57, 0
3, 9840, Note_on_c, 1, 60, 0
3, 9840, Note_on_c, 1, 52, 94
3, 9840, Note_on_c, 1, 59, 94
3, 9900, Note_on_c, 1, 59, 0
3, 9900, Note_on_c, 1, 52, 0
3, 9900, Note_on_c, 1, 60, 64
3, 9900, Note_on_c, 1, 57, 102
3, 10020, Note_on_c, 1, 57, 0
3, 10020, Note_on_c, 1, 60, 0
3, 10020, Note_on_c, 1, 52, 118
3, 10020, Note_on_c, 1, 59, 118
3, 10080, Note_on_c, 1, 59, 0
3, 10080, Note_on_c, 1, 52, 0
3, 10260, Note_on_c, 1, 60, 64
3, 10260, Note_on_c, 1, 57, 127
3, 10380, Note_on_c, 1, 57, 0
3, 10380, Note_on_c, 1, 60, 0
3, 10380, Note_on_c, 1, 52, 127
3, 10380, Note_on_c, 1, 59, 127
3, 10440, Note_on_c, 1, 59, 0
3, 10440, Note_on_c, 1, 52, 0
3, 10440, Note_on_c, 1, 60, 64
3, 10440, Note_on_c, 1, 57, 102
3, 10560, Note_on_c, 1, 57, 0
3, 10560, Note_on_c, 1, 60, 0
3, 10560, Note_on_c, 1, 52, 88
3, 10560, Note_on_c, 1, 59, 88
3, 10620, Note_on_c, 1, 59, 0
3, 10620, Note_on_c, 1, 52, 0
3, 10620, Note_on_c, 1, 60, 64
3, 10620, Note_on_c, 1, 57, 80
3, 10740, Note_on_c, 1, 57, 0
3, 10740, Note_on_c, 1, 60, 0
3, 10740, Note_on_c, 1, 52, 64
3, 10740, Note_on_c, 1, 59, 64
3, 10800, Note_on_c, 1, 59, 0
3, 10800, Note_on_c, 1, 52, 0
3, 10980, Note_on_c, 1, 60, 64
3, 10980, Note_on_c, 1, 57, 56
3, 11100, Note_on_c, 1, 57, 0
3, 11100, Note_on_c, 1, 60, 0
3, 11100, Note_on_c, 1, 52, 72
3, 11100, Note_on_c, 1, 59, 72
3, 11160, Note_on_c, 1, 59, 0
3, 11160, Note_on_c, 1, 52, 0
3, 11160, Note_on_c, 1, 60, 64
3, 11160, Note_on_c, 1, 57, 80
3, 11280, Note_on_c, 1, 57, 0
3, 11280, Note_on_c, 1, 60, 0
3, 11280, Note_on_c, 1, 52, 94
3, 11280, Note_on_c, 1, 59, 94
3, 11340, Note_on_c, 1, 59, 0
3, 11340, Note_on_c, 1, 52, 0
3, 11340, Note_on_c, 1, 60, 64
3, 11340, Note_on_c, 1, 57, 102
3, 11460, Note_on_c, 1, 57, 0
3, 11460, Note_on_c, 1, 60, 0
3, 11460, Note_on_c, 1, 52, 118
3, 11460, Note_on_c, 1, 59, 118
3, 11520, Note_on_c, 1, 59, 0
3, 11520, Note_on_c, 1, 52, 0
3, 11700, Note_on_c, 1, 61, 64
3, 11700, Note_on_c, 1, 57, 64
3, 11820, Note_on_c, 1, 61, 0
3, 11820, Note_on_c, 1, 64, 64
3, 11880, Note_on_c, 1, 64, 0
3, 11880, Note_on_c, 1, 57, 0
3, 11880, Note_on_c, 1, 64, 64
3, 11880, Note_on_c, 1, 56, 64
3, 12060, Note_on_c, 1, 56, 0
3, 12060, Note_on_c, 1, 64, 0
3, 12060, Note_on_c, 1, 64, 64
3, 12060, Note_on_c, 1, 57, 64
3, 12240, Note_on_c, 1, 57, 0
3, 12240, Note_on_c, 1, 64, 0
3, 12240, Note_on_c, 1, 64, 64
3, 12240, Note_on_c, 1, 52, 76
3, 12360, Note_on_c, 1, 64, 0
3, 12360, Note_on_c, 1, 62, 64
3, 12420, Note_on_c, 1, 62, 0
3, 12420, Note_on_c, 1, 52, 0
3, 12420, Note_on_c, 1, 61, 64
3, 12420, Note_on_c, 1, 57, 52
3, 12540, Note_on_c, 1, 61, 0
3, 12540, Note_on_c, 1, 62, 64
3, 12600, Note_on_c, 1, 62, 0
3, 12600, Note_on_c, 1, 57, 0
3, 12600, Note_on_c, 1, 64, 64
3, 12600, Note_on_c, 1, 56, 52
3, 12780, Note_on_c, 1, 56, 0
3, 12780, Note_on_c, 1, 64, 0
3, 12780, Note_on_c, 1, 64, 64
3, 12780, Note_on_c, 1, 57, 52
3, 12960, Note_on_c, 1, 57, 0
3, 12960, Note_on_c, 1, 64, 0
3, 12960, Note_on_c, 1, 64, 64
3, 12960, Note_on_c, 1, 52, 58
3, 13020, Note_on_c, 1, 52, 0
3, 13020, Note_on_c, 1, 64, 0
3, 13020, Note_on_c, 1, 64, 64
3, 13020, Note_on_c, 1, 61, 64
3, 13080, Note_on_c, 1, 61, 0
3, 13080, Note_on_c, 1, 64, 0
3, 13080, Note_on_c, 1, 62, 64
3, 13080, Note_on_c, 1, 59, 64
3, 13140, Note_on_c, 1, 59, 0
3, 13140, Note_on_c, 1, 62, 0
3, 13140, Note_on_c, 1, 61, 64
3, 13140, Note_on_c, 1, 58, 64
3, 13320, Note_on_c, 1, 58, 0
3, 13320, Note_on_c, 1, 61, 0
3, 13320, Note_on_c, 1, 62, 64
3, 13320, Note_on_c, 1, 59, 64
3, 13500, Note_on_c, 1, 59, 0
3, 13500, Note_on_c, 1, 62, 0
3, 13500, Note_on_c, 1, 56, 64
3, 13500, Note_on_c, 1, 59, 64
3, 13680, Note_on_c, 1, 59, 0
3, 13680, Note_on_c, 1, 56, 0
3, 13680, Note_on_c, 1, 61, 64
3, 13680, Note_on_c, 1, 57, 64
3, 13860, Note_on_c, 1, 57, 0
3, 13860, Note_on_c, 1, 61, 0
3, 13860, Note_on_c, 1, 57, 64
3, 13860, Note_on_c, 1, 54, 64
3, 13980, Note_on_c, 1, 54, 0
3, 13980, Note_on_c, 1, 50, 64
3, 14040, Note_on_c, 1, 50, 0
3, 14040, Note_on_c, 1, 49, 52
3, 14160, Note_on_c, 1, 49, 0
3, 14160, Note_on_c, 1, 50, 52
3, 14220, Note_on_c, 1, 50, 0
3, 14220, Note_on_c, 1, 57, 0
3, 14220, Note_on_c, 1, 57, 64
3, 14220, Note_on_c, 1, 52, 46
3, 14340, Note_on_c, 1, 57, 0
3, 14340, Note_on_c, 1, 56, 64
3, 14400, Note_on_c, 1, 56, 0
3, 14400, Note_on_c, 1, 52, 0
3, 14400, Note_on_c, 1, 57, 40
3, 14580, Note_on_c, 1, 57, 0
3, 14580, End_track
0, 0, End_of_file