0, 0, Header, 1, 2, 120
1, 0, Start_track
1, 0, Key_signature, 0, "major"
1, 0, Tempo, 517241
1, 0, Time_signature, 4, 2, 24, 8
1, 0, End_track
2, 0, Start_track
2, 0, Title_t, "Beethoven StnaC"
2, 121, Control_c, 1, 7, 127
2, 127, Note_on_c, 1, 79, 35
2, 192, Note_on_c, 1, 79, 35
2, 192, Note_on_c, 1, 79, 0
2, 284, Note_on_c, 1, 79, 0
2, 285, Note_on_c, 1, 78, 35
2, 300, Note_on_c, 1, 79, 35
2, 300, Note_on_c, 1, 78, 0
2, 316, Note_on_c, 1, 79, 0
2, 317, Note_on_c, 1, 84, 35
2, 378, Note_on_c, 1, 79, 35
2, 439, Note_on_c, 1, 76, 35
2, 440, Note_on_c, 1, 79, 0
2, 500, Note_on_c, 1, 72, 35
2, 501, Note_on_c, 1, 76, 0
2, 562, Note_on_c, 1, 48, 35
2, 562, Note_on_c, 1, 72, 0
2, 565, Note_on_c, 1, 84, 0
2, 625, Note_on_c, 1, 52, 35
2, 687, Note_on_c, 1, 52, 0
2, 688, Note_on_c, 1, 55, 35
2, 750, Note_on_c, 1, 55, 0
2, 751, Note_on_c, 1, 60, 35
2, 810, Note_on_c, 1, 48, 0
2, 811, Note_on_c, 1, 79, 35
2, 813, Note_on_c, 1, 60, 0
2, 873, Note_on_c, 1, 76, 35
2, 874, Note_on_c, 1, 79, 0
2, 933, Note_on_c, 1, 72, 35
2, 935, Note_on_c, 1, 76, 0
2, 996, Note_on_c, 1, 72, 0
2, 998, Note_on_c, 1, 67, 35
2, 1058, Note_on_c, 1, 48, 35
2, 1059, Note_on_c, 1, 67, 0
2, 1120, Note_on_c, 1, 52, 35
2, 1120, Note_on_c, 1, 48, 0
2, 1183, Note_on_c, 1, 52, 0
2, 1184, Note_on_c, 1, 55, 35
2, 1246, Note_on_c, 1, 55, 0
2, 1247, Note_on_c, 1, 60, 35
2, 1307, Note_on_c, 1, 76, 35
2, 1307, Note_on_c, 1, 48, 35
2, 1309, Note_on_c, 1, 60, 0
2, 1367, Note_on_c, 1, 72, 36
2, 1368, Note_on_c, 1, 48, 0
2, 1369, Note_on_c, 1, 52, 36
2, 1369, Note_on_c, 1, 76, 0
2, 1430, Note_on_c, 1, 72, 0
2, 1432, Note_on_c, 1, 55, 38
2, 1432, Note_on_c, 1, 67, 38
2, 1432, Note_on_c, 1, 52, 0
2, 1493, Note_on_c, 1, 67, 0
2, 1494, Note_on_c, 1, 64, 40
2, 1495, Note_on_c, 1, 55, 0
2, 1496, Note_on_c, 1, 60, 40
2, 1554, Note_on_c, 1, 48, 42
2, 1555, Note_on_c, 1, 76, 42
2, 1555, Note_on_c, 1, 64, 0
2, 1557, Note_on_c, 1, 60, 0
2, 1615, Note_on_c, 1, 72, 43
2, 1616, Note_on_c, 1, 48, 0
2, 1617, Note_on_c, 1, 52, 43
2, 1617, Note_on_c, 1, 76, 0
2, 1678, Note_on_c, 1, 72, 0
2, 1679, Note_on_c, 1, 52, 0
2, 1680, Note_on_c, 1, 55, 45
2, 1680, Note_on_c, 1, 67, 45
2, 1741, Note_on_c, 1, 67, 0
2, 1742, Note_on_c, 1, 64, 47
2, 1742, Note_on_c, 1, 55, 0
2, 1743, Note_on_c, 1, 60, 47
2, 1802, Note_on_c, 1, 50, 49
2, 1804, Note_on_c, 1, 67, 49
2, 1804, Note_on_c, 1, 64, 0
2, 1805, Note_on_c, 1, 60, 0
2, 1806, Note_on_c, 1, 62, 49
2, 1817, Note_on_c, 1, 72, 49
2, 1834, Note_on_c, 1, 77, 50
2, 2112, Note_on_c, 1, 72, 0
2, 2113, Note_on_c, 1, 50, 0
2, 2114, Note_on_c, 1, 67, 0
2, 2114, Note_on_c, 1, 77, 0
2, 2116, Note_on_c, 1, 62, 0
2, 2119, Note_on_c, 1, 77, 35
2, 2175, Note_on_c, 1, 77, 0
2, 2181, Note_on_c, 1, 77, 35
2, 2268, Note_on_c, 1, 76, 35
2, 2268, Note_on_c, 1, 77, 0
2, 2283, Note_on_c, 1, 76, 0
2, 2284, Note_on_c, 1, 77, 35
2, 2300, Note_on_c, 1, 77, 0
2, 2301, Note_on_c, 1, 81, 35
2, 2362, Note_on_c, 1, 77, 35
2, 2363, Note_on_c, 1, 81, 0
2, 2422, Note_on_c, 1, 74, 35
2, 2423, Note_on_c, 1, 77, 0
2, 2483, Note_on_c, 1, 74, 0
2, 2484, Note_on_c, 1, 71, 35
2, 2546, Note_on_c, 1, 71, 0
2, 2548, Note_on_c, 1, 55, 35
2, 2610, Note_on_c, 1, 55, 0
2, 2611, Note_on_c, 1, 59, 35
2, 2672, Note_on_c, 1, 59, 0
2, 2673, Note_on_c, 1, 62, 35
2, 2734, Note_on_c, 1, 65, 35
2, 2734, Note_on_c, 1, 62, 0
2, 2795, Note_on_c, 1, 77, 35
2, 2796, Note_on_c, 1, 65, 0
2, 2855, Note_on_c, 1, 74, 35
2, 2858, Note_on_c, 1, 77, 0
2, 2918, Note_on_c, 1, 71, 35
2, 2918, Note_on_c, 1, 74, 0
2, 2980, Note_on_c, 1, 71, 0
2, 2982, Note_on_c, 1, 67, 35
2, 3043, Note_on_c, 1, 43, 35
2, 3043, Note_on_c, 1, 67, 0
2, 3104, Note_on_c, 1, 50, 35
2, 3106, Note_on_c, 1, 43, 0
2, 3165, Note_on_c, 1, 50, 0
2, 3168, Note_on_c, 1, 53, 35
2, 3229, Note_on_c, 1, 55, 35
2, 3230, Note_on_c, 1, 53, 0
2, 3289, Note_on_c, 1, 74, 35
2, 3292, Note_on_c, 1, 43, 35
2, 3292, Note_on_c, 1, 55, 0
2, 3351, Note_on_c, 1, 71, 36
2, 3351, Note_on_c, 1, 74, 0
2, 3352, Note_on_c, 1, 50, 36
2, 3354, Note_on_c, 1, 43, 0
2, 3413, Note_on_c, 1, 71, 0
2, 3414, Note_on_c, 1, 50, 0
2, 3415, Note_on_c, 1, 67, 38
2, 3416, Note_on_c, 1, 53, 38
2, 3477, Note_on_c, 1, 65, 40
2, 3477, Note_on_c, 1, 67, 0
2, 3478, Note_on_c, 1, 55, 40
2, 3478, Note_on_c, 1, 53, 0
2, 3537, Note_on_c, 1, 74, 41
2, 3539, Note_on_c, 1, 65, 0
2, 3540, Note_on_c, 1, 43, 41
2, 3540, Note_on_c, 1, 55, 0
2, 3599, Note_on_c, 1, 71, 43
2, 3599, Note_on_c, 1, 74, 0
2, 3600, Note_on_c, 1, 50, 43
2, 3602, Note_on_c, 1, 43, 0
2, 3661, Note_on_c, 1, 71, 0
2, 3662, Note_on_c, 1, 50, 0
2, 3663, Note_on_c, 1, 67, 45
2, 3664, Note_on_c, 1, 53, 45
2, 3725, Note_on_c, 1, 67, 0
2, 3726, Note_on_c, 1, 55, 47
2, 3726, Note_on_c, 1, 65, 47
2, 3727, Note_on_c, 1, 53, 0
2, 3786, Note_on_c, 1, 48, 48
2, 3787, Note_on_c, 1, 67, 48
2, 3787, Note_on_c, 1, 65, 0
2, 3788, Note_on_c, 1, 55, 0
2, 3789, Note_on_c, 1, 60, 48
2, 3800, Note_on_c, 1, 71, 49
2, 3817, Note_on_c, 1, 74, 49
2, 3834, Note_on_c, 1, 77, 50
2, 4096, Note_on_c, 1, 74, 0
2, 4096, Note_on_c, 1, 71, 0
2, 4097, Note_on_c, 1, 48, 0
2, 4097, Note_on_c, 1, 67, 0
2, 4098, Note_on_c, 1, 77, 0
2, 4100, Note_on_c, 1, 60, 0
2, 4102, Note_on_c, 1, 79, 35
2, 4160, Note_on_c, 1, 79, 35
2, 4194, Note_on_c, 1, 79, 0
2, 4252, Note_on_c, 1, 79, 0
2, 4253, Note_on_c, 1, 78, 35
2, 4268, Note_on_c, 1, 79, 35
2, 4268, Note_on_c, 1, 78, 0
2, 4283, Note_on_c, 1, 79, 0
2, 4285, Note_on_c, 1, 84, 35
2, 4325, Note_on_c, 1, 64, 35
2, 4366, Note_on_c, 1, 67, 35
2, 4366, Note_on_c, 1, 64, 0
2, 4405, Note_on_c, 1, 72, 35
2, 4407, Note_on_c, 1, 67, 0
2, 4449, Note_on_c, 1, 79, 35
2, 4449, Note_on_c, 1, 84, 0
2, 4490, Note_on_c, 1, 79, 0
2, 4491, Note_on_c, 1, 83, 35
2, 4530, Note_on_c, 1, 72, 0
2, 4532, Note_on_c, 1, 84, 35
2, 4532, Note_on_c, 1, 83, 0
2, 4574, Note_on_c, 1, 83, 35
2, 4574, Note_on_c, 1, 84, 0
2, 4615, Note_on_c, 1, 81, 35
2, 4615, Note_on_c, 1, 83, 0
2, 4655, Note_on_c, 1, 79, 35
2, 4656, Note_on_c, 1, 81, 0
2, 4696, Note_on_c, 1, 79, 0
2, 4697, Note_on_c, 1, 77, 35
2, 4737, Note_on_c, 1, 76, 35
2, 4738, Note_on_c, 1, 77, 0
2, 4779, Note_on_c, 1, 76, 0
2, 4781, Note_on_c, 1, 81, 35
2, 4821, Note_on_c, 1, 65, 35
2, 4861, Note_on_c, 1, 69, 35
2, 4862, Note_on_c, 1, 65, 0
2, 4902, Note_on_c, 1, 74, 35
2, 4902, Note_on_c, 1, 69, 0
2, 4945, Note_on_c, 1, 80, 35
2, 4946, Note_on_c, 1, 81, 0
2, 4986, Note_on_c, 1, 80, 0
2, 4987, Note_on_c, 1, 83, 35
2, 5026, Note_on_c, 1, 74, 0
2, 5028, Note_on_c, 1, 81, 35
2, 5028, Note_on_c, 1, 83, 0
2, 5069, Note_on_c, 1, 79, 35
2, 5070, Note_on_c, 1, 81, 0
2, 5110, Note_on_c, 1, 77, 35
2, 5110, Note_on_c, 1, 79, 0
2, 5150, Note_on_c, 1, 76, 35
2, 5151, Note_on_c, 1, 77, 0
2, 5191, Note_on_c, 1, 76, 0
2, 5193, Note_on_c, 1, 77, 35
2, 5232, Note_on_c, 1, 74, 35
2, 5234, Note_on_c, 1, 77, 0
2, 5273, Note_on_c, 1, 72, 35
2, 5273, Note_on_c, 1, 74, 0
2, 5316, Note_on_c, 1, 55, 35
2, 5358, Note_on_c, 1, 55, 0
2, 5359, Note_on_c, 1, 60, 35
2, 5399, Note_on_c, 1, 64, 35
2, 5401, Note_on_c, 1, 60, 0
2, 5439, Note_on_c, 1, 72, 0
2, 5440, Note_on_c, 1, 76, 35
2, 5480, Note_on_c, 1, 72, 35
2, 5481, Note_on_c, 1, 76, 0
2, 5521, Note_on_c, 1, 71, 35
2, 5522, Note_on_c, 1, 72, 0
2, 5524, Note_on_c, 1, 64, 0
2, 5564, Note_on_c, 1, 55, 35
2, 5606, Note_on_c, 1, 55, 0
2, 5607, Note_on_c, 1, 62, 35
2, 5648, Note_on_c, 1, 65, 35
2, 5648, Note_on_c, 1, 62, 0
2, 5687, Note_on_c, 1, 74, 35
2, 5687, Note_on_c, 1, 71, 0
2, 5728, Note_on_c, 1, 74, 0
2, 5730, Note_on_c, 1, 79, 35
2, 5771, Note_on_c, 1, 77, 35
2, 5771, Note_on_c, 1, 79, 0
2, 5772, Note_on_c, 1, 65, 0
2, 5813, Note_on_c, 1, 60, 35
2, 5854, Note_on_c, 1, 64, 35
2, 5855, Note_on_c, 1, 60, 0
2, 5895, Note_on_c, 1, 67, 35
2, 5896, Note_on_c, 1, 64, 0
2, 5935, Note_on_c, 1, 76, 35
2, 5937, Note_on_c, 1, 77, 0
2, 5977, Note_on_c, 1, 76, 0
2, 5978, Note_on_c, 1, 77, 38
2, 6019, Note_on_c, 1, 78, 42
2, 6019, Note_on_c, 1, 77, 0
2, 6020, Note_on_c, 1, 67, 0
2, 6060, Note_on_c, 1, 79, 46
2, 6060, Note_on_c, 1, 78, 0
2, 6102, Note_on_c, 1, 80, 50
2, 6102, Note_on_c, 1, 79, 0
2, 6143, Note_on_c, 1, 80, 0
2, 6144, Note_on_c, 1, 81, 53
2, 6185, Note_on_c, 1, 82, 57
2, 6186, Note_on_c, 1, 81, 0
2, 6227, Note_on_c, 1, 83, 61
2, 6227, Note_on_c, 1, 82, 0
2, 6268, Note_on_c, 1, 83, 0
2, 6269, Note_on_c, 1, 84, 65
2, 6308, Note_on_c, 1, 64, 65
2, 6350, Note_on_c, 1, 67, 65
2, 6350, Note_on_c, 1, 64, 0
2, 6389, Note_on_c, 1, 72, 65
2, 6392, Note_on_c, 1, 67, 0
2, 6433, Note_on_c, 1, 79, 65
2, 6434, Note_on_c, 1, 84, 0
2, 6473, Note_on_c, 1, 79, 0
2, 6475, Note_on_c, 1, 83, 65
2, 6514, Note_on_c, 1, 72, 0
2, 6516, Note_on_c, 1, 84, 65
2, 6517, Note_on_c, 1, 83, 0
2, 6557, Note_on_c, 1, 83, 65
2, 6557, Note_on_c, 1, 84, 0
2, 6599, Note_on_c, 1, 81, 65
2, 6599, Note_on_c, 1, 83, 0
2, 6639, Note_on_c, 1, 79, 65
2, 6640, Note_on_c, 1, 81, 0
2, 6680, Note_on_c, 1, 77, 65
2, 6681, Note_on_c, 1, 79, 0
2, 6721, Note_on_c, 1, 76, 65
2, 6722, Note_on_c, 1, 77, 0
2, 6762, Note_on_c, 1, 76, 0
2, 6764, Note_on_c, 1, 81, 65
2, 6805, Note_on_c, 1, 65, 65
2, 6845, Note_on_c, 1, 69, 65
2, 6846, Note_on_c, 1, 65, 0
2, 6885, Note_on_c, 1, 74, 65
2, 6886, Note_on_c, 1, 69, 0
2, 6928, Note_on_c, 1, 80, 65
2, 6929, Note_on_c, 1, 81, 0
2, 6969, Note_on_c, 1, 80, 0
2, 6971, Note_on_c, 1, 83, 65
2, 7009, Note_on_c, 1, 74, 0
2, 7012, Note_on_c, 1, 81, 65
2, 7012, Note_on_c, 1, 83, 0
2, 7052, Note_on_c, 1, 79, 65
2, 7054, Note_on_c, 1, 81, 0
2, 7094, Note_on_c, 1, 77, 65
2, 7094, Note_on_c, 1, 79, 0
2, 7134, Note_on_c, 1, 76, 65
2, 7135, Note_on_c, 1, 77, 0
2, 7176, Note_on_c, 1, 76, 0
2, 7177, Note_on_c, 1, 77, 65
2, 7216, Note_on_c, 1, 74, 65
2, 7217, Note_on_c, 1, 77, 0
2, 7257, Note_on_c, 1, 74, 0
2, 7259, Note_on_c, 1, 79, 80
2, 7301, Note_on_c, 1, 55, 80
2, 7342, Note_on_c, 1, 55, 0
2, 7343, Note_on_c, 1, 60, 80
2, 7383, Note_on_c, 1, 64, 80
2, 7384, Note_on_c, 1, 60, 0
2, 7423, Note_on_c, 1, 76, 80
2, 7424, Note_on_c, 1, 79, 0
2, 7464, Note_on_c, 1, 72, 80
2, 7465, Note_on_c, 1, 76, 0
2, 7505, Note_on_c, 1, 72, 0
2, 7507, Note_on_c, 1, 77, 80
2, 7508, Note_on_c, 1, 64, 0
2, 7549, Note_on_c, 1, 55, 80
2, 7590, Note_on_c, 1, 55, 0
2, 7591, Note_on_c, 1, 62, 80
2, 7631, Note_on_c, 1, 65, 80
2, 7632, Note_on_c, 1, 62, 0
2, 7670, Note_on_c, 1, 74, 80
2, 7672, Note_on_c, 1, 77, 0
2, 7712, Note_on_c, 1, 71, 80
2, 7712, Note_on_c, 1, 74, 0
2, 7753, Note_on_c, 1, 72, 80
2, 7753, Note_on_c, 1, 71, 0
2, 7754, Note_on_c, 1, 48, 80
2, 7755, Note_on_c, 1, 65, 0
2, 7815, Note_on_c, 1, 48, 0
2, 7816, Note_on_c, 1, 52, 80
2, 7877, Note_on_c, 1, 72, 0
2, 7879, Note_on_c, 1, 55, 80
2, 7879, Note_on_c, 1, 52, 0
2, 7941, Note_on_c, 1, 55, 0
2, 7942, Note_on_c, 1, 60, 80
2, 8001, Note_on_c, 1, 48, 80
2, 8004, Note_on_c, 1, 60, 0
2, 8063, Note_on_c, 1, 72, 80
2, 8125, Note_on_c, 1, 72, 0
2, 8126, Note_on_c, 1, 72, 80
2, 8126, Note_on_c, 1, 48, 0
2, 8218, Note_on_c, 1, 71, 80
2, 8218, Note_on_c, 1, 72, 0
2, 8234, Note_on_c, 1, 72, 80
2, 8234, Note_on_c, 1, 71, 0
2, 8249, Note_on_c, 1, 72, 0
2, 8251, Note_on_c, 1, 78, 80
2, 8253, Note_on_c, 1, 57, 80
2, 8314, Note_on_c, 1, 60, 80
2, 8314, Note_on_c, 1, 57, 0
2, 8375, Note_on_c, 1, 66, 80
2, 8375, Note_on_c, 1, 78, 0
2, 8376, Note_on_c, 1, 60, 0
2, 8436, Note_on_c, 1, 69, 80
2, 8437, Note_on_c, 1, 66, 0
2, 8498, Note_on_c, 1, 69, 0
2, 8500, Note_on_c, 1, 57, 80
2, 8559, Note_on_c, 1, 72, 80
2, 8621, Note_on_c, 1, 72, 80
2, 8621, Note_on_c, 1, 72, 0
2, 8624, Note_on_c, 1, 57, 0
2, 8714, Note_on_c, 1, 71, 80
2, 8714, Note_on_c, 1, 72, 0
2, 8729, Note_on_c, 1, 72, 80
2, 8730, Note_on_c, 1, 71, 0
2, 8745, Note_on_c, 1, 72, 0
2, 8748, Note_on_c, 1, 84, 80
2, 8748, Note_on_c, 1, 54, 80
2, 8809, Note_on_c, 1, 54, 0
2, 8810, Note_on_c, 1, 57, 80
2, 8872, Note_on_c, 1, 62, 80
2, 8872, Note_on_c, 1, 57, 0
2, 8913, Note_on_c, 1, 83, 80
2, 8913, Note_on_c, 1, 84, 0
2, 8933, Note_on_c, 1, 66, 80
2, 8934, Note_on_c, 1, 62, 0
2, 8954, Note_on_c, 1, 83, 0
2, 8955, Note_on_c, 1, 81, 80
2, 8995, Note_on_c, 1, 79, 80
2, 8995, Note_on_c, 1, 66, 0
2, 8996, Note_on_c, 1, 54, 80
2, 8996, Note_on_c, 1, 81, 0
2, 9036, Note_on_c, 1, 78, 80
2, 9036, Note_on_c, 1, 79, 0
2, 9076, Note_on_c, 1, 76, 80
2, 9078, Note_on_c, 1, 78, 0
2, 9117, Note_on_c, 1, 74, 80
2, 9118, Note_on_c, 1, 76, 0
2, 9119, Note_on_c, 1, 54, 0
2, 9158, Note_on_c, 1, 74, 0
2, 9159, Note_on_c, 1, 76, 80
2, 9200, Note_on_c, 1, 72, 80
2, 9201, Note_on_c, 1, 76, 0
2, 9241, Note_on_c, 1, 72, 0
2, 9243, Note_on_c, 1, 55, 80
2, 9282, Note_on_c, 1, 71, 73
2, 9323, Note_on_c, 1, 74, 65
2, 9324, Note_on_c, 1, 71, 0
2, 9364, Note_on_c, 1, 74, 0
2, 9367, Note_on_c, 1, 55, 0
2, 9368, Note_on_c, 1, 59, 58
2, 9408, Note_on_c, 1, 79, 50
2, 9447, Note_on_c, 1, 74, 43
2, 9449, Note_on_c, 1, 79, 0
2, 9488, Note_on_c, 1, 74, 0
2, 9492, Note_on_c, 1, 62, 35
2, 9492, Note_on_c, 1, 59, 0
2, 9532, Note_on_c, 1, 79, 35
2, 9571, Note_on_c, 1, 74, 35
2, 9573, Note_on_c, 1, 79, 0
2, 9612, Note_on_c, 1, 74, 0
2, 9615, Note_on_c, 1, 67, 35
2, 9616, Note_on_c, 1, 62, 0
2, 9657, Note_on_c, 1, 83, 35
2, 9695, Note_on_c, 1, 74, 35
2, 9698, Note_on_c, 1, 83, 0
2, 9737, Note_on_c, 1, 74, 0
2, 9739, Note_on_c, 1, 69, 35
2, 9739, Note_on_c, 1, 67, 0
2, 9781, Note_on_c, 1, 84, 35
2, 9819, Note_on_c, 1, 74, 35
2, 9822, Note_on_c, 1, 84, 0
2, 9861, Note_on_c, 1, 74, 0
2, 9862, Note_on_c, 1, 69, 0
2, 9864, Note_on_c, 1, 66, 35
2, 9905, Note_on_c, 1, 81, 35
2, 9943, Note_on_c, 1, 74, 35
2, 9946, Note_on_c, 1, 81, 0
2, 9985, Note_on_c, 1, 74, 0
2, 9987, Note_on_c, 1, 66, 0
2, 9989, Note_on_c, 1, 62, 35
2, 10028, Note_on_c, 1, 78, 35
2, 10067, Note_on_c, 1, 74, 35
2, 10069, Note_on_c, 1, 78, 0
2, 10109, Note_on_c, 1, 74, 0
2, 10112, Note_on_c, 1, 62, 0
2, 10113, Note_on_c, 1, 60, 35
2, 10153, Note_on_c, 1, 81, 35
2, 10191, Note_on_c, 1, 74, 35
2, 10194, Note_on_c, 1, 81, 0
2, 10233, Note_on_c, 1, 74, 0
2, 10236, Note_on_c, 1, 59, 35
2, 10236, Note_on_c, 1, 60, 0
2, 10276, Note_on_c, 1, 79, 35
2, 10316, Note_on_c, 1, 74, 35
2, 10318, Note_on_c, 1, 79, 0
2, 10357, Note_on_c, 1, 74, 0
2, 10360, Note_on_c, 1, 59, 0
2, 10361, Note_on_c, 1, 62, 36
2, 10401, Note_on_c, 1, 83, 37
2, 10440, Note_on_c, 1, 74, 39
2, 10443, Note_on_c, 1, 83, 0
2, 10481, Note_on_c, 1, 74, 0
2, 10483, Note_on_c, 1, 66, 40
2, 10484, Note_on_c, 1, 62, 0
2, 10525, Note_on_c, 1, 81, 42
2, 10564, Note_on_c, 1, 74, 43
2, 10567, Note_on_c, 1, 81, 0
2, 10605, Note_on_c, 1, 74, 0
2, 10607, Note_on_c, 1, 67, 45
2, 10607, Note_on_c, 1, 66, 0
2, 10649, Note_on_c, 1, 83, 47
2, 10688, Note_on_c, 1, 74, 48
2, 10690, Note_on_c, 1, 83, 0
2, 10729, Note_on_c, 1, 74, 0
2, 10730, Note_on_c, 1, 69, 50
2, 10731, Note_on_c, 1, 67, 0
2, 10773, Note_on_c, 1, 84, 49
2, 10812, Note_on_c, 1, 74, 48
2, 10814, Note_on_c, 1, 84, 0
2, 10853, Note_on_c, 1, 74, 0
2, 10854, Note_on_c, 1, 69, 0
2, 10855, Note_on_c, 1, 66, 46
2, 10897, Note_on_c, 1, 81, 45
2, 10936, Note_on_c, 1, 74, 44
2, 10938, Note_on_c, 1, 81, 0
2, 10977, Note_on_c, 1, 74, 0
2, 10979, Note_on_c, 1, 66, 0
2, 10980, Note_on_c, 1, 62, 42
2, 11020, Note_on_c, 1, 78, 41
2, 11060, Note_on_c, 1, 74, 40
2, 11061, Note_on_c, 1, 78, 0
2, 11101, Note_on_c, 1, 74, 0
2, 11104, Note_on_c, 1, 60, 38
2, 11104, Note_on_c, 1, 62, 0
2, 11145, Note_on_c, 1, 81, 37
2, 11184, Note_on_c, 1, 74, 36
2, 11186, Note_on_c, 1, 81, 0
2, 11224, Note_on_c, 1, 74, 0
2, 11228, Note_on_c, 1, 59, 35
2, 11228, Note_on_c, 1, 60, 0
2, 11268, Note_on_c, 1, 79, 35
2, 11308, Note_on_c, 1, 74, 35
2, 11309, Note_on_c, 1, 79, 0
2, 11348, Note_on_c, 1, 74, 0
2, 11349, Note_on_c, 1, 71, 35
2, 11352, Note_on_c, 1, 59, 0
2, 11392, Note_on_c, 1, 80, 35
2, 11432, Note_on_c, 1, 74, 35
2, 11433, Note_on_c, 1, 80, 0
2, 11472, Note_on_c, 1, 74, 0
2, 11473, Note_on_c, 1, 71, 0
2, 11476, Note_on_c, 1, 60, 35
2, 11517, Note_on_c, 1, 83, 35
2, 11556, Note_on_c, 1, 76, 35
2, 11558, Note_on_c, 1, 83, 0
2, 11597, Note_on_c, 1, 72, 37
2, 11597, Note_on_c, 1, 76, 0
2, 11598, Note_on_c, 1, 72, 37
2, 11598, Note_on_c, 1, 72, 0
2, 11600, Note_on_c, 1, 60, 0
2, 11641, Note_on_c, 1, 81, 40
2, 11680, Note_on_c, 1, 76, 42
2, 11682, Note_on_c, 1, 81, 0
2, 11721, Note_on_c, 1, 76, 0
2, 11721, Note_on_c, 1, 72, 0
2, 11724, Note_on_c, 1, 62, 45
2, 11765, Note_on_c, 1, 84, 48
2, 11805, Note_on_c, 1, 78, 51
2, 11806, Note_on_c, 1, 84, 0
2, 11845, Note_on_c, 1, 74, 54
2, 11846, Note_on_c, 1, 78, 0
2, 11848, Note_on_c, 1, 62, 0
2, 11889, Note_on_c, 1, 83, 57
2, 11929, Note_on_c, 1, 78, 60
2, 11930, Note_on_c, 1, 83, 0
2, 11969, Note_on_c, 1, 74, 0
2, 11970, Note_on_c, 1, 78, 0
2, 11971, Note_on_c, 1, 63, 62
2, 12013, Note_on_c, 1, 84, 65
2, 12053, Note_on_c, 1, 78, 68
2, 12054, Note_on_c, 1, 84, 0
2, 12093, Note_on_c, 1, 75, 71
2, 12094, Note_on_c, 1, 78, 0
2, 12095, Note_on_c, 1, 63, 0
2, 12137, Note_on_c, 1, 83, 74
2, 12177, Note_on_c, 1, 78, 77
2, 12178, Note_on_c, 1, 83, 0
2, 12217, Note_on_c, 1, 75, 0
2, 12218, Note_on_c, 1, 76, 80
2, 12219, Note_on_c, 1, 78, 0
2, 12260, Note_on_c, 1, 79, 66
2, 12301, Note_on_c, 1, 79, 0
2, 12302, Note_on_c, 1, 83, 51
2, 12341, Note_on_c, 1, 75, 35
2, 12342, Note_on_c, 1, 76, 0
2, 12344, Note_on_c, 1, 83, 0
2, 12384, Note_on_c, 1, 78, 35
2, 12425, Note_on_c, 1, 78, 0
2, 12426, Note_on_c, 1, 83, 35
2, 12465, Note_on_c, 1, 75, 0
2, 12466, Note_on_c, 1, 76, 35
2, 12468, Note_on_c, 1, 83, 0
2, 12508, Note_on_c, 1, 79, 35
2, 12549, Note_on_c, 1, 79, 0
2, 12551, Note_on_c, 1, 83, 35
2, 12589, Note_on_c, 1, 75, 35
2, 12590, Note_on_c, 1, 76, 0
2, 12592, Note_on_c, 1, 83, 0
2, 12632, Note_on_c, 1, 78, 35
2, 12673, Note_on_c, 1, 78, 0
2, 12675, Note_on_c, 1, 83, 35
2, 12713, Note_on_c, 1, 75, 0
2, 12714, Note_on_c, 1, 76, 35
2, 12715, Note_on_c, 1, 83, 0
2, 12755, Note_on_c, 1, 79, 35
2, 12797, Note_on_c, 1, 79, 0
2, 12798, Note_on_c, 1, 83, 35
2, 12837, Note_on_c, 1, 72, 35
2, 12838, Note_on_c, 1, 76, 0
2, 12839, Note_on_c, 1, 83, 0
2, 12878, Note_on_c, 1, 76, 35
2, 12920, Note_on_c, 1, 76, 0
2, 12922, Note_on_c, 1, 81, 35
2, 12961, Note_on_c, 1, 74, 35
2, 12961, Note_on_c, 1, 72, 0
2, 12963, Note_on_c, 1, 81, 0
2, 13001, Note_on_c, 1, 71, 35
2, 13043, Note_on_c, 1, 71, 0
2, 13045, Note_on_c, 1, 79, 35
2, 13085, Note_on_c, 1, 74, 0
2, 13086, Note_on_c, 1, 79, 0
2, 13088, Note_on_c, 1, 62, 35
2, 13126, Note_on_c, 1, 69, 35
2, 13168, Note_on_c, 1, 69, 0
2, 13169, Note_on_c, 1, 78, 35
2, 13210, Note_on_c, 1, 78, 0
2, 13211, Note_on_c, 1, 67, 35
2, 13212, Note_on_c, 1, 62, 0
2, 13249, Note_on_c, 1, 71, 35
2, 13291, Note_on_c, 1, 71, 0
2, 13293, Note_on_c, 1, 79, 35
2, 13334, Note_on_c, 1, 51, 35
2, 13334, Note_on_c, 1, 79, 0
2, 13335, Note_on_c, 1, 67, 0
2, 13336, Note_on_c, 1, 63, 35
2, 13373, Note_on_c, 1, 71, 35
2, 13376, Note_on_c, 1, 78, 35
2, 13415, Note_on_c, 1, 71, 0
2, 13417, Note_on_c, 1, 78, 0
2, 13418, Note_on_c, 1, 83, 35
2, 13457, Note_on_c, 1, 51, 0
2, 13458, Note_on_c, 1, 52, 35
2, 13459, Note_on_c, 1, 83, 0
2, 13459, Note_on_c, 1, 63, 0
2, 13460, Note_on_c, 1, 64, 35
2, 13497, Note_on_c, 1, 71, 35
2, 13500, Note_on_c, 1, 78, 35
2, 13539, Note_on_c, 1, 71, 0
2, 13541, Note_on_c, 1, 78, 0
2, 13542, Note_on_c, 1, 83, 35
2, 13581, Note_on_c, 1, 51, 35
2, 13582, Note_on_c, 1, 52, 0
2, 13583, Note_on_c, 1, 63, 35
2, 13583, Note_on_c, 1, 64, 0
2, 13583, Note_on_c, 1, 83, 0
2, 13622, Note_on_c, 1, 71, 35
2, 13624, Note_on_c, 1, 78, 35
2, 13663, Note_on_c, 1, 71, 0
2, 13666, Note_on_c, 1, 78, 0
2, 13667, Note_on_c, 1, 83, 35
2, 13705, Note_on_c, 1, 51, 0
2, 13706, Note_on_c, 1, 52, 35
2, 13706, Note_on_c, 1, 63, 0
2, 13707, Note_on_c, 1, 64, 35
2, 13707, Note_on_c, 1, 83, 0
2, 13746, Note_on_c, 1, 71, 35
2, 13748, Note_on_c, 1, 79, 35
2, 13787, Note_on_c, 1, 71, 0
2, 13789, Note_on_c, 1, 79, 0
2, 13791, Note_on_c, 1, 83, 35
2, 13829, Note_on_c, 1, 48, 35
2, 13829, Note_on_c, 1, 52, 0
2, 13831, Note_on_c, 1, 64, 0
2, 13831, Note_on_c, 1, 83, 0
2, 13832, Note_on_c, 1, 60, 35
2, 13870, Note_on_c, 1, 76, 35
2, 13873, Note_on_c, 1, 81, 35
2, 13912, Note_on_c, 1, 76, 0
2, 13914, Note_on_c, 1, 84, 35
2, 13914, Note_on_c, 1, 81, 0
2, 13953, Note_on_c, 1, 48, 0
2, 13954, Note_on_c, 1, 50, 35
2, 13955, Note_on_c, 1, 84, 0
2, 13956, Note_on_c, 1, 62, 35
2, 13956, Note_on_c, 1, 60, 0
2, 13993, Note_on_c, 1, 74, 35
2, 13996, Note_on_c, 1, 79, 35
2, 14035, Note_on_c, 1, 74, 0
2, 14037, Note_on_c, 1, 79, 0
2, 14038, Note_on_c, 1, 83, 35
2, 14077, Note_on_c, 1, 50, 35
2, 14077, Note_on_c, 1, 50, 0
2, 14079, Note_on_c, 1, 83, 0
2, 14080, Note_on_c, 1, 62, 0
2, 14118, Note_on_c, 1, 72, 35
2, 14120, Note_on_c, 1, 78, 35
2, 14159, Note_on_c, 1, 72, 0
2, 14161, Note_on_c, 1, 78, 0
2, 14163, Note_on_c, 1, 81, 35
2, 14201, Note_on_c, 1, 50, 0
2, 14203, Note_on_c, 1, 43, 35
2, 14204, Note_on_c, 1, 81, 0
2, 14242, Note_on_c, 1, 71, 35
2, 14283, Note_on_c, 1, 71, 0
2, 14285, Note_on_c, 1, 79, 35
2, 14326, Note_on_c, 1, 79, 0
2, 14327, Note_on_c, 1, 55, 35
2, 14365, Note_on_c, 1, 71, 35
2, 14407, Note_on_c, 1, 71, 0
2, 14409, Note_on_c, 1, 77, 35
2, 14450, Note_on_c, 1, 77, 0
2, 14451, Note_on_c, 1, 55, 35
2, 14451, Note_on_c, 1, 55, 0
2, 14489, Note_on_c, 1, 72, 35
2, 14531, Note_on_c, 1, 72, 0
2, 14532, Note_on_c, 1, 76, 35
2, 14573, Note_on_c, 1, 76, 0
2, 14574, Note_on_c, 1, 55, 0
2, 14575, Note_on_c, 1, 55, 35
2, 14614, Note_on_c, 1, 72, 35
2, 14655, Note_on_c, 1, 72, 0
2, 14657, Note_on_c, 1, 78, 36
2, 14698, Note_on_c, 1, 78, 0
2, 14698, Note_on_c, 1, 43, 0
2, 14699, Note_on_c, 1, 43, 37
2, 14699, Note_on_c, 1, 55, 0
2, 14737, Note_on_c, 1, 71, 38
2, 14778, Note_on_c, 1, 71, 0
2, 14781, Note_on_c, 1, 79, 39
2, 14822, Note_on_c, 1, 79, 0
2, 14823, Note_on_c, 1, 55, 40
2, 14862, Note_on_c, 1, 71, 41
2, 14903, Note_on_c, 1, 71, 0
2, 14905, Note_on_c, 1, 77, 43
2, 14946, Note_on_c, 1, 77, 0
2, 14946, Note_on_c, 1, 55, 0
2, 14947, Note_on_c, 1, 55, 44
2, 14986, Note_on_c, 1, 72, 45
2, 15027, Note_on_c, 1, 72, 0
2, 15028, Note_on_c, 1, 76, 46
2, 15069, Note_on_c, 1, 76, 0
2, 15070, Note_on_c, 1, 55, 0
2, 15071, Note_on_c, 1, 55, 47
2, 15110, Note_on_c, 1, 72, 48
2, 15151, Note_on_c, 1, 72, 0
2, 15153, Note_on_c, 1, 78, 50
2, 15194, Note_on_c, 1, 79, 46
2, 15194, Note_on_c, 1, 78, 0
2, 15195, Note_on_c, 1, 43, 45
2, 15195, Note_on_c, 1, 43, 0
2, 15195, Note_on_c, 1, 55, 0
2, 15196, Note_on_c, 1, 55, 45
2, 15233, Note_on_c, 1, 74, 41
2, 15236, Note_on_c, 1, 79, 0
2, 15275, Note_on_c, 1, 71, 35
2, 15275, Note_on_c, 1, 74, 0
2, 15316, Note_on_c, 1, 71, 0
2, 15318, Note_on_c, 1, 67, 35
2, 15318, Note_on_c, 1, 43, 0
2, 15319, Note_on_c, 1, 55, 0
2, 15359, Note_on_c, 1, 67, 0
2, 15360, Note_on_c, 1, 62, 35
2, 15402, Note_on_c, 1, 59, 35
2, 15402, Note_on_c, 1, 62, 0
2, 15442, Note_on_c, 1, 67, 35
2, 15443, Note_on_c, 1, 59, 0
2, 15484, Note_on_c, 1, 62, 35
2, 15484, Note_on_c, 1, 67, 0
2, 15526, Note_on_c, 1, 59, 35
2, 15526, Note_on_c, 1, 62, 0
2, 15566, Note_on_c, 1, 55, 35
2, 15567, Note_on_c, 1, 59, 0
2, 15606, Note_on_c, 1, 50, 35
2, 15608, Note_on_c, 1, 55, 0
2, 15646, Note_on_c, 1, 50, 0
2, 15647, Note_on_c, 1, 47, 35
2, 15688, Note_on_c, 1, 47, 0
2, 15690, Note_on_c, 1, 43, 35
2, 15814, Note_on_c, 1, 43, 0
2, 16000, Note_on_c, 1, 79, 35
2, 16062, Note_on_c, 1, 79, 35
2, 16062, Note_on_c, 1, 79, 0
2, 16155, Note_on_c, 1, 78, 35
2, 16155, Note_on_c, 1, 79, 0
2, 16170, Note_on_c, 1, 79, 35
2, 16170, Note_on_c, 1, 78, 0
2, 16186, Note_on_c, 1, 79, 0
2, 16187, Note_on_c, 1, 84, 35
2, 16248, Note_on_c, 1, 79, 35
2, 16309, Note_on_c, 1, 76, 35
2, 16310, Note_on_c, 1, 79, 0
2, 16370, Note_on_c, 1, 72, 35
2, 16371, Note_on_c, 1, 76, 0
2, 16432, Note_on_c, 1, 72, 0
2, 16433, Note_on_c, 1, 48, 35
2, 16435, Note_on_c, 1, 84, 0
2, 16495, Note_on_c, 1, 52, 35
2, 16557, Note_on_c, 1, 52, 0
2, 16558, Note_on_c, 1, 55, 35
2, 16620, Note_on_c, 1, 55, 0
2, 16621, Note_on_c, 1, 60, 35
2, 16681, Note_on_c, 1, 48, 0
2, 16682, Note_on_c, 1, 79, 35
2, 16683, Note_on_c, 1, 60, 0
2, 16743, Note_on_c, 1, 76, 35
2, 16744, Note_on_c, 1, 79, 0
2, 16804, Note_on_c, 1, 72, 35
2, 16805, Note_on_c, 1, 76, 0
2, 16866, Note_on_c, 1, 72, 0
2, 16868, Note_on_c, 1, 67, 35
2, 16928, Note_on_c, 1, 48, 35
2, 16930, Note_on_c, 1, 67, 0
2, 16990, Note_on_c, 1, 48, 0
2, 16991, Note_on_c, 1, 52, 35
2, 17053, Note_on_c, 1, 52, 0
2, 17054, Note_on_c, 1, 55, 35
2, 17116, Note_on_c, 1, 55, 0
2, 17117, Note_on_c, 1, 60, 35
2, 17176, Note_on_c, 1, 48, 35
2, 17177, Note_on_c, 1, 76, 35
2, 17179, Note_on_c, 1, 60, 0
2, 17238, Note_on_c, 1, 72, 39
2, 17239, Note_on_c, 1, 76, 0
2, 17239, Note_on_c, 1, 48, 0
2, 17240, Note_on_c, 1, 52, 39
2, 17300, Note_on_c, 1, 72, 0
2, 17302, Note_on_c, 1, 67, 42
2, 17302, Note_on_c, 1, 52, 0
2, 17303, Note_on_c, 1, 55, 42
2, 17364, Note_on_c, 1, 67, 0
2, 17365, Note_on_c, 1, 64, 46
2, 17366, Note_on_c, 1, 60, 46
2, 17366, Note_on_c, 1, 55, 0
2, 17425, Note_on_c, 1, 76, 49
2, 17425, Note_on_c, 1, 48, 49
2, 17426, Note_on_c, 1, 64, 0
2, 17428, Note_on_c, 1, 60, 0
2, 17486, Note_on_c, 1, 72, 52
2, 17487, Note_on_c, 1, 76, 0
2, 17487, Note_on_c, 1, 48, 0
2, 17488, Note_on_c, 1, 52, 52
2, 17548, Note_on_c, 1, 72, 0
2, 17550, Note_on_c, 1, 67, 56
2, 17550, Note_on_c, 1, 52, 0
2, 17551, Note_on_c, 1, 55, 56
2, 17612, Note_on_c, 1, 64, 59
2, 17612, Note_on_c, 1, 67, 0
2, 17613, Note_on_c, 1, 55, 0
2, 17614, Note_on_c, 1, 60, 59
2, 17673, Note_on_c, 1, 50, 63
2, 17674, Note_on_c, 1, 67, 63
2, 17674, Note_on_c, 1, 64, 0
2, 17676, Note_on_c, 1, 62, 63
2, 17676, Note_on_c, 1, 60, 0
2, 17687, Note_on_c, 1, 72, 64
2, 17705, Note_on_c, 1, 77, 65
2, 17982, Note_on_c, 1, 72, 0
2, 17983, Note_on_c, 1, 67, 0
2, 17983, Note_on_c, 1, 50, 0
2, 17984, Note_on_c, 1, 77, 0
2, 17986, Note_on_c, 1, 62, 0
2, 17989, Note_on_c, 1, 77, 55
2, 18046, Note_on_c, 1, 77, 0
2, 18051, Note_on_c, 1, 77, 35
2, 18138, Note_on_c, 1, 76, 35
2, 18139, Note_on_c, 1, 77, 0
2, 18153, Note_on_c, 1, 76, 0
2, 18154, Note_on_c, 1, 77, 35
2, 18170, Note_on_c, 1, 77, 0
2, 18171, Note_on_c, 1, 81, 35
2, 18232, Note_on_c, 1, 77, 35
2, 18233, Note_on_c, 1, 81, 0
2, 18292, Note_on_c, 1, 74, 35
2, 18294, Note_on_c, 1, 77, 0
2, 18354, Note_on_c, 1, 71, 35
2, 18354, Note_on_c, 1, 74, 0
2, 18415, Note_on_c, 1, 71, 0
2, 18418, Note_on_c, 1, 55, 35
2, 18480, Note_on_c, 1, 55, 0
2, 18481, Note_on_c, 1, 59, 35
2, 18543, Note_on_c, 1, 62, 35
2, 18543, Note_on_c, 1, 59, 0
2, 18604, Note_on_c, 1, 65, 35
2, 18605, Note_on_c, 1, 62, 0
2, 18666, Note_on_c, 1, 77, 35
2, 18666, Note_on_c, 1, 65, 0
2, 18726, Note_on_c, 1, 74, 35
2, 18728, Note_on_c, 1, 77, 0
2, 18787, Note_on_c, 1, 71, 35
2, 18788, Note_on_c, 1, 74, 0
2, 18850, Note_on_c, 1, 71, 0
2, 18851, Note_on_c, 1, 67, 35
2, 18914, Note_on_c, 1, 43, 35
2, 18914, Note_on_c, 1, 67, 0
2, 18974, Note_on_c, 1, 50, 35
2, 18976, Note_on_c, 1, 43, 0
2, 19035, Note_on_c, 1, 50, 0
2, 19038, Note_on_c, 1, 53, 35
2, 19100, Note_on_c, 1, 55, 35
2, 19100, Note_on_c, 1, 53, 0
2, 19159, Note_on_c, 1, 74, 35
2, 19162, Note_on_c, 1, 43, 35
2, 19162, Note_on_c, 1, 55, 0
2, 19222, Note_on_c, 1, 71, 35
2, 19222, Note_on_c, 1, 74, 0
2, 19223, Note_on_c, 1, 50, 35
2, 19224, Note_on_c, 1, 43, 0
2, 19284, Note_on_c, 1, 50, 0
2, 19284, Note_on_c, 1, 71, 0
2, 19286, Note_on_c, 1, 67, 38
2, 19287, Note_on_c, 1, 53, 38
2, 19348, Note_on_c, 1, 65, 42
2, 19348, Note_on_c, 1, 53, 0
2, 19348, Note_on_c, 1, 67, 0
2, 19349, Note_on_c, 1, 55, 42
2, 19408, Note_on_c, 1, 74, 46
2, 19410, Note_on_c, 1, 55, 0
2, 19410, Note_on_c, 1, 65, 0
2, 19411, Note_on_c, 1, 43, 46
2, 19470, Note_on_c, 1, 50, 50
2, 19470, Note_on_c, 1, 71, 50
2, 19470, Note_on_c, 1, 74, 0
2, 19473, Note_on_c, 1, 43, 0
2, 19532, Note_on_c, 1, 71, 0
2, 19533, Note_on_c, 1, 50, 0
2, 19534, Note_on_c, 1, 53, 54
2, 19534, Note_on_c, 1, 67, 54
2, 19596, Note_on_c, 1, 67, 0
2, 19597, Note_on_c, 1, 55, 58
2, 19597, Note_on_c, 1, 65, 58
2, 19597, Note_on_c, 1, 53, 0
2, 19657, Note_on_c, 1, 48, 62
2, 19658, Note_on_c, 1, 67, 62
2, 19658, Note_on_c, 1, 65, 0
2, 19658, Note_on_c, 1, 55, 0
2, 19660, Note_on_c, 1, 60, 62
2, 19671, Note_on_c, 1, 71, 63
2, 19686, Note_on_c, 1, 74, 64
2, 19704, Note_on_c, 1, 77, 65
2, 19966, Note_on_c, 1, 74, 0
2, 19966, Note_on_c, 1, 71, 0
2, 19967, Note_on_c, 1, 48, 0
2, 19967, Note_on_c, 1, 67, 0
2, 19968, Note_on_c, 1, 79, 50
2, 19968, Note_on_c, 1, 77, 0
2, 19970, Note_on_c, 1, 60, 0
2, 20029, Note_on_c, 1, 79, 0
2, 20030, Note_on_c, 1, 79, 35
2, 20122, Note_on_c, 1, 79, 0
2, 20123, Note_on_c, 1, 78, 35
2, 20138, Note_on_c, 1, 79, 35
2, 20138, Note_on_c, 1, 78, 0
2, 20153, Note_on_c, 1, 79, 0
2, 20155, Note_on_c, 1, 84, 35
2, 20195, Note_on_c, 1, 64, 35
2, 20236, Note_on_c, 1, 64, 0
2, 20237, Note_on_c, 1, 67, 35
2, 20276, Note_on_c, 1, 72, 35
2, 20278, Note_on_c, 1, 67, 0
2, 20319, Note_on_c, 1, 79, 35
2, 20320, Note_on_c, 1, 84, 0
2, 20360, Note_on_c, 1, 79, 0
2, 20362, Note_on_c, 1, 83, 35
2, 20400, Note_on_c, 1, 72, 0
2, 20402, Note_on_c, 1, 83, 0
2, 20403, Note_on_c, 1, 84, 35
2, 20443, Note_on_c, 1, 84, 0
2, 20444, Note_on_c, 1, 83, 35
2, 20485, Note_on_c, 1, 81, 35
2, 20485, Note_on_c, 1, 83, 0
2, 20526, Note_on_c, 1, 79, 35
2, 20526, Note_on_c, 1, 81, 0
2, 20567, Note_on_c, 1, 77, 35
2, 20567, Note_on_c, 1, 79, 0
2, 20607, Note_on_c, 1, 76, 35
2, 20608, Note_on_c, 1, 77, 0
2, 20649, Note_on_c, 1, 76, 0
2, 20650, Note_on_c, 1, 81, 35
2, 20691, Note_on_c, 1, 65, 35
2, 20732, Note_on_c, 1, 69, 35
2, 20732, Note_on_c, 1, 65, 0
2, 20772, Note_on_c, 1, 74, 35
2, 20773, Note_on_c, 1, 69, 0
2, 20815, Note_on_c, 1, 80, 35
2, 20816, Note_on_c, 1, 81, 0
2, 20856, Note_on_c, 1, 80, 0
2, 20858, Note_on_c, 1, 83, 35
2, 20896, Note_on_c, 1, 74, 0
2, 20899, Note_on_c, 1, 81, 35
2, 20899, Note_on_c, 1, 83, 0
2, 20939, Note_on_c, 1, 79, 35
2, 20940, Note_on_c, 1, 81, 0
2, 20980, Note_on_c, 1, 77, 35
2, 20980, Note_on_c, 1, 79, 0
2, 21021, Note_on_c, 1, 76, 35
2, 21021, Note_on_c, 1, 77, 0
2, 21062, Note_on_c, 1, 76, 0
2, 21063, Note_on_c, 1, 77, 35
2, 21102, Note_on_c, 1, 74, 35
2, 21104, Note_on_c, 1, 77, 0
2, 21143, Note_on_c, 1, 74, 0
2, 21144, Note_on_c, 1, 72, 35
2, 21187, Note_on_c, 1, 55, 35
2, 21228, Note_on_c, 1, 55, 0
2, 21229, Note_on_c, 1, 60, 35
2, 21270, Note_on_c, 1, 64, 35
2, 21271, Note_on_c, 1, 60, 0
2, 21309, Note_on_c, 1, 76, 35
2, 21309, Note_on_c, 1, 72, 0
2, 21350, Note_on_c, 1, 72, 35
2, 21351, Note_on_c, 1, 76, 0
2, 21392, Note_on_c, 1, 71, 35
2, 21392, Note_on_c, 1, 72, 0
2, 21394, Note_on_c, 1, 64, 0
2, 21435, Note_on_c, 1, 55, 35
2, 21476, Note_on_c, 1, 55, 0
2, 21477, Note_on_c, 1, 62, 35
2, 21518, Note_on_c, 1, 65, 35
2, 21519, Note_on_c, 1, 62, 0
2, 21556, Note_on_c, 1, 74, 35
2, 21557, Note_on_c, 1, 71, 0
2, 21598, Note_on_c, 1, 74, 0
2, 21600, Note_on_c, 1, 79, 35
2, 21642, Note_on_c, 1, 77, 35
2, 21642, Note_on_c, 1, 79, 0
2, 21642, Note_on_c, 1, 65, 0
2, 21684, Note_on_c, 1, 60, 35
2, 21724, Note_on_c, 1, 64, 35
2, 21725, Note_on_c, 1, 60, 0
2, 21766, Note_on_c, 1, 67, 35
2, 21766, Note_on_c, 1, 64, 0
2, 21806, Note_on_c, 1, 76, 35
2, 21807, Note_on_c, 1, 77, 0
2, 21847, Note_on_c, 1, 76, 0
2, 21848, Note_on_c, 1, 77, 35
2, 21890, Note_on_c, 1, 78, 35
2, 21890, Note_on_c, 1, 77, 0
2, 21890, Note_on_c, 1, 67, 0
2, 21931, Note_on_c, 1, 79, 35
2, 21931, Note_on_c, 1, 78, 0
2, 21972, Note_on_c, 1, 80, 38
2, 21972, Note_on_c, 1, 79, 0
2, 22013, Note_on_c, 1, 80, 0
2, 22015, Note_on_c, 1, 81, 45
2, 22056, Note_on_c, 1, 82, 51
2, 22056, Note_on_c, 1, 81, 0
2, 22097, Note_on_c, 1, 83, 58
2, 22097, Note_on_c, 1, 82, 0
2, 22139, Note_on_c, 1, 84, 35
2, 22139, Note_on_c, 1, 83, 0
2, 22179, Note_on_c, 1, 64, 36
2, 22220, Note_on_c, 1, 67, 37
2, 22220, Note_on_c, 1, 64, 0
2, 22259, Note_on_c, 1, 72, 38
2, 22261, Note_on_c, 1, 67, 0
2, 22302, Note_on_c, 1, 79, 39
2, 22304, Note_on_c, 1, 84, 0
2, 22344, Note_on_c, 1, 79, 0
2, 22345, Note_on_c, 1, 83, 41
2, 22384, Note_on_c, 1, 72, 0
2, 22386, Note_on_c, 1, 84, 42
2, 22386, Note_on_c, 1, 83, 0
2, 22428, Note_on_c, 1, 83, 43
2, 22428, Note_on_c, 1, 84, 0
2, 22469, Note_on_c, 1, 81, 44
2, 22469, Note_on_c, 1, 83, 0
2, 22509, Note_on_c, 1, 79, 46
2, 22511, Note_on_c, 1, 81, 0
2, 22551, Note_on_c, 1, 77, 47
2, 22551, Note_on_c, 1, 79, 0
2, 22591, Note_on_c, 1, 76, 48
2, 22592, Note_on_c, 1, 77, 0
2, 22633, Note_on_c, 1, 76, 0
2, 22634, Note_on_c, 1, 81, 49
2, 22675, Note_on_c, 1, 65, 51
2, 22715, Note_on_c, 1, 69, 52
2, 22716, Note_on_c, 1, 65, 0
2, 22755, Note_on_c, 1, 74, 53
2, 22756, Note_on_c, 1, 69, 0
2, 22799, Note_on_c, 1, 80, 55
2, 22800, Note_on_c, 1, 81, 0
2, 22840, Note_on_c, 1, 80, 0
2, 22841, Note_on_c, 1, 83, 56
2, 22880, Note_on_c, 1, 74, 0
2, 22882, Note_on_c, 1, 81, 57
2, 22882, Note_on_c, 1, 83, 0
2, 22923, Note_on_c, 1, 79, 58
2, 22924, Note_on_c, 1, 81, 0
2, 22964, Note_on_c, 1, 77, 60
2, 22964, Note_on_c, 1, 79, 0
2, 23004, Note_on_c, 1, 76, 61
2, 23005, Note_on_c, 1, 77, 0
2, 23046, Note_on_c, 1, 77, 62
2, 23046, Note_on_c, 1, 76, 0
2, 23086, Note_on_c, 1, 74, 63
2, 23088, Note_on_c, 1, 77, 0
2, 23127, Note_on_c, 1, 74, 0
2, 23129, Note_on_c, 1, 79, 65
2, 23170, Note_on_c, 1, 55, 65
2, 23212, Note_on_c, 1, 55, 0
2, 23213, Note_on_c, 1, 60, 65
2, 23253, Note_on_c, 1, 64, 65
2, 23255, Note_on_c, 1, 60, 0
2, 23294, Note_on_c, 1, 76, 65
2, 23295, Note_on_c, 1, 79, 0
2, 23334, Note_on_c, 1, 72, 65
2, 23335, Note_on_c, 1, 76, 0
2, 23376, Note_on_c, 1, 72, 0
2, 23377, Note_on_c, 1, 77, 65
2, 23378, Note_on_c, 1, 64, 0
2, 23418, Note_on_c, 1, 55, 65
2, 23460, Note_on_c, 1, 55, 0
2, 23461, Note_on_c, 1, 62, 65
2, 23501, Note_on_c, 1, 65, 65
2, 23503, Note_on_c, 1, 62, 0
2, 23541, Note_on_c, 1, 74, 65
2, 23543, Note_on_c, 1, 77, 0
2, 23582, Note_on_c, 1, 71, 65
2, 23582, Note_on_c, 1, 74, 0
2, 23623, Note_on_c, 1, 71, 0
2, 23624, Note_on_c, 1, 48, 65
2, 23624, Note_on_c, 1, 72, 65
2, 23626, Note_on_c, 1, 65, 0
2, 23686, Note_on_c, 1, 52, 65
2, 23686, Note_on_c, 1, 48, 0
2, 23747, Note_on_c, 1, 72, 0
2, 23749, Note_on_c, 1, 52, 0
2, 23750, Note_on_c, 1, 55, 65
2, 23811, Note_on_c, 1, 55, 0
2, 23812, Note_on_c, 1, 60, 65
2, 23871, Note_on_c, 1, 48, 65
2, 23875, Note_on_c, 1, 60, 0
2, 23933, Note_on_c, 1, 72, 65
2, 23995, Note_on_c, 1, 72, 0
2, 23996, Note_on_c, 1, 72, 65
2, 23996, Note_on_c, 1, 48, 0
2, 24088, Note_on_c, 1, 72, 0
2, 24089, Note_on_c, 1, 71, 65
2, 24104, Note_on_c, 1, 72, 65
2, 24104, Note_on_c, 1, 71, 0
2, 24119, Note_on_c, 1, 72, 0
2, 24122, Note_on_c, 1, 78, 65
2, 24123, Note_on_c, 1, 57, 65
2, 24184, Note_on_c, 1, 60, 65
2, 24184, Note_on_c, 1, 57, 0
2, 24245, Note_on_c, 1, 66, 65
2, 24245, Note_on_c, 1, 78, 0
2, 24247, Note_on_c, 1, 60, 0
2, 24307, Note_on_c, 1, 69, 65
2, 24307, Note_on_c, 1, 66, 0
2, 24368, Note_on_c, 1, 69, 0
2, 24370, Note_on_c, 1, 57, 65
2, 24429, Note_on_c, 1, 72, 65
2, 24491, Note_on_c, 1, 72, 65
2, 24491, Note_on_c, 1, 72, 0
2, 24495, Note_on_c, 1, 57, 0
2, 24584, Note_on_c, 1, 72, 0
2, 24585, Note_on_c, 1, 71, 65
2, 24600, Note_on_c, 1, 72, 65
2, 24600, Note_on_c, 1, 71, 0
2, 24615, Note_on_c, 1, 72, 0
2, 24618, Note_on_c, 1, 54, 65
2, 24619, Note_on_c, 1, 84, 65
2, 24679, Note_on_c, 1, 54, 0
2, 24680, Note_on_c, 1, 57, 65
2, 24742, Note_on_c, 1, 62, 65
2, 24742, Note_on_c, 1, 57, 0
2, 24783, Note_on_c, 1, 83, 65
2, 24784, Note_on_c, 1, 84, 0
2, 24803, Note_on_c, 1, 66, 65
2, 24804, Note_on_c, 1, 62, 0
2, 24825, Note_on_c, 1, 81, 65
2, 24825, Note_on_c, 1, 83, 0
2, 24865, Note_on_c, 1, 79, 65
2, 24866, Note_on_c, 1, 54, 65
2, 24866, Note_on_c, 1, 81, 0
2, 24866, Note_on_c, 1, 66, 0
2, 24906, Note_on_c, 1, 78, 65
2, 24907, Note_on_c, 1, 79, 0
2, 24947, Note_on_c, 1, 76, 65
2, 24948, Note_on_c, 1, 78, 0
2, 24987, Note_on_c, 1, 74, 65
2, 24988, Note_on_c, 1, 76, 0
2, 24990, Note_on_c, 1, 54, 0
2, 25029, Note_on_c, 1, 74, 0
2, 25030, Note_on_c, 1, 76, 65
2, 25069, Note_on_c, 1, 72, 65
2, 25071, Note_on_c, 1, 76, 0
2, 25111, Note_on_c, 1, 72, 0
2, 25114, Note_on_c, 1, 55, 75
2, 25152, Note_on_c, 1, 71, 35
2, 25194, Note_on_c, 1, 74, 35
2, 25194, Note_on_c, 1, 71, 0
2, 25235, Note_on_c, 1, 74, 0
2, 25237, Note_on_c, 1, 55, 0
2, 25239, Note_on_c, 1, 59, 35
2, 25278, Note_on_c, 1, 79, 35
2, 25318, Note_on_c, 1, 74, 35
2, 25320, Note_on_c, 1, 79, 0
2, 25359, Note_on_c, 1, 74, 0
2, 25362, Note_on_c, 1, 62, 35
2, 25363, Note_on_c, 1, 59, 0
2, 25403, Note_on_c, 1, 79, 35
2, 25442, Note_on_c, 1, 74, 35
2, 25444, Note_on_c, 1, 79, 0
2, 25483, Note_on_c, 1, 74, 0
2, 25486, Note_on_c, 1, 67, 35
2, 25486, Note_on_c, 1, 62, 0
2, 25528, Note_on_c, 1, 83, 35
2, 25566, Note_on_c, 1, 74, 35
2, 25569, Note_on_c, 1, 83, 0
2, 25607, Note_on_c, 1, 74, 0
2, 25609, Note_on_c, 1, 69, 35
2, 25609, Note_on_c, 1, 67, 0
2, 25651, Note_on_c, 1, 84, 35
2, 25690, Note_on_c, 1, 74, 35
2, 25693, Note_on_c, 1, 84, 0
2, 25731, Note_on_c, 1, 74, 0
2, 25732, Note_on_c, 1, 69, 0
2, 25734, Note_on_c, 1, 66, 35
2, 25775, Note_on_c, 1, 81, 35
2, 25814, Note_on_c, 1, 74, 35
2, 25817, Note_on_c, 1, 81, 0
2, 25855, Note_on_c, 1, 74, 0
2, 25857, Note_on_c, 1, 66, 0
2, 25859, Note_on_c, 1, 62, 35
2, 25898, Note_on_c, 1, 78, 35
2, 25938, Note_on_c, 1, 74, 35
2, 25940, Note_on_c, 1, 78, 0
2, 25979, Note_on_c, 1, 74, 0
2, 25982, Note_on_c, 1, 60, 35
2, 25982, Note_on_c, 1, 62, 0
2, 26023, Note_on_c, 1, 81, 35
2, 26062, Note_on_c, 1, 74, 35
2, 26064, Note_on_c, 1, 81, 0
2, 26103, Note_on_c, 1, 74, 0
2, 26106, Note_on_c, 1, 59, 35
2, 26106, Note_on_c, 1, 60, 0
2, 26146, Note_on_c, 1, 79, 35
2, 26186, Note_on_c, 1, 74, 35
2, 26187, Note_on_c, 1, 79, 0
2, 26227, Note_on_c, 1, 74, 0
2, 26230, Note_on_c, 1, 62, 35
2, 26230, Note_on_c, 1, 59, 0
2, 26271, Note_on_c, 1, 83, 37
2, 26310, Note_on_c, 1, 74, 39
2, 26312, Note_on_c, 1, 83, 0
2, 26351, Note_on_c, 1, 74, 0
2, 26353, Note_on_c, 1, 66, 41
2, 26354, Note_on_c, 1, 62, 0
2, 26395, Note_on_c, 1, 81, 43
2, 26434, Note_on_c, 1, 74, 45
2, 26436, Note_on_c, 1, 81, 0
2, 26475, Note_on_c, 1, 74, 0
2, 26477, Note_on_c, 1, 67, 47
2, 26477, Note_on_c, 1, 66, 0
2, 26519, Note_on_c, 1, 83, 49
2, 26557, Note_on_c, 1, 74, 51
2, 26560, Note_on_c, 1, 83, 0
2, 26598, Note_on_c, 1, 74, 0
2, 26600, Note_on_c, 1, 69, 53
2, 26601, Note_on_c, 1, 67, 0
2, 26643, Note_on_c, 1, 84, 55
2, 26682, Note_on_c, 1, 74, 54
2, 26684, Note_on_c, 1, 84, 0
2, 26723, Note_on_c, 1, 74, 0
2, 26724, Note_on_c, 1, 69, 0
2, 26726, Note_on_c, 1, 66, 52
2, 26767, Note_on_c, 1, 81, 50
2, 26805, Note_on_c, 1, 74, 48
2, 26808, Note_on_c, 1, 81, 0
2, 26847, Note_on_c, 1, 74, 0
2, 26849, Note_on_c, 1, 66, 0
2, 26851, Note_on_c, 1, 62, 47
2, 26890, Note_on_c, 1, 78, 45
2, 26929, Note_on_c, 1, 74, 43
2, 26931, Note_on_c, 1, 78, 0
2, 26971, Note_on_c, 1, 74, 0
2, 26974, Note_on_c, 1, 62, 0
2, 26975, Note_on_c, 1, 60, 41
2, 27015, Note_on_c, 1, 81, 40
2, 27054, Note_on_c, 1, 74, 38
2, 27057, Note_on_c, 1, 81, 0
2, 27095, Note_on_c, 1, 74, 0
2, 27098, Note_on_c, 1, 60, 0
2, 27099, Note_on_c, 1, 59, 36
2, 27138, Note_on_c, 1, 79, 35
2, 27178, Note_on_c, 1, 74, 35
2, 27180, Note_on_c, 1, 79, 0
2, 27219, Note_on_c, 1, 74, 0
2, 27220, Note_on_c, 1, 71, 35
2, 27222, Note_on_c, 1, 59, 0
2, 27262, Note_on_c, 1, 80, 35
2, 27302, Note_on_c, 1, 74, 35
2, 27304, Note_on_c, 1, 80, 0
2, 27343, Note_on_c, 1, 74, 0
2, 27343, Note_on_c, 1, 71, 0
2, 27347, Note_on_c, 1, 60, 35
2, 27387, Note_on_c, 1, 83, 35
2, 27427, Note_on_c, 1, 76, 35
2, 27429, Note_on_c, 1, 83, 0
2, 27467, Note_on_c, 1, 72, 35
2, 27468, Note_on_c, 1, 72, 35
2, 27468, Note_on_c, 1, 72, 0
2, 27468, Note_on_c, 1, 76, 0
2, 27470, Note_on_c, 1, 60, 0
2, 27511, Note_on_c, 1, 81, 35
2, 27551, Note_on_c, 1, 76, 35
2, 27552, Note_on_c, 1, 81, 0
2, 27591, Note_on_c, 1, 72, 0
2, 27592, Note_on_c, 1, 76, 0
2, 27594, Note_on_c, 1, 62, 35
2, 27635, Note_on_c, 1, 84, 35
2, 27676, Note_on_c, 1, 78, 35
2, 27676, Note_on_c, 1, 84, 0
2, 27715, Note_on_c, 1, 74, 35
2, 27717, Note_on_c, 1, 78, 0
2, 27718, Note_on_c, 1, 62, 0
2, 27759, Note_on_c, 1, 83, 35
2, 27800, Note_on_c, 1, 78, 35
2, 27800, Note_on_c, 1, 83, 0
2, 27839, Note_on_c, 1, 74, 0
2, 27841, Note_on_c, 1, 63, 35
2, 27841, Note_on_c, 1, 78, 0
2, 27883, Note_on_c, 1, 84, 35
2, 27924, Note_on_c, 1, 78, 35
2, 27924, Note_on_c, 1, 84, 0
2, 27963, Note_on_c, 1, 75, 35
2, 27965, Note_on_c, 1, 78, 0
2, 27965, Note_on_c, 1, 63, 0
2, 28007, Note_on_c, 1, 83, 35
2, 28048, Note_on_c, 1, 78, 35
2, 28048, Note_on_c, 1, 83, 0
2, 28087, Note_on_c, 1, 75, 0
2, 28088, Note_on_c, 1, 76, 35
2, 28089, Note_on_c, 1, 78, 0
2, 28130, Note_on_c, 1, 79, 35
2, 28172, Note_on_c, 1, 83, 35
2, 28172, Note_on_c, 1, 79, 0
2, 28211, Note_on_c, 1, 75, 35
2, 28212, Note_on_c, 1, 76, 0
2, 28214, Note_on_c, 1, 83, 0
2, 28254, Note_on_c, 1, 78, 35
2, 28295, Note_on_c, 1, 78, 0
2, 28297, Note_on_c, 1, 83, 35
2, 28335, Note_on_c, 1, 75, 0
2, 28336, Note_on_c, 1, 76, 35
2, 28337, Note_on_c, 1, 83, 0
2, 28378, Note_on_c, 1, 79, 35
2, 28419, Note_on_c, 1, 79, 0
2, 28421, Note_on_c, 1, 83, 35
2, 28459, Note_on_c, 1, 75, 35
2, 28460, Note_on_c, 1, 76, 0
2, 28462, Note_on_c, 1, 83, 0
2, 28502, Note_on_c, 1, 78, 35
2, 28543, Note_on_c, 1, 78, 0
2, 28545, Note_on_c, 1, 83, 35
2, 28583, Note_on_c, 1, 75, 0
2, 28584, Note_on_c, 1, 76, 35
2, 28585, Note_on_c, 1, 83, 0
2, 28626, Note_on_c, 1, 79, 35
2, 28667, Note_on_c, 1, 79, 0
2, 28668, Note_on_c, 1, 83, 35
2, 28707, Note_on_c, 1, 72, 35
2, 28708, Note_on_c, 1, 76, 0
2, 28709, Note_on_c, 1, 83, 0
2, 28749, Note_on_c, 1, 76, 35
2, 28790, Note_on_c, 1, 76, 0
2, 28792, Note_on_c, 1, 81, 35
2, 28831, Note_on_c, 1, 74, 35
2, 28831, Note_on_c, 1, 72, 0
2, 28833, Note_on_c, 1, 81, 0
2, 28872, Note_on_c, 1, 71, 35
2, 28913, Note_on_c, 1, 71, 0
2, 28915, Note_on_c, 1, 79, 35
2, 28955, Note_on_c, 1, 74, 0
2, 28956, Note_on_c, 1, 79, 0
2, 28958, Note_on_c, 1, 62, 35
2, 28997, Note_on_c, 1, 69, 35
2, 29038, Note_on_c, 1, 69, 0
2, 29039, Note_on_c, 1, 78, 35
2, 29081, Note_on_c, 1, 67, 35
2, 29081, Note_on_c, 1, 78, 0
2, 29082, Note_on_c, 1, 62, 0
2, 29120, Note_on_c, 1, 71, 35
2, 29161, Note_on_c, 1, 71, 0
2, 29163, Note_on_c, 1, 79, 35
2, 29203, Note_on_c, 1, 51, 35
2, 29204, Note_on_c, 1, 51, 80
2, 29205, Note_on_c, 1, 79, 0
2, 29205, Note_on_c, 1, 67, 0
2, 29206, Note_on_c, 1, 63, 80
2, 29243, Note_on_c, 1, 51, 0
2, 29244, Note_on_c, 1, 71, 80
2, 29246, Note_on_c, 1, 78, 80
2, 29285, Note_on_c, 1, 71, 0
2, 29288, Note_on_c, 1, 78, 0
2, 29289, Note_on_c, 1, 83, 80
2, 29327, Note_on_c, 1, 51, 0
2, 29328, Note_on_c, 1, 52, 80
2, 29329, Note_on_c, 1, 83, 0
2, 29329, Note_on_c, 1, 63, 0
2, 29330, Note_on_c, 1, 64, 80
2, 29368, Note_on_c, 1, 71, 80
2, 29370, Note_on_c, 1, 78, 80
2, 29410, Note_on_c, 1, 71, 0
2, 29411, Note_on_c, 1, 78, 0
2, 29413, Note_on_c, 1, 83, 80
2, 29452, Note_on_c, 1, 51, 80
2, 29452, Note_on_c, 1, 52, 0
2, 29453, Note_on_c, 1, 64, 0
2, 29454, Note_on_c, 1, 63, 80
2, 29454, Note_on_c, 1, 83, 0
2, 29492, Note_on_c, 1, 71, 80
2, 29494, Note_on_c, 1, 78, 80
2, 29533, Note_on_c, 1, 71, 0
2, 29535, Note_on_c, 1, 78, 0
2, 29537, Note_on_c, 1, 83, 80
2, 29575, Note_on_c, 1, 51, 0
2, 29577, Note_on_c, 1, 52, 80
2, 29577, Note_on_c, 1, 63, 0
2, 29578, Note_on_c, 1, 64, 80
2, 29578, Note_on_c, 1, 83, 0
2, 29616, Note_on_c, 1, 71, 80
2, 29618, Note_on_c, 1, 79, 80
2, 29657, Note_on_c, 1, 71, 0
2, 29659, Note_on_c, 1, 79, 0
2, 29661, Note_on_c, 1, 83, 80
2, 29700, Note_on_c, 1, 48, 80
2, 29700, Note_on_c, 1, 52, 0
2, 29701, Note_on_c, 1, 64, 0
2, 29701, Note_on_c, 1, 83, 0
2, 29703, Note_on_c, 1, 60, 80
2, 29741, Note_on_c, 1, 76, 80
2, 29743, Note_on_c, 1, 81, 80
2, 29782, Note_on_c, 1, 76, 0
2, 29784, Note_on_c, 1, 84, 80
2, 29784, Note_on_c, 1, 81, 0
2, 29823, Note_on_c, 1, 48, 0
2, 29824, Note_on_c, 1, 50, 80
2, 29825, Note_on_c, 1, 84, 0
2, 29826, Note_on_c, 1, 62, 80
2, 29826, Note_on_c, 1, 60, 0
2, 29864, Note_on_c, 1, 74, 80
2, 29866, Note_on_c, 1, 79, 80
2, 29905, Note_on_c, 1, 74, 0
2, 29908, Note_on_c, 1, 79, 0
2, 29909, Note_on_c, 1, 83, 80
2, 29947, Note_on_c, 1, 50, 80
2, 29947, Note_on_c, 1, 50, 0
2, 29949, Note_on_c, 1, 83, 0
2, 29950, Note_on_c, 1, 62, 0
2, 29987, Note_on_c, 1, 72, 80
2, 29990, Note_on_c, 1, 78, 80
2, 30029, Note_on_c, 1, 72, 0
2, 30031, Note_on_c, 1, 78, 0
2, 30032, Note_on_c, 1, 81, 80
2, 30071, Note_on_c, 1, 50, 0
2, 30073, Note_on_c, 1, 43, 80
2, 30073, Note_on_c, 1, 81, 0
2, 30111, Note_on_c, 1, 71, 80
2, 30153, Note_on_c, 1, 71, 0
2, 30155, Note_on_c, 1, 79, 80
2, 30196, Note_on_c, 1, 79, 0
2, 30197, Note_on_c, 1, 55, 80
2, 30236, Note_on_c, 1, 71, 80
2, 30277, Note_on_c, 1, 71, 0
2, 30279, Note_on_c, 1, 77, 80
2, 30321, Note_on_c, 1, 55, 80
2, 30321, Note_on_c, 1, 77, 0
2, 30321, Note_on_c, 1, 55, 0
2, 30360, Note_on_c, 1, 72, 80
2, 30401, Note_on_c, 1, 72, 0
2, 30402, Note_on_c, 1, 76, 80
2, 30444, Note_on_c, 1, 76, 0
2, 30445, Note_on_c, 1, 55, 80
2, 30445, Note_on_c, 1, 55, 0
2, 30484, Note_on_c, 1, 72, 80
2, 30525, Note_on_c, 1, 72, 0
2, 30527, Note_on_c, 1, 78, 78
2, 30569, Note_on_c, 1, 78, 0
2, 30569, Note_on_c, 1, 55, 0
2, 30569, Note_on_c, 1, 43, 0
2, 30570, Note_on_c, 1, 43, 77
2, 30608, Note_on_c, 1, 71, 75
2, 30649, Note_on_c, 1, 71, 0
2, 30651, Note_on_c, 1, 79, 74
2, 30692, Note_on_c, 1, 79, 0
2, 30693, Note_on_c, 1, 55, 73
2, 30732, Note_on_c, 1, 71, 71
2, 30773, Note_on_c, 1, 71, 0
2, 30776, Note_on_c, 1, 77, 70
2, 30816, Note_on_c, 1, 77, 0
2, 30817, Note_on_c, 1, 55, 69
2, 30817, Note_on_c, 1, 55, 0
2, 30856, Note_on_c, 1, 72, 67
2, 30897, Note_on_c, 1, 72, 0
2, 30899, Note_on_c, 1, 76, 66
2, 30939, Note_on_c, 1, 76, 0
2, 30941, Note_on_c, 1, 55, 65
2, 30941, Note_on_c, 1, 55, 0
2, 30980, Note_on_c, 1, 72, 63
2, 31021, Note_on_c, 1, 72, 0
2, 31023, Note_on_c, 1, 78, 62
2, 31064, Note_on_c, 1, 78, 0
2, 31065, Note_on_c, 1, 79, 61
2, 31065, Note_on_c, 1, 55, 0
2, 31065, Note_on_c, 1, 43, 0
2, 31066, Note_on_c, 1, 55, 60
2, 31066, Note_on_c, 1, 43, 60
2, 31104, Note_on_c, 1, 74, 35
2, 31106, Note_on_c, 1, 79, 0
2, 31145, Note_on_c, 1, 71, 35
2, 31145, Note_on_c, 1, 74, 0
2, 31186, Note_on_c, 1, 71, 0
2, 31189, Note_on_c, 1, 67, 35
2, 31189, Note_on_c, 1, 43, 0
2, 31189, Note_on_c, 1, 55, 0
2, 31230, Note_on_c, 1, 67, 0
2, 31231, Note_on_c, 1, 62, 35
2, 31272, Note_on_c, 1, 59, 35
2, 31272, Note_on_c, 1, 62, 0
2, 31313, Note_on_c, 1, 67, 35
2, 31313, Note_on_c, 1, 59, 0
2, 31354, Note_on_c, 1, 67, 0
2, 31355, Note_on_c, 1, 62, 35
2, 31396, Note_on_c, 1, 59, 35
2, 31396, Note_on_c, 1, 62, 0
2, 31437, Note_on_c, 1, 55, 35
2, 31437, Note_on_c, 1, 59, 0
2, 31476, Note_on_c, 1, 50, 35
2, 31477, Note_on_c, 1, 55, 0
2, 31517, Note_on_c, 1, 47, 35
2, 31517, Note_on_c, 1, 50, 0
2, 31558, Note_on_c, 1, 47, 0
2, 31561, Note_on_c, 1, 43, 35
2, 31684, Note_on_c, 1, 43, 0
2, 31870, Note_on_c, 1, 79, 65
2, 31933, Note_on_c, 1, 79, 65
2, 31933, Note_on_c, 1, 79, 0
2, 32025, Note_on_c, 1, 79, 0
2, 32026, Note_on_c, 1, 78, 65
2, 32041, Note_on_c, 1, 79, 65
2, 32041, Note_on_c, 1, 78, 0
2, 32056, Note_on_c, 1, 79, 0
2, 32057, Note_on_c, 1, 82, 65
2, 32119, Note_on_c, 1, 79, 65
2, 32120, Note_on_c, 1, 82, 0
2, 32179, Note_on_c, 1, 75, 65
2, 32180, Note_on_c, 1, 79, 0
2, 32240, Note_on_c, 1, 75, 0
2, 32241, Note_on_c, 1, 70, 65
2, 32302, Note_on_c, 1, 70, 0
2, 32303, Note_on_c, 1, 51, 65
2, 32364, Note_on_c, 1, 51, 0
2, 32367, Note_on_c, 1, 55, 65
2, 32429, Note_on_c, 1, 58, 65
2, 32429, Note_on_c, 1, 55, 0
2, 32490, Note_on_c, 1, 63, 65
2, 32491, Note_on_c, 1, 58, 0
2, 32552, Note_on_c, 1, 79, 65
2, 32553, Note_on_c, 1, 63, 0
2, 32612, Note_on_c, 1, 75, 65
2, 32614, Note_on_c, 1, 79, 0
2, 32675, Note_on_c, 1, 70, 65
2, 32675, Note_on_c, 1, 75, 0
2, 32737, Note_on_c, 1, 70, 0
2, 32739, Note_on_c, 1, 67, 65
2, 32798, Note_on_c, 1, 51, 65
2, 32800, Note_on_c, 1, 67, 0
2, 32861, Note_on_c, 1, 51, 0
2, 32863, Note_on_c, 1, 55, 65
2, 32925, Note_on_c, 1, 58, 65
2, 32925, Note_on_c, 1, 55, 0
2, 32986, Note_on_c, 1, 63, 65
2, 32988, Note_on_c, 1, 58, 0
2, 33047, Note_on_c, 1, 51, 65
2, 33048, Note_on_c, 1, 79, 65
2, 33049, Note_on_c, 1, 63, 0
2, 33108, Note_on_c, 1, 75, 66
2, 33109, Note_on_c, 1, 51, 0
2, 33110, Note_on_c, 1, 79, 0
2, 33111, Note_on_c, 1, 55, 66
2, 33170, Note_on_c, 1, 70, 68
2, 33170, Note_on_c, 1, 75, 0
2, 33173, Note_on_c, 1, 55, 0
2, 33174, Note_on_c, 1, 58, 68
2, 33232, Note_on_c, 1, 70, 0
2, 33234, Note_on_c, 1, 67, 70
2, 33235, Note_on_c, 1, 63, 70
2, 33236, Note_on_c, 1, 58, 0
2, 33295, Note_on_c, 1, 51, 71
2, 33296, Note_on_c, 1, 67, 0
2, 33297, Note_on_c, 1, 79, 71
2, 33297, Note_on_c, 1, 63, 0
2, 33356, Note_on_c, 1, 75, 73
2, 33357, Note_on_c, 1, 51, 0
2, 33358, Note_on_c, 1, 79, 0
2, 33359, Note_on_c, 1, 55, 73
2, 33418, Note_on_c, 1, 70, 75
2, 33418, Note_on_c, 1, 75, 0
2, 33421, Note_on_c, 1, 55, 0
2, 33422, Note_on_c, 1, 58, 75
2, 33480, Note_on_c, 1, 70, 0
2, 33482, Note_on_c, 1, 67, 76
2, 33483, Note_on_c, 1, 63, 77
2, 33484, Note_on_c, 1, 58, 0
2, 33543, Note_on_c, 1, 68, 78
2, 33544, Note_on_c, 1, 67, 0
2, 33545, Note_on_c, 1, 65, 78
2, 33545, Note_on_c, 1, 53, 78
2, 33545, Note_on_c, 1, 63, 0
2, 33557, Note_on_c, 1, 70, 79
2, 33573, Note_on_c, 1, 75, 79
2, 33591, Note_on_c, 1, 80, 80
2, 33853, Note_on_c, 1, 75, 0
2, 33853, Note_on_c, 1, 70, 0
2, 33854, Note_on_c, 1, 68, 0
2, 33855, Note_on_c, 1, 80, 0
2, 33856, Note_on_c, 1, 53, 0
2, 33856, Note_on_c, 1, 65, 0
2, 34040, Note_on_c, 1, 80, 35
2, 34040, Note_on_c, 1, 53, 35
2, 34101, Note_on_c, 1, 74, 35
2, 34102, Note_on_c, 1, 80, 0
2, 34103, Note_on_c, 1, 53, 0
2, 34104, Note_on_c, 1, 58, 35
2, 34162, Note_on_c, 1, 70, 35
2, 34162, Note_on_c, 1, 74, 0
2, 34166, Note_on_c, 1, 62, 35
2, 34166, Note_on_c, 1, 58, 0
2, 34224, Note_on_c, 1, 70, 0
2, 34226, Note_on_c, 1, 68, 35
2, 34227, Note_on_c, 1, 65, 35
2, 34228, Note_on_c, 1, 62, 0
2, 34288, Note_on_c, 1, 68, 0
2, 34289, Note_on_c, 1, 80, 35
2, 34289, Note_on_c, 1, 53, 35
2, 34289, Note_on_c, 1, 65, 0
2, 34349, Note_on_c, 1, 74, 35
2, 34350, Note_on_c, 1, 80, 0
2, 34351, Note_on_c, 1, 53, 0
2, 34352, Note_on_c, 1, 58, 35
2, 34410, Note_on_c, 1, 70, 35
2, 34410, Note_on_c, 1, 74, 0
2, 34413, Note_on_c, 1, 58, 0
2, 34414, Note_on_c, 1, 62, 35
2, 34472, Note_on_c, 1, 70, 0
2, 34474, Note_on_c, 1, 68, 35
2, 34475, Note_on_c, 1, 65, 35
2, 34476, Note_on_c, 1, 62, 0
2, 34534, Note_on_c, 1, 70, 35
2, 34535, Note_on_c, 1, 68, 0
2, 34536, Note_on_c, 1, 65, 0
2, 34537, Note_on_c, 1, 67, 35
2, 34537, Note_on_c, 1, 55, 35
2, 34550, Note_on_c, 1, 73, 35
2, 34567, Note_on_c, 1, 78, 35
2, 34584, Note_on_c, 1, 82, 35
2, 34844, Note_on_c, 1, 73, 0
2, 34844, Note_on_c, 1, 70, 0
2, 34847, Note_on_c, 1, 78, 0
2, 34847, Note_on_c, 1, 55, 0
2, 34848, Note_on_c, 1, 67, 0
2, 34848, Note_on_c, 1, 82, 0
2, 35033, Note_on_c, 1, 82, 42
2, 35033, Note_on_c, 1, 55, 42
2, 35093, Note_on_c, 1, 76, 45
2, 35095, Note_on_c, 1, 55, 0
2, 35095, Note_on_c, 1, 82, 0
2, 35096, Note_on_c, 1, 61, 45
2, 35154, Note_on_c, 1, 73, 48
2, 35155, Note_on_c, 1, 76, 0
2, 35157, Note_on_c, 1, 64, 48
2, 35158, Note_on_c, 1, 61, 0
2, 35216, Note_on_c, 1, 70, 51
2, 35216, Note_on_c, 1, 73, 0
2, 35219, Note_on_c, 1, 67, 51
2, 35219, Note_on_c, 1, 64, 0
2, 35278, Note_on_c, 1, 70, 0
2, 35281, Note_on_c, 1, 82, 55
2, 35281, Note_on_c, 1, 55, 55
2, 35281, Note_on_c, 1, 67, 0
2, 35341, Note_on_c, 1, 76, 58
2, 35343, Note_on_c, 1, 55, 0
2, 35343, Note_on_c, 1, 82, 0
2, 35344, Note_on_c, 1, 61, 58
2, 35402, Note_on_c, 1, 73, 61
2, 35403, Note_on_c, 1, 76, 0
2, 35405, Note_on_c, 1, 64, 61
2, 35406, Note_on_c, 1, 61, 0
2, 35464, Note_on_c, 1, 70, 64
2, 35464, Note_on_c, 1, 73, 0
2, 35467, Note_on_c, 1, 67, 65
2, 35467, Note_on_c, 1, 64, 0
2, 35526, Note_on_c, 1, 70, 0
2, 35529, Note_on_c, 1, 56, 35
2, 35529, Note_on_c, 1, 67, 0
2, 35591, Note_on_c, 1, 82, 35
2, 35652, Note_on_c, 1, 77, 35
2, 35652, Note_on_c, 1, 68, 35
2, 35653, Note_on_c, 1, 82, 0
2, 35653, Note_on_c, 1, 56, 0
2, 35712, Note_on_c, 1, 72, 35
2, 35714, Note_on_c, 1, 77, 0
2, 35774, Note_on_c, 1, 72, 0
2, 35775, Note_on_c, 1, 68, 0
2, 35776, Note_on_c, 1, 68, 35
2, 35839, Note_on_c, 1, 84, 35
2, 35900, Note_on_c, 1, 77, 35
2, 35900, Note_on_c, 1, 68, 35
2, 35900, Note_on_c, 1, 68, 0
2, 35901, Note_on_c, 1, 84, 0
2, 35960, Note_on_c, 1, 72, 35
2, 35962, Note_on_c, 1, 77, 0
2, 36022, Note_on_c, 1, 72, 0
2, 36023, Note_on_c, 1, 68, 0
2, 36025, Note_on_c, 1, 55, 35
2, 36087, Note_on_c, 1, 84, 35
2, 36147, Note_on_c, 1, 76, 35
2, 36149, Note_on_c, 1, 67, 35
2, 36149, Note_on_c, 1, 84, 0
2, 36149, Note_on_c, 1, 55, 0
2, 36208, Note_on_c, 1, 72, 35
2, 36209, Note_on_c, 1, 76, 0
2, 36270, Note_on_c, 1, 72, 0
2, 36273, Note_on_c, 1, 67, 35
2, 36273, Note_on_c, 1, 67, 0
2, 36335, Note_on_c, 1, 82, 35
2, 36395, Note_on_c, 1, 76, 35
2, 36396, Note_on_c, 1, 67, 0
2, 36397, Note_on_c, 1, 67, 35
2, 36397, Note_on_c, 1, 82, 0
2, 36456, Note_on_c, 1, 72, 35
2, 36457, Note_on_c, 1, 76, 0
2, 36518, Note_on_c, 1, 72, 0
2, 36520, Note_on_c, 1, 53, 35
2, 36520, Note_on_c, 1, 67, 0
2, 36583, Note_on_c, 1, 82, 35
2, 36644, Note_on_c, 1, 77, 35
2, 36645, Note_on_c, 1, 65, 35
2, 36645, Note_on_c, 1, 82, 0
2, 36645, Note_on_c, 1, 53, 0
2, 36704, Note_on_c, 1, 72, 35
2, 36706, Note_on_c, 1, 77, 0
2, 36766, Note_on_c, 1, 72, 0
2, 36768, Note_on_c, 1, 65, 0
2, 36769, Note_on_c, 1, 65, 35
2, 36830, Note_on_c, 1, 80, 35
2, 36890, Note_on_c, 1, 72, 35
2, 36892, Note_on_c, 1, 80, 0
2, 36893, Note_on_c, 1, 65, 35
2, 36893, Note_on_c, 1, 65, 0
2, 36952, Note_on_c, 1, 72, 0
2, 36953, Note_on_c, 1, 68, 35
2, 37015, Note_on_c, 1, 51, 35
2, 37015, Note_on_c, 1, 68, 0
2, 37016, Note_on_c, 1, 65, 0
2, 37078, Note_on_c, 1, 80, 35
2, 37138, Note_on_c, 1, 70, 35
2, 37138, Note_on_c, 1, 51, 0
2, 37140, Note_on_c, 1, 80, 0
2, 37141, Note_on_c, 1, 63, 35
2, 37200, Note_on_c, 1, 70, 0
2, 37201, Note_on_c, 1, 68, 35
2, 37263, Note_on_c, 1, 68, 0
2, 37264, Note_on_c, 1, 63, 35
2, 37264, Note_on_c, 1, 63, 0
2, 37326, Note_on_c, 1, 78, 35
2, 37386, Note_on_c, 1, 72, 35
2, 37388, Note_on_c, 1, 78, 0
2, 37388, Note_on_c, 1, 63, 0
2, 37389, Note_on_c, 1, 63, 35
2, 37447, Note_on_c, 1, 72, 0
2, 37449, Note_on_c, 1, 69, 35
2, 37511, Note_on_c, 1, 69, 0
2, 37512, Note_on_c, 1, 77, 20
2, 37512, Note_on_c, 1, 63, 0
2, 37572, Note_on_c, 1, 73, 20
2, 37574, Note_on_c, 1, 77, 0
2, 37634, Note_on_c, 1, 73, 0
2, 37635, Note_on_c, 1, 68, 20
2, 37697, Note_on_c, 1, 68, 0
2, 37698, Note_on_c, 1, 65, 20
2, 37758, Note_on_c, 1, 49, 20
2, 37760, Note_on_c, 1, 65, 0
2, 37820, Note_on_c, 1, 49, 0
2, 37822, Note_on_c, 1, 53, 20
2, 37884, Note_on_c, 1, 53, 0
2, 37885, Note_on_c, 1, 56, 20
2, 37946, Note_on_c, 1, 56, 0
2, 37947, Note_on_c, 1, 61, 20
2, 38008, Note_on_c, 1, 77, 20
2, 38009, Note_on_c, 1, 61, 0
2, 38068, Note_on_c, 1, 73, 20
2, 38069, Note_on_c, 1, 77, 0
2, 38130, Note_on_c, 1, 73, 0
2, 38131, Note_on_c, 1, 68, 20
2, 38193, Note_on_c, 1, 68, 0
2, 38194, Note_on_c, 1, 65, 20
2, 38254, Note_on_c, 1, 49, 20
2, 38256, Note_on_c, 1, 65, 0
2, 38316, Note_on_c, 1, 49, 0
2, 38318, Note_on_c, 1, 53, 20
2, 38380, Note_on_c, 1, 56, 20
2, 38380, Note_on_c, 1, 53, 0
2, 38442, Note_on_c, 1, 56, 0
2, 38443, Note_on_c, 1, 61, 20
2, 38504, Note_on_c, 1, 77, 20
2, 38505, Note_on_c, 1, 61, 0
2, 38510, Note_on_c, 1, 61, 20
2, 38564, Note_on_c, 1, 73, 22
2, 38565, Note_on_c, 1, 77, 0
2, 38626, Note_on_c, 1, 73, 0
2, 38627, Note_on_c, 1, 68, 24
2, 38689, Note_on_c, 1, 68, 0
2, 38690, Note_on_c, 1, 65, 26
2, 38752, Note_on_c, 1, 77, 28
2, 38752, Note_on_c, 1, 65, 0
2, 38754, Note_on_c, 1, 60, 28
2, 38754, Note_on_c, 1, 61, 0
2, 38812, Note_on_c, 1, 72, 30
2, 38814, Note_on_c, 1, 77, 0
2, 38874, Note_on_c, 1, 72, 0
2, 38875, Note_on_c, 1, 68, 32
2, 38937, Note_on_c, 1, 68, 0
2, 38938, Note_on_c, 1, 65, 34
2, 39000, Note_on_c, 1, 77, 34
2, 39000, Note_on_c, 1, 65, 0
2, 39001, Note_on_c, 1, 60, 0
2, 39002, Note_on_c, 1, 59, 34
2, 39060, Note_on_c, 1, 74, 32
2, 39062, Note_on_c, 1, 77, 0
2, 39121, Note_on_c, 1, 74, 0
2, 39123, Note_on_c, 1, 68, 31
2, 39184, Note_on_c, 1, 68, 0
2, 39186, Note_on_c, 1, 65, 29
2, 39246, Note_on_c, 1, 75, 27
2, 39247, Note_on_c, 1, 65, 0
2, 39249, Note_on_c, 1, 60, 27
2, 39249, Note_on_c, 1, 59, 0
2, 39307, Note_on_c, 1, 75, 0
2, 39308, Note_on_c, 1, 72, 25
2, 39370, Note_on_c, 1, 72, 0
2, 39372, Note_on_c, 1, 67, 23
2, 39434, Note_on_c, 1, 63, 22
2, 39434, Note_on_c, 1, 67, 0
2, 39494, Note_on_c, 1, 74, 35
2, 39496, Note_on_c, 1, 63, 0
2, 39497, Note_on_c, 1, 53, 35
2, 39498, Note_on_c, 1, 60, 0
2, 39556, Note_on_c, 1, 72, 35
2, 39556, Note_on_c, 1, 74, 0
2, 39618, Note_on_c, 1, 72, 0
2, 39619, Note_on_c, 1, 68, 35
2, 39680, Note_on_c, 1, 68, 0
2, 39683, Note_on_c, 1, 62, 35
2, 39742, Note_on_c, 1, 74, 35
2, 39745, Note_on_c, 1, 62, 0
2, 39804, Note_on_c, 1, 72, 35
2, 39804, Note_on_c, 1, 74, 0
2, 39865, Note_on_c, 1, 72, 0
2, 39867, Note_on_c, 1, 68, 35
2, 39868, Note_on_c, 1, 53, 0
2, 39873, Note_on_c, 1, 53, 35
2, 39928, Note_on_c, 1, 68, 0
2, 39931, Note_on_c, 1, 62, 35
2, 39990, Note_on_c, 1, 74, 35
2, 39992, Note_on_c, 1, 54, 35
2, 39992, Note_on_c, 1, 62, 0
2, 39992, Note_on_c, 1, 53, 0
2, 40051, Note_on_c, 1, 74, 0
2, 40052, Note_on_c, 1, 72, 35
2, 40114, Note_on_c, 1, 72, 0
2, 40115, Note_on_c, 1, 69, 35
2, 40177, Note_on_c, 1, 69, 0
2, 40179, Note_on_c, 1, 62, 35
2, 40238, Note_on_c, 1, 74, 35
2, 40240, Note_on_c, 1, 62, 0
2, 40299, Note_on_c, 1, 74, 0
2, 40300, Note_on_c, 1, 72, 35
2, 40362, Note_on_c, 1, 72, 0
2, 40363, Note_on_c, 1, 69, 35
2, 40364, Note_on_c, 1, 54, 0
2, 40369, Note_on_c, 1, 54, 35
2, 40425, Note_on_c, 1, 69, 0
2, 40427, Note_on_c, 1, 62, 35
2, 40488, Note_on_c, 1, 62, 0
2, 40527, Note_on_c, 1, 71, 35
2, 40568, Note_on_c, 1, 74, 35
2, 40568, Note_on_c, 1, 71, 0
2, 40610, Note_on_c, 1, 74, 0
2, 40611, Note_on_c, 1, 79, 35
2, 40653, Note_on_c, 1, 54, 0
2, 40654, Note_on_c, 1, 59, 35
2, 40695, Note_on_c, 1, 62, 35
2, 40695, Note_on_c, 1, 59, 0
2, 40735, Note_on_c, 1, 79, 0
2, 40736, Note_on_c, 1, 55, 35
2, 40737, Note_on_c, 1, 62, 0
2, 40775, Note_on_c, 1, 72, 35
2, 40816, Note_on_c, 1, 75, 35
2, 40816, Note_on_c, 1, 72, 0
2, 40857, Note_on_c, 1, 75, 0
2, 40859, Note_on_c, 1, 79, 35
2, 40901, Note_on_c, 1, 55, 0
2, 40902, Note_on_c, 1, 60, 35
2, 40942, Note_on_c, 1, 63, 35
2, 40943, Note_on_c, 1, 60, 0
2, 40983, Note_on_c, 1, 79, 0
2, 40984, Note_on_c, 1, 55, 35
2, 40984, Note_on_c, 1, 63, 0
2, 41023, Note_on_c, 1, 74, 35
2, 41064, Note_on_c, 1, 74, 0
2, 41066, Note_on_c, 1, 77, 35
2, 41107, Note_on_c, 1, 79, 35
2, 41107, Note_on_c, 1, 77, 0
2, 41149, Note_on_c, 1, 55, 0
2, 41150, Note_on_c, 1, 62, 35
2, 41190, Note_on_c, 1, 65, 35
2, 41191, Note_on_c, 1, 62, 0
2, 41232, Note_on_c, 1, 55, 35
2, 41232, Note_on_c, 1, 65, 0
2, 41232, Note_on_c, 1, 79, 0
2, 41271, Note_on_c, 1, 72, 35
2, 41312, Note_on_c, 1, 75, 35
2, 41312, Note_on_c, 1, 72, 0
2, 41354, Note_on_c, 1, 75, 0
2, 41356, Note_on_c, 1, 79, 35
2, 41397, Note_on_c, 1, 60, 35
2, 41397, Note_on_c, 1, 55, 0
2, 41438, Note_on_c, 1, 63, 35
2, 41439, Note_on_c, 1, 60, 0
2, 41480, Note_on_c, 1, 55, 35
2, 41480, Note_on_c, 1, 63, 0
2, 41480, Note_on_c, 1, 79, 0
2, 41519, Note_on_c, 1, 71, 37
2, 41560, Note_on_c, 1, 74, 39
2, 41560, Note_on_c, 1, 71, 0
2, 41602, Note_on_c, 1, 74, 0
2, 41604, Note_on_c, 1, 79, 42
2, 41645, Note_on_c, 1, 55, 0
2, 41646, Note_on_c, 1, 59, 44
2, 41687, Note_on_c, 1, 62, 47
2, 41687, Note_on_c, 1, 59, 0
2, 41728, Note_on_c, 1, 55, 50
2, 41728, Note_on_c, 1, 79, 0
2, 41729, Note_on_c, 1, 62, 0
2, 41767, Note_on_c, 1, 72, 52
2, 41808, Note_on_c, 1, 72, 0
2, 41809, Note_on_c, 1, 75, 55
2, 41850, Note_on_c, 1, 75, 0
2, 41852, Note_on_c, 1, 80, 57
2, 41893, Note_on_c, 1, 55, 0
2, 41894, Note_on_c, 1, 60, 59
2, 41935, Note_on_c, 1, 63, 62
2, 41935, Note_on_c, 1, 60, 0
2, 41976, Note_on_c, 1, 55, 65
2, 41976, Note_on_c, 1, 63, 0
2, 41976, Note_on_c, 1, 80, 0
2, 42015, Note_on_c, 1, 73, 67
2, 42056, Note_on_c, 1, 73, 0
2, 42057, Note_on_c, 1, 76, 69
2, 42099, Note_on_c, 1, 76, 0
2, 42100, Note_on_c, 1, 81, 72
2, 42141, Note_on_c, 1, 55, 0
2, 42142, Note_on_c, 1, 61, 74
2, 42183, Note_on_c, 1, 64, 77
2, 42183, Note_on_c, 1, 61, 0
2, 42224, Note_on_c, 1, 55, 80
2, 42224, Note_on_c, 1, 64, 0
2, 42224, Note_on_c, 1, 81, 0
2, 42262, Note_on_c, 1, 74, 80
2, 42304, Note_on_c, 1, 74, 0
2, 42306, Note_on_c, 1, 77, 80
2, 42348, Note_on_c, 1, 82, 80
2, 42348, Note_on_c, 1, 77, 0
2, 42389, Note_on_c, 1, 55, 0
2, 42390, Note_on_c, 1, 62, 80
2, 42431, Note_on_c, 1, 65, 80
2, 42431, Note_on_c, 1, 62, 0
2, 42472, Note_on_c, 1, 55, 80
2, 42472, Note_on_c, 1, 65, 0
2, 42472, Note_on_c, 1, 82, 0
2, 42510, Note_on_c, 1, 74, 80
2, 42552, Note_on_c, 1, 74, 0
2, 42554, Note_on_c, 1, 77, 80
2, 42595, Note_on_c, 1, 77, 0
2, 42597, Note_on_c, 1, 83, 80
2, 42637, Note_on_c, 1, 55, 0
2, 42638, Note_on_c, 1, 62, 80
2, 42679, Note_on_c, 1, 65, 80
2, 42679, Note_on_c, 1, 62, 0
2, 42720, Note_on_c, 1, 83, 0
2, 42843, Note_on_c, 1, 65, 0
2, 43277, Note_on_c, 1, 79, 35
2, 43339, Note_on_c, 1, 79, 35
2, 43339, Note_on_c, 1, 79, 0
2, 43432, Note_on_c, 1, 78, 35
2, 43432, Note_on_c, 1, 79, 0
2, 43448, Note_on_c, 1, 79, 35
2, 43448, Note_on_c, 1, 78, 0
2, 43463, Note_on_c, 1, 79, 0
2, 43465, Note_on_c, 1, 84, 35
2, 43525, Note_on_c, 1, 79, 35
2, 43526, Note_on_c, 1, 84, 0
2, 43586, Note_on_c, 1, 76, 35
2, 43587, Note_on_c, 1, 79, 0
2, 43647, Note_on_c, 1, 72, 35
2, 43648, Note_on_c, 1, 76, 0
2, 43709, Note_on_c, 1, 48, 35
2, 43709, Note_on_c, 1, 72, 0
2, 43771, Note_on_c, 1, 48, 0
2, 43772, Note_on_c, 1, 52, 35
2, 43834, Note_on_c, 1, 52, 0
2, 43835, Note_on_c, 1, 55, 35
2, 43897, Note_on_c, 1, 55, 0
2, 43899, Note_on_c, 1, 60, 35
2, 43959, Note_on_c, 1, 79, 35
2, 43960, Note_on_c, 1, 60, 0
2, 44020, Note_on_c, 1, 76, 35
2, 44021, Note_on_c, 1, 79, 0
2, 44081, Note_on_c, 1, 72, 35
2, 44082, Note_on_c, 1, 76, 0
2, 44143, Note_on_c, 1, 72, 0
2, 44145, Note_on_c, 1, 67, 35
2, 44206, Note_on_c, 1, 48, 35
2, 44207, Note_on_c, 1, 67, 0
2, 44268, Note_on_c, 1, 52, 35
2, 44268, Note_on_c, 1, 48, 0
2, 44330, Note_on_c, 1, 52, 0
2, 44331, Note_on_c, 1, 55, 35
2, 44393, Note_on_c, 1, 55, 0
2, 44394, Note_on_c, 1, 60, 35
2, 44454, Note_on_c, 1, 76, 35
2, 44454, Note_on_c, 1, 48, 35
2, 44456, Note_on_c, 1, 60, 0
2, 44515, Note_on_c, 1, 72, 35
2, 44516, Note_on_c, 1, 52, 35
2, 44516, Note_on_c, 1, 48, 0
2, 44516, Note_on_c, 1, 76, 0
2, 44577, Note_on_c, 1, 72, 0
2, 44579, Note_on_c, 1, 55, 41
2, 44579, Note_on_c, 1, 67, 41
2, 44579, Note_on_c, 1, 52, 0
2, 44641, Note_on_c, 1, 64, 47
2, 44641, Note_on_c, 1, 67, 0
2, 44642, Note_on_c, 1, 60, 47
2, 44642, Note_on_c, 1, 55, 0
2, 44702, Note_on_c, 1, 76, 53
2, 44702, Note_on_c, 1, 48, 53
2, 44703, Note_on_c, 1, 64, 0
2, 44705, Note_on_c, 1, 60, 0
2, 44763, Note_on_c, 1, 72, 59
2, 44764, Note_on_c, 1, 52, 59
2, 44764, Note_on_c, 1, 76, 0
2, 44764, Note_on_c, 1, 48, 0
2, 44825, Note_on_c, 1, 72, 0
2, 44827, Note_on_c, 1, 67, 65
2, 44827, Note_on_c, 1, 52, 0
2, 44828, Note_on_c, 1, 55, 65
2, 44889, Note_on_c, 1, 64, 71
2, 44889, Note_on_c, 1, 67, 0
2, 44890, Note_on_c, 1, 60, 71
2, 44890, Note_on_c, 1, 55, 0
2, 44950, Note_on_c, 1, 50, 77
2, 44951, Note_on_c, 1, 67, 77
2, 44951, Note_on_c, 1, 64, 0
2, 44953, Note_on_c, 1, 62, 77
2, 44953, Note_on_c, 1, 60, 0
2, 44964, Note_on_c, 1, 72, 78
2, 44982, Note_on_c, 1, 77, 80
2, 45259, Note_on_c, 1, 72, 0
2, 45260, Note_on_c, 1, 50, 0
2, 45261, Note_on_c, 1, 67, 0
2, 45262, Note_on_c, 1, 77, 35
2, 45262, Note_on_c, 1, 77, 0
2, 45264, Note_on_c, 1, 62, 0
2, 45323, Note_on_c, 1, 77, 0
2, 45328, Note_on_c, 1, 77, 35
2, 45415, Note_on_c, 1, 76, 35
2, 45416, Note_on_c, 1, 77, 0
2, 45430, Note_on_c, 1, 76, 0
2, 45432, Note_on_c, 1, 77, 35
2, 45447, Note_on_c, 1, 77, 0
2, 45448, Note_on_c, 1, 81, 35
2, 45509, Note_on_c, 1, 77, 35
2, 45510, Note_on_c, 1, 81, 0
2, 45569, Note_on_c, 1, 74, 35
2, 45571, Note_on_c, 1, 77, 0
2, 45631, Note_on_c, 1, 71, 35
2, 45631, Note_on_c, 1, 74, 0
2, 45693, Note_on_c, 1, 71, 0
2, 45695, Note_on_c, 1, 55, 35
2, 45757, Note_on_c, 1, 55, 0
2, 45758, Note_on_c, 1, 59, 35
2, 45820, Note_on_c, 1, 62, 35
2, 45820, Note_on_c, 1, 59, 0
2, 45881, Note_on_c, 1, 65, 35
2, 45883, Note_on_c, 1, 62, 0
2, 45943, Note_on_c, 1, 77, 35
2, 45943, Note_on_c, 1, 65, 0
2, 46003, Note_on_c, 1, 74, 35
2, 46005, Note_on_c, 1, 77, 0
2, 46065, Note_on_c, 1, 71, 35
2, 46065, Note_on_c, 1, 74, 0
2, 46127, Note_on_c, 1, 71, 0
2, 46129, Note_on_c, 1, 67, 35
2, 46191, Note_on_c, 1, 43, 35
2, 46191, Note_on_c, 1, 67, 0
2, 46192, Note_on_c, 1, 43, 35
2, 46220, Note_on_c, 1, 43, 0
2, 46251, Note_on_c, 1, 50, 35
2, 46253, Note_on_c, 1, 43, 0
2, 46313, Note_on_c, 1, 50, 0
2, 46315, Note_on_c, 1, 53, 35
2, 46377, Note_on_c, 1, 55, 35
2, 46377, Note_on_c, 1, 53, 0
2, 46437, Note_on_c, 1, 74, 37
2, 46439, Note_on_c, 1, 43, 37
2, 46440, Note_on_c, 1, 55, 0
2, 46499, Note_on_c, 1, 71, 42
2, 46499, Note_on_c, 1, 74, 0
2, 46500, Note_on_c, 1, 50, 42
2, 46502, Note_on_c, 1, 43, 0
2, 46560, Note_on_c, 1, 71, 0
2, 46561, Note_on_c, 1, 50, 0
2, 46563, Note_on_c, 1, 53, 47
2, 46563, Note_on_c, 1, 67, 47
2, 46625, Note_on_c, 1, 65, 51
2, 46625, Note_on_c, 1, 67, 0
2, 46626, Note_on_c, 1, 55, 52
2, 46626, Note_on_c, 1, 53, 0
2, 46685, Note_on_c, 1, 74, 56
2, 46686, Note_on_c, 1, 65, 0
2, 46687, Note_on_c, 1, 43, 56
2, 46687, Note_on_c, 1, 55, 0
2, 46747, Note_on_c, 1, 71, 61
2, 46747, Note_on_c, 1, 74, 0
2, 46748, Note_on_c, 1, 50, 61
2, 46750, Note_on_c, 1, 43, 0
2, 46809, Note_on_c, 1, 71, 0
2, 46810, Note_on_c, 1, 50, 0
2, 46811, Note_on_c, 1, 67, 66
2, 46812, Note_on_c, 1, 53, 66
2, 46873, Note_on_c, 1, 65, 71
2, 46873, Note_on_c, 1, 67, 0
2, 46874, Note_on_c, 1, 55, 71
2, 46874, Note_on_c, 1, 53, 0
2, 46934, Note_on_c, 1, 48, 76
2, 46935, Note_on_c, 1, 67, 76
2, 46935, Note_on_c, 1, 65, 0
2, 46936, Note_on_c, 1, 55, 0
2, 46937, Note_on_c, 1, 60, 76
2, 46948, Note_on_c, 1, 71, 77
2, 46964, Note_on_c, 1, 74, 78
2, 46981, Note_on_c, 1, 77, 80
2, 47243, Note_on_c, 1, 71, 0
2, 47244, Note_on_c, 1, 74, 0
2, 47245, Note_on_c, 1, 48, 0
2, 47245, Note_on_c, 1, 67, 0
2, 47245, Note_on_c, 1, 77, 0
2, 47246, Note_on_c, 1, 79, 35
2, 47247, Note_on_c, 1, 60, 0
2, 47307, Note_on_c, 1, 79, 0
2, 47312, Note_on_c, 1, 79, 35
2, 47400, Note_on_c, 1, 78, 35
2, 47400, Note_on_c, 1, 79, 0
2, 47415, Note_on_c, 1, 78, 0
2, 47416, Note_on_c, 1, 79, 35
2, 47431, Note_on_c, 1, 79, 0
2, 47432, Note_on_c, 1, 84, 35
2, 47472, Note_on_c, 1, 64, 35
2, 47513, Note_on_c, 1, 64, 0
2, 47514, Note_on_c, 1, 67, 35
2, 47514, Note_on_c, 1, 67, 35
2, 47543, Note_on_c, 1, 67, 0
2, 47553, Note_on_c, 1, 72, 35
2, 47555, Note_on_c, 1, 67, 0
2, 47596, Note_on_c, 1, 79, 35
2, 47597, Note_on_c, 1, 84, 0
2, 47637, Note_on_c, 1, 79, 0
2, 47639, Note_on_c, 1, 83, 35
2, 47677, Note_on_c, 1, 72, 0
2, 47679, Note_on_c, 1, 84, 35
2, 47680, Note_on_c, 1, 83, 0
2, 47721, Note_on_c, 1, 83, 35
2, 47721, Note_on_c, 1, 84, 0
2, 47763, Note_on_c, 1, 81, 35
2, 47763, Note_on_c, 1, 83, 0
2, 47803, Note_on_c, 1, 79, 35
2, 47804, Note_on_c, 1, 81, 0
2, 47844, Note_on_c, 1, 77, 35
2, 47844, Note_on_c, 1, 79, 0
2, 47884, Note_on_c, 1, 76, 35
2, 47885, Note_on_c, 1, 77, 0
2, 47926, Note_on_c, 1, 76, 0
2, 47928, Note_on_c, 1, 81, 35
2, 47968, Note_on_c, 1, 65, 35
2, 48008, Note_on_c, 1, 69, 35
2, 48010, Note_on_c, 1, 65, 0
2, 48049, Note_on_c, 1, 74, 35
2, 48050, Note_on_c, 1, 69, 0
2, 48092, Note_on_c, 1, 80, 35
2, 48093, Note_on_c, 1, 81, 0
2, 48133, Note_on_c, 1, 80, 0
2, 48135, Note_on_c, 1, 83, 35
2, 48173, Note_on_c, 1, 74, 0
2, 48176, Note_on_c, 1, 81, 35
2, 48176, Note_on_c, 1, 83, 0
2, 48216, Note_on_c, 1, 79, 35
2, 48217, Note_on_c, 1, 81, 0
2, 48257, Note_on_c, 1, 77, 35
2, 48257, Note_on_c, 1, 79, 0
2, 48297, Note_on_c, 1, 76, 35
2, 48299, Note_on_c, 1, 77, 0
2, 48339, Note_on_c, 1, 76, 0
2, 48340, Note_on_c, 1, 77, 35
2, 48379, Note_on_c, 1, 74, 35
2, 48381, Note_on_c, 1, 77, 0
2, 48420, Note_on_c, 1, 74, 0
2, 48421, Note_on_c, 1, 72, 35
2, 48464, Note_on_c, 1, 55, 35
2, 48506, Note_on_c, 1, 55, 0
2, 48507, Note_on_c, 1, 60, 35
2, 48547, Note_on_c, 1, 64, 35
2, 48548, Note_on_c, 1, 60, 0
2, 48586, Note_on_c, 1, 72, 0
2, 48587, Note_on_c, 1, 76, 35
2, 48628, Note_on_c, 1, 72, 35
2, 48628, Note_on_c, 1, 76, 0
2, 48669, Note_on_c, 1, 71, 35
2, 48669, Note_on_c, 1, 72, 0
2, 48671, Note_on_c, 1, 64, 0
2, 48712, Note_on_c, 1, 55, 35
2, 48753, Note_on_c, 1, 55, 0
2, 48755, Note_on_c, 1, 62, 35
2, 48795, Note_on_c, 1, 65, 35
2, 48796, Note_on_c, 1, 62, 0
2, 48834, Note_on_c, 1, 74, 35
2, 48834, Note_on_c, 1, 71, 0
2, 48876, Note_on_c, 1, 74, 0
2, 48877, Note_on_c, 1, 79, 35
2, 48919, Note_on_c, 1, 77, 35
2, 48919, Note_on_c, 1, 79, 0
2, 48919, Note_on_c, 1, 65, 0
2, 48961, Note_on_c, 1, 60, 35
2, 49002, Note_on_c, 1, 64, 35
2, 49002, Note_on_c, 1, 60, 0
2, 49043, Note_on_c, 1, 67, 35
2, 49043, Note_on_c, 1, 64, 0
2, 49083, Note_on_c, 1, 76, 35
2, 49084, Note_on_c, 1, 77, 0
2, 49125, Note_on_c, 1, 77, 38
2, 49125, Note_on_c, 1, 76, 0
2, 49167, Note_on_c, 1, 78, 42
2, 49167, Note_on_c, 1, 77, 0
2, 49167, Note_on_c, 1, 67, 0
2, 49208, Note_on_c, 1, 79, 46
2, 49208, Note_on_c, 1, 78, 0
2, 49249, Note_on_c, 1, 80, 50
2, 49249, Note_on_c, 1, 79, 0
2, 49290, Note_on_c, 1, 80, 0
2, 49292, Note_on_c, 1, 81, 53
2, 49333, Note_on_c, 1, 82, 57
2, 49333, Note_on_c, 1, 81, 0
2, 49374, Note_on_c, 1, 83, 61
2, 49374, Note_on_c, 1, 82, 0
2, 49415, Note_on_c, 1, 84, 65
2, 49416, Note_on_c, 1, 83, 0
2, 49456, Note_on_c, 1, 64, 65
2, 49497, Note_on_c, 1, 64, 0
2, 49498, Note_on_c, 1, 67, 65
2, 49537, Note_on_c, 1, 72, 65
2, 49539, Note_on_c, 1, 67, 0
2, 49580, Note_on_c, 1, 79, 65
2, 49581, Note_on_c, 1, 84, 0
2, 49622, Note_on_c, 1, 83, 65
2, 49622, Note_on_c, 1, 79, 0
2, 49661, Note_on_c, 1, 72, 0
2, 49664, Note_on_c, 1, 84, 65
2, 49664, Note_on_c, 1, 83, 0
2, 49704, Note_on_c, 1, 79, 65
2, 49705, Note_on_c, 1, 84, 0
2, 49745, Note_on_c, 1, 79, 0
2, 49746, Note_on_c, 1, 83, 65
2, 49787, Note_on_c, 1, 84, 65
2, 49788, Note_on_c, 1, 83, 0
2, 49828, Note_on_c, 1, 79, 65
2, 49829, Note_on_c, 1, 84, 0
2, 49869, Note_on_c, 1, 79, 0
2, 49870, Note_on_c, 1, 83, 65
2, 49911, Note_on_c, 1, 84, 65
2, 49912, Note_on_c, 1, 83, 0
2, 49952, Note_on_c, 1, 64, 65
2, 49993, Note_on_c, 1, 67, 65
2, 49993, Note_on_c, 1, 64, 0
2, 50032, Note_on_c, 1, 72, 65
2, 50034, Note_on_c, 1, 67, 0
2, 50075, Note_on_c, 1, 79, 65
2, 50077, Note_on_c, 1, 84, 0
2, 50117, Note_on_c, 1, 79, 0
2, 50118, Note_on_c, 1, 82, 65
2, 50157, Note_on_c, 1, 72, 0
2, 50160, Note_on_c, 1, 84, 65
2, 50160, Note_on_c, 1, 82, 0
2, 50200, Note_on_c, 1, 79, 65
2, 50201, Note_on_c, 1, 84, 0
2, 50241, Note_on_c, 1, 79, 0
2, 50242, Note_on_c, 1, 82, 65
2, 50284, Note_on_c, 1, 84, 65
2, 50284, Note_on_c, 1, 82, 0
2, 50324, Note_on_c, 1, 79, 65
2, 50325, Note_on_c, 1, 84, 0
2, 50365, Note_on_c, 1, 79, 0
2, 50366, Note_on_c, 1, 82, 65
2, 50408, Note_on_c, 1, 84, 60
2, 50408, Note_on_c, 1, 82, 0
2, 50448, Note_on_c, 1, 65, 50
2, 50477, Note_on_c, 1, 65, 0
2, 50488, Note_on_c, 1, 69, 35
2, 50529, Note_on_c, 1, 72, 35
2, 50529, Note_on_c, 1, 69, 0
2, 50572, Note_on_c, 1, 77, 35
2, 50573, Note_on_c, 1, 84, 0
2, 50613, Note_on_c, 1, 77, 0
2, 50614, Note_on_c, 1, 81, 35
2, 50653, Note_on_c, 1, 72, 0
2, 50655, Note_on_c, 1, 82, 35
2, 50655, Note_on_c, 1, 81, 0
2, 50697, Note_on_c, 1, 58, 35
2, 50738, Note_on_c, 1, 62, 35
2, 50738, Note_on_c, 1, 58, 0
2, 50778, Note_on_c, 1, 67, 35
2, 50779, Note_on_c, 1, 62, 0
2, 50818, Note_on_c, 1, 74, 35
2, 50820, Note_on_c, 1, 82, 0
2, 50859, Note_on_c, 1, 74, 0
2, 50861, Note_on_c, 1, 79, 35
2, 50902, Note_on_c, 1, 79, 0
2, 50903, Note_on_c, 1, 81, 35
2, 50903, Note_on_c, 1, 67, 0
2, 50945, Note_on_c, 1, 60, 35
2, 50985, Note_on_c, 1, 65, 35
2, 50986, Note_on_c, 1, 60, 0
2, 51025, Note_on_c, 1, 69, 35
2, 51026, Note_on_c, 1, 65, 0
2, 51066, Note_on_c, 1, 72, 35
2, 51068, Note_on_c, 1, 81, 0
2, 51107, Note_on_c, 1, 72, 0
2, 51109, Note_on_c, 1, 77, 35
2, 51150, Note_on_c, 1, 69, 0
2, 51151, Note_on_c, 1, 79, 35
2, 51151, Note_on_c, 1, 77, 0
2, 51190, Note_on_c, 1, 48, 35
2, 51231, Note_on_c, 1, 48, 0
2, 51233, Note_on_c, 1, 55, 35
2, 51275, Note_on_c, 1, 55, 0
2, 51276, Note_on_c, 1, 60, 35
2, 51314, Note_on_c, 1, 70, 35
2, 51316, Note_on_c, 1, 79, 0
2, 51355, Note_on_c, 1, 70, 0
2, 51356, Note_on_c, 1, 76, 35
2, 51397, Note_on_c, 1, 76, 0
2, 51399, Note_on_c, 1, 53, 35
2, 51400, Note_on_c, 1, 60, 0
2, 51440, Note_on_c, 1, 77, 35
2, 51479, Note_on_c, 1, 72, 35
2, 51481, Note_on_c, 1, 77, 0
2, 51520, Note_on_c, 1, 72, 0
2, 51523, Note_on_c, 1, 53, 0
2, 51524, Note_on_c, 1, 60, 35
2, 51564, Note_on_c, 1, 81, 35
2, 51565, Note_on_c, 1, 81, 35
2, 51593, Note_on_c, 1, 81, 0
2, 51603, Note_on_c, 1, 72, 35
2, 51606, Note_on_c, 1, 81, 0
2, 51644, Note_on_c, 1, 72, 0
2, 51647, Note_on_c, 1, 65, 35
2, 51648, Note_on_c, 1, 60, 0
2, 51688, Note_on_c, 1, 81, 35
2, 51727, Note_on_c, 1, 72, 35
2, 51730, Note_on_c, 1, 81, 0
2, 51768, Note_on_c, 1, 72, 0
2, 51770, Note_on_c, 1, 69, 35
2, 51771, Note_on_c, 1, 65, 0
2, 51812, Note_on_c, 1, 84, 35
2, 51851, Note_on_c, 1, 72, 35
2, 51854, Note_on_c, 1, 84, 0
2, 51892, Note_on_c, 1, 72, 0
2, 51894, Note_on_c, 1, 69, 0
2, 51895, Note_on_c, 1, 67, 35
2, 51936, Note_on_c, 1, 82, 35
2, 51975, Note_on_c, 1, 72, 35
2, 51978, Note_on_c, 1, 82, 0
2, 52016, Note_on_c, 1, 72, 0
2, 52019, Note_on_c, 1, 64, 35
2, 52019, Note_on_c, 1, 67, 0
2, 52059, Note_on_c, 1, 79, 35
2, 52099, Note_on_c, 1, 72, 35
2, 52101, Note_on_c, 1, 79, 0
2, 52140, Note_on_c, 1, 72, 0
2, 52143, Note_on_c, 1, 64, 0
2, 52144, Note_on_c, 1, 60, 35
2, 52182, Note_on_c, 1, 76, 35
2, 52223, Note_on_c, 1, 72, 35
2, 52224, Note_on_c, 1, 76, 0
2, 52264, Note_on_c, 1, 72, 0
2, 52268, Note_on_c, 1, 58, 35
2, 52268, Note_on_c, 1, 60, 0
2, 52307, Note_on_c, 1, 79, 35
2, 52347, Note_on_c, 1, 72, 35
2, 52349, Note_on_c, 1, 79, 0
2, 52388, Note_on_c, 1, 72, 0
2, 52392, Note_on_c, 1, 57, 35
2, 52392, Note_on_c, 1, 58, 0
2, 52431, Note_on_c, 1, 77, 35
2, 52471, Note_on_c, 1, 72, 35
2, 52473, Note_on_c, 1, 77, 0
2, 52512, Note_on_c, 1, 72, 0
2, 52516, Note_on_c, 1, 60, 37
2, 52516, Note_on_c, 1, 57, 0
2, 52556, Note_on_c, 1, 84, 39
2, 52595, Note_on_c, 1, 72, 41
2, 52598, Note_on_c, 1, 84, 0
2, 52636, Note_on_c, 1, 72, 0
2, 52638, Note_on_c, 1, 65, 43
2, 52640, Note_on_c, 1, 60, 0
2, 52681, Note_on_c, 1, 83, 45
2, 52719, Note_on_c, 1, 72, 47
2, 52722, Note_on_c, 1, 83, 0
2, 52760, Note_on_c, 1, 72, 0
2, 52762, Note_on_c, 1, 69, 49
2, 52762, Note_on_c, 1, 65, 0
2, 52805, Note_on_c, 1, 84, 51
2, 52843, Note_on_c, 1, 72, 53
2, 52846, Note_on_c, 1, 84, 0
2, 52884, Note_on_c, 1, 72, 0
2, 52886, Note_on_c, 1, 67, 55
2, 52886, Note_on_c, 1, 69, 0
2, 52929, Note_on_c, 1, 82, 54
2, 52967, Note_on_c, 1, 72, 52
2, 52970, Note_on_c, 1, 82, 0
2, 53008, Note_on_c, 1, 72, 0
2, 53010, Note_on_c, 1, 64, 51
2, 53011, Note_on_c, 1, 67, 0
2, 53052, Note_on_c, 1, 79, 49
2, 53091, Note_on_c, 1, 72, 48
2, 53093, Note_on_c, 1, 79, 0
2, 53132, Note_on_c, 1, 72, 0
2, 53134, Note_on_c, 1, 64, 0
2, 53136, Note_on_c, 1, 60, 46
2, 53175, Note_on_c, 1, 76, 45
2, 53215, Note_on_c, 1, 72, 43
2, 53216, Note_on_c, 1, 76, 0
2, 53256, Note_on_c, 1, 72, 0
2, 53259, Note_on_c, 1, 58, 42
2, 53260, Note_on_c, 1, 60, 0
2, 53300, Note_on_c, 1, 79, 40
2, 53339, Note_on_c, 1, 72, 39
2, 53341, Note_on_c, 1, 79, 0
2, 53380, Note_on_c, 1, 72, 0
2, 53383, Note_on_c, 1, 57, 37
2, 53383, Note_on_c, 1, 58, 0
2, 53424, Note_on_c, 1, 77, 36
2, 53463, Note_on_c, 1, 72, 35
2, 53465, Note_on_c, 1, 77, 0
2, 53504, Note_on_c, 1, 72, 0
2, 53506, Note_on_c, 1, 65, 35
2, 53507, Note_on_c, 1, 57, 0
2, 53549, Note_on_c, 1, 81, 35
2, 53587, Note_on_c, 1, 72, 35
2, 53590, Note_on_c, 1, 81, 0
2, 53628, Note_on_c, 1, 72, 0
2, 53630, Note_on_c, 1, 65, 0
2, 53631, Note_on_c, 1, 59, 37
2, 53672, Note_on_c, 1, 81, 39
2, 53711, Note_on_c, 1, 74, 42
2, 53713, Note_on_c, 1, 81, 0
2, 53752, Note_on_c, 1, 74, 0
2, 53754, Note_on_c, 1, 67, 45
2, 53755, Note_on_c, 1, 59, 0
2, 53795, Note_on_c, 1, 79, 47
2, 53835, Note_on_c, 1, 74, 50
2, 53836, Note_on_c, 1, 79, 0
2, 53876, Note_on_c, 1, 74, 0
2, 53879, Note_on_c, 1, 67, 0
2, 53880, Note_on_c, 1, 60, 49
2, 53919, Note_on_c, 1, 77, 48
2, 53959, Note_on_c, 1, 72, 47
2, 53960, Note_on_c, 1, 77, 0
2, 54000, Note_on_c, 1, 72, 0
2, 54003, Note_on_c, 1, 67, 45
2, 54004, Note_on_c, 1, 60, 0
2, 54042, Note_on_c, 1, 76, 44
2, 54083, Note_on_c, 1, 72, 43
2, 54083, Note_on_c, 1, 76, 0
2, 54124, Note_on_c, 1, 72, 0
2, 54127, Note_on_c, 1, 55, 42
2, 54127, Note_on_c, 1, 67, 0
2, 54166, Note_on_c, 1, 76, 41
2, 54207, Note_on_c, 1, 71, 39
2, 54207, Note_on_c, 1, 76, 0
2, 54248, Note_on_c, 1, 71, 0
2, 54251, Note_on_c, 1, 65, 38
2, 54251, Note_on_c, 1, 55, 0
2, 54289, Note_on_c, 1, 74, 37
2, 54331, Note_on_c, 1, 71, 36
2, 54331, Note_on_c, 1, 74, 0
2, 54372, Note_on_c, 1, 71, 0
2, 54373, Note_on_c, 1, 48, 35
2, 54374, Note_on_c, 1, 65, 0
2, 54413, Note_on_c, 1, 72, 35
2, 54455, Note_on_c, 1, 72, 0
2, 54457, Note_on_c, 1, 67, 35
2, 54496, Note_on_c, 1, 48, 0
2, 54498, Note_on_c, 1, 67, 0
2, 54499, Note_on_c, 1, 55, 35
2, 54538, Note_on_c, 1, 76, 35
2, 54580, Note_on_c, 1, 76, 0
2, 54581, Note_on_c, 1, 67, 35
2, 54622, Note_on_c, 1, 67, 0
2, 54623, Note_on_c, 1, 60, 35
2, 54623, Note_on_c, 1, 55, 0
2, 54662, Note_on_c, 1, 76, 35
2, 54704, Note_on_c, 1, 76, 0
2, 54705, Note_on_c, 1, 67, 35
2, 54746, Note_on_c, 1, 64, 35
2, 54746, Note_on_c, 1, 67, 0
2, 54748, Note_on_c, 1, 60, 0
2, 54787, Note_on_c, 1, 79, 35
2, 54829, Note_on_c, 1, 67, 35
2, 54829, Note_on_c, 1, 79, 0
2, 54870, Note_on_c, 1, 67, 0
2, 54871, Note_on_c, 1, 62, 35
2, 54871, Note_on_c, 1, 64, 0
2, 54911, Note_on_c, 1, 77, 35
2, 54953, Note_on_c, 1, 67, 35
2, 54953, Note_on_c, 1, 77, 0
2, 54994, Note_on_c, 1, 67, 0
2, 54995, Note_on_c, 1, 59, 35
2, 54996, Note_on_c, 1, 62, 0
2, 55033, Note_on_c, 1, 74, 35
2, 55075, Note_on_c, 1, 74, 0
2, 55077, Note_on_c, 1, 67, 35
2, 55118, Note_on_c, 1, 55, 35
2, 55118, Note_on_c, 1, 67, 0
2, 55120, Note_on_c, 1, 59, 0
2, 55157, Note_on_c, 1, 71, 35
2, 55199, Note_on_c, 1, 71, 0
2, 55201, Note_on_c, 1, 67, 35
2, 55242, Note_on_c, 1, 53, 35
2, 55242, Note_on_c, 1, 67, 0
2, 55243, Note_on_c, 1, 55, 0
2, 55281, Note_on_c, 1, 74, 35
2, 55323, Note_on_c, 1, 74, 0
2, 55325, Note_on_c, 1, 67, 35
2, 55365, Note_on_c, 1, 52, 35
2, 55366, Note_on_c, 1, 67, 0
2, 55366, Note_on_c, 1, 53, 0
2, 55405, Note_on_c, 1, 72, 35
2, 55447, Note_on_c, 1, 72, 0
2, 55449, Note_on_c, 1, 67, 35
2, 55489, Note_on_c, 1, 52, 0
2, 55490, Note_on_c, 1, 55, 35
2, 55490, Note_on_c, 1, 67, 0
2, 55531, Note_on_c, 1, 79, 35
2, 55572, Note_on_c, 1, 79, 0
2, 55573, Note_on_c, 1, 67, 37
2, 55614, Note_on_c, 1, 67, 0
2, 55614, Note_on_c, 1, 55, 0
2, 55615, Note_on_c, 1, 60, 39
2, 55655, Note_on_c, 1, 78, 41
2, 55696, Note_on_c, 1, 78, 0
2, 55697, Note_on_c, 1, 67, 43
2, 55738, Note_on_c, 1, 64, 45
2, 55738, Note_on_c, 1, 67, 0
2, 55739, Note_on_c, 1, 60, 0
2, 55779, Note_on_c, 1, 79, 47
2, 55821, Note_on_c, 1, 67, 49
2, 55821, Note_on_c, 1, 79, 0
2, 55862, Note_on_c, 1, 67, 0
2, 55862, Note_on_c, 1, 64, 0
2, 55863, Note_on_c, 1, 62, 50
2, 55903, Note_on_c, 1, 77, 48
2, 55944, Note_on_c, 1, 77, 0
2, 55945, Note_on_c, 1, 67, 47
2, 55986, Note_on_c, 1, 67, 0
2, 55987, Note_on_c, 1, 59, 46
2, 55987, Note_on_c, 1, 62, 0
2, 56025, Note_on_c, 1, 74, 45
2, 56066, Note_on_c, 1, 74, 0
2, 56069, Note_on_c, 1, 67, 44
2, 56110, Note_on_c, 1, 55, 42
2, 56110, Note_on_c, 1, 67, 0
2, 56111, Note_on_c, 1, 59, 0
2, 56149, Note_on_c, 1, 71, 41
2, 56190, Note_on_c, 1, 71, 0
2, 56193, Note_on_c, 1, 67, 40
2, 56234, Note_on_c, 1, 53, 39
2, 56234, Note_on_c, 1, 67, 0
2, 56234, Note_on_c, 1, 55, 0
2, 56273, Note_on_c, 1, 74, 38
2, 56314, Note_on_c, 1, 74, 0
2, 56317, Note_on_c, 1, 67, 36
2, 56357, Note_on_c, 1, 52, 35
2, 56358, Note_on_c, 1, 67, 0
2, 56358, Note_on_c, 1, 53, 0
2, 56397, Note_on_c, 1, 72, 35
2, 56438, Note_on_c, 1, 72, 0
2, 56441, Note_on_c, 1, 67, 35
2, 56481, Note_on_c, 1, 52, 0
2, 56482, Note_on_c, 1, 64, 35
2, 56482, Note_on_c, 1, 67, 0
2, 56521, Note_on_c, 1, 73, 35
2, 56562, Note_on_c, 1, 73, 0
2, 56565, Note_on_c, 1, 67, 35
2, 56606, Note_on_c, 1, 53, 35
2, 56606, Note_on_c, 1, 67, 0
2, 56606, Note_on_c, 1, 64, 0
2, 56646, Note_on_c, 1, 76, 35
2, 56687, Note_on_c, 1, 76, 0
2, 56688, Note_on_c, 1, 69, 35
2, 56728, Note_on_c, 1, 69, 0
2, 56730, Note_on_c, 1, 65, 35
2, 56730, Note_on_c, 1, 53, 0
2, 56769, Note_on_c, 1, 74, 35
2, 56810, Note_on_c, 1, 74, 0
2, 56812, Note_on_c, 1, 69, 35
2, 56852, Note_on_c, 1, 69, 0
2, 56854, Note_on_c, 1, 55, 35
2, 56854, Note_on_c, 1, 65, 0
2, 56895, Note_on_c, 1, 77, 35
2, 56934, Note_on_c, 1, 71, 35
2, 56936, Note_on_c, 1, 77, 0
2, 56975, Note_on_c, 1, 71, 0
2, 56978, Note_on_c, 1, 67, 35
2, 56978, Note_on_c, 1, 55, 0
2, 57018, Note_on_c, 1, 76, 35
2, 57058, Note_on_c, 1, 71, 35
2, 57059, Note_on_c, 1, 76, 0
2, 57099, Note_on_c, 1, 71, 0
2, 57102, Note_on_c, 1, 56, 35
2, 57102, Note_on_c, 1, 67, 0
2, 57143, Note_on_c, 1, 77, 35
2, 57182, Note_on_c, 1, 71, 35
2, 57184, Note_on_c, 1, 77, 0
2, 57223, Note_on_c, 1, 71, 0
2, 57225, Note_on_c, 1, 68, 35
2, 57226, Note_on_c, 1, 56, 0
2, 57266, Note_on_c, 1, 76, 35
2, 57306, Note_on_c, 1, 71, 35
2, 57307, Note_on_c, 1, 76, 0
2, 57348, Note_on_c, 1, 71, 0
2, 57349, Note_on_c, 1, 68, 0
2, 57350, Note_on_c, 1, 69, 35
2, 57389, Note_on_c, 1, 72, 35
2, 57430, Note_on_c, 1, 72, 0
2, 57431, Note_on_c, 1, 76, 35
2, 57473, Note_on_c, 1, 76, 0
2, 57473, Note_on_c, 1, 69, 0
2, 57474, Note_on_c, 1, 68, 35
2, 57513, Note_on_c, 1, 71, 35
2, 57555, Note_on_c, 1, 71, 0
2, 57556, Note_on_c, 1, 76, 35
2, 57597, Note_on_c, 1, 69, 35
2, 57597, Note_on_c, 1, 76, 0
2, 57597, Note_on_c, 1, 68, 0
2, 57637, Note_on_c, 1, 72, 35
2, 57678, Note_on_c, 1, 72, 0
2, 57680, Note_on_c, 1, 76, 35
2, 57721, Note_on_c, 1, 68, 35
2, 57721, Note_on_c, 1, 76, 0
2, 57721, Note_on_c, 1, 69, 0
2, 57761, Note_on_c, 1, 71, 35
2, 57803, Note_on_c, 1, 76, 35
2, 57803, Note_on_c, 1, 71, 0
2, 57845, Note_on_c, 1, 69, 35
2, 57845, Note_on_c, 1, 76, 0
2, 57845, Note_on_c, 1, 68, 0
2, 57885, Note_on_c, 1, 72, 35
2, 57926, Note_on_c, 1, 72, 0
2, 57928, Note_on_c, 1, 76, 35
2, 57969, Note_on_c, 1, 76, 0
2, 57969, Note_on_c, 1, 69, 0
2, 57970, Note_on_c, 1, 65, 35
2, 58011, Note_on_c, 1, 77, 35
2, 58012, Note_on_c, 1, 81, 35
2, 58051, Note_on_c, 1, 72, 35
2, 58052, Note_on_c, 1, 77, 0
2, 58053, Note_on_c, 1, 81, 0
2, 58092, Note_on_c, 1, 72, 0
2, 58094, Note_on_c, 1, 67, 35
2, 58094, Note_on_c, 1, 65, 0
2, 58134, Note_on_c, 1, 76, 35
2, 58135, Note_on_c, 1, 79, 35
2, 58175, Note_on_c, 1, 72, 35
2, 58175, Note_on_c, 1, 76, 0
2, 58176, Note_on_c, 1, 79, 0
2, 58215, Note_on_c, 1, 72, 0
2, 58218, Note_on_c, 1, 55, 35
2, 58218, Note_on_c, 1, 67, 0
2, 58257, Note_on_c, 1, 74, 35
2, 58258, Note_on_c, 1, 79, 35
2, 58298, Note_on_c, 1, 71, 35
2, 58298, Note_on_c, 1, 74, 0
2, 58300, Note_on_c, 1, 79, 0
2, 58339, Note_on_c, 1, 71, 0
2, 58342, Note_on_c, 1, 55, 0
2, 58343, Note_on_c, 1, 60, 35
2, 58381, Note_on_c, 1, 75, 35
2, 58422, Note_on_c, 1, 75, 0
2, 58423, Note_on_c, 1, 76, 35
2, 58464, Note_on_c, 1, 76, 0
2, 58465, Note_on_c, 1, 68, 80
2, 58466, Note_on_c, 1, 56, 80
2, 58467, Note_on_c, 1, 60, 0
2, 58505, Note_on_c, 1, 71, 80
2, 58508, Note_on_c, 1, 83, 80
2, 58546, Note_on_c, 1, 71, 0
2, 58548, Note_on_c, 1, 76, 80
2, 58549, Note_on_c, 1, 83, 0
2, 58589, Note_on_c, 1, 76, 0
2, 58589, Note_on_c, 1, 68, 0
2, 58590, Note_on_c, 1, 69, 80
2, 58590, Note_on_c, 1, 56, 0
2, 58592, Note_on_c, 1, 57, 80
2, 58629, Note_on_c, 1, 72, 80
2, 58632, Note_on_c, 1, 84, 80
2, 58670, Note_on_c, 1, 72, 0
2, 58672, Note_on_c, 1, 76, 80
2, 58673, Note_on_c, 1, 84, 0
2, 58712, Note_on_c, 1, 76, 0
2, 58713, Note_on_c, 1, 69, 0
2, 58714, Note_on_c, 1, 56, 80
2, 58714, Note_on_c, 1, 68, 80
2, 58715, Note_on_c, 1, 57, 0
2, 58753, Note_on_c, 1, 71, 80
2, 58756, Note_on_c, 1, 83, 80
2, 58794, Note_on_c, 1, 71, 0
2, 58795, Note_on_c, 1, 76, 80
2, 58797, Note_on_c, 1, 83, 0
2, 58836, Note_on_c, 1, 76, 0
2, 58837, Note_on_c, 1, 69, 80
2, 58837, Note_on_c, 1, 68, 0
2, 58838, Note_on_c, 1, 56, 0
2, 58840, Note_on_c, 1, 57, 80
2, 58877, Note_on_c, 1, 72, 80
2, 58880, Note_on_c, 1, 84, 80
2, 58919, Note_on_c, 1, 72, 0
2, 58920, Note_on_c, 1, 76, 80
2, 58921, Note_on_c, 1, 84, 0
2, 58960, Note_on_c, 1, 76, 0
2, 58961, Note_on_c, 1, 69, 0
2, 58962, Note_on_c, 1, 65, 80
2, 58963, Note_on_c, 1, 57, 0
2, 59003, Note_on_c, 1, 81, 80
2, 59003, Note_on_c, 1, 77, 80
2, 59042, Note_on_c, 1, 72, 80
2, 59044, Note_on_c, 1, 77, 0
2, 59045, Note_on_c, 1, 81, 0
2, 59083, Note_on_c, 1, 72, 0
2, 59086, Note_on_c, 1, 67, 80
2, 59086, Note_on_c, 1, 65, 0
2, 59126, Note_on_c, 1, 76, 80
2, 59127, Note_on_c, 1, 79, 80
2, 59166, Note_on_c, 1, 72, 80
2, 59167, Note_on_c, 1, 76, 0
2, 59168, Note_on_c, 1, 79, 0
2, 59207, Note_on_c, 1, 72, 0
2, 59210, Note_on_c, 1, 55, 80
2, 59210, Note_on_c, 1, 67, 0
2, 59249, Note_on_c, 1, 74, 80
2, 59251, Note_on_c, 1, 77, 80
2, 59290, Note_on_c, 1, 72, 80
2, 59290, Note_on_c, 1, 74, 0
2, 59292, Note_on_c, 1, 77, 0
2, 59331, Note_on_c, 1, 72, 0
2, 59332, Note_on_c, 1, 48, 80
2, 59334, Note_on_c, 1, 55, 0
2, 59373, Note_on_c, 1, 72, 80
2, 59373, Note_on_c, 1, 72, 80
2, 59374, Note_on_c, 1, 72, 0
2, 59414, Note_on_c, 1, 72, 0
2, 59415, Note_on_c, 1, 76, 80
2, 59456, Note_on_c, 1, 76, 0
2, 59459, Note_on_c, 1, 60, 80
2, 59496, Note_on_c, 1, 70, 80
2, 59539, Note_on_c, 1, 70, 0
2, 59540, Note_on_c, 1, 79, 80
2, 59581, Note_on_c, 1, 79, 0
2, 59583, Note_on_c, 1, 60, 0
2, 59593, Note_on_c, 1, 60, 80
2, 59622, Note_on_c, 1, 69, 80
2, 59663, Note_on_c, 1, 69, 0
2, 59664, Note_on_c, 1, 79, 80
2, 59706, Note_on_c, 1, 79, 0
2, 59707, Note_on_c, 1, 60, 0
2, 59717, Note_on_c, 1, 60, 80
2, 59744, Note_on_c, 1, 71, 80
2, 59786, Note_on_c, 1, 71, 0
2, 59788, Note_on_c, 1, 77, 80
2, 59828, Note_on_c, 1, 48, 80
2, 59828, Note_on_c, 1, 48, 0
2, 59829, Note_on_c, 1, 77, 0
2, 59831, Note_on_c, 1, 60, 0
2, 59869, Note_on_c, 1, 72, 77
2, 59911, Note_on_c, 1, 76, 74
2, 59911, Note_on_c, 1, 72, 0
2, 59952, Note_on_c, 1, 76, 0
2, 59955, Note_on_c, 1, 60, 70
2, 59995, Note_on_c, 1, 67, 67
2, 60035, Note_on_c, 1, 76, 64
2, 60036, Note_on_c, 1, 67, 0
2, 60076, Note_on_c, 1, 76, 0
2, 60079, Note_on_c, 1, 60, 0
2, 60089, Note_on_c, 1, 60, 59
2, 60118, Note_on_c, 1, 67, 57
2, 60159, Note_on_c, 1, 76, 53
2, 60160, Note_on_c, 1, 67, 0
2, 60200, Note_on_c, 1, 76, 0
2, 60203, Note_on_c, 1, 60, 0
2, 60213, Note_on_c, 1, 60, 49
2, 60243, Note_on_c, 1, 65, 46
2, 60282, Note_on_c, 1, 74, 43
2, 60284, Note_on_c, 1, 65, 0
2, 60323, Note_on_c, 1, 74, 0
2, 60323, Note_on_c, 1, 48, 0
2, 60324, Note_on_c, 1, 48, 40
2, 60327, Note_on_c, 1, 60, 0
2, 60366, Note_on_c, 1, 64, 36
2, 60406, Note_on_c, 1, 72, 35
2, 60408, Note_on_c, 1, 64, 0
2, 60447, Note_on_c, 1, 72, 0
2, 60451, Note_on_c, 1, 60, 35
2, 60491, Note_on_c, 1, 79, 35
2, 60492, Note_on_c, 1, 82, 35
2, 60532, Note_on_c, 1, 79, 0
2, 60533, Note_on_c, 1, 82, 0
2, 60534, Note_on_c, 1, 84, 35
2, 60575, Note_on_c, 1, 84, 0
2, 60575, Note_on_c, 1, 60, 0
2, 60585, Note_on_c, 1, 60, 35
2, 60614, Note_on_c, 1, 78, 35
2, 60615, Note_on_c, 1, 81, 35
2, 60656, Note_on_c, 1, 78, 0
2, 60657, Note_on_c, 1, 84, 35
2, 60657, Note_on_c, 1, 81, 0
2, 60698, Note_on_c, 1, 84, 0
2, 60698, Note_on_c, 1, 60, 0
2, 60709, Note_on_c, 1, 60, 35
2, 60738, Note_on_c, 1, 77, 35
2, 60739, Note_on_c, 1, 80, 35
2, 60780, Note_on_c, 1, 80, 0
2, 60780, Note_on_c, 1, 77, 0
2, 60781, Note_on_c, 1, 84, 35
2, 60820, Note_on_c, 1, 48, 35
2, 60820, Note_on_c, 1, 48, 0
2, 60822, Note_on_c, 1, 84, 0
2, 60823, Note_on_c, 1, 60, 0
2, 60862, Note_on_c, 1, 76, 35
2, 60863, Note_on_c, 1, 79, 35
2, 60903, Note_on_c, 1, 76, 0
2, 60904, Note_on_c, 1, 79, 0
2, 60906, Note_on_c, 1, 84, 36
2, 60946, Note_on_c, 1, 84, 0
2, 60947, Note_on_c, 1, 60, 37
2, 60984, Note_on_c, 1, 75, 39
2, 60986, Note_on_c, 1, 78, 39
2, 61026, Note_on_c, 1, 75, 0
2, 61028, Note_on_c, 1, 78, 0
2, 61029, Note_on_c, 1, 84, 40
2, 61070, Note_on_c, 1, 84, 0
2, 61070, Note_on_c, 1, 60, 0
2, 61081, Note_on_c, 1, 60, 42
2, 61109, Note_on_c, 1, 74, 43
2, 61110, Note_on_c, 1, 77, 43
2, 61150, Note_on_c, 1, 74, 0
2, 61152, Note_on_c, 1, 77, 0
2, 61153, Note_on_c, 1, 84, 44
2, 61194, Note_on_c, 1, 84, 0
2, 61195, Note_on_c, 1, 60, 0
2, 61204, Note_on_c, 1, 60, 46
2, 61233, Note_on_c, 1, 74, 47
2, 61235, Note_on_c, 1, 77, 47
2, 61274, Note_on_c, 1, 74, 0
2, 61276, Note_on_c, 1, 77, 0
2, 61278, Note_on_c, 1, 83, 48
2, 61316, Note_on_c, 1, 48, 0
2, 61317, Note_on_c, 1, 48, 50
2, 61318, Note_on_c, 1, 83, 0
2, 61319, Note_on_c, 1, 84, 49
2, 61319, Note_on_c, 1, 60, 0
2, 61358, Note_on_c, 1, 79, 35
2, 61360, Note_on_c, 1, 84, 0
2, 61399, Note_on_c, 1, 76, 35
2, 61400, Note_on_c, 1, 79, 0
2, 61439, Note_on_c, 1, 72, 35
2, 61440, Note_on_c, 1, 76, 0
2, 61440, Note_on_c, 1, 48, 0
2, 61481, Note_on_c, 1, 72, 0
2, 61483, Note_on_c, 1, 67, 35
2, 61524, Note_on_c, 1, 64, 35
2, 61524, Note_on_c, 1, 67, 0
2, 61565, Note_on_c, 1, 64, 0
2, 61606, Note_on_c, 1, 67, 35
2, 61648, Note_on_c, 1, 64, 35
2, 61648, Note_on_c, 1, 67, 0
2, 61689, Note_on_c, 1, 64, 0
2, 61690, Note_on_c, 1, 60, 35
2, 61730, Note_on_c, 1, 55, 35
2, 61732, Note_on_c, 1, 60, 0
2, 61771, Note_on_c, 1, 52, 35
2, 61772, Note_on_c, 1, 55, 0
2, 61811, Note_on_c, 1, 48, 35
2, 61812, Note_on_c, 1, 52, 0
2, 61935, Note_on_c, 1, 48, 0
2, 61999, Note_on_c, 1, 79, 65
2, 62061, Note_on_c, 1, 79, 0
2, 62062, Note_on_c, 1, 79, 65
2, 62154, Note_on_c, 1, 78, 65
2, 62154, Note_on_c, 1, 79, 0
2, 62170, Note_on_c, 1, 79, 65
2, 62170, Note_on_c, 1, 78, 0
2, 62185, Note_on_c, 1, 79, 0
2, 62186, Note_on_c, 1, 82, 65
2, 62247, Note_on_c, 1, 79, 65
2, 62248, Note_on_c, 1, 82, 0
2, 62307, Note_on_c, 1, 75, 65
2, 62309, Note_on_c, 1, 79, 0
2, 62369, Note_on_c, 1, 70, 65
2, 62369, Note_on_c, 1, 75, 0
2, 62431, Note_on_c, 1, 70, 0
2, 62432, Note_on_c, 1, 51, 65
2, 62493, Note_on_c, 1, 51, 0
2, 62496, Note_on_c, 1, 55, 65
2, 62557, Note_on_c, 1, 55, 0
2, 62558, Note_on_c, 1, 58, 65
2, 62619, Note_on_c, 1, 63, 65
2, 62620, Note_on_c, 1, 58, 0
2, 62681, Note_on_c, 1, 79, 65
2, 62681, Note_on_c, 1, 63, 0
2, 62741, Note_on_c, 1, 75, 65
2, 62743, Note_on_c, 1, 79, 0
2, 62803, Note_on_c, 1, 70, 65
2, 62803, Note_on_c, 1, 75, 0
2, 62865, Note_on_c, 1, 70, 0
2, 62867, Note_on_c, 1, 67, 65
2, 62927, Note_on_c, 1, 51, 65
2, 62929, Note_on_c, 1, 67, 0
2, 62989, Note_on_c, 1, 51, 0
2, 62991, Note_on_c, 1, 55, 65
2, 63053, Note_on_c, 1, 55, 0
2, 63054, Note_on_c, 1, 58, 65
2, 63115, Note_on_c, 1, 63, 65
2, 63117, Note_on_c, 1, 58, 0
2, 63175, Note_on_c, 1, 51, 65
2, 63177, Note_on_c, 1, 79, 65
2, 63177, Note_on_c, 1, 63, 0
2, 63237, Note_on_c, 1, 75, 67
2, 63238, Note_on_c, 1, 51, 0
2, 63239, Note_on_c, 1, 79, 0
2, 63240, Note_on_c, 1, 55, 67
2, 63299, Note_on_c, 1, 70, 68
2, 63299, Note_on_c, 1, 75, 0
2, 63302, Note_on_c, 1, 55, 0
2, 63303, Note_on_c, 1, 58, 69
2, 63361, Note_on_c, 1, 70, 0
2, 63363, Note_on_c, 1, 67, 70
2, 63364, Note_on_c, 1, 63, 70
2, 63365, Note_on_c, 1, 58, 0
2, 63424, Note_on_c, 1, 51, 72
2, 63425, Note_on_c, 1, 79, 72
2, 63425, Note_on_c, 1, 67, 0
2, 63426, Note_on_c, 1, 63, 0
2, 63485, Note_on_c, 1, 75, 73
2, 63486, Note_on_c, 1, 51, 0
2, 63487, Note_on_c, 1, 79, 0
2, 63488, Note_on_c, 1, 55, 73
2, 63547, Note_on_c, 1, 70, 75
2, 63547, Note_on_c, 1, 75, 0
2, 63550, Note_on_c, 1, 55, 0
2, 63551, Note_on_c, 1, 58, 75
2, 63609, Note_on_c, 1, 70, 0
2, 63611, Note_on_c, 1, 67, 77
2, 63612, Note_on_c, 1, 63, 77
2, 63613, Note_on_c, 1, 58, 0
2, 63672, Note_on_c, 1, 68, 78
2, 63673, Note_on_c, 1, 67, 0
2, 63674, Note_on_c, 1, 65, 78
2, 63674, Note_on_c, 1, 53, 78
2, 63674, Note_on_c, 1, 63, 0
2, 63686, Note_on_c, 1, 70, 79
2, 63702, Note_on_c, 1, 75, 79
2, 63719, Note_on_c, 1, 80, 80
2, 63981, Note_on_c, 1, 75, 0
2, 63981, Note_on_c, 1, 70, 0
2, 63983, Note_on_c, 1, 68, 0
2, 63983, Note_on_c, 1, 80, 0
2, 63984, Note_on_c, 1, 53, 0
2, 63984, Note_on_c, 1, 65, 0
2, 64169, Note_on_c, 1, 80, 35
2, 64169, Note_on_c, 1, 53, 35
2, 64229, Note_on_c, 1, 74, 35
2, 64231, Note_on_c, 1, 80, 0
2, 64232, Note_on_c, 1, 58, 35
2, 64232, Note_on_c, 1, 53, 0
2, 64291, Note_on_c, 1, 70, 35
2, 64291, Note_on_c, 1, 74, 0
2, 64294, Note_on_c, 1, 58, 0
2, 64295, Note_on_c, 1, 62, 35
2, 64353, Note_on_c, 1, 70, 0
2, 64354, Note_on_c, 1, 68, 35
2, 64355, Note_on_c, 1, 65, 35
2, 64357, Note_on_c, 1, 62, 0
2, 64416, Note_on_c, 1, 68, 0
2, 64417, Note_on_c, 1, 80, 35
2, 64417, Note_on_c, 1, 65, 0
2, 64418, Note_on_c, 1, 53, 35
2, 64477, Note_on_c, 1, 74, 35
2, 64479, Note_on_c, 1, 80, 0
2, 64480, Note_on_c, 1, 58, 35
2, 64480, Note_on_c, 1, 53, 0
2, 64539, Note_on_c, 1, 70, 35
2, 64539, Note_on_c, 1, 74, 0
2, 64542, Note_on_c, 1, 58, 0
2, 64543, Note_on_c, 1, 62, 35
2, 64601, Note_on_c, 1, 70, 0
2, 64602, Note_on_c, 1, 68, 35
2, 64603, Note_on_c, 1, 65, 35
2, 64605, Note_on_c, 1, 62, 0
2, 64663, Note_on_c, 1, 70, 35
2, 64664, Note_on_c, 1, 68, 0
2, 64665, Note_on_c, 1, 65, 0
2, 64666, Note_on_c, 1, 67, 35
2, 64666, Note_on_c, 1, 55, 35
2, 64678, Note_on_c, 1, 73, 35
2, 64696, Note_on_c, 1, 78, 35
2, 64713, Note_on_c, 1, 82, 35
2, 64973, Note_on_c, 1, 73, 0
2, 64973, Note_on_c, 1, 70, 0
2, 64976, Note_on_c, 1, 78, 0
2, 64976, Note_on_c, 1, 55, 0
2, 64977, Note_on_c, 1, 67, 0
2, 64977, Note_on_c, 1, 82, 0
2, 65161, Note_on_c, 1, 82, 35
2, 65161, Note_on_c, 1, 55, 35
2, 65222, Note_on_c, 1, 76, 35
2, 65224, Note_on_c, 1, 55, 0
2, 65224, Note_on_c, 1, 82, 0
2, 65225, Note_on_c, 1, 61, 35
2, 65283, Note_on_c, 1, 73, 37
2, 65283, Note_on_c, 1, 76, 0
2, 65285, Note_on_c, 1, 64, 37
2, 65286, Note_on_c, 1, 61, 0
2, 65345, Note_on_c, 1, 70, 40
2, 65345, Note_on_c, 1, 73, 0
2, 65348, Note_on_c, 1, 67, 40
2, 65348, Note_on_c, 1, 64, 0
2, 65407, Note_on_c, 1, 70, 0
2, 65409, Note_on_c, 1, 82, 42
2, 65409, Note_on_c, 1, 55, 42
2, 65409, Note_on_c, 1, 67, 0
2, 65470, Note_on_c, 1, 76, 44
2, 65472, Note_on_c, 1, 55, 0
2, 65472, Note_on_c, 1, 82, 0
2, 65473, Note_on_c, 1, 61, 44
2, 65531, Note_on_c, 1, 73, 46
2, 65532, Note_on_c, 1, 76, 0
2, 65534, Note_on_c, 1, 64, 46
2, 65535, Note_on_c, 1, 61, 0
2, 65593, Note_on_c, 1, 70, 49
2, 65593, Note_on_c, 1, 73, 0
2, 65596, Note_on_c, 1, 67, 49
2, 65596, Note_on_c, 1, 64, 0
2, 65655, Note_on_c, 1, 70, 0
2, 65658, Note_on_c, 1, 56, 35
2, 65658, Note_on_c, 1, 67, 0
2, 65720, Note_on_c, 1, 82, 35
2, 65781, Note_on_c, 1, 77, 35
2, 65781, Note_on_c, 1, 68, 35
2, 65781, Note_on_c, 1, 56, 0
2, 65782, Note_on_c, 1, 82, 0
2, 65841, Note_on_c, 1, 72, 35
2, 65843, Note_on_c, 1, 77, 0
2, 65903, Note_on_c, 1, 72, 0
2, 65904, Note_on_c, 1, 68, 35
2, 65904, Note_on_c, 1, 68, 0
2, 65968, Note_on_c, 1, 84, 35
2, 66029, Note_on_c, 1, 77, 35
2, 66029, Note_on_c, 1, 68, 35
2, 66029, Note_on_c, 1, 68, 0
2, 66030, Note_on_c, 1, 84, 0
2, 66089, Note_on_c, 1, 72, 35
2, 66091, Note_on_c, 1, 77, 0
2, 66151, Note_on_c, 1, 72, 0
2, 66152, Note_on_c, 1, 68, 0
2, 66154, Note_on_c, 1, 55, 35
2, 66216, Note_on_c, 1, 84, 35
2, 66276, Note_on_c, 1, 76, 35
2, 66277, Note_on_c, 1, 67, 35
2, 66277, Note_on_c, 1, 84, 0
2, 66277, Note_on_c, 1, 55, 0
2, 66337, Note_on_c, 1, 72, 35
2, 66337, Note_on_c, 1, 76, 0
2, 66398, Note_on_c, 1, 72, 0
2, 66401, Note_on_c, 1, 67, 35
2, 66401, Note_on_c, 1, 67, 0
2, 66464, Note_on_c, 1, 82, 35
2, 66524, Note_on_c, 1, 76, 35
2, 66525, Note_on_c, 1, 67, 0
2, 66526, Note_on_c, 1, 67, 35
2, 66526, Note_on_c, 1, 82, 0
2, 66585, Note_on_c, 1, 72, 35
2, 66585, Note_on_c, 1, 76, 0
2, 66647, Note_on_c, 1, 72, 0
2, 66649, Note_on_c, 1, 53, 35
2, 66649, Note_on_c, 1, 67, 0
2, 66712, Note_on_c, 1, 82, 35
2, 66773, Note_on_c, 1, 77, 35
2, 66773, Note_on_c, 1, 53, 0
2, 66774, Note_on_c, 1, 65, 35
2, 66774, Note_on_c, 1, 82, 0
2, 66833, Note_on_c, 1, 72, 35
2, 66835, Note_on_c, 1, 77, 0
2, 66895, Note_on_c, 1, 72, 0
2, 66897, Note_on_c, 1, 65, 35
2, 66897, Note_on_c, 1, 65, 0
2, 66958, Note_on_c, 1, 80, 35
2, 67019, Note_on_c, 1, 72, 35
2, 67020, Note_on_c, 1, 80, 0
2, 67021, Note_on_c, 1, 65, 35
2, 67021, Note_on_c, 1, 65, 0
2, 67081, Note_on_c, 1, 72, 0
2, 67082, Note_on_c, 1, 68, 35
2, 67143, Note_on_c, 1, 51, 35
2, 67143, Note_on_c, 1, 68, 0
2, 67145, Note_on_c, 1, 65, 0
2, 67206, Note_on_c, 1, 80, 35
2, 67267, Note_on_c, 1, 70, 35
2, 67267, Note_on_c, 1, 51, 0
2, 67268, Note_on_c, 1, 80, 0
2, 67269, Note_on_c, 1, 63, 35
2, 67328, Note_on_c, 1, 70, 0
2, 67330, Note_on_c, 1, 68, 35
2, 67391, Note_on_c, 1, 68, 0
2, 67393, Note_on_c, 1, 63, 35
2, 67393, Note_on_c, 1, 63, 0
2, 67455, Note_on_c, 1, 78, 35
2, 67515, Note_on_c, 1, 72, 35
2, 67516, Note_on_c, 1, 78, 0
2, 67517, Note_on_c, 1, 63, 0
2, 67518, Note_on_c, 1, 63, 35
2, 67576, Note_on_c, 1, 72, 0
2, 67578, Note_on_c, 1, 69, 35
2, 67640, Note_on_c, 1, 69, 0
2, 67641, Note_on_c, 1, 77, 35
2, 67641, Note_on_c, 1, 63, 0
2, 67701, Note_on_c, 1, 73, 35
2, 67703, Note_on_c, 1, 77, 0
2, 67762, Note_on_c, 1, 73, 0
2, 67764, Note_on_c, 1, 68, 35
2, 67825, Note_on_c, 1, 68, 0
2, 67827, Note_on_c, 1, 65, 35
2, 67887, Note_on_c, 1, 49, 35
2, 67889, Note_on_c, 1, 65, 0
2, 67949, Note_on_c, 1, 49, 0
2, 67951, Note_on_c, 1, 53, 35
2, 68012, Note_on_c, 1, 53, 0
2, 68013, Note_on_c, 1, 56, 35
2, 68074, Note_on_c, 1, 56, 0
2, 68076, Note_on_c, 1, 61, 35
2, 68136, Note_on_c, 1, 77, 35
2, 68138, Note_on_c, 1, 61, 0
2, 68197, Note_on_c, 1, 73, 35
2, 68198, Note_on_c, 1, 77, 0
2, 68258, Note_on_c, 1, 73, 0
2, 68259, Note_on_c, 1, 68, 35
2, 68322, Note_on_c, 1, 68, 0
2, 68323, Note_on_c, 1, 65, 35
2, 68383, Note_on_c, 1, 49, 35
2, 68384, Note_on_c, 1, 65, 0
2, 68444, Note_on_c, 1, 49, 0
2, 68446, Note_on_c, 1, 53, 35
2, 68509, Note_on_c, 1, 56, 35
2, 68509, Note_on_c, 1, 53, 0
2, 68571, Note_on_c, 1, 56, 0
2, 68572, Note_on_c, 1, 61, 35
2, 68633, Note_on_c, 1, 77, 35
2, 68634, Note_on_c, 1, 61, 0
2, 68639, Note_on_c, 1, 61, 35
2, 68693, Note_on_c, 1, 73, 36
2, 68694, Note_on_c, 1, 77, 0
2, 68754, Note_on_c, 1, 73, 0
2, 68755, Note_on_c, 1, 68, 38
2, 68818, Note_on_c, 1, 68, 0
2, 68819, Note_on_c, 1, 65, 40
2, 68880, Note_on_c, 1, 77, 42
2, 68880, Note_on_c, 1, 65, 0
2, 68882, Note_on_c, 1, 60, 42
2, 68882, Note_on_c, 1, 61, 0
2, 68940, Note_on_c, 1, 72, 44
2, 68942, Note_on_c, 1, 77, 0
2, 69002, Note_on_c, 1, 72, 0
2, 69004, Note_on_c, 1, 68, 46
2, 69065, Note_on_c, 1, 68, 0
2, 69067, Note_on_c, 1, 65, 49
2, 69129, Note_on_c, 1, 77, 49
2, 69129, Note_on_c, 1, 65, 0
2, 69130, Note_on_c, 1, 60, 0
2, 69131, Note_on_c, 1, 59, 49
2, 69189, Note_on_c, 1, 74, 48
2, 69190, Note_on_c, 1, 77, 0
2, 69250, Note_on_c, 1, 74, 0
2, 69251, Note_on_c, 1, 68, 46
2, 69313, Note_on_c, 1, 68, 0
2, 69314, Note_on_c, 1, 65, 44
2, 69375, Note_on_c, 1, 75, 42
2, 69376, Note_on_c, 1, 65, 0
2, 69378, Note_on_c, 1, 60, 42
2, 69378, Note_on_c, 1, 59, 0
2, 69436, Note_on_c, 1, 72, 40
2, 69436, Note_on_c, 1, 75, 0
2, 69498, Note_on_c, 1, 72, 0
2, 69500, Note_on_c, 1, 67, 38
2, 69562, Note_on_c, 1, 67, 0
2, 69563, Note_on_c, 1, 63, 36
2, 69622, Note_on_c, 1, 74, 35
2, 69624, Note_on_c, 1, 63, 0
2, 69625, Note_on_c, 1, 53, 35
2, 69626, Note_on_c, 1, 60, 0
2, 69684, Note_on_c, 1, 74, 0
2, 69685, Note_on_c, 1, 72, 35
2, 69746, Note_on_c, 1, 72, 0
2, 69748, Note_on_c, 1, 68, 35
2, 69809, Note_on_c, 1, 68, 0
2, 69811, Note_on_c, 1, 62, 35
2, 69870, Note_on_c, 1, 74, 35
2, 69873, Note_on_c, 1, 62, 0
2, 69932, Note_on_c, 1, 72, 35
2, 69932, Note_on_c, 1, 74, 0
2, 69994, Note_on_c, 1, 72, 0
2, 69995, Note_on_c, 1, 68, 35
2, 69997, Note_on_c, 1, 53, 0
2, 70002, Note_on_c, 1, 53, 35
2, 70057, Note_on_c, 1, 68, 0
2, 70059, Note_on_c, 1, 62, 35
2, 70119, Note_on_c, 1, 74, 35
2, 70121, Note_on_c, 1, 54, 35
2, 70121, Note_on_c, 1, 62, 0
2, 70121, Note_on_c, 1, 53, 0
2, 70180, Note_on_c, 1, 74, 0
2, 70181, Note_on_c, 1, 72, 35
2, 70242, Note_on_c, 1, 72, 0
2, 70243, Note_on_c, 1, 69, 35
2, 70305, Note_on_c, 1, 69, 0
2, 70308, Note_on_c, 1, 62, 35
2, 70366, Note_on_c, 1, 74, 35
2, 70369, Note_on_c, 1, 62, 0
2, 70428, Note_on_c, 1, 72, 35
2, 70428, Note_on_c, 1, 74, 0
2, 70490, Note_on_c, 1, 72, 0
2, 70492, Note_on_c, 1, 69, 35
2, 70493, Note_on_c, 1, 54, 0
2, 70497, Note_on_c, 1, 54, 35
2, 70553, Note_on_c, 1, 69, 0
2, 70556, Note_on_c, 1, 62, 35
2, 70617, Note_on_c, 1, 62, 0
2, 70656, Note_on_c, 1, 71, 30
2, 70697, Note_on_c, 1, 74, 30
2, 70697, Note_on_c, 1, 71, 0
2, 70738, Note_on_c, 1, 74, 0
2, 70740, Note_on_c, 1, 79, 30
2, 70782, Note_on_c, 1, 59, 30
2, 70782, Note_on_c, 1, 54, 0
2, 70824, Note_on_c, 1, 62, 30
2, 70824, Note_on_c, 1, 59, 0
2, 70864, Note_on_c, 1, 79, 0
2, 70865, Note_on_c, 1, 55, 30
2, 70865, Note_on_c, 1, 62, 0
2, 70904, Note_on_c, 1, 72, 30
2, 70945, Note_on_c, 1, 75, 30
2, 70945, Note_on_c, 1, 72, 0
2, 70986, Note_on_c, 1, 75, 0
2, 70988, Note_on_c, 1, 79, 30
2, 71030, Note_on_c, 1, 60, 30
2, 71030, Note_on_c, 1, 55, 0
2, 71071, Note_on_c, 1, 63, 30
2, 71072, Note_on_c, 1, 60, 0
2, 71112, Note_on_c, 1, 63, 0
2, 71112, Note_on_c, 1, 79, 0
2, 71113, Note_on_c, 1, 55, 30
2, 71152, Note_on_c, 1, 74, 30
2, 71193, Note_on_c, 1, 74, 0
2, 71195, Note_on_c, 1, 77, 30
2, 71236, Note_on_c, 1, 79, 30
2, 71236, Note_on_c, 1, 77, 0
2, 71278, Note_on_c, 1, 62, 30
2, 71278, Note_on_c, 1, 55, 0
2, 71319, Note_on_c, 1, 65, 30
2, 71320, Note_on_c, 1, 62, 0
2, 71360, Note_on_c, 1, 55, 30
2, 71360, Note_on_c, 1, 79, 0
2, 71361, Note_on_c, 1, 65, 0
2, 71399, Note_on_c, 1, 72, 30
2, 71441, Note_on_c, 1, 75, 30
2, 71441, Note_on_c, 1, 72, 0
2, 71482, Note_on_c, 1, 75, 0
2, 71484, Note_on_c, 1, 79, 30
2, 71526, Note_on_c, 1, 60, 30
2, 71526, Note_on_c, 1, 55, 0
2, 71567, Note_on_c, 1, 63, 30
2, 71568, Note_on_c, 1, 60, 0
2, 71608, Note_on_c, 1, 63, 0
2, 71608, Note_on_c, 1, 79, 0
2, 71609, Note_on_c, 1, 55, 30
2, 71648, Note_on_c, 1, 71, 30
2, 71689, Note_on_c, 1, 74, 30
2, 71689, Note_on_c, 1, 71, 0
2, 71730, Note_on_c, 1, 74, 0
2, 71732, Note_on_c, 1, 79, 30
2, 71773, Note_on_c, 1, 55, 0
2, 71775, Note_on_c, 1, 59, 30
2, 71816, Note_on_c, 1, 62, 30
2, 71816, Note_on_c, 1, 59, 0
2, 71856, Note_on_c, 1, 55, 30
2, 71856, Note_on_c, 1, 79, 0
2, 71858, Note_on_c, 1, 62, 0
2, 71896, Note_on_c, 1, 72, 32
2, 71937, Note_on_c, 1, 75, 34
2, 71937, Note_on_c, 1, 72, 0
2, 71978, Note_on_c, 1, 75, 0
2, 71980, Note_on_c, 1, 80, 36
2, 72021, Note_on_c, 1, 55, 0
2, 72023, Note_on_c, 1, 60, 38
2, 72063, Note_on_c, 1, 63, 41
2, 72064, Note_on_c, 1, 60, 0
2, 72104, Note_on_c, 1, 55, 43
2, 72104, Note_on_c, 1, 63, 0
2, 72104, Note_on_c, 1, 80, 0
2, 72144, Note_on_c, 1, 73, 45
2, 72184, Note_on_c, 1, 73, 0
2, 72186, Note_on_c, 1, 76, 47
2, 72227, Note_on_c, 1, 76, 0
2, 72229, Note_on_c, 1, 81, 50
2, 72269, Note_on_c, 1, 55, 0
2, 72270, Note_on_c, 1, 61, 52
2, 72311, Note_on_c, 1, 64, 54
2, 72312, Note_on_c, 1, 61, 0
2, 72352, Note_on_c, 1, 55, 56
2, 72352, Note_on_c, 1, 64, 0
2, 72353, Note_on_c, 1, 81, 0
2, 72391, Note_on_c, 1, 74, 58
2, 72433, Note_on_c, 1, 74, 0
2, 72434, Note_on_c, 1, 77, 61
2, 72477, Note_on_c, 1, 82, 63
2, 72477, Note_on_c, 1, 77, 0
2, 72517, Note_on_c, 1, 55, 0
2, 72518, Note_on_c, 1, 62, 65
2, 72559, Note_on_c, 1, 65, 67
2, 72559, Note_on_c, 1, 62, 0
2, 72601, Note_on_c, 1, 55, 70
2, 72601, Note_on_c, 1, 65, 0
2, 72601, Note_on_c, 1, 82, 0
2, 72639, Note_on_c, 1, 74, 72
2, 72681, Note_on_c, 1, 74, 0
2, 72682, Note_on_c, 1, 77, 74
2, 72724, Note_on_c, 1, 77, 0
2, 72725, Note_on_c, 1, 83, 76
2, 72765, Note_on_c, 1, 55, 0
2, 72766, Note_on_c, 1, 62, 78
2, 72807, Note_on_c, 1, 65, 80
2, 72807, Note_on_c, 1, 62, 0
2, 72849, Note_on_c, 1, 83, 0
2, 72972, Note_on_c, 1, 65, 0
2, 73406, Note_on_c, 1, 79, 35
2, 73468, Note_on_c, 1, 79, 35
2, 73468, Note_on_c, 1, 79, 0
2, 73561, Note_on_c, 1, 78, 35
2, 73561, Note_on_c, 1, 79, 0
2, 73576, Note_on_c, 1, 79, 35
2, 73577, Note_on_c, 1, 78, 0
2, 73591, Note_on_c, 1, 79, 0
2, 73593, Note_on_c, 1, 84, 35
2, 73654, Note_on_c, 1, 79, 35
2, 73655, Note_on_c, 1, 84, 0
2, 73715, Note_on_c, 1, 76, 35
2, 73716, Note_on_c, 1, 79, 0
2, 73776, Note_on_c, 1, 72, 35
2, 73777, Note_on_c, 1, 76, 0
2, 73838, Note_on_c, 1, 48, 35
2, 73838, Note_on_c, 1, 72, 0
2, 73900, Note_on_c, 1, 48, 0
2, 73901, Note_on_c, 1, 52, 35
2, 73963, Note_on_c, 1, 52, 0
2, 73964, Note_on_c, 1, 55, 35
2, 74026, Note_on_c, 1, 55, 0
2, 74027, Note_on_c, 1, 60, 35
2, 74088, Note_on_c, 1, 79, 35
2, 74089, Note_on_c, 1, 60, 0
2, 74149, Note_on_c, 1, 76, 35
2, 74150, Note_on_c, 1, 79, 0
2, 74210, Note_on_c, 1, 72, 35
2, 74211, Note_on_c, 1, 76, 0
2, 74272, Note_on_c, 1, 72, 0
2, 74274, Note_on_c, 1, 67, 35
2, 74334, Note_on_c, 1, 48, 35
2, 74335, Note_on_c, 1, 67, 0
2, 74396, Note_on_c, 1, 48, 0
2, 74397, Note_on_c, 1, 52, 35
2, 74459, Note_on_c, 1, 52, 0
2, 74460, Note_on_c, 1, 55, 35
2, 74522, Note_on_c, 1, 55, 0
2, 74523, Note_on_c, 1, 60, 35
2, 74583, Note_on_c, 1, 76, 35
2, 74583, Note_on_c, 1, 48, 35
2, 74585, Note_on_c, 1, 60, 0
2, 74643, Note_on_c, 1, 72, 37
2, 74644, Note_on_c, 1, 48, 0
2, 74645, Note_on_c, 1, 52, 37
2, 74645, Note_on_c, 1, 76, 0
2, 74706, Note_on_c, 1, 72, 0
2, 74708, Note_on_c, 1, 55, 43
2, 74708, Note_on_c, 1, 67, 43
2, 74708, Note_on_c, 1, 52, 0
2, 74769, Note_on_c, 1, 67, 0
2, 74770, Note_on_c, 1, 64, 49
2, 74770, Note_on_c, 1, 55, 0
2, 74771, Note_on_c, 1, 60, 49
2, 74831, Note_on_c, 1, 76, 54
2, 74831, Note_on_c, 1, 48, 54
2, 74832, Note_on_c, 1, 64, 0
2, 74833, Note_on_c, 1, 60, 0
2, 74891, Note_on_c, 1, 72, 60
2, 74892, Note_on_c, 1, 48, 0
2, 74893, Note_on_c, 1, 52, 60
2, 74893, Note_on_c, 1, 76, 0
2, 74954, Note_on_c, 1, 72, 0
2, 74955, Note_on_c, 1, 52, 0
2, 74956, Note_on_c, 1, 67, 66
2, 74957, Note_on_c, 1, 55, 66
2, 75017, Note_on_c, 1, 64, 71
2, 75018, Note_on_c, 1, 55, 0
2, 75018, Note_on_c, 1, 67, 0
2, 75019, Note_on_c, 1, 60, 71
2, 75079, Note_on_c, 1, 50, 77
2, 75080, Note_on_c, 1, 67, 77
2, 75080, Note_on_c, 1, 64, 0
2, 75081, Note_on_c, 1, 60, 0
2, 75082, Note_on_c, 1, 62, 77
2, 75093, Note_on_c, 1, 72, 78
2, 75110, Note_on_c, 1, 77, 80
2, 75388, Note_on_c, 1, 72, 0
2, 75389, Note_on_c, 1, 50, 0
2, 75390, Note_on_c, 1, 67, 0
2, 75390, Note_on_c, 1, 77, 0
2, 75391, Note_on_c, 1, 77, 35
2, 75392, Note_on_c, 1, 62, 0
2, 75451, Note_on_c, 1, 77, 0
2, 75457, Note_on_c, 1, 77, 35
2, 75544, Note_on_c, 1, 76, 35
2, 75544, Note_on_c, 1, 77, 0
2, 75559, Note_on_c, 1, 76, 0
2, 75560, Note_on_c, 1, 77, 35
2, 75576, Note_on_c, 1, 77, 0
2, 75577, Note_on_c, 1, 81, 35
2, 75638, Note_on_c, 1, 77, 35
2, 75639, Note_on_c, 1, 81, 0
2, 75698, Note_on_c, 1, 74, 35
2, 75700, Note_on_c, 1, 77, 0
2, 75759, Note_on_c, 1, 74, 0
2, 75760, Note_on_c, 1, 71, 35
2, 75822, Note_on_c, 1, 71, 0
2, 75824, Note_on_c, 1, 55, 35
2, 75886, Note_on_c, 1, 55, 0
2, 75887, Note_on_c, 1, 59, 35
2, 75948, Note_on_c, 1, 59, 0
2, 75949, Note_on_c, 1, 62, 35
2, 76010, Note_on_c, 1, 65, 35
2, 76011, Note_on_c, 1, 62, 0
2, 76071, Note_on_c, 1, 77, 35
2, 76072, Note_on_c, 1, 65, 0
2, 76132, Note_on_c, 1, 74, 35
2, 76133, Note_on_c, 1, 77, 0
2, 76194, Note_on_c, 1, 71, 35
2, 76194, Note_on_c, 1, 74, 0
2, 76256, Note_on_c, 1, 71, 0
2, 76258, Note_on_c, 1, 67, 35
2, 76319, Note_on_c, 1, 67, 0
2, 76320, Note_on_c, 1, 43, 35
2, 76380, Note_on_c, 1, 50, 35
2, 76382, Note_on_c, 1, 43, 0
2, 76442, Note_on_c, 1, 50, 0
2, 76444, Note_on_c, 1, 53, 35
2, 76505, Note_on_c, 1, 55, 35
2, 76506, Note_on_c, 1, 53, 0
2, 76566, Note_on_c, 1, 74, 38
2, 76568, Note_on_c, 1, 43, 38
2, 76568, Note_on_c, 1, 55, 0
2, 76628, Note_on_c, 1, 50, 43
2, 76628, Note_on_c, 1, 71, 43
2, 76628, Note_on_c, 1, 74, 0
2, 76631, Note_on_c, 1, 43, 0
2, 76689, Note_on_c, 1, 71, 0
2, 76690, Note_on_c, 1, 50, 0
2, 76691, Note_on_c, 1, 67, 48
2, 76692, Note_on_c, 1, 53, 48
2, 76754, Note_on_c, 1, 55, 52
2, 76754, Note_on_c, 1, 65, 52
2, 76754, Note_on_c, 1, 67, 0
2, 76755, Note_on_c, 1, 53, 0
2, 76813, Note_on_c, 1, 74, 57
2, 76815, Note_on_c, 1, 65, 0
2, 76816, Note_on_c, 1, 43, 57
2, 76816, Note_on_c, 1, 55, 0
2, 76876, Note_on_c, 1, 50, 62
2, 76876, Note_on_c, 1, 71, 62
2, 76876, Note_on_c, 1, 74, 0
2, 76879, Note_on_c, 1, 43, 0
2, 76937, Note_on_c, 1, 71, 0
2, 76938, Note_on_c, 1, 50, 0
2, 76939, Note_on_c, 1, 67, 66
2, 76940, Note_on_c, 1, 53, 67
2, 77002, Note_on_c, 1, 55, 71
2, 77002, Note_on_c, 1, 65, 71
2, 77002, Note_on_c, 1, 67, 0
2, 77003, Note_on_c, 1, 53, 0
2, 77062, Note_on_c, 1, 48, 76
2, 77063, Note_on_c, 1, 67, 76
2, 77063, Note_on_c, 1, 65, 0
2, 77064, Note_on_c, 1, 55, 0
2, 77065, Note_on_c, 1, 60, 76
2, 77077, Note_on_c, 1, 71, 77
2, 77092, Note_on_c, 1, 74, 78
2, 77110, Note_on_c, 1, 77, 80
2, 77372, Note_on_c, 1, 74, 0
2, 77372, Note_on_c, 1, 71, 0
2, 77373, Note_on_c, 1, 48, 0
2, 77373, Note_on_c, 1, 67, 0
2, 77374, Note_on_c, 1, 77, 0
2, 77375, Note_on_c, 1, 79, 35
2, 77376, Note_on_c, 1, 60, 0
2, 77435, Note_on_c, 1, 79, 0
2, 77440, Note_on_c, 1, 79, 35
2, 77529, Note_on_c, 1, 78, 35
2, 77529, Note_on_c, 1, 79, 0
2, 77544, Note_on_c, 1, 79, 35
2, 77544, Note_on_c, 1, 78, 0
2, 77560, Note_on_c, 1, 79, 0
2, 77561, Note_on_c, 1, 84, 35
2, 77601, Note_on_c, 1, 64, 35
2, 77642, Note_on_c, 1, 64, 0
2, 77643, Note_on_c, 1, 67, 35
2, 77681, Note_on_c, 1, 72, 35
2, 77683, Note_on_c, 1, 67, 0
2, 77725, Note_on_c, 1, 79, 35
2, 77725, Note_on_c, 1, 84, 0
2, 77766, Note_on_c, 1, 79, 0
2, 77767, Note_on_c, 1, 83, 35
2, 77806, Note_on_c, 1, 72, 0
2, 77809, Note_on_c, 1, 84, 35
2, 77809, Note_on_c, 1, 83, 0
2, 77850, Note_on_c, 1, 83, 35
2, 77850, Note_on_c, 1, 84, 0
2, 77891, Note_on_c, 1, 81, 35
2, 77891, Note_on_c, 1, 83, 0
2, 77932, Note_on_c, 1, 79, 35
2, 77933, Note_on_c, 1, 81, 0
2, 77973, Note_on_c, 1, 77, 35
2, 77973, Note_on_c, 1, 79, 0
2, 78013, Note_on_c, 1, 76, 35
2, 78014, Note_on_c, 1, 77, 0
2, 78054, Note_on_c, 1, 76, 0
2, 78057, Note_on_c, 1, 81, 35
2, 78097, Note_on_c, 1, 65, 35
2, 78137, Note_on_c, 1, 69, 35
2, 78138, Note_on_c, 1, 65, 0
2, 78177, Note_on_c, 1, 74, 35
2, 78179, Note_on_c, 1, 69, 0
2, 78221, Note_on_c, 1, 80, 35
2, 78222, Note_on_c, 1, 81, 0
2, 78262, Note_on_c, 1, 80, 0
2, 78263, Note_on_c, 1, 83, 35
2, 78302, Note_on_c, 1, 74, 0
2, 78304, Note_on_c, 1, 81, 35
2, 78304, Note_on_c, 1, 83, 0
2, 78345, Note_on_c, 1, 79, 35
2, 78346, Note_on_c, 1, 81, 0
2, 78386, Note_on_c, 1, 77, 35
2, 78386, Note_on_c, 1, 79, 0
2, 78426, Note_on_c, 1, 76, 35
2, 78427, Note_on_c, 1, 77, 0
2, 78468, Note_on_c, 1, 77, 35
2, 78468, Note_on_c, 1, 76, 0
2, 78508, Note_on_c, 1, 74, 35
2, 78510, Note_on_c, 1, 77, 0
2, 78549, Note_on_c, 1, 72, 35
2, 78549, Note_on_c, 1, 74, 0
2, 78592, Note_on_c, 1, 55, 35
2, 78634, Note_on_c, 1, 55, 0
2, 78636, Note_on_c, 1, 60, 35
2, 78675, Note_on_c, 1, 64, 35
2, 78677, Note_on_c, 1, 60, 0
2, 78715, Note_on_c, 1, 72, 0
2, 78716, Note_on_c, 1, 76, 35
2, 78756, Note_on_c, 1, 72, 35
2, 78757, Note_on_c, 1, 76, 0
2, 78797, Note_on_c, 1, 71, 35
2, 78798, Note_on_c, 1, 72, 0
2, 78800, Note_on_c, 1, 64, 0
2, 78840, Note_on_c, 1, 55, 35
2, 78882, Note_on_c, 1, 55, 0
2, 78883, Note_on_c, 1, 62, 35
2, 78923, Note_on_c, 1, 65, 35
2, 78925, Note_on_c, 1, 62, 0
2, 78963, Note_on_c, 1, 74, 35
2, 78963, Note_on_c, 1, 71, 0
2, 79004, Note_on_c, 1, 74, 0
2, 79006, Note_on_c, 1, 79, 35
2, 79047, Note_on_c, 1, 79, 0
2, 79048, Note_on_c, 1, 77, 35
2, 79048, Note_on_c, 1, 65, 0
2, 79089, Note_on_c, 1, 60, 35
2, 79130, Note_on_c, 1, 64, 35
2, 79131, Note_on_c, 1, 60, 0
2, 79171, Note_on_c, 1, 67, 35
2, 79172, Note_on_c, 1, 64, 0
2, 79212, Note_on_c, 1, 76, 35
2, 79213, Note_on_c, 1, 77, 0
2, 79253, Note_on_c, 1, 76, 0
2, 79254, Note_on_c, 1, 77, 37
2, 79295, Note_on_c, 1, 78, 41
2, 79295, Note_on_c, 1, 77, 0
2, 79296, Note_on_c, 1, 67, 0
2, 79337, Note_on_c, 1, 79, 45
2, 79337, Note_on_c, 1, 78, 0
2, 79378, Note_on_c, 1, 80, 49
2, 79378, Note_on_c, 1, 79, 0
2, 79419, Note_on_c, 1, 80, 0
2, 79420, Note_on_c, 1, 81, 53
2, 79461, Note_on_c, 1, 81, 0
2, 79462, Note_on_c, 1, 82, 57
2, 79503, Note_on_c, 1, 83, 61
2, 79503, Note_on_c, 1, 82, 0
2, 79544, Note_on_c, 1, 84, 65
2, 79544, Note_on_c, 1, 83, 0
2, 79584, Note_on_c, 1, 64, 65
2, 79626, Note_on_c, 1, 64, 0
2, 79627, Note_on_c, 1, 67, 65
2, 79665, Note_on_c, 1, 72, 65
2, 79668, Note_on_c, 1, 67, 0
2, 79709, Note_on_c, 1, 79, 65
2, 79710, Note_on_c, 1, 84, 0
2, 79750, Note_on_c, 1, 79, 0
2, 79751, Note_on_c, 1, 83, 65
2, 79790, Note_on_c, 1, 72, 0
2, 79792, Note_on_c, 1, 84, 65
2, 79793, Note_on_c, 1, 83, 0
2, 79832, Note_on_c, 1, 79, 65
2, 79834, Note_on_c, 1, 84, 0
2, 79874, Note_on_c, 1, 79, 0
2, 79875, Note_on_c, 1, 83, 65
2, 79916, Note_on_c, 1, 84, 65
2, 79916, Note_on_c, 1, 83, 0
2, 79957, Note_on_c, 1, 79, 65
2, 79958, Note_on_c, 1, 84, 0
2, 79998, Note_on_c, 1, 79, 0
2, 79999, Note_on_c, 1, 83, 65
2, 80040, Note_on_c, 1, 84, 65
2, 80040, Note_on_c, 1, 83, 0
2, 80081, Note_on_c, 1, 64, 65
2, 80122, Note_on_c, 1, 67, 65
2, 80122, Note_on_c, 1, 64, 0
2, 80161, Note_on_c, 1, 72, 65
2, 80163, Note_on_c, 1, 67, 0
2, 80204, Note_on_c, 1, 79, 65
2, 80205, Note_on_c, 1, 84, 0
2, 80246, Note_on_c, 1, 79, 0
2, 80247, Note_on_c, 1, 82, 65
2, 80286, Note_on_c, 1, 72, 0
2, 80288, Note_on_c, 1, 84, 65
2, 80289, Note_on_c, 1, 82, 0
2, 80328, Note_on_c, 1, 79, 65
2, 80330, Note_on_c, 1, 84, 0
2, 80370, Note_on_c, 1, 79, 0
2, 80371, Note_on_c, 1, 82, 65
2, 80412, Note_on_c, 1, 84, 65
2, 80413, Note_on_c, 1, 82, 0
2, 80453, Note_on_c, 1, 79, 65
2, 80454, Note_on_c, 1, 84, 0
2, 80494, Note_on_c, 1, 82, 65
2, 80494, Note_on_c, 1, 79, 0
2, 80536, Note_on_c, 1, 82, 0
2, 80537, Note_on_c, 1, 84, 65
2, 80577, Note_on_c, 1, 65, 35
2, 80617, Note_on_c, 1, 69, 35
2, 80618, Note_on_c, 1, 65, 0
2, 80657, Note_on_c, 1, 72, 35
2, 80658, Note_on_c, 1, 69, 0
2, 80701, Note_on_c, 1, 77, 35
2, 80701, Note_on_c, 1, 84, 0
2, 80742, Note_on_c, 1, 77, 0
2, 80743, Note_on_c, 1, 81, 35
2, 80781, Note_on_c, 1, 72, 0
2, 80784, Note_on_c, 1, 82, 35
2, 80784, Note_on_c, 1, 81, 0
2, 80826, Note_on_c, 1, 58, 35
2, 80867, Note_on_c, 1, 62, 35
2, 80867, Note_on_c, 1, 58, 0
2, 80907, Note_on_c, 1, 67, 35
2, 80908, Note_on_c, 1, 62, 0
2, 80946, Note_on_c, 1, 74, 35
2, 80949, Note_on_c, 1, 82, 0
2, 80988, Note_on_c, 1, 74, 0
2, 80989, Note_on_c, 1, 79, 35
2, 81031, Note_on_c, 1, 79, 0
2, 81031, Note_on_c, 1, 67, 0
2, 81032, Note_on_c, 1, 81, 35
2, 81073, Note_on_c, 1, 60, 35
2, 81114, Note_on_c, 1, 65, 35
2, 81115, Note_on_c, 1, 60, 0
2, 81154, Note_on_c, 1, 69, 35
2, 81155, Note_on_c, 1, 65, 0
2, 81194, Note_on_c, 1, 72, 35
2, 81197, Note_on_c, 1, 81, 0
2, 81236, Note_on_c, 1, 72, 0
2, 81237, Note_on_c, 1, 77, 35
2, 81279, Note_on_c, 1, 79, 35
2, 81279, Note_on_c, 1, 69, 0
2, 81280, Note_on_c, 1, 77, 0
2, 81318, Note_on_c, 1, 48, 35
2, 81360, Note_on_c, 1, 48, 0
2, 81362, Note_on_c, 1, 55, 35
2, 81403, Note_on_c, 1, 55, 0
2, 81405, Note_on_c, 1, 60, 35
2, 81442, Note_on_c, 1, 70, 35
2, 81444, Note_on_c, 1, 79, 0
2, 81483, Note_on_c, 1, 70, 0
2, 81485, Note_on_c, 1, 76, 35
2, 81526, Note_on_c, 1, 76, 0
2, 81528, Note_on_c, 1, 53, 35
2, 81529, Note_on_c, 1, 60, 0
2, 81568, Note_on_c, 1, 77, 35
2, 81608, Note_on_c, 1, 72, 35
2, 81609, Note_on_c, 1, 77, 0
2, 81649, Note_on_c, 1, 72, 0
2, 81652, Note_on_c, 1, 53, 0
2, 81653, Note_on_c, 1, 60, 35
2, 81694, Note_on_c, 1, 81, 35
2, 81732, Note_on_c, 1, 72, 35
2, 81735, Note_on_c, 1, 81, 0
2, 81773, Note_on_c, 1, 72, 0
2, 81776, Note_on_c, 1, 65, 35
2, 81776, Note_on_c, 1, 60, 0
2, 81817, Note_on_c, 1, 81, 35
2, 81856, Note_on_c, 1, 72, 35
2, 81859, Note_on_c, 1, 81, 0
2, 81897, Note_on_c, 1, 72, 0
2, 81899, Note_on_c, 1, 69, 35
2, 81899, Note_on_c, 1, 65, 0
2, 81941, Note_on_c, 1, 84, 35
2, 81980, Note_on_c, 1, 72, 35
2, 81983, Note_on_c, 1, 84, 0
2, 82021, Note_on_c, 1, 72, 0
2, 82023, Note_on_c, 1, 67, 35
2, 82023, Note_on_c, 1, 69, 0
2, 82065, Note_on_c, 1, 82, 35
2, 82104, Note_on_c, 1, 72, 35
2, 82107, Note_on_c, 1, 82, 0
2, 82145, Note_on_c, 1, 72, 0
2, 82147, Note_on_c, 1, 64, 35
2, 82148, Note_on_c, 1, 67, 0
2, 82188, Note_on_c, 1, 79, 35
2, 82228, Note_on_c, 1, 72, 35
2, 82230, Note_on_c, 1, 79, 0
2, 82269, Note_on_c, 1, 72, 0
2, 82271, Note_on_c, 1, 64, 0
2, 82273, Note_on_c, 1, 60, 35
2, 82311, Note_on_c, 1, 76, 35
2, 82352, Note_on_c, 1, 72, 35
2, 82353, Note_on_c, 1, 76, 0
2, 82393, Note_on_c, 1, 72, 0
2, 82396, Note_on_c, 1, 58, 35
2, 82397, Note_on_c, 1, 60, 0
2, 82436, Note_on_c, 1, 79, 35
2, 82476, Note_on_c, 1, 72, 35
2, 82478, Note_on_c, 1, 79, 0
2, 82517, Note_on_c, 1, 72, 0
2, 82520, Note_on_c, 1, 57, 35
2, 82520, Note_on_c, 1, 58, 0
2, 82560, Note_on_c, 1, 77, 35
2, 82600, Note_on_c, 1, 72, 35
2, 82602, Note_on_c, 1, 77, 0
2, 82641, Note_on_c, 1, 72, 0
2, 82644, Note_on_c, 1, 60, 36
2, 82644, Note_on_c, 1, 57, 0
2, 82685, Note_on_c, 1, 84, 38
2, 82724, Note_on_c, 1, 72, 39
2, 82727, Note_on_c, 1, 84, 0
2, 82765, Note_on_c, 1, 72, 0
2, 82767, Note_on_c, 1, 65, 41
2, 82768, Note_on_c, 1, 60, 0
2, 82809, Note_on_c, 1, 83, 42
2, 82848, Note_on_c, 1, 72, 44
2, 82850, Note_on_c, 1, 83, 0
2, 82889, Note_on_c, 1, 72, 0
2, 82890, Note_on_c, 1, 69, 45
2, 82891, Note_on_c, 1, 65, 0
2, 82933, Note_on_c, 1, 84, 47
2, 82972, Note_on_c, 1, 72, 48
2, 82975, Note_on_c, 1, 84, 0
2, 83013, Note_on_c, 1, 72, 0
2, 83014, Note_on_c, 1, 69, 0
2, 83015, Note_on_c, 1, 67, 49
2, 83057, Note_on_c, 1, 82, 49
2, 83096, Note_on_c, 1, 72, 48
2, 83098, Note_on_c, 1, 82, 0
2, 83137, Note_on_c, 1, 72, 0
2, 83139, Note_on_c, 1, 64, 47
2, 83139, Note_on_c, 1, 67, 0
2, 83180, Note_on_c, 1, 79, 45
2, 83220, Note_on_c, 1, 72, 44
2, 83221, Note_on_c, 1, 79, 0
2, 83261, Note_on_c, 1, 72, 0
2, 83263, Note_on_c, 1, 64, 0
2, 83264, Note_on_c, 1, 60, 43
2, 83303, Note_on_c, 1, 76, 41
2, 83344, Note_on_c, 1, 72, 40
2, 83344, Note_on_c, 1, 76, 0
2, 83385, Note_on_c, 1, 72, 0
2, 83388, Note_on_c, 1, 58, 39
2, 83388, Note_on_c, 1, 60, 0
2, 83428, Note_on_c, 1, 79, 37
2, 83468, Note_on_c, 1, 72, 36
2, 83469, Note_on_c, 1, 79, 0
2, 83509, Note_on_c, 1, 72, 0
2, 83512, Note_on_c, 1, 57, 35
2, 83512, Note_on_c, 1, 58, 0
2, 83552, Note_on_c, 1, 77, 35
2, 83592, Note_on_c, 1, 72, 35
2, 83593, Note_on_c, 1, 77, 0
2, 83632, Note_on_c, 1, 72, 0
2, 83635, Note_on_c, 1, 65, 35
2, 83636, Note_on_c, 1, 57, 0
2, 83677, Note_on_c, 1, 81, 35
2, 83715, Note_on_c, 1, 72, 35
2, 83718, Note_on_c, 1, 81, 0
2, 83756, Note_on_c, 1, 72, 0
2, 83759, Note_on_c, 1, 65, 0
2, 83760, Note_on_c, 1, 59, 35
2, 83801, Note_on_c, 1, 81, 50
2, 83839, Note_on_c, 1, 74, 49
2, 83842, Note_on_c, 1, 81, 0
2, 83880, Note_on_c, 1, 74, 0
2, 83883, Note_on_c, 1, 67, 48
2, 83884, Note_on_c, 1, 59, 0
2, 83924, Note_on_c, 1, 79, 47
2, 83963, Note_on_c, 1, 74, 46
2, 83965, Note_on_c, 1, 79, 0
2, 84005, Note_on_c, 1, 74, 0
2, 84007, Note_on_c, 1, 67, 0
2, 84009, Note_on_c, 1, 60, 45
2, 84048, Note_on_c, 1, 77, 45
2, 84087, Note_on_c, 1, 72, 44
2, 84089, Note_on_c, 1, 77, 0
2, 84129, Note_on_c, 1, 72, 0
2, 84132, Note_on_c, 1, 67, 43
2, 84132, Note_on_c, 1, 60, 0
2, 84171, Note_on_c, 1, 76, 42
2, 84211, Note_on_c, 1, 72, 41
2, 84212, Note_on_c, 1, 76, 0
2, 84253, Note_on_c, 1, 72, 0
2, 84255, Note_on_c, 1, 67, 0
2, 84256, Note_on_c, 1, 55, 40
2, 84295, Note_on_c, 1, 76, 39
2, 84336, Note_on_c, 1, 71, 38
2, 84337, Note_on_c, 1, 76, 0
2, 84377, Note_on_c, 1, 71, 0
2, 84379, Note_on_c, 1, 65, 37
2, 84379, Note_on_c, 1, 55, 0
2, 84418, Note_on_c, 1, 74, 36
2, 84460, Note_on_c, 1, 71, 35
2, 84460, Note_on_c, 1, 74, 0
2, 84501, Note_on_c, 1, 48, 34
2, 84501, Note_on_c, 1, 71, 0
2, 84503, Note_on_c, 1, 65, 0
2, 84542, Note_on_c, 1, 72, 33
2, 84584, Note_on_c, 1, 72, 0
2, 84586, Note_on_c, 1, 67, 32
2, 84625, Note_on_c, 1, 48, 0
2, 84627, Note_on_c, 1, 55, 30
2, 84627, Note_on_c, 1, 67, 0
2, 84667, Note_on_c, 1, 76, 30
2, 84709, Note_on_c, 1, 76, 0
2, 84710, Note_on_c, 1, 67, 30
2, 84751, Note_on_c, 1, 67, 0
2, 84751, Note_on_c, 1, 55, 0
2, 84752, Note_on_c, 1, 60, 30
2, 84791, Note_on_c, 1, 76, 30
2, 84833, Note_on_c, 1, 76, 0
2, 84834, Note_on_c, 1, 67, 30
2, 84875, Note_on_c, 1, 64, 30
2, 84875, Note_on_c, 1, 67, 0
2, 84876, Note_on_c, 1, 60, 0
2, 84916, Note_on_c, 1, 79, 30
2, 84957, Note_on_c, 1, 79, 0
2, 84958, Note_on_c, 1, 67, 30
2, 84999, Note_on_c, 1, 67, 0
2, 84999, Note_on_c, 1, 64, 0
2, 85000, Note_on_c, 1, 62, 30
2, 85040, Note_on_c, 1, 77, 30
2, 85081, Note_on_c, 1, 77, 0
2, 85082, Note_on_c, 1, 67, 30
2, 85123, Note_on_c, 1, 67, 0
2, 85124, Note_on_c, 1, 59, 30
2, 85124, Note_on_c, 1, 62, 0
2, 85162, Note_on_c, 1, 74, 30
2, 85203, Note_on_c, 1, 74, 0
2, 85206, Note_on_c, 1, 67, 30
2, 85247, Note_on_c, 1, 55, 30
2, 85247, Note_on_c, 1, 67, 0
2, 85248, Note_on_c, 1, 59, 0
2, 85286, Note_on_c, 1, 71, 30
2, 85327, Note_on_c, 1, 71, 0
2, 85330, Note_on_c, 1, 67, 30
2, 85371, Note_on_c, 1, 53, 30
2, 85371, Note_on_c, 1, 67, 0
2, 85371, Note_on_c, 1, 55, 0
2, 85410, Note_on_c, 1, 74, 30
2, 85451, Note_on_c, 1, 74, 0
2, 85454, Note_on_c, 1, 67, 30
2, 85494, Note_on_c, 1, 52, 31
2, 85495, Note_on_c, 1, 67, 0
2, 85495, Note_on_c, 1, 53, 0
2, 85533, Note_on_c, 1, 72, 32
2, 85575, Note_on_c, 1, 72, 0
2, 85578, Note_on_c, 1, 67, 34
2, 85618, Note_on_c, 1, 67, 0
2, 85618, Note_on_c, 1, 52, 0
2, 85619, Note_on_c, 1, 55, 35
2, 85660, Note_on_c, 1, 79, 37
2, 85701, Note_on_c, 1, 79, 0
2, 85702, Note_on_c, 1, 67, 39
2, 85742, Note_on_c, 1, 67, 0
2, 85743, Note_on_c, 1, 55, 0
2, 85744, Note_on_c, 1, 60, 40
2, 85784, Note_on_c, 1, 78, 42
2, 85825, Note_on_c, 1, 78, 0
2, 85826, Note_on_c, 1, 67, 44
2, 85866, Note_on_c, 1, 67, 0
2, 85867, Note_on_c, 1, 64, 45
2, 85868, Note_on_c, 1, 60, 0
2, 85907, Note_on_c, 1, 79, 47
2, 85949, Note_on_c, 1, 67, 48
2, 85949, Note_on_c, 1, 79, 0
2, 85990, Note_on_c, 1, 67, 0
2, 85991, Note_on_c, 1, 64, 0
2, 85992, Note_on_c, 1, 62, 50
2, 86032, Note_on_c, 1, 77, 49
2, 86073, Note_on_c, 1, 77, 0
2, 86074, Note_on_c, 1, 67, 48
2, 86114, Note_on_c, 1, 67, 0
2, 86116, Note_on_c, 1, 59, 47
2, 86116, Note_on_c, 1, 62, 0
2, 86154, Note_on_c, 1, 74, 46
2, 86195, Note_on_c, 1, 74, 0
2, 86197, Note_on_c, 1, 67, 45
2, 86238, Note_on_c, 1, 67, 0
2, 86239, Note_on_c, 1, 55, 44
2, 86240, Note_on_c, 1, 59, 0
2, 86278, Note_on_c, 1, 71, 43
2, 86319, Note_on_c, 1, 71, 0
2, 86321, Note_on_c, 1, 67, 42
2, 86362, Note_on_c, 1, 67, 0
2, 86363, Note_on_c, 1, 53, 41
2, 86363, Note_on_c, 1, 55, 0
2, 86402, Note_on_c, 1, 74, 40
2, 86443, Note_on_c, 1, 74, 0
2, 86445, Note_on_c, 1, 67, 39
2, 86486, Note_on_c, 1, 52, 38
2, 86486, Note_on_c, 1, 67, 0
2, 86487, Note_on_c, 1, 53, 0
2, 86526, Note_on_c, 1, 72, 37
2, 86567, Note_on_c, 1, 72, 0
2, 86569, Note_on_c, 1, 67, 36
2, 86610, Note_on_c, 1, 67, 0
2, 86610, Note_on_c, 1, 52, 0
2, 86611, Note_on_c, 1, 64, 35
2, 86650, Note_on_c, 1, 73, 35
2, 86691, Note_on_c, 1, 73, 0
2, 86693, Note_on_c, 1, 67, 35
2, 86734, Note_on_c, 1, 67, 0
2, 86735, Note_on_c, 1, 53, 35
2, 86735, Note_on_c, 1, 64, 0
2, 86775, Note_on_c, 1, 76, 35
2, 86816, Note_on_c, 1, 69, 35
2, 86816, Note_on_c, 1, 76, 0
2, 86857, Note_on_c, 1, 69, 0
2, 86859, Note_on_c, 1, 65, 35
2, 86859, Note_on_c, 1, 53, 0
2, 86898, Note_on_c, 1, 74, 35
2, 86939, Note_on_c, 1, 74, 0
2, 86940, Note_on_c, 1, 69, 35
2, 86981, Note_on_c, 1, 69, 0
2, 86982, Note_on_c, 1, 55, 35
2, 86983, Note_on_c, 1, 65, 0
2, 87024, Note_on_c, 1, 77, 35
2, 87063, Note_on_c, 1, 71, 35
2, 87065, Note_on_c, 1, 77, 0
2, 87104, Note_on_c, 1, 71, 0
2, 87106, Note_on_c, 1, 67, 35
2, 87107, Note_on_c, 1, 55, 0
2, 87147, Note_on_c, 1, 76, 35
2, 87187, Note_on_c, 1, 71, 35
2, 87188, Note_on_c, 1, 76, 0
2, 87228, Note_on_c, 1, 71, 0
2, 87230, Note_on_c, 1, 67, 0
2, 87231, Note_on_c, 1, 56, 35
2, 87272, Note_on_c, 1, 77, 35
2, 87311, Note_on_c, 1, 71, 35
2, 87313, Note_on_c, 1, 77, 0
2, 87353, Note_on_c, 1, 71, 0
2, 87354, Note_on_c, 1, 68, 35
2, 87355, Note_on_c, 1, 56, 0
2, 87395, Note_on_c, 1, 76, 35
2, 87435, Note_on_c, 1, 71, 35
2, 87436, Note_on_c, 1, 76, 0
2, 87477, Note_on_c, 1, 71, 0
2, 87478, Note_on_c, 1, 69, 35
2, 87478, Note_on_c, 1, 68, 0
2, 87518, Note_on_c, 1, 72, 35
2, 87559, Note_on_c, 1, 72, 0
2, 87560, Note_on_c, 1, 76, 35
2, 87602, Note_on_c, 1, 68, 35
2, 87602, Note_on_c, 1, 76, 0
2, 87602, Note_on_c, 1, 69, 0
2, 87642, Note_on_c, 1, 71, 35
2, 87683, Note_on_c, 1, 71, 0
2, 87685, Note_on_c, 1, 76, 35
2, 87725, Note_on_c, 1, 76, 0
2, 87726, Note_on_c, 1, 69, 35
2, 87726, Note_on_c, 1, 68, 0
2, 87765, Note_on_c, 1, 72, 35
2, 87807, Note_on_c, 1, 72, 0
2, 87808, Note_on_c, 1, 76, 35
2, 87849, Note_on_c, 1, 76, 0
2, 87850, Note_on_c, 1, 68, 35
2, 87850, Note_on_c, 1, 69, 0
2, 87889, Note_on_c, 1, 71, 35
2, 87931, Note_on_c, 1, 71, 0
2, 87932, Note_on_c, 1, 76, 35
2, 87973, Note_on_c, 1, 76, 0
2, 87974, Note_on_c, 1, 69, 35
2, 87974, Note_on_c, 1, 68, 0
2, 88013, Note_on_c, 1, 72, 35
2, 88055, Note_on_c, 1, 72, 0
2, 88056, Note_on_c, 1, 76, 35
2, 88097, Note_on_c, 1, 76, 0
2, 88098, Note_on_c, 1, 69, 0
2, 88099, Note_on_c, 1, 65, 35
2, 88139, Note_on_c, 1, 77, 35
2, 88141, Note_on_c, 1, 81, 35
2, 88179, Note_on_c, 1, 72, 35
2, 88181, Note_on_c, 1, 77, 0
2, 88182, Note_on_c, 1, 81, 0
2, 88220, Note_on_c, 1, 72, 0
2, 88223, Note_on_c, 1, 67, 35
2, 88223, Note_on_c, 1, 65, 0
2, 88263, Note_on_c, 1, 79, 35
2, 88263, Note_on_c, 1, 76, 35
2, 88303, Note_on_c, 1, 72, 35
2, 88304, Note_on_c, 1, 76, 0
2, 88305, Note_on_c, 1, 79, 0
2, 88344, Note_on_c, 1, 72, 0
2, 88347, Note_on_c, 1, 55, 35
2, 88347, Note_on_c, 1, 67, 0
2, 88386, Note_on_c, 1, 74, 35
2, 88387, Note_on_c, 1, 79, 35
2, 88427, Note_on_c, 1, 71, 35
2, 88427, Note_on_c, 1, 74, 0
2, 88429, Note_on_c, 1, 79, 0
2, 88468, Note_on_c, 1, 71, 0
2, 88470, Note_on_c, 1, 55, 0
2, 88472, Note_on_c, 1, 60, 35
2, 88510, Note_on_c, 1, 75, 35
2, 88551, Note_on_c, 1, 75, 0
2, 88552, Note_on_c, 1, 76, 35
2, 88593, Note_on_c, 1, 76, 0
2, 88594, Note_on_c, 1, 68, 80
2, 88595, Note_on_c, 1, 56, 80
2, 88595, Note_on_c, 1, 60, 0
2, 88633, Note_on_c, 1, 71, 80
2, 88637, Note_on_c, 1, 83, 80
2, 88675, Note_on_c, 1, 71, 0
2, 88676, Note_on_c, 1, 76, 80
2, 88678, Note_on_c, 1, 83, 0
2, 88717, Note_on_c, 1, 76, 0
2, 88718, Note_on_c, 1, 68, 0
2, 88719, Note_on_c, 1, 69, 80
2, 88719, Note_on_c, 1, 56, 0
2, 88720, Note_on_c, 1, 57, 80
2, 88757, Note_on_c, 1, 72, 80
2, 88761, Note_on_c, 1, 84, 80
2, 88799, Note_on_c, 1, 72, 0
2, 88800, Note_on_c, 1, 76, 80
2, 88802, Note_on_c, 1, 84, 0
2, 88841, Note_on_c, 1, 76, 0
2, 88842, Note_on_c, 1, 68, 80
2, 88842, Note_on_c, 1, 69, 0
2, 88843, Note_on_c, 1, 56, 80
2, 88844, Note_on_c, 1, 57, 0
2, 88881, Note_on_c, 1, 71, 80
2, 88884, Note_on_c, 1, 83, 80
2, 88923, Note_on_c, 1, 71, 0
2, 88924, Note_on_c, 1, 76, 80
2, 88925, Note_on_c, 1, 83, 0
2, 88965, Note_on_c, 1, 76, 0
2, 88966, Note_on_c, 1, 69, 80
2, 88966, Note_on_c, 1, 56, 0
2, 88966, Note_on_c, 1, 68, 0
2, 88968, Note_on_c, 1, 57, 80
2, 89006, Note_on_c, 1, 72, 80
2, 89009, Note_on_c, 1, 84, 80
2, 89047, Note_on_c, 1, 72, 0
2, 89049, Note_on_c, 1, 76, 80
2, 89050, Note_on_c, 1, 84, 0
2, 89089, Note_on_c, 1, 76, 0
2, 89090, Note_on_c, 1, 69, 0
2, 89091, Note_on_c, 1, 65, 80
2, 89091, Note_on_c, 1, 57, 0
2, 89131, Note_on_c, 1, 77, 80
2, 89132, Note_on_c, 1, 81, 80
2, 89171, Note_on_c, 1, 72, 80
2, 89173, Note_on_c, 1, 77, 0
2, 89174, Note_on_c, 1, 81, 0
2, 89212, Note_on_c, 1, 72, 0
2, 89214, Note_on_c, 1, 65, 0
2, 89215, Note_on_c, 1, 67, 80
2, 89255, Note_on_c, 1, 76, 80
2, 89256, Note_on_c, 1, 79, 80
2, 89294, Note_on_c, 1, 72, 80
2, 89296, Note_on_c, 1, 76, 0
2, 89297, Note_on_c, 1, 79, 0
2, 89336, Note_on_c, 1, 72, 0
2, 89338, Note_on_c, 1, 67, 0
2, 89339, Note_on_c, 1, 55, 80
2, 89378, Note_on_c, 1, 74, 80
2, 89380, Note_on_c, 1, 77, 80
2, 89418, Note_on_c, 1, 74, 0
2, 89419, Note_on_c, 1, 72, 80
2, 89421, Note_on_c, 1, 77, 0
2, 89460, Note_on_c, 1, 72, 0
2, 89461, Note_on_c, 1, 48, 80
2, 89462, Note_on_c, 1, 55, 0
2, 89502, Note_on_c, 1, 72, 80
2, 89543, Note_on_c, 1, 72, 0
2, 89544, Note_on_c, 1, 76, 80
2, 89585, Note_on_c, 1, 76, 0
2, 89587, Note_on_c, 1, 60, 80
2, 89625, Note_on_c, 1, 70, 80
2, 89667, Note_on_c, 1, 70, 0
2, 89669, Note_on_c, 1, 79, 80
2, 89710, Note_on_c, 1, 79, 0
2, 89712, Note_on_c, 1, 60, 0
2, 89721, Note_on_c, 1, 60, 80
2, 89750, Note_on_c, 1, 69, 80
2, 89792, Note_on_c, 1, 69, 0
2, 89793, Note_on_c, 1, 79, 80
2, 89834, Note_on_c, 1, 79, 0
2, 89835, Note_on_c, 1, 60, 0
2, 89846, Note_on_c, 1, 60, 80
2, 89874, Note_on_c, 1, 71, 80
2, 89915, Note_on_c, 1, 71, 0
2, 89917, Note_on_c, 1, 77, 80
2, 89957, Note_on_c, 1, 48, 80
2, 89957, Note_on_c, 1, 48, 0
2, 89958, Note_on_c, 1, 77, 0
2, 89959, Note_on_c, 1, 60, 0
2, 89997, Note_on_c, 1, 72, 80
2, 90039, Note_on_c, 1, 76, 80
2, 90039, Note_on_c, 1, 72, 0
2, 90081, Note_on_c, 1, 76, 0
2, 90084, Note_on_c, 1, 60, 80
2, 90124, Note_on_c, 1, 67, 80
2, 90164, Note_on_c, 1, 76, 79
2, 90165, Note_on_c, 1, 67, 0
2, 90205, Note_on_c, 1, 76, 0
2, 90207, Note_on_c, 1, 60, 0
2, 90218, Note_on_c, 1, 60, 73
2, 90247, Note_on_c, 1, 67, 70
2, 90288, Note_on_c, 1, 76, 66
2, 90288, Note_on_c, 1, 67, 0
2, 90329, Note_on_c, 1, 76, 0
2, 90332, Note_on_c, 1, 60, 0
2, 90341, Note_on_c, 1, 60, 61
2, 90371, Note_on_c, 1, 65, 58
2, 90411, Note_on_c, 1, 74, 54
2, 90413, Note_on_c, 1, 65, 0
2, 90452, Note_on_c, 1, 74, 0
2, 90452, Note_on_c, 1, 48, 0
2, 90453, Note_on_c, 1, 48, 49
2, 90455, Note_on_c, 1, 60, 0
2, 90495, Note_on_c, 1, 64, 45
2, 90535, Note_on_c, 1, 72, 41
2, 90537, Note_on_c, 1, 64, 0
2, 90576, Note_on_c, 1, 72, 0
2, 90579, Note_on_c, 1, 60, 37
2, 90619, Note_on_c, 1, 79, 35
2, 90621, Note_on_c, 1, 82, 35
2, 90661, Note_on_c, 1, 79, 0
2, 90662, Note_on_c, 1, 84, 35
2, 90662, Note_on_c, 1, 82, 0
2, 90703, Note_on_c, 1, 84, 0
2, 90703, Note_on_c, 1, 60, 0
2, 90713, Note_on_c, 1, 60, 35
2, 90744, Note_on_c, 1, 78, 35
2, 90745, Note_on_c, 1, 81, 35
2, 90785, Note_on_c, 1, 81, 0
2, 90785, Note_on_c, 1, 78, 0
2, 90786, Note_on_c, 1, 84, 35
2, 90827, Note_on_c, 1, 84, 0
2, 90827, Note_on_c, 1, 60, 0
2, 90838, Note_on_c, 1, 60, 35
2, 90867, Note_on_c, 1, 80, 35
2, 90867, Note_on_c, 1, 77, 35
2, 90908, Note_on_c, 1, 77, 0
2, 90909, Note_on_c, 1, 80, 0
2, 90910, Note_on_c, 1, 84, 35
2, 90948, Note_on_c, 1, 48, 0
2, 90949, Note_on_c, 1, 48, 35
2, 90951, Note_on_c, 1, 84, 0
2, 90952, Note_on_c, 1, 60, 0
2, 90990, Note_on_c, 1, 76, 35
2, 90992, Note_on_c, 1, 79, 35
2, 91032, Note_on_c, 1, 76, 0
2, 91033, Note_on_c, 1, 79, 0
2, 91034, Note_on_c, 1, 84, 35
2, 91075, Note_on_c, 1, 84, 0
2, 91076, Note_on_c, 1, 60, 35
2, 91113, Note_on_c, 1, 75, 35
2, 91115, Note_on_c, 1, 78, 35
2, 91154, Note_on_c, 1, 75, 0
2, 91157, Note_on_c, 1, 78, 0
2, 91158, Note_on_c, 1, 84, 35
2, 91199, Note_on_c, 1, 84, 0
2, 91199, Note_on_c, 1, 60, 0
2, 91210, Note_on_c, 1, 60, 35
2, 91237, Note_on_c, 1, 74, 35
2, 91239, Note_on_c, 1, 77, 35
2, 91278, Note_on_c, 1, 74, 0
2, 91281, Note_on_c, 1, 77, 0
2, 91282, Note_on_c, 1, 84, 35
2, 91323, Note_on_c, 1, 84, 0
2, 91323, Note_on_c, 1, 60, 0
2, 91333, Note_on_c, 1, 60, 35
2, 91362, Note_on_c, 1, 74, 35
2, 91363, Note_on_c, 1, 77, 35
2, 91403, Note_on_c, 1, 74, 0
2, 91405, Note_on_c, 1, 77, 0
2, 91406, Note_on_c, 1, 83, 35
2, 91445, Note_on_c, 1, 48, 35
2, 91445, Note_on_c, 1, 48, 0
2, 91447, Note_on_c, 1, 84, 35
2, 91447, Note_on_c, 1, 83, 0
2, 91448, Note_on_c, 1, 60, 0
2, 91487, Note_on_c, 1, 79, 35
2, 91488, Note_on_c, 1, 84, 0
2, 91528, Note_on_c, 1, 76, 35
2, 91529, Note_on_c, 1, 79, 0
2, 91568, Note_on_c, 1, 72, 35
2, 91568, Note_on_c, 1, 48, 0
2, 91569, Note_on_c, 1, 76, 0
2, 91610, Note_on_c, 1, 72, 0
2, 91611, Note_on_c, 1, 67, 35
2, 91652, Note_on_c, 1, 64, 35
2, 91653, Note_on_c, 1, 67, 0
2, 91692, Note_on_c, 1, 72, 35
2, 91693, Note_on_c, 1, 72, 35
2, 91694, Note_on_c, 1, 64, 0
2, 91732, Note_on_c, 1, 72, 0
2, 91733, Note_on_c, 1, 72, 0
2, 91735, Note_on_c, 1, 67, 35
2, 91776, Note_on_c, 1, 64, 35
2, 91777, Note_on_c, 1, 67, 0
2, 91818, Note_on_c, 1, 64, 0
2, 91819, Note_on_c, 1, 60, 35
2, 91859, Note_on_c, 1, 55, 35
2, 91860, Note_on_c, 1, 60, 0
2, 91900, Note_on_c, 1, 52, 35
2, 91901, Note_on_c, 1, 55, 0
2, 91940, Note_on_c, 1, 48, 35
2, 91941, Note_on_c, 1, 52, 0
2, 92064, Note_on_c, 1, 48, 0
2, 92608, Note_on_c, 1, 65, 35
2, 92609, Note_on_c, 1, 81, 35
2, 92681, Note_on_c, 1, 72, 35
2, 92683, Note_on_c, 1, 65, 0
2, 92756, Note_on_c, 1, 72, 0
2, 92757, Note_on_c, 1, 69, 35
2, 92831, Note_on_c, 1, 72, 35
2, 92832, Note_on_c, 1, 69, 0
2, 92906, Note_on_c, 1, 72, 0
2, 92908, Note_on_c, 1, 64, 35
2, 92908, Note_on_c, 1, 81, 0
2, 92909, Note_on_c, 1, 82, 35
2, 92981, Note_on_c, 1, 72, 35
2, 92983, Note_on_c, 1, 64, 0
2, 93056, Note_on_c, 1, 72, 0
2, 93058, Note_on_c, 1, 67, 35
2, 93131, Note_on_c, 1, 72, 35
2, 93132, Note_on_c, 1, 67, 0
2, 93206, Note_on_c, 1, 72, 0
2, 93208, Note_on_c, 1, 65, 35
2, 93281, Note_on_c, 1, 72, 35
2, 93283, Note_on_c, 1, 65, 0
2, 93356, Note_on_c, 1, 72, 0
2, 93357, Note_on_c, 1, 69, 35
2, 93358, Note_on_c, 1, 81, 35
2, 93358, Note_on_c, 1, 82, 0
2, 93430, Note_on_c, 1, 72, 35
2, 93431, Note_on_c, 1, 69, 0
2, 93505, Note_on_c, 1, 72, 0
2, 93508, Note_on_c, 1, 60, 35
2, 93508, Note_on_c, 1, 81, 0
2, 93521, Note_on_c, 1, 81, 35
2, 93581, Note_on_c, 1, 72, 35
2, 93581, Note_on_c, 1, 72, 35
2, 93582, Note_on_c, 1, 79, 35
2, 93583, Note_on_c, 1, 81, 0
2, 93584, Note_on_c, 1, 60, 0
2, 93621, Note_on_c, 1, 72, 0
2, 93655, Note_on_c, 1, 70, 35
2, 93656, Note_on_c, 1, 72, 0
2, 93657, Note_on_c, 1, 77, 35
2, 93657, Note_on_c, 1, 79, 0
2, 93731, Note_on_c, 1, 76, 35
2, 93731, Note_on_c, 1, 72, 35
2, 93731, Note_on_c, 1, 70, 0
2, 93732, Note_on_c, 1, 77, 0
2, 93806, Note_on_c, 1, 69, 35
2, 93806, Note_on_c, 1, 76, 0
2, 93806, Note_on_c, 1, 72, 0
2, 93807, Note_on_c, 1, 79, 35
2, 93880, Note_on_c, 1, 72, 35
2, 93881, Note_on_c, 1, 69, 0
2, 93955, Note_on_c, 1, 72, 0
2, 93956, Note_on_c, 1, 68, 35
2, 93956, Note_on_c, 1, 79, 0
2, 93957, Note_on_c, 1, 77, 35
2, 94030, Note_on_c, 1, 72, 35
2, 94031, Note_on_c, 1, 68, 0
2, 94104, Note_on_c, 1, 72, 0
2, 94105, Note_on_c, 1, 69, 35
2, 94179, Note_on_c, 1, 72, 35
2, 94181, Note_on_c, 1, 69, 0
2, 94254, Note_on_c, 1, 72, 0
2, 94256, Note_on_c, 1, 79, 35
2, 94256, Note_on_c, 1, 77, 0
2, 94257, Note_on_c, 1, 64, 35
2, 94329, Note_on_c, 1, 72, 35
2, 94332, Note_on_c, 1, 64, 0
2, 94405, Note_on_c, 1, 72, 0
2, 94406, Note_on_c, 1, 79, 0
2, 94407, Note_on_c, 1, 81, 35
2, 94407, Note_on_c, 1, 65, 35
2, 94479, Note_on_c, 1, 72, 37
2, 94481, Note_on_c, 1, 65, 0
2, 94554, Note_on_c, 1, 72, 0
2, 94557, Note_on_c, 1, 84, 42
2, 94557, Note_on_c, 1, 63, 42
2, 94557, Note_on_c, 1, 81, 0
2, 94630, Note_on_c, 1, 63, 0
2, 94631, Note_on_c, 1, 65, 47
2, 94706, Note_on_c, 1, 65, 0
2, 94706, Note_on_c, 1, 84, 0
2, 94707, Note_on_c, 1, 62, 50
2, 94719, Note_on_c, 1, 84, 49
2, 94744, Note_on_c, 1, 82, 48
2, 94744, Note_on_c, 1, 84, 0
2, 94780, Note_on_c, 1, 65, 47
2, 94782, Note_on_c, 1, 62, 0
2, 94856, Note_on_c, 1, 65, 0
2, 94857, Note_on_c, 1, 81, 45
2, 94857, Note_on_c, 1, 60, 45
2, 94857, Note_on_c, 1, 82, 0
2, 94930, Note_on_c, 1, 65, 42
2, 94932, Note_on_c, 1, 60, 0
2, 95006, Note_on_c, 1, 79, 40
2, 95006, Note_on_c, 1, 65, 0
2, 95006, Note_on_c, 1, 81, 0
2, 95007, Note_on_c, 1, 58, 40
2, 95081, Note_on_c, 1, 58, 0
2, 95082, Note_on_c, 1, 62, 37
2, 95155, Note_on_c, 1, 77, 35
2, 95155, Note_on_c, 1, 79, 0
2, 95156, Note_on_c, 1, 62, 0
2, 95157, Note_on_c, 1, 59, 35
2, 95231, Note_on_c, 1, 62, 35
2, 95232, Note_on_c, 1, 59, 0
2, 95304, Note_on_c, 1, 77, 0
2, 95306, Note_on_c, 1, 81, 35
2, 95306, Note_on_c, 1, 62, 0
2, 95307, Note_on_c, 1, 60, 35
2, 95380, Note_on_c, 1, 65, 35
2, 95381, Note_on_c, 1, 60, 0
2, 95454, Note_on_c, 1, 69, 35
2, 95455, Note_on_c, 1, 65, 0
2, 95493, Note_on_c, 1, 82, 35
2, 95493, Note_on_c, 1, 81, 0
2, 95529, Note_on_c, 1, 72, 35
2, 95530, Note_on_c, 1, 69, 0
2, 95531, Note_on_c, 1, 83, 35
2, 95531, Note_on_c, 1, 82, 0
2, 95568, Note_on_c, 1, 84, 35
2, 95568, Note_on_c, 1, 83, 0
2, 95603, Note_on_c, 1, 72, 0
2, 95605, Note_on_c, 1, 79, 35
2, 95605, Note_on_c, 1, 84, 0
2, 95606, Note_on_c, 1, 60, 35
2, 95680, Note_on_c, 1, 64, 35
2, 95680, Note_on_c, 1, 60, 0
2, 95754, Note_on_c, 1, 79, 0
2, 95755, Note_on_c, 1, 67, 35
2, 95755, Note_on_c, 1, 64, 0
2, 95827, Note_on_c, 1, 72, 35
2, 95829, Note_on_c, 1, 67, 0
2, 95902, Note_on_c, 1, 71, 35
2, 95902, Note_on_c, 1, 72, 0
2, 95977, Note_on_c, 1, 72, 35
2, 95977, Note_on_c, 1, 71, 0
2, 96052, Note_on_c, 1, 72, 0
2, 96053, Note_on_c, 1, 74, 35
2, 96127, Note_on_c, 1, 72, 35
2, 96127, Note_on_c, 1, 74, 0
2, 96203, Note_on_c, 1, 70, 35
2, 96203, Note_on_c, 1, 76, 35
2, 96203, Note_on_c, 1, 72, 0
2, 96204, Note_on_c, 1, 79, 35
2, 96278, Note_on_c, 1, 72, 35
2, 96278, Note_on_c, 1, 76, 0
2, 96278, Note_on_c, 1, 70, 0
2, 96279, Note_on_c, 1, 79, 0
2, 96280, Note_on_c, 1, 84, 35
2, 96352, Note_on_c, 1, 72, 0
2, 96354, Note_on_c, 1, 67, 35
2, 96355, Note_on_c, 1, 84, 0
2, 96427, Note_on_c, 1, 72, 35
2, 96429, Note_on_c, 1, 84, 35
2, 96429, Note_on_c, 1, 67, 0
2, 96503, Note_on_c, 1, 79, 35
2, 96503, Note_on_c, 1, 72, 0
2, 96504, Note_on_c, 1, 84, 0
2, 96505, Note_on_c, 1, 82, 35
2, 96505, Note_on_c, 1, 64, 35
2, 96578, Note_on_c, 1, 72, 35
2, 96579, Note_on_c, 1, 64, 0
2, 96579, Note_on_c, 1, 79, 0
2, 96580, Note_on_c, 1, 84, 35
2, 96580, Note_on_c, 1, 82, 0
2, 96652, Note_on_c, 1, 72, 0
2, 96654, Note_on_c, 1, 84, 0
2, 96655, Note_on_c, 1, 60, 35
2, 96727, Note_on_c, 1, 72, 35
2, 96729, Note_on_c, 1, 84, 35
2, 96729, Note_on_c, 1, 60, 0
2, 96802, Note_on_c, 1, 72, 0
2, 96804, Note_on_c, 1, 81, 35
2, 96804, Note_on_c, 1, 77, 35
2, 96804, Note_on_c, 1, 65, 35
2, 96804, Note_on_c, 1, 84, 0
2, 96840, Note_on_c, 1, 77, 0
2, 96842, Note_on_c, 1, 84, 35
2, 96842, Note_on_c, 1, 81, 0
2, 96878, Note_on_c, 1, 72, 35
2, 96879, Note_on_c, 1, 83, 35
2, 96879, Note_on_c, 1, 84, 0
2, 96880, Note_on_c, 1, 65, 0
2, 96881, Note_on_c, 1, 83, 35
2, 96909, Note_on_c, 1, 83, 0
2, 96917, Note_on_c, 1, 84, 37
2, 96917, Note_on_c, 1, 83, 0
2, 96952, Note_on_c, 1, 72, 0
2, 96953, Note_on_c, 1, 69, 39
2, 96954, Note_on_c, 1, 83, 38
2, 96954, Note_on_c, 1, 84, 0
2, 96991, Note_on_c, 1, 84, 40
2, 96991, Note_on_c, 1, 83, 0
2, 97026, Note_on_c, 1, 72, 42
2, 97027, Note_on_c, 1, 69, 0
2, 97028, Note_on_c, 1, 83, 42
2, 97029, Note_on_c, 1, 84, 0
2, 97066, Note_on_c, 1, 84, 44
2, 97067, Note_on_c, 1, 83, 0
2, 97102, Note_on_c, 1, 70, 46
2, 97102, Note_on_c, 1, 72, 0
2, 97103, Note_on_c, 1, 79, 46
2, 97103, Note_on_c, 1, 76, 46
2, 97104, Note_on_c, 1, 84, 0
2, 97176, Note_on_c, 1, 72, 35
2, 97176, Note_on_c, 1, 70, 0
2, 97176, Note_on_c, 1, 76, 0
2, 97178, Note_on_c, 1, 79, 0
2, 97179, Note_on_c, 1, 84, 35
2, 97251, Note_on_c, 1, 72, 0
2, 97253, Note_on_c, 1, 67, 35
2, 97253, Note_on_c, 1, 84, 0
2, 97326, Note_on_c, 1, 72, 35
2, 97328, Note_on_c, 1, 84, 35
2, 97328, Note_on_c, 1, 67, 0
2, 97401, Note_on_c, 1, 72, 0
2, 97403, Note_on_c, 1, 82, 35
2, 97403, Note_on_c, 1, 79, 35
2, 97403, Note_on_c, 1, 64, 35
2, 97403, Note_on_c, 1, 84, 0
2, 97476, Note_on_c, 1, 72, 35
2, 97477, Note_on_c, 1, 79, 0
2, 97478, Note_on_c, 1, 64, 0
2, 97479, Note_on_c, 1, 84, 35
2, 97479, Note_on_c, 1, 82, 0
2, 97551, Note_on_c, 1, 72, 0
2, 97553, Note_on_c, 1, 60, 35
2, 97553, Note_on_c, 1, 84, 0
2, 97625, Note_on_c, 1, 72, 35
2, 97628, Note_on_c, 1, 84, 35
2, 97628, Note_on_c, 1, 60, 0
2, 97701, Note_on_c, 1, 72, 0
2, 97702, Note_on_c, 1, 77, 35
2, 97703, Note_on_c, 1, 81, 35
2, 97703, Note_on_c, 1, 65, 35
2, 97703, Note_on_c, 1, 84, 0
2, 97739, Note_on_c, 1, 77, 0
2, 97740, Note_on_c, 1, 81, 0
2, 97741, Note_on_c, 1, 84, 35
2, 97775, Note_on_c, 1, 72, 37
2, 97778, Note_on_c, 1, 83, 37
2, 97778, Note_on_c, 1, 84, 0
2, 97778, Note_on_c, 1, 65, 0
2, 97816, Note_on_c, 1, 84, 38
2, 97816, Note_on_c, 1, 83, 0
2, 97851, Note_on_c, 1, 72, 0
2, 97852, Note_on_c, 1, 69, 39
2, 97853, Note_on_c, 1, 83, 39
2, 97853, Note_on_c, 1, 84, 0
2, 97890, Note_on_c, 1, 84, 41
2, 97890, Note_on_c, 1, 83, 0
2, 97925, Note_on_c, 1, 72, 42
2, 97926, Note_on_c, 1, 69, 0
2, 97927, Note_on_c, 1, 83, 42
2, 97928, Note_on_c, 1, 84, 0
2, 97965, Note_on_c, 1, 84, 43
2, 97965, Note_on_c, 1, 83, 0
2, 98000, Note_on_c, 1, 72, 0
2, 98003, Note_on_c, 1, 84, 0
2, 98004, Note_on_c, 1, 58, 45
2, 98015, Note_on_c, 1, 84, 45
2, 98074, Note_on_c, 1, 74, 47
2, 98077, Note_on_c, 1, 67, 45
2, 98077, Note_on_c, 1, 84, 0
2, 98078, Note_on_c, 1, 58, 0
2, 98151, Note_on_c, 1, 67, 0
2, 98152, Note_on_c, 1, 62, 35
2, 98224, Note_on_c, 1, 74, 0
2, 98227, Note_on_c, 1, 67, 35
2, 98228, Note_on_c, 1, 82, 35
2, 98228, Note_on_c, 1, 62, 0
2, 98302, Note_on_c, 1, 82, 0
2, 98302, Note_on_c, 1, 67, 0
2, 98303, Note_on_c, 1, 60, 35
2, 98314, Note_on_c, 1, 82, 35
2, 98374, Note_on_c, 1, 72, 35
2, 98376, Note_on_c, 1, 69, 35
2, 98377, Note_on_c, 1, 82, 0
2, 98378, Note_on_c, 1, 60, 0
2, 98450, Note_on_c, 1, 69, 0
2, 98452, Note_on_c, 1, 65, 35
2, 98524, Note_on_c, 1, 72, 0
2, 98526, Note_on_c, 1, 69, 35
2, 98526, Note_on_c, 1, 65, 0
2, 98527, Note_on_c, 1, 81, 35
2, 98600, Note_on_c, 1, 69, 0
2, 98602, Note_on_c, 1, 60, 35
2, 98602, Note_on_c, 1, 81, 0
2, 98614, Note_on_c, 1, 81, 35
2, 98674, Note_on_c, 1, 70, 35
2, 98676, Note_on_c, 1, 67, 35
2, 98677, Note_on_c, 1, 81, 0
2, 98677, Note_on_c, 1, 60, 0
2, 98751, Note_on_c, 1, 64, 35
2, 98751, Note_on_c, 1, 67, 0
2, 98824, Note_on_c, 1, 70, 0
2, 98826, Note_on_c, 1, 79, 35
2, 98826, Note_on_c, 1, 64, 0
2, 98827, Note_on_c, 1, 67, 35
2, 98899, Note_on_c, 1, 70, 35
2, 98901, Note_on_c, 1, 67, 0
2, 98901, Note_on_c, 1, 79, 0
2, 98902, Note_on_c, 1, 53, 35
2, 98913, Note_on_c, 1, 79, 35
2, 98975, Note_on_c, 1, 53, 0
2, 98976, Note_on_c, 1, 60, 35
2, 99050, Note_on_c, 1, 64, 35
2, 99051, Note_on_c, 1, 60, 0
2, 99125, Note_on_c, 1, 64, 0
2, 99127, Note_on_c, 1, 60, 35
2, 99198, Note_on_c, 1, 70, 0
2, 99200, Note_on_c, 1, 69, 35
2, 99201, Note_on_c, 1, 77, 35
2, 99201, Note_on_c, 1, 79, 0
2, 99202, Note_on_c, 1, 65, 35
2, 99202, Note_on_c, 1, 60, 0
2, 99349, Note_on_c, 1, 69, 0
2, 99350, Note_on_c, 1, 77, 0
2, 99350, Note_on_c, 1, 65, 0
2, 99376, Note_on_c, 1, 57, 35
2, 99501, Note_on_c, 1, 57, 0
2, 99526, Note_on_c, 1, 57, 35
2, 99650, Note_on_c, 1, 57, 0
2, 99675, Note_on_c, 1, 57, 35
2, 99798, Note_on_c, 1, 50, 35
2, 99799, Note_on_c, 1, 65, 35
2, 99801, Note_on_c, 1, 62, 35
2, 99801, Note_on_c, 1, 57, 0
2, 99848, Note_on_c, 1, 69, 35
2, 99849, Note_on_c, 1, 65, 0
2, 99897, Note_on_c, 1, 74, 35
2, 99898, Note_on_c, 1, 69, 0
2, 99947, Note_on_c, 1, 74, 0
2, 99950, Note_on_c, 1, 77, 35
2, 99998, Note_on_c, 1, 74, 35
2, 99999, Note_on_c, 1, 77, 0
2, 100047, Note_on_c, 1, 74, 0
2, 100048, Note_on_c, 1, 69, 35
2, 100098, Note_on_c, 1, 69, 0
2, 100099, Note_on_c, 1, 65, 35
2, 100148, Note_on_c, 1, 69, 35
2, 100149, Note_on_c, 1, 65, 0
2, 100197, Note_on_c, 1, 74, 35
2, 100198, Note_on_c, 1, 69, 0
2, 100247, Note_on_c, 1, 74, 0
2, 100248, Note_on_c, 1, 50, 0
2, 100249, Note_on_c, 1, 77, 35
2, 100251, Note_on_c, 1, 57, 35
2, 100251, Note_on_c, 1, 62, 0
2, 100297, Note_on_c, 1, 74, 35
2, 100299, Note_on_c, 1, 77, 0
2, 100347, Note_on_c, 1, 74, 0
2, 100348, Note_on_c, 1, 69, 35
2, 100398, Note_on_c, 1, 69, 0
2, 100399, Note_on_c, 1, 65, 35
2, 100400, Note_on_c, 1, 62, 35
2, 100401, Note_on_c, 1, 57, 0
2, 100448, Note_on_c, 1, 69, 35
2, 100449, Note_on_c, 1, 65, 0
2, 100497, Note_on_c, 1, 74, 35
2, 100497, Note_on_c, 1, 69, 0
2, 100547, Note_on_c, 1, 74, 0
2, 100549, Note_on_c, 1, 77, 35
2, 100550, Note_on_c, 1, 57, 35
2, 100551, Note_on_c, 1, 62, 0
2, 100597, Note_on_c, 1, 74, 35
2, 100598, Note_on_c, 1, 77, 0
2, 100646, Note_on_c, 1, 74, 0
2, 100647, Note_on_c, 1, 69, 35
2, 100697, Note_on_c, 1, 69, 0
2, 100698, Note_on_c, 1, 67, 35
2, 100698, Note_on_c, 1, 52, 35
2, 100699, Note_on_c, 1, 64, 35
2, 100700, Note_on_c, 1, 57, 0
2, 100747, Note_on_c, 1, 69, 35
2, 100748, Note_on_c, 1, 67, 0
2, 100796, Note_on_c, 1, 73, 35
2, 100797, Note_on_c, 1, 69, 0
2, 100846, Note_on_c, 1, 73, 0
2, 100848, Note_on_c, 1, 79, 36
2, 100896, Note_on_c, 1, 73, 38
2, 100898, Note_on_c, 1, 79, 0
2, 100946, Note_on_c, 1, 73, 0
2, 100947, Note_on_c, 1, 69, 40
2, 100997, Note_on_c, 1, 69, 0
2, 100998, Note_on_c, 1, 67, 41
2, 101047, Note_on_c, 1, 69, 43
2, 101048, Note_on_c, 1, 67, 0
2, 101096, Note_on_c, 1, 73, 45
2, 101097, Note_on_c, 1, 69, 0
2, 101146, Note_on_c, 1, 73, 0
2, 101147, Note_on_c, 1, 79, 47
2, 101147, Note_on_c, 1, 52, 0
2, 101148, Note_on_c, 1, 64, 0
2, 101149, Note_on_c, 1, 57, 47
2, 101195, Note_on_c, 1, 73, 49
2, 101197, Note_on_c, 1, 79, 0
2, 101246, Note_on_c, 1, 73, 0
2, 101247, Note_on_c, 1, 69, 50
2, 101296, Note_on_c, 1, 69, 0
2, 101298, Note_on_c, 1, 64, 52
2, 101298, Note_on_c, 1, 67, 52
2, 101299, Note_on_c, 1, 57, 0
2, 101347, Note_on_c, 1, 69, 54
2, 101348, Note_on_c, 1, 67, 0
2, 101395, Note_on_c, 1, 73, 56
2, 101397, Note_on_c, 1, 69, 0
2, 101445, Note_on_c, 1, 73, 0
2, 101448, Note_on_c, 1, 79, 57
2, 101448, Note_on_c, 1, 64, 0
2, 101449, Note_on_c, 1, 57, 57
2, 101495, Note_on_c, 1, 73, 59
2, 101497, Note_on_c, 1, 79, 0
2, 101546, Note_on_c, 1, 69, 61
2, 101546, Note_on_c, 1, 73, 0
2, 101596, Note_on_c, 1, 69, 0
2, 101598, Note_on_c, 1, 65, 63
2, 101598, Note_on_c, 1, 53, 63
2, 101598, Note_on_c, 1, 57, 0
2, 101646, Note_on_c, 1, 69, 65
2, 101695, Note_on_c, 1, 74, 64
2, 101696, Note_on_c, 1, 69, 0
2, 101745, Note_on_c, 1, 74, 0
2, 101748, Note_on_c, 1, 81, 62
2, 101797, Note_on_c, 1, 77, 60
2, 101798, Note_on_c, 1, 81, 0
2, 101845, Note_on_c, 1, 74, 58
2, 101846, Note_on_c, 1, 77, 0
2, 101895, Note_on_c, 1, 74, 0
2, 101897, Note_on_c, 1, 53, 0
2, 101898, Note_on_c, 1, 55, 56
2, 101898, Note_on_c, 1, 65, 0
2, 101946, Note_on_c, 1, 69, 55
2, 101994, Note_on_c, 1, 70, 53
2, 101996, Note_on_c, 1, 69, 0
2, 102044, Note_on_c, 1, 70, 0
2, 102046, Note_on_c, 1, 79, 51
2, 102096, Note_on_c, 1, 76, 49
2, 102097, Note_on_c, 1, 79, 0
2, 102145, Note_on_c, 1, 70, 47
2, 102146, Note_on_c, 1, 76, 0
2, 102194, Note_on_c, 1, 70, 0
2, 102197, Note_on_c, 1, 55, 0
2, 102198, Note_on_c, 1, 57, 45
2, 102246, Note_on_c, 1, 67, 44
2, 102295, Note_on_c, 1, 69, 42
2, 102296, Note_on_c, 1, 67, 0
2, 102345, Note_on_c, 1, 76, 40
2, 102345, Note_on_c, 1, 69, 0
2, 102394, Note_on_c, 1, 73, 38
2, 102395, Note_on_c, 1, 76, 0
2, 102444, Note_on_c, 1, 73, 0
2, 102445, Note_on_c, 1, 69, 36
2, 102495, Note_on_c, 1, 50, 35
2, 102495, Note_on_c, 1, 69, 0
2, 102496, Note_on_c, 1, 65, 35
2, 102498, Note_on_c, 1, 62, 35
2, 102498, Note_on_c, 1, 57, 0
2, 102545, Note_on_c, 1, 69, 35
2, 102546, Note_on_c, 1, 65, 0
2, 102594, Note_on_c, 1, 74, 35
2, 102595, Note_on_c, 1, 69, 0
2, 102644, Note_on_c, 1, 74, 0
2, 102646, Note_on_c, 1, 77, 35
2, 102694, Note_on_c, 1, 74, 35
2, 102696, Note_on_c, 1, 77, 0
2, 102744, Note_on_c, 1, 74, 0
2, 102745, Note_on_c, 1, 69, 35
2, 102794, Note_on_c, 1, 69, 0
2, 102796, Note_on_c, 1, 65, 35
2, 102845, Note_on_c, 1, 69, 35
2, 102846, Note_on_c, 1, 65, 0
2, 102894, Note_on_c, 1, 74, 35
2, 102894, Note_on_c, 1, 69, 0
2, 102944, Note_on_c, 1, 74, 0
2, 102944, Note_on_c, 1, 50, 0
2, 102946, Note_on_c, 1, 77, 36
2, 102948, Note_on_c, 1, 60, 36
2, 102948, Note_on_c, 1, 62, 0
2, 102994, Note_on_c, 1, 74, 38
2, 102996, Note_on_c, 1, 77, 0
2, 103043, Note_on_c, 1, 74, 0
2, 103045, Note_on_c, 1, 69, 39
2, 103095, Note_on_c, 1, 69, 0
2, 103096, Note_on_c, 1, 65, 40
2, 103097, Note_on_c, 1, 59, 40
2, 103098, Note_on_c, 1, 60, 0
2, 103143, Note_on_c, 1, 74, 42
2, 103145, Note_on_c, 1, 65, 0
2, 103193, Note_on_c, 1, 74, 0
2, 103196, Note_on_c, 1, 77, 43
2, 103245, Note_on_c, 1, 77, 0
2, 103246, Note_on_c, 1, 65, 45
2, 103247, Note_on_c, 1, 57, 45
2, 103247, Note_on_c, 1, 59, 0
2, 103293, Note_on_c, 1, 72, 46
2, 103295, Note_on_c, 1, 65, 0
2, 103343, Note_on_c, 1, 72, 0
2, 103345, Note_on_c, 1, 77, 48
2, 103395, Note_on_c, 1, 65, 49
2, 103395, Note_on_c, 1, 77, 0
2, 103396, Note_on_c, 1, 55, 49
2, 103396, Note_on_c, 1, 57, 0
2, 103443, Note_on_c, 1, 71, 35
2, 103445, Note_on_c, 1, 65, 0
2, 103493, Note_on_c, 1, 74, 35
2, 103493, Note_on_c, 1, 71, 0
2, 103543, Note_on_c, 1, 74, 0
2, 103545, Note_on_c, 1, 77, 35
2, 103593, Note_on_c, 1, 74, 35
2, 103595, Note_on_c, 1, 77, 0
2, 103642, Note_on_c, 1, 74, 0
2, 103643, Note_on_c, 1, 71, 35
2, 103692, Note_on_c, 1, 71, 0
2, 103695, Note_on_c, 1, 65, 35
2, 103695, Note_on_c, 1, 55, 0
2, 103696, Note_on_c, 1, 56, 35
2, 103742, Note_on_c, 1, 71, 35
2, 103744, Note_on_c, 1, 65, 0
2, 103792, Note_on_c, 1, 74, 35
2, 103792, Note_on_c, 1, 71, 0
2, 103842, Note_on_c, 1, 74, 0
2, 103844, Note_on_c, 1, 77, 35
2, 103892, Note_on_c, 1, 74, 35
2, 103894, Note_on_c, 1, 77, 0
2, 103942, Note_on_c, 1, 74, 0
2, 103943, Note_on_c, 1, 71, 35
2, 103992, Note_on_c, 1, 71, 0
2, 103994, Note_on_c, 1, 64, 35
2, 103994, Note_on_c, 1, 56, 0
2, 103996, Note_on_c, 1, 57, 35
2, 104043, Note_on_c, 1, 69, 35
2, 104044, Note_on_c, 1, 64, 0
2, 104093, Note_on_c, 1, 72, 35
2, 104093, Note_on_c, 1, 69, 0
2, 104142, Note_on_c, 1, 72, 0
2, 104143, Note_on_c, 1, 76, 35
2, 104192, Note_on_c, 1, 72, 35
2, 104193, Note_on_c, 1, 76, 0
2, 104242, Note_on_c, 1, 72, 0
2, 104243, Note_on_c, 1, 69, 35
2, 104292, Note_on_c, 1, 69, 0
2, 104294, Note_on_c, 1, 53, 35
2, 104295, Note_on_c, 1, 57, 0
2, 104344, Note_on_c, 1, 65, 35
2, 104393, Note_on_c, 1, 69, 35
2, 104393, Note_on_c, 1, 65, 0
2, 104442, Note_on_c, 1, 69, 0
2, 104443, Note_on_c, 1, 76, 35
2, 104493, Note_on_c, 1, 69, 35
2, 104493, Note_on_c, 1, 76, 0
2, 104542, Note_on_c, 1, 74, 35
2, 104543, Note_on_c, 1, 69, 0
2, 104591, Note_on_c, 1, 74, 0
2, 104593, Note_on_c, 1, 53, 0
2, 104594, Note_on_c, 1, 55, 35
2, 104643, Note_on_c, 1, 64, 35
2, 104693, Note_on_c, 1, 67, 35
2, 104693, Note_on_c, 1, 64, 0
2, 104742, Note_on_c, 1, 74, 35
2, 104743, Note_on_c, 1, 67, 0
2, 104791, Note_on_c, 1, 74, 0
2, 104794, Note_on_c, 1, 67, 35
2, 104841, Note_on_c, 1, 72, 35
2, 104843, Note_on_c, 1, 67, 0
2, 104891, Note_on_c, 1, 72, 0
2, 104893, Note_on_c, 1, 43, 35
2, 104944, Note_on_c, 1, 62, 35
2, 104993, Note_on_c, 1, 65, 35
2, 104994, Note_on_c, 1, 62, 0
2, 105041, Note_on_c, 1, 72, 35
2, 105043, Note_on_c, 1, 65, 0
2, 105091, Note_on_c, 1, 72, 0
2, 105093, Note_on_c, 1, 65, 35
2, 105141, Note_on_c, 1, 71, 35
2, 105143, Note_on_c, 1, 65, 0
2, 105190, Note_on_c, 1, 71, 0
2, 105192, Note_on_c, 1, 48, 35
2, 105193, Note_on_c, 1, 64, 35
2, 105193, Note_on_c, 1, 43, 0
2, 105193, Note_on_c, 1, 55, 0
2, 105242, Note_on_c, 1, 64, 0
2, 105243, Note_on_c, 1, 67, 35
2, 105291, Note_on_c, 1, 72, 35
2, 105292, Note_on_c, 1, 67, 0
2, 105340, Note_on_c, 1, 72, 0
2, 105343, Note_on_c, 1, 64, 35
2, 105392, Note_on_c, 1, 67, 35
2, 105392, Note_on_c, 1, 64, 0
2, 105440, Note_on_c, 1, 72, 35
2, 105442, Note_on_c, 1, 67, 0
2, 105490, Note_on_c, 1, 72, 0
2, 105492, Note_on_c, 1, 64, 35
2, 105542, Note_on_c, 1, 64, 0
2, 105543, Note_on_c, 1, 67, 35
2, 105591, Note_on_c, 1, 72, 35
2, 105592, Note_on_c, 1, 67, 0
2, 105640, Note_on_c, 1, 72, 0
2, 105642, Note_on_c, 1, 64, 35
2, 105643, Note_on_c, 1, 60, 35
2, 105692, Note_on_c, 1, 67, 35
2, 105692, Note_on_c, 1, 64, 0
2, 105741, Note_on_c, 1, 73, 35
2, 105742, Note_on_c, 1, 67, 0
2, 105768, Note_on_c, 1, 60, 0
2, 105790, Note_on_c, 1, 73, 0
2, 105792, Note_on_c, 1, 65, 35
2, 105794, Note_on_c, 1, 60, 35
2, 105841, Note_on_c, 1, 69, 37
2, 105842, Note_on_c, 1, 65, 0
2, 105890, Note_on_c, 1, 74, 40
2, 105891, Note_on_c, 1, 69, 0
2, 105918, Note_on_c, 1, 60, 0
2, 105940, Note_on_c, 1, 74, 0
2, 105942, Note_on_c, 1, 65, 43
2, 105943, Note_on_c, 1, 60, 43
2, 105992, Note_on_c, 1, 67, 46
2, 105992, Note_on_c, 1, 65, 0
2, 106040, Note_on_c, 1, 71, 49
2, 106041, Note_on_c, 1, 67, 0
2, 106068, Note_on_c, 1, 60, 0
2, 106089, Note_on_c, 1, 71, 0
2, 106090, Note_on_c, 1, 48, 48
2, 106090, Note_on_c, 1, 48, 0
2, 106092, Note_on_c, 1, 64, 48
2, 106141, Note_on_c, 1, 67, 44
2, 106141, Note_on_c, 1, 64, 0
2, 106189, Note_on_c, 1, 72, 40
2, 106191, Note_on_c, 1, 67, 0
2, 106239, Note_on_c, 1, 72, 0
2, 106241, Note_on_c, 1, 64, 36
2, 106291, Note_on_c, 1, 67, 32
2, 106291, Note_on_c, 1, 64, 0
2, 106339, Note_on_c, 1, 72, 30
2, 106340, Note_on_c, 1, 72, 30
2, 106341, Note_on_c, 1, 67, 0
2, 106379, Note_on_c, 1, 72, 0
2, 106389, Note_on_c, 1, 72, 0
2, 106392, Note_on_c, 1, 64, 33
2, 106441, Note_on_c, 1, 67, 36
2, 106441, Note_on_c, 1, 64, 0
2, 106489, Note_on_c, 1, 72, 39
2, 106491, Note_on_c, 1, 67, 0
2, 106539, Note_on_c, 1, 72, 0
2, 106541, Note_on_c, 1, 64, 42
2, 106542, Note_on_c, 1, 60, 42
2, 106591, Note_on_c, 1, 67, 45
2, 106591, Note_on_c, 1, 64, 0
2, 106639, Note_on_c, 1, 73, 48
2, 106641, Note_on_c, 1, 67, 0
2, 106667, Note_on_c, 1, 60, 0
2, 106689, Note_on_c, 1, 73, 0
2, 106691, Note_on_c, 1, 65, 49
2, 106693, Note_on_c, 1, 60, 49
2, 106740, Note_on_c, 1, 69, 47
2, 106740, Note_on_c, 1, 65, 0
2, 106789, Note_on_c, 1, 74, 44
2, 106790, Note_on_c, 1, 69, 0
2, 106817, Note_on_c, 1, 60, 0
2, 106839, Note_on_c, 1, 74, 0
2, 106841, Note_on_c, 1, 65, 41
2, 106842, Note_on_c, 1, 60, 41
2, 106891, Note_on_c, 1, 67, 38
2, 106891, Note_on_c, 1, 65, 0
2, 106939, Note_on_c, 1, 71, 36
2, 106941, Note_on_c, 1, 67, 0
2, 106966, Note_on_c, 1, 60, 0
2, 106988, Note_on_c, 1, 71, 0
2, 106989, Note_on_c, 1, 48, 33
2, 106989, Note_on_c, 1, 48, 0
2, 106991, Note_on_c, 1, 64, 33
2, 107038, Note_on_c, 1, 48, 0
2, 107040, Note_on_c, 1, 64, 0
2, 107041, Note_on_c, 1, 67, 30
2, 107089, Note_on_c, 1, 72, 31
2, 107090, Note_on_c, 1, 67, 0
2, 107139, Note_on_c, 1, 72, 0
2, 107141, Note_on_c, 1, 65, 33
2, 107189, Note_on_c, 1, 69, 34
2, 107190, Note_on_c, 1, 65, 0
2, 107238, Note_on_c, 1, 74, 36
2, 107239, Note_on_c, 1, 69, 0
2, 107288, Note_on_c, 1, 74, 0
2, 107290, Note_on_c, 1, 67, 37
2, 107338, Note_on_c, 1, 70, 39
2, 107340, Note_on_c, 1, 67, 0
2, 107388, Note_on_c, 1, 70, 0
2, 107389, Note_on_c, 1, 76, 40
2, 107439, Note_on_c, 1, 69, 42
2, 107439, Note_on_c, 1, 76, 0
2, 107488, Note_on_c, 1, 72, 43
2, 107489, Note_on_c, 1, 69, 0
2, 107538, Note_on_c, 1, 72, 0
2, 107540, Note_on_c, 1, 77, 45
2, 107588, Note_on_c, 1, 72, 46
2, 107589, Note_on_c, 1, 77, 0
2, 107638, Note_on_c, 1, 76, 48
2, 107638, Note_on_c, 1, 72, 0
2, 107689, Note_on_c, 1, 79, 50
2, 107689, Note_on_c, 1, 76, 0
2, 107738, Note_on_c, 1, 72, 45
2, 107739, Note_on_c, 1, 79, 0
2, 107788, Note_on_c, 1, 72, 0
2, 107789, Note_on_c, 1, 76, 40
2, 107839, Note_on_c, 1, 76, 0
2, 107840, Note_on_c, 1, 80, 35
2, 107889, Note_on_c, 1, 80, 0
2, 107890, Note_on_c, 1, 81, 35
2, 107890, Note_on_c, 1, 65, 35
2, 107963, Note_on_c, 1, 72, 35
2, 107965, Note_on_c, 1, 65, 0
2, 108037, Note_on_c, 1, 72, 0
2, 108039, Note_on_c, 1, 69, 35
2, 108112, Note_on_c, 1, 72, 35
2, 108114, Note_on_c, 1, 69, 0
2, 108187, Note_on_c, 1, 72, 0
2, 108190, Note_on_c, 1, 84, 35
2, 108190, Note_on_c, 1, 64, 35
2, 108190, Note_on_c, 1, 81, 0
2, 108262, Note_on_c, 1, 72, 35
2, 108264, Note_on_c, 1, 64, 0
2, 108338, Note_on_c, 1, 72, 0
2, 108340, Note_on_c, 1, 82, 35
2, 108340, Note_on_c, 1, 67, 35
2, 108340, Note_on_c, 1, 84, 0
2, 108412, Note_on_c, 1, 72, 35
2, 108414, Note_on_c, 1, 67, 0
2, 108487, Note_on_c, 1, 72, 0
2, 108489, Note_on_c, 1, 65, 35
2, 108562, Note_on_c, 1, 72, 35
2, 108564, Note_on_c, 1, 65, 0
2, 108637, Note_on_c, 1, 72, 0
2, 108638, Note_on_c, 1, 69, 35
2, 108639, Note_on_c, 1, 81, 35
2, 108639, Note_on_c, 1, 82, 0
2, 108712, Note_on_c, 1, 72, 35
2, 108713, Note_on_c, 1, 69, 0
2, 108787, Note_on_c, 1, 72, 0
2, 108789, Note_on_c, 1, 81, 0
2, 108790, Note_on_c, 1, 60, 35
2, 108802, Note_on_c, 1, 81, 35
2, 108861, Note_on_c, 1, 72, 35
2, 108863, Note_on_c, 1, 79, 35
2, 108864, Note_on_c, 1, 81, 0
2, 108865, Note_on_c, 1, 60, 0
2, 108936, Note_on_c, 1, 72, 0
2, 108937, Note_on_c, 1, 70, 35
2, 108938, Note_on_c, 1, 77, 35
2, 108938, Note_on_c, 1, 79, 0
2, 109011, Note_on_c, 1, 70, 0
2, 109012, Note_on_c, 1, 76, 35
2, 109012, Note_on_c, 1, 72, 35
2, 109013, Note_on_c, 1, 77, 0
2, 109087, Note_on_c, 1, 69, 35
2, 109087, Note_on_c, 1, 72, 0
2, 109087, Note_on_c, 1, 76, 0
2, 109088, Note_on_c, 1, 79, 35
2, 109161, Note_on_c, 1, 72, 35
2, 109162, Note_on_c, 1, 69, 0
2, 109237, Note_on_c, 1, 68, 35
2, 109237, Note_on_c, 1, 72, 0
2, 109238, Note_on_c, 1, 77, 35
2, 109238, Note_on_c, 1, 79, 0
2, 109310, Note_on_c, 1, 72, 35
2, 109312, Note_on_c, 1, 68, 0
2, 109386, Note_on_c, 1, 72, 0
2, 109387, Note_on_c, 1, 69, 35
2, 109461, Note_on_c, 1, 72, 35
2, 109462, Note_on_c, 1, 69, 0
2, 109536, Note_on_c, 1, 72, 0
2, 109537, Note_on_c, 1, 79, 35
2, 109537, Note_on_c, 1, 77, 0
2, 109538, Note_on_c, 1, 64, 35
2, 109611, Note_on_c, 1, 72, 35
2, 109612, Note_on_c, 1, 64, 0
2, 109686, Note_on_c, 1, 72, 0
2, 109687, Note_on_c, 1, 79, 0
2, 109688, Note_on_c, 1, 65, 35
2, 109689, Note_on_c, 1, 81, 35
2, 109760, Note_on_c, 1, 72, 37
2, 109762, Note_on_c, 1, 65, 0
2, 109835, Note_on_c, 1, 72, 0
2, 109837, Note_on_c, 1, 63, 41
2, 109913, Note_on_c, 1, 82, 44
2, 109913, Note_on_c, 1, 65, 44
2, 109913, Note_on_c, 1, 63, 0
2, 109913, Note_on_c, 1, 81, 0
2, 109951, Note_on_c, 1, 84, 46
2, 109951, Note_on_c, 1, 82, 0
2, 109987, Note_on_c, 1, 65, 0
2, 109988, Note_on_c, 1, 62, 48
2, 110062, Note_on_c, 1, 65, 50
2, 110062, Note_on_c, 1, 84, 0
2, 110063, Note_on_c, 1, 82, 50
2, 110063, Note_on_c, 1, 62, 0
2, 110137, Note_on_c, 1, 60, 49
2, 110137, Note_on_c, 1, 65, 0
2, 110212, Note_on_c, 1, 65, 47
2, 110213, Note_on_c, 1, 81, 47
2, 110213, Note_on_c, 1, 82, 0
2, 110214, Note_on_c, 1, 60, 0
2, 110287, Note_on_c, 1, 65, 0
2, 110288, Note_on_c, 1, 58, 46
2, 110361, Note_on_c, 1, 79, 45
2, 110362, Note_on_c, 1, 81, 0
2, 110363, Note_on_c, 1, 62, 45
2, 110363, Note_on_c, 1, 58, 0
2, 110437, Note_on_c, 1, 59, 44
2, 110437, Note_on_c, 1, 62, 0
2, 110511, Note_on_c, 1, 77, 43
2, 110511, Note_on_c, 1, 79, 0
2, 110513, Note_on_c, 1, 62, 43
2, 110513, Note_on_c, 1, 59, 0
2, 110586, Note_on_c, 1, 77, 0
2, 110587, Note_on_c, 1, 81, 41
2, 110588, Note_on_c, 1, 60, 41
2, 110588, Note_on_c, 1, 62, 0
2, 110661, Note_on_c, 1, 65, 40
2, 110662, Note_on_c, 1, 60, 0
2, 110734, Note_on_c, 1, 69, 39
2, 110736, Note_on_c, 1, 65, 0
2, 110762, Note_on_c, 1, 84, 38
2, 110762, Note_on_c, 1, 81, 0
2, 110787, Note_on_c, 1, 83, 38
2, 110787, Note_on_c, 1, 84, 0
2, 110810, Note_on_c, 1, 72, 38
2, 110811, Note_on_c, 1, 69, 0
2, 110812, Note_on_c, 1, 84, 38
2, 110812, Note_on_c, 1, 83, 0
2, 110837, Note_on_c, 1, 82, 37
2, 110837, Note_on_c, 1, 84, 0
2, 110862, Note_on_c, 1, 81, 37
2, 110862, Note_on_c, 1, 82, 0
2, 110884, Note_on_c, 1, 72, 0
2, 110886, Note_on_c, 1, 79, 36
2, 110887, Note_on_c, 1, 60, 36
2, 110887, Note_on_c, 1, 81, 0
2, 110961, Note_on_c, 1, 64, 35
2, 110962, Note_on_c, 1, 60, 0
2, 111036, Note_on_c, 1, 67, 35
2, 111036, Note_on_c, 1, 64, 0
2, 111036, Note_on_c, 1, 79, 0
2, 111108, Note_on_c, 1, 72, 35
2, 111110, Note_on_c, 1, 67, 0
2, 111183, Note_on_c, 1, 71, 35
2, 111183, Note_on_c, 1, 72, 0
2, 111258, Note_on_c, 1, 72, 35
2, 111258, Note_on_c, 1, 71, 0
2, 111333, Note_on_c, 1, 74, 35
2, 111334, Note_on_c, 1, 72, 0
2, 111408, Note_on_c, 1, 72, 35
2, 111408, Note_on_c, 1, 74, 0
2, 111484, Note_on_c, 1, 76, 35
2, 111484, Note_on_c, 1, 70, 35
2, 111484, Note_on_c, 1, 72, 0
2, 111485, Note_on_c, 1, 79, 35
2, 111559, Note_on_c, 1, 72, 35
2, 111559, Note_on_c, 1, 70, 0
2, 111559, Note_on_c, 1, 76, 0
2, 111560, Note_on_c, 1, 79, 0
2, 111561, Note_on_c, 1, 84, 35
2, 111633, Note_on_c, 1, 72, 0
2, 111635, Note_on_c, 1, 67, 35
2, 111636, Note_on_c, 1, 84, 0
2, 111708, Note_on_c, 1, 72, 35
2, 111710, Note_on_c, 1, 84, 35
2, 111710, Note_on_c, 1, 67, 0
2, 111784, Note_on_c, 1, 72, 0
2, 111785, Note_on_c, 1, 79, 35
2, 111786, Note_on_c, 1, 82, 35
2, 111786, Note_on_c, 1, 64, 35
2, 111786, Note_on_c, 1, 84, 0
2, 111858, Note_on_c, 1, 72, 35
2, 111859, Note_on_c, 1, 79, 0
2, 111860, Note_on_c, 1, 64, 0
2, 111860, Note_on_c, 1, 82, 0
2, 111861, Note_on_c, 1, 84, 35
2, 111933, Note_on_c, 1, 72, 0
2, 111935, Note_on_c, 1, 60, 35
2, 111935, Note_on_c, 1, 84, 0
2, 112008, Note_on_c, 1, 72, 35
2, 112010, Note_on_c, 1, 84, 35
2, 112011, Note_on_c, 1, 60, 0
2, 112084, Note_on_c, 1, 72, 0
2, 112085, Note_on_c, 1, 77, 35
2, 112085, Note_on_c, 1, 65, 35
2, 112085, Note_on_c, 1, 84, 0
2, 112086, Note_on_c, 1, 81, 35
2, 112122, Note_on_c, 1, 77, 0
2, 112123, Note_on_c, 1, 84, 35
2, 112123, Note_on_c, 1, 81, 0
2, 112158, Note_on_c, 1, 72, 35
2, 112160, Note_on_c, 1, 84, 0
2, 112160, Note_on_c, 1, 65, 0
2, 112161, Note_on_c, 1, 83, 35
2, 112197, Note_on_c, 1, 84, 35
2, 112198, Note_on_c, 1, 83, 0
2, 112233, Note_on_c, 1, 69, 35
2, 112233, Note_on_c, 1, 72, 0
2, 112235, Note_on_c, 1, 83, 35
2, 112235, Note_on_c, 1, 84, 0
2, 112273, Note_on_c, 1, 84, 35
2, 112273, Note_on_c, 1, 83, 0
2, 112308, Note_on_c, 1, 72, 35
2, 112309, Note_on_c, 1, 69, 0
2, 112310, Note_on_c, 1, 83, 35
2, 112310, Note_on_c, 1, 84, 0
2, 112347, Note_on_c, 1, 84, 35
2, 112348, Note_on_c, 1, 83, 0
2, 112383, Note_on_c, 1, 76, 35
2, 112383, Note_on_c, 1, 70, 35
2, 112383, Note_on_c, 1, 72, 0
2, 112384, Note_on_c, 1, 79, 35
2, 112385, Note_on_c, 1, 84, 0
2, 112457, Note_on_c, 1, 72, 35
2, 112457, Note_on_c, 1, 76, 0
2, 112458, Note_on_c, 1, 70, 0
2, 112459, Note_on_c, 1, 79, 0
2, 112460, Note_on_c, 1, 84, 35
2, 112532, Note_on_c, 1, 72, 0
2, 112534, Note_on_c, 1, 67, 35
2, 112535, Note_on_c, 1, 84, 0
2, 112607, Note_on_c, 1, 72, 35
2, 112609, Note_on_c, 1, 67, 0
2, 112610, Note_on_c, 1, 84, 35
2, 112682, Note_on_c, 1, 72, 0
2, 112684, Note_on_c, 1, 82, 35
2, 112684, Note_on_c, 1, 79, 35
2, 112684, Note_on_c, 1, 64, 35
2, 112684, Note_on_c, 1, 84, 0
2, 112758, Note_on_c, 1, 72, 35
2, 112759, Note_on_c, 1, 84, 35
2, 112759, Note_on_c, 1, 64, 0
2, 112759, Note_on_c, 1, 79, 0
2, 112760, Note_on_c, 1, 82, 0
2, 112831, Note_on_c, 1, 72, 0
2, 112834, Note_on_c, 1, 84, 0
2, 112835, Note_on_c, 1, 60, 35
2, 112907, Note_on_c, 1, 72, 35
2, 112909, Note_on_c, 1, 84, 35
2, 112910, Note_on_c, 1, 60, 0
2, 112982, Note_on_c, 1, 72, 0
2, 112983, Note_on_c, 1, 77, 35
2, 112984, Note_on_c, 1, 81, 35
2, 112984, Note_on_c, 1, 65, 35
2, 112984, Note_on_c, 1, 84, 0
2, 113021, Note_on_c, 1, 77, 0
2, 113022, Note_on_c, 1, 84, 36
2, 113022, Note_on_c, 1, 81, 0
2, 113057, Note_on_c, 1, 72, 38
2, 113059, Note_on_c, 1, 83, 38
2, 113059, Note_on_c, 1, 84, 0
2, 113059, Note_on_c, 1, 65, 0
2, 113096, Note_on_c, 1, 84, 41
2, 113097, Note_on_c, 1, 83, 0
2, 113132, Note_on_c, 1, 69, 43
2, 113132, Note_on_c, 1, 72, 0
2, 113134, Note_on_c, 1, 83, 43
2, 113134, Note_on_c, 1, 84, 0
2, 113172, Note_on_c, 1, 84, 45
2, 113172, Note_on_c, 1, 83, 0
2, 113207, Note_on_c, 1, 72, 47
2, 113208, Note_on_c, 1, 69, 0
2, 113209, Note_on_c, 1, 83, 47
2, 113209, Note_on_c, 1, 84, 0
2, 113246, Note_on_c, 1, 84, 50
2, 113246, Note_on_c, 1, 83, 0
2, 113281, Note_on_c, 1, 72, 0
2, 113284, Note_on_c, 1, 84, 0
2, 113285, Note_on_c, 1, 58, 35
2, 113356, Note_on_c, 1, 74, 35
2, 113358, Note_on_c, 1, 67, 35
2, 113359, Note_on_c, 1, 58, 0
2, 113393, Note_on_c, 1, 74, 0
2, 113396, Note_on_c, 1, 79, 35
2, 113433, Note_on_c, 1, 79, 0
2, 113434, Note_on_c, 1, 84, 35
2, 113434, Note_on_c, 1, 62, 35
2, 113434, Note_on_c, 1, 67, 0
2, 113508, Note_on_c, 1, 67, 35
2, 113509, Note_on_c, 1, 82, 35
2, 113509, Note_on_c, 1, 84, 0
2, 113510, Note_on_c, 1, 62, 0
2, 113583, Note_on_c, 1, 67, 0
2, 113584, Note_on_c, 1, 60, 35
2, 113584, Note_on_c, 1, 82, 0
2, 113655, Note_on_c, 1, 72, 35
2, 113657, Note_on_c, 1, 69, 35
2, 113659, Note_on_c, 1, 60, 0
2, 113693, Note_on_c, 1, 72, 0
2, 113695, Note_on_c, 1, 77, 35
2, 113732, Note_on_c, 1, 77, 0
2, 113732, Note_on_c, 1, 69, 0
2, 113733, Note_on_c, 1, 82, 35
2, 113733, Note_on_c, 1, 65, 35
2, 113807, Note_on_c, 1, 69, 35
2, 113808, Note_on_c, 1, 81, 35
2, 113808, Note_on_c, 1, 65, 0
2, 113808, Note_on_c, 1, 82, 0
2, 113881, Note_on_c, 1, 69, 0
2, 113883, Note_on_c, 1, 60, 35
2, 113883, Note_on_c, 1, 81, 0
2, 113954, Note_on_c, 1, 70, 35
2, 113957, Note_on_c, 1, 67, 35
2, 113958, Note_on_c, 1, 60, 0
2, 113992, Note_on_c, 1, 70, 0
2, 113993, Note_on_c, 1, 76, 35
2, 114031, Note_on_c, 1, 76, 0
2, 114033, Note_on_c, 1, 81, 35
2, 114033, Note_on_c, 1, 64, 35
2, 114033, Note_on_c, 1, 67, 0
2, 114107, Note_on_c, 1, 79, 35
2, 114108, Note_on_c, 1, 67, 35
2, 114108, Note_on_c, 1, 64, 0
2, 114108, Note_on_c, 1, 81, 0
2, 114181, Note_on_c, 1, 69, 35
2, 114182, Note_on_c, 1, 79, 0
2, 114182, Note_on_c, 1, 67, 0
2, 114183, Note_on_c, 1, 65, 35
2, 114183, Note_on_c, 1, 53, 35
2, 114230, Note_on_c, 1, 72, 35
2, 114231, Note_on_c, 1, 69, 0
2, 114280, Note_on_c, 1, 72, 0
2, 114281, Note_on_c, 1, 77, 35
2, 114331, Note_on_c, 1, 77, 0
2, 114333, Note_on_c, 1, 81, 35
2, 114381, Note_on_c, 1, 77, 35
2, 114383, Note_on_c, 1, 81, 0
2, 114429, Note_on_c, 1, 72, 35
2, 114431, Note_on_c, 1, 77, 0
2, 114479, Note_on_c, 1, 72, 0
2, 114480, Note_on_c, 1, 69, 35
2, 114529, Note_on_c, 1, 72, 35
2, 114530, Note_on_c, 1, 69, 0
2, 114579, Note_on_c, 1, 72, 0
2, 114581, Note_on_c, 1, 77, 35
2, 114631, Note_on_c, 1, 77, 0
2, 114632, Note_on_c, 1, 53, 0
2, 114632, Note_on_c, 1, 65, 0
2, 114633, Note_on_c, 1, 81, 35
2, 114634, Note_on_c, 1, 60, 35
2, 114681, Note_on_c, 1, 77, 35
2, 114683, Note_on_c, 1, 81, 0
2, 114729, Note_on_c, 1, 72, 35
2, 114731, Note_on_c, 1, 77, 0
2, 114779, Note_on_c, 1, 72, 0
2, 114780, Note_on_c, 1, 69, 35
2, 114782, Note_on_c, 1, 65, 35
2, 114782, Note_on_c, 1, 53, 35
2, 114783, Note_on_c, 1, 60, 0
2, 114829, Note_on_c, 1, 72, 35
2, 114830, Note_on_c, 1, 69, 0
2, 114879, Note_on_c, 1, 72, 0
2, 114881, Note_on_c, 1, 77, 35
2, 114931, Note_on_c, 1, 77, 0
2, 114932, Note_on_c, 1, 81, 35
2, 114932, Note_on_c, 1, 60, 35
2, 114932, Note_on_c, 1, 65, 0
2, 114932, Note_on_c, 1, 53, 0
2, 114981, Note_on_c, 1, 77, 35
2, 114982, Note_on_c, 1, 81, 0
2, 115029, Note_on_c, 1, 72, 35
2, 115031, Note_on_c, 1, 77, 0
2, 115079, Note_on_c, 1, 69, 35
2, 115079, Note_on_c, 1, 50, 35
2, 115079, Note_on_c, 1, 72, 0
2, 115082, Note_on_c, 1, 60, 0
2, 115083, Note_on_c, 1, 62, 35
2, 115129, Note_on_c, 1, 74, 35
2, 115130, Note_on_c, 1, 69, 0
2, 115179, Note_on_c, 1, 74, 0
2, 115181, Note_on_c, 1, 77, 35
2, 115231, Note_on_c, 1, 77, 0
2, 115232, Note_on_c, 1, 81, 35
2, 115280, Note_on_c, 1, 77, 35
2, 115281, Note_on_c, 1, 81, 0
2, 115328, Note_on_c, 1, 74, 36
2, 115330, Note_on_c, 1, 77, 0
2, 115379, Note_on_c, 1, 69, 37
2, 115379, Note_on_c, 1, 74, 0
2, 115428, Note_on_c, 1, 74, 38
2, 115429, Note_on_c, 1, 69, 0
2, 115478, Note_on_c, 1, 74, 0
2, 115480, Note_on_c, 1, 77, 39
2, 115528, Note_on_c, 1, 50, 0
2, 115530, Note_on_c, 1, 77, 0
2, 115531, Note_on_c, 1, 81, 40
2, 115532, Note_on_c, 1, 57, 40
2, 115532, Note_on_c, 1, 62, 0
2, 115580, Note_on_c, 1, 77, 41
2, 115581, Note_on_c, 1, 81, 0
2, 115628, Note_on_c, 1, 74, 42
2, 115630, Note_on_c, 1, 77, 0
2, 115678, Note_on_c, 1, 74, 0
2, 115679, Note_on_c, 1, 69, 43
2, 115679, Note_on_c, 1, 50, 43
2, 115681, Note_on_c, 1, 57, 0
2, 115682, Note_on_c, 1, 62, 43
2, 115728, Note_on_c, 1, 74, 44
2, 115729, Note_on_c, 1, 69, 0
2, 115778, Note_on_c, 1, 74, 0
2, 115780, Note_on_c, 1, 77, 45
2, 115829, Note_on_c, 1, 77, 0
2, 115829, Note_on_c, 1, 50, 0
2, 115831, Note_on_c, 1, 81, 46
2, 115832, Note_on_c, 1, 57, 46
2, 115832, Note_on_c, 1, 62, 0
2, 115879, Note_on_c, 1, 77, 47
2, 115881, Note_on_c, 1, 81, 0
2, 115927, Note_on_c, 1, 74, 48
2, 115929, Note_on_c, 1, 77, 0
2, 115978, Note_on_c, 1, 74, 0
2, 115981, Note_on_c, 1, 58, 50
2, 115981, Note_on_c, 1, 57, 0
2, 116028, Note_on_c, 1, 70, 50
2, 116077, Note_on_c, 1, 74, 49
2, 116078, Note_on_c, 1, 70, 0
2, 116127, Note_on_c, 1, 74, 0
2, 116130, Note_on_c, 1, 81, 48
2, 116177, Note_on_c, 1, 74, 47
2, 116180, Note_on_c, 1, 81, 0
2, 116227, Note_on_c, 1, 74, 0
2, 116229, Note_on_c, 1, 79, 46
2, 116279, Note_on_c, 1, 79, 0
2, 116281, Note_on_c, 1, 60, 45
2, 116281, Note_on_c, 1, 58, 0
2, 116328, Note_on_c, 1, 69, 45
2, 116377, Note_on_c, 1, 72, 44
2, 116378, Note_on_c, 1, 69, 0
2, 116427, Note_on_c, 1, 72, 0
2, 116429, Note_on_c, 1, 79, 43
2, 116477, Note_on_c, 1, 72, 42
2, 116479, Note_on_c, 1, 79, 0
2, 116527, Note_on_c, 1, 72, 0
2, 116529, Note_on_c, 1, 77, 41
2, 116578, Note_on_c, 1, 77, 0
2, 116580, Note_on_c, 1, 61, 40
2, 116580, Note_on_c, 1, 60, 0
2, 116628, Note_on_c, 1, 67, 40
2, 116676, Note_on_c, 1, 70, 39
2, 116678, Note_on_c, 1, 67, 0
2, 116727, Note_on_c, 1, 70, 0
2, 116729, Note_on_c, 1, 77, 38
2, 116777, Note_on_c, 1, 70, 37
2, 116779, Note_on_c, 1, 77, 0
2, 116826, Note_on_c, 1, 70, 0
2, 116827, Note_on_c, 1, 76, 36
2, 116877, Note_on_c, 1, 76, 0
2, 116878, Note_on_c, 1, 65, 35
2, 116880, Note_on_c, 1, 62, 35
2, 116880, Note_on_c, 1, 61, 0
2, 116927, Note_on_c, 1, 69, 35
2, 116928, Note_on_c, 1, 65, 0
2, 116976, Note_on_c, 1, 74, 35
2, 116977, Note_on_c, 1, 69, 0
2, 117026, Note_on_c, 1, 74, 0
2, 117028, Note_on_c, 1, 77, 35
2, 117077, Note_on_c, 1, 74, 35
2, 117078, Note_on_c, 1, 77, 0
2, 117126, Note_on_c, 1, 74, 0
2, 117127, Note_on_c, 1, 69, 35
2, 117177, Note_on_c, 1, 69, 0
2, 117178, Note_on_c, 1, 65, 35
2, 117227, Note_on_c, 1, 69, 35
2, 117228, Note_on_c, 1, 65, 0
2, 117276, Note_on_c, 1, 69, 0
2, 117278, Note_on_c, 1, 77, 35
2, 117328, Note_on_c, 1, 64, 35
2, 117328, Note_on_c, 1, 77, 0
2, 117329, Note_on_c, 1, 60, 35
2, 117330, Note_on_c, 1, 62, 0
2, 117377, Note_on_c, 1, 69, 35
2, 117377, Note_on_c, 1, 64, 0
2, 117427, Note_on_c, 1, 76, 35
2, 117427, Note_on_c, 1, 69, 0
2, 117477, Note_on_c, 1, 76, 0
2, 117479, Note_on_c, 1, 62, 35
2, 117480, Note_on_c, 1, 58, 35
2, 117480, Note_on_c, 1, 60, 0
2, 117528, Note_on_c, 1, 65, 35
2, 117529, Note_on_c, 1, 62, 0
2, 117575, Note_on_c, 1, 74, 35
2, 117577, Note_on_c, 1, 65, 0
2, 117625, Note_on_c, 1, 74, 0
2, 117628, Note_on_c, 1, 60, 35
2, 117629, Note_on_c, 1, 57, 35
2, 117629, Note_on_c, 1, 58, 0
2, 117677, Note_on_c, 1, 65, 35
2, 117678, Note_on_c, 1, 60, 0
2, 117725, Note_on_c, 1, 72, 35
2, 117727, Note_on_c, 1, 65, 0
2, 117775, Note_on_c, 1, 72, 0
2, 117778, Note_on_c, 1, 59, 35
2, 117778, Note_on_c, 1, 55, 35
2, 117779, Note_on_c, 1, 57, 0
2, 117828, Note_on_c, 1, 62, 35
2, 117828, Note_on_c, 1, 59, 0
2, 117877, Note_on_c, 1, 65, 35
2, 117878, Note_on_c, 1, 62, 0
2, 117925, Note_on_c, 1, 71, 35
2, 117927, Note_on_c, 1, 65, 0
2, 117975, Note_on_c, 1, 71, 0
2, 117977, Note_on_c, 1, 65, 35
2, 118027, Note_on_c, 1, 65, 0
2, 118028, Note_on_c, 1, 62, 35
2, 118076, Note_on_c, 1, 49, 35
2, 118077, Note_on_c, 1, 55, 0
2, 118078, Note_on_c, 1, 58, 35
2, 118078, Note_on_c, 1, 62, 0
2, 118127, Note_on_c, 1, 64, 35
2, 118127, Note_on_c, 1, 58, 0
2, 118176, Note_on_c, 1, 64, 0
2, 118177, Note_on_c, 1, 67, 35
2, 118225, Note_on_c, 1, 70, 35
2, 118227, Note_on_c, 1, 67, 0
2, 118275, Note_on_c, 1, 70, 0
2, 118277, Note_on_c, 1, 67, 35
2, 118326, Note_on_c, 1, 64, 35
2, 118327, Note_on_c, 1, 67, 0
2, 118375, Note_on_c, 1, 49, 0
2, 118376, Note_on_c, 1, 50, 35
2, 118377, Note_on_c, 1, 64, 0
2, 118378, Note_on_c, 1, 57, 35
2, 118427, Note_on_c, 1, 62, 35
2, 118428, Note_on_c, 1, 57, 0
2, 118476, Note_on_c, 1, 65, 35
2, 118478, Note_on_c, 1, 62, 0
2, 118525, Note_on_c, 1, 69, 35
2, 118526, Note_on_c, 1, 65, 0
2, 118575, Note_on_c, 1, 69, 0
2, 118576, Note_on_c, 1, 65, 35
2, 118626, Note_on_c, 1, 65, 0
2, 118627, Note_on_c, 1, 62, 35
2, 118675, Note_on_c, 1, 46, 35
2, 118675, Note_on_c, 1, 50, 0
2, 118677, Note_on_c, 1, 62, 0
2, 118727, Note_on_c, 1, 58, 35
2, 118777, Note_on_c, 1, 62, 35
2, 118777, Note_on_c, 1, 58, 0
2, 118825, Note_on_c, 1, 69, 35
2, 118827, Note_on_c, 1, 62, 0
2, 118875, Note_on_c, 1, 69, 0
2, 118877, Note_on_c, 1, 62, 35
2, 118926, Note_on_c, 1, 67, 35
2, 118927, Note_on_c, 1, 62, 0
2, 118974, Note_on_c, 1, 46, 0
2, 118975, Note_on_c, 1, 48, 35
2, 118976, Note_on_c, 1, 67, 0
2, 119026, Note_on_c, 1, 57, 35
2, 119077, Note_on_c, 1, 60, 35
2, 119077, Note_on_c, 1, 57, 0
2, 119126, Note_on_c, 1, 67, 35
2, 119127, Note_on_c, 1, 60, 0
2, 119175, Note_on_c, 1, 67, 0
2, 119177, Note_on_c, 1, 60, 35
2, 119225, Note_on_c, 1, 65, 35
2, 119226, Note_on_c, 1, 60, 0
2, 119275, Note_on_c, 1, 65, 0
2, 119277, Note_on_c, 1, 36, 35
2, 119325, Note_on_c, 1, 55, 35
2, 119375, Note_on_c, 1, 55, 0
2, 119376, Note_on_c, 1, 58, 35
2, 119425, Note_on_c, 1, 65, 35
2, 119426, Note_on_c, 1, 58, 0
2, 119475, Note_on_c, 1, 65, 0
2, 119477, Note_on_c, 1, 58, 35
2, 119525, Note_on_c, 1, 64, 35
2, 119526, Note_on_c, 1, 58, 0
2, 119574, Note_on_c, 1, 48, 0
2, 119575, Note_on_c, 1, 64, 0
2, 119576, Note_on_c, 1, 57, 35
2, 119576, Note_on_c, 1, 41, 35
2, 119576, Note_on_c, 1, 36, 0
2, 119626, Note_on_c, 1, 60, 35
2, 119626, Note_on_c, 1, 57, 0
2, 119675, Note_on_c, 1, 65, 35
2, 119676, Note_on_c, 1, 60, 0
2, 119725, Note_on_c, 1, 65, 0
2, 119726, Note_on_c, 1, 57, 35
2, 119775, Note_on_c, 1, 57, 0
2, 119776, Note_on_c, 1, 60, 35
2, 119825, Note_on_c, 1, 65, 35
2, 119826, Note_on_c, 1, 60, 0
2, 119875, Note_on_c, 1, 65, 0
2, 119876, Note_on_c, 1, 57, 35
2, 119925, Note_on_c, 1, 60, 35
2, 119925, Note_on_c, 1, 57, 0
2, 119975, Note_on_c, 1, 65, 35
2, 119976, Note_on_c, 1, 60, 0
2, 120024, Note_on_c, 1, 65, 0
2, 120025, Note_on_c, 1, 53, 35
2, 120026, Note_on_c, 1, 57, 35
2, 120075, Note_on_c, 1, 60, 35
2, 120075, Note_on_c, 1, 57, 0
2, 120125, Note_on_c, 1, 66, 35
2, 120125, Note_on_c, 1, 60, 0
2, 120150, Note_on_c, 1, 53, 0
2, 120174, Note_on_c, 1, 66, 0
2, 120175, Note_on_c, 1, 53, 35
2, 120176, Note_on_c, 1, 58, 35
2, 120225, Note_on_c, 1, 62, 35
2, 120225, Note_on_c, 1, 58, 0
2, 120274, Note_on_c, 1, 67, 35
2, 120276, Note_on_c, 1, 62, 0
2, 120299, Note_on_c, 1, 53, 0
2, 120324, Note_on_c, 1, 67, 0
2, 120325, Note_on_c, 1, 58, 35
2, 120325, Note_on_c, 1, 53, 35
2, 120375, Note_on_c, 1, 60, 35
2, 120376, Note_on_c, 1, 58, 0
2, 120424, Note_on_c, 1, 64, 35
2, 120425, Note_on_c, 1, 60, 0
2, 120449, Note_on_c, 1, 53, 0
2, 120474, Note_on_c, 1, 64, 0
2, 120475, Note_on_c, 1, 41, 35
2, 120475, Note_on_c, 1, 41, 0
2, 120476, Note_on_c, 1, 57, 35
2, 120525, Note_on_c, 1, 60, 35
2, 120525, Note_on_c, 1, 57, 0
2, 120573, Note_on_c, 1, 65, 35
2, 120575, Note_on_c, 1, 60, 0
2, 120623, Note_on_c, 1, 65, 0
2, 120625, Note_on_c, 1, 57, 35
2, 120674, Note_on_c, 1, 57, 0
2, 120675, Note_on_c, 1, 60, 35
2, 120724, Note_on_c, 1, 65, 35
2, 120724, Note_on_c, 1, 60, 0
2, 120774, Note_on_c, 1, 65, 0
2, 120775, Note_on_c, 1, 57, 35
2, 120825, Note_on_c, 1, 60, 35
2, 120825, Note_on_c, 1, 57, 0
2, 120874, Note_on_c, 1, 65, 35
2, 120874, Note_on_c, 1, 60, 0
2, 120923, Note_on_c, 1, 65, 0
2, 120924, Note_on_c, 1, 57, 35
2, 120924, Note_on_c, 1, 53, 35
2, 120974, Note_on_c, 1, 60, 35
2, 120974, Note_on_c, 1, 57, 0
2, 121023, Note_on_c, 1, 66, 35
2, 121024, Note_on_c, 1, 60, 0
2, 121048, Note_on_c, 1, 53, 0
2, 121073, Note_on_c, 1, 53, 35
2, 121073, Note_on_c, 1, 66, 0
2, 121074, Note_on_c, 1, 58, 35
2, 121124, Note_on_c, 1, 62, 35
2, 121124, Note_on_c, 1, 58, 0
2, 121173, Note_on_c, 1, 67, 35
2, 121174, Note_on_c, 1, 62, 0
2, 121198, Note_on_c, 1, 53, 0
2, 121223, Note_on_c, 1, 67, 0
2, 121224, Note_on_c, 1, 58, 35
2, 121224, Note_on_c, 1, 53, 35
2, 121274, Note_on_c, 1, 61, 35
2, 121274, Note_on_c, 1, 58, 0
2, 121323, Note_on_c, 1, 64, 35
2, 121324, Note_on_c, 1, 61, 0
2, 121348, Note_on_c, 1, 53, 0
2, 121373, Note_on_c, 1, 64, 0
2, 121374, Note_on_c, 1, 58, 35
2, 121374, Note_on_c, 1, 41, 35
2, 121374, Note_on_c, 1, 41, 0
2, 121424, Note_on_c, 1, 61, 35
2, 121424, Note_on_c, 1, 58, 0
2, 121473, Note_on_c, 1, 64, 37
2, 121473, Note_on_c, 1, 61, 0
2, 121522, Note_on_c, 1, 64, 0
2, 121523, Note_on_c, 1, 67, 38
2, 121572, Note_on_c, 1, 64, 40
2, 121573, Note_on_c, 1, 67, 0
2, 121622, Note_on_c, 1, 64, 0
2, 121624, Note_on_c, 1, 61, 42
2, 121673, Note_on_c, 1, 53, 43
2, 121674, Note_on_c, 1, 58, 43
2, 121674, Note_on_c, 1, 61, 0
2, 121723, Note_on_c, 1, 61, 45
2, 121723, Note_on_c, 1, 58, 0
2, 121772, Note_on_c, 1, 64, 47
2, 121773, Note_on_c, 1, 61, 0
2, 121822, Note_on_c, 1, 67, 49
2, 121822, Note_on_c, 1, 64, 0
2, 121872, Note_on_c, 1, 64, 50
2, 121873, Note_on_c, 1, 67, 0
2, 121922, Note_on_c, 1, 64, 0
2, 121923, Note_on_c, 1, 61, 48
2, 121972, Note_on_c, 1, 53, 0
2, 121973, Note_on_c, 1, 58, 47
2, 121973, Note_on_c, 1, 61, 0
2, 121997, Note_on_c, 1, 53, 46
2, 122023, Note_on_c, 1, 61, 45
2, 122024, Note_on_c, 1, 58, 0
2, 122072, Note_on_c, 1, 64, 43
2, 122073, Note_on_c, 1, 61, 0
2, 122122, Note_on_c, 1, 67, 42
2, 122122, Note_on_c, 1, 64, 0
2, 122172, Note_on_c, 1, 64, 40
2, 122172, Note_on_c, 1, 67, 0
2, 122222, Note_on_c, 1, 64, 0
2, 122223, Note_on_c, 1, 61, 38
2, 122272, Note_on_c, 1, 53, 0
2, 122273, Note_on_c, 1, 57, 37
2, 122273, Note_on_c, 1, 53, 37
2, 122273, Note_on_c, 1, 41, 37
2, 122273, Note_on_c, 1, 61, 0
2, 122273, Note_on_c, 1, 41, 0
2, 122323, Note_on_c, 1, 60, 35
2, 122323, Note_on_c, 1, 57, 0
2, 122372, Note_on_c, 1, 65, 35
2, 122373, Note_on_c, 1, 60, 0
2, 122421, Note_on_c, 1, 69, 35
2, 122422, Note_on_c, 1, 65, 0
2, 122570, Note_on_c, 1, 69, 0
2, 122571, Note_on_c, 1, 53, 0
2, 122572, Note_on_c, 1, 41, 0
2, 123170, Note_on_c, 1, 41, 35
2, 123219, Note_on_c, 1, 48, 35
2, 123221, Note_on_c, 1, 41, 0
2, 123268, Note_on_c, 1, 48, 0
2, 123272, Note_on_c, 1, 57, 35
2, 123320, Note_on_c, 1, 65, 35
2, 123470, Note_on_c, 1, 65, 0
2, 123471, Note_on_c, 1, 57, 0
2, 123768, Note_on_c, 1, 48, 35
2, 123770, Note_on_c, 1, 41, 35
2, 123772, Note_on_c, 1, 60, 35
2, 123772, Note_on_c, 1, 57, 35
2, 123918, Note_on_c, 1, 48, 0
2, 123921, Note_on_c, 1, 41, 0
2, 123921, Note_on_c, 1, 60, 0
2, 123921, Note_on_c, 1, 57, 0
2, 124068, Note_on_c, 1, 48, 35
2, 124069, Note_on_c, 1, 41, 35
2, 124069, Note_on_c, 1, 53, 35
2, 124069, Note_on_c, 1, 57, 35
2, 125247, Note_on_c, 1, 53, 0
2, 125259, Note_on_c, 1, 48, 0
2, 125267, Note_on_c, 1, 57, 0
2, 125272, Note_on_c, 1, 41, 0
2, 125272, End_track
0, 0, End_of_file