0, 0, Header, 1, 5, 120
1, 0, Start_track
1, 0, Title_t, "untitled"
1, 0, Copyright_t, "Copyright \251 2002 di FIORELLAEARMANDO@PANET.IT"
1, 0, Text_t, "FIORELLAEARMANDO@PANET.IT\012"
1, 0, Time_signature, 4, 2, 24, 8
1, 0, Key_signature, 0, "major"
1, 0, Tempo, 666667
1, 2885, Tempo, 869565
1, 3235, Tempo, 666667
1, 8640, Tempo, 821918
1, 9000, Tempo, 652174
1, 14880, Tempo, 869565
1, 15235, Tempo, 666667
1, 15235, End_track
2, 0, Start_track
2, 0, MIDI_port, 0
2, 0, Title_t, "Voice"
2, 0, Program_c, 0, 71
2, 0, Control_c, 0, 7, 120
2, 0, Control_c, 0, 10, 64
2, 360, Control_c, 0, 93, 11
2, 360, Control_c, 0, 91, 16
2, 1320, Note_on_c, 0, 67, 91
2, 1440, Note_on_c, 0, 67, 0
2, 1440, Note_on_c, 0, 72, 94
2, 1680, Note_on_c, 0, 72, 0
2, 1680, Note_on_c, 0, 67, 96
2, 1920, Note_on_c, 0, 67, 0
2, 1920, Note_on_c, 0, 64, 97
2, 2160, Note_on_c, 0, 64, 0
2, 2160, Note_on_c, 0, 60, 100
2, 2280, Note_on_c, 0, 60, 0
2, 2280, Note_on_c, 0, 76, 98
2, 2400, Note_on_c, 0, 76, 0
2, 2400, Note_on_c, 0, 76, 94
2, 2640, Note_on_c, 0, 76, 0
2, 2640, Note_on_c, 0, 74, 95
2, 2760, Note_on_c, 0, 74, 0
2, 2760, Note_on_c, 0, 72, 88
2, 2880, Note_on_c, 0, 72, 0
2, 2880, Note_on_c, 0, 72, 70
2, 3120, Note_on_c, 0, 72, 0
2, 3120, Note_on_c, 0, 71, 55
2, 3240, Note_on_c, 0, 71, 0
2, 3240, Note_on_c, 0, 67, 54
2, 3360, Note_on_c, 0, 67, 0
2, 3360, Note_on_c, 0, 77, 100
2, 3600, Note_on_c, 0, 77, 0
2, 3600, Note_on_c, 0, 74, 103
2, 3840, Note_on_c, 0, 74, 0
2, 3840, Note_on_c, 0, 71, 106
2, 4080, Note_on_c, 0, 71, 0
2, 4080, Note_on_c, 0, 67, 106
2, 4320, Note_on_c, 0, 67, 0
2, 4320, Note_on_c, 0, 72, 103
2, 4560, Note_on_c, 0, 72, 0
2, 4560, Note_on_c, 0, 74, 104
2, 4740, Note_on_c, 0, 74, 0
2, 4740, Note_on_c, 0, 71, 109
2, 4800, Note_on_c, 0, 71, 0
2, 4800, Note_on_c, 0, 72, 112
2, 5160, Note_on_c, 0, 72, 0
2, 5160, Note_on_c, 0, 64, 56
2, 5280, Note_on_c, 0, 64, 0
2, 5280, Note_on_c, 0, 64, 56
2, 5640, Note_on_c, 0, 64, 0
2, 5640, Note_on_c, 0, 64, 56
2, 5760, Note_on_c, 0, 64, 0
2, 5760, Note_on_c, 0, 64, 56
2, 6000, Note_on_c, 0, 64, 0
2, 6000, Note_on_c, 0, 64, 56
2, 6120, Note_on_c, 0, 64, 0
2, 6120, Note_on_c, 0, 64, 56
2, 6240, Note_on_c, 0, 64, 0
2, 6240, Note_on_c, 0, 65, 55
2, 6480, Note_on_c, 0, 65, 0
2, 6480, Note_on_c, 0, 65, 55
2, 6600, Note_on_c, 0, 65, 0
2, 6600, Note_on_c, 0, 65, 55
2, 6720, Note_on_c, 0, 65, 0
2, 6720, Note_on_c, 0, 65, 55
2, 6960, Note_on_c, 0, 65, 0
2, 6960, Note_on_c, 0, 65, 55
2, 7080, Note_on_c, 0, 65, 0
2, 7080, Note_on_c, 0, 65, 55
2, 7200, Note_on_c, 0, 65, 0
2, 7200, Note_on_c, 0, 66, 100
2, 7440, Note_on_c, 0, 66, 0
2, 7440, Note_on_c, 0, 69, 112
2, 7680, Note_on_c, 0, 69, 0
2, 7680, Note_on_c, 0, 70, 109
2, 8040, Note_on_c, 0, 70, 0
2, 8040, Note_on_c, 0, 67, 92
2, 8160, Note_on_c, 0, 67, 0
2, 8160, Note_on_c, 0, 72, 92
2, 8400, Note_on_c, 0, 72, 0
2, 8400, Note_on_c, 0, 74, 96
2, 8640, Note_on_c, 0, 74, 0
2, 8640, Note_on_c, 0, 67, 113
2, 9000, Note_on_c, 0, 67, 0
2, 9960, Note_on_c, 0, 70, 42
2, 10080, Note_on_c, 0, 70, 0
2, 10080, Note_on_c, 0, 75, 41
2, 10440, Note_on_c, 0, 75, 0
2, 10440, Note_on_c, 0, 75, 39
2, 10560, Note_on_c, 0, 75, 0
2, 10560, Note_on_c, 0, 75, 39
2, 10680, Note_on_c, 0, 75, 0
2, 10680, Note_on_c, 0, 75, 39
2, 10740, Note_on_c, 0, 75, 0
2, 10740, Note_on_c, 0, 75, 40
2, 10800, Note_on_c, 0, 75, 0
2, 10800, Note_on_c, 0, 75, 40
2, 10860, Note_on_c, 0, 75, 0
2, 10860, Note_on_c, 0, 75, 40
2, 10920, Note_on_c, 0, 75, 0
2, 10920, Note_on_c, 0, 74, 40
2, 10980, Note_on_c, 0, 74, 0
2, 10980, Note_on_c, 0, 72, 40
2, 11040, Note_on_c, 0, 72, 0
2, 11040, Note_on_c, 0, 72, 43
2, 11160, Note_on_c, 0, 72, 0
2, 11160, Note_on_c, 0, 71, 43
2, 11280, Note_on_c, 0, 71, 0
2, 11880, Note_on_c, 0, 67, 44
2, 12000, Note_on_c, 0, 67, 0
2, 12000, Note_on_c, 0, 72, 46
2, 12360, Note_on_c, 0, 72, 0
2, 12360, Note_on_c, 0, 72, 46
2, 12480, Note_on_c, 0, 72, 0
2, 12480, Note_on_c, 0, 72, 46
2, 12660, Note_on_c, 0, 72, 0
2, 12660, Note_on_c, 0, 72, 46
2, 12720, Note_on_c, 0, 72, 0
2, 12720, Note_on_c, 0, 71, 46
2, 12900, Note_on_c, 0, 71, 0
2, 12900, Note_on_c, 0, 72, 46
2, 12960, Note_on_c, 0, 72, 0
2, 12960, Note_on_c, 0, 74, 46
2, 13200, Note_on_c, 0, 74, 0
2, 13800, Note_on_c, 0, 67, 100
2, 13920, Note_on_c, 0, 67, 0
2, 13920, Note_on_c, 0, 72, 100
2, 14160, Note_on_c, 0, 72, 0
2, 14160, Note_on_c, 0, 67, 100
2, 14400, Note_on_c, 0, 67, 0
2, 14400, Note_on_c, 0, 64, 100
2, 14640, Note_on_c, 0, 64, 0
2, 14640, Note_on_c, 0, 60, 100
2, 14760, Note_on_c, 0, 60, 0
2, 14760, Note_on_c, 0, 76, 100
2, 14880, Note_on_c, 0, 76, 0
2, 14880, Note_on_c, 0, 76, 100
2, 15120, Note_on_c, 0, 76, 0
2, 15120, Note_on_c, 0, 74, 100
2, 15240, Note_on_c, 0, 74, 0
2, 15240, Note_on_c, 0, 72, 78
2, 15360, Note_on_c, 0, 72, 0
2, 15360, Note_on_c, 0, 72, 60
2, 15600, Note_on_c, 0, 72, 0
2, 15600, Note_on_c, 0, 71, 60
2, 15720, Note_on_c, 0, 71, 0
2, 15720, Note_on_c, 0, 67, 98
2, 15840, Note_on_c, 0, 67, 0
2, 15840, Note_on_c, 0, 77, 100
2, 16080, Note_on_c, 0, 77, 0
2, 16080, Note_on_c, 0, 74, 100
2, 16320, Note_on_c, 0, 74, 0
2, 16320, Note_on_c, 0, 71, 100
2, 16680, Note_on_c, 0, 71, 0
2, 16680, Note_on_c, 0, 67, 100
2, 16800, Note_on_c, 0, 67, 0
2, 16800, Note_on_c, 0, 72, 100
2, 17040, Note_on_c, 0, 72, 0
2, 17040, Note_on_c, 0, 74, 100
2, 17280, Note_on_c, 0, 74, 0
2, 17280, Note_on_c, 0, 76, 119
2, 17640, Note_on_c, 0, 76, 0
2, 17640, Note_on_c, 0, 76, 120
2, 17760, Note_on_c, 0, 76, 0
2, 17760, Note_on_c, 0, 76, 120
2, 18120, Note_on_c, 0, 76, 0
2, 18120, Note_on_c, 0, 76, 121
2, 18240, Note_on_c, 0, 76, 0
2, 18240, Note_on_c, 0, 77, 120
2, 18600, Note_on_c, 0, 77, 0
2, 18600, Note_on_c, 0, 74, 118
2, 18720, Note_on_c, 0, 74, 0
2, 18720, Note_on_c, 0, 79, 118
2, 18960, Note_on_c, 0, 79, 0
2, 18960, Note_on_c, 0, 67, 118
2, 19200, Note_on_c, 0, 67, 0
2, 19200, Note_on_c, 0, 72, 118
2, 19440, Note_on_c, 0, 72, 0
2, 19440, End_track
3, 0, Start_track
3, 0, MIDI_port, 0
3, 0, Title_t, "Piano Right"
3, 0, Program_c, 1, 0
3, 0, Control_c, 1, 7, 110
3, 0, Control_c, 1, 10, 32
3, 360, Control_c, 1, 93, 16
3, 360, Control_c, 1, 91, 11
3, 360, Note_on_c, 1, 79, 121
3, 360, Note_on_c, 1, 76, 121
3, 360, Note_on_c, 1, 72, 121
3, 360, Note_on_c, 1, 67, 121
3, 480, Note_on_c, 1, 67, 0
3, 480, Note_on_c, 1, 79, 0
3, 480, Note_on_c, 1, 76, 0
3, 480, Note_on_c, 1, 72, 0
3, 480, Note_on_c, 1, 84, 120
3, 480, Note_on_c, 1, 79, 120
3, 480, Note_on_c, 1, 76, 120
3, 480, Note_on_c, 1, 72, 120
3, 840, Note_on_c, 1, 72, 0
3, 840, Note_on_c, 1, 84, 0
3, 840, Note_on_c, 1, 79, 0
3, 840, Note_on_c, 1, 76, 0
3, 840, Note_on_c, 1, 60, 117
3, 960, Note_on_c, 1, 60, 0
3, 960, Note_on_c, 1, 60, 117
3, 1320, Note_on_c, 1, 60, 0
3, 1320, Note_on_c, 1, 67, 115
3, 1320, Note_on_c, 1, 55, 115
3, 1440, Note_on_c, 1, 55, 0
3, 1440, Note_on_c, 1, 67, 0
3, 1440, Note_on_c, 1, 60, 115
3, 1440, Note_on_c, 1, 72, 115
3, 1680, Note_on_c, 1, 72, 0
3, 1680, Note_on_c, 1, 60, 0
3, 1680, Note_on_c, 1, 67, 112
3, 1920, Note_on_c, 1, 67, 0
3, 1920, Note_on_c, 1, 64, 112
3, 2160, Note_on_c, 1, 64, 0
3, 2160, Note_on_c, 1, 60, 110
3, 2280, Note_on_c, 1, 60, 0
3, 2280, Note_on_c, 1, 76, 115
3, 2280, Note_on_c, 1, 67, 115
3, 2400, Note_on_c, 1, 67, 0
3, 2400, Note_on_c, 1, 76, 0
3, 2400, Note_on_c, 1, 76, 114
3, 2400, Note_on_c, 1, 67, 114
3, 2640, Note_on_c, 1, 67, 0
3, 2640, Note_on_c, 1, 76, 0
3, 2640, Note_on_c, 1, 74, 90
3, 2640, Note_on_c, 1, 65, 90
3, 2760, Note_on_c, 1, 65, 0
3, 2760, Note_on_c, 1, 74, 0
3, 2760, Note_on_c, 1, 72, 76
3, 2760, Note_on_c, 1, 64, 76
3, 2835, Note_on_c, 1, 71, 69
3, 2850, Note_on_c, 1, 71, 0
3, 2850, Note_on_c, 1, 64, 0
3, 2850, Note_on_c, 1, 72, 0
3, 2850, Note_on_c, 1, 72, 67
3, 2865, Note_on_c, 1, 72, 0
3, 2865, Note_on_c, 1, 74, 67
3, 2880, Note_on_c, 1, 74, 0
3, 2880, Note_on_c, 1, 72, 65
3, 2880, Note_on_c, 1, 64, 65
3, 3120, Note_on_c, 1, 64, 0
3, 3120, Note_on_c, 1, 72, 0
3, 3120, Note_on_c, 1, 71, 59
3, 3120, Note_on_c, 1, 62, 59
3, 3240, Note_on_c, 1, 62, 0
3, 3240, Note_on_c, 1, 71, 0
3, 3240, Note_on_c, 1, 67, 113
3, 3360, Note_on_c, 1, 67, 0
3, 3360, Note_on_c, 1, 77, 112
3, 3360, Note_on_c, 1, 65, 112
3, 3600, Note_on_c, 1, 65, 0
3, 3600, Note_on_c, 1, 77, 0
3, 3600, Note_on_c, 1, 74, 115
3, 3600, Note_on_c, 1, 62, 115
3, 3840, Note_on_c, 1, 62, 0
3, 3840, Note_on_c, 1, 74, 0
3, 3840, Note_on_c, 1, 71, 115
3, 3840, Note_on_c, 1, 59, 115
3, 4080, Note_on_c, 1, 59, 0
3, 4080, Note_on_c, 1, 71, 0
3, 4080, Note_on_c, 1, 67, 115
3, 4080, Note_on_c, 1, 55, 115
3, 4320, Note_on_c, 1, 55, 0
3, 4320, Note_on_c, 1, 67, 0
3, 4320, Note_on_c, 1, 72, 115
3, 4320, Note_on_c, 1, 66, 115
3, 4320, Note_on_c, 1, 60, 115
3, 4560, Note_on_c, 1, 60, 0
3, 4560, Note_on_c, 1, 66, 0
3, 4560, Note_on_c, 1, 72, 0
3, 4560, Note_on_c, 1, 71, 100
3, 4560, Note_on_c, 1, 65, 100
3, 4560, Note_on_c, 1, 62, 100
3, 4740, Note_on_c, 1, 71, 0
3, 4740, Note_on_c, 1, 71, 100
3, 4800, Note_on_c, 1, 71, 0
3, 4800, Note_on_c, 1, 62, 0
3, 4800, Note_on_c, 1, 65, 0
3, 4800, Note_on_c, 1, 72, 125
3, 4800, Note_on_c, 1, 64, 125
3, 4800, Note_on_c, 1, 60, 125
3, 5160, Note_on_c, 1, 60, 0
3, 5160, Note_on_c, 1, 64, 0
3, 5160, Note_on_c, 1, 72, 0
3, 5160, Note_on_c, 1, 64, 58
3, 5280, Note_on_c, 1, 64, 0
3, 5280, Note_on_c, 1, 59, 58
3, 5280, Note_on_c, 1, 64, 58
3, 5280, Note_on_c, 1, 56, 58
3, 5640, Note_on_c, 1, 56, 0
3, 5640, Note_on_c, 1, 64, 0
3, 5640, Note_on_c, 1, 59, 0
3, 5640, Note_on_c, 1, 59, 58
3, 5640, Note_on_c, 1, 64, 58
3, 5640, Note_on_c, 1, 56, 58
3, 5760, Note_on_c, 1, 56, 0
3, 5760, Note_on_c, 1, 64, 0
3, 5760, Note_on_c, 1, 59, 0
3, 5760, Note_on_c, 1, 57, 58
3, 5760, Note_on_c, 1, 60, 58
3, 5760, Note_on_c, 1, 64, 58
3, 6000, Note_on_c, 1, 64, 0
3, 6000, Note_on_c, 1, 60, 0
3, 6000, Note_on_c, 1, 57, 0
3, 6000, Note_on_c, 1, 60, 58
3, 6000, Note_on_c, 1, 57, 58
3, 6000, Note_on_c, 1, 64, 58
3, 6120, Note_on_c, 1, 64, 0
3, 6120, Note_on_c, 1, 57, 0
3, 6120, Note_on_c, 1, 60, 0
3, 6120, Note_on_c, 1, 60, 58
3, 6120, Note_on_c, 1, 57, 58
3, 6120, Note_on_c, 1, 64, 58
3, 6240, Note_on_c, 1, 64, 0
3, 6240, Note_on_c, 1, 57, 0
3, 6240, Note_on_c, 1, 60, 0
3, 6240, Note_on_c, 1, 53, 59
3, 6240, Note_on_c, 1, 57, 59
3, 6240, Note_on_c, 1, 65, 59
3, 6360, Note_on_c, 1, 65, 0
3, 6360, Note_on_c, 1, 57, 0
3, 6360, Note_on_c, 1, 53, 0
3, 6360, Note_on_c, 1, 53, 60
3, 6360, Note_on_c, 1, 57, 60
3, 6360, Note_on_c, 1, 63, 60
3, 6360, Note_on_c, 1, 65, 60
3, 6480, Note_on_c, 1, 65, 0
3, 6480, Note_on_c, 1, 53, 0
3, 6480, Note_on_c, 1, 57, 0
3, 6480, Note_on_c, 1, 63, 0
3, 6480, Note_on_c, 1, 53, 60
3, 6480, Note_on_c, 1, 57, 60
3, 6480, Note_on_c, 1, 63, 60
3, 6480, Note_on_c, 1, 65, 60
3, 6600, Note_on_c, 1, 65, 0
3, 6600, Note_on_c, 1, 53, 0
3, 6600, Note_on_c, 1, 57, 0
3, 6600, Note_on_c, 1, 63, 0
3, 6600, Note_on_c, 1, 53, 60
3, 6600, Note_on_c, 1, 57, 60
3, 6600, Note_on_c, 1, 63, 60
3, 6600, Note_on_c, 1, 65, 60
3, 6720, Note_on_c, 1, 65, 0
3, 6720, Note_on_c, 1, 53, 0
3, 6720, Note_on_c, 1, 57, 0
3, 6720, Note_on_c, 1, 63, 0
3, 6720, Note_on_c, 1, 58, 60
3, 6720, Note_on_c, 1, 62, 60
3, 6720, Note_on_c, 1, 65, 60
3, 6840, Note_on_c, 1, 65, 0
3, 6840, Note_on_c, 1, 62, 0
3, 6840, Note_on_c, 1, 58, 0
3, 6840, Note_on_c, 1, 58, 60
3, 6840, Note_on_c, 1, 62, 60
3, 6840, Note_on_c, 1, 65, 60
3, 6960, Note_on_c, 1, 65, 0
3, 6960, Note_on_c, 1, 62, 0
3, 6960, Note_on_c, 1, 58, 0
3, 6960, Note_on_c, 1, 58, 60
3, 6960, Note_on_c, 1, 62, 60
3, 6960, Note_on_c, 1, 65, 60
3, 7080, Note_on_c, 1, 65, 0
3, 7080, Note_on_c, 1, 62, 0
3, 7080, Note_on_c, 1, 58, 0
3, 7080, Note_on_c, 1, 58, 60
3, 7080, Note_on_c, 1, 62, 60
3, 7080, Note_on_c, 1, 65, 60
3, 7200, Note_on_c, 1, 65, 0
3, 7200, Note_on_c, 1, 62, 0
3, 7200, Note_on_c, 1, 58, 0
3, 7200, Note_on_c, 1, 60, 100
3, 7200, Note_on_c, 1, 62, 100
3, 7200, Note_on_c, 1, 66, 100
3, 7440, Note_on_c, 1, 66, 0
3, 7440, Note_on_c, 1, 62, 0
3, 7440, Note_on_c, 1, 60, 0
3, 7440, Note_on_c, 1, 60, 109
3, 7440, Note_on_c, 1, 62, 109
3, 7440, Note_on_c, 1, 69, 109
3, 7680, Note_on_c, 1, 69, 0
3, 7680, Note_on_c, 1, 62, 0
3, 7680, Note_on_c, 1, 60, 0
3, 7680, Note_on_c, 1, 62, 112
3, 7680, Note_on_c, 1, 58, 112
3, 7680, Note_on_c, 1, 70, 112
3, 8040, Note_on_c, 1, 70, 0
3, 8040, Note_on_c, 1, 58, 0
3, 8040, Note_on_c, 1, 62, 0
3, 8040, Note_on_c, 1, 55, 106
3, 8040, Note_on_c, 1, 67, 106
3, 8160, Note_on_c, 1, 67, 0
3, 8160, Note_on_c, 1, 55, 0
3, 8160, Note_on_c, 1, 60, 100
3, 8160, Note_on_c, 1, 72, 100
3, 8400, Note_on_c, 1, 72, 0
3, 8400, Note_on_c, 1, 60, 0
3, 8400, Note_on_c, 1, 62, 100
3, 8400, Note_on_c, 1, 74, 100
3, 8640, Note_on_c, 1, 74, 0
3, 8640, Note_on_c, 1, 62, 0
3, 8640, Note_on_c, 1, 67, 114
3, 8640, Note_on_c, 1, 55, 114
3, 9000, Note_on_c, 1, 55, 0
3, 9000, Note_on_c, 1, 67, 0
3, 9000, Note_on_c, 1, 63, 42
3, 9000, Note_on_c, 1, 67, 42
3, 9000, Note_on_c, 1, 58, 42
3, 9000, Note_on_c, 1, 55, 42
3, 9120, Note_on_c, 1, 55, 0
3, 9120, Note_on_c, 1, 63, 0
3, 9120, Note_on_c, 1, 67, 0
3, 9120, Note_on_c, 1, 58, 0
3, 9120, Note_on_c, 1, 55, 42
3, 9120, Note_on_c, 1, 58, 42
3, 9120, Note_on_c, 1, 63, 42
3, 9120, Note_on_c, 1, 67, 42
3, 9180, Note_on_c, 1, 67, 0
3, 9180, Note_on_c, 1, 55, 0
3, 9180, Note_on_c, 1, 58, 0
3, 9180, Note_on_c, 1, 63, 0
3, 9240, Note_on_c, 1, 67, 42
3, 9240, Note_on_c, 1, 63, 42
3, 9240, Note_on_c, 1, 58, 42
3, 9240, Note_on_c, 1, 55, 42
3, 9300, Note_on_c, 1, 55, 0
3, 9300, Note_on_c, 1, 67, 0
3, 9300, Note_on_c, 1, 63, 0
3, 9300, Note_on_c, 1, 58, 0
3, 9360, Note_on_c, 1, 67, 42
3, 9360, Note_on_c, 1, 63, 42
3, 9360, Note_on_c, 1, 58, 42
3, 9360, Note_on_c, 1, 55, 42
3, 9420, Note_on_c, 1, 55, 0
3, 9420, Note_on_c, 1, 67, 0
3, 9420, Note_on_c, 1, 63, 0
3, 9420, Note_on_c, 1, 58, 0
3, 9480, Note_on_c, 1, 67, 43
3, 9480, Note_on_c, 1, 63, 43
3, 9480, Note_on_c, 1, 58, 43
3, 9480, Note_on_c, 1, 55, 43
3, 9540, Note_on_c, 1, 55, 0
3, 9540, Note_on_c, 1, 67, 0
3, 9540, Note_on_c, 1, 63, 0
3, 9540, Note_on_c, 1, 58, 0
3, 9600, Note_on_c, 1, 55, 43
3, 9600, Note_on_c, 1, 58, 43
3, 9600, Note_on_c, 1, 63, 43
3, 9600, Note_on_c, 1, 67, 43
3, 9720, Note_on_c, 1, 67, 0
3, 9720, Note_on_c, 1, 55, 0
3, 9720, Note_on_c, 1, 58, 0
3, 9720, Note_on_c, 1, 63, 0
3, 9720, Note_on_c, 1, 67, 46
3, 9720, Note_on_c, 1, 63, 46
3, 9720, Note_on_c, 1, 58, 46
3, 9720, Note_on_c, 1, 55, 46
3, 9840, Note_on_c, 1, 55, 0
3, 9840, Note_on_c, 1, 67, 0
3, 9840, Note_on_c, 1, 63, 0
3, 9840, Note_on_c, 1, 58, 0
3, 9840, Note_on_c, 1, 67, 46
3, 9840, Note_on_c, 1, 63, 46
3, 9840, Note_on_c, 1, 58, 46
3, 9840, Note_on_c, 1, 55, 46
3, 9960, Note_on_c, 1, 55, 0
3, 9960, Note_on_c, 1, 67, 0
3, 9960, Note_on_c, 1, 63, 0
3, 9960, Note_on_c, 1, 58, 0
3, 9960, Note_on_c, 1, 67, 46
3, 9960, Note_on_c, 1, 63, 46
3, 9960, Note_on_c, 1, 58, 46
3, 9960, Note_on_c, 1, 55, 46
3, 10080, Note_on_c, 1, 55, 0
3, 10080, Note_on_c, 1, 67, 0
3, 10080, Note_on_c, 1, 63, 0
3, 10080, Note_on_c, 1, 58, 0
3, 10080, Note_on_c, 1, 67, 46
3, 10080, Note_on_c, 1, 63, 46
3, 10080, Note_on_c, 1, 58, 46
3, 10080, Note_on_c, 1, 55, 46
3, 10200, Note_on_c, 1, 55, 0
3, 10200, Note_on_c, 1, 67, 0
3, 10200, Note_on_c, 1, 63, 0
3, 10200, Note_on_c, 1, 58, 0
3, 10200, Note_on_c, 1, 67, 46
3, 10200, Note_on_c, 1, 63, 46
3, 10200, Note_on_c, 1, 58, 46
3, 10200, Note_on_c, 1, 55, 46
3, 10320, Note_on_c, 1, 55, 0
3, 10320, Note_on_c, 1, 67, 0
3, 10320, Note_on_c, 1, 63, 0
3, 10320, Note_on_c, 1, 58, 0
3, 10320, Note_on_c, 1, 67, 46
3, 10320, Note_on_c, 1, 63, 46
3, 10320, Note_on_c, 1, 58, 46
3, 10320, Note_on_c, 1, 55, 46
3, 10440, Note_on_c, 1, 55, 0
3, 10440, Note_on_c, 1, 67, 0
3, 10440, Note_on_c, 1, 63, 0
3, 10440, Note_on_c, 1, 58, 0
3, 10440, Note_on_c, 1, 67, 46
3, 10440, Note_on_c, 1, 63, 46
3, 10440, Note_on_c, 1, 58, 46
3, 10440, Note_on_c, 1, 55, 46
3, 10560, Note_on_c, 1, 55, 0
3, 10560, Note_on_c, 1, 67, 0
3, 10560, Note_on_c, 1, 63, 0
3, 10560, Note_on_c, 1, 58, 0
3, 10560, Note_on_c, 1, 67, 46
3, 10560, Note_on_c, 1, 63, 46
3, 10560, Note_on_c, 1, 58, 46
3, 10560, Note_on_c, 1, 55, 46
3, 10680, Note_on_c, 1, 55, 0
3, 10680, Note_on_c, 1, 67, 0
3, 10680, Note_on_c, 1, 63, 0
3, 10680, Note_on_c, 1, 58, 0
3, 10680, Note_on_c, 1, 67, 46
3, 10680, Note_on_c, 1, 63, 46
3, 10680, Note_on_c, 1, 58, 46
3, 10680, Note_on_c, 1, 55, 46
3, 10800, Note_on_c, 1, 55, 0
3, 10800, Note_on_c, 1, 67, 0
3, 10800, Note_on_c, 1, 63, 0
3, 10800, Note_on_c, 1, 58, 0
3, 10800, Note_on_c, 1, 67, 46
3, 10800, Note_on_c, 1, 63, 46
3, 10800, Note_on_c, 1, 58, 46
3, 10800, Note_on_c, 1, 55, 46
3, 10920, Note_on_c, 1, 55, 0
3, 10920, Note_on_c, 1, 67, 0
3, 10920, Note_on_c, 1, 63, 0
3, 10920, Note_on_c, 1, 58, 0
3, 10920, Note_on_c, 1, 67, 46
3, 10920, Note_on_c, 1, 63, 46
3, 10920, Note_on_c, 1, 58, 46
3, 10920, Note_on_c, 1, 55, 46
3, 11040, Note_on_c, 1, 55, 0
3, 11040, Note_on_c, 1, 67, 0
3, 11040, Note_on_c, 1, 63, 0
3, 11040, Note_on_c, 1, 58, 0
3, 11040, Note_on_c, 1, 65, 46
3, 11040, Note_on_c, 1, 67, 46
3, 11040, Note_on_c, 1, 59, 46
3, 11040, Note_on_c, 1, 55, 46
3, 11160, Note_on_c, 1, 55, 0
3, 11160, Note_on_c, 1, 65, 0
3, 11160, Note_on_c, 1, 67, 0
3, 11160, Note_on_c, 1, 59, 0
3, 11160, Note_on_c, 1, 65, 46
3, 11160, Note_on_c, 1, 67, 46
3, 11160, Note_on_c, 1, 59, 46
3, 11160, Note_on_c, 1, 55, 46
3, 11280, Note_on_c, 1, 55, 0
3, 11280, Note_on_c, 1, 65, 0
3, 11280, Note_on_c, 1, 67, 0
3, 11280, Note_on_c, 1, 59, 0
3, 11280, Note_on_c, 1, 67, 48
3, 11280, Note_on_c, 1, 65, 48
3, 11280, Note_on_c, 1, 59, 48
3, 11280, Note_on_c, 1, 55, 48
3, 11400, Note_on_c, 1, 55, 0
3, 11400, Note_on_c, 1, 67, 0
3, 11400, Note_on_c, 1, 65, 0
3, 11400, Note_on_c, 1, 59, 0
3, 11400, Note_on_c, 1, 67, 48
3, 11400, Note_on_c, 1, 65, 48
3, 11400, Note_on_c, 1, 59, 48
3, 11400, Note_on_c, 1, 55, 48
3, 11520, Note_on_c, 1, 55, 0
3, 11520, Note_on_c, 1, 67, 0
3, 11520, Note_on_c, 1, 65, 0
3, 11520, Note_on_c, 1, 59, 0
3, 11520, Note_on_c, 1, 65, 49
3, 11520, Note_on_c, 1, 67, 49
3, 11520, Note_on_c, 1, 59, 49
3, 11520, Note_on_c, 1, 55, 49
3, 11640, Note_on_c, 1, 55, 0
3, 11640, Note_on_c, 1, 65, 0
3, 11640, Note_on_c, 1, 67, 0
3, 11640, Note_on_c, 1, 59, 0
3, 11640, Note_on_c, 1, 65, 50
3, 11640, Note_on_c, 1, 67, 50
3, 11640, Note_on_c, 1, 59, 50
3, 11640, Note_on_c, 1, 55, 50
3, 11760, Note_on_c, 1, 55, 0
3, 11760, Note_on_c, 1, 65, 0
3, 11760, Note_on_c, 1, 67, 0
3, 11760, Note_on_c, 1, 59, 0
3, 11760, Note_on_c, 1, 65, 51
3, 11760, Note_on_c, 1, 67, 51
3, 11760, Note_on_c, 1, 59, 51
3, 11760, Note_on_c, 1, 55, 51
3, 11880, Note_on_c, 1, 55, 0
3, 11880, Note_on_c, 1, 65, 0
3, 11880, Note_on_c, 1, 67, 0
3, 11880, Note_on_c, 1, 59, 0
3, 11880, Note_on_c, 1, 65, 52
3, 11880, Note_on_c, 1, 67, 52
3, 11880, Note_on_c, 1, 59, 52
3, 11880, Note_on_c, 1, 55, 52
3, 12000, Note_on_c, 1, 55, 0
3, 12000, Note_on_c, 1, 65, 0
3, 12000, Note_on_c, 1, 67, 0
3, 12000, Note_on_c, 1, 59, 0
3, 12000, Note_on_c, 1, 67, 51
3, 12000, Note_on_c, 1, 63, 51
3, 12000, Note_on_c, 1, 60, 51
3, 12000, Note_on_c, 1, 55, 51
3, 12120, Note_on_c, 1, 55, 0
3, 12120, Note_on_c, 1, 67, 0
3, 12120, Note_on_c, 1, 63, 0
3, 12120, Note_on_c, 1, 60, 0
3, 12120, Note_on_c, 1, 60, 51
3, 12120, Note_on_c, 1, 63, 51
3, 12120, Note_on_c, 1, 67, 51
3, 12120, Note_on_c, 1, 72, 51
3, 12240, Note_on_c, 1, 72, 0
3, 12240, Note_on_c, 1, 60, 0
3, 12240, Note_on_c, 1, 63, 0
3, 12240, Note_on_c, 1, 67, 0
3, 12240, Note_on_c, 1, 60, 54
3, 12240, Note_on_c, 1, 63, 54
3, 12240, Note_on_c, 1, 67, 54
3, 12240, Note_on_c, 1, 72, 54
3, 12360, Note_on_c, 1, 72, 0
3, 12360, Note_on_c, 1, 60, 0
3, 12360, Note_on_c, 1, 63, 0
3, 12360, Note_on_c, 1, 67, 0
3, 12360, Note_on_c, 1, 63, 62
3, 12360, Note_on_c, 1, 60, 62
3, 12360, Note_on_c, 1, 67, 62
3, 12360, Note_on_c, 1, 72, 62
3, 12480, Note_on_c, 1, 72, 0
3, 12480, Note_on_c, 1, 63, 0
3, 12480, Note_on_c, 1, 60, 0
3, 12480, Note_on_c, 1, 67, 0
3, 12480, Note_on_c, 1, 72, 69
3, 12480, Note_on_c, 1, 66, 69
3, 12480, Note_on_c, 1, 60, 69
3, 12600, Note_on_c, 1, 60, 0
3, 12600, Note_on_c, 1, 66, 0
3, 12600, Note_on_c, 1, 72, 0
3, 12600, Note_on_c, 1, 72, 73
3, 12600, Note_on_c, 1, 66, 73
3, 12600, Note_on_c, 1, 60, 73
3, 12720, Note_on_c, 1, 60, 0
3, 12720, Note_on_c, 1, 66, 0
3, 12720, Note_on_c, 1, 72, 0
3, 12720, Note_on_c, 1, 72, 78
3, 12720, Note_on_c, 1, 66, 78
3, 12720, Note_on_c, 1, 60, 78
3, 12840, Note_on_c, 1, 60, 0
3, 12840, Note_on_c, 1, 66, 0
3, 12840, Note_on_c, 1, 72, 0
3, 12840, Note_on_c, 1, 72, 83
3, 12840, Note_on_c, 1, 66, 83
3, 12840, Note_on_c, 1, 60, 83
3, 12960, Note_on_c, 1, 60, 0
3, 12960, Note_on_c, 1, 66, 0
3, 12960, Note_on_c, 1, 72, 0
3, 12960, Note_on_c, 1, 62, 49
3, 12960, Note_on_c, 1, 67, 49
3, 12960, Note_on_c, 1, 71, 49
3, 13080, Note_on_c, 1, 71, 0
3, 13080, Note_on_c, 1, 67, 0
3, 13080, Note_on_c, 1, 62, 0
3, 13080, Note_on_c, 1, 67, 49
3, 13080, Note_on_c, 1, 55, 49
3, 13200, Note_on_c, 1, 55, 0
3, 13200, Note_on_c, 1, 67, 0
3, 13200, Note_on_c, 1, 67, 49
3, 13200, Note_on_c, 1, 55, 49
3, 13320, Note_on_c, 1, 55, 0
3, 13320, Note_on_c, 1, 67, 0
3, 13320, Note_on_c, 1, 67, 50
3, 13320, Note_on_c, 1, 55, 50
3, 13440, Note_on_c, 1, 55, 0
3, 13440, Note_on_c, 1, 67, 0
3, 13440, Note_on_c, 1, 59, 60
3, 13440, Note_on_c, 1, 62, 60
3, 13440, Note_on_c, 1, 65, 60
3, 13440, Note_on_c, 1, 67, 60
3, 13560, Note_on_c, 1, 67, 0
3, 13560, Note_on_c, 1, 59, 0
3, 13560, Note_on_c, 1, 62, 0
3, 13560, Note_on_c, 1, 65, 0
3, 13560, Note_on_c, 1, 59, 71
3, 13560, Note_on_c, 1, 62, 71
3, 13560, Note_on_c, 1, 65, 71
3, 13560, Note_on_c, 1, 67, 71
3, 13680, Note_on_c, 1, 67, 0
3, 13680, Note_on_c, 1, 59, 0
3, 13680, Note_on_c, 1, 62, 0
3, 13680, Note_on_c, 1, 65, 0
3, 13680, Note_on_c, 1, 59, 81
3, 13680, Note_on_c, 1, 62, 81
3, 13680, Note_on_c, 1, 65, 81
3, 13680, Note_on_c, 1, 67, 81
3, 13800, Note_on_c, 1, 67, 0
3, 13800, Note_on_c, 1, 59, 0
3, 13800, Note_on_c, 1, 62, 0
3, 13800, Note_on_c, 1, 65, 0
3, 13800, Note_on_c, 1, 59, 87
3, 13800, Note_on_c, 1, 62, 87
3, 13800, Note_on_c, 1, 65, 87
3, 13800, Note_on_c, 1, 67, 87
3, 13920, Note_on_c, 1, 67, 0
3, 13920, Note_on_c, 1, 59, 0
3, 13920, Note_on_c, 1, 62, 0
3, 13920, Note_on_c, 1, 65, 0
3, 13920, Note_on_c, 1, 72, 96
3, 13920, Note_on_c, 1, 60, 96
3, 14160, Note_on_c, 1, 60, 0
3, 14160, Note_on_c, 1, 72, 0
3, 14160, Note_on_c, 1, 67, 100
3, 14400, Note_on_c, 1, 67, 0
3, 14400, Note_on_c, 1, 64, 100
3, 14640, Note_on_c, 1, 64, 0
3, 14640, Note_on_c, 1, 60, 100
3, 14760, Note_on_c, 1, 60, 0
3, 14760, Note_on_c, 1, 67, 100
3, 14760, Note_on_c, 1, 76, 100
3, 14880, Note_on_c, 1, 76, 0
3, 14880, Note_on_c, 1, 67, 0
3, 14880, Note_on_c, 1, 76, 99
3, 14880, Note_on_c, 1, 67, 99
3, 15120, Note_on_c, 1, 67, 0
3, 15120, Note_on_c, 1, 76, 0
3, 15120, Note_on_c, 1, 74, 79
3, 15120, Note_on_c, 1, 65, 79
3, 15240, Note_on_c, 1, 65, 0
3, 15240, Note_on_c, 1, 74, 0
3, 15240, Note_on_c, 1, 72, 68
3, 15240, Note_on_c, 1, 64, 68
3, 15360, Note_on_c, 1, 64, 0
3, 15360, Note_on_c, 1, 72, 0
3, 15360, Note_on_c, 1, 64, 60
3, 15360, Note_on_c, 1, 72, 60
3, 15600, Note_on_c, 1, 72, 0
3, 15600, Note_on_c, 1, 64, 0
3, 15600, Note_on_c, 1, 62, 60
3, 15600, Note_on_c, 1, 71, 60
3, 15720, Note_on_c, 1, 71, 0
3, 15720, Note_on_c, 1, 62, 0
3, 15720, Note_on_c, 1, 67, 103
3, 15840, Note_on_c, 1, 67, 0
3, 15840, Note_on_c, 1, 77, 100
3, 15840, Note_on_c, 1, 65, 100
3, 16080, Note_on_c, 1, 65, 0
3, 16080, Note_on_c, 1, 77, 0
3, 16080, Note_on_c, 1, 74, 100
3, 16080, Note_on_c, 1, 62, 100
3, 16320, Note_on_c, 1, 62, 0
3, 16320, Note_on_c, 1, 74, 0
3, 16320, Note_on_c, 1, 71, 100
3, 16320, Note_on_c, 1, 59, 100
3, 16680, Note_on_c, 1, 59, 0
3, 16680, Note_on_c, 1, 71, 0
3, 16680, Note_on_c, 1, 67, 100
3, 16680, Note_on_c, 1, 55, 100
3, 16800, Note_on_c, 1, 55, 0
3, 16800, Note_on_c, 1, 67, 0
3, 16800, Note_on_c, 1, 57, 100
3, 16800, Note_on_c, 1, 60, 100
3, 16800, Note_on_c, 1, 72, 100
3, 17040, Note_on_c, 1, 72, 0
3, 17040, Note_on_c, 1, 60, 0
3, 17040, Note_on_c, 1, 57, 0
3, 17040, Note_on_c, 1, 62, 100
3, 17040, Note_on_c, 1, 67, 100
3, 17040, Note_on_c, 1, 71, 100
3, 17040, Note_on_c, 1, 74, 100
3, 17280, Note_on_c, 1, 74, 0
3, 17280, Note_on_c, 1, 62, 0
3, 17280, Note_on_c, 1, 67, 0
3, 17280, Note_on_c, 1, 71, 0
3, 17280, Note_on_c, 1, 64, 119
3, 17280, Note_on_c, 1, 67, 119
3, 17280, Note_on_c, 1, 72, 119
3, 17280, Note_on_c, 1, 76, 119
3, 17640, Note_on_c, 1, 76, 0
3, 17640, Note_on_c, 1, 64, 0
3, 17640, Note_on_c, 1, 67, 0
3, 17640, Note_on_c, 1, 72, 0
3, 17640, Note_on_c, 1, 76, 119
3, 17640, Note_on_c, 1, 72, 119
3, 17640, Note_on_c, 1, 67, 119
3, 17640, Note_on_c, 1, 64, 119
3, 17760, Note_on_c, 1, 64, 0
3, 17760, Note_on_c, 1, 76, 0
3, 17760, Note_on_c, 1, 72, 0
3, 17760, Note_on_c, 1, 67, 0
3, 17760, Note_on_c, 1, 64, 119
3, 17760, Note_on_c, 1, 69, 119
3, 17760, Note_on_c, 1, 73, 119
3, 17760, Note_on_c, 1, 76, 119
3, 18120, Note_on_c, 1, 76, 0
3, 18120, Note_on_c, 1, 64, 0
3, 18120, Note_on_c, 1, 69, 0
3, 18120, Note_on_c, 1, 73, 0
3, 18120, Note_on_c, 1, 64, 119
3, 18120, Note_on_c, 1, 69, 119
3, 18120, Note_on_c, 1, 73, 119
3, 18120, Note_on_c, 1, 76, 119
3, 18240, Note_on_c, 1, 76, 0
3, 18240, Note_on_c, 1, 64, 0
3, 18240, Note_on_c, 1, 69, 0
3, 18240, Note_on_c, 1, 73, 0
3, 18240, Note_on_c, 1, 65, 119
3, 18240, Note_on_c, 1, 69, 119
3, 18240, Note_on_c, 1, 74, 119
3, 18240, Note_on_c, 1, 77, 119
3, 18600, Note_on_c, 1, 77, 0
3, 18600, Note_on_c, 1, 65, 0
3, 18600, Note_on_c, 1, 69, 0
3, 18600, Note_on_c, 1, 74, 0
3, 18600, Note_on_c, 1, 69, 119
3, 18600, Note_on_c, 1, 74, 119
3, 18600, Note_on_c, 1, 62, 119
3, 18720, Note_on_c, 1, 62, 0
3, 18720, Note_on_c, 1, 74, 0
3, 18720, Note_on_c, 1, 69, 0
3, 18720, Note_on_c, 1, 79, 119
3, 18720, Note_on_c, 1, 76, 119
3, 18720, Note_on_c, 1, 72, 119
3, 18720, Note_on_c, 1, 67, 119
3, 18960, Note_on_c, 1, 67, 0
3, 18960, Note_on_c, 1, 79, 0
3, 18960, Note_on_c, 1, 76, 0
3, 18960, Note_on_c, 1, 72, 0
3, 18960, Note_on_c, 1, 59, 119
3, 18960, Note_on_c, 1, 62, 119
3, 18960, Note_on_c, 1, 67, 119
3, 18960, Note_on_c, 1, 71, 119
3, 19200, Note_on_c, 1, 71, 0
3, 19200, Note_on_c, 1, 59, 0
3, 19200, Note_on_c, 1, 62, 0
3, 19200, Note_on_c, 1, 67, 0
3, 19200, Note_on_c, 1, 60, 121
3, 19200, Note_on_c, 1, 64, 121
3, 19200, Note_on_c, 1, 67, 121
3, 19200, Note_on_c, 1, 72, 121
3, 19560, Note_on_c, 1, 72, 0
3, 19560, Note_on_c, 1, 60, 0
3, 19560, Note_on_c, 1, 64, 0
3, 19560, Note_on_c, 1, 67, 0
3, 19560, Note_on_c, 1, 76, 127
3, 19560, Note_on_c, 1, 79, 127
3, 19560, Note_on_c, 1, 84, 127
3, 19680, Note_on_c, 1, 84, 0
3, 19680, Note_on_c, 1, 79, 0
3, 19680, Note_on_c, 1, 76, 0
3, 19680, Note_on_c, 1, 84, 127
3, 19680, Note_on_c, 1, 79, 127
3, 19680, Note_on_c, 1, 76, 127
3, 20040, Note_on_c, 1, 76, 0
3, 20040, Note_on_c, 1, 79, 0
3, 20040, Note_on_c, 1, 84, 0
3, 20040, End_track
4, 0, Start_track
4, 0, MIDI_port, 0
4, 0, Title_t, "Piano Left"
4, 0, Program_c, 2, 0
4, 0, Control_c, 2, 7, 104
4, 0, Control_c, 2, 10, 94
4, 360, Control_c, 2, 93, 12
4, 360, Control_c, 2, 91, 14
4, 360, Note_on_c, 2, 48, 125
4, 360, Note_on_c, 2, 43, 125
4, 360, Note_on_c, 2, 40, 125
4, 360, Note_on_c, 2, 36, 125
4, 480, Note_on_c, 2, 36, 0
4, 480, Note_on_c, 2, 48, 0
4, 480, Note_on_c, 2, 43, 0
4, 480, Note_on_c, 2, 40, 0
4, 480, Note_on_c, 2, 48, 126
4, 480, Note_on_c, 2, 40, 126
4, 480, Note_on_c, 2, 36, 126
4, 480, Note_on_c, 2, 43, 126
4, 840, Note_on_c, 2, 43, 0
4, 840, Note_on_c, 2, 48, 0
4, 840, Note_on_c, 2, 40, 0
4, 840, Note_on_c, 2, 36, 0
4, 840, Note_on_c, 2, 55, 100
4, 840, Note_on_c, 2, 52, 100
4, 840, Note_on_c, 2, 48, 100
4, 840, Note_on_c, 2, 43, 100
4, 840, Note_on_c, 2, 40, 100
4, 840, Note_on_c, 2, 36, 100
4, 960, Note_on_c, 2, 36, 0
4, 960, Note_on_c, 2, 52, 0
4, 960, Note_on_c, 2, 48, 0
4, 960, Note_on_c, 2, 55, 0
4, 960, Note_on_c, 2, 40, 0
4, 960, Note_on_c, 2, 43, 0
4, 960, Note_on_c, 2, 55, 100
4, 960, Note_on_c, 2, 52, 100
4, 960, Note_on_c, 2, 48, 100
4, 960, Note_on_c, 2, 43, 100
4, 960, Note_on_c, 2, 40, 100
4, 960, Note_on_c, 2, 36, 100
4, 1320, Note_on_c, 2, 36, 0
4, 1320, Note_on_c, 2, 52, 0
4, 1320, Note_on_c, 2, 48, 0
4, 1320, Note_on_c, 2, 55, 0
4, 1320, Note_on_c, 2, 40, 0
4, 1320, Note_on_c, 2, 43, 0
4, 1320, Note_on_c, 2, 43, 100
4, 1440, Note_on_c, 2, 43, 0
4, 1440, Note_on_c, 2, 48, 100
4, 1680, Note_on_c, 2, 48, 0
4, 1680, Note_on_c, 2, 55, 100
4, 1680, Note_on_c, 2, 43, 100
4, 1920, Note_on_c, 2, 43, 0
4, 1920, Note_on_c, 2, 55, 0
4, 1920, Note_on_c, 2, 52, 100
4, 1920, Note_on_c, 2, 40, 100
4, 2160, Note_on_c, 2, 40, 0
4, 2160, Note_on_c, 2, 52, 0
4, 2160, Note_on_c, 2, 48, 100
4, 2160, Note_on_c, 2, 36, 100
4, 2280, Note_on_c, 2, 36, 0
4, 2280, Note_on_c, 2, 48, 0
4, 2280, Note_on_c, 2, 55, 100
4, 2280, Note_on_c, 2, 48, 100
4, 2400, Note_on_c, 2, 48, 0
4, 2400, Note_on_c, 2, 55, 0
4, 2400, Note_on_c, 2, 55, 100
4, 2400, Note_on_c, 2, 48, 100
4, 2640, Note_on_c, 2, 48, 0
4, 2640, Note_on_c, 2, 55, 0
4, 2640, Note_on_c, 2, 55, 95
4, 2640, Note_on_c, 2, 47, 95
4, 2760, Note_on_c, 2, 47, 0
4, 2760, Note_on_c, 2, 55, 0
4, 2760, Note_on_c, 2, 48, 78
4, 2760, Note_on_c, 2, 55, 78
4, 2880, Note_on_c, 2, 55, 0
4, 2880, Note_on_c, 2, 48, 0
4, 2880, Note_on_c, 2, 55, 60
4, 2880, Note_on_c, 2, 43, 60
4, 3120, Note_on_c, 2, 43, 0
4, 3120, Note_on_c, 2, 55, 0
4, 3120, Note_on_c, 2, 43, 49
4, 3120, Note_on_c, 2, 35, 49
4, 3240, Note_on_c, 2, 35, 0
4, 3240, Note_on_c, 2, 43, 0
4, 3240, Note_on_c, 2, 55, 99
4, 3240, Note_on_c, 2, 43, 99
4, 3360, Note_on_c, 2, 43, 0
4, 3360, Note_on_c, 2, 55, 0
4, 3360, Note_on_c, 2, 53, 100
4, 3360, Note_on_c, 2, 41, 100
4, 3600, Note_on_c, 2, 41, 0
4, 3600, Note_on_c, 2, 53, 0
4, 3600, Note_on_c, 2, 50, 100
4, 3600, Note_on_c, 2, 38, 100
4, 3840, Note_on_c, 2, 38, 0
4, 3840, Note_on_c, 2, 50, 0
4, 3840, Note_on_c, 2, 47, 100
4, 3840, Note_on_c, 2, 35, 100
4, 4080, Note_on_c, 2, 35, 0
4, 4080, Note_on_c, 2, 47, 0
4, 4080, Note_on_c, 2, 43, 100
4, 4080, Note_on_c, 2, 35, 100
4, 4320, Note_on_c, 2, 35, 0
4, 4320, Note_on_c, 2, 43, 0
4, 4320, Note_on_c, 2, 44, 100
4, 4320, Note_on_c, 2, 32, 100
4, 4560, Note_on_c, 2, 32, 0
4, 4560, Note_on_c, 2, 44, 0
4, 4560, Note_on_c, 2, 43, 100
4, 4560, Note_on_c, 2, 35, 100
4, 4800, Note_on_c, 2, 35, 0
4, 4800, Note_on_c, 2, 43, 0
4, 4800, Note_on_c, 2, 48, 100
4, 4800, Note_on_c, 2, 36, 100
4, 5160, Note_on_c, 2, 36, 0
4, 5160, Note_on_c, 2, 48, 0
4, 5160, Note_on_c, 2, 52, 44
4, 5280, Note_on_c, 2, 52, 0
4, 5280, Note_on_c, 2, 52, 45
4, 5280, Note_on_c, 2, 40, 45
4, 5640, Note_on_c, 2, 40, 0
4, 5640, Note_on_c, 2, 52, 0
4, 5640, Note_on_c, 2, 52, 48
4, 5640, Note_on_c, 2, 40, 48
4, 5760, Note_on_c, 2, 40, 0
4, 5760, Note_on_c, 2, 52, 0
4, 5760, Note_on_c, 2, 52, 48
4, 5760, Note_on_c, 2, 45, 48
4, 6000, Note_on_c, 2, 45, 0
4, 6000, Note_on_c, 2, 52, 0
4, 6000, Note_on_c, 2, 52, 49
4, 6000, Note_on_c, 2, 45, 49
4, 6120, Note_on_c, 2, 45, 0
4, 6120, Note_on_c, 2, 52, 0
4, 6120, Note_on_c, 2, 52, 50
4, 6120, Note_on_c, 2, 45, 50
4, 6240, Note_on_c, 2, 45, 0
4, 6240, Note_on_c, 2, 52, 0
4, 6240, Note_on_c, 2, 41, 50
4, 6240, Note_on_c, 2, 53, 50
4, 6360, Note_on_c, 2, 53, 0
4, 6360, Note_on_c, 2, 41, 0
4, 6360, Note_on_c, 2, 41, 50
4, 6360, Note_on_c, 2, 53, 50
4, 6480, Note_on_c, 2, 53, 0
4, 6480, Note_on_c, 2, 41, 0
4, 6480, Note_on_c, 2, 53, 50
4, 6480, Note_on_c, 2, 41, 50
4, 6600, Note_on_c, 2, 41, 0
4, 6600, Note_on_c, 2, 53, 0
4, 6600, Note_on_c, 2, 41, 48
4, 6600, Note_on_c, 2, 53, 48
4, 6720, Note_on_c, 2, 53, 0
4, 6720, Note_on_c, 2, 41, 0
4, 6720, Note_on_c, 2, 46, 47
4, 6720, Note_on_c, 2, 53, 47
4, 6840, Note_on_c, 2, 53, 0
4, 6840, Note_on_c, 2, 46, 0
4, 6840, Note_on_c, 2, 46, 45
4, 6840, Note_on_c, 2, 53, 45
4, 6960, Note_on_c, 2, 53, 0
4, 6960, Note_on_c, 2, 46, 0
4, 6960, Note_on_c, 2, 46, 45
4, 6960, Note_on_c, 2, 53, 45
4, 7080, Note_on_c, 2, 53, 0
4, 7080, Note_on_c, 2, 46, 0
4, 7080, Note_on_c, 2, 46, 45
4, 7080, Note_on_c, 2, 34, 45
4, 7200, Note_on_c, 2, 34, 0
4, 7200, Note_on_c, 2, 46, 0
4, 7200, Note_on_c, 2, 45, 98
4, 7200, Note_on_c, 2, 33, 98
4, 7440, Note_on_c, 2, 33, 0
4, 7440, Note_on_c, 2, 45, 0
4, 7440, Note_on_c, 2, 42, 98
4, 7680, Note_on_c, 2, 42, 0
4, 7680, Note_on_c, 2, 43, 97
4, 8040, Note_on_c, 2, 43, 0
4, 8040, Note_on_c, 2, 51, 100
4, 8040, Note_on_c, 2, 39, 100
4, 8160, Note_on_c, 2, 39, 0
4, 8160, Note_on_c, 2, 51, 0
4, 8160, Note_on_c, 2, 48, 100
4, 8160, Note_on_c, 2, 36, 100
4, 8400, Note_on_c, 2, 36, 0
4, 8400, Note_on_c, 2, 48, 0
4, 8400, Note_on_c, 2, 50, 100
4, 8400, Note_on_c, 2, 38, 100
4, 8640, Note_on_c, 2, 38, 0
4, 8640, Note_on_c, 2, 50, 0
4, 8640, Note_on_c, 2, 43, 100
4, 9000, Note_on_c, 2, 43, 0
4, 9000, Note_on_c, 2, 46, 40
4, 9000, Note_on_c, 2, 51, 40
4, 9000, Note_on_c, 2, 39, 40
4, 9120, Note_on_c, 2, 39, 0
4, 9120, Note_on_c, 2, 51, 0
4, 9120, Note_on_c, 2, 46, 0
4, 9120, Note_on_c, 2, 39, 41
4, 9120, Note_on_c, 2, 46, 41
4, 9120, Note_on_c, 2, 51, 41
4, 9240, Note_on_c, 2, 51, 0
4, 9240, Note_on_c, 2, 46, 0
4, 9240, Note_on_c, 2, 39, 0
4, 9240, Note_on_c, 2, 39, 41
4, 9240, Note_on_c, 2, 46, 41
4, 9240, Note_on_c, 2, 51, 41
4, 9360, Note_on_c, 2, 51, 0
4, 9360, Note_on_c, 2, 46, 0
4, 9360, Note_on_c, 2, 39, 0
4, 9360, Note_on_c, 2, 46, 41
4, 9360, Note_on_c, 2, 39, 41
4, 9360, Note_on_c, 2, 51, 41
4, 9480, Note_on_c, 2, 51, 0
4, 9480, Note_on_c, 2, 39, 0
4, 9480, Note_on_c, 2, 46, 0
4, 9480, Note_on_c, 2, 51, 41
4, 9480, Note_on_c, 2, 46, 41
4, 9480, Note_on_c, 2, 39, 41
4, 9600, Note_on_c, 2, 39, 0
4, 9600, Note_on_c, 2, 46, 0
4, 9600, Note_on_c, 2, 51, 0
4, 9600, Note_on_c, 2, 51, 41
4, 9600, Note_on_c, 2, 46, 41
4, 9600, Note_on_c, 2, 39, 41
4, 9720, Note_on_c, 2, 39, 0
4, 9720, Note_on_c, 2, 46, 0
4, 9720, Note_on_c, 2, 51, 0
4, 9720, Note_on_c, 2, 51, 41
4, 9720, Note_on_c, 2, 46, 41
4, 9720, Note_on_c, 2, 39, 41
4, 9840, Note_on_c, 2, 39, 0
4, 9840, Note_on_c, 2, 46, 0
4, 9840, Note_on_c, 2, 51, 0
4, 9840, Note_on_c, 2, 51, 41
4, 9840, Note_on_c, 2, 46, 41
4, 9840, Note_on_c, 2, 39, 41
4, 9960, Note_on_c, 2, 39, 0
4, 9960, Note_on_c, 2, 46, 0
4, 9960, Note_on_c, 2, 51, 0
4, 9960, Note_on_c, 2, 51, 40
4, 9960, Note_on_c, 2, 46, 40
4, 9960, Note_on_c, 2, 39, 40
4, 10080, Note_on_c, 2, 39, 0
4, 10080, Note_on_c, 2, 46, 0
4, 10080, Note_on_c, 2, 51, 0
4, 10080, Note_on_c, 2, 51, 39
4, 10080, Note_on_c, 2, 46, 39
4, 10080, Note_on_c, 2, 39, 39
4, 10200, Note_on_c, 2, 39, 0
4, 10200, Note_on_c, 2, 46, 0
4, 10200, Note_on_c, 2, 51, 0
4, 10200, Note_on_c, 2, 51, 39
4, 10200, Note_on_c, 2, 46, 39
4, 10200, Note_on_c, 2, 39, 39
4, 10320, Note_on_c, 2, 39, 0
4, 10320, Note_on_c, 2, 46, 0
4, 10320, Note_on_c, 2, 51, 0
4, 10320, Note_on_c, 2, 51, 39
4, 10320, Note_on_c, 2, 46, 39
4, 10320, Note_on_c, 2, 39, 39
4, 10440, Note_on_c, 2, 39, 0
4, 10440, Note_on_c, 2, 46, 0
4, 10440, Note_on_c, 2, 51, 0
4, 10440, Note_on_c, 2, 51, 39
4, 10440, Note_on_c, 2, 46, 39
4, 10440, Note_on_c, 2, 39, 39
4, 10560, Note_on_c, 2, 39, 0
4, 10560, Note_on_c, 2, 46, 0
4, 10560, Note_on_c, 2, 51, 0
4, 10560, Note_on_c, 2, 51, 39
4, 10560, Note_on_c, 2, 46, 39
4, 10560, Note_on_c, 2, 39, 39
4, 10680, Note_on_c, 2, 39, 0
4, 10680, Note_on_c, 2, 46, 0
4, 10680, Note_on_c, 2, 51, 0
4, 10680, Note_on_c, 2, 51, 39
4, 10680, Note_on_c, 2, 39, 39
4, 10680, Note_on_c, 2, 46, 39
4, 10800, Note_on_c, 2, 46, 0
4, 10800, Note_on_c, 2, 39, 0
4, 10800, Note_on_c, 2, 51, 0
4, 10800, Note_on_c, 2, 51, 39
4, 10800, Note_on_c, 2, 46, 39
4, 10800, Note_on_c, 2, 39, 39
4, 10920, Note_on_c, 2, 39, 0
4, 10920, Note_on_c, 2, 46, 0
4, 10920, Note_on_c, 2, 51, 0
4, 10920, Note_on_c, 2, 51, 39
4, 10920, Note_on_c, 2, 46, 39
4, 10920, Note_on_c, 2, 39, 39
4, 11040, Note_on_c, 2, 39, 0
4, 11040, Note_on_c, 2, 46, 0
4, 11040, Note_on_c, 2, 51, 0
4, 11040, Note_on_c, 2, 50, 39
4, 11040, Note_on_c, 2, 43, 39
4, 11040, Note_on_c, 2, 38, 39
4, 11160, Note_on_c, 2, 38, 0
4, 11160, Note_on_c, 2, 43, 0
4, 11160, Note_on_c, 2, 50, 0
4, 11160, Note_on_c, 2, 50, 39
4, 11160, Note_on_c, 2, 43, 39
4, 11160, Note_on_c, 2, 38, 39
4, 11280, Note_on_c, 2, 38, 0
4, 11280, Note_on_c, 2, 43, 0
4, 11280, Note_on_c, 2, 50, 0
4, 11280, Note_on_c, 2, 50, 39
4, 11280, Note_on_c, 2, 43, 39
4, 11280, Note_on_c, 2, 38, 39
4, 11400, Note_on_c, 2, 38, 0
4, 11400, Note_on_c, 2, 43, 0
4, 11400, Note_on_c, 2, 50, 0
4, 11400, Note_on_c, 2, 50, 39
4, 11400, Note_on_c, 2, 43, 39
4, 11400, Note_on_c, 2, 38, 39
4, 11520, Note_on_c, 2, 38, 0
4, 11520, Note_on_c, 2, 43, 0
4, 11520, Note_on_c, 2, 50, 0
4, 11520, Note_on_c, 2, 50, 39
4, 11520, Note_on_c, 2, 43, 39
4, 11520, Note_on_c, 2, 38, 39
4, 11640, Note_on_c, 2, 38, 0
4, 11640, Note_on_c, 2, 43, 0
4, 11640, Note_on_c, 2, 50, 0
4, 11640, Note_on_c, 2, 50, 39
4, 11640, Note_on_c, 2, 43, 39
4, 11640, Note_on_c, 2, 38, 39
4, 11760, Note_on_c, 2, 38, 0
4, 11760, Note_on_c, 2, 43, 0
4, 11760, Note_on_c, 2, 50, 0
4, 11760, Note_on_c, 2, 50, 39
4, 11760, Note_on_c, 2, 43, 39
4, 11760, Note_on_c, 2, 38, 39
4, 11880, Note_on_c, 2, 38, 0
4, 11880, Note_on_c, 2, 43, 0
4, 11880, Note_on_c, 2, 50, 0
4, 11880, Note_on_c, 2, 50, 39
4, 11880, Note_on_c, 2, 43, 39
4, 11880, Note_on_c, 2, 38, 39
4, 12000, Note_on_c, 2, 38, 0
4, 12000, Note_on_c, 2, 43, 0
4, 12000, Note_on_c, 2, 50, 0
4, 12000, Note_on_c, 2, 36, 41
4, 12000, Note_on_c, 2, 48, 41
4, 12120, Note_on_c, 2, 48, 0
4, 12120, Note_on_c, 2, 36, 0
4, 12120, Note_on_c, 2, 48, 49
4, 12120, Note_on_c, 2, 36, 49
4, 12240, Note_on_c, 2, 36, 0
4, 12240, Note_on_c, 2, 48, 0
4, 12240, Note_on_c, 2, 48, 54
4, 12240, Note_on_c, 2, 36, 54
4, 12360, Note_on_c, 2, 36, 0
4, 12360, Note_on_c, 2, 48, 0
4, 12360, Note_on_c, 2, 48, 62
4, 12360, Note_on_c, 2, 36, 62
4, 12480, Note_on_c, 2, 36, 0
4, 12480, Note_on_c, 2, 48, 0
4, 12480, Note_on_c, 2, 44, 71
4, 12600, Note_on_c, 2, 44, 0
4, 12600, Note_on_c, 2, 44, 72
4, 12720, Note_on_c, 2, 44, 0
4, 12720, Note_on_c, 2, 44, 75
4, 12840, Note_on_c, 2, 44, 0
4, 12840, Note_on_c, 2, 44, 77
4, 12960, Note_on_c, 2, 44, 0
4, 12960, Note_on_c, 2, 43, 79
4, 13080, Note_on_c, 2, 43, 0
4, 13080, Note_on_c, 2, 43, 40
4, 13200, Note_on_c, 2, 43, 0
4, 13200, Note_on_c, 2, 43, 41
4, 13320, Note_on_c, 2, 43, 0
4, 13320, Note_on_c, 2, 43, 41
4, 13440, Note_on_c, 2, 43, 0
4, 13440, Note_on_c, 2, 43, 42
4, 13440, Note_on_c, 2, 47, 42
4, 13440, Note_on_c, 2, 50, 42
4, 13440, Note_on_c, 2, 53, 42
4, 13560, Note_on_c, 2, 53, 0
4, 13560, Note_on_c, 2, 43, 0
4, 13560, Note_on_c, 2, 47, 0
4, 13560, Note_on_c, 2, 50, 0
4, 13560, Note_on_c, 2, 53, 52
4, 13560, Note_on_c, 2, 50, 52
4, 13560, Note_on_c, 2, 47, 52
4, 13560, Note_on_c, 2, 43, 52
4, 13680, Note_on_c, 2, 43, 0
4, 13680, Note_on_c, 2, 53, 0
4, 13680, Note_on_c, 2, 50, 0
4, 13680, Note_on_c, 2, 47, 0
4, 13680, Note_on_c, 2, 43, 64
4, 13680, Note_on_c, 2, 47, 64
4, 13680, Note_on_c, 2, 50, 64
4, 13680, Note_on_c, 2, 53, 64
4, 13800, Note_on_c, 2, 53, 0
4, 13800, Note_on_c, 2, 43, 0
4, 13800, Note_on_c, 2, 47, 0
4, 13800, Note_on_c, 2, 50, 0
4, 13800, Note_on_c, 2, 53, 73
4, 13800, Note_on_c, 2, 50, 73
4, 13800, Note_on_c, 2, 47, 73
4, 13800, Note_on_c, 2, 43, 73
4, 13920, Note_on_c, 2, 43, 0
4, 13920, Note_on_c, 2, 53, 0
4, 13920, Note_on_c, 2, 50, 0
4, 13920, Note_on_c, 2, 47, 0
4, 13920, Note_on_c, 2, 48, 88
4, 13920, Note_on_c, 2, 36, 88
4, 14160, Note_on_c, 2, 36, 0
4, 14160, Note_on_c, 2, 48, 0
4, 14160, Note_on_c, 2, 55, 100
4, 14160, Note_on_c, 2, 43, 100
4, 14400, Note_on_c, 2, 43, 0
4, 14400, Note_on_c, 2, 55, 0
4, 14400, Note_on_c, 2, 52, 100
4, 14400, Note_on_c, 2, 40, 100
4, 14640, Note_on_c, 2, 40, 0
4, 14640, Note_on_c, 2, 52, 0
4, 14640, Note_on_c, 2, 48, 100
4, 14640, Note_on_c, 2, 36, 100
4, 14760, Note_on_c, 2, 36, 0
4, 14760, Note_on_c, 2, 48, 0
4, 14760, Note_on_c, 2, 55, 100
4, 14760, Note_on_c, 2, 48, 100
4, 14880, Note_on_c, 2, 48, 0
4, 14880, Note_on_c, 2, 55, 0
4, 14880, Note_on_c, 2, 55, 100
4, 14880, Note_on_c, 2, 48, 100
4, 15120, Note_on_c, 2, 48, 0
4, 15120, Note_on_c, 2, 55, 0
4, 15120, Note_on_c, 2, 55, 94
4, 15120, Note_on_c, 2, 47, 94
4, 15240, Note_on_c, 2, 47, 0
4, 15240, Note_on_c, 2, 55, 0
4, 15240, Note_on_c, 2, 55, 70
4, 15240, Note_on_c, 2, 48, 70
4, 15360, Note_on_c, 2, 48, 0
4, 15360, Note_on_c, 2, 55, 0
4, 15360, Note_on_c, 2, 43, 60
4, 15360, Note_on_c, 2, 55, 60
4, 15600, Note_on_c, 2, 55, 0
4, 15600, Note_on_c, 2, 43, 0
4, 15600, Note_on_c, 2, 43, 60
4, 15600, Note_on_c, 2, 55, 60
4, 15720, Note_on_c, 2, 55, 0
4, 15720, Note_on_c, 2, 43, 0
4, 15720, Note_on_c, 2, 55, 107
4, 15720, Note_on_c, 2, 43, 107
4, 15840, Note_on_c, 2, 43, 0
4, 15840, Note_on_c, 2, 55, 0
4, 15840, Note_on_c, 2, 53, 100
4, 15840, Note_on_c, 2, 41, 100
4, 16080, Note_on_c, 2, 41, 0
4, 16080, Note_on_c, 2, 53, 0
4, 16080, Note_on_c, 2, 50, 100
4, 16080, Note_on_c, 2, 38, 100
4, 16320, Note_on_c, 2, 38, 0
4, 16320, Note_on_c, 2, 50, 0
4, 16320, Note_on_c, 2, 47, 100
4, 16320, Note_on_c, 2, 35, 100
4, 16680, Note_on_c, 2, 35, 0
4, 16680, Note_on_c, 2, 47, 0
4, 16680, Note_on_c, 2, 43, 100
4, 16680, Note_on_c, 2, 35, 100
4, 16800, Note_on_c, 2, 35, 0
4, 16800, Note_on_c, 2, 43, 0
4, 16800, Note_on_c, 2, 45, 100
4, 16800, Note_on_c, 2, 33, 100
4, 17040, Note_on_c, 2, 33, 0
4, 17040, Note_on_c, 2, 45, 0
4, 17040, Note_on_c, 2, 31, 100
4, 17040, Note_on_c, 2, 43, 100
4, 17280, Note_on_c, 2, 43, 0
4, 17280, Note_on_c, 2, 31, 0
4, 17280, Note_on_c, 2, 48, 100
4, 17280, Note_on_c, 2, 36, 100
4, 17640, Note_on_c, 2, 36, 0
4, 17640, Note_on_c, 2, 48, 0
4, 17640, Note_on_c, 2, 60, 100
4, 17640, Note_on_c, 2, 48, 100
4, 17760, Note_on_c, 2, 48, 0
4, 17760, Note_on_c, 2, 60, 0
4, 17760, Note_on_c, 2, 45, 110
4, 17760, Note_on_c, 2, 49, 110
4, 17760, Note_on_c, 2, 52, 110
4, 17760, Note_on_c, 2, 57, 110
4, 18120, Note_on_c, 2, 57, 0
4, 18120, Note_on_c, 2, 45, 0
4, 18120, Note_on_c, 2, 49, 0
4, 18120, Note_on_c, 2, 52, 0
4, 18120, Note_on_c, 2, 45, 110
4, 18120, Note_on_c, 2, 49, 110
4, 18120, Note_on_c, 2, 52, 110
4, 18120, Note_on_c, 2, 57, 110
4, 18240, Note_on_c, 2, 57, 0
4, 18240, Note_on_c, 2, 45, 0
4, 18240, Note_on_c, 2, 49, 0
4, 18240, Note_on_c, 2, 52, 0
4, 18240, Note_on_c, 2, 62, 112
4, 18240, Note_on_c, 2, 57, 112
4, 18240, Note_on_c, 2, 53, 112
4, 18240, Note_on_c, 2, 50, 112
4, 18600, Note_on_c, 2, 50, 0
4, 18600, Note_on_c, 2, 62, 0
4, 18600, Note_on_c, 2, 57, 0
4, 18600, Note_on_c, 2, 53, 0
4, 18600, Note_on_c, 2, 53, 115
4, 18600, Note_on_c, 2, 41, 115
4, 18720, Note_on_c, 2, 41, 0
4, 18720, Note_on_c, 2, 53, 0
4, 18720, Note_on_c, 2, 55, 115
4, 18720, Note_on_c, 2, 52, 115
4, 18720, Note_on_c, 2, 48, 115
4, 18720, Note_on_c, 2, 43, 115
4, 18960, Note_on_c, 2, 43, 0
4, 18960, Note_on_c, 2, 55, 0
4, 18960, Note_on_c, 2, 52, 0
4, 18960, Note_on_c, 2, 48, 0
4, 18960, Note_on_c, 2, 43, 115
4, 19200, Note_on_c, 2, 43, 0
4, 19200, Note_on_c, 2, 48, 115
4, 19200, Note_on_c, 2, 43, 115
4, 19200, Note_on_c, 2, 40, 115
4, 19200, Note_on_c, 2, 36, 115
4, 19560, Note_on_c, 2, 36, 0
4, 19560, Note_on_c, 2, 48, 0
4, 19560, Note_on_c, 2, 43, 0
4, 19560, Note_on_c, 2, 40, 0
4, 19560, Note_on_c, 2, 48, 117
4, 19560, Note_on_c, 2, 43, 117
4, 19560, Note_on_c, 2, 40, 117
4, 19560, Note_on_c, 2, 36, 117
4, 19680, Note_on_c, 2, 36, 0
4, 19680, Note_on_c, 2, 48, 0
4, 19680, Note_on_c, 2, 43, 0
4, 19680, Note_on_c, 2, 40, 0
4, 19680, Note_on_c, 2, 48, 120
4, 19680, Note_on_c, 2, 43, 120
4, 19680, Note_on_c, 2, 40, 120
4, 19680, Note_on_c, 2, 36, 120
4, 20040, Note_on_c, 2, 36, 0
4, 20040, Note_on_c, 2, 48, 0
4, 20040, Note_on_c, 2, 43, 0
4, 20040, Note_on_c, 2, 40, 0
4, 20040, Note_on_c, 2, 60, 124
4, 20040, Note_on_c, 2, 55, 124
4, 20040, Note_on_c, 2, 52, 124
4, 20040, Note_on_c, 2, 48, 124
4, 20040, Note_on_c, 2, 43, 124
4, 20040, Note_on_c, 2, 40, 124
4, 20040, Note_on_c, 2, 36, 124
4, 20160, Note_on_c, 2, 36, 0
4, 20160, Note_on_c, 2, 43, 0
4, 20160, Note_on_c, 2, 55, 0
4, 20160, Note_on_c, 2, 52, 0
4, 20160, Note_on_c, 2, 60, 0
4, 20160, Note_on_c, 2, 40, 0
4, 20160, Note_on_c, 2, 48, 0
4, 20160, Control_c, 2, 64, 127
4, 20160, Note_on_c, 2, 60, 124
4, 20160, Note_on_c, 2, 55, 124
4, 20160, Note_on_c, 2, 52, 124
4, 20160, Note_on_c, 2, 48, 124
4, 20160, Note_on_c, 2, 43, 124
4, 20160, Note_on_c, 2, 40, 124
4, 20160, Note_on_c, 2, 36, 124
4, 20520, Note_on_c, 2, 36, 0
4, 20520, Note_on_c, 2, 43, 0
4, 20520, Note_on_c, 2, 55, 0
4, 20520, Note_on_c, 2, 52, 0
4, 20520, Note_on_c, 2, 60, 0
4, 20520, Note_on_c, 2, 40, 0
4, 20520, Note_on_c, 2, 48, 0
4, 22200, Control_c, 2, 64, 0
4, 22200, End_track
5, 0, Start_track
5, 0, MIDI_port, 0
5, 0, Title_t, "Chor"
5, 0, Program_c, 3, 61
5, 0, Control_c, 3, 7, 121
5, 0, Control_c, 3, 10, 64
5, 360, Control_c, 3, 93, 18
5, 360, Control_c, 3, 91, 11
5, 360, End_track
0, 0, End_of_file