0, 0, Header, 1, 18, 120
1, 0, Start_track
1, 0, Title_t, "Piano Concerto No. 2 in B-flat Major, Op. 19"
1, 0, Title_t, "Mov't. 3 - Rondo"
1, 0, Text_t, "Ludwig van Beethoven\012"
1, 0, Text_t, "Molto allegro\012"
1, 0, Time_signature, 6, 3, 12, 8
1, 0, Key_signature, -2, "major"
1, 0, Tempo, 361446
1, 0, Marker_t, "Rondo - Molto allegro"
1, 32820, Tempo, 365854
1, 32880, Tempo, 370370
1, 32940, Tempo, 377358
1, 33000, Tempo, 382166
1, 33060, Tempo, 387097
1, 33120, Tempo, 392157
1, 33180, Tempo, 397351
1, 33240, Tempo, 405405
1, 33300, Tempo, 410959
1, 33360, Tempo, 416667
1, 33420, Tempo, 422535
1, 33480, Tempo, 431655
1, 33900, Tempo, 419580
1, 33960, Tempo, 405405
1, 34020, Tempo, 394737
1, 34080, Tempo, 382166
1, 34140, Tempo, 372671
1, 34200, Tempo, 361446
1, 60900, Tempo, 368098
1, 60960, Tempo, 372671
1, 61020, Tempo, 379747
1, 61080, Tempo, 384615
1, 61140, Tempo, 392157
1, 61200, Tempo, 397351
1, 61260, Tempo, 405405
1, 61320, Tempo, 410959
1, 61380, Tempo, 419580
1, 61440, Tempo, 425532
1, 61500, Tempo, 434783
1, 61560, Tempo, 441176
1, 61620, Tempo, 451128
1, 61680, Tempo, 458015
1, 61740, Tempo, 468750
1, 61800, Tempo, 476190
1, 61860, Tempo, 487805
1, 61980, Tempo, 461538
1, 62040, Tempo, 437956
1, 62100, Tempo, 416667
1, 62160, Tempo, 397351
1, 62220, Tempo, 379747
1, 62280, Tempo, 361446
1, 62280, End_track
2, 0, Start_track
2, 0, Title_t, "Flutes "
2, 0, Program_c, 0, 73
2, 0, Control_c, 0, 7, 100
2, 0, Control_c, 0, 10, 38
2, 2880, Note_on_c, 0, 89, 73
2, 3000, Note_on_c, 0, 89, 0
2, 3060, Note_on_c, 0, 89, 80
2, 3180, Note_on_c, 0, 89, 0
2, 3240, Note_on_c, 0, 89, 81
2, 3600, Note_on_c, 0, 89, 0
2, 3600, Note_on_c, 0, 89, 70
2, 3720, Note_on_c, 0, 89, 0
2, 3780, Note_on_c, 0, 89, 78
2, 3900, Note_on_c, 0, 89, 0
2, 3960, Note_on_c, 0, 89, 84
2, 4140, Note_on_c, 0, 89, 0
2, 4140, Note_on_c, 0, 89, 78
2, 4260, Note_on_c, 0, 89, 0
2, 4260, Note_on_c, 0, 82, 71
2, 4290, Note_on_c, 0, 82, 0
2, 4320, Note_on_c, 0, 82, 70
2, 4680, Note_on_c, 0, 82, 0
2, 4680, Note_on_c, 0, 82, 72
2, 4920, Note_on_c, 0, 82, 0
2, 4920, Note_on_c, 0, 89, 85
2, 4980, Note_on_c, 0, 89, 0
2, 4980, Note_on_c, 0, 89, 81
2, 5010, Note_on_c, 0, 89, 0
2, 5040, Note_on_c, 0, 89, 84
2, 5100, Note_on_c, 0, 89, 0
2, 5100, Note_on_c, 0, 88, 84
2, 5160, Note_on_c, 0, 88, 0
2, 5160, Note_on_c, 0, 87, 81
2, 5190, Note_on_c, 0, 87, 0
2, 5220, Note_on_c, 0, 87, 82
2, 5280, Note_on_c, 0, 87, 0
2, 5280, Note_on_c, 0, 86, 86
2, 5340, Note_on_c, 0, 86, 0
2, 5340, Note_on_c, 0, 85, 72
2, 5370, Note_on_c, 0, 85, 0
2, 5400, Note_on_c, 0, 85, 78
2, 5460, Note_on_c, 0, 85, 0
2, 5460, Note_on_c, 0, 86, 86
2, 5520, Note_on_c, 0, 86, 0
2, 5520, Note_on_c, 0, 86, 82
2, 5550, Note_on_c, 0, 86, 0
2, 5580, Note_on_c, 0, 86, 93
2, 5640, Note_on_c, 0, 86, 0
2, 5640, Note_on_c, 0, 87, 84
2, 5700, Note_on_c, 0, 87, 0
2, 5700, Note_on_c, 0, 84, 77
2, 5730, Note_on_c, 0, 84, 0
2, 5760, Note_on_c, 0, 82, 74
2, 5880, Note_on_c, 0, 82, 0
2, 6120, Note_on_c, 0, 81, 65
2, 6240, Note_on_c, 0, 81, 0
2, 6480, Note_on_c, 0, 82, 84
2, 6510, Note_on_c, 0, 82, 0
2, 6540, Note_on_c, 0, 86, 78
2, 6720, Note_on_c, 0, 86, 0
2, 6720, Note_on_c, 0, 84, 73
2, 6750, Note_on_c, 0, 84, 0
2, 6780, Note_on_c, 0, 82, 70
2, 6810, Note_on_c, 0, 82, 0
2, 6840, Note_on_c, 0, 81, 80
2, 6870, Note_on_c, 0, 81, 0
2, 6900, Note_on_c, 0, 91, 74
2, 6930, Note_on_c, 0, 91, 0
2, 6960, Note_on_c, 0, 89, 81
2, 6990, Note_on_c, 0, 89, 0
2, 7020, Note_on_c, 0, 87, 78
2, 7050, Note_on_c, 0, 87, 0
2, 7080, Note_on_c, 0, 86, 82
2, 7110, Note_on_c, 0, 86, 0
2, 7140, Note_on_c, 0, 84, 81
2, 7170, Note_on_c, 0, 84, 0
2, 7200, Note_on_c, 0, 82, 84
2, 7320, Note_on_c, 0, 82, 0
2, 7380, Note_on_c, 0, 86, 78
2, 7500, Note_on_c, 0, 86, 0
2, 7560, Note_on_c, 0, 82, 78
2, 7680, Note_on_c, 0, 82, 0
2, 8640, Note_on_c, 0, 86, 94
2, 9000, Note_on_c, 0, 86, 0
2, 9000, Note_on_c, 0, 89, 94
2, 9180, Note_on_c, 0, 89, 0
2, 9180, Note_on_c, 0, 91, 84
2, 9360, Note_on_c, 0, 91, 0
2, 9360, Note_on_c, 0, 84, 81
2, 9480, Note_on_c, 0, 84, 0
2, 10800, Note_on_c, 0, 89, 81
2, 11520, Note_on_c, 0, 89, 0
2, 11520, Note_on_c, 0, 88, 80
2, 11640, Note_on_c, 0, 88, 0
2, 20100, Note_on_c, 0, 77, 61
2, 20130, Note_on_c, 0, 77, 0
2, 20130, Note_on_c, 0, 79, 44
2, 20160, Note_on_c, 0, 79, 0
2, 20160, Note_on_c, 0, 80, 73
2, 20220, Note_on_c, 0, 80, 0
2, 20220, Note_on_c, 0, 81, 54
2, 20280, Note_on_c, 0, 81, 0
2, 20280, Note_on_c, 0, 81, 68
2, 20310, Note_on_c, 0, 81, 0
2, 20340, Note_on_c, 0, 80, 80
2, 20400, Note_on_c, 0, 80, 0
2, 20400, Note_on_c, 0, 81, 76
2, 20460, Note_on_c, 0, 81, 0
2, 20460, Note_on_c, 0, 81, 89
2, 20490, Note_on_c, 0, 81, 0
2, 20520, Note_on_c, 0, 80, 89
2, 20580, Note_on_c, 0, 80, 0
2, 20580, Note_on_c, 0, 81, 86
2, 20640, Note_on_c, 0, 81, 0
2, 20640, Note_on_c, 0, 81, 89
2, 20670, Note_on_c, 0, 81, 0
2, 20700, Note_on_c, 0, 86, 84
2, 20880, Note_on_c, 0, 86, 0
2, 21540, Note_on_c, 0, 77, 53
2, 21570, Note_on_c, 0, 77, 0
2, 21570, Note_on_c, 0, 79, 49
2, 21600, Note_on_c, 0, 79, 0
2, 21600, Note_on_c, 0, 80, 67
2, 21660, Note_on_c, 0, 80, 0
2, 21660, Note_on_c, 0, 81, 71
2, 21720, Note_on_c, 0, 81, 0
2, 21720, Note_on_c, 0, 81, 69
2, 21750, Note_on_c, 0, 81, 0
2, 21780, Note_on_c, 0, 80, 69
2, 21840, Note_on_c, 0, 80, 0
2, 21840, Note_on_c, 0, 81, 56
2, 21900, Note_on_c, 0, 81, 0
2, 21900, Note_on_c, 0, 81, 76
2, 21930, Note_on_c, 0, 81, 0
2, 21960, Note_on_c, 0, 80, 84
2, 22020, Note_on_c, 0, 80, 0
2, 22020, Note_on_c, 0, 81, 76
2, 22080, Note_on_c, 0, 81, 0
2, 22080, Note_on_c, 0, 81, 84
2, 22110, Note_on_c, 0, 81, 0
2, 22140, Note_on_c, 0, 89, 86
2, 22320, Note_on_c, 0, 89, 0
2, 23040, Note_on_c, 0, 79, 80
2, 23160, Note_on_c, 0, 79, 0
2, 23160, Note_on_c, 0, 76, 89
2, 23220, Note_on_c, 0, 76, 0
2, 23220, Note_on_c, 0, 79, 77
2, 23340, Note_on_c, 0, 79, 0
2, 23340, Note_on_c, 0, 76, 95
2, 23400, Note_on_c, 0, 76, 0
2, 23400, Note_on_c, 0, 77, 94
2, 23460, Note_on_c, 0, 77, 0
2, 23460, Note_on_c, 0, 81, 93
2, 23520, Note_on_c, 0, 81, 0
2, 23520, Note_on_c, 0, 84, 84
2, 23550, Note_on_c, 0, 84, 0
2, 23580, Note_on_c, 0, 84, 81
2, 23640, Note_on_c, 0, 84, 0
2, 24480, Note_on_c, 0, 79, 80
2, 24600, Note_on_c, 0, 79, 0
2, 24600, Note_on_c, 0, 76, 89
2, 24660, Note_on_c, 0, 76, 0
2, 24660, Note_on_c, 0, 79, 77
2, 24780, Note_on_c, 0, 79, 0
2, 24780, Note_on_c, 0, 76, 95
2, 24840, Note_on_c, 0, 76, 0
2, 24840, Note_on_c, 0, 77, 94
2, 24900, Note_on_c, 0, 77, 0
2, 24900, Note_on_c, 0, 81, 93
2, 24960, Note_on_c, 0, 81, 0
2, 24960, Note_on_c, 0, 84, 84
2, 24990, Note_on_c, 0, 84, 0
2, 25020, Note_on_c, 0, 84, 81
2, 25080, Note_on_c, 0, 84, 0
2, 28080, Note_on_c, 0, 81, 65
2, 28110, Note_on_c, 0, 81, 0
2, 28140, Note_on_c, 0, 81, 70
2, 28170, Note_on_c, 0, 81, 0
2, 28200, Note_on_c, 0, 83, 68
2, 28230, Note_on_c, 0, 83, 0
2, 28260, Note_on_c, 0, 84, 64
2, 28380, Note_on_c, 0, 84, 0
2, 28800, Note_on_c, 0, 86, 82
2, 28830, Note_on_c, 0, 86, 0
2, 28860, Note_on_c, 0, 86, 82
2, 28890, Note_on_c, 0, 86, 0
2, 28920, Note_on_c, 0, 88, 80
2, 28950, Note_on_c, 0, 88, 0
2, 28980, Note_on_c, 0, 89, 70
2, 29100, Note_on_c, 0, 89, 0
2, 37080, Note_on_c, 0, 89, 73
2, 37200, Note_on_c, 0, 89, 0
2, 37260, Note_on_c, 0, 89, 80
2, 37380, Note_on_c, 0, 89, 0
2, 37440, Note_on_c, 0, 89, 81
2, 37800, Note_on_c, 0, 89, 0
2, 37800, Note_on_c, 0, 89, 70
2, 37920, Note_on_c, 0, 89, 0
2, 37980, Note_on_c, 0, 89, 78
2, 38100, Note_on_c, 0, 89, 0
2, 38160, Note_on_c, 0, 89, 84
2, 38340, Note_on_c, 0, 89, 0
2, 38340, Note_on_c, 0, 89, 78
2, 38460, Note_on_c, 0, 89, 0
2, 38460, Note_on_c, 0, 82, 71
2, 38490, Note_on_c, 0, 82, 0
2, 38520, Note_on_c, 0, 82, 70
2, 38880, Note_on_c, 0, 82, 0
2, 38880, Note_on_c, 0, 82, 72
2, 39120, Note_on_c, 0, 82, 0
2, 39120, Note_on_c, 0, 89, 85
2, 39180, Note_on_c, 0, 89, 0
2, 39180, Note_on_c, 0, 89, 81
2, 39210, Note_on_c, 0, 89, 0
2, 39240, Note_on_c, 0, 89, 84
2, 39300, Note_on_c, 0, 89, 0
2, 39300, Note_on_c, 0, 88, 84
2, 39360, Note_on_c, 0, 88, 0
2, 39360, Note_on_c, 0, 87, 81
2, 39390, Note_on_c, 0, 87, 0
2, 39420, Note_on_c, 0, 87, 82
2, 39480, Note_on_c, 0, 87, 0
2, 39480, Note_on_c, 0, 86, 86
2, 39540, Note_on_c, 0, 86, 0
2, 39540, Note_on_c, 0, 85, 72
2, 39570, Note_on_c, 0, 85, 0
2, 39600, Note_on_c, 0, 85, 78
2, 39660, Note_on_c, 0, 85, 0
2, 39660, Note_on_c, 0, 86, 86
2, 39720, Note_on_c, 0, 86, 0
2, 39720, Note_on_c, 0, 86, 82
2, 39750, Note_on_c, 0, 86, 0
2, 39780, Note_on_c, 0, 86, 93
2, 39840, Note_on_c, 0, 86, 0
2, 39840, Note_on_c, 0, 87, 84
2, 39900, Note_on_c, 0, 87, 0
2, 39900, Note_on_c, 0, 84, 77
2, 39930, Note_on_c, 0, 84, 0
2, 39960, Note_on_c, 0, 82, 74
2, 40080, Note_on_c, 0, 82, 0
2, 40320, Note_on_c, 0, 81, 65
2, 40440, Note_on_c, 0, 81, 0
2, 40680, Note_on_c, 0, 82, 84
2, 40710, Note_on_c, 0, 82, 0
2, 40740, Note_on_c, 0, 86, 78
2, 40920, Note_on_c, 0, 86, 0
2, 40920, Note_on_c, 0, 84, 73
2, 40950, Note_on_c, 0, 84, 0
2, 40980, Note_on_c, 0, 82, 70
2, 41010, Note_on_c, 0, 82, 0
2, 41040, Note_on_c, 0, 81, 80
2, 41070, Note_on_c, 0, 81, 0
2, 41100, Note_on_c, 0, 91, 74
2, 41130, Note_on_c, 0, 91, 0
2, 41160, Note_on_c, 0, 89, 81
2, 41190, Note_on_c, 0, 89, 0
2, 41220, Note_on_c, 0, 87, 78
2, 41250, Note_on_c, 0, 87, 0
2, 41280, Note_on_c, 0, 86, 82
2, 41310, Note_on_c, 0, 86, 0
2, 41340, Note_on_c, 0, 84, 81
2, 41370, Note_on_c, 0, 84, 0
2, 41400, Note_on_c, 0, 82, 74
2, 41520, Note_on_c, 0, 82, 0
2, 42180, Note_on_c, 0, 82, 77
2, 42360, Note_on_c, 0, 82, 0
2, 42360, Note_on_c, 0, 81, 86
2, 42390, Note_on_c, 0, 81, 0
2, 42420, Note_on_c, 0, 79, 86
2, 42450, Note_on_c, 0, 79, 0
2, 42480, Note_on_c, 0, 77, 84
2, 42510, Note_on_c, 0, 77, 0
2, 42540, Note_on_c, 0, 87, 80
2, 42570, Note_on_c, 0, 87, 0
2, 42600, Note_on_c, 0, 86, 84
2, 42630, Note_on_c, 0, 86, 0
2, 42660, Note_on_c, 0, 85, 76
2, 42690, Note_on_c, 0, 85, 0
2, 42720, Note_on_c, 0, 85, 74
2, 42750, Note_on_c, 0, 85, 0
2, 42780, Note_on_c, 0, 85, 73
2, 42810, Note_on_c, 0, 85, 0
2, 42840, Note_on_c, 0, 86, 80
2, 42960, Note_on_c, 0, 86, 0
2, 43200, Note_on_c, 0, 86, 93
2, 43320, Note_on_c, 0, 86, 0
2, 43320, Note_on_c, 0, 84, 84
2, 43350, Note_on_c, 0, 84, 0
2, 43380, Note_on_c, 0, 82, 84
2, 43410, Note_on_c, 0, 82, 0
2, 43440, Note_on_c, 0, 81, 89
2, 43470, Note_on_c, 0, 81, 0
2, 43500, Note_on_c, 0, 79, 84
2, 43530, Note_on_c, 0, 79, 0
2, 43560, Note_on_c, 0, 74, 81
2, 43680, Note_on_c, 0, 74, 0
2, 43920, Note_on_c, 0, 86, 99
2, 44040, Note_on_c, 0, 86, 0
2, 44040, Note_on_c, 0, 84, 71
2, 44070, Note_on_c, 0, 84, 0
2, 44100, Note_on_c, 0, 82, 84
2, 44130, Note_on_c, 0, 82, 0
2, 44160, Note_on_c, 0, 81, 81
2, 44190, Note_on_c, 0, 81, 0
2, 44220, Note_on_c, 0, 79, 89
2, 44250, Note_on_c, 0, 79, 0
2, 44280, Note_on_c, 0, 74, 98
2, 44310, Note_on_c, 0, 74, 0
2, 44340, Note_on_c, 0, 86, 86
2, 44400, Note_on_c, 0, 86, 0
2, 44400, Note_on_c, 0, 85, 73
2, 44460, Note_on_c, 0, 85, 0
2, 44460, Note_on_c, 0, 86, 78
2, 44490, Note_on_c, 0, 86, 0
2, 44520, Note_on_c, 0, 86, 78
2, 44580, Note_on_c, 0, 86, 0
2, 44580, Note_on_c, 0, 85, 76
2, 44640, Note_on_c, 0, 85, 0
2, 44640, Note_on_c, 0, 86, 86
2, 44670, Note_on_c, 0, 86, 0
2, 44700, Note_on_c, 0, 86, 82
2, 44760, Note_on_c, 0, 86, 0
2, 44760, Note_on_c, 0, 85, 81
2, 44820, Note_on_c, 0, 85, 0
2, 44820, Note_on_c, 0, 84, 76
2, 44850, Note_on_c, 0, 84, 0
2, 44880, Note_on_c, 0, 82, 84
2, 44910, Note_on_c, 0, 82, 0
2, 44940, Note_on_c, 0, 81, 80
2, 44970, Note_on_c, 0, 81, 0
2, 45000, Note_on_c, 0, 79, 50
2, 45120, Note_on_c, 0, 79, 0
2, 47880, Note_on_c, 0, 86, 95
2, 47966, Control_c, 0, 7, 99
2, 47968, Control_c, 0, 7, 97
2, 47970, Control_c, 0, 7, 95
2, 47972, Control_c, 0, 7, 93
2, 47974, Control_c, 0, 7, 91
2, 47976, Control_c, 0, 7, 89
2, 47978, Control_c, 0, 7, 86
2, 47980, Control_c, 0, 7, 84
2, 47982, Control_c, 0, 7, 82
2, 47984, Control_c, 0, 7, 80
2, 47986, Control_c, 0, 7, 78
2, 47988, Control_c, 0, 7, 75
2, 47990, Control_c, 0, 7, 73
2, 47992, Control_c, 0, 7, 71
2, 47994, Control_c, 0, 7, 69
2, 47996, Control_c, 0, 7, 67
2, 47998, Control_c, 0, 7, 64
2, 48240, Note_on_c, 0, 86, 0
2, 48240, Note_on_c, 0, 89, 90
2, 48600, Note_on_c, 0, 89, 0
2, 48600, Note_on_c, 0, 89, 84
2, 48780, Note_on_c, 0, 89, 0
2, 48780, Note_on_c, 0, 83, 89
2, 48960, Note_on_c, 0, 83, 0
2, 48960, Note_on_c, 0, 84, 77
2, 49080, Note_on_c, 0, 84, 0
2, 49260, Control_c, 0, 7, 99
2, 51840, Note_on_c, 0, 84, 93
2, 51950, Control_c, 0, 7, 99
2, 51952, Control_c, 0, 7, 97
2, 51954, Control_c, 0, 7, 95
2, 51956, Control_c, 0, 7, 92
2, 51958, Control_c, 0, 7, 90
2, 51960, Control_c, 0, 7, 87
2, 51962, Control_c, 0, 7, 85
2, 51964, Control_c, 0, 7, 82
2, 51966, Control_c, 0, 7, 80
2, 51968, Control_c, 0, 7, 78
2, 51970, Control_c, 0, 7, 75
2, 51972, Control_c, 0, 7, 73
2, 51974, Control_c, 0, 7, 70
2, 51976, Control_c, 0, 7, 68
2, 51978, Control_c, 0, 7, 65
2, 52200, Note_on_c, 0, 84, 0
2, 52200, Note_on_c, 0, 87, 90
2, 52560, Note_on_c, 0, 87, 0
2, 52560, Note_on_c, 0, 87, 89
2, 52740, Note_on_c, 0, 87, 0
2, 52740, Note_on_c, 0, 81, 94
2, 52920, Note_on_c, 0, 81, 0
2, 52920, Note_on_c, 0, 82, 74
2, 53040, Note_on_c, 0, 82, 0
2, 53218, Control_c, 0, 7, 99
2, 64800, Note_on_c, 0, 89, 73
2, 64920, Note_on_c, 0, 89, 0
2, 64980, Note_on_c, 0, 89, 80
2, 65100, Note_on_c, 0, 89, 0
2, 65160, Note_on_c, 0, 89, 81
2, 65520, Note_on_c, 0, 89, 0
2, 65520, Note_on_c, 0, 89, 70
2, 65640, Note_on_c, 0, 89, 0
2, 65700, Note_on_c, 0, 89, 78
2, 65820, Note_on_c, 0, 89, 0
2, 65880, Note_on_c, 0, 89, 84
2, 66060, Note_on_c, 0, 89, 0
2, 66060, Note_on_c, 0, 89, 78
2, 66180, Note_on_c, 0, 89, 0
2, 66180, Note_on_c, 0, 82, 71
2, 66210, Note_on_c, 0, 82, 0
2, 66240, Note_on_c, 0, 82, 70
2, 66600, Note_on_c, 0, 82, 0
2, 66600, Note_on_c, 0, 82, 72
2, 66840, Note_on_c, 0, 82, 0
2, 66840, Note_on_c, 0, 89, 85
2, 66900, Note_on_c, 0, 89, 0
2, 66900, Note_on_c, 0, 89, 81
2, 66930, Note_on_c, 0, 89, 0
2, 66960, Note_on_c, 0, 89, 84
2, 67020, Note_on_c, 0, 89, 0
2, 67020, Note_on_c, 0, 88, 84
2, 67080, Note_on_c, 0, 88, 0
2, 67080, Note_on_c, 0, 87, 81
2, 67110, Note_on_c, 0, 87, 0
2, 67140, Note_on_c, 0, 87, 82
2, 67200, Note_on_c, 0, 87, 0
2, 67200, Note_on_c, 0, 86, 86
2, 67260, Note_on_c, 0, 86, 0
2, 67260, Note_on_c, 0, 85, 72
2, 67290, Note_on_c, 0, 85, 0
2, 67320, Note_on_c, 0, 85, 78
2, 67380, Note_on_c, 0, 85, 0
2, 67380, Note_on_c, 0, 86, 86
2, 67440, Note_on_c, 0, 86, 0
2, 67440, Note_on_c, 0, 86, 82
2, 67470, Note_on_c, 0, 86, 0
2, 67500, Note_on_c, 0, 86, 93
2, 67560, Note_on_c, 0, 86, 0
2, 67560, Note_on_c, 0, 87, 84
2, 67620, Note_on_c, 0, 87, 0
2, 67620, Note_on_c, 0, 84, 77
2, 67650, Note_on_c, 0, 84, 0
2, 67680, Note_on_c, 0, 82, 74
2, 67800, Note_on_c, 0, 82, 0
2, 68040, Note_on_c, 0, 81, 65
2, 68160, Note_on_c, 0, 81, 0
2, 68400, Note_on_c, 0, 82, 84
2, 68430, Note_on_c, 0, 82, 0
2, 68460, Note_on_c, 0, 86, 78
2, 68640, Note_on_c, 0, 86, 0
2, 68640, Note_on_c, 0, 84, 73
2, 68670, Note_on_c, 0, 84, 0
2, 68700, Note_on_c, 0, 82, 70
2, 68730, Note_on_c, 0, 82, 0
2, 68760, Note_on_c, 0, 81, 80
2, 68790, Note_on_c, 0, 81, 0
2, 68820, Note_on_c, 0, 91, 74
2, 68850, Note_on_c, 0, 91, 0
2, 68880, Note_on_c, 0, 89, 81
2, 68910, Note_on_c, 0, 89, 0
2, 68940, Note_on_c, 0, 87, 78
2, 68970, Note_on_c, 0, 87, 0
2, 69000, Note_on_c, 0, 86, 82
2, 69030, Note_on_c, 0, 86, 0
2, 69060, Note_on_c, 0, 84, 81
2, 69090, Note_on_c, 0, 84, 0
2, 69120, Note_on_c, 0, 82, 84
2, 69240, Note_on_c, 0, 82, 0
2, 69300, Note_on_c, 0, 86, 78
2, 69420, Note_on_c, 0, 86, 0
2, 69480, Note_on_c, 0, 82, 78
2, 69600, Note_on_c, 0, 82, 0
2, 70560, Note_on_c, 0, 86, 94
2, 70920, Note_on_c, 0, 86, 0
2, 70920, Note_on_c, 0, 89, 94
2, 71100, Note_on_c, 0, 89, 0
2, 71100, Note_on_c, 0, 91, 84
2, 71280, Note_on_c, 0, 91, 0
2, 71280, Note_on_c, 0, 84, 81
2, 71400, Note_on_c, 0, 84, 0
2, 72720, Note_on_c, 0, 86, 95
2, 73080, Note_on_c, 0, 86, 0
2, 73080, Note_on_c, 0, 86, 94
2, 73260, Note_on_c, 0, 86, 0
2, 73260, Note_on_c, 0, 89, 95
2, 73440, Note_on_c, 0, 89, 0
2, 73440, Note_on_c, 0, 87, 84
2, 73560, Note_on_c, 0, 87, 0
2, 82020, Note_on_c, 0, 82, 61
2, 82050, Note_on_c, 0, 82, 0
2, 82050, Note_on_c, 0, 84, 56
2, 82080, Note_on_c, 0, 84, 0
2, 82080, Note_on_c, 0, 85, 65
2, 82140, Note_on_c, 0, 85, 0
2, 82140, Note_on_c, 0, 86, 70
2, 82200, Note_on_c, 0, 86, 0
2, 82200, Note_on_c, 0, 86, 80
2, 82230, Note_on_c, 0, 86, 0
2, 82260, Note_on_c, 0, 85, 73
2, 82320, Note_on_c, 0, 85, 0
2, 82320, Note_on_c, 0, 86, 77
2, 82380, Note_on_c, 0, 86, 0
2, 82380, Note_on_c, 0, 86, 93
2, 82410, Note_on_c, 0, 86, 0
2, 82440, Note_on_c, 0, 85, 80
2, 82500, Note_on_c, 0, 85, 0
2, 82500, Note_on_c, 0, 86, 95
2, 82560, Note_on_c, 0, 86, 0
2, 82560, Note_on_c, 0, 86, 93
2, 82590, Note_on_c, 0, 86, 0
2, 82620, Note_on_c, 0, 91, 86
2, 82800, Note_on_c, 0, 91, 0
2, 83460, Note_on_c, 0, 82, 61
2, 83490, Note_on_c, 0, 82, 0
2, 83490, Note_on_c, 0, 84, 56
2, 83520, Note_on_c, 0, 84, 0
2, 83520, Note_on_c, 0, 85, 65
2, 83580, Note_on_c, 0, 85, 0
2, 83580, Note_on_c, 0, 86, 70
2, 83640, Note_on_c, 0, 86, 0
2, 83640, Note_on_c, 0, 86, 80
2, 83670, Note_on_c, 0, 86, 0
2, 83700, Note_on_c, 0, 85, 73
2, 83760, Note_on_c, 0, 85, 0
2, 83760, Note_on_c, 0, 86, 77
2, 83820, Note_on_c, 0, 86, 0
2, 83820, Note_on_c, 0, 86, 93
2, 83850, Note_on_c, 0, 86, 0
2, 83880, Note_on_c, 0, 85, 80
2, 83940, Note_on_c, 0, 85, 0
2, 83940, Note_on_c, 0, 86, 95
2, 84000, Note_on_c, 0, 86, 0
2, 84000, Note_on_c, 0, 86, 93
2, 84030, Note_on_c, 0, 86, 0
2, 84060, Note_on_c, 0, 88, 93
2, 84240, Note_on_c, 0, 88, 0
2, 84960, Note_on_c, 0, 84, 110
2, 85080, Note_on_c, 0, 84, 0
2, 85080, Note_on_c, 0, 81, 90
2, 85140, Note_on_c, 0, 81, 0
2, 85140, Note_on_c, 0, 84, 94
2, 85260, Note_on_c, 0, 84, 0
2, 85260, Note_on_c, 0, 81, 95
2, 85320, Note_on_c, 0, 81, 0
2, 85320, Note_on_c, 0, 82, 84
2, 85380, Note_on_c, 0, 82, 0
2, 85380, Note_on_c, 0, 86, 90
2, 85440, Note_on_c, 0, 86, 0
2, 85440, Note_on_c, 0, 89, 99
2, 85470, Note_on_c, 0, 89, 0
2, 85500, Note_on_c, 0, 89, 93
2, 85560, Note_on_c, 0, 89, 0
2, 86400, Note_on_c, 0, 84, 110
2, 86520, Note_on_c, 0, 84, 0
2, 86520, Note_on_c, 0, 81, 90
2, 86580, Note_on_c, 0, 81, 0
2, 86580, Note_on_c, 0, 84, 94
2, 86700, Note_on_c, 0, 84, 0
2, 86700, Note_on_c, 0, 81, 95
2, 86760, Note_on_c, 0, 81, 0
2, 86760, Note_on_c, 0, 82, 84
2, 86820, Note_on_c, 0, 82, 0
2, 86820, Note_on_c, 0, 86, 90
2, 86880, Note_on_c, 0, 86, 0
2, 86880, Note_on_c, 0, 89, 99
2, 86910, Note_on_c, 0, 89, 0
2, 86940, Note_on_c, 0, 89, 93
2, 87000, Note_on_c, 0, 89, 0
2, 90000, Note_on_c, 0, 86, 81
2, 90030, Note_on_c, 0, 86, 0
2, 90060, Note_on_c, 0, 86, 72
2, 90090, Note_on_c, 0, 86, 0
2, 90120, Note_on_c, 0, 88, 76
2, 90150, Note_on_c, 0, 88, 0
2, 90180, Note_on_c, 0, 89, 81
2, 90300, Note_on_c, 0, 89, 0
2, 90720, Note_on_c, 0, 79, 73
2, 90750, Note_on_c, 0, 79, 0
2, 90780, Note_on_c, 0, 79, 76
2, 90810, Note_on_c, 0, 79, 0
2, 90840, Note_on_c, 0, 81, 48
2, 90870, Note_on_c, 0, 81, 0
2, 90900, Note_on_c, 0, 82, 68
2, 91020, Note_on_c, 0, 82, 0
2, 91080, Note_on_c, 0, 72, 58
2, 91200, Note_on_c, 0, 72, 0
2, 91440, Note_on_c, 0, 79, 52
2, 91560, Note_on_c, 0, 79, 0
2, 91800, Note_on_c, 0, 84, 53
2, 91920, Note_on_c, 0, 84, 0
2, 96840, Note_on_c, 0, 82, 89
2, 96960, Note_on_c, 0, 82, 0
2, 97020, Note_on_c, 0, 89, 95
2, 97140, Note_on_c, 0, 89, 0
2, 97200, Note_on_c, 0, 89, 84
2, 97560, Note_on_c, 0, 89, 0
2, 97560, Note_on_c, 0, 89, 94
2, 97680, Note_on_c, 0, 89, 0
2, 97740, Note_on_c, 0, 89, 95
2, 97860, Note_on_c, 0, 89, 0
2, 97920, Note_on_c, 0, 89, 95
2, 98100, Note_on_c, 0, 89, 0
2, 98100, Note_on_c, 0, 89, 84
2, 98220, Note_on_c, 0, 89, 0
2, 98220, Note_on_c, 0, 82, 77
2, 98250, Note_on_c, 0, 82, 0
2, 98280, Note_on_c, 0, 82, 81
2, 98640, Note_on_c, 0, 82, 0
2, 98640, Note_on_c, 0, 82, 84
2, 98820, Note_on_c, 0, 82, 0
2, 98820, Note_on_c, 0, 82, 84
2, 98880, Note_on_c, 0, 82, 0
2, 98880, Note_on_c, 0, 89, 89
2, 98940, Note_on_c, 0, 89, 0
2, 98940, Note_on_c, 0, 89, 89
2, 98970, Note_on_c, 0, 89, 0
2, 99000, Note_on_c, 0, 89, 95
2, 99060, Note_on_c, 0, 89, 0
2, 99060, Note_on_c, 0, 88, 101
2, 99120, Note_on_c, 0, 88, 0
2, 99120, Note_on_c, 0, 87, 93
2, 99150, Note_on_c, 0, 87, 0
2, 99180, Note_on_c, 0, 87, 94
2, 99240, Note_on_c, 0, 87, 0
2, 99240, Note_on_c, 0, 86, 99
2, 99300, Note_on_c, 0, 86, 0
2, 99300, Note_on_c, 0, 85, 89
2, 99330, Note_on_c, 0, 85, 0
2, 99360, Note_on_c, 0, 85, 86
2, 99420, Note_on_c, 0, 85, 0
2, 99420, Note_on_c, 0, 86, 95
2, 99480, Note_on_c, 0, 86, 0
2, 99480, Note_on_c, 0, 86, 95
2, 99510, Note_on_c, 0, 86, 0
2, 99540, Note_on_c, 0, 86, 101
2, 99600, Note_on_c, 0, 86, 0
2, 99600, Note_on_c, 0, 87, 94
2, 99660, Note_on_c, 0, 87, 0
2, 99660, Note_on_c, 0, 84, 94
2, 99690, Note_on_c, 0, 84, 0
2, 99720, Note_on_c, 0, 82, 94
2, 99840, Note_on_c, 0, 82, 0
2, 108540, Note_on_c, 0, 82, 33
2, 108660, Note_on_c, 0, 82, 0
2, 108900, Note_on_c, 0, 81, 46
2, 109020, Note_on_c, 0, 81, 0
2, 109260, Note_on_c, 0, 82, 46
2, 109380, Note_on_c, 0, 82, 0
2, 109620, Note_on_c, 0, 81, 54
2, 109740, Note_on_c, 0, 81, 0
2, 109980, Note_on_c, 0, 82, 40
2, 110100, Note_on_c, 0, 82, 0
2, 110700, Note_on_c, 0, 82, 44
2, 110820, Note_on_c, 0, 82, 0
2, 111420, Note_on_c, 0, 82, 40
2, 111540, Note_on_c, 0, 82, 0
2, 115200, Note_on_c, 0, 83, 43
2, 115320, Note_on_c, 0, 83, 0
2, 115560, Note_on_c, 0, 84, 45
2, 115680, Note_on_c, 0, 84, 0
2, 115920, Note_on_c, 0, 81, 95
2, 116040, Note_on_c, 0, 81, 0
2, 116280, Note_on_c, 0, 82, 90
2, 116340, Note_on_c, 0, 82, 0
2, 116340, Note_on_c, 0, 86, 95
2, 116400, Note_on_c, 0, 86, 0
2, 116400, Note_on_c, 0, 86, 89
2, 116460, Note_on_c, 0, 86, 0
2, 116460, Note_on_c, 0, 86, 94
2, 116520, Note_on_c, 0, 86, 0
2, 116520, Note_on_c, 0, 86, 90
2, 116580, Note_on_c, 0, 86, 0
2, 116580, Note_on_c, 0, 86, 86
2, 116640, Note_on_c, 0, 86, 0
2, 116640, Note_on_c, 0, 86, 94
2, 116700, Note_on_c, 0, 86, 0
2, 116700, Note_on_c, 0, 89, 93
2, 116760, Note_on_c, 0, 89, 0
2, 116760, Note_on_c, 0, 89, 93
2, 116820, Note_on_c, 0, 89, 0
2, 116820, Note_on_c, 0, 89, 89
2, 116880, Note_on_c, 0, 89, 0
2, 116880, Note_on_c, 0, 89, 94
2, 116940, Note_on_c, 0, 89, 0
2, 116940, Note_on_c, 0, 89, 93
2, 117000, Note_on_c, 0, 89, 0
2, 117000, Note_on_c, 0, 89, 93
2, 117120, Note_on_c, 0, 89, 0
2, 117180, Note_on_c, 0, 82, 80
2, 117300, Note_on_c, 0, 82, 0
2, 117360, Note_on_c, 0, 82, 85
2, 117480, Note_on_c, 0, 82, 0
2, 117490, Control_c, 0, 7, 99
2, 117490, Control_c, 0, 10, 40
2, 117490, Control_c, 0, 93, 0
2, 117490, Control_c, 0, 91, 66
2, 117490, End_track
3, 0, Start_track
3, 0, Title_t, "Oboes"
3, 0, Program_c, 1, 68
3, 0, Control_c, 1, 7, 100
3, 0, Control_c, 1, 10, 95
3, 2880, Note_on_c, 1, 77, 71
3, 2880, Note_on_c, 1, 65, 71
3, 3000, Note_on_c, 1, 65, 0
3, 3000, Note_on_c, 1, 77, 0
3, 3060, Note_on_c, 1, 77, 71
3, 3060, Note_on_c, 1, 65, 80
3, 3180, Note_on_c, 1, 65, 0
3, 3180, Note_on_c, 1, 77, 0
3, 3240, Note_on_c, 1, 65, 77
3, 3240, Note_on_c, 1, 77, 68
3, 3600, Note_on_c, 1, 77, 0
3, 3600, Note_on_c, 1, 65, 0
3, 3600, Note_on_c, 1, 77, 70
3, 3600, Note_on_c, 1, 65, 77
3, 3720, Note_on_c, 1, 65, 0
3, 3720, Note_on_c, 1, 77, 0
3, 3780, Note_on_c, 1, 77, 66
3, 3780, Note_on_c, 1, 65, 80
3, 3900, Note_on_c, 1, 65, 0
3, 3900, Note_on_c, 1, 77, 0
3, 3960, Note_on_c, 1, 77, 65
3, 3960, Note_on_c, 1, 65, 73
3, 4140, Note_on_c, 1, 65, 0
3, 4140, Note_on_c, 1, 77, 0
3, 4140, Note_on_c, 1, 77, 64
3, 4140, Note_on_c, 1, 65, 65
3, 4260, Note_on_c, 1, 65, 0
3, 4260, Note_on_c, 1, 77, 0
3, 4260, Note_on_c, 1, 82, 66
3, 4260, Note_on_c, 1, 70, 72
3, 4290, Note_on_c, 1, 70, 0
3, 4290, Note_on_c, 1, 82, 0
3, 4320, Note_on_c, 1, 70, 61
3, 4320, Note_on_c, 1, 82, 45
3, 4680, Note_on_c, 1, 82, 0
3, 4680, Note_on_c, 1, 70, 0
3, 4680, Note_on_c, 1, 82, 58
3, 4680, Note_on_c, 1, 70, 61
3, 4920, Note_on_c, 1, 70, 0
3, 4920, Note_on_c, 1, 82, 0
3, 4920, Note_on_c, 1, 77, 74
3, 4980, Note_on_c, 1, 77, 0
3, 4980, Note_on_c, 1, 77, 58
3, 4980, Note_on_c, 1, 74, 51
3, 5010, Note_on_c, 1, 74, 0
3, 5010, Note_on_c, 1, 77, 0
3, 5040, Note_on_c, 1, 77, 58
3, 5040, Note_on_c, 1, 67, 62
3, 5100, Note_on_c, 1, 67, 0
3, 5100, Note_on_c, 1, 77, 0
3, 5100, Note_on_c, 1, 76, 64
3, 5100, Note_on_c, 1, 70, 76
3, 5160, Note_on_c, 1, 70, 0
3, 5160, Note_on_c, 1, 76, 0
3, 5160, Note_on_c, 1, 75, 69
3, 5190, Note_on_c, 1, 75, 0
3, 5220, Note_on_c, 1, 75, 67
3, 5220, Note_on_c, 1, 65, 78
3, 5280, Note_on_c, 1, 65, 0
3, 5280, Note_on_c, 1, 75, 0
3, 5280, Note_on_c, 1, 74, 68
3, 5280, Note_on_c, 1, 70, 72
3, 5340, Note_on_c, 1, 70, 0
3, 5340, Note_on_c, 1, 74, 0
3, 5340, Note_on_c, 1, 73, 53
3, 5340, Note_on_c, 1, 70, 63
3, 5370, Note_on_c, 1, 70, 0
3, 5370, Note_on_c, 1, 73, 0
3, 5400, Note_on_c, 1, 73, 64
3, 5400, Note_on_c, 1, 70, 73
3, 5460, Note_on_c, 1, 70, 0
3, 5460, Note_on_c, 1, 73, 0
3, 5460, Note_on_c, 1, 74, 62
3, 5460, Note_on_c, 1, 70, 65
3, 5520, Note_on_c, 1, 70, 0
3, 5520, Note_on_c, 1, 74, 0
3, 5520, Note_on_c, 1, 74, 63
3, 5520, Note_on_c, 1, 70, 72
3, 5550, Note_on_c, 1, 70, 0
3, 5550, Note_on_c, 1, 74, 0
3, 5580, Note_on_c, 1, 74, 74
3, 5580, Note_on_c, 1, 70, 72
3, 5640, Note_on_c, 1, 70, 0
3, 5640, Note_on_c, 1, 74, 0
3, 5640, Note_on_c, 1, 76, 63
3, 5640, Note_on_c, 1, 72, 71
3, 5700, Note_on_c, 1, 72, 0
3, 5700, Note_on_c, 1, 76, 0
3, 5700, Note_on_c, 1, 72, 62
3, 5700, Note_on_c, 1, 69, 64
3, 5730, Note_on_c, 1, 69, 0
3, 5730, Note_on_c, 1, 72, 0
3, 5760, Note_on_c, 1, 70, 84
3, 5880, Note_on_c, 1, 70, 0
3, 6120, Note_on_c, 1, 75, 46
3, 6120, Note_on_c, 1, 69, 53
3, 6240, Note_on_c, 1, 69, 0
3, 6240, Note_on_c, 1, 75, 0
3, 6480, Note_on_c, 1, 70, 76
3, 6510, Note_on_c, 1, 70, 0
3, 6540, Note_on_c, 1, 74, 81
3, 6720, Note_on_c, 1, 74, 0
3, 6720, Note_on_c, 1, 72, 70
3, 6750, Note_on_c, 1, 72, 0
3, 6780, Note_on_c, 1, 70, 76
3, 6810, Note_on_c, 1, 70, 0
3, 6840, Note_on_c, 1, 69, 84
3, 6870, Note_on_c, 1, 69, 0
3, 6900, Note_on_c, 1, 79, 72
3, 6900, Note_on_c, 1, 75, 81
3, 6930, Note_on_c, 1, 75, 0
3, 6930, Note_on_c, 1, 79, 0
3, 6960, Note_on_c, 1, 77, 62
3, 6960, Note_on_c, 1, 74, 84
3, 6990, Note_on_c, 1, 74, 0
3, 6990, Note_on_c, 1, 77, 0
3, 7020, Note_on_c, 1, 75, 76
3, 7050, Note_on_c, 1, 75, 0
3, 7080, Note_on_c, 1, 74, 65
3, 7080, Note_on_c, 1, 70, 68
3, 7110, Note_on_c, 1, 70, 0
3, 7110, Note_on_c, 1, 74, 0
3, 7140, Note_on_c, 1, 72, 45
3, 7140, Note_on_c, 1, 69, 80
3, 7170, Note_on_c, 1, 69, 0
3, 7170, Note_on_c, 1, 72, 0
3, 7200, Note_on_c, 1, 70, 77
3, 7320, Note_on_c, 1, 70, 0
3, 7380, Note_on_c, 1, 74, 73
3, 7380, Note_on_c, 1, 65, 64
3, 7500, Note_on_c, 1, 65, 0
3, 7500, Note_on_c, 1, 74, 0
3, 7560, Note_on_c, 1, 70, 69
3, 7560, Note_on_c, 1, 62, 80
3, 7680, Note_on_c, 1, 62, 0
3, 7680, Note_on_c, 1, 70, 0
3, 8640, Note_on_c, 1, 82, 63
3, 8640, Note_on_c, 1, 70, 80
3, 9360, Note_on_c, 1, 70, 0
3, 9360, Note_on_c, 1, 82, 0
3, 9360, Note_on_c, 1, 81, 68
3, 9360, Note_on_c, 1, 69, 62
3, 9480, Note_on_c, 1, 69, 0
3, 9480, Note_on_c, 1, 81, 0
3, 10800, Note_on_c, 1, 77, 68
3, 10800, Note_on_c, 1, 65, 76
3, 11520, Note_on_c, 1, 65, 0
3, 11520, Note_on_c, 1, 77, 0
3, 11520, Note_on_c, 1, 76, 73
3, 11520, Note_on_c, 1, 64, 73
3, 11640, Note_on_c, 1, 64, 0
3, 11640, Note_on_c, 1, 76, 0
3, 20150, Control_c, 1, 7, 63
3, 20160, Note_on_c, 1, 65, 80
3, 20160, Note_on_c, 1, 69, 78
3, 20160, Control_c, 1, 7, 63
3, 20174, Control_c, 1, 7, 64
3, 20188, Control_c, 1, 7, 65
3, 20202, Control_c, 1, 7, 66
3, 20216, Control_c, 1, 7, 67
3, 20230, Control_c, 1, 7, 68
3, 20244, Control_c, 1, 7, 69
3, 20256, Control_c, 1, 7, 70
3, 20270, Control_c, 1, 7, 71
3, 20284, Control_c, 1, 7, 72
3, 20298, Control_c, 1, 7, 73
3, 20312, Control_c, 1, 7, 74
3, 20326, Control_c, 1, 7, 75
3, 20340, Control_c, 1, 7, 76
3, 20352, Control_c, 1, 7, 77
3, 20366, Control_c, 1, 7, 78
3, 20380, Control_c, 1, 7, 79
3, 20394, Control_c, 1, 7, 80
3, 20408, Control_c, 1, 7, 81
3, 20422, Control_c, 1, 7, 82
3, 20436, Control_c, 1, 7, 83
3, 20448, Control_c, 1, 7, 84
3, 20462, Control_c, 1, 7, 85
3, 20476, Control_c, 1, 7, 86
3, 20490, Control_c, 1, 7, 87
3, 20504, Control_c, 1, 7, 88
3, 20518, Control_c, 1, 7, 89
3, 20520, Note_on_c, 1, 69, 0
3, 20520, Note_on_c, 1, 65, 0
3, 20520, Note_on_c, 1, 69, 73
3, 20520, Note_on_c, 1, 65, 73
3, 20532, Control_c, 1, 7, 90
3, 20544, Control_c, 1, 7, 91
3, 20558, Control_c, 1, 7, 92
3, 20572, Control_c, 1, 7, 93
3, 20580, Note_on_c, 1, 65, 0
3, 20580, Note_on_c, 1, 69, 0
3, 20580, Note_on_c, 1, 69, 80
3, 20580, Note_on_c, 1, 65, 73
3, 20586, Control_c, 1, 7, 94
3, 20600, Control_c, 1, 7, 95
3, 20614, Control_c, 1, 7, 96
3, 20628, Control_c, 1, 7, 97
3, 20640, Note_on_c, 1, 65, 0
3, 20640, Note_on_c, 1, 69, 0
3, 20640, Control_c, 1, 7, 98
3, 20640, Note_on_c, 1, 69, 89
3, 20640, Note_on_c, 1, 65, 80
3, 20700, Note_on_c, 1, 65, 0
3, 20700, Note_on_c, 1, 69, 0
3, 20700, Note_on_c, 1, 65, 80
3, 20700, Note_on_c, 1, 74, 77
3, 20880, Note_on_c, 1, 74, 0
3, 20880, Note_on_c, 1, 65, 0
3, 21582, Control_c, 1, 7, 63
3, 21600, Note_on_c, 1, 69, 94
3, 21600, Note_on_c, 1, 77, 76
3, 21600, Control_c, 1, 7, 63
3, 21614, Control_c, 1, 7, 64
3, 21628, Control_c, 1, 7, 65
3, 21640, Control_c, 1, 7, 66
3, 21654, Control_c, 1, 7, 67
3, 21668, Control_c, 1, 7, 68
3, 21680, Control_c, 1, 7, 69
3, 21694, Control_c, 1, 7, 70
3, 21708, Control_c, 1, 7, 71
3, 21720, Control_c, 1, 7, 72
3, 21734, Control_c, 1, 7, 73
3, 21748, Control_c, 1, 7, 74
3, 21760, Control_c, 1, 7, 75
3, 21774, Control_c, 1, 7, 76
3, 21788, Control_c, 1, 7, 77
3, 21800, Control_c, 1, 7, 78
3, 21814, Control_c, 1, 7, 79
3, 21828, Control_c, 1, 7, 80
3, 21840, Control_c, 1, 7, 81
3, 21854, Control_c, 1, 7, 82
3, 21868, Control_c, 1, 7, 83
3, 21880, Control_c, 1, 7, 84
3, 21894, Control_c, 1, 7, 85
3, 21908, Control_c, 1, 7, 86
3, 21920, Control_c, 1, 7, 87
3, 21934, Control_c, 1, 7, 88
3, 21948, Control_c, 1, 7, 89
3, 21960, Note_on_c, 1, 77, 0
3, 21960, Note_on_c, 1, 69, 0
3, 21960, Control_c, 1, 7, 90
3, 21960, Note_on_c, 1, 77, 45
3, 21960, Note_on_c, 1, 69, 72
3, 21974, Control_c, 1, 7, 91
3, 21988, Control_c, 1, 7, 92
3, 22000, Control_c, 1, 7, 93
3, 22014, Control_c, 1, 7, 94
3, 22020, Note_on_c, 1, 69, 0
3, 22020, Note_on_c, 1, 77, 0
3, 22020, Note_on_c, 1, 77, 74
3, 22020, Note_on_c, 1, 69, 89
3, 22028, Control_c, 1, 7, 95
3, 22040, Control_c, 1, 7, 96
3, 22054, Control_c, 1, 7, 97
3, 22068, Control_c, 1, 7, 98
3, 22080, Note_on_c, 1, 69, 0
3, 22080, Note_on_c, 1, 77, 0
3, 22080, Control_c, 1, 7, 99
3, 22080, Note_on_c, 1, 77, 72
3, 22080, Note_on_c, 1, 69, 85
3, 22140, Note_on_c, 1, 69, 0
3, 22140, Note_on_c, 1, 77, 0
3, 22140, Note_on_c, 1, 71, 89
3, 22140, Note_on_c, 1, 83, 73
3, 22320, Note_on_c, 1, 83, 0
3, 22320, Note_on_c, 1, 71, 0
3, 23040, Note_on_c, 1, 72, 70
3, 23040, Note_on_c, 1, 67, 81
3, 23160, Note_on_c, 1, 67, 0
3, 23160, Note_on_c, 1, 64, 89
3, 23220, Note_on_c, 1, 64, 0
3, 23220, Note_on_c, 1, 67, 80
3, 23340, Note_on_c, 1, 67, 0
3, 23340, Note_on_c, 1, 64, 94
3, 23400, Note_on_c, 1, 64, 0
3, 23400, Note_on_c, 1, 72, 0
3, 23400, Note_on_c, 1, 72, 78
3, 23400, Note_on_c, 1, 65, 95
3, 23460, Note_on_c, 1, 65, 0
3, 23460, Note_on_c, 1, 69, 94
3, 23520, Note_on_c, 1, 69, 0
3, 23520, Note_on_c, 1, 72, 74
3, 23550, Note_on_c, 1, 72, 0
3, 23580, Note_on_c, 1, 72, 89
3, 23640, Note_on_c, 1, 72, 0
3, 23640, Note_on_c, 1, 72, 0
3, 24480, Note_on_c, 1, 72, 70
3, 24480, Note_on_c, 1, 67, 81
3, 24600, Note_on_c, 1, 67, 0
3, 24600, Note_on_c, 1, 64, 89
3, 24660, Note_on_c, 1, 64, 0
3, 24660, Note_on_c, 1, 67, 80
3, 24780, Note_on_c, 1, 67, 0
3, 24780, Note_on_c, 1, 64, 94
3, 24840, Note_on_c, 1, 64, 0
3, 24840, Note_on_c, 1, 72, 0
3, 24840, Note_on_c, 1, 72, 78
3, 24840, Note_on_c, 1, 65, 95
3, 24900, Note_on_c, 1, 65, 0
3, 24900, Note_on_c, 1, 69, 94
3, 24960, Note_on_c, 1, 69, 0
3, 24960, Note_on_c, 1, 72, 74
3, 24990, Note_on_c, 1, 72, 0
3, 25020, Note_on_c, 1, 72, 89
3, 25080, Note_on_c, 1, 72, 0
3, 25080, Note_on_c, 1, 72, 0
3, 27720, Note_on_c, 1, 69, 74
3, 27750, Note_on_c, 1, 69, 0
3, 27780, Note_on_c, 1, 69, 70
3, 27810, Note_on_c, 1, 69, 0
3, 27840, Note_on_c, 1, 71, 72
3, 27870, Note_on_c, 1, 71, 0
3, 27900, Note_on_c, 1, 72, 59
3, 28020, Note_on_c, 1, 72, 0
3, 28080, Note_on_c, 1, 77, 66
3, 28110, Note_on_c, 1, 77, 0
3, 28140, Note_on_c, 1, 77, 68
3, 28170, Note_on_c, 1, 77, 0
3, 28200, Note_on_c, 1, 77, 62
3, 28230, Note_on_c, 1, 77, 0
3, 28260, Note_on_c, 1, 76, 72
3, 28380, Note_on_c, 1, 76, 0
3, 28440, Note_on_c, 1, 74, 68
3, 28470, Note_on_c, 1, 74, 0
3, 28500, Note_on_c, 1, 74, 72
3, 28530, Note_on_c, 1, 74, 0
3, 28560, Note_on_c, 1, 76, 72
3, 28590, Note_on_c, 1, 76, 0
3, 28620, Note_on_c, 1, 77, 60
3, 28740, Note_on_c, 1, 77, 0
3, 28800, Note_on_c, 1, 82, 65
3, 28830, Note_on_c, 1, 82, 0
3, 28860, Note_on_c, 1, 82, 69
3, 28890, Note_on_c, 1, 82, 0
3, 28920, Note_on_c, 1, 82, 74
3, 28950, Note_on_c, 1, 82, 0
3, 28980, Note_on_c, 1, 81, 73
3, 29100, Note_on_c, 1, 81, 0
3, 37080, Note_on_c, 1, 77, 71
3, 37080, Note_on_c, 1, 65, 71
3, 37200, Note_on_c, 1, 65, 0
3, 37200, Note_on_c, 1, 77, 0
3, 37260, Note_on_c, 1, 77, 71
3, 37260, Note_on_c, 1, 65, 80
3, 37380, Note_on_c, 1, 65, 0
3, 37380, Note_on_c, 1, 77, 0
3, 37440, Note_on_c, 1, 65, 77
3, 37440, Note_on_c, 1, 77, 68
3, 37800, Note_on_c, 1, 77, 0
3, 37800, Note_on_c, 1, 65, 0
3, 37800, Note_on_c, 1, 77, 70
3, 37800, Note_on_c, 1, 65, 77
3, 37920, Note_on_c, 1, 65, 0
3, 37920, Note_on_c, 1, 77, 0
3, 37980, Note_on_c, 1, 77, 66
3, 37980, Note_on_c, 1, 65, 80
3, 38100, Note_on_c, 1, 65, 0
3, 38100, Note_on_c, 1, 77, 0
3, 38160, Note_on_c, 1, 77, 65
3, 38160, Note_on_c, 1, 65, 73
3, 38340, Note_on_c, 1, 65, 0
3, 38340, Note_on_c, 1, 77, 0
3, 38340, Note_on_c, 1, 77, 64
3, 38340, Note_on_c, 1, 65, 65
3, 38460, Note_on_c, 1, 65, 0
3, 38460, Note_on_c, 1, 77, 0
3, 38460, Note_on_c, 1, 82, 66
3, 38460, Note_on_c, 1, 70, 72
3, 38490, Note_on_c, 1, 70, 0
3, 38490, Note_on_c, 1, 82, 0
3, 38520, Note_on_c, 1, 70, 61
3, 38520, Note_on_c, 1, 82, 45
3, 38880, Note_on_c, 1, 82, 0
3, 38880, Note_on_c, 1, 70, 0
3, 38880, Note_on_c, 1, 82, 58
3, 38880, Note_on_c, 1, 70, 61
3, 39120, Note_on_c, 1, 70, 0
3, 39120, Note_on_c, 1, 82, 0
3, 39120, Note_on_c, 1, 77, 74
3, 39180, Note_on_c, 1, 77, 0
3, 39180, Note_on_c, 1, 77, 58
3, 39180, Note_on_c, 1, 74, 51
3, 39210, Note_on_c, 1, 74, 0
3, 39210, Note_on_c, 1, 77, 0
3, 39240, Note_on_c, 1, 77, 58
3, 39240, Note_on_c, 1, 67, 62
3, 39300, Note_on_c, 1, 67, 0
3, 39300, Note_on_c, 1, 77, 0
3, 39300, Note_on_c, 1, 76, 64
3, 39300, Note_on_c, 1, 70, 76
3, 39360, Note_on_c, 1, 70, 0
3, 39360, Note_on_c, 1, 76, 0
3, 39360, Note_on_c, 1, 75, 69
3, 39390, Note_on_c, 1, 75, 0
3, 39420, Note_on_c, 1, 75, 67
3, 39420, Note_on_c, 1, 65, 78
3, 39480, Note_on_c, 1, 65, 0
3, 39480, Note_on_c, 1, 75, 0
3, 39480, Note_on_c, 1, 74, 68
3, 39480, Note_on_c, 1, 70, 72
3, 39540, Note_on_c, 1, 70, 0
3, 39540, Note_on_c, 1, 74, 0
3, 39540, Note_on_c, 1, 73, 53
3, 39540, Note_on_c, 1, 70, 63
3, 39570, Note_on_c, 1, 70, 0
3, 39570, Note_on_c, 1, 73, 0
3, 39600, Note_on_c, 1, 73, 64
3, 39600, Note_on_c, 1, 70, 73
3, 39660, Note_on_c, 1, 70, 0
3, 39660, Note_on_c, 1, 73, 0
3, 39660, Note_on_c, 1, 74, 62
3, 39660, Note_on_c, 1, 70, 65
3, 39720, Note_on_c, 1, 70, 0
3, 39720, Note_on_c, 1, 74, 0
3, 39720, Note_on_c, 1, 74, 63
3, 39720, Note_on_c, 1, 70, 72
3, 39750, Note_on_c, 1, 70, 0
3, 39750, Note_on_c, 1, 74, 0
3, 39780, Note_on_c, 1, 74, 74
3, 39780, Note_on_c, 1, 70, 72
3, 39840, Note_on_c, 1, 70, 0
3, 39840, Note_on_c, 1, 74, 0
3, 39840, Note_on_c, 1, 76, 63
3, 39840, Note_on_c, 1, 72, 71
3, 39900, Note_on_c, 1, 72, 0
3, 39900, Note_on_c, 1, 76, 0
3, 39900, Note_on_c, 1, 72, 62
3, 39900, Note_on_c, 1, 69, 64
3, 39930, Note_on_c, 1, 69, 0
3, 39930, Note_on_c, 1, 72, 0
3, 39960, Note_on_c, 1, 70, 84
3, 40080, Note_on_c, 1, 70, 0
3, 40320, Note_on_c, 1, 75, 46
3, 40320, Note_on_c, 1, 69, 53
3, 40440, Note_on_c, 1, 69, 0
3, 40440, Note_on_c, 1, 75, 0
3, 40680, Note_on_c, 1, 70, 76
3, 40710, Note_on_c, 1, 70, 0
3, 40740, Note_on_c, 1, 74, 81
3, 40920, Note_on_c, 1, 74, 0
3, 40920, Note_on_c, 1, 72, 70
3, 40950, Note_on_c, 1, 72, 0
3, 40980, Note_on_c, 1, 70, 76
3, 41010, Note_on_c, 1, 70, 0
3, 41040, Note_on_c, 1, 69, 84
3, 41070, Note_on_c, 1, 69, 0
3, 41100, Note_on_c, 1, 79, 72
3, 41100, Note_on_c, 1, 75, 81
3, 41130, Note_on_c, 1, 75, 0
3, 41130, Note_on_c, 1, 79, 0
3, 41160, Note_on_c, 1, 77, 62
3, 41160, Note_on_c, 1, 74, 84
3, 41190, Note_on_c, 1, 74, 0
3, 41190, Note_on_c, 1, 77, 0
3, 41220, Note_on_c, 1, 75, 76
3, 41250, Note_on_c, 1, 75, 0
3, 41280, Note_on_c, 1, 74, 65
3, 41280, Note_on_c, 1, 70, 68
3, 41310, Note_on_c, 1, 70, 0
3, 41310, Note_on_c, 1, 74, 0
3, 41340, Note_on_c, 1, 72, 45
3, 41340, Note_on_c, 1, 69, 80
3, 41370, Note_on_c, 1, 69, 0
3, 41370, Note_on_c, 1, 72, 0
3, 41400, Note_on_c, 1, 70, 64
3, 41520, Note_on_c, 1, 70, 0
3, 42180, Note_on_c, 1, 82, 72
3, 42180, Note_on_c, 1, 70, 89
3, 42360, Note_on_c, 1, 70, 0
3, 42360, Note_on_c, 1, 82, 0
3, 42360, Note_on_c, 1, 81, 74
3, 42360, Note_on_c, 1, 69, 76
3, 42390, Note_on_c, 1, 69, 0
3, 42390, Note_on_c, 1, 81, 0
3, 42420, Note_on_c, 1, 79, 64
3, 42420, Note_on_c, 1, 67, 74
3, 42450, Note_on_c, 1, 67, 0
3, 42450, Note_on_c, 1, 79, 0
3, 42480, Note_on_c, 1, 77, 62
3, 42480, Note_on_c, 1, 65, 64
3, 42510, Note_on_c, 1, 65, 0
3, 42510, Note_on_c, 1, 77, 0
3, 42540, Note_on_c, 1, 79, 64
3, 42540, Note_on_c, 1, 67, 60
3, 42570, Note_on_c, 1, 67, 0
3, 42570, Note_on_c, 1, 79, 0
3, 42600, Note_on_c, 1, 79, 73
3, 42600, Note_on_c, 1, 67, 68
3, 42630, Note_on_c, 1, 67, 0
3, 42630, Note_on_c, 1, 79, 0
3, 42660, Note_on_c, 1, 79, 68
3, 42660, Note_on_c, 1, 67, 67
3, 42690, Note_on_c, 1, 67, 0
3, 42690, Note_on_c, 1, 79, 0
3, 42720, Note_on_c, 1, 79, 72
3, 42720, Note_on_c, 1, 67, 76
3, 42750, Note_on_c, 1, 67, 0
3, 42750, Note_on_c, 1, 79, 0
3, 42780, Note_on_c, 1, 79, 73
3, 42780, Note_on_c, 1, 67, 76
3, 42810, Note_on_c, 1, 67, 0
3, 42810, Note_on_c, 1, 79, 0
3, 42840, Note_on_c, 1, 78, 66
3, 42840, Note_on_c, 1, 66, 76
3, 42960, Note_on_c, 1, 66, 0
3, 42960, Note_on_c, 1, 78, 0
3, 43200, Note_on_c, 1, 74, 99
3, 43320, Note_on_c, 1, 74, 0
3, 43320, Note_on_c, 1, 72, 72
3, 43350, Note_on_c, 1, 72, 0
3, 43380, Note_on_c, 1, 70, 82
3, 43410, Note_on_c, 1, 70, 0
3, 43440, Note_on_c, 1, 69, 89
3, 43470, Note_on_c, 1, 69, 0
3, 43500, Note_on_c, 1, 67, 85
3, 43530, Note_on_c, 1, 67, 0
3, 43560, Note_on_c, 1, 62, 80
3, 43680, Note_on_c, 1, 62, 0
3, 43920, Note_on_c, 1, 74, 94
3, 44040, Note_on_c, 1, 74, 0
3, 44040, Note_on_c, 1, 72, 54
3, 44070, Note_on_c, 1, 72, 0
3, 44100, Note_on_c, 1, 70, 85
3, 44130, Note_on_c, 1, 70, 0
3, 44160, Note_on_c, 1, 69, 89
3, 44190, Note_on_c, 1, 69, 0
3, 44220, Note_on_c, 1, 67, 81
3, 44250, Note_on_c, 1, 67, 0
3, 44280, Note_on_c, 1, 62, 80
3, 44310, Note_on_c, 1, 62, 0
3, 44340, Note_on_c, 1, 74, 89
3, 44400, Note_on_c, 1, 74, 0
3, 44400, Note_on_c, 1, 73, 84
3, 44460, Note_on_c, 1, 73, 0
3, 44460, Note_on_c, 1, 74, 81
3, 44490, Note_on_c, 1, 74, 0
3, 44520, Note_on_c, 1, 74, 89
3, 44580, Note_on_c, 1, 74, 0
3, 44580, Note_on_c, 1, 73, 73
3, 44640, Note_on_c, 1, 73, 0
3, 44640, Note_on_c, 1, 74, 86
3, 44670, Note_on_c, 1, 74, 0
3, 44700, Note_on_c, 1, 74, 85
3, 44760, Note_on_c, 1, 74, 0
3, 44760, Note_on_c, 1, 73, 78
3, 44820, Note_on_c, 1, 73, 0
3, 44820, Note_on_c, 1, 72, 53
3, 44850, Note_on_c, 1, 72, 0
3, 44880, Note_on_c, 1, 70, 84
3, 44910, Note_on_c, 1, 70, 0
3, 44940, Note_on_c, 1, 69, 93
3, 44970, Note_on_c, 1, 69, 0
3, 45000, Note_on_c, 1, 67, 53
3, 45120, Note_on_c, 1, 67, 0
3, 47520, Note_on_c, 1, 74, 94
3, 47670, Control_c, 1, 7, 99
3, 47672, Control_c, 1, 7, 97
3, 47674, Control_c, 1, 7, 94
3, 47676, Control_c, 1, 7, 92
3, 47678, Control_c, 1, 7, 89
3, 47680, Control_c, 1, 7, 87
3, 47682, Control_c, 1, 7, 84
3, 47684, Control_c, 1, 7, 81
3, 47686, Control_c, 1, 7, 79
3, 47688, Control_c, 1, 7, 76
3, 47690, Control_c, 1, 7, 74
3, 47692, Control_c, 1, 7, 71
3, 47694, Control_c, 1, 7, 69
3, 47696, Control_c, 1, 7, 66
3, 47698, Control_c, 1, 7, 63
3, 47880, Note_on_c, 1, 74, 0
3, 47880, Note_on_c, 1, 77, 74
3, 48060, Note_on_c, 1, 77, 0
3, 48060, Note_on_c, 1, 74, 99
3, 48240, Note_on_c, 1, 74, 0
3, 48240, Note_on_c, 1, 71, 85
3, 48420, Note_on_c, 1, 71, 0
3, 48420, Note_on_c, 1, 67, 89
3, 48600, Note_on_c, 1, 67, 0
3, 48600, Note_on_c, 1, 65, 95
3, 48780, Note_on_c, 1, 65, 0
3, 48780, Note_on_c, 1, 62, 93
3, 48960, Note_on_c, 1, 62, 0
3, 48960, Note_on_c, 1, 60, 94
3, 49080, Note_on_c, 1, 60, 0
3, 49260, Control_c, 1, 7, 99
3, 51480, Note_on_c, 1, 72, 93
3, 51596, Control_c, 1, 7, 99
3, 51598, Control_c, 1, 7, 95
3, 51600, Control_c, 1, 7, 91
3, 51602, Control_c, 1, 7, 87
3, 51604, Control_c, 1, 7, 82
3, 51606, Control_c, 1, 7, 78
3, 51608, Control_c, 1, 7, 74
3, 51610, Control_c, 1, 7, 70
3, 51612, Control_c, 1, 7, 65
3, 51840, Note_on_c, 1, 72, 0
3, 51840, Note_on_c, 1, 75, 89
3, 52020, Note_on_c, 1, 75, 0
3, 52020, Note_on_c, 1, 72, 78
3, 52200, Note_on_c, 1, 72, 0
3, 52200, Note_on_c, 1, 69, 85
3, 52380, Note_on_c, 1, 69, 0
3, 52380, Note_on_c, 1, 65, 86
3, 52560, Note_on_c, 1, 65, 0
3, 52560, Note_on_c, 1, 63, 85
3, 52740, Note_on_c, 1, 63, 0
3, 52740, Note_on_c, 1, 60, 89
3, 52920, Note_on_c, 1, 60, 0
3, 53220, Control_c, 1, 7, 99
3, 64800, Note_on_c, 1, 77, 71
3, 64800, Note_on_c, 1, 65, 71
3, 64920, Note_on_c, 1, 65, 0
3, 64920, Note_on_c, 1, 77, 0
3, 64980, Note_on_c, 1, 77, 71
3, 64980, Note_on_c, 1, 65, 80
3, 65100, Note_on_c, 1, 65, 0
3, 65100, Note_on_c, 1, 77, 0
3, 65160, Note_on_c, 1, 65, 77
3, 65160, Note_on_c, 1, 77, 68
3, 65520, Note_on_c, 1, 77, 0
3, 65520, Note_on_c, 1, 65, 0
3, 65520, Note_on_c, 1, 77, 70
3, 65520, Note_on_c, 1, 65, 77
3, 65640, Note_on_c, 1, 65, 0
3, 65640, Note_on_c, 1, 77, 0
3, 65700, Note_on_c, 1, 77, 66
3, 65700, Note_on_c, 1, 65, 80
3, 65820, Note_on_c, 1, 65, 0
3, 65820, Note_on_c, 1, 77, 0
3, 65880, Note_on_c, 1, 77, 65
3, 65880, Note_on_c, 1, 65, 73
3, 66060, Note_on_c, 1, 65, 0
3, 66060, Note_on_c, 1, 77, 0
3, 66060, Note_on_c, 1, 77, 64
3, 66060, Note_on_c, 1, 65, 65
3, 66180, Note_on_c, 1, 65, 0
3, 66180, Note_on_c, 1, 77, 0
3, 66180, Note_on_c, 1, 82, 66
3, 66180, Note_on_c, 1, 70, 72
3, 66210, Note_on_c, 1, 70, 0
3, 66210, Note_on_c, 1, 82, 0
3, 66240, Note_on_c, 1, 70, 61
3, 66240, Note_on_c, 1, 82, 45
3, 66600, Note_on_c, 1, 82, 0
3, 66600, Note_on_c, 1, 70, 0
3, 66600, Note_on_c, 1, 82, 58
3, 66600, Note_on_c, 1, 70, 61
3, 66840, Note_on_c, 1, 70, 0
3, 66840, Note_on_c, 1, 82, 0
3, 66840, Note_on_c, 1, 77, 74
3, 66900, Note_on_c, 1, 77, 0
3, 66900, Note_on_c, 1, 77, 58
3, 66900, Note_on_c, 1, 74, 51
3, 66930, Note_on_c, 1, 74, 0
3, 66930, Note_on_c, 1, 77, 0
3, 66960, Note_on_c, 1, 77, 58
3, 66960, Note_on_c, 1, 67, 62
3, 67020, Note_on_c, 1, 67, 0
3, 67020, Note_on_c, 1, 77, 0
3, 67020, Note_on_c, 1, 76, 64
3, 67020, Note_on_c, 1, 70, 76
3, 67080, Note_on_c, 1, 70, 0
3, 67080, Note_on_c, 1, 76, 0
3, 67080, Note_on_c, 1, 75, 69
3, 67110, Note_on_c, 1, 75, 0
3, 67140, Note_on_c, 1, 75, 67
3, 67140, Note_on_c, 1, 65, 78
3, 67200, Note_on_c, 1, 65, 0
3, 67200, Note_on_c, 1, 75, 0
3, 67200, Note_on_c, 1, 74, 68
3, 67200, Note_on_c, 1, 70, 72
3, 67260, Note_on_c, 1, 70, 0
3, 67260, Note_on_c, 1, 74, 0
3, 67260, Note_on_c, 1, 73, 53
3, 67260, Note_on_c, 1, 70, 63
3, 67290, Note_on_c, 1, 70, 0
3, 67290, Note_on_c, 1, 73, 0
3, 67320, Note_on_c, 1, 73, 64
3, 67320, Note_on_c, 1, 70, 73
3, 67380, Note_on_c, 1, 70, 0
3, 67380, Note_on_c, 1, 73, 0
3, 67380, Note_on_c, 1, 74, 62
3, 67380, Note_on_c, 1, 70, 65
3, 67440, Note_on_c, 1, 70, 0
3, 67440, Note_on_c, 1, 74, 0
3, 67440, Note_on_c, 1, 74, 63
3, 67440, Note_on_c, 1, 70, 72
3, 67470, Note_on_c, 1, 70, 0
3, 67470, Note_on_c, 1, 74, 0
3, 67500, Note_on_c, 1, 74, 74
3, 67500, Note_on_c, 1, 70, 72
3, 67560, Note_on_c, 1, 70, 0
3, 67560, Note_on_c, 1, 74, 0
3, 67560, Note_on_c, 1, 76, 63
3, 67560, Note_on_c, 1, 72, 71
3, 67620, Note_on_c, 1, 72, 0
3, 67620, Note_on_c, 1, 76, 0
3, 67620, Note_on_c, 1, 72, 62
3, 67620, Note_on_c, 1, 69, 64
3, 67650, Note_on_c, 1, 69, 0
3, 67650, Note_on_c, 1, 72, 0
3, 67680, Note_on_c, 1, 70, 84
3, 67800, Note_on_c, 1, 70, 0
3, 68040, Note_on_c, 1, 75, 46
3, 68040, Note_on_c, 1, 69, 53
3, 68160, Note_on_c, 1, 69, 0
3, 68160, Note_on_c, 1, 75, 0
3, 68400, Note_on_c, 1, 70, 76
3, 68430, Note_on_c, 1, 70, 0
3, 68460, Note_on_c, 1, 74, 81
3, 68640, Note_on_c, 1, 74, 0
3, 68640, Note_on_c, 1, 72, 70
3, 68670, Note_on_c, 1, 72, 0
3, 68700, Note_on_c, 1, 70, 76
3, 68730, Note_on_c, 1, 70, 0
3, 68760, Note_on_c, 1, 69, 84
3, 68790, Note_on_c, 1, 69, 0
3, 68820, Note_on_c, 1, 79, 72
3, 68820, Note_on_c, 1, 75, 81
3, 68850, Note_on_c, 1, 75, 0
3, 68850, Note_on_c, 1, 79, 0
3, 68880, Note_on_c, 1, 77, 62
3, 68880, Note_on_c, 1, 74, 84
3, 68910, Note_on_c, 1, 74, 0
3, 68910, Note_on_c, 1, 77, 0
3, 68940, Note_on_c, 1, 75, 76
3, 68970, Note_on_c, 1, 75, 0
3, 69000, Note_on_c, 1, 74, 65
3, 69000, Note_on_c, 1, 70, 68
3, 69030, Note_on_c, 1, 70, 0
3, 69030, Note_on_c, 1, 74, 0
3, 69060, Note_on_c, 1, 72, 45
3, 69060, Note_on_c, 1, 69, 80
3, 69090, Note_on_c, 1, 69, 0
3, 69090, Note_on_c, 1, 72, 0
3, 69120, Note_on_c, 1, 70, 77
3, 69240, Note_on_c, 1, 70, 0
3, 69300, Note_on_c, 1, 74, 73
3, 69300, Note_on_c, 1, 65, 64
3, 69420, Note_on_c, 1, 65, 0
3, 69420, Note_on_c, 1, 74, 0
3, 69480, Note_on_c, 1, 70, 69
3, 69480, Note_on_c, 1, 62, 80
3, 69600, Note_on_c, 1, 62, 0
3, 69600, Note_on_c, 1, 70, 0
3, 70560, Note_on_c, 1, 82, 63
3, 70560, Note_on_c, 1, 70, 80
3, 71280, Note_on_c, 1, 70, 0
3, 71280, Note_on_c, 1, 82, 0
3, 71280, Note_on_c, 1, 81, 68
3, 71280, Note_on_c, 1, 69, 62
3, 71400, Note_on_c, 1, 69, 0
3, 71400, Note_on_c, 1, 81, 0
3, 72720, Note_on_c, 1, 82, 68
3, 72720, Note_on_c, 1, 70, 81
3, 73200, Note_on_c, 1, 70, 0
3, 73200, Note_on_c, 1, 82, 0
3, 73200, Note_on_c, 1, 82, 41
3, 73200, Note_on_c, 1, 70, 61
3, 73260, Note_on_c, 1, 70, 0
3, 73260, Note_on_c, 1, 82, 0
3, 73260, Note_on_c, 1, 80, 66
3, 73260, Note_on_c, 1, 68, 77
3, 73440, Note_on_c, 1, 68, 0
3, 73440, Note_on_c, 1, 80, 0
3, 73440, Note_on_c, 1, 79, 53
3, 73440, Note_on_c, 1, 67, 64
3, 73560, Note_on_c, 1, 67, 0
3, 73560, Note_on_c, 1, 79, 0
3, 82020, Note_on_c, 1, 70, 70
3, 82050, Note_on_c, 1, 70, 0
3, 82050, Note_on_c, 1, 72, 65
3, 82080, Note_on_c, 1, 72, 0
3, 82080, Note_on_c, 1, 70, 69
3, 82080, Note_on_c, 1, 73, 65
3, 82140, Note_on_c, 1, 73, 0
3, 82140, Note_on_c, 1, 70, 0
3, 82140, Note_on_c, 1, 70, 61
3, 82140, Note_on_c, 1, 74, 53
3, 82200, Note_on_c, 1, 74, 0
3, 82200, Note_on_c, 1, 70, 0
3, 82200, Note_on_c, 1, 70, 69
3, 82200, Note_on_c, 1, 74, 69
3, 82230, Note_on_c, 1, 74, 0
3, 82230, Note_on_c, 1, 70, 0
3, 82260, Note_on_c, 1, 70, 66
3, 82260, Note_on_c, 1, 73, 66
3, 82320, Note_on_c, 1, 73, 0
3, 82320, Note_on_c, 1, 70, 0
3, 82320, Note_on_c, 1, 70, 70
3, 82320, Note_on_c, 1, 74, 64
3, 82380, Note_on_c, 1, 74, 0
3, 82380, Note_on_c, 1, 70, 0
3, 82380, Note_on_c, 1, 70, 77
3, 82380, Note_on_c, 1, 74, 77
3, 82410, Note_on_c, 1, 74, 0
3, 82410, Note_on_c, 1, 70, 0
3, 82440, Note_on_c, 1, 70, 73
3, 82440, Note_on_c, 1, 73, 70
3, 82500, Note_on_c, 1, 73, 0
3, 82500, Note_on_c, 1, 70, 0
3, 82500, Note_on_c, 1, 70, 82
3, 82500, Note_on_c, 1, 74, 81
3, 82560, Note_on_c, 1, 74, 0
3, 82560, Note_on_c, 1, 70, 0
3, 82560, Note_on_c, 1, 70, 85
3, 82560, Note_on_c, 1, 74, 76
3, 82590, Note_on_c, 1, 74, 0
3, 82590, Note_on_c, 1, 70, 0
3, 82620, Note_on_c, 1, 79, 84
3, 82620, Note_on_c, 1, 70, 98
3, 82800, Note_on_c, 1, 70, 0
3, 82800, Note_on_c, 1, 79, 0
3, 83460, Note_on_c, 1, 70, 70
3, 83490, Note_on_c, 1, 70, 0
3, 83490, Note_on_c, 1, 72, 65
3, 83520, Note_on_c, 1, 72, 0
3, 83520, Note_on_c, 1, 73, 65
3, 83520, Note_on_c, 1, 70, 69
3, 83580, Note_on_c, 1, 70, 0
3, 83580, Note_on_c, 1, 73, 0
3, 83580, Note_on_c, 1, 74, 53
3, 83580, Note_on_c, 1, 70, 61
3, 83640, Note_on_c, 1, 70, 0
3, 83640, Note_on_c, 1, 74, 0
3, 83640, Note_on_c, 1, 74, 69
3, 83640, Note_on_c, 1, 70, 69
3, 83670, Note_on_c, 1, 70, 0
3, 83670, Note_on_c, 1, 74, 0
3, 83700, Note_on_c, 1, 73, 66
3, 83700, Note_on_c, 1, 70, 66
3, 83760, Note_on_c, 1, 70, 0
3, 83760, Note_on_c, 1, 73, 0
3, 83760, Note_on_c, 1, 74, 64
3, 83760, Note_on_c, 1, 70, 70
3, 83820, Note_on_c, 1, 70, 0
3, 83820, Note_on_c, 1, 74, 0
3, 83820, Note_on_c, 1, 74, 77
3, 83820, Note_on_c, 1, 70, 77
3, 83850, Note_on_c, 1, 70, 0
3, 83850, Note_on_c, 1, 74, 0
3, 83880, Note_on_c, 1, 73, 70
3, 83880, Note_on_c, 1, 70, 73
3, 83940, Note_on_c, 1, 70, 0
3, 83940, Note_on_c, 1, 73, 0
3, 83940, Note_on_c, 1, 74, 81
3, 83940, Note_on_c, 1, 70, 82
3, 84000, Note_on_c, 1, 70, 0
3, 84000, Note_on_c, 1, 74, 0
3, 84000, Note_on_c, 1, 74, 76
3, 84000, Note_on_c, 1, 70, 85
3, 84030, Note_on_c, 1, 70, 0
3, 84030, Note_on_c, 1, 74, 0
3, 84060, Note_on_c, 1, 76, 86
3, 84060, Note_on_c, 1, 83, 72
3, 84240, Note_on_c, 1, 83, 0
3, 84240, Note_on_c, 1, 76, 0
3, 84960, Note_on_c, 1, 69, 76
3, 84960, Note_on_c, 1, 72, 47
3, 85320, Note_on_c, 1, 72, 0
3, 85320, Note_on_c, 1, 69, 0
3, 85320, Note_on_c, 1, 70, 72
3, 85320, Note_on_c, 1, 74, 66
3, 85680, Note_on_c, 1, 74, 0
3, 85680, Note_on_c, 1, 70, 0
3, 86400, Note_on_c, 1, 69, 76
3, 86400, Note_on_c, 1, 72, 47
3, 86760, Note_on_c, 1, 72, 0
3, 86760, Note_on_c, 1, 69, 0
3, 86760, Note_on_c, 1, 70, 72
3, 86760, Note_on_c, 1, 74, 66
3, 87120, Note_on_c, 1, 74, 0
3, 87120, Note_on_c, 1, 70, 0
3, 89640, Note_on_c, 1, 74, 67
3, 89670, Note_on_c, 1, 74, 0
3, 89700, Note_on_c, 1, 74, 64
3, 89730, Note_on_c, 1, 74, 0
3, 89760, Note_on_c, 1, 76, 70
3, 89790, Note_on_c, 1, 76, 0
3, 89820, Note_on_c, 1, 77, 68
3, 89940, Note_on_c, 1, 77, 0
3, 90000, Note_on_c, 1, 82, 53
3, 90000, Note_on_c, 1, 74, 68
3, 90030, Note_on_c, 1, 74, 0
3, 90030, Note_on_c, 1, 82, 0
3, 90060, Note_on_c, 1, 82, 52
3, 90060, Note_on_c, 1, 74, 85
3, 90090, Note_on_c, 1, 74, 0
3, 90090, Note_on_c, 1, 82, 0
3, 90120, Note_on_c, 1, 82, 51
3, 90120, Note_on_c, 1, 76, 89
3, 90150, Note_on_c, 1, 76, 0
3, 90150, Note_on_c, 1, 82, 0
3, 90180, Note_on_c, 1, 81, 59
3, 90180, Note_on_c, 1, 77, 49
3, 90300, Note_on_c, 1, 77, 0
3, 90300, Note_on_c, 1, 81, 0
3, 90360, Note_on_c, 1, 79, 68
3, 90390, Note_on_c, 1, 79, 0
3, 90420, Note_on_c, 1, 79, 69
3, 90450, Note_on_c, 1, 79, 0
3, 90480, Note_on_c, 1, 81, 65
3, 90510, Note_on_c, 1, 81, 0
3, 90540, Note_on_c, 1, 82, 67
3, 90660, Note_on_c, 1, 82, 0
3, 90720, Note_on_c, 1, 75, 60
3, 90720, Note_on_c, 1, 67, 69
3, 90750, Note_on_c, 1, 67, 0
3, 90750, Note_on_c, 1, 75, 0
3, 90780, Note_on_c, 1, 75, 57
3, 90780, Note_on_c, 1, 67, 62
3, 90810, Note_on_c, 1, 67, 0
3, 90810, Note_on_c, 1, 75, 0
3, 90840, Note_on_c, 1, 75, 50
3, 90840, Note_on_c, 1, 70, 64
3, 90870, Note_on_c, 1, 70, 0
3, 90870, Note_on_c, 1, 75, 0
3, 90900, Note_on_c, 1, 74, 61
3, 90900, Note_on_c, 1, 70, 68
3, 91020, Note_on_c, 1, 70, 0
3, 91020, Note_on_c, 1, 74, 0
3, 91080, Note_on_c, 1, 72, 58
3, 91080, Note_on_c, 1, 67, 58
3, 91200, Note_on_c, 1, 67, 0
3, 91200, Note_on_c, 1, 72, 0
3, 91440, Note_on_c, 1, 72, 34
3, 91440, Note_on_c, 1, 67, 55
3, 91560, Note_on_c, 1, 67, 0
3, 91560, Note_on_c, 1, 72, 0
3, 91800, Note_on_c, 1, 72, 42
3, 91800, Note_on_c, 1, 67, 62
3, 91920, Note_on_c, 1, 67, 0
3, 91920, Note_on_c, 1, 72, 0
3, 96840, Note_on_c, 1, 70, 80
3, 96840, Note_on_c, 1, 62, 94
3, 96960, Note_on_c, 1, 62, 0
3, 96960, Note_on_c, 1, 70, 0
3, 97020, Note_on_c, 1, 77, 77
3, 97020, Note_on_c, 1, 65, 84
3, 97140, Note_on_c, 1, 65, 0
3, 97140, Note_on_c, 1, 77, 0
3, 97200, Note_on_c, 1, 77, 82
3, 97200, Note_on_c, 1, 65, 89
3, 97560, Note_on_c, 1, 65, 0
3, 97560, Note_on_c, 1, 77, 0
3, 97560, Note_on_c, 1, 77, 73
3, 97560, Note_on_c, 1, 65, 84
3, 97680, Note_on_c, 1, 65, 0
3, 97680, Note_on_c, 1, 77, 0
3, 97740, Note_on_c, 1, 77, 77
3, 97740, Note_on_c, 1, 65, 84
3, 97860, Note_on_c, 1, 65, 0
3, 97860, Note_on_c, 1, 77, 0
3, 97920, Note_on_c, 1, 77, 73
3, 97920, Note_on_c, 1, 65, 89
3, 98100, Note_on_c, 1, 65, 0
3, 98100, Note_on_c, 1, 77, 0
3, 98100, Note_on_c, 1, 77, 68
3, 98100, Note_on_c, 1, 65, 76
3, 98220, Note_on_c, 1, 65, 0
3, 98220, Note_on_c, 1, 77, 0
3, 98220, Note_on_c, 1, 82, 77
3, 98220, Note_on_c, 1, 70, 93
3, 98250, Note_on_c, 1, 70, 0
3, 98250, Note_on_c, 1, 82, 0
3, 98280, Note_on_c, 1, 82, 70
3, 98280, Note_on_c, 1, 70, 85
3, 98640, Note_on_c, 1, 70, 0
3, 98640, Note_on_c, 1, 82, 0
3, 98640, Note_on_c, 1, 82, 67
3, 98640, Note_on_c, 1, 70, 89
3, 98820, Note_on_c, 1, 70, 0
3, 98820, Note_on_c, 1, 82, 0
3, 98820, Note_on_c, 1, 82, 73
3, 98820, Note_on_c, 1, 70, 89
3, 98880, Note_on_c, 1, 70, 0
3, 98880, Note_on_c, 1, 82, 0
3, 98880, Note_on_c, 1, 77, 74
3, 98880, Note_on_c, 1, 72, 59
3, 98940, Note_on_c, 1, 72, 0
3, 98940, Note_on_c, 1, 77, 0
3, 98940, Note_on_c, 1, 77, 77
3, 98940, Note_on_c, 1, 74, 89
3, 98970, Note_on_c, 1, 74, 0
3, 98970, Note_on_c, 1, 77, 0
3, 99000, Note_on_c, 1, 77, 70
3, 99000, Note_on_c, 1, 67, 84
3, 99060, Note_on_c, 1, 67, 0
3, 99060, Note_on_c, 1, 77, 0
3, 99060, Note_on_c, 1, 76, 76
3, 99060, Note_on_c, 1, 70, 86
3, 99120, Note_on_c, 1, 70, 0
3, 99120, Note_on_c, 1, 76, 0
3, 99120, Note_on_c, 1, 75, 76
3, 99120, Note_on_c, 1, 72, 57
3, 99150, Note_on_c, 1, 72, 0
3, 99150, Note_on_c, 1, 75, 0
3, 99180, Note_on_c, 1, 75, 81
3, 99180, Note_on_c, 1, 65, 94
3, 99240, Note_on_c, 1, 65, 0
3, 99240, Note_on_c, 1, 75, 0
3, 99240, Note_on_c, 1, 74, 85
3, 99240, Note_on_c, 1, 70, 86
3, 99300, Note_on_c, 1, 70, 0
3, 99300, Note_on_c, 1, 74, 0
3, 99300, Note_on_c, 1, 73, 76
3, 99300, Note_on_c, 1, 70, 80
3, 99330, Note_on_c, 1, 70, 0
3, 99330, Note_on_c, 1, 73, 0
3, 99360, Note_on_c, 1, 73, 81
3, 99360, Note_on_c, 1, 70, 89
3, 99420, Note_on_c, 1, 70, 0
3, 99420, Note_on_c, 1, 73, 0
3, 99420, Note_on_c, 1, 74, 80
3, 99420, Note_on_c, 1, 70, 89
3, 99480, Note_on_c, 1, 70, 0
3, 99480, Note_on_c, 1, 74, 0
3, 99480, Note_on_c, 1, 74, 89
3, 99480, Note_on_c, 1, 70, 86
3, 99510, Note_on_c, 1, 70, 0
3, 99510, Note_on_c, 1, 74, 0
3, 99540, Note_on_c, 1, 74, 82
3, 99540, Note_on_c, 1, 70, 80
3, 99600, Note_on_c, 1, 70, 0
3, 99600, Note_on_c, 1, 74, 0
3, 99600, Note_on_c, 1, 75, 93
3, 99600, Note_on_c, 1, 72, 58
3, 99660, Note_on_c, 1, 72, 0
3, 99660, Note_on_c, 1, 75, 0
3, 99660, Note_on_c, 1, 72, 61
3, 99660, Note_on_c, 1, 69, 81
3, 99690, Note_on_c, 1, 69, 0
3, 99690, Note_on_c, 1, 72, 0
3, 99720, Note_on_c, 1, 70, 90
3, 99840, Note_on_c, 1, 70, 0
3, 100080, Note_on_c, 1, 75, 69
3, 100110, Note_on_c, 1, 75, 0
3, 100140, Note_on_c, 1, 78, 68
3, 100380, Note_on_c, 1, 78, 0
3, 100380, Note_on_c, 1, 75, 73
3, 100410, Note_on_c, 1, 75, 0
3, 100440, Note_on_c, 1, 74, 68
3, 100560, Note_on_c, 1, 74, 0
3, 100800, Note_on_c, 1, 75, 69
3, 100830, Note_on_c, 1, 75, 0
3, 100860, Note_on_c, 1, 78, 68
3, 101100, Note_on_c, 1, 78, 0
3, 101100, Note_on_c, 1, 75, 73
3, 101130, Note_on_c, 1, 75, 0
3, 101160, Note_on_c, 1, 74, 68
3, 101280, Note_on_c, 1, 74, 0
3, 102600, Note_on_c, 1, 70, 61
3, 102720, Note_on_c, 1, 70, 0
3, 102960, Note_on_c, 1, 75, 69
3, 102990, Note_on_c, 1, 75, 0
3, 103020, Note_on_c, 1, 78, 68
3, 103260, Note_on_c, 1, 78, 0
3, 103260, Note_on_c, 1, 75, 73
3, 103290, Note_on_c, 1, 75, 0
3, 103320, Note_on_c, 1, 74, 68
3, 103440, Note_on_c, 1, 74, 0
3, 103680, Note_on_c, 1, 75, 69
3, 103710, Note_on_c, 1, 75, 0
3, 103740, Note_on_c, 1, 78, 68
3, 103980, Note_on_c, 1, 78, 0
3, 103980, Note_on_c, 1, 75, 73
3, 104010, Note_on_c, 1, 75, 0
3, 104040, Note_on_c, 1, 74, 68
3, 104160, Note_on_c, 1, 74, 0
3, 108540, Note_on_c, 1, 74, 43
3, 108540, Note_on_c, 1, 70, 43
3, 108660, Note_on_c, 1, 70, 0
3, 108660, Note_on_c, 1, 74, 0
3, 108900, Note_on_c, 1, 75, 41
3, 109020, Note_on_c, 1, 75, 0
3, 109260, Note_on_c, 1, 74, 37
3, 109260, Note_on_c, 1, 70, 44
3, 109380, Note_on_c, 1, 70, 0
3, 109380, Note_on_c, 1, 74, 0
3, 109620, Note_on_c, 1, 75, 38
3, 109740, Note_on_c, 1, 75, 0
3, 109800, Note_on_c, 1, 74, 44
3, 109800, Note_on_c, 1, 70, 38
3, 109920, Note_on_c, 1, 70, 0
3, 109920, Note_on_c, 1, 74, 0
3, 109980, Note_on_c, 1, 70, 42
3, 109980, Note_on_c, 1, 62, 40
3, 110040, Note_on_c, 1, 62, 0
3, 110040, Note_on_c, 1, 70, 0
3, 110700, Note_on_c, 1, 74, 31
3, 110700, Note_on_c, 1, 70, 40
3, 110820, Note_on_c, 1, 70, 0
3, 110820, Note_on_c, 1, 74, 0
3, 111420, Note_on_c, 1, 77, 37
3, 111420, Note_on_c, 1, 74, 42
3, 111540, Note_on_c, 1, 74, 0
3, 111540, Note_on_c, 1, 77, 0
3, 115200, Note_on_c, 1, 74, 45
3, 115200, Note_on_c, 1, 71, 53
3, 115320, Note_on_c, 1, 71, 0
3, 115320, Note_on_c, 1, 74, 0
3, 115560, Note_on_c, 1, 75, 44
3, 115680, Note_on_c, 1, 75, 0
3, 115920, Note_on_c, 1, 72, 66
3, 115920, Note_on_c, 1, 69, 78
3, 116040, Note_on_c, 1, 69, 0
3, 116040, Note_on_c, 1, 72, 0
3, 116280, Note_on_c, 1, 70, 71
3, 116280, Note_on_c, 1, 62, 85
3, 116340, Note_on_c, 1, 62, 0
3, 116340, Note_on_c, 1, 70, 0
3, 116340, Note_on_c, 1, 74, 78
3, 116340, Note_on_c, 1, 70, 84
3, 116400, Note_on_c, 1, 70, 0
3, 116400, Note_on_c, 1, 74, 0
3, 116400, Note_on_c, 1, 74, 80
3, 116400, Note_on_c, 1, 70, 82
3, 116460, Note_on_c, 1, 70, 0
3, 116460, Note_on_c, 1, 74, 0
3, 116460, Note_on_c, 1, 74, 81
3, 116460, Note_on_c, 1, 70, 84
3, 116520, Note_on_c, 1, 70, 0
3, 116520, Note_on_c, 1, 74, 0
3, 116520, Note_on_c, 1, 74, 85
3, 116520, Note_on_c, 1, 70, 80
3, 116580, Note_on_c, 1, 70, 0
3, 116580, Note_on_c, 1, 74, 0
3, 116580, Note_on_c, 1, 74, 73
3, 116580, Note_on_c, 1, 70, 80
3, 116640, Note_on_c, 1, 70, 0
3, 116640, Note_on_c, 1, 74, 0
3, 116640, Note_on_c, 1, 74, 85
3, 116640, Note_on_c, 1, 70, 80
3, 116700, Note_on_c, 1, 70, 0
3, 116700, Note_on_c, 1, 74, 0
3, 116700, Note_on_c, 1, 82, 70
3, 116700, Note_on_c, 1, 74, 95
3, 116760, Note_on_c, 1, 74, 0
3, 116760, Note_on_c, 1, 82, 0
3, 116760, Note_on_c, 1, 82, 68
3, 116760, Note_on_c, 1, 74, 99
3, 116820, Note_on_c, 1, 74, 0
3, 116820, Note_on_c, 1, 82, 0
3, 116820, Note_on_c, 1, 82, 67
3, 116820, Note_on_c, 1, 74, 93
3, 116880, Note_on_c, 1, 74, 0
3, 116880, Note_on_c, 1, 82, 0
3, 116880, Note_on_c, 1, 82, 64
3, 116880, Note_on_c, 1, 74, 99
3, 116940, Note_on_c, 1, 74, 0
3, 116940, Note_on_c, 1, 82, 0
3, 116940, Note_on_c, 1, 82, 68
3, 116940, Note_on_c, 1, 74, 99
3, 117000, Note_on_c, 1, 74, 0
3, 117000, Note_on_c, 1, 82, 0
3, 117000, Note_on_c, 1, 82, 66
3, 117000, Note_on_c, 1, 74, 95
3, 117120, Note_on_c, 1, 74, 0
3, 117120, Note_on_c, 1, 82, 0
3, 117180, Note_on_c, 1, 82, 70
3, 117180, Note_on_c, 1, 74, 99
3, 117300, Note_on_c, 1, 74, 0
3, 117300, Note_on_c, 1, 82, 0
3, 117360, Note_on_c, 1, 82, 69
3, 117360, Note_on_c, 1, 74, 99
3, 117480, Note_on_c, 1, 74, 0
3, 117480, Note_on_c, 1, 82, 0
3, 117490, Control_c, 1, 7, 99
3, 117490, Control_c, 1, 10, 60
3, 117490, Control_c, 1, 93, 0
3, 117490, Control_c, 1, 91, 66
3, 117490, End_track
4, 0, Start_track
4, 0, Title_t, "Bassoons"
4, 0, Program_c, 2, 70
4, 0, Control_c, 2, 7, 100
4, 0, Control_c, 2, 10, 49
4, 2880, Note_on_c, 2, 62, 80
4, 2880, Note_on_c, 2, 46, 94
4, 2910, Note_on_c, 2, 46, 0
4, 2910, Note_on_c, 2, 62, 0
4, 2940, Note_on_c, 2, 58, 89
4, 2940, Note_on_c, 2, 50, 99
4, 2970, Note_on_c, 2, 50, 0
4, 3000, Note_on_c, 2, 53, 82
4, 3030, Note_on_c, 2, 53, 0
4, 3060, Note_on_c, 2, 58, 0
4, 3060, Note_on_c, 2, 62, 81
4, 3060, Note_on_c, 2, 46, 94
4, 3090, Note_on_c, 2, 46, 0
4, 3090, Note_on_c, 2, 62, 0
4, 3120, Note_on_c, 2, 58, 89
4, 3120, Note_on_c, 2, 50, 99
4, 3150, Note_on_c, 2, 50, 0
4, 3180, Note_on_c, 2, 53, 86
4, 3210, Note_on_c, 2, 53, 0
4, 3210, Note_on_c, 2, 58, 0
4, 3225, Note_on_c, 2, 60, 84
4, 3240, Note_on_c, 2, 60, 0
4, 3240, Note_on_c, 2, 58, 81
4, 3240, Note_on_c, 2, 50, 86
4, 3300, Note_on_c, 2, 50, 0
4, 3300, Note_on_c, 2, 58, 0
4, 3300, Note_on_c, 2, 57, 104
4, 3300, Note_on_c, 2, 48, 98
4, 3360, Note_on_c, 2, 48, 0
4, 3360, Note_on_c, 2, 57, 0
4, 3360, Note_on_c, 2, 58, 89
4, 3360, Note_on_c, 2, 46, 86
4, 3390, Note_on_c, 2, 46, 0
4, 3390, Note_on_c, 2, 58, 0
4, 3420, Note_on_c, 2, 60, 95
4, 3420, Note_on_c, 2, 45, 99
4, 3450, Note_on_c, 2, 45, 0
4, 3480, Note_on_c, 2, 43, 93
4, 3510, Note_on_c, 2, 43, 0
4, 3540, Note_on_c, 2, 60, 0
4, 3540, Note_on_c, 2, 41, 95
4, 3570, Note_on_c, 2, 41, 0
4, 3600, Note_on_c, 2, 63, 89
4, 3600, Note_on_c, 2, 41, 94
4, 3630, Note_on_c, 2, 63, 0
4, 3660, Note_on_c, 2, 41, 0
4, 3660, Note_on_c, 2, 60, 101
4, 3660, Note_on_c, 2, 53, 85
4, 3720, Note_on_c, 2, 53, 0
4, 3720, Note_on_c, 2, 53, 78
4, 3780, Note_on_c, 2, 53, 0
4, 3780, Note_on_c, 2, 60, 0
4, 3780, Note_on_c, 2, 63, 82
4, 3780, Note_on_c, 2, 41, 94
4, 3810, Note_on_c, 2, 63, 0
4, 3840, Note_on_c, 2, 41, 0
4, 3840, Note_on_c, 2, 60, 99
4, 3840, Note_on_c, 2, 53, 74
4, 3900, Note_on_c, 2, 53, 0
4, 3900, Note_on_c, 2, 53, 81
4, 3930, Note_on_c, 2, 60, 0
4, 3945, Note_on_c, 2, 62, 77
4, 3960, Note_on_c, 2, 62, 0
4, 3960, Note_on_c, 2, 53, 0
4, 3960, Note_on_c, 2, 60, 90
4, 3960, Note_on_c, 2, 51, 89
4, 4020, Note_on_c, 2, 51, 0
4, 4020, Note_on_c, 2, 60, 0
4, 4020, Note_on_c, 2, 58, 93
4, 4020, Note_on_c, 2, 50, 98
4, 4080, Note_on_c, 2, 50, 0
4, 4080, Note_on_c, 2, 58, 0
4, 4080, Note_on_c, 2, 60, 90
4, 4080, Note_on_c, 2, 48, 95
4, 4110, Note_on_c, 2, 48, 0
4, 4110, Note_on_c, 2, 60, 0
4, 4140, Note_on_c, 2, 62, 85
4, 4140, Note_on_c, 2, 46, 93
4, 4170, Note_on_c, 2, 46, 0
4, 4200, Note_on_c, 2, 48, 99
4, 4230, Note_on_c, 2, 48, 0
4, 4260, Note_on_c, 2, 62, 0
4, 4260, Note_on_c, 2, 58, 86
4, 4260, Note_on_c, 2, 50, 101
4, 4290, Note_on_c, 2, 50, 0
4, 4290, Note_on_c, 2, 58, 0
4, 4320, Note_on_c, 2, 58, 85
4, 4320, Note_on_c, 2, 51, 84
4, 4380, Note_on_c, 2, 51, 0
4, 4380, Note_on_c, 2, 46, 90
4, 4440, Note_on_c, 2, 46, 0
4, 4440, Note_on_c, 2, 51, 85
4, 4470, Note_on_c, 2, 51, 0
4, 4500, Note_on_c, 2, 50, 95
4, 4560, Note_on_c, 2, 50, 0
4, 4560, Note_on_c, 2, 46, 84
4, 4620, Note_on_c, 2, 46, 0
4, 4620, Note_on_c, 2, 50, 99
4, 4650, Note_on_c, 2, 50, 0
4, 4680, Note_on_c, 2, 58, 0
4, 4680, Note_on_c, 2, 58, 62
4, 4680, Note_on_c, 2, 51, 81
4, 4740, Note_on_c, 2, 51, 0
4, 4740, Note_on_c, 2, 58, 0
4, 4740, Note_on_c, 2, 58, 73
4, 4740, Note_on_c, 2, 46, 89
4, 4800, Note_on_c, 2, 46, 0
4, 4800, Note_on_c, 2, 58, 0
4, 4800, Note_on_c, 2, 58, 73
4, 4800, Note_on_c, 2, 51, 86
4, 4830, Note_on_c, 2, 51, 0
4, 4860, Note_on_c, 2, 58, 0
4, 4860, Note_on_c, 2, 58, 80
4, 4860, Note_on_c, 2, 50, 99
4, 4920, Note_on_c, 2, 50, 0
4, 4920, Note_on_c, 2, 58, 0
4, 4920, Note_on_c, 2, 65, 86
4, 4920, Note_on_c, 2, 56, 89
4, 4980, Note_on_c, 2, 56, 0
4, 4980, Note_on_c, 2, 65, 0
4, 4980, Note_on_c, 2, 65, 77
4, 4980, Note_on_c, 2, 59, 81
4, 5010, Note_on_c, 2, 59, 0
4, 5010, Note_on_c, 2, 65, 0
4, 5040, Note_on_c, 2, 65, 86
4, 5040, Note_on_c, 2, 60, 81
4, 5100, Note_on_c, 2, 60, 0
4, 5100, Note_on_c, 2, 65, 0
4, 5100, Note_on_c, 2, 64, 85
4, 5100, Note_on_c, 2, 55, 76
4, 5160, Note_on_c, 2, 55, 0
4, 5160, Note_on_c, 2, 64, 0
4, 5160, Note_on_c, 2, 63, 84
4, 5160, Note_on_c, 2, 57, 99
4, 5190, Note_on_c, 2, 57, 0
4, 5190, Note_on_c, 2, 63, 0
4, 5220, Note_on_c, 2, 63, 80
4, 5220, Note_on_c, 2, 58, 73
4, 5280, Note_on_c, 2, 58, 0
4, 5280, Note_on_c, 2, 63, 0
4, 5280, Note_on_c, 2, 62, 89
4, 5280, Note_on_c, 2, 55, 89
4, 5340, Note_on_c, 2, 55, 0
4, 5340, Note_on_c, 2, 62, 0
4, 5340, Note_on_c, 2, 61, 76
4, 5340, Note_on_c, 2, 52, 95
4, 5370, Note_on_c, 2, 52, 0
4, 5370, Note_on_c, 2, 61, 0
4, 5400, Note_on_c, 2, 61, 80
4, 5400, Note_on_c, 2, 41, 94
4, 5460, Note_on_c, 2, 41, 0
4, 5460, Note_on_c, 2, 61, 0
4, 5460, Note_on_c, 2, 62, 89
4, 5460, Note_on_c, 2, 53, 76
4, 5520, Note_on_c, 2, 53, 0
4, 5520, Note_on_c, 2, 62, 0
4, 5520, Note_on_c, 2, 62, 89
4, 5520, Note_on_c, 2, 53, 76
4, 5550, Note_on_c, 2, 62, 0
4, 5580, Note_on_c, 2, 53, 0
4, 5580, Note_on_c, 2, 62, 90
4, 5580, Note_on_c, 2, 41, 89
4, 5640, Note_on_c, 2, 41, 0
4, 5640, Note_on_c, 2, 62, 0
4, 5640, Note_on_c, 2, 63, 84
4, 5640, Note_on_c, 2, 53, 72
4, 5700, Note_on_c, 2, 53, 0
4, 5700, Note_on_c, 2, 63, 0
4, 5700, Note_on_c, 2, 53, 76
4, 5700, Note_on_c, 2, 60, 89
4, 5730, Note_on_c, 2, 60, 0
4, 5760, Note_on_c, 2, 53, 0
4, 5760, Note_on_c, 2, 58, 80
4, 5760, Note_on_c, 2, 46, 86
4, 5880, Note_on_c, 2, 46, 0
4, 5880, Note_on_c, 2, 58, 0
4, 6120, Note_on_c, 2, 65, 67
4, 6120, Note_on_c, 2, 53, 53
4, 6240, Note_on_c, 2, 53, 0
4, 6240, Note_on_c, 2, 65, 0
4, 6480, Note_on_c, 2, 58, 90
4, 6480, Note_on_c, 2, 58, 76
4, 6510, Note_on_c, 2, 58, 0
4, 6510, Note_on_c, 2, 58, 0
4, 6540, Note_on_c, 2, 62, 101
4, 6540, Note_on_c, 2, 46, 94
4, 6570, Note_on_c, 2, 46, 0
4, 6600, Note_on_c, 2, 48, 89
4, 6630, Note_on_c, 2, 48, 0
4, 6660, Note_on_c, 2, 50, 90
4, 6690, Note_on_c, 2, 50, 0
4, 6720, Note_on_c, 2, 62, 0
4, 6720, Note_on_c, 2, 60, 90
4, 6720, Note_on_c, 2, 51, 84
4, 6750, Note_on_c, 2, 51, 0
4, 6750, Note_on_c, 2, 60, 0
4, 6780, Note_on_c, 2, 58, 89
4, 6780, Note_on_c, 2, 52, 99
4, 6810, Note_on_c, 2, 52, 0
4, 6810, Note_on_c, 2, 58, 0
4, 6840, Note_on_c, 2, 57, 95
4, 6840, Note_on_c, 2, 53, 71
4, 6870, Note_on_c, 2, 53, 0
4, 6870, Note_on_c, 2, 57, 0
4, 6900, Note_on_c, 2, 67, 77
4, 6900, Note_on_c, 2, 63, 74
4, 6930, Note_on_c, 2, 63, 0
4, 6930, Note_on_c, 2, 67, 0
4, 6960, Note_on_c, 2, 65, 80
4, 6960, Note_on_c, 2, 62, 81
4, 6990, Note_on_c, 2, 62, 0
4, 6990, Note_on_c, 2, 65, 0
4, 7020, Note_on_c, 2, 63, 69
4, 7020, Note_on_c, 2, 60, 94
4, 7050, Note_on_c, 2, 60, 0
4, 7050, Note_on_c, 2, 63, 0
4, 7080, Note_on_c, 2, 62, 89
4, 7080, Note_on_c, 2, 58, 78
4, 7110, Note_on_c, 2, 58, 0
4, 7110, Note_on_c, 2, 62, 0
4, 7140, Note_on_c, 2, 60, 73
4, 7140, Note_on_c, 2, 57, 94
4, 7170, Note_on_c, 2, 57, 0
4, 7170, Note_on_c, 2, 60, 0
4, 7200, Note_on_c, 2, 58, 89
4, 7320, Note_on_c, 2, 58, 0
4, 7380, Note_on_c, 2, 62, 84
4, 7380, Note_on_c, 2, 53, 81
4, 7500, Note_on_c, 2, 53, 0
4, 7500, Note_on_c, 2, 62, 0
4, 7560, Note_on_c, 2, 58, 72
4, 7560, Note_on_c, 2, 50, 95
4, 7680, Note_on_c, 2, 50, 0
4, 7680, Note_on_c, 2, 58, 0
4, 7920, Note_on_c, 2, 58, 94
4, 8280, Note_on_c, 2, 58, 0
4, 8280, Note_on_c, 2, 65, 94
4, 8280, Note_on_c, 2, 53, 93
4, 8460, Note_on_c, 2, 53, 0
4, 8460, Note_on_c, 2, 65, 0
4, 8460, Note_on_c, 2, 62, 58
4, 8460, Note_on_c, 2, 50, 80
4, 8640, Note_on_c, 2, 50, 0
4, 8640, Note_on_c, 2, 62, 0
4, 8640, Note_on_c, 2, 58, 89
4, 8640, Note_on_c, 2, 46, 99
4, 8820, Note_on_c, 2, 46, 0
4, 8820, Note_on_c, 2, 58, 0
4, 8820, Note_on_c, 2, 55, 72
4, 8820, Note_on_c, 2, 43, 81
4, 9000, Note_on_c, 2, 43, 0
4, 9000, Note_on_c, 2, 55, 0
4, 9000, Note_on_c, 2, 50, 89
4, 9000, Note_on_c, 2, 38, 77
4, 9180, Note_on_c, 2, 38, 0
4, 9180, Note_on_c, 2, 50, 0
4, 9180, Note_on_c, 2, 52, 84
4, 9180, Note_on_c, 2, 40, 89
4, 9360, Note_on_c, 2, 40, 0
4, 9360, Note_on_c, 2, 52, 0
4, 9360, Note_on_c, 2, 53, 73
4, 9360, Note_on_c, 2, 41, 80
4, 9480, Note_on_c, 2, 41, 0
4, 9480, Note_on_c, 2, 53, 0
4, 10080, Note_on_c, 2, 65, 89
4, 10080, Note_on_c, 2, 53, 93
4, 10440, Note_on_c, 2, 53, 0
4, 10440, Note_on_c, 2, 65, 0
4, 10440, Note_on_c, 2, 60, 86
4, 10440, Note_on_c, 2, 48, 94
4, 10620, Note_on_c, 2, 48, 0
4, 10620, Note_on_c, 2, 60, 0
4, 10620, Note_on_c, 2, 57, 73
4, 10620, Note_on_c, 2, 45, 78
4, 10800, Note_on_c, 2, 45, 0
4, 10800, Note_on_c, 2, 57, 0
4, 10800, Note_on_c, 2, 53, 93
4, 10800, Note_on_c, 2, 41, 94
4, 10980, Note_on_c, 2, 41, 0
4, 10980, Note_on_c, 2, 53, 0
4, 10980, Note_on_c, 2, 62, 69
4, 10980, Note_on_c, 2, 50, 85
4, 11160, Note_on_c, 2, 50, 0
4, 11160, Note_on_c, 2, 62, 0
4, 11160, Note_on_c, 2, 57, 77
4, 11160, Note_on_c, 2, 45, 81
4, 11340, Note_on_c, 2, 45, 0
4, 11340, Note_on_c, 2, 57, 0
4, 11340, Note_on_c, 2, 59, 76
4, 11340, Note_on_c, 2, 47, 82
4, 11520, Note_on_c, 2, 47, 0
4, 11520, Note_on_c, 2, 59, 0
4, 11520, Note_on_c, 2, 60, 64
4, 11520, Note_on_c, 2, 48, 80
4, 11640, Note_on_c, 2, 48, 0
4, 11640, Note_on_c, 2, 60, 0
4, 20146, Control_c, 2, 7, 63
4, 20160, Note_on_c, 2, 53, 85
4, 20160, Note_on_c, 2, 57, 93
4, 20160, Control_c, 2, 7, 63
4, 20174, Control_c, 2, 7, 64
4, 20188, Control_c, 2, 7, 65
4, 20200, Control_c, 2, 7, 66
4, 20214, Control_c, 2, 7, 67
4, 20228, Control_c, 2, 7, 68
4, 20240, Control_c, 2, 7, 69
4, 20254, Control_c, 2, 7, 70
4, 20268, Control_c, 2, 7, 71
4, 20280, Control_c, 2, 7, 72
4, 20294, Control_c, 2, 7, 73
4, 20308, Control_c, 2, 7, 74
4, 20320, Control_c, 2, 7, 75
4, 20334, Control_c, 2, 7, 76
4, 20348, Control_c, 2, 7, 77
4, 20360, Control_c, 2, 7, 78
4, 20374, Control_c, 2, 7, 79
4, 20388, Control_c, 2, 7, 80
4, 20400, Control_c, 2, 7, 81
4, 20414, Control_c, 2, 7, 82
4, 20428, Control_c, 2, 7, 83
4, 20440, Control_c, 2, 7, 84
4, 20454, Control_c, 2, 7, 85
4, 20468, Control_c, 2, 7, 86
4, 20480, Control_c, 2, 7, 87
4, 20494, Control_c, 2, 7, 88
4, 20508, Control_c, 2, 7, 89
4, 20520, Note_on_c, 2, 57, 0
4, 20520, Note_on_c, 2, 53, 0
4, 20520, Control_c, 2, 7, 90
4, 20520, Note_on_c, 2, 57, 78
4, 20520, Note_on_c, 2, 53, 70
4, 20534, Control_c, 2, 7, 91
4, 20548, Control_c, 2, 7, 92
4, 20560, Control_c, 2, 7, 93
4, 20574, Control_c, 2, 7, 94
4, 20580, Note_on_c, 2, 53, 0
4, 20580, Note_on_c, 2, 57, 0
4, 20580, Note_on_c, 2, 57, 93
4, 20580, Note_on_c, 2, 53, 86
4, 20588, Control_c, 2, 7, 95
4, 20600, Control_c, 2, 7, 96
4, 20614, Control_c, 2, 7, 97
4, 20628, Control_c, 2, 7, 98
4, 20640, Note_on_c, 2, 53, 0
4, 20640, Note_on_c, 2, 57, 0
4, 20640, Control_c, 2, 7, 99
4, 20640, Note_on_c, 2, 57, 85
4, 20640, Note_on_c, 2, 53, 85
4, 20700, Note_on_c, 2, 53, 0
4, 20700, Note_on_c, 2, 57, 0
4, 20700, Note_on_c, 2, 53, 98
4, 20700, Note_on_c, 2, 62, 84
4, 20880, Note_on_c, 2, 62, 0
4, 20880, Note_on_c, 2, 53, 0
4, 21584, Control_c, 2, 7, 63
4, 21600, Note_on_c, 2, 53, 72
4, 21600, Note_on_c, 2, 57, 84
4, 21600, Control_c, 2, 7, 63
4, 21614, Control_c, 2, 7, 64
4, 21628, Control_c, 2, 7, 65
4, 21642, Control_c, 2, 7, 66
4, 21656, Control_c, 2, 7, 67
4, 21670, Control_c, 2, 7, 68
4, 21684, Control_c, 2, 7, 69
4, 21696, Control_c, 2, 7, 70
4, 21710, Control_c, 2, 7, 71
4, 21724, Control_c, 2, 7, 72
4, 21738, Control_c, 2, 7, 73
4, 21752, Control_c, 2, 7, 74
4, 21766, Control_c, 2, 7, 75
4, 21780, Control_c, 2, 7, 76
4, 21792, Control_c, 2, 7, 77
4, 21806, Control_c, 2, 7, 78
4, 21820, Control_c, 2, 7, 79
4, 21834, Control_c, 2, 7, 80
4, 21848, Control_c, 2, 7, 81
4, 21862, Control_c, 2, 7, 82
4, 21876, Control_c, 2, 7, 83
4, 21888, Control_c, 2, 7, 84
4, 21902, Control_c, 2, 7, 85
4, 21916, Control_c, 2, 7, 86
4, 21930, Control_c, 2, 7, 87
4, 21944, Control_c, 2, 7, 88
4, 21958, Control_c, 2, 7, 89
4, 21960, Note_on_c, 2, 57, 0
4, 21960, Note_on_c, 2, 53, 0
4, 21960, Note_on_c, 2, 57, 72
4, 21960, Note_on_c, 2, 53, 61
4, 21972, Control_c, 2, 7, 90
4, 21984, Control_c, 2, 7, 91
4, 21998, Control_c, 2, 7, 92
4, 22012, Control_c, 2, 7, 93
4, 22020, Note_on_c, 2, 53, 0
4, 22020, Note_on_c, 2, 57, 0
4, 22020, Note_on_c, 2, 57, 84
4, 22020, Note_on_c, 2, 53, 77
4, 22026, Control_c, 2, 7, 94
4, 22040, Control_c, 2, 7, 95
4, 22054, Control_c, 2, 7, 96
4, 22068, Control_c, 2, 7, 97
4, 22080, Note_on_c, 2, 53, 0
4, 22080, Note_on_c, 2, 57, 0
4, 22080, Control_c, 2, 7, 99
4, 22080, Note_on_c, 2, 57, 89
4, 22080, Note_on_c, 2, 53, 76
4, 22140, Note_on_c, 2, 53, 0
4, 22140, Note_on_c, 2, 57, 0
4, 22140, Note_on_c, 2, 59, 89
4, 22140, Note_on_c, 2, 65, 77
4, 22320, Note_on_c, 2, 65, 0
4, 22320, Note_on_c, 2, 59, 0
4, 23040, Note_on_c, 2, 52, 81
4, 23040, Note_on_c, 2, 55, 84
4, 23400, Note_on_c, 2, 55, 0
4, 23400, Note_on_c, 2, 52, 0
4, 23400, Note_on_c, 2, 53, 78
4, 23400, Note_on_c, 2, 57, 81
4, 23760, Note_on_c, 2, 57, 0
4, 23760, Note_on_c, 2, 53, 0
4, 24480, Note_on_c, 2, 52, 81
4, 24480, Note_on_c, 2, 55, 84
4, 24840, Note_on_c, 2, 55, 0
4, 24840, Note_on_c, 2, 52, 0
4, 24840, Note_on_c, 2, 53, 78
4, 24840, Note_on_c, 2, 57, 81
4, 25200, Note_on_c, 2, 57, 0
4, 25200, Note_on_c, 2, 53, 0
4, 27720, Note_on_c, 2, 53, 76
4, 27750, Note_on_c, 2, 53, 0
4, 27780, Note_on_c, 2, 65, 65
4, 27810, Note_on_c, 2, 65, 0
4, 27840, Note_on_c, 2, 65, 67
4, 27870, Note_on_c, 2, 65, 0
4, 27900, Note_on_c, 2, 67, 62
4, 27900, Note_on_c, 2, 64, 65
4, 28020, Note_on_c, 2, 64, 0
4, 28020, Note_on_c, 2, 67, 0
4, 28080, Note_on_c, 2, 65, 50
4, 28080, Note_on_c, 2, 62, 57
4, 28110, Note_on_c, 2, 62, 0
4, 28110, Note_on_c, 2, 65, 0
4, 28140, Note_on_c, 2, 65, 50
4, 28140, Note_on_c, 2, 62, 67
4, 28170, Note_on_c, 2, 62, 0
4, 28170, Note_on_c, 2, 65, 0
4, 28200, Note_on_c, 2, 65, 45
4, 28200, Note_on_c, 2, 62, 61
4, 28230, Note_on_c, 2, 62, 0
4, 28230, Note_on_c, 2, 65, 0
4, 28260, Note_on_c, 2, 64, 53
4, 28260, Note_on_c, 2, 60, 63
4, 28380, Note_on_c, 2, 60, 0
4, 28380, Note_on_c, 2, 64, 0
4, 28440, Note_on_c, 2, 62, 61
4, 28440, Note_on_c, 2, 58, 56
4, 28470, Note_on_c, 2, 58, 0
4, 28470, Note_on_c, 2, 62, 0
4, 28500, Note_on_c, 2, 62, 62
4, 28500, Note_on_c, 2, 58, 45
4, 28530, Note_on_c, 2, 58, 0
4, 28530, Note_on_c, 2, 62, 0
4, 28560, Note_on_c, 2, 62, 57
4, 28560, Note_on_c, 2, 58, 45
4, 28590, Note_on_c, 2, 58, 0
4, 28590, Note_on_c, 2, 62, 0
4, 28620, Note_on_c, 2, 60, 55
4, 28620, Note_on_c, 2, 57, 66
4, 28740, Note_on_c, 2, 57, 0
4, 28740, Note_on_c, 2, 60, 0
4, 28800, Note_on_c, 2, 58, 44
4, 28800, Note_on_c, 2, 55, 64
4, 28830, Note_on_c, 2, 55, 0
4, 28830, Note_on_c, 2, 58, 0
4, 28860, Note_on_c, 2, 58, 43
4, 28860, Note_on_c, 2, 55, 71
4, 28890, Note_on_c, 2, 55, 0
4, 28890, Note_on_c, 2, 58, 0
4, 28920, Note_on_c, 2, 58, 45
4, 28920, Note_on_c, 2, 55, 80
4, 28950, Note_on_c, 2, 55, 0
4, 28950, Note_on_c, 2, 58, 0
4, 28980, Note_on_c, 2, 57, 64
4, 28980, Note_on_c, 2, 53, 58
4, 29100, Note_on_c, 2, 53, 0
4, 29100, Note_on_c, 2, 57, 0
4, 37080, Note_on_c, 2, 62, 80
4, 37080, Note_on_c, 2, 46, 94
4, 37110, Note_on_c, 2, 46, 0
4, 37110, Note_on_c, 2, 62, 0
4, 37140, Note_on_c, 2, 58, 89
4, 37140, Note_on_c, 2, 50, 99
4, 37170, Note_on_c, 2, 50, 0
4, 37200, Note_on_c, 2, 53, 82
4, 37230, Note_on_c, 2, 53, 0
4, 37260, Note_on_c, 2, 58, 0
4, 37260, Note_on_c, 2, 62, 81
4, 37260, Note_on_c, 2, 46, 94
4, 37290, Note_on_c, 2, 46, 0
4, 37290, Note_on_c, 2, 62, 0
4, 37320, Note_on_c, 2, 58, 89
4, 37320, Note_on_c, 2, 50, 99
4, 37350, Note_on_c, 2, 50, 0
4, 37380, Note_on_c, 2, 53, 86
4, 37410, Note_on_c, 2, 53, 0
4, 37410, Note_on_c, 2, 58, 0
4, 37425, Note_on_c, 2, 60, 84
4, 37440, Note_on_c, 2, 60, 0
4, 37440, Note_on_c, 2, 58, 81
4, 37440, Note_on_c, 2, 50, 86
4, 37500, Note_on_c, 2, 50, 0
4, 37500, Note_on_c, 2, 58, 0
4, 37500, Note_on_c, 2, 57, 104
4, 37500, Note_on_c, 2, 48, 98
4, 37560, Note_on_c, 2, 48, 0
4, 37560, Note_on_c, 2, 57, 0
4, 37560, Note_on_c, 2, 58, 89
4, 37560, Note_on_c, 2, 46, 86
4, 37590, Note_on_c, 2, 46, 0
4, 37590, Note_on_c, 2, 58, 0
4, 37620, Note_on_c, 2, 60, 95
4, 37620, Note_on_c, 2, 45, 99
4, 37650, Note_on_c, 2, 45, 0
4, 37680, Note_on_c, 2, 43, 93
4, 37710, Note_on_c, 2, 43, 0
4, 37740, Note_on_c, 2, 60, 0
4, 37740, Note_on_c, 2, 41, 95
4, 37770, Note_on_c, 2, 41, 0
4, 37800, Note_on_c, 2, 63, 89
4, 37800, Note_on_c, 2, 41, 94
4, 37830, Note_on_c, 2, 63, 0
4, 37860, Note_on_c, 2, 41, 0
4, 37860, Note_on_c, 2, 60, 101
4, 37860, Note_on_c, 2, 53, 85
4, 37920, Note_on_c, 2, 53, 0
4, 37920, Note_on_c, 2, 53, 78
4, 37980, Note_on_c, 2, 53, 0
4, 37980, Note_on_c, 2, 60, 0
4, 37980, Note_on_c, 2, 63, 82
4, 37980, Note_on_c, 2, 41, 94
4, 38010, Note_on_c, 2, 63, 0
4, 38040, Note_on_c, 2, 41, 0
4, 38040, Note_on_c, 2, 60, 99
4, 38040, Note_on_c, 2, 53, 74
4, 38100, Note_on_c, 2, 53, 0
4, 38100, Note_on_c, 2, 53, 81
4, 38130, Note_on_c, 2, 60, 0
4, 38145, Note_on_c, 2, 62, 77
4, 38160, Note_on_c, 2, 62, 0
4, 38160, Note_on_c, 2, 53, 0
4, 38160, Note_on_c, 2, 60, 90
4, 38160, Note_on_c, 2, 51, 89
4, 38220, Note_on_c, 2, 51, 0
4, 38220, Note_on_c, 2, 60, 0
4, 38220, Note_on_c, 2, 58, 93
4, 38220, Note_on_c, 2, 50, 98
4, 38280, Note_on_c, 2, 50, 0
4, 38280, Note_on_c, 2, 58, 0
4, 38280, Note_on_c, 2, 60, 90
4, 38280, Note_on_c, 2, 48, 95
4, 38310, Note_on_c, 2, 48, 0
4, 38310, Note_on_c, 2, 60, 0
4, 38340, Note_on_c, 2, 62, 85
4, 38340, Note_on_c, 2, 46, 93
4, 38370, Note_on_c, 2, 46, 0
4, 38400, Note_on_c, 2, 48, 99
4, 38430, Note_on_c, 2, 48, 0
4, 38460, Note_on_c, 2, 62, 0
4, 38460, Note_on_c, 2, 58, 86
4, 38460, Note_on_c, 2, 50, 101
4, 38490, Note_on_c, 2, 50, 0
4, 38490, Note_on_c, 2, 58, 0
4, 38520, Note_on_c, 2, 58, 85
4, 38520, Note_on_c, 2, 51, 84
4, 38580, Note_on_c, 2, 51, 0
4, 38580, Note_on_c, 2, 46, 90
4, 38640, Note_on_c, 2, 46, 0
4, 38640, Note_on_c, 2, 51, 85
4, 38670, Note_on_c, 2, 51, 0
4, 38700, Note_on_c, 2, 50, 95
4, 38760, Note_on_c, 2, 50, 0
4, 38760, Note_on_c, 2, 46, 84
4, 38820, Note_on_c, 2, 46, 0
4, 38820, Note_on_c, 2, 50, 99
4, 38850, Note_on_c, 2, 50, 0
4, 38880, Note_on_c, 2, 58, 0
4, 38880, Note_on_c, 2, 58, 62
4, 38880, Note_on_c, 2, 51, 81
4, 38940, Note_on_c, 2, 51, 0
4, 38940, Note_on_c, 2, 58, 0
4, 38940, Note_on_c, 2, 58, 73
4, 38940, Note_on_c, 2, 46, 89
4, 39000, Note_on_c, 2, 46, 0
4, 39000, Note_on_c, 2, 58, 0
4, 39000, Note_on_c, 2, 58, 73
4, 39000, Note_on_c, 2, 51, 86
4, 39030, Note_on_c, 2, 51, 0
4, 39060, Note_on_c, 2, 58, 0
4, 39060, Note_on_c, 2, 58, 80
4, 39060, Note_on_c, 2, 50, 99
4, 39120, Note_on_c, 2, 50, 0
4, 39120, Note_on_c, 2, 58, 0
4, 39120, Note_on_c, 2, 65, 86
4, 39120, Note_on_c, 2, 56, 89
4, 39180, Note_on_c, 2, 56, 0
4, 39180, Note_on_c, 2, 65, 0
4, 39180, Note_on_c, 2, 65, 77
4, 39180, Note_on_c, 2, 59, 81
4, 39210, Note_on_c, 2, 59, 0
4, 39210, Note_on_c, 2, 65, 0
4, 39240, Note_on_c, 2, 65, 86
4, 39240, Note_on_c, 2, 60, 81
4, 39300, Note_on_c, 2, 60, 0
4, 39300, Note_on_c, 2, 65, 0
4, 39300, Note_on_c, 2, 64, 85
4, 39300, Note_on_c, 2, 55, 76
4, 39360, Note_on_c, 2, 55, 0
4, 39360, Note_on_c, 2, 64, 0
4, 39360, Note_on_c, 2, 63, 84
4, 39360, Note_on_c, 2, 57, 99
4, 39390, Note_on_c, 2, 57, 0
4, 39390, Note_on_c, 2, 63, 0
4, 39420, Note_on_c, 2, 63, 80
4, 39420, Note_on_c, 2, 58, 73
4, 39480, Note_on_c, 2, 58, 0
4, 39480, Note_on_c, 2, 63, 0
4, 39480, Note_on_c, 2, 62, 89
4, 39480, Note_on_c, 2, 55, 89
4, 39540, Note_on_c, 2, 55, 0
4, 39540, Note_on_c, 2, 62, 0
4, 39540, Note_on_c, 2, 61, 76
4, 39540, Note_on_c, 2, 52, 95
4, 39570, Note_on_c, 2, 52, 0
4, 39570, Note_on_c, 2, 61, 0
4, 39600, Note_on_c, 2, 61, 80
4, 39600, Note_on_c, 2, 41, 94
4, 39660, Note_on_c, 2, 41, 0
4, 39660, Note_on_c, 2, 61, 0
4, 39660, Note_on_c, 2, 62, 89
4, 39660, Note_on_c, 2, 53, 76
4, 39720, Note_on_c, 2, 53, 0
4, 39720, Note_on_c, 2, 62, 0
4, 39720, Note_on_c, 2, 62, 89
4, 39720, Note_on_c, 2, 53, 76
4, 39750, Note_on_c, 2, 62, 0
4, 39780, Note_on_c, 2, 53, 0
4, 39780, Note_on_c, 2, 62, 90
4, 39780, Note_on_c, 2, 41, 89
4, 39840, Note_on_c, 2, 41, 0
4, 39840, Note_on_c, 2, 62, 0
4, 39840, Note_on_c, 2, 63, 84
4, 39840, Note_on_c, 2, 53, 72
4, 39900, Note_on_c, 2, 53, 0
4, 39900, Note_on_c, 2, 63, 0
4, 39900, Note_on_c, 2, 53, 76
4, 39900, Note_on_c, 2, 60, 89
4, 39930, Note_on_c, 2, 60, 0
4, 39960, Note_on_c, 2, 53, 0
4, 39960, Note_on_c, 2, 58, 80
4, 39960, Note_on_c, 2, 46, 86
4, 40080, Note_on_c, 2, 46, 0
4, 40080, Note_on_c, 2, 58, 0
4, 40320, Note_on_c, 2, 65, 67
4, 40320, Note_on_c, 2, 53, 53
4, 40440, Note_on_c, 2, 53, 0
4, 40440, Note_on_c, 2, 65, 0
4, 40680, Note_on_c, 2, 58, 90
4, 40680, Note_on_c, 2, 58, 76
4, 40710, Note_on_c, 2, 58, 0
4, 40710, Note_on_c, 2, 58, 0
4, 40740, Note_on_c, 2, 62, 101
4, 40740, Note_on_c, 2, 46, 94
4, 40770, Note_on_c, 2, 46, 0
4, 40800, Note_on_c, 2, 48, 89
4, 40830, Note_on_c, 2, 48, 0
4, 40860, Note_on_c, 2, 50, 90
4, 40890, Note_on_c, 2, 50, 0
4, 40920, Note_on_c, 2, 62, 0
4, 40920, Note_on_c, 2, 60, 90
4, 40920, Note_on_c, 2, 51, 84
4, 40950, Note_on_c, 2, 51, 0
4, 40950, Note_on_c, 2, 60, 0
4, 40980, Note_on_c, 2, 58, 89
4, 40980, Note_on_c, 2, 52, 99
4, 41010, Note_on_c, 2, 52, 0
4, 41010, Note_on_c, 2, 58, 0
4, 41040, Note_on_c, 2, 57, 95
4, 41040, Note_on_c, 2, 53, 71
4, 41070, Note_on_c, 2, 53, 0
4, 41070, Note_on_c, 2, 57, 0
4, 41100, Note_on_c, 2, 67, 77
4, 41100, Note_on_c, 2, 63, 74
4, 41130, Note_on_c, 2, 63, 0
4, 41130, Note_on_c, 2, 67, 0
4, 41160, Note_on_c, 2, 65, 80
4, 41160, Note_on_c, 2, 62, 81
4, 41190, Note_on_c, 2, 62, 0
4, 41190, Note_on_c, 2, 65, 0
4, 41220, Note_on_c, 2, 63, 69
4, 41220, Note_on_c, 2, 60, 94
4, 41250, Note_on_c, 2, 60, 0
4, 41250, Note_on_c, 2, 63, 0
4, 41280, Note_on_c, 2, 62, 89
4, 41280, Note_on_c, 2, 58, 78
4, 41310, Note_on_c, 2, 58, 0
4, 41310, Note_on_c, 2, 62, 0
4, 41340, Note_on_c, 2, 60, 73
4, 41340, Note_on_c, 2, 57, 94
4, 41370, Note_on_c, 2, 57, 0
4, 41370, Note_on_c, 2, 60, 0
4, 41400, Note_on_c, 2, 58, 80
4, 41520, Note_on_c, 2, 58, 0
4, 42480, Note_on_c, 2, 67, 84
4, 42480, Note_on_c, 2, 55, 90
4, 42840, Note_on_c, 2, 55, 0
4, 42840, Note_on_c, 2, 67, 0
4, 42840, Note_on_c, 2, 66, 74
4, 42840, Note_on_c, 2, 57, 99
4, 42960, Note_on_c, 2, 57, 0
4, 42960, Note_on_c, 2, 66, 0
4, 43200, Note_on_c, 2, 62, 99
4, 43200, Note_on_c, 2, 50, 105
4, 43320, Note_on_c, 2, 50, 0
4, 43320, Note_on_c, 2, 62, 0
4, 43320, Note_on_c, 2, 60, 80
4, 43320, Note_on_c, 2, 48, 81
4, 43350, Note_on_c, 2, 48, 0
4, 43350, Note_on_c, 2, 60, 0
4, 43380, Note_on_c, 2, 58, 76
4, 43380, Note_on_c, 2, 46, 89
4, 43410, Note_on_c, 2, 46, 0
4, 43410, Note_on_c, 2, 58, 0
4, 43440, Note_on_c, 2, 57, 89
4, 43440, Note_on_c, 2, 45, 85
4, 43470, Note_on_c, 2, 45, 0
4, 43470, Note_on_c, 2, 57, 0
4, 43500, Note_on_c, 2, 55, 77
4, 43500, Note_on_c, 2, 43, 89
4, 43530, Note_on_c, 2, 43, 0
4, 43530, Note_on_c, 2, 55, 0
4, 43560, Note_on_c, 2, 50, 84
4, 43680, Note_on_c, 2, 50, 0
4, 43920, Note_on_c, 2, 62, 94
4, 43920, Note_on_c, 2, 50, 104
4, 44040, Note_on_c, 2, 50, 0
4, 44040, Note_on_c, 2, 62, 0
4, 44040, Note_on_c, 2, 60, 86
4, 44040, Note_on_c, 2, 48, 95
4, 44070, Note_on_c, 2, 48, 0
4, 44070, Note_on_c, 2, 60, 0
4, 44100, Note_on_c, 2, 58, 74
4, 44100, Note_on_c, 2, 46, 84
4, 44130, Note_on_c, 2, 46, 0
4, 44130, Note_on_c, 2, 58, 0
4, 44160, Note_on_c, 2, 57, 90
4, 44160, Note_on_c, 2, 45, 90
4, 44190, Note_on_c, 2, 45, 0
4, 44190, Note_on_c, 2, 57, 0
4, 44220, Note_on_c, 2, 55, 81
4, 44220, Note_on_c, 2, 43, 89
4, 44250, Note_on_c, 2, 43, 0
4, 44250, Note_on_c, 2, 55, 0
4, 44280, Note_on_c, 2, 50, 95
4, 44310, Note_on_c, 2, 50, 0
4, 44340, Note_on_c, 2, 62, 93
4, 44340, Note_on_c, 2, 50, 104
4, 44400, Note_on_c, 2, 50, 0
4, 44400, Note_on_c, 2, 62, 0
4, 44400, Note_on_c, 2, 61, 85
4, 44400, Note_on_c, 2, 49, 95
4, 44460, Note_on_c, 2, 49, 0
4, 44460, Note_on_c, 2, 61, 0
4, 44460, Note_on_c, 2, 62, 89
4, 44460, Note_on_c, 2, 50, 98
4, 44490, Note_on_c, 2, 50, 0
4, 44490, Note_on_c, 2, 62, 0
4, 44520, Note_on_c, 2, 62, 93
4, 44520, Note_on_c, 2, 50, 99
4, 44580, Note_on_c, 2, 50, 0
4, 44580, Note_on_c, 2, 62, 0
4, 44580, Note_on_c, 2, 61, 84
4, 44580, Note_on_c, 2, 49, 99
4, 44640, Note_on_c, 2, 49, 0
4, 44640, Note_on_c, 2, 61, 0
4, 44640, Note_on_c, 2, 62, 90
4, 44640, Note_on_c, 2, 50, 104
4, 44670, Note_on_c, 2, 50, 0
4, 44670, Note_on_c, 2, 62, 0
4, 44700, Note_on_c, 2, 62, 90
4, 44700, Note_on_c, 2, 50, 104
4, 44760, Note_on_c, 2, 50, 0
4, 44760, Note_on_c, 2, 62, 0
4, 44760, Note_on_c, 2, 61, 85
4, 44760, Note_on_c, 2, 49, 98
4, 44820, Note_on_c, 2, 49, 0
4, 44820, Note_on_c, 2, 61, 0
4, 44820, Note_on_c, 2, 60, 93
4, 44820, Note_on_c, 2, 48, 95
4, 44850, Note_on_c, 2, 48, 0
4, 44850, Note_on_c, 2, 60, 0
4, 44880, Note_on_c, 2, 58, 84
4, 44880, Note_on_c, 2, 46, 94
4, 44910, Note_on_c, 2, 46, 0
4, 44910, Note_on_c, 2, 58, 0
4, 44940, Note_on_c, 2, 57, 99
4, 44940, Note_on_c, 2, 45, 99
4, 44970, Note_on_c, 2, 45, 0
4, 44970, Note_on_c, 2, 57, 0
4, 45000, Note_on_c, 2, 55, 53
4, 45000, Note_on_c, 2, 43, 58
4, 45120, Note_on_c, 2, 43, 0
4, 45120, Note_on_c, 2, 55, 0
4, 47520, Note_on_c, 2, 62, 95
4, 47668, Control_c, 2, 7, 99
4, 47670, Control_c, 2, 7, 97
4, 47672, Control_c, 2, 7, 94
4, 47674, Control_c, 2, 7, 92
4, 47676, Control_c, 2, 7, 89
4, 47678, Control_c, 2, 7, 87
4, 47680, Control_c, 2, 7, 84
4, 47682, Control_c, 2, 7, 82
4, 47684, Control_c, 2, 7, 79
4, 47686, Control_c, 2, 7, 77
4, 47688, Control_c, 2, 7, 74
4, 47690, Control_c, 2, 7, 72
4, 47692, Control_c, 2, 7, 69
4, 47694, Control_c, 2, 7, 66
4, 47880, Note_on_c, 2, 62, 0
4, 47880, Note_on_c, 2, 65, 90
4, 48060, Note_on_c, 2, 65, 0
4, 48060, Note_on_c, 2, 62, 90
4, 48240, Note_on_c, 2, 62, 0
4, 48240, Note_on_c, 2, 59, 98
4, 48420, Note_on_c, 2, 59, 0
4, 48420, Note_on_c, 2, 55, 98
4, 48600, Note_on_c, 2, 55, 0
4, 48600, Note_on_c, 2, 53, 90
4, 48780, Note_on_c, 2, 53, 0
4, 48780, Note_on_c, 2, 50, 99
4, 48960, Note_on_c, 2, 50, 0
4, 48960, Note_on_c, 2, 48, 98
4, 49080, Note_on_c, 2, 48, 0
4, 49260, Control_c, 2, 7, 99
4, 51480, Note_on_c, 2, 60, 95
4, 51596, Control_c, 2, 7, 99
4, 51598, Control_c, 2, 7, 96
4, 51600, Control_c, 2, 7, 93
4, 51602, Control_c, 2, 7, 90
4, 51604, Control_c, 2, 7, 87
4, 51606, Control_c, 2, 7, 84
4, 51608, Control_c, 2, 7, 81
4, 51610, Control_c, 2, 7, 78
4, 51612, Control_c, 2, 7, 75
4, 51614, Control_c, 2, 7, 72
4, 51616, Control_c, 2, 7, 68
4, 51840, Note_on_c, 2, 60, 0
4, 51840, Note_on_c, 2, 63, 89
4, 52020, Note_on_c, 2, 63, 0
4, 52020, Note_on_c, 2, 60, 98
4, 52200, Note_on_c, 2, 60, 0
4, 52200, Note_on_c, 2, 57, 101
4, 52380, Note_on_c, 2, 57, 0
4, 52380, Note_on_c, 2, 53, 94
4, 52560, Note_on_c, 2, 53, 0
4, 52560, Note_on_c, 2, 51, 95
4, 52740, Note_on_c, 2, 51, 0
4, 52740, Note_on_c, 2, 48, 99
4, 52920, Note_on_c, 2, 48, 0
4, 52920, Note_on_c, 2, 46, 95
4, 53040, Note_on_c, 2, 46, 0
4, 53220, Control_c, 2, 7, 99
4, 64800, Note_on_c, 2, 62, 80
4, 64800, Note_on_c, 2, 46, 94
4, 64830, Note_on_c, 2, 46, 0
4, 64830, Note_on_c, 2, 62, 0
4, 64860, Note_on_c, 2, 58, 89
4, 64860, Note_on_c, 2, 50, 99
4, 64890, Note_on_c, 2, 50, 0
4, 64920, Note_on_c, 2, 53, 82
4, 64950, Note_on_c, 2, 53, 0
4, 64980, Note_on_c, 2, 58, 0
4, 64980, Note_on_c, 2, 62, 81
4, 64980, Note_on_c, 2, 46, 94
4, 65010, Note_on_c, 2, 46, 0
4, 65010, Note_on_c, 2, 62, 0
4, 65040, Note_on_c, 2, 58, 89
4, 65040, Note_on_c, 2, 50, 99
4, 65070, Note_on_c, 2, 50, 0
4, 65100, Note_on_c, 2, 53, 86
4, 65130, Note_on_c, 2, 53, 0
4, 65130, Note_on_c, 2, 58, 0
4, 65145, Note_on_c, 2, 60, 84
4, 65160, Note_on_c, 2, 60, 0
4, 65160, Note_on_c, 2, 58, 81
4, 65160, Note_on_c, 2, 50, 86
4, 65220, Note_on_c, 2, 50, 0
4, 65220, Note_on_c, 2, 58, 0
4, 65220, Note_on_c, 2, 57, 104
4, 65220, Note_on_c, 2, 48, 98
4, 65280, Note_on_c, 2, 48, 0
4, 65280, Note_on_c, 2, 57, 0
4, 65280, Note_on_c, 2, 58, 89
4, 65280, Note_on_c, 2, 46, 86
4, 65310, Note_on_c, 2, 46, 0
4, 65310, Note_on_c, 2, 58, 0
4, 65340, Note_on_c, 2, 60, 95
4, 65340, Note_on_c, 2, 45, 99
4, 65370, Note_on_c, 2, 45, 0
4, 65400, Note_on_c, 2, 43, 93
4, 65430, Note_on_c, 2, 43, 0
4, 65460, Note_on_c, 2, 60, 0
4, 65460, Note_on_c, 2, 41, 95
4, 65490, Note_on_c, 2, 41, 0
4, 65520, Note_on_c, 2, 63, 89
4, 65520, Note_on_c, 2, 41, 94
4, 65550, Note_on_c, 2, 63, 0
4, 65580, Note_on_c, 2, 41, 0
4, 65580, Note_on_c, 2, 60, 101
4, 65580, Note_on_c, 2, 53, 85
4, 65640, Note_on_c, 2, 53, 0
4, 65640, Note_on_c, 2, 53, 78
4, 65700, Note_on_c, 2, 53, 0
4, 65700, Note_on_c, 2, 60, 0
4, 65700, Note_on_c, 2, 63, 82
4, 65700, Note_on_c, 2, 41, 94
4, 65730, Note_on_c, 2, 63, 0
4, 65760, Note_on_c, 2, 41, 0
4, 65760, Note_on_c, 2, 60, 99
4, 65760, Note_on_c, 2, 53, 74
4, 65820, Note_on_c, 2, 53, 0
4, 65820, Note_on_c, 2, 53, 81
4, 65850, Note_on_c, 2, 60, 0
4, 65865, Note_on_c, 2, 62, 77
4, 65880, Note_on_c, 2, 62, 0
4, 65880, Note_on_c, 2, 53, 0
4, 65880, Note_on_c, 2, 60, 90
4, 65880, Note_on_c, 2, 51, 89
4, 65940, Note_on_c, 2, 51, 0
4, 65940, Note_on_c, 2, 60, 0
4, 65940, Note_on_c, 2, 58, 93
4, 65940, Note_on_c, 2, 50, 98
4, 66000, Note_on_c, 2, 50, 0
4, 66000, Note_on_c, 2, 58, 0
4, 66000, Note_on_c, 2, 60, 90
4, 66000, Note_on_c, 2, 48, 95
4, 66030, Note_on_c, 2, 48, 0
4, 66030, Note_on_c, 2, 60, 0
4, 66060, Note_on_c, 2, 62, 85
4, 66060, Note_on_c, 2, 46, 93
4, 66090, Note_on_c, 2, 46, 0
4, 66120, Note_on_c, 2, 48, 99
4, 66150, Note_on_c, 2, 48, 0
4, 66180, Note_on_c, 2, 62, 0
4, 66180, Note_on_c, 2, 58, 86
4, 66180, Note_on_c, 2, 50, 101
4, 66210, Note_on_c, 2, 50, 0
4, 66210, Note_on_c, 2, 58, 0
4, 66240, Note_on_c, 2, 58, 85
4, 66240, Note_on_c, 2, 51, 84
4, 66300, Note_on_c, 2, 51, 0
4, 66300, Note_on_c, 2, 46, 90
4, 66360, Note_on_c, 2, 46, 0
4, 66360, Note_on_c, 2, 51, 85
4, 66390, Note_on_c, 2, 51, 0
4, 66420, Note_on_c, 2, 50, 95
4, 66480, Note_on_c, 2, 50, 0
4, 66480, Note_on_c, 2, 46, 84
4, 66540, Note_on_c, 2, 46, 0
4, 66540, Note_on_c, 2, 50, 99
4, 66570, Note_on_c, 2, 50, 0
4, 66600, Note_on_c, 2, 58, 0
4, 66600, Note_on_c, 2, 58, 62
4, 66600, Note_on_c, 2, 51, 81
4, 66660, Note_on_c, 2, 51, 0
4, 66660, Note_on_c, 2, 58, 0
4, 66660, Note_on_c, 2, 58, 73
4, 66660, Note_on_c, 2, 46, 89
4, 66720, Note_on_c, 2, 46, 0
4, 66720, Note_on_c, 2, 58, 0
4, 66720, Note_on_c, 2, 58, 73
4, 66720, Note_on_c, 2, 51, 86
4, 66750, Note_on_c, 2, 51, 0
4, 66780, Note_on_c, 2, 58, 0
4, 66780, Note_on_c, 2, 58, 80
4, 66780, Note_on_c, 2, 50, 99
4, 66840, Note_on_c, 2, 50, 0
4, 66840, Note_on_c, 2, 58, 0
4, 66840, Note_on_c, 2, 65, 86
4, 66840, Note_on_c, 2, 56, 89
4, 66900, Note_on_c, 2, 56, 0
4, 66900, Note_on_c, 2, 65, 0
4, 66900, Note_on_c, 2, 65, 77
4, 66900, Note_on_c, 2, 59, 81
4, 66930, Note_on_c, 2, 59, 0
4, 66930, Note_on_c, 2, 65, 0
4, 66960, Note_on_c, 2, 65, 86
4, 66960, Note_on_c, 2, 60, 81
4, 67020, Note_on_c, 2, 60, 0
4, 67020, Note_on_c, 2, 65, 0
4, 67020, Note_on_c, 2, 64, 85
4, 67020, Note_on_c, 2, 55, 76
4, 67080, Note_on_c, 2, 55, 0
4, 67080, Note_on_c, 2, 64, 0
4, 67080, Note_on_c, 2, 63, 84
4, 67080, Note_on_c, 2, 57, 99
4, 67110, Note_on_c, 2, 57, 0
4, 67110, Note_on_c, 2, 63, 0
4, 67140, Note_on_c, 2, 63, 80
4, 67140, Note_on_c, 2, 58, 73
4, 67200, Note_on_c, 2, 58, 0
4, 67200, Note_on_c, 2, 63, 0
4, 67200, Note_on_c, 2, 62, 89
4, 67200, Note_on_c, 2, 55, 89
4, 67260, Note_on_c, 2, 55, 0
4, 67260, Note_on_c, 2, 62, 0
4, 67260, Note_on_c, 2, 61, 76
4, 67260, Note_on_c, 2, 52, 95
4, 67290, Note_on_c, 2, 52, 0
4, 67290, Note_on_c, 2, 61, 0
4, 67320, Note_on_c, 2, 61, 80
4, 67320, Note_on_c, 2, 41, 94
4, 67380, Note_on_c, 2, 41, 0
4, 67380, Note_on_c, 2, 61, 0
4, 67380, Note_on_c, 2, 62, 89
4, 67380, Note_on_c, 2, 53, 76
4, 67440, Note_on_c, 2, 53, 0
4, 67440, Note_on_c, 2, 62, 0
4, 67440, Note_on_c, 2, 62, 89
4, 67440, Note_on_c, 2, 53, 76
4, 67470, Note_on_c, 2, 62, 0
4, 67500, Note_on_c, 2, 53, 0
4, 67500, Note_on_c, 2, 62, 90
4, 67500, Note_on_c, 2, 41, 89
4, 67560, Note_on_c, 2, 41, 0
4, 67560, Note_on_c, 2, 62, 0
4, 67560, Note_on_c, 2, 63, 84
4, 67560, Note_on_c, 2, 53, 72
4, 67620, Note_on_c, 2, 53, 0
4, 67620, Note_on_c, 2, 63, 0
4, 67620, Note_on_c, 2, 53, 76
4, 67620, Note_on_c, 2, 60, 89
4, 67650, Note_on_c, 2, 60, 0
4, 67680, Note_on_c, 2, 53, 0
4, 67680, Note_on_c, 2, 58, 80
4, 67680, Note_on_c, 2, 46, 86
4, 67800, Note_on_c, 2, 46, 0
4, 67800, Note_on_c, 2, 58, 0
4, 68040, Note_on_c, 2, 65, 67
4, 68040, Note_on_c, 2, 53, 53
4, 68160, Note_on_c, 2, 53, 0
4, 68160, Note_on_c, 2, 65, 0
4, 68400, Note_on_c, 2, 58, 90
4, 68400, Note_on_c, 2, 58, 76
4, 68430, Note_on_c, 2, 58, 0
4, 68430, Note_on_c, 2, 58, 0
4, 68460, Note_on_c, 2, 62, 101
4, 68460, Note_on_c, 2, 46, 94
4, 68490, Note_on_c, 2, 46, 0
4, 68520, Note_on_c, 2, 48, 89
4, 68550, Note_on_c, 2, 48, 0
4, 68580, Note_on_c, 2, 50, 90
4, 68610, Note_on_c, 2, 50, 0
4, 68640, Note_on_c, 2, 62, 0
4, 68640, Note_on_c, 2, 60, 90
4, 68640, Note_on_c, 2, 51, 84
4, 68670, Note_on_c, 2, 51, 0
4, 68670, Note_on_c, 2, 60, 0
4, 68700, Note_on_c, 2, 58, 89
4, 68700, Note_on_c, 2, 52, 99
4, 68730, Note_on_c, 2, 52, 0
4, 68730, Note_on_c, 2, 58, 0
4, 68760, Note_on_c, 2, 57, 95
4, 68760, Note_on_c, 2, 53, 71
4, 68790, Note_on_c, 2, 53, 0
4, 68790, Note_on_c, 2, 57, 0
4, 68820, Note_on_c, 2, 67, 77
4, 68820, Note_on_c, 2, 63, 74
4, 68850, Note_on_c, 2, 63, 0
4, 68850, Note_on_c, 2, 67, 0
4, 68880, Note_on_c, 2, 65, 80
4, 68880, Note_on_c, 2, 62, 81
4, 68910, Note_on_c, 2, 62, 0
4, 68910, Note_on_c, 2, 65, 0
4, 68940, Note_on_c, 2, 63, 69
4, 68940, Note_on_c, 2, 60, 94
4, 68970, Note_on_c, 2, 60, 0
4, 68970, Note_on_c, 2, 63, 0
4, 69000, Note_on_c, 2, 62, 89
4, 69000, Note_on_c, 2, 58, 78
4, 69030, Note_on_c, 2, 58, 0
4, 69030, Note_on_c, 2, 62, 0
4, 69060, Note_on_c, 2, 60, 73
4, 69060, Note_on_c, 2, 57, 94
4, 69090, Note_on_c, 2, 57, 0
4, 69090, Note_on_c, 2, 60, 0
4, 69120, Note_on_c, 2, 58, 89
4, 69240, Note_on_c, 2, 58, 0
4, 69300, Note_on_c, 2, 62, 84
4, 69300, Note_on_c, 2, 53, 81
4, 69420, Note_on_c, 2, 53, 0
4, 69420, Note_on_c, 2, 62, 0
4, 69480, Note_on_c, 2, 58, 72
4, 69480, Note_on_c, 2, 50, 95
4, 69600, Note_on_c, 2, 50, 0
4, 69600, Note_on_c, 2, 58, 0
4, 69840, Note_on_c, 2, 58, 94
4, 70200, Note_on_c, 2, 58, 0
4, 70200, Note_on_c, 2, 65, 94
4, 70200, Note_on_c, 2, 53, 93
4, 70380, Note_on_c, 2, 53, 0
4, 70380, Note_on_c, 2, 65, 0
4, 70380, Note_on_c, 2, 62, 58
4, 70380, Note_on_c, 2, 50, 80
4, 70560, Note_on_c, 2, 50, 0
4, 70560, Note_on_c, 2, 62, 0
4, 70560, Note_on_c, 2, 58, 89
4, 70560, Note_on_c, 2, 46, 99
4, 70740, Note_on_c, 2, 46, 0
4, 70740, Note_on_c, 2, 58, 0
4, 70740, Note_on_c, 2, 55, 72
4, 70740, Note_on_c, 2, 43, 81
4, 70920, Note_on_c, 2, 43, 0
4, 70920, Note_on_c, 2, 55, 0
4, 70920, Note_on_c, 2, 50, 89
4, 70920, Note_on_c, 2, 38, 77
4, 71100, Note_on_c, 2, 38, 0
4, 71100, Note_on_c, 2, 50, 0
4, 71100, Note_on_c, 2, 52, 84
4, 71100, Note_on_c, 2, 40, 89
4, 71280, Note_on_c, 2, 40, 0
4, 71280, Note_on_c, 2, 52, 0
4, 71280, Note_on_c, 2, 53, 73
4, 71280, Note_on_c, 2, 41, 80
4, 71400, Note_on_c, 2, 41, 0
4, 71400, Note_on_c, 2, 53, 0
4, 72000, Note_on_c, 2, 56, 93
4, 72360, Note_on_c, 2, 56, 0
4, 72360, Note_on_c, 2, 65, 89
4, 72360, Note_on_c, 2, 53, 85
4, 72540, Note_on_c, 2, 53, 0
4, 72540, Note_on_c, 2, 65, 0
4, 72540, Note_on_c, 2, 62, 76
4, 72540, Note_on_c, 2, 50, 86
4, 72720, Note_on_c, 2, 50, 0
4, 72720, Note_on_c, 2, 62, 0
4, 72720, Note_on_c, 2, 58, 90
4, 72720, Note_on_c, 2, 46, 98
4, 72900, Note_on_c, 2, 46, 0
4, 72900, Note_on_c, 2, 58, 0
4, 72900, Note_on_c, 2, 56, 81
4, 72900, Note_on_c, 2, 44, 89
4, 73080, Note_on_c, 2, 44, 0
4, 73080, Note_on_c, 2, 56, 0
4, 73080, Note_on_c, 2, 53, 74
4, 73080, Note_on_c, 2, 41, 84
4, 73260, Note_on_c, 2, 41, 0
4, 73260, Note_on_c, 2, 53, 0
4, 73260, Note_on_c, 2, 50, 76
4, 73260, Note_on_c, 2, 38, 76
4, 73440, Note_on_c, 2, 38, 0
4, 73440, Note_on_c, 2, 50, 0
4, 73440, Note_on_c, 2, 51, 72
4, 73440, Note_on_c, 2, 39, 78
4, 73560, Note_on_c, 2, 39, 0
4, 73560, Note_on_c, 2, 51, 0
4, 82020, Note_on_c, 2, 58, 70
4, 82050, Note_on_c, 2, 58, 0
4, 82050, Note_on_c, 2, 60, 65
4, 82080, Note_on_c, 2, 60, 0
4, 82080, Note_on_c, 2, 61, 65
4, 82080, Note_on_c, 2, 58, 69
4, 82140, Note_on_c, 2, 58, 0
4, 82140, Note_on_c, 2, 61, 0
4, 82140, Note_on_c, 2, 62, 53
4, 82140, Note_on_c, 2, 58, 61
4, 82200, Note_on_c, 2, 58, 0
4, 82200, Note_on_c, 2, 62, 0
4, 82200, Note_on_c, 2, 62, 69
4, 82200, Note_on_c, 2, 58, 69
4, 82230, Note_on_c, 2, 58, 0
4, 82230, Note_on_c, 2, 62, 0
4, 82260, Note_on_c, 2, 61, 66
4, 82260, Note_on_c, 2, 58, 66
4, 82320, Note_on_c, 2, 58, 0
4, 82320, Note_on_c, 2, 61, 0
4, 82320, Note_on_c, 2, 62, 64
4, 82320, Note_on_c, 2, 58, 70
4, 82380, Note_on_c, 2, 58, 0
4, 82380, Note_on_c, 2, 62, 0
4, 82380, Note_on_c, 2, 62, 77
4, 82380, Note_on_c, 2, 58, 77
4, 82410, Note_on_c, 2, 58, 0
4, 82410, Note_on_c, 2, 62, 0
4, 82440, Note_on_c, 2, 61, 70
4, 82440, Note_on_c, 2, 58, 73
4, 82500, Note_on_c, 2, 58, 0
4, 82500, Note_on_c, 2, 61, 0
4, 82500, Note_on_c, 2, 62, 81
4, 82500, Note_on_c, 2, 58, 82
4, 82560, Note_on_c, 2, 58, 0
4, 82560, Note_on_c, 2, 62, 0
4, 82560, Note_on_c, 2, 62, 76
4, 82560, Note_on_c, 2, 58, 85
4, 82590, Note_on_c, 2, 58, 0
4, 82590, Note_on_c, 2, 62, 0
4, 82620, Note_on_c, 2, 58, 98
4, 82620, Note_on_c, 2, 67, 84
4, 82800, Note_on_c, 2, 67, 0
4, 82800, Note_on_c, 2, 58, 0
4, 83460, Note_on_c, 2, 58, 70
4, 83490, Note_on_c, 2, 58, 0
4, 83490, Note_on_c, 2, 60, 65
4, 83520, Note_on_c, 2, 60, 0
4, 83520, Note_on_c, 2, 61, 65
4, 83520, Note_on_c, 2, 58, 69
4, 83580, Note_on_c, 2, 58, 0
4, 83580, Note_on_c, 2, 61, 0
4, 83580, Note_on_c, 2, 62, 53
4, 83580, Note_on_c, 2, 58, 61
4, 83640, Note_on_c, 2, 58, 0
4, 83640, Note_on_c, 2, 62, 0
4, 83640, Note_on_c, 2, 62, 69
4, 83640, Note_on_c, 2, 58, 69
4, 83670, Note_on_c, 2, 58, 0
4, 83670, Note_on_c, 2, 62, 0
4, 83700, Note_on_c, 2, 61, 66
4, 83700, Note_on_c, 2, 58, 66
4, 83760, Note_on_c, 2, 58, 0
4, 83760, Note_on_c, 2, 61, 0
4, 83760, Note_on_c, 2, 62, 64
4, 83760, Note_on_c, 2, 58, 70
4, 83820, Note_on_c, 2, 58, 0
4, 83820, Note_on_c, 2, 62, 0
4, 83820, Note_on_c, 2, 62, 77
4, 83820, Note_on_c, 2, 58, 77
4, 83850, Note_on_c, 2, 58, 0
4, 83850, Note_on_c, 2, 62, 0
4, 83880, Note_on_c, 2, 61, 70
4, 83880, Note_on_c, 2, 58, 73
4, 83940, Note_on_c, 2, 58, 0
4, 83940, Note_on_c, 2, 61, 0
4, 83940, Note_on_c, 2, 62, 81
4, 83940, Note_on_c, 2, 58, 82
4, 84000, Note_on_c, 2, 58, 0
4, 84000, Note_on_c, 2, 62, 0
4, 84000, Note_on_c, 2, 62, 76
4, 84000, Note_on_c, 2, 58, 85
4, 84030, Note_on_c, 2, 58, 0
4, 84030, Note_on_c, 2, 62, 0
4, 84060, Note_on_c, 2, 58, 98
4, 84060, Note_on_c, 2, 64, 99
4, 84240, Note_on_c, 2, 64, 0
4, 84240, Note_on_c, 2, 58, 0
4, 84960, Note_on_c, 2, 57, 89
4, 84960, Note_on_c, 2, 60, 77
4, 85320, Note_on_c, 2, 60, 0
4, 85320, Note_on_c, 2, 57, 0
4, 85320, Note_on_c, 2, 58, 77
4, 85320, Note_on_c, 2, 62, 77
4, 85680, Note_on_c, 2, 62, 0
4, 85680, Note_on_c, 2, 58, 0
4, 86400, Note_on_c, 2, 57, 89
4, 86400, Note_on_c, 2, 60, 77
4, 86760, Note_on_c, 2, 60, 0
4, 86760, Note_on_c, 2, 57, 0
4, 86760, Note_on_c, 2, 58, 77
4, 86760, Note_on_c, 2, 62, 77
4, 87120, Note_on_c, 2, 62, 0
4, 87120, Note_on_c, 2, 58, 0
4, 89640, Note_on_c, 2, 62, 64
4, 89640, Note_on_c, 2, 58, 53
4, 89670, Note_on_c, 2, 58, 0
4, 89670, Note_on_c, 2, 62, 0
4, 89700, Note_on_c, 2, 62, 66
4, 89700, Note_on_c, 2, 58, 64
4, 89730, Note_on_c, 2, 58, 0
4, 89730, Note_on_c, 2, 62, 0
4, 89760, Note_on_c, 2, 62, 53
4, 89760, Note_on_c, 2, 58, 66
4, 89790, Note_on_c, 2, 58, 0
4, 89790, Note_on_c, 2, 62, 0
4, 89820, Note_on_c, 2, 60, 46
4, 89820, Note_on_c, 2, 57, 76
4, 89940, Note_on_c, 2, 57, 0
4, 89940, Note_on_c, 2, 60, 0
4, 90000, Note_on_c, 2, 58, 64
4, 90000, Note_on_c, 2, 55, 52
4, 90030, Note_on_c, 2, 55, 0
4, 90030, Note_on_c, 2, 58, 0
4, 90060, Note_on_c, 2, 58, 61
4, 90060, Note_on_c, 2, 55, 62
4, 90090, Note_on_c, 2, 55, 0
4, 90090, Note_on_c, 2, 58, 0
4, 90120, Note_on_c, 2, 58, 63
4, 90120, Note_on_c, 2, 55, 65
4, 90150, Note_on_c, 2, 55, 0
4, 90150, Note_on_c, 2, 58, 0
4, 90180, Note_on_c, 2, 57, 68
4, 90180, Note_on_c, 2, 53, 62
4, 90300, Note_on_c, 2, 53, 0
4, 90300, Note_on_c, 2, 57, 0
4, 90360, Note_on_c, 2, 67, 58
4, 90360, Note_on_c, 2, 63, 45
4, 90390, Note_on_c, 2, 63, 0
4, 90390, Note_on_c, 2, 67, 0
4, 90420, Note_on_c, 2, 67, 67
4, 90420, Note_on_c, 2, 63, 63
4, 90450, Note_on_c, 2, 63, 0
4, 90450, Note_on_c, 2, 67, 0
4, 90480, Note_on_c, 2, 67, 73
4, 90480, Note_on_c, 2, 63, 73
4, 90510, Note_on_c, 2, 63, 0
4, 90510, Note_on_c, 2, 67, 0
4, 90540, Note_on_c, 2, 65, 53
4, 90540, Note_on_c, 2, 62, 64
4, 90660, Note_on_c, 2, 62, 0
4, 90660, Note_on_c, 2, 65, 0
4, 90720, Note_on_c, 2, 63, 65
4, 90720, Note_on_c, 2, 60, 58
4, 90750, Note_on_c, 2, 60, 0
4, 90750, Note_on_c, 2, 63, 0
4, 90780, Note_on_c, 2, 63, 58
4, 90780, Note_on_c, 2, 60, 50
4, 90810, Note_on_c, 2, 60, 0
4, 90810, Note_on_c, 2, 63, 0
4, 90840, Note_on_c, 2, 63, 68
4, 90840, Note_on_c, 2, 60, 59
4, 90870, Note_on_c, 2, 60, 0
4, 90870, Note_on_c, 2, 63, 0
4, 90900, Note_on_c, 2, 62, 57
4, 90900, Note_on_c, 2, 58, 64
4, 91020, Note_on_c, 2, 58, 0
4, 91020, Note_on_c, 2, 62, 0
4, 91080, Note_on_c, 2, 51, 53
4, 91200, Note_on_c, 2, 51, 0
4, 91440, Note_on_c, 2, 63, 58
4, 91560, Note_on_c, 2, 63, 0
4, 91800, Note_on_c, 2, 63, 58
4, 91920, Note_on_c, 2, 63, 0
4, 96840, Note_on_c, 2, 62, 99
4, 96840, Note_on_c, 2, 46, 99
4, 96840, Control_c, 2, 7, 99
4, 96870, Note_on_c, 2, 46, 0
4, 96870, Note_on_c, 2, 62, 0
4, 96900, Note_on_c, 2, 58, 112
4, 96900, Note_on_c, 2, 50, 107
4, 96930, Note_on_c, 2, 50, 0
4, 96960, Note_on_c, 2, 58, 0
4, 96960, Note_on_c, 2, 53, 90
4, 96990, Note_on_c, 2, 53, 0
4, 97020, Note_on_c, 2, 62, 89
4, 97020, Note_on_c, 2, 46, 98
4, 97050, Note_on_c, 2, 46, 0
4, 97050, Note_on_c, 2, 62, 0
4, 97080, Note_on_c, 2, 58, 119
4, 97080, Note_on_c, 2, 50, 107
4, 97110, Note_on_c, 2, 50, 0
4, 97140, Note_on_c, 2, 58, 0
4, 97140, Note_on_c, 2, 53, 94
4, 97170, Note_on_c, 2, 53, 0
4, 97185, Note_on_c, 2, 60, 90
4, 97200, Note_on_c, 2, 60, 0
4, 97200, Note_on_c, 2, 58, 93
4, 97200, Note_on_c, 2, 50, 99
4, 97260, Note_on_c, 2, 50, 0
4, 97260, Note_on_c, 2, 58, 0
4, 97260, Note_on_c, 2, 57, 105
4, 97260, Note_on_c, 2, 48, 101
4, 97320, Note_on_c, 2, 48, 0
4, 97320, Note_on_c, 2, 57, 0
4, 97320, Note_on_c, 2, 58, 94
4, 97320, Note_on_c, 2, 46, 99
4, 97350, Note_on_c, 2, 58, 0
4, 97380, Note_on_c, 2, 46, 0
4, 97380, Note_on_c, 2, 60, 104
4, 97380, Note_on_c, 2, 45, 89
4, 97410, Note_on_c, 2, 45, 0
4, 97440, Note_on_c, 2, 43, 95
4, 97470, Note_on_c, 2, 43, 0
4, 97500, Note_on_c, 2, 60, 0
4, 97500, Note_on_c, 2, 41, 99
4, 97530, Note_on_c, 2, 41, 0
4, 97560, Note_on_c, 2, 63, 94
4, 97560, Note_on_c, 2, 41, 104
4, 97590, Note_on_c, 2, 63, 0
4, 97620, Note_on_c, 2, 41, 0
4, 97620, Note_on_c, 2, 60, 119
4, 97620, Note_on_c, 2, 53, 98
4, 97680, Note_on_c, 2, 53, 0
4, 97680, Note_on_c, 2, 60, 0
4, 97680, Note_on_c, 2, 53, 104
4, 97740, Note_on_c, 2, 53, 0
4, 97740, Note_on_c, 2, 63, 90
4, 97740, Note_on_c, 2, 41, 110
4, 97770, Note_on_c, 2, 63, 0
4, 97800, Note_on_c, 2, 41, 0
4, 97800, Note_on_c, 2, 60, 119
4, 97800, Note_on_c, 2, 53, 93
4, 97860, Note_on_c, 2, 53, 0
4, 97860, Note_on_c, 2, 60, 0
4, 97860, Note_on_c, 2, 53, 99
4, 97905, Note_on_c, 2, 62, 95
4, 97920, Note_on_c, 2, 62, 0
4, 97920, Note_on_c, 2, 53, 0
4, 97920, Note_on_c, 2, 60, 95
4, 97920, Note_on_c, 2, 51, 95
4, 97980, Note_on_c, 2, 51, 0
4, 97980, Note_on_c, 2, 60, 0
4, 97980, Note_on_c, 2, 58, 95
4, 97980, Note_on_c, 2, 50, 107
4, 98040, Note_on_c, 2, 50, 0
4, 98040, Note_on_c, 2, 58, 0
4, 98040, Note_on_c, 2, 60, 95
4, 98040, Note_on_c, 2, 48, 104
4, 98070, Note_on_c, 2, 48, 0
4, 98070, Note_on_c, 2, 60, 0
4, 98100, Note_on_c, 2, 62, 94
4, 98100, Note_on_c, 2, 46, 99
4, 98130, Note_on_c, 2, 46, 0
4, 98160, Note_on_c, 2, 48, 101
4, 98190, Note_on_c, 2, 48, 0
4, 98220, Note_on_c, 2, 62, 0
4, 98220, Note_on_c, 2, 58, 95
4, 98220, Note_on_c, 2, 50, 105
4, 98250, Note_on_c, 2, 50, 0
4, 98250, Note_on_c, 2, 58, 0
4, 98280, Note_on_c, 2, 58, 95
4, 98280, Note_on_c, 2, 51, 107
4, 98340, Note_on_c, 2, 51, 0
4, 98340, Note_on_c, 2, 46, 105
4, 98400, Note_on_c, 2, 46, 0
4, 98400, Note_on_c, 2, 51, 98
4, 98430, Note_on_c, 2, 51, 0
4, 98460, Note_on_c, 2, 50, 105
4, 98520, Note_on_c, 2, 50, 0
4, 98520, Note_on_c, 2, 46, 98
4, 98580, Note_on_c, 2, 46, 0
4, 98580, Note_on_c, 2, 50, 99
4, 98610, Note_on_c, 2, 50, 0
4, 98640, Note_on_c, 2, 58, 0
4, 98640, Note_on_c, 2, 58, 80
4, 98640, Note_on_c, 2, 51, 110
4, 98700, Note_on_c, 2, 51, 0
4, 98700, Note_on_c, 2, 58, 0
4, 98700, Note_on_c, 2, 58, 95
4, 98700, Note_on_c, 2, 46, 99
4, 98760, Note_on_c, 2, 46, 0
4, 98760, Note_on_c, 2, 58, 0
4, 98760, Note_on_c, 2, 58, 99
4, 98760, Note_on_c, 2, 51, 115
4, 98790, Note_on_c, 2, 51, 0
4, 98820, Note_on_c, 2, 58, 0
4, 98820, Note_on_c, 2, 58, 89
4, 98820, Note_on_c, 2, 50, 112
4, 98880, Note_on_c, 2, 50, 0
4, 98880, Note_on_c, 2, 58, 0
4, 98880, Note_on_c, 2, 65, 101
4, 98880, Note_on_c, 2, 57, 110
4, 98940, Note_on_c, 2, 57, 0
4, 98940, Note_on_c, 2, 65, 0
4, 98940, Note_on_c, 2, 65, 99
4, 98940, Note_on_c, 2, 59, 105
4, 98970, Note_on_c, 2, 59, 0
4, 98970, Note_on_c, 2, 65, 0
4, 99000, Note_on_c, 2, 65, 98
4, 99000, Note_on_c, 2, 60, 94
4, 99060, Note_on_c, 2, 60, 0
4, 99060, Note_on_c, 2, 65, 0
4, 99060, Note_on_c, 2, 64, 99
4, 99060, Note_on_c, 2, 55, 99
4, 99120, Note_on_c, 2, 55, 0
4, 99120, Note_on_c, 2, 64, 0
4, 99120, Note_on_c, 2, 63, 93
4, 99120, Note_on_c, 2, 57, 107
4, 99150, Note_on_c, 2, 57, 0
4, 99150, Note_on_c, 2, 63, 0
4, 99180, Note_on_c, 2, 63, 94
4, 99180, Note_on_c, 2, 58, 99
4, 99240, Note_on_c, 2, 58, 0
4, 99240, Note_on_c, 2, 63, 0
4, 99240, Note_on_c, 2, 62, 99
4, 99240, Note_on_c, 2, 55, 98
4, 99300, Note_on_c, 2, 55, 0
4, 99300, Note_on_c, 2, 62, 0
4, 99300, Note_on_c, 2, 61, 86
4, 99300, Note_on_c, 2, 52, 104
4, 99330, Note_on_c, 2, 52, 0
4, 99330, Note_on_c, 2, 61, 0
4, 99360, Note_on_c, 2, 61, 86
4, 99360, Note_on_c, 2, 41, 105
4, 99420, Note_on_c, 2, 41, 0
4, 99420, Note_on_c, 2, 61, 0
4, 99420, Note_on_c, 2, 62, 104
4, 99420, Note_on_c, 2, 53, 105
4, 99480, Note_on_c, 2, 53, 0
4, 99480, Note_on_c, 2, 62, 0
4, 99480, Note_on_c, 2, 63, 93
4, 99480, Note_on_c, 2, 53, 95
4, 99510, Note_on_c, 2, 63, 0
4, 99540, Note_on_c, 2, 53, 0
4, 99540, Note_on_c, 2, 62, 94
4, 99540, Note_on_c, 2, 41, 105
4, 99600, Note_on_c, 2, 41, 0
4, 99600, Note_on_c, 2, 62, 0
4, 99600, Note_on_c, 2, 63, 94
4, 99600, Note_on_c, 2, 53, 94
4, 99660, Note_on_c, 2, 53, 0
4, 99660, Note_on_c, 2, 63, 0
4, 99660, Note_on_c, 2, 60, 99
4, 99660, Note_on_c, 2, 53, 89
4, 99690, Note_on_c, 2, 60, 0
4, 99720, Note_on_c, 2, 53, 0
4, 99720, Note_on_c, 2, 58, 85
4, 99720, Note_on_c, 2, 46, 95
4, 99840, Note_on_c, 2, 46, 0
4, 99840, Note_on_c, 2, 58, 0
4, 100080, Note_on_c, 2, 63, 76
4, 100110, Note_on_c, 2, 63, 0
4, 100140, Note_on_c, 2, 66, 89
4, 100380, Note_on_c, 2, 66, 0
4, 100380, Note_on_c, 2, 63, 73
4, 100410, Note_on_c, 2, 63, 0
4, 100440, Note_on_c, 2, 62, 73
4, 100560, Note_on_c, 2, 62, 0
4, 100800, Note_on_c, 2, 63, 76
4, 100830, Note_on_c, 2, 63, 0
4, 100860, Note_on_c, 2, 66, 89
4, 101100, Note_on_c, 2, 66, 0
4, 101100, Note_on_c, 2, 63, 73
4, 101130, Note_on_c, 2, 63, 0
4, 101160, Note_on_c, 2, 62, 73
4, 101280, Note_on_c, 2, 62, 0
4, 102600, Note_on_c, 2, 62, 71
4, 102720, Note_on_c, 2, 62, 0
4, 102960, Note_on_c, 2, 63, 76
4, 102990, Note_on_c, 2, 63, 0
4, 103020, Note_on_c, 2, 66, 89
4, 103260, Note_on_c, 2, 66, 0
4, 103260, Note_on_c, 2, 63, 73
4, 103290, Note_on_c, 2, 63, 0
4, 103320, Note_on_c, 2, 62, 73
4, 103440, Note_on_c, 2, 62, 0
4, 103680, Note_on_c, 2, 63, 76
4, 103710, Note_on_c, 2, 63, 0
4, 103740, Note_on_c, 2, 66, 89
4, 103980, Note_on_c, 2, 66, 0
4, 103980, Note_on_c, 2, 63, 73
4, 104010, Note_on_c, 2, 63, 0
4, 104040, Note_on_c, 2, 62, 73
4, 104160, Note_on_c, 2, 62, 0
4, 108540, Note_on_c, 2, 58, 43
4, 108540, Note_on_c, 2, 46, 43
4, 108660, Note_on_c, 2, 46, 0
4, 108660, Note_on_c, 2, 58, 0
4, 108900, Note_on_c, 2, 65, 40
4, 108900, Note_on_c, 2, 53, 44
4, 109020, Note_on_c, 2, 53, 0
4, 109020, Note_on_c, 2, 65, 0
4, 109260, Note_on_c, 2, 58, 46
4, 109260, Note_on_c, 2, 46, 57
4, 109380, Note_on_c, 2, 46, 0
4, 109380, Note_on_c, 2, 58, 0
4, 109620, Note_on_c, 2, 65, 36
4, 109620, Note_on_c, 2, 53, 42
4, 109740, Note_on_c, 2, 53, 0
4, 109740, Note_on_c, 2, 65, 0
4, 109980, Note_on_c, 2, 62, 42
4, 109980, Note_on_c, 2, 58, 42
4, 110100, Note_on_c, 2, 58, 0
4, 110100, Note_on_c, 2, 62, 0
4, 110700, Note_on_c, 2, 62, 43
4, 110700, Note_on_c, 2, 58, 43
4, 110820, Note_on_c, 2, 58, 0
4, 110820, Note_on_c, 2, 62, 0
4, 111420, Note_on_c, 2, 65, 42
4, 111420, Note_on_c, 2, 62, 45
4, 111540, Note_on_c, 2, 62, 0
4, 111540, Note_on_c, 2, 65, 0
4, 115200, Note_on_c, 2, 62, 45
4, 115200, Note_on_c, 2, 59, 54
4, 115320, Note_on_c, 2, 59, 0
4, 115320, Note_on_c, 2, 62, 0
4, 115560, Note_on_c, 2, 63, 43
4, 115560, Note_on_c, 2, 60, 43
4, 115680, Note_on_c, 2, 60, 0
4, 115680, Note_on_c, 2, 63, 0
4, 115920, Note_on_c, 2, 60, 99
4, 115920, Note_on_c, 2, 57, 94
4, 116040, Note_on_c, 2, 57, 0
4, 116040, Note_on_c, 2, 60, 0
4, 116280, Note_on_c, 2, 58, 85
4, 116280, Note_on_c, 2, 50, 104
4, 116340, Note_on_c, 2, 50, 0
4, 116340, Note_on_c, 2, 58, 0
4, 116340, Note_on_c, 2, 62, 84
4, 116340, Note_on_c, 2, 58, 89
4, 116400, Note_on_c, 2, 58, 0
4, 116400, Note_on_c, 2, 62, 0
4, 116400, Note_on_c, 2, 62, 81
4, 116400, Note_on_c, 2, 58, 86
4, 116460, Note_on_c, 2, 58, 0
4, 116460, Note_on_c, 2, 62, 0
4, 116460, Note_on_c, 2, 62, 84
4, 116460, Note_on_c, 2, 58, 85
4, 116520, Note_on_c, 2, 58, 0
4, 116520, Note_on_c, 2, 62, 0
4, 116520, Note_on_c, 2, 62, 84
4, 116520, Note_on_c, 2, 58, 90
4, 116580, Note_on_c, 2, 58, 0
4, 116580, Note_on_c, 2, 62, 0
4, 116580, Note_on_c, 2, 62, 84
4, 116580, Note_on_c, 2, 58, 89
4, 116640, Note_on_c, 2, 58, 0
4, 116640, Note_on_c, 2, 62, 0
4, 116640, Note_on_c, 2, 62, 85
4, 116640, Note_on_c, 2, 58, 86
4, 116700, Note_on_c, 2, 58, 0
4, 116700, Note_on_c, 2, 62, 0
4, 116700, Note_on_c, 2, 65, 90
4, 116700, Note_on_c, 2, 62, 95
4, 116760, Note_on_c, 2, 62, 0
4, 116760, Note_on_c, 2, 65, 0
4, 116760, Note_on_c, 2, 65, 86
4, 116760, Note_on_c, 2, 62, 86
4, 116820, Note_on_c, 2, 62, 0
4, 116820, Note_on_c, 2, 65, 0
4, 116820, Note_on_c, 2, 65, 76
4, 116820, Note_on_c, 2, 62, 90
4, 116880, Note_on_c, 2, 62, 0
4, 116880, Note_on_c, 2, 65, 0
4, 116880, Note_on_c, 2, 65, 89
4, 116880, Note_on_c, 2, 62, 84
4, 116940, Note_on_c, 2, 62, 0
4, 116940, Note_on_c, 2, 65, 0
4, 116940, Note_on_c, 2, 65, 94
4, 116940, Note_on_c, 2, 62, 94
4, 117000, Note_on_c, 2, 62, 0
4, 117000, Note_on_c, 2, 65, 0
4, 117000, Note_on_c, 2, 65, 90
4, 117000, Note_on_c, 2, 62, 95
4, 117120, Note_on_c, 2, 62, 0
4, 117120, Note_on_c, 2, 65, 0
4, 117180, Note_on_c, 2, 58, 82
4, 117180, Note_on_c, 2, 50, 104
4, 117300, Note_on_c, 2, 50, 0
4, 117300, Note_on_c, 2, 58, 0
4, 117360, Note_on_c, 2, 58, 74
4, 117360, Note_on_c, 2, 50, 99
4, 117480, Note_on_c, 2, 50, 0
4, 117480, Note_on_c, 2, 58, 0
4, 117490, Control_c, 2, 7, 99
4, 117490, Control_c, 2, 10, 88
4, 117490, Control_c, 2, 93, 0
4, 117490, Control_c, 2, 91, 63
4, 117490, End_track
5, 0, Start_track
5, 0, Title_t, "French Horns"
5, 0, Program_c, 3, 60
5, 0, Control_c, 3, 7, 100
5, 0, Control_c, 3, 10, 76
5, 2880, Note_on_c, 3, 77, 73
5, 2880, Note_on_c, 3, 65, 84
5, 3000, Note_on_c, 3, 65, 0
5, 3000, Note_on_c, 3, 77, 0
5, 3060, Note_on_c, 3, 77, 81
5, 3060, Note_on_c, 3, 65, 90
5, 3180, Note_on_c, 3, 65, 0
5, 3180, Note_on_c, 3, 77, 0
5, 3240, Note_on_c, 3, 65, 89
5, 3240, Note_on_c, 3, 77, 80
5, 3600, Note_on_c, 3, 77, 0
5, 3600, Note_on_c, 3, 65, 0
5, 3600, Note_on_c, 3, 77, 85
5, 3600, Note_on_c, 3, 65, 94
5, 3720, Note_on_c, 3, 65, 0
5, 3720, Note_on_c, 3, 77, 0
5, 3780, Note_on_c, 3, 77, 80
5, 3780, Note_on_c, 3, 65, 93
5, 3900, Note_on_c, 3, 65, 0
5, 3900, Note_on_c, 3, 77, 0
5, 3960, Note_on_c, 3, 77, 80
5, 3960, Note_on_c, 3, 65, 84
5, 4140, Note_on_c, 3, 65, 0
5, 4140, Note_on_c, 3, 77, 0
5, 4140, Note_on_c, 3, 77, 73
5, 4140, Note_on_c, 3, 65, 84
5, 4260, Note_on_c, 3, 65, 0
5, 4260, Note_on_c, 3, 77, 0
5, 4260, Note_on_c, 3, 70, 81
5, 4260, Note_on_c, 3, 58, 90
5, 4290, Note_on_c, 3, 58, 0
5, 4290, Note_on_c, 3, 70, 0
5, 4320, Note_on_c, 3, 58, 72
5, 4320, Note_on_c, 3, 70, 73
5, 4680, Note_on_c, 3, 70, 0
5, 4680, Note_on_c, 3, 58, 0
5, 4680, Note_on_c, 3, 70, 73
5, 4680, Note_on_c, 3, 58, 81
5, 4920, Note_on_c, 3, 58, 0
5, 4920, Note_on_c, 3, 70, 0
5, 5400, Note_on_c, 3, 74, 72
5, 5400, Note_on_c, 3, 70, 80
5, 5460, Note_on_c, 3, 70, 0
5, 5460, Note_on_c, 3, 74, 0
5, 5460, Note_on_c, 3, 74, 80
5, 5460, Note_on_c, 3, 70, 78
5, 5520, Note_on_c, 3, 70, 0
5, 5520, Note_on_c, 3, 74, 0
5, 5520, Note_on_c, 3, 74, 80
5, 5520, Note_on_c, 3, 70, 84
5, 5580, Note_on_c, 3, 70, 0
5, 5580, Note_on_c, 3, 74, 0
5, 5580, Note_on_c, 3, 74, 81
5, 5580, Note_on_c, 3, 70, 84
5, 5640, Note_on_c, 3, 70, 0
5, 5640, Note_on_c, 3, 74, 0
5, 5640, Note_on_c, 3, 75, 84
5, 5700, Note_on_c, 3, 75, 0
5, 5700, Note_on_c, 3, 72, 53
5, 5700, Note_on_c, 3, 65, 84
5, 5730, Note_on_c, 3, 65, 0
5, 5730, Note_on_c, 3, 72, 0
5, 5760, Note_on_c, 3, 70, 80
5, 5760, Note_on_c, 3, 62, 89
5, 5880, Note_on_c, 3, 62, 0
5, 5880, Note_on_c, 3, 70, 0
5, 6120, Note_on_c, 3, 72, 43
5, 6120, Note_on_c, 3, 65, 63
5, 6240, Note_on_c, 3, 65, 0
5, 6240, Note_on_c, 3, 72, 0
5, 6480, Note_on_c, 3, 70, 76
5, 6480, Note_on_c, 3, 62, 84
5, 6840, Note_on_c, 3, 62, 0
5, 6840, Note_on_c, 3, 70, 0
5, 6840, Note_on_c, 3, 77, 81
5, 6840, Note_on_c, 3, 65, 89
5, 6900, Note_on_c, 3, 65, 0
5, 6900, Note_on_c, 3, 77, 0
5, 6900, Note_on_c, 3, 77, 67
5, 6900, Note_on_c, 3, 65, 80
5, 6960, Note_on_c, 3, 65, 0
5, 6960, Note_on_c, 3, 77, 0
5, 6960, Note_on_c, 3, 77, 61
5, 6960, Note_on_c, 3, 65, 76
5, 7020, Note_on_c, 3, 65, 0
5, 7020, Note_on_c, 3, 77, 0
5, 7020, Note_on_c, 3, 77, 65
5, 7020, Note_on_c, 3, 65, 84
5, 7080, Note_on_c, 3, 65, 0
5, 7080, Note_on_c, 3, 77, 0
5, 7080, Note_on_c, 3, 77, 58
5, 7080, Note_on_c, 3, 65, 80
5, 7140, Note_on_c, 3, 65, 0
5, 7140, Note_on_c, 3, 77, 0
5, 7140, Note_on_c, 3, 77, 61
5, 7140, Note_on_c, 3, 65, 80
5, 7200, Note_on_c, 3, 65, 0
5, 7200, Note_on_c, 3, 77, 0
5, 7200, Note_on_c, 3, 70, 80
5, 7200, Note_on_c, 3, 58, 89
5, 7320, Note_on_c, 3, 58, 0
5, 7320, Note_on_c, 3, 70, 0
5, 7380, Note_on_c, 3, 74, 85
5, 7380, Note_on_c, 3, 70, 82
5, 7500, Note_on_c, 3, 70, 0
5, 7500, Note_on_c, 3, 74, 0
5, 7560, Note_on_c, 3, 70, 74
5, 7560, Note_on_c, 3, 62, 89
5, 7680, Note_on_c, 3, 62, 0
5, 7680, Note_on_c, 3, 70, 0
5, 8640, Note_on_c, 3, 70, 82
5, 8640, Note_on_c, 3, 58, 90
5, 9360, Note_on_c, 3, 58, 0
5, 9360, Note_on_c, 3, 70, 0
5, 9360, Note_on_c, 3, 77, 65
5, 9360, Note_on_c, 3, 65, 80
5, 9480, Note_on_c, 3, 65, 0
5, 9480, Note_on_c, 3, 77, 0
5, 10800, Note_on_c, 3, 77, 74
5, 10800, Note_on_c, 3, 65, 89
5, 11520, Note_on_c, 3, 65, 0
5, 11520, Note_on_c, 3, 77, 0
5, 11520, Note_on_c, 3, 72, 68
5, 11640, Note_on_c, 3, 72, 0
5, 20140, Control_c, 3, 7, 63
5, 20160, Note_on_c, 3, 65, 93
5, 20160, Note_on_c, 3, 77, 85
5, 20160, Control_c, 3, 7, 64
5, 20174, Control_c, 3, 7, 65
5, 20188, Control_c, 3, 7, 66
5, 20202, Control_c, 3, 7, 67
5, 20216, Control_c, 3, 7, 68
5, 20230, Control_c, 3, 7, 69
5, 20244, Control_c, 3, 7, 70
5, 20256, Control_c, 3, 7, 71
5, 20270, Control_c, 3, 7, 72
5, 20284, Control_c, 3, 7, 73
5, 20298, Control_c, 3, 7, 74
5, 20312, Control_c, 3, 7, 75
5, 20326, Control_c, 3, 7, 76
5, 20340, Control_c, 3, 7, 77
5, 20352, Control_c, 3, 7, 78
5, 20366, Control_c, 3, 7, 79
5, 20380, Control_c, 3, 7, 80
5, 20394, Control_c, 3, 7, 81
5, 20408, Control_c, 3, 7, 82
5, 20422, Control_c, 3, 7, 83
5, 20436, Control_c, 3, 7, 84
5, 20448, Control_c, 3, 7, 85
5, 20462, Control_c, 3, 7, 86
5, 20476, Control_c, 3, 7, 87
5, 20490, Control_c, 3, 7, 88
5, 20504, Control_c, 3, 7, 89
5, 20518, Control_c, 3, 7, 90
5, 20520, Note_on_c, 3, 77, 0
5, 20520, Note_on_c, 3, 65, 0
5, 20520, Note_on_c, 3, 77, 57
5, 20520, Note_on_c, 3, 65, 56
5, 20532, Control_c, 3, 7, 91
5, 20544, Control_c, 3, 7, 92
5, 20558, Control_c, 3, 7, 93
5, 20572, Control_c, 3, 7, 94
5, 20580, Note_on_c, 3, 65, 0
5, 20580, Note_on_c, 3, 77, 0
5, 20580, Note_on_c, 3, 77, 76
5, 20580, Note_on_c, 3, 65, 89
5, 20586, Control_c, 3, 7, 95
5, 20600, Control_c, 3, 7, 96
5, 20614, Control_c, 3, 7, 97
5, 20628, Control_c, 3, 7, 98
5, 20640, Note_on_c, 3, 65, 0
5, 20640, Note_on_c, 3, 77, 0
5, 20640, Control_c, 3, 7, 99
5, 20640, Note_on_c, 3, 77, 93
5, 20640, Note_on_c, 3, 65, 99
5, 20700, Note_on_c, 3, 65, 0
5, 20700, Note_on_c, 3, 77, 0
5, 20700, Note_on_c, 3, 65, 101
5, 20700, Note_on_c, 3, 77, 95
5, 20880, Note_on_c, 3, 77, 0
5, 20880, Note_on_c, 3, 65, 0
5, 21584, Control_c, 3, 7, 63
5, 21600, Note_on_c, 3, 65, 94
5, 21600, Note_on_c, 3, 77, 82
5, 21600, Control_c, 3, 7, 63
5, 21614, Control_c, 3, 7, 64
5, 21628, Control_c, 3, 7, 65
5, 21640, Control_c, 3, 7, 66
5, 21654, Control_c, 3, 7, 67
5, 21668, Control_c, 3, 7, 68
5, 21680, Control_c, 3, 7, 69
5, 21694, Control_c, 3, 7, 70
5, 21708, Control_c, 3, 7, 71
5, 21720, Control_c, 3, 7, 72
5, 21734, Control_c, 3, 7, 73
5, 21748, Control_c, 3, 7, 74
5, 21760, Control_c, 3, 7, 75
5, 21774, Control_c, 3, 7, 76
5, 21788, Control_c, 3, 7, 77
5, 21800, Control_c, 3, 7, 78
5, 21814, Control_c, 3, 7, 79
5, 21828, Control_c, 3, 7, 80
5, 21840, Control_c, 3, 7, 81
5, 21854, Control_c, 3, 7, 82
5, 21868, Control_c, 3, 7, 83
5, 21880, Control_c, 3, 7, 84
5, 21894, Control_c, 3, 7, 85
5, 21908, Control_c, 3, 7, 86
5, 21920, Control_c, 3, 7, 87
5, 21934, Control_c, 3, 7, 88
5, 21948, Control_c, 3, 7, 89
5, 21960, Note_on_c, 3, 77, 0
5, 21960, Note_on_c, 3, 65, 0
5, 21960, Control_c, 3, 7, 90
5, 21960, Note_on_c, 3, 77, 64
5, 21960, Note_on_c, 3, 65, 68
5, 21974, Control_c, 3, 7, 91
5, 21988, Control_c, 3, 7, 92
5, 22000, Control_c, 3, 7, 93
5, 22014, Control_c, 3, 7, 94
5, 22020, Note_on_c, 3, 65, 0
5, 22020, Note_on_c, 3, 77, 0
5, 22020, Note_on_c, 3, 77, 78
5, 22020, Note_on_c, 3, 65, 94
5, 22028, Control_c, 3, 7, 95
5, 22040, Control_c, 3, 7, 96
5, 22054, Control_c, 3, 7, 97
5, 22068, Control_c, 3, 7, 98
5, 22080, Note_on_c, 3, 65, 0
5, 22080, Note_on_c, 3, 77, 0
5, 22080, Control_c, 3, 7, 99
5, 22080, Note_on_c, 3, 77, 85
5, 22080, Note_on_c, 3, 65, 94
5, 22140, Note_on_c, 3, 65, 0
5, 22140, Note_on_c, 3, 77, 0
5, 22140, Note_on_c, 3, 65, 99
5, 22140, Note_on_c, 3, 77, 85
5, 22320, Note_on_c, 3, 77, 0
5, 22320, Note_on_c, 3, 65, 0
5, 23040, Note_on_c, 3, 72, 74
5, 23400, Note_on_c, 3, 72, 0
5, 23400, Note_on_c, 3, 72, 81
5, 23760, Note_on_c, 3, 72, 0
5, 24480, Note_on_c, 3, 72, 74
5, 24840, Note_on_c, 3, 72, 0
5, 24840, Note_on_c, 3, 72, 81
5, 25200, Note_on_c, 3, 72, 0
5, 37080, Note_on_c, 3, 77, 73
5, 37080, Note_on_c, 3, 65, 84
5, 37200, Note_on_c, 3, 65, 0
5, 37200, Note_on_c, 3, 77, 0
5, 37260, Note_on_c, 3, 77, 81
5, 37260, Note_on_c, 3, 65, 90
5, 37380, Note_on_c, 3, 65, 0
5, 37380, Note_on_c, 3, 77, 0
5, 37440, Note_on_c, 3, 65, 89
5, 37440, Note_on_c, 3, 77, 80
5, 37800, Note_on_c, 3, 77, 0
5, 37800, Note_on_c, 3, 65, 0
5, 37800, Note_on_c, 3, 77, 85
5, 37800, Note_on_c, 3, 65, 94
5, 37920, Note_on_c, 3, 65, 0
5, 37920, Note_on_c, 3, 77, 0
5, 37980, Note_on_c, 3, 77, 80
5, 37980, Note_on_c, 3, 65, 93
5, 38100, Note_on_c, 3, 65, 0
5, 38100, Note_on_c, 3, 77, 0
5, 38160, Note_on_c, 3, 77, 80
5, 38160, Note_on_c, 3, 65, 84
5, 38340, Note_on_c, 3, 65, 0
5, 38340, Note_on_c, 3, 77, 0
5, 38340, Note_on_c, 3, 77, 73
5, 38340, Note_on_c, 3, 65, 84
5, 38460, Note_on_c, 3, 65, 0
5, 38460, Note_on_c, 3, 77, 0
5, 38460, Note_on_c, 3, 70, 81
5, 38460, Note_on_c, 3, 58, 90
5, 38490, Note_on_c, 3, 58, 0
5, 38490, Note_on_c, 3, 70, 0
5, 38520, Note_on_c, 3, 58, 72
5, 38520, Note_on_c, 3, 70, 73
5, 38880, Note_on_c, 3, 70, 0
5, 38880, Note_on_c, 3, 58, 0
5, 38880, Note_on_c, 3, 70, 73
5, 38880, Note_on_c, 3, 58, 81
5, 39120, Note_on_c, 3, 58, 0
5, 39120, Note_on_c, 3, 70, 0
5, 39600, Note_on_c, 3, 74, 72
5, 39600, Note_on_c, 3, 70, 80
5, 39660, Note_on_c, 3, 70, 0
5, 39660, Note_on_c, 3, 74, 0
5, 39660, Note_on_c, 3, 74, 80
5, 39660, Note_on_c, 3, 70, 78
5, 39720, Note_on_c, 3, 70, 0
5, 39720, Note_on_c, 3, 74, 0
5, 39720, Note_on_c, 3, 74, 80
5, 39720, Note_on_c, 3, 70, 84
5, 39780, Note_on_c, 3, 70, 0
5, 39780, Note_on_c, 3, 74, 0
5, 39780, Note_on_c, 3, 74, 81
5, 39780, Note_on_c, 3, 70, 84
5, 39840, Note_on_c, 3, 70, 0
5, 39840, Note_on_c, 3, 74, 0
5, 39840, Note_on_c, 3, 75, 84
5, 39900, Note_on_c, 3, 75, 0
5, 39900, Note_on_c, 3, 72, 53
5, 39900, Note_on_c, 3, 65, 84
5, 39930, Note_on_c, 3, 65, 0
5, 39930, Note_on_c, 3, 72, 0
5, 39960, Note_on_c, 3, 70, 80
5, 39960, Note_on_c, 3, 62, 89
5, 40080, Note_on_c, 3, 62, 0
5, 40080, Note_on_c, 3, 70, 0
5, 40320, Note_on_c, 3, 72, 43
5, 40320, Note_on_c, 3, 65, 63
5, 40440, Note_on_c, 3, 65, 0
5, 40440, Note_on_c, 3, 72, 0
5, 40680, Note_on_c, 3, 70, 76
5, 40680, Note_on_c, 3, 62, 84
5, 41040, Note_on_c, 3, 62, 0
5, 41040, Note_on_c, 3, 70, 0
5, 41040, Note_on_c, 3, 77, 81
5, 41040, Note_on_c, 3, 65, 89
5, 41100, Note_on_c, 3, 65, 0
5, 41100, Note_on_c, 3, 77, 0
5, 41100, Note_on_c, 3, 77, 67
5, 41100, Note_on_c, 3, 65, 80
5, 41160, Note_on_c, 3, 65, 0
5, 41160, Note_on_c, 3, 77, 0
5, 41160, Note_on_c, 3, 77, 61
5, 41160, Note_on_c, 3, 65, 76
5, 41220, Note_on_c, 3, 65, 0
5, 41220, Note_on_c, 3, 77, 0
5, 41220, Note_on_c, 3, 77, 65
5, 41220, Note_on_c, 3, 65, 84
5, 41280, Note_on_c, 3, 65, 0
5, 41280, Note_on_c, 3, 77, 0
5, 41280, Note_on_c, 3, 77, 58
5, 41280, Note_on_c, 3, 65, 80
5, 41340, Note_on_c, 3, 65, 0
5, 41340, Note_on_c, 3, 77, 0
5, 41340, Note_on_c, 3, 77, 61
5, 41340, Note_on_c, 3, 65, 80
5, 41400, Note_on_c, 3, 65, 0
5, 41400, Note_on_c, 3, 77, 0
5, 41400, Note_on_c, 3, 70, 72
5, 41400, Note_on_c, 3, 58, 81
5, 41520, Note_on_c, 3, 58, 0
5, 41520, Note_on_c, 3, 70, 0
5, 42840, Note_on_c, 3, 74, 86
5, 42840, Note_on_c, 3, 62, 84
5, 42960, Note_on_c, 3, 62, 0
5, 42960, Note_on_c, 3, 74, 0
5, 43200, Note_on_c, 3, 74, 107
5, 43200, Note_on_c, 3, 62, 101
5, 43320, Note_on_c, 3, 62, 0
5, 43320, Note_on_c, 3, 74, 0
5, 43320, Note_on_c, 3, 74, 90
5, 43320, Note_on_c, 3, 62, 94
5, 43350, Note_on_c, 3, 62, 0
5, 43350, Note_on_c, 3, 74, 0
5, 43380, Note_on_c, 3, 74, 89
5, 43380, Note_on_c, 3, 62, 93
5, 43410, Note_on_c, 3, 62, 0
5, 43410, Note_on_c, 3, 74, 0
5, 43440, Note_on_c, 3, 74, 85
5, 43440, Note_on_c, 3, 62, 89
5, 43470, Note_on_c, 3, 62, 0
5, 43470, Note_on_c, 3, 74, 0
5, 43500, Note_on_c, 3, 74, 89
5, 43500, Note_on_c, 3, 62, 90
5, 43530, Note_on_c, 3, 62, 0
5, 43530, Note_on_c, 3, 74, 0
5, 43560, Note_on_c, 3, 74, 90
5, 43560, Note_on_c, 3, 62, 84
5, 43680, Note_on_c, 3, 62, 0
5, 43680, Note_on_c, 3, 74, 0
5, 43920, Note_on_c, 3, 74, 107
5, 43920, Note_on_c, 3, 62, 104
5, 44040, Note_on_c, 3, 62, 0
5, 44040, Note_on_c, 3, 74, 0
5, 44040, Note_on_c, 3, 74, 74
5, 44040, Note_on_c, 3, 62, 80
5, 44070, Note_on_c, 3, 62, 0
5, 44070, Note_on_c, 3, 74, 0
5, 44100, Note_on_c, 3, 74, 89
5, 44100, Note_on_c, 3, 62, 80
5, 44130, Note_on_c, 3, 62, 0
5, 44130, Note_on_c, 3, 74, 0
5, 44160, Note_on_c, 3, 74, 81
5, 44160, Note_on_c, 3, 62, 76
5, 44190, Note_on_c, 3, 62, 0
5, 44190, Note_on_c, 3, 74, 0
5, 44220, Note_on_c, 3, 74, 82
5, 44220, Note_on_c, 3, 62, 84
5, 44250, Note_on_c, 3, 62, 0
5, 44250, Note_on_c, 3, 74, 0
5, 44280, Note_on_c, 3, 74, 77
5, 44280, Note_on_c, 3, 62, 76
5, 44340, Note_on_c, 3, 62, 0
5, 44340, Note_on_c, 3, 74, 0
5, 44340, Note_on_c, 3, 74, 98
5, 44340, Note_on_c, 3, 62, 94
5, 44400, Note_on_c, 3, 62, 0
5, 44400, Note_on_c, 3, 74, 0
5, 44400, Note_on_c, 3, 74, 98
5, 44400, Note_on_c, 3, 62, 94
5, 44460, Note_on_c, 3, 62, 0
5, 44460, Note_on_c, 3, 74, 0
5, 44460, Note_on_c, 3, 74, 99
5, 44460, Note_on_c, 3, 62, 99
5, 44520, Note_on_c, 3, 62, 0
5, 44520, Note_on_c, 3, 74, 0
5, 44520, Note_on_c, 3, 74, 104
5, 44520, Note_on_c, 3, 62, 99
5, 44580, Note_on_c, 3, 62, 0
5, 44580, Note_on_c, 3, 74, 0
5, 44580, Note_on_c, 3, 74, 99
5, 44580, Note_on_c, 3, 62, 98
5, 44640, Note_on_c, 3, 62, 0
5, 44640, Note_on_c, 3, 74, 0
5, 44640, Note_on_c, 3, 74, 104
5, 44640, Note_on_c, 3, 62, 105
5, 44700, Note_on_c, 3, 62, 0
5, 44700, Note_on_c, 3, 74, 0
5, 44700, Note_on_c, 3, 74, 99
5, 44700, Note_on_c, 3, 62, 98
5, 44760, Note_on_c, 3, 62, 0
5, 44760, Note_on_c, 3, 74, 0
5, 44760, Note_on_c, 3, 74, 99
5, 44760, Note_on_c, 3, 62, 99
5, 44820, Note_on_c, 3, 62, 0
5, 44820, Note_on_c, 3, 74, 0
5, 44820, Note_on_c, 3, 74, 104
5, 44820, Note_on_c, 3, 62, 99
5, 44880, Note_on_c, 3, 62, 0
5, 44880, Note_on_c, 3, 74, 0
5, 44880, Note_on_c, 3, 74, 99
5, 44880, Note_on_c, 3, 62, 98
5, 44940, Note_on_c, 3, 62, 0
5, 44940, Note_on_c, 3, 74, 0
5, 44940, Note_on_c, 3, 74, 101
5, 44940, Note_on_c, 3, 62, 99
5, 45000, Note_on_c, 3, 62, 0
5, 45000, Note_on_c, 3, 74, 0
5, 45000, Note_on_c, 3, 74, 46
5, 45000, Note_on_c, 3, 62, 43
5, 45120, Note_on_c, 3, 62, 0
5, 45120, Note_on_c, 3, 74, 0
5, 57600, Note_on_c, 3, 77, 86
5, 57600, Note_on_c, 3, 65, 95
5, 57704, Control_c, 3, 7, 99
5, 57706, Control_c, 3, 7, 96
5, 57708, Control_c, 3, 7, 93
5, 57710, Control_c, 3, 7, 90
5, 57712, Control_c, 3, 7, 87
5, 57714, Control_c, 3, 7, 84
5, 57716, Control_c, 3, 7, 81
5, 57718, Control_c, 3, 7, 78
5, 57720, Control_c, 3, 7, 75
5, 57722, Control_c, 3, 7, 72
5, 57724, Control_c, 3, 7, 69
5, 57726, Control_c, 3, 7, 65
5, 58320, Note_on_c, 3, 65, 0
5, 58320, Note_on_c, 3, 77, 0
5, 58320, Note_on_c, 3, 77, 85
5, 58320, Note_on_c, 3, 65, 89
5, 58320, Control_c, 3, 7, 99
5, 58424, Control_c, 3, 7, 99
5, 58426, Control_c, 3, 7, 96
5, 58428, Control_c, 3, 7, 92
5, 58430, Control_c, 3, 7, 88
5, 58432, Control_c, 3, 7, 84
5, 58434, Control_c, 3, 7, 80
5, 58436, Control_c, 3, 7, 76
5, 58438, Control_c, 3, 7, 72
5, 58440, Control_c, 3, 7, 68
5, 58442, Control_c, 3, 7, 64
5, 59040, Note_on_c, 3, 65, 0
5, 59040, Note_on_c, 3, 77, 0
5, 59040, Note_on_c, 3, 77, 78
5, 59040, Note_on_c, 3, 65, 89
5, 59160, Note_on_c, 3, 65, 0
5, 59160, Note_on_c, 3, 77, 0
5, 59400, Control_c, 3, 7, 99
5, 64800, Note_on_c, 3, 77, 73
5, 64800, Note_on_c, 3, 65, 84
5, 64920, Note_on_c, 3, 65, 0
5, 64920, Note_on_c, 3, 77, 0
5, 64980, Note_on_c, 3, 77, 81
5, 64980, Note_on_c, 3, 65, 90
5, 65100, Note_on_c, 3, 65, 0
5, 65100, Note_on_c, 3, 77, 0
5, 65160, Note_on_c, 3, 65, 89
5, 65160, Note_on_c, 3, 77, 80
5, 65520, Note_on_c, 3, 77, 0
5, 65520, Note_on_c, 3, 65, 0
5, 65520, Note_on_c, 3, 77, 85
5, 65520, Note_on_c, 3, 65, 94
5, 65640, Note_on_c, 3, 65, 0
5, 65640, Note_on_c, 3, 77, 0
5, 65700, Note_on_c, 3, 77, 80
5, 65700, Note_on_c, 3, 65, 93
5, 65820, Note_on_c, 3, 65, 0
5, 65820, Note_on_c, 3, 77, 0
5, 65880, Note_on_c, 3, 77, 80
5, 65880, Note_on_c, 3, 65, 84
5, 66060, Note_on_c, 3, 65, 0
5, 66060, Note_on_c, 3, 77, 0
5, 66060, Note_on_c, 3, 77, 73
5, 66060, Note_on_c, 3, 65, 84
5, 66180, Note_on_c, 3, 65, 0
5, 66180, Note_on_c, 3, 77, 0
5, 66180, Note_on_c, 3, 70, 81
5, 66180, Note_on_c, 3, 58, 90
5, 66210, Note_on_c, 3, 58, 0
5, 66210, Note_on_c, 3, 70, 0
5, 66240, Note_on_c, 3, 58, 72
5, 66240, Note_on_c, 3, 70, 73
5, 66600, Note_on_c, 3, 70, 0
5, 66600, Note_on_c, 3, 58, 0
5, 66600, Note_on_c, 3, 70, 73
5, 66600, Note_on_c, 3, 58, 81
5, 66840, Note_on_c, 3, 58, 0
5, 66840, Note_on_c, 3, 70, 0
5, 67320, Note_on_c, 3, 74, 72
5, 67320, Note_on_c, 3, 70, 80
5, 67380, Note_on_c, 3, 70, 0
5, 67380, Note_on_c, 3, 74, 0
5, 67380, Note_on_c, 3, 74, 80
5, 67380, Note_on_c, 3, 70, 78
5, 67440, Note_on_c, 3, 70, 0
5, 67440, Note_on_c, 3, 74, 0
5, 67440, Note_on_c, 3, 74, 80
5, 67440, Note_on_c, 3, 70, 84
5, 67500, Note_on_c, 3, 70, 0
5, 67500, Note_on_c, 3, 74, 0
5, 67500, Note_on_c, 3, 74, 81
5, 67500, Note_on_c, 3, 70, 84
5, 67560, Note_on_c, 3, 70, 0
5, 67560, Note_on_c, 3, 74, 0
5, 67560, Note_on_c, 3, 75, 84
5, 67620, Note_on_c, 3, 75, 0
5, 67620, Note_on_c, 3, 72, 53
5, 67620, Note_on_c, 3, 65, 84
5, 67650, Note_on_c, 3, 65, 0
5, 67650, Note_on_c, 3, 72, 0
5, 67680, Note_on_c, 3, 70, 80
5, 67680, Note_on_c, 3, 62, 89
5, 67800, Note_on_c, 3, 62, 0
5, 67800, Note_on_c, 3, 70, 0
5, 68040, Note_on_c, 3, 72, 43
5, 68040, Note_on_c, 3, 65, 63
5, 68160, Note_on_c, 3, 65, 0
5, 68160, Note_on_c, 3, 72, 0
5, 68400, Note_on_c, 3, 70, 76
5, 68400, Note_on_c, 3, 62, 84
5, 68760, Note_on_c, 3, 62, 0
5, 68760, Note_on_c, 3, 70, 0
5, 68760, Note_on_c, 3, 77, 81
5, 68760, Note_on_c, 3, 65, 89
5, 68820, Note_on_c, 3, 65, 0
5, 68820, Note_on_c, 3, 77, 0
5, 68820, Note_on_c, 3, 77, 67
5, 68820, Note_on_c, 3, 65, 80
5, 68880, Note_on_c, 3, 65, 0
5, 68880, Note_on_c, 3, 77, 0
5, 68880, Note_on_c, 3, 77, 61
5, 68880, Note_on_c, 3, 65, 76
5, 68940, Note_on_c, 3, 65, 0
5, 68940, Note_on_c, 3, 77, 0
5, 68940, Note_on_c, 3, 77, 65
5, 68940, Note_on_c, 3, 65, 84
5, 69000, Note_on_c, 3, 65, 0
5, 69000, Note_on_c, 3, 77, 0
5, 69000, Note_on_c, 3, 77, 58
5, 69000, Note_on_c, 3, 65, 80
5, 69060, Note_on_c, 3, 65, 0
5, 69060, Note_on_c, 3, 77, 0
5, 69060, Note_on_c, 3, 77, 61
5, 69060, Note_on_c, 3, 65, 80
5, 69120, Note_on_c, 3, 65, 0
5, 69120, Note_on_c, 3, 77, 0
5, 69120, Note_on_c, 3, 70, 80
5, 69120, Note_on_c, 3, 58, 89
5, 69240, Note_on_c, 3, 58, 0
5, 69240, Note_on_c, 3, 70, 0
5, 69300, Note_on_c, 3, 74, 85
5, 69300, Note_on_c, 3, 70, 82
5, 69420, Note_on_c, 3, 70, 0
5, 69420, Note_on_c, 3, 74, 0
5, 69480, Note_on_c, 3, 70, 74
5, 69480, Note_on_c, 3, 62, 89
5, 69600, Note_on_c, 3, 62, 0
5, 69600, Note_on_c, 3, 70, 0
5, 70560, Note_on_c, 3, 70, 82
5, 70560, Note_on_c, 3, 58, 90
5, 71280, Note_on_c, 3, 58, 0
5, 71280, Note_on_c, 3, 70, 0
5, 71280, Note_on_c, 3, 77, 65
5, 71280, Note_on_c, 3, 65, 80
5, 71400, Note_on_c, 3, 65, 0
5, 71400, Note_on_c, 3, 77, 0
5, 72720, Note_on_c, 3, 70, 84
5, 72720, Note_on_c, 3, 58, 90
5, 73440, Note_on_c, 3, 58, 0
5, 73440, Note_on_c, 3, 70, 0
5, 73440, Note_on_c, 3, 70, 73
5, 73440, Note_on_c, 3, 58, 80
5, 73560, Note_on_c, 3, 58, 0
5, 73560, Note_on_c, 3, 70, 0
5, 82080, Note_on_c, 3, 70, 57
5, 82080, Note_on_c, 3, 58, 57
5, 82140, Note_on_c, 3, 58, 0
5, 82140, Note_on_c, 3, 70, 0
5, 82140, Note_on_c, 3, 70, 52
5, 82140, Note_on_c, 3, 58, 59
5, 82200, Note_on_c, 3, 58, 0
5, 82200, Note_on_c, 3, 70, 0
5, 82200, Note_on_c, 3, 70, 73
5, 82200, Note_on_c, 3, 58, 74
5, 82260, Note_on_c, 3, 58, 0
5, 82260, Note_on_c, 3, 70, 0
5, 82260, Note_on_c, 3, 70, 76
5, 82260, Note_on_c, 3, 58, 84
5, 82320, Note_on_c, 3, 58, 0
5, 82320, Note_on_c, 3, 70, 0
5, 82320, Note_on_c, 3, 70, 77
5, 82320, Note_on_c, 3, 58, 89
5, 82380, Note_on_c, 3, 58, 0
5, 82380, Note_on_c, 3, 70, 0
5, 82380, Note_on_c, 3, 58, 90
5, 82380, Note_on_c, 3, 70, 85
5, 82440, Note_on_c, 3, 70, 0
5, 82440, Note_on_c, 3, 58, 0
5, 82440, Note_on_c, 3, 70, 95
5, 82440, Note_on_c, 3, 58, 94
5, 82500, Note_on_c, 3, 58, 0
5, 82500, Note_on_c, 3, 70, 0
5, 82500, Note_on_c, 3, 70, 99
5, 82500, Note_on_c, 3, 58, 98
5, 82560, Note_on_c, 3, 58, 0
5, 82560, Note_on_c, 3, 70, 0
5, 82560, Note_on_c, 3, 70, 99
5, 82560, Note_on_c, 3, 58, 98
5, 82620, Note_on_c, 3, 58, 0
5, 82620, Note_on_c, 3, 70, 0
5, 82620, Note_on_c, 3, 70, 86
5, 82620, Note_on_c, 3, 75, 98
5, 82800, Note_on_c, 3, 75, 0
5, 82800, Note_on_c, 3, 70, 0
5, 83520, Note_on_c, 3, 70, 57
5, 83520, Note_on_c, 3, 58, 57
5, 83580, Note_on_c, 3, 58, 0
5, 83580, Note_on_c, 3, 70, 0
5, 83580, Note_on_c, 3, 70, 52
5, 83580, Note_on_c, 3, 58, 59
5, 83640, Note_on_c, 3, 58, 0
5, 83640, Note_on_c, 3, 70, 0
5, 83640, Note_on_c, 3, 70, 73
5, 83640, Note_on_c, 3, 58, 74
5, 83700, Note_on_c, 3, 58, 0
5, 83700, Note_on_c, 3, 70, 0
5, 83700, Note_on_c, 3, 70, 76
5, 83700, Note_on_c, 3, 58, 84
5, 83760, Note_on_c, 3, 58, 0
5, 83760, Note_on_c, 3, 70, 0
5, 83760, Note_on_c, 3, 70, 77
5, 83760, Note_on_c, 3, 58, 89
5, 83820, Note_on_c, 3, 58, 0
5, 83820, Note_on_c, 3, 70, 0
5, 83820, Note_on_c, 3, 58, 90
5, 83820, Note_on_c, 3, 70, 85
5, 83880, Note_on_c, 3, 70, 0
5, 83880, Note_on_c, 3, 58, 0
5, 83880, Note_on_c, 3, 70, 95
5, 83880, Note_on_c, 3, 58, 94
5, 83940, Note_on_c, 3, 58, 0
5, 83940, Note_on_c, 3, 70, 0
5, 83940, Note_on_c, 3, 70, 99
5, 83940, Note_on_c, 3, 58, 98
5, 84000, Note_on_c, 3, 58, 0
5, 84000, Note_on_c, 3, 70, 0
5, 84000, Note_on_c, 3, 70, 99
5, 84000, Note_on_c, 3, 58, 98
5, 84060, Note_on_c, 3, 58, 0
5, 84060, Note_on_c, 3, 70, 0
5, 84060, Note_on_c, 3, 70, 86
5, 84060, Note_on_c, 3, 72, 101
5, 84240, Note_on_c, 3, 72, 0
5, 84240, Note_on_c, 3, 70, 0
5, 84960, Note_on_c, 3, 65, 80
5, 84960, Note_on_c, 3, 77, 73
5, 85320, Note_on_c, 3, 77, 0
5, 85320, Note_on_c, 3, 65, 0
5, 85320, Note_on_c, 3, 77, 80
5, 85320, Note_on_c, 3, 65, 90
5, 85560, Note_on_c, 3, 65, 0
5, 85560, Note_on_c, 3, 77, 0
5, 85560, Note_on_c, 3, 74, 76
5, 85560, Note_on_c, 3, 62, 72
5, 85590, Note_on_c, 3, 62, 0
5, 85590, Note_on_c, 3, 74, 0
5, 85620, Note_on_c, 3, 70, 77
5, 85620, Note_on_c, 3, 58, 81
5, 85650, Note_on_c, 3, 58, 0
5, 85650, Note_on_c, 3, 70, 0
5, 86400, Note_on_c, 3, 65, 80
5, 86400, Note_on_c, 3, 77, 73
5, 86760, Note_on_c, 3, 77, 0
5, 86760, Note_on_c, 3, 65, 0
5, 86760, Note_on_c, 3, 77, 80
5, 86760, Note_on_c, 3, 65, 90
5, 87000, Note_on_c, 3, 65, 0
5, 87000, Note_on_c, 3, 77, 0
5, 87000, Note_on_c, 3, 74, 76
5, 87000, Note_on_c, 3, 62, 72
5, 87030, Note_on_c, 3, 62, 0
5, 87030, Note_on_c, 3, 74, 0
5, 87060, Note_on_c, 3, 70, 77
5, 87060, Note_on_c, 3, 58, 81
5, 87090, Note_on_c, 3, 58, 0
5, 87090, Note_on_c, 3, 70, 0
5, 96076, Control_c, 3, 7, 66
5, 96120, Note_on_c, 3, 65, 101
5, 96120, Note_on_c, 3, 72, 64
5, 96120, Control_c, 3, 7, 66
5, 96142, Control_c, 3, 7, 67
5, 96164, Control_c, 3, 7, 68
5, 96186, Control_c, 3, 7, 69
5, 96208, Control_c, 3, 7, 70
5, 96230, Control_c, 3, 7, 71
5, 96252, Control_c, 3, 7, 72
5, 96274, Control_c, 3, 7, 73
5, 96296, Control_c, 3, 7, 74
5, 96318, Control_c, 3, 7, 75
5, 96340, Control_c, 3, 7, 76
5, 96360, Control_c, 3, 7, 77
5, 96382, Control_c, 3, 7, 78
5, 96404, Control_c, 3, 7, 79
5, 96426, Control_c, 3, 7, 80
5, 96448, Control_c, 3, 7, 81
5, 96470, Control_c, 3, 7, 82
5, 96492, Control_c, 3, 7, 83
5, 96514, Control_c, 3, 7, 84
5, 96536, Control_c, 3, 7, 85
5, 96558, Control_c, 3, 7, 86
5, 96580, Control_c, 3, 7, 87
5, 96600, Control_c, 3, 7, 88
5, 96622, Control_c, 3, 7, 89
5, 96644, Control_c, 3, 7, 90
5, 96666, Control_c, 3, 7, 91
5, 96688, Control_c, 3, 7, 92
5, 96710, Control_c, 3, 7, 93
5, 96732, Control_c, 3, 7, 94
5, 96754, Control_c, 3, 7, 95
5, 96776, Control_c, 3, 7, 96
5, 96798, Control_c, 3, 7, 97
5, 96820, Control_c, 3, 7, 98
5, 96840, Note_on_c, 3, 72, 0
5, 96840, Note_on_c, 3, 65, 0
5, 96840, Note_on_c, 3, 70, 80
5, 96840, Note_on_c, 3, 62, 104
5, 96840, Control_c, 3, 7, 99
5, 96960, Note_on_c, 3, 62, 0
5, 96960, Note_on_c, 3, 70, 0
5, 97020, Note_on_c, 3, 77, 94
5, 97020, Note_on_c, 3, 65, 95
5, 97140, Note_on_c, 3, 65, 0
5, 97140, Note_on_c, 3, 77, 0
5, 97200, Note_on_c, 3, 77, 85
5, 97200, Note_on_c, 3, 65, 98
5, 97560, Note_on_c, 3, 65, 0
5, 97560, Note_on_c, 3, 77, 0
5, 97560, Note_on_c, 3, 77, 85
5, 97560, Note_on_c, 3, 65, 94
5, 97680, Note_on_c, 3, 65, 0
5, 97680, Note_on_c, 3, 77, 0
5, 97740, Note_on_c, 3, 77, 85
5, 97740, Note_on_c, 3, 65, 90
5, 97860, Note_on_c, 3, 65, 0
5, 97860, Note_on_c, 3, 77, 0
5, 97920, Note_on_c, 3, 77, 85
5, 97920, Note_on_c, 3, 65, 99
5, 98100, Note_on_c, 3, 65, 0
5, 98100, Note_on_c, 3, 77, 0
5, 98100, Note_on_c, 3, 77, 76
5, 98100, Note_on_c, 3, 65, 84
5, 98220, Note_on_c, 3, 65, 0
5, 98220, Note_on_c, 3, 77, 0
5, 98220, Note_on_c, 3, 70, 81
5, 98220, Note_on_c, 3, 58, 89
5, 98250, Note_on_c, 3, 58, 0
5, 98250, Note_on_c, 3, 70, 0
5, 98280, Note_on_c, 3, 70, 84
5, 98280, Note_on_c, 3, 58, 90
5, 98760, Note_on_c, 3, 58, 0
5, 98760, Note_on_c, 3, 70, 0
5, 98760, Note_on_c, 3, 70, 76
5, 98760, Note_on_c, 3, 58, 84
5, 98880, Note_on_c, 3, 58, 0
5, 98880, Note_on_c, 3, 70, 0
5, 99360, Note_on_c, 3, 74, 89
5, 99360, Note_on_c, 3, 70, 89
5, 99420, Note_on_c, 3, 70, 0
5, 99420, Note_on_c, 3, 74, 0
5, 99420, Note_on_c, 3, 74, 90
5, 99420, Note_on_c, 3, 70, 93
5, 99480, Note_on_c, 3, 70, 0
5, 99480, Note_on_c, 3, 74, 0
5, 99480, Note_on_c, 3, 74, 98
5, 99480, Note_on_c, 3, 70, 94
5, 99540, Note_on_c, 3, 70, 0
5, 99540, Note_on_c, 3, 74, 0
5, 99540, Note_on_c, 3, 74, 99
5, 99540, Note_on_c, 3, 70, 95
5, 99600, Note_on_c, 3, 70, 0
5, 99600, Note_on_c, 3, 74, 0
5, 99600, Note_on_c, 3, 75, 94
5, 99600, Note_on_c, 3, 72, 71
5, 99660, Note_on_c, 3, 72, 0
5, 99660, Note_on_c, 3, 75, 0
5, 99660, Note_on_c, 3, 72, 76
5, 99660, Note_on_c, 3, 65, 105
5, 99690, Note_on_c, 3, 65, 0
5, 99690, Note_on_c, 3, 72, 0
5, 99720, Note_on_c, 3, 70, 84
5, 99720, Note_on_c, 3, 62, 98
5, 99840, Note_on_c, 3, 62, 0
5, 99840, Note_on_c, 3, 70, 0
5, 108360, Note_on_c, 3, 77, 42
5, 108360, Note_on_c, 3, 65, 39
5, 109080, Note_on_c, 3, 65, 0
5, 109080, Note_on_c, 3, 77, 0
5, 109080, Note_on_c, 3, 77, 42
5, 109080, Note_on_c, 3, 65, 39
5, 109800, Note_on_c, 3, 65, 0
5, 109800, Note_on_c, 3, 77, 0
5, 109800, Note_on_c, 3, 77, 43
5, 109800, Note_on_c, 3, 65, 43
5, 109920, Note_on_c, 3, 65, 0
5, 109920, Note_on_c, 3, 77, 0
5, 109980, Note_on_c, 3, 70, 46
5, 109980, Note_on_c, 3, 62, 43
5, 110100, Note_on_c, 3, 62, 0
5, 110100, Note_on_c, 3, 70, 0
5, 110700, Note_on_c, 3, 70, 43
5, 110700, Note_on_c, 3, 58, 42
5, 110820, Note_on_c, 3, 58, 0
5, 110820, Note_on_c, 3, 70, 0
5, 111420, Note_on_c, 3, 70, 37
5, 111420, Note_on_c, 3, 58, 40
5, 111540, Note_on_c, 3, 58, 0
5, 111540, Note_on_c, 3, 70, 0
5, 115920, Note_on_c, 3, 72, 62
5, 115920, Note_on_c, 3, 65, 94
5, 116040, Note_on_c, 3, 65, 0
5, 116040, Note_on_c, 3, 72, 0
5, 116280, Note_on_c, 3, 70, 86
5, 116280, Note_on_c, 3, 62, 99
5, 116340, Note_on_c, 3, 62, 0
5, 116340, Note_on_c, 3, 70, 0
5, 116340, Note_on_c, 3, 70, 86
5, 116340, Note_on_c, 3, 62, 99
5, 116400, Note_on_c, 3, 62, 0
5, 116400, Note_on_c, 3, 70, 0
5, 116400, Note_on_c, 3, 70, 84
5, 116400, Note_on_c, 3, 62, 98
5, 116460, Note_on_c, 3, 62, 0
5, 116460, Note_on_c, 3, 70, 0
5, 116460, Note_on_c, 3, 70, 86
5, 116460, Note_on_c, 3, 62, 99
5, 116520, Note_on_c, 3, 62, 0
5, 116520, Note_on_c, 3, 70, 0
5, 116520, Note_on_c, 3, 70, 86
5, 116520, Note_on_c, 3, 62, 99
5, 116580, Note_on_c, 3, 62, 0
5, 116580, Note_on_c, 3, 70, 0
5, 116580, Note_on_c, 3, 70, 86
5, 116580, Note_on_c, 3, 62, 99
5, 116640, Note_on_c, 3, 62, 0
5, 116640, Note_on_c, 3, 70, 0
5, 116640, Note_on_c, 3, 70, 94
5, 116640, Note_on_c, 3, 62, 99
5, 116700, Note_on_c, 3, 62, 0
5, 116700, Note_on_c, 3, 70, 0
5, 116700, Note_on_c, 3, 74, 95
5, 116700, Note_on_c, 3, 70, 95
5, 116760, Note_on_c, 3, 70, 0
5, 116760, Note_on_c, 3, 74, 0
5, 116760, Note_on_c, 3, 74, 94
5, 116760, Note_on_c, 3, 70, 94
5, 116820, Note_on_c, 3, 70, 0
5, 116820, Note_on_c, 3, 74, 0
5, 116820, Note_on_c, 3, 74, 95
5, 116820, Note_on_c, 3, 70, 95
5, 116880, Note_on_c, 3, 70, 0
5, 116880, Note_on_c, 3, 74, 0
5, 116880, Note_on_c, 3, 74, 90
5, 116880, Note_on_c, 3, 70, 95
5, 116940, Note_on_c, 3, 70, 0
5, 116940, Note_on_c, 3, 74, 0
5, 116940, Note_on_c, 3, 74, 93
5, 116940, Note_on_c, 3, 70, 94
5, 117000, Note_on_c, 3, 70, 0
5, 117000, Note_on_c, 3, 74, 0
5, 117000, Note_on_c, 3, 74, 93
5, 117000, Note_on_c, 3, 70, 95
5, 117120, Note_on_c, 3, 70, 0
5, 117120, Note_on_c, 3, 74, 0
5, 117180, Note_on_c, 3, 70, 89
5, 117180, Note_on_c, 3, 62, 99
5, 117300, Note_on_c, 3, 62, 0
5, 117300, Note_on_c, 3, 70, 0
5, 117360, Note_on_c, 3, 70, 86
5, 117360, Note_on_c, 3, 62, 104
5, 117480, Note_on_c, 3, 62, 0
5, 117480, Note_on_c, 3, 70, 0
5, 117490, Control_c, 3, 7, 99
5, 117490, Control_c, 3, 10, 53
5, 117490, Control_c, 3, 93, 0
5, 117490, Control_c, 3, 91, 66
5, 117490, End_track
6, 0, Start_track
6, 0, Title_t, "Piano"
6, 0, Program_c, 4, 0
6, 0, Control_c, 4, 7, 100
6, 0, Note_on_c, 4, 74, 101
6, 0, Note_on_c, 4, 46, 95
6, 30, Note_on_c, 4, 46, 0
6, 30, Note_on_c, 4, 74, 0
6, 60, Note_on_c, 4, 70, 101
6, 60, Note_on_c, 4, 50, 105
6, 90, Note_on_c, 4, 50, 0
6, 120, Note_on_c, 4, 53, 90
6, 150, Note_on_c, 4, 53, 0
6, 180, Note_on_c, 4, 70, 0
6, 180, Note_on_c, 4, 74, 94
6, 180, Note_on_c, 4, 58, 93
6, 210, Note_on_c, 4, 58, 0
6, 210, Note_on_c, 4, 74, 0
6, 240, Note_on_c, 4, 70, 99
6, 240, Note_on_c, 4, 62, 99
6, 270, Note_on_c, 4, 62, 0
6, 300, Note_on_c, 4, 65, 80
6, 330, Note_on_c, 4, 65, 0
6, 345, Note_on_c, 4, 72, 78
6, 360, Note_on_c, 4, 72, 0
6, 360, Note_on_c, 4, 70, 0
6, 360, Note_on_c, 4, 70, 94
6, 360, Note_on_c, 4, 62, 86
6, 390, Note_on_c, 4, 62, 0
6, 420, Note_on_c, 4, 70, 0
6, 420, Note_on_c, 4, 69, 95
6, 420, Note_on_c, 4, 60, 94
6, 450, Note_on_c, 4, 60, 0
6, 480, Note_on_c, 4, 69, 0
6, 480, Note_on_c, 4, 70, 98
6, 480, Note_on_c, 4, 58, 80
6, 510, Note_on_c, 4, 58, 0
6, 510, Note_on_c, 4, 70, 0
6, 540, Note_on_c, 4, 72, 80
6, 540, Note_on_c, 4, 57, 71
6, 570, Note_on_c, 4, 57, 0
6, 600, Note_on_c, 4, 55, 93
6, 630, Note_on_c, 4, 55, 0
6, 660, Note_on_c, 4, 72, 0
6, 660, Note_on_c, 4, 53, 93
6, 690, Note_on_c, 4, 53, 0
6, 720, Note_on_c, 4, 75, 86
6, 720, Note_on_c, 4, 41, 93
6, 750, Note_on_c, 4, 41, 0
6, 750, Note_on_c, 4, 75, 0
6, 780, Note_on_c, 4, 72, 68
6, 780, Note_on_c, 4, 69, 95
6, 780, Note_on_c, 4, 65, 95
6, 780, Note_on_c, 4, 45, 99
6, 810, Note_on_c, 4, 45, 0
6, 840, Note_on_c, 4, 48, 89
6, 870, Note_on_c, 4, 48, 0
6, 900, Note_on_c, 4, 65, 0
6, 900, Note_on_c, 4, 69, 0
6, 900, Note_on_c, 4, 72, 0
6, 900, Note_on_c, 4, 75, 93
6, 900, Note_on_c, 4, 53, 78
6, 930, Note_on_c, 4, 53, 0
6, 930, Note_on_c, 4, 75, 0
6, 960, Note_on_c, 4, 65, 101
6, 960, Note_on_c, 4, 69, 99
6, 960, Note_on_c, 4, 72, 71
6, 960, Note_on_c, 4, 57, 105
6, 990, Note_on_c, 4, 57, 0
6, 1020, Note_on_c, 4, 60, 80
6, 1050, Note_on_c, 4, 60, 0
6, 1065, Note_on_c, 4, 74, 94
6, 1080, Note_on_c, 4, 74, 0
6, 1080, Note_on_c, 4, 65, 0
6, 1080, Note_on_c, 4, 69, 0
6, 1080, Note_on_c, 4, 72, 0
6, 1080, Note_on_c, 4, 72, 84
6, 1080, Note_on_c, 4, 63, 80
6, 1110, Note_on_c, 4, 63, 0
6, 1140, Note_on_c, 4, 72, 0
6, 1140, Note_on_c, 4, 70, 90
6, 1140, Note_on_c, 4, 62, 89
6, 1170, Note_on_c, 4, 62, 0
6, 1200, Note_on_c, 4, 70, 0
6, 1200, Note_on_c, 4, 72, 84
6, 1200, Note_on_c, 4, 60, 95
6, 1230, Note_on_c, 4, 60, 0
6, 1230, Note_on_c, 4, 72, 0
6, 1260, Note_on_c, 4, 74, 90
6, 1260, Note_on_c, 4, 58, 84
6, 1290, Note_on_c, 4, 58, 0
6, 1320, Note_on_c, 4, 60, 94
6, 1350, Note_on_c, 4, 60, 0
6, 1380, Note_on_c, 4, 74, 0
6, 1380, Note_on_c, 4, 70, 89
6, 1380, Note_on_c, 4, 62, 94
6, 1410, Note_on_c, 4, 62, 0
6, 1440, Note_on_c, 4, 70, 0
6, 1440, Note_on_c, 4, 70, 89
6, 1440, Note_on_c, 4, 63, 76
6, 1470, Note_on_c, 4, 70, 0
6, 1470, Note_on_c, 4, 72, 73
6, 1477, Note_on_c, 4, 70, 89
6, 1478, Note_on_c, 4, 72, 0
6, 1485, Note_on_c, 4, 70, 0
6, 1485, Note_on_c, 4, 69, 94
6, 1492, Note_on_c, 4, 70, 90
6, 1493, Note_on_c, 4, 69, 0
6, 1500, Note_on_c, 4, 70, 0
6, 1500, Note_on_c, 4, 63, 0
6, 1500, Note_on_c, 4, 79, 89
6, 1500, Note_on_c, 4, 58, 93
6, 1560, Note_on_c, 4, 58, 0
6, 1560, Note_on_c, 4, 79, 0
6, 1560, Note_on_c, 4, 79, 89
6, 1560, Note_on_c, 4, 63, 80
6, 1590, Note_on_c, 4, 79, 0
6, 1620, Note_on_c, 4, 63, 0
6, 1620, Note_on_c, 4, 79, 86
6, 1620, Note_on_c, 4, 62, 84
6, 1680, Note_on_c, 4, 62, 0
6, 1680, Note_on_c, 4, 79, 0
6, 1680, Note_on_c, 4, 77, 93
6, 1680, Note_on_c, 4, 58, 84
6, 1740, Note_on_c, 4, 58, 0
6, 1740, Note_on_c, 4, 77, 0
6, 1740, Note_on_c, 4, 62, 84
6, 1740, Note_on_c, 4, 70, 90
6, 1770, Note_on_c, 4, 70, 0
6, 1800, Note_on_c, 4, 62, 0
6, 1800, Note_on_c, 4, 70, 94
6, 1800, Note_on_c, 4, 63, 80
6, 1830, Note_on_c, 4, 70, 0
6, 1830, Note_on_c, 4, 72, 61
6, 1837, Note_on_c, 4, 70, 89
6, 1838, Note_on_c, 4, 72, 0
6, 1845, Note_on_c, 4, 70, 0
6, 1845, Note_on_c, 4, 69, 94
6, 1852, Note_on_c, 4, 70, 89
6, 1853, Note_on_c, 4, 69, 0
6, 1860, Note_on_c, 4, 70, 0
6, 1860, Note_on_c, 4, 63, 0
6, 1860, Note_on_c, 4, 79, 77
6, 1860, Note_on_c, 4, 58, 93
6, 1920, Note_on_c, 4, 58, 0
6, 1920, Note_on_c, 4, 79, 0
6, 1920, Note_on_c, 4, 79, 85
6, 1920, Note_on_c, 4, 63, 84
6, 1950, Note_on_c, 4, 79, 0
6, 1980, Note_on_c, 4, 63, 0
6, 1980, Note_on_c, 4, 79, 93
6, 1980, Note_on_c, 4, 62, 81
6, 2040, Note_on_c, 4, 62, 0
6, 2040, Note_on_c, 4, 79, 0
6, 2040, Note_on_c, 4, 77, 86
6, 2040, Note_on_c, 4, 57, 104
6, 2100, Note_on_c, 4, 57, 0
6, 2100, Note_on_c, 4, 77, 0
6, 2100, Note_on_c, 4, 59, 94
6, 2100, Note_on_c, 4, 77, 93
6, 2130, Note_on_c, 4, 77, 0
6, 2160, Note_on_c, 4, 59, 0
6, 2160, Note_on_c, 4, 77, 85
6, 2160, Note_on_c, 4, 60, 81
6, 2220, Note_on_c, 4, 60, 0
6, 2220, Note_on_c, 4, 77, 0
6, 2220, Note_on_c, 4, 76, 95
6, 2220, Note_on_c, 4, 55, 89
6, 2280, Note_on_c, 4, 55, 0
6, 2280, Note_on_c, 4, 76, 0
6, 2280, Note_on_c, 4, 75, 94
6, 2280, Note_on_c, 4, 57, 95
6, 2310, Note_on_c, 4, 75, 0
6, 2340, Note_on_c, 4, 57, 0
6, 2340, Note_on_c, 4, 75, 94
6, 2340, Note_on_c, 4, 58, 94
6, 2400, Note_on_c, 4, 58, 0
6, 2400, Note_on_c, 4, 75, 0
6, 2400, Note_on_c, 4, 74, 99
6, 2400, Note_on_c, 4, 55, 90
6, 2460, Note_on_c, 4, 55, 0
6, 2460, Note_on_c, 4, 74, 0
6, 2460, Note_on_c, 4, 52, 99
6, 2460, Note_on_c, 4, 73, 80
6, 2460, Note_on_c, 4, 70, 80
6, 2490, Note_on_c, 4, 70, 0
6, 2490, Note_on_c, 4, 73, 0
6, 2520, Note_on_c, 4, 52, 0
6, 2520, Note_on_c, 4, 72, 54
6, 2520, Note_on_c, 4, 69, 84
6, 2520, Note_on_c, 4, 53, 93
6, 2550, Note_on_c, 4, 69, 0
6, 2550, Note_on_c, 4, 72, 0
6, 2580, Note_on_c, 4, 70, 89
6, 2580, Note_on_c, 4, 67, 74
6, 2610, Note_on_c, 4, 67, 0
6, 2610, Note_on_c, 4, 70, 0
6, 2640, Note_on_c, 4, 53, 0
6, 2640, Note_on_c, 4, 69, 94
6, 2640, Note_on_c, 4, 65, 69
6, 2670, Note_on_c, 4, 65, 0
6, 2670, Note_on_c, 4, 69, 0
6, 2700, Note_on_c, 4, 67, 76
6, 2700, Note_on_c, 4, 63, 78
6, 2730, Note_on_c, 4, 63, 0
6, 2730, Note_on_c, 4, 67, 0
6, 2760, Note_on_c, 4, 65, 93
6, 2760, Note_on_c, 4, 62, 84
6, 2790, Note_on_c, 4, 62, 0
6, 2790, Note_on_c, 4, 65, 0
6, 2820, Note_on_c, 4, 63, 86
6, 2820, Note_on_c, 4, 60, 73
6, 2850, Note_on_c, 4, 60, 0
6, 2850, Note_on_c, 4, 63, 0
6, 2880, Note_on_c, 4, 62, 85
6, 2880, Note_on_c, 4, 58, 82
6, 3000, Note_on_c, 4, 58, 0
6, 3000, Note_on_c, 4, 62, 0
6, 9420, Note_on_c, 4, 36, 99
6, 9450, Note_on_c, 4, 36, 0
6, 9450, Note_on_c, 4, 48, 81
6, 9480, Note_on_c, 4, 48, 0
6, 9480, Note_on_c, 4, 38, 86
6, 9510, Note_on_c, 4, 38, 0
6, 9510, Note_on_c, 4, 50, 94
6, 9540, Note_on_c, 4, 50, 0
6, 9540, Note_on_c, 4, 39, 89
6, 9570, Note_on_c, 4, 39, 0
6, 9570, Note_on_c, 4, 51, 86
6, 9600, Note_on_c, 4, 51, 0
6, 9600, Note_on_c, 4, 41, 89
6, 9630, Note_on_c, 4, 41, 0
6, 9630, Note_on_c, 4, 53, 86
6, 9660, Note_on_c, 4, 53, 0
6, 9660, Note_on_c, 4, 43, 90
6, 9690, Note_on_c, 4, 43, 0
6, 9690, Note_on_c, 4, 55, 93
6, 9720, Note_on_c, 4, 55, 0
6, 9720, Note_on_c, 4, 65, 89
6, 9720, Note_on_c, 4, 53, 89
6, 9750, Note_on_c, 4, 53, 0
6, 9750, Note_on_c, 4, 65, 0
6, 9750, Note_on_c, 4, 77, 84
6, 9780, Note_on_c, 4, 77, 0
6, 9780, Note_on_c, 4, 69, 94
6, 9780, Note_on_c, 4, 57, 99
6, 9810, Note_on_c, 4, 57, 0
6, 9810, Note_on_c, 4, 69, 0
6, 9810, Note_on_c, 4, 81, 84
6, 9840, Note_on_c, 4, 81, 0
6, 9840, Note_on_c, 4, 70, 85
6, 9840, Note_on_c, 4, 58, 84
6, 9870, Note_on_c, 4, 58, 0
6, 9870, Note_on_c, 4, 70, 0
6, 9870, Note_on_c, 4, 82, 86
6, 9900, Note_on_c, 4, 82, 0
6, 9900, Note_on_c, 4, 72, 61
6, 9900, Note_on_c, 4, 60, 90
6, 9930, Note_on_c, 4, 60, 0
6, 9930, Note_on_c, 4, 72, 0
6, 9930, Note_on_c, 4, 84, 78
6, 9960, Note_on_c, 4, 84, 0
6, 9960, Note_on_c, 4, 74, 89
6, 9960, Note_on_c, 4, 62, 93
6, 9990, Note_on_c, 4, 62, 0
6, 9990, Note_on_c, 4, 74, 0
6, 9990, Note_on_c, 4, 86, 94
6, 10020, Note_on_c, 4, 86, 0
6, 10020, Note_on_c, 4, 76, 81
6, 10020, Note_on_c, 4, 64, 85
6, 10050, Note_on_c, 4, 64, 0
6, 10050, Note_on_c, 4, 76, 0
6, 10050, Note_on_c, 4, 88, 99
6, 10080, Note_on_c, 4, 88, 0
6, 10080, Note_on_c, 4, 89, 99
6, 10080, Note_on_c, 4, 77, 85
6, 10080, Note_on_c, 4, 65, 93
6, 10200, Note_on_c, 4, 65, 0
6, 10200, Note_on_c, 4, 77, 0
6, 10200, Note_on_c, 4, 89, 0
6, 11520, Note_on_c, 4, 60, 93
6, 11550, Note_on_c, 4, 60, 0
6, 11550, Note_on_c, 4, 72, 61
6, 11580, Note_on_c, 4, 72, 0
6, 11580, Note_on_c, 4, 62, 90
6, 11610, Note_on_c, 4, 62, 0
6, 11610, Note_on_c, 4, 74, 99
6, 11640, Note_on_c, 4, 74, 0
6, 11640, Note_on_c, 4, 64, 99
6, 11670, Note_on_c, 4, 64, 0
6, 11670, Note_on_c, 4, 76, 99
6, 11700, Note_on_c, 4, 76, 0
6, 11700, Note_on_c, 4, 65, 99
6, 11730, Note_on_c, 4, 65, 0
6, 11730, Note_on_c, 4, 77, 93
6, 11760, Note_on_c, 4, 77, 0
6, 11760, Note_on_c, 4, 67, 94
6, 11790, Note_on_c, 4, 67, 0
6, 11790, Note_on_c, 4, 79, 94
6, 11820, Note_on_c, 4, 79, 0
6, 11820, Note_on_c, 4, 69, 99
6, 11850, Note_on_c, 4, 69, 0
6, 11850, Note_on_c, 4, 81, 94
6, 11880, Note_on_c, 4, 81, 0
6, 11880, Note_on_c, 4, 82, 112
6, 11880, Note_on_c, 4, 70, 112
6, 11880, Note_on_c, 4, 48, 105
6, 11910, Note_on_c, 4, 48, 0
6, 11910, Note_on_c, 4, 60, 77
6, 11940, Note_on_c, 4, 60, 0
6, 11940, Note_on_c, 4, 50, 94
6, 11970, Note_on_c, 4, 50, 0
6, 11970, Note_on_c, 4, 60, 93
6, 12000, Note_on_c, 4, 60, 0
6, 12000, Note_on_c, 4, 52, 89
6, 12030, Note_on_c, 4, 52, 0
6, 12030, Note_on_c, 4, 60, 89
6, 12060, Note_on_c, 4, 60, 0
6, 12060, Note_on_c, 4, 70, 0
6, 12060, Note_on_c, 4, 82, 0
6, 12060, Note_on_c, 4, 81, 72
6, 12060, Note_on_c, 4, 69, 82
6, 12060, Note_on_c, 4, 53, 94
6, 12090, Note_on_c, 4, 53, 0
6, 12090, Note_on_c, 4, 60, 93
6, 12120, Note_on_c, 4, 60, 0
6, 12120, Note_on_c, 4, 55, 82
6, 12150, Note_on_c, 4, 55, 0
6, 12150, Note_on_c, 4, 60, 94
6, 12180, Note_on_c, 4, 60, 0
6, 12180, Note_on_c, 4, 69, 0
6, 12180, Note_on_c, 4, 81, 0
6, 12180, Note_on_c, 4, 57, 104
6, 12210, Note_on_c, 4, 57, 0
6, 12210, Note_on_c, 4, 60, 93
6, 12240, Note_on_c, 4, 60, 0
6, 12240, Note_on_c, 4, 60, 95
6, 12240, Note_on_c, 4, 58, 119
6, 12270, Note_on_c, 4, 60, 0
6, 12270, Note_on_c, 4, 72, 61
6, 12300, Note_on_c, 4, 72, 0
6, 12300, Note_on_c, 4, 62, 78
6, 12330, Note_on_c, 4, 62, 0
6, 12330, Note_on_c, 4, 74, 101
6, 12360, Note_on_c, 4, 74, 0
6, 12360, Note_on_c, 4, 64, 90
6, 12390, Note_on_c, 4, 64, 0
6, 12390, Note_on_c, 4, 76, 98
6, 12420, Note_on_c, 4, 76, 0
6, 12420, Note_on_c, 4, 58, 0
6, 12420, Note_on_c, 4, 65, 99
6, 12420, Note_on_c, 4, 57, 94
6, 12450, Note_on_c, 4, 65, 0
6, 12450, Note_on_c, 4, 77, 94
6, 12480, Note_on_c, 4, 77, 0
6, 12480, Note_on_c, 4, 67, 94
6, 12510, Note_on_c, 4, 67, 0
6, 12510, Note_on_c, 4, 79, 94
6, 12540, Note_on_c, 4, 79, 0
6, 12540, Note_on_c, 4, 57, 0
6, 12540, Note_on_c, 4, 69, 99
6, 12570, Note_on_c, 4, 69, 0
6, 12570, Note_on_c, 4, 81, 94
6, 12600, Note_on_c, 4, 81, 0
6, 12600, Note_on_c, 4, 82, 123
6, 12600, Note_on_c, 4, 70, 115
6, 12600, Note_on_c, 4, 48, 99
6, 12630, Note_on_c, 4, 48, 0
6, 12630, Note_on_c, 4, 60, 84
6, 12660, Note_on_c, 4, 60, 0
6, 12660, Note_on_c, 4, 50, 104
6, 12690, Note_on_c, 4, 50, 0
6, 12690, Note_on_c, 4, 60, 89
6, 12720, Note_on_c, 4, 60, 0
6, 12720, Note_on_c, 4, 52, 90
6, 12750, Note_on_c, 4, 52, 0
6, 12750, Note_on_c, 4, 60, 86
6, 12780, Note_on_c, 4, 60, 0
6, 12780, Note_on_c, 4, 70, 0
6, 12780, Note_on_c, 4, 82, 0
6, 12780, Note_on_c, 4, 81, 76
6, 12780, Note_on_c, 4, 69, 85
6, 12780, Note_on_c, 4, 53, 93
6, 12810, Note_on_c, 4, 53, 0
6, 12810, Note_on_c, 4, 60, 89
6, 12840, Note_on_c, 4, 60, 0
6, 12840, Note_on_c, 4, 55, 89
6, 12870, Note_on_c, 4, 55, 0
6, 12870, Note_on_c, 4, 60, 89
6, 12900, Note_on_c, 4, 60, 0
6, 12900, Note_on_c, 4, 69, 0
6, 12900, Note_on_c, 4, 81, 0
6, 12900, Note_on_c, 4, 57, 101
6, 12930, Note_on_c, 4, 57, 0
6, 12930, Note_on_c, 4, 60, 86
6, 12960, Note_on_c, 4, 60, 0
6, 12960, Note_on_c, 4, 60, 95
6, 12960, Note_on_c, 4, 58, 123
6, 12990, Note_on_c, 4, 60, 0
6, 12990, Note_on_c, 4, 72, 64
6, 13020, Note_on_c, 4, 72, 0
6, 13020, Note_on_c, 4, 62, 94
6, 13050, Note_on_c, 4, 62, 0
6, 13050, Note_on_c, 4, 74, 99
6, 13080, Note_on_c, 4, 74, 0
6, 13080, Note_on_c, 4, 64, 101
6, 13110, Note_on_c, 4, 64, 0
6, 13110, Note_on_c, 4, 76, 98
6, 13140, Note_on_c, 4, 76, 0
6, 13140, Note_on_c, 4, 58, 0
6, 13140, Note_on_c, 4, 65, 98
6, 13140, Note_on_c, 4, 57, 105
6, 13170, Note_on_c, 4, 65, 0
6, 13170, Note_on_c, 4, 77, 89
6, 13200, Note_on_c, 4, 77, 0
6, 13200, Note_on_c, 4, 67, 94
6, 13230, Note_on_c, 4, 67, 0
6, 13230, Note_on_c, 4, 79, 89
6, 13260, Note_on_c, 4, 79, 0
6, 13260, Note_on_c, 4, 57, 0
6, 13260, Note_on_c, 4, 69, 98
6, 13290, Note_on_c, 4, 69, 0
6, 13290, Note_on_c, 4, 81, 94
6, 13320, Note_on_c, 4, 81, 0
6, 13320, Note_on_c, 4, 62, 99
6, 13320, Note_on_c, 4, 60, 125
6, 13350, Note_on_c, 4, 62, 0
6, 13350, Note_on_c, 4, 74, 90
6, 13380, Note_on_c, 4, 74, 0
6, 13380, Note_on_c, 4, 64, 95
6, 13410, Note_on_c, 4, 64, 0
6, 13410, Note_on_c, 4, 76, 95
6, 13440, Note_on_c, 4, 76, 0
6, 13440, Note_on_c, 4, 66, 93
6, 13470, Note_on_c, 4, 66, 0
6, 13470, Note_on_c, 4, 78, 85
6, 13500, Note_on_c, 4, 78, 0
6, 13500, Note_on_c, 4, 60, 0
6, 13500, Note_on_c, 4, 67, 94
6, 13500, Note_on_c, 4, 58, 84
6, 13530, Note_on_c, 4, 67, 0
6, 13530, Note_on_c, 4, 79, 90
6, 13560, Note_on_c, 4, 79, 0
6, 13560, Note_on_c, 4, 69, 99
6, 13590, Note_on_c, 4, 69, 0
6, 13590, Note_on_c, 4, 81, 98
6, 13620, Note_on_c, 4, 81, 0
6, 13620, Note_on_c, 4, 58, 0
6, 13620, Note_on_c, 4, 70, 99
6, 13650, Note_on_c, 4, 70, 0
6, 13650, Note_on_c, 4, 82, 94
6, 13680, Note_on_c, 4, 82, 0
6, 13680, Note_on_c, 4, 65, 95
6, 13680, Note_on_c, 4, 63, 119
6, 13710, Note_on_c, 4, 65, 0
6, 13710, Note_on_c, 4, 77, 80
6, 13740, Note_on_c, 4, 77, 0
6, 13740, Note_on_c, 4, 67, 90
6, 13770, Note_on_c, 4, 67, 0
6, 13770, Note_on_c, 4, 79, 94
6, 13800, Note_on_c, 4, 79, 0
6, 13800, Note_on_c, 4, 69, 99
6, 13830, Note_on_c, 4, 69, 0
6, 13830, Note_on_c, 4, 81, 99
6, 13860, Note_on_c, 4, 81, 0
6, 13860, Note_on_c, 4, 63, 0
6, 13860, Note_on_c, 4, 62, 93
6, 13860, Note_on_c, 4, 70, 98
6, 13890, Note_on_c, 4, 70, 0
6, 13890, Note_on_c, 4, 82, 94
6, 13920, Note_on_c, 4, 82, 0
6, 13920, Note_on_c, 4, 72, 89
6, 13950, Note_on_c, 4, 72, 0
6, 13950, Note_on_c, 4, 84, 89
6, 13980, Note_on_c, 4, 84, 0
6, 13980, Note_on_c, 4, 74, 104
6, 14010, Note_on_c, 4, 74, 0
6, 14010, Note_on_c, 4, 86, 98
6, 14040, Note_on_c, 4, 86, 0
6, 14040, Note_on_c, 4, 62, 0
6, 14040, Note_on_c, 4, 61, 84
6, 14040, Note_on_c, 4, 76, 99
6, 14070, Note_on_c, 4, 76, 0
6, 14070, Note_on_c, 4, 88, 99
6, 14100, Note_on_c, 4, 88, 0
6, 14100, Note_on_c, 4, 77, 94
6, 14130, Note_on_c, 4, 77, 0
6, 14130, Note_on_c, 4, 89, 99
6, 14160, Note_on_c, 4, 89, 0
6, 14160, Note_on_c, 4, 77, 95
6, 14190, Note_on_c, 4, 77, 0
6, 14190, Note_on_c, 4, 89, 99
6, 14220, Note_on_c, 4, 89, 0
6, 14220, Note_on_c, 4, 77, 95
6, 14250, Note_on_c, 4, 77, 0
6, 14250, Note_on_c, 4, 89, 105
6, 14280, Note_on_c, 4, 89, 0
6, 14280, Note_on_c, 4, 71, 99
6, 14310, Note_on_c, 4, 71, 0
6, 14310, Note_on_c, 4, 83, 95
6, 14340, Note_on_c, 4, 83, 0
6, 14340, Note_on_c, 4, 71, 99
6, 14370, Note_on_c, 4, 71, 0
6, 14370, Note_on_c, 4, 83, 94
6, 14400, Note_on_c, 4, 83, 0
6, 14400, Note_on_c, 4, 61, 0
6, 14400, Note_on_c, 4, 84, 89
6, 14400, Note_on_c, 4, 72, 65
6, 14400, Note_on_c, 4, 60, 90
6, 14520, Note_on_c, 4, 60, 0
6, 14520, Note_on_c, 4, 72, 0
6, 14520, Note_on_c, 4, 84, 0
6, 14580, Note_on_c, 4, 79, 78
6, 14610, Note_on_c, 4, 79, 0
6, 14610, Note_on_c, 4, 81, 84
6, 14640, Note_on_c, 4, 81, 0
6, 14640, Note_on_c, 4, 83, 80
6, 14670, Note_on_c, 4, 83, 0
6, 14670, Note_on_c, 4, 84, 85
6, 14700, Note_on_c, 4, 84, 0
6, 14700, Note_on_c, 4, 86, 86
6, 14730, Note_on_c, 4, 86, 0
6, 14730, Note_on_c, 4, 88, 89
6, 14760, Note_on_c, 4, 88, 0
6, 14760, Note_on_c, 4, 89, 63
6, 14790, Note_on_c, 4, 89, 0
6, 14790, Note_on_c, 4, 88, 90
6, 14820, Note_on_c, 4, 88, 0
6, 14820, Note_on_c, 4, 86, 89
6, 14850, Note_on_c, 4, 86, 0
6, 14850, Note_on_c, 4, 84, 84
6, 14880, Note_on_c, 4, 84, 0
6, 14880, Note_on_c, 4, 83, 82
6, 14910, Note_on_c, 4, 83, 0
6, 14910, Note_on_c, 4, 81, 76
6, 14940, Note_on_c, 4, 81, 0
6, 14940, Note_on_c, 4, 79, 77
6, 14970, Note_on_c, 4, 79, 0
6, 14970, Note_on_c, 4, 81, 89
6, 15000, Note_on_c, 4, 81, 0
6, 15000, Note_on_c, 4, 79, 74
6, 15030, Note_on_c, 4, 79, 0
6, 15030, Note_on_c, 4, 77, 84
6, 15060, Note_on_c, 4, 77, 0
6, 15060, Note_on_c, 4, 76, 81
6, 15090, Note_on_c, 4, 76, 0
6, 15090, Note_on_c, 4, 74, 85
6, 15120, Note_on_c, 4, 74, 0
6, 15120, Note_on_c, 4, 72, 61
6, 15240, Note_on_c, 4, 72, 0
6, 15300, Note_on_c, 4, 79, 84
6, 15300, Note_on_c, 4, 67, 77
6, 15330, Note_on_c, 4, 67, 0
6, 15330, Note_on_c, 4, 79, 0
6, 15330, Note_on_c, 4, 81, 89
6, 15330, Note_on_c, 4, 69, 82
6, 15360, Note_on_c, 4, 69, 0
6, 15360, Note_on_c, 4, 81, 0
6, 15360, Note_on_c, 4, 83, 86
6, 15360, Note_on_c, 4, 71, 84
6, 15390, Note_on_c, 4, 71, 0
6, 15390, Note_on_c, 4, 83, 0
6, 15390, Note_on_c, 4, 84, 86
6, 15390, Note_on_c, 4, 72, 66
6, 15420, Note_on_c, 4, 72, 0
6, 15420, Note_on_c, 4, 84, 0
6, 15420, Note_on_c, 4, 86, 84
6, 15420, Note_on_c, 4, 74, 93
6, 15450, Note_on_c, 4, 74, 0
6, 15450, Note_on_c, 4, 86, 0
6, 15450, Note_on_c, 4, 76, 93
6, 15450, Note_on_c, 4, 88, 85
6, 15480, Note_on_c, 4, 88, 0
6, 15480, Note_on_c, 4, 76, 0
6, 15480, Note_on_c, 4, 89, 90
6, 15480, Note_on_c, 4, 77, 82
6, 15510, Note_on_c, 4, 77, 0
6, 15510, Note_on_c, 4, 89, 0
6, 15510, Note_on_c, 4, 88, 95
6, 15510, Note_on_c, 4, 76, 94
6, 15540, Note_on_c, 4, 76, 0
6, 15540, Note_on_c, 4, 88, 0
6, 15540, Note_on_c, 4, 86, 86
6, 15540, Note_on_c, 4, 74, 89
6, 15570, Note_on_c, 4, 74, 0
6, 15570, Note_on_c, 4, 86, 0
6, 15570, Note_on_c, 4, 84, 85
6, 15570, Note_on_c, 4, 72, 72
6, 15600, Note_on_c, 4, 72, 0
6, 15600, Note_on_c, 4, 84, 0
6, 15600, Note_on_c, 4, 83, 76
6, 15600, Note_on_c, 4, 71, 89
6, 15630, Note_on_c, 4, 71, 0
6, 15630, Note_on_c, 4, 83, 0
6, 15630, Note_on_c, 4, 81, 89
6, 15630, Note_on_c, 4, 69, 74
6, 15660, Note_on_c, 4, 69, 0
6, 15660, Note_on_c, 4, 81, 0
6, 15660, Note_on_c, 4, 79, 76
6, 15660, Note_on_c, 4, 67, 80
6, 15690, Note_on_c, 4, 67, 0
6, 15690, Note_on_c, 4, 79, 0
6, 15690, Note_on_c, 4, 81, 89
6, 15690, Note_on_c, 4, 69, 86
6, 15720, Note_on_c, 4, 69, 0
6, 15720, Note_on_c, 4, 81, 0
6, 15720, Note_on_c, 4, 79, 82
6, 15720, Note_on_c, 4, 67, 80
6, 15750, Note_on_c, 4, 67, 0
6, 15750, Note_on_c, 4, 79, 0
6, 15750, Note_on_c, 4, 77, 84
6, 15750, Note_on_c, 4, 65, 82
6, 15780, Note_on_c, 4, 65, 0
6, 15780, Note_on_c, 4, 77, 0
6, 15780, Note_on_c, 4, 76, 85
6, 15780, Note_on_c, 4, 64, 90
6, 15810, Note_on_c, 4, 64, 0
6, 15810, Note_on_c, 4, 76, 0
6, 15810, Note_on_c, 4, 62, 84
6, 15810, Note_on_c, 4, 74, 94
6, 15840, Note_on_c, 4, 74, 0
6, 15840, Note_on_c, 4, 62, 0
6, 15840, Note_on_c, 4, 72, 65
6, 15840, Note_on_c, 4, 60, 94
6, 15870, Note_on_c, 4, 72, 0
6, 15870, Note_on_c, 4, 76, 93
6, 15900, Note_on_c, 4, 76, 0
6, 15900, Note_on_c, 4, 74, 80
6, 15930, Note_on_c, 4, 74, 0
6, 15930, Note_on_c, 4, 72, 72
6, 15960, Note_on_c, 4, 72, 0
6, 15960, Note_on_c, 4, 60, 0
6, 15960, Note_on_c, 4, 71, 84
6, 15990, Note_on_c, 4, 71, 0
6, 15990, Note_on_c, 4, 69, 82
6, 16020, Note_on_c, 4, 69, 0
6, 16020, Note_on_c, 4, 67, 85
6, 16020, Note_on_c, 4, 55, 80
6, 16050, Note_on_c, 4, 55, 0
6, 16050, Note_on_c, 4, 67, 0
6, 16050, Note_on_c, 4, 69, 94
6, 16050, Note_on_c, 4, 57, 84
6, 16080, Note_on_c, 4, 57, 0
6, 16080, Note_on_c, 4, 69, 0
6, 16080, Note_on_c, 4, 67, 86
6, 16080, Note_on_c, 4, 55, 89
6, 16110, Note_on_c, 4, 55, 0
6, 16110, Note_on_c, 4, 67, 0
6, 16110, Note_on_c, 4, 65, 84
6, 16110, Note_on_c, 4, 53, 82
6, 16140, Note_on_c, 4, 53, 0
6, 16140, Note_on_c, 4, 65, 0
6, 16140, Note_on_c, 4, 64, 90
6, 16140, Note_on_c, 4, 52, 90
6, 16170, Note_on_c, 4, 52, 0
6, 16170, Note_on_c, 4, 64, 0
6, 16170, Note_on_c, 4, 50, 93
6, 16170, Note_on_c, 4, 62, 77
6, 16200, Note_on_c, 4, 62, 0
6, 16200, Note_on_c, 4, 50, 0
6, 16200, Note_on_c, 4, 60, 85
6, 16200, Note_on_c, 4, 48, 99
6, 16230, Note_on_c, 4, 60, 0
6, 16230, Note_on_c, 4, 64, 89
6, 16260, Note_on_c, 4, 64, 0
6, 16260, Note_on_c, 4, 62, 82
6, 16290, Note_on_c, 4, 62, 0
6, 16290, Note_on_c, 4, 60, 82
6, 16320, Note_on_c, 4, 60, 0
6, 16320, Note_on_c, 4, 48, 0
6, 16320, Note_on_c, 4, 59, 94
6, 16350, Note_on_c, 4, 59, 0
6, 16350, Note_on_c, 4, 57, 94
6, 16380, Note_on_c, 4, 57, 0
6, 16380, Note_on_c, 4, 55, 89
6, 16380, Note_on_c, 4, 43, 82
6, 16410, Note_on_c, 4, 43, 0
6, 16410, Note_on_c, 4, 55, 0
6, 16410, Note_on_c, 4, 57, 99
6, 16410, Note_on_c, 4, 45, 85
6, 16440, Note_on_c, 4, 45, 0
6, 16440, Note_on_c, 4, 57, 0
6, 16440, Note_on_c, 4, 55, 84
6, 16440, Note_on_c, 4, 43, 89
6, 16470, Note_on_c, 4, 43, 0
6, 16470, Note_on_c, 4, 55, 0
6, 16470, Note_on_c, 4, 53, 84
6, 16470, Note_on_c, 4, 41, 85
6, 16500, Note_on_c, 4, 41, 0
6, 16500, Note_on_c, 4, 53, 0
6, 16500, Note_on_c, 4, 52, 78
6, 16500, Note_on_c, 4, 40, 95
6, 16530, Note_on_c, 4, 40, 0
6, 16530, Note_on_c, 4, 52, 0
6, 16530, Note_on_c, 4, 38, 80
6, 16530, Note_on_c, 4, 50, 90
6, 16560, Note_on_c, 4, 50, 0
6, 16560, Note_on_c, 4, 38, 0
6, 16560, Note_on_c, 4, 48, 89
6, 16560, Note_on_c, 4, 36, 98
6, 16590, Note_on_c, 4, 36, 0
6, 16590, Note_on_c, 4, 48, 0
6, 16590, Note_on_c, 4, 57, 99
6, 16590, Note_on_c, 4, 45, 80
6, 16620, Note_on_c, 4, 45, 0
6, 16620, Note_on_c, 4, 57, 0
6, 16620, Note_on_c, 4, 55, 81
6, 16620, Note_on_c, 4, 43, 85
6, 16650, Note_on_c, 4, 43, 0
6, 16650, Note_on_c, 4, 55, 0
6, 16650, Note_on_c, 4, 53, 78
6, 16650, Note_on_c, 4, 41, 89
6, 16680, Note_on_c, 4, 41, 0
6, 16680, Note_on_c, 4, 53, 0
6, 16680, Note_on_c, 4, 52, 93
6, 16680, Note_on_c, 4, 40, 94
6, 16710, Note_on_c, 4, 40, 0
6, 16710, Note_on_c, 4, 52, 0
6, 16710, Note_on_c, 4, 50, 86
6, 16710, Note_on_c, 4, 38, 89
6, 16740, Note_on_c, 4, 38, 0
6, 16740, Note_on_c, 4, 50, 0
6, 16740, Note_on_c, 4, 48, 84
6, 16740, Note_on_c, 4, 36, 90
6, 16770, Note_on_c, 4, 36, 0
6, 16770, Note_on_c, 4, 48, 0
6, 16770, Note_on_c, 4, 57, 99
6, 16770, Note_on_c, 4, 45, 80
6, 16800, Note_on_c, 4, 45, 0
6, 16800, Note_on_c, 4, 57, 0
6, 16800, Note_on_c, 4, 55, 84
6, 16800, Note_on_c, 4, 43, 89
6, 16830, Note_on_c, 4, 43, 0
6, 16830, Note_on_c, 4, 55, 0
6, 16830, Note_on_c, 4, 53, 80
6, 16830, Note_on_c, 4, 41, 85
6, 16860, Note_on_c, 4, 41, 0
6, 16860, Note_on_c, 4, 53, 0
6, 16860, Note_on_c, 4, 52, 94
6, 16860, Note_on_c, 4, 40, 94
6, 16890, Note_on_c, 4, 40, 0
6, 16890, Note_on_c, 4, 52, 0
6, 16890, Note_on_c, 4, 38, 90
6, 16890, Note_on_c, 4, 50, 90
6, 16920, Note_on_c, 4, 50, 0
6, 16920, Note_on_c, 4, 38, 0
6, 16920, Note_on_c, 4, 48, 89
6, 16920, Note_on_c, 4, 36, 94
6, 16980, Note_on_c, 4, 48, 0
6, 16980, Note_on_c, 4, 60, 84
6, 17010, Note_on_c, 4, 60, 0
6, 17040, Note_on_c, 4, 36, 0
6, 17040, Note_on_c, 4, 62, 74
6, 17070, Note_on_c, 4, 62, 0
6, 17100, Note_on_c, 4, 64, 84
6, 17130, Note_on_c, 4, 64, 0
6, 17160, Note_on_c, 4, 65, 82
6, 17190, Note_on_c, 4, 65, 0
6, 17220, Note_on_c, 4, 67, 77
6, 17250, Note_on_c, 4, 67, 0
6, 17280, Note_on_c, 4, 69, 68
6, 17280, Note_on_c, 4, 65, 69
6, 17280, Note_on_c, 4, 60, 57
6, 17280, Note_on_c, 4, 53, 62
6, 17340, Note_on_c, 4, 53, 0
6, 17340, Note_on_c, 4, 69, 0
6, 17340, Note_on_c, 4, 65, 0
6, 17340, Note_on_c, 4, 60, 0
6, 17400, Note_on_c, 4, 69, 72
6, 17400, Note_on_c, 4, 65, 62
6, 17400, Note_on_c, 4, 60, 64
6, 17400, Note_on_c, 4, 53, 68
6, 17430, Note_on_c, 4, 53, 0
6, 17430, Note_on_c, 4, 69, 0
6, 17430, Note_on_c, 4, 65, 0
6, 17430, Note_on_c, 4, 60, 0
6, 17460, Note_on_c, 4, 69, 68
6, 17460, Note_on_c, 4, 67, 63
6, 17460, Note_on_c, 4, 61, 54
6, 17460, Note_on_c, 4, 52, 85
6, 17520, Note_on_c, 4, 52, 0
6, 17520, Note_on_c, 4, 69, 0
6, 17520, Note_on_c, 4, 67, 0
6, 17520, Note_on_c, 4, 61, 0
6, 17580, Note_on_c, 4, 69, 81
6, 17580, Note_on_c, 4, 67, 78
6, 17580, Note_on_c, 4, 61, 59
6, 17580, Note_on_c, 4, 52, 85
6, 17610, Note_on_c, 4, 52, 0
6, 17610, Note_on_c, 4, 69, 0
6, 17610, Note_on_c, 4, 67, 0
6, 17610, Note_on_c, 4, 61, 0
6, 17640, Note_on_c, 4, 69, 68
6, 17640, Note_on_c, 4, 65, 65
6, 17640, Note_on_c, 4, 62, 64
6, 17640, Note_on_c, 4, 50, 66
6, 17700, Note_on_c, 4, 50, 0
6, 17700, Note_on_c, 4, 69, 0
6, 17700, Note_on_c, 4, 65, 0
6, 17700, Note_on_c, 4, 62, 0
6, 17760, Note_on_c, 4, 69, 65
6, 17760, Note_on_c, 4, 65, 68
6, 17760, Note_on_c, 4, 62, 67
6, 17760, Note_on_c, 4, 50, 76
6, 17790, Note_on_c, 4, 50, 0
6, 17790, Note_on_c, 4, 69, 0
6, 17790, Note_on_c, 4, 65, 0
6, 17790, Note_on_c, 4, 62, 0
6, 17820, Note_on_c, 4, 46, 95
6, 17820, Note_on_c, 4, 58, 76
6, 17820, Note_on_c, 4, 65, 93
6, 17820, Note_on_c, 4, 74, 105
6, 18000, Note_on_c, 4, 74, 0
6, 18000, Note_on_c, 4, 46, 0
6, 18000, Note_on_c, 4, 58, 0
6, 18000, Note_on_c, 4, 65, 0
6, 18000, Note_on_c, 4, 72, 84
6, 18000, Note_on_c, 4, 69, 84
6, 18000, Note_on_c, 4, 60, 73
6, 18000, Note_on_c, 4, 48, 82
6, 18060, Note_on_c, 4, 69, 0
6, 18060, Note_on_c, 4, 72, 0
6, 18060, Note_on_c, 4, 70, 76
6, 18060, Note_on_c, 4, 67, 64
6, 18120, Note_on_c, 4, 67, 0
6, 18120, Note_on_c, 4, 48, 0
6, 18120, Note_on_c, 4, 60, 0
6, 18120, Note_on_c, 4, 70, 0
6, 18120, Note_on_c, 4, 69, 81
6, 18120, Note_on_c, 4, 65, 78
6, 18120, Note_on_c, 4, 60, 76
6, 18150, Note_on_c, 4, 65, 0
6, 18150, Note_on_c, 4, 69, 0
6, 18165, Note_on_c, 4, 69, 70
6, 18165, Note_on_c, 4, 65, 76
6, 18180, Note_on_c, 4, 65, 0
6, 18180, Note_on_c, 4, 69, 0
6, 18180, Note_on_c, 4, 60, 0
6, 18180, Note_on_c, 4, 67, 81
6, 18180, Note_on_c, 4, 64, 65
6, 18180, Note_on_c, 4, 60, 73
6, 18180, Note_on_c, 4, 58, 72
6, 18240, Note_on_c, 4, 64, 0
6, 18240, Note_on_c, 4, 67, 0
6, 18240, Note_on_c, 4, 65, 80
6, 18240, Note_on_c, 4, 62, 80
6, 18300, Note_on_c, 4, 62, 0
6, 18300, Note_on_c, 4, 58, 0
6, 18300, Note_on_c, 4, 60, 0
6, 18300, Note_on_c, 4, 65, 0
6, 18300, Note_on_c, 4, 58, 68
6, 18300, Note_on_c, 4, 60, 64
6, 18300, Note_on_c, 4, 67, 73
6, 18300, Note_on_c, 4, 64, 61
6, 18330, Note_on_c, 4, 64, 0
6, 18330, Note_on_c, 4, 67, 0
6, 18360, Note_on_c, 4, 60, 0
6, 18360, Note_on_c, 4, 58, 0
6, 18360, Note_on_c, 4, 69, 73
6, 18360, Note_on_c, 4, 65, 73
6, 18360, Note_on_c, 4, 60, 73
6, 18360, Note_on_c, 4, 57, 84
6, 18420, Note_on_c, 4, 57, 0
6, 18420, Note_on_c, 4, 69, 0
6, 18420, Note_on_c, 4, 65, 0
6, 18420, Note_on_c, 4, 60, 0
6, 18480, Note_on_c, 4, 69, 78
6, 18480, Note_on_c, 4, 65, 73
6, 18480, Note_on_c, 4, 60, 66
6, 18480, Note_on_c, 4, 53, 70
6, 18510, Note_on_c, 4, 53, 0
6, 18510, Note_on_c, 4, 69, 0
6, 18510, Note_on_c, 4, 65, 0
6, 18510, Note_on_c, 4, 60, 0
6, 18540, Note_on_c, 4, 67, 69
6, 18540, Note_on_c, 4, 64, 77
6, 18540, Note_on_c, 4, 60, 84
6, 18600, Note_on_c, 4, 60, 0
6, 18600, Note_on_c, 4, 64, 0
6, 18600, Note_on_c, 4, 67, 0
6, 18660, Note_on_c, 4, 65, 82
6, 18690, Note_on_c, 4, 65, 0
6, 18690, Note_on_c, 4, 67, 86
6, 18720, Note_on_c, 4, 67, 0
6, 18720, Note_on_c, 4, 69, 72
6, 18720, Note_on_c, 4, 65, 78
6, 18720, Note_on_c, 4, 60, 62
6, 18720, Note_on_c, 4, 53, 60
6, 18780, Note_on_c, 4, 53, 0
6, 18780, Note_on_c, 4, 69, 0
6, 18780, Note_on_c, 4, 65, 0
6, 18780, Note_on_c, 4, 60, 0
6, 18840, Note_on_c, 4, 69, 84
6, 18840, Note_on_c, 4, 65, 72
6, 18840, Note_on_c, 4, 60, 68
6, 18840, Note_on_c, 4, 53, 73
6, 18870, Note_on_c, 4, 53, 0
6, 18870, Note_on_c, 4, 69, 0
6, 18870, Note_on_c, 4, 65, 0
6, 18870, Note_on_c, 4, 60, 0
6, 18900, Note_on_c, 4, 69, 82
6, 18900, Note_on_c, 4, 67, 74
6, 18900, Note_on_c, 4, 61, 65
6, 18900, Note_on_c, 4, 52, 89
6, 18960, Note_on_c, 4, 52, 0
6, 18960, Note_on_c, 4, 69, 0
6, 18960, Note_on_c, 4, 67, 0
6, 18960, Note_on_c, 4, 61, 0
6, 19020, Note_on_c, 4, 69, 85
6, 19020, Note_on_c, 4, 67, 82
6, 19020, Note_on_c, 4, 61, 65
6, 19020, Note_on_c, 4, 52, 94
6, 19050, Note_on_c, 4, 52, 0
6, 19050, Note_on_c, 4, 69, 0
6, 19050, Note_on_c, 4, 67, 0
6, 19050, Note_on_c, 4, 61, 0
6, 19080, Note_on_c, 4, 69, 78
6, 19080, Note_on_c, 4, 65, 70
6, 19080, Note_on_c, 4, 62, 61
6, 19080, Note_on_c, 4, 50, 78
6, 19140, Note_on_c, 4, 50, 0
6, 19140, Note_on_c, 4, 69, 0
6, 19140, Note_on_c, 4, 65, 0
6, 19140, Note_on_c, 4, 62, 0
6, 19200, Note_on_c, 4, 69, 77
6, 19200, Note_on_c, 4, 65, 74
6, 19200, Note_on_c, 4, 62, 68
6, 19200, Note_on_c, 4, 50, 82
6, 19230, Note_on_c, 4, 50, 0
6, 19230, Note_on_c, 4, 69, 0
6, 19230, Note_on_c, 4, 65, 0
6, 19230, Note_on_c, 4, 62, 0
6, 19260, Note_on_c, 4, 50, 99
6, 19260, Note_on_c, 4, 62, 89
6, 19260, Note_on_c, 4, 69, 95
6, 19260, Note_on_c, 4, 77, 90
6, 19440, Note_on_c, 4, 77, 0
6, 19440, Note_on_c, 4, 50, 0
6, 19440, Note_on_c, 4, 62, 0
6, 19440, Note_on_c, 4, 69, 0
6, 19440, Note_on_c, 4, 76, 94
6, 19440, Note_on_c, 4, 70, 80
6, 19440, Note_on_c, 4, 62, 70
6, 19440, Note_on_c, 4, 55, 80
6, 19560, Note_on_c, 4, 55, 0
6, 19560, Note_on_c, 4, 76, 0
6, 19560, Note_on_c, 4, 70, 0
6, 19560, Note_on_c, 4, 62, 0
6, 19560, Note_on_c, 4, 76, 90
6, 19560, Note_on_c, 4, 70, 80
6, 19560, Note_on_c, 4, 62, 68
6, 19560, Note_on_c, 4, 55, 72
6, 19605, Note_on_c, 4, 76, 94
6, 19620, Note_on_c, 4, 76, 0
6, 19620, Note_on_c, 4, 62, 0
6, 19620, Note_on_c, 4, 76, 0
6, 19620, Note_on_c, 4, 70, 0
6, 19620, Note_on_c, 4, 55, 0
6, 19620, Note_on_c, 4, 74, 80
6, 19620, Note_on_c, 4, 68, 76
6, 19620, Note_on_c, 4, 62, 64
6, 19620, Note_on_c, 4, 59, 72
6, 19680, Note_on_c, 4, 74, 0
6, 19680, Note_on_c, 4, 73, 77
6, 19740, Note_on_c, 4, 73, 0
6, 19740, Note_on_c, 4, 59, 0
6, 19740, Note_on_c, 4, 62, 0
6, 19740, Note_on_c, 4, 68, 0
6, 19740, Note_on_c, 4, 59, 80
6, 19740, Note_on_c, 4, 62, 68
6, 19740, Note_on_c, 4, 68, 85
6, 19740, Note_on_c, 4, 74, 86
6, 19770, Note_on_c, 4, 74, 0
6, 19800, Note_on_c, 4, 59, 0
6, 19800, Note_on_c, 4, 62, 0
6, 19800, Note_on_c, 4, 68, 0
6, 19800, Note_on_c, 4, 73, 85
6, 19800, Note_on_c, 4, 69, 81
6, 19800, Note_on_c, 4, 64, 71
6, 19800, Note_on_c, 4, 57, 84
6, 19830, Note_on_c, 4, 73, 0
6, 19860, Note_on_c, 4, 74, 95
6, 19890, Note_on_c, 4, 74, 0
6, 19920, Note_on_c, 4, 57, 0
6, 19920, Note_on_c, 4, 64, 0
6, 19920, Note_on_c, 4, 69, 0
6, 19920, Note_on_c, 4, 76, 82
6, 19950, Note_on_c, 4, 76, 0
6, 19980, Note_on_c, 4, 69, 94
6, 20100, Note_on_c, 4, 69, 0
6, 20880, Note_on_c, 4, 84, 85
6, 20880, Note_on_c, 4, 69, 73
6, 20880, Note_on_c, 4, 65, 84
6, 20880, Note_on_c, 4, 60, 77
6, 20910, Note_on_c, 4, 84, 0
6, 20910, Note_on_c, 4, 81, 86
6, 20940, Note_on_c, 4, 81, 0
6, 20940, Note_on_c, 4, 77, 84
6, 20970, Note_on_c, 4, 77, 0
6, 20970, Note_on_c, 4, 72, 62
6, 21000, Note_on_c, 4, 72, 0
6, 21000, Note_on_c, 4, 60, 0
6, 21000, Note_on_c, 4, 65, 0
6, 21000, Note_on_c, 4, 69, 0
6, 21000, Note_on_c, 4, 84, 61
6, 21000, Note_on_c, 4, 69, 76
6, 21000, Note_on_c, 4, 65, 84
6, 21000, Note_on_c, 4, 60, 80
6, 21030, Note_on_c, 4, 84, 0
6, 21030, Note_on_c, 4, 72, 58
6, 21060, Note_on_c, 4, 72, 0
6, 21060, Note_on_c, 4, 60, 0
6, 21060, Note_on_c, 4, 65, 0
6, 21060, Note_on_c, 4, 69, 0
6, 21060, Note_on_c, 4, 84, 89
6, 21060, Note_on_c, 4, 67, 50
6, 21060, Note_on_c, 4, 64, 84
6, 21060, Note_on_c, 4, 58, 71
6, 21090, Note_on_c, 4, 84, 0
6, 21090, Note_on_c, 4, 79, 90
6, 21120, Note_on_c, 4, 79, 0
6, 21120, Note_on_c, 4, 76, 89
6, 21150, Note_on_c, 4, 76, 0
6, 21150, Note_on_c, 4, 72, 66
6, 21180, Note_on_c, 4, 72, 0
6, 21180, Note_on_c, 4, 58, 0
6, 21180, Note_on_c, 4, 64, 0
6, 21180, Note_on_c, 4, 67, 0
6, 21180, Note_on_c, 4, 58, 78
6, 21180, Note_on_c, 4, 64, 86
6, 21180, Note_on_c, 4, 67, 65
6, 21180, Note_on_c, 4, 84, 89
6, 21210, Note_on_c, 4, 84, 0
6, 21210, Note_on_c, 4, 72, 53
6, 21240, Note_on_c, 4, 72, 0
6, 21240, Note_on_c, 4, 67, 0
6, 21240, Note_on_c, 4, 64, 0
6, 21240, Note_on_c, 4, 58, 0
6, 21240, Note_on_c, 4, 84, 86
6, 21240, Note_on_c, 4, 65, 71
6, 21240, Note_on_c, 4, 57, 99
6, 21270, Note_on_c, 4, 84, 0
6, 21270, Note_on_c, 4, 72, 54
6, 21300, Note_on_c, 4, 72, 0
6, 21300, Note_on_c, 4, 57, 0
6, 21300, Note_on_c, 4, 65, 0
6, 21300, Note_on_c, 4, 84, 84
6, 21300, Note_on_c, 4, 65, 73
6, 21300, Note_on_c, 4, 57, 99
6, 21330, Note_on_c, 4, 84, 0
6, 21330, Note_on_c, 4, 72, 56
6, 21360, Note_on_c, 4, 72, 0
6, 21360, Note_on_c, 4, 57, 0
6, 21360, Note_on_c, 4, 65, 0
6, 21360, Note_on_c, 4, 84, 93
6, 21360, Note_on_c, 4, 69, 66
6, 21360, Note_on_c, 4, 65, 78
6, 21390, Note_on_c, 4, 84, 0
6, 21390, Note_on_c, 4, 72, 61
6, 21420, Note_on_c, 4, 72, 0
6, 21420, Note_on_c, 4, 65, 0
6, 21420, Note_on_c, 4, 69, 0
6, 21420, Note_on_c, 4, 84, 85
6, 21420, Note_on_c, 4, 72, 70
6, 21420, Note_on_c, 4, 67, 67
6, 21420, Note_on_c, 4, 64, 84
6, 21420, Note_on_c, 4, 60, 76
6, 21540, Note_on_c, 4, 60, 0
6, 21540, Note_on_c, 4, 67, 0
6, 21540, Note_on_c, 4, 84, 0
6, 21540, Note_on_c, 4, 72, 0
6, 21540, Note_on_c, 4, 64, 0
6, 22320, Note_on_c, 4, 79, 78
6, 22320, Note_on_c, 4, 72, 59
6, 22350, Note_on_c, 4, 79, 0
6, 22350, Note_on_c, 4, 88, 95
6, 22380, Note_on_c, 4, 88, 0
6, 22380, Note_on_c, 4, 84, 89
6, 22410, Note_on_c, 4, 84, 0
6, 22410, Note_on_c, 4, 79, 84
6, 22440, Note_on_c, 4, 79, 0
6, 22440, Note_on_c, 4, 72, 0
6, 22440, Note_on_c, 4, 77, 71
6, 22440, Note_on_c, 4, 69, 90
6, 22440, Note_on_c, 4, 65, 80
6, 22470, Note_on_c, 4, 77, 0
6, 22470, Note_on_c, 4, 86, 93
6, 22500, Note_on_c, 4, 86, 0
6, 22500, Note_on_c, 4, 65, 0
6, 22500, Note_on_c, 4, 69, 0
6, 22500, Note_on_c, 4, 76, 84
6, 22500, Note_on_c, 4, 67, 80
6, 22530, Note_on_c, 4, 76, 0
6, 22530, Note_on_c, 4, 84, 89
6, 22560, Note_on_c, 4, 84, 0
6, 22560, Note_on_c, 4, 79, 82
6, 22590, Note_on_c, 4, 79, 0
6, 22590, Note_on_c, 4, 76, 84
6, 22620, Note_on_c, 4, 76, 0
6, 22620, Note_on_c, 4, 67, 0
6, 22620, Note_on_c, 4, 55, 84
6, 22620, Note_on_c, 4, 65, 77
6, 22620, Note_on_c, 4, 74, 68
6, 22650, Note_on_c, 4, 74, 0
6, 22650, Note_on_c, 4, 83, 82
6, 22680, Note_on_c, 4, 83, 0
6, 22680, Note_on_c, 4, 65, 0
6, 22680, Note_on_c, 4, 55, 0
6, 22680, Note_on_c, 4, 84, 82
6, 22680, Note_on_c, 4, 72, 50
6, 22680, Note_on_c, 4, 64, 80
6, 22680, Note_on_c, 4, 60, 86
6, 22800, Note_on_c, 4, 60, 0
6, 22800, Note_on_c, 4, 84, 0
6, 22800, Note_on_c, 4, 72, 0
6, 22800, Note_on_c, 4, 64, 0
6, 23700, Note_on_c, 4, 72, 89
6, 23760, Note_on_c, 4, 72, 0
6, 23760, Note_on_c, 4, 82, 99
6, 23760, Note_on_c, 4, 52, 95
6, 23780, Note_on_c, 4, 82, 0
6, 23780, Note_on_c, 4, 84, 94
6, 23790, Note_on_c, 4, 52, 0
6, 23790, Note_on_c, 4, 60, 81
6, 23800, Note_on_c, 4, 84, 0
6, 23800, Note_on_c, 4, 82, 94
6, 23820, Note_on_c, 4, 82, 0
6, 23820, Note_on_c, 4, 60, 0
6, 23820, Note_on_c, 4, 81, 94
6, 23820, Note_on_c, 4, 55, 98
6, 23850, Note_on_c, 4, 55, 0
6, 23850, Note_on_c, 4, 81, 0
6, 23850, Note_on_c, 4, 82, 94
6, 23850, Note_on_c, 4, 60, 84
6, 23880, Note_on_c, 4, 60, 0
6, 23880, Note_on_c, 4, 82, 0
6, 23880, Note_on_c, 4, 79, 98
6, 23880, Note_on_c, 4, 52, 95
6, 23910, Note_on_c, 4, 52, 0
6, 23910, Note_on_c, 4, 79, 0
6, 23910, Note_on_c, 4, 60, 86
6, 23940, Note_on_c, 4, 60, 0
6, 23940, Note_on_c, 4, 82, 99
6, 23940, Note_on_c, 4, 52, 104
6, 23960, Note_on_c, 4, 82, 0
6, 23960, Note_on_c, 4, 84, 94
6, 23970, Note_on_c, 4, 52, 0
6, 23970, Note_on_c, 4, 60, 86
6, 23980, Note_on_c, 4, 84, 0
6, 23980, Note_on_c, 4, 82, 95
6, 24000, Note_on_c, 4, 82, 0
6, 24000, Note_on_c, 4, 60, 0
6, 24000, Note_on_c, 4, 81, 99
6, 24000, Note_on_c, 4, 55, 98
6, 24030, Note_on_c, 4, 55, 0
6, 24030, Note_on_c, 4, 81, 0
6, 24030, Note_on_c, 4, 82, 94
6, 24030, Note_on_c, 4, 60, 84
6, 24060, Note_on_c, 4, 60, 0
6, 24060, Note_on_c, 4, 82, 0
6, 24060, Note_on_c, 4, 79, 101
6, 24060, Note_on_c, 4, 52, 98
6, 24090, Note_on_c, 4, 52, 0
6, 24090, Note_on_c, 4, 79, 0
6, 24090, Note_on_c, 4, 60, 93
6, 24120, Note_on_c, 4, 60, 0
6, 24120, Note_on_c, 4, 81, 90
6, 24120, Note_on_c, 4, 60, 84
6, 24120, Note_on_c, 4, 53, 84
6, 24180, Note_on_c, 4, 81, 0
6, 24180, Note_on_c, 4, 84, 82
6, 24240, Note_on_c, 4, 84, 0
6, 24240, Note_on_c, 4, 53, 0
6, 24240, Note_on_c, 4, 60, 0
6, 24240, Note_on_c, 4, 81, 94
6, 24270, Note_on_c, 4, 81, 0
6, 24300, Note_on_c, 4, 77, 86
6, 24330, Note_on_c, 4, 77, 0
6, 24360, Note_on_c, 4, 72, 81
6, 24390, Note_on_c, 4, 72, 0
6, 24420, Note_on_c, 4, 69, 101
6, 24450, Note_on_c, 4, 69, 0
6, 24480, Note_on_c, 4, 67, 94
6, 24600, Note_on_c, 4, 67, 0
6, 25140, Note_on_c, 4, 72, 86
6, 25200, Note_on_c, 4, 72, 0
6, 25200, Note_on_c, 4, 82, 99
6, 25200, Note_on_c, 4, 52, 95
6, 25220, Note_on_c, 4, 82, 0
6, 25220, Note_on_c, 4, 84, 94
6, 25230, Note_on_c, 4, 52, 0
6, 25230, Note_on_c, 4, 60, 81
6, 25240, Note_on_c, 4, 84, 0
6, 25240, Note_on_c, 4, 82, 94
6, 25260, Note_on_c, 4, 82, 0
6, 25260, Note_on_c, 4, 60, 0
6, 25260, Note_on_c, 4, 81, 94
6, 25260, Note_on_c, 4, 55, 98
6, 25290, Note_on_c, 4, 55, 0
6, 25290, Note_on_c, 4, 81, 0
6, 25290, Note_on_c, 4, 82, 94
6, 25290, Note_on_c, 4, 60, 84
6, 25320, Note_on_c, 4, 60, 0
6, 25320, Note_on_c, 4, 82, 0
6, 25320, Note_on_c, 4, 79, 98
6, 25320, Note_on_c, 4, 52, 95
6, 25350, Note_on_c, 4, 52, 0
6, 25350, Note_on_c, 4, 79, 0
6, 25350, Note_on_c, 4, 60, 86
6, 25380, Note_on_c, 4, 60, 0
6, 25380, Note_on_c, 4, 82, 99
6, 25380, Note_on_c, 4, 52, 104
6, 25400, Note_on_c, 4, 82, 0
6, 25400, Note_on_c, 4, 84, 94
6, 25410, Note_on_c, 4, 52, 0
6, 25410, Note_on_c, 4, 60, 86
6, 25420, Note_on_c, 4, 84, 0
6, 25420, Note_on_c, 4, 82, 95
6, 25440, Note_on_c, 4, 82, 0
6, 25440, Note_on_c, 4, 60, 0
6, 25440, Note_on_c, 4, 81, 99
6, 25440, Note_on_c, 4, 55, 98
6, 25470, Note_on_c, 4, 55, 0
6, 25470, Note_on_c, 4, 81, 0
6, 25470, Note_on_c, 4, 82, 94
6, 25470, Note_on_c, 4, 60, 84
6, 25500, Note_on_c, 4, 60, 0
6, 25500, Note_on_c, 4, 82, 0
6, 25500, Note_on_c, 4, 79, 101
6, 25500, Note_on_c, 4, 52, 98
6, 25530, Note_on_c, 4, 52, 0
6, 25530, Note_on_c, 4, 79, 0
6, 25530, Note_on_c, 4, 60, 93
6, 25560, Note_on_c, 4, 60, 0
6, 25560, Note_on_c, 4, 81, 93
6, 25560, Note_on_c, 4, 53, 94
6, 25590, Note_on_c, 4, 81, 0
6, 25605, Note_on_c, 4, 83, 94
6, 25620, Note_on_c, 4, 83, 0
6, 25620, Note_on_c, 4, 53, 0
6, 25620, Note_on_c, 4, 84, 81
6, 25620, Note_on_c, 4, 69, 85
6, 25650, Note_on_c, 4, 84, 0
6, 25680, Note_on_c, 4, 69, 0
6, 25680, Note_on_c, 4, 65, 94
6, 25740, Note_on_c, 4, 65, 0
6, 25740, Note_on_c, 4, 79, 86
6, 25740, Note_on_c, 4, 64, 93
6, 25770, Note_on_c, 4, 79, 0
6, 25785, Note_on_c, 4, 83, 94
6, 25800, Note_on_c, 4, 83, 0
6, 25800, Note_on_c, 4, 64, 0
6, 25800, Note_on_c, 4, 84, 93
6, 25800, Note_on_c, 4, 67, 84
6, 25830, Note_on_c, 4, 84, 0
6, 25860, Note_on_c, 4, 67, 0
6, 25860, Note_on_c, 4, 64, 94
6, 25920, Note_on_c, 4, 64, 0
6, 25920, Note_on_c, 4, 77, 94
6, 25920, Note_on_c, 4, 62, 84
6, 25950, Note_on_c, 4, 77, 0
6, 25965, Note_on_c, 4, 83, 98
6, 25980, Note_on_c, 4, 83, 0
6, 25980, Note_on_c, 4, 62, 0
6, 25980, Note_on_c, 4, 84, 86
6, 25980, Note_on_c, 4, 65, 90
6, 26010, Note_on_c, 4, 84, 0
6, 26040, Note_on_c, 4, 65, 0
6, 26040, Note_on_c, 4, 62, 84
6, 26100, Note_on_c, 4, 62, 0
6, 26100, Note_on_c, 4, 76, 104
6, 26100, Note_on_c, 4, 60, 93
6, 26130, Note_on_c, 4, 76, 0
6, 26145, Note_on_c, 4, 83, 95
6, 26160, Note_on_c, 4, 83, 0
6, 26160, Note_on_c, 4, 60, 0
6, 26160, Note_on_c, 4, 84, 94
6, 26160, Note_on_c, 4, 64, 93
6, 26190, Note_on_c, 4, 84, 0
6, 26220, Note_on_c, 4, 64, 0
6, 26220, Note_on_c, 4, 60, 94
6, 26280, Note_on_c, 4, 60, 0
6, 26280, Note_on_c, 4, 74, 99
6, 26280, Note_on_c, 4, 58, 89
6, 26310, Note_on_c, 4, 74, 0
6, 26325, Note_on_c, 4, 83, 99
6, 26340, Note_on_c, 4, 83, 0
6, 26340, Note_on_c, 4, 58, 0
6, 26340, Note_on_c, 4, 84, 89
6, 26340, Note_on_c, 4, 62, 84
6, 26370, Note_on_c, 4, 84, 0
6, 26400, Note_on_c, 4, 62, 0
6, 26400, Note_on_c, 4, 58, 89
6, 26460, Note_on_c, 4, 58, 0
6, 26460, Note_on_c, 4, 72, 85
6, 26460, Note_on_c, 4, 57, 95
6, 26490, Note_on_c, 4, 72, 0
6, 26505, Note_on_c, 4, 83, 95
6, 26520, Note_on_c, 4, 83, 0
6, 26520, Note_on_c, 4, 57, 0
6, 26520, Note_on_c, 4, 84, 89
6, 26520, Note_on_c, 4, 60, 86
6, 26550, Note_on_c, 4, 84, 0
6, 26580, Note_on_c, 4, 60, 0
6, 26580, Note_on_c, 4, 57, 95
6, 26640, Note_on_c, 4, 57, 0
6, 26640, Note_on_c, 4, 70, 95
6, 26640, Note_on_c, 4, 55, 94
6, 26670, Note_on_c, 4, 70, 0
6, 26685, Note_on_c, 4, 83, 99
6, 26700, Note_on_c, 4, 83, 0
6, 26700, Note_on_c, 4, 55, 0
6, 26700, Note_on_c, 4, 84, 89
6, 26700, Note_on_c, 4, 58, 80
6, 26730, Note_on_c, 4, 84, 0
6, 26760, Note_on_c, 4, 58, 0
6, 26760, Note_on_c, 4, 55, 90
6, 26820, Note_on_c, 4, 55, 0
6, 26820, Note_on_c, 4, 69, 105
6, 26820, Note_on_c, 4, 53, 90
6, 26850, Note_on_c, 4, 69, 0
6, 26865, Note_on_c, 4, 83, 94
6, 26880, Note_on_c, 4, 83, 0
6, 26880, Note_on_c, 4, 53, 0
6, 26880, Note_on_c, 4, 84, 89
6, 26880, Note_on_c, 4, 57, 99
6, 26910, Note_on_c, 4, 84, 0
6, 26940, Note_on_c, 4, 57, 0
6, 26940, Note_on_c, 4, 53, 89
6, 27000, Note_on_c, 4, 53, 0
6, 27000, Note_on_c, 4, 67, 80
6, 27000, Note_on_c, 4, 55, 76
6, 27000, Note_on_c, 4, 50, 99
6, 27000, Note_on_c, 4, 46, 80
6, 27030, Note_on_c, 4, 67, 0
6, 27030, Note_on_c, 4, 70, 84
6, 27060, Note_on_c, 4, 70, 0
6, 27060, Note_on_c, 4, 72, 69
6, 27090, Note_on_c, 4, 72, 0
6, 27090, Note_on_c, 4, 74, 86
6, 27120, Note_on_c, 4, 74, 0
6, 27120, Note_on_c, 4, 46, 0
6, 27120, Note_on_c, 4, 50, 0
6, 27120, Note_on_c, 4, 55, 0
6, 27120, Note_on_c, 4, 76, 84
6, 27150, Note_on_c, 4, 76, 0
6, 27150, Note_on_c, 4, 78, 68
6, 27180, Note_on_c, 4, 78, 0
6, 27180, Note_on_c, 4, 79, 72
6, 27210, Note_on_c, 4, 79, 0
6, 27210, Note_on_c, 4, 81, 85
6, 27240, Note_on_c, 4, 81, 0
6, 27240, Note_on_c, 4, 82, 81
6, 27270, Note_on_c, 4, 82, 0
6, 27270, Note_on_c, 4, 84, 84
6, 27300, Note_on_c, 4, 84, 0
6, 27300, Note_on_c, 4, 86, 107
6, 27360, Note_on_c, 4, 48, 76
6, 27420, Note_on_c, 4, 48, 0
6, 27420, Note_on_c, 4, 86, 0
6, 27420, Note_on_c, 4, 84, 80
6, 27420, Note_on_c, 4, 53, 80
6, 27480, Note_on_c, 4, 53, 0
6, 27480, Note_on_c, 4, 84, 0
6, 27480, Note_on_c, 4, 81, 94
6, 27480, Note_on_c, 4, 57, 85
6, 27510, Note_on_c, 4, 81, 0
6, 27540, Note_on_c, 4, 57, 0
6, 27540, Note_on_c, 4, 84, 77
6, 27540, Note_on_c, 4, 48, 84
6, 27600, Note_on_c, 4, 48, 0
6, 27600, Note_on_c, 4, 84, 0
6, 27600, Note_on_c, 4, 82, 74
6, 27600, Note_on_c, 4, 55, 80
6, 27660, Note_on_c, 4, 55, 0
6, 27660, Note_on_c, 4, 82, 0
6, 27660, Note_on_c, 4, 58, 69
6, 27660, Note_on_c, 4, 79, 86
6, 27690, Note_on_c, 4, 79, 0
6, 27720, Note_on_c, 4, 58, 0
6, 27720, Note_on_c, 4, 81, 80
6, 27720, Note_on_c, 4, 65, 90
6, 27750, Note_on_c, 4, 81, 0
6, 27750, Note_on_c, 4, 84, 85
6, 27780, Note_on_c, 4, 84, 0
6, 27780, Note_on_c, 4, 65, 0
6, 27780, Note_on_c, 4, 83, 76
6, 27780, Note_on_c, 4, 69, 85
6, 27810, Note_on_c, 4, 83, 0
6, 27810, Note_on_c, 4, 84, 85
6, 27840, Note_on_c, 4, 84, 0
6, 27840, Note_on_c, 4, 69, 0
6, 27840, Note_on_c, 4, 81, 80
6, 27840, Note_on_c, 4, 65, 94
6, 27870, Note_on_c, 4, 81, 0
6, 27870, Note_on_c, 4, 84, 86
6, 27900, Note_on_c, 4, 84, 0
6, 27900, Note_on_c, 4, 65, 0
6, 27900, Note_on_c, 4, 79, 80
6, 27900, Note_on_c, 4, 64, 84
6, 27930, Note_on_c, 4, 79, 0
6, 27930, Note_on_c, 4, 84, 93
6, 27960, Note_on_c, 4, 84, 0
6, 27960, Note_on_c, 4, 64, 0
6, 27960, Note_on_c, 4, 83, 93
6, 27960, Note_on_c, 4, 67, 74
6, 27990, Note_on_c, 4, 83, 0
6, 27990, Note_on_c, 4, 84, 86
6, 28020, Note_on_c, 4, 84, 0
6, 28020, Note_on_c, 4, 67, 0
6, 28020, Note_on_c, 4, 64, 94
6, 28020, Note_on_c, 4, 79, 69
6, 28050, Note_on_c, 4, 79, 0
6, 28050, Note_on_c, 4, 84, 95
6, 28080, Note_on_c, 4, 84, 0
6, 28080, Note_on_c, 4, 64, 0
6, 28080, Note_on_c, 4, 77, 74
6, 28080, Note_on_c, 4, 62, 78
6, 28110, Note_on_c, 4, 77, 0
6, 28110, Note_on_c, 4, 84, 94
6, 28140, Note_on_c, 4, 84, 0
6, 28140, Note_on_c, 4, 62, 0
6, 28140, Note_on_c, 4, 83, 95
6, 28140, Note_on_c, 4, 65, 93
6, 28170, Note_on_c, 4, 83, 0
6, 28170, Note_on_c, 4, 84, 94
6, 28200, Note_on_c, 4, 84, 0
6, 28200, Note_on_c, 4, 65, 0
6, 28200, Note_on_c, 4, 77, 80
6, 28200, Note_on_c, 4, 62, 81
6, 28230, Note_on_c, 4, 77, 0
6, 28230, Note_on_c, 4, 84, 93
6, 28260, Note_on_c, 4, 84, 0
6, 28260, Note_on_c, 4, 62, 0
6, 28260, Note_on_c, 4, 76, 84
6, 28260, Note_on_c, 4, 60, 84
6, 28290, Note_on_c, 4, 76, 0
6, 28290, Note_on_c, 4, 84, 94
6, 28320, Note_on_c, 4, 84, 0
6, 28320, Note_on_c, 4, 60, 0
6, 28320, Note_on_c, 4, 83, 94
6, 28320, Note_on_c, 4, 64, 85
6, 28350, Note_on_c, 4, 83, 0
6, 28350, Note_on_c, 4, 84, 95
6, 28380, Note_on_c, 4, 84, 0
6, 28380, Note_on_c, 4, 64, 0
6, 28380, Note_on_c, 4, 60, 89
6, 28380, Note_on_c, 4, 76, 86
6, 28410, Note_on_c, 4, 76, 0
6, 28410, Note_on_c, 4, 84, 94
6, 28440, Note_on_c, 4, 84, 0
6, 28440, Note_on_c, 4, 60, 0
6, 28440, Note_on_c, 4, 74, 89
6, 28440, Note_on_c, 4, 58, 80
6, 28470, Note_on_c, 4, 74, 0
6, 28470, Note_on_c, 4, 84, 89
6, 28500, Note_on_c, 4, 84, 0
6, 28500, Note_on_c, 4, 58, 0
6, 28500, Note_on_c, 4, 83, 89
6, 28500, Note_on_c, 4, 62, 69
6, 28530, Note_on_c, 4, 83, 0
6, 28530, Note_on_c, 4, 84, 94
6, 28560, Note_on_c, 4, 84, 0
6, 28560, Note_on_c, 4, 62, 0
6, 28560, Note_on_c, 4, 74, 86
6, 28560, Note_on_c, 4, 58, 82
6, 28590, Note_on_c, 4, 74, 0
6, 28590, Note_on_c, 4, 84, 89
6, 28620, Note_on_c, 4, 84, 0
6, 28620, Note_on_c, 4, 58, 0
6, 28620, Note_on_c, 4, 72, 70
6, 28620, Note_on_c, 4, 57, 95
6, 28650, Note_on_c, 4, 72, 0
6, 28650, Note_on_c, 4, 84, 89
6, 28680, Note_on_c, 4, 84, 0
6, 28680, Note_on_c, 4, 57, 0
6, 28680, Note_on_c, 4, 83, 84
6, 28680, Note_on_c, 4, 60, 82
6, 28710, Note_on_c, 4, 83, 0
6, 28710, Note_on_c, 4, 84, 89
6, 28740, Note_on_c, 4, 84, 0
6, 28740, Note_on_c, 4, 60, 0
6, 28740, Note_on_c, 4, 57, 86
6, 28740, Note_on_c, 4, 72, 61
6, 28770, Note_on_c, 4, 72, 0
6, 28770, Note_on_c, 4, 84, 99
6, 28800, Note_on_c, 4, 84, 0
6, 28800, Note_on_c, 4, 57, 0
6, 28800, Note_on_c, 4, 70, 82
6, 28800, Note_on_c, 4, 55, 86
6, 28830, Note_on_c, 4, 70, 0
6, 28830, Note_on_c, 4, 84, 89
6, 28860, Note_on_c, 4, 84, 0
6, 28860, Note_on_c, 4, 55, 0
6, 28860, Note_on_c, 4, 83, 84
6, 28860, Note_on_c, 4, 58, 78
6, 28890, Note_on_c, 4, 83, 0
6, 28890, Note_on_c, 4, 84, 85
6, 28920, Note_on_c, 4, 84, 0
6, 28920, Note_on_c, 4, 58, 0
6, 28920, Note_on_c, 4, 70, 81
6, 28920, Note_on_c, 4, 55, 77
6, 28950, Note_on_c, 4, 70, 0
6, 28950, Note_on_c, 4, 84, 86
6, 28980, Note_on_c, 4, 84, 0
6, 28980, Note_on_c, 4, 55, 0
6, 28980, Note_on_c, 4, 69, 86
6, 28980, Note_on_c, 4, 53, 78
6, 29010, Note_on_c, 4, 69, 0
6, 29010, Note_on_c, 4, 84, 93
6, 29040, Note_on_c, 4, 84, 0
6, 29040, Note_on_c, 4, 53, 0
6, 29040, Note_on_c, 4, 83, 86
6, 29040, Note_on_c, 4, 57, 94
6, 29070, Note_on_c, 4, 83, 0
6, 29070, Note_on_c, 4, 84, 95
6, 29100, Note_on_c, 4, 84, 0
6, 29100, Note_on_c, 4, 57, 0
6, 29100, Note_on_c, 4, 53, 80
6, 29100, Note_on_c, 4, 69, 86
6, 29130, Note_on_c, 4, 69, 0
6, 29130, Note_on_c, 4, 84, 94
6, 29160, Note_on_c, 4, 84, 0
6, 29160, Note_on_c, 4, 53, 0
6, 29160, Note_on_c, 4, 67, 84
6, 29160, Note_on_c, 4, 46, 85
6, 29190, Note_on_c, 4, 46, 0
6, 29190, Note_on_c, 4, 50, 99
6, 29220, Note_on_c, 4, 50, 0
6, 29220, Note_on_c, 4, 52, 95
6, 29250, Note_on_c, 4, 52, 0
6, 29250, Note_on_c, 4, 54, 73
6, 29280, Note_on_c, 4, 54, 0
6, 29280, Note_on_c, 4, 67, 0
6, 29280, Note_on_c, 4, 55, 85
6, 29310, Note_on_c, 4, 55, 0
6, 29310, Note_on_c, 4, 57, 85
6, 29340, Note_on_c, 4, 57, 0
6, 29340, Note_on_c, 4, 62, 76
6, 29340, Note_on_c, 4, 58, 81
6, 29370, Note_on_c, 4, 62, 0
6, 29370, Note_on_c, 4, 66, 76
6, 29400, Note_on_c, 4, 66, 0
6, 29400, Note_on_c, 4, 67, 89
6, 29430, Note_on_c, 4, 67, 0
6, 29430, Note_on_c, 4, 69, 89
6, 29460, Note_on_c, 4, 69, 0
6, 29460, Note_on_c, 4, 58, 0
6, 29460, Note_on_c, 4, 70, 94
6, 29490, Note_on_c, 4, 70, 0
6, 29490, Note_on_c, 4, 72, 64
6, 29520, Note_on_c, 4, 72, 0
6, 29520, Note_on_c, 4, 74, 94
6, 29520, Note_on_c, 4, 58, 84
6, 29550, Note_on_c, 4, 58, 0
6, 29550, Note_on_c, 4, 62, 93
6, 29580, Note_on_c, 4, 62, 0
6, 29580, Note_on_c, 4, 64, 74
6, 29610, Note_on_c, 4, 64, 0
6, 29610, Note_on_c, 4, 66, 84
6, 29640, Note_on_c, 4, 66, 0
6, 29640, Note_on_c, 4, 74, 0
6, 29640, Note_on_c, 4, 67, 84
6, 29670, Note_on_c, 4, 67, 0
6, 29670, Note_on_c, 4, 69, 89
6, 29700, Note_on_c, 4, 69, 0
6, 29700, Note_on_c, 4, 74, 86
6, 29700, Note_on_c, 4, 70, 93
6, 29730, Note_on_c, 4, 74, 0
6, 29730, Note_on_c, 4, 78, 80
6, 29760, Note_on_c, 4, 78, 0
6, 29760, Note_on_c, 4, 79, 89
6, 29790, Note_on_c, 4, 79, 0
6, 29790, Note_on_c, 4, 81, 86
6, 29820, Note_on_c, 4, 81, 0
6, 29820, Note_on_c, 4, 70, 0
6, 29820, Note_on_c, 4, 82, 84
6, 29850, Note_on_c, 4, 82, 0
6, 29850, Note_on_c, 4, 84, 86
6, 29880, Note_on_c, 4, 84, 0
6, 29880, Note_on_c, 4, 86, 95
6, 29880, Note_on_c, 4, 70, 93
6, 29910, Note_on_c, 4, 70, 0
6, 29910, Note_on_c, 4, 74, 99
6, 29940, Note_on_c, 4, 74, 0
6, 29940, Note_on_c, 4, 76, 95
6, 29970, Note_on_c, 4, 76, 0
6, 29970, Note_on_c, 4, 78, 84
6, 30000, Note_on_c, 4, 78, 0
6, 30000, Note_on_c, 4, 86, 0
6, 30000, Note_on_c, 4, 79, 89
6, 30030, Note_on_c, 4, 79, 0
6, 30030, Note_on_c, 4, 81, 89
6, 30060, Note_on_c, 4, 81, 0
6, 30060, Note_on_c, 4, 86, 84
6, 30060, Note_on_c, 4, 82, 86
6, 30090, Note_on_c, 4, 86, 0
6, 30090, Note_on_c, 4, 85, 85
6, 30120, Note_on_c, 4, 85, 0
6, 30120, Note_on_c, 4, 86, 94
6, 30150, Note_on_c, 4, 86, 0
6, 30150, Note_on_c, 4, 84, 89
6, 30180, Note_on_c, 4, 84, 0
6, 30180, Note_on_c, 4, 82, 0
6, 30180, Note_on_c, 4, 82, 86
6, 30210, Note_on_c, 4, 82, 0
6, 30210, Note_on_c, 4, 81, 86
6, 30240, Note_on_c, 4, 81, 0
6, 30240, Note_on_c, 4, 79, 94
6, 30360, Note_on_c, 4, 79, 0
6, 30600, Note_on_c, 4, 48, 78
6, 30630, Note_on_c, 4, 48, 0
6, 30630, Note_on_c, 4, 51, 84
6, 30660, Note_on_c, 4, 51, 0
6, 30660, Note_on_c, 4, 53, 81
6, 30690, Note_on_c, 4, 53, 0
6, 30690, Note_on_c, 4, 55, 72
6, 30720, Note_on_c, 4, 55, 0
6, 30720, Note_on_c, 4, 57, 86
6, 30750, Note_on_c, 4, 57, 0
6, 30750, Note_on_c, 4, 59, 89
6, 30780, Note_on_c, 4, 59, 0
6, 30780, Note_on_c, 4, 63, 77
6, 30780, Note_on_c, 4, 60, 86
6, 30810, Note_on_c, 4, 63, 0
6, 30810, Note_on_c, 4, 67, 90
6, 30840, Note_on_c, 4, 67, 0
6, 30840, Note_on_c, 4, 69, 94
6, 30870, Note_on_c, 4, 69, 0
6, 30870, Note_on_c, 4, 71, 84
6, 30900, Note_on_c, 4, 71, 0
6, 30900, Note_on_c, 4, 60, 0
6, 30900, Note_on_c, 4, 72, 57
6, 30930, Note_on_c, 4, 72, 0
6, 30930, Note_on_c, 4, 74, 80
6, 30960, Note_on_c, 4, 74, 0
6, 30960, Note_on_c, 4, 75, 95
6, 30960, Note_on_c, 4, 60, 73
6, 30990, Note_on_c, 4, 60, 0
6, 30990, Note_on_c, 4, 63, 81
6, 31020, Note_on_c, 4, 63, 0
6, 31020, Note_on_c, 4, 65, 84
6, 31050, Note_on_c, 4, 65, 0
6, 31050, Note_on_c, 4, 67, 76
6, 31080, Note_on_c, 4, 67, 0
6, 31080, Note_on_c, 4, 75, 0
6, 31080, Note_on_c, 4, 69, 95
6, 31110, Note_on_c, 4, 69, 0
6, 31110, Note_on_c, 4, 71, 94
6, 31140, Note_on_c, 4, 71, 0
6, 31140, Note_on_c, 4, 75, 80
6, 31140, Note_on_c, 4, 72, 84
6, 31170, Note_on_c, 4, 75, 0
6, 31170, Note_on_c, 4, 79, 86
6, 31200, Note_on_c, 4, 79, 0
6, 31200, Note_on_c, 4, 81, 95
6, 31230, Note_on_c, 4, 81, 0
6, 31230, Note_on_c, 4, 83, 80
6, 31260, Note_on_c, 4, 83, 0
6, 31260, Note_on_c, 4, 72, 0
6, 31260, Note_on_c, 4, 84, 84
6, 31290, Note_on_c, 4, 84, 0
6, 31290, Note_on_c, 4, 86, 84
6, 31320, Note_on_c, 4, 86, 0
6, 31320, Note_on_c, 4, 87, 74
6, 31320, Note_on_c, 4, 72, 71
6, 31350, Note_on_c, 4, 72, 0
6, 31350, Note_on_c, 4, 75, 90
6, 31380, Note_on_c, 4, 75, 0
6, 31380, Note_on_c, 4, 77, 89
6, 31410, Note_on_c, 4, 77, 0
6, 31410, Note_on_c, 4, 79, 72
6, 31440, Note_on_c, 4, 79, 0
6, 31440, Note_on_c, 4, 87, 0
6, 31440, Note_on_c, 4, 81, 89
6, 31470, Note_on_c, 4, 81, 0
6, 31470, Note_on_c, 4, 83, 93
6, 31500, Note_on_c, 4, 83, 0
6, 31500, Note_on_c, 4, 87, 89
6, 31500, Note_on_c, 4, 84, 84
6, 31530, Note_on_c, 4, 87, 0
6, 31530, Note_on_c, 4, 86, 86
6, 31560, Note_on_c, 4, 86, 0
6, 31560, Note_on_c, 4, 87, 74
6, 31590, Note_on_c, 4, 87, 0
6, 31590, Note_on_c, 4, 86, 67
6, 31620, Note_on_c, 4, 86, 0
6, 31620, Note_on_c, 4, 84, 0
6, 31620, Note_on_c, 4, 84, 43
6, 31650, Note_on_c, 4, 84, 0
6, 31650, Note_on_c, 4, 82, 42
6, 31680, Note_on_c, 4, 82, 0
6, 31680, Note_on_c, 4, 81, 46
6, 31800, Note_on_c, 4, 81, 0
6, 32040, Note_on_c, 4, 60, 67
6, 32070, Note_on_c, 4, 60, 0
6, 32070, Note_on_c, 4, 63, 63
6, 32100, Note_on_c, 4, 63, 0
6, 32100, Note_on_c, 4, 65, 71
6, 32130, Note_on_c, 4, 65, 0
6, 32130, Note_on_c, 4, 67, 58
6, 32160, Note_on_c, 4, 67, 0
6, 32160, Note_on_c, 4, 69, 67
6, 32190, Note_on_c, 4, 69, 0
6, 32190, Note_on_c, 4, 71, 65
6, 32220, Note_on_c, 4, 71, 0
6, 32220, Note_on_c, 4, 75, 45
6, 32220, Note_on_c, 4, 72, 31
6, 32250, Note_on_c, 4, 75, 0
6, 32250, Note_on_c, 4, 74, 65
6, 32280, Note_on_c, 4, 74, 0
6, 32280, Note_on_c, 4, 75, 74
6, 32310, Note_on_c, 4, 75, 0
6, 32310, Note_on_c, 4, 74, 72
6, 32340, Note_on_c, 4, 74, 0
6, 32340, Note_on_c, 4, 72, 0
6, 32340, Note_on_c, 4, 72, 53
6, 32370, Note_on_c, 4, 72, 0
6, 32370, Note_on_c, 4, 70, 68
6, 32400, Note_on_c, 4, 70, 0
6, 32400, Note_on_c, 4, 69, 65
6, 32520, Note_on_c, 4, 69, 0
6, 32760, Note_on_c, 4, 41, 55
6, 32790, Note_on_c, 4, 41, 0
6, 32790, Note_on_c, 4, 45, 76
6, 32820, Note_on_c, 4, 45, 0
6, 32820, Note_on_c, 4, 46, 62
6, 32850, Note_on_c, 4, 46, 0
6, 32850, Note_on_c, 4, 48, 63
6, 32880, Note_on_c, 4, 48, 0
6, 32880, Note_on_c, 4, 50, 82
6, 32910, Note_on_c, 4, 50, 0
6, 32910, Note_on_c, 4, 52, 89
6, 32940, Note_on_c, 4, 52, 0
6, 32940, Note_on_c, 4, 53, 76
6, 32970, Note_on_c, 4, 53, 0
6, 32970, Note_on_c, 4, 55, 80
6, 33000, Note_on_c, 4, 55, 0
6, 33000, Note_on_c, 4, 57, 98
6, 33030, Note_on_c, 4, 57, 0
6, 33030, Note_on_c, 4, 58, 89
6, 33060, Note_on_c, 4, 58, 0
6, 33060, Note_on_c, 4, 60, 94
6, 33090, Note_on_c, 4, 60, 0
6, 33090, Note_on_c, 4, 61, 84
6, 33120, Note_on_c, 4, 61, 0
6, 33120, Note_on_c, 4, 62, 81
6, 33150, Note_on_c, 4, 62, 0
6, 33150, Note_on_c, 4, 63, 89
6, 33180, Note_on_c, 4, 63, 0
6, 33180, Note_on_c, 4, 64, 84
6, 33210, Note_on_c, 4, 64, 0
6, 33210, Note_on_c, 4, 65, 95
6, 33240, Note_on_c, 4, 65, 0
6, 33240, Note_on_c, 4, 66, 80
6, 33270, Note_on_c, 4, 66, 0
6, 33270, Note_on_c, 4, 67, 80
6, 33300, Note_on_c, 4, 67, 0
6, 33300, Note_on_c, 4, 68, 93
6, 33330, Note_on_c, 4, 68, 0
6, 33330, Note_on_c, 4, 69, 84
6, 33360, Note_on_c, 4, 69, 0
6, 33360, Note_on_c, 4, 70, 90
6, 33390, Note_on_c, 4, 70, 0
6, 33390, Note_on_c, 4, 71, 89
6, 33420, Note_on_c, 4, 71, 0
6, 33420, Note_on_c, 4, 72, 78
6, 33450, Note_on_c, 4, 72, 0
6, 33450, Note_on_c, 4, 73, 84
6, 33480, Note_on_c, 4, 73, 0
6, 33480, Note_on_c, 4, 74, 90
6, 33510, Note_on_c, 4, 74, 0
6, 33510, Note_on_c, 4, 75, 99
6, 33540, Note_on_c, 4, 75, 0
6, 33540, Note_on_c, 4, 76, 98
6, 33570, Note_on_c, 4, 76, 0
6, 33570, Note_on_c, 4, 77, 89
6, 33600, Note_on_c, 4, 77, 0
6, 33600, Note_on_c, 4, 78, 89
6, 33630, Note_on_c, 4, 78, 0
6, 33630, Note_on_c, 4, 79, 94
6, 33660, Note_on_c, 4, 79, 0
6, 33660, Note_on_c, 4, 81, 107
6, 33780, Note_on_c, 4, 81, 0
6, 33780, Note_on_c, 4, 79, 94
6, 33840, Note_on_c, 4, 79, 0
6, 33840, Note_on_c, 4, 77, 81
6, 33960, Note_on_c, 4, 77, 0
6, 33960, Note_on_c, 4, 75, 89
6, 34020, Note_on_c, 4, 75, 0
6, 34020, Note_on_c, 4, 74, 82
6, 34140, Note_on_c, 4, 74, 0
6, 34140, Note_on_c, 4, 73, 44
6, 34200, Note_on_c, 4, 73, 0
6, 34200, Note_on_c, 4, 74, 65
6, 34200, Note_on_c, 4, 46, 80
6, 34230, Note_on_c, 4, 46, 0
6, 34230, Note_on_c, 4, 74, 0
6, 34260, Note_on_c, 4, 70, 93
6, 34260, Note_on_c, 4, 50, 93
6, 34290, Note_on_c, 4, 50, 0
6, 34320, Note_on_c, 4, 53, 69
6, 34350, Note_on_c, 4, 53, 0
6, 34380, Note_on_c, 4, 70, 0
6, 34380, Note_on_c, 4, 74, 46
6, 34380, Note_on_c, 4, 58, 80
6, 34410, Note_on_c, 4, 58, 0
6, 34410, Note_on_c, 4, 74, 0
6, 34440, Note_on_c, 4, 70, 99
6, 34440, Note_on_c, 4, 62, 71
6, 34470, Note_on_c, 4, 62, 0
6, 34500, Note_on_c, 4, 65, 67
6, 34530, Note_on_c, 4, 65, 0
6, 34545, Note_on_c, 4, 72, 81
6, 34560, Note_on_c, 4, 72, 0
6, 34560, Note_on_c, 4, 70, 0
6, 34560, Note_on_c, 4, 70, 84
6, 34560, Note_on_c, 4, 62, 71
6, 34620, Note_on_c, 4, 62, 0
6, 34620, Note_on_c, 4, 70, 0
6, 34620, Note_on_c, 4, 69, 81
6, 34620, Note_on_c, 4, 60, 76
6, 34680, Note_on_c, 4, 60, 0
6, 34680, Note_on_c, 4, 69, 0
6, 34680, Note_on_c, 4, 70, 80
6, 34680, Note_on_c, 4, 58, 67
6, 34710, Note_on_c, 4, 70, 0
6, 34740, Note_on_c, 4, 58, 0
6, 34740, Note_on_c, 4, 72, 69
6, 34740, Note_on_c, 4, 57, 84
6, 34800, Note_on_c, 4, 57, 0
6, 34800, Note_on_c, 4, 55, 78
6, 34860, Note_on_c, 4, 55, 0
6, 34860, Note_on_c, 4, 72, 0
6, 34860, Note_on_c, 4, 53, 76
6, 34920, Note_on_c, 4, 53, 0
6, 34920, Note_on_c, 4, 75, 73
6, 34920, Note_on_c, 4, 41, 71
6, 34950, Note_on_c, 4, 75, 0
6, 34980, Note_on_c, 4, 41, 0
6, 34980, Note_on_c, 4, 72, 80
6, 34980, Note_on_c, 4, 69, 105
6, 34980, Note_on_c, 4, 65, 99
6, 34980, Note_on_c, 4, 45, 84
6, 35040, Note_on_c, 4, 45, 0
6, 35040, Note_on_c, 4, 48, 74
6, 35100, Note_on_c, 4, 48, 0
6, 35100, Note_on_c, 4, 65, 0
6, 35100, Note_on_c, 4, 69, 0
6, 35100, Note_on_c, 4, 72, 0
6, 35100, Note_on_c, 4, 75, 72
6, 35100, Note_on_c, 4, 53, 73
6, 35130, Note_on_c, 4, 75, 0
6, 35160, Note_on_c, 4, 53, 0
6, 35160, Note_on_c, 4, 65, 94
6, 35160, Note_on_c, 4, 69, 89
6, 35160, Note_on_c, 4, 72, 65
6, 35160, Note_on_c, 4, 57, 90
6, 35220, Note_on_c, 4, 57, 0
6, 35220, Note_on_c, 4, 60, 72
6, 35265, Note_on_c, 4, 74, 84
6, 35280, Note_on_c, 4, 74, 0
6, 35280, Note_on_c, 4, 65, 0
6, 35280, Note_on_c, 4, 72, 0
6, 35280, Note_on_c, 4, 69, 0
6, 35280, Note_on_c, 4, 60, 0
6, 35280, Note_on_c, 4, 72, 78
6, 35280, Note_on_c, 4, 63, 73
6, 35340, Note_on_c, 4, 63, 0
6, 35340, Note_on_c, 4, 72, 0
6, 35340, Note_on_c, 4, 70, 80
6, 35340, Note_on_c, 4, 62, 65
6, 35400, Note_on_c, 4, 62, 0
6, 35400, Note_on_c, 4, 70, 0
6, 35400, Note_on_c, 4, 72, 50
6, 35400, Note_on_c, 4, 60, 81
6, 35430, Note_on_c, 4, 72, 0
6, 35460, Note_on_c, 4, 60, 0
6, 35460, Note_on_c, 4, 74, 78
6, 35460, Note_on_c, 4, 58, 76
6, 35520, Note_on_c, 4, 58, 0
6, 35520, Note_on_c, 4, 60, 84
6, 35580, Note_on_c, 4, 60, 0
6, 35580, Note_on_c, 4, 74, 0
6, 35580, Note_on_c, 4, 62, 84
6, 35580, Note_on_c, 4, 70, 81
6, 35610, Note_on_c, 4, 70, 0
6, 35640, Note_on_c, 4, 62, 0
6, 35640, Note_on_c, 4, 70, 81
6, 35640, Note_on_c, 4, 63, 72
6, 35700, Note_on_c, 4, 63, 0
6, 35700, Note_on_c, 4, 70, 0
6, 35700, Note_on_c, 4, 79, 72
6, 35700, Note_on_c, 4, 58, 81
6, 35760, Note_on_c, 4, 58, 0
6, 35760, Note_on_c, 4, 79, 0
6, 35760, Note_on_c, 4, 79, 72
6, 35760, Note_on_c, 4, 63, 74
6, 35790, Note_on_c, 4, 79, 0
6, 35820, Note_on_c, 4, 63, 0
6, 35820, Note_on_c, 4, 79, 69
6, 35820, Note_on_c, 4, 62, 74
6, 35880, Note_on_c, 4, 62, 0
6, 35880, Note_on_c, 4, 79, 0
6, 35880, Note_on_c, 4, 77, 76
6, 35880, Note_on_c, 4, 58, 73
6, 35940, Note_on_c, 4, 58, 0
6, 35940, Note_on_c, 4, 77, 0
6, 35940, Note_on_c, 4, 62, 72
6, 35940, Note_on_c, 4, 70, 80
6, 35970, Note_on_c, 4, 70, 0
6, 36000, Note_on_c, 4, 62, 0
6, 36000, Note_on_c, 4, 70, 86
6, 36000, Note_on_c, 4, 63, 73
6, 36060, Note_on_c, 4, 63, 0
6, 36060, Note_on_c, 4, 70, 0
6, 36060, Note_on_c, 4, 79, 70
6, 36060, Note_on_c, 4, 58, 74
6, 36120, Note_on_c, 4, 58, 0
6, 36120, Note_on_c, 4, 79, 0
6, 36120, Note_on_c, 4, 79, 65
6, 36120, Note_on_c, 4, 63, 74
6, 36150, Note_on_c, 4, 79, 0
6, 36180, Note_on_c, 4, 63, 0
6, 36180, Note_on_c, 4, 79, 71
6, 36180, Note_on_c, 4, 62, 61
6, 36240, Note_on_c, 4, 62, 0
6, 36240, Note_on_c, 4, 79, 0
6, 36240, Note_on_c, 4, 77, 78
6, 36240, Note_on_c, 4, 57, 89
6, 36300, Note_on_c, 4, 57, 0
6, 36300, Note_on_c, 4, 77, 0
6, 36300, Note_on_c, 4, 59, 81
6, 36300, Note_on_c, 4, 77, 74
6, 36330, Note_on_c, 4, 77, 0
6, 36360, Note_on_c, 4, 59, 0
6, 36360, Note_on_c, 4, 77, 70
6, 36360, Note_on_c, 4, 60, 76
6, 36420, Note_on_c, 4, 60, 0
6, 36420, Note_on_c, 4, 77, 0
6, 36420, Note_on_c, 4, 76, 76
6, 36420, Note_on_c, 4, 55, 76
6, 36480, Note_on_c, 4, 55, 0
6, 36480, Note_on_c, 4, 76, 0
6, 36480, Note_on_c, 4, 75, 76
6, 36480, Note_on_c, 4, 57, 89
6, 36510, Note_on_c, 4, 75, 0
6, 36540, Note_on_c, 4, 57, 0
6, 36540, Note_on_c, 4, 75, 84
6, 36540, Note_on_c, 4, 58, 84
6, 36600, Note_on_c, 4, 58, 0
6, 36600, Note_on_c, 4, 75, 0
6, 36600, Note_on_c, 4, 74, 86
6, 36600, Note_on_c, 4, 55, 84
6, 36660, Note_on_c, 4, 55, 0
6, 36660, Note_on_c, 4, 74, 0
6, 36660, Note_on_c, 4, 52, 84
6, 36660, Note_on_c, 4, 73, 72
6, 36660, Note_on_c, 4, 70, 72
6, 36690, Note_on_c, 4, 70, 0
6, 36690, Note_on_c, 4, 73, 0
6, 36720, Note_on_c, 4, 52, 0
6, 36720, Note_on_c, 4, 72, 80
6, 36720, Note_on_c, 4, 69, 84
6, 36720, Note_on_c, 4, 53, 81
6, 36750, Note_on_c, 4, 69, 0
6, 36750, Note_on_c, 4, 72, 0
6, 36780, Note_on_c, 4, 70, 73
6, 36780, Note_on_c, 4, 67, 71
6, 36810, Note_on_c, 4, 67, 0
6, 36810, Note_on_c, 4, 70, 0
6, 36840, Note_on_c, 4, 53, 0
6, 36840, Note_on_c, 4, 69, 78
6, 36840, Note_on_c, 4, 65, 80
6, 36870, Note_on_c, 4, 65, 0
6, 36870, Note_on_c, 4, 69, 0
6, 36900, Note_on_c, 4, 67, 63
6, 36900, Note_on_c, 4, 63, 68
6, 36930, Note_on_c, 4, 63, 0
6, 36930, Note_on_c, 4, 67, 0
6, 36960, Note_on_c, 4, 65, 80
6, 36960, Note_on_c, 4, 62, 72
6, 36990, Note_on_c, 4, 62, 0
6, 36990, Note_on_c, 4, 65, 0
6, 37020, Note_on_c, 4, 63, 76
6, 37020, Note_on_c, 4, 60, 84
6, 37050, Note_on_c, 4, 60, 0
6, 37050, Note_on_c, 4, 63, 0
6, 37080, Note_on_c, 4, 62, 85
6, 37080, Note_on_c, 4, 58, 82
6, 37200, Note_on_c, 4, 58, 0
6, 37200, Note_on_c, 4, 62, 0
6, 45000, Note_on_c, 4, 67, 94
6, 45000, Note_on_c, 4, 43, 90
6, 45030, Note_on_c, 4, 43, 0
6, 45030, Note_on_c, 4, 67, 0
6, 45060, Note_on_c, 4, 70, 117
6, 45120, Note_on_c, 4, 55, 80
6, 45150, Note_on_c, 4, 55, 0
6, 45180, Note_on_c, 4, 50, 95
6, 45210, Note_on_c, 4, 50, 0
6, 45240, Note_on_c, 4, 70, 0
6, 45240, Note_on_c, 4, 74, 119
6, 45300, Note_on_c, 4, 62, 84
6, 45330, Note_on_c, 4, 62, 0
6, 45360, Note_on_c, 4, 46, 95
6, 45390, Note_on_c, 4, 46, 0
6, 45420, Note_on_c, 4, 74, 0
6, 45420, Note_on_c, 4, 79, 112
6, 45480, Note_on_c, 4, 58, 74
6, 45510, Note_on_c, 4, 58, 0
6, 45540, Note_on_c, 4, 43, 93
6, 45570, Note_on_c, 4, 43, 0
6, 45600, Note_on_c, 4, 79, 0
6, 45600, Note_on_c, 4, 82, 117
6, 45660, Note_on_c, 4, 55, 73
6, 45690, Note_on_c, 4, 55, 0
6, 45705, Note_on_c, 4, 82, 80
6, 45720, Note_on_c, 4, 82, 0
6, 45720, Note_on_c, 4, 82, 0
6, 45720, Note_on_c, 4, 81, 82
6, 45720, Note_on_c, 4, 38, 84
6, 45750, Note_on_c, 4, 38, 0
6, 45780, Note_on_c, 4, 81, 0
6, 45780, Note_on_c, 4, 79, 89
6, 45840, Note_on_c, 4, 79, 0
6, 45840, Note_on_c, 4, 78, 77
6, 45840, Note_on_c, 4, 50, 80
6, 45870, Note_on_c, 4, 50, 0
6, 45870, Note_on_c, 4, 78, 0
6, 45900, Note_on_c, 4, 79, 86
6, 45900, Note_on_c, 4, 43, 85
6, 45930, Note_on_c, 4, 43, 0
6, 45960, Note_on_c, 4, 79, 0
6, 46020, Note_on_c, 4, 82, 70
6, 46020, Note_on_c, 4, 55, 73
6, 46050, Note_on_c, 4, 55, 0
6, 46050, Note_on_c, 4, 82, 0
6, 46065, Note_on_c, 4, 82, 77
6, 46080, Note_on_c, 4, 82, 0
6, 46080, Note_on_c, 4, 81, 77
6, 46080, Note_on_c, 4, 50, 95
6, 46110, Note_on_c, 4, 50, 0
6, 46140, Note_on_c, 4, 81, 0
6, 46140, Note_on_c, 4, 79, 81
6, 46200, Note_on_c, 4, 79, 0
6, 46200, Note_on_c, 4, 78, 72
6, 46200, Note_on_c, 4, 62, 77
6, 46230, Note_on_c, 4, 62, 0
6, 46230, Note_on_c, 4, 78, 0
6, 46260, Note_on_c, 4, 79, 85
6, 46260, Note_on_c, 4, 55, 84
6, 46290, Note_on_c, 4, 55, 0
6, 46290, Note_on_c, 4, 79, 0
6, 46380, Note_on_c, 4, 82, 68
6, 46380, Note_on_c, 4, 67, 68
6, 46410, Note_on_c, 4, 67, 0
6, 46410, Note_on_c, 4, 82, 0
6, 46425, Note_on_c, 4, 82, 78
6, 46440, Note_on_c, 4, 82, 0
6, 46440, Note_on_c, 4, 81, 76
6, 46440, Note_on_c, 4, 57, 99
6, 46470, Note_on_c, 4, 57, 0
6, 46500, Note_on_c, 4, 81, 0
6, 46500, Note_on_c, 4, 79, 90
6, 46560, Note_on_c, 4, 79, 0
6, 46560, Note_on_c, 4, 77, 78
6, 46560, Note_on_c, 4, 69, 74
6, 46590, Note_on_c, 4, 69, 0
6, 46590, Note_on_c, 4, 77, 0
6, 46605, Note_on_c, 4, 77, 76
6, 46620, Note_on_c, 4, 77, 0
6, 46620, Note_on_c, 4, 76, 86
6, 46620, Note_on_c, 4, 45, 89
6, 46650, Note_on_c, 4, 45, 0
6, 46650, Note_on_c, 4, 76, 0
6, 46680, Note_on_c, 4, 74, 94
6, 46710, Note_on_c, 4, 74, 0
6, 46740, Note_on_c, 4, 76, 52
6, 46740, Note_on_c, 4, 57, 78
6, 46770, Note_on_c, 4, 57, 0
6, 46770, Note_on_c, 4, 76, 0
6, 46800, Note_on_c, 4, 74, 89
6, 46800, Note_on_c, 4, 50, 85
6, 46830, Note_on_c, 4, 50, 0
6, 46920, Note_on_c, 4, 74, 0
6, 46920, Note_on_c, 4, 62, 77
6, 46950, Note_on_c, 4, 62, 0
6, 46965, Note_on_c, 4, 77, 74
6, 46980, Note_on_c, 4, 77, 0
6, 46980, Note_on_c, 4, 76, 89
6, 46980, Note_on_c, 4, 45, 89
6, 47010, Note_on_c, 4, 45, 0
6, 47010, Note_on_c, 4, 76, 0
6, 47040, Note_on_c, 4, 74, 93
6, 47070, Note_on_c, 4, 74, 0
6, 47100, Note_on_c, 4, 76, 84
6, 47100, Note_on_c, 4, 57, 80
6, 47130, Note_on_c, 4, 57, 0
6, 47130, Note_on_c, 4, 76, 0
6, 47160, Note_on_c, 4, 74, 90
6, 47160, Note_on_c, 4, 50, 89
6, 47190, Note_on_c, 4, 50, 0
6, 47280, Note_on_c, 4, 74, 0
6, 47280, Note_on_c, 4, 62, 73
6, 47310, Note_on_c, 4, 62, 0
6, 47340, Note_on_c, 4, 85, 95
6, 47340, Note_on_c, 4, 45, 94
6, 47360, Note_on_c, 4, 85, 0
6, 47360, Note_on_c, 4, 86, 105
6, 47370, Note_on_c, 4, 45, 0
6, 47380, Note_on_c, 4, 86, 0
6, 47380, Note_on_c, 4, 85, 95
6, 47400, Note_on_c, 4, 85, 0
6, 47400, Note_on_c, 4, 86, 105
6, 47415, Note_on_c, 4, 86, 0
6, 47415, Note_on_c, 4, 85, 94
6, 47430, Note_on_c, 4, 85, 0
6, 47430, Note_on_c, 4, 86, 110
6, 47445, Note_on_c, 4, 86, 0
6, 47445, Note_on_c, 4, 85, 99
6, 47460, Note_on_c, 4, 85, 0
6, 47460, Note_on_c, 4, 83, 99
6, 47460, Note_on_c, 4, 57, 76
6, 47490, Note_on_c, 4, 57, 0
6, 47490, Note_on_c, 4, 83, 0
6, 47490, Note_on_c, 4, 85, 95
6, 47520, Note_on_c, 4, 85, 0
6, 47520, Note_on_c, 4, 86, 94
6, 47520, Note_on_c, 4, 50, 95
6, 47640, Note_on_c, 4, 50, 0
6, 47640, Note_on_c, 4, 86, 0
6, 48960, Note_on_c, 4, 72, 86
6, 48960, Note_on_c, 4, 48, 94
6, 48990, Note_on_c, 4, 48, 0
6, 48990, Note_on_c, 4, 72, 0
6, 49020, Note_on_c, 4, 75, 115
6, 49080, Note_on_c, 4, 60, 67
6, 49110, Note_on_c, 4, 60, 0
6, 49140, Note_on_c, 4, 55, 86
6, 49170, Note_on_c, 4, 55, 0
6, 49200, Note_on_c, 4, 75, 0
6, 49200, Note_on_c, 4, 79, 105
6, 49260, Note_on_c, 4, 67, 81
6, 49290, Note_on_c, 4, 67, 0
6, 49320, Note_on_c, 4, 51, 94
6, 49350, Note_on_c, 4, 51, 0
6, 49380, Note_on_c, 4, 79, 0
6, 49380, Note_on_c, 4, 84, 110
6, 49440, Note_on_c, 4, 63, 76
6, 49470, Note_on_c, 4, 63, 0
6, 49500, Note_on_c, 4, 48, 95
6, 49530, Note_on_c, 4, 48, 0
6, 49560, Note_on_c, 4, 84, 0
6, 49560, Note_on_c, 4, 87, 115
6, 49620, Note_on_c, 4, 60, 78
6, 49650, Note_on_c, 4, 60, 0
6, 49665, Note_on_c, 4, 87, 95
6, 49680, Note_on_c, 4, 87, 0
6, 49680, Note_on_c, 4, 87, 0
6, 49680, Note_on_c, 4, 86, 95
6, 49680, Note_on_c, 4, 43, 94
6, 49710, Note_on_c, 4, 43, 0
6, 49740, Note_on_c, 4, 86, 0
6, 49740, Note_on_c, 4, 84, 93
6, 49800, Note_on_c, 4, 84, 0
6, 49800, Note_on_c, 4, 83, 99
6, 49800, Note_on_c, 4, 55, 82
6, 49830, Note_on_c, 4, 55, 0
6, 49830, Note_on_c, 4, 83, 0
6, 49860, Note_on_c, 4, 84, 95
6, 49860, Note_on_c, 4, 48, 99
6, 49890, Note_on_c, 4, 48, 0
6, 49920, Note_on_c, 4, 84, 0
6, 49980, Note_on_c, 4, 87, 99
6, 49980, Note_on_c, 4, 60, 89
6, 50010, Note_on_c, 4, 60, 0
6, 50010, Note_on_c, 4, 87, 0
6, 50025, Note_on_c, 4, 87, 104
6, 50040, Note_on_c, 4, 87, 0
6, 50040, Note_on_c, 4, 86, 95
6, 50040, Note_on_c, 4, 55, 95
6, 50070, Note_on_c, 4, 55, 0
6, 50100, Note_on_c, 4, 86, 0
6, 50100, Note_on_c, 4, 84, 93
6, 50160, Note_on_c, 4, 84, 0
6, 50160, Note_on_c, 4, 83, 98
6, 50160, Note_on_c, 4, 67, 81
6, 50190, Note_on_c, 4, 67, 0
6, 50190, Note_on_c, 4, 83, 0
6, 50220, Note_on_c, 4, 84, 95
6, 50220, Note_on_c, 4, 60, 99
6, 50250, Note_on_c, 4, 60, 0
6, 50250, Note_on_c, 4, 84, 0
6, 50340, Note_on_c, 4, 87, 95
6, 50340, Note_on_c, 4, 72, 63
6, 50370, Note_on_c, 4, 72, 0
6, 50400, Note_on_c, 4, 53, 90
6, 50430, Note_on_c, 4, 53, 0
6, 50460, Note_on_c, 4, 87, 0
6, 50460, Note_on_c, 4, 86, 101
6, 50520, Note_on_c, 4, 86, 0
6, 50520, Note_on_c, 4, 89, 84
6, 50520, Note_on_c, 4, 65, 89
6, 50550, Note_on_c, 4, 65, 0
6, 50580, Note_on_c, 4, 55, 95
6, 50610, Note_on_c, 4, 55, 0
6, 50640, Note_on_c, 4, 89, 0
6, 50640, Note_on_c, 4, 83, 98
6, 50700, Note_on_c, 4, 83, 0
6, 50700, Note_on_c, 4, 86, 105
6, 50700, Note_on_c, 4, 67, 82
6, 50730, Note_on_c, 4, 67, 0
6, 50760, Note_on_c, 4, 51, 99
6, 50790, Note_on_c, 4, 51, 0
6, 50820, Note_on_c, 4, 86, 0
6, 50820, Note_on_c, 4, 83, 94
6, 50880, Note_on_c, 4, 83, 0
6, 50880, Note_on_c, 4, 84, 94
6, 50880, Note_on_c, 4, 63, 84
6, 50910, Note_on_c, 4, 63, 0
6, 50940, Note_on_c, 4, 56, 90
6, 50970, Note_on_c, 4, 56, 0
6, 50970, Note_on_c, 4, 84, 0
6, 51000, Note_on_c, 4, 84, 94
6, 51030, Note_on_c, 4, 84, 0
6, 51060, Note_on_c, 4, 87, 99
6, 51060, Note_on_c, 4, 68, 85
6, 51090, Note_on_c, 4, 68, 0
6, 51120, Note_on_c, 4, 53, 94
6, 51150, Note_on_c, 4, 53, 0
6, 51180, Note_on_c, 4, 87, 0
6, 51180, Note_on_c, 4, 86, 101
6, 51240, Note_on_c, 4, 86, 0
6, 51240, Note_on_c, 4, 89, 101
6, 51240, Note_on_c, 4, 65, 89
6, 51270, Note_on_c, 4, 65, 0
6, 51300, Note_on_c, 4, 55, 99
6, 51330, Note_on_c, 4, 55, 0
6, 51360, Note_on_c, 4, 89, 0
6, 51360, Note_on_c, 4, 83, 99
6, 51420, Note_on_c, 4, 83, 0
6, 51420, Note_on_c, 4, 86, 93
6, 51420, Note_on_c, 4, 67, 82
6, 51450, Note_on_c, 4, 67, 0
6, 51480, Note_on_c, 4, 86, 0
6, 51480, Note_on_c, 4, 84, 94
6, 51480, Note_on_c, 4, 60, 84
6, 51480, Note_on_c, 4, 48, 94
6, 51600, Note_on_c, 4, 48, 0
6, 51600, Note_on_c, 4, 60, 0
6, 51600, Note_on_c, 4, 84, 0
6, 52920, Note_on_c, 4, 70, 85
6, 52920, Note_on_c, 4, 46, 84
6, 52950, Note_on_c, 4, 46, 0
6, 52950, Note_on_c, 4, 70, 0
6, 52980, Note_on_c, 4, 73, 107
6, 53040, Note_on_c, 4, 58, 70
6, 53070, Note_on_c, 4, 58, 0
6, 53100, Note_on_c, 4, 53, 80
6, 53130, Note_on_c, 4, 53, 0
6, 53160, Note_on_c, 4, 73, 0
6, 53160, Note_on_c, 4, 77, 104
6, 53220, Note_on_c, 4, 65, 78
6, 53250, Note_on_c, 4, 65, 0
6, 53280, Note_on_c, 4, 49, 93
6, 53310, Note_on_c, 4, 49, 0
6, 53340, Note_on_c, 4, 77, 0
6, 53340, Note_on_c, 4, 82, 107
6, 53400, Note_on_c, 4, 61, 66
6, 53430, Note_on_c, 4, 61, 0
6, 53460, Note_on_c, 4, 46, 90
6, 53490, Note_on_c, 4, 46, 0
6, 53520, Note_on_c, 4, 82, 0
6, 53520, Note_on_c, 4, 85, 105
6, 53580, Note_on_c, 4, 58, 69
6, 53610, Note_on_c, 4, 58, 0
6, 53610, Note_on_c, 4, 85, 0
6, 53625, Note_on_c, 4, 85, 72
6, 53640, Note_on_c, 4, 85, 0
6, 53640, Note_on_c, 4, 84, 59
6, 53640, Note_on_c, 4, 41, 82
6, 53670, Note_on_c, 4, 41, 0
6, 53670, Note_on_c, 4, 84, 0
6, 53700, Note_on_c, 4, 82, 67
6, 53730, Note_on_c, 4, 82, 0
6, 53760, Note_on_c, 4, 81, 82
6, 53760, Note_on_c, 4, 53, 71
6, 53790, Note_on_c, 4, 53, 0
6, 53790, Note_on_c, 4, 81, 0
6, 53820, Note_on_c, 4, 82, 76
6, 53820, Note_on_c, 4, 46, 85
6, 53850, Note_on_c, 4, 46, 0
6, 53940, Note_on_c, 4, 82, 0
6, 53940, Note_on_c, 4, 85, 74
6, 53940, Note_on_c, 4, 58, 67
6, 53970, Note_on_c, 4, 58, 0
6, 53970, Note_on_c, 4, 85, 0
6, 53985, Note_on_c, 4, 85, 84
6, 54000, Note_on_c, 4, 85, 0
6, 54000, Note_on_c, 4, 84, 67
6, 54000, Note_on_c, 4, 53, 80
6, 54030, Note_on_c, 4, 53, 0
6, 54030, Note_on_c, 4, 84, 0
6, 54060, Note_on_c, 4, 82, 64
6, 54090, Note_on_c, 4, 82, 0
6, 54120, Note_on_c, 4, 81, 71
6, 54120, Note_on_c, 4, 65, 76
6, 54150, Note_on_c, 4, 65, 0
6, 54150, Note_on_c, 4, 81, 0
6, 54180, Note_on_c, 4, 82, 68
6, 54180, Note_on_c, 4, 46, 86
6, 54210, Note_on_c, 4, 46, 0
6, 54240, Note_on_c, 4, 82, 0
6, 54300, Note_on_c, 4, 70, 72
6, 54300, Note_on_c, 4, 73, 61
6, 54300, Note_on_c, 4, 58, 69
6, 54330, Note_on_c, 4, 58, 0
6, 54360, Note_on_c, 4, 46, 86
6, 54390, Note_on_c, 4, 46, 0
6, 54420, Note_on_c, 4, 73, 0
6, 54420, Note_on_c, 4, 70, 0
6, 54420, Note_on_c, 4, 77, 78
6, 54420, Note_on_c, 4, 73, 95
6, 54480, Note_on_c, 4, 58, 73
6, 54510, Note_on_c, 4, 58, 0
6, 54540, Note_on_c, 4, 53, 81
6, 54570, Note_on_c, 4, 53, 0
6, 54600, Note_on_c, 4, 73, 0
6, 54600, Note_on_c, 4, 77, 0
6, 54600, Note_on_c, 4, 77, 90
6, 54600, Note_on_c, 4, 82, 104
6, 54660, Note_on_c, 4, 65, 76
6, 54690, Note_on_c, 4, 65, 0
6, 54720, Note_on_c, 4, 49, 84
6, 54750, Note_on_c, 4, 49, 0
6, 54780, Note_on_c, 4, 82, 0
6, 54780, Note_on_c, 4, 77, 0
6, 54780, Note_on_c, 4, 85, 112
6, 54780, Note_on_c, 4, 82, 110
6, 54840, Note_on_c, 4, 61, 67
6, 54870, Note_on_c, 4, 61, 0
6, 54900, Note_on_c, 4, 46, 93
6, 54930, Note_on_c, 4, 46, 0
6, 54960, Note_on_c, 4, 82, 0
6, 54960, Note_on_c, 4, 85, 0
6, 54960, Note_on_c, 4, 89, 110
6, 54960, Note_on_c, 4, 85, 112
6, 55020, Note_on_c, 4, 58, 66
6, 55050, Note_on_c, 4, 58, 0
6, 55050, Note_on_c, 4, 85, 0
6, 55050, Note_on_c, 4, 89, 0
6, 55065, Note_on_c, 4, 85, 76
6, 55065, Note_on_c, 4, 89, 82
6, 55080, Note_on_c, 4, 89, 0
6, 55080, Note_on_c, 4, 85, 0
6, 55080, Note_on_c, 4, 87, 85
6, 55080, Note_on_c, 4, 84, 76
6, 55080, Note_on_c, 4, 41, 69
6, 55110, Note_on_c, 4, 41, 0
6, 55110, Note_on_c, 4, 84, 0
6, 55110, Note_on_c, 4, 87, 0
6, 55140, Note_on_c, 4, 85, 63
6, 55140, Note_on_c, 4, 82, 73
6, 55170, Note_on_c, 4, 82, 0
6, 55170, Note_on_c, 4, 85, 0
6, 55200, Note_on_c, 4, 84, 70
6, 55200, Note_on_c, 4, 81, 76
6, 55200, Note_on_c, 4, 53, 67
6, 55230, Note_on_c, 4, 53, 0
6, 55230, Note_on_c, 4, 81, 0
6, 55230, Note_on_c, 4, 84, 0
6, 55260, Note_on_c, 4, 85, 69
6, 55260, Note_on_c, 4, 82, 78
6, 55260, Note_on_c, 4, 46, 93
6, 55290, Note_on_c, 4, 46, 0
6, 55380, Note_on_c, 4, 82, 0
6, 55380, Note_on_c, 4, 85, 0
6, 55380, Note_on_c, 4, 89, 73
6, 55380, Note_on_c, 4, 85, 76
6, 55380, Note_on_c, 4, 58, 71
6, 55410, Note_on_c, 4, 58, 0
6, 55410, Note_on_c, 4, 85, 0
6, 55410, Note_on_c, 4, 89, 0
6, 55425, Note_on_c, 4, 85, 80
6, 55425, Note_on_c, 4, 89, 73
6, 55440, Note_on_c, 4, 89, 0
6, 55440, Note_on_c, 4, 85, 0
6, 55440, Note_on_c, 4, 87, 85
6, 55440, Note_on_c, 4, 84, 73
6, 55440, Note_on_c, 4, 53, 77
6, 55470, Note_on_c, 4, 53, 0
6, 55470, Note_on_c, 4, 84, 0
6, 55470, Note_on_c, 4, 87, 0
6, 55500, Note_on_c, 4, 85, 73
6, 55500, Note_on_c, 4, 82, 73
6, 55530, Note_on_c, 4, 82, 0
6, 55530, Note_on_c, 4, 85, 0
6, 55560, Note_on_c, 4, 84, 57
6, 55560, Note_on_c, 4, 81, 72
6, 55560, Note_on_c, 4, 65, 84
6, 55590, Note_on_c, 4, 65, 0
6, 55590, Note_on_c, 4, 81, 0
6, 55590, Note_on_c, 4, 84, 0
6, 55620, Note_on_c, 4, 85, 76
6, 55620, Note_on_c, 4, 82, 72
6, 55620, Note_on_c, 4, 58, 76
6, 55650, Note_on_c, 4, 58, 0
6, 55740, Note_on_c, 4, 82, 0
6, 55740, Note_on_c, 4, 85, 0
6, 55740, Note_on_c, 4, 89, 72
6, 55740, Note_on_c, 4, 85, 72
6, 55740, Note_on_c, 4, 70, 72
6, 55770, Note_on_c, 4, 70, 0
6, 55770, Note_on_c, 4, 85, 0
6, 55770, Note_on_c, 4, 89, 0
6, 55785, Note_on_c, 4, 85, 74
6, 55785, Note_on_c, 4, 89, 70
6, 55800, Note_on_c, 4, 89, 0
6, 55800, Note_on_c, 4, 85, 0
6, 55800, Note_on_c, 4, 87, 80
6, 55800, Note_on_c, 4, 84, 74
6, 55830, Note_on_c, 4, 84, 0
6, 55830, Note_on_c, 4, 87, 0
6, 55860, Note_on_c, 4, 85, 68
6, 55860, Note_on_c, 4, 82, 73
6, 55890, Note_on_c, 4, 82, 0
6, 55890, Note_on_c, 4, 85, 0
6, 55920, Note_on_c, 4, 87, 74
6, 55920, Note_on_c, 4, 84, 76
6, 55950, Note_on_c, 4, 84, 0
6, 55950, Note_on_c, 4, 87, 0
6, 55965, Note_on_c, 4, 85, 70
6, 55965, Note_on_c, 4, 82, 65
6, 55980, Note_on_c, 4, 82, 0
6, 55980, Note_on_c, 4, 85, 0
6, 55980, Note_on_c, 4, 84, 72
6, 55980, Note_on_c, 4, 81, 78
6, 56010, Note_on_c, 4, 81, 0
6, 56010, Note_on_c, 4, 84, 0
6, 56040, Note_on_c, 4, 82, 77
6, 56040, Note_on_c, 4, 79, 77
6, 56070, Note_on_c, 4, 79, 0
6, 56070, Note_on_c, 4, 82, 0
6, 56100, Note_on_c, 4, 84, 73
6, 56100, Note_on_c, 4, 81, 74
6, 56130, Note_on_c, 4, 81, 0
6, 56130, Note_on_c, 4, 84, 0
6, 56160, Note_on_c, 4, 82, 84
6, 56160, Note_on_c, 4, 58, 78
6, 56190, Note_on_c, 4, 58, 0
6, 56220, Note_on_c, 4, 61, 84
6, 56250, Note_on_c, 4, 61, 0
6, 56250, Note_on_c, 4, 65, 74
6, 56280, Note_on_c, 4, 65, 0
6, 56280, Note_on_c, 4, 82, 0
6, 56280, Note_on_c, 4, 70, 80
6, 56310, Note_on_c, 4, 70, 0
6, 56340, Note_on_c, 4, 86, 89
6, 56340, Note_on_c, 4, 65, 84
6, 56360, Note_on_c, 4, 86, 0
6, 56360, Note_on_c, 4, 87, 89
6, 56370, Note_on_c, 4, 65, 0
6, 56380, Note_on_c, 4, 87, 0
6, 56380, Note_on_c, 4, 86, 90
6, 56400, Note_on_c, 4, 86, 0
6, 56400, Note_on_c, 4, 87, 86
6, 56400, Note_on_c, 4, 70, 69
6, 56415, Note_on_c, 4, 87, 0
6, 56415, Note_on_c, 4, 86, 94
6, 56430, Note_on_c, 4, 86, 0
6, 56430, Note_on_c, 4, 70, 0
6, 56430, Note_on_c, 4, 87, 86
6, 56445, Note_on_c, 4, 87, 0
6, 56445, Note_on_c, 4, 86, 94
6, 56460, Note_on_c, 4, 86, 0
6, 56460, Note_on_c, 4, 84, 84
6, 56460, Note_on_c, 4, 68, 86
6, 56490, Note_on_c, 4, 68, 0
6, 56490, Note_on_c, 4, 84, 0
6, 56490, Note_on_c, 4, 86, 86
6, 56520, Note_on_c, 4, 86, 0
6, 56520, Note_on_c, 4, 87, 84
6, 56520, Note_on_c, 4, 66, 76
6, 56550, Note_on_c, 4, 66, 0
6, 56580, Note_on_c, 4, 65, 84
6, 56610, Note_on_c, 4, 65, 0
6, 56640, Note_on_c, 4, 87, 0
6, 56640, Note_on_c, 4, 63, 81
6, 56670, Note_on_c, 4, 63, 0
6, 56700, Note_on_c, 4, 84, 74
6, 56700, Note_on_c, 4, 53, 86
6, 56720, Note_on_c, 4, 84, 0
6, 56720, Note_on_c, 4, 85, 78
6, 56730, Note_on_c, 4, 53, 0
6, 56740, Note_on_c, 4, 85, 0
6, 56740, Note_on_c, 4, 84, 73
6, 56760, Note_on_c, 4, 84, 0
6, 56760, Note_on_c, 4, 85, 76
6, 56760, Note_on_c, 4, 65, 72
6, 56775, Note_on_c, 4, 85, 0
6, 56775, Note_on_c, 4, 84, 69
6, 56790, Note_on_c, 4, 84, 0
6, 56790, Note_on_c, 4, 65, 0
6, 56790, Note_on_c, 4, 85, 81
6, 56805, Note_on_c, 4, 85, 0
6, 56805, Note_on_c, 4, 84, 73
6, 56820, Note_on_c, 4, 84, 0
6, 56820, Note_on_c, 4, 82, 76
6, 56820, Note_on_c, 4, 63, 80
6, 56850, Note_on_c, 4, 63, 0
6, 56850, Note_on_c, 4, 82, 0
6, 56850, Note_on_c, 4, 84, 81
6, 56880, Note_on_c, 4, 84, 0
6, 56880, Note_on_c, 4, 82, 77
6, 56880, Note_on_c, 4, 61, 80
6, 56910, Note_on_c, 4, 61, 0
6, 56940, Note_on_c, 4, 60, 85
6, 56970, Note_on_c, 4, 60, 0
6, 57000, Note_on_c, 4, 82, 0
6, 57000, Note_on_c, 4, 58, 81
6, 57030, Note_on_c, 4, 58, 0
6, 57060, Note_on_c, 4, 74, 94
6, 57060, Note_on_c, 4, 53, 77
6, 57080, Note_on_c, 4, 74, 0
6, 57080, Note_on_c, 4, 75, 89
6, 57090, Note_on_c, 4, 53, 0
6, 57100, Note_on_c, 4, 75, 0
6, 57100, Note_on_c, 4, 74, 86
6, 57120, Note_on_c, 4, 74, 0
6, 57120, Note_on_c, 4, 75, 93
6, 57120, Note_on_c, 4, 58, 81
6, 57135, Note_on_c, 4, 75, 0
6, 57135, Note_on_c, 4, 74, 86
6, 57150, Note_on_c, 4, 74, 0
6, 57150, Note_on_c, 4, 58, 0
6, 57150, Note_on_c, 4, 75, 94
6, 57165, Note_on_c, 4, 75, 0
6, 57165, Note_on_c, 4, 74, 94
6, 57180, Note_on_c, 4, 74, 0
6, 57180, Note_on_c, 4, 75, 95
6, 57180, Note_on_c, 4, 56, 90
6, 57200, Note_on_c, 4, 75, 0
6, 57200, Note_on_c, 4, 74, 99
6, 57210, Note_on_c, 4, 56, 0
6, 57220, Note_on_c, 4, 74, 0
6, 57220, Note_on_c, 4, 75, 95
6, 57240, Note_on_c, 4, 75, 0
6, 57240, Note_on_c, 4, 75, 94
6, 57240, Note_on_c, 4, 55, 98
6, 57260, Note_on_c, 4, 75, 0
6, 57260, Note_on_c, 4, 77, 84
6, 57270, Note_on_c, 4, 55, 0
6, 57280, Note_on_c, 4, 77, 0
6, 57280, Note_on_c, 4, 75, 95
6, 57300, Note_on_c, 4, 75, 0
6, 57300, Note_on_c, 4, 77, 84
6, 57300, Note_on_c, 4, 58, 86
6, 57315, Note_on_c, 4, 77, 0
6, 57315, Note_on_c, 4, 75, 95
6, 57330, Note_on_c, 4, 75, 0
6, 57330, Note_on_c, 4, 58, 0
6, 57330, Note_on_c, 4, 77, 86
6, 57345, Note_on_c, 4, 77, 0
6, 57345, Note_on_c, 4, 75, 90
6, 57360, Note_on_c, 4, 75, 0
6, 57360, Note_on_c, 4, 77, 84
6, 57360, Note_on_c, 4, 55, 90
6, 57380, Note_on_c, 4, 77, 0
6, 57380, Note_on_c, 4, 75, 94
6, 57390, Note_on_c, 4, 55, 0
6, 57400, Note_on_c, 4, 75, 0
6, 57400, Note_on_c, 4, 77, 89
6, 57420, Note_on_c, 4, 77, 0
6, 57420, Note_on_c, 4, 76, 104
6, 57420, Note_on_c, 4, 54, 86
6, 57440, Note_on_c, 4, 76, 0
6, 57440, Note_on_c, 4, 77, 89
6, 57450, Note_on_c, 4, 54, 0
6, 57460, Note_on_c, 4, 77, 0
6, 57460, Note_on_c, 4, 76, 99
6, 57480, Note_on_c, 4, 76, 0
6, 57480, Note_on_c, 4, 77, 89
6, 57480, Note_on_c, 4, 58, 94
6, 57495, Note_on_c, 4, 77, 0
6, 57495, Note_on_c, 4, 76, 99
6, 57510, Note_on_c, 4, 76, 0
6, 57510, Note_on_c, 4, 58, 0
6, 57510, Note_on_c, 4, 77, 89
6, 57525, Note_on_c, 4, 77, 0
6, 57525, Note_on_c, 4, 76, 104
6, 57540, Note_on_c, 4, 76, 0
6, 57540, Note_on_c, 4, 77, 90
6, 57540, Note_on_c, 4, 54, 94
6, 57560, Note_on_c, 4, 77, 0
6, 57560, Note_on_c, 4, 76, 99
6, 57570, Note_on_c, 4, 54, 0
6, 57580, Note_on_c, 4, 76, 0
6, 57580, Note_on_c, 4, 77, 93
6, 57600, Note_on_c, 4, 77, 0
6, 57600, Note_on_c, 4, 77, 104
6, 57600, Note_on_c, 4, 53, 95
6, 57720, Note_on_c, 4, 53, 0
6, 57720, Note_on_c, 4, 77, 0
6, 58140, Note_on_c, 4, 82, 82
6, 58140, Note_on_c, 4, 70, 89
6, 58170, Note_on_c, 4, 70, 0
6, 58170, Note_on_c, 4, 82, 0
6, 58170, Note_on_c, 4, 81, 81
6, 58170, Note_on_c, 4, 69, 93
6, 58200, Note_on_c, 4, 69, 0
6, 58200, Note_on_c, 4, 81, 0
6, 58200, Note_on_c, 4, 82, 82
6, 58200, Note_on_c, 4, 70, 84
6, 58230, Note_on_c, 4, 70, 0
6, 58230, Note_on_c, 4, 82, 0
6, 58230, Note_on_c, 4, 84, 86
6, 58230, Note_on_c, 4, 72, 70
6, 58260, Note_on_c, 4, 72, 0
6, 58260, Note_on_c, 4, 84, 0
6, 58260, Note_on_c, 4, 85, 81
6, 58260, Note_on_c, 4, 73, 85
6, 58290, Note_on_c, 4, 73, 0
6, 58290, Note_on_c, 4, 85, 0
6, 58290, Note_on_c, 4, 76, 99
6, 58290, Note_on_c, 4, 88, 89
6, 58320, Note_on_c, 4, 88, 0
6, 58320, Note_on_c, 4, 76, 0
6, 58320, Note_on_c, 4, 89, 89
6, 58320, Note_on_c, 4, 77, 93
6, 58440, Note_on_c, 4, 77, 0
6, 58440, Note_on_c, 4, 89, 0
6, 58860, Note_on_c, 4, 70, 89
6, 58860, Note_on_c, 4, 58, 85
6, 58890, Note_on_c, 4, 58, 0
6, 58890, Note_on_c, 4, 70, 0
6, 58890, Note_on_c, 4, 69, 81
6, 58890, Note_on_c, 4, 57, 99
6, 58920, Note_on_c, 4, 57, 0
6, 58920, Note_on_c, 4, 69, 0
6, 58920, Note_on_c, 4, 70, 85
6, 58920, Note_on_c, 4, 58, 84
6, 58950, Note_on_c, 4, 58, 0
6, 58950, Note_on_c, 4, 70, 0
6, 58950, Note_on_c, 4, 72, 72
6, 58950, Note_on_c, 4, 60, 90
6, 58980, Note_on_c, 4, 60, 0
6, 58980, Note_on_c, 4, 72, 0
6, 58980, Note_on_c, 4, 73, 81
6, 58980, Note_on_c, 4, 61, 82
6, 59010, Note_on_c, 4, 61, 0
6, 59010, Note_on_c, 4, 73, 0
6, 59010, Note_on_c, 4, 64, 99
6, 59010, Note_on_c, 4, 76, 89
6, 59040, Note_on_c, 4, 76, 0
6, 59040, Note_on_c, 4, 64, 0
6, 59040, Note_on_c, 4, 77, 90
6, 59040, Note_on_c, 4, 65, 84
6, 59070, Note_on_c, 4, 65, 0
6, 59100, Note_on_c, 4, 77, 0
6, 59100, Note_on_c, 4, 65, 64
6, 59160, Note_on_c, 4, 65, 0
6, 59160, Note_on_c, 4, 77, 69
6, 59220, Note_on_c, 4, 77, 0
6, 59220, Note_on_c, 4, 60, 65
6, 59280, Note_on_c, 4, 60, 0
6, 59280, Note_on_c, 4, 69, 71
6, 59340, Note_on_c, 4, 69, 0
6, 59340, Note_on_c, 4, 81, 57
6, 59400, Note_on_c, 4, 81, 0
6, 59400, Note_on_c, 4, 57, 68
6, 59460, Note_on_c, 4, 57, 0
6, 59460, Note_on_c, 4, 72, 51
6, 59520, Note_on_c, 4, 72, 0
6, 59520, Note_on_c, 4, 84, 69
6, 59580, Note_on_c, 4, 84, 0
6, 59580, Note_on_c, 4, 53, 56
6, 59640, Note_on_c, 4, 53, 0
6, 59640, Note_on_c, 4, 77, 67
6, 59700, Note_on_c, 4, 77, 0
6, 59700, Note_on_c, 4, 89, 85
6, 59760, Note_on_c, 4, 89, 0
6, 59760, Note_on_c, 4, 43, 65
6, 59820, Note_on_c, 4, 43, 0
6, 59820, Note_on_c, 4, 76, 69
6, 59880, Note_on_c, 4, 76, 0
6, 59880, Note_on_c, 4, 88, 81
6, 59940, Note_on_c, 4, 88, 0
6, 59940, Note_on_c, 4, 46, 65
6, 60000, Note_on_c, 4, 46, 0
6, 60000, Note_on_c, 4, 70, 72
6, 60060, Note_on_c, 4, 70, 0
6, 60060, Note_on_c, 4, 82, 72
6, 60120, Note_on_c, 4, 82, 0
6, 60120, Note_on_c, 4, 49, 73
6, 60180, Note_on_c, 4, 49, 0
6, 60180, Note_on_c, 4, 72, 86
6, 60240, Note_on_c, 4, 72, 0
6, 60240, Note_on_c, 4, 84, 74
6, 60300, Note_on_c, 4, 84, 0
6, 60300, Note_on_c, 4, 52, 78
6, 60360, Note_on_c, 4, 52, 0
6, 60360, Note_on_c, 4, 73, 54
6, 60420, Note_on_c, 4, 73, 0
6, 60420, Note_on_c, 4, 85, 74
6, 60480, Note_on_c, 4, 85, 0
6, 60480, Note_on_c, 4, 45, 68
6, 60540, Note_on_c, 4, 45, 0
6, 60540, Note_on_c, 4, 71, 68
6, 60600, Note_on_c, 4, 71, 0
6, 60600, Note_on_c, 4, 83, 72
6, 60660, Note_on_c, 4, 83, 0
6, 60660, Note_on_c, 4, 53, 76
6, 60720, Note_on_c, 4, 53, 0
6, 60720, Note_on_c, 4, 72, 61
6, 60780, Note_on_c, 4, 72, 0
6, 60780, Note_on_c, 4, 84, 78
6, 60840, Note_on_c, 4, 84, 0
6, 60840, Note_on_c, 4, 57, 89
6, 60900, Note_on_c, 4, 57, 0
6, 60900, Note_on_c, 4, 70, 80
6, 60960, Note_on_c, 4, 70, 0
6, 60960, Note_on_c, 4, 82, 95
6, 61020, Note_on_c, 4, 82, 0
6, 61020, Note_on_c, 4, 60, 95
6, 61080, Note_on_c, 4, 60, 0
6, 61080, Note_on_c, 4, 69, 86
6, 61140, Note_on_c, 4, 69, 0
6, 61140, Note_on_c, 4, 81, 95
6, 61200, Note_on_c, 4, 81, 0
6, 61200, Note_on_c, 4, 63, 81
6, 61260, Note_on_c, 4, 63, 0
6, 61260, Note_on_c, 4, 67, 69
6, 61320, Note_on_c, 4, 67, 0
6, 61320, Note_on_c, 4, 79, 69
6, 61380, Note_on_c, 4, 79, 0
6, 61380, Note_on_c, 4, 53, 62
6, 61440, Note_on_c, 4, 53, 0
6, 61440, Note_on_c, 4, 65, 64
6, 61500, Note_on_c, 4, 65, 0
6, 61500, Note_on_c, 4, 77, 58
6, 61560, Note_on_c, 4, 77, 0
6, 61560, Note_on_c, 4, 55, 61
6, 61620, Note_on_c, 4, 55, 0
6, 61620, Note_on_c, 4, 64, 46
6, 61680, Note_on_c, 4, 64, 0
6, 61680, Note_on_c, 4, 76, 43
6, 61740, Note_on_c, 4, 76, 0
6, 61740, Note_on_c, 4, 57, 63
6, 61800, Note_on_c, 4, 57, 0
6, 61800, Note_on_c, 4, 63, 43
6, 61860, Note_on_c, 4, 63, 0
6, 61860, Note_on_c, 4, 75, 38
6, 61920, Note_on_c, 4, 75, 0
6, 61920, Note_on_c, 4, 74, 65
6, 61920, Note_on_c, 4, 46, 80
6, 61950, Note_on_c, 4, 46, 0
6, 61950, Note_on_c, 4, 74, 0
6, 61980, Note_on_c, 4, 70, 93
6, 61980, Note_on_c, 4, 50, 93
6, 62010, Note_on_c, 4, 50, 0
6, 62040, Note_on_c, 4, 53, 69
6, 62070, Note_on_c, 4, 53, 0
6, 62100, Note_on_c, 4, 70, 0
6, 62100, Note_on_c, 4, 74, 46
6, 62100, Note_on_c, 4, 58, 80
6, 62130, Note_on_c, 4, 58, 0
6, 62130, Note_on_c, 4, 74, 0
6, 62160, Note_on_c, 4, 70, 99
6, 62160, Note_on_c, 4, 62, 71
6, 62190, Note_on_c, 4, 62, 0
6, 62220, Note_on_c, 4, 65, 67
6, 62250, Note_on_c, 4, 65, 0
6, 62265, Note_on_c, 4, 72, 81
6, 62280, Note_on_c, 4, 72, 0
6, 62280, Note_on_c, 4, 70, 0
6, 62280, Note_on_c, 4, 70, 84
6, 62280, Note_on_c, 4, 62, 71
6, 62340, Note_on_c, 4, 62, 0
6, 62340, Note_on_c, 4, 70, 0
6, 62340, Note_on_c, 4, 69, 81
6, 62340, Note_on_c, 4, 60, 76
6, 62400, Note_on_c, 4, 60, 0
6, 62400, Note_on_c, 4, 69, 0
6, 62400, Note_on_c, 4, 70, 80
6, 62400, Note_on_c, 4, 58, 67
6, 62430, Note_on_c, 4, 70, 0
6, 62460, Note_on_c, 4, 58, 0
6, 62460, Note_on_c, 4, 72, 69
6, 62460, Note_on_c, 4, 57, 84
6, 62520, Note_on_c, 4, 57, 0
6, 62520, Note_on_c, 4, 55, 78
6, 62580, Note_on_c, 4, 55, 0
6, 62580, Note_on_c, 4, 72, 0
6, 62580, Note_on_c, 4, 53, 76
6, 62640, Note_on_c, 4, 53, 0
6, 62640, Note_on_c, 4, 75, 73
6, 62640, Note_on_c, 4, 41, 71
6, 62670, Note_on_c, 4, 75, 0
6, 62700, Note_on_c, 4, 41, 0
6, 62700, Note_on_c, 4, 72, 80
6, 62700, Note_on_c, 4, 69, 105
6, 62700, Note_on_c, 4, 65, 99
6, 62700, Note_on_c, 4, 45, 84
6, 62760, Note_on_c, 4, 45, 0
6, 62760, Note_on_c, 4, 48, 74
6, 62820, Note_on_c, 4, 48, 0
6, 62820, Note_on_c, 4, 65, 0
6, 62820, Note_on_c, 4, 69, 0
6, 62820, Note_on_c, 4, 72, 0
6, 62820, Note_on_c, 4, 75, 72
6, 62820, Note_on_c, 4, 53, 73
6, 62850, Note_on_c, 4, 75, 0
6, 62880, Note_on_c, 4, 53, 0
6, 62880, Note_on_c, 4, 65, 94
6, 62880, Note_on_c, 4, 69, 89
6, 62880, Note_on_c, 4, 72, 65
6, 62880, Note_on_c, 4, 57, 90
6, 62940, Note_on_c, 4, 57, 0
6, 62940, Note_on_c, 4, 60, 72
6, 62985, Note_on_c, 4, 74, 84
6, 63000, Note_on_c, 4, 74, 0
6, 63000, Note_on_c, 4, 65, 0
6, 63000, Note_on_c, 4, 72, 0
6, 63000, Note_on_c, 4, 69, 0
6, 63000, Note_on_c, 4, 60, 0
6, 63000, Note_on_c, 4, 72, 78
6, 63000, Note_on_c, 4, 63, 73
6, 63060, Note_on_c, 4, 63, 0
6, 63060, Note_on_c, 4, 72, 0
6, 63060, Note_on_c, 4, 70, 80
6, 63060, Note_on_c, 4, 62, 65
6, 63120, Note_on_c, 4, 62, 0
6, 63120, Note_on_c, 4, 70, 0
6, 63120, Note_on_c, 4, 72, 50
6, 63120, Note_on_c, 4, 60, 81
6, 63150, Note_on_c, 4, 72, 0
6, 63180, Note_on_c, 4, 60, 0
6, 63180, Note_on_c, 4, 74, 78
6, 63180, Note_on_c, 4, 58, 76
6, 63240, Note_on_c, 4, 58, 0
6, 63240, Note_on_c, 4, 60, 84
6, 63300, Note_on_c, 4, 60, 0
6, 63300, Note_on_c, 4, 74, 0
6, 63300, Note_on_c, 4, 62, 84
6, 63300, Note_on_c, 4, 70, 81
6, 63330, Note_on_c, 4, 70, 0
6, 63360, Note_on_c, 4, 62, 0
6, 63360, Note_on_c, 4, 70, 81
6, 63360, Note_on_c, 4, 63, 72
6, 63420, Note_on_c, 4, 63, 0
6, 63420, Note_on_c, 4, 70, 0
6, 63420, Note_on_c, 4, 79, 72
6, 63420, Note_on_c, 4, 58, 81
6, 63480, Note_on_c, 4, 58, 0
6, 63480, Note_on_c, 4, 79, 0
6, 63480, Note_on_c, 4, 79, 72
6, 63480, Note_on_c, 4, 63, 74
6, 63510, Note_on_c, 4, 79, 0
6, 63540, Note_on_c, 4, 63, 0
6, 63540, Note_on_c, 4, 79, 69
6, 63540, Note_on_c, 4, 62, 74
6, 63600, Note_on_c, 4, 62, 0
6, 63600, Note_on_c, 4, 79, 0
6, 63600, Note_on_c, 4, 77, 76
6, 63600, Note_on_c, 4, 58, 73
6, 63660, Note_on_c, 4, 58, 0
6, 63660, Note_on_c, 4, 77, 0
6, 63660, Note_on_c, 4, 62, 72
6, 63660, Note_on_c, 4, 70, 80
6, 63690, Note_on_c, 4, 70, 0
6, 63720, Note_on_c, 4, 62, 0
6, 63720, Note_on_c, 4, 70, 86
6, 63720, Note_on_c, 4, 63, 73
6, 63780, Note_on_c, 4, 63, 0
6, 63780, Note_on_c, 4, 70, 0
6, 63780, Note_on_c, 4, 79, 70
6, 63780, Note_on_c, 4, 58, 74
6, 63840, Note_on_c, 4, 58, 0
6, 63840, Note_on_c, 4, 79, 0
6, 63840, Note_on_c, 4, 79, 65
6, 63840, Note_on_c, 4, 63, 74
6, 63870, Note_on_c, 4, 79, 0
6, 63900, Note_on_c, 4, 63, 0
6, 63900, Note_on_c, 4, 79, 71
6, 63900, Note_on_c, 4, 62, 61
6, 63960, Note_on_c, 4, 62, 0
6, 63960, Note_on_c, 4, 79, 0
6, 63960, Note_on_c, 4, 77, 78
6, 63960, Note_on_c, 4, 57, 89
6, 64020, Note_on_c, 4, 57, 0
6, 64020, Note_on_c, 4, 77, 0
6, 64020, Note_on_c, 4, 59, 81
6, 64020, Note_on_c, 4, 77, 74
6, 64050, Note_on_c, 4, 77, 0
6, 64080, Note_on_c, 4, 59, 0
6, 64080, Note_on_c, 4, 77, 70
6, 64080, Note_on_c, 4, 60, 76
6, 64140, Note_on_c, 4, 60, 0
6, 64140, Note_on_c, 4, 77, 0
6, 64140, Note_on_c, 4, 76, 76
6, 64140, Note_on_c, 4, 55, 76
6, 64200, Note_on_c, 4, 55, 0
6, 64200, Note_on_c, 4, 76, 0
6, 64200, Note_on_c, 4, 75, 76
6, 64200, Note_on_c, 4, 57, 89
6, 64230, Note_on_c, 4, 75, 0
6, 64260, Note_on_c, 4, 57, 0
6, 64260, Note_on_c, 4, 75, 84
6, 64260, Note_on_c, 4, 58, 84
6, 64320, Note_on_c, 4, 58, 0
6, 64320, Note_on_c, 4, 75, 0
6, 64320, Note_on_c, 4, 74, 86
6, 64320, Note_on_c, 4, 55, 84
6, 64380, Note_on_c, 4, 55, 0
6, 64380, Note_on_c, 4, 74, 0
6, 64380, Note_on_c, 4, 52, 84
6, 64380, Note_on_c, 4, 73, 72
6, 64380, Note_on_c, 4, 70, 72
6, 64410, Note_on_c, 4, 70, 0
6, 64410, Note_on_c, 4, 73, 0
6, 64440, Note_on_c, 4, 52, 0
6, 64440, Note_on_c, 4, 72, 80
6, 64440, Note_on_c, 4, 69, 84
6, 64440, Note_on_c, 4, 53, 81
6, 64470, Note_on_c, 4, 69, 0
6, 64470, Note_on_c, 4, 72, 0
6, 64500, Note_on_c, 4, 70, 73
6, 64500, Note_on_c, 4, 67, 71
6, 64530, Note_on_c, 4, 67, 0
6, 64530, Note_on_c, 4, 70, 0
6, 64560, Note_on_c, 4, 53, 0
6, 64560, Note_on_c, 4, 69, 78
6, 64560, Note_on_c, 4, 65, 80
6, 64590, Note_on_c, 4, 65, 0
6, 64590, Note_on_c, 4, 69, 0
6, 64620, Note_on_c, 4, 67, 63
6, 64620, Note_on_c, 4, 63, 68
6, 64650, Note_on_c, 4, 63, 0
6, 64650, Note_on_c, 4, 67, 0
6, 64680, Note_on_c, 4, 65, 80
6, 64680, Note_on_c, 4, 62, 72
6, 64710, Note_on_c, 4, 62, 0
6, 64710, Note_on_c, 4, 65, 0
6, 64740, Note_on_c, 4, 63, 76
6, 64740, Note_on_c, 4, 60, 84
6, 64770, Note_on_c, 4, 60, 0
6, 64770, Note_on_c, 4, 63, 0
6, 64800, Note_on_c, 4, 62, 85
6, 64800, Note_on_c, 4, 58, 82
6, 64920, Note_on_c, 4, 58, 0
6, 64920, Note_on_c, 4, 62, 0
6, 71310, Note_on_c, 4, 65, 80
6, 71340, Note_on_c, 4, 65, 0
6, 71340, Note_on_c, 4, 57, 93
6, 71370, Note_on_c, 4, 57, 0
6, 71370, Note_on_c, 4, 69, 89
6, 71400, Note_on_c, 4, 69, 0
6, 71400, Note_on_c, 4, 58, 81
6, 71430, Note_on_c, 4, 58, 0
6, 71430, Note_on_c, 4, 70, 81
6, 71460, Note_on_c, 4, 70, 0
6, 71460, Note_on_c, 4, 60, 89
6, 71490, Note_on_c, 4, 60, 0
6, 71490, Note_on_c, 4, 72, 73
6, 71520, Note_on_c, 4, 72, 0
6, 71520, Note_on_c, 4, 62, 89
6, 71550, Note_on_c, 4, 62, 0
6, 71550, Note_on_c, 4, 74, 90
6, 71580, Note_on_c, 4, 74, 0
6, 71580, Note_on_c, 4, 64, 94
6, 71610, Note_on_c, 4, 64, 0
6, 71610, Note_on_c, 4, 76, 101
6, 71640, Note_on_c, 4, 76, 0
6, 71640, Note_on_c, 4, 65, 84
6, 71640, Note_on_c, 4, 53, 89
6, 71670, Note_on_c, 4, 53, 0
6, 71670, Note_on_c, 4, 65, 0
6, 71670, Note_on_c, 4, 77, 86
6, 71700, Note_on_c, 4, 77, 0
6, 71700, Note_on_c, 4, 69, 81
6, 71700, Note_on_c, 4, 57, 99
6, 71730, Note_on_c, 4, 57, 0
6, 71730, Note_on_c, 4, 69, 0
6, 71730, Note_on_c, 4, 81, 84
6, 71760, Note_on_c, 4, 81, 0
6, 71760, Note_on_c, 4, 70, 86
6, 71760, Note_on_c, 4, 58, 89
6, 71790, Note_on_c, 4, 58, 0
6, 71790, Note_on_c, 4, 70, 0
6, 71790, Note_on_c, 4, 82, 98
6, 71820, Note_on_c, 4, 82, 0
6, 71820, Note_on_c, 4, 72, 68
6, 71820, Note_on_c, 4, 60, 94
6, 71850, Note_on_c, 4, 60, 0
6, 71850, Note_on_c, 4, 72, 0
6, 71850, Note_on_c, 4, 84, 93
6, 71880, Note_on_c, 4, 84, 0
6, 71880, Note_on_c, 4, 74, 90
6, 71880, Note_on_c, 4, 62, 89
6, 71910, Note_on_c, 4, 62, 0
6, 71910, Note_on_c, 4, 74, 0
6, 71910, Note_on_c, 4, 86, 94
6, 71940, Note_on_c, 4, 86, 0
6, 71940, Note_on_c, 4, 76, 82
6, 71940, Note_on_c, 4, 64, 94
6, 71970, Note_on_c, 4, 64, 0
6, 71970, Note_on_c, 4, 76, 0
6, 71970, Note_on_c, 4, 88, 90
6, 72000, Note_on_c, 4, 88, 0
6, 72000, Note_on_c, 4, 89, 93
6, 72000, Note_on_c, 4, 77, 77
6, 72000, Note_on_c, 4, 65, 98
6, 72120, Note_on_c, 4, 65, 0
6, 72120, Note_on_c, 4, 77, 0
6, 72120, Note_on_c, 4, 89, 0
6, 73470, Note_on_c, 4, 63, 80
6, 73500, Note_on_c, 4, 63, 0
6, 73500, Note_on_c, 4, 55, 82
6, 73530, Note_on_c, 4, 55, 0
6, 73530, Note_on_c, 4, 67, 84
6, 73560, Note_on_c, 4, 67, 0
6, 73560, Note_on_c, 4, 56, 86
6, 73590, Note_on_c, 4, 56, 0
6, 73590, Note_on_c, 4, 68, 95
6, 73620, Note_on_c, 4, 68, 0
6, 73620, Note_on_c, 4, 58, 86
6, 73650, Note_on_c, 4, 58, 0
6, 73650, Note_on_c, 4, 70, 94
6, 73680, Note_on_c, 4, 70, 0
6, 73680, Note_on_c, 4, 60, 89
6, 73710, Note_on_c, 4, 60, 0
6, 73710, Note_on_c, 4, 72, 89
6, 73740, Note_on_c, 4, 72, 0
6, 73740, Note_on_c, 4, 62, 80
6, 73770, Note_on_c, 4, 62, 0
6, 73770, Note_on_c, 4, 74, 95
6, 73800, Note_on_c, 4, 74, 0
6, 73800, Note_on_c, 4, 63, 77
6, 73800, Note_on_c, 4, 51, 93
6, 73830, Note_on_c, 4, 51, 0
6, 73830, Note_on_c, 4, 63, 0
6, 73830, Note_on_c, 4, 75, 99
6, 73860, Note_on_c, 4, 75, 0
6, 73860, Note_on_c, 4, 67, 77
6, 73860, Note_on_c, 4, 55, 94
6, 73890, Note_on_c, 4, 55, 0
6, 73890, Note_on_c, 4, 67, 0
6, 73890, Note_on_c, 4, 79, 89
6, 73920, Note_on_c, 4, 79, 0
6, 73920, Note_on_c, 4, 68, 89
6, 73920, Note_on_c, 4, 56, 94
6, 73950, Note_on_c, 4, 56, 0
6, 73950, Note_on_c, 4, 68, 0
6, 73950, Note_on_c, 4, 80, 99
6, 73980, Note_on_c, 4, 80, 0
6, 73980, Note_on_c, 4, 70, 84
6, 73980, Note_on_c, 4, 58, 90
6, 74010, Note_on_c, 4, 58, 0
6, 74010, Note_on_c, 4, 70, 0
6, 74010, Note_on_c, 4, 82, 95
6, 74040, Note_on_c, 4, 82, 0
6, 74040, Note_on_c, 4, 72, 68
6, 74040, Note_on_c, 4, 60, 94
6, 74070, Note_on_c, 4, 60, 0
6, 74070, Note_on_c, 4, 72, 0
6, 74070, Note_on_c, 4, 84, 93
6, 74100, Note_on_c, 4, 84, 0
6, 74100, Note_on_c, 4, 74, 85
6, 74100, Note_on_c, 4, 62, 94
6, 74130, Note_on_c, 4, 62, 0
6, 74130, Note_on_c, 4, 74, 0
6, 74130, Note_on_c, 4, 86, 95
6, 74160, Note_on_c, 4, 86, 0
6, 74160, Note_on_c, 4, 75, 89
6, 74160, Note_on_c, 4, 63, 90
6, 74175, Note_on_c, 4, 75, 0
6, 74175, Note_on_c, 4, 87, 101
6, 74190, Note_on_c, 4, 63, 0
6, 74190, Note_on_c, 4, 67, 94
6, 74220, Note_on_c, 4, 67, 0
6, 74220, Note_on_c, 4, 70, 85
6, 74250, Note_on_c, 4, 70, 0
6, 74250, Note_on_c, 4, 67, 90
6, 74280, Note_on_c, 4, 67, 0
6, 74280, Note_on_c, 4, 70, 81
6, 74310, Note_on_c, 4, 70, 0
6, 74310, Note_on_c, 4, 67, 86
6, 74340, Note_on_c, 4, 67, 0
6, 74340, Note_on_c, 4, 63, 86
6, 74355, Note_on_c, 4, 87, 0
6, 74370, Note_on_c, 4, 63, 0
6, 74370, Note_on_c, 4, 68, 93
6, 74400, Note_on_c, 4, 68, 0
6, 74400, Note_on_c, 4, 86, 95
6, 74400, Note_on_c, 4, 72, 61
6, 74430, Note_on_c, 4, 72, 0
6, 74430, Note_on_c, 4, 68, 85
6, 74460, Note_on_c, 4, 68, 0
6, 74460, Note_on_c, 4, 86, 0
6, 74460, Note_on_c, 4, 84, 89
6, 74460, Note_on_c, 4, 72, 65
6, 74490, Note_on_c, 4, 72, 0
6, 74490, Note_on_c, 4, 68, 93
6, 74520, Note_on_c, 4, 68, 0
6, 74520, Note_on_c, 4, 84, 0
6, 74520, Note_on_c, 4, 81, 89
6, 74520, Note_on_c, 4, 63, 89
6, 74550, Note_on_c, 4, 63, 0
6, 74550, Note_on_c, 4, 67, 94
6, 74580, Note_on_c, 4, 67, 0
6, 74580, Note_on_c, 4, 81, 0
6, 74580, Note_on_c, 4, 82, 89
6, 74580, Note_on_c, 4, 70, 80
6, 74610, Note_on_c, 4, 70, 0
6, 74610, Note_on_c, 4, 67, 85
6, 74640, Note_on_c, 4, 67, 0
6, 74640, Note_on_c, 4, 82, 0
6, 74640, Note_on_c, 4, 82, 84
6, 74640, Note_on_c, 4, 70, 84
6, 74670, Note_on_c, 4, 70, 0
6, 74670, Note_on_c, 4, 82, 0
6, 74670, Note_on_c, 4, 67, 84
6, 74700, Note_on_c, 4, 67, 0
6, 74700, Note_on_c, 4, 82, 80
6, 74700, Note_on_c, 4, 63, 89
6, 74730, Note_on_c, 4, 63, 0
6, 74730, Note_on_c, 4, 67, 86
6, 74760, Note_on_c, 4, 67, 0
6, 74760, Note_on_c, 4, 70, 80
6, 74790, Note_on_c, 4, 70, 0
6, 74790, Note_on_c, 4, 67, 89
6, 74820, Note_on_c, 4, 67, 0
6, 74820, Note_on_c, 4, 82, 0
6, 74820, Note_on_c, 4, 70, 85
6, 74850, Note_on_c, 4, 70, 0
6, 74850, Note_on_c, 4, 67, 93
6, 74880, Note_on_c, 4, 67, 0
6, 74880, Note_on_c, 4, 75, 99
6, 74880, Note_on_c, 4, 63, 89
6, 74910, Note_on_c, 4, 63, 0
6, 74910, Note_on_c, 4, 67, 94
6, 74940, Note_on_c, 4, 67, 0
6, 74940, Note_on_c, 4, 75, 0
6, 74940, Note_on_c, 4, 87, 84
6, 74940, Note_on_c, 4, 70, 81
6, 74970, Note_on_c, 4, 70, 0
6, 74970, Note_on_c, 4, 67, 93
6, 75000, Note_on_c, 4, 67, 0
6, 75000, Note_on_c, 4, 87, 0
6, 75000, Note_on_c, 4, 87, 81
6, 75000, Note_on_c, 4, 70, 84
6, 75030, Note_on_c, 4, 70, 0
6, 75030, Note_on_c, 4, 87, 0
6, 75030, Note_on_c, 4, 67, 89
6, 75045, Note_on_c, 4, 89, 85
6, 75060, Note_on_c, 4, 89, 0
6, 75060, Note_on_c, 4, 67, 0
6, 75060, Note_on_c, 4, 87, 94
6, 75060, Note_on_c, 4, 63, 89
6, 75090, Note_on_c, 4, 63, 0
6, 75090, Note_on_c, 4, 68, 94
6, 75120, Note_on_c, 4, 68, 0
6, 75120, Note_on_c, 4, 87, 0
6, 75120, Note_on_c, 4, 86, 99
6, 75120, Note_on_c, 4, 72, 62
6, 75150, Note_on_c, 4, 72, 0
6, 75150, Note_on_c, 4, 68, 89
6, 75180, Note_on_c, 4, 68, 0
6, 75180, Note_on_c, 4, 86, 0
6, 75180, Note_on_c, 4, 84, 89
6, 75180, Note_on_c, 4, 72, 62
6, 75210, Note_on_c, 4, 72, 0
6, 75210, Note_on_c, 4, 84, 0
6, 75210, Note_on_c, 4, 68, 93
6, 75240, Note_on_c, 4, 68, 0
6, 75240, Note_on_c, 4, 81, 93
6, 75240, Note_on_c, 4, 63, 89
6, 75270, Note_on_c, 4, 63, 0
6, 75270, Note_on_c, 4, 67, 86
6, 75300, Note_on_c, 4, 67, 0
6, 75300, Note_on_c, 4, 81, 0
6, 75300, Note_on_c, 4, 82, 93
6, 75300, Note_on_c, 4, 70, 82
6, 75330, Note_on_c, 4, 70, 0
6, 75330, Note_on_c, 4, 67, 86
6, 75360, Note_on_c, 4, 67, 0
6, 75360, Note_on_c, 4, 82, 0
6, 75360, Note_on_c, 4, 82, 85
6, 75360, Note_on_c, 4, 70, 84
6, 75390, Note_on_c, 4, 70, 0
6, 75390, Note_on_c, 4, 67, 90
6, 75420, Note_on_c, 4, 67, 0
6, 75420, Note_on_c, 4, 82, 0
6, 75420, Note_on_c, 4, 82, 82
6, 75420, Note_on_c, 4, 63, 89
6, 75450, Note_on_c, 4, 63, 0
6, 75450, Note_on_c, 4, 67, 93
6, 75480, Note_on_c, 4, 67, 0
6, 75480, Note_on_c, 4, 70, 84
6, 75510, Note_on_c, 4, 70, 0
6, 75510, Note_on_c, 4, 67, 93
6, 75540, Note_on_c, 4, 67, 0
6, 75540, Note_on_c, 4, 82, 0
6, 75540, Note_on_c, 4, 70, 86
6, 75570, Note_on_c, 4, 70, 0
6, 75570, Note_on_c, 4, 67, 94
6, 75600, Note_on_c, 4, 67, 0
6, 75600, Note_on_c, 4, 75, 104
6, 75600, Note_on_c, 4, 63, 90
6, 75630, Note_on_c, 4, 63, 0
6, 75630, Note_on_c, 4, 67, 94
6, 75660, Note_on_c, 4, 67, 0
6, 75660, Note_on_c, 4, 75, 0
6, 75660, Note_on_c, 4, 87, 86
6, 75660, Note_on_c, 4, 70, 82
6, 75690, Note_on_c, 4, 70, 0
6, 75690, Note_on_c, 4, 67, 90
6, 75720, Note_on_c, 4, 67, 0
6, 75720, Note_on_c, 4, 87, 0
6, 75720, Note_on_c, 4, 87, 80
6, 75720, Note_on_c, 4, 70, 84
6, 75750, Note_on_c, 4, 70, 0
6, 75750, Note_on_c, 4, 87, 0
6, 75750, Note_on_c, 4, 67, 94
6, 75780, Note_on_c, 4, 67, 0
6, 75780, Note_on_c, 4, 87, 86
6, 75780, Note_on_c, 4, 63, 94
6, 75810, Note_on_c, 4, 63, 0
6, 75810, Note_on_c, 4, 67, 94
6, 75840, Note_on_c, 4, 67, 0
6, 75840, Note_on_c, 4, 87, 0
6, 75840, Note_on_c, 4, 86, 104
6, 75840, Note_on_c, 4, 71, 85
6, 75870, Note_on_c, 4, 71, 0
6, 75870, Note_on_c, 4, 67, 89
6, 75900, Note_on_c, 4, 67, 0
6, 75900, Note_on_c, 4, 86, 0
6, 75900, Note_on_c, 4, 86, 99
6, 75900, Note_on_c, 4, 71, 89
6, 75930, Note_on_c, 4, 71, 0
6, 75930, Note_on_c, 4, 86, 0
6, 75930, Note_on_c, 4, 67, 89
6, 75960, Note_on_c, 4, 67, 0
6, 75960, Note_on_c, 4, 86, 95
6, 75960, Note_on_c, 4, 63, 90
6, 75990, Note_on_c, 4, 63, 0
6, 75990, Note_on_c, 4, 67, 95
6, 76020, Note_on_c, 4, 67, 0
6, 76020, Note_on_c, 4, 86, 0
6, 76020, Note_on_c, 4, 84, 95
6, 76020, Note_on_c, 4, 72, 67
6, 76050, Note_on_c, 4, 72, 0
6, 76050, Note_on_c, 4, 67, 89
6, 76080, Note_on_c, 4, 67, 0
6, 76080, Note_on_c, 4, 84, 0
6, 76080, Note_on_c, 4, 84, 93
6, 76080, Note_on_c, 4, 72, 74
6, 76110, Note_on_c, 4, 72, 0
6, 76110, Note_on_c, 4, 84, 0
6, 76110, Note_on_c, 4, 67, 90
6, 76140, Note_on_c, 4, 67, 0
6, 76140, Note_on_c, 4, 84, 85
6, 76140, Note_on_c, 4, 64, 101
6, 76170, Note_on_c, 4, 64, 0
6, 76170, Note_on_c, 4, 67, 95
6, 76200, Note_on_c, 4, 67, 0
6, 76200, Note_on_c, 4, 84, 0
6, 76200, Note_on_c, 4, 82, 94
6, 76200, Note_on_c, 4, 72, 64
6, 76230, Note_on_c, 4, 72, 0
6, 76230, Note_on_c, 4, 67, 94
6, 76260, Note_on_c, 4, 67, 0
6, 76260, Note_on_c, 4, 82, 0
6, 76260, Note_on_c, 4, 82, 89
6, 76260, Note_on_c, 4, 72, 62
6, 76290, Note_on_c, 4, 72, 0
6, 76290, Note_on_c, 4, 82, 0
6, 76290, Note_on_c, 4, 67, 98
6, 76320, Note_on_c, 4, 67, 0
6, 76320, Note_on_c, 4, 81, 89
6, 76320, Note_on_c, 4, 65, 95
6, 76440, Note_on_c, 4, 65, 0
6, 76440, Note_on_c, 4, 81, 0
6, 76500, Note_on_c, 4, 81, 78
6, 76530, Note_on_c, 4, 81, 0
6, 76530, Note_on_c, 4, 82, 80
6, 76560, Note_on_c, 4, 82, 0
6, 76560, Note_on_c, 4, 84, 82
6, 76590, Note_on_c, 4, 84, 0
6, 76590, Note_on_c, 4, 86, 86
6, 76620, Note_on_c, 4, 86, 0
6, 76620, Note_on_c, 4, 88, 73
6, 76650, Note_on_c, 4, 88, 0
6, 76650, Note_on_c, 4, 89, 76
6, 76680, Note_on_c, 4, 89, 0
6, 76680, Note_on_c, 4, 88, 89
6, 76710, Note_on_c, 4, 88, 0
6, 76710, Note_on_c, 4, 89, 74
6, 76740, Note_on_c, 4, 89, 0
6, 76740, Note_on_c, 4, 88, 84
6, 76770, Note_on_c, 4, 88, 0
6, 76770, Note_on_c, 4, 86, 81
6, 76800, Note_on_c, 4, 86, 0
6, 76800, Note_on_c, 4, 84, 76
6, 76830, Note_on_c, 4, 84, 0
6, 76830, Note_on_c, 4, 83, 73
6, 76860, Note_on_c, 4, 83, 0
6, 76860, Note_on_c, 4, 84, 84
6, 76860, Note_on_c, 4, 72, 69
6, 76890, Note_on_c, 4, 72, 0
6, 76890, Note_on_c, 4, 84, 0
6, 76890, Note_on_c, 4, 86, 69
6, 76890, Note_on_c, 4, 74, 61
6, 76920, Note_on_c, 4, 74, 0
6, 76920, Note_on_c, 4, 86, 0
6, 76920, Note_on_c, 4, 84, 81
6, 76920, Note_on_c, 4, 72, 71
6, 76950, Note_on_c, 4, 72, 0
6, 76950, Note_on_c, 4, 84, 0
6, 76950, Note_on_c, 4, 82, 71
6, 76950, Note_on_c, 4, 70, 77
6, 76980, Note_on_c, 4, 70, 0
6, 76980, Note_on_c, 4, 82, 0
6, 76980, Note_on_c, 4, 81, 73
6, 76980, Note_on_c, 4, 69, 84
6, 77010, Note_on_c, 4, 69, 0
6, 77010, Note_on_c, 4, 81, 0
6, 77010, Note_on_c, 4, 67, 66
6, 77010, Note_on_c, 4, 79, 69
6, 77040, Note_on_c, 4, 79, 0
6, 77040, Note_on_c, 4, 67, 0
6, 77040, Note_on_c, 4, 77, 65
6, 77040, Note_on_c, 4, 65, 72
6, 77160, Note_on_c, 4, 65, 0
6, 77160, Note_on_c, 4, 77, 0
6, 77220, Note_on_c, 4, 81, 74
6, 77250, Note_on_c, 4, 81, 0
6, 77250, Note_on_c, 4, 82, 78
6, 77280, Note_on_c, 4, 82, 0
6, 77280, Note_on_c, 4, 84, 77
6, 77310, Note_on_c, 4, 84, 0
6, 77310, Note_on_c, 4, 86, 82
6, 77340, Note_on_c, 4, 86, 0
6, 77340, Note_on_c, 4, 88, 80
6, 77370, Note_on_c, 4, 88, 0
6, 77370, Note_on_c, 4, 89, 73
6, 77400, Note_on_c, 4, 89, 0
6, 77400, Note_on_c, 4, 88, 74
6, 77430, Note_on_c, 4, 88, 0
6, 77430, Note_on_c, 4, 89, 80
6, 77460, Note_on_c, 4, 89, 0
6, 77460, Note_on_c, 4, 88, 85
6, 77490, Note_on_c, 4, 88, 0
6, 77490, Note_on_c, 4, 86, 74
6, 77520, Note_on_c, 4, 86, 0
6, 77520, Note_on_c, 4, 84, 68
6, 77550, Note_on_c, 4, 84, 0
6, 77550, Note_on_c, 4, 83, 76
6, 77580, Note_on_c, 4, 83, 0
6, 77580, Note_on_c, 4, 84, 80
6, 77580, Note_on_c, 4, 72, 80
6, 77610, Note_on_c, 4, 72, 0
6, 77610, Note_on_c, 4, 84, 0
6, 77610, Note_on_c, 4, 86, 58
6, 77610, Note_on_c, 4, 74, 66
6, 77640, Note_on_c, 4, 74, 0
6, 77640, Note_on_c, 4, 86, 0
6, 77640, Note_on_c, 4, 84, 76
6, 77640, Note_on_c, 4, 72, 64
6, 77670, Note_on_c, 4, 72, 0
6, 77670, Note_on_c, 4, 84, 0
6, 77670, Note_on_c, 4, 82, 68
6, 77670, Note_on_c, 4, 70, 78
6, 77700, Note_on_c, 4, 70, 0
6, 77700, Note_on_c, 4, 82, 0
6, 77700, Note_on_c, 4, 81, 76
6, 77700, Note_on_c, 4, 69, 85
6, 77730, Note_on_c, 4, 69, 0
6, 77730, Note_on_c, 4, 81, 0
6, 77730, Note_on_c, 4, 67, 63
6, 77730, Note_on_c, 4, 79, 72
6, 77760, Note_on_c, 4, 79, 0
6, 77760, Note_on_c, 4, 67, 0
6, 77760, Note_on_c, 4, 77, 68
6, 77760, Note_on_c, 4, 65, 93
6, 77790, Note_on_c, 4, 77, 0
6, 77790, Note_on_c, 4, 81, 84
6, 77820, Note_on_c, 4, 81, 0
6, 77820, Note_on_c, 4, 79, 76
6, 77850, Note_on_c, 4, 79, 0
6, 77850, Note_on_c, 4, 77, 73
6, 77880, Note_on_c, 4, 77, 0
6, 77880, Note_on_c, 4, 65, 0
6, 77880, Note_on_c, 4, 76, 82
6, 77910, Note_on_c, 4, 76, 0
6, 77910, Note_on_c, 4, 74, 84
6, 77940, Note_on_c, 4, 74, 0
6, 77940, Note_on_c, 4, 72, 64
6, 77940, Note_on_c, 4, 60, 81
6, 77970, Note_on_c, 4, 60, 0
6, 77970, Note_on_c, 4, 72, 0
6, 77970, Note_on_c, 4, 74, 62
6, 77970, Note_on_c, 4, 62, 55
6, 78000, Note_on_c, 4, 62, 0
6, 78000, Note_on_c, 4, 74, 0
6, 78000, Note_on_c, 4, 72, 61
6, 78000, Note_on_c, 4, 60, 78
6, 78030, Note_on_c, 4, 60, 0
6, 78030, Note_on_c, 4, 72, 0
6, 78030, Note_on_c, 4, 70, 78
6, 78030, Note_on_c, 4, 58, 65
6, 78060, Note_on_c, 4, 58, 0
6, 78060, Note_on_c, 4, 70, 0
6, 78060, Note_on_c, 4, 69, 78
6, 78060, Note_on_c, 4, 57, 89
6, 78090, Note_on_c, 4, 57, 0
6, 78090, Note_on_c, 4, 69, 0
6, 78090, Note_on_c, 4, 55, 73
6, 78090, Note_on_c, 4, 67, 71
6, 78120, Note_on_c, 4, 67, 0
6, 78120, Note_on_c, 4, 55, 0
6, 78120, Note_on_c, 4, 65, 78
6, 78120, Note_on_c, 4, 53, 80
6, 78150, Note_on_c, 4, 65, 0
6, 78150, Note_on_c, 4, 69, 90
6, 78180, Note_on_c, 4, 69, 0
6, 78180, Note_on_c, 4, 67, 80
6, 78210, Note_on_c, 4, 67, 0
6, 78210, Note_on_c, 4, 65, 76
6, 78240, Note_on_c, 4, 65, 0
6, 78240, Note_on_c, 4, 53, 0
6, 78240, Note_on_c, 4, 64, 85
6, 78270, Note_on_c, 4, 64, 0
6, 78270, Note_on_c, 4, 62, 64
6, 78300, Note_on_c, 4, 62, 0
6, 78300, Note_on_c, 4, 60, 72
6, 78300, Note_on_c, 4, 48, 80
6, 78330, Note_on_c, 4, 48, 0
6, 78330, Note_on_c, 4, 60, 0
6, 78330, Note_on_c, 4, 62, 80
6, 78330, Note_on_c, 4, 50, 76
6, 78360, Note_on_c, 4, 50, 0
6, 78360, Note_on_c, 4, 62, 0
6, 78360, Note_on_c, 4, 60, 78
6, 78360, Note_on_c, 4, 48, 81
6, 78390, Note_on_c, 4, 48, 0
6, 78390, Note_on_c, 4, 60, 0
6, 78390, Note_on_c, 4, 58, 78
6, 78390, Note_on_c, 4, 46, 76
6, 78420, Note_on_c, 4, 46, 0
6, 78420, Note_on_c, 4, 58, 0
6, 78420, Note_on_c, 4, 57, 93
6, 78420, Note_on_c, 4, 45, 84
6, 78450, Note_on_c, 4, 45, 0
6, 78450, Note_on_c, 4, 57, 0
6, 78450, Note_on_c, 4, 43, 73
6, 78450, Note_on_c, 4, 55, 71
6, 78480, Note_on_c, 4, 55, 0
6, 78480, Note_on_c, 4, 43, 0
6, 78480, Note_on_c, 4, 53, 73
6, 78480, Note_on_c, 4, 41, 74
6, 78510, Note_on_c, 4, 41, 0
6, 78510, Note_on_c, 4, 53, 0
6, 78510, Note_on_c, 4, 62, 82
6, 78510, Note_on_c, 4, 50, 80
6, 78540, Note_on_c, 4, 50, 0
6, 78540, Note_on_c, 4, 62, 0
6, 78540, Note_on_c, 4, 60, 89
6, 78540, Note_on_c, 4, 48, 80
6, 78570, Note_on_c, 4, 48, 0
6, 78570, Note_on_c, 4, 60, 0
6, 78570, Note_on_c, 4, 58, 73
6, 78570, Note_on_c, 4, 46, 82
6, 78600, Note_on_c, 4, 46, 0
6, 78600, Note_on_c, 4, 58, 0
6, 78600, Note_on_c, 4, 57, 94
6, 78600, Note_on_c, 4, 45, 84
6, 78630, Note_on_c, 4, 45, 0
6, 78630, Note_on_c, 4, 57, 0
6, 78630, Note_on_c, 4, 55, 70
6, 78630, Note_on_c, 4, 43, 78
6, 78660, Note_on_c, 4, 43, 0
6, 78660, Note_on_c, 4, 55, 0
6, 78660, Note_on_c, 4, 53, 73
6, 78660, Note_on_c, 4, 41, 81
6, 78690, Note_on_c, 4, 41, 0
6, 78690, Note_on_c, 4, 53, 0
6, 78690, Note_on_c, 4, 62, 72
6, 78690, Note_on_c, 4, 50, 68
6, 78720, Note_on_c, 4, 50, 0
6, 78720, Note_on_c, 4, 62, 0
6, 78720, Note_on_c, 4, 60, 74
6, 78720, Note_on_c, 4, 48, 71
6, 78750, Note_on_c, 4, 48, 0
6, 78750, Note_on_c, 4, 60, 0
6, 78750, Note_on_c, 4, 58, 72
6, 78750, Note_on_c, 4, 46, 73
6, 78780, Note_on_c, 4, 46, 0
6, 78780, Note_on_c, 4, 58, 0
6, 78780, Note_on_c, 4, 57, 84
6, 78780, Note_on_c, 4, 45, 81
6, 78810, Note_on_c, 4, 45, 0
6, 78810, Note_on_c, 4, 57, 0
6, 78810, Note_on_c, 4, 43, 68
6, 78810, Note_on_c, 4, 55, 71
6, 78840, Note_on_c, 4, 55, 0
6, 78840, Note_on_c, 4, 43, 0
6, 78840, Note_on_c, 4, 53, 84
6, 78840, Note_on_c, 4, 41, 93
6, 78870, Note_on_c, 4, 53, 0
6, 78900, Note_on_c, 4, 65, 89
6, 78930, Note_on_c, 4, 65, 0
6, 78960, Note_on_c, 4, 41, 0
6, 78960, Note_on_c, 4, 67, 86
6, 78990, Note_on_c, 4, 67, 0
6, 79020, Note_on_c, 4, 69, 98
6, 79050, Note_on_c, 4, 69, 0
6, 79080, Note_on_c, 4, 70, 89
6, 79110, Note_on_c, 4, 70, 0
6, 79140, Note_on_c, 4, 72, 84
6, 79170, Note_on_c, 4, 72, 0
6, 79200, Note_on_c, 4, 74, 77
6, 79200, Note_on_c, 4, 65, 77
6, 79200, Note_on_c, 4, 62, 76
6, 79200, Note_on_c, 4, 58, 72
6, 79260, Note_on_c, 4, 58, 0
6, 79260, Note_on_c, 4, 74, 0
6, 79260, Note_on_c, 4, 65, 0
6, 79260, Note_on_c, 4, 62, 0
6, 79320, Note_on_c, 4, 74, 73
6, 79320, Note_on_c, 4, 65, 71
6, 79320, Note_on_c, 4, 62, 72
6, 79320, Note_on_c, 4, 58, 76
6, 79350, Note_on_c, 4, 58, 0
6, 79350, Note_on_c, 4, 74, 0
6, 79350, Note_on_c, 4, 65, 0
6, 79350, Note_on_c, 4, 62, 0
6, 79380, Note_on_c, 4, 74, 90
6, 79380, Note_on_c, 4, 66, 73
6, 79380, Note_on_c, 4, 60, 72
6, 79380, Note_on_c, 4, 57, 94
6, 79440, Note_on_c, 4, 57, 0
6, 79440, Note_on_c, 4, 74, 0
6, 79440, Note_on_c, 4, 66, 0
6, 79440, Note_on_c, 4, 60, 0
6, 79500, Note_on_c, 4, 74, 95
6, 79500, Note_on_c, 4, 66, 74
6, 79500, Note_on_c, 4, 60, 77
6, 79500, Note_on_c, 4, 57, 94
6, 79530, Note_on_c, 4, 57, 0
6, 79530, Note_on_c, 4, 74, 0
6, 79530, Note_on_c, 4, 66, 0
6, 79530, Note_on_c, 4, 60, 0
6, 79560, Note_on_c, 4, 74, 86
6, 79560, Note_on_c, 4, 67, 78
6, 79560, Note_on_c, 4, 58, 80
6, 79560, Note_on_c, 4, 55, 76
6, 79620, Note_on_c, 4, 55, 0
6, 79620, Note_on_c, 4, 74, 0
6, 79620, Note_on_c, 4, 67, 0
6, 79620, Note_on_c, 4, 58, 0
6, 79680, Note_on_c, 4, 74, 86
6, 79680, Note_on_c, 4, 67, 74
6, 79680, Note_on_c, 4, 58, 76
6, 79680, Note_on_c, 4, 55, 73
6, 79710, Note_on_c, 4, 55, 0
6, 79710, Note_on_c, 4, 74, 0
6, 79710, Note_on_c, 4, 67, 0
6, 79710, Note_on_c, 4, 58, 0
6, 79740, Note_on_c, 4, 51, 99
6, 79740, Note_on_c, 4, 63, 85
6, 79740, Note_on_c, 4, 70, 85
6, 79740, Note_on_c, 4, 79, 99
6, 79920, Note_on_c, 4, 79, 0
6, 79920, Note_on_c, 4, 51, 0
6, 79920, Note_on_c, 4, 63, 0
6, 79920, Note_on_c, 4, 70, 0
6, 79920, Note_on_c, 4, 77, 74
6, 79920, Note_on_c, 4, 74, 81
6, 79920, Note_on_c, 4, 65, 68
6, 79920, Note_on_c, 4, 53, 76
6, 79980, Note_on_c, 4, 74, 0
6, 79980, Note_on_c, 4, 77, 0
6, 79980, Note_on_c, 4, 75, 89
6, 79980, Note_on_c, 4, 72, 54
6, 80040, Note_on_c, 4, 72, 0
6, 80040, Note_on_c, 4, 53, 0
6, 80040, Note_on_c, 4, 65, 0
6, 80040, Note_on_c, 4, 75, 0
6, 80040, Note_on_c, 4, 74, 80
6, 80040, Note_on_c, 4, 70, 81
6, 80040, Note_on_c, 4, 65, 74
6, 80070, Note_on_c, 4, 70, 0
6, 80070, Note_on_c, 4, 74, 0
6, 80085, Note_on_c, 4, 74, 89
6, 80085, Note_on_c, 4, 70, 89
6, 80100, Note_on_c, 4, 70, 0
6, 80100, Note_on_c, 4, 74, 0
6, 80100, Note_on_c, 4, 65, 0
6, 80100, Note_on_c, 4, 72, 61
6, 80100, Note_on_c, 4, 69, 77
6, 80100, Note_on_c, 4, 65, 68
6, 80100, Note_on_c, 4, 63, 69
6, 80160, Note_on_c, 4, 69, 0
6, 80160, Note_on_c, 4, 72, 0
6, 80160, Note_on_c, 4, 70, 86
6, 80160, Note_on_c, 4, 67, 67
6, 80220, Note_on_c, 4, 67, 0
6, 80220, Note_on_c, 4, 63, 0
6, 80220, Note_on_c, 4, 65, 0
6, 80220, Note_on_c, 4, 70, 0
6, 80220, Note_on_c, 4, 63, 72
6, 80220, Note_on_c, 4, 65, 73
6, 80220, Note_on_c, 4, 72, 53
6, 80220, Note_on_c, 4, 69, 86
6, 80250, Note_on_c, 4, 69, 0
6, 80250, Note_on_c, 4, 72, 0
6, 80280, Note_on_c, 4, 65, 0
6, 80280, Note_on_c, 4, 63, 0
6, 80280, Note_on_c, 4, 74, 84
6, 80280, Note_on_c, 4, 70, 76
6, 80280, Note_on_c, 4, 65, 78
6, 80280, Note_on_c, 4, 62, 78
6, 80340, Note_on_c, 4, 62, 0
6, 80340, Note_on_c, 4, 74, 0
6, 80340, Note_on_c, 4, 70, 0
6, 80340, Note_on_c, 4, 65, 0
6, 80400, Note_on_c, 4, 74, 85
6, 80400, Note_on_c, 4, 70, 84
6, 80400, Note_on_c, 4, 65, 80
6, 80400, Note_on_c, 4, 58, 76
6, 80430, Note_on_c, 4, 58, 0
6, 80430, Note_on_c, 4, 74, 0
6, 80430, Note_on_c, 4, 70, 0
6, 80430, Note_on_c, 4, 65, 0
6, 80460, Note_on_c, 4, 72, 50
6, 80460, Note_on_c, 4, 69, 73
6, 80460, Note_on_c, 4, 65, 89
6, 80520, Note_on_c, 4, 65, 0
6, 80520, Note_on_c, 4, 69, 0
6, 80520, Note_on_c, 4, 72, 0
6, 80580, Note_on_c, 4, 70, 90
6, 80610, Note_on_c, 4, 70, 0
6, 80610, Note_on_c, 4, 72, 93
6, 80640, Note_on_c, 4, 72, 0
6, 80640, Note_on_c, 4, 74, 65
6, 80640, Note_on_c, 4, 65, 69
6, 80640, Note_on_c, 4, 62, 72
6, 80640, Note_on_c, 4, 58, 70
6, 80700, Note_on_c, 4, 58, 0
6, 80700, Note_on_c, 4, 74, 0
6, 80700, Note_on_c, 4, 65, 0
6, 80700, Note_on_c, 4, 62, 0
6, 80760, Note_on_c, 4, 74, 81
6, 80760, Note_on_c, 4, 65, 81
6, 80760, Note_on_c, 4, 62, 76
6, 80760, Note_on_c, 4, 58, 76
6, 80790, Note_on_c, 4, 58, 0
6, 80790, Note_on_c, 4, 74, 0
6, 80790, Note_on_c, 4, 65, 0
6, 80790, Note_on_c, 4, 62, 0
6, 80820, Note_on_c, 4, 74, 99
6, 80820, Note_on_c, 4, 66, 76
6, 80820, Note_on_c, 4, 60, 73
6, 80820, Note_on_c, 4, 57, 95
6, 80880, Note_on_c, 4, 57, 0
6, 80880, Note_on_c, 4, 74, 0
6, 80880, Note_on_c, 4, 66, 0
6, 80880, Note_on_c, 4, 60, 0
6, 80940, Note_on_c, 4, 74, 99
6, 80940, Note_on_c, 4, 66, 76
6, 80940, Note_on_c, 4, 60, 77
6, 80940, Note_on_c, 4, 57, 95
6, 80970, Note_on_c, 4, 57, 0
6, 80970, Note_on_c, 4, 74, 0
6, 80970, Note_on_c, 4, 66, 0
6, 80970, Note_on_c, 4, 60, 0
6, 81000, Note_on_c, 4, 74, 85
6, 81000, Note_on_c, 4, 67, 73
6, 81000, Note_on_c, 4, 58, 80
6, 81000, Note_on_c, 4, 55, 84
6, 81060, Note_on_c, 4, 55, 0
6, 81060, Note_on_c, 4, 74, 0
6, 81060, Note_on_c, 4, 67, 0
6, 81060, Note_on_c, 4, 58, 0
6, 81120, Note_on_c, 4, 74, 84
6, 81120, Note_on_c, 4, 67, 78
6, 81120, Note_on_c, 4, 58, 74
6, 81120, Note_on_c, 4, 55, 78
6, 81150, Note_on_c, 4, 55, 0
6, 81150, Note_on_c, 4, 74, 0
6, 81150, Note_on_c, 4, 67, 0
6, 81150, Note_on_c, 4, 58, 0
6, 81180, Note_on_c, 4, 55, 93
6, 81180, Note_on_c, 4, 74, 110
6, 81180, Note_on_c, 4, 82, 110
6, 81360, Note_on_c, 4, 82, 0
6, 81360, Note_on_c, 4, 74, 0
6, 81360, Note_on_c, 4, 55, 0
6, 81360, Note_on_c, 4, 81, 90
6, 81360, Note_on_c, 4, 75, 81
6, 81360, Note_on_c, 4, 67, 66
6, 81360, Note_on_c, 4, 60, 80
6, 81480, Note_on_c, 4, 60, 0
6, 81480, Note_on_c, 4, 81, 0
6, 81480, Note_on_c, 4, 75, 0
6, 81480, Note_on_c, 4, 67, 0
6, 81480, Note_on_c, 4, 81, 93
6, 81480, Note_on_c, 4, 75, 85
6, 81480, Note_on_c, 4, 67, 64
6, 81480, Note_on_c, 4, 60, 82
6, 81510, Note_on_c, 4, 60, 0
6, 81510, Note_on_c, 4, 81, 0
6, 81510, Note_on_c, 4, 75, 0
6, 81510, Note_on_c, 4, 67, 0
6, 81525, Note_on_c, 4, 81, 94
6, 81540, Note_on_c, 4, 81, 0
6, 81540, Note_on_c, 4, 79, 80
6, 81540, Note_on_c, 4, 73, 80
6, 81540, Note_on_c, 4, 67, 71
6, 81540, Note_on_c, 4, 64, 82
6, 81600, Note_on_c, 4, 79, 0
6, 81600, Note_on_c, 4, 78, 76
6, 81660, Note_on_c, 4, 78, 0
6, 81660, Note_on_c, 4, 64, 0
6, 81660, Note_on_c, 4, 67, 0
6, 81660, Note_on_c, 4, 73, 0
6, 81660, Note_on_c, 4, 64, 90
6, 81660, Note_on_c, 4, 67, 70
6, 81660, Note_on_c, 4, 73, 86
6, 81660, Note_on_c, 4, 79, 85
6, 81720, Note_on_c, 4, 79, 0
6, 81720, Note_on_c, 4, 64, 0
6, 81720, Note_on_c, 4, 67, 0
6, 81720, Note_on_c, 4, 73, 0
6, 81720, Note_on_c, 4, 78, 86
6, 81720, Note_on_c, 4, 74, 89
6, 81720, Note_on_c, 4, 69, 77
6, 81720, Note_on_c, 4, 62, 76
6, 81750, Note_on_c, 4, 78, 0
6, 81780, Note_on_c, 4, 79, 86
6, 81810, Note_on_c, 4, 79, 0
6, 81840, Note_on_c, 4, 62, 0
6, 81840, Note_on_c, 4, 69, 0
6, 81840, Note_on_c, 4, 74, 0
6, 81840, Note_on_c, 4, 81, 86
6, 81870, Note_on_c, 4, 81, 0
6, 81900, Note_on_c, 4, 74, 101
6, 82020, Note_on_c, 4, 74, 0
6, 82800, Note_on_c, 4, 77, 80
6, 82800, Note_on_c, 4, 74, 70
6, 82800, Note_on_c, 4, 70, 78
6, 82800, Note_on_c, 4, 65, 78
6, 82830, Note_on_c, 4, 77, 0
6, 82830, Note_on_c, 4, 82, 81
6, 82860, Note_on_c, 4, 82, 0
6, 82860, Note_on_c, 4, 86, 99
6, 82890, Note_on_c, 4, 86, 0
6, 82890, Note_on_c, 4, 89, 94
6, 82920, Note_on_c, 4, 89, 0
6, 82920, Note_on_c, 4, 65, 0
6, 82920, Note_on_c, 4, 70, 0
6, 82920, Note_on_c, 4, 74, 0
6, 82920, Note_on_c, 4, 77, 76
6, 82920, Note_on_c, 4, 74, 76
6, 82920, Note_on_c, 4, 70, 80
6, 82920, Note_on_c, 4, 65, 81
6, 82950, Note_on_c, 4, 77, 0
6, 82950, Note_on_c, 4, 89, 84
6, 82980, Note_on_c, 4, 89, 0
6, 82980, Note_on_c, 4, 65, 0
6, 82980, Note_on_c, 4, 70, 0
6, 82980, Note_on_c, 4, 74, 0
6, 82980, Note_on_c, 4, 77, 80
6, 82980, Note_on_c, 4, 72, 31
6, 82980, Note_on_c, 4, 69, 86
6, 82980, Note_on_c, 4, 63, 78
6, 83010, Note_on_c, 4, 77, 0
6, 83010, Note_on_c, 4, 81, 90
6, 83040, Note_on_c, 4, 81, 0
6, 83040, Note_on_c, 4, 84, 94
6, 83070, Note_on_c, 4, 84, 0
6, 83070, Note_on_c, 4, 89, 94
6, 83100, Note_on_c, 4, 89, 0
6, 83100, Note_on_c, 4, 63, 0
6, 83100, Note_on_c, 4, 69, 0
6, 83100, Note_on_c, 4, 72, 0
6, 83100, Note_on_c, 4, 63, 72
6, 83100, Note_on_c, 4, 69, 84
6, 83100, Note_on_c, 4, 72, 44
6, 83100, Note_on_c, 4, 77, 81
6, 83130, Note_on_c, 4, 77, 0
6, 83130, Note_on_c, 4, 89, 86
6, 83160, Note_on_c, 4, 89, 0
6, 83160, Note_on_c, 4, 72, 0
6, 83160, Note_on_c, 4, 69, 0
6, 83160, Note_on_c, 4, 63, 0
6, 83160, Note_on_c, 4, 77, 80
6, 83160, Note_on_c, 4, 70, 74
6, 83160, Note_on_c, 4, 62, 89
6, 83190, Note_on_c, 4, 77, 0
6, 83190, Note_on_c, 4, 82, 82
6, 83220, Note_on_c, 4, 82, 0
6, 83220, Note_on_c, 4, 62, 0
6, 83220, Note_on_c, 4, 70, 0
6, 83220, Note_on_c, 4, 86, 94
6, 83220, Note_on_c, 4, 70, 77
6, 83220, Note_on_c, 4, 62, 89
6, 83250, Note_on_c, 4, 86, 0
6, 83250, Note_on_c, 4, 89, 93
6, 83280, Note_on_c, 4, 89, 0
6, 83280, Note_on_c, 4, 62, 0
6, 83280, Note_on_c, 4, 70, 0
6, 83280, Note_on_c, 4, 77, 81
6, 83280, Note_on_c, 4, 74, 89
6, 83280, Note_on_c, 4, 70, 84
6, 83310, Note_on_c, 4, 77, 0
6, 83310, Note_on_c, 4, 89, 94
6, 83340, Note_on_c, 4, 89, 0
6, 83340, Note_on_c, 4, 70, 0
6, 83340, Note_on_c, 4, 74, 0
6, 83340, Note_on_c, 4, 89, 90
6, 83340, Note_on_c, 4, 77, 73
6, 83340, Note_on_c, 4, 72, 59
6, 83340, Note_on_c, 4, 69, 98
6, 83340, Note_on_c, 4, 65, 85
6, 83460, Note_on_c, 4, 65, 0
6, 83460, Note_on_c, 4, 72, 0
6, 83460, Note_on_c, 4, 89, 0
6, 83460, Note_on_c, 4, 77, 0
6, 83460, Note_on_c, 4, 69, 0
6, 84240, Note_on_c, 4, 81, 82
6, 84240, Note_on_c, 4, 65, 84
6, 84240, Note_on_c, 4, 60, 80
6, 84240, Note_on_c, 4, 57, 98
6, 84270, Note_on_c, 4, 81, 0
6, 84270, Note_on_c, 4, 89, 95
6, 84300, Note_on_c, 4, 89, 0
6, 84300, Note_on_c, 4, 84, 89
6, 84330, Note_on_c, 4, 84, 0
6, 84330, Note_on_c, 4, 81, 84
6, 84360, Note_on_c, 4, 81, 0
6, 84360, Note_on_c, 4, 57, 0
6, 84360, Note_on_c, 4, 60, 0
6, 84360, Note_on_c, 4, 65, 0
6, 84360, Note_on_c, 4, 79, 76
6, 84360, Note_on_c, 4, 67, 66
6, 84360, Note_on_c, 4, 62, 84
6, 84360, Note_on_c, 4, 58, 80
6, 84390, Note_on_c, 4, 79, 0
6, 84390, Note_on_c, 4, 86, 94
6, 84420, Note_on_c, 4, 86, 0
6, 84420, Note_on_c, 4, 58, 0
6, 84420, Note_on_c, 4, 62, 0
6, 84420, Note_on_c, 4, 67, 0
6, 84420, Note_on_c, 4, 77, 81
6, 84420, Note_on_c, 4, 69, 62
6, 84420, Note_on_c, 4, 65, 82
6, 84420, Note_on_c, 4, 60, 74
6, 84450, Note_on_c, 4, 77, 0
6, 84450, Note_on_c, 4, 84, 94
6, 84480, Note_on_c, 4, 84, 0
6, 84480, Note_on_c, 4, 81, 94
6, 84510, Note_on_c, 4, 81, 0
6, 84510, Note_on_c, 4, 77, 72
6, 84540, Note_on_c, 4, 77, 0
6, 84540, Note_on_c, 4, 60, 0
6, 84540, Note_on_c, 4, 65, 0
6, 84540, Note_on_c, 4, 69, 0
6, 84540, Note_on_c, 4, 60, 80
6, 84540, Note_on_c, 4, 65, 82
6, 84540, Note_on_c, 4, 69, 65
6, 84540, Note_on_c, 4, 82, 93
6, 84570, Note_on_c, 4, 82, 0
6, 84570, Note_on_c, 4, 76, 89
6, 84600, Note_on_c, 4, 76, 0
6, 84600, Note_on_c, 4, 69, 0
6, 84600, Note_on_c, 4, 65, 0
6, 84600, Note_on_c, 4, 60, 0
6, 84600, Note_on_c, 4, 77, 89
6, 84600, Note_on_c, 4, 69, 76
6, 84600, Note_on_c, 4, 65, 80
6, 84720, Note_on_c, 4, 65, 0
6, 84720, Note_on_c, 4, 69, 0
6, 84720, Note_on_c, 4, 77, 0
6, 85620, Note_on_c, 4, 77, 99
6, 85680, Note_on_c, 4, 77, 0
6, 85680, Note_on_c, 4, 87, 104
6, 85680, Note_on_c, 4, 57, 94
6, 85700, Note_on_c, 4, 87, 0
6, 85700, Note_on_c, 4, 89, 105
6, 85710, Note_on_c, 4, 57, 0
6, 85710, Note_on_c, 4, 65, 89
6, 85720, Note_on_c, 4, 89, 0
6, 85720, Note_on_c, 4, 87, 101
6, 85740, Note_on_c, 4, 87, 0
6, 85740, Note_on_c, 4, 65, 0
6, 85740, Note_on_c, 4, 86, 104
6, 85740, Note_on_c, 4, 60, 93
6, 85770, Note_on_c, 4, 60, 0
6, 85770, Note_on_c, 4, 86, 0
6, 85770, Note_on_c, 4, 87, 101
6, 85770, Note_on_c, 4, 65, 93
6, 85800, Note_on_c, 4, 65, 0
6, 85800, Note_on_c, 4, 87, 0
6, 85800, Note_on_c, 4, 84, 90
6, 85800, Note_on_c, 4, 57, 95
6, 85830, Note_on_c, 4, 57, 0
6, 85830, Note_on_c, 4, 84, 0
6, 85830, Note_on_c, 4, 65, 86
6, 85860, Note_on_c, 4, 65, 0
6, 85860, Note_on_c, 4, 87, 104
6, 85860, Note_on_c, 4, 57, 86
6, 85880, Note_on_c, 4, 87, 0
6, 85880, Note_on_c, 4, 89, 105
6, 85890, Note_on_c, 4, 57, 0
6, 85890, Note_on_c, 4, 65, 86
6, 85900, Note_on_c, 4, 89, 0
6, 85900, Note_on_c, 4, 87, 99
6, 85920, Note_on_c, 4, 87, 0
6, 85920, Note_on_c, 4, 65, 0
6, 85920, Note_on_c, 4, 86, 99
6, 85920, Note_on_c, 4, 60, 90
6, 85950, Note_on_c, 4, 60, 0
6, 85950, Note_on_c, 4, 86, 0
6, 85950, Note_on_c, 4, 87, 95
6, 85950, Note_on_c, 4, 65, 104
6, 85980, Note_on_c, 4, 65, 0
6, 85980, Note_on_c, 4, 87, 0
6, 85980, Note_on_c, 4, 84, 99
6, 85980, Note_on_c, 4, 57, 99
6, 86010, Note_on_c, 4, 57, 0
6, 86010, Note_on_c, 4, 84, 0
6, 86010, Note_on_c, 4, 65, 90
6, 86040, Note_on_c, 4, 65, 0
6, 86040, Note_on_c, 4, 86, 101
6, 86040, Note_on_c, 4, 58, 89
6, 86100, Note_on_c, 4, 86, 0
6, 86100, Note_on_c, 4, 89, 89
6, 86160, Note_on_c, 4, 89, 0
6, 86160, Note_on_c, 4, 58, 0
6, 86160, Note_on_c, 4, 86, 81
6, 86190, Note_on_c, 4, 86, 0
6, 86220, Note_on_c, 4, 82, 81
6, 86250, Note_on_c, 4, 82, 0
6, 86280, Note_on_c, 4, 77, 99
6, 86310, Note_on_c, 4, 77, 0
6, 86340, Note_on_c, 4, 74, 99
6, 86370, Note_on_c, 4, 74, 0
6, 86400, Note_on_c, 4, 72, 84
6, 86520, Note_on_c, 4, 72, 0
6, 87060, Note_on_c, 4, 77, 99
6, 87120, Note_on_c, 4, 77, 0
6, 87120, Note_on_c, 4, 87, 104
6, 87120, Note_on_c, 4, 57, 94
6, 87140, Note_on_c, 4, 87, 0
6, 87140, Note_on_c, 4, 89, 105
6, 87150, Note_on_c, 4, 57, 0
6, 87150, Note_on_c, 4, 65, 89
6, 87160, Note_on_c, 4, 89, 0
6, 87160, Note_on_c, 4, 87, 101
6, 87180, Note_on_c, 4, 87, 0
6, 87180, Note_on_c, 4, 65, 0
6, 87180, Note_on_c, 4, 86, 104
6, 87180, Note_on_c, 4, 60, 93
6, 87210, Note_on_c, 4, 60, 0
6, 87210, Note_on_c, 4, 86, 0
6, 87210, Note_on_c, 4, 87, 101
6, 87210, Note_on_c, 4, 65, 93
6, 87240, Note_on_c, 4, 65, 0
6, 87240, Note_on_c, 4, 87, 0
6, 87240, Note_on_c, 4, 84, 90
6, 87240, Note_on_c, 4, 57, 95
6, 87270, Note_on_c, 4, 57, 0
6, 87270, Note_on_c, 4, 84, 0
6, 87270, Note_on_c, 4, 65, 86
6, 87300, Note_on_c, 4, 65, 0
6, 87300, Note_on_c, 4, 87, 104
6, 87300, Note_on_c, 4, 57, 86
6, 87320, Note_on_c, 4, 87, 0
6, 87320, Note_on_c, 4, 89, 105
6, 87330, Note_on_c, 4, 57, 0
6, 87330, Note_on_c, 4, 65, 86
6, 87340, Note_on_c, 4, 89, 0
6, 87340, Note_on_c, 4, 87, 99
6, 87360, Note_on_c, 4, 87, 0
6, 87360, Note_on_c, 4, 65, 0
6, 87360, Note_on_c, 4, 86, 99
6, 87360, Note_on_c, 4, 60, 90
6, 87390, Note_on_c, 4, 60, 0
6, 87390, Note_on_c, 4, 86, 0
6, 87390, Note_on_c, 4, 87, 95
6, 87390, Note_on_c, 4, 65, 104
6, 87420, Note_on_c, 4, 65, 0
6, 87420, Note_on_c, 4, 87, 0
6, 87420, Note_on_c, 4, 84, 99
6, 87420, Note_on_c, 4, 57, 99
6, 87450, Note_on_c, 4, 57, 0
6, 87450, Note_on_c, 4, 84, 0
6, 87450, Note_on_c, 4, 65, 90
6, 87480, Note_on_c, 4, 65, 0
6, 87480, Note_on_c, 4, 86, 101
6, 87480, Note_on_c, 4, 58, 89
6, 87510, Note_on_c, 4, 86, 0
6, 87525, Note_on_c, 4, 88, 105
6, 87540, Note_on_c, 4, 88, 0
6, 87540, Note_on_c, 4, 58, 0
6, 87540, Note_on_c, 4, 89, 90
6, 87540, Note_on_c, 4, 74, 89
6, 87570, Note_on_c, 4, 89, 0
6, 87600, Note_on_c, 4, 74, 0
6, 87600, Note_on_c, 4, 70, 84
6, 87660, Note_on_c, 4, 70, 0
6, 87660, Note_on_c, 4, 84, 89
6, 87660, Note_on_c, 4, 69, 95
6, 87690, Note_on_c, 4, 84, 0
6, 87705, Note_on_c, 4, 88, 99
6, 87720, Note_on_c, 4, 88, 0
6, 87720, Note_on_c, 4, 69, 0
6, 87720, Note_on_c, 4, 89, 94
6, 87720, Note_on_c, 4, 72, 84
6, 87750, Note_on_c, 4, 89, 0
6, 87780, Note_on_c, 4, 72, 0
6, 87780, Note_on_c, 4, 69, 89
6, 87840, Note_on_c, 4, 69, 0
6, 87840, Note_on_c, 4, 82, 90
6, 87840, Note_on_c, 4, 67, 81
6, 87870, Note_on_c, 4, 82, 0
6, 87885, Note_on_c, 4, 88, 95
6, 87900, Note_on_c, 4, 88, 0
6, 87900, Note_on_c, 4, 67, 0
6, 87900, Note_on_c, 4, 89, 93
6, 87900, Note_on_c, 4, 70, 77
6, 87930, Note_on_c, 4, 89, 0
6, 87960, Note_on_c, 4, 70, 0
6, 87960, Note_on_c, 4, 67, 84
6, 88020, Note_on_c, 4, 67, 0
6, 88020, Note_on_c, 4, 81, 98
6, 88020, Note_on_c, 4, 65, 93
6, 88050, Note_on_c, 4, 81, 0
6, 88065, Note_on_c, 4, 88, 94
6, 88080, Note_on_c, 4, 88, 0
6, 88080, Note_on_c, 4, 65, 0
6, 88080, Note_on_c, 4, 89, 86
6, 88080, Note_on_c, 4, 69, 89
6, 88110, Note_on_c, 4, 89, 0
6, 88140, Note_on_c, 4, 69, 0
6, 88140, Note_on_c, 4, 65, 89
6, 88200, Note_on_c, 4, 65, 0
6, 88200, Note_on_c, 4, 79, 95
6, 88200, Note_on_c, 4, 63, 89
6, 88230, Note_on_c, 4, 79, 0
6, 88245, Note_on_c, 4, 88, 99
6, 88260, Note_on_c, 4, 88, 0
6, 88260, Note_on_c, 4, 63, 0
6, 88260, Note_on_c, 4, 89, 93
6, 88260, Note_on_c, 4, 67, 80
6, 88290, Note_on_c, 4, 89, 0
6, 88320, Note_on_c, 4, 67, 0
6, 88320, Note_on_c, 4, 63, 82
6, 88380, Note_on_c, 4, 63, 0
6, 88380, Note_on_c, 4, 77, 94
6, 88380, Note_on_c, 4, 62, 80
6, 88410, Note_on_c, 4, 77, 0
6, 88425, Note_on_c, 4, 88, 98
6, 88440, Note_on_c, 4, 88, 0
6, 88440, Note_on_c, 4, 62, 0
6, 88440, Note_on_c, 4, 89, 90
6, 88440, Note_on_c, 4, 65, 93
6, 88470, Note_on_c, 4, 89, 0
6, 88500, Note_on_c, 4, 65, 0
6, 88500, Note_on_c, 4, 62, 80
6, 88560, Note_on_c, 4, 62, 0
6, 88560, Note_on_c, 4, 75, 94
6, 88560, Note_on_c, 4, 60, 90
6, 88590, Note_on_c, 4, 75, 0
6, 88605, Note_on_c, 4, 88, 99
6, 88620, Note_on_c, 4, 88, 0
6, 88620, Note_on_c, 4, 60, 0
6, 88620, Note_on_c, 4, 89, 89
6, 88620, Note_on_c, 4, 63, 84
6, 88650, Note_on_c, 4, 89, 0
6, 88680, Note_on_c, 4, 63, 0
6, 88680, Note_on_c, 4, 60, 98
6, 88740, Note_on_c, 4, 60, 0
6, 88740, Note_on_c, 4, 74, 105
6, 88740, Note_on_c, 4, 58, 93
6, 88770, Note_on_c, 4, 74, 0
6, 88785, Note_on_c, 4, 88, 98
6, 88800, Note_on_c, 4, 88, 0
6, 88800, Note_on_c, 4, 58, 0
6, 88800, Note_on_c, 4, 89, 94
6, 88800, Note_on_c, 4, 62, 85
6, 88830, Note_on_c, 4, 89, 0
6, 88860, Note_on_c, 4, 62, 0
6, 88860, Note_on_c, 4, 58, 86
6, 88920, Note_on_c, 4, 58, 0
6, 88920, Note_on_c, 4, 72, 72
6, 88920, Note_on_c, 4, 51, 93
6, 88980, Note_on_c, 4, 51, 0
6, 88980, Note_on_c, 4, 72, 0
6, 88980, Note_on_c, 4, 74, 94
6, 88980, Note_on_c, 4, 55, 93
6, 89040, Note_on_c, 4, 55, 0
6, 89040, Note_on_c, 4, 74, 0
6, 89040, Note_on_c, 4, 75, 94
6, 89040, Note_on_c, 4, 60, 84
6, 89100, Note_on_c, 4, 60, 0
6, 89100, Note_on_c, 4, 75, 0
6, 89100, Note_on_c, 4, 77, 84
6, 89100, Note_on_c, 4, 51, 95
6, 89160, Note_on_c, 4, 51, 0
6, 89160, Note_on_c, 4, 77, 0
6, 89160, Note_on_c, 4, 78, 90
6, 89160, Note_on_c, 4, 55, 95
6, 89220, Note_on_c, 4, 55, 0
6, 89220, Note_on_c, 4, 78, 0
6, 89220, Note_on_c, 4, 79, 119
6, 89220, Note_on_c, 4, 60, 93
6, 89280, Note_on_c, 4, 60, 0
6, 89280, Note_on_c, 4, 53, 93
6, 89340, Note_on_c, 4, 53, 0
6, 89340, Note_on_c, 4, 79, 0
6, 89340, Note_on_c, 4, 77, 84
6, 89340, Note_on_c, 4, 58, 86
6, 89400, Note_on_c, 4, 58, 0
6, 89400, Note_on_c, 4, 77, 0
6, 89400, Note_on_c, 4, 74, 104
6, 89400, Note_on_c, 4, 62, 82
6, 89430, Note_on_c, 4, 74, 0
6, 89460, Note_on_c, 4, 62, 0
6, 89460, Note_on_c, 4, 77, 78
6, 89460, Note_on_c, 4, 53, 93
6, 89520, Note_on_c, 4, 53, 0
6, 89520, Note_on_c, 4, 77, 0
6, 89520, Note_on_c, 4, 75, 86
6, 89520, Note_on_c, 4, 60, 95
6, 89580, Note_on_c, 4, 60, 0
6, 89580, Note_on_c, 4, 75, 0
6, 89580, Note_on_c, 4, 63, 81
6, 89580, Note_on_c, 4, 72, 62
6, 89610, Note_on_c, 4, 72, 0
6, 89640, Note_on_c, 4, 63, 0
6, 89640, Note_on_c, 4, 86, 95
6, 89640, Note_on_c, 4, 58, 84
6, 89670, Note_on_c, 4, 86, 0
6, 89670, Note_on_c, 4, 89, 99
6, 89700, Note_on_c, 4, 89, 0
6, 89700, Note_on_c, 4, 58, 0
6, 89700, Note_on_c, 4, 88, 99
6, 89700, Note_on_c, 4, 62, 73
6, 89730, Note_on_c, 4, 88, 0
6, 89730, Note_on_c, 4, 89, 99
6, 89760, Note_on_c, 4, 89, 0
6, 89760, Note_on_c, 4, 62, 0
6, 89760, Note_on_c, 4, 86, 94
6, 89760, Note_on_c, 4, 58, 94
6, 89790, Note_on_c, 4, 86, 0
6, 89790, Note_on_c, 4, 89, 94
6, 89820, Note_on_c, 4, 89, 0
6, 89820, Note_on_c, 4, 58, 0
6, 89820, Note_on_c, 4, 84, 80
6, 89820, Note_on_c, 4, 57, 99
6, 89850, Note_on_c, 4, 84, 0
6, 89850, Note_on_c, 4, 89, 93
6, 89880, Note_on_c, 4, 89, 0
6, 89880, Note_on_c, 4, 57, 0
6, 89880, Note_on_c, 4, 88, 89
6, 89880, Note_on_c, 4, 60, 85
6, 89910, Note_on_c, 4, 88, 0
6, 89910, Note_on_c, 4, 89, 93
6, 89940, Note_on_c, 4, 89, 0
6, 89940, Note_on_c, 4, 60, 0
6, 89940, Note_on_c, 4, 57, 99
6, 89940, Note_on_c, 4, 84, 71
6, 89970, Note_on_c, 4, 84, 0
6, 89970, Note_on_c, 4, 89, 84
6, 90000, Note_on_c, 4, 89, 0
6, 90000, Note_on_c, 4, 57, 0
6, 90000, Note_on_c, 4, 82, 81
6, 90000, Note_on_c, 4, 55, 86
6, 90030, Note_on_c, 4, 82, 0
6, 90030, Note_on_c, 4, 89, 99
6, 90060, Note_on_c, 4, 89, 0
6, 90060, Note_on_c, 4, 55, 0
6, 90060, Note_on_c, 4, 88, 104
6, 90060, Note_on_c, 4, 58, 86
6, 90090, Note_on_c, 4, 88, 0
6, 90090, Note_on_c, 4, 89, 94
6, 90120, Note_on_c, 4, 89, 0
6, 90120, Note_on_c, 4, 58, 0
6, 90120, Note_on_c, 4, 82, 74
6, 90120, Note_on_c, 4, 55, 86
6, 90150, Note_on_c, 4, 82, 0
6, 90150, Note_on_c, 4, 89, 101
6, 90180, Note_on_c, 4, 89, 0
6, 90180, Note_on_c, 4, 55, 0
6, 90180, Note_on_c, 4, 81, 90
6, 90180, Note_on_c, 4, 53, 90
6, 90210, Note_on_c, 4, 81, 0
6, 90210, Note_on_c, 4, 89, 98
6, 90240, Note_on_c, 4, 89, 0
6, 90240, Note_on_c, 4, 53, 0
6, 90240, Note_on_c, 4, 88, 99
6, 90240, Note_on_c, 4, 57, 94
6, 90270, Note_on_c, 4, 88, 0
6, 90270, Note_on_c, 4, 89, 98
6, 90300, Note_on_c, 4, 89, 0
6, 90300, Note_on_c, 4, 57, 0
6, 90300, Note_on_c, 4, 53, 95
6, 90300, Note_on_c, 4, 81, 93
6, 90330, Note_on_c, 4, 81, 0
6, 90330, Note_on_c, 4, 89, 99
6, 90360, Note_on_c, 4, 89, 0
6, 90360, Note_on_c, 4, 53, 0
6, 90360, Note_on_c, 4, 79, 80
6, 90360, Note_on_c, 4, 51, 89
6, 90390, Note_on_c, 4, 79, 0
6, 90390, Note_on_c, 4, 89, 105
6, 90420, Note_on_c, 4, 89, 0
6, 90420, Note_on_c, 4, 51, 0
6, 90420, Note_on_c, 4, 88, 98
6, 90420, Note_on_c, 4, 55, 81
6, 90450, Note_on_c, 4, 88, 0
6, 90450, Note_on_c, 4, 89, 104
6, 90480, Note_on_c, 4, 89, 0
6, 90480, Note_on_c, 4, 55, 0
6, 90480, Note_on_c, 4, 79, 81
6, 90480, Note_on_c, 4, 51, 94
6, 90510, Note_on_c, 4, 79, 0
6, 90510, Note_on_c, 4, 89, 99
6, 90540, Note_on_c, 4, 89, 0
6, 90540, Note_on_c, 4, 51, 0
6, 90540, Note_on_c, 4, 77, 80
6, 90540, Note_on_c, 4, 50, 99
6, 90570, Note_on_c, 4, 77, 0
6, 90570, Note_on_c, 4, 89, 101
6, 90600, Note_on_c, 4, 89, 0
6, 90600, Note_on_c, 4, 50, 0
6, 90600, Note_on_c, 4, 88, 99
6, 90600, Note_on_c, 4, 53, 85
6, 90630, Note_on_c, 4, 88, 0
6, 90630, Note_on_c, 4, 89, 99
6, 90660, Note_on_c, 4, 89, 0
6, 90660, Note_on_c, 4, 53, 0
6, 90660, Note_on_c, 4, 50, 93
6, 90660, Note_on_c, 4, 77, 80
6, 90690, Note_on_c, 4, 77, 0
6, 90690, Note_on_c, 4, 89, 99
6, 90720, Note_on_c, 4, 89, 0
6, 90720, Note_on_c, 4, 50, 0
6, 90720, Note_on_c, 4, 75, 89
6, 90720, Note_on_c, 4, 48, 98
6, 90750, Note_on_c, 4, 75, 0
6, 90750, Note_on_c, 4, 89, 90
6, 90780, Note_on_c, 4, 89, 0
6, 90780, Note_on_c, 4, 48, 0
6, 90780, Note_on_c, 4, 88, 104
6, 90780, Note_on_c, 4, 51, 85
6, 90810, Note_on_c, 4, 88, 0
6, 90810, Note_on_c, 4, 89, 94
6, 90840, Note_on_c, 4, 89, 0
6, 90840, Note_on_c, 4, 51, 0
6, 90840, Note_on_c, 4, 75, 105
6, 90840, Note_on_c, 4, 48, 95
6, 90870, Note_on_c, 4, 75, 0
6, 90870, Note_on_c, 4, 89, 94
6, 90900, Note_on_c, 4, 89, 0
6, 90900, Note_on_c, 4, 48, 0
6, 90900, Note_on_c, 4, 74, 94
6, 90900, Note_on_c, 4, 46, 86
6, 90930, Note_on_c, 4, 74, 0
6, 90930, Note_on_c, 4, 89, 99
6, 90960, Note_on_c, 4, 89, 0
6, 90960, Note_on_c, 4, 46, 0
6, 90960, Note_on_c, 4, 88, 99
6, 90960, Note_on_c, 4, 50, 89
6, 90990, Note_on_c, 4, 88, 0
6, 90990, Note_on_c, 4, 89, 98
6, 91020, Note_on_c, 4, 89, 0
6, 91020, Note_on_c, 4, 50, 0
6, 91020, Note_on_c, 4, 46, 90
6, 91020, Note_on_c, 4, 74, 95
6, 91050, Note_on_c, 4, 74, 0
6, 91050, Note_on_c, 4, 89, 99
6, 91080, Note_on_c, 4, 89, 0
6, 91080, Note_on_c, 4, 46, 0
6, 91080, Note_on_c, 4, 72, 93
6, 91080, Note_on_c, 4, 39, 94
6, 91110, Note_on_c, 4, 39, 0
6, 91110, Note_on_c, 4, 43, 94
6, 91140, Note_on_c, 4, 43, 0
6, 91140, Note_on_c, 4, 45, 95
6, 91170, Note_on_c, 4, 45, 0
6, 91170, Note_on_c, 4, 47, 77
6, 91200, Note_on_c, 4, 47, 0
6, 91200, Note_on_c, 4, 72, 0
6, 91200, Note_on_c, 4, 48, 98
6, 91230, Note_on_c, 4, 48, 0
6, 91230, Note_on_c, 4, 50, 99
6, 91260, Note_on_c, 4, 50, 0
6, 91260, Note_on_c, 4, 60, 82
6, 91260, Note_on_c, 4, 51, 89
6, 91290, Note_on_c, 4, 60, 0
6, 91290, Note_on_c, 4, 63, 85
6, 91320, Note_on_c, 4, 63, 0
6, 91320, Note_on_c, 4, 65, 93
6, 91350, Note_on_c, 4, 65, 0
6, 91350, Note_on_c, 4, 67, 89
6, 91380, Note_on_c, 4, 67, 0
6, 91380, Note_on_c, 4, 51, 0
6, 91380, Note_on_c, 4, 69, 95
6, 91410, Note_on_c, 4, 69, 0
6, 91410, Note_on_c, 4, 71, 99
6, 91440, Note_on_c, 4, 71, 0
6, 91440, Note_on_c, 4, 72, 99
6, 91440, Note_on_c, 4, 51, 99
6, 91470, Note_on_c, 4, 51, 0
6, 91470, Note_on_c, 4, 55, 90
6, 91500, Note_on_c, 4, 55, 0
6, 91500, Note_on_c, 4, 57, 104
6, 91530, Note_on_c, 4, 57, 0
6, 91530, Note_on_c, 4, 59, 89
6, 91560, Note_on_c, 4, 59, 0
6, 91560, Note_on_c, 4, 72, 0
6, 91560, Note_on_c, 4, 60, 90
6, 91590, Note_on_c, 4, 60, 0
6, 91590, Note_on_c, 4, 62, 94
6, 91620, Note_on_c, 4, 62, 0
6, 91620, Note_on_c, 4, 72, 65
6, 91620, Note_on_c, 4, 63, 94
6, 91650, Note_on_c, 4, 72, 0
6, 91650, Note_on_c, 4, 75, 95
6, 91680, Note_on_c, 4, 75, 0
6, 91680, Note_on_c, 4, 77, 95
6, 91710, Note_on_c, 4, 77, 0
6, 91710, Note_on_c, 4, 79, 93
6, 91740, Note_on_c, 4, 79, 0
6, 91740, Note_on_c, 4, 63, 0
6, 91740, Note_on_c, 4, 81, 94
6, 91770, Note_on_c, 4, 81, 0
6, 91770, Note_on_c, 4, 83, 94
6, 91800, Note_on_c, 4, 83, 0
6, 91800, Note_on_c, 4, 84, 99
6, 91800, Note_on_c, 4, 63, 95
6, 91830, Note_on_c, 4, 63, 0
6, 91830, Note_on_c, 4, 67, 90
6, 91860, Note_on_c, 4, 67, 0
6, 91860, Note_on_c, 4, 69, 95
6, 91890, Note_on_c, 4, 69, 0
6, 91890, Note_on_c, 4, 71, 89
6, 91920, Note_on_c, 4, 71, 0
6, 91920, Note_on_c, 4, 84, 0
6, 91920, Note_on_c, 4, 72, 84
6, 91950, Note_on_c, 4, 72, 0
6, 91950, Note_on_c, 4, 74, 99
6, 91980, Note_on_c, 4, 74, 0
6, 91980, Note_on_c, 4, 79, 86
6, 91980, Note_on_c, 4, 75, 98
6, 92010, Note_on_c, 4, 79, 0
6, 92010, Note_on_c, 4, 81, 93
6, 92040, Note_on_c, 4, 81, 0
6, 92040, Note_on_c, 4, 82, 94
6, 92070, Note_on_c, 4, 82, 0
6, 92070, Note_on_c, 4, 83, 94
6, 92100, Note_on_c, 4, 83, 0
6, 92100, Note_on_c, 4, 75, 0
6, 92100, Note_on_c, 4, 84, 89
6, 92130, Note_on_c, 4, 84, 0
6, 92130, Note_on_c, 4, 86, 99
6, 92160, Note_on_c, 4, 86, 0
6, 92160, Note_on_c, 4, 87, 104
6, 92280, Note_on_c, 4, 87, 0
6, 92520, Note_on_c, 4, 65, 86
6, 92550, Note_on_c, 4, 65, 0
6, 92550, Note_on_c, 4, 69, 84
6, 92580, Note_on_c, 4, 69, 0
6, 92580, Note_on_c, 4, 72, 65
6, 92610, Note_on_c, 4, 72, 0
6, 92610, Note_on_c, 4, 75, 73
6, 92640, Note_on_c, 4, 75, 0
6, 92700, Note_on_c, 4, 80, 78
6, 92730, Note_on_c, 4, 80, 0
6, 92730, Note_on_c, 4, 81, 81
6, 92760, Note_on_c, 4, 81, 0
6, 92760, Note_on_c, 4, 82, 76
6, 92790, Note_on_c, 4, 82, 0
6, 92790, Note_on_c, 4, 83, 61
6, 92820, Note_on_c, 4, 83, 0
6, 92820, Note_on_c, 4, 84, 62
6, 92840, Note_on_c, 4, 84, 0
6, 92840, Note_on_c, 4, 85, 62
6, 92860, Note_on_c, 4, 85, 0
6, 92860, Note_on_c, 4, 86, 42
6, 92880, Note_on_c, 4, 86, 0
6, 92880, Note_on_c, 4, 87, 64
6, 93000, Note_on_c, 4, 87, 0
6, 93240, Note_on_c, 4, 66, 46
6, 93270, Note_on_c, 4, 66, 0
6, 93270, Note_on_c, 4, 69, 64
6, 93300, Note_on_c, 4, 69, 0
6, 93300, Note_on_c, 4, 72, 63
6, 93330, Note_on_c, 4, 72, 0
6, 93330, Note_on_c, 4, 74, 64
6, 93360, Note_on_c, 4, 74, 0
6, 93420, Note_on_c, 4, 80, 66
6, 93450, Note_on_c, 4, 80, 0
6, 93450, Note_on_c, 4, 81, 62
6, 93480, Note_on_c, 4, 81, 0
6, 93480, Note_on_c, 4, 82, 57
6, 93510, Note_on_c, 4, 82, 0
6, 93510, Note_on_c, 4, 83, 62
6, 93540, Note_on_c, 4, 83, 0
6, 93540, Note_on_c, 4, 84, 62
6, 93570, Note_on_c, 4, 84, 0
6, 93570, Note_on_c, 4, 85, 65
6, 93600, Note_on_c, 4, 85, 0
6, 93600, Note_on_c, 4, 86, 53
6, 93720, Note_on_c, 4, 86, 0
6, 93900, Note_on_c, 4, 83, 73
6, 93960, Note_on_c, 4, 83, 0
6, 93960, Note_on_c, 4, 79, 76
6, 93960, Note_on_c, 4, 55, 69
6, 93990, Note_on_c, 4, 55, 0
6, 93990, Note_on_c, 4, 62, 65
6, 94020, Note_on_c, 4, 62, 0
6, 94020, Note_on_c, 4, 79, 0
6, 94020, Note_on_c, 4, 59, 74
6, 94050, Note_on_c, 4, 59, 0
6, 94050, Note_on_c, 4, 62, 45
6, 94080, Note_on_c, 4, 62, 0
6, 94080, Note_on_c, 4, 83, 77
6, 94080, Note_on_c, 4, 59, 71
6, 94110, Note_on_c, 4, 59, 0
6, 94110, Note_on_c, 4, 62, 43
6, 94140, Note_on_c, 4, 62, 0
6, 94140, Note_on_c, 4, 83, 0
6, 94140, Note_on_c, 4, 79, 65
6, 94140, Note_on_c, 4, 55, 55
6, 94170, Note_on_c, 4, 55, 0
6, 94170, Note_on_c, 4, 62, 62
6, 94200, Note_on_c, 4, 62, 0
6, 94200, Note_on_c, 4, 79, 0
6, 94200, Note_on_c, 4, 59, 58
6, 94230, Note_on_c, 4, 59, 0
6, 94230, Note_on_c, 4, 62, 46
6, 94260, Note_on_c, 4, 62, 0
6, 94260, Note_on_c, 4, 83, 69
6, 94260, Note_on_c, 4, 59, 65
6, 94290, Note_on_c, 4, 59, 0
6, 94290, Note_on_c, 4, 83, 0
6, 94290, Note_on_c, 4, 62, 52
6, 94305, Note_on_c, 4, 81, 69
6, 94320, Note_on_c, 4, 81, 0
6, 94320, Note_on_c, 4, 62, 0
6, 94320, Note_on_c, 4, 79, 65
6, 94320, Note_on_c, 4, 59, 69
6, 94350, Note_on_c, 4, 59, 0
6, 94350, Note_on_c, 4, 62, 61
6, 94380, Note_on_c, 4, 62, 0
6, 94380, Note_on_c, 4, 79, 0
6, 94380, Note_on_c, 4, 78, 77
6, 94380, Note_on_c, 4, 57, 73
6, 94410, Note_on_c, 4, 57, 0
6, 94410, Note_on_c, 4, 62, 52
6, 94440, Note_on_c, 4, 62, 0
6, 94440, Note_on_c, 4, 78, 0
6, 94440, Note_on_c, 4, 79, 76
6, 94440, Note_on_c, 4, 55, 57
6, 94470, Note_on_c, 4, 55, 0
6, 94470, Note_on_c, 4, 79, 0
6, 94470, Note_on_c, 4, 62, 56
6, 94500, Note_on_c, 4, 62, 0
6, 94500, Note_on_c, 4, 81, 71
6, 94500, Note_on_c, 4, 54, 58
6, 94530, Note_on_c, 4, 54, 0
6, 94530, Note_on_c, 4, 62, 58
6, 94560, Note_on_c, 4, 62, 0
6, 94560, Note_on_c, 4, 52, 67
6, 94590, Note_on_c, 4, 52, 0
6, 94590, Note_on_c, 4, 62, 65
6, 94620, Note_on_c, 4, 62, 0
6, 94620, Note_on_c, 4, 81, 0
6, 94620, Note_on_c, 4, 84, 74
6, 94620, Note_on_c, 4, 50, 69
6, 94650, Note_on_c, 4, 50, 0
6, 94650, Note_on_c, 4, 62, 65
6, 94680, Note_on_c, 4, 62, 0
6, 94680, Note_on_c, 4, 84, 0
6, 94680, Note_on_c, 4, 81, 85
6, 94680, Note_on_c, 4, 50, 70
6, 94710, Note_on_c, 4, 50, 0
6, 94710, Note_on_c, 4, 62, 70
6, 94740, Note_on_c, 4, 62, 0
6, 94740, Note_on_c, 4, 81, 0
6, 94740, Note_on_c, 4, 57, 77
6, 94770, Note_on_c, 4, 57, 0
6, 94770, Note_on_c, 4, 62, 64
6, 94800, Note_on_c, 4, 62, 0
6, 94800, Note_on_c, 4, 84, 78
6, 94800, Note_on_c, 4, 57, 72
6, 94830, Note_on_c, 4, 57, 0
6, 94830, Note_on_c, 4, 62, 65
6, 94860, Note_on_c, 4, 62, 0
6, 94860, Note_on_c, 4, 84, 0
6, 94860, Note_on_c, 4, 81, 86
6, 94860, Note_on_c, 4, 50, 71
6, 94890, Note_on_c, 4, 50, 0
6, 94890, Note_on_c, 4, 62, 63
6, 94920, Note_on_c, 4, 62, 0
6, 94920, Note_on_c, 4, 81, 0
6, 94920, Note_on_c, 4, 57, 80
6, 94950, Note_on_c, 4, 57, 0
6, 94950, Note_on_c, 4, 62, 57
6, 94980, Note_on_c, 4, 62, 0
6, 94980, Note_on_c, 4, 84, 73
6, 94980, Note_on_c, 4, 57, 73
6, 95010, Note_on_c, 4, 57, 0
6, 95010, Note_on_c, 4, 84, 0
6, 95010, Note_on_c, 4, 62, 58
6, 95025, Note_on_c, 4, 83, 80
6, 95040, Note_on_c, 4, 83, 0
6, 95040, Note_on_c, 4, 62, 0
6, 95040, Note_on_c, 4, 81, 78
6, 95040, Note_on_c, 4, 54, 64
6, 95070, Note_on_c, 4, 54, 0
6, 95070, Note_on_c, 4, 62, 65
6, 95100, Note_on_c, 4, 62, 0
6, 95100, Note_on_c, 4, 81, 0
6, 95100, Note_on_c, 4, 79, 74
6, 95100, Note_on_c, 4, 52, 68
6, 95130, Note_on_c, 4, 52, 0
6, 95130, Note_on_c, 4, 62, 66
6, 95160, Note_on_c, 4, 62, 0
6, 95160, Note_on_c, 4, 79, 0
6, 95160, Note_on_c, 4, 81, 72
6, 95160, Note_on_c, 4, 50, 76
6, 95190, Note_on_c, 4, 50, 0
6, 95190, Note_on_c, 4, 81, 0
6, 95190, Note_on_c, 4, 62, 58
6, 95220, Note_on_c, 4, 62, 0
6, 95220, Note_on_c, 4, 83, 74
6, 95220, Note_on_c, 4, 55, 73
6, 95250, Note_on_c, 4, 55, 0
6, 95250, Note_on_c, 4, 62, 61
6, 95280, Note_on_c, 4, 62, 0
6, 95280, Note_on_c, 4, 57, 77
6, 95310, Note_on_c, 4, 57, 0
6, 95310, Note_on_c, 4, 62, 51
6, 95340, Note_on_c, 4, 62, 0
6, 95340, Note_on_c, 4, 83, 0
6, 95340, Note_on_c, 4, 59, 71
6, 95370, Note_on_c, 4, 59, 0
6, 95370, Note_on_c, 4, 62, 64
6, 95400, Note_on_c, 4, 62, 0
6, 95580, Note_on_c, 4, 71, 84
6, 95580, Note_on_c, 4, 59, 74
6, 95610, Note_on_c, 4, 59, 0
6, 95610, Note_on_c, 4, 71, 0
6, 95610, Note_on_c, 4, 74, 94
6, 95610, Note_on_c, 4, 62, 84
6, 95640, Note_on_c, 4, 62, 0
6, 95640, Note_on_c, 4, 74, 0
6, 95640, Note_on_c, 4, 79, 73
6, 95640, Note_on_c, 4, 67, 72
6, 95670, Note_on_c, 4, 67, 0
6, 95670, Note_on_c, 4, 79, 0
6, 95670, Note_on_c, 4, 83, 80
6, 95670, Note_on_c, 4, 71, 77
6, 95700, Note_on_c, 4, 71, 0
6, 95700, Note_on_c, 4, 83, 0
6, 95700, Note_on_c, 4, 86, 76
6, 95700, Note_on_c, 4, 74, 84
6, 95760, Note_on_c, 4, 74, 0
6, 95760, Note_on_c, 4, 86, 0
6, 95940, Note_on_c, 4, 72, 43
6, 95940, Note_on_c, 4, 60, 65
6, 95970, Note_on_c, 4, 60, 0
6, 95970, Note_on_c, 4, 72, 0
6, 95970, Note_on_c, 4, 75, 81
6, 95970, Note_on_c, 4, 63, 74
6, 96000, Note_on_c, 4, 63, 0
6, 96000, Note_on_c, 4, 75, 0
6, 96000, Note_on_c, 4, 79, 78
6, 96000, Note_on_c, 4, 67, 72
6, 96030, Note_on_c, 4, 67, 0
6, 96030, Note_on_c, 4, 79, 0
6, 96030, Note_on_c, 4, 84, 69
6, 96030, Note_on_c, 4, 72, 80
6, 96060, Note_on_c, 4, 72, 0
6, 96060, Note_on_c, 4, 84, 0
6, 96060, Note_on_c, 4, 87, 81
6, 96060, Note_on_c, 4, 75, 82
6, 96120, Note_on_c, 4, 75, 0
6, 96120, Note_on_c, 4, 87, 0
6, 96120, Note_on_c, 4, 87, 80
6, 96120, Note_on_c, 4, 75, 84
6, 96180, Note_on_c, 4, 75, 0
6, 96180, Note_on_c, 4, 87, 0
6, 96180, Note_on_c, 4, 86, 94
6, 96180, Note_on_c, 4, 74, 76
6, 96240, Note_on_c, 4, 74, 0
6, 96240, Note_on_c, 4, 86, 0
6, 96240, Note_on_c, 4, 84, 95
6, 96240, Note_on_c, 4, 72, 68
6, 96300, Note_on_c, 4, 72, 0
6, 96300, Note_on_c, 4, 84, 0
6, 96300, Note_on_c, 4, 82, 89
6, 96300, Note_on_c, 4, 70, 89
6, 96360, Note_on_c, 4, 70, 0
6, 96360, Note_on_c, 4, 82, 0
6, 96360, Note_on_c, 4, 81, 84
6, 96360, Note_on_c, 4, 69, 67
6, 96420, Note_on_c, 4, 69, 0
6, 96420, Note_on_c, 4, 81, 0
6, 96420, Note_on_c, 4, 79, 94
6, 96420, Note_on_c, 4, 67, 94
6, 96480, Note_on_c, 4, 67, 0
6, 96480, Note_on_c, 4, 79, 0
6, 96480, Note_on_c, 4, 77, 89
6, 96480, Note_on_c, 4, 65, 99
6, 96540, Note_on_c, 4, 65, 0
6, 96540, Note_on_c, 4, 77, 0
6, 96540, Note_on_c, 4, 76, 95
6, 96540, Note_on_c, 4, 64, 101
6, 96600, Note_on_c, 4, 64, 0
6, 96600, Note_on_c, 4, 76, 0
6, 96600, Note_on_c, 4, 79, 99
6, 96600, Note_on_c, 4, 67, 81
6, 96660, Note_on_c, 4, 67, 0
6, 96660, Note_on_c, 4, 79, 0
6, 96660, Note_on_c, 4, 77, 95
6, 96660, Note_on_c, 4, 65, 99
6, 96720, Note_on_c, 4, 65, 0
6, 96720, Note_on_c, 4, 77, 0
6, 96720, Note_on_c, 4, 75, 99
6, 96720, Note_on_c, 4, 63, 94
6, 96780, Note_on_c, 4, 63, 0
6, 96780, Note_on_c, 4, 75, 0
6, 96780, Note_on_c, 4, 72, 76
6, 96780, Note_on_c, 4, 60, 99
6, 96840, Note_on_c, 4, 60, 0
6, 96840, Note_on_c, 4, 72, 0
6, 96840, Note_on_c, 4, 70, 95
6, 96840, Note_on_c, 4, 58, 99
6, 96960, Note_on_c, 4, 58, 0
6, 96960, Note_on_c, 4, 70, 0
6, 99720, Note_on_c, 4, 46, 89
6, 99780, Note_on_c, 4, 46, 0
6, 99780, Note_on_c, 4, 50, 95
6, 99840, Note_on_c, 4, 50, 0
6, 99840, Note_on_c, 4, 53, 71
6, 99900, Note_on_c, 4, 53, 0
6, 99900, Note_on_c, 4, 89, 119
6, 99900, Note_on_c, 4, 46, 85
6, 99930, Note_on_c, 4, 89, 0
6, 99930, Note_on_c, 4, 86, 105
6, 99960, Note_on_c, 4, 86, 0
6, 99960, Note_on_c, 4, 46, 0
6, 99960, Note_on_c, 4, 82, 95
6, 99960, Note_on_c, 4, 50, 94
6, 99990, Note_on_c, 4, 82, 0
6, 99990, Note_on_c, 4, 77, 90
6, 100020, Note_on_c, 4, 77, 0
6, 100020, Note_on_c, 4, 50, 0
6, 100020, Note_on_c, 4, 74, 94
6, 100020, Note_on_c, 4, 53, 71
6, 100050, Note_on_c, 4, 74, 0
6, 100050, Note_on_c, 4, 70, 89
6, 100080, Note_on_c, 4, 70, 0
6, 100080, Note_on_c, 4, 53, 0
6, 100080, Note_on_c, 4, 69, 95
6, 100080, Note_on_c, 4, 46, 93
6, 100140, Note_on_c, 4, 46, 0
6, 100140, Note_on_c, 4, 51, 89
6, 100200, Note_on_c, 4, 51, 0
6, 100200, Note_on_c, 4, 69, 0
6, 100200, Note_on_c, 4, 54, 76
6, 100260, Note_on_c, 4, 54, 0
6, 100260, Note_on_c, 4, 87, 115
6, 100260, Note_on_c, 4, 46, 89
6, 100280, Note_on_c, 4, 87, 0
6, 100280, Note_on_c, 4, 84, 99
6, 100300, Note_on_c, 4, 84, 0
6, 100300, Note_on_c, 4, 81, 99
6, 100320, Note_on_c, 4, 81, 0
6, 100320, Note_on_c, 4, 46, 0
6, 100320, Note_on_c, 4, 78, 85
6, 100320, Note_on_c, 4, 51, 89
6, 100350, Note_on_c, 4, 78, 0
6, 100350, Note_on_c, 4, 75, 99
6, 100380, Note_on_c, 4, 75, 0
6, 100380, Note_on_c, 4, 51, 0
6, 100380, Note_on_c, 4, 72, 74
6, 100380, Note_on_c, 4, 54, 77
6, 100410, Note_on_c, 4, 72, 0
6, 100410, Note_on_c, 4, 69, 89
6, 100440, Note_on_c, 4, 69, 0
6, 100440, Note_on_c, 4, 54, 0
6, 100440, Note_on_c, 4, 70, 94
6, 100440, Note_on_c, 4, 46, 85
6, 100500, Note_on_c, 4, 46, 0
6, 100500, Note_on_c, 4, 50, 95
6, 100560, Note_on_c, 4, 50, 0
6, 100560, Note_on_c, 4, 70, 0
6, 100560, Note_on_c, 4, 53, 76
6, 100620, Note_on_c, 4, 53, 0
6, 100620, Note_on_c, 4, 89, 119
6, 100620, Note_on_c, 4, 46, 84
6, 100650, Note_on_c, 4, 89, 0
6, 100650, Note_on_c, 4, 86, 104
6, 100680, Note_on_c, 4, 86, 0
6, 100680, Note_on_c, 4, 46, 0
6, 100680, Note_on_c, 4, 82, 95
6, 100680, Note_on_c, 4, 50, 104
6, 100710, Note_on_c, 4, 82, 0
6, 100710, Note_on_c, 4, 77, 95
6, 100740, Note_on_c, 4, 77, 0
6, 100740, Note_on_c, 4, 50, 0
6, 100740, Note_on_c, 4, 74, 90
6, 100740, Note_on_c, 4, 53, 71
6, 100770, Note_on_c, 4, 74, 0
6, 100770, Note_on_c, 4, 70, 95
6, 100800, Note_on_c, 4, 70, 0
6, 100800, Note_on_c, 4, 53, 0
6, 100800, Note_on_c, 4, 69, 94
6, 100800, Note_on_c, 4, 46, 89
6, 100860, Note_on_c, 4, 46, 0
6, 100860, Note_on_c, 4, 51, 89
6, 100920, Note_on_c, 4, 51, 0
6, 100920, Note_on_c, 4, 69, 0
6, 100920, Note_on_c, 4, 54, 80
6, 100980, Note_on_c, 4, 54, 0
6, 100980, Note_on_c, 4, 87, 119
6, 100980, Note_on_c, 4, 46, 89
6, 101000, Note_on_c, 4, 87, 0
6, 101000, Note_on_c, 4, 84, 101
6, 101020, Note_on_c, 4, 84, 0
6, 101020, Note_on_c, 4, 81, 104
6, 101040, Note_on_c, 4, 81, 0
6, 101040, Note_on_c, 4, 46, 0
6, 101040, Note_on_c, 4, 78, 94
6, 101040, Note_on_c, 4, 51, 93
6, 101070, Note_on_c, 4, 78, 0
6, 101070, Note_on_c, 4, 75, 105
6, 101100, Note_on_c, 4, 75, 0
6, 101100, Note_on_c, 4, 51, 0
6, 101100, Note_on_c, 4, 72, 74
6, 101100, Note_on_c, 4, 54, 76
6, 101130, Note_on_c, 4, 72, 0
6, 101130, Note_on_c, 4, 69, 94
6, 101160, Note_on_c, 4, 69, 0
6, 101160, Note_on_c, 4, 54, 0
6, 101160, Note_on_c, 4, 72, 68
6, 101160, Note_on_c, 4, 53, 76
6, 101160, Note_on_c, 4, 50, 93
6, 101160, Note_on_c, 4, 46, 80
6, 101190, Note_on_c, 4, 72, 0
6, 101190, Note_on_c, 4, 70, 80
6, 101220, Note_on_c, 4, 70, 0
6, 101220, Note_on_c, 4, 69, 78
6, 101250, Note_on_c, 4, 69, 0
6, 101250, Note_on_c, 4, 70, 89
6, 101280, Note_on_c, 4, 70, 0
6, 101280, Note_on_c, 4, 46, 0
6, 101280, Note_on_c, 4, 50, 0
6, 101280, Note_on_c, 4, 53, 0
6, 101280, Note_on_c, 4, 74, 94
6, 101310, Note_on_c, 4, 74, 0
6, 101310, Note_on_c, 4, 70, 90
6, 101340, Note_on_c, 4, 70, 0
6, 101340, Note_on_c, 4, 77, 95
6, 101370, Note_on_c, 4, 77, 0
6, 101370, Note_on_c, 4, 74, 101
6, 101400, Note_on_c, 4, 74, 0
6, 101400, Note_on_c, 4, 82, 90
6, 101430, Note_on_c, 4, 82, 0
6, 101430, Note_on_c, 4, 77, 93
6, 101460, Note_on_c, 4, 77, 0
6, 101460, Note_on_c, 4, 86, 99
6, 101490, Note_on_c, 4, 86, 0
6, 101490, Note_on_c, 4, 82, 94
6, 101520, Note_on_c, 4, 82, 0
6, 101520, Note_on_c, 4, 89, 82
6, 101520, Note_on_c, 4, 86, 89
6, 101520, Note_on_c, 4, 77, 82
6, 101520, Note_on_c, 4, 74, 94
6, 101580, Note_on_c, 4, 74, 0
6, 101580, Note_on_c, 4, 89, 0
6, 101580, Note_on_c, 4, 86, 0
6, 101580, Note_on_c, 4, 77, 0
6, 101580, Note_on_c, 4, 88, 77
6, 101580, Note_on_c, 4, 85, 74
6, 101580, Note_on_c, 4, 76, 84
6, 101580, Note_on_c, 4, 73, 80
6, 101640, Note_on_c, 4, 73, 0
6, 101640, Note_on_c, 4, 88, 0
6, 101640, Note_on_c, 4, 85, 0
6, 101640, Note_on_c, 4, 76, 0
6, 101640, Note_on_c, 4, 87, 89
6, 101640, Note_on_c, 4, 84, 76
6, 101640, Note_on_c, 4, 75, 73
6, 101640, Note_on_c, 4, 72, 72
6, 101700, Note_on_c, 4, 72, 0
6, 101700, Note_on_c, 4, 87, 0
6, 101700, Note_on_c, 4, 84, 0
6, 101700, Note_on_c, 4, 75, 0
6, 101700, Note_on_c, 4, 86, 94
6, 101700, Note_on_c, 4, 83, 76
6, 101700, Note_on_c, 4, 74, 72
6, 101700, Note_on_c, 4, 71, 85
6, 101760, Note_on_c, 4, 71, 0
6, 101760, Note_on_c, 4, 86, 0
6, 101760, Note_on_c, 4, 83, 0
6, 101760, Note_on_c, 4, 74, 0
6, 101760, Note_on_c, 4, 85, 89
6, 101760, Note_on_c, 4, 82, 76
6, 101760, Note_on_c, 4, 73, 68
6, 101760, Note_on_c, 4, 70, 89
6, 101820, Note_on_c, 4, 70, 0
6, 101820, Note_on_c, 4, 85, 0
6, 101820, Note_on_c, 4, 82, 0
6, 101820, Note_on_c, 4, 73, 0
6, 101820, Note_on_c, 4, 84, 89
6, 101820, Note_on_c, 4, 81, 85
6, 101820, Note_on_c, 4, 72, 54
6, 101820, Note_on_c, 4, 69, 90
6, 101880, Note_on_c, 4, 69, 0
6, 101880, Note_on_c, 4, 84, 0
6, 101880, Note_on_c, 4, 81, 0
6, 101880, Note_on_c, 4, 72, 0
6, 101880, Note_on_c, 4, 83, 98
6, 101880, Note_on_c, 4, 80, 77
6, 101880, Note_on_c, 4, 71, 82
6, 101880, Note_on_c, 4, 68, 84
6, 101940, Note_on_c, 4, 68, 0
6, 101940, Note_on_c, 4, 83, 0
6, 101940, Note_on_c, 4, 80, 0
6, 101940, Note_on_c, 4, 71, 0
6, 101940, Note_on_c, 4, 82, 90
6, 101940, Note_on_c, 4, 79, 78
6, 101940, Note_on_c, 4, 70, 73
6, 101940, Note_on_c, 4, 67, 89
6, 102000, Note_on_c, 4, 67, 0
6, 102000, Note_on_c, 4, 82, 0
6, 102000, Note_on_c, 4, 79, 0
6, 102000, Note_on_c, 4, 70, 0
6, 102000, Note_on_c, 4, 81, 99
6, 102000, Note_on_c, 4, 78, 74
6, 102000, Note_on_c, 4, 69, 80
6, 102000, Note_on_c, 4, 66, 89
6, 102060, Note_on_c, 4, 66, 0
6, 102060, Note_on_c, 4, 81, 0
6, 102060, Note_on_c, 4, 78, 0
6, 102060, Note_on_c, 4, 69, 0
6, 102060, Note_on_c, 4, 80, 89
6, 102060, Note_on_c, 4, 77, 80
6, 102060, Note_on_c, 4, 68, 76
6, 102060, Note_on_c, 4, 65, 95
6, 102120, Note_on_c, 4, 65, 0
6, 102120, Note_on_c, 4, 80, 0
6, 102120, Note_on_c, 4, 77, 0
6, 102120, Note_on_c, 4, 68, 0
6, 102120, Note_on_c, 4, 79, 90
6, 102120, Note_on_c, 4, 76, 84
6, 102120, Note_on_c, 4, 67, 77
6, 102120, Note_on_c, 4, 64, 84
6, 102180, Note_on_c, 4, 64, 0
6, 102180, Note_on_c, 4, 79, 0
6, 102180, Note_on_c, 4, 76, 0
6, 102180, Note_on_c, 4, 67, 0
6, 102180, Note_on_c, 4, 78, 94
6, 102180, Note_on_c, 4, 75, 86
6, 102180, Note_on_c, 4, 66, 76
6, 102180, Note_on_c, 4, 63, 86
6, 102240, Note_on_c, 4, 63, 0
6, 102240, Note_on_c, 4, 78, 0
6, 102240, Note_on_c, 4, 75, 0
6, 102240, Note_on_c, 4, 66, 0
6, 102240, Note_on_c, 4, 77, 94
6, 102240, Note_on_c, 4, 74, 84
6, 102240, Note_on_c, 4, 65, 84
6, 102240, Note_on_c, 4, 62, 81
6, 102300, Note_on_c, 4, 62, 0
6, 102300, Note_on_c, 4, 77, 0
6, 102300, Note_on_c, 4, 74, 0
6, 102300, Note_on_c, 4, 65, 0
6, 102360, Note_on_c, 4, 74, 94
6, 102360, Note_on_c, 4, 67, 80
6, 102360, Note_on_c, 4, 59, 84
6, 102360, Note_on_c, 4, 55, 86
6, 102390, Note_on_c, 4, 55, 0
6, 102390, Note_on_c, 4, 74, 0
6, 102390, Note_on_c, 4, 67, 0
6, 102390, Note_on_c, 4, 59, 0
6, 102420, Note_on_c, 4, 75, 90
6, 102420, Note_on_c, 4, 67, 84
6, 102420, Note_on_c, 4, 60, 82
6, 102420, Note_on_c, 4, 51, 86
6, 102480, Note_on_c, 4, 51, 0
6, 102480, Note_on_c, 4, 75, 0
6, 102480, Note_on_c, 4, 67, 0
6, 102480, Note_on_c, 4, 60, 0
6, 102540, Note_on_c, 4, 72, 58
6, 102540, Note_on_c, 4, 65, 82
6, 102540, Note_on_c, 4, 57, 89
6, 102540, Note_on_c, 4, 53, 80
6, 102570, Note_on_c, 4, 53, 0
6, 102570, Note_on_c, 4, 72, 0
6, 102570, Note_on_c, 4, 65, 0
6, 102570, Note_on_c, 4, 57, 0
6, 102600, Note_on_c, 4, 70, 82
6, 102600, Note_on_c, 4, 46, 94
6, 102630, Note_on_c, 4, 70, 0
6, 102630, Note_on_c, 4, 74, 104
6, 102660, Note_on_c, 4, 74, 0
6, 102660, Note_on_c, 4, 46, 0
6, 102660, Note_on_c, 4, 77, 94
6, 102660, Note_on_c, 4, 53, 89
6, 102690, Note_on_c, 4, 77, 0
6, 102690, Note_on_c, 4, 82, 93
6, 102720, Note_on_c, 4, 82, 0
6, 102720, Note_on_c, 4, 53, 0
6, 102720, Note_on_c, 4, 86, 89
6, 102720, Note_on_c, 4, 58, 80
6, 102750, Note_on_c, 4, 86, 0
6, 102750, Note_on_c, 4, 82, 90
6, 102780, Note_on_c, 4, 82, 0
6, 102780, Note_on_c, 4, 58, 0
6, 102780, Note_on_c, 4, 89, 117
6, 102780, Note_on_c, 4, 46, 94
6, 102810, Note_on_c, 4, 89, 0
6, 102810, Note_on_c, 4, 86, 112
6, 102840, Note_on_c, 4, 86, 0
6, 102840, Note_on_c, 4, 46, 0
6, 102840, Note_on_c, 4, 82, 98
6, 102840, Note_on_c, 4, 53, 93
6, 102870, Note_on_c, 4, 82, 0
6, 102870, Note_on_c, 4, 77, 95
6, 102900, Note_on_c, 4, 77, 0
6, 102900, Note_on_c, 4, 53, 0
6, 102900, Note_on_c, 4, 74, 94
6, 102900, Note_on_c, 4, 58, 82
6, 102930, Note_on_c, 4, 74, 0
6, 102930, Note_on_c, 4, 70, 94
6, 102960, Note_on_c, 4, 70, 0
6, 102960, Note_on_c, 4, 58, 0
6, 102960, Note_on_c, 4, 69, 86
6, 102960, Note_on_c, 4, 46, 93
6, 102990, Note_on_c, 4, 69, 0
6, 102990, Note_on_c, 4, 72, 70
6, 103020, Note_on_c, 4, 72, 0
6, 103020, Note_on_c, 4, 46, 0
6, 103020, Note_on_c, 4, 75, 89
6, 103020, Note_on_c, 4, 56, 74
6, 103050, Note_on_c, 4, 75, 0
6, 103050, Note_on_c, 4, 78, 80
6, 103080, Note_on_c, 4, 78, 0
6, 103080, Note_on_c, 4, 56, 0
6, 103080, Note_on_c, 4, 81, 95
6, 103080, Note_on_c, 4, 54, 89
6, 103110, Note_on_c, 4, 81, 0
6, 103110, Note_on_c, 4, 84, 93
6, 103140, Note_on_c, 4, 84, 0
6, 103140, Note_on_c, 4, 54, 0
6, 103140, Note_on_c, 4, 87, 119
6, 103140, Note_on_c, 4, 46, 93
6, 103160, Note_on_c, 4, 87, 0
6, 103160, Note_on_c, 4, 84, 112
6, 103180, Note_on_c, 4, 84, 0
6, 103180, Note_on_c, 4, 81, 104
6, 103200, Note_on_c, 4, 81, 0
6, 103200, Note_on_c, 4, 46, 0
6, 103200, Note_on_c, 4, 79, 89
6, 103200, Note_on_c, 4, 51, 89
6, 103230, Note_on_c, 4, 79, 0
6, 103230, Note_on_c, 4, 75, 90
6, 103260, Note_on_c, 4, 75, 0
6, 103260, Note_on_c, 4, 51, 0
6, 103260, Note_on_c, 4, 72, 64
6, 103260, Note_on_c, 4, 54, 82
6, 103290, Note_on_c, 4, 72, 0
6, 103290, Note_on_c, 4, 69, 90
6, 103320, Note_on_c, 4, 69, 0
6, 103320, Note_on_c, 4, 54, 0
6, 103320, Note_on_c, 4, 70, 84
6, 103320, Note_on_c, 4, 46, 93
6, 103350, Note_on_c, 4, 70, 0
6, 103350, Note_on_c, 4, 74, 99
6, 103380, Note_on_c, 4, 74, 0
6, 103380, Note_on_c, 4, 46, 0
6, 103380, Note_on_c, 4, 77, 94
6, 103380, Note_on_c, 4, 53, 90
6, 103410, Note_on_c, 4, 77, 0
6, 103410, Note_on_c, 4, 82, 89
6, 103440, Note_on_c, 4, 82, 0
6, 103440, Note_on_c, 4, 53, 0
6, 103440, Note_on_c, 4, 86, 99
6, 103440, Note_on_c, 4, 58, 81
6, 103470, Note_on_c, 4, 86, 0
6, 103470, Note_on_c, 4, 82, 94
6, 103500, Note_on_c, 4, 82, 0
6, 103500, Note_on_c, 4, 58, 0
6, 103500, Note_on_c, 4, 89, 117
6, 103500, Note_on_c, 4, 46, 90
6, 103530, Note_on_c, 4, 89, 0
6, 103530, Note_on_c, 4, 86, 112
6, 103560, Note_on_c, 4, 86, 0
6, 103560, Note_on_c, 4, 46, 0
6, 103560, Note_on_c, 4, 82, 95
6, 103560, Note_on_c, 4, 53, 95
6, 103590, Note_on_c, 4, 82, 0
6, 103590, Note_on_c, 4, 77, 99
6, 103620, Note_on_c, 4, 77, 0
6, 103620, Note_on_c, 4, 53, 0
6, 103620, Note_on_c, 4, 74, 94
6, 103620, Note_on_c, 4, 58, 80
6, 103650, Note_on_c, 4, 74, 0
6, 103650, Note_on_c, 4, 70, 93
6, 103680, Note_on_c, 4, 70, 0
6, 103680, Note_on_c, 4, 58, 0
6, 103680, Note_on_c, 4, 69, 89
6, 103680, Note_on_c, 4, 46, 93
6, 103710, Note_on_c, 4, 69, 0
6, 103710, Note_on_c, 4, 72, 72
6, 103740, Note_on_c, 4, 72, 0
6, 103740, Note_on_c, 4, 46, 0
6, 103740, Note_on_c, 4, 75, 94
6, 103740, Note_on_c, 4, 56, 77
6, 103770, Note_on_c, 4, 75, 0
6, 103770, Note_on_c, 4, 78, 84
6, 103800, Note_on_c, 4, 78, 0
6, 103800, Note_on_c, 4, 56, 0
6, 103800, Note_on_c, 4, 81, 98
6, 103800, Note_on_c, 4, 54, 85
6, 103830, Note_on_c, 4, 81, 0
6, 103830, Note_on_c, 4, 84, 99
6, 103860, Note_on_c, 4, 84, 0
6, 103860, Note_on_c, 4, 54, 0
6, 103860, Note_on_c, 4, 87, 117
6, 103860, Note_on_c, 4, 46, 94
6, 103880, Note_on_c, 4, 87, 0
6, 103880, Note_on_c, 4, 84, 112
6, 103900, Note_on_c, 4, 84, 0
6, 103900, Note_on_c, 4, 81, 99
6, 103920, Note_on_c, 4, 81, 0
6, 103920, Note_on_c, 4, 46, 0
6, 103920, Note_on_c, 4, 79, 95
6, 103920, Note_on_c, 4, 51, 94
6, 103950, Note_on_c, 4, 79, 0
6, 103950, Note_on_c, 4, 75, 94
6, 103980, Note_on_c, 4, 75, 0
6, 103980, Note_on_c, 4, 51, 0
6, 103980, Note_on_c, 4, 72, 71
6, 103980, Note_on_c, 4, 54, 74
6, 104010, Note_on_c, 4, 72, 0
6, 104010, Note_on_c, 4, 69, 94
6, 104040, Note_on_c, 4, 69, 0
6, 104040, Note_on_c, 4, 54, 0
6, 104040, Note_on_c, 4, 72, 76
6, 104040, Note_on_c, 4, 53, 77
6, 104040, Note_on_c, 4, 50, 99
6, 104040, Note_on_c, 4, 46, 84
6, 104070, Note_on_c, 4, 72, 0
6, 104070, Note_on_c, 4, 70, 89
6, 104100, Note_on_c, 4, 70, 0
6, 104100, Note_on_c, 4, 69, 95
6, 104130, Note_on_c, 4, 69, 0
6, 104130, Note_on_c, 4, 70, 89
6, 104160, Note_on_c, 4, 70, 0
6, 104160, Note_on_c, 4, 46, 0
6, 104160, Note_on_c, 4, 50, 0
6, 104160, Note_on_c, 4, 53, 0
6, 104160, Note_on_c, 4, 74, 98
6, 104190, Note_on_c, 4, 74, 0
6, 104190, Note_on_c, 4, 70, 94
6, 104220, Note_on_c, 4, 70, 0
6, 104220, Note_on_c, 4, 77, 101
6, 104250, Note_on_c, 4, 77, 0
6, 104250, Note_on_c, 4, 74, 90
6, 104280, Note_on_c, 4, 74, 0
6, 104280, Note_on_c, 4, 82, 72
6, 104310, Note_on_c, 4, 82, 0
6, 104310, Note_on_c, 4, 77, 93
6, 104340, Note_on_c, 4, 77, 0
6, 104340, Note_on_c, 4, 86, 107
6, 104370, Note_on_c, 4, 86, 0
6, 104370, Note_on_c, 4, 82, 94
6, 104400, Note_on_c, 4, 82, 0
6, 104400, Note_on_c, 4, 89, 82
6, 104400, Note_on_c, 4, 86, 89
6, 104400, Note_on_c, 4, 77, 82
6, 104400, Note_on_c, 4, 74, 94
6, 104460, Note_on_c, 4, 74, 0
6, 104460, Note_on_c, 4, 89, 0
6, 104460, Note_on_c, 4, 86, 0
6, 104460, Note_on_c, 4, 77, 0
6, 104460, Note_on_c, 4, 88, 77
6, 104460, Note_on_c, 4, 85, 74
6, 104460, Note_on_c, 4, 76, 84
6, 104460, Note_on_c, 4, 73, 80
6, 104520, Note_on_c, 4, 73, 0
6, 104520, Note_on_c, 4, 88, 0
6, 104520, Note_on_c, 4, 85, 0
6, 104520, Note_on_c, 4, 76, 0
6, 104520, Note_on_c, 4, 87, 89
6, 104520, Note_on_c, 4, 84, 76
6, 104520, Note_on_c, 4, 75, 73
6, 104520, Note_on_c, 4, 72, 72
6, 104580, Note_on_c, 4, 72, 0
6, 104580, Note_on_c, 4, 87, 0
6, 104580, Note_on_c, 4, 84, 0
6, 104580, Note_on_c, 4, 75, 0
6, 104580, Note_on_c, 4, 86, 94
6, 104580, Note_on_c, 4, 83, 76
6, 104580, Note_on_c, 4, 74, 72
6, 104580, Note_on_c, 4, 71, 85
6, 104640, Note_on_c, 4, 71, 0
6, 104640, Note_on_c, 4, 86, 0
6, 104640, Note_on_c, 4, 83, 0
6, 104640, Note_on_c, 4, 74, 0
6, 104640, Note_on_c, 4, 85, 89
6, 104640, Note_on_c, 4, 82, 76
6, 104640, Note_on_c, 4, 73, 68
6, 104640, Note_on_c, 4, 70, 89
6, 104700, Note_on_c, 4, 70, 0
6, 104700, Note_on_c, 4, 85, 0
6, 104700, Note_on_c, 4, 82, 0
6, 104700, Note_on_c, 4, 73, 0
6, 104700, Note_on_c, 4, 84, 89
6, 104700, Note_on_c, 4, 81, 85
6, 104700, Note_on_c, 4, 72, 54
6, 104700, Note_on_c, 4, 69, 90
6, 104760, Note_on_c, 4, 69, 0
6, 104760, Note_on_c, 4, 84, 0
6, 104760, Note_on_c, 4, 81, 0
6, 104760, Note_on_c, 4, 72, 0
6, 104760, Note_on_c, 4, 83, 98
6, 104760, Note_on_c, 4, 80, 77
6, 104760, Note_on_c, 4, 71, 82
6, 104760, Note_on_c, 4, 68, 84
6, 104820, Note_on_c, 4, 68, 0
6, 104820, Note_on_c, 4, 83, 0
6, 104820, Note_on_c, 4, 80, 0
6, 104820, Note_on_c, 4, 71, 0
6, 104820, Note_on_c, 4, 82, 90
6, 104820, Note_on_c, 4, 79, 78
6, 104820, Note_on_c, 4, 70, 73
6, 104820, Note_on_c, 4, 67, 89
6, 104880, Note_on_c, 4, 67, 0
6, 104880, Note_on_c, 4, 82, 0
6, 104880, Note_on_c, 4, 79, 0
6, 104880, Note_on_c, 4, 70, 0
6, 104880, Note_on_c, 4, 81, 99
6, 104880, Note_on_c, 4, 78, 74
6, 104880, Note_on_c, 4, 69, 80
6, 104880, Note_on_c, 4, 66, 89
6, 104940, Note_on_c, 4, 66, 0
6, 104940, Note_on_c, 4, 81, 0
6, 104940, Note_on_c, 4, 78, 0
6, 104940, Note_on_c, 4, 69, 0
6, 104940, Note_on_c, 4, 80, 89
6, 104940, Note_on_c, 4, 77, 80
6, 104940, Note_on_c, 4, 68, 76
6, 104940, Note_on_c, 4, 65, 95
6, 105000, Note_on_c, 4, 65, 0
6, 105000, Note_on_c, 4, 80, 0
6, 105000, Note_on_c, 4, 77, 0
6, 105000, Note_on_c, 4, 68, 0
6, 105000, Note_on_c, 4, 79, 90
6, 105000, Note_on_c, 4, 76, 84
6, 105000, Note_on_c, 4, 67, 77
6, 105000, Note_on_c, 4, 64, 84
6, 105060, Note_on_c, 4, 64, 0
6, 105060, Note_on_c, 4, 79, 0
6, 105060, Note_on_c, 4, 76, 0
6, 105060, Note_on_c, 4, 67, 0
6, 105060, Note_on_c, 4, 78, 94
6, 105060, Note_on_c, 4, 75, 86
6, 105060, Note_on_c, 4, 66, 76
6, 105060, Note_on_c, 4, 63, 86
6, 105120, Note_on_c, 4, 63, 0
6, 105120, Note_on_c, 4, 78, 0
6, 105120, Note_on_c, 4, 75, 0
6, 105120, Note_on_c, 4, 66, 0
6, 105120, Note_on_c, 4, 77, 94
6, 105120, Note_on_c, 4, 74, 84
6, 105120, Note_on_c, 4, 65, 84
6, 105120, Note_on_c, 4, 62, 81
6, 105180, Note_on_c, 4, 62, 0
6, 105180, Note_on_c, 4, 77, 0
6, 105180, Note_on_c, 4, 74, 0
6, 105180, Note_on_c, 4, 65, 0
6, 105240, Note_on_c, 4, 74, 94
6, 105240, Note_on_c, 4, 67, 80
6, 105240, Note_on_c, 4, 59, 84
6, 105240, Note_on_c, 4, 55, 86
6, 105270, Note_on_c, 4, 55, 0
6, 105270, Note_on_c, 4, 74, 0
6, 105270, Note_on_c, 4, 67, 0
6, 105270, Note_on_c, 4, 59, 0
6, 105300, Note_on_c, 4, 75, 90
6, 105300, Note_on_c, 4, 67, 84
6, 105300, Note_on_c, 4, 60, 82
6, 105300, Note_on_c, 4, 51, 86
6, 105360, Note_on_c, 4, 51, 0
6, 105360, Note_on_c, 4, 75, 0
6, 105360, Note_on_c, 4, 67, 0
6, 105360, Note_on_c, 4, 60, 0
6, 105420, Note_on_c, 4, 72, 58
6, 105420, Note_on_c, 4, 65, 82
6, 105420, Note_on_c, 4, 57, 89
6, 105420, Note_on_c, 4, 53, 80
6, 105450, Note_on_c, 4, 53, 0
6, 105450, Note_on_c, 4, 72, 0
6, 105450, Note_on_c, 4, 65, 0
6, 105450, Note_on_c, 4, 57, 0
6, 105840, Note_on_c, 4, 77, 57
6, 105840, Note_on_c, 4, 65, 72
6, 105840, Note_on_c, 4, 58, 59
6, 105840, Note_on_c, 4, 50, 85
6, 105900, Note_on_c, 4, 50, 0
6, 105900, Note_on_c, 4, 77, 0
6, 105900, Note_on_c, 4, 65, 0
6, 105900, Note_on_c, 4, 58, 0
6, 105960, Note_on_c, 4, 74, 78
6, 105960, Note_on_c, 4, 67, 70
6, 105960, Note_on_c, 4, 59, 65
6, 105960, Note_on_c, 4, 55, 62
6, 105990, Note_on_c, 4, 55, 0
6, 105990, Note_on_c, 4, 74, 0
6, 105990, Note_on_c, 4, 67, 0
6, 105990, Note_on_c, 4, 59, 0
6, 106020, Note_on_c, 4, 75, 70
6, 106020, Note_on_c, 4, 67, 72
6, 106020, Note_on_c, 4, 60, 63
6, 106020, Note_on_c, 4, 51, 80
6, 106080, Note_on_c, 4, 51, 0
6, 106080, Note_on_c, 4, 75, 0
6, 106080, Note_on_c, 4, 67, 0
6, 106080, Note_on_c, 4, 60, 0
6, 106140, Note_on_c, 4, 72, 44
6, 106140, Note_on_c, 4, 65, 72
6, 106140, Note_on_c, 4, 57, 67
6, 106140, Note_on_c, 4, 53, 81
6, 106170, Note_on_c, 4, 53, 0
6, 106170, Note_on_c, 4, 72, 0
6, 106170, Note_on_c, 4, 65, 0
6, 106170, Note_on_c, 4, 57, 0
6, 106560, Note_on_c, 4, 89, 82
6, 106560, Note_on_c, 4, 86, 74
6, 106560, Note_on_c, 4, 77, 67
6, 106560, Note_on_c, 4, 74, 78
6, 106620, Note_on_c, 4, 74, 0
6, 106620, Note_on_c, 4, 89, 0
6, 106620, Note_on_c, 4, 86, 0
6, 106620, Note_on_c, 4, 77, 0
6, 106680, Note_on_c, 4, 86, 86
6, 106680, Note_on_c, 4, 83, 73
6, 106680, Note_on_c, 4, 74, 77
6, 106680, Note_on_c, 4, 71, 77
6, 106710, Note_on_c, 4, 71, 0
6, 106710, Note_on_c, 4, 86, 0
6, 106710, Note_on_c, 4, 83, 0
6, 106710, Note_on_c, 4, 74, 0
6, 106740, Note_on_c, 4, 87, 81
6, 106740, Note_on_c, 4, 84, 78
6, 106740, Note_on_c, 4, 75, 80
6, 106740, Note_on_c, 4, 72, 53
6, 106800, Note_on_c, 4, 72, 0
6, 106800, Note_on_c, 4, 87, 0
6, 106800, Note_on_c, 4, 84, 0
6, 106800, Note_on_c, 4, 75, 0
6, 106860, Note_on_c, 4, 84, 73
6, 106860, Note_on_c, 4, 81, 76
6, 106860, Note_on_c, 4, 72, 50
6, 106860, Note_on_c, 4, 69, 71
6, 106890, Note_on_c, 4, 69, 0
6, 106890, Note_on_c, 4, 84, 0
6, 106890, Note_on_c, 4, 81, 0
6, 106890, Note_on_c, 4, 72, 0
6, 106920, Note_on_c, 4, 82, 89
6, 106920, Note_on_c, 4, 70, 84
6, 107040, Note_on_c, 4, 70, 0
6, 107040, Note_on_c, 4, 82, 0
6, 107220, Note_on_c, 4, 82, 85
6, 107220, Note_on_c, 4, 70, 85
6, 107250, Note_on_c, 4, 70, 0
6, 107250, Note_on_c, 4, 82, 0
6, 107265, Note_on_c, 4, 82, 89
6, 107265, Note_on_c, 4, 70, 89
6, 107280, Note_on_c, 4, 70, 0
6, 107280, Note_on_c, 4, 82, 0
6, 107280, Note_on_c, 4, 81, 82
6, 107280, Note_on_c, 4, 69, 82
6, 107340, Note_on_c, 4, 69, 0
6, 107340, Note_on_c, 4, 81, 0
6, 107340, Note_on_c, 4, 79, 85
6, 107340, Note_on_c, 4, 67, 76
6, 107400, Note_on_c, 4, 67, 0
6, 107400, Note_on_c, 4, 79, 0
6, 107400, Note_on_c, 4, 81, 84
6, 107400, Note_on_c, 4, 69, 84
6, 107460, Note_on_c, 4, 69, 0
6, 107460, Note_on_c, 4, 81, 0
6, 107460, Note_on_c, 4, 77, 73
6, 107460, Note_on_c, 4, 65, 78
6, 107520, Note_on_c, 4, 65, 0
6, 107520, Note_on_c, 4, 77, 0
6, 107520, Note_on_c, 4, 79, 84
6, 107520, Note_on_c, 4, 67, 80
6, 107580, Note_on_c, 4, 67, 0
6, 107580, Note_on_c, 4, 79, 0
6, 107580, Note_on_c, 4, 81, 89
6, 107580, Note_on_c, 4, 69, 84
6, 107640, Note_on_c, 4, 69, 0
6, 107640, Note_on_c, 4, 81, 0
6, 107640, Note_on_c, 4, 82, 64
6, 107640, Note_on_c, 4, 70, 86
6, 107760, Note_on_c, 4, 70, 0
6, 107760, Note_on_c, 4, 82, 0
6, 107940, Note_on_c, 4, 86, 84
6, 107940, Note_on_c, 4, 74, 89
6, 108000, Note_on_c, 4, 74, 0
6, 108000, Note_on_c, 4, 86, 0
6, 108000, Note_on_c, 4, 89, 80
6, 108000, Note_on_c, 4, 77, 74
6, 108060, Note_on_c, 4, 77, 0
6, 108060, Note_on_c, 4, 89, 0
6, 108060, Note_on_c, 4, 87, 85
6, 108060, Note_on_c, 4, 75, 84
6, 108120, Note_on_c, 4, 75, 0
6, 108120, Note_on_c, 4, 87, 0
6, 108120, Note_on_c, 4, 86, 85
6, 108120, Note_on_c, 4, 74, 89
6, 108150, Note_on_c, 4, 74, 0
6, 108150, Note_on_c, 4, 86, 0
6, 108165, Note_on_c, 4, 86, 82
6, 108165, Note_on_c, 4, 74, 85
6, 108180, Note_on_c, 4, 74, 0
6, 108180, Note_on_c, 4, 86, 0
6, 108180, Note_on_c, 4, 84, 78
6, 108180, Note_on_c, 4, 72, 73
6, 108240, Note_on_c, 4, 72, 0
6, 108240, Note_on_c, 4, 84, 0
6, 108240, Note_on_c, 4, 82, 80
6, 108240, Note_on_c, 4, 70, 82
6, 108300, Note_on_c, 4, 70, 0
6, 108300, Note_on_c, 4, 82, 0
6, 108300, Note_on_c, 4, 84, 81
6, 108300, Note_on_c, 4, 72, 57
6, 108330, Note_on_c, 4, 72, 0
6, 108330, Note_on_c, 4, 84, 0
6, 108360, Note_on_c, 4, 82, 81
6, 108360, Note_on_c, 4, 70, 66
6, 108480, Note_on_c, 4, 70, 0
6, 108480, Note_on_c, 4, 82, 0
6, 108525, Note_on_c, 4, 88, 81
6, 108525, Note_on_c, 4, 76, 84
6, 108540, Note_on_c, 4, 76, 0
6, 108540, Note_on_c, 4, 88, 0
6, 108540, Note_on_c, 4, 89, 85
6, 108540, Note_on_c, 4, 77, 84
6, 108660, Note_on_c, 4, 77, 0
6, 108660, Note_on_c, 4, 89, 0
6, 108885, Note_on_c, 4, 88, 98
6, 108885, Note_on_c, 4, 76, 98
6, 108900, Note_on_c, 4, 76, 0
6, 108900, Note_on_c, 4, 88, 0
6, 108900, Note_on_c, 4, 89, 85
6, 108900, Note_on_c, 4, 77, 89
6, 109020, Note_on_c, 4, 77, 0
6, 109020, Note_on_c, 4, 89, 0
6, 109245, Note_on_c, 4, 88, 85
6, 109245, Note_on_c, 4, 76, 90
6, 109260, Note_on_c, 4, 76, 0
6, 109260, Note_on_c, 4, 88, 0
6, 109260, Note_on_c, 4, 89, 80
6, 109260, Note_on_c, 4, 77, 80
6, 109380, Note_on_c, 4, 77, 0
6, 109380, Note_on_c, 4, 89, 0
6, 109605, Note_on_c, 4, 88, 84
6, 109605, Note_on_c, 4, 76, 84
6, 109620, Note_on_c, 4, 76, 0
6, 109620, Note_on_c, 4, 88, 0
6, 109620, Note_on_c, 4, 89, 85
6, 109620, Note_on_c, 4, 77, 89
6, 109740, Note_on_c, 4, 77, 0
6, 109740, Note_on_c, 4, 89, 0
6, 109780, Control_c, 4, 7, 48
6, 109800, Note_on_c, 4, 89, 90
6, 109800, Note_on_c, 4, 86, 86
6, 109830, Note_on_c, 4, 86, 0
6, 109830, Note_on_c, 4, 89, 0
6, 109830, Note_on_c, 4, 88, 98
6, 109830, Note_on_c, 4, 85, 80
6, 109860, Note_on_c, 4, 85, 0
6, 109860, Note_on_c, 4, 88, 0
6, 109860, Note_on_c, 4, 89, 98
6, 109860, Note_on_c, 4, 86, 99
6, 109890, Note_on_c, 4, 86, 0
6, 109890, Note_on_c, 4, 89, 0
6, 109890, Note_on_c, 4, 88, 104
6, 109890, Note_on_c, 4, 85, 85
6, 109920, Note_on_c, 4, 85, 0
6, 109920, Note_on_c, 4, 88, 0
6, 109920, Note_on_c, 4, 89, 99
6, 109920, Note_on_c, 4, 86, 98
6, 109950, Note_on_c, 4, 86, 0
6, 109950, Note_on_c, 4, 89, 0
6, 109950, Note_on_c, 4, 88, 99
6, 109950, Note_on_c, 4, 85, 86
6, 109980, Note_on_c, 4, 85, 0
6, 109980, Note_on_c, 4, 88, 0
6, 109980, Note_on_c, 4, 89, 98
6, 109980, Note_on_c, 4, 86, 99
6, 110010, Note_on_c, 4, 86, 0
6, 110010, Note_on_c, 4, 89, 0
6, 110010, Note_on_c, 4, 88, 101
6, 110010, Note_on_c, 4, 85, 89
6, 110040, Note_on_c, 4, 85, 0
6, 110040, Note_on_c, 4, 88, 0
6, 110040, Note_on_c, 4, 89, 98
6, 110040, Note_on_c, 4, 86, 98
6, 110070, Note_on_c, 4, 86, 0
6, 110070, Note_on_c, 4, 89, 0
6, 110070, Note_on_c, 4, 88, 104
6, 110070, Note_on_c, 4, 85, 86
6, 110100, Note_on_c, 4, 85, 0
6, 110100, Note_on_c, 4, 88, 0
6, 110100, Note_on_c, 4, 89, 99
6, 110100, Note_on_c, 4, 86, 98
6, 110130, Note_on_c, 4, 86, 0
6, 110130, Note_on_c, 4, 89, 0
6, 110130, Note_on_c, 4, 88, 105
6, 110130, Note_on_c, 4, 85, 89
6, 110150, Control_c, 4, 7, 48
6, 110160, Note_on_c, 4, 85, 0
6, 110160, Note_on_c, 4, 88, 0
6, 110160, Note_on_c, 4, 89, 90
6, 110160, Note_on_c, 4, 86, 86
6, 110160, Note_on_c, 4, 34, 80
6, 110190, Note_on_c, 4, 34, 0
6, 110190, Note_on_c, 4, 86, 0
6, 110190, Note_on_c, 4, 89, 0
6, 110190, Note_on_c, 4, 88, 98
6, 110190, Note_on_c, 4, 85, 80
6, 110220, Note_on_c, 4, 85, 0
6, 110220, Note_on_c, 4, 88, 0
6, 110220, Note_on_c, 4, 89, 98
6, 110220, Note_on_c, 4, 86, 99
6, 110220, Note_on_c, 4, 38, 94
6, 110250, Note_on_c, 4, 38, 0
6, 110250, Note_on_c, 4, 86, 0
6, 110250, Note_on_c, 4, 89, 0
6, 110250, Note_on_c, 4, 88, 104
6, 110250, Note_on_c, 4, 85, 85
6, 110260, Control_c, 4, 7, 49
6, 110280, Note_on_c, 4, 85, 0
6, 110280, Note_on_c, 4, 88, 0
6, 110280, Note_on_c, 4, 89, 99
6, 110280, Note_on_c, 4, 86, 98
6, 110280, Note_on_c, 4, 41, 94
6, 110310, Note_on_c, 4, 41, 0
6, 110310, Note_on_c, 4, 86, 0
6, 110310, Note_on_c, 4, 89, 0
6, 110310, Note_on_c, 4, 88, 99
6, 110310, Note_on_c, 4, 85, 86
6, 110340, Note_on_c, 4, 85, 0
6, 110340, Note_on_c, 4, 88, 0
6, 110340, Note_on_c, 4, 89, 98
6, 110340, Note_on_c, 4, 86, 99
6, 110340, Note_on_c, 4, 46, 95
6, 110370, Note_on_c, 4, 46, 0
6, 110370, Note_on_c, 4, 86, 0
6, 110370, Note_on_c, 4, 89, 0
6, 110370, Control_c, 4, 7, 50
6, 110370, Note_on_c, 4, 88, 101
6, 110370, Note_on_c, 4, 85, 89
6, 110400, Note_on_c, 4, 85, 0
6, 110400, Note_on_c, 4, 88, 0
6, 110400, Note_on_c, 4, 89, 98
6, 110400, Note_on_c, 4, 86, 98
6, 110400, Note_on_c, 4, 50, 104
6, 110430, Note_on_c, 4, 50, 0
6, 110430, Note_on_c, 4, 86, 0
6, 110430, Note_on_c, 4, 89, 0
6, 110430, Note_on_c, 4, 88, 104
6, 110430, Note_on_c, 4, 85, 86
6, 110460, Note_on_c, 4, 85, 0
6, 110460, Note_on_c, 4, 88, 0
6, 110460, Note_on_c, 4, 89, 99
6, 110460, Note_on_c, 4, 86, 98
6, 110460, Note_on_c, 4, 53, 98
6, 110480, Control_c, 4, 7, 51
6, 110490, Note_on_c, 4, 53, 0
6, 110490, Note_on_c, 4, 86, 0
6, 110490, Note_on_c, 4, 89, 0
6, 110490, Note_on_c, 4, 88, 105
6, 110490, Note_on_c, 4, 85, 89
6, 110520, Note_on_c, 4, 85, 0
6, 110520, Note_on_c, 4, 88, 0
6, 110520, Note_on_c, 4, 89, 90
6, 110520, Note_on_c, 4, 86, 86
6, 110520, Note_on_c, 4, 58, 99
6, 110550, Note_on_c, 4, 86, 0
6, 110550, Note_on_c, 4, 89, 0
6, 110550, Note_on_c, 4, 88, 98
6, 110550, Note_on_c, 4, 85, 80
6, 110580, Note_on_c, 4, 85, 0
6, 110580, Note_on_c, 4, 88, 0
6, 110580, Note_on_c, 4, 89, 98
6, 110580, Note_on_c, 4, 86, 99
6, 110585, Control_c, 4, 7, 52
6, 110610, Note_on_c, 4, 86, 0
6, 110610, Note_on_c, 4, 89, 0
6, 110610, Note_on_c, 4, 88, 104
6, 110610, Note_on_c, 4, 85, 85
6, 110640, Note_on_c, 4, 85, 0
6, 110640, Note_on_c, 4, 88, 0
6, 110640, Note_on_c, 4, 58, 0
6, 110640, Note_on_c, 4, 89, 99
6, 110640, Note_on_c, 4, 86, 98
6, 110670, Note_on_c, 4, 86, 0
6, 110670, Note_on_c, 4, 89, 0
6, 110670, Note_on_c, 4, 88, 99
6, 110670, Note_on_c, 4, 85, 86
6, 110695, Control_c, 4, 7, 53
6, 110700, Note_on_c, 4, 85, 0
6, 110700, Note_on_c, 4, 88, 0
6, 110700, Note_on_c, 4, 89, 98
6, 110700, Note_on_c, 4, 86, 99
6, 110730, Note_on_c, 4, 86, 0
6, 110730, Note_on_c, 4, 89, 0
6, 110730, Note_on_c, 4, 88, 101
6, 110730, Note_on_c, 4, 85, 89
6, 110760, Note_on_c, 4, 85, 0
6, 110760, Note_on_c, 4, 88, 0
6, 110760, Note_on_c, 4, 89, 98
6, 110760, Note_on_c, 4, 86, 98
6, 110790, Note_on_c, 4, 86, 0
6, 110790, Note_on_c, 4, 89, 0
6, 110790, Note_on_c, 4, 88, 104
6, 110790, Note_on_c, 4, 85, 86
6, 110805, Control_c, 4, 7, 54
6, 110820, Note_on_c, 4, 85, 0
6, 110820, Note_on_c, 4, 88, 0
6, 110820, Note_on_c, 4, 89, 99
6, 110820, Note_on_c, 4, 86, 98
6, 110850, Note_on_c, 4, 86, 0
6, 110850, Note_on_c, 4, 89, 0
6, 110850, Note_on_c, 4, 88, 105
6, 110850, Note_on_c, 4, 85, 89
6, 110880, Note_on_c, 4, 85, 0
6, 110880, Note_on_c, 4, 88, 0
6, 110880, Control_c, 4, 7, 55
6, 110880, Note_on_c, 4, 89, 90
6, 110880, Note_on_c, 4, 86, 86
6, 110880, Note_on_c, 4, 46, 101
6, 110910, Note_on_c, 4, 46, 0
6, 110910, Note_on_c, 4, 86, 0
6, 110910, Note_on_c, 4, 89, 0
6, 110910, Note_on_c, 4, 88, 98
6, 110910, Note_on_c, 4, 85, 80
6, 110935, Control_c, 4, 7, 56
6, 110940, Note_on_c, 4, 85, 0
6, 110940, Note_on_c, 4, 88, 0
6, 110940, Note_on_c, 4, 89, 98
6, 110940, Note_on_c, 4, 86, 99
6, 110940, Note_on_c, 4, 50, 112
6, 110970, Note_on_c, 4, 50, 0
6, 110970, Note_on_c, 4, 86, 0
6, 110970, Note_on_c, 4, 89, 0
6, 110970, Note_on_c, 4, 88, 104
6, 110970, Note_on_c, 4, 85, 85
6, 110990, Control_c, 4, 7, 57
6, 111000, Note_on_c, 4, 85, 0
6, 111000, Note_on_c, 4, 88, 0
6, 111000, Note_on_c, 4, 89, 99
6, 111000, Note_on_c, 4, 86, 98
6, 111000, Note_on_c, 4, 53, 99
6, 111030, Note_on_c, 4, 53, 0
6, 111030, Note_on_c, 4, 86, 0
6, 111030, Note_on_c, 4, 89, 0
6, 111030, Note_on_c, 4, 88, 99
6, 111030, Note_on_c, 4, 85, 86
6, 111045, Control_c, 4, 7, 58
6, 111060, Note_on_c, 4, 85, 0
6, 111060, Note_on_c, 4, 88, 0
6, 111060, Note_on_c, 4, 89, 98
6, 111060, Note_on_c, 4, 86, 99
6, 111060, Note_on_c, 4, 58, 98
6, 111090, Note_on_c, 4, 58, 0
6, 111090, Note_on_c, 4, 86, 0
6, 111090, Note_on_c, 4, 89, 0
6, 111090, Note_on_c, 4, 88, 101
6, 111090, Note_on_c, 4, 85, 89
6, 111095, Control_c, 4, 7, 59
6, 111120, Note_on_c, 4, 85, 0
6, 111120, Note_on_c, 4, 88, 0
6, 111120, Note_on_c, 4, 89, 98
6, 111120, Note_on_c, 4, 86, 98
6, 111120, Note_on_c, 4, 62, 101
6, 111150, Note_on_c, 4, 62, 0
6, 111150, Note_on_c, 4, 86, 0
6, 111150, Note_on_c, 4, 89, 0
6, 111150, Control_c, 4, 7, 60
6, 111150, Note_on_c, 4, 88, 104
6, 111150, Note_on_c, 4, 85, 86
6, 111180, Note_on_c, 4, 85, 0
6, 111180, Note_on_c, 4, 88, 0
6, 111180, Note_on_c, 4, 89, 99
6, 111180, Note_on_c, 4, 86, 98
6, 111180, Note_on_c, 4, 65, 104
6, 111205, Control_c, 4, 7, 61
6, 111210, Note_on_c, 4, 65, 0
6, 111210, Note_on_c, 4, 86, 0
6, 111210, Note_on_c, 4, 89, 0
6, 111210, Note_on_c, 4, 88, 105
6, 111210, Note_on_c, 4, 85, 89
6, 111240, Note_on_c, 4, 85, 0
6, 111240, Note_on_c, 4, 88, 0
6, 111240, Note_on_c, 4, 89, 90
6, 111240, Note_on_c, 4, 86, 86
6, 111240, Note_on_c, 4, 70, 98
6, 111255, Control_c, 4, 7, 62
6, 111270, Note_on_c, 4, 86, 0
6, 111270, Note_on_c, 4, 89, 0
6, 111270, Note_on_c, 4, 88, 98
6, 111270, Note_on_c, 4, 85, 80
6, 111300, Note_on_c, 4, 85, 0
6, 111300, Note_on_c, 4, 88, 0
6, 111300, Note_on_c, 4, 89, 98
6, 111300, Note_on_c, 4, 86, 99
6, 111310, Control_c, 4, 7, 63
6, 111330, Note_on_c, 4, 86, 0
6, 111330, Note_on_c, 4, 89, 0
6, 111330, Note_on_c, 4, 88, 104
6, 111330, Note_on_c, 4, 85, 85
6, 111360, Note_on_c, 4, 85, 0
6, 111360, Note_on_c, 4, 88, 0
6, 111360, Note_on_c, 4, 70, 0
6, 111360, Note_on_c, 4, 89, 99
6, 111360, Note_on_c, 4, 86, 98
6, 111365, Control_c, 4, 7, 64
6, 111390, Note_on_c, 4, 86, 0
6, 111390, Note_on_c, 4, 89, 0
6, 111390, Note_on_c, 4, 88, 99
6, 111390, Note_on_c, 4, 85, 86
6, 111420, Note_on_c, 4, 85, 0
6, 111420, Note_on_c, 4, 88, 0
6, 111420, Control_c, 4, 7, 65
6, 111420, Note_on_c, 4, 89, 98
6, 111420, Note_on_c, 4, 86, 99
6, 111450, Note_on_c, 4, 86, 0
6, 111450, Note_on_c, 4, 89, 0
6, 111450, Note_on_c, 4, 88, 101
6, 111450, Note_on_c, 4, 85, 89
6, 111470, Control_c, 4, 7, 66
6, 111480, Note_on_c, 4, 85, 0
6, 111480, Note_on_c, 4, 88, 0
6, 111480, Note_on_c, 4, 89, 98
6, 111480, Note_on_c, 4, 86, 98
6, 111510, Note_on_c, 4, 86, 0
6, 111510, Note_on_c, 4, 89, 0
6, 111510, Note_on_c, 4, 88, 104
6, 111510, Note_on_c, 4, 85, 86
6, 111525, Control_c, 4, 7, 67
6, 111540, Note_on_c, 4, 85, 0
6, 111540, Note_on_c, 4, 88, 0
6, 111540, Note_on_c, 4, 89, 99
6, 111540, Note_on_c, 4, 86, 98
6, 111570, Note_on_c, 4, 86, 0
6, 111570, Note_on_c, 4, 89, 0
6, 111570, Note_on_c, 4, 88, 105
6, 111570, Note_on_c, 4, 85, 89
6, 111580, Control_c, 4, 7, 68
6, 111600, Note_on_c, 4, 85, 0
6, 111600, Note_on_c, 4, 88, 0
6, 111600, Note_on_c, 4, 89, 90
6, 111600, Note_on_c, 4, 86, 86
6, 111600, Note_on_c, 4, 58, 95
6, 111630, Note_on_c, 4, 58, 0
6, 111630, Note_on_c, 4, 86, 0
6, 111630, Note_on_c, 4, 89, 0
6, 111630, Control_c, 4, 7, 69
6, 111630, Note_on_c, 4, 88, 98
6, 111630, Note_on_c, 4, 85, 80
6, 111660, Note_on_c, 4, 85, 0
6, 111660, Note_on_c, 4, 88, 0
6, 111660, Note_on_c, 4, 89, 98
6, 111660, Note_on_c, 4, 86, 99
6, 111660, Note_on_c, 4, 62, 101
6, 111685, Control_c, 4, 7, 70
6, 111690, Note_on_c, 4, 62, 0
6, 111690, Note_on_c, 4, 86, 0
6, 111690, Note_on_c, 4, 89, 0
6, 111690, Note_on_c, 4, 88, 104
6, 111690, Note_on_c, 4, 85, 85
6, 111720, Note_on_c, 4, 85, 0
6, 111720, Note_on_c, 4, 88, 0
6, 111720, Note_on_c, 4, 89, 99
6, 111720, Note_on_c, 4, 86, 98
6, 111720, Note_on_c, 4, 65, 105
6, 111740, Control_c, 4, 7, 71
6, 111750, Note_on_c, 4, 65, 0
6, 111750, Note_on_c, 4, 86, 0
6, 111750, Note_on_c, 4, 89, 0
6, 111750, Note_on_c, 4, 88, 99
6, 111750, Note_on_c, 4, 85, 86
6, 111780, Note_on_c, 4, 85, 0
6, 111780, Note_on_c, 4, 88, 0
6, 111780, Note_on_c, 4, 89, 98
6, 111780, Note_on_c, 4, 86, 99
6, 111780, Note_on_c, 4, 70, 104
6, 111790, Control_c, 4, 7, 72
6, 111810, Note_on_c, 4, 70, 0
6, 111810, Note_on_c, 4, 86, 0
6, 111810, Note_on_c, 4, 89, 0
6, 111810, Note_on_c, 4, 88, 101
6, 111810, Note_on_c, 4, 85, 89
6, 111840, Note_on_c, 4, 85, 0
6, 111840, Note_on_c, 4, 88, 0
6, 111840, Note_on_c, 4, 89, 98
6, 111840, Note_on_c, 4, 86, 98
6, 111840, Note_on_c, 4, 74, 104
6, 111845, Control_c, 4, 7, 73
6, 111870, Note_on_c, 4, 74, 0
6, 111870, Note_on_c, 4, 86, 0
6, 111870, Note_on_c, 4, 89, 0
6, 111870, Note_on_c, 4, 88, 104
6, 111870, Note_on_c, 4, 85, 86
6, 111900, Note_on_c, 4, 85, 0
6, 111900, Note_on_c, 4, 88, 0
6, 111900, Control_c, 4, 7, 74
6, 111900, Note_on_c, 4, 89, 99
6, 111900, Note_on_c, 4, 86, 98
6, 111900, Note_on_c, 4, 77, 101
6, 111930, Note_on_c, 4, 77, 0
6, 111930, Note_on_c, 4, 86, 0
6, 111930, Note_on_c, 4, 89, 0
6, 111930, Note_on_c, 4, 88, 105
6, 111930, Note_on_c, 4, 85, 89
6, 111955, Control_c, 4, 7, 75
6, 111960, Note_on_c, 4, 85, 0
6, 111960, Note_on_c, 4, 88, 0
6, 111960, Note_on_c, 4, 89, 90
6, 111960, Note_on_c, 4, 86, 86
6, 111960, Note_on_c, 4, 82, 94
6, 111990, Note_on_c, 4, 86, 0
6, 111990, Note_on_c, 4, 89, 0
6, 111990, Note_on_c, 4, 88, 98
6, 111990, Note_on_c, 4, 85, 80
6, 112005, Control_c, 4, 7, 76
6, 112020, Note_on_c, 4, 85, 0
6, 112020, Note_on_c, 4, 88, 0
6, 112020, Note_on_c, 4, 89, 98
6, 112020, Note_on_c, 4, 86, 99
6, 112050, Note_on_c, 4, 86, 0
6, 112050, Note_on_c, 4, 89, 0
6, 112050, Note_on_c, 4, 88, 104
6, 112050, Note_on_c, 4, 85, 85
6, 112060, Control_c, 4, 7, 77
6, 112080, Note_on_c, 4, 85, 0
6, 112080, Note_on_c, 4, 88, 0
6, 112080, Note_on_c, 4, 82, 0
6, 112080, Note_on_c, 4, 89, 99
6, 112080, Note_on_c, 4, 86, 98
6, 112110, Note_on_c, 4, 86, 0
6, 112110, Note_on_c, 4, 89, 0
6, 112110, Note_on_c, 4, 88, 99
6, 112110, Note_on_c, 4, 85, 86
6, 112115, Control_c, 4, 7, 78
6, 112140, Note_on_c, 4, 85, 0
6, 112140, Note_on_c, 4, 88, 0
6, 112140, Note_on_c, 4, 89, 98
6, 112140, Note_on_c, 4, 86, 99
6, 112165, Control_c, 4, 7, 79
6, 112170, Note_on_c, 4, 86, 0
6, 112170, Note_on_c, 4, 89, 0
6, 112170, Note_on_c, 4, 88, 101
6, 112170, Note_on_c, 4, 85, 89
6, 112200, Note_on_c, 4, 85, 0
6, 112200, Note_on_c, 4, 88, 0
6, 112200, Note_on_c, 4, 89, 98
6, 112200, Note_on_c, 4, 86, 98
6, 112220, Control_c, 4, 7, 80
6, 112230, Note_on_c, 4, 86, 0
6, 112230, Note_on_c, 4, 89, 0
6, 112230, Note_on_c, 4, 88, 104
6, 112230, Note_on_c, 4, 85, 86
6, 112260, Note_on_c, 4, 85, 0
6, 112260, Note_on_c, 4, 88, 0
6, 112260, Note_on_c, 4, 89, 99
6, 112260, Note_on_c, 4, 86, 98
6, 112275, Control_c, 4, 7, 81
6, 112290, Note_on_c, 4, 86, 0
6, 112290, Note_on_c, 4, 89, 0
6, 112290, Note_on_c, 4, 88, 105
6, 112290, Note_on_c, 4, 85, 89
6, 112320, Note_on_c, 4, 85, 0
6, 112320, Note_on_c, 4, 88, 0
6, 112320, Note_on_c, 4, 89, 90
6, 112320, Note_on_c, 4, 86, 86
6, 112320, Note_on_c, 4, 82, 95
6, 112325, Control_c, 4, 7, 82
6, 112335, Control_c, 4, 7, 78
6, 112350, Note_on_c, 4, 86, 0
6, 112350, Note_on_c, 4, 89, 0
6, 112350, Note_on_c, 4, 88, 98
6, 112350, Note_on_c, 4, 85, 80
6, 112375, Control_c, 4, 7, 77
6, 112380, Note_on_c, 4, 85, 0
6, 112380, Note_on_c, 4, 88, 0
6, 112380, Note_on_c, 4, 89, 98
6, 112380, Note_on_c, 4, 86, 99
6, 112410, Note_on_c, 4, 86, 0
6, 112410, Note_on_c, 4, 89, 0
6, 112410, Control_c, 4, 7, 76
6, 112410, Note_on_c, 4, 88, 104
6, 112410, Note_on_c, 4, 85, 85
6, 112440, Note_on_c, 4, 85, 0
6, 112440, Note_on_c, 4, 88, 0
6, 112440, Note_on_c, 4, 82, 0
6, 112440, Note_on_c, 4, 89, 99
6, 112440, Note_on_c, 4, 86, 98
6, 112445, Control_c, 4, 7, 75
6, 112470, Note_on_c, 4, 86, 0
6, 112470, Note_on_c, 4, 89, 0
6, 112470, Note_on_c, 4, 88, 99
6, 112470, Note_on_c, 4, 85, 86
6, 112485, Control_c, 4, 7, 74
6, 112500, Note_on_c, 4, 85, 0
6, 112500, Note_on_c, 4, 88, 0
6, 112500, Note_on_c, 4, 89, 98
6, 112500, Note_on_c, 4, 86, 99
6, 112500, Note_on_c, 4, 82, 94
6, 112520, Control_c, 4, 7, 73
6, 112530, Note_on_c, 4, 86, 0
6, 112530, Note_on_c, 4, 89, 0
6, 112530, Note_on_c, 4, 88, 101
6, 112530, Note_on_c, 4, 85, 89
6, 112555, Control_c, 4, 7, 72
6, 112560, Note_on_c, 4, 85, 0
6, 112560, Note_on_c, 4, 88, 0
6, 112560, Note_on_c, 4, 89, 98
6, 112560, Note_on_c, 4, 86, 98
6, 112590, Note_on_c, 4, 86, 0
6, 112590, Note_on_c, 4, 89, 0
6, 112590, Note_on_c, 4, 88, 104
6, 112590, Note_on_c, 4, 85, 86
6, 112595, Control_c, 4, 7, 71
6, 112620, Note_on_c, 4, 85, 0
6, 112620, Note_on_c, 4, 88, 0
6, 112620, Note_on_c, 4, 82, 0
6, 112620, Note_on_c, 4, 89, 99
6, 112620, Note_on_c, 4, 86, 98
6, 112630, Control_c, 4, 7, 70
6, 112650, Note_on_c, 4, 86, 0
6, 112650, Note_on_c, 4, 89, 0
6, 112650, Note_on_c, 4, 88, 105
6, 112650, Note_on_c, 4, 85, 89
6, 112665, Control_c, 4, 7, 69
6, 112680, Note_on_c, 4, 85, 0
6, 112680, Note_on_c, 4, 88, 0
6, 112680, Note_on_c, 4, 89, 90
6, 112680, Note_on_c, 4, 86, 86
6, 112680, Note_on_c, 4, 82, 93
6, 112685, Control_c, 4, 7, 68
6, 112710, Note_on_c, 4, 86, 0
6, 112710, Note_on_c, 4, 89, 0
6, 112710, Note_on_c, 4, 88, 98
6, 112710, Note_on_c, 4, 85, 80
6, 112725, Control_c, 4, 7, 67
6, 112740, Note_on_c, 4, 85, 0
6, 112740, Note_on_c, 4, 88, 0
6, 112740, Note_on_c, 4, 89, 98
6, 112740, Note_on_c, 4, 86, 99
6, 112760, Control_c, 4, 7, 66
6, 112770, Note_on_c, 4, 86, 0
6, 112770, Note_on_c, 4, 89, 0
6, 112770, Note_on_c, 4, 88, 104
6, 112770, Note_on_c, 4, 85, 85
6, 112795, Control_c, 4, 7, 65
6, 112800, Note_on_c, 4, 85, 0
6, 112800, Note_on_c, 4, 88, 0
6, 112800, Note_on_c, 4, 82, 0
6, 112800, Note_on_c, 4, 89, 99
6, 112800, Note_on_c, 4, 86, 98
6, 112830, Note_on_c, 4, 86, 0
6, 112830, Note_on_c, 4, 89, 0
6, 112830, Control_c, 4, 7, 64
6, 112830, Note_on_c, 4, 88, 99
6, 112830, Note_on_c, 4, 85, 86
6, 112860, Note_on_c, 4, 85, 0
6, 112860, Note_on_c, 4, 88, 0
6, 112860, Note_on_c, 4, 89, 98
6, 112860, Note_on_c, 4, 86, 99
6, 112865, Control_c, 4, 7, 63
6, 112890, Note_on_c, 4, 86, 0
6, 112890, Note_on_c, 4, 89, 0
6, 112890, Note_on_c, 4, 88, 101
6, 112890, Note_on_c, 4, 85, 89
6, 112900, Control_c, 4, 7, 62
6, 112920, Note_on_c, 4, 85, 0
6, 112920, Note_on_c, 4, 88, 0
6, 112920, Note_on_c, 4, 89, 98
6, 112920, Note_on_c, 4, 86, 98
6, 112940, Control_c, 4, 7, 61
6, 112950, Note_on_c, 4, 86, 0
6, 112950, Note_on_c, 4, 89, 0
6, 112950, Note_on_c, 4, 88, 104
6, 112950, Note_on_c, 4, 85, 86
6, 112975, Control_c, 4, 7, 60
6, 112980, Note_on_c, 4, 85, 0
6, 112980, Note_on_c, 4, 88, 0
6, 112980, Note_on_c, 4, 89, 99
6, 112980, Note_on_c, 4, 86, 98
6, 113010, Note_on_c, 4, 86, 0
6, 113010, Note_on_c, 4, 89, 0
6, 113010, Control_c, 4, 7, 59
6, 113010, Note_on_c, 4, 88, 105
6, 113010, Note_on_c, 4, 85, 89
6, 113040, Note_on_c, 4, 85, 0
6, 113040, Note_on_c, 4, 88, 0
6, 113040, Note_on_c, 4, 89, 90
6, 113040, Note_on_c, 4, 86, 86
6, 113040, Note_on_c, 4, 82, 94
6, 113045, Control_c, 4, 7, 58
6, 113070, Note_on_c, 4, 86, 0
6, 113070, Note_on_c, 4, 89, 0
6, 113070, Note_on_c, 4, 88, 98
6, 113070, Note_on_c, 4, 85, 80
6, 113080, Control_c, 4, 7, 57
6, 113100, Note_on_c, 4, 85, 0
6, 113100, Note_on_c, 4, 88, 0
6, 113100, Note_on_c, 4, 89, 98
6, 113100, Note_on_c, 4, 86, 99
6, 113115, Control_c, 4, 7, 56
6, 113130, Note_on_c, 4, 86, 0
6, 113130, Note_on_c, 4, 89, 0
6, 113130, Note_on_c, 4, 88, 104
6, 113130, Note_on_c, 4, 85, 85
6, 113150, Control_c, 4, 7, 55
6, 113160, Note_on_c, 4, 85, 0
6, 113160, Note_on_c, 4, 88, 0
6, 113160, Note_on_c, 4, 82, 0
6, 113160, Note_on_c, 4, 89, 99
6, 113160, Note_on_c, 4, 86, 98
6, 113190, Note_on_c, 4, 86, 0
6, 113190, Note_on_c, 4, 89, 0
6, 113190, Control_c, 4, 7, 54
6, 113190, Note_on_c, 4, 88, 99
6, 113190, Note_on_c, 4, 85, 86
6, 113220, Note_on_c, 4, 85, 0
6, 113220, Note_on_c, 4, 88, 0
6, 113220, Note_on_c, 4, 89, 98
6, 113220, Note_on_c, 4, 86, 99
6, 113220, Note_on_c, 4, 82, 90
6, 113225, Control_c, 4, 7, 53
6, 113250, Note_on_c, 4, 86, 0
6, 113250, Note_on_c, 4, 89, 0
6, 113250, Note_on_c, 4, 88, 101
6, 113250, Note_on_c, 4, 85, 89
6, 113260, Control_c, 4, 7, 52
6, 113280, Note_on_c, 4, 85, 0
6, 113280, Note_on_c, 4, 88, 0
6, 113280, Note_on_c, 4, 89, 98
6, 113280, Note_on_c, 4, 86, 98
6, 113295, Control_c, 4, 7, 51
6, 113310, Note_on_c, 4, 86, 0
6, 113310, Note_on_c, 4, 89, 0
6, 113310, Note_on_c, 4, 88, 104
6, 113310, Note_on_c, 4, 85, 86
6, 113330, Control_c, 4, 7, 50
6, 113340, Note_on_c, 4, 85, 0
6, 113340, Note_on_c, 4, 88, 0
6, 113340, Note_on_c, 4, 82, 0
6, 113340, Note_on_c, 4, 89, 99
6, 113340, Note_on_c, 4, 86, 98
6, 113365, Control_c, 4, 7, 49
6, 113370, Note_on_c, 4, 86, 0
6, 113370, Note_on_c, 4, 89, 0
6, 113370, Note_on_c, 4, 88, 105
6, 113370, Note_on_c, 4, 85, 89
6, 113400, Note_on_c, 4, 85, 0
6, 113400, Note_on_c, 4, 88, 0
6, 113400, Note_on_c, 4, 82, 100
6, 113400, Control_c, 4, 7, 48
6, 113400, Note_on_c, 4, 89, 89
6, 113400, Note_on_c, 4, 86, 98
6, 113520, Note_on_c, 4, 86, 0
6, 113520, Note_on_c, 4, 89, 0
6, 113520, Note_on_c, 4, 82, 0
6, 113760, Note_on_c, 4, 86, 85
6, 113760, Note_on_c, 4, 79, 74
6, 113760, Note_on_c, 4, 71, 89
6, 113760, Note_on_c, 4, 67, 81
6, 113880, Note_on_c, 4, 67, 0
6, 113880, Note_on_c, 4, 86, 0
6, 113880, Note_on_c, 4, 79, 0
6, 113880, Note_on_c, 4, 71, 0
6, 114120, Note_on_c, 4, 87, 86
6, 114120, Note_on_c, 4, 79, 89
6, 114120, Note_on_c, 4, 72, 61
6, 114120, Note_on_c, 4, 60, 94
6, 114240, Note_on_c, 4, 60, 0
6, 114240, Note_on_c, 4, 87, 0
6, 114240, Note_on_c, 4, 79, 0
6, 114240, Note_on_c, 4, 72, 0
6, 114480, Note_on_c, 4, 84, 84
6, 114480, Note_on_c, 4, 77, 74
6, 114480, Note_on_c, 4, 69, 85
6, 114480, Note_on_c, 4, 65, 84
6, 114600, Note_on_c, 4, 65, 0
6, 114600, Note_on_c, 4, 84, 0
6, 114600, Note_on_c, 4, 77, 0
6, 114600, Note_on_c, 4, 69, 0
6, 114840, Note_on_c, 4, 86, 89
6, 114840, Note_on_c, 4, 77, 80
6, 114840, Note_on_c, 4, 70, 84
6, 114840, Note_on_c, 4, 58, 94
6, 114960, Note_on_c, 4, 58, 0
6, 114960, Note_on_c, 4, 86, 0
6, 114960, Note_on_c, 4, 77, 0
6, 114960, Note_on_c, 4, 70, 0
6, 115110, Control_c, 4, 7, 99
6, 117490, Control_c, 4, 7, 99
6, 117490, Control_c, 4, 10, 64
6, 117490, Control_c, 4, 93, 0
6, 117490, Control_c, 4, 91, 66
6, 117490, End_track
7, 0, Start_track
7, 0, Title_t, "1st Violins"
7, 0, Program_c, 5, 48
7, 0, Control_c, 5, 7, 100
7, 0, Control_c, 5, 10, 35
7, 2880, Note_on_c, 5, 74, 94
7, 2910, Note_on_c, 5, 74, 0
7, 2940, Note_on_c, 5, 70, 101
7, 3060, Note_on_c, 5, 70, 0
7, 3060, Note_on_c, 5, 74, 94
7, 3090, Note_on_c, 5, 74, 0
7, 3120, Note_on_c, 5, 70, 99
7, 3210, Note_on_c, 5, 70, 0
7, 3225, Note_on_c, 5, 72, 81
7, 3240, Note_on_c, 5, 72, 0
7, 3240, Note_on_c, 5, 70, 86
7, 3300, Note_on_c, 5, 70, 0
7, 3300, Note_on_c, 5, 69, 94
7, 3360, Note_on_c, 5, 69, 0
7, 3360, Note_on_c, 5, 70, 94
7, 3390, Note_on_c, 5, 70, 0
7, 3420, Note_on_c, 5, 72, 89
7, 3540, Note_on_c, 5, 72, 0
7, 3600, Note_on_c, 5, 75, 95
7, 3630, Note_on_c, 5, 75, 0
7, 3660, Note_on_c, 5, 72, 81
7, 3780, Note_on_c, 5, 72, 0
7, 3780, Note_on_c, 5, 75, 94
7, 3810, Note_on_c, 5, 75, 0
7, 3840, Note_on_c, 5, 72, 78
7, 3930, Note_on_c, 5, 72, 0
7, 3945, Note_on_c, 5, 74, 95
7, 3960, Note_on_c, 5, 74, 0
7, 3960, Note_on_c, 5, 72, 72
7, 4020, Note_on_c, 5, 72, 0
7, 4020, Note_on_c, 5, 70, 90
7, 4080, Note_on_c, 5, 70, 0
7, 4080, Note_on_c, 5, 72, 72
7, 4110, Note_on_c, 5, 72, 0
7, 4140, Note_on_c, 5, 74, 95
7, 4260, Note_on_c, 5, 74, 0
7, 4260, Note_on_c, 5, 70, 93
7, 4290, Note_on_c, 5, 70, 0
7, 4320, Note_on_c, 5, 70, 94
7, 4380, Note_on_c, 5, 70, 0
7, 4380, Note_on_c, 5, 79, 81
7, 4440, Note_on_c, 5, 79, 0
7, 4440, Note_on_c, 5, 79, 76
7, 4470, Note_on_c, 5, 79, 0
7, 4500, Note_on_c, 5, 79, 81
7, 4560, Note_on_c, 5, 79, 0
7, 4560, Note_on_c, 5, 77, 80
7, 4620, Note_on_c, 5, 77, 0
7, 4620, Note_on_c, 5, 70, 84
7, 4650, Note_on_c, 5, 70, 0
7, 4680, Note_on_c, 5, 70, 89
7, 4740, Note_on_c, 5, 70, 0
7, 4740, Note_on_c, 5, 79, 77
7, 4800, Note_on_c, 5, 79, 0
7, 4800, Note_on_c, 5, 79, 76
7, 4830, Note_on_c, 5, 79, 0
7, 4860, Note_on_c, 5, 79, 76
7, 4920, Note_on_c, 5, 79, 0
7, 4920, Note_on_c, 5, 77, 86
7, 4980, Note_on_c, 5, 77, 0
7, 4980, Note_on_c, 5, 77, 77
7, 5010, Note_on_c, 5, 77, 0
7, 5040, Note_on_c, 5, 77, 73
7, 5100, Note_on_c, 5, 77, 0
7, 5100, Note_on_c, 5, 76, 95
7, 5160, Note_on_c, 5, 76, 0
7, 5160, Note_on_c, 5, 75, 84
7, 5190, Note_on_c, 5, 75, 0
7, 5220, Note_on_c, 5, 75, 89
7, 5280, Note_on_c, 5, 75, 0
7, 5280, Note_on_c, 5, 74, 95
7, 5340, Note_on_c, 5, 74, 0
7, 5340, Note_on_c, 5, 73, 76
7, 5370, Note_on_c, 5, 73, 0
7, 5400, Note_on_c, 5, 73, 72
7, 5460, Note_on_c, 5, 73, 0
7, 5460, Note_on_c, 5, 74, 90
7, 5520, Note_on_c, 5, 74, 0
7, 5520, Note_on_c, 5, 74, 89
7, 5550, Note_on_c, 5, 74, 0
7, 5580, Note_on_c, 5, 74, 94
7, 5640, Note_on_c, 5, 74, 0
7, 5640, Note_on_c, 5, 75, 93
7, 5700, Note_on_c, 5, 75, 0
7, 5700, Note_on_c, 5, 72, 63
7, 5730, Note_on_c, 5, 72, 0
7, 5760, Note_on_c, 5, 70, 89
7, 5790, Note_on_c, 5, 70, 0
7, 5820, Note_on_c, 5, 74, 101
7, 5940, Control_c, 5, 7, 99
7, 5946, Control_c, 5, 7, 98
7, 5950, Control_c, 5, 7, 97
7, 5956, Control_c, 5, 7, 96
7, 5960, Control_c, 5, 7, 95
7, 5966, Control_c, 5, 7, 94
7, 5970, Control_c, 5, 7, 93
7, 5976, Control_c, 5, 7, 92
7, 5980, Control_c, 5, 7, 91
7, 5984, Control_c, 5, 7, 90
7, 5990, Control_c, 5, 7, 89
7, 5994, Control_c, 5, 7, 88
7, 6000, Control_c, 5, 7, 87
7, 6004, Control_c, 5, 7, 86
7, 6010, Control_c, 5, 7, 85
7, 6014, Control_c, 5, 7, 84
7, 6018, Control_c, 5, 7, 83
7, 6024, Control_c, 5, 7, 82
7, 6028, Control_c, 5, 7, 81
7, 6034, Control_c, 5, 7, 80
7, 6038, Control_c, 5, 7, 79
7, 6044, Control_c, 5, 7, 78
7, 6048, Control_c, 5, 7, 77
7, 6052, Control_c, 5, 7, 76
7, 6058, Control_c, 5, 7, 75
7, 6060, Note_on_c, 5, 74, 0
7, 6060, Note_on_c, 5, 70, 89
7, 6062, Control_c, 5, 7, 74
7, 6068, Control_c, 5, 7, 73
7, 6072, Control_c, 5, 7, 72
7, 6078, Control_c, 5, 7, 71
7, 6082, Control_c, 5, 7, 70
7, 6086, Control_c, 5, 7, 69
7, 6090, Note_on_c, 5, 70, 0
7, 6092, Control_c, 5, 7, 68
7, 6096, Control_c, 5, 7, 67
7, 6102, Control_c, 5, 7, 66
7, 6106, Control_c, 5, 7, 65
7, 6112, Control_c, 5, 7, 64
7, 6116, Control_c, 5, 7, 63
7, 6120, Note_on_c, 5, 69, 104
7, 6120, Control_c, 5, 7, 62
7, 6150, Note_on_c, 5, 69, 0
7, 6180, Note_on_c, 5, 75, 95
7, 6180, Control_c, 5, 7, 99
7, 6420, Note_on_c, 5, 75, 0
7, 6420, Note_on_c, 5, 72, 80
7, 6450, Note_on_c, 5, 72, 0
7, 6480, Note_on_c, 5, 70, 86
7, 6510, Note_on_c, 5, 70, 0
7, 6540, Note_on_c, 5, 86, 99
7, 6720, Note_on_c, 5, 86, 0
7, 6720, Note_on_c, 5, 84, 81
7, 6750, Note_on_c, 5, 84, 0
7, 6780, Note_on_c, 5, 82, 84
7, 6810, Note_on_c, 5, 82, 0
7, 6840, Note_on_c, 5, 81, 86
7, 6870, Note_on_c, 5, 81, 0
7, 6900, Note_on_c, 5, 79, 84
7, 6930, Note_on_c, 5, 79, 0
7, 6960, Note_on_c, 5, 77, 90
7, 6990, Note_on_c, 5, 77, 0
7, 7020, Note_on_c, 5, 75, 95
7, 7050, Note_on_c, 5, 75, 0
7, 7080, Note_on_c, 5, 74, 99
7, 7110, Note_on_c, 5, 74, 0
7, 7140, Note_on_c, 5, 72, 73
7, 7170, Note_on_c, 5, 72, 0
7, 7200, Note_on_c, 5, 70, 94
7, 7320, Note_on_c, 5, 70, 0
7, 7380, Note_on_c, 5, 82, 89
7, 7380, Note_on_c, 5, 70, 89
7, 7380, Note_on_c, 5, 62, 94
7, 7500, Note_on_c, 5, 62, 0
7, 7500, Note_on_c, 5, 70, 0
7, 7500, Note_on_c, 5, 82, 0
7, 7560, Note_on_c, 5, 70, 89
7, 7560, Note_on_c, 5, 62, 99
7, 7680, Note_on_c, 5, 62, 0
7, 7680, Note_on_c, 5, 70, 0
7, 8640, Note_on_c, 5, 74, 105
7, 9000, Note_on_c, 5, 74, 0
7, 9000, Note_on_c, 5, 77, 94
7, 9180, Note_on_c, 5, 77, 0
7, 9180, Note_on_c, 5, 79, 90
7, 9360, Note_on_c, 5, 79, 0
7, 9360, Note_on_c, 5, 72, 77
7, 9480, Note_on_c, 5, 72, 0
7, 10800, Note_on_c, 5, 81, 101
7, 11160, Note_on_c, 5, 81, 0
7, 11160, Note_on_c, 5, 84, 86
7, 11340, Note_on_c, 5, 84, 0
7, 11340, Note_on_c, 5, 86, 84
7, 11520, Note_on_c, 5, 86, 0
7, 11520, Note_on_c, 5, 79, 81
7, 11640, Note_on_c, 5, 79, 0
7, 14460, Note_on_c, 5, 64, 74
7, 14490, Note_on_c, 5, 64, 0
7, 14520, Note_on_c, 5, 67, 67
7, 14550, Note_on_c, 5, 67, 0
7, 14580, Note_on_c, 5, 64, 69
7, 14610, Note_on_c, 5, 64, 0
7, 14640, Note_on_c, 5, 64, 65
7, 14670, Note_on_c, 5, 64, 0
7, 14700, Note_on_c, 5, 67, 58
7, 14730, Note_on_c, 5, 67, 0
7, 14760, Note_on_c, 5, 65, 71
7, 14790, Note_on_c, 5, 65, 0
7, 14820, Note_on_c, 5, 65, 78
7, 14850, Note_on_c, 5, 65, 0
7, 14880, Note_on_c, 5, 67, 61
7, 14910, Note_on_c, 5, 67, 0
7, 14940, Note_on_c, 5, 65, 74
7, 14970, Note_on_c, 5, 65, 0
7, 15000, Note_on_c, 5, 65, 73
7, 15030, Note_on_c, 5, 65, 0
7, 15060, Note_on_c, 5, 67, 68
7, 15090, Note_on_c, 5, 67, 0
7, 15120, Note_on_c, 5, 64, 76
7, 15150, Note_on_c, 5, 64, 0
7, 15180, Note_on_c, 5, 64, 76
7, 15210, Note_on_c, 5, 64, 0
7, 15240, Note_on_c, 5, 67, 67
7, 15270, Note_on_c, 5, 67, 0
7, 15300, Note_on_c, 5, 64, 78
7, 15330, Note_on_c, 5, 64, 0
7, 15360, Note_on_c, 5, 64, 69
7, 15390, Note_on_c, 5, 64, 0
7, 15420, Note_on_c, 5, 67, 65
7, 15450, Note_on_c, 5, 67, 0
7, 15480, Note_on_c, 5, 65, 74
7, 15510, Note_on_c, 5, 65, 0
7, 15540, Note_on_c, 5, 65, 74
7, 15570, Note_on_c, 5, 65, 0
7, 15600, Note_on_c, 5, 71, 43
7, 15630, Note_on_c, 5, 71, 0
7, 15660, Note_on_c, 5, 65, 65
7, 15690, Note_on_c, 5, 65, 0
7, 15720, Note_on_c, 5, 65, 72
7, 15750, Note_on_c, 5, 65, 0
7, 15780, Note_on_c, 5, 71, 58
7, 15810, Note_on_c, 5, 71, 0
7, 15840, Note_on_c, 5, 72, 73
7, 15960, Note_on_c, 5, 72, 0
7, 16200, Note_on_c, 5, 60, 73
7, 16320, Note_on_c, 5, 60, 0
7, 16560, Note_on_c, 5, 60, 62
7, 16680, Note_on_c, 5, 60, 0
7, 20100, Note_on_c, 5, 65, 74
7, 20130, Note_on_c, 5, 65, 0
7, 20130, Note_on_c, 5, 67, 61
7, 20160, Note_on_c, 5, 67, 0
7, 20160, Note_on_c, 5, 68, 74
7, 20220, Note_on_c, 5, 68, 0
7, 20220, Note_on_c, 5, 69, 78
7, 20280, Note_on_c, 5, 69, 0
7, 20280, Note_on_c, 5, 69, 89
7, 20310, Note_on_c, 5, 69, 0
7, 20340, Note_on_c, 5, 68, 84
7, 20400, Note_on_c, 5, 68, 0
7, 20400, Note_on_c, 5, 69, 80
7, 20460, Note_on_c, 5, 69, 0
7, 20460, Note_on_c, 5, 69, 90
7, 20490, Note_on_c, 5, 69, 0
7, 20520, Note_on_c, 5, 68, 89
7, 20580, Note_on_c, 5, 68, 0
7, 20580, Note_on_c, 5, 69, 84
7, 20640, Note_on_c, 5, 69, 0
7, 20640, Note_on_c, 5, 69, 90
7, 20670, Note_on_c, 5, 69, 0
7, 20700, Note_on_c, 5, 74, 105
7, 20880, Note_on_c, 5, 74, 0
7, 21540, Note_on_c, 5, 65, 57
7, 21570, Note_on_c, 5, 65, 0
7, 21570, Note_on_c, 5, 67, 55
7, 21600, Note_on_c, 5, 67, 0
7, 21600, Note_on_c, 5, 68, 76
7, 21660, Note_on_c, 5, 68, 0
7, 21660, Note_on_c, 5, 69, 77
7, 21720, Note_on_c, 5, 69, 0
7, 21720, Note_on_c, 5, 69, 78
7, 21750, Note_on_c, 5, 69, 0
7, 21780, Note_on_c, 5, 68, 80
7, 21840, Note_on_c, 5, 68, 0
7, 21840, Note_on_c, 5, 69, 89
7, 21900, Note_on_c, 5, 69, 0
7, 21900, Note_on_c, 5, 69, 84
7, 21930, Note_on_c, 5, 69, 0
7, 21960, Note_on_c, 5, 68, 84
7, 22020, Note_on_c, 5, 68, 0
7, 22020, Note_on_c, 5, 69, 94
7, 22080, Note_on_c, 5, 69, 0
7, 22080, Note_on_c, 5, 69, 90
7, 22110, Note_on_c, 5, 69, 0
7, 22140, Note_on_c, 5, 77, 95
7, 22320, Note_on_c, 5, 77, 0
7, 23040, Note_on_c, 5, 67, 99
7, 23160, Note_on_c, 5, 67, 0
7, 23160, Note_on_c, 5, 64, 99
7, 23220, Note_on_c, 5, 64, 0
7, 23220, Note_on_c, 5, 67, 94
7, 23340, Note_on_c, 5, 67, 0
7, 23340, Note_on_c, 5, 64, 95
7, 23400, Note_on_c, 5, 64, 0
7, 23400, Note_on_c, 5, 65, 94
7, 23460, Note_on_c, 5, 65, 0
7, 23460, Note_on_c, 5, 69, 105
7, 23520, Note_on_c, 5, 69, 0
7, 23520, Note_on_c, 5, 72, 73
7, 23550, Note_on_c, 5, 72, 0
7, 23580, Note_on_c, 5, 72, 77
7, 23640, Note_on_c, 5, 72, 0
7, 23760, Note_on_c, 5, 70, 65
7, 23880, Note_on_c, 5, 70, 0
7, 23940, Note_on_c, 5, 70, 49
7, 24060, Note_on_c, 5, 70, 0
7, 24120, Note_on_c, 5, 69, 68
7, 24240, Note_on_c, 5, 69, 0
7, 24480, Note_on_c, 5, 67, 99
7, 24600, Note_on_c, 5, 67, 0
7, 24600, Note_on_c, 5, 64, 99
7, 24660, Note_on_c, 5, 64, 0
7, 24660, Note_on_c, 5, 67, 94
7, 24780, Note_on_c, 5, 67, 0
7, 24780, Note_on_c, 5, 64, 95
7, 24840, Note_on_c, 5, 64, 0
7, 24840, Note_on_c, 5, 65, 94
7, 24900, Note_on_c, 5, 65, 0
7, 24900, Note_on_c, 5, 69, 105
7, 24960, Note_on_c, 5, 69, 0
7, 24960, Note_on_c, 5, 72, 73
7, 24990, Note_on_c, 5, 72, 0
7, 25020, Note_on_c, 5, 72, 77
7, 25080, Note_on_c, 5, 72, 0
7, 25200, Note_on_c, 5, 70, 65
7, 25320, Note_on_c, 5, 70, 0
7, 25380, Note_on_c, 5, 70, 49
7, 25500, Note_on_c, 5, 70, 0
7, 25560, Note_on_c, 5, 69, 68
7, 25680, Note_on_c, 5, 69, 0
7, 27000, Note_on_c, 5, 67, 57
7, 27120, Note_on_c, 5, 67, 0
7, 27180, Note_on_c, 5, 67, 67
7, 27300, Note_on_c, 5, 67, 0
7, 27360, Note_on_c, 5, 69, 76
7, 27480, Note_on_c, 5, 69, 0
7, 27540, Note_on_c, 5, 67, 57
7, 27660, Note_on_c, 5, 67, 0
7, 29160, Note_on_c, 5, 67, 65
7, 29280, Note_on_c, 5, 67, 0
7, 29520, Note_on_c, 5, 74, 68
7, 29640, Note_on_c, 5, 74, 0
7, 29880, Note_on_c, 5, 74, 68
7, 30000, Note_on_c, 5, 74, 0
7, 30600, Note_on_c, 5, 69, 63
7, 30720, Note_on_c, 5, 69, 0
7, 30960, Note_on_c, 5, 75, 56
7, 31080, Note_on_c, 5, 75, 0
7, 31320, Note_on_c, 5, 75, 44
7, 31440, Note_on_c, 5, 75, 0
7, 37080, Note_on_c, 5, 74, 94
7, 37110, Note_on_c, 5, 74, 0
7, 37140, Note_on_c, 5, 70, 101
7, 37260, Note_on_c, 5, 70, 0
7, 37260, Note_on_c, 5, 74, 94
7, 37290, Note_on_c, 5, 74, 0
7, 37320, Note_on_c, 5, 70, 99
7, 37410, Note_on_c, 5, 70, 0
7, 37425, Note_on_c, 5, 72, 81
7, 37440, Note_on_c, 5, 72, 0
7, 37440, Note_on_c, 5, 70, 86
7, 37500, Note_on_c, 5, 70, 0
7, 37500, Note_on_c, 5, 69, 94
7, 37560, Note_on_c, 5, 69, 0
7, 37560, Note_on_c, 5, 70, 94
7, 37590, Note_on_c, 5, 70, 0
7, 37620, Note_on_c, 5, 72, 89
7, 37740, Note_on_c, 5, 72, 0
7, 37800, Note_on_c, 5, 75, 95
7, 37830, Note_on_c, 5, 75, 0
7, 37860, Note_on_c, 5, 72, 81
7, 37980, Note_on_c, 5, 72, 0
7, 37980, Note_on_c, 5, 75, 94
7, 38010, Note_on_c, 5, 75, 0
7, 38040, Note_on_c, 5, 72, 78
7, 38130, Note_on_c, 5, 72, 0
7, 38145, Note_on_c, 5, 74, 95
7, 38160, Note_on_c, 5, 74, 0
7, 38160, Note_on_c, 5, 72, 72
7, 38220, Note_on_c, 5, 72, 0
7, 38220, Note_on_c, 5, 70, 90
7, 38280, Note_on_c, 5, 70, 0
7, 38280, Note_on_c, 5, 72, 72
7, 38310, Note_on_c, 5, 72, 0
7, 38340, Note_on_c, 5, 74, 95
7, 38460, Note_on_c, 5, 74, 0
7, 38460, Note_on_c, 5, 70, 93
7, 38490, Note_on_c, 5, 70, 0
7, 38520, Note_on_c, 5, 70, 94
7, 38580, Note_on_c, 5, 70, 0
7, 38580, Note_on_c, 5, 79, 81
7, 38640, Note_on_c, 5, 79, 0
7, 38640, Note_on_c, 5, 79, 76
7, 38670, Note_on_c, 5, 79, 0
7, 38700, Note_on_c, 5, 79, 81
7, 38760, Note_on_c, 5, 79, 0
7, 38760, Note_on_c, 5, 77, 80
7, 38820, Note_on_c, 5, 77, 0
7, 38820, Note_on_c, 5, 70, 84
7, 38850, Note_on_c, 5, 70, 0
7, 38880, Note_on_c, 5, 70, 89
7, 38940, Note_on_c, 5, 70, 0
7, 38940, Note_on_c, 5, 79, 77
7, 39000, Note_on_c, 5, 79, 0
7, 39000, Note_on_c, 5, 79, 76
7, 39030, Note_on_c, 5, 79, 0
7, 39060, Note_on_c, 5, 79, 76
7, 39120, Note_on_c, 5, 79, 0
7, 39120, Note_on_c, 5, 77, 86
7, 39180, Note_on_c, 5, 77, 0
7, 39180, Note_on_c, 5, 77, 77
7, 39210, Note_on_c, 5, 77, 0
7, 39240, Note_on_c, 5, 77, 73
7, 39300, Note_on_c, 5, 77, 0
7, 39300, Note_on_c, 5, 76, 95
7, 39360, Note_on_c, 5, 76, 0
7, 39360, Note_on_c, 5, 75, 84
7, 39390, Note_on_c, 5, 75, 0
7, 39420, Note_on_c, 5, 75, 89
7, 39480, Note_on_c, 5, 75, 0
7, 39480, Note_on_c, 5, 74, 95
7, 39540, Note_on_c, 5, 74, 0
7, 39540, Note_on_c, 5, 73, 76
7, 39570, Note_on_c, 5, 73, 0
7, 39600, Note_on_c, 5, 73, 72
7, 39660, Note_on_c, 5, 73, 0
7, 39660, Note_on_c, 5, 74, 90
7, 39720, Note_on_c, 5, 74, 0
7, 39720, Note_on_c, 5, 74, 89
7, 39750, Note_on_c, 5, 74, 0
7, 39780, Note_on_c, 5, 74, 94
7, 39840, Note_on_c, 5, 74, 0
7, 39840, Note_on_c, 5, 75, 93
7, 39900, Note_on_c, 5, 75, 0
7, 39900, Note_on_c, 5, 72, 63
7, 39930, Note_on_c, 5, 72, 0
7, 39960, Note_on_c, 5, 70, 89
7, 39990, Note_on_c, 5, 70, 0
7, 40020, Note_on_c, 5, 74, 101
7, 40140, Control_c, 5, 7, 99
7, 40146, Control_c, 5, 7, 98
7, 40150, Control_c, 5, 7, 97
7, 40156, Control_c, 5, 7, 96
7, 40160, Control_c, 5, 7, 95
7, 40166, Control_c, 5, 7, 94
7, 40170, Control_c, 5, 7, 93
7, 40176, Control_c, 5, 7, 92
7, 40180, Control_c, 5, 7, 91
7, 40184, Control_c, 5, 7, 90
7, 40190, Control_c, 5, 7, 89
7, 40194, Control_c, 5, 7, 88
7, 40200, Control_c, 5, 7, 87
7, 40204, Control_c, 5, 7, 86
7, 40210, Control_c, 5, 7, 85
7, 40214, Control_c, 5, 7, 84
7, 40218, Control_c, 5, 7, 83
7, 40224, Control_c, 5, 7, 82
7, 40228, Control_c, 5, 7, 81
7, 40234, Control_c, 5, 7, 80
7, 40238, Control_c, 5, 7, 79
7, 40244, Control_c, 5, 7, 78
7, 40248, Control_c, 5, 7, 77
7, 40252, Control_c, 5, 7, 76
7, 40258, Control_c, 5, 7, 75
7, 40260, Note_on_c, 5, 74, 0
7, 40260, Note_on_c, 5, 70, 89
7, 40262, Control_c, 5, 7, 74
7, 40268, Control_c, 5, 7, 73
7, 40272, Control_c, 5, 7, 72
7, 40278, Control_c, 5, 7, 71
7, 40282, Control_c, 5, 7, 70
7, 40286, Control_c, 5, 7, 69
7, 40290, Note_on_c, 5, 70, 0
7, 40292, Control_c, 5, 7, 68
7, 40296, Control_c, 5, 7, 67
7, 40302, Control_c, 5, 7, 66
7, 40306, Control_c, 5, 7, 65
7, 40312, Control_c, 5, 7, 64
7, 40316, Control_c, 5, 7, 63
7, 40320, Note_on_c, 5, 69, 104
7, 40320, Control_c, 5, 7, 62
7, 40350, Note_on_c, 5, 69, 0
7, 40380, Note_on_c, 5, 75, 95
7, 40380, Control_c, 5, 7, 99
7, 40620, Note_on_c, 5, 75, 0
7, 40620, Note_on_c, 5, 72, 80
7, 40650, Note_on_c, 5, 72, 0
7, 40680, Note_on_c, 5, 70, 86
7, 40710, Note_on_c, 5, 70, 0
7, 40740, Note_on_c, 5, 86, 99
7, 40920, Note_on_c, 5, 86, 0
7, 40920, Note_on_c, 5, 84, 81
7, 40950, Note_on_c, 5, 84, 0
7, 40980, Note_on_c, 5, 82, 84
7, 41010, Note_on_c, 5, 82, 0
7, 41040, Note_on_c, 5, 81, 86
7, 41070, Note_on_c, 5, 81, 0
7, 41100, Note_on_c, 5, 79, 84
7, 41130, Note_on_c, 5, 79, 0
7, 41160, Note_on_c, 5, 77, 90
7, 41190, Note_on_c, 5, 77, 0
7, 41220, Note_on_c, 5, 75, 95
7, 41250, Note_on_c, 5, 75, 0
7, 41280, Note_on_c, 5, 74, 99
7, 41310, Note_on_c, 5, 74, 0
7, 41340, Note_on_c, 5, 72, 73
7, 41370, Note_on_c, 5, 72, 0
7, 41400, Note_on_c, 5, 70, 89
7, 41430, Note_on_c, 5, 70, 0
7, 41460, Note_on_c, 5, 67, 86
7, 41490, Note_on_c, 5, 67, 0
7, 41520, Note_on_c, 5, 69, 86
7, 41550, Note_on_c, 5, 69, 0
7, 41580, Note_on_c, 5, 70, 85
7, 41610, Note_on_c, 5, 70, 0
7, 41640, Note_on_c, 5, 72, 93
7, 41670, Note_on_c, 5, 72, 0
7, 41700, Note_on_c, 5, 73, 82
7, 41730, Note_on_c, 5, 73, 0
7, 41760, Note_on_c, 5, 74, 99
7, 41790, Note_on_c, 5, 74, 0
7, 41820, Note_on_c, 5, 74, 99
7, 41850, Note_on_c, 5, 74, 0
7, 41880, Note_on_c, 5, 75, 94
7, 41910, Note_on_c, 5, 75, 0
7, 41940, Note_on_c, 5, 76, 99
7, 41970, Note_on_c, 5, 76, 0
7, 42000, Note_on_c, 5, 77, 86
7, 42030, Note_on_c, 5, 77, 0
7, 42060, Note_on_c, 5, 78, 82
7, 42090, Note_on_c, 5, 78, 0
7, 42120, Note_on_c, 5, 79, 93
7, 42150, Note_on_c, 5, 79, 0
7, 42180, Note_on_c, 5, 82, 94
7, 42360, Note_on_c, 5, 82, 0
7, 42360, Note_on_c, 5, 81, 90
7, 42390, Note_on_c, 5, 81, 0
7, 42420, Note_on_c, 5, 79, 98
7, 42450, Note_on_c, 5, 79, 0
7, 42480, Note_on_c, 5, 77, 78
7, 42510, Note_on_c, 5, 77, 0
7, 42540, Note_on_c, 5, 75, 86
7, 42570, Note_on_c, 5, 75, 0
7, 42600, Note_on_c, 5, 74, 95
7, 42630, Note_on_c, 5, 74, 0
7, 42660, Note_on_c, 5, 73, 89
7, 42690, Note_on_c, 5, 73, 0
7, 42720, Note_on_c, 5, 73, 81
7, 42750, Note_on_c, 5, 73, 0
7, 42780, Note_on_c, 5, 73, 82
7, 42810, Note_on_c, 5, 73, 0
7, 42840, Note_on_c, 5, 74, 112
7, 42960, Note_on_c, 5, 74, 0
7, 42960, Note_on_c, 5, 72, 80
7, 42990, Note_on_c, 5, 72, 0
7, 43020, Note_on_c, 5, 70, 99
7, 43050, Note_on_c, 5, 70, 0
7, 43080, Note_on_c, 5, 69, 98
7, 43110, Note_on_c, 5, 69, 0
7, 43140, Note_on_c, 5, 67, 99
7, 43170, Note_on_c, 5, 67, 0
7, 43200, Note_on_c, 5, 62, 99
7, 43320, Note_on_c, 5, 62, 0
7, 43560, Note_on_c, 5, 74, 115
7, 43680, Note_on_c, 5, 74, 0
7, 43680, Note_on_c, 5, 72, 81
7, 43710, Note_on_c, 5, 72, 0
7, 43740, Note_on_c, 5, 70, 95
7, 43770, Note_on_c, 5, 70, 0
7, 43800, Note_on_c, 5, 69, 95
7, 43830, Note_on_c, 5, 69, 0
7, 43860, Note_on_c, 5, 67, 99
7, 43890, Note_on_c, 5, 67, 0
7, 43920, Note_on_c, 5, 62, 99
7, 44040, Note_on_c, 5, 62, 0
7, 44280, Note_on_c, 5, 74, 104
7, 44310, Note_on_c, 5, 74, 0
7, 44340, Note_on_c, 5, 62, 99
7, 44400, Note_on_c, 5, 62, 0
7, 44400, Note_on_c, 5, 61, 94
7, 44460, Note_on_c, 5, 61, 0
7, 44460, Note_on_c, 5, 62, 105
7, 44490, Note_on_c, 5, 62, 0
7, 44520, Note_on_c, 5, 62, 98
7, 44580, Note_on_c, 5, 62, 0
7, 44580, Note_on_c, 5, 61, 95
7, 44640, Note_on_c, 5, 61, 0
7, 44640, Note_on_c, 5, 62, 99
7, 44670, Note_on_c, 5, 62, 0
7, 44700, Note_on_c, 5, 62, 99
7, 44760, Note_on_c, 5, 62, 0
7, 44760, Note_on_c, 5, 61, 94
7, 44820, Note_on_c, 5, 61, 0
7, 44820, Note_on_c, 5, 60, 104
7, 44850, Note_on_c, 5, 60, 0
7, 44880, Note_on_c, 5, 58, 99
7, 44910, Note_on_c, 5, 58, 0
7, 44940, Note_on_c, 5, 57, 112
7, 44970, Note_on_c, 5, 57, 0
7, 45000, Note_on_c, 5, 55, 55
7, 45030, Note_on_c, 5, 55, 0
7, 45060, Note_on_c, 5, 62, 47
7, 45090, Note_on_c, 5, 62, 0
7, 45120, Note_on_c, 5, 62, 44
7, 45150, Note_on_c, 5, 62, 0
7, 45180, Note_on_c, 5, 58, 71
7, 45210, Note_on_c, 5, 58, 0
7, 45240, Note_on_c, 5, 62, 62
7, 45270, Note_on_c, 5, 62, 0
7, 45300, Note_on_c, 5, 62, 63
7, 45330, Note_on_c, 5, 62, 0
7, 45360, Note_on_c, 5, 58, 45
7, 45390, Note_on_c, 5, 58, 0
7, 45420, Note_on_c, 5, 62, 57
7, 45450, Note_on_c, 5, 62, 0
7, 45480, Note_on_c, 5, 62, 67
7, 45510, Note_on_c, 5, 62, 0
7, 45540, Note_on_c, 5, 58, 58
7, 45570, Note_on_c, 5, 58, 0
7, 45600, Note_on_c, 5, 62, 61
7, 45630, Note_on_c, 5, 62, 0
7, 45660, Note_on_c, 5, 62, 56
7, 45690, Note_on_c, 5, 62, 0
7, 45720, Note_on_c, 5, 60, 52
7, 45750, Note_on_c, 5, 60, 0
7, 45780, Note_on_c, 5, 62, 40
7, 45810, Note_on_c, 5, 62, 0
7, 45840, Note_on_c, 5, 62, 45
7, 45870, Note_on_c, 5, 62, 0
7, 45900, Note_on_c, 5, 58, 70
7, 45930, Note_on_c, 5, 58, 0
7, 45960, Note_on_c, 5, 62, 44
7, 45990, Note_on_c, 5, 62, 0
7, 46020, Note_on_c, 5, 62, 62
7, 46050, Note_on_c, 5, 62, 0
7, 46080, Note_on_c, 5, 60, 49
7, 46110, Note_on_c, 5, 60, 0
7, 46140, Note_on_c, 5, 62, 42
7, 46170, Note_on_c, 5, 62, 0
7, 46200, Note_on_c, 5, 62, 61
7, 46230, Note_on_c, 5, 62, 0
7, 46260, Note_on_c, 5, 58, 47
7, 46290, Note_on_c, 5, 58, 0
7, 46320, Note_on_c, 5, 62, 43
7, 46350, Note_on_c, 5, 62, 0
7, 46380, Note_on_c, 5, 62, 64
7, 46410, Note_on_c, 5, 62, 0
7, 46440, Note_on_c, 5, 62, 71
7, 46470, Note_on_c, 5, 62, 0
7, 46500, Note_on_c, 5, 65, 54
7, 46530, Note_on_c, 5, 65, 0
7, 46560, Note_on_c, 5, 65, 67
7, 46590, Note_on_c, 5, 65, 0
7, 46620, Note_on_c, 5, 61, 54
7, 46650, Note_on_c, 5, 61, 0
7, 46680, Note_on_c, 5, 64, 53
7, 46710, Note_on_c, 5, 64, 0
7, 46740, Note_on_c, 5, 64, 71
7, 46770, Note_on_c, 5, 64, 0
7, 46800, Note_on_c, 5, 62, 73
7, 46830, Note_on_c, 5, 62, 0
7, 46860, Note_on_c, 5, 65, 57
7, 46890, Note_on_c, 5, 65, 0
7, 46920, Note_on_c, 5, 65, 60
7, 46950, Note_on_c, 5, 65, 0
7, 46980, Note_on_c, 5, 61, 40
7, 47010, Note_on_c, 5, 61, 0
7, 47040, Note_on_c, 5, 64, 54
7, 47070, Note_on_c, 5, 64, 0
7, 47100, Note_on_c, 5, 64, 68
7, 47130, Note_on_c, 5, 64, 0
7, 47160, Note_on_c, 5, 62, 65
7, 47190, Note_on_c, 5, 62, 0
7, 47220, Note_on_c, 5, 65, 65
7, 47250, Note_on_c, 5, 65, 0
7, 47280, Note_on_c, 5, 65, 65
7, 47310, Note_on_c, 5, 65, 0
7, 47340, Note_on_c, 5, 64, 85
7, 47370, Note_on_c, 5, 64, 0
7, 47400, Note_on_c, 5, 73, 68
7, 47430, Note_on_c, 5, 73, 0
7, 47460, Note_on_c, 5, 73, 67
7, 47490, Note_on_c, 5, 73, 0
7, 47520, Note_on_c, 5, 74, 80
7, 47640, Note_on_c, 5, 74, 0
7, 48240, Note_on_c, 5, 67, 89
7, 48384, Control_c, 5, 7, 99
7, 48386, Control_c, 5, 7, 98
7, 48388, Control_c, 5, 7, 96
7, 48390, Control_c, 5, 7, 94
7, 48392, Control_c, 5, 7, 92
7, 48394, Control_c, 5, 7, 90
7, 48396, Control_c, 5, 7, 88
7, 48398, Control_c, 5, 7, 87
7, 48400, Control_c, 5, 7, 85
7, 48402, Control_c, 5, 7, 83
7, 48404, Control_c, 5, 7, 81
7, 48406, Control_c, 5, 7, 79
7, 48408, Control_c, 5, 7, 77
7, 48410, Control_c, 5, 7, 76
7, 48412, Control_c, 5, 7, 74
7, 48414, Control_c, 5, 7, 72
7, 48416, Control_c, 5, 7, 70
7, 48418, Control_c, 5, 7, 68
7, 48420, Control_c, 5, 7, 66
7, 48600, Note_on_c, 5, 67, 0
7, 48600, Note_on_c, 5, 67, 81
7, 48660, Note_on_c, 5, 67, 0
7, 48660, Note_on_c, 5, 67, 85
7, 48720, Note_on_c, 5, 67, 0
7, 48720, Note_on_c, 5, 66, 86
7, 48780, Note_on_c, 5, 66, 0
7, 48780, Note_on_c, 5, 67, 90
7, 48810, Note_on_c, 5, 67, 0
7, 48840, Note_on_c, 5, 69, 95
7, 48870, Note_on_c, 5, 69, 0
7, 48900, Note_on_c, 5, 71, 99
7, 48930, Note_on_c, 5, 71, 0
7, 48954, Control_c, 5, 7, 99
7, 48960, Note_on_c, 5, 72, 64
7, 48990, Note_on_c, 5, 72, 0
7, 49020, Note_on_c, 5, 67, 43
7, 49050, Note_on_c, 5, 67, 0
7, 49080, Note_on_c, 5, 67, 58
7, 49110, Note_on_c, 5, 67, 0
7, 49140, Note_on_c, 5, 63, 65
7, 49170, Note_on_c, 5, 63, 0
7, 49200, Note_on_c, 5, 67, 65
7, 49230, Note_on_c, 5, 67, 0
7, 49260, Note_on_c, 5, 67, 57
7, 49290, Note_on_c, 5, 67, 0
7, 49320, Note_on_c, 5, 63, 53
7, 49350, Note_on_c, 5, 63, 0
7, 49380, Note_on_c, 5, 67, 50
7, 49410, Note_on_c, 5, 67, 0
7, 49440, Note_on_c, 5, 67, 54
7, 49470, Note_on_c, 5, 67, 0
7, 49500, Note_on_c, 5, 63, 44
7, 49530, Note_on_c, 5, 63, 0
7, 49560, Note_on_c, 5, 67, 44
7, 49590, Note_on_c, 5, 67, 0
7, 49620, Note_on_c, 5, 67, 50
7, 49650, Note_on_c, 5, 67, 0
7, 49680, Note_on_c, 5, 65, 43
7, 49710, Note_on_c, 5, 65, 0
7, 49740, Note_on_c, 5, 67, 42
7, 49770, Note_on_c, 5, 67, 0
7, 49800, Note_on_c, 5, 67, 46
7, 49830, Note_on_c, 5, 67, 0
7, 49860, Note_on_c, 5, 63, 59
7, 49890, Note_on_c, 5, 63, 0
7, 49920, Note_on_c, 5, 67, 51
7, 49950, Note_on_c, 5, 67, 0
7, 49980, Note_on_c, 5, 67, 46
7, 50010, Note_on_c, 5, 67, 0
7, 50040, Note_on_c, 5, 65, 44
7, 50070, Note_on_c, 5, 65, 0
7, 50100, Note_on_c, 5, 67, 55
7, 50130, Note_on_c, 5, 67, 0
7, 50160, Note_on_c, 5, 67, 61
7, 50190, Note_on_c, 5, 67, 0
7, 50220, Note_on_c, 5, 63, 60
7, 50250, Note_on_c, 5, 63, 0
7, 50280, Note_on_c, 5, 67, 47
7, 50310, Note_on_c, 5, 67, 0
7, 50340, Note_on_c, 5, 67, 47
7, 50370, Note_on_c, 5, 67, 0
7, 50400, Note_on_c, 5, 65, 69
7, 50430, Note_on_c, 5, 65, 0
7, 50460, Note_on_c, 5, 68, 55
7, 50490, Note_on_c, 5, 68, 0
7, 50520, Note_on_c, 5, 68, 56
7, 50550, Note_on_c, 5, 68, 0
7, 50580, Note_on_c, 5, 62, 46
7, 50610, Note_on_c, 5, 62, 0
7, 50640, Note_on_c, 5, 65, 54
7, 50670, Note_on_c, 5, 65, 0
7, 50700, Note_on_c, 5, 65, 44
7, 50730, Note_on_c, 5, 65, 0
7, 50760, Note_on_c, 5, 63, 49
7, 50790, Note_on_c, 5, 63, 0
7, 50820, Note_on_c, 5, 67, 46
7, 50850, Note_on_c, 5, 67, 0
7, 50880, Note_on_c, 5, 67, 43
7, 50910, Note_on_c, 5, 67, 0
7, 50940, Note_on_c, 5, 63, 55
7, 50970, Note_on_c, 5, 63, 0
7, 51000, Note_on_c, 5, 72, 54
7, 51030, Note_on_c, 5, 72, 0
7, 51060, Note_on_c, 5, 72, 45
7, 51090, Note_on_c, 5, 72, 0
7, 51120, Note_on_c, 5, 62, 54
7, 51150, Note_on_c, 5, 62, 0
7, 51180, Note_on_c, 5, 72, 43
7, 51210, Note_on_c, 5, 72, 0
7, 51240, Note_on_c, 5, 72, 56
7, 51270, Note_on_c, 5, 72, 0
7, 51300, Note_on_c, 5, 62, 45
7, 51330, Note_on_c, 5, 62, 0
7, 51360, Note_on_c, 5, 71, 52
7, 51390, Note_on_c, 5, 71, 0
7, 51420, Note_on_c, 5, 71, 59
7, 51450, Note_on_c, 5, 71, 0
7, 51480, Note_on_c, 5, 72, 68
7, 51600, Note_on_c, 5, 72, 0
7, 52200, Note_on_c, 5, 77, 90
7, 52314, Control_c, 5, 7, 99
7, 52316, Control_c, 5, 7, 96
7, 52318, Control_c, 5, 7, 93
7, 52320, Control_c, 5, 7, 90
7, 52322, Control_c, 5, 7, 86
7, 52324, Control_c, 5, 7, 83
7, 52326, Control_c, 5, 7, 80
7, 52328, Control_c, 5, 7, 76
7, 52330, Control_c, 5, 7, 73
7, 52332, Control_c, 5, 7, 70
7, 52334, Control_c, 5, 7, 66
7, 52560, Note_on_c, 5, 77, 0
7, 52560, Note_on_c, 5, 77, 77
7, 52620, Note_on_c, 5, 77, 0
7, 52620, Note_on_c, 5, 77, 90
7, 52680, Note_on_c, 5, 77, 0
7, 52680, Note_on_c, 5, 76, 95
7, 52740, Note_on_c, 5, 76, 0
7, 52740, Note_on_c, 5, 77, 95
7, 52770, Note_on_c, 5, 77, 0
7, 52800, Note_on_c, 5, 79, 90
7, 52830, Note_on_c, 5, 79, 0
7, 52860, Note_on_c, 5, 81, 101
7, 52890, Note_on_c, 5, 81, 0
7, 52912, Control_c, 5, 7, 99
7, 52920, Note_on_c, 5, 82, 61
7, 52950, Note_on_c, 5, 82, 0
7, 52980, Note_on_c, 5, 65, 55
7, 53010, Note_on_c, 5, 65, 0
7, 53040, Note_on_c, 5, 65, 58
7, 53070, Note_on_c, 5, 65, 0
7, 53100, Note_on_c, 5, 61, 59
7, 53130, Note_on_c, 5, 61, 0
7, 53160, Note_on_c, 5, 65, 61
7, 53190, Note_on_c, 5, 65, 0
7, 53220, Note_on_c, 5, 65, 45
7, 53250, Note_on_c, 5, 65, 0
7, 53280, Note_on_c, 5, 61, 43
7, 53310, Note_on_c, 5, 61, 0
7, 53340, Note_on_c, 5, 65, 56
7, 53370, Note_on_c, 5, 65, 0
7, 53400, Note_on_c, 5, 65, 45
7, 53430, Note_on_c, 5, 65, 0
7, 53460, Note_on_c, 5, 61, 53
7, 53490, Note_on_c, 5, 61, 0
7, 53520, Note_on_c, 5, 65, 43
7, 53550, Note_on_c, 5, 65, 0
7, 53580, Note_on_c, 5, 65, 40
7, 53610, Note_on_c, 5, 65, 0
7, 53640, Note_on_c, 5, 63, 49
7, 53670, Note_on_c, 5, 63, 0
7, 53700, Note_on_c, 5, 65, 43
7, 53730, Note_on_c, 5, 65, 0
7, 53760, Note_on_c, 5, 65, 46
7, 53790, Note_on_c, 5, 65, 0
7, 53820, Note_on_c, 5, 61, 43
7, 53850, Note_on_c, 5, 61, 0
7, 53880, Note_on_c, 5, 65, 45
7, 53910, Note_on_c, 5, 65, 0
7, 53940, Note_on_c, 5, 65, 41
7, 53970, Note_on_c, 5, 65, 0
7, 54000, Note_on_c, 5, 63, 44
7, 54030, Note_on_c, 5, 63, 0
7, 54060, Note_on_c, 5, 65, 41
7, 54090, Note_on_c, 5, 65, 0
7, 54120, Note_on_c, 5, 65, 43
7, 54150, Note_on_c, 5, 65, 0
7, 54180, Note_on_c, 5, 61, 43
7, 54210, Note_on_c, 5, 61, 0
7, 54240, Note_on_c, 5, 65, 61
7, 54270, Note_on_c, 5, 65, 0
7, 54300, Note_on_c, 5, 65, 49
7, 54330, Note_on_c, 5, 65, 0
7, 54360, Note_on_c, 5, 61, 43
7, 54390, Note_on_c, 5, 61, 0
7, 54420, Note_on_c, 5, 61, 51
7, 54450, Note_on_c, 5, 61, 0
7, 54480, Note_on_c, 5, 65, 42
7, 54510, Note_on_c, 5, 65, 0
7, 54540, Note_on_c, 5, 61, 47
7, 54570, Note_on_c, 5, 61, 0
7, 54600, Note_on_c, 5, 61, 45
7, 54630, Note_on_c, 5, 61, 0
7, 54660, Note_on_c, 5, 65, 46
7, 54690, Note_on_c, 5, 65, 0
7, 54720, Note_on_c, 5, 61, 61
7, 54750, Note_on_c, 5, 61, 0
7, 54780, Note_on_c, 5, 61, 45
7, 54810, Note_on_c, 5, 61, 0
7, 54840, Note_on_c, 5, 65, 44
7, 54870, Note_on_c, 5, 65, 0
7, 54900, Note_on_c, 5, 61, 43
7, 54930, Note_on_c, 5, 61, 0
7, 54960, Note_on_c, 5, 61, 49
7, 54990, Note_on_c, 5, 61, 0
7, 55020, Note_on_c, 5, 65, 61
7, 55050, Note_on_c, 5, 65, 0
7, 55080, Note_on_c, 5, 65, 57
7, 55110, Note_on_c, 5, 65, 0
7, 55140, Note_on_c, 5, 68, 59
7, 55170, Note_on_c, 5, 68, 0
7, 55200, Note_on_c, 5, 68, 57
7, 55230, Note_on_c, 5, 68, 0
7, 55260, Note_on_c, 5, 65, 58
7, 55290, Note_on_c, 5, 65, 0
7, 55320, Note_on_c, 5, 70, 43
7, 55350, Note_on_c, 5, 70, 0
7, 55380, Note_on_c, 5, 70, 44
7, 55410, Note_on_c, 5, 70, 0
7, 55440, Note_on_c, 5, 65, 46
7, 55470, Note_on_c, 5, 65, 0
7, 55500, Note_on_c, 5, 68, 62
7, 55530, Note_on_c, 5, 68, 0
7, 55560, Note_on_c, 5, 68, 58
7, 55590, Note_on_c, 5, 68, 0
7, 55620, Note_on_c, 5, 65, 61
7, 55650, Note_on_c, 5, 65, 0
7, 55680, Note_on_c, 5, 70, 39
7, 55710, Note_on_c, 5, 70, 0
7, 55740, Note_on_c, 5, 70, 45
7, 55770, Note_on_c, 5, 70, 0
7, 55800, Note_on_c, 5, 72, 50
7, 55830, Note_on_c, 5, 72, 0
7, 55860, Note_on_c, 5, 72, 61
7, 55890, Note_on_c, 5, 72, 0
7, 55920, Note_on_c, 5, 75, 62
7, 55950, Note_on_c, 5, 75, 0
7, 55980, Note_on_c, 5, 69, 53
7, 56010, Note_on_c, 5, 69, 0
7, 56040, Note_on_c, 5, 69, 55
7, 56070, Note_on_c, 5, 69, 0
7, 56100, Note_on_c, 5, 72, 62
7, 56130, Note_on_c, 5, 72, 0
7, 56160, Note_on_c, 5, 70, 68
7, 56190, Note_on_c, 5, 70, 0
7, 56220, Note_on_c, 5, 65, 41
7, 56250, Note_on_c, 5, 65, 0
7, 56280, Note_on_c, 5, 70, 65
7, 56310, Note_on_c, 5, 70, 0
7, 56340, Note_on_c, 5, 68, 64
7, 56370, Note_on_c, 5, 68, 0
7, 56400, Note_on_c, 5, 68, 54
7, 56430, Note_on_c, 5, 68, 0
7, 56460, Note_on_c, 5, 70, 43
7, 56490, Note_on_c, 5, 70, 0
7, 56520, Note_on_c, 5, 66, 43
7, 56550, Note_on_c, 5, 66, 0
7, 56580, Note_on_c, 5, 66, 61
7, 56610, Note_on_c, 5, 66, 0
7, 56640, Note_on_c, 5, 70, 51
7, 56670, Note_on_c, 5, 70, 0
7, 56700, Note_on_c, 5, 63, 65
7, 56730, Note_on_c, 5, 63, 0
7, 56760, Note_on_c, 5, 63, 67
7, 56790, Note_on_c, 5, 63, 0
7, 56820, Note_on_c, 5, 69, 41
7, 56850, Note_on_c, 5, 69, 0
7, 56880, Note_on_c, 5, 65, 45
7, 56910, Note_on_c, 5, 65, 0
7, 56940, Note_on_c, 5, 65, 46
7, 56970, Note_on_c, 5, 65, 0
7, 57000, Note_on_c, 5, 70, 53
7, 57030, Note_on_c, 5, 70, 0
7, 57060, Note_on_c, 5, 65, 42
7, 57090, Note_on_c, 5, 65, 0
7, 57120, Note_on_c, 5, 65, 45
7, 57150, Note_on_c, 5, 65, 0
7, 57180, Note_on_c, 5, 70, 61
7, 57210, Note_on_c, 5, 70, 0
7, 57240, Note_on_c, 5, 63, 60
7, 57270, Note_on_c, 5, 63, 0
7, 57300, Note_on_c, 5, 63, 44
7, 57330, Note_on_c, 5, 63, 0
7, 57360, Note_on_c, 5, 70, 54
7, 57390, Note_on_c, 5, 70, 0
7, 57420, Note_on_c, 5, 64, 50
7, 57450, Note_on_c, 5, 64, 0
7, 57480, Note_on_c, 5, 64, 66
7, 57510, Note_on_c, 5, 64, 0
7, 57540, Note_on_c, 5, 70, 70
7, 57570, Note_on_c, 5, 70, 0
7, 57600, Note_on_c, 5, 69, 94
7, 57720, Note_on_c, 5, 69, 0
7, 57780, Note_on_c, 5, 65, 72
7, 57810, Note_on_c, 5, 65, 0
7, 57840, Note_on_c, 5, 67, 69
7, 57870, Note_on_c, 5, 67, 0
7, 57900, Note_on_c, 5, 69, 45
7, 57930, Note_on_c, 5, 69, 0
7, 57960, Note_on_c, 5, 70, 95
7, 58080, Note_on_c, 5, 70, 0
7, 58080, Note_on_c, 5, 72, 70
7, 58140, Note_on_c, 5, 72, 0
7, 58140, Note_on_c, 5, 73, 65
7, 58170, Note_on_c, 5, 73, 0
7, 58200, Note_on_c, 5, 72, 52
7, 58230, Note_on_c, 5, 72, 0
7, 58260, Note_on_c, 5, 70, 62
7, 58290, Note_on_c, 5, 70, 0
7, 58320, Note_on_c, 5, 69, 62
7, 58350, Note_on_c, 5, 69, 0
7, 58380, Note_on_c, 5, 67, 67
7, 58410, Note_on_c, 5, 67, 0
7, 58440, Note_on_c, 5, 65, 69
7, 58470, Note_on_c, 5, 65, 0
7, 58500, Note_on_c, 5, 65, 74
7, 58530, Note_on_c, 5, 65, 0
7, 58560, Note_on_c, 5, 67, 71
7, 58590, Note_on_c, 5, 67, 0
7, 58620, Note_on_c, 5, 69, 64
7, 58650, Note_on_c, 5, 69, 0
7, 58680, Note_on_c, 5, 70, 99
7, 58800, Note_on_c, 5, 70, 0
7, 58800, Note_on_c, 5, 72, 52
7, 58860, Note_on_c, 5, 72, 0
7, 58860, Note_on_c, 5, 73, 64
7, 58890, Note_on_c, 5, 73, 0
7, 58920, Note_on_c, 5, 72, 54
7, 58950, Note_on_c, 5, 72, 0
7, 58980, Note_on_c, 5, 70, 80
7, 59010, Note_on_c, 5, 70, 0
7, 59040, Note_on_c, 5, 69, 76
7, 59160, Note_on_c, 5, 69, 0
7, 59460, Program_c, 5, 45
7, 59760, Note_on_c, 5, 64, 76
7, 59880, Note_on_c, 5, 64, 0
7, 60480, Note_on_c, 5, 63, 61
7, 60600, Note_on_c, 5, 63, 0
7, 61200, Note_on_c, 5, 63, 58
7, 61200, Note_on_c, 5, 60, 63
7, 61320, Note_on_c, 5, 60, 0
7, 61320, Note_on_c, 5, 63, 0
7, 62040, Program_c, 5, 48
7, 64800, Note_on_c, 5, 74, 94
7, 64830, Note_on_c, 5, 74, 0
7, 64860, Note_on_c, 5, 70, 101
7, 64980, Note_on_c, 5, 70, 0
7, 64980, Note_on_c, 5, 74, 94
7, 65010, Note_on_c, 5, 74, 0
7, 65040, Note_on_c, 5, 70, 99
7, 65130, Note_on_c, 5, 70, 0
7, 65145, Note_on_c, 5, 72, 81
7, 65160, Note_on_c, 5, 72, 0
7, 65160, Note_on_c, 5, 70, 86
7, 65220, Note_on_c, 5, 70, 0
7, 65220, Note_on_c, 5, 69, 94
7, 65280, Note_on_c, 5, 69, 0
7, 65280, Note_on_c, 5, 70, 94
7, 65310, Note_on_c, 5, 70, 0
7, 65340, Note_on_c, 5, 72, 89
7, 65460, Note_on_c, 5, 72, 0
7, 65520, Note_on_c, 5, 75, 95
7, 65550, Note_on_c, 5, 75, 0
7, 65580, Note_on_c, 5, 72, 81
7, 65700, Note_on_c, 5, 72, 0
7, 65700, Note_on_c, 5, 75, 94
7, 65730, Note_on_c, 5, 75, 0
7, 65760, Note_on_c, 5, 72, 78
7, 65850, Note_on_c, 5, 72, 0
7, 65865, Note_on_c, 5, 74, 95
7, 65880, Note_on_c, 5, 74, 0
7, 65880, Note_on_c, 5, 72, 72
7, 65940, Note_on_c, 5, 72, 0
7, 65940, Note_on_c, 5, 70, 90
7, 66000, Note_on_c, 5, 70, 0
7, 66000, Note_on_c, 5, 72, 72
7, 66030, Note_on_c, 5, 72, 0
7, 66060, Note_on_c, 5, 74, 95
7, 66180, Note_on_c, 5, 74, 0
7, 66180, Note_on_c, 5, 70, 93
7, 66210, Note_on_c, 5, 70, 0
7, 66240, Note_on_c, 5, 70, 94
7, 66300, Note_on_c, 5, 70, 0
7, 66300, Note_on_c, 5, 79, 81
7, 66360, Note_on_c, 5, 79, 0
7, 66360, Note_on_c, 5, 79, 76
7, 66390, Note_on_c, 5, 79, 0
7, 66420, Note_on_c, 5, 79, 81
7, 66480, Note_on_c, 5, 79, 0
7, 66480, Note_on_c, 5, 77, 80
7, 66540, Note_on_c, 5, 77, 0
7, 66540, Note_on_c, 5, 70, 84
7, 66570, Note_on_c, 5, 70, 0
7, 66600, Note_on_c, 5, 70, 89
7, 66660, Note_on_c, 5, 70, 0
7, 66660, Note_on_c, 5, 79, 77
7, 66720, Note_on_c, 5, 79, 0
7, 66720, Note_on_c, 5, 79, 76
7, 66750, Note_on_c, 5, 79, 0
7, 66780, Note_on_c, 5, 79, 76
7, 66840, Note_on_c, 5, 79, 0
7, 66840, Note_on_c, 5, 77, 86
7, 66900, Note_on_c, 5, 77, 0
7, 66900, Note_on_c, 5, 77, 77
7, 66930, Note_on_c, 5, 77, 0
7, 66960, Note_on_c, 5, 77, 73
7, 67020, Note_on_c, 5, 77, 0
7, 67020, Note_on_c, 5, 76, 95
7, 67080, Note_on_c, 5, 76, 0
7, 67080, Note_on_c, 5, 75, 84
7, 67110, Note_on_c, 5, 75, 0
7, 67140, Note_on_c, 5, 75, 89
7, 67200, Note_on_c, 5, 75, 0
7, 67200, Note_on_c, 5, 74, 95
7, 67260, Note_on_c, 5, 74, 0
7, 67260, Note_on_c, 5, 73, 76
7, 67290, Note_on_c, 5, 73, 0
7, 67320, Note_on_c, 5, 73, 72
7, 67380, Note_on_c, 5, 73, 0
7, 67380, Note_on_c, 5, 74, 90
7, 67440, Note_on_c, 5, 74, 0
7, 67440, Note_on_c, 5, 74, 89
7, 67470, Note_on_c, 5, 74, 0
7, 67500, Note_on_c, 5, 74, 94
7, 67560, Note_on_c, 5, 74, 0
7, 67560, Note_on_c, 5, 75, 93
7, 67620, Note_on_c, 5, 75, 0
7, 67620, Note_on_c, 5, 72, 63
7, 67650, Note_on_c, 5, 72, 0
7, 67680, Note_on_c, 5, 70, 89
7, 67710, Note_on_c, 5, 70, 0
7, 67740, Note_on_c, 5, 74, 101
7, 67860, Control_c, 5, 7, 99
7, 67866, Control_c, 5, 7, 98
7, 67870, Control_c, 5, 7, 97
7, 67876, Control_c, 5, 7, 96
7, 67880, Control_c, 5, 7, 95
7, 67886, Control_c, 5, 7, 94
7, 67890, Control_c, 5, 7, 93
7, 67896, Control_c, 5, 7, 92
7, 67900, Control_c, 5, 7, 91
7, 67904, Control_c, 5, 7, 90
7, 67910, Control_c, 5, 7, 89
7, 67914, Control_c, 5, 7, 88
7, 67920, Control_c, 5, 7, 87
7, 67924, Control_c, 5, 7, 86
7, 67930, Control_c, 5, 7, 85
7, 67934, Control_c, 5, 7, 84
7, 67938, Control_c, 5, 7, 83
7, 67944, Control_c, 5, 7, 82
7, 67948, Control_c, 5, 7, 81
7, 67954, Control_c, 5, 7, 80
7, 67958, Control_c, 5, 7, 79
7, 67964, Control_c, 5, 7, 78
7, 67968, Control_c, 5, 7, 77
7, 67972, Control_c, 5, 7, 76
7, 67978, Control_c, 5, 7, 75
7, 67980, Note_on_c, 5, 74, 0
7, 67980, Note_on_c, 5, 70, 89
7, 67982, Control_c, 5, 7, 74
7, 67988, Control_c, 5, 7, 73
7, 67992, Control_c, 5, 7, 72
7, 67998, Control_c, 5, 7, 71
7, 68002, Control_c, 5, 7, 70
7, 68006, Control_c, 5, 7, 69
7, 68010, Note_on_c, 5, 70, 0
7, 68012, Control_c, 5, 7, 68
7, 68016, Control_c, 5, 7, 67
7, 68022, Control_c, 5, 7, 66
7, 68026, Control_c, 5, 7, 65
7, 68032, Control_c, 5, 7, 64
7, 68036, Control_c, 5, 7, 63
7, 68040, Note_on_c, 5, 69, 104
7, 68040, Control_c, 5, 7, 62
7, 68070, Note_on_c, 5, 69, 0
7, 68100, Note_on_c, 5, 75, 95
7, 68100, Control_c, 5, 7, 99
7, 68340, Note_on_c, 5, 75, 0
7, 68340, Note_on_c, 5, 72, 80
7, 68370, Note_on_c, 5, 72, 0
7, 68400, Note_on_c, 5, 70, 86
7, 68430, Note_on_c, 5, 70, 0
7, 68460, Note_on_c, 5, 86, 99
7, 68640, Note_on_c, 5, 86, 0
7, 68640, Note_on_c, 5, 84, 81
7, 68670, Note_on_c, 5, 84, 0
7, 68700, Note_on_c, 5, 82, 84
7, 68730, Note_on_c, 5, 82, 0
7, 68760, Note_on_c, 5, 81, 86
7, 68790, Note_on_c, 5, 81, 0
7, 68820, Note_on_c, 5, 79, 84
7, 68850, Note_on_c, 5, 79, 0
7, 68880, Note_on_c, 5, 77, 90
7, 68910, Note_on_c, 5, 77, 0
7, 68940, Note_on_c, 5, 75, 95
7, 68970, Note_on_c, 5, 75, 0
7, 69000, Note_on_c, 5, 74, 99
7, 69030, Note_on_c, 5, 74, 0
7, 69060, Note_on_c, 5, 72, 73
7, 69090, Note_on_c, 5, 72, 0
7, 69120, Note_on_c, 5, 70, 94
7, 69240, Note_on_c, 5, 70, 0
7, 69300, Note_on_c, 5, 82, 89
7, 69300, Note_on_c, 5, 70, 89
7, 69300, Note_on_c, 5, 62, 94
7, 69420, Note_on_c, 5, 62, 0
7, 69420, Note_on_c, 5, 70, 0
7, 69420, Note_on_c, 5, 82, 0
7, 69480, Note_on_c, 5, 70, 89
7, 69480, Note_on_c, 5, 62, 99
7, 69600, Note_on_c, 5, 62, 0
7, 69600, Note_on_c, 5, 70, 0
7, 70560, Note_on_c, 5, 74, 105
7, 70920, Note_on_c, 5, 74, 0
7, 70920, Note_on_c, 5, 77, 94
7, 71100, Note_on_c, 5, 77, 0
7, 71100, Note_on_c, 5, 79, 90
7, 71280, Note_on_c, 5, 79, 0
7, 71280, Note_on_c, 5, 72, 77
7, 71400, Note_on_c, 5, 72, 0
7, 72720, Note_on_c, 5, 74, 110
7, 73080, Note_on_c, 5, 74, 0
7, 73080, Note_on_c, 5, 77, 85
7, 73260, Note_on_c, 5, 77, 0
7, 73260, Note_on_c, 5, 80, 89
7, 73440, Note_on_c, 5, 80, 0
7, 73440, Note_on_c, 5, 79, 85
7, 73560, Note_on_c, 5, 79, 0
7, 74160, Note_on_c, 5, 70, 69
7, 74280, Note_on_c, 5, 70, 0
7, 74340, Note_on_c, 5, 72, 71
7, 74460, Note_on_c, 5, 72, 0
7, 74520, Note_on_c, 5, 70, 68
7, 74640, Note_on_c, 5, 70, 0
7, 74880, Note_on_c, 5, 70, 72
7, 75000, Note_on_c, 5, 70, 0
7, 75060, Note_on_c, 5, 72, 71
7, 75180, Note_on_c, 5, 72, 0
7, 75240, Note_on_c, 5, 70, 76
7, 75360, Note_on_c, 5, 70, 0
7, 75600, Note_on_c, 5, 70, 74
7, 75720, Note_on_c, 5, 70, 0
7, 75780, Note_on_c, 5, 71, 76
7, 75900, Note_on_c, 5, 71, 0
7, 75960, Note_on_c, 5, 72, 71
7, 76080, Note_on_c, 5, 72, 0
7, 76140, Note_on_c, 5, 70, 73
7, 76260, Note_on_c, 5, 70, 0
7, 76320, Note_on_c, 5, 69, 52
7, 76380, Note_on_c, 5, 69, 0
7, 76380, Note_on_c, 5, 69, 72
7, 76440, Note_on_c, 5, 69, 0
7, 76440, Note_on_c, 5, 69, 47
7, 76500, Note_on_c, 5, 69, 0
7, 76500, Note_on_c, 5, 69, 49
7, 76560, Note_on_c, 5, 69, 0
7, 76560, Note_on_c, 5, 69, 58
7, 76620, Note_on_c, 5, 69, 0
7, 76620, Note_on_c, 5, 69, 61
7, 76680, Note_on_c, 5, 69, 0
7, 76680, Note_on_c, 5, 70, 56
7, 76740, Note_on_c, 5, 70, 0
7, 76740, Note_on_c, 5, 70, 59
7, 76800, Note_on_c, 5, 70, 0
7, 76800, Note_on_c, 5, 70, 45
7, 76860, Note_on_c, 5, 70, 0
7, 76860, Note_on_c, 5, 70, 44
7, 76920, Note_on_c, 5, 70, 0
7, 76920, Note_on_c, 5, 70, 44
7, 76980, Note_on_c, 5, 70, 0
7, 76980, Note_on_c, 5, 70, 61
7, 77040, Note_on_c, 5, 70, 0
7, 77040, Note_on_c, 5, 69, 69
7, 77100, Note_on_c, 5, 69, 0
7, 77100, Note_on_c, 5, 65, 62
7, 77160, Note_on_c, 5, 65, 0
7, 77160, Note_on_c, 5, 65, 60
7, 77220, Note_on_c, 5, 65, 0
7, 77220, Note_on_c, 5, 65, 64
7, 77280, Note_on_c, 5, 65, 0
7, 77280, Note_on_c, 5, 65, 63
7, 77340, Note_on_c, 5, 65, 0
7, 77340, Note_on_c, 5, 65, 71
7, 77400, Note_on_c, 5, 65, 0
7, 77400, Note_on_c, 5, 64, 52
7, 77400, Note_on_c, 5, 55, 44
7, 77460, Note_on_c, 5, 55, 0
7, 77460, Note_on_c, 5, 64, 0
7, 77460, Note_on_c, 5, 64, 43
7, 77460, Note_on_c, 5, 55, 43
7, 77520, Note_on_c, 5, 55, 0
7, 77520, Note_on_c, 5, 64, 0
7, 77520, Note_on_c, 5, 64, 52
7, 77520, Note_on_c, 5, 55, 45
7, 77580, Note_on_c, 5, 55, 0
7, 77580, Note_on_c, 5, 64, 0
7, 77580, Note_on_c, 5, 64, 52
7, 77580, Note_on_c, 5, 55, 48
7, 77640, Note_on_c, 5, 55, 0
7, 77640, Note_on_c, 5, 64, 0
7, 77640, Note_on_c, 5, 64, 45
7, 77640, Note_on_c, 5, 55, 46
7, 77700, Note_on_c, 5, 55, 0
7, 77700, Note_on_c, 5, 64, 0
7, 77700, Note_on_c, 5, 55, 64
7, 77700, Note_on_c, 5, 64, 58
7, 77760, Note_on_c, 5, 64, 0
7, 77760, Note_on_c, 5, 55, 0
7, 77760, Note_on_c, 5, 65, 45
7, 77760, Note_on_c, 5, 57, 51
7, 77880, Note_on_c, 5, 57, 0
7, 77880, Note_on_c, 5, 65, 0
7, 78120, Note_on_c, 5, 65, 43
7, 78240, Note_on_c, 5, 65, 0
7, 78480, Note_on_c, 5, 65, 51
7, 78600, Note_on_c, 5, 65, 0
7, 82020, Note_on_c, 5, 70, 65
7, 82050, Note_on_c, 5, 70, 0
7, 82050, Note_on_c, 5, 72, 84
7, 82080, Note_on_c, 5, 72, 0
7, 82080, Note_on_c, 5, 73, 68
7, 82140, Note_on_c, 5, 73, 0
7, 82140, Note_on_c, 5, 74, 65
7, 82200, Note_on_c, 5, 74, 0
7, 82200, Note_on_c, 5, 74, 85
7, 82230, Note_on_c, 5, 74, 0
7, 82260, Note_on_c, 5, 73, 69
7, 82320, Note_on_c, 5, 73, 0
7, 82320, Note_on_c, 5, 74, 93
7, 82380, Note_on_c, 5, 74, 0
7, 82380, Note_on_c, 5, 74, 89
7, 82410, Note_on_c, 5, 74, 0
7, 82440, Note_on_c, 5, 73, 84
7, 82500, Note_on_c, 5, 73, 0
7, 82500, Note_on_c, 5, 74, 98
7, 82560, Note_on_c, 5, 74, 0
7, 82560, Note_on_c, 5, 74, 99
7, 82590, Note_on_c, 5, 74, 0
7, 82620, Note_on_c, 5, 79, 99
7, 82800, Note_on_c, 5, 79, 0
7, 83460, Note_on_c, 5, 70, 65
7, 83490, Note_on_c, 5, 70, 0
7, 83490, Note_on_c, 5, 72, 84
7, 83520, Note_on_c, 5, 72, 0
7, 83520, Note_on_c, 5, 73, 68
7, 83580, Note_on_c, 5, 73, 0
7, 83580, Note_on_c, 5, 74, 65
7, 83640, Note_on_c, 5, 74, 0
7, 83640, Note_on_c, 5, 74, 85
7, 83670, Note_on_c, 5, 74, 0
7, 83700, Note_on_c, 5, 73, 69
7, 83760, Note_on_c, 5, 73, 0
7, 83760, Note_on_c, 5, 74, 93
7, 83820, Note_on_c, 5, 74, 0
7, 83820, Note_on_c, 5, 74, 89
7, 83850, Note_on_c, 5, 74, 0
7, 83880, Note_on_c, 5, 73, 84
7, 83940, Note_on_c, 5, 73, 0
7, 83940, Note_on_c, 5, 74, 98
7, 84000, Note_on_c, 5, 74, 0
7, 84000, Note_on_c, 5, 74, 99
7, 84030, Note_on_c, 5, 74, 0
7, 84060, Note_on_c, 5, 82, 112
7, 84240, Note_on_c, 5, 82, 0
7, 84960, Note_on_c, 5, 72, 119
7, 85080, Note_on_c, 5, 72, 0
7, 85080, Note_on_c, 5, 69, 89
7, 85140, Note_on_c, 5, 69, 0
7, 85140, Note_on_c, 5, 72, 104
7, 85260, Note_on_c, 5, 72, 0
7, 85260, Note_on_c, 5, 69, 85
7, 85320, Note_on_c, 5, 69, 0
7, 85320, Note_on_c, 5, 70, 82
7, 85380, Note_on_c, 5, 70, 0
7, 85380, Note_on_c, 5, 74, 89
7, 85440, Note_on_c, 5, 74, 0
7, 85440, Note_on_c, 5, 77, 84
7, 85470, Note_on_c, 5, 77, 0
7, 85500, Note_on_c, 5, 77, 81
7, 85560, Note_on_c, 5, 77, 0
7, 85680, Note_on_c, 5, 75, 45
7, 85800, Note_on_c, 5, 75, 0
7, 85860, Note_on_c, 5, 75, 65
7, 85980, Note_on_c, 5, 75, 0
7, 86040, Note_on_c, 5, 74, 64
7, 86160, Note_on_c, 5, 74, 0
7, 86400, Note_on_c, 5, 72, 119
7, 86520, Note_on_c, 5, 72, 0
7, 86520, Note_on_c, 5, 69, 89
7, 86580, Note_on_c, 5, 69, 0
7, 86580, Note_on_c, 5, 72, 104
7, 86700, Note_on_c, 5, 72, 0
7, 86700, Note_on_c, 5, 69, 85
7, 86760, Note_on_c, 5, 69, 0
7, 86760, Note_on_c, 5, 70, 82
7, 86820, Note_on_c, 5, 70, 0
7, 86820, Note_on_c, 5, 74, 89
7, 86880, Note_on_c, 5, 74, 0
7, 86880, Note_on_c, 5, 77, 84
7, 86910, Note_on_c, 5, 77, 0
7, 86940, Note_on_c, 5, 77, 81
7, 87000, Note_on_c, 5, 77, 0
7, 87120, Note_on_c, 5, 75, 45
7, 87240, Note_on_c, 5, 75, 0
7, 87300, Note_on_c, 5, 75, 65
7, 87420, Note_on_c, 5, 75, 0
7, 87480, Note_on_c, 5, 74, 64
7, 87600, Note_on_c, 5, 74, 0
7, 88920, Note_on_c, 5, 63, 69
7, 89040, Note_on_c, 5, 63, 0
7, 89100, Note_on_c, 5, 67, 68
7, 89220, Note_on_c, 5, 67, 0
7, 89280, Note_on_c, 5, 65, 80
7, 89400, Note_on_c, 5, 65, 0
7, 93960, Note_on_c, 5, 67, 52
7, 94080, Note_on_c, 5, 67, 0
7, 94140, Note_on_c, 5, 67, 57
7, 94260, Note_on_c, 5, 67, 0
7, 94320, Note_on_c, 5, 67, 49
7, 94440, Note_on_c, 5, 67, 0
7, 94500, Note_on_c, 5, 69, 60
7, 94620, Note_on_c, 5, 69, 0
7, 94680, Note_on_c, 5, 69, 50
7, 94800, Note_on_c, 5, 69, 0
7, 94860, Note_on_c, 5, 69, 69
7, 94980, Note_on_c, 5, 69, 0
7, 95040, Note_on_c, 5, 69, 54
7, 95160, Note_on_c, 5, 69, 0
7, 95220, Note_on_c, 5, 71, 59
7, 95340, Note_on_c, 5, 71, 0
7, 95372, Control_c, 5, 7, 66
7, 95400, Note_on_c, 5, 71, 95
7, 95760, Note_on_c, 5, 71, 0
7, 95760, Note_on_c, 5, 72, 94
7, 96120, Note_on_c, 5, 72, 0
7, 96120, Note_on_c, 5, 69, 95
7, 96120, Control_c, 5, 7, 66
7, 96142, Control_c, 5, 7, 67
7, 96164, Control_c, 5, 7, 68
7, 96186, Control_c, 5, 7, 69
7, 96208, Control_c, 5, 7, 70
7, 96230, Control_c, 5, 7, 71
7, 96252, Control_c, 5, 7, 72
7, 96274, Control_c, 5, 7, 73
7, 96296, Control_c, 5, 7, 74
7, 96318, Control_c, 5, 7, 75
7, 96340, Control_c, 5, 7, 76
7, 96362, Control_c, 5, 7, 77
7, 96384, Control_c, 5, 7, 78
7, 96406, Control_c, 5, 7, 79
7, 96428, Control_c, 5, 7, 80
7, 96450, Control_c, 5, 7, 81
7, 96472, Control_c, 5, 7, 82
7, 96492, Control_c, 5, 7, 83
7, 96514, Control_c, 5, 7, 84
7, 96536, Control_c, 5, 7, 85
7, 96558, Control_c, 5, 7, 86
7, 96580, Control_c, 5, 7, 87
7, 96602, Control_c, 5, 7, 88
7, 96624, Control_c, 5, 7, 89
7, 96646, Control_c, 5, 7, 90
7, 96668, Control_c, 5, 7, 91
7, 96690, Control_c, 5, 7, 92
7, 96712, Control_c, 5, 7, 93
7, 96734, Control_c, 5, 7, 94
7, 96756, Control_c, 5, 7, 95
7, 96778, Control_c, 5, 7, 96
7, 96800, Control_c, 5, 7, 97
7, 96822, Control_c, 5, 7, 98
7, 96840, Note_on_c, 5, 69, 0
7, 96840, Note_on_c, 5, 74, 94
7, 96840, Control_c, 5, 7, 99
7, 96870, Note_on_c, 5, 74, 0
7, 96900, Note_on_c, 5, 70, 119
7, 96960, Note_on_c, 5, 70, 0
7, 97020, Note_on_c, 5, 74, 99
7, 97050, Note_on_c, 5, 74, 0
7, 97080, Note_on_c, 5, 70, 119
7, 97140, Note_on_c, 5, 70, 0
7, 97185, Note_on_c, 5, 72, 90
7, 97200, Note_on_c, 5, 72, 0
7, 97200, Note_on_c, 5, 70, 95
7, 97260, Note_on_c, 5, 70, 0
7, 97260, Note_on_c, 5, 69, 110
7, 97320, Note_on_c, 5, 69, 0
7, 97320, Note_on_c, 5, 70, 94
7, 97350, Note_on_c, 5, 70, 0
7, 97380, Note_on_c, 5, 72, 93
7, 97500, Note_on_c, 5, 72, 0
7, 97560, Note_on_c, 5, 72, 95
7, 97590, Note_on_c, 5, 72, 0
7, 97620, Note_on_c, 5, 69, 117
7, 97680, Note_on_c, 5, 69, 0
7, 97740, Note_on_c, 5, 72, 98
7, 97770, Note_on_c, 5, 72, 0
7, 97800, Note_on_c, 5, 69, 119
7, 97860, Note_on_c, 5, 69, 0
7, 97905, Note_on_c, 5, 74, 84
7, 97920, Note_on_c, 5, 74, 0
7, 97920, Note_on_c, 5, 72, 95
7, 97980, Note_on_c, 5, 72, 0
7, 97980, Note_on_c, 5, 70, 99
7, 98040, Note_on_c, 5, 70, 0
7, 98040, Note_on_c, 5, 72, 95
7, 98070, Note_on_c, 5, 72, 0
7, 98100, Note_on_c, 5, 74, 95
7, 98220, Note_on_c, 5, 74, 0
7, 98220, Note_on_c, 5, 70, 90
7, 98250, Note_on_c, 5, 70, 0
7, 98280, Note_on_c, 5, 70, 94
7, 98340, Note_on_c, 5, 70, 0
7, 98340, Note_on_c, 5, 79, 99
7, 98400, Note_on_c, 5, 79, 0
7, 98400, Note_on_c, 5, 79, 95
7, 98430, Note_on_c, 5, 79, 0
7, 98460, Note_on_c, 5, 79, 94
7, 98520, Note_on_c, 5, 79, 0
7, 98520, Note_on_c, 5, 77, 99
7, 98580, Note_on_c, 5, 77, 0
7, 98580, Note_on_c, 5, 70, 94
7, 98610, Note_on_c, 5, 70, 0
7, 98640, Note_on_c, 5, 70, 99
7, 98700, Note_on_c, 5, 70, 0
7, 98700, Note_on_c, 5, 79, 99
7, 98760, Note_on_c, 5, 79, 0
7, 98760, Note_on_c, 5, 79, 95
7, 98790, Note_on_c, 5, 79, 0
7, 98820, Note_on_c, 5, 79, 95
7, 98880, Note_on_c, 5, 79, 0
7, 98880, Note_on_c, 5, 77, 98
7, 98940, Note_on_c, 5, 77, 0
7, 98940, Note_on_c, 5, 77, 95
7, 98970, Note_on_c, 5, 77, 0
7, 99000, Note_on_c, 5, 77, 99
7, 99060, Note_on_c, 5, 77, 0
7, 99060, Note_on_c, 5, 76, 101
7, 99120, Note_on_c, 5, 76, 0
7, 99120, Note_on_c, 5, 75, 93
7, 99150, Note_on_c, 5, 75, 0
7, 99180, Note_on_c, 5, 75, 94
7, 99240, Note_on_c, 5, 75, 0
7, 99240, Note_on_c, 5, 74, 99
7, 99300, Note_on_c, 5, 74, 0
7, 99300, Note_on_c, 5, 73, 89
7, 99330, Note_on_c, 5, 73, 0
7, 99360, Note_on_c, 5, 73, 90
7, 99420, Note_on_c, 5, 73, 0
7, 99420, Note_on_c, 5, 74, 99
7, 99480, Note_on_c, 5, 74, 0
7, 99480, Note_on_c, 5, 74, 98
7, 99510, Note_on_c, 5, 74, 0
7, 99540, Note_on_c, 5, 74, 99
7, 99600, Note_on_c, 5, 74, 0
7, 99600, Note_on_c, 5, 75, 94
7, 99660, Note_on_c, 5, 75, 0
7, 99660, Note_on_c, 5, 72, 99
7, 99690, Note_on_c, 5, 72, 0
7, 99720, Note_on_c, 5, 70, 78
7, 99750, Note_on_c, 5, 70, 0
7, 99780, Note_on_c, 5, 74, 95
7, 100020, Note_on_c, 5, 74, 0
7, 100020, Note_on_c, 5, 70, 77
7, 100050, Note_on_c, 5, 70, 0
7, 100080, Note_on_c, 5, 69, 81
7, 100200, Note_on_c, 5, 69, 0
7, 100440, Note_on_c, 5, 70, 72
7, 100470, Note_on_c, 5, 70, 0
7, 100500, Note_on_c, 5, 74, 90
7, 100740, Note_on_c, 5, 74, 0
7, 100740, Note_on_c, 5, 70, 58
7, 100770, Note_on_c, 5, 70, 0
7, 100800, Note_on_c, 5, 69, 69
7, 100920, Note_on_c, 5, 69, 0
7, 101160, Note_on_c, 5, 70, 65
7, 101280, Note_on_c, 5, 70, 0
7, 102600, Note_on_c, 5, 70, 78
7, 102630, Note_on_c, 5, 70, 0
7, 102660, Note_on_c, 5, 74, 95
7, 102900, Note_on_c, 5, 74, 0
7, 102900, Note_on_c, 5, 70, 77
7, 102930, Note_on_c, 5, 70, 0
7, 102960, Note_on_c, 5, 69, 81
7, 103080, Note_on_c, 5, 69, 0
7, 103320, Note_on_c, 5, 70, 72
7, 103350, Note_on_c, 5, 70, 0
7, 103380, Note_on_c, 5, 74, 90
7, 103620, Note_on_c, 5, 74, 0
7, 103620, Note_on_c, 5, 70, 58
7, 103650, Note_on_c, 5, 70, 0
7, 103680, Note_on_c, 5, 69, 69
7, 103800, Note_on_c, 5, 69, 0
7, 104040, Note_on_c, 5, 70, 65
7, 104160, Note_on_c, 5, 70, 0
7, 105480, Note_on_c, 5, 77, 61
7, 105600, Note_on_c, 5, 77, 0
7, 105600, Note_on_c, 5, 74, 53
7, 105660, Note_on_c, 5, 74, 0
7, 105660, Note_on_c, 5, 75, 57
7, 105780, Note_on_c, 5, 75, 0
7, 105780, Note_on_c, 5, 72, 57
7, 105840, Note_on_c, 5, 72, 0
7, 106200, Note_on_c, 5, 77, 61
7, 106320, Note_on_c, 5, 77, 0
7, 106320, Note_on_c, 5, 74, 53
7, 106380, Note_on_c, 5, 74, 0
7, 106380, Note_on_c, 5, 75, 57
7, 106500, Note_on_c, 5, 75, 0
7, 106500, Note_on_c, 5, 72, 57
7, 106560, Note_on_c, 5, 72, 0
7, 106560, Note_on_c, 5, 65, 61
7, 106680, Note_on_c, 5, 65, 0
7, 106680, Note_on_c, 5, 62, 53
7, 106740, Note_on_c, 5, 62, 0
7, 106740, Note_on_c, 5, 63, 57
7, 106860, Note_on_c, 5, 63, 0
7, 106860, Note_on_c, 5, 60, 57
7, 106920, Note_on_c, 5, 60, 0
7, 106920, Note_on_c, 5, 58, 50
7, 106980, Note_on_c, 5, 58, 0
7, 106980, Note_on_c, 5, 65, 43
7, 107040, Note_on_c, 5, 65, 0
7, 107040, Note_on_c, 5, 65, 62
7, 107070, Note_on_c, 5, 65, 0
7, 107100, Note_on_c, 5, 62, 62
7, 107160, Note_on_c, 5, 62, 0
7, 107160, Note_on_c, 5, 65, 58
7, 107220, Note_on_c, 5, 65, 0
7, 107220, Note_on_c, 5, 65, 63
7, 107250, Note_on_c, 5, 65, 0
7, 107280, Note_on_c, 5, 63, 43
7, 107340, Note_on_c, 5, 63, 0
7, 107340, Note_on_c, 5, 65, 66
7, 107400, Note_on_c, 5, 65, 0
7, 107400, Note_on_c, 5, 65, 61
7, 107430, Note_on_c, 5, 65, 0
7, 107460, Note_on_c, 5, 63, 43
7, 107520, Note_on_c, 5, 63, 0
7, 107520, Note_on_c, 5, 65, 53
7, 107580, Note_on_c, 5, 65, 0
7, 107580, Note_on_c, 5, 65, 53
7, 107610, Note_on_c, 5, 65, 0
7, 107640, Note_on_c, 5, 62, 58
7, 107700, Note_on_c, 5, 62, 0
7, 107700, Note_on_c, 5, 65, 60
7, 107760, Note_on_c, 5, 65, 0
7, 107760, Note_on_c, 5, 65, 46
7, 107790, Note_on_c, 5, 65, 0
7, 107820, Note_on_c, 5, 62, 50
7, 107880, Note_on_c, 5, 62, 0
7, 107880, Note_on_c, 5, 65, 57
7, 107940, Note_on_c, 5, 65, 0
7, 107940, Note_on_c, 5, 65, 46
7, 107970, Note_on_c, 5, 65, 0
7, 108000, Note_on_c, 5, 63, 46
7, 108060, Note_on_c, 5, 63, 0
7, 108060, Note_on_c, 5, 65, 46
7, 108120, Note_on_c, 5, 65, 0
7, 108120, Note_on_c, 5, 65, 45
7, 108150, Note_on_c, 5, 65, 0
7, 108180, Note_on_c, 5, 63, 42
7, 108240, Note_on_c, 5, 63, 0
7, 108240, Note_on_c, 5, 65, 59
7, 108300, Note_on_c, 5, 65, 0
7, 108300, Note_on_c, 5, 65, 55
7, 108330, Note_on_c, 5, 65, 0
7, 108360, Note_on_c, 5, 62, 43
7, 108480, Note_on_c, 5, 62, 0
7, 108660, Note_on_c, 5, 70, 53
7, 108720, Note_on_c, 5, 70, 0
7, 108720, Note_on_c, 5, 69, 73
7, 108960, Note_on_c, 5, 69, 0
7, 108960, Note_on_c, 5, 67, 73
7, 109020, Note_on_c, 5, 67, 0
7, 109020, Note_on_c, 5, 69, 76
7, 109080, Note_on_c, 5, 69, 0
7, 109080, Note_on_c, 5, 70, 65
7, 109200, Note_on_c, 5, 70, 0
7, 109380, Note_on_c, 5, 74, 65
7, 109440, Note_on_c, 5, 74, 0
7, 109440, Note_on_c, 5, 77, 68
7, 109500, Note_on_c, 5, 77, 0
7, 109500, Note_on_c, 5, 75, 67
7, 109560, Note_on_c, 5, 75, 0
7, 109560, Note_on_c, 5, 74, 53
7, 109590, Note_on_c, 5, 74, 0
7, 109605, Note_on_c, 5, 74, 73
7, 109620, Note_on_c, 5, 74, 0
7, 109620, Note_on_c, 5, 72, 76
7, 109680, Note_on_c, 5, 72, 0
7, 109680, Note_on_c, 5, 70, 71
7, 109740, Note_on_c, 5, 70, 0
7, 109740, Note_on_c, 5, 72, 74
7, 109770, Note_on_c, 5, 72, 0
7, 109800, Note_on_c, 5, 70, 73
7, 109920, Note_on_c, 5, 70, 0
7, 109980, Note_on_c, 5, 58, 29
7, 110100, Note_on_c, 5, 58, 0
7, 110700, Note_on_c, 5, 62, 40
7, 110820, Note_on_c, 5, 62, 0
7, 111420, Note_on_c, 5, 65, 35
7, 111540, Note_on_c, 5, 65, 0
7, 114960, Program_c, 5, 45
7, 115200, Note_on_c, 5, 67, 52
7, 115320, Note_on_c, 5, 67, 0
7, 115560, Note_on_c, 5, 60, 45
7, 115680, Note_on_c, 5, 60, 0
7, 115680, Program_c, 5, 48
7, 115920, Note_on_c, 5, 81, 93
7, 115920, Note_on_c, 5, 72, 64
7, 115920, Note_on_c, 5, 65, 98
7, 116040, Note_on_c, 5, 65, 0
7, 116040, Note_on_c, 5, 72, 0
7, 116040, Note_on_c, 5, 81, 0
7, 116280, Note_on_c, 5, 82, 89
7, 116280, Note_on_c, 5, 70, 89
7, 116280, Note_on_c, 5, 62, 94
7, 116340, Note_on_c, 5, 62, 0
7, 116340, Note_on_c, 5, 70, 0
7, 116340, Note_on_c, 5, 82, 0
7, 116340, Note_on_c, 5, 70, 86
7, 116340, Note_on_c, 5, 62, 82
7, 116400, Note_on_c, 5, 62, 0
7, 116400, Note_on_c, 5, 70, 0
7, 116400, Note_on_c, 5, 70, 93
7, 116400, Note_on_c, 5, 62, 85
7, 116460, Note_on_c, 5, 62, 0
7, 116460, Note_on_c, 5, 70, 0
7, 116460, Note_on_c, 5, 70, 94
7, 116460, Note_on_c, 5, 62, 85
7, 116520, Note_on_c, 5, 62, 0
7, 116520, Note_on_c, 5, 70, 0
7, 116520, Note_on_c, 5, 70, 89
7, 116520, Note_on_c, 5, 62, 81
7, 116580, Note_on_c, 5, 62, 0
7, 116580, Note_on_c, 5, 70, 0
7, 116580, Note_on_c, 5, 70, 89
7, 116580, Note_on_c, 5, 62, 76
7, 116640, Note_on_c, 5, 62, 0
7, 116640, Note_on_c, 5, 70, 0
7, 116640, Note_on_c, 5, 70, 90
7, 116640, Note_on_c, 5, 62, 89
7, 116700, Note_on_c, 5, 62, 0
7, 116700, Note_on_c, 5, 70, 0
7, 116700, Note_on_c, 5, 82, 94
7, 116760, Note_on_c, 5, 82, 0
7, 116760, Note_on_c, 5, 82, 86
7, 116820, Note_on_c, 5, 82, 0
7, 116820, Note_on_c, 5, 82, 89
7, 116880, Note_on_c, 5, 82, 0
7, 116880, Note_on_c, 5, 82, 86
7, 116940, Note_on_c, 5, 82, 0
7, 116940, Note_on_c, 5, 82, 90
7, 117000, Note_on_c, 5, 82, 0
7, 117000, Note_on_c, 5, 82, 90
7, 117120, Note_on_c, 5, 82, 0
7, 117180, Note_on_c, 5, 70, 86
7, 117180, Note_on_c, 5, 62, 99
7, 117300, Note_on_c, 5, 62, 0
7, 117300, Note_on_c, 5, 70, 0
7, 117360, Note_on_c, 5, 58, 89
7, 117480, Note_on_c, 5, 58, 0
7, 117490, Control_c, 5, 7, 99
7, 117490, Control_c, 5, 10, 26
7, 117490, Control_c, 5, 93, 0
7, 117490, Control_c, 5, 91, 66
7, 117490, End_track
8, 0, Start_track
8, 0, Title_t, "2nd Violins"
8, 0, Program_c, 6, 48
8, 0, Control_c, 6, 7, 100
8, 0, Control_c, 6, 10, 42
8, 2880, Note_on_c, 6, 62, 93
8, 2910, Note_on_c, 6, 62, 0
8, 2940, Note_on_c, 6, 58, 94
8, 3060, Note_on_c, 6, 58, 0
8, 3060, Note_on_c, 6, 62, 95
8, 3090, Note_on_c, 6, 62, 0
8, 3120, Note_on_c, 6, 58, 99
8, 3210, Note_on_c, 6, 58, 0
8, 3225, Note_on_c, 6, 60, 89
8, 3240, Note_on_c, 6, 60, 0
8, 3240, Note_on_c, 6, 58, 94
8, 3300, Note_on_c, 6, 58, 0
8, 3300, Note_on_c, 6, 57, 104
8, 3360, Note_on_c, 6, 57, 0
8, 3360, Note_on_c, 6, 58, 94
8, 3390, Note_on_c, 6, 58, 0
8, 3420, Note_on_c, 6, 60, 95
8, 3540, Note_on_c, 6, 60, 0
8, 3600, Note_on_c, 6, 60, 85
8, 3630, Note_on_c, 6, 60, 0
8, 3660, Note_on_c, 6, 57, 110
8, 3780, Note_on_c, 6, 57, 0
8, 3780, Note_on_c, 6, 60, 82
8, 3810, Note_on_c, 6, 60, 0
8, 3840, Note_on_c, 6, 57, 105
8, 3930, Note_on_c, 6, 57, 0
8, 3945, Note_on_c, 6, 62, 84
8, 3960, Note_on_c, 6, 62, 0
8, 3960, Note_on_c, 6, 60, 95
8, 4020, Note_on_c, 6, 60, 0
8, 4020, Note_on_c, 6, 58, 94
8, 4080, Note_on_c, 6, 58, 0
8, 4080, Note_on_c, 6, 60, 94
8, 4110, Note_on_c, 6, 60, 0
8, 4140, Note_on_c, 6, 62, 89
8, 4260, Note_on_c, 6, 62, 0
8, 4260, Note_on_c, 6, 58, 90
8, 4290, Note_on_c, 6, 58, 0
8, 4320, Note_on_c, 6, 58, 76
8, 4380, Note_on_c, 6, 58, 0
8, 4380, Note_on_c, 6, 67, 73
8, 4440, Note_on_c, 6, 67, 0
8, 4440, Note_on_c, 6, 67, 78
8, 4470, Note_on_c, 6, 67, 0
8, 4500, Note_on_c, 6, 67, 77
8, 4560, Note_on_c, 6, 67, 0
8, 4560, Note_on_c, 6, 65, 86
8, 4620, Note_on_c, 6, 65, 0
8, 4620, Note_on_c, 6, 58, 77
8, 4650, Note_on_c, 6, 58, 0
8, 4680, Note_on_c, 6, 58, 85
8, 4740, Note_on_c, 6, 58, 0
8, 4740, Note_on_c, 6, 67, 71
8, 4800, Note_on_c, 6, 67, 0
8, 4800, Note_on_c, 6, 67, 76
8, 4830, Note_on_c, 6, 67, 0
8, 4860, Note_on_c, 6, 67, 84
8, 4920, Note_on_c, 6, 67, 0
8, 4920, Note_on_c, 6, 65, 84
8, 4980, Note_on_c, 6, 65, 0
8, 4980, Note_on_c, 6, 65, 81
8, 5010, Note_on_c, 6, 65, 0
8, 5040, Note_on_c, 6, 65, 84
8, 5100, Note_on_c, 6, 65, 0
8, 5100, Note_on_c, 6, 64, 84
8, 5160, Note_on_c, 6, 64, 0
8, 5160, Note_on_c, 6, 63, 73
8, 5190, Note_on_c, 6, 63, 0
8, 5220, Note_on_c, 6, 63, 84
8, 5280, Note_on_c, 6, 63, 0
8, 5280, Note_on_c, 6, 62, 94
8, 5340, Note_on_c, 6, 62, 0
8, 5340, Note_on_c, 6, 61, 76
8, 5370, Note_on_c, 6, 61, 0
8, 5400, Note_on_c, 6, 61, 78
8, 5460, Note_on_c, 6, 61, 0
8, 5460, Note_on_c, 6, 62, 85
8, 5520, Note_on_c, 6, 62, 0
8, 5520, Note_on_c, 6, 62, 77
8, 5550, Note_on_c, 6, 62, 0
8, 5580, Note_on_c, 6, 62, 89
8, 5640, Note_on_c, 6, 62, 0
8, 5640, Note_on_c, 6, 63, 80
8, 5700, Note_on_c, 6, 63, 0
8, 5700, Note_on_c, 6, 60, 84
8, 5730, Note_on_c, 6, 60, 0
8, 5760, Note_on_c, 6, 58, 80
8, 5790, Note_on_c, 6, 58, 0
8, 5820, Note_on_c, 6, 58, 80
8, 5850, Note_on_c, 6, 58, 0
8, 5880, Note_on_c, 6, 60, 61
8, 5910, Note_on_c, 6, 60, 0
8, 5940, Note_on_c, 6, 62, 70
8, 5970, Note_on_c, 6, 62, 0
8, 6000, Note_on_c, 6, 63, 45
8, 6030, Note_on_c, 6, 63, 0
8, 6060, Note_on_c, 6, 64, 51
8, 6090, Note_on_c, 6, 64, 0
8, 6120, Note_on_c, 6, 65, 80
8, 6180, Note_on_c, 6, 65, 0
8, 6180, Note_on_c, 6, 63, 95
8, 6420, Note_on_c, 6, 63, 0
8, 6420, Note_on_c, 6, 60, 84
8, 6450, Note_on_c, 6, 60, 0
8, 6480, Note_on_c, 6, 62, 94
8, 6510, Note_on_c, 6, 62, 0
8, 6540, Note_on_c, 6, 74, 98
8, 6720, Note_on_c, 6, 74, 0
8, 6720, Note_on_c, 6, 72, 80
8, 6750, Note_on_c, 6, 72, 0
8, 6780, Note_on_c, 6, 70, 85
8, 6810, Note_on_c, 6, 70, 0
8, 6840, Note_on_c, 6, 69, 94
8, 6870, Note_on_c, 6, 69, 0
8, 6900, Note_on_c, 6, 67, 89
8, 6930, Note_on_c, 6, 67, 0
8, 6960, Note_on_c, 6, 65, 94
8, 6990, Note_on_c, 6, 65, 0
8, 7020, Note_on_c, 6, 63, 86
8, 7050, Note_on_c, 6, 63, 0
8, 7080, Note_on_c, 6, 62, 95
8, 7110, Note_on_c, 6, 62, 0
8, 7140, Note_on_c, 6, 60, 94
8, 7170, Note_on_c, 6, 60, 0
8, 7200, Note_on_c, 6, 58, 93
8, 7320, Note_on_c, 6, 58, 0
8, 7380, Note_on_c, 6, 77, 82
8, 7380, Note_on_c, 6, 70, 81
8, 7380, Note_on_c, 6, 62, 99
8, 7500, Note_on_c, 6, 62, 0
8, 7500, Note_on_c, 6, 70, 0
8, 7500, Note_on_c, 6, 77, 0
8, 7560, Note_on_c, 6, 58, 89
8, 7680, Note_on_c, 6, 58, 0
8, 8280, Note_on_c, 6, 70, 95
8, 8640, Note_on_c, 6, 70, 0
8, 8640, Note_on_c, 6, 62, 81
8, 8640, Note_on_c, 6, 58, 86
8, 9000, Note_on_c, 6, 58, 0
8, 9000, Note_on_c, 6, 62, 0
8, 9000, Note_on_c, 6, 65, 93
8, 9180, Note_on_c, 6, 65, 0
8, 9180, Note_on_c, 6, 67, 86
8, 9360, Note_on_c, 6, 67, 0
8, 9360, Note_on_c, 6, 69, 76
8, 9360, Note_on_c, 6, 60, 80
8, 9480, Note_on_c, 6, 60, 0
8, 9480, Note_on_c, 6, 69, 0
8, 10440, Note_on_c, 6, 77, 98
8, 10800, Note_on_c, 6, 77, 0
8, 10800, Note_on_c, 6, 69, 93
8, 10800, Note_on_c, 6, 65, 81
8, 11160, Note_on_c, 6, 65, 0
8, 11160, Note_on_c, 6, 69, 0
8, 11160, Note_on_c, 6, 72, 65
8, 11340, Note_on_c, 6, 72, 0
8, 11340, Note_on_c, 6, 74, 98
8, 11520, Note_on_c, 6, 74, 0
8, 11520, Note_on_c, 6, 67, 80
8, 11640, Note_on_c, 6, 67, 0
8, 14460, Note_on_c, 6, 60, 74
8, 14490, Note_on_c, 6, 60, 0
8, 14520, Note_on_c, 6, 64, 73
8, 14550, Note_on_c, 6, 64, 0
8, 14580, Note_on_c, 6, 60, 68
8, 14610, Note_on_c, 6, 60, 0
8, 14640, Note_on_c, 6, 60, 73
8, 14670, Note_on_c, 6, 60, 0
8, 14700, Note_on_c, 6, 64, 57
8, 14730, Note_on_c, 6, 64, 0
8, 14760, Note_on_c, 6, 62, 74
8, 14790, Note_on_c, 6, 62, 0
8, 14820, Note_on_c, 6, 62, 72
8, 14850, Note_on_c, 6, 62, 0
8, 14880, Note_on_c, 6, 65, 64
8, 14910, Note_on_c, 6, 65, 0
8, 14940, Note_on_c, 6, 62, 73
8, 14970, Note_on_c, 6, 62, 0
8, 15000, Note_on_c, 6, 62, 74
8, 15030, Note_on_c, 6, 62, 0
8, 15060, Note_on_c, 6, 65, 68
8, 15090, Note_on_c, 6, 65, 0
8, 15120, Note_on_c, 6, 60, 72
8, 15150, Note_on_c, 6, 60, 0
8, 15180, Note_on_c, 6, 60, 65
8, 15210, Note_on_c, 6, 60, 0
8, 15240, Note_on_c, 6, 64, 57
8, 15270, Note_on_c, 6, 64, 0
8, 15300, Note_on_c, 6, 60, 71
8, 15330, Note_on_c, 6, 60, 0
8, 15360, Note_on_c, 6, 60, 66
8, 15390, Note_on_c, 6, 60, 0
8, 15420, Note_on_c, 6, 64, 69
8, 15450, Note_on_c, 6, 64, 0
8, 15480, Note_on_c, 6, 62, 76
8, 15510, Note_on_c, 6, 62, 0
8, 15540, Note_on_c, 6, 62, 62
8, 15570, Note_on_c, 6, 62, 0
8, 15600, Note_on_c, 6, 65, 68
8, 15630, Note_on_c, 6, 65, 0
8, 15660, Note_on_c, 6, 62, 78
8, 15690, Note_on_c, 6, 62, 0
8, 15720, Note_on_c, 6, 62, 77
8, 15750, Note_on_c, 6, 62, 0
8, 15780, Note_on_c, 6, 65, 76
8, 15810, Note_on_c, 6, 65, 0
8, 15840, Note_on_c, 6, 64, 72
8, 15960, Note_on_c, 6, 64, 0
8, 16200, Note_on_c, 6, 60, 69
8, 16320, Note_on_c, 6, 60, 0
8, 16560, Note_on_c, 6, 60, 73
8, 16680, Note_on_c, 6, 60, 0
8, 20160, Note_on_c, 6, 65, 50
8, 20160, Note_on_c, 6, 57, 62
8, 20220, Note_on_c, 6, 57, 0
8, 20220, Note_on_c, 6, 65, 0
8, 20220, Note_on_c, 6, 65, 43
8, 20220, Note_on_c, 6, 57, 62
8, 20280, Note_on_c, 6, 57, 0
8, 20280, Note_on_c, 6, 65, 0
8, 20280, Note_on_c, 6, 65, 65
8, 20280, Note_on_c, 6, 57, 67
8, 20340, Note_on_c, 6, 57, 0
8, 20340, Note_on_c, 6, 65, 0
8, 20340, Note_on_c, 6, 65, 52
8, 20340, Note_on_c, 6, 57, 65
8, 20400, Note_on_c, 6, 57, 0
8, 20400, Note_on_c, 6, 65, 0
8, 20400, Note_on_c, 6, 65, 72
8, 20400, Note_on_c, 6, 57, 65
8, 20460, Note_on_c, 6, 57, 0
8, 20460, Note_on_c, 6, 65, 0
8, 20460, Note_on_c, 6, 65, 69
8, 20460, Note_on_c, 6, 57, 72
8, 20520, Note_on_c, 6, 57, 0
8, 20520, Note_on_c, 6, 65, 0
8, 20520, Note_on_c, 6, 65, 80
8, 20520, Note_on_c, 6, 57, 80
8, 20580, Note_on_c, 6, 57, 0
8, 20580, Note_on_c, 6, 65, 0
8, 20580, Note_on_c, 6, 65, 76
8, 20580, Note_on_c, 6, 57, 72
8, 20640, Note_on_c, 6, 57, 0
8, 20640, Note_on_c, 6, 65, 0
8, 20640, Note_on_c, 6, 65, 63
8, 20640, Note_on_c, 6, 57, 90
8, 20700, Note_on_c, 6, 57, 0
8, 20700, Note_on_c, 6, 65, 0
8, 20700, Note_on_c, 6, 65, 86
8, 20700, Note_on_c, 6, 58, 80
8, 20880, Note_on_c, 6, 58, 0
8, 20880, Note_on_c, 6, 65, 0
8, 21600, Note_on_c, 6, 65, 58
8, 21600, Note_on_c, 6, 57, 55
8, 21660, Note_on_c, 6, 57, 0
8, 21660, Note_on_c, 6, 65, 0
8, 21660, Note_on_c, 6, 65, 47
8, 21660, Note_on_c, 6, 57, 53
8, 21720, Note_on_c, 6, 57, 0
8, 21720, Note_on_c, 6, 65, 0
8, 21720, Note_on_c, 6, 65, 70
8, 21720, Note_on_c, 6, 57, 70
8, 21780, Note_on_c, 6, 57, 0
8, 21780, Note_on_c, 6, 65, 0
8, 21780, Note_on_c, 6, 65, 77
8, 21780, Note_on_c, 6, 57, 80
8, 21840, Note_on_c, 6, 57, 0
8, 21840, Note_on_c, 6, 65, 0
8, 21840, Note_on_c, 6, 65, 80
8, 21840, Note_on_c, 6, 57, 77
8, 21900, Note_on_c, 6, 57, 0
8, 21900, Note_on_c, 6, 65, 0
8, 21900, Note_on_c, 6, 65, 81
8, 21900, Note_on_c, 6, 57, 86
8, 21960, Note_on_c, 6, 57, 0
8, 21960, Note_on_c, 6, 65, 0
8, 21960, Note_on_c, 6, 65, 85
8, 22020, Note_on_c, 6, 65, 0
8, 22020, Note_on_c, 6, 65, 89
8, 22080, Note_on_c, 6, 65, 0
8, 22080, Note_on_c, 6, 65, 95
8, 22140, Note_on_c, 6, 65, 0
8, 22140, Note_on_c, 6, 71, 94
8, 22140, Note_on_c, 6, 65, 98
8, 22320, Note_on_c, 6, 65, 0
8, 22320, Note_on_c, 6, 71, 0
8, 22740, Note_on_c, 6, 60, 42
8, 22800, Note_on_c, 6, 60, 0
8, 22800, Note_on_c, 6, 60, 57
8, 22830, Note_on_c, 6, 60, 0
8, 22860, Note_on_c, 6, 60, 61
8, 22920, Note_on_c, 6, 60, 0
8, 22920, Note_on_c, 6, 59, 68
8, 22980, Note_on_c, 6, 59, 0
8, 22980, Note_on_c, 6, 60, 67
8, 23010, Note_on_c, 6, 60, 0
8, 23040, Note_on_c, 6, 67, 95
8, 23160, Note_on_c, 6, 67, 0
8, 23160, Note_on_c, 6, 64, 104
8, 23220, Note_on_c, 6, 64, 0
8, 23220, Note_on_c, 6, 67, 105
8, 23340, Note_on_c, 6, 67, 0
8, 23340, Note_on_c, 6, 64, 94
8, 23400, Note_on_c, 6, 64, 0
8, 23400, Note_on_c, 6, 65, 98
8, 23460, Note_on_c, 6, 65, 0
8, 23460, Note_on_c, 6, 69, 104
8, 23520, Note_on_c, 6, 69, 0
8, 23520, Note_on_c, 6, 72, 94
8, 23550, Note_on_c, 6, 72, 0
8, 23580, Note_on_c, 6, 72, 94
8, 23640, Note_on_c, 6, 72, 0
8, 23760, Note_on_c, 6, 67, 57
8, 23880, Note_on_c, 6, 67, 0
8, 23940, Note_on_c, 6, 67, 52
8, 24060, Note_on_c, 6, 67, 0
8, 24120, Note_on_c, 6, 65, 58
8, 24240, Note_on_c, 6, 65, 0
8, 24480, Note_on_c, 6, 67, 95
8, 24600, Note_on_c, 6, 67, 0
8, 24600, Note_on_c, 6, 64, 104
8, 24660, Note_on_c, 6, 64, 0
8, 24660, Note_on_c, 6, 67, 105
8, 24780, Note_on_c, 6, 67, 0
8, 24780, Note_on_c, 6, 64, 94
8, 24840, Note_on_c, 6, 64, 0
8, 24840, Note_on_c, 6, 65, 98
8, 24900, Note_on_c, 6, 65, 0
8, 24900, Note_on_c, 6, 69, 104
8, 24960, Note_on_c, 6, 69, 0
8, 24960, Note_on_c, 6, 72, 94
8, 24990, Note_on_c, 6, 72, 0
8, 25020, Note_on_c, 6, 72, 94
8, 25080, Note_on_c, 6, 72, 0
8, 25200, Note_on_c, 6, 67, 57
8, 25320, Note_on_c, 6, 67, 0
8, 25380, Note_on_c, 6, 67, 52
8, 25500, Note_on_c, 6, 67, 0
8, 25560, Note_on_c, 6, 65, 58
8, 25680, Note_on_c, 6, 65, 0
8, 27000, Note_on_c, 6, 62, 54
8, 27120, Note_on_c, 6, 62, 0
8, 27180, Note_on_c, 6, 62, 57
8, 27300, Note_on_c, 6, 62, 0
8, 27360, Note_on_c, 6, 65, 58
8, 27480, Note_on_c, 6, 65, 0
8, 27540, Note_on_c, 6, 64, 48
8, 27540, Note_on_c, 6, 58, 45
8, 27660, Note_on_c, 6, 58, 0
8, 27660, Note_on_c, 6, 64, 0
8, 29160, Note_on_c, 6, 62, 63
8, 29280, Note_on_c, 6, 62, 0
8, 29520, Note_on_c, 6, 67, 59
8, 29640, Note_on_c, 6, 67, 0
8, 29880, Note_on_c, 6, 67, 60
8, 30000, Note_on_c, 6, 67, 0
8, 30600, Note_on_c, 6, 63, 45
8, 30720, Note_on_c, 6, 63, 0
8, 30960, Note_on_c, 6, 69, 61
8, 31080, Note_on_c, 6, 69, 0
8, 31320, Note_on_c, 6, 69, 55
8, 31440, Note_on_c, 6, 69, 0
8, 37080, Note_on_c, 6, 62, 93
8, 37110, Note_on_c, 6, 62, 0
8, 37140, Note_on_c, 6, 58, 94
8, 37260, Note_on_c, 6, 58, 0
8, 37260, Note_on_c, 6, 62, 95
8, 37290, Note_on_c, 6, 62, 0
8, 37320, Note_on_c, 6, 58, 99
8, 37410, Note_on_c, 6, 58, 0
8, 37425, Note_on_c, 6, 60, 89
8, 37440, Note_on_c, 6, 60, 0
8, 37440, Note_on_c, 6, 58, 94
8, 37500, Note_on_c, 6, 58, 0
8, 37500, Note_on_c, 6, 57, 104
8, 37560, Note_on_c, 6, 57, 0
8, 37560, Note_on_c, 6, 58, 94
8, 37590, Note_on_c, 6, 58, 0
8, 37620, Note_on_c, 6, 60, 95
8, 37740, Note_on_c, 6, 60, 0
8, 37800, Note_on_c, 6, 60, 85
8, 37830, Note_on_c, 6, 60, 0
8, 37860, Note_on_c, 6, 57, 110
8, 37980, Note_on_c, 6, 57, 0
8, 37980, Note_on_c, 6, 60, 82
8, 38010, Note_on_c, 6, 60, 0
8, 38040, Note_on_c, 6, 57, 105
8, 38130, Note_on_c, 6, 57, 0
8, 38145, Note_on_c, 6, 62, 84
8, 38160, Note_on_c, 6, 62, 0
8, 38160, Note_on_c, 6, 60, 95
8, 38220, Note_on_c, 6, 60, 0
8, 38220, Note_on_c, 6, 58, 94
8, 38280, Note_on_c, 6, 58, 0
8, 38280, Note_on_c, 6, 60, 94
8, 38310, Note_on_c, 6, 60, 0
8, 38340, Note_on_c, 6, 62, 89
8, 38460, Note_on_c, 6, 62, 0
8, 38460, Note_on_c, 6, 58, 90
8, 38490, Note_on_c, 6, 58, 0
8, 38520, Note_on_c, 6, 58, 76
8, 38580, Note_on_c, 6, 58, 0
8, 38580, Note_on_c, 6, 67, 73
8, 38640, Note_on_c, 6, 67, 0
8, 38640, Note_on_c, 6, 67, 78
8, 38670, Note_on_c, 6, 67, 0
8, 38700, Note_on_c, 6, 67, 77
8, 38760, Note_on_c, 6, 67, 0
8, 38760, Note_on_c, 6, 65, 86
8, 38820, Note_on_c, 6, 65, 0
8, 38820, Note_on_c, 6, 58, 77
8, 38850, Note_on_c, 6, 58, 0
8, 38880, Note_on_c, 6, 58, 85
8, 38940, Note_on_c, 6, 58, 0
8, 38940, Note_on_c, 6, 67, 71
8, 39000, Note_on_c, 6, 67, 0
8, 39000, Note_on_c, 6, 67, 76
8, 39030, Note_on_c, 6, 67, 0
8, 39060, Note_on_c, 6, 67, 84
8, 39120, Note_on_c, 6, 67, 0
8, 39120, Note_on_c, 6, 65, 84
8, 39180, Note_on_c, 6, 65, 0
8, 39180, Note_on_c, 6, 65, 81
8, 39210, Note_on_c, 6, 65, 0
8, 39240, Note_on_c, 6, 65, 84
8, 39300, Note_on_c, 6, 65, 0
8, 39300, Note_on_c, 6, 64, 84
8, 39360, Note_on_c, 6, 64, 0
8, 39360, Note_on_c, 6, 63, 73
8, 39390, Note_on_c, 6, 63, 0
8, 39420, Note_on_c, 6, 63, 84
8, 39480, Note_on_c, 6, 63, 0
8, 39480, Note_on_c, 6, 62, 94
8, 39540, Note_on_c, 6, 62, 0
8, 39540, Note_on_c, 6, 61, 76
8, 39570, Note_on_c, 6, 61, 0
8, 39600, Note_on_c, 6, 61, 78
8, 39660, Note_on_c, 6, 61, 0
8, 39660, Note_on_c, 6, 62, 85
8, 39720, Note_on_c, 6, 62, 0
8, 39720, Note_on_c, 6, 62, 77
8, 39750, Note_on_c, 6, 62, 0
8, 39780, Note_on_c, 6, 62, 89
8, 39840, Note_on_c, 6, 62, 0
8, 39840, Note_on_c, 6, 63, 80
8, 39900, Note_on_c, 6, 63, 0
8, 39900, Note_on_c, 6, 60, 84
8, 39930, Note_on_c, 6, 60, 0
8, 39960, Note_on_c, 6, 58, 80
8, 39990, Note_on_c, 6, 58, 0
8, 40020, Note_on_c, 6, 58, 80
8, 40050, Note_on_c, 6, 58, 0
8, 40080, Note_on_c, 6, 60, 61
8, 40110, Note_on_c, 6, 60, 0
8, 40140, Note_on_c, 6, 62, 70
8, 40170, Note_on_c, 6, 62, 0
8, 40200, Note_on_c, 6, 63, 45
8, 40230, Note_on_c, 6, 63, 0
8, 40260, Note_on_c, 6, 64, 51
8, 40290, Note_on_c, 6, 64, 0
8, 40320, Note_on_c, 6, 65, 80
8, 40380, Note_on_c, 6, 65, 0
8, 40380, Note_on_c, 6, 63, 95
8, 40620, Note_on_c, 6, 63, 0
8, 40620, Note_on_c, 6, 60, 84
8, 40650, Note_on_c, 6, 60, 0
8, 40680, Note_on_c, 6, 62, 94
8, 40710, Note_on_c, 6, 62, 0
8, 40740, Note_on_c, 6, 74, 98
8, 40920, Note_on_c, 6, 74, 0
8, 40920, Note_on_c, 6, 72, 80
8, 40950, Note_on_c, 6, 72, 0
8, 40980, Note_on_c, 6, 70, 85
8, 41010, Note_on_c, 6, 70, 0
8, 41040, Note_on_c, 6, 69, 94
8, 41070, Note_on_c, 6, 69, 0
8, 41100, Note_on_c, 6, 67, 89
8, 41130, Note_on_c, 6, 67, 0
8, 41160, Note_on_c, 6, 65, 94
8, 41190, Note_on_c, 6, 65, 0
8, 41220, Note_on_c, 6, 63, 86
8, 41250, Note_on_c, 6, 63, 0
8, 41280, Note_on_c, 6, 62, 95
8, 41310, Note_on_c, 6, 62, 0
8, 41340, Note_on_c, 6, 60, 94
8, 41370, Note_on_c, 6, 60, 0
8, 41400, Note_on_c, 6, 58, 86
8, 41460, Note_on_c, 6, 58, 0
8, 41820, Note_on_c, 6, 62, 81
8, 41850, Note_on_c, 6, 62, 0
8, 41880, Note_on_c, 6, 63, 77
8, 41910, Note_on_c, 6, 63, 0
8, 41940, Note_on_c, 6, 64, 95
8, 41970, Note_on_c, 6, 64, 0
8, 42000, Note_on_c, 6, 65, 93
8, 42030, Note_on_c, 6, 65, 0
8, 42060, Note_on_c, 6, 66, 86
8, 42090, Note_on_c, 6, 66, 0
8, 42120, Note_on_c, 6, 67, 94
8, 42150, Note_on_c, 6, 67, 0
8, 42180, Note_on_c, 6, 70, 95
8, 42360, Note_on_c, 6, 70, 0
8, 42360, Note_on_c, 6, 69, 95
8, 42390, Note_on_c, 6, 69, 0
8, 42420, Note_on_c, 6, 67, 93
8, 42450, Note_on_c, 6, 67, 0
8, 42480, Note_on_c, 6, 65, 80
8, 42510, Note_on_c, 6, 65, 0
8, 42540, Note_on_c, 6, 63, 77
8, 42570, Note_on_c, 6, 63, 0
8, 42600, Note_on_c, 6, 62, 86
8, 42630, Note_on_c, 6, 62, 0
8, 42660, Note_on_c, 6, 61, 76
8, 42690, Note_on_c, 6, 61, 0
8, 42720, Note_on_c, 6, 61, 84
8, 42750, Note_on_c, 6, 61, 0
8, 42780, Note_on_c, 6, 61, 77
8, 42810, Note_on_c, 6, 61, 0
8, 42840, Note_on_c, 6, 62, 95
8, 42960, Note_on_c, 6, 62, 0
8, 43200, Note_on_c, 6, 74, 112
8, 43320, Note_on_c, 6, 74, 0
8, 43320, Note_on_c, 6, 72, 73
8, 43350, Note_on_c, 6, 72, 0
8, 43380, Note_on_c, 6, 70, 90
8, 43410, Note_on_c, 6, 70, 0
8, 43440, Note_on_c, 6, 69, 95
8, 43470, Note_on_c, 6, 69, 0
8, 43500, Note_on_c, 6, 67, 90
8, 43530, Note_on_c, 6, 67, 0
8, 43560, Note_on_c, 6, 62, 89
8, 43680, Note_on_c, 6, 62, 0
8, 43920, Note_on_c, 6, 74, 112
8, 44040, Note_on_c, 6, 74, 0
8, 44040, Note_on_c, 6, 72, 69
8, 44070, Note_on_c, 6, 72, 0
8, 44100, Note_on_c, 6, 70, 93
8, 44130, Note_on_c, 6, 70, 0
8, 44160, Note_on_c, 6, 69, 94
8, 44190, Note_on_c, 6, 69, 0
8, 44220, Note_on_c, 6, 67, 95
8, 44250, Note_on_c, 6, 67, 0
8, 44280, Note_on_c, 6, 62, 95
8, 44310, Note_on_c, 6, 62, 0
8, 44340, Note_on_c, 6, 62, 105
8, 44400, Note_on_c, 6, 62, 0
8, 44400, Note_on_c, 6, 61, 99
8, 44460, Note_on_c, 6, 61, 0
8, 44460, Note_on_c, 6, 62, 105
8, 44490, Note_on_c, 6, 62, 0
8, 44520, Note_on_c, 6, 62, 104
8, 44580, Note_on_c, 6, 62, 0
8, 44580, Note_on_c, 6, 61, 98
8, 44640, Note_on_c, 6, 61, 0
8, 44640, Note_on_c, 6, 62, 104
8, 44670, Note_on_c, 6, 62, 0
8, 44700, Note_on_c, 6, 62, 101
8, 44760, Note_on_c, 6, 62, 0
8, 44760, Note_on_c, 6, 61, 95
8, 44820, Note_on_c, 6, 61, 0
8, 44820, Note_on_c, 6, 60, 104
8, 44850, Note_on_c, 6, 60, 0
8, 44880, Note_on_c, 6, 58, 101
8, 44910, Note_on_c, 6, 58, 0
8, 44940, Note_on_c, 6, 57, 112
8, 44970, Note_on_c, 6, 57, 0
8, 45000, Note_on_c, 6, 55, 44
8, 45030, Note_on_c, 6, 55, 0
8, 45060, Note_on_c, 6, 58, 68
8, 45090, Note_on_c, 6, 58, 0
8, 45120, Note_on_c, 6, 58, 72
8, 45150, Note_on_c, 6, 58, 0
8, 45180, Note_on_c, 6, 55, 73
8, 45210, Note_on_c, 6, 55, 0
8, 45240, Note_on_c, 6, 58, 64
8, 45270, Note_on_c, 6, 58, 0
8, 45300, Note_on_c, 6, 58, 72
8, 45330, Note_on_c, 6, 58, 0
8, 45360, Note_on_c, 6, 55, 81
8, 45390, Note_on_c, 6, 55, 0
8, 45420, Note_on_c, 6, 58, 68
8, 45450, Note_on_c, 6, 58, 0
8, 45480, Note_on_c, 6, 58, 72
8, 45510, Note_on_c, 6, 58, 0
8, 45540, Note_on_c, 6, 55, 64
8, 45570, Note_on_c, 6, 55, 0
8, 45600, Note_on_c, 6, 58, 65
8, 45630, Note_on_c, 6, 58, 0
8, 45660, Note_on_c, 6, 58, 77
8, 45690, Note_on_c, 6, 58, 0
8, 45720, Note_on_c, 6, 57, 74
8, 45750, Note_on_c, 6, 57, 0
8, 45780, Note_on_c, 6, 60, 62
8, 45810, Note_on_c, 6, 60, 0
8, 45840, Note_on_c, 6, 60, 62
8, 45870, Note_on_c, 6, 60, 0
8, 45900, Note_on_c, 6, 55, 80
8, 45930, Note_on_c, 6, 55, 0
8, 45960, Note_on_c, 6, 58, 67
8, 45990, Note_on_c, 6, 58, 0
8, 46020, Note_on_c, 6, 58, 69
8, 46050, Note_on_c, 6, 58, 0
8, 46080, Note_on_c, 6, 57, 85
8, 46110, Note_on_c, 6, 57, 0
8, 46140, Note_on_c, 6, 60, 56
8, 46170, Note_on_c, 6, 60, 0
8, 46200, Note_on_c, 6, 60, 64
8, 46230, Note_on_c, 6, 60, 0
8, 46260, Note_on_c, 6, 55, 72
8, 46290, Note_on_c, 6, 55, 0
8, 46320, Note_on_c, 6, 58, 65
8, 46350, Note_on_c, 6, 58, 0
8, 46380, Note_on_c, 6, 58, 67
8, 46410, Note_on_c, 6, 58, 0
8, 46440, Note_on_c, 6, 57, 76
8, 46470, Note_on_c, 6, 57, 0
8, 46500, Note_on_c, 6, 62, 62
8, 46530, Note_on_c, 6, 62, 0
8, 46560, Note_on_c, 6, 62, 57
8, 46590, Note_on_c, 6, 62, 0
8, 46620, Note_on_c, 6, 57, 69
8, 46650, Note_on_c, 6, 57, 0
8, 46680, Note_on_c, 6, 61, 48
8, 46710, Note_on_c, 6, 61, 0
8, 46740, Note_on_c, 6, 61, 56
8, 46770, Note_on_c, 6, 61, 0
8, 46800, Note_on_c, 6, 57, 72
8, 46830, Note_on_c, 6, 57, 0
8, 46860, Note_on_c, 6, 62, 57
8, 46890, Note_on_c, 6, 62, 0
8, 46920, Note_on_c, 6, 62, 43
8, 46950, Note_on_c, 6, 62, 0
8, 46980, Note_on_c, 6, 57, 80
8, 47010, Note_on_c, 6, 57, 0
8, 47040, Note_on_c, 6, 61, 65
8, 47070, Note_on_c, 6, 61, 0
8, 47100, Note_on_c, 6, 61, 49
8, 47130, Note_on_c, 6, 61, 0
8, 47160, Note_on_c, 6, 57, 76
8, 47190, Note_on_c, 6, 57, 0
8, 47220, Note_on_c, 6, 62, 52
8, 47250, Note_on_c, 6, 62, 0
8, 47280, Note_on_c, 6, 62, 52
8, 47310, Note_on_c, 6, 62, 0
8, 47340, Note_on_c, 6, 57, 84
8, 47370, Note_on_c, 6, 57, 0
8, 47400, Note_on_c, 6, 67, 44
8, 47430, Note_on_c, 6, 67, 0
8, 47460, Note_on_c, 6, 67, 69
8, 47490, Note_on_c, 6, 67, 0
8, 47520, Note_on_c, 6, 65, 66
8, 47640, Note_on_c, 6, 65, 0
8, 48240, Note_on_c, 6, 55, 94
8, 48390, Control_c, 6, 7, 99
8, 48392, Control_c, 6, 7, 97
8, 48394, Control_c, 6, 7, 94
8, 48396, Control_c, 6, 7, 92
8, 48398, Control_c, 6, 7, 89
8, 48400, Control_c, 6, 7, 87
8, 48402, Control_c, 6, 7, 84
8, 48404, Control_c, 6, 7, 82
8, 48406, Control_c, 6, 7, 79
8, 48408, Control_c, 6, 7, 77
8, 48410, Control_c, 6, 7, 74
8, 48412, Control_c, 6, 7, 72
8, 48414, Control_c, 6, 7, 69
8, 48416, Control_c, 6, 7, 66
8, 48720, Note_on_c, 6, 55, 0
8, 48720, Note_on_c, 6, 55, 93
8, 48840, Note_on_c, 6, 55, 0
8, 48840, Note_on_c, 6, 57, 105
8, 48870, Note_on_c, 6, 57, 0
8, 48900, Note_on_c, 6, 59, 99
8, 48930, Note_on_c, 6, 59, 0
8, 48952, Control_c, 6, 7, 99
8, 48960, Note_on_c, 6, 60, 73
8, 48990, Note_on_c, 6, 60, 0
8, 49020, Note_on_c, 6, 63, 64
8, 49050, Note_on_c, 6, 63, 0
8, 49080, Note_on_c, 6, 63, 62
8, 49110, Note_on_c, 6, 63, 0
8, 49140, Note_on_c, 6, 60, 65
8, 49170, Note_on_c, 6, 60, 0
8, 49200, Note_on_c, 6, 63, 51
8, 49230, Note_on_c, 6, 63, 0
8, 49260, Note_on_c, 6, 63, 65
8, 49290, Note_on_c, 6, 63, 0
8, 49320, Note_on_c, 6, 60, 58
8, 49350, Note_on_c, 6, 60, 0
8, 49380, Note_on_c, 6, 63, 59
8, 49410, Note_on_c, 6, 63, 0
8, 49440, Note_on_c, 6, 63, 49
8, 49470, Note_on_c, 6, 63, 0
8, 49500, Note_on_c, 6, 60, 50
8, 49530, Note_on_c, 6, 60, 0
8, 49560, Note_on_c, 6, 63, 36
8, 49590, Note_on_c, 6, 63, 0
8, 49620, Note_on_c, 6, 63, 61
8, 49650, Note_on_c, 6, 63, 0
8, 49680, Note_on_c, 6, 62, 63
8, 49710, Note_on_c, 6, 62, 0
8, 49740, Note_on_c, 6, 65, 51
8, 49770, Note_on_c, 6, 65, 0
8, 49800, Note_on_c, 6, 65, 45
8, 49830, Note_on_c, 6, 65, 0
8, 49860, Note_on_c, 6, 60, 48
8, 49890, Note_on_c, 6, 60, 0
8, 49920, Note_on_c, 6, 63, 62
8, 49950, Note_on_c, 6, 63, 0
8, 49980, Note_on_c, 6, 63, 47
8, 50010, Note_on_c, 6, 63, 0
8, 50040, Note_on_c, 6, 62, 63
8, 50070, Note_on_c, 6, 62, 0
8, 50100, Note_on_c, 6, 65, 49
8, 50130, Note_on_c, 6, 65, 0
8, 50160, Note_on_c, 6, 65, 53
8, 50190, Note_on_c, 6, 65, 0
8, 50220, Note_on_c, 6, 60, 58
8, 50250, Note_on_c, 6, 60, 0
8, 50280, Note_on_c, 6, 63, 54
8, 50310, Note_on_c, 6, 63, 0
8, 50340, Note_on_c, 6, 63, 58
8, 50370, Note_on_c, 6, 63, 0
8, 50400, Note_on_c, 6, 62, 59
8, 50430, Note_on_c, 6, 62, 0
8, 50460, Note_on_c, 6, 65, 53
8, 50490, Note_on_c, 6, 65, 0
8, 50520, Note_on_c, 6, 65, 60
8, 50550, Note_on_c, 6, 65, 0
8, 50580, Note_on_c, 6, 59, 43
8, 50610, Note_on_c, 6, 59, 0
8, 50640, Note_on_c, 6, 62, 50
8, 50670, Note_on_c, 6, 62, 0
8, 50700, Note_on_c, 6, 62, 45
8, 50730, Note_on_c, 6, 62, 0
8, 50760, Note_on_c, 6, 60, 64
8, 50790, Note_on_c, 6, 60, 0
8, 50820, Note_on_c, 6, 63, 55
8, 50850, Note_on_c, 6, 63, 0
8, 50880, Note_on_c, 6, 63, 64
8, 50910, Note_on_c, 6, 63, 0
8, 50940, Note_on_c, 6, 60, 52
8, 50970, Note_on_c, 6, 60, 0
8, 51000, Note_on_c, 6, 63, 38
8, 51030, Note_on_c, 6, 63, 0
8, 51060, Note_on_c, 6, 63, 43
8, 51090, Note_on_c, 6, 63, 0
8, 51120, Note_on_c, 6, 60, 61
8, 51150, Note_on_c, 6, 60, 0
8, 51180, Note_on_c, 6, 62, 42
8, 51210, Note_on_c, 6, 62, 0
8, 51240, Note_on_c, 6, 62, 45
8, 51270, Note_on_c, 6, 62, 0
8, 51300, Note_on_c, 6, 59, 44
8, 51330, Note_on_c, 6, 59, 0
8, 51360, Note_on_c, 6, 62, 38
8, 51390, Note_on_c, 6, 62, 0
8, 51420, Note_on_c, 6, 62, 45
8, 51450, Note_on_c, 6, 62, 0
8, 51480, Note_on_c, 6, 63, 51
8, 51600, Note_on_c, 6, 63, 0
8, 52200, Note_on_c, 6, 65, 93
8, 52310, Control_c, 6, 7, 99
8, 52312, Control_c, 6, 7, 97
8, 52314, Control_c, 6, 7, 94
8, 52316, Control_c, 6, 7, 91
8, 52318, Control_c, 6, 7, 89
8, 52320, Control_c, 6, 7, 86
8, 52322, Control_c, 6, 7, 83
8, 52324, Control_c, 6, 7, 81
8, 52326, Control_c, 6, 7, 78
8, 52328, Control_c, 6, 7, 75
8, 52330, Control_c, 6, 7, 73
8, 52332, Control_c, 6, 7, 70
8, 52334, Control_c, 6, 7, 67
8, 52336, Control_c, 6, 7, 64
8, 52560, Note_on_c, 6, 65, 0
8, 52560, Note_on_c, 6, 65, 78
8, 52620, Note_on_c, 6, 65, 0
8, 52620, Note_on_c, 6, 65, 94
8, 52680, Note_on_c, 6, 65, 0
8, 52680, Note_on_c, 6, 64, 93
8, 52740, Note_on_c, 6, 64, 0
8, 52740, Note_on_c, 6, 65, 95
8, 52770, Note_on_c, 6, 65, 0
8, 52800, Note_on_c, 6, 67, 89
8, 52830, Note_on_c, 6, 67, 0
8, 52860, Note_on_c, 6, 69, 95
8, 52890, Note_on_c, 6, 69, 0
8, 52916, Control_c, 6, 7, 99
8, 52920, Note_on_c, 6, 70, 54
8, 52950, Note_on_c, 6, 70, 0
8, 52980, Note_on_c, 6, 61, 52
8, 53010, Note_on_c, 6, 61, 0
8, 53040, Note_on_c, 6, 61, 58
8, 53070, Note_on_c, 6, 61, 0
8, 53100, Note_on_c, 6, 58, 60
8, 53130, Note_on_c, 6, 58, 0
8, 53160, Note_on_c, 6, 61, 53
8, 53190, Note_on_c, 6, 61, 0
8, 53220, Note_on_c, 6, 61, 54
8, 53250, Note_on_c, 6, 61, 0
8, 53280, Note_on_c, 6, 58, 44
8, 53310, Note_on_c, 6, 58, 0
8, 53340, Note_on_c, 6, 61, 43
8, 53370, Note_on_c, 6, 61, 0
8, 53400, Note_on_c, 6, 61, 58
8, 53430, Note_on_c, 6, 61, 0
8, 53460, Note_on_c, 6, 58, 43
8, 53490, Note_on_c, 6, 58, 0
8, 53520, Note_on_c, 6, 61, 57
8, 53550, Note_on_c, 6, 61, 0
8, 53580, Note_on_c, 6, 61, 56
8, 53610, Note_on_c, 6, 61, 0
8, 53640, Note_on_c, 6, 60, 60
8, 53670, Note_on_c, 6, 60, 0
8, 53700, Note_on_c, 6, 63, 57
8, 53730, Note_on_c, 6, 63, 0
8, 53760, Note_on_c, 6, 63, 71
8, 53790, Note_on_c, 6, 63, 0
8, 53820, Note_on_c, 6, 58, 60
8, 53850, Note_on_c, 6, 58, 0
8, 53880, Note_on_c, 6, 61, 46
8, 53910, Note_on_c, 6, 61, 0
8, 53940, Note_on_c, 6, 61, 45
8, 53970, Note_on_c, 6, 61, 0
8, 54000, Note_on_c, 6, 60, 58
8, 54030, Note_on_c, 6, 60, 0
8, 54060, Note_on_c, 6, 63, 56
8, 54090, Note_on_c, 6, 63, 0
8, 54120, Note_on_c, 6, 63, 62
8, 54150, Note_on_c, 6, 63, 0
8, 54180, Note_on_c, 6, 58, 58
8, 54210, Note_on_c, 6, 58, 0
8, 54240, Note_on_c, 6, 61, 62
8, 54270, Note_on_c, 6, 61, 0
8, 54300, Note_on_c, 6, 61, 59
8, 54330, Note_on_c, 6, 61, 0
8, 54360, Note_on_c, 6, 58, 59
8, 54390, Note_on_c, 6, 58, 0
8, 54420, Note_on_c, 6, 58, 48
8, 54450, Note_on_c, 6, 58, 0
8, 54480, Note_on_c, 6, 61, 65
8, 54510, Note_on_c, 6, 61, 0
8, 54540, Note_on_c, 6, 58, 51
8, 54570, Note_on_c, 6, 58, 0
8, 54600, Note_on_c, 6, 58, 43
8, 54630, Note_on_c, 6, 58, 0
8, 54660, Note_on_c, 6, 61, 63
8, 54690, Note_on_c, 6, 61, 0
8, 54720, Note_on_c, 6, 58, 45
8, 54750, Note_on_c, 6, 58, 0
8, 54780, Note_on_c, 6, 58, 53
8, 54810, Note_on_c, 6, 58, 0
8, 54840, Note_on_c, 6, 61, 45
8, 54870, Note_on_c, 6, 61, 0
8, 54900, Note_on_c, 6, 58, 61
8, 54930, Note_on_c, 6, 58, 0
8, 54960, Note_on_c, 6, 58, 61
8, 54990, Note_on_c, 6, 58, 0
8, 55020, Note_on_c, 6, 61, 58
8, 55050, Note_on_c, 6, 61, 0
8, 55080, Note_on_c, 6, 60, 58
8, 55110, Note_on_c, 6, 60, 0
8, 55140, Note_on_c, 6, 63, 43
8, 55170, Note_on_c, 6, 63, 0
8, 55200, Note_on_c, 6, 63, 62
8, 55230, Note_on_c, 6, 63, 0
8, 55260, Note_on_c, 6, 61, 71
8, 55290, Note_on_c, 6, 61, 0
8, 55320, Note_on_c, 6, 65, 38
8, 55350, Note_on_c, 6, 65, 0
8, 55380, Note_on_c, 6, 65, 52
8, 55410, Note_on_c, 6, 65, 0
8, 55440, Note_on_c, 6, 60, 53
8, 55470, Note_on_c, 6, 60, 0
8, 55500, Note_on_c, 6, 63, 45
8, 55530, Note_on_c, 6, 63, 0
8, 55560, Note_on_c, 6, 63, 50
8, 55590, Note_on_c, 6, 63, 0
8, 55620, Note_on_c, 6, 61, 45
8, 55650, Note_on_c, 6, 61, 0
8, 55680, Note_on_c, 6, 65, 44
8, 55710, Note_on_c, 6, 65, 0
8, 55740, Note_on_c, 6, 65, 50
8, 55770, Note_on_c, 6, 65, 0
8, 55800, Note_on_c, 6, 63, 57
8, 55830, Note_on_c, 6, 63, 0
8, 55860, Note_on_c, 6, 63, 54
8, 55890, Note_on_c, 6, 63, 0
8, 55920, Note_on_c, 6, 66, 46
8, 55950, Note_on_c, 6, 66, 0
8, 55980, Note_on_c, 6, 60, 43
8, 56010, Note_on_c, 6, 60, 0
8, 56040, Note_on_c, 6, 60, 58
8, 56070, Note_on_c, 6, 60, 0
8, 56100, Note_on_c, 6, 63, 54
8, 56130, Note_on_c, 6, 63, 0
8, 56160, Note_on_c, 6, 61, 63
8, 56190, Note_on_c, 6, 61, 0
8, 56220, Note_on_c, 6, 61, 47
8, 56250, Note_on_c, 6, 61, 0
8, 56280, Note_on_c, 6, 65, 55
8, 56310, Note_on_c, 6, 65, 0
8, 56340, Note_on_c, 6, 65, 47
8, 56370, Note_on_c, 6, 65, 0
8, 56400, Note_on_c, 6, 65, 61
8, 56430, Note_on_c, 6, 65, 0
8, 56460, Note_on_c, 6, 68, 58
8, 56490, Note_on_c, 6, 68, 0
8, 56520, Note_on_c, 6, 63, 45
8, 56550, Note_on_c, 6, 63, 0
8, 56580, Note_on_c, 6, 63, 50
8, 56610, Note_on_c, 6, 63, 0
8, 56640, Note_on_c, 6, 66, 43
8, 56670, Note_on_c, 6, 66, 0
8, 56700, Note_on_c, 6, 60, 52
8, 56730, Note_on_c, 6, 60, 0
8, 56760, Note_on_c, 6, 60, 40
8, 56790, Note_on_c, 6, 60, 0
8, 56820, Note_on_c, 6, 63, 53
8, 56850, Note_on_c, 6, 63, 0
8, 56880, Note_on_c, 6, 61, 57
8, 56910, Note_on_c, 6, 61, 0
8, 56940, Note_on_c, 6, 61, 50
8, 56970, Note_on_c, 6, 61, 0
8, 57000, Note_on_c, 6, 65, 37
8, 57030, Note_on_c, 6, 65, 0
8, 57060, Note_on_c, 6, 58, 54
8, 57090, Note_on_c, 6, 58, 0
8, 57120, Note_on_c, 6, 58, 43
8, 57150, Note_on_c, 6, 58, 0
8, 57180, Note_on_c, 6, 62, 52
8, 57210, Note_on_c, 6, 62, 0
8, 57240, Note_on_c, 6, 58, 59
8, 57270, Note_on_c, 6, 58, 0
8, 57300, Note_on_c, 6, 58, 38
8, 57330, Note_on_c, 6, 58, 0
8, 57360, Note_on_c, 6, 63, 58
8, 57390, Note_on_c, 6, 63, 0
8, 57420, Note_on_c, 6, 58, 56
8, 57450, Note_on_c, 6, 58, 0
8, 57480, Note_on_c, 6, 58, 54
8, 57510, Note_on_c, 6, 58, 0
8, 57540, Note_on_c, 6, 64, 58
8, 57570, Note_on_c, 6, 64, 0
8, 57600, Note_on_c, 6, 65, 50
8, 57600, Note_on_c, 6, 57, 72
8, 57720, Note_on_c, 6, 57, 0
8, 57720, Note_on_c, 6, 65, 0
8, 57780, Note_on_c, 6, 63, 52
8, 57960, Note_on_c, 6, 63, 0
8, 57960, Note_on_c, 6, 61, 45
8, 58140, Note_on_c, 6, 61, 0
8, 58140, Note_on_c, 6, 58, 69
8, 58320, Note_on_c, 6, 58, 0
8, 58320, Note_on_c, 6, 60, 53
8, 58500, Note_on_c, 6, 60, 0
8, 58500, Note_on_c, 6, 63, 45
8, 58680, Note_on_c, 6, 63, 0
8, 58680, Note_on_c, 6, 61, 59
8, 58860, Note_on_c, 6, 61, 0
8, 58860, Note_on_c, 6, 58, 65
8, 59040, Note_on_c, 6, 58, 0
8, 59040, Note_on_c, 6, 60, 44
8, 59160, Note_on_c, 6, 60, 0
8, 59460, Program_c, 6, 45
8, 59760, Note_on_c, 6, 58, 61
8, 59880, Note_on_c, 6, 58, 0
8, 60480, Note_on_c, 6, 60, 73
8, 60600, Note_on_c, 6, 60, 0
8, 61200, Note_on_c, 6, 57, 72
8, 61320, Note_on_c, 6, 57, 0
8, 62040, Program_c, 6, 48
8, 64800, Note_on_c, 6, 62, 93
8, 64830, Note_on_c, 6, 62, 0
8, 64860, Note_on_c, 6, 58, 94
8, 64980, Note_on_c, 6, 58, 0
8, 64980, Note_on_c, 6, 62, 95
8, 65010, Note_on_c, 6, 62, 0
8, 65040, Note_on_c, 6, 58, 99
8, 65130, Note_on_c, 6, 58, 0
8, 65145, Note_on_c, 6, 60, 89
8, 65160, Note_on_c, 6, 60, 0
8, 65160, Note_on_c, 6, 58, 94
8, 65220, Note_on_c, 6, 58, 0
8, 65220, Note_on_c, 6, 57, 104
8, 65280, Note_on_c, 6, 57, 0
8, 65280, Note_on_c, 6, 58, 94
8, 65310, Note_on_c, 6, 58, 0
8, 65340, Note_on_c, 6, 60, 95
8, 65460, Note_on_c, 6, 60, 0
8, 65520, Note_on_c, 6, 60, 85
8, 65550, Note_on_c, 6, 60, 0
8, 65580, Note_on_c, 6, 57, 110
8, 65700, Note_on_c, 6, 57, 0
8, 65700, Note_on_c, 6, 60, 82
8, 65730, Note_on_c, 6, 60, 0
8, 65760, Note_on_c, 6, 57, 105
8, 65850, Note_on_c, 6, 57, 0
8, 65865, Note_on_c, 6, 62, 84
8, 65880, Note_on_c, 6, 62, 0
8, 65880, Note_on_c, 6, 60, 95
8, 65940, Note_on_c, 6, 60, 0
8, 65940, Note_on_c, 6, 58, 94
8, 66000, Note_on_c, 6, 58, 0
8, 66000, Note_on_c, 6, 60, 94
8, 66030, Note_on_c, 6, 60, 0
8, 66060, Note_on_c, 6, 62, 89
8, 66180, Note_on_c, 6, 62, 0
8, 66180, Note_on_c, 6, 58, 90
8, 66210, Note_on_c, 6, 58, 0
8, 66240, Note_on_c, 6, 58, 76
8, 66300, Note_on_c, 6, 58, 0
8, 66300, Note_on_c, 6, 67, 73
8, 66360, Note_on_c, 6, 67, 0
8, 66360, Note_on_c, 6, 67, 78
8, 66390, Note_on_c, 6, 67, 0
8, 66420, Note_on_c, 6, 67, 77
8, 66480, Note_on_c, 6, 67, 0
8, 66480, Note_on_c, 6, 65, 86
8, 66540, Note_on_c, 6, 65, 0
8, 66540, Note_on_c, 6, 58, 77
8, 66570, Note_on_c, 6, 58, 0
8, 66600, Note_on_c, 6, 58, 85
8, 66660, Note_on_c, 6, 58, 0
8, 66660, Note_on_c, 6, 67, 71
8, 66720, Note_on_c, 6, 67, 0
8, 66720, Note_on_c, 6, 67, 76
8, 66750, Note_on_c, 6, 67, 0
8, 66780, Note_on_c, 6, 67, 84
8, 66840, Note_on_c, 6, 67, 0
8, 66840, Note_on_c, 6, 65, 84
8, 66900, Note_on_c, 6, 65, 0
8, 66900, Note_on_c, 6, 65, 81
8, 66930, Note_on_c, 6, 65, 0
8, 66960, Note_on_c, 6, 65, 84
8, 67020, Note_on_c, 6, 65, 0
8, 67020, Note_on_c, 6, 64, 84
8, 67080, Note_on_c, 6, 64, 0
8, 67080, Note_on_c, 6, 63, 73
8, 67110, Note_on_c, 6, 63, 0
8, 67140, Note_on_c, 6, 63, 84
8, 67200, Note_on_c, 6, 63, 0
8, 67200, Note_on_c, 6, 62, 94
8, 67260, Note_on_c, 6, 62, 0
8, 67260, Note_on_c, 6, 61, 76
8, 67290, Note_on_c, 6, 61, 0
8, 67320, Note_on_c, 6, 61, 78
8, 67380, Note_on_c, 6, 61, 0
8, 67380, Note_on_c, 6, 62, 85
8, 67440, Note_on_c, 6, 62, 0
8, 67440, Note_on_c, 6, 62, 77
8, 67470, Note_on_c, 6, 62, 0
8, 67500, Note_on_c, 6, 62, 89
8, 67560, Note_on_c, 6, 62, 0
8, 67560, Note_on_c, 6, 63, 80
8, 67620, Note_on_c, 6, 63, 0
8, 67620, Note_on_c, 6, 60, 84
8, 67650, Note_on_c, 6, 60, 0
8, 67680, Note_on_c, 6, 58, 80
8, 67710, Note_on_c, 6, 58, 0
8, 67740, Note_on_c, 6, 58, 80
8, 67770, Note_on_c, 6, 58, 0
8, 67800, Note_on_c, 6, 60, 61
8, 67830, Note_on_c, 6, 60, 0
8, 67860, Note_on_c, 6, 62, 70
8, 67890, Note_on_c, 6, 62, 0
8, 67920, Note_on_c, 6, 63, 45
8, 67950, Note_on_c, 6, 63, 0
8, 67980, Note_on_c, 6, 64, 51
8, 68010, Note_on_c, 6, 64, 0
8, 68040, Note_on_c, 6, 65, 80
8, 68100, Note_on_c, 6, 65, 0
8, 68100, Note_on_c, 6, 63, 95
8, 68340, Note_on_c, 6, 63, 0
8, 68340, Note_on_c, 6, 60, 84
8, 68370, Note_on_c, 6, 60, 0
8, 68400, Note_on_c, 6, 62, 94
8, 68430, Note_on_c, 6, 62, 0
8, 68460, Note_on_c, 6, 74, 98
8, 68640, Note_on_c, 6, 74, 0
8, 68640, Note_on_c, 6, 72, 80
8, 68670, Note_on_c, 6, 72, 0
8, 68700, Note_on_c, 6, 70, 85
8, 68730, Note_on_c, 6, 70, 0
8, 68760, Note_on_c, 6, 69, 94
8, 68790, Note_on_c, 6, 69, 0
8, 68820, Note_on_c, 6, 67, 89
8, 68850, Note_on_c, 6, 67, 0
8, 68880, Note_on_c, 6, 65, 94
8, 68910, Note_on_c, 6, 65, 0
8, 68940, Note_on_c, 6, 63, 86
8, 68970, Note_on_c, 6, 63, 0
8, 69000, Note_on_c, 6, 62, 95
8, 69030, Note_on_c, 6, 62, 0
8, 69060, Note_on_c, 6, 60, 94
8, 69090, Note_on_c, 6, 60, 0
8, 69120, Note_on_c, 6, 58, 93
8, 69240, Note_on_c, 6, 58, 0
8, 69300, Note_on_c, 6, 77, 82
8, 69300, Note_on_c, 6, 70, 81
8, 69300, Note_on_c, 6, 62, 99
8, 69420, Note_on_c, 6, 62, 0
8, 69420, Note_on_c, 6, 70, 0
8, 69420, Note_on_c, 6, 77, 0
8, 69480, Note_on_c, 6, 58, 89
8, 69600, Note_on_c, 6, 58, 0
8, 70200, Note_on_c, 6, 70, 95
8, 70560, Note_on_c, 6, 70, 0
8, 70560, Note_on_c, 6, 62, 81
8, 70560, Note_on_c, 6, 58, 86
8, 70920, Note_on_c, 6, 58, 0
8, 70920, Note_on_c, 6, 62, 0
8, 70920, Note_on_c, 6, 65, 93
8, 71100, Note_on_c, 6, 65, 0
8, 71100, Note_on_c, 6, 67, 86
8, 71280, Note_on_c, 6, 67, 0
8, 71280, Note_on_c, 6, 69, 76
8, 71280, Note_on_c, 6, 60, 80
8, 71400, Note_on_c, 6, 60, 0
8, 71400, Note_on_c, 6, 69, 0
8, 72360, Note_on_c, 6, 68, 99
8, 72720, Note_on_c, 6, 68, 0
8, 72720, Note_on_c, 6, 62, 84
8, 72720, Note_on_c, 6, 58, 84
8, 73080, Note_on_c, 6, 58, 0
8, 73080, Note_on_c, 6, 62, 0
8, 73080, Note_on_c, 6, 65, 84
8, 73260, Note_on_c, 6, 65, 0
8, 73260, Note_on_c, 6, 68, 86
8, 73440, Note_on_c, 6, 68, 0
8, 73440, Note_on_c, 6, 67, 80
8, 73560, Note_on_c, 6, 67, 0
8, 74160, Note_on_c, 6, 67, 72
8, 74280, Note_on_c, 6, 67, 0
8, 74340, Note_on_c, 6, 68, 54
8, 74460, Note_on_c, 6, 68, 0
8, 74520, Note_on_c, 6, 67, 72
8, 74640, Note_on_c, 6, 67, 0
8, 74880, Note_on_c, 6, 67, 68
8, 75000, Note_on_c, 6, 67, 0
8, 75060, Note_on_c, 6, 68, 77
8, 75180, Note_on_c, 6, 68, 0
8, 75240, Note_on_c, 6, 67, 63
8, 75360, Note_on_c, 6, 67, 0
8, 75600, Note_on_c, 6, 67, 64
8, 75720, Note_on_c, 6, 67, 0
8, 75780, Note_on_c, 6, 67, 66
8, 75900, Note_on_c, 6, 67, 0
8, 75960, Note_on_c, 6, 67, 64
8, 76080, Note_on_c, 6, 67, 0
8, 76140, Note_on_c, 6, 67, 59
8, 76260, Note_on_c, 6, 67, 0
8, 76320, Note_on_c, 6, 60, 64
8, 76380, Note_on_c, 6, 60, 0
8, 76380, Note_on_c, 6, 65, 53
8, 76380, Note_on_c, 6, 60, 45
8, 76440, Note_on_c, 6, 60, 0
8, 76440, Note_on_c, 6, 65, 0
8, 76440, Note_on_c, 6, 65, 43
8, 76440, Note_on_c, 6, 60, 46
8, 76500, Note_on_c, 6, 60, 0
8, 76500, Note_on_c, 6, 65, 0
8, 76500, Note_on_c, 6, 65, 40
8, 76500, Note_on_c, 6, 60, 43
8, 76560, Note_on_c, 6, 60, 0
8, 76560, Note_on_c, 6, 65, 0
8, 76560, Note_on_c, 6, 65, 42
8, 76560, Note_on_c, 6, 60, 45
8, 76620, Note_on_c, 6, 60, 0
8, 76620, Note_on_c, 6, 65, 0
8, 76620, Note_on_c, 6, 60, 45
8, 76620, Note_on_c, 6, 65, 54
8, 76680, Note_on_c, 6, 65, 0
8, 76680, Note_on_c, 6, 60, 0
8, 76680, Note_on_c, 6, 67, 57
8, 76740, Note_on_c, 6, 67, 0
8, 76740, Note_on_c, 6, 67, 45
8, 76800, Note_on_c, 6, 67, 0
8, 76800, Note_on_c, 6, 67, 44
8, 76860, Note_on_c, 6, 67, 0
8, 76860, Note_on_c, 6, 67, 43
8, 76920, Note_on_c, 6, 67, 0
8, 76920, Note_on_c, 6, 67, 43
8, 76980, Note_on_c, 6, 67, 0
8, 76980, Note_on_c, 6, 67, 48
8, 77040, Note_on_c, 6, 67, 0
8, 77040, Note_on_c, 6, 65, 71
8, 77100, Note_on_c, 6, 65, 0
8, 77100, Note_on_c, 6, 60, 54
8, 77160, Note_on_c, 6, 60, 0
8, 77160, Note_on_c, 6, 60, 52
8, 77220, Note_on_c, 6, 60, 0
8, 77220, Note_on_c, 6, 60, 45
8, 77280, Note_on_c, 6, 60, 0
8, 77280, Note_on_c, 6, 60, 40
8, 77340, Note_on_c, 6, 60, 0
8, 77340, Note_on_c, 6, 60, 43
8, 77400, Note_on_c, 6, 60, 0
8, 77400, Note_on_c, 6, 60, 43
8, 77460, Note_on_c, 6, 60, 0
8, 77460, Note_on_c, 6, 60, 44
8, 77520, Note_on_c, 6, 60, 0
8, 77520, Note_on_c, 6, 60, 43
8, 77580, Note_on_c, 6, 60, 0
8, 77580, Note_on_c, 6, 60, 59
8, 77640, Note_on_c, 6, 60, 0
8, 77640, Note_on_c, 6, 60, 58
8, 77700, Note_on_c, 6, 60, 0
8, 77700, Note_on_c, 6, 60, 44
8, 77760, Note_on_c, 6, 60, 0
8, 77760, Note_on_c, 6, 60, 58
8, 77880, Note_on_c, 6, 60, 0
8, 78120, Note_on_c, 6, 65, 41
8, 78240, Note_on_c, 6, 65, 0
8, 78480, Note_on_c, 6, 65, 43
8, 78600, Note_on_c, 6, 65, 0
8, 82080, Note_on_c, 6, 62, 46
8, 82080, Note_on_c, 6, 58, 43
8, 82140, Note_on_c, 6, 58, 0
8, 82140, Note_on_c, 6, 62, 0
8, 82140, Note_on_c, 6, 62, 55
8, 82140, Note_on_c, 6, 58, 48
8, 82200, Note_on_c, 6, 58, 0
8, 82200, Note_on_c, 6, 62, 0
8, 82200, Note_on_c, 6, 62, 64
8, 82200, Note_on_c, 6, 58, 57
8, 82260, Note_on_c, 6, 58, 0
8, 82260, Note_on_c, 6, 62, 0
8, 82260, Note_on_c, 6, 62, 70
8, 82260, Note_on_c, 6, 58, 65
8, 82320, Note_on_c, 6, 58, 0
8, 82320, Note_on_c, 6, 62, 0
8, 82320, Note_on_c, 6, 62, 76
8, 82320, Note_on_c, 6, 58, 73
8, 82380, Note_on_c, 6, 58, 0
8, 82380, Note_on_c, 6, 62, 0
8, 82380, Note_on_c, 6, 58, 76
8, 82380, Note_on_c, 6, 62, 80
8, 82440, Note_on_c, 6, 62, 0
8, 82440, Note_on_c, 6, 58, 0
8, 82440, Note_on_c, 6, 62, 89
8, 82440, Note_on_c, 6, 58, 84
8, 82500, Note_on_c, 6, 58, 0
8, 82500, Note_on_c, 6, 62, 0
8, 82500, Note_on_c, 6, 62, 84
8, 82500, Note_on_c, 6, 58, 84
8, 82560, Note_on_c, 6, 58, 0
8, 82560, Note_on_c, 6, 62, 0
8, 82560, Note_on_c, 6, 62, 90
8, 82560, Note_on_c, 6, 58, 84
8, 82620, Note_on_c, 6, 58, 0
8, 82620, Note_on_c, 6, 62, 0
8, 82620, Note_on_c, 6, 63, 99
8, 82620, Note_on_c, 6, 70, 98
8, 82800, Note_on_c, 6, 70, 0
8, 82800, Note_on_c, 6, 63, 0
8, 83520, Note_on_c, 6, 62, 46
8, 83520, Note_on_c, 6, 58, 43
8, 83580, Note_on_c, 6, 58, 0
8, 83580, Note_on_c, 6, 62, 0
8, 83580, Note_on_c, 6, 62, 55
8, 83580, Note_on_c, 6, 58, 48
8, 83640, Note_on_c, 6, 58, 0
8, 83640, Note_on_c, 6, 62, 0
8, 83640, Note_on_c, 6, 62, 64
8, 83640, Note_on_c, 6, 58, 57
8, 83700, Note_on_c, 6, 58, 0
8, 83700, Note_on_c, 6, 62, 0
8, 83700, Note_on_c, 6, 62, 70
8, 83700, Note_on_c, 6, 58, 65
8, 83760, Note_on_c, 6, 58, 0
8, 83760, Note_on_c, 6, 62, 0
8, 83760, Note_on_c, 6, 62, 76
8, 83760, Note_on_c, 6, 58, 73
8, 83820, Note_on_c, 6, 58, 0
8, 83820, Note_on_c, 6, 62, 0
8, 83820, Note_on_c, 6, 58, 76
8, 83820, Note_on_c, 6, 62, 80
8, 83880, Note_on_c, 6, 62, 0
8, 83880, Note_on_c, 6, 58, 0
8, 83880, Note_on_c, 6, 62, 89
8, 83880, Note_on_c, 6, 58, 84
8, 83940, Note_on_c, 6, 58, 0
8, 83940, Note_on_c, 6, 62, 0
8, 83940, Note_on_c, 6, 62, 84
8, 83940, Note_on_c, 6, 58, 84
8, 84000, Note_on_c, 6, 58, 0
8, 84000, Note_on_c, 6, 62, 0
8, 84000, Note_on_c, 6, 62, 90
8, 84000, Note_on_c, 6, 58, 84
8, 84060, Note_on_c, 6, 58, 0
8, 84060, Note_on_c, 6, 62, 0
8, 84060, Note_on_c, 6, 70, 98
8, 84240, Note_on_c, 6, 70, 0
8, 84660, Note_on_c, 6, 65, 56
8, 84720, Note_on_c, 6, 65, 0
8, 84720, Note_on_c, 6, 65, 64
8, 84750, Note_on_c, 6, 65, 0
8, 84780, Note_on_c, 6, 65, 72
8, 84840, Note_on_c, 6, 65, 0
8, 84840, Note_on_c, 6, 64, 72
8, 84900, Note_on_c, 6, 64, 0
8, 84900, Note_on_c, 6, 65, 62
8, 84930, Note_on_c, 6, 65, 0
8, 84960, Note_on_c, 6, 60, 105
8, 85080, Note_on_c, 6, 60, 0
8, 85080, Note_on_c, 6, 57, 94
8, 85140, Note_on_c, 6, 57, 0
8, 85140, Note_on_c, 6, 60, 95
8, 85260, Note_on_c, 6, 60, 0
8, 85260, Note_on_c, 6, 57, 95
8, 85320, Note_on_c, 6, 57, 0
8, 85320, Note_on_c, 6, 58, 84
8, 85380, Note_on_c, 6, 58, 0
8, 85380, Note_on_c, 6, 62, 89
8, 85440, Note_on_c, 6, 62, 0
8, 85440, Note_on_c, 6, 65, 84
8, 85470, Note_on_c, 6, 65, 0
8, 85500, Note_on_c, 6, 65, 76
8, 85560, Note_on_c, 6, 65, 0
8, 85680, Note_on_c, 6, 72, 63
8, 85800, Note_on_c, 6, 72, 0
8, 85860, Note_on_c, 6, 72, 53
8, 85980, Note_on_c, 6, 72, 0
8, 86040, Note_on_c, 6, 70, 65
8, 86160, Note_on_c, 6, 70, 0
8, 86400, Note_on_c, 6, 60, 105
8, 86520, Note_on_c, 6, 60, 0
8, 86520, Note_on_c, 6, 57, 94
8, 86580, Note_on_c, 6, 57, 0
8, 86580, Note_on_c, 6, 60, 95
8, 86700, Note_on_c, 6, 60, 0
8, 86700, Note_on_c, 6, 57, 95
8, 86760, Note_on_c, 6, 57, 0
8, 86760, Note_on_c, 6, 58, 84
8, 86820, Note_on_c, 6, 58, 0
8, 86820, Note_on_c, 6, 62, 89
8, 86880, Note_on_c, 6, 62, 0
8, 86880, Note_on_c, 6, 65, 84
8, 86910, Note_on_c, 6, 65, 0
8, 86940, Note_on_c, 6, 65, 76
8, 87000, Note_on_c, 6, 65, 0
8, 87120, Note_on_c, 6, 72, 63
8, 87240, Note_on_c, 6, 72, 0
8, 87300, Note_on_c, 6, 72, 53
8, 87420, Note_on_c, 6, 72, 0
8, 87480, Note_on_c, 6, 70, 65
8, 87600, Note_on_c, 6, 70, 0
8, 88920, Note_on_c, 6, 60, 74
8, 89040, Note_on_c, 6, 60, 0
8, 89100, Note_on_c, 6, 63, 58
8, 89220, Note_on_c, 6, 63, 0
8, 89280, Note_on_c, 6, 62, 68
8, 89400, Note_on_c, 6, 62, 0
8, 89460, Note_on_c, 6, 63, 61
8, 89580, Note_on_c, 6, 63, 0
8, 93960, Note_on_c, 6, 59, 43
8, 94080, Note_on_c, 6, 59, 0
8, 94140, Note_on_c, 6, 59, 50
8, 94260, Note_on_c, 6, 59, 0
8, 94320, Note_on_c, 6, 59, 46
8, 94440, Note_on_c, 6, 59, 0
8, 94500, Note_on_c, 6, 66, 55
8, 94620, Note_on_c, 6, 66, 0
8, 94680, Note_on_c, 6, 66, 41
8, 94800, Note_on_c, 6, 66, 0
8, 94860, Note_on_c, 6, 66, 44
8, 94980, Note_on_c, 6, 66, 0
8, 95040, Note_on_c, 6, 66, 45
8, 95160, Note_on_c, 6, 66, 0
8, 95220, Note_on_c, 6, 67, 45
8, 95340, Note_on_c, 6, 67, 0
8, 95364, Control_c, 6, 7, 66
8, 95400, Note_on_c, 6, 65, 94
8, 95760, Note_on_c, 6, 65, 0
8, 95760, Note_on_c, 6, 63, 93
8, 96120, Note_on_c, 6, 63, 0
8, 96120, Note_on_c, 6, 63, 89
8, 96120, Control_c, 6, 7, 66
8, 96142, Control_c, 6, 7, 67
8, 96164, Control_c, 6, 7, 68
8, 96186, Control_c, 6, 7, 69
8, 96208, Control_c, 6, 7, 70
8, 96230, Control_c, 6, 7, 71
8, 96252, Control_c, 6, 7, 72
8, 96274, Control_c, 6, 7, 73
8, 96296, Control_c, 6, 7, 74
8, 96318, Control_c, 6, 7, 75
8, 96340, Control_c, 6, 7, 76
8, 96360, Control_c, 6, 7, 77
8, 96382, Control_c, 6, 7, 78
8, 96404, Control_c, 6, 7, 79
8, 96426, Control_c, 6, 7, 80
8, 96448, Control_c, 6, 7, 81
8, 96470, Control_c, 6, 7, 82
8, 96492, Control_c, 6, 7, 83
8, 96514, Control_c, 6, 7, 84
8, 96536, Control_c, 6, 7, 85
8, 96558, Control_c, 6, 7, 86
8, 96580, Control_c, 6, 7, 87
8, 96600, Control_c, 6, 7, 88
8, 96622, Control_c, 6, 7, 89
8, 96644, Control_c, 6, 7, 90
8, 96666, Control_c, 6, 7, 91
8, 96688, Control_c, 6, 7, 92
8, 96710, Control_c, 6, 7, 93
8, 96732, Control_c, 6, 7, 94
8, 96754, Control_c, 6, 7, 95
8, 96776, Control_c, 6, 7, 96
8, 96798, Control_c, 6, 7, 97
8, 96820, Control_c, 6, 7, 98
8, 96840, Note_on_c, 6, 63, 0
8, 96840, Note_on_c, 6, 62, 94
8, 96840, Control_c, 6, 7, 99
8, 96870, Note_on_c, 6, 62, 0
8, 96900, Note_on_c, 6, 58, 119
8, 96960, Note_on_c, 6, 58, 0
8, 97020, Note_on_c, 6, 62, 99
8, 97050, Note_on_c, 6, 62, 0
8, 97080, Note_on_c, 6, 58, 119
8, 97140, Note_on_c, 6, 58, 0
8, 97185, Note_on_c, 6, 60, 90
8, 97200, Note_on_c, 6, 60, 0
8, 97200, Note_on_c, 6, 58, 95
8, 97260, Note_on_c, 6, 58, 0
8, 97260, Note_on_c, 6, 57, 110
8, 97320, Note_on_c, 6, 57, 0
8, 97320, Note_on_c, 6, 58, 94
8, 97350, Note_on_c, 6, 58, 0
8, 97380, Note_on_c, 6, 60, 93
8, 97500, Note_on_c, 6, 60, 0
8, 97560, Note_on_c, 6, 60, 95
8, 97590, Note_on_c, 6, 60, 0
8, 97620, Note_on_c, 6, 57, 117
8, 97680, Note_on_c, 6, 57, 0
8, 97740, Note_on_c, 6, 60, 98
8, 97770, Note_on_c, 6, 60, 0
8, 97800, Note_on_c, 6, 57, 119
8, 97860, Note_on_c, 6, 57, 0
8, 97905, Note_on_c, 6, 62, 84
8, 97920, Note_on_c, 6, 62, 0
8, 97920, Note_on_c, 6, 60, 95
8, 97980, Note_on_c, 6, 60, 0
8, 97980, Note_on_c, 6, 58, 99
8, 98040, Note_on_c, 6, 58, 0
8, 98040, Note_on_c, 6, 60, 95
8, 98070, Note_on_c, 6, 60, 0
8, 98100, Note_on_c, 6, 62, 95
8, 98220, Note_on_c, 6, 62, 0
8, 98220, Note_on_c, 6, 58, 90
8, 98250, Note_on_c, 6, 58, 0
8, 98280, Note_on_c, 6, 58, 94
8, 98340, Note_on_c, 6, 58, 0
8, 98340, Note_on_c, 6, 67, 99
8, 98400, Note_on_c, 6, 67, 0
8, 98400, Note_on_c, 6, 67, 95
8, 98430, Note_on_c, 6, 67, 0
8, 98460, Note_on_c, 6, 67, 94
8, 98520, Note_on_c, 6, 67, 0
8, 98520, Note_on_c, 6, 65, 99
8, 98580, Note_on_c, 6, 65, 0
8, 98580, Note_on_c, 6, 58, 94
8, 98610, Note_on_c, 6, 58, 0
8, 98640, Note_on_c, 6, 58, 99
8, 98700, Note_on_c, 6, 58, 0
8, 98700, Note_on_c, 6, 67, 99
8, 98760, Note_on_c, 6, 67, 0
8, 98760, Note_on_c, 6, 67, 95
8, 98790, Note_on_c, 6, 67, 0
8, 98820, Note_on_c, 6, 67, 95
8, 98880, Note_on_c, 6, 67, 0
8, 98880, Note_on_c, 6, 65, 98
8, 98940, Note_on_c, 6, 65, 0
8, 98940, Note_on_c, 6, 65, 95
8, 98970, Note_on_c, 6, 65, 0
8, 99000, Note_on_c, 6, 65, 99
8, 99060, Note_on_c, 6, 65, 0
8, 99060, Note_on_c, 6, 64, 101
8, 99120, Note_on_c, 6, 64, 0
8, 99120, Note_on_c, 6, 63, 93
8, 99150, Note_on_c, 6, 63, 0
8, 99180, Note_on_c, 6, 63, 94
8, 99240, Note_on_c, 6, 63, 0
8, 99240, Note_on_c, 6, 62, 99
8, 99300, Note_on_c, 6, 62, 0
8, 99300, Note_on_c, 6, 61, 89
8, 99330, Note_on_c, 6, 61, 0
8, 99360, Note_on_c, 6, 61, 90
8, 99420, Note_on_c, 6, 61, 0
8, 99420, Note_on_c, 6, 62, 99
8, 99480, Note_on_c, 6, 62, 0
8, 99480, Note_on_c, 6, 62, 98
8, 99510, Note_on_c, 6, 62, 0
8, 99540, Note_on_c, 6, 62, 99
8, 99600, Note_on_c, 6, 62, 0
8, 99600, Note_on_c, 6, 63, 94
8, 99660, Note_on_c, 6, 63, 0
8, 99660, Note_on_c, 6, 60, 99
8, 99690, Note_on_c, 6, 60, 0
8, 99720, Note_on_c, 6, 58, 78
8, 99750, Note_on_c, 6, 58, 0
8, 99780, Note_on_c, 6, 62, 95
8, 100020, Note_on_c, 6, 62, 0
8, 100020, Note_on_c, 6, 58, 77
8, 100050, Note_on_c, 6, 58, 0
8, 100080, Note_on_c, 6, 57, 81
8, 100200, Note_on_c, 6, 57, 0
8, 100440, Note_on_c, 6, 58, 72
8, 100470, Note_on_c, 6, 58, 0
8, 100500, Note_on_c, 6, 62, 90
8, 100740, Note_on_c, 6, 62, 0
8, 100740, Note_on_c, 6, 58, 58
8, 100770, Note_on_c, 6, 58, 0
8, 100800, Note_on_c, 6, 57, 69
8, 100920, Note_on_c, 6, 57, 0
8, 101160, Note_on_c, 6, 58, 65
8, 101280, Note_on_c, 6, 58, 0
8, 102600, Note_on_c, 6, 58, 78
8, 102630, Note_on_c, 6, 58, 0
8, 102660, Note_on_c, 6, 62, 95
8, 102900, Note_on_c, 6, 62, 0
8, 102900, Note_on_c, 6, 58, 77
8, 102930, Note_on_c, 6, 58, 0
8, 102960, Note_on_c, 6, 57, 81
8, 103080, Note_on_c, 6, 57, 0
8, 103320, Note_on_c, 6, 58, 72
8, 103350, Note_on_c, 6, 58, 0
8, 103380, Note_on_c, 6, 62, 90
8, 103620, Note_on_c, 6, 62, 0
8, 103620, Note_on_c, 6, 58, 58
8, 103650, Note_on_c, 6, 58, 0
8, 103680, Note_on_c, 6, 57, 69
8, 103800, Note_on_c, 6, 57, 0
8, 104040, Note_on_c, 6, 58, 65
8, 104160, Note_on_c, 6, 58, 0
8, 105480, Note_on_c, 6, 74, 73
8, 105600, Note_on_c, 6, 74, 0
8, 105600, Note_on_c, 6, 71, 61
8, 105660, Note_on_c, 6, 71, 0
8, 105660, Note_on_c, 6, 72, 54
8, 105780, Note_on_c, 6, 72, 0
8, 105780, Note_on_c, 6, 69, 59
8, 105840, Note_on_c, 6, 69, 0
8, 106200, Note_on_c, 6, 74, 73
8, 106320, Note_on_c, 6, 74, 0
8, 106320, Note_on_c, 6, 71, 61
8, 106380, Note_on_c, 6, 71, 0
8, 106380, Note_on_c, 6, 72, 54
8, 106500, Note_on_c, 6, 72, 0
8, 106500, Note_on_c, 6, 69, 59
8, 106560, Note_on_c, 6, 69, 0
8, 106560, Note_on_c, 6, 62, 73
8, 106680, Note_on_c, 6, 62, 0
8, 106680, Note_on_c, 6, 59, 61
8, 106740, Note_on_c, 6, 59, 0
8, 106740, Note_on_c, 6, 60, 54
8, 106860, Note_on_c, 6, 60, 0
8, 106860, Note_on_c, 6, 57, 59
8, 106920, Note_on_c, 6, 57, 0
8, 106920, Note_on_c, 6, 58, 53
8, 106980, Note_on_c, 6, 58, 0
8, 106980, Note_on_c, 6, 62, 46
8, 107040, Note_on_c, 6, 62, 0
8, 107040, Note_on_c, 6, 62, 45
8, 107070, Note_on_c, 6, 62, 0
8, 107100, Note_on_c, 6, 58, 59
8, 107160, Note_on_c, 6, 58, 0
8, 107160, Note_on_c, 6, 62, 46
8, 107220, Note_on_c, 6, 62, 0
8, 107220, Note_on_c, 6, 62, 44
8, 107250, Note_on_c, 6, 62, 0
8, 107280, Note_on_c, 6, 60, 45
8, 107340, Note_on_c, 6, 60, 0
8, 107340, Note_on_c, 6, 63, 44
8, 107400, Note_on_c, 6, 63, 0
8, 107400, Note_on_c, 6, 63, 57
8, 107430, Note_on_c, 6, 63, 0
8, 107460, Note_on_c, 6, 60, 43
8, 107520, Note_on_c, 6, 60, 0
8, 107520, Note_on_c, 6, 63, 41
8, 107580, Note_on_c, 6, 63, 0
8, 107580, Note_on_c, 6, 63, 43
8, 107610, Note_on_c, 6, 63, 0
8, 107640, Note_on_c, 6, 58, 49
8, 107700, Note_on_c, 6, 58, 0
8, 107700, Note_on_c, 6, 62, 47
8, 107760, Note_on_c, 6, 62, 0
8, 107760, Note_on_c, 6, 62, 43
8, 107790, Note_on_c, 6, 62, 0
8, 107820, Note_on_c, 6, 58, 46
8, 107880, Note_on_c, 6, 58, 0
8, 107880, Note_on_c, 6, 62, 43
8, 107940, Note_on_c, 6, 62, 0
8, 107940, Note_on_c, 6, 62, 40
8, 107970, Note_on_c, 6, 62, 0
8, 108000, Note_on_c, 6, 57, 45
8, 108060, Note_on_c, 6, 57, 0
8, 108060, Note_on_c, 6, 63, 45
8, 108120, Note_on_c, 6, 63, 0
8, 108120, Note_on_c, 6, 63, 43
8, 108150, Note_on_c, 6, 63, 0
8, 108180, Note_on_c, 6, 57, 54
8, 108240, Note_on_c, 6, 57, 0
8, 108240, Note_on_c, 6, 63, 40
8, 108300, Note_on_c, 6, 63, 0
8, 108300, Note_on_c, 6, 63, 44
8, 108330, Note_on_c, 6, 63, 0
8, 108360, Note_on_c, 6, 62, 67
8, 108480, Note_on_c, 6, 62, 0
8, 108660, Note_on_c, 6, 58, 53
8, 108720, Note_on_c, 6, 58, 0
8, 108720, Note_on_c, 6, 57, 73
8, 108960, Note_on_c, 6, 57, 0
8, 108960, Note_on_c, 6, 55, 73
8, 109020, Note_on_c, 6, 55, 0
8, 109020, Note_on_c, 6, 57, 76
8, 109080, Note_on_c, 6, 57, 0
8, 109080, Note_on_c, 6, 58, 65
8, 109200, Note_on_c, 6, 58, 0
8, 109380, Note_on_c, 6, 62, 65
8, 109440, Note_on_c, 6, 62, 0
8, 109440, Note_on_c, 6, 65, 68
8, 109500, Note_on_c, 6, 65, 0
8, 109500, Note_on_c, 6, 63, 67
8, 109560, Note_on_c, 6, 63, 0
8, 109560, Note_on_c, 6, 62, 53
8, 109590, Note_on_c, 6, 62, 0
8, 109605, Note_on_c, 6, 62, 73
8, 109620, Note_on_c, 6, 62, 0
8, 109620, Note_on_c, 6, 60, 76
8, 109680, Note_on_c, 6, 60, 0
8, 109680, Note_on_c, 6, 58, 71
8, 109740, Note_on_c, 6, 58, 0
8, 109740, Note_on_c, 6, 60, 74
8, 109770, Note_on_c, 6, 60, 0
8, 109800, Note_on_c, 6, 58, 73
8, 109920, Note_on_c, 6, 58, 0
8, 109980, Note_on_c, 6, 58, 41
8, 110100, Note_on_c, 6, 58, 0
8, 110700, Note_on_c, 6, 58, 40
8, 110820, Note_on_c, 6, 58, 0
8, 111420, Note_on_c, 6, 62, 35
8, 111540, Note_on_c, 6, 62, 0
8, 114960, Program_c, 6, 45
8, 115200, Note_on_c, 6, 67, 57
8, 115320, Note_on_c, 6, 67, 0
8, 115560, Note_on_c, 6, 60, 46
8, 115680, Note_on_c, 6, 60, 0
8, 115680, Program_c, 6, 48
8, 115920, Note_on_c, 6, 81, 98
8, 115920, Note_on_c, 6, 72, 68
8, 115920, Note_on_c, 6, 65, 99
8, 116040, Note_on_c, 6, 65, 0
8, 116040, Note_on_c, 6, 72, 0
8, 116040, Note_on_c, 6, 81, 0
8, 116280, Note_on_c, 6, 82, 95
8, 116280, Note_on_c, 6, 70, 89
8, 116280, Note_on_c, 6, 62, 94
8, 116340, Note_on_c, 6, 62, 0
8, 116340, Note_on_c, 6, 70, 0
8, 116340, Note_on_c, 6, 82, 0
8, 116340, Note_on_c, 6, 62, 85
8, 116340, Note_on_c, 6, 58, 94
8, 116400, Note_on_c, 6, 58, 0
8, 116400, Note_on_c, 6, 62, 0
8, 116400, Note_on_c, 6, 62, 84
8, 116400, Note_on_c, 6, 58, 90
8, 116460, Note_on_c, 6, 58, 0
8, 116460, Note_on_c, 6, 62, 0
8, 116460, Note_on_c, 6, 62, 86
8, 116460, Note_on_c, 6, 58, 89
8, 116520, Note_on_c, 6, 58, 0
8, 116520, Note_on_c, 6, 62, 0
8, 116520, Note_on_c, 6, 62, 80
8, 116520, Note_on_c, 6, 58, 84
8, 116580, Note_on_c, 6, 58, 0
8, 116580, Note_on_c, 6, 62, 0
8, 116580, Note_on_c, 6, 62, 84
8, 116580, Note_on_c, 6, 58, 86
8, 116640, Note_on_c, 6, 58, 0
8, 116640, Note_on_c, 6, 62, 0
8, 116640, Note_on_c, 6, 62, 94
8, 116640, Note_on_c, 6, 58, 93
8, 116700, Note_on_c, 6, 58, 0
8, 116700, Note_on_c, 6, 62, 0
8, 116700, Note_on_c, 6, 74, 99
8, 116700, Note_on_c, 6, 65, 89
8, 116760, Note_on_c, 6, 65, 0
8, 116760, Note_on_c, 6, 74, 0
8, 116760, Note_on_c, 6, 74, 95
8, 116760, Note_on_c, 6, 65, 89
8, 116820, Note_on_c, 6, 65, 0
8, 116820, Note_on_c, 6, 74, 0
8, 116820, Note_on_c, 6, 74, 101
8, 116820, Note_on_c, 6, 65, 94
8, 116880, Note_on_c, 6, 65, 0
8, 116880, Note_on_c, 6, 74, 0
8, 116880, Note_on_c, 6, 74, 99
8, 116880, Note_on_c, 6, 65, 93
8, 116940, Note_on_c, 6, 65, 0
8, 116940, Note_on_c, 6, 74, 0
8, 116940, Note_on_c, 6, 74, 104
8, 116940, Note_on_c, 6, 65, 94
8, 117000, Note_on_c, 6, 65, 0
8, 117000, Note_on_c, 6, 74, 0
8, 117000, Note_on_c, 6, 74, 95
8, 117000, Note_on_c, 6, 65, 104
8, 117120, Note_on_c, 6, 65, 0
8, 117120, Note_on_c, 6, 74, 0
8, 117180, Note_on_c, 6, 70, 82
8, 117180, Note_on_c, 6, 62, 98
8, 117300, Note_on_c, 6, 62, 0
8, 117300, Note_on_c, 6, 70, 0
8, 117360, Note_on_c, 6, 58, 89
8, 117480, Note_on_c, 6, 58, 0
8, 117490, Control_c, 6, 7, 99
8, 117490, Control_c, 6, 10, 10
8, 117490, Control_c, 6, 93, 0
8, 117490, Control_c, 6, 91, 66
8, 117490, End_track
9, 0, Start_track
9, 0, Title_t, "Violas"
9, 0, Program_c, 7, 48
9, 0, Control_c, 7, 7, 115
9, 0, Control_c, 7, 10, 79
9, 2880, Note_on_c, 7, 58, 89
9, 2910, Note_on_c, 7, 58, 0
9, 2940, Note_on_c, 7, 62, 98
9, 2970, Note_on_c, 7, 62, 0
9, 3000, Note_on_c, 7, 65, 81
9, 3030, Note_on_c, 7, 65, 0
9, 3060, Note_on_c, 7, 58, 89
9, 3090, Note_on_c, 7, 58, 0
9, 3120, Note_on_c, 7, 62, 99
9, 3150, Note_on_c, 7, 62, 0
9, 3180, Note_on_c, 7, 65, 74
9, 3210, Note_on_c, 7, 65, 0
9, 3240, Note_on_c, 7, 62, 89
9, 3300, Note_on_c, 7, 62, 0
9, 3300, Note_on_c, 7, 60, 94
9, 3360, Note_on_c, 7, 60, 0
9, 3360, Note_on_c, 7, 58, 89
9, 3390, Note_on_c, 7, 58, 0
9, 3420, Note_on_c, 7, 57, 82
9, 3450, Note_on_c, 7, 57, 0
9, 3480, Note_on_c, 7, 55, 89
9, 3510, Note_on_c, 7, 55, 0
9, 3540, Note_on_c, 7, 53, 89
9, 3570, Note_on_c, 7, 53, 0
9, 3600, Note_on_c, 7, 53, 93
9, 3660, Note_on_c, 7, 53, 0
9, 3660, Note_on_c, 7, 65, 73
9, 3720, Note_on_c, 7, 65, 0
9, 3720, Note_on_c, 7, 65, 77
9, 3780, Note_on_c, 7, 65, 0
9, 3780, Note_on_c, 7, 53, 94
9, 3840, Note_on_c, 7, 53, 0
9, 3840, Note_on_c, 7, 65, 76
9, 3900, Note_on_c, 7, 65, 0
9, 3900, Note_on_c, 7, 65, 78
9, 3960, Note_on_c, 7, 65, 0
9, 3960, Note_on_c, 7, 63, 86
9, 4020, Note_on_c, 7, 63, 0
9, 4020, Note_on_c, 7, 62, 99
9, 4080, Note_on_c, 7, 62, 0
9, 4080, Note_on_c, 7, 60, 94
9, 4110, Note_on_c, 7, 60, 0
9, 4140, Note_on_c, 7, 58, 93
9, 4170, Note_on_c, 7, 58, 0
9, 4200, Note_on_c, 7, 60, 94
9, 4230, Note_on_c, 7, 60, 0
9, 4260, Note_on_c, 7, 62, 104
9, 4290, Note_on_c, 7, 62, 0
9, 4320, Note_on_c, 7, 63, 80
9, 4380, Note_on_c, 7, 63, 0
9, 4380, Note_on_c, 7, 58, 84
9, 4440, Note_on_c, 7, 58, 0
9, 4440, Note_on_c, 7, 63, 78
9, 4470, Note_on_c, 7, 63, 0
9, 4500, Note_on_c, 7, 62, 84
9, 4560, Note_on_c, 7, 62, 0
9, 4560, Note_on_c, 7, 58, 81
9, 4620, Note_on_c, 7, 58, 0
9, 4620, Note_on_c, 7, 62, 89
9, 4650, Note_on_c, 7, 62, 0
9, 4680, Note_on_c, 7, 63, 80
9, 4740, Note_on_c, 7, 63, 0
9, 4740, Note_on_c, 7, 58, 86
9, 4800, Note_on_c, 7, 58, 0
9, 4800, Note_on_c, 7, 63, 80
9, 4830, Note_on_c, 7, 63, 0
9, 4860, Note_on_c, 7, 62, 86
9, 4920, Note_on_c, 7, 62, 0
9, 4920, Note_on_c, 7, 60, 93
9, 4980, Note_on_c, 7, 60, 0
9, 4980, Note_on_c, 7, 62, 80
9, 5010, Note_on_c, 7, 62, 0
9, 5040, Note_on_c, 7, 55, 82
9, 5100, Note_on_c, 7, 55, 0
9, 5100, Note_on_c, 7, 58, 77
9, 5160, Note_on_c, 7, 58, 0
9, 5160, Note_on_c, 7, 60, 76
9, 5190, Note_on_c, 7, 60, 0
9, 5220, Note_on_c, 7, 53, 80
9, 5280, Note_on_c, 7, 53, 0
9, 5280, Note_on_c, 7, 58, 77
9, 5340, Note_on_c, 7, 58, 0
9, 5340, Note_on_c, 7, 58, 76
9, 5370, Note_on_c, 7, 58, 0
9, 5400, Note_on_c, 7, 58, 81
9, 5460, Note_on_c, 7, 58, 0
9, 5460, Note_on_c, 7, 58, 76
9, 5520, Note_on_c, 7, 58, 0
9, 5520, Note_on_c, 7, 58, 80
9, 5580, Note_on_c, 7, 58, 0
9, 5580, Note_on_c, 7, 58, 81
9, 5640, Note_on_c, 7, 58, 0
9, 5640, Note_on_c, 7, 60, 59
9, 5700, Note_on_c, 7, 60, 0
9, 5700, Note_on_c, 7, 57, 86
9, 5730, Note_on_c, 7, 57, 0
9, 5760, Note_on_c, 7, 58, 84
9, 5880, Note_on_c, 7, 58, 0
9, 6180, Note_on_c, 7, 53, 76
9, 6210, Note_on_c, 7, 53, 0
9, 6240, Note_on_c, 7, 54, 57
9, 6270, Note_on_c, 7, 54, 0
9, 6300, Note_on_c, 7, 55, 80
9, 6330, Note_on_c, 7, 55, 0
9, 6360, Note_on_c, 7, 56, 76
9, 6390, Note_on_c, 7, 56, 0
9, 6420, Note_on_c, 7, 57, 76
9, 6450, Note_on_c, 7, 57, 0
9, 6480, Note_on_c, 7, 58, 95
9, 6510, Note_on_c, 7, 58, 0
9, 6540, Note_on_c, 7, 58, 86
9, 6570, Note_on_c, 7, 58, 0
9, 6600, Note_on_c, 7, 60, 95
9, 6630, Note_on_c, 7, 60, 0
9, 6660, Note_on_c, 7, 62, 89
9, 6690, Note_on_c, 7, 62, 0
9, 6720, Note_on_c, 7, 63, 90
9, 6750, Note_on_c, 7, 63, 0
9, 6780, Note_on_c, 7, 64, 101
9, 6810, Note_on_c, 7, 64, 0
9, 6840, Note_on_c, 7, 65, 89
9, 6870, Note_on_c, 7, 65, 0
9, 6900, Note_on_c, 7, 63, 90
9, 6930, Note_on_c, 7, 63, 0
9, 6960, Note_on_c, 7, 62, 89
9, 6990, Note_on_c, 7, 62, 0
9, 7020, Note_on_c, 7, 60, 95
9, 7050, Note_on_c, 7, 60, 0
9, 7080, Note_on_c, 7, 58, 89
9, 7110, Note_on_c, 7, 58, 0
9, 7140, Note_on_c, 7, 57, 105
9, 7170, Note_on_c, 7, 57, 0
9, 7200, Note_on_c, 7, 58, 90
9, 7320, Note_on_c, 7, 58, 0
9, 7380, Note_on_c, 7, 70, 85
9, 7380, Note_on_c, 7, 65, 99
9, 7380, Note_on_c, 7, 58, 94
9, 7500, Note_on_c, 7, 58, 0
9, 7500, Note_on_c, 7, 65, 0
9, 7500, Note_on_c, 7, 70, 0
9, 7560, Note_on_c, 7, 58, 86
9, 7680, Note_on_c, 7, 58, 0
9, 7920, Note_on_c, 7, 70, 95
9, 8280, Note_on_c, 7, 70, 0
9, 8280, Note_on_c, 7, 65, 94
9, 8460, Note_on_c, 7, 65, 0
9, 8460, Note_on_c, 7, 62, 86
9, 8640, Note_on_c, 7, 62, 0
9, 8640, Note_on_c, 7, 58, 99
9, 8820, Note_on_c, 7, 58, 0
9, 8820, Note_on_c, 7, 67, 86
9, 9000, Note_on_c, 7, 67, 0
9, 9000, Note_on_c, 7, 62, 90
9, 9180, Note_on_c, 7, 62, 0
9, 9180, Note_on_c, 7, 64, 95
9, 9360, Note_on_c, 7, 64, 0
9, 9360, Note_on_c, 7, 65, 90
9, 9480, Note_on_c, 7, 65, 0
9, 10080, Note_on_c, 7, 65, 95
9, 10440, Note_on_c, 7, 65, 0
9, 10440, Note_on_c, 7, 72, 99
9, 10620, Note_on_c, 7, 72, 0
9, 10620, Note_on_c, 7, 69, 86
9, 10800, Note_on_c, 7, 69, 0
9, 10800, Note_on_c, 7, 65, 94
9, 10980, Note_on_c, 7, 65, 0
9, 10980, Note_on_c, 7, 62, 84
9, 11160, Note_on_c, 7, 62, 0
9, 11160, Note_on_c, 7, 57, 82
9, 11340, Note_on_c, 7, 57, 0
9, 11340, Note_on_c, 7, 59, 89
9, 11520, Note_on_c, 7, 59, 0
9, 11520, Note_on_c, 7, 60, 90
9, 11640, Note_on_c, 7, 60, 0
9, 14400, Note_on_c, 7, 60, 71
9, 14520, Note_on_c, 7, 60, 0
9, 14760, Note_on_c, 7, 59, 72
9, 14820, Note_on_c, 7, 59, 0
9, 14820, Note_on_c, 7, 59, 64
9, 14880, Note_on_c, 7, 59, 0
9, 14880, Note_on_c, 7, 59, 65
9, 14940, Note_on_c, 7, 59, 0
9, 14940, Note_on_c, 7, 59, 62
9, 15000, Note_on_c, 7, 59, 0
9, 15000, Note_on_c, 7, 59, 61
9, 15060, Note_on_c, 7, 59, 0
9, 15060, Note_on_c, 7, 59, 73
9, 15120, Note_on_c, 7, 59, 0
9, 15120, Note_on_c, 7, 60, 70
9, 15240, Note_on_c, 7, 60, 0
9, 15480, Note_on_c, 7, 67, 60
9, 15540, Note_on_c, 7, 67, 0
9, 15540, Note_on_c, 7, 67, 54
9, 15600, Note_on_c, 7, 67, 0
9, 15600, Note_on_c, 7, 67, 53
9, 15660, Note_on_c, 7, 67, 0
9, 15660, Note_on_c, 7, 67, 52
9, 15720, Note_on_c, 7, 67, 0
9, 15720, Note_on_c, 7, 67, 62
9, 15780, Note_on_c, 7, 67, 0
9, 15780, Note_on_c, 7, 67, 65
9, 15840, Note_on_c, 7, 67, 0
9, 15840, Note_on_c, 7, 67, 60
9, 15960, Note_on_c, 7, 67, 0
9, 16200, Note_on_c, 7, 60, 51
9, 16320, Note_on_c, 7, 60, 0
9, 16560, Note_on_c, 7, 60, 70
9, 16680, Note_on_c, 7, 60, 0
9, 20160, Note_on_c, 7, 65, 64
9, 20280, Note_on_c, 7, 65, 0
9, 20340, Note_on_c, 7, 64, 80
9, 20460, Note_on_c, 7, 64, 0
9, 20520, Note_on_c, 7, 62, 86
9, 20640, Note_on_c, 7, 62, 0
9, 20700, Note_on_c, 7, 58, 101
9, 20880, Note_on_c, 7, 58, 0
9, 21600, Note_on_c, 7, 65, 63
9, 21720, Note_on_c, 7, 65, 0
9, 21780, Note_on_c, 7, 64, 82
9, 21900, Note_on_c, 7, 64, 0
9, 21960, Note_on_c, 7, 62, 95
9, 22080, Note_on_c, 7, 62, 0
9, 22140, Note_on_c, 7, 74, 94
9, 22140, Note_on_c, 7, 62, 90
9, 22320, Note_on_c, 7, 62, 0
9, 22320, Note_on_c, 7, 74, 0
9, 23040, Note_on_c, 7, 52, 93
9, 23100, Note_on_c, 7, 52, 0
9, 23100, Note_on_c, 7, 48, 86
9, 23160, Note_on_c, 7, 48, 0
9, 23160, Note_on_c, 7, 48, 86
9, 23190, Note_on_c, 7, 48, 0
9, 23220, Note_on_c, 7, 52, 94
9, 23280, Note_on_c, 7, 52, 0
9, 23280, Note_on_c, 7, 48, 93
9, 23340, Note_on_c, 7, 48, 0
9, 23340, Note_on_c, 7, 48, 93
9, 23370, Note_on_c, 7, 48, 0
9, 23400, Note_on_c, 7, 53, 82
9, 23460, Note_on_c, 7, 53, 0
9, 23460, Note_on_c, 7, 48, 84
9, 23520, Note_on_c, 7, 48, 0
9, 23520, Note_on_c, 7, 48, 90
9, 23550, Note_on_c, 7, 48, 0
9, 23580, Note_on_c, 7, 53, 84
9, 23640, Note_on_c, 7, 53, 0
9, 23640, Note_on_c, 7, 48, 86
9, 23700, Note_on_c, 7, 48, 0
9, 23700, Note_on_c, 7, 48, 89
9, 23730, Note_on_c, 7, 48, 0
9, 23760, Note_on_c, 7, 60, 43
9, 23880, Note_on_c, 7, 60, 0
9, 23940, Note_on_c, 7, 60, 61
9, 24060, Note_on_c, 7, 60, 0
9, 24120, Note_on_c, 7, 60, 45
9, 24240, Note_on_c, 7, 60, 0
9, 24480, Note_on_c, 7, 52, 93
9, 24540, Note_on_c, 7, 52, 0
9, 24540, Note_on_c, 7, 48, 86
9, 24600, Note_on_c, 7, 48, 0
9, 24600, Note_on_c, 7, 48, 86
9, 24630, Note_on_c, 7, 48, 0
9, 24660, Note_on_c, 7, 52, 94
9, 24720, Note_on_c, 7, 52, 0
9, 24720, Note_on_c, 7, 48, 93
9, 24780, Note_on_c, 7, 48, 0
9, 24780, Note_on_c, 7, 48, 93
9, 24810, Note_on_c, 7, 48, 0
9, 24840, Note_on_c, 7, 53, 82
9, 24900, Note_on_c, 7, 53, 0
9, 24900, Note_on_c, 7, 48, 84
9, 24960, Note_on_c, 7, 48, 0
9, 24960, Note_on_c, 7, 48, 90
9, 24990, Note_on_c, 7, 48, 0
9, 25020, Note_on_c, 7, 53, 84
9, 25080, Note_on_c, 7, 53, 0
9, 25080, Note_on_c, 7, 48, 86
9, 25140, Note_on_c, 7, 48, 0
9, 25140, Note_on_c, 7, 48, 89
9, 25170, Note_on_c, 7, 48, 0
9, 25200, Note_on_c, 7, 60, 43
9, 25320, Note_on_c, 7, 60, 0
9, 25380, Note_on_c, 7, 60, 61
9, 25500, Note_on_c, 7, 60, 0
9, 25560, Note_on_c, 7, 60, 45
9, 25680, Note_on_c, 7, 60, 0
9, 27000, Note_on_c, 7, 70, 66
9, 27120, Note_on_c, 7, 70, 0
9, 27180, Note_on_c, 7, 70, 60
9, 27300, Note_on_c, 7, 70, 0
9, 27360, Note_on_c, 7, 72, 58
9, 27480, Note_on_c, 7, 72, 0
9, 27540, Note_on_c, 7, 60, 58
9, 27660, Note_on_c, 7, 60, 0
9, 29160, Note_on_c, 7, 58, 61
9, 29280, Note_on_c, 7, 58, 0
9, 29520, Note_on_c, 7, 62, 66
9, 29640, Note_on_c, 7, 62, 0
9, 29880, Note_on_c, 7, 62, 63
9, 30000, Note_on_c, 7, 62, 0
9, 30600, Note_on_c, 7, 60, 50
9, 30720, Note_on_c, 7, 60, 0
9, 30960, Note_on_c, 7, 63, 46
9, 31080, Note_on_c, 7, 63, 0
9, 31320, Note_on_c, 7, 63, 53
9, 31440, Note_on_c, 7, 63, 0
9, 37080, Note_on_c, 7, 58, 89
9, 37110, Note_on_c, 7, 58, 0
9, 37140, Note_on_c, 7, 62, 98
9, 37170, Note_on_c, 7, 62, 0
9, 37200, Note_on_c, 7, 65, 81
9, 37230, Note_on_c, 7, 65, 0
9, 37260, Note_on_c, 7, 58, 89
9, 37290, Note_on_c, 7, 58, 0
9, 37320, Note_on_c, 7, 62, 99
9, 37350, Note_on_c, 7, 62, 0
9, 37380, Note_on_c, 7, 65, 74
9, 37410, Note_on_c, 7, 65, 0
9, 37440, Note_on_c, 7, 62, 89
9, 37500, Note_on_c, 7, 62, 0
9, 37500, Note_on_c, 7, 60, 94
9, 37560, Note_on_c, 7, 60, 0
9, 37560, Note_on_c, 7, 58, 89
9, 37590, Note_on_c, 7, 58, 0
9, 37620, Note_on_c, 7, 57, 82
9, 37650, Note_on_c, 7, 57, 0
9, 37680, Note_on_c, 7, 55, 89
9, 37710, Note_on_c, 7, 55, 0
9, 37740, Note_on_c, 7, 53, 89
9, 37770, Note_on_c, 7, 53, 0
9, 37800, Note_on_c, 7, 53, 93
9, 37860, Note_on_c, 7, 53, 0
9, 37860, Note_on_c, 7, 65, 73
9, 37920, Note_on_c, 7, 65, 0
9, 37920, Note_on_c, 7, 65, 77
9, 37980, Note_on_c, 7, 65, 0
9, 37980, Note_on_c, 7, 53, 94
9, 38040, Note_on_c, 7, 53, 0
9, 38040, Note_on_c, 7, 65, 76
9, 38100, Note_on_c, 7, 65, 0
9, 38100, Note_on_c, 7, 65, 78
9, 38160, Note_on_c, 7, 65, 0
9, 38160, Note_on_c, 7, 63, 86
9, 38220, Note_on_c, 7, 63, 0
9, 38220, Note_on_c, 7, 62, 99
9, 38280, Note_on_c, 7, 62, 0
9, 38280, Note_on_c, 7, 60, 94
9, 38310, Note_on_c, 7, 60, 0
9, 38340, Note_on_c, 7, 58, 93
9, 38370, Note_on_c, 7, 58, 0
9, 38400, Note_on_c, 7, 60, 94
9, 38430, Note_on_c, 7, 60, 0
9, 38460, Note_on_c, 7, 62, 104
9, 38490, Note_on_c, 7, 62, 0
9, 38520, Note_on_c, 7, 63, 80
9, 38580, Note_on_c, 7, 63, 0
9, 38580, Note_on_c, 7, 58, 84
9, 38640, Note_on_c, 7, 58, 0
9, 38640, Note_on_c, 7, 63, 78
9, 38670, Note_on_c, 7, 63, 0
9, 38700, Note_on_c, 7, 62, 84
9, 38760, Note_on_c, 7, 62, 0
9, 38760, Note_on_c, 7, 58, 81
9, 38820, Note_on_c, 7, 58, 0
9, 38820, Note_on_c, 7, 62, 89
9, 38850, Note_on_c, 7, 62, 0
9, 38880, Note_on_c, 7, 63, 80
9, 38940, Note_on_c, 7, 63, 0
9, 38940, Note_on_c, 7, 58, 86
9, 39000, Note_on_c, 7, 58, 0
9, 39000, Note_on_c, 7, 63, 80
9, 39030, Note_on_c, 7, 63, 0
9, 39060, Note_on_c, 7, 62, 86
9, 39120, Note_on_c, 7, 62, 0
9, 39120, Note_on_c, 7, 60, 93
9, 39180, Note_on_c, 7, 60, 0
9, 39180, Note_on_c, 7, 62, 80
9, 39210, Note_on_c, 7, 62, 0
9, 39240, Note_on_c, 7, 55, 82
9, 39300, Note_on_c, 7, 55, 0
9, 39300, Note_on_c, 7, 58, 77
9, 39360, Note_on_c, 7, 58, 0
9, 39360, Note_on_c, 7, 60, 76
9, 39390, Note_on_c, 7, 60, 0
9, 39420, Note_on_c, 7, 53, 80
9, 39480, Note_on_c, 7, 53, 0
9, 39480, Note_on_c, 7, 58, 77
9, 39540, Note_on_c, 7, 58, 0
9, 39540, Note_on_c, 7, 58, 76
9, 39570, Note_on_c, 7, 58, 0
9, 39600, Note_on_c, 7, 58, 81
9, 39660, Note_on_c, 7, 58, 0
9, 39660, Note_on_c, 7, 58, 76
9, 39720, Note_on_c, 7, 58, 0
9, 39720, Note_on_c, 7, 58, 80
9, 39780, Note_on_c, 7, 58, 0
9, 39780, Note_on_c, 7, 58, 81
9, 39840, Note_on_c, 7, 58, 0
9, 39840, Note_on_c, 7, 60, 59
9, 39900, Note_on_c, 7, 60, 0
9, 39900, Note_on_c, 7, 57, 86
9, 39930, Note_on_c, 7, 57, 0
9, 39960, Note_on_c, 7, 58, 84
9, 40080, Note_on_c, 7, 58, 0
9, 40380, Note_on_c, 7, 53, 76
9, 40410, Note_on_c, 7, 53, 0
9, 40440, Note_on_c, 7, 54, 57
9, 40470, Note_on_c, 7, 54, 0
9, 40500, Note_on_c, 7, 55, 80
9, 40530, Note_on_c, 7, 55, 0
9, 40560, Note_on_c, 7, 56, 76
9, 40590, Note_on_c, 7, 56, 0
9, 40620, Note_on_c, 7, 57, 76
9, 40650, Note_on_c, 7, 57, 0
9, 40680, Note_on_c, 7, 58, 95
9, 40710, Note_on_c, 7, 58, 0
9, 40740, Note_on_c, 7, 58, 86
9, 40770, Note_on_c, 7, 58, 0
9, 40800, Note_on_c, 7, 60, 95
9, 40830, Note_on_c, 7, 60, 0
9, 40860, Note_on_c, 7, 62, 89
9, 40890, Note_on_c, 7, 62, 0
9, 40920, Note_on_c, 7, 63, 90
9, 40950, Note_on_c, 7, 63, 0
9, 40980, Note_on_c, 7, 64, 101
9, 41010, Note_on_c, 7, 64, 0
9, 41040, Note_on_c, 7, 65, 89
9, 41070, Note_on_c, 7, 65, 0
9, 41100, Note_on_c, 7, 63, 90
9, 41130, Note_on_c, 7, 63, 0
9, 41160, Note_on_c, 7, 62, 89
9, 41190, Note_on_c, 7, 62, 0
9, 41220, Note_on_c, 7, 60, 95
9, 41250, Note_on_c, 7, 60, 0
9, 41280, Note_on_c, 7, 58, 89
9, 41310, Note_on_c, 7, 58, 0
9, 41340, Note_on_c, 7, 57, 105
9, 41370, Note_on_c, 7, 57, 0
9, 41400, Note_on_c, 7, 70, 89
9, 41430, Note_on_c, 7, 70, 0
9, 41460, Note_on_c, 7, 74, 99
9, 41700, Note_on_c, 7, 74, 0
9, 41700, Note_on_c, 7, 67, 84
9, 41730, Note_on_c, 7, 67, 0
9, 41760, Note_on_c, 7, 66, 81
9, 41790, Note_on_c, 7, 66, 0
9, 41820, Note_on_c, 7, 74, 104
9, 42060, Note_on_c, 7, 74, 0
9, 42060, Note_on_c, 7, 72, 93
9, 42090, Note_on_c, 7, 72, 0
9, 42120, Note_on_c, 7, 70, 89
9, 42150, Note_on_c, 7, 70, 0
9, 42180, Note_on_c, 7, 67, 89
9, 42210, Note_on_c, 7, 67, 0
9, 42240, Note_on_c, 7, 69, 104
9, 42270, Note_on_c, 7, 69, 0
9, 42300, Note_on_c, 7, 70, 89
9, 42330, Note_on_c, 7, 70, 0
9, 42360, Note_on_c, 7, 72, 89
9, 42390, Note_on_c, 7, 72, 0
9, 42420, Note_on_c, 7, 74, 80
9, 42450, Note_on_c, 7, 74, 0
9, 42480, Note_on_c, 7, 55, 82
9, 42510, Note_on_c, 7, 55, 0
9, 42540, Note_on_c, 7, 67, 73
9, 42600, Note_on_c, 7, 67, 0
9, 42600, Note_on_c, 7, 67, 76
9, 42660, Note_on_c, 7, 67, 0
9, 42660, Note_on_c, 7, 67, 73
9, 42720, Note_on_c, 7, 67, 0
9, 42720, Note_on_c, 7, 67, 80
9, 42780, Note_on_c, 7, 67, 0
9, 42780, Note_on_c, 7, 67, 81
9, 42840, Note_on_c, 7, 67, 0
9, 42840, Note_on_c, 7, 66, 78
9, 42960, Note_on_c, 7, 66, 0
9, 43200, Note_on_c, 7, 62, 99
9, 43320, Note_on_c, 7, 62, 0
9, 43320, Note_on_c, 7, 60, 94
9, 43350, Note_on_c, 7, 60, 0
9, 43380, Note_on_c, 7, 58, 85
9, 43410, Note_on_c, 7, 58, 0
9, 43440, Note_on_c, 7, 57, 99
9, 43470, Note_on_c, 7, 57, 0
9, 43500, Note_on_c, 7, 55, 93
9, 43530, Note_on_c, 7, 55, 0
9, 43560, Note_on_c, 7, 50, 98
9, 43680, Note_on_c, 7, 50, 0
9, 43920, Note_on_c, 7, 62, 105
9, 44040, Note_on_c, 7, 62, 0
9, 44040, Note_on_c, 7, 60, 95
9, 44070, Note_on_c, 7, 60, 0
9, 44100, Note_on_c, 7, 58, 89
9, 44130, Note_on_c, 7, 58, 0
9, 44160, Note_on_c, 7, 57, 99
9, 44190, Note_on_c, 7, 57, 0
9, 44220, Note_on_c, 7, 55, 95
9, 44250, Note_on_c, 7, 55, 0
9, 44280, Note_on_c, 7, 50, 98
9, 44310, Note_on_c, 7, 50, 0
9, 44340, Note_on_c, 7, 62, 104
9, 44400, Note_on_c, 7, 62, 0
9, 44400, Note_on_c, 7, 61, 98
9, 44460, Note_on_c, 7, 61, 0
9, 44460, Note_on_c, 7, 62, 101
9, 44490, Note_on_c, 7, 62, 0
9, 44520, Note_on_c, 7, 62, 104
9, 44580, Note_on_c, 7, 62, 0
9, 44580, Note_on_c, 7, 61, 94
9, 44640, Note_on_c, 7, 61, 0
9, 44640, Note_on_c, 7, 62, 104
9, 44670, Note_on_c, 7, 62, 0
9, 44700, Note_on_c, 7, 62, 104
9, 44760, Note_on_c, 7, 62, 0
9, 44760, Note_on_c, 7, 61, 94
9, 44820, Note_on_c, 7, 61, 0
9, 44820, Note_on_c, 7, 60, 104
9, 44850, Note_on_c, 7, 60, 0
9, 44880, Note_on_c, 7, 58, 99
9, 44910, Note_on_c, 7, 58, 0
9, 44940, Note_on_c, 7, 57, 115
9, 44970, Note_on_c, 7, 57, 0
9, 45000, Note_on_c, 7, 55, 71
9, 45120, Note_on_c, 7, 55, 0
9, 45180, Program_c, 7, 45
9, 45360, Note_on_c, 7, 58, 76
9, 45480, Note_on_c, 7, 58, 0
9, 45540, Note_on_c, 7, 55, 62
9, 45660, Note_on_c, 7, 55, 0
9, 45720, Note_on_c, 7, 54, 72
9, 45840, Note_on_c, 7, 54, 0
9, 45900, Note_on_c, 7, 55, 67
9, 46020, Note_on_c, 7, 55, 0
9, 46080, Note_on_c, 7, 54, 53
9, 46200, Note_on_c, 7, 54, 0
9, 46260, Note_on_c, 7, 55, 68
9, 46380, Note_on_c, 7, 55, 0
9, 46440, Note_on_c, 7, 57, 73
9, 46560, Note_on_c, 7, 57, 0
9, 46620, Note_on_c, 7, 57, 72
9, 46740, Note_on_c, 7, 57, 0
9, 46800, Note_on_c, 7, 50, 64
9, 46920, Note_on_c, 7, 50, 0
9, 46980, Note_on_c, 7, 57, 68
9, 47100, Note_on_c, 7, 57, 0
9, 47160, Note_on_c, 7, 62, 64
9, 47280, Note_on_c, 7, 62, 0
9, 47340, Note_on_c, 7, 57, 86
9, 47460, Note_on_c, 7, 57, 0
9, 47520, Note_on_c, 7, 50, 74
9, 47640, Note_on_c, 7, 50, 0
9, 48240, Note_on_c, 7, 55, 73
9, 48360, Note_on_c, 7, 55, 0
9, 48960, Note_on_c, 7, 60, 78
9, 49080, Note_on_c, 7, 60, 0
9, 49140, Note_on_c, 7, 67, 68
9, 49260, Note_on_c, 7, 67, 0
9, 49320, Note_on_c, 7, 63, 52
9, 49440, Note_on_c, 7, 63, 0
9, 49500, Note_on_c, 7, 60, 52
9, 49620, Note_on_c, 7, 60, 0
9, 49680, Note_on_c, 7, 59, 74
9, 49800, Note_on_c, 7, 59, 0
9, 49860, Note_on_c, 7, 60, 65
9, 49980, Note_on_c, 7, 60, 0
9, 50040, Note_on_c, 7, 59, 67
9, 50160, Note_on_c, 7, 59, 0
9, 50220, Note_on_c, 7, 60, 52
9, 50340, Note_on_c, 7, 60, 0
9, 50400, Note_on_c, 7, 65, 65
9, 50520, Note_on_c, 7, 65, 0
9, 50580, Note_on_c, 7, 67, 63
9, 50700, Note_on_c, 7, 67, 0
9, 50760, Note_on_c, 7, 63, 56
9, 50880, Note_on_c, 7, 63, 0
9, 50940, Note_on_c, 7, 68, 69
9, 51060, Note_on_c, 7, 68, 0
9, 51120, Note_on_c, 7, 65, 68
9, 51240, Note_on_c, 7, 65, 0
9, 51300, Note_on_c, 7, 67, 64
9, 51420, Note_on_c, 7, 67, 0
9, 51480, Note_on_c, 7, 60, 42
9, 51600, Note_on_c, 7, 60, 0
9, 52200, Note_on_c, 7, 65, 78
9, 52320, Note_on_c, 7, 65, 0
9, 52920, Note_on_c, 7, 58, 76
9, 53040, Note_on_c, 7, 58, 0
9, 53100, Note_on_c, 7, 65, 53
9, 53220, Note_on_c, 7, 65, 0
9, 53280, Note_on_c, 7, 61, 55
9, 53400, Note_on_c, 7, 61, 0
9, 53460, Note_on_c, 7, 58, 73
9, 53580, Note_on_c, 7, 58, 0
9, 53640, Note_on_c, 7, 53, 58
9, 53760, Note_on_c, 7, 53, 0
9, 53820, Note_on_c, 7, 58, 67
9, 53940, Note_on_c, 7, 58, 0
9, 54000, Note_on_c, 7, 53, 52
9, 54120, Note_on_c, 7, 53, 0
9, 54180, Note_on_c, 7, 58, 65
9, 54300, Note_on_c, 7, 58, 0
9, 54360, Note_on_c, 7, 58, 76
9, 54480, Note_on_c, 7, 58, 0
9, 54540, Note_on_c, 7, 65, 58
9, 54660, Note_on_c, 7, 65, 0
9, 54720, Note_on_c, 7, 61, 73
9, 54840, Note_on_c, 7, 61, 0
9, 54900, Note_on_c, 7, 58, 69
9, 55020, Note_on_c, 7, 58, 0
9, 55080, Note_on_c, 7, 53, 76
9, 55200, Note_on_c, 7, 53, 0
9, 55260, Note_on_c, 7, 58, 64
9, 55380, Note_on_c, 7, 58, 0
9, 55440, Note_on_c, 7, 53, 54
9, 55560, Note_on_c, 7, 53, 0
9, 55620, Note_on_c, 7, 58, 64
9, 55740, Note_on_c, 7, 58, 0
9, 55800, Note_on_c, 7, 51, 61
9, 55920, Note_on_c, 7, 51, 0
9, 55980, Note_on_c, 7, 53, 53
9, 56100, Note_on_c, 7, 53, 0
9, 56160, Note_on_c, 7, 58, 50
9, 56280, Note_on_c, 7, 58, 0
9, 56340, Note_on_c, 7, 58, 52
9, 56460, Note_on_c, 7, 58, 0
9, 56520, Note_on_c, 7, 63, 57
9, 56640, Note_on_c, 7, 63, 0
9, 56700, Note_on_c, 7, 65, 70
9, 56820, Note_on_c, 7, 65, 0
9, 56880, Note_on_c, 7, 58, 52
9, 57000, Note_on_c, 7, 58, 0
9, 57600, Note_on_c, 7, 53, 58
9, 57720, Note_on_c, 7, 53, 0
9, 57720, Program_c, 7, 48
9, 57780, Note_on_c, 7, 60, 54
9, 57960, Note_on_c, 7, 60, 0
9, 57960, Note_on_c, 7, 58, 45
9, 58140, Note_on_c, 7, 58, 0
9, 58140, Note_on_c, 7, 55, 57
9, 58320, Note_on_c, 7, 55, 0
9, 58320, Note_on_c, 7, 57, 58
9, 58500, Note_on_c, 7, 57, 0
9, 58500, Note_on_c, 7, 60, 45
9, 58680, Note_on_c, 7, 60, 0
9, 58680, Note_on_c, 7, 58, 58
9, 58860, Note_on_c, 7, 58, 0
9, 58860, Note_on_c, 7, 55, 57
9, 59040, Note_on_c, 7, 55, 0
9, 59040, Note_on_c, 7, 57, 74
9, 59160, Note_on_c, 7, 57, 0
9, 59460, Program_c, 7, 45
9, 59760, Note_on_c, 7, 61, 64
9, 59880, Note_on_c, 7, 61, 0
9, 60480, Note_on_c, 7, 57, 69
9, 60600, Note_on_c, 7, 57, 0
9, 61200, Note_on_c, 7, 53, 61
9, 61320, Note_on_c, 7, 53, 0
9, 62040, Program_c, 7, 48
9, 64800, Note_on_c, 7, 58, 89
9, 64830, Note_on_c, 7, 58, 0
9, 64860, Note_on_c, 7, 62, 98
9, 64890, Note_on_c, 7, 62, 0
9, 64920, Note_on_c, 7, 65, 81
9, 64950, Note_on_c, 7, 65, 0
9, 64980, Note_on_c, 7, 58, 89
9, 65010, Note_on_c, 7, 58, 0
9, 65040, Note_on_c, 7, 62, 99
9, 65070, Note_on_c, 7, 62, 0
9, 65100, Note_on_c, 7, 65, 74
9, 65130, Note_on_c, 7, 65, 0
9, 65160, Note_on_c, 7, 62, 89
9, 65220, Note_on_c, 7, 62, 0
9, 65220, Note_on_c, 7, 60, 94
9, 65280, Note_on_c, 7, 60, 0
9, 65280, Note_on_c, 7, 58, 89
9, 65310, Note_on_c, 7, 58, 0
9, 65340, Note_on_c, 7, 57, 82
9, 65370, Note_on_c, 7, 57, 0
9, 65400, Note_on_c, 7, 55, 89
9, 65430, Note_on_c, 7, 55, 0
9, 65460, Note_on_c, 7, 53, 89
9, 65490, Note_on_c, 7, 53, 0
9, 65520, Note_on_c, 7, 53, 93
9, 65580, Note_on_c, 7, 53, 0
9, 65580, Note_on_c, 7, 65, 73
9, 65640, Note_on_c, 7, 65, 0
9, 65640, Note_on_c, 7, 65, 77
9, 65700, Note_on_c, 7, 65, 0
9, 65700, Note_on_c, 7, 53, 94
9, 65760, Note_on_c, 7, 53, 0
9, 65760, Note_on_c, 7, 65, 76
9, 65820, Note_on_c, 7, 65, 0
9, 65820, Note_on_c, 7, 65, 78
9, 65880, Note_on_c, 7, 65, 0
9, 65880, Note_on_c, 7, 63, 86
9, 65940, Note_on_c, 7, 63, 0
9, 65940, Note_on_c, 7, 62, 99
9, 66000, Note_on_c, 7, 62, 0
9, 66000, Note_on_c, 7, 60, 94
9, 66030, Note_on_c, 7, 60, 0
9, 66060, Note_on_c, 7, 58, 93
9, 66090, Note_on_c, 7, 58, 0
9, 66120, Note_on_c, 7, 60, 94
9, 66150, Note_on_c, 7, 60, 0
9, 66180, Note_on_c, 7, 62, 104
9, 66210, Note_on_c, 7, 62, 0
9, 66240, Note_on_c, 7, 63, 80
9, 66300, Note_on_c, 7, 63, 0
9, 66300, Note_on_c, 7, 58, 84
9, 66360, Note_on_c, 7, 58, 0
9, 66360, Note_on_c, 7, 63, 78
9, 66390, Note_on_c, 7, 63, 0
9, 66420, Note_on_c, 7, 62, 84
9, 66480, Note_on_c, 7, 62, 0
9, 66480, Note_on_c, 7, 58, 81
9, 66540, Note_on_c, 7, 58, 0
9, 66540, Note_on_c, 7, 62, 89
9, 66570, Note_on_c, 7, 62, 0
9, 66600, Note_on_c, 7, 63, 80
9, 66660, Note_on_c, 7, 63, 0
9, 66660, Note_on_c, 7, 58, 86
9, 66720, Note_on_c, 7, 58, 0
9, 66720, Note_on_c, 7, 63, 80
9, 66750, Note_on_c, 7, 63, 0
9, 66780, Note_on_c, 7, 62, 86
9, 66840, Note_on_c, 7, 62, 0
9, 66840, Note_on_c, 7, 60, 93
9, 66900, Note_on_c, 7, 60, 0
9, 66900, Note_on_c, 7, 62, 80
9, 66930, Note_on_c, 7, 62, 0
9, 66960, Note_on_c, 7, 55, 82
9, 67020, Note_on_c, 7, 55, 0
9, 67020, Note_on_c, 7, 58, 77
9, 67080, Note_on_c, 7, 58, 0
9, 67080, Note_on_c, 7, 60, 76
9, 67110, Note_on_c, 7, 60, 0
9, 67140, Note_on_c, 7, 53, 80
9, 67200, Note_on_c, 7, 53, 0
9, 67200, Note_on_c, 7, 58, 77
9, 67260, Note_on_c, 7, 58, 0
9, 67260, Note_on_c, 7, 58, 76
9, 67290, Note_on_c, 7, 58, 0
9, 67320, Note_on_c, 7, 58, 81
9, 67380, Note_on_c, 7, 58, 0
9, 67380, Note_on_c, 7, 58, 76
9, 67440, Note_on_c, 7, 58, 0
9, 67440, Note_on_c, 7, 58, 80
9, 67500, Note_on_c, 7, 58, 0
9, 67500, Note_on_c, 7, 58, 81
9, 67560, Note_on_c, 7, 58, 0
9, 67560, Note_on_c, 7, 60, 59
9, 67620, Note_on_c, 7, 60, 0
9, 67620, Note_on_c, 7, 57, 86
9, 67650, Note_on_c, 7, 57, 0
9, 67680, Note_on_c, 7, 58, 84
9, 67800, Note_on_c, 7, 58, 0
9, 68100, Note_on_c, 7, 53, 76
9, 68130, Note_on_c, 7, 53, 0
9, 68160, Note_on_c, 7, 54, 57
9, 68190, Note_on_c, 7, 54, 0
9, 68220, Note_on_c, 7, 55, 80
9, 68250, Note_on_c, 7, 55, 0
9, 68280, Note_on_c, 7, 56, 76
9, 68310, Note_on_c, 7, 56, 0
9, 68340, Note_on_c, 7, 57, 76
9, 68370, Note_on_c, 7, 57, 0
9, 68400, Note_on_c, 7, 58, 95
9, 68430, Note_on_c, 7, 58, 0
9, 68460, Note_on_c, 7, 58, 86
9, 68490, Note_on_c, 7, 58, 0
9, 68520, Note_on_c, 7, 60, 95
9, 68550, Note_on_c, 7, 60, 0
9, 68580, Note_on_c, 7, 62, 89
9, 68610, Note_on_c, 7, 62, 0
9, 68640, Note_on_c, 7, 63, 90
9, 68670, Note_on_c, 7, 63, 0
9, 68700, Note_on_c, 7, 64, 101
9, 68730, Note_on_c, 7, 64, 0
9, 68760, Note_on_c, 7, 65, 89
9, 68790, Note_on_c, 7, 65, 0
9, 68820, Note_on_c, 7, 63, 90
9, 68850, Note_on_c, 7, 63, 0
9, 68880, Note_on_c, 7, 62, 89
9, 68910, Note_on_c, 7, 62, 0
9, 68940, Note_on_c, 7, 60, 95
9, 68970, Note_on_c, 7, 60, 0
9, 69000, Note_on_c, 7, 58, 89
9, 69030, Note_on_c, 7, 58, 0
9, 69060, Note_on_c, 7, 57, 105
9, 69090, Note_on_c, 7, 57, 0
9, 69120, Note_on_c, 7, 58, 90
9, 69240, Note_on_c, 7, 58, 0
9, 69300, Note_on_c, 7, 70, 85
9, 69300, Note_on_c, 7, 65, 99
9, 69300, Note_on_c, 7, 58, 94
9, 69420, Note_on_c, 7, 58, 0
9, 69420, Note_on_c, 7, 65, 0
9, 69420, Note_on_c, 7, 70, 0
9, 69480, Note_on_c, 7, 58, 86
9, 69600, Note_on_c, 7, 58, 0
9, 69840, Note_on_c, 7, 70, 95
9, 70200, Note_on_c, 7, 70, 0
9, 70200, Note_on_c, 7, 65, 94
9, 70380, Note_on_c, 7, 65, 0
9, 70380, Note_on_c, 7, 62, 86
9, 70560, Note_on_c, 7, 62, 0
9, 70560, Note_on_c, 7, 58, 99
9, 70740, Note_on_c, 7, 58, 0
9, 70740, Note_on_c, 7, 67, 86
9, 70920, Note_on_c, 7, 67, 0
9, 70920, Note_on_c, 7, 62, 90
9, 71100, Note_on_c, 7, 62, 0
9, 71100, Note_on_c, 7, 64, 95
9, 71280, Note_on_c, 7, 64, 0
9, 71280, Note_on_c, 7, 65, 90
9, 71400, Note_on_c, 7, 65, 0
9, 72000, Note_on_c, 7, 68, 99
9, 72360, Note_on_c, 7, 68, 0
9, 72360, Note_on_c, 7, 65, 99
9, 72540, Note_on_c, 7, 65, 0
9, 72540, Note_on_c, 7, 62, 80
9, 72720, Note_on_c, 7, 62, 0
9, 72720, Note_on_c, 7, 58, 99
9, 72900, Note_on_c, 7, 58, 0
9, 72900, Note_on_c, 7, 56, 73
9, 73080, Note_on_c, 7, 56, 0
9, 73080, Note_on_c, 7, 53, 84
9, 73260, Note_on_c, 7, 53, 0
9, 73260, Note_on_c, 7, 50, 95
9, 73440, Note_on_c, 7, 50, 0
9, 73440, Note_on_c, 7, 51, 85
9, 73560, Note_on_c, 7, 51, 0
9, 74160, Note_on_c, 7, 63, 66
9, 74280, Note_on_c, 7, 63, 0
9, 74340, Note_on_c, 7, 63, 64
9, 74460, Note_on_c, 7, 63, 0
9, 74520, Note_on_c, 7, 63, 70
9, 74640, Note_on_c, 7, 63, 0
9, 74880, Note_on_c, 7, 63, 64
9, 75000, Note_on_c, 7, 63, 0
9, 75060, Note_on_c, 7, 63, 58
9, 75180, Note_on_c, 7, 63, 0
9, 75240, Note_on_c, 7, 63, 61
9, 75360, Note_on_c, 7, 63, 0
9, 75600, Note_on_c, 7, 63, 58
9, 75720, Note_on_c, 7, 63, 0
9, 75780, Note_on_c, 7, 63, 73
9, 75900, Note_on_c, 7, 63, 0
9, 75960, Note_on_c, 7, 63, 68
9, 76080, Note_on_c, 7, 63, 0
9, 76140, Note_on_c, 7, 64, 68
9, 76260, Note_on_c, 7, 64, 0
9, 76320, Note_on_c, 7, 65, 66
9, 76440, Note_on_c, 7, 65, 0
9, 76680, Note_on_c, 7, 60, 67
9, 76740, Note_on_c, 7, 60, 0
9, 76740, Note_on_c, 7, 60, 66
9, 76800, Note_on_c, 7, 60, 0
9, 76800, Note_on_c, 7, 60, 54
9, 76860, Note_on_c, 7, 60, 0
9, 76860, Note_on_c, 7, 60, 61
9, 76920, Note_on_c, 7, 60, 0
9, 76920, Note_on_c, 7, 60, 50
9, 76980, Note_on_c, 7, 60, 0
9, 76980, Note_on_c, 7, 60, 46
9, 77040, Note_on_c, 7, 60, 0
9, 77040, Note_on_c, 7, 60, 64
9, 77100, Note_on_c, 7, 60, 0
9, 77100, Note_on_c, 7, 57, 76
9, 77160, Note_on_c, 7, 57, 0
9, 77160, Note_on_c, 7, 57, 62
9, 77220, Note_on_c, 7, 57, 0
9, 77220, Note_on_c, 7, 57, 65
9, 77280, Note_on_c, 7, 57, 0
9, 77280, Note_on_c, 7, 57, 69
9, 77340, Note_on_c, 7, 57, 0
9, 77340, Note_on_c, 7, 57, 69
9, 77400, Note_on_c, 7, 57, 0
9, 77400, Note_on_c, 7, 58, 46
9, 77460, Note_on_c, 7, 58, 0
9, 77460, Note_on_c, 7, 58, 59
9, 77520, Note_on_c, 7, 58, 0
9, 77520, Note_on_c, 7, 58, 54
9, 77580, Note_on_c, 7, 58, 0
9, 77580, Note_on_c, 7, 58, 49
9, 77640, Note_on_c, 7, 58, 0
9, 77640, Note_on_c, 7, 58, 46
9, 77700, Note_on_c, 7, 58, 0
9, 77700, Note_on_c, 7, 58, 65
9, 77760, Note_on_c, 7, 58, 0
9, 77760, Note_on_c, 7, 57, 64
9, 77880, Note_on_c, 7, 57, 0
9, 78120, Note_on_c, 7, 53, 53
9, 78240, Note_on_c, 7, 53, 0
9, 78480, Note_on_c, 7, 53, 45
9, 78600, Note_on_c, 7, 53, 0
9, 82080, Note_on_c, 7, 70, 57
9, 82200, Note_on_c, 7, 70, 0
9, 82260, Note_on_c, 7, 69, 81
9, 82380, Note_on_c, 7, 69, 0
9, 82440, Note_on_c, 7, 67, 89
9, 82560, Note_on_c, 7, 67, 0
9, 82620, Note_on_c, 7, 63, 101
9, 82800, Note_on_c, 7, 63, 0
9, 83520, Note_on_c, 7, 70, 57
9, 83640, Note_on_c, 7, 70, 0
9, 83700, Note_on_c, 7, 69, 81
9, 83820, Note_on_c, 7, 69, 0
9, 83880, Note_on_c, 7, 67, 89
9, 84000, Note_on_c, 7, 67, 0
9, 84060, Note_on_c, 7, 55, 105
9, 84060, Note_on_c, 7, 64, 101
9, 84240, Note_on_c, 7, 64, 0
9, 84240, Note_on_c, 7, 55, 0
9, 84960, Note_on_c, 7, 57, 94
9, 85020, Note_on_c, 7, 57, 0
9, 85020, Note_on_c, 7, 53, 95
9, 85080, Note_on_c, 7, 53, 0
9, 85080, Note_on_c, 7, 53, 81
9, 85110, Note_on_c, 7, 53, 0
9, 85140, Note_on_c, 7, 57, 94
9, 85200, Note_on_c, 7, 57, 0
9, 85200, Note_on_c, 7, 53, 90
9, 85260, Note_on_c, 7, 53, 0
9, 85260, Note_on_c, 7, 53, 90
9, 85290, Note_on_c, 7, 53, 0
9, 85320, Note_on_c, 7, 58, 84
9, 85380, Note_on_c, 7, 58, 0
9, 85380, Note_on_c, 7, 53, 98
9, 85440, Note_on_c, 7, 53, 0
9, 85440, Note_on_c, 7, 53, 94
9, 85470, Note_on_c, 7, 53, 0
9, 85500, Note_on_c, 7, 58, 84
9, 85560, Note_on_c, 7, 58, 0
9, 85560, Note_on_c, 7, 53, 93
9, 85620, Note_on_c, 7, 53, 0
9, 85620, Note_on_c, 7, 53, 94
9, 85650, Note_on_c, 7, 53, 0
9, 85680, Note_on_c, 7, 65, 50
9, 85800, Note_on_c, 7, 65, 0
9, 85860, Note_on_c, 7, 65, 45
9, 85980, Note_on_c, 7, 65, 0
9, 86040, Note_on_c, 7, 65, 47
9, 86160, Note_on_c, 7, 65, 0
9, 86400, Note_on_c, 7, 57, 94
9, 86460, Note_on_c, 7, 57, 0
9, 86460, Note_on_c, 7, 53, 95
9, 86520, Note_on_c, 7, 53, 0
9, 86520, Note_on_c, 7, 53, 81
9, 86550, Note_on_c, 7, 53, 0
9, 86580, Note_on_c, 7, 57, 94
9, 86640, Note_on_c, 7, 57, 0
9, 86640, Note_on_c, 7, 53, 90
9, 86700, Note_on_c, 7, 53, 0
9, 86700, Note_on_c, 7, 53, 90
9, 86730, Note_on_c, 7, 53, 0
9, 86760, Note_on_c, 7, 58, 84
9, 86820, Note_on_c, 7, 58, 0
9, 86820, Note_on_c, 7, 53, 98
9, 86880, Note_on_c, 7, 53, 0
9, 86880, Note_on_c, 7, 53, 94
9, 86910, Note_on_c, 7, 53, 0
9, 86940, Note_on_c, 7, 58, 84
9, 87000, Note_on_c, 7, 58, 0
9, 87000, Note_on_c, 7, 53, 93
9, 87060, Note_on_c, 7, 53, 0
9, 87060, Note_on_c, 7, 53, 94
9, 87090, Note_on_c, 7, 53, 0
9, 87120, Note_on_c, 7, 65, 50
9, 87240, Note_on_c, 7, 65, 0
9, 87300, Note_on_c, 7, 65, 45
9, 87420, Note_on_c, 7, 65, 0
9, 87480, Note_on_c, 7, 65, 47
9, 87600, Note_on_c, 7, 65, 0
9, 88920, Note_on_c, 7, 55, 71
9, 89040, Note_on_c, 7, 55, 0
9, 89100, Note_on_c, 7, 60, 76
9, 89220, Note_on_c, 7, 60, 0
9, 89280, Note_on_c, 7, 62, 68
9, 89400, Note_on_c, 7, 62, 0
9, 89460, Note_on_c, 7, 60, 68
9, 89580, Note_on_c, 7, 60, 0
9, 93960, Note_on_c, 7, 62, 46
9, 94080, Note_on_c, 7, 62, 0
9, 94140, Note_on_c, 7, 62, 43
9, 94260, Note_on_c, 7, 62, 0
9, 94320, Note_on_c, 7, 62, 46
9, 94440, Note_on_c, 7, 62, 0
9, 94500, Note_on_c, 7, 62, 45
9, 94620, Note_on_c, 7, 62, 0
9, 94680, Note_on_c, 7, 62, 44
9, 94800, Note_on_c, 7, 62, 0
9, 94860, Note_on_c, 7, 62, 52
9, 94980, Note_on_c, 7, 62, 0
9, 95040, Note_on_c, 7, 62, 45
9, 95160, Note_on_c, 7, 62, 0
9, 95220, Note_on_c, 7, 62, 46
9, 95340, Note_on_c, 7, 62, 0
9, 95378, Control_c, 7, 7, 66
9, 95400, Note_on_c, 7, 62, 94
9, 95760, Note_on_c, 7, 62, 0
9, 95760, Note_on_c, 7, 67, 84
9, 96118, Control_c, 7, 7, 66
9, 96120, Note_on_c, 7, 67, 0
9, 96120, Note_on_c, 7, 60, 94
9, 96140, Control_c, 7, 7, 67
9, 96162, Control_c, 7, 7, 68
9, 96184, Control_c, 7, 7, 69
9, 96206, Control_c, 7, 7, 70
9, 96228, Control_c, 7, 7, 71
9, 96250, Control_c, 7, 7, 72
9, 96272, Control_c, 7, 7, 73
9, 96294, Control_c, 7, 7, 74
9, 96316, Control_c, 7, 7, 75
9, 96338, Control_c, 7, 7, 76
9, 96360, Control_c, 7, 7, 77
9, 96382, Control_c, 7, 7, 78
9, 96404, Control_c, 7, 7, 79
9, 96426, Control_c, 7, 7, 80
9, 96448, Control_c, 7, 7, 81
9, 96470, Control_c, 7, 7, 82
9, 96490, Control_c, 7, 7, 83
9, 96512, Control_c, 7, 7, 84
9, 96534, Control_c, 7, 7, 85
9, 96556, Control_c, 7, 7, 86
9, 96578, Control_c, 7, 7, 87
9, 96600, Control_c, 7, 7, 88
9, 96622, Control_c, 7, 7, 89
9, 96644, Control_c, 7, 7, 90
9, 96666, Control_c, 7, 7, 91
9, 96688, Control_c, 7, 7, 92
9, 96710, Control_c, 7, 7, 93
9, 96732, Control_c, 7, 7, 94
9, 96754, Control_c, 7, 7, 95
9, 96776, Control_c, 7, 7, 96
9, 96798, Control_c, 7, 7, 97
9, 96820, Control_c, 7, 7, 98
9, 96840, Note_on_c, 7, 60, 0
9, 96840, Note_on_c, 7, 58, 99
9, 96840, Control_c, 7, 7, 99
9, 96870, Note_on_c, 7, 58, 0
9, 96900, Note_on_c, 7, 62, 107
9, 96930, Note_on_c, 7, 62, 0
9, 96960, Note_on_c, 7, 65, 90
9, 96990, Note_on_c, 7, 65, 0
9, 97020, Note_on_c, 7, 58, 98
9, 97050, Note_on_c, 7, 58, 0
9, 97080, Note_on_c, 7, 62, 107
9, 97110, Note_on_c, 7, 62, 0
9, 97140, Note_on_c, 7, 65, 94
9, 97170, Note_on_c, 7, 65, 0
9, 97200, Note_on_c, 7, 62, 99
9, 97260, Note_on_c, 7, 62, 0
9, 97260, Note_on_c, 7, 60, 101
9, 97320, Note_on_c, 7, 60, 0
9, 97320, Note_on_c, 7, 58, 99
9, 97380, Note_on_c, 7, 58, 0
9, 97380, Note_on_c, 7, 57, 89
9, 97410, Note_on_c, 7, 57, 0
9, 97440, Note_on_c, 7, 55, 95
9, 97470, Note_on_c, 7, 55, 0
9, 97500, Note_on_c, 7, 53, 99
9, 97530, Note_on_c, 7, 53, 0
9, 97560, Note_on_c, 7, 53, 104
9, 97620, Note_on_c, 7, 53, 0
9, 97620, Note_on_c, 7, 65, 98
9, 97680, Note_on_c, 7, 65, 0
9, 97680, Note_on_c, 7, 65, 104
9, 97740, Note_on_c, 7, 65, 0
9, 97740, Note_on_c, 7, 53, 110
9, 97800, Note_on_c, 7, 53, 0
9, 97800, Note_on_c, 7, 65, 93
9, 97860, Note_on_c, 7, 65, 0
9, 97860, Note_on_c, 7, 65, 99
9, 97920, Note_on_c, 7, 65, 0
9, 97920, Note_on_c, 7, 63, 95
9, 97980, Note_on_c, 7, 63, 0
9, 97980, Note_on_c, 7, 62, 107
9, 98040, Note_on_c, 7, 62, 0
9, 98040, Note_on_c, 7, 60, 104
9, 98070, Note_on_c, 7, 60, 0
9, 98100, Note_on_c, 7, 58, 99
9, 98130, Note_on_c, 7, 58, 0
9, 98160, Note_on_c, 7, 60, 101
9, 98190, Note_on_c, 7, 60, 0
9, 98220, Note_on_c, 7, 62, 105
9, 98250, Note_on_c, 7, 62, 0
9, 98280, Note_on_c, 7, 63, 107
9, 98340, Note_on_c, 7, 63, 0
9, 98340, Note_on_c, 7, 58, 105
9, 98400, Note_on_c, 7, 58, 0
9, 98400, Note_on_c, 7, 63, 98
9, 98430, Note_on_c, 7, 63, 0
9, 98460, Note_on_c, 7, 62, 105
9, 98520, Note_on_c, 7, 62, 0
9, 98520, Note_on_c, 7, 58, 98
9, 98580, Note_on_c, 7, 58, 0
9, 98580, Note_on_c, 7, 62, 99
9, 98610, Note_on_c, 7, 62, 0
9, 98640, Note_on_c, 7, 63, 99
9, 98700, Note_on_c, 7, 63, 0
9, 98700, Note_on_c, 7, 58, 99
9, 98760, Note_on_c, 7, 58, 0
9, 98760, Note_on_c, 7, 63, 98
9, 98790, Note_on_c, 7, 63, 0
9, 98820, Note_on_c, 7, 62, 98
9, 98880, Note_on_c, 7, 62, 0
9, 98880, Note_on_c, 7, 60, 105
9, 98940, Note_on_c, 7, 60, 0
9, 98940, Note_on_c, 7, 62, 99
9, 98970, Note_on_c, 7, 62, 0
9, 99000, Note_on_c, 7, 55, 105
9, 99060, Note_on_c, 7, 55, 0
9, 99060, Note_on_c, 7, 58, 90
9, 99120, Note_on_c, 7, 58, 0
9, 99120, Note_on_c, 7, 60, 99
9, 99150, Note_on_c, 7, 60, 0
9, 99180, Note_on_c, 7, 53, 104
9, 99240, Note_on_c, 7, 53, 0
9, 99240, Note_on_c, 7, 58, 95
9, 99300, Note_on_c, 7, 58, 0
9, 99300, Note_on_c, 7, 58, 95
9, 99330, Note_on_c, 7, 58, 0
9, 99360, Note_on_c, 7, 58, 94
9, 99420, Note_on_c, 7, 58, 0
9, 99420, Note_on_c, 7, 58, 95
9, 99480, Note_on_c, 7, 58, 0
9, 99480, Note_on_c, 7, 58, 95
9, 99540, Note_on_c, 7, 58, 0
9, 99540, Note_on_c, 7, 58, 95
9, 99600, Note_on_c, 7, 58, 0
9, 99600, Note_on_c, 7, 60, 89
9, 99660, Note_on_c, 7, 60, 0
9, 99660, Note_on_c, 7, 57, 110
9, 99690, Note_on_c, 7, 57, 0
9, 99720, Note_on_c, 7, 53, 57
9, 99720, Note_on_c, 7, 50, 64
9, 100080, Note_on_c, 7, 50, 0
9, 100080, Note_on_c, 7, 53, 0
9, 100080, Note_on_c, 7, 51, 46
9, 100080, Note_on_c, 7, 48, 52
9, 100440, Note_on_c, 7, 48, 0
9, 100440, Note_on_c, 7, 51, 0
9, 100440, Note_on_c, 7, 53, 47
9, 100440, Note_on_c, 7, 50, 71
9, 100800, Note_on_c, 7, 50, 0
9, 100800, Note_on_c, 7, 53, 0
9, 100800, Note_on_c, 7, 51, 53
9, 100800, Note_on_c, 7, 48, 45
9, 101160, Note_on_c, 7, 48, 0
9, 101160, Note_on_c, 7, 51, 0
9, 101160, Note_on_c, 7, 53, 62
9, 101160, Note_on_c, 7, 50, 74
9, 101280, Note_on_c, 7, 50, 0
9, 101280, Note_on_c, 7, 53, 0
9, 102600, Note_on_c, 7, 53, 57
9, 102600, Note_on_c, 7, 50, 64
9, 102960, Note_on_c, 7, 50, 0
9, 102960, Note_on_c, 7, 53, 0
9, 102960, Note_on_c, 7, 51, 46
9, 102960, Note_on_c, 7, 48, 52
9, 103320, Note_on_c, 7, 48, 0
9, 103320, Note_on_c, 7, 51, 0
9, 103320, Note_on_c, 7, 53, 47
9, 103320, Note_on_c, 7, 50, 71
9, 103680, Note_on_c, 7, 50, 0
9, 103680, Note_on_c, 7, 53, 0
9, 103680, Note_on_c, 7, 51, 53
9, 103680, Note_on_c, 7, 48, 45
9, 104040, Note_on_c, 7, 48, 0
9, 104040, Note_on_c, 7, 51, 0
9, 104040, Note_on_c, 7, 53, 62
9, 104040, Note_on_c, 7, 50, 74
9, 104160, Note_on_c, 7, 50, 0
9, 104160, Note_on_c, 7, 53, 0
9, 105480, Note_on_c, 7, 62, 76
9, 105540, Note_on_c, 7, 62, 0
9, 105600, Note_on_c, 7, 67, 68
9, 105630, Note_on_c, 7, 67, 0
9, 105660, Note_on_c, 7, 63, 59
9, 105720, Note_on_c, 7, 63, 0
9, 105780, Note_on_c, 7, 65, 58
9, 105810, Note_on_c, 7, 65, 0
9, 106200, Note_on_c, 7, 62, 76
9, 106260, Note_on_c, 7, 62, 0
9, 106320, Note_on_c, 7, 67, 68
9, 106350, Note_on_c, 7, 67, 0
9, 106380, Note_on_c, 7, 63, 59
9, 106440, Note_on_c, 7, 63, 0
9, 106500, Note_on_c, 7, 65, 58
9, 106530, Note_on_c, 7, 65, 0
9, 106560, Note_on_c, 7, 50, 76
9, 106620, Note_on_c, 7, 50, 0
9, 106680, Note_on_c, 7, 55, 68
9, 106710, Note_on_c, 7, 55, 0
9, 106740, Note_on_c, 7, 51, 59
9, 106800, Note_on_c, 7, 51, 0
9, 106860, Note_on_c, 7, 53, 58
9, 106890, Note_on_c, 7, 53, 0
9, 106920, Note_on_c, 7, 58, 57
9, 107040, Note_on_c, 7, 58, 0
9, 107280, Note_on_c, 7, 53, 45
9, 107400, Note_on_c, 7, 53, 0
9, 107640, Note_on_c, 7, 58, 44
9, 107760, Note_on_c, 7, 58, 0
9, 108000, Note_on_c, 7, 53, 61
9, 108120, Note_on_c, 7, 53, 0
9, 108360, Note_on_c, 7, 58, 63
9, 108420, Note_on_c, 7, 58, 0
9, 108420, Note_on_c, 7, 53, 52
9, 108480, Note_on_c, 7, 53, 0
9, 108480, Note_on_c, 7, 53, 47
9, 108510, Note_on_c, 7, 53, 0
9, 108540, Note_on_c, 7, 50, 67
9, 108600, Note_on_c, 7, 50, 0
9, 108600, Note_on_c, 7, 53, 67
9, 108660, Note_on_c, 7, 53, 0
9, 108660, Note_on_c, 7, 53, 72
9, 108690, Note_on_c, 7, 53, 0
9, 108720, Note_on_c, 7, 51, 72
9, 108780, Note_on_c, 7, 51, 0
9, 108780, Note_on_c, 7, 53, 65
9, 108840, Note_on_c, 7, 53, 0
9, 108840, Note_on_c, 7, 53, 65
9, 108870, Note_on_c, 7, 53, 0
9, 108900, Note_on_c, 7, 51, 65
9, 108960, Note_on_c, 7, 51, 0
9, 108960, Note_on_c, 7, 53, 60
9, 109020, Note_on_c, 7, 53, 0
9, 109020, Note_on_c, 7, 53, 65
9, 109050, Note_on_c, 7, 53, 0
9, 109080, Note_on_c, 7, 50, 65
9, 109140, Note_on_c, 7, 50, 0
9, 109140, Note_on_c, 7, 53, 67
9, 109200, Note_on_c, 7, 53, 0
9, 109200, Note_on_c, 7, 53, 55
9, 109230, Note_on_c, 7, 53, 0
9, 109260, Note_on_c, 7, 50, 62
9, 109320, Note_on_c, 7, 50, 0
9, 109320, Note_on_c, 7, 53, 51
9, 109380, Note_on_c, 7, 53, 0
9, 109380, Note_on_c, 7, 53, 57
9, 109410, Note_on_c, 7, 53, 0
9, 109440, Note_on_c, 7, 51, 65
9, 109500, Note_on_c, 7, 51, 0
9, 109500, Note_on_c, 7, 53, 53
9, 109560, Note_on_c, 7, 53, 0
9, 109560, Note_on_c, 7, 53, 64
9, 109590, Note_on_c, 7, 53, 0
9, 109620, Note_on_c, 7, 51, 58
9, 109680, Note_on_c, 7, 51, 0
9, 109680, Note_on_c, 7, 53, 57
9, 109740, Note_on_c, 7, 53, 0
9, 109740, Note_on_c, 7, 53, 64
9, 109770, Note_on_c, 7, 53, 0
9, 109800, Note_on_c, 7, 50, 76
9, 109920, Note_on_c, 7, 50, 0
9, 109980, Note_on_c, 7, 50, 42
9, 110100, Note_on_c, 7, 50, 0
9, 110700, Note_on_c, 7, 53, 43
9, 110820, Note_on_c, 7, 53, 0
9, 111420, Note_on_c, 7, 58, 29
9, 111540, Note_on_c, 7, 58, 0
9, 114960, Program_c, 7, 45
9, 115200, Note_on_c, 7, 67, 43
9, 115320, Note_on_c, 7, 67, 0
9, 115560, Note_on_c, 7, 60, 38
9, 115680, Note_on_c, 7, 60, 0
9, 115680, Program_c, 7, 48
9, 115920, Note_on_c, 7, 69, 73
9, 115920, Note_on_c, 7, 65, 95
9, 115920, Note_on_c, 7, 60, 94
9, 116040, Note_on_c, 7, 60, 0
9, 116040, Note_on_c, 7, 65, 0
9, 116040, Note_on_c, 7, 69, 0
9, 116280, Note_on_c, 7, 58, 99
9, 116340, Note_on_c, 7, 58, 0
9, 116340, Note_on_c, 7, 62, 99
9, 116400, Note_on_c, 7, 62, 0
9, 116400, Note_on_c, 7, 65, 104
9, 116460, Note_on_c, 7, 65, 0
9, 116460, Note_on_c, 7, 70, 105
9, 116520, Note_on_c, 7, 70, 0
9, 116520, Note_on_c, 7, 65, 110
9, 116580, Note_on_c, 7, 65, 0
9, 116580, Note_on_c, 7, 62, 99
9, 116640, Note_on_c, 7, 62, 0
9, 116640, Note_on_c, 7, 58, 99
9, 116700, Note_on_c, 7, 58, 0
9, 116700, Note_on_c, 7, 62, 105
9, 116760, Note_on_c, 7, 62, 0
9, 116760, Note_on_c, 7, 65, 104
9, 116820, Note_on_c, 7, 65, 0
9, 116820, Note_on_c, 7, 70, 99
9, 116880, Note_on_c, 7, 70, 0
9, 116880, Note_on_c, 7, 65, 105
9, 116940, Note_on_c, 7, 65, 0
9, 116940, Note_on_c, 7, 62, 104
9, 117000, Note_on_c, 7, 62, 0
9, 117000, Note_on_c, 7, 58, 105
9, 117120, Note_on_c, 7, 58, 0
9, 117180, Note_on_c, 7, 58, 104
9, 117300, Note_on_c, 7, 58, 0
9, 117360, Note_on_c, 7, 58, 104
9, 117480, Note_on_c, 7, 58, 0
9, 117490, Control_c, 7, 7, 99
9, 117490, Control_c, 7, 10, 64
9, 117490, Control_c, 7, 93, 0
9, 117490, Control_c, 7, 91, 66
9, 117490, End_track
10, 0, Start_track
10, 0, Title_t, "Cellos"
10, 0, Program_c, 8, 48
10, 0, Control_c, 8, 7, 120
10, 0, Control_c, 8, 10, 105
10, 2880, Note_on_c, 8, 46, 89
10, 2910, Note_on_c, 8, 46, 0
10, 2940, Note_on_c, 8, 50, 98
10, 2970, Note_on_c, 8, 50, 0
10, 3000, Note_on_c, 8, 53, 81
10, 3030, Note_on_c, 8, 53, 0
10, 3060, Note_on_c, 8, 46, 89
10, 3090, Note_on_c, 8, 46, 0
10, 3120, Note_on_c, 8, 50, 99
10, 3150, Note_on_c, 8, 50, 0
10, 3180, Note_on_c, 8, 53, 74
10, 3210, Note_on_c, 8, 53, 0
10, 3240, Note_on_c, 8, 50, 89
10, 3300, Note_on_c, 8, 50, 0
10, 3300, Note_on_c, 8, 48, 94
10, 3360, Note_on_c, 8, 48, 0
10, 3360, Note_on_c, 8, 46, 89
10, 3390, Note_on_c, 8, 46, 0
10, 3420, Note_on_c, 8, 45, 82
10, 3450, Note_on_c, 8, 45, 0
10, 3480, Note_on_c, 8, 43, 89
10, 3510, Note_on_c, 8, 43, 0
10, 3540, Note_on_c, 8, 41, 89
10, 3570, Note_on_c, 8, 41, 0
10, 3600, Note_on_c, 8, 41, 93
10, 3660, Note_on_c, 8, 41, 0
10, 3660, Note_on_c, 8, 53, 73
10, 3720, Note_on_c, 8, 53, 0
10, 3720, Note_on_c, 8, 53, 77
10, 3780, Note_on_c, 8, 53, 0
10, 3780, Note_on_c, 8, 41, 94
10, 3840, Note_on_c, 8, 41, 0
10, 3840, Note_on_c, 8, 53, 76
10, 3900, Note_on_c, 8, 53, 0
10, 3900, Note_on_c, 8, 53, 78
10, 3960, Note_on_c, 8, 53, 0
10, 3960, Note_on_c, 8, 51, 86
10, 4020, Note_on_c, 8, 51, 0
10, 4020, Note_on_c, 8, 50, 99
10, 4080, Note_on_c, 8, 50, 0
10, 4080, Note_on_c, 8, 48, 94
10, 4110, Note_on_c, 8, 48, 0
10, 4140, Note_on_c, 8, 46, 93
10, 4170, Note_on_c, 8, 46, 0
10, 4200, Note_on_c, 8, 48, 94
10, 4230, Note_on_c, 8, 48, 0
10, 4260, Note_on_c, 8, 50, 104
10, 4290, Note_on_c, 8, 50, 0
10, 4320, Note_on_c, 8, 51, 84
10, 4380, Note_on_c, 8, 51, 0
10, 4380, Note_on_c, 8, 46, 90
10, 4440, Note_on_c, 8, 46, 0
10, 4440, Note_on_c, 8, 51, 85
10, 4470, Note_on_c, 8, 51, 0
10, 4500, Note_on_c, 8, 50, 95
10, 4560, Note_on_c, 8, 50, 0
10, 4560, Note_on_c, 8, 46, 84
10, 4620, Note_on_c, 8, 46, 0
10, 4620, Note_on_c, 8, 50, 99
10, 4650, Note_on_c, 8, 50, 0
10, 4680, Note_on_c, 8, 51, 81
10, 4740, Note_on_c, 8, 51, 0
10, 4740, Note_on_c, 8, 46, 89
10, 4800, Note_on_c, 8, 46, 0
10, 4800, Note_on_c, 8, 51, 86
10, 4830, Note_on_c, 8, 51, 0
10, 4860, Note_on_c, 8, 50, 99
10, 4920, Note_on_c, 8, 50, 0
10, 4920, Note_on_c, 8, 56, 89
10, 4980, Note_on_c, 8, 56, 0
10, 4980, Note_on_c, 8, 59, 81
10, 5010, Note_on_c, 8, 59, 0
10, 5040, Note_on_c, 8, 60, 81
10, 5100, Note_on_c, 8, 60, 0
10, 5100, Note_on_c, 8, 55, 76
10, 5160, Note_on_c, 8, 55, 0
10, 5160, Note_on_c, 8, 57, 99
10, 5190, Note_on_c, 8, 57, 0
10, 5220, Note_on_c, 8, 58, 73
10, 5280, Note_on_c, 8, 58, 0
10, 5280, Note_on_c, 8, 55, 89
10, 5340, Note_on_c, 8, 55, 0
10, 5340, Note_on_c, 8, 52, 95
10, 5370, Note_on_c, 8, 52, 0
10, 5400, Note_on_c, 8, 41, 94
10, 5460, Note_on_c, 8, 41, 0
10, 5460, Note_on_c, 8, 53, 76
10, 5520, Note_on_c, 8, 53, 0
10, 5520, Note_on_c, 8, 53, 76
10, 5580, Note_on_c, 8, 53, 0
10, 5580, Note_on_c, 8, 41, 89
10, 5640, Note_on_c, 8, 41, 0
10, 5640, Note_on_c, 8, 53, 72
10, 5700, Note_on_c, 8, 53, 0
10, 5700, Note_on_c, 8, 53, 76
10, 5760, Note_on_c, 8, 53, 0
10, 5760, Note_on_c, 8, 46, 86
10, 5880, Note_on_c, 8, 46, 0
10, 6120, Note_on_c, 8, 53, 68
10, 6240, Note_on_c, 8, 53, 0
10, 6480, Note_on_c, 8, 58, 76
10, 6510, Note_on_c, 8, 58, 0
10, 6540, Note_on_c, 8, 46, 89
10, 6570, Note_on_c, 8, 46, 0
10, 6600, Note_on_c, 8, 48, 93
10, 6630, Note_on_c, 8, 48, 0
10, 6660, Note_on_c, 8, 50, 89
10, 6690, Note_on_c, 8, 50, 0
10, 6720, Note_on_c, 8, 51, 89
10, 6750, Note_on_c, 8, 51, 0
10, 6780, Note_on_c, 8, 52, 99
10, 6810, Note_on_c, 8, 52, 0
10, 6840, Note_on_c, 8, 41, 93
10, 6900, Note_on_c, 8, 41, 0
10, 6900, Note_on_c, 8, 53, 74
10, 6960, Note_on_c, 8, 53, 0
10, 6960, Note_on_c, 8, 53, 86
10, 7020, Note_on_c, 8, 53, 0
10, 7020, Note_on_c, 8, 41, 94
10, 7080, Note_on_c, 8, 41, 0
10, 7080, Note_on_c, 8, 53, 84
10, 7140, Note_on_c, 8, 53, 0
10, 7140, Note_on_c, 8, 53, 80
10, 7200, Note_on_c, 8, 53, 0
10, 7200, Note_on_c, 8, 46, 93
10, 7320, Note_on_c, 8, 46, 0
10, 7380, Note_on_c, 8, 58, 82
10, 7500, Note_on_c, 8, 58, 0
10, 7560, Note_on_c, 8, 46, 93
10, 7680, Note_on_c, 8, 46, 0
10, 7920, Note_on_c, 8, 58, 95
10, 8280, Note_on_c, 8, 58, 0
10, 8280, Note_on_c, 8, 53, 94
10, 8460, Note_on_c, 8, 53, 0
10, 8460, Note_on_c, 8, 50, 86
10, 8640, Note_on_c, 8, 50, 0
10, 8640, Note_on_c, 8, 46, 99
10, 8820, Note_on_c, 8, 46, 0
10, 8820, Note_on_c, 8, 55, 86
10, 9000, Note_on_c, 8, 55, 0
10, 9000, Note_on_c, 8, 50, 90
10, 9180, Note_on_c, 8, 50, 0
10, 9180, Note_on_c, 8, 52, 95
10, 9360, Note_on_c, 8, 52, 0
10, 9360, Note_on_c, 8, 53, 90
10, 9480, Note_on_c, 8, 53, 0
10, 10080, Note_on_c, 8, 65, 95
10, 10440, Note_on_c, 8, 65, 0
10, 10440, Note_on_c, 8, 60, 99
10, 10620, Note_on_c, 8, 60, 0
10, 10620, Note_on_c, 8, 57, 86
10, 10800, Note_on_c, 8, 57, 0
10, 10800, Note_on_c, 8, 53, 94
10, 10980, Note_on_c, 8, 53, 0
10, 10980, Note_on_c, 8, 50, 84
10, 11160, Note_on_c, 8, 50, 0
10, 11160, Note_on_c, 8, 45, 82
10, 11340, Note_on_c, 8, 45, 0
10, 11340, Note_on_c, 8, 47, 89
10, 11520, Note_on_c, 8, 47, 0
10, 11520, Note_on_c, 8, 48, 90
10, 11640, Note_on_c, 8, 48, 0
10, 14400, Note_on_c, 8, 48, 69
10, 14520, Note_on_c, 8, 48, 0
10, 14760, Note_on_c, 8, 43, 76
10, 14880, Note_on_c, 8, 43, 0
10, 15120, Note_on_c, 8, 48, 76
10, 15240, Note_on_c, 8, 48, 0
10, 15480, Note_on_c, 8, 55, 76
10, 15600, Note_on_c, 8, 55, 0
10, 15840, Note_on_c, 8, 48, 78
10, 15960, Note_on_c, 8, 48, 0
10, 16200, Note_on_c, 8, 48, 76
10, 16320, Note_on_c, 8, 48, 0
10, 16560, Note_on_c, 8, 48, 76
10, 16680, Note_on_c, 8, 48, 0
10, 20160, Note_on_c, 8, 53, 64
10, 20280, Note_on_c, 8, 53, 0
10, 20340, Note_on_c, 8, 52, 80
10, 20460, Note_on_c, 8, 52, 0
10, 20520, Note_on_c, 8, 50, 86
10, 20640, Note_on_c, 8, 50, 0
10, 20700, Note_on_c, 8, 46, 101
10, 20880, Note_on_c, 8, 46, 0
10, 21600, Note_on_c, 8, 53, 63
10, 21720, Note_on_c, 8, 53, 0
10, 21780, Note_on_c, 8, 52, 82
10, 21900, Note_on_c, 8, 52, 0
10, 21960, Note_on_c, 8, 50, 95
10, 22080, Note_on_c, 8, 50, 0
10, 22140, Note_on_c, 8, 62, 94
10, 22320, Note_on_c, 8, 62, 0
10, 23040, Note_on_c, 8, 58, 86
10, 23400, Note_on_c, 8, 58, 0
10, 23400, Note_on_c, 8, 57, 104
10, 23760, Note_on_c, 8, 57, 0
10, 23760, Note_on_c, 8, 52, 65
10, 23880, Note_on_c, 8, 52, 0
10, 23940, Note_on_c, 8, 52, 68
10, 24060, Note_on_c, 8, 52, 0
10, 24120, Note_on_c, 8, 53, 68
10, 24240, Note_on_c, 8, 53, 0
10, 24480, Note_on_c, 8, 58, 86
10, 24840, Note_on_c, 8, 58, 0
10, 24840, Note_on_c, 8, 57, 104
10, 25200, Note_on_c, 8, 57, 0
10, 25200, Note_on_c, 8, 52, 65
10, 25320, Note_on_c, 8, 52, 0
10, 25380, Note_on_c, 8, 52, 68
10, 25500, Note_on_c, 8, 52, 0
10, 25560, Note_on_c, 8, 53, 68
10, 25680, Note_on_c, 8, 53, 0
10, 27000, Note_on_c, 8, 58, 66
10, 27120, Note_on_c, 8, 58, 0
10, 27180, Note_on_c, 8, 58, 60
10, 27300, Note_on_c, 8, 58, 0
10, 27360, Note_on_c, 8, 60, 58
10, 27480, Note_on_c, 8, 60, 0
10, 27540, Note_on_c, 8, 48, 58
10, 27660, Note_on_c, 8, 48, 0
10, 29160, Note_on_c, 8, 46, 62
10, 29280, Note_on_c, 8, 46, 0
10, 29520, Note_on_c, 8, 58, 53
10, 29640, Note_on_c, 8, 58, 0
10, 29880, Note_on_c, 8, 58, 53
10, 30000, Note_on_c, 8, 58, 0
10, 30600, Note_on_c, 8, 48, 50
10, 30720, Note_on_c, 8, 48, 0
10, 30960, Note_on_c, 8, 60, 62
10, 31080, Note_on_c, 8, 60, 0
10, 31320, Note_on_c, 8, 60, 53
10, 31440, Note_on_c, 8, 60, 0
10, 37080, Note_on_c, 8, 46, 89
10, 37110, Note_on_c, 8, 46, 0
10, 37140, Note_on_c, 8, 50, 98
10, 37170, Note_on_c, 8, 50, 0
10, 37200, Note_on_c, 8, 53, 81
10, 37230, Note_on_c, 8, 53, 0
10, 37260, Note_on_c, 8, 46, 89
10, 37290, Note_on_c, 8, 46, 0
10, 37320, Note_on_c, 8, 50, 99
10, 37350, Note_on_c, 8, 50, 0
10, 37380, Note_on_c, 8, 53, 74
10, 37410, Note_on_c, 8, 53, 0
10, 37440, Note_on_c, 8, 50, 89
10, 37500, Note_on_c, 8, 50, 0
10, 37500, Note_on_c, 8, 48, 94
10, 37560, Note_on_c, 8, 48, 0
10, 37560, Note_on_c, 8, 46, 89
10, 37590, Note_on_c, 8, 46, 0
10, 37620, Note_on_c, 8, 45, 82
10, 37650, Note_on_c, 8, 45, 0
10, 37680, Note_on_c, 8, 43, 89
10, 37710, Note_on_c, 8, 43, 0
10, 37740, Note_on_c, 8, 41, 89
10, 37770, Note_on_c, 8, 41, 0
10, 37800, Note_on_c, 8, 41, 93
10, 37860, Note_on_c, 8, 41, 0
10, 37860, Note_on_c, 8, 53, 73
10, 37920, Note_on_c, 8, 53, 0
10, 37920, Note_on_c, 8, 53, 77
10, 37980, Note_on_c, 8, 53, 0
10, 37980, Note_on_c, 8, 41, 94
10, 38040, Note_on_c, 8, 41, 0
10, 38040, Note_on_c, 8, 53, 76
10, 38100, Note_on_c, 8, 53, 0
10, 38100, Note_on_c, 8, 53, 78
10, 38160, Note_on_c, 8, 53, 0
10, 38160, Note_on_c, 8, 51, 86
10, 38220, Note_on_c, 8, 51, 0
10, 38220, Note_on_c, 8, 50, 99
10, 38280, Note_on_c, 8, 50, 0
10, 38280, Note_on_c, 8, 48, 94
10, 38310, Note_on_c, 8, 48, 0
10, 38340, Note_on_c, 8, 46, 93
10, 38370, Note_on_c, 8, 46, 0
10, 38400, Note_on_c, 8, 48, 94
10, 38430, Note_on_c, 8, 48, 0
10, 38460, Note_on_c, 8, 50, 104
10, 38490, Note_on_c, 8, 50, 0
10, 38520, Note_on_c, 8, 51, 84
10, 38580, Note_on_c, 8, 51, 0
10, 38580, Note_on_c, 8, 46, 90
10, 38640, Note_on_c, 8, 46, 0
10, 38640, Note_on_c, 8, 51, 85
10, 38670, Note_on_c, 8, 51, 0
10, 38700, Note_on_c, 8, 50, 95
10, 38760, Note_on_c, 8, 50, 0
10, 38760, Note_on_c, 8, 46, 84
10, 38820, Note_on_c, 8, 46, 0
10, 38820, Note_on_c, 8, 50, 99
10, 38850, Note_on_c, 8, 50, 0
10, 38880, Note_on_c, 8, 51, 81
10, 38940, Note_on_c, 8, 51, 0
10, 38940, Note_on_c, 8, 46, 89
10, 39000, Note_on_c, 8, 46, 0
10, 39000, Note_on_c, 8, 51, 86
10, 39030, Note_on_c, 8, 51, 0
10, 39060, Note_on_c, 8, 50, 99
10, 39120, Note_on_c, 8, 50, 0
10, 39120, Note_on_c, 8, 56, 89
10, 39180, Note_on_c, 8, 56, 0
10, 39180, Note_on_c, 8, 59, 81
10, 39210, Note_on_c, 8, 59, 0
10, 39240, Note_on_c, 8, 60, 81
10, 39300, Note_on_c, 8, 60, 0
10, 39300, Note_on_c, 8, 55, 76
10, 39360, Note_on_c, 8, 55, 0
10, 39360, Note_on_c, 8, 57, 99
10, 39390, Note_on_c, 8, 57, 0
10, 39420, Note_on_c, 8, 58, 73
10, 39480, Note_on_c, 8, 58, 0
10, 39480, Note_on_c, 8, 55, 89
10, 39540, Note_on_c, 8, 55, 0
10, 39540, Note_on_c, 8, 52, 95
10, 39570, Note_on_c, 8, 52, 0
10, 39600, Note_on_c, 8, 41, 94
10, 39660, Note_on_c, 8, 41, 0
10, 39660, Note_on_c, 8, 53, 76
10, 39720, Note_on_c, 8, 53, 0
10, 39720, Note_on_c, 8, 53, 76
10, 39780, Note_on_c, 8, 53, 0
10, 39780, Note_on_c, 8, 41, 89
10, 39840, Note_on_c, 8, 41, 0
10, 39840, Note_on_c, 8, 53, 72
10, 39900, Note_on_c, 8, 53, 0
10, 39900, Note_on_c, 8, 53, 76
10, 39960, Note_on_c, 8, 53, 0
10, 39960, Note_on_c, 8, 46, 86
10, 40080, Note_on_c, 8, 46, 0
10, 40320, Note_on_c, 8, 53, 68
10, 40440, Note_on_c, 8, 53, 0
10, 40680, Note_on_c, 8, 58, 76
10, 40710, Note_on_c, 8, 58, 0
10, 40740, Note_on_c, 8, 46, 89
10, 40770, Note_on_c, 8, 46, 0
10, 40800, Note_on_c, 8, 48, 93
10, 40830, Note_on_c, 8, 48, 0
10, 40860, Note_on_c, 8, 50, 89
10, 40890, Note_on_c, 8, 50, 0
10, 40920, Note_on_c, 8, 51, 89
10, 40950, Note_on_c, 8, 51, 0
10, 40980, Note_on_c, 8, 52, 99
10, 41010, Note_on_c, 8, 52, 0
10, 41040, Note_on_c, 8, 41, 93
10, 41100, Note_on_c, 8, 41, 0
10, 41100, Note_on_c, 8, 53, 74
10, 41160, Note_on_c, 8, 53, 0
10, 41160, Note_on_c, 8, 53, 86
10, 41220, Note_on_c, 8, 53, 0
10, 41220, Note_on_c, 8, 41, 94
10, 41280, Note_on_c, 8, 41, 0
10, 41280, Note_on_c, 8, 53, 84
10, 41340, Note_on_c, 8, 53, 0
10, 41340, Note_on_c, 8, 53, 80
10, 41400, Note_on_c, 8, 53, 0
10, 41400, Note_on_c, 8, 58, 89
10, 41430, Note_on_c, 8, 58, 0
10, 41460, Note_on_c, 8, 62, 99
10, 41700, Note_on_c, 8, 62, 0
10, 41700, Note_on_c, 8, 55, 84
10, 41730, Note_on_c, 8, 55, 0
10, 41760, Note_on_c, 8, 54, 81
10, 41790, Note_on_c, 8, 54, 0
10, 41820, Note_on_c, 8, 62, 104
10, 42060, Note_on_c, 8, 62, 0
10, 42060, Note_on_c, 8, 60, 93
10, 42090, Note_on_c, 8, 60, 0
10, 42120, Note_on_c, 8, 58, 89
10, 42150, Note_on_c, 8, 58, 0
10, 42180, Note_on_c, 8, 55, 89
10, 42210, Note_on_c, 8, 55, 0
10, 42240, Note_on_c, 8, 57, 104
10, 42270, Note_on_c, 8, 57, 0
10, 42300, Note_on_c, 8, 58, 89
10, 42330, Note_on_c, 8, 58, 0
10, 42360, Note_on_c, 8, 60, 89
10, 42390, Note_on_c, 8, 60, 0
10, 42420, Note_on_c, 8, 62, 80
10, 42450, Note_on_c, 8, 62, 0
10, 42480, Note_on_c, 8, 63, 80
10, 42510, Note_on_c, 8, 63, 0
10, 42540, Note_on_c, 8, 51, 86
10, 42600, Note_on_c, 8, 51, 0
10, 42600, Note_on_c, 8, 51, 90
10, 42660, Note_on_c, 8, 51, 0
10, 42660, Note_on_c, 8, 51, 89
10, 42720, Note_on_c, 8, 51, 0
10, 42720, Note_on_c, 8, 51, 89
10, 42780, Note_on_c, 8, 51, 0
10, 42780, Note_on_c, 8, 51, 89
10, 42840, Note_on_c, 8, 51, 0
10, 42840, Note_on_c, 8, 50, 99
10, 42960, Note_on_c, 8, 50, 0
10, 43200, Note_on_c, 8, 62, 104
10, 43320, Note_on_c, 8, 62, 0
10, 43320, Note_on_c, 8, 60, 104
10, 43350, Note_on_c, 8, 60, 0
10, 43380, Note_on_c, 8, 58, 101
10, 43410, Note_on_c, 8, 58, 0
10, 43440, Note_on_c, 8, 57, 115
10, 43470, Note_on_c, 8, 57, 0
10, 43500, Note_on_c, 8, 55, 104
10, 43530, Note_on_c, 8, 55, 0
10, 43560, Note_on_c, 8, 50, 105
10, 43680, Note_on_c, 8, 50, 0
10, 43920, Note_on_c, 8, 62, 110
10, 44040, Note_on_c, 8, 62, 0
10, 44040, Note_on_c, 8, 60, 99
10, 44070, Note_on_c, 8, 60, 0
10, 44100, Note_on_c, 8, 58, 101
10, 44130, Note_on_c, 8, 58, 0
10, 44160, Note_on_c, 8, 57, 107
10, 44190, Note_on_c, 8, 57, 0
10, 44220, Note_on_c, 8, 55, 104
10, 44250, Note_on_c, 8, 55, 0
10, 44280, Note_on_c, 8, 50, 105
10, 44310, Note_on_c, 8, 50, 0
10, 44340, Note_on_c, 8, 50, 110
10, 44400, Note_on_c, 8, 50, 0
10, 44400, Note_on_c, 8, 49, 98
10, 44460, Note_on_c, 8, 49, 0
10, 44460, Note_on_c, 8, 50, 107
10, 44490, Note_on_c, 8, 50, 0
10, 44520, Note_on_c, 8, 50, 105
10, 44580, Note_on_c, 8, 50, 0
10, 44580, Note_on_c, 8, 49, 99
10, 44640, Note_on_c, 8, 49, 0
10, 44640, Note_on_c, 8, 50, 107
10, 44670, Note_on_c, 8, 50, 0
10, 44700, Note_on_c, 8, 50, 104
10, 44760, Note_on_c, 8, 50, 0
10, 44760, Note_on_c, 8, 49, 99
10, 44820, Note_on_c, 8, 49, 0
10, 44820, Note_on_c, 8, 48, 105
10, 44850, Note_on_c, 8, 48, 0
10, 44880, Note_on_c, 8, 46, 95
10, 44910, Note_on_c, 8, 46, 0
10, 44940, Note_on_c, 8, 45, 105
10, 44970, Note_on_c, 8, 45, 0
10, 45000, Note_on_c, 8, 43, 72
10, 45120, Note_on_c, 8, 43, 0
10, 45180, Program_c, 8, 45
10, 45360, Note_on_c, 8, 58, 76
10, 45480, Note_on_c, 8, 58, 0
10, 45540, Note_on_c, 8, 55, 62
10, 45660, Note_on_c, 8, 55, 0
10, 45720, Note_on_c, 8, 50, 77
10, 45840, Note_on_c, 8, 50, 0
10, 45900, Note_on_c, 8, 55, 58
10, 46020, Note_on_c, 8, 55, 0
10, 46080, Note_on_c, 8, 50, 68
10, 46200, Note_on_c, 8, 50, 0
10, 46260, Note_on_c, 8, 55, 72
10, 46380, Note_on_c, 8, 55, 0
10, 46440, Note_on_c, 8, 57, 78
10, 46560, Note_on_c, 8, 57, 0
10, 46620, Note_on_c, 8, 45, 81
10, 46740, Note_on_c, 8, 45, 0
10, 46800, Note_on_c, 8, 50, 93
10, 46920, Note_on_c, 8, 50, 0
10, 46980, Note_on_c, 8, 57, 89
10, 47100, Note_on_c, 8, 57, 0
10, 47160, Note_on_c, 8, 62, 64
10, 47280, Note_on_c, 8, 62, 0
10, 47340, Note_on_c, 8, 57, 86
10, 47460, Note_on_c, 8, 57, 0
10, 47520, Note_on_c, 8, 50, 90
10, 47640, Note_on_c, 8, 50, 0
10, 48240, Note_on_c, 8, 55, 72
10, 48360, Note_on_c, 8, 55, 0
10, 48960, Note_on_c, 8, 48, 74
10, 49080, Note_on_c, 8, 48, 0
10, 49140, Note_on_c, 8, 55, 72
10, 49260, Note_on_c, 8, 55, 0
10, 49320, Note_on_c, 8, 51, 52
10, 49440, Note_on_c, 8, 51, 0
10, 49500, Note_on_c, 8, 48, 69
10, 49620, Note_on_c, 8, 48, 0
10, 49680, Note_on_c, 8, 43, 60
10, 49800, Note_on_c, 8, 43, 0
10, 49860, Note_on_c, 8, 48, 61
10, 49980, Note_on_c, 8, 48, 0
10, 50040, Note_on_c, 8, 43, 73
10, 50160, Note_on_c, 8, 43, 0
10, 50220, Note_on_c, 8, 48, 71
10, 50340, Note_on_c, 8, 48, 0
10, 50400, Note_on_c, 8, 53, 57
10, 50520, Note_on_c, 8, 53, 0
10, 50580, Note_on_c, 8, 55, 51
10, 50700, Note_on_c, 8, 55, 0
10, 50760, Note_on_c, 8, 51, 62
10, 50880, Note_on_c, 8, 51, 0
10, 50940, Note_on_c, 8, 56, 64
10, 51060, Note_on_c, 8, 56, 0
10, 51120, Note_on_c, 8, 53, 40
10, 51240, Note_on_c, 8, 53, 0
10, 51300, Note_on_c, 8, 55, 56
10, 51420, Note_on_c, 8, 55, 0
10, 51480, Note_on_c, 8, 48, 68
10, 51600, Note_on_c, 8, 48, 0
10, 52200, Note_on_c, 8, 53, 70
10, 52320, Note_on_c, 8, 53, 0
10, 52920, Note_on_c, 8, 46, 76
10, 53040, Note_on_c, 8, 46, 0
10, 53100, Note_on_c, 8, 53, 53
10, 53220, Note_on_c, 8, 53, 0
10, 53280, Note_on_c, 8, 49, 55
10, 53400, Note_on_c, 8, 49, 0
10, 53460, Note_on_c, 8, 46, 73
10, 53580, Note_on_c, 8, 46, 0
10, 53640, Note_on_c, 8, 41, 58
10, 53760, Note_on_c, 8, 41, 0
10, 53820, Note_on_c, 8, 46, 67
10, 53940, Note_on_c, 8, 46, 0
10, 54000, Note_on_c, 8, 41, 52
10, 54120, Note_on_c, 8, 41, 0
10, 54180, Note_on_c, 8, 46, 65
10, 54300, Note_on_c, 8, 46, 0
10, 54360, Note_on_c, 8, 46, 76
10, 54480, Note_on_c, 8, 46, 0
10, 54540, Note_on_c, 8, 53, 58
10, 54660, Note_on_c, 8, 53, 0
10, 54720, Note_on_c, 8, 49, 73
10, 54840, Note_on_c, 8, 49, 0
10, 54900, Note_on_c, 8, 46, 69
10, 55020, Note_on_c, 8, 46, 0
10, 55080, Note_on_c, 8, 53, 76
10, 55200, Note_on_c, 8, 53, 0
10, 55260, Note_on_c, 8, 58, 64
10, 55380, Note_on_c, 8, 58, 0
10, 55440, Note_on_c, 8, 53, 54
10, 55560, Note_on_c, 8, 53, 0
10, 55620, Note_on_c, 8, 58, 64
10, 55740, Note_on_c, 8, 58, 0
10, 55800, Note_on_c, 8, 51, 72
10, 55920, Note_on_c, 8, 51, 0
10, 55980, Note_on_c, 8, 53, 56
10, 56100, Note_on_c, 8, 53, 0
10, 56160, Note_on_c, 8, 46, 65
10, 56280, Note_on_c, 8, 46, 0
10, 56340, Note_on_c, 8, 58, 45
10, 56460, Note_on_c, 8, 58, 0
10, 56520, Note_on_c, 8, 51, 76
10, 56640, Note_on_c, 8, 51, 0
10, 56700, Note_on_c, 8, 53, 65
10, 56820, Note_on_c, 8, 53, 0
10, 56880, Note_on_c, 8, 46, 60
10, 57000, Note_on_c, 8, 46, 0
10, 57060, Note_on_c, 8, 56, 58
10, 57180, Note_on_c, 8, 56, 0
10, 57240, Note_on_c, 8, 55, 59
10, 57360, Note_on_c, 8, 55, 0
10, 57420, Note_on_c, 8, 54, 50
10, 57540, Note_on_c, 8, 54, 0
10, 57600, Note_on_c, 8, 53, 65
10, 57720, Note_on_c, 8, 53, 0
10, 58320, Note_on_c, 8, 53, 72
10, 58440, Note_on_c, 8, 53, 0
10, 59040, Note_on_c, 8, 53, 71
10, 59160, Note_on_c, 8, 53, 0
10, 59460, Program_c, 8, 45
10, 59760, Note_on_c, 8, 55, 64
10, 59880, Note_on_c, 8, 55, 0
10, 60480, Note_on_c, 8, 57, 81
10, 60600, Note_on_c, 8, 57, 0
10, 61200, Note_on_c, 8, 53, 68
10, 61320, Note_on_c, 8, 53, 0
10, 62040, Program_c, 8, 48
10, 64800, Note_on_c, 8, 46, 89
10, 64830, Note_on_c, 8, 46, 0
10, 64860, Note_on_c, 8, 50, 98
10, 64890, Note_on_c, 8, 50, 0
10, 64920, Note_on_c, 8, 53, 81
10, 64950, Note_on_c, 8, 53, 0
10, 64980, Note_on_c, 8, 46, 89
10, 65010, Note_on_c, 8, 46, 0
10, 65040, Note_on_c, 8, 50, 99
10, 65070, Note_on_c, 8, 50, 0
10, 65100, Note_on_c, 8, 53, 74
10, 65130, Note_on_c, 8, 53, 0
10, 65160, Note_on_c, 8, 50, 89
10, 65220, Note_on_c, 8, 50, 0
10, 65220, Note_on_c, 8, 48, 94
10, 65280, Note_on_c, 8, 48, 0
10, 65280, Note_on_c, 8, 46, 89
10, 65310, Note_on_c, 8, 46, 0
10, 65340, Note_on_c, 8, 45, 82
10, 65370, Note_on_c, 8, 45, 0
10, 65400, Note_on_c, 8, 43, 89
10, 65430, Note_on_c, 8, 43, 0
10, 65460, Note_on_c, 8, 41, 89
10, 65490, Note_on_c, 8, 41, 0
10, 65520, Note_on_c, 8, 41, 93
10, 65580, Note_on_c, 8, 41, 0
10, 65580, Note_on_c, 8, 53, 73
10, 65640, Note_on_c, 8, 53, 0
10, 65640, Note_on_c, 8, 53, 77
10, 65700, Note_on_c, 8, 53, 0
10, 65700, Note_on_c, 8, 41, 94
10, 65760, Note_on_c, 8, 41, 0
10, 65760, Note_on_c, 8, 53, 76
10, 65820, Note_on_c, 8, 53, 0
10, 65820, Note_on_c, 8, 53, 78
10, 65880, Note_on_c, 8, 53, 0
10, 65880, Note_on_c, 8, 51, 86
10, 65940, Note_on_c, 8, 51, 0
10, 65940, Note_on_c, 8, 50, 99
10, 66000, Note_on_c, 8, 50, 0
10, 66000, Note_on_c, 8, 48, 94
10, 66030, Note_on_c, 8, 48, 0
10, 66060, Note_on_c, 8, 46, 93
10, 66090, Note_on_c, 8, 46, 0
10, 66120, Note_on_c, 8, 48, 94
10, 66150, Note_on_c, 8, 48, 0
10, 66180, Note_on_c, 8, 50, 104
10, 66210, Note_on_c, 8, 50, 0
10, 66240, Note_on_c, 8, 51, 84
10, 66300, Note_on_c, 8, 51, 0
10, 66300, Note_on_c, 8, 46, 90
10, 66360, Note_on_c, 8, 46, 0
10, 66360, Note_on_c, 8, 51, 85
10, 66390, Note_on_c, 8, 51, 0
10, 66420, Note_on_c, 8, 50, 95
10, 66480, Note_on_c, 8, 50, 0
10, 66480, Note_on_c, 8, 46, 84
10, 66540, Note_on_c, 8, 46, 0
10, 66540, Note_on_c, 8, 50, 99
10, 66570, Note_on_c, 8, 50, 0
10, 66600, Note_on_c, 8, 51, 81
10, 66660, Note_on_c, 8, 51, 0
10, 66660, Note_on_c, 8, 46, 89
10, 66720, Note_on_c, 8, 46, 0
10, 66720, Note_on_c, 8, 51, 86
10, 66750, Note_on_c, 8, 51, 0
10, 66780, Note_on_c, 8, 50, 99
10, 66840, Note_on_c, 8, 50, 0
10, 66840, Note_on_c, 8, 56, 89
10, 66900, Note_on_c, 8, 56, 0
10, 66900, Note_on_c, 8, 59, 81
10, 66930, Note_on_c, 8, 59, 0
10, 66960, Note_on_c, 8, 60, 81
10, 67020, Note_on_c, 8, 60, 0
10, 67020, Note_on_c, 8, 55, 76
10, 67080, Note_on_c, 8, 55, 0
10, 67080, Note_on_c, 8, 57, 99
10, 67110, Note_on_c, 8, 57, 0
10, 67140, Note_on_c, 8, 58, 73
10, 67200, Note_on_c, 8, 58, 0
10, 67200, Note_on_c, 8, 55, 89
10, 67260, Note_on_c, 8, 55, 0
10, 67260, Note_on_c, 8, 52, 95
10, 67290, Note_on_c, 8, 52, 0
10, 67320, Note_on_c, 8, 41, 94
10, 67380, Note_on_c, 8, 41, 0
10, 67380, Note_on_c, 8, 53, 76
10, 67440, Note_on_c, 8, 53, 0
10, 67440, Note_on_c, 8, 53, 76
10, 67500, Note_on_c, 8, 53, 0
10, 67500, Note_on_c, 8, 41, 89
10, 67560, Note_on_c, 8, 41, 0
10, 67560, Note_on_c, 8, 53, 72
10, 67620, Note_on_c, 8, 53, 0
10, 67620, Note_on_c, 8, 53, 76
10, 67680, Note_on_c, 8, 53, 0
10, 67680, Note_on_c, 8, 46, 86
10, 67800, Note_on_c, 8, 46, 0
10, 68040, Note_on_c, 8, 53, 68
10, 68160, Note_on_c, 8, 53, 0
10, 68400, Note_on_c, 8, 58, 76
10, 68430, Note_on_c, 8, 58, 0
10, 68460, Note_on_c, 8, 46, 89
10, 68490, Note_on_c, 8, 46, 0
10, 68520, Note_on_c, 8, 48, 93
10, 68550, Note_on_c, 8, 48, 0
10, 68580, Note_on_c, 8, 50, 89
10, 68610, Note_on_c, 8, 50, 0
10, 68640, Note_on_c, 8, 51, 89
10, 68670, Note_on_c, 8, 51, 0
10, 68700, Note_on_c, 8, 52, 99
10, 68730, Note_on_c, 8, 52, 0
10, 68760, Note_on_c, 8, 41, 93
10, 68820, Note_on_c, 8, 41, 0
10, 68820, Note_on_c, 8, 53, 74
10, 68880, Note_on_c, 8, 53, 0
10, 68880, Note_on_c, 8, 53, 86
10, 68940, Note_on_c, 8, 53, 0
10, 68940, Note_on_c, 8, 41, 94
10, 69000, Note_on_c, 8, 41, 0
10, 69000, Note_on_c, 8, 53, 84
10, 69060, Note_on_c, 8, 53, 0
10, 69060, Note_on_c, 8, 53, 80
10, 69120, Note_on_c, 8, 53, 0
10, 69120, Note_on_c, 8, 46, 93
10, 69240, Note_on_c, 8, 46, 0
10, 69300, Note_on_c, 8, 58, 82
10, 69420, Note_on_c, 8, 58, 0
10, 69480, Note_on_c, 8, 46, 93
10, 69600, Note_on_c, 8, 46, 0
10, 69840, Note_on_c, 8, 58, 95
10, 70200, Note_on_c, 8, 58, 0
10, 70200, Note_on_c, 8, 53, 94
10, 70380, Note_on_c, 8, 53, 0
10, 70380, Note_on_c, 8, 50, 86
10, 70560, Note_on_c, 8, 50, 0
10, 70560, Note_on_c, 8, 46, 99
10, 70740, Note_on_c, 8, 46, 0
10, 70740, Note_on_c, 8, 55, 86
10, 70920, Note_on_c, 8, 55, 0
10, 70920, Note_on_c, 8, 50, 90
10, 71100, Note_on_c, 8, 50, 0
10, 71100, Note_on_c, 8, 52, 95
10, 71280, Note_on_c, 8, 52, 0
10, 71280, Note_on_c, 8, 53, 90
10, 71400, Note_on_c, 8, 53, 0
10, 72000, Note_on_c, 8, 56, 94
10, 72360, Note_on_c, 8, 56, 0
10, 72360, Note_on_c, 8, 53, 98
10, 72540, Note_on_c, 8, 53, 0
10, 72540, Note_on_c, 8, 50, 94
10, 72720, Note_on_c, 8, 50, 0
10, 72720, Note_on_c, 8, 46, 98
10, 72900, Note_on_c, 8, 46, 0
10, 72900, Note_on_c, 8, 56, 94
10, 73080, Note_on_c, 8, 56, 0
10, 73080, Note_on_c, 8, 53, 86
10, 73260, Note_on_c, 8, 53, 0
10, 73260, Note_on_c, 8, 50, 94
10, 73440, Note_on_c, 8, 50, 0
10, 73440, Note_on_c, 8, 51, 89
10, 73560, Note_on_c, 8, 51, 0
10, 76320, Note_on_c, 8, 53, 72
10, 76440, Note_on_c, 8, 53, 0
10, 76680, Note_on_c, 8, 60, 71
10, 76800, Note_on_c, 8, 60, 0
10, 77040, Note_on_c, 8, 53, 71
10, 77160, Note_on_c, 8, 53, 0
10, 77400, Note_on_c, 8, 48, 61
10, 77520, Note_on_c, 8, 48, 0
10, 77760, Note_on_c, 8, 53, 69
10, 77880, Note_on_c, 8, 53, 0
10, 78120, Note_on_c, 8, 53, 59
10, 78240, Note_on_c, 8, 53, 0
10, 78480, Note_on_c, 8, 53, 65
10, 78600, Note_on_c, 8, 53, 0
10, 82080, Note_on_c, 8, 58, 57
10, 82200, Note_on_c, 8, 58, 0
10, 82260, Note_on_c, 8, 57, 81
10, 82380, Note_on_c, 8, 57, 0
10, 82440, Note_on_c, 8, 55, 89
10, 82560, Note_on_c, 8, 55, 0
10, 82620, Note_on_c, 8, 51, 101
10, 82800, Note_on_c, 8, 51, 0
10, 83520, Note_on_c, 8, 58, 57
10, 83640, Note_on_c, 8, 58, 0
10, 83700, Note_on_c, 8, 57, 81
10, 83820, Note_on_c, 8, 57, 0
10, 83880, Note_on_c, 8, 55, 89
10, 84000, Note_on_c, 8, 55, 0
10, 84060, Note_on_c, 8, 55, 115
10, 84240, Note_on_c, 8, 55, 0
10, 84960, Note_on_c, 8, 51, 89
10, 85320, Note_on_c, 8, 51, 0
10, 85320, Note_on_c, 8, 50, 101
10, 85680, Note_on_c, 8, 50, 0
10, 85680, Note_on_c, 8, 57, 62
10, 85800, Note_on_c, 8, 57, 0
10, 85860, Note_on_c, 8, 57, 63
10, 85980, Note_on_c, 8, 57, 0
10, 86040, Note_on_c, 8, 58, 69
10, 86160, Note_on_c, 8, 58, 0
10, 86400, Note_on_c, 8, 51, 89
10, 86760, Note_on_c, 8, 51, 0
10, 86760, Note_on_c, 8, 50, 101
10, 87120, Note_on_c, 8, 50, 0
10, 87120, Note_on_c, 8, 57, 62
10, 87240, Note_on_c, 8, 57, 0
10, 87300, Note_on_c, 8, 57, 63
10, 87420, Note_on_c, 8, 57, 0
10, 87480, Note_on_c, 8, 58, 69
10, 87600, Note_on_c, 8, 58, 0
10, 88920, Note_on_c, 8, 51, 72
10, 89040, Note_on_c, 8, 51, 0
10, 89100, Note_on_c, 8, 51, 73
10, 89220, Note_on_c, 8, 51, 0
10, 89280, Note_on_c, 8, 53, 73
10, 89400, Note_on_c, 8, 53, 0
10, 89460, Note_on_c, 8, 53, 52
10, 89580, Note_on_c, 8, 53, 0
10, 93960, Note_on_c, 8, 55, 50
10, 94080, Note_on_c, 8, 55, 0
10, 94140, Note_on_c, 8, 55, 54
10, 94260, Note_on_c, 8, 55, 0
10, 94320, Note_on_c, 8, 55, 57
10, 94440, Note_on_c, 8, 55, 0
10, 94500, Note_on_c, 8, 50, 44
10, 94620, Note_on_c, 8, 50, 0
10, 94680, Note_on_c, 8, 50, 46
10, 94800, Note_on_c, 8, 50, 0
10, 94860, Note_on_c, 8, 50, 43
10, 94980, Note_on_c, 8, 50, 0
10, 95040, Note_on_c, 8, 50, 57
10, 95160, Note_on_c, 8, 50, 0
10, 95220, Note_on_c, 8, 55, 58
10, 95340, Note_on_c, 8, 55, 0
10, 95376, Control_c, 8, 7, 66
10, 95400, Note_on_c, 8, 55, 94
10, 95760, Note_on_c, 8, 55, 0
10, 95760, Note_on_c, 8, 48, 89
10, 96118, Control_c, 8, 7, 66
10, 96120, Note_on_c, 8, 48, 0
10, 96120, Note_on_c, 8, 53, 93
10, 96140, Control_c, 8, 7, 67
10, 96162, Control_c, 8, 7, 68
10, 96184, Control_c, 8, 7, 69
10, 96206, Control_c, 8, 7, 70
10, 96228, Control_c, 8, 7, 71
10, 96250, Control_c, 8, 7, 72
10, 96272, Control_c, 8, 7, 73
10, 96294, Control_c, 8, 7, 74
10, 96316, Control_c, 8, 7, 75
10, 96338, Control_c, 8, 7, 76
10, 96360, Control_c, 8, 7, 77
10, 96382, Control_c, 8, 7, 78
10, 96404, Control_c, 8, 7, 79
10, 96426, Control_c, 8, 7, 80
10, 96448, Control_c, 8, 7, 81
10, 96470, Control_c, 8, 7, 82
10, 96490, Control_c, 8, 7, 83
10, 96512, Control_c, 8, 7, 84
10, 96534, Control_c, 8, 7, 85
10, 96556, Control_c, 8, 7, 86
10, 96578, Control_c, 8, 7, 87
10, 96600, Control_c, 8, 7, 88
10, 96622, Control_c, 8, 7, 89
10, 96644, Control_c, 8, 7, 90
10, 96666, Control_c, 8, 7, 91
10, 96688, Control_c, 8, 7, 92
10, 96710, Control_c, 8, 7, 93
10, 96732, Control_c, 8, 7, 94
10, 96754, Control_c, 8, 7, 95
10, 96776, Control_c, 8, 7, 96
10, 96798, Control_c, 8, 7, 97
10, 96820, Control_c, 8, 7, 98
10, 96840, Note_on_c, 8, 53, 0
10, 96840, Note_on_c, 8, 46, 99
10, 96840, Control_c, 8, 7, 99
10, 96870, Note_on_c, 8, 46, 0
10, 96900, Note_on_c, 8, 50, 107
10, 96930, Note_on_c, 8, 50, 0
10, 96960, Note_on_c, 8, 53, 90
10, 96990, Note_on_c, 8, 53, 0
10, 97020, Note_on_c, 8, 46, 98
10, 97050, Note_on_c, 8, 46, 0
10, 97080, Note_on_c, 8, 50, 107
10, 97110, Note_on_c, 8, 50, 0
10, 97140, Note_on_c, 8, 53, 94
10, 97170, Note_on_c, 8, 53, 0
10, 97200, Note_on_c, 8, 50, 99
10, 97260, Note_on_c, 8, 50, 0
10, 97260, Note_on_c, 8, 48, 101
10, 97320, Note_on_c, 8, 48, 0
10, 97320, Note_on_c, 8, 46, 99
10, 97380, Note_on_c, 8, 46, 0
10, 97380, Note_on_c, 8, 45, 89
10, 97410, Note_on_c, 8, 45, 0
10, 97440, Note_on_c, 8, 43, 95
10, 97470, Note_on_c, 8, 43, 0
10, 97500, Note_on_c, 8, 41, 99
10, 97530, Note_on_c, 8, 41, 0
10, 97560, Note_on_c, 8, 41, 104
10, 97620, Note_on_c, 8, 41, 0
10, 97620, Note_on_c, 8, 53, 98
10, 97680, Note_on_c, 8, 53, 0
10, 97680, Note_on_c, 8, 53, 104
10, 97740, Note_on_c, 8, 53, 0
10, 97740, Note_on_c, 8, 41, 110
10, 97800, Note_on_c, 8, 41, 0
10, 97800, Note_on_c, 8, 53, 93
10, 97860, Note_on_c, 8, 53, 0
10, 97860, Note_on_c, 8, 53, 99
10, 97920, Note_on_c, 8, 53, 0
10, 97920, Note_on_c, 8, 51, 95
10, 97980, Note_on_c, 8, 51, 0
10, 97980, Note_on_c, 8, 50, 107
10, 98040, Note_on_c, 8, 50, 0
10, 98040, Note_on_c, 8, 48, 104
10, 98070, Note_on_c, 8, 48, 0
10, 98100, Note_on_c, 8, 46, 99
10, 98130, Note_on_c, 8, 46, 0
10, 98160, Note_on_c, 8, 48, 101
10, 98190, Note_on_c, 8, 48, 0
10, 98220, Note_on_c, 8, 50, 105
10, 98250, Note_on_c, 8, 50, 0
10, 98280, Note_on_c, 8, 51, 107
10, 98340, Note_on_c, 8, 51, 0
10, 98340, Note_on_c, 8, 46, 105
10, 98400, Note_on_c, 8, 46, 0
10, 98400, Note_on_c, 8, 51, 98
10, 98430, Note_on_c, 8, 51, 0
10, 98460, Note_on_c, 8, 50, 105
10, 98520, Note_on_c, 8, 50, 0
10, 98520, Note_on_c, 8, 46, 98
10, 98580, Note_on_c, 8, 46, 0
10, 98580, Note_on_c, 8, 50, 99
10, 98610, Note_on_c, 8, 50, 0
10, 98640, Note_on_c, 8, 51, 110
10, 98700, Note_on_c, 8, 51, 0
10, 98700, Note_on_c, 8, 46, 99
10, 98760, Note_on_c, 8, 46, 0
10, 98760, Note_on_c, 8, 51, 115
10, 98790, Note_on_c, 8, 51, 0
10, 98820, Note_on_c, 8, 50, 112
10, 98880, Note_on_c, 8, 50, 0
10, 98880, Note_on_c, 8, 57, 110
10, 98940, Note_on_c, 8, 57, 0
10, 98940, Note_on_c, 8, 59, 105
10, 98970, Note_on_c, 8, 59, 0
10, 99000, Note_on_c, 8, 60, 94
10, 99060, Note_on_c, 8, 60, 0
10, 99060, Note_on_c, 8, 55, 99
10, 99120, Note_on_c, 8, 55, 0
10, 99120, Note_on_c, 8, 57, 107
10, 99150, Note_on_c, 8, 57, 0
10, 99180, Note_on_c, 8, 58, 99
10, 99240, Note_on_c, 8, 58, 0
10, 99240, Note_on_c, 8, 55, 98
10, 99300, Note_on_c, 8, 55, 0
10, 99300, Note_on_c, 8, 52, 104
10, 99330, Note_on_c, 8, 52, 0
10, 99360, Note_on_c, 8, 41, 105
10, 99420, Note_on_c, 8, 41, 0
10, 99420, Note_on_c, 8, 53, 105
10, 99480, Note_on_c, 8, 53, 0
10, 99480, Note_on_c, 8, 53, 95
10, 99540, Note_on_c, 8, 53, 0
10, 99540, Note_on_c, 8, 41, 105
10, 99600, Note_on_c, 8, 41, 0
10, 99600, Note_on_c, 8, 53, 94
10, 99660, Note_on_c, 8, 53, 0
10, 99660, Note_on_c, 8, 53, 89
10, 99720, Note_on_c, 8, 53, 0
10, 99720, Note_on_c, 8, 46, 67
10, 100440, Note_on_c, 8, 46, 0
10, 100440, Note_on_c, 8, 46, 71
10, 101160, Note_on_c, 8, 46, 0
10, 101160, Note_on_c, 8, 46, 69
10, 101280, Note_on_c, 8, 46, 0
10, 102600, Note_on_c, 8, 46, 67
10, 103320, Note_on_c, 8, 46, 0
10, 103320, Note_on_c, 8, 46, 71
10, 104040, Note_on_c, 8, 46, 0
10, 104040, Note_on_c, 8, 46, 69
10, 104160, Note_on_c, 8, 46, 0
10, 105480, Note_on_c, 8, 50, 76
10, 105540, Note_on_c, 8, 50, 0
10, 105600, Note_on_c, 8, 55, 68
10, 105630, Note_on_c, 8, 55, 0
10, 105660, Note_on_c, 8, 51, 59
10, 105720, Note_on_c, 8, 51, 0
10, 105780, Note_on_c, 8, 53, 58
10, 105810, Note_on_c, 8, 53, 0
10, 106200, Note_on_c, 8, 50, 76
10, 106260, Note_on_c, 8, 50, 0
10, 106320, Note_on_c, 8, 55, 68
10, 106350, Note_on_c, 8, 55, 0
10, 106380, Note_on_c, 8, 51, 59
10, 106440, Note_on_c, 8, 51, 0
10, 106500, Note_on_c, 8, 53, 58
10, 106530, Note_on_c, 8, 53, 0
10, 106560, Note_on_c, 8, 50, 69
10, 106620, Note_on_c, 8, 50, 0
10, 106680, Note_on_c, 8, 55, 57
10, 106710, Note_on_c, 8, 55, 0
10, 106740, Note_on_c, 8, 51, 61
10, 106800, Note_on_c, 8, 51, 0
10, 106860, Note_on_c, 8, 53, 45
10, 106890, Note_on_c, 8, 53, 0
10, 106920, Note_on_c, 8, 46, 65
10, 107040, Note_on_c, 8, 46, 0
10, 107280, Note_on_c, 8, 53, 68
10, 107400, Note_on_c, 8, 53, 0
10, 107640, Note_on_c, 8, 58, 64
10, 107760, Note_on_c, 8, 58, 0
10, 108000, Note_on_c, 8, 53, 65
10, 108120, Note_on_c, 8, 53, 0
10, 108360, Note_on_c, 8, 46, 60
10, 108480, Note_on_c, 8, 46, 0
10, 108720, Note_on_c, 8, 53, 68
10, 108840, Note_on_c, 8, 53, 0
10, 109080, Note_on_c, 8, 58, 46
10, 109200, Note_on_c, 8, 58, 0
10, 109440, Note_on_c, 8, 53, 65
10, 109560, Note_on_c, 8, 53, 0
10, 109800, Note_on_c, 8, 46, 60
10, 109920, Note_on_c, 8, 46, 0
10, 109980, Note_on_c, 8, 46, 40
10, 110100, Note_on_c, 8, 46, 0
10, 110700, Note_on_c, 8, 58, 35
10, 110820, Note_on_c, 8, 58, 0
10, 111420, Note_on_c, 8, 58, 33
10, 111540, Note_on_c, 8, 58, 0
10, 114960, Program_c, 8, 45
10, 115200, Note_on_c, 8, 55, 57
10, 115320, Note_on_c, 8, 55, 0
10, 115560, Note_on_c, 8, 48, 44
10, 115680, Note_on_c, 8, 48, 0
10, 115680, Program_c, 8, 48
10, 115920, Note_on_c, 8, 53, 95
10, 116040, Note_on_c, 8, 53, 0
10, 116280, Note_on_c, 8, 46, 99
10, 116340, Note_on_c, 8, 46, 0
10, 116340, Note_on_c, 8, 50, 105
10, 116400, Note_on_c, 8, 50, 0
10, 116400, Note_on_c, 8, 53, 94
10, 116460, Note_on_c, 8, 53, 0
10, 116460, Note_on_c, 8, 58, 90
10, 116520, Note_on_c, 8, 58, 0
10, 116520, Note_on_c, 8, 53, 101
10, 116580, Note_on_c, 8, 53, 0
10, 116580, Note_on_c, 8, 50, 110
10, 116640, Note_on_c, 8, 50, 0
10, 116640, Note_on_c, 8, 46, 99
10, 116700, Note_on_c, 8, 46, 0
10, 116700, Note_on_c, 8, 50, 107
10, 116760, Note_on_c, 8, 50, 0
10, 116760, Note_on_c, 8, 53, 99
10, 116820, Note_on_c, 8, 53, 0
10, 116820, Note_on_c, 8, 58, 110
10, 116880, Note_on_c, 8, 58, 0
10, 116880, Note_on_c, 8, 53, 104
10, 116940, Note_on_c, 8, 53, 0
10, 116940, Note_on_c, 8, 50, 112
10, 117000, Note_on_c, 8, 50, 0
10, 117000, Note_on_c, 8, 46, 107
10, 117120, Note_on_c, 8, 46, 0
10, 117180, Note_on_c, 8, 58, 95
10, 117300, Note_on_c, 8, 58, 0
10, 117360, Note_on_c, 8, 46, 99
10, 117480, Note_on_c, 8, 46, 0
10, 117490, Control_c, 8, 7, 99
10, 117490, Control_c, 8, 10, 103
10, 117490, Control_c, 8, 93, 0
10, 117490, Control_c, 8, 91, 66
10, 117490, End_track
11, 0, Start_track
11, 0, Title_t, "Contrabasses"
11, 0, Program_c, 10, 48
11, 0, Control_c, 10, 7, 127
11, 0, Control_c, 10, 10, 71
11, 2880, Note_on_c, 10, 34, 89
11, 2910, Note_on_c, 10, 34, 0
11, 2940, Note_on_c, 10, 38, 98
11, 2970, Note_on_c, 10, 38, 0
11, 3000, Note_on_c, 10, 41, 81
11, 3030, Note_on_c, 10, 41, 0
11, 3060, Note_on_c, 10, 34, 89
11, 3090, Note_on_c, 10, 34, 0
11, 3120, Note_on_c, 10, 38, 99
11, 3150, Note_on_c, 10, 38, 0
11, 3180, Note_on_c, 10, 41, 74
11, 3210, Note_on_c, 10, 41, 0
11, 3240, Note_on_c, 10, 38, 89
11, 3300, Note_on_c, 10, 38, 0
11, 3300, Note_on_c, 10, 36, 94
11, 3360, Note_on_c, 10, 36, 0
11, 3360, Note_on_c, 10, 34, 89
11, 3390, Note_on_c, 10, 34, 0
11, 3420, Note_on_c, 10, 33, 82
11, 3450, Note_on_c, 10, 33, 0
11, 3480, Note_on_c, 10, 31, 89
11, 3510, Note_on_c, 10, 31, 0
11, 3540, Note_on_c, 10, 29, 89
11, 3570, Note_on_c, 10, 29, 0
11, 3600, Note_on_c, 10, 29, 93
11, 3660, Note_on_c, 10, 29, 0
11, 3660, Note_on_c, 10, 41, 73
11, 3720, Note_on_c, 10, 41, 0
11, 3720, Note_on_c, 10, 41, 77
11, 3780, Note_on_c, 10, 41, 0
11, 3780, Note_on_c, 10, 29, 94
11, 3840, Note_on_c, 10, 29, 0
11, 3840, Note_on_c, 10, 41, 76
11, 3900, Note_on_c, 10, 41, 0
11, 3900, Note_on_c, 10, 41, 78
11, 3960, Note_on_c, 10, 41, 0
11, 3960, Note_on_c, 10, 39, 86
11, 4020, Note_on_c, 10, 39, 0
11, 4020, Note_on_c, 10, 38, 99
11, 4080, Note_on_c, 10, 38, 0
11, 4080, Note_on_c, 10, 36, 94
11, 4110, Note_on_c, 10, 36, 0
11, 4140, Note_on_c, 10, 34, 93
11, 4170, Note_on_c, 10, 34, 0
11, 4200, Note_on_c, 10, 36, 94
11, 4230, Note_on_c, 10, 36, 0
11, 4260, Note_on_c, 10, 38, 104
11, 4290, Note_on_c, 10, 38, 0
11, 4320, Note_on_c, 10, 39, 84
11, 4380, Note_on_c, 10, 39, 0
11, 4380, Note_on_c, 10, 34, 90
11, 4440, Note_on_c, 10, 34, 0
11, 4440, Note_on_c, 10, 39, 85
11, 4470, Note_on_c, 10, 39, 0
11, 4500, Note_on_c, 10, 38, 95
11, 4560, Note_on_c, 10, 38, 0
11, 4560, Note_on_c, 10, 34, 84
11, 4620, Note_on_c, 10, 34, 0
11, 4620, Note_on_c, 10, 38, 99
11, 4650, Note_on_c, 10, 38, 0
11, 4680, Note_on_c, 10, 39, 81
11, 4740, Note_on_c, 10, 39, 0
11, 4740, Note_on_c, 10, 34, 89
11, 4800, Note_on_c, 10, 34, 0
11, 4800, Note_on_c, 10, 39, 86
11, 4830, Note_on_c, 10, 39, 0
11, 4860, Note_on_c, 10, 38, 99
11, 4920, Note_on_c, 10, 38, 0
11, 4920, Note_on_c, 10, 44, 89
11, 4980, Note_on_c, 10, 44, 0
11, 4980, Note_on_c, 10, 47, 81
11, 5010, Note_on_c, 10, 47, 0
11, 5040, Note_on_c, 10, 48, 81
11, 5100, Note_on_c, 10, 48, 0
11, 5100, Note_on_c, 10, 43, 76
11, 5160, Note_on_c, 10, 43, 0
11, 5160, Note_on_c, 10, 45, 99
11, 5190, Note_on_c, 10, 45, 0
11, 5220, Note_on_c, 10, 46, 73
11, 5280, Note_on_c, 10, 46, 0
11, 5280, Note_on_c, 10, 43, 89
11, 5340, Note_on_c, 10, 43, 0
11, 5340, Note_on_c, 10, 40, 95
11, 5370, Note_on_c, 10, 40, 0
11, 5400, Note_on_c, 10, 29, 94
11, 5460, Note_on_c, 10, 29, 0
11, 5460, Note_on_c, 10, 41, 76
11, 5520, Note_on_c, 10, 41, 0
11, 5520, Note_on_c, 10, 41, 76
11, 5580, Note_on_c, 10, 41, 0
11, 5580, Note_on_c, 10, 29, 89
11, 5640, Note_on_c, 10, 29, 0
11, 5640, Note_on_c, 10, 41, 72
11, 5700, Note_on_c, 10, 41, 0
11, 5700, Note_on_c, 10, 41, 76
11, 5760, Note_on_c, 10, 41, 0
11, 5760, Note_on_c, 10, 34, 86
11, 5880, Note_on_c, 10, 34, 0
11, 6120, Note_on_c, 10, 41, 68
11, 6240, Note_on_c, 10, 41, 0
11, 6480, Note_on_c, 10, 46, 76
11, 6510, Note_on_c, 10, 46, 0
11, 6540, Note_on_c, 10, 34, 89
11, 6570, Note_on_c, 10, 34, 0
11, 6600, Note_on_c, 10, 36, 93
11, 6630, Note_on_c, 10, 36, 0
11, 6660, Note_on_c, 10, 38, 89
11, 6690, Note_on_c, 10, 38, 0
11, 6720, Note_on_c, 10, 39, 89
11, 6750, Note_on_c, 10, 39, 0
11, 6780, Note_on_c, 10, 40, 99
11, 6810, Note_on_c, 10, 40, 0
11, 6840, Note_on_c, 10, 29, 93
11, 6900, Note_on_c, 10, 29, 0
11, 6900, Note_on_c, 10, 41, 74
11, 6960, Note_on_c, 10, 41, 0
11, 6960, Note_on_c, 10, 41, 86
11, 7020, Note_on_c, 10, 41, 0
11, 7020, Note_on_c, 10, 29, 94
11, 7080, Note_on_c, 10, 29, 0
11, 7080, Note_on_c, 10, 41, 84
11, 7140, Note_on_c, 10, 41, 0
11, 7140, Note_on_c, 10, 41, 80
11, 7200, Note_on_c, 10, 41, 0
11, 7200, Note_on_c, 10, 34, 93
11, 7320, Note_on_c, 10, 34, 0
11, 7380, Note_on_c, 10, 46, 82
11, 7500, Note_on_c, 10, 46, 0
11, 7560, Note_on_c, 10, 34, 93
11, 7680, Note_on_c, 10, 34, 0
11, 7920, Note_on_c, 10, 46, 95
11, 8280, Note_on_c, 10, 46, 0
11, 8280, Note_on_c, 10, 41, 94
11, 8460, Note_on_c, 10, 41, 0
11, 8460, Note_on_c, 10, 38, 86
11, 8640, Note_on_c, 10, 38, 0
11, 8640, Note_on_c, 10, 34, 99
11, 8820, Note_on_c, 10, 34, 0
11, 8820, Note_on_c, 10, 43, 86
11, 9000, Note_on_c, 10, 43, 0
11, 9000, Note_on_c, 10, 38, 90
11, 9180, Note_on_c, 10, 38, 0
11, 9180, Note_on_c, 10, 40, 95
11, 9360, Note_on_c, 10, 40, 0
11, 9360, Note_on_c, 10, 41, 90
11, 9480, Note_on_c, 10, 41, 0
11, 10080, Note_on_c, 10, 53, 95
11, 10440, Note_on_c, 10, 53, 0
11, 10440, Note_on_c, 10, 48, 99
11, 10620, Note_on_c, 10, 48, 0
11, 10620, Note_on_c, 10, 45, 86
11, 10800, Note_on_c, 10, 45, 0
11, 10800, Note_on_c, 10, 41, 94
11, 10980, Note_on_c, 10, 41, 0
11, 10980, Note_on_c, 10, 38, 84
11, 11160, Note_on_c, 10, 38, 0
11, 11160, Note_on_c, 10, 33, 82
11, 11340, Note_on_c, 10, 33, 0
11, 11340, Note_on_c, 10, 35, 89
11, 11520, Note_on_c, 10, 35, 0
11, 11520, Note_on_c, 10, 36, 90
11, 11640, Note_on_c, 10, 36, 0
11, 14400, Note_on_c, 10, 36, 69
11, 14520, Note_on_c, 10, 36, 0
11, 14760, Note_on_c, 10, 31, 76
11, 14880, Note_on_c, 10, 31, 0
11, 15120, Note_on_c, 10, 36, 76
11, 15240, Note_on_c, 10, 36, 0
11, 15480, Note_on_c, 10, 43, 76
11, 15600, Note_on_c, 10, 43, 0
11, 15840, Note_on_c, 10, 36, 78
11, 15960, Note_on_c, 10, 36, 0
11, 16200, Note_on_c, 10, 36, 76
11, 16320, Note_on_c, 10, 36, 0
11, 16560, Note_on_c, 10, 36, 76
11, 16680, Note_on_c, 10, 36, 0
11, 20160, Note_on_c, 10, 41, 64
11, 20280, Note_on_c, 10, 41, 0
11, 20340, Note_on_c, 10, 40, 80
11, 20460, Note_on_c, 10, 40, 0
11, 20520, Note_on_c, 10, 38, 86
11, 20640, Note_on_c, 10, 38, 0
11, 20700, Note_on_c, 10, 34, 101
11, 20880, Note_on_c, 10, 34, 0
11, 21600, Note_on_c, 10, 41, 63
11, 21720, Note_on_c, 10, 41, 0
11, 21780, Note_on_c, 10, 40, 82
11, 21900, Note_on_c, 10, 40, 0
11, 21960, Note_on_c, 10, 38, 95
11, 22080, Note_on_c, 10, 38, 0
11, 22140, Note_on_c, 10, 50, 94
11, 22320, Note_on_c, 10, 50, 0
11, 23040, Note_on_c, 10, 46, 86
11, 23400, Note_on_c, 10, 46, 0
11, 23400, Note_on_c, 10, 45, 104
11, 23760, Note_on_c, 10, 45, 0
11, 23760, Note_on_c, 10, 40, 65
11, 23880, Note_on_c, 10, 40, 0
11, 23940, Note_on_c, 10, 40, 68
11, 24060, Note_on_c, 10, 40, 0
11, 24120, Note_on_c, 10, 41, 68
11, 24240, Note_on_c, 10, 41, 0
11, 24480, Note_on_c, 10, 46, 86
11, 24840, Note_on_c, 10, 46, 0
11, 24840, Note_on_c, 10, 45, 104
11, 25200, Note_on_c, 10, 45, 0
11, 25200, Note_on_c, 10, 40, 65
11, 25320, Note_on_c, 10, 40, 0
11, 25380, Note_on_c, 10, 40, 68
11, 25500, Note_on_c, 10, 40, 0
11, 25560, Note_on_c, 10, 41, 68
11, 25680, Note_on_c, 10, 41, 0
11, 27000, Note_on_c, 10, 46, 66
11, 27120, Note_on_c, 10, 46, 0
11, 27180, Note_on_c, 10, 46, 60
11, 27300, Note_on_c, 10, 46, 0
11, 27360, Note_on_c, 10, 48, 58
11, 27480, Note_on_c, 10, 48, 0
11, 27540, Note_on_c, 10, 36, 58
11, 27660, Note_on_c, 10, 36, 0
11, 29160, Note_on_c, 10, 34, 62
11, 29280, Note_on_c, 10, 34, 0
11, 29520, Note_on_c, 10, 46, 53
11, 29640, Note_on_c, 10, 46, 0
11, 29880, Note_on_c, 10, 46, 53
11, 30000, Note_on_c, 10, 46, 0
11, 30600, Note_on_c, 10, 36, 50
11, 30720, Note_on_c, 10, 36, 0
11, 30960, Note_on_c, 10, 48, 62
11, 31080, Note_on_c, 10, 48, 0
11, 31320, Note_on_c, 10, 48, 53
11, 31440, Note_on_c, 10, 48, 0
11, 37080, Note_on_c, 10, 34, 89
11, 37110, Note_on_c, 10, 34, 0
11, 37140, Note_on_c, 10, 38, 98
11, 37170, Note_on_c, 10, 38, 0
11, 37200, Note_on_c, 10, 41, 81
11, 37230, Note_on_c, 10, 41, 0
11, 37260, Note_on_c, 10, 34, 89
11, 37290, Note_on_c, 10, 34, 0
11, 37320, Note_on_c, 10, 38, 99
11, 37350, Note_on_c, 10, 38, 0
11, 37380, Note_on_c, 10, 41, 74
11, 37410, Note_on_c, 10, 41, 0
11, 37440, Note_on_c, 10, 38, 89
11, 37500, Note_on_c, 10, 38, 0
11, 37500, Note_on_c, 10, 36, 94
11, 37560, Note_on_c, 10, 36, 0
11, 37560, Note_on_c, 10, 34, 89
11, 37590, Note_on_c, 10, 34, 0
11, 37620, Note_on_c, 10, 33, 82
11, 37650, Note_on_c, 10, 33, 0
11, 37680, Note_on_c, 10, 31, 89
11, 37710, Note_on_c, 10, 31, 0
11, 37740, Note_on_c, 10, 29, 89
11, 37770, Note_on_c, 10, 29, 0
11, 37800, Note_on_c, 10, 29, 93
11, 37860, Note_on_c, 10, 29, 0
11, 37860, Note_on_c, 10, 41, 73
11, 37920, Note_on_c, 10, 41, 0
11, 37920, Note_on_c, 10, 41, 77
11, 37980, Note_on_c, 10, 41, 0
11, 37980, Note_on_c, 10, 29, 94
11, 38040, Note_on_c, 10, 29, 0
11, 38040, Note_on_c, 10, 41, 76
11, 38100, Note_on_c, 10, 41, 0
11, 38100, Note_on_c, 10, 41, 78
11, 38160, Note_on_c, 10, 41, 0
11, 38160, Note_on_c, 10, 39, 86
11, 38220, Note_on_c, 10, 39, 0
11, 38220, Note_on_c, 10, 38, 99
11, 38280, Note_on_c, 10, 38, 0
11, 38280, Note_on_c, 10, 36, 94
11, 38310, Note_on_c, 10, 36, 0
11, 38340, Note_on_c, 10, 34, 93
11, 38370, Note_on_c, 10, 34, 0
11, 38400, Note_on_c, 10, 36, 94
11, 38430, Note_on_c, 10, 36, 0
11, 38460, Note_on_c, 10, 38, 104
11, 38490, Note_on_c, 10, 38, 0
11, 38520, Note_on_c, 10, 39, 84
11, 38580, Note_on_c, 10, 39, 0
11, 38580, Note_on_c, 10, 34, 90
11, 38640, Note_on_c, 10, 34, 0
11, 38640, Note_on_c, 10, 39, 85
11, 38670, Note_on_c, 10, 39, 0
11, 38700, Note_on_c, 10, 38, 95
11, 38760, Note_on_c, 10, 38, 0
11, 38760, Note_on_c, 10, 34, 84
11, 38820, Note_on_c, 10, 34, 0
11, 38820, Note_on_c, 10, 38, 99
11, 38850, Note_on_c, 10, 38, 0
11, 38880, Note_on_c, 10, 39, 81
11, 38940, Note_on_c, 10, 39, 0
11, 38940, Note_on_c, 10, 34, 89
11, 39000, Note_on_c, 10, 34, 0
11, 39000, Note_on_c, 10, 39, 86
11, 39030, Note_on_c, 10, 39, 0
11, 39060, Note_on_c, 10, 38, 99
11, 39120, Note_on_c, 10, 38, 0
11, 39120, Note_on_c, 10, 44, 89
11, 39180, Note_on_c, 10, 44, 0
11, 39180, Note_on_c, 10, 47, 81
11, 39210, Note_on_c, 10, 47, 0
11, 39240, Note_on_c, 10, 48, 81
11, 39300, Note_on_c, 10, 48, 0
11, 39300, Note_on_c, 10, 43, 76
11, 39360, Note_on_c, 10, 43, 0
11, 39360, Note_on_c, 10, 45, 99
11, 39390, Note_on_c, 10, 45, 0
11, 39420, Note_on_c, 10, 46, 73
11, 39480, Note_on_c, 10, 46, 0
11, 39480, Note_on_c, 10, 43, 89
11, 39540, Note_on_c, 10, 43, 0
11, 39540, Note_on_c, 10, 40, 95
11, 39570, Note_on_c, 10, 40, 0
11, 39600, Note_on_c, 10, 29, 94
11, 39660, Note_on_c, 10, 29, 0
11, 39660, Note_on_c, 10, 41, 76
11, 39720, Note_on_c, 10, 41, 0
11, 39720, Note_on_c, 10, 41, 76
11, 39780, Note_on_c, 10, 41, 0
11, 39780, Note_on_c, 10, 29, 89
11, 39840, Note_on_c, 10, 29, 0
11, 39840, Note_on_c, 10, 41, 72
11, 39900, Note_on_c, 10, 41, 0
11, 39900, Note_on_c, 10, 41, 76
11, 39960, Note_on_c, 10, 41, 0
11, 39960, Note_on_c, 10, 34, 86
11, 40080, Note_on_c, 10, 34, 0
11, 40320, Note_on_c, 10, 41, 68
11, 40440, Note_on_c, 10, 41, 0
11, 40680, Note_on_c, 10, 46, 76
11, 40710, Note_on_c, 10, 46, 0
11, 40740, Note_on_c, 10, 34, 89
11, 40770, Note_on_c, 10, 34, 0
11, 40800, Note_on_c, 10, 36, 93
11, 40830, Note_on_c, 10, 36, 0
11, 40860, Note_on_c, 10, 38, 89
11, 40890, Note_on_c, 10, 38, 0
11, 40920, Note_on_c, 10, 39, 89
11, 40950, Note_on_c, 10, 39, 0
11, 40980, Note_on_c, 10, 40, 99
11, 41010, Note_on_c, 10, 40, 0
11, 41040, Note_on_c, 10, 29, 93
11, 41100, Note_on_c, 10, 29, 0
11, 41100, Note_on_c, 10, 41, 74
11, 41160, Note_on_c, 10, 41, 0
11, 41160, Note_on_c, 10, 41, 86
11, 41220, Note_on_c, 10, 41, 0
11, 41220, Note_on_c, 10, 29, 94
11, 41280, Note_on_c, 10, 29, 0
11, 41280, Note_on_c, 10, 41, 84
11, 41340, Note_on_c, 10, 41, 0
11, 41340, Note_on_c, 10, 41, 80
11, 41400, Note_on_c, 10, 41, 0
11, 41400, Note_on_c, 10, 46, 89
11, 41430, Note_on_c, 10, 46, 0
11, 41460, Note_on_c, 10, 50, 99
11, 41700, Note_on_c, 10, 50, 0
11, 41700, Note_on_c, 10, 43, 84
11, 41730, Note_on_c, 10, 43, 0
11, 41760, Note_on_c, 10, 42, 81
11, 41790, Note_on_c, 10, 42, 0
11, 41820, Note_on_c, 10, 50, 104
11, 42060, Note_on_c, 10, 50, 0
11, 42060, Note_on_c, 10, 48, 93
11, 42090, Note_on_c, 10, 48, 0
11, 42120, Note_on_c, 10, 46, 89
11, 42150, Note_on_c, 10, 46, 0
11, 42180, Note_on_c, 10, 43, 89
11, 42210, Note_on_c, 10, 43, 0
11, 42240, Note_on_c, 10, 45, 104
11, 42270, Note_on_c, 10, 45, 0
11, 42300, Note_on_c, 10, 46, 89
11, 42330, Note_on_c, 10, 46, 0
11, 42360, Note_on_c, 10, 48, 89
11, 42390, Note_on_c, 10, 48, 0
11, 42420, Note_on_c, 10, 50, 80
11, 42450, Note_on_c, 10, 50, 0
11, 42480, Note_on_c, 10, 51, 80
11, 42510, Note_on_c, 10, 51, 0
11, 42540, Note_on_c, 10, 39, 86
11, 42600, Note_on_c, 10, 39, 0
11, 42600, Note_on_c, 10, 39, 90
11, 42660, Note_on_c, 10, 39, 0
11, 42660, Note_on_c, 10, 39, 89
11, 42720, Note_on_c, 10, 39, 0
11, 42720, Note_on_c, 10, 39, 89
11, 42780, Note_on_c, 10, 39, 0
11, 42780, Note_on_c, 10, 39, 89
11, 42840, Note_on_c, 10, 39, 0
11, 42840, Note_on_c, 10, 38, 99
11, 42960, Note_on_c, 10, 38, 0
11, 43200, Note_on_c, 10, 50, 104
11, 43320, Note_on_c, 10, 50, 0
11, 43320, Note_on_c, 10, 48, 104
11, 43350, Note_on_c, 10, 48, 0
11, 43380, Note_on_c, 10, 46, 101
11, 43410, Note_on_c, 10, 46, 0
11, 43440, Note_on_c, 10, 45, 115
11, 43470, Note_on_c, 10, 45, 0
11, 43500, Note_on_c, 10, 43, 104
11, 43530, Note_on_c, 10, 43, 0
11, 43560, Note_on_c, 10, 38, 105
11, 43680, Note_on_c, 10, 38, 0
11, 43920, Note_on_c, 10, 50, 110
11, 44040, Note_on_c, 10, 50, 0
11, 44040, Note_on_c, 10, 48, 99
11, 44070, Note_on_c, 10, 48, 0
11, 44100, Note_on_c, 10, 46, 101
11, 44130, Note_on_c, 10, 46, 0
11, 44160, Note_on_c, 10, 45, 107
11, 44190, Note_on_c, 10, 45, 0
11, 44220, Note_on_c, 10, 43, 104
11, 44250, Note_on_c, 10, 43, 0
11, 44280, Note_on_c, 10, 38, 105
11, 44310, Note_on_c, 10, 38, 0
11, 44340, Note_on_c, 10, 38, 110
11, 44400, Note_on_c, 10, 38, 0
11, 44400, Note_on_c, 10, 37, 98
11, 44460, Note_on_c, 10, 37, 0
11, 44460, Note_on_c, 10, 38, 107
11, 44490, Note_on_c, 10, 38, 0
11, 44520, Note_on_c, 10, 38, 105
11, 44580, Note_on_c, 10, 38, 0
11, 44580, Note_on_c, 10, 37, 99
11, 44640, Note_on_c, 10, 37, 0
11, 44640, Note_on_c, 10, 38, 107
11, 44670, Note_on_c, 10, 38, 0
11, 44700, Note_on_c, 10, 38, 104
11, 44760, Note_on_c, 10, 38, 0
11, 44760, Note_on_c, 10, 37, 99
11, 44820, Note_on_c, 10, 37, 0
11, 44820, Note_on_c, 10, 36, 105
11, 44850, Note_on_c, 10, 36, 0
11, 44880, Note_on_c, 10, 34, 95
11, 44910, Note_on_c, 10, 34, 0
11, 44940, Note_on_c, 10, 33, 105
11, 44970, Note_on_c, 10, 33, 0
11, 45000, Note_on_c, 10, 31, 72
11, 45120, Note_on_c, 10, 31, 0
11, 45180, Program_c, 10, 45
11, 45360, Note_on_c, 10, 46, 76
11, 45480, Note_on_c, 10, 46, 0
11, 45540, Note_on_c, 10, 43, 62
11, 45660, Note_on_c, 10, 43, 0
11, 45720, Note_on_c, 10, 38, 77
11, 45840, Note_on_c, 10, 38, 0
11, 45900, Note_on_c, 10, 43, 58
11, 46020, Note_on_c, 10, 43, 0
11, 46080, Note_on_c, 10, 38, 68
11, 46200, Note_on_c, 10, 38, 0
11, 46260, Note_on_c, 10, 43, 72
11, 46380, Note_on_c, 10, 43, 0
11, 46440, Note_on_c, 10, 45, 78
11, 46560, Note_on_c, 10, 45, 0
11, 46620, Note_on_c, 10, 33, 81
11, 46740, Note_on_c, 10, 33, 0
11, 46800, Note_on_c, 10, 38, 93
11, 46920, Note_on_c, 10, 38, 0
11, 46980, Note_on_c, 10, 45, 89
11, 47100, Note_on_c, 10, 45, 0
11, 47160, Note_on_c, 10, 50, 64
11, 47280, Note_on_c, 10, 50, 0
11, 47340, Note_on_c, 10, 45, 86
11, 47460, Note_on_c, 10, 45, 0
11, 47520, Note_on_c, 10, 38, 90
11, 47640, Note_on_c, 10, 38, 0
11, 48240, Note_on_c, 10, 43, 69
11, 48360, Note_on_c, 10, 43, 0
11, 48960, Note_on_c, 10, 36, 71
11, 49080, Note_on_c, 10, 36, 0
11, 49140, Note_on_c, 10, 43, 69
11, 49260, Note_on_c, 10, 43, 0
11, 49320, Note_on_c, 10, 39, 52
11, 49440, Note_on_c, 10, 39, 0
11, 49500, Note_on_c, 10, 36, 69
11, 49620, Note_on_c, 10, 36, 0
11, 49680, Note_on_c, 10, 31, 60
11, 49800, Note_on_c, 10, 31, 0
11, 49860, Note_on_c, 10, 36, 61
11, 49980, Note_on_c, 10, 36, 0
11, 50040, Note_on_c, 10, 31, 73
11, 50160, Note_on_c, 10, 31, 0
11, 50220, Note_on_c, 10, 36, 71
11, 50340, Note_on_c, 10, 36, 0
11, 50400, Note_on_c, 10, 41, 57
11, 50520, Note_on_c, 10, 41, 0
11, 50580, Note_on_c, 10, 43, 51
11, 50700, Note_on_c, 10, 43, 0
11, 50760, Note_on_c, 10, 39, 62
11, 50880, Note_on_c, 10, 39, 0
11, 50940, Note_on_c, 10, 44, 64
11, 51060, Note_on_c, 10, 44, 0
11, 51120, Note_on_c, 10, 41, 40
11, 51240, Note_on_c, 10, 41, 0
11, 51300, Note_on_c, 10, 43, 56
11, 51420, Note_on_c, 10, 43, 0
11, 51480, Note_on_c, 10, 36, 68
11, 51600, Note_on_c, 10, 36, 0
11, 52200, Note_on_c, 10, 41, 81
11, 52320, Note_on_c, 10, 41, 0
11, 52920, Note_on_c, 10, 34, 76
11, 53040, Note_on_c, 10, 34, 0
11, 53100, Note_on_c, 10, 41, 53
11, 53220, Note_on_c, 10, 41, 0
11, 53280, Note_on_c, 10, 37, 55
11, 53400, Note_on_c, 10, 37, 0
11, 53460, Note_on_c, 10, 34, 73
11, 53580, Note_on_c, 10, 34, 0
11, 53640, Note_on_c, 10, 29, 58
11, 53760, Note_on_c, 10, 29, 0
11, 53820, Note_on_c, 10, 34, 67
11, 53940, Note_on_c, 10, 34, 0
11, 54000, Note_on_c, 10, 29, 52
11, 54120, Note_on_c, 10, 29, 0
11, 54180, Note_on_c, 10, 34, 65
11, 54300, Note_on_c, 10, 34, 0
11, 54360, Note_on_c, 10, 34, 76
11, 54480, Note_on_c, 10, 34, 0
11, 54540, Note_on_c, 10, 41, 58
11, 54660, Note_on_c, 10, 41, 0
11, 54720, Note_on_c, 10, 37, 73
11, 54840, Note_on_c, 10, 37, 0
11, 54900, Note_on_c, 10, 34, 69
11, 55020, Note_on_c, 10, 34, 0
11, 55080, Note_on_c, 10, 41, 76
11, 55200, Note_on_c, 10, 41, 0
11, 55260, Note_on_c, 10, 46, 64
11, 55380, Note_on_c, 10, 46, 0
11, 55440, Note_on_c, 10, 41, 54
11, 55560, Note_on_c, 10, 41, 0
11, 55620, Note_on_c, 10, 46, 64
11, 55740, Note_on_c, 10, 46, 0
11, 55800, Note_on_c, 10, 39, 72
11, 55920, Note_on_c, 10, 39, 0
11, 55980, Note_on_c, 10, 41, 56
11, 56100, Note_on_c, 10, 41, 0
11, 56160, Note_on_c, 10, 34, 65
11, 56280, Note_on_c, 10, 34, 0
11, 56340, Note_on_c, 10, 46, 45
11, 56460, Note_on_c, 10, 46, 0
11, 56520, Note_on_c, 10, 39, 76
11, 56640, Note_on_c, 10, 39, 0
11, 56700, Note_on_c, 10, 41, 65
11, 56820, Note_on_c, 10, 41, 0
11, 56880, Note_on_c, 10, 34, 60
11, 57000, Note_on_c, 10, 34, 0
11, 57060, Note_on_c, 10, 44, 58
11, 57180, Note_on_c, 10, 44, 0
11, 57240, Note_on_c, 10, 43, 59
11, 57360, Note_on_c, 10, 43, 0
11, 57420, Note_on_c, 10, 42, 50
11, 57540, Note_on_c, 10, 42, 0
11, 57600, Note_on_c, 10, 41, 65
11, 57720, Note_on_c, 10, 41, 0
11, 58320, Note_on_c, 10, 41, 65
11, 58440, Note_on_c, 10, 41, 0
11, 59040, Note_on_c, 10, 41, 61
11, 59160, Note_on_c, 10, 41, 0
11, 59460, Program_c, 10, 45
11, 59760, Note_on_c, 10, 43, 66
11, 59880, Note_on_c, 10, 43, 0
11, 60480, Note_on_c, 10, 45, 77
11, 60600, Note_on_c, 10, 45, 0
11, 61200, Note_on_c, 10, 41, 64
11, 61320, Note_on_c, 10, 41, 0
11, 62040, Program_c, 10, 48
11, 64800, Note_on_c, 10, 34, 89
11, 64830, Note_on_c, 10, 34, 0
11, 64860, Note_on_c, 10, 38, 98
11, 64890, Note_on_c, 10, 38, 0
11, 64920, Note_on_c, 10, 41, 81
11, 64950, Note_on_c, 10, 41, 0
11, 64980, Note_on_c, 10, 34, 89
11, 65010, Note_on_c, 10, 34, 0
11, 65040, Note_on_c, 10, 38, 99
11, 65070, Note_on_c, 10, 38, 0
11, 65100, Note_on_c, 10, 41, 74
11, 65130, Note_on_c, 10, 41, 0
11, 65160, Note_on_c, 10, 38, 89
11, 65220, Note_on_c, 10, 38, 0
11, 65220, Note_on_c, 10, 36, 94
11, 65280, Note_on_c, 10, 36, 0
11, 65280, Note_on_c, 10, 34, 89
11, 65310, Note_on_c, 10, 34, 0
11, 65340, Note_on_c, 10, 33, 82
11, 65370, Note_on_c, 10, 33, 0
11, 65400, Note_on_c, 10, 31, 89
11, 65430, Note_on_c, 10, 31, 0
11, 65460, Note_on_c, 10, 29, 89
11, 65490, Note_on_c, 10, 29, 0
11, 65520, Note_on_c, 10, 29, 93
11, 65580, Note_on_c, 10, 29, 0
11, 65580, Note_on_c, 10, 41, 73
11, 65640, Note_on_c, 10, 41, 0
11, 65640, Note_on_c, 10, 41, 77
11, 65700, Note_on_c, 10, 41, 0
11, 65700, Note_on_c, 10, 29, 94
11, 65760, Note_on_c, 10, 29, 0
11, 65760, Note_on_c, 10, 41, 76
11, 65820, Note_on_c, 10, 41, 0
11, 65820, Note_on_c, 10, 41, 78
11, 65880, Note_on_c, 10, 41, 0
11, 65880, Note_on_c, 10, 39, 86
11, 65940, Note_on_c, 10, 39, 0
11, 65940, Note_on_c, 10, 38, 99
11, 66000, Note_on_c, 10, 38, 0
11, 66000, Note_on_c, 10, 36, 94
11, 66030, Note_on_c, 10, 36, 0
11, 66060, Note_on_c, 10, 34, 93
11, 66090, Note_on_c, 10, 34, 0
11, 66120, Note_on_c, 10, 36, 94
11, 66150, Note_on_c, 10, 36, 0
11, 66180, Note_on_c, 10, 38, 104
11, 66210, Note_on_c, 10, 38, 0
11, 66240, Note_on_c, 10, 39, 84
11, 66300, Note_on_c, 10, 39, 0
11, 66300, Note_on_c, 10, 34, 90
11, 66360, Note_on_c, 10, 34, 0
11, 66360, Note_on_c, 10, 39, 85
11, 66390, Note_on_c, 10, 39, 0
11, 66420, Note_on_c, 10, 38, 95
11, 66480, Note_on_c, 10, 38, 0
11, 66480, Note_on_c, 10, 34, 84
11, 66540, Note_on_c, 10, 34, 0
11, 66540, Note_on_c, 10, 38, 99
11, 66570, Note_on_c, 10, 38, 0
11, 66600, Note_on_c, 10, 39, 81
11, 66660, Note_on_c, 10, 39, 0
11, 66660, Note_on_c, 10, 34, 89
11, 66720, Note_on_c, 10, 34, 0
11, 66720, Note_on_c, 10, 39, 86
11, 66750, Note_on_c, 10, 39, 0
11, 66780, Note_on_c, 10, 38, 99
11, 66840, Note_on_c, 10, 38, 0
11, 66840, Note_on_c, 10, 44, 89
11, 66900, Note_on_c, 10, 44, 0
11, 66900, Note_on_c, 10, 47, 81
11, 66930, Note_on_c, 10, 47, 0
11, 66960, Note_on_c, 10, 48, 81
11, 67020, Note_on_c, 10, 48, 0
11, 67020, Note_on_c, 10, 43, 76
11, 67080, Note_on_c, 10, 43, 0
11, 67080, Note_on_c, 10, 45, 99
11, 67110, Note_on_c, 10, 45, 0
11, 67140, Note_on_c, 10, 46, 73
11, 67200, Note_on_c, 10, 46, 0
11, 67200, Note_on_c, 10, 43, 89
11, 67260, Note_on_c, 10, 43, 0
11, 67260, Note_on_c, 10, 40, 95
11, 67290, Note_on_c, 10, 40, 0
11, 67320, Note_on_c, 10, 29, 94
11, 67380, Note_on_c, 10, 29, 0
11, 67380, Note_on_c, 10, 41, 76
11, 67440, Note_on_c, 10, 41, 0
11, 67440, Note_on_c, 10, 41, 76
11, 67500, Note_on_c, 10, 41, 0
11, 67500, Note_on_c, 10, 29, 89
11, 67560, Note_on_c, 10, 29, 0
11, 67560, Note_on_c, 10, 41, 72
11, 67620, Note_on_c, 10, 41, 0
11, 67620, Note_on_c, 10, 41, 76
11, 67680, Note_on_c, 10, 41, 0
11, 67680, Note_on_c, 10, 34, 86
11, 67800, Note_on_c, 10, 34, 0
11, 68040, Note_on_c, 10, 41, 68
11, 68160, Note_on_c, 10, 41, 0
11, 68400, Note_on_c, 10, 46, 76
11, 68430, Note_on_c, 10, 46, 0
11, 68460, Note_on_c, 10, 34, 89
11, 68490, Note_on_c, 10, 34, 0
11, 68520, Note_on_c, 10, 36, 93
11, 68550, Note_on_c, 10, 36, 0
11, 68580, Note_on_c, 10, 38, 89
11, 68610, Note_on_c, 10, 38, 0
11, 68640, Note_on_c, 10, 39, 89
11, 68670, Note_on_c, 10, 39, 0
11, 68700, Note_on_c, 10, 40, 99
11, 68730, Note_on_c, 10, 40, 0
11, 68760, Note_on_c, 10, 29, 93
11, 68820, Note_on_c, 10, 29, 0
11, 68820, Note_on_c, 10, 41, 74
11, 68880, Note_on_c, 10, 41, 0
11, 68880, Note_on_c, 10, 41, 86
11, 68940, Note_on_c, 10, 41, 0
11, 68940, Note_on_c, 10, 29, 94
11, 69000, Note_on_c, 10, 29, 0
11, 69000, Note_on_c, 10, 41, 84
11, 69060, Note_on_c, 10, 41, 0
11, 69060, Note_on_c, 10, 41, 80
11, 69120, Note_on_c, 10, 41, 0
11, 69120, Note_on_c, 10, 34, 93
11, 69240, Note_on_c, 10, 34, 0
11, 69300, Note_on_c, 10, 46, 82
11, 69420, Note_on_c, 10, 46, 0
11, 69480, Note_on_c, 10, 34, 93
11, 69600, Note_on_c, 10, 34, 0
11, 69840, Note_on_c, 10, 46, 95
11, 70200, Note_on_c, 10, 46, 0
11, 70200, Note_on_c, 10, 41, 94
11, 70380, Note_on_c, 10, 41, 0
11, 70380, Note_on_c, 10, 38, 86
11, 70560, Note_on_c, 10, 38, 0
11, 70560, Note_on_c, 10, 34, 99
11, 70740, Note_on_c, 10, 34, 0
11, 70740, Note_on_c, 10, 43, 86
11, 70920, Note_on_c, 10, 43, 0
11, 70920, Note_on_c, 10, 38, 90
11, 71100, Note_on_c, 10, 38, 0
11, 71100, Note_on_c, 10, 40, 95
11, 71280, Note_on_c, 10, 40, 0
11, 71280, Note_on_c, 10, 41, 90
11, 71400, Note_on_c, 10, 41, 0
11, 72000, Note_on_c, 10, 44, 94
11, 72360, Note_on_c, 10, 44, 0
11, 72360, Note_on_c, 10, 41, 98
11, 72540, Note_on_c, 10, 41, 0
11, 72540, Note_on_c, 10, 38, 94
11, 72720, Note_on_c, 10, 38, 0
11, 72720, Note_on_c, 10, 34, 98
11, 72900, Note_on_c, 10, 34, 0
11, 72900, Note_on_c, 10, 44, 94
11, 73080, Note_on_c, 10, 44, 0
11, 73080, Note_on_c, 10, 41, 86
11, 73260, Note_on_c, 10, 41, 0
11, 73260, Note_on_c, 10, 38, 94
11, 73440, Note_on_c, 10, 38, 0
11, 73440, Note_on_c, 10, 39, 89
11, 73560, Note_on_c, 10, 39, 0
11, 76320, Note_on_c, 10, 41, 72
11, 76440, Note_on_c, 10, 41, 0
11, 76680, Note_on_c, 10, 48, 71
11, 76800, Note_on_c, 10, 48, 0
11, 77040, Note_on_c, 10, 41, 71
11, 77160, Note_on_c, 10, 41, 0
11, 77400, Note_on_c, 10, 36, 61
11, 77520, Note_on_c, 10, 36, 0
11, 77760, Note_on_c, 10, 41, 69
11, 77880, Note_on_c, 10, 41, 0
11, 78120, Note_on_c, 10, 41, 59
11, 78240, Note_on_c, 10, 41, 0
11, 78480, Note_on_c, 10, 41, 65
11, 78600, Note_on_c, 10, 41, 0
11, 82080, Note_on_c, 10, 46, 57
11, 82200, Note_on_c, 10, 46, 0
11, 82260, Note_on_c, 10, 45, 81
11, 82380, Note_on_c, 10, 45, 0
11, 82440, Note_on_c, 10, 43, 89
11, 82560, Note_on_c, 10, 43, 0
11, 82620, Note_on_c, 10, 39, 101
11, 82800, Note_on_c, 10, 39, 0
11, 83520, Note_on_c, 10, 46, 57
11, 83640, Note_on_c, 10, 46, 0
11, 83700, Note_on_c, 10, 45, 81
11, 83820, Note_on_c, 10, 45, 0
11, 83880, Note_on_c, 10, 43, 89
11, 84000, Note_on_c, 10, 43, 0
11, 84060, Note_on_c, 10, 43, 112
11, 84240, Note_on_c, 10, 43, 0
11, 84960, Note_on_c, 10, 39, 85
11, 85320, Note_on_c, 10, 39, 0
11, 85320, Note_on_c, 10, 38, 104
11, 85680, Note_on_c, 10, 38, 0
11, 85680, Note_on_c, 10, 45, 65
11, 85800, Note_on_c, 10, 45, 0
11, 85860, Note_on_c, 10, 45, 64
11, 85980, Note_on_c, 10, 45, 0
11, 86040, Note_on_c, 10, 46, 53
11, 86160, Note_on_c, 10, 46, 0
11, 86400, Note_on_c, 10, 39, 85
11, 86760, Note_on_c, 10, 39, 0
11, 86760, Note_on_c, 10, 38, 104
11, 87120, Note_on_c, 10, 38, 0
11, 87120, Note_on_c, 10, 45, 65
11, 87240, Note_on_c, 10, 45, 0
11, 87300, Note_on_c, 10, 45, 64
11, 87420, Note_on_c, 10, 45, 0
11, 87480, Note_on_c, 10, 46, 53
11, 87600, Note_on_c, 10, 46, 0
11, 88920, Note_on_c, 10, 39, 66
11, 89040, Note_on_c, 10, 39, 0
11, 89100, Note_on_c, 10, 39, 62
11, 89220, Note_on_c, 10, 39, 0
11, 89280, Note_on_c, 10, 41, 68
11, 89400, Note_on_c, 10, 41, 0
11, 89460, Note_on_c, 10, 41, 72
11, 89580, Note_on_c, 10, 41, 0
11, 93960, Note_on_c, 10, 43, 46
11, 94080, Note_on_c, 10, 43, 0
11, 94140, Note_on_c, 10, 43, 65
11, 94260, Note_on_c, 10, 43, 0
11, 94320, Note_on_c, 10, 43, 61
11, 94440, Note_on_c, 10, 43, 0
11, 94500, Note_on_c, 10, 38, 57
11, 94620, Note_on_c, 10, 38, 0
11, 94680, Note_on_c, 10, 38, 50
11, 94800, Note_on_c, 10, 38, 0
11, 94860, Note_on_c, 10, 38, 53
11, 94980, Note_on_c, 10, 38, 0
11, 95040, Note_on_c, 10, 38, 72
11, 95160, Note_on_c, 10, 38, 0
11, 95220, Note_on_c, 10, 43, 73
11, 95340, Note_on_c, 10, 43, 0
11, 95374, Control_c, 10, 7, 66
11, 95400, Note_on_c, 10, 43, 95
11, 95760, Note_on_c, 10, 43, 0
11, 95760, Note_on_c, 10, 36, 104
11, 96120, Note_on_c, 10, 36, 0
11, 96120, Note_on_c, 10, 41, 94
11, 96120, Control_c, 10, 7, 66
11, 96142, Control_c, 10, 7, 67
11, 96164, Control_c, 10, 7, 68
11, 96186, Control_c, 10, 7, 69
11, 96208, Control_c, 10, 7, 70
11, 96230, Control_c, 10, 7, 71
11, 96252, Control_c, 10, 7, 72
11, 96274, Control_c, 10, 7, 73
11, 96296, Control_c, 10, 7, 74
11, 96316, Control_c, 10, 7, 75
11, 96338, Control_c, 10, 7, 76
11, 96360, Control_c, 10, 7, 77
11, 96382, Control_c, 10, 7, 78
11, 96404, Control_c, 10, 7, 79
11, 96426, Control_c, 10, 7, 80
11, 96448, Control_c, 10, 7, 81
11, 96470, Control_c, 10, 7, 82
11, 96490, Control_c, 10, 7, 83
11, 96512, Control_c, 10, 7, 84
11, 96534, Control_c, 10, 7, 85
11, 96556, Control_c, 10, 7, 86
11, 96578, Control_c, 10, 7, 87
11, 96600, Control_c, 10, 7, 88
11, 96622, Control_c, 10, 7, 89
11, 96644, Control_c, 10, 7, 90
11, 96664, Control_c, 10, 7, 91
11, 96686, Control_c, 10, 7, 92
11, 96708, Control_c, 10, 7, 93
11, 96730, Control_c, 10, 7, 94
11, 96752, Control_c, 10, 7, 95
11, 96774, Control_c, 10, 7, 96
11, 96796, Control_c, 10, 7, 97
11, 96818, Control_c, 10, 7, 98
11, 96838, Control_c, 10, 7, 99
11, 96840, Note_on_c, 10, 41, 0
11, 96840, Note_on_c, 10, 34, 99
11, 96840, Control_c, 10, 7, 99
11, 96870, Note_on_c, 10, 34, 0
11, 96900, Note_on_c, 10, 38, 107
11, 96930, Note_on_c, 10, 38, 0
11, 96960, Note_on_c, 10, 41, 90
11, 96990, Note_on_c, 10, 41, 0
11, 97020, Note_on_c, 10, 34, 98
11, 97050, Note_on_c, 10, 34, 0
11, 97080, Note_on_c, 10, 38, 107
11, 97110, Note_on_c, 10, 38, 0
11, 97140, Note_on_c, 10, 41, 94
11, 97170, Note_on_c, 10, 41, 0
11, 97200, Note_on_c, 10, 38, 99
11, 97260, Note_on_c, 10, 38, 0
11, 97260, Note_on_c, 10, 36, 101
11, 97320, Note_on_c, 10, 36, 0
11, 97320, Note_on_c, 10, 34, 99
11, 97380, Note_on_c, 10, 34, 0
11, 97380, Note_on_c, 10, 33, 89
11, 97410, Note_on_c, 10, 33, 0
11, 97440, Note_on_c, 10, 31, 95
11, 97470, Note_on_c, 10, 31, 0
11, 97500, Note_on_c, 10, 29, 99
11, 97530, Note_on_c, 10, 29, 0
11, 97560, Note_on_c, 10, 29, 104
11, 97620, Note_on_c, 10, 29, 0
11, 97620, Note_on_c, 10, 41, 98
11, 97680, Note_on_c, 10, 41, 0
11, 97680, Note_on_c, 10, 41, 104
11, 97740, Note_on_c, 10, 41, 0
11, 97740, Note_on_c, 10, 29, 110
11, 97800, Note_on_c, 10, 29, 0
11, 97800, Note_on_c, 10, 41, 93
11, 97860, Note_on_c, 10, 41, 0
11, 97860, Note_on_c, 10, 41, 99
11, 97920, Note_on_c, 10, 41, 0
11, 97920, Note_on_c, 10, 39, 95
11, 97980, Note_on_c, 10, 39, 0
11, 97980, Note_on_c, 10, 38, 107
11, 98040, Note_on_c, 10, 38, 0
11, 98040, Note_on_c, 10, 36, 104
11, 98070, Note_on_c, 10, 36, 0
11, 98100, Note_on_c, 10, 34, 99
11, 98130, Note_on_c, 10, 34, 0
11, 98160, Note_on_c, 10, 36, 101
11, 98190, Note_on_c, 10, 36, 0
11, 98220, Note_on_c, 10, 38, 105
11, 98250, Note_on_c, 10, 38, 0
11, 98280, Note_on_c, 10, 39, 107
11, 98340, Note_on_c, 10, 39, 0
11, 98340, Note_on_c, 10, 34, 105
11, 98400, Note_on_c, 10, 34, 0
11, 98400, Note_on_c, 10, 39, 98
11, 98430, Note_on_c, 10, 39, 0
11, 98460, Note_on_c, 10, 38, 105
11, 98520, Note_on_c, 10, 38, 0
11, 98520, Note_on_c, 10, 34, 98
11, 98580, Note_on_c, 10, 34, 0
11, 98580, Note_on_c, 10, 38, 99
11, 98610, Note_on_c, 10, 38, 0
11, 98640, Note_on_c, 10, 39, 110
11, 98700, Note_on_c, 10, 39, 0
11, 98700, Note_on_c, 10, 34, 99
11, 98760, Note_on_c, 10, 34, 0
11, 98760, Note_on_c, 10, 39, 115
11, 98790, Note_on_c, 10, 39, 0
11, 98820, Note_on_c, 10, 38, 112
11, 98880, Note_on_c, 10, 38, 0
11, 98880, Note_on_c, 10, 45, 110
11, 98940, Note_on_c, 10, 45, 0
11, 98940, Note_on_c, 10, 47, 105
11, 98970, Note_on_c, 10, 47, 0
11, 99000, Note_on_c, 10, 48, 94
11, 99060, Note_on_c, 10, 48, 0
11, 99060, Note_on_c, 10, 43, 99
11, 99120, Note_on_c, 10, 43, 0
11, 99120, Note_on_c, 10, 45, 107
11, 99150, Note_on_c, 10, 45, 0
11, 99180, Note_on_c, 10, 46, 99
11, 99240, Note_on_c, 10, 46, 0
11, 99240, Note_on_c, 10, 43, 98
11, 99300, Note_on_c, 10, 43, 0
11, 99300, Note_on_c, 10, 40, 104
11, 99330, Note_on_c, 10, 40, 0
11, 99360, Note_on_c, 10, 29, 105
11, 99420, Note_on_c, 10, 29, 0
11, 99420, Note_on_c, 10, 41, 105
11, 99480, Note_on_c, 10, 41, 0
11, 99480, Note_on_c, 10, 41, 95
11, 99540, Note_on_c, 10, 41, 0
11, 99540, Note_on_c, 10, 29, 105
11, 99600, Note_on_c, 10, 29, 0
11, 99600, Note_on_c, 10, 41, 94
11, 99660, Note_on_c, 10, 41, 0
11, 99660, Note_on_c, 10, 41, 89
11, 99720, Note_on_c, 10, 41, 0
11, 99720, Note_on_c, 10, 34, 67
11, 100440, Note_on_c, 10, 34, 0
11, 100440, Note_on_c, 10, 34, 71
11, 101160, Note_on_c, 10, 34, 0
11, 101160, Note_on_c, 10, 34, 69
11, 101280, Note_on_c, 10, 34, 0
11, 102600, Note_on_c, 10, 34, 67
11, 103320, Note_on_c, 10, 34, 0
11, 103320, Note_on_c, 10, 34, 71
11, 104040, Note_on_c, 10, 34, 0
11, 104040, Note_on_c, 10, 34, 69
11, 104160, Note_on_c, 10, 34, 0
11, 105480, Note_on_c, 10, 38, 76
11, 105540, Note_on_c, 10, 38, 0
11, 105600, Note_on_c, 10, 43, 68
11, 105630, Note_on_c, 10, 43, 0
11, 105660, Note_on_c, 10, 39, 59
11, 105720, Note_on_c, 10, 39, 0
11, 105780, Note_on_c, 10, 41, 58
11, 105810, Note_on_c, 10, 41, 0
11, 106200, Note_on_c, 10, 38, 76
11, 106260, Note_on_c, 10, 38, 0
11, 106320, Note_on_c, 10, 43, 68
11, 106350, Note_on_c, 10, 43, 0
11, 106380, Note_on_c, 10, 39, 59
11, 106440, Note_on_c, 10, 39, 0
11, 106500, Note_on_c, 10, 41, 58
11, 106530, Note_on_c, 10, 41, 0
11, 106560, Note_on_c, 10, 38, 68
11, 106620, Note_on_c, 10, 38, 0
11, 106680, Note_on_c, 10, 43, 67
11, 106710, Note_on_c, 10, 43, 0
11, 106740, Note_on_c, 10, 39, 73
11, 106800, Note_on_c, 10, 39, 0
11, 106860, Note_on_c, 10, 41, 56
11, 106890, Note_on_c, 10, 41, 0
11, 106920, Note_on_c, 10, 34, 65
11, 107040, Note_on_c, 10, 34, 0
11, 107280, Note_on_c, 10, 41, 68
11, 107400, Note_on_c, 10, 41, 0
11, 107640, Note_on_c, 10, 46, 64
11, 107760, Note_on_c, 10, 46, 0
11, 108000, Note_on_c, 10, 41, 65
11, 108120, Note_on_c, 10, 41, 0
11, 108360, Note_on_c, 10, 34, 60
11, 108480, Note_on_c, 10, 34, 0
11, 108720, Note_on_c, 10, 41, 68
11, 108840, Note_on_c, 10, 41, 0
11, 109080, Note_on_c, 10, 46, 46
11, 109200, Note_on_c, 10, 46, 0
11, 109440, Note_on_c, 10, 41, 65
11, 109560, Note_on_c, 10, 41, 0
11, 109800, Note_on_c, 10, 34, 60
11, 109920, Note_on_c, 10, 34, 0
11, 109980, Note_on_c, 10, 34, 40
11, 110100, Note_on_c, 10, 34, 0
11, 110700, Note_on_c, 10, 46, 35
11, 110820, Note_on_c, 10, 46, 0
11, 111420, Note_on_c, 10, 46, 33
11, 111540, Note_on_c, 10, 46, 0
11, 114960, Program_c, 10, 45
11, 115200, Note_on_c, 10, 43, 57
11, 115320, Note_on_c, 10, 43, 0
11, 115560, Note_on_c, 10, 36, 44
11, 115680, Note_on_c, 10, 36, 0
11, 115680, Program_c, 10, 48
11, 115920, Note_on_c, 10, 41, 95
11, 116040, Note_on_c, 10, 41, 0
11, 116280, Note_on_c, 10, 34, 99
11, 116340, Note_on_c, 10, 34, 0
11, 116340, Note_on_c, 10, 38, 105
11, 116400, Note_on_c, 10, 38, 0
11, 116400, Note_on_c, 10, 41, 94
11, 116460, Note_on_c, 10, 41, 0
11, 116460, Note_on_c, 10, 46, 90
11, 116520, Note_on_c, 10, 46, 0
11, 116520, Note_on_c, 10, 41, 101
11, 116580, Note_on_c, 10, 41, 0
11, 116580, Note_on_c, 10, 38, 110
11, 116640, Note_on_c, 10, 38, 0
11, 116640, Note_on_c, 10, 34, 99
11, 116700, Note_on_c, 10, 34, 0
11, 116700, Note_on_c, 10, 38, 107
11, 116760, Note_on_c, 10, 38, 0
11, 116760, Note_on_c, 10, 41, 99
11, 116820, Note_on_c, 10, 41, 0
11, 116820, Note_on_c, 10, 46, 110
11, 116880, Note_on_c, 10, 46, 0
11, 116880, Note_on_c, 10, 41, 104
11, 116940, Note_on_c, 10, 41, 0
11, 116940, Note_on_c, 10, 38, 112
11, 117000, Note_on_c, 10, 38, 0
11, 117000, Note_on_c, 10, 34, 107
11, 117120, Note_on_c, 10, 34, 0
11, 117180, Note_on_c, 10, 46, 95
11, 117300, Note_on_c, 10, 46, 0
11, 117360, Note_on_c, 10, 34, 99
11, 117480, Note_on_c, 10, 34, 0
11, 117490, Control_c, 10, 7, 99
11, 117490, Control_c, 10, 10, 119
11, 117490, Control_c, 10, 93, 0
11, 117490, Control_c, 10, 91, 66
11, 117490, End_track
12, 0, Start_track
12, 0, Title_t, "Ludwig van Beethoven"
12, 0, End_track
13, 0, Start_track
13, 0, Title_t, "Piano Concerto No. 2"
13, 0, End_track
14, 0, Start_track
14, 0, Title_t, "in B-flat Major, Op. 19"
14, 0, End_track
15, 0, Start_track
15, 0, Title_t, "Mov't. 3 - Rondo-Molto allegro"
15, 0, End_track
16, 0, Start_track
16, 0, Title_t, "Sequenced by Bill Nemitz"
16, 0, End_track
17, 0, Start_track
17, 0, Title_t, "Email at billnem@ix.netcom.com"
17, 0, End_track
18, 0, Start_track
18, 0, End_track
0, 0, End_of_file