0, 0, Header, 1, 20, 120
1, 0, Start_track
1, 0, Time_signature, 6, 3, 12, 8
1, 0, Key_signature, 0, "major"
1, 0, Tempo, 434783
1, 16560, Tempo, 428571
1, 16600, Tempo, 431655
1, 16638, Tempo, 434783
1, 16676, Tempo, 437956
1, 16716, Tempo, 441176
1, 16754, Tempo, 444444
1, 16792, Tempo, 447761
1, 16830, Tempo, 451128
1, 16870, Tempo, 454545
1, 16908, Tempo, 458015
1, 16946, Tempo, 461538
1, 16986, Tempo, 465116
1, 17024, Tempo, 468750
1, 17062, Tempo, 472441
1, 17100, Tempo, 476190
1, 17146, Tempo, 472441
1, 17192, Tempo, 468750
1, 17238, Tempo, 465116
1, 17282, Tempo, 461538
1, 84118, Tempo, 465116
1, 84124, Tempo, 468750
1, 84128, Tempo, 472441
1, 84132, Tempo, 476190
1, 84136, Tempo, 480000
1, 84142, Tempo, 483871
1, 84146, Tempo, 487805
1, 84150, Tempo, 491803
1, 84154, Tempo, 495868
1, 84158, Tempo, 500000
1, 84164, Tempo, 504202
1, 84168, Tempo, 508475
1, 84172, Tempo, 512821
1, 84176, Tempo, 517241
1, 84180, Tempo, 521739
1, 84186, Tempo, 526316
1, 84190, Tempo, 530973
1, 84194, Tempo, 535714
1, 84198, Tempo, 540541
1, 84204, Tempo, 545455
1, 84208, Tempo, 550459
1, 84212, Tempo, 555556
1, 84216, Tempo, 560748
1, 84220, Tempo, 566038
1, 84226, Tempo, 571429
1, 84230, Tempo, 576923
1, 84234, Tempo, 582524
1, 84238, Tempo, 588235
1, 84242, Tempo, 594059
1, 87780, Tempo, 594059
1, 87786, Tempo, 588235
1, 87790, Tempo, 582524
1, 87794, Tempo, 576923
1, 87798, Tempo, 571429
1, 87802, Tempo, 566038
1, 87806, Tempo, 560748
1, 87810, Tempo, 555556
1, 87814, Tempo, 550459
1, 87818, Tempo, 545455
1, 87822, Tempo, 540541
1, 87826, Tempo, 535714
1, 87830, Tempo, 530973
1, 87834, Tempo, 526316
1, 87838, Tempo, 521739
1, 87844, Tempo, 517241
1, 87848, Tempo, 512821
1, 87852, Tempo, 508475
1, 87856, Tempo, 504202
1, 87860, Tempo, 500000
1, 87864, Tempo, 495868
1, 87868, Tempo, 491803
1, 87872, Tempo, 487805
1, 87876, Tempo, 483871
1, 87880, Tempo, 480000
1, 87884, Tempo, 476190
1, 87888, Tempo, 472441
1, 87892, Tempo, 468750
1, 87896, Tempo, 465116
1, 87900, Tempo, 461538
1, 147024, Tempo, 465116
1, 147172, Tempo, 465116
1, 147190, Tempo, 468750
1, 147210, Tempo, 472441
1, 147222, Tempo, 476190
1, 147240, Tempo, 480000
1, 147438, Tempo, 483871
1, 147648, Tempo, 487805
1, 147658, Tempo, 491803
1, 147674, Tempo, 495868
1, 147824, Tempo, 500000
1, 147850, Tempo, 504202
1, 147870, Tempo, 508475
1, 148010, Tempo, 512821
1, 148020, Tempo, 517241
1, 148036, Tempo, 521739
1, 148040, Tempo, 526316
1, 148220, Tempo, 530973
1, 148402, Tempo, 535714
1, 148418, Tempo, 540541
1, 148498, Tempo, 545455
1, 148546, Tempo, 550459
1, 148586, Tempo, 555556
1, 148602, Tempo, 560748
1, 148844, Tempo, 566038
1, 148860, Tempo, 571429
1, 148896, Tempo, 576923
1, 148922, Tempo, 582524
1, 149054, Tempo, 588235
1, 149096, Tempo, 594059
1, 149126, Tempo, 600000
1, 149142, Tempo, 606061
1, 149158, Tempo, 606061
1, 149188, Tempo, 600000
1, 149216, Tempo, 594059
1, 149244, Tempo, 600000
1, 149254, Tempo, 606061
1, 149338, Tempo, 618557
1, 149468, Tempo, 625000
1, 149478, Tempo, 631579
1, 149502, Tempo, 638298
1, 149586, Tempo, 645161
1, 149610, Tempo, 652174
1, 149622, Tempo, 659341
1, 149646, Tempo, 666667
1, 149664, Tempo, 674157
1, 149930, Tempo, 681818
1, 149936, Tempo, 689655
1, 149958, Tempo, 697674
1, 149988, Tempo, 705882
1, 150012, Tempo, 714286
1, 150098, Tempo, 714286
1, 150164, Tempo, 722892
1, 150172, Tempo, 731707
1, 150188, Tempo, 740741
1, 150222, Tempo, 750000
1, 150240, Tempo, 759494
1, 150256, Tempo, 769231
1, 150264, Tempo, 779221
1, 150268, Tempo, 789474
1, 150274, Tempo, 800000
1, 150280, Tempo, 810811
1, 150290, Tempo, 821918
1, 150314, Tempo, 833333
1, 150338, Tempo, 845070
1, 150354, Tempo, 857143
1, 150368, Tempo, 869565
1, 150376, Tempo, 882353
1, 150394, Tempo, 895522
1, 150410, Tempo, 909091
1, 150444, Tempo, 923077
1, 150452, Tempo, 937500
1, 150460, Tempo, 952381
1, 150468, Tempo, 967742
1, 150480, Tempo, 983607
1, 150490, Tempo, 1000000
1, 150502, Tempo, 1016949
1, 150524, Tempo, 1034483
1, 150540, Tempo, 1052632
1, 150548, Tempo, 1071429
1, 150560, Tempo, 1090909
1, 150572, Tempo, 1111111
1, 150586, Tempo, 1132075
1, 150592, Tempo, 1153846
1, 150608, Tempo, 1176471
1, 150620, Tempo, 1200000
1, 150636, Tempo, 1224490
1, 150648, Tempo, 1250000
1, 150684, Tempo, 1276596
1, 150710, Tempo, 1304348
1, 150730, Tempo, 1333333
1, 150738, Tempo, 1363636
1, 150746, Tempo, 1395349
1, 150754, Tempo, 1428571
1, 150762, Tempo, 1463415
1, 150770, Tempo, 1500000
1, 150780, Tempo, 1538462
1, 150792, Tempo, 1578947
1, 150804, Tempo, 1621622
1, 150852, Tempo, 1578947
1, 150856, Tempo, 1538462
1, 150858, Tempo, 1500000
1, 150860, Tempo, 1428571
1, 150862, Tempo, 1250000
1, 150864, Tempo, 1224490
1, 150866, Tempo, 1200000
1, 150868, Tempo, 530973
1, 150870, Tempo, 521739
1, 150872, Tempo, 512821
1, 150874, Tempo, 508475
1, 150876, Tempo, 500000
1, 150878, Tempo, 487805
1, 150880, Tempo, 476190
1, 150882, Tempo, 465116
1, 150884, Tempo, 458015
1, 150886, Tempo, 454545
1, 150888, Tempo, 451128
1, 150890, Tempo, 447761
1, 150894, Tempo, 444444
1, 150906, Tempo, 434783
1, 150938, Tempo, 431655
1, 150958, Tempo, 428571
1, 151076, Tempo, 431655
1, 151084, Tempo, 434783
1, 151164, Tempo, 431655
1, 151188, Tempo, 434783
1, 151248, Tempo, 431655
1, 151262, Tempo, 428571
1, 151270, Tempo, 425532
1, 151286, Tempo, 422535
1, 151390, Tempo, 419580
1, 151408, Tempo, 416667
1, 151428, Tempo, 413793
1, 151464, Tempo, 410959
1, 151486, Tempo, 408163
1, 151498, Tempo, 405405
1, 151508, Tempo, 402685
1, 151512, Tempo, 400000
1, 151524, Tempo, 397351
1, 151606, Tempo, 394737
1, 151850, Tempo, 394737
1, 151874, Tempo, 392157
1, 151902, Tempo, 389610
1, 151984, Tempo, 387097
1, 151990, Tempo, 384615
1, 152126, Tempo, 382166
1, 152142, Tempo, 379747
1, 152158, Tempo, 377358
1, 152168, Tempo, 375000
1, 152274, Tempo, 372671
1, 152294, Tempo, 370370
1, 152306, Tempo, 368098
1, 152314, Tempo, 365854
1, 152342, Tempo, 363636
1, 152392, Tempo, 361446
1, 152408, Tempo, 359281
1, 152424, Tempo, 357143
1, 152496, Tempo, 359281
1, 152572, Tempo, 357143
1, 152590, Tempo, 355030
1, 152612, Tempo, 352941
1, 152626, Tempo, 350877
1, 152708, Tempo, 348837
1, 152730, Tempo, 346821
1, 152738, Tempo, 344828
1, 152752, Tempo, 342857
1, 152764, Tempo, 340909
1, 152826, Tempo, 338983
1, 152854, Tempo, 337079
1, 152920, Tempo, 335196
1, 152996, Tempo, 337079
1, 153002, Tempo, 338983
1, 153004, Tempo, 342857
1, 153006, Tempo, 346821
1, 153008, Tempo, 368098
1, 153010, Tempo, 387097
1, 153012, Tempo, 397351
1, 153014, Tempo, 402685
1, 153016, Tempo, 408163
1, 153020, Tempo, 413793
1, 153024, Tempo, 416667
1, 153026, Tempo, 419580
1, 153942, Tempo, 419580
1, 153968, Tempo, 422535
1, 154012, Tempo, 419580
1, 154014, Tempo, 416667
1, 154960, Tempo, 413793
1, 154964, Tempo, 416667
1, 154968, Tempo, 419580
1, 154972, Tempo, 422535
1, 154974, Tempo, 425532
1, 154978, Tempo, 428571
1, 154982, Tempo, 431655
1, 154984, Tempo, 434783
1, 154988, Tempo, 437956
1, 154992, Tempo, 441176
1, 154994, Tempo, 444444
1, 154998, Tempo, 447761
1, 155002, Tempo, 451128
1, 155006, Tempo, 454545
1, 155008, Tempo, 458015
1, 155012, Tempo, 461538
1, 155016, Tempo, 465116
1, 155018, Tempo, 468750
1, 155022, Tempo, 472441
1, 155026, Tempo, 476190
1, 155028, Tempo, 480000
1, 155032, Tempo, 483871
1, 155036, Tempo, 487805
1, 155040, Tempo, 491803
1, 155042, Tempo, 495868
1, 155046, Tempo, 500000
1, 155050, Tempo, 504202
1, 155052, Tempo, 508475
1, 155056, Tempo, 512821
1, 155060, Tempo, 517241
1, 155062, Tempo, 521739
1, 155066, Tempo, 526316
1, 155070, Tempo, 530973
1, 155072, Tempo, 535714
1, 155116, Tempo, 535714
1, 155118, Tempo, 530973
1, 155120, Tempo, 521739
1, 155122, Tempo, 512821
1, 155124, Tempo, 504202
1, 155126, Tempo, 495868
1, 155128, Tempo, 487805
1, 155130, Tempo, 480000
1, 155132, Tempo, 472441
1, 155134, Tempo, 468750
1, 155136, Tempo, 461538
1, 155138, Tempo, 454545
1, 155140, Tempo, 447761
1, 155142, Tempo, 441176
1, 155144, Tempo, 434783
1, 155146, Tempo, 428571
1, 155148, Tempo, 422535
1, 155150, Tempo, 416667
1, 155150, End_track
2, 0, Start_track
2, 0, MIDI_port, 0
2, 0, Title_t, "Flute"
2, 0, Program_c, 0, 73
2, 0, Control_c, 0, 7, 100
2, 0, Control_c, 0, 10, 60
2, 0, Control_c, 0, 93, 0
2, 0, Control_c, 0, 91, 0
2, 5700, Note_on_c, 0, 70, 127
2, 5748, Note_on_c, 0, 70, 0
2, 5760, Note_on_c, 0, 70, 127
2, 5808, Note_on_c, 0, 70, 0
2, 5820, Note_on_c, 0, 75, 118
2, 5868, Note_on_c, 0, 75, 0
2, 5880, Note_on_c, 0, 75, 94
2, 5928, Note_on_c, 0, 75, 0
2, 5940, Note_on_c, 0, 79, 127
2, 5988, Note_on_c, 0, 79, 0
2, 6060, Note_on_c, 0, 67, 112
2, 6060, Note_on_c, 0, 79, 114
2, 6084, Note_on_c, 0, 79, 0
2, 6084, Note_on_c, 0, 67, 0
2, 6090, Note_on_c, 0, 82, 121
2, 6090, Note_on_c, 0, 70, 111
2, 6114, Note_on_c, 0, 70, 0
2, 6114, Note_on_c, 0, 82, 0
2, 6120, Note_on_c, 0, 82, 121
2, 6120, Note_on_c, 0, 70, 101
2, 6144, Note_on_c, 0, 70, 0
2, 6144, Note_on_c, 0, 82, 0
2, 6150, Note_on_c, 0, 87, 109
2, 6150, Note_on_c, 0, 75, 100
2, 6174, Note_on_c, 0, 75, 0
2, 6174, Note_on_c, 0, 87, 0
2, 6180, Note_on_c, 0, 87, 118
2, 6180, Note_on_c, 0, 75, 101
2, 6396, Note_on_c, 0, 75, 0
2, 6396, Note_on_c, 0, 87, 0
2, 6420, Note_on_c, 0, 87, 115
2, 6420, Note_on_c, 0, 75, 107
2, 6444, Note_on_c, 0, 75, 0
2, 6444, Note_on_c, 0, 87, 0
2, 6450, Note_on_c, 0, 91, 105
2, 6450, Note_on_c, 0, 79, 99
2, 6474, Note_on_c, 0, 79, 0
2, 6474, Note_on_c, 0, 91, 0
2, 6480, Note_on_c, 0, 89, 105
2, 6480, Note_on_c, 0, 77, 101
2, 6528, Note_on_c, 0, 77, 0
2, 6528, Note_on_c, 0, 89, 0
2, 6600, Note_on_c, 0, 74, 113
2, 6600, Note_on_c, 0, 86, 101
2, 6624, Note_on_c, 0, 86, 0
2, 6624, Note_on_c, 0, 74, 0
2, 6630, Note_on_c, 0, 89, 107
2, 6630, Note_on_c, 0, 77, 100
2, 6654, Note_on_c, 0, 77, 0
2, 6654, Note_on_c, 0, 89, 0
2, 6660, Note_on_c, 0, 87, 113
2, 6660, Note_on_c, 0, 75, 101
2, 6708, Note_on_c, 0, 75, 0
2, 6708, Note_on_c, 0, 87, 0
2, 6780, Note_on_c, 0, 82, 121
2, 6780, Note_on_c, 0, 70, 99
2, 6828, Note_on_c, 0, 70, 0
2, 6828, Note_on_c, 0, 82, 0
2, 6840, Note_on_c, 0, 82, 111
2, 6840, Note_on_c, 0, 70, 111
2, 6852, Note_on_c, 0, 70, 0
2, 6852, Note_on_c, 0, 82, 0
2, 6855, Note_on_c, 0, 84, 123
2, 6855, Note_on_c, 0, 72, 96
2, 6867, Note_on_c, 0, 72, 0
2, 6867, Note_on_c, 0, 84, 0
2, 6870, Note_on_c, 0, 70, 109
2, 6870, Note_on_c, 0, 82, 111
2, 6882, Note_on_c, 0, 82, 0
2, 6882, Note_on_c, 0, 70, 0
2, 6885, Note_on_c, 0, 84, 127
2, 6885, Note_on_c, 0, 72, 125
2, 6897, Note_on_c, 0, 72, 0
2, 6897, Note_on_c, 0, 84, 0
2, 6900, Note_on_c, 0, 70, 109
2, 6900, Note_on_c, 0, 82, 109
2, 6912, Note_on_c, 0, 82, 0
2, 6912, Note_on_c, 0, 70, 0
2, 6915, Note_on_c, 0, 84, 123
2, 6915, Note_on_c, 0, 72, 105
2, 6927, Note_on_c, 0, 72, 0
2, 6927, Note_on_c, 0, 84, 0
2, 6930, Note_on_c, 0, 70, 105
2, 6930, Note_on_c, 0, 82, 111
2, 6942, Note_on_c, 0, 82, 0
2, 6942, Note_on_c, 0, 70, 0
2, 6945, Note_on_c, 0, 72, 127
2, 6945, Note_on_c, 0, 84, 127
2, 6957, Note_on_c, 0, 84, 0
2, 6957, Note_on_c, 0, 72, 0
2, 6960, Note_on_c, 0, 70, 121
2, 6960, Note_on_c, 0, 82, 115
2, 6984, Note_on_c, 0, 82, 0
2, 6984, Note_on_c, 0, 70, 0
2, 6990, Note_on_c, 0, 69, 109
2, 6990, Note_on_c, 0, 81, 127
2, 7014, Note_on_c, 0, 81, 0
2, 7014, Note_on_c, 0, 69, 0
2, 7020, Note_on_c, 0, 82, 127
2, 7020, Note_on_c, 0, 70, 109
2, 7068, Note_on_c, 0, 70, 0
2, 7068, Note_on_c, 0, 82, 0
2, 7140, Note_on_c, 0, 70, 115
2, 7188, Note_on_c, 0, 70, 0
2, 7200, Note_on_c, 0, 70, 118
2, 7248, Note_on_c, 0, 70, 0
2, 7260, Note_on_c, 0, 75, 121
2, 7308, Note_on_c, 0, 75, 0
2, 7320, Note_on_c, 0, 75, 96
2, 7368, Note_on_c, 0, 75, 0
2, 7380, Note_on_c, 0, 79, 120
2, 7428, Note_on_c, 0, 79, 0
2, 7500, Note_on_c, 0, 79, 113
2, 7500, Note_on_c, 0, 67, 109
2, 7524, Note_on_c, 0, 67, 0
2, 7524, Note_on_c, 0, 79, 0
2, 7530, Note_on_c, 0, 82, 126
2, 7530, Note_on_c, 0, 70, 111
2, 7554, Note_on_c, 0, 70, 0
2, 7554, Note_on_c, 0, 82, 0
2, 7560, Note_on_c, 0, 82, 127
2, 7560, Note_on_c, 0, 70, 107
2, 7584, Note_on_c, 0, 70, 0
2, 7584, Note_on_c, 0, 82, 0
2, 7590, Note_on_c, 0, 87, 107
2, 7590, Note_on_c, 0, 75, 103
2, 7614, Note_on_c, 0, 75, 0
2, 7614, Note_on_c, 0, 87, 0
2, 7620, Note_on_c, 0, 87, 127
2, 7620, Note_on_c, 0, 75, 115
2, 7836, Note_on_c, 0, 75, 0
2, 7836, Note_on_c, 0, 87, 0
2, 7860, Note_on_c, 0, 87, 118
2, 7860, Note_on_c, 0, 75, 103
2, 7884, Note_on_c, 0, 75, 0
2, 7884, Note_on_c, 0, 87, 0
2, 7890, Note_on_c, 0, 91, 109
2, 7890, Note_on_c, 0, 79, 101
2, 7914, Note_on_c, 0, 79, 0
2, 7914, Note_on_c, 0, 91, 0
2, 7920, Note_on_c, 0, 77, 105
2, 7920, Note_on_c, 0, 89, 105
2, 7968, Note_on_c, 0, 89, 0
2, 7968, Note_on_c, 0, 77, 0
2, 8040, Note_on_c, 0, 86, 112
2, 8040, Note_on_c, 0, 74, 110
2, 8064, Note_on_c, 0, 74, 0
2, 8064, Note_on_c, 0, 86, 0
2, 8070, Note_on_c, 0, 89, 109
2, 8070, Note_on_c, 0, 77, 106
2, 8094, Note_on_c, 0, 77, 0
2, 8094, Note_on_c, 0, 89, 0
2, 8100, Note_on_c, 0, 87, 121
2, 8100, Note_on_c, 0, 75, 105
2, 8148, Note_on_c, 0, 75, 0
2, 8148, Note_on_c, 0, 87, 0
2, 8220, Note_on_c, 0, 82, 127
2, 8220, Note_on_c, 0, 70, 109
2, 8268, Note_on_c, 0, 70, 0
2, 8268, Note_on_c, 0, 82, 0
2, 8280, Note_on_c, 0, 82, 105
2, 8280, Note_on_c, 0, 70, 118
2, 8292, Note_on_c, 0, 70, 0
2, 8292, Note_on_c, 0, 82, 0
2, 8295, Note_on_c, 0, 84, 127
2, 8295, Note_on_c, 0, 72, 127
2, 8307, Note_on_c, 0, 72, 0
2, 8307, Note_on_c, 0, 84, 0
2, 8310, Note_on_c, 0, 70, 107
2, 8310, Note_on_c, 0, 82, 111
2, 8322, Note_on_c, 0, 82, 0
2, 8322, Note_on_c, 0, 70, 0
2, 8325, Note_on_c, 0, 84, 125
2, 8325, Note_on_c, 0, 72, 127
2, 8337, Note_on_c, 0, 72, 0
2, 8337, Note_on_c, 0, 84, 0
2, 8340, Note_on_c, 0, 70, 111
2, 8340, Note_on_c, 0, 82, 109
2, 8352, Note_on_c, 0, 82, 0
2, 8352, Note_on_c, 0, 70, 0
2, 8355, Note_on_c, 0, 84, 121
2, 8355, Note_on_c, 0, 72, 127
2, 8367, Note_on_c, 0, 72, 0
2, 8367, Note_on_c, 0, 84, 0
2, 8370, Note_on_c, 0, 70, 107
2, 8370, Note_on_c, 0, 82, 111
2, 8382, Note_on_c, 0, 82, 0
2, 8382, Note_on_c, 0, 70, 0
2, 8385, Note_on_c, 0, 72, 127
2, 8385, Note_on_c, 0, 84, 127
2, 8397, Note_on_c, 0, 84, 0
2, 8397, Note_on_c, 0, 72, 0
2, 8400, Note_on_c, 0, 70, 113
2, 8400, Note_on_c, 0, 82, 111
2, 8424, Note_on_c, 0, 82, 0
2, 8424, Note_on_c, 0, 70, 0
2, 8430, Note_on_c, 0, 81, 127
2, 8430, Note_on_c, 0, 69, 127
2, 8454, Note_on_c, 0, 69, 0
2, 8454, Note_on_c, 0, 81, 0
2, 8460, Note_on_c, 0, 82, 127
2, 8460, Note_on_c, 0, 70, 115
2, 8508, Note_on_c, 0, 70, 0
2, 8508, Note_on_c, 0, 82, 0
2, 8940, Note_on_c, 0, 78, 107
2, 8940, Note_on_c, 0, 90, 126
2, 8964, Note_on_c, 0, 90, 0
2, 8964, Note_on_c, 0, 78, 0
2, 8970, Note_on_c, 0, 89, 100
2, 8970, Note_on_c, 0, 77, 98
2, 8994, Note_on_c, 0, 77, 0
2, 8994, Note_on_c, 0, 89, 0
2, 9000, Note_on_c, 0, 89, 117
2, 9000, Note_on_c, 0, 77, 111
2, 9048, Note_on_c, 0, 77, 0
2, 9048, Note_on_c, 0, 89, 0
2, 9120, Note_on_c, 0, 88, 100
2, 9120, Note_on_c, 0, 76, 109
2, 9144, Note_on_c, 0, 76, 0
2, 9144, Note_on_c, 0, 88, 0
2, 9150, Note_on_c, 0, 87, 107
2, 9150, Note_on_c, 0, 75, 101
2, 9174, Note_on_c, 0, 75, 0
2, 9174, Note_on_c, 0, 87, 0
2, 9180, Note_on_c, 0, 87, 121
2, 9180, Note_on_c, 0, 75, 111
2, 9228, Note_on_c, 0, 75, 0
2, 9228, Note_on_c, 0, 87, 0
2, 9300, Note_on_c, 0, 87, 111
2, 9300, Note_on_c, 0, 82, 105
2, 9324, Note_on_c, 0, 87, 0
2, 9330, Note_on_c, 0, 86, 118
2, 9354, Note_on_c, 0, 86, 0
2, 9354, Note_on_c, 0, 82, 0
2, 9360, Note_on_c, 0, 82, 92
2, 9360, Note_on_c, 0, 86, 117
2, 9456, Note_on_c, 0, 86, 0
2, 9456, Note_on_c, 0, 82, 0
2, 9480, Note_on_c, 0, 82, 87
2, 9480, Note_on_c, 0, 86, 107
2, 9528, Note_on_c, 0, 86, 0
2, 9528, Note_on_c, 0, 82, 0
2, 9540, Note_on_c, 0, 86, 111
2, 9540, Note_on_c, 0, 82, 95
2, 9612, Note_on_c, 0, 82, 0
2, 9612, Note_on_c, 0, 86, 0
2, 9630, Note_on_c, 0, 87, 107
2, 9630, Note_on_c, 0, 82, 105
2, 9654, Note_on_c, 0, 82, 0
2, 9654, Note_on_c, 0, 87, 0
2, 9660, Note_on_c, 0, 89, 113
2, 9660, Note_on_c, 0, 82, 95
2, 9708, Note_on_c, 0, 82, 0
2, 9708, Note_on_c, 0, 89, 0
2, 9720, Note_on_c, 0, 89, 120
2, 9768, Note_on_c, 0, 89, 0
2, 9780, Note_on_c, 0, 91, 121
2, 9828, Note_on_c, 0, 91, 0
2, 9840, Note_on_c, 0, 87, 97
2, 9888, Note_on_c, 0, 87, 0
2, 9900, Note_on_c, 0, 87, 101
2, 9996, Note_on_c, 0, 87, 0
2, 10020, Note_on_c, 0, 87, 115
2, 10044, Note_on_c, 0, 87, 0
2, 10050, Note_on_c, 0, 86, 127
2, 10074, Note_on_c, 0, 86, 0
2, 10080, Note_on_c, 0, 82, 90
2, 10080, Note_on_c, 0, 86, 127
2, 10176, Note_on_c, 0, 86, 0
2, 10176, Note_on_c, 0, 82, 0
2, 10200, Note_on_c, 0, 82, 97
2, 10200, Note_on_c, 0, 86, 127
2, 10248, Note_on_c, 0, 86, 0
2, 10248, Note_on_c, 0, 82, 0
2, 10260, Note_on_c, 0, 82, 28
2, 10260, Note_on_c, 0, 86, 127
2, 10332, Note_on_c, 0, 86, 0
2, 10332, Note_on_c, 0, 82, 0
2, 10350, Note_on_c, 0, 82, 101
2, 10350, Note_on_c, 0, 87, 121
2, 10374, Note_on_c, 0, 87, 0
2, 10374, Note_on_c, 0, 82, 0
2, 10380, Note_on_c, 0, 82, 96
2, 10380, Note_on_c, 0, 89, 127
2, 10428, Note_on_c, 0, 89, 0
2, 10428, Note_on_c, 0, 82, 0
2, 10440, Note_on_c, 0, 89, 127
2, 10464, Note_on_c, 0, 89, 0
2, 10470, Note_on_c, 0, 91, 127
2, 10494, Note_on_c, 0, 91, 0
2, 10560, Note_on_c, 0, 87, 97
2, 10560, Note_on_c, 0, 75, 95
2, 10608, Note_on_c, 0, 75, 0
2, 10608, Note_on_c, 0, 87, 0
2, 10620, Note_on_c, 0, 87, 107
2, 10620, Note_on_c, 0, 75, 100
2, 10692, Note_on_c, 0, 75, 0
2, 10692, Note_on_c, 0, 87, 0
2, 10710, Note_on_c, 0, 89, 103
2, 10710, Note_on_c, 0, 77, 104
2, 10734, Note_on_c, 0, 77, 0
2, 10734, Note_on_c, 0, 89, 0
2, 10740, Note_on_c, 0, 79, 103
2, 10740, Note_on_c, 0, 91, 104
2, 10788, Note_on_c, 0, 91, 0
2, 10788, Note_on_c, 0, 79, 0
2, 10800, Note_on_c, 0, 79, 111
2, 10800, Note_on_c, 0, 91, 110
2, 10824, Note_on_c, 0, 91, 0
2, 10824, Note_on_c, 0, 79, 0
2, 10830, Note_on_c, 0, 92, 123
2, 10830, Note_on_c, 0, 80, 100
2, 10854, Note_on_c, 0, 80, 0
2, 10854, Note_on_c, 0, 92, 0
2, 10920, Note_on_c, 0, 89, 98
2, 10920, Note_on_c, 0, 77, 103
2, 10968, Note_on_c, 0, 77, 0
2, 10968, Note_on_c, 0, 89, 0
2, 10980, Note_on_c, 0, 89, 105
2, 10980, Note_on_c, 0, 77, 103
2, 11052, Note_on_c, 0, 77, 0
2, 11052, Note_on_c, 0, 89, 0
2, 11070, Note_on_c, 0, 79, 102
2, 11070, Note_on_c, 0, 91, 109
2, 11094, Note_on_c, 0, 91, 0
2, 11094, Note_on_c, 0, 79, 0
2, 11100, Note_on_c, 0, 92, 127
2, 11100, Note_on_c, 0, 80, 95
2, 11148, Note_on_c, 0, 80, 0
2, 11148, Note_on_c, 0, 92, 0
2, 11160, Note_on_c, 0, 82, 109
2, 11160, Note_on_c, 0, 70, 96
2, 11208, Note_on_c, 0, 70, 0
2, 11208, Note_on_c, 0, 82, 0
2, 11700, Note_on_c, 0, 91, 116
2, 11700, Note_on_c, 0, 84, 127
2, 11772, Note_on_c, 0, 84, 0
2, 11772, Note_on_c, 0, 91, 0
2, 11790, Note_on_c, 0, 84, 112
2, 11790, Note_on_c, 0, 89, 109
2, 11814, Note_on_c, 0, 89, 0
2, 11814, Note_on_c, 0, 84, 0
2, 11820, Note_on_c, 0, 87, 93
2, 11820, Note_on_c, 0, 84, 121
2, 11868, Note_on_c, 0, 84, 0
2, 11868, Note_on_c, 0, 87, 0
2, 11880, Note_on_c, 0, 86, 113
2, 11880, Note_on_c, 0, 77, 106
2, 11952, Note_on_c, 0, 77, 0
2, 11952, Note_on_c, 0, 86, 0
2, 11970, Note_on_c, 0, 84, 123
2, 11970, Note_on_c, 0, 75, 86
2, 11994, Note_on_c, 0, 75, 0
2, 11994, Note_on_c, 0, 84, 0
2, 12000, Note_on_c, 0, 82, 88
2, 12000, Note_on_c, 0, 74, 99
2, 12048, Note_on_c, 0, 74, 0
2, 12048, Note_on_c, 0, 82, 0
2, 12060, Note_on_c, 0, 87, 97
2, 12060, Note_on_c, 0, 91, 108
2, 12132, Note_on_c, 0, 91, 0
2, 12132, Note_on_c, 0, 87, 0
2, 12150, Note_on_c, 0, 92, 85
2, 12150, Note_on_c, 0, 89, 127
2, 12174, Note_on_c, 0, 89, 0
2, 12174, Note_on_c, 0, 92, 0
2, 12180, Note_on_c, 0, 91, 102
2, 12228, Note_on_c, 0, 91, 0
2, 12240, Note_on_c, 0, 92, 97
2, 12240, Note_on_c, 0, 84, 98
2, 12336, Note_on_c, 0, 84, 0
2, 12336, Note_on_c, 0, 92, 0
2, 12420, Note_on_c, 0, 89, 117
2, 12420, Note_on_c, 0, 86, 103
2, 12516, Note_on_c, 0, 86, 0
2, 12516, Note_on_c, 0, 89, 0
2, 12600, Note_on_c, 0, 87, 107
2, 12696, Note_on_c, 0, 87, 0
2, 12960, Note_on_c, 0, 87, 103
2, 13104, Note_on_c, 0, 87, 0
2, 13140, Note_on_c, 0, 84, 104
2, 13284, Note_on_c, 0, 84, 0
2, 13320, Note_on_c, 0, 82, 93
2, 13320, Note_on_c, 0, 87, 105
2, 13416, Note_on_c, 0, 87, 0
2, 13416, Note_on_c, 0, 82, 0
2, 13680, Note_on_c, 0, 92, 97
2, 13680, Note_on_c, 0, 89, 127
2, 13824, Note_on_c, 0, 89, 0
2, 13824, Note_on_c, 0, 92, 0
2, 13860, Note_on_c, 0, 84, 101
2, 13860, Note_on_c, 0, 89, 114
2, 14004, Note_on_c, 0, 89, 0
2, 14004, Note_on_c, 0, 84, 0
2, 14040, Note_on_c, 0, 79, 103
2, 14040, Note_on_c, 0, 87, 97
2, 14136, Note_on_c, 0, 87, 0
2, 14136, Note_on_c, 0, 79, 0
2, 14400, Note_on_c, 0, 91, 114
2, 14400, Note_on_c, 0, 82, 84
2, 14496, Note_on_c, 0, 82, 0
2, 14496, Note_on_c, 0, 91, 0
2, 14760, Note_on_c, 0, 87, 96
2, 14760, Note_on_c, 0, 79, 113
2, 14856, Note_on_c, 0, 79, 0
2, 14856, Note_on_c, 0, 87, 0
2, 21960, Note_on_c, 0, 84, 117
2, 22056, Note_on_c, 0, 84, 0
2, 22140, Note_on_c, 0, 91, 127
2, 22188, Note_on_c, 0, 91, 0
2, 22200, Note_on_c, 0, 89, 127
2, 22248, Note_on_c, 0, 89, 0
2, 22260, Note_on_c, 0, 87, 109
2, 22308, Note_on_c, 0, 87, 0
2, 22320, Note_on_c, 0, 86, 127
2, 22379, Note_on_c, 0, 86, 0
2, 22380, Note_on_c, 0, 84, 113
2, 22428, Note_on_c, 0, 84, 0
2, 22440, Note_on_c, 0, 83, 127
2, 22469, Note_on_c, 0, 83, 0
2, 22500, Note_on_c, 0, 84, 117
2, 22619, Note_on_c, 0, 84, 0
2, 22620, Note_on_c, 0, 86, 127
2, 22679, Note_on_c, 0, 86, 0
2, 22680, Note_on_c, 0, 87, 89
2, 22728, Note_on_c, 0, 87, 0
2, 22740, Note_on_c, 0, 87, 99
2, 22740, Note_on_c, 0, 79, 118
2, 22799, Note_on_c, 0, 79, 0
2, 22799, Note_on_c, 0, 87, 0
2, 22800, Note_on_c, 0, 84, 116
2, 22800, Note_on_c, 0, 81, 111
2, 22859, Note_on_c, 0, 81, 0
2, 22859, Note_on_c, 0, 84, 0
2, 22860, Note_on_c, 0, 86, 106
2, 22860, Note_on_c, 0, 82, 107
2, 22979, Note_on_c, 0, 82, 0
2, 22979, Note_on_c, 0, 86, 0
2, 22980, Note_on_c, 0, 81, 127
2, 22980, Note_on_c, 0, 84, 120
2, 23028, Note_on_c, 0, 84, 0
2, 23028, Note_on_c, 0, 81, 0
2, 23040, Note_on_c, 0, 84, 111
2, 23040, Note_on_c, 0, 81, 127
2, 23136, Note_on_c, 0, 81, 0
2, 23136, Note_on_c, 0, 84, 0
2, 23760, Note_on_c, 0, 86, 110
2, 23760, Note_on_c, 0, 83, 127
2, 23856, Note_on_c, 0, 83, 0
2, 23856, Note_on_c, 0, 86, 0
2, 44040, Note_on_c, 0, 84, 127
2, 44088, Note_on_c, 0, 84, 0
2, 44100, Note_on_c, 0, 84, 127
2, 44172, Note_on_c, 0, 84, 0
2, 44190, Note_on_c, 0, 86, 127
2, 44214, Note_on_c, 0, 86, 0
2, 44220, Note_on_c, 0, 88, 121
2, 44268, Note_on_c, 0, 88, 0
2, 44280, Note_on_c, 0, 89, 104
2, 44328, Note_on_c, 0, 89, 0
2, 44400, Note_on_c, 0, 86, 127
2, 44448, Note_on_c, 0, 86, 0
2, 44460, Note_on_c, 0, 86, 127
2, 44532, Note_on_c, 0, 86, 0
2, 44550, Note_on_c, 0, 88, 107
2, 44574, Note_on_c, 0, 88, 0
2, 44580, Note_on_c, 0, 89, 127
2, 44628, Note_on_c, 0, 89, 0
2, 44640, Note_on_c, 0, 91, 121
2, 44736, Note_on_c, 0, 91, 0
2, 55080, Note_on_c, 0, 84, 125
2, 55080, Note_on_c, 0, 76, 123
2, 55176, Note_on_c, 0, 76, 0
2, 55176, Note_on_c, 0, 84, 0
2, 55440, Note_on_c, 0, 84, 97
2, 55440, Note_on_c, 0, 84, 118
2, 55584, Note_on_c, 0, 84, 0
2, 55620, Note_on_c, 0, 96, 118
2, 55728, Note_on_c, 0, 84, 0
2, 55764, Note_on_c, 0, 96, 0
2, 55800, Note_on_c, 0, 91, 110
2, 55800, Note_on_c, 0, 84, 106
2, 55896, Note_on_c, 0, 84, 0
2, 55896, Note_on_c, 0, 91, 0
2, 56160, Note_on_c, 0, 89, 110
2, 56160, Note_on_c, 0, 83, 109
2, 56304, Note_on_c, 0, 83, 0
2, 56304, Note_on_c, 0, 89, 0
2, 56340, Note_on_c, 0, 86, 123
2, 56340, Note_on_c, 0, 83, 112
2, 56484, Note_on_c, 0, 83, 0
2, 56484, Note_on_c, 0, 86, 0
2, 56520, Note_on_c, 0, 84, 105
2, 56520, Note_on_c, 0, 72, 110
2, 56616, Note_on_c, 0, 72, 0
2, 56616, Note_on_c, 0, 84, 0
2, 56880, Note_on_c, 0, 84, 121
2, 56880, Note_on_c, 0, 72, 116
2, 56976, Note_on_c, 0, 72, 0
2, 56976, Note_on_c, 0, 84, 0
2, 64800, Note_on_c, 0, 80, 126
2, 64896, Note_on_c, 0, 80, 0
2, 65160, Note_on_c, 0, 80, 115
2, 65160, Note_on_c, 0, 92, 113
2, 65304, Note_on_c, 0, 92, 0
2, 65340, Note_on_c, 0, 89, 125
2, 65448, Note_on_c, 0, 80, 0
2, 65484, Note_on_c, 0, 89, 0
2, 65520, Note_on_c, 0, 75, 113
2, 65520, Note_on_c, 0, 87, 107
2, 65616, Note_on_c, 0, 87, 0
2, 65616, Note_on_c, 0, 75, 0
2, 65880, Note_on_c, 0, 85, 113
2, 65880, Note_on_c, 0, 82, 101
2, 66024, Note_on_c, 0, 82, 0
2, 66024, Note_on_c, 0, 85, 0
2, 66060, Note_on_c, 0, 79, 108
2, 66060, Note_on_c, 0, 82, 101
2, 66204, Note_on_c, 0, 82, 0
2, 66204, Note_on_c, 0, 79, 0
2, 66240, Note_on_c, 0, 80, 115
2, 66336, Note_on_c, 0, 80, 0
2, 66600, Note_on_c, 0, 80, 118
2, 66696, Note_on_c, 0, 80, 0
2, 74880, Note_on_c, 0, 76, 127
2, 74880, Note_on_c, 0, 76, 127
2, 74976, Note_on_c, 0, 76, 0
2, 74976, Note_on_c, 0, 76, 0
2, 75240, Note_on_c, 0, 76, 125
2, 75240, Note_on_c, 0, 88, 127
2, 75384, Note_on_c, 0, 76, 0
2, 75420, Note_on_c, 0, 85, 113
2, 75528, Note_on_c, 0, 88, 0
2, 75564, Note_on_c, 0, 85, 0
2, 75600, Note_on_c, 0, 83, 117
2, 75600, Note_on_c, 0, 83, 121
2, 75696, Note_on_c, 0, 83, 0
2, 75712, Note_on_c, 0, 83, 0
2, 75960, Note_on_c, 0, 83, 109
2, 75960, Note_on_c, 0, 90, 113
2, 76104, Note_on_c, 0, 90, 0
2, 76140, Note_on_c, 0, 87, 90
2, 76248, Note_on_c, 0, 83, 0
2, 76284, Note_on_c, 0, 87, 0
2, 94260, Note_on_c, 0, 70, 127
2, 94308, Note_on_c, 0, 70, 0
2, 94320, Note_on_c, 0, 70, 127
2, 94368, Note_on_c, 0, 70, 0
2, 94380, Note_on_c, 0, 75, 118
2, 94428, Note_on_c, 0, 75, 0
2, 94440, Note_on_c, 0, 75, 94
2, 94488, Note_on_c, 0, 75, 0
2, 94500, Note_on_c, 0, 79, 127
2, 94548, Note_on_c, 0, 79, 0
2, 94620, Note_on_c, 0, 79, 114
2, 94620, Note_on_c, 0, 67, 112
2, 94644, Note_on_c, 0, 67, 0
2, 94644, Note_on_c, 0, 79, 0
2, 94650, Note_on_c, 0, 70, 111
2, 94650, Note_on_c, 0, 82, 121
2, 94674, Note_on_c, 0, 82, 0
2, 94674, Note_on_c, 0, 70, 0
2, 94680, Note_on_c, 0, 70, 101
2, 94680, Note_on_c, 0, 82, 121
2, 94704, Note_on_c, 0, 82, 0
2, 94704, Note_on_c, 0, 70, 0
2, 94710, Note_on_c, 0, 75, 100
2, 94710, Note_on_c, 0, 87, 109
2, 94734, Note_on_c, 0, 87, 0
2, 94734, Note_on_c, 0, 75, 0
2, 94740, Note_on_c, 0, 75, 101
2, 94740, Note_on_c, 0, 87, 118
2, 94956, Note_on_c, 0, 87, 0
2, 94956, Note_on_c, 0, 75, 0
2, 94980, Note_on_c, 0, 75, 107
2, 94980, Note_on_c, 0, 87, 115
2, 95004, Note_on_c, 0, 87, 0
2, 95004, Note_on_c, 0, 75, 0
2, 95010, Note_on_c, 0, 79, 99
2, 95010, Note_on_c, 0, 91, 105
2, 95034, Note_on_c, 0, 91, 0
2, 95034, Note_on_c, 0, 79, 0
2, 95040, Note_on_c, 0, 77, 101
2, 95040, Note_on_c, 0, 89, 105
2, 95088, Note_on_c, 0, 89, 0
2, 95088, Note_on_c, 0, 77, 0
2, 95160, Note_on_c, 0, 86, 101
2, 95160, Note_on_c, 0, 74, 113
2, 95184, Note_on_c, 0, 74, 0
2, 95184, Note_on_c, 0, 86, 0
2, 95190, Note_on_c, 0, 77, 100
2, 95190, Note_on_c, 0, 89, 107
2, 95214, Note_on_c, 0, 89, 0
2, 95214, Note_on_c, 0, 77, 0
2, 95220, Note_on_c, 0, 75, 101
2, 95220, Note_on_c, 0, 87, 113
2, 95268, Note_on_c, 0, 87, 0
2, 95268, Note_on_c, 0, 75, 0
2, 95340, Note_on_c, 0, 70, 99
2, 95340, Note_on_c, 0, 82, 121
2, 95388, Note_on_c, 0, 82, 0
2, 95388, Note_on_c, 0, 70, 0
2, 95400, Note_on_c, 0, 70, 111
2, 95400, Note_on_c, 0, 82, 111
2, 95412, Note_on_c, 0, 82, 0
2, 95412, Note_on_c, 0, 70, 0
2, 95415, Note_on_c, 0, 72, 96
2, 95415, Note_on_c, 0, 84, 123
2, 95427, Note_on_c, 0, 84, 0
2, 95427, Note_on_c, 0, 72, 0
2, 95430, Note_on_c, 0, 82, 111
2, 95430, Note_on_c, 0, 70, 109
2, 95442, Note_on_c, 0, 70, 0
2, 95442, Note_on_c, 0, 82, 0
2, 95445, Note_on_c, 0, 72, 125
2, 95445, Note_on_c, 0, 84, 127
2, 95457, Note_on_c, 0, 84, 0
2, 95457, Note_on_c, 0, 72, 0
2, 95460, Note_on_c, 0, 82, 109
2, 95460, Note_on_c, 0, 70, 109
2, 95472, Note_on_c, 0, 70, 0
2, 95472, Note_on_c, 0, 82, 0
2, 95475, Note_on_c, 0, 72, 105
2, 95475, Note_on_c, 0, 84, 123
2, 95487, Note_on_c, 0, 84, 0
2, 95487, Note_on_c, 0, 72, 0
2, 95490, Note_on_c, 0, 82, 111
2, 95490, Note_on_c, 0, 70, 105
2, 95502, Note_on_c, 0, 70, 0
2, 95502, Note_on_c, 0, 82, 0
2, 95505, Note_on_c, 0, 84, 127
2, 95505, Note_on_c, 0, 72, 127
2, 95517, Note_on_c, 0, 72, 0
2, 95517, Note_on_c, 0, 84, 0
2, 95520, Note_on_c, 0, 82, 115
2, 95520, Note_on_c, 0, 70, 121
2, 95544, Note_on_c, 0, 70, 0
2, 95544, Note_on_c, 0, 82, 0
2, 95550, Note_on_c, 0, 81, 127
2, 95550, Note_on_c, 0, 69, 109
2, 95574, Note_on_c, 0, 69, 0
2, 95574, Note_on_c, 0, 81, 0
2, 95580, Note_on_c, 0, 70, 109
2, 95580, Note_on_c, 0, 82, 127
2, 95628, Note_on_c, 0, 82, 0
2, 95628, Note_on_c, 0, 70, 0
2, 95700, Note_on_c, 0, 70, 115
2, 95748, Note_on_c, 0, 70, 0
2, 95760, Note_on_c, 0, 70, 118
2, 95808, Note_on_c, 0, 70, 0
2, 95820, Note_on_c, 0, 75, 121
2, 95868, Note_on_c, 0, 75, 0
2, 95880, Note_on_c, 0, 75, 96
2, 95928, Note_on_c, 0, 75, 0
2, 95940, Note_on_c, 0, 79, 120
2, 95988, Note_on_c, 0, 79, 0
2, 96060, Note_on_c, 0, 67, 109
2, 96060, Note_on_c, 0, 79, 113
2, 96084, Note_on_c, 0, 79, 0
2, 96084, Note_on_c, 0, 67, 0
2, 96090, Note_on_c, 0, 70, 111
2, 96090, Note_on_c, 0, 82, 126
2, 96114, Note_on_c, 0, 82, 0
2, 96114, Note_on_c, 0, 70, 0
2, 96120, Note_on_c, 0, 70, 107
2, 96120, Note_on_c, 0, 82, 127
2, 96144, Note_on_c, 0, 82, 0
2, 96144, Note_on_c, 0, 70, 0
2, 96150, Note_on_c, 0, 75, 103
2, 96150, Note_on_c, 0, 87, 107
2, 96174, Note_on_c, 0, 87, 0
2, 96174, Note_on_c, 0, 75, 0
2, 96180, Note_on_c, 0, 75, 115
2, 96180, Note_on_c, 0, 87, 127
2, 96396, Note_on_c, 0, 87, 0
2, 96396, Note_on_c, 0, 75, 0
2, 96420, Note_on_c, 0, 75, 103
2, 96420, Note_on_c, 0, 87, 118
2, 96444, Note_on_c, 0, 87, 0
2, 96444, Note_on_c, 0, 75, 0
2, 96450, Note_on_c, 0, 79, 101
2, 96450, Note_on_c, 0, 91, 109
2, 96474, Note_on_c, 0, 91, 0
2, 96474, Note_on_c, 0, 79, 0
2, 96480, Note_on_c, 0, 89, 105
2, 96480, Note_on_c, 0, 77, 105
2, 96528, Note_on_c, 0, 77, 0
2, 96528, Note_on_c, 0, 89, 0
2, 96600, Note_on_c, 0, 74, 110
2, 96600, Note_on_c, 0, 86, 112
2, 96624, Note_on_c, 0, 86, 0
2, 96624, Note_on_c, 0, 74, 0
2, 96630, Note_on_c, 0, 77, 106
2, 96630, Note_on_c, 0, 89, 109
2, 96654, Note_on_c, 0, 89, 0
2, 96654, Note_on_c, 0, 77, 0
2, 96660, Note_on_c, 0, 75, 105
2, 96660, Note_on_c, 0, 87, 121
2, 96708, Note_on_c, 0, 87, 0
2, 96708, Note_on_c, 0, 75, 0
2, 96780, Note_on_c, 0, 70, 109
2, 96780, Note_on_c, 0, 82, 127
2, 96828, Note_on_c, 0, 82, 0
2, 96828, Note_on_c, 0, 70, 0
2, 96840, Note_on_c, 0, 70, 118
2, 96840, Note_on_c, 0, 82, 105
2, 96852, Note_on_c, 0, 82, 0
2, 96852, Note_on_c, 0, 70, 0
2, 96855, Note_on_c, 0, 72, 127
2, 96855, Note_on_c, 0, 84, 127
2, 96867, Note_on_c, 0, 84, 0
2, 96867, Note_on_c, 0, 72, 0
2, 96870, Note_on_c, 0, 82, 111
2, 96870, Note_on_c, 0, 70, 107
2, 96882, Note_on_c, 0, 70, 0
2, 96882, Note_on_c, 0, 82, 0
2, 96885, Note_on_c, 0, 72, 127
2, 96885, Note_on_c, 0, 84, 125
2, 96897, Note_on_c, 0, 84, 0
2, 96897, Note_on_c, 0, 72, 0
2, 96900, Note_on_c, 0, 82, 109
2, 96900, Note_on_c, 0, 70, 111
2, 96912, Note_on_c, 0, 70, 0
2, 96912, Note_on_c, 0, 82, 0
2, 96915, Note_on_c, 0, 72, 127
2, 96915, Note_on_c, 0, 84, 121
2, 96927, Note_on_c, 0, 84, 0
2, 96927, Note_on_c, 0, 72, 0
2, 96930, Note_on_c, 0, 82, 111
2, 96930, Note_on_c, 0, 70, 107
2, 96942, Note_on_c, 0, 70, 0
2, 96942, Note_on_c, 0, 82, 0
2, 96945, Note_on_c, 0, 84, 127
2, 96945, Note_on_c, 0, 72, 127
2, 96957, Note_on_c, 0, 72, 0
2, 96957, Note_on_c, 0, 84, 0
2, 96960, Note_on_c, 0, 82, 111
2, 96960, Note_on_c, 0, 70, 113
2, 96984, Note_on_c, 0, 70, 0
2, 96984, Note_on_c, 0, 82, 0
2, 96990, Note_on_c, 0, 69, 127
2, 96990, Note_on_c, 0, 81, 127
2, 97014, Note_on_c, 0, 81, 0
2, 97014, Note_on_c, 0, 69, 0
2, 97020, Note_on_c, 0, 70, 115
2, 97020, Note_on_c, 0, 82, 127
2, 97068, Note_on_c, 0, 82, 0
2, 97068, Note_on_c, 0, 70, 0
2, 97500, Note_on_c, 0, 90, 126
2, 97500, Note_on_c, 0, 78, 107
2, 97524, Note_on_c, 0, 78, 0
2, 97524, Note_on_c, 0, 90, 0
2, 97530, Note_on_c, 0, 77, 98
2, 97530, Note_on_c, 0, 89, 100
2, 97554, Note_on_c, 0, 89, 0
2, 97554, Note_on_c, 0, 77, 0
2, 97560, Note_on_c, 0, 77, 111
2, 97560, Note_on_c, 0, 89, 117
2, 97608, Note_on_c, 0, 89, 0
2, 97608, Note_on_c, 0, 77, 0
2, 97680, Note_on_c, 0, 76, 109
2, 97680, Note_on_c, 0, 88, 100
2, 97704, Note_on_c, 0, 88, 0
2, 97704, Note_on_c, 0, 76, 0
2, 97710, Note_on_c, 0, 75, 101
2, 97710, Note_on_c, 0, 87, 107
2, 97734, Note_on_c, 0, 87, 0
2, 97734, Note_on_c, 0, 75, 0
2, 97740, Note_on_c, 0, 75, 111
2, 97740, Note_on_c, 0, 87, 121
2, 97788, Note_on_c, 0, 87, 0
2, 97788, Note_on_c, 0, 75, 0
2, 97860, Note_on_c, 0, 82, 105
2, 97860, Note_on_c, 0, 87, 111
2, 97884, Note_on_c, 0, 87, 0
2, 97890, Note_on_c, 0, 86, 118
2, 97914, Note_on_c, 0, 86, 0
2, 97914, Note_on_c, 0, 82, 0
2, 97920, Note_on_c, 0, 86, 117
2, 97920, Note_on_c, 0, 82, 92
2, 98016, Note_on_c, 0, 82, 0
2, 98016, Note_on_c, 0, 86, 0
2, 98040, Note_on_c, 0, 86, 107
2, 98040, Note_on_c, 0, 82, 87
2, 98088, Note_on_c, 0, 82, 0
2, 98088, Note_on_c, 0, 86, 0
2, 98100, Note_on_c, 0, 82, 95
2, 98100, Note_on_c, 0, 86, 111
2, 98172, Note_on_c, 0, 86, 0
2, 98172, Note_on_c, 0, 82, 0
2, 98190, Note_on_c, 0, 82, 105
2, 98190, Note_on_c, 0, 87, 107
2, 98214, Note_on_c, 0, 87, 0
2, 98214, Note_on_c, 0, 82, 0
2, 98220, Note_on_c, 0, 82, 95
2, 98220, Note_on_c, 0, 89, 113
2, 98268, Note_on_c, 0, 89, 0
2, 98268, Note_on_c, 0, 82, 0
2, 98280, Note_on_c, 0, 89, 120
2, 98328, Note_on_c, 0, 89, 0
2, 98340, Note_on_c, 0, 91, 121
2, 98388, Note_on_c, 0, 91, 0
2, 98400, Note_on_c, 0, 87, 97
2, 98448, Note_on_c, 0, 87, 0
2, 98460, Note_on_c, 0, 87, 101
2, 98556, Note_on_c, 0, 87, 0
2, 98580, Note_on_c, 0, 87, 115
2, 98604, Note_on_c, 0, 87, 0
2, 98610, Note_on_c, 0, 86, 127
2, 98634, Note_on_c, 0, 86, 0
2, 98640, Note_on_c, 0, 86, 127
2, 98640, Note_on_c, 0, 82, 90
2, 98736, Note_on_c, 0, 82, 0
2, 98736, Note_on_c, 0, 86, 0
2, 98760, Note_on_c, 0, 86, 127
2, 98760, Note_on_c, 0, 82, 97
2, 98808, Note_on_c, 0, 82, 0
2, 98808, Note_on_c, 0, 86, 0
2, 98820, Note_on_c, 0, 86, 127
2, 98820, Note_on_c, 0, 82, 28
2, 98892, Note_on_c, 0, 82, 0
2, 98892, Note_on_c, 0, 86, 0
2, 98910, Note_on_c, 0, 87, 121
2, 98910, Note_on_c, 0, 82, 101
2, 98934, Note_on_c, 0, 82, 0
2, 98934, Note_on_c, 0, 87, 0
2, 98940, Note_on_c, 0, 89, 127
2, 98940, Note_on_c, 0, 82, 96
2, 98988, Note_on_c, 0, 82, 0
2, 98988, Note_on_c, 0, 89, 0
2, 99000, Note_on_c, 0, 89, 127
2, 99024, Note_on_c, 0, 89, 0
2, 99030, Note_on_c, 0, 91, 127
2, 99054, Note_on_c, 0, 91, 0
2, 99120, Note_on_c, 0, 75, 95
2, 99120, Note_on_c, 0, 87, 97
2, 99168, Note_on_c, 0, 87, 0
2, 99168, Note_on_c, 0, 75, 0
2, 99180, Note_on_c, 0, 75, 100
2, 99180, Note_on_c, 0, 87, 107
2, 99252, Note_on_c, 0, 87, 0
2, 99252, Note_on_c, 0, 75, 0
2, 99270, Note_on_c, 0, 77, 104
2, 99270, Note_on_c, 0, 89, 103
2, 99294, Note_on_c, 0, 89, 0
2, 99294, Note_on_c, 0, 77, 0
2, 99300, Note_on_c, 0, 91, 104
2, 99300, Note_on_c, 0, 79, 103
2, 99348, Note_on_c, 0, 79, 0
2, 99348, Note_on_c, 0, 91, 0
2, 99360, Note_on_c, 0, 91, 110
2, 99360, Note_on_c, 0, 79, 111
2, 99384, Note_on_c, 0, 79, 0
2, 99384, Note_on_c, 0, 91, 0
2, 99390, Note_on_c, 0, 80, 100
2, 99390, Note_on_c, 0, 92, 123
2, 99414, Note_on_c, 0, 92, 0
2, 99414, Note_on_c, 0, 80, 0
2, 99480, Note_on_c, 0, 77, 103
2, 99480, Note_on_c, 0, 89, 98
2, 99528, Note_on_c, 0, 89, 0
2, 99528, Note_on_c, 0, 77, 0
2, 99540, Note_on_c, 0, 77, 103
2, 99540, Note_on_c, 0, 89, 105
2, 99612, Note_on_c, 0, 89, 0
2, 99612, Note_on_c, 0, 77, 0
2, 99630, Note_on_c, 0, 91, 109
2, 99630, Note_on_c, 0, 79, 102
2, 99654, Note_on_c, 0, 79, 0
2, 99654, Note_on_c, 0, 91, 0
2, 99660, Note_on_c, 0, 80, 95
2, 99660, Note_on_c, 0, 92, 127
2, 99708, Note_on_c, 0, 92, 0
2, 99708, Note_on_c, 0, 80, 0
2, 99720, Note_on_c, 0, 70, 96
2, 99720, Note_on_c, 0, 82, 109
2, 99768, Note_on_c, 0, 82, 0
2, 99768, Note_on_c, 0, 70, 0
2, 100260, Note_on_c, 0, 84, 127
2, 100260, Note_on_c, 0, 91, 116
2, 100332, Note_on_c, 0, 91, 0
2, 100332, Note_on_c, 0, 84, 0
2, 100350, Note_on_c, 0, 89, 109
2, 100350, Note_on_c, 0, 84, 112
2, 100374, Note_on_c, 0, 84, 0
2, 100374, Note_on_c, 0, 89, 0
2, 100380, Note_on_c, 0, 84, 121
2, 100380, Note_on_c, 0, 87, 93
2, 100428, Note_on_c, 0, 87, 0
2, 100428, Note_on_c, 0, 84, 0
2, 100440, Note_on_c, 0, 77, 106
2, 100440, Note_on_c, 0, 86, 113
2, 100512, Note_on_c, 0, 86, 0
2, 100512, Note_on_c, 0, 77, 0
2, 100530, Note_on_c, 0, 75, 86
2, 100530, Note_on_c, 0, 84, 123
2, 100554, Note_on_c, 0, 84, 0
2, 100554, Note_on_c, 0, 75, 0
2, 100560, Note_on_c, 0, 74, 99
2, 100560, Note_on_c, 0, 82, 88
2, 100608, Note_on_c, 0, 82, 0
2, 100608, Note_on_c, 0, 74, 0
2, 100620, Note_on_c, 0, 91, 108
2, 100620, Note_on_c, 0, 87, 97
2, 100692, Note_on_c, 0, 87, 0
2, 100692, Note_on_c, 0, 91, 0
2, 100710, Note_on_c, 0, 89, 127
2, 100710, Note_on_c, 0, 92, 85
2, 100734, Note_on_c, 0, 92, 0
2, 100734, Note_on_c, 0, 89, 0
2, 100740, Note_on_c, 0, 91, 102
2, 100788, Note_on_c, 0, 91, 0
2, 100800, Note_on_c, 0, 84, 98
2, 100800, Note_on_c, 0, 92, 97
2, 100896, Note_on_c, 0, 92, 0
2, 100896, Note_on_c, 0, 84, 0
2, 100980, Note_on_c, 0, 86, 103
2, 100980, Note_on_c, 0, 89, 117
2, 101076, Note_on_c, 0, 89, 0
2, 101076, Note_on_c, 0, 86, 0
2, 101160, Note_on_c, 0, 87, 107
2, 101256, Note_on_c, 0, 87, 0
2, 101520, Note_on_c, 0, 87, 103
2, 101664, Note_on_c, 0, 87, 0
2, 101700, Note_on_c, 0, 84, 104
2, 101844, Note_on_c, 0, 84, 0
2, 101880, Note_on_c, 0, 87, 105
2, 101880, Note_on_c, 0, 82, 93
2, 101976, Note_on_c, 0, 82, 0
2, 101976, Note_on_c, 0, 87, 0
2, 102240, Note_on_c, 0, 89, 127
2, 102240, Note_on_c, 0, 92, 97
2, 102384, Note_on_c, 0, 92, 0
2, 102384, Note_on_c, 0, 89, 0
2, 102420, Note_on_c, 0, 89, 114
2, 102420, Note_on_c, 0, 84, 101
2, 102564, Note_on_c, 0, 84, 0
2, 102564, Note_on_c, 0, 89, 0
2, 102600, Note_on_c, 0, 87, 97
2, 102600, Note_on_c, 0, 79, 103
2, 102696, Note_on_c, 0, 79, 0
2, 102696, Note_on_c, 0, 87, 0
2, 102960, Note_on_c, 0, 82, 84
2, 102960, Note_on_c, 0, 91, 114
2, 103056, Note_on_c, 0, 91, 0
2, 103056, Note_on_c, 0, 82, 0
2, 103320, Note_on_c, 0, 79, 113
2, 103320, Note_on_c, 0, 87, 96
2, 103416, Note_on_c, 0, 87, 0
2, 103416, Note_on_c, 0, 79, 0
2, 111240, Note_on_c, 0, 84, 127
2, 111240, Note_on_c, 0, 80, 107
2, 111336, Note_on_c, 0, 80, 0
2, 111336, Note_on_c, 0, 84, 0
2, 111600, Note_on_c, 0, 91, 127
2, 111648, Note_on_c, 0, 91, 0
2, 111660, Note_on_c, 0, 89, 127
2, 111708, Note_on_c, 0, 89, 0
2, 111720, Note_on_c, 0, 88, 127
2, 111768, Note_on_c, 0, 88, 0
2, 111780, Note_on_c, 0, 89, 127
2, 111876, Note_on_c, 0, 89, 0
2, 111900, Note_on_c, 0, 91, 120
2, 111948, Note_on_c, 0, 91, 0
2, 111960, Note_on_c, 0, 92, 92
2, 112008, Note_on_c, 0, 92, 0
2, 112020, Note_on_c, 0, 80, 83
2, 112020, Note_on_c, 0, 84, 127
2, 112068, Note_on_c, 0, 84, 0
2, 112068, Note_on_c, 0, 80, 0
2, 112080, Note_on_c, 0, 80, 79
2, 112080, Note_on_c, 0, 86, 127
2, 112128, Note_on_c, 0, 86, 0
2, 112128, Note_on_c, 0, 80, 0
2, 112140, Note_on_c, 0, 87, 91
2, 112140, Note_on_c, 0, 82, 91
2, 112188, Note_on_c, 0, 82, 0
2, 112188, Note_on_c, 0, 87, 0
2, 112200, Note_on_c, 0, 87, 97
2, 112248, Note_on_c, 0, 87, 0
2, 112260, Note_on_c, 0, 86, 121
2, 112260, Note_on_c, 0, 89, 127
2, 112308, Note_on_c, 0, 89, 0
2, 112308, Note_on_c, 0, 86, 0
2, 112320, Note_on_c, 0, 86, 121
2, 112320, Note_on_c, 0, 89, 123
2, 112416, Note_on_c, 0, 89, 0
2, 112416, Note_on_c, 0, 86, 0
2, 113040, Note_on_c, 0, 88, 118
2, 113040, Note_on_c, 0, 91, 120
2, 113136, Note_on_c, 0, 91, 0
2, 113136, Note_on_c, 0, 88, 0
2, 123480, Note_on_c, 0, 80, 109
2, 123480, Note_on_c, 0, 68, 111
2, 123504, Note_on_c, 0, 68, 0
2, 123504, Note_on_c, 0, 80, 0
2, 123510, Note_on_c, 0, 84, 103
2, 123510, Note_on_c, 0, 72, 107
2, 123534, Note_on_c, 0, 72, 0
2, 123534, Note_on_c, 0, 84, 0
2, 123540, Note_on_c, 0, 70, 96
2, 123540, Note_on_c, 0, 82, 87
2, 123588, Note_on_c, 0, 82, 0
2, 123588, Note_on_c, 0, 70, 0
2, 123660, Note_on_c, 0, 87, 103
2, 123660, Note_on_c, 0, 82, 113
2, 123708, Note_on_c, 0, 82, 0
2, 123708, Note_on_c, 0, 87, 0
2, 123720, Note_on_c, 0, 84, 125
2, 123720, Note_on_c, 0, 87, 94
2, 123768, Note_on_c, 0, 87, 0
2, 123768, Note_on_c, 0, 84, 0
2, 123840, Note_on_c, 0, 87, 99
2, 123840, Note_on_c, 0, 75, 96
2, 123888, Note_on_c, 0, 75, 0
2, 123888, Note_on_c, 0, 87, 0
2, 123900, Note_on_c, 0, 75, 103
2, 123900, Note_on_c, 0, 87, 109
2, 123912, Note_on_c, 0, 87, 0
2, 123915, Note_on_c, 0, 89, 127
2, 123927, Note_on_c, 0, 89, 0
2, 123930, Note_on_c, 0, 87, 107
2, 123942, Note_on_c, 0, 87, 0
2, 123945, Note_on_c, 0, 89, 127
2, 123957, Note_on_c, 0, 89, 0
2, 123960, Note_on_c, 0, 87, 111
2, 123972, Note_on_c, 0, 87, 0
2, 123975, Note_on_c, 0, 89, 123
2, 123987, Note_on_c, 0, 89, 0
2, 123990, Note_on_c, 0, 87, 107
2, 123996, Note_on_c, 0, 75, 0
2, 124002, Note_on_c, 0, 87, 0
2, 124005, Note_on_c, 0, 89, 120
2, 124017, Note_on_c, 0, 89, 0
2, 124020, Note_on_c, 0, 87, 113
2, 124044, Note_on_c, 0, 87, 0
2, 124050, Note_on_c, 0, 86, 100
2, 124074, Note_on_c, 0, 86, 0
2, 124080, Note_on_c, 0, 87, 109
2, 124176, Note_on_c, 0, 87, 0
2, 124920, Note_on_c, 0, 68, 111
2, 124920, Note_on_c, 0, 80, 109
2, 124944, Note_on_c, 0, 80, 0
2, 124944, Note_on_c, 0, 68, 0
2, 124950, Note_on_c, 0, 72, 107
2, 124950, Note_on_c, 0, 84, 103
2, 124974, Note_on_c, 0, 84, 0
2, 124974, Note_on_c, 0, 72, 0
2, 124980, Note_on_c, 0, 82, 87
2, 124980, Note_on_c, 0, 70, 96
2, 125028, Note_on_c, 0, 70, 0
2, 125028, Note_on_c, 0, 82, 0
2, 125100, Note_on_c, 0, 82, 113
2, 125100, Note_on_c, 0, 87, 103
2, 125148, Note_on_c, 0, 87, 0
2, 125148, Note_on_c, 0, 82, 0
2, 125160, Note_on_c, 0, 87, 94
2, 125160, Note_on_c, 0, 84, 125
2, 125208, Note_on_c, 0, 84, 0
2, 125208, Note_on_c, 0, 87, 0
2, 125280, Note_on_c, 0, 75, 96
2, 125280, Note_on_c, 0, 87, 99
2, 125328, Note_on_c, 0, 87, 0
2, 125328, Note_on_c, 0, 75, 0
2, 125340, Note_on_c, 0, 87, 109
2, 125340, Note_on_c, 0, 75, 103
2, 125352, Note_on_c, 0, 87, 0
2, 125355, Note_on_c, 0, 89, 127
2, 125367, Note_on_c, 0, 89, 0
2, 125370, Note_on_c, 0, 87, 107
2, 125382, Note_on_c, 0, 87, 0
2, 125385, Note_on_c, 0, 89, 127
2, 125397, Note_on_c, 0, 89, 0
2, 125400, Note_on_c, 0, 87, 111
2, 125412, Note_on_c, 0, 87, 0
2, 125415, Note_on_c, 0, 89, 123
2, 125427, Note_on_c, 0, 89, 0
2, 125430, Note_on_c, 0, 87, 107
2, 125436, Note_on_c, 0, 75, 0
2, 125442, Note_on_c, 0, 87, 0
2, 125445, Note_on_c, 0, 89, 120
2, 125457, Note_on_c, 0, 89, 0
2, 125460, Note_on_c, 0, 87, 113
2, 125484, Note_on_c, 0, 87, 0
2, 125490, Note_on_c, 0, 86, 100
2, 125514, Note_on_c, 0, 86, 0
2, 125520, Note_on_c, 0, 87, 109
2, 125616, Note_on_c, 0, 87, 0
2, 126540, Note_on_c, 0, 87, 111
2, 126540, Note_on_c, 0, 82, 115
2, 126588, Note_on_c, 0, 82, 0
2, 126588, Note_on_c, 0, 87, 0
2, 126600, Note_on_c, 0, 87, 103
2, 126600, Note_on_c, 0, 82, 105
2, 126672, Note_on_c, 0, 82, 0
2, 126672, Note_on_c, 0, 87, 0
2, 126690, Note_on_c, 0, 84, 121
2, 126690, Note_on_c, 0, 87, 109
2, 126714, Note_on_c, 0, 87, 0
2, 126714, Note_on_c, 0, 84, 0
2, 126720, Note_on_c, 0, 87, 105
2, 126720, Note_on_c, 0, 82, 103
2, 126768, Note_on_c, 0, 82, 0
2, 126768, Note_on_c, 0, 87, 0
2, 126780, Note_on_c, 0, 84, 127
2, 126780, Note_on_c, 0, 87, 107
2, 126876, Note_on_c, 0, 87, 0
2, 126876, Note_on_c, 0, 84, 0
2, 126900, Note_on_c, 0, 87, 95
2, 126900, Note_on_c, 0, 84, 127
2, 126948, Note_on_c, 0, 84, 0
2, 126948, Note_on_c, 0, 87, 0
2, 126960, Note_on_c, 0, 87, 95
2, 126960, Note_on_c, 0, 84, 127
2, 127056, Note_on_c, 0, 84, 0
2, 127056, Note_on_c, 0, 87, 0
2, 128520, Note_on_c, 0, 82, 113
2, 128520, Note_on_c, 0, 70, 105
2, 128568, Note_on_c, 0, 70, 0
2, 128568, Note_on_c, 0, 82, 0
2, 128580, Note_on_c, 0, 87, 115
2, 128580, Note_on_c, 0, 91, 127
2, 128676, Note_on_c, 0, 91, 0
2, 128676, Note_on_c, 0, 87, 0
2, 128760, Note_on_c, 0, 87, 99
2, 128760, Note_on_c, 0, 91, 112
2, 128856, Note_on_c, 0, 91, 0
2, 128856, Note_on_c, 0, 87, 0
2, 128940, Note_on_c, 0, 91, 127
2, 128940, Note_on_c, 0, 87, 107
2, 129036, Note_on_c, 0, 87, 0
2, 129036, Note_on_c, 0, 91, 0
2, 129120, Note_on_c, 0, 87, 96
2, 129120, Note_on_c, 0, 91, 120
2, 129216, Note_on_c, 0, 91, 0
2, 129216, Note_on_c, 0, 87, 0
2, 129300, Note_on_c, 0, 89, 125
2, 129300, Note_on_c, 0, 86, 127
2, 129396, Note_on_c, 0, 86, 0
2, 129396, Note_on_c, 0, 89, 0
2, 129480, Note_on_c, 0, 87, 118
2, 129480, Note_on_c, 0, 82, 109
2, 129576, Note_on_c, 0, 82, 0
2, 129576, Note_on_c, 0, 87, 0
2, 129660, Note_on_c, 0, 89, 127
2, 129660, Note_on_c, 0, 86, 127
2, 129756, Note_on_c, 0, 86, 0
2, 129756, Note_on_c, 0, 89, 0
2, 129840, Note_on_c, 0, 89, 127
2, 129840, Note_on_c, 0, 86, 127
2, 129936, Note_on_c, 0, 86, 0
2, 129936, Note_on_c, 0, 89, 0
2, 129960, Note_on_c, 0, 82, 92
2, 129960, Note_on_c, 0, 70, 95
2, 130008, Note_on_c, 0, 70, 0
2, 130008, Note_on_c, 0, 82, 0
2, 130020, Note_on_c, 0, 91, 127
2, 130020, Note_on_c, 0, 87, 111
2, 130116, Note_on_c, 0, 87, 0
2, 130116, Note_on_c, 0, 91, 0
2, 130200, Note_on_c, 0, 91, 127
2, 130200, Note_on_c, 0, 87, 115
2, 130296, Note_on_c, 0, 87, 0
2, 130296, Note_on_c, 0, 91, 0
2, 130380, Note_on_c, 0, 91, 127
2, 130380, Note_on_c, 0, 87, 107
2, 130476, Note_on_c, 0, 87, 0
2, 130476, Note_on_c, 0, 91, 0
2, 130560, Note_on_c, 0, 87, 100
2, 130560, Note_on_c, 0, 91, 125
2, 130656, Note_on_c, 0, 91, 0
2, 130656, Note_on_c, 0, 87, 0
2, 130740, Note_on_c, 0, 89, 114
2, 130740, Note_on_c, 0, 82, 97
2, 130836, Note_on_c, 0, 82, 0
2, 130836, Note_on_c, 0, 89, 0
2, 130920, Note_on_c, 0, 89, 107
2, 130920, Note_on_c, 0, 82, 97
2, 131016, Note_on_c, 0, 82, 0
2, 131016, Note_on_c, 0, 89, 0
2, 131100, Note_on_c, 0, 89, 127
2, 131100, Note_on_c, 0, 86, 127
2, 131196, Note_on_c, 0, 86, 0
2, 131196, Note_on_c, 0, 89, 0
2, 131280, Note_on_c, 0, 82, 115
2, 131280, Note_on_c, 0, 70, 103
2, 131376, Note_on_c, 0, 70, 0
2, 131376, Note_on_c, 0, 82, 0
2, 131460, Note_on_c, 0, 82, 97
2, 131460, Note_on_c, 0, 70, 103
2, 131556, Note_on_c, 0, 70, 0
2, 131556, Note_on_c, 0, 82, 0
2, 131640, Note_on_c, 0, 82, 103
2, 131640, Note_on_c, 0, 70, 107
2, 131736, Note_on_c, 0, 70, 0
2, 131736, Note_on_c, 0, 82, 0
2, 131820, Note_on_c, 0, 82, 99
2, 131820, Note_on_c, 0, 70, 101
2, 131916, Note_on_c, 0, 70, 0
2, 131916, Note_on_c, 0, 82, 0
2, 132000, Note_on_c, 0, 82, 82
2, 132000, Note_on_c, 0, 70, 107
2, 132096, Note_on_c, 0, 70, 0
2, 132096, Note_on_c, 0, 82, 0
2, 132180, Note_on_c, 0, 89, 127
2, 132180, Note_on_c, 0, 86, 127
2, 132276, Note_on_c, 0, 86, 0
2, 132276, Note_on_c, 0, 89, 0
2, 132360, Note_on_c, 0, 89, 127
2, 132360, Note_on_c, 0, 86, 127
2, 132456, Note_on_c, 0, 86, 0
2, 132456, Note_on_c, 0, 89, 0
2, 132540, Note_on_c, 0, 91, 112
2, 132540, Note_on_c, 0, 82, 90
2, 132636, Note_on_c, 0, 82, 0
2, 132636, Note_on_c, 0, 91, 0
2, 132720, Note_on_c, 0, 87, 113
2, 132720, Note_on_c, 0, 82, 97
2, 132816, Note_on_c, 0, 82, 0
2, 132816, Note_on_c, 0, 87, 0
2, 138300, Note_on_c, 0, 87, 121
2, 138300, Note_on_c, 0, 82, 109
2, 138396, Note_on_c, 0, 82, 0
2, 138396, Note_on_c, 0, 87, 0
2, 138660, Note_on_c, 0, 86, 127
2, 138660, Note_on_c, 0, 82, 118
2, 138756, Note_on_c, 0, 82, 0
2, 138756, Note_on_c, 0, 86, 0
2, 143340, Note_on_c, 0, 87, 126
2, 143340, Note_on_c, 0, 75, 118
2, 143436, Note_on_c, 0, 75, 0
2, 143436, Note_on_c, 0, 87, 0
2, 143700, Note_on_c, 0, 87, 109
2, 143700, Note_on_c, 0, 87, 113
2, 143844, Note_on_c, 0, 87, 0
2, 143880, Note_on_c, 0, 84, 127
2, 143988, Note_on_c, 0, 87, 0
2, 144024, Note_on_c, 0, 84, 0
2, 144060, Note_on_c, 0, 82, 126
2, 144156, Note_on_c, 0, 82, 0
2, 144420, Note_on_c, 0, 87, 113
2, 144420, Note_on_c, 0, 79, 127
2, 144516, Note_on_c, 0, 79, 0
2, 144516, Note_on_c, 0, 87, 0
2, 153060, Note_on_c, 0, 82, 126
2, 153060, Note_on_c, 0, 79, 123
2, 153108, Note_on_c, 0, 79, 0
2, 153108, Note_on_c, 0, 82, 0
2, 153120, Note_on_c, 0, 87, 121
2, 153120, Note_on_c, 0, 79, 127
2, 153168, Note_on_c, 0, 79, 0
2, 153168, Note_on_c, 0, 87, 0
2, 153180, Note_on_c, 0, 87, 127
2, 153180, Note_on_c, 0, 79, 127
2, 153228, Note_on_c, 0, 79, 0
2, 153228, Note_on_c, 0, 87, 0
2, 153240, Note_on_c, 0, 87, 123
2, 153240, Note_on_c, 0, 79, 127
2, 153288, Note_on_c, 0, 79, 0
2, 153288, Note_on_c, 0, 87, 0
2, 153360, Note_on_c, 0, 82, 113
2, 153360, Note_on_c, 0, 87, 99
2, 153408, Note_on_c, 0, 87, 0
2, 153408, Note_on_c, 0, 82, 0
2, 153420, Note_on_c, 0, 87, 99
2, 153420, Note_on_c, 0, 82, 121
2, 153468, Note_on_c, 0, 82, 0
2, 153468, Note_on_c, 0, 87, 0
2, 153480, Note_on_c, 0, 87, 121
2, 153480, Note_on_c, 0, 82, 121
2, 153696, Note_on_c, 0, 82, 0
2, 153696, Note_on_c, 0, 87, 0
2, 153720, Note_on_c, 0, 82, 123
2, 153768, Note_on_c, 0, 82, 0
2, 153780, Note_on_c, 0, 86, 127
2, 153780, Note_on_c, 0, 89, 127
2, 153828, Note_on_c, 0, 89, 0
2, 153828, Note_on_c, 0, 86, 0
2, 153840, Note_on_c, 0, 86, 127
2, 153840, Note_on_c, 0, 89, 127
2, 154056, Note_on_c, 0, 89, 0
2, 154056, Note_on_c, 0, 86, 0
2, 154080, Note_on_c, 0, 82, 121
2, 154128, Note_on_c, 0, 82, 0
2, 154140, Note_on_c, 0, 87, 115
2, 154140, Note_on_c, 0, 91, 127
2, 154188, Note_on_c, 0, 91, 0
2, 154188, Note_on_c, 0, 87, 0
2, 154200, Note_on_c, 0, 87, 113
2, 154200, Note_on_c, 0, 91, 127
2, 154296, Note_on_c, 0, 91, 0
2, 154296, Note_on_c, 0, 87, 0
2, 154320, Note_on_c, 0, 87, 115
2, 154320, Note_on_c, 0, 91, 127
2, 154368, Note_on_c, 0, 91, 0
2, 154368, Note_on_c, 0, 87, 0
2, 154380, Note_on_c, 0, 87, 111
2, 154380, Note_on_c, 0, 91, 127
2, 154476, Note_on_c, 0, 91, 0
2, 154476, Note_on_c, 0, 87, 0
2, 154500, Note_on_c, 0, 87, 113
2, 154500, Note_on_c, 0, 91, 127
2, 154548, Note_on_c, 0, 91, 0
2, 154548, Note_on_c, 0, 87, 0
2, 154560, Note_on_c, 0, 87, 118
2, 154560, Note_on_c, 0, 91, 127
2, 154656, Note_on_c, 0, 91, 0
2, 154656, Note_on_c, 0, 87, 0
2, 154680, Note_on_c, 0, 87, 115
2, 154680, Note_on_c, 0, 91, 123
2, 154728, Note_on_c, 0, 91, 0
2, 154728, Note_on_c, 0, 87, 0
2, 154740, Note_on_c, 0, 87, 113
2, 154740, Note_on_c, 0, 91, 127
2, 154836, Note_on_c, 0, 91, 0
2, 154836, Note_on_c, 0, 87, 0
2, 154860, Note_on_c, 0, 87, 113
2, 154860, Note_on_c, 0, 91, 127
2, 154956, Note_on_c, 0, 91, 0
2, 154956, Note_on_c, 0, 87, 0
2, 155040, Note_on_c, 0, 87, 103
2, 155040, Note_on_c, 0, 79, 111
2, 155136, Note_on_c, 0, 79, 0
2, 155136, Note_on_c, 0, 87, 0
2, 155220, Note_on_c, 0, 75, 111
2, 155316, Note_on_c, 0, 75, 0
2, 155316, End_track
3, 0, Start_track
3, 0, MIDI_port, 0
3, 0, Title_t, "Oboe"
3, 0, Program_c, 1, 68
3, 0, Control_c, 1, 7, 100
3, 0, Control_c, 1, 10, 80
3, 0, Control_c, 1, 93, 0
3, 0, Control_c, 1, 91, 0
3, 5700, Note_on_c, 1, 82, 89
3, 5700, Note_on_c, 1, 70, 89
3, 5748, Note_on_c, 1, 70, 0
3, 5748, Note_on_c, 1, 82, 0
3, 5760, Note_on_c, 1, 79, 76
3, 5760, Note_on_c, 1, 75, 66
3, 5808, Note_on_c, 1, 75, 0
3, 5808, Note_on_c, 1, 79, 0
3, 5820, Note_on_c, 1, 75, 66
3, 5820, Note_on_c, 1, 79, 77
3, 5868, Note_on_c, 1, 79, 0
3, 5868, Note_on_c, 1, 75, 0
3, 5880, Note_on_c, 1, 79, 73
3, 5880, Note_on_c, 1, 75, 61
3, 5928, Note_on_c, 1, 75, 0
3, 5928, Note_on_c, 1, 79, 0
3, 5940, Note_on_c, 1, 75, 60
3, 5940, Note_on_c, 1, 79, 81
3, 6052, Note_on_c, 1, 79, 0
3, 6052, Note_on_c, 1, 75, 0
3, 6060, Note_on_c, 1, 75, 64
3, 6060, Note_on_c, 1, 79, 82
3, 6108, Note_on_c, 1, 79, 0
3, 6108, Note_on_c, 1, 75, 0
3, 6120, Note_on_c, 1, 75, 74
3, 6120, Note_on_c, 1, 79, 89
3, 6168, Note_on_c, 1, 79, 0
3, 6168, Note_on_c, 1, 75, 0
3, 6180, Note_on_c, 1, 75, 76
3, 6180, Note_on_c, 1, 79, 89
3, 6396, Note_on_c, 1, 79, 0
3, 6396, Note_on_c, 1, 75, 0
3, 6420, Note_on_c, 1, 79, 89
3, 6420, Note_on_c, 1, 75, 74
3, 6468, Note_on_c, 1, 75, 0
3, 6468, Note_on_c, 1, 79, 0
3, 6480, Note_on_c, 1, 80, 76
3, 6480, Note_on_c, 1, 77, 89
3, 6528, Note_on_c, 1, 77, 0
3, 6528, Note_on_c, 1, 80, 0
3, 6600, Note_on_c, 1, 80, 75
3, 6600, Note_on_c, 1, 77, 89
3, 6648, Note_on_c, 1, 77, 0
3, 6648, Note_on_c, 1, 80, 0
3, 6660, Note_on_c, 1, 75, 75
3, 6660, Note_on_c, 1, 79, 89
3, 6708, Note_on_c, 1, 79, 0
3, 6708, Note_on_c, 1, 75, 0
3, 6780, Note_on_c, 1, 75, 72
3, 6780, Note_on_c, 1, 79, 89
3, 6828, Note_on_c, 1, 79, 0
3, 6828, Note_on_c, 1, 75, 0
3, 6840, Note_on_c, 1, 74, 89
3, 6840, Note_on_c, 1, 77, 85
3, 6984, Note_on_c, 1, 77, 0
3, 6984, Note_on_c, 1, 74, 0
3, 7020, Note_on_c, 1, 74, 89
3, 7020, Note_on_c, 1, 77, 83
3, 7068, Note_on_c, 1, 77, 0
3, 7068, Note_on_c, 1, 74, 0
3, 7140, Note_on_c, 1, 79, 86
3, 7140, Note_on_c, 1, 75, 71
3, 7188, Note_on_c, 1, 75, 0
3, 7188, Note_on_c, 1, 79, 0
3, 7200, Note_on_c, 1, 79, 89
3, 7200, Note_on_c, 1, 75, 70
3, 7248, Note_on_c, 1, 75, 0
3, 7248, Note_on_c, 1, 79, 0
3, 7260, Note_on_c, 1, 75, 70
3, 7260, Note_on_c, 1, 79, 89
3, 7308, Note_on_c, 1, 79, 0
3, 7308, Note_on_c, 1, 75, 0
3, 7320, Note_on_c, 1, 75, 71
3, 7320, Note_on_c, 1, 79, 84
3, 7368, Note_on_c, 1, 79, 0
3, 7368, Note_on_c, 1, 75, 0
3, 7380, Note_on_c, 1, 75, 78
3, 7380, Note_on_c, 1, 79, 89
3, 7492, Note_on_c, 1, 79, 0
3, 7492, Note_on_c, 1, 75, 0
3, 7500, Note_on_c, 1, 75, 64
3, 7500, Note_on_c, 1, 79, 85
3, 7548, Note_on_c, 1, 79, 0
3, 7548, Note_on_c, 1, 75, 0
3, 7560, Note_on_c, 1, 79, 83
3, 7560, Note_on_c, 1, 75, 72
3, 7608, Note_on_c, 1, 75, 0
3, 7608, Note_on_c, 1, 79, 0
3, 7620, Note_on_c, 1, 75, 74
3, 7620, Note_on_c, 1, 79, 89
3, 7836, Note_on_c, 1, 79, 0
3, 7836, Note_on_c, 1, 75, 0
3, 7860, Note_on_c, 1, 79, 85
3, 7860, Note_on_c, 1, 75, 68
3, 7908, Note_on_c, 1, 75, 0
3, 7908, Note_on_c, 1, 79, 0
3, 7920, Note_on_c, 1, 77, 88
3, 7920, Note_on_c, 1, 80, 67
3, 7968, Note_on_c, 1, 80, 0
3, 7968, Note_on_c, 1, 77, 0
3, 8040, Note_on_c, 1, 80, 79
3, 8040, Note_on_c, 1, 77, 89
3, 8088, Note_on_c, 1, 77, 0
3, 8088, Note_on_c, 1, 80, 0
3, 8100, Note_on_c, 1, 75, 75
3, 8100, Note_on_c, 1, 79, 83
3, 8148, Note_on_c, 1, 79, 0
3, 8148, Note_on_c, 1, 75, 0
3, 8220, Note_on_c, 1, 79, 86
3, 8220, Note_on_c, 1, 75, 76
3, 8268, Note_on_c, 1, 75, 0
3, 8268, Note_on_c, 1, 79, 0
3, 8280, Note_on_c, 1, 77, 85
3, 8280, Note_on_c, 1, 74, 88
3, 8424, Note_on_c, 1, 74, 0
3, 8424, Note_on_c, 1, 77, 0
3, 8460, Note_on_c, 1, 74, 89
3, 8460, Note_on_c, 1, 77, 89
3, 8508, Note_on_c, 1, 77, 0
3, 8508, Note_on_c, 1, 74, 0
3, 8580, Note_on_c, 1, 82, 74
3, 8580, Note_on_c, 1, 70, 67
3, 9276, Note_on_c, 1, 70, 0
3, 9276, Note_on_c, 1, 82, 0
3, 9300, Note_on_c, 1, 80, 76
3, 9300, Note_on_c, 1, 77, 89
3, 9348, Note_on_c, 1, 77, 0
3, 9348, Note_on_c, 1, 80, 0
3, 9360, Note_on_c, 1, 80, 72
3, 9360, Note_on_c, 1, 77, 86
3, 9456, Note_on_c, 1, 77, 0
3, 9456, Note_on_c, 1, 80, 0
3, 9480, Note_on_c, 1, 80, 76
3, 9480, Note_on_c, 1, 77, 89
3, 9528, Note_on_c, 1, 77, 0
3, 9528, Note_on_c, 1, 80, 0
3, 9540, Note_on_c, 1, 80, 67
3, 9540, Note_on_c, 1, 77, 79
3, 9612, Note_on_c, 1, 77, 0
3, 9612, Note_on_c, 1, 80, 0
3, 9630, Note_on_c, 1, 75, 75
3, 9630, Note_on_c, 1, 79, 89
3, 9654, Note_on_c, 1, 79, 0
3, 9654, Note_on_c, 1, 75, 0
3, 9660, Note_on_c, 1, 80, 75
3, 9660, Note_on_c, 1, 77, 81
3, 9708, Note_on_c, 1, 77, 0
3, 9708, Note_on_c, 1, 80, 0
3, 9720, Note_on_c, 1, 80, 81
3, 9720, Note_on_c, 1, 77, 89
3, 9768, Note_on_c, 1, 77, 0
3, 9768, Note_on_c, 1, 80, 0
3, 9780, Note_on_c, 1, 79, 89
3, 9780, Note_on_c, 1, 75, 75
3, 9828, Note_on_c, 1, 75, 0
3, 9828, Note_on_c, 1, 79, 0
3, 9840, Note_on_c, 1, 75, 71
3, 9840, Note_on_c, 1, 79, 89
3, 9888, Note_on_c, 1, 79, 0
3, 9888, Note_on_c, 1, 75, 0
3, 9900, Note_on_c, 1, 79, 89
3, 9900, Note_on_c, 1, 75, 72
3, 9996, Note_on_c, 1, 75, 0
3, 9996, Note_on_c, 1, 79, 0
3, 10020, Note_on_c, 1, 80, 75
3, 10020, Note_on_c, 1, 77, 89
3, 10068, Note_on_c, 1, 77, 0
3, 10068, Note_on_c, 1, 80, 0
3, 10080, Note_on_c, 1, 80, 65
3, 10080, Note_on_c, 1, 77, 89
3, 10176, Note_on_c, 1, 77, 0
3, 10176, Note_on_c, 1, 80, 0
3, 10200, Note_on_c, 1, 80, 76
3, 10200, Note_on_c, 1, 77, 85
3, 10248, Note_on_c, 1, 77, 0
3, 10248, Note_on_c, 1, 80, 0
3, 10260, Note_on_c, 1, 77, 84
3, 10260, Note_on_c, 1, 80, 76
3, 10332, Note_on_c, 1, 80, 0
3, 10332, Note_on_c, 1, 77, 0
3, 10350, Note_on_c, 1, 79, 89
3, 10350, Note_on_c, 1, 75, 75
3, 10374, Note_on_c, 1, 75, 0
3, 10374, Note_on_c, 1, 79, 0
3, 10380, Note_on_c, 1, 80, 75
3, 10380, Note_on_c, 1, 77, 89
3, 10428, Note_on_c, 1, 77, 0
3, 10428, Note_on_c, 1, 80, 0
3, 10440, Note_on_c, 1, 75, 71
3, 10440, Note_on_c, 1, 79, 89
3, 10536, Note_on_c, 1, 79, 0
3, 10536, Note_on_c, 1, 75, 0
3, 10560, Note_on_c, 1, 75, 75
3, 10560, Note_on_c, 1, 63, 71
3, 10608, Note_on_c, 1, 63, 0
3, 10608, Note_on_c, 1, 75, 0
3, 10620, Note_on_c, 1, 75, 71
3, 10620, Note_on_c, 1, 63, 67
3, 10692, Note_on_c, 1, 63, 0
3, 10692, Note_on_c, 1, 75, 0
3, 10710, Note_on_c, 1, 77, 69
3, 10710, Note_on_c, 1, 65, 69
3, 10734, Note_on_c, 1, 65, 0
3, 10734, Note_on_c, 1, 77, 0
3, 10740, Note_on_c, 1, 67, 71
3, 10740, Note_on_c, 1, 79, 74
3, 10788, Note_on_c, 1, 79, 0
3, 10788, Note_on_c, 1, 67, 0
3, 10800, Note_on_c, 1, 79, 81
3, 10800, Note_on_c, 1, 67, 76
3, 10824, Note_on_c, 1, 67, 0
3, 10824, Note_on_c, 1, 79, 0
3, 10830, Note_on_c, 1, 80, 86
3, 10830, Note_on_c, 1, 68, 78
3, 10854, Note_on_c, 1, 68, 0
3, 10854, Note_on_c, 1, 80, 0
3, 10920, Note_on_c, 1, 77, 71
3, 10920, Note_on_c, 1, 65, 75
3, 10968, Note_on_c, 1, 65, 0
3, 10968, Note_on_c, 1, 77, 0
3, 10980, Note_on_c, 1, 77, 81
3, 10980, Note_on_c, 1, 65, 76
3, 11052, Note_on_c, 1, 65, 0
3, 11052, Note_on_c, 1, 77, 0
3, 11070, Note_on_c, 1, 79, 77
3, 11070, Note_on_c, 1, 67, 73
3, 11094, Note_on_c, 1, 67, 0
3, 11094, Note_on_c, 1, 79, 0
3, 11100, Note_on_c, 1, 80, 88
3, 11100, Note_on_c, 1, 68, 74
3, 11148, Note_on_c, 1, 68, 0
3, 11148, Note_on_c, 1, 80, 0
3, 11160, Note_on_c, 1, 80, 64
3, 11160, Note_on_c, 1, 68, 65
3, 11184, Note_on_c, 1, 68, 0
3, 11184, Note_on_c, 1, 80, 0
3, 11190, Note_on_c, 1, 82, 79
3, 11190, Note_on_c, 1, 70, 76
3, 11214, Note_on_c, 1, 70, 0
3, 11214, Note_on_c, 1, 82, 0
3, 11280, Note_on_c, 1, 79, 62
3, 11280, Note_on_c, 1, 67, 50
3, 11328, Note_on_c, 1, 67, 0
3, 11328, Note_on_c, 1, 79, 0
3, 11340, Note_on_c, 1, 79, 74
3, 11340, Note_on_c, 1, 67, 72
3, 11412, Note_on_c, 1, 67, 0
3, 11412, Note_on_c, 1, 79, 0
3, 11430, Note_on_c, 1, 80, 88
3, 11430, Note_on_c, 1, 68, 78
3, 11454, Note_on_c, 1, 68, 0
3, 11454, Note_on_c, 1, 80, 0
3, 11460, Note_on_c, 1, 82, 75
3, 11460, Note_on_c, 1, 70, 65
3, 11508, Note_on_c, 1, 70, 0
3, 11508, Note_on_c, 1, 82, 0
3, 11520, Note_on_c, 1, 72, 72
3, 11520, Note_on_c, 1, 84, 73
3, 11592, Note_on_c, 1, 84, 0
3, 11592, Note_on_c, 1, 72, 0
3, 11610, Note_on_c, 1, 72, 78
3, 11610, Note_on_c, 1, 82, 66
3, 11634, Note_on_c, 1, 82, 0
3, 11634, Note_on_c, 1, 72, 0
3, 11640, Note_on_c, 1, 80, 76
3, 11640, Note_on_c, 1, 72, 76
3, 11688, Note_on_c, 1, 72, 0
3, 11688, Note_on_c, 1, 80, 0
3, 11700, Note_on_c, 1, 72, 78
3, 11700, Note_on_c, 1, 79, 85
3, 11772, Note_on_c, 1, 79, 0
3, 11772, Note_on_c, 1, 72, 0
3, 11790, Note_on_c, 1, 77, 89
3, 11790, Note_on_c, 1, 72, 74
3, 11814, Note_on_c, 1, 72, 0
3, 11814, Note_on_c, 1, 77, 0
3, 11820, Note_on_c, 1, 75, 70
3, 11820, Note_on_c, 1, 72, 74
3, 11868, Note_on_c, 1, 72, 0
3, 11868, Note_on_c, 1, 75, 0
3, 11880, Note_on_c, 1, 70, 68
3, 11880, Note_on_c, 1, 74, 89
3, 11952, Note_on_c, 1, 74, 0
3, 11952, Note_on_c, 1, 70, 0
3, 11970, Note_on_c, 1, 72, 89
3, 11970, Note_on_c, 1, 75, 85
3, 11994, Note_on_c, 1, 75, 0
3, 11994, Note_on_c, 1, 72, 0
3, 12000, Note_on_c, 1, 74, 86
3, 12000, Note_on_c, 1, 77, 89
3, 12048, Note_on_c, 1, 77, 0
3, 12048, Note_on_c, 1, 74, 0
3, 12060, Note_on_c, 1, 75, 76
3, 12060, Note_on_c, 1, 79, 88
3, 12132, Note_on_c, 1, 79, 0
3, 12132, Note_on_c, 1, 75, 0
3, 12150, Note_on_c, 1, 80, 62
3, 12150, Note_on_c, 1, 77, 88
3, 12174, Note_on_c, 1, 77, 0
3, 12174, Note_on_c, 1, 80, 0
3, 12180, Note_on_c, 1, 82, 70
3, 12180, Note_on_c, 1, 79, 83
3, 12228, Note_on_c, 1, 79, 0
3, 12228, Note_on_c, 1, 82, 0
3, 12240, Note_on_c, 1, 80, 76
3, 12240, Note_on_c, 1, 84, 89
3, 12336, Note_on_c, 1, 84, 0
3, 12336, Note_on_c, 1, 80, 0
3, 12420, Note_on_c, 1, 80, 71
3, 12420, Note_on_c, 1, 77, 85
3, 12516, Note_on_c, 1, 77, 0
3, 12516, Note_on_c, 1, 80, 0
3, 12600, Note_on_c, 1, 79, 74
3, 12600, Note_on_c, 1, 75, 64
3, 12696, Note_on_c, 1, 75, 0
3, 12696, Note_on_c, 1, 79, 0
3, 12960, Note_on_c, 1, 75, 85
3, 13104, Note_on_c, 1, 75, 0
3, 13140, Note_on_c, 1, 75, 60
3, 13140, Note_on_c, 1, 84, 83
3, 13284, Note_on_c, 1, 84, 0
3, 13284, Note_on_c, 1, 75, 0
3, 13320, Note_on_c, 1, 75, 71
3, 13320, Note_on_c, 1, 82, 83
3, 13416, Note_on_c, 1, 82, 0
3, 13416, Note_on_c, 1, 75, 0
3, 13680, Note_on_c, 1, 80, 83
3, 13680, Note_on_c, 1, 77, 89
3, 13824, Note_on_c, 1, 77, 0
3, 13824, Note_on_c, 1, 80, 0
3, 13860, Note_on_c, 1, 74, 74
3, 13860, Note_on_c, 1, 77, 89
3, 14004, Note_on_c, 1, 77, 0
3, 14004, Note_on_c, 1, 74, 0
3, 14040, Note_on_c, 1, 75, 83
3, 14136, Note_on_c, 1, 75, 0
3, 14400, Note_on_c, 1, 75, 78
3, 14400, Note_on_c, 1, 79, 85
3, 14496, Note_on_c, 1, 79, 0
3, 14496, Note_on_c, 1, 75, 0
3, 14760, Note_on_c, 1, 75, 85
3, 14856, Note_on_c, 1, 75, 0
3, 21960, Note_on_c, 1, 79, 121
3, 21960, Note_on_c, 1, 72, 116
3, 22056, Note_on_c, 1, 72, 0
3, 22056, Note_on_c, 1, 79, 0
3, 22140, Note_on_c, 1, 79, 127
3, 22188, Note_on_c, 1, 79, 0
3, 22200, Note_on_c, 1, 77, 127
3, 22248, Note_on_c, 1, 77, 0
3, 22260, Note_on_c, 1, 75, 115
3, 22308, Note_on_c, 1, 75, 0
3, 22320, Note_on_c, 1, 74, 127
3, 22379, Note_on_c, 1, 74, 0
3, 22380, Note_on_c, 1, 72, 116
3, 22428, Note_on_c, 1, 72, 0
3, 22440, Note_on_c, 1, 71, 123
3, 22469, Note_on_c, 1, 71, 0
3, 22500, Note_on_c, 1, 72, 117
3, 22619, Note_on_c, 1, 72, 0
3, 22620, Note_on_c, 1, 74, 125
3, 22679, Note_on_c, 1, 74, 0
3, 22680, Note_on_c, 1, 75, 103
3, 22709, Note_on_c, 1, 75, 0
3, 22740, Note_on_c, 1, 79, 125
3, 22740, Note_on_c, 1, 75, 109
3, 22799, Note_on_c, 1, 75, 0
3, 22799, Note_on_c, 1, 79, 0
3, 22800, Note_on_c, 1, 81, 114
3, 22800, Note_on_c, 1, 72, 111
3, 22859, Note_on_c, 1, 72, 0
3, 22859, Note_on_c, 1, 81, 0
3, 22860, Note_on_c, 1, 82, 103
3, 22860, Note_on_c, 1, 74, 116
3, 22979, Note_on_c, 1, 74, 0
3, 22979, Note_on_c, 1, 82, 0
3, 22980, Note_on_c, 1, 81, 103
3, 22980, Note_on_c, 1, 84, 98
3, 23028, Note_on_c, 1, 84, 0
3, 23028, Note_on_c, 1, 81, 0
3, 23040, Note_on_c, 1, 81, 112
3, 23040, Note_on_c, 1, 84, 111
3, 23152, Note_on_c, 1, 84, 0
3, 23152, Note_on_c, 1, 81, 0
3, 23760, Note_on_c, 1, 77, 118
3, 23760, Note_on_c, 1, 80, 90
3, 23856, Note_on_c, 1, 80, 0
3, 23856, Note_on_c, 1, 77, 0
3, 44040, Note_on_c, 1, 72, 127
3, 44088, Note_on_c, 1, 72, 0
3, 44100, Note_on_c, 1, 72, 127
3, 44172, Note_on_c, 1, 72, 0
3, 44190, Note_on_c, 1, 74, 127
3, 44214, Note_on_c, 1, 74, 0
3, 44220, Note_on_c, 1, 76, 121
3, 44268, Note_on_c, 1, 76, 0
3, 44280, Note_on_c, 1, 77, 104
3, 44328, Note_on_c, 1, 77, 0
3, 44400, Note_on_c, 1, 74, 127
3, 44448, Note_on_c, 1, 74, 0
3, 44460, Note_on_c, 1, 74, 127
3, 44532, Note_on_c, 1, 74, 0
3, 44550, Note_on_c, 1, 76, 107
3, 44574, Note_on_c, 1, 76, 0
3, 44580, Note_on_c, 1, 77, 127
3, 44628, Note_on_c, 1, 77, 0
3, 44640, Note_on_c, 1, 79, 121
3, 44736, Note_on_c, 1, 79, 0
3, 55080, Note_on_c, 1, 72, 108
3, 55080, Note_on_c, 1, 76, 107
3, 55176, Note_on_c, 1, 76, 0
3, 55176, Note_on_c, 1, 72, 0
3, 55440, Note_on_c, 1, 72, 101
3, 55440, Note_on_c, 1, 84, 106
3, 55584, Note_on_c, 1, 84, 0
3, 55584, Note_on_c, 1, 72, 0
3, 55620, Note_on_c, 1, 81, 123
3, 55764, Note_on_c, 1, 81, 0
3, 55800, Note_on_c, 1, 79, 127
3, 55896, Note_on_c, 1, 79, 0
3, 56160, Note_on_c, 1, 77, 123
3, 56160, Note_on_c, 1, 71, 123
3, 56304, Note_on_c, 1, 71, 0
3, 56304, Note_on_c, 1, 77, 0
3, 56340, Note_on_c, 1, 74, 100
3, 56340, Note_on_c, 1, 71, 110
3, 56484, Note_on_c, 1, 71, 0
3, 56484, Note_on_c, 1, 74, 0
3, 56520, Note_on_c, 1, 72, 108
3, 56616, Note_on_c, 1, 72, 0
3, 56880, Note_on_c, 1, 72, 127
3, 56976, Note_on_c, 1, 72, 0
3, 64800, Note_on_c, 1, 80, 100
3, 64800, Note_on_c, 1, 68, 93
3, 64896, Note_on_c, 1, 68, 0
3, 64896, Note_on_c, 1, 80, 0
3, 65160, Note_on_c, 1, 80, 115
3, 65304, Note_on_c, 1, 80, 0
3, 65340, Note_on_c, 1, 77, 127
3, 65484, Note_on_c, 1, 77, 0
3, 65520, Note_on_c, 1, 75, 111
3, 65616, Note_on_c, 1, 75, 0
3, 65880, Note_on_c, 1, 75, 90
3, 65880, Note_on_c, 1, 82, 115
3, 66024, Note_on_c, 1, 82, 0
3, 66060, Note_on_c, 1, 79, 127
3, 66168, Note_on_c, 1, 75, 0
3, 66204, Note_on_c, 1, 79, 0
3, 66240, Note_on_c, 1, 72, 88
3, 66240, Note_on_c, 1, 80, 88
3, 66336, Note_on_c, 1, 80, 0
3, 66336, Note_on_c, 1, 72, 0
3, 66600, Note_on_c, 1, 80, 118
3, 66600, Note_on_c, 1, 68, 109
3, 66696, Note_on_c, 1, 68, 0
3, 66696, Note_on_c, 1, 80, 0
3, 66960, Note_on_c, 1, 71, 76
3, 67032, Note_on_c, 1, 71, 0
3, 67050, Note_on_c, 1, 71, 76
3, 67074, Note_on_c, 1, 71, 0
3, 67080, Note_on_c, 1, 71, 76
3, 67128, Note_on_c, 1, 71, 0
3, 67140, Note_on_c, 1, 71, 72
3, 67188, Note_on_c, 1, 71, 0
3, 67200, Note_on_c, 1, 71, 70
3, 67248, Note_on_c, 1, 71, 0
3, 67260, Note_on_c, 1, 71, 73
3, 67308, Note_on_c, 1, 71, 0
3, 67320, Note_on_c, 1, 71, 76
3, 67368, Note_on_c, 1, 71, 0
3, 67380, Note_on_c, 1, 71, 76
3, 67428, Note_on_c, 1, 71, 0
3, 67440, Note_on_c, 1, 71, 73
3, 67488, Note_on_c, 1, 71, 0
3, 67500, Note_on_c, 1, 71, 73
3, 67548, Note_on_c, 1, 71, 0
3, 67560, Note_on_c, 1, 71, 70
3, 67608, Note_on_c, 1, 71, 0
3, 67620, Note_on_c, 1, 71, 75
3, 67668, Note_on_c, 1, 71, 0
3, 67680, Note_on_c, 1, 71, 76
3, 69576, Note_on_c, 1, 71, 0
3, 74880, Note_on_c, 1, 76, 111
3, 74880, Note_on_c, 1, 64, 118
3, 74976, Note_on_c, 1, 64, 0
3, 74976, Note_on_c, 1, 76, 0
3, 75240, Note_on_c, 1, 76, 116
3, 75384, Note_on_c, 1, 76, 0
3, 75420, Note_on_c, 1, 85, 100
3, 75420, Note_on_c, 1, 73, 93
3, 75564, Note_on_c, 1, 73, 0
3, 75564, Note_on_c, 1, 85, 0
3, 75600, Note_on_c, 1, 83, 112
3, 75600, Note_on_c, 1, 71, 116
3, 75696, Note_on_c, 1, 71, 0
3, 75696, Note_on_c, 1, 83, 0
3, 75960, Note_on_c, 1, 71, 127
3, 75960, Note_on_c, 1, 81, 127
3, 76104, Note_on_c, 1, 81, 0
3, 76140, Note_on_c, 1, 78, 118
3, 76248, Note_on_c, 1, 71, 0
3, 76284, Note_on_c, 1, 78, 0
3, 79920, Note_on_c, 1, 80, 103
3, 79992, Note_on_c, 1, 80, 0
3, 80010, Note_on_c, 1, 80, 105
3, 80034, Note_on_c, 1, 80, 0
3, 80040, Note_on_c, 1, 80, 103
3, 80088, Note_on_c, 1, 80, 0
3, 80100, Note_on_c, 1, 80, 99
3, 80148, Note_on_c, 1, 80, 0
3, 80160, Note_on_c, 1, 80, 111
3, 80208, Note_on_c, 1, 80, 0
3, 80220, Note_on_c, 1, 80, 103
3, 80268, Note_on_c, 1, 80, 0
3, 80280, Note_on_c, 1, 80, 105
3, 80352, Note_on_c, 1, 80, 0
3, 80370, Note_on_c, 1, 80, 100
3, 80394, Note_on_c, 1, 80, 0
3, 80400, Note_on_c, 1, 80, 105
3, 80448, Note_on_c, 1, 80, 0
3, 80460, Note_on_c, 1, 80, 107
3, 80508, Note_on_c, 1, 80, 0
3, 80520, Note_on_c, 1, 80, 109
3, 80568, Note_on_c, 1, 80, 0
3, 80580, Note_on_c, 1, 80, 113
3, 80628, Note_on_c, 1, 80, 0
3, 81360, Note_on_c, 1, 80, 111
3, 81432, Note_on_c, 1, 80, 0
3, 81450, Note_on_c, 1, 80, 107
3, 81474, Note_on_c, 1, 80, 0
3, 81480, Note_on_c, 1, 80, 115
3, 81528, Note_on_c, 1, 80, 0
3, 81540, Note_on_c, 1, 80, 103
3, 81588, Note_on_c, 1, 80, 0
3, 81600, Note_on_c, 1, 80, 109
3, 81648, Note_on_c, 1, 80, 0
3, 81660, Note_on_c, 1, 80, 118
3, 81708, Note_on_c, 1, 80, 0
3, 81720, Note_on_c, 1, 80, 115
3, 81792, Note_on_c, 1, 80, 0
3, 81810, Note_on_c, 1, 80, 111
3, 81834, Note_on_c, 1, 80, 0
3, 81840, Note_on_c, 1, 80, 103
3, 81888, Note_on_c, 1, 80, 0
3, 81900, Note_on_c, 1, 80, 111
3, 81948, Note_on_c, 1, 80, 0
3, 81960, Note_on_c, 1, 80, 111
3, 82008, Note_on_c, 1, 80, 0
3, 82020, Note_on_c, 1, 80, 113
3, 82068, Note_on_c, 1, 80, 0
3, 82080, Note_on_c, 1, 80, 115
3, 82152, Note_on_c, 1, 80, 0
3, 82170, Note_on_c, 1, 80, 113
3, 82194, Note_on_c, 1, 80, 0
3, 82200, Note_on_c, 1, 80, 113
3, 82248, Note_on_c, 1, 80, 0
3, 82440, Note_on_c, 1, 80, 105
3, 82512, Note_on_c, 1, 80, 0
3, 82530, Note_on_c, 1, 80, 103
3, 82554, Note_on_c, 1, 80, 0
3, 82560, Note_on_c, 1, 80, 123
3, 82608, Note_on_c, 1, 80, 0
3, 94260, Note_on_c, 1, 70, 89
3, 94260, Note_on_c, 1, 82, 89
3, 94308, Note_on_c, 1, 82, 0
3, 94308, Note_on_c, 1, 70, 0
3, 94320, Note_on_c, 1, 75, 66
3, 94320, Note_on_c, 1, 79, 76
3, 94368, Note_on_c, 1, 79, 0
3, 94368, Note_on_c, 1, 75, 0
3, 94380, Note_on_c, 1, 79, 77
3, 94380, Note_on_c, 1, 75, 66
3, 94428, Note_on_c, 1, 75, 0
3, 94428, Note_on_c, 1, 79, 0
3, 94440, Note_on_c, 1, 75, 61
3, 94440, Note_on_c, 1, 79, 73
3, 94488, Note_on_c, 1, 79, 0
3, 94488, Note_on_c, 1, 75, 0
3, 94500, Note_on_c, 1, 79, 81
3, 94500, Note_on_c, 1, 75, 60
3, 94612, Note_on_c, 1, 75, 0
3, 94612, Note_on_c, 1, 79, 0
3, 94620, Note_on_c, 1, 79, 82
3, 94620, Note_on_c, 1, 75, 64
3, 94668, Note_on_c, 1, 75, 0
3, 94668, Note_on_c, 1, 79, 0
3, 94680, Note_on_c, 1, 79, 89
3, 94680, Note_on_c, 1, 75, 74
3, 94728, Note_on_c, 1, 75, 0
3, 94728, Note_on_c, 1, 79, 0
3, 94740, Note_on_c, 1, 79, 89
3, 94740, Note_on_c, 1, 75, 76
3, 94956, Note_on_c, 1, 75, 0
3, 94956, Note_on_c, 1, 79, 0
3, 94980, Note_on_c, 1, 75, 74
3, 94980, Note_on_c, 1, 79, 89
3, 95028, Note_on_c, 1, 79, 0
3, 95028, Note_on_c, 1, 75, 0
3, 95040, Note_on_c, 1, 77, 89
3, 95040, Note_on_c, 1, 80, 76
3, 95088, Note_on_c, 1, 80, 0
3, 95088, Note_on_c, 1, 77, 0
3, 95160, Note_on_c, 1, 77, 89
3, 95160, Note_on_c, 1, 80, 75
3, 95208, Note_on_c, 1, 80, 0
3, 95208, Note_on_c, 1, 77, 0
3, 95220, Note_on_c, 1, 79, 89
3, 95220, Note_on_c, 1, 75, 75
3, 95268, Note_on_c, 1, 75, 0
3, 95268, Note_on_c, 1, 79, 0
3, 95340, Note_on_c, 1, 79, 89
3, 95340, Note_on_c, 1, 75, 72
3, 95388, Note_on_c, 1, 75, 0
3, 95388, Note_on_c, 1, 79, 0
3, 95400, Note_on_c, 1, 77, 85
3, 95400, Note_on_c, 1, 74, 89
3, 95544, Note_on_c, 1, 74, 0
3, 95544, Note_on_c, 1, 77, 0
3, 95580, Note_on_c, 1, 77, 83
3, 95580, Note_on_c, 1, 74, 89
3, 95628, Note_on_c, 1, 74, 0
3, 95628, Note_on_c, 1, 77, 0
3, 95700, Note_on_c, 1, 75, 71
3, 95700, Note_on_c, 1, 79, 86
3, 95748, Note_on_c, 1, 79, 0
3, 95748, Note_on_c, 1, 75, 0
3, 95760, Note_on_c, 1, 75, 70
3, 95760, Note_on_c, 1, 79, 89
3, 95808, Note_on_c, 1, 79, 0
3, 95808, Note_on_c, 1, 75, 0
3, 95820, Note_on_c, 1, 79, 89
3, 95820, Note_on_c, 1, 75, 70
3, 95868, Note_on_c, 1, 75, 0
3, 95868, Note_on_c, 1, 79, 0
3, 95880, Note_on_c, 1, 79, 84
3, 95880, Note_on_c, 1, 75, 71
3, 95928, Note_on_c, 1, 75, 0
3, 95928, Note_on_c, 1, 79, 0
3, 95940, Note_on_c, 1, 79, 89
3, 95940, Note_on_c, 1, 75, 78
3, 96052, Note_on_c, 1, 75, 0
3, 96052, Note_on_c, 1, 79, 0
3, 96060, Note_on_c, 1, 79, 85
3, 96060, Note_on_c, 1, 75, 64
3, 96108, Note_on_c, 1, 75, 0
3, 96108, Note_on_c, 1, 79, 0
3, 96120, Note_on_c, 1, 75, 72
3, 96120, Note_on_c, 1, 79, 83
3, 96168, Note_on_c, 1, 79, 0
3, 96168, Note_on_c, 1, 75, 0
3, 96180, Note_on_c, 1, 79, 89
3, 96180, Note_on_c, 1, 75, 74
3, 96396, Note_on_c, 1, 75, 0
3, 96396, Note_on_c, 1, 79, 0
3, 96420, Note_on_c, 1, 75, 68
3, 96420, Note_on_c, 1, 79, 85
3, 96468, Note_on_c, 1, 79, 0
3, 96468, Note_on_c, 1, 75, 0
3, 96480, Note_on_c, 1, 80, 67
3, 96480, Note_on_c, 1, 77, 88
3, 96528, Note_on_c, 1, 77, 0
3, 96528, Note_on_c, 1, 80, 0
3, 96600, Note_on_c, 1, 77, 89
3, 96600, Note_on_c, 1, 80, 79
3, 96648, Note_on_c, 1, 80, 0
3, 96648, Note_on_c, 1, 77, 0
3, 96660, Note_on_c, 1, 79, 83
3, 96660, Note_on_c, 1, 75, 75
3, 96708, Note_on_c, 1, 75, 0
3, 96708, Note_on_c, 1, 79, 0
3, 96780, Note_on_c, 1, 75, 76
3, 96780, Note_on_c, 1, 79, 86
3, 96828, Note_on_c, 1, 79, 0
3, 96828, Note_on_c, 1, 75, 0
3, 96840, Note_on_c, 1, 74, 88
3, 96840, Note_on_c, 1, 77, 85
3, 96984, Note_on_c, 1, 77, 0
3, 96984, Note_on_c, 1, 74, 0
3, 97020, Note_on_c, 1, 77, 89
3, 97020, Note_on_c, 1, 74, 89
3, 97068, Note_on_c, 1, 74, 0
3, 97068, Note_on_c, 1, 77, 0
3, 97140, Note_on_c, 1, 70, 67
3, 97140, Note_on_c, 1, 82, 74
3, 97836, Note_on_c, 1, 82, 0
3, 97836, Note_on_c, 1, 70, 0
3, 97860, Note_on_c, 1, 77, 89
3, 97860, Note_on_c, 1, 80, 76
3, 97908, Note_on_c, 1, 80, 0
3, 97908, Note_on_c, 1, 77, 0
3, 97920, Note_on_c, 1, 77, 86
3, 97920, Note_on_c, 1, 80, 72
3, 98016, Note_on_c, 1, 80, 0
3, 98016, Note_on_c, 1, 77, 0
3, 98040, Note_on_c, 1, 77, 89
3, 98040, Note_on_c, 1, 80, 76
3, 98088, Note_on_c, 1, 80, 0
3, 98088, Note_on_c, 1, 77, 0
3, 98100, Note_on_c, 1, 77, 79
3, 98100, Note_on_c, 1, 80, 67
3, 98172, Note_on_c, 1, 80, 0
3, 98172, Note_on_c, 1, 77, 0
3, 98190, Note_on_c, 1, 79, 89
3, 98190, Note_on_c, 1, 75, 75
3, 98214, Note_on_c, 1, 75, 0
3, 98214, Note_on_c, 1, 79, 0
3, 98220, Note_on_c, 1, 77, 81
3, 98220, Note_on_c, 1, 80, 75
3, 98268, Note_on_c, 1, 80, 0
3, 98268, Note_on_c, 1, 77, 0
3, 98280, Note_on_c, 1, 77, 89
3, 98280, Note_on_c, 1, 80, 81
3, 98328, Note_on_c, 1, 80, 0
3, 98328, Note_on_c, 1, 77, 0
3, 98340, Note_on_c, 1, 75, 75
3, 98340, Note_on_c, 1, 79, 89
3, 98388, Note_on_c, 1, 79, 0
3, 98388, Note_on_c, 1, 75, 0
3, 98400, Note_on_c, 1, 79, 89
3, 98400, Note_on_c, 1, 75, 71
3, 98448, Note_on_c, 1, 75, 0
3, 98448, Note_on_c, 1, 79, 0
3, 98460, Note_on_c, 1, 75, 72
3, 98460, Note_on_c, 1, 79, 89
3, 98556, Note_on_c, 1, 79, 0
3, 98556, Note_on_c, 1, 75, 0
3, 98580, Note_on_c, 1, 77, 89
3, 98580, Note_on_c, 1, 80, 75
3, 98628, Note_on_c, 1, 80, 0
3, 98628, Note_on_c, 1, 77, 0
3, 98640, Note_on_c, 1, 77, 89
3, 98640, Note_on_c, 1, 80, 65
3, 98736, Note_on_c, 1, 80, 0
3, 98736, Note_on_c, 1, 77, 0
3, 98760, Note_on_c, 1, 77, 85
3, 98760, Note_on_c, 1, 80, 76
3, 98808, Note_on_c, 1, 80, 0
3, 98808, Note_on_c, 1, 77, 0
3, 98820, Note_on_c, 1, 80, 76
3, 98820, Note_on_c, 1, 77, 84
3, 98892, Note_on_c, 1, 77, 0
3, 98892, Note_on_c, 1, 80, 0
3, 98910, Note_on_c, 1, 75, 75
3, 98910, Note_on_c, 1, 79, 89
3, 98934, Note_on_c, 1, 79, 0
3, 98934, Note_on_c, 1, 75, 0
3, 98940, Note_on_c, 1, 77, 89
3, 98940, Note_on_c, 1, 80, 75
3, 98988, Note_on_c, 1, 80, 0
3, 98988, Note_on_c, 1, 77, 0
3, 99000, Note_on_c, 1, 79, 89
3, 99000, Note_on_c, 1, 75, 71
3, 99096, Note_on_c, 1, 75, 0
3, 99096, Note_on_c, 1, 79, 0
3, 99120, Note_on_c, 1, 63, 71
3, 99120, Note_on_c, 1, 75, 75
3, 99168, Note_on_c, 1, 75, 0
3, 99168, Note_on_c, 1, 63, 0
3, 99180, Note_on_c, 1, 63, 67
3, 99180, Note_on_c, 1, 75, 71
3, 99252, Note_on_c, 1, 75, 0
3, 99252, Note_on_c, 1, 63, 0
3, 99270, Note_on_c, 1, 65, 69
3, 99270, Note_on_c, 1, 77, 69
3, 99294, Note_on_c, 1, 77, 0
3, 99294, Note_on_c, 1, 65, 0
3, 99300, Note_on_c, 1, 79, 74
3, 99300, Note_on_c, 1, 67, 71
3, 99348, Note_on_c, 1, 67, 0
3, 99348, Note_on_c, 1, 79, 0
3, 99360, Note_on_c, 1, 67, 76
3, 99360, Note_on_c, 1, 79, 81
3, 99384, Note_on_c, 1, 79, 0
3, 99384, Note_on_c, 1, 67, 0
3, 99390, Note_on_c, 1, 68, 78
3, 99390, Note_on_c, 1, 80, 86
3, 99414, Note_on_c, 1, 80, 0
3, 99414, Note_on_c, 1, 68, 0
3, 99480, Note_on_c, 1, 65, 75
3, 99480, Note_on_c, 1, 77, 71
3, 99528, Note_on_c, 1, 77, 0
3, 99528, Note_on_c, 1, 65, 0
3, 99540, Note_on_c, 1, 65, 76
3, 99540, Note_on_c, 1, 77, 81
3, 99612, Note_on_c, 1, 77, 0
3, 99612, Note_on_c, 1, 65, 0
3, 99630, Note_on_c, 1, 67, 73
3, 99630, Note_on_c, 1, 79, 77
3, 99654, Note_on_c, 1, 79, 0
3, 99654, Note_on_c, 1, 67, 0
3, 99660, Note_on_c, 1, 68, 74
3, 99660, Note_on_c, 1, 80, 88
3, 99708, Note_on_c, 1, 80, 0
3, 99708, Note_on_c, 1, 68, 0
3, 99720, Note_on_c, 1, 68, 65
3, 99720, Note_on_c, 1, 80, 64
3, 99744, Note_on_c, 1, 80, 0
3, 99744, Note_on_c, 1, 68, 0
3, 99750, Note_on_c, 1, 70, 76
3, 99750, Note_on_c, 1, 82, 79
3, 99774, Note_on_c, 1, 82, 0
3, 99774, Note_on_c, 1, 70, 0
3, 99840, Note_on_c, 1, 67, 50
3, 99840, Note_on_c, 1, 79, 62
3, 99888, Note_on_c, 1, 79, 0
3, 99888, Note_on_c, 1, 67, 0
3, 99900, Note_on_c, 1, 67, 72
3, 99900, Note_on_c, 1, 79, 74
3, 99972, Note_on_c, 1, 79, 0
3, 99972, Note_on_c, 1, 67, 0
3, 99990, Note_on_c, 1, 68, 78
3, 99990, Note_on_c, 1, 80, 88
3, 100014, Note_on_c, 1, 80, 0
3, 100014, Note_on_c, 1, 68, 0
3, 100020, Note_on_c, 1, 70, 65
3, 100020, Note_on_c, 1, 82, 75
3, 100068, Note_on_c, 1, 82, 0
3, 100068, Note_on_c, 1, 70, 0
3, 100080, Note_on_c, 1, 84, 73
3, 100080, Note_on_c, 1, 72, 72
3, 100152, Note_on_c, 1, 72, 0
3, 100152, Note_on_c, 1, 84, 0
3, 100170, Note_on_c, 1, 82, 66
3, 100170, Note_on_c, 1, 72, 78
3, 100194, Note_on_c, 1, 72, 0
3, 100194, Note_on_c, 1, 82, 0
3, 100200, Note_on_c, 1, 72, 76
3, 100200, Note_on_c, 1, 80, 76
3, 100248, Note_on_c, 1, 80, 0
3, 100248, Note_on_c, 1, 72, 0
3, 100260, Note_on_c, 1, 79, 85
3, 100260, Note_on_c, 1, 72, 78
3, 100332, Note_on_c, 1, 72, 0
3, 100332, Note_on_c, 1, 79, 0
3, 100350, Note_on_c, 1, 72, 74
3, 100350, Note_on_c, 1, 77, 89
3, 100374, Note_on_c, 1, 77, 0
3, 100374, Note_on_c, 1, 72, 0
3, 100380, Note_on_c, 1, 72, 74
3, 100380, Note_on_c, 1, 75, 70
3, 100428, Note_on_c, 1, 75, 0
3, 100428, Note_on_c, 1, 72, 0
3, 100440, Note_on_c, 1, 74, 89
3, 100440, Note_on_c, 1, 70, 68
3, 100512, Note_on_c, 1, 70, 0
3, 100512, Note_on_c, 1, 74, 0
3, 100530, Note_on_c, 1, 75, 85
3, 100530, Note_on_c, 1, 72, 89
3, 100554, Note_on_c, 1, 72, 0
3, 100554, Note_on_c, 1, 75, 0
3, 100560, Note_on_c, 1, 77, 89
3, 100560, Note_on_c, 1, 74, 86
3, 100608, Note_on_c, 1, 74, 0
3, 100608, Note_on_c, 1, 77, 0
3, 100620, Note_on_c, 1, 79, 88
3, 100620, Note_on_c, 1, 75, 76
3, 100692, Note_on_c, 1, 75, 0
3, 100692, Note_on_c, 1, 79, 0
3, 100710, Note_on_c, 1, 77, 88
3, 100710, Note_on_c, 1, 80, 62
3, 100734, Note_on_c, 1, 80, 0
3, 100734, Note_on_c, 1, 77, 0
3, 100740, Note_on_c, 1, 79, 83
3, 100740, Note_on_c, 1, 82, 70
3, 100788, Note_on_c, 1, 82, 0
3, 100788, Note_on_c, 1, 79, 0
3, 100800, Note_on_c, 1, 84, 89
3, 100800, Note_on_c, 1, 80, 76
3, 100896, Note_on_c, 1, 80, 0
3, 100896, Note_on_c, 1, 84, 0
3, 100980, Note_on_c, 1, 77, 85
3, 100980, Note_on_c, 1, 80, 71
3, 101076, Note_on_c, 1, 80, 0
3, 101076, Note_on_c, 1, 77, 0
3, 101160, Note_on_c, 1, 75, 64
3, 101160, Note_on_c, 1, 79, 74
3, 101256, Note_on_c, 1, 79, 0
3, 101256, Note_on_c, 1, 75, 0
3, 101520, Note_on_c, 1, 75, 85
3, 101664, Note_on_c, 1, 75, 0
3, 101700, Note_on_c, 1, 84, 83
3, 101700, Note_on_c, 1, 75, 60
3, 101844, Note_on_c, 1, 75, 0
3, 101844, Note_on_c, 1, 84, 0
3, 101880, Note_on_c, 1, 82, 83
3, 101880, Note_on_c, 1, 75, 71
3, 101976, Note_on_c, 1, 75, 0
3, 101976, Note_on_c, 1, 82, 0
3, 102240, Note_on_c, 1, 77, 89
3, 102240, Note_on_c, 1, 80, 83
3, 102384, Note_on_c, 1, 80, 0
3, 102384, Note_on_c, 1, 77, 0
3, 102420, Note_on_c, 1, 77, 89
3, 102420, Note_on_c, 1, 74, 74
3, 102564, Note_on_c, 1, 74, 0
3, 102564, Note_on_c, 1, 77, 0
3, 102600, Note_on_c, 1, 75, 83
3, 102696, Note_on_c, 1, 75, 0
3, 102960, Note_on_c, 1, 79, 85
3, 102960, Note_on_c, 1, 75, 78
3, 103056, Note_on_c, 1, 75, 0
3, 103056, Note_on_c, 1, 79, 0
3, 103320, Note_on_c, 1, 75, 85
3, 103416, Note_on_c, 1, 75, 0
3, 110700, Note_on_c, 1, 82, 107
3, 110748, Note_on_c, 1, 82, 0
3, 110760, Note_on_c, 1, 80, 113
3, 110808, Note_on_c, 1, 80, 0
3, 110820, Note_on_c, 1, 79, 127
3, 110868, Note_on_c, 1, 79, 0
3, 110880, Note_on_c, 1, 77, 113
3, 110928, Note_on_c, 1, 77, 0
3, 110940, Note_on_c, 1, 76, 125
3, 110988, Note_on_c, 1, 76, 0
3, 111000, Note_on_c, 1, 73, 99
3, 111048, Note_on_c, 1, 73, 0
3, 111060, Note_on_c, 1, 72, 103
3, 111156, Note_on_c, 1, 72, 0
3, 111180, Note_on_c, 1, 72, 125
3, 111228, Note_on_c, 1, 72, 0
3, 111240, Note_on_c, 1, 77, 108
3, 111240, Note_on_c, 1, 72, 118
3, 111336, Note_on_c, 1, 72, 0
3, 111336, Note_on_c, 1, 77, 0
3, 111420, Note_on_c, 1, 84, 127
3, 111468, Note_on_c, 1, 84, 0
3, 111480, Note_on_c, 1, 82, 96
3, 111528, Note_on_c, 1, 82, 0
3, 111540, Note_on_c, 1, 80, 127
3, 111588, Note_on_c, 1, 80, 0
3, 111600, Note_on_c, 1, 79, 125
3, 111648, Note_on_c, 1, 79, 0
3, 111660, Note_on_c, 1, 77, 114
3, 111708, Note_on_c, 1, 77, 0
3, 111720, Note_on_c, 1, 76, 123
3, 111768, Note_on_c, 1, 76, 0
3, 111780, Note_on_c, 1, 77, 125
3, 111876, Note_on_c, 1, 77, 0
3, 111900, Note_on_c, 1, 79, 123
3, 111948, Note_on_c, 1, 79, 0
3, 111960, Note_on_c, 1, 80, 113
3, 112008, Note_on_c, 1, 80, 0
3, 112020, Note_on_c, 1, 80, 100
3, 112020, Note_on_c, 1, 68, 109
3, 112068, Note_on_c, 1, 68, 0
3, 112068, Note_on_c, 1, 80, 0
3, 112080, Note_on_c, 1, 74, 127
3, 112080, Note_on_c, 1, 77, 114
3, 112128, Note_on_c, 1, 77, 0
3, 112128, Note_on_c, 1, 74, 0
3, 112140, Note_on_c, 1, 75, 96
3, 112140, Note_on_c, 1, 79, 127
3, 112236, Note_on_c, 1, 79, 0
3, 112236, Note_on_c, 1, 75, 0
3, 112260, Note_on_c, 1, 74, 116
3, 112260, Note_on_c, 1, 77, 125
3, 112308, Note_on_c, 1, 77, 0
3, 112308, Note_on_c, 1, 74, 0
3, 112320, Note_on_c, 1, 74, 117
3, 112320, Note_on_c, 1, 77, 127
3, 112416, Note_on_c, 1, 77, 0
3, 112416, Note_on_c, 1, 74, 0
3, 113040, Note_on_c, 1, 76, 125
3, 113040, Note_on_c, 1, 79, 127
3, 113136, Note_on_c, 1, 79, 0
3, 113136, Note_on_c, 1, 76, 0
3, 123480, Note_on_c, 1, 72, 127
3, 123480, Note_on_c, 1, 75, 118
3, 123528, Note_on_c, 1, 75, 0
3, 123528, Note_on_c, 1, 72, 0
3, 123540, Note_on_c, 1, 70, 105
3, 123540, Note_on_c, 1, 75, 121
3, 123588, Note_on_c, 1, 75, 0
3, 123588, Note_on_c, 1, 70, 0
3, 123660, Note_on_c, 1, 79, 127
3, 123684, Note_on_c, 1, 79, 0
3, 123690, Note_on_c, 1, 82, 111
3, 123714, Note_on_c, 1, 82, 0
3, 123720, Note_on_c, 1, 80, 113
3, 123768, Note_on_c, 1, 80, 0
3, 123840, Note_on_c, 1, 80, 103
3, 123840, Note_on_c, 1, 84, 121
3, 123888, Note_on_c, 1, 84, 0
3, 123888, Note_on_c, 1, 80, 0
3, 123900, Note_on_c, 1, 82, 88
3, 123900, Note_on_c, 1, 79, 109
3, 123996, Note_on_c, 1, 79, 0
3, 123996, Note_on_c, 1, 82, 0
3, 124920, Note_on_c, 1, 75, 118
3, 124920, Note_on_c, 1, 72, 127
3, 124968, Note_on_c, 1, 72, 0
3, 124968, Note_on_c, 1, 75, 0
3, 124980, Note_on_c, 1, 75, 121
3, 124980, Note_on_c, 1, 70, 105
3, 125028, Note_on_c, 1, 70, 0
3, 125028, Note_on_c, 1, 75, 0
3, 125100, Note_on_c, 1, 79, 127
3, 125124, Note_on_c, 1, 79, 0
3, 125130, Note_on_c, 1, 82, 111
3, 125154, Note_on_c, 1, 82, 0
3, 125160, Note_on_c, 1, 80, 113
3, 125208, Note_on_c, 1, 80, 0
3, 125280, Note_on_c, 1, 84, 121
3, 125280, Note_on_c, 1, 80, 103
3, 125328, Note_on_c, 1, 80, 0
3, 125328, Note_on_c, 1, 84, 0
3, 125340, Note_on_c, 1, 79, 109
3, 125340, Note_on_c, 1, 82, 88
3, 125436, Note_on_c, 1, 82, 0
3, 125436, Note_on_c, 1, 79, 0
3, 126360, Note_on_c, 1, 80, 118
3, 126360, Note_on_c, 1, 72, 109
3, 126408, Note_on_c, 1, 72, 0
3, 126408, Note_on_c, 1, 80, 0
3, 126420, Note_on_c, 1, 79, 127
3, 126420, Note_on_c, 1, 70, 93
3, 126516, Note_on_c, 1, 70, 0
3, 126516, Note_on_c, 1, 79, 0
3, 126540, Note_on_c, 1, 79, 127
3, 126540, Note_on_c, 1, 70, 107
3, 126588, Note_on_c, 1, 70, 0
3, 126588, Note_on_c, 1, 79, 0
3, 126600, Note_on_c, 1, 79, 127
3, 126600, Note_on_c, 1, 70, 107
3, 126672, Note_on_c, 1, 70, 0
3, 126672, Note_on_c, 1, 79, 0
3, 126690, Note_on_c, 1, 80, 111
3, 126690, Note_on_c, 1, 72, 120
3, 126714, Note_on_c, 1, 72, 0
3, 126714, Note_on_c, 1, 80, 0
3, 126720, Note_on_c, 1, 82, 84
3, 126720, Note_on_c, 1, 79, 120
3, 126768, Note_on_c, 1, 79, 0
3, 126768, Note_on_c, 1, 82, 0
3, 126780, Note_on_c, 1, 82, 103
3, 126828, Note_on_c, 1, 82, 0
3, 126840, Note_on_c, 1, 84, 127
3, 126840, Note_on_c, 1, 75, 96
3, 126888, Note_on_c, 1, 75, 0
3, 126888, Note_on_c, 1, 84, 0
3, 126900, Note_on_c, 1, 80, 101
3, 126900, Note_on_c, 1, 72, 112
3, 126948, Note_on_c, 1, 72, 0
3, 126948, Note_on_c, 1, 80, 0
3, 126960, Note_on_c, 1, 80, 118
3, 126960, Note_on_c, 1, 72, 118
3, 127072, Note_on_c, 1, 72, 0
3, 127072, Note_on_c, 1, 80, 0
3, 128520, Note_on_c, 1, 82, 109
3, 128520, Note_on_c, 1, 70, 100
3, 128568, Note_on_c, 1, 70, 0
3, 128568, Note_on_c, 1, 82, 0
3, 128580, Note_on_c, 1, 79, 127
3, 128580, Note_on_c, 1, 82, 96
3, 128676, Note_on_c, 1, 82, 0
3, 128676, Note_on_c, 1, 79, 0
3, 128760, Note_on_c, 1, 79, 127
3, 128760, Note_on_c, 1, 82, 111
3, 128856, Note_on_c, 1, 82, 0
3, 128856, Note_on_c, 1, 79, 0
3, 128940, Note_on_c, 1, 79, 125
3, 128940, Note_on_c, 1, 82, 96
3, 129036, Note_on_c, 1, 82, 0
3, 129036, Note_on_c, 1, 79, 0
3, 129120, Note_on_c, 1, 79, 127
3, 129120, Note_on_c, 1, 82, 80
3, 129216, Note_on_c, 1, 82, 0
3, 129216, Note_on_c, 1, 79, 0
3, 129300, Note_on_c, 1, 80, 115
3, 129300, Note_on_c, 1, 77, 127
3, 129396, Note_on_c, 1, 77, 0
3, 129396, Note_on_c, 1, 80, 0
3, 129480, Note_on_c, 1, 75, 111
3, 129480, Note_on_c, 1, 79, 127
3, 129576, Note_on_c, 1, 79, 0
3, 129576, Note_on_c, 1, 75, 0
3, 129660, Note_on_c, 1, 77, 127
3, 129660, Note_on_c, 1, 82, 96
3, 129756, Note_on_c, 1, 82, 0
3, 129756, Note_on_c, 1, 77, 0
3, 129840, Note_on_c, 1, 77, 127
3, 129840, Note_on_c, 1, 82, 105
3, 129936, Note_on_c, 1, 82, 0
3, 129936, Note_on_c, 1, 77, 0
3, 129960, Note_on_c, 1, 82, 123
3, 129960, Note_on_c, 1, 70, 113
3, 130008, Note_on_c, 1, 70, 0
3, 130008, Note_on_c, 1, 82, 0
3, 130020, Note_on_c, 1, 79, 117
3, 130020, Note_on_c, 1, 82, 91
3, 130116, Note_on_c, 1, 82, 0
3, 130116, Note_on_c, 1, 79, 0
3, 130200, Note_on_c, 1, 79, 127
3, 130200, Note_on_c, 1, 82, 113
3, 130296, Note_on_c, 1, 82, 0
3, 130296, Note_on_c, 1, 79, 0
3, 130380, Note_on_c, 1, 79, 127
3, 130380, Note_on_c, 1, 82, 109
3, 130476, Note_on_c, 1, 82, 0
3, 130476, Note_on_c, 1, 79, 0
3, 130560, Note_on_c, 1, 79, 127
3, 130560, Note_on_c, 1, 82, 118
3, 130656, Note_on_c, 1, 82, 0
3, 130656, Note_on_c, 1, 79, 0
3, 130740, Note_on_c, 1, 80, 118
3, 130740, Note_on_c, 1, 77, 127
3, 130836, Note_on_c, 1, 77, 0
3, 130836, Note_on_c, 1, 80, 0
3, 130920, Note_on_c, 1, 75, 113
3, 130920, Note_on_c, 1, 79, 127
3, 131016, Note_on_c, 1, 79, 0
3, 131016, Note_on_c, 1, 75, 0
3, 131100, Note_on_c, 1, 82, 97
3, 131100, Note_on_c, 1, 77, 127
3, 131196, Note_on_c, 1, 77, 0
3, 131196, Note_on_c, 1, 82, 0
3, 131280, Note_on_c, 1, 82, 115
3, 131280, Note_on_c, 1, 70, 113
3, 131376, Note_on_c, 1, 70, 0
3, 131376, Note_on_c, 1, 82, 0
3, 131460, Note_on_c, 1, 82, 118
3, 131460, Note_on_c, 1, 70, 107
3, 131556, Note_on_c, 1, 70, 0
3, 131556, Note_on_c, 1, 82, 0
3, 131640, Note_on_c, 1, 82, 118
3, 131640, Note_on_c, 1, 70, 103
3, 131736, Note_on_c, 1, 70, 0
3, 131736, Note_on_c, 1, 82, 0
3, 131820, Note_on_c, 1, 82, 118
3, 131820, Note_on_c, 1, 70, 113
3, 131916, Note_on_c, 1, 70, 0
3, 131916, Note_on_c, 1, 82, 0
3, 132000, Note_on_c, 1, 82, 121
3, 132000, Note_on_c, 1, 70, 105
3, 132096, Note_on_c, 1, 70, 0
3, 132096, Note_on_c, 1, 82, 0
3, 132180, Note_on_c, 1, 80, 113
3, 132180, Note_on_c, 1, 77, 127
3, 132276, Note_on_c, 1, 77, 0
3, 132276, Note_on_c, 1, 80, 0
3, 132360, Note_on_c, 1, 80, 115
3, 132360, Note_on_c, 1, 77, 127
3, 132456, Note_on_c, 1, 77, 0
3, 132456, Note_on_c, 1, 80, 0
3, 132540, Note_on_c, 1, 75, 115
3, 132540, Note_on_c, 1, 79, 127
3, 132636, Note_on_c, 1, 79, 0
3, 132636, Note_on_c, 1, 75, 0
3, 132720, Note_on_c, 1, 75, 118
3, 132720, Note_on_c, 1, 79, 127
3, 132816, Note_on_c, 1, 79, 0
3, 132816, Note_on_c, 1, 75, 0
3, 135540, Note_on_c, 1, 75, 115
3, 135588, Note_on_c, 1, 75, 0
3, 135600, Note_on_c, 1, 75, 121
3, 135672, Note_on_c, 1, 75, 0
3, 135690, Note_on_c, 1, 77, 127
3, 135714, Note_on_c, 1, 77, 0
3, 135720, Note_on_c, 1, 79, 127
3, 135768, Note_on_c, 1, 79, 0
3, 135780, Note_on_c, 1, 80, 123
3, 135828, Note_on_c, 1, 80, 0
3, 135900, Note_on_c, 1, 77, 127
3, 135948, Note_on_c, 1, 77, 0
3, 135960, Note_on_c, 1, 77, 127
3, 136032, Note_on_c, 1, 77, 0
3, 136050, Note_on_c, 1, 79, 127
3, 136074, Note_on_c, 1, 79, 0
3, 136080, Note_on_c, 1, 80, 121
3, 136128, Note_on_c, 1, 80, 0
3, 136140, Note_on_c, 1, 82, 123
3, 136236, Note_on_c, 1, 82, 0
3, 136680, Note_on_c, 1, 79, 127
3, 136752, Note_on_c, 1, 79, 0
3, 136770, Note_on_c, 1, 79, 127
3, 136794, Note_on_c, 1, 79, 0
3, 136800, Note_on_c, 1, 79, 127
3, 136848, Note_on_c, 1, 79, 0
3, 137400, Note_on_c, 1, 77, 127
3, 137472, Note_on_c, 1, 77, 0
3, 137490, Note_on_c, 1, 77, 127
3, 137514, Note_on_c, 1, 77, 0
3, 137520, Note_on_c, 1, 77, 127
3, 137568, Note_on_c, 1, 77, 0
3, 138120, Note_on_c, 1, 74, 127
3, 138192, Note_on_c, 1, 74, 0
3, 138210, Note_on_c, 1, 74, 127
3, 138234, Note_on_c, 1, 74, 0
3, 138240, Note_on_c, 1, 74, 127
3, 138288, Note_on_c, 1, 74, 0
3, 138300, Note_on_c, 1, 75, 111
3, 138300, Note_on_c, 1, 79, 127
3, 138396, Note_on_c, 1, 79, 0
3, 138396, Note_on_c, 1, 75, 0
3, 138660, Note_on_c, 1, 80, 111
3, 138660, Note_on_c, 1, 74, 127
3, 138756, Note_on_c, 1, 74, 0
3, 138756, Note_on_c, 1, 80, 0
3, 140580, Note_on_c, 1, 75, 121
3, 140628, Note_on_c, 1, 75, 0
3, 140640, Note_on_c, 1, 75, 123
3, 140712, Note_on_c, 1, 75, 0
3, 140730, Note_on_c, 1, 77, 127
3, 140754, Note_on_c, 1, 77, 0
3, 140760, Note_on_c, 1, 79, 127
3, 140808, Note_on_c, 1, 79, 0
3, 140820, Note_on_c, 1, 80, 126
3, 140868, Note_on_c, 1, 80, 0
3, 140940, Note_on_c, 1, 77, 127
3, 140988, Note_on_c, 1, 77, 0
3, 141000, Note_on_c, 1, 77, 127
3, 141072, Note_on_c, 1, 77, 0
3, 141090, Note_on_c, 1, 79, 127
3, 141114, Note_on_c, 1, 79, 0
3, 141120, Note_on_c, 1, 80, 115
3, 141168, Note_on_c, 1, 80, 0
3, 141180, Note_on_c, 1, 82, 121
3, 141276, Note_on_c, 1, 82, 0
3, 141360, Note_on_c, 1, 79, 127
3, 141456, Note_on_c, 1, 79, 0
3, 141540, Note_on_c, 1, 79, 105
3, 141636, Note_on_c, 1, 79, 0
3, 141720, Note_on_c, 1, 79, 127
3, 141816, Note_on_c, 1, 79, 0
3, 141900, Note_on_c, 1, 77, 127
3, 141996, Note_on_c, 1, 77, 0
3, 142080, Note_on_c, 1, 77, 127
3, 142176, Note_on_c, 1, 77, 0
3, 142260, Note_on_c, 1, 77, 127
3, 142356, Note_on_c, 1, 77, 0
3, 142440, Note_on_c, 1, 77, 127
3, 142536, Note_on_c, 1, 77, 0
3, 142620, Note_on_c, 1, 79, 127
3, 142716, Note_on_c, 1, 79, 0
3, 142800, Note_on_c, 1, 79, 127
3, 142896, Note_on_c, 1, 79, 0
3, 142980, Note_on_c, 1, 79, 127
3, 143076, Note_on_c, 1, 79, 0
3, 143280, Note_on_c, 1, 77, 127
3, 143328, Note_on_c, 1, 77, 0
3, 143340, Note_on_c, 1, 75, 118
3, 143340, Note_on_c, 1, 67, 127
3, 143436, Note_on_c, 1, 67, 0
3, 143436, Note_on_c, 1, 75, 0
3, 143700, Note_on_c, 1, 75, 126
3, 143844, Note_on_c, 1, 75, 0
3, 143880, Note_on_c, 1, 72, 107
3, 143880, Note_on_c, 1, 84, 127
3, 144024, Note_on_c, 1, 84, 0
3, 144024, Note_on_c, 1, 72, 0
3, 144060, Note_on_c, 1, 82, 113
3, 144060, Note_on_c, 1, 70, 113
3, 144156, Note_on_c, 1, 70, 0
3, 144156, Note_on_c, 1, 82, 0
3, 144420, Note_on_c, 1, 80, 121
3, 144420, Note_on_c, 1, 77, 127
3, 144564, Note_on_c, 1, 77, 0
3, 144564, Note_on_c, 1, 80, 0
3, 144600, Note_on_c, 1, 77, 127
3, 144600, Note_on_c, 1, 74, 121
3, 144744, Note_on_c, 1, 74, 0
3, 144744, Note_on_c, 1, 77, 0
3, 144780, Note_on_c, 1, 75, 126
3, 144876, Note_on_c, 1, 75, 0
3, 153060, Note_on_c, 1, 70, 127
3, 153060, Note_on_c, 1, 67, 125
3, 153108, Note_on_c, 1, 67, 0
3, 153108, Note_on_c, 1, 70, 0
3, 153120, Note_on_c, 1, 75, 115
3, 153120, Note_on_c, 1, 67, 117
3, 153168, Note_on_c, 1, 67, 0
3, 153168, Note_on_c, 1, 75, 0
3, 153180, Note_on_c, 1, 75, 123
3, 153180, Note_on_c, 1, 67, 121
3, 153228, Note_on_c, 1, 67, 0
3, 153228, Note_on_c, 1, 75, 0
3, 153240, Note_on_c, 1, 75, 127
3, 153240, Note_on_c, 1, 67, 127
3, 153288, Note_on_c, 1, 67, 0
3, 153288, Note_on_c, 1, 75, 0
3, 153360, Note_on_c, 1, 75, 103
3, 153360, Note_on_c, 1, 79, 127
3, 153408, Note_on_c, 1, 79, 0
3, 153408, Note_on_c, 1, 75, 0
3, 153420, Note_on_c, 1, 75, 111
3, 153420, Note_on_c, 1, 79, 127
3, 153468, Note_on_c, 1, 79, 0
3, 153468, Note_on_c, 1, 75, 0
3, 153480, Note_on_c, 1, 79, 127
3, 153480, Note_on_c, 1, 75, 118
3, 153696, Note_on_c, 1, 75, 0
3, 153696, Note_on_c, 1, 79, 0
3, 153720, Note_on_c, 1, 82, 113
3, 153720, Note_on_c, 1, 70, 101
3, 153768, Note_on_c, 1, 70, 0
3, 153768, Note_on_c, 1, 82, 0
3, 153780, Note_on_c, 1, 77, 127
3, 153780, Note_on_c, 1, 74, 127
3, 153828, Note_on_c, 1, 74, 0
3, 153828, Note_on_c, 1, 77, 0
3, 153840, Note_on_c, 1, 74, 127
3, 153840, Note_on_c, 1, 77, 127
3, 154056, Note_on_c, 1, 77, 0
3, 154056, Note_on_c, 1, 74, 0
3, 154080, Note_on_c, 1, 70, 111
3, 154128, Note_on_c, 1, 70, 0
3, 154140, Note_on_c, 1, 79, 127
3, 154140, Note_on_c, 1, 75, 113
3, 154188, Note_on_c, 1, 75, 0
3, 154188, Note_on_c, 1, 79, 0
3, 154200, Note_on_c, 1, 75, 113
3, 154200, Note_on_c, 1, 79, 127
3, 154296, Note_on_c, 1, 79, 0
3, 154296, Note_on_c, 1, 75, 0
3, 154320, Note_on_c, 1, 75, 115
3, 154320, Note_on_c, 1, 79, 127
3, 154368, Note_on_c, 1, 79, 0
3, 154368, Note_on_c, 1, 75, 0
3, 154380, Note_on_c, 1, 75, 111
3, 154380, Note_on_c, 1, 79, 127
3, 154476, Note_on_c, 1, 79, 0
3, 154476, Note_on_c, 1, 75, 0
3, 154500, Note_on_c, 1, 79, 121
3, 154500, Note_on_c, 1, 75, 113
3, 154548, Note_on_c, 1, 75, 0
3, 154548, Note_on_c, 1, 79, 0
3, 154560, Note_on_c, 1, 75, 113
3, 154560, Note_on_c, 1, 79, 127
3, 154656, Note_on_c, 1, 79, 0
3, 154656, Note_on_c, 1, 75, 0
3, 154680, Note_on_c, 1, 79, 127
3, 154680, Note_on_c, 1, 75, 113
3, 154728, Note_on_c, 1, 75, 0
3, 154728, Note_on_c, 1, 79, 0
3, 154740, Note_on_c, 1, 75, 107
3, 154740, Note_on_c, 1, 79, 127
3, 154836, Note_on_c, 1, 79, 0
3, 154836, Note_on_c, 1, 75, 0
3, 154860, Note_on_c, 1, 75, 95
3, 154860, Note_on_c, 1, 79, 127
3, 154956, Note_on_c, 1, 79, 0
3, 154956, Note_on_c, 1, 75, 0
3, 155040, Note_on_c, 1, 75, 107
3, 155040, Note_on_c, 1, 67, 111
3, 155136, Note_on_c, 1, 67, 0
3, 155136, Note_on_c, 1, 75, 0
3, 155220, Note_on_c, 1, 63, 118
3, 155316, Note_on_c, 1, 63, 0
3, 155316, End_track
4, 0, Start_track
4, 0, MIDI_port, 0
4, 0, Title_t, "Clarinet (in Bb)"
4, 0, Program_c, 3, 71
4, 0, Control_c, 3, 7, 100
4, 0, Control_c, 3, 10, 70
4, 0, Control_c, 3, 93, 0
4, 0, Control_c, 3, 91, 0
4, 5700, Note_on_c, 3, 58, 127
4, 5700, Note_on_c, 3, 70, 127
4, 5748, Note_on_c, 3, 70, 0
4, 5748, Note_on_c, 3, 58, 0
4, 5760, Note_on_c, 3, 58, 127
4, 5760, Note_on_c, 3, 70, 127
4, 5808, Note_on_c, 3, 70, 0
4, 5808, Note_on_c, 3, 58, 0
4, 5820, Note_on_c, 3, 63, 118
4, 5820, Note_on_c, 3, 75, 118
4, 5868, Note_on_c, 3, 75, 0
4, 5868, Note_on_c, 3, 63, 0
4, 5880, Note_on_c, 3, 63, 94
4, 5880, Note_on_c, 3, 75, 94
4, 5928, Note_on_c, 3, 75, 0
4, 5928, Note_on_c, 3, 63, 0
4, 5940, Note_on_c, 3, 67, 127
4, 5940, Note_on_c, 3, 79, 127
4, 5988, Note_on_c, 3, 79, 0
4, 5988, Note_on_c, 3, 67, 0
4, 6060, Note_on_c, 3, 79, 114
4, 6060, Note_on_c, 3, 67, 112
4, 6084, Note_on_c, 3, 67, 0
4, 6084, Note_on_c, 3, 79, 0
4, 6090, Note_on_c, 3, 70, 111
4, 6090, Note_on_c, 3, 82, 121
4, 6114, Note_on_c, 3, 82, 0
4, 6114, Note_on_c, 3, 70, 0
4, 6120, Note_on_c, 3, 58, 101
4, 6120, Note_on_c, 3, 70, 121
4, 6144, Note_on_c, 3, 70, 0
4, 6144, Note_on_c, 3, 58, 0
4, 6150, Note_on_c, 3, 63, 100
4, 6150, Note_on_c, 3, 75, 109
4, 6174, Note_on_c, 3, 75, 0
4, 6174, Note_on_c, 3, 63, 0
4, 6180, Note_on_c, 3, 63, 101
4, 6180, Note_on_c, 3, 75, 118
4, 6396, Note_on_c, 3, 75, 0
4, 6396, Note_on_c, 3, 63, 0
4, 6420, Note_on_c, 3, 63, 107
4, 6420, Note_on_c, 3, 75, 115
4, 6444, Note_on_c, 3, 75, 0
4, 6444, Note_on_c, 3, 63, 0
4, 6450, Note_on_c, 3, 67, 99
4, 6450, Note_on_c, 3, 79, 105
4, 6474, Note_on_c, 3, 79, 0
4, 6474, Note_on_c, 3, 67, 0
4, 6480, Note_on_c, 3, 65, 101
4, 6480, Note_on_c, 3, 77, 105
4, 6528, Note_on_c, 3, 77, 0
4, 6528, Note_on_c, 3, 65, 0
4, 6600, Note_on_c, 3, 74, 101
4, 6600, Note_on_c, 3, 62, 113
4, 6624, Note_on_c, 3, 62, 0
4, 6624, Note_on_c, 3, 74, 0
4, 6630, Note_on_c, 3, 65, 100
4, 6630, Note_on_c, 3, 77, 107
4, 6654, Note_on_c, 3, 77, 0
4, 6654, Note_on_c, 3, 65, 0
4, 6660, Note_on_c, 3, 63, 101
4, 6660, Note_on_c, 3, 75, 113
4, 6708, Note_on_c, 3, 75, 0
4, 6708, Note_on_c, 3, 63, 0
4, 6780, Note_on_c, 3, 58, 99
4, 6780, Note_on_c, 3, 70, 121
4, 6828, Note_on_c, 3, 70, 0
4, 6828, Note_on_c, 3, 58, 0
4, 6840, Note_on_c, 3, 62, 127
4, 6840, Note_on_c, 3, 70, 111
4, 6852, Note_on_c, 3, 70, 0
4, 6855, Note_on_c, 3, 72, 123
4, 6867, Note_on_c, 3, 72, 0
4, 6870, Note_on_c, 3, 70, 111
4, 6882, Note_on_c, 3, 70, 0
4, 6885, Note_on_c, 3, 72, 127
4, 6888, Note_on_c, 3, 62, 0
4, 6897, Note_on_c, 3, 72, 0
4, 6900, Note_on_c, 3, 65, 127
4, 6900, Note_on_c, 3, 70, 109
4, 6912, Note_on_c, 3, 70, 0
4, 6915, Note_on_c, 3, 72, 123
4, 6927, Note_on_c, 3, 72, 0
4, 6930, Note_on_c, 3, 70, 111
4, 6942, Note_on_c, 3, 70, 0
4, 6945, Note_on_c, 3, 72, 127
4, 6948, Note_on_c, 3, 65, 0
4, 6957, Note_on_c, 3, 72, 0
4, 6960, Note_on_c, 3, 62, 127
4, 6960, Note_on_c, 3, 70, 115
4, 6984, Note_on_c, 3, 70, 0
4, 6990, Note_on_c, 3, 69, 127
4, 7008, Note_on_c, 3, 62, 0
4, 7014, Note_on_c, 3, 69, 0
4, 7020, Note_on_c, 3, 58, 109
4, 7020, Note_on_c, 3, 70, 127
4, 7068, Note_on_c, 3, 70, 0
4, 7068, Note_on_c, 3, 58, 0
4, 7140, Note_on_c, 3, 70, 115
4, 7140, Note_on_c, 3, 58, 115
4, 7188, Note_on_c, 3, 58, 0
4, 7188, Note_on_c, 3, 70, 0
4, 7200, Note_on_c, 3, 70, 127
4, 7200, Note_on_c, 3, 58, 127
4, 7248, Note_on_c, 3, 58, 0
4, 7248, Note_on_c, 3, 70, 0
4, 7260, Note_on_c, 3, 75, 118
4, 7260, Note_on_c, 3, 63, 118
4, 7308, Note_on_c, 3, 63, 0
4, 7308, Note_on_c, 3, 75, 0
4, 7320, Note_on_c, 3, 75, 94
4, 7320, Note_on_c, 3, 63, 94
4, 7368, Note_on_c, 3, 63, 0
4, 7368, Note_on_c, 3, 75, 0
4, 7380, Note_on_c, 3, 79, 127
4, 7380, Note_on_c, 3, 67, 127
4, 7428, Note_on_c, 3, 67, 0
4, 7428, Note_on_c, 3, 79, 0
4, 7500, Note_on_c, 3, 67, 112
4, 7500, Note_on_c, 3, 79, 114
4, 7524, Note_on_c, 3, 79, 0
4, 7524, Note_on_c, 3, 67, 0
4, 7530, Note_on_c, 3, 82, 121
4, 7530, Note_on_c, 3, 70, 111
4, 7554, Note_on_c, 3, 70, 0
4, 7554, Note_on_c, 3, 82, 0
4, 7560, Note_on_c, 3, 70, 121
4, 7560, Note_on_c, 3, 58, 101
4, 7584, Note_on_c, 3, 58, 0
4, 7584, Note_on_c, 3, 70, 0
4, 7590, Note_on_c, 3, 75, 109
4, 7590, Note_on_c, 3, 63, 100
4, 7614, Note_on_c, 3, 63, 0
4, 7614, Note_on_c, 3, 75, 0
4, 7620, Note_on_c, 3, 75, 118
4, 7620, Note_on_c, 3, 63, 101
4, 7836, Note_on_c, 3, 63, 0
4, 7836, Note_on_c, 3, 75, 0
4, 7860, Note_on_c, 3, 75, 115
4, 7860, Note_on_c, 3, 63, 107
4, 7884, Note_on_c, 3, 63, 0
4, 7884, Note_on_c, 3, 75, 0
4, 7890, Note_on_c, 3, 79, 105
4, 7890, Note_on_c, 3, 67, 99
4, 7914, Note_on_c, 3, 67, 0
4, 7914, Note_on_c, 3, 79, 0
4, 7920, Note_on_c, 3, 77, 105
4, 7920, Note_on_c, 3, 65, 101
4, 7968, Note_on_c, 3, 65, 0
4, 7968, Note_on_c, 3, 77, 0
4, 8040, Note_on_c, 3, 62, 113
4, 8040, Note_on_c, 3, 74, 101
4, 8064, Note_on_c, 3, 74, 0
4, 8064, Note_on_c, 3, 62, 0
4, 8070, Note_on_c, 3, 77, 107
4, 8070, Note_on_c, 3, 65, 100
4, 8094, Note_on_c, 3, 65, 0
4, 8094, Note_on_c, 3, 77, 0
4, 8100, Note_on_c, 3, 75, 113
4, 8100, Note_on_c, 3, 63, 101
4, 8148, Note_on_c, 3, 63, 0
4, 8148, Note_on_c, 3, 75, 0
4, 8220, Note_on_c, 3, 70, 121
4, 8220, Note_on_c, 3, 58, 99
4, 8268, Note_on_c, 3, 58, 0
4, 8268, Note_on_c, 3, 70, 0
4, 8280, Note_on_c, 3, 70, 111
4, 8280, Note_on_c, 3, 62, 127
4, 8292, Note_on_c, 3, 70, 0
4, 8295, Note_on_c, 3, 72, 123
4, 8307, Note_on_c, 3, 72, 0
4, 8310, Note_on_c, 3, 70, 111
4, 8322, Note_on_c, 3, 70, 0
4, 8325, Note_on_c, 3, 72, 127
4, 8328, Note_on_c, 3, 62, 0
4, 8337, Note_on_c, 3, 72, 0
4, 8340, Note_on_c, 3, 70, 109
4, 8340, Note_on_c, 3, 65, 127
4, 8352, Note_on_c, 3, 70, 0
4, 8355, Note_on_c, 3, 72, 123
4, 8367, Note_on_c, 3, 72, 0
4, 8370, Note_on_c, 3, 70, 111
4, 8382, Note_on_c, 3, 70, 0
4, 8385, Note_on_c, 3, 72, 127
4, 8388, Note_on_c, 3, 65, 0
4, 8397, Note_on_c, 3, 72, 0
4, 8400, Note_on_c, 3, 70, 115
4, 8400, Note_on_c, 3, 62, 127
4, 8424, Note_on_c, 3, 70, 0
4, 8430, Note_on_c, 3, 69, 127
4, 8448, Note_on_c, 3, 62, 0
4, 8454, Note_on_c, 3, 69, 0
4, 8460, Note_on_c, 3, 70, 127
4, 8460, Note_on_c, 3, 58, 109
4, 8508, Note_on_c, 3, 58, 0
4, 8508, Note_on_c, 3, 70, 0
4, 8580, Note_on_c, 3, 82, 118
4, 8580, Note_on_c, 3, 70, 106
4, 8604, Note_on_c, 3, 70, 0
4, 8604, Note_on_c, 3, 82, 0
4, 8610, Note_on_c, 3, 81, 107
4, 8610, Note_on_c, 3, 69, 108
4, 8634, Note_on_c, 3, 69, 0
4, 8634, Note_on_c, 3, 81, 0
4, 8640, Note_on_c, 3, 81, 101
4, 8640, Note_on_c, 3, 69, 103
4, 8688, Note_on_c, 3, 69, 0
4, 8688, Note_on_c, 3, 81, 0
4, 8760, Note_on_c, 3, 80, 115
4, 8760, Note_on_c, 3, 68, 100
4, 8784, Note_on_c, 3, 68, 0
4, 8784, Note_on_c, 3, 80, 0
4, 8790, Note_on_c, 3, 79, 126
4, 8790, Note_on_c, 3, 67, 111
4, 8814, Note_on_c, 3, 67, 0
4, 8814, Note_on_c, 3, 79, 0
4, 8820, Note_on_c, 3, 79, 104
4, 8820, Note_on_c, 3, 67, 100
4, 8868, Note_on_c, 3, 67, 0
4, 8868, Note_on_c, 3, 79, 0
4, 8940, Note_on_c, 3, 78, 109
4, 8940, Note_on_c, 3, 66, 100
4, 8964, Note_on_c, 3, 66, 0
4, 8964, Note_on_c, 3, 78, 0
4, 8970, Note_on_c, 3, 77, 112
4, 8970, Note_on_c, 3, 65, 103
4, 8994, Note_on_c, 3, 65, 0
4, 8994, Note_on_c, 3, 77, 0
4, 9000, Note_on_c, 3, 65, 111
4, 9000, Note_on_c, 3, 77, 117
4, 9048, Note_on_c, 3, 77, 0
4, 9048, Note_on_c, 3, 65, 0
4, 9120, Note_on_c, 3, 64, 109
4, 9120, Note_on_c, 3, 76, 100
4, 9144, Note_on_c, 3, 76, 0
4, 9144, Note_on_c, 3, 64, 0
4, 9150, Note_on_c, 3, 63, 101
4, 9150, Note_on_c, 3, 75, 107
4, 9174, Note_on_c, 3, 75, 0
4, 9174, Note_on_c, 3, 63, 0
4, 9180, Note_on_c, 3, 63, 111
4, 9180, Note_on_c, 3, 75, 121
4, 9228, Note_on_c, 3, 75, 0
4, 9228, Note_on_c, 3, 63, 0
4, 9300, Note_on_c, 3, 63, 105
4, 9300, Note_on_c, 3, 75, 111
4, 9324, Note_on_c, 3, 75, 0
4, 9324, Note_on_c, 3, 63, 0
4, 9330, Note_on_c, 3, 74, 118
4, 9330, Note_on_c, 3, 62, 85
4, 9354, Note_on_c, 3, 62, 0
4, 9354, Note_on_c, 3, 74, 0
4, 9360, Note_on_c, 3, 74, 117
4, 9360, Note_on_c, 3, 62, 92
4, 9456, Note_on_c, 3, 62, 0
4, 9456, Note_on_c, 3, 74, 0
4, 9480, Note_on_c, 3, 74, 107
4, 9480, Note_on_c, 3, 62, 87
4, 9528, Note_on_c, 3, 62, 0
4, 9528, Note_on_c, 3, 74, 0
4, 9540, Note_on_c, 3, 62, 95
4, 9540, Note_on_c, 3, 74, 111
4, 9612, Note_on_c, 3, 74, 0
4, 9612, Note_on_c, 3, 62, 0
4, 9630, Note_on_c, 3, 63, 105
4, 9630, Note_on_c, 3, 75, 107
4, 9654, Note_on_c, 3, 75, 0
4, 9654, Note_on_c, 3, 63, 0
4, 9660, Note_on_c, 3, 65, 95
4, 9660, Note_on_c, 3, 77, 113
4, 9708, Note_on_c, 3, 77, 0
4, 9708, Note_on_c, 3, 65, 0
4, 9720, Note_on_c, 3, 65, 114
4, 9720, Note_on_c, 3, 77, 120
4, 9768, Note_on_c, 3, 77, 0
4, 9768, Note_on_c, 3, 65, 0
4, 9780, Note_on_c, 3, 67, 120
4, 9780, Note_on_c, 3, 79, 121
4, 9828, Note_on_c, 3, 79, 0
4, 9828, Note_on_c, 3, 67, 0
4, 9840, Note_on_c, 3, 63, 101
4, 9840, Note_on_c, 3, 75, 97
4, 9888, Note_on_c, 3, 75, 0
4, 9888, Note_on_c, 3, 63, 0
4, 9900, Note_on_c, 3, 63, 109
4, 9900, Note_on_c, 3, 75, 101
4, 9948, Note_on_c, 3, 63, 0
4, 9996, Note_on_c, 3, 75, 0
4, 10020, Note_on_c, 3, 75, 100
4, 10020, Note_on_c, 3, 63, 98
4, 10044, Note_on_c, 3, 63, 0
4, 10044, Note_on_c, 3, 75, 0
4, 10050, Note_on_c, 3, 74, 113
4, 10050, Note_on_c, 3, 62, 101
4, 10074, Note_on_c, 3, 62, 0
4, 10074, Note_on_c, 3, 74, 0
4, 10080, Note_on_c, 3, 74, 127
4, 10080, Note_on_c, 3, 62, 90
4, 10176, Note_on_c, 3, 62, 0
4, 10176, Note_on_c, 3, 74, 0
4, 10200, Note_on_c, 3, 74, 127
4, 10200, Note_on_c, 3, 62, 97
4, 10248, Note_on_c, 3, 62, 0
4, 10248, Note_on_c, 3, 74, 0
4, 10260, Note_on_c, 3, 74, 127
4, 10260, Note_on_c, 3, 62, 28
4, 10332, Note_on_c, 3, 62, 0
4, 10332, Note_on_c, 3, 74, 0
4, 10350, Note_on_c, 3, 75, 121
4, 10350, Note_on_c, 3, 63, 101
4, 10374, Note_on_c, 3, 63, 0
4, 10374, Note_on_c, 3, 75, 0
4, 10380, Note_on_c, 3, 77, 127
4, 10380, Note_on_c, 3, 65, 96
4, 10428, Note_on_c, 3, 65, 0
4, 10428, Note_on_c, 3, 77, 0
4, 10440, Note_on_c, 3, 65, 127
4, 10440, Note_on_c, 3, 77, 127
4, 10464, Note_on_c, 3, 77, 0
4, 10464, Note_on_c, 3, 65, 0
4, 10470, Note_on_c, 3, 67, 127
4, 10470, Note_on_c, 3, 79, 127
4, 10494, Note_on_c, 3, 79, 0
4, 10494, Note_on_c, 3, 67, 0
4, 10560, Note_on_c, 3, 63, 95
4, 10560, Note_on_c, 3, 75, 97
4, 10608, Note_on_c, 3, 75, 0
4, 10608, Note_on_c, 3, 63, 0
4, 10620, Note_on_c, 3, 63, 100
4, 10620, Note_on_c, 3, 75, 107
4, 10692, Note_on_c, 3, 75, 0
4, 10692, Note_on_c, 3, 63, 0
4, 10710, Note_on_c, 3, 65, 104
4, 10710, Note_on_c, 3, 77, 103
4, 10734, Note_on_c, 3, 77, 0
4, 10734, Note_on_c, 3, 65, 0
4, 10740, Note_on_c, 3, 79, 104
4, 10740, Note_on_c, 3, 67, 103
4, 10788, Note_on_c, 3, 67, 0
4, 10788, Note_on_c, 3, 79, 0
4, 10800, Note_on_c, 3, 79, 110
4, 10800, Note_on_c, 3, 67, 111
4, 10824, Note_on_c, 3, 67, 0
4, 10824, Note_on_c, 3, 79, 0
4, 10830, Note_on_c, 3, 68, 100
4, 10830, Note_on_c, 3, 80, 123
4, 10854, Note_on_c, 3, 80, 0
4, 10854, Note_on_c, 3, 68, 0
4, 10920, Note_on_c, 3, 65, 103
4, 10920, Note_on_c, 3, 77, 98
4, 10968, Note_on_c, 3, 77, 0
4, 10968, Note_on_c, 3, 65, 0
4, 10980, Note_on_c, 3, 65, 103
4, 10980, Note_on_c, 3, 77, 105
4, 11052, Note_on_c, 3, 77, 0
4, 11052, Note_on_c, 3, 65, 0
4, 11070, Note_on_c, 3, 79, 109
4, 11070, Note_on_c, 3, 67, 102
4, 11094, Note_on_c, 3, 67, 0
4, 11094, Note_on_c, 3, 79, 0
4, 11100, Note_on_c, 3, 68, 95
4, 11100, Note_on_c, 3, 80, 127
4, 11148, Note_on_c, 3, 80, 0
4, 11148, Note_on_c, 3, 68, 0
4, 11160, Note_on_c, 3, 68, 93
4, 11160, Note_on_c, 3, 80, 91
4, 11184, Note_on_c, 3, 80, 0
4, 11184, Note_on_c, 3, 68, 0
4, 11190, Note_on_c, 3, 70, 109
4, 11190, Note_on_c, 3, 82, 113
4, 11214, Note_on_c, 3, 82, 0
4, 11214, Note_on_c, 3, 70, 0
4, 11280, Note_on_c, 3, 67, 71
4, 11280, Note_on_c, 3, 79, 89
4, 11328, Note_on_c, 3, 79, 0
4, 11328, Note_on_c, 3, 67, 0
4, 11340, Note_on_c, 3, 67, 103
4, 11340, Note_on_c, 3, 79, 106
4, 11412, Note_on_c, 3, 79, 0
4, 11412, Note_on_c, 3, 67, 0
4, 11430, Note_on_c, 3, 68, 111
4, 11430, Note_on_c, 3, 80, 126
4, 11454, Note_on_c, 3, 80, 0
4, 11454, Note_on_c, 3, 68, 0
4, 11460, Note_on_c, 3, 70, 93
4, 11460, Note_on_c, 3, 82, 107
4, 11508, Note_on_c, 3, 82, 0
4, 11508, Note_on_c, 3, 70, 0
4, 11520, Note_on_c, 3, 84, 104
4, 11520, Note_on_c, 3, 72, 103
4, 11592, Note_on_c, 3, 72, 0
4, 11592, Note_on_c, 3, 84, 0
4, 11610, Note_on_c, 3, 82, 94
4, 11610, Note_on_c, 3, 70, 112
4, 11634, Note_on_c, 3, 70, 0
4, 11634, Note_on_c, 3, 82, 0
4, 11640, Note_on_c, 3, 68, 108
4, 11640, Note_on_c, 3, 80, 109
4, 11688, Note_on_c, 3, 80, 0
4, 11688, Note_on_c, 3, 68, 0
4, 11700, Note_on_c, 3, 79, 121
4, 11700, Note_on_c, 3, 67, 112
4, 11772, Note_on_c, 3, 67, 0
4, 11772, Note_on_c, 3, 79, 0
4, 11790, Note_on_c, 3, 65, 105
4, 11790, Note_on_c, 3, 77, 127
4, 11814, Note_on_c, 3, 77, 0
4, 11814, Note_on_c, 3, 65, 0
4, 11820, Note_on_c, 3, 63, 105
4, 11820, Note_on_c, 3, 75, 100
4, 11868, Note_on_c, 3, 75, 0
4, 11868, Note_on_c, 3, 63, 0
4, 11880, Note_on_c, 3, 62, 106
4, 11880, Note_on_c, 3, 74, 113
4, 11952, Note_on_c, 3, 74, 0
4, 11952, Note_on_c, 3, 62, 0
4, 11970, Note_on_c, 3, 60, 86
4, 11970, Note_on_c, 3, 72, 123
4, 11994, Note_on_c, 3, 72, 0
4, 11994, Note_on_c, 3, 60, 0
4, 12000, Note_on_c, 3, 58, 99
4, 12000, Note_on_c, 3, 70, 88
4, 12048, Note_on_c, 3, 70, 0
4, 12048, Note_on_c, 3, 58, 0
4, 12060, Note_on_c, 3, 79, 108
4, 12060, Note_on_c, 3, 67, 97
4, 12132, Note_on_c, 3, 67, 0
4, 12132, Note_on_c, 3, 79, 0
4, 12150, Note_on_c, 3, 68, 127
4, 12150, Note_on_c, 3, 80, 85
4, 12174, Note_on_c, 3, 80, 0
4, 12174, Note_on_c, 3, 68, 0
4, 12180, Note_on_c, 3, 70, 102
4, 12180, Note_on_c, 3, 79, 102
4, 12228, Note_on_c, 3, 79, 0
4, 12228, Note_on_c, 3, 70, 0
4, 12240, Note_on_c, 3, 72, 98
4, 12240, Note_on_c, 3, 84, 97
4, 12336, Note_on_c, 3, 84, 0
4, 12336, Note_on_c, 3, 72, 0
4, 12420, Note_on_c, 3, 74, 103
4, 12420, Note_on_c, 3, 65, 117
4, 12516, Note_on_c, 3, 65, 0
4, 12516, Note_on_c, 3, 74, 0
4, 12600, Note_on_c, 3, 67, 107
4, 12600, Note_on_c, 3, 75, 107
4, 12696, Note_on_c, 3, 75, 0
4, 12696, Note_on_c, 3, 67, 0
4, 12960, Note_on_c, 3, 75, 103
4, 13104, Note_on_c, 3, 75, 0
4, 13140, Note_on_c, 3, 84, 104
4, 13140, Note_on_c, 3, 72, 104
4, 13284, Note_on_c, 3, 72, 0
4, 13284, Note_on_c, 3, 84, 0
4, 13320, Note_on_c, 3, 82, 105
4, 13320, Note_on_c, 3, 70, 93
4, 13416, Note_on_c, 3, 70, 0
4, 13416, Note_on_c, 3, 82, 0
4, 13680, Note_on_c, 3, 65, 127
4, 13680, Note_on_c, 3, 68, 97
4, 13824, Note_on_c, 3, 68, 0
4, 13824, Note_on_c, 3, 65, 0
4, 13860, Note_on_c, 3, 65, 114
4, 13860, Note_on_c, 3, 62, 101
4, 14004, Note_on_c, 3, 62, 0
4, 14004, Note_on_c, 3, 65, 0
4, 14040, Note_on_c, 3, 63, 97
4, 14040, Note_on_c, 3, 67, 103
4, 14136, Note_on_c, 3, 67, 0
4, 14136, Note_on_c, 3, 63, 0
4, 14400, Note_on_c, 3, 67, 84
4, 14400, Note_on_c, 3, 75, 114
4, 14496, Note_on_c, 3, 75, 0
4, 14496, Note_on_c, 3, 67, 0
4, 14760, Note_on_c, 3, 67, 113
4, 14760, Note_on_c, 3, 63, 96
4, 14856, Note_on_c, 3, 63, 0
4, 14856, Note_on_c, 3, 67, 0
4, 21420, Note_on_c, 3, 77, 127
4, 21468, Note_on_c, 3, 77, 0
4, 21480, Note_on_c, 3, 75, 127
4, 21528, Note_on_c, 3, 75, 0
4, 21540, Note_on_c, 3, 74, 113
4, 21588, Note_on_c, 3, 74, 0
4, 21600, Note_on_c, 3, 72, 127
4, 21648, Note_on_c, 3, 72, 0
4, 21660, Note_on_c, 3, 71, 109
4, 21708, Note_on_c, 3, 71, 0
4, 21720, Note_on_c, 3, 68, 95
4, 21768, Note_on_c, 3, 68, 0
4, 21780, Note_on_c, 3, 67, 127
4, 21876, Note_on_c, 3, 67, 0
4, 21900, Note_on_c, 3, 67, 127
4, 21948, Note_on_c, 3, 67, 0
4, 21960, Note_on_c, 3, 67, 118
4, 21960, Note_on_c, 3, 63, 111
4, 22056, Note_on_c, 3, 63, 0
4, 22056, Note_on_c, 3, 67, 0
4, 22140, Note_on_c, 3, 79, 112
4, 22140, Note_on_c, 3, 67, 107
4, 22188, Note_on_c, 3, 67, 0
4, 22188, Note_on_c, 3, 79, 0
4, 22200, Note_on_c, 3, 77, 109
4, 22200, Note_on_c, 3, 65, 113
4, 22248, Note_on_c, 3, 65, 0
4, 22248, Note_on_c, 3, 77, 0
4, 22260, Note_on_c, 3, 75, 112
4, 22260, Note_on_c, 3, 63, 107
4, 22308, Note_on_c, 3, 63, 0
4, 22308, Note_on_c, 3, 75, 0
4, 22320, Note_on_c, 3, 74, 109
4, 22320, Note_on_c, 3, 62, 105
4, 22379, Note_on_c, 3, 62, 0
4, 22379, Note_on_c, 3, 74, 0
4, 22380, Note_on_c, 3, 72, 114
4, 22380, Note_on_c, 3, 60, 114
4, 22428, Note_on_c, 3, 60, 0
4, 22428, Note_on_c, 3, 72, 0
4, 22440, Note_on_c, 3, 71, 118
4, 22440, Note_on_c, 3, 59, 107
4, 22488, Note_on_c, 3, 59, 0
4, 22488, Note_on_c, 3, 71, 0
4, 22500, Note_on_c, 3, 72, 99
4, 22500, Note_on_c, 3, 60, 107
4, 22619, Note_on_c, 3, 60, 0
4, 22619, Note_on_c, 3, 72, 0
4, 22620, Note_on_c, 3, 74, 100
4, 22620, Note_on_c, 3, 62, 103
4, 22679, Note_on_c, 3, 62, 0
4, 22679, Note_on_c, 3, 74, 0
4, 22680, Note_on_c, 3, 75, 101
4, 22680, Note_on_c, 3, 63, 109
4, 22728, Note_on_c, 3, 63, 0
4, 22728, Note_on_c, 3, 75, 0
4, 22740, Note_on_c, 3, 75, 107
4, 22740, Note_on_c, 3, 67, 105
4, 22799, Note_on_c, 3, 67, 0
4, 22799, Note_on_c, 3, 75, 0
4, 22800, Note_on_c, 3, 72, 127
4, 22800, Note_on_c, 3, 69, 127
4, 22859, Note_on_c, 3, 69, 0
4, 22859, Note_on_c, 3, 72, 0
4, 22860, Note_on_c, 3, 74, 123
4, 22860, Note_on_c, 3, 70, 125
4, 22979, Note_on_c, 3, 70, 0
4, 22979, Note_on_c, 3, 74, 0
4, 22980, Note_on_c, 3, 69, 121
4, 22980, Note_on_c, 3, 72, 113
4, 23028, Note_on_c, 3, 72, 0
4, 23028, Note_on_c, 3, 69, 0
4, 23040, Note_on_c, 3, 72, 123
4, 23040, Note_on_c, 3, 69, 127
4, 23136, Note_on_c, 3, 69, 0
4, 23136, Note_on_c, 3, 72, 0
4, 23760, Note_on_c, 3, 68, 105
4, 23760, Note_on_c, 3, 71, 113
4, 23856, Note_on_c, 3, 71, 0
4, 23856, Note_on_c, 3, 68, 0
4, 55080, Note_on_c, 3, 72, 110
4, 55080, Note_on_c, 3, 60, 118
4, 55176, Note_on_c, 3, 60, 0
4, 55176, Note_on_c, 3, 72, 0
4, 55440, Note_on_c, 3, 72, 102
4, 55440, Note_on_c, 3, 60, 113
4, 55728, Note_on_c, 3, 60, 0
4, 55728, Note_on_c, 3, 72, 0
4, 55800, Note_on_c, 3, 79, 109
4, 55800, Note_on_c, 3, 67, 111
4, 55872, Note_on_c, 3, 67, 0
4, 55872, Note_on_c, 3, 79, 0
4, 55890, Note_on_c, 3, 79, 105
4, 55890, Note_on_c, 3, 67, 102
4, 55914, Note_on_c, 3, 67, 0
4, 55914, Note_on_c, 3, 79, 0
4, 55920, Note_on_c, 3, 79, 109
4, 55920, Note_on_c, 3, 67, 107
4, 55968, Note_on_c, 3, 67, 0
4, 55968, Note_on_c, 3, 79, 0
4, 55980, Note_on_c, 3, 79, 117
4, 55980, Note_on_c, 3, 67, 107
4, 56028, Note_on_c, 3, 67, 0
4, 56028, Note_on_c, 3, 79, 0
4, 56040, Note_on_c, 3, 79, 107
4, 56040, Note_on_c, 3, 67, 109
4, 56088, Note_on_c, 3, 67, 0
4, 56088, Note_on_c, 3, 79, 0
4, 56100, Note_on_c, 3, 79, 108
4, 56100, Note_on_c, 3, 67, 111
4, 56148, Note_on_c, 3, 67, 0
4, 56148, Note_on_c, 3, 79, 0
4, 56160, Note_on_c, 3, 79, 109
4, 56160, Note_on_c, 3, 67, 103
4, 56448, Note_on_c, 3, 67, 0
4, 56448, Note_on_c, 3, 79, 0
4, 56520, Note_on_c, 3, 72, 109
4, 56520, Note_on_c, 3, 60, 110
4, 56616, Note_on_c, 3, 60, 0
4, 56616, Note_on_c, 3, 72, 0
4, 56880, Note_on_c, 3, 72, 127
4, 56976, Note_on_c, 3, 72, 0
4, 64800, Note_on_c, 3, 68, 118
4, 64896, Note_on_c, 3, 68, 0
4, 65160, Note_on_c, 3, 80, 107
4, 65160, Note_on_c, 3, 68, 107
4, 65448, Note_on_c, 3, 68, 0
4, 65448, Note_on_c, 3, 80, 0
4, 65520, Note_on_c, 3, 75, 113
4, 65520, Note_on_c, 3, 63, 108
4, 65616, Note_on_c, 3, 63, 0
4, 65616, Note_on_c, 3, 75, 0
4, 65880, Note_on_c, 3, 73, 115
4, 65880, Note_on_c, 3, 70, 127
4, 66024, Note_on_c, 3, 70, 0
4, 66024, Note_on_c, 3, 73, 0
4, 66060, Note_on_c, 3, 70, 121
4, 66060, Note_on_c, 3, 67, 114
4, 66204, Note_on_c, 3, 67, 0
4, 66204, Note_on_c, 3, 70, 0
4, 66240, Note_on_c, 3, 68, 121
4, 66336, Note_on_c, 3, 68, 0
4, 66600, Note_on_c, 3, 68, 123
4, 66696, Note_on_c, 3, 68, 0
4, 79920, Note_on_c, 3, 74, 127
4, 79920, Note_on_c, 3, 68, 121
4, 79992, Note_on_c, 3, 68, 0
4, 79992, Note_on_c, 3, 74, 0
4, 80010, Note_on_c, 3, 68, 115
4, 80010, Note_on_c, 3, 74, 127
4, 80034, Note_on_c, 3, 74, 0
4, 80034, Note_on_c, 3, 68, 0
4, 80040, Note_on_c, 3, 74, 127
4, 80040, Note_on_c, 3, 68, 113
4, 80088, Note_on_c, 3, 68, 0
4, 80088, Note_on_c, 3, 74, 0
4, 80100, Note_on_c, 3, 68, 111
4, 80100, Note_on_c, 3, 74, 118
4, 80148, Note_on_c, 3, 74, 0
4, 80148, Note_on_c, 3, 68, 0
4, 80160, Note_on_c, 3, 68, 107
4, 80160, Note_on_c, 3, 74, 109
4, 80208, Note_on_c, 3, 74, 0
4, 80208, Note_on_c, 3, 68, 0
4, 80220, Note_on_c, 3, 68, 113
4, 80220, Note_on_c, 3, 74, 118
4, 80268, Note_on_c, 3, 74, 0
4, 80268, Note_on_c, 3, 68, 0
4, 80280, Note_on_c, 3, 68, 115
4, 80280, Note_on_c, 3, 74, 112
4, 80352, Note_on_c, 3, 74, 0
4, 80352, Note_on_c, 3, 68, 0
4, 80370, Note_on_c, 3, 68, 111
4, 80370, Note_on_c, 3, 74, 114
4, 80394, Note_on_c, 3, 74, 0
4, 80394, Note_on_c, 3, 68, 0
4, 80400, Note_on_c, 3, 68, 103
4, 80400, Note_on_c, 3, 74, 109
4, 80448, Note_on_c, 3, 74, 0
4, 80448, Note_on_c, 3, 68, 0
4, 80460, Note_on_c, 3, 68, 107
4, 80460, Note_on_c, 3, 74, 113
4, 80508, Note_on_c, 3, 74, 0
4, 80508, Note_on_c, 3, 68, 0
4, 80520, Note_on_c, 3, 68, 100
4, 80520, Note_on_c, 3, 74, 105
4, 80568, Note_on_c, 3, 74, 0
4, 80568, Note_on_c, 3, 68, 0
4, 80580, Note_on_c, 3, 74, 123
4, 80580, Note_on_c, 3, 68, 121
4, 80628, Note_on_c, 3, 68, 0
4, 80628, Note_on_c, 3, 74, 0
4, 81360, Note_on_c, 3, 68, 121
4, 81360, Note_on_c, 3, 74, 127
4, 81432, Note_on_c, 3, 74, 0
4, 81432, Note_on_c, 3, 68, 0
4, 81450, Note_on_c, 3, 68, 111
4, 81450, Note_on_c, 3, 74, 123
4, 81474, Note_on_c, 3, 74, 0
4, 81474, Note_on_c, 3, 68, 0
4, 81480, Note_on_c, 3, 68, 105
4, 81480, Note_on_c, 3, 74, 113
4, 81528, Note_on_c, 3, 74, 0
4, 81528, Note_on_c, 3, 68, 0
4, 81540, Note_on_c, 3, 68, 103
4, 81540, Note_on_c, 3, 74, 118
4, 81588, Note_on_c, 3, 74, 0
4, 81588, Note_on_c, 3, 68, 0
4, 81600, Note_on_c, 3, 68, 103
4, 81600, Note_on_c, 3, 74, 113
4, 81648, Note_on_c, 3, 74, 0
4, 81648, Note_on_c, 3, 68, 0
4, 81660, Note_on_c, 3, 68, 111
4, 81660, Note_on_c, 3, 74, 117
4, 81708, Note_on_c, 3, 74, 0
4, 81708, Note_on_c, 3, 68, 0
4, 81720, Note_on_c, 3, 68, 113
4, 81720, Note_on_c, 3, 74, 118
4, 81792, Note_on_c, 3, 74, 0
4, 81792, Note_on_c, 3, 68, 0
4, 81810, Note_on_c, 3, 68, 118
4, 81810, Note_on_c, 3, 74, 120
4, 81834, Note_on_c, 3, 74, 0
4, 81834, Note_on_c, 3, 68, 0
4, 81840, Note_on_c, 3, 68, 107
4, 81840, Note_on_c, 3, 74, 112
4, 81888, Note_on_c, 3, 74, 0
4, 81888, Note_on_c, 3, 68, 0
4, 81900, Note_on_c, 3, 68, 113
4, 81900, Note_on_c, 3, 74, 120
4, 81948, Note_on_c, 3, 74, 0
4, 81948, Note_on_c, 3, 68, 0
4, 81960, Note_on_c, 3, 68, 107
4, 81960, Note_on_c, 3, 74, 111
4, 82008, Note_on_c, 3, 74, 0
4, 82008, Note_on_c, 3, 68, 0
4, 82020, Note_on_c, 3, 68, 115
4, 82020, Note_on_c, 3, 74, 123
4, 82068, Note_on_c, 3, 74, 0
4, 82068, Note_on_c, 3, 68, 0
4, 82080, Note_on_c, 3, 68, 113
4, 82080, Note_on_c, 3, 74, 116
4, 82152, Note_on_c, 3, 74, 0
4, 82152, Note_on_c, 3, 68, 0
4, 82170, Note_on_c, 3, 68, 115
4, 82170, Note_on_c, 3, 74, 123
4, 82194, Note_on_c, 3, 74, 0
4, 82194, Note_on_c, 3, 68, 0
4, 82200, Note_on_c, 3, 68, 99
4, 82200, Note_on_c, 3, 74, 105
4, 82248, Note_on_c, 3, 74, 0
4, 82248, Note_on_c, 3, 68, 0
4, 82440, Note_on_c, 3, 68, 118
4, 82440, Note_on_c, 3, 74, 127
4, 82512, Note_on_c, 3, 74, 0
4, 82512, Note_on_c, 3, 68, 0
4, 82530, Note_on_c, 3, 74, 113
4, 82530, Note_on_c, 3, 68, 111
4, 82554, Note_on_c, 3, 68, 0
4, 82554, Note_on_c, 3, 74, 0
4, 82560, Note_on_c, 3, 68, 123
4, 82560, Note_on_c, 3, 74, 123
4, 82608, Note_on_c, 3, 74, 0
4, 82608, Note_on_c, 3, 68, 0
4, 94260, Note_on_c, 3, 70, 127
4, 94260, Note_on_c, 3, 58, 127
4, 94308, Note_on_c, 3, 58, 0
4, 94308, Note_on_c, 3, 70, 0
4, 94320, Note_on_c, 3, 70, 127
4, 94320, Note_on_c, 3, 58, 127
4, 94368, Note_on_c, 3, 58, 0
4, 94368, Note_on_c, 3, 70, 0
4, 94380, Note_on_c, 3, 75, 118
4, 94380, Note_on_c, 3, 63, 118
4, 94428, Note_on_c, 3, 63, 0
4, 94428, Note_on_c, 3, 75, 0
4, 94440, Note_on_c, 3, 75, 94
4, 94440, Note_on_c, 3, 63, 94
4, 94488, Note_on_c, 3, 63, 0
4, 94488, Note_on_c, 3, 75, 0
4, 94500, Note_on_c, 3, 79, 127
4, 94500, Note_on_c, 3, 67, 127
4, 94548, Note_on_c, 3, 67, 0
4, 94548, Note_on_c, 3, 79, 0
4, 94620, Note_on_c, 3, 67, 112
4, 94620, Note_on_c, 3, 79, 114
4, 94644, Note_on_c, 3, 79, 0
4, 94644, Note_on_c, 3, 67, 0
4, 94650, Note_on_c, 3, 82, 121
4, 94650, Note_on_c, 3, 70, 111
4, 94674, Note_on_c, 3, 70, 0
4, 94674, Note_on_c, 3, 82, 0
4, 94680, Note_on_c, 3, 70, 121
4, 94680, Note_on_c, 3, 58, 101
4, 94704, Note_on_c, 3, 58, 0
4, 94704, Note_on_c, 3, 70, 0
4, 94710, Note_on_c, 3, 75, 109
4, 94710, Note_on_c, 3, 63, 100
4, 94734, Note_on_c, 3, 63, 0
4, 94734, Note_on_c, 3, 75, 0
4, 94740, Note_on_c, 3, 75, 118
4, 94740, Note_on_c, 3, 63, 101
4, 94956, Note_on_c, 3, 63, 0
4, 94956, Note_on_c, 3, 75, 0
4, 94980, Note_on_c, 3, 75, 115
4, 94980, Note_on_c, 3, 63, 107
4, 95004, Note_on_c, 3, 63, 0
4, 95004, Note_on_c, 3, 75, 0
4, 95010, Note_on_c, 3, 79, 105
4, 95010, Note_on_c, 3, 67, 99
4, 95034, Note_on_c, 3, 67, 0
4, 95034, Note_on_c, 3, 79, 0
4, 95040, Note_on_c, 3, 77, 105
4, 95040, Note_on_c, 3, 65, 101
4, 95088, Note_on_c, 3, 65, 0
4, 95088, Note_on_c, 3, 77, 0
4, 95160, Note_on_c, 3, 62, 113
4, 95160, Note_on_c, 3, 74, 101
4, 95184, Note_on_c, 3, 74, 0
4, 95184, Note_on_c, 3, 62, 0
4, 95190, Note_on_c, 3, 77, 107
4, 95190, Note_on_c, 3, 65, 100
4, 95214, Note_on_c, 3, 65, 0
4, 95214, Note_on_c, 3, 77, 0
4, 95220, Note_on_c, 3, 75, 113
4, 95220, Note_on_c, 3, 63, 101
4, 95268, Note_on_c, 3, 63, 0
4, 95268, Note_on_c, 3, 75, 0
4, 95340, Note_on_c, 3, 70, 121
4, 95340, Note_on_c, 3, 58, 99
4, 95388, Note_on_c, 3, 58, 0
4, 95388, Note_on_c, 3, 70, 0
4, 95400, Note_on_c, 3, 70, 111
4, 95400, Note_on_c, 3, 62, 127
4, 95412, Note_on_c, 3, 70, 0
4, 95415, Note_on_c, 3, 72, 123
4, 95427, Note_on_c, 3, 72, 0
4, 95430, Note_on_c, 3, 70, 111
4, 95442, Note_on_c, 3, 70, 0
4, 95445, Note_on_c, 3, 72, 127
4, 95448, Note_on_c, 3, 62, 0
4, 95457, Note_on_c, 3, 72, 0
4, 95460, Note_on_c, 3, 70, 109
4, 95460, Note_on_c, 3, 65, 127
4, 95472, Note_on_c, 3, 70, 0
4, 95475, Note_on_c, 3, 72, 123
4, 95487, Note_on_c, 3, 72, 0
4, 95490, Note_on_c, 3, 70, 111
4, 95502, Note_on_c, 3, 70, 0
4, 95505, Note_on_c, 3, 72, 127
4, 95508, Note_on_c, 3, 65, 0
4, 95517, Note_on_c, 3, 72, 0
4, 95520, Note_on_c, 3, 70, 115
4, 95520, Note_on_c, 3, 62, 127
4, 95544, Note_on_c, 3, 70, 0
4, 95550, Note_on_c, 3, 69, 127
4, 95568, Note_on_c, 3, 62, 0
4, 95574, Note_on_c, 3, 69, 0
4, 95580, Note_on_c, 3, 70, 127
4, 95580, Note_on_c, 3, 58, 109
4, 95628, Note_on_c, 3, 58, 0
4, 95628, Note_on_c, 3, 70, 0
4, 95700, Note_on_c, 3, 58, 115
4, 95700, Note_on_c, 3, 70, 115
4, 95748, Note_on_c, 3, 70, 0
4, 95748, Note_on_c, 3, 58, 0
4, 95760, Note_on_c, 3, 58, 127
4, 95760, Note_on_c, 3, 70, 127
4, 95808, Note_on_c, 3, 70, 0
4, 95808, Note_on_c, 3, 58, 0
4, 95820, Note_on_c, 3, 63, 118
4, 95820, Note_on_c, 3, 75, 118
4, 95868, Note_on_c, 3, 75, 0
4, 95868, Note_on_c, 3, 63, 0
4, 95880, Note_on_c, 3, 63, 94
4, 95880, Note_on_c, 3, 75, 94
4, 95928, Note_on_c, 3, 75, 0
4, 95928, Note_on_c, 3, 63, 0
4, 95940, Note_on_c, 3, 67, 127
4, 95940, Note_on_c, 3, 79, 127
4, 95988, Note_on_c, 3, 79, 0
4, 95988, Note_on_c, 3, 67, 0
4, 96060, Note_on_c, 3, 79, 114
4, 96060, Note_on_c, 3, 67, 112
4, 96084, Note_on_c, 3, 67, 0
4, 96084, Note_on_c, 3, 79, 0
4, 96090, Note_on_c, 3, 70, 111
4, 96090, Note_on_c, 3, 82, 121
4, 96114, Note_on_c, 3, 82, 0
4, 96114, Note_on_c, 3, 70, 0
4, 96120, Note_on_c, 3, 58, 101
4, 96120, Note_on_c, 3, 70, 121
4, 96144, Note_on_c, 3, 70, 0
4, 96144, Note_on_c, 3, 58, 0
4, 96150, Note_on_c, 3, 63, 100
4, 96150, Note_on_c, 3, 75, 109
4, 96174, Note_on_c, 3, 75, 0
4, 96174, Note_on_c, 3, 63, 0
4, 96180, Note_on_c, 3, 63, 101
4, 96180, Note_on_c, 3, 75, 118
4, 96396, Note_on_c, 3, 75, 0
4, 96396, Note_on_c, 3, 63, 0
4, 96420, Note_on_c, 3, 63, 107
4, 96420, Note_on_c, 3, 75, 115
4, 96444, Note_on_c, 3, 75, 0
4, 96444, Note_on_c, 3, 63, 0
4, 96450, Note_on_c, 3, 67, 99
4, 96450, Note_on_c, 3, 79, 105
4, 96474, Note_on_c, 3, 79, 0
4, 96474, Note_on_c, 3, 67, 0
4, 96480, Note_on_c, 3, 65, 101
4, 96480, Note_on_c, 3, 77, 105
4, 96528, Note_on_c, 3, 77, 0
4, 96528, Note_on_c, 3, 65, 0
4, 96600, Note_on_c, 3, 74, 101
4, 96600, Note_on_c, 3, 62, 113
4, 96624, Note_on_c, 3, 62, 0
4, 96624, Note_on_c, 3, 74, 0
4, 96630, Note_on_c, 3, 65, 100
4, 96630, Note_on_c, 3, 77, 107
4, 96654, Note_on_c, 3, 77, 0
4, 96654, Note_on_c, 3, 65, 0
4, 96660, Note_on_c, 3, 63, 101
4, 96660, Note_on_c, 3, 75, 113
4, 96708, Note_on_c, 3, 75, 0
4, 96708, Note_on_c, 3, 63, 0
4, 96780, Note_on_c, 3, 58, 99
4, 96780, Note_on_c, 3, 70, 121
4, 96828, Note_on_c, 3, 70, 0
4, 96828, Note_on_c, 3, 58, 0
4, 96840, Note_on_c, 3, 62, 127
4, 96840, Note_on_c, 3, 70, 111
4, 96852, Note_on_c, 3, 70, 0
4, 96855, Note_on_c, 3, 72, 123
4, 96867, Note_on_c, 3, 72, 0
4, 96870, Note_on_c, 3, 70, 111
4, 96882, Note_on_c, 3, 70, 0
4, 96885, Note_on_c, 3, 72, 127
4, 96888, Note_on_c, 3, 62, 0
4, 96897, Note_on_c, 3, 72, 0
4, 96900, Note_on_c, 3, 65, 127
4, 96900, Note_on_c, 3, 70, 109
4, 96912, Note_on_c, 3, 70, 0
4, 96915, Note_on_c, 3, 72, 123
4, 96927, Note_on_c, 3, 72, 0
4, 96930, Note_on_c, 3, 70, 111
4, 96942, Note_on_c, 3, 70, 0
4, 96945, Note_on_c, 3, 72, 127
4, 96948, Note_on_c, 3, 65, 0
4, 96957, Note_on_c, 3, 72, 0
4, 96960, Note_on_c, 3, 62, 127
4, 96960, Note_on_c, 3, 70, 115
4, 96984, Note_on_c, 3, 70, 0
4, 96990, Note_on_c, 3, 69, 127
4, 97008, Note_on_c, 3, 62, 0
4, 97014, Note_on_c, 3, 69, 0
4, 97020, Note_on_c, 3, 58, 109
4, 97020, Note_on_c, 3, 70, 127
4, 97068, Note_on_c, 3, 70, 0
4, 97068, Note_on_c, 3, 58, 0
4, 97140, Note_on_c, 3, 70, 106
4, 97140, Note_on_c, 3, 82, 118
4, 97164, Note_on_c, 3, 82, 0
4, 97164, Note_on_c, 3, 70, 0
4, 97170, Note_on_c, 3, 69, 108
4, 97170, Note_on_c, 3, 81, 107
4, 97194, Note_on_c, 3, 81, 0
4, 97194, Note_on_c, 3, 69, 0
4, 97200, Note_on_c, 3, 69, 103
4, 97200, Note_on_c, 3, 81, 101
4, 97248, Note_on_c, 3, 81, 0
4, 97248, Note_on_c, 3, 69, 0
4, 97320, Note_on_c, 3, 68, 100
4, 97320, Note_on_c, 3, 80, 115
4, 97344, Note_on_c, 3, 80, 0
4, 97344, Note_on_c, 3, 68, 0
4, 97350, Note_on_c, 3, 67, 111
4, 97350, Note_on_c, 3, 79, 126
4, 97374, Note_on_c, 3, 79, 0
4, 97374, Note_on_c, 3, 67, 0
4, 97380, Note_on_c, 3, 67, 100
4, 97380, Note_on_c, 3, 79, 104
4, 97428, Note_on_c, 3, 79, 0
4, 97428, Note_on_c, 3, 67, 0
4, 97500, Note_on_c, 3, 66, 100
4, 97500, Note_on_c, 3, 78, 109
4, 97524, Note_on_c, 3, 78, 0
4, 97524, Note_on_c, 3, 66, 0
4, 97530, Note_on_c, 3, 65, 103
4, 97530, Note_on_c, 3, 77, 112
4, 97554, Note_on_c, 3, 77, 0
4, 97554, Note_on_c, 3, 65, 0
4, 97560, Note_on_c, 3, 77, 117
4, 97560, Note_on_c, 3, 65, 111
4, 97608, Note_on_c, 3, 65, 0
4, 97608, Note_on_c, 3, 77, 0
4, 97680, Note_on_c, 3, 76, 100
4, 97680, Note_on_c, 3, 64, 109
4, 97704, Note_on_c, 3, 64, 0
4, 97704, Note_on_c, 3, 76, 0
4, 97710, Note_on_c, 3, 75, 107
4, 97710, Note_on_c, 3, 63, 101
4, 97734, Note_on_c, 3, 63, 0
4, 97734, Note_on_c, 3, 75, 0
4, 97740, Note_on_c, 3, 75, 121
4, 97740, Note_on_c, 3, 63, 111
4, 97788, Note_on_c, 3, 63, 0
4, 97788, Note_on_c, 3, 75, 0
4, 97860, Note_on_c, 3, 75, 111
4, 97860, Note_on_c, 3, 63, 105
4, 97884, Note_on_c, 3, 63, 0
4, 97884, Note_on_c, 3, 75, 0
4, 97890, Note_on_c, 3, 62, 85
4, 97890, Note_on_c, 3, 74, 118
4, 97914, Note_on_c, 3, 74, 0
4, 97914, Note_on_c, 3, 62, 0
4, 97920, Note_on_c, 3, 62, 92
4, 97920, Note_on_c, 3, 74, 117
4, 98016, Note_on_c, 3, 74, 0
4, 98016, Note_on_c, 3, 62, 0
4, 98040, Note_on_c, 3, 62, 87
4, 98040, Note_on_c, 3, 74, 107
4, 98088, Note_on_c, 3, 74, 0
4, 98088, Note_on_c, 3, 62, 0
4, 98100, Note_on_c, 3, 74, 111
4, 98100, Note_on_c, 3, 62, 95
4, 98172, Note_on_c, 3, 62, 0
4, 98172, Note_on_c, 3, 74, 0
4, 98190, Note_on_c, 3, 75, 107
4, 98190, Note_on_c, 3, 63, 105
4, 98214, Note_on_c, 3, 63, 0
4, 98214, Note_on_c, 3, 75, 0
4, 98220, Note_on_c, 3, 77, 113
4, 98220, Note_on_c, 3, 65, 95
4, 98268, Note_on_c, 3, 65, 0
4, 98268, Note_on_c, 3, 77, 0
4, 98280, Note_on_c, 3, 77, 120
4, 98280, Note_on_c, 3, 65, 114
4, 98328, Note_on_c, 3, 65, 0
4, 98328, Note_on_c, 3, 77, 0
4, 98340, Note_on_c, 3, 79, 121
4, 98340, Note_on_c, 3, 67, 120
4, 98388, Note_on_c, 3, 67, 0
4, 98388, Note_on_c, 3, 79, 0
4, 98400, Note_on_c, 3, 75, 97
4, 98400, Note_on_c, 3, 63, 101
4, 98448, Note_on_c, 3, 63, 0
4, 98448, Note_on_c, 3, 75, 0
4, 98460, Note_on_c, 3, 75, 101
4, 98460, Note_on_c, 3, 63, 109
4, 98508, Note_on_c, 3, 63, 0
4, 98556, Note_on_c, 3, 75, 0
4, 98580, Note_on_c, 3, 63, 98
4, 98580, Note_on_c, 3, 75, 100
4, 98604, Note_on_c, 3, 75, 0
4, 98604, Note_on_c, 3, 63, 0
4, 98610, Note_on_c, 3, 62, 101
4, 98610, Note_on_c, 3, 74, 113
4, 98634, Note_on_c, 3, 74, 0
4, 98634, Note_on_c, 3, 62, 0
4, 98640, Note_on_c, 3, 62, 90
4, 98640, Note_on_c, 3, 74, 127
4, 98736, Note_on_c, 3, 74, 0
4, 98736, Note_on_c, 3, 62, 0
4, 98760, Note_on_c, 3, 62, 97
4, 98760, Note_on_c, 3, 74, 127
4, 98808, Note_on_c, 3, 74, 0
4, 98808, Note_on_c, 3, 62, 0
4, 98820, Note_on_c, 3, 62, 28
4, 98820, Note_on_c, 3, 74, 127
4, 98892, Note_on_c, 3, 74, 0
4, 98892, Note_on_c, 3, 62, 0
4, 98910, Note_on_c, 3, 63, 101
4, 98910, Note_on_c, 3, 75, 121
4, 98934, Note_on_c, 3, 75, 0
4, 98934, Note_on_c, 3, 63, 0
4, 98940, Note_on_c, 3, 65, 96
4, 98940, Note_on_c, 3, 77, 127
4, 98988, Note_on_c, 3, 77, 0
4, 98988, Note_on_c, 3, 65, 0
4, 99000, Note_on_c, 3, 77, 127
4, 99000, Note_on_c, 3, 65, 127
4, 99024, Note_on_c, 3, 65, 0
4, 99024, Note_on_c, 3, 77, 0
4, 99030, Note_on_c, 3, 79, 127
4, 99030, Note_on_c, 3, 67, 127
4, 99054, Note_on_c, 3, 67, 0
4, 99054, Note_on_c, 3, 79, 0
4, 99120, Note_on_c, 3, 75, 97
4, 99120, Note_on_c, 3, 63, 95
4, 99168, Note_on_c, 3, 63, 0
4, 99168, Note_on_c, 3, 75, 0
4, 99180, Note_on_c, 3, 75, 107
4, 99180, Note_on_c, 3, 63, 100
4, 99252, Note_on_c, 3, 63, 0
4, 99252, Note_on_c, 3, 75, 0
4, 99270, Note_on_c, 3, 77, 103
4, 99270, Note_on_c, 3, 65, 104
4, 99294, Note_on_c, 3, 65, 0
4, 99294, Note_on_c, 3, 77, 0
4, 99300, Note_on_c, 3, 67, 103
4, 99300, Note_on_c, 3, 79, 104
4, 99348, Note_on_c, 3, 79, 0
4, 99348, Note_on_c, 3, 67, 0
4, 99360, Note_on_c, 3, 67, 111
4, 99360, Note_on_c, 3, 79, 110
4, 99384, Note_on_c, 3, 79, 0
4, 99384, Note_on_c, 3, 67, 0
4, 99390, Note_on_c, 3, 80, 123
4, 99390, Note_on_c, 3, 68, 100
4, 99414, Note_on_c, 3, 68, 0
4, 99414, Note_on_c, 3, 80, 0
4, 99480, Note_on_c, 3, 77, 98
4, 99480, Note_on_c, 3, 65, 103
4, 99528, Note_on_c, 3, 65, 0
4, 99528, Note_on_c, 3, 77, 0
4, 99540, Note_on_c, 3, 77, 105
4, 99540, Note_on_c, 3, 65, 103
4, 99612, Note_on_c, 3, 65, 0
4, 99612, Note_on_c, 3, 77, 0
4, 99630, Note_on_c, 3, 67, 102
4, 99630, Note_on_c, 3, 79, 109
4, 99654, Note_on_c, 3, 79, 0
4, 99654, Note_on_c, 3, 67, 0
4, 99660, Note_on_c, 3, 80, 127
4, 99660, Note_on_c, 3, 68, 95
4, 99708, Note_on_c, 3, 68, 0
4, 99708, Note_on_c, 3, 80, 0
4, 99720, Note_on_c, 3, 80, 91
4, 99720, Note_on_c, 3, 68, 93
4, 99744, Note_on_c, 3, 68, 0
4, 99744, Note_on_c, 3, 80, 0
4, 99750, Note_on_c, 3, 82, 113
4, 99750, Note_on_c, 3, 70, 109
4, 99774, Note_on_c, 3, 70, 0
4, 99774, Note_on_c, 3, 82, 0
4, 99840, Note_on_c, 3, 79, 89
4, 99840, Note_on_c, 3, 67, 71
4, 99888, Note_on_c, 3, 67, 0
4, 99888, Note_on_c, 3, 79, 0
4, 99900, Note_on_c, 3, 79, 106
4, 99900, Note_on_c, 3, 67, 103
4, 99972, Note_on_c, 3, 67, 0
4, 99972, Note_on_c, 3, 79, 0
4, 99990, Note_on_c, 3, 80, 126
4, 99990, Note_on_c, 3, 68, 111
4, 100014, Note_on_c, 3, 68, 0
4, 100014, Note_on_c, 3, 80, 0
4, 100020, Note_on_c, 3, 82, 107
4, 100020, Note_on_c, 3, 70, 93
4, 100068, Note_on_c, 3, 70, 0
4, 100068, Note_on_c, 3, 82, 0
4, 100080, Note_on_c, 3, 72, 103
4, 100080, Note_on_c, 3, 84, 104
4, 100152, Note_on_c, 3, 84, 0
4, 100152, Note_on_c, 3, 72, 0
4, 100170, Note_on_c, 3, 70, 112
4, 100170, Note_on_c, 3, 82, 94
4, 100194, Note_on_c, 3, 82, 0
4, 100194, Note_on_c, 3, 70, 0
4, 100200, Note_on_c, 3, 80, 109
4, 100200, Note_on_c, 3, 68, 108
4, 100248, Note_on_c, 3, 68, 0
4, 100248, Note_on_c, 3, 80, 0
4, 100260, Note_on_c, 3, 67, 112
4, 100260, Note_on_c, 3, 79, 121
4, 100332, Note_on_c, 3, 79, 0
4, 100332, Note_on_c, 3, 67, 0
4, 100350, Note_on_c, 3, 77, 127
4, 100350, Note_on_c, 3, 65, 105
4, 100374, Note_on_c, 3, 65, 0
4, 100374, Note_on_c, 3, 77, 0
4, 100380, Note_on_c, 3, 75, 100
4, 100380, Note_on_c, 3, 63, 105
4, 100428, Note_on_c, 3, 63, 0
4, 100428, Note_on_c, 3, 75, 0
4, 100440, Note_on_c, 3, 74, 113
4, 100440, Note_on_c, 3, 62, 106
4, 100512, Note_on_c, 3, 62, 0
4, 100512, Note_on_c, 3, 74, 0
4, 100530, Note_on_c, 3, 72, 123
4, 100530, Note_on_c, 3, 60, 86
4, 100554, Note_on_c, 3, 60, 0
4, 100554, Note_on_c, 3, 72, 0
4, 100560, Note_on_c, 3, 70, 88
4, 100560, Note_on_c, 3, 58, 99
4, 100608, Note_on_c, 3, 58, 0
4, 100608, Note_on_c, 3, 70, 0
4, 100620, Note_on_c, 3, 67, 97
4, 100620, Note_on_c, 3, 79, 108
4, 100692, Note_on_c, 3, 79, 0
4, 100692, Note_on_c, 3, 67, 0
4, 100710, Note_on_c, 3, 80, 85
4, 100710, Note_on_c, 3, 68, 127
4, 100734, Note_on_c, 3, 68, 0
4, 100734, Note_on_c, 3, 80, 0
4, 100740, Note_on_c, 3, 79, 102
4, 100740, Note_on_c, 3, 70, 102
4, 100788, Note_on_c, 3, 70, 0
4, 100788, Note_on_c, 3, 79, 0
4, 100800, Note_on_c, 3, 84, 97
4, 100800, Note_on_c, 3, 72, 98
4, 100896, Note_on_c, 3, 72, 0
4, 100896, Note_on_c, 3, 84, 0
4, 100980, Note_on_c, 3, 65, 117
4, 100980, Note_on_c, 3, 74, 103
4, 101076, Note_on_c, 3, 74, 0
4, 101076, Note_on_c, 3, 65, 0
4, 101160, Note_on_c, 3, 75, 107
4, 101160, Note_on_c, 3, 67, 107
4, 101256, Note_on_c, 3, 67, 0
4, 101256, Note_on_c, 3, 75, 0
4, 101520, Note_on_c, 3, 75, 103
4, 101664, Note_on_c, 3, 75, 0
4, 101700, Note_on_c, 3, 72, 104
4, 101700, Note_on_c, 3, 84, 104
4, 101844, Note_on_c, 3, 84, 0
4, 101844, Note_on_c, 3, 72, 0
4, 101880, Note_on_c, 3, 70, 93
4, 101880, Note_on_c, 3, 82, 105
4, 101976, Note_on_c, 3, 82, 0
4, 101976, Note_on_c, 3, 70, 0
4, 102240, Note_on_c, 3, 68, 97
4, 102240, Note_on_c, 3, 65, 127
4, 102384, Note_on_c, 3, 65, 0
4, 102384, Note_on_c, 3, 68, 0
4, 102420, Note_on_c, 3, 62, 101
4, 102420, Note_on_c, 3, 65, 114
4, 102564, Note_on_c, 3, 65, 0
4, 102564, Note_on_c, 3, 62, 0
4, 102600, Note_on_c, 3, 67, 103
4, 102600, Note_on_c, 3, 63, 97
4, 102696, Note_on_c, 3, 63, 0
4, 102696, Note_on_c, 3, 67, 0
4, 102960, Note_on_c, 3, 75, 114
4, 102960, Note_on_c, 3, 67, 84
4, 103056, Note_on_c, 3, 67, 0
4, 103056, Note_on_c, 3, 75, 0
4, 103320, Note_on_c, 3, 63, 96
4, 103320, Note_on_c, 3, 67, 113
4, 103416, Note_on_c, 3, 67, 0
4, 103416, Note_on_c, 3, 63, 0
4, 110700, Note_on_c, 3, 70, 127
4, 110748, Note_on_c, 3, 70, 0
4, 110760, Note_on_c, 3, 68, 115
4, 110808, Note_on_c, 3, 68, 0
4, 110820, Note_on_c, 3, 67, 123
4, 110868, Note_on_c, 3, 67, 0
4, 110880, Note_on_c, 3, 65, 123
4, 110928, Note_on_c, 3, 65, 0
4, 110940, Note_on_c, 3, 64, 118
4, 110988, Note_on_c, 3, 64, 0
4, 111000, Note_on_c, 3, 61, 121
4, 111048, Note_on_c, 3, 61, 0
4, 111060, Note_on_c, 3, 60, 127
4, 111156, Note_on_c, 3, 60, 0
4, 111180, Note_on_c, 3, 60, 127
4, 111228, Note_on_c, 3, 60, 0
4, 111240, Note_on_c, 3, 72, 109
4, 111240, Note_on_c, 3, 68, 107
4, 111336, Note_on_c, 3, 68, 0
4, 111336, Note_on_c, 3, 72, 0
4, 111420, Note_on_c, 3, 72, 127
4, 111468, Note_on_c, 3, 72, 0
4, 111480, Note_on_c, 3, 70, 127
4, 111528, Note_on_c, 3, 70, 0
4, 111540, Note_on_c, 3, 68, 115
4, 111588, Note_on_c, 3, 68, 0
4, 111600, Note_on_c, 3, 67, 127
4, 111648, Note_on_c, 3, 67, 0
4, 111660, Note_on_c, 3, 65, 120
4, 111708, Note_on_c, 3, 65, 0
4, 111720, Note_on_c, 3, 64, 109
4, 111768, Note_on_c, 3, 64, 0
4, 111780, Note_on_c, 3, 65, 127
4, 111876, Note_on_c, 3, 65, 0
4, 111900, Note_on_c, 3, 67, 121
4, 111948, Note_on_c, 3, 67, 0
4, 111960, Note_on_c, 3, 68, 113
4, 112008, Note_on_c, 3, 68, 0
4, 112020, Note_on_c, 3, 68, 99
4, 112020, Note_on_c, 3, 60, 118
4, 112068, Note_on_c, 3, 60, 0
4, 112068, Note_on_c, 3, 68, 0
4, 112080, Note_on_c, 3, 65, 125
4, 112080, Note_on_c, 3, 62, 120
4, 112128, Note_on_c, 3, 62, 0
4, 112128, Note_on_c, 3, 65, 0
4, 112140, Note_on_c, 3, 67, 123
4, 112140, Note_on_c, 3, 63, 108
4, 112236, Note_on_c, 3, 63, 0
4, 112236, Note_on_c, 3, 67, 0
4, 112260, Note_on_c, 3, 65, 125
4, 112260, Note_on_c, 3, 62, 104
4, 112308, Note_on_c, 3, 62, 0
4, 112308, Note_on_c, 3, 65, 0
4, 112320, Note_on_c, 3, 65, 127
4, 112320, Note_on_c, 3, 62, 113
4, 112416, Note_on_c, 3, 62, 0
4, 112416, Note_on_c, 3, 65, 0
4, 113040, Note_on_c, 3, 70, 127
4, 113040, Note_on_c, 3, 67, 127
4, 113136, Note_on_c, 3, 67, 0
4, 113136, Note_on_c, 3, 70, 0
4, 123480, Note_on_c, 3, 68, 109
4, 123504, Note_on_c, 3, 68, 0
4, 123510, Note_on_c, 3, 72, 127
4, 123534, Note_on_c, 3, 72, 0
4, 123540, Note_on_c, 3, 70, 127
4, 123588, Note_on_c, 3, 70, 0
4, 123660, Note_on_c, 3, 66, 113
4, 123684, Note_on_c, 3, 66, 0
4, 123690, Note_on_c, 3, 70, 127
4, 123714, Note_on_c, 3, 70, 0
4, 123720, Note_on_c, 3, 68, 115
4, 123768, Note_on_c, 3, 68, 0
4, 123840, Note_on_c, 3, 68, 109
4, 123840, Note_on_c, 3, 72, 127
4, 123888, Note_on_c, 3, 72, 0
4, 123888, Note_on_c, 3, 68, 0
4, 123900, Note_on_c, 3, 70, 116
4, 123900, Note_on_c, 3, 67, 113
4, 123996, Note_on_c, 3, 67, 0
4, 123996, Note_on_c, 3, 70, 0
4, 124920, Note_on_c, 3, 68, 109
4, 124944, Note_on_c, 3, 68, 0
4, 124950, Note_on_c, 3, 72, 127
4, 124974, Note_on_c, 3, 72, 0
4, 124980, Note_on_c, 3, 70, 127
4, 125028, Note_on_c, 3, 70, 0
4, 125100, Note_on_c, 3, 66, 113
4, 125124, Note_on_c, 3, 66, 0
4, 125130, Note_on_c, 3, 70, 127
4, 125154, Note_on_c, 3, 70, 0
4, 125160, Note_on_c, 3, 68, 115
4, 125208, Note_on_c, 3, 68, 0
4, 125280, Note_on_c, 3, 72, 127
4, 125280, Note_on_c, 3, 68, 109
4, 125328, Note_on_c, 3, 68, 0
4, 125328, Note_on_c, 3, 72, 0
4, 125340, Note_on_c, 3, 67, 113
4, 125340, Note_on_c, 3, 70, 116
4, 125436, Note_on_c, 3, 70, 0
4, 125436, Note_on_c, 3, 67, 0
4, 126360, Note_on_c, 3, 68, 111
4, 126408, Note_on_c, 3, 68, 0
4, 126420, Note_on_c, 3, 67, 107
4, 126532, Note_on_c, 3, 67, 0
4, 126540, Note_on_c, 3, 67, 108
4, 126540, Note_on_c, 3, 73, 86
4, 126588, Note_on_c, 3, 73, 0
4, 126588, Note_on_c, 3, 67, 0
4, 126600, Note_on_c, 3, 67, 114
4, 126600, Note_on_c, 3, 73, 99
4, 126672, Note_on_c, 3, 73, 0
4, 126672, Note_on_c, 3, 67, 0
4, 126690, Note_on_c, 3, 72, 125
4, 126690, Note_on_c, 3, 68, 103
4, 126714, Note_on_c, 3, 68, 0
4, 126714, Note_on_c, 3, 72, 0
4, 126720, Note_on_c, 3, 70, 116
4, 126720, Note_on_c, 3, 67, 103
4, 126768, Note_on_c, 3, 67, 0
4, 126768, Note_on_c, 3, 70, 0
4, 126780, Note_on_c, 3, 70, 127
4, 126828, Note_on_c, 3, 70, 0
4, 126840, Note_on_c, 3, 72, 118
4, 126840, Note_on_c, 3, 63, 116
4, 126888, Note_on_c, 3, 63, 0
4, 126888, Note_on_c, 3, 72, 0
4, 126900, Note_on_c, 3, 68, 107
4, 126900, Note_on_c, 3, 60, 111
4, 126948, Note_on_c, 3, 60, 0
4, 126948, Note_on_c, 3, 68, 0
4, 126960, Note_on_c, 3, 68, 121
4, 126960, Note_on_c, 3, 60, 120
4, 127056, Note_on_c, 3, 60, 0
4, 127056, Note_on_c, 3, 68, 0
4, 128520, Note_on_c, 3, 70, 111
4, 128520, Note_on_c, 3, 67, 127
4, 128568, Note_on_c, 3, 67, 0
4, 128568, Note_on_c, 3, 70, 0
4, 128580, Note_on_c, 3, 79, 121
4, 128580, Note_on_c, 3, 70, 127
4, 128676, Note_on_c, 3, 70, 0
4, 128676, Note_on_c, 3, 79, 0
4, 128760, Note_on_c, 3, 70, 125
4, 128760, Note_on_c, 3, 79, 110
4, 128856, Note_on_c, 3, 79, 0
4, 128856, Note_on_c, 3, 70, 0
4, 128940, Note_on_c, 3, 70, 123
4, 128940, Note_on_c, 3, 79, 109
4, 129036, Note_on_c, 3, 79, 0
4, 129036, Note_on_c, 3, 70, 0
4, 129120, Note_on_c, 3, 70, 127
4, 129120, Note_on_c, 3, 79, 103
4, 129216, Note_on_c, 3, 79, 0
4, 129216, Note_on_c, 3, 70, 0
4, 129300, Note_on_c, 3, 68, 84
4, 129300, Note_on_c, 3, 77, 103
4, 129396, Note_on_c, 3, 77, 0
4, 129396, Note_on_c, 3, 68, 0
4, 129480, Note_on_c, 3, 75, 116
4, 129480, Note_on_c, 3, 68, 111
4, 129576, Note_on_c, 3, 68, 0
4, 129576, Note_on_c, 3, 75, 0
4, 129660, Note_on_c, 3, 74, 115
4, 129660, Note_on_c, 3, 65, 114
4, 129772, Note_on_c, 3, 65, 0
4, 129772, Note_on_c, 3, 74, 0
4, 129840, Note_on_c, 3, 74, 109
4, 129840, Note_on_c, 3, 65, 120
4, 129936, Note_on_c, 3, 65, 0
4, 129936, Note_on_c, 3, 74, 0
4, 129960, Note_on_c, 3, 70, 127
4, 130008, Note_on_c, 3, 70, 0
4, 130020, Note_on_c, 3, 79, 111
4, 130020, Note_on_c, 3, 70, 105
4, 130116, Note_on_c, 3, 70, 0
4, 130116, Note_on_c, 3, 79, 0
4, 130200, Note_on_c, 3, 70, 111
4, 130200, Note_on_c, 3, 79, 113
4, 130296, Note_on_c, 3, 79, 0
4, 130296, Note_on_c, 3, 70, 0
4, 130380, Note_on_c, 3, 70, 125
4, 130380, Note_on_c, 3, 79, 105
4, 130476, Note_on_c, 3, 79, 0
4, 130476, Note_on_c, 3, 70, 0
4, 130560, Note_on_c, 3, 70, 123
4, 130560, Note_on_c, 3, 79, 105
4, 130656, Note_on_c, 3, 79, 0
4, 130656, Note_on_c, 3, 70, 0
4, 130740, Note_on_c, 3, 77, 106
4, 130740, Note_on_c, 3, 68, 91
4, 130836, Note_on_c, 3, 68, 0
4, 130836, Note_on_c, 3, 77, 0
4, 130920, Note_on_c, 3, 75, 104
4, 130920, Note_on_c, 3, 67, 98
4, 131016, Note_on_c, 3, 67, 0
4, 131016, Note_on_c, 3, 75, 0
4, 131100, Note_on_c, 3, 74, 117
4, 131100, Note_on_c, 3, 65, 113
4, 131196, Note_on_c, 3, 65, 0
4, 131196, Note_on_c, 3, 74, 0
4, 131280, Note_on_c, 3, 82, 106
4, 131280, Note_on_c, 3, 70, 103
4, 131376, Note_on_c, 3, 70, 0
4, 131376, Note_on_c, 3, 82, 0
4, 131460, Note_on_c, 3, 70, 100
4, 131460, Note_on_c, 3, 82, 105
4, 131556, Note_on_c, 3, 82, 0
4, 131556, Note_on_c, 3, 70, 0
4, 131640, Note_on_c, 3, 70, 103
4, 131640, Note_on_c, 3, 82, 117
4, 131736, Note_on_c, 3, 82, 0
4, 131736, Note_on_c, 3, 70, 0
4, 131820, Note_on_c, 3, 82, 101
4, 131820, Note_on_c, 3, 70, 102
4, 131916, Note_on_c, 3, 70, 0
4, 131916, Note_on_c, 3, 82, 0
4, 132000, Note_on_c, 3, 82, 116
4, 132000, Note_on_c, 3, 70, 108
4, 132096, Note_on_c, 3, 70, 0
4, 132096, Note_on_c, 3, 82, 0
4, 132180, Note_on_c, 3, 68, 95
4, 132180, Note_on_c, 3, 77, 127
4, 132276, Note_on_c, 3, 77, 0
4, 132276, Note_on_c, 3, 68, 0
4, 132360, Note_on_c, 3, 77, 127
4, 132360, Note_on_c, 3, 68, 109
4, 132456, Note_on_c, 3, 68, 0
4, 132456, Note_on_c, 3, 77, 0
4, 132540, Note_on_c, 3, 75, 116
4, 132540, Note_on_c, 3, 67, 113
4, 132652, Note_on_c, 3, 67, 0
4, 132652, Note_on_c, 3, 75, 0
4, 132660, Note_on_c, 3, 75, 127
4, 132660, Note_on_c, 3, 67, 127
4, 132756, Note_on_c, 3, 67, 0
4, 132756, Note_on_c, 3, 75, 0
4, 135540, Note_on_c, 3, 70, 120
4, 135588, Note_on_c, 3, 70, 0
4, 135600, Note_on_c, 3, 70, 120
4, 135672, Note_on_c, 3, 70, 0
4, 135690, Note_on_c, 3, 74, 125
4, 135714, Note_on_c, 3, 74, 0
4, 135720, Note_on_c, 3, 75, 121
4, 135768, Note_on_c, 3, 75, 0
4, 135780, Note_on_c, 3, 74, 127
4, 135828, Note_on_c, 3, 74, 0
4, 135900, Note_on_c, 3, 74, 127
4, 135948, Note_on_c, 3, 74, 0
4, 135960, Note_on_c, 3, 74, 123
4, 136032, Note_on_c, 3, 74, 0
4, 136050, Note_on_c, 3, 75, 127
4, 136074, Note_on_c, 3, 75, 0
4, 136080, Note_on_c, 3, 77, 127
4, 136128, Note_on_c, 3, 77, 0
4, 136140, Note_on_c, 3, 79, 117
4, 136236, Note_on_c, 3, 79, 0
4, 136680, Note_on_c, 3, 75, 127
4, 136752, Note_on_c, 3, 75, 0
4, 136770, Note_on_c, 3, 75, 127
4, 136794, Note_on_c, 3, 75, 0
4, 136800, Note_on_c, 3, 75, 127
4, 136848, Note_on_c, 3, 75, 0
4, 137400, Note_on_c, 3, 75, 120
4, 137472, Note_on_c, 3, 75, 0
4, 137490, Note_on_c, 3, 75, 127
4, 137514, Note_on_c, 3, 75, 0
4, 137520, Note_on_c, 3, 75, 127
4, 137568, Note_on_c, 3, 75, 0
4, 138120, Note_on_c, 3, 68, 115
4, 138192, Note_on_c, 3, 68, 0
4, 138210, Note_on_c, 3, 68, 126
4, 138234, Note_on_c, 3, 68, 0
4, 138240, Note_on_c, 3, 68, 123
4, 138288, Note_on_c, 3, 68, 0
4, 138300, Note_on_c, 3, 70, 121
4, 138300, Note_on_c, 3, 67, 127
4, 138396, Note_on_c, 3, 67, 0
4, 138396, Note_on_c, 3, 70, 0
4, 138660, Note_on_c, 3, 68, 97
4, 138660, Note_on_c, 3, 70, 118
4, 138756, Note_on_c, 3, 70, 0
4, 138756, Note_on_c, 3, 68, 0
4, 140580, Note_on_c, 3, 70, 127
4, 140628, Note_on_c, 3, 70, 0
4, 140640, Note_on_c, 3, 70, 127
4, 140712, Note_on_c, 3, 70, 0
4, 140730, Note_on_c, 3, 74, 123
4, 140754, Note_on_c, 3, 74, 0
4, 140760, Note_on_c, 3, 75, 127
4, 140808, Note_on_c, 3, 75, 0
4, 140820, Note_on_c, 3, 77, 127
4, 140868, Note_on_c, 3, 77, 0
4, 140940, Note_on_c, 3, 74, 114
4, 140988, Note_on_c, 3, 74, 0
4, 141000, Note_on_c, 3, 74, 127
4, 141072, Note_on_c, 3, 74, 0
4, 141090, Note_on_c, 3, 75, 127
4, 141114, Note_on_c, 3, 75, 0
4, 141120, Note_on_c, 3, 77, 127
4, 141168, Note_on_c, 3, 77, 0
4, 141180, Note_on_c, 3, 79, 123
4, 141276, Note_on_c, 3, 79, 0
4, 141360, Note_on_c, 3, 75, 127
4, 141456, Note_on_c, 3, 75, 0
4, 141540, Note_on_c, 3, 75, 127
4, 141636, Note_on_c, 3, 75, 0
4, 141720, Note_on_c, 3, 75, 127
4, 141816, Note_on_c, 3, 75, 0
4, 141900, Note_on_c, 3, 75, 127
4, 141996, Note_on_c, 3, 75, 0
4, 142080, Note_on_c, 3, 75, 127
4, 142176, Note_on_c, 3, 75, 0
4, 142260, Note_on_c, 3, 75, 127
4, 142356, Note_on_c, 3, 75, 0
4, 142440, Note_on_c, 3, 75, 127
4, 142536, Note_on_c, 3, 75, 0
4, 142620, Note_on_c, 3, 75, 127
4, 142716, Note_on_c, 3, 75, 0
4, 142800, Note_on_c, 3, 75, 127
4, 142896, Note_on_c, 3, 75, 0
4, 142980, Note_on_c, 3, 75, 127
4, 143076, Note_on_c, 3, 75, 0
4, 143280, Note_on_c, 3, 74, 112
4, 143328, Note_on_c, 3, 74, 0
4, 143340, Note_on_c, 3, 75, 127
4, 143340, Note_on_c, 3, 67, 123
4, 143436, Note_on_c, 3, 67, 0
4, 143436, Note_on_c, 3, 75, 0
4, 143700, Note_on_c, 3, 75, 127
4, 143844, Note_on_c, 3, 75, 0
4, 143880, Note_on_c, 3, 84, 109
4, 143880, Note_on_c, 3, 72, 107
4, 144024, Note_on_c, 3, 72, 0
4, 144024, Note_on_c, 3, 84, 0
4, 144060, Note_on_c, 3, 82, 112
4, 144060, Note_on_c, 3, 70, 114
4, 144156, Note_on_c, 3, 70, 0
4, 144156, Note_on_c, 3, 82, 0
4, 144420, Note_on_c, 3, 68, 107
4, 144420, Note_on_c, 3, 65, 127
4, 144564, Note_on_c, 3, 65, 0
4, 144564, Note_on_c, 3, 68, 0
4, 144600, Note_on_c, 3, 65, 127
4, 144600, Note_on_c, 3, 62, 114
4, 144744, Note_on_c, 3, 62, 0
4, 144744, Note_on_c, 3, 65, 0
4, 144780, Note_on_c, 3, 63, 127
4, 144780, Note_on_c, 3, 67, 127
4, 144876, Note_on_c, 3, 67, 0
4, 144876, Note_on_c, 3, 63, 0
4, 153060, Note_on_c, 3, 70, 127
4, 153060, Note_on_c, 3, 67, 125
4, 153108, Note_on_c, 3, 67, 0
4, 153108, Note_on_c, 3, 70, 0
4, 153120, Note_on_c, 3, 75, 127
4, 153120, Note_on_c, 3, 67, 116
4, 153168, Note_on_c, 3, 67, 0
4, 153168, Note_on_c, 3, 75, 0
4, 153180, Note_on_c, 3, 75, 121
4, 153180, Note_on_c, 3, 67, 109
4, 153228, Note_on_c, 3, 67, 0
4, 153228, Note_on_c, 3, 75, 0
4, 153240, Note_on_c, 3, 75, 127
4, 153240, Note_on_c, 3, 67, 121
4, 153288, Note_on_c, 3, 67, 0
4, 153288, Note_on_c, 3, 75, 0
4, 153360, Note_on_c, 3, 75, 127
4, 153360, Note_on_c, 3, 67, 117
4, 153408, Note_on_c, 3, 67, 0
4, 153408, Note_on_c, 3, 75, 0
4, 153420, Note_on_c, 3, 75, 127
4, 153420, Note_on_c, 3, 67, 125
4, 153468, Note_on_c, 3, 67, 0
4, 153468, Note_on_c, 3, 75, 0
4, 153480, Note_on_c, 3, 75, 127
4, 153480, Note_on_c, 3, 67, 123
4, 153696, Note_on_c, 3, 67, 0
4, 153696, Note_on_c, 3, 75, 0
4, 153720, Note_on_c, 3, 70, 127
4, 153720, Note_on_c, 3, 67, 117
4, 153768, Note_on_c, 3, 67, 0
4, 153768, Note_on_c, 3, 70, 0
4, 153780, Note_on_c, 3, 74, 120
4, 153780, Note_on_c, 3, 65, 111
4, 153828, Note_on_c, 3, 65, 0
4, 153828, Note_on_c, 3, 74, 0
4, 153840, Note_on_c, 3, 74, 118
4, 153840, Note_on_c, 3, 65, 113
4, 154056, Note_on_c, 3, 65, 0
4, 154056, Note_on_c, 3, 74, 0
4, 154080, Note_on_c, 3, 70, 108
4, 154080, Note_on_c, 3, 58, 111
4, 154128, Note_on_c, 3, 58, 0
4, 154128, Note_on_c, 3, 70, 0
4, 154140, Note_on_c, 3, 67, 109
4, 154140, Note_on_c, 3, 75, 127
4, 154188, Note_on_c, 3, 75, 0
4, 154188, Note_on_c, 3, 67, 0
4, 154200, Note_on_c, 3, 75, 127
4, 154200, Note_on_c, 3, 67, 110
4, 154296, Note_on_c, 3, 67, 0
4, 154296, Note_on_c, 3, 75, 0
4, 154320, Note_on_c, 3, 75, 127
4, 154320, Note_on_c, 3, 67, 114
4, 154368, Note_on_c, 3, 67, 0
4, 154368, Note_on_c, 3, 75, 0
4, 154380, Note_on_c, 3, 75, 127
4, 154380, Note_on_c, 3, 67, 116
4, 154476, Note_on_c, 3, 67, 0
4, 154476, Note_on_c, 3, 75, 0
4, 154500, Note_on_c, 3, 67, 112
4, 154500, Note_on_c, 3, 75, 108
4, 154548, Note_on_c, 3, 75, 0
4, 154548, Note_on_c, 3, 67, 0
4, 154560, Note_on_c, 3, 75, 120
4, 154560, Note_on_c, 3, 67, 107
4, 154656, Note_on_c, 3, 67, 0
4, 154656, Note_on_c, 3, 75, 0
4, 154680, Note_on_c, 3, 75, 127
4, 154680, Note_on_c, 3, 67, 113
4, 154728, Note_on_c, 3, 67, 0
4, 154728, Note_on_c, 3, 75, 0
4, 154740, Note_on_c, 3, 75, 127
4, 154740, Note_on_c, 3, 67, 116
4, 154836, Note_on_c, 3, 67, 0
4, 154836, Note_on_c, 3, 75, 0
4, 154860, Note_on_c, 3, 75, 118
4, 154860, Note_on_c, 3, 67, 105
4, 154956, Note_on_c, 3, 67, 0
4, 154956, Note_on_c, 3, 75, 0
4, 155040, Note_on_c, 3, 75, 127
4, 155040, Note_on_c, 3, 67, 127
4, 155136, Note_on_c, 3, 67, 0
4, 155136, Note_on_c, 3, 75, 0
4, 155220, Note_on_c, 3, 63, 127
4, 155316, Note_on_c, 3, 63, 0
4, 155316, End_track
5, 0, Start_track
5, 0, MIDI_port, 0
5, 0, Title_t, "Bassoon"
5, 0, Program_c, 4, 70
5, 0, Control_c, 4, 7, 100
5, 0, Control_c, 4, 10, 30
5, 0, Control_c, 4, 93, 0
5, 0, Control_c, 4, 91, 0
5, 5700, Note_on_c, 4, 58, 126
5, 5700, Note_on_c, 4, 46, 111
5, 5748, Note_on_c, 4, 46, 0
5, 5748, Note_on_c, 4, 58, 0
5, 5760, Note_on_c, 4, 58, 113
5, 5760, Note_on_c, 4, 46, 113
5, 5808, Note_on_c, 4, 46, 0
5, 5808, Note_on_c, 4, 58, 0
5, 5820, Note_on_c, 4, 63, 86
5, 5820, Note_on_c, 4, 51, 99
5, 5868, Note_on_c, 4, 51, 0
5, 5868, Note_on_c, 4, 63, 0
5, 5880, Note_on_c, 4, 63, 127
5, 5880, Note_on_c, 4, 51, 118
5, 5928, Note_on_c, 4, 51, 0
5, 5928, Note_on_c, 4, 63, 0
5, 5940, Note_on_c, 4, 67, 109
5, 5940, Note_on_c, 4, 55, 103
5, 5988, Note_on_c, 4, 55, 0
5, 5988, Note_on_c, 4, 67, 0
5, 6060, Note_on_c, 4, 51, 109
5, 6060, Note_on_c, 4, 55, 127
5, 6084, Note_on_c, 4, 55, 0
5, 6084, Note_on_c, 4, 51, 0
5, 6090, Note_on_c, 4, 55, 127
5, 6090, Note_on_c, 4, 58, 121
5, 6114, Note_on_c, 4, 58, 0
5, 6114, Note_on_c, 4, 55, 0
5, 6120, Note_on_c, 4, 55, 127
5, 6120, Note_on_c, 4, 58, 121
5, 6144, Note_on_c, 4, 58, 0
5, 6150, Note_on_c, 4, 63, 101
5, 6168, Note_on_c, 4, 55, 0
5, 6174, Note_on_c, 4, 63, 0
5, 6180, Note_on_c, 4, 55, 127
5, 6180, Note_on_c, 4, 63, 115
5, 6396, Note_on_c, 4, 63, 0
5, 6396, Note_on_c, 4, 55, 0
5, 6420, Note_on_c, 4, 51, 118
5, 6420, Note_on_c, 4, 63, 113
5, 6444, Note_on_c, 4, 63, 0
5, 6450, Note_on_c, 4, 67, 127
5, 6468, Note_on_c, 4, 51, 0
5, 6474, Note_on_c, 4, 67, 0
5, 6480, Note_on_c, 4, 50, 123
5, 6480, Note_on_c, 4, 65, 120
5, 6528, Note_on_c, 4, 65, 0
5, 6528, Note_on_c, 4, 50, 0
5, 6600, Note_on_c, 4, 46, 118
5, 6600, Note_on_c, 4, 62, 127
5, 6624, Note_on_c, 4, 62, 0
5, 6630, Note_on_c, 4, 65, 127
5, 6648, Note_on_c, 4, 46, 0
5, 6654, Note_on_c, 4, 65, 0
5, 6660, Note_on_c, 4, 51, 115
5, 6660, Note_on_c, 4, 63, 115
5, 6708, Note_on_c, 4, 63, 0
5, 6708, Note_on_c, 4, 51, 0
5, 6780, Note_on_c, 4, 55, 127
5, 6780, Note_on_c, 4, 58, 115
5, 6828, Note_on_c, 4, 58, 0
5, 6828, Note_on_c, 4, 55, 0
5, 6840, Note_on_c, 4, 58, 123
5, 6840, Note_on_c, 4, 58, 115
5, 6852, Note_on_c, 4, 58, 0
5, 6855, Note_on_c, 4, 60, 127
5, 6867, Note_on_c, 4, 60, 0
5, 6870, Note_on_c, 4, 58, 105
5, 6882, Note_on_c, 4, 58, 0
5, 6885, Note_on_c, 4, 60, 123
5, 6888, Note_on_c, 4, 58, 0
5, 6897, Note_on_c, 4, 60, 0
5, 6900, Note_on_c, 4, 46, 118
5, 6900, Note_on_c, 4, 58, 111
5, 6912, Note_on_c, 4, 58, 0
5, 6915, Note_on_c, 4, 60, 125
5, 6927, Note_on_c, 4, 60, 0
5, 6930, Note_on_c, 4, 58, 111
5, 6942, Note_on_c, 4, 58, 0
5, 6945, Note_on_c, 4, 60, 127
5, 6948, Note_on_c, 4, 46, 0
5, 6957, Note_on_c, 4, 60, 0
5, 6960, Note_on_c, 4, 46, 126
5, 6960, Note_on_c, 4, 58, 109
5, 6984, Note_on_c, 4, 58, 0
5, 6990, Note_on_c, 4, 57, 121
5, 7008, Note_on_c, 4, 46, 0
5, 7014, Note_on_c, 4, 57, 0
5, 7020, Note_on_c, 4, 46, 111
5, 7020, Note_on_c, 4, 58, 115
5, 7068, Note_on_c, 4, 58, 0
5, 7068, Note_on_c, 4, 46, 0
5, 7140, Note_on_c, 4, 58, 111
5, 7140, Note_on_c, 4, 46, 92
5, 7188, Note_on_c, 4, 46, 0
5, 7188, Note_on_c, 4, 58, 0
5, 7200, Note_on_c, 4, 58, 127
5, 7200, Note_on_c, 4, 46, 113
5, 7248, Note_on_c, 4, 46, 0
5, 7248, Note_on_c, 4, 58, 0
5, 7260, Note_on_c, 4, 63, 107
5, 7260, Note_on_c, 4, 51, 101
5, 7308, Note_on_c, 4, 51, 0
5, 7308, Note_on_c, 4, 63, 0
5, 7320, Note_on_c, 4, 63, 123
5, 7320, Note_on_c, 4, 51, 115
5, 7368, Note_on_c, 4, 51, 0
5, 7368, Note_on_c, 4, 63, 0
5, 7380, Note_on_c, 4, 67, 109
5, 7380, Note_on_c, 4, 55, 105
5, 7428, Note_on_c, 4, 55, 0
5, 7428, Note_on_c, 4, 67, 0
5, 7500, Note_on_c, 4, 51, 100
5, 7500, Note_on_c, 4, 55, 123
5, 7524, Note_on_c, 4, 55, 0
5, 7524, Note_on_c, 4, 51, 0
5, 7530, Note_on_c, 4, 55, 127
5, 7530, Note_on_c, 4, 58, 109
5, 7554, Note_on_c, 4, 58, 0
5, 7554, Note_on_c, 4, 55, 0
5, 7560, Note_on_c, 4, 55, 127
5, 7560, Note_on_c, 4, 58, 113
5, 7584, Note_on_c, 4, 58, 0
5, 7590, Note_on_c, 4, 63, 115
5, 7608, Note_on_c, 4, 55, 0
5, 7620, Note_on_c, 4, 55, 127
5, 7836, Note_on_c, 4, 55, 0
5, 7836, Note_on_c, 4, 63, 0
5, 7860, Note_on_c, 4, 51, 118
5, 7860, Note_on_c, 4, 63, 118
5, 7884, Note_on_c, 4, 63, 0
5, 7890, Note_on_c, 4, 67, 114
5, 7908, Note_on_c, 4, 51, 0
5, 7914, Note_on_c, 4, 67, 0
5, 7920, Note_on_c, 4, 50, 127
5, 7920, Note_on_c, 4, 65, 127
5, 7968, Note_on_c, 4, 65, 0
5, 7968, Note_on_c, 4, 50, 0
5, 8040, Note_on_c, 4, 46, 111
5, 8040, Note_on_c, 4, 62, 127
5, 8064, Note_on_c, 4, 62, 0
5, 8070, Note_on_c, 4, 65, 127
5, 8088, Note_on_c, 4, 46, 0
5, 8094, Note_on_c, 4, 65, 0
5, 8100, Note_on_c, 4, 51, 127
5, 8100, Note_on_c, 4, 63, 115
5, 8148, Note_on_c, 4, 63, 0
5, 8148, Note_on_c, 4, 51, 0
5, 8220, Note_on_c, 4, 55, 125
5, 8220, Note_on_c, 4, 58, 95
5, 8220, Note_on_c, 4, 55, 127
5, 8268, Note_on_c, 4, 55, 0
5, 8268, Note_on_c, 4, 58, 0
5, 8268, Note_on_c, 4, 55, 0
5, 8280, Note_on_c, 4, 58, 126
5, 8280, Note_on_c, 4, 58, 113
5, 8292, Note_on_c, 4, 58, 0
5, 8295, Note_on_c, 4, 60, 127
5, 8307, Note_on_c, 4, 60, 0
5, 8310, Note_on_c, 4, 58, 103
5, 8322, Note_on_c, 4, 58, 0
5, 8325, Note_on_c, 4, 60, 125
5, 8328, Note_on_c, 4, 58, 0
5, 8337, Note_on_c, 4, 60, 0
5, 8340, Note_on_c, 4, 46, 111
5, 8340, Note_on_c, 4, 58, 111
5, 8352, Note_on_c, 4, 58, 0
5, 8355, Note_on_c, 4, 60, 118
5, 8367, Note_on_c, 4, 60, 0
5, 8370, Note_on_c, 4, 58, 109
5, 8382, Note_on_c, 4, 58, 0
5, 8385, Note_on_c, 4, 60, 123
5, 8388, Note_on_c, 4, 46, 0
5, 8397, Note_on_c, 4, 60, 0
5, 8400, Note_on_c, 4, 46, 121
5, 8400, Note_on_c, 4, 58, 109
5, 8424, Note_on_c, 4, 58, 0
5, 8430, Note_on_c, 4, 57, 123
5, 8448, Note_on_c, 4, 46, 0
5, 8454, Note_on_c, 4, 57, 0
5, 8460, Note_on_c, 4, 46, 107
5, 8460, Note_on_c, 4, 58, 121
5, 8508, Note_on_c, 4, 58, 0
5, 8508, Note_on_c, 4, 46, 0
5, 8520, Note_on_c, 4, 46, 107
5, 8568, Note_on_c, 4, 46, 0
5, 8580, Note_on_c, 4, 46, 113
5, 8628, Note_on_c, 4, 46, 0
5, 8640, Note_on_c, 4, 46, 113
5, 8736, Note_on_c, 4, 46, 0
5, 8820, Note_on_c, 4, 46, 113
5, 8916, Note_on_c, 4, 46, 0
5, 8940, Note_on_c, 4, 66, 126
5, 8964, Note_on_c, 4, 66, 0
5, 8970, Note_on_c, 4, 65, 127
5, 8994, Note_on_c, 4, 65, 0
5, 9000, Note_on_c, 4, 46, 111
5, 9000, Note_on_c, 4, 65, 127
5, 9048, Note_on_c, 4, 65, 0
5, 9096, Note_on_c, 4, 46, 0
5, 9120, Note_on_c, 4, 64, 127
5, 9144, Note_on_c, 4, 64, 0
5, 9150, Note_on_c, 4, 63, 115
5, 9174, Note_on_c, 4, 63, 0
5, 9180, Note_on_c, 4, 46, 109
5, 9180, Note_on_c, 4, 63, 113
5, 9228, Note_on_c, 4, 63, 0
5, 9276, Note_on_c, 4, 46, 0
5, 9300, Note_on_c, 4, 63, 113
5, 9324, Note_on_c, 4, 63, 0
5, 9330, Note_on_c, 4, 62, 116
5, 9354, Note_on_c, 4, 62, 0
5, 9360, Note_on_c, 4, 46, 118
5, 9360, Note_on_c, 4, 62, 127
5, 9456, Note_on_c, 4, 62, 0
5, 9456, Note_on_c, 4, 46, 0
5, 9480, Note_on_c, 4, 62, 121
5, 9480, Note_on_c, 4, 46, 118
5, 9528, Note_on_c, 4, 46, 0
5, 9528, Note_on_c, 4, 62, 0
5, 9540, Note_on_c, 4, 46, 118
5, 9540, Note_on_c, 4, 62, 125
5, 9612, Note_on_c, 4, 62, 0
5, 9612, Note_on_c, 4, 46, 0
5, 9630, Note_on_c, 4, 46, 111
5, 9630, Note_on_c, 4, 63, 111
5, 9654, Note_on_c, 4, 63, 0
5, 9654, Note_on_c, 4, 46, 0
5, 9660, Note_on_c, 4, 65, 127
5, 9660, Note_on_c, 4, 46, 118
5, 9708, Note_on_c, 4, 46, 0
5, 9708, Note_on_c, 4, 65, 0
5, 9720, Note_on_c, 4, 65, 127
5, 9720, Note_on_c, 4, 51, 123
5, 9768, Note_on_c, 4, 65, 0
5, 9780, Note_on_c, 4, 67, 127
5, 9816, Note_on_c, 4, 51, 0
5, 9828, Note_on_c, 4, 67, 0
5, 9840, Note_on_c, 4, 63, 90
5, 9840, Note_on_c, 4, 51, 127
5, 9888, Note_on_c, 4, 51, 0
5, 9888, Note_on_c, 4, 63, 0
5, 9900, Note_on_c, 4, 63, 127
5, 9900, Note_on_c, 4, 51, 111
5, 9996, Note_on_c, 4, 51, 0
5, 9996, Note_on_c, 4, 63, 0
5, 10020, Note_on_c, 4, 46, 86
5, 10020, Note_on_c, 4, 63, 109
5, 10044, Note_on_c, 4, 63, 0
5, 10050, Note_on_c, 4, 62, 127
5, 10068, Note_on_c, 4, 46, 0
5, 10074, Note_on_c, 4, 62, 0
5, 10080, Note_on_c, 4, 46, 109
5, 10080, Note_on_c, 4, 62, 127
5, 10176, Note_on_c, 4, 62, 0
5, 10176, Note_on_c, 4, 46, 0
5, 10200, Note_on_c, 4, 46, 115
5, 10200, Note_on_c, 4, 62, 127
5, 10248, Note_on_c, 4, 62, 0
5, 10248, Note_on_c, 4, 46, 0
5, 10260, Note_on_c, 4, 46, 113
5, 10260, Note_on_c, 4, 62, 127
5, 10332, Note_on_c, 4, 62, 0
5, 10332, Note_on_c, 4, 46, 0
5, 10350, Note_on_c, 4, 46, 118
5, 10350, Note_on_c, 4, 63, 115
5, 10374, Note_on_c, 4, 63, 0
5, 10374, Note_on_c, 4, 46, 0
5, 10380, Note_on_c, 4, 46, 115
5, 10380, Note_on_c, 4, 65, 127
5, 10428, Note_on_c, 4, 65, 0
5, 10428, Note_on_c, 4, 46, 0
5, 10440, Note_on_c, 4, 51, 123
5, 10440, Note_on_c, 4, 65, 127
5, 10464, Note_on_c, 4, 65, 0
5, 10470, Note_on_c, 4, 67, 127
5, 10494, Note_on_c, 4, 67, 0
5, 10560, Note_on_c, 4, 51, 123
5, 10608, Note_on_c, 4, 51, 0
5, 10620, Note_on_c, 4, 51, 123
5, 10692, Note_on_c, 4, 51, 0
5, 10710, Note_on_c, 4, 53, 118
5, 10716, Note_on_c, 4, 51, 0
5, 10734, Note_on_c, 4, 53, 0
5, 10740, Note_on_c, 4, 39, 118
5, 10740, Note_on_c, 4, 55, 114
5, 10788, Note_on_c, 4, 55, 0
5, 10788, Note_on_c, 4, 39, 0
5, 10800, Note_on_c, 4, 53, 127
5, 10800, Note_on_c, 4, 55, 127
5, 10824, Note_on_c, 4, 55, 0
5, 10830, Note_on_c, 4, 56, 109
5, 10854, Note_on_c, 4, 56, 0
5, 10920, Note_on_c, 4, 53, 121
5, 10968, Note_on_c, 4, 53, 0
5, 10980, Note_on_c, 4, 53, 127
5, 11052, Note_on_c, 4, 53, 0
5, 11070, Note_on_c, 4, 55, 127
5, 11076, Note_on_c, 4, 53, 0
5, 11094, Note_on_c, 4, 55, 0
5, 11100, Note_on_c, 4, 41, 123
5, 11100, Note_on_c, 4, 56, 120
5, 11148, Note_on_c, 4, 56, 0
5, 11148, Note_on_c, 4, 41, 0
5, 11160, Note_on_c, 4, 55, 127
5, 11160, Note_on_c, 4, 56, 111
5, 11184, Note_on_c, 4, 56, 0
5, 11190, Note_on_c, 4, 58, 113
5, 11214, Note_on_c, 4, 58, 0
5, 11280, Note_on_c, 4, 55, 112
5, 11328, Note_on_c, 4, 55, 0
5, 11340, Note_on_c, 4, 55, 125
5, 11412, Note_on_c, 4, 55, 0
5, 11430, Note_on_c, 4, 56, 115
5, 11436, Note_on_c, 4, 55, 0
5, 11454, Note_on_c, 4, 56, 0
5, 11460, Note_on_c, 4, 43, 127
5, 11460, Note_on_c, 4, 58, 111
5, 11508, Note_on_c, 4, 58, 0
5, 11508, Note_on_c, 4, 43, 0
5, 11520, Note_on_c, 4, 44, 123
5, 11520, Note_on_c, 4, 60, 127
5, 11592, Note_on_c, 4, 60, 0
5, 11592, Note_on_c, 4, 44, 0
5, 11610, Note_on_c, 4, 56, 107
5, 11610, Note_on_c, 4, 58, 113
5, 11634, Note_on_c, 4, 58, 0
5, 11634, Note_on_c, 4, 56, 0
5, 11640, Note_on_c, 4, 56, 118
5, 11640, Note_on_c, 4, 56, 117
5, 11688, Note_on_c, 4, 56, 0
5, 11688, Note_on_c, 4, 56, 0
5, 11700, Note_on_c, 4, 68, 105
5, 11700, Note_on_c, 4, 56, 93
5, 11772, Note_on_c, 4, 56, 0
5, 11772, Note_on_c, 4, 68, 0
5, 11790, Note_on_c, 4, 65, 125
5, 11790, Note_on_c, 4, 56, 97
5, 11814, Note_on_c, 4, 56, 0
5, 11814, Note_on_c, 4, 65, 0
5, 11820, Note_on_c, 4, 63, 113
5, 11820, Note_on_c, 4, 55, 121
5, 11868, Note_on_c, 4, 55, 0
5, 11868, Note_on_c, 4, 63, 0
5, 11880, Note_on_c, 4, 58, 118
5, 11880, Note_on_c, 4, 62, 125
5, 11952, Note_on_c, 4, 62, 0
5, 11952, Note_on_c, 4, 58, 0
5, 11970, Note_on_c, 4, 60, 127
5, 11970, Note_on_c, 4, 57, 121
5, 11994, Note_on_c, 4, 57, 0
5, 11994, Note_on_c, 4, 60, 0
5, 12000, Note_on_c, 4, 58, 127
5, 12000, Note_on_c, 4, 56, 99
5, 12048, Note_on_c, 4, 56, 0
5, 12048, Note_on_c, 4, 58, 0
5, 12060, Note_on_c, 4, 51, 109
5, 12060, Note_on_c, 4, 55, 127
5, 12132, Note_on_c, 4, 55, 0
5, 12132, Note_on_c, 4, 51, 0
5, 12150, Note_on_c, 4, 56, 105
5, 12150, Note_on_c, 4, 53, 121
5, 12174, Note_on_c, 4, 53, 0
5, 12174, Note_on_c, 4, 56, 0
5, 12180, Note_on_c, 4, 55, 123
5, 12180, Note_on_c, 4, 58, 100
5, 12228, Note_on_c, 4, 58, 0
5, 12228, Note_on_c, 4, 55, 0
5, 12240, Note_on_c, 4, 56, 109
5, 12240, Note_on_c, 4, 60, 127
5, 12336, Note_on_c, 4, 60, 0
5, 12336, Note_on_c, 4, 56, 0
5, 12420, Note_on_c, 4, 58, 101
5, 12420, Note_on_c, 4, 46, 99
5, 12516, Note_on_c, 4, 46, 0
5, 12516, Note_on_c, 4, 58, 0
5, 12600, Note_on_c, 4, 51, 126
5, 12600, Note_on_c, 4, 39, 111
5, 12696, Note_on_c, 4, 39, 0
5, 12696, Note_on_c, 4, 51, 0
5, 12960, Note_on_c, 4, 63, 109
5, 12960, Note_on_c, 4, 60, 127
5, 13104, Note_on_c, 4, 60, 0
5, 13104, Note_on_c, 4, 63, 0
5, 13140, Note_on_c, 4, 60, 127
5, 13140, Note_on_c, 4, 56, 113
5, 13284, Note_on_c, 4, 56, 0
5, 13284, Note_on_c, 4, 60, 0
5, 13320, Note_on_c, 4, 55, 127
5, 13320, Note_on_c, 4, 58, 118
5, 13416, Note_on_c, 4, 58, 0
5, 13416, Note_on_c, 4, 55, 0
5, 13680, Note_on_c, 4, 56, 113
5, 13680, Note_on_c, 4, 53, 127
5, 13824, Note_on_c, 4, 53, 0
5, 13824, Note_on_c, 4, 56, 0
5, 13860, Note_on_c, 4, 46, 109
5, 13860, Note_on_c, 4, 53, 127
5, 14004, Note_on_c, 4, 53, 0
5, 14004, Note_on_c, 4, 46, 0
5, 14040, Note_on_c, 4, 51, 101
5, 14040, Note_on_c, 4, 55, 121
5, 14136, Note_on_c, 4, 55, 0
5, 14136, Note_on_c, 4, 51, 0
5, 14400, Note_on_c, 4, 51, 113
5, 14400, Note_on_c, 4, 55, 127
5, 14496, Note_on_c, 4, 55, 0
5, 14496, Note_on_c, 4, 51, 0
5, 14760, Note_on_c, 4, 51, 100
5, 14856, Note_on_c, 4, 51, 0
5, 20160, Note_on_c, 4, 65, 111
5, 20664, Note_on_c, 4, 65, 0
5, 20700, Note_on_c, 4, 63, 127
5, 20748, Note_on_c, 4, 63, 0
5, 20760, Note_on_c, 4, 62, 121
5, 20808, Note_on_c, 4, 62, 0
5, 20820, Note_on_c, 4, 60, 125
5, 20868, Note_on_c, 4, 60, 0
5, 20880, Note_on_c, 4, 58, 127
5, 20928, Note_on_c, 4, 58, 0
5, 20940, Note_on_c, 4, 57, 127
5, 20988, Note_on_c, 4, 57, 0
5, 21000, Note_on_c, 4, 55, 103
5, 21048, Note_on_c, 4, 55, 0
5, 21060, Note_on_c, 4, 53, 127
5, 21156, Note_on_c, 4, 53, 0
5, 21180, Note_on_c, 4, 53, 125
5, 21228, Note_on_c, 4, 53, 0
5, 21420, Note_on_c, 4, 65, 127
5, 21468, Note_on_c, 4, 65, 0
5, 21480, Note_on_c, 4, 63, 113
5, 21528, Note_on_c, 4, 63, 0
5, 21540, Note_on_c, 4, 62, 125
5, 21588, Note_on_c, 4, 62, 0
5, 21600, Note_on_c, 4, 60, 105
5, 21659, Note_on_c, 4, 60, 0
5, 21660, Note_on_c, 4, 59, 108
5, 21708, Note_on_c, 4, 59, 0
5, 21720, Note_on_c, 4, 56, 84
5, 21768, Note_on_c, 4, 56, 0
5, 21780, Note_on_c, 4, 55, 125
5, 21876, Note_on_c, 4, 55, 0
5, 21900, Note_on_c, 4, 55, 127
5, 21948, Note_on_c, 4, 55, 0
5, 21960, Note_on_c, 4, 55, 102
5, 21960, Note_on_c, 4, 51, 118
5, 22056, Note_on_c, 4, 51, 0
5, 22056, Note_on_c, 4, 55, 0
5, 22140, Note_on_c, 4, 67, 127
5, 22188, Note_on_c, 4, 67, 0
5, 22200, Note_on_c, 4, 65, 127
5, 22200, Note_on_c, 4, 56, 127
5, 22248, Note_on_c, 4, 56, 0
5, 22248, Note_on_c, 4, 65, 0
5, 22260, Note_on_c, 4, 63, 115
5, 22260, Note_on_c, 4, 55, 127
5, 22308, Note_on_c, 4, 55, 0
5, 22308, Note_on_c, 4, 63, 0
5, 22320, Note_on_c, 4, 62, 120
5, 22320, Note_on_c, 4, 53, 121
5, 22368, Note_on_c, 4, 53, 0
5, 22379, Note_on_c, 4, 62, 0
5, 22380, Note_on_c, 4, 60, 117
5, 22380, Note_on_c, 4, 51, 101
5, 22428, Note_on_c, 4, 51, 0
5, 22428, Note_on_c, 4, 60, 0
5, 22440, Note_on_c, 4, 59, 127
5, 22440, Note_on_c, 4, 50, 127
5, 22488, Note_on_c, 4, 50, 0
5, 22488, Note_on_c, 4, 59, 0
5, 22500, Note_on_c, 4, 60, 123
5, 22500, Note_on_c, 4, 48, 123
5, 22548, Note_on_c, 4, 48, 0
5, 22560, Note_on_c, 4, 46, 126
5, 22608, Note_on_c, 4, 46, 0
5, 22619, Note_on_c, 4, 60, 0
5, 22620, Note_on_c, 4, 62, 127
5, 22620, Note_on_c, 4, 45, 127
5, 22668, Note_on_c, 4, 45, 0
5, 22679, Note_on_c, 4, 62, 0
5, 22680, Note_on_c, 4, 63, 101
5, 22680, Note_on_c, 4, 43, 127
5, 22728, Note_on_c, 4, 43, 0
5, 22728, Note_on_c, 4, 63, 0
5, 22740, Note_on_c, 4, 55, 107
5, 22740, Note_on_c, 4, 41, 121
5, 22788, Note_on_c, 4, 41, 0
5, 22799, Note_on_c, 4, 55, 0
5, 22800, Note_on_c, 4, 56, 127
5, 22800, Note_on_c, 4, 53, 126
5, 22848, Note_on_c, 4, 53, 0
5, 22859, Note_on_c, 4, 56, 0
5, 22860, Note_on_c, 4, 58, 113
5, 22860, Note_on_c, 4, 53, 127
5, 22908, Note_on_c, 4, 53, 0
5, 22920, Note_on_c, 4, 53, 114
5, 22968, Note_on_c, 4, 53, 0
5, 22979, Note_on_c, 4, 58, 0
5, 22980, Note_on_c, 4, 60, 127
5, 22980, Note_on_c, 4, 53, 127
5, 23028, Note_on_c, 4, 53, 0
5, 23028, Note_on_c, 4, 60, 0
5, 23040, Note_on_c, 4, 60, 121
5, 23040, Note_on_c, 4, 53, 101
5, 23136, Note_on_c, 4, 53, 0
5, 23136, Note_on_c, 4, 60, 0
5, 23760, Note_on_c, 4, 59, 123
5, 23760, Note_on_c, 4, 62, 127
5, 23856, Note_on_c, 4, 62, 0
5, 23856, Note_on_c, 4, 59, 0
5, 44040, Note_on_c, 4, 60, 127
5, 44088, Note_on_c, 4, 60, 0
5, 44100, Note_on_c, 4, 60, 127
5, 44172, Note_on_c, 4, 60, 0
5, 44190, Note_on_c, 4, 62, 127
5, 44214, Note_on_c, 4, 62, 0
5, 44220, Note_on_c, 4, 64, 121
5, 44268, Note_on_c, 4, 64, 0
5, 44280, Note_on_c, 4, 65, 104
5, 44328, Note_on_c, 4, 65, 0
5, 44400, Note_on_c, 4, 62, 127
5, 44448, Note_on_c, 4, 62, 0
5, 44460, Note_on_c, 4, 62, 127
5, 44532, Note_on_c, 4, 62, 0
5, 44550, Note_on_c, 4, 64, 107
5, 44574, Note_on_c, 4, 64, 0
5, 44580, Note_on_c, 4, 65, 127
5, 44628, Note_on_c, 4, 65, 0
5, 44640, Note_on_c, 4, 67, 121
5, 44736, Note_on_c, 4, 67, 0
5, 55080, Note_on_c, 4, 48, 127
5, 55176, Note_on_c, 4, 48, 0
5, 55440, Note_on_c, 4, 60, 127
5, 55440, Note_on_c, 4, 57, 127
5, 55584, Note_on_c, 4, 57, 0
5, 55584, Note_on_c, 4, 60, 0
5, 55620, Note_on_c, 4, 57, 127
5, 55620, Note_on_c, 4, 53, 116
5, 55764, Note_on_c, 4, 53, 0
5, 55764, Note_on_c, 4, 57, 0
5, 55800, Note_on_c, 4, 67, 127
5, 55800, Note_on_c, 4, 55, 105
5, 55872, Note_on_c, 4, 55, 0
5, 55872, Note_on_c, 4, 67, 0
5, 55890, Note_on_c, 4, 67, 113
5, 55890, Note_on_c, 4, 55, 118
5, 55914, Note_on_c, 4, 55, 0
5, 55914, Note_on_c, 4, 67, 0
5, 55920, Note_on_c, 4, 67, 127
5, 55920, Note_on_c, 4, 55, 116
5, 55968, Note_on_c, 4, 55, 0
5, 55968, Note_on_c, 4, 67, 0
5, 55980, Note_on_c, 4, 67, 116
5, 55980, Note_on_c, 4, 55, 108
5, 56028, Note_on_c, 4, 55, 0
5, 56028, Note_on_c, 4, 67, 0
5, 56040, Note_on_c, 4, 67, 117
5, 56040, Note_on_c, 4, 55, 114
5, 56088, Note_on_c, 4, 55, 0
5, 56088, Note_on_c, 4, 67, 0
5, 56100, Note_on_c, 4, 67, 127
5, 56100, Note_on_c, 4, 55, 125
5, 56148, Note_on_c, 4, 55, 0
5, 56148, Note_on_c, 4, 67, 0
5, 56160, Note_on_c, 4, 67, 111
5, 56160, Note_on_c, 4, 55, 111
5, 56448, Note_on_c, 4, 55, 0
5, 56448, Note_on_c, 4, 67, 0
5, 56520, Note_on_c, 4, 60, 127
5, 56520, Note_on_c, 4, 48, 125
5, 56616, Note_on_c, 4, 48, 0
5, 56616, Note_on_c, 4, 60, 0
5, 56880, Note_on_c, 4, 60, 127
5, 56880, Note_on_c, 4, 48, 127
5, 56976, Note_on_c, 4, 48, 0
5, 56976, Note_on_c, 4, 60, 0
5, 64800, Note_on_c, 4, 44, 96
5, 64800, Note_on_c, 4, 56, 113
5, 64896, Note_on_c, 4, 56, 0
5, 64896, Note_on_c, 4, 44, 0
5, 65160, Note_on_c, 4, 56, 92
5, 65160, Note_on_c, 4, 53, 127
5, 65304, Note_on_c, 4, 53, 0
5, 65304, Note_on_c, 4, 56, 0
5, 65340, Note_on_c, 4, 49, 118
5, 65340, Note_on_c, 4, 65, 123
5, 65484, Note_on_c, 4, 65, 0
5, 65484, Note_on_c, 4, 49, 0
5, 65520, Note_on_c, 4, 48, 127
5, 65520, Note_on_c, 4, 63, 121
5, 65616, Note_on_c, 4, 63, 0
5, 65616, Note_on_c, 4, 48, 0
5, 65880, Note_on_c, 4, 61, 107
5, 65880, Note_on_c, 4, 58, 118
5, 66024, Note_on_c, 4, 58, 0
5, 66024, Note_on_c, 4, 61, 0
5, 66060, Note_on_c, 4, 58, 109
5, 66060, Note_on_c, 4, 55, 112
5, 66204, Note_on_c, 4, 55, 0
5, 66204, Note_on_c, 4, 58, 0
5, 66240, Note_on_c, 4, 56, 121
5, 66336, Note_on_c, 4, 56, 0
5, 66600, Note_on_c, 4, 44, 115
5, 66600, Note_on_c, 4, 56, 123
5, 66696, Note_on_c, 4, 56, 0
5, 66696, Note_on_c, 4, 44, 0
5, 66960, Note_on_c, 4, 59, 76
5, 67032, Note_on_c, 4, 59, 0
5, 67050, Note_on_c, 4, 59, 76
5, 67074, Note_on_c, 4, 59, 0
5, 67080, Note_on_c, 4, 59, 68
5, 67128, Note_on_c, 4, 59, 0
5, 67140, Note_on_c, 4, 59, 70
5, 67188, Note_on_c, 4, 59, 0
5, 67200, Note_on_c, 4, 59, 67
5, 67248, Note_on_c, 4, 59, 0
5, 67260, Note_on_c, 4, 59, 65
5, 67308, Note_on_c, 4, 59, 0
5, 67320, Note_on_c, 4, 59, 75
5, 67368, Note_on_c, 4, 59, 0
5, 67380, Note_on_c, 4, 59, 70
5, 67428, Note_on_c, 4, 59, 0
5, 67440, Note_on_c, 4, 59, 68
5, 67488, Note_on_c, 4, 59, 0
5, 67500, Note_on_c, 4, 59, 67
5, 67548, Note_on_c, 4, 59, 0
5, 67560, Note_on_c, 4, 59, 74
5, 67608, Note_on_c, 4, 59, 0
5, 67620, Note_on_c, 4, 59, 74
5, 67668, Note_on_c, 4, 59, 0
5, 67680, Note_on_c, 4, 59, 76
5, 69576, Note_on_c, 4, 59, 0
5, 74880, Note_on_c, 4, 64, 99
5, 74880, Note_on_c, 4, 52, 116
5, 74952, Note_on_c, 4, 52, 0
5, 74952, Note_on_c, 4, 64, 0
5, 74970, Note_on_c, 4, 64, 112
5, 74970, Note_on_c, 4, 52, 114
5, 74994, Note_on_c, 4, 52, 0
5, 74994, Note_on_c, 4, 64, 0
5, 75000, Note_on_c, 4, 64, 127
5, 75000, Note_on_c, 4, 52, 117
5, 75048, Note_on_c, 4, 52, 0
5, 75048, Note_on_c, 4, 64, 0
5, 75060, Note_on_c, 4, 64, 123
5, 75060, Note_on_c, 4, 52, 116
5, 75108, Note_on_c, 4, 52, 0
5, 75108, Note_on_c, 4, 64, 0
5, 75120, Note_on_c, 4, 64, 127
5, 75120, Note_on_c, 4, 52, 118
5, 75168, Note_on_c, 4, 52, 0
5, 75168, Note_on_c, 4, 64, 0
5, 75180, Note_on_c, 4, 64, 127
5, 75180, Note_on_c, 4, 52, 123
5, 75228, Note_on_c, 4, 52, 0
5, 75228, Note_on_c, 4, 64, 0
5, 75240, Note_on_c, 4, 64, 111
5, 75240, Note_on_c, 4, 52, 114
5, 75528, Note_on_c, 4, 52, 0
5, 75528, Note_on_c, 4, 64, 0
5, 75600, Note_on_c, 4, 59, 111
5, 75600, Note_on_c, 4, 47, 107
5, 75672, Note_on_c, 4, 47, 0
5, 75672, Note_on_c, 4, 59, 0
5, 75690, Note_on_c, 4, 59, 111
5, 75690, Note_on_c, 4, 47, 107
5, 75714, Note_on_c, 4, 47, 0
5, 75714, Note_on_c, 4, 59, 0
5, 75720, Note_on_c, 4, 59, 109
5, 75720, Note_on_c, 4, 47, 105
5, 75768, Note_on_c, 4, 47, 0
5, 75768, Note_on_c, 4, 59, 0
5, 75780, Note_on_c, 4, 59, 116
5, 75780, Note_on_c, 4, 47, 109
5, 75828, Note_on_c, 4, 47, 0
5, 75828, Note_on_c, 4, 59, 0
5, 75840, Note_on_c, 4, 59, 114
5, 75840, Note_on_c, 4, 47, 117
5, 75888, Note_on_c, 4, 47, 0
5, 75888, Note_on_c, 4, 59, 0
5, 75900, Note_on_c, 4, 59, 114
5, 75900, Note_on_c, 4, 47, 113
5, 75948, Note_on_c, 4, 47, 0
5, 75948, Note_on_c, 4, 59, 0
5, 75960, Note_on_c, 4, 59, 116
5, 75960, Note_on_c, 4, 47, 107
5, 76248, Note_on_c, 4, 47, 0
5, 76248, Note_on_c, 4, 59, 0
5, 94260, Note_on_c, 4, 46, 111
5, 94260, Note_on_c, 4, 58, 126
5, 94308, Note_on_c, 4, 58, 0
5, 94308, Note_on_c, 4, 46, 0
5, 94320, Note_on_c, 4, 46, 113
5, 94320, Note_on_c, 4, 58, 113
5, 94368, Note_on_c, 4, 58, 0
5, 94368, Note_on_c, 4, 46, 0
5, 94380, Note_on_c, 4, 51, 99
5, 94380, Note_on_c, 4, 63, 86
5, 94428, Note_on_c, 4, 63, 0
5, 94428, Note_on_c, 4, 51, 0
5, 94440, Note_on_c, 4, 51, 118
5, 94440, Note_on_c, 4, 63, 127
5, 94488, Note_on_c, 4, 63, 0
5, 94488, Note_on_c, 4, 51, 0
5, 94500, Note_on_c, 4, 55, 103
5, 94500, Note_on_c, 4, 67, 109
5, 94548, Note_on_c, 4, 67, 0
5, 94548, Note_on_c, 4, 55, 0
5, 94620, Note_on_c, 4, 55, 127
5, 94620, Note_on_c, 4, 51, 109
5, 94644, Note_on_c, 4, 51, 0
5, 94644, Note_on_c, 4, 55, 0
5, 94650, Note_on_c, 4, 58, 121
5, 94650, Note_on_c, 4, 55, 127
5, 94674, Note_on_c, 4, 55, 0
5, 94674, Note_on_c, 4, 58, 0
5, 94680, Note_on_c, 4, 58, 121
5, 94680, Note_on_c, 4, 55, 127
5, 94704, Note_on_c, 4, 58, 0
5, 94710, Note_on_c, 4, 63, 101
5, 94728, Note_on_c, 4, 55, 0
5, 94734, Note_on_c, 4, 63, 0
5, 94740, Note_on_c, 4, 63, 115
5, 94740, Note_on_c, 4, 55, 127
5, 94956, Note_on_c, 4, 55, 0
5, 94956, Note_on_c, 4, 63, 0
5, 94980, Note_on_c, 4, 63, 113
5, 94980, Note_on_c, 4, 51, 118
5, 95004, Note_on_c, 4, 63, 0
5, 95010, Note_on_c, 4, 67, 127
5, 95028, Note_on_c, 4, 51, 0
5, 95034, Note_on_c, 4, 67, 0
5, 95040, Note_on_c, 4, 65, 120
5, 95040, Note_on_c, 4, 50, 123
5, 95088, Note_on_c, 4, 50, 0
5, 95088, Note_on_c, 4, 65, 0
5, 95160, Note_on_c, 4, 62, 127
5, 95160, Note_on_c, 4, 46, 118
5, 95184, Note_on_c, 4, 62, 0
5, 95190, Note_on_c, 4, 65, 127
5, 95208, Note_on_c, 4, 46, 0
5, 95214, Note_on_c, 4, 65, 0
5, 95220, Note_on_c, 4, 63, 115
5, 95220, Note_on_c, 4, 51, 115
5, 95268, Note_on_c, 4, 51, 0
5, 95268, Note_on_c, 4, 63, 0
5, 95340, Note_on_c, 4, 58, 115
5, 95340, Note_on_c, 4, 55, 127
5, 95388, Note_on_c, 4, 55, 0
5, 95388, Note_on_c, 4, 58, 0
5, 95400, Note_on_c, 4, 58, 115
5, 95400, Note_on_c, 4, 58, 123
5, 95412, Note_on_c, 4, 58, 0
5, 95415, Note_on_c, 4, 60, 127
5, 95427, Note_on_c, 4, 60, 0
5, 95430, Note_on_c, 4, 58, 105
5, 95442, Note_on_c, 4, 58, 0
5, 95445, Note_on_c, 4, 60, 123
5, 95448, Note_on_c, 4, 58, 0
5, 95457, Note_on_c, 4, 60, 0
5, 95460, Note_on_c, 4, 58, 111
5, 95460, Note_on_c, 4, 46, 118
5, 95472, Note_on_c, 4, 58, 0
5, 95475, Note_on_c, 4, 60, 125
5, 95487, Note_on_c, 4, 60, 0
5, 95490, Note_on_c, 4, 58, 111
5, 95502, Note_on_c, 4, 58, 0
5, 95505, Note_on_c, 4, 60, 127
5, 95508, Note_on_c, 4, 46, 0
5, 95517, Note_on_c, 4, 60, 0
5, 95520, Note_on_c, 4, 58, 109
5, 95520, Note_on_c, 4, 46, 126
5, 95544, Note_on_c, 4, 58, 0
5, 95550, Note_on_c, 4, 57, 121
5, 95568, Note_on_c, 4, 46, 0
5, 95574, Note_on_c, 4, 57, 0
5, 95580, Note_on_c, 4, 58, 115
5, 95580, Note_on_c, 4, 46, 111
5, 95628, Note_on_c, 4, 46, 0
5, 95628, Note_on_c, 4, 58, 0
5, 95700, Note_on_c, 4, 46, 92
5, 95700, Note_on_c, 4, 58, 111
5, 95748, Note_on_c, 4, 58, 0
5, 95748, Note_on_c, 4, 46, 0
5, 95760, Note_on_c, 4, 46, 113
5, 95760, Note_on_c, 4, 58, 127
5, 95808, Note_on_c, 4, 58, 0
5, 95808, Note_on_c, 4, 46, 0
5, 95820, Note_on_c, 4, 51, 101
5, 95820, Note_on_c, 4, 63, 107
5, 95868, Note_on_c, 4, 63, 0
5, 95868, Note_on_c, 4, 51, 0
5, 95880, Note_on_c, 4, 51, 115
5, 95880, Note_on_c, 4, 63, 123
5, 95928, Note_on_c, 4, 63, 0
5, 95928, Note_on_c, 4, 51, 0
5, 95940, Note_on_c, 4, 55, 105
5, 95940, Note_on_c, 4, 67, 109
5, 95988, Note_on_c, 4, 67, 0
5, 95988, Note_on_c, 4, 55, 0
5, 96060, Note_on_c, 4, 55, 123
5, 96060, Note_on_c, 4, 51, 100
5, 96084, Note_on_c, 4, 51, 0
5, 96084, Note_on_c, 4, 55, 0
5, 96090, Note_on_c, 4, 58, 109
5, 96090, Note_on_c, 4, 55, 127
5, 96114, Note_on_c, 4, 55, 0
5, 96114, Note_on_c, 4, 58, 0
5, 96120, Note_on_c, 4, 58, 113
5, 96120, Note_on_c, 4, 55, 127
5, 96144, Note_on_c, 4, 58, 0
5, 96150, Note_on_c, 4, 63, 115
5, 96168, Note_on_c, 4, 55, 0
5, 96180, Note_on_c, 4, 55, 127
5, 96396, Note_on_c, 4, 55, 0
5, 96396, Note_on_c, 4, 63, 0
5, 96420, Note_on_c, 4, 63, 118
5, 96420, Note_on_c, 4, 51, 118
5, 96444, Note_on_c, 4, 63, 0
5, 96450, Note_on_c, 4, 67, 114
5, 96468, Note_on_c, 4, 51, 0
5, 96474, Note_on_c, 4, 67, 0
5, 96480, Note_on_c, 4, 65, 127
5, 96480, Note_on_c, 4, 50, 127
5, 96528, Note_on_c, 4, 50, 0
5, 96528, Note_on_c, 4, 65, 0
5, 96600, Note_on_c, 4, 62, 127
5, 96600, Note_on_c, 4, 46, 111
5, 96624, Note_on_c, 4, 62, 0
5, 96630, Note_on_c, 4, 65, 127
5, 96648, Note_on_c, 4, 46, 0
5, 96654, Note_on_c, 4, 65, 0
5, 96660, Note_on_c, 4, 63, 115
5, 96660, Note_on_c, 4, 51, 127
5, 96708, Note_on_c, 4, 51, 0
5, 96708, Note_on_c, 4, 63, 0
5, 96780, Note_on_c, 4, 55, 127
5, 96780, Note_on_c, 4, 58, 95
5, 96780, Note_on_c, 4, 55, 125
5, 96828, Note_on_c, 4, 55, 0
5, 96828, Note_on_c, 4, 58, 0
5, 96828, Note_on_c, 4, 55, 0
5, 96840, Note_on_c, 4, 58, 113
5, 96840, Note_on_c, 4, 58, 126
5, 96852, Note_on_c, 4, 58, 0
5, 96855, Note_on_c, 4, 60, 127
5, 96867, Note_on_c, 4, 60, 0
5, 96870, Note_on_c, 4, 58, 103
5, 96882, Note_on_c, 4, 58, 0
5, 96885, Note_on_c, 4, 60, 125
5, 96888, Note_on_c, 4, 58, 0
5, 96897, Note_on_c, 4, 60, 0
5, 96900, Note_on_c, 4, 58, 111
5, 96900, Note_on_c, 4, 46, 111
5, 96912, Note_on_c, 4, 58, 0
5, 96915, Note_on_c, 4, 60, 118
5, 96927, Note_on_c, 4, 60, 0
5, 96930, Note_on_c, 4, 58, 109
5, 96942, Note_on_c, 4, 58, 0
5, 96945, Note_on_c, 4, 60, 123
5, 96948, Note_on_c, 4, 46, 0
5, 96957, Note_on_c, 4, 60, 0
5, 96960, Note_on_c, 4, 58, 109
5, 96960, Note_on_c, 4, 46, 121
5, 96984, Note_on_c, 4, 58, 0
5, 96990, Note_on_c, 4, 57, 123
5, 97008, Note_on_c, 4, 46, 0
5, 97014, Note_on_c, 4, 57, 0
5, 97020, Note_on_c, 4, 58, 121
5, 97020, Note_on_c, 4, 46, 107
5, 97068, Note_on_c, 4, 46, 0
5, 97068, Note_on_c, 4, 58, 0
5, 97080, Note_on_c, 4, 46, 107
5, 97128, Note_on_c, 4, 46, 0
5, 97140, Note_on_c, 4, 46, 113
5, 97188, Note_on_c, 4, 46, 0
5, 97200, Note_on_c, 4, 46, 113
5, 97296, Note_on_c, 4, 46, 0
5, 97380, Note_on_c, 4, 46, 113
5, 97476, Note_on_c, 4, 46, 0
5, 97500, Note_on_c, 4, 66, 126
5, 97524, Note_on_c, 4, 66, 0
5, 97530, Note_on_c, 4, 65, 127
5, 97554, Note_on_c, 4, 65, 0
5, 97560, Note_on_c, 4, 65, 127
5, 97560, Note_on_c, 4, 46, 111
5, 97608, Note_on_c, 4, 65, 0
5, 97656, Note_on_c, 4, 46, 0
5, 97680, Note_on_c, 4, 64, 127
5, 97704, Note_on_c, 4, 64, 0
5, 97710, Note_on_c, 4, 63, 115
5, 97734, Note_on_c, 4, 63, 0
5, 97740, Note_on_c, 4, 63, 113
5, 97740, Note_on_c, 4, 46, 109
5, 97788, Note_on_c, 4, 63, 0
5, 97836, Note_on_c, 4, 46, 0
5, 97860, Note_on_c, 4, 63, 113
5, 97884, Note_on_c, 4, 63, 0
5, 97890, Note_on_c, 4, 62, 116
5, 97914, Note_on_c, 4, 62, 0
5, 97920, Note_on_c, 4, 62, 127
5, 97920, Note_on_c, 4, 46, 118
5, 98016, Note_on_c, 4, 46, 0
5, 98016, Note_on_c, 4, 62, 0
5, 98040, Note_on_c, 4, 46, 118
5, 98040, Note_on_c, 4, 62, 121
5, 98088, Note_on_c, 4, 62, 0
5, 98088, Note_on_c, 4, 46, 0
5, 98100, Note_on_c, 4, 62, 125
5, 98100, Note_on_c, 4, 46, 118
5, 98172, Note_on_c, 4, 46, 0
5, 98172, Note_on_c, 4, 62, 0
5, 98190, Note_on_c, 4, 63, 111
5, 98190, Note_on_c, 4, 46, 111
5, 98214, Note_on_c, 4, 46, 0
5, 98214, Note_on_c, 4, 63, 0
5, 98220, Note_on_c, 4, 46, 118
5, 98220, Note_on_c, 4, 65, 127
5, 98268, Note_on_c, 4, 65, 0
5, 98268, Note_on_c, 4, 46, 0
5, 98280, Note_on_c, 4, 51, 123
5, 98280, Note_on_c, 4, 65, 127
5, 98328, Note_on_c, 4, 65, 0
5, 98340, Note_on_c, 4, 67, 127
5, 98376, Note_on_c, 4, 51, 0
5, 98388, Note_on_c, 4, 67, 0
5, 98400, Note_on_c, 4, 51, 127
5, 98400, Note_on_c, 4, 63, 90
5, 98448, Note_on_c, 4, 63, 0
5, 98448, Note_on_c, 4, 51, 0
5, 98460, Note_on_c, 4, 51, 111
5, 98460, Note_on_c, 4, 63, 127
5, 98556, Note_on_c, 4, 63, 0
5, 98556, Note_on_c, 4, 51, 0
5, 98580, Note_on_c, 4, 63, 109
5, 98580, Note_on_c, 4, 46, 86
5, 98604, Note_on_c, 4, 63, 0
5, 98610, Note_on_c, 4, 62, 127
5, 98628, Note_on_c, 4, 46, 0
5, 98634, Note_on_c, 4, 62, 0
5, 98640, Note_on_c, 4, 62, 127
5, 98640, Note_on_c, 4, 46, 109
5, 98736, Note_on_c, 4, 46, 0
5, 98736, Note_on_c, 4, 62, 0
5, 98760, Note_on_c, 4, 62, 127
5, 98760, Note_on_c, 4, 46, 115
5, 98808, Note_on_c, 4, 46, 0
5, 98808, Note_on_c, 4, 62, 0
5, 98820, Note_on_c, 4, 62, 127
5, 98820, Note_on_c, 4, 46, 113
5, 98892, Note_on_c, 4, 46, 0
5, 98892, Note_on_c, 4, 62, 0
5, 98910, Note_on_c, 4, 63, 115
5, 98910, Note_on_c, 4, 46, 118
5, 98934, Note_on_c, 4, 46, 0
5, 98934, Note_on_c, 4, 63, 0
5, 98940, Note_on_c, 4, 65, 127
5, 98940, Note_on_c, 4, 46, 115
5, 98988, Note_on_c, 4, 46, 0
5, 98988, Note_on_c, 4, 65, 0
5, 99000, Note_on_c, 4, 65, 127
5, 99000, Note_on_c, 4, 51, 123
5, 99024, Note_on_c, 4, 65, 0
5, 99030, Note_on_c, 4, 67, 127
5, 99054, Note_on_c, 4, 67, 0
5, 99120, Note_on_c, 4, 51, 123
5, 99168, Note_on_c, 4, 51, 0
5, 99180, Note_on_c, 4, 51, 123
5, 99252, Note_on_c, 4, 51, 0
5, 99270, Note_on_c, 4, 53, 118
5, 99276, Note_on_c, 4, 51, 0
5, 99294, Note_on_c, 4, 53, 0
5, 99300, Note_on_c, 4, 55, 114
5, 99300, Note_on_c, 4, 39, 118
5, 99348, Note_on_c, 4, 39, 0
5, 99348, Note_on_c, 4, 55, 0
5, 99360, Note_on_c, 4, 55, 127
5, 99360, Note_on_c, 4, 53, 127
5, 99384, Note_on_c, 4, 55, 0
5, 99390, Note_on_c, 4, 56, 109
5, 99414, Note_on_c, 4, 56, 0
5, 99480, Note_on_c, 4, 53, 121
5, 99528, Note_on_c, 4, 53, 0
5, 99540, Note_on_c, 4, 53, 127
5, 99612, Note_on_c, 4, 53, 0
5, 99630, Note_on_c, 4, 55, 127
5, 99636, Note_on_c, 4, 53, 0
5, 99654, Note_on_c, 4, 55, 0
5, 99660, Note_on_c, 4, 56, 120
5, 99660, Note_on_c, 4, 41, 123
5, 99708, Note_on_c, 4, 41, 0
5, 99708, Note_on_c, 4, 56, 0
5, 99720, Note_on_c, 4, 56, 111
5, 99720, Note_on_c, 4, 55, 127
5, 99744, Note_on_c, 4, 56, 0
5, 99750, Note_on_c, 4, 58, 113
5, 99774, Note_on_c, 4, 58, 0
5, 99840, Note_on_c, 4, 55, 112
5, 99888, Note_on_c, 4, 55, 0
5, 99900, Note_on_c, 4, 55, 125
5, 99972, Note_on_c, 4, 55, 0
5, 99990, Note_on_c, 4, 56, 115
5, 99996, Note_on_c, 4, 55, 0
5, 100014, Note_on_c, 4, 56, 0
5, 100020, Note_on_c, 4, 58, 111
5, 100020, Note_on_c, 4, 43, 127
5, 100068, Note_on_c, 4, 43, 0
5, 100068, Note_on_c, 4, 58, 0
5, 100080, Note_on_c, 4, 60, 127
5, 100080, Note_on_c, 4, 44, 123
5, 100152, Note_on_c, 4, 44, 0
5, 100152, Note_on_c, 4, 60, 0
5, 100170, Note_on_c, 4, 58, 113
5, 100170, Note_on_c, 4, 56, 107
5, 100194, Note_on_c, 4, 56, 0
5, 100194, Note_on_c, 4, 58, 0
5, 100200, Note_on_c, 4, 56, 117
5, 100200, Note_on_c, 4, 56, 118
5, 100248, Note_on_c, 4, 56, 0
5, 100248, Note_on_c, 4, 56, 0
5, 100260, Note_on_c, 4, 56, 93
5, 100260, Note_on_c, 4, 68, 105
5, 100332, Note_on_c, 4, 68, 0
5, 100332, Note_on_c, 4, 56, 0
5, 100350, Note_on_c, 4, 56, 97
5, 100350, Note_on_c, 4, 65, 125
5, 100374, Note_on_c, 4, 65, 0
5, 100374, Note_on_c, 4, 56, 0
5, 100380, Note_on_c, 4, 55, 121
5, 100380, Note_on_c, 4, 63, 113
5, 100428, Note_on_c, 4, 63, 0
5, 100428, Note_on_c, 4, 55, 0
5, 100440, Note_on_c, 4, 62, 125
5, 100440, Note_on_c, 4, 58, 118
5, 100512, Note_on_c, 4, 58, 0
5, 100512, Note_on_c, 4, 62, 0
5, 100530, Note_on_c, 4, 57, 121
5, 100530, Note_on_c, 4, 60, 127
5, 100554, Note_on_c, 4, 60, 0
5, 100554, Note_on_c, 4, 57, 0
5, 100560, Note_on_c, 4, 56, 99
5, 100560, Note_on_c, 4, 58, 127
5, 100608, Note_on_c, 4, 58, 0
5, 100608, Note_on_c, 4, 56, 0
5, 100620, Note_on_c, 4, 55, 127
5, 100620, Note_on_c, 4, 51, 109
5, 100692, Note_on_c, 4, 51, 0
5, 100692, Note_on_c, 4, 55, 0
5, 100710, Note_on_c, 4, 53, 121
5, 100710, Note_on_c, 4, 56, 105
5, 100734, Note_on_c, 4, 56, 0
5, 100734, Note_on_c, 4, 53, 0
5, 100740, Note_on_c, 4, 58, 100
5, 100740, Note_on_c, 4, 55, 123
5, 100788, Note_on_c, 4, 55, 0
5, 100788, Note_on_c, 4, 58, 0
5, 100800, Note_on_c, 4, 60, 127
5, 100800, Note_on_c, 4, 56, 109
5, 100896, Note_on_c, 4, 56, 0
5, 100896, Note_on_c, 4, 60, 0
5, 100980, Note_on_c, 4, 46, 99
5, 100980, Note_on_c, 4, 58, 101
5, 101076, Note_on_c, 4, 58, 0
5, 101076, Note_on_c, 4, 46, 0
5, 101160, Note_on_c, 4, 39, 111
5, 101160, Note_on_c, 4, 51, 126
5, 101256, Note_on_c, 4, 51, 0
5, 101256, Note_on_c, 4, 39, 0
5, 101520, Note_on_c, 4, 60, 127
5, 101520, Note_on_c, 4, 63, 109
5, 101664, Note_on_c, 4, 63, 0
5, 101664, Note_on_c, 4, 60, 0
5, 101700, Note_on_c, 4, 56, 113
5, 101700, Note_on_c, 4, 60, 127
5, 101844, Note_on_c, 4, 60, 0
5, 101844, Note_on_c, 4, 56, 0
5, 101880, Note_on_c, 4, 58, 118
5, 101880, Note_on_c, 4, 55, 127
5, 101976, Note_on_c, 4, 55, 0
5, 101976, Note_on_c, 4, 58, 0
5, 102240, Note_on_c, 4, 53, 127
5, 102240, Note_on_c, 4, 56, 113
5, 102384, Note_on_c, 4, 56, 0
5, 102384, Note_on_c, 4, 53, 0
5, 102420, Note_on_c, 4, 53, 127
5, 102420, Note_on_c, 4, 46, 109
5, 102564, Note_on_c, 4, 46, 0
5, 102564, Note_on_c, 4, 53, 0
5, 102600, Note_on_c, 4, 55, 121
5, 102600, Note_on_c, 4, 51, 101
5, 102696, Note_on_c, 4, 51, 0
5, 102696, Note_on_c, 4, 55, 0
5, 102960, Note_on_c, 4, 55, 127
5, 102960, Note_on_c, 4, 51, 113
5, 103056, Note_on_c, 4, 51, 0
5, 103056, Note_on_c, 4, 55, 0
5, 103320, Note_on_c, 4, 51, 100
5, 103416, Note_on_c, 4, 51, 0
5, 110700, Note_on_c, 4, 58, 109
5, 110748, Note_on_c, 4, 58, 0
5, 110760, Note_on_c, 4, 56, 113
5, 110808, Note_on_c, 4, 56, 0
5, 110820, Note_on_c, 4, 55, 123
5, 110868, Note_on_c, 4, 55, 0
5, 110880, Note_on_c, 4, 53, 109
5, 110928, Note_on_c, 4, 53, 0
5, 110940, Note_on_c, 4, 52, 118
5, 110988, Note_on_c, 4, 52, 0
5, 111000, Note_on_c, 4, 49, 109
5, 111048, Note_on_c, 4, 49, 0
5, 111060, Note_on_c, 4, 48, 127
5, 111156, Note_on_c, 4, 48, 0
5, 111180, Note_on_c, 4, 48, 127
5, 111228, Note_on_c, 4, 48, 0
5, 111240, Note_on_c, 4, 56, 95
5, 111240, Note_on_c, 4, 60, 127
5, 111336, Note_on_c, 4, 60, 0
5, 111336, Note_on_c, 4, 56, 0
5, 111420, Note_on_c, 4, 60, 127
5, 111468, Note_on_c, 4, 60, 0
5, 111480, Note_on_c, 4, 58, 109
5, 111528, Note_on_c, 4, 58, 0
5, 111540, Note_on_c, 4, 56, 111
5, 111588, Note_on_c, 4, 56, 0
5, 111600, Note_on_c, 4, 55, 120
5, 111648, Note_on_c, 4, 55, 0
5, 111660, Note_on_c, 4, 53, 117
5, 111708, Note_on_c, 4, 53, 0
5, 111720, Note_on_c, 4, 52, 125
5, 111768, Note_on_c, 4, 52, 0
5, 111780, Note_on_c, 4, 53, 125
5, 111876, Note_on_c, 4, 53, 0
5, 111900, Note_on_c, 4, 55, 123
5, 111948, Note_on_c, 4, 55, 0
5, 111960, Note_on_c, 4, 56, 123
5, 112008, Note_on_c, 4, 56, 0
5, 112020, Note_on_c, 4, 56, 101
5, 112020, Note_on_c, 4, 48, 127
5, 112068, Note_on_c, 4, 48, 0
5, 112068, Note_on_c, 4, 56, 0
5, 112080, Note_on_c, 4, 53, 127
5, 112080, Note_on_c, 4, 50, 112
5, 112128, Note_on_c, 4, 50, 0
5, 112128, Note_on_c, 4, 53, 0
5, 112140, Note_on_c, 4, 51, 107
5, 112140, Note_on_c, 4, 55, 127
5, 112236, Note_on_c, 4, 55, 0
5, 112236, Note_on_c, 4, 51, 0
5, 112260, Note_on_c, 4, 53, 113
5, 112260, Note_on_c, 4, 50, 121
5, 112308, Note_on_c, 4, 50, 0
5, 112308, Note_on_c, 4, 53, 0
5, 112320, Note_on_c, 4, 53, 123
5, 112320, Note_on_c, 4, 50, 127
5, 112416, Note_on_c, 4, 50, 0
5, 112416, Note_on_c, 4, 53, 0
5, 113040, Note_on_c, 4, 58, 100
5, 113040, Note_on_c, 4, 55, 127
5, 113136, Note_on_c, 4, 55, 0
5, 113136, Note_on_c, 4, 58, 0
5, 123480, Note_on_c, 4, 56, 115
5, 123504, Note_on_c, 4, 56, 0
5, 123510, Note_on_c, 4, 60, 127
5, 123534, Note_on_c, 4, 60, 0
5, 123540, Note_on_c, 4, 58, 121
5, 123588, Note_on_c, 4, 58, 0
5, 123660, Note_on_c, 4, 55, 127
5, 123684, Note_on_c, 4, 55, 0
5, 123690, Note_on_c, 4, 58, 115
5, 123714, Note_on_c, 4, 58, 0
5, 123720, Note_on_c, 4, 56, 118
5, 123768, Note_on_c, 4, 56, 0
5, 123840, Note_on_c, 4, 60, 125
5, 123840, Note_on_c, 4, 63, 115
5, 123888, Note_on_c, 4, 63, 0
5, 123888, Note_on_c, 4, 60, 0
5, 123900, Note_on_c, 4, 51, 127
5, 123900, Note_on_c, 4, 63, 111
5, 123912, Note_on_c, 4, 63, 0
5, 123915, Note_on_c, 4, 65, 127
5, 123927, Note_on_c, 4, 65, 0
5, 123930, Note_on_c, 4, 63, 115
5, 123942, Note_on_c, 4, 63, 0
5, 123945, Note_on_c, 4, 65, 127
5, 123957, Note_on_c, 4, 65, 0
5, 123960, Note_on_c, 4, 63, 115
5, 123972, Note_on_c, 4, 63, 0
5, 123975, Note_on_c, 4, 65, 117
5, 123987, Note_on_c, 4, 65, 0
5, 123990, Note_on_c, 4, 63, 109
5, 123996, Note_on_c, 4, 51, 0
5, 124002, Note_on_c, 4, 63, 0
5, 124005, Note_on_c, 4, 65, 116
5, 124017, Note_on_c, 4, 65, 0
5, 124020, Note_on_c, 4, 63, 109
5, 124044, Note_on_c, 4, 63, 0
5, 124050, Note_on_c, 4, 62, 127
5, 124074, Note_on_c, 4, 62, 0
5, 124080, Note_on_c, 4, 63, 118
5, 124176, Note_on_c, 4, 63, 0
5, 124920, Note_on_c, 4, 56, 115
5, 124944, Note_on_c, 4, 56, 0
5, 124950, Note_on_c, 4, 60, 127
5, 124974, Note_on_c, 4, 60, 0
5, 124980, Note_on_c, 4, 58, 121
5, 125028, Note_on_c, 4, 58, 0
5, 125100, Note_on_c, 4, 55, 127
5, 125124, Note_on_c, 4, 55, 0
5, 125130, Note_on_c, 4, 58, 115
5, 125154, Note_on_c, 4, 58, 0
5, 125160, Note_on_c, 4, 56, 118
5, 125208, Note_on_c, 4, 56, 0
5, 125280, Note_on_c, 4, 63, 115
5, 125280, Note_on_c, 4, 60, 125
5, 125328, Note_on_c, 4, 60, 0
5, 125328, Note_on_c, 4, 63, 0
5, 125340, Note_on_c, 4, 63, 111
5, 125340, Note_on_c, 4, 51, 127
5, 125352, Note_on_c, 4, 63, 0
5, 125355, Note_on_c, 4, 65, 127
5, 125367, Note_on_c, 4, 65, 0
5, 125370, Note_on_c, 4, 63, 115
5, 125382, Note_on_c, 4, 63, 0
5, 125385, Note_on_c, 4, 65, 127
5, 125397, Note_on_c, 4, 65, 0
5, 125400, Note_on_c, 4, 63, 115
5, 125412, Note_on_c, 4, 63, 0
5, 125415, Note_on_c, 4, 65, 117
5, 125427, Note_on_c, 4, 65, 0
5, 125430, Note_on_c, 4, 63, 109
5, 125436, Note_on_c, 4, 51, 0
5, 125442, Note_on_c, 4, 63, 0
5, 125445, Note_on_c, 4, 65, 116
5, 125457, Note_on_c, 4, 65, 0
5, 125460, Note_on_c, 4, 63, 109
5, 125484, Note_on_c, 4, 63, 0
5, 125490, Note_on_c, 4, 62, 127
5, 125514, Note_on_c, 4, 62, 0
5, 125520, Note_on_c, 4, 63, 118
5, 125616, Note_on_c, 4, 63, 0
5, 126360, Note_on_c, 4, 56, 109
5, 126408, Note_on_c, 4, 56, 0
5, 126420, Note_on_c, 4, 55, 127
5, 126516, Note_on_c, 4, 55, 0
5, 126540, Note_on_c, 4, 55, 110
5, 126540, Note_on_c, 4, 61, 94
5, 126588, Note_on_c, 4, 61, 0
5, 126588, Note_on_c, 4, 55, 0
5, 126600, Note_on_c, 4, 55, 112
5, 126600, Note_on_c, 4, 61, 89
5, 126672, Note_on_c, 4, 61, 0
5, 126672, Note_on_c, 4, 55, 0
5, 126690, Note_on_c, 4, 56, 113
5, 126690, Note_on_c, 4, 60, 125
5, 126714, Note_on_c, 4, 60, 0
5, 126714, Note_on_c, 4, 56, 0
5, 126720, Note_on_c, 4, 51, 109
5, 126720, Note_on_c, 4, 58, 126
5, 126768, Note_on_c, 4, 58, 0
5, 126768, Note_on_c, 4, 51, 0
5, 126780, Note_on_c, 4, 44, 118
5, 126780, Note_on_c, 4, 58, 118
5, 126828, Note_on_c, 4, 58, 0
5, 126840, Note_on_c, 4, 60, 127
5, 126876, Note_on_c, 4, 44, 0
5, 126888, Note_on_c, 4, 60, 0
5, 126900, Note_on_c, 4, 44, 105
5, 126900, Note_on_c, 4, 56, 92
5, 126948, Note_on_c, 4, 56, 0
5, 126948, Note_on_c, 4, 44, 0
5, 126960, Note_on_c, 4, 44, 115
5, 126960, Note_on_c, 4, 56, 111
5, 127056, Note_on_c, 4, 56, 0
5, 127056, Note_on_c, 4, 44, 0
5, 128520, Note_on_c, 4, 55, 127
5, 128520, Note_on_c, 4, 58, 109
5, 128568, Note_on_c, 4, 58, 0
5, 128568, Note_on_c, 4, 55, 0
5, 128580, Note_on_c, 4, 55, 127
5, 128580, Note_on_c, 4, 58, 115
5, 128676, Note_on_c, 4, 58, 0
5, 128676, Note_on_c, 4, 55, 0
5, 128760, Note_on_c, 4, 55, 121
5, 128760, Note_on_c, 4, 58, 105
5, 128856, Note_on_c, 4, 58, 0
5, 128856, Note_on_c, 4, 55, 0
5, 128940, Note_on_c, 4, 55, 127
5, 128940, Note_on_c, 4, 58, 99
5, 129036, Note_on_c, 4, 58, 0
5, 129036, Note_on_c, 4, 55, 0
5, 129120, Note_on_c, 4, 58, 99
5, 129120, Note_on_c, 4, 55, 127
5, 129216, Note_on_c, 4, 55, 0
5, 129216, Note_on_c, 4, 58, 0
5, 129300, Note_on_c, 4, 53, 127
5, 129300, Note_on_c, 4, 56, 121
5, 129396, Note_on_c, 4, 56, 0
5, 129396, Note_on_c, 4, 53, 0
5, 129480, Note_on_c, 4, 55, 127
5, 129480, Note_on_c, 4, 51, 111
5, 129576, Note_on_c, 4, 51, 0
5, 129576, Note_on_c, 4, 55, 0
5, 129660, Note_on_c, 4, 62, 116
5, 129660, Note_on_c, 4, 53, 113
5, 129756, Note_on_c, 4, 53, 0
5, 129756, Note_on_c, 4, 62, 0
5, 129840, Note_on_c, 4, 62, 113
5, 129840, Note_on_c, 4, 53, 114
5, 129936, Note_on_c, 4, 53, 0
5, 129936, Note_on_c, 4, 62, 0
5, 129960, Note_on_c, 4, 58, 113
5, 129960, Note_on_c, 4, 55, 123
5, 130008, Note_on_c, 4, 55, 0
5, 130008, Note_on_c, 4, 58, 0
5, 130020, Note_on_c, 4, 58, 97
5, 130020, Note_on_c, 4, 55, 123
5, 130116, Note_on_c, 4, 55, 0
5, 130116, Note_on_c, 4, 58, 0
5, 130200, Note_on_c, 4, 58, 99
5, 130200, Note_on_c, 4, 55, 127
5, 130296, Note_on_c, 4, 55, 0
5, 130296, Note_on_c, 4, 58, 0
5, 130380, Note_on_c, 4, 58, 105
5, 130380, Note_on_c, 4, 55, 127
5, 130476, Note_on_c, 4, 55, 0
5, 130476, Note_on_c, 4, 58, 0
5, 130560, Note_on_c, 4, 55, 127
5, 130560, Note_on_c, 4, 58, 109
5, 130656, Note_on_c, 4, 58, 0
5, 130656, Note_on_c, 4, 55, 0
5, 130740, Note_on_c, 4, 56, 105
5, 130740, Note_on_c, 4, 53, 125
5, 130836, Note_on_c, 4, 53, 0
5, 130836, Note_on_c, 4, 56, 0
5, 130920, Note_on_c, 4, 51, 101
5, 130920, Note_on_c, 4, 55, 120
5, 131016, Note_on_c, 4, 55, 0
5, 131016, Note_on_c, 4, 51, 0
5, 131100, Note_on_c, 4, 53, 112
5, 131100, Note_on_c, 4, 50, 123
5, 131196, Note_on_c, 4, 50, 0
5, 131196, Note_on_c, 4, 53, 0
5, 131280, Note_on_c, 4, 46, 113
5, 131280, Note_on_c, 4, 58, 115
5, 131376, Note_on_c, 4, 58, 0
5, 131376, Note_on_c, 4, 46, 0
5, 131460, Note_on_c, 4, 46, 115
5, 131460, Note_on_c, 4, 58, 123
5, 131556, Note_on_c, 4, 58, 0
5, 131556, Note_on_c, 4, 46, 0
5, 131640, Note_on_c, 4, 46, 92
5, 131640, Note_on_c, 4, 58, 82
5, 131736, Note_on_c, 4, 58, 0
5, 131736, Note_on_c, 4, 46, 0
5, 131820, Note_on_c, 4, 46, 118
5, 131820, Note_on_c, 4, 58, 127
5, 131916, Note_on_c, 4, 58, 0
5, 131916, Note_on_c, 4, 46, 0
5, 132000, Note_on_c, 4, 46, 86
5, 132000, Note_on_c, 4, 58, 111
5, 132096, Note_on_c, 4, 58, 0
5, 132096, Note_on_c, 4, 46, 0
5, 132180, Note_on_c, 4, 62, 112
5, 132180, Note_on_c, 4, 56, 113
5, 132276, Note_on_c, 4, 56, 0
5, 132276, Note_on_c, 4, 62, 0
5, 132360, Note_on_c, 4, 56, 115
5, 132360, Note_on_c, 4, 62, 127
5, 132456, Note_on_c, 4, 62, 0
5, 132456, Note_on_c, 4, 56, 0
5, 132540, Note_on_c, 4, 51, 96
5, 132540, Note_on_c, 4, 55, 117
5, 132636, Note_on_c, 4, 55, 0
5, 132636, Note_on_c, 4, 51, 0
5, 132720, Note_on_c, 4, 55, 127
5, 132720, Note_on_c, 4, 51, 107
5, 132816, Note_on_c, 4, 51, 0
5, 132832, Note_on_c, 4, 55, 0
5, 132840, Note_on_c, 4, 63, 121
5, 132888, Note_on_c, 4, 63, 0
5, 132900, Note_on_c, 4, 62, 120
5, 132996, Note_on_c, 4, 62, 0
5, 133020, Note_on_c, 4, 62, 121
5, 133068, Note_on_c, 4, 62, 0
5, 133080, Note_on_c, 4, 62, 127
5, 133152, Note_on_c, 4, 62, 0
5, 133170, Note_on_c, 4, 63, 126
5, 133194, Note_on_c, 4, 63, 0
5, 133200, Note_on_c, 4, 65, 116
5, 133248, Note_on_c, 4, 65, 0
5, 133260, Note_on_c, 4, 65, 127
5, 133308, Note_on_c, 4, 65, 0
5, 133320, Note_on_c, 4, 67, 127
5, 133368, Note_on_c, 4, 67, 0
5, 133380, Note_on_c, 4, 63, 115
5, 133428, Note_on_c, 4, 63, 0
5, 133440, Note_on_c, 4, 63, 118
5, 133488, Note_on_c, 4, 63, 0
5, 138300, Note_on_c, 4, 63, 121
5, 138300, Note_on_c, 4, 55, 125
5, 138396, Note_on_c, 4, 55, 0
5, 138396, Note_on_c, 4, 63, 0
5, 138660, Note_on_c, 4, 58, 127
5, 138660, Note_on_c, 4, 62, 114
5, 138756, Note_on_c, 4, 62, 0
5, 138756, Note_on_c, 4, 58, 0
5, 141900, Note_on_c, 4, 56, 113
5, 141900, Note_on_c, 4, 60, 127
5, 141996, Note_on_c, 4, 60, 0
5, 141996, Note_on_c, 4, 56, 0
5, 142080, Note_on_c, 4, 56, 113
5, 142080, Note_on_c, 4, 60, 127
5, 142176, Note_on_c, 4, 60, 0
5, 142176, Note_on_c, 4, 56, 0
5, 142260, Note_on_c, 4, 56, 111
5, 142260, Note_on_c, 4, 60, 127
5, 142356, Note_on_c, 4, 60, 0
5, 142356, Note_on_c, 4, 56, 0
5, 142440, Note_on_c, 4, 56, 115
5, 142440, Note_on_c, 4, 60, 127
5, 142536, Note_on_c, 4, 60, 0
5, 142536, Note_on_c, 4, 56, 0
5, 142620, Note_on_c, 4, 58, 126
5, 142716, Note_on_c, 4, 58, 0
5, 142800, Note_on_c, 4, 58, 118
5, 142896, Note_on_c, 4, 58, 0
5, 142980, Note_on_c, 4, 58, 127
5, 142980, Note_on_c, 4, 46, 126
5, 143076, Note_on_c, 4, 46, 0
5, 143076, Note_on_c, 4, 58, 0
5, 143280, Note_on_c, 4, 58, 121
5, 143280, Note_on_c, 4, 46, 105
5, 143328, Note_on_c, 4, 46, 0
5, 143328, Note_on_c, 4, 58, 0
5, 143340, Note_on_c, 4, 51, 118
5, 143436, Note_on_c, 4, 51, 0
5, 143700, Note_on_c, 4, 63, 121
5, 143700, Note_on_c, 4, 60, 127
5, 143844, Note_on_c, 4, 60, 0
5, 143844, Note_on_c, 4, 63, 0
5, 143880, Note_on_c, 4, 56, 107
5, 143880, Note_on_c, 4, 60, 127
5, 144024, Note_on_c, 4, 60, 0
5, 144024, Note_on_c, 4, 56, 0
5, 144060, Note_on_c, 4, 58, 103
5, 144060, Note_on_c, 4, 55, 127
5, 144156, Note_on_c, 4, 55, 0
5, 144156, Note_on_c, 4, 58, 0
5, 144420, Note_on_c, 4, 56, 105
5, 144420, Note_on_c, 4, 53, 127
5, 144564, Note_on_c, 4, 53, 0
5, 144564, Note_on_c, 4, 56, 0
5, 144600, Note_on_c, 4, 53, 127
5, 144600, Note_on_c, 4, 50, 127
5, 144744, Note_on_c, 4, 50, 0
5, 144744, Note_on_c, 4, 53, 0
5, 144780, Note_on_c, 4, 55, 127
5, 144780, Note_on_c, 4, 51, 107
5, 144876, Note_on_c, 4, 51, 0
5, 144876, Note_on_c, 4, 55, 0
5, 153060, Note_on_c, 4, 58, 103
5, 153060, Note_on_c, 4, 55, 117
5, 153108, Note_on_c, 4, 55, 0
5, 153108, Note_on_c, 4, 58, 0
5, 153120, Note_on_c, 4, 63, 121
5, 153168, Note_on_c, 4, 63, 0
5, 153180, Note_on_c, 4, 58, 95
5, 153180, Note_on_c, 4, 55, 109
5, 153288, Note_on_c, 4, 55, 0
5, 153288, Note_on_c, 4, 58, 0
5, 153360, Note_on_c, 4, 58, 97
5, 153360, Note_on_c, 4, 55, 112
5, 153408, Note_on_c, 4, 55, 0
5, 153408, Note_on_c, 4, 58, 0
5, 153420, Note_on_c, 4, 58, 100
5, 153420, Note_on_c, 4, 55, 112
5, 153468, Note_on_c, 4, 55, 0
5, 153468, Note_on_c, 4, 58, 0
5, 153480, Note_on_c, 4, 58, 101
5, 153480, Note_on_c, 4, 55, 107
5, 153696, Note_on_c, 4, 55, 0
5, 153696, Note_on_c, 4, 58, 0
5, 153720, Note_on_c, 4, 58, 107
5, 153720, Note_on_c, 4, 46, 96
5, 153768, Note_on_c, 4, 46, 0
5, 153768, Note_on_c, 4, 58, 0
5, 153780, Note_on_c, 4, 58, 97
5, 153780, Note_on_c, 4, 62, 127
5, 153828, Note_on_c, 4, 62, 0
5, 153828, Note_on_c, 4, 58, 0
5, 153840, Note_on_c, 4, 58, 107
5, 153840, Note_on_c, 4, 62, 127
5, 154056, Note_on_c, 4, 62, 0
5, 154056, Note_on_c, 4, 58, 0
5, 154080, Note_on_c, 4, 58, 97
5, 154080, Note_on_c, 4, 46, 93
5, 154128, Note_on_c, 4, 46, 0
5, 154128, Note_on_c, 4, 58, 0
5, 154140, Note_on_c, 4, 55, 108
5, 154140, Note_on_c, 4, 63, 96
5, 154188, Note_on_c, 4, 63, 0
5, 154188, Note_on_c, 4, 55, 0
5, 154200, Note_on_c, 4, 63, 96
5, 154200, Note_on_c, 4, 55, 105
5, 154296, Note_on_c, 4, 55, 0
5, 154296, Note_on_c, 4, 63, 0
5, 154320, Note_on_c, 4, 55, 111
5, 154320, Note_on_c, 4, 63, 109
5, 154368, Note_on_c, 4, 63, 0
5, 154368, Note_on_c, 4, 55, 0
5, 154380, Note_on_c, 4, 63, 95
5, 154380, Note_on_c, 4, 55, 109
5, 154476, Note_on_c, 4, 55, 0
5, 154476, Note_on_c, 4, 63, 0
5, 154500, Note_on_c, 4, 63, 121
5, 154500, Note_on_c, 4, 55, 112
5, 154548, Note_on_c, 4, 55, 0
5, 154548, Note_on_c, 4, 63, 0
5, 154560, Note_on_c, 4, 63, 121
5, 154560, Note_on_c, 4, 55, 112
5, 154656, Note_on_c, 4, 55, 0
5, 154656, Note_on_c, 4, 63, 0
5, 154680, Note_on_c, 4, 63, 121
5, 154680, Note_on_c, 4, 55, 110
5, 154728, Note_on_c, 4, 55, 0
5, 154728, Note_on_c, 4, 63, 0
5, 154740, Note_on_c, 4, 63, 115
5, 154740, Note_on_c, 4, 55, 111
5, 154836, Note_on_c, 4, 55, 0
5, 154836, Note_on_c, 4, 63, 0
5, 154860, Note_on_c, 4, 63, 123
5, 154860, Note_on_c, 4, 55, 114
5, 154956, Note_on_c, 4, 55, 0
5, 154956, Note_on_c, 4, 63, 0
5, 155040, Note_on_c, 4, 63, 118
5, 155040, Note_on_c, 4, 51, 107
5, 155136, Note_on_c, 4, 51, 0
5, 155136, Note_on_c, 4, 63, 0
5, 155220, Note_on_c, 4, 51, 115
5, 155316, Note_on_c, 4, 51, 0
5, 155316, End_track
6, 0, Start_track
6, 0, MIDI_port, 0
6, 0, Title_t, "Horns (in Eb)"
6, 0, Program_c, 5, 60
6, 0, Control_c, 5, 7, 100
6, 0, Control_c, 5, 10, 60
6, 0, Control_c, 5, 93, 0
6, 0, Control_c, 5, 91, 0
6, 0, Note_on_c, 5, 58, 98
6, 0, Note_on_c, 5, 46, 106
6, 648, Note_on_c, 5, 46, 0
6, 648, Note_on_c, 5, 58, 0
6, 720, Note_on_c, 5, 58, 109
6, 720, Note_on_c, 5, 46, 120
6, 2808, Note_on_c, 5, 46, 0
6, 2808, Note_on_c, 5, 58, 0
6, 2880, Note_on_c, 5, 58, 121
6, 2880, Note_on_c, 5, 46, 109
6, 2976, Note_on_c, 5, 46, 0
6, 2976, Note_on_c, 5, 58, 0
6, 3060, Note_on_c, 5, 58, 106
6, 3060, Note_on_c, 5, 46, 103
6, 3156, Note_on_c, 5, 46, 0
6, 3156, Note_on_c, 5, 58, 0
6, 3240, Note_on_c, 5, 46, 109
6, 3240, Note_on_c, 5, 58, 121
6, 3336, Note_on_c, 5, 58, 0
6, 3336, Note_on_c, 5, 46, 0
6, 3420, Note_on_c, 5, 46, 103
6, 3420, Note_on_c, 5, 58, 106
6, 3516, Note_on_c, 5, 58, 0
6, 3516, Note_on_c, 5, 46, 0
6, 3600, Note_on_c, 5, 58, 101
6, 3600, Note_on_c, 5, 46, 98
6, 4248, Note_on_c, 5, 46, 0
6, 4248, Note_on_c, 5, 58, 0
6, 4320, Note_on_c, 5, 46, 109
6, 4320, Note_on_c, 5, 58, 121
6, 4416, Note_on_c, 5, 58, 0
6, 4416, Note_on_c, 5, 46, 0
6, 4500, Note_on_c, 5, 46, 103
6, 4500, Note_on_c, 5, 58, 106
6, 4596, Note_on_c, 5, 58, 0
6, 4596, Note_on_c, 5, 46, 0
6, 4680, Note_on_c, 5, 46, 109
6, 4680, Note_on_c, 5, 58, 121
6, 4776, Note_on_c, 5, 58, 0
6, 4776, Note_on_c, 5, 46, 0
6, 4860, Note_on_c, 5, 46, 103
6, 4860, Note_on_c, 5, 58, 106
6, 4956, Note_on_c, 5, 58, 0
6, 4956, Note_on_c, 5, 46, 0
6, 5700, Note_on_c, 5, 58, 116
6, 5700, Note_on_c, 5, 70, 112
6, 5748, Note_on_c, 5, 70, 0
6, 5748, Note_on_c, 5, 58, 0
6, 5760, Note_on_c, 5, 63, 110
6, 5760, Note_on_c, 5, 67, 114
6, 5868, Note_on_c, 5, 67, 0
6, 5868, Note_on_c, 5, 63, 0
6, 5880, Note_on_c, 5, 63, 109
6, 5880, Note_on_c, 5, 67, 117
6, 6036, Note_on_c, 5, 67, 0
6, 6036, Note_on_c, 5, 63, 0
6, 6060, Note_on_c, 5, 63, 123
6, 6060, Note_on_c, 5, 67, 111
6, 6108, Note_on_c, 5, 67, 0
6, 6108, Note_on_c, 5, 63, 0
6, 6120, Note_on_c, 5, 63, 125
6, 6120, Note_on_c, 5, 67, 127
6, 6168, Note_on_c, 5, 67, 0
6, 6168, Note_on_c, 5, 63, 0
6, 6180, Note_on_c, 5, 63, 127
6, 6180, Note_on_c, 5, 67, 127
6, 6396, Note_on_c, 5, 67, 0
6, 6396, Note_on_c, 5, 63, 0
6, 6420, Note_on_c, 5, 67, 127
6, 6420, Note_on_c, 5, 63, 127
6, 6468, Note_on_c, 5, 63, 0
6, 6468, Note_on_c, 5, 67, 0
6, 6480, Note_on_c, 5, 65, 127
6, 6480, Note_on_c, 5, 58, 105
6, 6576, Note_on_c, 5, 58, 0
6, 6576, Note_on_c, 5, 65, 0
6, 6600, Note_on_c, 5, 65, 127
6, 6600, Note_on_c, 5, 58, 117
6, 6648, Note_on_c, 5, 58, 0
6, 6648, Note_on_c, 5, 65, 0
6, 6660, Note_on_c, 5, 63, 116
6, 6660, Note_on_c, 5, 55, 109
6, 6756, Note_on_c, 5, 55, 0
6, 6756, Note_on_c, 5, 63, 0
6, 6780, Note_on_c, 5, 63, 127
6, 6780, Note_on_c, 5, 67, 118
6, 6828, Note_on_c, 5, 67, 0
6, 6828, Note_on_c, 5, 63, 0
6, 6840, Note_on_c, 5, 65, 107
6, 6840, Note_on_c, 5, 58, 103
6, 6984, Note_on_c, 5, 58, 0
6, 6984, Note_on_c, 5, 65, 0
6, 7020, Note_on_c, 5, 65, 118
6, 7020, Note_on_c, 5, 58, 111
6, 7068, Note_on_c, 5, 58, 0
6, 7068, Note_on_c, 5, 65, 0
6, 7140, Note_on_c, 5, 70, 112
6, 7140, Note_on_c, 5, 58, 102
6, 7188, Note_on_c, 5, 58, 0
6, 7188, Note_on_c, 5, 70, 0
6, 7200, Note_on_c, 5, 67, 116
6, 7200, Note_on_c, 5, 63, 121
6, 7308, Note_on_c, 5, 63, 0
6, 7308, Note_on_c, 5, 67, 0
6, 7320, Note_on_c, 5, 63, 123
6, 7320, Note_on_c, 5, 67, 113
6, 7476, Note_on_c, 5, 67, 0
6, 7476, Note_on_c, 5, 63, 0
6, 7500, Note_on_c, 5, 63, 120
6, 7500, Note_on_c, 5, 67, 127
6, 7548, Note_on_c, 5, 67, 0
6, 7548, Note_on_c, 5, 63, 0
6, 7560, Note_on_c, 5, 63, 118
6, 7560, Note_on_c, 5, 67, 113
6, 7608, Note_on_c, 5, 67, 0
6, 7608, Note_on_c, 5, 63, 0
6, 7620, Note_on_c, 5, 67, 116
6, 7620, Note_on_c, 5, 63, 123
6, 7836, Note_on_c, 5, 63, 0
6, 7836, Note_on_c, 5, 67, 0
6, 7860, Note_on_c, 5, 63, 127
6, 7860, Note_on_c, 5, 67, 125
6, 7908, Note_on_c, 5, 67, 0
6, 7908, Note_on_c, 5, 63, 0
6, 7920, Note_on_c, 5, 65, 120
6, 7920, Note_on_c, 5, 58, 109
6, 8016, Note_on_c, 5, 58, 0
6, 8016, Note_on_c, 5, 65, 0
6, 8040, Note_on_c, 5, 65, 114
6, 8040, Note_on_c, 5, 58, 108
6, 8088, Note_on_c, 5, 58, 0
6, 8088, Note_on_c, 5, 65, 0
6, 8100, Note_on_c, 5, 55, 113
6, 8100, Note_on_c, 5, 63, 120
6, 8196, Note_on_c, 5, 63, 0
6, 8196, Note_on_c, 5, 55, 0
6, 8220, Note_on_c, 5, 67, 118
6, 8220, Note_on_c, 5, 63, 127
6, 8268, Note_on_c, 5, 63, 0
6, 8268, Note_on_c, 5, 67, 0
6, 8280, Note_on_c, 5, 65, 110
6, 8280, Note_on_c, 5, 58, 105
6, 8424, Note_on_c, 5, 58, 0
6, 8424, Note_on_c, 5, 65, 0
6, 8460, Note_on_c, 5, 58, 107
6, 8460, Note_on_c, 5, 65, 114
6, 8556, Note_on_c, 5, 65, 0
6, 8556, Note_on_c, 5, 58, 0
6, 8640, Note_on_c, 5, 55, 117
6, 8640, Note_on_c, 5, 46, 109
6, 8736, Note_on_c, 5, 46, 0
6, 8736, Note_on_c, 5, 55, 0
6, 8820, Note_on_c, 5, 46, 120
6, 8820, Note_on_c, 5, 55, 114
6, 8916, Note_on_c, 5, 55, 0
6, 8916, Note_on_c, 5, 46, 0
6, 9000, Note_on_c, 5, 55, 112
6, 9000, Note_on_c, 5, 46, 108
6, 9096, Note_on_c, 5, 46, 0
6, 9096, Note_on_c, 5, 55, 0
6, 9180, Note_on_c, 5, 55, 125
6, 9180, Note_on_c, 5, 46, 117
6, 9276, Note_on_c, 5, 46, 0
6, 9276, Note_on_c, 5, 55, 0
6, 9360, Note_on_c, 5, 68, 114
6, 9360, Note_on_c, 5, 65, 120
6, 9456, Note_on_c, 5, 65, 0
6, 9456, Note_on_c, 5, 68, 0
6, 9480, Note_on_c, 5, 68, 123
6, 9480, Note_on_c, 5, 65, 123
6, 9528, Note_on_c, 5, 65, 0
6, 9528, Note_on_c, 5, 68, 0
6, 9540, Note_on_c, 5, 65, 127
6, 9540, Note_on_c, 5, 68, 127
6, 9612, Note_on_c, 5, 68, 0
6, 9612, Note_on_c, 5, 65, 0
6, 9630, Note_on_c, 5, 67, 123
6, 9630, Note_on_c, 5, 63, 109
6, 9654, Note_on_c, 5, 63, 0
6, 9654, Note_on_c, 5, 67, 0
6, 9660, Note_on_c, 5, 65, 113
6, 9660, Note_on_c, 5, 58, 103
6, 9708, Note_on_c, 5, 58, 0
6, 9708, Note_on_c, 5, 65, 0
6, 9720, Note_on_c, 5, 63, 127
6, 9720, Note_on_c, 5, 55, 127
6, 9816, Note_on_c, 5, 55, 0
6, 9816, Note_on_c, 5, 63, 0
6, 9840, Note_on_c, 5, 63, 121
6, 9840, Note_on_c, 5, 55, 117
6, 9888, Note_on_c, 5, 55, 0
6, 9888, Note_on_c, 5, 63, 0
6, 9900, Note_on_c, 5, 63, 127
6, 9900, Note_on_c, 5, 55, 111
6, 9996, Note_on_c, 5, 55, 0
6, 9996, Note_on_c, 5, 63, 0
6, 10020, Note_on_c, 5, 58, 125
6, 10020, Note_on_c, 5, 65, 127
6, 10068, Note_on_c, 5, 65, 0
6, 10068, Note_on_c, 5, 58, 0
6, 10080, Note_on_c, 5, 65, 127
6, 10080, Note_on_c, 5, 68, 127
6, 10176, Note_on_c, 5, 68, 0
6, 10176, Note_on_c, 5, 65, 0
6, 10200, Note_on_c, 5, 65, 127
6, 10200, Note_on_c, 5, 68, 127
6, 10248, Note_on_c, 5, 68, 0
6, 10248, Note_on_c, 5, 65, 0
6, 10260, Note_on_c, 5, 65, 127
6, 10260, Note_on_c, 5, 68, 127
6, 10332, Note_on_c, 5, 68, 0
6, 10332, Note_on_c, 5, 65, 0
6, 10350, Note_on_c, 5, 63, 114
6, 10350, Note_on_c, 5, 67, 118
6, 10374, Note_on_c, 5, 67, 0
6, 10374, Note_on_c, 5, 63, 0
6, 10380, Note_on_c, 5, 58, 103
6, 10380, Note_on_c, 5, 65, 121
6, 10428, Note_on_c, 5, 65, 0
6, 10428, Note_on_c, 5, 58, 0
6, 10440, Note_on_c, 5, 63, 125
6, 10440, Note_on_c, 5, 55, 121
6, 10536, Note_on_c, 5, 55, 0
6, 10536, Note_on_c, 5, 63, 0
6, 10800, Note_on_c, 5, 65, 127
6, 10896, Note_on_c, 5, 65, 0
6, 11160, Note_on_c, 5, 67, 127
6, 11256, Note_on_c, 5, 67, 0
6, 11520, Note_on_c, 5, 63, 127
6, 11520, Note_on_c, 5, 65, 125
6, 11616, Note_on_c, 5, 65, 0
6, 11616, Note_on_c, 5, 63, 0
6, 11700, Note_on_c, 5, 63, 127
6, 11700, Note_on_c, 5, 65, 121
6, 11796, Note_on_c, 5, 65, 0
6, 11796, Note_on_c, 5, 63, 0
6, 11880, Note_on_c, 5, 65, 105
6, 11880, Note_on_c, 5, 58, 110
6, 11952, Note_on_c, 5, 58, 0
6, 11952, Note_on_c, 5, 65, 0
6, 11970, Note_on_c, 5, 65, 107
6, 11970, Note_on_c, 5, 58, 107
6, 11994, Note_on_c, 5, 58, 0
6, 11994, Note_on_c, 5, 65, 0
6, 12000, Note_on_c, 5, 58, 109
6, 12000, Note_on_c, 5, 65, 104
6, 12048, Note_on_c, 5, 65, 0
6, 12048, Note_on_c, 5, 58, 0
6, 12060, Note_on_c, 5, 63, 107
6, 12060, Note_on_c, 5, 67, 105
6, 12132, Note_on_c, 5, 67, 0
6, 12132, Note_on_c, 5, 63, 0
6, 12150, Note_on_c, 5, 67, 121
6, 12150, Note_on_c, 5, 63, 110
6, 12174, Note_on_c, 5, 63, 0
6, 12174, Note_on_c, 5, 67, 0
6, 12180, Note_on_c, 5, 63, 121
6, 12180, Note_on_c, 5, 67, 120
6, 12228, Note_on_c, 5, 67, 0
6, 12228, Note_on_c, 5, 63, 0
6, 12240, Note_on_c, 5, 63, 117
6, 12240, Note_on_c, 5, 65, 121
6, 12336, Note_on_c, 5, 65, 0
6, 12336, Note_on_c, 5, 63, 0
6, 12420, Note_on_c, 5, 65, 118
6, 12420, Note_on_c, 5, 58, 109
6, 12516, Note_on_c, 5, 58, 0
6, 12516, Note_on_c, 5, 65, 0
6, 12600, Note_on_c, 5, 63, 103
6, 12600, Note_on_c, 5, 51, 109
6, 12672, Note_on_c, 5, 51, 0
6, 12672, Note_on_c, 5, 63, 0
6, 12690, Note_on_c, 5, 63, 105
6, 12690, Note_on_c, 5, 51, 108
6, 12714, Note_on_c, 5, 51, 0
6, 12714, Note_on_c, 5, 63, 0
6, 12720, Note_on_c, 5, 63, 103
6, 12720, Note_on_c, 5, 51, 101
6, 12768, Note_on_c, 5, 51, 0
6, 12768, Note_on_c, 5, 63, 0
6, 12780, Note_on_c, 5, 51, 107
6, 12780, Note_on_c, 5, 63, 103
6, 12828, Note_on_c, 5, 63, 0
6, 12828, Note_on_c, 5, 51, 0
6, 12840, Note_on_c, 5, 63, 104
6, 12840, Note_on_c, 5, 51, 105
6, 12888, Note_on_c, 5, 51, 0
6, 12888, Note_on_c, 5, 63, 0
6, 12900, Note_on_c, 5, 63, 91
6, 12900, Note_on_c, 5, 51, 98
6, 12948, Note_on_c, 5, 51, 0
6, 12948, Note_on_c, 5, 63, 0
6, 12960, Note_on_c, 5, 63, 80
6, 12960, Note_on_c, 5, 51, 107
6, 13248, Note_on_c, 5, 51, 0
6, 13248, Note_on_c, 5, 63, 0
6, 13320, Note_on_c, 5, 58, 100
6, 13320, Note_on_c, 5, 46, 102
6, 13392, Note_on_c, 5, 46, 0
6, 13392, Note_on_c, 5, 58, 0
6, 13410, Note_on_c, 5, 58, 107
6, 13410, Note_on_c, 5, 46, 99
6, 13434, Note_on_c, 5, 46, 0
6, 13434, Note_on_c, 5, 58, 0
6, 13440, Note_on_c, 5, 58, 112
6, 13440, Note_on_c, 5, 46, 109
6, 13488, Note_on_c, 5, 46, 0
6, 13488, Note_on_c, 5, 58, 0
6, 13500, Note_on_c, 5, 58, 120
6, 13500, Note_on_c, 5, 46, 108
6, 13548, Note_on_c, 5, 46, 0
6, 13548, Note_on_c, 5, 58, 0
6, 13560, Note_on_c, 5, 58, 109
6, 13560, Note_on_c, 5, 46, 103
6, 13608, Note_on_c, 5, 46, 0
6, 13608, Note_on_c, 5, 58, 0
6, 13620, Note_on_c, 5, 58, 98
6, 13620, Note_on_c, 5, 46, 100
6, 13668, Note_on_c, 5, 46, 0
6, 13668, Note_on_c, 5, 58, 0
6, 13680, Note_on_c, 5, 58, 103
6, 13680, Note_on_c, 5, 46, 101
6, 13968, Note_on_c, 5, 46, 0
6, 13968, Note_on_c, 5, 58, 0
6, 14040, Note_on_c, 5, 51, 102
6, 14040, Note_on_c, 5, 63, 96
6, 14112, Note_on_c, 5, 63, 0
6, 14112, Note_on_c, 5, 51, 0
6, 14130, Note_on_c, 5, 63, 100
6, 14130, Note_on_c, 5, 51, 101
6, 14154, Note_on_c, 5, 51, 0
6, 14154, Note_on_c, 5, 63, 0
6, 14160, Note_on_c, 5, 63, 105
6, 14160, Note_on_c, 5, 51, 101
6, 14208, Note_on_c, 5, 51, 0
6, 14208, Note_on_c, 5, 63, 0
6, 14220, Note_on_c, 5, 63, 105
6, 14220, Note_on_c, 5, 51, 103
6, 14268, Note_on_c, 5, 51, 0
6, 14268, Note_on_c, 5, 63, 0
6, 14280, Note_on_c, 5, 63, 102
6, 14280, Note_on_c, 5, 51, 103
6, 14328, Note_on_c, 5, 51, 0
6, 14328, Note_on_c, 5, 63, 0
6, 14340, Note_on_c, 5, 63, 108
6, 14340, Note_on_c, 5, 51, 108
6, 14388, Note_on_c, 5, 51, 0
6, 14388, Note_on_c, 5, 63, 0
6, 14400, Note_on_c, 5, 63, 99
6, 14400, Note_on_c, 5, 51, 100
6, 14472, Note_on_c, 5, 51, 0
6, 14472, Note_on_c, 5, 63, 0
6, 14490, Note_on_c, 5, 63, 107
6, 14490, Note_on_c, 5, 51, 103
6, 14514, Note_on_c, 5, 51, 0
6, 14514, Note_on_c, 5, 63, 0
6, 14520, Note_on_c, 5, 63, 102
6, 14520, Note_on_c, 5, 51, 102
6, 14568, Note_on_c, 5, 51, 0
6, 14568, Note_on_c, 5, 63, 0
6, 14580, Note_on_c, 5, 63, 102
6, 14580, Note_on_c, 5, 51, 103
6, 14628, Note_on_c, 5, 51, 0
6, 14628, Note_on_c, 5, 63, 0
6, 14640, Note_on_c, 5, 63, 102
6, 14640, Note_on_c, 5, 51, 103
6, 14688, Note_on_c, 5, 51, 0
6, 14688, Note_on_c, 5, 63, 0
6, 14700, Note_on_c, 5, 63, 107
6, 14700, Note_on_c, 5, 51, 106
6, 14748, Note_on_c, 5, 51, 0
6, 14748, Note_on_c, 5, 63, 0
6, 14760, Note_on_c, 5, 51, 101
6, 14760, Note_on_c, 5, 63, 102
6, 14856, Note_on_c, 5, 63, 0
6, 14856, Note_on_c, 5, 51, 0
6, 17280, Note_on_c, 5, 27, 86
6, 18636, Note_on_c, 5, 27, 0
6, 21960, Note_on_c, 5, 67, 120
6, 21960, Note_on_c, 5, 55, 118
6, 22056, Note_on_c, 5, 55, 0
6, 22056, Note_on_c, 5, 67, 0
6, 22380, Note_on_c, 5, 67, 114
6, 22380, Note_on_c, 5, 55, 108
6, 22428, Note_on_c, 5, 55, 0
6, 22428, Note_on_c, 5, 67, 0
6, 22440, Note_on_c, 5, 65, 105
6, 22440, Note_on_c, 5, 55, 118
6, 22488, Note_on_c, 5, 55, 0
6, 22488, Note_on_c, 5, 65, 0
6, 22500, Note_on_c, 5, 63, 127
6, 22596, Note_on_c, 5, 63, 0
6, 22800, Note_on_c, 5, 65, 127
6, 22848, Note_on_c, 5, 65, 0
6, 22860, Note_on_c, 5, 65, 127
6, 22956, Note_on_c, 5, 65, 0
6, 22980, Note_on_c, 5, 65, 118
6, 23028, Note_on_c, 5, 65, 0
6, 23040, Note_on_c, 5, 65, 127
6, 23136, Note_on_c, 5, 65, 0
6, 23760, Note_on_c, 5, 65, 127
6, 23856, Note_on_c, 5, 65, 0
6, 33480, Note_on_c, 5, 46, 100
6, 33480, Note_on_c, 5, 58, 99
6, 34079, Note_on_c, 5, 58, 0
6, 34079, Note_on_c, 5, 46, 0
6, 34200, Note_on_c, 5, 46, 120
6, 34200, Note_on_c, 5, 58, 109
6, 36288, Note_on_c, 5, 58, 0
6, 36288, Note_on_c, 5, 46, 0
6, 36360, Note_on_c, 5, 46, 109
6, 36360, Note_on_c, 5, 58, 121
6, 36456, Note_on_c, 5, 58, 0
6, 36456, Note_on_c, 5, 46, 0
6, 36540, Note_on_c, 5, 46, 103
6, 36540, Note_on_c, 5, 58, 106
6, 36636, Note_on_c, 5, 58, 0
6, 36636, Note_on_c, 5, 46, 0
6, 36720, Note_on_c, 5, 58, 121
6, 36720, Note_on_c, 5, 46, 109
6, 36816, Note_on_c, 5, 46, 0
6, 36816, Note_on_c, 5, 58, 0
6, 36900, Note_on_c, 5, 58, 106
6, 36900, Note_on_c, 5, 46, 103
6, 36996, Note_on_c, 5, 46, 0
6, 36996, Note_on_c, 5, 58, 0
6, 37080, Note_on_c, 5, 46, 98
6, 37080, Note_on_c, 5, 58, 101
6, 37728, Note_on_c, 5, 58, 0
6, 37728, Note_on_c, 5, 46, 0
6, 37800, Note_on_c, 5, 58, 112
6, 37800, Note_on_c, 5, 46, 108
6, 37896, Note_on_c, 5, 46, 0
6, 37896, Note_on_c, 5, 58, 0
6, 37980, Note_on_c, 5, 46, 110
6, 37980, Note_on_c, 5, 58, 100
6, 38076, Note_on_c, 5, 58, 0
6, 38076, Note_on_c, 5, 46, 0
6, 38160, Note_on_c, 5, 58, 107
6, 38160, Note_on_c, 5, 46, 104
6, 38256, Note_on_c, 5, 46, 0
6, 38256, Note_on_c, 5, 58, 0
6, 38340, Note_on_c, 5, 58, 105
6, 38340, Note_on_c, 5, 46, 101
6, 38388, Note_on_c, 5, 46, 0
6, 38388, Note_on_c, 5, 58, 0
6, 38460, Note_on_c, 5, 46, 103
6, 38460, Note_on_c, 5, 58, 107
6, 38508, Note_on_c, 5, 58, 0
6, 38508, Note_on_c, 5, 46, 0
6, 38520, Note_on_c, 5, 58, 109
6, 38520, Note_on_c, 5, 46, 107
6, 38616, Note_on_c, 5, 46, 0
6, 38616, Note_on_c, 5, 58, 0
6, 38640, Note_on_c, 5, 58, 107
6, 38640, Note_on_c, 5, 46, 104
6, 38688, Note_on_c, 5, 46, 0
6, 38688, Note_on_c, 5, 58, 0
6, 38700, Note_on_c, 5, 58, 105
6, 38700, Note_on_c, 5, 46, 103
6, 38772, Note_on_c, 5, 46, 0
6, 38772, Note_on_c, 5, 58, 0
6, 38790, Note_on_c, 5, 58, 106
6, 38790, Note_on_c, 5, 46, 105
6, 38814, Note_on_c, 5, 46, 0
6, 38814, Note_on_c, 5, 58, 0
6, 38820, Note_on_c, 5, 58, 107
6, 38820, Note_on_c, 5, 46, 101
6, 38868, Note_on_c, 5, 46, 0
6, 38868, Note_on_c, 5, 58, 0
6, 38880, Note_on_c, 5, 46, 107
6, 38880, Note_on_c, 5, 58, 99
6, 38976, Note_on_c, 5, 58, 0
6, 38976, Note_on_c, 5, 46, 0
6, 39000, Note_on_c, 5, 58, 107
6, 39000, Note_on_c, 5, 46, 105
6, 39048, Note_on_c, 5, 46, 0
6, 39048, Note_on_c, 5, 58, 0
6, 39060, Note_on_c, 5, 58, 103
6, 39060, Note_on_c, 5, 46, 100
6, 39156, Note_on_c, 5, 46, 0
6, 39156, Note_on_c, 5, 58, 0
6, 57165, Control_c, 5, 7, 127
6, 57240, Note_on_c, 5, 63, 46
6, 57240, Note_on_c, 5, 51, 48
6, 57312, Note_on_c, 5, 51, 0
6, 57312, Note_on_c, 5, 63, 0
6, 57330, Note_on_c, 5, 63, 46
6, 57330, Note_on_c, 5, 51, 47
6, 57354, Note_on_c, 5, 51, 0
6, 57354, Note_on_c, 5, 63, 0
6, 57360, Note_on_c, 5, 63, 45
6, 57360, Note_on_c, 5, 51, 47
6, 57408, Note_on_c, 5, 51, 0
6, 57408, Note_on_c, 5, 63, 0
6, 57420, Note_on_c, 5, 63, 52
6, 57420, Note_on_c, 5, 51, 46
6, 57468, Note_on_c, 5, 51, 0
6, 57468, Note_on_c, 5, 63, 0
6, 57480, Note_on_c, 5, 63, 50
6, 57480, Note_on_c, 5, 51, 44
6, 57528, Note_on_c, 5, 51, 0
6, 57528, Note_on_c, 5, 63, 0
6, 57540, Note_on_c, 5, 63, 50
6, 57540, Note_on_c, 5, 51, 48
6, 57588, Note_on_c, 5, 51, 0
6, 57588, Note_on_c, 5, 63, 0
6, 57600, Note_on_c, 5, 63, 48
6, 57600, Note_on_c, 5, 51, 46
6, 57648, Note_on_c, 5, 51, 0
6, 57648, Note_on_c, 5, 63, 0
6, 57660, Note_on_c, 5, 63, 48
6, 57660, Note_on_c, 5, 51, 45
6, 57708, Note_on_c, 5, 51, 0
6, 57708, Note_on_c, 5, 63, 0
6, 57720, Note_on_c, 5, 63, 51
6, 57720, Note_on_c, 5, 51, 46
6, 57768, Note_on_c, 5, 51, 0
6, 57768, Note_on_c, 5, 63, 0
6, 57780, Note_on_c, 5, 63, 46
6, 57780, Note_on_c, 5, 51, 45
6, 57828, Note_on_c, 5, 51, 0
6, 57828, Note_on_c, 5, 63, 0
6, 57840, Note_on_c, 5, 63, 50
6, 57840, Note_on_c, 5, 51, 43
6, 57888, Note_on_c, 5, 51, 0
6, 57888, Note_on_c, 5, 63, 0
6, 57900, Note_on_c, 5, 63, 48
6, 57900, Note_on_c, 5, 51, 45
6, 57948, Note_on_c, 5, 51, 0
6, 57948, Note_on_c, 5, 63, 0
6, 57960, Note_on_c, 5, 63, 42
6, 57960, Note_on_c, 5, 51, 45
6, 58061, Control_c, 5, 7, 126
6, 58073, Control_c, 5, 7, 124
6, 58080, Control_c, 5, 7, 117
6, 58085, Control_c, 5, 7, 114
6, 58095, Control_c, 5, 7, 112
6, 58115, Control_c, 5, 7, 111
6, 58133, Control_c, 5, 7, 110
6, 58145, Control_c, 5, 7, 109
6, 58170, Control_c, 5, 7, 108
6, 58188, Control_c, 5, 7, 107
6, 58300, Control_c, 5, 7, 106
6, 58335, Control_c, 5, 7, 105
6, 58475, Control_c, 5, 7, 104
6, 58505, Control_c, 5, 7, 103
6, 58606, Control_c, 5, 7, 102
6, 58750, Control_c, 5, 7, 100
6, 59856, Note_on_c, 5, 51, 0
6, 59856, Note_on_c, 5, 63, 0
6, 65520, Note_on_c, 5, 51, 125
6, 65520, Note_on_c, 5, 63, 102
6, 65592, Note_on_c, 5, 63, 0
6, 65592, Note_on_c, 5, 51, 0
6, 65610, Note_on_c, 5, 63, 116
6, 65610, Note_on_c, 5, 51, 111
6, 65634, Note_on_c, 5, 51, 0
6, 65634, Note_on_c, 5, 63, 0
6, 65640, Note_on_c, 5, 63, 104
6, 65640, Note_on_c, 5, 51, 109
6, 65688, Note_on_c, 5, 51, 0
6, 65688, Note_on_c, 5, 63, 0
6, 65700, Note_on_c, 5, 63, 114
6, 65700, Note_on_c, 5, 51, 104
6, 65748, Note_on_c, 5, 51, 0
6, 65748, Note_on_c, 5, 63, 0
6, 65760, Note_on_c, 5, 63, 117
6, 65760, Note_on_c, 5, 51, 110
6, 65808, Note_on_c, 5, 51, 0
6, 65808, Note_on_c, 5, 63, 0
6, 65820, Note_on_c, 5, 63, 102
6, 65820, Note_on_c, 5, 51, 103
6, 65868, Note_on_c, 5, 51, 0
6, 65868, Note_on_c, 5, 63, 0
6, 65880, Note_on_c, 5, 63, 108
6, 65880, Note_on_c, 5, 51, 111
6, 66168, Note_on_c, 5, 51, 0
6, 66168, Note_on_c, 5, 63, 0
6, 79920, Note_on_c, 5, 65, 112
6, 79920, Note_on_c, 5, 58, 112
6, 79992, Note_on_c, 5, 58, 0
6, 79992, Note_on_c, 5, 65, 0
6, 80010, Note_on_c, 5, 65, 108
6, 80010, Note_on_c, 5, 58, 112
6, 80034, Note_on_c, 5, 58, 0
6, 80034, Note_on_c, 5, 65, 0
6, 80040, Note_on_c, 5, 58, 116
6, 80040, Note_on_c, 5, 65, 113
6, 80088, Note_on_c, 5, 65, 0
6, 80088, Note_on_c, 5, 58, 0
6, 80100, Note_on_c, 5, 65, 113
6, 80100, Note_on_c, 5, 58, 113
6, 80148, Note_on_c, 5, 58, 0
6, 80148, Note_on_c, 5, 65, 0
6, 80160, Note_on_c, 5, 65, 121
6, 80160, Note_on_c, 5, 58, 116
6, 80208, Note_on_c, 5, 58, 0
6, 80208, Note_on_c, 5, 65, 0
6, 80220, Note_on_c, 5, 65, 127
6, 80220, Note_on_c, 5, 58, 127
6, 80268, Note_on_c, 5, 58, 0
6, 80268, Note_on_c, 5, 65, 0
6, 80280, Note_on_c, 5, 65, 117
6, 80280, Note_on_c, 5, 58, 117
6, 80352, Note_on_c, 5, 58, 0
6, 80352, Note_on_c, 5, 65, 0
6, 80370, Note_on_c, 5, 65, 111
6, 80370, Note_on_c, 5, 58, 108
6, 80394, Note_on_c, 5, 58, 0
6, 80394, Note_on_c, 5, 65, 0
6, 80400, Note_on_c, 5, 65, 113
6, 80400, Note_on_c, 5, 58, 112
6, 80448, Note_on_c, 5, 58, 0
6, 80448, Note_on_c, 5, 65, 0
6, 80460, Note_on_c, 5, 58, 117
6, 80460, Note_on_c, 5, 65, 118
6, 80508, Note_on_c, 5, 65, 0
6, 80508, Note_on_c, 5, 58, 0
6, 80520, Note_on_c, 5, 58, 113
6, 80520, Note_on_c, 5, 65, 117
6, 80568, Note_on_c, 5, 65, 0
6, 80568, Note_on_c, 5, 58, 0
6, 80580, Note_on_c, 5, 65, 127
6, 80580, Note_on_c, 5, 58, 113
6, 80628, Note_on_c, 5, 58, 0
6, 80628, Note_on_c, 5, 65, 0
6, 81360, Note_on_c, 5, 65, 127
6, 81360, Note_on_c, 5, 58, 113
6, 81432, Note_on_c, 5, 58, 0
6, 81432, Note_on_c, 5, 65, 0
6, 81450, Note_on_c, 5, 65, 105
6, 81450, Note_on_c, 5, 58, 108
6, 81474, Note_on_c, 5, 58, 0
6, 81474, Note_on_c, 5, 65, 0
6, 81480, Note_on_c, 5, 65, 107
6, 81480, Note_on_c, 5, 58, 109
6, 81528, Note_on_c, 5, 58, 0
6, 81528, Note_on_c, 5, 65, 0
6, 81540, Note_on_c, 5, 65, 110
6, 81540, Note_on_c, 5, 58, 109
6, 81588, Note_on_c, 5, 58, 0
6, 81588, Note_on_c, 5, 65, 0
6, 81600, Note_on_c, 5, 65, 114
6, 81600, Note_on_c, 5, 58, 109
6, 81648, Note_on_c, 5, 58, 0
6, 81648, Note_on_c, 5, 65, 0
6, 81660, Note_on_c, 5, 65, 125
6, 81660, Note_on_c, 5, 58, 120
6, 81708, Note_on_c, 5, 58, 0
6, 81708, Note_on_c, 5, 65, 0
6, 81720, Note_on_c, 5, 65, 116
6, 81720, Note_on_c, 5, 58, 109
6, 81792, Note_on_c, 5, 58, 0
6, 81792, Note_on_c, 5, 65, 0
6, 81810, Note_on_c, 5, 65, 110
6, 81810, Note_on_c, 5, 58, 107
6, 81834, Note_on_c, 5, 58, 0
6, 81834, Note_on_c, 5, 65, 0
6, 81840, Note_on_c, 5, 65, 120
6, 81840, Note_on_c, 5, 58, 117
6, 81888, Note_on_c, 5, 58, 0
6, 81888, Note_on_c, 5, 65, 0
6, 81900, Note_on_c, 5, 65, 113
6, 81900, Note_on_c, 5, 58, 111
6, 81948, Note_on_c, 5, 58, 0
6, 81948, Note_on_c, 5, 65, 0
6, 81960, Note_on_c, 5, 65, 109
6, 81960, Note_on_c, 5, 58, 109
6, 82008, Note_on_c, 5, 58, 0
6, 82008, Note_on_c, 5, 65, 0
6, 82020, Note_on_c, 5, 65, 120
6, 82020, Note_on_c, 5, 58, 117
6, 82068, Note_on_c, 5, 58, 0
6, 82068, Note_on_c, 5, 65, 0
6, 82080, Note_on_c, 5, 65, 121
6, 82080, Note_on_c, 5, 58, 118
6, 82152, Note_on_c, 5, 58, 0
6, 82152, Note_on_c, 5, 65, 0
6, 82170, Note_on_c, 5, 65, 125
6, 82170, Note_on_c, 5, 58, 117
6, 82194, Note_on_c, 5, 58, 0
6, 82194, Note_on_c, 5, 65, 0
6, 82200, Note_on_c, 5, 65, 120
6, 82200, Note_on_c, 5, 58, 112
6, 82248, Note_on_c, 5, 58, 0
6, 82248, Note_on_c, 5, 65, 0
6, 82440, Note_on_c, 5, 65, 125
6, 82440, Note_on_c, 5, 58, 106
6, 82512, Note_on_c, 5, 58, 0
6, 82512, Note_on_c, 5, 65, 0
6, 82530, Note_on_c, 5, 65, 127
6, 82530, Note_on_c, 5, 58, 118
6, 82554, Note_on_c, 5, 58, 0
6, 82554, Note_on_c, 5, 65, 0
6, 82560, Note_on_c, 5, 65, 120
6, 82560, Note_on_c, 5, 58, 113
6, 82608, Note_on_c, 5, 58, 0
6, 82608, Note_on_c, 5, 65, 0
6, 88380, Note_on_c, 5, 58, 108
6, 88380, Note_on_c, 5, 46, 114
6, 91368, Note_on_c, 5, 46, 0
6, 91368, Note_on_c, 5, 58, 0
6, 91440, Note_on_c, 5, 58, 101
6, 91440, Note_on_c, 5, 46, 104
6, 91536, Note_on_c, 5, 46, 0
6, 91536, Note_on_c, 5, 58, 0
6, 91620, Note_on_c, 5, 58, 112
6, 91620, Note_on_c, 5, 46, 109
6, 91716, Note_on_c, 5, 46, 0
6, 91716, Note_on_c, 5, 58, 0
6, 91800, Note_on_c, 5, 46, 104
6, 91800, Note_on_c, 5, 58, 101
6, 91896, Note_on_c, 5, 58, 0
6, 91896, Note_on_c, 5, 46, 0
6, 91980, Note_on_c, 5, 46, 109
6, 91980, Note_on_c, 5, 58, 112
6, 92076, Note_on_c, 5, 58, 0
6, 92076, Note_on_c, 5, 46, 0
6, 92160, Note_on_c, 5, 46, 101
6, 92160, Note_on_c, 5, 58, 106
6, 92808, Note_on_c, 5, 58, 0
6, 92808, Note_on_c, 5, 46, 0
6, 94260, Note_on_c, 5, 70, 112
6, 94260, Note_on_c, 5, 58, 116
6, 94308, Note_on_c, 5, 58, 0
6, 94308, Note_on_c, 5, 70, 0
6, 94320, Note_on_c, 5, 67, 114
6, 94320, Note_on_c, 5, 63, 110
6, 94428, Note_on_c, 5, 63, 0
6, 94428, Note_on_c, 5, 67, 0
6, 94440, Note_on_c, 5, 67, 117
6, 94440, Note_on_c, 5, 63, 109
6, 94596, Note_on_c, 5, 63, 0
6, 94596, Note_on_c, 5, 67, 0
6, 94620, Note_on_c, 5, 67, 111
6, 94620, Note_on_c, 5, 63, 123
6, 94668, Note_on_c, 5, 63, 0
6, 94668, Note_on_c, 5, 67, 0
6, 94680, Note_on_c, 5, 67, 127
6, 94680, Note_on_c, 5, 63, 125
6, 94728, Note_on_c, 5, 63, 0
6, 94728, Note_on_c, 5, 67, 0
6, 94740, Note_on_c, 5, 67, 127
6, 94740, Note_on_c, 5, 63, 127
6, 94956, Note_on_c, 5, 63, 0
6, 94956, Note_on_c, 5, 67, 0
6, 94980, Note_on_c, 5, 63, 127
6, 94980, Note_on_c, 5, 67, 127
6, 95028, Note_on_c, 5, 67, 0
6, 95028, Note_on_c, 5, 63, 0
6, 95040, Note_on_c, 5, 58, 105
6, 95040, Note_on_c, 5, 65, 127
6, 95136, Note_on_c, 5, 65, 0
6, 95136, Note_on_c, 5, 58, 0
6, 95160, Note_on_c, 5, 58, 117
6, 95160, Note_on_c, 5, 65, 127
6, 95208, Note_on_c, 5, 65, 0
6, 95208, Note_on_c, 5, 58, 0
6, 95220, Note_on_c, 5, 55, 109
6, 95220, Note_on_c, 5, 63, 116
6, 95316, Note_on_c, 5, 63, 0
6, 95316, Note_on_c, 5, 55, 0
6, 95340, Note_on_c, 5, 67, 118
6, 95340, Note_on_c, 5, 63, 127
6, 95388, Note_on_c, 5, 63, 0
6, 95388, Note_on_c, 5, 67, 0
6, 95400, Note_on_c, 5, 58, 103
6, 95400, Note_on_c, 5, 65, 107
6, 95544, Note_on_c, 5, 65, 0
6, 95544, Note_on_c, 5, 58, 0
6, 95580, Note_on_c, 5, 58, 111
6, 95580, Note_on_c, 5, 65, 118
6, 95628, Note_on_c, 5, 65, 0
6, 95628, Note_on_c, 5, 58, 0
6, 95700, Note_on_c, 5, 58, 102
6, 95700, Note_on_c, 5, 70, 112
6, 95748, Note_on_c, 5, 70, 0
6, 95748, Note_on_c, 5, 58, 0
6, 95760, Note_on_c, 5, 63, 121
6, 95760, Note_on_c, 5, 67, 116
6, 95868, Note_on_c, 5, 67, 0
6, 95868, Note_on_c, 5, 63, 0
6, 95880, Note_on_c, 5, 67, 113
6, 95880, Note_on_c, 5, 63, 123
6, 96036, Note_on_c, 5, 63, 0
6, 96036, Note_on_c, 5, 67, 0
6, 96060, Note_on_c, 5, 67, 127
6, 96060, Note_on_c, 5, 63, 120
6, 96108, Note_on_c, 5, 63, 0
6, 96108, Note_on_c, 5, 67, 0
6, 96120, Note_on_c, 5, 67, 113
6, 96120, Note_on_c, 5, 63, 118
6, 96168, Note_on_c, 5, 63, 0
6, 96168, Note_on_c, 5, 67, 0
6, 96180, Note_on_c, 5, 63, 123
6, 96180, Note_on_c, 5, 67, 116
6, 96396, Note_on_c, 5, 67, 0
6, 96396, Note_on_c, 5, 63, 0
6, 96420, Note_on_c, 5, 67, 125
6, 96420, Note_on_c, 5, 63, 127
6, 96468, Note_on_c, 5, 63, 0
6, 96468, Note_on_c, 5, 67, 0
6, 96480, Note_on_c, 5, 58, 109
6, 96480, Note_on_c, 5, 65, 120
6, 96576, Note_on_c, 5, 65, 0
6, 96576, Note_on_c, 5, 58, 0
6, 96600, Note_on_c, 5, 58, 108
6, 96600, Note_on_c, 5, 65, 114
6, 96648, Note_on_c, 5, 65, 0
6, 96648, Note_on_c, 5, 58, 0
6, 96660, Note_on_c, 5, 63, 120
6, 96660, Note_on_c, 5, 55, 113
6, 96756, Note_on_c, 5, 55, 0
6, 96756, Note_on_c, 5, 63, 0
6, 96780, Note_on_c, 5, 63, 127
6, 96780, Note_on_c, 5, 67, 118
6, 96828, Note_on_c, 5, 67, 0
6, 96828, Note_on_c, 5, 63, 0
6, 96840, Note_on_c, 5, 58, 105
6, 96840, Note_on_c, 5, 65, 110
6, 96984, Note_on_c, 5, 65, 0
6, 96984, Note_on_c, 5, 58, 0
6, 97020, Note_on_c, 5, 65, 114
6, 97020, Note_on_c, 5, 58, 107
6, 97116, Note_on_c, 5, 58, 0
6, 97116, Note_on_c, 5, 65, 0
6, 97200, Note_on_c, 5, 46, 109
6, 97200, Note_on_c, 5, 55, 117
6, 97296, Note_on_c, 5, 55, 0
6, 97296, Note_on_c, 5, 46, 0
6, 97380, Note_on_c, 5, 55, 114
6, 97380, Note_on_c, 5, 46, 120
6, 97476, Note_on_c, 5, 46, 0
6, 97476, Note_on_c, 5, 55, 0
6, 97560, Note_on_c, 5, 46, 108
6, 97560, Note_on_c, 5, 55, 112
6, 97656, Note_on_c, 5, 55, 0
6, 97656, Note_on_c, 5, 46, 0
6, 97740, Note_on_c, 5, 46, 117
6, 97740, Note_on_c, 5, 55, 125
6, 97836, Note_on_c, 5, 55, 0
6, 97836, Note_on_c, 5, 46, 0
6, 97920, Note_on_c, 5, 65, 120
6, 97920, Note_on_c, 5, 68, 114
6, 98016, Note_on_c, 5, 68, 0
6, 98016, Note_on_c, 5, 65, 0
6, 98040, Note_on_c, 5, 65, 123
6, 98040, Note_on_c, 5, 68, 123
6, 98088, Note_on_c, 5, 68, 0
6, 98088, Note_on_c, 5, 65, 0
6, 98100, Note_on_c, 5, 68, 127
6, 98100, Note_on_c, 5, 65, 127
6, 98172, Note_on_c, 5, 65, 0
6, 98172, Note_on_c, 5, 68, 0
6, 98190, Note_on_c, 5, 63, 109
6, 98190, Note_on_c, 5, 67, 123
6, 98214, Note_on_c, 5, 67, 0
6, 98214, Note_on_c, 5, 63, 0
6, 98220, Note_on_c, 5, 58, 103
6, 98220, Note_on_c, 5, 65, 113
6, 98268, Note_on_c, 5, 65, 0
6, 98268, Note_on_c, 5, 58, 0
6, 98280, Note_on_c, 5, 55, 127
6, 98280, Note_on_c, 5, 63, 127
6, 98376, Note_on_c, 5, 63, 0
6, 98376, Note_on_c, 5, 55, 0
6, 98400, Note_on_c, 5, 55, 117
6, 98400, Note_on_c, 5, 63, 121
6, 98448, Note_on_c, 5, 63, 0
6, 98448, Note_on_c, 5, 55, 0
6, 98460, Note_on_c, 5, 55, 111
6, 98460, Note_on_c, 5, 63, 127
6, 98556, Note_on_c, 5, 63, 0
6, 98556, Note_on_c, 5, 55, 0
6, 98580, Note_on_c, 5, 65, 127
6, 98580, Note_on_c, 5, 58, 125
6, 98628, Note_on_c, 5, 58, 0
6, 98628, Note_on_c, 5, 65, 0
6, 98640, Note_on_c, 5, 68, 127
6, 98640, Note_on_c, 5, 65, 127
6, 98736, Note_on_c, 5, 65, 0
6, 98736, Note_on_c, 5, 68, 0
6, 98760, Note_on_c, 5, 68, 127
6, 98760, Note_on_c, 5, 65, 127
6, 98808, Note_on_c, 5, 65, 0
6, 98808, Note_on_c, 5, 68, 0
6, 98820, Note_on_c, 5, 68, 127
6, 98820, Note_on_c, 5, 65, 127
6, 98892, Note_on_c, 5, 65, 0
6, 98892, Note_on_c, 5, 68, 0
6, 98910, Note_on_c, 5, 67, 118
6, 98910, Note_on_c, 5, 63, 114
6, 98934, Note_on_c, 5, 63, 0
6, 98934, Note_on_c, 5, 67, 0
6, 98940, Note_on_c, 5, 65, 121
6, 98940, Note_on_c, 5, 58, 103
6, 98988, Note_on_c, 5, 58, 0
6, 98988, Note_on_c, 5, 65, 0
6, 99000, Note_on_c, 5, 55, 121
6, 99000, Note_on_c, 5, 63, 125
6, 99096, Note_on_c, 5, 63, 0
6, 99096, Note_on_c, 5, 55, 0
6, 99360, Note_on_c, 5, 65, 127
6, 99456, Note_on_c, 5, 65, 0
6, 99720, Note_on_c, 5, 67, 127
6, 99816, Note_on_c, 5, 67, 0
6, 100080, Note_on_c, 5, 65, 125
6, 100080, Note_on_c, 5, 63, 127
6, 100176, Note_on_c, 5, 63, 0
6, 100176, Note_on_c, 5, 65, 0
6, 100260, Note_on_c, 5, 65, 121
6, 100260, Note_on_c, 5, 63, 127
6, 100356, Note_on_c, 5, 63, 0
6, 100356, Note_on_c, 5, 65, 0
6, 100440, Note_on_c, 5, 58, 110
6, 100440, Note_on_c, 5, 65, 105
6, 100512, Note_on_c, 5, 65, 0
6, 100512, Note_on_c, 5, 58, 0
6, 100530, Note_on_c, 5, 58, 107
6, 100530, Note_on_c, 5, 65, 107
6, 100554, Note_on_c, 5, 65, 0
6, 100554, Note_on_c, 5, 58, 0
6, 100560, Note_on_c, 5, 65, 104
6, 100560, Note_on_c, 5, 58, 109
6, 100608, Note_on_c, 5, 58, 0
6, 100608, Note_on_c, 5, 65, 0
6, 100620, Note_on_c, 5, 67, 105
6, 100620, Note_on_c, 5, 63, 107
6, 100692, Note_on_c, 5, 63, 0
6, 100692, Note_on_c, 5, 67, 0
6, 100710, Note_on_c, 5, 63, 110
6, 100710, Note_on_c, 5, 67, 121
6, 100734, Note_on_c, 5, 67, 0
6, 100734, Note_on_c, 5, 63, 0
6, 100740, Note_on_c, 5, 67, 120
6, 100740, Note_on_c, 5, 63, 121
6, 100788, Note_on_c, 5, 63, 0
6, 100788, Note_on_c, 5, 67, 0
6, 100800, Note_on_c, 5, 65, 121
6, 100800, Note_on_c, 5, 63, 117
6, 100896, Note_on_c, 5, 63, 0
6, 100896, Note_on_c, 5, 65, 0
6, 100980, Note_on_c, 5, 58, 109
6, 100980, Note_on_c, 5, 65, 118
6, 101076, Note_on_c, 5, 65, 0
6, 101076, Note_on_c, 5, 58, 0
6, 101160, Note_on_c, 5, 51, 109
6, 101160, Note_on_c, 5, 63, 103
6, 101232, Note_on_c, 5, 63, 0
6, 101232, Note_on_c, 5, 51, 0
6, 101250, Note_on_c, 5, 51, 108
6, 101250, Note_on_c, 5, 63, 105
6, 101274, Note_on_c, 5, 63, 0
6, 101274, Note_on_c, 5, 51, 0
6, 101280, Note_on_c, 5, 51, 101
6, 101280, Note_on_c, 5, 63, 103
6, 101328, Note_on_c, 5, 63, 0
6, 101328, Note_on_c, 5, 51, 0
6, 101340, Note_on_c, 5, 63, 103
6, 101340, Note_on_c, 5, 51, 107
6, 101388, Note_on_c, 5, 51, 0
6, 101388, Note_on_c, 5, 63, 0
6, 101400, Note_on_c, 5, 51, 105
6, 101400, Note_on_c, 5, 63, 104
6, 101448, Note_on_c, 5, 63, 0
6, 101448, Note_on_c, 5, 51, 0
6, 101460, Note_on_c, 5, 51, 98
6, 101460, Note_on_c, 5, 63, 91
6, 101508, Note_on_c, 5, 63, 0
6, 101508, Note_on_c, 5, 51, 0
6, 101520, Note_on_c, 5, 51, 107
6, 101520, Note_on_c, 5, 63, 80
6, 101808, Note_on_c, 5, 63, 0
6, 101808, Note_on_c, 5, 51, 0
6, 101880, Note_on_c, 5, 46, 102
6, 101880, Note_on_c, 5, 58, 100
6, 101952, Note_on_c, 5, 58, 0
6, 101952, Note_on_c, 5, 46, 0
6, 101970, Note_on_c, 5, 46, 99
6, 101970, Note_on_c, 5, 58, 107
6, 101994, Note_on_c, 5, 58, 0
6, 101994, Note_on_c, 5, 46, 0
6, 102000, Note_on_c, 5, 46, 109
6, 102000, Note_on_c, 5, 58, 112
6, 102048, Note_on_c, 5, 58, 0
6, 102048, Note_on_c, 5, 46, 0
6, 102060, Note_on_c, 5, 46, 108
6, 102060, Note_on_c, 5, 58, 120
6, 102108, Note_on_c, 5, 58, 0
6, 102108, Note_on_c, 5, 46, 0
6, 102120, Note_on_c, 5, 46, 103
6, 102120, Note_on_c, 5, 58, 109
6, 102168, Note_on_c, 5, 58, 0
6, 102168, Note_on_c, 5, 46, 0
6, 102180, Note_on_c, 5, 46, 100
6, 102180, Note_on_c, 5, 58, 98
6, 102228, Note_on_c, 5, 58, 0
6, 102228, Note_on_c, 5, 46, 0
6, 102240, Note_on_c, 5, 46, 101
6, 102240, Note_on_c, 5, 58, 103
6, 102528, Note_on_c, 5, 58, 0
6, 102528, Note_on_c, 5, 46, 0
6, 102600, Note_on_c, 5, 63, 96
6, 102600, Note_on_c, 5, 51, 102
6, 102672, Note_on_c, 5, 51, 0
6, 102672, Note_on_c, 5, 63, 0
6, 102690, Note_on_c, 5, 51, 101
6, 102690, Note_on_c, 5, 63, 100
6, 102714, Note_on_c, 5, 63, 0
6, 102714, Note_on_c, 5, 51, 0
6, 102720, Note_on_c, 5, 51, 101
6, 102720, Note_on_c, 5, 63, 105
6, 102768, Note_on_c, 5, 63, 0
6, 102768, Note_on_c, 5, 51, 0
6, 102780, Note_on_c, 5, 51, 103
6, 102780, Note_on_c, 5, 63, 105
6, 102828, Note_on_c, 5, 63, 0
6, 102828, Note_on_c, 5, 51, 0
6, 102840, Note_on_c, 5, 51, 103
6, 102840, Note_on_c, 5, 63, 102
6, 102888, Note_on_c, 5, 63, 0
6, 102888, Note_on_c, 5, 51, 0
6, 102900, Note_on_c, 5, 51, 108
6, 102900, Note_on_c, 5, 63, 108
6, 102948, Note_on_c, 5, 63, 0
6, 102948, Note_on_c, 5, 51, 0
6, 102960, Note_on_c, 5, 51, 100
6, 102960, Note_on_c, 5, 63, 99
6, 103032, Note_on_c, 5, 63, 0
6, 103032, Note_on_c, 5, 51, 0
6, 103050, Note_on_c, 5, 51, 103
6, 103050, Note_on_c, 5, 63, 107
6, 103074, Note_on_c, 5, 63, 0
6, 103074, Note_on_c, 5, 51, 0
6, 103080, Note_on_c, 5, 51, 102
6, 103080, Note_on_c, 5, 63, 102
6, 103128, Note_on_c, 5, 63, 0
6, 103128, Note_on_c, 5, 51, 0
6, 103140, Note_on_c, 5, 51, 103
6, 103140, Note_on_c, 5, 63, 102
6, 103188, Note_on_c, 5, 63, 0
6, 103188, Note_on_c, 5, 51, 0
6, 103200, Note_on_c, 5, 51, 103
6, 103200, Note_on_c, 5, 63, 102
6, 103248, Note_on_c, 5, 63, 0
6, 103248, Note_on_c, 5, 51, 0
6, 103260, Note_on_c, 5, 51, 106
6, 103260, Note_on_c, 5, 63, 107
6, 103308, Note_on_c, 5, 63, 0
6, 103308, Note_on_c, 5, 51, 0
6, 103320, Note_on_c, 5, 63, 102
6, 103320, Note_on_c, 5, 51, 101
6, 103416, Note_on_c, 5, 51, 0
6, 103416, Note_on_c, 5, 63, 0
6, 105840, Note_on_c, 5, 27, 86
6, 107196, Note_on_c, 5, 27, 0
6, 109980, Note_on_c, 5, 68, 127
6, 110028, Note_on_c, 5, 68, 0
6, 110040, Note_on_c, 5, 67, 111
6, 110088, Note_on_c, 5, 67, 0
6, 110100, Note_on_c, 5, 65, 127
6, 110148, Note_on_c, 5, 65, 0
6, 110160, Note_on_c, 5, 63, 114
6, 110208, Note_on_c, 5, 63, 0
6, 110220, Note_on_c, 5, 62, 105
6, 110268, Note_on_c, 5, 62, 0
6, 110280, Note_on_c, 5, 60, 112
6, 110328, Note_on_c, 5, 60, 0
6, 110340, Note_on_c, 5, 58, 100
6, 110436, Note_on_c, 5, 58, 0
6, 110460, Note_on_c, 5, 58, 99
6, 110508, Note_on_c, 5, 58, 0
6, 111240, Note_on_c, 5, 65, 114
6, 111240, Note_on_c, 5, 68, 108
6, 111336, Note_on_c, 5, 68, 0
6, 111336, Note_on_c, 5, 65, 0
6, 112080, Note_on_c, 5, 65, 125
6, 112080, Note_on_c, 5, 58, 108
6, 112128, Note_on_c, 5, 58, 0
6, 112128, Note_on_c, 5, 65, 0
6, 112140, Note_on_c, 5, 67, 123
6, 112140, Note_on_c, 5, 58, 105
6, 112236, Note_on_c, 5, 58, 0
6, 112236, Note_on_c, 5, 67, 0
6, 112260, Note_on_c, 5, 65, 120
6, 112260, Note_on_c, 5, 58, 110
6, 112308, Note_on_c, 5, 58, 0
6, 112308, Note_on_c, 5, 65, 0
6, 112320, Note_on_c, 5, 65, 127
6, 112320, Note_on_c, 5, 58, 110
6, 112416, Note_on_c, 5, 58, 0
6, 112416, Note_on_c, 5, 65, 0
6, 113040, Note_on_c, 5, 58, 103
6, 113040, Note_on_c, 5, 46, 102
6, 113136, Note_on_c, 5, 46, 0
6, 113136, Note_on_c, 5, 58, 0
6, 123480, Note_on_c, 5, 63, 116
6, 123480, Note_on_c, 5, 51, 109
6, 123528, Note_on_c, 5, 51, 0
6, 123528, Note_on_c, 5, 63, 0
6, 123540, Note_on_c, 5, 63, 111
6, 123540, Note_on_c, 5, 51, 108
6, 123636, Note_on_c, 5, 51, 0
6, 123636, Note_on_c, 5, 63, 0
6, 123660, Note_on_c, 5, 63, 103
6, 123660, Note_on_c, 5, 51, 112
6, 123708, Note_on_c, 5, 51, 0
6, 123708, Note_on_c, 5, 63, 0
6, 123720, Note_on_c, 5, 63, 120
6, 123720, Note_on_c, 5, 51, 120
6, 123816, Note_on_c, 5, 51, 0
6, 123816, Note_on_c, 5, 63, 0
6, 123840, Note_on_c, 5, 63, 109
6, 123840, Note_on_c, 5, 51, 105
6, 123888, Note_on_c, 5, 51, 0
6, 123888, Note_on_c, 5, 63, 0
6, 123900, Note_on_c, 5, 63, 108
6, 123900, Note_on_c, 5, 51, 112
6, 123996, Note_on_c, 5, 51, 0
6, 123996, Note_on_c, 5, 63, 0
6, 124920, Note_on_c, 5, 51, 109
6, 124920, Note_on_c, 5, 63, 116
6, 124968, Note_on_c, 5, 63, 0
6, 124968, Note_on_c, 5, 51, 0
6, 124980, Note_on_c, 5, 51, 108
6, 124980, Note_on_c, 5, 63, 111
6, 125076, Note_on_c, 5, 63, 0
6, 125076, Note_on_c, 5, 51, 0
6, 125100, Note_on_c, 5, 51, 112
6, 125100, Note_on_c, 5, 63, 103
6, 125148, Note_on_c, 5, 63, 0
6, 125148, Note_on_c, 5, 51, 0
6, 125160, Note_on_c, 5, 51, 120
6, 125160, Note_on_c, 5, 63, 120
6, 125256, Note_on_c, 5, 63, 0
6, 125256, Note_on_c, 5, 51, 0
6, 125280, Note_on_c, 5, 51, 105
6, 125280, Note_on_c, 5, 63, 109
6, 125328, Note_on_c, 5, 63, 0
6, 125328, Note_on_c, 5, 51, 0
6, 125340, Note_on_c, 5, 51, 112
6, 125340, Note_on_c, 5, 63, 108
6, 125436, Note_on_c, 5, 63, 0
6, 125436, Note_on_c, 5, 51, 0
6, 126360, Note_on_c, 5, 63, 123
6, 126360, Note_on_c, 5, 51, 114
6, 126408, Note_on_c, 5, 51, 0
6, 126408, Note_on_c, 5, 63, 0
6, 126420, Note_on_c, 5, 63, 99
6, 126420, Note_on_c, 5, 51, 101
6, 126516, Note_on_c, 5, 51, 0
6, 126516, Note_on_c, 5, 63, 0
6, 126540, Note_on_c, 5, 63, 109
6, 126540, Note_on_c, 5, 51, 107
6, 126588, Note_on_c, 5, 51, 0
6, 126588, Note_on_c, 5, 63, 0
6, 126600, Note_on_c, 5, 63, 110
6, 126600, Note_on_c, 5, 51, 105
6, 126672, Note_on_c, 5, 51, 0
6, 126672, Note_on_c, 5, 63, 0
6, 126690, Note_on_c, 5, 63, 107
6, 126690, Note_on_c, 5, 51, 108
6, 126714, Note_on_c, 5, 51, 0
6, 126714, Note_on_c, 5, 63, 0
6, 126720, Note_on_c, 5, 63, 111
6, 126720, Note_on_c, 5, 51, 109
6, 126768, Note_on_c, 5, 51, 0
6, 126768, Note_on_c, 5, 63, 0
6, 126780, Note_on_c, 5, 63, 112
6, 126780, Note_on_c, 5, 51, 107
6, 126876, Note_on_c, 5, 51, 0
6, 126876, Note_on_c, 5, 63, 0
6, 126900, Note_on_c, 5, 63, 113
6, 126900, Note_on_c, 5, 51, 109
6, 126948, Note_on_c, 5, 51, 0
6, 126948, Note_on_c, 5, 63, 0
6, 126960, Note_on_c, 5, 63, 116
6, 126960, Note_on_c, 5, 51, 109
6, 127056, Note_on_c, 5, 51, 0
6, 127056, Note_on_c, 5, 63, 0
6, 128520, Note_on_c, 5, 58, 117
6, 128520, Note_on_c, 5, 46, 120
6, 128568, Note_on_c, 5, 46, 0
6, 128568, Note_on_c, 5, 58, 0
6, 128580, Note_on_c, 5, 63, 121
6, 128580, Note_on_c, 5, 55, 127
6, 128676, Note_on_c, 5, 55, 0
6, 128676, Note_on_c, 5, 63, 0
6, 128760, Note_on_c, 5, 63, 127
6, 128760, Note_on_c, 5, 55, 109
6, 128856, Note_on_c, 5, 55, 0
6, 128856, Note_on_c, 5, 63, 0
6, 128940, Note_on_c, 5, 63, 108
6, 128940, Note_on_c, 5, 55, 104
6, 129036, Note_on_c, 5, 55, 0
6, 129036, Note_on_c, 5, 63, 0
6, 129120, Note_on_c, 5, 63, 114
6, 129120, Note_on_c, 5, 55, 107
6, 129216, Note_on_c, 5, 55, 0
6, 129216, Note_on_c, 5, 63, 0
6, 129300, Note_on_c, 5, 65, 114
6, 129300, Note_on_c, 5, 58, 121
6, 129396, Note_on_c, 5, 58, 0
6, 129396, Note_on_c, 5, 65, 0
6, 129480, Note_on_c, 5, 63, 123
6, 129480, Note_on_c, 5, 55, 100
6, 129576, Note_on_c, 5, 55, 0
6, 129576, Note_on_c, 5, 63, 0
6, 129660, Note_on_c, 5, 58, 121
6, 129660, Note_on_c, 5, 65, 116
6, 129756, Note_on_c, 5, 65, 0
6, 129756, Note_on_c, 5, 58, 0
6, 129840, Note_on_c, 5, 65, 125
6, 129840, Note_on_c, 5, 58, 127
6, 129936, Note_on_c, 5, 58, 0
6, 129936, Note_on_c, 5, 65, 0
6, 129960, Note_on_c, 5, 58, 107
6, 129960, Note_on_c, 5, 46, 108
6, 130008, Note_on_c, 5, 46, 0
6, 130008, Note_on_c, 5, 58, 0
6, 130020, Note_on_c, 5, 63, 116
6, 130020, Note_on_c, 5, 55, 116
6, 130116, Note_on_c, 5, 55, 0
6, 130116, Note_on_c, 5, 63, 0
6, 130200, Note_on_c, 5, 63, 127
6, 130200, Note_on_c, 5, 55, 117
6, 130296, Note_on_c, 5, 55, 0
6, 130296, Note_on_c, 5, 63, 0
6, 130380, Note_on_c, 5, 63, 117
6, 130380, Note_on_c, 5, 55, 117
6, 130476, Note_on_c, 5, 55, 0
6, 130476, Note_on_c, 5, 63, 0
6, 130560, Note_on_c, 5, 63, 120
6, 130560, Note_on_c, 5, 55, 117
6, 130656, Note_on_c, 5, 55, 0
6, 130656, Note_on_c, 5, 63, 0
6, 130740, Note_on_c, 5, 65, 127
6, 130740, Note_on_c, 5, 58, 127
6, 130836, Note_on_c, 5, 58, 0
6, 130836, Note_on_c, 5, 65, 0
6, 130920, Note_on_c, 5, 55, 117
6, 130920, Note_on_c, 5, 63, 125
6, 131016, Note_on_c, 5, 63, 0
6, 131016, Note_on_c, 5, 55, 0
6, 131100, Note_on_c, 5, 65, 120
6, 131100, Note_on_c, 5, 58, 127
6, 131196, Note_on_c, 5, 58, 0
6, 131196, Note_on_c, 5, 65, 0
6, 131280, Note_on_c, 5, 58, 127
6, 131280, Note_on_c, 5, 46, 120
6, 131376, Note_on_c, 5, 46, 0
6, 131376, Note_on_c, 5, 58, 0
6, 131460, Note_on_c, 5, 58, 127
6, 131460, Note_on_c, 5, 46, 112
6, 131556, Note_on_c, 5, 46, 0
6, 131556, Note_on_c, 5, 58, 0
6, 131640, Note_on_c, 5, 58, 113
6, 131640, Note_on_c, 5, 46, 114
6, 131736, Note_on_c, 5, 46, 0
6, 131736, Note_on_c, 5, 58, 0
6, 131820, Note_on_c, 5, 58, 114
6, 131820, Note_on_c, 5, 46, 111
6, 131916, Note_on_c, 5, 46, 0
6, 131916, Note_on_c, 5, 58, 0
6, 132000, Note_on_c, 5, 58, 127
6, 132000, Note_on_c, 5, 46, 105
6, 132096, Note_on_c, 5, 46, 0
6, 132096, Note_on_c, 5, 58, 0
6, 132180, Note_on_c, 5, 65, 127
6, 132180, Note_on_c, 5, 58, 127
6, 132276, Note_on_c, 5, 58, 0
6, 132276, Note_on_c, 5, 65, 0
6, 132360, Note_on_c, 5, 58, 127
6, 132360, Note_on_c, 5, 65, 125
6, 132456, Note_on_c, 5, 65, 0
6, 132456, Note_on_c, 5, 58, 0
6, 132540, Note_on_c, 5, 55, 127
6, 132540, Note_on_c, 5, 63, 113
6, 132636, Note_on_c, 5, 63, 0
6, 132636, Note_on_c, 5, 55, 0
6, 132720, Note_on_c, 5, 63, 121
6, 132720, Note_on_c, 5, 55, 127
6, 132816, Note_on_c, 5, 55, 0
6, 132816, Note_on_c, 5, 63, 0
6, 133380, Note_on_c, 5, 63, 108
6, 133380, Note_on_c, 5, 51, 104
6, 133428, Note_on_c, 5, 51, 0
6, 133428, Note_on_c, 5, 63, 0
6, 133440, Note_on_c, 5, 63, 127
6, 133440, Note_on_c, 5, 51, 127
6, 133488, Note_on_c, 5, 51, 0
6, 133488, Note_on_c, 5, 63, 0
6, 133500, Note_on_c, 5, 67, 117
6, 133500, Note_on_c, 5, 55, 106
6, 133548, Note_on_c, 5, 55, 0
6, 133548, Note_on_c, 5, 67, 0
6, 133560, Note_on_c, 5, 63, 109
6, 133560, Note_on_c, 5, 51, 106
6, 133608, Note_on_c, 5, 51, 0
6, 133608, Note_on_c, 5, 63, 0
6, 133620, Note_on_c, 5, 70, 100
6, 133620, Note_on_c, 5, 58, 107
6, 135516, Note_on_c, 5, 58, 0
6, 135516, Note_on_c, 5, 70, 0
6, 135540, Note_on_c, 5, 63, 111
6, 135540, Note_on_c, 5, 55, 109
6, 135588, Note_on_c, 5, 55, 0
6, 135588, Note_on_c, 5, 63, 0
6, 135600, Note_on_c, 5, 63, 114
6, 135600, Note_on_c, 5, 55, 102
6, 135672, Note_on_c, 5, 55, 0
6, 135672, Note_on_c, 5, 63, 0
6, 135690, Note_on_c, 5, 65, 127
6, 135690, Note_on_c, 5, 58, 125
6, 135714, Note_on_c, 5, 58, 0
6, 135714, Note_on_c, 5, 65, 0
6, 135720, Note_on_c, 5, 67, 116
6, 135720, Note_on_c, 5, 63, 111
6, 135768, Note_on_c, 5, 63, 0
6, 135768, Note_on_c, 5, 67, 0
6, 135780, Note_on_c, 5, 65, 127
6, 135780, Note_on_c, 5, 68, 127
6, 135828, Note_on_c, 5, 68, 0
6, 135828, Note_on_c, 5, 65, 0
6, 135900, Note_on_c, 5, 65, 127
6, 135900, Note_on_c, 5, 58, 112
6, 135948, Note_on_c, 5, 58, 0
6, 135948, Note_on_c, 5, 65, 0
6, 135960, Note_on_c, 5, 65, 127
6, 135960, Note_on_c, 5, 58, 118
6, 136032, Note_on_c, 5, 58, 0
6, 136032, Note_on_c, 5, 65, 0
6, 136050, Note_on_c, 5, 67, 127
6, 136050, Note_on_c, 5, 63, 127
6, 136074, Note_on_c, 5, 63, 0
6, 136074, Note_on_c, 5, 67, 0
6, 136080, Note_on_c, 5, 68, 127
6, 136080, Note_on_c, 5, 65, 127
6, 136128, Note_on_c, 5, 65, 0
6, 136128, Note_on_c, 5, 68, 0
6, 136140, Note_on_c, 5, 67, 127
6, 136140, Note_on_c, 5, 70, 127
6, 136236, Note_on_c, 5, 70, 0
6, 136236, Note_on_c, 5, 67, 0
6, 136680, Note_on_c, 5, 63, 127
6, 136680, Note_on_c, 5, 67, 121
6, 136752, Note_on_c, 5, 67, 0
6, 136752, Note_on_c, 5, 63, 0
6, 136770, Note_on_c, 5, 63, 127
6, 136770, Note_on_c, 5, 67, 127
6, 136794, Note_on_c, 5, 67, 0
6, 136794, Note_on_c, 5, 63, 0
6, 136800, Note_on_c, 5, 63, 127
6, 136800, Note_on_c, 5, 67, 127
6, 136848, Note_on_c, 5, 67, 0
6, 136848, Note_on_c, 5, 63, 0
6, 137400, Note_on_c, 5, 63, 127
6, 137400, Note_on_c, 5, 65, 127
6, 137472, Note_on_c, 5, 65, 0
6, 137472, Note_on_c, 5, 63, 0
6, 137490, Note_on_c, 5, 63, 121
6, 137490, Note_on_c, 5, 65, 127
6, 137514, Note_on_c, 5, 65, 0
6, 137514, Note_on_c, 5, 63, 0
6, 137520, Note_on_c, 5, 63, 127
6, 137520, Note_on_c, 5, 65, 127
6, 137568, Note_on_c, 5, 65, 0
6, 137568, Note_on_c, 5, 63, 0
6, 138120, Note_on_c, 5, 65, 123
6, 138120, Note_on_c, 5, 58, 127
6, 138192, Note_on_c, 5, 58, 0
6, 138192, Note_on_c, 5, 65, 0
6, 138210, Note_on_c, 5, 65, 118
6, 138210, Note_on_c, 5, 58, 125
6, 138234, Note_on_c, 5, 58, 0
6, 138234, Note_on_c, 5, 65, 0
6, 138240, Note_on_c, 5, 65, 114
6, 138240, Note_on_c, 5, 58, 127
6, 138288, Note_on_c, 5, 58, 0
6, 138288, Note_on_c, 5, 65, 0
6, 138300, Note_on_c, 5, 63, 127
6, 138300, Note_on_c, 5, 55, 121
6, 138396, Note_on_c, 5, 55, 0
6, 138396, Note_on_c, 5, 63, 0
6, 138660, Note_on_c, 5, 65, 121
6, 138660, Note_on_c, 5, 58, 127
6, 138756, Note_on_c, 5, 58, 0
6, 138756, Note_on_c, 5, 65, 0
6, 140580, Note_on_c, 5, 63, 127
6, 140580, Note_on_c, 5, 55, 121
6, 140628, Note_on_c, 5, 55, 0
6, 140628, Note_on_c, 5, 63, 0
6, 140640, Note_on_c, 5, 63, 127
6, 140640, Note_on_c, 5, 55, 123
6, 140712, Note_on_c, 5, 55, 0
6, 140712, Note_on_c, 5, 63, 0
6, 140730, Note_on_c, 5, 65, 127
6, 140730, Note_on_c, 5, 58, 127
6, 140754, Note_on_c, 5, 58, 0
6, 140754, Note_on_c, 5, 65, 0
6, 140760, Note_on_c, 5, 67, 120
6, 140760, Note_on_c, 5, 63, 127
6, 140808, Note_on_c, 5, 63, 0
6, 140808, Note_on_c, 5, 67, 0
6, 140820, Note_on_c, 5, 65, 127
6, 140820, Note_on_c, 5, 68, 127
6, 140868, Note_on_c, 5, 68, 0
6, 140868, Note_on_c, 5, 65, 0
6, 140940, Note_on_c, 5, 65, 113
6, 140940, Note_on_c, 5, 58, 127
6, 140988, Note_on_c, 5, 58, 0
6, 140988, Note_on_c, 5, 65, 0
6, 141000, Note_on_c, 5, 65, 127
6, 141000, Note_on_c, 5, 58, 127
6, 141072, Note_on_c, 5, 58, 0
6, 141072, Note_on_c, 5, 65, 0
6, 141090, Note_on_c, 5, 67, 125
6, 141090, Note_on_c, 5, 63, 125
6, 141114, Note_on_c, 5, 63, 0
6, 141114, Note_on_c, 5, 67, 0
6, 141120, Note_on_c, 5, 65, 127
6, 141120, Note_on_c, 5, 68, 127
6, 141168, Note_on_c, 5, 68, 0
6, 141168, Note_on_c, 5, 65, 0
6, 141180, Note_on_c, 5, 70, 127
6, 141180, Note_on_c, 5, 67, 127
6, 141276, Note_on_c, 5, 67, 0
6, 141276, Note_on_c, 5, 70, 0
6, 141360, Note_on_c, 5, 63, 120
6, 141360, Note_on_c, 5, 51, 113
6, 141456, Note_on_c, 5, 51, 0
6, 141456, Note_on_c, 5, 63, 0
6, 141540, Note_on_c, 5, 63, 127
6, 141540, Note_on_c, 5, 51, 120
6, 141636, Note_on_c, 5, 51, 0
6, 141636, Note_on_c, 5, 63, 0
6, 141720, Note_on_c, 5, 63, 127
6, 141720, Note_on_c, 5, 51, 116
6, 141816, Note_on_c, 5, 51, 0
6, 141816, Note_on_c, 5, 63, 0
6, 141900, Note_on_c, 5, 63, 127
6, 141900, Note_on_c, 5, 65, 127
6, 141996, Note_on_c, 5, 65, 0
6, 141996, Note_on_c, 5, 63, 0
6, 142080, Note_on_c, 5, 63, 127
6, 142080, Note_on_c, 5, 65, 123
6, 142176, Note_on_c, 5, 65, 0
6, 142176, Note_on_c, 5, 63, 0
6, 142260, Note_on_c, 5, 63, 127
6, 142260, Note_on_c, 5, 65, 127
6, 142356, Note_on_c, 5, 65, 0
6, 142356, Note_on_c, 5, 63, 0
6, 142440, Note_on_c, 5, 63, 127
6, 142440, Note_on_c, 5, 65, 127
6, 142536, Note_on_c, 5, 65, 0
6, 142536, Note_on_c, 5, 63, 0
6, 142620, Note_on_c, 5, 63, 127
6, 142620, Note_on_c, 5, 67, 127
6, 142716, Note_on_c, 5, 67, 0
6, 142716, Note_on_c, 5, 63, 0
6, 142800, Note_on_c, 5, 63, 127
6, 142800, Note_on_c, 5, 67, 127
6, 142896, Note_on_c, 5, 67, 0
6, 142896, Note_on_c, 5, 63, 0
6, 142980, Note_on_c, 5, 67, 127
6, 142980, Note_on_c, 5, 63, 127
6, 143076, Note_on_c, 5, 63, 0
6, 143076, Note_on_c, 5, 67, 0
6, 143280, Note_on_c, 5, 65, 127
6, 143280, Note_on_c, 5, 58, 127
6, 143328, Note_on_c, 5, 58, 0
6, 143328, Note_on_c, 5, 65, 0
6, 143340, Note_on_c, 5, 63, 127
6, 143340, Note_on_c, 5, 51, 116
6, 143412, Note_on_c, 5, 51, 0
6, 143412, Note_on_c, 5, 63, 0
6, 143430, Note_on_c, 5, 63, 127
6, 143430, Note_on_c, 5, 51, 116
6, 143454, Note_on_c, 5, 51, 0
6, 143454, Note_on_c, 5, 63, 0
6, 143460, Note_on_c, 5, 63, 114
6, 143460, Note_on_c, 5, 51, 110
6, 143508, Note_on_c, 5, 51, 0
6, 143508, Note_on_c, 5, 63, 0
6, 143520, Note_on_c, 5, 63, 118
6, 143520, Note_on_c, 5, 51, 113
6, 143568, Note_on_c, 5, 51, 0
6, 143568, Note_on_c, 5, 63, 0
6, 143580, Note_on_c, 5, 63, 114
6, 143580, Note_on_c, 5, 51, 108
6, 143628, Note_on_c, 5, 51, 0
6, 143628, Note_on_c, 5, 63, 0
6, 143640, Note_on_c, 5, 63, 121
6, 143640, Note_on_c, 5, 51, 112
6, 143688, Note_on_c, 5, 51, 0
6, 143688, Note_on_c, 5, 63, 0
6, 143700, Note_on_c, 5, 63, 127
6, 143700, Note_on_c, 5, 51, 118
6, 143988, Note_on_c, 5, 51, 0
6, 143988, Note_on_c, 5, 63, 0
6, 144060, Note_on_c, 5, 58, 116
6, 144060, Note_on_c, 5, 46, 107
6, 144132, Note_on_c, 5, 46, 0
6, 144132, Note_on_c, 5, 58, 0
6, 144150, Note_on_c, 5, 58, 121
6, 144150, Note_on_c, 5, 46, 116
6, 144174, Note_on_c, 5, 46, 0
6, 144174, Note_on_c, 5, 58, 0
6, 144180, Note_on_c, 5, 58, 125
6, 144180, Note_on_c, 5, 46, 116
6, 144228, Note_on_c, 5, 46, 0
6, 144228, Note_on_c, 5, 58, 0
6, 144240, Note_on_c, 5, 58, 127
6, 144240, Note_on_c, 5, 46, 117
6, 144288, Note_on_c, 5, 46, 0
6, 144288, Note_on_c, 5, 58, 0
6, 144300, Note_on_c, 5, 58, 121
6, 144300, Note_on_c, 5, 46, 116
6, 144348, Note_on_c, 5, 46, 0
6, 144348, Note_on_c, 5, 58, 0
6, 144360, Note_on_c, 5, 58, 123
6, 144360, Note_on_c, 5, 46, 121
6, 144408, Note_on_c, 5, 46, 0
6, 144408, Note_on_c, 5, 58, 0
6, 144420, Note_on_c, 5, 58, 121
6, 144420, Note_on_c, 5, 46, 112
6, 144708, Note_on_c, 5, 46, 0
6, 144708, Note_on_c, 5, 58, 0
6, 144780, Note_on_c, 5, 51, 127
6, 144876, Note_on_c, 5, 51, 0
6, 153060, Note_on_c, 5, 63, 120
6, 153060, Note_on_c, 5, 55, 120
6, 153108, Note_on_c, 5, 55, 0
6, 153108, Note_on_c, 5, 63, 0
6, 153120, Note_on_c, 5, 63, 127
6, 153120, Note_on_c, 5, 55, 127
6, 153168, Note_on_c, 5, 55, 0
6, 153168, Note_on_c, 5, 63, 0
6, 153180, Note_on_c, 5, 63, 109
6, 153180, Note_on_c, 5, 55, 116
6, 153336, Note_on_c, 5, 55, 0
6, 153336, Note_on_c, 5, 63, 0
6, 153360, Note_on_c, 5, 63, 123
6, 153360, Note_on_c, 5, 55, 114
6, 153408, Note_on_c, 5, 55, 0
6, 153408, Note_on_c, 5, 63, 0
6, 153420, Note_on_c, 5, 63, 127
6, 153420, Note_on_c, 5, 55, 120
6, 153468, Note_on_c, 5, 55, 0
6, 153468, Note_on_c, 5, 63, 0
6, 153480, Note_on_c, 5, 63, 118
6, 153480, Note_on_c, 5, 55, 117
6, 153696, Note_on_c, 5, 55, 0
6, 153696, Note_on_c, 5, 63, 0
6, 153720, Note_on_c, 5, 58, 127
6, 153768, Note_on_c, 5, 58, 0
6, 153780, Note_on_c, 5, 65, 127
6, 153780, Note_on_c, 5, 58, 114
6, 153828, Note_on_c, 5, 58, 0
6, 153828, Note_on_c, 5, 65, 0
6, 153840, Note_on_c, 5, 65, 127
6, 153840, Note_on_c, 5, 58, 120
6, 154056, Note_on_c, 5, 58, 0
6, 154056, Note_on_c, 5, 65, 0
6, 154080, Note_on_c, 5, 58, 127
6, 154128, Note_on_c, 5, 58, 0
6, 154140, Note_on_c, 5, 67, 127
6, 154140, Note_on_c, 5, 58, 123
6, 154188, Note_on_c, 5, 58, 0
6, 154188, Note_on_c, 5, 67, 0
6, 154200, Note_on_c, 5, 67, 127
6, 154200, Note_on_c, 5, 58, 116
6, 154296, Note_on_c, 5, 58, 0
6, 154296, Note_on_c, 5, 67, 0
6, 154320, Note_on_c, 5, 67, 127
6, 154320, Note_on_c, 5, 58, 121
6, 154368, Note_on_c, 5, 58, 0
6, 154368, Note_on_c, 5, 67, 0
6, 154380, Note_on_c, 5, 67, 121
6, 154380, Note_on_c, 5, 58, 109
6, 154476, Note_on_c, 5, 58, 0
6, 154476, Note_on_c, 5, 67, 0
6, 154500, Note_on_c, 5, 67, 125
6, 154500, Note_on_c, 5, 58, 117
6, 154548, Note_on_c, 5, 58, 0
6, 154548, Note_on_c, 5, 67, 0
6, 154560, Note_on_c, 5, 67, 123
6, 154560, Note_on_c, 5, 58, 114
6, 154656, Note_on_c, 5, 58, 0
6, 154656, Note_on_c, 5, 67, 0
6, 154680, Note_on_c, 5, 67, 116
6, 154680, Note_on_c, 5, 58, 109
6, 154728, Note_on_c, 5, 58, 0
6, 154728, Note_on_c, 5, 67, 0
6, 154740, Note_on_c, 5, 67, 116
6, 154740, Note_on_c, 5, 58, 111
6, 154836, Note_on_c, 5, 58, 0
6, 154836, Note_on_c, 5, 67, 0
6, 154860, Note_on_c, 5, 67, 120
6, 154860, Note_on_c, 5, 58, 114
6, 154956, Note_on_c, 5, 58, 0
6, 154956, Note_on_c, 5, 67, 0
6, 155040, Note_on_c, 5, 63, 125
6, 155040, Note_on_c, 5, 55, 109
6, 155136, Note_on_c, 5, 55, 0
6, 155136, Note_on_c, 5, 63, 0
6, 155220, Note_on_c, 5, 63, 120
6, 155220, Note_on_c, 5, 51, 116
6, 155316, Note_on_c, 5, 51, 0
6, 155316, Note_on_c, 5, 63, 0
6, 155316, End_track
7, 0, Start_track
7, 0, MIDI_port, 0
7, 0, Title_t, "Trumpet (in Eb)"
7, 0, Program_c, 6, 56
7, 0, Control_c, 6, 7, 100
7, 0, Control_c, 6, 10, 90
7, 0, Control_c, 6, 93, 0
7, 0, Control_c, 6, 91, 0
7, 5760, Note_on_c, 6, 63, 105
7, 5760, Note_on_c, 6, 51, 110
7, 5808, Note_on_c, 6, 51, 0
7, 5808, Note_on_c, 6, 63, 0
7, 5820, Note_on_c, 6, 63, 110
7, 5820, Note_on_c, 6, 51, 117
7, 5868, Note_on_c, 6, 51, 0
7, 5868, Note_on_c, 6, 63, 0
7, 5880, Note_on_c, 6, 63, 103
7, 5880, Note_on_c, 6, 51, 107
7, 6036, Note_on_c, 6, 51, 0
7, 6036, Note_on_c, 6, 63, 0
7, 6060, Note_on_c, 6, 63, 118
7, 6060, Note_on_c, 6, 51, 105
7, 6084, Note_on_c, 6, 51, 0
7, 6084, Note_on_c, 6, 63, 0
7, 6090, Note_on_c, 6, 63, 117
7, 6090, Note_on_c, 6, 51, 109
7, 6114, Note_on_c, 6, 51, 0
7, 6114, Note_on_c, 6, 63, 0
7, 6120, Note_on_c, 6, 63, 105
7, 6120, Note_on_c, 6, 51, 105
7, 6168, Note_on_c, 6, 51, 0
7, 6168, Note_on_c, 6, 63, 0
7, 6180, Note_on_c, 6, 63, 105
7, 6180, Note_on_c, 6, 51, 102
7, 6396, Note_on_c, 6, 51, 0
7, 6396, Note_on_c, 6, 63, 0
7, 6420, Note_on_c, 6, 63, 110
7, 6420, Note_on_c, 6, 51, 105
7, 6468, Note_on_c, 6, 51, 0
7, 6468, Note_on_c, 6, 63, 0
7, 6480, Note_on_c, 6, 58, 114
7, 6480, Note_on_c, 6, 46, 107
7, 6528, Note_on_c, 6, 46, 0
7, 6528, Note_on_c, 6, 58, 0
7, 6600, Note_on_c, 6, 58, 114
7, 6600, Note_on_c, 6, 46, 110
7, 6648, Note_on_c, 6, 46, 0
7, 6648, Note_on_c, 6, 58, 0
7, 6660, Note_on_c, 6, 63, 107
7, 6660, Note_on_c, 6, 51, 103
7, 6708, Note_on_c, 6, 51, 0
7, 6708, Note_on_c, 6, 63, 0
7, 6780, Note_on_c, 6, 63, 117
7, 6780, Note_on_c, 6, 51, 110
7, 6828, Note_on_c, 6, 51, 0
7, 6828, Note_on_c, 6, 63, 0
7, 6840, Note_on_c, 6, 58, 110
7, 6840, Note_on_c, 6, 46, 102
7, 6984, Note_on_c, 6, 46, 0
7, 6984, Note_on_c, 6, 58, 0
7, 7020, Note_on_c, 6, 46, 102
7, 7020, Note_on_c, 6, 58, 117
7, 7068, Note_on_c, 6, 58, 0
7, 7068, Note_on_c, 6, 46, 0
7, 7200, Note_on_c, 6, 63, 101
7, 7200, Note_on_c, 6, 51, 100
7, 7308, Note_on_c, 6, 51, 0
7, 7308, Note_on_c, 6, 63, 0
7, 7320, Note_on_c, 6, 63, 103
7, 7320, Note_on_c, 6, 51, 107
7, 7476, Note_on_c, 6, 51, 0
7, 7476, Note_on_c, 6, 63, 0
7, 7500, Note_on_c, 6, 63, 103
7, 7500, Note_on_c, 6, 51, 101
7, 7524, Note_on_c, 6, 51, 0
7, 7524, Note_on_c, 6, 63, 0
7, 7530, Note_on_c, 6, 63, 114
7, 7530, Note_on_c, 6, 51, 107
7, 7554, Note_on_c, 6, 51, 0
7, 7554, Note_on_c, 6, 63, 0
7, 7560, Note_on_c, 6, 63, 103
7, 7560, Note_on_c, 6, 51, 105
7, 7608, Note_on_c, 6, 51, 0
7, 7608, Note_on_c, 6, 63, 0
7, 7620, Note_on_c, 6, 63, 105
7, 7620, Note_on_c, 6, 51, 102
7, 7836, Note_on_c, 6, 51, 0
7, 7836, Note_on_c, 6, 63, 0
7, 7860, Note_on_c, 6, 63, 102
7, 7860, Note_on_c, 6, 51, 103
7, 7908, Note_on_c, 6, 51, 0
7, 7908, Note_on_c, 6, 63, 0
7, 7920, Note_on_c, 6, 58, 102
7, 7920, Note_on_c, 6, 46, 100
7, 7968, Note_on_c, 6, 46, 0
7, 7968, Note_on_c, 6, 58, 0
7, 8040, Note_on_c, 6, 58, 107
7, 8040, Note_on_c, 6, 46, 104
7, 8088, Note_on_c, 6, 46, 0
7, 8088, Note_on_c, 6, 58, 0
7, 8100, Note_on_c, 6, 63, 102
7, 8100, Note_on_c, 6, 51, 104
7, 8148, Note_on_c, 6, 51, 0
7, 8148, Note_on_c, 6, 63, 0
7, 8220, Note_on_c, 6, 51, 107
7, 8220, Note_on_c, 6, 63, 116
7, 8268, Note_on_c, 6, 63, 0
7, 8268, Note_on_c, 6, 51, 0
7, 8280, Note_on_c, 6, 58, 106
7, 8280, Note_on_c, 6, 46, 102
7, 8424, Note_on_c, 6, 46, 0
7, 8424, Note_on_c, 6, 58, 0
7, 8460, Note_on_c, 6, 58, 104
7, 8460, Note_on_c, 6, 46, 102
7, 8556, Note_on_c, 6, 46, 0
7, 8556, Note_on_c, 6, 58, 0
7, 8640, Note_on_c, 6, 58, 103
7, 8640, Note_on_c, 6, 46, 104
7, 8736, Note_on_c, 6, 46, 0
7, 8736, Note_on_c, 6, 58, 0
7, 8820, Note_on_c, 6, 58, 110
7, 8820, Note_on_c, 6, 46, 109
7, 8916, Note_on_c, 6, 46, 0
7, 8916, Note_on_c, 6, 58, 0
7, 9000, Note_on_c, 6, 58, 111
7, 9000, Note_on_c, 6, 46, 108
7, 9096, Note_on_c, 6, 46, 0
7, 9096, Note_on_c, 6, 58, 0
7, 9180, Note_on_c, 6, 58, 106
7, 9180, Note_on_c, 6, 46, 105
7, 9276, Note_on_c, 6, 46, 0
7, 9276, Note_on_c, 6, 58, 0
7, 9360, Note_on_c, 6, 58, 99
7, 9360, Note_on_c, 6, 46, 102
7, 9456, Note_on_c, 6, 46, 0
7, 9456, Note_on_c, 6, 58, 0
7, 9480, Note_on_c, 6, 58, 125
7, 9480, Note_on_c, 6, 46, 117
7, 9528, Note_on_c, 6, 46, 0
7, 9528, Note_on_c, 6, 58, 0
7, 9540, Note_on_c, 6, 58, 105
7, 9540, Note_on_c, 6, 46, 103
7, 9612, Note_on_c, 6, 46, 0
7, 9612, Note_on_c, 6, 58, 0
7, 9630, Note_on_c, 6, 46, 105
7, 9630, Note_on_c, 6, 58, 106
7, 9654, Note_on_c, 6, 58, 0
7, 9654, Note_on_c, 6, 46, 0
7, 9660, Note_on_c, 6, 58, 118
7, 9660, Note_on_c, 6, 46, 107
7, 9708, Note_on_c, 6, 46, 0
7, 9708, Note_on_c, 6, 58, 0
7, 9720, Note_on_c, 6, 55, 127
7, 9720, Note_on_c, 6, 51, 117
7, 9816, Note_on_c, 6, 51, 0
7, 9816, Note_on_c, 6, 55, 0
7, 9840, Note_on_c, 6, 55, 118
7, 9840, Note_on_c, 6, 51, 118
7, 9888, Note_on_c, 6, 51, 0
7, 9888, Note_on_c, 6, 55, 0
7, 9900, Note_on_c, 6, 55, 123
7, 9900, Note_on_c, 6, 51, 116
7, 9996, Note_on_c, 6, 51, 0
7, 9996, Note_on_c, 6, 55, 0
7, 10020, Note_on_c, 6, 58, 117
7, 10020, Note_on_c, 6, 46, 109
7, 10068, Note_on_c, 6, 46, 0
7, 10068, Note_on_c, 6, 58, 0
7, 10080, Note_on_c, 6, 58, 123
7, 10080, Note_on_c, 6, 46, 102
7, 10176, Note_on_c, 6, 46, 0
7, 10176, Note_on_c, 6, 58, 0
7, 10200, Note_on_c, 6, 58, 127
7, 10200, Note_on_c, 6, 46, 117
7, 10248, Note_on_c, 6, 46, 0
7, 10248, Note_on_c, 6, 58, 0
7, 10260, Note_on_c, 6, 58, 102
7, 10260, Note_on_c, 6, 46, 99
7, 10332, Note_on_c, 6, 46, 0
7, 10332, Note_on_c, 6, 58, 0
7, 10350, Note_on_c, 6, 46, 106
7, 10350, Note_on_c, 6, 58, 104
7, 10374, Note_on_c, 6, 58, 0
7, 10374, Note_on_c, 6, 46, 0
7, 10380, Note_on_c, 6, 58, 113
7, 10380, Note_on_c, 6, 46, 109
7, 10428, Note_on_c, 6, 46, 0
7, 10428, Note_on_c, 6, 58, 0
7, 10440, Note_on_c, 6, 63, 121
7, 10440, Note_on_c, 6, 51, 113
7, 10536, Note_on_c, 6, 51, 0
7, 10536, Note_on_c, 6, 63, 0
7, 10800, Note_on_c, 6, 46, 127
7, 10800, Note_on_c, 6, 58, 127
7, 10896, Note_on_c, 6, 58, 0
7, 10896, Note_on_c, 6, 46, 0
7, 11160, Note_on_c, 6, 51, 116
7, 11160, Note_on_c, 6, 63, 121
7, 11256, Note_on_c, 6, 63, 0
7, 11256, Note_on_c, 6, 51, 0
7, 11520, Note_on_c, 6, 51, 112
7, 11520, Note_on_c, 6, 63, 117
7, 11616, Note_on_c, 6, 63, 0
7, 11616, Note_on_c, 6, 51, 0
7, 11700, Note_on_c, 6, 63, 127
7, 11700, Note_on_c, 6, 51, 114
7, 11796, Note_on_c, 6, 51, 0
7, 11796, Note_on_c, 6, 63, 0
7, 11880, Note_on_c, 6, 58, 106
7, 11880, Note_on_c, 6, 46, 106
7, 11952, Note_on_c, 6, 46, 0
7, 11952, Note_on_c, 6, 58, 0
7, 11970, Note_on_c, 6, 58, 123
7, 11970, Note_on_c, 6, 46, 102
7, 11994, Note_on_c, 6, 46, 0
7, 11994, Note_on_c, 6, 58, 0
7, 12000, Note_on_c, 6, 58, 104
7, 12000, Note_on_c, 6, 46, 104
7, 12048, Note_on_c, 6, 46, 0
7, 12048, Note_on_c, 6, 58, 0
7, 12060, Note_on_c, 6, 58, 116
7, 12060, Note_on_c, 6, 46, 107
7, 12132, Note_on_c, 6, 46, 0
7, 12132, Note_on_c, 6, 58, 0
7, 12150, Note_on_c, 6, 46, 106
7, 12150, Note_on_c, 6, 58, 113
7, 12174, Note_on_c, 6, 58, 0
7, 12174, Note_on_c, 6, 46, 0
7, 12180, Note_on_c, 6, 63, 104
7, 12180, Note_on_c, 6, 51, 102
7, 12228, Note_on_c, 6, 51, 0
7, 12228, Note_on_c, 6, 63, 0
7, 12240, Note_on_c, 6, 63, 107
7, 12240, Note_on_c, 6, 51, 103
7, 12336, Note_on_c, 6, 51, 0
7, 12336, Note_on_c, 6, 63, 0
7, 12420, Note_on_c, 6, 58, 107
7, 12420, Note_on_c, 6, 46, 105
7, 12516, Note_on_c, 6, 46, 0
7, 12516, Note_on_c, 6, 58, 0
7, 12600, Note_on_c, 6, 63, 114
7, 12600, Note_on_c, 6, 51, 105
7, 12696, Note_on_c, 6, 51, 0
7, 12696, Note_on_c, 6, 63, 0
7, 13320, Note_on_c, 6, 58, 98
7, 13320, Note_on_c, 6, 46, 104
7, 13392, Note_on_c, 6, 46, 0
7, 13392, Note_on_c, 6, 58, 0
7, 13410, Note_on_c, 6, 58, 107
7, 13410, Note_on_c, 6, 46, 99
7, 13434, Note_on_c, 6, 46, 0
7, 13434, Note_on_c, 6, 58, 0
7, 13440, Note_on_c, 6, 58, 102
7, 13440, Note_on_c, 6, 46, 100
7, 13488, Note_on_c, 6, 46, 0
7, 13488, Note_on_c, 6, 58, 0
7, 13500, Note_on_c, 6, 58, 107
7, 13500, Note_on_c, 6, 46, 103
7, 13548, Note_on_c, 6, 46, 0
7, 13548, Note_on_c, 6, 58, 0
7, 13560, Note_on_c, 6, 58, 104
7, 13560, Note_on_c, 6, 46, 102
7, 13608, Note_on_c, 6, 46, 0
7, 13608, Note_on_c, 6, 58, 0
7, 13620, Note_on_c, 6, 58, 108
7, 13620, Note_on_c, 6, 46, 106
7, 13668, Note_on_c, 6, 46, 0
7, 13668, Note_on_c, 6, 58, 0
7, 13680, Note_on_c, 6, 58, 103
7, 13680, Note_on_c, 6, 46, 105
7, 13968, Note_on_c, 6, 46, 0
7, 13968, Note_on_c, 6, 58, 0
7, 14040, Note_on_c, 6, 63, 99
7, 14040, Note_on_c, 6, 51, 102
7, 14112, Note_on_c, 6, 51, 0
7, 14112, Note_on_c, 6, 63, 0
7, 14130, Note_on_c, 6, 63, 103
7, 14130, Note_on_c, 6, 51, 104
7, 14154, Note_on_c, 6, 51, 0
7, 14154, Note_on_c, 6, 63, 0
7, 14160, Note_on_c, 6, 63, 102
7, 14160, Note_on_c, 6, 51, 103
7, 14208, Note_on_c, 6, 51, 0
7, 14208, Note_on_c, 6, 63, 0
7, 14220, Note_on_c, 6, 63, 105
7, 14220, Note_on_c, 6, 51, 102
7, 14268, Note_on_c, 6, 51, 0
7, 14268, Note_on_c, 6, 63, 0
7, 14280, Note_on_c, 6, 63, 103
7, 14280, Note_on_c, 6, 51, 101
7, 14328, Note_on_c, 6, 51, 0
7, 14328, Note_on_c, 6, 63, 0
7, 14340, Note_on_c, 6, 63, 105
7, 14340, Note_on_c, 6, 51, 102
7, 14388, Note_on_c, 6, 51, 0
7, 14388, Note_on_c, 6, 63, 0
7, 14400, Note_on_c, 6, 51, 103
7, 14400, Note_on_c, 6, 63, 98
7, 14472, Note_on_c, 6, 63, 0
7, 14472, Note_on_c, 6, 51, 0
7, 14490, Note_on_c, 6, 63, 104
7, 14490, Note_on_c, 6, 51, 99
7, 14514, Note_on_c, 6, 51, 0
7, 14514, Note_on_c, 6, 63, 0
7, 14520, Note_on_c, 6, 63, 103
7, 14520, Note_on_c, 6, 51, 101
7, 14568, Note_on_c, 6, 51, 0
7, 14568, Note_on_c, 6, 63, 0
7, 14580, Note_on_c, 6, 63, 105
7, 14580, Note_on_c, 6, 51, 102
7, 14628, Note_on_c, 6, 51, 0
7, 14628, Note_on_c, 6, 63, 0
7, 14640, Note_on_c, 6, 63, 102
7, 14640, Note_on_c, 6, 51, 101
7, 14688, Note_on_c, 6, 51, 0
7, 14688, Note_on_c, 6, 63, 0
7, 14700, Note_on_c, 6, 63, 104
7, 14700, Note_on_c, 6, 51, 101
7, 14748, Note_on_c, 6, 51, 0
7, 14748, Note_on_c, 6, 63, 0
7, 14760, Note_on_c, 6, 63, 101
7, 14760, Note_on_c, 6, 51, 102
7, 14856, Note_on_c, 6, 51, 0
7, 14856, Note_on_c, 6, 63, 0
7, 21960, Note_on_c, 6, 63, 123
7, 21960, Note_on_c, 6, 51, 120
7, 22056, Note_on_c, 6, 51, 0
7, 22056, Note_on_c, 6, 63, 0
7, 22500, Note_on_c, 6, 63, 112
7, 22500, Note_on_c, 6, 51, 117
7, 22548, Note_on_c, 6, 51, 0
7, 22548, Note_on_c, 6, 63, 0
7, 22560, Note_on_c, 6, 63, 127
7, 22560, Note_on_c, 6, 51, 123
7, 22608, Note_on_c, 6, 51, 0
7, 22608, Note_on_c, 6, 63, 0
7, 65520, Note_on_c, 6, 63, 110
7, 65520, Note_on_c, 6, 51, 106
7, 65592, Note_on_c, 6, 51, 0
7, 65592, Note_on_c, 6, 63, 0
7, 65610, Note_on_c, 6, 63, 108
7, 65610, Note_on_c, 6, 51, 111
7, 65634, Note_on_c, 6, 51, 0
7, 65634, Note_on_c, 6, 63, 0
7, 65640, Note_on_c, 6, 63, 103
7, 65640, Note_on_c, 6, 51, 101
7, 65688, Note_on_c, 6, 51, 0
7, 65688, Note_on_c, 6, 63, 0
7, 65700, Note_on_c, 6, 63, 123
7, 65700, Note_on_c, 6, 51, 112
7, 65748, Note_on_c, 6, 51, 0
7, 65748, Note_on_c, 6, 63, 0
7, 65760, Note_on_c, 6, 63, 121
7, 65760, Note_on_c, 6, 51, 109
7, 65808, Note_on_c, 6, 51, 0
7, 65808, Note_on_c, 6, 63, 0
7, 65820, Note_on_c, 6, 63, 104
7, 65820, Note_on_c, 6, 51, 101
7, 65868, Note_on_c, 6, 51, 0
7, 65868, Note_on_c, 6, 63, 0
7, 65880, Note_on_c, 6, 63, 123
7, 65880, Note_on_c, 6, 51, 120
7, 66168, Note_on_c, 6, 51, 0
7, 66168, Note_on_c, 6, 63, 0
7, 94320, Note_on_c, 6, 51, 110
7, 94320, Note_on_c, 6, 63, 105
7, 94368, Note_on_c, 6, 63, 0
7, 94368, Note_on_c, 6, 51, 0
7, 94380, Note_on_c, 6, 51, 117
7, 94380, Note_on_c, 6, 63, 110
7, 94428, Note_on_c, 6, 63, 0
7, 94428, Note_on_c, 6, 51, 0
7, 94440, Note_on_c, 6, 51, 107
7, 94440, Note_on_c, 6, 63, 103
7, 94596, Note_on_c, 6, 63, 0
7, 94596, Note_on_c, 6, 51, 0
7, 94620, Note_on_c, 6, 51, 105
7, 94620, Note_on_c, 6, 63, 118
7, 94644, Note_on_c, 6, 63, 0
7, 94644, Note_on_c, 6, 51, 0
7, 94650, Note_on_c, 6, 51, 109
7, 94650, Note_on_c, 6, 63, 117
7, 94674, Note_on_c, 6, 63, 0
7, 94674, Note_on_c, 6, 51, 0
7, 94680, Note_on_c, 6, 51, 105
7, 94680, Note_on_c, 6, 63, 105
7, 94728, Note_on_c, 6, 63, 0
7, 94728, Note_on_c, 6, 51, 0
7, 94740, Note_on_c, 6, 51, 102
7, 94740, Note_on_c, 6, 63, 105
7, 94956, Note_on_c, 6, 63, 0
7, 94956, Note_on_c, 6, 51, 0
7, 94980, Note_on_c, 6, 51, 105
7, 94980, Note_on_c, 6, 63, 110
7, 95028, Note_on_c, 6, 63, 0
7, 95028, Note_on_c, 6, 51, 0
7, 95040, Note_on_c, 6, 46, 107
7, 95040, Note_on_c, 6, 58, 114
7, 95088, Note_on_c, 6, 58, 0
7, 95088, Note_on_c, 6, 46, 0
7, 95160, Note_on_c, 6, 46, 110
7, 95160, Note_on_c, 6, 58, 114
7, 95208, Note_on_c, 6, 58, 0
7, 95208, Note_on_c, 6, 46, 0
7, 95220, Note_on_c, 6, 51, 103
7, 95220, Note_on_c, 6, 63, 107
7, 95268, Note_on_c, 6, 63, 0
7, 95268, Note_on_c, 6, 51, 0
7, 95340, Note_on_c, 6, 51, 110
7, 95340, Note_on_c, 6, 63, 117
7, 95388, Note_on_c, 6, 63, 0
7, 95388, Note_on_c, 6, 51, 0
7, 95400, Note_on_c, 6, 46, 102
7, 95400, Note_on_c, 6, 58, 110
7, 95544, Note_on_c, 6, 58, 0
7, 95544, Note_on_c, 6, 46, 0
7, 95580, Note_on_c, 6, 58, 117
7, 95580, Note_on_c, 6, 46, 102
7, 95628, Note_on_c, 6, 46, 0
7, 95628, Note_on_c, 6, 58, 0
7, 95760, Note_on_c, 6, 51, 100
7, 95760, Note_on_c, 6, 63, 101
7, 95868, Note_on_c, 6, 63, 0
7, 95868, Note_on_c, 6, 51, 0
7, 95880, Note_on_c, 6, 51, 107
7, 95880, Note_on_c, 6, 63, 103
7, 96036, Note_on_c, 6, 63, 0
7, 96036, Note_on_c, 6, 51, 0
7, 96060, Note_on_c, 6, 51, 101
7, 96060, Note_on_c, 6, 63, 103
7, 96084, Note_on_c, 6, 63, 0
7, 96084, Note_on_c, 6, 51, 0
7, 96090, Note_on_c, 6, 51, 107
7, 96090, Note_on_c, 6, 63, 114
7, 96114, Note_on_c, 6, 63, 0
7, 96114, Note_on_c, 6, 51, 0
7, 96120, Note_on_c, 6, 51, 105
7, 96120, Note_on_c, 6, 63, 103
7, 96168, Note_on_c, 6, 63, 0
7, 96168, Note_on_c, 6, 51, 0
7, 96180, Note_on_c, 6, 51, 102
7, 96180, Note_on_c, 6, 63, 105
7, 96396, Note_on_c, 6, 63, 0
7, 96396, Note_on_c, 6, 51, 0
7, 96420, Note_on_c, 6, 51, 103
7, 96420, Note_on_c, 6, 63, 102
7, 96468, Note_on_c, 6, 63, 0
7, 96468, Note_on_c, 6, 51, 0
7, 96480, Note_on_c, 6, 46, 100
7, 96480, Note_on_c, 6, 58, 102
7, 96528, Note_on_c, 6, 58, 0
7, 96528, Note_on_c, 6, 46, 0
7, 96600, Note_on_c, 6, 46, 104
7, 96600, Note_on_c, 6, 58, 107
7, 96648, Note_on_c, 6, 58, 0
7, 96648, Note_on_c, 6, 46, 0
7, 96660, Note_on_c, 6, 51, 104
7, 96660, Note_on_c, 6, 63, 102
7, 96708, Note_on_c, 6, 63, 0
7, 96708, Note_on_c, 6, 51, 0
7, 96780, Note_on_c, 6, 63, 116
7, 96780, Note_on_c, 6, 51, 107
7, 96828, Note_on_c, 6, 51, 0
7, 96828, Note_on_c, 6, 63, 0
7, 96840, Note_on_c, 6, 46, 102
7, 96840, Note_on_c, 6, 58, 106
7, 96984, Note_on_c, 6, 58, 0
7, 96984, Note_on_c, 6, 46, 0
7, 97020, Note_on_c, 6, 46, 102
7, 97020, Note_on_c, 6, 58, 104
7, 97116, Note_on_c, 6, 58, 0
7, 97116, Note_on_c, 6, 46, 0
7, 97200, Note_on_c, 6, 46, 104
7, 97200, Note_on_c, 6, 58, 103
7, 97296, Note_on_c, 6, 58, 0
7, 97296, Note_on_c, 6, 46, 0
7, 97380, Note_on_c, 6, 46, 109
7, 97380, Note_on_c, 6, 58, 110
7, 97476, Note_on_c, 6, 58, 0
7, 97476, Note_on_c, 6, 46, 0
7, 97560, Note_on_c, 6, 46, 108
7, 97560, Note_on_c, 6, 58, 111
7, 97656, Note_on_c, 6, 58, 0
7, 97656, Note_on_c, 6, 46, 0
7, 97740, Note_on_c, 6, 46, 105
7, 97740, Note_on_c, 6, 58, 106
7, 97836, Note_on_c, 6, 58, 0
7, 97836, Note_on_c, 6, 46, 0
7, 97920, Note_on_c, 6, 46, 102
7, 97920, Note_on_c, 6, 58, 99
7, 98016, Note_on_c, 6, 58, 0
7, 98016, Note_on_c, 6, 46, 0
7, 98040, Note_on_c, 6, 46, 117
7, 98040, Note_on_c, 6, 58, 125
7, 98088, Note_on_c, 6, 58, 0
7, 98088, Note_on_c, 6, 46, 0
7, 98100, Note_on_c, 6, 46, 103
7, 98100, Note_on_c, 6, 58, 105
7, 98172, Note_on_c, 6, 58, 0
7, 98172, Note_on_c, 6, 46, 0
7, 98190, Note_on_c, 6, 58, 106
7, 98190, Note_on_c, 6, 46, 105
7, 98214, Note_on_c, 6, 46, 0
7, 98214, Note_on_c, 6, 58, 0
7, 98220, Note_on_c, 6, 46, 107
7, 98220, Note_on_c, 6, 58, 118
7, 98268, Note_on_c, 6, 58, 0
7, 98268, Note_on_c, 6, 46, 0
7, 98280, Note_on_c, 6, 51, 117
7, 98280, Note_on_c, 6, 55, 127
7, 98376, Note_on_c, 6, 55, 0
7, 98376, Note_on_c, 6, 51, 0
7, 98400, Note_on_c, 6, 51, 118
7, 98400, Note_on_c, 6, 55, 118
7, 98448, Note_on_c, 6, 55, 0
7, 98448, Note_on_c, 6, 51, 0
7, 98460, Note_on_c, 6, 51, 116
7, 98460, Note_on_c, 6, 55, 123
7, 98556, Note_on_c, 6, 55, 0
7, 98556, Note_on_c, 6, 51, 0
7, 98580, Note_on_c, 6, 46, 109
7, 98580, Note_on_c, 6, 58, 117
7, 98628, Note_on_c, 6, 58, 0
7, 98628, Note_on_c, 6, 46, 0
7, 98640, Note_on_c, 6, 46, 102
7, 98640, Note_on_c, 6, 58, 123
7, 98736, Note_on_c, 6, 58, 0
7, 98736, Note_on_c, 6, 46, 0
7, 98760, Note_on_c, 6, 46, 117
7, 98760, Note_on_c, 6, 58, 127
7, 98808, Note_on_c, 6, 58, 0
7, 98808, Note_on_c, 6, 46, 0
7, 98820, Note_on_c, 6, 46, 99
7, 98820, Note_on_c, 6, 58, 102
7, 98892, Note_on_c, 6, 58, 0
7, 98892, Note_on_c, 6, 46, 0
7, 98910, Note_on_c, 6, 58, 104
7, 98910, Note_on_c, 6, 46, 106
7, 98934, Note_on_c, 6, 46, 0
7, 98934, Note_on_c, 6, 58, 0
7, 98940, Note_on_c, 6, 46, 109
7, 98940, Note_on_c, 6, 58, 113
7, 98988, Note_on_c, 6, 58, 0
7, 98988, Note_on_c, 6, 46, 0
7, 99000, Note_on_c, 6, 51, 113
7, 99000, Note_on_c, 6, 63, 121
7, 99096, Note_on_c, 6, 63, 0
7, 99096, Note_on_c, 6, 51, 0
7, 99360, Note_on_c, 6, 58, 127
7, 99360, Note_on_c, 6, 46, 127
7, 99456, Note_on_c, 6, 46, 0
7, 99456, Note_on_c, 6, 58, 0
7, 99720, Note_on_c, 6, 63, 121
7, 99720, Note_on_c, 6, 51, 116
7, 99816, Note_on_c, 6, 51, 0
7, 99816, Note_on_c, 6, 63, 0
7, 100080, Note_on_c, 6, 63, 117
7, 100080, Note_on_c, 6, 51, 112
7, 100176, Note_on_c, 6, 51, 0
7, 100176, Note_on_c, 6, 63, 0
7, 100260, Note_on_c, 6, 51, 114
7, 100260, Note_on_c, 6, 63, 127
7, 100356, Note_on_c, 6, 63, 0
7, 100356, Note_on_c, 6, 51, 0
7, 100440, Note_on_c, 6, 46, 106
7, 100440, Note_on_c, 6, 58, 106
7, 100512, Note_on_c, 6, 58, 0
7, 100512, Note_on_c, 6, 46, 0
7, 100530, Note_on_c, 6, 46, 102
7, 100530, Note_on_c, 6, 58, 123
7, 100554, Note_on_c, 6, 58, 0
7, 100554, Note_on_c, 6, 46, 0
7, 100560, Note_on_c, 6, 46, 104
7, 100560, Note_on_c, 6, 58, 104
7, 100608, Note_on_c, 6, 58, 0
7, 100608, Note_on_c, 6, 46, 0
7, 100620, Note_on_c, 6, 46, 107
7, 100620, Note_on_c, 6, 58, 116
7, 100692, Note_on_c, 6, 58, 0
7, 100692, Note_on_c, 6, 46, 0
7, 100710, Note_on_c, 6, 58, 113
7, 100710, Note_on_c, 6, 46, 106
7, 100734, Note_on_c, 6, 46, 0
7, 100734, Note_on_c, 6, 58, 0
7, 100740, Note_on_c, 6, 51, 102
7, 100740, Note_on_c, 6, 63, 104
7, 100788, Note_on_c, 6, 63, 0
7, 100788, Note_on_c, 6, 51, 0
7, 100800, Note_on_c, 6, 51, 103
7, 100800, Note_on_c, 6, 63, 107
7, 100896, Note_on_c, 6, 63, 0
7, 100896, Note_on_c, 6, 51, 0
7, 100980, Note_on_c, 6, 46, 105
7, 100980, Note_on_c, 6, 58, 107
7, 101076, Note_on_c, 6, 58, 0
7, 101076, Note_on_c, 6, 46, 0
7, 101160, Note_on_c, 6, 51, 105
7, 101160, Note_on_c, 6, 63, 114
7, 101256, Note_on_c, 6, 63, 0
7, 101256, Note_on_c, 6, 51, 0
7, 101880, Note_on_c, 6, 46, 104
7, 101880, Note_on_c, 6, 58, 98
7, 101952, Note_on_c, 6, 58, 0
7, 101952, Note_on_c, 6, 46, 0
7, 101970, Note_on_c, 6, 46, 99
7, 101970, Note_on_c, 6, 58, 107
7, 101994, Note_on_c, 6, 58, 0
7, 101994, Note_on_c, 6, 46, 0
7, 102000, Note_on_c, 6, 46, 100
7, 102000, Note_on_c, 6, 58, 102
7, 102048, Note_on_c, 6, 58, 0
7, 102048, Note_on_c, 6, 46, 0
7, 102060, Note_on_c, 6, 46, 103
7, 102060, Note_on_c, 6, 58, 107
7, 102108, Note_on_c, 6, 58, 0
7, 102108, Note_on_c, 6, 46, 0
7, 102120, Note_on_c, 6, 46, 102
7, 102120, Note_on_c, 6, 58, 104
7, 102168, Note_on_c, 6, 58, 0
7, 102168, Note_on_c, 6, 46, 0
7, 102180, Note_on_c, 6, 46, 106
7, 102180, Note_on_c, 6, 58, 108
7, 102228, Note_on_c, 6, 58, 0
7, 102228, Note_on_c, 6, 46, 0
7, 102240, Note_on_c, 6, 46, 105
7, 102240, Note_on_c, 6, 58, 103
7, 102528, Note_on_c, 6, 58, 0
7, 102528, Note_on_c, 6, 46, 0
7, 102600, Note_on_c, 6, 51, 102
7, 102600, Note_on_c, 6, 63, 99
7, 102672, Note_on_c, 6, 63, 0
7, 102672, Note_on_c, 6, 51, 0
7, 102690, Note_on_c, 6, 51, 104
7, 102690, Note_on_c, 6, 63, 103
7, 102714, Note_on_c, 6, 63, 0
7, 102714, Note_on_c, 6, 51, 0
7, 102720, Note_on_c, 6, 51, 103
7, 102720, Note_on_c, 6, 63, 102
7, 102768, Note_on_c, 6, 63, 0
7, 102768, Note_on_c, 6, 51, 0
7, 102780, Note_on_c, 6, 51, 102
7, 102780, Note_on_c, 6, 63, 105
7, 102828, Note_on_c, 6, 63, 0
7, 102828, Note_on_c, 6, 51, 0
7, 102840, Note_on_c, 6, 51, 101
7, 102840, Note_on_c, 6, 63, 103
7, 102888, Note_on_c, 6, 63, 0
7, 102888, Note_on_c, 6, 51, 0
7, 102900, Note_on_c, 6, 51, 102
7, 102900, Note_on_c, 6, 63, 105
7, 102948, Note_on_c, 6, 63, 0
7, 102948, Note_on_c, 6, 51, 0
7, 102960, Note_on_c, 6, 63, 98
7, 102960, Note_on_c, 6, 51, 103
7, 103032, Note_on_c, 6, 51, 0
7, 103032, Note_on_c, 6, 63, 0
7, 103050, Note_on_c, 6, 51, 99
7, 103050, Note_on_c, 6, 63, 104
7, 103074, Note_on_c, 6, 63, 0
7, 103074, Note_on_c, 6, 51, 0
7, 103080, Note_on_c, 6, 51, 101
7, 103080, Note_on_c, 6, 63, 103
7, 103128, Note_on_c, 6, 63, 0
7, 103128, Note_on_c, 6, 51, 0
7, 103140, Note_on_c, 6, 51, 102
7, 103140, Note_on_c, 6, 63, 105
7, 103188, Note_on_c, 6, 63, 0
7, 103188, Note_on_c, 6, 51, 0
7, 103200, Note_on_c, 6, 51, 101
7, 103200, Note_on_c, 6, 63, 102
7, 103248, Note_on_c, 6, 63, 0
7, 103248, Note_on_c, 6, 51, 0
7, 103260, Note_on_c, 6, 51, 101
7, 103260, Note_on_c, 6, 63, 104
7, 103308, Note_on_c, 6, 63, 0
7, 103308, Note_on_c, 6, 51, 0
7, 103320, Note_on_c, 6, 51, 102
7, 103320, Note_on_c, 6, 63, 101
7, 103416, Note_on_c, 6, 63, 0
7, 103416, Note_on_c, 6, 51, 0
7, 112080, Note_on_c, 6, 58, 108
7, 112080, Note_on_c, 6, 46, 104
7, 112128, Note_on_c, 6, 46, 0
7, 112128, Note_on_c, 6, 58, 0
7, 112140, Note_on_c, 6, 58, 108
7, 112140, Note_on_c, 6, 46, 112
7, 112236, Note_on_c, 6, 46, 0
7, 112236, Note_on_c, 6, 58, 0
7, 112260, Note_on_c, 6, 58, 109
7, 112260, Note_on_c, 6, 46, 104
7, 112308, Note_on_c, 6, 46, 0
7, 112308, Note_on_c, 6, 58, 0
7, 112320, Note_on_c, 6, 58, 109
7, 112320, Note_on_c, 6, 46, 114
7, 112416, Note_on_c, 6, 46, 0
7, 112416, Note_on_c, 6, 58, 0
7, 113040, Note_on_c, 6, 58, 114
7, 113040, Note_on_c, 6, 46, 118
7, 113136, Note_on_c, 6, 46, 0
7, 113136, Note_on_c, 6, 58, 0
7, 123540, Note_on_c, 6, 63, 102
7, 123540, Note_on_c, 6, 51, 112
7, 123636, Note_on_c, 6, 51, 0
7, 123636, Note_on_c, 6, 63, 0
7, 123720, Note_on_c, 6, 51, 111
7, 123720, Note_on_c, 6, 63, 121
7, 123832, Note_on_c, 6, 63, 0
7, 123832, Note_on_c, 6, 51, 0
7, 123900, Note_on_c, 6, 63, 100
7, 123900, Note_on_c, 6, 51, 107
7, 123996, Note_on_c, 6, 51, 0
7, 123996, Note_on_c, 6, 63, 0
7, 124980, Note_on_c, 6, 51, 112
7, 124980, Note_on_c, 6, 63, 102
7, 125076, Note_on_c, 6, 63, 0
7, 125076, Note_on_c, 6, 51, 0
7, 125160, Note_on_c, 6, 63, 121
7, 125160, Note_on_c, 6, 51, 111
7, 125272, Note_on_c, 6, 51, 0
7, 125272, Note_on_c, 6, 63, 0
7, 125340, Note_on_c, 6, 51, 107
7, 125340, Note_on_c, 6, 63, 100
7, 125436, Note_on_c, 6, 63, 0
7, 125436, Note_on_c, 6, 51, 0
7, 126420, Note_on_c, 6, 51, 112
7, 126420, Note_on_c, 6, 63, 103
7, 126516, Note_on_c, 6, 63, 0
7, 126516, Note_on_c, 6, 51, 0
7, 126600, Note_on_c, 6, 51, 109
7, 126600, Note_on_c, 6, 63, 118
7, 126696, Note_on_c, 6, 63, 0
7, 126696, Note_on_c, 6, 51, 0
7, 126780, Note_on_c, 6, 51, 106
7, 126780, Note_on_c, 6, 63, 114
7, 126876, Note_on_c, 6, 63, 0
7, 126876, Note_on_c, 6, 51, 0
7, 128580, Note_on_c, 6, 51, 114
7, 128580, Note_on_c, 6, 63, 100
7, 128676, Note_on_c, 6, 63, 0
7, 128676, Note_on_c, 6, 51, 0
7, 128760, Note_on_c, 6, 63, 125
7, 128760, Note_on_c, 6, 51, 114
7, 128856, Note_on_c, 6, 51, 0
7, 128856, Note_on_c, 6, 63, 0
7, 128940, Note_on_c, 6, 51, 121
7, 128940, Note_on_c, 6, 63, 121
7, 129036, Note_on_c, 6, 63, 0
7, 129036, Note_on_c, 6, 51, 0
7, 129120, Note_on_c, 6, 63, 120
7, 129120, Note_on_c, 6, 51, 111
7, 129216, Note_on_c, 6, 51, 0
7, 129216, Note_on_c, 6, 63, 0
7, 129300, Note_on_c, 6, 58, 117
7, 129300, Note_on_c, 6, 46, 105
7, 129396, Note_on_c, 6, 46, 0
7, 129396, Note_on_c, 6, 58, 0
7, 129480, Note_on_c, 6, 58, 120
7, 129480, Note_on_c, 6, 46, 105
7, 129576, Note_on_c, 6, 46, 0
7, 129576, Note_on_c, 6, 58, 0
7, 129660, Note_on_c, 6, 58, 114
7, 129660, Note_on_c, 6, 46, 112
7, 129756, Note_on_c, 6, 46, 0
7, 129756, Note_on_c, 6, 58, 0
7, 129840, Note_on_c, 6, 58, 113
7, 129840, Note_on_c, 6, 46, 112
7, 129936, Note_on_c, 6, 46, 0
7, 129936, Note_on_c, 6, 58, 0
7, 129960, Note_on_c, 6, 58, 111
7, 129960, Note_on_c, 6, 46, 100
7, 130008, Note_on_c, 6, 46, 0
7, 130008, Note_on_c, 6, 58, 0
7, 130020, Note_on_c, 6, 63, 116
7, 130020, Note_on_c, 6, 51, 112
7, 130116, Note_on_c, 6, 51, 0
7, 130116, Note_on_c, 6, 63, 0
7, 130200, Note_on_c, 6, 63, 107
7, 130200, Note_on_c, 6, 51, 113
7, 130296, Note_on_c, 6, 51, 0
7, 130296, Note_on_c, 6, 63, 0
7, 130380, Note_on_c, 6, 63, 102
7, 130380, Note_on_c, 6, 51, 114
7, 130476, Note_on_c, 6, 51, 0
7, 130476, Note_on_c, 6, 63, 0
7, 130560, Note_on_c, 6, 63, 104
7, 130560, Note_on_c, 6, 51, 108
7, 130656, Note_on_c, 6, 51, 0
7, 130656, Note_on_c, 6, 63, 0
7, 130740, Note_on_c, 6, 58, 120
7, 130740, Note_on_c, 6, 46, 114
7, 130836, Note_on_c, 6, 46, 0
7, 130836, Note_on_c, 6, 58, 0
7, 130920, Note_on_c, 6, 51, 112
7, 130920, Note_on_c, 6, 63, 116
7, 131016, Note_on_c, 6, 63, 0
7, 131016, Note_on_c, 6, 51, 0
7, 131100, Note_on_c, 6, 58, 118
7, 131100, Note_on_c, 6, 46, 108
7, 131196, Note_on_c, 6, 46, 0
7, 131196, Note_on_c, 6, 58, 0
7, 131280, Note_on_c, 6, 58, 118
7, 131280, Note_on_c, 6, 46, 107
7, 131376, Note_on_c, 6, 46, 0
7, 131376, Note_on_c, 6, 58, 0
7, 131460, Note_on_c, 6, 58, 120
7, 131460, Note_on_c, 6, 46, 110
7, 131556, Note_on_c, 6, 46, 0
7, 131556, Note_on_c, 6, 58, 0
7, 131640, Note_on_c, 6, 58, 109
7, 131640, Note_on_c, 6, 46, 102
7, 131736, Note_on_c, 6, 46, 0
7, 131736, Note_on_c, 6, 58, 0
7, 131820, Note_on_c, 6, 58, 125
7, 131820, Note_on_c, 6, 46, 114
7, 131916, Note_on_c, 6, 46, 0
7, 131916, Note_on_c, 6, 58, 0
7, 132000, Note_on_c, 6, 58, 104
7, 132000, Note_on_c, 6, 46, 109
7, 132096, Note_on_c, 6, 46, 0
7, 132096, Note_on_c, 6, 58, 0
7, 132180, Note_on_c, 6, 65, 123
7, 132180, Note_on_c, 6, 58, 127
7, 132276, Note_on_c, 6, 58, 0
7, 132276, Note_on_c, 6, 65, 0
7, 132360, Note_on_c, 6, 58, 127
7, 132360, Note_on_c, 6, 65, 121
7, 132472, Note_on_c, 6, 65, 0
7, 132472, Note_on_c, 6, 58, 0
7, 132540, Note_on_c, 6, 63, 116
7, 132540, Note_on_c, 6, 51, 113
7, 132636, Note_on_c, 6, 51, 0
7, 132636, Note_on_c, 6, 63, 0
7, 132720, Note_on_c, 6, 63, 120
7, 132720, Note_on_c, 6, 51, 116
7, 132816, Note_on_c, 6, 51, 0
7, 132816, Note_on_c, 6, 63, 0
7, 138300, Note_on_c, 6, 51, 127
7, 138396, Note_on_c, 6, 51, 0
7, 138660, Note_on_c, 6, 58, 120
7, 138660, Note_on_c, 6, 46, 125
7, 138756, Note_on_c, 6, 46, 0
7, 138756, Note_on_c, 6, 58, 0
7, 143340, Note_on_c, 6, 51, 116
7, 143340, Note_on_c, 6, 63, 127
7, 143412, Note_on_c, 6, 63, 0
7, 143412, Note_on_c, 6, 51, 0
7, 143430, Note_on_c, 6, 51, 116
7, 143430, Note_on_c, 6, 63, 127
7, 143454, Note_on_c, 6, 63, 0
7, 143454, Note_on_c, 6, 51, 0
7, 143460, Note_on_c, 6, 51, 110
7, 143460, Note_on_c, 6, 63, 114
7, 143508, Note_on_c, 6, 63, 0
7, 143508, Note_on_c, 6, 51, 0
7, 143520, Note_on_c, 6, 51, 113
7, 143520, Note_on_c, 6, 63, 118
7, 143568, Note_on_c, 6, 63, 0
7, 143568, Note_on_c, 6, 51, 0
7, 143580, Note_on_c, 6, 51, 108
7, 143580, Note_on_c, 6, 63, 114
7, 143628, Note_on_c, 6, 63, 0
7, 143628, Note_on_c, 6, 51, 0
7, 143640, Note_on_c, 6, 51, 112
7, 143640, Note_on_c, 6, 63, 121
7, 143688, Note_on_c, 6, 63, 0
7, 143688, Note_on_c, 6, 51, 0
7, 143700, Note_on_c, 6, 51, 118
7, 143700, Note_on_c, 6, 63, 127
7, 143988, Note_on_c, 6, 63, 0
7, 143988, Note_on_c, 6, 51, 0
7, 144060, Note_on_c, 6, 46, 107
7, 144060, Note_on_c, 6, 58, 116
7, 144132, Note_on_c, 6, 58, 0
7, 144132, Note_on_c, 6, 46, 0
7, 144150, Note_on_c, 6, 46, 116
7, 144150, Note_on_c, 6, 58, 121
7, 144174, Note_on_c, 6, 58, 0
7, 144174, Note_on_c, 6, 46, 0
7, 144180, Note_on_c, 6, 46, 116
7, 144180, Note_on_c, 6, 58, 125
7, 144228, Note_on_c, 6, 58, 0
7, 144228, Note_on_c, 6, 46, 0
7, 144240, Note_on_c, 6, 46, 117
7, 144240, Note_on_c, 6, 58, 127
7, 144288, Note_on_c, 6, 58, 0
7, 144288, Note_on_c, 6, 46, 0
7, 144300, Note_on_c, 6, 46, 116
7, 144300, Note_on_c, 6, 58, 121
7, 144348, Note_on_c, 6, 58, 0
7, 144348, Note_on_c, 6, 46, 0
7, 144360, Note_on_c, 6, 46, 121
7, 144360, Note_on_c, 6, 58, 123
7, 144408, Note_on_c, 6, 58, 0
7, 144408, Note_on_c, 6, 46, 0
7, 144420, Note_on_c, 6, 46, 112
7, 144420, Note_on_c, 6, 58, 121
7, 144708, Note_on_c, 6, 58, 0
7, 144708, Note_on_c, 6, 46, 0
7, 144780, Note_on_c, 6, 51, 127
7, 144876, Note_on_c, 6, 51, 0
7, 153060, Note_on_c, 6, 63, 120
7, 153060, Note_on_c, 6, 51, 114
7, 153156, Note_on_c, 6, 51, 0
7, 153156, Note_on_c, 6, 63, 0
7, 153240, Note_on_c, 6, 63, 125
7, 153240, Note_on_c, 6, 51, 120
7, 153336, Note_on_c, 6, 51, 0
7, 153336, Note_on_c, 6, 63, 0
7, 153360, Note_on_c, 6, 63, 112
7, 153360, Note_on_c, 6, 51, 103
7, 153408, Note_on_c, 6, 51, 0
7, 153408, Note_on_c, 6, 63, 0
7, 153420, Note_on_c, 6, 63, 127
7, 153420, Note_on_c, 6, 51, 118
7, 153468, Note_on_c, 6, 51, 0
7, 153468, Note_on_c, 6, 63, 0
7, 153480, Note_on_c, 6, 63, 111
7, 153480, Note_on_c, 6, 51, 109
7, 153696, Note_on_c, 6, 51, 0
7, 153696, Note_on_c, 6, 63, 0
7, 153720, Note_on_c, 6, 58, 105
7, 153720, Note_on_c, 6, 46, 111
7, 153768, Note_on_c, 6, 46, 0
7, 153768, Note_on_c, 6, 58, 0
7, 153780, Note_on_c, 6, 58, 127
7, 153780, Note_on_c, 6, 46, 120
7, 153828, Note_on_c, 6, 46, 0
7, 153828, Note_on_c, 6, 58, 0
7, 153840, Note_on_c, 6, 58, 127
7, 153840, Note_on_c, 6, 46, 105
7, 154056, Note_on_c, 6, 46, 0
7, 154056, Note_on_c, 6, 58, 0
7, 154080, Note_on_c, 6, 58, 127
7, 154080, Note_on_c, 6, 46, 116
7, 154128, Note_on_c, 6, 46, 0
7, 154128, Note_on_c, 6, 58, 0
7, 154140, Note_on_c, 6, 63, 112
7, 154140, Note_on_c, 6, 51, 113
7, 154188, Note_on_c, 6, 51, 0
7, 154188, Note_on_c, 6, 63, 0
7, 154200, Note_on_c, 6, 63, 114
7, 154200, Note_on_c, 6, 51, 112
7, 154296, Note_on_c, 6, 51, 0
7, 154296, Note_on_c, 6, 63, 0
7, 154320, Note_on_c, 6, 63, 111
7, 154320, Note_on_c, 6, 51, 104
7, 154368, Note_on_c, 6, 51, 0
7, 154368, Note_on_c, 6, 63, 0
7, 154380, Note_on_c, 6, 63, 118
7, 154380, Note_on_c, 6, 51, 114
7, 154476, Note_on_c, 6, 51, 0
7, 154476, Note_on_c, 6, 63, 0
7, 154500, Note_on_c, 6, 63, 117
7, 154500, Note_on_c, 6, 51, 112
7, 154548, Note_on_c, 6, 51, 0
7, 154548, Note_on_c, 6, 63, 0
7, 154560, Note_on_c, 6, 63, 127
7, 154560, Note_on_c, 6, 51, 117
7, 154656, Note_on_c, 6, 51, 0
7, 154656, Note_on_c, 6, 63, 0
7, 154680, Note_on_c, 6, 63, 123
7, 154680, Note_on_c, 6, 51, 114
7, 154728, Note_on_c, 6, 51, 0
7, 154728, Note_on_c, 6, 63, 0
7, 154740, Note_on_c, 6, 63, 127
7, 154740, Note_on_c, 6, 51, 117
7, 154836, Note_on_c, 6, 51, 0
7, 154836, Note_on_c, 6, 63, 0
7, 154860, Note_on_c, 6, 63, 127
7, 154860, Note_on_c, 6, 51, 110
7, 154956, Note_on_c, 6, 51, 0
7, 154956, Note_on_c, 6, 63, 0
7, 155040, Note_on_c, 6, 63, 121
7, 155040, Note_on_c, 6, 51, 113
7, 155136, Note_on_c, 6, 51, 0
7, 155136, Note_on_c, 6, 63, 0
7, 155220, Note_on_c, 6, 63, 117
7, 155220, Note_on_c, 6, 51, 109
7, 155316, Note_on_c, 6, 51, 0
7, 155316, Note_on_c, 6, 63, 0
7, 155316, End_track
8, 0, Start_track
8, 0, MIDI_port, 0
8, 0, Title_t, "Timpani"
8, 0, Program_c, 8, 47
8, 0, Control_c, 8, 7, 100
8, 0, Control_c, 8, 10, 60
8, 0, Control_c, 8, 93, 0
8, 0, Control_c, 8, 91, 0
8, 5760, Note_on_c, 8, 51, 127
8, 5808, Note_on_c, 8, 51, 0
8, 5880, Note_on_c, 8, 51, 121
8, 5928, Note_on_c, 8, 51, 0
8, 6060, Note_on_c, 8, 51, 118
8, 6108, Note_on_c, 8, 51, 0
8, 6120, Note_on_c, 8, 51, 113
8, 6168, Note_on_c, 8, 51, 0
8, 6180, Note_on_c, 8, 51, 115
8, 6204, Note_on_c, 8, 51, 0
8, 6210, Note_on_c, 8, 51, 105
8, 6234, Note_on_c, 8, 51, 0
8, 6240, Note_on_c, 8, 51, 121
8, 6264, Note_on_c, 8, 51, 0
8, 6270, Note_on_c, 8, 51, 113
8, 6294, Note_on_c, 8, 51, 0
8, 6300, Note_on_c, 8, 51, 121
8, 6396, Note_on_c, 8, 51, 0
8, 6420, Note_on_c, 8, 51, 118
8, 6468, Note_on_c, 8, 51, 0
8, 6480, Note_on_c, 8, 46, 118
8, 6528, Note_on_c, 8, 46, 0
8, 6600, Note_on_c, 8, 46, 123
8, 6648, Note_on_c, 8, 46, 0
8, 6660, Note_on_c, 8, 51, 118
8, 6708, Note_on_c, 8, 51, 0
8, 6780, Note_on_c, 8, 51, 121
8, 6828, Note_on_c, 8, 51, 0
8, 6840, Note_on_c, 8, 46, 126
8, 6852, Note_on_c, 8, 46, 0
8, 6855, Note_on_c, 8, 46, 103
8, 6867, Note_on_c, 8, 46, 0
8, 6870, Note_on_c, 8, 46, 103
8, 6882, Note_on_c, 8, 46, 0
8, 6885, Note_on_c, 8, 46, 103
8, 6897, Note_on_c, 8, 46, 0
8, 6900, Note_on_c, 8, 46, 99
8, 6912, Note_on_c, 8, 46, 0
8, 6915, Note_on_c, 8, 46, 100
8, 6927, Note_on_c, 8, 46, 0
8, 6930, Note_on_c, 8, 46, 105
8, 6942, Note_on_c, 8, 46, 0
8, 6945, Note_on_c, 8, 46, 101
8, 6957, Note_on_c, 8, 46, 0
8, 6960, Note_on_c, 8, 46, 121
8, 7008, Note_on_c, 8, 46, 0
8, 7200, Note_on_c, 8, 51, 118
8, 7248, Note_on_c, 8, 51, 0
8, 7320, Note_on_c, 8, 51, 118
8, 7368, Note_on_c, 8, 51, 0
8, 7500, Note_on_c, 8, 51, 115
8, 7548, Note_on_c, 8, 51, 0
8, 7560, Note_on_c, 8, 51, 115
8, 7608, Note_on_c, 8, 51, 0
8, 7620, Note_on_c, 8, 51, 107
8, 7644, Note_on_c, 8, 51, 0
8, 7650, Note_on_c, 8, 51, 111
8, 7674, Note_on_c, 8, 51, 0
8, 7680, Note_on_c, 8, 51, 109
8, 7704, Note_on_c, 8, 51, 0
8, 7710, Note_on_c, 8, 51, 113
8, 7734, Note_on_c, 8, 51, 0
8, 7740, Note_on_c, 8, 51, 115
8, 7836, Note_on_c, 8, 51, 0
8, 7860, Note_on_c, 8, 51, 123
8, 7908, Note_on_c, 8, 51, 0
8, 7920, Note_on_c, 8, 46, 121
8, 7968, Note_on_c, 8, 46, 0
8, 8040, Note_on_c, 8, 46, 123
8, 8088, Note_on_c, 8, 46, 0
8, 8100, Note_on_c, 8, 51, 111
8, 8148, Note_on_c, 8, 51, 0
8, 8220, Note_on_c, 8, 51, 121
8, 8268, Note_on_c, 8, 51, 0
8, 8280, Note_on_c, 8, 46, 118
8, 8304, Note_on_c, 8, 46, 0
8, 8310, Note_on_c, 8, 46, 107
8, 8334, Note_on_c, 8, 46, 0
8, 8340, Note_on_c, 8, 46, 107
8, 8364, Note_on_c, 8, 46, 0
8, 8370, Note_on_c, 8, 46, 111
8, 8394, Note_on_c, 8, 46, 0
8, 8400, Note_on_c, 8, 46, 111
8, 8424, Note_on_c, 8, 46, 0
8, 8430, Note_on_c, 8, 46, 121
8, 8454, Note_on_c, 8, 46, 0
8, 8460, Note_on_c, 8, 46, 126
8, 8556, Note_on_c, 8, 46, 0
8, 8640, Note_on_c, 8, 46, 118
8, 8736, Note_on_c, 8, 46, 0
8, 8820, Note_on_c, 8, 46, 118
8, 8916, Note_on_c, 8, 46, 0
8, 9000, Note_on_c, 8, 46, 115
8, 9096, Note_on_c, 8, 46, 0
8, 9180, Note_on_c, 8, 46, 115
8, 9276, Note_on_c, 8, 46, 0
8, 9360, Note_on_c, 8, 46, 113
8, 9456, Note_on_c, 8, 46, 0
8, 9480, Note_on_c, 8, 46, 123
8, 9528, Note_on_c, 8, 46, 0
8, 9540, Note_on_c, 8, 46, 118
8, 9612, Note_on_c, 8, 46, 0
8, 9630, Note_on_c, 8, 46, 123
8, 9654, Note_on_c, 8, 46, 0
8, 9660, Note_on_c, 8, 46, 123
8, 9708, Note_on_c, 8, 46, 0
8, 9720, Note_on_c, 8, 51, 121
8, 9816, Note_on_c, 8, 51, 0
8, 9840, Note_on_c, 8, 51, 121
8, 9888, Note_on_c, 8, 51, 0
8, 9900, Note_on_c, 8, 51, 113
8, 9996, Note_on_c, 8, 51, 0
8, 10020, Note_on_c, 8, 46, 113
8, 10068, Note_on_c, 8, 46, 0
8, 10080, Note_on_c, 8, 46, 113
8, 10176, Note_on_c, 8, 46, 0
8, 10200, Note_on_c, 8, 46, 121
8, 10248, Note_on_c, 8, 46, 0
8, 10260, Note_on_c, 8, 46, 121
8, 10332, Note_on_c, 8, 46, 0
8, 10350, Note_on_c, 8, 46, 118
8, 10374, Note_on_c, 8, 46, 0
8, 10380, Note_on_c, 8, 46, 123
8, 10428, Note_on_c, 8, 46, 0
8, 10440, Note_on_c, 8, 51, 107
8, 10536, Note_on_c, 8, 51, 0
8, 10800, Note_on_c, 8, 46, 115
8, 10896, Note_on_c, 8, 46, 0
8, 11160, Note_on_c, 8, 51, 121
8, 11256, Note_on_c, 8, 51, 0
8, 11520, Note_on_c, 8, 51, 115
8, 11616, Note_on_c, 8, 51, 0
8, 11700, Note_on_c, 8, 51, 121
8, 11796, Note_on_c, 8, 51, 0
8, 11880, Note_on_c, 8, 46, 127
8, 11952, Note_on_c, 8, 46, 0
8, 11970, Note_on_c, 8, 46, 121
8, 11994, Note_on_c, 8, 46, 0
8, 12000, Note_on_c, 8, 46, 123
8, 12048, Note_on_c, 8, 46, 0
8, 12060, Note_on_c, 8, 46, 113
8, 12132, Note_on_c, 8, 46, 0
8, 12150, Note_on_c, 8, 46, 121
8, 12174, Note_on_c, 8, 46, 0
8, 12180, Note_on_c, 8, 51, 121
8, 12228, Note_on_c, 8, 51, 0
8, 12240, Note_on_c, 8, 51, 121
8, 12336, Note_on_c, 8, 51, 0
8, 12420, Note_on_c, 8, 46, 111
8, 12516, Note_on_c, 8, 46, 0
8, 12600, Note_on_c, 8, 51, 126
8, 12696, Note_on_c, 8, 51, 0
8, 12960, Note_on_c, 8, 51, 121
8, 13056, Note_on_c, 8, 51, 0
8, 13140, Note_on_c, 8, 51, 123
8, 13164, Note_on_c, 8, 51, 0
8, 13170, Note_on_c, 8, 51, 118
8, 13194, Note_on_c, 8, 51, 0
8, 13200, Note_on_c, 8, 51, 118
8, 13224, Note_on_c, 8, 51, 0
8, 13230, Note_on_c, 8, 51, 118
8, 13254, Note_on_c, 8, 51, 0
8, 13260, Note_on_c, 8, 51, 113
8, 13284, Note_on_c, 8, 51, 0
8, 13290, Note_on_c, 8, 51, 118
8, 13314, Note_on_c, 8, 51, 0
8, 13320, Note_on_c, 8, 46, 92
8, 13416, Note_on_c, 8, 46, 0
8, 13680, Note_on_c, 8, 46, 126
8, 13776, Note_on_c, 8, 46, 0
8, 13860, Note_on_c, 8, 46, 113
8, 13884, Note_on_c, 8, 46, 0
8, 13890, Note_on_c, 8, 46, 97
8, 13914, Note_on_c, 8, 46, 0
8, 13920, Note_on_c, 8, 46, 101
8, 13944, Note_on_c, 8, 46, 0
8, 13950, Note_on_c, 8, 46, 111
8, 13974, Note_on_c, 8, 46, 0
8, 13980, Note_on_c, 8, 46, 101
8, 14004, Note_on_c, 8, 46, 0
8, 14010, Note_on_c, 8, 46, 96
8, 14034, Note_on_c, 8, 46, 0
8, 14040, Note_on_c, 8, 51, 123
8, 14136, Note_on_c, 8, 51, 0
8, 14400, Note_on_c, 8, 51, 103
8, 14496, Note_on_c, 8, 51, 0
8, 14760, Note_on_c, 8, 51, 118
8, 14856, Note_on_c, 8, 51, 0
8, 21960, Note_on_c, 8, 51, 127
8, 22056, Note_on_c, 8, 51, 0
8, 22500, Note_on_c, 8, 51, 127
8, 22548, Note_on_c, 8, 51, 0
8, 22560, Note_on_c, 8, 51, 126
8, 22608, Note_on_c, 8, 51, 0
8, 94320, Note_on_c, 8, 51, 127
8, 94368, Note_on_c, 8, 51, 0
8, 94440, Note_on_c, 8, 51, 121
8, 94488, Note_on_c, 8, 51, 0
8, 94620, Note_on_c, 8, 51, 118
8, 94668, Note_on_c, 8, 51, 0
8, 94680, Note_on_c, 8, 51, 113
8, 94728, Note_on_c, 8, 51, 0
8, 94740, Note_on_c, 8, 51, 115
8, 94764, Note_on_c, 8, 51, 0
8, 94770, Note_on_c, 8, 51, 105
8, 94794, Note_on_c, 8, 51, 0
8, 94800, Note_on_c, 8, 51, 121
8, 94824, Note_on_c, 8, 51, 0
8, 94830, Note_on_c, 8, 51, 113
8, 94854, Note_on_c, 8, 51, 0
8, 94860, Note_on_c, 8, 51, 121
8, 94956, Note_on_c, 8, 51, 0
8, 94980, Note_on_c, 8, 51, 118
8, 95028, Note_on_c, 8, 51, 0
8, 95040, Note_on_c, 8, 46, 118
8, 95088, Note_on_c, 8, 46, 0
8, 95160, Note_on_c, 8, 46, 123
8, 95208, Note_on_c, 8, 46, 0
8, 95220, Note_on_c, 8, 51, 118
8, 95268, Note_on_c, 8, 51, 0
8, 95340, Note_on_c, 8, 51, 121
8, 95388, Note_on_c, 8, 51, 0
8, 95400, Note_on_c, 8, 46, 126
8, 95412, Note_on_c, 8, 46, 0
8, 95415, Note_on_c, 8, 46, 103
8, 95427, Note_on_c, 8, 46, 0
8, 95430, Note_on_c, 8, 46, 103
8, 95442, Note_on_c, 8, 46, 0
8, 95445, Note_on_c, 8, 46, 103
8, 95457, Note_on_c, 8, 46, 0
8, 95460, Note_on_c, 8, 46, 99
8, 95472, Note_on_c, 8, 46, 0
8, 95475, Note_on_c, 8, 46, 100
8, 95487, Note_on_c, 8, 46, 0
8, 95490, Note_on_c, 8, 46, 105
8, 95502, Note_on_c, 8, 46, 0
8, 95505, Note_on_c, 8, 46, 101
8, 95517, Note_on_c, 8, 46, 0
8, 95520, Note_on_c, 8, 46, 121
8, 95568, Note_on_c, 8, 46, 0
8, 95760, Note_on_c, 8, 51, 118
8, 95808, Note_on_c, 8, 51, 0
8, 95880, Note_on_c, 8, 51, 118
8, 95928, Note_on_c, 8, 51, 0
8, 96060, Note_on_c, 8, 51, 115
8, 96108, Note_on_c, 8, 51, 0
8, 96120, Note_on_c, 8, 51, 115
8, 96168, Note_on_c, 8, 51, 0
8, 96180, Note_on_c, 8, 51, 107
8, 96204, Note_on_c, 8, 51, 0
8, 96210, Note_on_c, 8, 51, 111
8, 96234, Note_on_c, 8, 51, 0
8, 96240, Note_on_c, 8, 51, 109
8, 96264, Note_on_c, 8, 51, 0
8, 96270, Note_on_c, 8, 51, 113
8, 96294, Note_on_c, 8, 51, 0
8, 96300, Note_on_c, 8, 51, 115
8, 96396, Note_on_c, 8, 51, 0
8, 96420, Note_on_c, 8, 51, 123
8, 96468, Note_on_c, 8, 51, 0
8, 96480, Note_on_c, 8, 46, 121
8, 96528, Note_on_c, 8, 46, 0
8, 96600, Note_on_c, 8, 46, 123
8, 96648, Note_on_c, 8, 46, 0
8, 96660, Note_on_c, 8, 51, 111
8, 96708, Note_on_c, 8, 51, 0
8, 96780, Note_on_c, 8, 51, 121
8, 96828, Note_on_c, 8, 51, 0
8, 96840, Note_on_c, 8, 46, 118
8, 96864, Note_on_c, 8, 46, 0
8, 96870, Note_on_c, 8, 46, 107
8, 96894, Note_on_c, 8, 46, 0
8, 96900, Note_on_c, 8, 46, 107
8, 96924, Note_on_c, 8, 46, 0
8, 96930, Note_on_c, 8, 46, 111
8, 96954, Note_on_c, 8, 46, 0
8, 96960, Note_on_c, 8, 46, 111
8, 96984, Note_on_c, 8, 46, 0
8, 96990, Note_on_c, 8, 46, 121
8, 97014, Note_on_c, 8, 46, 0
8, 97020, Note_on_c, 8, 46, 126
8, 97116, Note_on_c, 8, 46, 0
8, 97200, Note_on_c, 8, 46, 118
8, 97296, Note_on_c, 8, 46, 0
8, 97380, Note_on_c, 8, 46, 118
8, 97476, Note_on_c, 8, 46, 0
8, 97560, Note_on_c, 8, 46, 115
8, 97656, Note_on_c, 8, 46, 0
8, 97740, Note_on_c, 8, 46, 115
8, 97836, Note_on_c, 8, 46, 0
8, 97920, Note_on_c, 8, 46, 113
8, 98016, Note_on_c, 8, 46, 0
8, 98040, Note_on_c, 8, 46, 123
8, 98088, Note_on_c, 8, 46, 0
8, 98100, Note_on_c, 8, 46, 118
8, 98172, Note_on_c, 8, 46, 0
8, 98190, Note_on_c, 8, 46, 123
8, 98214, Note_on_c, 8, 46, 0
8, 98220, Note_on_c, 8, 46, 123
8, 98268, Note_on_c, 8, 46, 0
8, 98280, Note_on_c, 8, 51, 121
8, 98376, Note_on_c, 8, 51, 0
8, 98400, Note_on_c, 8, 51, 121
8, 98448, Note_on_c, 8, 51, 0
8, 98460, Note_on_c, 8, 51, 113
8, 98556, Note_on_c, 8, 51, 0
8, 98580, Note_on_c, 8, 46, 113
8, 98628, Note_on_c, 8, 46, 0
8, 98640, Note_on_c, 8, 46, 113
8, 98736, Note_on_c, 8, 46, 0
8, 98760, Note_on_c, 8, 46, 121
8, 98808, Note_on_c, 8, 46, 0
8, 98820, Note_on_c, 8, 46, 121
8, 98892, Note_on_c, 8, 46, 0
8, 98910, Note_on_c, 8, 46, 118
8, 98934, Note_on_c, 8, 46, 0
8, 98940, Note_on_c, 8, 46, 123
8, 98988, Note_on_c, 8, 46, 0
8, 99000, Note_on_c, 8, 51, 107
8, 99096, Note_on_c, 8, 51, 0
8, 99360, Note_on_c, 8, 46, 115
8, 99456, Note_on_c, 8, 46, 0
8, 99720, Note_on_c, 8, 51, 121
8, 99816, Note_on_c, 8, 51, 0
8, 100080, Note_on_c, 8, 51, 115
8, 100176, Note_on_c, 8, 51, 0
8, 100260, Note_on_c, 8, 51, 121
8, 100356, Note_on_c, 8, 51, 0
8, 100440, Note_on_c, 8, 46, 127
8, 100512, Note_on_c, 8, 46, 0
8, 100530, Note_on_c, 8, 46, 121
8, 100554, Note_on_c, 8, 46, 0
8, 100560, Note_on_c, 8, 46, 123
8, 100608, Note_on_c, 8, 46, 0
8, 100620, Note_on_c, 8, 46, 113
8, 100692, Note_on_c, 8, 46, 0
8, 100710, Note_on_c, 8, 46, 121
8, 100734, Note_on_c, 8, 46, 0
8, 100740, Note_on_c, 8, 51, 121
8, 100788, Note_on_c, 8, 51, 0
8, 100800, Note_on_c, 8, 51, 121
8, 100896, Note_on_c, 8, 51, 0
8, 100980, Note_on_c, 8, 46, 111
8, 101076, Note_on_c, 8, 46, 0
8, 101160, Note_on_c, 8, 51, 126
8, 101256, Note_on_c, 8, 51, 0
8, 101520, Note_on_c, 8, 51, 121
8, 101616, Note_on_c, 8, 51, 0
8, 101700, Note_on_c, 8, 51, 123
8, 101724, Note_on_c, 8, 51, 0
8, 101730, Note_on_c, 8, 51, 118
8, 101754, Note_on_c, 8, 51, 0
8, 101760, Note_on_c, 8, 51, 118
8, 101784, Note_on_c, 8, 51, 0
8, 101790, Note_on_c, 8, 51, 118
8, 101814, Note_on_c, 8, 51, 0
8, 101820, Note_on_c, 8, 51, 113
8, 101844, Note_on_c, 8, 51, 0
8, 101850, Note_on_c, 8, 51, 118
8, 101874, Note_on_c, 8, 51, 0
8, 101880, Note_on_c, 8, 46, 92
8, 101976, Note_on_c, 8, 46, 0
8, 102240, Note_on_c, 8, 46, 126
8, 102336, Note_on_c, 8, 46, 0
8, 102420, Note_on_c, 8, 46, 113
8, 102444, Note_on_c, 8, 46, 0
8, 102450, Note_on_c, 8, 46, 97
8, 102474, Note_on_c, 8, 46, 0
8, 102480, Note_on_c, 8, 46, 101
8, 102504, Note_on_c, 8, 46, 0
8, 102510, Note_on_c, 8, 46, 111
8, 102534, Note_on_c, 8, 46, 0
8, 102540, Note_on_c, 8, 46, 101
8, 102564, Note_on_c, 8, 46, 0
8, 102570, Note_on_c, 8, 46, 96
8, 102594, Note_on_c, 8, 46, 0
8, 102600, Note_on_c, 8, 51, 123
8, 102696, Note_on_c, 8, 51, 0
8, 102960, Note_on_c, 8, 51, 103
8, 103056, Note_on_c, 8, 51, 0
8, 103320, Note_on_c, 8, 51, 118
8, 103416, Note_on_c, 8, 51, 0
8, 112080, Note_on_c, 8, 46, 121
8, 112128, Note_on_c, 8, 46, 0
8, 112140, Note_on_c, 8, 46, 103
8, 112236, Note_on_c, 8, 46, 0
8, 112260, Note_on_c, 8, 46, 115
8, 112308, Note_on_c, 8, 46, 0
8, 112320, Note_on_c, 8, 46, 121
8, 112416, Note_on_c, 8, 46, 0
8, 113040, Note_on_c, 8, 46, 123
8, 113136, Note_on_c, 8, 46, 0
8, 123540, Note_on_c, 8, 51, 115
8, 123636, Note_on_c, 8, 51, 0
8, 123720, Note_on_c, 8, 51, 115
8, 123816, Note_on_c, 8, 51, 0
8, 123900, Note_on_c, 8, 51, 121
8, 123996, Note_on_c, 8, 51, 0
8, 124980, Note_on_c, 8, 51, 115
8, 125076, Note_on_c, 8, 51, 0
8, 125160, Note_on_c, 8, 51, 115
8, 125256, Note_on_c, 8, 51, 0
8, 125340, Note_on_c, 8, 51, 121
8, 125436, Note_on_c, 8, 51, 0
8, 126420, Note_on_c, 8, 51, 121
8, 126516, Note_on_c, 8, 51, 0
8, 126600, Note_on_c, 8, 51, 107
8, 126696, Note_on_c, 8, 51, 0
8, 126780, Note_on_c, 8, 51, 115
8, 126876, Note_on_c, 8, 51, 0
8, 128580, Note_on_c, 8, 51, 121
8, 128676, Note_on_c, 8, 51, 0
8, 128760, Note_on_c, 8, 51, 115
8, 128856, Note_on_c, 8, 51, 0
8, 128940, Note_on_c, 8, 51, 118
8, 129036, Note_on_c, 8, 51, 0
8, 129120, Note_on_c, 8, 51, 115
8, 129216, Note_on_c, 8, 51, 0
8, 129300, Note_on_c, 8, 46, 115
8, 129396, Note_on_c, 8, 46, 0
8, 129480, Note_on_c, 8, 46, 118
8, 129576, Note_on_c, 8, 46, 0
8, 129660, Note_on_c, 8, 46, 115
8, 129756, Note_on_c, 8, 46, 0
8, 129840, Note_on_c, 8, 46, 113
8, 129936, Note_on_c, 8, 46, 0
8, 129960, Note_on_c, 8, 46, 107
8, 130008, Note_on_c, 8, 46, 0
8, 130020, Note_on_c, 8, 51, 123
8, 130116, Note_on_c, 8, 51, 0
8, 130200, Note_on_c, 8, 51, 121
8, 130296, Note_on_c, 8, 51, 0
8, 130380, Note_on_c, 8, 51, 111
8, 130476, Note_on_c, 8, 51, 0
8, 130560, Note_on_c, 8, 51, 111
8, 130656, Note_on_c, 8, 51, 0
8, 130740, Note_on_c, 8, 46, 121
8, 130836, Note_on_c, 8, 46, 0
8, 130920, Note_on_c, 8, 51, 111
8, 131016, Note_on_c, 8, 51, 0
8, 131100, Note_on_c, 8, 46, 118
8, 131196, Note_on_c, 8, 46, 0
8, 131280, Note_on_c, 8, 46, 115
8, 131376, Note_on_c, 8, 46, 0
8, 131460, Note_on_c, 8, 46, 118
8, 131556, Note_on_c, 8, 46, 0
8, 131640, Note_on_c, 8, 46, 115
8, 131736, Note_on_c, 8, 46, 0
8, 131820, Note_on_c, 8, 46, 123
8, 131916, Note_on_c, 8, 46, 0
8, 132000, Note_on_c, 8, 46, 118
8, 132096, Note_on_c, 8, 46, 0
8, 132180, Note_on_c, 8, 46, 118
8, 132276, Note_on_c, 8, 46, 0
8, 132360, Note_on_c, 8, 46, 118
8, 132456, Note_on_c, 8, 46, 0
8, 132540, Note_on_c, 8, 51, 121
8, 132636, Note_on_c, 8, 51, 0
8, 132720, Note_on_c, 8, 51, 113
8, 132816, Note_on_c, 8, 51, 0
8, 143340, Note_on_c, 8, 51, 123
8, 143436, Note_on_c, 8, 51, 0
8, 144060, Note_on_c, 8, 46, 123
8, 144156, Note_on_c, 8, 46, 0
8, 144780, Note_on_c, 8, 51, 126
8, 144852, Note_on_c, 8, 51, 0
8, 144870, Note_on_c, 8, 51, 126
8, 144894, Note_on_c, 8, 51, 0
8, 144900, Note_on_c, 8, 51, 123
8, 144948, Note_on_c, 8, 51, 0
8, 144960, Note_on_c, 8, 51, 109
8, 145008, Note_on_c, 8, 51, 0
8, 145020, Note_on_c, 8, 51, 115
8, 145068, Note_on_c, 8, 51, 0
8, 145080, Note_on_c, 8, 51, 115
8, 145128, Note_on_c, 8, 51, 0
8, 145140, Note_on_c, 8, 51, 118
8, 145212, Note_on_c, 8, 51, 0
8, 145230, Note_on_c, 8, 51, 126
8, 145254, Note_on_c, 8, 51, 0
8, 145260, Note_on_c, 8, 51, 121
8, 145308, Note_on_c, 8, 51, 0
8, 145320, Note_on_c, 8, 51, 113
8, 145368, Note_on_c, 8, 51, 0
8, 145380, Note_on_c, 8, 51, 113
8, 145428, Note_on_c, 8, 51, 0
8, 145440, Note_on_c, 8, 51, 121
8, 145488, Note_on_c, 8, 51, 0
8, 145500, Note_on_c, 8, 46, 123
8, 145572, Note_on_c, 8, 46, 0
8, 145590, Note_on_c, 8, 46, 126
8, 145614, Note_on_c, 8, 46, 0
8, 145620, Note_on_c, 8, 46, 123
8, 145668, Note_on_c, 8, 46, 0
8, 145680, Note_on_c, 8, 46, 113
8, 145728, Note_on_c, 8, 46, 0
8, 145740, Note_on_c, 8, 46, 111
8, 145788, Note_on_c, 8, 46, 0
8, 145800, Note_on_c, 8, 46, 118
8, 145848, Note_on_c, 8, 46, 0
8, 145860, Note_on_c, 8, 46, 123
8, 145932, Note_on_c, 8, 46, 0
8, 145950, Note_on_c, 8, 46, 126
8, 145974, Note_on_c, 8, 46, 0
8, 145980, Note_on_c, 8, 46, 123
8, 146028, Note_on_c, 8, 46, 0
8, 146040, Note_on_c, 8, 46, 113
8, 146088, Note_on_c, 8, 46, 0
8, 146100, Note_on_c, 8, 46, 111
8, 146148, Note_on_c, 8, 46, 0
8, 146160, Note_on_c, 8, 46, 118
8, 146208, Note_on_c, 8, 46, 0
8, 146220, Note_on_c, 8, 46, 123
8, 146292, Note_on_c, 8, 46, 0
8, 146310, Note_on_c, 8, 46, 126
8, 146334, Note_on_c, 8, 46, 0
8, 146340, Note_on_c, 8, 46, 123
8, 146388, Note_on_c, 8, 46, 0
8, 146400, Note_on_c, 8, 46, 113
8, 146448, Note_on_c, 8, 46, 0
8, 146460, Note_on_c, 8, 46, 111
8, 146508, Note_on_c, 8, 46, 0
8, 146520, Note_on_c, 8, 46, 118
8, 146568, Note_on_c, 8, 46, 0
8, 146580, Note_on_c, 8, 46, 123
8, 146652, Note_on_c, 8, 46, 0
8, 146670, Note_on_c, 8, 46, 126
8, 146694, Note_on_c, 8, 46, 0
8, 146700, Note_on_c, 8, 46, 123
8, 146748, Note_on_c, 8, 46, 0
8, 146760, Note_on_c, 8, 46, 113
8, 146808, Note_on_c, 8, 46, 0
8, 146820, Note_on_c, 8, 46, 111
8, 146868, Note_on_c, 8, 46, 0
8, 146880, Note_on_c, 8, 46, 118
8, 146928, Note_on_c, 8, 46, 0
8, 146940, Note_on_c, 8, 46, 123
8, 147012, Note_on_c, 8, 46, 0
8, 147030, Note_on_c, 8, 46, 126
8, 147054, Note_on_c, 8, 46, 0
8, 147060, Note_on_c, 8, 46, 123
8, 147108, Note_on_c, 8, 46, 0
8, 147120, Note_on_c, 8, 46, 113
8, 147168, Note_on_c, 8, 46, 0
8, 147180, Note_on_c, 8, 46, 111
8, 147228, Note_on_c, 8, 46, 0
8, 147240, Note_on_c, 8, 46, 118
8, 147288, Note_on_c, 8, 46, 0
8, 147300, Note_on_c, 8, 46, 123
8, 147372, Note_on_c, 8, 46, 0
8, 147390, Note_on_c, 8, 46, 126
8, 147414, Note_on_c, 8, 46, 0
8, 147420, Note_on_c, 8, 46, 123
8, 147468, Note_on_c, 8, 46, 0
8, 147480, Note_on_c, 8, 46, 113
8, 147528, Note_on_c, 8, 46, 0
8, 147540, Note_on_c, 8, 46, 111
8, 147588, Note_on_c, 8, 46, 0
8, 147600, Note_on_c, 8, 46, 118
8, 147648, Note_on_c, 8, 46, 0
8, 147660, Note_on_c, 8, 46, 123
8, 147732, Note_on_c, 8, 46, 0
8, 147750, Note_on_c, 8, 46, 126
8, 147774, Note_on_c, 8, 46, 0
8, 147780, Note_on_c, 8, 46, 123
8, 147828, Note_on_c, 8, 46, 0
8, 147840, Note_on_c, 8, 46, 113
8, 147888, Note_on_c, 8, 46, 0
8, 147900, Note_on_c, 8, 46, 111
8, 147948, Note_on_c, 8, 46, 0
8, 147960, Note_on_c, 8, 46, 118
8, 148008, Note_on_c, 8, 46, 0
8, 148020, Note_on_c, 8, 46, 123
8, 148092, Note_on_c, 8, 46, 0
8, 148110, Note_on_c, 8, 46, 126
8, 148134, Note_on_c, 8, 46, 0
8, 148140, Note_on_c, 8, 46, 123
8, 148188, Note_on_c, 8, 46, 0
8, 148200, Note_on_c, 8, 46, 113
8, 148210, Control_c, 8, 7, 125
8, 148248, Note_on_c, 8, 46, 0
8, 148260, Note_on_c, 8, 46, 111
8, 148308, Note_on_c, 8, 46, 0
8, 148320, Note_on_c, 8, 46, 118
8, 148349, Control_c, 8, 7, 126
8, 148359, Control_c, 8, 7, 127
8, 148368, Note_on_c, 8, 46, 0
8, 148380, Note_on_c, 8, 46, 123
8, 148452, Note_on_c, 8, 46, 0
8, 148470, Note_on_c, 8, 46, 126
8, 148494, Note_on_c, 8, 46, 0
8, 148500, Note_on_c, 8, 46, 123
8, 148548, Note_on_c, 8, 46, 0
8, 148560, Note_on_c, 8, 46, 113
8, 148608, Note_on_c, 8, 46, 0
8, 148620, Note_on_c, 8, 46, 111
8, 148668, Note_on_c, 8, 46, 0
8, 148680, Note_on_c, 8, 46, 118
8, 148728, Note_on_c, 8, 46, 0
8, 148740, Note_on_c, 8, 46, 123
8, 148812, Note_on_c, 8, 46, 0
8, 148830, Note_on_c, 8, 46, 126
8, 148854, Note_on_c, 8, 46, 0
8, 148860, Note_on_c, 8, 46, 123
8, 148908, Note_on_c, 8, 46, 0
8, 148920, Note_on_c, 8, 46, 113
8, 148968, Note_on_c, 8, 46, 0
8, 148980, Note_on_c, 8, 46, 111
8, 149028, Note_on_c, 8, 46, 0
8, 149040, Note_on_c, 8, 46, 118
8, 149088, Note_on_c, 8, 46, 0
8, 149100, Note_on_c, 8, 46, 123
8, 149172, Note_on_c, 8, 46, 0
8, 149190, Note_on_c, 8, 46, 126
8, 149214, Note_on_c, 8, 46, 0
8, 149220, Note_on_c, 8, 46, 123
8, 149268, Note_on_c, 8, 46, 0
8, 149280, Note_on_c, 8, 46, 113
8, 149328, Note_on_c, 8, 46, 0
8, 149340, Note_on_c, 8, 46, 111
8, 149388, Note_on_c, 8, 46, 0
8, 149400, Note_on_c, 8, 46, 118
8, 149448, Note_on_c, 8, 46, 0
8, 149460, Note_on_c, 8, 46, 123
8, 149532, Note_on_c, 8, 46, 0
8, 149550, Note_on_c, 8, 46, 126
8, 149574, Note_on_c, 8, 46, 0
8, 149580, Note_on_c, 8, 46, 123
8, 149628, Note_on_c, 8, 46, 0
8, 149640, Note_on_c, 8, 46, 113
8, 149688, Note_on_c, 8, 46, 0
8, 149700, Note_on_c, 8, 46, 111
8, 149748, Note_on_c, 8, 46, 0
8, 149760, Note_on_c, 8, 46, 118
8, 149775, Control_c, 8, 7, 126
8, 149808, Note_on_c, 8, 46, 0
8, 149808, Control_c, 8, 7, 125
8, 149820, Note_on_c, 8, 46, 123
8, 149840, Control_c, 8, 7, 124
8, 149850, Control_c, 8, 7, 123
8, 149860, Control_c, 8, 7, 122
8, 149885, Control_c, 8, 7, 121
8, 149892, Note_on_c, 8, 46, 0
8, 149902, Control_c, 8, 7, 120
8, 149910, Note_on_c, 8, 46, 126
8, 149915, Control_c, 8, 7, 119
8, 149934, Note_on_c, 8, 46, 0
8, 149934, Control_c, 8, 7, 118
8, 149940, Control_c, 8, 7, 117
8, 149940, Note_on_c, 8, 46, 123
8, 149950, Control_c, 8, 7, 115
8, 149969, Control_c, 8, 7, 114
8, 149988, Note_on_c, 8, 46, 0
8, 150000, Control_c, 8, 7, 113
8, 150000, Note_on_c, 8, 46, 113
8, 150032, Control_c, 8, 7, 112
8, 150048, Note_on_c, 8, 46, 0
8, 150048, Control_c, 8, 7, 111
8, 150060, Note_on_c, 8, 46, 111
8, 150065, Control_c, 8, 7, 110
8, 150080, Control_c, 8, 7, 109
8, 150098, Control_c, 8, 7, 108
8, 150108, Note_on_c, 8, 46, 0
8, 150108, Control_c, 8, 7, 107
8, 150120, Note_on_c, 8, 46, 118
8, 150130, Control_c, 8, 7, 106
8, 150168, Note_on_c, 8, 46, 0
8, 150172, Control_c, 8, 7, 105
8, 150180, Note_on_c, 8, 46, 123
8, 150198, Control_c, 8, 7, 104
8, 150222, Control_c, 8, 7, 103
8, 150237, Control_c, 8, 7, 102
8, 150252, Note_on_c, 8, 46, 0
8, 150252, Control_c, 8, 7, 100
8, 150264, Control_c, 8, 7, 99
8, 150270, Note_on_c, 8, 46, 126
8, 150274, Control_c, 8, 7, 98
8, 150285, Control_c, 8, 7, 97
8, 150294, Note_on_c, 8, 46, 0
8, 150294, Control_c, 8, 7, 96
8, 150300, Note_on_c, 8, 46, 123
8, 150310, Control_c, 8, 7, 95
8, 150334, Control_c, 8, 7, 94
8, 150343, Control_c, 8, 7, 93
8, 150348, Note_on_c, 8, 46, 0
8, 150354, Control_c, 8, 7, 92
8, 150360, Note_on_c, 8, 46, 113
8, 150368, Control_c, 8, 7, 91
8, 150386, Control_c, 8, 7, 90
8, 150408, Note_on_c, 8, 46, 0
8, 150410, Control_c, 8, 7, 89
8, 150420, Note_on_c, 8, 46, 111
8, 150425, Control_c, 8, 7, 88
8, 150468, Note_on_c, 8, 46, 0
8, 150480, Note_on_c, 8, 46, 118
8, 150528, Note_on_c, 8, 46, 0
8, 150528, Control_c, 8, 7, 87
8, 150533, Control_c, 8, 7, 85
8, 150540, Note_on_c, 8, 46, 123
8, 150548, Control_c, 8, 7, 84
8, 150558, Control_c, 8, 7, 83
8, 150582, Control_c, 8, 7, 82
8, 150608, Control_c, 8, 7, 81
8, 150612, Note_on_c, 8, 46, 0
8, 150625, Control_c, 8, 7, 80
8, 150630, Note_on_c, 8, 46, 126
8, 150648, Control_c, 8, 7, 79
8, 150654, Note_on_c, 8, 46, 0
8, 150660, Note_on_c, 8, 46, 123
8, 150665, Control_c, 8, 7, 78
8, 150680, Control_c, 8, 7, 77
8, 150699, Control_c, 8, 7, 76
8, 150708, Note_on_c, 8, 46, 0
8, 150710, Control_c, 8, 7, 75
8, 150720, Note_on_c, 8, 46, 113
8, 150768, Note_on_c, 8, 46, 0
8, 150780, Note_on_c, 8, 46, 111
8, 150828, Note_on_c, 8, 46, 0
8, 150840, Note_on_c, 8, 46, 118
8, 150888, Note_on_c, 8, 46, 0
8, 151005, Control_c, 8, 7, 76
8, 151014, Control_c, 8, 7, 77
8, 151020, Control_c, 8, 7, 79
8, 151030, Control_c, 8, 7, 81
8, 151040, Control_c, 8, 7, 82
8, 151049, Control_c, 8, 7, 83
8, 151055, Control_c, 8, 7, 85
8, 151065, Control_c, 8, 7, 86
8, 151074, Control_c, 8, 7, 87
8, 151080, Control_c, 8, 7, 88
8, 151089, Control_c, 8, 7, 89
8, 151099, Control_c, 8, 7, 90
8, 151104, Control_c, 8, 7, 91
8, 151115, Control_c, 8, 7, 94
8, 151120, Control_c, 8, 7, 95
8, 151130, Control_c, 8, 7, 97
8, 151140, Control_c, 8, 7, 99
8, 151145, Control_c, 8, 7, 102
8, 151155, Control_c, 8, 7, 104
8, 151164, Control_c, 8, 7, 105
8, 151170, Control_c, 8, 7, 107
8, 151180, Control_c, 8, 7, 110
8, 151188, Control_c, 8, 7, 112
8, 151194, Control_c, 8, 7, 114
8, 151205, Control_c, 8, 7, 115
8, 151210, Control_c, 8, 7, 118
8, 151220, Control_c, 8, 7, 119
8, 151230, Control_c, 8, 7, 121
8, 151235, Control_c, 8, 7, 122
8, 151248, Control_c, 8, 7, 124
8, 151254, Control_c, 8, 7, 125
8, 151270, Control_c, 8, 7, 126
8, 151290, Control_c, 8, 7, 127
8, 153060, Note_on_c, 8, 51, 126
8, 153156, Note_on_c, 8, 51, 0
8, 153240, Note_on_c, 8, 51, 123
8, 153336, Note_on_c, 8, 51, 0
8, 153360, Note_on_c, 8, 51, 123
8, 153408, Note_on_c, 8, 51, 0
8, 153420, Note_on_c, 8, 51, 121
8, 153468, Note_on_c, 8, 51, 0
8, 153480, Note_on_c, 8, 51, 123
8, 153576, Note_on_c, 8, 51, 0
8, 153720, Note_on_c, 8, 46, 118
8, 153768, Note_on_c, 8, 46, 0
8, 153780, Note_on_c, 8, 46, 109
8, 153828, Note_on_c, 8, 46, 0
8, 153840, Note_on_c, 8, 46, 126
8, 153936, Note_on_c, 8, 46, 0
8, 154080, Note_on_c, 8, 46, 92
8, 154128, Note_on_c, 8, 46, 0
8, 154140, Note_on_c, 8, 51, 113
8, 154188, Note_on_c, 8, 51, 0
8, 154200, Note_on_c, 8, 51, 113
8, 154296, Note_on_c, 8, 51, 0
8, 154320, Note_on_c, 8, 51, 111
8, 154368, Note_on_c, 8, 51, 0
8, 154380, Note_on_c, 8, 51, 121
8, 154476, Note_on_c, 8, 51, 0
8, 154500, Note_on_c, 8, 51, 118
8, 154548, Note_on_c, 8, 51, 0
8, 154560, Note_on_c, 8, 51, 115
8, 154656, Note_on_c, 8, 51, 0
8, 154680, Note_on_c, 8, 51, 115
8, 154728, Note_on_c, 8, 51, 0
8, 154740, Note_on_c, 8, 51, 113
8, 154836, Note_on_c, 8, 51, 0
8, 154860, Note_on_c, 8, 51, 118
8, 154956, Note_on_c, 8, 51, 0
8, 155040, Note_on_c, 8, 51, 121
8, 155136, Note_on_c, 8, 51, 0
8, 155220, Note_on_c, 8, 51, 115
8, 155316, Note_on_c, 8, 51, 0
8, 155316, End_track
9, 0, Start_track
9, 0, MIDI_port, 1
9, 0, Title_t, "Piano"
9, 0, Program_c, 7, 0
9, 0, Control_c, 7, 7, 100
9, 0, Control_c, 7, 10, 110
9, 0, Control_c, 7, 93, 0
9, 0, Control_c, 7, 91, 0
9, 0, Note_on_c, 7, 70, 113
9, 0, Note_on_c, 7, 63, 101
9, 0, Note_on_c, 7, 67, 127
9, 48, Note_on_c, 7, 67, 0
9, 48, Note_on_c, 7, 63, 0
9, 48, Note_on_c, 7, 70, 0
9, 60, Note_on_c, 7, 75, 127
9, 60, Note_on_c, 7, 63, 89
9, 60, Note_on_c, 7, 67, 118
9, 108, Note_on_c, 7, 67, 0
9, 108, Note_on_c, 7, 63, 0
9, 108, Note_on_c, 7, 75, 0
9, 120, Note_on_c, 7, 75, 127
9, 120, Note_on_c, 7, 70, 89
9, 120, Note_on_c, 7, 67, 113
9, 168, Note_on_c, 7, 67, 0
9, 168, Note_on_c, 7, 70, 0
9, 168, Note_on_c, 7, 75, 0
9, 180, Note_on_c, 7, 79, 127
9, 180, Note_on_c, 7, 70, 101
9, 180, Note_on_c, 7, 67, 127
9, 228, Note_on_c, 7, 67, 0
9, 228, Note_on_c, 7, 70, 0
9, 228, Note_on_c, 7, 79, 0
9, 300, Note_on_c, 7, 75, 123
9, 300, Note_on_c, 7, 70, 107
9, 300, Note_on_c, 7, 79, 127
9, 324, Note_on_c, 7, 79, 0
9, 330, Note_on_c, 7, 82, 121
9, 348, Note_on_c, 7, 70, 0
9, 348, Note_on_c, 7, 75, 0
9, 354, Note_on_c, 7, 82, 0
9, 360, Note_on_c, 7, 79, 102
9, 360, Note_on_c, 7, 75, 86
9, 360, Note_on_c, 7, 82, 101
9, 384, Note_on_c, 7, 82, 0
9, 390, Note_on_c, 7, 87, 115
9, 408, Note_on_c, 7, 75, 0
9, 408, Note_on_c, 7, 79, 0
9, 414, Note_on_c, 7, 87, 0
9, 420, Note_on_c, 7, 82, 117
9, 420, Note_on_c, 7, 79, 117
9, 420, Note_on_c, 7, 75, 117
9, 420, Note_on_c, 7, 87, 117
9, 636, Note_on_c, 7, 87, 0
9, 636, Note_on_c, 7, 82, 0
9, 636, Note_on_c, 7, 79, 0
9, 636, Note_on_c, 7, 75, 0
9, 660, Note_on_c, 7, 82, 119
9, 660, Note_on_c, 7, 79, 119
9, 660, Note_on_c, 7, 87, 119
9, 684, Note_on_c, 7, 87, 0
9, 690, Note_on_c, 7, 91, 119
9, 708, Note_on_c, 7, 79, 0
9, 708, Note_on_c, 7, 82, 0
9, 714, Note_on_c, 7, 91, 0
9, 720, Note_on_c, 7, 80, 117
9, 720, Note_on_c, 7, 82, 117
9, 720, Note_on_c, 7, 77, 117
9, 720, Note_on_c, 7, 89, 117
9, 768, Note_on_c, 7, 89, 0
9, 768, Note_on_c, 7, 80, 0
9, 768, Note_on_c, 7, 82, 0
9, 768, Note_on_c, 7, 77, 0
9, 840, Note_on_c, 7, 82, 106
9, 840, Note_on_c, 7, 80, 106
9, 840, Note_on_c, 7, 77, 106
9, 840, Note_on_c, 7, 86, 106
9, 864, Note_on_c, 7, 86, 0
9, 870, Note_on_c, 7, 89, 100
9, 888, Note_on_c, 7, 82, 0
9, 888, Note_on_c, 7, 77, 0
9, 888, Note_on_c, 7, 80, 0
9, 894, Note_on_c, 7, 89, 0
9, 900, Note_on_c, 7, 82, 102
9, 900, Note_on_c, 7, 79, 102
9, 900, Note_on_c, 7, 87, 102
9, 948, Note_on_c, 7, 87, 0
9, 948, Note_on_c, 7, 79, 0
9, 948, Note_on_c, 7, 82, 0
9, 1020, Note_on_c, 7, 75, 103
9, 1020, Note_on_c, 7, 79, 103
9, 1044, Note_on_c, 7, 79, 0
9, 1050, Note_on_c, 7, 82, 97
9, 1068, Note_on_c, 7, 75, 0
9, 1074, Note_on_c, 7, 82, 0
9, 1080, Note_on_c, 7, 74, 95
9, 1080, Note_on_c, 7, 77, 95
9, 1080, Note_on_c, 7, 82, 95
9, 1092, Note_on_c, 7, 82, 0
9, 1095, Note_on_c, 7, 84, 96
9, 1107, Note_on_c, 7, 84, 0
9, 1110, Note_on_c, 7, 82, 96
9, 1122, Note_on_c, 7, 82, 0
9, 1125, Note_on_c, 7, 84, 96
9, 1137, Note_on_c, 7, 84, 0
9, 1140, Note_on_c, 7, 82, 96
9, 1152, Note_on_c, 7, 82, 0
9, 1155, Note_on_c, 7, 84, 96
9, 1167, Note_on_c, 7, 84, 0
9, 1170, Note_on_c, 7, 82, 96
9, 1182, Note_on_c, 7, 82, 0
9, 1185, Note_on_c, 7, 84, 96
9, 1197, Note_on_c, 7, 84, 0
9, 1200, Note_on_c, 7, 82, 94
9, 1224, Note_on_c, 7, 82, 0
9, 1230, Note_on_c, 7, 81, 97
9, 1254, Note_on_c, 7, 81, 0
9, 1260, Note_on_c, 7, 82, 100
9, 1356, Note_on_c, 7, 82, 0
9, 1356, Note_on_c, 7, 77, 0
9, 1356, Note_on_c, 7, 74, 0
9, 1380, Note_on_c, 7, 70, 75
9, 1428, Note_on_c, 7, 70, 0
9, 1440, Note_on_c, 7, 67, 121
9, 1440, Note_on_c, 7, 63, 96
9, 1440, Note_on_c, 7, 70, 127
9, 1488, Note_on_c, 7, 70, 0
9, 1488, Note_on_c, 7, 63, 0
9, 1488, Note_on_c, 7, 67, 0
9, 1500, Note_on_c, 7, 67, 120
9, 1500, Note_on_c, 7, 63, 99
9, 1500, Note_on_c, 7, 75, 123
9, 1548, Note_on_c, 7, 75, 0
9, 1548, Note_on_c, 7, 63, 0
9, 1548, Note_on_c, 7, 67, 0
9, 1560, Note_on_c, 7, 70, 97
9, 1560, Note_on_c, 7, 67, 112
9, 1560, Note_on_c, 7, 75, 126
9, 1608, Note_on_c, 7, 75, 0
9, 1608, Note_on_c, 7, 67, 0
9, 1608, Note_on_c, 7, 70, 0
9, 1620, Note_on_c, 7, 70, 94
9, 1620, Note_on_c, 7, 67, 116
9, 1620, Note_on_c, 7, 79, 127
9, 1668, Note_on_c, 7, 79, 0
9, 1668, Note_on_c, 7, 67, 0
9, 1668, Note_on_c, 7, 70, 0
9, 1740, Note_on_c, 7, 75, 97
9, 1740, Note_on_c, 7, 70, 92
9, 1740, Note_on_c, 7, 79, 127
9, 1764, Note_on_c, 7, 79, 0
9, 1770, Note_on_c, 7, 82, 115
9, 1788, Note_on_c, 7, 70, 0
9, 1788, Note_on_c, 7, 75, 0
9, 1794, Note_on_c, 7, 82, 0
9, 1800, Note_on_c, 7, 79, 102
9, 1800, Note_on_c, 7, 75, 82
9, 1800, Note_on_c, 7, 82, 89
9, 1824, Note_on_c, 7, 82, 0
9, 1830, Note_on_c, 7, 87, 94
9, 1848, Note_on_c, 7, 75, 0
9, 1848, Note_on_c, 7, 79, 0
9, 1854, Note_on_c, 7, 87, 0
9, 1860, Note_on_c, 7, 82, 62
9, 1860, Note_on_c, 7, 79, 102
9, 1860, Note_on_c, 7, 75, 78
9, 1860, Note_on_c, 7, 87, 94
9, 2076, Note_on_c, 7, 87, 0
9, 2076, Note_on_c, 7, 82, 0
9, 2076, Note_on_c, 7, 79, 0
9, 2076, Note_on_c, 7, 75, 0
9, 2100, Note_on_c, 7, 82, 87
9, 2100, Note_on_c, 7, 79, 102
9, 2100, Note_on_c, 7, 87, 101
9, 2124, Note_on_c, 7, 87, 0
9, 2130, Note_on_c, 7, 91, 102
9, 2148, Note_on_c, 7, 79, 0
9, 2148, Note_on_c, 7, 82, 0
9, 2154, Note_on_c, 7, 91, 0
9, 2160, Note_on_c, 7, 80, 72
9, 2160, Note_on_c, 7, 77, 85
9, 2160, Note_on_c, 7, 82, 74
9, 2160, Note_on_c, 7, 89, 92
9, 2208, Note_on_c, 7, 89, 0
9, 2208, Note_on_c, 7, 80, 0
9, 2208, Note_on_c, 7, 77, 0
9, 2208, Note_on_c, 7, 82, 0
9, 2280, Note_on_c, 7, 77, 85
9, 2280, Note_on_c, 7, 80, 85
9, 2280, Note_on_c, 7, 82, 76
9, 2280, Note_on_c, 7, 86, 92
9, 2304, Note_on_c, 7, 86, 0
9, 2310, Note_on_c, 7, 89, 92
9, 2328, Note_on_c, 7, 77, 0
9, 2328, Note_on_c, 7, 82, 0
9, 2328, Note_on_c, 7, 80, 0
9, 2334, Note_on_c, 7, 89, 0
9, 2340, Note_on_c, 7, 82, 78
9, 2340, Note_on_c, 7, 79, 92
9, 2340, Note_on_c, 7, 87, 87
9, 2388, Note_on_c, 7, 87, 0
9, 2388, Note_on_c, 7, 79, 0
9, 2388, Note_on_c, 7, 82, 0
9, 2460, Note_on_c, 7, 75, 76
9, 2460, Note_on_c, 7, 79, 92
9, 2484, Note_on_c, 7, 79, 0
9, 2490, Note_on_c, 7, 82, 87
9, 2508, Note_on_c, 7, 75, 0
9, 2514, Note_on_c, 7, 82, 0
9, 2520, Note_on_c, 7, 77, 92
9, 2520, Note_on_c, 7, 74, 88
9, 2520, Note_on_c, 7, 82, 91
9, 2532, Note_on_c, 7, 82, 0
9, 2535, Note_on_c, 7, 84, 92
9, 2547, Note_on_c, 7, 84, 0
9, 2550, Note_on_c, 7, 82, 80
9, 2562, Note_on_c, 7, 82, 0
9, 2565, Note_on_c, 7, 84, 92
9, 2577, Note_on_c, 7, 84, 0
9, 2580, Note_on_c, 7, 82, 83
9, 2592, Note_on_c, 7, 82, 0
9, 2595, Note_on_c, 7, 84, 90
9, 2607, Note_on_c, 7, 84, 0
9, 2610, Note_on_c, 7, 82, 81
9, 2622, Note_on_c, 7, 82, 0
9, 2625, Note_on_c, 7, 84, 92
9, 2637, Note_on_c, 7, 84, 0
9, 2640, Note_on_c, 7, 82, 87
9, 2664, Note_on_c, 7, 82, 0
9, 2670, Note_on_c, 7, 81, 92
9, 2694, Note_on_c, 7, 81, 0
9, 2700, Note_on_c, 7, 82, 91
9, 2796, Note_on_c, 7, 82, 0
9, 2796, Note_on_c, 7, 74, 0
9, 2796, Note_on_c, 7, 77, 0
9, 2820, Note_on_c, 7, 82, 77
9, 2820, Note_on_c, 7, 70, 76
9, 2844, Note_on_c, 7, 70, 0
9, 2844, Note_on_c, 7, 82, 0
9, 2850, Note_on_c, 7, 69, 77
9, 2850, Note_on_c, 7, 81, 81
9, 2874, Note_on_c, 7, 81, 0
9, 2874, Note_on_c, 7, 69, 0
9, 2880, Note_on_c, 7, 81, 120
9, 2880, Note_on_c, 7, 69, 118
9, 2928, Note_on_c, 7, 69, 0
9, 2928, Note_on_c, 7, 81, 0
9, 3000, Note_on_c, 7, 80, 126
9, 3000, Note_on_c, 7, 68, 109
9, 3024, Note_on_c, 7, 68, 0
9, 3024, Note_on_c, 7, 80, 0
9, 3030, Note_on_c, 7, 79, 106
9, 3030, Note_on_c, 7, 67, 107
9, 3054, Note_on_c, 7, 67, 0
9, 3054, Note_on_c, 7, 79, 0
9, 3060, Note_on_c, 7, 79, 123
9, 3060, Note_on_c, 7, 67, 118
9, 3108, Note_on_c, 7, 67, 0
9, 3108, Note_on_c, 7, 79, 0
9, 3180, Note_on_c, 7, 78, 118
9, 3180, Note_on_c, 7, 66, 109
9, 3204, Note_on_c, 7, 66, 0
9, 3204, Note_on_c, 7, 78, 0
9, 3210, Note_on_c, 7, 77, 102
9, 3210, Note_on_c, 7, 65, 105
9, 3234, Note_on_c, 7, 65, 0
9, 3234, Note_on_c, 7, 77, 0
9, 3240, Note_on_c, 7, 77, 117
9, 3240, Note_on_c, 7, 65, 110
9, 3288, Note_on_c, 7, 65, 0
9, 3288, Note_on_c, 7, 77, 0
9, 3360, Note_on_c, 7, 64, 113
9, 3360, Note_on_c, 7, 76, 127
9, 3384, Note_on_c, 7, 76, 0
9, 3384, Note_on_c, 7, 64, 0
9, 3390, Note_on_c, 7, 75, 123
9, 3390, Note_on_c, 7, 63, 113
9, 3414, Note_on_c, 7, 63, 0
9, 3414, Note_on_c, 7, 75, 0
9, 3420, Note_on_c, 7, 75, 127
9, 3420, Note_on_c, 7, 63, 118
9, 3468, Note_on_c, 7, 63, 0
9, 3468, Note_on_c, 7, 75, 0
9, 3540, Note_on_c, 7, 70, 121
9, 3540, Note_on_c, 7, 68, 123
9, 3540, Note_on_c, 7, 75, 127
9, 3540, Note_on_c, 7, 63, 107
9, 3564, Note_on_c, 7, 63, 0
9, 3564, Note_on_c, 7, 75, 0
9, 3570, Note_on_c, 7, 74, 106
9, 3570, Note_on_c, 7, 62, 98
9, 3588, Note_on_c, 7, 68, 0
9, 3588, Note_on_c, 7, 70, 0
9, 3594, Note_on_c, 7, 74, 0
9, 3594, Note_on_c, 7, 62, 0
9, 3600, Note_on_c, 7, 68, 111
9, 3600, Note_on_c, 7, 74, 114
9, 3600, Note_on_c, 7, 70, 109
9, 3600, Note_on_c, 7, 62, 118
9, 3696, Note_on_c, 7, 62, 0
9, 3696, Note_on_c, 7, 68, 0
9, 3696, Note_on_c, 7, 74, 0
9, 3696, Note_on_c, 7, 70, 0
9, 3720, Note_on_c, 7, 68, 109
9, 3720, Note_on_c, 7, 74, 107
9, 3720, Note_on_c, 7, 70, 118
9, 3720, Note_on_c, 7, 62, 110
9, 3768, Note_on_c, 7, 62, 0
9, 3768, Note_on_c, 7, 68, 0
9, 3768, Note_on_c, 7, 74, 0
9, 3768, Note_on_c, 7, 70, 0
9, 3780, Note_on_c, 7, 74, 111
9, 3780, Note_on_c, 7, 68, 113
9, 3780, Note_on_c, 7, 70, 107
9, 3780, Note_on_c, 7, 62, 120
9, 3852, Note_on_c, 7, 62, 0
9, 3852, Note_on_c, 7, 74, 0
9, 3852, Note_on_c, 7, 68, 0
9, 3852, Note_on_c, 7, 70, 0
9, 3870, Note_on_c, 7, 75, 118
9, 3870, Note_on_c, 7, 70, 126
9, 3870, Note_on_c, 7, 68, 127
9, 3870, Note_on_c, 7, 63, 123
9, 3894, Note_on_c, 7, 63, 0
9, 3894, Note_on_c, 7, 75, 0
9, 3894, Note_on_c, 7, 70, 0
9, 3894, Note_on_c, 7, 68, 0
9, 3900, Note_on_c, 7, 68, 85
9, 3900, Note_on_c, 7, 70, 94
9, 3900, Note_on_c, 7, 77, 117
9, 3900, Note_on_c, 7, 65, 107
9, 3948, Note_on_c, 7, 65, 0
9, 3948, Note_on_c, 7, 68, 0
9, 3948, Note_on_c, 7, 70, 0
9, 3948, Note_on_c, 7, 77, 0
9, 3960, Note_on_c, 7, 65, 102
9, 3960, Note_on_c, 7, 68, 102
9, 3960, Note_on_c, 7, 70, 102
9, 3960, Note_on_c, 7, 77, 102
9, 4008, Note_on_c, 7, 77, 0
9, 4008, Note_on_c, 7, 65, 0
9, 4008, Note_on_c, 7, 68, 0
9, 4008, Note_on_c, 7, 70, 0
9, 4020, Note_on_c, 7, 79, 127
9, 4020, Note_on_c, 7, 67, 113
9, 4020, Note_on_c, 7, 70, 99
9, 4068, Note_on_c, 7, 70, 0
9, 4068, Note_on_c, 7, 67, 0
9, 4068, Note_on_c, 7, 79, 0
9, 4080, Note_on_c, 7, 63, 106
9, 4080, Note_on_c, 7, 67, 106
9, 4080, Note_on_c, 7, 75, 127
9, 4080, Note_on_c, 7, 70, 85
9, 4128, Note_on_c, 7, 70, 0
9, 4128, Note_on_c, 7, 63, 0
9, 4128, Note_on_c, 7, 67, 0
9, 4128, Note_on_c, 7, 75, 0
9, 4140, Note_on_c, 7, 75, 123
9, 4140, Note_on_c, 7, 63, 118
9, 4140, Note_on_c, 7, 67, 127
9, 4140, Note_on_c, 7, 70, 113
9, 4236, Note_on_c, 7, 70, 0
9, 4236, Note_on_c, 7, 75, 0
9, 4236, Note_on_c, 7, 63, 0
9, 4236, Note_on_c, 7, 67, 0
9, 4260, Note_on_c, 7, 82, 123
9, 4260, Note_on_c, 7, 70, 111
9, 4284, Note_on_c, 7, 70, 0
9, 4284, Note_on_c, 7, 82, 0
9, 4290, Note_on_c, 7, 81, 114
9, 4290, Note_on_c, 7, 69, 112
9, 4314, Note_on_c, 7, 69, 0
9, 4314, Note_on_c, 7, 81, 0
9, 4320, Note_on_c, 7, 81, 116
9, 4320, Note_on_c, 7, 69, 113
9, 4368, Note_on_c, 7, 69, 0
9, 4368, Note_on_c, 7, 81, 0
9, 4440, Note_on_c, 7, 80, 127
9, 4440, Note_on_c, 7, 68, 115
9, 4464, Note_on_c, 7, 68, 0
9, 4464, Note_on_c, 7, 80, 0
9, 4470, Note_on_c, 7, 79, 105
9, 4470, Note_on_c, 7, 67, 111
9, 4494, Note_on_c, 7, 67, 0
9, 4494, Note_on_c, 7, 79, 0
9, 4500, Note_on_c, 7, 67, 116
9, 4500, Note_on_c, 7, 79, 105
9, 4548, Note_on_c, 7, 79, 0
9, 4548, Note_on_c, 7, 67, 0
9, 4620, Note_on_c, 7, 66, 115
9, 4620, Note_on_c, 7, 78, 127
9, 4644, Note_on_c, 7, 78, 0
9, 4644, Note_on_c, 7, 66, 0
9, 4650, Note_on_c, 7, 77, 113
9, 4650, Note_on_c, 7, 65, 108
9, 4674, Note_on_c, 7, 65, 0
9, 4674, Note_on_c, 7, 77, 0
9, 4680, Note_on_c, 7, 77, 127
9, 4680, Note_on_c, 7, 65, 114
9, 4728, Note_on_c, 7, 65, 0
9, 4728, Note_on_c, 7, 77, 0
9, 4800, Note_on_c, 7, 64, 113
9, 4800, Note_on_c, 7, 76, 127
9, 4824, Note_on_c, 7, 76, 0
9, 4824, Note_on_c, 7, 64, 0
9, 4830, Note_on_c, 7, 63, 107
9, 4830, Note_on_c, 7, 75, 107
9, 4854, Note_on_c, 7, 75, 0
9, 4854, Note_on_c, 7, 63, 0
9, 4860, Note_on_c, 7, 74, 127
9, 4860, Note_on_c, 7, 62, 114
9, 4908, Note_on_c, 7, 62, 0
9, 4908, Note_on_c, 7, 74, 0
9, 14940, Note_on_c, 7, 63, 115
9, 14956, Note_on_c, 7, 63, 0
9, 14960, Note_on_c, 7, 62, 123
9, 14976, Note_on_c, 7, 62, 0
9, 14980, Note_on_c, 7, 60, 114
9, 14996, Note_on_c, 7, 60, 0
9, 15000, Note_on_c, 7, 58, 123
9, 15016, Note_on_c, 7, 58, 0
9, 15020, Note_on_c, 7, 60, 120
9, 15036, Note_on_c, 7, 60, 0
9, 15040, Note_on_c, 7, 62, 127
9, 15056, Note_on_c, 7, 62, 0
9, 15060, Note_on_c, 7, 63, 123
9, 15084, Note_on_c, 7, 63, 0
9, 15090, Note_on_c, 7, 65, 127
9, 15114, Note_on_c, 7, 65, 0
9, 15120, Note_on_c, 7, 67, 127
9, 15136, Note_on_c, 7, 67, 0
9, 15140, Note_on_c, 7, 65, 127
9, 15156, Note_on_c, 7, 65, 0
9, 15160, Note_on_c, 7, 63, 96
9, 15176, Note_on_c, 7, 63, 0
9, 15180, Note_on_c, 7, 62, 120
9, 15196, Note_on_c, 7, 62, 0
9, 15200, Note_on_c, 7, 63, 115
9, 15216, Note_on_c, 7, 63, 0
9, 15220, Note_on_c, 7, 65, 110
9, 15236, Note_on_c, 7, 65, 0
9, 15240, Note_on_c, 7, 67, 127
9, 15264, Note_on_c, 7, 67, 0
9, 15270, Note_on_c, 7, 68, 111
9, 15294, Note_on_c, 7, 68, 0
9, 15300, Note_on_c, 7, 70, 109
9, 15316, Note_on_c, 7, 70, 0
9, 15320, Note_on_c, 7, 68, 115
9, 15336, Note_on_c, 7, 68, 0
9, 15340, Note_on_c, 7, 67, 114
9, 15356, Note_on_c, 7, 67, 0
9, 15360, Note_on_c, 7, 68, 123
9, 15384, Note_on_c, 7, 68, 0
9, 15390, Note_on_c, 7, 70, 123
9, 15414, Note_on_c, 7, 70, 0
9, 15420, Note_on_c, 7, 72, 123
9, 15444, Note_on_c, 7, 72, 0
9, 15450, Note_on_c, 7, 74, 127
9, 15474, Note_on_c, 7, 74, 0
9, 15480, Note_on_c, 7, 75, 85
9, 15576, Note_on_c, 7, 75, 0
9, 15660, Note_on_c, 7, 75, 115
9, 15676, Note_on_c, 7, 75, 0
9, 15680, Note_on_c, 7, 74, 125
9, 15696, Note_on_c, 7, 74, 0
9, 15700, Note_on_c, 7, 72, 116
9, 15716, Note_on_c, 7, 72, 0
9, 15720, Note_on_c, 7, 70, 91
9, 15736, Note_on_c, 7, 70, 0
9, 15740, Note_on_c, 7, 72, 104
9, 15756, Note_on_c, 7, 72, 0
9, 15760, Note_on_c, 7, 74, 127
9, 15776, Note_on_c, 7, 74, 0
9, 15780, Note_on_c, 7, 75, 115
9, 15804, Note_on_c, 7, 75, 0
9, 15810, Note_on_c, 7, 77, 117
9, 15834, Note_on_c, 7, 77, 0
9, 15840, Note_on_c, 7, 79, 127
9, 15856, Note_on_c, 7, 79, 0
9, 15860, Note_on_c, 7, 77, 114
9, 15876, Note_on_c, 7, 77, 0
9, 15880, Note_on_c, 7, 75, 84
9, 15896, Note_on_c, 7, 75, 0
9, 15900, Note_on_c, 7, 74, 114
9, 15916, Note_on_c, 7, 74, 0
9, 15920, Note_on_c, 7, 75, 121
9, 15936, Note_on_c, 7, 75, 0
9, 15940, Note_on_c, 7, 77, 127
9, 15956, Note_on_c, 7, 77, 0
9, 15960, Note_on_c, 7, 79, 127
9, 15984, Note_on_c, 7, 79, 0
9, 15990, Note_on_c, 7, 80, 111
9, 16014, Note_on_c, 7, 80, 0
9, 16020, Note_on_c, 7, 82, 115
9, 16036, Note_on_c, 7, 82, 0
9, 16040, Note_on_c, 7, 80, 84
9, 16056, Note_on_c, 7, 80, 0
9, 16060, Note_on_c, 7, 79, 117
9, 16076, Note_on_c, 7, 79, 0
9, 16080, Note_on_c, 7, 80, 121
9, 16104, Note_on_c, 7, 80, 0
9, 16110, Note_on_c, 7, 82, 121
9, 16134, Note_on_c, 7, 82, 0
9, 16140, Note_on_c, 7, 84, 127
9, 16164, Note_on_c, 7, 84, 0
9, 16170, Note_on_c, 7, 86, 127
9, 16194, Note_on_c, 7, 86, 0
9, 16200, Note_on_c, 7, 87, 118
9, 16216, Note_on_c, 7, 87, 0
9, 16220, Note_on_c, 7, 86, 109
9, 16236, Note_on_c, 7, 86, 0
9, 16240, Note_on_c, 7, 84, 111
9, 16256, Note_on_c, 7, 84, 0
9, 16260, Note_on_c, 7, 82, 83
9, 16276, Note_on_c, 7, 82, 0
9, 16280, Note_on_c, 7, 84, 100
9, 16296, Note_on_c, 7, 84, 0
9, 16300, Note_on_c, 7, 86, 113
9, 16316, Note_on_c, 7, 86, 0
9, 16320, Note_on_c, 7, 87, 109
9, 16344, Note_on_c, 7, 87, 0
9, 16350, Note_on_c, 7, 89, 109
9, 16374, Note_on_c, 7, 89, 0
9, 16380, Note_on_c, 7, 91, 127
9, 16396, Note_on_c, 7, 91, 0
9, 16400, Note_on_c, 7, 89, 114
9, 16416, Note_on_c, 7, 89, 0
9, 16420, Note_on_c, 7, 87, 96
9, 16436, Note_on_c, 7, 87, 0
9, 16440, Note_on_c, 7, 86, 109
9, 16456, Note_on_c, 7, 86, 0
9, 16460, Note_on_c, 7, 87, 109
9, 16476, Note_on_c, 7, 87, 0
9, 16480, Note_on_c, 7, 89, 117
9, 16496, Note_on_c, 7, 89, 0
9, 16500, Note_on_c, 7, 91, 127
9, 16524, Note_on_c, 7, 91, 0
9, 16530, Note_on_c, 7, 92, 107
9, 16554, Note_on_c, 7, 92, 0
9, 16560, Note_on_c, 7, 94, 101
9, 16590, Note_on_c, 7, 92, 115
9, 16605, Note_on_c, 7, 94, 0
9, 16620, Note_on_c, 7, 91, 107
9, 16635, Note_on_c, 7, 92, 0
9, 16650, Note_on_c, 7, 96, 121
9, 16665, Note_on_c, 7, 91, 0
9, 16680, Note_on_c, 7, 94, 115
9, 16695, Note_on_c, 7, 96, 0
9, 16710, Note_on_c, 7, 92, 109
9, 16725, Note_on_c, 7, 94, 0
9, 16740, Note_on_c, 7, 91, 116
9, 16755, Note_on_c, 7, 92, 0
9, 16770, Note_on_c, 7, 89, 121
9, 16785, Note_on_c, 7, 91, 0
9, 16800, Note_on_c, 7, 87, 103
9, 16815, Note_on_c, 7, 89, 0
9, 16830, Note_on_c, 7, 86, 116
9, 16845, Note_on_c, 7, 87, 0
9, 16860, Note_on_c, 7, 84, 103
9, 16875, Note_on_c, 7, 86, 0
9, 16890, Note_on_c, 7, 83, 127
9, 16905, Note_on_c, 7, 84, 0
9, 16920, Note_on_c, 7, 82, 111
9, 16935, Note_on_c, 7, 83, 0
9, 16950, Note_on_c, 7, 80, 107
9, 16965, Note_on_c, 7, 82, 0
9, 16980, Note_on_c, 7, 79, 120
9, 16995, Note_on_c, 7, 80, 0
9, 17010, Note_on_c, 7, 84, 127
9, 17025, Note_on_c, 7, 79, 0
9, 17040, Note_on_c, 7, 82, 101
9, 17055, Note_on_c, 7, 84, 0
9, 17070, Note_on_c, 7, 80, 93
9, 17085, Note_on_c, 7, 82, 0
9, 17100, Note_on_c, 7, 79, 114
9, 17115, Note_on_c, 7, 80, 0
9, 17130, Note_on_c, 7, 77, 127
9, 17145, Note_on_c, 7, 79, 0
9, 17160, Note_on_c, 7, 75, 100
9, 17175, Note_on_c, 7, 77, 0
9, 17190, Note_on_c, 7, 74, 107
9, 17205, Note_on_c, 7, 75, 0
9, 17220, Note_on_c, 7, 72, 127
9, 17235, Note_on_c, 7, 74, 0
9, 17250, Note_on_c, 7, 71, 116
9, 17265, Note_on_c, 7, 72, 0
9, 17280, Note_on_c, 7, 71, 0
9, 17280, Note_on_c, 7, 67, 110
9, 17280, Note_on_c, 7, 70, 79
9, 17370, Note_on_c, 7, 70, 0
9, 17370, Note_on_c, 7, 72, 96
9, 17385, Note_on_c, 7, 70, 118
9, 17394, Note_on_c, 7, 72, 0
9, 17400, Note_on_c, 7, 69, 89
9, 17409, Note_on_c, 7, 70, 0
9, 17415, Note_on_c, 7, 70, 113
9, 17424, Note_on_c, 7, 69, 0
9, 17439, Note_on_c, 7, 70, 0
9, 17445, Note_on_c, 7, 79, 117
9, 17564, Note_on_c, 7, 79, 0
9, 17565, Note_on_c, 7, 67, 0
9, 17580, Note_on_c, 7, 75, 95
9, 17628, Note_on_c, 7, 75, 0
9, 17640, Note_on_c, 7, 68, 101
9, 17640, Note_on_c, 7, 74, 113
9, 17820, Note_on_c, 7, 72, 117
9, 17834, Note_on_c, 7, 74, 0
9, 17916, Note_on_c, 7, 68, 0
9, 17939, Note_on_c, 7, 72, 0
9, 17940, Note_on_c, 7, 68, 88
9, 17940, Note_on_c, 7, 71, 50
9, 17988, Note_on_c, 7, 71, 0
9, 17988, Note_on_c, 7, 68, 0
9, 18000, Note_on_c, 7, 68, 86
9, 18000, Note_on_c, 7, 65, 100
9, 18000, Note_on_c, 7, 71, 113
9, 18119, Note_on_c, 7, 71, 0
9, 18120, Note_on_c, 7, 70, 101
9, 18144, Note_on_c, 7, 65, 0
9, 18144, Note_on_c, 7, 68, 0
9, 18168, Note_on_c, 7, 70, 0
9, 18180, Note_on_c, 7, 68, 88
9, 18180, Note_on_c, 7, 65, 108
9, 18180, Note_on_c, 7, 70, 111
9, 18276, Note_on_c, 7, 70, 0
9, 18276, Note_on_c, 7, 65, 0
9, 18276, Note_on_c, 7, 68, 0
9, 18300, Note_on_c, 7, 65, 104
9, 18300, Note_on_c, 7, 70, 82
9, 18300, Note_on_c, 7, 70, 100
9, 18345, Note_on_c, 7, 72, 117
9, 18348, Note_on_c, 7, 70, 0
9, 18348, Note_on_c, 7, 65, 0
9, 18348, Note_on_c, 7, 70, 0
9, 18359, Note_on_c, 7, 72, 0
9, 18360, Note_on_c, 7, 67, 105
9, 18360, Note_on_c, 7, 70, 103
9, 18372, Note_on_c, 7, 70, 0
9, 18375, Note_on_c, 7, 72, 125
9, 18387, Note_on_c, 7, 72, 0
9, 18390, Note_on_c, 7, 70, 103
9, 18402, Note_on_c, 7, 70, 0
9, 18405, Note_on_c, 7, 72, 127
9, 18417, Note_on_c, 7, 72, 0
9, 18420, Note_on_c, 7, 70, 103
9, 18432, Note_on_c, 7, 70, 0
9, 18435, Note_on_c, 7, 72, 123
9, 18447, Note_on_c, 7, 72, 0
9, 18450, Note_on_c, 7, 70, 109
9, 18462, Note_on_c, 7, 70, 0
9, 18465, Note_on_c, 7, 72, 112
9, 18477, Note_on_c, 7, 72, 0
9, 18480, Note_on_c, 7, 70, 107
9, 18492, Note_on_c, 7, 70, 0
9, 18495, Note_on_c, 7, 72, 114
9, 18507, Note_on_c, 7, 72, 0
9, 18510, Note_on_c, 7, 70, 96
9, 18522, Note_on_c, 7, 70, 0
9, 18525, Note_on_c, 7, 69, 111
9, 18540, Note_on_c, 7, 70, 105
9, 18549, Note_on_c, 7, 69, 0
9, 18555, Note_on_c, 7, 75, 101
9, 18564, Note_on_c, 7, 70, 0
9, 18636, Note_on_c, 7, 67, 0
9, 18674, Note_on_c, 7, 75, 0
9, 18705, Note_on_c, 7, 70, 93
9, 18720, Note_on_c, 7, 65, 109
9, 18720, Note_on_c, 7, 70, 78
9, 18732, Note_on_c, 7, 70, 0
9, 18735, Note_on_c, 7, 77, 105
9, 18735, Note_on_c, 7, 70, 91
9, 18753, Note_on_c, 7, 70, 0
9, 18831, Note_on_c, 7, 77, 0
9, 18831, Note_on_c, 7, 70, 0
9, 18855, Note_on_c, 7, 70, 82
9, 18864, Note_on_c, 7, 65, 0
9, 18900, Note_on_c, 7, 67, 109
9, 18903, Note_on_c, 7, 70, 0
9, 18915, Note_on_c, 7, 70, 93
9, 18927, Note_on_c, 7, 70, 0
9, 18930, Note_on_c, 7, 79, 107
9, 18930, Note_on_c, 7, 70, 88
9, 19026, Note_on_c, 7, 70, 0
9, 19026, Note_on_c, 7, 79, 0
9, 19044, Note_on_c, 7, 67, 0
9, 19050, Note_on_c, 7, 70, 78
9, 19080, Note_on_c, 7, 70, 113
9, 19092, Note_on_c, 7, 70, 0
9, 19095, Note_on_c, 7, 70, 111
9, 19095, Note_on_c, 7, 68, 84
9, 19095, Note_on_c, 7, 80, 86
9, 19098, Note_on_c, 7, 70, 0
9, 19371, Note_on_c, 7, 70, 0
9, 19371, Note_on_c, 7, 68, 0
9, 19371, Note_on_c, 7, 80, 0
9, 19395, Note_on_c, 7, 70, 95
9, 19440, Note_on_c, 7, 68, 86
9, 19440, Note_on_c, 7, 70, 80
9, 19443, Note_on_c, 7, 70, 0
9, 19452, Note_on_c, 7, 70, 0
9, 19455, Note_on_c, 7, 80, 82
9, 19455, Note_on_c, 7, 70, 92
9, 19551, Note_on_c, 7, 70, 0
9, 19551, Note_on_c, 7, 80, 0
9, 19575, Note_on_c, 7, 70, 81
9, 19584, Note_on_c, 7, 68, 0
9, 19620, Note_on_c, 7, 70, 86
9, 19623, Note_on_c, 7, 70, 0
9, 19635, Note_on_c, 7, 75, 100
9, 19647, Note_on_c, 7, 75, 0
9, 19650, Note_on_c, 7, 82, 92
9, 19650, Note_on_c, 7, 75, 95
9, 19746, Note_on_c, 7, 75, 0
9, 19746, Note_on_c, 7, 82, 0
9, 19764, Note_on_c, 7, 70, 0
9, 19770, Note_on_c, 7, 75, 100
9, 19800, Note_on_c, 7, 75, 88
9, 19812, Note_on_c, 7, 75, 0
9, 19815, Note_on_c, 7, 75, 78
9, 19815, Note_on_c, 7, 84, 95
9, 19815, Note_on_c, 7, 72, 98
9, 19818, Note_on_c, 7, 75, 0
9, 20091, Note_on_c, 7, 75, 0
9, 20091, Note_on_c, 7, 84, 0
9, 20091, Note_on_c, 7, 72, 0
9, 20115, Note_on_c, 7, 72, 101
9, 20160, Note_on_c, 7, 72, 98
9, 20160, Note_on_c, 7, 77, 111
9, 20163, Note_on_c, 7, 72, 0
9, 20172, Note_on_c, 7, 77, 0
9, 20175, Note_on_c, 7, 77, 98
9, 20175, Note_on_c, 7, 84, 102
9, 20271, Note_on_c, 7, 84, 0
9, 20271, Note_on_c, 7, 77, 0
9, 20295, Note_on_c, 7, 77, 102
9, 20304, Note_on_c, 7, 72, 0
9, 20340, Note_on_c, 7, 74, 103
9, 20343, Note_on_c, 7, 77, 0
9, 20355, Note_on_c, 7, 77, 100
9, 20355, Note_on_c, 7, 86, 102
9, 20451, Note_on_c, 7, 86, 0
9, 20451, Note_on_c, 7, 77, 0
9, 20475, Note_on_c, 7, 77, 100
9, 20484, Note_on_c, 7, 74, 0
9, 20520, Note_on_c, 7, 75, 99
9, 20523, Note_on_c, 7, 77, 0
9, 20550, Note_on_c, 7, 77, 127
9, 20565, Note_on_c, 7, 81, 127
9, 20580, Note_on_c, 7, 84, 104
9, 20595, Note_on_c, 7, 87, 86
9, 20669, Note_on_c, 7, 87, 0
9, 20684, Note_on_c, 7, 84, 0
9, 20699, Note_on_c, 7, 81, 0
9, 20714, Note_on_c, 7, 77, 0
9, 20714, Note_on_c, 7, 75, 0
9, 21240, Note_on_c, 7, 77, 101
9, 21255, Note_on_c, 7, 80, 84
9, 21270, Note_on_c, 7, 82, 115
9, 21285, Note_on_c, 7, 86, 120
9, 21300, Note_on_c, 7, 89, 102
9, 21374, Note_on_c, 7, 89, 0
9, 21389, Note_on_c, 7, 86, 0
9, 21404, Note_on_c, 7, 82, 0
9, 21419, Note_on_c, 7, 80, 0
9, 21434, Note_on_c, 7, 77, 0
9, 23220, Note_on_c, 7, 75, 126
9, 23220, Note_on_c, 7, 87, 121
9, 23268, Note_on_c, 7, 87, 0
9, 23268, Note_on_c, 7, 75, 0
9, 23280, Note_on_c, 7, 74, 121
9, 23280, Note_on_c, 7, 86, 127
9, 23328, Note_on_c, 7, 86, 0
9, 23328, Note_on_c, 7, 74, 0
9, 23340, Note_on_c, 7, 72, 109
9, 23340, Note_on_c, 7, 84, 127
9, 23388, Note_on_c, 7, 84, 0
9, 23388, Note_on_c, 7, 72, 0
9, 23400, Note_on_c, 7, 70, 115
9, 23400, Note_on_c, 7, 82, 115
9, 23448, Note_on_c, 7, 82, 0
9, 23448, Note_on_c, 7, 70, 0
9, 23460, Note_on_c, 7, 69, 127
9, 23460, Note_on_c, 7, 81, 127
9, 23508, Note_on_c, 7, 81, 0
9, 23508, Note_on_c, 7, 69, 0
9, 23520, Note_on_c, 7, 79, 127
9, 23520, Note_on_c, 7, 67, 127
9, 23568, Note_on_c, 7, 67, 0
9, 23568, Note_on_c, 7, 79, 0
9, 23580, Note_on_c, 7, 77, 97
9, 23580, Note_on_c, 7, 65, 101
9, 23676, Note_on_c, 7, 65, 0
9, 23676, Note_on_c, 7, 77, 0
9, 23700, Note_on_c, 7, 77, 116
9, 23700, Note_on_c, 7, 65, 109
9, 23748, Note_on_c, 7, 65, 0
9, 23748, Note_on_c, 7, 77, 0
9, 23940, Note_on_c, 7, 77, 127
9, 23940, Note_on_c, 7, 89, 127
9, 23988, Note_on_c, 7, 89, 0
9, 23988, Note_on_c, 7, 77, 0
9, 24000, Note_on_c, 7, 75, 121
9, 24000, Note_on_c, 7, 87, 111
9, 24048, Note_on_c, 7, 87, 0
9, 24048, Note_on_c, 7, 75, 0
9, 24060, Note_on_c, 7, 74, 125
9, 24060, Note_on_c, 7, 86, 127
9, 24108, Note_on_c, 7, 86, 0
9, 24108, Note_on_c, 7, 74, 0
9, 24120, Note_on_c, 7, 72, 121
9, 24120, Note_on_c, 7, 84, 114
9, 24168, Note_on_c, 7, 84, 0
9, 24168, Note_on_c, 7, 72, 0
9, 24180, Note_on_c, 7, 71, 112
9, 24180, Note_on_c, 7, 83, 121
9, 24228, Note_on_c, 7, 83, 0
9, 24228, Note_on_c, 7, 71, 0
9, 24240, Note_on_c, 7, 68, 107
9, 24240, Note_on_c, 7, 80, 109
9, 24288, Note_on_c, 7, 80, 0
9, 24288, Note_on_c, 7, 68, 0
9, 24300, Note_on_c, 7, 67, 121
9, 24300, Note_on_c, 7, 79, 118
9, 24396, Note_on_c, 7, 79, 0
9, 24396, Note_on_c, 7, 67, 0
9, 24420, Note_on_c, 7, 79, 112
9, 24420, Note_on_c, 7, 67, 112
9, 24468, Note_on_c, 7, 67, 0
9, 24468, Note_on_c, 7, 79, 0
9, 24600, Note_on_c, 7, 55, 107
9, 24606, Note_on_c, 7, 55, 0
9, 24607, Note_on_c, 7, 60, 127
9, 24613, Note_on_c, 7, 60, 0
9, 24615, Note_on_c, 7, 63, 121
9, 24621, Note_on_c, 7, 63, 0
9, 24622, Note_on_c, 7, 67, 127
9, 24628, Note_on_c, 7, 67, 0
9, 24630, Note_on_c, 7, 72, 127
9, 24636, Note_on_c, 7, 72, 0
9, 24637, Note_on_c, 7, 75, 115
9, 24643, Note_on_c, 7, 75, 0
9, 24645, Note_on_c, 7, 79, 123
9, 24651, Note_on_c, 7, 79, 0
9, 24652, Note_on_c, 7, 84, 127
9, 24658, Note_on_c, 7, 84, 0
9, 24660, Note_on_c, 7, 87, 103
9, 24666, Note_on_c, 7, 87, 0
9, 24667, Note_on_c, 7, 79, 127
9, 24667, Note_on_c, 7, 91, 127
9, 24715, Note_on_c, 7, 91, 0
9, 24715, Note_on_c, 7, 79, 0
9, 24727, Note_on_c, 7, 77, 127
9, 24727, Note_on_c, 7, 89, 127
9, 24775, Note_on_c, 7, 89, 0
9, 24775, Note_on_c, 7, 77, 0
9, 24787, Note_on_c, 7, 75, 118
9, 24787, Note_on_c, 7, 87, 118
9, 24835, Note_on_c, 7, 87, 0
9, 24835, Note_on_c, 7, 75, 0
9, 24840, Note_on_c, 7, 74, 127
9, 24840, Note_on_c, 7, 86, 127
9, 24888, Note_on_c, 7, 86, 0
9, 24888, Note_on_c, 7, 74, 0
9, 24900, Note_on_c, 7, 72, 121
9, 24900, Note_on_c, 7, 84, 127
9, 24948, Note_on_c, 7, 84, 0
9, 24948, Note_on_c, 7, 72, 0
9, 24960, Note_on_c, 7, 71, 127
9, 24960, Note_on_c, 7, 83, 127
9, 25008, Note_on_c, 7, 83, 0
9, 25008, Note_on_c, 7, 71, 0
9, 25020, Note_on_c, 7, 72, 127
9, 25020, Note_on_c, 7, 84, 125
9, 25032, Note_on_c, 7, 84, 0
9, 25035, Note_on_c, 7, 86, 127
9, 25047, Note_on_c, 7, 86, 0
9, 25050, Note_on_c, 7, 84, 127
9, 25062, Note_on_c, 7, 84, 0
9, 25065, Note_on_c, 7, 86, 125
9, 25077, Note_on_c, 7, 86, 0
9, 25080, Note_on_c, 7, 84, 127
9, 25092, Note_on_c, 7, 84, 0
9, 25095, Note_on_c, 7, 82, 92
9, 25095, Note_on_c, 7, 86, 120
9, 25107, Note_on_c, 7, 86, 0
9, 25116, Note_on_c, 7, 72, 0
9, 25119, Note_on_c, 7, 82, 0
9, 25125, Note_on_c, 7, 84, 101
9, 25149, Note_on_c, 7, 84, 0
9, 25155, Note_on_c, 7, 86, 105
9, 25200, Note_on_c, 7, 87, 118
9, 25200, Note_on_c, 7, 75, 121
9, 25203, Note_on_c, 7, 86, 0
9, 25248, Note_on_c, 7, 75, 0
9, 25248, Note_on_c, 7, 87, 0
9, 25260, Note_on_c, 7, 67, 92
9, 25260, Note_on_c, 7, 79, 127
9, 25308, Note_on_c, 7, 79, 0
9, 25308, Note_on_c, 7, 67, 0
9, 25320, Note_on_c, 7, 81, 127
9, 25320, Note_on_c, 7, 69, 118
9, 25368, Note_on_c, 7, 69, 0
9, 25368, Note_on_c, 7, 81, 0
9, 25380, Note_on_c, 7, 82, 93
9, 25380, Note_on_c, 7, 70, 101
9, 25500, Note_on_c, 7, 84, 102
9, 25500, Note_on_c, 7, 72, 96
9, 25514, Note_on_c, 7, 70, 0
9, 25514, Note_on_c, 7, 82, 0
9, 25548, Note_on_c, 7, 84, 0
9, 25548, Note_on_c, 7, 72, 0
9, 25560, Note_on_c, 7, 72, 101
9, 25572, Note_on_c, 7, 72, 0
9, 25575, Note_on_c, 7, 84, 125
9, 25803, Note_on_c, 7, 84, 0
9, 25815, Note_on_c, 7, 82, 105
9, 25863, Note_on_c, 7, 82, 0
9, 25875, Note_on_c, 7, 81, 113
9, 25920, Note_on_c, 7, 79, 127
9, 25923, Note_on_c, 7, 81, 0
9, 25980, Note_on_c, 7, 81, 125
9, 25994, Note_on_c, 7, 79, 0
9, 26028, Note_on_c, 7, 81, 0
9, 26040, Note_on_c, 7, 77, 121
9, 26088, Note_on_c, 7, 77, 0
9, 26100, Note_on_c, 7, 79, 127
9, 26160, Note_on_c, 7, 81, 120
9, 26174, Note_on_c, 7, 79, 0
9, 26208, Note_on_c, 7, 81, 0
9, 26220, Note_on_c, 7, 77, 127
9, 26268, Note_on_c, 7, 77, 0
9, 26280, Note_on_c, 7, 77, 107
9, 26340, Note_on_c, 7, 86, 127
9, 26508, Note_on_c, 7, 86, 0
9, 26508, Note_on_c, 7, 77, 0
9, 26520, Note_on_c, 7, 84, 120
9, 26568, Note_on_c, 7, 84, 0
9, 26580, Note_on_c, 7, 82, 113
9, 26628, Note_on_c, 7, 82, 0
9, 26640, Note_on_c, 7, 81, 127
9, 26700, Note_on_c, 7, 82, 103
9, 26714, Note_on_c, 7, 81, 0
9, 26748, Note_on_c, 7, 82, 0
9, 26760, Note_on_c, 7, 77, 113
9, 26808, Note_on_c, 7, 77, 0
9, 26820, Note_on_c, 7, 81, 127
9, 26880, Note_on_c, 7, 82, 111
9, 26894, Note_on_c, 7, 81, 0
9, 26928, Note_on_c, 7, 82, 0
9, 26940, Note_on_c, 7, 77, 104
9, 26988, Note_on_c, 7, 77, 0
9, 27000, Note_on_c, 7, 77, 116
9, 27060, Note_on_c, 7, 87, 107
9, 27144, Note_on_c, 7, 77, 0
9, 27228, Note_on_c, 7, 87, 0
9, 27240, Note_on_c, 7, 86, 127
9, 27288, Note_on_c, 7, 86, 0
9, 27300, Note_on_c, 7, 84, 121
9, 27348, Note_on_c, 7, 84, 0
9, 27360, Note_on_c, 7, 83, 117
9, 27420, Note_on_c, 7, 84, 120
9, 27434, Note_on_c, 7, 83, 0
9, 27468, Note_on_c, 7, 84, 0
9, 27480, Note_on_c, 7, 77, 112
9, 27528, Note_on_c, 7, 77, 0
9, 27540, Note_on_c, 7, 83, 90
9, 27599, Note_on_c, 7, 83, 0
9, 27600, Note_on_c, 7, 84, 103
9, 27648, Note_on_c, 7, 84, 0
9, 27660, Note_on_c, 7, 77, 112
9, 27690, Note_on_c, 7, 89, 114
9, 27704, Note_on_c, 7, 77, 0
9, 27714, Note_on_c, 7, 89, 0
9, 27720, Note_on_c, 7, 89, 127
9, 27744, Note_on_c, 7, 89, 0
9, 27750, Note_on_c, 7, 86, 127
9, 27774, Note_on_c, 7, 86, 0
9, 27780, Note_on_c, 7, 82, 103
9, 27804, Note_on_c, 7, 82, 0
9, 27810, Note_on_c, 7, 89, 127
9, 27834, Note_on_c, 7, 89, 0
9, 27840, Note_on_c, 7, 86, 121
9, 27864, Note_on_c, 7, 86, 0
9, 27870, Note_on_c, 7, 82, 99
9, 27894, Note_on_c, 7, 82, 0
9, 27900, Note_on_c, 7, 91, 127
9, 27924, Note_on_c, 7, 91, 0
9, 27930, Note_on_c, 7, 87, 113
9, 27954, Note_on_c, 7, 87, 0
9, 27960, Note_on_c, 7, 82, 101
9, 27984, Note_on_c, 7, 82, 0
9, 27990, Note_on_c, 7, 91, 127
9, 28014, Note_on_c, 7, 91, 0
9, 28020, Note_on_c, 7, 87, 115
9, 28044, Note_on_c, 7, 87, 0
9, 28050, Note_on_c, 7, 82, 100
9, 28074, Note_on_c, 7, 82, 0
9, 28080, Note_on_c, 7, 89, 125
9, 28104, Note_on_c, 7, 89, 0
9, 28110, Note_on_c, 7, 86, 97
9, 28134, Note_on_c, 7, 86, 0
9, 28140, Note_on_c, 7, 82, 92
9, 28164, Note_on_c, 7, 82, 0
9, 28170, Note_on_c, 7, 89, 109
9, 28194, Note_on_c, 7, 89, 0
9, 28200, Note_on_c, 7, 86, 118
9, 28224, Note_on_c, 7, 86, 0
9, 28230, Note_on_c, 7, 82, 88
9, 28254, Note_on_c, 7, 82, 0
9, 28260, Note_on_c, 7, 89, 117
9, 28284, Note_on_c, 7, 89, 0
9, 28290, Note_on_c, 7, 87, 103
9, 28314, Note_on_c, 7, 87, 0
9, 28320, Note_on_c, 7, 84, 123
9, 28344, Note_on_c, 7, 84, 0
9, 28350, Note_on_c, 7, 89, 121
9, 28374, Note_on_c, 7, 89, 0
9, 28380, Note_on_c, 7, 87, 96
9, 28404, Note_on_c, 7, 87, 0
9, 28410, Note_on_c, 7, 84, 99
9, 28434, Note_on_c, 7, 84, 0
9, 28440, Note_on_c, 7, 89, 123
9, 28464, Note_on_c, 7, 89, 0
9, 28470, Note_on_c, 7, 86, 127
9, 28494, Note_on_c, 7, 86, 0
9, 28500, Note_on_c, 7, 82, 95
9, 28524, Note_on_c, 7, 82, 0
9, 28530, Note_on_c, 7, 89, 125
9, 28554, Note_on_c, 7, 89, 0
9, 28560, Note_on_c, 7, 86, 103
9, 28584, Note_on_c, 7, 86, 0
9, 28590, Note_on_c, 7, 82, 88
9, 28614, Note_on_c, 7, 82, 0
9, 28620, Note_on_c, 7, 91, 127
9, 28644, Note_on_c, 7, 91, 0
9, 28650, Note_on_c, 7, 87, 84
9, 28674, Note_on_c, 7, 87, 0
9, 28680, Note_on_c, 7, 82, 96
9, 28704, Note_on_c, 7, 82, 0
9, 28710, Note_on_c, 7, 91, 127
9, 28734, Note_on_c, 7, 91, 0
9, 28740, Note_on_c, 7, 87, 115
9, 28764, Note_on_c, 7, 87, 0
9, 28770, Note_on_c, 7, 82, 103
9, 28794, Note_on_c, 7, 82, 0
9, 28800, Note_on_c, 7, 89, 120
9, 28824, Note_on_c, 7, 89, 0
9, 28830, Note_on_c, 7, 86, 112
9, 28854, Note_on_c, 7, 86, 0
9, 28860, Note_on_c, 7, 82, 99
9, 28884, Note_on_c, 7, 82, 0
9, 28890, Note_on_c, 7, 89, 117
9, 28914, Note_on_c, 7, 89, 0
9, 28920, Note_on_c, 7, 86, 99
9, 28944, Note_on_c, 7, 86, 0
9, 28950, Note_on_c, 7, 82, 97
9, 28974, Note_on_c, 7, 82, 0
9, 28980, Note_on_c, 7, 89, 121
9, 29004, Note_on_c, 7, 89, 0
9, 29010, Note_on_c, 7, 87, 107
9, 29034, Note_on_c, 7, 87, 0
9, 29040, Note_on_c, 7, 84, 125
9, 29064, Note_on_c, 7, 84, 0
9, 29070, Note_on_c, 7, 89, 127
9, 29094, Note_on_c, 7, 89, 0
9, 29100, Note_on_c, 7, 87, 107
9, 29124, Note_on_c, 7, 87, 0
9, 29130, Note_on_c, 7, 84, 127
9, 29154, Note_on_c, 7, 84, 0
9, 29160, Note_on_c, 7, 89, 125
9, 29184, Note_on_c, 7, 89, 0
9, 29190, Note_on_c, 7, 86, 117
9, 29214, Note_on_c, 7, 86, 0
9, 29220, Note_on_c, 7, 82, 86
9, 29244, Note_on_c, 7, 82, 0
9, 29250, Note_on_c, 7, 89, 127
9, 29274, Note_on_c, 7, 89, 0
9, 29280, Note_on_c, 7, 86, 127
9, 29304, Note_on_c, 7, 86, 0
9, 29310, Note_on_c, 7, 82, 103
9, 29334, Note_on_c, 7, 82, 0
9, 29340, Note_on_c, 7, 91, 127
9, 29364, Note_on_c, 7, 91, 0
9, 29370, Note_on_c, 7, 87, 111
9, 29394, Note_on_c, 7, 87, 0
9, 29400, Note_on_c, 7, 82, 89
9, 29424, Note_on_c, 7, 82, 0
9, 29430, Note_on_c, 7, 91, 127
9, 29454, Note_on_c, 7, 91, 0
9, 29460, Note_on_c, 7, 87, 111
9, 29484, Note_on_c, 7, 87, 0
9, 29490, Note_on_c, 7, 82, 103
9, 29514, Note_on_c, 7, 82, 0
9, 29520, Note_on_c, 7, 89, 125
9, 29544, Note_on_c, 7, 89, 0
9, 29550, Note_on_c, 7, 86, 117
9, 29574, Note_on_c, 7, 86, 0
9, 29580, Note_on_c, 7, 82, 109
9, 29604, Note_on_c, 7, 82, 0
9, 29610, Note_on_c, 7, 89, 116
9, 29634, Note_on_c, 7, 89, 0
9, 29640, Note_on_c, 7, 86, 94
9, 29664, Note_on_c, 7, 86, 0
9, 29670, Note_on_c, 7, 82, 99
9, 29694, Note_on_c, 7, 82, 0
9, 29700, Note_on_c, 7, 91, 114
9, 29724, Note_on_c, 7, 91, 0
9, 29730, Note_on_c, 7, 87, 113
9, 29754, Note_on_c, 7, 87, 0
9, 29760, Note_on_c, 7, 82, 93
9, 29784, Note_on_c, 7, 82, 0
9, 29790, Note_on_c, 7, 91, 127
9, 29814, Note_on_c, 7, 91, 0
9, 29820, Note_on_c, 7, 87, 109
9, 29844, Note_on_c, 7, 87, 0
9, 29850, Note_on_c, 7, 82, 113
9, 29874, Note_on_c, 7, 82, 0
9, 29880, Note_on_c, 7, 89, 116
9, 29880, Control_c, 7, 7, 109
9, 29904, Note_on_c, 7, 89, 0
9, 29910, Note_on_c, 7, 86, 97
9, 29925, Control_c, 7, 7, 110
9, 29934, Note_on_c, 7, 86, 0
9, 29940, Note_on_c, 7, 82, 100
9, 29964, Note_on_c, 7, 82, 0
9, 29965, Control_c, 7, 7, 111
9, 29970, Note_on_c, 7, 91, 112
9, 29994, Note_on_c, 7, 91, 0
9, 30000, Note_on_c, 7, 87, 115
9, 30005, Control_c, 7, 7, 112
9, 30024, Note_on_c, 7, 87, 0
9, 30030, Note_on_c, 7, 82, 91
9, 30045, Control_c, 7, 7, 113
9, 30054, Note_on_c, 7, 82, 0
9, 30060, Note_on_c, 7, 89, 127
9, 30084, Note_on_c, 7, 89, 0
9, 30085, Control_c, 7, 7, 114
9, 30090, Note_on_c, 7, 86, 116
9, 30114, Note_on_c, 7, 86, 0
9, 30120, Note_on_c, 7, 82, 99
9, 30125, Control_c, 7, 7, 115
9, 30144, Note_on_c, 7, 82, 0
9, 30150, Note_on_c, 7, 91, 116
9, 30165, Control_c, 7, 7, 116
9, 30174, Note_on_c, 7, 91, 0
9, 30180, Note_on_c, 7, 87, 107
9, 30204, Note_on_c, 7, 87, 0
9, 30205, Control_c, 7, 7, 117
9, 30210, Note_on_c, 7, 82, 96
9, 30234, Note_on_c, 7, 82, 0
9, 30240, Note_on_c, 7, 89, 127
9, 30245, Control_c, 7, 7, 118
9, 30264, Note_on_c, 7, 89, 0
9, 30270, Note_on_c, 7, 86, 107
9, 30290, Control_c, 7, 7, 119
9, 30294, Note_on_c, 7, 86, 0
9, 30300, Note_on_c, 7, 82, 99
9, 30324, Note_on_c, 7, 82, 0
9, 30330, Note_on_c, 7, 91, 127
9, 30330, Control_c, 7, 7, 120
9, 30354, Note_on_c, 7, 91, 0
9, 30360, Note_on_c, 7, 87, 103
9, 30370, Control_c, 7, 7, 121
9, 30384, Note_on_c, 7, 87, 0
9, 30390, Note_on_c, 7, 82, 91
9, 30410, Control_c, 7, 7, 122
9, 30414, Note_on_c, 7, 82, 0
9, 30420, Note_on_c, 7, 89, 121
9, 30444, Note_on_c, 7, 89, 0
9, 30450, Note_on_c, 7, 86, 110
9, 30450, Control_c, 7, 7, 123
9, 30474, Note_on_c, 7, 86, 0
9, 30480, Note_on_c, 7, 82, 89
9, 30490, Control_c, 7, 7, 124
9, 30504, Note_on_c, 7, 82, 0
9, 30510, Note_on_c, 7, 91, 112
9, 30530, Control_c, 7, 7, 125
9, 30534, Note_on_c, 7, 91, 0
9, 30540, Note_on_c, 7, 87, 101
9, 30564, Note_on_c, 7, 87, 0
9, 30570, Note_on_c, 7, 82, 103
9, 30570, Control_c, 7, 7, 126
9, 30594, Note_on_c, 7, 82, 0
9, 30600, Note_on_c, 7, 80, 101
9, 30610, Control_c, 7, 7, 127
9, 30624, Note_on_c, 7, 80, 0
9, 30630, Note_on_c, 7, 92, 115
9, 30654, Note_on_c, 7, 92, 0
9, 30660, Note_on_c, 7, 77, 109
9, 30684, Note_on_c, 7, 77, 0
9, 30690, Note_on_c, 7, 89, 123
9, 30714, Note_on_c, 7, 89, 0
9, 30720, Note_on_c, 7, 74, 104
9, 30744, Note_on_c, 7, 74, 0
9, 30750, Note_on_c, 7, 86, 125
9, 30774, Note_on_c, 7, 86, 0
9, 30780, Note_on_c, 7, 70, 109
9, 30804, Note_on_c, 7, 70, 0
9, 30810, Note_on_c, 7, 82, 118
9, 30834, Note_on_c, 7, 82, 0
9, 30840, Note_on_c, 7, 68, 105
9, 30864, Note_on_c, 7, 68, 0
9, 30870, Note_on_c, 7, 80, 115
9, 30894, Note_on_c, 7, 80, 0
9, 30900, Note_on_c, 7, 65, 127
9, 30924, Note_on_c, 7, 65, 0
9, 30930, Note_on_c, 7, 77, 120
9, 30954, Note_on_c, 7, 77, 0
9, 30960, Note_on_c, 7, 62, 127
9, 30984, Note_on_c, 7, 62, 0
9, 30990, Note_on_c, 7, 74, 127
9, 31014, Note_on_c, 7, 74, 0
9, 31020, Note_on_c, 7, 58, 118
9, 31044, Note_on_c, 7, 58, 0
9, 31050, Note_on_c, 7, 70, 107
9, 31074, Note_on_c, 7, 70, 0
9, 31080, Note_on_c, 7, 56, 109
9, 31104, Note_on_c, 7, 56, 0
9, 31110, Note_on_c, 7, 68, 118
9, 31134, Note_on_c, 7, 68, 0
9, 31140, Note_on_c, 7, 53, 127
9, 31164, Note_on_c, 7, 53, 0
9, 31170, Note_on_c, 7, 65, 125
9, 31194, Note_on_c, 7, 65, 0
9, 31200, Note_on_c, 7, 50, 127
9, 31224, Note_on_c, 7, 50, 0
9, 31230, Note_on_c, 7, 62, 127
9, 31254, Note_on_c, 7, 62, 0
9, 31260, Note_on_c, 7, 46, 127
9, 31284, Note_on_c, 7, 46, 0
9, 31290, Note_on_c, 7, 58, 118
9, 31314, Note_on_c, 7, 58, 0
9, 31320, Note_on_c, 7, 50, 127
9, 31344, Note_on_c, 7, 50, 0
9, 31350, Note_on_c, 7, 62, 127
9, 31374, Note_on_c, 7, 62, 0
9, 31380, Note_on_c, 7, 53, 127
9, 31404, Note_on_c, 7, 53, 0
9, 31410, Note_on_c, 7, 65, 127
9, 31434, Note_on_c, 7, 65, 0
9, 31440, Note_on_c, 7, 56, 109
9, 31464, Note_on_c, 7, 56, 0
9, 31470, Note_on_c, 7, 68, 95
9, 31494, Note_on_c, 7, 68, 0
9, 31500, Note_on_c, 7, 58, 111
9, 31524, Note_on_c, 7, 58, 0
9, 31530, Note_on_c, 7, 70, 105
9, 31554, Note_on_c, 7, 70, 0
9, 31560, Note_on_c, 7, 62, 113
9, 31584, Note_on_c, 7, 62, 0
9, 31590, Note_on_c, 7, 74, 127
9, 31614, Note_on_c, 7, 74, 0
9, 31620, Note_on_c, 7, 65, 121
9, 31644, Note_on_c, 7, 65, 0
9, 31650, Note_on_c, 7, 77, 108
9, 31674, Note_on_c, 7, 77, 0
9, 31680, Note_on_c, 7, 68, 89
9, 31704, Note_on_c, 7, 68, 0
9, 31710, Note_on_c, 7, 80, 85
9, 31734, Note_on_c, 7, 80, 0
9, 31740, Note_on_c, 7, 70, 84
9, 31764, Note_on_c, 7, 70, 0
9, 31770, Note_on_c, 7, 82, 100
9, 31794, Note_on_c, 7, 82, 0
9, 31800, Note_on_c, 7, 74, 58
9, 31824, Note_on_c, 7, 74, 0
9, 31830, Note_on_c, 7, 86, 100
9, 31854, Note_on_c, 7, 86, 0
9, 31860, Note_on_c, 7, 77, 110
9, 31884, Note_on_c, 7, 77, 0
9, 31890, Note_on_c, 7, 89, 127
9, 31914, Note_on_c, 7, 89, 0
9, 31920, Note_on_c, 7, 80, 121
9, 31944, Note_on_c, 7, 80, 0
9, 31950, Note_on_c, 7, 92, 72
9, 31974, Note_on_c, 7, 92, 0
9, 31980, Note_on_c, 7, 82, 100
9, 32004, Note_on_c, 7, 82, 0
9, 32010, Note_on_c, 7, 94, 111
9, 32034, Note_on_c, 7, 94, 0
9, 32040, Note_on_c, 7, 83, 104
9, 32045, Control_c, 7, 7, 107
9, 32064, Note_on_c, 7, 83, 0
9, 32070, Note_on_c, 7, 95, 101
9, 32094, Note_on_c, 7, 95, 0
9, 32100, Note_on_c, 7, 71, 127
9, 32124, Note_on_c, 7, 71, 0
9, 32130, Note_on_c, 7, 83, 106
9, 32154, Note_on_c, 7, 83, 0
9, 32160, Note_on_c, 7, 70, 96
9, 32184, Note_on_c, 7, 70, 0
9, 32190, Note_on_c, 7, 82, 96
9, 32214, Note_on_c, 7, 82, 0
9, 32220, Note_on_c, 7, 83, 108
9, 32244, Note_on_c, 7, 83, 0
9, 32250, Note_on_c, 7, 95, 108
9, 32274, Note_on_c, 7, 95, 0
9, 32280, Note_on_c, 7, 71, 105
9, 32304, Note_on_c, 7, 71, 0
9, 32310, Note_on_c, 7, 83, 116
9, 32334, Note_on_c, 7, 83, 0
9, 32340, Note_on_c, 7, 70, 88
9, 32364, Note_on_c, 7, 70, 0
9, 32370, Note_on_c, 7, 82, 121
9, 32394, Note_on_c, 7, 82, 0
9, 32400, Note_on_c, 7, 83, 127
9, 32424, Note_on_c, 7, 83, 0
9, 32430, Note_on_c, 7, 95, 111
9, 32454, Note_on_c, 7, 95, 0
9, 32460, Note_on_c, 7, 71, 123
9, 32484, Note_on_c, 7, 71, 0
9, 32490, Note_on_c, 7, 83, 102
9, 32514, Note_on_c, 7, 83, 0
9, 32520, Note_on_c, 7, 70, 97
9, 32544, Note_on_c, 7, 70, 0
9, 32550, Note_on_c, 7, 82, 79
9, 32574, Note_on_c, 7, 82, 0
9, 32580, Note_on_c, 7, 83, 107
9, 32604, Note_on_c, 7, 83, 0
9, 32610, Note_on_c, 7, 95, 102
9, 32634, Note_on_c, 7, 95, 0
9, 32640, Note_on_c, 7, 71, 100
9, 32664, Note_on_c, 7, 71, 0
9, 32670, Note_on_c, 7, 83, 105
9, 32694, Note_on_c, 7, 83, 0
9, 32700, Note_on_c, 7, 70, 101
9, 32724, Note_on_c, 7, 70, 0
9, 32730, Note_on_c, 7, 82, 79
9, 32754, Note_on_c, 7, 82, 0
9, 32760, Note_on_c, 7, 69, 112
9, 32784, Note_on_c, 7, 69, 0
9, 32790, Note_on_c, 7, 81, 127
9, 32814, Note_on_c, 7, 81, 0
9, 32820, Note_on_c, 7, 68, 92
9, 32844, Note_on_c, 7, 68, 0
9, 32850, Note_on_c, 7, 80, 121
9, 32874, Note_on_c, 7, 80, 0
9, 32880, Note_on_c, 7, 67, 100
9, 32904, Note_on_c, 7, 67, 0
9, 32910, Note_on_c, 7, 79, 111
9, 32934, Note_on_c, 7, 79, 0
9, 32940, Note_on_c, 7, 66, 105
9, 32964, Note_on_c, 7, 66, 0
9, 32970, Note_on_c, 7, 78, 123
9, 32994, Note_on_c, 7, 78, 0
9, 33000, Note_on_c, 7, 65, 100
9, 33024, Note_on_c, 7, 65, 0
9, 33030, Note_on_c, 7, 77, 123
9, 33054, Note_on_c, 7, 77, 0
9, 33060, Note_on_c, 7, 64, 104
9, 33084, Note_on_c, 7, 64, 0
9, 33090, Note_on_c, 7, 76, 123
9, 33114, Note_on_c, 7, 76, 0
9, 33120, Note_on_c, 7, 63, 101
9, 33144, Note_on_c, 7, 63, 0
9, 33150, Note_on_c, 7, 75, 115
9, 33174, Note_on_c, 7, 75, 0
9, 33180, Note_on_c, 7, 62, 103
9, 33204, Note_on_c, 7, 62, 0
9, 33210, Note_on_c, 7, 74, 127
9, 33234, Note_on_c, 7, 74, 0
9, 33240, Note_on_c, 7, 61, 97
9, 33264, Note_on_c, 7, 61, 0
9, 33270, Note_on_c, 7, 73, 123
9, 33294, Note_on_c, 7, 73, 0
9, 33300, Note_on_c, 7, 60, 102
9, 33324, Note_on_c, 7, 60, 0
9, 33330, Note_on_c, 7, 72, 116
9, 33354, Note_on_c, 7, 72, 0
9, 33360, Note_on_c, 7, 59, 50
9, 33384, Note_on_c, 7, 59, 0
9, 33390, Note_on_c, 7, 71, 127
9, 33414, Note_on_c, 7, 71, 0
9, 33420, Note_on_c, 7, 58, 91
9, 33444, Note_on_c, 7, 58, 0
9, 33450, Note_on_c, 7, 70, 127
9, 33474, Note_on_c, 7, 70, 0
9, 33480, Note_on_c, 7, 67, 127
9, 33480, Note_on_c, 7, 63, 101
9, 33480, Note_on_c, 7, 70, 113
9, 33528, Note_on_c, 7, 70, 0
9, 33528, Note_on_c, 7, 63, 0
9, 33528, Note_on_c, 7, 67, 0
9, 33540, Note_on_c, 7, 67, 118
9, 33540, Note_on_c, 7, 63, 89
9, 33540, Note_on_c, 7, 75, 127
9, 33588, Note_on_c, 7, 75, 0
9, 33588, Note_on_c, 7, 63, 0
9, 33588, Note_on_c, 7, 67, 0
9, 33600, Note_on_c, 7, 67, 113
9, 33600, Note_on_c, 7, 70, 89
9, 33600, Note_on_c, 7, 75, 127
9, 33648, Note_on_c, 7, 75, 0
9, 33648, Note_on_c, 7, 70, 0
9, 33648, Note_on_c, 7, 67, 0
9, 33660, Note_on_c, 7, 67, 127
9, 33660, Note_on_c, 7, 70, 101
9, 33660, Note_on_c, 7, 79, 127
9, 33708, Note_on_c, 7, 79, 0
9, 33708, Note_on_c, 7, 70, 0
9, 33708, Note_on_c, 7, 67, 0
9, 33780, Note_on_c, 7, 79, 127
9, 33780, Note_on_c, 7, 70, 107
9, 33780, Note_on_c, 7, 75, 123
9, 33804, Note_on_c, 7, 79, 0
9, 33810, Note_on_c, 7, 82, 121
9, 33828, Note_on_c, 7, 75, 0
9, 33828, Note_on_c, 7, 70, 0
9, 33834, Note_on_c, 7, 82, 0
9, 33840, Note_on_c, 7, 82, 101
9, 33840, Note_on_c, 7, 75, 86
9, 33840, Note_on_c, 7, 79, 102
9, 33864, Note_on_c, 7, 82, 0
9, 33870, Note_on_c, 7, 87, 90
9, 33888, Note_on_c, 7, 79, 0
9, 33888, Note_on_c, 7, 75, 0
9, 33894, Note_on_c, 7, 87, 0
9, 33900, Note_on_c, 7, 87, 84
9, 33900, Note_on_c, 7, 75, 86
9, 33900, Note_on_c, 7, 79, 102
9, 33900, Note_on_c, 7, 82, 77
9, 34116, Note_on_c, 7, 82, 0
9, 34116, Note_on_c, 7, 87, 0
9, 34116, Note_on_c, 7, 75, 0
9, 34116, Note_on_c, 7, 79, 0
9, 34140, Note_on_c, 7, 87, 98
9, 34140, Note_on_c, 7, 79, 102
9, 34140, Note_on_c, 7, 82, 84
9, 34164, Note_on_c, 7, 87, 0
9, 34170, Note_on_c, 7, 91, 102
9, 34188, Note_on_c, 7, 82, 0
9, 34188, Note_on_c, 7, 79, 0
9, 34194, Note_on_c, 7, 91, 0
9, 34200, Note_on_c, 7, 89, 77
9, 34200, Note_on_c, 7, 77, 72
9, 34200, Note_on_c, 7, 82, 68
9, 34200, Note_on_c, 7, 80, 67
9, 34248, Note_on_c, 7, 80, 0
9, 34248, Note_on_c, 7, 89, 0
9, 34248, Note_on_c, 7, 77, 0
9, 34248, Note_on_c, 7, 82, 0
9, 34320, Note_on_c, 7, 86, 77
9, 34320, Note_on_c, 7, 77, 77
9, 34320, Note_on_c, 7, 80, 63
9, 34320, Note_on_c, 7, 82, 61
9, 34344, Note_on_c, 7, 86, 0
9, 34350, Note_on_c, 7, 89, 75
9, 34368, Note_on_c, 7, 77, 0
9, 34368, Note_on_c, 7, 82, 0
9, 34368, Note_on_c, 7, 80, 0
9, 34374, Note_on_c, 7, 89, 0
9, 34380, Note_on_c, 7, 87, 72
9, 34380, Note_on_c, 7, 79, 77
9, 34380, Note_on_c, 7, 82, 61
9, 34428, Note_on_c, 7, 82, 0
9, 34428, Note_on_c, 7, 79, 0
9, 34428, Note_on_c, 7, 87, 0
9, 34500, Note_on_c, 7, 79, 77
9, 34500, Note_on_c, 7, 75, 70
9, 34524, Note_on_c, 7, 79, 0
9, 34530, Note_on_c, 7, 82, 76
9, 34548, Note_on_c, 7, 75, 0
9, 34554, Note_on_c, 7, 82, 0
9, 34560, Note_on_c, 7, 82, 75
9, 34560, Note_on_c, 7, 77, 77
9, 34560, Note_on_c, 7, 74, 77
9, 34572, Note_on_c, 7, 82, 0
9, 34575, Note_on_c, 7, 84, 77
9, 34587, Note_on_c, 7, 84, 0
9, 34590, Note_on_c, 7, 82, 72
9, 34602, Note_on_c, 7, 82, 0
9, 34605, Note_on_c, 7, 84, 77
9, 34617, Note_on_c, 7, 84, 0
9, 34620, Note_on_c, 7, 82, 72
9, 34632, Note_on_c, 7, 82, 0
9, 34635, Note_on_c, 7, 84, 77
9, 34647, Note_on_c, 7, 84, 0
9, 34650, Note_on_c, 7, 82, 74
9, 34662, Note_on_c, 7, 82, 0
9, 34665, Note_on_c, 7, 84, 77
9, 34677, Note_on_c, 7, 84, 0
9, 34680, Note_on_c, 7, 82, 70
9, 34704, Note_on_c, 7, 82, 0
9, 34710, Note_on_c, 7, 81, 77
9, 34734, Note_on_c, 7, 81, 0
9, 34740, Note_on_c, 7, 82, 75
9, 34836, Note_on_c, 7, 82, 0
9, 34836, Note_on_c, 7, 74, 0
9, 34836, Note_on_c, 7, 77, 0
9, 34860, Note_on_c, 7, 70, 75
9, 34908, Note_on_c, 7, 70, 0
9, 34920, Note_on_c, 7, 70, 127
9, 34920, Note_on_c, 7, 63, 96
9, 34920, Note_on_c, 7, 67, 121
9, 34968, Note_on_c, 7, 67, 0
9, 34968, Note_on_c, 7, 63, 0
9, 34968, Note_on_c, 7, 70, 0
9, 34980, Note_on_c, 7, 75, 123
9, 34980, Note_on_c, 7, 63, 99
9, 34980, Note_on_c, 7, 67, 120
9, 35028, Note_on_c, 7, 67, 0
9, 35028, Note_on_c, 7, 63, 0
9, 35028, Note_on_c, 7, 75, 0
9, 35040, Note_on_c, 7, 75, 126
9, 35040, Note_on_c, 7, 67, 112
9, 35040, Note_on_c, 7, 70, 97
9, 35088, Note_on_c, 7, 70, 0
9, 35088, Note_on_c, 7, 67, 0
9, 35088, Note_on_c, 7, 75, 0
9, 35100, Note_on_c, 7, 79, 127
9, 35100, Note_on_c, 7, 67, 116
9, 35100, Note_on_c, 7, 70, 94
9, 35148, Note_on_c, 7, 70, 0
9, 35148, Note_on_c, 7, 67, 0
9, 35148, Note_on_c, 7, 79, 0
9, 35220, Note_on_c, 7, 79, 127
9, 35220, Note_on_c, 7, 70, 92
9, 35220, Note_on_c, 7, 75, 97
9, 35244, Note_on_c, 7, 79, 0
9, 35250, Note_on_c, 7, 82, 115
9, 35268, Note_on_c, 7, 75, 0
9, 35268, Note_on_c, 7, 70, 0
9, 35274, Note_on_c, 7, 82, 0
9, 35280, Note_on_c, 7, 82, 89
9, 35280, Note_on_c, 7, 75, 82
9, 35280, Note_on_c, 7, 79, 102
9, 35304, Note_on_c, 7, 82, 0
9, 35310, Note_on_c, 7, 87, 94
9, 35328, Note_on_c, 7, 79, 0
9, 35328, Note_on_c, 7, 75, 0
9, 35334, Note_on_c, 7, 87, 0
9, 35340, Note_on_c, 7, 87, 94
9, 35340, Note_on_c, 7, 75, 78
9, 35340, Note_on_c, 7, 79, 102
9, 35340, Note_on_c, 7, 82, 62
9, 35556, Note_on_c, 7, 82, 0
9, 35556, Note_on_c, 7, 87, 0
9, 35556, Note_on_c, 7, 75, 0
9, 35556, Note_on_c, 7, 79, 0
9, 35580, Note_on_c, 7, 87, 101
9, 35580, Note_on_c, 7, 79, 102
9, 35580, Note_on_c, 7, 82, 87
9, 35604, Note_on_c, 7, 87, 0
9, 35610, Note_on_c, 7, 91, 102
9, 35628, Note_on_c, 7, 82, 0
9, 35628, Note_on_c, 7, 79, 0
9, 35634, Note_on_c, 7, 91, 0
9, 35640, Note_on_c, 7, 89, 92
9, 35640, Note_on_c, 7, 82, 74
9, 35640, Note_on_c, 7, 77, 85
9, 35640, Note_on_c, 7, 80, 72
9, 35688, Note_on_c, 7, 80, 0
9, 35688, Note_on_c, 7, 89, 0
9, 35688, Note_on_c, 7, 82, 0
9, 35688, Note_on_c, 7, 77, 0
9, 35760, Note_on_c, 7, 86, 92
9, 35760, Note_on_c, 7, 82, 76
9, 35760, Note_on_c, 7, 80, 85
9, 35760, Note_on_c, 7, 77, 85
9, 35784, Note_on_c, 7, 86, 0
9, 35790, Note_on_c, 7, 89, 92
9, 35808, Note_on_c, 7, 82, 0
9, 35808, Note_on_c, 7, 77, 0
9, 35808, Note_on_c, 7, 80, 0
9, 35814, Note_on_c, 7, 89, 0
9, 35820, Note_on_c, 7, 87, 87
9, 35820, Note_on_c, 7, 79, 92
9, 35820, Note_on_c, 7, 82, 78
9, 35868, Note_on_c, 7, 82, 0
9, 35868, Note_on_c, 7, 79, 0
9, 35868, Note_on_c, 7, 87, 0
9, 35940, Note_on_c, 7, 79, 92
9, 35940, Note_on_c, 7, 75, 76
9, 35964, Note_on_c, 7, 79, 0
9, 35970, Note_on_c, 7, 82, 87
9, 35988, Note_on_c, 7, 75, 0
9, 35994, Note_on_c, 7, 82, 0
9, 36000, Note_on_c, 7, 82, 91
9, 36000, Note_on_c, 7, 74, 88
9, 36000, Note_on_c, 7, 77, 92
9, 36012, Note_on_c, 7, 82, 0
9, 36015, Note_on_c, 7, 84, 92
9, 36027, Note_on_c, 7, 84, 0
9, 36030, Note_on_c, 7, 82, 80
9, 36042, Note_on_c, 7, 82, 0
9, 36045, Note_on_c, 7, 84, 92
9, 36057, Note_on_c, 7, 84, 0
9, 36060, Note_on_c, 7, 82, 83
9, 36072, Note_on_c, 7, 82, 0
9, 36075, Note_on_c, 7, 84, 90
9, 36087, Note_on_c, 7, 84, 0
9, 36090, Note_on_c, 7, 82, 81
9, 36102, Note_on_c, 7, 82, 0
9, 36105, Note_on_c, 7, 84, 92
9, 36117, Note_on_c, 7, 84, 0
9, 36120, Note_on_c, 7, 82, 87
9, 36144, Note_on_c, 7, 82, 0
9, 36150, Note_on_c, 7, 81, 92
9, 36174, Note_on_c, 7, 81, 0
9, 36180, Note_on_c, 7, 82, 91
9, 36276, Note_on_c, 7, 82, 0
9, 36276, Note_on_c, 7, 77, 0
9, 36276, Note_on_c, 7, 74, 0
9, 36300, Note_on_c, 7, 70, 76
9, 36300, Note_on_c, 7, 82, 77
9, 36324, Note_on_c, 7, 82, 0
9, 36324, Note_on_c, 7, 70, 0
9, 36330, Note_on_c, 7, 81, 81
9, 36330, Note_on_c, 7, 69, 77
9, 36354, Note_on_c, 7, 69, 0
9, 36354, Note_on_c, 7, 81, 0
9, 36360, Note_on_c, 7, 69, 118
9, 36360, Note_on_c, 7, 81, 120
9, 36408, Note_on_c, 7, 81, 0
9, 36408, Note_on_c, 7, 69, 0
9, 36480, Note_on_c, 7, 68, 109
9, 36480, Note_on_c, 7, 80, 126
9, 36504, Note_on_c, 7, 80, 0
9, 36504, Note_on_c, 7, 68, 0
9, 36510, Note_on_c, 7, 67, 107
9, 36510, Note_on_c, 7, 79, 106
9, 36534, Note_on_c, 7, 79, 0
9, 36534, Note_on_c, 7, 67, 0
9, 36540, Note_on_c, 7, 67, 118
9, 36540, Note_on_c, 7, 79, 123
9, 36588, Note_on_c, 7, 79, 0
9, 36588, Note_on_c, 7, 67, 0
9, 36660, Note_on_c, 7, 66, 109
9, 36660, Note_on_c, 7, 78, 118
9, 36684, Note_on_c, 7, 78, 0
9, 36684, Note_on_c, 7, 66, 0
9, 36690, Note_on_c, 7, 65, 105
9, 36690, Note_on_c, 7, 77, 102
9, 36714, Note_on_c, 7, 77, 0
9, 36714, Note_on_c, 7, 65, 0
9, 36720, Note_on_c, 7, 65, 110
9, 36720, Note_on_c, 7, 77, 117
9, 36768, Note_on_c, 7, 77, 0
9, 36768, Note_on_c, 7, 65, 0
9, 36840, Note_on_c, 7, 64, 113
9, 36840, Note_on_c, 7, 76, 127
9, 36864, Note_on_c, 7, 76, 0
9, 36864, Note_on_c, 7, 64, 0
9, 36870, Note_on_c, 7, 63, 113
9, 36870, Note_on_c, 7, 75, 123
9, 36894, Note_on_c, 7, 75, 0
9, 36894, Note_on_c, 7, 63, 0
9, 36900, Note_on_c, 7, 63, 118
9, 36900, Note_on_c, 7, 75, 127
9, 36948, Note_on_c, 7, 75, 0
9, 36948, Note_on_c, 7, 63, 0
9, 37020, Note_on_c, 7, 63, 107
9, 37020, Note_on_c, 7, 75, 127
9, 37020, Note_on_c, 7, 68, 123
9, 37020, Note_on_c, 7, 70, 121
9, 37044, Note_on_c, 7, 75, 0
9, 37044, Note_on_c, 7, 63, 0
9, 37050, Note_on_c, 7, 62, 98
9, 37050, Note_on_c, 7, 74, 106
9, 37068, Note_on_c, 7, 68, 0
9, 37068, Note_on_c, 7, 70, 0
9, 37074, Note_on_c, 7, 62, 0
9, 37074, Note_on_c, 7, 74, 0
9, 37080, Note_on_c, 7, 62, 118
9, 37080, Note_on_c, 7, 70, 109
9, 37080, Note_on_c, 7, 74, 114
9, 37080, Note_on_c, 7, 68, 111
9, 37176, Note_on_c, 7, 68, 0
9, 37176, Note_on_c, 7, 62, 0
9, 37176, Note_on_c, 7, 70, 0
9, 37176, Note_on_c, 7, 74, 0
9, 37200, Note_on_c, 7, 62, 110
9, 37200, Note_on_c, 7, 70, 118
9, 37200, Note_on_c, 7, 74, 107
9, 37200, Note_on_c, 7, 68, 109
9, 37248, Note_on_c, 7, 68, 0
9, 37248, Note_on_c, 7, 62, 0
9, 37248, Note_on_c, 7, 70, 0
9, 37248, Note_on_c, 7, 74, 0
9, 37260, Note_on_c, 7, 62, 120
9, 37260, Note_on_c, 7, 70, 107
9, 37260, Note_on_c, 7, 68, 113
9, 37260, Note_on_c, 7, 74, 111
9, 37332, Note_on_c, 7, 74, 0
9, 37332, Note_on_c, 7, 62, 0
9, 37332, Note_on_c, 7, 70, 0
9, 37332, Note_on_c, 7, 68, 0
9, 37350, Note_on_c, 7, 63, 123
9, 37350, Note_on_c, 7, 68, 127
9, 37350, Note_on_c, 7, 70, 126
9, 37350, Note_on_c, 7, 75, 118
9, 37374, Note_on_c, 7, 75, 0
9, 37374, Note_on_c, 7, 63, 0
9, 37374, Note_on_c, 7, 68, 0
9, 37374, Note_on_c, 7, 70, 0
9, 37380, Note_on_c, 7, 65, 107
9, 37380, Note_on_c, 7, 77, 117
9, 37380, Note_on_c, 7, 70, 94
9, 37380, Note_on_c, 7, 68, 85
9, 37428, Note_on_c, 7, 68, 0
9, 37428, Note_on_c, 7, 65, 0
9, 37428, Note_on_c, 7, 77, 0
9, 37428, Note_on_c, 7, 70, 0
9, 37440, Note_on_c, 7, 77, 102
9, 37440, Note_on_c, 7, 70, 102
9, 37440, Note_on_c, 7, 68, 102
9, 37440, Note_on_c, 7, 65, 102
9, 37488, Note_on_c, 7, 65, 0
9, 37488, Note_on_c, 7, 77, 0
9, 37488, Note_on_c, 7, 70, 0
9, 37488, Note_on_c, 7, 68, 0
9, 37500, Note_on_c, 7, 70, 99
9, 37500, Note_on_c, 7, 67, 113
9, 37500, Note_on_c, 7, 79, 127
9, 37548, Note_on_c, 7, 79, 0
9, 37548, Note_on_c, 7, 67, 0
9, 37548, Note_on_c, 7, 70, 0
9, 37560, Note_on_c, 7, 70, 85
9, 37560, Note_on_c, 7, 75, 127
9, 37560, Note_on_c, 7, 67, 106
9, 37560, Note_on_c, 7, 63, 106
9, 37608, Note_on_c, 7, 63, 0
9, 37608, Note_on_c, 7, 70, 0
9, 37608, Note_on_c, 7, 75, 0
9, 37608, Note_on_c, 7, 67, 0
9, 37620, Note_on_c, 7, 70, 113
9, 37620, Note_on_c, 7, 67, 127
9, 37620, Note_on_c, 7, 63, 118
9, 37620, Note_on_c, 7, 75, 123
9, 37716, Note_on_c, 7, 75, 0
9, 37716, Note_on_c, 7, 70, 0
9, 37716, Note_on_c, 7, 67, 0
9, 37716, Note_on_c, 7, 63, 0
9, 37740, Note_on_c, 7, 70, 111
9, 37740, Note_on_c, 7, 82, 123
9, 37764, Note_on_c, 7, 82, 0
9, 37764, Note_on_c, 7, 70, 0
9, 37770, Note_on_c, 7, 69, 112
9, 37770, Note_on_c, 7, 81, 114
9, 37794, Note_on_c, 7, 81, 0
9, 37794, Note_on_c, 7, 69, 0
9, 37800, Note_on_c, 7, 69, 113
9, 37800, Note_on_c, 7, 81, 116
9, 37848, Note_on_c, 7, 81, 0
9, 37848, Note_on_c, 7, 69, 0
9, 37920, Note_on_c, 7, 68, 115
9, 37920, Note_on_c, 7, 80, 127
9, 37944, Note_on_c, 7, 80, 0
9, 37944, Note_on_c, 7, 68, 0
9, 37950, Note_on_c, 7, 67, 111
9, 37950, Note_on_c, 7, 79, 105
9, 37974, Note_on_c, 7, 79, 0
9, 37974, Note_on_c, 7, 67, 0
9, 37980, Note_on_c, 7, 79, 105
9, 37980, Note_on_c, 7, 67, 116
9, 38028, Note_on_c, 7, 67, 0
9, 38028, Note_on_c, 7, 79, 0
9, 38100, Note_on_c, 7, 78, 127
9, 38100, Note_on_c, 7, 66, 115
9, 38124, Note_on_c, 7, 66, 0
9, 38124, Note_on_c, 7, 78, 0
9, 38130, Note_on_c, 7, 65, 108
9, 38130, Note_on_c, 7, 77, 113
9, 38154, Note_on_c, 7, 77, 0
9, 38154, Note_on_c, 7, 65, 0
9, 38160, Note_on_c, 7, 65, 114
9, 38160, Note_on_c, 7, 77, 127
9, 38208, Note_on_c, 7, 77, 0
9, 38208, Note_on_c, 7, 65, 0
9, 38280, Note_on_c, 7, 64, 113
9, 38280, Note_on_c, 7, 76, 127
9, 38304, Note_on_c, 7, 76, 0
9, 38304, Note_on_c, 7, 64, 0
9, 38310, Note_on_c, 7, 75, 107
9, 38310, Note_on_c, 7, 63, 107
9, 38334, Note_on_c, 7, 63, 0
9, 38334, Note_on_c, 7, 75, 0
9, 38340, Note_on_c, 7, 63, 114
9, 38340, Note_on_c, 7, 67, 114
9, 38340, Note_on_c, 7, 70, 114
9, 38340, Note_on_c, 7, 75, 127
9, 38396, Note_on_c, 7, 75, 0
9, 38396, Note_on_c, 7, 63, 0
9, 38396, Note_on_c, 7, 67, 0
9, 38396, Note_on_c, 7, 70, 0
9, 39180, Note_on_c, 7, 87, 115
9, 39204, Note_on_c, 7, 87, 0
9, 39210, Note_on_c, 7, 82, 118
9, 39234, Note_on_c, 7, 82, 0
9, 39240, Note_on_c, 7, 86, 127
9, 39264, Note_on_c, 7, 86, 0
9, 39270, Note_on_c, 7, 82, 99
9, 39294, Note_on_c, 7, 82, 0
9, 39300, Note_on_c, 7, 86, 127
9, 39324, Note_on_c, 7, 86, 0
9, 39330, Note_on_c, 7, 82, 94
9, 39354, Note_on_c, 7, 82, 0
9, 39360, Note_on_c, 7, 86, 116
9, 39384, Note_on_c, 7, 86, 0
9, 39390, Note_on_c, 7, 82, 99
9, 39414, Note_on_c, 7, 82, 0
9, 39420, Note_on_c, 7, 86, 127
9, 39444, Note_on_c, 7, 86, 0
9, 39450, Note_on_c, 7, 82, 107
9, 39474, Note_on_c, 7, 82, 0
9, 39480, Note_on_c, 7, 87, 107
9, 39504, Note_on_c, 7, 87, 0
9, 39510, Note_on_c, 7, 82, 100
9, 39534, Note_on_c, 7, 82, 0
9, 39540, Note_on_c, 7, 89, 127
9, 39564, Note_on_c, 7, 89, 0
9, 39570, Note_on_c, 7, 82, 118
9, 39594, Note_on_c, 7, 82, 0
9, 39600, Note_on_c, 7, 89, 123
9, 39624, Note_on_c, 7, 89, 0
9, 39630, Note_on_c, 7, 82, 105
9, 39654, Note_on_c, 7, 82, 0
9, 39660, Note_on_c, 7, 91, 121
9, 39684, Note_on_c, 7, 91, 0
9, 39690, Note_on_c, 7, 82, 107
9, 39714, Note_on_c, 7, 82, 0
9, 39720, Note_on_c, 7, 87, 100
9, 39744, Note_on_c, 7, 87, 0
9, 39750, Note_on_c, 7, 82, 97
9, 39774, Note_on_c, 7, 82, 0
9, 39780, Note_on_c, 7, 87, 101
9, 39804, Note_on_c, 7, 87, 0
9, 39810, Note_on_c, 7, 82, 84
9, 39834, Note_on_c, 7, 82, 0
9, 39840, Note_on_c, 7, 87, 118
9, 39864, Note_on_c, 7, 87, 0
9, 39870, Note_on_c, 7, 82, 111
9, 39894, Note_on_c, 7, 82, 0
9, 39900, Note_on_c, 7, 79, 106
9, 39924, Note_on_c, 7, 79, 0
9, 39930, Note_on_c, 7, 75, 107
9, 39954, Note_on_c, 7, 75, 0
9, 39960, Note_on_c, 7, 80, 118
9, 39984, Note_on_c, 7, 80, 0
9, 39990, Note_on_c, 7, 77, 118
9, 40014, Note_on_c, 7, 77, 0
9, 40020, Note_on_c, 7, 80, 109
9, 40044, Note_on_c, 7, 80, 0
9, 40050, Note_on_c, 7, 79, 113
9, 40074, Note_on_c, 7, 79, 0
9, 40080, Note_on_c, 7, 77, 121
9, 40104, Note_on_c, 7, 77, 0
9, 40110, Note_on_c, 7, 75, 88
9, 40134, Note_on_c, 7, 75, 0
9, 40140, Note_on_c, 7, 74, 125
9, 40164, Note_on_c, 7, 74, 0
9, 40170, Note_on_c, 7, 72, 110
9, 40194, Note_on_c, 7, 72, 0
9, 40200, Note_on_c, 7, 70, 97
9, 40224, Note_on_c, 7, 70, 0
9, 40230, Note_on_c, 7, 68, 100
9, 40254, Note_on_c, 7, 68, 0
9, 40260, Note_on_c, 7, 67, 103
9, 40284, Note_on_c, 7, 67, 0
9, 40290, Note_on_c, 7, 65, 127
9, 40314, Note_on_c, 7, 65, 0
9, 40320, Note_on_c, 7, 70, 111
9, 40344, Note_on_c, 7, 70, 0
9, 40350, Note_on_c, 7, 67, 123
9, 40374, Note_on_c, 7, 67, 0
9, 40380, Note_on_c, 7, 70, 113
9, 40404, Note_on_c, 7, 70, 0
9, 40410, Note_on_c, 7, 68, 95
9, 40434, Note_on_c, 7, 68, 0
9, 40440, Note_on_c, 7, 67, 127
9, 40464, Note_on_c, 7, 67, 0
9, 40470, Note_on_c, 7, 65, 102
9, 40494, Note_on_c, 7, 65, 0
9, 40500, Note_on_c, 7, 63, 83
9, 40524, Note_on_c, 7, 63, 0
9, 40530, Note_on_c, 7, 62, 101
9, 40554, Note_on_c, 7, 62, 0
9, 40560, Note_on_c, 7, 60, 105
9, 40584, Note_on_c, 7, 60, 0
9, 40590, Note_on_c, 7, 58, 105
9, 40614, Note_on_c, 7, 58, 0
9, 40620, Note_on_c, 7, 56, 107
9, 40644, Note_on_c, 7, 56, 0
9, 40650, Note_on_c, 7, 55, 111
9, 40674, Note_on_c, 7, 55, 0
9, 40680, Note_on_c, 7, 60, 127
9, 40704, Note_on_c, 7, 60, 0
9, 40710, Note_on_c, 7, 57, 127
9, 40734, Note_on_c, 7, 57, 0
9, 40740, Note_on_c, 7, 60, 127
9, 40764, Note_on_c, 7, 60, 0
9, 40770, Note_on_c, 7, 58, 115
9, 40794, Note_on_c, 7, 58, 0
9, 40800, Note_on_c, 7, 57, 127
9, 40824, Note_on_c, 7, 57, 0
9, 40830, Note_on_c, 7, 54, 113
9, 40854, Note_on_c, 7, 54, 0
9, 40860, Note_on_c, 7, 53, 127
9, 40884, Note_on_c, 7, 53, 0
9, 40890, Note_on_c, 7, 51, 80
9, 40914, Note_on_c, 7, 51, 0
9, 40920, Note_on_c, 7, 49, 111
9, 40944, Note_on_c, 7, 49, 0
9, 40950, Note_on_c, 7, 48, 127
9, 40974, Note_on_c, 7, 48, 0
9, 40980, Note_on_c, 7, 46, 95
9, 41004, Note_on_c, 7, 46, 0
9, 41010, Note_on_c, 7, 45, 107
9, 41034, Note_on_c, 7, 45, 0
9, 41250, Note_on_c, 7, 70, 111
9, 41274, Note_on_c, 7, 70, 0
9, 41280, Note_on_c, 7, 73, 127
9, 41304, Note_on_c, 7, 73, 0
9, 41310, Note_on_c, 7, 77, 127
9, 41334, Note_on_c, 7, 77, 0
9, 41340, Note_on_c, 7, 82, 103
9, 41364, Note_on_c, 7, 82, 0
9, 41370, Note_on_c, 7, 82, 103
9, 41394, Note_on_c, 7, 82, 0
9, 41400, Note_on_c, 7, 82, 113
9, 41424, Note_on_c, 7, 82, 0
9, 41430, Note_on_c, 7, 79, 127
9, 41454, Note_on_c, 7, 79, 0
9, 41460, Note_on_c, 7, 82, 111
9, 41484, Note_on_c, 7, 82, 0
9, 41490, Note_on_c, 7, 80, 115
9, 41514, Note_on_c, 7, 80, 0
9, 41520, Note_on_c, 7, 79, 108
9, 41544, Note_on_c, 7, 79, 0
9, 41550, Note_on_c, 7, 77, 127
9, 41574, Note_on_c, 7, 77, 0
9, 41580, Note_on_c, 7, 76, 121
9, 41604, Note_on_c, 7, 76, 0
9, 41610, Note_on_c, 7, 73, 85
9, 41634, Note_on_c, 7, 73, 0
9, 41640, Note_on_c, 7, 72, 117
9, 41664, Note_on_c, 7, 72, 0
9, 41670, Note_on_c, 7, 70, 121
9, 41694, Note_on_c, 7, 70, 0
9, 41700, Note_on_c, 7, 68, 115
9, 41724, Note_on_c, 7, 68, 0
9, 41730, Note_on_c, 7, 67, 127
9, 41754, Note_on_c, 7, 67, 0
9, 41760, Note_on_c, 7, 65, 109
9, 41856, Note_on_c, 7, 65, 0
9, 41970, Note_on_c, 7, 77, 118
9, 41994, Note_on_c, 7, 77, 0
9, 42000, Note_on_c, 7, 80, 118
9, 42024, Note_on_c, 7, 80, 0
9, 42030, Note_on_c, 7, 84, 125
9, 42054, Note_on_c, 7, 84, 0
9, 42060, Note_on_c, 7, 89, 113
9, 42084, Note_on_c, 7, 89, 0
9, 42090, Note_on_c, 7, 89, 127
9, 42114, Note_on_c, 7, 89, 0
9, 42120, Note_on_c, 7, 89, 127
9, 42144, Note_on_c, 7, 89, 0
9, 42150, Note_on_c, 7, 86, 127
9, 42174, Note_on_c, 7, 86, 0
9, 42180, Note_on_c, 7, 92, 101
9, 42204, Note_on_c, 7, 92, 0
9, 42210, Note_on_c, 7, 91, 117
9, 42234, Note_on_c, 7, 91, 0
9, 42240, Note_on_c, 7, 89, 127
9, 42264, Note_on_c, 7, 89, 0
9, 42270, Note_on_c, 7, 87, 95
9, 42294, Note_on_c, 7, 87, 0
9, 42300, Note_on_c, 7, 86, 109
9, 42324, Note_on_c, 7, 86, 0
9, 42330, Note_on_c, 7, 84, 105
9, 42354, Note_on_c, 7, 84, 0
9, 42360, Note_on_c, 7, 83, 121
9, 42384, Note_on_c, 7, 83, 0
9, 42390, Note_on_c, 7, 80, 109
9, 42414, Note_on_c, 7, 80, 0
9, 42420, Note_on_c, 7, 79, 120
9, 42444, Note_on_c, 7, 79, 0
9, 42450, Note_on_c, 7, 77, 117
9, 42474, Note_on_c, 7, 77, 0
9, 42480, Note_on_c, 7, 75, 105
9, 42496, Note_on_c, 7, 75, 0
9, 42500, Note_on_c, 7, 74, 113
9, 42516, Note_on_c, 7, 74, 0
9, 42520, Note_on_c, 7, 72, 114
9, 42536, Note_on_c, 7, 72, 0
9, 42540, Note_on_c, 7, 70, 109
9, 42556, Note_on_c, 7, 70, 0
9, 42560, Note_on_c, 7, 68, 115
9, 42576, Note_on_c, 7, 68, 0
9, 42580, Note_on_c, 7, 67, 112
9, 42596, Note_on_c, 7, 67, 0
9, 42600, Note_on_c, 7, 65, 127
9, 42616, Note_on_c, 7, 65, 0
9, 42620, Note_on_c, 7, 63, 113
9, 42636, Note_on_c, 7, 63, 0
9, 42640, Note_on_c, 7, 62, 127
9, 42656, Note_on_c, 7, 62, 0
9, 42660, Note_on_c, 7, 60, 127
9, 42676, Note_on_c, 7, 60, 0
9, 42680, Note_on_c, 7, 58, 103
9, 42696, Note_on_c, 7, 58, 0
9, 42700, Note_on_c, 7, 56, 121
9, 42716, Note_on_c, 7, 56, 0
9, 42720, Note_on_c, 7, 55, 127
9, 42736, Note_on_c, 7, 55, 0
9, 42740, Note_on_c, 7, 53, 116
9, 42756, Note_on_c, 7, 53, 0
9, 42760, Note_on_c, 7, 51, 118
9, 42776, Note_on_c, 7, 51, 0
9, 42780, Note_on_c, 7, 50, 127
9, 42804, Note_on_c, 7, 50, 0
9, 42810, Note_on_c, 7, 48, 127
9, 42834, Note_on_c, 7, 48, 0
9, 44760, Note_on_c, 7, 84, 103
9, 44760, Note_on_c, 7, 72, 107
9, 44808, Note_on_c, 7, 72, 0
9, 44808, Note_on_c, 7, 84, 0
9, 44820, Note_on_c, 7, 84, 109
9, 44820, Note_on_c, 7, 72, 117
9, 44892, Note_on_c, 7, 72, 0
9, 44892, Note_on_c, 7, 84, 0
9, 44910, Note_on_c, 7, 74, 112
9, 44910, Note_on_c, 7, 86, 108
9, 44934, Note_on_c, 7, 86, 0
9, 44934, Note_on_c, 7, 74, 0
9, 44940, Note_on_c, 7, 88, 108
9, 44940, Note_on_c, 7, 76, 109
9, 44988, Note_on_c, 7, 76, 0
9, 44988, Note_on_c, 7, 88, 0
9, 45000, Note_on_c, 7, 83, 121
9, 45000, Note_on_c, 7, 86, 125
9, 45024, Note_on_c, 7, 86, 0
9, 45024, Note_on_c, 7, 83, 0
9, 45030, Note_on_c, 7, 88, 111
9, 45054, Note_on_c, 7, 88, 0
9, 45060, Note_on_c, 7, 89, 125
9, 45060, Note_on_c, 7, 83, 105
9, 45084, Note_on_c, 7, 83, 0
9, 45084, Note_on_c, 7, 89, 0
9, 45090, Note_on_c, 7, 86, 127
9, 45114, Note_on_c, 7, 86, 0
9, 45120, Note_on_c, 7, 88, 127
9, 45120, Note_on_c, 7, 83, 113
9, 45144, Note_on_c, 7, 83, 0
9, 45144, Note_on_c, 7, 88, 0
9, 45150, Note_on_c, 7, 89, 127
9, 45174, Note_on_c, 7, 89, 0
9, 45180, Note_on_c, 7, 86, 125
9, 45180, Note_on_c, 7, 83, 111
9, 45204, Note_on_c, 7, 83, 0
9, 45204, Note_on_c, 7, 86, 0
9, 45210, Note_on_c, 7, 88, 127
9, 45234, Note_on_c, 7, 88, 0
9, 45240, Note_on_c, 7, 89, 127
9, 45240, Note_on_c, 7, 83, 117
9, 45264, Note_on_c, 7, 83, 0
9, 45264, Note_on_c, 7, 89, 0
9, 45270, Note_on_c, 7, 86, 121
9, 45294, Note_on_c, 7, 86, 0
9, 45300, Note_on_c, 7, 88, 127
9, 45300, Note_on_c, 7, 83, 105
9, 45324, Note_on_c, 7, 83, 0
9, 45324, Note_on_c, 7, 88, 0
9, 45330, Note_on_c, 7, 89, 127
9, 45354, Note_on_c, 7, 89, 0
9, 45360, Note_on_c, 7, 83, 123
9, 45360, Note_on_c, 7, 86, 127
9, 45384, Note_on_c, 7, 86, 0
9, 45384, Note_on_c, 7, 83, 0
9, 45390, Note_on_c, 7, 88, 123
9, 45414, Note_on_c, 7, 88, 0
9, 45420, Note_on_c, 7, 89, 127
9, 45420, Note_on_c, 7, 83, 110
9, 45444, Note_on_c, 7, 83, 0
9, 45444, Note_on_c, 7, 89, 0
9, 45450, Note_on_c, 7, 86, 121
9, 45474, Note_on_c, 7, 86, 0
9, 45480, Note_on_c, 7, 88, 123
9, 45480, Note_on_c, 7, 83, 112
9, 45504, Note_on_c, 7, 83, 0
9, 45504, Note_on_c, 7, 88, 0
9, 45510, Note_on_c, 7, 89, 127
9, 45534, Note_on_c, 7, 89, 0
9, 45540, Note_on_c, 7, 86, 127
9, 45540, Note_on_c, 7, 83, 120
9, 45564, Note_on_c, 7, 83, 0
9, 45564, Note_on_c, 7, 86, 0
9, 45570, Note_on_c, 7, 88, 127
9, 45594, Note_on_c, 7, 88, 0
9, 45600, Note_on_c, 7, 89, 127
9, 45600, Note_on_c, 7, 83, 114
9, 45624, Note_on_c, 7, 83, 0
9, 45624, Note_on_c, 7, 89, 0
9, 45630, Note_on_c, 7, 86, 127
9, 45654, Note_on_c, 7, 86, 0
9, 45660, Note_on_c, 7, 88, 123
9, 45660, Note_on_c, 7, 83, 109
9, 45684, Note_on_c, 7, 83, 0
9, 45684, Note_on_c, 7, 88, 0
9, 45690, Note_on_c, 7, 89, 127
9, 45714, Note_on_c, 7, 89, 0
9, 45720, Note_on_c, 7, 83, 117
9, 45744, Note_on_c, 7, 83, 0
9, 45750, Note_on_c, 7, 86, 127
9, 45774, Note_on_c, 7, 86, 0
9, 45780, Note_on_c, 7, 89, 127
9, 45804, Note_on_c, 7, 89, 0
9, 45810, Note_on_c, 7, 77, 112
9, 45834, Note_on_c, 7, 77, 0
9, 45840, Note_on_c, 7, 83, 127
9, 45864, Note_on_c, 7, 83, 0
9, 45870, Note_on_c, 7, 86, 120
9, 45894, Note_on_c, 7, 86, 0
9, 45900, Note_on_c, 7, 74, 109
9, 45924, Note_on_c, 7, 74, 0
9, 45930, Note_on_c, 7, 77, 127
9, 45954, Note_on_c, 7, 77, 0
9, 45960, Note_on_c, 7, 83, 120
9, 45984, Note_on_c, 7, 83, 0
9, 45990, Note_on_c, 7, 71, 127
9, 46014, Note_on_c, 7, 71, 0
9, 46020, Note_on_c, 7, 74, 127
9, 46044, Note_on_c, 7, 74, 0
9, 46050, Note_on_c, 7, 77, 127
9, 46074, Note_on_c, 7, 77, 0
9, 46080, Note_on_c, 7, 65, 120
9, 46104, Note_on_c, 7, 65, 0
9, 46110, Note_on_c, 7, 71, 123
9, 46134, Note_on_c, 7, 71, 0
9, 46140, Note_on_c, 7, 74, 123
9, 46164, Note_on_c, 7, 74, 0
9, 46170, Note_on_c, 7, 62, 125
9, 46194, Note_on_c, 7, 62, 0
9, 46200, Note_on_c, 7, 65, 127
9, 46224, Note_on_c, 7, 65, 0
9, 46230, Note_on_c, 7, 71, 125
9, 46254, Note_on_c, 7, 71, 0
9, 46260, Note_on_c, 7, 59, 102
9, 46284, Note_on_c, 7, 59, 0
9, 46290, Note_on_c, 7, 62, 127
9, 46314, Note_on_c, 7, 62, 0
9, 46320, Note_on_c, 7, 65, 127
9, 46344, Note_on_c, 7, 65, 0
9, 46350, Note_on_c, 7, 53, 117
9, 46374, Note_on_c, 7, 53, 0
9, 46380, Note_on_c, 7, 59, 127
9, 46404, Note_on_c, 7, 59, 0
9, 46410, Note_on_c, 7, 62, 127
9, 46434, Note_on_c, 7, 62, 0
9, 46440, Note_on_c, 7, 53, 111
9, 46464, Note_on_c, 7, 53, 0
9, 46470, Note_on_c, 7, 59, 121
9, 46494, Note_on_c, 7, 59, 0
9, 46500, Note_on_c, 7, 62, 127
9, 46524, Note_on_c, 7, 62, 0
9, 46530, Note_on_c, 7, 59, 116
9, 46554, Note_on_c, 7, 59, 0
9, 46560, Note_on_c, 7, 62, 127
9, 46584, Note_on_c, 7, 62, 0
9, 46590, Note_on_c, 7, 65, 127
9, 46614, Note_on_c, 7, 65, 0
9, 46620, Note_on_c, 7, 59, 127
9, 46644, Note_on_c, 7, 59, 0
9, 46650, Note_on_c, 7, 62, 127
9, 46674, Note_on_c, 7, 62, 0
9, 46680, Note_on_c, 7, 65, 125
9, 46704, Note_on_c, 7, 65, 0
9, 46710, Note_on_c, 7, 62, 117
9, 46734, Note_on_c, 7, 62, 0
9, 46740, Note_on_c, 7, 65, 102
9, 46764, Note_on_c, 7, 65, 0
9, 46770, Note_on_c, 7, 71, 103
9, 46794, Note_on_c, 7, 71, 0
9, 46800, Note_on_c, 7, 62, 112
9, 46824, Note_on_c, 7, 62, 0
9, 46830, Note_on_c, 7, 65, 127
9, 46854, Note_on_c, 7, 65, 0
9, 46860, Note_on_c, 7, 71, 121
9, 46884, Note_on_c, 7, 71, 0
9, 46890, Note_on_c, 7, 65, 50
9, 46914, Note_on_c, 7, 65, 0
9, 46920, Note_on_c, 7, 71, 109
9, 46944, Note_on_c, 7, 71, 0
9, 46950, Note_on_c, 7, 74, 127
9, 46974, Note_on_c, 7, 74, 0
9, 46980, Note_on_c, 7, 65, 113
9, 47004, Note_on_c, 7, 65, 0
9, 47010, Note_on_c, 7, 71, 125
9, 47034, Note_on_c, 7, 71, 0
9, 47040, Note_on_c, 7, 74, 127
9, 47064, Note_on_c, 7, 74, 0
9, 47070, Note_on_c, 7, 71, 107
9, 47094, Note_on_c, 7, 71, 0
9, 47100, Note_on_c, 7, 74, 127
9, 47124, Note_on_c, 7, 74, 0
9, 47130, Note_on_c, 7, 77, 127
9, 47154, Note_on_c, 7, 77, 0
9, 47160, Note_on_c, 7, 71, 112
9, 47184, Note_on_c, 7, 71, 0
9, 47190, Note_on_c, 7, 74, 127
9, 47214, Note_on_c, 7, 74, 0
9, 47220, Note_on_c, 7, 77, 127
9, 47244, Note_on_c, 7, 77, 0
9, 47250, Note_on_c, 7, 74, 116
9, 47274, Note_on_c, 7, 74, 0
9, 47280, Note_on_c, 7, 77, 127
9, 47304, Note_on_c, 7, 77, 0
9, 47310, Note_on_c, 7, 83, 123
9, 47334, Note_on_c, 7, 83, 0
9, 47340, Note_on_c, 7, 74, 113
9, 47364, Note_on_c, 7, 74, 0
9, 47370, Note_on_c, 7, 77, 127
9, 47394, Note_on_c, 7, 77, 0
9, 47400, Note_on_c, 7, 83, 111
9, 47424, Note_on_c, 7, 83, 0
9, 47430, Note_on_c, 7, 77, 110
9, 47454, Note_on_c, 7, 77, 0
9, 47460, Note_on_c, 7, 83, 120
9, 47484, Note_on_c, 7, 83, 0
9, 47490, Note_on_c, 7, 86, 127
9, 47514, Note_on_c, 7, 86, 0
9, 47520, Note_on_c, 7, 77, 112
9, 47544, Note_on_c, 7, 77, 0
9, 47550, Note_on_c, 7, 83, 127
9, 47574, Note_on_c, 7, 83, 0
9, 47580, Note_on_c, 7, 86, 127
9, 47604, Note_on_c, 7, 86, 0
9, 47610, Note_on_c, 7, 83, 107
9, 47634, Note_on_c, 7, 83, 0
9, 47640, Note_on_c, 7, 86, 127
9, 47664, Note_on_c, 7, 86, 0
9, 47670, Note_on_c, 7, 89, 127
9, 47694, Note_on_c, 7, 89, 0
9, 47700, Note_on_c, 7, 83, 103
9, 47724, Note_on_c, 7, 83, 0
9, 47730, Note_on_c, 7, 86, 127
9, 47754, Note_on_c, 7, 86, 0
9, 47760, Note_on_c, 7, 89, 127
9, 47784, Note_on_c, 7, 89, 0
9, 47790, Note_on_c, 7, 86, 116
9, 47814, Note_on_c, 7, 86, 0
9, 47820, Note_on_c, 7, 89, 127
9, 47844, Note_on_c, 7, 89, 0
9, 47850, Note_on_c, 7, 95, 121
9, 47874, Note_on_c, 7, 95, 0
9, 47880, Note_on_c, 7, 89, 110
9, 47904, Note_on_c, 7, 89, 0
9, 47910, Note_on_c, 7, 91, 127
9, 47934, Note_on_c, 7, 91, 0
9, 47940, Note_on_c, 7, 95, 105
9, 47964, Note_on_c, 7, 95, 0
9, 47970, Note_on_c, 7, 98, 113
9, 47994, Note_on_c, 7, 98, 0
9, 48000, Note_on_c, 7, 89, 114
9, 48024, Note_on_c, 7, 89, 0
9, 48030, Note_on_c, 7, 91, 125
9, 48054, Note_on_c, 7, 91, 0
9, 48060, Note_on_c, 7, 95, 123
9, 48084, Note_on_c, 7, 95, 0
9, 48090, Note_on_c, 7, 98, 111
9, 48114, Note_on_c, 7, 98, 0
9, 48120, Note_on_c, 7, 89, 117
9, 48144, Note_on_c, 7, 89, 0
9, 48150, Note_on_c, 7, 91, 127
9, 48174, Note_on_c, 7, 91, 0
9, 48180, Note_on_c, 7, 95, 118
9, 48204, Note_on_c, 7, 95, 0
9, 48210, Note_on_c, 7, 98, 117
9, 48234, Note_on_c, 7, 98, 0
9, 48240, Note_on_c, 7, 89, 120
9, 48264, Note_on_c, 7, 89, 0
9, 48270, Note_on_c, 7, 91, 127
9, 48294, Note_on_c, 7, 91, 0
9, 48300, Note_on_c, 7, 95, 125
9, 48324, Note_on_c, 7, 95, 0
9, 48330, Note_on_c, 7, 98, 105
9, 48354, Note_on_c, 7, 98, 0
9, 48360, Note_on_c, 7, 89, 118
9, 48384, Note_on_c, 7, 89, 0
9, 48390, Note_on_c, 7, 91, 127
9, 48414, Note_on_c, 7, 91, 0
9, 48420, Note_on_c, 7, 95, 127
9, 48444, Note_on_c, 7, 95, 0
9, 48450, Note_on_c, 7, 98, 112
9, 48474, Note_on_c, 7, 98, 0
9, 48480, Note_on_c, 7, 89, 118
9, 48504, Note_on_c, 7, 89, 0
9, 48510, Note_on_c, 7, 91, 127
9, 48534, Note_on_c, 7, 91, 0
9, 48540, Note_on_c, 7, 95, 127
9, 48564, Note_on_c, 7, 95, 0
9, 48570, Note_on_c, 7, 98, 111
9, 48594, Note_on_c, 7, 98, 0
9, 48600, Note_on_c, 7, 89, 123
9, 48624, Note_on_c, 7, 89, 0
9, 48630, Note_on_c, 7, 91, 123
9, 48654, Note_on_c, 7, 91, 0
9, 48660, Note_on_c, 7, 95, 125
9, 48684, Note_on_c, 7, 95, 0
9, 48690, Note_on_c, 7, 98, 105
9, 48714, Note_on_c, 7, 98, 0
9, 48720, Note_on_c, 7, 89, 121
9, 48744, Note_on_c, 7, 89, 0
9, 48750, Note_on_c, 7, 91, 127
9, 48774, Note_on_c, 7, 91, 0
9, 48780, Note_on_c, 7, 95, 127
9, 48804, Note_on_c, 7, 95, 0
9, 48810, Note_on_c, 7, 98, 118
9, 48834, Note_on_c, 7, 98, 0
9, 48840, Note_on_c, 7, 89, 114
9, 48864, Note_on_c, 7, 89, 0
9, 48870, Note_on_c, 7, 91, 127
9, 48894, Note_on_c, 7, 91, 0
9, 48900, Note_on_c, 7, 95, 127
9, 48924, Note_on_c, 7, 95, 0
9, 48930, Note_on_c, 7, 98, 125
9, 48954, Note_on_c, 7, 98, 0
9, 48960, Note_on_c, 7, 89, 112
9, 48984, Note_on_c, 7, 89, 0
9, 48990, Note_on_c, 7, 91, 127
9, 49014, Note_on_c, 7, 91, 0
9, 49020, Note_on_c, 7, 95, 127
9, 49044, Note_on_c, 7, 95, 0
9, 49050, Note_on_c, 7, 98, 123
9, 49074, Note_on_c, 7, 98, 0
9, 49080, Note_on_c, 7, 89, 117
9, 49096, Note_on_c, 7, 89, 0
9, 49100, Note_on_c, 7, 91, 127
9, 49116, Note_on_c, 7, 91, 0
9, 49120, Note_on_c, 7, 95, 127
9, 49136, Note_on_c, 7, 95, 0
9, 49140, Note_on_c, 7, 89, 117
9, 49152, Note_on_c, 7, 89, 0
9, 49155, Note_on_c, 7, 91, 127
9, 49167, Note_on_c, 7, 91, 0
9, 49170, Note_on_c, 7, 95, 113
9, 49182, Note_on_c, 7, 95, 0
9, 49185, Note_on_c, 7, 98, 123
9, 49233, Note_on_c, 7, 98, 0
9, 49305, Note_on_c, 7, 79, 102
9, 49320, Note_on_c, 7, 76, 105
9, 49320, Note_on_c, 7, 72, 104
9, 49320, Note_on_c, 7, 79, 127
9, 49353, Note_on_c, 7, 79, 0
9, 49368, Note_on_c, 7, 79, 0
9, 49368, Note_on_c, 7, 76, 0
9, 49368, Note_on_c, 7, 72, 0
9, 49380, Note_on_c, 7, 72, 109
9, 49380, Note_on_c, 7, 76, 117
9, 49380, Note_on_c, 7, 84, 127
9, 49428, Note_on_c, 7, 84, 0
9, 49428, Note_on_c, 7, 76, 0
9, 49428, Note_on_c, 7, 72, 0
9, 49440, Note_on_c, 7, 76, 118
9, 49440, Note_on_c, 7, 79, 117
9, 49440, Note_on_c, 7, 84, 127
9, 49488, Note_on_c, 7, 84, 0
9, 49488, Note_on_c, 7, 79, 0
9, 49488, Note_on_c, 7, 76, 0
9, 49500, Note_on_c, 7, 76, 127
9, 49500, Note_on_c, 7, 79, 127
9, 49500, Note_on_c, 7, 88, 116
9, 49548, Note_on_c, 7, 88, 0
9, 49548, Note_on_c, 7, 79, 0
9, 49548, Note_on_c, 7, 76, 0
9, 49620, Note_on_c, 7, 79, 117
9, 49620, Note_on_c, 7, 88, 125
9, 49644, Note_on_c, 7, 88, 0
9, 49650, Note_on_c, 7, 91, 127
9, 49668, Note_on_c, 7, 79, 0
9, 49674, Note_on_c, 7, 91, 0
9, 49680, Note_on_c, 7, 84, 108
9, 49680, Note_on_c, 7, 88, 114
9, 49680, Note_on_c, 7, 91, 127
9, 49704, Note_on_c, 7, 91, 0
9, 49710, Note_on_c, 7, 96, 127
9, 49728, Note_on_c, 7, 88, 0
9, 49728, Note_on_c, 7, 84, 0
9, 49734, Note_on_c, 7, 96, 0
9, 49740, Note_on_c, 7, 96, 127
9, 49740, Note_on_c, 7, 91, 127
9, 49740, Note_on_c, 7, 84, 110
9, 49740, Note_on_c, 7, 88, 120
9, 50004, Note_on_c, 7, 88, 0
9, 50004, Note_on_c, 7, 96, 0
9, 50004, Note_on_c, 7, 91, 0
9, 50004, Note_on_c, 7, 84, 0
9, 50040, Note_on_c, 7, 84, 118
9, 50040, Note_on_c, 7, 79, 100
9, 50040, Note_on_c, 7, 88, 127
9, 50064, Note_on_c, 7, 88, 0
9, 50070, Note_on_c, 7, 91, 127
9, 50088, Note_on_c, 7, 79, 0
9, 50088, Note_on_c, 7, 84, 0
9, 50094, Note_on_c, 7, 91, 0
9, 50100, Note_on_c, 7, 84, 120
9, 50100, Note_on_c, 7, 79, 108
9, 50100, Note_on_c, 7, 91, 127
9, 50364, Note_on_c, 7, 91, 0
9, 50364, Note_on_c, 7, 79, 0
9, 50364, Note_on_c, 7, 84, 0
9, 50400, Note_on_c, 7, 79, 121
9, 50400, Note_on_c, 7, 76, 105
9, 50400, Note_on_c, 7, 84, 127
9, 50424, Note_on_c, 7, 84, 0
9, 50430, Note_on_c, 7, 88, 127
9, 50448, Note_on_c, 7, 76, 0
9, 50448, Note_on_c, 7, 79, 0
9, 50454, Note_on_c, 7, 88, 0
9, 50460, Note_on_c, 7, 79, 123
9, 50460, Note_on_c, 7, 76, 112
9, 50460, Note_on_c, 7, 88, 118
9, 50724, Note_on_c, 7, 88, 0
9, 50724, Note_on_c, 7, 76, 0
9, 50724, Note_on_c, 7, 79, 0
9, 50760, Note_on_c, 7, 81, 114
9, 50784, Note_on_c, 7, 81, 0
9, 50790, Note_on_c, 7, 96, 123
9, 50814, Note_on_c, 7, 96, 0
9, 50820, Note_on_c, 7, 96, 109
9, 50916, Note_on_c, 7, 96, 0
9, 50940, Note_on_c, 7, 77, 117
9, 50964, Note_on_c, 7, 77, 0
9, 50970, Note_on_c, 7, 93, 127
9, 50994, Note_on_c, 7, 93, 0
9, 51000, Note_on_c, 7, 93, 127
9, 51096, Note_on_c, 7, 93, 0
9, 51120, Note_on_c, 7, 74, 110
9, 51144, Note_on_c, 7, 74, 0
9, 51150, Note_on_c, 7, 89, 127
9, 51174, Note_on_c, 7, 89, 0
9, 51180, Note_on_c, 7, 89, 116
9, 51276, Note_on_c, 7, 89, 0
9, 51300, Note_on_c, 7, 69, 127
9, 51324, Note_on_c, 7, 69, 0
9, 51330, Note_on_c, 7, 86, 127
9, 51354, Note_on_c, 7, 86, 0
9, 51360, Note_on_c, 7, 86, 121
9, 51456, Note_on_c, 7, 86, 0
9, 51480, Note_on_c, 7, 67, 117
9, 51504, Note_on_c, 7, 67, 0
9, 51510, Note_on_c, 7, 76, 127
9, 51534, Note_on_c, 7, 76, 0
9, 51540, Note_on_c, 7, 72, 117
9, 51564, Note_on_c, 7, 72, 0
9, 51570, Note_on_c, 7, 79, 117
9, 51594, Note_on_c, 7, 79, 0
9, 51600, Note_on_c, 7, 76, 103
9, 51624, Note_on_c, 7, 76, 0
9, 51630, Note_on_c, 7, 84, 127
9, 51654, Note_on_c, 7, 84, 0
9, 51660, Note_on_c, 7, 79, 107
9, 51676, Note_on_c, 7, 79, 0
9, 51680, Note_on_c, 7, 88, 127
9, 51696, Note_on_c, 7, 88, 0
9, 51700, Note_on_c, 7, 84, 127
9, 51716, Note_on_c, 7, 84, 0
9, 51720, Note_on_c, 7, 91, 127
9, 51736, Note_on_c, 7, 91, 0
9, 51740, Note_on_c, 7, 88, 127
9, 51756, Note_on_c, 7, 88, 0
9, 51760, Note_on_c, 7, 96, 127
9, 51776, Note_on_c, 7, 96, 0
9, 51780, Note_on_c, 7, 91, 113
9, 51796, Note_on_c, 7, 91, 0
9, 51800, Note_on_c, 7, 88, 86
9, 51816, Note_on_c, 7, 88, 0
9, 51820, Note_on_c, 7, 84, 127
9, 51836, Note_on_c, 7, 84, 0
9, 51840, Note_on_c, 7, 79, 127
9, 51936, Note_on_c, 7, 79, 0
9, 52020, Note_on_c, 7, 86, 127
9, 52032, Note_on_c, 7, 86, 0
9, 52035, Note_on_c, 7, 88, 121
9, 52047, Note_on_c, 7, 88, 0
9, 52050, Note_on_c, 7, 86, 123
9, 52062, Note_on_c, 7, 86, 0
9, 52065, Note_on_c, 7, 88, 118
9, 52077, Note_on_c, 7, 88, 0
9, 52080, Note_on_c, 7, 86, 123
9, 52092, Note_on_c, 7, 86, 0
9, 52095, Note_on_c, 7, 88, 118
9, 52107, Note_on_c, 7, 88, 0
9, 52110, Note_on_c, 7, 86, 127
9, 52122, Note_on_c, 7, 86, 0
9, 52125, Note_on_c, 7, 88, 121
9, 52137, Note_on_c, 7, 88, 0
9, 52140, Note_on_c, 7, 86, 127
9, 52152, Note_on_c, 7, 86, 0
9, 52155, Note_on_c, 7, 88, 121
9, 52167, Note_on_c, 7, 88, 0
9, 52170, Note_on_c, 7, 84, 127
9, 52182, Note_on_c, 7, 84, 0
9, 52185, Note_on_c, 7, 86, 125
9, 52197, Note_on_c, 7, 86, 0
9, 52200, Note_on_c, 7, 88, 127
9, 52200, Note_on_c, 7, 84, 127
9, 52248, Note_on_c, 7, 84, 0
9, 52248, Note_on_c, 7, 88, 0
9, 52260, Note_on_c, 7, 84, 121
9, 52260, Note_on_c, 7, 88, 127
9, 52308, Note_on_c, 7, 88, 0
9, 52308, Note_on_c, 7, 84, 0
9, 52320, Note_on_c, 7, 84, 120
9, 52320, Note_on_c, 7, 88, 127
9, 52368, Note_on_c, 7, 88, 0
9, 52368, Note_on_c, 7, 84, 0
9, 52380, Note_on_c, 7, 84, 109
9, 52380, Note_on_c, 7, 88, 127
9, 52428, Note_on_c, 7, 88, 0
9, 52428, Note_on_c, 7, 84, 0
9, 52440, Note_on_c, 7, 84, 123
9, 52440, Note_on_c, 7, 88, 127
9, 52488, Note_on_c, 7, 88, 0
9, 52488, Note_on_c, 7, 84, 0
9, 52500, Note_on_c, 7, 84, 114
9, 52500, Note_on_c, 7, 88, 127
9, 52548, Note_on_c, 7, 88, 0
9, 52548, Note_on_c, 7, 84, 0
9, 52560, Note_on_c, 7, 88, 127
9, 52560, Note_on_c, 7, 84, 118
9, 52608, Note_on_c, 7, 84, 0
9, 52608, Note_on_c, 7, 88, 0
9, 52620, Note_on_c, 7, 88, 121
9, 52620, Note_on_c, 7, 84, 109
9, 52668, Note_on_c, 7, 84, 0
9, 52668, Note_on_c, 7, 88, 0
9, 52680, Note_on_c, 7, 84, 108
9, 52680, Note_on_c, 7, 88, 127
9, 52728, Note_on_c, 7, 88, 0
9, 52728, Note_on_c, 7, 84, 0
9, 52740, Note_on_c, 7, 84, 110
9, 52740, Note_on_c, 7, 88, 120
9, 52788, Note_on_c, 7, 88, 0
9, 52788, Note_on_c, 7, 84, 0
9, 52800, Note_on_c, 7, 88, 117
9, 52800, Note_on_c, 7, 84, 103
9, 52848, Note_on_c, 7, 84, 0
9, 52848, Note_on_c, 7, 88, 0
9, 52860, Note_on_c, 7, 88, 125
9, 52860, Note_on_c, 7, 84, 113
9, 52908, Note_on_c, 7, 84, 0
9, 52908, Note_on_c, 7, 88, 0
9, 52920, Note_on_c, 7, 91, 127
9, 52944, Note_on_c, 7, 91, 0
9, 52950, Note_on_c, 7, 89, 127
9, 52974, Note_on_c, 7, 89, 0
9, 52980, Note_on_c, 7, 88, 123
9, 53004, Note_on_c, 7, 88, 0
9, 53010, Note_on_c, 7, 86, 127
9, 53034, Note_on_c, 7, 86, 0
9, 53040, Note_on_c, 7, 84, 120
9, 53064, Note_on_c, 7, 84, 0
9, 53070, Note_on_c, 7, 83, 127
9, 53094, Note_on_c, 7, 83, 0
9, 53100, Note_on_c, 7, 81, 103
9, 53124, Note_on_c, 7, 81, 0
9, 53130, Note_on_c, 7, 79, 116
9, 53154, Note_on_c, 7, 79, 0
9, 53160, Note_on_c, 7, 77, 127
9, 53184, Note_on_c, 7, 77, 0
9, 53190, Note_on_c, 7, 76, 116
9, 53214, Note_on_c, 7, 76, 0
9, 53220, Note_on_c, 7, 74, 123
9, 53244, Note_on_c, 7, 74, 0
9, 53250, Note_on_c, 7, 72, 127
9, 53274, Note_on_c, 7, 72, 0
9, 53280, Note_on_c, 7, 71, 114
9, 53304, Note_on_c, 7, 71, 0
9, 53310, Note_on_c, 7, 69, 108
9, 53334, Note_on_c, 7, 69, 0
9, 53340, Note_on_c, 7, 67, 116
9, 53364, Note_on_c, 7, 67, 0
9, 53370, Note_on_c, 7, 65, 105
9, 53394, Note_on_c, 7, 65, 0
9, 53400, Note_on_c, 7, 64, 127
9, 53424, Note_on_c, 7, 64, 0
9, 53430, Note_on_c, 7, 62, 127
9, 53454, Note_on_c, 7, 62, 0
9, 53460, Note_on_c, 7, 60, 127
9, 53476, Note_on_c, 7, 60, 0
9, 53480, Note_on_c, 7, 59, 127
9, 53496, Note_on_c, 7, 59, 0
9, 53500, Note_on_c, 7, 57, 116
9, 53516, Note_on_c, 7, 57, 0
9, 53520, Note_on_c, 7, 55, 112
9, 53536, Note_on_c, 7, 55, 0
9, 53540, Note_on_c, 7, 54, 118
9, 53556, Note_on_c, 7, 54, 0
9, 53560, Note_on_c, 7, 55, 111
9, 53576, Note_on_c, 7, 55, 0
9, 53580, Note_on_c, 7, 57, 127
9, 53608, Note_on_c, 7, 57, 0
9, 53610, Note_on_c, 7, 58, 118
9, 53638, Note_on_c, 7, 58, 0
9, 53640, Note_on_c, 7, 60, 127
9, 53688, Note_on_c, 7, 60, 0
9, 53700, Note_on_c, 7, 72, 97
9, 53700, Note_on_c, 7, 76, 99
9, 53748, Note_on_c, 7, 76, 0
9, 53748, Note_on_c, 7, 72, 0
9, 53760, Note_on_c, 7, 76, 112
9, 53760, Note_on_c, 7, 72, 106
9, 53808, Note_on_c, 7, 72, 0
9, 53808, Note_on_c, 7, 76, 0
9, 53820, Note_on_c, 7, 76, 121
9, 53820, Note_on_c, 7, 72, 109
9, 53868, Note_on_c, 7, 72, 0
9, 53868, Note_on_c, 7, 76, 0
9, 53880, Note_on_c, 7, 84, 104
9, 53880, Note_on_c, 7, 88, 113
9, 53928, Note_on_c, 7, 88, 0
9, 53928, Note_on_c, 7, 84, 0
9, 53940, Note_on_c, 7, 84, 109
9, 53940, Note_on_c, 7, 88, 127
9, 53988, Note_on_c, 7, 88, 0
9, 53988, Note_on_c, 7, 84, 0
9, 54000, Note_on_c, 7, 88, 127
9, 54000, Note_on_c, 7, 84, 120
9, 54048, Note_on_c, 7, 84, 0
9, 54048, Note_on_c, 7, 88, 0
9, 54060, Note_on_c, 7, 88, 125
9, 54060, Note_on_c, 7, 84, 113
9, 54108, Note_on_c, 7, 84, 0
9, 54108, Note_on_c, 7, 88, 0
9, 54120, Note_on_c, 7, 88, 116
9, 54120, Note_on_c, 7, 84, 103
9, 54168, Note_on_c, 7, 84, 0
9, 54168, Note_on_c, 7, 88, 0
9, 54180, Note_on_c, 7, 88, 127
9, 54180, Note_on_c, 7, 84, 111
9, 54228, Note_on_c, 7, 84, 0
9, 54228, Note_on_c, 7, 88, 0
9, 54240, Note_on_c, 7, 88, 127
9, 54240, Note_on_c, 7, 84, 107
9, 54288, Note_on_c, 7, 84, 0
9, 54288, Note_on_c, 7, 88, 0
9, 54300, Note_on_c, 7, 88, 123
9, 54300, Note_on_c, 7, 84, 107
9, 54348, Note_on_c, 7, 84, 0
9, 54348, Note_on_c, 7, 88, 0
9, 54360, Note_on_c, 7, 96, 127
9, 54384, Note_on_c, 7, 96, 0
9, 54390, Note_on_c, 7, 95, 118
9, 54414, Note_on_c, 7, 95, 0
9, 54420, Note_on_c, 7, 93, 127
9, 54436, Note_on_c, 7, 93, 0
9, 54440, Note_on_c, 7, 91, 127
9, 54456, Note_on_c, 7, 91, 0
9, 54460, Note_on_c, 7, 89, 108
9, 54476, Note_on_c, 7, 89, 0
9, 54480, Note_on_c, 7, 88, 127
9, 54496, Note_on_c, 7, 88, 0
9, 54500, Note_on_c, 7, 86, 117
9, 54516, Note_on_c, 7, 86, 0
9, 54520, Note_on_c, 7, 84, 127
9, 54536, Note_on_c, 7, 84, 0
9, 54540, Note_on_c, 7, 83, 127
9, 54556, Note_on_c, 7, 83, 0
9, 54560, Note_on_c, 7, 81, 118
9, 54576, Note_on_c, 7, 81, 0
9, 54580, Note_on_c, 7, 79, 123
9, 54596, Note_on_c, 7, 79, 0
9, 54600, Note_on_c, 7, 77, 127
9, 54624, Note_on_c, 7, 77, 0
9, 54630, Note_on_c, 7, 76, 127
9, 54654, Note_on_c, 7, 76, 0
9, 54660, Note_on_c, 7, 74, 117
9, 54684, Note_on_c, 7, 74, 0
9, 54690, Note_on_c, 7, 72, 127
9, 54714, Note_on_c, 7, 72, 0
9, 54720, Note_on_c, 7, 71, 127
9, 54744, Note_on_c, 7, 71, 0
9, 54750, Note_on_c, 7, 69, 123
9, 54774, Note_on_c, 7, 69, 0
9, 54780, Note_on_c, 7, 67, 127
9, 54804, Note_on_c, 7, 67, 0
9, 54810, Note_on_c, 7, 65, 118
9, 54834, Note_on_c, 7, 65, 0
9, 54840, Note_on_c, 7, 64, 127
9, 54864, Note_on_c, 7, 64, 0
9, 54870, Note_on_c, 7, 62, 108
9, 54894, Note_on_c, 7, 62, 0
9, 54900, Note_on_c, 7, 60, 127
9, 54916, Note_on_c, 7, 60, 0
9, 54920, Note_on_c, 7, 59, 127
9, 54936, Note_on_c, 7, 59, 0
9, 54940, Note_on_c, 7, 57, 117
9, 54956, Note_on_c, 7, 57, 0
9, 54960, Note_on_c, 7, 55, 127
9, 54976, Note_on_c, 7, 55, 0
9, 54980, Note_on_c, 7, 54, 118
9, 54996, Note_on_c, 7, 54, 0
9, 55000, Note_on_c, 7, 55, 127
9, 55016, Note_on_c, 7, 55, 0
9, 55020, Note_on_c, 7, 57, 127
9, 55044, Note_on_c, 7, 57, 0
9, 55050, Note_on_c, 7, 59, 121
9, 55074, Note_on_c, 7, 59, 0
9, 55080, Note_on_c, 7, 60, 120
9, 55176, Note_on_c, 7, 60, 0
9, 57900, Note_on_c, 7, 75, 89
9, 57948, Note_on_c, 7, 75, 0
9, 57960, Note_on_c, 7, 75, 121
9, 58008, Note_on_c, 7, 75, 0
9, 58020, Note_on_c, 7, 80, 103
9, 58068, Note_on_c, 7, 80, 0
9, 58080, Note_on_c, 7, 80, 118
9, 58128, Note_on_c, 7, 80, 0
9, 58140, Note_on_c, 7, 84, 127
9, 58188, Note_on_c, 7, 84, 0
9, 58260, Note_on_c, 7, 84, 118
9, 58284, Note_on_c, 7, 84, 0
9, 58290, Note_on_c, 7, 87, 118
9, 58314, Note_on_c, 7, 87, 0
9, 58320, Note_on_c, 7, 87, 115
9, 58344, Note_on_c, 7, 87, 0
9, 58350, Note_on_c, 7, 92, 115
9, 58374, Note_on_c, 7, 92, 0
9, 58380, Note_on_c, 7, 92, 111
9, 58596, Note_on_c, 7, 92, 0
9, 58620, Note_on_c, 7, 92, 99
9, 58632, Note_on_c, 7, 92, 0
9, 58635, Note_on_c, 7, 94, 107
9, 58647, Note_on_c, 7, 94, 0
9, 58650, Note_on_c, 7, 91, 114
9, 58662, Note_on_c, 7, 91, 0
9, 58665, Note_on_c, 7, 92, 115
9, 58677, Note_on_c, 7, 92, 0
9, 58680, Note_on_c, 7, 96, 127
9, 58728, Note_on_c, 7, 96, 0
9, 58740, Note_on_c, 7, 94, 105
9, 58788, Note_on_c, 7, 94, 0
9, 58800, Note_on_c, 7, 92, 93
9, 58848, Note_on_c, 7, 92, 0
9, 58860, Note_on_c, 7, 91, 125
9, 58908, Note_on_c, 7, 91, 0
9, 58920, Note_on_c, 7, 89, 121
9, 58968, Note_on_c, 7, 89, 0
9, 58980, Note_on_c, 7, 87, 111
9, 59028, Note_on_c, 7, 87, 0
9, 59040, Note_on_c, 7, 87, 113
9, 59064, Note_on_c, 7, 87, 0
9, 59070, Note_on_c, 7, 89, 125
9, 59094, Note_on_c, 7, 89, 0
9, 59100, Note_on_c, 7, 87, 103
9, 59124, Note_on_c, 7, 87, 0
9, 59130, Note_on_c, 7, 86, 118
9, 59154, Note_on_c, 7, 86, 0
9, 59160, Note_on_c, 7, 87, 118
9, 59184, Note_on_c, 7, 87, 0
9, 59190, Note_on_c, 7, 88, 99
9, 59214, Note_on_c, 7, 88, 0
9, 59220, Note_on_c, 7, 89, 123
9, 59244, Note_on_c, 7, 89, 0
9, 59250, Note_on_c, 7, 90, 113
9, 59274, Note_on_c, 7, 90, 0
9, 59280, Note_on_c, 7, 91, 116
9, 59304, Note_on_c, 7, 91, 0
9, 59310, Note_on_c, 7, 92, 123
9, 59334, Note_on_c, 7, 92, 0
9, 59340, Note_on_c, 7, 93, 120
9, 59356, Note_on_c, 7, 93, 0
9, 59360, Note_on_c, 7, 94, 109
9, 59376, Note_on_c, 7, 94, 0
9, 59380, Note_on_c, 7, 95, 106
9, 59396, Note_on_c, 7, 95, 0
9, 59400, Note_on_c, 7, 96, 127
9, 59424, Note_on_c, 7, 96, 0
9, 59430, Note_on_c, 7, 95, 127
9, 59454, Note_on_c, 7, 95, 0
9, 59460, Note_on_c, 7, 94, 100
9, 59484, Note_on_c, 7, 94, 0
9, 59490, Note_on_c, 7, 93, 127
9, 59514, Note_on_c, 7, 93, 0
9, 59520, Note_on_c, 7, 92, 107
9, 59544, Note_on_c, 7, 92, 0
9, 59550, Note_on_c, 7, 91, 118
9, 59574, Note_on_c, 7, 91, 0
9, 59580, Note_on_c, 7, 90, 115
9, 59604, Note_on_c, 7, 90, 0
9, 59610, Note_on_c, 7, 89, 110
9, 59634, Note_on_c, 7, 89, 0
9, 59640, Note_on_c, 7, 88, 106
9, 59664, Note_on_c, 7, 88, 0
9, 59670, Note_on_c, 7, 87, 100
9, 59694, Note_on_c, 7, 87, 0
9, 59700, Note_on_c, 7, 86, 125
9, 59724, Note_on_c, 7, 86, 0
9, 59730, Note_on_c, 7, 87, 105
9, 59754, Note_on_c, 7, 87, 0
9, 59760, Note_on_c, 7, 88, 109
9, 59784, Note_on_c, 7, 88, 0
9, 59790, Note_on_c, 7, 89, 127
9, 59814, Note_on_c, 7, 89, 0
9, 59820, Note_on_c, 7, 90, 109
9, 59844, Note_on_c, 7, 90, 0
9, 59850, Note_on_c, 7, 91, 100
9, 59874, Note_on_c, 7, 91, 0
9, 59880, Note_on_c, 7, 92, 99
9, 59904, Note_on_c, 7, 92, 0
9, 59910, Note_on_c, 7, 93, 101
9, 59934, Note_on_c, 7, 93, 0
9, 59940, Note_on_c, 7, 94, 111
9, 59969, Note_on_c, 7, 94, 0
9, 59976, Note_on_c, 7, 95, 106
9, 60005, Note_on_c, 7, 95, 0
9, 60012, Note_on_c, 7, 96, 127
9, 60041, Note_on_c, 7, 96, 0
9, 60048, Note_on_c, 7, 97, 109
9, 60077, Note_on_c, 7, 97, 0
9, 60084, Note_on_c, 7, 98, 108
9, 60113, Note_on_c, 7, 98, 0
9, 60120, Note_on_c, 7, 99, 121
9, 60144, Note_on_c, 7, 99, 0
9, 60150, Note_on_c, 7, 98, 123
9, 60174, Note_on_c, 7, 98, 0
9, 60180, Note_on_c, 7, 97, 105
9, 60204, Note_on_c, 7, 97, 0
9, 60210, Note_on_c, 7, 96, 121
9, 60234, Note_on_c, 7, 96, 0
9, 60240, Note_on_c, 7, 95, 113
9, 60264, Note_on_c, 7, 95, 0
9, 60270, Note_on_c, 7, 94, 91
9, 60294, Note_on_c, 7, 94, 0
9, 60300, Note_on_c, 7, 93, 118
9, 60324, Note_on_c, 7, 93, 0
9, 60330, Note_on_c, 7, 92, 96
9, 60354, Note_on_c, 7, 92, 0
9, 60360, Note_on_c, 7, 91, 121
9, 60384, Note_on_c, 7, 91, 0
9, 60390, Note_on_c, 7, 90, 100
9, 60414, Note_on_c, 7, 90, 0
9, 60420, Note_on_c, 7, 89, 123
9, 60444, Note_on_c, 7, 89, 0
9, 60450, Note_on_c, 7, 88, 118
9, 60474, Note_on_c, 7, 88, 0
9, 60480, Note_on_c, 7, 89, 127
9, 60504, Note_on_c, 7, 89, 0
9, 60510, Note_on_c, 7, 90, 113
9, 60534, Note_on_c, 7, 90, 0
9, 60540, Note_on_c, 7, 91, 121
9, 60564, Note_on_c, 7, 91, 0
9, 60570, Note_on_c, 7, 92, 111
9, 60594, Note_on_c, 7, 92, 0
9, 60600, Note_on_c, 7, 93, 112
9, 60624, Note_on_c, 7, 93, 0
9, 60630, Note_on_c, 7, 94, 107
9, 60654, Note_on_c, 7, 94, 0
9, 60660, Note_on_c, 7, 95, 106
9, 60684, Note_on_c, 7, 95, 0
9, 60690, Note_on_c, 7, 96, 127
9, 60714, Note_on_c, 7, 96, 0
9, 60720, Note_on_c, 7, 97, 103
9, 60744, Note_on_c, 7, 97, 0
9, 60750, Note_on_c, 7, 98, 99
9, 60774, Note_on_c, 7, 98, 0
9, 60780, Note_on_c, 7, 99, 97
9, 60804, Note_on_c, 7, 99, 0
9, 60810, Note_on_c, 7, 100, 127
9, 60834, Note_on_c, 7, 100, 0
9, 60840, Note_on_c, 7, 101, 123
9, 60864, Note_on_c, 7, 101, 0
9, 60870, Note_on_c, 7, 100, 123
9, 60894, Note_on_c, 7, 100, 0
9, 60900, Note_on_c, 7, 99, 109
9, 60924, Note_on_c, 7, 99, 0
9, 60930, Note_on_c, 7, 98, 116
9, 60954, Note_on_c, 7, 98, 0
9, 60960, Note_on_c, 7, 97, 96
9, 60984, Note_on_c, 7, 97, 0
9, 60990, Note_on_c, 7, 96, 121
9, 61014, Note_on_c, 7, 96, 0
9, 61020, Note_on_c, 7, 95, 113
9, 61044, Note_on_c, 7, 95, 0
9, 61050, Note_on_c, 7, 94, 88
9, 61074, Note_on_c, 7, 94, 0
9, 61080, Note_on_c, 7, 93, 127
9, 61104, Note_on_c, 7, 93, 0
9, 61110, Note_on_c, 7, 92, 113
9, 61134, Note_on_c, 7, 92, 0
9, 61140, Note_on_c, 7, 91, 127
9, 61156, Note_on_c, 7, 91, 0
9, 61160, Note_on_c, 7, 90, 115
9, 61176, Note_on_c, 7, 90, 0
9, 61180, Note_on_c, 7, 89, 127
9, 61196, Note_on_c, 7, 89, 0
9, 61200, Note_on_c, 7, 88, 127
9, 61224, Note_on_c, 7, 88, 0
9, 61230, Note_on_c, 7, 87, 109
9, 61254, Note_on_c, 7, 87, 0
9, 61260, Note_on_c, 7, 86, 125
9, 61284, Note_on_c, 7, 86, 0
9, 61290, Note_on_c, 7, 85, 113
9, 61314, Note_on_c, 7, 85, 0
9, 61320, Note_on_c, 7, 84, 127
9, 61344, Note_on_c, 7, 84, 0
9, 61350, Note_on_c, 7, 83, 113
9, 61374, Note_on_c, 7, 83, 0
9, 61380, Note_on_c, 7, 82, 103
9, 61404, Note_on_c, 7, 82, 0
9, 61410, Note_on_c, 7, 81, 127
9, 61434, Note_on_c, 7, 81, 0
9, 61440, Note_on_c, 7, 80, 105
9, 61464, Note_on_c, 7, 80, 0
9, 61470, Note_on_c, 7, 79, 127
9, 61494, Note_on_c, 7, 79, 0
9, 61500, Note_on_c, 7, 78, 95
9, 61524, Note_on_c, 7, 78, 0
9, 61530, Note_on_c, 7, 77, 127
9, 61554, Note_on_c, 7, 77, 0
9, 61560, Note_on_c, 7, 76, 114
9, 61584, Note_on_c, 7, 76, 0
9, 61590, Note_on_c, 7, 75, 123
9, 61614, Note_on_c, 7, 75, 0
9, 61620, Note_on_c, 7, 74, 127
9, 61644, Note_on_c, 7, 74, 0
9, 61650, Note_on_c, 7, 73, 113
9, 61674, Note_on_c, 7, 73, 0
9, 61680, Note_on_c, 7, 72, 127
9, 61704, Note_on_c, 7, 72, 0
9, 61710, Note_on_c, 7, 71, 99
9, 61734, Note_on_c, 7, 71, 0
9, 61740, Note_on_c, 7, 70, 118
9, 61756, Note_on_c, 7, 70, 0
9, 61760, Note_on_c, 7, 72, 127
9, 61776, Note_on_c, 7, 72, 0
9, 61780, Note_on_c, 7, 70, 105
9, 61796, Note_on_c, 7, 70, 0
9, 61800, Note_on_c, 7, 69, 127
9, 61824, Note_on_c, 7, 69, 0
9, 61830, Note_on_c, 7, 70, 118
9, 61854, Note_on_c, 7, 70, 0
9, 61860, Note_on_c, 7, 75, 123
9, 61884, Note_on_c, 7, 75, 0
9, 61890, Note_on_c, 7, 67, 109
9, 61914, Note_on_c, 7, 67, 0
9, 61920, Note_on_c, 7, 68, 127
9, 61968, Note_on_c, 7, 68, 0
9, 61980, Note_on_c, 7, 80, 107
9, 61980, Note_on_c, 7, 84, 121
9, 62028, Note_on_c, 7, 84, 0
9, 62028, Note_on_c, 7, 80, 0
9, 62040, Note_on_c, 7, 80, 96
9, 62040, Note_on_c, 7, 84, 109
9, 62088, Note_on_c, 7, 84, 0
9, 62088, Note_on_c, 7, 80, 0
9, 62100, Note_on_c, 7, 84, 123
9, 62100, Note_on_c, 7, 80, 115
9, 62148, Note_on_c, 7, 80, 0
9, 62148, Note_on_c, 7, 84, 0
9, 62160, Note_on_c, 7, 87, 118
9, 62160, Note_on_c, 7, 84, 127
9, 62208, Note_on_c, 7, 84, 0
9, 62208, Note_on_c, 7, 87, 0
9, 62220, Note_on_c, 7, 87, 107
9, 62220, Note_on_c, 7, 84, 125
9, 62268, Note_on_c, 7, 84, 0
9, 62268, Note_on_c, 7, 87, 0
9, 62280, Note_on_c, 7, 87, 109
9, 62280, Note_on_c, 7, 84, 121
9, 62328, Note_on_c, 7, 84, 0
9, 62328, Note_on_c, 7, 87, 0
9, 62340, Note_on_c, 7, 92, 115
9, 62340, Note_on_c, 7, 87, 109
9, 62388, Note_on_c, 7, 87, 0
9, 62388, Note_on_c, 7, 92, 0
9, 62400, Note_on_c, 7, 92, 107
9, 62400, Note_on_c, 7, 87, 107
9, 62448, Note_on_c, 7, 87, 0
9, 62448, Note_on_c, 7, 92, 0
9, 62460, Note_on_c, 7, 92, 115
9, 62460, Note_on_c, 7, 87, 107
9, 62508, Note_on_c, 7, 87, 0
9, 62508, Note_on_c, 7, 92, 0
9, 62520, Note_on_c, 7, 92, 113
9, 62520, Note_on_c, 7, 87, 96
9, 62568, Note_on_c, 7, 87, 0
9, 62568, Note_on_c, 7, 92, 0
9, 62580, Note_on_c, 7, 92, 107
9, 62580, Note_on_c, 7, 87, 101
9, 62628, Note_on_c, 7, 87, 0
9, 62628, Note_on_c, 7, 92, 0
9, 62640, Note_on_c, 7, 96, 127
9, 62664, Note_on_c, 7, 96, 0
9, 62670, Note_on_c, 7, 94, 118
9, 62694, Note_on_c, 7, 94, 0
9, 62700, Note_on_c, 7, 92, 111
9, 62724, Note_on_c, 7, 92, 0
9, 62730, Note_on_c, 7, 91, 125
9, 62754, Note_on_c, 7, 91, 0
9, 62760, Note_on_c, 7, 89, 112
9, 62784, Note_on_c, 7, 89, 0
9, 62790, Note_on_c, 7, 87, 113
9, 62814, Note_on_c, 7, 87, 0
9, 62820, Note_on_c, 7, 85, 115
9, 62844, Note_on_c, 7, 85, 0
9, 62850, Note_on_c, 7, 84, 127
9, 62874, Note_on_c, 7, 84, 0
9, 62880, Note_on_c, 7, 82, 94
9, 62904, Note_on_c, 7, 82, 0
9, 62910, Note_on_c, 7, 80, 100
9, 62934, Note_on_c, 7, 80, 0
9, 62940, Note_on_c, 7, 79, 110
9, 62964, Note_on_c, 7, 79, 0
9, 62970, Note_on_c, 7, 77, 127
9, 62994, Note_on_c, 7, 77, 0
9, 63000, Note_on_c, 7, 75, 127
9, 63024, Note_on_c, 7, 75, 0
9, 63030, Note_on_c, 7, 73, 111
9, 63054, Note_on_c, 7, 73, 0
9, 63060, Note_on_c, 7, 72, 125
9, 63084, Note_on_c, 7, 72, 0
9, 63090, Note_on_c, 7, 70, 109
9, 63114, Note_on_c, 7, 70, 0
9, 63120, Note_on_c, 7, 68, 103
9, 63144, Note_on_c, 7, 68, 0
9, 63150, Note_on_c, 7, 67, 125
9, 63174, Note_on_c, 7, 67, 0
9, 63180, Note_on_c, 7, 65, 127
9, 63196, Note_on_c, 7, 65, 0
9, 63200, Note_on_c, 7, 63, 91
9, 63216, Note_on_c, 7, 63, 0
9, 63220, Note_on_c, 7, 62, 112
9, 63236, Note_on_c, 7, 62, 0
9, 63240, Note_on_c, 7, 63, 113
9, 63256, Note_on_c, 7, 63, 0
9, 63260, Note_on_c, 7, 64, 118
9, 63276, Note_on_c, 7, 64, 0
9, 63280, Note_on_c, 7, 65, 127
9, 63296, Note_on_c, 7, 65, 0
9, 63300, Note_on_c, 7, 66, 127
9, 63324, Note_on_c, 7, 66, 0
9, 63330, Note_on_c, 7, 67, 127
9, 63354, Note_on_c, 7, 67, 0
9, 63360, Note_on_c, 7, 68, 127
9, 63408, Note_on_c, 7, 68, 0
9, 63420, Note_on_c, 7, 84, 125
9, 63420, Note_on_c, 7, 80, 101
9, 63468, Note_on_c, 7, 80, 0
9, 63468, Note_on_c, 7, 84, 0
9, 63480, Note_on_c, 7, 80, 103
9, 63480, Note_on_c, 7, 84, 127
9, 63528, Note_on_c, 7, 84, 0
9, 63528, Note_on_c, 7, 80, 0
9, 63540, Note_on_c, 7, 80, 96
9, 63540, Note_on_c, 7, 84, 127
9, 63588, Note_on_c, 7, 84, 0
9, 63588, Note_on_c, 7, 80, 0
9, 63600, Note_on_c, 7, 87, 95
9, 63600, Note_on_c, 7, 84, 127
9, 63648, Note_on_c, 7, 84, 0
9, 63648, Note_on_c, 7, 87, 0
9, 63660, Note_on_c, 7, 87, 95
9, 63660, Note_on_c, 7, 84, 125
9, 63708, Note_on_c, 7, 84, 0
9, 63708, Note_on_c, 7, 87, 0
9, 63720, Note_on_c, 7, 87, 96
9, 63720, Note_on_c, 7, 84, 127
9, 63768, Note_on_c, 7, 84, 0
9, 63768, Note_on_c, 7, 87, 0
9, 63780, Note_on_c, 7, 92, 103
9, 63780, Note_on_c, 7, 87, 94
9, 63828, Note_on_c, 7, 87, 0
9, 63828, Note_on_c, 7, 92, 0
9, 63840, Note_on_c, 7, 92, 100
9, 63840, Note_on_c, 7, 87, 95
9, 63888, Note_on_c, 7, 87, 0
9, 63888, Note_on_c, 7, 92, 0
9, 63900, Note_on_c, 7, 87, 97
9, 63900, Note_on_c, 7, 92, 115
9, 63948, Note_on_c, 7, 92, 0
9, 63948, Note_on_c, 7, 87, 0
9, 63960, Note_on_c, 7, 92, 77
9, 63960, Note_on_c, 7, 96, 116
9, 64008, Note_on_c, 7, 96, 0
9, 64008, Note_on_c, 7, 92, 0
9, 64020, Note_on_c, 7, 92, 93
9, 64020, Note_on_c, 7, 96, 117
9, 64068, Note_on_c, 7, 96, 0
9, 64068, Note_on_c, 7, 92, 0
9, 64080, Note_on_c, 7, 99, 115
9, 64104, Note_on_c, 7, 99, 0
9, 64110, Note_on_c, 7, 97, 113
9, 64134, Note_on_c, 7, 97, 0
9, 64140, Note_on_c, 7, 96, 120
9, 64164, Note_on_c, 7, 96, 0
9, 64170, Note_on_c, 7, 94, 103
9, 64194, Note_on_c, 7, 94, 0
9, 64200, Note_on_c, 7, 92, 100
9, 64224, Note_on_c, 7, 92, 0
9, 64230, Note_on_c, 7, 91, 120
9, 64254, Note_on_c, 7, 91, 0
9, 64260, Note_on_c, 7, 89, 127
9, 64276, Note_on_c, 7, 89, 0
9, 64280, Note_on_c, 7, 87, 105
9, 64296, Note_on_c, 7, 87, 0
9, 64300, Note_on_c, 7, 85, 105
9, 64316, Note_on_c, 7, 85, 0
9, 64320, Note_on_c, 7, 84, 127
9, 64336, Note_on_c, 7, 84, 0
9, 64340, Note_on_c, 7, 82, 97
9, 64356, Note_on_c, 7, 82, 0
9, 64360, Note_on_c, 7, 80, 121
9, 64376, Note_on_c, 7, 80, 0
9, 64380, Note_on_c, 7, 79, 127
9, 64396, Note_on_c, 7, 79, 0
9, 64400, Note_on_c, 7, 77, 120
9, 64416, Note_on_c, 7, 77, 0
9, 64420, Note_on_c, 7, 75, 121
9, 64436, Note_on_c, 7, 75, 0
9, 64440, Note_on_c, 7, 73, 109
9, 64456, Note_on_c, 7, 73, 0
9, 64460, Note_on_c, 7, 72, 125
9, 64476, Note_on_c, 7, 72, 0
9, 64480, Note_on_c, 7, 70, 90
9, 64496, Note_on_c, 7, 70, 0
9, 64500, Note_on_c, 7, 68, 107
9, 64516, Note_on_c, 7, 68, 0
9, 64520, Note_on_c, 7, 67, 127
9, 64536, Note_on_c, 7, 67, 0
9, 64540, Note_on_c, 7, 65, 114
9, 64556, Note_on_c, 7, 65, 0
9, 64560, Note_on_c, 7, 63, 121
9, 64576, Note_on_c, 7, 63, 0
9, 64580, Note_on_c, 7, 61, 118
9, 64596, Note_on_c, 7, 61, 0
9, 64600, Note_on_c, 7, 60, 127
9, 64616, Note_on_c, 7, 60, 0
9, 64620, Note_on_c, 7, 58, 113
9, 64636, Note_on_c, 7, 58, 0
9, 64640, Note_on_c, 7, 56, 96
9, 64656, Note_on_c, 7, 56, 0
9, 64660, Note_on_c, 7, 55, 127
9, 64676, Note_on_c, 7, 55, 0
9, 64680, Note_on_c, 7, 53, 127
9, 64704, Note_on_c, 7, 53, 0
9, 64710, Note_on_c, 7, 51, 121
9, 64734, Note_on_c, 7, 51, 0
9, 64740, Note_on_c, 7, 53, 127
9, 64764, Note_on_c, 7, 53, 0
9, 64770, Note_on_c, 7, 55, 121
9, 64794, Note_on_c, 7, 55, 0
9, 64800, Note_on_c, 7, 56, 123
9, 64896, Note_on_c, 7, 56, 0
9, 67980, Note_on_c, 7, 71, 127
9, 68028, Note_on_c, 7, 71, 0
9, 68040, Note_on_c, 7, 71, 125
9, 68088, Note_on_c, 7, 71, 0
9, 68100, Note_on_c, 7, 76, 127
9, 68148, Note_on_c, 7, 76, 0
9, 68160, Note_on_c, 7, 76, 127
9, 68208, Note_on_c, 7, 76, 0
9, 68220, Note_on_c, 7, 80, 97
9, 68268, Note_on_c, 7, 80, 0
9, 68340, Note_on_c, 7, 80, 114
9, 68364, Note_on_c, 7, 80, 0
9, 68370, Note_on_c, 7, 83, 127
9, 68394, Note_on_c, 7, 83, 0
9, 68400, Note_on_c, 7, 83, 127
9, 68424, Note_on_c, 7, 83, 0
9, 68430, Note_on_c, 7, 88, 127
9, 68454, Note_on_c, 7, 88, 0
9, 68460, Note_on_c, 7, 88, 127
9, 68676, Note_on_c, 7, 88, 0
9, 68700, Note_on_c, 7, 88, 116
9, 68724, Note_on_c, 7, 88, 0
9, 68730, Note_on_c, 7, 92, 118
9, 68754, Note_on_c, 7, 92, 0
9, 68760, Note_on_c, 7, 87, 123
9, 68784, Note_on_c, 7, 87, 0
9, 68790, Note_on_c, 7, 90, 111
9, 68814, Note_on_c, 7, 90, 0
9, 68820, Note_on_c, 7, 93, 127
9, 68844, Note_on_c, 7, 93, 0
9, 68850, Note_on_c, 7, 90, 113
9, 68874, Note_on_c, 7, 90, 0
9, 68880, Note_on_c, 7, 87, 100
9, 68904, Note_on_c, 7, 87, 0
9, 68910, Note_on_c, 7, 83, 118
9, 68934, Note_on_c, 7, 83, 0
9, 68940, Note_on_c, 7, 87, 121
9, 68964, Note_on_c, 7, 87, 0
9, 68970, Note_on_c, 7, 90, 113
9, 68994, Note_on_c, 7, 90, 0
9, 69000, Note_on_c, 7, 93, 127
9, 69024, Note_on_c, 7, 93, 0
9, 69030, Note_on_c, 7, 90, 109
9, 69054, Note_on_c, 7, 90, 0
9, 69060, Note_on_c, 7, 87, 96
9, 69084, Note_on_c, 7, 87, 0
9, 69090, Note_on_c, 7, 83, 118
9, 69114, Note_on_c, 7, 83, 0
9, 69120, Note_on_c, 7, 88, 113
9, 69144, Note_on_c, 7, 88, 0
9, 69150, Note_on_c, 7, 92, 118
9, 69174, Note_on_c, 7, 92, 0
9, 69180, Note_on_c, 7, 95, 123
9, 69204, Note_on_c, 7, 95, 0
9, 69210, Note_on_c, 7, 92, 107
9, 69234, Note_on_c, 7, 92, 0
9, 69240, Note_on_c, 7, 88, 123
9, 69264, Note_on_c, 7, 88, 0
9, 69270, Note_on_c, 7, 83, 117
9, 69294, Note_on_c, 7, 83, 0
9, 69300, Note_on_c, 7, 88, 127
9, 69324, Note_on_c, 7, 88, 0
9, 69330, Note_on_c, 7, 92, 113
9, 69354, Note_on_c, 7, 92, 0
9, 69360, Note_on_c, 7, 95, 127
9, 69384, Note_on_c, 7, 95, 0
9, 69390, Note_on_c, 7, 92, 113
9, 69414, Note_on_c, 7, 92, 0
9, 69420, Note_on_c, 7, 88, 121
9, 69444, Note_on_c, 7, 88, 0
9, 69450, Note_on_c, 7, 83, 113
9, 69474, Note_on_c, 7, 83, 0
9, 69480, Note_on_c, 7, 87, 85
9, 69504, Note_on_c, 7, 87, 0
9, 69510, Note_on_c, 7, 90, 123
9, 69534, Note_on_c, 7, 90, 0
9, 69540, Note_on_c, 7, 93, 127
9, 69564, Note_on_c, 7, 93, 0
9, 69570, Note_on_c, 7, 90, 111
9, 69594, Note_on_c, 7, 90, 0
9, 69600, Note_on_c, 7, 87, 118
9, 69624, Note_on_c, 7, 87, 0
9, 69630, Note_on_c, 7, 83, 112
9, 69654, Note_on_c, 7, 83, 0
9, 69660, Note_on_c, 7, 87, 118
9, 69684, Note_on_c, 7, 87, 0
9, 69690, Note_on_c, 7, 90, 85
9, 69714, Note_on_c, 7, 90, 0
9, 69720, Note_on_c, 7, 93, 120
9, 69744, Note_on_c, 7, 93, 0
9, 69750, Note_on_c, 7, 90, 111
9, 69774, Note_on_c, 7, 90, 0
9, 69780, Note_on_c, 7, 87, 83
9, 69804, Note_on_c, 7, 87, 0
9, 69810, Note_on_c, 7, 83, 116
9, 69834, Note_on_c, 7, 83, 0
9, 69840, Note_on_c, 7, 88, 113
9, 69864, Note_on_c, 7, 88, 0
9, 69870, Note_on_c, 7, 92, 118
9, 69894, Note_on_c, 7, 92, 0
9, 69900, Note_on_c, 7, 95, 123
9, 69924, Note_on_c, 7, 95, 0
9, 69930, Note_on_c, 7, 92, 107
9, 69954, Note_on_c, 7, 92, 0
9, 69960, Note_on_c, 7, 88, 123
9, 69984, Note_on_c, 7, 88, 0
9, 69990, Note_on_c, 7, 83, 117
9, 70014, Note_on_c, 7, 83, 0
9, 70020, Note_on_c, 7, 88, 127
9, 70044, Note_on_c, 7, 88, 0
9, 70050, Note_on_c, 7, 92, 113
9, 70074, Note_on_c, 7, 92, 0
9, 70080, Note_on_c, 7, 95, 127
9, 70104, Note_on_c, 7, 95, 0
9, 70110, Note_on_c, 7, 92, 113
9, 70134, Note_on_c, 7, 92, 0
9, 70140, Note_on_c, 7, 88, 121
9, 70164, Note_on_c, 7, 88, 0
9, 70170, Note_on_c, 7, 83, 113
9, 70194, Note_on_c, 7, 83, 0
9, 70200, Note_on_c, 7, 88, 127
9, 70224, Note_on_c, 7, 88, 0
9, 70230, Note_on_c, 7, 92, 127
9, 70254, Note_on_c, 7, 92, 0
9, 70260, Note_on_c, 7, 95, 113
9, 70284, Note_on_c, 7, 95, 0
9, 70290, Note_on_c, 7, 92, 127
9, 70314, Note_on_c, 7, 92, 0
9, 70320, Note_on_c, 7, 88, 127
9, 70344, Note_on_c, 7, 88, 0
9, 70350, Note_on_c, 7, 83, 111
9, 70374, Note_on_c, 7, 83, 0
9, 70380, Note_on_c, 7, 88, 127
9, 70404, Note_on_c, 7, 88, 0
9, 70410, Note_on_c, 7, 92, 127
9, 70434, Note_on_c, 7, 92, 0
9, 70440, Note_on_c, 7, 95, 115
9, 70464, Note_on_c, 7, 95, 0
9, 70470, Note_on_c, 7, 92, 127
9, 70494, Note_on_c, 7, 92, 0
9, 70500, Note_on_c, 7, 88, 116
9, 70524, Note_on_c, 7, 88, 0
9, 70530, Note_on_c, 7, 83, 111
9, 70554, Note_on_c, 7, 83, 0
9, 70560, Note_on_c, 7, 88, 127
9, 70584, Note_on_c, 7, 88, 0
9, 70590, Note_on_c, 7, 93, 127
9, 70614, Note_on_c, 7, 93, 0
9, 70620, Note_on_c, 7, 97, 113
9, 70644, Note_on_c, 7, 97, 0
9, 70650, Note_on_c, 7, 93, 127
9, 70674, Note_on_c, 7, 93, 0
9, 70680, Note_on_c, 7, 88, 109
9, 70704, Note_on_c, 7, 88, 0
9, 70710, Note_on_c, 7, 85, 85
9, 70734, Note_on_c, 7, 85, 0
9, 70740, Note_on_c, 7, 88, 104
9, 70764, Note_on_c, 7, 88, 0
9, 70770, Note_on_c, 7, 93, 107
9, 70794, Note_on_c, 7, 93, 0
9, 70800, Note_on_c, 7, 97, 105
9, 70824, Note_on_c, 7, 97, 0
9, 70830, Note_on_c, 7, 93, 127
9, 70854, Note_on_c, 7, 93, 0
9, 70860, Note_on_c, 7, 88, 108
9, 70884, Note_on_c, 7, 88, 0
9, 70890, Note_on_c, 7, 85, 101
9, 70914, Note_on_c, 7, 85, 0
9, 70920, Note_on_c, 7, 88, 123
9, 70944, Note_on_c, 7, 88, 0
9, 70950, Note_on_c, 7, 93, 127
9, 70974, Note_on_c, 7, 93, 0
9, 70980, Note_on_c, 7, 97, 118
9, 71004, Note_on_c, 7, 97, 0
9, 71010, Note_on_c, 7, 93, 127
9, 71034, Note_on_c, 7, 93, 0
9, 71040, Note_on_c, 7, 88, 103
9, 71064, Note_on_c, 7, 88, 0
9, 71070, Note_on_c, 7, 85, 87
9, 71094, Note_on_c, 7, 85, 0
9, 71100, Note_on_c, 7, 88, 117
9, 71124, Note_on_c, 7, 88, 0
9, 71130, Note_on_c, 7, 93, 127
9, 71154, Note_on_c, 7, 93, 0
9, 71160, Note_on_c, 7, 97, 91
9, 71184, Note_on_c, 7, 97, 0
9, 71190, Note_on_c, 7, 93, 120
9, 71214, Note_on_c, 7, 93, 0
9, 71220, Note_on_c, 7, 88, 109
9, 71244, Note_on_c, 7, 88, 0
9, 71250, Note_on_c, 7, 85, 111
9, 71274, Note_on_c, 7, 85, 0
9, 71280, Note_on_c, 7, 88, 107
9, 71304, Note_on_c, 7, 88, 0
9, 71310, Note_on_c, 7, 92, 113
9, 71334, Note_on_c, 7, 92, 0
9, 71340, Note_on_c, 7, 95, 127
9, 71364, Note_on_c, 7, 95, 0
9, 71370, Note_on_c, 7, 83, 116
9, 71394, Note_on_c, 7, 83, 0
9, 71400, Note_on_c, 7, 88, 125
9, 71424, Note_on_c, 7, 88, 0
9, 71430, Note_on_c, 7, 92, 115
9, 71454, Note_on_c, 7, 92, 0
9, 71460, Note_on_c, 7, 100, 111
9, 71476, Note_on_c, 7, 100, 0
9, 71480, Note_on_c, 7, 104, 113
9, 71496, Note_on_c, 7, 104, 0
9, 71500, Note_on_c, 7, 107, 121
9, 71516, Note_on_c, 7, 107, 0
9, 71520, Note_on_c, 7, 100, 127
9, 71536, Note_on_c, 7, 100, 0
9, 71540, Note_on_c, 7, 95, 118
9, 71556, Note_on_c, 7, 95, 0
9, 71560, Note_on_c, 7, 92, 109
9, 71576, Note_on_c, 7, 92, 0
9, 71580, Note_on_c, 7, 100, 127
9, 71592, Note_on_c, 7, 100, 0
9, 71595, Note_on_c, 7, 95, 127
9, 71607, Note_on_c, 7, 95, 0
9, 71610, Note_on_c, 7, 92, 94
9, 71622, Note_on_c, 7, 92, 0
9, 71625, Note_on_c, 7, 88, 120
9, 71637, Note_on_c, 7, 88, 0
9, 71640, Note_on_c, 7, 71, 102
9, 71736, Note_on_c, 7, 71, 0
9, 71820, Note_on_c, 7, 78, 121
9, 71832, Note_on_c, 7, 78, 0
9, 71835, Note_on_c, 7, 80, 127
9, 71847, Note_on_c, 7, 80, 0
9, 71850, Note_on_c, 7, 78, 115
9, 71862, Note_on_c, 7, 78, 0
9, 71865, Note_on_c, 7, 80, 127
9, 71877, Note_on_c, 7, 80, 0
9, 71880, Note_on_c, 7, 78, 101
9, 71892, Note_on_c, 7, 78, 0
9, 71895, Note_on_c, 7, 80, 116
9, 71907, Note_on_c, 7, 80, 0
9, 71910, Note_on_c, 7, 78, 107
9, 71922, Note_on_c, 7, 78, 0
9, 71925, Note_on_c, 7, 80, 123
9, 71937, Note_on_c, 7, 80, 0
9, 71940, Note_on_c, 7, 78, 107
9, 71952, Note_on_c, 7, 78, 0
9, 71955, Note_on_c, 7, 80, 127
9, 71967, Note_on_c, 7, 80, 0
9, 71970, Note_on_c, 7, 78, 105
9, 71982, Note_on_c, 7, 78, 0
9, 71985, Note_on_c, 7, 80, 127
9, 71997, Note_on_c, 7, 80, 0
9, 72000, Note_on_c, 7, 76, 127
9, 72048, Note_on_c, 7, 76, 0
9, 72060, Note_on_c, 7, 83, 127
9, 72060, Note_on_c, 7, 80, 118
9, 72108, Note_on_c, 7, 80, 0
9, 72108, Note_on_c, 7, 83, 0
9, 72120, Note_on_c, 7, 80, 103
9, 72120, Note_on_c, 7, 83, 127
9, 72168, Note_on_c, 7, 83, 0
9, 72168, Note_on_c, 7, 80, 0
9, 72180, Note_on_c, 7, 80, 121
9, 72180, Note_on_c, 7, 83, 127
9, 72228, Note_on_c, 7, 83, 0
9, 72228, Note_on_c, 7, 80, 0
9, 72240, Note_on_c, 7, 88, 108
9, 72240, Note_on_c, 7, 83, 104
9, 72288, Note_on_c, 7, 83, 0
9, 72288, Note_on_c, 7, 88, 0
9, 72300, Note_on_c, 7, 83, 127
9, 72300, Note_on_c, 7, 88, 116
9, 72348, Note_on_c, 7, 88, 0
9, 72348, Note_on_c, 7, 83, 0
9, 72360, Note_on_c, 7, 88, 107
9, 72360, Note_on_c, 7, 83, 123
9, 72408, Note_on_c, 7, 83, 0
9, 72408, Note_on_c, 7, 88, 0
9, 72420, Note_on_c, 7, 92, 101
9, 72420, Note_on_c, 7, 88, 105
9, 72468, Note_on_c, 7, 88, 0
9, 72468, Note_on_c, 7, 92, 0
9, 72480, Note_on_c, 7, 88, 109
9, 72480, Note_on_c, 7, 92, 99
9, 72528, Note_on_c, 7, 92, 0
9, 72528, Note_on_c, 7, 88, 0
9, 72540, Note_on_c, 7, 92, 105
9, 72540, Note_on_c, 7, 88, 111
9, 72588, Note_on_c, 7, 88, 0
9, 72588, Note_on_c, 7, 92, 0
9, 72600, Note_on_c, 7, 88, 112
9, 72600, Note_on_c, 7, 92, 107
9, 72648, Note_on_c, 7, 92, 0
9, 72648, Note_on_c, 7, 88, 0
9, 72660, Note_on_c, 7, 88, 112
9, 72660, Note_on_c, 7, 92, 113
9, 72708, Note_on_c, 7, 92, 0
9, 72708, Note_on_c, 7, 88, 0
9, 72720, Note_on_c, 7, 95, 127
9, 72744, Note_on_c, 7, 95, 0
9, 72750, Note_on_c, 7, 93, 127
9, 72774, Note_on_c, 7, 93, 0
9, 72780, Note_on_c, 7, 92, 115
9, 72804, Note_on_c, 7, 92, 0
9, 72810, Note_on_c, 7, 90, 99
9, 72834, Note_on_c, 7, 90, 0
9, 72840, Note_on_c, 7, 88, 123
9, 72864, Note_on_c, 7, 88, 0
9, 72870, Note_on_c, 7, 87, 123
9, 72894, Note_on_c, 7, 87, 0
9, 72900, Note_on_c, 7, 85, 123
9, 72924, Note_on_c, 7, 85, 0
9, 72930, Note_on_c, 7, 83, 127
9, 72954, Note_on_c, 7, 83, 0
9, 72960, Note_on_c, 7, 81, 118
9, 72984, Note_on_c, 7, 81, 0
9, 72990, Note_on_c, 7, 80, 101
9, 73014, Note_on_c, 7, 80, 0
9, 73020, Note_on_c, 7, 78, 113
9, 73036, Note_on_c, 7, 78, 0
9, 73040, Note_on_c, 7, 76, 127
9, 73056, Note_on_c, 7, 76, 0
9, 73060, Note_on_c, 7, 75, 113
9, 73076, Note_on_c, 7, 75, 0
9, 73080, Note_on_c, 7, 73, 107
9, 73104, Note_on_c, 7, 73, 0
9, 73110, Note_on_c, 7, 71, 127
9, 73134, Note_on_c, 7, 71, 0
9, 73140, Note_on_c, 7, 69, 127
9, 73164, Note_on_c, 7, 69, 0
9, 73170, Note_on_c, 7, 68, 126
9, 73194, Note_on_c, 7, 68, 0
9, 73200, Note_on_c, 7, 66, 118
9, 73224, Note_on_c, 7, 66, 0
9, 73230, Note_on_c, 7, 64, 127
9, 73254, Note_on_c, 7, 64, 0
9, 73260, Note_on_c, 7, 63, 127
9, 73276, Note_on_c, 7, 63, 0
9, 73280, Note_on_c, 7, 61, 121
9, 73296, Note_on_c, 7, 61, 0
9, 73300, Note_on_c, 7, 59, 127
9, 73316, Note_on_c, 7, 59, 0
9, 73320, Note_on_c, 7, 58, 115
9, 73336, Note_on_c, 7, 58, 0
9, 73340, Note_on_c, 7, 59, 117
9, 73356, Note_on_c, 7, 59, 0
9, 73360, Note_on_c, 7, 61, 118
9, 73376, Note_on_c, 7, 61, 0
9, 73380, Note_on_c, 7, 62, 127
9, 73404, Note_on_c, 7, 62, 0
9, 73410, Note_on_c, 7, 63, 127
9, 73434, Note_on_c, 7, 63, 0
9, 73440, Note_on_c, 7, 64, 127
9, 73488, Note_on_c, 7, 64, 0
9, 73500, Note_on_c, 7, 80, 90
9, 73500, Note_on_c, 7, 83, 127
9, 73548, Note_on_c, 7, 83, 0
9, 73548, Note_on_c, 7, 80, 0
9, 73560, Note_on_c, 7, 80, 96
9, 73560, Note_on_c, 7, 83, 127
9, 73608, Note_on_c, 7, 83, 0
9, 73608, Note_on_c, 7, 80, 0
9, 73620, Note_on_c, 7, 83, 127
9, 73620, Note_on_c, 7, 80, 88
9, 73668, Note_on_c, 7, 80, 0
9, 73668, Note_on_c, 7, 83, 0
9, 73680, Note_on_c, 7, 88, 108
9, 73680, Note_on_c, 7, 83, 112
9, 73728, Note_on_c, 7, 83, 0
9, 73728, Note_on_c, 7, 88, 0
9, 73740, Note_on_c, 7, 88, 120
9, 73740, Note_on_c, 7, 83, 112
9, 73788, Note_on_c, 7, 83, 0
9, 73788, Note_on_c, 7, 88, 0
9, 73800, Note_on_c, 7, 83, 127
9, 73800, Note_on_c, 7, 88, 123
9, 73848, Note_on_c, 7, 88, 0
9, 73848, Note_on_c, 7, 83, 0
9, 73860, Note_on_c, 7, 88, 107
9, 73860, Note_on_c, 7, 92, 86
9, 73908, Note_on_c, 7, 92, 0
9, 73908, Note_on_c, 7, 88, 0
9, 73920, Note_on_c, 7, 88, 114
9, 73920, Note_on_c, 7, 92, 93
9, 73968, Note_on_c, 7, 92, 0
9, 73968, Note_on_c, 7, 88, 0
9, 73980, Note_on_c, 7, 88, 105
9, 73980, Note_on_c, 7, 92, 97
9, 74028, Note_on_c, 7, 92, 0
9, 74028, Note_on_c, 7, 88, 0
9, 74040, Note_on_c, 7, 88, 109
9, 74040, Note_on_c, 7, 92, 97
9, 74088, Note_on_c, 7, 92, 0
9, 74088, Note_on_c, 7, 88, 0
9, 74100, Note_on_c, 7, 88, 123
9, 74100, Note_on_c, 7, 92, 111
9, 74148, Note_on_c, 7, 92, 0
9, 74148, Note_on_c, 7, 88, 0
9, 74160, Note_on_c, 7, 100, 127
9, 74176, Note_on_c, 7, 100, 0
9, 74180, Note_on_c, 7, 99, 115
9, 74196, Note_on_c, 7, 99, 0
9, 74200, Note_on_c, 7, 97, 103
9, 74216, Note_on_c, 7, 97, 0
9, 74220, Note_on_c, 7, 95, 127
9, 74236, Note_on_c, 7, 95, 0
9, 74240, Note_on_c, 7, 93, 127
9, 74256, Note_on_c, 7, 93, 0
9, 74260, Note_on_c, 7, 92, 99
9, 74276, Note_on_c, 7, 92, 0
9, 74280, Note_on_c, 7, 90, 93
9, 74296, Note_on_c, 7, 90, 0
9, 74300, Note_on_c, 7, 88, 127
9, 74316, Note_on_c, 7, 88, 0
9, 74320, Note_on_c, 7, 87, 123
9, 74336, Note_on_c, 7, 87, 0
9, 74340, Note_on_c, 7, 85, 127
9, 74356, Note_on_c, 7, 85, 0
9, 74360, Note_on_c, 7, 83, 120
9, 74376, Note_on_c, 7, 83, 0
9, 74380, Note_on_c, 7, 81, 127
9, 74396, Note_on_c, 7, 81, 0
9, 74400, Note_on_c, 7, 80, 91
9, 74416, Note_on_c, 7, 80, 0
9, 74420, Note_on_c, 7, 78, 118
9, 74436, Note_on_c, 7, 78, 0
9, 74440, Note_on_c, 7, 76, 127
9, 74456, Note_on_c, 7, 76, 0
9, 74460, Note_on_c, 7, 75, 113
9, 74476, Note_on_c, 7, 75, 0
9, 74480, Note_on_c, 7, 73, 115
9, 74496, Note_on_c, 7, 73, 0
9, 74500, Note_on_c, 7, 71, 127
9, 74516, Note_on_c, 7, 71, 0
9, 74520, Note_on_c, 7, 69, 107
9, 74536, Note_on_c, 7, 69, 0
9, 74540, Note_on_c, 7, 68, 94
9, 74556, Note_on_c, 7, 68, 0
9, 74560, Note_on_c, 7, 66, 123
9, 74576, Note_on_c, 7, 66, 0
9, 74580, Note_on_c, 7, 64, 127
9, 74596, Note_on_c, 7, 64, 0
9, 74600, Note_on_c, 7, 63, 127
9, 74616, Note_on_c, 7, 63, 0
9, 74620, Note_on_c, 7, 61, 107
9, 74636, Note_on_c, 7, 61, 0
9, 74640, Note_on_c, 7, 59, 127
9, 74656, Note_on_c, 7, 59, 0
9, 74660, Note_on_c, 7, 57, 127
9, 74676, Note_on_c, 7, 57, 0
9, 74680, Note_on_c, 7, 56, 97
9, 74696, Note_on_c, 7, 56, 0
9, 74700, Note_on_c, 7, 54, 118
9, 74716, Note_on_c, 7, 54, 0
9, 74720, Note_on_c, 7, 52, 127
9, 74736, Note_on_c, 7, 52, 0
9, 74740, Note_on_c, 7, 52, 126
9, 74756, Note_on_c, 7, 52, 0
9, 74760, Note_on_c, 7, 49, 123
9, 74784, Note_on_c, 7, 49, 0
9, 74790, Note_on_c, 7, 47, 127
9, 74814, Note_on_c, 7, 47, 0
9, 74820, Note_on_c, 7, 49, 113
9, 74844, Note_on_c, 7, 49, 0
9, 74850, Note_on_c, 7, 51, 111
9, 74874, Note_on_c, 7, 51, 0
9, 74880, Note_on_c, 7, 52, 127
9, 74976, Note_on_c, 7, 52, 0
9, 76320, Note_on_c, 7, 64, 121
9, 76344, Note_on_c, 7, 64, 0
9, 76350, Note_on_c, 7, 71, 127
9, 76374, Note_on_c, 7, 71, 0
9, 76380, Note_on_c, 7, 79, 99
9, 76404, Note_on_c, 7, 79, 0
9, 76410, Note_on_c, 7, 71, 127
9, 76434, Note_on_c, 7, 71, 0
9, 76440, Note_on_c, 7, 64, 116
9, 76464, Note_on_c, 7, 64, 0
9, 76470, Note_on_c, 7, 71, 120
9, 76494, Note_on_c, 7, 71, 0
9, 76500, Note_on_c, 7, 64, 125
9, 76524, Note_on_c, 7, 64, 0
9, 76530, Note_on_c, 7, 71, 112
9, 76554, Note_on_c, 7, 71, 0
9, 76560, Note_on_c, 7, 79, 115
9, 76584, Note_on_c, 7, 79, 0
9, 76590, Note_on_c, 7, 71, 127
9, 76614, Note_on_c, 7, 71, 0
9, 76620, Note_on_c, 7, 64, 114
9, 76644, Note_on_c, 7, 64, 0
9, 76650, Note_on_c, 7, 71, 121
9, 76674, Note_on_c, 7, 71, 0
9, 76680, Note_on_c, 7, 64, 111
9, 76704, Note_on_c, 7, 64, 0
9, 76710, Note_on_c, 7, 71, 121
9, 76734, Note_on_c, 7, 71, 0
9, 76740, Note_on_c, 7, 79, 104
9, 76764, Note_on_c, 7, 79, 0
9, 76770, Note_on_c, 7, 71, 127
9, 76794, Note_on_c, 7, 71, 0
9, 76800, Note_on_c, 7, 64, 120
9, 76824, Note_on_c, 7, 64, 0
9, 76830, Note_on_c, 7, 71, 127
9, 76854, Note_on_c, 7, 71, 0
9, 76860, Note_on_c, 7, 64, 118
9, 76884, Note_on_c, 7, 64, 0
9, 76890, Note_on_c, 7, 71, 127
9, 76914, Note_on_c, 7, 71, 0
9, 76920, Note_on_c, 7, 79, 125
9, 76944, Note_on_c, 7, 79, 0
9, 76950, Note_on_c, 7, 71, 127
9, 76974, Note_on_c, 7, 71, 0
9, 76980, Note_on_c, 7, 64, 105
9, 77004, Note_on_c, 7, 64, 0
9, 77010, Note_on_c, 7, 71, 104
9, 77034, Note_on_c, 7, 71, 0
9, 77040, Note_on_c, 7, 69, 107
9, 77064, Note_on_c, 7, 69, 0
9, 77070, Note_on_c, 7, 76, 110
9, 77094, Note_on_c, 7, 76, 0
9, 77100, Note_on_c, 7, 84, 123
9, 77124, Note_on_c, 7, 84, 0
9, 77130, Note_on_c, 7, 76, 125
9, 77154, Note_on_c, 7, 76, 0
9, 77160, Note_on_c, 7, 69, 113
9, 77184, Note_on_c, 7, 69, 0
9, 77190, Note_on_c, 7, 76, 120
9, 77214, Note_on_c, 7, 76, 0
9, 77220, Note_on_c, 7, 69, 114
9, 77244, Note_on_c, 7, 69, 0
9, 77250, Note_on_c, 7, 76, 127
9, 77274, Note_on_c, 7, 76, 0
9, 77280, Note_on_c, 7, 84, 118
9, 77304, Note_on_c, 7, 84, 0
9, 77310, Note_on_c, 7, 76, 114
9, 77334, Note_on_c, 7, 76, 0
9, 77340, Note_on_c, 7, 69, 111
9, 77364, Note_on_c, 7, 69, 0
9, 77370, Note_on_c, 7, 76, 123
9, 77394, Note_on_c, 7, 76, 0
9, 77400, Note_on_c, 7, 69, 117
9, 77424, Note_on_c, 7, 69, 0
9, 77430, Note_on_c, 7, 76, 127
9, 77454, Note_on_c, 7, 76, 0
9, 77460, Note_on_c, 7, 84, 110
9, 77484, Note_on_c, 7, 84, 0
9, 77490, Note_on_c, 7, 76, 125
9, 77514, Note_on_c, 7, 76, 0
9, 77520, Note_on_c, 7, 69, 117
9, 77544, Note_on_c, 7, 69, 0
9, 77550, Note_on_c, 7, 76, 123
9, 77574, Note_on_c, 7, 76, 0
9, 77580, Note_on_c, 7, 69, 109
9, 77604, Note_on_c, 7, 69, 0
9, 77610, Note_on_c, 7, 76, 120
9, 77634, Note_on_c, 7, 76, 0
9, 77640, Note_on_c, 7, 84, 125
9, 77664, Note_on_c, 7, 84, 0
9, 77670, Note_on_c, 7, 76, 127
9, 77694, Note_on_c, 7, 76, 0
9, 77700, Note_on_c, 7, 69, 108
9, 77724, Note_on_c, 7, 69, 0
9, 77730, Note_on_c, 7, 76, 120
9, 77754, Note_on_c, 7, 76, 0
9, 77760, Note_on_c, 7, 69, 112
9, 77784, Note_on_c, 7, 69, 0
9, 77790, Note_on_c, 7, 74, 127
9, 77814, Note_on_c, 7, 74, 0
9, 77820, Note_on_c, 7, 84, 123
9, 77844, Note_on_c, 7, 84, 0
9, 77850, Note_on_c, 7, 74, 127
9, 77874, Note_on_c, 7, 74, 0
9, 77880, Note_on_c, 7, 69, 98
9, 77904, Note_on_c, 7, 69, 0
9, 77910, Note_on_c, 7, 74, 127
9, 77934, Note_on_c, 7, 74, 0
9, 77940, Note_on_c, 7, 67, 107
9, 77964, Note_on_c, 7, 67, 0
9, 77970, Note_on_c, 7, 74, 127
9, 77994, Note_on_c, 7, 74, 0
9, 78000, Note_on_c, 7, 82, 101
9, 78024, Note_on_c, 7, 82, 0
9, 78030, Note_on_c, 7, 74, 127
9, 78054, Note_on_c, 7, 74, 0
9, 78060, Note_on_c, 7, 70, 107
9, 78084, Note_on_c, 7, 70, 0
9, 78090, Note_on_c, 7, 74, 127
9, 78114, Note_on_c, 7, 74, 0
9, 78120, Note_on_c, 7, 67, 104
9, 78144, Note_on_c, 7, 67, 0
9, 78150, Note_on_c, 7, 72, 127
9, 78174, Note_on_c, 7, 72, 0
9, 78180, Note_on_c, 7, 82, 107
9, 78204, Note_on_c, 7, 82, 0
9, 78210, Note_on_c, 7, 72, 127
9, 78234, Note_on_c, 7, 72, 0
9, 78240, Note_on_c, 7, 67, 116
9, 78264, Note_on_c, 7, 67, 0
9, 78270, Note_on_c, 7, 72, 127
9, 78294, Note_on_c, 7, 72, 0
9, 78300, Note_on_c, 7, 65, 109
9, 78324, Note_on_c, 7, 65, 0
9, 78330, Note_on_c, 7, 72, 114
9, 78354, Note_on_c, 7, 72, 0
9, 78360, Note_on_c, 7, 80, 99
9, 78384, Note_on_c, 7, 80, 0
9, 78390, Note_on_c, 7, 72, 127
9, 78414, Note_on_c, 7, 72, 0
9, 78420, Note_on_c, 7, 65, 106
9, 78444, Note_on_c, 7, 65, 0
9, 78450, Note_on_c, 7, 72, 127
9, 78474, Note_on_c, 7, 72, 0
9, 78480, Note_on_c, 7, 65, 120
9, 78504, Note_on_c, 7, 65, 0
9, 78510, Note_on_c, 7, 72, 125
9, 78534, Note_on_c, 7, 72, 0
9, 78540, Note_on_c, 7, 80, 109
9, 78564, Note_on_c, 7, 80, 0
9, 78570, Note_on_c, 7, 72, 109
9, 78594, Note_on_c, 7, 72, 0
9, 78600, Note_on_c, 7, 65, 50
9, 78624, Note_on_c, 7, 65, 0
9, 78630, Note_on_c, 7, 72, 127
9, 78654, Note_on_c, 7, 72, 0
9, 78660, Note_on_c, 7, 65, 113
9, 78684, Note_on_c, 7, 65, 0
9, 78690, Note_on_c, 7, 72, 127
9, 78714, Note_on_c, 7, 72, 0
9, 78720, Note_on_c, 7, 80, 113
9, 78744, Note_on_c, 7, 80, 0
9, 78750, Note_on_c, 7, 72, 127
9, 78774, Note_on_c, 7, 72, 0
9, 78780, Note_on_c, 7, 65, 103
9, 78804, Note_on_c, 7, 65, 0
9, 78810, Note_on_c, 7, 72, 127
9, 78834, Note_on_c, 7, 72, 0
9, 78840, Note_on_c, 7, 65, 105
9, 78864, Note_on_c, 7, 65, 0
9, 78870, Note_on_c, 7, 74, 127
9, 78894, Note_on_c, 7, 74, 0
9, 78900, Note_on_c, 7, 80, 125
9, 78924, Note_on_c, 7, 80, 0
9, 78930, Note_on_c, 7, 74, 127
9, 78954, Note_on_c, 7, 74, 0
9, 78960, Note_on_c, 7, 65, 107
9, 78984, Note_on_c, 7, 65, 0
9, 78990, Note_on_c, 7, 74, 127
9, 79014, Note_on_c, 7, 74, 0
9, 79020, Note_on_c, 7, 77, 127
9, 79044, Note_on_c, 7, 77, 0
9, 79050, Note_on_c, 7, 86, 127
9, 79074, Note_on_c, 7, 86, 0
9, 79080, Note_on_c, 7, 92, 94
9, 79104, Note_on_c, 7, 92, 0
9, 79110, Note_on_c, 7, 86, 117
9, 79134, Note_on_c, 7, 86, 0
9, 79140, Note_on_c, 7, 77, 105
9, 79164, Note_on_c, 7, 77, 0
9, 79170, Note_on_c, 7, 86, 101
9, 79194, Note_on_c, 7, 86, 0
9, 79200, Note_on_c, 7, 92, 97
9, 79224, Note_on_c, 7, 92, 0
9, 79230, Note_on_c, 7, 86, 127
9, 79254, Note_on_c, 7, 86, 0
9, 79260, Note_on_c, 7, 77, 107
9, 79284, Note_on_c, 7, 77, 0
9, 79290, Note_on_c, 7, 86, 127
9, 79314, Note_on_c, 7, 86, 0
9, 79320, Note_on_c, 7, 92, 99
9, 79344, Note_on_c, 7, 92, 0
9, 79350, Note_on_c, 7, 86, 127
9, 79374, Note_on_c, 7, 86, 0
9, 79380, Note_on_c, 7, 77, 96
9, 79404, Note_on_c, 7, 77, 0
9, 79410, Note_on_c, 7, 74, 118
9, 79434, Note_on_c, 7, 74, 0
9, 79440, Note_on_c, 7, 65, 112
9, 79464, Note_on_c, 7, 65, 0
9, 79470, Note_on_c, 7, 74, 125
9, 79494, Note_on_c, 7, 74, 0
9, 79500, Note_on_c, 7, 80, 105
9, 79524, Note_on_c, 7, 80, 0
9, 79530, Note_on_c, 7, 74, 127
9, 79554, Note_on_c, 7, 74, 0
9, 79560, Note_on_c, 7, 65, 127
9, 79584, Note_on_c, 7, 65, 0
9, 79590, Note_on_c, 7, 62, 127
9, 79614, Note_on_c, 7, 62, 0
9, 79620, Note_on_c, 7, 53, 117
9, 79644, Note_on_c, 7, 53, 0
9, 79650, Note_on_c, 7, 62, 121
9, 79674, Note_on_c, 7, 62, 0
9, 79680, Note_on_c, 7, 65, 127
9, 79704, Note_on_c, 7, 65, 0
9, 79710, Note_on_c, 7, 62, 120
9, 79734, Note_on_c, 7, 62, 0
9, 80100, Note_on_c, 7, 53, 123
9, 80124, Note_on_c, 7, 53, 0
9, 80130, Note_on_c, 7, 62, 127
9, 80154, Note_on_c, 7, 62, 0
9, 80160, Note_on_c, 7, 68, 93
9, 80184, Note_on_c, 7, 68, 0
9, 80190, Note_on_c, 7, 62, 127
9, 80214, Note_on_c, 7, 62, 0
9, 80220, Note_on_c, 7, 53, 118
9, 80244, Note_on_c, 7, 53, 0
9, 80250, Note_on_c, 7, 62, 123
9, 80274, Note_on_c, 7, 62, 0
9, 80280, Note_on_c, 7, 65, 113
9, 80304, Note_on_c, 7, 65, 0
9, 80310, Note_on_c, 7, 74, 113
9, 80334, Note_on_c, 7, 74, 0
9, 80340, Note_on_c, 7, 80, 105
9, 80364, Note_on_c, 7, 80, 0
9, 80370, Note_on_c, 7, 74, 127
9, 80394, Note_on_c, 7, 74, 0
9, 80400, Note_on_c, 7, 65, 111
9, 80424, Note_on_c, 7, 65, 0
9, 80430, Note_on_c, 7, 74, 127
9, 80454, Note_on_c, 7, 74, 0
9, 80460, Note_on_c, 7, 77, 101
9, 80484, Note_on_c, 7, 77, 0
9, 80490, Note_on_c, 7, 86, 127
9, 80514, Note_on_c, 7, 86, 0
9, 80520, Note_on_c, 7, 92, 105
9, 80544, Note_on_c, 7, 92, 0
9, 80550, Note_on_c, 7, 86, 127
9, 80574, Note_on_c, 7, 86, 0
9, 80580, Note_on_c, 7, 77, 96
9, 80604, Note_on_c, 7, 77, 0
9, 80610, Note_on_c, 7, 86, 107
9, 80634, Note_on_c, 7, 86, 0
9, 80640, Note_on_c, 7, 92, 121
9, 80664, Note_on_c, 7, 92, 0
9, 80670, Note_on_c, 7, 86, 127
9, 80694, Note_on_c, 7, 86, 0
9, 80700, Note_on_c, 7, 77, 96
9, 80724, Note_on_c, 7, 77, 0
9, 80730, Note_on_c, 7, 86, 114
9, 80754, Note_on_c, 7, 86, 0
9, 80760, Note_on_c, 7, 92, 107
9, 80784, Note_on_c, 7, 92, 0
9, 80790, Note_on_c, 7, 86, 127
9, 80814, Note_on_c, 7, 86, 0
9, 80820, Note_on_c, 7, 77, 127
9, 80844, Note_on_c, 7, 77, 0
9, 80850, Note_on_c, 7, 74, 127
9, 80874, Note_on_c, 7, 74, 0
9, 80880, Note_on_c, 7, 65, 105
9, 80904, Note_on_c, 7, 65, 0
9, 80910, Note_on_c, 7, 74, 127
9, 80934, Note_on_c, 7, 74, 0
9, 80940, Note_on_c, 7, 80, 109
9, 80964, Note_on_c, 7, 80, 0
9, 80970, Note_on_c, 7, 74, 127
9, 80994, Note_on_c, 7, 74, 0
9, 81000, Note_on_c, 7, 65, 127
9, 81024, Note_on_c, 7, 65, 0
9, 81030, Note_on_c, 7, 62, 127
9, 81054, Note_on_c, 7, 62, 0
9, 81060, Note_on_c, 7, 53, 127
9, 81084, Note_on_c, 7, 53, 0
9, 81090, Note_on_c, 7, 62, 127
9, 81114, Note_on_c, 7, 62, 0
9, 81120, Note_on_c, 7, 68, 126
9, 81144, Note_on_c, 7, 68, 0
9, 81150, Note_on_c, 7, 62, 127
9, 81174, Note_on_c, 7, 62, 0
9, 81540, Note_on_c, 7, 53, 99
9, 81564, Note_on_c, 7, 53, 0
9, 81570, Note_on_c, 7, 62, 127
9, 81594, Note_on_c, 7, 62, 0
9, 81600, Note_on_c, 7, 68, 115
9, 81624, Note_on_c, 7, 68, 0
9, 81630, Note_on_c, 7, 62, 123
9, 81654, Note_on_c, 7, 62, 0
9, 81660, Note_on_c, 7, 53, 105
9, 81684, Note_on_c, 7, 53, 0
9, 81690, Note_on_c, 7, 62, 127
9, 81714, Note_on_c, 7, 62, 0
9, 81720, Note_on_c, 7, 65, 116
9, 81744, Note_on_c, 7, 65, 0
9, 81750, Note_on_c, 7, 74, 120
9, 81774, Note_on_c, 7, 74, 0
9, 81780, Note_on_c, 7, 80, 118
9, 81804, Note_on_c, 7, 80, 0
9, 81810, Note_on_c, 7, 74, 127
9, 81834, Note_on_c, 7, 74, 0
9, 81840, Note_on_c, 7, 65, 97
9, 81864, Note_on_c, 7, 65, 0
9, 81870, Note_on_c, 7, 74, 127
9, 81894, Note_on_c, 7, 74, 0
9, 81900, Note_on_c, 7, 77, 118
9, 81924, Note_on_c, 7, 77, 0
9, 81930, Note_on_c, 7, 86, 127
9, 81954, Note_on_c, 7, 86, 0
9, 81960, Note_on_c, 7, 92, 121
9, 81984, Note_on_c, 7, 92, 0
9, 81990, Note_on_c, 7, 86, 127
9, 82014, Note_on_c, 7, 86, 0
9, 82020, Note_on_c, 7, 77, 102
9, 82044, Note_on_c, 7, 77, 0
9, 82050, Note_on_c, 7, 86, 99
9, 82074, Note_on_c, 7, 86, 0
9, 82080, Note_on_c, 7, 92, 111
9, 82104, Note_on_c, 7, 92, 0
9, 82110, Note_on_c, 7, 86, 127
9, 82134, Note_on_c, 7, 86, 0
9, 82140, Note_on_c, 7, 77, 99
9, 82164, Note_on_c, 7, 77, 0
9, 82170, Note_on_c, 7, 86, 127
9, 82194, Note_on_c, 7, 86, 0
9, 82200, Note_on_c, 7, 92, 109
9, 82224, Note_on_c, 7, 92, 0
9, 82230, Note_on_c, 7, 86, 127
9, 82254, Note_on_c, 7, 86, 0
9, 82260, Note_on_c, 7, 77, 98
9, 82284, Note_on_c, 7, 77, 0
9, 82290, Note_on_c, 7, 86, 109
9, 82314, Note_on_c, 7, 86, 0
9, 82320, Note_on_c, 7, 92, 121
9, 82344, Note_on_c, 7, 92, 0
9, 82350, Note_on_c, 7, 86, 127
9, 82374, Note_on_c, 7, 86, 0
9, 82380, Note_on_c, 7, 77, 103
9, 82404, Note_on_c, 7, 77, 0
9, 82410, Note_on_c, 7, 86, 117
9, 82434, Note_on_c, 7, 86, 0
9, 82440, Note_on_c, 7, 92, 118
9, 82464, Note_on_c, 7, 92, 0
9, 82470, Note_on_c, 7, 86, 127
9, 82494, Note_on_c, 7, 86, 0
9, 82500, Note_on_c, 7, 77, 101
9, 82524, Note_on_c, 7, 77, 0
9, 82530, Note_on_c, 7, 86, 127
9, 82554, Note_on_c, 7, 86, 0
9, 82560, Note_on_c, 7, 92, 111
9, 82584, Note_on_c, 7, 92, 0
9, 82590, Note_on_c, 7, 86, 125
9, 82614, Note_on_c, 7, 86, 0
9, 82620, Note_on_c, 7, 77, 107
9, 82644, Note_on_c, 7, 77, 0
9, 82650, Note_on_c, 7, 86, 98
9, 82674, Note_on_c, 7, 86, 0
9, 82680, Note_on_c, 7, 92, 121
9, 82704, Note_on_c, 7, 92, 0
9, 82710, Note_on_c, 7, 86, 127
9, 82734, Note_on_c, 7, 86, 0
9, 82740, Note_on_c, 7, 77, 93
9, 82764, Note_on_c, 7, 77, 0
9, 82770, Note_on_c, 7, 86, 92
9, 82794, Note_on_c, 7, 86, 0
9, 82800, Note_on_c, 7, 92, 113
9, 82824, Note_on_c, 7, 92, 0
9, 82830, Note_on_c, 7, 89, 127
9, 82854, Note_on_c, 7, 89, 0
9, 82860, Note_on_c, 7, 86, 127
9, 82884, Note_on_c, 7, 86, 0
9, 82890, Note_on_c, 7, 83, 107
9, 82914, Note_on_c, 7, 83, 0
9, 82920, Note_on_c, 7, 91, 108
9, 82944, Note_on_c, 7, 91, 0
9, 82950, Note_on_c, 7, 82, 89
9, 82974, Note_on_c, 7, 82, 0
9, 82980, Note_on_c, 7, 90, 123
9, 83004, Note_on_c, 7, 90, 0
9, 83010, Note_on_c, 7, 87, 127
9, 83034, Note_on_c, 7, 87, 0
9, 83040, Note_on_c, 7, 84, 127
9, 83064, Note_on_c, 7, 84, 0
9, 83070, Note_on_c, 7, 81, 108
9, 83094, Note_on_c, 7, 81, 0
9, 83100, Note_on_c, 7, 89, 114
9, 83124, Note_on_c, 7, 89, 0
9, 83130, Note_on_c, 7, 80, 93
9, 83154, Note_on_c, 7, 80, 0
9, 83160, Note_on_c, 7, 88, 123
9, 83184, Note_on_c, 7, 88, 0
9, 83190, Note_on_c, 7, 79, 127
9, 83214, Note_on_c, 7, 79, 0
9, 83220, Note_on_c, 7, 87, 115
9, 83244, Note_on_c, 7, 87, 0
9, 83250, Note_on_c, 7, 78, 81
9, 83274, Note_on_c, 7, 78, 0
9, 83280, Note_on_c, 7, 86, 127
9, 83304, Note_on_c, 7, 86, 0
9, 83310, Note_on_c, 7, 77, 116
9, 83334, Note_on_c, 7, 77, 0
9, 83340, Note_on_c, 7, 85, 118
9, 83364, Note_on_c, 7, 85, 0
9, 83370, Note_on_c, 7, 76, 127
9, 83394, Note_on_c, 7, 76, 0
9, 83400, Note_on_c, 7, 84, 127
9, 83424, Note_on_c, 7, 84, 0
9, 83430, Note_on_c, 7, 75, 111
9, 83454, Note_on_c, 7, 75, 0
9, 83460, Note_on_c, 7, 83, 127
9, 83484, Note_on_c, 7, 83, 0
9, 83490, Note_on_c, 7, 74, 127
9, 83514, Note_on_c, 7, 74, 0
9, 83520, Note_on_c, 7, 83, 127
9, 83544, Note_on_c, 7, 83, 0
9, 83550, Note_on_c, 7, 82, 100
9, 83574, Note_on_c, 7, 82, 0
9, 83580, Note_on_c, 7, 83, 125
9, 83604, Note_on_c, 7, 83, 0
9, 83610, Note_on_c, 7, 82, 100
9, 83634, Note_on_c, 7, 82, 0
9, 83640, Note_on_c, 7, 83, 127
9, 83664, Note_on_c, 7, 83, 0
9, 83670, Note_on_c, 7, 82, 105
9, 83694, Note_on_c, 7, 82, 0
9, 83700, Note_on_c, 7, 83, 127
9, 83724, Note_on_c, 7, 83, 0
9, 83730, Note_on_c, 7, 82, 105
9, 83754, Note_on_c, 7, 82, 0
9, 83760, Note_on_c, 7, 83, 127
9, 83784, Note_on_c, 7, 83, 0
9, 83790, Note_on_c, 7, 82, 109
9, 83814, Note_on_c, 7, 82, 0
9, 83820, Note_on_c, 7, 83, 125
9, 83844, Note_on_c, 7, 83, 0
9, 83850, Note_on_c, 7, 82, 103
9, 83874, Note_on_c, 7, 82, 0
9, 83880, Note_on_c, 7, 83, 127
9, 83886, Control_c, 7, 7, 109
9, 83904, Note_on_c, 7, 83, 0
9, 83906, Control_c, 7, 7, 108
9, 83910, Note_on_c, 7, 82, 107
9, 83926, Control_c, 7, 7, 107
9, 83934, Note_on_c, 7, 82, 0
9, 83940, Note_on_c, 7, 83, 125
9, 83946, Control_c, 7, 7, 106
9, 83964, Note_on_c, 7, 83, 0
9, 83966, Control_c, 7, 7, 105
9, 83970, Note_on_c, 7, 82, 103
9, 83986, Control_c, 7, 7, 104
9, 83994, Note_on_c, 7, 82, 0
9, 84000, Note_on_c, 7, 83, 125
9, 84006, Control_c, 7, 7, 103
9, 84024, Note_on_c, 7, 83, 0
9, 84026, Control_c, 7, 7, 102
9, 84030, Note_on_c, 7, 82, 103
9, 84046, Control_c, 7, 7, 101
9, 84054, Note_on_c, 7, 82, 0
9, 84060, Note_on_c, 7, 83, 127
9, 84066, Control_c, 7, 7, 100
9, 84084, Note_on_c, 7, 83, 0
9, 84086, Control_c, 7, 7, 99
9, 84090, Note_on_c, 7, 82, 107
9, 84106, Control_c, 7, 7, 98
9, 84114, Note_on_c, 7, 82, 0
9, 84120, Note_on_c, 7, 83, 123
9, 84126, Control_c, 7, 7, 97
9, 84144, Note_on_c, 7, 83, 0
9, 84146, Control_c, 7, 7, 96
9, 84150, Note_on_c, 7, 82, 107
9, 84166, Control_c, 7, 7, 95
9, 84174, Note_on_c, 7, 82, 0
9, 84180, Note_on_c, 7, 83, 125
9, 84186, Control_c, 7, 7, 94
9, 84204, Note_on_c, 7, 83, 0
9, 84206, Control_c, 7, 7, 93
9, 84210, Note_on_c, 7, 82, 81
9, 84226, Control_c, 7, 7, 92
9, 84234, Note_on_c, 7, 82, 0
9, 84240, Note_on_c, 7, 82, 127
9, 84246, Control_c, 7, 7, 91
9, 84252, Note_on_c, 7, 82, 0
9, 84255, Note_on_c, 7, 83, 109
9, 84267, Note_on_c, 7, 83, 0
9, 84270, Note_on_c, 7, 82, 123
9, 84282, Note_on_c, 7, 82, 0
9, 84285, Note_on_c, 7, 83, 103
9, 84297, Note_on_c, 7, 83, 0
9, 84300, Note_on_c, 7, 82, 125
9, 84312, Note_on_c, 7, 82, 0
9, 84315, Note_on_c, 7, 83, 105
9, 84327, Note_on_c, 7, 83, 0
9, 84330, Note_on_c, 7, 82, 127
9, 84342, Note_on_c, 7, 82, 0
9, 84345, Note_on_c, 7, 83, 105
9, 84357, Note_on_c, 7, 83, 0
9, 84360, Note_on_c, 7, 82, 123
9, 84372, Note_on_c, 7, 82, 0
9, 84375, Note_on_c, 7, 83, 107
9, 84387, Note_on_c, 7, 83, 0
9, 84390, Note_on_c, 7, 82, 127
9, 84402, Note_on_c, 7, 82, 0
9, 84405, Note_on_c, 7, 83, 109
9, 84417, Note_on_c, 7, 83, 0
9, 84420, Note_on_c, 7, 82, 127
9, 84432, Note_on_c, 7, 82, 0
9, 84435, Note_on_c, 7, 83, 115
9, 84447, Note_on_c, 7, 83, 0
9, 84450, Note_on_c, 7, 82, 127
9, 84462, Note_on_c, 7, 82, 0
9, 84465, Note_on_c, 7, 83, 105
9, 84477, Note_on_c, 7, 83, 0
9, 84480, Note_on_c, 7, 82, 127
9, 84492, Note_on_c, 7, 82, 0
9, 84495, Note_on_c, 7, 83, 105
9, 84507, Note_on_c, 7, 83, 0
9, 84510, Note_on_c, 7, 82, 121
9, 84522, Note_on_c, 7, 82, 0
9, 84525, Note_on_c, 7, 83, 113
9, 84537, Note_on_c, 7, 83, 0
9, 84540, Note_on_c, 7, 82, 127
9, 84552, Note_on_c, 7, 82, 0
9, 84555, Note_on_c, 7, 83, 123
9, 84567, Note_on_c, 7, 83, 0
9, 84570, Note_on_c, 7, 82, 121
9, 84582, Note_on_c, 7, 82, 0
9, 84585, Note_on_c, 7, 83, 101
9, 84597, Note_on_c, 7, 83, 0
9, 84600, Note_on_c, 7, 82, 120
9, 84612, Note_on_c, 7, 82, 0
9, 84615, Note_on_c, 7, 83, 105
9, 84627, Note_on_c, 7, 83, 0
9, 84630, Note_on_c, 7, 82, 127
9, 84642, Note_on_c, 7, 82, 0
9, 84645, Note_on_c, 7, 83, 103
9, 84657, Note_on_c, 7, 83, 0
9, 84660, Note_on_c, 7, 82, 127
9, 84672, Note_on_c, 7, 82, 0
9, 84675, Note_on_c, 7, 83, 113
9, 84687, Note_on_c, 7, 83, 0
9, 84690, Note_on_c, 7, 82, 127
9, 84702, Note_on_c, 7, 82, 0
9, 84705, Note_on_c, 7, 83, 97
9, 84717, Note_on_c, 7, 83, 0
9, 84720, Note_on_c, 7, 82, 127
9, 84732, Note_on_c, 7, 82, 0
9, 84735, Note_on_c, 7, 83, 107
9, 84747, Note_on_c, 7, 83, 0
9, 84750, Note_on_c, 7, 82, 127
9, 84762, Note_on_c, 7, 82, 0
9, 84765, Note_on_c, 7, 83, 113
9, 84777, Note_on_c, 7, 83, 0
9, 84780, Note_on_c, 7, 82, 127
9, 84792, Note_on_c, 7, 82, 0
9, 84795, Note_on_c, 7, 83, 115
9, 84807, Note_on_c, 7, 83, 0
9, 84810, Note_on_c, 7, 82, 127
9, 84822, Note_on_c, 7, 82, 0
9, 84825, Note_on_c, 7, 83, 107
9, 84837, Note_on_c, 7, 83, 0
9, 84840, Note_on_c, 7, 82, 118
9, 84852, Note_on_c, 7, 82, 0
9, 84855, Note_on_c, 7, 83, 113
9, 84867, Note_on_c, 7, 83, 0
9, 84870, Note_on_c, 7, 82, 127
9, 84882, Note_on_c, 7, 82, 0
9, 84885, Note_on_c, 7, 83, 115
9, 84897, Note_on_c, 7, 83, 0
9, 84900, Note_on_c, 7, 82, 125
9, 84912, Note_on_c, 7, 82, 0
9, 84915, Note_on_c, 7, 83, 95
9, 84927, Note_on_c, 7, 83, 0
9, 84930, Note_on_c, 7, 82, 127
9, 84942, Note_on_c, 7, 82, 0
9, 84945, Note_on_c, 7, 83, 118
9, 84957, Note_on_c, 7, 83, 0
9, 84960, Note_on_c, 7, 82, 127
9, 84972, Note_on_c, 7, 82, 0
9, 84975, Note_on_c, 7, 84, 127
9, 84987, Note_on_c, 7, 84, 0
9, 84990, Note_on_c, 7, 82, 111
9, 85002, Note_on_c, 7, 82, 0
9, 85005, Note_on_c, 7, 84, 127
9, 85017, Note_on_c, 7, 84, 0
9, 85020, Note_on_c, 7, 82, 111
9, 85032, Note_on_c, 7, 82, 0
9, 85035, Note_on_c, 7, 84, 123
9, 85047, Note_on_c, 7, 84, 0
9, 85050, Note_on_c, 7, 82, 103
9, 85062, Note_on_c, 7, 82, 0
9, 85065, Note_on_c, 7, 84, 123
9, 85077, Note_on_c, 7, 84, 0
9, 85080, Note_on_c, 7, 82, 105
9, 85092, Note_on_c, 7, 82, 0
9, 85095, Note_on_c, 7, 84, 125
9, 85107, Note_on_c, 7, 84, 0
9, 85110, Note_on_c, 7, 82, 103
9, 85122, Note_on_c, 7, 82, 0
9, 85125, Note_on_c, 7, 84, 127
9, 85137, Note_on_c, 7, 84, 0
9, 85140, Note_on_c, 7, 82, 101
9, 85152, Note_on_c, 7, 82, 0
9, 85155, Note_on_c, 7, 84, 127
9, 85167, Note_on_c, 7, 84, 0
9, 85170, Note_on_c, 7, 82, 95
9, 85182, Note_on_c, 7, 82, 0
9, 85185, Note_on_c, 7, 84, 125
9, 85197, Note_on_c, 7, 84, 0
9, 85200, Note_on_c, 7, 82, 99
9, 85212, Note_on_c, 7, 82, 0
9, 85215, Note_on_c, 7, 84, 117
9, 85227, Note_on_c, 7, 84, 0
9, 85230, Note_on_c, 7, 82, 97
9, 85242, Note_on_c, 7, 82, 0
9, 85245, Note_on_c, 7, 84, 116
9, 85257, Note_on_c, 7, 84, 0
9, 85260, Note_on_c, 7, 82, 97
9, 85272, Note_on_c, 7, 82, 0
9, 85275, Note_on_c, 7, 84, 127
9, 85287, Note_on_c, 7, 84, 0
9, 85290, Note_on_c, 7, 82, 113
9, 85302, Note_on_c, 7, 82, 0
9, 85305, Note_on_c, 7, 84, 127
9, 85317, Note_on_c, 7, 84, 0
9, 85320, Note_on_c, 7, 82, 127
9, 85332, Note_on_c, 7, 82, 0
9, 85335, Note_on_c, 7, 84, 127
9, 85347, Note_on_c, 7, 84, 0
9, 85350, Note_on_c, 7, 82, 111
9, 85362, Note_on_c, 7, 82, 0
9, 85365, Note_on_c, 7, 84, 127
9, 85377, Note_on_c, 7, 84, 0
9, 85380, Note_on_c, 7, 82, 111
9, 85392, Note_on_c, 7, 82, 0
9, 85395, Note_on_c, 7, 84, 123
9, 85407, Note_on_c, 7, 84, 0
9, 85410, Note_on_c, 7, 82, 103
9, 85422, Note_on_c, 7, 82, 0
9, 85425, Note_on_c, 7, 84, 123
9, 85437, Note_on_c, 7, 84, 0
9, 85440, Note_on_c, 7, 82, 105
9, 85452, Note_on_c, 7, 82, 0
9, 85455, Note_on_c, 7, 84, 125
9, 85467, Note_on_c, 7, 84, 0
9, 85470, Note_on_c, 7, 82, 103
9, 85482, Note_on_c, 7, 82, 0
9, 85485, Note_on_c, 7, 84, 127
9, 85497, Note_on_c, 7, 84, 0
9, 85500, Note_on_c, 7, 82, 101
9, 85512, Note_on_c, 7, 82, 0
9, 85515, Note_on_c, 7, 84, 127
9, 85527, Note_on_c, 7, 84, 0
9, 85530, Note_on_c, 7, 82, 95
9, 85542, Note_on_c, 7, 82, 0
9, 85545, Note_on_c, 7, 84, 125
9, 85557, Note_on_c, 7, 84, 0
9, 85560, Note_on_c, 7, 82, 99
9, 85572, Note_on_c, 7, 82, 0
9, 85575, Note_on_c, 7, 84, 117
9, 85587, Note_on_c, 7, 84, 0
9, 85590, Note_on_c, 7, 82, 97
9, 85602, Note_on_c, 7, 82, 0
9, 85605, Note_on_c, 7, 84, 116
9, 85617, Note_on_c, 7, 84, 0
9, 85620, Note_on_c, 7, 82, 97
9, 85632, Note_on_c, 7, 82, 0
9, 85635, Note_on_c, 7, 84, 127
9, 85647, Note_on_c, 7, 84, 0
9, 85650, Note_on_c, 7, 82, 113
9, 85662, Note_on_c, 7, 82, 0
9, 85665, Note_on_c, 7, 84, 127
9, 85677, Note_on_c, 7, 84, 0
9, 85680, Note_on_c, 7, 82, 127
9, 85692, Note_on_c, 7, 82, 0
9, 85695, Note_on_c, 7, 84, 127
9, 85707, Note_on_c, 7, 84, 0
9, 85710, Note_on_c, 7, 82, 111
9, 85722, Note_on_c, 7, 82, 0
9, 85725, Note_on_c, 7, 84, 127
9, 85737, Note_on_c, 7, 84, 0
9, 85740, Note_on_c, 7, 82, 111
9, 85752, Note_on_c, 7, 82, 0
9, 85755, Note_on_c, 7, 84, 123
9, 85767, Note_on_c, 7, 84, 0
9, 85770, Note_on_c, 7, 82, 103
9, 85782, Note_on_c, 7, 82, 0
9, 85785, Note_on_c, 7, 84, 123
9, 85797, Note_on_c, 7, 84, 0
9, 85800, Note_on_c, 7, 82, 105
9, 85812, Note_on_c, 7, 82, 0
9, 85815, Note_on_c, 7, 84, 125
9, 85827, Note_on_c, 7, 84, 0
9, 85830, Note_on_c, 7, 82, 103
9, 85842, Note_on_c, 7, 82, 0
9, 85845, Note_on_c, 7, 84, 127
9, 85857, Note_on_c, 7, 84, 0
9, 85860, Note_on_c, 7, 82, 101
9, 85872, Note_on_c, 7, 82, 0
9, 85875, Note_on_c, 7, 84, 127
9, 85887, Note_on_c, 7, 84, 0
9, 85890, Note_on_c, 7, 82, 95
9, 85902, Note_on_c, 7, 82, 0
9, 85905, Note_on_c, 7, 84, 125
9, 85917, Note_on_c, 7, 84, 0
9, 85920, Note_on_c, 7, 82, 99
9, 85932, Note_on_c, 7, 82, 0
9, 85935, Note_on_c, 7, 84, 117
9, 85947, Note_on_c, 7, 84, 0
9, 85950, Note_on_c, 7, 82, 97
9, 85962, Note_on_c, 7, 82, 0
9, 85965, Note_on_c, 7, 84, 116
9, 85977, Note_on_c, 7, 84, 0
9, 85980, Note_on_c, 7, 82, 97
9, 85992, Note_on_c, 7, 82, 0
9, 85995, Note_on_c, 7, 84, 127
9, 86007, Note_on_c, 7, 84, 0
9, 86010, Note_on_c, 7, 82, 113
9, 86022, Note_on_c, 7, 82, 0
9, 86025, Note_on_c, 7, 84, 127
9, 86037, Note_on_c, 7, 84, 0
9, 86040, Note_on_c, 7, 82, 127
9, 86052, Note_on_c, 7, 82, 0
9, 86055, Note_on_c, 7, 84, 127
9, 86067, Note_on_c, 7, 84, 0
9, 86070, Note_on_c, 7, 82, 111
9, 86082, Note_on_c, 7, 82, 0
9, 86085, Note_on_c, 7, 84, 127
9, 86097, Note_on_c, 7, 84, 0
9, 86100, Note_on_c, 7, 82, 111
9, 86112, Note_on_c, 7, 82, 0
9, 86115, Note_on_c, 7, 84, 123
9, 86127, Note_on_c, 7, 84, 0
9, 86130, Note_on_c, 7, 82, 103
9, 86142, Note_on_c, 7, 82, 0
9, 86145, Note_on_c, 7, 84, 123
9, 86157, Note_on_c, 7, 84, 0
9, 86160, Note_on_c, 7, 82, 105
9, 86172, Note_on_c, 7, 82, 0
9, 86175, Note_on_c, 7, 84, 125
9, 86187, Note_on_c, 7, 84, 0
9, 86190, Note_on_c, 7, 82, 103
9, 86202, Note_on_c, 7, 82, 0
9, 86205, Note_on_c, 7, 84, 127
9, 86217, Note_on_c, 7, 84, 0
9, 86220, Note_on_c, 7, 82, 101
9, 86232, Note_on_c, 7, 82, 0
9, 86235, Note_on_c, 7, 84, 127
9, 86247, Note_on_c, 7, 84, 0
9, 86250, Note_on_c, 7, 82, 95
9, 86262, Note_on_c, 7, 82, 0
9, 86265, Note_on_c, 7, 84, 125
9, 86277, Note_on_c, 7, 84, 0
9, 86280, Note_on_c, 7, 82, 99
9, 86292, Note_on_c, 7, 82, 0
9, 86295, Note_on_c, 7, 84, 117
9, 86307, Note_on_c, 7, 84, 0
9, 86310, Note_on_c, 7, 82, 97
9, 86322, Note_on_c, 7, 82, 0
9, 86325, Note_on_c, 7, 84, 116
9, 86337, Note_on_c, 7, 84, 0
9, 86340, Note_on_c, 7, 82, 97
9, 86352, Note_on_c, 7, 82, 0
9, 86355, Note_on_c, 7, 84, 127
9, 86367, Note_on_c, 7, 84, 0
9, 86370, Note_on_c, 7, 82, 113
9, 86382, Note_on_c, 7, 82, 0
9, 86385, Note_on_c, 7, 84, 127
9, 86397, Note_on_c, 7, 84, 0
9, 86400, Note_on_c, 7, 82, 127
9, 86412, Note_on_c, 7, 82, 0
9, 86415, Note_on_c, 7, 84, 127
9, 86427, Note_on_c, 7, 84, 0
9, 86430, Note_on_c, 7, 82, 111
9, 86442, Note_on_c, 7, 82, 0
9, 86445, Note_on_c, 7, 84, 127
9, 86457, Note_on_c, 7, 84, 0
9, 86460, Note_on_c, 7, 82, 111
9, 86472, Note_on_c, 7, 82, 0
9, 86475, Note_on_c, 7, 84, 123
9, 86487, Note_on_c, 7, 84, 0
9, 86490, Note_on_c, 7, 82, 103
9, 86502, Note_on_c, 7, 82, 0
9, 86505, Note_on_c, 7, 84, 123
9, 86517, Note_on_c, 7, 84, 0
9, 86520, Note_on_c, 7, 82, 105
9, 86532, Note_on_c, 7, 82, 0
9, 86535, Note_on_c, 7, 84, 125
9, 86547, Note_on_c, 7, 84, 0
9, 86550, Note_on_c, 7, 82, 103
9, 86562, Note_on_c, 7, 82, 0
9, 86565, Note_on_c, 7, 84, 127
9, 86577, Note_on_c, 7, 84, 0
9, 86580, Note_on_c, 7, 82, 101
9, 86592, Note_on_c, 7, 82, 0
9, 86595, Note_on_c, 7, 84, 127
9, 86607, Note_on_c, 7, 84, 0
9, 86610, Note_on_c, 7, 82, 95
9, 86622, Note_on_c, 7, 82, 0
9, 86625, Note_on_c, 7, 84, 125
9, 86637, Note_on_c, 7, 84, 0
9, 86640, Note_on_c, 7, 82, 99
9, 86652, Note_on_c, 7, 82, 0
9, 86655, Note_on_c, 7, 84, 117
9, 86667, Note_on_c, 7, 84, 0
9, 86670, Note_on_c, 7, 82, 97
9, 86682, Note_on_c, 7, 82, 0
9, 86685, Note_on_c, 7, 84, 116
9, 86697, Note_on_c, 7, 84, 0
9, 86700, Note_on_c, 7, 82, 97
9, 86712, Note_on_c, 7, 82, 0
9, 86715, Note_on_c, 7, 84, 127
9, 86727, Note_on_c, 7, 84, 0
9, 86730, Note_on_c, 7, 82, 113
9, 86742, Note_on_c, 7, 82, 0
9, 86745, Note_on_c, 7, 84, 127
9, 86757, Note_on_c, 7, 84, 0
9, 86760, Note_on_c, 7, 82, 127
9, 86772, Note_on_c, 7, 82, 0
9, 86775, Note_on_c, 7, 84, 127
9, 86787, Note_on_c, 7, 84, 0
9, 86790, Note_on_c, 7, 82, 111
9, 86802, Note_on_c, 7, 82, 0
9, 86805, Note_on_c, 7, 84, 127
9, 86817, Note_on_c, 7, 84, 0
9, 86820, Note_on_c, 7, 82, 111
9, 86832, Note_on_c, 7, 82, 0
9, 86835, Note_on_c, 7, 84, 123
9, 86847, Note_on_c, 7, 84, 0
9, 86850, Note_on_c, 7, 82, 103
9, 86862, Note_on_c, 7, 82, 0
9, 86865, Note_on_c, 7, 84, 123
9, 86877, Note_on_c, 7, 84, 0
9, 86880, Note_on_c, 7, 82, 105
9, 86892, Note_on_c, 7, 82, 0
9, 86895, Note_on_c, 7, 84, 125
9, 86907, Note_on_c, 7, 84, 0
9, 86910, Note_on_c, 7, 82, 103
9, 86922, Note_on_c, 7, 82, 0
9, 86925, Note_on_c, 7, 84, 127
9, 86937, Note_on_c, 7, 84, 0
9, 86940, Note_on_c, 7, 82, 101
9, 86952, Note_on_c, 7, 82, 0
9, 86955, Note_on_c, 7, 84, 127
9, 86967, Note_on_c, 7, 84, 0
9, 86970, Note_on_c, 7, 82, 95
9, 86982, Note_on_c, 7, 82, 0
9, 86985, Note_on_c, 7, 84, 125
9, 86997, Note_on_c, 7, 84, 0
9, 87000, Note_on_c, 7, 82, 99
9, 87012, Note_on_c, 7, 82, 0
9, 87015, Note_on_c, 7, 84, 117
9, 87027, Note_on_c, 7, 84, 0
9, 87030, Note_on_c, 7, 82, 97
9, 87042, Note_on_c, 7, 82, 0
9, 87045, Note_on_c, 7, 84, 116
9, 87057, Note_on_c, 7, 84, 0
9, 87060, Note_on_c, 7, 82, 97
9, 87072, Note_on_c, 7, 82, 0
9, 87075, Note_on_c, 7, 84, 127
9, 87087, Note_on_c, 7, 84, 0
9, 87090, Note_on_c, 7, 82, 113
9, 87102, Note_on_c, 7, 82, 0
9, 87105, Note_on_c, 7, 84, 127
9, 87117, Note_on_c, 7, 84, 0
9, 87120, Note_on_c, 7, 82, 127
9, 87132, Note_on_c, 7, 82, 0
9, 87135, Note_on_c, 7, 84, 127
9, 87147, Note_on_c, 7, 84, 0
9, 87150, Note_on_c, 7, 82, 111
9, 87162, Note_on_c, 7, 82, 0
9, 87165, Note_on_c, 7, 84, 127
9, 87177, Note_on_c, 7, 84, 0
9, 87180, Note_on_c, 7, 82, 111
9, 87192, Note_on_c, 7, 82, 0
9, 87195, Note_on_c, 7, 84, 123
9, 87207, Note_on_c, 7, 84, 0
9, 87210, Note_on_c, 7, 82, 103
9, 87222, Note_on_c, 7, 82, 0
9, 87225, Note_on_c, 7, 84, 123
9, 87237, Note_on_c, 7, 84, 0
9, 87240, Note_on_c, 7, 82, 105
9, 87252, Note_on_c, 7, 82, 0
9, 87255, Note_on_c, 7, 84, 125
9, 87267, Note_on_c, 7, 84, 0
9, 87270, Note_on_c, 7, 82, 103
9, 87282, Note_on_c, 7, 82, 0
9, 87285, Note_on_c, 7, 84, 127
9, 87297, Note_on_c, 7, 84, 0
9, 87300, Note_on_c, 7, 82, 101
9, 87312, Note_on_c, 7, 82, 0
9, 87315, Note_on_c, 7, 84, 127
9, 87327, Note_on_c, 7, 84, 0
9, 87330, Note_on_c, 7, 82, 95
9, 87342, Note_on_c, 7, 82, 0
9, 87345, Note_on_c, 7, 84, 125
9, 87357, Note_on_c, 7, 84, 0
9, 87360, Note_on_c, 7, 82, 99
9, 87372, Note_on_c, 7, 82, 0
9, 87375, Note_on_c, 7, 84, 117
9, 87387, Note_on_c, 7, 84, 0
9, 87390, Note_on_c, 7, 82, 97
9, 87402, Note_on_c, 7, 82, 0
9, 87405, Note_on_c, 7, 84, 116
9, 87417, Note_on_c, 7, 84, 0
9, 87420, Note_on_c, 7, 82, 97
9, 87432, Note_on_c, 7, 82, 0
9, 87435, Note_on_c, 7, 84, 127
9, 87447, Note_on_c, 7, 84, 0
9, 87450, Note_on_c, 7, 82, 113
9, 87462, Note_on_c, 7, 82, 0
9, 87465, Note_on_c, 7, 84, 127
9, 87477, Note_on_c, 7, 84, 0
9, 87480, Note_on_c, 7, 82, 127
9, 87492, Note_on_c, 7, 82, 0
9, 87495, Note_on_c, 7, 84, 127
9, 87507, Note_on_c, 7, 84, 0
9, 87510, Note_on_c, 7, 82, 111
9, 87522, Note_on_c, 7, 82, 0
9, 87525, Note_on_c, 7, 84, 127
9, 87537, Note_on_c, 7, 84, 0
9, 87540, Note_on_c, 7, 82, 111
9, 87552, Note_on_c, 7, 82, 0
9, 87555, Note_on_c, 7, 84, 123
9, 87567, Note_on_c, 7, 84, 0
9, 87570, Note_on_c, 7, 82, 103
9, 87582, Note_on_c, 7, 82, 0
9, 87585, Note_on_c, 7, 84, 123
9, 87597, Note_on_c, 7, 84, 0
9, 87600, Note_on_c, 7, 82, 105
9, 87612, Note_on_c, 7, 82, 0
9, 87615, Note_on_c, 7, 84, 125
9, 87627, Note_on_c, 7, 84, 0
9, 87630, Note_on_c, 7, 82, 103
9, 87642, Note_on_c, 7, 82, 0
9, 87645, Note_on_c, 7, 84, 127
9, 87657, Note_on_c, 7, 84, 0
9, 87660, Note_on_c, 7, 82, 101
9, 87672, Note_on_c, 7, 82, 0
9, 87675, Note_on_c, 7, 84, 127
9, 87687, Note_on_c, 7, 84, 0
9, 87690, Note_on_c, 7, 82, 95
9, 87702, Note_on_c, 7, 82, 0
9, 87705, Note_on_c, 7, 84, 125
9, 87717, Note_on_c, 7, 84, 0
9, 87720, Note_on_c, 7, 82, 99
9, 87732, Note_on_c, 7, 82, 0
9, 87735, Note_on_c, 7, 84, 117
9, 87747, Note_on_c, 7, 84, 0
9, 87750, Note_on_c, 7, 82, 97
9, 87762, Note_on_c, 7, 82, 0
9, 87765, Note_on_c, 7, 84, 116
9, 87775, Control_c, 7, 7, 102
9, 87777, Note_on_c, 7, 84, 0
9, 87780, Note_on_c, 7, 82, 97
9, 87785, Control_c, 7, 7, 103
9, 87790, Control_c, 7, 7, 104
9, 87792, Note_on_c, 7, 82, 0
9, 87795, Note_on_c, 7, 84, 127
9, 87795, Control_c, 7, 7, 105
9, 87800, Control_c, 7, 7, 106
9, 87807, Note_on_c, 7, 84, 0
9, 87810, Note_on_c, 7, 82, 113
9, 87810, Control_c, 7, 7, 107
9, 87815, Control_c, 7, 7, 108
9, 87820, Control_c, 7, 7, 109
9, 87822, Note_on_c, 7, 82, 0
9, 87825, Note_on_c, 7, 84, 127
9, 87825, Control_c, 7, 7, 110
9, 87835, Control_c, 7, 7, 111
9, 87837, Note_on_c, 7, 84, 0
9, 87840, Note_on_c, 7, 82, 123
9, 87840, Control_c, 7, 7, 112
9, 87845, Control_c, 7, 7, 113
9, 87850, Control_c, 7, 7, 114
9, 87860, Control_c, 7, 7, 115
9, 87864, Note_on_c, 7, 82, 0
9, 87865, Control_c, 7, 7, 116
9, 87870, Note_on_c, 7, 80, 113
9, 87870, Control_c, 7, 7, 117
9, 87875, Control_c, 7, 7, 118
9, 87885, Control_c, 7, 7, 119
9, 87890, Control_c, 7, 7, 120
9, 87894, Note_on_c, 7, 80, 0
9, 87895, Control_c, 7, 7, 121
9, 87900, Note_on_c, 7, 79, 127
9, 87900, Control_c, 7, 7, 122
9, 87924, Note_on_c, 7, 79, 0
9, 87930, Note_on_c, 7, 77, 116
9, 87954, Note_on_c, 7, 77, 0
9, 87960, Note_on_c, 7, 75, 113
9, 87984, Note_on_c, 7, 75, 0
9, 87990, Note_on_c, 7, 74, 123
9, 88014, Note_on_c, 7, 74, 0
9, 88020, Note_on_c, 7, 72, 117
9, 88044, Note_on_c, 7, 72, 0
9, 88050, Note_on_c, 7, 70, 101
9, 88074, Note_on_c, 7, 70, 0
9, 88080, Note_on_c, 7, 68, 126
9, 88104, Note_on_c, 7, 68, 0
9, 88110, Note_on_c, 7, 67, 112
9, 88134, Note_on_c, 7, 67, 0
9, 88140, Note_on_c, 7, 65, 123
9, 88164, Note_on_c, 7, 65, 0
9, 88170, Note_on_c, 7, 63, 121
9, 88194, Note_on_c, 7, 63, 0
9, 88200, Note_on_c, 7, 62, 127
9, 88224, Note_on_c, 7, 62, 0
9, 88230, Note_on_c, 7, 60, 125
9, 88254, Note_on_c, 7, 60, 0
9, 88260, Note_on_c, 7, 58, 109
9, 88284, Note_on_c, 7, 58, 0
9, 88290, Note_on_c, 7, 60, 127
9, 88314, Note_on_c, 7, 60, 0
9, 88320, Note_on_c, 7, 62, 127
9, 88344, Note_on_c, 7, 62, 0
9, 88350, Note_on_c, 7, 63, 123
9, 88374, Note_on_c, 7, 63, 0
9, 88380, Note_on_c, 7, 65, 123
9, 88404, Note_on_c, 7, 65, 0
9, 88410, Note_on_c, 7, 67, 127
9, 88434, Note_on_c, 7, 67, 0
9, 88440, Note_on_c, 7, 68, 113
9, 88464, Note_on_c, 7, 68, 0
9, 88470, Note_on_c, 7, 70, 115
9, 88494, Note_on_c, 7, 70, 0
9, 88500, Note_on_c, 7, 72, 106
9, 88524, Note_on_c, 7, 72, 0
9, 88530, Note_on_c, 7, 74, 127
9, 88554, Note_on_c, 7, 74, 0
9, 88560, Note_on_c, 7, 75, 113
9, 88608, Note_on_c, 7, 75, 0
9, 88620, Note_on_c, 7, 67, 113
9, 88620, Note_on_c, 7, 70, 89
9, 88668, Note_on_c, 7, 70, 0
9, 88668, Note_on_c, 7, 67, 0
9, 88680, Note_on_c, 7, 75, 127
9, 88680, Note_on_c, 7, 70, 101
9, 88680, Note_on_c, 7, 67, 127
9, 88728, Note_on_c, 7, 67, 0
9, 88728, Note_on_c, 7, 70, 0
9, 88728, Note_on_c, 7, 75, 0
9, 88740, Note_on_c, 7, 79, 127
9, 88788, Note_on_c, 7, 79, 0
9, 88800, Note_on_c, 7, 70, 107
9, 88800, Note_on_c, 7, 75, 123
9, 88848, Note_on_c, 7, 75, 0
9, 88848, Note_on_c, 7, 70, 0
9, 88860, Note_on_c, 7, 79, 127
9, 88884, Note_on_c, 7, 79, 0
9, 88890, Note_on_c, 7, 82, 121
9, 88914, Note_on_c, 7, 82, 0
9, 88920, Note_on_c, 7, 82, 101
9, 88920, Note_on_c, 7, 75, 86
9, 88920, Note_on_c, 7, 79, 102
9, 88944, Note_on_c, 7, 82, 0
9, 88950, Note_on_c, 7, 87, 90
9, 88968, Note_on_c, 7, 79, 0
9, 88968, Note_on_c, 7, 75, 0
9, 88974, Note_on_c, 7, 87, 0
9, 88980, Note_on_c, 7, 87, 84
9, 88980, Note_on_c, 7, 75, 86
9, 88980, Note_on_c, 7, 79, 102
9, 88980, Note_on_c, 7, 82, 77
9, 89196, Note_on_c, 7, 82, 0
9, 89196, Note_on_c, 7, 87, 0
9, 89196, Note_on_c, 7, 75, 0
9, 89196, Note_on_c, 7, 79, 0
9, 89220, Note_on_c, 7, 87, 98
9, 89220, Note_on_c, 7, 79, 102
9, 89220, Note_on_c, 7, 82, 84
9, 89244, Note_on_c, 7, 87, 0
9, 89250, Note_on_c, 7, 91, 102
9, 89268, Note_on_c, 7, 82, 0
9, 89268, Note_on_c, 7, 79, 0
9, 89274, Note_on_c, 7, 91, 0
9, 89280, Note_on_c, 7, 89, 77
9, 89280, Note_on_c, 7, 77, 72
9, 89280, Note_on_c, 7, 82, 68
9, 89280, Note_on_c, 7, 80, 67
9, 89328, Note_on_c, 7, 80, 0
9, 89328, Note_on_c, 7, 89, 0
9, 89328, Note_on_c, 7, 77, 0
9, 89328, Note_on_c, 7, 82, 0
9, 89400, Note_on_c, 7, 86, 77
9, 89400, Note_on_c, 7, 77, 77
9, 89400, Note_on_c, 7, 80, 63
9, 89400, Note_on_c, 7, 82, 61
9, 89424, Note_on_c, 7, 86, 0
9, 89430, Note_on_c, 7, 89, 75
9, 89448, Note_on_c, 7, 77, 0
9, 89448, Note_on_c, 7, 82, 0
9, 89448, Note_on_c, 7, 80, 0
9, 89454, Note_on_c, 7, 89, 0
9, 89460, Note_on_c, 7, 87, 72
9, 89460, Note_on_c, 7, 79, 77
9, 89460, Note_on_c, 7, 82, 61
9, 89508, Note_on_c, 7, 82, 0
9, 89508, Note_on_c, 7, 79, 0
9, 89508, Note_on_c, 7, 87, 0
9, 89580, Note_on_c, 7, 79, 77
9, 89580, Note_on_c, 7, 75, 70
9, 89604, Note_on_c, 7, 79, 0
9, 89610, Note_on_c, 7, 82, 76
9, 89628, Note_on_c, 7, 75, 0
9, 89634, Note_on_c, 7, 82, 0
9, 89640, Note_on_c, 7, 82, 75
9, 89640, Note_on_c, 7, 77, 77
9, 89640, Note_on_c, 7, 74, 77
9, 89652, Note_on_c, 7, 82, 0
9, 89655, Note_on_c, 7, 84, 77
9, 89667, Note_on_c, 7, 84, 0
9, 89670, Note_on_c, 7, 82, 72
9, 89682, Note_on_c, 7, 82, 0
9, 89685, Note_on_c, 7, 84, 77
9, 89697, Note_on_c, 7, 84, 0
9, 89700, Note_on_c, 7, 82, 72
9, 89712, Note_on_c, 7, 82, 0
9, 89715, Note_on_c, 7, 84, 77
9, 89727, Note_on_c, 7, 84, 0
9, 89730, Note_on_c, 7, 82, 74
9, 89742, Note_on_c, 7, 82, 0
9, 89745, Note_on_c, 7, 84, 77
9, 89757, Note_on_c, 7, 84, 0
9, 89760, Note_on_c, 7, 82, 70
9, 89784, Note_on_c, 7, 82, 0
9, 89790, Note_on_c, 7, 81, 77
9, 89814, Note_on_c, 7, 81, 0
9, 89820, Note_on_c, 7, 82, 75
9, 89916, Note_on_c, 7, 82, 0
9, 89916, Note_on_c, 7, 74, 0
9, 89916, Note_on_c, 7, 77, 0
9, 89940, Note_on_c, 7, 70, 75
9, 89988, Note_on_c, 7, 70, 0
9, 90000, Note_on_c, 7, 70, 127
9, 90000, Note_on_c, 7, 63, 96
9, 90000, Note_on_c, 7, 67, 121
9, 90048, Note_on_c, 7, 67, 0
9, 90048, Note_on_c, 7, 63, 0
9, 90048, Note_on_c, 7, 70, 0
9, 90060, Note_on_c, 7, 75, 123
9, 90060, Note_on_c, 7, 63, 99
9, 90060, Note_on_c, 7, 67, 120
9, 90108, Note_on_c, 7, 67, 0
9, 90108, Note_on_c, 7, 63, 0
9, 90108, Note_on_c, 7, 75, 0
9, 90120, Note_on_c, 7, 75, 126
9, 90120, Note_on_c, 7, 67, 112
9, 90120, Note_on_c, 7, 70, 97
9, 90168, Note_on_c, 7, 70, 0
9, 90168, Note_on_c, 7, 67, 0
9, 90168, Note_on_c, 7, 75, 0
9, 90180, Note_on_c, 7, 79, 127
9, 90180, Note_on_c, 7, 67, 116
9, 90180, Note_on_c, 7, 70, 94
9, 90228, Note_on_c, 7, 70, 0
9, 90228, Note_on_c, 7, 67, 0
9, 90228, Note_on_c, 7, 79, 0
9, 90300, Note_on_c, 7, 79, 127
9, 90300, Note_on_c, 7, 70, 92
9, 90300, Note_on_c, 7, 75, 97
9, 90324, Note_on_c, 7, 79, 0
9, 90330, Note_on_c, 7, 82, 115
9, 90348, Note_on_c, 7, 75, 0
9, 90348, Note_on_c, 7, 70, 0
9, 90354, Note_on_c, 7, 82, 0
9, 90360, Note_on_c, 7, 82, 89
9, 90360, Note_on_c, 7, 75, 82
9, 90360, Note_on_c, 7, 79, 102
9, 90384, Note_on_c, 7, 82, 0
9, 90390, Note_on_c, 7, 87, 94
9, 90408, Note_on_c, 7, 79, 0
9, 90408, Note_on_c, 7, 75, 0
9, 90414, Note_on_c, 7, 87, 0
9, 90420, Note_on_c, 7, 87, 94
9, 90420, Note_on_c, 7, 75, 78
9, 90420, Note_on_c, 7, 79, 102
9, 90420, Note_on_c, 7, 82, 62
9, 90636, Note_on_c, 7, 82, 0
9, 90636, Note_on_c, 7, 87, 0
9, 90636, Note_on_c, 7, 75, 0
9, 90636, Note_on_c, 7, 79, 0
9, 90660, Note_on_c, 7, 87, 101
9, 90660, Note_on_c, 7, 79, 102
9, 90660, Note_on_c, 7, 82, 87
9, 90684, Note_on_c, 7, 87, 0
9, 90690, Note_on_c, 7, 91, 102
9, 90708, Note_on_c, 7, 82, 0
9, 90708, Note_on_c, 7, 79, 0
9, 90714, Note_on_c, 7, 91, 0
9, 90720, Note_on_c, 7, 89, 92
9, 90720, Note_on_c, 7, 82, 74
9, 90720, Note_on_c, 7, 77, 85
9, 90720, Note_on_c, 7, 80, 72
9, 90768, Note_on_c, 7, 80, 0
9, 90768, Note_on_c, 7, 89, 0
9, 90768, Note_on_c, 7, 82, 0
9, 90768, Note_on_c, 7, 77, 0
9, 90840, Note_on_c, 7, 86, 92
9, 90840, Note_on_c, 7, 82, 76
9, 90840, Note_on_c, 7, 80, 85
9, 90840, Note_on_c, 7, 77, 85
9, 90864, Note_on_c, 7, 86, 0
9, 90870, Note_on_c, 7, 89, 92
9, 90888, Note_on_c, 7, 82, 0
9, 90888, Note_on_c, 7, 77, 0
9, 90888, Note_on_c, 7, 80, 0
9, 90894, Note_on_c, 7, 89, 0
9, 90900, Note_on_c, 7, 87, 87
9, 90900, Note_on_c, 7, 79, 92
9, 90900, Note_on_c, 7, 82, 78
9, 90948, Note_on_c, 7, 82, 0
9, 90948, Note_on_c, 7, 79, 0
9, 90948, Note_on_c, 7, 87, 0
9, 91020, Note_on_c, 7, 79, 92
9, 91020, Note_on_c, 7, 75, 76
9, 91044, Note_on_c, 7, 79, 0
9, 91050, Note_on_c, 7, 82, 87
9, 91068, Note_on_c, 7, 75, 0
9, 91074, Note_on_c, 7, 82, 0
9, 91080, Note_on_c, 7, 82, 91
9, 91080, Note_on_c, 7, 74, 88
9, 91080, Note_on_c, 7, 77, 92
9, 91092, Note_on_c, 7, 82, 0
9, 91095, Note_on_c, 7, 84, 92
9, 91107, Note_on_c, 7, 84, 0
9, 91110, Note_on_c, 7, 82, 80
9, 91122, Note_on_c, 7, 82, 0
9, 91125, Note_on_c, 7, 84, 92
9, 91137, Note_on_c, 7, 84, 0
9, 91140, Note_on_c, 7, 82, 83
9, 91152, Note_on_c, 7, 82, 0
9, 91155, Note_on_c, 7, 84, 90
9, 91167, Note_on_c, 7, 84, 0
9, 91170, Note_on_c, 7, 82, 81
9, 91182, Note_on_c, 7, 82, 0
9, 91185, Note_on_c, 7, 84, 92
9, 91197, Note_on_c, 7, 84, 0
9, 91200, Note_on_c, 7, 82, 87
9, 91224, Note_on_c, 7, 82, 0
9, 91230, Note_on_c, 7, 81, 92
9, 91254, Note_on_c, 7, 81, 0
9, 91260, Note_on_c, 7, 82, 91
9, 91356, Note_on_c, 7, 82, 0
9, 91356, Note_on_c, 7, 77, 0
9, 91356, Note_on_c, 7, 74, 0
9, 91380, Note_on_c, 7, 70, 76
9, 91380, Note_on_c, 7, 82, 77
9, 91404, Note_on_c, 7, 82, 0
9, 91404, Note_on_c, 7, 70, 0
9, 91410, Note_on_c, 7, 81, 81
9, 91410, Note_on_c, 7, 69, 77
9, 91434, Note_on_c, 7, 69, 0
9, 91434, Note_on_c, 7, 81, 0
9, 91440, Note_on_c, 7, 69, 118
9, 91440, Note_on_c, 7, 81, 120
9, 91488, Note_on_c, 7, 81, 0
9, 91488, Note_on_c, 7, 69, 0
9, 91560, Note_on_c, 7, 68, 109
9, 91560, Note_on_c, 7, 80, 126
9, 91584, Note_on_c, 7, 80, 0
9, 91584, Note_on_c, 7, 68, 0
9, 91590, Note_on_c, 7, 67, 107
9, 91590, Note_on_c, 7, 79, 106
9, 91614, Note_on_c, 7, 79, 0
9, 91614, Note_on_c, 7, 67, 0
9, 91620, Note_on_c, 7, 67, 118
9, 91620, Note_on_c, 7, 79, 123
9, 91668, Note_on_c, 7, 79, 0
9, 91668, Note_on_c, 7, 67, 0
9, 91740, Note_on_c, 7, 66, 109
9, 91740, Note_on_c, 7, 78, 118
9, 91764, Note_on_c, 7, 78, 0
9, 91764, Note_on_c, 7, 66, 0
9, 91770, Note_on_c, 7, 65, 105
9, 91770, Note_on_c, 7, 77, 102
9, 91794, Note_on_c, 7, 77, 0
9, 91794, Note_on_c, 7, 65, 0
9, 91800, Note_on_c, 7, 65, 110
9, 91800, Note_on_c, 7, 77, 117
9, 91848, Note_on_c, 7, 77, 0
9, 91848, Note_on_c, 7, 65, 0
9, 91920, Note_on_c, 7, 76, 127
9, 91920, Note_on_c, 7, 66, 113
9, 91944, Note_on_c, 7, 66, 0
9, 91944, Note_on_c, 7, 76, 0
9, 91950, Note_on_c, 7, 63, 113
9, 91950, Note_on_c, 7, 75, 123
9, 91974, Note_on_c, 7, 75, 0
9, 91974, Note_on_c, 7, 63, 0
9, 91980, Note_on_c, 7, 63, 118
9, 91980, Note_on_c, 7, 75, 127
9, 92028, Note_on_c, 7, 75, 0
9, 92028, Note_on_c, 7, 63, 0
9, 92100, Note_on_c, 7, 63, 107
9, 92100, Note_on_c, 7, 75, 127
9, 92100, Note_on_c, 7, 68, 123
9, 92100, Note_on_c, 7, 70, 121
9, 92124, Note_on_c, 7, 75, 0
9, 92124, Note_on_c, 7, 63, 0
9, 92130, Note_on_c, 7, 62, 98
9, 92130, Note_on_c, 7, 74, 106
9, 92148, Note_on_c, 7, 68, 0
9, 92148, Note_on_c, 7, 70, 0
9, 92154, Note_on_c, 7, 62, 0
9, 92154, Note_on_c, 7, 74, 0
9, 92160, Note_on_c, 7, 62, 118
9, 92160, Note_on_c, 7, 70, 109
9, 92160, Note_on_c, 7, 74, 114
9, 92160, Note_on_c, 7, 68, 111
9, 92256, Note_on_c, 7, 68, 0
9, 92256, Note_on_c, 7, 62, 0
9, 92256, Note_on_c, 7, 70, 0
9, 92256, Note_on_c, 7, 74, 0
9, 92280, Note_on_c, 7, 62, 110
9, 92280, Note_on_c, 7, 70, 118
9, 92280, Note_on_c, 7, 74, 107
9, 92280, Note_on_c, 7, 68, 109
9, 92328, Note_on_c, 7, 68, 0
9, 92328, Note_on_c, 7, 62, 0
9, 92328, Note_on_c, 7, 70, 0
9, 92328, Note_on_c, 7, 74, 0
9, 92340, Note_on_c, 7, 62, 120
9, 92340, Note_on_c, 7, 70, 107
9, 92340, Note_on_c, 7, 68, 113
9, 92340, Note_on_c, 7, 74, 111
9, 92412, Note_on_c, 7, 74, 0
9, 92412, Note_on_c, 7, 62, 0
9, 92412, Note_on_c, 7, 70, 0
9, 92412, Note_on_c, 7, 68, 0
9, 92430, Note_on_c, 7, 63, 123
9, 92430, Note_on_c, 7, 68, 127
9, 92430, Note_on_c, 7, 70, 126
9, 92430, Note_on_c, 7, 75, 118
9, 92454, Note_on_c, 7, 75, 0
9, 92454, Note_on_c, 7, 63, 0
9, 92454, Note_on_c, 7, 68, 0
9, 92454, Note_on_c, 7, 70, 0
9, 92460, Note_on_c, 7, 65, 107
9, 92460, Note_on_c, 7, 77, 117
9, 92460, Note_on_c, 7, 70, 94
9, 92460, Note_on_c, 7, 68, 85
9, 92508, Note_on_c, 7, 68, 0
9, 92508, Note_on_c, 7, 65, 0
9, 92508, Note_on_c, 7, 77, 0
9, 92508, Note_on_c, 7, 70, 0
9, 92520, Note_on_c, 7, 77, 102
9, 92520, Note_on_c, 7, 70, 102
9, 92520, Note_on_c, 7, 68, 102
9, 92520, Note_on_c, 7, 65, 102
9, 92568, Note_on_c, 7, 65, 0
9, 92568, Note_on_c, 7, 77, 0
9, 92568, Note_on_c, 7, 70, 0
9, 92568, Note_on_c, 7, 68, 0
9, 92580, Note_on_c, 7, 70, 99
9, 92580, Note_on_c, 7, 67, 113
9, 92580, Note_on_c, 7, 79, 127
9, 92628, Note_on_c, 7, 79, 0
9, 92628, Note_on_c, 7, 67, 0
9, 92628, Note_on_c, 7, 70, 0
9, 92640, Note_on_c, 7, 70, 85
9, 92640, Note_on_c, 7, 75, 127
9, 92640, Note_on_c, 7, 67, 106
9, 92640, Note_on_c, 7, 63, 106
9, 92688, Note_on_c, 7, 63, 0
9, 92688, Note_on_c, 7, 70, 0
9, 92688, Note_on_c, 7, 75, 0
9, 92688, Note_on_c, 7, 67, 0
9, 92700, Note_on_c, 7, 70, 113
9, 92700, Note_on_c, 7, 67, 127
9, 92700, Note_on_c, 7, 63, 118
9, 92700, Note_on_c, 7, 75, 123
9, 92796, Note_on_c, 7, 75, 0
9, 92796, Note_on_c, 7, 70, 0
9, 92796, Note_on_c, 7, 67, 0
9, 92796, Note_on_c, 7, 63, 0
9, 92820, Note_on_c, 7, 70, 111
9, 92844, Note_on_c, 7, 70, 0
9, 92850, Note_on_c, 7, 82, 114
9, 92874, Note_on_c, 7, 82, 0
9, 92880, Note_on_c, 7, 69, 117
9, 92904, Note_on_c, 7, 69, 0
9, 92910, Note_on_c, 7, 81, 105
9, 92934, Note_on_c, 7, 81, 0
9, 92940, Note_on_c, 7, 69, 127
9, 92964, Note_on_c, 7, 69, 0
9, 92970, Note_on_c, 7, 81, 121
9, 92994, Note_on_c, 7, 81, 0
9, 93000, Note_on_c, 7, 68, 111
9, 93024, Note_on_c, 7, 68, 0
9, 93030, Note_on_c, 7, 80, 100
9, 93054, Note_on_c, 7, 80, 0
9, 93060, Note_on_c, 7, 67, 109
9, 93084, Note_on_c, 7, 67, 0
9, 93090, Note_on_c, 7, 79, 98
9, 93114, Note_on_c, 7, 79, 0
9, 93120, Note_on_c, 7, 67, 112
9, 93144, Note_on_c, 7, 67, 0
9, 93150, Note_on_c, 7, 79, 127
9, 93174, Note_on_c, 7, 79, 0
9, 93180, Note_on_c, 7, 66, 97
9, 93204, Note_on_c, 7, 66, 0
9, 93210, Note_on_c, 7, 78, 109
9, 93234, Note_on_c, 7, 78, 0
9, 93240, Note_on_c, 7, 65, 109
9, 93264, Note_on_c, 7, 65, 0
9, 93270, Note_on_c, 7, 77, 98
9, 93294, Note_on_c, 7, 77, 0
9, 93300, Note_on_c, 7, 65, 121
9, 93324, Note_on_c, 7, 65, 0
9, 93330, Note_on_c, 7, 77, 120
9, 93354, Note_on_c, 7, 77, 0
9, 93360, Note_on_c, 7, 64, 101
9, 93384, Note_on_c, 7, 64, 0
9, 93390, Note_on_c, 7, 76, 107
9, 93414, Note_on_c, 7, 76, 0
9, 93420, Note_on_c, 7, 63, 105
9, 93444, Note_on_c, 7, 63, 0
9, 93450, Note_on_c, 7, 75, 107
9, 93474, Note_on_c, 7, 75, 0
9, 93480, Note_on_c, 7, 63, 107
9, 93504, Note_on_c, 7, 63, 0
9, 93510, Note_on_c, 7, 75, 115
9, 93534, Note_on_c, 7, 75, 0
9, 103500, Note_on_c, 7, 63, 115
9, 103516, Note_on_c, 7, 63, 0
9, 103520, Note_on_c, 7, 62, 123
9, 103536, Note_on_c, 7, 62, 0
9, 103540, Note_on_c, 7, 60, 114
9, 103556, Note_on_c, 7, 60, 0
9, 103560, Note_on_c, 7, 58, 123
9, 103576, Note_on_c, 7, 58, 0
9, 103580, Note_on_c, 7, 60, 120
9, 103596, Note_on_c, 7, 60, 0
9, 103600, Note_on_c, 7, 62, 127
9, 103616, Note_on_c, 7, 62, 0
9, 103620, Note_on_c, 7, 63, 123
9, 103644, Note_on_c, 7, 63, 0
9, 103650, Note_on_c, 7, 65, 127
9, 103674, Note_on_c, 7, 65, 0
9, 103680, Note_on_c, 7, 67, 127
9, 103696, Note_on_c, 7, 67, 0
9, 103700, Note_on_c, 7, 65, 127
9, 103716, Note_on_c, 7, 65, 0
9, 103720, Note_on_c, 7, 63, 96
9, 103736, Note_on_c, 7, 63, 0
9, 103740, Note_on_c, 7, 62, 120
9, 103756, Note_on_c, 7, 62, 0
9, 103760, Note_on_c, 7, 63, 115
9, 103776, Note_on_c, 7, 63, 0
9, 103780, Note_on_c, 7, 65, 110
9, 103796, Note_on_c, 7, 65, 0
9, 103800, Note_on_c, 7, 67, 127
9, 103824, Note_on_c, 7, 67, 0
9, 103830, Note_on_c, 7, 68, 111
9, 103854, Note_on_c, 7, 68, 0
9, 103860, Note_on_c, 7, 70, 109
9, 103876, Note_on_c, 7, 70, 0
9, 103880, Note_on_c, 7, 68, 115
9, 103896, Note_on_c, 7, 68, 0
9, 103900, Note_on_c, 7, 67, 114
9, 103916, Note_on_c, 7, 67, 0
9, 103920, Note_on_c, 7, 68, 123
9, 103944, Note_on_c, 7, 68, 0
9, 103950, Note_on_c, 7, 70, 123
9, 103974, Note_on_c, 7, 70, 0
9, 103980, Note_on_c, 7, 72, 123
9, 104004, Note_on_c, 7, 72, 0
9, 104010, Note_on_c, 7, 74, 127
9, 104034, Note_on_c, 7, 74, 0
9, 104040, Note_on_c, 7, 75, 85
9, 104136, Note_on_c, 7, 75, 0
9, 104220, Note_on_c, 7, 75, 115
9, 104236, Note_on_c, 7, 75, 0
9, 104240, Note_on_c, 7, 74, 125
9, 104256, Note_on_c, 7, 74, 0
9, 104260, Note_on_c, 7, 72, 116
9, 104276, Note_on_c, 7, 72, 0
9, 104280, Note_on_c, 7, 70, 91
9, 104296, Note_on_c, 7, 70, 0
9, 104300, Note_on_c, 7, 72, 104
9, 104316, Note_on_c, 7, 72, 0
9, 104320, Note_on_c, 7, 74, 127
9, 104336, Note_on_c, 7, 74, 0
9, 104340, Note_on_c, 7, 75, 115
9, 104364, Note_on_c, 7, 75, 0
9, 104370, Note_on_c, 7, 77, 117
9, 104394, Note_on_c, 7, 77, 0
9, 104400, Note_on_c, 7, 79, 127
9, 104416, Note_on_c, 7, 79, 0
9, 104420, Note_on_c, 7, 77, 114
9, 104436, Note_on_c, 7, 77, 0
9, 104440, Note_on_c, 7, 75, 84
9, 104456, Note_on_c, 7, 75, 0
9, 104460, Note_on_c, 7, 74, 114
9, 104476, Note_on_c, 7, 74, 0
9, 104480, Note_on_c, 7, 75, 121
9, 104496, Note_on_c, 7, 75, 0
9, 104500, Note_on_c, 7, 77, 127
9, 104516, Note_on_c, 7, 77, 0
9, 104520, Note_on_c, 7, 79, 127
9, 104544, Note_on_c, 7, 79, 0
9, 104550, Note_on_c, 7, 80, 111
9, 104574, Note_on_c, 7, 80, 0
9, 104580, Note_on_c, 7, 82, 115
9, 104596, Note_on_c, 7, 82, 0
9, 104600, Note_on_c, 7, 80, 84
9, 104616, Note_on_c, 7, 80, 0
9, 104620, Note_on_c, 7, 79, 117
9, 104636, Note_on_c, 7, 79, 0
9, 104640, Note_on_c, 7, 80, 121
9, 104664, Note_on_c, 7, 80, 0
9, 104670, Note_on_c, 7, 82, 121
9, 104694, Note_on_c, 7, 82, 0
9, 104700, Note_on_c, 7, 84, 127
9, 104724, Note_on_c, 7, 84, 0
9, 104730, Note_on_c, 7, 86, 127
9, 104754, Note_on_c, 7, 86, 0
9, 104760, Note_on_c, 7, 87, 118
9, 104776, Note_on_c, 7, 87, 0
9, 104780, Note_on_c, 7, 86, 109
9, 104796, Note_on_c, 7, 86, 0
9, 104800, Note_on_c, 7, 84, 111
9, 104816, Note_on_c, 7, 84, 0
9, 104820, Note_on_c, 7, 82, 83
9, 104836, Note_on_c, 7, 82, 0
9, 104840, Note_on_c, 7, 84, 100
9, 104856, Note_on_c, 7, 84, 0
9, 104860, Note_on_c, 7, 86, 113
9, 104876, Note_on_c, 7, 86, 0
9, 104880, Note_on_c, 7, 87, 109
9, 104904, Note_on_c, 7, 87, 0
9, 104910, Note_on_c, 7, 89, 109
9, 104934, Note_on_c, 7, 89, 0
9, 104940, Note_on_c, 7, 91, 127
9, 104956, Note_on_c, 7, 91, 0
9, 104960, Note_on_c, 7, 89, 114
9, 104976, Note_on_c, 7, 89, 0
9, 104980, Note_on_c, 7, 87, 96
9, 104996, Note_on_c, 7, 87, 0
9, 105000, Note_on_c, 7, 86, 109
9, 105016, Note_on_c, 7, 86, 0
9, 105020, Note_on_c, 7, 87, 109
9, 105036, Note_on_c, 7, 87, 0
9, 105040, Note_on_c, 7, 89, 117
9, 105056, Note_on_c, 7, 89, 0
9, 105060, Note_on_c, 7, 91, 127
9, 105084, Note_on_c, 7, 91, 0
9, 105090, Note_on_c, 7, 92, 107
9, 105114, Note_on_c, 7, 92, 0
9, 105120, Note_on_c, 7, 94, 101
9, 105144, Note_on_c, 7, 94, 0
9, 105150, Note_on_c, 7, 92, 115
9, 105174, Note_on_c, 7, 92, 0
9, 105180, Note_on_c, 7, 91, 107
9, 105204, Note_on_c, 7, 91, 0
9, 105210, Note_on_c, 7, 96, 121
9, 105234, Note_on_c, 7, 96, 0
9, 105240, Note_on_c, 7, 94, 115
9, 105264, Note_on_c, 7, 94, 0
9, 105270, Note_on_c, 7, 92, 109
9, 105294, Note_on_c, 7, 92, 0
9, 105300, Note_on_c, 7, 91, 116
9, 105324, Note_on_c, 7, 91, 0
9, 105330, Note_on_c, 7, 89, 121
9, 105354, Note_on_c, 7, 89, 0
9, 105360, Note_on_c, 7, 87, 103
9, 105384, Note_on_c, 7, 87, 0
9, 105390, Note_on_c, 7, 86, 116
9, 105414, Note_on_c, 7, 86, 0
9, 105420, Note_on_c, 7, 84, 103
9, 105444, Note_on_c, 7, 84, 0
9, 105450, Note_on_c, 7, 83, 127
9, 105474, Note_on_c, 7, 83, 0
9, 105480, Note_on_c, 7, 82, 111
9, 105480, Control_c, 7, 7, 120
9, 105504, Note_on_c, 7, 82, 0
9, 105510, Note_on_c, 7, 80, 107
9, 105515, Control_c, 7, 7, 119
9, 105534, Note_on_c, 7, 80, 0
9, 105540, Note_on_c, 7, 79, 120
9, 105545, Control_c, 7, 7, 118
9, 105564, Note_on_c, 7, 79, 0
9, 105570, Note_on_c, 7, 84, 127
9, 105580, Control_c, 7, 7, 117
9, 105594, Note_on_c, 7, 84, 0
9, 105600, Note_on_c, 7, 82, 101
9, 105610, Control_c, 7, 7, 116
9, 105624, Note_on_c, 7, 82, 0
9, 105630, Note_on_c, 7, 80, 93
9, 105640, Control_c, 7, 7, 115
9, 105654, Note_on_c, 7, 80, 0
9, 105660, Note_on_c, 7, 79, 114
9, 105675, Control_c, 7, 7, 114
9, 105684, Note_on_c, 7, 79, 0
9, 105690, Note_on_c, 7, 77, 127
9, 105705, Control_c, 7, 7, 113
9, 105714, Note_on_c, 7, 77, 0
9, 105720, Note_on_c, 7, 75, 100
9, 105735, Control_c, 7, 7, 112
9, 105744, Note_on_c, 7, 75, 0
9, 105750, Note_on_c, 7, 74, 107
9, 105770, Control_c, 7, 7, 111
9, 105774, Note_on_c, 7, 74, 0
9, 105780, Note_on_c, 7, 72, 127
9, 105800, Control_c, 7, 7, 110
9, 105804, Note_on_c, 7, 72, 0
9, 105810, Note_on_c, 7, 71, 116
9, 105830, Control_c, 7, 7, 109
9, 105834, Note_on_c, 7, 71, 0
9, 105840, Note_on_c, 7, 70, 79
9, 105840, Note_on_c, 7, 67, 110
9, 105865, Control_c, 7, 7, 108
9, 105895, Control_c, 7, 7, 107
9, 105925, Control_c, 7, 7, 106
9, 105936, Note_on_c, 7, 70, 0
9, 105960, Note_on_c, 7, 72, 96
9, 105960, Control_c, 7, 7, 105
9, 105975, Note_on_c, 7, 70, 118
9, 105984, Note_on_c, 7, 72, 0
9, 105990, Note_on_c, 7, 69, 89
9, 105990, Control_c, 7, 7, 104
9, 105999, Note_on_c, 7, 70, 0
9, 106005, Note_on_c, 7, 70, 113
9, 106014, Note_on_c, 7, 69, 0
9, 106020, Note_on_c, 7, 79, 117
9, 106020, Control_c, 7, 7, 103
9, 106029, Note_on_c, 7, 70, 0
9, 106055, Control_c, 7, 7, 102
9, 106085, Control_c, 7, 7, 101
9, 106115, Control_c, 7, 7, 100
9, 106128, Note_on_c, 7, 67, 0
9, 106140, Note_on_c, 7, 75, 95
9, 106150, Control_c, 7, 7, 99
9, 106154, Note_on_c, 7, 79, 0
9, 106180, Control_c, 7, 7, 98
9, 106199, Note_on_c, 7, 75, 0
9, 106200, Note_on_c, 7, 74, 113
9, 106200, Note_on_c, 7, 68, 101
9, 106210, Control_c, 7, 7, 97
9, 106344, Note_on_c, 7, 74, 0
9, 106380, Note_on_c, 7, 72, 117
9, 106476, Note_on_c, 7, 68, 0
9, 106492, Note_on_c, 7, 72, 0
9, 106500, Note_on_c, 7, 65, 104
9, 106500, Note_on_c, 7, 71, 50
9, 106500, Note_on_c, 7, 68, 88
9, 106548, Note_on_c, 7, 68, 0
9, 106548, Note_on_c, 7, 71, 0
9, 106548, Note_on_c, 7, 65, 0
9, 106560, Note_on_c, 7, 71, 113
9, 106560, Note_on_c, 7, 65, 100
9, 106560, Note_on_c, 7, 68, 86
9, 106656, Note_on_c, 7, 71, 0
9, 106680, Note_on_c, 7, 70, 101
9, 106704, Note_on_c, 7, 68, 0
9, 106704, Note_on_c, 7, 65, 0
9, 106728, Note_on_c, 7, 70, 0
9, 106740, Note_on_c, 7, 70, 111
9, 106740, Note_on_c, 7, 65, 108
9, 106740, Note_on_c, 7, 68, 88
9, 106836, Note_on_c, 7, 68, 0
9, 106836, Note_on_c, 7, 65, 0
9, 106836, Note_on_c, 7, 70, 0
9, 106860, Note_on_c, 7, 65, 104
9, 106860, Note_on_c, 7, 70, 100
9, 106860, Note_on_c, 7, 70, 82
9, 106908, Note_on_c, 7, 70, 0
9, 106908, Note_on_c, 7, 70, 0
9, 106908, Note_on_c, 7, 65, 0
9, 106920, Note_on_c, 7, 70, 103
9, 106920, Note_on_c, 7, 67, 105
9, 106932, Note_on_c, 7, 70, 0
9, 106935, Note_on_c, 7, 72, 125
9, 106947, Note_on_c, 7, 72, 0
9, 106950, Note_on_c, 7, 70, 103
9, 106962, Note_on_c, 7, 70, 0
9, 106965, Note_on_c, 7, 72, 127
9, 106977, Note_on_c, 7, 72, 0
9, 106980, Note_on_c, 7, 70, 103
9, 106992, Note_on_c, 7, 70, 0
9, 106995, Note_on_c, 7, 72, 123
9, 107007, Note_on_c, 7, 72, 0
9, 107010, Note_on_c, 7, 70, 109
9, 107022, Note_on_c, 7, 70, 0
9, 107025, Note_on_c, 7, 72, 112
9, 107037, Note_on_c, 7, 72, 0
9, 107040, Note_on_c, 7, 70, 107
9, 107052, Note_on_c, 7, 70, 0
9, 107055, Note_on_c, 7, 72, 114
9, 107067, Note_on_c, 7, 72, 0
9, 107070, Note_on_c, 7, 70, 96
9, 107082, Note_on_c, 7, 70, 0
9, 107085, Note_on_c, 7, 69, 111
9, 107109, Note_on_c, 7, 69, 0
9, 107115, Note_on_c, 7, 70, 105
9, 107139, Note_on_c, 7, 70, 0
9, 107145, Note_on_c, 7, 75, 101
9, 107196, Note_on_c, 7, 67, 0
9, 107241, Note_on_c, 7, 75, 0
9, 107265, Note_on_c, 7, 70, 93
9, 107280, Note_on_c, 7, 70, 78
9, 107280, Note_on_c, 7, 65, 109
9, 107292, Note_on_c, 7, 70, 0
9, 107295, Note_on_c, 7, 70, 91
9, 107295, Note_on_c, 7, 77, 105
9, 107313, Note_on_c, 7, 70, 0
9, 107391, Note_on_c, 7, 77, 0
9, 107391, Note_on_c, 7, 70, 0
9, 107415, Note_on_c, 7, 70, 82
9, 107424, Note_on_c, 7, 65, 0
9, 107460, Note_on_c, 7, 67, 109
9, 107463, Note_on_c, 7, 70, 0
9, 107475, Note_on_c, 7, 70, 93
9, 107487, Note_on_c, 7, 70, 0
9, 107490, Note_on_c, 7, 70, 88
9, 107490, Note_on_c, 7, 79, 107
9, 107586, Note_on_c, 7, 79, 0
9, 107586, Note_on_c, 7, 70, 0
9, 107604, Note_on_c, 7, 67, 0
9, 107610, Note_on_c, 7, 70, 78
9, 107640, Note_on_c, 7, 70, 113
9, 107652, Note_on_c, 7, 70, 0
9, 107655, Note_on_c, 7, 80, 86
9, 107655, Note_on_c, 7, 68, 84
9, 107655, Note_on_c, 7, 70, 111
9, 107658, Note_on_c, 7, 70, 0
9, 107931, Note_on_c, 7, 70, 0
9, 107931, Note_on_c, 7, 80, 0
9, 107931, Note_on_c, 7, 68, 0
9, 107955, Note_on_c, 7, 70, 95
9, 108000, Note_on_c, 7, 70, 80
9, 108000, Note_on_c, 7, 68, 86
9, 108000, Control_c, 7, 7, 102
9, 108003, Note_on_c, 7, 70, 0
9, 108012, Note_on_c, 7, 70, 0
9, 108015, Note_on_c, 7, 70, 92
9, 108015, Note_on_c, 7, 80, 82
9, 108015, Control_c, 7, 7, 103
9, 108025, Control_c, 7, 7, 104
9, 108040, Control_c, 7, 7, 105
9, 108050, Control_c, 7, 7, 106
9, 108065, Control_c, 7, 7, 107
9, 108075, Control_c, 7, 7, 108
9, 108090, Control_c, 7, 7, 109
9, 108100, Control_c, 7, 7, 110
9, 108111, Note_on_c, 7, 80, 0
9, 108111, Note_on_c, 7, 70, 0
9, 108115, Control_c, 7, 7, 111
9, 108125, Control_c, 7, 7, 112
9, 108135, Note_on_c, 7, 70, 81
9, 108140, Control_c, 7, 7, 113
9, 108144, Note_on_c, 7, 68, 0
9, 108150, Control_c, 7, 7, 114
9, 108165, Control_c, 7, 7, 115
9, 108175, Control_c, 7, 7, 116
9, 108180, Note_on_c, 7, 70, 86
9, 108183, Note_on_c, 7, 70, 0
9, 108195, Note_on_c, 7, 75, 100
9, 108207, Note_on_c, 7, 75, 0
9, 108210, Note_on_c, 7, 75, 95
9, 108210, Note_on_c, 7, 82, 92
9, 108306, Note_on_c, 7, 82, 0
9, 108306, Note_on_c, 7, 75, 0
9, 108324, Note_on_c, 7, 70, 0
9, 108330, Note_on_c, 7, 75, 100
9, 108360, Note_on_c, 7, 75, 88
9, 108360, Control_c, 7, 7, 101
9, 108372, Note_on_c, 7, 75, 0
9, 108375, Note_on_c, 7, 72, 98
9, 108375, Note_on_c, 7, 84, 95
9, 108375, Note_on_c, 7, 75, 78
9, 108378, Note_on_c, 7, 75, 0
9, 108380, Control_c, 7, 7, 102
9, 108395, Control_c, 7, 7, 103
9, 108415, Control_c, 7, 7, 104
9, 108430, Control_c, 7, 7, 105
9, 108450, Control_c, 7, 7, 106
9, 108465, Control_c, 7, 7, 107
9, 108485, Control_c, 7, 7, 108
9, 108500, Control_c, 7, 7, 109
9, 108520, Control_c, 7, 7, 110
9, 108535, Control_c, 7, 7, 111
9, 108555, Control_c, 7, 7, 112
9, 108570, Control_c, 7, 7, 113
9, 108590, Control_c, 7, 7, 114
9, 108605, Control_c, 7, 7, 115
9, 108625, Control_c, 7, 7, 116
9, 108640, Control_c, 7, 7, 117
9, 108651, Note_on_c, 7, 75, 0
9, 108651, Note_on_c, 7, 72, 0
9, 108651, Note_on_c, 7, 84, 0
9, 108660, Control_c, 7, 7, 118
9, 108675, Note_on_c, 7, 77, 101
9, 108675, Control_c, 7, 7, 119
9, 108695, Control_c, 7, 7, 120
9, 108710, Control_c, 7, 7, 121
9, 108720, Note_on_c, 7, 75, 99
9, 108720, Note_on_c, 7, 72, 102
9, 108720, Note_on_c, 7, 77, 108
9, 108723, Note_on_c, 7, 77, 0
9, 108725, Control_c, 7, 7, 122
9, 108732, Note_on_c, 7, 77, 0
9, 108735, Note_on_c, 7, 84, 114
9, 108735, Note_on_c, 7, 77, 123
9, 108735, Control_c, 7, 7, 102
9, 108755, Control_c, 7, 7, 103
9, 108775, Control_c, 7, 7, 104
9, 108790, Control_c, 7, 7, 105
9, 108810, Control_c, 7, 7, 106
9, 108825, Control_c, 7, 7, 107
9, 108831, Note_on_c, 7, 77, 0
9, 108831, Note_on_c, 7, 84, 0
9, 108845, Control_c, 7, 7, 108
9, 108855, Note_on_c, 7, 77, 110
9, 108864, Note_on_c, 7, 72, 0
9, 108864, Note_on_c, 7, 75, 0
9, 108865, Control_c, 7, 7, 109
9, 108880, Control_c, 7, 7, 110
9, 108900, Note_on_c, 7, 77, 106
9, 108900, Note_on_c, 7, 74, 100
9, 108900, Control_c, 7, 7, 111
9, 108903, Note_on_c, 7, 77, 0
9, 108915, Note_on_c, 7, 77, 104
9, 108915, Control_c, 7, 7, 112
9, 108927, Note_on_c, 7, 77, 0
9, 108930, Note_on_c, 7, 86, 103
9, 108930, Note_on_c, 7, 77, 100
9, 108935, Control_c, 7, 7, 113
9, 108955, Control_c, 7, 7, 114
9, 108970, Control_c, 7, 7, 115
9, 108990, Control_c, 7, 7, 116
9, 109005, Control_c, 7, 7, 117
9, 109025, Control_c, 7, 7, 118
9, 109026, Note_on_c, 7, 77, 0
9, 109026, Note_on_c, 7, 86, 0
9, 109044, Note_on_c, 7, 74, 0
9, 109044, Note_on_c, 7, 77, 0
9, 109045, Control_c, 7, 7, 119
9, 109050, Note_on_c, 7, 77, 103
9, 109060, Control_c, 7, 7, 120
9, 109080, Note_on_c, 7, 77, 116
9, 109080, Control_c, 7, 7, 121
9, 109092, Note_on_c, 7, 77, 0
9, 109095, Note_on_c, 7, 75, 105
9, 109095, Note_on_c, 7, 81, 107
9, 109095, Note_on_c, 7, 77, 106
9, 109095, Note_on_c, 7, 87, 105
9, 109095, Control_c, 7, 7, 122
9, 109098, Note_on_c, 7, 77, 0
9, 109371, Note_on_c, 7, 81, 0
9, 109371, Note_on_c, 7, 77, 0
9, 109371, Note_on_c, 7, 75, 0
9, 109371, Note_on_c, 7, 87, 0
9, 109395, Note_on_c, 7, 77, 102
9, 109440, Note_on_c, 7, 77, 120
9, 109440, Note_on_c, 7, 82, 75
9, 109443, Note_on_c, 7, 77, 0
9, 109445, Control_c, 7, 7, 103
9, 109452, Note_on_c, 7, 82, 0
9, 109455, Note_on_c, 7, 89, 111
9, 109455, Note_on_c, 7, 82, 90
9, 109460, Control_c, 7, 7, 104
9, 109475, Control_c, 7, 7, 105
9, 109490, Control_c, 7, 7, 106
9, 109505, Control_c, 7, 7, 107
9, 109520, Control_c, 7, 7, 108
9, 109535, Control_c, 7, 7, 109
9, 109550, Control_c, 7, 7, 110
9, 109551, Note_on_c, 7, 82, 0
9, 109551, Note_on_c, 7, 89, 0
9, 109565, Control_c, 7, 7, 111
9, 109575, Note_on_c, 7, 82, 79
9, 109580, Control_c, 7, 7, 112
9, 109584, Note_on_c, 7, 77, 0
9, 109595, Control_c, 7, 7, 113
9, 109610, Control_c, 7, 7, 114
9, 109620, Note_on_c, 7, 79, 117
9, 109623, Note_on_c, 7, 82, 0
9, 109625, Control_c, 7, 7, 115
9, 109635, Note_on_c, 7, 82, 89
9, 109640, Control_c, 7, 7, 116
9, 109647, Note_on_c, 7, 82, 0
9, 109650, Note_on_c, 7, 82, 82
9, 109650, Note_on_c, 7, 91, 104
9, 109655, Control_c, 7, 7, 117
9, 109670, Control_c, 7, 7, 118
9, 109685, Control_c, 7, 7, 119
9, 109700, Control_c, 7, 7, 120
9, 109715, Control_c, 7, 7, 121
9, 109730, Control_c, 7, 7, 122
9, 109745, Control_c, 7, 7, 123
9, 109746, Note_on_c, 7, 91, 0
9, 109746, Note_on_c, 7, 82, 0
9, 109760, Control_c, 7, 7, 124
9, 109764, Note_on_c, 7, 79, 0
9, 109770, Note_on_c, 7, 82, 85
9, 109775, Control_c, 7, 7, 125
9, 109790, Control_c, 7, 7, 126
9, 109800, Note_on_c, 7, 80, 92
9, 109805, Control_c, 7, 7, 127
9, 109818, Note_on_c, 7, 82, 0
9, 109830, Note_on_c, 7, 82, 113
9, 109860, Note_on_c, 7, 86, 127
9, 109890, Note_on_c, 7, 89, 127
9, 109914, Note_on_c, 7, 89, 0
9, 109914, Note_on_c, 7, 80, 0
9, 109914, Note_on_c, 7, 82, 0
9, 109914, Note_on_c, 7, 86, 0
9, 109920, Note_on_c, 7, 92, 83
9, 109920, Note_on_c, 7, 82, 86
9, 109920, Note_on_c, 7, 86, 127
9, 109920, Note_on_c, 7, 89, 105
9, 109944, Note_on_c, 7, 89, 0
9, 109944, Note_on_c, 7, 92, 0
9, 109944, Note_on_c, 7, 82, 0
9, 109944, Note_on_c, 7, 86, 0
9, 110520, Note_on_c, 7, 70, 94
9, 110550, Note_on_c, 7, 72, 127
9, 110580, Note_on_c, 7, 75, 121
9, 110610, Note_on_c, 7, 79, 127
9, 110634, Note_on_c, 7, 70, 0
9, 110640, Note_on_c, 7, 70, 92
9, 110640, Note_on_c, 7, 82, 92
9, 110664, Note_on_c, 7, 82, 0
9, 110664, Note_on_c, 7, 72, 0
9, 110664, Note_on_c, 7, 79, 0
9, 110664, Note_on_c, 7, 75, 0
9, 110664, Note_on_c, 7, 70, 0
9, 112500, Note_on_c, 7, 80, 111
9, 112500, Note_on_c, 7, 92, 115
9, 112548, Note_on_c, 7, 92, 0
9, 112548, Note_on_c, 7, 80, 0
9, 112560, Note_on_c, 7, 91, 127
9, 112560, Note_on_c, 7, 79, 96
9, 112608, Note_on_c, 7, 79, 0
9, 112608, Note_on_c, 7, 91, 0
9, 112620, Note_on_c, 7, 89, 127
9, 112620, Note_on_c, 7, 77, 106
9, 112668, Note_on_c, 7, 77, 0
9, 112668, Note_on_c, 7, 89, 0
9, 112680, Note_on_c, 7, 87, 123
9, 112680, Note_on_c, 7, 75, 123
9, 112728, Note_on_c, 7, 75, 0
9, 112728, Note_on_c, 7, 87, 0
9, 112740, Note_on_c, 7, 86, 125
9, 112740, Note_on_c, 7, 74, 111
9, 112788, Note_on_c, 7, 74, 0
9, 112788, Note_on_c, 7, 86, 0
9, 112800, Note_on_c, 7, 72, 117
9, 112800, Note_on_c, 7, 84, 116
9, 112848, Note_on_c, 7, 84, 0
9, 112848, Note_on_c, 7, 72, 0
9, 112860, Note_on_c, 7, 70, 96
9, 112860, Note_on_c, 7, 82, 103
9, 112956, Note_on_c, 7, 82, 0
9, 112956, Note_on_c, 7, 70, 0
9, 112980, Note_on_c, 7, 70, 109
9, 112980, Note_on_c, 7, 82, 121
9, 113028, Note_on_c, 7, 82, 0
9, 113028, Note_on_c, 7, 70, 0
9, 113220, Note_on_c, 7, 94, 118
9, 113220, Note_on_c, 7, 82, 115
9, 113268, Note_on_c, 7, 82, 0
9, 113268, Note_on_c, 7, 94, 0
9, 113280, Note_on_c, 7, 92, 109
9, 113280, Note_on_c, 7, 80, 113
9, 113328, Note_on_c, 7, 80, 0
9, 113328, Note_on_c, 7, 92, 0
9, 113340, Note_on_c, 7, 79, 109
9, 113340, Note_on_c, 7, 91, 117
9, 113388, Note_on_c, 7, 91, 0
9, 113388, Note_on_c, 7, 79, 0
9, 113400, Note_on_c, 7, 89, 114
9, 113400, Note_on_c, 7, 77, 113
9, 113448, Note_on_c, 7, 77, 0
9, 113448, Note_on_c, 7, 89, 0
9, 113460, Note_on_c, 7, 76, 127
9, 113460, Note_on_c, 7, 88, 127
9, 113508, Note_on_c, 7, 88, 0
9, 113508, Note_on_c, 7, 76, 0
9, 113520, Note_on_c, 7, 85, 126
9, 113520, Note_on_c, 7, 73, 115
9, 113568, Note_on_c, 7, 73, 0
9, 113568, Note_on_c, 7, 85, 0
9, 113580, Note_on_c, 7, 72, 109
9, 113580, Note_on_c, 7, 84, 101
9, 113676, Note_on_c, 7, 84, 0
9, 113676, Note_on_c, 7, 72, 0
9, 113700, Note_on_c, 7, 72, 111
9, 113700, Note_on_c, 7, 84, 110
9, 113748, Note_on_c, 7, 84, 0
9, 113748, Note_on_c, 7, 72, 0
9, 113880, Note_on_c, 7, 60, 114
9, 113892, Note_on_c, 7, 60, 0
9, 113895, Note_on_c, 7, 65, 127
9, 113907, Note_on_c, 7, 65, 0
9, 113910, Note_on_c, 7, 68, 126
9, 113922, Note_on_c, 7, 68, 0
9, 113925, Note_on_c, 7, 72, 127
9, 113937, Note_on_c, 7, 72, 0
9, 113940, Note_on_c, 7, 77, 114
9, 113952, Note_on_c, 7, 77, 0
9, 113955, Note_on_c, 7, 80, 118
9, 113967, Note_on_c, 7, 80, 0
9, 113970, Note_on_c, 7, 84, 127
9, 113982, Note_on_c, 7, 84, 0
9, 113985, Note_on_c, 7, 89, 125
9, 113997, Note_on_c, 7, 89, 0
9, 114000, Note_on_c, 7, 84, 109
9, 114000, Note_on_c, 7, 96, 127
9, 114000, Note_on_c, 7, 92, 86
9, 114012, Note_on_c, 7, 92, 0
9, 114048, Note_on_c, 7, 96, 0
9, 114048, Note_on_c, 7, 84, 0
9, 114060, Note_on_c, 7, 82, 115
9, 114060, Note_on_c, 7, 94, 113
9, 114108, Note_on_c, 7, 94, 0
9, 114108, Note_on_c, 7, 82, 0
9, 114120, Note_on_c, 7, 92, 123
9, 114120, Note_on_c, 7, 80, 99
9, 114168, Note_on_c, 7, 80, 0
9, 114168, Note_on_c, 7, 92, 0
9, 114180, Note_on_c, 7, 79, 127
9, 114180, Note_on_c, 7, 91, 127
9, 114228, Note_on_c, 7, 91, 0
9, 114228, Note_on_c, 7, 79, 0
9, 114240, Note_on_c, 7, 77, 125
9, 114240, Note_on_c, 7, 89, 110
9, 114288, Note_on_c, 7, 89, 0
9, 114288, Note_on_c, 7, 77, 0
9, 114300, Note_on_c, 7, 88, 127
9, 114300, Note_on_c, 7, 76, 127
9, 114348, Note_on_c, 7, 76, 0
9, 114348, Note_on_c, 7, 88, 0
9, 114360, Note_on_c, 7, 89, 127
9, 114360, Note_on_c, 7, 77, 127
9, 114372, Note_on_c, 7, 77, 0
9, 114372, Note_on_c, 7, 89, 0
9, 114375, Note_on_c, 7, 91, 125
9, 114375, Note_on_c, 7, 79, 116
9, 114387, Note_on_c, 7, 79, 0
9, 114387, Note_on_c, 7, 91, 0
9, 114390, Note_on_c, 7, 89, 127
9, 114390, Note_on_c, 7, 77, 127
9, 114402, Note_on_c, 7, 77, 0
9, 114402, Note_on_c, 7, 89, 0
9, 114405, Note_on_c, 7, 91, 125
9, 114405, Note_on_c, 7, 79, 127
9, 114417, Note_on_c, 7, 79, 0
9, 114417, Note_on_c, 7, 91, 0
9, 114420, Note_on_c, 7, 77, 125
9, 114420, Note_on_c, 7, 89, 125
9, 114432, Note_on_c, 7, 89, 0
9, 114432, Note_on_c, 7, 77, 0
9, 114435, Note_on_c, 7, 91, 125
9, 114435, Note_on_c, 7, 79, 125
9, 114447, Note_on_c, 7, 79, 0
9, 114447, Note_on_c, 7, 91, 0
9, 114450, Note_on_c, 7, 89, 125
9, 114450, Note_on_c, 7, 77, 125
9, 114462, Note_on_c, 7, 77, 0
9, 114462, Note_on_c, 7, 89, 0
9, 114465, Note_on_c, 7, 91, 125
9, 114465, Note_on_c, 7, 79, 125
9, 114477, Note_on_c, 7, 79, 0
9, 114477, Note_on_c, 7, 91, 0
9, 114480, Note_on_c, 7, 79, 100
9, 114480, Note_on_c, 7, 91, 107
9, 114528, Note_on_c, 7, 91, 0
9, 114528, Note_on_c, 7, 79, 0
9, 114540, Note_on_c, 7, 80, 96
9, 114540, Note_on_c, 7, 92, 99
9, 114588, Note_on_c, 7, 92, 0
9, 114588, Note_on_c, 7, 80, 0
9, 114600, Note_on_c, 7, 84, 103
9, 114600, Note_on_c, 7, 72, 108
9, 114648, Note_on_c, 7, 72, 0
9, 114648, Note_on_c, 7, 84, 0
9, 114660, Note_on_c, 7, 74, 102
9, 114660, Note_on_c, 7, 86, 105
9, 114708, Note_on_c, 7, 86, 0
9, 114708, Note_on_c, 7, 74, 0
9, 114720, Note_on_c, 7, 75, 99
9, 114720, Note_on_c, 7, 87, 115
9, 114816, Note_on_c, 7, 87, 0
9, 114816, Note_on_c, 7, 75, 0
9, 114840, Note_on_c, 7, 77, 103
9, 114840, Note_on_c, 7, 89, 103
9, 114888, Note_on_c, 7, 89, 0
9, 114888, Note_on_c, 7, 77, 0
9, 114900, Note_on_c, 7, 77, 98
9, 114900, Note_on_c, 7, 89, 111
9, 114944, Note_on_c, 7, 77, 0
9, 115109, Note_on_c, 7, 89, 0
9, 115140, Note_on_c, 7, 87, 103
9, 115188, Note_on_c, 7, 87, 0
9, 115200, Note_on_c, 7, 86, 121
9, 115248, Note_on_c, 7, 86, 0
9, 115260, Note_on_c, 7, 84, 127
9, 115308, Note_on_c, 7, 84, 0
9, 115320, Note_on_c, 7, 86, 113
9, 115368, Note_on_c, 7, 86, 0
9, 115380, Note_on_c, 7, 82, 101
9, 115428, Note_on_c, 7, 82, 0
9, 115440, Note_on_c, 7, 84, 127
9, 115488, Note_on_c, 7, 84, 0
9, 115500, Note_on_c, 7, 86, 123
9, 115548, Note_on_c, 7, 86, 0
9, 115560, Note_on_c, 7, 82, 109
9, 115608, Note_on_c, 7, 82, 0
9, 115620, Note_on_c, 7, 82, 102
9, 115680, Note_on_c, 7, 91, 118
9, 115800, Note_on_c, 7, 82, 0
9, 115848, Note_on_c, 7, 91, 0
9, 115860, Note_on_c, 7, 89, 127
9, 115908, Note_on_c, 7, 89, 0
9, 115920, Note_on_c, 7, 87, 111
9, 115968, Note_on_c, 7, 87, 0
9, 115980, Note_on_c, 7, 86, 127
9, 116028, Note_on_c, 7, 86, 0
9, 116040, Note_on_c, 7, 87, 123
9, 116088, Note_on_c, 7, 87, 0
9, 116100, Note_on_c, 7, 82, 101
9, 116148, Note_on_c, 7, 82, 0
9, 116160, Note_on_c, 7, 86, 114
9, 116208, Note_on_c, 7, 86, 0
9, 116220, Note_on_c, 7, 87, 113
9, 116268, Note_on_c, 7, 87, 0
9, 116280, Note_on_c, 7, 82, 113
9, 116328, Note_on_c, 7, 82, 0
9, 116340, Note_on_c, 7, 82, 127
9, 116340, Note_on_c, 7, 82, 99
9, 116388, Note_on_c, 7, 82, 0
9, 116400, Note_on_c, 7, 92, 105
9, 116568, Note_on_c, 7, 92, 0
9, 116568, Note_on_c, 7, 82, 0
9, 116580, Note_on_c, 7, 91, 127
9, 116628, Note_on_c, 7, 91, 0
9, 116640, Note_on_c, 7, 89, 127
9, 116688, Note_on_c, 7, 89, 0
9, 116700, Note_on_c, 7, 88, 127
9, 116748, Note_on_c, 7, 88, 0
9, 116760, Note_on_c, 7, 89, 123
9, 116808, Note_on_c, 7, 89, 0
9, 116820, Note_on_c, 7, 82, 101
9, 116868, Note_on_c, 7, 82, 0
9, 116880, Note_on_c, 7, 88, 121
9, 116928, Note_on_c, 7, 88, 0
9, 116940, Note_on_c, 7, 89, 127
9, 116988, Note_on_c, 7, 89, 0
9, 117000, Note_on_c, 7, 82, 103
9, 117024, Note_on_c, 7, 82, 0
9, 117030, Note_on_c, 7, 94, 95
9, 117054, Note_on_c, 7, 94, 0
9, 117060, Note_on_c, 7, 94, 111
9, 117084, Note_on_c, 7, 94, 0
9, 117090, Note_on_c, 7, 91, 127
9, 117114, Note_on_c, 7, 91, 0
9, 117120, Note_on_c, 7, 87, 96
9, 117144, Note_on_c, 7, 87, 0
9, 117150, Note_on_c, 7, 94, 109
9, 117174, Note_on_c, 7, 94, 0
9, 117180, Note_on_c, 7, 91, 112
9, 117204, Note_on_c, 7, 91, 0
9, 117210, Note_on_c, 7, 87, 100
9, 117234, Note_on_c, 7, 87, 0
9, 117240, Note_on_c, 7, 96, 127
9, 117264, Note_on_c, 7, 96, 0
9, 117270, Note_on_c, 7, 92, 113
9, 117294, Note_on_c, 7, 92, 0
9, 117300, Note_on_c, 7, 87, 90
9, 117324, Note_on_c, 7, 87, 0
9, 117330, Note_on_c, 7, 96, 127
9, 117354, Note_on_c, 7, 96, 0
9, 117360, Note_on_c, 7, 92, 109
9, 117384, Note_on_c, 7, 92, 0
9, 117390, Note_on_c, 7, 87, 94
9, 117414, Note_on_c, 7, 87, 0
9, 117420, Note_on_c, 7, 94, 121
9, 117444, Note_on_c, 7, 94, 0
9, 117450, Note_on_c, 7, 91, 116
9, 117474, Note_on_c, 7, 91, 0
9, 117480, Note_on_c, 7, 87, 99
9, 117504, Note_on_c, 7, 87, 0
9, 117510, Note_on_c, 7, 94, 121
9, 117534, Note_on_c, 7, 94, 0
9, 117540, Note_on_c, 7, 91, 117
9, 117564, Note_on_c, 7, 91, 0
9, 117570, Note_on_c, 7, 87, 99
9, 117594, Note_on_c, 7, 87, 0
9, 117600, Note_on_c, 7, 94, 121
9, 117624, Note_on_c, 7, 94, 0
9, 117630, Note_on_c, 7, 92, 101
9, 117654, Note_on_c, 7, 92, 0
9, 117660, Note_on_c, 7, 89, 110
9, 117684, Note_on_c, 7, 89, 0
9, 117690, Note_on_c, 7, 94, 109
9, 117714, Note_on_c, 7, 94, 0
9, 117720, Note_on_c, 7, 92, 107
9, 117744, Note_on_c, 7, 92, 0
9, 117750, Note_on_c, 7, 89, 117
9, 117774, Note_on_c, 7, 89, 0
9, 117780, Note_on_c, 7, 94, 111
9, 117804, Note_on_c, 7, 94, 0
9, 117810, Note_on_c, 7, 91, 127
9, 117834, Note_on_c, 7, 91, 0
9, 117840, Note_on_c, 7, 87, 96
9, 117864, Note_on_c, 7, 87, 0
9, 117870, Note_on_c, 7, 94, 121
9, 117894, Note_on_c, 7, 94, 0
9, 117900, Note_on_c, 7, 91, 121
9, 117924, Note_on_c, 7, 91, 0
9, 117930, Note_on_c, 7, 87, 97
9, 117954, Note_on_c, 7, 87, 0
9, 117960, Note_on_c, 7, 96, 127
9, 117984, Note_on_c, 7, 96, 0
9, 117990, Note_on_c, 7, 92, 121
9, 118014, Note_on_c, 7, 92, 0
9, 118020, Note_on_c, 7, 87, 100
9, 118044, Note_on_c, 7, 87, 0
9, 118050, Note_on_c, 7, 96, 127
9, 118074, Note_on_c, 7, 96, 0
9, 118080, Note_on_c, 7, 92, 123
9, 118104, Note_on_c, 7, 92, 0
9, 118110, Note_on_c, 7, 87, 103
9, 118134, Note_on_c, 7, 87, 0
9, 118140, Note_on_c, 7, 94, 115
9, 118164, Note_on_c, 7, 94, 0
9, 118170, Note_on_c, 7, 91, 110
9, 118194, Note_on_c, 7, 91, 0
9, 118200, Note_on_c, 7, 87, 93
9, 118224, Note_on_c, 7, 87, 0
9, 118230, Note_on_c, 7, 94, 111
9, 118254, Note_on_c, 7, 94, 0
9, 118260, Note_on_c, 7, 91, 123
9, 118284, Note_on_c, 7, 91, 0
9, 118290, Note_on_c, 7, 87, 103
9, 118314, Note_on_c, 7, 87, 0
9, 118320, Note_on_c, 7, 94, 115
9, 118344, Note_on_c, 7, 94, 0
9, 118350, Note_on_c, 7, 92, 118
9, 118374, Note_on_c, 7, 92, 0
9, 118380, Note_on_c, 7, 89, 104
9, 118404, Note_on_c, 7, 89, 0
9, 118410, Note_on_c, 7, 94, 107
9, 118434, Note_on_c, 7, 94, 0
9, 118440, Note_on_c, 7, 92, 109
9, 118464, Note_on_c, 7, 92, 0
9, 118470, Note_on_c, 7, 89, 117
9, 118494, Note_on_c, 7, 89, 0
9, 118500, Note_on_c, 7, 94, 118
9, 118524, Note_on_c, 7, 94, 0
9, 118530, Note_on_c, 7, 91, 125
9, 118554, Note_on_c, 7, 91, 0
9, 118560, Note_on_c, 7, 87, 105
9, 118584, Note_on_c, 7, 87, 0
9, 118590, Note_on_c, 7, 94, 109
9, 118614, Note_on_c, 7, 94, 0
9, 118620, Note_on_c, 7, 91, 116
9, 118644, Note_on_c, 7, 91, 0
9, 118650, Note_on_c, 7, 87, 89
9, 118674, Note_on_c, 7, 87, 0
9, 118680, Note_on_c, 7, 96, 127
9, 118704, Note_on_c, 7, 96, 0
9, 118710, Note_on_c, 7, 92, 126
9, 118734, Note_on_c, 7, 92, 0
9, 118740, Note_on_c, 7, 87, 95
9, 118764, Note_on_c, 7, 87, 0
9, 118770, Note_on_c, 7, 96, 127
9, 118794, Note_on_c, 7, 96, 0
9, 118800, Note_on_c, 7, 92, 121
9, 118824, Note_on_c, 7, 92, 0
9, 118830, Note_on_c, 7, 87, 97
9, 118854, Note_on_c, 7, 87, 0
9, 118860, Note_on_c, 7, 94, 118
9, 118884, Note_on_c, 7, 94, 0
9, 118890, Note_on_c, 7, 91, 125
9, 118914, Note_on_c, 7, 91, 0
9, 118920, Note_on_c, 7, 87, 96
9, 118944, Note_on_c, 7, 87, 0
9, 118950, Note_on_c, 7, 94, 115
9, 118974, Note_on_c, 7, 94, 0
9, 118980, Note_on_c, 7, 91, 127
9, 119004, Note_on_c, 7, 91, 0
9, 119010, Note_on_c, 7, 87, 92
9, 119034, Note_on_c, 7, 87, 0
9, 119040, Note_on_c, 7, 96, 127
9, 119064, Note_on_c, 7, 96, 0
9, 119070, Note_on_c, 7, 92, 115
9, 119094, Note_on_c, 7, 92, 0
9, 119100, Note_on_c, 7, 87, 96
9, 119124, Note_on_c, 7, 87, 0
9, 119130, Note_on_c, 7, 96, 123
9, 119154, Note_on_c, 7, 96, 0
9, 119160, Note_on_c, 7, 92, 121
9, 119184, Note_on_c, 7, 92, 0
9, 119190, Note_on_c, 7, 87, 101
9, 119214, Note_on_c, 7, 87, 0
9, 119220, Note_on_c, 7, 94, 121
9, 119244, Note_on_c, 7, 94, 0
9, 119250, Note_on_c, 7, 91, 121
9, 119274, Note_on_c, 7, 91, 0
9, 119280, Note_on_c, 7, 87, 103
9, 119304, Note_on_c, 7, 87, 0
9, 119310, Note_on_c, 7, 96, 127
9, 119334, Note_on_c, 7, 96, 0
9, 119340, Note_on_c, 7, 92, 79
9, 119364, Note_on_c, 7, 92, 0
9, 119370, Note_on_c, 7, 87, 95
9, 119394, Note_on_c, 7, 87, 0
9, 119400, Note_on_c, 7, 94, 105
9, 119424, Note_on_c, 7, 94, 0
9, 119430, Note_on_c, 7, 91, 113
9, 119454, Note_on_c, 7, 91, 0
9, 119460, Note_on_c, 7, 87, 88
9, 119484, Note_on_c, 7, 87, 0
9, 119490, Note_on_c, 7, 96, 120
9, 119514, Note_on_c, 7, 96, 0
9, 119520, Note_on_c, 7, 92, 105
9, 119544, Note_on_c, 7, 92, 0
9, 119550, Note_on_c, 7, 87, 91
9, 119574, Note_on_c, 7, 87, 0
9, 119580, Note_on_c, 7, 94, 109
9, 119604, Note_on_c, 7, 94, 0
9, 119610, Note_on_c, 7, 91, 114
9, 119634, Note_on_c, 7, 91, 0
9, 119640, Note_on_c, 7, 87, 89
9, 119664, Note_on_c, 7, 87, 0
9, 119670, Note_on_c, 7, 96, 127
9, 119694, Note_on_c, 7, 96, 0
9, 119700, Note_on_c, 7, 92, 118
9, 119724, Note_on_c, 7, 92, 0
9, 119730, Note_on_c, 7, 87, 107
9, 119754, Note_on_c, 7, 87, 0
9, 119760, Note_on_c, 7, 94, 111
9, 119784, Note_on_c, 7, 94, 0
9, 119790, Note_on_c, 7, 91, 127
9, 119814, Note_on_c, 7, 91, 0
9, 119820, Note_on_c, 7, 87, 101
9, 119844, Note_on_c, 7, 87, 0
9, 119850, Note_on_c, 7, 96, 127
9, 119874, Note_on_c, 7, 96, 0
9, 119880, Note_on_c, 7, 92, 111
9, 119904, Note_on_c, 7, 92, 0
9, 119910, Note_on_c, 7, 87, 107
9, 119934, Note_on_c, 7, 87, 0
9, 119940, Note_on_c, 7, 73, 111
9, 119964, Note_on_c, 7, 73, 0
9, 119970, Note_on_c, 7, 85, 111
9, 119994, Note_on_c, 7, 85, 0
9, 120000, Note_on_c, 7, 70, 107
9, 120024, Note_on_c, 7, 70, 0
9, 120030, Note_on_c, 7, 82, 107
9, 120054, Note_on_c, 7, 82, 0
9, 120060, Note_on_c, 7, 67, 106
9, 120084, Note_on_c, 7, 67, 0
9, 120090, Note_on_c, 7, 79, 110
9, 120114, Note_on_c, 7, 79, 0
9, 120120, Note_on_c, 7, 75, 97
9, 120144, Note_on_c, 7, 75, 0
9, 120150, Note_on_c, 7, 87, 105
9, 120174, Note_on_c, 7, 87, 0
9, 120180, Note_on_c, 7, 73, 100
9, 120204, Note_on_c, 7, 73, 0
9, 120210, Note_on_c, 7, 85, 111
9, 120234, Note_on_c, 7, 85, 0
9, 120240, Note_on_c, 7, 70, 118
9, 120264, Note_on_c, 7, 70, 0
9, 120270, Note_on_c, 7, 82, 123
9, 120294, Note_on_c, 7, 82, 0
9, 120300, Note_on_c, 7, 67, 117
9, 120324, Note_on_c, 7, 67, 0
9, 120330, Note_on_c, 7, 79, 123
9, 120354, Note_on_c, 7, 79, 0
9, 120360, Note_on_c, 7, 63, 126
9, 120384, Note_on_c, 7, 63, 0
9, 120390, Note_on_c, 7, 75, 126
9, 120414, Note_on_c, 7, 75, 0
9, 120420, Note_on_c, 7, 61, 123
9, 120444, Note_on_c, 7, 61, 0
9, 120450, Note_on_c, 7, 73, 118
9, 120474, Note_on_c, 7, 73, 0
9, 120480, Note_on_c, 7, 58, 101
9, 120504, Note_on_c, 7, 58, 0
9, 120510, Note_on_c, 7, 70, 121
9, 120534, Note_on_c, 7, 70, 0
9, 120540, Note_on_c, 7, 55, 109
9, 120564, Note_on_c, 7, 55, 0
9, 120570, Note_on_c, 7, 67, 127
9, 120594, Note_on_c, 7, 67, 0
9, 120600, Note_on_c, 7, 51, 115
9, 120624, Note_on_c, 7, 51, 0
9, 120630, Note_on_c, 7, 63, 123
9, 120654, Note_on_c, 7, 63, 0
9, 120660, Note_on_c, 7, 55, 127
9, 120684, Note_on_c, 7, 55, 0
9, 120690, Note_on_c, 7, 67, 127
9, 120714, Note_on_c, 7, 67, 0
9, 120720, Note_on_c, 7, 58, 118
9, 120744, Note_on_c, 7, 58, 0
9, 120750, Note_on_c, 7, 70, 118
9, 120774, Note_on_c, 7, 70, 0
9, 120780, Note_on_c, 7, 61, 121
9, 120804, Note_on_c, 7, 61, 0
9, 120810, Note_on_c, 7, 73, 115
9, 120834, Note_on_c, 7, 73, 0
9, 120840, Note_on_c, 7, 63, 115
9, 120864, Note_on_c, 7, 63, 0
9, 120870, Note_on_c, 7, 75, 118
9, 120894, Note_on_c, 7, 75, 0
9, 120900, Note_on_c, 7, 67, 127
9, 120924, Note_on_c, 7, 67, 0
9, 120930, Note_on_c, 7, 79, 127
9, 120954, Note_on_c, 7, 79, 0
9, 120960, Note_on_c, 7, 70, 121
9, 120984, Note_on_c, 7, 70, 0
9, 120990, Note_on_c, 7, 82, 84
9, 121014, Note_on_c, 7, 82, 0
9, 121020, Note_on_c, 7, 73, 115
9, 121044, Note_on_c, 7, 73, 0
9, 121050, Note_on_c, 7, 85, 123
9, 121074, Note_on_c, 7, 85, 0
9, 121080, Note_on_c, 7, 75, 115
9, 121104, Note_on_c, 7, 75, 0
9, 121110, Note_on_c, 7, 87, 123
9, 121134, Note_on_c, 7, 87, 0
9, 121140, Note_on_c, 7, 79, 99
9, 121164, Note_on_c, 7, 79, 0
9, 121170, Note_on_c, 7, 91, 127
9, 121194, Note_on_c, 7, 91, 0
9, 121200, Note_on_c, 7, 82, 103
9, 121224, Note_on_c, 7, 82, 0
9, 121230, Note_on_c, 7, 94, 111
9, 121254, Note_on_c, 7, 94, 0
9, 121260, Note_on_c, 7, 83, 120
9, 121284, Note_on_c, 7, 83, 0
9, 121290, Note_on_c, 7, 95, 99
9, 121314, Note_on_c, 7, 95, 0
9, 121320, Note_on_c, 7, 84, 104
9, 121344, Note_on_c, 7, 84, 0
9, 121350, Note_on_c, 7, 96, 120
9, 121374, Note_on_c, 7, 96, 0
9, 121380, Note_on_c, 7, 85, 109
9, 121404, Note_on_c, 7, 85, 0
9, 121410, Note_on_c, 7, 97, 118
9, 121434, Note_on_c, 7, 97, 0
9, 121440, Note_on_c, 7, 73, 105
9, 121464, Note_on_c, 7, 73, 0
9, 121470, Note_on_c, 7, 85, 107
9, 121494, Note_on_c, 7, 85, 0
9, 121500, Note_on_c, 7, 72, 106
9, 121524, Note_on_c, 7, 72, 0
9, 121530, Note_on_c, 7, 84, 113
9, 121554, Note_on_c, 7, 84, 0
9, 121560, Note_on_c, 7, 85, 111
9, 121584, Note_on_c, 7, 85, 0
9, 121590, Note_on_c, 7, 97, 126
9, 121614, Note_on_c, 7, 97, 0
9, 121620, Note_on_c, 7, 73, 118
9, 121644, Note_on_c, 7, 73, 0
9, 121650, Note_on_c, 7, 85, 121
9, 121674, Note_on_c, 7, 85, 0
9, 121680, Note_on_c, 7, 72, 113
9, 121704, Note_on_c, 7, 72, 0
9, 121710, Note_on_c, 7, 84, 114
9, 121734, Note_on_c, 7, 84, 0
9, 121740, Note_on_c, 7, 85, 115
9, 121764, Note_on_c, 7, 85, 0
9, 121770, Note_on_c, 7, 97, 118
9, 121794, Note_on_c, 7, 97, 0
9, 121800, Note_on_c, 7, 73, 113
9, 121824, Note_on_c, 7, 73, 0
9, 121830, Note_on_c, 7, 85, 109
9, 121854, Note_on_c, 7, 85, 0
9, 121860, Note_on_c, 7, 72, 109
9, 121884, Note_on_c, 7, 72, 0
9, 121890, Note_on_c, 7, 84, 113
9, 121914, Note_on_c, 7, 84, 0
9, 121920, Note_on_c, 7, 85, 109
9, 121944, Note_on_c, 7, 85, 0
9, 121950, Note_on_c, 7, 97, 121
9, 121974, Note_on_c, 7, 97, 0
9, 121980, Note_on_c, 7, 73, 115
9, 122004, Note_on_c, 7, 73, 0
9, 122010, Note_on_c, 7, 85, 113
9, 122034, Note_on_c, 7, 85, 0
9, 122040, Note_on_c, 7, 72, 108
9, 122064, Note_on_c, 7, 72, 0
9, 122070, Note_on_c, 7, 84, 120
9, 122094, Note_on_c, 7, 84, 0
9, 122100, Note_on_c, 7, 71, 116
9, 122124, Note_on_c, 7, 71, 0
9, 122130, Note_on_c, 7, 83, 120
9, 122154, Note_on_c, 7, 83, 0
9, 122160, Note_on_c, 7, 70, 109
9, 122184, Note_on_c, 7, 70, 0
9, 122190, Note_on_c, 7, 82, 93
9, 122214, Note_on_c, 7, 82, 0
9, 122220, Note_on_c, 7, 69, 118
9, 122244, Note_on_c, 7, 69, 0
9, 122250, Note_on_c, 7, 81, 109
9, 122274, Note_on_c, 7, 81, 0
9, 122280, Note_on_c, 7, 68, 121
9, 122304, Note_on_c, 7, 68, 0
9, 122310, Note_on_c, 7, 80, 118
9, 122334, Note_on_c, 7, 80, 0
9, 122340, Note_on_c, 7, 67, 125
9, 122364, Note_on_c, 7, 67, 0
9, 122370, Note_on_c, 7, 79, 104
9, 122394, Note_on_c, 7, 79, 0
9, 122400, Note_on_c, 7, 66, 94
9, 122424, Note_on_c, 7, 66, 0
9, 122430, Note_on_c, 7, 78, 123
9, 122454, Note_on_c, 7, 78, 0
9, 122460, Note_on_c, 7, 65, 112
9, 122484, Note_on_c, 7, 65, 0
9, 122490, Note_on_c, 7, 77, 111
9, 122514, Note_on_c, 7, 77, 0
9, 122520, Note_on_c, 7, 64, 100
9, 122544, Note_on_c, 7, 64, 0
9, 122550, Note_on_c, 7, 76, 102
9, 122574, Note_on_c, 7, 76, 0
9, 122580, Note_on_c, 7, 63, 97
9, 122604, Note_on_c, 7, 63, 0
9, 122610, Note_on_c, 7, 75, 126
9, 122634, Note_on_c, 7, 75, 0
9, 122640, Note_on_c, 7, 62, 107
9, 122664, Note_on_c, 7, 62, 0
9, 122670, Note_on_c, 7, 74, 105
9, 122694, Note_on_c, 7, 74, 0
9, 122700, Note_on_c, 7, 63, 118
9, 122724, Note_on_c, 7, 63, 0
9, 122730, Note_on_c, 7, 75, 109
9, 122754, Note_on_c, 7, 75, 0
9, 122760, Note_on_c, 7, 63, 115
9, 122784, Note_on_c, 7, 63, 0
9, 122790, Note_on_c, 7, 75, 127
9, 122814, Note_on_c, 7, 75, 0
9, 122820, Note_on_c, 7, 75, 115
9, 122820, Note_on_c, 7, 72, 127
9, 122820, Note_on_c, 7, 68, 101
9, 122868, Note_on_c, 7, 68, 0
9, 122868, Note_on_c, 7, 72, 0
9, 122868, Note_on_c, 7, 75, 0
9, 122880, Note_on_c, 7, 80, 109
9, 122880, Note_on_c, 7, 68, 97
9, 122880, Note_on_c, 7, 72, 127
9, 122928, Note_on_c, 7, 72, 0
9, 122928, Note_on_c, 7, 68, 0
9, 122928, Note_on_c, 7, 80, 0
9, 122940, Note_on_c, 7, 80, 121
9, 122940, Note_on_c, 7, 75, 111
9, 122940, Note_on_c, 7, 72, 127
9, 122988, Note_on_c, 7, 72, 0
9, 122988, Note_on_c, 7, 75, 0
9, 122988, Note_on_c, 7, 80, 0
9, 123000, Note_on_c, 7, 75, 93
9, 123000, Note_on_c, 7, 84, 116
9, 123000, Note_on_c, 7, 72, 116
9, 123048, Note_on_c, 7, 72, 0
9, 123048, Note_on_c, 7, 84, 0
9, 123048, Note_on_c, 7, 75, 0
9, 123120, Note_on_c, 7, 84, 127
9, 123120, Note_on_c, 7, 80, 111
9, 123120, Note_on_c, 7, 75, 97
9, 123144, Note_on_c, 7, 84, 0
9, 123150, Note_on_c, 7, 87, 103
9, 123174, Note_on_c, 7, 87, 0
9, 123174, Note_on_c, 7, 75, 0
9, 123174, Note_on_c, 7, 80, 0
9, 123180, Note_on_c, 7, 87, 109
9, 123180, Note_on_c, 7, 80, 93
9, 123180, Note_on_c, 7, 84, 127
9, 123210, Note_on_c, 7, 92, 96
9, 123234, Note_on_c, 7, 92, 0
9, 123234, Note_on_c, 7, 87, 0
9, 123234, Note_on_c, 7, 80, 0
9, 123234, Note_on_c, 7, 84, 0
9, 123240, Note_on_c, 7, 92, 91
9, 123240, Note_on_c, 7, 84, 127
9, 123240, Note_on_c, 7, 80, 82
9, 123240, Note_on_c, 7, 87, 107
9, 123456, Note_on_c, 7, 87, 0
9, 123456, Note_on_c, 7, 92, 0
9, 123456, Note_on_c, 7, 84, 0
9, 123456, Note_on_c, 7, 80, 0
9, 124200, Note_on_c, 7, 75, 103
9, 124248, Note_on_c, 7, 75, 0
9, 124260, Note_on_c, 7, 68, 101
9, 124260, Note_on_c, 7, 72, 127
9, 124260, Note_on_c, 7, 75, 115
9, 124308, Note_on_c, 7, 75, 0
9, 124308, Note_on_c, 7, 72, 0
9, 124308, Note_on_c, 7, 68, 0
9, 124320, Note_on_c, 7, 72, 127
9, 124320, Note_on_c, 7, 68, 97
9, 124320, Note_on_c, 7, 80, 109
9, 124368, Note_on_c, 7, 80, 0
9, 124368, Note_on_c, 7, 68, 0
9, 124368, Note_on_c, 7, 72, 0
9, 124380, Note_on_c, 7, 72, 127
9, 124380, Note_on_c, 7, 75, 111
9, 124380, Note_on_c, 7, 80, 121
9, 124428, Note_on_c, 7, 80, 0
9, 124428, Note_on_c, 7, 75, 0
9, 124428, Note_on_c, 7, 72, 0
9, 124440, Note_on_c, 7, 72, 116
9, 124440, Note_on_c, 7, 84, 116
9, 124440, Note_on_c, 7, 75, 93
9, 124488, Note_on_c, 7, 75, 0
9, 124488, Note_on_c, 7, 84, 0
9, 124488, Note_on_c, 7, 72, 0
9, 124560, Note_on_c, 7, 75, 97
9, 124560, Note_on_c, 7, 80, 111
9, 124560, Note_on_c, 7, 84, 127
9, 124584, Note_on_c, 7, 84, 0
9, 124590, Note_on_c, 7, 87, 103
9, 124614, Note_on_c, 7, 87, 0
9, 124614, Note_on_c, 7, 80, 0
9, 124614, Note_on_c, 7, 75, 0
9, 124620, Note_on_c, 7, 84, 127
9, 124620, Note_on_c, 7, 80, 93
9, 124620, Note_on_c, 7, 87, 109
9, 124650, Note_on_c, 7, 92, 96
9, 124674, Note_on_c, 7, 92, 0
9, 124674, Note_on_c, 7, 84, 0
9, 124674, Note_on_c, 7, 80, 0
9, 124674, Note_on_c, 7, 87, 0
9, 124680, Note_on_c, 7, 87, 107
9, 124680, Note_on_c, 7, 80, 82
9, 124680, Note_on_c, 7, 84, 127
9, 124680, Note_on_c, 7, 92, 91
9, 124896, Note_on_c, 7, 92, 0
9, 124896, Note_on_c, 7, 87, 0
9, 124896, Note_on_c, 7, 80, 0
9, 124896, Note_on_c, 7, 84, 0
9, 125640, Note_on_c, 7, 87, 123
9, 125640, Note_on_c, 7, 75, 115
9, 125664, Note_on_c, 7, 75, 0
9, 125664, Note_on_c, 7, 87, 0
9, 125670, Note_on_c, 7, 86, 98
9, 125670, Note_on_c, 7, 74, 100
9, 125694, Note_on_c, 7, 74, 0
9, 125694, Note_on_c, 7, 86, 0
9, 125700, Note_on_c, 7, 86, 108
9, 125700, Note_on_c, 7, 74, 109
9, 125796, Note_on_c, 7, 74, 0
9, 125796, Note_on_c, 7, 86, 0
9, 125820, Note_on_c, 7, 85, 107
9, 125820, Note_on_c, 7, 73, 99
9, 125844, Note_on_c, 7, 73, 0
9, 125844, Note_on_c, 7, 85, 0
9, 125850, Note_on_c, 7, 84, 92
9, 125850, Note_on_c, 7, 72, 100
9, 125874, Note_on_c, 7, 72, 0
9, 125874, Note_on_c, 7, 84, 0
9, 125880, Note_on_c, 7, 84, 104
9, 125880, Note_on_c, 7, 72, 107
9, 125976, Note_on_c, 7, 72, 0
9, 125976, Note_on_c, 7, 84, 0
9, 126000, Note_on_c, 7, 83, 102
9, 126000, Note_on_c, 7, 71, 106
9, 126024, Note_on_c, 7, 71, 0
9, 126024, Note_on_c, 7, 83, 0
9, 126030, Note_on_c, 7, 70, 86
9, 126030, Note_on_c, 7, 82, 99
9, 126054, Note_on_c, 7, 82, 0
9, 126054, Note_on_c, 7, 70, 0
9, 126060, Note_on_c, 7, 82, 111
9, 126060, Note_on_c, 7, 70, 99
9, 126156, Note_on_c, 7, 70, 0
9, 126156, Note_on_c, 7, 82, 0
9, 126180, Note_on_c, 7, 81, 109
9, 126180, Note_on_c, 7, 69, 103
9, 126204, Note_on_c, 7, 69, 0
9, 126204, Note_on_c, 7, 81, 0
9, 126210, Note_on_c, 7, 68, 85
9, 126210, Note_on_c, 7, 80, 101
9, 126234, Note_on_c, 7, 80, 0
9, 126234, Note_on_c, 7, 68, 0
9, 126240, Note_on_c, 7, 80, 107
9, 126240, Note_on_c, 7, 68, 103
9, 126336, Note_on_c, 7, 68, 0
9, 126336, Note_on_c, 7, 80, 0
9, 127080, Note_on_c, 7, 75, 113
9, 127104, Note_on_c, 7, 75, 0
9, 127110, Note_on_c, 7, 87, 121
9, 127134, Note_on_c, 7, 87, 0
9, 127140, Note_on_c, 7, 75, 111
9, 127164, Note_on_c, 7, 75, 0
9, 127170, Note_on_c, 7, 87, 115
9, 127194, Note_on_c, 7, 87, 0
9, 127200, Note_on_c, 7, 75, 111
9, 127224, Note_on_c, 7, 75, 0
9, 127230, Note_on_c, 7, 74, 117
9, 127254, Note_on_c, 7, 74, 0
9, 127260, Note_on_c, 7, 73, 115
9, 127284, Note_on_c, 7, 73, 0
9, 127290, Note_on_c, 7, 85, 127
9, 127314, Note_on_c, 7, 85, 0
9, 127320, Note_on_c, 7, 73, 105
9, 127344, Note_on_c, 7, 73, 0
9, 127350, Note_on_c, 7, 85, 115
9, 127374, Note_on_c, 7, 85, 0
9, 127380, Note_on_c, 7, 73, 90
9, 127404, Note_on_c, 7, 73, 0
9, 127410, Note_on_c, 7, 72, 113
9, 127434, Note_on_c, 7, 72, 0
9, 127440, Note_on_c, 7, 71, 108
9, 127464, Note_on_c, 7, 71, 0
9, 127470, Note_on_c, 7, 83, 105
9, 127494, Note_on_c, 7, 83, 0
9, 127500, Note_on_c, 7, 71, 106
9, 127524, Note_on_c, 7, 71, 0
9, 127530, Note_on_c, 7, 83, 120
9, 127554, Note_on_c, 7, 83, 0
9, 127560, Note_on_c, 7, 71, 113
9, 127584, Note_on_c, 7, 71, 0
9, 127590, Note_on_c, 7, 70, 113
9, 127614, Note_on_c, 7, 70, 0
9, 127620, Note_on_c, 7, 69, 116
9, 127644, Note_on_c, 7, 69, 0
9, 127650, Note_on_c, 7, 81, 120
9, 127674, Note_on_c, 7, 81, 0
9, 127680, Note_on_c, 7, 68, 118
9, 127704, Note_on_c, 7, 68, 0
9, 127710, Note_on_c, 7, 80, 121
9, 127734, Note_on_c, 7, 80, 0
9, 127740, Note_on_c, 7, 68, 107
9, 127764, Note_on_c, 7, 68, 0
9, 127770, Note_on_c, 7, 80, 111
9, 127794, Note_on_c, 7, 80, 0
9, 133560, Note_on_c, 7, 87, 121
9, 133560, Note_on_c, 7, 75, 107
9, 133608, Note_on_c, 7, 75, 0
9, 133608, Note_on_c, 7, 87, 0
9, 133620, Note_on_c, 7, 86, 102
9, 133620, Note_on_c, 7, 74, 101
9, 133716, Note_on_c, 7, 74, 0
9, 133716, Note_on_c, 7, 86, 0
9, 133740, Note_on_c, 7, 86, 104
9, 133740, Note_on_c, 7, 74, 102
9, 133788, Note_on_c, 7, 74, 0
9, 133788, Note_on_c, 7, 86, 0
9, 133800, Note_on_c, 7, 86, 104
9, 133800, Note_on_c, 7, 74, 98
9, 133872, Note_on_c, 7, 74, 0
9, 133872, Note_on_c, 7, 86, 0
9, 133890, Note_on_c, 7, 87, 123
9, 133890, Note_on_c, 7, 75, 105
9, 133914, Note_on_c, 7, 75, 0
9, 133914, Note_on_c, 7, 87, 0
9, 133920, Note_on_c, 7, 89, 114
9, 133920, Note_on_c, 7, 77, 101
9, 133968, Note_on_c, 7, 77, 0
9, 133968, Note_on_c, 7, 89, 0
9, 133980, Note_on_c, 7, 89, 106
9, 133980, Note_on_c, 7, 77, 97
9, 134028, Note_on_c, 7, 77, 0
9, 134028, Note_on_c, 7, 89, 0
9, 134040, Note_on_c, 7, 91, 98
9, 134040, Note_on_c, 7, 79, 98
9, 134088, Note_on_c, 7, 79, 0
9, 134088, Note_on_c, 7, 91, 0
9, 134100, Note_on_c, 7, 87, 109
9, 134100, Note_on_c, 7, 75, 101
9, 134148, Note_on_c, 7, 75, 0
9, 134148, Note_on_c, 7, 87, 0
9, 134160, Note_on_c, 7, 87, 97
9, 134160, Note_on_c, 7, 75, 94
9, 134232, Note_on_c, 7, 75, 0
9, 134232, Note_on_c, 7, 87, 0
9, 134250, Note_on_c, 7, 77, 105
9, 134250, Note_on_c, 7, 89, 96
9, 134274, Note_on_c, 7, 89, 0
9, 134274, Note_on_c, 7, 77, 0
9, 134280, Note_on_c, 7, 91, 106
9, 134280, Note_on_c, 7, 79, 94
9, 134328, Note_on_c, 7, 79, 0
9, 134328, Note_on_c, 7, 91, 0
9, 134340, Note_on_c, 7, 91, 110
9, 134340, Note_on_c, 7, 79, 101
9, 134388, Note_on_c, 7, 79, 0
9, 134388, Note_on_c, 7, 91, 0
9, 134400, Note_on_c, 7, 92, 103
9, 134400, Note_on_c, 7, 80, 94
9, 134448, Note_on_c, 7, 80, 0
9, 134448, Note_on_c, 7, 92, 0
9, 134460, Note_on_c, 7, 89, 99
9, 134460, Note_on_c, 7, 77, 102
9, 134508, Note_on_c, 7, 77, 0
9, 134508, Note_on_c, 7, 89, 0
9, 134520, Note_on_c, 7, 89, 102
9, 134520, Note_on_c, 7, 77, 103
9, 134592, Note_on_c, 7, 77, 0
9, 134592, Note_on_c, 7, 89, 0
9, 134610, Note_on_c, 7, 91, 105
9, 134610, Note_on_c, 7, 79, 105
9, 134634, Note_on_c, 7, 79, 0
9, 134634, Note_on_c, 7, 91, 0
9, 134640, Note_on_c, 7, 92, 103
9, 134640, Note_on_c, 7, 80, 97
9, 134688, Note_on_c, 7, 80, 0
9, 134688, Note_on_c, 7, 92, 0
9, 134700, Note_on_c, 7, 94, 121
9, 134712, Note_on_c, 7, 94, 0
9, 134715, Note_on_c, 7, 96, 127
9, 134727, Note_on_c, 7, 96, 0
9, 134730, Note_on_c, 7, 94, 111
9, 134742, Note_on_c, 7, 94, 0
9, 134745, Note_on_c, 7, 96, 116
9, 134757, Note_on_c, 7, 96, 0
9, 134760, Note_on_c, 7, 94, 100
9, 134772, Note_on_c, 7, 94, 0
9, 134775, Note_on_c, 7, 96, 109
9, 134787, Note_on_c, 7, 96, 0
9, 134790, Note_on_c, 7, 94, 101
9, 134802, Note_on_c, 7, 94, 0
9, 134805, Note_on_c, 7, 96, 118
9, 134817, Note_on_c, 7, 96, 0
9, 134820, Note_on_c, 7, 94, 105
9, 134832, Note_on_c, 7, 94, 0
9, 134835, Note_on_c, 7, 96, 127
9, 134847, Note_on_c, 7, 96, 0
9, 134850, Note_on_c, 7, 94, 107
9, 134862, Note_on_c, 7, 94, 0
9, 134865, Note_on_c, 7, 96, 127
9, 134877, Note_on_c, 7, 96, 0
9, 134880, Note_on_c, 7, 94, 107
9, 134892, Note_on_c, 7, 94, 0
9, 134895, Note_on_c, 7, 96, 118
9, 134907, Note_on_c, 7, 96, 0
9, 134910, Note_on_c, 7, 94, 101
9, 134922, Note_on_c, 7, 94, 0
9, 134925, Note_on_c, 7, 96, 127
9, 134937, Note_on_c, 7, 96, 0
9, 134940, Note_on_c, 7, 94, 105
9, 134952, Note_on_c, 7, 94, 0
9, 134955, Note_on_c, 7, 96, 127
9, 134967, Note_on_c, 7, 96, 0
9, 134970, Note_on_c, 7, 94, 107
9, 134982, Note_on_c, 7, 94, 0
9, 134985, Note_on_c, 7, 96, 127
9, 134997, Note_on_c, 7, 96, 0
9, 135000, Note_on_c, 7, 94, 109
9, 135012, Note_on_c, 7, 94, 0
9, 135015, Note_on_c, 7, 96, 121
9, 135027, Note_on_c, 7, 96, 0
9, 135030, Note_on_c, 7, 94, 107
9, 135042, Note_on_c, 7, 94, 0
9, 135045, Note_on_c, 7, 96, 127
9, 135057, Note_on_c, 7, 96, 0
9, 135060, Note_on_c, 7, 94, 121
9, 135072, Note_on_c, 7, 94, 0
9, 135075, Note_on_c, 7, 96, 127
9, 135087, Note_on_c, 7, 96, 0
9, 135090, Note_on_c, 7, 94, 111
9, 135102, Note_on_c, 7, 94, 0
9, 135105, Note_on_c, 7, 96, 116
9, 135117, Note_on_c, 7, 96, 0
9, 135120, Note_on_c, 7, 94, 100
9, 135132, Note_on_c, 7, 94, 0
9, 135135, Note_on_c, 7, 96, 109
9, 135147, Note_on_c, 7, 96, 0
9, 135150, Note_on_c, 7, 94, 101
9, 135162, Note_on_c, 7, 94, 0
9, 135165, Note_on_c, 7, 96, 118
9, 135177, Note_on_c, 7, 96, 0
9, 135180, Note_on_c, 7, 94, 105
9, 135192, Note_on_c, 7, 94, 0
9, 135195, Note_on_c, 7, 96, 127
9, 135207, Note_on_c, 7, 96, 0
9, 135210, Note_on_c, 7, 94, 107
9, 135222, Note_on_c, 7, 94, 0
9, 135225, Note_on_c, 7, 96, 127
9, 135237, Note_on_c, 7, 96, 0
9, 135240, Note_on_c, 7, 94, 107
9, 135252, Note_on_c, 7, 94, 0
9, 135255, Note_on_c, 7, 96, 118
9, 135267, Note_on_c, 7, 96, 0
9, 135270, Note_on_c, 7, 94, 101
9, 135282, Note_on_c, 7, 94, 0
9, 135285, Note_on_c, 7, 96, 127
9, 135297, Note_on_c, 7, 96, 0
9, 135300, Note_on_c, 7, 94, 105
9, 135312, Note_on_c, 7, 94, 0
9, 135315, Note_on_c, 7, 96, 127
9, 135327, Note_on_c, 7, 96, 0
9, 135330, Note_on_c, 7, 94, 107
9, 135342, Note_on_c, 7, 94, 0
9, 135345, Note_on_c, 7, 96, 127
9, 135357, Note_on_c, 7, 96, 0
9, 135360, Note_on_c, 7, 94, 109
9, 135372, Note_on_c, 7, 94, 0
9, 135375, Note_on_c, 7, 96, 121
9, 135387, Note_on_c, 7, 96, 0
9, 135390, Note_on_c, 7, 94, 107
9, 135402, Note_on_c, 7, 94, 0
9, 135405, Note_on_c, 7, 96, 127
9, 135417, Note_on_c, 7, 96, 0
9, 135420, Note_on_c, 7, 94, 121
9, 135432, Note_on_c, 7, 94, 0
9, 135435, Note_on_c, 7, 96, 127
9, 135447, Note_on_c, 7, 96, 0
9, 135450, Note_on_c, 7, 94, 111
9, 135462, Note_on_c, 7, 94, 0
9, 135465, Note_on_c, 7, 96, 116
9, 135477, Note_on_c, 7, 96, 0
9, 135480, Note_on_c, 7, 94, 100
9, 135492, Note_on_c, 7, 94, 0
9, 135495, Note_on_c, 7, 96, 109
9, 135507, Note_on_c, 7, 96, 0
9, 135510, Note_on_c, 7, 94, 101
9, 135522, Note_on_c, 7, 94, 0
9, 135525, Note_on_c, 7, 96, 118
9, 135537, Note_on_c, 7, 96, 0
9, 135540, Note_on_c, 7, 94, 105
9, 135552, Note_on_c, 7, 94, 0
9, 135555, Note_on_c, 7, 96, 127
9, 135567, Note_on_c, 7, 96, 0
9, 135570, Note_on_c, 7, 94, 107
9, 135582, Note_on_c, 7, 94, 0
9, 135585, Note_on_c, 7, 96, 127
9, 135597, Note_on_c, 7, 96, 0
9, 135600, Note_on_c, 7, 94, 107
9, 135612, Note_on_c, 7, 94, 0
9, 135615, Note_on_c, 7, 96, 118
9, 135627, Note_on_c, 7, 96, 0
9, 135630, Note_on_c, 7, 94, 101
9, 135642, Note_on_c, 7, 94, 0
9, 135645, Note_on_c, 7, 96, 127
9, 135657, Note_on_c, 7, 96, 0
9, 135660, Note_on_c, 7, 94, 105
9, 135672, Note_on_c, 7, 94, 0
9, 135675, Note_on_c, 7, 96, 127
9, 135687, Note_on_c, 7, 96, 0
9, 135690, Note_on_c, 7, 94, 107
9, 135702, Note_on_c, 7, 94, 0
9, 135705, Note_on_c, 7, 96, 127
9, 135717, Note_on_c, 7, 96, 0
9, 135720, Note_on_c, 7, 94, 109
9, 135732, Note_on_c, 7, 94, 0
9, 135735, Note_on_c, 7, 96, 121
9, 135747, Note_on_c, 7, 96, 0
9, 135750, Note_on_c, 7, 94, 107
9, 135762, Note_on_c, 7, 94, 0
9, 135765, Note_on_c, 7, 96, 127
9, 135777, Note_on_c, 7, 96, 0
9, 135780, Note_on_c, 7, 94, 121
9, 135792, Note_on_c, 7, 94, 0
9, 135795, Note_on_c, 7, 96, 127
9, 135807, Note_on_c, 7, 96, 0
9, 135810, Note_on_c, 7, 94, 111
9, 135822, Note_on_c, 7, 94, 0
9, 135825, Note_on_c, 7, 96, 116
9, 135837, Note_on_c, 7, 96, 0
9, 135840, Note_on_c, 7, 94, 100
9, 135852, Note_on_c, 7, 94, 0
9, 135855, Note_on_c, 7, 96, 109
9, 135867, Note_on_c, 7, 96, 0
9, 135870, Note_on_c, 7, 94, 101
9, 135882, Note_on_c, 7, 94, 0
9, 135885, Note_on_c, 7, 96, 118
9, 135897, Note_on_c, 7, 96, 0
9, 135900, Note_on_c, 7, 94, 105
9, 135912, Note_on_c, 7, 94, 0
9, 135915, Note_on_c, 7, 96, 127
9, 135927, Note_on_c, 7, 96, 0
9, 135930, Note_on_c, 7, 94, 107
9, 135942, Note_on_c, 7, 94, 0
9, 135945, Note_on_c, 7, 96, 127
9, 135957, Note_on_c, 7, 96, 0
9, 135960, Note_on_c, 7, 94, 107
9, 135972, Note_on_c, 7, 94, 0
9, 135975, Note_on_c, 7, 96, 118
9, 135987, Note_on_c, 7, 96, 0
9, 135990, Note_on_c, 7, 94, 101
9, 136002, Note_on_c, 7, 94, 0
9, 136005, Note_on_c, 7, 96, 127
9, 136017, Note_on_c, 7, 96, 0
9, 136020, Note_on_c, 7, 94, 105
9, 136032, Note_on_c, 7, 94, 0
9, 136035, Note_on_c, 7, 96, 127
9, 136047, Note_on_c, 7, 96, 0
9, 136050, Note_on_c, 7, 94, 107
9, 136062, Note_on_c, 7, 94, 0
9, 136065, Note_on_c, 7, 96, 127
9, 136077, Note_on_c, 7, 96, 0
9, 136080, Note_on_c, 7, 94, 109
9, 136092, Note_on_c, 7, 94, 0
9, 136095, Note_on_c, 7, 96, 121
9, 136107, Note_on_c, 7, 96, 0
9, 136110, Note_on_c, 7, 94, 107
9, 136122, Note_on_c, 7, 94, 0
9, 136125, Note_on_c, 7, 96, 127
9, 136137, Note_on_c, 7, 96, 0
9, 136140, Note_on_c, 7, 94, 113
9, 136140, Note_on_c, 7, 82, 107
9, 136212, Note_on_c, 7, 82, 0
9, 136212, Note_on_c, 7, 94, 0
9, 136230, Note_on_c, 7, 92, 123
9, 136230, Note_on_c, 7, 80, 109
9, 136254, Note_on_c, 7, 80, 0
9, 136254, Note_on_c, 7, 92, 0
9, 136260, Note_on_c, 7, 91, 88
9, 136260, Note_on_c, 7, 79, 104
9, 136308, Note_on_c, 7, 79, 0
9, 136308, Note_on_c, 7, 91, 0
9, 136320, Note_on_c, 7, 91, 107
9, 136320, Note_on_c, 7, 79, 109
9, 136392, Note_on_c, 7, 79, 0
9, 136392, Note_on_c, 7, 91, 0
9, 136410, Note_on_c, 7, 89, 114
9, 136410, Note_on_c, 7, 77, 116
9, 136434, Note_on_c, 7, 77, 0
9, 136434, Note_on_c, 7, 89, 0
9, 136440, Note_on_c, 7, 75, 111
9, 136440, Note_on_c, 7, 87, 113
9, 136488, Note_on_c, 7, 87, 0
9, 136488, Note_on_c, 7, 75, 0
9, 136500, Note_on_c, 7, 87, 126
9, 136500, Note_on_c, 7, 75, 115
9, 136572, Note_on_c, 7, 75, 0
9, 136572, Note_on_c, 7, 87, 0
9, 136590, Note_on_c, 7, 89, 109
9, 136590, Note_on_c, 7, 77, 110
9, 136614, Note_on_c, 7, 77, 0
9, 136614, Note_on_c, 7, 89, 0
9, 136620, Note_on_c, 7, 91, 109
9, 136620, Note_on_c, 7, 79, 108
9, 136668, Note_on_c, 7, 79, 0
9, 136668, Note_on_c, 7, 91, 0
9, 136680, Note_on_c, 7, 91, 116
9, 136680, Note_on_c, 7, 79, 111
9, 136752, Note_on_c, 7, 79, 0
9, 136752, Note_on_c, 7, 91, 0
9, 136770, Note_on_c, 7, 92, 127
9, 136770, Note_on_c, 7, 80, 113
9, 136794, Note_on_c, 7, 80, 0
9, 136794, Note_on_c, 7, 92, 0
9, 136800, Note_on_c, 7, 94, 121
9, 136800, Note_on_c, 7, 82, 107
9, 136848, Note_on_c, 7, 82, 0
9, 136848, Note_on_c, 7, 94, 0
9, 136860, Note_on_c, 7, 96, 107
9, 136860, Note_on_c, 7, 84, 106
9, 136932, Note_on_c, 7, 84, 0
9, 136932, Note_on_c, 7, 96, 0
9, 136950, Note_on_c, 7, 94, 121
9, 136950, Note_on_c, 7, 82, 109
9, 136974, Note_on_c, 7, 82, 0
9, 136974, Note_on_c, 7, 94, 0
9, 136980, Note_on_c, 7, 92, 121
9, 136980, Note_on_c, 7, 80, 111
9, 137028, Note_on_c, 7, 80, 0
9, 137028, Note_on_c, 7, 92, 0
9, 137040, Note_on_c, 7, 92, 103
9, 137040, Note_on_c, 7, 80, 96
9, 137112, Note_on_c, 7, 80, 0
9, 137112, Note_on_c, 7, 92, 0
9, 137130, Note_on_c, 7, 91, 105
9, 137130, Note_on_c, 7, 79, 102
9, 137154, Note_on_c, 7, 79, 0
9, 137154, Note_on_c, 7, 91, 0
9, 137160, Note_on_c, 7, 89, 106
9, 137160, Note_on_c, 7, 77, 105
9, 137208, Note_on_c, 7, 77, 0
9, 137208, Note_on_c, 7, 89, 0
9, 137220, Note_on_c, 7, 89, 111
9, 137220, Note_on_c, 7, 77, 104
9, 137292, Note_on_c, 7, 77, 0
9, 137292, Note_on_c, 7, 89, 0
9, 137310, Note_on_c, 7, 91, 105
9, 137310, Note_on_c, 7, 79, 108
9, 137334, Note_on_c, 7, 79, 0
9, 137334, Note_on_c, 7, 91, 0
9, 137340, Note_on_c, 7, 92, 113
9, 137340, Note_on_c, 7, 80, 103
9, 137388, Note_on_c, 7, 80, 0
9, 137388, Note_on_c, 7, 92, 0
9, 137400, Note_on_c, 7, 92, 99
9, 137400, Note_on_c, 7, 80, 100
9, 137472, Note_on_c, 7, 80, 0
9, 137472, Note_on_c, 7, 92, 0
9, 137490, Note_on_c, 7, 94, 118
9, 137490, Note_on_c, 7, 82, 105
9, 137514, Note_on_c, 7, 82, 0
9, 137514, Note_on_c, 7, 94, 0
9, 137520, Note_on_c, 7, 96, 112
9, 137520, Note_on_c, 7, 84, 103
9, 137568, Note_on_c, 7, 84, 0
9, 137568, Note_on_c, 7, 96, 0
9, 137580, Note_on_c, 7, 96, 117
9, 137580, Note_on_c, 7, 84, 107
9, 137628, Note_on_c, 7, 84, 0
9, 137628, Note_on_c, 7, 96, 0
9, 137640, Note_on_c, 7, 94, 111
9, 137640, Note_on_c, 7, 82, 100
9, 137688, Note_on_c, 7, 82, 0
9, 137688, Note_on_c, 7, 94, 0
9, 137700, Note_on_c, 7, 92, 105
9, 137700, Note_on_c, 7, 80, 103
9, 137748, Note_on_c, 7, 80, 0
9, 137748, Note_on_c, 7, 92, 0
9, 137760, Note_on_c, 7, 91, 103
9, 137760, Note_on_c, 7, 79, 109
9, 137808, Note_on_c, 7, 79, 0
9, 137808, Note_on_c, 7, 91, 0
9, 137820, Note_on_c, 7, 89, 106
9, 137820, Note_on_c, 7, 77, 114
9, 137868, Note_on_c, 7, 77, 0
9, 137868, Note_on_c, 7, 89, 0
9, 137880, Note_on_c, 7, 87, 127
9, 137880, Note_on_c, 7, 75, 109
9, 137928, Note_on_c, 7, 75, 0
9, 137928, Note_on_c, 7, 87, 0
9, 137940, Note_on_c, 7, 87, 96
9, 137940, Note_on_c, 7, 75, 103
9, 138084, Note_on_c, 7, 75, 0
9, 138084, Note_on_c, 7, 87, 0
9, 138120, Note_on_c, 7, 91, 118
9, 138120, Note_on_c, 7, 79, 118
9, 138216, Note_on_c, 7, 79, 0
9, 138216, Note_on_c, 7, 91, 0
9, 138240, Note_on_c, 7, 89, 123
9, 138240, Note_on_c, 7, 77, 116
9, 138288, Note_on_c, 7, 77, 0
9, 138288, Note_on_c, 7, 89, 0
9, 138300, Note_on_c, 7, 87, 113
9, 138300, Note_on_c, 7, 75, 115
9, 138396, Note_on_c, 7, 75, 0
9, 138396, Note_on_c, 7, 87, 0
9, 139140, Note_on_c, 7, 63, 111
9, 139164, Note_on_c, 7, 63, 0
9, 139170, Note_on_c, 7, 75, 127
9, 139194, Note_on_c, 7, 75, 0
9, 139200, Note_on_c, 7, 63, 109
9, 139224, Note_on_c, 7, 63, 0
9, 139230, Note_on_c, 7, 75, 126
9, 139254, Note_on_c, 7, 75, 0
9, 139260, Note_on_c, 7, 65, 117
9, 139284, Note_on_c, 7, 65, 0
9, 139290, Note_on_c, 7, 77, 121
9, 139314, Note_on_c, 7, 77, 0
9, 139320, Note_on_c, 7, 67, 117
9, 139344, Note_on_c, 7, 67, 0
9, 139350, Note_on_c, 7, 79, 127
9, 139374, Note_on_c, 7, 79, 0
9, 139380, Note_on_c, 7, 68, 118
9, 139404, Note_on_c, 7, 68, 0
9, 139410, Note_on_c, 7, 80, 127
9, 139434, Note_on_c, 7, 80, 0
9, 139500, Note_on_c, 7, 65, 117
9, 139524, Note_on_c, 7, 65, 0
9, 139530, Note_on_c, 7, 77, 127
9, 139554, Note_on_c, 7, 77, 0
9, 139560, Note_on_c, 7, 65, 117
9, 139584, Note_on_c, 7, 65, 0
9, 139590, Note_on_c, 7, 77, 118
9, 139614, Note_on_c, 7, 77, 0
9, 139620, Note_on_c, 7, 67, 120
9, 139644, Note_on_c, 7, 67, 0
9, 139650, Note_on_c, 7, 79, 127
9, 139674, Note_on_c, 7, 79, 0
9, 139680, Note_on_c, 7, 68, 101
9, 139704, Note_on_c, 7, 68, 0
9, 139710, Note_on_c, 7, 80, 100
9, 139734, Note_on_c, 7, 80, 0
9, 139740, Note_on_c, 7, 70, 115
9, 139764, Note_on_c, 7, 70, 0
9, 139770, Note_on_c, 7, 82, 123
9, 139794, Note_on_c, 7, 82, 0
9, 139800, Note_on_c, 7, 79, 114
9, 139824, Note_on_c, 7, 79, 0
9, 139830, Note_on_c, 7, 91, 123
9, 139854, Note_on_c, 7, 91, 0
9, 139860, Note_on_c, 7, 74, 107
9, 139884, Note_on_c, 7, 74, 0
9, 139890, Note_on_c, 7, 86, 116
9, 139914, Note_on_c, 7, 86, 0
9, 139920, Note_on_c, 7, 75, 113
9, 139944, Note_on_c, 7, 75, 0
9, 139950, Note_on_c, 7, 87, 126
9, 139974, Note_on_c, 7, 87, 0
9, 139980, Note_on_c, 7, 77, 121
9, 140004, Note_on_c, 7, 77, 0
9, 140010, Note_on_c, 7, 89, 127
9, 140034, Note_on_c, 7, 89, 0
9, 140040, Note_on_c, 7, 79, 102
9, 140064, Note_on_c, 7, 79, 0
9, 140070, Note_on_c, 7, 91, 120
9, 140094, Note_on_c, 7, 91, 0
9, 140100, Note_on_c, 7, 79, 118
9, 140124, Note_on_c, 7, 79, 0
9, 140130, Note_on_c, 7, 91, 127
9, 140154, Note_on_c, 7, 91, 0
9, 140160, Note_on_c, 7, 80, 115
9, 140184, Note_on_c, 7, 80, 0
9, 140190, Note_on_c, 7, 92, 126
9, 140214, Note_on_c, 7, 92, 0
9, 140220, Note_on_c, 7, 76, 127
9, 140244, Note_on_c, 7, 76, 0
9, 140250, Note_on_c, 7, 88, 127
9, 140274, Note_on_c, 7, 88, 0
9, 140280, Note_on_c, 7, 77, 102
9, 140304, Note_on_c, 7, 77, 0
9, 140310, Note_on_c, 7, 89, 117
9, 140334, Note_on_c, 7, 89, 0
9, 140340, Note_on_c, 7, 79, 109
9, 140364, Note_on_c, 7, 79, 0
9, 140370, Note_on_c, 7, 91, 116
9, 140394, Note_on_c, 7, 91, 0
9, 140400, Note_on_c, 7, 80, 118
9, 140424, Note_on_c, 7, 80, 0
9, 140430, Note_on_c, 7, 92, 118
9, 140454, Note_on_c, 7, 92, 0
9, 140460, Note_on_c, 7, 94, 126
9, 140472, Note_on_c, 7, 94, 0
9, 140475, Note_on_c, 7, 96, 127
9, 140487, Note_on_c, 7, 96, 0
9, 140490, Note_on_c, 7, 94, 103
9, 140502, Note_on_c, 7, 94, 0
9, 140505, Note_on_c, 7, 96, 123
9, 140517, Note_on_c, 7, 96, 0
9, 140520, Note_on_c, 7, 94, 118
9, 140532, Note_on_c, 7, 94, 0
9, 140535, Note_on_c, 7, 96, 109
9, 140547, Note_on_c, 7, 96, 0
9, 140550, Note_on_c, 7, 94, 113
9, 140562, Note_on_c, 7, 94, 0
9, 140565, Note_on_c, 7, 96, 127
9, 140577, Note_on_c, 7, 96, 0
9, 140580, Note_on_c, 7, 94, 113
9, 140592, Note_on_c, 7, 94, 0
9, 140595, Note_on_c, 7, 96, 120
9, 140607, Note_on_c, 7, 96, 0
9, 140610, Note_on_c, 7, 94, 118
9, 140622, Note_on_c, 7, 94, 0
9, 140625, Note_on_c, 7, 96, 120
9, 140637, Note_on_c, 7, 96, 0
9, 140640, Note_on_c, 7, 94, 118
9, 140652, Note_on_c, 7, 94, 0
9, 140655, Note_on_c, 7, 96, 118
9, 140667, Note_on_c, 7, 96, 0
9, 140670, Note_on_c, 7, 94, 123
9, 140682, Note_on_c, 7, 94, 0
9, 140685, Note_on_c, 7, 96, 117
9, 140697, Note_on_c, 7, 96, 0
9, 140700, Note_on_c, 7, 94, 111
9, 140712, Note_on_c, 7, 94, 0
9, 140715, Note_on_c, 7, 96, 112
9, 140727, Note_on_c, 7, 96, 0
9, 140730, Note_on_c, 7, 94, 121
9, 140742, Note_on_c, 7, 94, 0
9, 140745, Note_on_c, 7, 96, 123
9, 140757, Note_on_c, 7, 96, 0
9, 140760, Note_on_c, 7, 94, 118
9, 140772, Note_on_c, 7, 94, 0
9, 140775, Note_on_c, 7, 96, 127
9, 140787, Note_on_c, 7, 96, 0
9, 140790, Note_on_c, 7, 96, 127
9, 140790, Note_on_c, 7, 94, 123
9, 140802, Note_on_c, 7, 94, 0
9, 140802, Note_on_c, 7, 96, 0
9, 140805, Note_on_c, 7, 94, 121
9, 140817, Note_on_c, 7, 94, 0
9, 140820, Note_on_c, 7, 94, 121
9, 140820, Note_on_c, 7, 96, 108
9, 140832, Note_on_c, 7, 96, 0
9, 140832, Note_on_c, 7, 94, 0
9, 140835, Note_on_c, 7, 96, 127
9, 140847, Note_on_c, 7, 96, 0
9, 140850, Note_on_c, 7, 94, 127
9, 140862, Note_on_c, 7, 94, 0
9, 140865, Note_on_c, 7, 96, 127
9, 140877, Note_on_c, 7, 96, 0
9, 140880, Note_on_c, 7, 94, 118
9, 140892, Note_on_c, 7, 94, 0
9, 140895, Note_on_c, 7, 96, 114
9, 140907, Note_on_c, 7, 96, 0
9, 140910, Note_on_c, 7, 94, 115
9, 140922, Note_on_c, 7, 94, 0
9, 140925, Note_on_c, 7, 96, 127
9, 140937, Note_on_c, 7, 96, 0
9, 140940, Note_on_c, 7, 94, 103
9, 140952, Note_on_c, 7, 94, 0
9, 140955, Note_on_c, 7, 96, 127
9, 140967, Note_on_c, 7, 96, 0
9, 140970, Note_on_c, 7, 94, 118
9, 140982, Note_on_c, 7, 94, 0
9, 140985, Note_on_c, 7, 96, 127
9, 140997, Note_on_c, 7, 96, 0
9, 141000, Note_on_c, 7, 94, 123
9, 141012, Note_on_c, 7, 94, 0
9, 141015, Note_on_c, 7, 96, 123
9, 141027, Note_on_c, 7, 96, 0
9, 141030, Note_on_c, 7, 94, 121
9, 141042, Note_on_c, 7, 94, 0
9, 141045, Note_on_c, 7, 96, 121
9, 141057, Note_on_c, 7, 96, 0
9, 141060, Note_on_c, 7, 94, 121
9, 141072, Note_on_c, 7, 94, 0
9, 141075, Note_on_c, 7, 94, 127
9, 141075, Note_on_c, 7, 96, 127
9, 141087, Note_on_c, 7, 96, 0
9, 141087, Note_on_c, 7, 94, 0
9, 141090, Note_on_c, 7, 96, 127
9, 141102, Note_on_c, 7, 96, 0
9, 141105, Note_on_c, 7, 94, 127
9, 141117, Note_on_c, 7, 94, 0
9, 141120, Note_on_c, 7, 94, 115
9, 141120, Note_on_c, 7, 96, 127
9, 141132, Note_on_c, 7, 96, 0
9, 141132, Note_on_c, 7, 94, 0
9, 141135, Note_on_c, 7, 96, 127
9, 141147, Note_on_c, 7, 96, 0
9, 141150, Note_on_c, 7, 94, 121
9, 141162, Note_on_c, 7, 94, 0
9, 141165, Note_on_c, 7, 96, 127
9, 141177, Note_on_c, 7, 96, 0
9, 141180, Note_on_c, 7, 94, 121
9, 141204, Note_on_c, 7, 94, 0
9, 141210, Note_on_c, 7, 91, 127
9, 141234, Note_on_c, 7, 91, 0
9, 141240, Note_on_c, 7, 87, 123
9, 141264, Note_on_c, 7, 87, 0
9, 141270, Note_on_c, 7, 82, 115
9, 141294, Note_on_c, 7, 82, 0
9, 141300, Note_on_c, 7, 91, 127
9, 141324, Note_on_c, 7, 91, 0
9, 141330, Note_on_c, 7, 87, 121
9, 141354, Note_on_c, 7, 87, 0
9, 141360, Note_on_c, 7, 82, 126
9, 141384, Note_on_c, 7, 82, 0
9, 141390, Note_on_c, 7, 79, 108
9, 141414, Note_on_c, 7, 79, 0
9, 141420, Note_on_c, 7, 87, 115
9, 141444, Note_on_c, 7, 87, 0
9, 141450, Note_on_c, 7, 82, 64
9, 141474, Note_on_c, 7, 82, 0
9, 141480, Note_on_c, 7, 79, 127
9, 141504, Note_on_c, 7, 79, 0
9, 141510, Note_on_c, 7, 75, 115
9, 141534, Note_on_c, 7, 75, 0
9, 141540, Note_on_c, 7, 82, 126
9, 141564, Note_on_c, 7, 82, 0
9, 141570, Note_on_c, 7, 79, 127
9, 141594, Note_on_c, 7, 79, 0
9, 141600, Note_on_c, 7, 75, 126
9, 141624, Note_on_c, 7, 75, 0
9, 141630, Note_on_c, 7, 70, 113
9, 141654, Note_on_c, 7, 70, 0
9, 141660, Note_on_c, 7, 75, 127
9, 141684, Note_on_c, 7, 75, 0
9, 141690, Note_on_c, 7, 79, 127
9, 141714, Note_on_c, 7, 79, 0
9, 141720, Note_on_c, 7, 82, 101
9, 141744, Note_on_c, 7, 82, 0
9, 141750, Note_on_c, 7, 87, 127
9, 141774, Note_on_c, 7, 87, 0
9, 141780, Note_on_c, 7, 91, 127
9, 141804, Note_on_c, 7, 91, 0
9, 141810, Note_on_c, 7, 87, 109
9, 141834, Note_on_c, 7, 87, 0
9, 141840, Note_on_c, 7, 94, 127
9, 141864, Note_on_c, 7, 94, 0
9, 141870, Note_on_c, 7, 91, 127
9, 141894, Note_on_c, 7, 91, 0
9, 141900, Note_on_c, 7, 96, 127
9, 141924, Note_on_c, 7, 96, 0
9, 141930, Note_on_c, 7, 92, 126
9, 141954, Note_on_c, 7, 92, 0
9, 141960, Note_on_c, 7, 89, 127
9, 141984, Note_on_c, 7, 89, 0
9, 141990, Note_on_c, 7, 84, 125
9, 142014, Note_on_c, 7, 84, 0
9, 142020, Note_on_c, 7, 92, 123
9, 142044, Note_on_c, 7, 92, 0
9, 142050, Note_on_c, 7, 89, 127
9, 142074, Note_on_c, 7, 89, 0
9, 142080, Note_on_c, 7, 84, 127
9, 142104, Note_on_c, 7, 84, 0
9, 142110, Note_on_c, 7, 80, 115
9, 142134, Note_on_c, 7, 80, 0
9, 142140, Note_on_c, 7, 89, 127
9, 142164, Note_on_c, 7, 89, 0
9, 142170, Note_on_c, 7, 84, 127
9, 142194, Note_on_c, 7, 84, 0
9, 142200, Note_on_c, 7, 80, 127
9, 142224, Note_on_c, 7, 80, 0
9, 142230, Note_on_c, 7, 77, 120
9, 142254, Note_on_c, 7, 77, 0
9, 142260, Note_on_c, 7, 84, 127
9, 142284, Note_on_c, 7, 84, 0
9, 142290, Note_on_c, 7, 80, 121
9, 142314, Note_on_c, 7, 80, 0
9, 142320, Note_on_c, 7, 77, 127
9, 142344, Note_on_c, 7, 77, 0
9, 142350, Note_on_c, 7, 72, 111
9, 142374, Note_on_c, 7, 72, 0
9, 142380, Note_on_c, 7, 77, 127
9, 142404, Note_on_c, 7, 77, 0
9, 142410, Note_on_c, 7, 80, 126
9, 142434, Note_on_c, 7, 80, 0
9, 142440, Note_on_c, 7, 84, 127
9, 142464, Note_on_c, 7, 84, 0
9, 142470, Note_on_c, 7, 89, 127
9, 142494, Note_on_c, 7, 89, 0
9, 142500, Note_on_c, 7, 92, 123
9, 142524, Note_on_c, 7, 92, 0
9, 142530, Note_on_c, 7, 89, 127
9, 142554, Note_on_c, 7, 89, 0
9, 142560, Note_on_c, 7, 96, 127
9, 142584, Note_on_c, 7, 96, 0
9, 142590, Note_on_c, 7, 92, 123
9, 142614, Note_on_c, 7, 92, 0
9, 142620, Note_on_c, 7, 96, 127
9, 142668, Note_on_c, 7, 96, 0
9, 142680, Note_on_c, 7, 94, 118
9, 142704, Note_on_c, 7, 94, 0
9, 142710, Note_on_c, 7, 92, 123
9, 142734, Note_on_c, 7, 92, 0
9, 142740, Note_on_c, 7, 91, 127
9, 142764, Note_on_c, 7, 91, 0
9, 142770, Note_on_c, 7, 89, 127
9, 142794, Note_on_c, 7, 89, 0
9, 142800, Note_on_c, 7, 87, 126
9, 142824, Note_on_c, 7, 87, 0
9, 142830, Note_on_c, 7, 86, 127
9, 142854, Note_on_c, 7, 86, 0
9, 142860, Note_on_c, 7, 84, 127
9, 142884, Note_on_c, 7, 84, 0
9, 142890, Note_on_c, 7, 82, 103
9, 142914, Note_on_c, 7, 82, 0
9, 142920, Note_on_c, 7, 80, 118
9, 142944, Note_on_c, 7, 80, 0
9, 142950, Note_on_c, 7, 79, 127
9, 142974, Note_on_c, 7, 79, 0
9, 142980, Note_on_c, 7, 77, 127
9, 143004, Note_on_c, 7, 77, 0
9, 143010, Note_on_c, 7, 75, 115
9, 143034, Note_on_c, 7, 75, 0
9, 143040, Note_on_c, 7, 74, 127
9, 143064, Note_on_c, 7, 74, 0
9, 143070, Note_on_c, 7, 75, 127
9, 143094, Note_on_c, 7, 75, 0
9, 143100, Note_on_c, 7, 79, 127
9, 143124, Note_on_c, 7, 79, 0
9, 143130, Note_on_c, 7, 75, 121
9, 143154, Note_on_c, 7, 75, 0
9, 143160, Note_on_c, 7, 82, 111
9, 143184, Note_on_c, 7, 82, 0
9, 143190, Note_on_c, 7, 79, 127
9, 143214, Note_on_c, 7, 79, 0
9, 143220, Note_on_c, 7, 87, 126
9, 143244, Note_on_c, 7, 87, 0
9, 143250, Note_on_c, 7, 82, 126
9, 143274, Note_on_c, 7, 82, 0
9, 143280, Note_on_c, 7, 91, 127
9, 143304, Note_on_c, 7, 91, 0
9, 143310, Note_on_c, 7, 89, 127
9, 143334, Note_on_c, 7, 89, 0
9, 143340, Note_on_c, 7, 87, 127
9, 143436, Note_on_c, 7, 87, 0
9, 144900, Note_on_c, 7, 51, 127
9, 144924, Note_on_c, 7, 51, 0
9, 144930, Note_on_c, 7, 53, 127
9, 144954, Note_on_c, 7, 53, 0
9, 144960, Note_on_c, 7, 55, 127
9, 144976, Note_on_c, 7, 55, 0
9, 144980, Note_on_c, 7, 56, 123
9, 144996, Note_on_c, 7, 56, 0
9, 145000, Note_on_c, 7, 58, 126
9, 145016, Note_on_c, 7, 58, 0
9, 145020, Note_on_c, 7, 60, 125
9, 145036, Note_on_c, 7, 60, 0
9, 145040, Note_on_c, 7, 62, 127
9, 145056, Note_on_c, 7, 62, 0
9, 145060, Note_on_c, 7, 63, 126
9, 145076, Note_on_c, 7, 63, 0
9, 145080, Note_on_c, 7, 65, 127
9, 145096, Note_on_c, 7, 65, 0
9, 145100, Note_on_c, 7, 67, 127
9, 145116, Note_on_c, 7, 67, 0
9, 145120, Note_on_c, 7, 68, 121
9, 145136, Note_on_c, 7, 68, 0
9, 145140, Note_on_c, 7, 70, 121
9, 145156, Note_on_c, 7, 70, 0
9, 145160, Note_on_c, 7, 72, 127
9, 145176, Note_on_c, 7, 72, 0
9, 145180, Note_on_c, 7, 74, 127
9, 145196, Note_on_c, 7, 74, 0
9, 145200, Note_on_c, 7, 75, 113
9, 145216, Note_on_c, 7, 75, 0
9, 145220, Note_on_c, 7, 77, 127
9, 145236, Note_on_c, 7, 77, 0
9, 145240, Note_on_c, 7, 79, 127
9, 145256, Note_on_c, 7, 79, 0
9, 145260, Note_on_c, 7, 80, 111
9, 145276, Note_on_c, 7, 80, 0
9, 145280, Note_on_c, 7, 82, 115
9, 145296, Note_on_c, 7, 82, 0
9, 145300, Note_on_c, 7, 84, 123
9, 145316, Note_on_c, 7, 84, 0
9, 145320, Note_on_c, 7, 86, 127
9, 145336, Note_on_c, 7, 86, 0
9, 145340, Note_on_c, 7, 87, 115
9, 145356, Note_on_c, 7, 87, 0
9, 145360, Note_on_c, 7, 86, 127
9, 145376, Note_on_c, 7, 86, 0
9, 145380, Note_on_c, 7, 89, 127
9, 145428, Note_on_c, 7, 89, 0
9, 145440, Note_on_c, 7, 87, 127
9, 145464, Note_on_c, 7, 87, 0
9, 145470, Note_on_c, 7, 84, 127
9, 145494, Note_on_c, 7, 84, 0
9, 145500, Note_on_c, 7, 82, 126
9, 145596, Note_on_c, 7, 82, 0
9, 145620, Note_on_c, 7, 70, 121
9, 145644, Note_on_c, 7, 70, 0
9, 145650, Note_on_c, 7, 72, 127
9, 145674, Note_on_c, 7, 72, 0
9, 145680, Note_on_c, 7, 74, 127
9, 145704, Note_on_c, 7, 74, 0
9, 145710, Note_on_c, 7, 75, 126
9, 145734, Note_on_c, 7, 75, 0
9, 145740, Note_on_c, 7, 77, 127
9, 145756, Note_on_c, 7, 77, 0
9, 145760, Note_on_c, 7, 79, 127
9, 145776, Note_on_c, 7, 79, 0
9, 145780, Note_on_c, 7, 80, 123
9, 145796, Note_on_c, 7, 80, 0
9, 145800, Note_on_c, 7, 82, 115
9, 145816, Note_on_c, 7, 82, 0
9, 145820, Note_on_c, 7, 84, 127
9, 145836, Note_on_c, 7, 84, 0
9, 145840, Note_on_c, 7, 86, 127
9, 145856, Note_on_c, 7, 86, 0
9, 145860, Note_on_c, 7, 87, 121
9, 145876, Note_on_c, 7, 87, 0
9, 145880, Note_on_c, 7, 89, 127
9, 145896, Note_on_c, 7, 89, 0
9, 145900, Note_on_c, 7, 91, 127
9, 145916, Note_on_c, 7, 91, 0
9, 145920, Note_on_c, 7, 92, 126
9, 146136, Note_on_c, 7, 92, 0
9, 146160, Note_on_c, 7, 89, 127
9, 146208, Note_on_c, 7, 89, 0
9, 146220, Note_on_c, 7, 82, 113
9, 146236, Note_on_c, 7, 82, 0
9, 146240, Note_on_c, 7, 84, 127
9, 146256, Note_on_c, 7, 84, 0
9, 146260, Note_on_c, 7, 86, 127
9, 146276, Note_on_c, 7, 86, 0
9, 146280, Note_on_c, 7, 87, 126
9, 146296, Note_on_c, 7, 87, 0
9, 146300, Note_on_c, 7, 89, 127
9, 146316, Note_on_c, 7, 89, 0
9, 146320, Note_on_c, 7, 91, 127
9, 146336, Note_on_c, 7, 91, 0
9, 146340, Note_on_c, 7, 92, 123
9, 146496, Note_on_c, 7, 92, 0
9, 146520, Note_on_c, 7, 89, 127
9, 146568, Note_on_c, 7, 89, 0
9, 146580, Note_on_c, 7, 82, 121
9, 146596, Note_on_c, 7, 82, 0
9, 146600, Note_on_c, 7, 84, 127
9, 146616, Note_on_c, 7, 84, 0
9, 146620, Note_on_c, 7, 86, 127
9, 146636, Note_on_c, 7, 86, 0
9, 146640, Note_on_c, 7, 87, 99
9, 146656, Note_on_c, 7, 87, 0
9, 146660, Note_on_c, 7, 89, 127
9, 146676, Note_on_c, 7, 89, 0
9, 146680, Note_on_c, 7, 91, 127
9, 146696, Note_on_c, 7, 91, 0
9, 146700, Note_on_c, 7, 92, 123
9, 146872, Note_on_c, 7, 92, 0
9, 146880, Note_on_c, 7, 89, 123
9, 146880, Note_on_c, 7, 77, 107
9, 146880, Note_on_c, 7, 82, 96
9, 146880, Note_on_c, 7, 80, 86
9, 146928, Note_on_c, 7, 80, 0
9, 146928, Note_on_c, 7, 89, 0
9, 146928, Note_on_c, 7, 77, 0
9, 146928, Note_on_c, 7, 82, 0
9, 146940, Note_on_c, 7, 88, 109
9, 146940, Note_on_c, 7, 82, 107
9, 146940, Note_on_c, 7, 80, 115
9, 146940, Note_on_c, 7, 76, 117
9, 147084, Note_on_c, 7, 76, 0
9, 147084, Note_on_c, 7, 88, 0
9, 147084, Note_on_c, 7, 82, 0
9, 147084, Note_on_c, 7, 80, 0
9, 147120, Note_on_c, 7, 89, 85
9, 147120, Note_on_c, 7, 80, 95
9, 147120, Note_on_c, 7, 77, 108
9, 147264, Note_on_c, 7, 77, 0
9, 147264, Note_on_c, 7, 80, 0
9, 147264, Note_on_c, 7, 89, 0
9, 147300, Note_on_c, 7, 80, 89
9, 147300, Note_on_c, 7, 89, 102
9, 147300, Note_on_c, 7, 77, 109
9, 147444, Note_on_c, 7, 77, 0
9, 147444, Note_on_c, 7, 89, 0
9, 147444, Note_on_c, 7, 80, 0
9, 147480, Note_on_c, 7, 87, 121
9, 147480, Note_on_c, 7, 75, 111
9, 147480, Note_on_c, 7, 79, 127
9, 147624, Note_on_c, 7, 79, 0
9, 147624, Note_on_c, 7, 75, 0
9, 147624, Note_on_c, 7, 87, 0
9, 147660, Note_on_c, 7, 87, 105
9, 147660, Note_on_c, 7, 78, 127
9, 147660, Note_on_c, 7, 75, 105
9, 147804, Note_on_c, 7, 75, 0
9, 147804, Note_on_c, 7, 78, 0
9, 147804, Note_on_c, 7, 87, 0
9, 147840, Note_on_c, 7, 86, 114
9, 147840, Note_on_c, 7, 77, 127
9, 147840, Note_on_c, 7, 74, 127
9, 147984, Note_on_c, 7, 74, 0
9, 147984, Note_on_c, 7, 77, 0
9, 147984, Note_on_c, 7, 86, 0
9, 148020, Note_on_c, 7, 85, 100
9, 148020, Note_on_c, 7, 73, 111
9, 148020, Note_on_c, 7, 82, 127
9, 148020, Note_on_c, 7, 76, 127
9, 148164, Note_on_c, 7, 76, 0
9, 148164, Note_on_c, 7, 85, 0
9, 148164, Note_on_c, 7, 73, 0
9, 148164, Note_on_c, 7, 82, 0
9, 148200, Note_on_c, 7, 76, 127
9, 148200, Note_on_c, 7, 84, 113
9, 148200, Note_on_c, 7, 79, 127
9, 148200, Note_on_c, 7, 72, 120
9, 148344, Note_on_c, 7, 72, 0
9, 148344, Note_on_c, 7, 76, 0
9, 148344, Note_on_c, 7, 84, 0
9, 148344, Note_on_c, 7, 79, 0
9, 148380, Note_on_c, 7, 82, 93
9, 148380, Note_on_c, 7, 76, 127
9, 148380, Note_on_c, 7, 70, 109
9, 148380, Note_on_c, 7, 72, 125
9, 148380, Note_on_c, 7, 79, 121
9, 148524, Note_on_c, 7, 79, 0
9, 148524, Note_on_c, 7, 70, 0
9, 148524, Note_on_c, 7, 82, 0
9, 148524, Note_on_c, 7, 76, 0
9, 148524, Note_on_c, 7, 72, 0
9, 148560, Note_on_c, 7, 80, 111
9, 148560, Note_on_c, 7, 72, 125
9, 148560, Note_on_c, 7, 77, 127
9, 148560, Note_on_c, 7, 68, 111
9, 148704, Note_on_c, 7, 68, 0
9, 148704, Note_on_c, 7, 80, 0
9, 148704, Note_on_c, 7, 72, 0
9, 148704, Note_on_c, 7, 77, 0
9, 148740, Note_on_c, 7, 80, 105
9, 148740, Note_on_c, 7, 70, 109
9, 148740, Note_on_c, 7, 68, 97
9, 148740, Note_on_c, 7, 77, 127
9, 148740, Note_on_c, 7, 74, 116
9, 148884, Note_on_c, 7, 74, 0
9, 148884, Note_on_c, 7, 68, 0
9, 148884, Note_on_c, 7, 80, 0
9, 148884, Note_on_c, 7, 70, 0
9, 148884, Note_on_c, 7, 77, 0
9, 148920, Note_on_c, 7, 75, 105
9, 148920, Note_on_c, 7, 79, 125
9, 148920, Note_on_c, 7, 70, 87
9, 148920, Note_on_c, 7, 67, 125
9, 149064, Note_on_c, 7, 67, 0
9, 149064, Note_on_c, 7, 75, 0
9, 149064, Note_on_c, 7, 79, 0
9, 149064, Note_on_c, 7, 70, 0
9, 149100, Note_on_c, 7, 68, 101
9, 149100, Note_on_c, 7, 70, 118
9, 149100, Note_on_c, 7, 80, 105
9, 149100, Note_on_c, 7, 77, 127
9, 149100, Note_on_c, 7, 74, 109
9, 149244, Note_on_c, 7, 74, 0
9, 149244, Note_on_c, 7, 80, 0
9, 149244, Note_on_c, 7, 68, 0
9, 149244, Note_on_c, 7, 70, 0
9, 149244, Note_on_c, 7, 77, 0
9, 149280, Note_on_c, 7, 77, 127
9, 149280, Note_on_c, 7, 70, 127
9, 149280, Note_on_c, 7, 68, 100
9, 149280, Note_on_c, 7, 65, 123
9, 149424, Note_on_c, 7, 65, 0
9, 149424, Note_on_c, 7, 77, 0
9, 149424, Note_on_c, 7, 70, 0
9, 149424, Note_on_c, 7, 68, 0
9, 149460, Note_on_c, 7, 75, 107
9, 149460, Note_on_c, 7, 70, 121
9, 149460, Note_on_c, 7, 63, 123
9, 149604, Note_on_c, 7, 63, 0
9, 149604, Note_on_c, 7, 70, 0
9, 149604, Note_on_c, 7, 75, 0
9, 149820, Note_on_c, 7, 70, 86
9, 149820, Note_on_c, 7, 58, 126
9, 149820, Note_on_c, 7, 63, 115
9, 149920, Control_c, 7, 7, 126
9, 149964, Note_on_c, 7, 63, 0
9, 149964, Note_on_c, 7, 58, 0
9, 149964, Note_on_c, 7, 70, 0
9, 149993, Control_c, 7, 7, 125
9, 150000, Control_c, 7, 7, 124
9, 150005, Control_c, 7, 7, 123
9, 150150, Control_c, 7, 7, 122
9, 150160, Control_c, 7, 7, 121
9, 150180, Control_c, 7, 7, 120
9, 150180, Note_on_c, 7, 67, 127
9, 150180, Note_on_c, 7, 55, 125
9, 150180, Note_on_c, 7, 58, 105
9, 150188, Control_c, 7, 7, 119
9, 150198, Control_c, 7, 7, 118
9, 150213, Control_c, 7, 7, 117
9, 150232, Control_c, 7, 7, 115
9, 150240, Control_c, 7, 7, 114
9, 150245, Control_c, 7, 7, 113
9, 150256, Control_c, 7, 7, 112
9, 150270, Control_c, 7, 7, 111
9, 150285, Control_c, 7, 7, 110
9, 150299, Control_c, 7, 7, 109
9, 150324, Note_on_c, 7, 58, 0
9, 150324, Note_on_c, 7, 55, 0
9, 150324, Note_on_c, 7, 67, 0
9, 150324, Control_c, 7, 7, 108
9, 150338, Control_c, 7, 7, 107
9, 150348, Control_c, 7, 7, 106
9, 150354, Control_c, 7, 7, 105
9, 150381, Control_c, 7, 7, 104
9, 150394, Control_c, 7, 7, 103
9, 150404, Control_c, 7, 7, 102
9, 150420, Control_c, 7, 7, 100
9, 150444, Control_c, 7, 7, 99
9, 150457, Control_c, 7, 7, 98
9, 150460, Control_c, 7, 7, 97
9, 150473, Control_c, 7, 7, 96
9, 150490, Control_c, 7, 7, 95
9, 150500, Control_c, 7, 7, 94
9, 150512, Control_c, 7, 7, 93
9, 150528, Control_c, 7, 7, 92
9, 150533, Control_c, 7, 7, 91
9, 150540, Note_on_c, 7, 58, 103
9, 150540, Note_on_c, 7, 63, 113
9, 150540, Note_on_c, 7, 55, 121
9, 150553, Control_c, 7, 7, 90
9, 150560, Control_c, 7, 7, 89
9, 150572, Control_c, 7, 7, 88
9, 150597, Control_c, 7, 7, 87
9, 150608, Control_c, 7, 7, 85
9, 150612, Control_c, 7, 7, 84
9, 150630, Control_c, 7, 7, 83
9, 150653, Control_c, 7, 7, 82
9, 150684, Note_on_c, 7, 55, 0
9, 150684, Note_on_c, 7, 63, 0
9, 150684, Note_on_c, 7, 58, 0
9, 150792, Control_c, 7, 7, 83
9, 150797, Control_c, 7, 7, 85
9, 150797, Control_c, 7, 7, 84
9, 150802, Control_c, 7, 7, 86
9, 150804, Control_c, 7, 7, 87
9, 150809, Control_c, 7, 7, 90
9, 150809, Control_c, 7, 7, 88
9, 150814, Control_c, 7, 7, 95
9, 150814, Control_c, 7, 7, 92
9, 150819, Control_c, 7, 7, 100
9, 150819, Control_c, 7, 7, 98
9, 150819, Control_c, 7, 7, 97
9, 150824, Control_c, 7, 7, 103
9, 150828, Control_c, 7, 7, 109
9, 150828, Control_c, 7, 7, 107
9, 150828, Control_c, 7, 7, 105
9, 150833, Control_c, 7, 7, 112
9, 150833, Control_c, 7, 7, 110
9, 150838, Control_c, 7, 7, 113
9, 150840, Control_c, 7, 7, 116
9, 150840, Control_c, 7, 7, 115
9, 150845, Control_c, 7, 7, 118
9, 150845, Control_c, 7, 7, 117
9, 150850, Control_c, 7, 7, 119
9, 150852, Control_c, 7, 7, 121
9, 150852, Control_c, 7, 7, 120
9, 150856, Control_c, 7, 7, 122
9, 150858, Control_c, 7, 7, 124
9, 150860, Control_c, 7, 7, 125
9, 150868, Control_c, 7, 7, 126
9, 150900, Control_c, 7, 7, 127
9, 150900, Note_on_c, 7, 51, 126
9, 150924, Note_on_c, 7, 51, 0
9, 150930, Note_on_c, 7, 53, 127
9, 150954, Note_on_c, 7, 53, 0
9, 150960, Note_on_c, 7, 55, 127
9, 150984, Note_on_c, 7, 55, 0
9, 150990, Note_on_c, 7, 56, 101
9, 151014, Note_on_c, 7, 56, 0
9, 151020, Note_on_c, 7, 58, 121
9, 151044, Note_on_c, 7, 58, 0
9, 151050, Note_on_c, 7, 60, 127
9, 151074, Note_on_c, 7, 60, 0
9, 151080, Note_on_c, 7, 62, 127
9, 151104, Note_on_c, 7, 62, 0
9, 151110, Note_on_c, 7, 63, 123
9, 151134, Note_on_c, 7, 63, 0
9, 151140, Note_on_c, 7, 62, 127
9, 151164, Note_on_c, 7, 62, 0
9, 151170, Note_on_c, 7, 60, 127
9, 151194, Note_on_c, 7, 60, 0
9, 151200, Note_on_c, 7, 58, 123
9, 151224, Note_on_c, 7, 58, 0
9, 151230, Note_on_c, 7, 57, 127
9, 151254, Note_on_c, 7, 57, 0
9, 151260, Note_on_c, 7, 58, 127
9, 151284, Note_on_c, 7, 58, 0
9, 151290, Note_on_c, 7, 60, 127
9, 151314, Note_on_c, 7, 60, 0
9, 151320, Note_on_c, 7, 62, 127
9, 151344, Note_on_c, 7, 62, 0
9, 151350, Note_on_c, 7, 63, 127
9, 151374, Note_on_c, 7, 63, 0
9, 151380, Note_on_c, 7, 65, 127
9, 151404, Note_on_c, 7, 65, 0
9, 151410, Note_on_c, 7, 67, 127
9, 151434, Note_on_c, 7, 67, 0
9, 151440, Note_on_c, 7, 68, 126
9, 151464, Note_on_c, 7, 68, 0
9, 151470, Note_on_c, 7, 70, 118
9, 151494, Note_on_c, 7, 70, 0
9, 151500, Note_on_c, 7, 68, 121
9, 151524, Note_on_c, 7, 68, 0
9, 151530, Note_on_c, 7, 67, 127
9, 151554, Note_on_c, 7, 67, 0
9, 151560, Note_on_c, 7, 65, 127
9, 151576, Note_on_c, 7, 65, 0
9, 151580, Note_on_c, 7, 63, 123
9, 151596, Note_on_c, 7, 63, 0
9, 151600, Note_on_c, 7, 62, 127
9, 151616, Note_on_c, 7, 62, 0
9, 151620, Note_on_c, 7, 63, 126
9, 151644, Note_on_c, 7, 63, 0
9, 151650, Note_on_c, 7, 65, 127
9, 151674, Note_on_c, 7, 65, 0
9, 151680, Note_on_c, 7, 67, 127
9, 151704, Note_on_c, 7, 67, 0
9, 151710, Note_on_c, 7, 68, 121
9, 151734, Note_on_c, 7, 68, 0
9, 151740, Note_on_c, 7, 70, 111
9, 151764, Note_on_c, 7, 70, 0
9, 151770, Note_on_c, 7, 72, 127
9, 151794, Note_on_c, 7, 72, 0
9, 151800, Note_on_c, 7, 74, 127
9, 151824, Note_on_c, 7, 74, 0
9, 151830, Note_on_c, 7, 75, 121
9, 151854, Note_on_c, 7, 75, 0
9, 151860, Note_on_c, 7, 74, 127
9, 151884, Note_on_c, 7, 74, 0
9, 151890, Note_on_c, 7, 72, 127
9, 151914, Note_on_c, 7, 72, 0
9, 151920, Note_on_c, 7, 70, 84
9, 151944, Note_on_c, 7, 70, 0
9, 151950, Note_on_c, 7, 68, 126
9, 151974, Note_on_c, 7, 68, 0
9, 151980, Note_on_c, 7, 67, 116
9, 152004, Note_on_c, 7, 67, 0
9, 152010, Note_on_c, 7, 68, 126
9, 152034, Note_on_c, 7, 68, 0
9, 152040, Note_on_c, 7, 70, 123
9, 152064, Note_on_c, 7, 70, 0
9, 152070, Note_on_c, 7, 72, 116
9, 152094, Note_on_c, 7, 72, 0
9, 152100, Note_on_c, 7, 74, 127
9, 152116, Note_on_c, 7, 74, 0
9, 152120, Note_on_c, 7, 75, 121
9, 152136, Note_on_c, 7, 75, 0
9, 152140, Note_on_c, 7, 77, 127
9, 152156, Note_on_c, 7, 77, 0
9, 152160, Note_on_c, 7, 79, 127
9, 152176, Note_on_c, 7, 79, 0
9, 152180, Note_on_c, 7, 77, 127
9, 152196, Note_on_c, 7, 77, 0
9, 152200, Note_on_c, 7, 75, 115
9, 152216, Note_on_c, 7, 75, 0
9, 152220, Note_on_c, 7, 74, 127
9, 152236, Note_on_c, 7, 74, 0
9, 152240, Note_on_c, 7, 72, 127
9, 152256, Note_on_c, 7, 72, 0
9, 152260, Note_on_c, 7, 70, 107
9, 152276, Note_on_c, 7, 70, 0
9, 152280, Note_on_c, 7, 68, 121
9, 152296, Note_on_c, 7, 68, 0
9, 152300, Note_on_c, 7, 67, 121
9, 152316, Note_on_c, 7, 67, 0
9, 152320, Note_on_c, 7, 65, 127
9, 152336, Note_on_c, 7, 65, 0
9, 152340, Note_on_c, 7, 63, 121
9, 152364, Note_on_c, 7, 63, 0
9, 152370, Note_on_c, 7, 65, 127
9, 152394, Note_on_c, 7, 65, 0
9, 152400, Note_on_c, 7, 67, 127
9, 152424, Note_on_c, 7, 67, 0
9, 152430, Note_on_c, 7, 68, 115
9, 152454, Note_on_c, 7, 68, 0
9, 152460, Note_on_c, 7, 70, 95
9, 152484, Note_on_c, 7, 70, 0
9, 152490, Note_on_c, 7, 72, 127
9, 152514, Note_on_c, 7, 72, 0
9, 152520, Note_on_c, 7, 74, 127
9, 152544, Note_on_c, 7, 74, 0
9, 152550, Note_on_c, 7, 75, 118
9, 152574, Note_on_c, 7, 75, 0
9, 152580, Note_on_c, 7, 74, 127
9, 152604, Note_on_c, 7, 74, 0
9, 152610, Note_on_c, 7, 72, 127
9, 152634, Note_on_c, 7, 72, 0
9, 152640, Note_on_c, 7, 70, 113
9, 152664, Note_on_c, 7, 70, 0
9, 152670, Note_on_c, 7, 69, 127
9, 152694, Note_on_c, 7, 69, 0
9, 152700, Note_on_c, 7, 70, 121
9, 152716, Note_on_c, 7, 70, 0
9, 152720, Note_on_c, 7, 72, 127
9, 152736, Note_on_c, 7, 72, 0
9, 152740, Note_on_c, 7, 74, 127
9, 152756, Note_on_c, 7, 74, 0
9, 152760, Note_on_c, 7, 75, 126
9, 152776, Note_on_c, 7, 75, 0
9, 152780, Note_on_c, 7, 77, 127
9, 152796, Note_on_c, 7, 77, 0
9, 152800, Note_on_c, 7, 79, 127
9, 152816, Note_on_c, 7, 79, 0
9, 152820, Note_on_c, 7, 80, 121
9, 152836, Note_on_c, 7, 80, 0
9, 152840, Note_on_c, 7, 82, 111
9, 152856, Note_on_c, 7, 82, 0
9, 152860, Note_on_c, 7, 84, 127
9, 152876, Note_on_c, 7, 84, 0
9, 152880, Note_on_c, 7, 86, 127
9, 152896, Note_on_c, 7, 86, 0
9, 152900, Note_on_c, 7, 87, 115
9, 152916, Note_on_c, 7, 87, 0
9, 152920, Note_on_c, 7, 89, 127
9, 152936, Note_on_c, 7, 89, 0
9, 152940, Note_on_c, 7, 91, 127
9, 152956, Note_on_c, 7, 91, 0
9, 152960, Note_on_c, 7, 92, 118
9, 152976, Note_on_c, 7, 92, 0
9, 152980, Note_on_c, 7, 94, 121
9, 152996, Note_on_c, 7, 94, 0
9, 153000, Note_on_c, 7, 96, 127
9, 153024, Note_on_c, 7, 96, 0
9, 153030, Note_on_c, 7, 98, 127
9, 153054, Note_on_c, 7, 98, 0
9, 153060, Note_on_c, 7, 99, 127
9, 153156, Note_on_c, 7, 99, 0
9, 153156, End_track
10, 0, Start_track
10, 0, MIDI_port, 1
10, 0, Title_t, "Piano"
10, 0, Program_c, 10, 0
10, 0, Control_c, 10, 7, 100
10, 0, Control_c, 10, 10, 10
10, 0, Control_c, 10, 93, 0
10, 0, Control_c, 10, 91, 0
10, 0, Note_on_c, 10, 39, 127
10, 48, Note_on_c, 10, 39, 0
10, 60, Note_on_c, 10, 58, 126
10, 108, Note_on_c, 10, 58, 0
10, 120, Note_on_c, 10, 46, 126
10, 120, Note_on_c, 10, 55, 127
10, 120, Note_on_c, 10, 51, 113
10, 168, Note_on_c, 10, 51, 0
10, 168, Note_on_c, 10, 55, 0
10, 168, Note_on_c, 10, 46, 0
10, 180, Note_on_c, 10, 39, 127
10, 228, Note_on_c, 10, 39, 0
10, 240, Note_on_c, 10, 58, 115
10, 288, Note_on_c, 10, 58, 0
10, 300, Note_on_c, 10, 46, 127
10, 300, Note_on_c, 10, 55, 127
10, 300, Note_on_c, 10, 51, 101
10, 348, Note_on_c, 10, 51, 0
10, 348, Note_on_c, 10, 55, 0
10, 348, Note_on_c, 10, 46, 0
10, 360, Note_on_c, 10, 39, 102
10, 408, Note_on_c, 10, 39, 0
10, 420, Note_on_c, 10, 58, 94
10, 468, Note_on_c, 10, 58, 0
10, 480, Note_on_c, 10, 46, 101
10, 480, Note_on_c, 10, 55, 102
10, 480, Note_on_c, 10, 51, 92
10, 528, Note_on_c, 10, 51, 0
10, 528, Note_on_c, 10, 55, 0
10, 528, Note_on_c, 10, 46, 0
10, 540, Note_on_c, 10, 39, 102
10, 588, Note_on_c, 10, 39, 0
10, 600, Note_on_c, 10, 58, 94
10, 648, Note_on_c, 10, 58, 0
10, 660, Note_on_c, 10, 46, 82
10, 660, Note_on_c, 10, 55, 102
10, 660, Note_on_c, 10, 51, 77
10, 708, Note_on_c, 10, 51, 0
10, 708, Note_on_c, 10, 55, 0
10, 708, Note_on_c, 10, 46, 0
10, 720, Note_on_c, 10, 34, 64
10, 768, Note_on_c, 10, 34, 0
10, 780, Note_on_c, 10, 58, 74
10, 828, Note_on_c, 10, 58, 0
10, 840, Note_on_c, 10, 50, 73
10, 840, Note_on_c, 10, 53, 77
10, 840, Note_on_c, 10, 46, 75
10, 888, Note_on_c, 10, 46, 0
10, 888, Note_on_c, 10, 53, 0
10, 888, Note_on_c, 10, 50, 0
10, 900, Note_on_c, 10, 39, 75
10, 948, Note_on_c, 10, 39, 0
10, 960, Note_on_c, 10, 58, 70
10, 1008, Note_on_c, 10, 58, 0
10, 1020, Note_on_c, 10, 46, 75
10, 1020, Note_on_c, 10, 51, 67
10, 1020, Note_on_c, 10, 55, 77
10, 1068, Note_on_c, 10, 55, 0
10, 1068, Note_on_c, 10, 51, 0
10, 1068, Note_on_c, 10, 46, 0
10, 1080, Note_on_c, 10, 34, 76
10, 1128, Note_on_c, 10, 34, 0
10, 1140, Note_on_c, 10, 58, 76
10, 1188, Note_on_c, 10, 58, 0
10, 1200, Note_on_c, 10, 46, 76
10, 1200, Note_on_c, 10, 53, 77
10, 1200, Note_on_c, 10, 50, 77
10, 1248, Note_on_c, 10, 50, 0
10, 1248, Note_on_c, 10, 53, 0
10, 1248, Note_on_c, 10, 46, 0
10, 1260, Note_on_c, 10, 34, 77
10, 1308, Note_on_c, 10, 34, 0
10, 1320, Note_on_c, 10, 58, 69
10, 1368, Note_on_c, 10, 58, 0
10, 1380, Note_on_c, 10, 46, 62
10, 1380, Note_on_c, 10, 50, 74
10, 1380, Note_on_c, 10, 53, 77
10, 1428, Note_on_c, 10, 53, 0
10, 1428, Note_on_c, 10, 50, 0
10, 1428, Note_on_c, 10, 46, 0
10, 1440, Note_on_c, 10, 39, 126
10, 1488, Note_on_c, 10, 39, 0
10, 1500, Note_on_c, 10, 58, 121
10, 1548, Note_on_c, 10, 58, 0
10, 1560, Note_on_c, 10, 46, 113
10, 1560, Note_on_c, 10, 55, 127
10, 1560, Note_on_c, 10, 51, 111
10, 1608, Note_on_c, 10, 51, 0
10, 1608, Note_on_c, 10, 55, 0
10, 1608, Note_on_c, 10, 46, 0
10, 1620, Note_on_c, 10, 39, 127
10, 1668, Note_on_c, 10, 39, 0
10, 1680, Note_on_c, 10, 58, 107
10, 1728, Note_on_c, 10, 58, 0
10, 1740, Note_on_c, 10, 55, 127
10, 1740, Note_on_c, 10, 46, 109
10, 1740, Note_on_c, 10, 51, 111
10, 1788, Note_on_c, 10, 51, 0
10, 1788, Note_on_c, 10, 46, 0
10, 1788, Note_on_c, 10, 55, 0
10, 1800, Note_on_c, 10, 39, 102
10, 1848, Note_on_c, 10, 39, 0
10, 1860, Note_on_c, 10, 58, 101
10, 1908, Note_on_c, 10, 58, 0
10, 1920, Note_on_c, 10, 51, 102
10, 1920, Note_on_c, 10, 55, 102
10, 1920, Note_on_c, 10, 46, 74
10, 1968, Note_on_c, 10, 46, 0
10, 1968, Note_on_c, 10, 55, 0
10, 1968, Note_on_c, 10, 51, 0
10, 1980, Note_on_c, 10, 39, 102
10, 2028, Note_on_c, 10, 39, 0
10, 2040, Note_on_c, 10, 58, 94
10, 2088, Note_on_c, 10, 58, 0
10, 2100, Note_on_c, 10, 46, 97
10, 2100, Note_on_c, 10, 55, 102
10, 2100, Note_on_c, 10, 51, 89
10, 2148, Note_on_c, 10, 51, 0
10, 2148, Note_on_c, 10, 55, 0
10, 2148, Note_on_c, 10, 46, 0
10, 2160, Note_on_c, 10, 34, 92
10, 2208, Note_on_c, 10, 34, 0
10, 2220, Note_on_c, 10, 58, 88
10, 2268, Note_on_c, 10, 58, 0
10, 2280, Note_on_c, 10, 46, 87
10, 2280, Note_on_c, 10, 53, 92
10, 2280, Note_on_c, 10, 50, 90
10, 2328, Note_on_c, 10, 50, 0
10, 2328, Note_on_c, 10, 53, 0
10, 2328, Note_on_c, 10, 46, 0
10, 2340, Note_on_c, 10, 39, 92
10, 2388, Note_on_c, 10, 39, 0
10, 2400, Note_on_c, 10, 58, 80
10, 2448, Note_on_c, 10, 58, 0
10, 2460, Note_on_c, 10, 46, 88
10, 2460, Note_on_c, 10, 51, 76
10, 2460, Note_on_c, 10, 55, 92
10, 2508, Note_on_c, 10, 55, 0
10, 2508, Note_on_c, 10, 51, 0
10, 2508, Note_on_c, 10, 46, 0
10, 2520, Note_on_c, 10, 46, 88
10, 2568, Note_on_c, 10, 46, 0
10, 2580, Note_on_c, 10, 58, 87
10, 2628, Note_on_c, 10, 58, 0
10, 2640, Note_on_c, 10, 53, 92
10, 2640, Note_on_c, 10, 50, 84
10, 2688, Note_on_c, 10, 50, 0
10, 2688, Note_on_c, 10, 53, 0
10, 2700, Note_on_c, 10, 46, 87
10, 2748, Note_on_c, 10, 46, 0
10, 2760, Note_on_c, 10, 65, 92
10, 2760, Note_on_c, 10, 62, 92
10, 2808, Note_on_c, 10, 62, 0
10, 2808, Note_on_c, 10, 65, 0
10, 2820, Note_on_c, 10, 64, 92
10, 2820, Note_on_c, 10, 61, 69
10, 2868, Note_on_c, 10, 61, 0
10, 2868, Note_on_c, 10, 64, 0
10, 2880, Note_on_c, 10, 46, 126
10, 2928, Note_on_c, 10, 46, 0
10, 2940, Note_on_c, 10, 60, 127
10, 2940, Note_on_c, 10, 63, 123
10, 2988, Note_on_c, 10, 63, 0
10, 2988, Note_on_c, 10, 60, 0
10, 3000, Note_on_c, 10, 59, 123
10, 3000, Note_on_c, 10, 62, 127
10, 3048, Note_on_c, 10, 62, 0
10, 3048, Note_on_c, 10, 59, 0
10, 3060, Note_on_c, 10, 46, 121
10, 3108, Note_on_c, 10, 46, 0
10, 3120, Note_on_c, 10, 58, 123
10, 3120, Note_on_c, 10, 61, 123
10, 3168, Note_on_c, 10, 61, 0
10, 3168, Note_on_c, 10, 58, 0
10, 3180, Note_on_c, 10, 57, 125
10, 3180, Note_on_c, 10, 60, 127
10, 3228, Note_on_c, 10, 60, 0
10, 3228, Note_on_c, 10, 57, 0
10, 3240, Note_on_c, 10, 46, 113
10, 3288, Note_on_c, 10, 46, 0
10, 3300, Note_on_c, 10, 59, 127
10, 3300, Note_on_c, 10, 56, 94
10, 3348, Note_on_c, 10, 56, 0
10, 3348, Note_on_c, 10, 59, 0
10, 3360, Note_on_c, 10, 55, 127
10, 3360, Note_on_c, 10, 58, 123
10, 3408, Note_on_c, 10, 58, 0
10, 3408, Note_on_c, 10, 55, 0
10, 3420, Note_on_c, 10, 46, 115
10, 3468, Note_on_c, 10, 46, 0
10, 3480, Note_on_c, 10, 57, 127
10, 3480, Note_on_c, 10, 54, 90
10, 3528, Note_on_c, 10, 54, 0
10, 3528, Note_on_c, 10, 57, 0
10, 3540, Note_on_c, 10, 53, 127
10, 3540, Note_on_c, 10, 56, 118
10, 3588, Note_on_c, 10, 56, 0
10, 3588, Note_on_c, 10, 53, 0
10, 3600, Note_on_c, 10, 34, 121
10, 3648, Note_on_c, 10, 34, 0
10, 3660, Note_on_c, 10, 58, 107
10, 3708, Note_on_c, 10, 58, 0
10, 3720, Note_on_c, 10, 53, 127
10, 3720, Note_on_c, 10, 50, 114
10, 3720, Note_on_c, 10, 46, 115
10, 3768, Note_on_c, 10, 46, 0
10, 3768, Note_on_c, 10, 50, 0
10, 3768, Note_on_c, 10, 53, 0
10, 3780, Note_on_c, 10, 34, 121
10, 3828, Note_on_c, 10, 34, 0
10, 3840, Note_on_c, 10, 58, 121
10, 3888, Note_on_c, 10, 58, 0
10, 3900, Note_on_c, 10, 50, 123
10, 3900, Note_on_c, 10, 53, 127
10, 3900, Note_on_c, 10, 46, 123
10, 3948, Note_on_c, 10, 46, 0
10, 3948, Note_on_c, 10, 53, 0
10, 3948, Note_on_c, 10, 50, 0
10, 3960, Note_on_c, 10, 39, 127
10, 4008, Note_on_c, 10, 39, 0
10, 4020, Note_on_c, 10, 58, 123
10, 4068, Note_on_c, 10, 58, 0
10, 4080, Note_on_c, 10, 55, 127
10, 4080, Note_on_c, 10, 51, 109
10, 4080, Note_on_c, 10, 46, 109
10, 4128, Note_on_c, 10, 46, 0
10, 4128, Note_on_c, 10, 51, 0
10, 4128, Note_on_c, 10, 55, 0
10, 4140, Note_on_c, 10, 39, 127
10, 4188, Note_on_c, 10, 39, 0
10, 4200, Note_on_c, 10, 62, 127
10, 4200, Note_on_c, 10, 65, 127
10, 4248, Note_on_c, 10, 65, 0
10, 4248, Note_on_c, 10, 62, 0
10, 4260, Note_on_c, 10, 64, 127
10, 4260, Note_on_c, 10, 61, 105
10, 4308, Note_on_c, 10, 61, 0
10, 4308, Note_on_c, 10, 64, 0
10, 4320, Note_on_c, 10, 46, 118
10, 4368, Note_on_c, 10, 46, 0
10, 4380, Note_on_c, 10, 60, 127
10, 4380, Note_on_c, 10, 63, 121
10, 4428, Note_on_c, 10, 63, 0
10, 4428, Note_on_c, 10, 60, 0
10, 4440, Note_on_c, 10, 59, 121
10, 4440, Note_on_c, 10, 62, 123
10, 4488, Note_on_c, 10, 62, 0
10, 4488, Note_on_c, 10, 59, 0
10, 4500, Note_on_c, 10, 39, 126
10, 4548, Note_on_c, 10, 39, 0
10, 4560, Note_on_c, 10, 61, 101
10, 4560, Note_on_c, 10, 58, 111
10, 4608, Note_on_c, 10, 58, 0
10, 4608, Note_on_c, 10, 61, 0
10, 4620, Note_on_c, 10, 57, 125
10, 4620, Note_on_c, 10, 60, 125
10, 4668, Note_on_c, 10, 60, 0
10, 4668, Note_on_c, 10, 57, 0
10, 4680, Note_on_c, 10, 39, 115
10, 4728, Note_on_c, 10, 39, 0
10, 4740, Note_on_c, 10, 59, 127
10, 4740, Note_on_c, 10, 56, 109
10, 4788, Note_on_c, 10, 56, 0
10, 4788, Note_on_c, 10, 59, 0
10, 4800, Note_on_c, 10, 58, 113
10, 4800, Note_on_c, 10, 55, 117
10, 4848, Note_on_c, 10, 55, 0
10, 4848, Note_on_c, 10, 58, 0
10, 4860, Note_on_c, 10, 50, 103
10, 4860, Note_on_c, 10, 46, 115
10, 4860, Note_on_c, 10, 53, 123
10, 4860, Note_on_c, 10, 56, 93
10, 4956, Note_on_c, 10, 56, 0
10, 4956, Note_on_c, 10, 50, 0
10, 4956, Note_on_c, 10, 46, 0
10, 4956, Note_on_c, 10, 53, 0
10, 14940, Note_on_c, 10, 51, 115
10, 14956, Note_on_c, 10, 51, 0
10, 14960, Note_on_c, 10, 50, 123
10, 14976, Note_on_c, 10, 50, 0
10, 14980, Note_on_c, 10, 48, 114
10, 14996, Note_on_c, 10, 48, 0
10, 15000, Note_on_c, 10, 46, 123
10, 15016, Note_on_c, 10, 46, 0
10, 15020, Note_on_c, 10, 48, 120
10, 15036, Note_on_c, 10, 48, 0
10, 15040, Note_on_c, 10, 50, 127
10, 15056, Note_on_c, 10, 50, 0
10, 15060, Note_on_c, 10, 51, 123
10, 15084, Note_on_c, 10, 51, 0
10, 15090, Note_on_c, 10, 53, 127
10, 15114, Note_on_c, 10, 53, 0
10, 15120, Note_on_c, 10, 55, 127
10, 15136, Note_on_c, 10, 55, 0
10, 15140, Note_on_c, 10, 53, 127
10, 15156, Note_on_c, 10, 53, 0
10, 15160, Note_on_c, 10, 51, 96
10, 15176, Note_on_c, 10, 51, 0
10, 15180, Note_on_c, 10, 50, 120
10, 15196, Note_on_c, 10, 50, 0
10, 15200, Note_on_c, 10, 51, 115
10, 15216, Note_on_c, 10, 51, 0
10, 15220, Note_on_c, 10, 53, 110
10, 15236, Note_on_c, 10, 53, 0
10, 15240, Note_on_c, 10, 55, 127
10, 15264, Note_on_c, 10, 55, 0
10, 15270, Note_on_c, 10, 56, 111
10, 15294, Note_on_c, 10, 56, 0
10, 15300, Note_on_c, 10, 58, 109
10, 15316, Note_on_c, 10, 58, 0
10, 15320, Note_on_c, 10, 56, 115
10, 15336, Note_on_c, 10, 56, 0
10, 15340, Note_on_c, 10, 55, 114
10, 15356, Note_on_c, 10, 55, 0
10, 15360, Note_on_c, 10, 56, 123
10, 15384, Note_on_c, 10, 56, 0
10, 15390, Note_on_c, 10, 58, 123
10, 15414, Note_on_c, 10, 58, 0
10, 15420, Note_on_c, 10, 60, 123
10, 15444, Note_on_c, 10, 60, 0
10, 15450, Note_on_c, 10, 62, 127
10, 15474, Note_on_c, 10, 62, 0
10, 15480, Note_on_c, 10, 63, 85
10, 15576, Note_on_c, 10, 63, 0
10, 15660, Note_on_c, 10, 63, 115
10, 15676, Note_on_c, 10, 63, 0
10, 15680, Note_on_c, 10, 62, 125
10, 15696, Note_on_c, 10, 62, 0
10, 15700, Note_on_c, 10, 60, 116
10, 15716, Note_on_c, 10, 60, 0
10, 15720, Note_on_c, 10, 58, 91
10, 15736, Note_on_c, 10, 58, 0
10, 15740, Note_on_c, 10, 60, 104
10, 15756, Note_on_c, 10, 60, 0
10, 15760, Note_on_c, 10, 62, 127
10, 15776, Note_on_c, 10, 62, 0
10, 15780, Note_on_c, 10, 63, 115
10, 15804, Note_on_c, 10, 63, 0
10, 15810, Note_on_c, 10, 65, 117
10, 15834, Note_on_c, 10, 65, 0
10, 15840, Note_on_c, 10, 67, 127
10, 15856, Note_on_c, 10, 67, 0
10, 15860, Note_on_c, 10, 65, 114
10, 15876, Note_on_c, 10, 65, 0
10, 15880, Note_on_c, 10, 63, 84
10, 15896, Note_on_c, 10, 63, 0
10, 15900, Note_on_c, 10, 62, 114
10, 15916, Note_on_c, 10, 62, 0
10, 15920, Note_on_c, 10, 63, 121
10, 15936, Note_on_c, 10, 63, 0
10, 15940, Note_on_c, 10, 65, 127
10, 15956, Note_on_c, 10, 65, 0
10, 15960, Note_on_c, 10, 67, 127
10, 15984, Note_on_c, 10, 67, 0
10, 15990, Note_on_c, 10, 68, 111
10, 16014, Note_on_c, 10, 68, 0
10, 16020, Note_on_c, 10, 70, 115
10, 16036, Note_on_c, 10, 70, 0
10, 16040, Note_on_c, 10, 68, 84
10, 16056, Note_on_c, 10, 68, 0
10, 16060, Note_on_c, 10, 67, 117
10, 16076, Note_on_c, 10, 67, 0
10, 16080, Note_on_c, 10, 68, 121
10, 16104, Note_on_c, 10, 68, 0
10, 16110, Note_on_c, 10, 70, 121
10, 16134, Note_on_c, 10, 70, 0
10, 16140, Note_on_c, 10, 72, 127
10, 16164, Note_on_c, 10, 72, 0
10, 16170, Note_on_c, 10, 74, 127
10, 16194, Note_on_c, 10, 74, 0
10, 16200, Note_on_c, 10, 75, 118
10, 16216, Note_on_c, 10, 75, 0
10, 16220, Note_on_c, 10, 74, 109
10, 16236, Note_on_c, 10, 74, 0
10, 16240, Note_on_c, 10, 72, 111
10, 16256, Note_on_c, 10, 72, 0
10, 16260, Note_on_c, 10, 70, 83
10, 16276, Note_on_c, 10, 70, 0
10, 16280, Note_on_c, 10, 72, 100
10, 16296, Note_on_c, 10, 72, 0
10, 16300, Note_on_c, 10, 74, 113
10, 16316, Note_on_c, 10, 74, 0
10, 16320, Note_on_c, 10, 75, 109
10, 16344, Note_on_c, 10, 75, 0
10, 16350, Note_on_c, 10, 77, 109
10, 16374, Note_on_c, 10, 77, 0
10, 16380, Note_on_c, 10, 79, 127
10, 16396, Note_on_c, 10, 79, 0
10, 16400, Note_on_c, 10, 77, 114
10, 16416, Note_on_c, 10, 77, 0
10, 16420, Note_on_c, 10, 75, 96
10, 16436, Note_on_c, 10, 75, 0
10, 16440, Note_on_c, 10, 74, 109
10, 16456, Note_on_c, 10, 74, 0
10, 16460, Note_on_c, 10, 75, 109
10, 16476, Note_on_c, 10, 75, 0
10, 16480, Note_on_c, 10, 77, 117
10, 16496, Note_on_c, 10, 77, 0
10, 16500, Note_on_c, 10, 79, 127
10, 16524, Note_on_c, 10, 79, 0
10, 16530, Note_on_c, 10, 80, 107
10, 16554, Note_on_c, 10, 80, 0
10, 16560, Note_on_c, 10, 82, 101
10, 16584, Note_on_c, 10, 82, 0
10, 16590, Note_on_c, 10, 80, 115
10, 16614, Note_on_c, 10, 80, 0
10, 16620, Note_on_c, 10, 79, 107
10, 16644, Note_on_c, 10, 79, 0
10, 16650, Note_on_c, 10, 84, 121
10, 16674, Note_on_c, 10, 84, 0
10, 16680, Note_on_c, 10, 82, 115
10, 16704, Note_on_c, 10, 82, 0
10, 16710, Note_on_c, 10, 80, 109
10, 16734, Note_on_c, 10, 80, 0
10, 16740, Note_on_c, 10, 79, 116
10, 16764, Note_on_c, 10, 79, 0
10, 16770, Note_on_c, 10, 77, 121
10, 16794, Note_on_c, 10, 77, 0
10, 16800, Note_on_c, 10, 75, 103
10, 16824, Note_on_c, 10, 75, 0
10, 16830, Note_on_c, 10, 74, 116
10, 16854, Note_on_c, 10, 74, 0
10, 16860, Note_on_c, 10, 72, 103
10, 16884, Note_on_c, 10, 72, 0
10, 16890, Note_on_c, 10, 71, 127
10, 16914, Note_on_c, 10, 71, 0
10, 16920, Note_on_c, 10, 70, 111
10, 16944, Note_on_c, 10, 70, 0
10, 16950, Note_on_c, 10, 68, 107
10, 16974, Note_on_c, 10, 68, 0
10, 16980, Note_on_c, 10, 67, 120
10, 17004, Note_on_c, 10, 67, 0
10, 17010, Note_on_c, 10, 72, 127
10, 17034, Note_on_c, 10, 72, 0
10, 17040, Note_on_c, 10, 70, 101
10, 17064, Note_on_c, 10, 70, 0
10, 17070, Note_on_c, 10, 68, 93
10, 17094, Note_on_c, 10, 68, 0
10, 17100, Note_on_c, 10, 67, 114
10, 17124, Note_on_c, 10, 67, 0
10, 17130, Note_on_c, 10, 65, 127
10, 17154, Note_on_c, 10, 65, 0
10, 17160, Note_on_c, 10, 63, 100
10, 17184, Note_on_c, 10, 63, 0
10, 17190, Note_on_c, 10, 62, 107
10, 17214, Note_on_c, 10, 62, 0
10, 17220, Note_on_c, 10, 60, 127
10, 17244, Note_on_c, 10, 60, 0
10, 17250, Note_on_c, 10, 59, 116
10, 17274, Note_on_c, 10, 59, 0
10, 17280, Note_on_c, 10, 51, 89
10, 17280, Note_on_c, 10, 55, 112
10, 17328, Note_on_c, 10, 55, 0
10, 17340, Note_on_c, 10, 58, 107
10, 17388, Note_on_c, 10, 58, 0
10, 17400, Note_on_c, 10, 63, 107
10, 17448, Note_on_c, 10, 63, 0
10, 17460, Note_on_c, 10, 55, 117
10, 17508, Note_on_c, 10, 55, 0
10, 17520, Note_on_c, 10, 58, 115
10, 17568, Note_on_c, 10, 58, 0
10, 17568, Note_on_c, 10, 51, 0
10, 17580, Note_on_c, 10, 63, 103
10, 17628, Note_on_c, 10, 63, 0
10, 17640, Note_on_c, 10, 51, 107
10, 17640, Note_on_c, 10, 56, 92
10, 17688, Note_on_c, 10, 56, 0
10, 17700, Note_on_c, 10, 60, 127
10, 17748, Note_on_c, 10, 60, 0
10, 17760, Note_on_c, 10, 63, 109
10, 17808, Note_on_c, 10, 63, 0
10, 17820, Note_on_c, 10, 56, 103
10, 17868, Note_on_c, 10, 56, 0
10, 17880, Note_on_c, 10, 59, 121
10, 17928, Note_on_c, 10, 59, 0
10, 17928, Note_on_c, 10, 51, 0
10, 17940, Note_on_c, 10, 63, 118
10, 17988, Note_on_c, 10, 63, 0
10, 18000, Note_on_c, 10, 51, 82
10, 18000, Note_on_c, 10, 53, 120
10, 18000, Note_on_c, 10, 56, 97
10, 18048, Note_on_c, 10, 56, 0
10, 18060, Note_on_c, 10, 58, 113
10, 18108, Note_on_c, 10, 58, 0
10, 18120, Note_on_c, 10, 62, 127
10, 18168, Note_on_c, 10, 62, 0
10, 18180, Note_on_c, 10, 56, 105
10, 18228, Note_on_c, 10, 56, 0
10, 18240, Note_on_c, 10, 58, 118
10, 18288, Note_on_c, 10, 58, 0
10, 18288, Note_on_c, 10, 53, 0
10, 18288, Note_on_c, 10, 51, 0
10, 18300, Note_on_c, 10, 62, 127
10, 18348, Note_on_c, 10, 62, 0
10, 18360, Note_on_c, 10, 51, 111
10, 18360, Note_on_c, 10, 55, 121
10, 18408, Note_on_c, 10, 55, 0
10, 18420, Note_on_c, 10, 58, 99
10, 18468, Note_on_c, 10, 58, 0
10, 18480, Note_on_c, 10, 63, 96
10, 18528, Note_on_c, 10, 63, 0
10, 18540, Note_on_c, 10, 55, 107
10, 18588, Note_on_c, 10, 55, 0
10, 18600, Note_on_c, 10, 58, 99
10, 18648, Note_on_c, 10, 58, 0
10, 18648, Note_on_c, 10, 51, 0
10, 18660, Note_on_c, 10, 63, 109
10, 18708, Note_on_c, 10, 63, 0
10, 18720, Note_on_c, 10, 50, 125
10, 18720, Note_on_c, 10, 53, 118
10, 18768, Note_on_c, 10, 53, 0
10, 18780, Note_on_c, 10, 58, 88
10, 18828, Note_on_c, 10, 58, 0
10, 18840, Note_on_c, 10, 62, 102
10, 18864, Note_on_c, 10, 50, 0
10, 18888, Note_on_c, 10, 62, 0
10, 18900, Note_on_c, 10, 52, 111
10, 18900, Note_on_c, 10, 55, 114
10, 18948, Note_on_c, 10, 55, 0
10, 18960, Note_on_c, 10, 58, 113
10, 19008, Note_on_c, 10, 58, 0
10, 19020, Note_on_c, 10, 64, 109
10, 19044, Note_on_c, 10, 52, 0
10, 19068, Note_on_c, 10, 64, 0
10, 19080, Note_on_c, 10, 53, 123
10, 19080, Note_on_c, 10, 56, 99
10, 19128, Note_on_c, 10, 56, 0
10, 19140, Note_on_c, 10, 58, 50
10, 19188, Note_on_c, 10, 58, 0
10, 19200, Note_on_c, 10, 65, 127
10, 19248, Note_on_c, 10, 65, 0
10, 19260, Note_on_c, 10, 56, 88
10, 19308, Note_on_c, 10, 56, 0
10, 19320, Note_on_c, 10, 58, 115
10, 19368, Note_on_c, 10, 58, 0
10, 19368, Note_on_c, 10, 53, 0
10, 19380, Note_on_c, 10, 65, 127
10, 19428, Note_on_c, 10, 65, 0
10, 19440, Note_on_c, 10, 53, 127
10, 19440, Note_on_c, 10, 56, 105
10, 19488, Note_on_c, 10, 56, 0
10, 19500, Note_on_c, 10, 58, 107
10, 19548, Note_on_c, 10, 58, 0
10, 19560, Note_on_c, 10, 65, 123
10, 19584, Note_on_c, 10, 53, 0
10, 19608, Note_on_c, 10, 65, 0
10, 19620, Note_on_c, 10, 55, 116
10, 19620, Note_on_c, 10, 58, 100
10, 19668, Note_on_c, 10, 58, 0
10, 19680, Note_on_c, 10, 63, 111
10, 19728, Note_on_c, 10, 63, 0
10, 19740, Note_on_c, 10, 67, 127
10, 19764, Note_on_c, 10, 55, 0
10, 19788, Note_on_c, 10, 67, 0
10, 19800, Note_on_c, 10, 60, 109
10, 19800, Note_on_c, 10, 60, 127
10, 19848, Note_on_c, 10, 60, 0
10, 19860, Note_on_c, 10, 63, 123
10, 19908, Note_on_c, 10, 63, 0
10, 19920, Note_on_c, 10, 68, 107
10, 19968, Note_on_c, 10, 68, 0
10, 19980, Note_on_c, 10, 60, 109
10, 20028, Note_on_c, 10, 60, 0
10, 20040, Note_on_c, 10, 63, 121
10, 20088, Note_on_c, 10, 63, 0
10, 20088, Note_on_c, 10, 60, 0
10, 20100, Note_on_c, 10, 68, 76
10, 20148, Note_on_c, 10, 68, 0
10, 20160, Note_on_c, 10, 60, 123
10, 20160, Note_on_c, 10, 57, 99
10, 20160, Note_on_c, 10, 63, 94
10, 20208, Note_on_c, 10, 63, 0
10, 20220, Note_on_c, 10, 65, 118
10, 20268, Note_on_c, 10, 65, 0
10, 20280, Note_on_c, 10, 69, 111
10, 20304, Note_on_c, 10, 57, 0
10, 20304, Note_on_c, 10, 60, 0
10, 20328, Note_on_c, 10, 69, 0
10, 20340, Note_on_c, 10, 58, 83
10, 20340, Note_on_c, 10, 62, 118
10, 20388, Note_on_c, 10, 62, 0
10, 20400, Note_on_c, 10, 65, 127
10, 20448, Note_on_c, 10, 65, 0
10, 20460, Note_on_c, 10, 70, 93
10, 20484, Note_on_c, 10, 58, 0
10, 20508, Note_on_c, 10, 70, 0
10, 20520, Note_on_c, 10, 60, 113
10, 20550, Note_on_c, 10, 63, 118
10, 20580, Note_on_c, 10, 65, 127
10, 20610, Note_on_c, 10, 69, 116
10, 20640, Note_on_c, 10, 72, 103
10, 20714, Note_on_c, 10, 72, 0
10, 20714, Note_on_c, 10, 65, 0
10, 20714, Note_on_c, 10, 60, 0
10, 20714, Note_on_c, 10, 63, 0
10, 20714, Note_on_c, 10, 69, 0
10, 21240, Note_on_c, 10, 50, 123
10, 21270, Note_on_c, 10, 53, 116
10, 21300, Note_on_c, 10, 56, 109
10, 21330, Note_on_c, 10, 59, 104
10, 21360, Note_on_c, 10, 62, 118
10, 21434, Note_on_c, 10, 62, 0
10, 21434, Note_on_c, 10, 56, 0
10, 21434, Note_on_c, 10, 50, 0
10, 21434, Note_on_c, 10, 53, 0
10, 21434, Note_on_c, 10, 59, 0
10, 23036, Control_c, 10, 7, 84
10, 23220, Note_on_c, 10, 63, 121
10, 23268, Note_on_c, 10, 63, 0
10, 23280, Note_on_c, 10, 62, 125
10, 23328, Note_on_c, 10, 62, 0
10, 23340, Note_on_c, 10, 60, 127
10, 23388, Note_on_c, 10, 60, 0
10, 23400, Note_on_c, 10, 58, 127
10, 23448, Note_on_c, 10, 58, 0
10, 23460, Note_on_c, 10, 57, 127
10, 23508, Note_on_c, 10, 57, 0
10, 23520, Note_on_c, 10, 55, 127
10, 23568, Note_on_c, 10, 55, 0
10, 23580, Note_on_c, 10, 53, 127
10, 23676, Note_on_c, 10, 53, 0
10, 23700, Note_on_c, 10, 53, 120
10, 23748, Note_on_c, 10, 53, 0
10, 23940, Note_on_c, 10, 65, 127
10, 23988, Note_on_c, 10, 65, 0
10, 24000, Note_on_c, 10, 63, 115
10, 24048, Note_on_c, 10, 63, 0
10, 24060, Note_on_c, 10, 62, 127
10, 24108, Note_on_c, 10, 62, 0
10, 24120, Note_on_c, 10, 60, 117
10, 24168, Note_on_c, 10, 60, 0
10, 24180, Note_on_c, 10, 59, 106
10, 24228, Note_on_c, 10, 59, 0
10, 24240, Note_on_c, 10, 56, 92
10, 24288, Note_on_c, 10, 56, 0
10, 24300, Note_on_c, 10, 55, 125
10, 24396, Note_on_c, 10, 55, 0
10, 24420, Note_on_c, 10, 55, 127
10, 24468, Note_on_c, 10, 55, 0
10, 24480, Note_on_c, 10, 39, 127
10, 24480, Control_c, 10, 7, 117
10, 24504, Note_on_c, 10, 39, 0
10, 24510, Note_on_c, 10, 43, 127
10, 24534, Note_on_c, 10, 43, 0
10, 24540, Note_on_c, 10, 48, 127
10, 24564, Note_on_c, 10, 48, 0
10, 24570, Note_on_c, 10, 51, 127
10, 24594, Note_on_c, 10, 51, 0
10, 24660, Note_on_c, 10, 67, 127
10, 24708, Note_on_c, 10, 67, 0
10, 24720, Note_on_c, 10, 65, 127
10, 24768, Note_on_c, 10, 65, 0
10, 24780, Note_on_c, 10, 63, 118
10, 24828, Note_on_c, 10, 63, 0
10, 24840, Note_on_c, 10, 62, 127
10, 24888, Note_on_c, 10, 62, 0
10, 24900, Note_on_c, 10, 60, 127
10, 24948, Note_on_c, 10, 60, 0
10, 24960, Note_on_c, 10, 59, 127
10, 25008, Note_on_c, 10, 59, 0
10, 25020, Note_on_c, 10, 60, 127
10, 25032, Note_on_c, 10, 60, 0
10, 25035, Note_on_c, 10, 62, 123
10, 25047, Note_on_c, 10, 62, 0
10, 25050, Note_on_c, 10, 60, 127
10, 25062, Note_on_c, 10, 60, 0
10, 25065, Note_on_c, 10, 62, 127
10, 25077, Note_on_c, 10, 62, 0
10, 25080, Note_on_c, 10, 59, 111
10, 25104, Note_on_c, 10, 59, 0
10, 25110, Note_on_c, 10, 60, 118
10, 25134, Note_on_c, 10, 60, 0
10, 25140, Note_on_c, 10, 62, 125
10, 25188, Note_on_c, 10, 62, 0
10, 25200, Note_on_c, 10, 63, 121
10, 25200, Control_c, 10, 7, 117
10, 25245, Control_c, 10, 7, 116
10, 25248, Note_on_c, 10, 63, 0
10, 25260, Note_on_c, 10, 55, 127
10, 25290, Control_c, 10, 7, 115
10, 25308, Note_on_c, 10, 55, 0
10, 25320, Note_on_c, 10, 57, 127
10, 25335, Control_c, 10, 7, 114
10, 25368, Note_on_c, 10, 57, 0
10, 25380, Note_on_c, 10, 58, 111
10, 25380, Control_c, 10, 7, 113
10, 25425, Control_c, 10, 7, 112
10, 25470, Control_c, 10, 7, 111
10, 25476, Note_on_c, 10, 58, 0
10, 25500, Note_on_c, 10, 60, 125
10, 25515, Control_c, 10, 7, 110
10, 25548, Note_on_c, 10, 60, 0
10, 25555, Control_c, 10, 7, 109
10, 25560, Note_on_c, 10, 53, 117
10, 25584, Note_on_c, 10, 53, 0
10, 25590, Note_on_c, 10, 57, 111
10, 25614, Note_on_c, 10, 57, 0
10, 25620, Note_on_c, 10, 60, 127
10, 25644, Note_on_c, 10, 60, 0
10, 25650, Note_on_c, 10, 57, 123
10, 25674, Note_on_c, 10, 57, 0
10, 25680, Note_on_c, 10, 60, 120
10, 25704, Note_on_c, 10, 60, 0
10, 25710, Note_on_c, 10, 57, 116
10, 25734, Note_on_c, 10, 57, 0
10, 25740, Note_on_c, 10, 53, 116
10, 25764, Note_on_c, 10, 53, 0
10, 25770, Note_on_c, 10, 57, 123
10, 25794, Note_on_c, 10, 57, 0
10, 25800, Note_on_c, 10, 60, 109
10, 25824, Note_on_c, 10, 60, 0
10, 25830, Note_on_c, 10, 57, 121
10, 25854, Note_on_c, 10, 57, 0
10, 25860, Note_on_c, 10, 60, 111
10, 25884, Note_on_c, 10, 60, 0
10, 25890, Note_on_c, 10, 57, 117
10, 25914, Note_on_c, 10, 57, 0
10, 25920, Note_on_c, 10, 53, 117
10, 25944, Note_on_c, 10, 53, 0
10, 25950, Note_on_c, 10, 57, 127
10, 25974, Note_on_c, 10, 57, 0
10, 25980, Note_on_c, 10, 60, 113
10, 26004, Note_on_c, 10, 60, 0
10, 26010, Note_on_c, 10, 57, 127
10, 26034, Note_on_c, 10, 57, 0
10, 26040, Note_on_c, 10, 60, 120
10, 26064, Note_on_c, 10, 60, 0
10, 26070, Note_on_c, 10, 57, 125
10, 26094, Note_on_c, 10, 57, 0
10, 26100, Note_on_c, 10, 53, 111
10, 26124, Note_on_c, 10, 53, 0
10, 26130, Note_on_c, 10, 57, 127
10, 26154, Note_on_c, 10, 57, 0
10, 26160, Note_on_c, 10, 60, 121
10, 26184, Note_on_c, 10, 60, 0
10, 26190, Note_on_c, 10, 57, 125
10, 26214, Note_on_c, 10, 57, 0
10, 26220, Note_on_c, 10, 60, 120
10, 26244, Note_on_c, 10, 60, 0
10, 26250, Note_on_c, 10, 57, 117
10, 26274, Note_on_c, 10, 57, 0
10, 26280, Note_on_c, 10, 53, 125
10, 26304, Note_on_c, 10, 53, 0
10, 26310, Note_on_c, 10, 58, 95
10, 26334, Note_on_c, 10, 58, 0
10, 26340, Note_on_c, 10, 62, 120
10, 26364, Note_on_c, 10, 62, 0
10, 26370, Note_on_c, 10, 58, 103
10, 26394, Note_on_c, 10, 58, 0
10, 26400, Note_on_c, 10, 62, 111
10, 26424, Note_on_c, 10, 62, 0
10, 26430, Note_on_c, 10, 58, 100
10, 26454, Note_on_c, 10, 58, 0
10, 26460, Note_on_c, 10, 53, 116
10, 26484, Note_on_c, 10, 53, 0
10, 26490, Note_on_c, 10, 58, 107
10, 26514, Note_on_c, 10, 58, 0
10, 26520, Note_on_c, 10, 62, 111
10, 26544, Note_on_c, 10, 62, 0
10, 26550, Note_on_c, 10, 58, 105
10, 26574, Note_on_c, 10, 58, 0
10, 26580, Note_on_c, 10, 62, 127
10, 26604, Note_on_c, 10, 62, 0
10, 26610, Note_on_c, 10, 58, 105
10, 26634, Note_on_c, 10, 58, 0
10, 26640, Note_on_c, 10, 53, 116
10, 26664, Note_on_c, 10, 53, 0
10, 26670, Note_on_c, 10, 58, 111
10, 26694, Note_on_c, 10, 58, 0
10, 26700, Note_on_c, 10, 62, 113
10, 26724, Note_on_c, 10, 62, 0
10, 26730, Note_on_c, 10, 58, 109
10, 26754, Note_on_c, 10, 58, 0
10, 26760, Note_on_c, 10, 62, 120
10, 26784, Note_on_c, 10, 62, 0
10, 26790, Note_on_c, 10, 58, 105
10, 26814, Note_on_c, 10, 58, 0
10, 26820, Note_on_c, 10, 53, 114
10, 26844, Note_on_c, 10, 53, 0
10, 26850, Note_on_c, 10, 58, 107
10, 26874, Note_on_c, 10, 58, 0
10, 26880, Note_on_c, 10, 62, 107
10, 26904, Note_on_c, 10, 62, 0
10, 26910, Note_on_c, 10, 58, 103
10, 26934, Note_on_c, 10, 58, 0
10, 26940, Note_on_c, 10, 62, 127
10, 26964, Note_on_c, 10, 62, 0
10, 26970, Note_on_c, 10, 58, 97
10, 26994, Note_on_c, 10, 58, 0
10, 27000, Note_on_c, 10, 53, 113
10, 27024, Note_on_c, 10, 53, 0
10, 27030, Note_on_c, 10, 60, 127
10, 27054, Note_on_c, 10, 60, 0
10, 27060, Note_on_c, 10, 63, 111
10, 27084, Note_on_c, 10, 63, 0
10, 27090, Note_on_c, 10, 60, 127
10, 27114, Note_on_c, 10, 60, 0
10, 27120, Note_on_c, 10, 63, 91
10, 27144, Note_on_c, 10, 63, 0
10, 27150, Note_on_c, 10, 60, 121
10, 27174, Note_on_c, 10, 60, 0
10, 27180, Note_on_c, 10, 53, 114
10, 27204, Note_on_c, 10, 53, 0
10, 27210, Note_on_c, 10, 60, 121
10, 27234, Note_on_c, 10, 60, 0
10, 27240, Note_on_c, 10, 63, 103
10, 27264, Note_on_c, 10, 63, 0
10, 27270, Note_on_c, 10, 60, 125
10, 27294, Note_on_c, 10, 60, 0
10, 27300, Note_on_c, 10, 63, 113
10, 27324, Note_on_c, 10, 63, 0
10, 27330, Note_on_c, 10, 60, 121
10, 27354, Note_on_c, 10, 60, 0
10, 27360, Note_on_c, 10, 53, 108
10, 27384, Note_on_c, 10, 53, 0
10, 27390, Note_on_c, 10, 60, 127
10, 27414, Note_on_c, 10, 60, 0
10, 27420, Note_on_c, 10, 63, 100
10, 27444, Note_on_c, 10, 63, 0
10, 27450, Note_on_c, 10, 60, 127
10, 27474, Note_on_c, 10, 60, 0
10, 27480, Note_on_c, 10, 63, 109
10, 27504, Note_on_c, 10, 63, 0
10, 27510, Note_on_c, 10, 60, 120
10, 27534, Note_on_c, 10, 60, 0
10, 27540, Note_on_c, 10, 53, 107
10, 27564, Note_on_c, 10, 53, 0
10, 27570, Note_on_c, 10, 60, 127
10, 27594, Note_on_c, 10, 60, 0
10, 27600, Note_on_c, 10, 63, 101
10, 27624, Note_on_c, 10, 63, 0
10, 27630, Note_on_c, 10, 60, 125
10, 27654, Note_on_c, 10, 60, 0
10, 27660, Note_on_c, 10, 63, 97
10, 27684, Note_on_c, 10, 63, 0
10, 27690, Note_on_c, 10, 60, 127
10, 27714, Note_on_c, 10, 60, 0
10, 27720, Note_on_c, 10, 58, 115
10, 27744, Note_on_c, 10, 58, 0
10, 27750, Note_on_c, 10, 62, 125
10, 27750, Note_on_c, 10, 65, 127
10, 27774, Note_on_c, 10, 65, 0
10, 27774, Note_on_c, 10, 62, 0
10, 27780, Note_on_c, 10, 70, 115
10, 27804, Note_on_c, 10, 70, 0
10, 27810, Note_on_c, 10, 62, 117
10, 27810, Note_on_c, 10, 65, 127
10, 27834, Note_on_c, 10, 65, 0
10, 27834, Note_on_c, 10, 62, 0
10, 27840, Note_on_c, 10, 70, 100
10, 27864, Note_on_c, 10, 70, 0
10, 27870, Note_on_c, 10, 65, 127
10, 27870, Note_on_c, 10, 62, 110
10, 27894, Note_on_c, 10, 62, 0
10, 27894, Note_on_c, 10, 65, 0
10, 27900, Note_on_c, 10, 58, 113
10, 27924, Note_on_c, 10, 58, 0
10, 27930, Note_on_c, 10, 63, 121
10, 27930, Note_on_c, 10, 67, 118
10, 27954, Note_on_c, 10, 67, 0
10, 27954, Note_on_c, 10, 63, 0
10, 27960, Note_on_c, 10, 70, 121
10, 27984, Note_on_c, 10, 70, 0
10, 27990, Note_on_c, 10, 67, 127
10, 27990, Note_on_c, 10, 63, 81
10, 28014, Note_on_c, 10, 63, 0
10, 28014, Note_on_c, 10, 67, 0
10, 28020, Note_on_c, 10, 70, 109
10, 28044, Note_on_c, 10, 70, 0
10, 28050, Note_on_c, 10, 63, 80
10, 28050, Note_on_c, 10, 67, 127
10, 28074, Note_on_c, 10, 67, 0
10, 28074, Note_on_c, 10, 63, 0
10, 28080, Note_on_c, 10, 58, 111
10, 28104, Note_on_c, 10, 58, 0
10, 28110, Note_on_c, 10, 65, 127
10, 28110, Note_on_c, 10, 62, 97
10, 28134, Note_on_c, 10, 62, 0
10, 28134, Note_on_c, 10, 65, 0
10, 28140, Note_on_c, 10, 70, 121
10, 28164, Note_on_c, 10, 70, 0
10, 28170, Note_on_c, 10, 62, 127
10, 28170, Note_on_c, 10, 65, 127
10, 28194, Note_on_c, 10, 65, 0
10, 28194, Note_on_c, 10, 62, 0
10, 28200, Note_on_c, 10, 70, 95
10, 28224, Note_on_c, 10, 70, 0
10, 28230, Note_on_c, 10, 62, 127
10, 28230, Note_on_c, 10, 65, 127
10, 28254, Note_on_c, 10, 65, 0
10, 28254, Note_on_c, 10, 62, 0
10, 28260, Note_on_c, 10, 58, 100
10, 28284, Note_on_c, 10, 58, 0
10, 28290, Note_on_c, 10, 60, 116
10, 28290, Note_on_c, 10, 65, 123
10, 28314, Note_on_c, 10, 65, 0
10, 28314, Note_on_c, 10, 60, 0
10, 28320, Note_on_c, 10, 69, 127
10, 28344, Note_on_c, 10, 69, 0
10, 28350, Note_on_c, 10, 60, 104
10, 28350, Note_on_c, 10, 65, 125
10, 28374, Note_on_c, 10, 65, 0
10, 28374, Note_on_c, 10, 60, 0
10, 28380, Note_on_c, 10, 69, 109
10, 28404, Note_on_c, 10, 69, 0
10, 28410, Note_on_c, 10, 60, 118
10, 28410, Note_on_c, 10, 65, 114
10, 28434, Note_on_c, 10, 65, 0
10, 28434, Note_on_c, 10, 60, 0
10, 28440, Note_on_c, 10, 58, 111
10, 28464, Note_on_c, 10, 58, 0
10, 28470, Note_on_c, 10, 65, 127
10, 28494, Note_on_c, 10, 65, 0
10, 28500, Note_on_c, 10, 70, 111
10, 28524, Note_on_c, 10, 70, 0
10, 28530, Note_on_c, 10, 62, 127
10, 28530, Note_on_c, 10, 65, 123
10, 28554, Note_on_c, 10, 65, 0
10, 28554, Note_on_c, 10, 62, 0
10, 28560, Note_on_c, 10, 70, 97
10, 28584, Note_on_c, 10, 70, 0
10, 28590, Note_on_c, 10, 65, 127
10, 28590, Note_on_c, 10, 62, 127
10, 28614, Note_on_c, 10, 62, 0
10, 28614, Note_on_c, 10, 65, 0
10, 28620, Note_on_c, 10, 58, 111
10, 28644, Note_on_c, 10, 58, 0
10, 28650, Note_on_c, 10, 63, 127
10, 28650, Note_on_c, 10, 67, 127
10, 28674, Note_on_c, 10, 67, 0
10, 28674, Note_on_c, 10, 63, 0
10, 28680, Note_on_c, 10, 70, 115
10, 28704, Note_on_c, 10, 70, 0
10, 28710, Note_on_c, 10, 63, 105
10, 28710, Note_on_c, 10, 67, 127
10, 28734, Note_on_c, 10, 67, 0
10, 28734, Note_on_c, 10, 63, 0
10, 28740, Note_on_c, 10, 70, 111
10, 28764, Note_on_c, 10, 70, 0
10, 28770, Note_on_c, 10, 63, 95
10, 28770, Note_on_c, 10, 67, 127
10, 28794, Note_on_c, 10, 67, 0
10, 28794, Note_on_c, 10, 63, 0
10, 28800, Note_on_c, 10, 58, 109
10, 28824, Note_on_c, 10, 58, 0
10, 28830, Note_on_c, 10, 65, 127
10, 28830, Note_on_c, 10, 62, 127
10, 28854, Note_on_c, 10, 62, 0
10, 28854, Note_on_c, 10, 65, 0
10, 28860, Note_on_c, 10, 70, 111
10, 28884, Note_on_c, 10, 70, 0
10, 28890, Note_on_c, 10, 65, 127
10, 28890, Note_on_c, 10, 62, 111
10, 28914, Note_on_c, 10, 62, 0
10, 28914, Note_on_c, 10, 65, 0
10, 28920, Note_on_c, 10, 70, 86
10, 28944, Note_on_c, 10, 70, 0
10, 28950, Note_on_c, 10, 62, 121
10, 28950, Note_on_c, 10, 65, 127
10, 28974, Note_on_c, 10, 65, 0
10, 28974, Note_on_c, 10, 62, 0
10, 28980, Note_on_c, 10, 58, 111
10, 29004, Note_on_c, 10, 58, 0
10, 29010, Note_on_c, 10, 60, 112
10, 29010, Note_on_c, 10, 65, 125
10, 29034, Note_on_c, 10, 65, 0
10, 29034, Note_on_c, 10, 60, 0
10, 29040, Note_on_c, 10, 69, 117
10, 29064, Note_on_c, 10, 69, 0
10, 29070, Note_on_c, 10, 60, 112
10, 29070, Note_on_c, 10, 65, 127
10, 29094, Note_on_c, 10, 65, 0
10, 29094, Note_on_c, 10, 60, 0
10, 29100, Note_on_c, 10, 69, 127
10, 29124, Note_on_c, 10, 69, 0
10, 29130, Note_on_c, 10, 65, 127
10, 29130, Note_on_c, 10, 60, 117
10, 29154, Note_on_c, 10, 60, 0
10, 29154, Note_on_c, 10, 65, 0
10, 29160, Note_on_c, 10, 58, 109
10, 29184, Note_on_c, 10, 58, 0
10, 29190, Note_on_c, 10, 62, 127
10, 29190, Note_on_c, 10, 65, 127
10, 29214, Note_on_c, 10, 65, 0
10, 29214, Note_on_c, 10, 62, 0
10, 29220, Note_on_c, 10, 70, 88
10, 29244, Note_on_c, 10, 70, 0
10, 29250, Note_on_c, 10, 62, 107
10, 29250, Note_on_c, 10, 65, 127
10, 29274, Note_on_c, 10, 65, 0
10, 29274, Note_on_c, 10, 62, 0
10, 29280, Note_on_c, 10, 70, 88
10, 29304, Note_on_c, 10, 70, 0
10, 29310, Note_on_c, 10, 62, 111
10, 29310, Note_on_c, 10, 65, 127
10, 29334, Note_on_c, 10, 65, 0
10, 29334, Note_on_c, 10, 62, 0
10, 29340, Note_on_c, 10, 58, 101
10, 29364, Note_on_c, 10, 58, 0
10, 29370, Note_on_c, 10, 63, 126
10, 29370, Note_on_c, 10, 67, 125
10, 29394, Note_on_c, 10, 67, 0
10, 29394, Note_on_c, 10, 63, 0
10, 29400, Note_on_c, 10, 70, 126
10, 29424, Note_on_c, 10, 70, 0
10, 29430, Note_on_c, 10, 63, 109
10, 29430, Note_on_c, 10, 67, 109
10, 29454, Note_on_c, 10, 67, 0
10, 29454, Note_on_c, 10, 63, 0
10, 29460, Note_on_c, 10, 70, 96
10, 29484, Note_on_c, 10, 70, 0
10, 29490, Note_on_c, 10, 63, 105
10, 29490, Note_on_c, 10, 67, 118
10, 29514, Note_on_c, 10, 67, 0
10, 29514, Note_on_c, 10, 63, 0
10, 29520, Note_on_c, 10, 58, 94
10, 29544, Note_on_c, 10, 58, 0
10, 29550, Note_on_c, 10, 62, 127
10, 29550, Note_on_c, 10, 65, 127
10, 29574, Note_on_c, 10, 65, 0
10, 29574, Note_on_c, 10, 62, 0
10, 29580, Note_on_c, 10, 70, 88
10, 29604, Note_on_c, 10, 70, 0
10, 29610, Note_on_c, 10, 62, 116
10, 29610, Note_on_c, 10, 65, 121
10, 29634, Note_on_c, 10, 65, 0
10, 29634, Note_on_c, 10, 62, 0
10, 29640, Note_on_c, 10, 70, 113
10, 29664, Note_on_c, 10, 70, 0
10, 29670, Note_on_c, 10, 62, 112
10, 29670, Note_on_c, 10, 65, 127
10, 29694, Note_on_c, 10, 65, 0
10, 29694, Note_on_c, 10, 62, 0
10, 29700, Note_on_c, 10, 58, 109
10, 29724, Note_on_c, 10, 58, 0
10, 29730, Note_on_c, 10, 63, 121
10, 29730, Note_on_c, 10, 67, 113
10, 29754, Note_on_c, 10, 67, 0
10, 29754, Note_on_c, 10, 63, 0
10, 29760, Note_on_c, 10, 70, 101
10, 29784, Note_on_c, 10, 70, 0
10, 29790, Note_on_c, 10, 63, 96
10, 29790, Note_on_c, 10, 67, 127
10, 29814, Note_on_c, 10, 67, 0
10, 29814, Note_on_c, 10, 63, 0
10, 29820, Note_on_c, 10, 70, 93
10, 29844, Note_on_c, 10, 70, 0
10, 29850, Note_on_c, 10, 63, 113
10, 29850, Note_on_c, 10, 67, 127
10, 29874, Note_on_c, 10, 67, 0
10, 29874, Note_on_c, 10, 63, 0
10, 29880, Note_on_c, 10, 58, 113
10, 29904, Note_on_c, 10, 58, 0
10, 29910, Note_on_c, 10, 62, 123
10, 29934, Note_on_c, 10, 62, 0
10, 29940, Note_on_c, 10, 65, 116
10, 29964, Note_on_c, 10, 65, 0
10, 29970, Note_on_c, 10, 58, 105
10, 29994, Note_on_c, 10, 58, 0
10, 30000, Note_on_c, 10, 63, 126
10, 30024, Note_on_c, 10, 63, 0
10, 30030, Note_on_c, 10, 67, 109
10, 30054, Note_on_c, 10, 67, 0
10, 30060, Note_on_c, 10, 58, 107
10, 30084, Note_on_c, 10, 58, 0
10, 30090, Note_on_c, 10, 62, 127
10, 30114, Note_on_c, 10, 62, 0
10, 30120, Note_on_c, 10, 65, 109
10, 30144, Note_on_c, 10, 65, 0
10, 30150, Note_on_c, 10, 58, 105
10, 30174, Note_on_c, 10, 58, 0
10, 30180, Note_on_c, 10, 63, 127
10, 30204, Note_on_c, 10, 63, 0
10, 30210, Note_on_c, 10, 67, 113
10, 30234, Note_on_c, 10, 67, 0
10, 30240, Note_on_c, 10, 58, 107
10, 30264, Note_on_c, 10, 58, 0
10, 30270, Note_on_c, 10, 62, 127
10, 30294, Note_on_c, 10, 62, 0
10, 30300, Note_on_c, 10, 65, 109
10, 30324, Note_on_c, 10, 65, 0
10, 30330, Note_on_c, 10, 58, 107
10, 30354, Note_on_c, 10, 58, 0
10, 30360, Note_on_c, 10, 63, 123
10, 30384, Note_on_c, 10, 63, 0
10, 30390, Note_on_c, 10, 67, 109
10, 30414, Note_on_c, 10, 67, 0
10, 30420, Note_on_c, 10, 58, 105
10, 30444, Note_on_c, 10, 58, 0
10, 30450, Note_on_c, 10, 62, 127
10, 30474, Note_on_c, 10, 62, 0
10, 30480, Note_on_c, 10, 65, 103
10, 30504, Note_on_c, 10, 65, 0
10, 30510, Note_on_c, 10, 58, 92
10, 30534, Note_on_c, 10, 58, 0
10, 30540, Note_on_c, 10, 63, 127
10, 30564, Note_on_c, 10, 63, 0
10, 30570, Note_on_c, 10, 67, 127
10, 30594, Note_on_c, 10, 67, 0
10, 30600, Note_on_c, 10, 68, 115
10, 30648, Note_on_c, 10, 68, 0
10, 30660, Note_on_c, 10, 65, 127
10, 30708, Note_on_c, 10, 65, 0
10, 30720, Note_on_c, 10, 62, 118
10, 30768, Note_on_c, 10, 62, 0
10, 30780, Note_on_c, 10, 58, 115
10, 30828, Note_on_c, 10, 58, 0
10, 30840, Note_on_c, 10, 56, 111
10, 30888, Note_on_c, 10, 56, 0
10, 30900, Note_on_c, 10, 53, 123
10, 30948, Note_on_c, 10, 53, 0
10, 30960, Note_on_c, 10, 50, 117
10, 31008, Note_on_c, 10, 50, 0
10, 31020, Note_on_c, 10, 46, 118
10, 31068, Note_on_c, 10, 46, 0
10, 31080, Note_on_c, 10, 44, 109
10, 31128, Note_on_c, 10, 44, 0
10, 31140, Note_on_c, 10, 41, 127
10, 31188, Note_on_c, 10, 41, 0
10, 31200, Note_on_c, 10, 38, 127
10, 31248, Note_on_c, 10, 38, 0
10, 31260, Note_on_c, 10, 34, 105
10, 31308, Note_on_c, 10, 34, 0
10, 31320, Note_on_c, 10, 38, 127
10, 31368, Note_on_c, 10, 38, 0
10, 31380, Note_on_c, 10, 41, 127
10, 31428, Note_on_c, 10, 41, 0
10, 31440, Note_on_c, 10, 44, 121
10, 31488, Note_on_c, 10, 44, 0
10, 31500, Note_on_c, 10, 46, 113
10, 31548, Note_on_c, 10, 46, 0
10, 31560, Note_on_c, 10, 50, 127
10, 31608, Note_on_c, 10, 50, 0
10, 31620, Note_on_c, 10, 53, 127
10, 31668, Note_on_c, 10, 53, 0
10, 31680, Note_on_c, 10, 56, 105
10, 31728, Note_on_c, 10, 56, 0
10, 31740, Note_on_c, 10, 58, 121
10, 31788, Note_on_c, 10, 58, 0
10, 31800, Note_on_c, 10, 62, 127
10, 31848, Note_on_c, 10, 62, 0
10, 31860, Note_on_c, 10, 65, 117
10, 31908, Note_on_c, 10, 65, 0
10, 31920, Note_on_c, 10, 68, 109
10, 31968, Note_on_c, 10, 68, 0
10, 31980, Note_on_c, 10, 70, 88
10, 32028, Note_on_c, 10, 70, 0
10, 32040, Note_on_c, 10, 71, 127
10, 32088, Note_on_c, 10, 71, 0
10, 32100, Note_on_c, 10, 59, 121
10, 32148, Note_on_c, 10, 59, 0
10, 32160, Note_on_c, 10, 58, 105
10, 32208, Note_on_c, 10, 58, 0
10, 32220, Note_on_c, 10, 71, 117
10, 32268, Note_on_c, 10, 71, 0
10, 32280, Note_on_c, 10, 59, 103
10, 32328, Note_on_c, 10, 59, 0
10, 32340, Note_on_c, 10, 58, 107
10, 32388, Note_on_c, 10, 58, 0
10, 32400, Note_on_c, 10, 71, 120
10, 32448, Note_on_c, 10, 71, 0
10, 32460, Note_on_c, 10, 59, 104
10, 32508, Note_on_c, 10, 59, 0
10, 32520, Note_on_c, 10, 58, 97
10, 32568, Note_on_c, 10, 58, 0
10, 32580, Note_on_c, 10, 71, 125
10, 32628, Note_on_c, 10, 71, 0
10, 32640, Note_on_c, 10, 59, 120
10, 32688, Note_on_c, 10, 59, 0
10, 32700, Note_on_c, 10, 58, 95
10, 32748, Note_on_c, 10, 58, 0
10, 32760, Note_on_c, 10, 57, 127
10, 32808, Note_on_c, 10, 57, 0
10, 32820, Note_on_c, 10, 56, 118
10, 32868, Note_on_c, 10, 56, 0
10, 32880, Note_on_c, 10, 55, 127
10, 32928, Note_on_c, 10, 55, 0
10, 32940, Note_on_c, 10, 54, 118
10, 32988, Note_on_c, 10, 54, 0
10, 33000, Note_on_c, 10, 53, 127
10, 33048, Note_on_c, 10, 53, 0
10, 33060, Note_on_c, 10, 52, 127
10, 33108, Note_on_c, 10, 52, 0
10, 33120, Note_on_c, 10, 51, 121
10, 33168, Note_on_c, 10, 51, 0
10, 33180, Note_on_c, 10, 50, 127
10, 33228, Note_on_c, 10, 50, 0
10, 33240, Note_on_c, 10, 49, 115
10, 33288, Note_on_c, 10, 49, 0
10, 33300, Note_on_c, 10, 48, 127
10, 33348, Note_on_c, 10, 48, 0
10, 33360, Note_on_c, 10, 47, 109
10, 33408, Note_on_c, 10, 47, 0
10, 33420, Note_on_c, 10, 46, 115
10, 33468, Note_on_c, 10, 46, 0
10, 33480, Note_on_c, 10, 39, 127
10, 33528, Note_on_c, 10, 39, 0
10, 33540, Note_on_c, 10, 58, 126
10, 33588, Note_on_c, 10, 58, 0
10, 33600, Note_on_c, 10, 51, 113
10, 33600, Note_on_c, 10, 55, 127
10, 33600, Note_on_c, 10, 46, 126
10, 33648, Note_on_c, 10, 46, 0
10, 33648, Note_on_c, 10, 55, 0
10, 33648, Note_on_c, 10, 51, 0
10, 33660, Note_on_c, 10, 39, 127
10, 33708, Note_on_c, 10, 39, 0
10, 33720, Note_on_c, 10, 58, 115
10, 33768, Note_on_c, 10, 58, 0
10, 33780, Note_on_c, 10, 51, 101
10, 33780, Note_on_c, 10, 55, 127
10, 33780, Note_on_c, 10, 46, 127
10, 33828, Note_on_c, 10, 46, 0
10, 33828, Note_on_c, 10, 55, 0
10, 33828, Note_on_c, 10, 51, 0
10, 33840, Note_on_c, 10, 39, 102
10, 33888, Note_on_c, 10, 39, 0
10, 33900, Note_on_c, 10, 58, 94
10, 33948, Note_on_c, 10, 58, 0
10, 33960, Note_on_c, 10, 51, 92
10, 33960, Note_on_c, 10, 55, 102
10, 33960, Note_on_c, 10, 46, 101
10, 34008, Note_on_c, 10, 46, 0
10, 34008, Note_on_c, 10, 55, 0
10, 34008, Note_on_c, 10, 51, 0
10, 34020, Note_on_c, 10, 39, 102
10, 34068, Note_on_c, 10, 39, 0
10, 34080, Note_on_c, 10, 58, 94
10, 34128, Note_on_c, 10, 58, 0
10, 34140, Note_on_c, 10, 51, 77
10, 34140, Note_on_c, 10, 55, 102
10, 34140, Note_on_c, 10, 46, 82
10, 34188, Note_on_c, 10, 46, 0
10, 34188, Note_on_c, 10, 55, 0
10, 34188, Note_on_c, 10, 51, 0
10, 34200, Note_on_c, 10, 34, 64
10, 34248, Note_on_c, 10, 34, 0
10, 34260, Note_on_c, 10, 58, 74
10, 34308, Note_on_c, 10, 58, 0
10, 34320, Note_on_c, 10, 46, 75
10, 34320, Note_on_c, 10, 56, 77
10, 34320, Note_on_c, 10, 53, 73
10, 34368, Note_on_c, 10, 53, 0
10, 34368, Note_on_c, 10, 56, 0
10, 34368, Note_on_c, 10, 46, 0
10, 34380, Note_on_c, 10, 39, 75
10, 34428, Note_on_c, 10, 39, 0
10, 34440, Note_on_c, 10, 58, 70
10, 34488, Note_on_c, 10, 58, 0
10, 34500, Note_on_c, 10, 55, 77
10, 34500, Note_on_c, 10, 51, 67
10, 34500, Note_on_c, 10, 46, 75
10, 34548, Note_on_c, 10, 46, 0
10, 34548, Note_on_c, 10, 51, 0
10, 34548, Note_on_c, 10, 55, 0
10, 34560, Note_on_c, 10, 34, 76
10, 34608, Note_on_c, 10, 34, 0
10, 34620, Note_on_c, 10, 58, 76
10, 34668, Note_on_c, 10, 58, 0
10, 34680, Note_on_c, 10, 50, 77
10, 34680, Note_on_c, 10, 53, 77
10, 34680, Note_on_c, 10, 46, 76
10, 34728, Note_on_c, 10, 46, 0
10, 34728, Note_on_c, 10, 53, 0
10, 34728, Note_on_c, 10, 50, 0
10, 34740, Note_on_c, 10, 34, 77
10, 34788, Note_on_c, 10, 34, 0
10, 34800, Note_on_c, 10, 58, 69
10, 34848, Note_on_c, 10, 58, 0
10, 34860, Note_on_c, 10, 53, 77
10, 34860, Note_on_c, 10, 56, 74
10, 34860, Note_on_c, 10, 46, 62
10, 34908, Note_on_c, 10, 46, 0
10, 34908, Note_on_c, 10, 56, 0
10, 34908, Note_on_c, 10, 53, 0
10, 34920, Note_on_c, 10, 39, 126
10, 34968, Note_on_c, 10, 39, 0
10, 34980, Note_on_c, 10, 58, 121
10, 35028, Note_on_c, 10, 58, 0
10, 35040, Note_on_c, 10, 51, 111
10, 35040, Note_on_c, 10, 55, 127
10, 35040, Note_on_c, 10, 46, 113
10, 35088, Note_on_c, 10, 46, 0
10, 35088, Note_on_c, 10, 55, 0
10, 35088, Note_on_c, 10, 51, 0
10, 35100, Note_on_c, 10, 39, 127
10, 35148, Note_on_c, 10, 39, 0
10, 35160, Note_on_c, 10, 58, 107
10, 35208, Note_on_c, 10, 58, 0
10, 35220, Note_on_c, 10, 51, 111
10, 35220, Note_on_c, 10, 46, 109
10, 35220, Note_on_c, 10, 55, 127
10, 35268, Note_on_c, 10, 55, 0
10, 35268, Note_on_c, 10, 46, 0
10, 35268, Note_on_c, 10, 51, 0
10, 35280, Note_on_c, 10, 39, 102
10, 35328, Note_on_c, 10, 39, 0
10, 35340, Note_on_c, 10, 58, 101
10, 35388, Note_on_c, 10, 58, 0
10, 35400, Note_on_c, 10, 51, 102
10, 35400, Note_on_c, 10, 55, 102
10, 35400, Note_on_c, 10, 46, 74
10, 35448, Note_on_c, 10, 46, 0
10, 35448, Note_on_c, 10, 55, 0
10, 35448, Note_on_c, 10, 51, 0
10, 35460, Note_on_c, 10, 39, 102
10, 35508, Note_on_c, 10, 39, 0
10, 35520, Note_on_c, 10, 58, 94
10, 35568, Note_on_c, 10, 58, 0
10, 35580, Note_on_c, 10, 51, 89
10, 35580, Note_on_c, 10, 55, 102
10, 35580, Note_on_c, 10, 46, 97
10, 35628, Note_on_c, 10, 46, 0
10, 35628, Note_on_c, 10, 55, 0
10, 35628, Note_on_c, 10, 51, 0
10, 35640, Note_on_c, 10, 34, 92
10, 35688, Note_on_c, 10, 34, 0
10, 35700, Note_on_c, 10, 58, 88
10, 35748, Note_on_c, 10, 58, 0
10, 35760, Note_on_c, 10, 53, 90
10, 35760, Note_on_c, 10, 56, 92
10, 35760, Note_on_c, 10, 46, 87
10, 35808, Note_on_c, 10, 46, 0
10, 35808, Note_on_c, 10, 56, 0
10, 35808, Note_on_c, 10, 53, 0
10, 35820, Note_on_c, 10, 39, 92
10, 35868, Note_on_c, 10, 39, 0
10, 35880, Note_on_c, 10, 58, 80
10, 35928, Note_on_c, 10, 58, 0
10, 35940, Note_on_c, 10, 55, 92
10, 35940, Note_on_c, 10, 51, 76
10, 35940, Note_on_c, 10, 46, 88
10, 35988, Note_on_c, 10, 46, 0
10, 35988, Note_on_c, 10, 51, 0
10, 35988, Note_on_c, 10, 55, 0
10, 36000, Note_on_c, 10, 46, 88
10, 36048, Note_on_c, 10, 46, 0
10, 36060, Note_on_c, 10, 58, 87
10, 36108, Note_on_c, 10, 58, 0
10, 36120, Note_on_c, 10, 50, 84
10, 36120, Note_on_c, 10, 53, 92
10, 36168, Note_on_c, 10, 53, 0
10, 36168, Note_on_c, 10, 50, 0
10, 36180, Note_on_c, 10, 46, 87
10, 36228, Note_on_c, 10, 46, 0
10, 36240, Note_on_c, 10, 62, 92
10, 36240, Note_on_c, 10, 65, 92
10, 36288, Note_on_c, 10, 65, 0
10, 36288, Note_on_c, 10, 62, 0
10, 36300, Note_on_c, 10, 61, 69
10, 36300, Note_on_c, 10, 64, 92
10, 36348, Note_on_c, 10, 64, 0
10, 36348, Note_on_c, 10, 61, 0
10, 36360, Note_on_c, 10, 46, 126
10, 36408, Note_on_c, 10, 46, 0
10, 36420, Note_on_c, 10, 63, 123
10, 36420, Note_on_c, 10, 60, 127
10, 36468, Note_on_c, 10, 60, 0
10, 36468, Note_on_c, 10, 63, 0
10, 36480, Note_on_c, 10, 62, 127
10, 36480, Note_on_c, 10, 59, 123
10, 36528, Note_on_c, 10, 59, 0
10, 36528, Note_on_c, 10, 62, 0
10, 36540, Note_on_c, 10, 46, 121
10, 36588, Note_on_c, 10, 46, 0
10, 36600, Note_on_c, 10, 61, 123
10, 36600, Note_on_c, 10, 58, 123
10, 36648, Note_on_c, 10, 58, 0
10, 36648, Note_on_c, 10, 61, 0
10, 36660, Note_on_c, 10, 60, 127
10, 36660, Note_on_c, 10, 57, 125
10, 36708, Note_on_c, 10, 57, 0
10, 36708, Note_on_c, 10, 60, 0
10, 36720, Note_on_c, 10, 46, 113
10, 36768, Note_on_c, 10, 46, 0
10, 36780, Note_on_c, 10, 56, 94
10, 36780, Note_on_c, 10, 59, 127
10, 36828, Note_on_c, 10, 59, 0
10, 36828, Note_on_c, 10, 56, 0
10, 36840, Note_on_c, 10, 58, 123
10, 36840, Note_on_c, 10, 55, 127
10, 36888, Note_on_c, 10, 55, 0
10, 36888, Note_on_c, 10, 58, 0
10, 36900, Note_on_c, 10, 46, 115
10, 36948, Note_on_c, 10, 46, 0
10, 36960, Note_on_c, 10, 54, 90
10, 36960, Note_on_c, 10, 57, 127
10, 37008, Note_on_c, 10, 57, 0
10, 37008, Note_on_c, 10, 54, 0
10, 37020, Note_on_c, 10, 56, 118
10, 37020, Note_on_c, 10, 53, 127
10, 37068, Note_on_c, 10, 53, 0
10, 37068, Note_on_c, 10, 56, 0
10, 37080, Note_on_c, 10, 34, 121
10, 37128, Note_on_c, 10, 34, 0
10, 37140, Note_on_c, 10, 58, 107
10, 37188, Note_on_c, 10, 58, 0
10, 37200, Note_on_c, 10, 46, 115
10, 37200, Note_on_c, 10, 56, 114
10, 37200, Note_on_c, 10, 53, 127
10, 37248, Note_on_c, 10, 53, 0
10, 37248, Note_on_c, 10, 56, 0
10, 37248, Note_on_c, 10, 46, 0
10, 37260, Note_on_c, 10, 34, 121
10, 37308, Note_on_c, 10, 34, 0
10, 37320, Note_on_c, 10, 58, 121
10, 37368, Note_on_c, 10, 58, 0
10, 37380, Note_on_c, 10, 46, 123
10, 37380, Note_on_c, 10, 53, 127
10, 37380, Note_on_c, 10, 56, 123
10, 37428, Note_on_c, 10, 56, 0
10, 37428, Note_on_c, 10, 53, 0
10, 37428, Note_on_c, 10, 46, 0
10, 37440, Note_on_c, 10, 39, 127
10, 37488, Note_on_c, 10, 39, 0
10, 37500, Note_on_c, 10, 58, 123
10, 37548, Note_on_c, 10, 58, 0
10, 37560, Note_on_c, 10, 46, 109
10, 37560, Note_on_c, 10, 51, 109
10, 37560, Note_on_c, 10, 55, 127
10, 37608, Note_on_c, 10, 55, 0
10, 37608, Note_on_c, 10, 51, 0
10, 37608, Note_on_c, 10, 46, 0
10, 37620, Note_on_c, 10, 39, 127
10, 37668, Note_on_c, 10, 39, 0
10, 37680, Note_on_c, 10, 65, 127
10, 37680, Note_on_c, 10, 62, 127
10, 37728, Note_on_c, 10, 62, 0
10, 37728, Note_on_c, 10, 65, 0
10, 37740, Note_on_c, 10, 61, 105
10, 37740, Note_on_c, 10, 64, 127
10, 37788, Note_on_c, 10, 64, 0
10, 37788, Note_on_c, 10, 61, 0
10, 37800, Note_on_c, 10, 46, 118
10, 37848, Note_on_c, 10, 46, 0
10, 37860, Note_on_c, 10, 63, 121
10, 37860, Note_on_c, 10, 60, 127
10, 37908, Note_on_c, 10, 60, 0
10, 37908, Note_on_c, 10, 63, 0
10, 37920, Note_on_c, 10, 62, 123
10, 37920, Note_on_c, 10, 59, 121
10, 37968, Note_on_c, 10, 59, 0
10, 37968, Note_on_c, 10, 62, 0
10, 37980, Note_on_c, 10, 39, 126
10, 38028, Note_on_c, 10, 39, 0
10, 38040, Note_on_c, 10, 58, 111
10, 38040, Note_on_c, 10, 61, 101
10, 38088, Note_on_c, 10, 61, 0
10, 38088, Note_on_c, 10, 58, 0
10, 38100, Note_on_c, 10, 60, 125
10, 38100, Note_on_c, 10, 57, 125
10, 38148, Note_on_c, 10, 57, 0
10, 38148, Note_on_c, 10, 60, 0
10, 38160, Note_on_c, 10, 39, 115
10, 38208, Note_on_c, 10, 39, 0
10, 38220, Note_on_c, 10, 56, 109
10, 38220, Note_on_c, 10, 59, 127
10, 38268, Note_on_c, 10, 59, 0
10, 38268, Note_on_c, 10, 56, 0
10, 38280, Note_on_c, 10, 55, 117
10, 38280, Note_on_c, 10, 58, 113
10, 38328, Note_on_c, 10, 58, 0
10, 38328, Note_on_c, 10, 55, 0
10, 38340, Note_on_c, 10, 39, 115
10, 38396, Note_on_c, 10, 39, 0
10, 39180, Note_on_c, 10, 75, 83
10, 39204, Note_on_c, 10, 75, 0
10, 39210, Note_on_c, 10, 79, 113
10, 39234, Note_on_c, 10, 79, 0
10, 39240, Note_on_c, 10, 77, 127
10, 39264, Note_on_c, 10, 77, 0
10, 39270, Note_on_c, 10, 80, 109
10, 39294, Note_on_c, 10, 80, 0
10, 39300, Note_on_c, 10, 77, 111
10, 39324, Note_on_c, 10, 77, 0
10, 39330, Note_on_c, 10, 80, 111
10, 39354, Note_on_c, 10, 80, 0
10, 39360, Note_on_c, 10, 77, 121
10, 39384, Note_on_c, 10, 77, 0
10, 39390, Note_on_c, 10, 80, 111
10, 39414, Note_on_c, 10, 80, 0
10, 39420, Note_on_c, 10, 77, 110
10, 39444, Note_on_c, 10, 77, 0
10, 39450, Note_on_c, 10, 80, 115
10, 39474, Note_on_c, 10, 80, 0
10, 39480, Note_on_c, 10, 75, 101
10, 39504, Note_on_c, 10, 75, 0
10, 39510, Note_on_c, 10, 80, 105
10, 39534, Note_on_c, 10, 80, 0
10, 39540, Note_on_c, 10, 74, 105
10, 39564, Note_on_c, 10, 74, 0
10, 39570, Note_on_c, 10, 80, 100
10, 39594, Note_on_c, 10, 80, 0
10, 39600, Note_on_c, 10, 75, 97
10, 39624, Note_on_c, 10, 75, 0
10, 39630, Note_on_c, 10, 79, 114
10, 39654, Note_on_c, 10, 79, 0
10, 39660, Note_on_c, 10, 75, 99
10, 39684, Note_on_c, 10, 75, 0
10, 39690, Note_on_c, 10, 79, 125
10, 39714, Note_on_c, 10, 79, 0
10, 39720, Note_on_c, 10, 75, 99
10, 39744, Note_on_c, 10, 75, 0
10, 39750, Note_on_c, 10, 79, 110
10, 39774, Note_on_c, 10, 79, 0
10, 39780, Note_on_c, 10, 75, 101
10, 39804, Note_on_c, 10, 75, 0
10, 39810, Note_on_c, 10, 79, 117
10, 39834, Note_on_c, 10, 79, 0
10, 39840, Note_on_c, 10, 75, 107
10, 39864, Note_on_c, 10, 75, 0
10, 39870, Note_on_c, 10, 79, 127
10, 39894, Note_on_c, 10, 79, 0
10, 41040, Note_on_c, 10, 49, 113
10, 41064, Note_on_c, 10, 49, 0
10, 41070, Note_on_c, 10, 46, 121
10, 41094, Note_on_c, 10, 46, 0
10, 41100, Note_on_c, 10, 49, 121
10, 41124, Note_on_c, 10, 49, 0
10, 41130, Note_on_c, 10, 48, 121
10, 41154, Note_on_c, 10, 48, 0
10, 41160, Note_on_c, 10, 46, 90
10, 41184, Note_on_c, 10, 46, 0
10, 41190, Note_on_c, 10, 44, 115
10, 41214, Note_on_c, 10, 44, 0
10, 41220, Note_on_c, 10, 42, 123
10, 41244, Note_on_c, 10, 42, 0
10, 41250, Note_on_c, 10, 41, 127
10, 41274, Note_on_c, 10, 41, 0
10, 41280, Note_on_c, 10, 39, 123
10, 41304, Note_on_c, 10, 39, 0
10, 41310, Note_on_c, 10, 37, 126
10, 41334, Note_on_c, 10, 37, 0
10, 41340, Note_on_c, 10, 36, 125
10, 41364, Note_on_c, 10, 36, 0
10, 41370, Note_on_c, 10, 34, 126
10, 41394, Note_on_c, 10, 34, 0
10, 41400, Note_on_c, 10, 36, 127
10, 41496, Note_on_c, 10, 36, 0
10, 41760, Note_on_c, 10, 56, 109
10, 41784, Note_on_c, 10, 56, 0
10, 41790, Note_on_c, 10, 53, 127
10, 41814, Note_on_c, 10, 53, 0
10, 41820, Note_on_c, 10, 56, 109
10, 41844, Note_on_c, 10, 56, 0
10, 41850, Note_on_c, 10, 55, 127
10, 41874, Note_on_c, 10, 55, 0
10, 41880, Note_on_c, 10, 53, 127
10, 41904, Note_on_c, 10, 53, 0
10, 41910, Note_on_c, 10, 51, 118
10, 41934, Note_on_c, 10, 51, 0
10, 41940, Note_on_c, 10, 49, 115
10, 41964, Note_on_c, 10, 49, 0
10, 41970, Note_on_c, 10, 48, 127
10, 41994, Note_on_c, 10, 48, 0
10, 42000, Note_on_c, 10, 46, 96
10, 42024, Note_on_c, 10, 46, 0
10, 42030, Note_on_c, 10, 44, 113
10, 42054, Note_on_c, 10, 44, 0
10, 42060, Note_on_c, 10, 43, 127
10, 42084, Note_on_c, 10, 43, 0
10, 42090, Note_on_c, 10, 41, 127
10, 42114, Note_on_c, 10, 41, 0
10, 42120, Note_on_c, 10, 43, 123
10, 42216, Note_on_c, 10, 43, 0
10, 42240, Note_on_c, 10, 77, 127
10, 42264, Note_on_c, 10, 77, 0
10, 42270, Note_on_c, 10, 75, 93
10, 42294, Note_on_c, 10, 75, 0
10, 42300, Note_on_c, 10, 74, 127
10, 42324, Note_on_c, 10, 74, 0
10, 42330, Note_on_c, 10, 72, 117
10, 42354, Note_on_c, 10, 72, 0
10, 42360, Note_on_c, 10, 71, 121
10, 42384, Note_on_c, 10, 71, 0
10, 42390, Note_on_c, 10, 68, 103
10, 42414, Note_on_c, 10, 68, 0
10, 42420, Note_on_c, 10, 67, 127
10, 42444, Note_on_c, 10, 67, 0
10, 42450, Note_on_c, 10, 65, 114
10, 42474, Note_on_c, 10, 65, 0
10, 42480, Note_on_c, 10, 63, 107
10, 42496, Note_on_c, 10, 63, 0
10, 42500, Note_on_c, 10, 62, 107
10, 42516, Note_on_c, 10, 62, 0
10, 42520, Note_on_c, 10, 60, 127
10, 42536, Note_on_c, 10, 60, 0
10, 42540, Note_on_c, 10, 58, 115
10, 42556, Note_on_c, 10, 58, 0
10, 42560, Note_on_c, 10, 56, 113
10, 42576, Note_on_c, 10, 56, 0
10, 42580, Note_on_c, 10, 55, 127
10, 42596, Note_on_c, 10, 55, 0
10, 42600, Note_on_c, 10, 53, 123
10, 42616, Note_on_c, 10, 53, 0
10, 42620, Note_on_c, 10, 51, 118
10, 42636, Note_on_c, 10, 51, 0
10, 42640, Note_on_c, 10, 50, 127
10, 42656, Note_on_c, 10, 50, 0
10, 42660, Note_on_c, 10, 48, 127
10, 42676, Note_on_c, 10, 48, 0
10, 42680, Note_on_c, 10, 46, 111
10, 42696, Note_on_c, 10, 46, 0
10, 42700, Note_on_c, 10, 44, 121
10, 42716, Note_on_c, 10, 44, 0
10, 42720, Note_on_c, 10, 43, 127
10, 42736, Note_on_c, 10, 43, 0
10, 42740, Note_on_c, 10, 41, 127
10, 42756, Note_on_c, 10, 41, 0
10, 42760, Note_on_c, 10, 39, 126
10, 42776, Note_on_c, 10, 39, 0
10, 42780, Note_on_c, 10, 38, 127
10, 42804, Note_on_c, 10, 38, 0
10, 42810, Note_on_c, 10, 36, 125
10, 42834, Note_on_c, 10, 36, 0
10, 42840, Note_on_c, 10, 35, 117
10, 42840, Note_on_c, 10, 47, 127
10, 42936, Note_on_c, 10, 47, 0
10, 42936, Note_on_c, 10, 35, 0
10, 44760, Note_on_c, 10, 60, 127
10, 44808, Note_on_c, 10, 60, 0
10, 44820, Note_on_c, 10, 60, 127
10, 44892, Note_on_c, 10, 60, 0
10, 44910, Note_on_c, 10, 62, 127
10, 44934, Note_on_c, 10, 62, 0
10, 44940, Note_on_c, 10, 64, 127
10, 44988, Note_on_c, 10, 64, 0
10, 45000, Note_on_c, 10, 77, 127
10, 45024, Note_on_c, 10, 77, 0
10, 45030, Note_on_c, 10, 76, 127
10, 45054, Note_on_c, 10, 76, 0
10, 45060, Note_on_c, 10, 74, 127
10, 45084, Note_on_c, 10, 74, 0
10, 45090, Note_on_c, 10, 77, 127
10, 45114, Note_on_c, 10, 77, 0
10, 45120, Note_on_c, 10, 76, 108
10, 45144, Note_on_c, 10, 76, 0
10, 45150, Note_on_c, 10, 74, 127
10, 45174, Note_on_c, 10, 74, 0
10, 45180, Note_on_c, 10, 77, 127
10, 45204, Note_on_c, 10, 77, 0
10, 45210, Note_on_c, 10, 76, 127
10, 45234, Note_on_c, 10, 76, 0
10, 45240, Note_on_c, 10, 74, 127
10, 45264, Note_on_c, 10, 74, 0
10, 45270, Note_on_c, 10, 77, 127
10, 45294, Note_on_c, 10, 77, 0
10, 45300, Note_on_c, 10, 76, 127
10, 45324, Note_on_c, 10, 76, 0
10, 45330, Note_on_c, 10, 74, 127
10, 45354, Note_on_c, 10, 74, 0
10, 45360, Note_on_c, 10, 77, 127
10, 45384, Note_on_c, 10, 77, 0
10, 45390, Note_on_c, 10, 76, 127
10, 45414, Note_on_c, 10, 76, 0
10, 45420, Note_on_c, 10, 74, 125
10, 45444, Note_on_c, 10, 74, 0
10, 45450, Note_on_c, 10, 77, 127
10, 45474, Note_on_c, 10, 77, 0
10, 45480, Note_on_c, 10, 76, 127
10, 45504, Note_on_c, 10, 76, 0
10, 45510, Note_on_c, 10, 74, 121
10, 45534, Note_on_c, 10, 74, 0
10, 45540, Note_on_c, 10, 77, 127
10, 45564, Note_on_c, 10, 77, 0
10, 45570, Note_on_c, 10, 76, 127
10, 45594, Note_on_c, 10, 76, 0
10, 45600, Note_on_c, 10, 74, 127
10, 45624, Note_on_c, 10, 74, 0
10, 45630, Note_on_c, 10, 77, 127
10, 45654, Note_on_c, 10, 77, 0
10, 45660, Note_on_c, 10, 76, 127
10, 45684, Note_on_c, 10, 76, 0
10, 45690, Note_on_c, 10, 74, 127
10, 45714, Note_on_c, 10, 74, 0
10, 45720, Note_on_c, 10, 77, 127
10, 45744, Note_on_c, 10, 77, 0
10, 45750, Note_on_c, 10, 74, 127
10, 45774, Note_on_c, 10, 74, 0
10, 45780, Note_on_c, 10, 71, 121
10, 45804, Note_on_c, 10, 71, 0
10, 45810, Note_on_c, 10, 74, 127
10, 45834, Note_on_c, 10, 74, 0
10, 45840, Note_on_c, 10, 71, 127
10, 45864, Note_on_c, 10, 71, 0
10, 45870, Note_on_c, 10, 65, 103
10, 45894, Note_on_c, 10, 65, 0
10, 45900, Note_on_c, 10, 71, 127
10, 45924, Note_on_c, 10, 71, 0
10, 45930, Note_on_c, 10, 65, 127
10, 45954, Note_on_c, 10, 65, 0
10, 45960, Note_on_c, 10, 62, 114
10, 45984, Note_on_c, 10, 62, 0
10, 45990, Note_on_c, 10, 65, 127
10, 46014, Note_on_c, 10, 65, 0
10, 46020, Note_on_c, 10, 62, 127
10, 46044, Note_on_c, 10, 62, 0
10, 46050, Note_on_c, 10, 59, 120
10, 46074, Note_on_c, 10, 59, 0
10, 46080, Note_on_c, 10, 62, 127
10, 46104, Note_on_c, 10, 62, 0
10, 46110, Note_on_c, 10, 59, 127
10, 46134, Note_on_c, 10, 59, 0
10, 46140, Note_on_c, 10, 53, 127
10, 46164, Note_on_c, 10, 53, 0
10, 46170, Note_on_c, 10, 59, 127
10, 46194, Note_on_c, 10, 59, 0
10, 46200, Note_on_c, 10, 53, 127
10, 46224, Note_on_c, 10, 53, 0
10, 46230, Note_on_c, 10, 50, 125
10, 46254, Note_on_c, 10, 50, 0
10, 46260, Note_on_c, 10, 53, 127
10, 46284, Note_on_c, 10, 53, 0
10, 46290, Note_on_c, 10, 50, 127
10, 46314, Note_on_c, 10, 50, 0
10, 46320, Note_on_c, 10, 47, 103
10, 46344, Note_on_c, 10, 47, 0
10, 46350, Note_on_c, 10, 50, 127
10, 46374, Note_on_c, 10, 50, 0
10, 46380, Note_on_c, 10, 47, 118
10, 46404, Note_on_c, 10, 47, 0
10, 46410, Note_on_c, 10, 41, 113
10, 46434, Note_on_c, 10, 41, 0
10, 46440, Note_on_c, 10, 50, 127
10, 46464, Note_on_c, 10, 50, 0
10, 46470, Note_on_c, 10, 47, 127
10, 46494, Note_on_c, 10, 47, 0
10, 46500, Note_on_c, 10, 41, 123
10, 46524, Note_on_c, 10, 41, 0
10, 46530, Note_on_c, 10, 53, 127
10, 46554, Note_on_c, 10, 53, 0
10, 46560, Note_on_c, 10, 50, 127
10, 46584, Note_on_c, 10, 50, 0
10, 46590, Note_on_c, 10, 47, 118
10, 46614, Note_on_c, 10, 47, 0
10, 46620, Note_on_c, 10, 53, 127
10, 46644, Note_on_c, 10, 53, 0
10, 46650, Note_on_c, 10, 50, 127
10, 46674, Note_on_c, 10, 50, 0
10, 46680, Note_on_c, 10, 47, 123
10, 46704, Note_on_c, 10, 47, 0
10, 46710, Note_on_c, 10, 59, 127
10, 46734, Note_on_c, 10, 59, 0
10, 46740, Note_on_c, 10, 53, 127
10, 46764, Note_on_c, 10, 53, 0
10, 46770, Note_on_c, 10, 50, 118
10, 46794, Note_on_c, 10, 50, 0
10, 46800, Note_on_c, 10, 59, 127
10, 46824, Note_on_c, 10, 59, 0
10, 46830, Note_on_c, 10, 53, 127
10, 46854, Note_on_c, 10, 53, 0
10, 46860, Note_on_c, 10, 50, 127
10, 46884, Note_on_c, 10, 50, 0
10, 46890, Note_on_c, 10, 62, 118
10, 46914, Note_on_c, 10, 62, 0
10, 46920, Note_on_c, 10, 59, 111
10, 46944, Note_on_c, 10, 59, 0
10, 46950, Note_on_c, 10, 53, 113
10, 46974, Note_on_c, 10, 53, 0
10, 46980, Note_on_c, 10, 62, 127
10, 47004, Note_on_c, 10, 62, 0
10, 47010, Note_on_c, 10, 59, 125
10, 47034, Note_on_c, 10, 59, 0
10, 47040, Note_on_c, 10, 53, 117
10, 47064, Note_on_c, 10, 53, 0
10, 47070, Note_on_c, 10, 65, 127
10, 47094, Note_on_c, 10, 65, 0
10, 47100, Note_on_c, 10, 62, 127
10, 47124, Note_on_c, 10, 62, 0
10, 47130, Note_on_c, 10, 59, 108
10, 47154, Note_on_c, 10, 59, 0
10, 47160, Note_on_c, 10, 65, 127
10, 47184, Note_on_c, 10, 65, 0
10, 47190, Note_on_c, 10, 62, 127
10, 47214, Note_on_c, 10, 62, 0
10, 47220, Note_on_c, 10, 59, 127
10, 47244, Note_on_c, 10, 59, 0
10, 47250, Note_on_c, 10, 71, 127
10, 47274, Note_on_c, 10, 71, 0
10, 47280, Note_on_c, 10, 65, 127
10, 47304, Note_on_c, 10, 65, 0
10, 47310, Note_on_c, 10, 62, 116
10, 47334, Note_on_c, 10, 62, 0
10, 47340, Note_on_c, 10, 71, 127
10, 47364, Note_on_c, 10, 71, 0
10, 47370, Note_on_c, 10, 65, 127
10, 47394, Note_on_c, 10, 65, 0
10, 47400, Note_on_c, 10, 62, 109
10, 47424, Note_on_c, 10, 62, 0
10, 47430, Note_on_c, 10, 74, 127
10, 47454, Note_on_c, 10, 74, 0
10, 47460, Note_on_c, 10, 71, 116
10, 47484, Note_on_c, 10, 71, 0
10, 47490, Note_on_c, 10, 65, 117
10, 47514, Note_on_c, 10, 65, 0
10, 47520, Note_on_c, 10, 74, 127
10, 47544, Note_on_c, 10, 74, 0
10, 47550, Note_on_c, 10, 71, 127
10, 47574, Note_on_c, 10, 71, 0
10, 47580, Note_on_c, 10, 65, 116
10, 47604, Note_on_c, 10, 65, 0
10, 47610, Note_on_c, 10, 77, 127
10, 47634, Note_on_c, 10, 77, 0
10, 47640, Note_on_c, 10, 74, 127
10, 47664, Note_on_c, 10, 74, 0
10, 47670, Note_on_c, 10, 71, 110
10, 47694, Note_on_c, 10, 71, 0
10, 47700, Note_on_c, 10, 77, 127
10, 47724, Note_on_c, 10, 77, 0
10, 47730, Note_on_c, 10, 74, 127
10, 47754, Note_on_c, 10, 74, 0
10, 47760, Note_on_c, 10, 71, 117
10, 47784, Note_on_c, 10, 71, 0
10, 47790, Note_on_c, 10, 83, 127
10, 47814, Note_on_c, 10, 83, 0
10, 47820, Note_on_c, 10, 77, 123
10, 47844, Note_on_c, 10, 77, 0
10, 47850, Note_on_c, 10, 74, 118
10, 47874, Note_on_c, 10, 74, 0
10, 47880, Note_on_c, 10, 86, 127
10, 47904, Note_on_c, 10, 86, 0
10, 47910, Note_on_c, 10, 83, 127
10, 47934, Note_on_c, 10, 83, 0
10, 47940, Note_on_c, 10, 79, 127
10, 47964, Note_on_c, 10, 79, 0
10, 47970, Note_on_c, 10, 77, 125
10, 47994, Note_on_c, 10, 77, 0
10, 48000, Note_on_c, 10, 86, 127
10, 48024, Note_on_c, 10, 86, 0
10, 48030, Note_on_c, 10, 83, 125
10, 48054, Note_on_c, 10, 83, 0
10, 48060, Note_on_c, 10, 79, 112
10, 48084, Note_on_c, 10, 79, 0
10, 48090, Note_on_c, 10, 77, 121
10, 48114, Note_on_c, 10, 77, 0
10, 48120, Note_on_c, 10, 86, 127
10, 48144, Note_on_c, 10, 86, 0
10, 48150, Note_on_c, 10, 83, 127
10, 48174, Note_on_c, 10, 83, 0
10, 48180, Note_on_c, 10, 79, 127
10, 48204, Note_on_c, 10, 79, 0
10, 48210, Note_on_c, 10, 77, 117
10, 48234, Note_on_c, 10, 77, 0
10, 48240, Note_on_c, 10, 86, 127
10, 48264, Note_on_c, 10, 86, 0
10, 48270, Note_on_c, 10, 83, 127
10, 48294, Note_on_c, 10, 83, 0
10, 48300, Note_on_c, 10, 79, 123
10, 48324, Note_on_c, 10, 79, 0
10, 48330, Note_on_c, 10, 77, 125
10, 48354, Note_on_c, 10, 77, 0
10, 48360, Note_on_c, 10, 86, 127
10, 48384, Note_on_c, 10, 86, 0
10, 48390, Note_on_c, 10, 83, 120
10, 48414, Note_on_c, 10, 83, 0
10, 48420, Note_on_c, 10, 79, 125
10, 48444, Note_on_c, 10, 79, 0
10, 48450, Note_on_c, 10, 77, 120
10, 48474, Note_on_c, 10, 77, 0
10, 48480, Note_on_c, 10, 86, 127
10, 48504, Note_on_c, 10, 86, 0
10, 48510, Note_on_c, 10, 83, 123
10, 48534, Note_on_c, 10, 83, 0
10, 48540, Note_on_c, 10, 79, 127
10, 48564, Note_on_c, 10, 79, 0
10, 48570, Note_on_c, 10, 77, 127
10, 48594, Note_on_c, 10, 77, 0
10, 48600, Note_on_c, 10, 86, 100
10, 48600, Note_on_c, 10, 83, 111
10, 48600, Note_on_c, 10, 79, 113
10, 48600, Note_on_c, 10, 77, 107
10, 48696, Note_on_c, 10, 77, 0
10, 48696, Note_on_c, 10, 86, 0
10, 48696, Note_on_c, 10, 83, 0
10, 48696, Note_on_c, 10, 79, 0
10, 49320, Note_on_c, 10, 36, 127
10, 49368, Note_on_c, 10, 36, 0
10, 49380, Note_on_c, 10, 60, 127
10, 49428, Note_on_c, 10, 60, 0
10, 49440, Note_on_c, 10, 55, 127
10, 49440, Note_on_c, 10, 52, 113
10, 49488, Note_on_c, 10, 52, 0
10, 49488, Note_on_c, 10, 55, 0
10, 49500, Note_on_c, 10, 36, 127
10, 49548, Note_on_c, 10, 36, 0
10, 49560, Note_on_c, 10, 60, 127
10, 49608, Note_on_c, 10, 60, 0
10, 49620, Note_on_c, 10, 55, 120
10, 49620, Note_on_c, 10, 52, 117
10, 49668, Note_on_c, 10, 52, 0
10, 49668, Note_on_c, 10, 55, 0
10, 49680, Note_on_c, 10, 36, 127
10, 49728, Note_on_c, 10, 36, 0
10, 49740, Note_on_c, 10, 60, 121
10, 49788, Note_on_c, 10, 60, 0
10, 49800, Note_on_c, 10, 55, 113
10, 49800, Note_on_c, 10, 52, 108
10, 49848, Note_on_c, 10, 52, 0
10, 49848, Note_on_c, 10, 55, 0
10, 49860, Note_on_c, 10, 36, 127
10, 49908, Note_on_c, 10, 36, 0
10, 49920, Note_on_c, 10, 60, 125
10, 49968, Note_on_c, 10, 60, 0
10, 49980, Note_on_c, 10, 52, 105
10, 49980, Note_on_c, 10, 55, 117
10, 50028, Note_on_c, 10, 55, 0
10, 50028, Note_on_c, 10, 52, 0
10, 50040, Note_on_c, 10, 36, 127
10, 50088, Note_on_c, 10, 36, 0
10, 50100, Note_on_c, 10, 60, 127
10, 50148, Note_on_c, 10, 60, 0
10, 50160, Note_on_c, 10, 55, 120
10, 50160, Note_on_c, 10, 52, 108
10, 50208, Note_on_c, 10, 52, 0
10, 50208, Note_on_c, 10, 55, 0
10, 50220, Note_on_c, 10, 36, 127
10, 50268, Note_on_c, 10, 36, 0
10, 50280, Note_on_c, 10, 60, 125
10, 50328, Note_on_c, 10, 60, 0
10, 50340, Note_on_c, 10, 55, 127
10, 50340, Note_on_c, 10, 52, 103
10, 50388, Note_on_c, 10, 52, 0
10, 50388, Note_on_c, 10, 55, 0
10, 50400, Note_on_c, 10, 36, 127
10, 50448, Note_on_c, 10, 36, 0
10, 50460, Note_on_c, 10, 60, 127
10, 50508, Note_on_c, 10, 60, 0
10, 50520, Note_on_c, 10, 55, 123
10, 50520, Note_on_c, 10, 52, 116
10, 50568, Note_on_c, 10, 52, 0
10, 50568, Note_on_c, 10, 55, 0
10, 50580, Note_on_c, 10, 36, 127
10, 50628, Note_on_c, 10, 36, 0
10, 50640, Note_on_c, 10, 60, 127
10, 50688, Note_on_c, 10, 60, 0
10, 50700, Note_on_c, 10, 52, 113
10, 50700, Note_on_c, 10, 55, 127
10, 50748, Note_on_c, 10, 55, 0
10, 50748, Note_on_c, 10, 52, 0
10, 50760, Note_on_c, 10, 41, 127
10, 50808, Note_on_c, 10, 41, 0
10, 50820, Note_on_c, 10, 57, 127
10, 50868, Note_on_c, 10, 57, 0
10, 50880, Note_on_c, 10, 53, 121
10, 50880, Note_on_c, 10, 50, 120
10, 50928, Note_on_c, 10, 50, 0
10, 50928, Note_on_c, 10, 53, 0
10, 50940, Note_on_c, 10, 41, 121
10, 50988, Note_on_c, 10, 41, 0
10, 51000, Note_on_c, 10, 57, 112
10, 51048, Note_on_c, 10, 57, 0
10, 51060, Note_on_c, 10, 50, 111
10, 51060, Note_on_c, 10, 53, 116
10, 51108, Note_on_c, 10, 53, 0
10, 51108, Note_on_c, 10, 50, 0
10, 51120, Note_on_c, 10, 41, 123
10, 51168, Note_on_c, 10, 41, 0
10, 51180, Note_on_c, 10, 57, 116
10, 51228, Note_on_c, 10, 57, 0
10, 51240, Note_on_c, 10, 53, 116
10, 51240, Note_on_c, 10, 50, 114
10, 51288, Note_on_c, 10, 50, 0
10, 51288, Note_on_c, 10, 53, 0
10, 51300, Note_on_c, 10, 41, 127
10, 51348, Note_on_c, 10, 41, 0
10, 51360, Note_on_c, 10, 57, 123
10, 51408, Note_on_c, 10, 57, 0
10, 51420, Note_on_c, 10, 53, 127
10, 51420, Note_on_c, 10, 50, 110
10, 51468, Note_on_c, 10, 50, 0
10, 51468, Note_on_c, 10, 53, 0
10, 51480, Note_on_c, 10, 43, 127
10, 51528, Note_on_c, 10, 43, 0
10, 51540, Note_on_c, 10, 60, 127
10, 51588, Note_on_c, 10, 60, 0
10, 51600, Note_on_c, 10, 55, 123
10, 51600, Note_on_c, 10, 52, 113
10, 51648, Note_on_c, 10, 52, 0
10, 51648, Note_on_c, 10, 55, 0
10, 51660, Note_on_c, 10, 43, 127
10, 51708, Note_on_c, 10, 43, 0
10, 51720, Note_on_c, 10, 60, 127
10, 51768, Note_on_c, 10, 60, 0
10, 51780, Note_on_c, 10, 55, 127
10, 51780, Note_on_c, 10, 52, 116
10, 51828, Note_on_c, 10, 52, 0
10, 51828, Note_on_c, 10, 55, 0
10, 51840, Note_on_c, 10, 43, 127
10, 51888, Note_on_c, 10, 43, 0
10, 51900, Note_on_c, 10, 59, 110
10, 51948, Note_on_c, 10, 59, 0
10, 51960, Note_on_c, 10, 50, 106
10, 51960, Note_on_c, 10, 55, 120
10, 52008, Note_on_c, 10, 55, 0
10, 52008, Note_on_c, 10, 50, 0
10, 52020, Note_on_c, 10, 43, 127
10, 52068, Note_on_c, 10, 43, 0
10, 52080, Note_on_c, 10, 59, 127
10, 52128, Note_on_c, 10, 59, 0
10, 52140, Note_on_c, 10, 55, 127
10, 52140, Note_on_c, 10, 50, 121
10, 52188, Note_on_c, 10, 50, 0
10, 52188, Note_on_c, 10, 55, 0
10, 52200, Note_on_c, 10, 36, 127
10, 52224, Note_on_c, 10, 36, 0
10, 52230, Note_on_c, 10, 38, 127
10, 52254, Note_on_c, 10, 38, 0
10, 52260, Note_on_c, 10, 40, 127
10, 52284, Note_on_c, 10, 40, 0
10, 52290, Note_on_c, 10, 41, 127
10, 52314, Note_on_c, 10, 41, 0
10, 52320, Note_on_c, 10, 43, 109
10, 52344, Note_on_c, 10, 43, 0
10, 52350, Note_on_c, 10, 45, 101
10, 52374, Note_on_c, 10, 45, 0
10, 52380, Note_on_c, 10, 47, 127
10, 52404, Note_on_c, 10, 47, 0
10, 52410, Note_on_c, 10, 48, 127
10, 52434, Note_on_c, 10, 48, 0
10, 52440, Note_on_c, 10, 50, 99
10, 52464, Note_on_c, 10, 50, 0
10, 52470, Note_on_c, 10, 52, 127
10, 52494, Note_on_c, 10, 52, 0
10, 52500, Note_on_c, 10, 53, 127
10, 52524, Note_on_c, 10, 53, 0
10, 52530, Note_on_c, 10, 55, 127
10, 52554, Note_on_c, 10, 55, 0
10, 52560, Note_on_c, 10, 57, 127
10, 52584, Note_on_c, 10, 57, 0
10, 52590, Note_on_c, 10, 59, 127
10, 52614, Note_on_c, 10, 59, 0
10, 52620, Note_on_c, 10, 60, 127
10, 52644, Note_on_c, 10, 60, 0
10, 52650, Note_on_c, 10, 62, 127
10, 52674, Note_on_c, 10, 62, 0
10, 52680, Note_on_c, 10, 64, 107
10, 52704, Note_on_c, 10, 64, 0
10, 52710, Note_on_c, 10, 65, 127
10, 52734, Note_on_c, 10, 65, 0
10, 52740, Note_on_c, 10, 67, 103
10, 52764, Note_on_c, 10, 67, 0
10, 52770, Note_on_c, 10, 69, 127
10, 52794, Note_on_c, 10, 69, 0
10, 52800, Note_on_c, 10, 71, 127
10, 52824, Note_on_c, 10, 71, 0
10, 52830, Note_on_c, 10, 72, 127
10, 52854, Note_on_c, 10, 72, 0
10, 52860, Note_on_c, 10, 74, 114
10, 52884, Note_on_c, 10, 74, 0
10, 52890, Note_on_c, 10, 76, 127
10, 52914, Note_on_c, 10, 76, 0
10, 52920, Note_on_c, 10, 77, 127
10, 52944, Note_on_c, 10, 77, 0
10, 52950, Note_on_c, 10, 79, 127
10, 53046, Note_on_c, 10, 79, 0
10, 53130, Note_on_c, 10, 55, 127
10, 53178, Note_on_c, 10, 55, 0
10, 53190, Note_on_c, 10, 60, 127
10, 53190, Note_on_c, 10, 64, 116
10, 53238, Note_on_c, 10, 64, 0
10, 53238, Note_on_c, 10, 60, 0
10, 53250, Note_on_c, 10, 60, 121
10, 53250, Note_on_c, 10, 64, 121
10, 53280, Note_on_c, 10, 43, 114
10, 53298, Note_on_c, 10, 64, 0
10, 53298, Note_on_c, 10, 60, 0
10, 53328, Note_on_c, 10, 43, 0
10, 53340, Note_on_c, 10, 48, 111
10, 53340, Note_on_c, 10, 52, 123
10, 53388, Note_on_c, 10, 52, 0
10, 53388, Note_on_c, 10, 48, 0
10, 53400, Note_on_c, 10, 52, 120
10, 53400, Note_on_c, 10, 48, 116
10, 53448, Note_on_c, 10, 48, 0
10, 53448, Note_on_c, 10, 52, 0
10, 53460, Note_on_c, 10, 43, 127
10, 53508, Note_on_c, 10, 43, 0
10, 53520, Note_on_c, 10, 50, 120
10, 53520, Note_on_c, 10, 47, 107
10, 53568, Note_on_c, 10, 47, 0
10, 53568, Note_on_c, 10, 50, 0
10, 53580, Note_on_c, 10, 50, 127
10, 53580, Note_on_c, 10, 47, 127
10, 53628, Note_on_c, 10, 47, 0
10, 53628, Note_on_c, 10, 50, 0
10, 53640, Note_on_c, 10, 36, 127
10, 53664, Note_on_c, 10, 36, 0
10, 53670, Note_on_c, 10, 38, 127
10, 53694, Note_on_c, 10, 38, 0
10, 53700, Note_on_c, 10, 40, 127
10, 53724, Note_on_c, 10, 40, 0
10, 53730, Note_on_c, 10, 41, 127
10, 53754, Note_on_c, 10, 41, 0
10, 53760, Note_on_c, 10, 43, 118
10, 53784, Note_on_c, 10, 43, 0
10, 53790, Note_on_c, 10, 45, 116
10, 53814, Note_on_c, 10, 45, 0
10, 53820, Note_on_c, 10, 47, 127
10, 53844, Note_on_c, 10, 47, 0
10, 53850, Note_on_c, 10, 48, 125
10, 53874, Note_on_c, 10, 48, 0
10, 53880, Note_on_c, 10, 50, 114
10, 53904, Note_on_c, 10, 50, 0
10, 53910, Note_on_c, 10, 52, 118
10, 53934, Note_on_c, 10, 52, 0
10, 53940, Note_on_c, 10, 53, 109
10, 53964, Note_on_c, 10, 53, 0
10, 53970, Note_on_c, 10, 55, 127
10, 53994, Note_on_c, 10, 55, 0
10, 54000, Note_on_c, 10, 57, 125
10, 54016, Note_on_c, 10, 57, 0
10, 54020, Note_on_c, 10, 59, 127
10, 54036, Note_on_c, 10, 59, 0
10, 54040, Note_on_c, 10, 60, 127
10, 54056, Note_on_c, 10, 60, 0
10, 54060, Note_on_c, 10, 62, 127
10, 54076, Note_on_c, 10, 62, 0
10, 54080, Note_on_c, 10, 64, 127
10, 54096, Note_on_c, 10, 64, 0
10, 54100, Note_on_c, 10, 65, 127
10, 54116, Note_on_c, 10, 65, 0
10, 54120, Note_on_c, 10, 67, 114
10, 54136, Note_on_c, 10, 67, 0
10, 54140, Note_on_c, 10, 69, 127
10, 54156, Note_on_c, 10, 69, 0
10, 54160, Note_on_c, 10, 71, 125
10, 54176, Note_on_c, 10, 71, 0
10, 54180, Note_on_c, 10, 72, 121
10, 54196, Note_on_c, 10, 72, 0
10, 54200, Note_on_c, 10, 74, 127
10, 54216, Note_on_c, 10, 74, 0
10, 54220, Note_on_c, 10, 76, 127
10, 54236, Note_on_c, 10, 76, 0
10, 54240, Note_on_c, 10, 77, 109
10, 54264, Note_on_c, 10, 77, 0
10, 54270, Note_on_c, 10, 79, 127
10, 54294, Note_on_c, 10, 79, 0
10, 54300, Note_on_c, 10, 81, 123
10, 54324, Note_on_c, 10, 81, 0
10, 54330, Note_on_c, 10, 83, 125
10, 54354, Note_on_c, 10, 83, 0
10, 54360, Note_on_c, 10, 84, 127
10, 54456, Note_on_c, 10, 84, 0
10, 54540, Note_on_c, 10, 55, 117
10, 54588, Note_on_c, 10, 55, 0
10, 54600, Note_on_c, 10, 60, 127
10, 54600, Note_on_c, 10, 64, 100
10, 54648, Note_on_c, 10, 64, 0
10, 54648, Note_on_c, 10, 60, 0
10, 54660, Note_on_c, 10, 64, 100
10, 54660, Note_on_c, 10, 60, 127
10, 54708, Note_on_c, 10, 60, 0
10, 54708, Note_on_c, 10, 64, 0
10, 54720, Note_on_c, 10, 43, 117
10, 54768, Note_on_c, 10, 43, 0
10, 54780, Note_on_c, 10, 52, 120
10, 54780, Note_on_c, 10, 48, 127
10, 54828, Note_on_c, 10, 48, 0
10, 54828, Note_on_c, 10, 52, 0
10, 54840, Note_on_c, 10, 52, 118
10, 54840, Note_on_c, 10, 48, 120
10, 54888, Note_on_c, 10, 48, 0
10, 54888, Note_on_c, 10, 52, 0
10, 54900, Note_on_c, 10, 43, 127
10, 54948, Note_on_c, 10, 43, 0
10, 54960, Note_on_c, 10, 53, 100
10, 54960, Note_on_c, 10, 50, 120
10, 55008, Note_on_c, 10, 50, 0
10, 55008, Note_on_c, 10, 53, 0
10, 55020, Note_on_c, 10, 53, 116
10, 55020, Note_on_c, 10, 50, 121
10, 55068, Note_on_c, 10, 50, 0
10, 55068, Note_on_c, 10, 53, 0
10, 55080, Note_on_c, 10, 52, 113
10, 55080, Note_on_c, 10, 48, 121
10, 55176, Note_on_c, 10, 48, 0
10, 55176, Note_on_c, 10, 52, 0
10, 57960, Note_on_c, 10, 44, 126
10, 58008, Note_on_c, 10, 44, 0
10, 58020, Note_on_c, 10, 63, 111
10, 58068, Note_on_c, 10, 63, 0
10, 58080, Note_on_c, 10, 56, 95
10, 58080, Note_on_c, 10, 60, 127
10, 58080, Note_on_c, 10, 51, 126
10, 58128, Note_on_c, 10, 51, 0
10, 58128, Note_on_c, 10, 60, 0
10, 58128, Note_on_c, 10, 56, 0
10, 58140, Note_on_c, 10, 44, 126
10, 58188, Note_on_c, 10, 44, 0
10, 58200, Note_on_c, 10, 63, 127
10, 58248, Note_on_c, 10, 63, 0
10, 58260, Note_on_c, 10, 51, 105
10, 58260, Note_on_c, 10, 56, 94
10, 58260, Note_on_c, 10, 60, 127
10, 58308, Note_on_c, 10, 60, 0
10, 58308, Note_on_c, 10, 56, 0
10, 58308, Note_on_c, 10, 51, 0
10, 58320, Note_on_c, 10, 44, 126
10, 58368, Note_on_c, 10, 44, 0
10, 58380, Note_on_c, 10, 63, 126
10, 58428, Note_on_c, 10, 63, 0
10, 58440, Note_on_c, 10, 51, 111
10, 58440, Note_on_c, 10, 56, 97
10, 58440, Note_on_c, 10, 60, 127
10, 58488, Note_on_c, 10, 60, 0
10, 58488, Note_on_c, 10, 56, 0
10, 58488, Note_on_c, 10, 51, 0
10, 58500, Note_on_c, 10, 44, 121
10, 58548, Note_on_c, 10, 44, 0
10, 58560, Note_on_c, 10, 63, 123
10, 58608, Note_on_c, 10, 63, 0
10, 58620, Note_on_c, 10, 51, 115
10, 58620, Note_on_c, 10, 56, 107
10, 58620, Note_on_c, 10, 60, 127
10, 58668, Note_on_c, 10, 60, 0
10, 58668, Note_on_c, 10, 56, 0
10, 58668, Note_on_c, 10, 51, 0
10, 58680, Note_on_c, 10, 44, 127
10, 58728, Note_on_c, 10, 44, 0
10, 58740, Note_on_c, 10, 61, 121
10, 58788, Note_on_c, 10, 61, 0
10, 58800, Note_on_c, 10, 51, 88
10, 58800, Note_on_c, 10, 58, 121
10, 58800, Note_on_c, 10, 55, 127
10, 58848, Note_on_c, 10, 55, 0
10, 58848, Note_on_c, 10, 58, 0
10, 58848, Note_on_c, 10, 51, 0
10, 58860, Note_on_c, 10, 44, 127
10, 58908, Note_on_c, 10, 44, 0
10, 58920, Note_on_c, 10, 61, 121
10, 58968, Note_on_c, 10, 61, 0
10, 58980, Note_on_c, 10, 58, 123
10, 58980, Note_on_c, 10, 51, 113
10, 58980, Note_on_c, 10, 55, 127
10, 59028, Note_on_c, 10, 55, 0
10, 59028, Note_on_c, 10, 51, 0
10, 59028, Note_on_c, 10, 58, 0
10, 59040, Note_on_c, 10, 44, 118
10, 59088, Note_on_c, 10, 44, 0
10, 59100, Note_on_c, 10, 63, 107
10, 59148, Note_on_c, 10, 63, 0
10, 59160, Note_on_c, 10, 51, 86
10, 59160, Note_on_c, 10, 60, 127
10, 59208, Note_on_c, 10, 60, 0
10, 59208, Note_on_c, 10, 51, 0
10, 59220, Note_on_c, 10, 44, 126
10, 59268, Note_on_c, 10, 44, 0
10, 59280, Note_on_c, 10, 63, 123
10, 59328, Note_on_c, 10, 63, 0
10, 59340, Note_on_c, 10, 51, 105
10, 59340, Note_on_c, 10, 60, 127
10, 59340, Note_on_c, 10, 56, 113
10, 59388, Note_on_c, 10, 56, 0
10, 59388, Note_on_c, 10, 60, 0
10, 59388, Note_on_c, 10, 51, 0
10, 59400, Note_on_c, 10, 44, 127
10, 59448, Note_on_c, 10, 44, 0
10, 59460, Note_on_c, 10, 61, 123
10, 59508, Note_on_c, 10, 61, 0
10, 59520, Note_on_c, 10, 58, 127
10, 59520, Note_on_c, 10, 51, 118
10, 59520, Note_on_c, 10, 55, 127
10, 59568, Note_on_c, 10, 55, 0
10, 59568, Note_on_c, 10, 51, 0
10, 59568, Note_on_c, 10, 58, 0
10, 59580, Note_on_c, 10, 44, 111
10, 59628, Note_on_c, 10, 44, 0
10, 59640, Note_on_c, 10, 61, 126
10, 59688, Note_on_c, 10, 61, 0
10, 59700, Note_on_c, 10, 58, 126
10, 59700, Note_on_c, 10, 51, 115
10, 59700, Note_on_c, 10, 55, 127
10, 59748, Note_on_c, 10, 55, 0
10, 59748, Note_on_c, 10, 51, 0
10, 59748, Note_on_c, 10, 58, 0
10, 59760, Note_on_c, 10, 44, 121
10, 59808, Note_on_c, 10, 44, 0
10, 59820, Note_on_c, 10, 60, 127
10, 59868, Note_on_c, 10, 60, 0
10, 59880, Note_on_c, 10, 56, 127
10, 59880, Note_on_c, 10, 51, 107
10, 59928, Note_on_c, 10, 51, 0
10, 59928, Note_on_c, 10, 56, 0
10, 59940, Note_on_c, 10, 44, 118
10, 59988, Note_on_c, 10, 44, 0
10, 60000, Note_on_c, 10, 60, 127
10, 60048, Note_on_c, 10, 60, 0
10, 60060, Note_on_c, 10, 56, 127
10, 60060, Note_on_c, 10, 51, 94
10, 60108, Note_on_c, 10, 51, 0
10, 60108, Note_on_c, 10, 56, 0
10, 60120, Note_on_c, 10, 44, 127
10, 60168, Note_on_c, 10, 44, 0
10, 60180, Note_on_c, 10, 60, 127
10, 60228, Note_on_c, 10, 60, 0
10, 60240, Note_on_c, 10, 56, 115
10, 60240, Note_on_c, 10, 51, 97
10, 60288, Note_on_c, 10, 51, 0
10, 60288, Note_on_c, 10, 56, 0
10, 60300, Note_on_c, 10, 44, 118
10, 60348, Note_on_c, 10, 44, 0
10, 60360, Note_on_c, 10, 60, 127
10, 60408, Note_on_c, 10, 60, 0
10, 60420, Note_on_c, 10, 51, 105
10, 60420, Note_on_c, 10, 56, 113
10, 60468, Note_on_c, 10, 56, 0
10, 60468, Note_on_c, 10, 51, 0
10, 60480, Note_on_c, 10, 49, 118
10, 60528, Note_on_c, 10, 49, 0
10, 60540, Note_on_c, 10, 65, 127
10, 60588, Note_on_c, 10, 65, 0
10, 60600, Note_on_c, 10, 61, 101
10, 60600, Note_on_c, 10, 56, 92
10, 60600, Note_on_c, 10, 58, 109
10, 60648, Note_on_c, 10, 58, 0
10, 60648, Note_on_c, 10, 56, 0
10, 60648, Note_on_c, 10, 61, 0
10, 60660, Note_on_c, 10, 49, 123
10, 60708, Note_on_c, 10, 49, 0
10, 60720, Note_on_c, 10, 65, 127
10, 60768, Note_on_c, 10, 65, 0
10, 60780, Note_on_c, 10, 61, 101
10, 60780, Note_on_c, 10, 56, 103
10, 60780, Note_on_c, 10, 58, 107
10, 60828, Note_on_c, 10, 58, 0
10, 60828, Note_on_c, 10, 56, 0
10, 60828, Note_on_c, 10, 61, 0
10, 60840, Note_on_c, 10, 49, 123
10, 60888, Note_on_c, 10, 49, 0
10, 60900, Note_on_c, 10, 65, 127
10, 60948, Note_on_c, 10, 65, 0
10, 60960, Note_on_c, 10, 61, 99
10, 60960, Note_on_c, 10, 56, 92
10, 60960, Note_on_c, 10, 58, 95
10, 61008, Note_on_c, 10, 58, 0
10, 61008, Note_on_c, 10, 56, 0
10, 61008, Note_on_c, 10, 61, 0
10, 61020, Note_on_c, 10, 49, 121
10, 61068, Note_on_c, 10, 49, 0
10, 61080, Note_on_c, 10, 65, 127
10, 61128, Note_on_c, 10, 65, 0
10, 61140, Note_on_c, 10, 61, 115
10, 61140, Note_on_c, 10, 56, 100
10, 61140, Note_on_c, 10, 58, 105
10, 61188, Note_on_c, 10, 58, 0
10, 61188, Note_on_c, 10, 56, 0
10, 61188, Note_on_c, 10, 61, 0
10, 61200, Note_on_c, 10, 51, 126
10, 61248, Note_on_c, 10, 51, 0
10, 61260, Note_on_c, 10, 63, 127
10, 61308, Note_on_c, 10, 63, 0
10, 61320, Note_on_c, 10, 56, 109
10, 61320, Note_on_c, 10, 60, 127
10, 61368, Note_on_c, 10, 60, 0
10, 61368, Note_on_c, 10, 56, 0
10, 61380, Note_on_c, 10, 51, 118
10, 61428, Note_on_c, 10, 51, 0
10, 61440, Note_on_c, 10, 63, 127
10, 61488, Note_on_c, 10, 63, 0
10, 61500, Note_on_c, 10, 56, 97
10, 61500, Note_on_c, 10, 60, 127
10, 61548, Note_on_c, 10, 60, 0
10, 61548, Note_on_c, 10, 56, 0
10, 61560, Note_on_c, 10, 39, 127
10, 61608, Note_on_c, 10, 39, 0
10, 61620, Note_on_c, 10, 61, 126
10, 61668, Note_on_c, 10, 61, 0
10, 61680, Note_on_c, 10, 58, 127
10, 61680, Note_on_c, 10, 51, 93
10, 61680, Note_on_c, 10, 55, 125
10, 61728, Note_on_c, 10, 55, 0
10, 61728, Note_on_c, 10, 51, 0
10, 61728, Note_on_c, 10, 58, 0
10, 61740, Note_on_c, 10, 39, 127
10, 61788, Note_on_c, 10, 39, 0
10, 61800, Note_on_c, 10, 61, 123
10, 61848, Note_on_c, 10, 61, 0
10, 61860, Note_on_c, 10, 58, 126
10, 61860, Note_on_c, 10, 51, 109
10, 61860, Note_on_c, 10, 55, 127
10, 61908, Note_on_c, 10, 55, 0
10, 61908, Note_on_c, 10, 51, 0
10, 61908, Note_on_c, 10, 58, 0
10, 61920, Note_on_c, 10, 44, 115
10, 61944, Note_on_c, 10, 44, 0
10, 61950, Note_on_c, 10, 46, 127
10, 61974, Note_on_c, 10, 46, 0
10, 61980, Note_on_c, 10, 48, 112
10, 62004, Note_on_c, 10, 48, 0
10, 62010, Note_on_c, 10, 49, 123
10, 62034, Note_on_c, 10, 49, 0
10, 62040, Note_on_c, 10, 51, 118
10, 62064, Note_on_c, 10, 51, 0
10, 62070, Note_on_c, 10, 53, 127
10, 62094, Note_on_c, 10, 53, 0
10, 62100, Note_on_c, 10, 55, 127
10, 62124, Note_on_c, 10, 55, 0
10, 62130, Note_on_c, 10, 56, 115
10, 62154, Note_on_c, 10, 56, 0
10, 62160, Note_on_c, 10, 58, 123
10, 62184, Note_on_c, 10, 58, 0
10, 62190, Note_on_c, 10, 60, 113
10, 62214, Note_on_c, 10, 60, 0
10, 62220, Note_on_c, 10, 61, 84
10, 62244, Note_on_c, 10, 61, 0
10, 62250, Note_on_c, 10, 63, 126
10, 62274, Note_on_c, 10, 63, 0
10, 62280, Note_on_c, 10, 65, 125
10, 62304, Note_on_c, 10, 65, 0
10, 62310, Note_on_c, 10, 67, 127
10, 62334, Note_on_c, 10, 67, 0
10, 62340, Note_on_c, 10, 68, 113
10, 62364, Note_on_c, 10, 68, 0
10, 62370, Note_on_c, 10, 70, 123
10, 62394, Note_on_c, 10, 70, 0
10, 62400, Note_on_c, 10, 72, 121
10, 62424, Note_on_c, 10, 72, 0
10, 62430, Note_on_c, 10, 73, 126
10, 62454, Note_on_c, 10, 73, 0
10, 62460, Note_on_c, 10, 75, 111
10, 62489, Note_on_c, 10, 75, 0
10, 62496, Note_on_c, 10, 77, 127
10, 62525, Note_on_c, 10, 77, 0
10, 62532, Note_on_c, 10, 79, 127
10, 62561, Note_on_c, 10, 79, 0
10, 62568, Note_on_c, 10, 80, 113
10, 62597, Note_on_c, 10, 80, 0
10, 62604, Note_on_c, 10, 82, 109
10, 62633, Note_on_c, 10, 82, 0
10, 62640, Note_on_c, 10, 84, 127
10, 62736, Note_on_c, 10, 84, 0
10, 62820, Note_on_c, 10, 63, 113
10, 62868, Note_on_c, 10, 63, 0
10, 62880, Note_on_c, 10, 68, 111
10, 62880, Note_on_c, 10, 72, 127
10, 62928, Note_on_c, 10, 72, 0
10, 62928, Note_on_c, 10, 68, 0
10, 62940, Note_on_c, 10, 68, 109
10, 62940, Note_on_c, 10, 72, 127
10, 62988, Note_on_c, 10, 72, 0
10, 62988, Note_on_c, 10, 68, 0
10, 63000, Note_on_c, 10, 51, 127
10, 63048, Note_on_c, 10, 51, 0
10, 63060, Note_on_c, 10, 56, 109
10, 63060, Note_on_c, 10, 60, 127
10, 63108, Note_on_c, 10, 60, 0
10, 63108, Note_on_c, 10, 56, 0
10, 63120, Note_on_c, 10, 56, 100
10, 63120, Note_on_c, 10, 60, 125
10, 63168, Note_on_c, 10, 60, 0
10, 63168, Note_on_c, 10, 56, 0
10, 63180, Note_on_c, 10, 60, 127
10, 63228, Note_on_c, 10, 60, 0
10, 63240, Note_on_c, 10, 70, 88
10, 63240, Note_on_c, 10, 67, 121
10, 63288, Note_on_c, 10, 67, 0
10, 63288, Note_on_c, 10, 70, 0
10, 63300, Note_on_c, 10, 70, 105
10, 63300, Note_on_c, 10, 67, 123
10, 63348, Note_on_c, 10, 67, 0
10, 63348, Note_on_c, 10, 70, 0
10, 63360, Note_on_c, 10, 45, 127
10, 63384, Note_on_c, 10, 45, 0
10, 63390, Note_on_c, 10, 46, 127
10, 63414, Note_on_c, 10, 46, 0
10, 63420, Note_on_c, 10, 48, 114
10, 63444, Note_on_c, 10, 48, 0
10, 63450, Note_on_c, 10, 49, 111
10, 63474, Note_on_c, 10, 49, 0
10, 63480, Note_on_c, 10, 51, 121
10, 63504, Note_on_c, 10, 51, 0
10, 63510, Note_on_c, 10, 53, 100
10, 63534, Note_on_c, 10, 53, 0
10, 63540, Note_on_c, 10, 55, 112
10, 63564, Note_on_c, 10, 55, 0
10, 63570, Note_on_c, 10, 56, 100
10, 63594, Note_on_c, 10, 56, 0
10, 63600, Note_on_c, 10, 58, 113
10, 63624, Note_on_c, 10, 58, 0
10, 63630, Note_on_c, 10, 60, 101
10, 63654, Note_on_c, 10, 60, 0
10, 63660, Note_on_c, 10, 61, 99
10, 63684, Note_on_c, 10, 61, 0
10, 63690, Note_on_c, 10, 63, 118
10, 63714, Note_on_c, 10, 63, 0
10, 63720, Note_on_c, 10, 65, 125
10, 63744, Note_on_c, 10, 65, 0
10, 63750, Note_on_c, 10, 67, 127
10, 63774, Note_on_c, 10, 67, 0
10, 63780, Note_on_c, 10, 68, 115
10, 63804, Note_on_c, 10, 68, 0
10, 63810, Note_on_c, 10, 70, 93
10, 63834, Note_on_c, 10, 70, 0
10, 63840, Note_on_c, 10, 72, 120
10, 63864, Note_on_c, 10, 72, 0
10, 63870, Note_on_c, 10, 73, 118
10, 63894, Note_on_c, 10, 73, 0
10, 63900, Note_on_c, 10, 75, 111
10, 63916, Note_on_c, 10, 75, 0
10, 63920, Note_on_c, 10, 77, 127
10, 63936, Note_on_c, 10, 77, 0
10, 63940, Note_on_c, 10, 79, 102
10, 63956, Note_on_c, 10, 79, 0
10, 63960, Note_on_c, 10, 80, 121
10, 63984, Note_on_c, 10, 80, 0
10, 63990, Note_on_c, 10, 82, 118
10, 64014, Note_on_c, 10, 82, 0
10, 64020, Note_on_c, 10, 84, 127
10, 64044, Note_on_c, 10, 84, 0
10, 64050, Note_on_c, 10, 85, 93
10, 64074, Note_on_c, 10, 85, 0
10, 64080, Note_on_c, 10, 87, 109
10, 64176, Note_on_c, 10, 87, 0
10, 64260, Note_on_c, 10, 63, 118
10, 64308, Note_on_c, 10, 63, 0
10, 64320, Note_on_c, 10, 68, 95
10, 64320, Note_on_c, 10, 72, 116
10, 64368, Note_on_c, 10, 72, 0
10, 64368, Note_on_c, 10, 68, 0
10, 64380, Note_on_c, 10, 68, 97
10, 64380, Note_on_c, 10, 72, 117
10, 64428, Note_on_c, 10, 72, 0
10, 64428, Note_on_c, 10, 68, 0
10, 64440, Note_on_c, 10, 51, 127
10, 64488, Note_on_c, 10, 51, 0
10, 64500, Note_on_c, 10, 56, 103
10, 64500, Note_on_c, 10, 60, 125
10, 64548, Note_on_c, 10, 60, 0
10, 64548, Note_on_c, 10, 56, 0
10, 64560, Note_on_c, 10, 60, 127
10, 64560, Note_on_c, 10, 56, 100
10, 64608, Note_on_c, 10, 56, 0
10, 64608, Note_on_c, 10, 60, 0
10, 64620, Note_on_c, 10, 58, 121
10, 64620, Note_on_c, 10, 39, 127
10, 64636, Note_on_c, 10, 58, 0
10, 64640, Note_on_c, 10, 56, 94
10, 64656, Note_on_c, 10, 56, 0
10, 64660, Note_on_c, 10, 55, 127
10, 64668, Note_on_c, 10, 39, 0
10, 64676, Note_on_c, 10, 55, 0
10, 64680, Note_on_c, 10, 53, 127
10, 64680, Note_on_c, 10, 49, 115
10, 64680, Note_on_c, 10, 46, 115
10, 64704, Note_on_c, 10, 53, 0
10, 64710, Note_on_c, 10, 51, 88
10, 64728, Note_on_c, 10, 46, 0
10, 64728, Note_on_c, 10, 49, 0
10, 64734, Note_on_c, 10, 51, 0
10, 64740, Note_on_c, 10, 53, 127
10, 64740, Note_on_c, 10, 49, 121
10, 64740, Note_on_c, 10, 46, 123
10, 64764, Note_on_c, 10, 53, 0
10, 64770, Note_on_c, 10, 55, 127
10, 64788, Note_on_c, 10, 46, 0
10, 64788, Note_on_c, 10, 49, 0
10, 64794, Note_on_c, 10, 55, 0
10, 64800, Note_on_c, 10, 48, 127
10, 64800, Note_on_c, 10, 44, 99
10, 64896, Note_on_c, 10, 44, 0
10, 64896, Note_on_c, 10, 48, 0
10, 68040, Note_on_c, 10, 40, 112
10, 68088, Note_on_c, 10, 40, 0
10, 68100, Note_on_c, 10, 64, 127
10, 68148, Note_on_c, 10, 64, 0
10, 68160, Note_on_c, 10, 59, 127
10, 68208, Note_on_c, 10, 59, 0
10, 68220, Note_on_c, 10, 56, 109
10, 68268, Note_on_c, 10, 56, 0
10, 68280, Note_on_c, 10, 64, 127
10, 68328, Note_on_c, 10, 64, 0
10, 68340, Note_on_c, 10, 59, 127
10, 68388, Note_on_c, 10, 59, 0
10, 68400, Note_on_c, 10, 56, 115
10, 68448, Note_on_c, 10, 56, 0
10, 68460, Note_on_c, 10, 64, 127
10, 68508, Note_on_c, 10, 64, 0
10, 68520, Note_on_c, 10, 59, 127
10, 68568, Note_on_c, 10, 59, 0
10, 68580, Note_on_c, 10, 56, 113
10, 68628, Note_on_c, 10, 56, 0
10, 68640, Note_on_c, 10, 64, 127
10, 68688, Note_on_c, 10, 64, 0
10, 68700, Note_on_c, 10, 59, 123
10, 68748, Note_on_c, 10, 59, 0
10, 68760, Note_on_c, 10, 54, 82
10, 68808, Note_on_c, 10, 54, 0
10, 68820, Note_on_c, 10, 63, 127
10, 68868, Note_on_c, 10, 63, 0
10, 68880, Note_on_c, 10, 59, 127
10, 68928, Note_on_c, 10, 59, 0
10, 68940, Note_on_c, 10, 54, 113
10, 68988, Note_on_c, 10, 54, 0
10, 69000, Note_on_c, 10, 63, 115
10, 69048, Note_on_c, 10, 63, 0
10, 69060, Note_on_c, 10, 59, 118
10, 69108, Note_on_c, 10, 59, 0
10, 69120, Note_on_c, 10, 56, 103
10, 69168, Note_on_c, 10, 56, 0
10, 69180, Note_on_c, 10, 64, 127
10, 69228, Note_on_c, 10, 64, 0
10, 69240, Note_on_c, 10, 59, 127
10, 69288, Note_on_c, 10, 59, 0
10, 69300, Note_on_c, 10, 56, 113
10, 69348, Note_on_c, 10, 56, 0
10, 69360, Note_on_c, 10, 64, 127
10, 69408, Note_on_c, 10, 64, 0
10, 69420, Note_on_c, 10, 59, 127
10, 69468, Note_on_c, 10, 59, 0
10, 69480, Note_on_c, 10, 54, 121
10, 69528, Note_on_c, 10, 54, 0
10, 69540, Note_on_c, 10, 63, 127
10, 69588, Note_on_c, 10, 63, 0
10, 69600, Note_on_c, 10, 59, 127
10, 69648, Note_on_c, 10, 59, 0
10, 69660, Note_on_c, 10, 54, 111
10, 69708, Note_on_c, 10, 54, 0
10, 69720, Note_on_c, 10, 63, 127
10, 69768, Note_on_c, 10, 63, 0
10, 69780, Note_on_c, 10, 59, 127
10, 69828, Note_on_c, 10, 59, 0
10, 69840, Note_on_c, 10, 56, 96
10, 69888, Note_on_c, 10, 56, 0
10, 69900, Note_on_c, 10, 64, 127
10, 69948, Note_on_c, 10, 64, 0
10, 69960, Note_on_c, 10, 59, 127
10, 70008, Note_on_c, 10, 59, 0
10, 70020, Note_on_c, 10, 56, 111
10, 70068, Note_on_c, 10, 56, 0
10, 70080, Note_on_c, 10, 64, 121
10, 70128, Note_on_c, 10, 64, 0
10, 70140, Note_on_c, 10, 59, 127
10, 70188, Note_on_c, 10, 59, 0
10, 70200, Note_on_c, 10, 56, 113
10, 70248, Note_on_c, 10, 56, 0
10, 70260, Note_on_c, 10, 64, 127
10, 70308, Note_on_c, 10, 64, 0
10, 70320, Note_on_c, 10, 59, 127
10, 70368, Note_on_c, 10, 59, 0
10, 70380, Note_on_c, 10, 56, 113
10, 70428, Note_on_c, 10, 56, 0
10, 70440, Note_on_c, 10, 64, 120
10, 70488, Note_on_c, 10, 64, 0
10, 70500, Note_on_c, 10, 59, 127
10, 70548, Note_on_c, 10, 59, 0
10, 70560, Note_on_c, 10, 45, 109
10, 70608, Note_on_c, 10, 45, 0
10, 70620, Note_on_c, 10, 64, 127
10, 70668, Note_on_c, 10, 64, 0
10, 70680, Note_on_c, 10, 57, 127
10, 70680, Note_on_c, 10, 61, 99
10, 70728, Note_on_c, 10, 61, 0
10, 70728, Note_on_c, 10, 57, 0
10, 70740, Note_on_c, 10, 45, 127
10, 70788, Note_on_c, 10, 45, 0
10, 70800, Note_on_c, 10, 64, 127
10, 70848, Note_on_c, 10, 64, 0
10, 70860, Note_on_c, 10, 57, 121
10, 70860, Note_on_c, 10, 61, 111
10, 70908, Note_on_c, 10, 61, 0
10, 70908, Note_on_c, 10, 57, 0
10, 70920, Note_on_c, 10, 45, 127
10, 70968, Note_on_c, 10, 45, 0
10, 70980, Note_on_c, 10, 64, 127
10, 71028, Note_on_c, 10, 64, 0
10, 71040, Note_on_c, 10, 61, 107
10, 71040, Note_on_c, 10, 57, 116
10, 71088, Note_on_c, 10, 57, 0
10, 71088, Note_on_c, 10, 61, 0
10, 71100, Note_on_c, 10, 45, 127
10, 71148, Note_on_c, 10, 45, 0
10, 71160, Note_on_c, 10, 64, 125
10, 71208, Note_on_c, 10, 64, 0
10, 71220, Note_on_c, 10, 61, 109
10, 71220, Note_on_c, 10, 57, 118
10, 71268, Note_on_c, 10, 57, 0
10, 71268, Note_on_c, 10, 61, 0
10, 71280, Note_on_c, 10, 47, 127
10, 71328, Note_on_c, 10, 47, 0
10, 71340, Note_on_c, 10, 64, 127
10, 71388, Note_on_c, 10, 64, 0
10, 71400, Note_on_c, 10, 56, 109
10, 71400, Note_on_c, 10, 59, 127
10, 71448, Note_on_c, 10, 59, 0
10, 71448, Note_on_c, 10, 56, 0
10, 71460, Note_on_c, 10, 47, 127
10, 71508, Note_on_c, 10, 47, 0
10, 71520, Note_on_c, 10, 64, 123
10, 71568, Note_on_c, 10, 64, 0
10, 71580, Note_on_c, 10, 56, 101
10, 71580, Note_on_c, 10, 59, 127
10, 71628, Note_on_c, 10, 59, 0
10, 71628, Note_on_c, 10, 56, 0
10, 71640, Note_on_c, 10, 47, 127
10, 71688, Note_on_c, 10, 47, 0
10, 71700, Note_on_c, 10, 63, 126
10, 71748, Note_on_c, 10, 63, 0
10, 71760, Note_on_c, 10, 54, 103
10, 71760, Note_on_c, 10, 59, 127
10, 71808, Note_on_c, 10, 59, 0
10, 71808, Note_on_c, 10, 54, 0
10, 71820, Note_on_c, 10, 47, 127
10, 71868, Note_on_c, 10, 47, 0
10, 71880, Note_on_c, 10, 63, 123
10, 71928, Note_on_c, 10, 63, 0
10, 71940, Note_on_c, 10, 54, 115
10, 71940, Note_on_c, 10, 59, 127
10, 71988, Note_on_c, 10, 59, 0
10, 71988, Note_on_c, 10, 54, 0
10, 72000, Note_on_c, 10, 40, 108
10, 72024, Note_on_c, 10, 40, 0
10, 72030, Note_on_c, 10, 42, 126
10, 72054, Note_on_c, 10, 42, 0
10, 72060, Note_on_c, 10, 44, 127
10, 72084, Note_on_c, 10, 44, 0
10, 72090, Note_on_c, 10, 45, 125
10, 72114, Note_on_c, 10, 45, 0
10, 72120, Note_on_c, 10, 47, 127
10, 72144, Note_on_c, 10, 47, 0
10, 72150, Note_on_c, 10, 49, 101
10, 72174, Note_on_c, 10, 49, 0
10, 72180, Note_on_c, 10, 51, 105
10, 72204, Note_on_c, 10, 51, 0
10, 72210, Note_on_c, 10, 52, 121
10, 72234, Note_on_c, 10, 52, 0
10, 72240, Note_on_c, 10, 54, 123
10, 72264, Note_on_c, 10, 54, 0
10, 72270, Note_on_c, 10, 56, 118
10, 72294, Note_on_c, 10, 56, 0
10, 72300, Note_on_c, 10, 57, 117
10, 72324, Note_on_c, 10, 57, 0
10, 72330, Note_on_c, 10, 59, 127
10, 72354, Note_on_c, 10, 59, 0
10, 72360, Note_on_c, 10, 61, 118
10, 72384, Note_on_c, 10, 61, 0
10, 72390, Note_on_c, 10, 63, 121
10, 72414, Note_on_c, 10, 63, 0
10, 72420, Note_on_c, 10, 64, 105
10, 72444, Note_on_c, 10, 64, 0
10, 72450, Note_on_c, 10, 66, 109
10, 72474, Note_on_c, 10, 66, 0
10, 72480, Note_on_c, 10, 68, 115
10, 72504, Note_on_c, 10, 68, 0
10, 72510, Note_on_c, 10, 69, 121
10, 72534, Note_on_c, 10, 69, 0
10, 72540, Note_on_c, 10, 71, 127
10, 72564, Note_on_c, 10, 71, 0
10, 72570, Note_on_c, 10, 73, 121
10, 72594, Note_on_c, 10, 73, 0
10, 72600, Note_on_c, 10, 75, 111
10, 72624, Note_on_c, 10, 75, 0
10, 72630, Note_on_c, 10, 76, 127
10, 72654, Note_on_c, 10, 76, 0
10, 72660, Note_on_c, 10, 78, 118
10, 72676, Note_on_c, 10, 78, 0
10, 72680, Note_on_c, 10, 80, 111
10, 72696, Note_on_c, 10, 80, 0
10, 72700, Note_on_c, 10, 81, 118
10, 72716, Note_on_c, 10, 81, 0
10, 72720, Note_on_c, 10, 83, 105
10, 72832, Note_on_c, 10, 83, 0
10, 72900, Note_on_c, 10, 59, 127
10, 72948, Note_on_c, 10, 59, 0
10, 72960, Note_on_c, 10, 68, 83
10, 72960, Note_on_c, 10, 64, 127
10, 73008, Note_on_c, 10, 64, 0
10, 73008, Note_on_c, 10, 68, 0
10, 73020, Note_on_c, 10, 64, 127
10, 73020, Note_on_c, 10, 68, 90
10, 73068, Note_on_c, 10, 68, 0
10, 73068, Note_on_c, 10, 64, 0
10, 73080, Note_on_c, 10, 47, 127
10, 73128, Note_on_c, 10, 47, 0
10, 73140, Note_on_c, 10, 56, 100
10, 73140, Note_on_c, 10, 52, 127
10, 73188, Note_on_c, 10, 52, 0
10, 73188, Note_on_c, 10, 56, 0
10, 73200, Note_on_c, 10, 52, 120
10, 73200, Note_on_c, 10, 56, 107
10, 73248, Note_on_c, 10, 56, 0
10, 73248, Note_on_c, 10, 52, 0
10, 73260, Note_on_c, 10, 47, 123
10, 73308, Note_on_c, 10, 47, 0
10, 73320, Note_on_c, 10, 54, 107
10, 73320, Note_on_c, 10, 57, 120
10, 73368, Note_on_c, 10, 57, 0
10, 73368, Note_on_c, 10, 54, 0
10, 73380, Note_on_c, 10, 54, 113
10, 73380, Note_on_c, 10, 57, 127
10, 73428, Note_on_c, 10, 57, 0
10, 73428, Note_on_c, 10, 54, 0
10, 73440, Note_on_c, 10, 40, 125
10, 73464, Note_on_c, 10, 40, 0
10, 73470, Note_on_c, 10, 42, 109
10, 73494, Note_on_c, 10, 42, 0
10, 73500, Note_on_c, 10, 44, 70
10, 73524, Note_on_c, 10, 44, 0
10, 73530, Note_on_c, 10, 45, 127
10, 73554, Note_on_c, 10, 45, 0
10, 73560, Note_on_c, 10, 47, 127
10, 73584, Note_on_c, 10, 47, 0
10, 73590, Note_on_c, 10, 49, 111
10, 73614, Note_on_c, 10, 49, 0
10, 73620, Note_on_c, 10, 51, 103
10, 73644, Note_on_c, 10, 51, 0
10, 73650, Note_on_c, 10, 52, 123
10, 73674, Note_on_c, 10, 52, 0
10, 73680, Note_on_c, 10, 54, 109
10, 73704, Note_on_c, 10, 54, 0
10, 73710, Note_on_c, 10, 56, 115
10, 73734, Note_on_c, 10, 56, 0
10, 73740, Note_on_c, 10, 57, 107
10, 73764, Note_on_c, 10, 57, 0
10, 73770, Note_on_c, 10, 59, 127
10, 73794, Note_on_c, 10, 59, 0
10, 73800, Note_on_c, 10, 61, 118
10, 73816, Note_on_c, 10, 61, 0
10, 73820, Note_on_c, 10, 63, 127
10, 73836, Note_on_c, 10, 63, 0
10, 73840, Note_on_c, 10, 64, 106
10, 73856, Note_on_c, 10, 64, 0
10, 73860, Note_on_c, 10, 66, 111
10, 73876, Note_on_c, 10, 66, 0
10, 73880, Note_on_c, 10, 68, 123
10, 73896, Note_on_c, 10, 68, 0
10, 73900, Note_on_c, 10, 69, 102
10, 73916, Note_on_c, 10, 69, 0
10, 73920, Note_on_c, 10, 71, 127
10, 73936, Note_on_c, 10, 71, 0
10, 73940, Note_on_c, 10, 73, 105
10, 73956, Note_on_c, 10, 73, 0
10, 73960, Note_on_c, 10, 75, 123
10, 73976, Note_on_c, 10, 75, 0
10, 73980, Note_on_c, 10, 76, 127
10, 73996, Note_on_c, 10, 76, 0
10, 74000, Note_on_c, 10, 78, 121
10, 74016, Note_on_c, 10, 78, 0
10, 74020, Note_on_c, 10, 80, 118
10, 74036, Note_on_c, 10, 80, 0
10, 74040, Note_on_c, 10, 81, 127
10, 74064, Note_on_c, 10, 81, 0
10, 74070, Note_on_c, 10, 83, 127
10, 74094, Note_on_c, 10, 83, 0
10, 74100, Note_on_c, 10, 85, 113
10, 74124, Note_on_c, 10, 85, 0
10, 74130, Note_on_c, 10, 87, 121
10, 74154, Note_on_c, 10, 87, 0
10, 74160, Note_on_c, 10, 88, 127
10, 74256, Note_on_c, 10, 88, 0
10, 74340, Note_on_c, 10, 59, 127
10, 74388, Note_on_c, 10, 59, 0
10, 74400, Note_on_c, 10, 64, 127
10, 74400, Note_on_c, 10, 68, 105
10, 74448, Note_on_c, 10, 68, 0
10, 74448, Note_on_c, 10, 64, 0
10, 74460, Note_on_c, 10, 64, 127
10, 74460, Note_on_c, 10, 68, 101
10, 74508, Note_on_c, 10, 68, 0
10, 74508, Note_on_c, 10, 64, 0
10, 74520, Note_on_c, 10, 47, 127
10, 74568, Note_on_c, 10, 47, 0
10, 74580, Note_on_c, 10, 52, 127
10, 74580, Note_on_c, 10, 56, 97
10, 74628, Note_on_c, 10, 56, 0
10, 74628, Note_on_c, 10, 52, 0
10, 74640, Note_on_c, 10, 52, 125
10, 74640, Note_on_c, 10, 56, 118
10, 74688, Note_on_c, 10, 56, 0
10, 74688, Note_on_c, 10, 52, 0
10, 74700, Note_on_c, 10, 35, 127
10, 74748, Note_on_c, 10, 35, 0
10, 74760, Note_on_c, 10, 42, 99
10, 74760, Note_on_c, 10, 45, 117
10, 74808, Note_on_c, 10, 45, 0
10, 74808, Note_on_c, 10, 42, 0
10, 74820, Note_on_c, 10, 45, 112
10, 74820, Note_on_c, 10, 42, 99
10, 74868, Note_on_c, 10, 42, 0
10, 74868, Note_on_c, 10, 45, 0
10, 74880, Note_on_c, 10, 44, 90
10, 74880, Note_on_c, 10, 40, 127
10, 74976, Note_on_c, 10, 40, 0
10, 74976, Note_on_c, 10, 44, 0
10, 76320, Note_on_c, 10, 40, 121
10, 76344, Note_on_c, 10, 40, 0
10, 76350, Note_on_c, 10, 47, 127
10, 76374, Note_on_c, 10, 47, 0
10, 76380, Note_on_c, 10, 55, 99
10, 76404, Note_on_c, 10, 55, 0
10, 76410, Note_on_c, 10, 47, 127
10, 76434, Note_on_c, 10, 47, 0
10, 76440, Note_on_c, 10, 40, 116
10, 76464, Note_on_c, 10, 40, 0
10, 76470, Note_on_c, 10, 47, 120
10, 76494, Note_on_c, 10, 47, 0
10, 76500, Note_on_c, 10, 40, 125
10, 76524, Note_on_c, 10, 40, 0
10, 76530, Note_on_c, 10, 47, 112
10, 76554, Note_on_c, 10, 47, 0
10, 76560, Note_on_c, 10, 55, 115
10, 76584, Note_on_c, 10, 55, 0
10, 76590, Note_on_c, 10, 47, 127
10, 76614, Note_on_c, 10, 47, 0
10, 76620, Note_on_c, 10, 40, 114
10, 76644, Note_on_c, 10, 40, 0
10, 76650, Note_on_c, 10, 47, 121
10, 76674, Note_on_c, 10, 47, 0
10, 76680, Note_on_c, 10, 40, 111
10, 76704, Note_on_c, 10, 40, 0
10, 76710, Note_on_c, 10, 47, 121
10, 76734, Note_on_c, 10, 47, 0
10, 76740, Note_on_c, 10, 55, 104
10, 76764, Note_on_c, 10, 55, 0
10, 76770, Note_on_c, 10, 47, 127
10, 76794, Note_on_c, 10, 47, 0
10, 76800, Note_on_c, 10, 40, 120
10, 76824, Note_on_c, 10, 40, 0
10, 76830, Note_on_c, 10, 47, 127
10, 76854, Note_on_c, 10, 47, 0
10, 76860, Note_on_c, 10, 40, 118
10, 76884, Note_on_c, 10, 40, 0
10, 76890, Note_on_c, 10, 47, 127
10, 76914, Note_on_c, 10, 47, 0
10, 76920, Note_on_c, 10, 55, 125
10, 76944, Note_on_c, 10, 55, 0
10, 76950, Note_on_c, 10, 47, 127
10, 76974, Note_on_c, 10, 47, 0
10, 76980, Note_on_c, 10, 40, 105
10, 77004, Note_on_c, 10, 40, 0
10, 77010, Note_on_c, 10, 47, 104
10, 77034, Note_on_c, 10, 47, 0
10, 77040, Note_on_c, 10, 45, 107
10, 77064, Note_on_c, 10, 45, 0
10, 77070, Note_on_c, 10, 52, 110
10, 77094, Note_on_c, 10, 52, 0
10, 77100, Note_on_c, 10, 60, 123
10, 77124, Note_on_c, 10, 60, 0
10, 77130, Note_on_c, 10, 52, 125
10, 77154, Note_on_c, 10, 52, 0
10, 77160, Note_on_c, 10, 45, 113
10, 77184, Note_on_c, 10, 45, 0
10, 77190, Note_on_c, 10, 52, 120
10, 77214, Note_on_c, 10, 52, 0
10, 77220, Note_on_c, 10, 45, 114
10, 77244, Note_on_c, 10, 45, 0
10, 77250, Note_on_c, 10, 52, 127
10, 77274, Note_on_c, 10, 52, 0
10, 77280, Note_on_c, 10, 60, 118
10, 77304, Note_on_c, 10, 60, 0
10, 77310, Note_on_c, 10, 52, 114
10, 77334, Note_on_c, 10, 52, 0
10, 77340, Note_on_c, 10, 45, 111
10, 77364, Note_on_c, 10, 45, 0
10, 77370, Note_on_c, 10, 52, 123
10, 77394, Note_on_c, 10, 52, 0
10, 77400, Note_on_c, 10, 45, 117
10, 77424, Note_on_c, 10, 45, 0
10, 77430, Note_on_c, 10, 52, 127
10, 77454, Note_on_c, 10, 52, 0
10, 77460, Note_on_c, 10, 60, 110
10, 77484, Note_on_c, 10, 60, 0
10, 77490, Note_on_c, 10, 52, 125
10, 77514, Note_on_c, 10, 52, 0
10, 77520, Note_on_c, 10, 45, 117
10, 77544, Note_on_c, 10, 45, 0
10, 77550, Note_on_c, 10, 52, 123
10, 77574, Note_on_c, 10, 52, 0
10, 77580, Note_on_c, 10, 45, 109
10, 77604, Note_on_c, 10, 45, 0
10, 77610, Note_on_c, 10, 52, 120
10, 77634, Note_on_c, 10, 52, 0
10, 77640, Note_on_c, 10, 60, 125
10, 77664, Note_on_c, 10, 60, 0
10, 77670, Note_on_c, 10, 52, 127
10, 77694, Note_on_c, 10, 52, 0
10, 77700, Note_on_c, 10, 45, 108
10, 77724, Note_on_c, 10, 45, 0
10, 77730, Note_on_c, 10, 52, 120
10, 77754, Note_on_c, 10, 52, 0
10, 77760, Note_on_c, 10, 45, 112
10, 77784, Note_on_c, 10, 45, 0
10, 77790, Note_on_c, 10, 50, 127
10, 77814, Note_on_c, 10, 50, 0
10, 77820, Note_on_c, 10, 60, 123
10, 77844, Note_on_c, 10, 60, 0
10, 77850, Note_on_c, 10, 50, 127
10, 77874, Note_on_c, 10, 50, 0
10, 77880, Note_on_c, 10, 45, 98
10, 77904, Note_on_c, 10, 45, 0
10, 77910, Note_on_c, 10, 50, 127
10, 77934, Note_on_c, 10, 50, 0
10, 77940, Note_on_c, 10, 43, 107
10, 77964, Note_on_c, 10, 43, 0
10, 77970, Note_on_c, 10, 50, 127
10, 77994, Note_on_c, 10, 50, 0
10, 78000, Note_on_c, 10, 58, 101
10, 78024, Note_on_c, 10, 58, 0
10, 78030, Note_on_c, 10, 50, 127
10, 78054, Note_on_c, 10, 50, 0
10, 78060, Note_on_c, 10, 43, 107
10, 78084, Note_on_c, 10, 43, 0
10, 78090, Note_on_c, 10, 50, 127
10, 78114, Note_on_c, 10, 50, 0
10, 78120, Note_on_c, 10, 43, 104
10, 78144, Note_on_c, 10, 43, 0
10, 78150, Note_on_c, 10, 48, 127
10, 78174, Note_on_c, 10, 48, 0
10, 78180, Note_on_c, 10, 58, 107
10, 78204, Note_on_c, 10, 58, 0
10, 78210, Note_on_c, 10, 48, 127
10, 78234, Note_on_c, 10, 48, 0
10, 78240, Note_on_c, 10, 43, 116
10, 78264, Note_on_c, 10, 43, 0
10, 78270, Note_on_c, 10, 48, 127
10, 78294, Note_on_c, 10, 48, 0
10, 78300, Note_on_c, 10, 41, 109
10, 78324, Note_on_c, 10, 41, 0
10, 78330, Note_on_c, 10, 48, 114
10, 78354, Note_on_c, 10, 48, 0
10, 78360, Note_on_c, 10, 56, 99
10, 78384, Note_on_c, 10, 56, 0
10, 78390, Note_on_c, 10, 48, 127
10, 78414, Note_on_c, 10, 48, 0
10, 78420, Note_on_c, 10, 41, 106
10, 78444, Note_on_c, 10, 41, 0
10, 78450, Note_on_c, 10, 48, 127
10, 78474, Note_on_c, 10, 48, 0
10, 78480, Note_on_c, 10, 41, 120
10, 78504, Note_on_c, 10, 41, 0
10, 78510, Note_on_c, 10, 48, 125
10, 78534, Note_on_c, 10, 48, 0
10, 78540, Note_on_c, 10, 56, 109
10, 78564, Note_on_c, 10, 56, 0
10, 78570, Note_on_c, 10, 48, 109
10, 78594, Note_on_c, 10, 48, 0
10, 78600, Note_on_c, 10, 41, 50
10, 78624, Note_on_c, 10, 41, 0
10, 78630, Note_on_c, 10, 48, 127
10, 78654, Note_on_c, 10, 48, 0
10, 78660, Note_on_c, 10, 41, 113
10, 78684, Note_on_c, 10, 41, 0
10, 78690, Note_on_c, 10, 48, 127
10, 78714, Note_on_c, 10, 48, 0
10, 78720, Note_on_c, 10, 56, 113
10, 78744, Note_on_c, 10, 56, 0
10, 78750, Note_on_c, 10, 48, 127
10, 78774, Note_on_c, 10, 48, 0
10, 78780, Note_on_c, 10, 41, 103
10, 78804, Note_on_c, 10, 41, 0
10, 78810, Note_on_c, 10, 48, 127
10, 78834, Note_on_c, 10, 48, 0
10, 78840, Note_on_c, 10, 38, 105
10, 78864, Note_on_c, 10, 38, 0
10, 78870, Note_on_c, 10, 50, 127
10, 78894, Note_on_c, 10, 50, 0
10, 78900, Note_on_c, 10, 56, 125
10, 78924, Note_on_c, 10, 56, 0
10, 78930, Note_on_c, 10, 50, 127
10, 78954, Note_on_c, 10, 50, 0
10, 78960, Note_on_c, 10, 40, 100
10, 78960, Note_on_c, 10, 38, 107
10, 78984, Note_on_c, 10, 38, 0
10, 78990, Note_on_c, 10, 50, 127
10, 79014, Note_on_c, 10, 50, 0
10, 79020, Note_on_c, 10, 36, 127
10, 79044, Note_on_c, 10, 36, 0
10, 79050, Note_on_c, 10, 48, 127
10, 79074, Note_on_c, 10, 48, 0
10, 79079, Note_on_c, 10, 40, 0
10, 79080, Note_on_c, 10, 53, 127
10, 79104, Note_on_c, 10, 53, 0
10, 79110, Note_on_c, 10, 48, 120
10, 79134, Note_on_c, 10, 48, 0
10, 79140, Note_on_c, 10, 36, 127
10, 79164, Note_on_c, 10, 36, 0
10, 79170, Note_on_c, 10, 48, 117
10, 79194, Note_on_c, 10, 48, 0
10, 79200, Note_on_c, 10, 46, 111
10, 79200, Note_on_c, 10, 34, 123
10, 79296, Note_on_c, 10, 34, 0
10, 79296, Note_on_c, 10, 46, 0
10, 79740, Note_on_c, 10, 53, 127
10, 79764, Note_on_c, 10, 53, 0
10, 79770, Note_on_c, 10, 50, 127
10, 79794, Note_on_c, 10, 50, 0
10, 79800, Note_on_c, 10, 41, 117
10, 79824, Note_on_c, 10, 41, 0
10, 79830, Note_on_c, 10, 50, 112
10, 79854, Note_on_c, 10, 50, 0
10, 79860, Note_on_c, 10, 53, 125
10, 79884, Note_on_c, 10, 53, 0
10, 79890, Note_on_c, 10, 50, 127
10, 79914, Note_on_c, 10, 50, 0
10, 79920, Note_on_c, 10, 41, 112
10, 79944, Note_on_c, 10, 41, 0
10, 79950, Note_on_c, 10, 50, 127
10, 79974, Note_on_c, 10, 50, 0
10, 79980, Note_on_c, 10, 53, 127
10, 80004, Note_on_c, 10, 53, 0
10, 80010, Note_on_c, 10, 50, 127
10, 80034, Note_on_c, 10, 50, 0
10, 80040, Note_on_c, 10, 41, 121
10, 80064, Note_on_c, 10, 41, 0
10, 80070, Note_on_c, 10, 50, 127
10, 80094, Note_on_c, 10, 50, 0
10, 80640, Note_on_c, 10, 34, 114
10, 80736, Note_on_c, 10, 34, 0
10, 81180, Note_on_c, 10, 53, 127
10, 81204, Note_on_c, 10, 53, 0
10, 81210, Note_on_c, 10, 50, 127
10, 81234, Note_on_c, 10, 50, 0
10, 81240, Note_on_c, 10, 41, 121
10, 81264, Note_on_c, 10, 41, 0
10, 81270, Note_on_c, 10, 50, 127
10, 81294, Note_on_c, 10, 50, 0
10, 81300, Note_on_c, 10, 53, 127
10, 81324, Note_on_c, 10, 53, 0
10, 81330, Note_on_c, 10, 50, 127
10, 81354, Note_on_c, 10, 50, 0
10, 81360, Note_on_c, 10, 41, 117
10, 81384, Note_on_c, 10, 41, 0
10, 81390, Note_on_c, 10, 50, 127
10, 81414, Note_on_c, 10, 50, 0
10, 81420, Note_on_c, 10, 56, 127
10, 81444, Note_on_c, 10, 56, 0
10, 81450, Note_on_c, 10, 50, 127
10, 81474, Note_on_c, 10, 50, 0
10, 81480, Note_on_c, 10, 41, 111
10, 81504, Note_on_c, 10, 41, 0
10, 81510, Note_on_c, 10, 50, 125
10, 81534, Note_on_c, 10, 50, 0
10, 82080, Note_on_c, 10, 46, 121
10, 82104, Note_on_c, 10, 46, 0
10, 82110, Note_on_c, 10, 50, 116
10, 82134, Note_on_c, 10, 50, 0
10, 82140, Note_on_c, 10, 53, 127
10, 82164, Note_on_c, 10, 53, 0
10, 82170, Note_on_c, 10, 56, 123
10, 82194, Note_on_c, 10, 56, 0
10, 82200, Note_on_c, 10, 58, 127
10, 82224, Note_on_c, 10, 58, 0
10, 82230, Note_on_c, 10, 62, 127
10, 82254, Note_on_c, 10, 62, 0
10, 82260, Note_on_c, 10, 65, 127
10, 82284, Note_on_c, 10, 65, 0
10, 82290, Note_on_c, 10, 68, 118
10, 82314, Note_on_c, 10, 68, 0
10, 82320, Note_on_c, 10, 58, 101
10, 82344, Note_on_c, 10, 58, 0
10, 82350, Note_on_c, 10, 62, 127
10, 82374, Note_on_c, 10, 62, 0
10, 82380, Note_on_c, 10, 65, 127
10, 82404, Note_on_c, 10, 65, 0
10, 82410, Note_on_c, 10, 68, 105
10, 82434, Note_on_c, 10, 68, 0
10, 82440, Note_on_c, 10, 58, 121
10, 82464, Note_on_c, 10, 58, 0
10, 82470, Note_on_c, 10, 62, 127
10, 82494, Note_on_c, 10, 62, 0
10, 82500, Note_on_c, 10, 65, 127
10, 82524, Note_on_c, 10, 65, 0
10, 82530, Note_on_c, 10, 68, 113
10, 82554, Note_on_c, 10, 68, 0
10, 82560, Note_on_c, 10, 58, 115
10, 82584, Note_on_c, 10, 58, 0
10, 82590, Note_on_c, 10, 62, 127
10, 82614, Note_on_c, 10, 62, 0
10, 82620, Note_on_c, 10, 65, 127
10, 82644, Note_on_c, 10, 65, 0
10, 82650, Note_on_c, 10, 68, 103
10, 82674, Note_on_c, 10, 68, 0
10, 82680, Note_on_c, 10, 58, 113
10, 82704, Note_on_c, 10, 58, 0
10, 82710, Note_on_c, 10, 62, 127
10, 82734, Note_on_c, 10, 62, 0
10, 82740, Note_on_c, 10, 65, 127
10, 82764, Note_on_c, 10, 65, 0
10, 82770, Note_on_c, 10, 68, 111
10, 82794, Note_on_c, 10, 68, 0
10, 82800, Note_on_c, 10, 59, 127
10, 82824, Note_on_c, 10, 59, 0
10, 82830, Note_on_c, 10, 62, 127
10, 82854, Note_on_c, 10, 62, 0
10, 82860, Note_on_c, 10, 65, 127
10, 82884, Note_on_c, 10, 65, 0
10, 82890, Note_on_c, 10, 68, 109
10, 82914, Note_on_c, 10, 68, 0
10, 82920, Note_on_c, 10, 58, 99
10, 82944, Note_on_c, 10, 58, 0
10, 82950, Note_on_c, 10, 67, 127
10, 82974, Note_on_c, 10, 67, 0
10, 82980, Note_on_c, 10, 57, 127
10, 83004, Note_on_c, 10, 57, 0
10, 83010, Note_on_c, 10, 60, 127
10, 83034, Note_on_c, 10, 60, 0
10, 83040, Note_on_c, 10, 64, 127
10, 83064, Note_on_c, 10, 64, 0
10, 83070, Note_on_c, 10, 68, 113
10, 83094, Note_on_c, 10, 68, 0
10, 83100, Note_on_c, 10, 56, 107
10, 83124, Note_on_c, 10, 56, 0
10, 83130, Note_on_c, 10, 65, 127
10, 83154, Note_on_c, 10, 65, 0
10, 83160, Note_on_c, 10, 55, 127
10, 83184, Note_on_c, 10, 55, 0
10, 83190, Note_on_c, 10, 64, 127
10, 83214, Note_on_c, 10, 64, 0
10, 83220, Note_on_c, 10, 54, 78
10, 83244, Note_on_c, 10, 54, 0
10, 83250, Note_on_c, 10, 63, 126
10, 83274, Note_on_c, 10, 63, 0
10, 83280, Note_on_c, 10, 53, 106
10, 83304, Note_on_c, 10, 53, 0
10, 83310, Note_on_c, 10, 62, 127
10, 83334, Note_on_c, 10, 62, 0
10, 83340, Note_on_c, 10, 52, 110
10, 83364, Note_on_c, 10, 52, 0
10, 83370, Note_on_c, 10, 61, 111
10, 83394, Note_on_c, 10, 61, 0
10, 83400, Note_on_c, 10, 51, 121
10, 83424, Note_on_c, 10, 51, 0
10, 83430, Note_on_c, 10, 60, 127
10, 83454, Note_on_c, 10, 60, 0
10, 83460, Note_on_c, 10, 50, 50
10, 83484, Note_on_c, 10, 50, 0
10, 83490, Note_on_c, 10, 58, 111
10, 83514, Note_on_c, 10, 58, 0
10, 83520, Note_on_c, 10, 59, 127
10, 83544, Note_on_c, 10, 59, 0
10, 83550, Note_on_c, 10, 58, 100
10, 83574, Note_on_c, 10, 58, 0
10, 83580, Note_on_c, 10, 59, 125
10, 83604, Note_on_c, 10, 59, 0
10, 83610, Note_on_c, 10, 58, 100
10, 83634, Note_on_c, 10, 58, 0
10, 83640, Note_on_c, 10, 59, 127
10, 83664, Note_on_c, 10, 59, 0
10, 83670, Note_on_c, 10, 58, 105
10, 83694, Note_on_c, 10, 58, 0
10, 83700, Note_on_c, 10, 59, 127
10, 83724, Note_on_c, 10, 59, 0
10, 83730, Note_on_c, 10, 58, 105
10, 83754, Note_on_c, 10, 58, 0
10, 83760, Note_on_c, 10, 59, 127
10, 83784, Note_on_c, 10, 59, 0
10, 83790, Note_on_c, 10, 58, 109
10, 83814, Note_on_c, 10, 58, 0
10, 83820, Note_on_c, 10, 59, 125
10, 83844, Note_on_c, 10, 59, 0
10, 83850, Note_on_c, 10, 58, 103
10, 83874, Note_on_c, 10, 58, 0
10, 83880, Note_on_c, 10, 59, 127
10, 83904, Note_on_c, 10, 59, 0
10, 83910, Note_on_c, 10, 58, 107
10, 83934, Note_on_c, 10, 58, 0
10, 83940, Note_on_c, 10, 59, 125
10, 83964, Note_on_c, 10, 59, 0
10, 83970, Note_on_c, 10, 58, 103
10, 83994, Note_on_c, 10, 58, 0
10, 84000, Note_on_c, 10, 59, 125
10, 84024, Note_on_c, 10, 59, 0
10, 84030, Note_on_c, 10, 58, 103
10, 84054, Note_on_c, 10, 58, 0
10, 84060, Note_on_c, 10, 59, 127
10, 84084, Note_on_c, 10, 59, 0
10, 84090, Note_on_c, 10, 58, 107
10, 84114, Note_on_c, 10, 58, 0
10, 84120, Note_on_c, 10, 59, 123
10, 84144, Note_on_c, 10, 59, 0
10, 84150, Note_on_c, 10, 58, 107
10, 84174, Note_on_c, 10, 58, 0
10, 84180, Note_on_c, 10, 59, 125
10, 84204, Note_on_c, 10, 59, 0
10, 84210, Note_on_c, 10, 58, 81
10, 84234, Note_on_c, 10, 58, 0
10, 84240, Note_on_c, 10, 58, 127
10, 84252, Note_on_c, 10, 58, 0
10, 84255, Note_on_c, 10, 57, 109
10, 84267, Note_on_c, 10, 57, 0
10, 84270, Note_on_c, 10, 58, 123
10, 84282, Note_on_c, 10, 58, 0
10, 84285, Note_on_c, 10, 57, 103
10, 84297, Note_on_c, 10, 57, 0
10, 84300, Note_on_c, 10, 58, 125
10, 84312, Note_on_c, 10, 58, 0
10, 84315, Note_on_c, 10, 57, 105
10, 84327, Note_on_c, 10, 57, 0
10, 84330, Note_on_c, 10, 58, 127
10, 84342, Note_on_c, 10, 58, 0
10, 84345, Note_on_c, 10, 57, 105
10, 84357, Note_on_c, 10, 57, 0
10, 84360, Note_on_c, 10, 58, 123
10, 84372, Note_on_c, 10, 58, 0
10, 84375, Note_on_c, 10, 57, 107
10, 84387, Note_on_c, 10, 57, 0
10, 84390, Note_on_c, 10, 58, 127
10, 84402, Note_on_c, 10, 58, 0
10, 84405, Note_on_c, 10, 57, 109
10, 84417, Note_on_c, 10, 57, 0
10, 84420, Note_on_c, 10, 58, 127
10, 84432, Note_on_c, 10, 58, 0
10, 84435, Note_on_c, 10, 57, 115
10, 84447, Note_on_c, 10, 57, 0
10, 84450, Note_on_c, 10, 58, 127
10, 84462, Note_on_c, 10, 58, 0
10, 84465, Note_on_c, 10, 57, 105
10, 84477, Note_on_c, 10, 57, 0
10, 84480, Note_on_c, 10, 58, 127
10, 84492, Note_on_c, 10, 58, 0
10, 84495, Note_on_c, 10, 57, 105
10, 84507, Note_on_c, 10, 57, 0
10, 84510, Note_on_c, 10, 58, 121
10, 84522, Note_on_c, 10, 58, 0
10, 84525, Note_on_c, 10, 57, 113
10, 84537, Note_on_c, 10, 57, 0
10, 84540, Note_on_c, 10, 58, 127
10, 84552, Note_on_c, 10, 58, 0
10, 84555, Note_on_c, 10, 57, 123
10, 84567, Note_on_c, 10, 57, 0
10, 84570, Note_on_c, 10, 58, 121
10, 84582, Note_on_c, 10, 58, 0
10, 84585, Note_on_c, 10, 57, 101
10, 84597, Note_on_c, 10, 57, 0
10, 84600, Note_on_c, 10, 58, 120
10, 84612, Note_on_c, 10, 58, 0
10, 84615, Note_on_c, 10, 57, 105
10, 84627, Note_on_c, 10, 57, 0
10, 84630, Note_on_c, 10, 58, 127
10, 84642, Note_on_c, 10, 58, 0
10, 84645, Note_on_c, 10, 57, 103
10, 84657, Note_on_c, 10, 57, 0
10, 84660, Note_on_c, 10, 58, 127
10, 84672, Note_on_c, 10, 58, 0
10, 84675, Note_on_c, 10, 57, 113
10, 84687, Note_on_c, 10, 57, 0
10, 84690, Note_on_c, 10, 58, 127
10, 84702, Note_on_c, 10, 58, 0
10, 84705, Note_on_c, 10, 57, 97
10, 84717, Note_on_c, 10, 57, 0
10, 84720, Note_on_c, 10, 58, 127
10, 84732, Note_on_c, 10, 58, 0
10, 84735, Note_on_c, 10, 57, 107
10, 84747, Note_on_c, 10, 57, 0
10, 84750, Note_on_c, 10, 58, 127
10, 84762, Note_on_c, 10, 58, 0
10, 84765, Note_on_c, 10, 57, 113
10, 84777, Note_on_c, 10, 57, 0
10, 84780, Note_on_c, 10, 58, 127
10, 84792, Note_on_c, 10, 58, 0
10, 84795, Note_on_c, 10, 57, 115
10, 84807, Note_on_c, 10, 57, 0
10, 84810, Note_on_c, 10, 58, 127
10, 84822, Note_on_c, 10, 58, 0
10, 84825, Note_on_c, 10, 57, 107
10, 84837, Note_on_c, 10, 57, 0
10, 84840, Note_on_c, 10, 58, 118
10, 84852, Note_on_c, 10, 58, 0
10, 84855, Note_on_c, 10, 57, 113
10, 84867, Note_on_c, 10, 57, 0
10, 84870, Note_on_c, 10, 58, 127
10, 84882, Note_on_c, 10, 58, 0
10, 84885, Note_on_c, 10, 57, 115
10, 84897, Note_on_c, 10, 57, 0
10, 84900, Note_on_c, 10, 58, 125
10, 84912, Note_on_c, 10, 58, 0
10, 84915, Note_on_c, 10, 57, 95
10, 84927, Note_on_c, 10, 57, 0
10, 84930, Note_on_c, 10, 58, 127
10, 84942, Note_on_c, 10, 58, 0
10, 84945, Note_on_c, 10, 57, 118
10, 84957, Note_on_c, 10, 57, 0
10, 84960, Note_on_c, 10, 58, 127
10, 84972, Note_on_c, 10, 58, 0
10, 84975, Note_on_c, 10, 60, 127
10, 84987, Note_on_c, 10, 60, 0
10, 84990, Note_on_c, 10, 58, 111
10, 85002, Note_on_c, 10, 58, 0
10, 85005, Note_on_c, 10, 60, 127
10, 85017, Note_on_c, 10, 60, 0
10, 85020, Note_on_c, 10, 58, 111
10, 85032, Note_on_c, 10, 58, 0
10, 85035, Note_on_c, 10, 60, 123
10, 85047, Note_on_c, 10, 60, 0
10, 85050, Note_on_c, 10, 58, 103
10, 85062, Note_on_c, 10, 58, 0
10, 85065, Note_on_c, 10, 60, 123
10, 85077, Note_on_c, 10, 60, 0
10, 85080, Note_on_c, 10, 58, 105
10, 85092, Note_on_c, 10, 58, 0
10, 85095, Note_on_c, 10, 60, 125
10, 85107, Note_on_c, 10, 60, 0
10, 85110, Note_on_c, 10, 58, 103
10, 85122, Note_on_c, 10, 58, 0
10, 85125, Note_on_c, 10, 60, 127
10, 85137, Note_on_c, 10, 60, 0
10, 85140, Note_on_c, 10, 58, 101
10, 85152, Note_on_c, 10, 58, 0
10, 85155, Note_on_c, 10, 60, 127
10, 85167, Note_on_c, 10, 60, 0
10, 85170, Note_on_c, 10, 58, 95
10, 85182, Note_on_c, 10, 58, 0
10, 85185, Note_on_c, 10, 60, 125
10, 85197, Note_on_c, 10, 60, 0
10, 85200, Note_on_c, 10, 58, 99
10, 85212, Note_on_c, 10, 58, 0
10, 85215, Note_on_c, 10, 60, 117
10, 85227, Note_on_c, 10, 60, 0
10, 85230, Note_on_c, 10, 58, 97
10, 85242, Note_on_c, 10, 58, 0
10, 85245, Note_on_c, 10, 60, 116
10, 85257, Note_on_c, 10, 60, 0
10, 85260, Note_on_c, 10, 58, 97
10, 85272, Note_on_c, 10, 58, 0
10, 85275, Note_on_c, 10, 60, 127
10, 85287, Note_on_c, 10, 60, 0
10, 85290, Note_on_c, 10, 58, 113
10, 85302, Note_on_c, 10, 58, 0
10, 85305, Note_on_c, 10, 60, 127
10, 85317, Note_on_c, 10, 60, 0
10, 85320, Note_on_c, 10, 58, 127
10, 85332, Note_on_c, 10, 58, 0
10, 85335, Note_on_c, 10, 60, 127
10, 85347, Note_on_c, 10, 60, 0
10, 85350, Note_on_c, 10, 58, 111
10, 85362, Note_on_c, 10, 58, 0
10, 85365, Note_on_c, 10, 60, 127
10, 85377, Note_on_c, 10, 60, 0
10, 85380, Note_on_c, 10, 58, 111
10, 85392, Note_on_c, 10, 58, 0
10, 85395, Note_on_c, 10, 60, 123
10, 85407, Note_on_c, 10, 60, 0
10, 85410, Note_on_c, 10, 58, 103
10, 85422, Note_on_c, 10, 58, 0
10, 85425, Note_on_c, 10, 60, 123
10, 85437, Note_on_c, 10, 60, 0
10, 85440, Note_on_c, 10, 58, 105
10, 85452, Note_on_c, 10, 58, 0
10, 85455, Note_on_c, 10, 60, 125
10, 85467, Note_on_c, 10, 60, 0
10, 85470, Note_on_c, 10, 58, 103
10, 85482, Note_on_c, 10, 58, 0
10, 85485, Note_on_c, 10, 60, 127
10, 85497, Note_on_c, 10, 60, 0
10, 85500, Note_on_c, 10, 58, 101
10, 85512, Note_on_c, 10, 58, 0
10, 85515, Note_on_c, 10, 60, 127
10, 85527, Note_on_c, 10, 60, 0
10, 85530, Note_on_c, 10, 58, 95
10, 85542, Note_on_c, 10, 58, 0
10, 85545, Note_on_c, 10, 60, 125
10, 85557, Note_on_c, 10, 60, 0
10, 85560, Note_on_c, 10, 58, 99
10, 85572, Note_on_c, 10, 58, 0
10, 85575, Note_on_c, 10, 60, 117
10, 85587, Note_on_c, 10, 60, 0
10, 85590, Note_on_c, 10, 58, 97
10, 85602, Note_on_c, 10, 58, 0
10, 85605, Note_on_c, 10, 60, 116
10, 85617, Note_on_c, 10, 60, 0
10, 85620, Note_on_c, 10, 58, 97
10, 85632, Note_on_c, 10, 58, 0
10, 85635, Note_on_c, 10, 60, 127
10, 85647, Note_on_c, 10, 60, 0
10, 85650, Note_on_c, 10, 58, 113
10, 85662, Note_on_c, 10, 58, 0
10, 85665, Note_on_c, 10, 60, 127
10, 85677, Note_on_c, 10, 60, 0
10, 85680, Note_on_c, 10, 58, 127
10, 85692, Note_on_c, 10, 58, 0
10, 85695, Note_on_c, 10, 60, 127
10, 85707, Note_on_c, 10, 60, 0
10, 85710, Note_on_c, 10, 58, 111
10, 85722, Note_on_c, 10, 58, 0
10, 85725, Note_on_c, 10, 60, 127
10, 85737, Note_on_c, 10, 60, 0
10, 85740, Note_on_c, 10, 58, 111
10, 85752, Note_on_c, 10, 58, 0
10, 85755, Note_on_c, 10, 60, 123
10, 85767, Note_on_c, 10, 60, 0
10, 85770, Note_on_c, 10, 58, 103
10, 85782, Note_on_c, 10, 58, 0
10, 85785, Note_on_c, 10, 60, 123
10, 85797, Note_on_c, 10, 60, 0
10, 85800, Note_on_c, 10, 58, 105
10, 85812, Note_on_c, 10, 58, 0
10, 85815, Note_on_c, 10, 60, 125
10, 85827, Note_on_c, 10, 60, 0
10, 85830, Note_on_c, 10, 58, 103
10, 85842, Note_on_c, 10, 58, 0
10, 85845, Note_on_c, 10, 60, 127
10, 85857, Note_on_c, 10, 60, 0
10, 85860, Note_on_c, 10, 58, 101
10, 85872, Note_on_c, 10, 58, 0
10, 85875, Note_on_c, 10, 60, 127
10, 85887, Note_on_c, 10, 60, 0
10, 85890, Note_on_c, 10, 58, 95
10, 85902, Note_on_c, 10, 58, 0
10, 85905, Note_on_c, 10, 60, 125
10, 85917, Note_on_c, 10, 60, 0
10, 85920, Note_on_c, 10, 58, 99
10, 85932, Note_on_c, 10, 58, 0
10, 85935, Note_on_c, 10, 60, 117
10, 85947, Note_on_c, 10, 60, 0
10, 85950, Note_on_c, 10, 58, 97
10, 85962, Note_on_c, 10, 58, 0
10, 85965, Note_on_c, 10, 60, 116
10, 85977, Note_on_c, 10, 60, 0
10, 85980, Note_on_c, 10, 58, 97
10, 85992, Note_on_c, 10, 58, 0
10, 85995, Note_on_c, 10, 60, 127
10, 86007, Note_on_c, 10, 60, 0
10, 86010, Note_on_c, 10, 58, 113
10, 86022, Note_on_c, 10, 58, 0
10, 86025, Note_on_c, 10, 60, 127
10, 86037, Note_on_c, 10, 60, 0
10, 86040, Note_on_c, 10, 58, 127
10, 86052, Note_on_c, 10, 58, 0
10, 86055, Note_on_c, 10, 60, 127
10, 86067, Note_on_c, 10, 60, 0
10, 86070, Note_on_c, 10, 58, 111
10, 86082, Note_on_c, 10, 58, 0
10, 86085, Note_on_c, 10, 60, 127
10, 86097, Note_on_c, 10, 60, 0
10, 86100, Note_on_c, 10, 58, 111
10, 86112, Note_on_c, 10, 58, 0
10, 86115, Note_on_c, 10, 60, 123
10, 86127, Note_on_c, 10, 60, 0
10, 86130, Note_on_c, 10, 58, 103
10, 86142, Note_on_c, 10, 58, 0
10, 86145, Note_on_c, 10, 60, 123
10, 86157, Note_on_c, 10, 60, 0
10, 86160, Note_on_c, 10, 58, 105
10, 86172, Note_on_c, 10, 58, 0
10, 86175, Note_on_c, 10, 60, 125
10, 86187, Note_on_c, 10, 60, 0
10, 86190, Note_on_c, 10, 58, 103
10, 86202, Note_on_c, 10, 58, 0
10, 86205, Note_on_c, 10, 60, 127
10, 86217, Note_on_c, 10, 60, 0
10, 86220, Note_on_c, 10, 58, 101
10, 86232, Note_on_c, 10, 58, 0
10, 86235, Note_on_c, 10, 60, 127
10, 86247, Note_on_c, 10, 60, 0
10, 86250, Note_on_c, 10, 58, 95
10, 86262, Note_on_c, 10, 58, 0
10, 86265, Note_on_c, 10, 60, 125
10, 86277, Note_on_c, 10, 60, 0
10, 86280, Note_on_c, 10, 58, 99
10, 86292, Note_on_c, 10, 58, 0
10, 86295, Note_on_c, 10, 60, 117
10, 86307, Note_on_c, 10, 60, 0
10, 86310, Note_on_c, 10, 58, 97
10, 86322, Note_on_c, 10, 58, 0
10, 86325, Note_on_c, 10, 60, 116
10, 86337, Note_on_c, 10, 60, 0
10, 86340, Note_on_c, 10, 58, 97
10, 86352, Note_on_c, 10, 58, 0
10, 86355, Note_on_c, 10, 60, 127
10, 86367, Note_on_c, 10, 60, 0
10, 86370, Note_on_c, 10, 58, 113
10, 86382, Note_on_c, 10, 58, 0
10, 86385, Note_on_c, 10, 60, 127
10, 86397, Note_on_c, 10, 60, 0
10, 86400, Note_on_c, 10, 58, 127
10, 86412, Note_on_c, 10, 58, 0
10, 86415, Note_on_c, 10, 60, 127
10, 86427, Note_on_c, 10, 60, 0
10, 86430, Note_on_c, 10, 58, 111
10, 86442, Note_on_c, 10, 58, 0
10, 86445, Note_on_c, 10, 60, 127
10, 86457, Note_on_c, 10, 60, 0
10, 86460, Note_on_c, 10, 58, 111
10, 86472, Note_on_c, 10, 58, 0
10, 86475, Note_on_c, 10, 60, 123
10, 86487, Note_on_c, 10, 60, 0
10, 86490, Note_on_c, 10, 58, 103
10, 86502, Note_on_c, 10, 58, 0
10, 86505, Note_on_c, 10, 60, 123
10, 86517, Note_on_c, 10, 60, 0
10, 86520, Note_on_c, 10, 58, 105
10, 86532, Note_on_c, 10, 58, 0
10, 86535, Note_on_c, 10, 60, 125
10, 86547, Note_on_c, 10, 60, 0
10, 86550, Note_on_c, 10, 58, 103
10, 86562, Note_on_c, 10, 58, 0
10, 86565, Note_on_c, 10, 60, 127
10, 86577, Note_on_c, 10, 60, 0
10, 86580, Note_on_c, 10, 58, 101
10, 86592, Note_on_c, 10, 58, 0
10, 86595, Note_on_c, 10, 60, 127
10, 86607, Note_on_c, 10, 60, 0
10, 86610, Note_on_c, 10, 58, 95
10, 86622, Note_on_c, 10, 58, 0
10, 86625, Note_on_c, 10, 60, 125
10, 86637, Note_on_c, 10, 60, 0
10, 86640, Note_on_c, 10, 58, 99
10, 86652, Note_on_c, 10, 58, 0
10, 86655, Note_on_c, 10, 60, 117
10, 86667, Note_on_c, 10, 60, 0
10, 86670, Note_on_c, 10, 58, 97
10, 86682, Note_on_c, 10, 58, 0
10, 86685, Note_on_c, 10, 60, 116
10, 86697, Note_on_c, 10, 60, 0
10, 86700, Note_on_c, 10, 58, 97
10, 86712, Note_on_c, 10, 58, 0
10, 86715, Note_on_c, 10, 60, 127
10, 86727, Note_on_c, 10, 60, 0
10, 86730, Note_on_c, 10, 58, 113
10, 86742, Note_on_c, 10, 58, 0
10, 86745, Note_on_c, 10, 60, 127
10, 86757, Note_on_c, 10, 60, 0
10, 86760, Note_on_c, 10, 58, 127
10, 86772, Note_on_c, 10, 58, 0
10, 86775, Note_on_c, 10, 60, 127
10, 86787, Note_on_c, 10, 60, 0
10, 86790, Note_on_c, 10, 58, 111
10, 86802, Note_on_c, 10, 58, 0
10, 86805, Note_on_c, 10, 60, 127
10, 86817, Note_on_c, 10, 60, 0
10, 86820, Note_on_c, 10, 58, 111
10, 86832, Note_on_c, 10, 58, 0
10, 86835, Note_on_c, 10, 60, 123
10, 86847, Note_on_c, 10, 60, 0
10, 86850, Note_on_c, 10, 58, 103
10, 86862, Note_on_c, 10, 58, 0
10, 86865, Note_on_c, 10, 60, 123
10, 86877, Note_on_c, 10, 60, 0
10, 86880, Note_on_c, 10, 58, 105
10, 86892, Note_on_c, 10, 58, 0
10, 86895, Note_on_c, 10, 60, 125
10, 86907, Note_on_c, 10, 60, 0
10, 86910, Note_on_c, 10, 58, 103
10, 86922, Note_on_c, 10, 58, 0
10, 86925, Note_on_c, 10, 60, 127
10, 86937, Note_on_c, 10, 60, 0
10, 86940, Note_on_c, 10, 58, 101
10, 86952, Note_on_c, 10, 58, 0
10, 86955, Note_on_c, 10, 60, 127
10, 86967, Note_on_c, 10, 60, 0
10, 86970, Note_on_c, 10, 58, 95
10, 86982, Note_on_c, 10, 58, 0
10, 86985, Note_on_c, 10, 60, 125
10, 86997, Note_on_c, 10, 60, 0
10, 87000, Note_on_c, 10, 58, 99
10, 87012, Note_on_c, 10, 58, 0
10, 87015, Note_on_c, 10, 60, 117
10, 87027, Note_on_c, 10, 60, 0
10, 87030, Note_on_c, 10, 58, 97
10, 87042, Note_on_c, 10, 58, 0
10, 87045, Note_on_c, 10, 60, 116
10, 87057, Note_on_c, 10, 60, 0
10, 87060, Note_on_c, 10, 58, 97
10, 87072, Note_on_c, 10, 58, 0
10, 87075, Note_on_c, 10, 60, 127
10, 87087, Note_on_c, 10, 60, 0
10, 87090, Note_on_c, 10, 58, 113
10, 87102, Note_on_c, 10, 58, 0
10, 87105, Note_on_c, 10, 60, 127
10, 87117, Note_on_c, 10, 60, 0
10, 87120, Note_on_c, 10, 58, 127
10, 87132, Note_on_c, 10, 58, 0
10, 87135, Note_on_c, 10, 60, 127
10, 87147, Note_on_c, 10, 60, 0
10, 87150, Note_on_c, 10, 58, 111
10, 87162, Note_on_c, 10, 58, 0
10, 87165, Note_on_c, 10, 60, 127
10, 87177, Note_on_c, 10, 60, 0
10, 87180, Note_on_c, 10, 58, 111
10, 87192, Note_on_c, 10, 58, 0
10, 87195, Note_on_c, 10, 60, 123
10, 87207, Note_on_c, 10, 60, 0
10, 87210, Note_on_c, 10, 58, 103
10, 87222, Note_on_c, 10, 58, 0
10, 87225, Note_on_c, 10, 60, 123
10, 87237, Note_on_c, 10, 60, 0
10, 87240, Note_on_c, 10, 58, 105
10, 87252, Note_on_c, 10, 58, 0
10, 87255, Note_on_c, 10, 60, 125
10, 87267, Note_on_c, 10, 60, 0
10, 87270, Note_on_c, 10, 58, 103
10, 87282, Note_on_c, 10, 58, 0
10, 87285, Note_on_c, 10, 60, 127
10, 87297, Note_on_c, 10, 60, 0
10, 87300, Note_on_c, 10, 58, 101
10, 87312, Note_on_c, 10, 58, 0
10, 87315, Note_on_c, 10, 60, 127
10, 87327, Note_on_c, 10, 60, 0
10, 87330, Note_on_c, 10, 58, 95
10, 87342, Note_on_c, 10, 58, 0
10, 87345, Note_on_c, 10, 60, 125
10, 87357, Note_on_c, 10, 60, 0
10, 87360, Note_on_c, 10, 58, 99
10, 87372, Note_on_c, 10, 58, 0
10, 87375, Note_on_c, 10, 60, 117
10, 87387, Note_on_c, 10, 60, 0
10, 87390, Note_on_c, 10, 58, 97
10, 87402, Note_on_c, 10, 58, 0
10, 87405, Note_on_c, 10, 60, 116
10, 87417, Note_on_c, 10, 60, 0
10, 87420, Note_on_c, 10, 58, 97
10, 87432, Note_on_c, 10, 58, 0
10, 87435, Note_on_c, 10, 60, 127
10, 87447, Note_on_c, 10, 60, 0
10, 87450, Note_on_c, 10, 58, 113
10, 87462, Note_on_c, 10, 58, 0
10, 87465, Note_on_c, 10, 60, 127
10, 87477, Note_on_c, 10, 60, 0
10, 87480, Note_on_c, 10, 58, 127
10, 87492, Note_on_c, 10, 58, 0
10, 87495, Note_on_c, 10, 60, 127
10, 87507, Note_on_c, 10, 60, 0
10, 87510, Note_on_c, 10, 58, 111
10, 87522, Note_on_c, 10, 58, 0
10, 87525, Note_on_c, 10, 60, 127
10, 87537, Note_on_c, 10, 60, 0
10, 87540, Note_on_c, 10, 58, 111
10, 87552, Note_on_c, 10, 58, 0
10, 87555, Note_on_c, 10, 60, 123
10, 87567, Note_on_c, 10, 60, 0
10, 87570, Note_on_c, 10, 58, 103
10, 87582, Note_on_c, 10, 58, 0
10, 87585, Note_on_c, 10, 60, 123
10, 87597, Note_on_c, 10, 60, 0
10, 87600, Note_on_c, 10, 58, 105
10, 87612, Note_on_c, 10, 58, 0
10, 87615, Note_on_c, 10, 60, 125
10, 87627, Note_on_c, 10, 60, 0
10, 87630, Note_on_c, 10, 58, 103
10, 87642, Note_on_c, 10, 58, 0
10, 87645, Note_on_c, 10, 60, 127
10, 87657, Note_on_c, 10, 60, 0
10, 87660, Note_on_c, 10, 58, 101
10, 87672, Note_on_c, 10, 58, 0
10, 87675, Note_on_c, 10, 60, 127
10, 87687, Note_on_c, 10, 60, 0
10, 87690, Note_on_c, 10, 58, 95
10, 87702, Note_on_c, 10, 58, 0
10, 87705, Note_on_c, 10, 60, 125
10, 87717, Note_on_c, 10, 60, 0
10, 87720, Note_on_c, 10, 58, 99
10, 87732, Note_on_c, 10, 58, 0
10, 87735, Note_on_c, 10, 60, 117
10, 87747, Note_on_c, 10, 60, 0
10, 87750, Note_on_c, 10, 58, 97
10, 87762, Note_on_c, 10, 58, 0
10, 87765, Note_on_c, 10, 60, 116
10, 87777, Note_on_c, 10, 60, 0
10, 87780, Note_on_c, 10, 58, 97
10, 87792, Note_on_c, 10, 58, 0
10, 87795, Note_on_c, 10, 60, 127
10, 87807, Note_on_c, 10, 60, 0
10, 87810, Note_on_c, 10, 58, 113
10, 87822, Note_on_c, 10, 58, 0
10, 87825, Note_on_c, 10, 60, 127
10, 87837, Note_on_c, 10, 60, 0
10, 87840, Note_on_c, 10, 58, 127
10, 87852, Note_on_c, 10, 58, 0
10, 87855, Note_on_c, 10, 60, 127
10, 87867, Note_on_c, 10, 60, 0
10, 87870, Note_on_c, 10, 58, 111
10, 87882, Note_on_c, 10, 58, 0
10, 87885, Note_on_c, 10, 60, 127
10, 87897, Note_on_c, 10, 60, 0
10, 87900, Note_on_c, 10, 58, 111
10, 87912, Note_on_c, 10, 58, 0
10, 87915, Note_on_c, 10, 60, 123
10, 87927, Note_on_c, 10, 60, 0
10, 87930, Note_on_c, 10, 58, 103
10, 87942, Note_on_c, 10, 58, 0
10, 87945, Note_on_c, 10, 60, 123
10, 87957, Note_on_c, 10, 60, 0
10, 87960, Note_on_c, 10, 58, 105
10, 87972, Note_on_c, 10, 58, 0
10, 87975, Note_on_c, 10, 60, 125
10, 87987, Note_on_c, 10, 60, 0
10, 87990, Note_on_c, 10, 58, 103
10, 88002, Note_on_c, 10, 58, 0
10, 88005, Note_on_c, 10, 60, 127
10, 88017, Note_on_c, 10, 60, 0
10, 88020, Note_on_c, 10, 58, 101
10, 88032, Note_on_c, 10, 58, 0
10, 88035, Note_on_c, 10, 60, 127
10, 88047, Note_on_c, 10, 60, 0
10, 88050, Note_on_c, 10, 58, 95
10, 88062, Note_on_c, 10, 58, 0
10, 88065, Note_on_c, 10, 60, 125
10, 88077, Note_on_c, 10, 60, 0
10, 88080, Note_on_c, 10, 58, 99
10, 88092, Note_on_c, 10, 58, 0
10, 88095, Note_on_c, 10, 60, 117
10, 88107, Note_on_c, 10, 60, 0
10, 88110, Note_on_c, 10, 58, 97
10, 88122, Note_on_c, 10, 58, 0
10, 88125, Note_on_c, 10, 60, 116
10, 88137, Note_on_c, 10, 60, 0
10, 88140, Note_on_c, 10, 58, 97
10, 88152, Note_on_c, 10, 58, 0
10, 88155, Note_on_c, 10, 60, 127
10, 88167, Note_on_c, 10, 60, 0
10, 88170, Note_on_c, 10, 58, 113
10, 88182, Note_on_c, 10, 58, 0
10, 88185, Note_on_c, 10, 60, 127
10, 88197, Note_on_c, 10, 60, 0
10, 88200, Note_on_c, 10, 58, 118
10, 88248, Note_on_c, 10, 58, 0
10, 88260, Note_on_c, 10, 56, 115
10, 88284, Note_on_c, 10, 56, 0
10, 88290, Note_on_c, 10, 55, 127
10, 88314, Note_on_c, 10, 55, 0
10, 88320, Note_on_c, 10, 53, 125
10, 88344, Note_on_c, 10, 53, 0
10, 88350, Note_on_c, 10, 51, 101
10, 88374, Note_on_c, 10, 51, 0
10, 88380, Note_on_c, 10, 50, 127
10, 88404, Note_on_c, 10, 50, 0
10, 88410, Note_on_c, 10, 48, 116
10, 88434, Note_on_c, 10, 48, 0
10, 88440, Note_on_c, 10, 46, 118
10, 88464, Note_on_c, 10, 46, 0
10, 88470, Note_on_c, 10, 44, 118
10, 88494, Note_on_c, 10, 44, 0
10, 88500, Note_on_c, 10, 43, 127
10, 88524, Note_on_c, 10, 43, 0
10, 88530, Note_on_c, 10, 41, 127
10, 88554, Note_on_c, 10, 41, 0
10, 88560, Note_on_c, 10, 39, 127
10, 88608, Note_on_c, 10, 39, 0
10, 88620, Note_on_c, 10, 58, 126
10, 88668, Note_on_c, 10, 58, 0
10, 88680, Note_on_c, 10, 51, 113
10, 88680, Note_on_c, 10, 55, 127
10, 88680, Note_on_c, 10, 46, 126
10, 88728, Note_on_c, 10, 46, 0
10, 88728, Note_on_c, 10, 55, 0
10, 88728, Note_on_c, 10, 51, 0
10, 88740, Note_on_c, 10, 39, 127
10, 88788, Note_on_c, 10, 39, 0
10, 88800, Note_on_c, 10, 58, 115
10, 88848, Note_on_c, 10, 58, 0
10, 88860, Note_on_c, 10, 51, 101
10, 88860, Note_on_c, 10, 55, 127
10, 88860, Note_on_c, 10, 46, 127
10, 88908, Note_on_c, 10, 46, 0
10, 88908, Note_on_c, 10, 55, 0
10, 88908, Note_on_c, 10, 51, 0
10, 88920, Note_on_c, 10, 39, 102
10, 88968, Note_on_c, 10, 39, 0
10, 88980, Note_on_c, 10, 58, 94
10, 89028, Note_on_c, 10, 58, 0
10, 89040, Note_on_c, 10, 51, 92
10, 89040, Note_on_c, 10, 55, 102
10, 89040, Note_on_c, 10, 46, 101
10, 89088, Note_on_c, 10, 46, 0
10, 89088, Note_on_c, 10, 55, 0
10, 89088, Note_on_c, 10, 51, 0
10, 89100, Note_on_c, 10, 39, 102
10, 89148, Note_on_c, 10, 39, 0
10, 89160, Note_on_c, 10, 58, 94
10, 89208, Note_on_c, 10, 58, 0
10, 89220, Note_on_c, 10, 51, 77
10, 89220, Note_on_c, 10, 55, 102
10, 89220, Note_on_c, 10, 46, 82
10, 89268, Note_on_c, 10, 46, 0
10, 89268, Note_on_c, 10, 55, 0
10, 89268, Note_on_c, 10, 51, 0
10, 89280, Note_on_c, 10, 34, 64
10, 89328, Note_on_c, 10, 34, 0
10, 89340, Note_on_c, 10, 58, 74
10, 89388, Note_on_c, 10, 58, 0
10, 89400, Note_on_c, 10, 46, 75
10, 89400, Note_on_c, 10, 53, 77
10, 89400, Note_on_c, 10, 50, 73
10, 89448, Note_on_c, 10, 50, 0
10, 89448, Note_on_c, 10, 53, 0
10, 89448, Note_on_c, 10, 46, 0
10, 89460, Note_on_c, 10, 39, 75
10, 89508, Note_on_c, 10, 39, 0
10, 89520, Note_on_c, 10, 58, 70
10, 89568, Note_on_c, 10, 58, 0
10, 89580, Note_on_c, 10, 55, 77
10, 89580, Note_on_c, 10, 51, 67
10, 89580, Note_on_c, 10, 46, 75
10, 89628, Note_on_c, 10, 46, 0
10, 89628, Note_on_c, 10, 51, 0
10, 89628, Note_on_c, 10, 55, 0
10, 89640, Note_on_c, 10, 34, 76
10, 89688, Note_on_c, 10, 34, 0
10, 89700, Note_on_c, 10, 58, 76
10, 89748, Note_on_c, 10, 58, 0
10, 89760, Note_on_c, 10, 50, 77
10, 89760, Note_on_c, 10, 53, 77
10, 89760, Note_on_c, 10, 46, 76
10, 89808, Note_on_c, 10, 46, 0
10, 89808, Note_on_c, 10, 53, 0
10, 89808, Note_on_c, 10, 50, 0
10, 89820, Note_on_c, 10, 34, 77
10, 89868, Note_on_c, 10, 34, 0
10, 89880, Note_on_c, 10, 58, 69
10, 89928, Note_on_c, 10, 58, 0
10, 89940, Note_on_c, 10, 53, 77
10, 89940, Note_on_c, 10, 50, 74
10, 89940, Note_on_c, 10, 46, 62
10, 89988, Note_on_c, 10, 46, 0
10, 89988, Note_on_c, 10, 50, 0
10, 89988, Note_on_c, 10, 53, 0
10, 90000, Note_on_c, 10, 39, 126
10, 90048, Note_on_c, 10, 39, 0
10, 90060, Note_on_c, 10, 58, 121
10, 90108, Note_on_c, 10, 58, 0
10, 90120, Note_on_c, 10, 51, 111
10, 90120, Note_on_c, 10, 55, 127
10, 90120, Note_on_c, 10, 46, 113
10, 90168, Note_on_c, 10, 46, 0
10, 90168, Note_on_c, 10, 55, 0
10, 90168, Note_on_c, 10, 51, 0
10, 90180, Note_on_c, 10, 39, 127
10, 90228, Note_on_c, 10, 39, 0
10, 90240, Note_on_c, 10, 58, 107
10, 90288, Note_on_c, 10, 58, 0
10, 90300, Note_on_c, 10, 51, 111
10, 90300, Note_on_c, 10, 46, 109
10, 90300, Note_on_c, 10, 55, 127
10, 90348, Note_on_c, 10, 55, 0
10, 90348, Note_on_c, 10, 46, 0
10, 90348, Note_on_c, 10, 51, 0
10, 90360, Note_on_c, 10, 39, 102
10, 90408, Note_on_c, 10, 39, 0
10, 90420, Note_on_c, 10, 58, 101
10, 90468, Note_on_c, 10, 58, 0
10, 90480, Note_on_c, 10, 51, 102
10, 90480, Note_on_c, 10, 55, 102
10, 90480, Note_on_c, 10, 46, 74
10, 90528, Note_on_c, 10, 46, 0
10, 90528, Note_on_c, 10, 55, 0
10, 90528, Note_on_c, 10, 51, 0
10, 90540, Note_on_c, 10, 39, 102
10, 90588, Note_on_c, 10, 39, 0
10, 90600, Note_on_c, 10, 58, 94
10, 90648, Note_on_c, 10, 58, 0
10, 90660, Note_on_c, 10, 51, 89
10, 90660, Note_on_c, 10, 55, 102
10, 90660, Note_on_c, 10, 46, 97
10, 90708, Note_on_c, 10, 46, 0
10, 90708, Note_on_c, 10, 55, 0
10, 90708, Note_on_c, 10, 51, 0
10, 90720, Note_on_c, 10, 34, 92
10, 90768, Note_on_c, 10, 34, 0
10, 90780, Note_on_c, 10, 58, 88
10, 90828, Note_on_c, 10, 58, 0
10, 90840, Note_on_c, 10, 50, 90
10, 90840, Note_on_c, 10, 53, 92
10, 90840, Note_on_c, 10, 46, 87
10, 90888, Note_on_c, 10, 46, 0
10, 90888, Note_on_c, 10, 53, 0
10, 90888, Note_on_c, 10, 50, 0
10, 90900, Note_on_c, 10, 39, 92
10, 90948, Note_on_c, 10, 39, 0
10, 90960, Note_on_c, 10, 58, 80
10, 91008, Note_on_c, 10, 58, 0
10, 91020, Note_on_c, 10, 55, 92
10, 91020, Note_on_c, 10, 51, 76
10, 91020, Note_on_c, 10, 46, 88
10, 91068, Note_on_c, 10, 46, 0
10, 91068, Note_on_c, 10, 51, 0
10, 91068, Note_on_c, 10, 55, 0
10, 91080, Note_on_c, 10, 46, 88
10, 91128, Note_on_c, 10, 46, 0
10, 91140, Note_on_c, 10, 58, 87
10, 91188, Note_on_c, 10, 58, 0
10, 91200, Note_on_c, 10, 50, 84
10, 91200, Note_on_c, 10, 53, 92
10, 91248, Note_on_c, 10, 53, 0
10, 91248, Note_on_c, 10, 50, 0
10, 91260, Note_on_c, 10, 46, 87
10, 91308, Note_on_c, 10, 46, 0
10, 91320, Note_on_c, 10, 62, 92
10, 91320, Note_on_c, 10, 65, 92
10, 91368, Note_on_c, 10, 65, 0
10, 91368, Note_on_c, 10, 62, 0
10, 91380, Note_on_c, 10, 61, 69
10, 91380, Note_on_c, 10, 64, 92
10, 91428, Note_on_c, 10, 64, 0
10, 91428, Note_on_c, 10, 61, 0
10, 91440, Note_on_c, 10, 46, 126
10, 91488, Note_on_c, 10, 46, 0
10, 91500, Note_on_c, 10, 63, 123
10, 91500, Note_on_c, 10, 60, 127
10, 91548, Note_on_c, 10, 60, 0
10, 91548, Note_on_c, 10, 63, 0
10, 91560, Note_on_c, 10, 62, 127
10, 91560, Note_on_c, 10, 59, 123
10, 91608, Note_on_c, 10, 59, 0
10, 91608, Note_on_c, 10, 62, 0
10, 91620, Note_on_c, 10, 46, 121
10, 91668, Note_on_c, 10, 46, 0
10, 91680, Note_on_c, 10, 61, 123
10, 91680, Note_on_c, 10, 58, 123
10, 91728, Note_on_c, 10, 58, 0
10, 91728, Note_on_c, 10, 61, 0
10, 91740, Note_on_c, 10, 60, 127
10, 91740, Note_on_c, 10, 57, 125
10, 91788, Note_on_c, 10, 57, 0
10, 91788, Note_on_c, 10, 60, 0
10, 91800, Note_on_c, 10, 46, 113
10, 91848, Note_on_c, 10, 46, 0
10, 91860, Note_on_c, 10, 56, 94
10, 91860, Note_on_c, 10, 59, 127
10, 91908, Note_on_c, 10, 59, 0
10, 91908, Note_on_c, 10, 56, 0
10, 91920, Note_on_c, 10, 58, 123
10, 91920, Note_on_c, 10, 55, 127
10, 91968, Note_on_c, 10, 55, 0
10, 91968, Note_on_c, 10, 58, 0
10, 91980, Note_on_c, 10, 46, 115
10, 92028, Note_on_c, 10, 46, 0
10, 92040, Note_on_c, 10, 54, 90
10, 92040, Note_on_c, 10, 57, 127
10, 92088, Note_on_c, 10, 57, 0
10, 92088, Note_on_c, 10, 54, 0
10, 92100, Note_on_c, 10, 56, 118
10, 92100, Note_on_c, 10, 53, 127
10, 92148, Note_on_c, 10, 53, 0
10, 92148, Note_on_c, 10, 56, 0
10, 92160, Note_on_c, 10, 34, 121
10, 92208, Note_on_c, 10, 34, 0
10, 92220, Note_on_c, 10, 58, 107
10, 92268, Note_on_c, 10, 58, 0
10, 92280, Note_on_c, 10, 46, 115
10, 92280, Note_on_c, 10, 50, 114
10, 92280, Note_on_c, 10, 53, 127
10, 92328, Note_on_c, 10, 53, 0
10, 92328, Note_on_c, 10, 50, 0
10, 92328, Note_on_c, 10, 46, 0
10, 92340, Note_on_c, 10, 34, 121
10, 92388, Note_on_c, 10, 34, 0
10, 92400, Note_on_c, 10, 58, 121
10, 92448, Note_on_c, 10, 58, 0
10, 92460, Note_on_c, 10, 46, 123
10, 92460, Note_on_c, 10, 53, 127
10, 92460, Note_on_c, 10, 50, 123
10, 92508, Note_on_c, 10, 50, 0
10, 92508, Note_on_c, 10, 53, 0
10, 92508, Note_on_c, 10, 46, 0
10, 92520, Note_on_c, 10, 39, 127
10, 92568, Note_on_c, 10, 39, 0
10, 92580, Note_on_c, 10, 58, 123
10, 92628, Note_on_c, 10, 58, 0
10, 92640, Note_on_c, 10, 46, 109
10, 92640, Note_on_c, 10, 51, 109
10, 92640, Note_on_c, 10, 55, 127
10, 92688, Note_on_c, 10, 55, 0
10, 92688, Note_on_c, 10, 51, 0
10, 92688, Note_on_c, 10, 46, 0
10, 92700, Note_on_c, 10, 39, 127
10, 92812, Note_on_c, 10, 39, 0
10, 92820, Note_on_c, 10, 65, 127
10, 92820, Note_on_c, 10, 62, 127
10, 92868, Note_on_c, 10, 62, 0
10, 92868, Note_on_c, 10, 65, 0
10, 92880, Note_on_c, 10, 64, 109
10, 92880, Note_on_c, 10, 61, 103
10, 92928, Note_on_c, 10, 61, 0
10, 92928, Note_on_c, 10, 64, 0
10, 92940, Note_on_c, 10, 61, 109
10, 92940, Note_on_c, 10, 64, 127
10, 92988, Note_on_c, 10, 64, 0
10, 92988, Note_on_c, 10, 61, 0
10, 93000, Note_on_c, 10, 63, 94
10, 93000, Note_on_c, 10, 60, 101
10, 93048, Note_on_c, 10, 60, 0
10, 93048, Note_on_c, 10, 63, 0
10, 93060, Note_on_c, 10, 62, 117
10, 93060, Note_on_c, 10, 59, 109
10, 93108, Note_on_c, 10, 59, 0
10, 93108, Note_on_c, 10, 62, 0
10, 93120, Note_on_c, 10, 62, 113
10, 93120, Note_on_c, 10, 59, 109
10, 93168, Note_on_c, 10, 59, 0
10, 93168, Note_on_c, 10, 62, 0
10, 93180, Note_on_c, 10, 58, 96
10, 93180, Note_on_c, 10, 61, 94
10, 93228, Note_on_c, 10, 61, 0
10, 93228, Note_on_c, 10, 58, 0
10, 93240, Note_on_c, 10, 60, 117
10, 93240, Note_on_c, 10, 57, 110
10, 93288, Note_on_c, 10, 57, 0
10, 93288, Note_on_c, 10, 60, 0
10, 93300, Note_on_c, 10, 60, 113
10, 93300, Note_on_c, 10, 57, 112
10, 93348, Note_on_c, 10, 57, 0
10, 93348, Note_on_c, 10, 60, 0
10, 93360, Note_on_c, 10, 56, 107
10, 93360, Note_on_c, 10, 59, 112
10, 93408, Note_on_c, 10, 59, 0
10, 93408, Note_on_c, 10, 56, 0
10, 93420, Note_on_c, 10, 55, 109
10, 93420, Note_on_c, 10, 58, 115
10, 93468, Note_on_c, 10, 58, 0
10, 93468, Note_on_c, 10, 55, 0
10, 93480, Note_on_c, 10, 58, 109
10, 93480, Note_on_c, 10, 55, 116
10, 93528, Note_on_c, 10, 55, 0
10, 93528, Note_on_c, 10, 58, 0
10, 103500, Note_on_c, 10, 51, 115
10, 103516, Note_on_c, 10, 51, 0
10, 103520, Note_on_c, 10, 50, 123
10, 103536, Note_on_c, 10, 50, 0
10, 103540, Note_on_c, 10, 48, 114
10, 103556, Note_on_c, 10, 48, 0
10, 103560, Note_on_c, 10, 46, 123
10, 103576, Note_on_c, 10, 46, 0
10, 103580, Note_on_c, 10, 48, 120
10, 103596, Note_on_c, 10, 48, 0
10, 103600, Note_on_c, 10, 50, 127
10, 103616, Note_on_c, 10, 50, 0
10, 103620, Note_on_c, 10, 51, 123
10, 103644, Note_on_c, 10, 51, 0
10, 103650, Note_on_c, 10, 53, 127
10, 103674, Note_on_c, 10, 53, 0
10, 103680, Note_on_c, 10, 55, 127
10, 103696, Note_on_c, 10, 55, 0
10, 103700, Note_on_c, 10, 53, 127
10, 103716, Note_on_c, 10, 53, 0
10, 103720, Note_on_c, 10, 51, 96
10, 103736, Note_on_c, 10, 51, 0
10, 103740, Note_on_c, 10, 50, 120
10, 103756, Note_on_c, 10, 50, 0
10, 103760, Note_on_c, 10, 51, 115
10, 103776, Note_on_c, 10, 51, 0
10, 103780, Note_on_c, 10, 53, 110
10, 103796, Note_on_c, 10, 53, 0
10, 103800, Note_on_c, 10, 55, 127
10, 103824, Note_on_c, 10, 55, 0
10, 103830, Note_on_c, 10, 56, 111
10, 103854, Note_on_c, 10, 56, 0
10, 103860, Note_on_c, 10, 58, 109
10, 103876, Note_on_c, 10, 58, 0
10, 103880, Note_on_c, 10, 56, 115
10, 103896, Note_on_c, 10, 56, 0
10, 103900, Note_on_c, 10, 55, 114
10, 103916, Note_on_c, 10, 55, 0
10, 103920, Note_on_c, 10, 56, 123
10, 103944, Note_on_c, 10, 56, 0
10, 103950, Note_on_c, 10, 58, 123
10, 103974, Note_on_c, 10, 58, 0
10, 103980, Note_on_c, 10, 60, 123
10, 104004, Note_on_c, 10, 60, 0
10, 104010, Note_on_c, 10, 62, 127
10, 104034, Note_on_c, 10, 62, 0
10, 104040, Note_on_c, 10, 63, 85
10, 104136, Note_on_c, 10, 63, 0
10, 104220, Note_on_c, 10, 63, 115
10, 104236, Note_on_c, 10, 63, 0
10, 104240, Note_on_c, 10, 62, 125
10, 104256, Note_on_c, 10, 62, 0
10, 104260, Note_on_c, 10, 60, 116
10, 104276, Note_on_c, 10, 60, 0
10, 104280, Note_on_c, 10, 58, 91
10, 104296, Note_on_c, 10, 58, 0
10, 104300, Note_on_c, 10, 60, 104
10, 104316, Note_on_c, 10, 60, 0
10, 104320, Note_on_c, 10, 62, 127
10, 104336, Note_on_c, 10, 62, 0
10, 104340, Note_on_c, 10, 63, 115
10, 104364, Note_on_c, 10, 63, 0
10, 104370, Note_on_c, 10, 65, 117
10, 104394, Note_on_c, 10, 65, 0
10, 104400, Note_on_c, 10, 67, 127
10, 104416, Note_on_c, 10, 67, 0
10, 104420, Note_on_c, 10, 65, 114
10, 104436, Note_on_c, 10, 65, 0
10, 104440, Note_on_c, 10, 63, 84
10, 104456, Note_on_c, 10, 63, 0
10, 104460, Note_on_c, 10, 62, 114
10, 104476, Note_on_c, 10, 62, 0
10, 104480, Note_on_c, 10, 63, 121
10, 104496, Note_on_c, 10, 63, 0
10, 104500, Note_on_c, 10, 65, 127
10, 104516, Note_on_c, 10, 65, 0
10, 104520, Note_on_c, 10, 67, 127
10, 104544, Note_on_c, 10, 67, 0
10, 104550, Note_on_c, 10, 68, 111
10, 104574, Note_on_c, 10, 68, 0
10, 104580, Note_on_c, 10, 70, 115
10, 104596, Note_on_c, 10, 70, 0
10, 104600, Note_on_c, 10, 68, 84
10, 104616, Note_on_c, 10, 68, 0
10, 104620, Note_on_c, 10, 67, 117
10, 104636, Note_on_c, 10, 67, 0
10, 104640, Note_on_c, 10, 68, 121
10, 104664, Note_on_c, 10, 68, 0
10, 104670, Note_on_c, 10, 70, 121
10, 104694, Note_on_c, 10, 70, 0
10, 104700, Note_on_c, 10, 72, 127
10, 104724, Note_on_c, 10, 72, 0
10, 104730, Note_on_c, 10, 74, 127
10, 104754, Note_on_c, 10, 74, 0
10, 104760, Note_on_c, 10, 75, 118
10, 104776, Note_on_c, 10, 75, 0
10, 104780, Note_on_c, 10, 74, 109
10, 104796, Note_on_c, 10, 74, 0
10, 104800, Note_on_c, 10, 72, 111
10, 104816, Note_on_c, 10, 72, 0
10, 104820, Note_on_c, 10, 70, 83
10, 104836, Note_on_c, 10, 70, 0
10, 104840, Note_on_c, 10, 72, 100
10, 104856, Note_on_c, 10, 72, 0
10, 104860, Note_on_c, 10, 74, 113
10, 104876, Note_on_c, 10, 74, 0
10, 104880, Note_on_c, 10, 75, 109
10, 104904, Note_on_c, 10, 75, 0
10, 104910, Note_on_c, 10, 77, 109
10, 104934, Note_on_c, 10, 77, 0
10, 104940, Note_on_c, 10, 79, 127
10, 104956, Note_on_c, 10, 79, 0
10, 104960, Note_on_c, 10, 77, 114
10, 104976, Note_on_c, 10, 77, 0
10, 104980, Note_on_c, 10, 75, 96
10, 104996, Note_on_c, 10, 75, 0
10, 105000, Note_on_c, 10, 74, 109
10, 105016, Note_on_c, 10, 74, 0
10, 105020, Note_on_c, 10, 75, 109
10, 105036, Note_on_c, 10, 75, 0
10, 105040, Note_on_c, 10, 77, 117
10, 105056, Note_on_c, 10, 77, 0
10, 105060, Note_on_c, 10, 79, 127
10, 105084, Note_on_c, 10, 79, 0
10, 105090, Note_on_c, 10, 80, 107
10, 105114, Note_on_c, 10, 80, 0
10, 105120, Note_on_c, 10, 82, 101
10, 105144, Note_on_c, 10, 82, 0
10, 105150, Note_on_c, 10, 80, 115
10, 105174, Note_on_c, 10, 80, 0
10, 105180, Note_on_c, 10, 79, 107
10, 105204, Note_on_c, 10, 79, 0
10, 105210, Note_on_c, 10, 84, 121
10, 105234, Note_on_c, 10, 84, 0
10, 105240, Note_on_c, 10, 82, 115
10, 105264, Note_on_c, 10, 82, 0
10, 105270, Note_on_c, 10, 80, 109
10, 105294, Note_on_c, 10, 80, 0
10, 105300, Note_on_c, 10, 79, 116
10, 105324, Note_on_c, 10, 79, 0
10, 105330, Note_on_c, 10, 77, 121
10, 105354, Note_on_c, 10, 77, 0
10, 105360, Note_on_c, 10, 75, 103
10, 105384, Note_on_c, 10, 75, 0
10, 105390, Note_on_c, 10, 74, 116
10, 105414, Note_on_c, 10, 74, 0
10, 105420, Note_on_c, 10, 72, 103
10, 105444, Note_on_c, 10, 72, 0
10, 105450, Note_on_c, 10, 71, 127
10, 105474, Note_on_c, 10, 71, 0
10, 105480, Note_on_c, 10, 70, 111
10, 105504, Note_on_c, 10, 70, 0
10, 105510, Note_on_c, 10, 68, 107
10, 105534, Note_on_c, 10, 68, 0
10, 105540, Note_on_c, 10, 67, 120
10, 105564, Note_on_c, 10, 67, 0
10, 105570, Note_on_c, 10, 72, 127
10, 105594, Note_on_c, 10, 72, 0
10, 105600, Note_on_c, 10, 70, 101
10, 105624, Note_on_c, 10, 70, 0
10, 105630, Note_on_c, 10, 68, 93
10, 105654, Note_on_c, 10, 68, 0
10, 105660, Note_on_c, 10, 67, 114
10, 105684, Note_on_c, 10, 67, 0
10, 105690, Note_on_c, 10, 65, 127
10, 105714, Note_on_c, 10, 65, 0
10, 105720, Note_on_c, 10, 63, 100
10, 105744, Note_on_c, 10, 63, 0
10, 105750, Note_on_c, 10, 62, 107
10, 105774, Note_on_c, 10, 62, 0
10, 105780, Note_on_c, 10, 60, 127
10, 105804, Note_on_c, 10, 60, 0
10, 105810, Note_on_c, 10, 59, 116
10, 105834, Note_on_c, 10, 59, 0
10, 105840, Note_on_c, 10, 55, 112
10, 105840, Note_on_c, 10, 51, 89
10, 105888, Note_on_c, 10, 55, 0
10, 105900, Note_on_c, 10, 58, 107
10, 105948, Note_on_c, 10, 58, 0
10, 105960, Note_on_c, 10, 63, 107
10, 106008, Note_on_c, 10, 63, 0
10, 106020, Note_on_c, 10, 55, 117
10, 106068, Note_on_c, 10, 55, 0
10, 106080, Note_on_c, 10, 58, 115
10, 106128, Note_on_c, 10, 58, 0
10, 106128, Note_on_c, 10, 51, 0
10, 106140, Note_on_c, 10, 63, 103
10, 106188, Note_on_c, 10, 63, 0
10, 106200, Note_on_c, 10, 56, 92
10, 106200, Note_on_c, 10, 51, 107
10, 106248, Note_on_c, 10, 56, 0
10, 106260, Note_on_c, 10, 60, 127
10, 106308, Note_on_c, 10, 60, 0
10, 106320, Note_on_c, 10, 63, 109
10, 106368, Note_on_c, 10, 63, 0
10, 106380, Note_on_c, 10, 56, 103
10, 106428, Note_on_c, 10, 56, 0
10, 106440, Note_on_c, 10, 59, 121
10, 106488, Note_on_c, 10, 59, 0
10, 106488, Note_on_c, 10, 51, 0
10, 106500, Note_on_c, 10, 63, 118
10, 106548, Note_on_c, 10, 63, 0
10, 106560, Note_on_c, 10, 56, 97
10, 106560, Note_on_c, 10, 53, 120
10, 106560, Note_on_c, 10, 51, 82
10, 106608, Note_on_c, 10, 56, 0
10, 106620, Note_on_c, 10, 58, 113
10, 106668, Note_on_c, 10, 58, 0
10, 106680, Note_on_c, 10, 62, 127
10, 106728, Note_on_c, 10, 62, 0
10, 106740, Note_on_c, 10, 56, 105
10, 106788, Note_on_c, 10, 56, 0
10, 106800, Note_on_c, 10, 58, 118
10, 106848, Note_on_c, 10, 58, 0
10, 106848, Note_on_c, 10, 51, 0
10, 106848, Note_on_c, 10, 53, 0
10, 106860, Note_on_c, 10, 62, 127
10, 106908, Note_on_c, 10, 62, 0
10, 106920, Note_on_c, 10, 55, 121
10, 106920, Note_on_c, 10, 51, 111
10, 106968, Note_on_c, 10, 55, 0
10, 106980, Note_on_c, 10, 58, 99
10, 107028, Note_on_c, 10, 58, 0
10, 107040, Note_on_c, 10, 63, 96
10, 107088, Note_on_c, 10, 63, 0
10, 107100, Note_on_c, 10, 55, 107
10, 107148, Note_on_c, 10, 55, 0
10, 107160, Note_on_c, 10, 58, 99
10, 107208, Note_on_c, 10, 58, 0
10, 107208, Note_on_c, 10, 51, 0
10, 107220, Note_on_c, 10, 63, 109
10, 107268, Note_on_c, 10, 63, 0
10, 107280, Note_on_c, 10, 53, 118
10, 107280, Note_on_c, 10, 50, 125
10, 107328, Note_on_c, 10, 53, 0
10, 107340, Note_on_c, 10, 58, 88
10, 107388, Note_on_c, 10, 58, 0
10, 107400, Note_on_c, 10, 62, 102
10, 107424, Note_on_c, 10, 50, 0
10, 107448, Note_on_c, 10, 62, 0
10, 107460, Note_on_c, 10, 55, 114
10, 107460, Note_on_c, 10, 52, 111
10, 107508, Note_on_c, 10, 55, 0
10, 107520, Note_on_c, 10, 58, 113
10, 107568, Note_on_c, 10, 58, 0
10, 107580, Note_on_c, 10, 64, 109
10, 107604, Note_on_c, 10, 52, 0
10, 107628, Note_on_c, 10, 64, 0
10, 107640, Note_on_c, 10, 56, 99
10, 107640, Note_on_c, 10, 53, 123
10, 107688, Note_on_c, 10, 56, 0
10, 107700, Note_on_c, 10, 58, 50
10, 107748, Note_on_c, 10, 58, 0
10, 107760, Note_on_c, 10, 65, 127
10, 107808, Note_on_c, 10, 65, 0
10, 107820, Note_on_c, 10, 56, 88
10, 107868, Note_on_c, 10, 56, 0
10, 107880, Note_on_c, 10, 58, 115
10, 107928, Note_on_c, 10, 58, 0
10, 107928, Note_on_c, 10, 53, 0
10, 107940, Note_on_c, 10, 65, 127
10, 107988, Note_on_c, 10, 65, 0
10, 108000, Note_on_c, 10, 56, 105
10, 108000, Note_on_c, 10, 53, 127
10, 108048, Note_on_c, 10, 56, 0
10, 108060, Note_on_c, 10, 58, 107
10, 108108, Note_on_c, 10, 58, 0
10, 108120, Note_on_c, 10, 65, 123
10, 108144, Note_on_c, 10, 53, 0
10, 108168, Note_on_c, 10, 65, 0
10, 108180, Note_on_c, 10, 58, 100
10, 108180, Note_on_c, 10, 55, 116
10, 108228, Note_on_c, 10, 58, 0
10, 108240, Note_on_c, 10, 63, 111
10, 108288, Note_on_c, 10, 63, 0
10, 108300, Note_on_c, 10, 67, 127
10, 108324, Note_on_c, 10, 55, 0
10, 108348, Note_on_c, 10, 67, 0
10, 108360, Note_on_c, 10, 60, 127
10, 108360, Note_on_c, 10, 60, 109
10, 108408, Note_on_c, 10, 60, 0
10, 108420, Note_on_c, 10, 63, 123
10, 108468, Note_on_c, 10, 63, 0
10, 108480, Note_on_c, 10, 68, 107
10, 108528, Note_on_c, 10, 68, 0
10, 108540, Note_on_c, 10, 60, 109
10, 108588, Note_on_c, 10, 60, 0
10, 108600, Note_on_c, 10, 63, 121
10, 108648, Note_on_c, 10, 63, 0
10, 108648, Note_on_c, 10, 60, 0
10, 108660, Note_on_c, 10, 68, 76
10, 108708, Note_on_c, 10, 68, 0
10, 108720, Note_on_c, 10, 60, 114
10, 108768, Note_on_c, 10, 60, 0
10, 108780, Note_on_c, 10, 65, 127
10, 108828, Note_on_c, 10, 65, 0
10, 108840, Note_on_c, 10, 69, 127
10, 108888, Note_on_c, 10, 69, 0
10, 108900, Note_on_c, 10, 62, 125
10, 108948, Note_on_c, 10, 62, 0
10, 108960, Note_on_c, 10, 65, 127
10, 109008, Note_on_c, 10, 65, 0
10, 109020, Note_on_c, 10, 70, 121
10, 109068, Note_on_c, 10, 70, 0
10, 109080, Note_on_c, 10, 63, 113
10, 109128, Note_on_c, 10, 63, 0
10, 109140, Note_on_c, 10, 65, 127
10, 109188, Note_on_c, 10, 65, 0
10, 109200, Note_on_c, 10, 69, 127
10, 109248, Note_on_c, 10, 69, 0
10, 109260, Note_on_c, 10, 63, 107
10, 109308, Note_on_c, 10, 63, 0
10, 109320, Note_on_c, 10, 65, 121
10, 109368, Note_on_c, 10, 65, 0
10, 109380, Note_on_c, 10, 69, 125
10, 109428, Note_on_c, 10, 69, 0
10, 109440, Note_on_c, 10, 65, 123
10, 109488, Note_on_c, 10, 65, 0
10, 109500, Note_on_c, 10, 70, 113
10, 109548, Note_on_c, 10, 70, 0
10, 109560, Note_on_c, 10, 74, 118
10, 109608, Note_on_c, 10, 74, 0
10, 109620, Note_on_c, 10, 67, 118
10, 109668, Note_on_c, 10, 67, 0
10, 109680, Note_on_c, 10, 70, 115
10, 109728, Note_on_c, 10, 70, 0
10, 109740, Note_on_c, 10, 76, 127
10, 109788, Note_on_c, 10, 76, 0
10, 109800, Note_on_c, 10, 65, 121
10, 109830, Note_on_c, 10, 68, 105
10, 109860, Note_on_c, 10, 70, 100
10, 109890, Note_on_c, 10, 74, 120
10, 109914, Note_on_c, 10, 74, 0
10, 109914, Note_on_c, 10, 65, 0
10, 109914, Note_on_c, 10, 68, 0
10, 109914, Note_on_c, 10, 70, 0
10, 109920, Note_on_c, 10, 77, 127
10, 109920, Note_on_c, 10, 70, 123
10, 109920, Note_on_c, 10, 68, 95
10, 109920, Note_on_c, 10, 74, 127
10, 109944, Note_on_c, 10, 74, 0
10, 109944, Note_on_c, 10, 77, 0
10, 109944, Note_on_c, 10, 70, 0
10, 109944, Note_on_c, 10, 68, 0
10, 110520, Note_on_c, 10, 55, 127
10, 110550, Note_on_c, 10, 58, 118
10, 110580, Note_on_c, 10, 60, 127
10, 110610, Note_on_c, 10, 63, 111
10, 110634, Note_on_c, 10, 63, 0
10, 110634, Note_on_c, 10, 55, 0
10, 110634, Note_on_c, 10, 58, 0
10, 110634, Note_on_c, 10, 60, 0
10, 110640, Note_on_c, 10, 63, 109
10, 110640, Note_on_c, 10, 60, 114
10, 110640, Note_on_c, 10, 67, 127
10, 110640, Note_on_c, 10, 58, 95
10, 110664, Note_on_c, 10, 58, 0
10, 110664, Note_on_c, 10, 63, 0
10, 110664, Note_on_c, 10, 60, 0
10, 110664, Note_on_c, 10, 67, 0
10, 112320, Control_c, 10, 7, 100
10, 112500, Note_on_c, 10, 68, 126
10, 112548, Note_on_c, 10, 68, 0
10, 112560, Note_on_c, 10, 67, 121
10, 112608, Note_on_c, 10, 67, 0
10, 112620, Note_on_c, 10, 65, 116
10, 112668, Note_on_c, 10, 65, 0
10, 112680, Note_on_c, 10, 63, 115
10, 112728, Note_on_c, 10, 63, 0
10, 112740, Note_on_c, 10, 62, 127
10, 112788, Note_on_c, 10, 62, 0
10, 112800, Note_on_c, 10, 60, 123
10, 112848, Note_on_c, 10, 60, 0
10, 112860, Note_on_c, 10, 58, 113
10, 112956, Note_on_c, 10, 58, 0
10, 112980, Note_on_c, 10, 58, 118
10, 113028, Note_on_c, 10, 58, 0
10, 113220, Note_on_c, 10, 70, 121
10, 113268, Note_on_c, 10, 70, 0
10, 113280, Note_on_c, 10, 68, 113
10, 113328, Note_on_c, 10, 68, 0
10, 113340, Note_on_c, 10, 67, 121
10, 113388, Note_on_c, 10, 67, 0
10, 113400, Note_on_c, 10, 65, 125
10, 113448, Note_on_c, 10, 65, 0
10, 113460, Note_on_c, 10, 64, 127
10, 113508, Note_on_c, 10, 64, 0
10, 113520, Note_on_c, 10, 61, 101
10, 113568, Note_on_c, 10, 61, 0
10, 113580, Note_on_c, 10, 60, 127
10, 113676, Note_on_c, 10, 60, 0
10, 113700, Note_on_c, 10, 60, 127
10, 113748, Note_on_c, 10, 60, 0
10, 113760, Note_on_c, 10, 44, 118
10, 113760, Control_c, 10, 7, 126
10, 113784, Note_on_c, 10, 44, 0
10, 113790, Note_on_c, 10, 48, 127
10, 113814, Note_on_c, 10, 48, 0
10, 113820, Note_on_c, 10, 53, 127
10, 113844, Note_on_c, 10, 53, 0
10, 113850, Note_on_c, 10, 56, 107
10, 113874, Note_on_c, 10, 56, 0
10, 114000, Note_on_c, 10, 72, 127
10, 114048, Note_on_c, 10, 72, 0
10, 114060, Note_on_c, 10, 70, 115
10, 114108, Note_on_c, 10, 70, 0
10, 114120, Note_on_c, 10, 68, 111
10, 114168, Note_on_c, 10, 68, 0
10, 114180, Note_on_c, 10, 67, 118
10, 114228, Note_on_c, 10, 67, 0
10, 114240, Note_on_c, 10, 65, 110
10, 114288, Note_on_c, 10, 65, 0
10, 114300, Note_on_c, 10, 64, 127
10, 114348, Note_on_c, 10, 64, 0
10, 114360, Note_on_c, 10, 65, 125
10, 114372, Note_on_c, 10, 65, 0
10, 114375, Note_on_c, 10, 67, 120
10, 114387, Note_on_c, 10, 67, 0
10, 114390, Note_on_c, 10, 65, 121
10, 114402, Note_on_c, 10, 65, 0
10, 114405, Note_on_c, 10, 67, 127
10, 114417, Note_on_c, 10, 67, 0
10, 114420, Note_on_c, 10, 65, 125
10, 114432, Note_on_c, 10, 65, 0
10, 114435, Note_on_c, 10, 67, 105
10, 114447, Note_on_c, 10, 67, 0
10, 114450, Note_on_c, 10, 65, 105
10, 114462, Note_on_c, 10, 65, 0
10, 114465, Note_on_c, 10, 67, 105
10, 114477, Note_on_c, 10, 67, 0
10, 114480, Note_on_c, 10, 67, 120
10, 114528, Note_on_c, 10, 67, 0
10, 114540, Note_on_c, 10, 68, 97
10, 114588, Note_on_c, 10, 68, 0
10, 114600, Note_on_c, 10, 60, 127
10, 114648, Note_on_c, 10, 60, 0
10, 114655, Control_c, 10, 7, 123
10, 114660, Note_on_c, 10, 62, 127
10, 114665, Control_c, 10, 7, 122
10, 114675, Control_c, 10, 7, 121
10, 114685, Control_c, 10, 7, 120
10, 114695, Control_c, 10, 7, 119
10, 114705, Control_c, 10, 7, 118
10, 114708, Note_on_c, 10, 62, 0
10, 114715, Control_c, 10, 7, 117
10, 114720, Note_on_c, 10, 63, 123
10, 114725, Control_c, 10, 7, 116
10, 114735, Control_c, 10, 7, 115
10, 114745, Control_c, 10, 7, 114
10, 114755, Control_c, 10, 7, 113
10, 114765, Control_c, 10, 7, 112
10, 114775, Control_c, 10, 7, 111
10, 114785, Control_c, 10, 7, 110
10, 114795, Control_c, 10, 7, 109
10, 114805, Control_c, 10, 7, 108
10, 114809, Note_on_c, 10, 63, 0
10, 114815, Control_c, 10, 7, 107
10, 114825, Control_c, 10, 7, 106
10, 114835, Control_c, 10, 7, 105
10, 114840, Note_on_c, 10, 65, 127
10, 114888, Note_on_c, 10, 65, 0
10, 114900, Note_on_c, 10, 58, 127
10, 114900, Control_c, 10, 7, 104
10, 114929, Note_on_c, 10, 58, 0
10, 114930, Note_on_c, 10, 62, 127
10, 114959, Note_on_c, 10, 62, 0
10, 114960, Note_on_c, 10, 65, 127
10, 114984, Note_on_c, 10, 65, 0
10, 114990, Note_on_c, 10, 62, 127
10, 115014, Note_on_c, 10, 62, 0
10, 115020, Note_on_c, 10, 65, 125
10, 115044, Note_on_c, 10, 65, 0
10, 115050, Note_on_c, 10, 62, 127
10, 115074, Note_on_c, 10, 62, 0
10, 115080, Note_on_c, 10, 58, 115
10, 115104, Note_on_c, 10, 58, 0
10, 115110, Note_on_c, 10, 62, 127
10, 115134, Note_on_c, 10, 62, 0
10, 115140, Note_on_c, 10, 65, 127
10, 115164, Note_on_c, 10, 65, 0
10, 115170, Note_on_c, 10, 62, 127
10, 115194, Note_on_c, 10, 62, 0
10, 115200, Note_on_c, 10, 65, 121
10, 115224, Note_on_c, 10, 65, 0
10, 115230, Note_on_c, 10, 62, 123
10, 115254, Note_on_c, 10, 62, 0
10, 115260, Note_on_c, 10, 58, 111
10, 115284, Note_on_c, 10, 58, 0
10, 115290, Note_on_c, 10, 62, 127
10, 115314, Note_on_c, 10, 62, 0
10, 115320, Note_on_c, 10, 65, 121
10, 115344, Note_on_c, 10, 65, 0
10, 115350, Note_on_c, 10, 62, 127
10, 115374, Note_on_c, 10, 62, 0
10, 115380, Note_on_c, 10, 65, 120
10, 115404, Note_on_c, 10, 65, 0
10, 115410, Note_on_c, 10, 62, 118
10, 115434, Note_on_c, 10, 62, 0
10, 115440, Note_on_c, 10, 58, 101
10, 115464, Note_on_c, 10, 58, 0
10, 115470, Note_on_c, 10, 62, 127
10, 115494, Note_on_c, 10, 62, 0
10, 115500, Note_on_c, 10, 65, 127
10, 115524, Note_on_c, 10, 65, 0
10, 115530, Note_on_c, 10, 62, 127
10, 115554, Note_on_c, 10, 62, 0
10, 115560, Note_on_c, 10, 65, 121
10, 115584, Note_on_c, 10, 65, 0
10, 115590, Note_on_c, 10, 62, 127
10, 115614, Note_on_c, 10, 62, 0
10, 115620, Note_on_c, 10, 58, 111
10, 115644, Note_on_c, 10, 58, 0
10, 115650, Note_on_c, 10, 63, 123
10, 115674, Note_on_c, 10, 63, 0
10, 115680, Note_on_c, 10, 67, 121
10, 115704, Note_on_c, 10, 67, 0
10, 115710, Note_on_c, 10, 63, 118
10, 115734, Note_on_c, 10, 63, 0
10, 115740, Note_on_c, 10, 67, 111
10, 115764, Note_on_c, 10, 67, 0
10, 115770, Note_on_c, 10, 63, 123
10, 115794, Note_on_c, 10, 63, 0
10, 115800, Note_on_c, 10, 58, 105
10, 115824, Note_on_c, 10, 58, 0
10, 115830, Note_on_c, 10, 63, 126
10, 115854, Note_on_c, 10, 63, 0
10, 115860, Note_on_c, 10, 67, 127
10, 115884, Note_on_c, 10, 67, 0
10, 115890, Note_on_c, 10, 63, 115
10, 115914, Note_on_c, 10, 63, 0
10, 115920, Note_on_c, 10, 67, 121
10, 115944, Note_on_c, 10, 67, 0
10, 115950, Note_on_c, 10, 63, 121
10, 115974, Note_on_c, 10, 63, 0
10, 115980, Note_on_c, 10, 58, 109
10, 116004, Note_on_c, 10, 58, 0
10, 116010, Note_on_c, 10, 63, 126
10, 116034, Note_on_c, 10, 63, 0
10, 116040, Note_on_c, 10, 67, 127
10, 116064, Note_on_c, 10, 67, 0
10, 116070, Note_on_c, 10, 63, 115
10, 116094, Note_on_c, 10, 63, 0
10, 116100, Note_on_c, 10, 67, 123
10, 116124, Note_on_c, 10, 67, 0
10, 116130, Note_on_c, 10, 63, 118
10, 116154, Note_on_c, 10, 63, 0
10, 116160, Note_on_c, 10, 58, 111
10, 116184, Note_on_c, 10, 58, 0
10, 116190, Note_on_c, 10, 63, 123
10, 116214, Note_on_c, 10, 63, 0
10, 116220, Note_on_c, 10, 67, 127
10, 116244, Note_on_c, 10, 67, 0
10, 116250, Note_on_c, 10, 63, 115
10, 116274, Note_on_c, 10, 63, 0
10, 116280, Note_on_c, 10, 67, 123
10, 116304, Note_on_c, 10, 67, 0
10, 116310, Note_on_c, 10, 63, 115
10, 116334, Note_on_c, 10, 63, 0
10, 116340, Note_on_c, 10, 58, 79
10, 116364, Note_on_c, 10, 58, 0
10, 116370, Note_on_c, 10, 65, 127
10, 116394, Note_on_c, 10, 65, 0
10, 116400, Note_on_c, 10, 68, 126
10, 116424, Note_on_c, 10, 68, 0
10, 116430, Note_on_c, 10, 65, 125
10, 116454, Note_on_c, 10, 65, 0
10, 116460, Note_on_c, 10, 68, 105
10, 116484, Note_on_c, 10, 68, 0
10, 116490, Note_on_c, 10, 65, 114
10, 116514, Note_on_c, 10, 65, 0
10, 116520, Note_on_c, 10, 58, 103
10, 116544, Note_on_c, 10, 58, 0
10, 116550, Note_on_c, 10, 65, 127
10, 116574, Note_on_c, 10, 65, 0
10, 116580, Note_on_c, 10, 68, 109
10, 116604, Note_on_c, 10, 68, 0
10, 116610, Note_on_c, 10, 65, 123
10, 116634, Note_on_c, 10, 65, 0
10, 116640, Note_on_c, 10, 68, 115
10, 116664, Note_on_c, 10, 68, 0
10, 116670, Note_on_c, 10, 65, 127
10, 116694, Note_on_c, 10, 65, 0
10, 116700, Note_on_c, 10, 58, 89
10, 116724, Note_on_c, 10, 58, 0
10, 116730, Note_on_c, 10, 65, 127
10, 116754, Note_on_c, 10, 65, 0
10, 116760, Note_on_c, 10, 68, 118
10, 116784, Note_on_c, 10, 68, 0
10, 116790, Note_on_c, 10, 65, 127
10, 116814, Note_on_c, 10, 65, 0
10, 116820, Note_on_c, 10, 68, 101
10, 116844, Note_on_c, 10, 68, 0
10, 116850, Note_on_c, 10, 65, 118
10, 116874, Note_on_c, 10, 65, 0
10, 116880, Note_on_c, 10, 58, 83
10, 116904, Note_on_c, 10, 58, 0
10, 116910, Note_on_c, 10, 65, 127
10, 116934, Note_on_c, 10, 65, 0
10, 116940, Note_on_c, 10, 68, 109
10, 116964, Note_on_c, 10, 68, 0
10, 116970, Note_on_c, 10, 65, 127
10, 116994, Note_on_c, 10, 65, 0
10, 117000, Note_on_c, 10, 68, 109
10, 117024, Note_on_c, 10, 68, 0
10, 117030, Note_on_c, 10, 65, 127
10, 117054, Note_on_c, 10, 65, 0
10, 117060, Note_on_c, 10, 63, 109
10, 117084, Note_on_c, 10, 63, 0
10, 117090, Note_on_c, 10, 67, 127
10, 117090, Note_on_c, 10, 70, 118
10, 117114, Note_on_c, 10, 70, 0
10, 117114, Note_on_c, 10, 67, 0
10, 117120, Note_on_c, 10, 75, 127
10, 117144, Note_on_c, 10, 75, 0
10, 117150, Note_on_c, 10, 70, 111
10, 117150, Note_on_c, 10, 67, 120
10, 117174, Note_on_c, 10, 67, 0
10, 117174, Note_on_c, 10, 70, 0
10, 117180, Note_on_c, 10, 75, 105
10, 117204, Note_on_c, 10, 75, 0
10, 117210, Note_on_c, 10, 67, 113
10, 117210, Note_on_c, 10, 70, 121
10, 117234, Note_on_c, 10, 70, 0
10, 117234, Note_on_c, 10, 67, 0
10, 117240, Note_on_c, 10, 63, 118
10, 117264, Note_on_c, 10, 63, 0
10, 117270, Note_on_c, 10, 72, 127
10, 117294, Note_on_c, 10, 72, 0
10, 117300, Note_on_c, 10, 75, 101
10, 117324, Note_on_c, 10, 75, 0
10, 117330, Note_on_c, 10, 68, 97
10, 117330, Note_on_c, 10, 72, 127
10, 117354, Note_on_c, 10, 72, 0
10, 117354, Note_on_c, 10, 68, 0
10, 117360, Note_on_c, 10, 75, 90
10, 117384, Note_on_c, 10, 75, 0
10, 117390, Note_on_c, 10, 68, 99
10, 117390, Note_on_c, 10, 72, 127
10, 117414, Note_on_c, 10, 72, 0
10, 117414, Note_on_c, 10, 68, 0
10, 117420, Note_on_c, 10, 63, 99
10, 117444, Note_on_c, 10, 63, 0
10, 117450, Note_on_c, 10, 70, 127
10, 117450, Note_on_c, 10, 67, 127
10, 117474, Note_on_c, 10, 67, 0
10, 117474, Note_on_c, 10, 70, 0
10, 117480, Note_on_c, 10, 75, 118
10, 117504, Note_on_c, 10, 75, 0
10, 117510, Note_on_c, 10, 70, 107
10, 117510, Note_on_c, 10, 67, 127
10, 117534, Note_on_c, 10, 67, 0
10, 117534, Note_on_c, 10, 70, 0
10, 117540, Note_on_c, 10, 75, 103
10, 117564, Note_on_c, 10, 75, 0
10, 117570, Note_on_c, 10, 70, 115
10, 117570, Note_on_c, 10, 67, 127
10, 117594, Note_on_c, 10, 67, 0
10, 117594, Note_on_c, 10, 70, 0
10, 117600, Note_on_c, 10, 63, 115
10, 117624, Note_on_c, 10, 63, 0
10, 117630, Note_on_c, 10, 65, 94
10, 117630, Note_on_c, 10, 68, 71
10, 117654, Note_on_c, 10, 68, 0
10, 117654, Note_on_c, 10, 65, 0
10, 117660, Note_on_c, 10, 74, 127
10, 117684, Note_on_c, 10, 74, 0
10, 117690, Note_on_c, 10, 68, 113
10, 117690, Note_on_c, 10, 65, 111
10, 117714, Note_on_c, 10, 65, 0
10, 117714, Note_on_c, 10, 68, 0
10, 117720, Note_on_c, 10, 74, 111
10, 117744, Note_on_c, 10, 74, 0
10, 117750, Note_on_c, 10, 68, 121
10, 117750, Note_on_c, 10, 65, 123
10, 117774, Note_on_c, 10, 65, 0
10, 117774, Note_on_c, 10, 68, 0
10, 117780, Note_on_c, 10, 63, 107
10, 117804, Note_on_c, 10, 63, 0
10, 117810, Note_on_c, 10, 70, 121
10, 117810, Note_on_c, 10, 67, 127
10, 117834, Note_on_c, 10, 67, 0
10, 117834, Note_on_c, 10, 70, 0
10, 117840, Note_on_c, 10, 75, 118
10, 117864, Note_on_c, 10, 75, 0
10, 117870, Note_on_c, 10, 70, 115
10, 117870, Note_on_c, 10, 67, 127
10, 117894, Note_on_c, 10, 67, 0
10, 117894, Note_on_c, 10, 70, 0
10, 117900, Note_on_c, 10, 75, 97
10, 117924, Note_on_c, 10, 75, 0
10, 117930, Note_on_c, 10, 70, 121
10, 117930, Note_on_c, 10, 67, 127
10, 117954, Note_on_c, 10, 67, 0
10, 117954, Note_on_c, 10, 70, 0
10, 117960, Note_on_c, 10, 63, 79
10, 117984, Note_on_c, 10, 63, 0
10, 117990, Note_on_c, 10, 72, 127
10, 117990, Note_on_c, 10, 68, 118
10, 118014, Note_on_c, 10, 68, 0
10, 118014, Note_on_c, 10, 72, 0
10, 118020, Note_on_c, 10, 75, 88
10, 118044, Note_on_c, 10, 75, 0
10, 118050, Note_on_c, 10, 68, 105
10, 118050, Note_on_c, 10, 72, 127
10, 118074, Note_on_c, 10, 72, 0
10, 118074, Note_on_c, 10, 68, 0
10, 118080, Note_on_c, 10, 75, 95
10, 118104, Note_on_c, 10, 75, 0
10, 118110, Note_on_c, 10, 68, 90
10, 118110, Note_on_c, 10, 72, 127
10, 118134, Note_on_c, 10, 72, 0
10, 118134, Note_on_c, 10, 68, 0
10, 118140, Note_on_c, 10, 63, 118
10, 118164, Note_on_c, 10, 63, 0
10, 118170, Note_on_c, 10, 70, 126
10, 118170, Note_on_c, 10, 67, 127
10, 118194, Note_on_c, 10, 67, 0
10, 118194, Note_on_c, 10, 70, 0
10, 118200, Note_on_c, 10, 75, 123
10, 118224, Note_on_c, 10, 75, 0
10, 118230, Note_on_c, 10, 70, 107
10, 118230, Note_on_c, 10, 67, 127
10, 118254, Note_on_c, 10, 67, 0
10, 118254, Note_on_c, 10, 70, 0
10, 118260, Note_on_c, 10, 75, 97
10, 118284, Note_on_c, 10, 75, 0
10, 118290, Note_on_c, 10, 70, 121
10, 118290, Note_on_c, 10, 67, 127
10, 118314, Note_on_c, 10, 67, 0
10, 118314, Note_on_c, 10, 70, 0
10, 118320, Note_on_c, 10, 63, 118
10, 118344, Note_on_c, 10, 63, 0
10, 118350, Note_on_c, 10, 65, 116
10, 118350, Note_on_c, 10, 68, 115
10, 118374, Note_on_c, 10, 68, 0
10, 118374, Note_on_c, 10, 65, 0
10, 118380, Note_on_c, 10, 74, 120
10, 118404, Note_on_c, 10, 74, 0
10, 118410, Note_on_c, 10, 68, 118
10, 118410, Note_on_c, 10, 65, 109
10, 118434, Note_on_c, 10, 65, 0
10, 118434, Note_on_c, 10, 68, 0
10, 118440, Note_on_c, 10, 74, 121
10, 118464, Note_on_c, 10, 74, 0
10, 118470, Note_on_c, 10, 68, 115
10, 118470, Note_on_c, 10, 65, 123
10, 118494, Note_on_c, 10, 65, 0
10, 118494, Note_on_c, 10, 68, 0
10, 118500, Note_on_c, 10, 63, 118
10, 118524, Note_on_c, 10, 63, 0
10, 118530, Note_on_c, 10, 67, 127
10, 118530, Note_on_c, 10, 70, 121
10, 118554, Note_on_c, 10, 70, 0
10, 118554, Note_on_c, 10, 67, 0
10, 118560, Note_on_c, 10, 75, 103
10, 118584, Note_on_c, 10, 75, 0
10, 118590, Note_on_c, 10, 70, 86
10, 118590, Note_on_c, 10, 67, 127
10, 118614, Note_on_c, 10, 67, 0
10, 118614, Note_on_c, 10, 70, 0
10, 118620, Note_on_c, 10, 75, 109
10, 118644, Note_on_c, 10, 75, 0
10, 118650, Note_on_c, 10, 70, 101
10, 118650, Note_on_c, 10, 67, 127
10, 118674, Note_on_c, 10, 67, 0
10, 118674, Note_on_c, 10, 70, 0
10, 118680, Note_on_c, 10, 63, 111
10, 118704, Note_on_c, 10, 63, 0
10, 118710, Note_on_c, 10, 72, 127
10, 118710, Note_on_c, 10, 68, 126
10, 118734, Note_on_c, 10, 68, 0
10, 118734, Note_on_c, 10, 72, 0
10, 118740, Note_on_c, 10, 63, 96
10, 118764, Note_on_c, 10, 63, 0
10, 118770, Note_on_c, 10, 68, 121
10, 118770, Note_on_c, 10, 72, 127
10, 118794, Note_on_c, 10, 72, 0
10, 118794, Note_on_c, 10, 68, 0
10, 118800, Note_on_c, 10, 63, 105
10, 118824, Note_on_c, 10, 63, 0
10, 118830, Note_on_c, 10, 68, 121
10, 118830, Note_on_c, 10, 72, 127
10, 118854, Note_on_c, 10, 72, 0
10, 118854, Note_on_c, 10, 68, 0
10, 118860, Note_on_c, 10, 63, 113
10, 118884, Note_on_c, 10, 63, 0
10, 118890, Note_on_c, 10, 70, 107
10, 118890, Note_on_c, 10, 67, 127
10, 118914, Note_on_c, 10, 67, 0
10, 118914, Note_on_c, 10, 70, 0
10, 118920, Note_on_c, 10, 75, 88
10, 118944, Note_on_c, 10, 75, 0
10, 118950, Note_on_c, 10, 70, 105
10, 118950, Note_on_c, 10, 67, 114
10, 118974, Note_on_c, 10, 67, 0
10, 118974, Note_on_c, 10, 70, 0
10, 118980, Note_on_c, 10, 75, 91
10, 119004, Note_on_c, 10, 75, 0
10, 119010, Note_on_c, 10, 67, 125
10, 119010, Note_on_c, 10, 70, 94
10, 119034, Note_on_c, 10, 70, 0
10, 119034, Note_on_c, 10, 67, 0
10, 119040, Note_on_c, 10, 63, 121
10, 119064, Note_on_c, 10, 63, 0
10, 119070, Note_on_c, 10, 68, 105
10, 119070, Note_on_c, 10, 72, 127
10, 119094, Note_on_c, 10, 72, 0
10, 119094, Note_on_c, 10, 68, 0
10, 119100, Note_on_c, 10, 63, 95
10, 119124, Note_on_c, 10, 63, 0
10, 119130, Note_on_c, 10, 68, 107
10, 119130, Note_on_c, 10, 72, 127
10, 119154, Note_on_c, 10, 72, 0
10, 119154, Note_on_c, 10, 68, 0
10, 119160, Note_on_c, 10, 63, 95
10, 119184, Note_on_c, 10, 63, 0
10, 119190, Note_on_c, 10, 68, 115
10, 119190, Note_on_c, 10, 72, 125
10, 119214, Note_on_c, 10, 72, 0
10, 119214, Note_on_c, 10, 68, 0
10, 119220, Note_on_c, 10, 63, 101
10, 119244, Note_on_c, 10, 63, 0
10, 119250, Note_on_c, 10, 67, 127
10, 119274, Note_on_c, 10, 67, 0
10, 119280, Note_on_c, 10, 70, 123
10, 119304, Note_on_c, 10, 70, 0
10, 119310, Note_on_c, 10, 63, 115
10, 119334, Note_on_c, 10, 63, 0
10, 119340, Note_on_c, 10, 68, 127
10, 119364, Note_on_c, 10, 68, 0
10, 119370, Note_on_c, 10, 72, 127
10, 119394, Note_on_c, 10, 72, 0
10, 119400, Note_on_c, 10, 63, 105
10, 119424, Note_on_c, 10, 63, 0
10, 119430, Note_on_c, 10, 67, 127
10, 119454, Note_on_c, 10, 67, 0
10, 119460, Note_on_c, 10, 70, 107
10, 119484, Note_on_c, 10, 70, 0
10, 119490, Note_on_c, 10, 63, 109
10, 119514, Note_on_c, 10, 63, 0
10, 119520, Note_on_c, 10, 68, 123
10, 119544, Note_on_c, 10, 68, 0
10, 119550, Note_on_c, 10, 72, 127
10, 119574, Note_on_c, 10, 72, 0
10, 119580, Note_on_c, 10, 63, 103
10, 119604, Note_on_c, 10, 63, 0
10, 119610, Note_on_c, 10, 67, 127
10, 119634, Note_on_c, 10, 67, 0
10, 119640, Note_on_c, 10, 70, 113
10, 119664, Note_on_c, 10, 70, 0
10, 119670, Note_on_c, 10, 63, 113
10, 119694, Note_on_c, 10, 63, 0
10, 119700, Note_on_c, 10, 68, 127
10, 119724, Note_on_c, 10, 68, 0
10, 119730, Note_on_c, 10, 72, 125
10, 119754, Note_on_c, 10, 72, 0
10, 119760, Note_on_c, 10, 63, 78
10, 119784, Note_on_c, 10, 63, 0
10, 119790, Note_on_c, 10, 67, 123
10, 119814, Note_on_c, 10, 67, 0
10, 119820, Note_on_c, 10, 70, 109
10, 119844, Note_on_c, 10, 70, 0
10, 119850, Note_on_c, 10, 63, 107
10, 119874, Note_on_c, 10, 63, 0
10, 119880, Note_on_c, 10, 68, 121
10, 119904, Note_on_c, 10, 68, 0
10, 119910, Note_on_c, 10, 72, 127
10, 119934, Note_on_c, 10, 72, 0
10, 119940, Note_on_c, 10, 73, 123
10, 119988, Note_on_c, 10, 73, 0
10, 120000, Note_on_c, 10, 70, 127
10, 120048, Note_on_c, 10, 70, 0
10, 120060, Note_on_c, 10, 67, 127
10, 120108, Note_on_c, 10, 67, 0
10, 120120, Note_on_c, 10, 63, 111
10, 120168, Note_on_c, 10, 63, 0
10, 120180, Note_on_c, 10, 61, 123
10, 120228, Note_on_c, 10, 61, 0
10, 120240, Note_on_c, 10, 58, 123
10, 120288, Note_on_c, 10, 58, 0
10, 120300, Note_on_c, 10, 55, 127
10, 120348, Note_on_c, 10, 55, 0
10, 120360, Note_on_c, 10, 51, 107
10, 120408, Note_on_c, 10, 51, 0
10, 120420, Note_on_c, 10, 49, 111
10, 120468, Note_on_c, 10, 49, 0
10, 120480, Note_on_c, 10, 46, 126
10, 120528, Note_on_c, 10, 46, 0
10, 120540, Note_on_c, 10, 43, 127
10, 120588, Note_on_c, 10, 43, 0
10, 120600, Note_on_c, 10, 39, 118
10, 120648, Note_on_c, 10, 39, 0
10, 120660, Note_on_c, 10, 43, 127
10, 120708, Note_on_c, 10, 43, 0
10, 120720, Note_on_c, 10, 46, 113
10, 120768, Note_on_c, 10, 46, 0
10, 120780, Note_on_c, 10, 49, 123
10, 120828, Note_on_c, 10, 49, 0
10, 120840, Note_on_c, 10, 51, 123
10, 120888, Note_on_c, 10, 51, 0
10, 120900, Note_on_c, 10, 55, 127
10, 120948, Note_on_c, 10, 55, 0
10, 120960, Note_on_c, 10, 58, 123
10, 121008, Note_on_c, 10, 58, 0
10, 121020, Note_on_c, 10, 61, 109
10, 121068, Note_on_c, 10, 61, 0
10, 121080, Note_on_c, 10, 63, 127
10, 121128, Note_on_c, 10, 63, 0
10, 121140, Note_on_c, 10, 67, 127
10, 121188, Note_on_c, 10, 67, 0
10, 121200, Note_on_c, 10, 70, 115
10, 121248, Note_on_c, 10, 70, 0
10, 121260, Note_on_c, 10, 71, 120
10, 121308, Note_on_c, 10, 71, 0
10, 121320, Note_on_c, 10, 72, 127
10, 121368, Note_on_c, 10, 72, 0
10, 121380, Note_on_c, 10, 73, 123
10, 121428, Note_on_c, 10, 73, 0
10, 121440, Note_on_c, 10, 61, 115
10, 121488, Note_on_c, 10, 61, 0
10, 121500, Note_on_c, 10, 60, 127
10, 121548, Note_on_c, 10, 60, 0
10, 121560, Note_on_c, 10, 73, 127
10, 121608, Note_on_c, 10, 73, 0
10, 121620, Note_on_c, 10, 61, 113
10, 121668, Note_on_c, 10, 61, 0
10, 121680, Note_on_c, 10, 60, 121
10, 121728, Note_on_c, 10, 60, 0
10, 121740, Note_on_c, 10, 73, 100
10, 121788, Note_on_c, 10, 73, 0
10, 121800, Note_on_c, 10, 61, 111
10, 121848, Note_on_c, 10, 61, 0
10, 121860, Note_on_c, 10, 60, 127
10, 121908, Note_on_c, 10, 60, 0
10, 121920, Note_on_c, 10, 73, 85
10, 121968, Note_on_c, 10, 73, 0
10, 121980, Note_on_c, 10, 61, 121
10, 122028, Note_on_c, 10, 61, 0
10, 122040, Note_on_c, 10, 60, 127
10, 122088, Note_on_c, 10, 60, 0
10, 122100, Note_on_c, 10, 59, 127
10, 122148, Note_on_c, 10, 59, 0
10, 122160, Note_on_c, 10, 58, 115
10, 122208, Note_on_c, 10, 58, 0
10, 122220, Note_on_c, 10, 57, 118
10, 122268, Note_on_c, 10, 57, 0
10, 122280, Note_on_c, 10, 56, 101
10, 122328, Note_on_c, 10, 56, 0
10, 122340, Note_on_c, 10, 55, 127
10, 122388, Note_on_c, 10, 55, 0
10, 122400, Note_on_c, 10, 54, 101
10, 122448, Note_on_c, 10, 54, 0
10, 122460, Note_on_c, 10, 53, 127
10, 122508, Note_on_c, 10, 53, 0
10, 122520, Note_on_c, 10, 52, 109
10, 122568, Note_on_c, 10, 52, 0
10, 122580, Note_on_c, 10, 51, 103
10, 122628, Note_on_c, 10, 51, 0
10, 122640, Note_on_c, 10, 50, 127
10, 122688, Note_on_c, 10, 50, 0
10, 122700, Note_on_c, 10, 51, 115
10, 122748, Note_on_c, 10, 51, 0
10, 122760, Note_on_c, 10, 51, 123
10, 122808, Note_on_c, 10, 51, 0
10, 122820, Note_on_c, 10, 44, 126
10, 122868, Note_on_c, 10, 44, 0
10, 122880, Note_on_c, 10, 63, 115
10, 122928, Note_on_c, 10, 63, 0
10, 122940, Note_on_c, 10, 51, 107
10, 122940, Note_on_c, 10, 60, 127
10, 122940, Note_on_c, 10, 56, 91
10, 122988, Note_on_c, 10, 56, 0
10, 122988, Note_on_c, 10, 60, 0
10, 122988, Note_on_c, 10, 51, 0
10, 123000, Note_on_c, 10, 44, 121
10, 123048, Note_on_c, 10, 44, 0
10, 123060, Note_on_c, 10, 63, 115
10, 123108, Note_on_c, 10, 63, 0
10, 123120, Note_on_c, 10, 51, 121
10, 123120, Note_on_c, 10, 60, 127
10, 123168, Note_on_c, 10, 60, 0
10, 123168, Note_on_c, 10, 51, 0
10, 123180, Note_on_c, 10, 44, 123
10, 123228, Note_on_c, 10, 44, 0
10, 123240, Note_on_c, 10, 63, 90
10, 123288, Note_on_c, 10, 63, 0
10, 123300, Note_on_c, 10, 51, 113
10, 123300, Note_on_c, 10, 60, 127
10, 123348, Note_on_c, 10, 60, 0
10, 123348, Note_on_c, 10, 51, 0
10, 123360, Note_on_c, 10, 44, 126
10, 123408, Note_on_c, 10, 44, 0
10, 123420, Note_on_c, 10, 63, 113
10, 123468, Note_on_c, 10, 63, 0
10, 123480, Note_on_c, 10, 51, 118
10, 123480, Note_on_c, 10, 60, 127
10, 123480, Note_on_c, 10, 56, 121
10, 123528, Note_on_c, 10, 56, 0
10, 123528, Note_on_c, 10, 60, 0
10, 123528, Note_on_c, 10, 51, 0
10, 124260, Note_on_c, 10, 56, 126
10, 124260, Note_on_c, 10, 44, 126
10, 124308, Note_on_c, 10, 44, 0
10, 124308, Note_on_c, 10, 56, 0
10, 124320, Note_on_c, 10, 63, 115
10, 124368, Note_on_c, 10, 63, 0
10, 124380, Note_on_c, 10, 56, 91
10, 124380, Note_on_c, 10, 60, 127
10, 124380, Note_on_c, 10, 51, 107
10, 124428, Note_on_c, 10, 51, 0
10, 124428, Note_on_c, 10, 60, 0
10, 124428, Note_on_c, 10, 56, 0
10, 124440, Note_on_c, 10, 44, 121
10, 124488, Note_on_c, 10, 44, 0
10, 124500, Note_on_c, 10, 63, 115
10, 124548, Note_on_c, 10, 63, 0
10, 124560, Note_on_c, 10, 60, 127
10, 124560, Note_on_c, 10, 51, 121
10, 124608, Note_on_c, 10, 51, 0
10, 124608, Note_on_c, 10, 60, 0
10, 124620, Note_on_c, 10, 44, 123
10, 124668, Note_on_c, 10, 44, 0
10, 124680, Note_on_c, 10, 63, 90
10, 124728, Note_on_c, 10, 63, 0
10, 124740, Note_on_c, 10, 60, 127
10, 124740, Note_on_c, 10, 51, 113
10, 124788, Note_on_c, 10, 51, 0
10, 124788, Note_on_c, 10, 60, 0
10, 124800, Note_on_c, 10, 44, 126
10, 124848, Note_on_c, 10, 44, 0
10, 124860, Note_on_c, 10, 63, 113
10, 124908, Note_on_c, 10, 63, 0
10, 124920, Note_on_c, 10, 56, 121
10, 124920, Note_on_c, 10, 60, 127
10, 124920, Note_on_c, 10, 51, 118
10, 124968, Note_on_c, 10, 51, 0
10, 124968, Note_on_c, 10, 60, 0
10, 124968, Note_on_c, 10, 56, 0
10, 125640, Note_on_c, 10, 65, 127
10, 125664, Note_on_c, 10, 65, 0
10, 125670, Note_on_c, 10, 68, 111
10, 125694, Note_on_c, 10, 68, 0
10, 125700, Note_on_c, 10, 65, 120
10, 125724, Note_on_c, 10, 65, 0
10, 125730, Note_on_c, 10, 68, 107
10, 125754, Note_on_c, 10, 68, 0
10, 125760, Note_on_c, 10, 65, 118
10, 125784, Note_on_c, 10, 65, 0
10, 125790, Note_on_c, 10, 68, 109
10, 125814, Note_on_c, 10, 68, 0
10, 125820, Note_on_c, 10, 63, 111
10, 125844, Note_on_c, 10, 63, 0
10, 125850, Note_on_c, 10, 67, 105
10, 125874, Note_on_c, 10, 67, 0
10, 125880, Note_on_c, 10, 63, 113
10, 125904, Note_on_c, 10, 63, 0
10, 125910, Note_on_c, 10, 67, 110
10, 125934, Note_on_c, 10, 67, 0
10, 125940, Note_on_c, 10, 63, 105
10, 125964, Note_on_c, 10, 63, 0
10, 125970, Note_on_c, 10, 67, 120
10, 125994, Note_on_c, 10, 67, 0
10, 126000, Note_on_c, 10, 61, 103
10, 126024, Note_on_c, 10, 61, 0
10, 126030, Note_on_c, 10, 65, 127
10, 126054, Note_on_c, 10, 65, 0
10, 126060, Note_on_c, 10, 61, 103
10, 126084, Note_on_c, 10, 61, 0
10, 126090, Note_on_c, 10, 65, 127
10, 126114, Note_on_c, 10, 65, 0
10, 126120, Note_on_c, 10, 61, 107
10, 126144, Note_on_c, 10, 61, 0
10, 126150, Note_on_c, 10, 65, 117
10, 126174, Note_on_c, 10, 65, 0
10, 126180, Note_on_c, 10, 60, 125
10, 126204, Note_on_c, 10, 60, 0
10, 126210, Note_on_c, 10, 63, 113
10, 126234, Note_on_c, 10, 63, 0
10, 126240, Note_on_c, 10, 60, 125
10, 126264, Note_on_c, 10, 60, 0
10, 126270, Note_on_c, 10, 63, 115
10, 126294, Note_on_c, 10, 63, 0
10, 126300, Note_on_c, 10, 60, 127
10, 126324, Note_on_c, 10, 60, 0
10, 126330, Note_on_c, 10, 63, 115
10, 126354, Note_on_c, 10, 63, 0
10, 127080, Note_on_c, 10, 65, 127
10, 127104, Note_on_c, 10, 65, 0
10, 127110, Note_on_c, 10, 68, 121
10, 127134, Note_on_c, 10, 68, 0
10, 127140, Note_on_c, 10, 65, 127
10, 127164, Note_on_c, 10, 65, 0
10, 127170, Note_on_c, 10, 68, 109
10, 127194, Note_on_c, 10, 68, 0
10, 127200, Note_on_c, 10, 65, 121
10, 127224, Note_on_c, 10, 65, 0
10, 127230, Note_on_c, 10, 68, 113
10, 127254, Note_on_c, 10, 68, 0
10, 127260, Note_on_c, 10, 63, 105
10, 127284, Note_on_c, 10, 63, 0
10, 127290, Note_on_c, 10, 67, 127
10, 127314, Note_on_c, 10, 67, 0
10, 127320, Note_on_c, 10, 63, 113
10, 127344, Note_on_c, 10, 63, 0
10, 127350, Note_on_c, 10, 67, 127
10, 127374, Note_on_c, 10, 67, 0
10, 127380, Note_on_c, 10, 63, 109
10, 127404, Note_on_c, 10, 63, 0
10, 127410, Note_on_c, 10, 67, 127
10, 127434, Note_on_c, 10, 67, 0
10, 127440, Note_on_c, 10, 61, 94
10, 127464, Note_on_c, 10, 61, 0
10, 127470, Note_on_c, 10, 65, 127
10, 127494, Note_on_c, 10, 65, 0
10, 127500, Note_on_c, 10, 61, 107
10, 127524, Note_on_c, 10, 61, 0
10, 127530, Note_on_c, 10, 65, 127
10, 127554, Note_on_c, 10, 65, 0
10, 127560, Note_on_c, 10, 61, 111
10, 127584, Note_on_c, 10, 61, 0
10, 127590, Note_on_c, 10, 65, 127
10, 127614, Note_on_c, 10, 65, 0
10, 127620, Note_on_c, 10, 60, 127
10, 127644, Note_on_c, 10, 60, 0
10, 127650, Note_on_c, 10, 63, 113
10, 127674, Note_on_c, 10, 63, 0
10, 127680, Note_on_c, 10, 60, 123
10, 127704, Note_on_c, 10, 60, 0
10, 127710, Note_on_c, 10, 63, 113
10, 127734, Note_on_c, 10, 63, 0
10, 127740, Note_on_c, 10, 60, 123
10, 127764, Note_on_c, 10, 60, 0
10, 127770, Note_on_c, 10, 63, 113
10, 127794, Note_on_c, 10, 63, 0
10, 133620, Note_on_c, 10, 53, 120
10, 133644, Note_on_c, 10, 53, 0
10, 133650, Note_on_c, 10, 56, 107
10, 133650, Note_on_c, 10, 58, 115
10, 133674, Note_on_c, 10, 58, 0
10, 133674, Note_on_c, 10, 56, 0
10, 133680, Note_on_c, 10, 62, 127
10, 133704, Note_on_c, 10, 62, 0
10, 133710, Note_on_c, 10, 58, 113
10, 133710, Note_on_c, 10, 56, 96
10, 133734, Note_on_c, 10, 56, 0
10, 133734, Note_on_c, 10, 58, 0
10, 133740, Note_on_c, 10, 62, 127
10, 133764, Note_on_c, 10, 62, 0
10, 133770, Note_on_c, 10, 56, 115
10, 133770, Note_on_c, 10, 58, 109
10, 133794, Note_on_c, 10, 58, 0
10, 133794, Note_on_c, 10, 56, 0
10, 133800, Note_on_c, 10, 46, 126
10, 133824, Note_on_c, 10, 46, 0
10, 133830, Note_on_c, 10, 56, 109
10, 133830, Note_on_c, 10, 58, 118
10, 133854, Note_on_c, 10, 58, 0
10, 133854, Note_on_c, 10, 56, 0
10, 133860, Note_on_c, 10, 62, 118
10, 133884, Note_on_c, 10, 62, 0
10, 133890, Note_on_c, 10, 56, 107
10, 133890, Note_on_c, 10, 58, 115
10, 133914, Note_on_c, 10, 58, 0
10, 133914, Note_on_c, 10, 56, 0
10, 133920, Note_on_c, 10, 62, 109
10, 133944, Note_on_c, 10, 62, 0
10, 133950, Note_on_c, 10, 58, 121
10, 133950, Note_on_c, 10, 56, 95
10, 133974, Note_on_c, 10, 56, 0
10, 133974, Note_on_c, 10, 58, 0
10, 133980, Note_on_c, 10, 51, 113
10, 134004, Note_on_c, 10, 51, 0
10, 134010, Note_on_c, 10, 58, 123
10, 134010, Note_on_c, 10, 55, 111
10, 134034, Note_on_c, 10, 55, 0
10, 134034, Note_on_c, 10, 58, 0
10, 134040, Note_on_c, 10, 63, 94
10, 134064, Note_on_c, 10, 63, 0
10, 134070, Note_on_c, 10, 55, 107
10, 134070, Note_on_c, 10, 58, 111
10, 134094, Note_on_c, 10, 58, 0
10, 134094, Note_on_c, 10, 55, 0
10, 134100, Note_on_c, 10, 63, 107
10, 134124, Note_on_c, 10, 63, 0
10, 134130, Note_on_c, 10, 55, 116
10, 134130, Note_on_c, 10, 58, 107
10, 134154, Note_on_c, 10, 58, 0
10, 134154, Note_on_c, 10, 55, 0
10, 134160, Note_on_c, 10, 46, 109
10, 134184, Note_on_c, 10, 46, 0
10, 134190, Note_on_c, 10, 58, 118
10, 134190, Note_on_c, 10, 55, 116
10, 134214, Note_on_c, 10, 55, 0
10, 134214, Note_on_c, 10, 58, 0
10, 134220, Note_on_c, 10, 63, 121
10, 134244, Note_on_c, 10, 63, 0
10, 134250, Note_on_c, 10, 58, 111
10, 134250, Note_on_c, 10, 55, 111
10, 134274, Note_on_c, 10, 55, 0
10, 134274, Note_on_c, 10, 58, 0
10, 134280, Note_on_c, 10, 63, 111
10, 134304, Note_on_c, 10, 63, 0
10, 134310, Note_on_c, 10, 55, 107
10, 134310, Note_on_c, 10, 58, 86
10, 134334, Note_on_c, 10, 58, 0
10, 134334, Note_on_c, 10, 55, 0
10, 134340, Note_on_c, 10, 53, 114
10, 134364, Note_on_c, 10, 53, 0
10, 134370, Note_on_c, 10, 56, 118
10, 134370, Note_on_c, 10, 58, 121
10, 134394, Note_on_c, 10, 58, 0
10, 134394, Note_on_c, 10, 56, 0
10, 134400, Note_on_c, 10, 62, 127
10, 134424, Note_on_c, 10, 62, 0
10, 134430, Note_on_c, 10, 56, 105
10, 134430, Note_on_c, 10, 58, 113
10, 134454, Note_on_c, 10, 58, 0
10, 134454, Note_on_c, 10, 56, 0
10, 134460, Note_on_c, 10, 62, 116
10, 134484, Note_on_c, 10, 62, 0
10, 134490, Note_on_c, 10, 58, 109
10, 134490, Note_on_c, 10, 56, 118
10, 134514, Note_on_c, 10, 56, 0
10, 134514, Note_on_c, 10, 58, 0
10, 134520, Note_on_c, 10, 46, 99
10, 134544, Note_on_c, 10, 46, 0
10, 134550, Note_on_c, 10, 56, 94
10, 134550, Note_on_c, 10, 58, 121
10, 134574, Note_on_c, 10, 58, 0
10, 134574, Note_on_c, 10, 56, 0
10, 134580, Note_on_c, 10, 62, 117
10, 134604, Note_on_c, 10, 62, 0
10, 134610, Note_on_c, 10, 58, 113
10, 134610, Note_on_c, 10, 56, 113
10, 134634, Note_on_c, 10, 56, 0
10, 134634, Note_on_c, 10, 58, 0
10, 134640, Note_on_c, 10, 62, 121
10, 134664, Note_on_c, 10, 62, 0
10, 134670, Note_on_c, 10, 58, 118
10, 134670, Note_on_c, 10, 56, 113
10, 134694, Note_on_c, 10, 56, 0
10, 134694, Note_on_c, 10, 58, 0
10, 134700, Note_on_c, 10, 51, 109
10, 134724, Note_on_c, 10, 51, 0
10, 134730, Note_on_c, 10, 58, 115
10, 134730, Note_on_c, 10, 55, 113
10, 134754, Note_on_c, 10, 55, 0
10, 134754, Note_on_c, 10, 58, 0
10, 134760, Note_on_c, 10, 63, 113
10, 134784, Note_on_c, 10, 63, 0
10, 134790, Note_on_c, 10, 58, 109
10, 134790, Note_on_c, 10, 55, 121
10, 134814, Note_on_c, 10, 55, 0
10, 134814, Note_on_c, 10, 58, 0
10, 134820, Note_on_c, 10, 63, 88
10, 134844, Note_on_c, 10, 63, 0
10, 134850, Note_on_c, 10, 58, 111
10, 134850, Note_on_c, 10, 55, 116
10, 134874, Note_on_c, 10, 55, 0
10, 134874, Note_on_c, 10, 58, 0
10, 134880, Note_on_c, 10, 46, 113
10, 134904, Note_on_c, 10, 46, 0
10, 134910, Note_on_c, 10, 55, 127
10, 134910, Note_on_c, 10, 58, 121
10, 134934, Note_on_c, 10, 58, 0
10, 134934, Note_on_c, 10, 55, 0
10, 134940, Note_on_c, 10, 63, 109
10, 134964, Note_on_c, 10, 63, 0
10, 134970, Note_on_c, 10, 55, 127
10, 134970, Note_on_c, 10, 58, 121
10, 134994, Note_on_c, 10, 58, 0
10, 134994, Note_on_c, 10, 55, 0
10, 135000, Note_on_c, 10, 63, 99
10, 135024, Note_on_c, 10, 63, 0
10, 135030, Note_on_c, 10, 58, 95
10, 135030, Note_on_c, 10, 55, 118
10, 135054, Note_on_c, 10, 55, 0
10, 135054, Note_on_c, 10, 58, 0
10, 135060, Note_on_c, 10, 53, 120
10, 135084, Note_on_c, 10, 53, 0
10, 135090, Note_on_c, 10, 58, 121
10, 135090, Note_on_c, 10, 56, 80
10, 135114, Note_on_c, 10, 56, 0
10, 135114, Note_on_c, 10, 58, 0
10, 135120, Note_on_c, 10, 62, 127
10, 135144, Note_on_c, 10, 62, 0
10, 135150, Note_on_c, 10, 56, 111
10, 135150, Note_on_c, 10, 58, 113
10, 135174, Note_on_c, 10, 58, 0
10, 135174, Note_on_c, 10, 56, 0
10, 135180, Note_on_c, 10, 62, 118
10, 135204, Note_on_c, 10, 62, 0
10, 135210, Note_on_c, 10, 58, 111
10, 135210, Note_on_c, 10, 56, 115
10, 135234, Note_on_c, 10, 56, 0
10, 135234, Note_on_c, 10, 58, 0
10, 135240, Note_on_c, 10, 46, 118
10, 135264, Note_on_c, 10, 46, 0
10, 135270, Note_on_c, 10, 56, 118
10, 135270, Note_on_c, 10, 58, 123
10, 135294, Note_on_c, 10, 58, 0
10, 135294, Note_on_c, 10, 56, 0
10, 135300, Note_on_c, 10, 62, 120
10, 135324, Note_on_c, 10, 62, 0
10, 135330, Note_on_c, 10, 58, 113
10, 135330, Note_on_c, 10, 56, 97
10, 135354, Note_on_c, 10, 56, 0
10, 135354, Note_on_c, 10, 58, 0
10, 135360, Note_on_c, 10, 62, 121
10, 135384, Note_on_c, 10, 62, 0
10, 135390, Note_on_c, 10, 56, 115
10, 135390, Note_on_c, 10, 58, 115
10, 135414, Note_on_c, 10, 58, 0
10, 135414, Note_on_c, 10, 56, 0
10, 135420, Note_on_c, 10, 51, 111
10, 135444, Note_on_c, 10, 51, 0
10, 135450, Note_on_c, 10, 55, 127
10, 135450, Note_on_c, 10, 58, 115
10, 135474, Note_on_c, 10, 58, 0
10, 135474, Note_on_c, 10, 55, 0
10, 135480, Note_on_c, 10, 63, 107
10, 135504, Note_on_c, 10, 63, 0
10, 135510, Note_on_c, 10, 58, 109
10, 135510, Note_on_c, 10, 55, 114
10, 135534, Note_on_c, 10, 55, 0
10, 135534, Note_on_c, 10, 58, 0
10, 135540, Note_on_c, 10, 63, 92
10, 135564, Note_on_c, 10, 63, 0
10, 135570, Note_on_c, 10, 58, 105
10, 135570, Note_on_c, 10, 55, 125
10, 135594, Note_on_c, 10, 55, 0
10, 135594, Note_on_c, 10, 58, 0
10, 135600, Note_on_c, 10, 46, 121
10, 135624, Note_on_c, 10, 46, 0
10, 135630, Note_on_c, 10, 55, 127
10, 135630, Note_on_c, 10, 58, 115
10, 135654, Note_on_c, 10, 58, 0
10, 135654, Note_on_c, 10, 55, 0
10, 135660, Note_on_c, 10, 63, 95
10, 135684, Note_on_c, 10, 63, 0
10, 135690, Note_on_c, 10, 58, 115
10, 135690, Note_on_c, 10, 55, 121
10, 135714, Note_on_c, 10, 55, 0
10, 135714, Note_on_c, 10, 58, 0
10, 135720, Note_on_c, 10, 63, 99
10, 135744, Note_on_c, 10, 63, 0
10, 135750, Note_on_c, 10, 58, 111
10, 135750, Note_on_c, 10, 55, 125
10, 135774, Note_on_c, 10, 55, 0
10, 135774, Note_on_c, 10, 58, 0
10, 135780, Note_on_c, 10, 53, 109
10, 135804, Note_on_c, 10, 53, 0
10, 135810, Note_on_c, 10, 56, 101
10, 135810, Note_on_c, 10, 58, 111
10, 135834, Note_on_c, 10, 58, 0
10, 135834, Note_on_c, 10, 56, 0
10, 135840, Note_on_c, 10, 62, 127
10, 135864, Note_on_c, 10, 62, 0
10, 135870, Note_on_c, 10, 58, 118
10, 135870, Note_on_c, 10, 56, 100
10, 135894, Note_on_c, 10, 56, 0
10, 135894, Note_on_c, 10, 58, 0
10, 135900, Note_on_c, 10, 62, 123
10, 135924, Note_on_c, 10, 62, 0
10, 135930, Note_on_c, 10, 58, 109
10, 135930, Note_on_c, 10, 56, 115
10, 135954, Note_on_c, 10, 56, 0
10, 135954, Note_on_c, 10, 58, 0
10, 135960, Note_on_c, 10, 46, 113
10, 135984, Note_on_c, 10, 46, 0
10, 135990, Note_on_c, 10, 56, 118
10, 135990, Note_on_c, 10, 58, 123
10, 136014, Note_on_c, 10, 58, 0
10, 136014, Note_on_c, 10, 56, 0
10, 136020, Note_on_c, 10, 62, 118
10, 136044, Note_on_c, 10, 62, 0
10, 136050, Note_on_c, 10, 56, 105
10, 136050, Note_on_c, 10, 58, 118
10, 136074, Note_on_c, 10, 58, 0
10, 136074, Note_on_c, 10, 56, 0
10, 136080, Note_on_c, 10, 62, 121
10, 136104, Note_on_c, 10, 62, 0
10, 136110, Note_on_c, 10, 56, 99
10, 136110, Note_on_c, 10, 58, 105
10, 136134, Note_on_c, 10, 58, 0
10, 136134, Note_on_c, 10, 56, 0
10, 136140, Note_on_c, 10, 51, 127
10, 136164, Note_on_c, 10, 51, 0
10, 136170, Note_on_c, 10, 55, 127
10, 136170, Note_on_c, 10, 58, 121
10, 136194, Note_on_c, 10, 58, 0
10, 136194, Note_on_c, 10, 55, 0
10, 136200, Note_on_c, 10, 63, 123
10, 136224, Note_on_c, 10, 63, 0
10, 136230, Note_on_c, 10, 58, 118
10, 136230, Note_on_c, 10, 55, 125
10, 136254, Note_on_c, 10, 55, 0
10, 136254, Note_on_c, 10, 58, 0
10, 136260, Note_on_c, 10, 63, 118
10, 136284, Note_on_c, 10, 63, 0
10, 136290, Note_on_c, 10, 55, 116
10, 136290, Note_on_c, 10, 58, 111
10, 136314, Note_on_c, 10, 58, 0
10, 136314, Note_on_c, 10, 55, 0
10, 136320, Note_on_c, 10, 51, 127
10, 136344, Note_on_c, 10, 51, 0
10, 136350, Note_on_c, 10, 58, 121
10, 136350, Note_on_c, 10, 55, 123
10, 136374, Note_on_c, 10, 55, 0
10, 136374, Note_on_c, 10, 58, 0
10, 136380, Note_on_c, 10, 63, 126
10, 136404, Note_on_c, 10, 63, 0
10, 136410, Note_on_c, 10, 55, 125
10, 136410, Note_on_c, 10, 58, 121
10, 136434, Note_on_c, 10, 58, 0
10, 136434, Note_on_c, 10, 55, 0
10, 136440, Note_on_c, 10, 63, 118
10, 136464, Note_on_c, 10, 63, 0
10, 136470, Note_on_c, 10, 58, 121
10, 136470, Note_on_c, 10, 55, 123
10, 136494, Note_on_c, 10, 55, 0
10, 136494, Note_on_c, 10, 58, 0
10, 136500, Note_on_c, 10, 51, 113
10, 136524, Note_on_c, 10, 51, 0
10, 136530, Note_on_c, 10, 58, 127
10, 136530, Note_on_c, 10, 55, 127
10, 136554, Note_on_c, 10, 55, 0
10, 136554, Note_on_c, 10, 58, 0
10, 136560, Note_on_c, 10, 63, 127
10, 136584, Note_on_c, 10, 63, 0
10, 136590, Note_on_c, 10, 58, 121
10, 136590, Note_on_c, 10, 55, 117
10, 136614, Note_on_c, 10, 55, 0
10, 136614, Note_on_c, 10, 58, 0
10, 136620, Note_on_c, 10, 63, 118
10, 136644, Note_on_c, 10, 63, 0
10, 136650, Note_on_c, 10, 55, 117
10, 136650, Note_on_c, 10, 58, 118
10, 136674, Note_on_c, 10, 58, 0
10, 136674, Note_on_c, 10, 55, 0
10, 136680, Note_on_c, 10, 51, 126
10, 136704, Note_on_c, 10, 51, 0
10, 136710, Note_on_c, 10, 58, 123
10, 136710, Note_on_c, 10, 55, 120
10, 136734, Note_on_c, 10, 55, 0
10, 136734, Note_on_c, 10, 58, 0
10, 136740, Note_on_c, 10, 63, 118
10, 136764, Note_on_c, 10, 63, 0
10, 136770, Note_on_c, 10, 58, 121
10, 136770, Note_on_c, 10, 55, 111
10, 136794, Note_on_c, 10, 55, 0
10, 136794, Note_on_c, 10, 58, 0
10, 136800, Note_on_c, 10, 63, 121
10, 136824, Note_on_c, 10, 63, 0
10, 136830, Note_on_c, 10, 58, 123
10, 136830, Note_on_c, 10, 55, 127
10, 136854, Note_on_c, 10, 55, 0
10, 136854, Note_on_c, 10, 58, 0
10, 136860, Note_on_c, 10, 44, 127
10, 136884, Note_on_c, 10, 44, 0
10, 136890, Note_on_c, 10, 56, 127
10, 136890, Note_on_c, 10, 51, 103
10, 136890, Note_on_c, 10, 53, 127
10, 136914, Note_on_c, 10, 53, 0
10, 136914, Note_on_c, 10, 51, 0
10, 136914, Note_on_c, 10, 56, 0
10, 136920, Note_on_c, 10, 60, 127
10, 136944, Note_on_c, 10, 60, 0
10, 136950, Note_on_c, 10, 51, 85
10, 136950, Note_on_c, 10, 56, 115
10, 136950, Note_on_c, 10, 53, 127
10, 136974, Note_on_c, 10, 53, 0
10, 136974, Note_on_c, 10, 56, 0
10, 136974, Note_on_c, 10, 51, 0
10, 136980, Note_on_c, 10, 60, 120
10, 137004, Note_on_c, 10, 60, 0
10, 137010, Note_on_c, 10, 53, 127
10, 137010, Note_on_c, 10, 51, 96
10, 137010, Note_on_c, 10, 56, 121
10, 137034, Note_on_c, 10, 56, 0
10, 137034, Note_on_c, 10, 51, 0
10, 137034, Note_on_c, 10, 53, 0
10, 137040, Note_on_c, 10, 44, 121
10, 137064, Note_on_c, 10, 44, 0
10, 137070, Note_on_c, 10, 56, 118
10, 137070, Note_on_c, 10, 51, 103
10, 137070, Note_on_c, 10, 53, 127
10, 137094, Note_on_c, 10, 53, 0
10, 137094, Note_on_c, 10, 51, 0
10, 137094, Note_on_c, 10, 56, 0
10, 137100, Note_on_c, 10, 60, 123
10, 137124, Note_on_c, 10, 60, 0
10, 137130, Note_on_c, 10, 51, 97
10, 137130, Note_on_c, 10, 53, 127
10, 137130, Note_on_c, 10, 56, 115
10, 137154, Note_on_c, 10, 56, 0
10, 137154, Note_on_c, 10, 53, 0
10, 137154, Note_on_c, 10, 51, 0
10, 137160, Note_on_c, 10, 60, 109
10, 137184, Note_on_c, 10, 60, 0
10, 137190, Note_on_c, 10, 51, 100
10, 137190, Note_on_c, 10, 53, 127
10, 137190, Note_on_c, 10, 56, 113
10, 137214, Note_on_c, 10, 56, 0
10, 137214, Note_on_c, 10, 53, 0
10, 137214, Note_on_c, 10, 51, 0
10, 137220, Note_on_c, 10, 44, 123
10, 137244, Note_on_c, 10, 44, 0
10, 137250, Note_on_c, 10, 56, 115
10, 137250, Note_on_c, 10, 51, 99
10, 137250, Note_on_c, 10, 53, 127
10, 137274, Note_on_c, 10, 53, 0
10, 137274, Note_on_c, 10, 51, 0
10, 137274, Note_on_c, 10, 56, 0
10, 137280, Note_on_c, 10, 60, 118
10, 137304, Note_on_c, 10, 60, 0
10, 137310, Note_on_c, 10, 56, 126
10, 137310, Note_on_c, 10, 51, 99
10, 137310, Note_on_c, 10, 53, 127
10, 137334, Note_on_c, 10, 53, 0
10, 137334, Note_on_c, 10, 51, 0
10, 137334, Note_on_c, 10, 56, 0
10, 137340, Note_on_c, 10, 60, 120
10, 137364, Note_on_c, 10, 60, 0
10, 137370, Note_on_c, 10, 53, 127
10, 137370, Note_on_c, 10, 51, 105
10, 137370, Note_on_c, 10, 56, 111
10, 137394, Note_on_c, 10, 56, 0
10, 137394, Note_on_c, 10, 51, 0
10, 137394, Note_on_c, 10, 53, 0
10, 137400, Note_on_c, 10, 44, 121
10, 137424, Note_on_c, 10, 44, 0
10, 137430, Note_on_c, 10, 56, 118
10, 137430, Note_on_c, 10, 51, 111
10, 137430, Note_on_c, 10, 53, 127
10, 137454, Note_on_c, 10, 53, 0
10, 137454, Note_on_c, 10, 51, 0
10, 137454, Note_on_c, 10, 56, 0
10, 137460, Note_on_c, 10, 60, 127
10, 137484, Note_on_c, 10, 60, 0
10, 137490, Note_on_c, 10, 51, 113
10, 137490, Note_on_c, 10, 56, 121
10, 137490, Note_on_c, 10, 53, 127
10, 137514, Note_on_c, 10, 53, 0
10, 137514, Note_on_c, 10, 56, 0
10, 137514, Note_on_c, 10, 51, 0
10, 137520, Note_on_c, 10, 60, 127
10, 137544, Note_on_c, 10, 60, 0
10, 137550, Note_on_c, 10, 51, 111
10, 137550, Note_on_c, 10, 56, 105
10, 137550, Note_on_c, 10, 53, 127
10, 137574, Note_on_c, 10, 53, 0
10, 137574, Note_on_c, 10, 56, 0
10, 137574, Note_on_c, 10, 51, 0
10, 137580, Note_on_c, 10, 46, 127
10, 137604, Note_on_c, 10, 46, 0
10, 137610, Note_on_c, 10, 51, 113
10, 137610, Note_on_c, 10, 55, 127
10, 137634, Note_on_c, 10, 55, 0
10, 137634, Note_on_c, 10, 51, 0
10, 137640, Note_on_c, 10, 63, 127
10, 137664, Note_on_c, 10, 63, 0
10, 137670, Note_on_c, 10, 51, 86
10, 137670, Note_on_c, 10, 55, 127
10, 137694, Note_on_c, 10, 55, 0
10, 137694, Note_on_c, 10, 51, 0
10, 137700, Note_on_c, 10, 63, 113
10, 137724, Note_on_c, 10, 63, 0
10, 137730, Note_on_c, 10, 55, 127
10, 137730, Note_on_c, 10, 51, 107
10, 137754, Note_on_c, 10, 51, 0
10, 137754, Note_on_c, 10, 55, 0
10, 137760, Note_on_c, 10, 46, 127
10, 137784, Note_on_c, 10, 46, 0
10, 137790, Note_on_c, 10, 55, 127
10, 137790, Note_on_c, 10, 51, 115
10, 137814, Note_on_c, 10, 51, 0
10, 137814, Note_on_c, 10, 55, 0
10, 137820, Note_on_c, 10, 63, 127
10, 137844, Note_on_c, 10, 63, 0
10, 137850, Note_on_c, 10, 51, 115
10, 137850, Note_on_c, 10, 55, 127
10, 137874, Note_on_c, 10, 55, 0
10, 137874, Note_on_c, 10, 51, 0
10, 137880, Note_on_c, 10, 63, 105
10, 137904, Note_on_c, 10, 63, 0
10, 137910, Note_on_c, 10, 51, 115
10, 137910, Note_on_c, 10, 55, 127
10, 137934, Note_on_c, 10, 55, 0
10, 137934, Note_on_c, 10, 51, 0
10, 137940, Note_on_c, 10, 46, 127
10, 137964, Note_on_c, 10, 46, 0
10, 137970, Note_on_c, 10, 51, 121
10, 137970, Note_on_c, 10, 55, 127
10, 137994, Note_on_c, 10, 55, 0
10, 137994, Note_on_c, 10, 51, 0
10, 138000, Note_on_c, 10, 63, 109
10, 138024, Note_on_c, 10, 63, 0
10, 138030, Note_on_c, 10, 51, 113
10, 138030, Note_on_c, 10, 55, 127
10, 138054, Note_on_c, 10, 55, 0
10, 138054, Note_on_c, 10, 51, 0
10, 138060, Note_on_c, 10, 63, 88
10, 138084, Note_on_c, 10, 63, 0
10, 138090, Note_on_c, 10, 51, 105
10, 138090, Note_on_c, 10, 55, 127
10, 138114, Note_on_c, 10, 55, 0
10, 138114, Note_on_c, 10, 51, 0
10, 138120, Note_on_c, 10, 46, 127
10, 138144, Note_on_c, 10, 46, 0
10, 138150, Note_on_c, 10, 56, 127
10, 138150, Note_on_c, 10, 53, 123
10, 138174, Note_on_c, 10, 53, 0
10, 138174, Note_on_c, 10, 56, 0
10, 138180, Note_on_c, 10, 62, 127
10, 138204, Note_on_c, 10, 62, 0
10, 138210, Note_on_c, 10, 53, 113
10, 138210, Note_on_c, 10, 56, 126
10, 138234, Note_on_c, 10, 56, 0
10, 138234, Note_on_c, 10, 53, 0
10, 138240, Note_on_c, 10, 62, 114
10, 138264, Note_on_c, 10, 62, 0
10, 138270, Note_on_c, 10, 56, 123
10, 138270, Note_on_c, 10, 53, 120
10, 138294, Note_on_c, 10, 53, 0
10, 138294, Note_on_c, 10, 56, 0
10, 138300, Note_on_c, 10, 63, 113
10, 138300, Note_on_c, 10, 51, 118
10, 138300, Note_on_c, 10, 58, 127
10, 138300, Note_on_c, 10, 55, 127
10, 138396, Note_on_c, 10, 55, 0
10, 138396, Note_on_c, 10, 63, 0
10, 138396, Note_on_c, 10, 51, 0
10, 138396, Note_on_c, 10, 58, 0
10, 139020, Note_on_c, 10, 51, 123
10, 139044, Note_on_c, 10, 51, 0
10, 139050, Note_on_c, 10, 55, 127
10, 139074, Note_on_c, 10, 55, 0
10, 139080, Note_on_c, 10, 58, 123
10, 139104, Note_on_c, 10, 58, 0
10, 139110, Note_on_c, 10, 55, 127
10, 139134, Note_on_c, 10, 55, 0
10, 139140, Note_on_c, 10, 58, 121
10, 139164, Note_on_c, 10, 58, 0
10, 139170, Note_on_c, 10, 55, 127
10, 139194, Note_on_c, 10, 55, 0
10, 139200, Note_on_c, 10, 46, 127
10, 139224, Note_on_c, 10, 46, 0
10, 139230, Note_on_c, 10, 55, 127
10, 139254, Note_on_c, 10, 55, 0
10, 139260, Note_on_c, 10, 58, 95
10, 139284, Note_on_c, 10, 58, 0
10, 139290, Note_on_c, 10, 55, 127
10, 139314, Note_on_c, 10, 55, 0
10, 139320, Note_on_c, 10, 58, 99
10, 139344, Note_on_c, 10, 58, 0
10, 139350, Note_on_c, 10, 55, 127
10, 139374, Note_on_c, 10, 55, 0
10, 139380, Note_on_c, 10, 53, 127
10, 139404, Note_on_c, 10, 53, 0
10, 139410, Note_on_c, 10, 56, 118
10, 139410, Note_on_c, 10, 58, 123
10, 139434, Note_on_c, 10, 58, 0
10, 139434, Note_on_c, 10, 56, 0
10, 139440, Note_on_c, 10, 62, 127
10, 139464, Note_on_c, 10, 62, 0
10, 139470, Note_on_c, 10, 58, 115
10, 139470, Note_on_c, 10, 56, 109
10, 139494, Note_on_c, 10, 56, 0
10, 139494, Note_on_c, 10, 58, 0
10, 139500, Note_on_c, 10, 62, 127
10, 139524, Note_on_c, 10, 62, 0
10, 139530, Note_on_c, 10, 58, 118
10, 139530, Note_on_c, 10, 56, 105
10, 139554, Note_on_c, 10, 56, 0
10, 139554, Note_on_c, 10, 58, 0
10, 139560, Note_on_c, 10, 46, 127
10, 139584, Note_on_c, 10, 46, 0
10, 139590, Note_on_c, 10, 56, 121
10, 139590, Note_on_c, 10, 58, 113
10, 139614, Note_on_c, 10, 58, 0
10, 139614, Note_on_c, 10, 56, 0
10, 139620, Note_on_c, 10, 62, 127
10, 139644, Note_on_c, 10, 62, 0
10, 139650, Note_on_c, 10, 58, 118
10, 139650, Note_on_c, 10, 56, 109
10, 139674, Note_on_c, 10, 56, 0
10, 139674, Note_on_c, 10, 58, 0
10, 139680, Note_on_c, 10, 62, 127
10, 139704, Note_on_c, 10, 62, 0
10, 139710, Note_on_c, 10, 58, 115
10, 139710, Note_on_c, 10, 56, 115
10, 139734, Note_on_c, 10, 56, 0
10, 139734, Note_on_c, 10, 58, 0
10, 139740, Note_on_c, 10, 51, 123
10, 139764, Note_on_c, 10, 51, 0
10, 139770, Note_on_c, 10, 58, 126
10, 139770, Note_on_c, 10, 55, 127
10, 139794, Note_on_c, 10, 55, 0
10, 139794, Note_on_c, 10, 58, 0
10, 139800, Note_on_c, 10, 63, 127
10, 139824, Note_on_c, 10, 63, 0
10, 139830, Note_on_c, 10, 58, 126
10, 139830, Note_on_c, 10, 55, 113
10, 139854, Note_on_c, 10, 55, 0
10, 139854, Note_on_c, 10, 58, 0
10, 139860, Note_on_c, 10, 63, 121
10, 139884, Note_on_c, 10, 63, 0
10, 139890, Note_on_c, 10, 58, 115
10, 139890, Note_on_c, 10, 55, 117
10, 139914, Note_on_c, 10, 55, 0
10, 139914, Note_on_c, 10, 58, 0
10, 139920, Note_on_c, 10, 46, 127
10, 139944, Note_on_c, 10, 46, 0
10, 139950, Note_on_c, 10, 58, 126
10, 139950, Note_on_c, 10, 55, 127
10, 139974, Note_on_c, 10, 55, 0
10, 139974, Note_on_c, 10, 58, 0
10, 139980, Note_on_c, 10, 63, 118
10, 140004, Note_on_c, 10, 63, 0
10, 140010, Note_on_c, 10, 58, 118
10, 140010, Note_on_c, 10, 55, 116
10, 140034, Note_on_c, 10, 55, 0
10, 140034, Note_on_c, 10, 58, 0
10, 140040, Note_on_c, 10, 63, 118
10, 140064, Note_on_c, 10, 63, 0
10, 140070, Note_on_c, 10, 58, 123
10, 140070, Note_on_c, 10, 55, 125
10, 140094, Note_on_c, 10, 55, 0
10, 140094, Note_on_c, 10, 58, 0
10, 140100, Note_on_c, 10, 53, 127
10, 140124, Note_on_c, 10, 53, 0
10, 140130, Note_on_c, 10, 56, 109
10, 140130, Note_on_c, 10, 58, 127
10, 140154, Note_on_c, 10, 58, 0
10, 140154, Note_on_c, 10, 56, 0
10, 140160, Note_on_c, 10, 62, 118
10, 140184, Note_on_c, 10, 62, 0
10, 140190, Note_on_c, 10, 56, 93
10, 140190, Note_on_c, 10, 58, 127
10, 140214, Note_on_c, 10, 58, 0
10, 140214, Note_on_c, 10, 56, 0
10, 140220, Note_on_c, 10, 62, 123
10, 140244, Note_on_c, 10, 62, 0
10, 140250, Note_on_c, 10, 58, 127
10, 140250, Note_on_c, 10, 56, 95
10, 140274, Note_on_c, 10, 56, 0
10, 140274, Note_on_c, 10, 58, 0
10, 140280, Note_on_c, 10, 46, 127
10, 140304, Note_on_c, 10, 46, 0
10, 140310, Note_on_c, 10, 56, 113
10, 140310, Note_on_c, 10, 58, 127
10, 140334, Note_on_c, 10, 58, 0
10, 140334, Note_on_c, 10, 56, 0
10, 140340, Note_on_c, 10, 62, 127
10, 140364, Note_on_c, 10, 62, 0
10, 140370, Note_on_c, 10, 56, 103
10, 140370, Note_on_c, 10, 58, 127
10, 140394, Note_on_c, 10, 58, 0
10, 140394, Note_on_c, 10, 56, 0
10, 140400, Note_on_c, 10, 62, 109
10, 140424, Note_on_c, 10, 62, 0
10, 140430, Note_on_c, 10, 56, 111
10, 140430, Note_on_c, 10, 58, 127
10, 140454, Note_on_c, 10, 58, 0
10, 140454, Note_on_c, 10, 56, 0
10, 140460, Note_on_c, 10, 51, 127
10, 140484, Note_on_c, 10, 51, 0
10, 140490, Note_on_c, 10, 55, 127
10, 140514, Note_on_c, 10, 55, 0
10, 140520, Note_on_c, 10, 58, 127
10, 140544, Note_on_c, 10, 58, 0
10, 140550, Note_on_c, 10, 63, 126
10, 140574, Note_on_c, 10, 63, 0
10, 140580, Note_on_c, 10, 67, 127
10, 140604, Note_on_c, 10, 67, 0
10, 140610, Note_on_c, 10, 70, 127
10, 140634, Note_on_c, 10, 70, 0
10, 140640, Note_on_c, 10, 75, 123
10, 140664, Note_on_c, 10, 75, 0
10, 140670, Note_on_c, 10, 70, 126
10, 140694, Note_on_c, 10, 70, 0
10, 140700, Note_on_c, 10, 77, 125
10, 140724, Note_on_c, 10, 77, 0
10, 140730, Note_on_c, 10, 74, 127
10, 140754, Note_on_c, 10, 74, 0
10, 140760, Note_on_c, 10, 79, 127
10, 140784, Note_on_c, 10, 79, 0
10, 140790, Note_on_c, 10, 75, 109
10, 140814, Note_on_c, 10, 75, 0
10, 140820, Note_on_c, 10, 80, 126
10, 140844, Note_on_c, 10, 80, 0
10, 140850, Note_on_c, 10, 77, 127
10, 140874, Note_on_c, 10, 77, 0
10, 140880, Note_on_c, 10, 74, 127
10, 140904, Note_on_c, 10, 74, 0
10, 140910, Note_on_c, 10, 70, 123
10, 140934, Note_on_c, 10, 70, 0
10, 140940, Note_on_c, 10, 77, 112
10, 140964, Note_on_c, 10, 77, 0
10, 140970, Note_on_c, 10, 74, 104
10, 140994, Note_on_c, 10, 74, 0
10, 141000, Note_on_c, 10, 77, 120
10, 141024, Note_on_c, 10, 77, 0
10, 141030, Note_on_c, 10, 74, 127
10, 141054, Note_on_c, 10, 74, 0
10, 141060, Note_on_c, 10, 79, 127
10, 141084, Note_on_c, 10, 79, 0
10, 141090, Note_on_c, 10, 75, 99
10, 141114, Note_on_c, 10, 75, 0
10, 141120, Note_on_c, 10, 80, 115
10, 141144, Note_on_c, 10, 80, 0
10, 141150, Note_on_c, 10, 77, 127
10, 141174, Note_on_c, 10, 77, 0
10, 141180, Note_on_c, 10, 82, 118
10, 141204, Note_on_c, 10, 82, 0
10, 141210, Note_on_c, 10, 79, 127
10, 141234, Note_on_c, 10, 79, 0
10, 141240, Note_on_c, 10, 75, 123
10, 141264, Note_on_c, 10, 75, 0
10, 141270, Note_on_c, 10, 70, 95
10, 141294, Note_on_c, 10, 70, 0
10, 141300, Note_on_c, 10, 79, 127
10, 141324, Note_on_c, 10, 79, 0
10, 141330, Note_on_c, 10, 75, 118
10, 141354, Note_on_c, 10, 75, 0
10, 141360, Note_on_c, 10, 70, 121
10, 141384, Note_on_c, 10, 70, 0
10, 141390, Note_on_c, 10, 67, 123
10, 141414, Note_on_c, 10, 67, 0
10, 141420, Note_on_c, 10, 75, 113
10, 141444, Note_on_c, 10, 75, 0
10, 141450, Note_on_c, 10, 70, 123
10, 141474, Note_on_c, 10, 70, 0
10, 141480, Note_on_c, 10, 67, 127
10, 141504, Note_on_c, 10, 67, 0
10, 141510, Note_on_c, 10, 63, 118
10, 141534, Note_on_c, 10, 63, 0
10, 141540, Note_on_c, 10, 70, 111
10, 141564, Note_on_c, 10, 70, 0
10, 141570, Note_on_c, 10, 67, 127
10, 141594, Note_on_c, 10, 67, 0
10, 141600, Note_on_c, 10, 63, 127
10, 141624, Note_on_c, 10, 63, 0
10, 141630, Note_on_c, 10, 58, 107
10, 141654, Note_on_c, 10, 58, 0
10, 141660, Note_on_c, 10, 63, 127
10, 141684, Note_on_c, 10, 63, 0
10, 141690, Note_on_c, 10, 67, 127
10, 141714, Note_on_c, 10, 67, 0
10, 141720, Note_on_c, 10, 70, 111
10, 141744, Note_on_c, 10, 70, 0
10, 141750, Note_on_c, 10, 75, 121
10, 141774, Note_on_c, 10, 75, 0
10, 141780, Note_on_c, 10, 79, 127
10, 141804, Note_on_c, 10, 79, 0
10, 141810, Note_on_c, 10, 75, 123
10, 141834, Note_on_c, 10, 75, 0
10, 141840, Note_on_c, 10, 82, 121
10, 141864, Note_on_c, 10, 82, 0
10, 141870, Note_on_c, 10, 79, 127
10, 141894, Note_on_c, 10, 79, 0
10, 141900, Note_on_c, 10, 84, 127
10, 141924, Note_on_c, 10, 84, 0
10, 141930, Note_on_c, 10, 80, 127
10, 141954, Note_on_c, 10, 80, 0
10, 141960, Note_on_c, 10, 77, 127
10, 141984, Note_on_c, 10, 77, 0
10, 141990, Note_on_c, 10, 72, 102
10, 142014, Note_on_c, 10, 72, 0
10, 142020, Note_on_c, 10, 80, 127
10, 142044, Note_on_c, 10, 80, 0
10, 142050, Note_on_c, 10, 77, 127
10, 142074, Note_on_c, 10, 77, 0
10, 142080, Note_on_c, 10, 72, 127
10, 142104, Note_on_c, 10, 72, 0
10, 142110, Note_on_c, 10, 68, 115
10, 142134, Note_on_c, 10, 68, 0
10, 142140, Note_on_c, 10, 77, 127
10, 142164, Note_on_c, 10, 77, 0
10, 142170, Note_on_c, 10, 72, 127
10, 142194, Note_on_c, 10, 72, 0
10, 142200, Note_on_c, 10, 68, 113
10, 142224, Note_on_c, 10, 68, 0
10, 142230, Note_on_c, 10, 65, 127
10, 142254, Note_on_c, 10, 65, 0
10, 142260, Note_on_c, 10, 72, 127
10, 142284, Note_on_c, 10, 72, 0
10, 142290, Note_on_c, 10, 68, 127
10, 142314, Note_on_c, 10, 68, 0
10, 142320, Note_on_c, 10, 65, 127
10, 142344, Note_on_c, 10, 65, 0
10, 142350, Note_on_c, 10, 60, 127
10, 142374, Note_on_c, 10, 60, 0
10, 142380, Note_on_c, 10, 65, 127
10, 142404, Note_on_c, 10, 65, 0
10, 142410, Note_on_c, 10, 68, 123
10, 142434, Note_on_c, 10, 68, 0
10, 142440, Note_on_c, 10, 72, 127
10, 142464, Note_on_c, 10, 72, 0
10, 142470, Note_on_c, 10, 77, 127
10, 142494, Note_on_c, 10, 77, 0
10, 142500, Note_on_c, 10, 80, 123
10, 142524, Note_on_c, 10, 80, 0
10, 142530, Note_on_c, 10, 77, 127
10, 142554, Note_on_c, 10, 77, 0
10, 142560, Note_on_c, 10, 84, 127
10, 142584, Note_on_c, 10, 84, 0
10, 142590, Note_on_c, 10, 80, 126
10, 142614, Note_on_c, 10, 80, 0
10, 142620, Note_on_c, 10, 84, 111
10, 142668, Note_on_c, 10, 84, 0
10, 142680, Note_on_c, 10, 82, 118
10, 142704, Note_on_c, 10, 82, 0
10, 142710, Note_on_c, 10, 80, 118
10, 142734, Note_on_c, 10, 80, 0
10, 142740, Note_on_c, 10, 79, 127
10, 142764, Note_on_c, 10, 79, 0
10, 142770, Note_on_c, 10, 77, 117
10, 142794, Note_on_c, 10, 77, 0
10, 142800, Note_on_c, 10, 75, 113
10, 142824, Note_on_c, 10, 75, 0
10, 142830, Note_on_c, 10, 74, 127
10, 142854, Note_on_c, 10, 74, 0
10, 142860, Note_on_c, 10, 72, 114
10, 142884, Note_on_c, 10, 72, 0
10, 142890, Note_on_c, 10, 70, 96
10, 142914, Note_on_c, 10, 70, 0
10, 142920, Note_on_c, 10, 68, 118
10, 142944, Note_on_c, 10, 68, 0
10, 142950, Note_on_c, 10, 67, 127
10, 142974, Note_on_c, 10, 67, 0
10, 142980, Note_on_c, 10, 65, 127
10, 143004, Note_on_c, 10, 65, 0
10, 143010, Note_on_c, 10, 63, 115
10, 143034, Note_on_c, 10, 63, 0
10, 143040, Note_on_c, 10, 62, 121
10, 143064, Note_on_c, 10, 62, 0
10, 143070, Note_on_c, 10, 63, 123
10, 143094, Note_on_c, 10, 63, 0
10, 143100, Note_on_c, 10, 67, 125
10, 143124, Note_on_c, 10, 67, 0
10, 143130, Note_on_c, 10, 63, 123
10, 143154, Note_on_c, 10, 63, 0
10, 143160, Note_on_c, 10, 70, 118
10, 143184, Note_on_c, 10, 70, 0
10, 143190, Note_on_c, 10, 67, 120
10, 143214, Note_on_c, 10, 67, 0
10, 143220, Note_on_c, 10, 75, 118
10, 143244, Note_on_c, 10, 75, 0
10, 143250, Note_on_c, 10, 70, 118
10, 143274, Note_on_c, 10, 70, 0
10, 143280, Note_on_c, 10, 79, 127
10, 143304, Note_on_c, 10, 79, 0
10, 143310, Note_on_c, 10, 77, 127
10, 143334, Note_on_c, 10, 77, 0
10, 143340, Note_on_c, 10, 75, 127
10, 143436, Note_on_c, 10, 75, 0
10, 145140, Note_on_c, 10, 63, 126
10, 145140, Note_on_c, 10, 60, 127
10, 145284, Note_on_c, 10, 60, 0
10, 145284, Note_on_c, 10, 63, 0
10, 145320, Note_on_c, 10, 56, 109
10, 145320, Note_on_c, 10, 60, 127
10, 145464, Note_on_c, 10, 60, 0
10, 145464, Note_on_c, 10, 56, 0
10, 145500, Note_on_c, 10, 58, 126
10, 145500, Note_on_c, 10, 55, 121
10, 145596, Note_on_c, 10, 55, 0
10, 145596, Note_on_c, 10, 58, 0
10, 145860, Note_on_c, 10, 58, 111
10, 145860, Note_on_c, 10, 68, 115
10, 145860, Note_on_c, 10, 65, 127
10, 146004, Note_on_c, 10, 65, 0
10, 146004, Note_on_c, 10, 68, 0
10, 146040, Note_on_c, 10, 65, 127
10, 146040, Note_on_c, 10, 62, 127
10, 146148, Note_on_c, 10, 58, 0
10, 146184, Note_on_c, 10, 62, 0
10, 146184, Note_on_c, 10, 65, 0
10, 146220, Note_on_c, 10, 58, 115
10, 146220, Note_on_c, 10, 68, 121
10, 146220, Note_on_c, 10, 65, 127
10, 146364, Note_on_c, 10, 65, 0
10, 146364, Note_on_c, 10, 68, 0
10, 146400, Note_on_c, 10, 65, 127
10, 146400, Note_on_c, 10, 62, 123
10, 146508, Note_on_c, 10, 58, 0
10, 146544, Note_on_c, 10, 62, 0
10, 146544, Note_on_c, 10, 65, 0
10, 146580, Note_on_c, 10, 58, 123
10, 146580, Note_on_c, 10, 68, 118
10, 146580, Note_on_c, 10, 65, 127
10, 146724, Note_on_c, 10, 65, 0
10, 146724, Note_on_c, 10, 68, 0
10, 146760, Note_on_c, 10, 65, 127
10, 146760, Note_on_c, 10, 62, 118
10, 146868, Note_on_c, 10, 58, 0
10, 146904, Note_on_c, 10, 62, 0
10, 146904, Note_on_c, 10, 65, 0
10, 146940, Note_on_c, 10, 58, 109
10, 146940, Note_on_c, 10, 61, 109
10, 146940, Note_on_c, 10, 64, 127
10, 147084, Note_on_c, 10, 64, 0
10, 147084, Note_on_c, 10, 61, 0
10, 147120, Note_on_c, 10, 62, 121
10, 147120, Note_on_c, 10, 65, 127
10, 147228, Note_on_c, 10, 58, 0
10, 147264, Note_on_c, 10, 65, 0
10, 147264, Note_on_c, 10, 62, 0
10, 147300, Note_on_c, 10, 59, 125
10, 147300, Note_on_c, 10, 62, 127
10, 147300, Note_on_c, 10, 65, 121
10, 147444, Note_on_c, 10, 65, 0
10, 147444, Note_on_c, 10, 62, 0
10, 147444, Note_on_c, 10, 59, 0
10, 147480, Note_on_c, 10, 63, 121
10, 147480, Note_on_c, 10, 60, 112
10, 147624, Note_on_c, 10, 60, 0
10, 147624, Note_on_c, 10, 63, 0
10, 147660, Note_on_c, 10, 63, 88
10, 147660, Note_on_c, 10, 60, 127
10, 147660, Note_on_c, 10, 57, 118
10, 147804, Note_on_c, 10, 57, 0
10, 147804, Note_on_c, 10, 60, 0
10, 147804, Note_on_c, 10, 63, 0
10, 147840, Note_on_c, 10, 58, 118
10, 147840, Note_on_c, 10, 62, 127
10, 147984, Note_on_c, 10, 62, 0
10, 147984, Note_on_c, 10, 58, 0
10, 148020, Note_on_c, 10, 61, 107
10, 148020, Note_on_c, 10, 58, 121
10, 148020, Note_on_c, 10, 55, 121
10, 148164, Note_on_c, 10, 55, 0
10, 148164, Note_on_c, 10, 58, 0
10, 148164, Note_on_c, 10, 61, 0
10, 148200, Note_on_c, 10, 55, 127
10, 148200, Note_on_c, 10, 60, 127
10, 148200, Note_on_c, 10, 58, 105
10, 148200, Note_on_c, 10, 52, 114
10, 148344, Note_on_c, 10, 52, 0
10, 148344, Note_on_c, 10, 55, 0
10, 148344, Note_on_c, 10, 60, 0
10, 148344, Note_on_c, 10, 58, 0
10, 148380, Note_on_c, 10, 58, 111
10, 148380, Note_on_c, 10, 48, 127
10, 148380, Note_on_c, 10, 52, 127
10, 148380, Note_on_c, 10, 55, 127
10, 148524, Note_on_c, 10, 55, 0
10, 148524, Note_on_c, 10, 58, 0
10, 148524, Note_on_c, 10, 48, 0
10, 148524, Note_on_c, 10, 52, 0
10, 148560, Note_on_c, 10, 56, 121
10, 148560, Note_on_c, 10, 53, 127
10, 148704, Note_on_c, 10, 53, 0
10, 148704, Note_on_c, 10, 56, 0
10, 148740, Note_on_c, 10, 46, 121
10, 148740, Note_on_c, 10, 56, 123
10, 148740, Note_on_c, 10, 53, 127
10, 148884, Note_on_c, 10, 53, 0
10, 148884, Note_on_c, 10, 56, 0
10, 148920, Note_on_c, 10, 51, 121
10, 148920, Note_on_c, 10, 55, 127
10, 149028, Note_on_c, 10, 46, 0
10, 149064, Note_on_c, 10, 55, 0
10, 149064, Note_on_c, 10, 51, 0
10, 149100, Note_on_c, 10, 46, 113
10, 149100, Note_on_c, 10, 56, 123
10, 149100, Note_on_c, 10, 53, 127
10, 149244, Note_on_c, 10, 53, 0
10, 149244, Note_on_c, 10, 56, 0
10, 149280, Note_on_c, 10, 53, 127
10, 149280, Note_on_c, 10, 50, 127
10, 149388, Note_on_c, 10, 46, 0
10, 149424, Note_on_c, 10, 50, 0
10, 149424, Note_on_c, 10, 53, 0
10, 149460, Note_on_c, 10, 39, 109
10, 149508, Note_on_c, 10, 39, 0
10, 149520, Note_on_c, 10, 55, 127
10, 149616, Note_on_c, 10, 55, 0
10, 149820, Note_on_c, 10, 39, 115
10, 149868, Note_on_c, 10, 39, 0
10, 149880, Note_on_c, 10, 55, 121
10, 149976, Note_on_c, 10, 55, 0
10, 150180, Note_on_c, 10, 39, 126
10, 150324, Note_on_c, 10, 39, 0
10, 150540, Note_on_c, 10, 46, 81
10, 150540, Note_on_c, 10, 39, 127
10, 150684, Note_on_c, 10, 39, 0
10, 150684, Note_on_c, 10, 46, 0
10, 150900, Note_on_c, 10, 39, 118
10, 150924, Note_on_c, 10, 39, 0
10, 150930, Note_on_c, 10, 41, 127
10, 150954, Note_on_c, 10, 41, 0
10, 150960, Note_on_c, 10, 43, 127
10, 150984, Note_on_c, 10, 43, 0
10, 150990, Note_on_c, 10, 44, 109
10, 151014, Note_on_c, 10, 44, 0
10, 151020, Note_on_c, 10, 46, 123
10, 151044, Note_on_c, 10, 46, 0
10, 151050, Note_on_c, 10, 48, 127
10, 151074, Note_on_c, 10, 48, 0
10, 151080, Note_on_c, 10, 50, 127
10, 151104, Note_on_c, 10, 50, 0
10, 151110, Note_on_c, 10, 51, 115
10, 151134, Note_on_c, 10, 51, 0
10, 151140, Note_on_c, 10, 50, 127
10, 151164, Note_on_c, 10, 50, 0
10, 151170, Note_on_c, 10, 48, 127
10, 151194, Note_on_c, 10, 48, 0
10, 151200, Note_on_c, 10, 46, 107
10, 151224, Note_on_c, 10, 46, 0
10, 151230, Note_on_c, 10, 45, 127
10, 151254, Note_on_c, 10, 45, 0
10, 151260, Note_on_c, 10, 46, 127
10, 151284, Note_on_c, 10, 46, 0
10, 151290, Note_on_c, 10, 48, 127
10, 151314, Note_on_c, 10, 48, 0
10, 151320, Note_on_c, 10, 50, 127
10, 151344, Note_on_c, 10, 50, 0
10, 151350, Note_on_c, 10, 51, 127
10, 151374, Note_on_c, 10, 51, 0
10, 151380, Note_on_c, 10, 53, 127
10, 151404, Note_on_c, 10, 53, 0
10, 151410, Note_on_c, 10, 55, 127
10, 151434, Note_on_c, 10, 55, 0
10, 151440, Note_on_c, 10, 56, 126
10, 151464, Note_on_c, 10, 56, 0
10, 151470, Note_on_c, 10, 58, 118
10, 151494, Note_on_c, 10, 58, 0
10, 151500, Note_on_c, 10, 56, 121
10, 151524, Note_on_c, 10, 56, 0
10, 151530, Note_on_c, 10, 55, 127
10, 151554, Note_on_c, 10, 55, 0
10, 151560, Note_on_c, 10, 53, 127
10, 151576, Note_on_c, 10, 53, 0
10, 151580, Note_on_c, 10, 51, 123
10, 151596, Note_on_c, 10, 51, 0
10, 151600, Note_on_c, 10, 50, 127
10, 151616, Note_on_c, 10, 50, 0
10, 151620, Note_on_c, 10, 51, 126
10, 151644, Note_on_c, 10, 51, 0
10, 151650, Note_on_c, 10, 53, 127
10, 151674, Note_on_c, 10, 53, 0
10, 151680, Note_on_c, 10, 55, 127
10, 151704, Note_on_c, 10, 55, 0
10, 151710, Note_on_c, 10, 56, 121
10, 151734, Note_on_c, 10, 56, 0
10, 151740, Note_on_c, 10, 58, 111
10, 151764, Note_on_c, 10, 58, 0
10, 151770, Note_on_c, 10, 60, 127
10, 151794, Note_on_c, 10, 60, 0
10, 151800, Note_on_c, 10, 62, 127
10, 151824, Note_on_c, 10, 62, 0
10, 151830, Note_on_c, 10, 63, 121
10, 151854, Note_on_c, 10, 63, 0
10, 151860, Note_on_c, 10, 62, 127
10, 151884, Note_on_c, 10, 62, 0
10, 151890, Note_on_c, 10, 60, 127
10, 151914, Note_on_c, 10, 60, 0
10, 151920, Note_on_c, 10, 58, 84
10, 151944, Note_on_c, 10, 58, 0
10, 151950, Note_on_c, 10, 56, 126
10, 151974, Note_on_c, 10, 56, 0
10, 151980, Note_on_c, 10, 55, 116
10, 152004, Note_on_c, 10, 55, 0
10, 152010, Note_on_c, 10, 56, 126
10, 152034, Note_on_c, 10, 56, 0
10, 152040, Note_on_c, 10, 58, 123
10, 152064, Note_on_c, 10, 58, 0
10, 152070, Note_on_c, 10, 60, 116
10, 152094, Note_on_c, 10, 60, 0
10, 152100, Note_on_c, 10, 62, 127
10, 152116, Note_on_c, 10, 62, 0
10, 152120, Note_on_c, 10, 63, 121
10, 152136, Note_on_c, 10, 63, 0
10, 152140, Note_on_c, 10, 65, 127
10, 152156, Note_on_c, 10, 65, 0
10, 152160, Note_on_c, 10, 67, 127
10, 152176, Note_on_c, 10, 67, 0
10, 152180, Note_on_c, 10, 65, 127
10, 152196, Note_on_c, 10, 65, 0
10, 152200, Note_on_c, 10, 63, 115
10, 152216, Note_on_c, 10, 63, 0
10, 152220, Note_on_c, 10, 62, 127
10, 152236, Note_on_c, 10, 62, 0
10, 152240, Note_on_c, 10, 60, 127
10, 152256, Note_on_c, 10, 60, 0
10, 152260, Note_on_c, 10, 58, 107
10, 152276, Note_on_c, 10, 58, 0
10, 152280, Note_on_c, 10, 56, 121
10, 152296, Note_on_c, 10, 56, 0
10, 152300, Note_on_c, 10, 55, 121
10, 152316, Note_on_c, 10, 55, 0
10, 152320, Note_on_c, 10, 53, 127
10, 152336, Note_on_c, 10, 53, 0
10, 152340, Note_on_c, 10, 51, 121
10, 152364, Note_on_c, 10, 51, 0
10, 152370, Note_on_c, 10, 53, 127
10, 152394, Note_on_c, 10, 53, 0
10, 152400, Note_on_c, 10, 55, 127
10, 152424, Note_on_c, 10, 55, 0
10, 152430, Note_on_c, 10, 56, 115
10, 152454, Note_on_c, 10, 56, 0
10, 152460, Note_on_c, 10, 58, 95
10, 152484, Note_on_c, 10, 58, 0
10, 152490, Note_on_c, 10, 60, 127
10, 152514, Note_on_c, 10, 60, 0
10, 152520, Note_on_c, 10, 62, 127
10, 152544, Note_on_c, 10, 62, 0
10, 152550, Note_on_c, 10, 63, 118
10, 152574, Note_on_c, 10, 63, 0
10, 152580, Note_on_c, 10, 62, 127
10, 152604, Note_on_c, 10, 62, 0
10, 152610, Note_on_c, 10, 60, 127
10, 152634, Note_on_c, 10, 60, 0
10, 152640, Note_on_c, 10, 58, 113
10, 152664, Note_on_c, 10, 58, 0
10, 152670, Note_on_c, 10, 57, 127
10, 152694, Note_on_c, 10, 57, 0
10, 152700, Note_on_c, 10, 58, 121
10, 152716, Note_on_c, 10, 58, 0
10, 152720, Note_on_c, 10, 60, 127
10, 152736, Note_on_c, 10, 60, 0
10, 152740, Note_on_c, 10, 62, 127
10, 152756, Note_on_c, 10, 62, 0
10, 152760, Note_on_c, 10, 63, 126
10, 152776, Note_on_c, 10, 63, 0
10, 152780, Note_on_c, 10, 65, 127
10, 152796, Note_on_c, 10, 65, 0
10, 152800, Note_on_c, 10, 67, 127
10, 152816, Note_on_c, 10, 67, 0
10, 152820, Note_on_c, 10, 68, 121
10, 152836, Note_on_c, 10, 68, 0
10, 152840, Note_on_c, 10, 70, 111
10, 152856, Note_on_c, 10, 70, 0
10, 152860, Note_on_c, 10, 72, 127
10, 152876, Note_on_c, 10, 72, 0
10, 152880, Note_on_c, 10, 74, 127
10, 152896, Note_on_c, 10, 74, 0
10, 152900, Note_on_c, 10, 75, 115
10, 152916, Note_on_c, 10, 75, 0
10, 152920, Note_on_c, 10, 77, 127
10, 152936, Note_on_c, 10, 77, 0
10, 152940, Note_on_c, 10, 79, 127
10, 152956, Note_on_c, 10, 79, 0
10, 152960, Note_on_c, 10, 80, 118
10, 152976, Note_on_c, 10, 80, 0
10, 152980, Note_on_c, 10, 82, 121
10, 152996, Note_on_c, 10, 82, 0
10, 153000, Note_on_c, 10, 84, 127
10, 153024, Note_on_c, 10, 84, 0
10, 153030, Note_on_c, 10, 86, 127
10, 153054, Note_on_c, 10, 86, 0
10, 153060, Note_on_c, 10, 87, 127
10, 153156, Note_on_c, 10, 87, 0
10, 153156, End_track
11, 0, Start_track
11, 0, MIDI_port, 0
11, 0, Title_t, "Violin I"
11, 0, Program_c, 11, 48
11, 0, Control_c, 11, 7, 109
11, 0, Control_c, 11, 10, 64
11, 0, Control_c, 11, 93, 0
11, 0, Control_c, 11, 91, 0
11, 5700, Note_on_c, 11, 70, 127
11, 5748, Note_on_c, 11, 70, 0
11, 5760, Note_on_c, 11, 70, 127
11, 5808, Note_on_c, 11, 70, 0
11, 5820, Note_on_c, 11, 75, 118
11, 5868, Note_on_c, 11, 75, 0
11, 5880, Note_on_c, 11, 75, 94
11, 5928, Note_on_c, 11, 75, 0
11, 5940, Note_on_c, 11, 79, 127
11, 5988, Note_on_c, 11, 79, 0
11, 6060, Note_on_c, 11, 79, 114
11, 6084, Note_on_c, 11, 79, 0
11, 6090, Note_on_c, 11, 82, 121
11, 6114, Note_on_c, 11, 82, 0
11, 6120, Note_on_c, 11, 82, 121
11, 6144, Note_on_c, 11, 82, 0
11, 6150, Note_on_c, 11, 87, 109
11, 6174, Note_on_c, 11, 87, 0
11, 6180, Note_on_c, 11, 87, 118
11, 6396, Note_on_c, 11, 87, 0
11, 6420, Note_on_c, 11, 87, 115
11, 6444, Note_on_c, 11, 87, 0
11, 6450, Note_on_c, 11, 91, 105
11, 6474, Note_on_c, 11, 91, 0
11, 6480, Note_on_c, 11, 89, 105
11, 6528, Note_on_c, 11, 89, 0
11, 6600, Note_on_c, 11, 86, 101
11, 6624, Note_on_c, 11, 86, 0
11, 6630, Note_on_c, 11, 89, 107
11, 6654, Note_on_c, 11, 89, 0
11, 6660, Note_on_c, 11, 87, 113
11, 6708, Note_on_c, 11, 87, 0
11, 6780, Note_on_c, 11, 82, 121
11, 6828, Note_on_c, 11, 82, 0
11, 6840, Note_on_c, 11, 82, 111
11, 6852, Note_on_c, 11, 82, 0
11, 6855, Note_on_c, 11, 84, 123
11, 6867, Note_on_c, 11, 84, 0
11, 6870, Note_on_c, 11, 82, 111
11, 6882, Note_on_c, 11, 82, 0
11, 6885, Note_on_c, 11, 84, 127
11, 6897, Note_on_c, 11, 84, 0
11, 6900, Note_on_c, 11, 82, 109
11, 6912, Note_on_c, 11, 82, 0
11, 6915, Note_on_c, 11, 84, 123
11, 6927, Note_on_c, 11, 84, 0
11, 6930, Note_on_c, 11, 82, 111
11, 6942, Note_on_c, 11, 82, 0
11, 6945, Note_on_c, 11, 84, 127
11, 6957, Note_on_c, 11, 84, 0
11, 6960, Note_on_c, 11, 82, 115
11, 6984, Note_on_c, 11, 82, 0
11, 6990, Note_on_c, 11, 81, 127
11, 7014, Note_on_c, 11, 81, 0
11, 7020, Note_on_c, 11, 82, 127
11, 7068, Note_on_c, 11, 82, 0
11, 7140, Note_on_c, 11, 70, 115
11, 7188, Note_on_c, 11, 70, 0
11, 7200, Note_on_c, 11, 70, 118
11, 7248, Note_on_c, 11, 70, 0
11, 7260, Note_on_c, 11, 75, 121
11, 7308, Note_on_c, 11, 75, 0
11, 7320, Note_on_c, 11, 75, 96
11, 7368, Note_on_c, 11, 75, 0
11, 7380, Note_on_c, 11, 79, 120
11, 7428, Note_on_c, 11, 79, 0
11, 7500, Note_on_c, 11, 79, 113
11, 7524, Note_on_c, 11, 79, 0
11, 7530, Note_on_c, 11, 82, 126
11, 7554, Note_on_c, 11, 82, 0
11, 7560, Note_on_c, 11, 82, 127
11, 7584, Note_on_c, 11, 82, 0
11, 7590, Note_on_c, 11, 87, 107
11, 7614, Note_on_c, 11, 87, 0
11, 7620, Note_on_c, 11, 87, 127
11, 7836, Note_on_c, 11, 87, 0
11, 7860, Note_on_c, 11, 87, 118
11, 7884, Note_on_c, 11, 87, 0
11, 7890, Note_on_c, 11, 91, 109
11, 7914, Note_on_c, 11, 91, 0
11, 7920, Note_on_c, 11, 89, 105
11, 7968, Note_on_c, 11, 89, 0
11, 8040, Note_on_c, 11, 86, 112
11, 8064, Note_on_c, 11, 86, 0
11, 8070, Note_on_c, 11, 89, 109
11, 8094, Note_on_c, 11, 89, 0
11, 8100, Note_on_c, 11, 87, 121
11, 8148, Note_on_c, 11, 87, 0
11, 8220, Note_on_c, 11, 82, 127
11, 8268, Note_on_c, 11, 82, 0
11, 8280, Note_on_c, 11, 82, 105
11, 8292, Note_on_c, 11, 82, 0
11, 8295, Note_on_c, 11, 84, 127
11, 8307, Note_on_c, 11, 84, 0
11, 8310, Note_on_c, 11, 82, 111
11, 8322, Note_on_c, 11, 82, 0
11, 8325, Note_on_c, 11, 84, 125
11, 8337, Note_on_c, 11, 84, 0
11, 8340, Note_on_c, 11, 82, 109
11, 8352, Note_on_c, 11, 82, 0
11, 8355, Note_on_c, 11, 84, 121
11, 8367, Note_on_c, 11, 84, 0
11, 8370, Note_on_c, 11, 82, 111
11, 8382, Note_on_c, 11, 82, 0
11, 8385, Note_on_c, 11, 84, 127
11, 8397, Note_on_c, 11, 84, 0
11, 8400, Note_on_c, 11, 82, 111
11, 8424, Note_on_c, 11, 82, 0
11, 8430, Note_on_c, 11, 81, 127
11, 8454, Note_on_c, 11, 81, 0
11, 8460, Note_on_c, 11, 82, 127
11, 8508, Note_on_c, 11, 82, 0
11, 8580, Note_on_c, 11, 82, 118
11, 8604, Note_on_c, 11, 82, 0
11, 8610, Note_on_c, 11, 80, 97
11, 8634, Note_on_c, 11, 80, 0
11, 8640, Note_on_c, 11, 81, 120
11, 8688, Note_on_c, 11, 81, 0
11, 8760, Note_on_c, 11, 80, 111
11, 8784, Note_on_c, 11, 80, 0
11, 8790, Note_on_c, 11, 79, 113
11, 8814, Note_on_c, 11, 79, 0
11, 8820, Note_on_c, 11, 79, 127
11, 8868, Note_on_c, 11, 79, 0
11, 8940, Note_on_c, 11, 78, 121
11, 8964, Note_on_c, 11, 78, 0
11, 8970, Note_on_c, 11, 77, 127
11, 8994, Note_on_c, 11, 77, 0
11, 9000, Note_on_c, 11, 77, 111
11, 9048, Note_on_c, 11, 77, 0
11, 9120, Note_on_c, 11, 76, 109
11, 9144, Note_on_c, 11, 76, 0
11, 9150, Note_on_c, 11, 75, 101
11, 9174, Note_on_c, 11, 75, 0
11, 9180, Note_on_c, 11, 75, 111
11, 9228, Note_on_c, 11, 75, 0
11, 9300, Note_on_c, 11, 75, 105
11, 9324, Note_on_c, 11, 75, 0
11, 9330, Note_on_c, 11, 74, 85
11, 9354, Note_on_c, 11, 74, 0
11, 9360, Note_on_c, 11, 74, 117
11, 9456, Note_on_c, 11, 74, 0
11, 9480, Note_on_c, 11, 74, 107
11, 9528, Note_on_c, 11, 74, 0
11, 9540, Note_on_c, 11, 74, 111
11, 9612, Note_on_c, 11, 74, 0
11, 9630, Note_on_c, 11, 75, 107
11, 9654, Note_on_c, 11, 75, 0
11, 9660, Note_on_c, 11, 77, 113
11, 9708, Note_on_c, 11, 77, 0
11, 9720, Note_on_c, 11, 77, 120
11, 9768, Note_on_c, 11, 77, 0
11, 9780, Note_on_c, 11, 79, 121
11, 9828, Note_on_c, 11, 79, 0
11, 9840, Note_on_c, 11, 75, 97
11, 9888, Note_on_c, 11, 75, 0
11, 9900, Note_on_c, 11, 75, 101
11, 9996, Note_on_c, 11, 75, 0
11, 10020, Note_on_c, 11, 75, 115
11, 10044, Note_on_c, 11, 75, 0
11, 10050, Note_on_c, 11, 74, 127
11, 10074, Note_on_c, 11, 74, 0
11, 10080, Note_on_c, 11, 74, 127
11, 10176, Note_on_c, 11, 74, 0
11, 10200, Note_on_c, 11, 74, 127
11, 10248, Note_on_c, 11, 74, 0
11, 10260, Note_on_c, 11, 74, 127
11, 10332, Note_on_c, 11, 74, 0
11, 10350, Note_on_c, 11, 75, 121
11, 10374, Note_on_c, 11, 75, 0
11, 10380, Note_on_c, 11, 77, 127
11, 10428, Note_on_c, 11, 77, 0
11, 10440, Note_on_c, 11, 77, 127
11, 10464, Note_on_c, 11, 77, 0
11, 10470, Note_on_c, 11, 79, 127
11, 10494, Note_on_c, 11, 79, 0
11, 10560, Note_on_c, 11, 75, 97
11, 10608, Note_on_c, 11, 75, 0
11, 10620, Note_on_c, 11, 75, 107
11, 10692, Note_on_c, 11, 75, 0
11, 10710, Note_on_c, 11, 77, 103
11, 10734, Note_on_c, 11, 77, 0
11, 10740, Note_on_c, 11, 79, 104
11, 10788, Note_on_c, 11, 79, 0
11, 10800, Note_on_c, 11, 79, 110
11, 10824, Note_on_c, 11, 79, 0
11, 10830, Note_on_c, 11, 80, 123
11, 10854, Note_on_c, 11, 80, 0
11, 10920, Note_on_c, 11, 77, 98
11, 10968, Note_on_c, 11, 77, 0
11, 10980, Note_on_c, 11, 77, 105
11, 11052, Note_on_c, 11, 77, 0
11, 11070, Note_on_c, 11, 79, 109
11, 11094, Note_on_c, 11, 79, 0
11, 11100, Note_on_c, 11, 80, 127
11, 11148, Note_on_c, 11, 80, 0
11, 11160, Note_on_c, 11, 80, 127
11, 11184, Note_on_c, 11, 80, 0
11, 11190, Note_on_c, 11, 82, 111
11, 11214, Note_on_c, 11, 82, 0
11, 11280, Note_on_c, 11, 79, 127
11, 11328, Note_on_c, 11, 79, 0
11, 11340, Note_on_c, 11, 79, 127
11, 11412, Note_on_c, 11, 79, 0
11, 11430, Note_on_c, 11, 80, 127
11, 11454, Note_on_c, 11, 80, 0
11, 11460, Note_on_c, 11, 82, 113
11, 11508, Note_on_c, 11, 82, 0
11, 11520, Note_on_c, 11, 84, 127
11, 11592, Note_on_c, 11, 84, 0
11, 11610, Note_on_c, 11, 82, 113
11, 11634, Note_on_c, 11, 82, 0
11, 11640, Note_on_c, 11, 80, 111
11, 11688, Note_on_c, 11, 80, 0
11, 11700, Note_on_c, 11, 79, 127
11, 11772, Note_on_c, 11, 79, 0
11, 11790, Note_on_c, 11, 77, 127
11, 11814, Note_on_c, 11, 77, 0
11, 11820, Note_on_c, 11, 75, 113
11, 11868, Note_on_c, 11, 75, 0
11, 11880, Note_on_c, 11, 74, 113
11, 11952, Note_on_c, 11, 74, 0
11, 11970, Note_on_c, 11, 72, 123
11, 11994, Note_on_c, 11, 72, 0
11, 12000, Note_on_c, 11, 70, 88
11, 12048, Note_on_c, 11, 70, 0
11, 12060, Note_on_c, 11, 79, 108
11, 12132, Note_on_c, 11, 79, 0
11, 12150, Note_on_c, 11, 80, 85
11, 12174, Note_on_c, 11, 80, 0
11, 12180, Note_on_c, 11, 82, 102
11, 12228, Note_on_c, 11, 82, 0
11, 12240, Note_on_c, 11, 84, 98
11, 12336, Note_on_c, 11, 84, 0
11, 12420, Note_on_c, 11, 70, 103
11, 12420, Note_on_c, 11, 77, 103
11, 12420, Note_on_c, 11, 86, 117
11, 12516, Note_on_c, 11, 86, 0
11, 12516, Note_on_c, 11, 77, 0
11, 12516, Note_on_c, 11, 70, 0
11, 12600, Note_on_c, 11, 70, 107
11, 12600, Note_on_c, 11, 79, 107
11, 12600, Note_on_c, 11, 87, 107
11, 12696, Note_on_c, 11, 87, 0
11, 12696, Note_on_c, 11, 79, 0
11, 12696, Note_on_c, 11, 70, 0
11, 12960, Note_on_c, 11, 87, 103
11, 13104, Note_on_c, 11, 87, 0
11, 13140, Note_on_c, 11, 84, 127
11, 13164, Note_on_c, 11, 84, 0
11, 13170, Note_on_c, 11, 83, 121
11, 13194, Note_on_c, 11, 83, 0
11, 13200, Note_on_c, 11, 84, 127
11, 13224, Note_on_c, 11, 84, 0
11, 13230, Note_on_c, 11, 86, 127
11, 13254, Note_on_c, 11, 86, 0
11, 13260, Note_on_c, 11, 87, 127
11, 13284, Note_on_c, 11, 87, 0
11, 13290, Note_on_c, 11, 84, 127
11, 13314, Note_on_c, 11, 84, 0
11, 13320, Note_on_c, 11, 82, 93
11, 13416, Note_on_c, 11, 82, 0
11, 13680, Note_on_c, 11, 80, 97
11, 13824, Note_on_c, 11, 80, 0
11, 13860, Note_on_c, 11, 77, 127
11, 13884, Note_on_c, 11, 77, 0
11, 13890, Note_on_c, 11, 76, 127
11, 13914, Note_on_c, 11, 76, 0
11, 13920, Note_on_c, 11, 77, 127
11, 13944, Note_on_c, 11, 77, 0
11, 13950, Note_on_c, 11, 79, 127
11, 13974, Note_on_c, 11, 79, 0
11, 13980, Note_on_c, 11, 80, 118
11, 14004, Note_on_c, 11, 80, 0
11, 14010, Note_on_c, 11, 77, 127
11, 14034, Note_on_c, 11, 77, 0
11, 14040, Note_on_c, 11, 55, 97
11, 14040, Note_on_c, 11, 63, 97
11, 14040, Note_on_c, 11, 75, 97
11, 14136, Note_on_c, 11, 75, 0
11, 14136, Note_on_c, 11, 63, 0
11, 14136, Note_on_c, 11, 55, 0
11, 14400, Note_on_c, 11, 55, 84
11, 14400, Note_on_c, 11, 63, 84
11, 14400, Note_on_c, 11, 70, 84
11, 14400, Note_on_c, 11, 79, 114
11, 14496, Note_on_c, 11, 79, 0
11, 14496, Note_on_c, 11, 55, 0
11, 14496, Note_on_c, 11, 63, 0
11, 14496, Note_on_c, 11, 70, 0
11, 14760, Note_on_c, 11, 55, 113
11, 14760, Note_on_c, 11, 63, 96
11, 14856, Note_on_c, 11, 63, 0
11, 14856, Note_on_c, 11, 55, 0
11, 19200, Note_on_c, 11, 68, 89
11, 19248, Note_on_c, 11, 68, 0
11, 19260, Note_on_c, 11, 68, 86
11, 19356, Note_on_c, 11, 68, 0
11, 19920, Note_on_c, 11, 72, 102
11, 19968, Note_on_c, 11, 72, 0
11, 19980, Note_on_c, 11, 72, 93
11, 20076, Note_on_c, 11, 72, 0
11, 21960, Note_on_c, 11, 63, 121
11, 21960, Note_on_c, 11, 79, 112
11, 21960, Note_on_c, 11, 72, 125
11, 22056, Note_on_c, 11, 72, 0
11, 22056, Note_on_c, 11, 79, 0
11, 22056, Note_on_c, 11, 63, 0
11, 22140, Note_on_c, 11, 79, 127
11, 22164, Note_on_c, 11, 79, 0
11, 22170, Note_on_c, 11, 79, 127
11, 22194, Note_on_c, 11, 79, 0
11, 22200, Note_on_c, 11, 77, 127
11, 22224, Note_on_c, 11, 77, 0
11, 22230, Note_on_c, 11, 77, 127
11, 22254, Note_on_c, 11, 77, 0
11, 22260, Note_on_c, 11, 75, 115
11, 22284, Note_on_c, 11, 75, 0
11, 22290, Note_on_c, 11, 75, 118
11, 22314, Note_on_c, 11, 75, 0
11, 22320, Note_on_c, 11, 74, 127
11, 22344, Note_on_c, 11, 74, 0
11, 22350, Note_on_c, 11, 74, 127
11, 22374, Note_on_c, 11, 74, 0
11, 22380, Note_on_c, 11, 72, 125
11, 22404, Note_on_c, 11, 72, 0
11, 22410, Note_on_c, 11, 72, 127
11, 22434, Note_on_c, 11, 72, 0
11, 22440, Note_on_c, 11, 71, 127
11, 22464, Note_on_c, 11, 71, 0
11, 22470, Note_on_c, 11, 71, 116
11, 22494, Note_on_c, 11, 71, 0
11, 22500, Note_on_c, 11, 72, 127
11, 22524, Note_on_c, 11, 72, 0
11, 22530, Note_on_c, 11, 72, 127
11, 22554, Note_on_c, 11, 72, 0
11, 22560, Note_on_c, 11, 72, 127
11, 22584, Note_on_c, 11, 72, 0
11, 22590, Note_on_c, 11, 72, 125
11, 22614, Note_on_c, 11, 72, 0
11, 22620, Note_on_c, 11, 74, 121
11, 22644, Note_on_c, 11, 74, 0
11, 22650, Note_on_c, 11, 74, 127
11, 22674, Note_on_c, 11, 74, 0
11, 22680, Note_on_c, 11, 75, 109
11, 22704, Note_on_c, 11, 75, 0
11, 22710, Note_on_c, 11, 75, 118
11, 22734, Note_on_c, 11, 75, 0
11, 22740, Note_on_c, 11, 63, 118
11, 22764, Note_on_c, 11, 63, 0
11, 22770, Note_on_c, 11, 63, 127
11, 22794, Note_on_c, 11, 63, 0
11, 22800, Note_on_c, 11, 69, 127
11, 22824, Note_on_c, 11, 69, 0
11, 22830, Note_on_c, 11, 69, 127
11, 22854, Note_on_c, 11, 69, 0
11, 22860, Note_on_c, 11, 70, 126
11, 22884, Note_on_c, 11, 70, 0
11, 22890, Note_on_c, 11, 70, 109
11, 22914, Note_on_c, 11, 70, 0
11, 22920, Note_on_c, 11, 70, 115
11, 22944, Note_on_c, 11, 70, 0
11, 22950, Note_on_c, 11, 70, 118
11, 22974, Note_on_c, 11, 70, 0
11, 22980, Note_on_c, 11, 72, 127
11, 23004, Note_on_c, 11, 72, 0
11, 23010, Note_on_c, 11, 72, 125
11, 23034, Note_on_c, 11, 72, 0
11, 23040, Note_on_c, 11, 72, 117
11, 23040, Note_on_c, 11, 65, 110
11, 23040, Note_on_c, 11, 57, 127
11, 23136, Note_on_c, 11, 57, 0
11, 23136, Note_on_c, 11, 65, 0
11, 23136, Note_on_c, 11, 72, 0
11, 23760, Note_on_c, 11, 74, 127
11, 23760, Note_on_c, 11, 65, 127
11, 23856, Note_on_c, 11, 65, 0
11, 23856, Note_on_c, 11, 74, 0
11, 24480, Note_on_c, 11, 67, 100
11, 24576, Note_on_c, 11, 67, 0
11, 25500, Note_on_c, 11, 60, 111
11, 25548, Note_on_c, 11, 60, 0
11, 25560, Note_on_c, 11, 60, 99
11, 26208, Note_on_c, 11, 60, 0
11, 26280, Note_on_c, 11, 62, 112
11, 26928, Note_on_c, 11, 62, 0
11, 27000, Note_on_c, 11, 63, 105
11, 27648, Note_on_c, 11, 63, 0
11, 27720, Note_on_c, 11, 62, 117
11, 27900, Note_on_c, 11, 67, 127
11, 27929, Note_on_c, 11, 62, 0
11, 28080, Note_on_c, 11, 65, 120
11, 28124, Note_on_c, 11, 67, 0
11, 28260, Note_on_c, 11, 63, 115
11, 28289, Note_on_c, 11, 65, 0
11, 28404, Note_on_c, 11, 63, 0
11, 28440, Note_on_c, 11, 62, 127
11, 28620, Note_on_c, 11, 67, 127
11, 28664, Note_on_c, 11, 62, 0
11, 28800, Note_on_c, 11, 65, 127
11, 28829, Note_on_c, 11, 67, 0
11, 28980, Note_on_c, 11, 63, 115
11, 28994, Note_on_c, 11, 65, 0
11, 29124, Note_on_c, 11, 63, 0
11, 29160, Note_on_c, 11, 62, 127
11, 29340, Note_on_c, 11, 67, 127
11, 29354, Note_on_c, 11, 62, 0
11, 29520, Note_on_c, 11, 65, 125
11, 29549, Note_on_c, 11, 67, 0
11, 29700, Note_on_c, 11, 67, 123
11, 29729, Note_on_c, 11, 65, 0
11, 29844, Note_on_c, 11, 67, 0
11, 29880, Note_on_c, 11, 65, 113
11, 29976, Note_on_c, 11, 65, 0
11, 30000, Note_on_c, 11, 67, 125
11, 30048, Note_on_c, 11, 67, 0
11, 30060, Note_on_c, 11, 65, 118
11, 30156, Note_on_c, 11, 65, 0
11, 30180, Note_on_c, 11, 67, 117
11, 30228, Note_on_c, 11, 67, 0
11, 30240, Note_on_c, 11, 65, 127
11, 30336, Note_on_c, 11, 65, 0
11, 30360, Note_on_c, 11, 67, 120
11, 30408, Note_on_c, 11, 67, 0
11, 30420, Note_on_c, 11, 65, 127
11, 30516, Note_on_c, 11, 65, 0
11, 30540, Note_on_c, 11, 67, 120
11, 30588, Note_on_c, 11, 67, 0
11, 30600, Note_on_c, 11, 68, 113
11, 30696, Note_on_c, 11, 68, 0
11, 38460, Note_on_c, 11, 63, 111
11, 38508, Note_on_c, 11, 63, 0
11, 38520, Note_on_c, 11, 62, 125
11, 38616, Note_on_c, 11, 62, 0
11, 38640, Note_on_c, 11, 62, 121
11, 38688, Note_on_c, 11, 62, 0
11, 38700, Note_on_c, 11, 62, 127
11, 38772, Note_on_c, 11, 62, 0
11, 38790, Note_on_c, 11, 63, 113
11, 38814, Note_on_c, 11, 63, 0
11, 38820, Note_on_c, 11, 65, 116
11, 38868, Note_on_c, 11, 65, 0
11, 38880, Note_on_c, 11, 65, 123
11, 38928, Note_on_c, 11, 65, 0
11, 38940, Note_on_c, 11, 67, 127
11, 38988, Note_on_c, 11, 67, 0
11, 39000, Note_on_c, 11, 63, 118
11, 39048, Note_on_c, 11, 63, 0
11, 39060, Note_on_c, 11, 63, 121
11, 39156, Note_on_c, 11, 63, 0
11, 39540, Note_on_c, 11, 65, 111
11, 39588, Note_on_c, 11, 65, 0
11, 39600, Note_on_c, 11, 63, 121
11, 39696, Note_on_c, 11, 63, 0
11, 39720, Note_on_c, 11, 63, 111
11, 39768, Note_on_c, 11, 63, 0
11, 39780, Note_on_c, 11, 63, 118
11, 39852, Note_on_c, 11, 63, 0
11, 39870, Note_on_c, 11, 65, 121
11, 39894, Note_on_c, 11, 65, 0
11, 39900, Note_on_c, 11, 67, 109
11, 39948, Note_on_c, 11, 67, 0
11, 39960, Note_on_c, 11, 68, 109
11, 40056, Note_on_c, 11, 68, 0
11, 40260, Note_on_c, 11, 68, 105
11, 40308, Note_on_c, 11, 68, 0
11, 40320, Note_on_c, 11, 67, 120
11, 40416, Note_on_c, 11, 67, 0
11, 40440, Note_on_c, 11, 67, 123
11, 40488, Note_on_c, 11, 67, 0
11, 40500, Note_on_c, 11, 67, 117
11, 40572, Note_on_c, 11, 67, 0
11, 40590, Note_on_c, 11, 68, 113
11, 40614, Note_on_c, 11, 68, 0
11, 40620, Note_on_c, 11, 70, 107
11, 40668, Note_on_c, 11, 70, 0
11, 40680, Note_on_c, 11, 72, 105
11, 40776, Note_on_c, 11, 72, 0
11, 42060, Note_on_c, 11, 72, 127
11, 42108, Note_on_c, 11, 72, 0
11, 42120, Note_on_c, 11, 71, 123
11, 42216, Note_on_c, 11, 71, 0
11, 42240, Note_on_c, 11, 71, 127
11, 42288, Note_on_c, 11, 71, 0
11, 42300, Note_on_c, 11, 71, 121
11, 42372, Note_on_c, 11, 71, 0
11, 42390, Note_on_c, 11, 72, 127
11, 42414, Note_on_c, 11, 72, 0
11, 42420, Note_on_c, 11, 74, 118
11, 42468, Note_on_c, 11, 74, 0
11, 42480, Note_on_c, 11, 74, 127
11, 42528, Note_on_c, 11, 74, 0
11, 42540, Note_on_c, 11, 75, 121
11, 42588, Note_on_c, 11, 75, 0
11, 42600, Note_on_c, 11, 72, 109
11, 42648, Note_on_c, 11, 72, 0
11, 42660, Note_on_c, 11, 72, 123
11, 42756, Note_on_c, 11, 72, 0
11, 42780, Note_on_c, 11, 72, 127
11, 42828, Note_on_c, 11, 72, 0
11, 42840, Note_on_c, 11, 71, 127
11, 42936, Note_on_c, 11, 71, 0
11, 42960, Note_on_c, 11, 71, 127
11, 43008, Note_on_c, 11, 71, 0
11, 43020, Note_on_c, 11, 71, 127
11, 43092, Note_on_c, 11, 71, 0
11, 43110, Note_on_c, 11, 72, 127
11, 43134, Note_on_c, 11, 72, 0
11, 43140, Note_on_c, 11, 74, 127
11, 43188, Note_on_c, 11, 74, 0
11, 43200, Note_on_c, 11, 75, 127
11, 43296, Note_on_c, 11, 75, 0
11, 43320, Note_on_c, 11, 72, 127
11, 43368, Note_on_c, 11, 72, 0
11, 43380, Note_on_c, 11, 72, 127
11, 43452, Note_on_c, 11, 72, 0
11, 43470, Note_on_c, 11, 74, 127
11, 43494, Note_on_c, 11, 74, 0
11, 43500, Note_on_c, 11, 75, 127
11, 43548, Note_on_c, 11, 75, 0
11, 43560, Note_on_c, 11, 77, 127
11, 43656, Note_on_c, 11, 77, 0
11, 43680, Note_on_c, 11, 74, 127
11, 43728, Note_on_c, 11, 74, 0
11, 43740, Note_on_c, 11, 74, 127
11, 43812, Note_on_c, 11, 74, 0
11, 43830, Note_on_c, 11, 75, 127
11, 43854, Note_on_c, 11, 75, 0
11, 43860, Note_on_c, 11, 77, 127
11, 43908, Note_on_c, 11, 77, 0
11, 43920, Note_on_c, 11, 79, 127
11, 44016, Note_on_c, 11, 79, 0
11, 45000, Note_on_c, 11, 65, 116
11, 45096, Note_on_c, 11, 65, 0
11, 53100, Note_on_c, 11, 55, 114
11, 53124, Note_on_c, 11, 55, 0
11, 53130, Note_on_c, 11, 67, 127
11, 53154, Note_on_c, 11, 67, 0
11, 53160, Note_on_c, 11, 67, 121
11, 53256, Note_on_c, 11, 67, 0
11, 54540, Note_on_c, 11, 55, 107
11, 54564, Note_on_c, 11, 55, 0
11, 54570, Note_on_c, 11, 67, 127
11, 54594, Note_on_c, 11, 67, 0
11, 54600, Note_on_c, 11, 67, 127
11, 54696, Note_on_c, 11, 67, 0
11, 55080, Note_on_c, 11, 84, 107
11, 55080, Note_on_c, 11, 67, 109
11, 55080, Note_on_c, 11, 76, 120
11, 55176, Note_on_c, 11, 76, 0
11, 55176, Note_on_c, 11, 67, 0
11, 55176, Note_on_c, 11, 84, 0
11, 55440, Note_on_c, 11, 84, 127
11, 55584, Note_on_c, 11, 84, 0
11, 55620, Note_on_c, 11, 81, 127
11, 55644, Note_on_c, 11, 81, 0
11, 55650, Note_on_c, 11, 80, 113
11, 55674, Note_on_c, 11, 80, 0
11, 55680, Note_on_c, 11, 81, 127
11, 55704, Note_on_c, 11, 81, 0
11, 55710, Note_on_c, 11, 83, 101
11, 55734, Note_on_c, 11, 83, 0
11, 55740, Note_on_c, 11, 84, 127
11, 55764, Note_on_c, 11, 84, 0
11, 55770, Note_on_c, 11, 81, 127
11, 55794, Note_on_c, 11, 81, 0
11, 55800, Note_on_c, 11, 79, 127
11, 55896, Note_on_c, 11, 79, 0
11, 56160, Note_on_c, 11, 77, 127
11, 56304, Note_on_c, 11, 77, 0
11, 56340, Note_on_c, 11, 74, 127
11, 56364, Note_on_c, 11, 74, 0
11, 56370, Note_on_c, 11, 73, 96
11, 56394, Note_on_c, 11, 73, 0
11, 56400, Note_on_c, 11, 74, 120
11, 56424, Note_on_c, 11, 74, 0
11, 56430, Note_on_c, 11, 76, 111
11, 56454, Note_on_c, 11, 76, 0
11, 56460, Note_on_c, 11, 77, 127
11, 56484, Note_on_c, 11, 77, 0
11, 56490, Note_on_c, 11, 74, 127
11, 56514, Note_on_c, 11, 74, 0
11, 56520, Note_on_c, 11, 84, 97
11, 56520, Note_on_c, 11, 76, 108
11, 56520, Note_on_c, 11, 67, 103
11, 56616, Note_on_c, 11, 67, 0
11, 56616, Note_on_c, 11, 76, 0
11, 56616, Note_on_c, 11, 84, 0
11, 56880, Note_on_c, 11, 84, 104
11, 56880, Note_on_c, 11, 72, 101
11, 56976, Note_on_c, 11, 72, 0
11, 56976, Note_on_c, 11, 84, 0
11, 59700, Note_on_c, 11, 67, 76
11, 59748, Note_on_c, 11, 67, 0
11, 59760, Note_on_c, 11, 68, 71
11, 59808, Note_on_c, 11, 68, 0
11, 59820, Note_on_c, 11, 68, 73
11, 59868, Note_on_c, 11, 68, 0
11, 59940, Note_on_c, 11, 68, 73
11, 59988, Note_on_c, 11, 68, 0
11, 60000, Note_on_c, 11, 68, 73
11, 60048, Note_on_c, 11, 68, 0
11, 60120, Note_on_c, 11, 68, 71
11, 60168, Note_on_c, 11, 68, 0
11, 60180, Note_on_c, 11, 68, 73
11, 60228, Note_on_c, 11, 68, 0
11, 60300, Note_on_c, 11, 68, 73
11, 60348, Note_on_c, 11, 68, 0
11, 60360, Note_on_c, 11, 68, 73
11, 60408, Note_on_c, 11, 68, 0
11, 60480, Note_on_c, 11, 68, 71
11, 60528, Note_on_c, 11, 68, 0
11, 60540, Note_on_c, 11, 68, 73
11, 60588, Note_on_c, 11, 68, 0
11, 60660, Note_on_c, 11, 68, 73
11, 60708, Note_on_c, 11, 68, 0
11, 60720, Note_on_c, 11, 68, 73
11, 60768, Note_on_c, 11, 68, 0
11, 60840, Note_on_c, 11, 68, 71
11, 60888, Note_on_c, 11, 68, 0
11, 60900, Note_on_c, 11, 68, 73
11, 60948, Note_on_c, 11, 68, 0
11, 61020, Note_on_c, 11, 68, 73
11, 61068, Note_on_c, 11, 68, 0
11, 61080, Note_on_c, 11, 68, 73
11, 61128, Note_on_c, 11, 68, 0
11, 61200, Note_on_c, 11, 63, 76
11, 61248, Note_on_c, 11, 63, 0
11, 61260, Note_on_c, 11, 63, 69
11, 61308, Note_on_c, 11, 63, 0
11, 61380, Note_on_c, 11, 63, 69
11, 61428, Note_on_c, 11, 63, 0
11, 61440, Note_on_c, 11, 63, 64
11, 61488, Note_on_c, 11, 63, 0
11, 61560, Note_on_c, 11, 63, 67
11, 61560, Note_on_c, 11, 61, 73
11, 61608, Note_on_c, 11, 61, 0
11, 61608, Note_on_c, 11, 63, 0
11, 61620, Note_on_c, 11, 61, 74
11, 61620, Note_on_c, 11, 63, 68
11, 61668, Note_on_c, 11, 63, 0
11, 61668, Note_on_c, 11, 61, 0
11, 61740, Note_on_c, 11, 63, 69
11, 61740, Note_on_c, 11, 61, 63
11, 61788, Note_on_c, 11, 61, 0
11, 61788, Note_on_c, 11, 63, 0
11, 61800, Note_on_c, 11, 63, 71
11, 61800, Note_on_c, 11, 61, 69
11, 61848, Note_on_c, 11, 61, 0
11, 61848, Note_on_c, 11, 63, 0
11, 62820, Note_on_c, 11, 63, 69
11, 62844, Note_on_c, 11, 63, 0
11, 62850, Note_on_c, 11, 75, 74
11, 62874, Note_on_c, 11, 75, 0
11, 62880, Note_on_c, 11, 75, 68
11, 62976, Note_on_c, 11, 75, 0
11, 64260, Note_on_c, 11, 63, 69
11, 64284, Note_on_c, 11, 63, 0
11, 64290, Note_on_c, 11, 75, 76
11, 64314, Note_on_c, 11, 75, 0
11, 64320, Note_on_c, 11, 75, 74
11, 64416, Note_on_c, 11, 75, 0
11, 64800, Note_on_c, 11, 80, 109
11, 64800, Note_on_c, 11, 63, 127
11, 64800, Note_on_c, 11, 72, 123
11, 64896, Note_on_c, 11, 72, 0
11, 64896, Note_on_c, 11, 63, 0
11, 64896, Note_on_c, 11, 80, 0
11, 65160, Note_on_c, 11, 80, 126
11, 65304, Note_on_c, 11, 80, 0
11, 65340, Note_on_c, 11, 77, 127
11, 65364, Note_on_c, 11, 77, 0
11, 65370, Note_on_c, 11, 76, 116
11, 65394, Note_on_c, 11, 76, 0
11, 65400, Note_on_c, 11, 77, 118
11, 65424, Note_on_c, 11, 77, 0
11, 65430, Note_on_c, 11, 79, 127
11, 65454, Note_on_c, 11, 79, 0
11, 65460, Note_on_c, 11, 80, 127
11, 65484, Note_on_c, 11, 80, 0
11, 65490, Note_on_c, 11, 77, 127
11, 65514, Note_on_c, 11, 77, 0
11, 65520, Note_on_c, 11, 75, 123
11, 65616, Note_on_c, 11, 75, 0
11, 65880, Note_on_c, 11, 85, 121
11, 66024, Note_on_c, 11, 85, 0
11, 66060, Note_on_c, 11, 82, 115
11, 66084, Note_on_c, 11, 82, 0
11, 66090, Note_on_c, 11, 81, 123
11, 66114, Note_on_c, 11, 81, 0
11, 66120, Note_on_c, 11, 82, 118
11, 66144, Note_on_c, 11, 82, 0
11, 66150, Note_on_c, 11, 84, 127
11, 66174, Note_on_c, 11, 84, 0
11, 66180, Note_on_c, 11, 85, 123
11, 66204, Note_on_c, 11, 85, 0
11, 66210, Note_on_c, 11, 82, 123
11, 66234, Note_on_c, 11, 82, 0
11, 66240, Note_on_c, 11, 80, 115
11, 66336, Note_on_c, 11, 80, 0
11, 66600, Note_on_c, 11, 68, 113
11, 66600, Note_on_c, 11, 56, 118
11, 66696, Note_on_c, 11, 56, 0
11, 66696, Note_on_c, 11, 68, 0
11, 69780, Note_on_c, 11, 69, 127
11, 69828, Note_on_c, 11, 69, 0
11, 69840, Note_on_c, 11, 68, 123
11, 69888, Note_on_c, 11, 68, 0
11, 69900, Note_on_c, 11, 68, 123
11, 69948, Note_on_c, 11, 68, 0
11, 70020, Note_on_c, 11, 71, 127
11, 70068, Note_on_c, 11, 71, 0
11, 70080, Note_on_c, 11, 71, 123
11, 70128, Note_on_c, 11, 71, 0
11, 70200, Note_on_c, 11, 71, 127
11, 70248, Note_on_c, 11, 71, 0
11, 70260, Note_on_c, 11, 71, 127
11, 70308, Note_on_c, 11, 71, 0
11, 70380, Note_on_c, 11, 71, 127
11, 70428, Note_on_c, 11, 71, 0
11, 70440, Note_on_c, 11, 71, 127
11, 70488, Note_on_c, 11, 71, 0
11, 70560, Note_on_c, 11, 73, 126
11, 70608, Note_on_c, 11, 73, 0
11, 70620, Note_on_c, 11, 73, 121
11, 70668, Note_on_c, 11, 73, 0
11, 70740, Note_on_c, 11, 73, 118
11, 70788, Note_on_c, 11, 73, 0
11, 70800, Note_on_c, 11, 73, 127
11, 70848, Note_on_c, 11, 73, 0
11, 70920, Note_on_c, 11, 73, 126
11, 70968, Note_on_c, 11, 73, 0
11, 70980, Note_on_c, 11, 73, 127
11, 71028, Note_on_c, 11, 73, 0
11, 71100, Note_on_c, 11, 73, 115
11, 71148, Note_on_c, 11, 73, 0
11, 71160, Note_on_c, 11, 73, 127
11, 71208, Note_on_c, 11, 73, 0
11, 71280, Note_on_c, 11, 71, 127
11, 71328, Note_on_c, 11, 71, 0
11, 71340, Note_on_c, 11, 71, 127
11, 71388, Note_on_c, 11, 71, 0
11, 71460, Note_on_c, 11, 71, 127
11, 71508, Note_on_c, 11, 71, 0
11, 71520, Note_on_c, 11, 71, 127
11, 71568, Note_on_c, 11, 71, 0
11, 71640, Note_on_c, 11, 71, 127
11, 71688, Note_on_c, 11, 71, 0
11, 71700, Note_on_c, 11, 71, 127
11, 71748, Note_on_c, 11, 71, 0
11, 71820, Note_on_c, 11, 71, 127
11, 71868, Note_on_c, 11, 71, 0
11, 71880, Note_on_c, 11, 71, 127
11, 71928, Note_on_c, 11, 71, 0
11, 72900, Note_on_c, 11, 59, 107
11, 72924, Note_on_c, 11, 59, 0
11, 72930, Note_on_c, 11, 71, 120
11, 72954, Note_on_c, 11, 71, 0
11, 72960, Note_on_c, 11, 71, 112
11, 73056, Note_on_c, 11, 71, 0
11, 74340, Note_on_c, 11, 59, 110
11, 74364, Note_on_c, 11, 59, 0
11, 74370, Note_on_c, 11, 71, 113
11, 74394, Note_on_c, 11, 71, 0
11, 74400, Note_on_c, 11, 71, 116
11, 74496, Note_on_c, 11, 71, 0
11, 74880, Note_on_c, 11, 64, 107
11, 74880, Note_on_c, 11, 76, 98
11, 74880, Note_on_c, 11, 71, 102
11, 74976, Note_on_c, 11, 71, 0
11, 74976, Note_on_c, 11, 76, 0
11, 74976, Note_on_c, 11, 64, 0
11, 75240, Note_on_c, 11, 76, 127
11, 75384, Note_on_c, 11, 76, 0
11, 75420, Note_on_c, 11, 73, 115
11, 75444, Note_on_c, 11, 73, 0
11, 75450, Note_on_c, 11, 72, 108
11, 75474, Note_on_c, 11, 72, 0
11, 75480, Note_on_c, 11, 73, 109
11, 75504, Note_on_c, 11, 73, 0
11, 75510, Note_on_c, 11, 75, 115
11, 75534, Note_on_c, 11, 75, 0
11, 75540, Note_on_c, 11, 76, 106
11, 75564, Note_on_c, 11, 76, 0
11, 75570, Note_on_c, 11, 73, 111
11, 75594, Note_on_c, 11, 73, 0
11, 75600, Note_on_c, 11, 71, 125
11, 75696, Note_on_c, 11, 71, 0
11, 75960, Note_on_c, 11, 81, 117
11, 76104, Note_on_c, 11, 81, 0
11, 76140, Note_on_c, 11, 78, 118
11, 76164, Note_on_c, 11, 78, 0
11, 76170, Note_on_c, 11, 77, 118
11, 76194, Note_on_c, 11, 77, 0
11, 76200, Note_on_c, 11, 78, 97
11, 76224, Note_on_c, 11, 78, 0
11, 76230, Note_on_c, 11, 80, 107
11, 76254, Note_on_c, 11, 80, 0
11, 76260, Note_on_c, 11, 81, 118
11, 76284, Note_on_c, 11, 81, 0
11, 76290, Note_on_c, 11, 78, 118
11, 76314, Note_on_c, 11, 78, 0
11, 76320, Note_on_c, 11, 76, 109
11, 76416, Note_on_c, 11, 76, 0
11, 77040, Note_on_c, 11, 72, 104
11, 77112, Note_on_c, 11, 72, 0
11, 77130, Note_on_c, 11, 72, 103
11, 77154, Note_on_c, 11, 72, 0
11, 77160, Note_on_c, 11, 72, 107
11, 77208, Note_on_c, 11, 72, 0
11, 77220, Note_on_c, 11, 72, 107
11, 77268, Note_on_c, 11, 72, 0
11, 77280, Note_on_c, 11, 72, 108
11, 77328, Note_on_c, 11, 72, 0
11, 77340, Note_on_c, 11, 72, 113
11, 77388, Note_on_c, 11, 72, 0
11, 77400, Note_on_c, 11, 72, 112
11, 77472, Note_on_c, 11, 72, 0
11, 77490, Note_on_c, 11, 72, 109
11, 77514, Note_on_c, 11, 72, 0
11, 77520, Note_on_c, 11, 72, 121
11, 77568, Note_on_c, 11, 72, 0
11, 77580, Note_on_c, 11, 72, 105
11, 77628, Note_on_c, 11, 72, 0
11, 77640, Note_on_c, 11, 72, 105
11, 77688, Note_on_c, 11, 72, 0
11, 77700, Note_on_c, 11, 72, 110
11, 77748, Note_on_c, 11, 72, 0
11, 77940, Note_on_c, 11, 70, 115
11, 78012, Note_on_c, 11, 70, 0
11, 78030, Note_on_c, 11, 70, 113
11, 78054, Note_on_c, 11, 70, 0
11, 78060, Note_on_c, 11, 70, 113
11, 78108, Note_on_c, 11, 70, 0
11, 78300, Note_on_c, 11, 68, 107
11, 78372, Note_on_c, 11, 68, 0
11, 78390, Note_on_c, 11, 68, 113
11, 78414, Note_on_c, 11, 68, 0
11, 78420, Note_on_c, 11, 68, 121
11, 78468, Note_on_c, 11, 68, 0
11, 78660, Note_on_c, 11, 68, 111
11, 78732, Note_on_c, 11, 68, 0
11, 78750, Note_on_c, 11, 68, 118
11, 78774, Note_on_c, 11, 68, 0
11, 78780, Note_on_c, 11, 68, 118
11, 78828, Note_on_c, 11, 68, 0
11, 79020, Note_on_c, 11, 68, 111
11, 79092, Note_on_c, 11, 68, 0
11, 79110, Note_on_c, 11, 68, 118
11, 79134, Note_on_c, 11, 68, 0
11, 79140, Note_on_c, 11, 68, 118
11, 79188, Note_on_c, 11, 68, 0
11, 79200, Note_on_c, 11, 68, 105
11, 79272, Note_on_c, 11, 68, 0
11, 79290, Note_on_c, 11, 68, 107
11, 79314, Note_on_c, 11, 68, 0
11, 79320, Note_on_c, 11, 68, 107
11, 79368, Note_on_c, 11, 68, 0
11, 79380, Note_on_c, 11, 68, 105
11, 79428, Note_on_c, 11, 68, 0
11, 79440, Note_on_c, 11, 68, 101
11, 79488, Note_on_c, 11, 68, 0
11, 79500, Note_on_c, 11, 68, 107
11, 79548, Note_on_c, 11, 68, 0
11, 79560, Note_on_c, 11, 68, 111
11, 79632, Note_on_c, 11, 68, 0
11, 79650, Note_on_c, 11, 68, 111
11, 79674, Note_on_c, 11, 68, 0
11, 79680, Note_on_c, 11, 68, 115
11, 79728, Note_on_c, 11, 68, 0
11, 79740, Note_on_c, 11, 68, 107
11, 79788, Note_on_c, 11, 68, 0
11, 79800, Note_on_c, 11, 68, 109
11, 79848, Note_on_c, 11, 68, 0
11, 79860, Note_on_c, 11, 68, 127
11, 79908, Note_on_c, 11, 68, 0
11, 80640, Note_on_c, 11, 68, 111
11, 80712, Note_on_c, 11, 68, 0
11, 80730, Note_on_c, 11, 68, 111
11, 80754, Note_on_c, 11, 68, 0
11, 80760, Note_on_c, 11, 68, 115
11, 80808, Note_on_c, 11, 68, 0
11, 80820, Note_on_c, 11, 68, 107
11, 80868, Note_on_c, 11, 68, 0
11, 80880, Note_on_c, 11, 68, 109
11, 80928, Note_on_c, 11, 68, 0
11, 80940, Note_on_c, 11, 68, 127
11, 80988, Note_on_c, 11, 68, 0
11, 81000, Note_on_c, 11, 68, 111
11, 81072, Note_on_c, 11, 68, 0
11, 81090, Note_on_c, 11, 68, 111
11, 81114, Note_on_c, 11, 68, 0
11, 81120, Note_on_c, 11, 68, 115
11, 81168, Note_on_c, 11, 68, 0
11, 81180, Note_on_c, 11, 68, 107
11, 81228, Note_on_c, 11, 68, 0
11, 81240, Note_on_c, 11, 68, 109
11, 81288, Note_on_c, 11, 68, 0
11, 81300, Note_on_c, 11, 68, 127
11, 81348, Note_on_c, 11, 68, 0
11, 82260, Note_on_c, 11, 68, 111
11, 82332, Note_on_c, 11, 68, 0
11, 82350, Note_on_c, 11, 68, 113
11, 82374, Note_on_c, 11, 68, 0
11, 82380, Note_on_c, 11, 68, 96
11, 82428, Note_on_c, 11, 68, 0
11, 82620, Note_on_c, 11, 68, 109
11, 82692, Note_on_c, 11, 68, 0
11, 82710, Note_on_c, 11, 68, 109
11, 82734, Note_on_c, 11, 68, 0
11, 82740, Note_on_c, 11, 68, 111
11, 82788, Note_on_c, 11, 68, 0
11, 85620, Note_on_c, 11, 58, 100
11, 85668, Note_on_c, 11, 58, 0
11, 85680, Note_on_c, 11, 58, 100
11, 85728, Note_on_c, 11, 58, 0
11, 85740, Note_on_c, 11, 63, 123
11, 85788, Note_on_c, 11, 63, 0
11, 85980, Note_on_c, 11, 63, 93
11, 86028, Note_on_c, 11, 63, 0
11, 86040, Note_on_c, 11, 63, 86
11, 86088, Note_on_c, 11, 63, 0
11, 86100, Note_on_c, 11, 67, 127
11, 86148, Note_on_c, 11, 67, 0
11, 86340, Note_on_c, 11, 67, 108
11, 86388, Note_on_c, 11, 67, 0
11, 86400, Note_on_c, 11, 67, 109
11, 86424, Note_on_c, 11, 67, 0
11, 86430, Note_on_c, 11, 70, 109
11, 86454, Note_on_c, 11, 70, 0
11, 86460, Note_on_c, 11, 70, 118
11, 86508, Note_on_c, 11, 70, 0
11, 87060, Note_on_c, 11, 63, 113
11, 87108, Note_on_c, 11, 63, 0
11, 87120, Note_on_c, 11, 63, 109
11, 87168, Note_on_c, 11, 63, 0
11, 87180, Note_on_c, 11, 67, 127
11, 87228, Note_on_c, 11, 67, 0
11, 87420, Note_on_c, 11, 67, 127
11, 87468, Note_on_c, 11, 67, 0
11, 87480, Note_on_c, 11, 67, 127
11, 87528, Note_on_c, 11, 67, 0
11, 87540, Note_on_c, 11, 70, 118
11, 87588, Note_on_c, 11, 70, 0
11, 87780, Note_on_c, 11, 70, 109
11, 87828, Note_on_c, 11, 70, 0
11, 87840, Note_on_c, 11, 70, 123
11, 87864, Note_on_c, 11, 70, 0
11, 87870, Note_on_c, 11, 75, 121
11, 87894, Note_on_c, 11, 75, 0
11, 87900, Note_on_c, 11, 75, 118
11, 87948, Note_on_c, 11, 75, 0
11, 94260, Note_on_c, 11, 70, 127
11, 94308, Note_on_c, 11, 70, 0
11, 94320, Note_on_c, 11, 70, 127
11, 94368, Note_on_c, 11, 70, 0
11, 94380, Note_on_c, 11, 75, 118
11, 94428, Note_on_c, 11, 75, 0
11, 94440, Note_on_c, 11, 75, 94
11, 94488, Note_on_c, 11, 75, 0
11, 94500, Note_on_c, 11, 79, 127
11, 94548, Note_on_c, 11, 79, 0
11, 94620, Note_on_c, 11, 79, 114
11, 94644, Note_on_c, 11, 79, 0
11, 94650, Note_on_c, 11, 82, 121
11, 94674, Note_on_c, 11, 82, 0
11, 94680, Note_on_c, 11, 82, 121
11, 94704, Note_on_c, 11, 82, 0
11, 94710, Note_on_c, 11, 87, 109
11, 94734, Note_on_c, 11, 87, 0
11, 94740, Note_on_c, 11, 87, 118
11, 94956, Note_on_c, 11, 87, 0
11, 94980, Note_on_c, 11, 87, 115
11, 95004, Note_on_c, 11, 87, 0
11, 95010, Note_on_c, 11, 91, 105
11, 95034, Note_on_c, 11, 91, 0
11, 95040, Note_on_c, 11, 89, 105
11, 95088, Note_on_c, 11, 89, 0
11, 95160, Note_on_c, 11, 86, 101
11, 95184, Note_on_c, 11, 86, 0
11, 95190, Note_on_c, 11, 89, 107
11, 95214, Note_on_c, 11, 89, 0
11, 95220, Note_on_c, 11, 87, 113
11, 95268, Note_on_c, 11, 87, 0
11, 95340, Note_on_c, 11, 82, 121
11, 95388, Note_on_c, 11, 82, 0
11, 95400, Note_on_c, 11, 82, 111
11, 95412, Note_on_c, 11, 82, 0
11, 95415, Note_on_c, 11, 84, 123
11, 95427, Note_on_c, 11, 84, 0
11, 95430, Note_on_c, 11, 82, 111
11, 95442, Note_on_c, 11, 82, 0
11, 95445, Note_on_c, 11, 84, 127
11, 95457, Note_on_c, 11, 84, 0
11, 95460, Note_on_c, 11, 82, 109
11, 95472, Note_on_c, 11, 82, 0
11, 95475, Note_on_c, 11, 84, 123
11, 95487, Note_on_c, 11, 84, 0
11, 95490, Note_on_c, 11, 82, 111
11, 95502, Note_on_c, 11, 82, 0
11, 95505, Note_on_c, 11, 84, 127
11, 95517, Note_on_c, 11, 84, 0
11, 95520, Note_on_c, 11, 82, 115
11, 95544, Note_on_c, 11, 82, 0
11, 95550, Note_on_c, 11, 81, 127
11, 95574, Note_on_c, 11, 81, 0
11, 95580, Note_on_c, 11, 82, 127
11, 95628, Note_on_c, 11, 82, 0
11, 95700, Note_on_c, 11, 70, 115
11, 95748, Note_on_c, 11, 70, 0
11, 95760, Note_on_c, 11, 70, 118
11, 95808, Note_on_c, 11, 70, 0
11, 95820, Note_on_c, 11, 75, 121
11, 95868, Note_on_c, 11, 75, 0
11, 95880, Note_on_c, 11, 75, 96
11, 95928, Note_on_c, 11, 75, 0
11, 95940, Note_on_c, 11, 79, 120
11, 95988, Note_on_c, 11, 79, 0
11, 96060, Note_on_c, 11, 79, 113
11, 96084, Note_on_c, 11, 79, 0
11, 96090, Note_on_c, 11, 82, 126
11, 96114, Note_on_c, 11, 82, 0
11, 96120, Note_on_c, 11, 82, 127
11, 96144, Note_on_c, 11, 82, 0
11, 96150, Note_on_c, 11, 87, 107
11, 96174, Note_on_c, 11, 87, 0
11, 96180, Note_on_c, 11, 87, 127
11, 96396, Note_on_c, 11, 87, 0
11, 96420, Note_on_c, 11, 87, 118
11, 96444, Note_on_c, 11, 87, 0
11, 96450, Note_on_c, 11, 91, 109
11, 96474, Note_on_c, 11, 91, 0
11, 96480, Note_on_c, 11, 89, 105
11, 96528, Note_on_c, 11, 89, 0
11, 96600, Note_on_c, 11, 86, 112
11, 96624, Note_on_c, 11, 86, 0
11, 96630, Note_on_c, 11, 89, 109
11, 96654, Note_on_c, 11, 89, 0
11, 96660, Note_on_c, 11, 87, 121
11, 96708, Note_on_c, 11, 87, 0
11, 96780, Note_on_c, 11, 82, 127
11, 96828, Note_on_c, 11, 82, 0
11, 96840, Note_on_c, 11, 82, 105
11, 96852, Note_on_c, 11, 82, 0
11, 96855, Note_on_c, 11, 84, 127
11, 96867, Note_on_c, 11, 84, 0
11, 96870, Note_on_c, 11, 82, 111
11, 96882, Note_on_c, 11, 82, 0
11, 96885, Note_on_c, 11, 84, 125
11, 96897, Note_on_c, 11, 84, 0
11, 96900, Note_on_c, 11, 82, 109
11, 96912, Note_on_c, 11, 82, 0
11, 96915, Note_on_c, 11, 84, 121
11, 96927, Note_on_c, 11, 84, 0
11, 96930, Note_on_c, 11, 82, 111
11, 96942, Note_on_c, 11, 82, 0
11, 96945, Note_on_c, 11, 84, 127
11, 96957, Note_on_c, 11, 84, 0
11, 96960, Note_on_c, 11, 82, 111
11, 96984, Note_on_c, 11, 82, 0
11, 96990, Note_on_c, 11, 81, 127
11, 97014, Note_on_c, 11, 81, 0
11, 97020, Note_on_c, 11, 82, 127
11, 97068, Note_on_c, 11, 82, 0
11, 97140, Note_on_c, 11, 82, 118
11, 97164, Note_on_c, 11, 82, 0
11, 97170, Note_on_c, 11, 80, 97
11, 97194, Note_on_c, 11, 80, 0
11, 97200, Note_on_c, 11, 81, 120
11, 97248, Note_on_c, 11, 81, 0
11, 97320, Note_on_c, 11, 80, 111
11, 97344, Note_on_c, 11, 80, 0
11, 97350, Note_on_c, 11, 79, 113
11, 97374, Note_on_c, 11, 79, 0
11, 97380, Note_on_c, 11, 79, 127
11, 97428, Note_on_c, 11, 79, 0
11, 97500, Note_on_c, 11, 78, 121
11, 97524, Note_on_c, 11, 78, 0
11, 97530, Note_on_c, 11, 77, 127
11, 97554, Note_on_c, 11, 77, 0
11, 97560, Note_on_c, 11, 77, 111
11, 97608, Note_on_c, 11, 77, 0
11, 97680, Note_on_c, 11, 76, 109
11, 97704, Note_on_c, 11, 76, 0
11, 97710, Note_on_c, 11, 75, 101
11, 97734, Note_on_c, 11, 75, 0
11, 97740, Note_on_c, 11, 75, 111
11, 97788, Note_on_c, 11, 75, 0
11, 97860, Note_on_c, 11, 75, 105
11, 97884, Note_on_c, 11, 75, 0
11, 97890, Note_on_c, 11, 74, 85
11, 97914, Note_on_c, 11, 74, 0
11, 97920, Note_on_c, 11, 74, 117
11, 98016, Note_on_c, 11, 74, 0
11, 98040, Note_on_c, 11, 74, 107
11, 98088, Note_on_c, 11, 74, 0
11, 98100, Note_on_c, 11, 74, 111
11, 98172, Note_on_c, 11, 74, 0
11, 98190, Note_on_c, 11, 75, 107
11, 98214, Note_on_c, 11, 75, 0
11, 98220, Note_on_c, 11, 77, 113
11, 98268, Note_on_c, 11, 77, 0
11, 98280, Note_on_c, 11, 77, 120
11, 98328, Note_on_c, 11, 77, 0
11, 98340, Note_on_c, 11, 79, 121
11, 98388, Note_on_c, 11, 79, 0
11, 98400, Note_on_c, 11, 75, 97
11, 98448, Note_on_c, 11, 75, 0
11, 98460, Note_on_c, 11, 75, 101
11, 98556, Note_on_c, 11, 75, 0
11, 98580, Note_on_c, 11, 75, 115
11, 98604, Note_on_c, 11, 75, 0
11, 98610, Note_on_c, 11, 74, 127
11, 98634, Note_on_c, 11, 74, 0
11, 98640, Note_on_c, 11, 74, 127
11, 98736, Note_on_c, 11, 74, 0
11, 98760, Note_on_c, 11, 74, 127
11, 98808, Note_on_c, 11, 74, 0
11, 98820, Note_on_c, 11, 74, 127
11, 98892, Note_on_c, 11, 74, 0
11, 98910, Note_on_c, 11, 75, 121
11, 98934, Note_on_c, 11, 75, 0
11, 98940, Note_on_c, 11, 77, 127
11, 98988, Note_on_c, 11, 77, 0
11, 99000, Note_on_c, 11, 77, 127
11, 99024, Note_on_c, 11, 77, 0
11, 99030, Note_on_c, 11, 79, 127
11, 99054, Note_on_c, 11, 79, 0
11, 99120, Note_on_c, 11, 75, 97
11, 99168, Note_on_c, 11, 75, 0
11, 99180, Note_on_c, 11, 75, 107
11, 99252, Note_on_c, 11, 75, 0
11, 99270, Note_on_c, 11, 77, 103
11, 99294, Note_on_c, 11, 77, 0
11, 99300, Note_on_c, 11, 79, 104
11, 99348, Note_on_c, 11, 79, 0
11, 99360, Note_on_c, 11, 79, 110
11, 99384, Note_on_c, 11, 79, 0
11, 99390, Note_on_c, 11, 80, 123
11, 99414, Note_on_c, 11, 80, 0
11, 99480, Note_on_c, 11, 77, 98
11, 99528, Note_on_c, 11, 77, 0
11, 99540, Note_on_c, 11, 77, 105
11, 99612, Note_on_c, 11, 77, 0
11, 99630, Note_on_c, 11, 79, 109
11, 99654, Note_on_c, 11, 79, 0
11, 99660, Note_on_c, 11, 80, 127
11, 99708, Note_on_c, 11, 80, 0
11, 99720, Note_on_c, 11, 80, 127
11, 99744, Note_on_c, 11, 80, 0
11, 99750, Note_on_c, 11, 82, 111
11, 99774, Note_on_c, 11, 82, 0
11, 99840, Note_on_c, 11, 79, 127
11, 99888, Note_on_c, 11, 79, 0
11, 99900, Note_on_c, 11, 79, 127
11, 99972, Note_on_c, 11, 79, 0
11, 99990, Note_on_c, 11, 80, 127
11, 100014, Note_on_c, 11, 80, 0
11, 100020, Note_on_c, 11, 82, 113
11, 100068, Note_on_c, 11, 82, 0
11, 100080, Note_on_c, 11, 84, 127
11, 100152, Note_on_c, 11, 84, 0
11, 100170, Note_on_c, 11, 82, 113
11, 100194, Note_on_c, 11, 82, 0
11, 100200, Note_on_c, 11, 80, 111
11, 100248, Note_on_c, 11, 80, 0
11, 100260, Note_on_c, 11, 79, 127
11, 100332, Note_on_c, 11, 79, 0
11, 100350, Note_on_c, 11, 77, 127
11, 100374, Note_on_c, 11, 77, 0
11, 100380, Note_on_c, 11, 75, 113
11, 100428, Note_on_c, 11, 75, 0
11, 100440, Note_on_c, 11, 74, 113
11, 100512, Note_on_c, 11, 74, 0
11, 100530, Note_on_c, 11, 72, 123
11, 100554, Note_on_c, 11, 72, 0
11, 100560, Note_on_c, 11, 70, 88
11, 100608, Note_on_c, 11, 70, 0
11, 100620, Note_on_c, 11, 79, 108
11, 100692, Note_on_c, 11, 79, 0
11, 100710, Note_on_c, 11, 80, 85
11, 100734, Note_on_c, 11, 80, 0
11, 100740, Note_on_c, 11, 82, 102
11, 100788, Note_on_c, 11, 82, 0
11, 100800, Note_on_c, 11, 84, 98
11, 100896, Note_on_c, 11, 84, 0
11, 100980, Note_on_c, 11, 86, 117
11, 100980, Note_on_c, 11, 77, 103
11, 100980, Note_on_c, 11, 70, 103
11, 101076, Note_on_c, 11, 70, 0
11, 101076, Note_on_c, 11, 77, 0
11, 101076, Note_on_c, 11, 86, 0
11, 101160, Note_on_c, 11, 87, 107
11, 101160, Note_on_c, 11, 79, 107
11, 101160, Note_on_c, 11, 70, 107
11, 101256, Note_on_c, 11, 70, 0
11, 101256, Note_on_c, 11, 79, 0
11, 101256, Note_on_c, 11, 87, 0
11, 101520, Note_on_c, 11, 87, 103
11, 101664, Note_on_c, 11, 87, 0
11, 101700, Note_on_c, 11, 84, 127
11, 101724, Note_on_c, 11, 84, 0
11, 101730, Note_on_c, 11, 83, 121
11, 101754, Note_on_c, 11, 83, 0
11, 101760, Note_on_c, 11, 84, 127
11, 101784, Note_on_c, 11, 84, 0
11, 101790, Note_on_c, 11, 86, 127
11, 101814, Note_on_c, 11, 86, 0
11, 101820, Note_on_c, 11, 87, 127
11, 101844, Note_on_c, 11, 87, 0
11, 101850, Note_on_c, 11, 84, 127
11, 101874, Note_on_c, 11, 84, 0
11, 101880, Note_on_c, 11, 82, 93
11, 101976, Note_on_c, 11, 82, 0
11, 102240, Note_on_c, 11, 80, 97
11, 102384, Note_on_c, 11, 80, 0
11, 102420, Note_on_c, 11, 77, 127
11, 102444, Note_on_c, 11, 77, 0
11, 102450, Note_on_c, 11, 76, 127
11, 102474, Note_on_c, 11, 76, 0
11, 102480, Note_on_c, 11, 77, 127
11, 102504, Note_on_c, 11, 77, 0
11, 102510, Note_on_c, 11, 79, 127
11, 102534, Note_on_c, 11, 79, 0
11, 102540, Note_on_c, 11, 80, 118
11, 102564, Note_on_c, 11, 80, 0
11, 102570, Note_on_c, 11, 77, 127
11, 102594, Note_on_c, 11, 77, 0
11, 102600, Note_on_c, 11, 75, 97
11, 102600, Note_on_c, 11, 63, 97
11, 102600, Note_on_c, 11, 55, 97
11, 102696, Note_on_c, 11, 55, 0
11, 102696, Note_on_c, 11, 63, 0
11, 102696, Note_on_c, 11, 75, 0
11, 102960, Note_on_c, 11, 79, 114
11, 102960, Note_on_c, 11, 70, 84
11, 102960, Note_on_c, 11, 63, 84
11, 102960, Note_on_c, 11, 55, 84
11, 103056, Note_on_c, 11, 55, 0
11, 103056, Note_on_c, 11, 79, 0
11, 103056, Note_on_c, 11, 70, 0
11, 103056, Note_on_c, 11, 63, 0
11, 103320, Note_on_c, 11, 63, 96
11, 103320, Note_on_c, 11, 55, 113
11, 103416, Note_on_c, 11, 55, 0
11, 103416, Note_on_c, 11, 63, 0
11, 107760, Note_on_c, 11, 68, 89
11, 107808, Note_on_c, 11, 68, 0
11, 107820, Note_on_c, 11, 68, 86
11, 107916, Note_on_c, 11, 68, 0
11, 108480, Note_on_c, 11, 70, 100
11, 108524, Note_on_c, 11, 70, 0
11, 108540, Note_on_c, 11, 70, 100
11, 108659, Note_on_c, 11, 70, 0
11, 109200, Note_on_c, 11, 75, 100
11, 109244, Note_on_c, 11, 75, 0
11, 109260, Note_on_c, 11, 75, 100
11, 109364, Note_on_c, 11, 75, 0
11, 111240, Note_on_c, 11, 72, 123
11, 111240, Note_on_c, 11, 65, 109
11, 111336, Note_on_c, 11, 65, 0
11, 111336, Note_on_c, 11, 72, 0
11, 111420, Note_on_c, 11, 84, 127
11, 111444, Note_on_c, 11, 84, 0
11, 111450, Note_on_c, 11, 84, 127
11, 111474, Note_on_c, 11, 84, 0
11, 111480, Note_on_c, 11, 82, 113
11, 111504, Note_on_c, 11, 82, 0
11, 111510, Note_on_c, 11, 82, 113
11, 111534, Note_on_c, 11, 82, 0
11, 111540, Note_on_c, 11, 80, 111
11, 111564, Note_on_c, 11, 80, 0
11, 111570, Note_on_c, 11, 80, 115
11, 111594, Note_on_c, 11, 80, 0
11, 111600, Note_on_c, 11, 79, 127
11, 111624, Note_on_c, 11, 79, 0
11, 111630, Note_on_c, 11, 79, 118
11, 111654, Note_on_c, 11, 79, 0
11, 111660, Note_on_c, 11, 77, 127
11, 111684, Note_on_c, 11, 77, 0
11, 111690, Note_on_c, 11, 77, 120
11, 111714, Note_on_c, 11, 77, 0
11, 111720, Note_on_c, 11, 76, 114
11, 111744, Note_on_c, 11, 76, 0
11, 111750, Note_on_c, 11, 76, 127
11, 111774, Note_on_c, 11, 76, 0
11, 111780, Note_on_c, 11, 77, 123
11, 111804, Note_on_c, 11, 77, 0
11, 111810, Note_on_c, 11, 77, 123
11, 111834, Note_on_c, 11, 77, 0
11, 111840, Note_on_c, 11, 77, 121
11, 111864, Note_on_c, 11, 77, 0
11, 111870, Note_on_c, 11, 77, 127
11, 111894, Note_on_c, 11, 77, 0
11, 111900, Note_on_c, 11, 79, 117
11, 111924, Note_on_c, 11, 79, 0
11, 111930, Note_on_c, 11, 79, 117
11, 111954, Note_on_c, 11, 79, 0
11, 111960, Note_on_c, 11, 80, 118
11, 111984, Note_on_c, 11, 80, 0
11, 111990, Note_on_c, 11, 80, 127
11, 112014, Note_on_c, 11, 80, 0
11, 112020, Note_on_c, 11, 72, 114
11, 112044, Note_on_c, 11, 72, 0
11, 112050, Note_on_c, 11, 72, 121
11, 112074, Note_on_c, 11, 72, 0
11, 112080, Note_on_c, 11, 74, 127
11, 112104, Note_on_c, 11, 74, 0
11, 112110, Note_on_c, 11, 74, 123
11, 112134, Note_on_c, 11, 74, 0
11, 112140, Note_on_c, 11, 75, 115
11, 112164, Note_on_c, 11, 75, 0
11, 112170, Note_on_c, 11, 75, 113
11, 112194, Note_on_c, 11, 75, 0
11, 112200, Note_on_c, 11, 75, 105
11, 112224, Note_on_c, 11, 75, 0
11, 112230, Note_on_c, 11, 75, 105
11, 112254, Note_on_c, 11, 75, 0
11, 112260, Note_on_c, 11, 77, 125
11, 112284, Note_on_c, 11, 77, 0
11, 112290, Note_on_c, 11, 77, 127
11, 112314, Note_on_c, 11, 77, 0
11, 112320, Note_on_c, 11, 62, 127
11, 112320, Note_on_c, 11, 77, 113
11, 112320, Note_on_c, 11, 70, 97
11, 112416, Note_on_c, 11, 70, 0
11, 112416, Note_on_c, 11, 77, 0
11, 112416, Note_on_c, 11, 62, 0
11, 113040, Note_on_c, 11, 82, 111
11, 113040, Note_on_c, 11, 70, 107
11, 113136, Note_on_c, 11, 70, 0
11, 113136, Note_on_c, 11, 82, 0
11, 113760, Note_on_c, 11, 72, 127
11, 113856, Note_on_c, 11, 72, 0
11, 114840, Note_on_c, 11, 65, 121
11, 114888, Note_on_c, 11, 65, 0
11, 114900, Note_on_c, 11, 65, 127
11, 115548, Note_on_c, 11, 65, 0
11, 115620, Note_on_c, 11, 67, 107
11, 116268, Note_on_c, 11, 67, 0
11, 116340, Note_on_c, 11, 68, 113
11, 116988, Note_on_c, 11, 68, 0
11, 117060, Note_on_c, 11, 67, 127
11, 117204, Note_on_c, 11, 67, 0
11, 117240, Note_on_c, 11, 72, 127
11, 117384, Note_on_c, 11, 72, 0
11, 117420, Note_on_c, 11, 70, 111
11, 117564, Note_on_c, 11, 70, 0
11, 117600, Note_on_c, 11, 68, 123
11, 117744, Note_on_c, 11, 68, 0
11, 117780, Note_on_c, 11, 67, 127
11, 117924, Note_on_c, 11, 67, 0
11, 117960, Note_on_c, 11, 72, 118
11, 118104, Note_on_c, 11, 72, 0
11, 118140, Note_on_c, 11, 70, 121
11, 118284, Note_on_c, 11, 70, 0
11, 118320, Note_on_c, 11, 68, 95
11, 118464, Note_on_c, 11, 68, 0
11, 118500, Note_on_c, 11, 67, 127
11, 118644, Note_on_c, 11, 67, 0
11, 118680, Note_on_c, 11, 72, 127
11, 118824, Note_on_c, 11, 72, 0
11, 118860, Note_on_c, 11, 70, 103
11, 119004, Note_on_c, 11, 70, 0
11, 119040, Note_on_c, 11, 72, 125
11, 119184, Note_on_c, 11, 72, 0
11, 119220, Note_on_c, 11, 70, 118
11, 119316, Note_on_c, 11, 70, 0
11, 119340, Note_on_c, 11, 72, 127
11, 119388, Note_on_c, 11, 72, 0
11, 119400, Note_on_c, 11, 70, 118
11, 119496, Note_on_c, 11, 70, 0
11, 119520, Note_on_c, 11, 72, 127
11, 119568, Note_on_c, 11, 72, 0
11, 119580, Note_on_c, 11, 70, 118
11, 119676, Note_on_c, 11, 70, 0
11, 119700, Note_on_c, 11, 72, 127
11, 119748, Note_on_c, 11, 72, 0
11, 119760, Note_on_c, 11, 70, 118
11, 119856, Note_on_c, 11, 70, 0
11, 119880, Note_on_c, 11, 72, 123
11, 119928, Note_on_c, 11, 72, 0
11, 119940, Note_on_c, 11, 73, 111
11, 120036, Note_on_c, 11, 73, 0
11, 123480, Note_on_c, 11, 80, 127
11, 123504, Note_on_c, 11, 80, 0
11, 123510, Note_on_c, 11, 84, 127
11, 123534, Note_on_c, 11, 84, 0
11, 123540, Note_on_c, 11, 82, 118
11, 123588, Note_on_c, 11, 82, 0
11, 123660, Note_on_c, 11, 79, 125
11, 123684, Note_on_c, 11, 79, 0
11, 123690, Note_on_c, 11, 82, 115
11, 123714, Note_on_c, 11, 82, 0
11, 123720, Note_on_c, 11, 80, 121
11, 123768, Note_on_c, 11, 80, 0
11, 123840, Note_on_c, 11, 75, 115
11, 123888, Note_on_c, 11, 75, 0
11, 123900, Note_on_c, 11, 75, 109
11, 123912, Note_on_c, 11, 75, 0
11, 123915, Note_on_c, 11, 77, 127
11, 123927, Note_on_c, 11, 77, 0
11, 123930, Note_on_c, 11, 75, 118
11, 123942, Note_on_c, 11, 75, 0
11, 123945, Note_on_c, 11, 77, 127
11, 123957, Note_on_c, 11, 77, 0
11, 123960, Note_on_c, 11, 75, 118
11, 123972, Note_on_c, 11, 75, 0
11, 123975, Note_on_c, 11, 77, 101
11, 123987, Note_on_c, 11, 77, 0
11, 123990, Note_on_c, 11, 75, 113
11, 124002, Note_on_c, 11, 75, 0
11, 124005, Note_on_c, 11, 77, 125
11, 124017, Note_on_c, 11, 77, 0
11, 124020, Note_on_c, 11, 75, 111
11, 124044, Note_on_c, 11, 75, 0
11, 124050, Note_on_c, 11, 74, 127
11, 124074, Note_on_c, 11, 74, 0
11, 124080, Note_on_c, 11, 75, 121
11, 124176, Note_on_c, 11, 75, 0
11, 124920, Note_on_c, 11, 80, 127
11, 124944, Note_on_c, 11, 80, 0
11, 124950, Note_on_c, 11, 84, 127
11, 124974, Note_on_c, 11, 84, 0
11, 124980, Note_on_c, 11, 82, 118
11, 125028, Note_on_c, 11, 82, 0
11, 125100, Note_on_c, 11, 79, 125
11, 125124, Note_on_c, 11, 79, 0
11, 125130, Note_on_c, 11, 82, 115
11, 125154, Note_on_c, 11, 82, 0
11, 125160, Note_on_c, 11, 80, 121
11, 125208, Note_on_c, 11, 80, 0
11, 125280, Note_on_c, 11, 75, 115
11, 125328, Note_on_c, 11, 75, 0
11, 125340, Note_on_c, 11, 75, 109
11, 125352, Note_on_c, 11, 75, 0
11, 125355, Note_on_c, 11, 77, 127
11, 125367, Note_on_c, 11, 77, 0
11, 125370, Note_on_c, 11, 75, 118
11, 125382, Note_on_c, 11, 75, 0
11, 125385, Note_on_c, 11, 77, 127
11, 125397, Note_on_c, 11, 77, 0
11, 125400, Note_on_c, 11, 75, 118
11, 125412, Note_on_c, 11, 75, 0
11, 125415, Note_on_c, 11, 77, 101
11, 125427, Note_on_c, 11, 77, 0
11, 125430, Note_on_c, 11, 75, 113
11, 125442, Note_on_c, 11, 75, 0
11, 125445, Note_on_c, 11, 77, 125
11, 125457, Note_on_c, 11, 77, 0
11, 125460, Note_on_c, 11, 75, 111
11, 125484, Note_on_c, 11, 75, 0
11, 125490, Note_on_c, 11, 74, 127
11, 125514, Note_on_c, 11, 74, 0
11, 125520, Note_on_c, 11, 75, 121
11, 125616, Note_on_c, 11, 75, 0
11, 126360, Note_on_c, 11, 80, 118
11, 126408, Note_on_c, 11, 80, 0
11, 126420, Note_on_c, 11, 79, 127
11, 126516, Note_on_c, 11, 79, 0
11, 126540, Note_on_c, 11, 79, 127
11, 126588, Note_on_c, 11, 79, 0
11, 126600, Note_on_c, 11, 79, 127
11, 126672, Note_on_c, 11, 79, 0
11, 126690, Note_on_c, 11, 80, 113
11, 126714, Note_on_c, 11, 80, 0
11, 126720, Note_on_c, 11, 82, 115
11, 126768, Note_on_c, 11, 82, 0
11, 126780, Note_on_c, 11, 82, 115
11, 126828, Note_on_c, 11, 82, 0
11, 126840, Note_on_c, 11, 84, 127
11, 126888, Note_on_c, 11, 84, 0
11, 126900, Note_on_c, 11, 80, 115
11, 126948, Note_on_c, 11, 80, 0
11, 126960, Note_on_c, 11, 80, 118
11, 127056, Note_on_c, 11, 80, 0
11, 128520, Note_on_c, 11, 70, 96
11, 128544, Note_on_c, 11, 70, 0
11, 128550, Note_on_c, 11, 70, 115
11, 128574, Note_on_c, 11, 70, 0
11, 128580, Note_on_c, 11, 70, 101
11, 128604, Note_on_c, 11, 70, 0
11, 128610, Note_on_c, 11, 75, 111
11, 128634, Note_on_c, 11, 75, 0
11, 128640, Note_on_c, 11, 75, 100
11, 128664, Note_on_c, 11, 75, 0
11, 128670, Note_on_c, 11, 75, 95
11, 128694, Note_on_c, 11, 75, 0
11, 128700, Note_on_c, 11, 75, 118
11, 128724, Note_on_c, 11, 75, 0
11, 128730, Note_on_c, 11, 79, 104
11, 128754, Note_on_c, 11, 79, 0
11, 128760, Note_on_c, 11, 79, 125
11, 128784, Note_on_c, 11, 79, 0
11, 128790, Note_on_c, 11, 79, 111
11, 128814, Note_on_c, 11, 79, 0
11, 128820, Note_on_c, 11, 79, 109
11, 128844, Note_on_c, 11, 79, 0
11, 128850, Note_on_c, 11, 79, 110
11, 128874, Note_on_c, 11, 79, 0
11, 128880, Note_on_c, 11, 79, 114
11, 128904, Note_on_c, 11, 79, 0
11, 128910, Note_on_c, 11, 82, 99
11, 128934, Note_on_c, 11, 82, 0
11, 128940, Note_on_c, 11, 82, 107
11, 128964, Note_on_c, 11, 82, 0
11, 128970, Note_on_c, 11, 87, 115
11, 128994, Note_on_c, 11, 87, 0
11, 129000, Note_on_c, 11, 87, 100
11, 129024, Note_on_c, 11, 87, 0
11, 129030, Note_on_c, 11, 87, 101
11, 129054, Note_on_c, 11, 87, 0
11, 129060, Note_on_c, 11, 87, 97
11, 129084, Note_on_c, 11, 87, 0
11, 129090, Note_on_c, 11, 87, 103
11, 129114, Note_on_c, 11, 87, 0
11, 129120, Note_on_c, 11, 87, 109
11, 129144, Note_on_c, 11, 87, 0
11, 129150, Note_on_c, 11, 87, 105
11, 129174, Note_on_c, 11, 87, 0
11, 129180, Note_on_c, 11, 87, 95
11, 129204, Note_on_c, 11, 87, 0
11, 129210, Note_on_c, 11, 87, 103
11, 129234, Note_on_c, 11, 87, 0
11, 129240, Note_on_c, 11, 87, 105
11, 129264, Note_on_c, 11, 87, 0
11, 129270, Note_on_c, 11, 91, 110
11, 129294, Note_on_c, 11, 91, 0
11, 129300, Note_on_c, 11, 89, 127
11, 129324, Note_on_c, 11, 89, 0
11, 129330, Note_on_c, 11, 89, 123
11, 129354, Note_on_c, 11, 89, 0
11, 129360, Note_on_c, 11, 89, 127
11, 129384, Note_on_c, 11, 89, 0
11, 129390, Note_on_c, 11, 89, 127
11, 129414, Note_on_c, 11, 89, 0
11, 129420, Note_on_c, 11, 86, 127
11, 129444, Note_on_c, 11, 86, 0
11, 129450, Note_on_c, 11, 89, 127
11, 129474, Note_on_c, 11, 89, 0
11, 129480, Note_on_c, 11, 87, 107
11, 129504, Note_on_c, 11, 87, 0
11, 129510, Note_on_c, 11, 87, 113
11, 129534, Note_on_c, 11, 87, 0
11, 129540, Note_on_c, 11, 87, 109
11, 129564, Note_on_c, 11, 87, 0
11, 129570, Note_on_c, 11, 87, 115
11, 129594, Note_on_c, 11, 87, 0
11, 129600, Note_on_c, 11, 82, 99
11, 129624, Note_on_c, 11, 82, 0
11, 129630, Note_on_c, 11, 82, 105
11, 129654, Note_on_c, 11, 82, 0
11, 129660, Note_on_c, 11, 82, 115
11, 129684, Note_on_c, 11, 82, 0
11, 129690, Note_on_c, 11, 82, 101
11, 129714, Note_on_c, 11, 82, 0
11, 129720, Note_on_c, 11, 82, 94
11, 129744, Note_on_c, 11, 82, 0
11, 129750, Note_on_c, 11, 82, 101
11, 129774, Note_on_c, 11, 82, 0
11, 129780, Note_on_c, 11, 82, 115
11, 129804, Note_on_c, 11, 82, 0
11, 129810, Note_on_c, 11, 81, 127
11, 129834, Note_on_c, 11, 81, 0
11, 129840, Note_on_c, 11, 82, 111
11, 129864, Note_on_c, 11, 82, 0
11, 129870, Note_on_c, 11, 82, 111
11, 129894, Note_on_c, 11, 82, 0
11, 129900, Note_on_c, 11, 82, 111
11, 129924, Note_on_c, 11, 82, 0
11, 129930, Note_on_c, 11, 82, 105
11, 129954, Note_on_c, 11, 82, 0
11, 129960, Note_on_c, 11, 70, 99
11, 129984, Note_on_c, 11, 70, 0
11, 129990, Note_on_c, 11, 70, 99
11, 130014, Note_on_c, 11, 70, 0
11, 130020, Note_on_c, 11, 70, 107
11, 130044, Note_on_c, 11, 70, 0
11, 130050, Note_on_c, 11, 75, 121
11, 130074, Note_on_c, 11, 75, 0
11, 130080, Note_on_c, 11, 75, 121
11, 130104, Note_on_c, 11, 75, 0
11, 130110, Note_on_c, 11, 75, 111
11, 130134, Note_on_c, 11, 75, 0
11, 130140, Note_on_c, 11, 75, 121
11, 130164, Note_on_c, 11, 75, 0
11, 130170, Note_on_c, 11, 79, 109
11, 130194, Note_on_c, 11, 79, 0
11, 130200, Note_on_c, 11, 79, 127
11, 130224, Note_on_c, 11, 79, 0
11, 130230, Note_on_c, 11, 79, 120
11, 130254, Note_on_c, 11, 79, 0
11, 130260, Note_on_c, 11, 79, 118
11, 130284, Note_on_c, 11, 79, 0
11, 130290, Note_on_c, 11, 79, 120
11, 130314, Note_on_c, 11, 79, 0
11, 130320, Note_on_c, 11, 79, 127
11, 130344, Note_on_c, 11, 79, 0
11, 130350, Note_on_c, 11, 82, 107
11, 130374, Note_on_c, 11, 82, 0
11, 130380, Note_on_c, 11, 82, 121
11, 130404, Note_on_c, 11, 82, 0
11, 130410, Note_on_c, 11, 87, 105
11, 130434, Note_on_c, 11, 87, 0
11, 130440, Note_on_c, 11, 87, 105
11, 130464, Note_on_c, 11, 87, 0
11, 130470, Note_on_c, 11, 87, 109
11, 130494, Note_on_c, 11, 87, 0
11, 130500, Note_on_c, 11, 87, 103
11, 130524, Note_on_c, 11, 87, 0
11, 130530, Note_on_c, 11, 87, 103
11, 130554, Note_on_c, 11, 87, 0
11, 130560, Note_on_c, 11, 87, 115
11, 130584, Note_on_c, 11, 87, 0
11, 130590, Note_on_c, 11, 87, 101
11, 130614, Note_on_c, 11, 87, 0
11, 130620, Note_on_c, 11, 87, 97
11, 130644, Note_on_c, 11, 87, 0
11, 130650, Note_on_c, 11, 87, 105
11, 130674, Note_on_c, 11, 87, 0
11, 130680, Note_on_c, 11, 87, 111
11, 130704, Note_on_c, 11, 87, 0
11, 130710, Note_on_c, 11, 91, 127
11, 130734, Note_on_c, 11, 91, 0
11, 130740, Note_on_c, 11, 89, 127
11, 130764, Note_on_c, 11, 89, 0
11, 130770, Note_on_c, 11, 89, 127
11, 130794, Note_on_c, 11, 89, 0
11, 130800, Note_on_c, 11, 89, 127
11, 130824, Note_on_c, 11, 89, 0
11, 130830, Note_on_c, 11, 89, 127
11, 130854, Note_on_c, 11, 89, 0
11, 130860, Note_on_c, 11, 86, 127
11, 130884, Note_on_c, 11, 86, 0
11, 130890, Note_on_c, 11, 89, 127
11, 130914, Note_on_c, 11, 89, 0
11, 130920, Note_on_c, 11, 87, 111
11, 130944, Note_on_c, 11, 87, 0
11, 130950, Note_on_c, 11, 87, 118
11, 130974, Note_on_c, 11, 87, 0
11, 130980, Note_on_c, 11, 87, 115
11, 131004, Note_on_c, 11, 87, 0
11, 131010, Note_on_c, 11, 87, 113
11, 131034, Note_on_c, 11, 87, 0
11, 131040, Note_on_c, 11, 82, 99
11, 131064, Note_on_c, 11, 82, 0
11, 131070, Note_on_c, 11, 82, 101
11, 131094, Note_on_c, 11, 82, 0
11, 131100, Note_on_c, 11, 82, 113
11, 131124, Note_on_c, 11, 82, 0
11, 131130, Note_on_c, 11, 82, 111
11, 131154, Note_on_c, 11, 82, 0
11, 131160, Note_on_c, 11, 82, 101
11, 131184, Note_on_c, 11, 82, 0
11, 131190, Note_on_c, 11, 82, 109
11, 131214, Note_on_c, 11, 82, 0
11, 131220, Note_on_c, 11, 82, 97
11, 131244, Note_on_c, 11, 82, 0
11, 131250, Note_on_c, 11, 81, 127
11, 131274, Note_on_c, 11, 81, 0
11, 131280, Note_on_c, 11, 82, 115
11, 131304, Note_on_c, 11, 82, 0
11, 131310, Note_on_c, 11, 82, 107
11, 131334, Note_on_c, 11, 82, 0
11, 131340, Note_on_c, 11, 82, 103
11, 131364, Note_on_c, 11, 82, 0
11, 131370, Note_on_c, 11, 82, 121
11, 131394, Note_on_c, 11, 82, 0
11, 131400, Note_on_c, 11, 82, 115
11, 131424, Note_on_c, 11, 82, 0
11, 131430, Note_on_c, 11, 81, 127
11, 131454, Note_on_c, 11, 81, 0
11, 131460, Note_on_c, 11, 81, 125
11, 131484, Note_on_c, 11, 81, 0
11, 131490, Note_on_c, 11, 81, 127
11, 131514, Note_on_c, 11, 81, 0
11, 131520, Note_on_c, 11, 81, 127
11, 131544, Note_on_c, 11, 81, 0
11, 131550, Note_on_c, 11, 81, 127
11, 131574, Note_on_c, 11, 81, 0
11, 131580, Note_on_c, 11, 80, 118
11, 131604, Note_on_c, 11, 80, 0
11, 131610, Note_on_c, 11, 79, 127
11, 131634, Note_on_c, 11, 79, 0
11, 131640, Note_on_c, 11, 79, 127
11, 131664, Note_on_c, 11, 79, 0
11, 131670, Note_on_c, 11, 79, 123
11, 131694, Note_on_c, 11, 79, 0
11, 131700, Note_on_c, 11, 79, 120
11, 131724, Note_on_c, 11, 79, 0
11, 131730, Note_on_c, 11, 79, 125
11, 131754, Note_on_c, 11, 79, 0
11, 131760, Note_on_c, 11, 78, 113
11, 131784, Note_on_c, 11, 78, 0
11, 131790, Note_on_c, 11, 77, 127
11, 131814, Note_on_c, 11, 77, 0
11, 131820, Note_on_c, 11, 77, 121
11, 131844, Note_on_c, 11, 77, 0
11, 131850, Note_on_c, 11, 77, 118
11, 131874, Note_on_c, 11, 77, 0
11, 131880, Note_on_c, 11, 77, 117
11, 131904, Note_on_c, 11, 77, 0
11, 131910, Note_on_c, 11, 77, 127
11, 131934, Note_on_c, 11, 77, 0
11, 131940, Note_on_c, 11, 76, 127
11, 131964, Note_on_c, 11, 76, 0
11, 131970, Note_on_c, 11, 75, 86
11, 131994, Note_on_c, 11, 75, 0
11, 132000, Note_on_c, 11, 75, 113
11, 132024, Note_on_c, 11, 75, 0
11, 132030, Note_on_c, 11, 75, 105
11, 132054, Note_on_c, 11, 75, 0
11, 132060, Note_on_c, 11, 75, 105
11, 132084, Note_on_c, 11, 75, 0
11, 132090, Note_on_c, 11, 75, 113
11, 132114, Note_on_c, 11, 75, 0
11, 132120, Note_on_c, 11, 75, 111
11, 132144, Note_on_c, 11, 75, 0
11, 132150, Note_on_c, 11, 74, 121
11, 132174, Note_on_c, 11, 74, 0
11, 132180, Note_on_c, 11, 74, 125
11, 132204, Note_on_c, 11, 74, 0
11, 132210, Note_on_c, 11, 74, 114
11, 132234, Note_on_c, 11, 74, 0
11, 132240, Note_on_c, 11, 74, 109
11, 132264, Note_on_c, 11, 74, 0
11, 132270, Note_on_c, 11, 74, 111
11, 132294, Note_on_c, 11, 74, 0
11, 132300, Note_on_c, 11, 74, 116
11, 132324, Note_on_c, 11, 74, 0
11, 132330, Note_on_c, 11, 74, 121
11, 132354, Note_on_c, 11, 74, 0
11, 132360, Note_on_c, 11, 74, 127
11, 132384, Note_on_c, 11, 74, 0
11, 132390, Note_on_c, 11, 75, 111
11, 132414, Note_on_c, 11, 75, 0
11, 132420, Note_on_c, 11, 75, 109
11, 132444, Note_on_c, 11, 75, 0
11, 132450, Note_on_c, 11, 77, 123
11, 132474, Note_on_c, 11, 77, 0
11, 132480, Note_on_c, 11, 77, 114
11, 132504, Note_on_c, 11, 77, 0
11, 132510, Note_on_c, 11, 77, 127
11, 132534, Note_on_c, 11, 77, 0
11, 132540, Note_on_c, 11, 77, 80
11, 132564, Note_on_c, 11, 77, 0
11, 132570, Note_on_c, 11, 77, 117
11, 132570, Note_on_c, 11, 77, 117
11, 132570, Note_on_c, 11, 77, 117
11, 132570, Note_on_c, 11, 77, 117
11, 132594, Note_on_c, 11, 77, 0
11, 132594, Note_on_c, 11, 77, 0
11, 132594, Note_on_c, 11, 77, 0
11, 132594, Note_on_c, 11, 77, 0
11, 132600, Note_on_c, 11, 79, 127
11, 132624, Note_on_c, 11, 79, 0
11, 132630, Note_on_c, 11, 79, 127
11, 132654, Note_on_c, 11, 79, 0
11, 132660, Note_on_c, 11, 75, 121
11, 132684, Note_on_c, 11, 75, 0
11, 132690, Note_on_c, 11, 75, 115
11, 132714, Note_on_c, 11, 75, 0
11, 132720, Note_on_c, 11, 75, 121
11, 132816, Note_on_c, 11, 75, 0
11, 134820, Note_on_c, 11, 63, 118
11, 134868, Note_on_c, 11, 63, 0
11, 134880, Note_on_c, 11, 63, 121
11, 134952, Note_on_c, 11, 63, 0
11, 134970, Note_on_c, 11, 65, 127
11, 134994, Note_on_c, 11, 65, 0
11, 135000, Note_on_c, 11, 67, 127
11, 135048, Note_on_c, 11, 67, 0
11, 135060, Note_on_c, 11, 68, 121
11, 135108, Note_on_c, 11, 68, 0
11, 135180, Note_on_c, 11, 65, 111
11, 135228, Note_on_c, 11, 65, 0
11, 135240, Note_on_c, 11, 65, 118
11, 135312, Note_on_c, 11, 65, 0
11, 135330, Note_on_c, 11, 67, 110
11, 135354, Note_on_c, 11, 67, 0
11, 135360, Note_on_c, 11, 68, 111
11, 135408, Note_on_c, 11, 68, 0
11, 135420, Note_on_c, 11, 70, 111
11, 135719, Note_on_c, 11, 70, 0
11, 135780, Note_on_c, 11, 67, 127
11, 135876, Note_on_c, 11, 67, 0
11, 138300, Note_on_c, 11, 63, 121
11, 138396, Note_on_c, 11, 63, 0
11, 138420, Note_on_c, 11, 63, 126
11, 138468, Note_on_c, 11, 63, 0
11, 138480, Note_on_c, 11, 63, 123
11, 138552, Note_on_c, 11, 63, 0
11, 138570, Note_on_c, 11, 65, 127
11, 138594, Note_on_c, 11, 65, 0
11, 138600, Note_on_c, 11, 67, 121
11, 138648, Note_on_c, 11, 67, 0
11, 138660, Note_on_c, 11, 68, 113
11, 138756, Note_on_c, 11, 68, 0
11, 138780, Note_on_c, 11, 65, 127
11, 138828, Note_on_c, 11, 65, 0
11, 138840, Note_on_c, 11, 65, 127
11, 138912, Note_on_c, 11, 65, 0
11, 138930, Note_on_c, 11, 67, 127
11, 138954, Note_on_c, 11, 67, 0
11, 138975, Note_on_c, 11, 68, 107
11, 139020, Note_on_c, 11, 70, 111
11, 139023, Note_on_c, 11, 68, 0
11, 139319, Note_on_c, 11, 70, 0
11, 139380, Note_on_c, 11, 70, 121
11, 139668, Note_on_c, 11, 70, 0
11, 139740, Note_on_c, 11, 70, 111
11, 140748, Note_on_c, 11, 70, 0
11, 140820, Note_on_c, 11, 70, 115
11, 141108, Note_on_c, 11, 70, 0
11, 141180, Note_on_c, 11, 70, 113
11, 141252, Note_on_c, 11, 70, 0
11, 141270, Note_on_c, 11, 68, 123
11, 141294, Note_on_c, 11, 68, 0
11, 141300, Note_on_c, 11, 67, 127
11, 141348, Note_on_c, 11, 67, 0
11, 141360, Note_on_c, 11, 67, 125
11, 141432, Note_on_c, 11, 67, 0
11, 141450, Note_on_c, 11, 65, 127
11, 141474, Note_on_c, 11, 65, 0
11, 141480, Note_on_c, 11, 63, 123
11, 141528, Note_on_c, 11, 63, 0
11, 141540, Note_on_c, 11, 63, 126
11, 141612, Note_on_c, 11, 63, 0
11, 141630, Note_on_c, 11, 65, 127
11, 141654, Note_on_c, 11, 65, 0
11, 141660, Note_on_c, 11, 67, 127
11, 141708, Note_on_c, 11, 67, 0
11, 141720, Note_on_c, 11, 67, 127
11, 141792, Note_on_c, 11, 67, 0
11, 141810, Note_on_c, 11, 68, 121
11, 141834, Note_on_c, 11, 68, 0
11, 141840, Note_on_c, 11, 70, 113
11, 141888, Note_on_c, 11, 70, 0
11, 141900, Note_on_c, 11, 72, 127
11, 141972, Note_on_c, 11, 72, 0
11, 141990, Note_on_c, 11, 70, 115
11, 142014, Note_on_c, 11, 70, 0
11, 142020, Note_on_c, 11, 68, 121
11, 142068, Note_on_c, 11, 68, 0
11, 142080, Note_on_c, 11, 68, 118
11, 142152, Note_on_c, 11, 68, 0
11, 142170, Note_on_c, 11, 67, 127
11, 142194, Note_on_c, 11, 67, 0
11, 142200, Note_on_c, 11, 65, 127
11, 142248, Note_on_c, 11, 65, 0
11, 142260, Note_on_c, 11, 65, 127
11, 142332, Note_on_c, 11, 65, 0
11, 142350, Note_on_c, 11, 67, 127
11, 142374, Note_on_c, 11, 67, 0
11, 142380, Note_on_c, 11, 68, 113
11, 142428, Note_on_c, 11, 68, 0
11, 142440, Note_on_c, 11, 68, 118
11, 142512, Note_on_c, 11, 68, 0
11, 142530, Note_on_c, 11, 70, 118
11, 142554, Note_on_c, 11, 70, 0
11, 142560, Note_on_c, 11, 72, 127
11, 142608, Note_on_c, 11, 72, 0
11, 142620, Note_on_c, 11, 72, 127
11, 142668, Note_on_c, 11, 72, 0
11, 142680, Note_on_c, 11, 70, 118
11, 142728, Note_on_c, 11, 70, 0
11, 142740, Note_on_c, 11, 68, 121
11, 142788, Note_on_c, 11, 68, 0
11, 142800, Note_on_c, 11, 67, 127
11, 142848, Note_on_c, 11, 67, 0
11, 142860, Note_on_c, 11, 65, 127
11, 142908, Note_on_c, 11, 65, 0
11, 142920, Note_on_c, 11, 63, 126
11, 142968, Note_on_c, 11, 63, 0
11, 142980, Note_on_c, 11, 63, 126
11, 143092, Note_on_c, 11, 63, 0
11, 143100, Note_on_c, 11, 65, 127
11, 143112, Note_on_c, 11, 65, 0
11, 143115, Note_on_c, 11, 63, 121
11, 143127, Note_on_c, 11, 63, 0
11, 143130, Note_on_c, 11, 62, 127
11, 143142, Note_on_c, 11, 62, 0
11, 143145, Note_on_c, 11, 63, 121
11, 143157, Note_on_c, 11, 63, 0
11, 143160, Note_on_c, 11, 67, 127
11, 143256, Note_on_c, 11, 67, 0
11, 143280, Note_on_c, 11, 65, 127
11, 143328, Note_on_c, 11, 65, 0
11, 143340, Note_on_c, 11, 75, 115
11, 143340, Note_on_c, 11, 63, 111
11, 143436, Note_on_c, 11, 63, 0
11, 143436, Note_on_c, 11, 75, 0
11, 143700, Note_on_c, 11, 87, 121
11, 143844, Note_on_c, 11, 87, 0
11, 143880, Note_on_c, 11, 84, 127
11, 143904, Note_on_c, 11, 84, 0
11, 143910, Note_on_c, 11, 83, 104
11, 143934, Note_on_c, 11, 83, 0
11, 143940, Note_on_c, 11, 84, 127
11, 143964, Note_on_c, 11, 84, 0
11, 143970, Note_on_c, 11, 86, 125
11, 143994, Note_on_c, 11, 86, 0
11, 144000, Note_on_c, 11, 87, 121
11, 144024, Note_on_c, 11, 87, 0
11, 144030, Note_on_c, 11, 84, 127
11, 144054, Note_on_c, 11, 84, 0
11, 144060, Note_on_c, 11, 82, 126
11, 144156, Note_on_c, 11, 82, 0
11, 144420, Note_on_c, 11, 80, 121
11, 144564, Note_on_c, 11, 80, 0
11, 144600, Note_on_c, 11, 77, 127
11, 144624, Note_on_c, 11, 77, 0
11, 144630, Note_on_c, 11, 76, 116
11, 144654, Note_on_c, 11, 76, 0
11, 144660, Note_on_c, 11, 77, 127
11, 144684, Note_on_c, 11, 77, 0
11, 144690, Note_on_c, 11, 79, 127
11, 144714, Note_on_c, 11, 79, 0
11, 144720, Note_on_c, 11, 80, 123
11, 144744, Note_on_c, 11, 80, 0
11, 144750, Note_on_c, 11, 77, 127
11, 144774, Note_on_c, 11, 77, 0
11, 144780, Note_on_c, 11, 75, 121
11, 144876, Note_on_c, 11, 75, 0
11, 153060, Note_on_c, 11, 70, 121
11, 153108, Note_on_c, 11, 70, 0
11, 153120, Note_on_c, 11, 75, 127
11, 153168, Note_on_c, 11, 75, 0
11, 153180, Note_on_c, 11, 75, 121
11, 153228, Note_on_c, 11, 75, 0
11, 153240, Note_on_c, 11, 79, 127
11, 153288, Note_on_c, 11, 79, 0
11, 153360, Note_on_c, 11, 79, 127
11, 153384, Note_on_c, 11, 79, 0
11, 153390, Note_on_c, 11, 82, 123
11, 153414, Note_on_c, 11, 82, 0
11, 153420, Note_on_c, 11, 82, 100
11, 153444, Note_on_c, 11, 82, 0
11, 153450, Note_on_c, 11, 87, 121
11, 153474, Note_on_c, 11, 87, 0
11, 153480, Note_on_c, 11, 87, 126
11, 153696, Note_on_c, 11, 87, 0
11, 153720, Note_on_c, 11, 70, 126
11, 153768, Note_on_c, 11, 70, 0
11, 153780, Note_on_c, 11, 70, 118
11, 153804, Note_on_c, 11, 70, 0
11, 153810, Note_on_c, 11, 77, 127
11, 153834, Note_on_c, 11, 77, 0
11, 153840, Note_on_c, 11, 77, 127
11, 154056, Note_on_c, 11, 77, 0
11, 154080, Note_on_c, 11, 70, 118
11, 154128, Note_on_c, 11, 70, 0
11, 154140, Note_on_c, 11, 70, 121
11, 154164, Note_on_c, 11, 70, 0
11, 154170, Note_on_c, 11, 79, 127
11, 154194, Note_on_c, 11, 79, 0
11, 154200, Note_on_c, 11, 79, 127
11, 154296, Note_on_c, 11, 79, 0
11, 154320, Note_on_c, 11, 70, 127
11, 154344, Note_on_c, 11, 70, 0
11, 154350, Note_on_c, 11, 79, 127
11, 154374, Note_on_c, 11, 79, 0
11, 154380, Note_on_c, 11, 79, 127
11, 154476, Note_on_c, 11, 79, 0
11, 154500, Note_on_c, 11, 70, 111
11, 154524, Note_on_c, 11, 70, 0
11, 154530, Note_on_c, 11, 79, 127
11, 154554, Note_on_c, 11, 79, 0
11, 154560, Note_on_c, 11, 79, 117
11, 154656, Note_on_c, 11, 79, 0
11, 154680, Note_on_c, 11, 70, 115
11, 154704, Note_on_c, 11, 70, 0
11, 154710, Note_on_c, 11, 79, 127
11, 154734, Note_on_c, 11, 79, 0
11, 154740, Note_on_c, 11, 79, 127
11, 154836, Note_on_c, 11, 79, 0
11, 154860, Note_on_c, 11, 79, 127
11, 154860, Note_on_c, 11, 55, 127
11, 154860, Note_on_c, 11, 63, 105
11, 154860, Note_on_c, 11, 70, 111
11, 154956, Note_on_c, 11, 70, 0
11, 154956, Note_on_c, 11, 79, 0
11, 154956, Note_on_c, 11, 55, 0
11, 154956, Note_on_c, 11, 63, 0
11, 155040, Note_on_c, 11, 75, 126
11, 155040, Note_on_c, 11, 63, 90
11, 155040, Note_on_c, 11, 55, 118
11, 155136, Note_on_c, 11, 55, 0
11, 155136, Note_on_c, 11, 63, 0
11, 155136, Note_on_c, 11, 75, 0
11, 155220, Note_on_c, 11, 63, 118
11, 155220, Note_on_c, 11, 55, 125
11, 155316, Note_on_c, 11, 55, 0
11, 155316, Note_on_c, 11, 63, 0
11, 155316, End_track
12, 0, Start_track
12, 0, MIDI_port, 0
12, 0, Title_t, "Violin II"
12, 0, Program_c, 11, 48
12, 0, Control_c, 11, 7, 109
12, 0, Control_c, 11, 10, 64
12, 0, Control_c, 11, 93, 0
12, 0, Control_c, 11, 91, 0
12, 4980, Note_on_c, 11, 62, 127
12, 5004, Note_on_c, 11, 62, 0
12, 5010, Note_on_c, 11, 61, 126
12, 5034, Note_on_c, 11, 61, 0
12, 5040, Note_on_c, 11, 61, 127
12, 5088, Note_on_c, 11, 61, 0
12, 5160, Note_on_c, 11, 60, 127
12, 5184, Note_on_c, 11, 60, 0
12, 5190, Note_on_c, 11, 59, 117
12, 5214, Note_on_c, 11, 59, 0
12, 5220, Note_on_c, 11, 59, 127
12, 5268, Note_on_c, 11, 59, 0
12, 5340, Note_on_c, 11, 58, 127
12, 5364, Note_on_c, 11, 58, 0
12, 5370, Note_on_c, 11, 57, 127
12, 5394, Note_on_c, 11, 57, 0
12, 5400, Note_on_c, 11, 57, 125
12, 5448, Note_on_c, 11, 57, 0
12, 5520, Note_on_c, 11, 56, 99
12, 5544, Note_on_c, 11, 56, 0
12, 5550, Note_on_c, 11, 55, 121
12, 5574, Note_on_c, 11, 55, 0
12, 5580, Note_on_c, 11, 55, 127
12, 5628, Note_on_c, 11, 55, 0
12, 5700, Note_on_c, 11, 58, 121
12, 5700, Note_on_c, 11, 70, 127
12, 5724, Note_on_c, 11, 70, 0
12, 5724, Note_on_c, 11, 58, 0
12, 5730, Note_on_c, 11, 58, 118
12, 5730, Note_on_c, 11, 70, 127
12, 5754, Note_on_c, 11, 70, 0
12, 5754, Note_on_c, 11, 58, 0
12, 5760, Note_on_c, 11, 58, 109
12, 5760, Note_on_c, 11, 70, 126
12, 5904, Note_on_c, 11, 70, 0
12, 5904, Note_on_c, 11, 58, 0
12, 5940, Note_on_c, 11, 58, 115
12, 5940, Note_on_c, 11, 70, 126
12, 6084, Note_on_c, 11, 70, 0
12, 6084, Note_on_c, 11, 58, 0
12, 6120, Note_on_c, 11, 58, 99
12, 6120, Note_on_c, 11, 70, 113
12, 6144, Note_on_c, 11, 70, 0
12, 6144, Note_on_c, 11, 58, 0
12, 6150, Note_on_c, 11, 58, 97
12, 6150, Note_on_c, 11, 70, 118
12, 6174, Note_on_c, 11, 70, 0
12, 6174, Note_on_c, 11, 58, 0
12, 6180, Note_on_c, 11, 58, 97
12, 6180, Note_on_c, 11, 70, 111
12, 6204, Note_on_c, 11, 70, 0
12, 6204, Note_on_c, 11, 58, 0
12, 6210, Note_on_c, 11, 58, 97
12, 6210, Note_on_c, 11, 70, 107
12, 6234, Note_on_c, 11, 70, 0
12, 6234, Note_on_c, 11, 58, 0
12, 6240, Note_on_c, 11, 58, 101
12, 6240, Note_on_c, 11, 70, 107
12, 6264, Note_on_c, 11, 70, 0
12, 6264, Note_on_c, 11, 58, 0
12, 6270, Note_on_c, 11, 58, 103
12, 6270, Note_on_c, 11, 70, 111
12, 6294, Note_on_c, 11, 70, 0
12, 6294, Note_on_c, 11, 58, 0
12, 6300, Note_on_c, 11, 58, 113
12, 6300, Note_on_c, 11, 70, 121
12, 6444, Note_on_c, 11, 70, 0
12, 6444, Note_on_c, 11, 58, 0
12, 6480, Note_on_c, 11, 58, 107
12, 6480, Note_on_c, 11, 68, 127
12, 6624, Note_on_c, 11, 68, 0
12, 6624, Note_on_c, 11, 58, 0
12, 6660, Note_on_c, 11, 58, 107
12, 6660, Note_on_c, 11, 67, 127
12, 6804, Note_on_c, 11, 67, 0
12, 6804, Note_on_c, 11, 58, 0
12, 6840, Note_on_c, 11, 65, 127
12, 6840, Note_on_c, 11, 58, 100
12, 6984, Note_on_c, 11, 58, 0
12, 6984, Note_on_c, 11, 65, 0
12, 7020, Note_on_c, 11, 58, 96
12, 7020, Note_on_c, 11, 65, 127
12, 7044, Note_on_c, 11, 65, 0
12, 7044, Note_on_c, 11, 58, 0
12, 7050, Note_on_c, 11, 58, 95
12, 7050, Note_on_c, 11, 65, 127
12, 7074, Note_on_c, 11, 65, 0
12, 7074, Note_on_c, 11, 58, 0
12, 7080, Note_on_c, 11, 58, 100
12, 7080, Note_on_c, 11, 65, 127
12, 7104, Note_on_c, 11, 65, 0
12, 7104, Note_on_c, 11, 58, 0
12, 7110, Note_on_c, 11, 58, 103
12, 7110, Note_on_c, 11, 65, 127
12, 7134, Note_on_c, 11, 65, 0
12, 7134, Note_on_c, 11, 58, 0
12, 7140, Note_on_c, 11, 58, 91
12, 7140, Note_on_c, 11, 67, 125
12, 7164, Note_on_c, 11, 67, 0
12, 7164, Note_on_c, 11, 58, 0
12, 7170, Note_on_c, 11, 58, 103
12, 7170, Note_on_c, 11, 67, 127
12, 7194, Note_on_c, 11, 67, 0
12, 7194, Note_on_c, 11, 58, 0
12, 7200, Note_on_c, 11, 58, 96
12, 7200, Note_on_c, 11, 67, 127
12, 7344, Note_on_c, 11, 67, 0
12, 7344, Note_on_c, 11, 58, 0
12, 7380, Note_on_c, 11, 58, 91
12, 7380, Note_on_c, 11, 67, 127
12, 7524, Note_on_c, 11, 67, 0
12, 7524, Note_on_c, 11, 58, 0
12, 7560, Note_on_c, 11, 58, 101
12, 7560, Note_on_c, 11, 67, 117
12, 7584, Note_on_c, 11, 67, 0
12, 7584, Note_on_c, 11, 58, 0
12, 7590, Note_on_c, 11, 58, 85
12, 7590, Note_on_c, 11, 67, 123
12, 7614, Note_on_c, 11, 67, 0
12, 7614, Note_on_c, 11, 58, 0
12, 7620, Note_on_c, 11, 58, 88
12, 7620, Note_on_c, 11, 67, 127
12, 7644, Note_on_c, 11, 67, 0
12, 7644, Note_on_c, 11, 58, 0
12, 7650, Note_on_c, 11, 58, 85
12, 7650, Note_on_c, 11, 67, 123
12, 7674, Note_on_c, 11, 67, 0
12, 7674, Note_on_c, 11, 58, 0
12, 7680, Note_on_c, 11, 67, 120
12, 7680, Note_on_c, 11, 58, 86
12, 7704, Note_on_c, 11, 58, 0
12, 7704, Note_on_c, 11, 67, 0
12, 7710, Note_on_c, 11, 58, 95
12, 7710, Note_on_c, 11, 67, 112
12, 7734, Note_on_c, 11, 67, 0
12, 7734, Note_on_c, 11, 58, 0
12, 7740, Note_on_c, 11, 58, 95
12, 7740, Note_on_c, 11, 67, 127
12, 7884, Note_on_c, 11, 67, 0
12, 7884, Note_on_c, 11, 58, 0
12, 7920, Note_on_c, 11, 58, 100
12, 7920, Note_on_c, 11, 68, 127
12, 8064, Note_on_c, 11, 68, 0
12, 8064, Note_on_c, 11, 58, 0
12, 8100, Note_on_c, 11, 58, 103
12, 8100, Note_on_c, 11, 67, 127
12, 8244, Note_on_c, 11, 67, 0
12, 8244, Note_on_c, 11, 58, 0
12, 8280, Note_on_c, 11, 65, 127
12, 8280, Note_on_c, 11, 58, 94
12, 8424, Note_on_c, 11, 58, 0
12, 8424, Note_on_c, 11, 65, 0
12, 8460, Note_on_c, 11, 58, 94
12, 8460, Note_on_c, 11, 65, 127
12, 8484, Note_on_c, 11, 65, 0
12, 8484, Note_on_c, 11, 58, 0
12, 8490, Note_on_c, 11, 58, 107
12, 8490, Note_on_c, 11, 65, 127
12, 8514, Note_on_c, 11, 65, 0
12, 8514, Note_on_c, 11, 58, 0
12, 8520, Note_on_c, 11, 65, 125
12, 8544, Note_on_c, 11, 65, 0
12, 8550, Note_on_c, 11, 65, 120
12, 8574, Note_on_c, 11, 65, 0
12, 8580, Note_on_c, 11, 64, 127
12, 8604, Note_on_c, 11, 64, 0
12, 8610, Note_on_c, 11, 64, 116
12, 8634, Note_on_c, 11, 64, 0
12, 8640, Note_on_c, 11, 63, 103
12, 8664, Note_on_c, 11, 63, 0
12, 8670, Note_on_c, 11, 63, 100
12, 8694, Note_on_c, 11, 63, 0
12, 8700, Note_on_c, 11, 63, 94
12, 8724, Note_on_c, 11, 63, 0
12, 8730, Note_on_c, 11, 63, 111
12, 8754, Note_on_c, 11, 63, 0
12, 8760, Note_on_c, 11, 62, 123
12, 8784, Note_on_c, 11, 62, 0
12, 8790, Note_on_c, 11, 62, 117
12, 8814, Note_on_c, 11, 62, 0
12, 8820, Note_on_c, 11, 61, 107
12, 8844, Note_on_c, 11, 61, 0
12, 8850, Note_on_c, 11, 61, 115
12, 8874, Note_on_c, 11, 61, 0
12, 8880, Note_on_c, 11, 61, 109
12, 8904, Note_on_c, 11, 61, 0
12, 8910, Note_on_c, 11, 61, 107
12, 8934, Note_on_c, 11, 61, 0
12, 8940, Note_on_c, 11, 60, 114
12, 8964, Note_on_c, 11, 60, 0
12, 8970, Note_on_c, 11, 60, 117
12, 8994, Note_on_c, 11, 60, 0
12, 9000, Note_on_c, 11, 59, 127
12, 9024, Note_on_c, 11, 59, 0
12, 9030, Note_on_c, 11, 59, 118
12, 9054, Note_on_c, 11, 59, 0
12, 9060, Note_on_c, 11, 59, 118
12, 9084, Note_on_c, 11, 59, 0
12, 9090, Note_on_c, 11, 59, 123
12, 9114, Note_on_c, 11, 59, 0
12, 9120, Note_on_c, 11, 58, 101
12, 9144, Note_on_c, 11, 58, 0
12, 9150, Note_on_c, 11, 58, 107
12, 9174, Note_on_c, 11, 58, 0
12, 9180, Note_on_c, 11, 57, 118
12, 9204, Note_on_c, 11, 57, 0
12, 9210, Note_on_c, 11, 57, 125
12, 9234, Note_on_c, 11, 57, 0
12, 9240, Note_on_c, 11, 57, 127
12, 9264, Note_on_c, 11, 57, 0
12, 9270, Note_on_c, 11, 57, 127
12, 9294, Note_on_c, 11, 57, 0
12, 9300, Note_on_c, 11, 56, 111
12, 9324, Note_on_c, 11, 56, 0
12, 9330, Note_on_c, 11, 56, 97
12, 9354, Note_on_c, 11, 56, 0
12, 9360, Note_on_c, 11, 56, 127
12, 9384, Note_on_c, 11, 56, 0
12, 9390, Note_on_c, 11, 58, 113
12, 9414, Note_on_c, 11, 58, 0
12, 9420, Note_on_c, 11, 56, 113
12, 9444, Note_on_c, 11, 56, 0
12, 9450, Note_on_c, 11, 58, 113
12, 9474, Note_on_c, 11, 58, 0
12, 9480, Note_on_c, 11, 56, 111
12, 9504, Note_on_c, 11, 56, 0
12, 9510, Note_on_c, 11, 58, 115
12, 9534, Note_on_c, 11, 58, 0
12, 9540, Note_on_c, 11, 56, 111
12, 9564, Note_on_c, 11, 56, 0
12, 9570, Note_on_c, 11, 58, 113
12, 9594, Note_on_c, 11, 58, 0
12, 9600, Note_on_c, 11, 56, 118
12, 9624, Note_on_c, 11, 56, 0
12, 9630, Note_on_c, 11, 55, 117
12, 9654, Note_on_c, 11, 55, 0
12, 9660, Note_on_c, 11, 56, 118
12, 9684, Note_on_c, 11, 56, 0
12, 9690, Note_on_c, 11, 58, 121
12, 9714, Note_on_c, 11, 58, 0
12, 9720, Note_on_c, 11, 55, 117
12, 9744, Note_on_c, 11, 55, 0
12, 9750, Note_on_c, 11, 58, 113
12, 9774, Note_on_c, 11, 58, 0
12, 9780, Note_on_c, 11, 55, 123
12, 9804, Note_on_c, 11, 55, 0
12, 9810, Note_on_c, 11, 58, 107
12, 9834, Note_on_c, 11, 58, 0
12, 9840, Note_on_c, 11, 55, 110
12, 9864, Note_on_c, 11, 55, 0
12, 9870, Note_on_c, 11, 58, 101
12, 9894, Note_on_c, 11, 58, 0
12, 9900, Note_on_c, 11, 55, 125
12, 9924, Note_on_c, 11, 55, 0
12, 9930, Note_on_c, 11, 58, 109
12, 9954, Note_on_c, 11, 58, 0
12, 9960, Note_on_c, 11, 55, 120
12, 9984, Note_on_c, 11, 55, 0
12, 9990, Note_on_c, 11, 58, 123
12, 10014, Note_on_c, 11, 58, 0
12, 10020, Note_on_c, 11, 56, 111
12, 10044, Note_on_c, 11, 56, 0
12, 10050, Note_on_c, 11, 58, 118
12, 10074, Note_on_c, 11, 58, 0
12, 10080, Note_on_c, 11, 56, 111
12, 10104, Note_on_c, 11, 56, 0
12, 10110, Note_on_c, 11, 58, 109
12, 10134, Note_on_c, 11, 58, 0
12, 10140, Note_on_c, 11, 56, 107
12, 10164, Note_on_c, 11, 56, 0
12, 10170, Note_on_c, 11, 58, 111
12, 10194, Note_on_c, 11, 58, 0
12, 10200, Note_on_c, 11, 56, 105
12, 10224, Note_on_c, 11, 56, 0
12, 10230, Note_on_c, 11, 58, 121
12, 10254, Note_on_c, 11, 58, 0
12, 10260, Note_on_c, 11, 56, 109
12, 10284, Note_on_c, 11, 56, 0
12, 10290, Note_on_c, 11, 58, 109
12, 10314, Note_on_c, 11, 58, 0
12, 10320, Note_on_c, 11, 56, 113
12, 10344, Note_on_c, 11, 56, 0
12, 10350, Note_on_c, 11, 55, 121
12, 10374, Note_on_c, 11, 55, 0
12, 10380, Note_on_c, 11, 56, 113
12, 10404, Note_on_c, 11, 56, 0
12, 10410, Note_on_c, 11, 58, 121
12, 10434, Note_on_c, 11, 58, 0
12, 10440, Note_on_c, 11, 55, 116
12, 10464, Note_on_c, 11, 55, 0
12, 10470, Note_on_c, 11, 58, 103
12, 10494, Note_on_c, 11, 58, 0
12, 10500, Note_on_c, 11, 55, 114
12, 10524, Note_on_c, 11, 55, 0
12, 10530, Note_on_c, 11, 58, 100
12, 10554, Note_on_c, 11, 58, 0
12, 10560, Note_on_c, 11, 55, 110
12, 10584, Note_on_c, 11, 55, 0
12, 10590, Note_on_c, 11, 58, 100
12, 10614, Note_on_c, 11, 58, 0
12, 10620, Note_on_c, 11, 55, 118
12, 10644, Note_on_c, 11, 55, 0
12, 10650, Note_on_c, 11, 58, 118
12, 10674, Note_on_c, 11, 58, 0
12, 10680, Note_on_c, 11, 63, 113
12, 10704, Note_on_c, 11, 63, 0
12, 10710, Note_on_c, 11, 58, 103
12, 10734, Note_on_c, 11, 58, 0
12, 10740, Note_on_c, 11, 55, 121
12, 10764, Note_on_c, 11, 55, 0
12, 10770, Note_on_c, 11, 58, 115
12, 10794, Note_on_c, 11, 58, 0
12, 10800, Note_on_c, 11, 56, 109
12, 10824, Note_on_c, 11, 56, 0
12, 10830, Note_on_c, 11, 58, 105
12, 10854, Note_on_c, 11, 58, 0
12, 10860, Note_on_c, 11, 56, 105
12, 10884, Note_on_c, 11, 56, 0
12, 10890, Note_on_c, 11, 58, 109
12, 10914, Note_on_c, 11, 58, 0
12, 10920, Note_on_c, 11, 56, 99
12, 10944, Note_on_c, 11, 56, 0
12, 10950, Note_on_c, 11, 58, 105
12, 10974, Note_on_c, 11, 58, 0
12, 10980, Note_on_c, 11, 56, 113
12, 11004, Note_on_c, 11, 56, 0
12, 11010, Note_on_c, 11, 58, 103
12, 11034, Note_on_c, 11, 58, 0
12, 11040, Note_on_c, 11, 62, 127
12, 11064, Note_on_c, 11, 62, 0
12, 11070, Note_on_c, 11, 58, 111
12, 11094, Note_on_c, 11, 58, 0
12, 11100, Note_on_c, 11, 56, 113
12, 11124, Note_on_c, 11, 56, 0
12, 11130, Note_on_c, 11, 58, 115
12, 11154, Note_on_c, 11, 58, 0
12, 11160, Note_on_c, 11, 58, 118
12, 11184, Note_on_c, 11, 58, 0
12, 11190, Note_on_c, 11, 63, 121
12, 11214, Note_on_c, 11, 63, 0
12, 11220, Note_on_c, 11, 58, 113
12, 11244, Note_on_c, 11, 58, 0
12, 11250, Note_on_c, 11, 63, 126
12, 11274, Note_on_c, 11, 63, 0
12, 11280, Note_on_c, 11, 58, 107
12, 11304, Note_on_c, 11, 58, 0
12, 11310, Note_on_c, 11, 63, 109
12, 11334, Note_on_c, 11, 63, 0
12, 11340, Note_on_c, 11, 58, 109
12, 11364, Note_on_c, 11, 58, 0
12, 11370, Note_on_c, 11, 63, 126
12, 11394, Note_on_c, 11, 63, 0
12, 11400, Note_on_c, 11, 67, 127
12, 11424, Note_on_c, 11, 67, 0
12, 11430, Note_on_c, 11, 63, 121
12, 11454, Note_on_c, 11, 63, 0
12, 11460, Note_on_c, 11, 58, 101
12, 11484, Note_on_c, 11, 58, 0
12, 11490, Note_on_c, 11, 63, 127
12, 11514, Note_on_c, 11, 63, 0
12, 11520, Note_on_c, 11, 60, 111
12, 11544, Note_on_c, 11, 60, 0
12, 11550, Note_on_c, 11, 63, 118
12, 11574, Note_on_c, 11, 63, 0
12, 11580, Note_on_c, 11, 60, 125
12, 11604, Note_on_c, 11, 60, 0
12, 11610, Note_on_c, 11, 63, 105
12, 11634, Note_on_c, 11, 63, 0
12, 11640, Note_on_c, 11, 60, 117
12, 11664, Note_on_c, 11, 60, 0
12, 11670, Note_on_c, 11, 63, 113
12, 11694, Note_on_c, 11, 63, 0
12, 11700, Note_on_c, 11, 60, 127
12, 11724, Note_on_c, 11, 60, 0
12, 11730, Note_on_c, 11, 63, 113
12, 11754, Note_on_c, 11, 63, 0
12, 11760, Note_on_c, 11, 60, 127
12, 11784, Note_on_c, 11, 60, 0
12, 11790, Note_on_c, 11, 63, 105
12, 11814, Note_on_c, 11, 63, 0
12, 11820, Note_on_c, 11, 60, 117
12, 11844, Note_on_c, 11, 60, 0
12, 11850, Note_on_c, 11, 63, 123
12, 11874, Note_on_c, 11, 63, 0
12, 11880, Note_on_c, 11, 62, 127
12, 11904, Note_on_c, 11, 62, 0
12, 11910, Note_on_c, 11, 58, 105
12, 11934, Note_on_c, 11, 58, 0
12, 11940, Note_on_c, 11, 63, 127
12, 11964, Note_on_c, 11, 63, 0
12, 11970, Note_on_c, 11, 60, 127
12, 11994, Note_on_c, 11, 60, 0
12, 12000, Note_on_c, 11, 65, 127
12, 12024, Note_on_c, 11, 65, 0
12, 12030, Note_on_c, 11, 62, 127
12, 12054, Note_on_c, 11, 62, 0
12, 12060, Note_on_c, 11, 67, 127
12, 12084, Note_on_c, 11, 67, 0
12, 12090, Note_on_c, 11, 63, 113
12, 12114, Note_on_c, 11, 63, 0
12, 12120, Note_on_c, 11, 68, 99
12, 12144, Note_on_c, 11, 68, 0
12, 12150, Note_on_c, 11, 65, 127
12, 12174, Note_on_c, 11, 65, 0
12, 12180, Note_on_c, 11, 70, 115
12, 12204, Note_on_c, 11, 70, 0
12, 12210, Note_on_c, 11, 67, 127
12, 12234, Note_on_c, 11, 67, 0
12, 12240, Note_on_c, 11, 72, 116
12, 12336, Note_on_c, 11, 72, 0
12, 12420, Note_on_c, 11, 65, 103
12, 12420, Note_on_c, 11, 74, 108
12, 12420, Note_on_c, 11, 58, 79
12, 12516, Note_on_c, 11, 58, 0
12, 12516, Note_on_c, 11, 74, 0
12, 12516, Note_on_c, 11, 65, 0
12, 12600, Note_on_c, 11, 67, 120
12, 12600, Note_on_c, 11, 75, 89
12, 12600, Note_on_c, 11, 58, 84
12, 12696, Note_on_c, 11, 58, 0
12, 12696, Note_on_c, 11, 75, 0
12, 12696, Note_on_c, 11, 67, 0
12, 12990, Note_on_c, 11, 63, 118
12, 13014, Note_on_c, 11, 63, 0
12, 13020, Note_on_c, 11, 65, 127
12, 13044, Note_on_c, 11, 65, 0
12, 13050, Note_on_c, 11, 67, 125
12, 13074, Note_on_c, 11, 67, 0
12, 13080, Note_on_c, 11, 68, 107
12, 13104, Note_on_c, 11, 68, 0
12, 13110, Note_on_c, 11, 70, 88
12, 13134, Note_on_c, 11, 70, 0
12, 13140, Note_on_c, 11, 72, 127
12, 13164, Note_on_c, 11, 72, 0
12, 13170, Note_on_c, 11, 71, 120
12, 13194, Note_on_c, 11, 71, 0
12, 13200, Note_on_c, 11, 72, 127
12, 13224, Note_on_c, 11, 72, 0
12, 13230, Note_on_c, 11, 74, 127
12, 13254, Note_on_c, 11, 74, 0
12, 13260, Note_on_c, 11, 75, 123
12, 13284, Note_on_c, 11, 75, 0
12, 13290, Note_on_c, 11, 72, 116
12, 13314, Note_on_c, 11, 72, 0
12, 13320, Note_on_c, 11, 70, 123
12, 13416, Note_on_c, 11, 70, 0
12, 13740, Note_on_c, 11, 58, 118
12, 13764, Note_on_c, 11, 58, 0
12, 13770, Note_on_c, 11, 60, 127
12, 13794, Note_on_c, 11, 60, 0
12, 13800, Note_on_c, 11, 62, 127
12, 13824, Note_on_c, 11, 62, 0
12, 13830, Note_on_c, 11, 63, 126
12, 13854, Note_on_c, 11, 63, 0
12, 13860, Note_on_c, 11, 65, 127
12, 13884, Note_on_c, 11, 65, 0
12, 13890, Note_on_c, 11, 64, 116
12, 13914, Note_on_c, 11, 64, 0
12, 13920, Note_on_c, 11, 65, 127
12, 13944, Note_on_c, 11, 65, 0
12, 13950, Note_on_c, 11, 67, 127
12, 13974, Note_on_c, 11, 67, 0
12, 13980, Note_on_c, 11, 68, 100
12, 14004, Note_on_c, 11, 68, 0
12, 14010, Note_on_c, 11, 65, 127
12, 14034, Note_on_c, 11, 65, 0
12, 14040, Note_on_c, 11, 63, 101
12, 14136, Note_on_c, 11, 63, 0
12, 14400, Note_on_c, 11, 70, 81
12, 14400, Note_on_c, 11, 79, 125
12, 14400, Note_on_c, 11, 63, 85
12, 14400, Note_on_c, 11, 55, 109
12, 14496, Note_on_c, 11, 55, 0
12, 14496, Note_on_c, 11, 70, 0
12, 14496, Note_on_c, 11, 79, 0
12, 14496, Note_on_c, 11, 63, 0
12, 14760, Note_on_c, 11, 55, 110
12, 14760, Note_on_c, 11, 63, 113
12, 14856, Note_on_c, 11, 63, 0
12, 14856, Note_on_c, 11, 55, 0
12, 19560, Note_on_c, 11, 58, 86
12, 19608, Note_on_c, 11, 58, 0
12, 19620, Note_on_c, 11, 58, 90
12, 19716, Note_on_c, 11, 58, 0
12, 20280, Note_on_c, 11, 60, 90
12, 20328, Note_on_c, 11, 60, 0
12, 20340, Note_on_c, 11, 60, 102
12, 20436, Note_on_c, 11, 60, 0
12, 21960, Note_on_c, 11, 67, 125
12, 21960, Note_on_c, 11, 60, 116
12, 22056, Note_on_c, 11, 60, 0
12, 22056, Note_on_c, 11, 67, 0
12, 22140, Note_on_c, 11, 67, 125
12, 22164, Note_on_c, 11, 67, 0
12, 22170, Note_on_c, 11, 67, 127
12, 22194, Note_on_c, 11, 67, 0
12, 22200, Note_on_c, 11, 65, 125
12, 22224, Note_on_c, 11, 65, 0
12, 22230, Note_on_c, 11, 65, 127
12, 22254, Note_on_c, 11, 65, 0
12, 22260, Note_on_c, 11, 63, 121
12, 22284, Note_on_c, 11, 63, 0
12, 22290, Note_on_c, 11, 63, 121
12, 22314, Note_on_c, 11, 63, 0
12, 22320, Note_on_c, 11, 62, 118
12, 22344, Note_on_c, 11, 62, 0
12, 22350, Note_on_c, 11, 62, 116
12, 22374, Note_on_c, 11, 62, 0
12, 22380, Note_on_c, 11, 60, 117
12, 22404, Note_on_c, 11, 60, 0
12, 22410, Note_on_c, 11, 60, 118
12, 22434, Note_on_c, 11, 60, 0
12, 22440, Note_on_c, 11, 59, 114
12, 22464, Note_on_c, 11, 59, 0
12, 22470, Note_on_c, 11, 59, 127
12, 22494, Note_on_c, 11, 59, 0
12, 22500, Note_on_c, 11, 60, 127
12, 22524, Note_on_c, 11, 60, 0
12, 22530, Note_on_c, 11, 60, 120
12, 22554, Note_on_c, 11, 60, 0
12, 22560, Note_on_c, 11, 60, 121
12, 22584, Note_on_c, 11, 60, 0
12, 22590, Note_on_c, 11, 60, 121
12, 22614, Note_on_c, 11, 60, 0
12, 22620, Note_on_c, 11, 62, 123
12, 22644, Note_on_c, 11, 62, 0
12, 22650, Note_on_c, 11, 62, 118
12, 22674, Note_on_c, 11, 62, 0
12, 22680, Note_on_c, 11, 63, 113
12, 22680, Note_on_c, 11, 60, 117
12, 22704, Note_on_c, 11, 60, 0
12, 22704, Note_on_c, 11, 63, 0
12, 22710, Note_on_c, 11, 63, 111
12, 22710, Note_on_c, 11, 60, 109
12, 22734, Note_on_c, 11, 60, 0
12, 22734, Note_on_c, 11, 63, 0
12, 22740, Note_on_c, 11, 63, 105
12, 22740, Note_on_c, 11, 60, 107
12, 22764, Note_on_c, 11, 60, 0
12, 22764, Note_on_c, 11, 63, 0
12, 22770, Note_on_c, 11, 63, 109
12, 22770, Note_on_c, 11, 60, 109
12, 22794, Note_on_c, 11, 60, 0
12, 22794, Note_on_c, 11, 63, 0
12, 22800, Note_on_c, 11, 63, 113
12, 22800, Note_on_c, 11, 60, 110
12, 22824, Note_on_c, 11, 60, 0
12, 22824, Note_on_c, 11, 63, 0
12, 22830, Note_on_c, 11, 63, 115
12, 22830, Note_on_c, 11, 60, 118
12, 22854, Note_on_c, 11, 60, 0
12, 22854, Note_on_c, 11, 63, 0
12, 22860, Note_on_c, 11, 58, 95
12, 22860, Note_on_c, 11, 62, 127
12, 22884, Note_on_c, 11, 62, 0
12, 22884, Note_on_c, 11, 58, 0
12, 22890, Note_on_c, 11, 62, 127
12, 22890, Note_on_c, 11, 58, 113
12, 22914, Note_on_c, 11, 58, 0
12, 22914, Note_on_c, 11, 62, 0
12, 22920, Note_on_c, 11, 62, 127
12, 22944, Note_on_c, 11, 62, 0
12, 22950, Note_on_c, 11, 62, 123
12, 22974, Note_on_c, 11, 62, 0
12, 22980, Note_on_c, 11, 60, 112
12, 23004, Note_on_c, 11, 60, 0
12, 23010, Note_on_c, 11, 60, 127
12, 23034, Note_on_c, 11, 60, 0
12, 23040, Note_on_c, 11, 72, 125
12, 23040, Note_on_c, 11, 57, 121
12, 23040, Note_on_c, 11, 65, 101
12, 23136, Note_on_c, 11, 65, 0
12, 23136, Note_on_c, 11, 57, 0
12, 23136, Note_on_c, 11, 72, 0
12, 23760, Note_on_c, 11, 59, 127
12, 23856, Note_on_c, 11, 59, 0
12, 24480, Note_on_c, 11, 60, 127
12, 24576, Note_on_c, 11, 60, 0
12, 25500, Note_on_c, 11, 57, 105
12, 25548, Note_on_c, 11, 57, 0
12, 25560, Note_on_c, 11, 57, 99
12, 26208, Note_on_c, 11, 57, 0
12, 26280, Note_on_c, 11, 58, 113
12, 26928, Note_on_c, 11, 58, 0
12, 27000, Note_on_c, 11, 60, 113
12, 27648, Note_on_c, 11, 60, 0
12, 27720, Note_on_c, 11, 58, 93
12, 27900, Note_on_c, 11, 63, 113
12, 27929, Note_on_c, 11, 58, 0
12, 28080, Note_on_c, 11, 62, 112
12, 28109, Note_on_c, 11, 63, 0
12, 28260, Note_on_c, 11, 60, 127
12, 28289, Note_on_c, 11, 62, 0
12, 28404, Note_on_c, 11, 60, 0
12, 28440, Note_on_c, 11, 58, 105
12, 28620, Note_on_c, 11, 63, 121
12, 28634, Note_on_c, 11, 58, 0
12, 28800, Note_on_c, 11, 62, 125
12, 28814, Note_on_c, 11, 63, 0
12, 28980, Note_on_c, 11, 60, 127
12, 29009, Note_on_c, 11, 62, 0
12, 29124, Note_on_c, 11, 60, 0
12, 29160, Note_on_c, 11, 58, 111
12, 29340, Note_on_c, 11, 63, 121
12, 29369, Note_on_c, 11, 58, 0
12, 29520, Note_on_c, 11, 62, 113
12, 29549, Note_on_c, 11, 63, 0
12, 29700, Note_on_c, 11, 63, 121
12, 29729, Note_on_c, 11, 62, 0
12, 29844, Note_on_c, 11, 63, 0
12, 29880, Note_on_c, 11, 62, 125
12, 29976, Note_on_c, 11, 62, 0
12, 30000, Note_on_c, 11, 63, 111
12, 30048, Note_on_c, 11, 63, 0
12, 30060, Note_on_c, 11, 62, 127
12, 30172, Note_on_c, 11, 62, 0
12, 30180, Note_on_c, 11, 63, 113
12, 30228, Note_on_c, 11, 63, 0
12, 30240, Note_on_c, 11, 62, 125
12, 30336, Note_on_c, 11, 62, 0
12, 30360, Note_on_c, 11, 63, 121
12, 30408, Note_on_c, 11, 63, 0
12, 30420, Note_on_c, 11, 62, 127
12, 30516, Note_on_c, 11, 62, 0
12, 30540, Note_on_c, 11, 63, 115
12, 30588, Note_on_c, 11, 63, 0
12, 30600, Note_on_c, 11, 65, 127
12, 30696, Note_on_c, 11, 65, 0
12, 38460, Note_on_c, 11, 58, 96
12, 38508, Note_on_c, 11, 58, 0
12, 38520, Note_on_c, 11, 68, 88
12, 38616, Note_on_c, 11, 68, 0
12, 38640, Note_on_c, 11, 68, 103
12, 38688, Note_on_c, 11, 68, 0
12, 38700, Note_on_c, 11, 68, 121
12, 38772, Note_on_c, 11, 68, 0
12, 38790, Note_on_c, 11, 67, 125
12, 38814, Note_on_c, 11, 67, 0
12, 38820, Note_on_c, 11, 65, 112
12, 38868, Note_on_c, 11, 65, 0
12, 38940, Note_on_c, 11, 58, 109
12, 38988, Note_on_c, 11, 58, 0
12, 39000, Note_on_c, 11, 55, 127
12, 39048, Note_on_c, 11, 55, 0
12, 39060, Note_on_c, 11, 55, 118
12, 39156, Note_on_c, 11, 55, 0
12, 41340, Note_on_c, 11, 65, 127
12, 41388, Note_on_c, 11, 65, 0
12, 41400, Note_on_c, 11, 64, 127
12, 41496, Note_on_c, 11, 64, 0
12, 41520, Note_on_c, 11, 64, 127
12, 41568, Note_on_c, 11, 64, 0
12, 41580, Note_on_c, 11, 64, 121
12, 41652, Note_on_c, 11, 64, 0
12, 41670, Note_on_c, 11, 65, 123
12, 41694, Note_on_c, 11, 65, 0
12, 41700, Note_on_c, 11, 67, 127
12, 41748, Note_on_c, 11, 67, 0
12, 41760, Note_on_c, 11, 67, 121
12, 41808, Note_on_c, 11, 67, 0
12, 41820, Note_on_c, 11, 68, 121
12, 41868, Note_on_c, 11, 68, 0
12, 41880, Note_on_c, 11, 65, 123
12, 41928, Note_on_c, 11, 65, 0
12, 41940, Note_on_c, 11, 65, 127
12, 42036, Note_on_c, 11, 65, 0
12, 42780, Note_on_c, 11, 60, 127
12, 42828, Note_on_c, 11, 60, 0
12, 42840, Note_on_c, 11, 59, 127
12, 42936, Note_on_c, 11, 59, 0
12, 42960, Note_on_c, 11, 59, 127
12, 43008, Note_on_c, 11, 59, 0
12, 43020, Note_on_c, 11, 59, 127
12, 43092, Note_on_c, 11, 59, 0
12, 43110, Note_on_c, 11, 60, 127
12, 43134, Note_on_c, 11, 60, 0
12, 43140, Note_on_c, 11, 62, 127
12, 43188, Note_on_c, 11, 62, 0
12, 43200, Note_on_c, 11, 63, 127
12, 43296, Note_on_c, 11, 63, 0
12, 43320, Note_on_c, 11, 60, 127
12, 43368, Note_on_c, 11, 60, 0
12, 43380, Note_on_c, 11, 60, 127
12, 43452, Note_on_c, 11, 60, 0
12, 43470, Note_on_c, 11, 62, 127
12, 43494, Note_on_c, 11, 62, 0
12, 43500, Note_on_c, 11, 63, 127
12, 43548, Note_on_c, 11, 63, 0
12, 43560, Note_on_c, 11, 65, 127
12, 43656, Note_on_c, 11, 65, 0
12, 43680, Note_on_c, 11, 62, 127
12, 43728, Note_on_c, 11, 62, 0
12, 43740, Note_on_c, 11, 62, 127
12, 43812, Note_on_c, 11, 62, 0
12, 43830, Note_on_c, 11, 63, 127
12, 43854, Note_on_c, 11, 63, 0
12, 43860, Note_on_c, 11, 65, 127
12, 43908, Note_on_c, 11, 65, 0
12, 43920, Note_on_c, 11, 67, 127
12, 44016, Note_on_c, 11, 67, 0
12, 45000, Note_on_c, 11, 62, 125
12, 45000, Note_on_c, 11, 59, 113
12, 45096, Note_on_c, 11, 59, 0
12, 45096, Note_on_c, 11, 62, 0
12, 52740, Note_on_c, 11, 60, 107
12, 52764, Note_on_c, 11, 60, 0
12, 52770, Note_on_c, 11, 72, 111
12, 52794, Note_on_c, 11, 72, 0
12, 52800, Note_on_c, 11, 72, 127
12, 52896, Note_on_c, 11, 72, 0
12, 54180, Note_on_c, 11, 60, 110
12, 54204, Note_on_c, 11, 60, 0
12, 54210, Note_on_c, 11, 72, 103
12, 54234, Note_on_c, 11, 72, 0
12, 54240, Note_on_c, 11, 72, 101
12, 54336, Note_on_c, 11, 72, 0
12, 55080, Note_on_c, 11, 55, 99
12, 55080, Note_on_c, 11, 64, 100
12, 55080, Note_on_c, 11, 72, 117
12, 55176, Note_on_c, 11, 72, 0
12, 55176, Note_on_c, 11, 64, 0
12, 55176, Note_on_c, 11, 55, 0
12, 55470, Note_on_c, 11, 60, 127
12, 55494, Note_on_c, 11, 60, 0
12, 55500, Note_on_c, 11, 62, 125
12, 55524, Note_on_c, 11, 62, 0
12, 55530, Note_on_c, 11, 64, 127
12, 55554, Note_on_c, 11, 64, 0
12, 55560, Note_on_c, 11, 65, 125
12, 55584, Note_on_c, 11, 65, 0
12, 55590, Note_on_c, 11, 67, 127
12, 55614, Note_on_c, 11, 67, 0
12, 55620, Note_on_c, 11, 69, 127
12, 55644, Note_on_c, 11, 69, 0
12, 55650, Note_on_c, 11, 68, 97
12, 55674, Note_on_c, 11, 68, 0
12, 55680, Note_on_c, 11, 69, 127
12, 55704, Note_on_c, 11, 69, 0
12, 55710, Note_on_c, 11, 71, 127
12, 55734, Note_on_c, 11, 71, 0
12, 55740, Note_on_c, 11, 72, 127
12, 55764, Note_on_c, 11, 72, 0
12, 55770, Note_on_c, 11, 69, 127
12, 55794, Note_on_c, 11, 69, 0
12, 55800, Note_on_c, 11, 67, 127
12, 55896, Note_on_c, 11, 67, 0
12, 56220, Note_on_c, 11, 55, 127
12, 56244, Note_on_c, 11, 55, 0
12, 56250, Note_on_c, 11, 57, 127
12, 56274, Note_on_c, 11, 57, 0
12, 56280, Note_on_c, 11, 59, 123
12, 56304, Note_on_c, 11, 59, 0
12, 56310, Note_on_c, 11, 60, 127
12, 56334, Note_on_c, 11, 60, 0
12, 56340, Note_on_c, 11, 62, 112
12, 56364, Note_on_c, 11, 62, 0
12, 56370, Note_on_c, 11, 61, 81
12, 56394, Note_on_c, 11, 61, 0
12, 56400, Note_on_c, 11, 62, 127
12, 56424, Note_on_c, 11, 62, 0
12, 56430, Note_on_c, 11, 64, 120
12, 56454, Note_on_c, 11, 64, 0
12, 56460, Note_on_c, 11, 65, 127
12, 56484, Note_on_c, 11, 65, 0
12, 56490, Note_on_c, 11, 62, 114
12, 56514, Note_on_c, 11, 62, 0
12, 56520, Note_on_c, 11, 72, 125
12, 56520, Note_on_c, 11, 64, 127
12, 56616, Note_on_c, 11, 64, 0
12, 56616, Note_on_c, 11, 72, 0
12, 56880, Note_on_c, 11, 84, 109
12, 56880, Note_on_c, 11, 72, 114
12, 56976, Note_on_c, 11, 72, 0
12, 56976, Note_on_c, 11, 84, 0
12, 59700, Note_on_c, 11, 61, 64
12, 59700, Note_on_c, 11, 63, 69
12, 59748, Note_on_c, 11, 63, 0
12, 59748, Note_on_c, 11, 61, 0
12, 59760, Note_on_c, 11, 63, 57
12, 59760, Note_on_c, 11, 60, 73
12, 59808, Note_on_c, 11, 60, 0
12, 59808, Note_on_c, 11, 63, 0
12, 59820, Note_on_c, 11, 63, 65
12, 59820, Note_on_c, 11, 60, 72
12, 59868, Note_on_c, 11, 60, 0
12, 59868, Note_on_c, 11, 63, 0
12, 59940, Note_on_c, 11, 63, 69
12, 59940, Note_on_c, 11, 60, 76
12, 59988, Note_on_c, 11, 60, 0
12, 59988, Note_on_c, 11, 63, 0
12, 60000, Note_on_c, 11, 63, 67
12, 60000, Note_on_c, 11, 60, 75
12, 60048, Note_on_c, 11, 60, 0
12, 60048, Note_on_c, 11, 63, 0
12, 60120, Note_on_c, 11, 60, 73
12, 60120, Note_on_c, 11, 63, 57
12, 60168, Note_on_c, 11, 63, 0
12, 60168, Note_on_c, 11, 60, 0
12, 60180, Note_on_c, 11, 60, 72
12, 60180, Note_on_c, 11, 63, 65
12, 60228, Note_on_c, 11, 63, 0
12, 60228, Note_on_c, 11, 60, 0
12, 60300, Note_on_c, 11, 60, 76
12, 60300, Note_on_c, 11, 63, 69
12, 60348, Note_on_c, 11, 63, 0
12, 60348, Note_on_c, 11, 60, 0
12, 60360, Note_on_c, 11, 60, 75
12, 60360, Note_on_c, 11, 63, 67
12, 60408, Note_on_c, 11, 63, 0
12, 60408, Note_on_c, 11, 60, 0
12, 60480, Note_on_c, 11, 65, 70
12, 60480, Note_on_c, 11, 61, 53
12, 60528, Note_on_c, 11, 61, 0
12, 60528, Note_on_c, 11, 65, 0
12, 60540, Note_on_c, 11, 65, 76
12, 60540, Note_on_c, 11, 61, 51
12, 60588, Note_on_c, 11, 61, 0
12, 60588, Note_on_c, 11, 65, 0
12, 60660, Note_on_c, 11, 65, 76
12, 60660, Note_on_c, 11, 61, 57
12, 60708, Note_on_c, 11, 61, 0
12, 60708, Note_on_c, 11, 65, 0
12, 60720, Note_on_c, 11, 61, 60
12, 60720, Note_on_c, 11, 65, 76
12, 60768, Note_on_c, 11, 65, 0
12, 60768, Note_on_c, 11, 61, 0
12, 60840, Note_on_c, 11, 65, 74
12, 60840, Note_on_c, 11, 61, 55
12, 60888, Note_on_c, 11, 61, 0
12, 60888, Note_on_c, 11, 65, 0
12, 60900, Note_on_c, 11, 65, 70
12, 60900, Note_on_c, 11, 61, 55
12, 60948, Note_on_c, 11, 61, 0
12, 60948, Note_on_c, 11, 65, 0
12, 61020, Note_on_c, 11, 65, 74
12, 61020, Note_on_c, 11, 61, 55
12, 61068, Note_on_c, 11, 61, 0
12, 61068, Note_on_c, 11, 65, 0
12, 61080, Note_on_c, 11, 65, 76
12, 61080, Note_on_c, 11, 61, 57
12, 61128, Note_on_c, 11, 61, 0
12, 61128, Note_on_c, 11, 65, 0
12, 61200, Note_on_c, 11, 60, 76
12, 61248, Note_on_c, 11, 60, 0
12, 61260, Note_on_c, 11, 60, 76
12, 61308, Note_on_c, 11, 60, 0
12, 61380, Note_on_c, 11, 60, 62
12, 61428, Note_on_c, 11, 60, 0
12, 61440, Note_on_c, 11, 60, 76
12, 61488, Note_on_c, 11, 60, 0
12, 61560, Note_on_c, 11, 58, 69
12, 61608, Note_on_c, 11, 58, 0
12, 61620, Note_on_c, 11, 58, 73
12, 61668, Note_on_c, 11, 58, 0
12, 61740, Note_on_c, 11, 58, 65
12, 61788, Note_on_c, 11, 58, 0
12, 61800, Note_on_c, 11, 58, 74
12, 61848, Note_on_c, 11, 58, 0
12, 62460, Note_on_c, 11, 56, 59
12, 62484, Note_on_c, 11, 56, 0
12, 62490, Note_on_c, 11, 68, 71
12, 62514, Note_on_c, 11, 68, 0
12, 62520, Note_on_c, 11, 68, 68
12, 62616, Note_on_c, 11, 68, 0
12, 63900, Note_on_c, 11, 56, 63
12, 63924, Note_on_c, 11, 56, 0
12, 63930, Note_on_c, 11, 68, 61
12, 63954, Note_on_c, 11, 68, 0
12, 63960, Note_on_c, 11, 68, 68
12, 64056, Note_on_c, 11, 68, 0
12, 64800, Note_on_c, 11, 68, 118
12, 64800, Note_on_c, 11, 56, 107
12, 64872, Note_on_c, 11, 56, 0
12, 64872, Note_on_c, 11, 68, 0
12, 64890, Note_on_c, 11, 68, 126
12, 64890, Note_on_c, 11, 56, 107
12, 64914, Note_on_c, 11, 56, 0
12, 64914, Note_on_c, 11, 68, 0
12, 64920, Note_on_c, 11, 68, 126
12, 64920, Note_on_c, 11, 56, 97
12, 64968, Note_on_c, 11, 56, 0
12, 64968, Note_on_c, 11, 68, 0
12, 64980, Note_on_c, 11, 68, 121
12, 64980, Note_on_c, 11, 56, 101
12, 65028, Note_on_c, 11, 56, 0
12, 65028, Note_on_c, 11, 68, 0
12, 65040, Note_on_c, 11, 68, 121
12, 65040, Note_on_c, 11, 56, 97
12, 65088, Note_on_c, 11, 56, 0
12, 65088, Note_on_c, 11, 68, 0
12, 65100, Note_on_c, 11, 68, 111
12, 65100, Note_on_c, 11, 56, 101
12, 65148, Note_on_c, 11, 56, 0
12, 65148, Note_on_c, 11, 68, 0
12, 65160, Note_on_c, 11, 68, 126
12, 65160, Note_on_c, 11, 56, 118
12, 65448, Note_on_c, 11, 56, 0
12, 65448, Note_on_c, 11, 68, 0
12, 65520, Note_on_c, 11, 63, 127
12, 65616, Note_on_c, 11, 63, 0
12, 65880, Note_on_c, 11, 73, 115
12, 66024, Note_on_c, 11, 73, 0
12, 66060, Note_on_c, 11, 70, 115
12, 66084, Note_on_c, 11, 70, 0
12, 66090, Note_on_c, 11, 69, 127
12, 66114, Note_on_c, 11, 69, 0
12, 66120, Note_on_c, 11, 70, 115
12, 66144, Note_on_c, 11, 70, 0
12, 66150, Note_on_c, 11, 72, 110
12, 66174, Note_on_c, 11, 72, 0
12, 66180, Note_on_c, 11, 73, 115
12, 66204, Note_on_c, 11, 73, 0
12, 66210, Note_on_c, 11, 70, 121
12, 66234, Note_on_c, 11, 70, 0
12, 66240, Note_on_c, 11, 68, 99
12, 66240, Note_on_c, 11, 56, 105
12, 66312, Note_on_c, 11, 56, 0
12, 66312, Note_on_c, 11, 68, 0
12, 66330, Note_on_c, 11, 68, 113
12, 66330, Note_on_c, 11, 56, 101
12, 66354, Note_on_c, 11, 56, 0
12, 66354, Note_on_c, 11, 68, 0
12, 66360, Note_on_c, 11, 68, 127
12, 66360, Note_on_c, 11, 56, 111
12, 66408, Note_on_c, 11, 56, 0
12, 66408, Note_on_c, 11, 68, 0
12, 66420, Note_on_c, 11, 68, 115
12, 66420, Note_on_c, 11, 56, 103
12, 66468, Note_on_c, 11, 56, 0
12, 66468, Note_on_c, 11, 68, 0
12, 66480, Note_on_c, 11, 68, 100
12, 66480, Note_on_c, 11, 56, 97
12, 66528, Note_on_c, 11, 56, 0
12, 66528, Note_on_c, 11, 68, 0
12, 66540, Note_on_c, 11, 68, 94
12, 66540, Note_on_c, 11, 56, 96
12, 66588, Note_on_c, 11, 56, 0
12, 66588, Note_on_c, 11, 68, 0
12, 66600, Note_on_c, 11, 68, 115
12, 66600, Note_on_c, 11, 56, 97
12, 66672, Note_on_c, 11, 56, 0
12, 66672, Note_on_c, 11, 68, 0
12, 66690, Note_on_c, 11, 68, 115
12, 66690, Note_on_c, 11, 56, 100
12, 66714, Note_on_c, 11, 56, 0
12, 66714, Note_on_c, 11, 68, 0
12, 66720, Note_on_c, 11, 68, 115
12, 66720, Note_on_c, 11, 56, 95
12, 66768, Note_on_c, 11, 56, 0
12, 66768, Note_on_c, 11, 68, 0
12, 66780, Note_on_c, 11, 68, 113
12, 66780, Note_on_c, 11, 56, 96
12, 66828, Note_on_c, 11, 56, 0
12, 66828, Note_on_c, 11, 68, 0
12, 66840, Note_on_c, 11, 68, 105
12, 66840, Note_on_c, 11, 56, 96
12, 66888, Note_on_c, 11, 56, 0
12, 66888, Note_on_c, 11, 68, 0
12, 66900, Note_on_c, 11, 68, 90
12, 66900, Note_on_c, 11, 56, 95
12, 66948, Note_on_c, 11, 56, 0
12, 66948, Note_on_c, 11, 68, 0
12, 69780, Note_on_c, 11, 65, 127
12, 69828, Note_on_c, 11, 65, 0
12, 69840, Note_on_c, 11, 64, 121
12, 69888, Note_on_c, 11, 64, 0
12, 69900, Note_on_c, 11, 64, 121
12, 69948, Note_on_c, 11, 64, 0
12, 70020, Note_on_c, 11, 64, 127
12, 70068, Note_on_c, 11, 64, 0
12, 70080, Note_on_c, 11, 64, 127
12, 70128, Note_on_c, 11, 64, 0
12, 70200, Note_on_c, 11, 64, 127
12, 70248, Note_on_c, 11, 64, 0
12, 70260, Note_on_c, 11, 64, 127
12, 70308, Note_on_c, 11, 64, 0
12, 70380, Note_on_c, 11, 64, 127
12, 70428, Note_on_c, 11, 64, 0
12, 70440, Note_on_c, 11, 64, 127
12, 70488, Note_on_c, 11, 64, 0
12, 70560, Note_on_c, 11, 64, 127
12, 70608, Note_on_c, 11, 64, 0
12, 70620, Note_on_c, 11, 64, 127
12, 70668, Note_on_c, 11, 64, 0
12, 70740, Note_on_c, 11, 64, 127
12, 70788, Note_on_c, 11, 64, 0
12, 70800, Note_on_c, 11, 64, 127
12, 70848, Note_on_c, 11, 64, 0
12, 70920, Note_on_c, 11, 64, 127
12, 70968, Note_on_c, 11, 64, 0
12, 70980, Note_on_c, 11, 64, 127
12, 71028, Note_on_c, 11, 64, 0
12, 71100, Note_on_c, 11, 64, 127
12, 71148, Note_on_c, 11, 64, 0
12, 71160, Note_on_c, 11, 64, 127
12, 71208, Note_on_c, 11, 64, 0
12, 71280, Note_on_c, 11, 64, 127
12, 71328, Note_on_c, 11, 64, 0
12, 71340, Note_on_c, 11, 64, 127
12, 71388, Note_on_c, 11, 64, 0
12, 71460, Note_on_c, 11, 64, 127
12, 71508, Note_on_c, 11, 64, 0
12, 71520, Note_on_c, 11, 64, 127
12, 71568, Note_on_c, 11, 64, 0
12, 71640, Note_on_c, 11, 66, 109
12, 71640, Note_on_c, 11, 59, 120
12, 71688, Note_on_c, 11, 59, 0
12, 71688, Note_on_c, 11, 66, 0
12, 71700, Note_on_c, 11, 66, 121
12, 71700, Note_on_c, 11, 59, 116
12, 71748, Note_on_c, 11, 59, 0
12, 71748, Note_on_c, 11, 66, 0
12, 71820, Note_on_c, 11, 66, 100
12, 71820, Note_on_c, 11, 59, 114
12, 71868, Note_on_c, 11, 59, 0
12, 71868, Note_on_c, 11, 66, 0
12, 71880, Note_on_c, 11, 66, 121
12, 71880, Note_on_c, 11, 59, 116
12, 71928, Note_on_c, 11, 59, 0
12, 71928, Note_on_c, 11, 66, 0
12, 72540, Note_on_c, 11, 64, 121
12, 72564, Note_on_c, 11, 64, 0
12, 72570, Note_on_c, 11, 76, 111
12, 72594, Note_on_c, 11, 76, 0
12, 72600, Note_on_c, 11, 76, 99
12, 72696, Note_on_c, 11, 76, 0
12, 73980, Note_on_c, 11, 64, 114
12, 74004, Note_on_c, 11, 64, 0
12, 74010, Note_on_c, 11, 76, 98
12, 74034, Note_on_c, 11, 76, 0
12, 74040, Note_on_c, 11, 76, 116
12, 74136, Note_on_c, 11, 76, 0
12, 74880, Note_on_c, 11, 64, 127
12, 74880, Note_on_c, 11, 56, 103
12, 74976, Note_on_c, 11, 56, 0
12, 74976, Note_on_c, 11, 64, 0
12, 75240, Note_on_c, 11, 76, 107
12, 75240, Note_on_c, 11, 64, 111
12, 75384, Note_on_c, 11, 64, 0
12, 75384, Note_on_c, 11, 76, 0
12, 75420, Note_on_c, 11, 76, 125
12, 75420, Note_on_c, 11, 64, 111
12, 75564, Note_on_c, 11, 64, 0
12, 75564, Note_on_c, 11, 76, 0
12, 75600, Note_on_c, 11, 71, 125
12, 75696, Note_on_c, 11, 71, 0
12, 75960, Note_on_c, 11, 69, 127
12, 76104, Note_on_c, 11, 69, 0
12, 76140, Note_on_c, 11, 66, 111
12, 76164, Note_on_c, 11, 66, 0
12, 76170, Note_on_c, 11, 65, 111
12, 76194, Note_on_c, 11, 65, 0
12, 76200, Note_on_c, 11, 66, 113
12, 76224, Note_on_c, 11, 66, 0
12, 76230, Note_on_c, 11, 68, 113
12, 76254, Note_on_c, 11, 68, 0
12, 76260, Note_on_c, 11, 69, 127
12, 76284, Note_on_c, 11, 69, 0
12, 76290, Note_on_c, 11, 66, 115
12, 76314, Note_on_c, 11, 66, 0
12, 76320, Note_on_c, 11, 64, 125
12, 76416, Note_on_c, 11, 64, 0
12, 77040, Note_on_c, 11, 60, 104
12, 77112, Note_on_c, 11, 60, 0
12, 77130, Note_on_c, 11, 60, 103
12, 77154, Note_on_c, 11, 60, 0
12, 77160, Note_on_c, 11, 60, 107
12, 77208, Note_on_c, 11, 60, 0
12, 77220, Note_on_c, 11, 60, 107
12, 77268, Note_on_c, 11, 60, 0
12, 77280, Note_on_c, 11, 60, 108
12, 77328, Note_on_c, 11, 60, 0
12, 77340, Note_on_c, 11, 60, 113
12, 77388, Note_on_c, 11, 60, 0
12, 77400, Note_on_c, 11, 60, 112
12, 77472, Note_on_c, 11, 60, 0
12, 77490, Note_on_c, 11, 60, 109
12, 77514, Note_on_c, 11, 60, 0
12, 77520, Note_on_c, 11, 60, 121
12, 77568, Note_on_c, 11, 60, 0
12, 77580, Note_on_c, 11, 60, 105
12, 77628, Note_on_c, 11, 60, 0
12, 77640, Note_on_c, 11, 60, 105
12, 77688, Note_on_c, 11, 60, 0
12, 77700, Note_on_c, 11, 60, 110
12, 77748, Note_on_c, 11, 60, 0
12, 77940, Note_on_c, 11, 58, 115
12, 78012, Note_on_c, 11, 58, 0
12, 78030, Note_on_c, 11, 58, 113
12, 78054, Note_on_c, 11, 58, 0
12, 78060, Note_on_c, 11, 58, 113
12, 78108, Note_on_c, 11, 58, 0
12, 78300, Note_on_c, 11, 56, 107
12, 78372, Note_on_c, 11, 56, 0
12, 78390, Note_on_c, 11, 56, 113
12, 78414, Note_on_c, 11, 56, 0
12, 78420, Note_on_c, 11, 56, 121
12, 78468, Note_on_c, 11, 56, 0
12, 78660, Note_on_c, 11, 56, 111
12, 78732, Note_on_c, 11, 56, 0
12, 78750, Note_on_c, 11, 56, 118
12, 78774, Note_on_c, 11, 56, 0
12, 78780, Note_on_c, 11, 56, 118
12, 78828, Note_on_c, 11, 56, 0
12, 79020, Note_on_c, 11, 56, 111
12, 79092, Note_on_c, 11, 56, 0
12, 79110, Note_on_c, 11, 56, 118
12, 79134, Note_on_c, 11, 56, 0
12, 79140, Note_on_c, 11, 56, 118
12, 79188, Note_on_c, 11, 56, 0
12, 79200, Note_on_c, 11, 62, 105
12, 79272, Note_on_c, 11, 62, 0
12, 79290, Note_on_c, 11, 62, 107
12, 79314, Note_on_c, 11, 62, 0
12, 79320, Note_on_c, 11, 62, 107
12, 79368, Note_on_c, 11, 62, 0
12, 79380, Note_on_c, 11, 62, 105
12, 79428, Note_on_c, 11, 62, 0
12, 79440, Note_on_c, 11, 62, 101
12, 79488, Note_on_c, 11, 62, 0
12, 79500, Note_on_c, 11, 62, 107
12, 79548, Note_on_c, 11, 62, 0
12, 79560, Note_on_c, 11, 62, 111
12, 79632, Note_on_c, 11, 62, 0
12, 79650, Note_on_c, 11, 62, 111
12, 79674, Note_on_c, 11, 62, 0
12, 79680, Note_on_c, 11, 62, 115
12, 79728, Note_on_c, 11, 62, 0
12, 79740, Note_on_c, 11, 62, 107
12, 79788, Note_on_c, 11, 62, 0
12, 79800, Note_on_c, 11, 62, 109
12, 79848, Note_on_c, 11, 62, 0
12, 79860, Note_on_c, 11, 62, 127
12, 79908, Note_on_c, 11, 62, 0
12, 80640, Note_on_c, 11, 62, 105
12, 80712, Note_on_c, 11, 62, 0
12, 80730, Note_on_c, 11, 62, 107
12, 80754, Note_on_c, 11, 62, 0
12, 80760, Note_on_c, 11, 62, 107
12, 80808, Note_on_c, 11, 62, 0
12, 80820, Note_on_c, 11, 62, 105
12, 80868, Note_on_c, 11, 62, 0
12, 80880, Note_on_c, 11, 62, 101
12, 80928, Note_on_c, 11, 62, 0
12, 80940, Note_on_c, 11, 62, 107
12, 80988, Note_on_c, 11, 62, 0
12, 81000, Note_on_c, 11, 62, 111
12, 81072, Note_on_c, 11, 62, 0
12, 81090, Note_on_c, 11, 62, 111
12, 81114, Note_on_c, 11, 62, 0
12, 81120, Note_on_c, 11, 62, 115
12, 81168, Note_on_c, 11, 62, 0
12, 81180, Note_on_c, 11, 62, 107
12, 81228, Note_on_c, 11, 62, 0
12, 81240, Note_on_c, 11, 62, 109
12, 81288, Note_on_c, 11, 62, 0
12, 81300, Note_on_c, 11, 62, 127
12, 81348, Note_on_c, 11, 62, 0
12, 82260, Note_on_c, 11, 62, 105
12, 82332, Note_on_c, 11, 62, 0
12, 82350, Note_on_c, 11, 62, 107
12, 82374, Note_on_c, 11, 62, 0
12, 82380, Note_on_c, 11, 62, 107
12, 82428, Note_on_c, 11, 62, 0
12, 82620, Note_on_c, 11, 62, 105
12, 82692, Note_on_c, 11, 62, 0
12, 82710, Note_on_c, 11, 62, 107
12, 82734, Note_on_c, 11, 62, 0
12, 82740, Note_on_c, 11, 62, 107
12, 82788, Note_on_c, 11, 62, 0
12, 85620, Note_on_c, 11, 55, 125
12, 85668, Note_on_c, 11, 55, 0
12, 85680, Note_on_c, 11, 55, 114
12, 85728, Note_on_c, 11, 55, 0
12, 85740, Note_on_c, 11, 58, 118
12, 85788, Note_on_c, 11, 58, 0
12, 85980, Note_on_c, 11, 58, 115
12, 86028, Note_on_c, 11, 58, 0
12, 86040, Note_on_c, 11, 58, 101
12, 86088, Note_on_c, 11, 58, 0
12, 86100, Note_on_c, 11, 63, 121
12, 86148, Note_on_c, 11, 63, 0
12, 86340, Note_on_c, 11, 63, 103
12, 86388, Note_on_c, 11, 63, 0
12, 86400, Note_on_c, 11, 63, 107
12, 86424, Note_on_c, 11, 63, 0
12, 86430, Note_on_c, 11, 67, 127
12, 86454, Note_on_c, 11, 67, 0
12, 86460, Note_on_c, 11, 67, 101
12, 86508, Note_on_c, 11, 67, 0
12, 87060, Note_on_c, 11, 58, 99
12, 87108, Note_on_c, 11, 58, 0
12, 87120, Note_on_c, 11, 58, 109
12, 87168, Note_on_c, 11, 58, 0
12, 87180, Note_on_c, 11, 63, 127
12, 87228, Note_on_c, 11, 63, 0
12, 87420, Note_on_c, 11, 63, 109
12, 87468, Note_on_c, 11, 63, 0
12, 87480, Note_on_c, 11, 63, 105
12, 87528, Note_on_c, 11, 63, 0
12, 87540, Note_on_c, 11, 67, 127
12, 87588, Note_on_c, 11, 67, 0
12, 87780, Note_on_c, 11, 67, 114
12, 87828, Note_on_c, 11, 67, 0
12, 87840, Note_on_c, 11, 67, 112
12, 87888, Note_on_c, 11, 67, 0
12, 87900, Note_on_c, 11, 67, 123
12, 87948, Note_on_c, 11, 67, 0
12, 93540, Note_on_c, 11, 62, 127
12, 93564, Note_on_c, 11, 62, 0
12, 93570, Note_on_c, 11, 61, 126
12, 93594, Note_on_c, 11, 61, 0
12, 93600, Note_on_c, 11, 61, 111
12, 93648, Note_on_c, 11, 61, 0
12, 93660, Note_on_c, 11, 61, 126
12, 93708, Note_on_c, 11, 61, 0
12, 93720, Note_on_c, 11, 60, 113
12, 93744, Note_on_c, 11, 60, 0
12, 93750, Note_on_c, 11, 59, 102
12, 93774, Note_on_c, 11, 59, 0
12, 93780, Note_on_c, 11, 59, 118
12, 93828, Note_on_c, 11, 59, 0
12, 93840, Note_on_c, 11, 59, 127
12, 93888, Note_on_c, 11, 59, 0
12, 93900, Note_on_c, 11, 58, 121
12, 93924, Note_on_c, 11, 58, 0
12, 93930, Note_on_c, 11, 57, 123
12, 93954, Note_on_c, 11, 57, 0
12, 93960, Note_on_c, 11, 57, 127
12, 94008, Note_on_c, 11, 57, 0
12, 94020, Note_on_c, 11, 57, 125
12, 94068, Note_on_c, 11, 57, 0
12, 94080, Note_on_c, 11, 56, 113
12, 94104, Note_on_c, 11, 56, 0
12, 94110, Note_on_c, 11, 55, 125
12, 94134, Note_on_c, 11, 55, 0
12, 94140, Note_on_c, 11, 55, 127
12, 94188, Note_on_c, 11, 55, 0
12, 94200, Note_on_c, 11, 55, 127
12, 94248, Note_on_c, 11, 55, 0
12, 94260, Note_on_c, 11, 70, 109
12, 94260, Note_on_c, 11, 58, 96
12, 94284, Note_on_c, 11, 58, 0
12, 94284, Note_on_c, 11, 70, 0
12, 94290, Note_on_c, 11, 70, 127
12, 94290, Note_on_c, 11, 58, 118
12, 94314, Note_on_c, 11, 58, 0
12, 94314, Note_on_c, 11, 70, 0
12, 94320, Note_on_c, 11, 70, 126
12, 94320, Note_on_c, 11, 58, 109
12, 94464, Note_on_c, 11, 58, 0
12, 94464, Note_on_c, 11, 70, 0
12, 94500, Note_on_c, 11, 70, 126
12, 94500, Note_on_c, 11, 58, 115
12, 94644, Note_on_c, 11, 58, 0
12, 94644, Note_on_c, 11, 70, 0
12, 94680, Note_on_c, 11, 70, 113
12, 94680, Note_on_c, 11, 58, 99
12, 94704, Note_on_c, 11, 58, 0
12, 94704, Note_on_c, 11, 70, 0
12, 94710, Note_on_c, 11, 70, 118
12, 94710, Note_on_c, 11, 58, 97
12, 94734, Note_on_c, 11, 58, 0
12, 94734, Note_on_c, 11, 70, 0
12, 94740, Note_on_c, 11, 70, 111
12, 94740, Note_on_c, 11, 58, 97
12, 94764, Note_on_c, 11, 58, 0
12, 94764, Note_on_c, 11, 70, 0
12, 94770, Note_on_c, 11, 70, 107
12, 94770, Note_on_c, 11, 58, 97
12, 94794, Note_on_c, 11, 58, 0
12, 94794, Note_on_c, 11, 70, 0
12, 94800, Note_on_c, 11, 70, 107
12, 94800, Note_on_c, 11, 58, 101
12, 94824, Note_on_c, 11, 58, 0
12, 94824, Note_on_c, 11, 70, 0
12, 94830, Note_on_c, 11, 70, 111
12, 94830, Note_on_c, 11, 58, 103
12, 94854, Note_on_c, 11, 58, 0
12, 94854, Note_on_c, 11, 70, 0
12, 94860, Note_on_c, 11, 70, 121
12, 94860, Note_on_c, 11, 58, 113
12, 95004, Note_on_c, 11, 58, 0
12, 95004, Note_on_c, 11, 70, 0
12, 95040, Note_on_c, 11, 68, 127
12, 95040, Note_on_c, 11, 58, 107
12, 95184, Note_on_c, 11, 58, 0
12, 95184, Note_on_c, 11, 68, 0
12, 95220, Note_on_c, 11, 67, 127
12, 95220, Note_on_c, 11, 58, 107
12, 95364, Note_on_c, 11, 58, 0
12, 95364, Note_on_c, 11, 67, 0
12, 95400, Note_on_c, 11, 58, 100
12, 95400, Note_on_c, 11, 65, 127
12, 95544, Note_on_c, 11, 65, 0
12, 95544, Note_on_c, 11, 58, 0
12, 95580, Note_on_c, 11, 65, 127
12, 95580, Note_on_c, 11, 58, 96
12, 95604, Note_on_c, 11, 58, 0
12, 95604, Note_on_c, 11, 65, 0
12, 95610, Note_on_c, 11, 65, 127
12, 95610, Note_on_c, 11, 58, 95
12, 95634, Note_on_c, 11, 58, 0
12, 95634, Note_on_c, 11, 65, 0
12, 95640, Note_on_c, 11, 65, 127
12, 95640, Note_on_c, 11, 58, 100
12, 95664, Note_on_c, 11, 58, 0
12, 95664, Note_on_c, 11, 65, 0
12, 95670, Note_on_c, 11, 65, 127
12, 95670, Note_on_c, 11, 58, 103
12, 95694, Note_on_c, 11, 58, 0
12, 95694, Note_on_c, 11, 65, 0
12, 95700, Note_on_c, 11, 67, 125
12, 95700, Note_on_c, 11, 58, 91
12, 95724, Note_on_c, 11, 58, 0
12, 95724, Note_on_c, 11, 67, 0
12, 95730, Note_on_c, 11, 67, 127
12, 95730, Note_on_c, 11, 58, 103
12, 95754, Note_on_c, 11, 58, 0
12, 95754, Note_on_c, 11, 67, 0
12, 95760, Note_on_c, 11, 67, 127
12, 95760, Note_on_c, 11, 58, 96
12, 95904, Note_on_c, 11, 58, 0
12, 95904, Note_on_c, 11, 67, 0
12, 95940, Note_on_c, 11, 67, 127
12, 95940, Note_on_c, 11, 58, 91
12, 96084, Note_on_c, 11, 58, 0
12, 96084, Note_on_c, 11, 67, 0
12, 96120, Note_on_c, 11, 67, 117
12, 96120, Note_on_c, 11, 58, 101
12, 96144, Note_on_c, 11, 58, 0
12, 96144, Note_on_c, 11, 67, 0
12, 96150, Note_on_c, 11, 67, 123
12, 96150, Note_on_c, 11, 58, 85
12, 96174, Note_on_c, 11, 58, 0
12, 96174, Note_on_c, 11, 67, 0
12, 96180, Note_on_c, 11, 67, 127
12, 96180, Note_on_c, 11, 58, 88
12, 96204, Note_on_c, 11, 58, 0
12, 96204, Note_on_c, 11, 67, 0
12, 96210, Note_on_c, 11, 67, 123
12, 96210, Note_on_c, 11, 58, 85
12, 96234, Note_on_c, 11, 58, 0
12, 96234, Note_on_c, 11, 67, 0
12, 96240, Note_on_c, 11, 58, 86
12, 96240, Note_on_c, 11, 67, 120
12, 96264, Note_on_c, 11, 67, 0
12, 96264, Note_on_c, 11, 58, 0
12, 96270, Note_on_c, 11, 67, 112
12, 96270, Note_on_c, 11, 58, 95
12, 96294, Note_on_c, 11, 58, 0
12, 96294, Note_on_c, 11, 67, 0
12, 96300, Note_on_c, 11, 67, 127
12, 96300, Note_on_c, 11, 58, 95
12, 96444, Note_on_c, 11, 58, 0
12, 96444, Note_on_c, 11, 67, 0
12, 96480, Note_on_c, 11, 68, 127
12, 96480, Note_on_c, 11, 58, 100
12, 96624, Note_on_c, 11, 58, 0
12, 96624, Note_on_c, 11, 68, 0
12, 96660, Note_on_c, 11, 67, 127
12, 96660, Note_on_c, 11, 58, 103
12, 96804, Note_on_c, 11, 58, 0
12, 96804, Note_on_c, 11, 67, 0
12, 96840, Note_on_c, 11, 58, 94
12, 96840, Note_on_c, 11, 65, 127
12, 96984, Note_on_c, 11, 65, 0
12, 96984, Note_on_c, 11, 58, 0
12, 97020, Note_on_c, 11, 65, 127
12, 97020, Note_on_c, 11, 58, 94
12, 97044, Note_on_c, 11, 58, 0
12, 97044, Note_on_c, 11, 65, 0
12, 97050, Note_on_c, 11, 65, 127
12, 97050, Note_on_c, 11, 58, 107
12, 97074, Note_on_c, 11, 58, 0
12, 97074, Note_on_c, 11, 65, 0
12, 97080, Note_on_c, 11, 65, 125
12, 97104, Note_on_c, 11, 65, 0
12, 97110, Note_on_c, 11, 65, 120
12, 97134, Note_on_c, 11, 65, 0
12, 97140, Note_on_c, 11, 64, 127
12, 97164, Note_on_c, 11, 64, 0
12, 97170, Note_on_c, 11, 64, 116
12, 97194, Note_on_c, 11, 64, 0
12, 97200, Note_on_c, 11, 63, 103
12, 97224, Note_on_c, 11, 63, 0
12, 97230, Note_on_c, 11, 63, 100
12, 97254, Note_on_c, 11, 63, 0
12, 97260, Note_on_c, 11, 63, 94
12, 97284, Note_on_c, 11, 63, 0
12, 97290, Note_on_c, 11, 63, 111
12, 97314, Note_on_c, 11, 63, 0
12, 97320, Note_on_c, 11, 62, 123
12, 97344, Note_on_c, 11, 62, 0
12, 97350, Note_on_c, 11, 62, 117
12, 97374, Note_on_c, 11, 62, 0
12, 97380, Note_on_c, 11, 61, 107
12, 97404, Note_on_c, 11, 61, 0
12, 97410, Note_on_c, 11, 61, 115
12, 97434, Note_on_c, 11, 61, 0
12, 97440, Note_on_c, 11, 61, 109
12, 97464, Note_on_c, 11, 61, 0
12, 97470, Note_on_c, 11, 61, 107
12, 97494, Note_on_c, 11, 61, 0
12, 97500, Note_on_c, 11, 60, 114
12, 97524, Note_on_c, 11, 60, 0
12, 97530, Note_on_c, 11, 60, 117
12, 97554, Note_on_c, 11, 60, 0
12, 97560, Note_on_c, 11, 59, 127
12, 97584, Note_on_c, 11, 59, 0
12, 97590, Note_on_c, 11, 59, 118
12, 97614, Note_on_c, 11, 59, 0
12, 97620, Note_on_c, 11, 59, 118
12, 97644, Note_on_c, 11, 59, 0
12, 97650, Note_on_c, 11, 59, 123
12, 97674, Note_on_c, 11, 59, 0
12, 97680, Note_on_c, 11, 58, 101
12, 97704, Note_on_c, 11, 58, 0
12, 97710, Note_on_c, 11, 58, 107
12, 97734, Note_on_c, 11, 58, 0
12, 97740, Note_on_c, 11, 57, 118
12, 97764, Note_on_c, 11, 57, 0
12, 97770, Note_on_c, 11, 57, 125
12, 97794, Note_on_c, 11, 57, 0
12, 97800, Note_on_c, 11, 57, 127
12, 97824, Note_on_c, 11, 57, 0
12, 97830, Note_on_c, 11, 57, 127
12, 97854, Note_on_c, 11, 57, 0
12, 97860, Note_on_c, 11, 56, 111
12, 97884, Note_on_c, 11, 56, 0
12, 97890, Note_on_c, 11, 56, 97
12, 97914, Note_on_c, 11, 56, 0
12, 97920, Note_on_c, 11, 56, 127
12, 97944, Note_on_c, 11, 56, 0
12, 97950, Note_on_c, 11, 58, 113
12, 97974, Note_on_c, 11, 58, 0
12, 97980, Note_on_c, 11, 56, 113
12, 98004, Note_on_c, 11, 56, 0
12, 98010, Note_on_c, 11, 58, 113
12, 98034, Note_on_c, 11, 58, 0
12, 98040, Note_on_c, 11, 56, 111
12, 98064, Note_on_c, 11, 56, 0
12, 98070, Note_on_c, 11, 58, 115
12, 98094, Note_on_c, 11, 58, 0
12, 98100, Note_on_c, 11, 56, 111
12, 98124, Note_on_c, 11, 56, 0
12, 98130, Note_on_c, 11, 58, 113
12, 98154, Note_on_c, 11, 58, 0
12, 98160, Note_on_c, 11, 56, 118
12, 98184, Note_on_c, 11, 56, 0
12, 98190, Note_on_c, 11, 55, 117
12, 98214, Note_on_c, 11, 55, 0
12, 98220, Note_on_c, 11, 56, 118
12, 98244, Note_on_c, 11, 56, 0
12, 98250, Note_on_c, 11, 58, 121
12, 98274, Note_on_c, 11, 58, 0
12, 98280, Note_on_c, 11, 55, 117
12, 98304, Note_on_c, 11, 55, 0
12, 98310, Note_on_c, 11, 58, 113
12, 98334, Note_on_c, 11, 58, 0
12, 98340, Note_on_c, 11, 55, 123
12, 98364, Note_on_c, 11, 55, 0
12, 98370, Note_on_c, 11, 58, 107
12, 98394, Note_on_c, 11, 58, 0
12, 98400, Note_on_c, 11, 55, 110
12, 98424, Note_on_c, 11, 55, 0
12, 98430, Note_on_c, 11, 58, 101
12, 98454, Note_on_c, 11, 58, 0
12, 98460, Note_on_c, 11, 55, 125
12, 98484, Note_on_c, 11, 55, 0
12, 98490, Note_on_c, 11, 58, 109
12, 98514, Note_on_c, 11, 58, 0
12, 98520, Note_on_c, 11, 55, 120
12, 98544, Note_on_c, 11, 55, 0
12, 98550, Note_on_c, 11, 58, 123
12, 98574, Note_on_c, 11, 58, 0
12, 98580, Note_on_c, 11, 56, 111
12, 98604, Note_on_c, 11, 56, 0
12, 98610, Note_on_c, 11, 58, 118
12, 98634, Note_on_c, 11, 58, 0
12, 98640, Note_on_c, 11, 56, 111
12, 98664, Note_on_c, 11, 56, 0
12, 98670, Note_on_c, 11, 58, 109
12, 98694, Note_on_c, 11, 58, 0
12, 98700, Note_on_c, 11, 56, 107
12, 98724, Note_on_c, 11, 56, 0
12, 98730, Note_on_c, 11, 58, 111
12, 98754, Note_on_c, 11, 58, 0
12, 98760, Note_on_c, 11, 56, 105
12, 98784, Note_on_c, 11, 56, 0
12, 98790, Note_on_c, 11, 58, 121
12, 98814, Note_on_c, 11, 58, 0
12, 98820, Note_on_c, 11, 56, 109
12, 98844, Note_on_c, 11, 56, 0
12, 98850, Note_on_c, 11, 58, 109
12, 98874, Note_on_c, 11, 58, 0
12, 98880, Note_on_c, 11, 56, 113
12, 98904, Note_on_c, 11, 56, 0
12, 98910, Note_on_c, 11, 55, 121
12, 98934, Note_on_c, 11, 55, 0
12, 98940, Note_on_c, 11, 56, 113
12, 98964, Note_on_c, 11, 56, 0
12, 98970, Note_on_c, 11, 58, 121
12, 98994, Note_on_c, 11, 58, 0
12, 99000, Note_on_c, 11, 55, 116
12, 99024, Note_on_c, 11, 55, 0
12, 99030, Note_on_c, 11, 58, 103
12, 99054, Note_on_c, 11, 58, 0
12, 99060, Note_on_c, 11, 55, 114
12, 99084, Note_on_c, 11, 55, 0
12, 99090, Note_on_c, 11, 58, 100
12, 99114, Note_on_c, 11, 58, 0
12, 99120, Note_on_c, 11, 55, 110
12, 99144, Note_on_c, 11, 55, 0
12, 99150, Note_on_c, 11, 58, 100
12, 99174, Note_on_c, 11, 58, 0
12, 99180, Note_on_c, 11, 55, 118
12, 99204, Note_on_c, 11, 55, 0
12, 99210, Note_on_c, 11, 58, 118
12, 99234, Note_on_c, 11, 58, 0
12, 99240, Note_on_c, 11, 63, 113
12, 99264, Note_on_c, 11, 63, 0
12, 99270, Note_on_c, 11, 58, 103
12, 99294, Note_on_c, 11, 58, 0
12, 99300, Note_on_c, 11, 55, 121
12, 99324, Note_on_c, 11, 55, 0
12, 99330, Note_on_c, 11, 58, 115
12, 99354, Note_on_c, 11, 58, 0
12, 99360, Note_on_c, 11, 56, 109
12, 99384, Note_on_c, 11, 56, 0
12, 99390, Note_on_c, 11, 58, 105
12, 99414, Note_on_c, 11, 58, 0
12, 99420, Note_on_c, 11, 56, 105
12, 99444, Note_on_c, 11, 56, 0
12, 99450, Note_on_c, 11, 58, 109
12, 99474, Note_on_c, 11, 58, 0
12, 99480, Note_on_c, 11, 56, 99
12, 99504, Note_on_c, 11, 56, 0
12, 99510, Note_on_c, 11, 58, 105
12, 99534, Note_on_c, 11, 58, 0
12, 99540, Note_on_c, 11, 56, 113
12, 99564, Note_on_c, 11, 56, 0
12, 99570, Note_on_c, 11, 58, 103
12, 99594, Note_on_c, 11, 58, 0
12, 99600, Note_on_c, 11, 62, 127
12, 99624, Note_on_c, 11, 62, 0
12, 99630, Note_on_c, 11, 58, 111
12, 99654, Note_on_c, 11, 58, 0
12, 99660, Note_on_c, 11, 56, 113
12, 99684, Note_on_c, 11, 56, 0
12, 99690, Note_on_c, 11, 58, 115
12, 99714, Note_on_c, 11, 58, 0
12, 99720, Note_on_c, 11, 58, 118
12, 99744, Note_on_c, 11, 58, 0
12, 99750, Note_on_c, 11, 63, 121
12, 99774, Note_on_c, 11, 63, 0
12, 99780, Note_on_c, 11, 58, 113
12, 99804, Note_on_c, 11, 58, 0
12, 99810, Note_on_c, 11, 63, 126
12, 99834, Note_on_c, 11, 63, 0
12, 99840, Note_on_c, 11, 58, 107
12, 99864, Note_on_c, 11, 58, 0
12, 99870, Note_on_c, 11, 63, 109
12, 99894, Note_on_c, 11, 63, 0
12, 99900, Note_on_c, 11, 58, 109
12, 99924, Note_on_c, 11, 58, 0
12, 99930, Note_on_c, 11, 63, 126
12, 99954, Note_on_c, 11, 63, 0
12, 99960, Note_on_c, 11, 67, 127
12, 99984, Note_on_c, 11, 67, 0
12, 99990, Note_on_c, 11, 63, 121
12, 100014, Note_on_c, 11, 63, 0
12, 100020, Note_on_c, 11, 58, 101
12, 100044, Note_on_c, 11, 58, 0
12, 100050, Note_on_c, 11, 63, 127
12, 100074, Note_on_c, 11, 63, 0
12, 100080, Note_on_c, 11, 60, 111
12, 100104, Note_on_c, 11, 60, 0
12, 100110, Note_on_c, 11, 63, 118
12, 100134, Note_on_c, 11, 63, 0
12, 100140, Note_on_c, 11, 60, 125
12, 100164, Note_on_c, 11, 60, 0
12, 100170, Note_on_c, 11, 63, 105
12, 100194, Note_on_c, 11, 63, 0
12, 100200, Note_on_c, 11, 60, 117
12, 100224, Note_on_c, 11, 60, 0
12, 100230, Note_on_c, 11, 63, 113
12, 100254, Note_on_c, 11, 63, 0
12, 100260, Note_on_c, 11, 60, 127
12, 100284, Note_on_c, 11, 60, 0
12, 100290, Note_on_c, 11, 63, 113
12, 100314, Note_on_c, 11, 63, 0
12, 100320, Note_on_c, 11, 60, 127
12, 100344, Note_on_c, 11, 60, 0
12, 100350, Note_on_c, 11, 63, 105
12, 100374, Note_on_c, 11, 63, 0
12, 100380, Note_on_c, 11, 60, 117
12, 100404, Note_on_c, 11, 60, 0
12, 100410, Note_on_c, 11, 63, 123
12, 100434, Note_on_c, 11, 63, 0
12, 100440, Note_on_c, 11, 62, 127
12, 100464, Note_on_c, 11, 62, 0
12, 100470, Note_on_c, 11, 58, 105
12, 100494, Note_on_c, 11, 58, 0
12, 100500, Note_on_c, 11, 63, 127
12, 100524, Note_on_c, 11, 63, 0
12, 100530, Note_on_c, 11, 60, 127
12, 100554, Note_on_c, 11, 60, 0
12, 100560, Note_on_c, 11, 65, 127
12, 100584, Note_on_c, 11, 65, 0
12, 100590, Note_on_c, 11, 62, 127
12, 100614, Note_on_c, 11, 62, 0
12, 100620, Note_on_c, 11, 67, 127
12, 100644, Note_on_c, 11, 67, 0
12, 100650, Note_on_c, 11, 63, 113
12, 100674, Note_on_c, 11, 63, 0
12, 100680, Note_on_c, 11, 68, 99
12, 100704, Note_on_c, 11, 68, 0
12, 100710, Note_on_c, 11, 65, 127
12, 100734, Note_on_c, 11, 65, 0
12, 100740, Note_on_c, 11, 70, 115
12, 100764, Note_on_c, 11, 70, 0
12, 100770, Note_on_c, 11, 67, 127
12, 100794, Note_on_c, 11, 67, 0
12, 100800, Note_on_c, 11, 72, 116
12, 100896, Note_on_c, 11, 72, 0
12, 100980, Note_on_c, 11, 58, 79
12, 100980, Note_on_c, 11, 74, 108
12, 100980, Note_on_c, 11, 65, 103
12, 101076, Note_on_c, 11, 65, 0
12, 101076, Note_on_c, 11, 74, 0
12, 101076, Note_on_c, 11, 58, 0
12, 101160, Note_on_c, 11, 58, 84
12, 101160, Note_on_c, 11, 75, 89
12, 101160, Note_on_c, 11, 67, 120
12, 101256, Note_on_c, 11, 67, 0
12, 101256, Note_on_c, 11, 75, 0
12, 101256, Note_on_c, 11, 58, 0
12, 101550, Note_on_c, 11, 63, 118
12, 101574, Note_on_c, 11, 63, 0
12, 101580, Note_on_c, 11, 65, 127
12, 101604, Note_on_c, 11, 65, 0
12, 101610, Note_on_c, 11, 67, 125
12, 101634, Note_on_c, 11, 67, 0
12, 101640, Note_on_c, 11, 68, 107
12, 101664, Note_on_c, 11, 68, 0
12, 101670, Note_on_c, 11, 70, 88
12, 101694, Note_on_c, 11, 70, 0
12, 101700, Note_on_c, 11, 72, 127
12, 101724, Note_on_c, 11, 72, 0
12, 101730, Note_on_c, 11, 71, 120
12, 101754, Note_on_c, 11, 71, 0
12, 101760, Note_on_c, 11, 72, 127
12, 101784, Note_on_c, 11, 72, 0
12, 101790, Note_on_c, 11, 74, 127
12, 101814, Note_on_c, 11, 74, 0
12, 101820, Note_on_c, 11, 75, 123
12, 101844, Note_on_c, 11, 75, 0
12, 101850, Note_on_c, 11, 72, 116
12, 101874, Note_on_c, 11, 72, 0
12, 101880, Note_on_c, 11, 70, 123
12, 101976, Note_on_c, 11, 70, 0
12, 102300, Note_on_c, 11, 58, 118
12, 102324, Note_on_c, 11, 58, 0
12, 102330, Note_on_c, 11, 60, 127
12, 102354, Note_on_c, 11, 60, 0
12, 102360, Note_on_c, 11, 62, 127
12, 102384, Note_on_c, 11, 62, 0
12, 102390, Note_on_c, 11, 63, 126
12, 102414, Note_on_c, 11, 63, 0
12, 102420, Note_on_c, 11, 65, 127
12, 102444, Note_on_c, 11, 65, 0
12, 102450, Note_on_c, 11, 64, 116
12, 102474, Note_on_c, 11, 64, 0
12, 102480, Note_on_c, 11, 65, 127
12, 102504, Note_on_c, 11, 65, 0
12, 102510, Note_on_c, 11, 67, 127
12, 102534, Note_on_c, 11, 67, 0
12, 102540, Note_on_c, 11, 68, 100
12, 102564, Note_on_c, 11, 68, 0
12, 102570, Note_on_c, 11, 65, 127
12, 102594, Note_on_c, 11, 65, 0
12, 102600, Note_on_c, 11, 63, 101
12, 102696, Note_on_c, 11, 63, 0
12, 102960, Note_on_c, 11, 55, 109
12, 102960, Note_on_c, 11, 63, 85
12, 102960, Note_on_c, 11, 79, 125
12, 102960, Note_on_c, 11, 70, 81
12, 103056, Note_on_c, 11, 70, 0
12, 103056, Note_on_c, 11, 55, 0
12, 103056, Note_on_c, 11, 63, 0
12, 103056, Note_on_c, 11, 79, 0
12, 103320, Note_on_c, 11, 63, 113
12, 103320, Note_on_c, 11, 55, 110
12, 103416, Note_on_c, 11, 55, 0
12, 103416, Note_on_c, 11, 63, 0
12, 107760, Note_on_c, 11, 58, 86
12, 107808, Note_on_c, 11, 58, 0
12, 107820, Note_on_c, 11, 58, 90
12, 107916, Note_on_c, 11, 58, 0
12, 111240, Note_on_c, 11, 65, 127
12, 111240, Note_on_c, 11, 60, 117
12, 111336, Note_on_c, 11, 60, 0
12, 111336, Note_on_c, 11, 65, 0
12, 111420, Note_on_c, 11, 72, 127
12, 111444, Note_on_c, 11, 72, 0
12, 111450, Note_on_c, 11, 72, 127
12, 111474, Note_on_c, 11, 72, 0
12, 111480, Note_on_c, 11, 70, 111
12, 111504, Note_on_c, 11, 70, 0
12, 111510, Note_on_c, 11, 70, 111
12, 111534, Note_on_c, 11, 70, 0
12, 111540, Note_on_c, 11, 68, 121
12, 111564, Note_on_c, 11, 68, 0
12, 111570, Note_on_c, 11, 68, 118
12, 111594, Note_on_c, 11, 68, 0
12, 111600, Note_on_c, 11, 67, 127
12, 111624, Note_on_c, 11, 67, 0
12, 111630, Note_on_c, 11, 67, 120
12, 111654, Note_on_c, 11, 67, 0
12, 111660, Note_on_c, 11, 65, 120
12, 111684, Note_on_c, 11, 65, 0
12, 111690, Note_on_c, 11, 65, 123
12, 111714, Note_on_c, 11, 65, 0
12, 111720, Note_on_c, 11, 64, 123
12, 111744, Note_on_c, 11, 64, 0
12, 111750, Note_on_c, 11, 64, 123
12, 111774, Note_on_c, 11, 64, 0
12, 111780, Note_on_c, 11, 65, 127
12, 111804, Note_on_c, 11, 65, 0
12, 111810, Note_on_c, 11, 65, 127
12, 111834, Note_on_c, 11, 65, 0
12, 111840, Note_on_c, 11, 65, 127
12, 111864, Note_on_c, 11, 65, 0
12, 111870, Note_on_c, 11, 65, 127
12, 111894, Note_on_c, 11, 65, 0
12, 111900, Note_on_c, 11, 67, 127
12, 111924, Note_on_c, 11, 67, 0
12, 111930, Note_on_c, 11, 67, 127
12, 111954, Note_on_c, 11, 67, 0
12, 111960, Note_on_c, 11, 68, 121
12, 111984, Note_on_c, 11, 68, 0
12, 111990, Note_on_c, 11, 68, 113
12, 112014, Note_on_c, 11, 68, 0
12, 112020, Note_on_c, 11, 60, 120
12, 112044, Note_on_c, 11, 60, 0
12, 112050, Note_on_c, 11, 60, 117
12, 112074, Note_on_c, 11, 60, 0
12, 112080, Note_on_c, 11, 62, 123
12, 112104, Note_on_c, 11, 62, 0
12, 112110, Note_on_c, 11, 62, 125
12, 112134, Note_on_c, 11, 62, 0
12, 112140, Note_on_c, 11, 63, 121
12, 112164, Note_on_c, 11, 63, 0
12, 112170, Note_on_c, 11, 63, 111
12, 112194, Note_on_c, 11, 63, 0
12, 112200, Note_on_c, 11, 63, 118
12, 112224, Note_on_c, 11, 63, 0
12, 112230, Note_on_c, 11, 63, 109
12, 112254, Note_on_c, 11, 63, 0
12, 112260, Note_on_c, 11, 58, 92
12, 112260, Note_on_c, 11, 65, 127
12, 112284, Note_on_c, 11, 65, 0
12, 112284, Note_on_c, 11, 58, 0
12, 112290, Note_on_c, 11, 65, 127
12, 112290, Note_on_c, 11, 58, 107
12, 112314, Note_on_c, 11, 58, 0
12, 112314, Note_on_c, 11, 65, 0
12, 112320, Note_on_c, 11, 58, 95
12, 112320, Note_on_c, 11, 65, 127
12, 112416, Note_on_c, 11, 65, 0
12, 112416, Note_on_c, 11, 58, 0
12, 113040, Note_on_c, 11, 67, 127
12, 113040, Note_on_c, 11, 58, 109
12, 113136, Note_on_c, 11, 58, 0
12, 113136, Note_on_c, 11, 67, 0
12, 113760, Note_on_c, 11, 60, 120
12, 113856, Note_on_c, 11, 60, 0
12, 114900, Note_on_c, 11, 62, 127
12, 114948, Note_on_c, 11, 62, 0
12, 114960, Note_on_c, 11, 62, 127
12, 115608, Note_on_c, 11, 62, 0
12, 115620, Note_on_c, 11, 63, 115
12, 116268, Note_on_c, 11, 63, 0
12, 116340, Note_on_c, 11, 65, 123
12, 116988, Note_on_c, 11, 65, 0
12, 117060, Note_on_c, 11, 63, 113
12, 117204, Note_on_c, 11, 63, 0
12, 117240, Note_on_c, 11, 68, 111
12, 117384, Note_on_c, 11, 68, 0
12, 117420, Note_on_c, 11, 67, 110
12, 117564, Note_on_c, 11, 67, 0
12, 117600, Note_on_c, 11, 65, 102
12, 117744, Note_on_c, 11, 65, 0
12, 117780, Note_on_c, 11, 63, 118
12, 117924, Note_on_c, 11, 63, 0
12, 117960, Note_on_c, 11, 68, 105
12, 118104, Note_on_c, 11, 68, 0
12, 118140, Note_on_c, 11, 67, 110
12, 118284, Note_on_c, 11, 67, 0
12, 118320, Note_on_c, 11, 65, 108
12, 118464, Note_on_c, 11, 65, 0
12, 118500, Note_on_c, 11, 63, 105
12, 118644, Note_on_c, 11, 63, 0
12, 118680, Note_on_c, 11, 68, 115
12, 118824, Note_on_c, 11, 68, 0
12, 118860, Note_on_c, 11, 67, 116
12, 119004, Note_on_c, 11, 67, 0
12, 119040, Note_on_c, 11, 68, 90
12, 119184, Note_on_c, 11, 68, 0
12, 119220, Note_on_c, 11, 67, 111
12, 119316, Note_on_c, 11, 67, 0
12, 119340, Note_on_c, 11, 68, 109
12, 119388, Note_on_c, 11, 68, 0
12, 119400, Note_on_c, 11, 67, 123
12, 119496, Note_on_c, 11, 67, 0
12, 119520, Note_on_c, 11, 68, 111
12, 119568, Note_on_c, 11, 68, 0
12, 119580, Note_on_c, 11, 67, 117
12, 119676, Note_on_c, 11, 67, 0
12, 119700, Note_on_c, 11, 68, 107
12, 119748, Note_on_c, 11, 68, 0
12, 119760, Note_on_c, 11, 67, 113
12, 119856, Note_on_c, 11, 67, 0
12, 119880, Note_on_c, 11, 68, 111
12, 119928, Note_on_c, 11, 68, 0
12, 119940, Note_on_c, 11, 67, 125
12, 119940, Note_on_c, 11, 70, 118
12, 120036, Note_on_c, 11, 70, 0
12, 120036, Note_on_c, 11, 67, 0
12, 123480, Note_on_c, 11, 60, 127
12, 123504, Note_on_c, 11, 60, 0
12, 123510, Note_on_c, 11, 56, 118
12, 123534, Note_on_c, 11, 56, 0
12, 123540, Note_on_c, 11, 61, 107
12, 123564, Note_on_c, 11, 61, 0
12, 123570, Note_on_c, 11, 58, 109
12, 123594, Note_on_c, 11, 58, 0
12, 123600, Note_on_c, 11, 61, 109
12, 123624, Note_on_c, 11, 61, 0
12, 123630, Note_on_c, 11, 58, 109
12, 123654, Note_on_c, 11, 58, 0
12, 123660, Note_on_c, 11, 61, 107
12, 123684, Note_on_c, 11, 61, 0
12, 123690, Note_on_c, 11, 58, 111
12, 123714, Note_on_c, 11, 58, 0
12, 123720, Note_on_c, 11, 60, 120
12, 123744, Note_on_c, 11, 60, 0
12, 123750, Note_on_c, 11, 56, 103
12, 123774, Note_on_c, 11, 56, 0
12, 123780, Note_on_c, 11, 60, 127
12, 123804, Note_on_c, 11, 60, 0
12, 123810, Note_on_c, 11, 56, 100
12, 123834, Note_on_c, 11, 56, 0
12, 123840, Note_on_c, 11, 60, 125
12, 123864, Note_on_c, 11, 60, 0
12, 123870, Note_on_c, 11, 56, 103
12, 123894, Note_on_c, 11, 56, 0
12, 123900, Note_on_c, 11, 58, 115
12, 123996, Note_on_c, 11, 58, 0
12, 124920, Note_on_c, 11, 60, 127
12, 124944, Note_on_c, 11, 60, 0
12, 124950, Note_on_c, 11, 56, 118
12, 124974, Note_on_c, 11, 56, 0
12, 124980, Note_on_c, 11, 61, 107
12, 125004, Note_on_c, 11, 61, 0
12, 125010, Note_on_c, 11, 58, 109
12, 125034, Note_on_c, 11, 58, 0
12, 125040, Note_on_c, 11, 61, 109
12, 125064, Note_on_c, 11, 61, 0
12, 125070, Note_on_c, 11, 58, 109
12, 125094, Note_on_c, 11, 58, 0
12, 125100, Note_on_c, 11, 61, 107
12, 125124, Note_on_c, 11, 61, 0
12, 125130, Note_on_c, 11, 58, 111
12, 125154, Note_on_c, 11, 58, 0
12, 125160, Note_on_c, 11, 60, 120
12, 125184, Note_on_c, 11, 60, 0
12, 125190, Note_on_c, 11, 56, 103
12, 125214, Note_on_c, 11, 56, 0
12, 125220, Note_on_c, 11, 60, 127
12, 125244, Note_on_c, 11, 60, 0
12, 125250, Note_on_c, 11, 56, 100
12, 125274, Note_on_c, 11, 56, 0
12, 125280, Note_on_c, 11, 60, 125
12, 125304, Note_on_c, 11, 60, 0
12, 125310, Note_on_c, 11, 56, 103
12, 125334, Note_on_c, 11, 56, 0
12, 125340, Note_on_c, 11, 58, 115
12, 125436, Note_on_c, 11, 58, 0
12, 126360, Note_on_c, 11, 60, 118
12, 126384, Note_on_c, 11, 60, 0
12, 126390, Note_on_c, 11, 63, 113
12, 126414, Note_on_c, 11, 63, 0
12, 126420, Note_on_c, 11, 61, 118
12, 126444, Note_on_c, 11, 61, 0
12, 126450, Note_on_c, 11, 63, 115
12, 126474, Note_on_c, 11, 63, 0
12, 126480, Note_on_c, 11, 67, 107
12, 126504, Note_on_c, 11, 67, 0
12, 126510, Note_on_c, 11, 70, 113
12, 126534, Note_on_c, 11, 70, 0
12, 126540, Note_on_c, 11, 73, 111
12, 126564, Note_on_c, 11, 73, 0
12, 126570, Note_on_c, 11, 73, 111
12, 126594, Note_on_c, 11, 73, 0
12, 126600, Note_on_c, 11, 73, 118
12, 126624, Note_on_c, 11, 73, 0
12, 126630, Note_on_c, 11, 63, 113
12, 126654, Note_on_c, 11, 63, 0
12, 126660, Note_on_c, 11, 73, 126
12, 126684, Note_on_c, 11, 73, 0
12, 126690, Note_on_c, 11, 72, 127
12, 126714, Note_on_c, 11, 72, 0
12, 126720, Note_on_c, 11, 70, 111
12, 126744, Note_on_c, 11, 70, 0
12, 126750, Note_on_c, 11, 70, 113
12, 126774, Note_on_c, 11, 70, 0
12, 126780, Note_on_c, 11, 72, 112
12, 126804, Note_on_c, 11, 72, 0
12, 126810, Note_on_c, 11, 63, 105
12, 126834, Note_on_c, 11, 63, 0
12, 126840, Note_on_c, 11, 72, 127
12, 126864, Note_on_c, 11, 72, 0
12, 126870, Note_on_c, 11, 63, 105
12, 126894, Note_on_c, 11, 63, 0
12, 126900, Note_on_c, 11, 72, 125
12, 126924, Note_on_c, 11, 72, 0
12, 126930, Note_on_c, 11, 63, 111
12, 126954, Note_on_c, 11, 63, 0
12, 126960, Note_on_c, 11, 72, 121
12, 126960, Note_on_c, 11, 63, 101
12, 127056, Note_on_c, 11, 63, 0
12, 127056, Note_on_c, 11, 72, 0
12, 127800, Note_on_c, 11, 60, 127
12, 127824, Note_on_c, 11, 60, 0
12, 127830, Note_on_c, 11, 59, 123
12, 127854, Note_on_c, 11, 59, 0
12, 127860, Note_on_c, 11, 59, 120
12, 127884, Note_on_c, 11, 59, 0
12, 127890, Note_on_c, 11, 59, 106
12, 127914, Note_on_c, 11, 59, 0
12, 127920, Note_on_c, 11, 59, 109
12, 127944, Note_on_c, 11, 59, 0
12, 127950, Note_on_c, 11, 59, 117
12, 127974, Note_on_c, 11, 59, 0
12, 127980, Note_on_c, 11, 58, 109
12, 128004, Note_on_c, 11, 58, 0
12, 128010, Note_on_c, 11, 57, 127
12, 128034, Note_on_c, 11, 57, 0
12, 128040, Note_on_c, 11, 57, 123
12, 128064, Note_on_c, 11, 57, 0
12, 128070, Note_on_c, 11, 57, 113
12, 128094, Note_on_c, 11, 57, 0
12, 128100, Note_on_c, 11, 57, 112
12, 128124, Note_on_c, 11, 57, 0
12, 128130, Note_on_c, 11, 57, 121
12, 128154, Note_on_c, 11, 57, 0
12, 128160, Note_on_c, 11, 56, 109
12, 128184, Note_on_c, 11, 56, 0
12, 128190, Note_on_c, 11, 55, 127
12, 128214, Note_on_c, 11, 55, 0
12, 128220, Note_on_c, 11, 55, 111
12, 128244, Note_on_c, 11, 55, 0
12, 128250, Note_on_c, 11, 55, 107
12, 128274, Note_on_c, 11, 55, 0
12, 128280, Note_on_c, 11, 55, 102
12, 128304, Note_on_c, 11, 55, 0
12, 128310, Note_on_c, 11, 55, 109
12, 128334, Note_on_c, 11, 55, 0
12, 128520, Note_on_c, 11, 58, 107
12, 128544, Note_on_c, 11, 58, 0
12, 128550, Note_on_c, 11, 58, 95
12, 128574, Note_on_c, 11, 58, 0
12, 128580, Note_on_c, 11, 58, 101
12, 128604, Note_on_c, 11, 58, 0
12, 128610, Note_on_c, 11, 63, 111
12, 128634, Note_on_c, 11, 63, 0
12, 128640, Note_on_c, 11, 63, 100
12, 128664, Note_on_c, 11, 63, 0
12, 128670, Note_on_c, 11, 63, 95
12, 128694, Note_on_c, 11, 63, 0
12, 128700, Note_on_c, 11, 63, 118
12, 128724, Note_on_c, 11, 63, 0
12, 128730, Note_on_c, 11, 67, 104
12, 128754, Note_on_c, 11, 67, 0
12, 128760, Note_on_c, 11, 67, 125
12, 128784, Note_on_c, 11, 67, 0
12, 128790, Note_on_c, 11, 67, 111
12, 128814, Note_on_c, 11, 67, 0
12, 128820, Note_on_c, 11, 67, 109
12, 128844, Note_on_c, 11, 67, 0
12, 128850, Note_on_c, 11, 67, 110
12, 128874, Note_on_c, 11, 67, 0
12, 128880, Note_on_c, 11, 67, 114
12, 128904, Note_on_c, 11, 67, 0
12, 128910, Note_on_c, 11, 70, 99
12, 128934, Note_on_c, 11, 70, 0
12, 128940, Note_on_c, 11, 70, 107
12, 128964, Note_on_c, 11, 70, 0
12, 128970, Note_on_c, 11, 75, 115
12, 128994, Note_on_c, 11, 75, 0
12, 129000, Note_on_c, 11, 75, 100
12, 129024, Note_on_c, 11, 75, 0
12, 129030, Note_on_c, 11, 75, 101
12, 129054, Note_on_c, 11, 75, 0
12, 129060, Note_on_c, 11, 75, 97
12, 129084, Note_on_c, 11, 75, 0
12, 129090, Note_on_c, 11, 75, 103
12, 129114, Note_on_c, 11, 75, 0
12, 129120, Note_on_c, 11, 75, 109
12, 129144, Note_on_c, 11, 75, 0
12, 129150, Note_on_c, 11, 75, 105
12, 129174, Note_on_c, 11, 75, 0
12, 129180, Note_on_c, 11, 75, 95
12, 129204, Note_on_c, 11, 75, 0
12, 129210, Note_on_c, 11, 75, 103
12, 129234, Note_on_c, 11, 75, 0
12, 129240, Note_on_c, 11, 75, 105
12, 129264, Note_on_c, 11, 75, 0
12, 129270, Note_on_c, 11, 79, 110
12, 129294, Note_on_c, 11, 79, 0
12, 129300, Note_on_c, 11, 77, 127
12, 129324, Note_on_c, 11, 77, 0
12, 129330, Note_on_c, 11, 77, 123
12, 129354, Note_on_c, 11, 77, 0
12, 129360, Note_on_c, 11, 77, 127
12, 129384, Note_on_c, 11, 77, 0
12, 129390, Note_on_c, 11, 77, 127
12, 129414, Note_on_c, 11, 77, 0
12, 129420, Note_on_c, 11, 74, 127
12, 129444, Note_on_c, 11, 74, 0
12, 129450, Note_on_c, 11, 77, 127
12, 129474, Note_on_c, 11, 77, 0
12, 129480, Note_on_c, 11, 75, 107
12, 129504, Note_on_c, 11, 75, 0
12, 129510, Note_on_c, 11, 75, 113
12, 129534, Note_on_c, 11, 75, 0
12, 129540, Note_on_c, 11, 75, 109
12, 129564, Note_on_c, 11, 75, 0
12, 129570, Note_on_c, 11, 75, 115
12, 129594, Note_on_c, 11, 75, 0
12, 129600, Note_on_c, 11, 70, 99
12, 129624, Note_on_c, 11, 70, 0
12, 129630, Note_on_c, 11, 70, 105
12, 129654, Note_on_c, 11, 70, 0
12, 129660, Note_on_c, 11, 70, 115
12, 129684, Note_on_c, 11, 70, 0
12, 129690, Note_on_c, 11, 70, 101
12, 129714, Note_on_c, 11, 70, 0
12, 129720, Note_on_c, 11, 70, 94
12, 129744, Note_on_c, 11, 70, 0
12, 129750, Note_on_c, 11, 70, 101
12, 129774, Note_on_c, 11, 70, 0
12, 129780, Note_on_c, 11, 70, 115
12, 129804, Note_on_c, 11, 70, 0
12, 129810, Note_on_c, 11, 69, 127
12, 129834, Note_on_c, 11, 69, 0
12, 129840, Note_on_c, 11, 70, 111
12, 129864, Note_on_c, 11, 70, 0
12, 129870, Note_on_c, 11, 70, 111
12, 129894, Note_on_c, 11, 70, 0
12, 129900, Note_on_c, 11, 70, 111
12, 129924, Note_on_c, 11, 70, 0
12, 129930, Note_on_c, 11, 70, 105
12, 129954, Note_on_c, 11, 70, 0
12, 129960, Note_on_c, 11, 58, 99
12, 129984, Note_on_c, 11, 58, 0
12, 129990, Note_on_c, 11, 58, 99
12, 130014, Note_on_c, 11, 58, 0
12, 130020, Note_on_c, 11, 58, 107
12, 130044, Note_on_c, 11, 58, 0
12, 130050, Note_on_c, 11, 63, 121
12, 130074, Note_on_c, 11, 63, 0
12, 130080, Note_on_c, 11, 63, 121
12, 130104, Note_on_c, 11, 63, 0
12, 130110, Note_on_c, 11, 63, 111
12, 130134, Note_on_c, 11, 63, 0
12, 130140, Note_on_c, 11, 63, 121
12, 130164, Note_on_c, 11, 63, 0
12, 130170, Note_on_c, 11, 67, 109
12, 130194, Note_on_c, 11, 67, 0
12, 130200, Note_on_c, 11, 67, 127
12, 130224, Note_on_c, 11, 67, 0
12, 130230, Note_on_c, 11, 67, 120
12, 130254, Note_on_c, 11, 67, 0
12, 130260, Note_on_c, 11, 67, 118
12, 130284, Note_on_c, 11, 67, 0
12, 130290, Note_on_c, 11, 67, 120
12, 130314, Note_on_c, 11, 67, 0
12, 130320, Note_on_c, 11, 67, 127
12, 130344, Note_on_c, 11, 67, 0
12, 130350, Note_on_c, 11, 70, 107
12, 130374, Note_on_c, 11, 70, 0
12, 130380, Note_on_c, 11, 70, 121
12, 130404, Note_on_c, 11, 70, 0
12, 130410, Note_on_c, 11, 75, 105
12, 130434, Note_on_c, 11, 75, 0
12, 130440, Note_on_c, 11, 75, 105
12, 130464, Note_on_c, 11, 75, 0
12, 130470, Note_on_c, 11, 75, 109
12, 130494, Note_on_c, 11, 75, 0
12, 130500, Note_on_c, 11, 75, 103
12, 130524, Note_on_c, 11, 75, 0
12, 130530, Note_on_c, 11, 75, 103
12, 130554, Note_on_c, 11, 75, 0
12, 130560, Note_on_c, 11, 75, 115
12, 130584, Note_on_c, 11, 75, 0
12, 130590, Note_on_c, 11, 75, 101
12, 130614, Note_on_c, 11, 75, 0
12, 130620, Note_on_c, 11, 75, 97
12, 130644, Note_on_c, 11, 75, 0
12, 130650, Note_on_c, 11, 75, 105
12, 130674, Note_on_c, 11, 75, 0
12, 130680, Note_on_c, 11, 75, 111
12, 130704, Note_on_c, 11, 75, 0
12, 130710, Note_on_c, 11, 79, 127
12, 130734, Note_on_c, 11, 79, 0
12, 130740, Note_on_c, 11, 77, 127
12, 130764, Note_on_c, 11, 77, 0
12, 130770, Note_on_c, 11, 77, 127
12, 130794, Note_on_c, 11, 77, 0
12, 130800, Note_on_c, 11, 77, 127
12, 130824, Note_on_c, 11, 77, 0
12, 130830, Note_on_c, 11, 77, 127
12, 130854, Note_on_c, 11, 77, 0
12, 130860, Note_on_c, 11, 74, 127
12, 130884, Note_on_c, 11, 74, 0
12, 130890, Note_on_c, 11, 77, 127
12, 130914, Note_on_c, 11, 77, 0
12, 130920, Note_on_c, 11, 75, 111
12, 130944, Note_on_c, 11, 75, 0
12, 130950, Note_on_c, 11, 75, 118
12, 130974, Note_on_c, 11, 75, 0
12, 130980, Note_on_c, 11, 75, 115
12, 131004, Note_on_c, 11, 75, 0
12, 131010, Note_on_c, 11, 75, 113
12, 131034, Note_on_c, 11, 75, 0
12, 131040, Note_on_c, 11, 70, 99
12, 131064, Note_on_c, 11, 70, 0
12, 131070, Note_on_c, 11, 70, 101
12, 131094, Note_on_c, 11, 70, 0
12, 131100, Note_on_c, 11, 70, 113
12, 131124, Note_on_c, 11, 70, 0
12, 131130, Note_on_c, 11, 70, 111
12, 131154, Note_on_c, 11, 70, 0
12, 131160, Note_on_c, 11, 70, 101
12, 131184, Note_on_c, 11, 70, 0
12, 131190, Note_on_c, 11, 70, 109
12, 131214, Note_on_c, 11, 70, 0
12, 131220, Note_on_c, 11, 70, 97
12, 131244, Note_on_c, 11, 70, 0
12, 131250, Note_on_c, 11, 69, 127
12, 131274, Note_on_c, 11, 69, 0
12, 131280, Note_on_c, 11, 70, 115
12, 131304, Note_on_c, 11, 70, 0
12, 131310, Note_on_c, 11, 70, 107
12, 131334, Note_on_c, 11, 70, 0
12, 131340, Note_on_c, 11, 70, 103
12, 131364, Note_on_c, 11, 70, 0
12, 131370, Note_on_c, 11, 70, 121
12, 131394, Note_on_c, 11, 70, 0
12, 131400, Note_on_c, 11, 70, 115
12, 131424, Note_on_c, 11, 70, 0
12, 131430, Note_on_c, 11, 69, 127
12, 131454, Note_on_c, 11, 69, 0
12, 131460, Note_on_c, 11, 69, 125
12, 131484, Note_on_c, 11, 69, 0
12, 131490, Note_on_c, 11, 69, 127
12, 131514, Note_on_c, 11, 69, 0
12, 131520, Note_on_c, 11, 69, 127
12, 131544, Note_on_c, 11, 69, 0
12, 131550, Note_on_c, 11, 69, 127
12, 131574, Note_on_c, 11, 69, 0
12, 131580, Note_on_c, 11, 68, 118
12, 131604, Note_on_c, 11, 68, 0
12, 131610, Note_on_c, 11, 67, 127
12, 131634, Note_on_c, 11, 67, 0
12, 131640, Note_on_c, 11, 67, 127
12, 131664, Note_on_c, 11, 67, 0
12, 131670, Note_on_c, 11, 67, 123
12, 131694, Note_on_c, 11, 67, 0
12, 131700, Note_on_c, 11, 67, 120
12, 131724, Note_on_c, 11, 67, 0
12, 131730, Note_on_c, 11, 67, 125
12, 131754, Note_on_c, 11, 67, 0
12, 131760, Note_on_c, 11, 66, 113
12, 131784, Note_on_c, 11, 66, 0
12, 131790, Note_on_c, 11, 65, 127
12, 131814, Note_on_c, 11, 65, 0
12, 131820, Note_on_c, 11, 65, 121
12, 131844, Note_on_c, 11, 65, 0
12, 131850, Note_on_c, 11, 65, 118
12, 131874, Note_on_c, 11, 65, 0
12, 131880, Note_on_c, 11, 65, 117
12, 131904, Note_on_c, 11, 65, 0
12, 131910, Note_on_c, 11, 65, 127
12, 131934, Note_on_c, 11, 65, 0
12, 131940, Note_on_c, 11, 64, 127
12, 131964, Note_on_c, 11, 64, 0
12, 131970, Note_on_c, 11, 63, 86
12, 131994, Note_on_c, 11, 63, 0
12, 132000, Note_on_c, 11, 63, 113
12, 132024, Note_on_c, 11, 63, 0
12, 132030, Note_on_c, 11, 63, 105
12, 132054, Note_on_c, 11, 63, 0
12, 132060, Note_on_c, 11, 63, 105
12, 132084, Note_on_c, 11, 63, 0
12, 132090, Note_on_c, 11, 63, 113
12, 132114, Note_on_c, 11, 63, 0
12, 132120, Note_on_c, 11, 63, 111
12, 132144, Note_on_c, 11, 63, 0
12, 132150, Note_on_c, 11, 62, 121
12, 132174, Note_on_c, 11, 62, 0
12, 132180, Note_on_c, 11, 62, 125
12, 132204, Note_on_c, 11, 62, 0
12, 132210, Note_on_c, 11, 62, 114
12, 132234, Note_on_c, 11, 62, 0
12, 132240, Note_on_c, 11, 62, 109
12, 132264, Note_on_c, 11, 62, 0
12, 132270, Note_on_c, 11, 62, 111
12, 132294, Note_on_c, 11, 62, 0
12, 132300, Note_on_c, 11, 62, 116
12, 132324, Note_on_c, 11, 62, 0
12, 132330, Note_on_c, 11, 62, 121
12, 132354, Note_on_c, 11, 62, 0
12, 132360, Note_on_c, 11, 62, 127
12, 132384, Note_on_c, 11, 62, 0
12, 132390, Note_on_c, 11, 63, 111
12, 132414, Note_on_c, 11, 63, 0
12, 132420, Note_on_c, 11, 63, 109
12, 132444, Note_on_c, 11, 63, 0
12, 132450, Note_on_c, 11, 65, 123
12, 132474, Note_on_c, 11, 65, 0
12, 132480, Note_on_c, 11, 65, 114
12, 132504, Note_on_c, 11, 65, 0
12, 132510, Note_on_c, 11, 65, 127
12, 132534, Note_on_c, 11, 65, 0
12, 132540, Note_on_c, 11, 65, 80
12, 132568, Note_on_c, 11, 65, 0
12, 132570, Note_on_c, 11, 65, 117
12, 132570, Note_on_c, 11, 65, 117
12, 132570, Note_on_c, 11, 65, 117
12, 132570, Note_on_c, 11, 65, 117
12, 132594, Note_on_c, 11, 65, 0
12, 132594, Note_on_c, 11, 65, 0
12, 132594, Note_on_c, 11, 65, 0
12, 132594, Note_on_c, 11, 65, 0
12, 132600, Note_on_c, 11, 67, 127
12, 132624, Note_on_c, 11, 67, 0
12, 132630, Note_on_c, 11, 67, 127
12, 132654, Note_on_c, 11, 67, 0
12, 132660, Note_on_c, 11, 63, 121
12, 132684, Note_on_c, 11, 63, 0
12, 132690, Note_on_c, 11, 63, 115
12, 132714, Note_on_c, 11, 63, 0
12, 132720, Note_on_c, 11, 63, 121
12, 132816, Note_on_c, 11, 63, 0
12, 137940, Note_on_c, 11, 63, 121
12, 137964, Note_on_c, 11, 63, 0
12, 137970, Note_on_c, 11, 58, 118
12, 137994, Note_on_c, 11, 58, 0
12, 138000, Note_on_c, 11, 58, 103
12, 138024, Note_on_c, 11, 58, 0
12, 138030, Note_on_c, 11, 58, 113
12, 138054, Note_on_c, 11, 58, 0
12, 138060, Note_on_c, 11, 58, 109
12, 138084, Note_on_c, 11, 58, 0
12, 138090, Note_on_c, 11, 58, 111
12, 138114, Note_on_c, 11, 58, 0
12, 138120, Note_on_c, 11, 58, 111
12, 138144, Note_on_c, 11, 58, 0
12, 138150, Note_on_c, 11, 58, 109
12, 138174, Note_on_c, 11, 58, 0
12, 138180, Note_on_c, 11, 58, 109
12, 138204, Note_on_c, 11, 58, 0
12, 138210, Note_on_c, 11, 58, 109
12, 138234, Note_on_c, 11, 58, 0
12, 138240, Note_on_c, 11, 58, 109
12, 138240, Note_on_c, 11, 58, 105
12, 138264, Note_on_c, 11, 58, 0
12, 138264, Note_on_c, 11, 58, 0
12, 138270, Note_on_c, 11, 58, 109
12, 138294, Note_on_c, 11, 58, 0
12, 138300, Note_on_c, 11, 58, 107
12, 138324, Note_on_c, 11, 58, 0
12, 138330, Note_on_c, 11, 58, 103
12, 138354, Note_on_c, 11, 58, 0
12, 138360, Note_on_c, 11, 58, 121
12, 138384, Note_on_c, 11, 58, 0
12, 138390, Note_on_c, 11, 58, 111
12, 138414, Note_on_c, 11, 58, 0
12, 138420, Note_on_c, 11, 58, 91
12, 138444, Note_on_c, 11, 58, 0
12, 138450, Note_on_c, 11, 58, 92
12, 138474, Note_on_c, 11, 58, 0
12, 138480, Note_on_c, 11, 58, 89
12, 138504, Note_on_c, 11, 58, 0
12, 138510, Note_on_c, 11, 58, 96
12, 138534, Note_on_c, 11, 58, 0
12, 138540, Note_on_c, 11, 58, 105
12, 138564, Note_on_c, 11, 58, 0
12, 138570, Note_on_c, 11, 58, 107
12, 138594, Note_on_c, 11, 58, 0
12, 138600, Note_on_c, 11, 58, 111
12, 138624, Note_on_c, 11, 58, 0
12, 138630, Note_on_c, 11, 58, 113
12, 138654, Note_on_c, 11, 58, 0
12, 138660, Note_on_c, 11, 58, 121
12, 139308, Note_on_c, 11, 58, 0
12, 139380, Note_on_c, 11, 58, 121
12, 139668, Note_on_c, 11, 58, 0
12, 139740, Note_on_c, 11, 58, 115
12, 140748, Note_on_c, 11, 58, 0
12, 140820, Note_on_c, 11, 58, 121
12, 141108, Note_on_c, 11, 58, 0
12, 141180, Note_on_c, 11, 58, 118
12, 141276, Note_on_c, 11, 58, 0
12, 143340, Note_on_c, 11, 75, 115
12, 143340, Note_on_c, 11, 63, 101
12, 143340, Note_on_c, 11, 55, 116
12, 143436, Note_on_c, 11, 55, 0
12, 143436, Note_on_c, 11, 63, 0
12, 143436, Note_on_c, 11, 75, 0
12, 143730, Note_on_c, 11, 63, 118
12, 143754, Note_on_c, 11, 63, 0
12, 143760, Note_on_c, 11, 65, 127
12, 143784, Note_on_c, 11, 65, 0
12, 143790, Note_on_c, 11, 67, 127
12, 143814, Note_on_c, 11, 67, 0
12, 143820, Note_on_c, 11, 68, 111
12, 143844, Note_on_c, 11, 68, 0
12, 143850, Note_on_c, 11, 70, 121
12, 143874, Note_on_c, 11, 70, 0
12, 143880, Note_on_c, 11, 72, 127
12, 143904, Note_on_c, 11, 72, 0
12, 143910, Note_on_c, 11, 71, 127
12, 143934, Note_on_c, 11, 71, 0
12, 143940, Note_on_c, 11, 72, 127
12, 143964, Note_on_c, 11, 72, 0
12, 143970, Note_on_c, 11, 74, 127
12, 143994, Note_on_c, 11, 74, 0
12, 144000, Note_on_c, 11, 75, 118
12, 144024, Note_on_c, 11, 75, 0
12, 144030, Note_on_c, 11, 72, 127
12, 144054, Note_on_c, 11, 72, 0
12, 144060, Note_on_c, 11, 70, 126
12, 144156, Note_on_c, 11, 70, 0
12, 144480, Note_on_c, 11, 58, 121
12, 144504, Note_on_c, 11, 58, 0
12, 144510, Note_on_c, 11, 60, 127
12, 144534, Note_on_c, 11, 60, 0
12, 144540, Note_on_c, 11, 62, 127
12, 144564, Note_on_c, 11, 62, 0
12, 144570, Note_on_c, 11, 63, 127
12, 144594, Note_on_c, 11, 63, 0
12, 144600, Note_on_c, 11, 65, 127
12, 144624, Note_on_c, 11, 65, 0
12, 144630, Note_on_c, 11, 64, 127
12, 144654, Note_on_c, 11, 64, 0
12, 144660, Note_on_c, 11, 65, 123
12, 144684, Note_on_c, 11, 65, 0
12, 144690, Note_on_c, 11, 67, 127
12, 144714, Note_on_c, 11, 67, 0
12, 144720, Note_on_c, 11, 68, 127
12, 144744, Note_on_c, 11, 68, 0
12, 144750, Note_on_c, 11, 65, 127
12, 144774, Note_on_c, 11, 65, 0
12, 144780, Note_on_c, 11, 63, 121
12, 144876, Note_on_c, 11, 63, 0
12, 153060, Note_on_c, 11, 58, 121
12, 153108, Note_on_c, 11, 58, 0
12, 153120, Note_on_c, 11, 63, 127
12, 153168, Note_on_c, 11, 63, 0
12, 153180, Note_on_c, 11, 63, 121
12, 153228, Note_on_c, 11, 63, 0
12, 153240, Note_on_c, 11, 67, 127
12, 153288, Note_on_c, 11, 67, 0
12, 153360, Note_on_c, 11, 67, 127
12, 153384, Note_on_c, 11, 67, 0
12, 153390, Note_on_c, 11, 70, 123
12, 153414, Note_on_c, 11, 70, 0
12, 153420, Note_on_c, 11, 70, 100
12, 153444, Note_on_c, 11, 70, 0
12, 153450, Note_on_c, 11, 75, 121
12, 153474, Note_on_c, 11, 75, 0
12, 153480, Note_on_c, 11, 75, 126
12, 153696, Note_on_c, 11, 75, 0
12, 153720, Note_on_c, 11, 67, 126
12, 153768, Note_on_c, 11, 67, 0
12, 153780, Note_on_c, 11, 70, 118
12, 153804, Note_on_c, 11, 70, 0
12, 153810, Note_on_c, 11, 74, 127
12, 153834, Note_on_c, 11, 74, 0
12, 153840, Note_on_c, 11, 74, 127
12, 154056, Note_on_c, 11, 74, 0
12, 154080, Note_on_c, 11, 70, 118
12, 154128, Note_on_c, 11, 70, 0
12, 154140, Note_on_c, 11, 70, 121
12, 154164, Note_on_c, 11, 70, 0
12, 154170, Note_on_c, 11, 75, 127
12, 154194, Note_on_c, 11, 75, 0
12, 154200, Note_on_c, 11, 75, 127
12, 154296, Note_on_c, 11, 75, 0
12, 154320, Note_on_c, 11, 70, 127
12, 154344, Note_on_c, 11, 70, 0
12, 154350, Note_on_c, 11, 75, 127
12, 154374, Note_on_c, 11, 75, 0
12, 154380, Note_on_c, 11, 75, 127
12, 154476, Note_on_c, 11, 75, 0
12, 154500, Note_on_c, 11, 70, 111
12, 154524, Note_on_c, 11, 70, 0
12, 154530, Note_on_c, 11, 75, 127
12, 154554, Note_on_c, 11, 75, 0
12, 154560, Note_on_c, 11, 75, 117
12, 154656, Note_on_c, 11, 75, 0
12, 154680, Note_on_c, 11, 70, 115
12, 154704, Note_on_c, 11, 70, 0
12, 154710, Note_on_c, 11, 75, 127
12, 154734, Note_on_c, 11, 75, 0
12, 154740, Note_on_c, 11, 75, 127
12, 154836, Note_on_c, 11, 75, 0
12, 154860, Note_on_c, 11, 67, 111
12, 154860, Note_on_c, 11, 75, 127
12, 154956, Note_on_c, 11, 75, 0
12, 154956, Note_on_c, 11, 67, 0
12, 155040, Note_on_c, 11, 55, 118
12, 155040, Note_on_c, 11, 63, 90
12, 155040, Note_on_c, 11, 75, 126
12, 155136, Note_on_c, 11, 75, 0
12, 155136, Note_on_c, 11, 63, 0
12, 155136, Note_on_c, 11, 55, 0
12, 155220, Note_on_c, 11, 55, 125
12, 155220, Note_on_c, 11, 63, 118
12, 155316, Note_on_c, 11, 63, 0
12, 155316, Note_on_c, 11, 55, 0
12, 155316, End_track
13, 0, Start_track
13, 0, MIDI_port, 0
13, 0, Title_t, "Viola"
13, 0, Program_c, 11, 48
13, 0, Control_c, 11, 7, 109
13, 0, Control_c, 11, 10, 40
13, 0, Control_c, 11, 93, 0
13, 0, Control_c, 11, 91, 0
13, 4918, Control_c, 11, 7, 84
13, 4980, Note_on_c, 11, 62, 127
13, 5004, Note_on_c, 11, 62, 0
13, 5010, Note_on_c, 11, 61, 126
13, 5034, Note_on_c, 11, 61, 0
13, 5038, Control_c, 11, 7, 84
13, 5040, Note_on_c, 11, 61, 127
13, 5058, Control_c, 11, 7, 85
13, 5073, Control_c, 11, 7, 86
13, 5088, Note_on_c, 11, 61, 0
13, 5088, Control_c, 11, 7, 87
13, 5108, Control_c, 11, 7, 88
13, 5123, Control_c, 11, 7, 89
13, 5138, Control_c, 11, 7, 90
13, 5158, Control_c, 11, 7, 91
13, 5160, Note_on_c, 11, 60, 127
13, 5173, Control_c, 11, 7, 92
13, 5184, Note_on_c, 11, 60, 0
13, 5188, Control_c, 11, 7, 93
13, 5190, Note_on_c, 11, 59, 117
13, 5208, Control_c, 11, 7, 94
13, 5214, Note_on_c, 11, 59, 0
13, 5220, Note_on_c, 11, 59, 127
13, 5223, Control_c, 11, 7, 95
13, 5238, Control_c, 11, 7, 96
13, 5258, Control_c, 11, 7, 97
13, 5268, Note_on_c, 11, 59, 0
13, 5273, Control_c, 11, 7, 98
13, 5288, Control_c, 11, 7, 99
13, 5308, Control_c, 11, 7, 100
13, 5323, Control_c, 11, 7, 101
13, 5338, Control_c, 11, 7, 102
13, 5340, Note_on_c, 11, 58, 127
13, 5358, Control_c, 11, 7, 103
13, 5364, Note_on_c, 11, 58, 0
13, 5370, Note_on_c, 11, 57, 127
13, 5373, Control_c, 11, 7, 104
13, 5388, Control_c, 11, 7, 105
13, 5394, Note_on_c, 11, 57, 0
13, 5400, Note_on_c, 11, 57, 125
13, 5408, Control_c, 11, 7, 106
13, 5423, Control_c, 11, 7, 107
13, 5438, Control_c, 11, 7, 108
13, 5448, Note_on_c, 11, 57, 0
13, 5458, Control_c, 11, 7, 109
13, 5473, Control_c, 11, 7, 110
13, 5488, Control_c, 11, 7, 111
13, 5508, Control_c, 11, 7, 112
13, 5520, Note_on_c, 11, 56, 99
13, 5523, Control_c, 11, 7, 113
13, 5538, Control_c, 11, 7, 114
13, 5544, Note_on_c, 11, 56, 0
13, 5550, Note_on_c, 11, 55, 121
13, 5558, Control_c, 11, 7, 115
13, 5573, Control_c, 11, 7, 116
13, 5574, Note_on_c, 11, 55, 0
13, 5580, Note_on_c, 11, 55, 127
13, 5588, Control_c, 11, 7, 117
13, 5608, Control_c, 11, 7, 118
13, 5623, Control_c, 11, 7, 119
13, 5628, Note_on_c, 11, 55, 0
13, 5638, Control_c, 11, 7, 120
13, 5658, Control_c, 11, 7, 121
13, 5673, Control_c, 11, 7, 122
13, 5688, Control_c, 11, 7, 123
13, 5700, Note_on_c, 11, 53, 121
13, 5708, Control_c, 11, 7, 124
13, 5723, Control_c, 11, 7, 125
13, 5724, Note_on_c, 11, 53, 0
13, 5730, Note_on_c, 11, 51, 118
13, 5738, Control_c, 11, 7, 126
13, 5753, Control_c, 11, 7, 127
13, 5754, Note_on_c, 11, 51, 0
13, 5760, Note_on_c, 11, 51, 101
13, 5760, Note_on_c, 11, 55, 125
13, 5904, Note_on_c, 11, 55, 0
13, 5904, Note_on_c, 11, 51, 0
13, 5940, Note_on_c, 11, 55, 123
13, 5940, Note_on_c, 11, 51, 105
13, 6084, Note_on_c, 11, 51, 0
13, 6084, Note_on_c, 11, 55, 0
13, 6120, Note_on_c, 11, 51, 101
13, 6120, Note_on_c, 11, 55, 127
13, 6144, Note_on_c, 11, 55, 0
13, 6144, Note_on_c, 11, 51, 0
13, 6150, Note_on_c, 11, 55, 117
13, 6150, Note_on_c, 11, 51, 92
13, 6174, Note_on_c, 11, 51, 0
13, 6174, Note_on_c, 11, 55, 0
13, 6180, Note_on_c, 11, 51, 95
13, 6180, Note_on_c, 11, 55, 125
13, 6204, Note_on_c, 11, 55, 0
13, 6204, Note_on_c, 11, 51, 0
13, 6210, Note_on_c, 11, 55, 121
13, 6210, Note_on_c, 11, 51, 99
13, 6234, Note_on_c, 11, 51, 0
13, 6234, Note_on_c, 11, 55, 0
13, 6240, Note_on_c, 11, 51, 101
13, 6240, Note_on_c, 11, 55, 127
13, 6264, Note_on_c, 11, 55, 0
13, 6264, Note_on_c, 11, 51, 0
13, 6270, Note_on_c, 11, 55, 127
13, 6270, Note_on_c, 11, 51, 105
13, 6294, Note_on_c, 11, 51, 0
13, 6294, Note_on_c, 11, 55, 0
13, 6300, Note_on_c, 11, 55, 127
13, 6300, Note_on_c, 11, 51, 107
13, 6444, Note_on_c, 11, 51, 0
13, 6444, Note_on_c, 11, 55, 0
13, 6480, Note_on_c, 11, 56, 90
13, 6480, Note_on_c, 11, 53, 127
13, 6624, Note_on_c, 11, 53, 0
13, 6624, Note_on_c, 11, 56, 0
13, 6660, Note_on_c, 11, 51, 109
13, 6660, Note_on_c, 11, 55, 125
13, 6804, Note_on_c, 11, 55, 0
13, 6804, Note_on_c, 11, 51, 0
13, 6840, Note_on_c, 11, 53, 127
13, 6840, Note_on_c, 11, 50, 127
13, 6984, Note_on_c, 11, 50, 0
13, 6984, Note_on_c, 11, 53, 0
13, 7020, Note_on_c, 11, 53, 118
13, 7020, Note_on_c, 11, 50, 127
13, 7044, Note_on_c, 11, 50, 0
13, 7044, Note_on_c, 11, 53, 0
13, 7050, Note_on_c, 11, 53, 127
13, 7050, Note_on_c, 11, 50, 127
13, 7074, Note_on_c, 11, 50, 0
13, 7074, Note_on_c, 11, 53, 0
13, 7080, Note_on_c, 11, 58, 115
13, 7104, Note_on_c, 11, 58, 0
13, 7110, Note_on_c, 11, 56, 111
13, 7134, Note_on_c, 11, 56, 0
13, 7140, Note_on_c, 11, 55, 127
13, 7164, Note_on_c, 11, 55, 0
13, 7170, Note_on_c, 11, 53, 101
13, 7194, Note_on_c, 11, 53, 0
13, 7200, Note_on_c, 11, 51, 109
13, 7200, Note_on_c, 11, 55, 127
13, 7344, Note_on_c, 11, 55, 0
13, 7344, Note_on_c, 11, 51, 0
13, 7380, Note_on_c, 11, 55, 127
13, 7380, Note_on_c, 11, 51, 109
13, 7524, Note_on_c, 11, 51, 0
13, 7524, Note_on_c, 11, 55, 0
13, 7560, Note_on_c, 11, 51, 107
13, 7560, Note_on_c, 11, 55, 127
13, 7584, Note_on_c, 11, 55, 0
13, 7584, Note_on_c, 11, 51, 0
13, 7590, Note_on_c, 11, 51, 105
13, 7590, Note_on_c, 11, 55, 127
13, 7614, Note_on_c, 11, 55, 0
13, 7614, Note_on_c, 11, 51, 0
13, 7620, Note_on_c, 11, 51, 105
13, 7620, Note_on_c, 11, 55, 127
13, 7644, Note_on_c, 11, 55, 0
13, 7644, Note_on_c, 11, 51, 0
13, 7650, Note_on_c, 11, 51, 107
13, 7650, Note_on_c, 11, 55, 121
13, 7674, Note_on_c, 11, 55, 0
13, 7674, Note_on_c, 11, 51, 0
13, 7680, Note_on_c, 11, 51, 105
13, 7680, Note_on_c, 11, 55, 127
13, 7704, Note_on_c, 11, 55, 0
13, 7704, Note_on_c, 11, 51, 0
13, 7710, Note_on_c, 11, 55, 127
13, 7710, Note_on_c, 11, 51, 111
13, 7734, Note_on_c, 11, 51, 0
13, 7734, Note_on_c, 11, 55, 0
13, 7740, Note_on_c, 11, 55, 125
13, 7740, Note_on_c, 11, 51, 111
13, 7884, Note_on_c, 11, 51, 0
13, 7884, Note_on_c, 11, 55, 0
13, 7920, Note_on_c, 11, 53, 123
13, 7920, Note_on_c, 11, 50, 127
13, 8016, Note_on_c, 11, 50, 0
13, 8016, Note_on_c, 11, 53, 0
13, 8040, Note_on_c, 11, 56, 88
13, 8040, Note_on_c, 11, 53, 123
13, 8064, Note_on_c, 11, 53, 0
13, 8064, Note_on_c, 11, 56, 0
13, 8070, Note_on_c, 11, 56, 109
13, 8070, Note_on_c, 11, 53, 127
13, 8094, Note_on_c, 11, 53, 0
13, 8094, Note_on_c, 11, 56, 0
13, 8100, Note_on_c, 11, 55, 117
13, 8100, Note_on_c, 11, 51, 107
13, 8244, Note_on_c, 11, 51, 0
13, 8244, Note_on_c, 11, 55, 0
13, 8280, Note_on_c, 11, 53, 120
13, 8280, Note_on_c, 11, 50, 127
13, 8424, Note_on_c, 11, 50, 0
13, 8424, Note_on_c, 11, 53, 0
13, 8460, Note_on_c, 11, 53, 118
13, 8460, Note_on_c, 11, 50, 127
13, 8484, Note_on_c, 11, 50, 0
13, 8484, Note_on_c, 11, 53, 0
13, 8490, Note_on_c, 11, 53, 127
13, 8490, Note_on_c, 11, 50, 127
13, 8514, Note_on_c, 11, 50, 0
13, 8514, Note_on_c, 11, 53, 0
13, 8520, Note_on_c, 11, 62, 118
13, 8544, Note_on_c, 11, 62, 0
13, 8550, Note_on_c, 11, 62, 127
13, 8574, Note_on_c, 11, 62, 0
13, 8580, Note_on_c, 11, 61, 100
13, 8604, Note_on_c, 11, 61, 0
13, 8610, Note_on_c, 11, 61, 113
13, 8634, Note_on_c, 11, 61, 0
13, 8640, Note_on_c, 11, 60, 123
13, 8664, Note_on_c, 11, 60, 0
13, 8670, Note_on_c, 11, 60, 110
13, 8694, Note_on_c, 11, 60, 0
13, 8700, Note_on_c, 11, 60, 109
13, 8724, Note_on_c, 11, 60, 0
13, 8730, Note_on_c, 11, 60, 127
13, 8754, Note_on_c, 11, 60, 0
13, 8760, Note_on_c, 11, 59, 108
13, 8784, Note_on_c, 11, 59, 0
13, 8790, Note_on_c, 11, 59, 127
13, 8814, Note_on_c, 11, 59, 0
13, 8820, Note_on_c, 11, 58, 100
13, 8844, Note_on_c, 11, 58, 0
13, 8850, Note_on_c, 11, 58, 103
13, 8874, Note_on_c, 11, 58, 0
13, 8880, Note_on_c, 11, 58, 107
13, 8904, Note_on_c, 11, 58, 0
13, 8910, Note_on_c, 11, 58, 115
13, 8934, Note_on_c, 11, 58, 0
13, 8940, Note_on_c, 11, 57, 121
13, 8964, Note_on_c, 11, 57, 0
13, 8970, Note_on_c, 11, 57, 120
13, 8994, Note_on_c, 11, 57, 0
13, 9000, Note_on_c, 11, 56, 94
13, 9024, Note_on_c, 11, 56, 0
13, 9030, Note_on_c, 11, 56, 101
13, 9054, Note_on_c, 11, 56, 0
13, 9060, Note_on_c, 11, 56, 113
13, 9084, Note_on_c, 11, 56, 0
13, 9090, Note_on_c, 11, 56, 113
13, 9114, Note_on_c, 11, 56, 0
13, 9120, Note_on_c, 11, 55, 112
13, 9144, Note_on_c, 11, 55, 0
13, 9150, Note_on_c, 11, 55, 120
13, 9174, Note_on_c, 11, 55, 0
13, 9180, Note_on_c, 11, 54, 95
13, 9204, Note_on_c, 11, 54, 0
13, 9210, Note_on_c, 11, 54, 101
13, 9234, Note_on_c, 11, 54, 0
13, 9240, Note_on_c, 11, 54, 113
13, 9264, Note_on_c, 11, 54, 0
13, 9270, Note_on_c, 11, 54, 111
13, 9294, Note_on_c, 11, 54, 0
13, 9300, Note_on_c, 11, 53, 114
13, 9324, Note_on_c, 11, 53, 0
13, 9330, Note_on_c, 11, 53, 114
13, 9354, Note_on_c, 11, 53, 0
13, 9360, Note_on_c, 11, 53, 120
13, 9384, Note_on_c, 11, 53, 0
13, 9390, Note_on_c, 11, 56, 113
13, 9414, Note_on_c, 11, 56, 0
13, 9420, Note_on_c, 11, 53, 127
13, 9444, Note_on_c, 11, 53, 0
13, 9450, Note_on_c, 11, 56, 103
13, 9474, Note_on_c, 11, 56, 0
13, 9480, Note_on_c, 11, 53, 125
13, 9504, Note_on_c, 11, 53, 0
13, 9510, Note_on_c, 11, 56, 109
13, 9534, Note_on_c, 11, 56, 0
13, 9540, Note_on_c, 11, 53, 127
13, 9564, Note_on_c, 11, 53, 0
13, 9570, Note_on_c, 11, 56, 107
13, 9594, Note_on_c, 11, 56, 0
13, 9600, Note_on_c, 11, 53, 127
13, 9624, Note_on_c, 11, 53, 0
13, 9630, Note_on_c, 11, 51, 100
13, 9654, Note_on_c, 11, 51, 0
13, 9660, Note_on_c, 11, 50, 127
13, 9684, Note_on_c, 11, 50, 0
13, 9690, Note_on_c, 11, 62, 127
13, 9714, Note_on_c, 11, 62, 0
13, 9720, Note_on_c, 11, 51, 118
13, 9744, Note_on_c, 11, 51, 0
13, 9750, Note_on_c, 11, 55, 127
13, 9774, Note_on_c, 11, 55, 0
13, 9780, Note_on_c, 11, 51, 111
13, 9804, Note_on_c, 11, 51, 0
13, 9810, Note_on_c, 11, 55, 123
13, 9834, Note_on_c, 11, 55, 0
13, 9840, Note_on_c, 11, 51, 111
13, 9864, Note_on_c, 11, 51, 0
13, 9870, Note_on_c, 11, 55, 127
13, 9894, Note_on_c, 11, 55, 0
13, 9900, Note_on_c, 11, 51, 111
13, 9924, Note_on_c, 11, 51, 0
13, 9930, Note_on_c, 11, 55, 127
13, 9954, Note_on_c, 11, 55, 0
13, 9960, Note_on_c, 11, 51, 111
13, 9984, Note_on_c, 11, 51, 0
13, 9990, Note_on_c, 11, 55, 127
13, 10014, Note_on_c, 11, 55, 0
13, 10020, Note_on_c, 11, 53, 127
13, 10044, Note_on_c, 11, 53, 0
13, 10050, Note_on_c, 11, 56, 107
13, 10074, Note_on_c, 11, 56, 0
13, 10080, Note_on_c, 11, 53, 127
13, 10104, Note_on_c, 11, 53, 0
13, 10110, Note_on_c, 11, 56, 107
13, 10134, Note_on_c, 11, 56, 0
13, 10140, Note_on_c, 11, 53, 121
13, 10164, Note_on_c, 11, 53, 0
13, 10170, Note_on_c, 11, 56, 107
13, 10194, Note_on_c, 11, 56, 0
13, 10200, Note_on_c, 11, 53, 127
13, 10224, Note_on_c, 11, 53, 0
13, 10230, Note_on_c, 11, 56, 109
13, 10254, Note_on_c, 11, 56, 0
13, 10260, Note_on_c, 11, 53, 118
13, 10284, Note_on_c, 11, 53, 0
13, 10290, Note_on_c, 11, 56, 109
13, 10314, Note_on_c, 11, 56, 0
13, 10320, Note_on_c, 11, 53, 127
13, 10344, Note_on_c, 11, 53, 0
13, 10350, Note_on_c, 11, 51, 111
13, 10374, Note_on_c, 11, 51, 0
13, 10380, Note_on_c, 11, 50, 114
13, 10404, Note_on_c, 11, 50, 0
13, 10410, Note_on_c, 11, 62, 120
13, 10434, Note_on_c, 11, 62, 0
13, 10440, Note_on_c, 11, 51, 115
13, 10464, Note_on_c, 11, 51, 0
13, 10470, Note_on_c, 11, 55, 123
13, 10494, Note_on_c, 11, 55, 0
13, 10500, Note_on_c, 11, 51, 105
13, 10524, Note_on_c, 11, 51, 0
13, 10530, Note_on_c, 11, 55, 120
13, 10554, Note_on_c, 11, 55, 0
13, 10560, Note_on_c, 11, 51, 101
13, 10584, Note_on_c, 11, 51, 0
13, 10590, Note_on_c, 11, 55, 125
13, 10614, Note_on_c, 11, 55, 0
13, 10620, Note_on_c, 11, 51, 101
13, 10644, Note_on_c, 11, 51, 0
13, 10650, Note_on_c, 11, 55, 110
13, 10674, Note_on_c, 11, 55, 0
13, 10680, Note_on_c, 11, 58, 115
13, 10704, Note_on_c, 11, 58, 0
13, 10710, Note_on_c, 11, 55, 127
13, 10734, Note_on_c, 11, 55, 0
13, 10740, Note_on_c, 11, 51, 113
13, 10764, Note_on_c, 11, 51, 0
13, 10770, Note_on_c, 11, 55, 127
13, 10794, Note_on_c, 11, 55, 0
13, 10800, Note_on_c, 11, 53, 118
13, 10824, Note_on_c, 11, 53, 0
13, 10830, Note_on_c, 11, 56, 109
13, 10854, Note_on_c, 11, 56, 0
13, 10860, Note_on_c, 11, 53, 118
13, 10884, Note_on_c, 11, 53, 0
13, 10890, Note_on_c, 11, 56, 101
13, 10914, Note_on_c, 11, 56, 0
13, 10920, Note_on_c, 11, 53, 110
13, 10944, Note_on_c, 11, 53, 0
13, 10950, Note_on_c, 11, 56, 105
13, 10974, Note_on_c, 11, 56, 0
13, 10980, Note_on_c, 11, 53, 120
13, 11004, Note_on_c, 11, 53, 0
13, 11010, Note_on_c, 11, 56, 103
13, 11034, Note_on_c, 11, 56, 0
13, 11040, Note_on_c, 11, 58, 107
13, 11064, Note_on_c, 11, 58, 0
13, 11070, Note_on_c, 11, 56, 107
13, 11094, Note_on_c, 11, 56, 0
13, 11100, Note_on_c, 11, 53, 127
13, 11124, Note_on_c, 11, 53, 0
13, 11130, Note_on_c, 11, 56, 118
13, 11154, Note_on_c, 11, 56, 0
13, 11160, Note_on_c, 11, 51, 123
13, 11184, Note_on_c, 11, 51, 0
13, 11190, Note_on_c, 11, 58, 121
13, 11214, Note_on_c, 11, 58, 0
13, 11220, Note_on_c, 11, 51, 105
13, 11244, Note_on_c, 11, 51, 0
13, 11250, Note_on_c, 11, 58, 105
13, 11274, Note_on_c, 11, 58, 0
13, 11280, Note_on_c, 11, 51, 118
13, 11304, Note_on_c, 11, 51, 0
13, 11310, Note_on_c, 11, 58, 101
13, 11334, Note_on_c, 11, 58, 0
13, 11340, Note_on_c, 11, 51, 92
13, 11364, Note_on_c, 11, 51, 0
13, 11370, Note_on_c, 11, 58, 105
13, 11394, Note_on_c, 11, 58, 0
13, 11400, Note_on_c, 11, 63, 121
13, 11424, Note_on_c, 11, 63, 0
13, 11430, Note_on_c, 11, 58, 123
13, 11454, Note_on_c, 11, 58, 0
13, 11460, Note_on_c, 11, 51, 115
13, 11484, Note_on_c, 11, 51, 0
13, 11490, Note_on_c, 11, 58, 74
13, 11514, Note_on_c, 11, 58, 0
13, 11520, Note_on_c, 11, 51, 113
13, 11544, Note_on_c, 11, 51, 0
13, 11550, Note_on_c, 11, 60, 117
13, 11574, Note_on_c, 11, 60, 0
13, 11580, Note_on_c, 11, 51, 109
13, 11604, Note_on_c, 11, 51, 0
13, 11610, Note_on_c, 11, 60, 118
13, 11634, Note_on_c, 11, 60, 0
13, 11640, Note_on_c, 11, 51, 107
13, 11664, Note_on_c, 11, 51, 0
13, 11670, Note_on_c, 11, 60, 121
13, 11694, Note_on_c, 11, 60, 0
13, 11700, Note_on_c, 11, 53, 127
13, 11724, Note_on_c, 11, 53, 0
13, 11730, Note_on_c, 11, 60, 127
13, 11754, Note_on_c, 11, 60, 0
13, 11760, Note_on_c, 11, 53, 121
13, 11784, Note_on_c, 11, 53, 0
13, 11790, Note_on_c, 11, 60, 121
13, 11814, Note_on_c, 11, 60, 0
13, 11820, Note_on_c, 11, 53, 116
13, 11844, Note_on_c, 11, 53, 0
13, 11850, Note_on_c, 11, 60, 125
13, 11874, Note_on_c, 11, 60, 0
13, 11880, Note_on_c, 11, 58, 113
13, 11904, Note_on_c, 11, 58, 0
13, 11910, Note_on_c, 11, 53, 121
13, 11934, Note_on_c, 11, 53, 0
13, 11940, Note_on_c, 11, 58, 115
13, 11964, Note_on_c, 11, 58, 0
13, 11970, Note_on_c, 11, 53, 117
13, 11994, Note_on_c, 11, 53, 0
13, 12000, Note_on_c, 11, 62, 118
13, 12024, Note_on_c, 11, 62, 0
13, 12030, Note_on_c, 11, 58, 118
13, 12054, Note_on_c, 11, 58, 0
13, 12060, Note_on_c, 11, 63, 121
13, 12084, Note_on_c, 11, 63, 0
13, 12090, Note_on_c, 11, 58, 123
13, 12114, Note_on_c, 11, 58, 0
13, 12120, Note_on_c, 11, 56, 118
13, 12144, Note_on_c, 11, 56, 0
13, 12150, Note_on_c, 11, 58, 118
13, 12174, Note_on_c, 11, 58, 0
13, 12180, Note_on_c, 11, 55, 121
13, 12204, Note_on_c, 11, 55, 0
13, 12210, Note_on_c, 11, 58, 113
13, 12234, Note_on_c, 11, 58, 0
13, 12240, Note_on_c, 11, 68, 121
13, 12336, Note_on_c, 11, 68, 0
13, 12420, Note_on_c, 11, 70, 96
13, 12420, Note_on_c, 11, 58, 100
13, 12516, Note_on_c, 11, 58, 0
13, 12516, Note_on_c, 11, 70, 0
13, 12600, Note_on_c, 11, 51, 93
13, 12600, Note_on_c, 11, 67, 117
13, 12600, Note_on_c, 11, 58, 96
13, 12696, Note_on_c, 11, 58, 0
13, 12696, Note_on_c, 11, 67, 0
13, 12696, Note_on_c, 11, 51, 0
13, 12990, Note_on_c, 11, 51, 115
13, 13014, Note_on_c, 11, 51, 0
13, 13020, Note_on_c, 11, 53, 127
13, 13044, Note_on_c, 11, 53, 0
13, 13050, Note_on_c, 11, 55, 112
13, 13074, Note_on_c, 11, 55, 0
13, 13080, Note_on_c, 11, 56, 111
13, 13104, Note_on_c, 11, 56, 0
13, 13110, Note_on_c, 11, 58, 88
13, 13134, Note_on_c, 11, 58, 0
13, 13140, Note_on_c, 11, 60, 127
13, 13164, Note_on_c, 11, 60, 0
13, 13170, Note_on_c, 11, 59, 121
13, 13194, Note_on_c, 11, 59, 0
13, 13200, Note_on_c, 11, 60, 127
13, 13224, Note_on_c, 11, 60, 0
13, 13230, Note_on_c, 11, 62, 105
13, 13254, Note_on_c, 11, 62, 0
13, 13260, Note_on_c, 11, 63, 107
13, 13284, Note_on_c, 11, 63, 0
13, 13290, Note_on_c, 11, 60, 127
13, 13314, Note_on_c, 11, 60, 0
13, 13320, Note_on_c, 11, 58, 111
13, 13416, Note_on_c, 11, 58, 0
13, 13680, Note_on_c, 11, 56, 127
13, 13704, Note_on_c, 11, 56, 0
13, 13710, Note_on_c, 11, 58, 113
13, 13734, Note_on_c, 11, 58, 0
13, 13740, Note_on_c, 11, 56, 127
13, 13764, Note_on_c, 11, 56, 0
13, 13770, Note_on_c, 11, 58, 111
13, 13794, Note_on_c, 11, 58, 0
13, 13800, Note_on_c, 11, 56, 123
13, 13824, Note_on_c, 11, 56, 0
13, 13830, Note_on_c, 11, 58, 109
13, 13854, Note_on_c, 11, 58, 0
13, 13860, Note_on_c, 11, 56, 127
13, 13884, Note_on_c, 11, 56, 0
13, 13890, Note_on_c, 11, 58, 118
13, 13914, Note_on_c, 11, 58, 0
13, 13920, Note_on_c, 11, 56, 123
13, 13944, Note_on_c, 11, 56, 0
13, 13950, Note_on_c, 11, 58, 111
13, 13974, Note_on_c, 11, 58, 0
13, 13980, Note_on_c, 11, 56, 127
13, 14004, Note_on_c, 11, 56, 0
13, 14010, Note_on_c, 11, 58, 121
13, 14034, Note_on_c, 11, 58, 0
13, 14040, Note_on_c, 11, 51, 97
13, 14040, Note_on_c, 11, 55, 127
13, 14136, Note_on_c, 11, 55, 0
13, 14136, Note_on_c, 11, 51, 0
13, 14400, Note_on_c, 11, 63, 127
13, 14496, Note_on_c, 11, 63, 0
13, 14760, Note_on_c, 11, 51, 113
13, 14856, Note_on_c, 11, 51, 0
13, 19075, Control_c, 11, 7, 87
13, 19200, Note_on_c, 11, 65, 97
13, 19248, Note_on_c, 11, 65, 0
13, 19260, Note_on_c, 11, 58, 90
13, 19356, Note_on_c, 11, 58, 0
13, 19440, Control_c, 11, 7, 81
13, 19920, Note_on_c, 11, 51, 77
13, 19968, Note_on_c, 11, 51, 0
13, 19980, Note_on_c, 11, 56, 92
13, 20076, Note_on_c, 11, 56, 0
13, 21960, Note_on_c, 11, 51, 109
13, 21960, Control_c, 11, 7, 119
13, 22104, Note_on_c, 11, 51, 0
13, 22140, Note_on_c, 11, 51, 121
13, 22188, Note_on_c, 11, 51, 0
13, 22200, Note_on_c, 11, 56, 121
13, 22224, Note_on_c, 11, 56, 0
13, 22230, Note_on_c, 11, 56, 121
13, 22254, Note_on_c, 11, 56, 0
13, 22260, Note_on_c, 11, 55, 127
13, 22284, Note_on_c, 11, 55, 0
13, 22290, Note_on_c, 11, 55, 125
13, 22314, Note_on_c, 11, 55, 0
13, 22320, Note_on_c, 11, 55, 127
13, 22344, Note_on_c, 11, 55, 0
13, 22350, Note_on_c, 11, 55, 118
13, 22374, Note_on_c, 11, 55, 0
13, 22380, Note_on_c, 11, 55, 109
13, 22404, Note_on_c, 11, 55, 0
13, 22410, Note_on_c, 11, 55, 113
13, 22434, Note_on_c, 11, 55, 0
13, 22440, Note_on_c, 11, 55, 127
13, 22464, Note_on_c, 11, 55, 0
13, 22470, Note_on_c, 11, 55, 123
13, 22494, Note_on_c, 11, 55, 0
13, 22500, Note_on_c, 11, 60, 127
13, 22524, Note_on_c, 11, 60, 0
13, 22530, Note_on_c, 11, 60, 127
13, 22554, Note_on_c, 11, 60, 0
13, 22560, Note_on_c, 11, 58, 115
13, 22584, Note_on_c, 11, 58, 0
13, 22590, Note_on_c, 11, 58, 113
13, 22614, Note_on_c, 11, 58, 0
13, 22620, Note_on_c, 11, 57, 127
13, 22644, Note_on_c, 11, 57, 0
13, 22650, Note_on_c, 11, 57, 127
13, 22674, Note_on_c, 11, 57, 0
13, 22680, Note_on_c, 11, 55, 127
13, 22704, Note_on_c, 11, 55, 0
13, 22710, Note_on_c, 11, 55, 127
13, 22734, Note_on_c, 11, 55, 0
13, 22740, Note_on_c, 11, 53, 110
13, 22764, Note_on_c, 11, 53, 0
13, 22770, Note_on_c, 11, 53, 125
13, 22794, Note_on_c, 11, 53, 0
13, 22800, Note_on_c, 11, 65, 121
13, 22824, Note_on_c, 11, 65, 0
13, 22830, Note_on_c, 11, 65, 121
13, 22854, Note_on_c, 11, 65, 0
13, 22860, Note_on_c, 11, 65, 127
13, 22884, Note_on_c, 11, 65, 0
13, 22890, Note_on_c, 11, 65, 127
13, 22914, Note_on_c, 11, 65, 0
13, 22920, Note_on_c, 11, 58, 115
13, 22944, Note_on_c, 11, 58, 0
13, 22950, Note_on_c, 11, 58, 107
13, 22974, Note_on_c, 11, 58, 0
13, 22980, Note_on_c, 11, 57, 125
13, 23004, Note_on_c, 11, 57, 0
13, 23010, Note_on_c, 11, 57, 127
13, 23034, Note_on_c, 11, 57, 0
13, 23040, Note_on_c, 11, 57, 125
13, 23040, Note_on_c, 11, 53, 112
13, 23136, Note_on_c, 11, 53, 0
13, 23136, Note_on_c, 11, 57, 0
13, 23760, Note_on_c, 11, 56, 109
13, 23760, Note_on_c, 11, 53, 127
13, 23856, Note_on_c, 11, 53, 0
13, 23856, Note_on_c, 11, 56, 0
13, 24480, Note_on_c, 11, 55, 127
13, 24480, Control_c, 11, 7, 89
13, 24576, Note_on_c, 11, 55, 0
13, 27720, Note_on_c, 11, 58, 107
13, 28368, Note_on_c, 11, 58, 0
13, 28440, Note_on_c, 11, 58, 101
13, 29088, Note_on_c, 11, 58, 0
13, 29160, Note_on_c, 11, 58, 101
13, 29808, Note_on_c, 11, 58, 0
13, 29875, Control_c, 11, 7, 86
13, 29880, Note_on_c, 11, 58, 103
13, 29905, Control_c, 11, 7, 87
13, 29930, Control_c, 11, 7, 88
13, 29955, Control_c, 11, 7, 89
13, 29976, Note_on_c, 11, 58, 0
13, 29980, Control_c, 11, 7, 90
13, 30000, Note_on_c, 11, 58, 107
13, 30005, Control_c, 11, 7, 91
13, 30035, Control_c, 11, 7, 92
13, 30048, Note_on_c, 11, 58, 0
13, 30060, Note_on_c, 11, 58, 107
13, 30060, Control_c, 11, 7, 93
13, 30085, Control_c, 11, 7, 94
13, 30110, Control_c, 11, 7, 95
13, 30135, Control_c, 11, 7, 96
13, 30156, Note_on_c, 11, 58, 0
13, 30160, Control_c, 11, 7, 97
13, 30180, Note_on_c, 11, 58, 109
13, 30190, Control_c, 11, 7, 98
13, 30215, Control_c, 11, 7, 99
13, 30228, Note_on_c, 11, 58, 0
13, 30240, Note_on_c, 11, 58, 103
13, 30240, Control_c, 11, 7, 100
13, 30265, Control_c, 11, 7, 101
13, 30290, Control_c, 11, 7, 102
13, 30320, Control_c, 11, 7, 103
13, 30336, Note_on_c, 11, 58, 0
13, 30345, Control_c, 11, 7, 104
13, 30360, Note_on_c, 11, 58, 107
13, 30370, Control_c, 11, 7, 105
13, 30395, Control_c, 11, 7, 106
13, 30408, Note_on_c, 11, 58, 0
13, 30420, Note_on_c, 11, 58, 109
13, 30420, Control_c, 11, 7, 107
13, 30445, Control_c, 11, 7, 108
13, 30475, Control_c, 11, 7, 109
13, 30500, Control_c, 11, 7, 110
13, 30516, Note_on_c, 11, 58, 0
13, 30525, Control_c, 11, 7, 111
13, 30540, Note_on_c, 11, 58, 113
13, 30550, Control_c, 11, 7, 112
13, 30575, Control_c, 11, 7, 113
13, 30588, Note_on_c, 11, 58, 0
13, 30600, Note_on_c, 11, 62, 127
13, 30600, Note_on_c, 11, 58, 103
13, 30600, Control_c, 11, 7, 114
13, 30696, Note_on_c, 11, 58, 0
13, 30696, Note_on_c, 11, 62, 0
13, 38160, Control_c, 11, 7, 85
13, 38460, Note_on_c, 11, 55, 114
13, 38508, Note_on_c, 11, 55, 0
13, 38520, Note_on_c, 11, 53, 114
13, 38616, Note_on_c, 11, 53, 0
13, 38640, Note_on_c, 11, 53, 125
13, 38688, Note_on_c, 11, 53, 0
13, 38700, Note_on_c, 11, 53, 103
13, 38772, Note_on_c, 11, 53, 0
13, 38790, Note_on_c, 11, 51, 97
13, 38838, Note_on_c, 11, 51, 0
13, 38850, Note_on_c, 11, 50, 127
13, 38880, Note_on_c, 11, 51, 106
13, 38946, Note_on_c, 11, 50, 0
13, 38976, Note_on_c, 11, 51, 0
13, 39000, Note_on_c, 11, 51, 109
13, 39048, Note_on_c, 11, 51, 0
13, 39060, Note_on_c, 11, 51, 123
13, 39156, Note_on_c, 11, 51, 0
13, 40620, Note_on_c, 11, 58, 107
13, 40680, Note_on_c, 11, 57, 127
13, 40716, Note_on_c, 11, 58, 0
13, 40776, Note_on_c, 11, 57, 0
13, 40800, Note_on_c, 11, 57, 127
13, 40848, Note_on_c, 11, 57, 0
13, 40860, Note_on_c, 11, 57, 125
13, 40932, Note_on_c, 11, 57, 0
13, 40950, Note_on_c, 11, 58, 115
13, 40974, Note_on_c, 11, 58, 0
13, 40980, Note_on_c, 11, 60, 127
13, 41028, Note_on_c, 11, 60, 0
13, 41040, Note_on_c, 11, 60, 127
13, 41088, Note_on_c, 11, 60, 0
13, 41100, Note_on_c, 11, 61, 115
13, 41148, Note_on_c, 11, 61, 0
13, 41160, Note_on_c, 11, 58, 115
13, 41208, Note_on_c, 11, 58, 0
13, 41220, Note_on_c, 11, 58, 121
13, 41316, Note_on_c, 11, 58, 0
13, 42780, Note_on_c, 11, 60, 127
13, 42780, Control_c, 11, 7, 114
13, 42828, Note_on_c, 11, 60, 0
13, 42840, Note_on_c, 11, 59, 127
13, 42936, Note_on_c, 11, 59, 0
13, 42960, Note_on_c, 11, 59, 127
13, 43008, Note_on_c, 11, 59, 0
13, 43020, Note_on_c, 11, 59, 127
13, 43092, Note_on_c, 11, 59, 0
13, 43110, Note_on_c, 11, 60, 127
13, 43134, Note_on_c, 11, 60, 0
13, 43140, Note_on_c, 11, 62, 127
13, 43188, Note_on_c, 11, 62, 0
13, 43200, Note_on_c, 11, 63, 127
13, 43296, Note_on_c, 11, 63, 0
13, 43320, Note_on_c, 11, 60, 127
13, 43368, Note_on_c, 11, 60, 0
13, 43380, Note_on_c, 11, 60, 127
13, 43452, Note_on_c, 11, 60, 0
13, 43470, Note_on_c, 11, 62, 127
13, 43494, Note_on_c, 11, 62, 0
13, 43500, Note_on_c, 11, 63, 127
13, 43548, Note_on_c, 11, 63, 0
13, 43560, Note_on_c, 11, 65, 127
13, 43656, Note_on_c, 11, 65, 0
13, 43680, Note_on_c, 11, 62, 127
13, 43728, Note_on_c, 11, 62, 0
13, 43740, Note_on_c, 11, 62, 127
13, 43812, Note_on_c, 11, 62, 0
13, 43830, Note_on_c, 11, 63, 127
13, 43854, Note_on_c, 11, 63, 0
13, 43860, Note_on_c, 11, 65, 127
13, 43908, Note_on_c, 11, 65, 0
13, 43920, Note_on_c, 11, 67, 127
13, 44016, Note_on_c, 11, 67, 0
13, 52200, Control_c, 11, 7, 86
13, 52380, Note_on_c, 11, 48, 109
13, 52404, Note_on_c, 11, 48, 0
13, 52410, Note_on_c, 11, 60, 110
13, 52434, Note_on_c, 11, 60, 0
13, 52440, Note_on_c, 11, 60, 123
13, 52536, Note_on_c, 11, 60, 0
13, 53820, Note_on_c, 11, 48, 79
13, 53844, Note_on_c, 11, 48, 0
13, 53850, Note_on_c, 11, 60, 127
13, 53874, Note_on_c, 11, 60, 0
13, 53880, Note_on_c, 11, 60, 107
13, 53976, Note_on_c, 11, 60, 0
13, 55050, Control_c, 11, 7, 127
13, 55080, Note_on_c, 11, 60, 127
13, 55080, Note_on_c, 11, 48, 127
13, 55152, Note_on_c, 11, 48, 0
13, 55152, Note_on_c, 11, 60, 0
13, 55170, Note_on_c, 11, 60, 127
13, 55170, Note_on_c, 11, 48, 127
13, 55194, Note_on_c, 11, 48, 0
13, 55194, Note_on_c, 11, 60, 0
13, 55200, Note_on_c, 11, 60, 127
13, 55200, Note_on_c, 11, 48, 127
13, 55248, Note_on_c, 11, 48, 0
13, 55248, Note_on_c, 11, 60, 0
13, 55260, Note_on_c, 11, 60, 127
13, 55260, Note_on_c, 11, 48, 127
13, 55308, Note_on_c, 11, 48, 0
13, 55308, Note_on_c, 11, 60, 0
13, 55320, Note_on_c, 11, 60, 127
13, 55320, Note_on_c, 11, 48, 127
13, 55368, Note_on_c, 11, 48, 0
13, 55368, Note_on_c, 11, 60, 0
13, 55380, Note_on_c, 11, 60, 127
13, 55380, Note_on_c, 11, 48, 127
13, 55428, Note_on_c, 11, 48, 0
13, 55428, Note_on_c, 11, 60, 0
13, 55440, Note_on_c, 11, 60, 127
13, 55440, Note_on_c, 11, 48, 127
13, 55728, Note_on_c, 11, 48, 0
13, 55728, Note_on_c, 11, 60, 0
13, 55800, Note_on_c, 11, 55, 127
13, 55896, Note_on_c, 11, 55, 0
13, 56160, Note_on_c, 11, 50, 127
13, 56184, Note_on_c, 11, 50, 0
13, 56190, Note_on_c, 11, 49, 126
13, 56214, Note_on_c, 11, 49, 0
13, 56220, Note_on_c, 11, 50, 127
13, 56244, Note_on_c, 11, 50, 0
13, 56250, Note_on_c, 11, 49, 124
13, 56274, Note_on_c, 11, 49, 0
13, 56280, Note_on_c, 11, 50, 127
13, 56304, Note_on_c, 11, 50, 0
13, 56310, Note_on_c, 11, 52, 127
13, 56334, Note_on_c, 11, 52, 0
13, 56340, Note_on_c, 11, 53, 127
13, 56364, Note_on_c, 11, 53, 0
13, 56370, Note_on_c, 11, 55, 127
13, 56394, Note_on_c, 11, 55, 0
13, 56400, Note_on_c, 11, 53, 127
13, 56424, Note_on_c, 11, 53, 0
13, 56430, Note_on_c, 11, 55, 127
13, 56454, Note_on_c, 11, 55, 0
13, 56460, Note_on_c, 11, 53, 127
13, 56484, Note_on_c, 11, 53, 0
13, 56490, Note_on_c, 11, 55, 127
13, 56514, Note_on_c, 11, 55, 0
13, 56520, Note_on_c, 11, 60, 127
13, 56520, Note_on_c, 11, 48, 127
13, 56592, Note_on_c, 11, 48, 0
13, 56592, Note_on_c, 11, 60, 0
13, 56610, Note_on_c, 11, 60, 127
13, 56610, Note_on_c, 11, 48, 127
13, 56634, Note_on_c, 11, 48, 0
13, 56634, Note_on_c, 11, 60, 0
13, 56640, Note_on_c, 11, 60, 124
13, 56640, Note_on_c, 11, 48, 126
13, 56688, Note_on_c, 11, 48, 0
13, 56688, Note_on_c, 11, 60, 0
13, 56700, Note_on_c, 11, 60, 127
13, 56700, Note_on_c, 11, 48, 127
13, 56748, Note_on_c, 11, 48, 0
13, 56748, Note_on_c, 11, 60, 0
13, 56760, Note_on_c, 11, 60, 127
13, 56760, Note_on_c, 11, 48, 127
13, 56808, Note_on_c, 11, 48, 0
13, 56808, Note_on_c, 11, 60, 0
13, 56820, Note_on_c, 11, 60, 127
13, 56820, Note_on_c, 11, 48, 127
13, 56868, Note_on_c, 11, 48, 0
13, 56868, Note_on_c, 11, 60, 0
13, 56880, Note_on_c, 11, 60, 125
13, 56880, Note_on_c, 11, 48, 124
13, 56952, Note_on_c, 11, 48, 0
13, 56952, Note_on_c, 11, 60, 0
13, 56970, Note_on_c, 11, 48, 127
13, 56970, Note_on_c, 11, 60, 125
13, 56994, Note_on_c, 11, 60, 0
13, 56994, Note_on_c, 11, 48, 0
13, 57000, Note_on_c, 11, 60, 127
13, 57000, Note_on_c, 11, 48, 127
13, 57048, Note_on_c, 11, 48, 0
13, 57048, Note_on_c, 11, 60, 0
13, 57060, Note_on_c, 11, 60, 127
13, 57060, Note_on_c, 11, 48, 127
13, 57108, Note_on_c, 11, 48, 0
13, 57108, Note_on_c, 11, 60, 0
13, 57120, Note_on_c, 11, 60, 127
13, 57120, Note_on_c, 11, 48, 127
13, 57168, Note_on_c, 11, 48, 0
13, 57168, Note_on_c, 11, 60, 0
13, 57180, Note_on_c, 11, 60, 127
13, 57180, Note_on_c, 11, 48, 122
13, 57228, Note_on_c, 11, 48, 0
13, 57228, Note_on_c, 11, 60, 0
13, 59630, Control_c, 11, 7, 84
13, 59700, Note_on_c, 11, 58, 68
13, 59748, Note_on_c, 11, 58, 0
13, 59760, Note_on_c, 11, 56, 71
13, 59808, Note_on_c, 11, 56, 0
13, 59820, Note_on_c, 11, 56, 67
13, 59868, Note_on_c, 11, 56, 0
13, 59940, Note_on_c, 11, 56, 69
13, 59988, Note_on_c, 11, 56, 0
13, 60000, Note_on_c, 11, 56, 76
13, 60048, Note_on_c, 11, 56, 0
13, 60120, Note_on_c, 11, 56, 68
13, 60168, Note_on_c, 11, 56, 0
13, 60180, Note_on_c, 11, 56, 76
13, 60228, Note_on_c, 11, 56, 0
13, 60300, Note_on_c, 11, 56, 68
13, 60348, Note_on_c, 11, 56, 0
13, 60360, Note_on_c, 11, 56, 76
13, 60408, Note_on_c, 11, 56, 0
13, 60480, Note_on_c, 11, 56, 68
13, 60528, Note_on_c, 11, 56, 0
13, 60540, Note_on_c, 11, 56, 76
13, 60588, Note_on_c, 11, 56, 0
13, 60660, Note_on_c, 11, 56, 69
13, 60708, Note_on_c, 11, 56, 0
13, 60720, Note_on_c, 11, 56, 71
13, 60768, Note_on_c, 11, 56, 0
13, 60840, Note_on_c, 11, 56, 69
13, 60888, Note_on_c, 11, 56, 0
13, 60900, Note_on_c, 11, 56, 73
13, 60948, Note_on_c, 11, 56, 0
13, 61020, Note_on_c, 11, 56, 71
13, 61068, Note_on_c, 11, 56, 0
13, 61080, Note_on_c, 11, 56, 74
13, 61128, Note_on_c, 11, 56, 0
13, 61200, Note_on_c, 11, 56, 68
13, 61248, Note_on_c, 11, 56, 0
13, 61260, Note_on_c, 11, 56, 74
13, 61308, Note_on_c, 11, 56, 0
13, 61380, Note_on_c, 11, 56, 69
13, 61428, Note_on_c, 11, 56, 0
13, 61440, Note_on_c, 11, 56, 65
13, 61488, Note_on_c, 11, 56, 0
13, 61560, Note_on_c, 11, 51, 68
13, 61560, Note_on_c, 11, 55, 76
13, 61608, Note_on_c, 11, 55, 0
13, 61608, Note_on_c, 11, 51, 0
13, 61620, Note_on_c, 11, 51, 67
13, 61620, Note_on_c, 11, 55, 76
13, 61668, Note_on_c, 11, 55, 0
13, 61668, Note_on_c, 11, 51, 0
13, 61740, Note_on_c, 11, 51, 61
13, 61740, Note_on_c, 11, 55, 74
13, 61788, Note_on_c, 11, 55, 0
13, 61788, Note_on_c, 11, 51, 0
13, 61800, Note_on_c, 11, 51, 59
13, 61800, Note_on_c, 11, 55, 74
13, 61848, Note_on_c, 11, 55, 0
13, 61848, Note_on_c, 11, 51, 0
13, 63180, Note_on_c, 11, 51, 65
13, 63204, Note_on_c, 11, 51, 0
13, 63210, Note_on_c, 11, 63, 71
13, 63234, Note_on_c, 11, 63, 0
13, 63240, Note_on_c, 11, 63, 73
13, 63336, Note_on_c, 11, 63, 0
13, 64620, Note_on_c, 11, 51, 65
13, 64644, Note_on_c, 11, 51, 0
13, 64650, Note_on_c, 11, 63, 73
13, 64674, Note_on_c, 11, 63, 0
13, 64680, Note_on_c, 11, 63, 74
13, 64776, Note_on_c, 11, 63, 0
13, 64785, Control_c, 11, 7, 124
13, 64800, Note_on_c, 11, 51, 95
13, 64800, Note_on_c, 11, 60, 127
13, 64896, Note_on_c, 11, 60, 0
13, 64896, Note_on_c, 11, 51, 0
13, 65190, Note_on_c, 11, 56, 115
13, 65214, Note_on_c, 11, 56, 0
13, 65220, Note_on_c, 11, 58, 126
13, 65244, Note_on_c, 11, 58, 0
13, 65250, Note_on_c, 11, 60, 127
13, 65274, Note_on_c, 11, 60, 0
13, 65280, Note_on_c, 11, 61, 113
13, 65304, Note_on_c, 11, 61, 0
13, 65310, Note_on_c, 11, 62, 116
13, 65334, Note_on_c, 11, 62, 0
13, 65340, Note_on_c, 11, 63, 118
13, 65364, Note_on_c, 11, 63, 0
13, 65370, Note_on_c, 11, 62, 125
13, 65394, Note_on_c, 11, 62, 0
13, 65400, Note_on_c, 11, 63, 115
13, 65424, Note_on_c, 11, 63, 0
13, 65430, Note_on_c, 11, 65, 127
13, 65454, Note_on_c, 11, 65, 0
13, 65460, Note_on_c, 11, 67, 127
13, 65484, Note_on_c, 11, 67, 0
13, 65490, Note_on_c, 11, 65, 109
13, 65514, Note_on_c, 11, 65, 0
13, 65520, Note_on_c, 11, 63, 118
13, 65616, Note_on_c, 11, 63, 0
13, 65880, Note_on_c, 11, 58, 118
13, 65880, Note_on_c, 11, 55, 113
13, 65904, Note_on_c, 11, 55, 0
13, 65904, Note_on_c, 11, 58, 0
13, 65910, Note_on_c, 11, 61, 111
13, 65910, Note_on_c, 11, 58, 111
13, 65934, Note_on_c, 11, 58, 0
13, 65934, Note_on_c, 11, 61, 0
13, 65940, Note_on_c, 11, 58, 107
13, 65940, Note_on_c, 11, 55, 120
13, 65964, Note_on_c, 11, 55, 0
13, 65964, Note_on_c, 11, 58, 0
13, 65970, Note_on_c, 11, 61, 101
13, 65970, Note_on_c, 11, 58, 113
13, 65994, Note_on_c, 11, 58, 0
13, 65994, Note_on_c, 11, 61, 0
13, 66000, Note_on_c, 11, 55, 105
13, 66000, Note_on_c, 11, 58, 97
13, 66024, Note_on_c, 11, 58, 0
13, 66024, Note_on_c, 11, 55, 0
13, 66030, Note_on_c, 11, 61, 92
13, 66054, Note_on_c, 11, 61, 0
13, 66060, Note_on_c, 11, 58, 107
13, 66060, Note_on_c, 11, 55, 120
13, 66084, Note_on_c, 11, 55, 0
13, 66084, Note_on_c, 11, 58, 0
13, 66090, Note_on_c, 11, 54, 107
13, 66090, Note_on_c, 11, 57, 125
13, 66114, Note_on_c, 11, 57, 0
13, 66114, Note_on_c, 11, 54, 0
13, 66120, Note_on_c, 11, 58, 105
13, 66120, Note_on_c, 11, 55, 118
13, 66144, Note_on_c, 11, 55, 0
13, 66144, Note_on_c, 11, 58, 0
13, 66150, Note_on_c, 11, 56, 101
13, 66150, Note_on_c, 11, 60, 120
13, 66174, Note_on_c, 11, 60, 0
13, 66174, Note_on_c, 11, 56, 0
13, 66180, Note_on_c, 11, 62, 100
13, 66180, Note_on_c, 11, 58, 83
13, 66204, Note_on_c, 11, 58, 0
13, 66204, Note_on_c, 11, 62, 0
13, 66210, Note_on_c, 11, 58, 92
13, 66210, Note_on_c, 11, 55, 104
13, 66234, Note_on_c, 11, 55, 0
13, 66234, Note_on_c, 11, 58, 0
13, 66240, Note_on_c, 11, 56, 97
13, 66240, Note_on_c, 11, 48, 117
13, 66336, Note_on_c, 11, 48, 0
13, 66336, Note_on_c, 11, 56, 0
13, 66600, Note_on_c, 11, 56, 127
13, 66696, Note_on_c, 11, 56, 0
13, 69775, Control_c, 11, 7, 82
13, 69780, Note_on_c, 11, 59, 114
13, 69828, Note_on_c, 11, 59, 0
13, 69840, Note_on_c, 11, 59, 127
13, 69888, Note_on_c, 11, 59, 0
13, 69900, Note_on_c, 11, 59, 127
13, 69948, Note_on_c, 11, 59, 0
13, 70020, Note_on_c, 11, 56, 100
13, 70020, Note_on_c, 11, 59, 127
13, 70068, Note_on_c, 11, 59, 0
13, 70068, Note_on_c, 11, 56, 0
13, 70080, Note_on_c, 11, 56, 99
13, 70080, Note_on_c, 11, 59, 127
13, 70128, Note_on_c, 11, 59, 0
13, 70128, Note_on_c, 11, 56, 0
13, 70200, Note_on_c, 11, 56, 111
13, 70200, Note_on_c, 11, 59, 127
13, 70248, Note_on_c, 11, 59, 0
13, 70248, Note_on_c, 11, 56, 0
13, 70260, Note_on_c, 11, 56, 105
13, 70260, Note_on_c, 11, 59, 127
13, 70308, Note_on_c, 11, 59, 0
13, 70308, Note_on_c, 11, 56, 0
13, 70380, Note_on_c, 11, 56, 107
13, 70380, Note_on_c, 11, 59, 127
13, 70428, Note_on_c, 11, 59, 0
13, 70428, Note_on_c, 11, 56, 0
13, 70440, Note_on_c, 11, 56, 113
13, 70440, Note_on_c, 11, 59, 127
13, 70488, Note_on_c, 11, 59, 0
13, 70488, Note_on_c, 11, 56, 0
13, 70560, Note_on_c, 11, 61, 111
13, 70560, Note_on_c, 11, 57, 121
13, 70608, Note_on_c, 11, 57, 0
13, 70608, Note_on_c, 11, 61, 0
13, 70620, Note_on_c, 11, 61, 113
13, 70620, Note_on_c, 11, 57, 114
13, 70668, Note_on_c, 11, 57, 0
13, 70668, Note_on_c, 11, 61, 0
13, 70740, Note_on_c, 11, 61, 113
13, 70740, Note_on_c, 11, 57, 118
13, 70788, Note_on_c, 11, 57, 0
13, 70788, Note_on_c, 11, 61, 0
13, 70800, Note_on_c, 11, 61, 115
13, 70800, Note_on_c, 11, 57, 121
13, 70848, Note_on_c, 11, 57, 0
13, 70848, Note_on_c, 11, 61, 0
13, 70920, Note_on_c, 11, 61, 126
13, 70920, Note_on_c, 11, 57, 127
13, 70968, Note_on_c, 11, 57, 0
13, 70968, Note_on_c, 11, 61, 0
13, 70980, Note_on_c, 11, 61, 118
13, 70980, Note_on_c, 11, 57, 121
13, 71028, Note_on_c, 11, 57, 0
13, 71028, Note_on_c, 11, 61, 0
13, 71100, Note_on_c, 11, 61, 113
13, 71100, Note_on_c, 11, 57, 114
13, 71148, Note_on_c, 11, 57, 0
13, 71148, Note_on_c, 11, 61, 0
13, 71160, Note_on_c, 11, 61, 123
13, 71160, Note_on_c, 11, 57, 123
13, 71208, Note_on_c, 11, 57, 0
13, 71208, Note_on_c, 11, 61, 0
13, 71280, Note_on_c, 11, 59, 125
13, 71280, Note_on_c, 11, 56, 101
13, 71328, Note_on_c, 11, 56, 0
13, 71328, Note_on_c, 11, 59, 0
13, 71340, Note_on_c, 11, 56, 100
13, 71340, Note_on_c, 11, 59, 127
13, 71388, Note_on_c, 11, 59, 0
13, 71388, Note_on_c, 11, 56, 0
13, 71460, Note_on_c, 11, 56, 111
13, 71460, Note_on_c, 11, 59, 127
13, 71508, Note_on_c, 11, 59, 0
13, 71508, Note_on_c, 11, 56, 0
13, 71520, Note_on_c, 11, 56, 118
13, 71520, Note_on_c, 11, 59, 127
13, 71568, Note_on_c, 11, 59, 0
13, 71568, Note_on_c, 11, 56, 0
13, 71640, Note_on_c, 11, 61, 127
13, 71688, Note_on_c, 11, 61, 0
13, 71700, Note_on_c, 11, 61, 115
13, 71748, Note_on_c, 11, 61, 0
13, 71820, Note_on_c, 11, 61, 113
13, 71868, Note_on_c, 11, 61, 0
13, 71880, Note_on_c, 11, 61, 105
13, 71928, Note_on_c, 11, 61, 0
13, 72180, Note_on_c, 11, 52, 113
13, 72204, Note_on_c, 11, 52, 0
13, 72210, Note_on_c, 11, 64, 127
13, 72234, Note_on_c, 11, 64, 0
13, 72240, Note_on_c, 11, 64, 127
13, 72336, Note_on_c, 11, 64, 0
13, 73620, Note_on_c, 11, 52, 121
13, 73644, Note_on_c, 11, 52, 0
13, 73650, Note_on_c, 11, 64, 101
13, 73674, Note_on_c, 11, 64, 0
13, 73680, Note_on_c, 11, 64, 114
13, 73776, Note_on_c, 11, 64, 0
13, 74880, Note_on_c, 11, 52, 127
13, 74880, Control_c, 11, 7, 119
13, 74976, Note_on_c, 11, 52, 0
13, 75240, Note_on_c, 11, 61, 107
13, 75336, Note_on_c, 11, 61, 0
13, 75360, Note_on_c, 11, 52, 105
13, 75408, Note_on_c, 11, 52, 0
13, 75420, Note_on_c, 11, 57, 114
13, 75516, Note_on_c, 11, 57, 0
13, 75540, Note_on_c, 11, 52, 100
13, 75588, Note_on_c, 11, 52, 0
13, 75600, Note_on_c, 11, 56, 103
13, 75696, Note_on_c, 11, 56, 0
13, 75960, Note_on_c, 11, 51, 78
13, 75984, Note_on_c, 11, 51, 0
13, 75990, Note_on_c, 11, 59, 120
13, 76014, Note_on_c, 11, 59, 0
13, 76020, Note_on_c, 11, 51, 99
13, 76044, Note_on_c, 11, 51, 0
13, 76050, Note_on_c, 11, 59, 127
13, 76074, Note_on_c, 11, 59, 0
13, 76080, Note_on_c, 11, 51, 96
13, 76104, Note_on_c, 11, 51, 0
13, 76110, Note_on_c, 11, 59, 121
13, 76134, Note_on_c, 11, 59, 0
13, 76140, Note_on_c, 11, 51, 100
13, 76164, Note_on_c, 11, 51, 0
13, 76170, Note_on_c, 11, 59, 118
13, 76194, Note_on_c, 11, 59, 0
13, 76200, Note_on_c, 11, 51, 103
13, 76224, Note_on_c, 11, 51, 0
13, 76230, Note_on_c, 11, 59, 127
13, 76254, Note_on_c, 11, 59, 0
13, 76260, Note_on_c, 11, 51, 109
13, 76284, Note_on_c, 11, 51, 0
13, 76290, Note_on_c, 11, 59, 117
13, 76314, Note_on_c, 11, 59, 0
13, 76315, Control_c, 11, 7, 90
13, 76320, Note_on_c, 11, 52, 113
13, 76392, Note_on_c, 11, 52, 0
13, 76410, Note_on_c, 11, 52, 117
13, 76434, Note_on_c, 11, 52, 0
13, 76440, Note_on_c, 11, 52, 120
13, 76488, Note_on_c, 11, 52, 0
13, 76500, Note_on_c, 11, 52, 107
13, 76548, Note_on_c, 11, 52, 0
13, 76560, Note_on_c, 11, 52, 105
13, 76608, Note_on_c, 11, 52, 0
13, 76620, Note_on_c, 11, 52, 108
13, 76668, Note_on_c, 11, 52, 0
13, 76680, Note_on_c, 11, 52, 114
13, 76752, Note_on_c, 11, 52, 0
13, 76770, Note_on_c, 11, 52, 110
13, 76794, Note_on_c, 11, 52, 0
13, 76800, Note_on_c, 11, 52, 116
13, 76848, Note_on_c, 11, 52, 0
13, 76860, Note_on_c, 11, 52, 110
13, 76908, Note_on_c, 11, 52, 0
13, 76920, Note_on_c, 11, 52, 107
13, 76968, Note_on_c, 11, 52, 0
13, 76980, Note_on_c, 11, 52, 110
13, 77028, Note_on_c, 11, 52, 0
13, 77760, Note_on_c, 11, 50, 97
13, 77832, Note_on_c, 11, 50, 0
13, 77850, Note_on_c, 11, 50, 111
13, 77874, Note_on_c, 11, 50, 0
13, 77880, Note_on_c, 11, 50, 118
13, 77928, Note_on_c, 11, 50, 0
13, 78120, Note_on_c, 11, 48, 110
13, 78192, Note_on_c, 11, 48, 0
13, 78210, Note_on_c, 11, 48, 114
13, 78234, Note_on_c, 11, 48, 0
13, 78240, Note_on_c, 11, 48, 121
13, 78288, Note_on_c, 11, 48, 0
13, 78480, Note_on_c, 11, 53, 104
13, 78552, Note_on_c, 11, 53, 0
13, 78570, Note_on_c, 11, 53, 110
13, 78594, Note_on_c, 11, 53, 0
13, 78600, Note_on_c, 11, 53, 117
13, 78648, Note_on_c, 11, 53, 0
13, 78840, Note_on_c, 11, 50, 109
13, 78912, Note_on_c, 11, 50, 0
13, 78930, Note_on_c, 11, 50, 114
13, 78954, Note_on_c, 11, 50, 0
13, 78960, Note_on_c, 11, 50, 123
13, 79008, Note_on_c, 11, 50, 0
13, 79200, Note_on_c, 11, 53, 104
13, 79272, Note_on_c, 11, 53, 0
13, 79290, Note_on_c, 11, 53, 112
13, 79314, Note_on_c, 11, 53, 0
13, 79320, Note_on_c, 11, 53, 111
13, 79368, Note_on_c, 11, 53, 0
13, 79380, Note_on_c, 11, 53, 114
13, 79428, Note_on_c, 11, 53, 0
13, 79440, Note_on_c, 11, 53, 108
13, 79488, Note_on_c, 11, 53, 0
13, 79500, Note_on_c, 11, 53, 111
13, 79548, Note_on_c, 11, 53, 0
13, 79560, Note_on_c, 11, 53, 113
13, 79632, Note_on_c, 11, 53, 0
13, 79650, Note_on_c, 11, 53, 114
13, 79674, Note_on_c, 11, 53, 0
13, 79680, Note_on_c, 11, 53, 120
13, 79728, Note_on_c, 11, 53, 0
13, 79740, Note_on_c, 11, 53, 117
13, 79788, Note_on_c, 11, 53, 0
13, 79800, Note_on_c, 11, 53, 114
13, 79848, Note_on_c, 11, 53, 0
13, 79860, Note_on_c, 11, 53, 114
13, 79908, Note_on_c, 11, 53, 0
13, 80640, Note_on_c, 11, 53, 100
13, 80712, Note_on_c, 11, 53, 0
13, 80730, Note_on_c, 11, 53, 110
13, 80754, Note_on_c, 11, 53, 0
13, 80760, Note_on_c, 11, 53, 110
13, 80808, Note_on_c, 11, 53, 0
13, 80820, Note_on_c, 11, 53, 106
13, 80868, Note_on_c, 11, 53, 0
13, 80880, Note_on_c, 11, 53, 109
13, 80928, Note_on_c, 11, 53, 0
13, 80940, Note_on_c, 11, 53, 116
13, 80988, Note_on_c, 11, 53, 0
13, 81000, Note_on_c, 11, 53, 110
13, 81072, Note_on_c, 11, 53, 0
13, 81090, Note_on_c, 11, 53, 118
13, 81114, Note_on_c, 11, 53, 0
13, 81120, Note_on_c, 11, 53, 116
13, 81168, Note_on_c, 11, 53, 0
13, 81180, Note_on_c, 11, 53, 114
13, 81228, Note_on_c, 11, 53, 0
13, 81240, Note_on_c, 11, 53, 114
13, 81288, Note_on_c, 11, 53, 0
13, 81300, Note_on_c, 11, 53, 113
13, 81348, Note_on_c, 11, 53, 0
13, 82260, Note_on_c, 11, 53, 109
13, 82332, Note_on_c, 11, 53, 0
13, 82350, Note_on_c, 11, 53, 118
13, 82374, Note_on_c, 11, 53, 0
13, 82380, Note_on_c, 11, 53, 101
13, 82428, Note_on_c, 11, 53, 0
13, 82620, Note_on_c, 11, 53, 108
13, 82692, Note_on_c, 11, 53, 0
13, 82710, Note_on_c, 11, 53, 117
13, 82734, Note_on_c, 11, 53, 0
13, 82740, Note_on_c, 11, 53, 127
13, 82788, Note_on_c, 11, 53, 0
13, 85980, Note_on_c, 11, 55, 127
13, 85980, Note_on_c, 11, 51, 94
13, 86028, Note_on_c, 11, 51, 0
13, 86028, Note_on_c, 11, 55, 0
13, 86040, Note_on_c, 11, 55, 127
13, 86040, Note_on_c, 11, 51, 100
13, 86136, Note_on_c, 11, 51, 0
13, 86136, Note_on_c, 11, 55, 0
13, 86340, Note_on_c, 11, 58, 94
13, 86340, Note_on_c, 11, 55, 103
13, 86388, Note_on_c, 11, 55, 0
13, 86388, Note_on_c, 11, 58, 0
13, 86400, Note_on_c, 11, 58, 107
13, 86400, Note_on_c, 11, 55, 107
13, 86496, Note_on_c, 11, 55, 0
13, 86496, Note_on_c, 11, 58, 0
13, 87420, Note_on_c, 11, 55, 123
13, 87420, Note_on_c, 11, 51, 89
13, 87468, Note_on_c, 11, 51, 0
13, 87468, Note_on_c, 11, 55, 0
13, 87480, Note_on_c, 11, 55, 127
13, 87480, Note_on_c, 11, 51, 94
13, 87576, Note_on_c, 11, 51, 0
13, 87576, Note_on_c, 11, 55, 0
13, 87780, Note_on_c, 11, 58, 90
13, 87780, Note_on_c, 11, 63, 87
13, 87828, Note_on_c, 11, 63, 0
13, 87828, Note_on_c, 11, 58, 0
13, 87840, Note_on_c, 11, 58, 113
13, 87840, Note_on_c, 11, 63, 115
13, 87936, Note_on_c, 11, 63, 0
13, 87936, Note_on_c, 11, 58, 0
13, 93540, Note_on_c, 11, 62, 127
13, 93564, Note_on_c, 11, 62, 0
13, 93570, Note_on_c, 11, 61, 126
13, 93594, Note_on_c, 11, 61, 0
13, 93600, Note_on_c, 11, 61, 111
13, 93600, Control_c, 11, 7, 88
13, 93620, Control_c, 11, 7, 89
13, 93640, Control_c, 11, 7, 90
13, 93648, Note_on_c, 11, 61, 0
13, 93660, Note_on_c, 11, 61, 126
13, 93660, Control_c, 11, 7, 91
13, 93680, Control_c, 11, 7, 92
13, 93700, Control_c, 11, 7, 93
13, 93708, Note_on_c, 11, 61, 0
13, 93720, Note_on_c, 11, 60, 113
13, 93720, Control_c, 11, 7, 94
13, 93735, Control_c, 11, 7, 95
13, 93744, Note_on_c, 11, 60, 0
13, 93750, Note_on_c, 11, 59, 102
13, 93755, Control_c, 11, 7, 96
13, 93774, Note_on_c, 11, 59, 0
13, 93775, Control_c, 11, 7, 97
13, 93780, Note_on_c, 11, 59, 118
13, 93795, Control_c, 11, 7, 98
13, 93815, Control_c, 11, 7, 99
13, 93828, Note_on_c, 11, 59, 0
13, 93835, Control_c, 11, 7, 100
13, 93840, Note_on_c, 11, 59, 127
13, 93850, Control_c, 11, 7, 101
13, 93870, Control_c, 11, 7, 102
13, 93888, Note_on_c, 11, 59, 0
13, 93890, Control_c, 11, 7, 103
13, 93900, Note_on_c, 11, 58, 121
13, 93910, Control_c, 11, 7, 104
13, 93924, Note_on_c, 11, 58, 0
13, 93930, Note_on_c, 11, 57, 123
13, 93930, Control_c, 11, 7, 105
13, 93950, Control_c, 11, 7, 106
13, 93954, Note_on_c, 11, 57, 0
13, 93960, Note_on_c, 11, 57, 127
13, 93965, Control_c, 11, 7, 107
13, 93985, Control_c, 11, 7, 108
13, 94005, Control_c, 11, 7, 109
13, 94008, Note_on_c, 11, 57, 0
13, 94020, Note_on_c, 11, 57, 125
13, 94025, Control_c, 11, 7, 110
13, 94045, Control_c, 11, 7, 111
13, 94065, Control_c, 11, 7, 112
13, 94068, Note_on_c, 11, 57, 0
13, 94080, Note_on_c, 11, 56, 113
13, 94085, Control_c, 11, 7, 113
13, 94100, Control_c, 11, 7, 114
13, 94104, Note_on_c, 11, 56, 0
13, 94110, Note_on_c, 11, 55, 125
13, 94120, Control_c, 11, 7, 115
13, 94134, Note_on_c, 11, 55, 0
13, 94140, Note_on_c, 11, 55, 127
13, 94140, Control_c, 11, 7, 116
13, 94160, Control_c, 11, 7, 117
13, 94180, Control_c, 11, 7, 118
13, 94188, Note_on_c, 11, 55, 0
13, 94200, Note_on_c, 11, 55, 127
13, 94200, Control_c, 11, 7, 119
13, 94215, Control_c, 11, 7, 120
13, 94235, Control_c, 11, 7, 121
13, 94248, Note_on_c, 11, 55, 0
13, 94255, Control_c, 11, 7, 122
13, 94260, Note_on_c, 11, 53, 96
13, 94275, Control_c, 11, 7, 123
13, 94284, Note_on_c, 11, 53, 0
13, 94290, Note_on_c, 11, 51, 118
13, 94295, Control_c, 11, 7, 124
13, 94314, Note_on_c, 11, 51, 0
13, 94315, Control_c, 11, 7, 125
13, 94320, Note_on_c, 11, 55, 125
13, 94320, Note_on_c, 11, 51, 101
13, 94330, Control_c, 11, 7, 126
13, 94464, Note_on_c, 11, 51, 0
13, 94464, Note_on_c, 11, 55, 0
13, 94500, Note_on_c, 11, 51, 105
13, 94500, Note_on_c, 11, 55, 123
13, 94644, Note_on_c, 11, 55, 0
13, 94644, Note_on_c, 11, 51, 0
13, 94680, Note_on_c, 11, 55, 127
13, 94680, Note_on_c, 11, 51, 101
13, 94704, Note_on_c, 11, 51, 0
13, 94704, Note_on_c, 11, 55, 0
13, 94710, Note_on_c, 11, 51, 92
13, 94710, Note_on_c, 11, 55, 117
13, 94734, Note_on_c, 11, 55, 0
13, 94734, Note_on_c, 11, 51, 0
13, 94740, Note_on_c, 11, 55, 125
13, 94740, Note_on_c, 11, 51, 95
13, 94764, Note_on_c, 11, 51, 0
13, 94764, Note_on_c, 11, 55, 0
13, 94770, Note_on_c, 11, 51, 99
13, 94770, Note_on_c, 11, 55, 121
13, 94794, Note_on_c, 11, 55, 0
13, 94794, Note_on_c, 11, 51, 0
13, 94800, Note_on_c, 11, 55, 127
13, 94800, Note_on_c, 11, 51, 101
13, 94824, Note_on_c, 11, 51, 0
13, 94824, Note_on_c, 11, 55, 0
13, 94830, Note_on_c, 11, 51, 105
13, 94830, Note_on_c, 11, 55, 127
13, 94854, Note_on_c, 11, 55, 0
13, 94854, Note_on_c, 11, 51, 0
13, 94860, Note_on_c, 11, 51, 107
13, 94860, Note_on_c, 11, 55, 127
13, 95004, Note_on_c, 11, 55, 0
13, 95004, Note_on_c, 11, 51, 0
13, 95040, Note_on_c, 11, 53, 127
13, 95040, Note_on_c, 11, 56, 90
13, 95184, Note_on_c, 11, 56, 0
13, 95184, Note_on_c, 11, 53, 0
13, 95220, Note_on_c, 11, 55, 125
13, 95220, Note_on_c, 11, 51, 109
13, 95364, Note_on_c, 11, 51, 0
13, 95364, Note_on_c, 11, 55, 0
13, 95400, Note_on_c, 11, 50, 127
13, 95400, Note_on_c, 11, 53, 127
13, 95544, Note_on_c, 11, 53, 0
13, 95544, Note_on_c, 11, 50, 0
13, 95580, Note_on_c, 11, 50, 127
13, 95580, Note_on_c, 11, 53, 118
13, 95604, Note_on_c, 11, 53, 0
13, 95604, Note_on_c, 11, 50, 0
13, 95610, Note_on_c, 11, 50, 127
13, 95610, Note_on_c, 11, 53, 127
13, 95634, Note_on_c, 11, 53, 0
13, 95634, Note_on_c, 11, 50, 0
13, 95640, Note_on_c, 11, 58, 115
13, 95664, Note_on_c, 11, 58, 0
13, 95670, Note_on_c, 11, 56, 111
13, 95694, Note_on_c, 11, 56, 0
13, 95700, Note_on_c, 11, 55, 127
13, 95724, Note_on_c, 11, 55, 0
13, 95730, Note_on_c, 11, 53, 101
13, 95754, Note_on_c, 11, 53, 0
13, 95760, Note_on_c, 11, 55, 127
13, 95760, Note_on_c, 11, 51, 109
13, 95904, Note_on_c, 11, 51, 0
13, 95904, Note_on_c, 11, 55, 0
13, 95940, Note_on_c, 11, 51, 109
13, 95940, Note_on_c, 11, 55, 127
13, 96084, Note_on_c, 11, 55, 0
13, 96084, Note_on_c, 11, 51, 0
13, 96120, Note_on_c, 11, 55, 127
13, 96120, Note_on_c, 11, 51, 107
13, 96144, Note_on_c, 11, 51, 0
13, 96144, Note_on_c, 11, 55, 0
13, 96150, Note_on_c, 11, 55, 127
13, 96150, Note_on_c, 11, 51, 105
13, 96174, Note_on_c, 11, 51, 0
13, 96174, Note_on_c, 11, 55, 0
13, 96180, Note_on_c, 11, 55, 127
13, 96180, Note_on_c, 11, 51, 105
13, 96204, Note_on_c, 11, 51, 0
13, 96204, Note_on_c, 11, 55, 0
13, 96210, Note_on_c, 11, 55, 121
13, 96210, Note_on_c, 11, 51, 107
13, 96234, Note_on_c, 11, 51, 0
13, 96234, Note_on_c, 11, 55, 0
13, 96240, Note_on_c, 11, 55, 127
13, 96240, Note_on_c, 11, 51, 105
13, 96264, Note_on_c, 11, 51, 0
13, 96264, Note_on_c, 11, 55, 0
13, 96270, Note_on_c, 11, 51, 111
13, 96270, Note_on_c, 11, 55, 127
13, 96294, Note_on_c, 11, 55, 0
13, 96294, Note_on_c, 11, 51, 0
13, 96300, Note_on_c, 11, 51, 111
13, 96300, Note_on_c, 11, 55, 125
13, 96444, Note_on_c, 11, 55, 0
13, 96444, Note_on_c, 11, 51, 0
13, 96480, Note_on_c, 11, 50, 127
13, 96480, Note_on_c, 11, 53, 123
13, 96576, Note_on_c, 11, 53, 0
13, 96576, Note_on_c, 11, 50, 0
13, 96600, Note_on_c, 11, 53, 123
13, 96600, Note_on_c, 11, 56, 88
13, 96624, Note_on_c, 11, 56, 0
13, 96624, Note_on_c, 11, 53, 0
13, 96630, Note_on_c, 11, 53, 127
13, 96630, Note_on_c, 11, 56, 109
13, 96654, Note_on_c, 11, 56, 0
13, 96654, Note_on_c, 11, 53, 0
13, 96660, Note_on_c, 11, 51, 107
13, 96660, Note_on_c, 11, 55, 117
13, 96804, Note_on_c, 11, 55, 0
13, 96804, Note_on_c, 11, 51, 0
13, 96840, Note_on_c, 11, 50, 127
13, 96840, Note_on_c, 11, 53, 120
13, 96984, Note_on_c, 11, 53, 0
13, 96984, Note_on_c, 11, 50, 0
13, 97020, Note_on_c, 11, 50, 127
13, 97020, Note_on_c, 11, 53, 118
13, 97044, Note_on_c, 11, 53, 0
13, 97044, Note_on_c, 11, 50, 0
13, 97050, Note_on_c, 11, 50, 127
13, 97050, Note_on_c, 11, 53, 127
13, 97074, Note_on_c, 11, 53, 0
13, 97074, Note_on_c, 11, 50, 0
13, 97080, Note_on_c, 11, 62, 118
13, 97104, Note_on_c, 11, 62, 0
13, 97110, Note_on_c, 11, 62, 127
13, 97134, Note_on_c, 11, 62, 0
13, 97140, Note_on_c, 11, 61, 100
13, 97164, Note_on_c, 11, 61, 0
13, 97170, Note_on_c, 11, 61, 113
13, 97194, Note_on_c, 11, 61, 0
13, 97200, Note_on_c, 11, 60, 123
13, 97224, Note_on_c, 11, 60, 0
13, 97230, Note_on_c, 11, 60, 110
13, 97254, Note_on_c, 11, 60, 0
13, 97260, Note_on_c, 11, 60, 109
13, 97284, Note_on_c, 11, 60, 0
13, 97290, Note_on_c, 11, 60, 127
13, 97314, Note_on_c, 11, 60, 0
13, 97320, Note_on_c, 11, 59, 108
13, 97344, Note_on_c, 11, 59, 0
13, 97350, Note_on_c, 11, 59, 127
13, 97374, Note_on_c, 11, 59, 0
13, 97380, Note_on_c, 11, 58, 100
13, 97404, Note_on_c, 11, 58, 0
13, 97410, Note_on_c, 11, 58, 103
13, 97434, Note_on_c, 11, 58, 0
13, 97440, Note_on_c, 11, 58, 107
13, 97464, Note_on_c, 11, 58, 0
13, 97470, Note_on_c, 11, 58, 115
13, 97494, Note_on_c, 11, 58, 0
13, 97500, Note_on_c, 11, 57, 121
13, 97524, Note_on_c, 11, 57, 0
13, 97530, Note_on_c, 11, 57, 120
13, 97554, Note_on_c, 11, 57, 0
13, 97560, Note_on_c, 11, 56, 94
13, 97584, Note_on_c, 11, 56, 0
13, 97590, Note_on_c, 11, 56, 101
13, 97614, Note_on_c, 11, 56, 0
13, 97620, Note_on_c, 11, 56, 113
13, 97644, Note_on_c, 11, 56, 0
13, 97650, Note_on_c, 11, 56, 113
13, 97674, Note_on_c, 11, 56, 0
13, 97680, Note_on_c, 11, 55, 112
13, 97704, Note_on_c, 11, 55, 0
13, 97710, Note_on_c, 11, 55, 120
13, 97734, Note_on_c, 11, 55, 0
13, 97740, Note_on_c, 11, 54, 95
13, 97764, Note_on_c, 11, 54, 0
13, 97770, Note_on_c, 11, 54, 101
13, 97794, Note_on_c, 11, 54, 0
13, 97800, Note_on_c, 11, 54, 113
13, 97824, Note_on_c, 11, 54, 0
13, 97830, Note_on_c, 11, 54, 111
13, 97854, Note_on_c, 11, 54, 0
13, 97860, Note_on_c, 11, 53, 114
13, 97884, Note_on_c, 11, 53, 0
13, 97890, Note_on_c, 11, 53, 114
13, 97914, Note_on_c, 11, 53, 0
13, 97920, Note_on_c, 11, 53, 120
13, 97944, Note_on_c, 11, 53, 0
13, 97950, Note_on_c, 11, 56, 113
13, 97974, Note_on_c, 11, 56, 0
13, 97980, Note_on_c, 11, 53, 127
13, 98004, Note_on_c, 11, 53, 0
13, 98010, Note_on_c, 11, 56, 103
13, 98034, Note_on_c, 11, 56, 0
13, 98040, Note_on_c, 11, 53, 125
13, 98064, Note_on_c, 11, 53, 0
13, 98070, Note_on_c, 11, 56, 109
13, 98094, Note_on_c, 11, 56, 0
13, 98100, Note_on_c, 11, 53, 127
13, 98124, Note_on_c, 11, 53, 0
13, 98130, Note_on_c, 11, 56, 107
13, 98154, Note_on_c, 11, 56, 0
13, 98160, Note_on_c, 11, 53, 127
13, 98184, Note_on_c, 11, 53, 0
13, 98190, Note_on_c, 11, 51, 100
13, 98214, Note_on_c, 11, 51, 0
13, 98220, Note_on_c, 11, 50, 127
13, 98244, Note_on_c, 11, 50, 0
13, 98250, Note_on_c, 11, 62, 127
13, 98274, Note_on_c, 11, 62, 0
13, 98280, Note_on_c, 11, 51, 118
13, 98304, Note_on_c, 11, 51, 0
13, 98310, Note_on_c, 11, 55, 127
13, 98334, Note_on_c, 11, 55, 0
13, 98340, Note_on_c, 11, 51, 111
13, 98364, Note_on_c, 11, 51, 0
13, 98370, Note_on_c, 11, 55, 123
13, 98394, Note_on_c, 11, 55, 0
13, 98400, Note_on_c, 11, 51, 111
13, 98424, Note_on_c, 11, 51, 0
13, 98430, Note_on_c, 11, 55, 127
13, 98454, Note_on_c, 11, 55, 0
13, 98460, Note_on_c, 11, 51, 111
13, 98484, Note_on_c, 11, 51, 0
13, 98490, Note_on_c, 11, 55, 127
13, 98514, Note_on_c, 11, 55, 0
13, 98520, Note_on_c, 11, 51, 111
13, 98544, Note_on_c, 11, 51, 0
13, 98550, Note_on_c, 11, 55, 127
13, 98574, Note_on_c, 11, 55, 0
13, 98580, Note_on_c, 11, 53, 127
13, 98604, Note_on_c, 11, 53, 0
13, 98610, Note_on_c, 11, 56, 107
13, 98634, Note_on_c, 11, 56, 0
13, 98640, Note_on_c, 11, 53, 127
13, 98664, Note_on_c, 11, 53, 0
13, 98670, Note_on_c, 11, 56, 107
13, 98694, Note_on_c, 11, 56, 0
13, 98700, Note_on_c, 11, 53, 121
13, 98724, Note_on_c, 11, 53, 0
13, 98730, Note_on_c, 11, 56, 107
13, 98754, Note_on_c, 11, 56, 0
13, 98760, Note_on_c, 11, 53, 127
13, 98784, Note_on_c, 11, 53, 0
13, 98790, Note_on_c, 11, 56, 109
13, 98814, Note_on_c, 11, 56, 0
13, 98820, Note_on_c, 11, 53, 118
13, 98844, Note_on_c, 11, 53, 0
13, 98850, Note_on_c, 11, 56, 109
13, 98874, Note_on_c, 11, 56, 0
13, 98880, Note_on_c, 11, 53, 127
13, 98904, Note_on_c, 11, 53, 0
13, 98910, Note_on_c, 11, 51, 111
13, 98934, Note_on_c, 11, 51, 0
13, 98940, Note_on_c, 11, 50, 114
13, 98964, Note_on_c, 11, 50, 0
13, 98970, Note_on_c, 11, 62, 120
13, 98994, Note_on_c, 11, 62, 0
13, 99000, Note_on_c, 11, 51, 115
13, 99024, Note_on_c, 11, 51, 0
13, 99030, Note_on_c, 11, 55, 123
13, 99054, Note_on_c, 11, 55, 0
13, 99060, Note_on_c, 11, 51, 105
13, 99084, Note_on_c, 11, 51, 0
13, 99090, Note_on_c, 11, 55, 120
13, 99114, Note_on_c, 11, 55, 0
13, 99120, Note_on_c, 11, 51, 101
13, 99144, Note_on_c, 11, 51, 0
13, 99150, Note_on_c, 11, 55, 125
13, 99174, Note_on_c, 11, 55, 0
13, 99180, Note_on_c, 11, 51, 101
13, 99204, Note_on_c, 11, 51, 0
13, 99210, Note_on_c, 11, 55, 110
13, 99234, Note_on_c, 11, 55, 0
13, 99240, Note_on_c, 11, 58, 115
13, 99264, Note_on_c, 11, 58, 0
13, 99270, Note_on_c, 11, 55, 127
13, 99294, Note_on_c, 11, 55, 0
13, 99300, Note_on_c, 11, 51, 113
13, 99324, Note_on_c, 11, 51, 0
13, 99330, Note_on_c, 11, 55, 127
13, 99354, Note_on_c, 11, 55, 0
13, 99360, Note_on_c, 11, 53, 118
13, 99384, Note_on_c, 11, 53, 0
13, 99390, Note_on_c, 11, 56, 109
13, 99414, Note_on_c, 11, 56, 0
13, 99420, Note_on_c, 11, 53, 118
13, 99444, Note_on_c, 11, 53, 0
13, 99450, Note_on_c, 11, 56, 101
13, 99474, Note_on_c, 11, 56, 0
13, 99480, Note_on_c, 11, 53, 110
13, 99504, Note_on_c, 11, 53, 0
13, 99510, Note_on_c, 11, 56, 105
13, 99534, Note_on_c, 11, 56, 0
13, 99540, Note_on_c, 11, 53, 120
13, 99564, Note_on_c, 11, 53, 0
13, 99570, Note_on_c, 11, 56, 103
13, 99594, Note_on_c, 11, 56, 0
13, 99600, Note_on_c, 11, 58, 107
13, 99624, Note_on_c, 11, 58, 0
13, 99630, Note_on_c, 11, 56, 107
13, 99654, Note_on_c, 11, 56, 0
13, 99660, Note_on_c, 11, 53, 127
13, 99684, Note_on_c, 11, 53, 0
13, 99690, Note_on_c, 11, 56, 118
13, 99714, Note_on_c, 11, 56, 0
13, 99720, Note_on_c, 11, 51, 123
13, 99744, Note_on_c, 11, 51, 0
13, 99750, Note_on_c, 11, 58, 121
13, 99774, Note_on_c, 11, 58, 0
13, 99780, Note_on_c, 11, 51, 105
13, 99804, Note_on_c, 11, 51, 0
13, 99810, Note_on_c, 11, 58, 105
13, 99834, Note_on_c, 11, 58, 0
13, 99840, Note_on_c, 11, 51, 118
13, 99864, Note_on_c, 11, 51, 0
13, 99870, Note_on_c, 11, 58, 101
13, 99894, Note_on_c, 11, 58, 0
13, 99900, Note_on_c, 11, 51, 92
13, 99924, Note_on_c, 11, 51, 0
13, 99930, Note_on_c, 11, 58, 105
13, 99954, Note_on_c, 11, 58, 0
13, 99960, Note_on_c, 11, 63, 121
13, 99984, Note_on_c, 11, 63, 0
13, 99990, Note_on_c, 11, 58, 123
13, 100014, Note_on_c, 11, 58, 0
13, 100020, Note_on_c, 11, 51, 115
13, 100044, Note_on_c, 11, 51, 0
13, 100050, Note_on_c, 11, 58, 74
13, 100074, Note_on_c, 11, 58, 0
13, 100080, Note_on_c, 11, 51, 113
13, 100104, Note_on_c, 11, 51, 0
13, 100110, Note_on_c, 11, 60, 117
13, 100134, Note_on_c, 11, 60, 0
13, 100140, Note_on_c, 11, 51, 109
13, 100164, Note_on_c, 11, 51, 0
13, 100170, Note_on_c, 11, 60, 118
13, 100194, Note_on_c, 11, 60, 0
13, 100200, Note_on_c, 11, 51, 107
13, 100224, Note_on_c, 11, 51, 0
13, 100230, Note_on_c, 11, 60, 121
13, 100254, Note_on_c, 11, 60, 0
13, 100260, Note_on_c, 11, 53, 127
13, 100284, Note_on_c, 11, 53, 0
13, 100290, Note_on_c, 11, 60, 127
13, 100314, Note_on_c, 11, 60, 0
13, 100320, Note_on_c, 11, 53, 121
13, 100344, Note_on_c, 11, 53, 0
13, 100350, Note_on_c, 11, 60, 121
13, 100374, Note_on_c, 11, 60, 0
13, 100380, Note_on_c, 11, 53, 116
13, 100404, Note_on_c, 11, 53, 0
13, 100410, Note_on_c, 11, 60, 125
13, 100434, Note_on_c, 11, 60, 0
13, 100440, Note_on_c, 11, 58, 113
13, 100464, Note_on_c, 11, 58, 0
13, 100470, Note_on_c, 11, 53, 121
13, 100494, Note_on_c, 11, 53, 0
13, 100500, Note_on_c, 11, 58, 115
13, 100524, Note_on_c, 11, 58, 0
13, 100530, Note_on_c, 11, 53, 117
13, 100554, Note_on_c, 11, 53, 0
13, 100560, Note_on_c, 11, 62, 118
13, 100584, Note_on_c, 11, 62, 0
13, 100590, Note_on_c, 11, 58, 118
13, 100614, Note_on_c, 11, 58, 0
13, 100620, Note_on_c, 11, 63, 121
13, 100644, Note_on_c, 11, 63, 0
13, 100650, Note_on_c, 11, 58, 123
13, 100674, Note_on_c, 11, 58, 0
13, 100680, Note_on_c, 11, 56, 118
13, 100704, Note_on_c, 11, 56, 0
13, 100710, Note_on_c, 11, 58, 118
13, 100734, Note_on_c, 11, 58, 0
13, 100740, Note_on_c, 11, 55, 121
13, 100764, Note_on_c, 11, 55, 0
13, 100770, Note_on_c, 11, 58, 113
13, 100794, Note_on_c, 11, 58, 0
13, 100800, Note_on_c, 11, 68, 121
13, 100896, Note_on_c, 11, 68, 0
13, 100980, Note_on_c, 11, 58, 100
13, 100980, Note_on_c, 11, 70, 96
13, 101076, Note_on_c, 11, 70, 0
13, 101076, Note_on_c, 11, 58, 0
13, 101160, Note_on_c, 11, 58, 96
13, 101160, Note_on_c, 11, 67, 117
13, 101160, Note_on_c, 11, 51, 93
13, 101256, Note_on_c, 11, 51, 0
13, 101256, Note_on_c, 11, 67, 0
13, 101256, Note_on_c, 11, 58, 0
13, 101550, Note_on_c, 11, 51, 115
13, 101574, Note_on_c, 11, 51, 0
13, 101580, Note_on_c, 11, 53, 127
13, 101604, Note_on_c, 11, 53, 0
13, 101610, Note_on_c, 11, 55, 112
13, 101634, Note_on_c, 11, 55, 0
13, 101640, Note_on_c, 11, 56, 111
13, 101664, Note_on_c, 11, 56, 0
13, 101670, Note_on_c, 11, 58, 88
13, 101694, Note_on_c, 11, 58, 0
13, 101700, Note_on_c, 11, 60, 127
13, 101724, Note_on_c, 11, 60, 0
13, 101730, Note_on_c, 11, 59, 121
13, 101754, Note_on_c, 11, 59, 0
13, 101760, Note_on_c, 11, 60, 127
13, 101784, Note_on_c, 11, 60, 0
13, 101790, Note_on_c, 11, 62, 105
13, 101814, Note_on_c, 11, 62, 0
13, 101820, Note_on_c, 11, 63, 107
13, 101844, Note_on_c, 11, 63, 0
13, 101850, Note_on_c, 11, 60, 127
13, 101874, Note_on_c, 11, 60, 0
13, 101880, Note_on_c, 11, 58, 111
13, 101976, Note_on_c, 11, 58, 0
13, 102240, Note_on_c, 11, 56, 127
13, 102264, Note_on_c, 11, 56, 0
13, 102270, Note_on_c, 11, 58, 113
13, 102294, Note_on_c, 11, 58, 0
13, 102300, Note_on_c, 11, 56, 127
13, 102324, Note_on_c, 11, 56, 0
13, 102330, Note_on_c, 11, 58, 111
13, 102354, Note_on_c, 11, 58, 0
13, 102360, Note_on_c, 11, 56, 123
13, 102384, Note_on_c, 11, 56, 0
13, 102390, Note_on_c, 11, 58, 109
13, 102414, Note_on_c, 11, 58, 0
13, 102420, Note_on_c, 11, 56, 127
13, 102444, Note_on_c, 11, 56, 0
13, 102450, Note_on_c, 11, 58, 118
13, 102474, Note_on_c, 11, 58, 0
13, 102480, Note_on_c, 11, 56, 123
13, 102504, Note_on_c, 11, 56, 0
13, 102510, Note_on_c, 11, 58, 111
13, 102534, Note_on_c, 11, 58, 0
13, 102540, Note_on_c, 11, 56, 127
13, 102564, Note_on_c, 11, 56, 0
13, 102570, Note_on_c, 11, 58, 121
13, 102594, Note_on_c, 11, 58, 0
13, 102600, Note_on_c, 11, 55, 127
13, 102600, Note_on_c, 11, 51, 97
13, 102696, Note_on_c, 11, 51, 0
13, 102696, Note_on_c, 11, 55, 0
13, 102960, Note_on_c, 11, 63, 127
13, 103056, Note_on_c, 11, 63, 0
13, 103320, Note_on_c, 11, 51, 113
13, 103416, Note_on_c, 11, 51, 0
13, 107760, Note_on_c, 11, 65, 97
13, 107808, Note_on_c, 11, 65, 0
13, 107820, Note_on_c, 11, 53, 90
13, 107916, Note_on_c, 11, 53, 0
13, 108005, Control_c, 11, 7, 84
13, 108480, Note_on_c, 11, 51, 100
13, 108524, Note_on_c, 11, 51, 0
13, 108540, Note_on_c, 11, 56, 100
13, 108659, Note_on_c, 11, 56, 0
13, 111240, Note_on_c, 11, 56, 113
13, 111240, Control_c, 11, 7, 124
13, 111468, Note_on_c, 11, 56, 0
13, 111480, Note_on_c, 11, 61, 118
13, 111504, Note_on_c, 11, 61, 0
13, 111510, Note_on_c, 11, 61, 118
13, 111534, Note_on_c, 11, 61, 0
13, 111540, Note_on_c, 11, 60, 127
13, 111564, Note_on_c, 11, 60, 0
13, 111570, Note_on_c, 11, 60, 123
13, 111594, Note_on_c, 11, 60, 0
13, 111600, Note_on_c, 11, 60, 105
13, 111600, Note_on_c, 11, 48, 105
13, 111624, Note_on_c, 11, 48, 0
13, 111624, Note_on_c, 11, 60, 0
13, 111630, Note_on_c, 11, 60, 127
13, 111630, Note_on_c, 11, 48, 118
13, 111654, Note_on_c, 11, 48, 0
13, 111654, Note_on_c, 11, 60, 0
13, 111660, Note_on_c, 11, 60, 120
13, 111660, Note_on_c, 11, 48, 116
13, 111684, Note_on_c, 11, 48, 0
13, 111684, Note_on_c, 11, 60, 0
13, 111690, Note_on_c, 11, 60, 116
13, 111690, Note_on_c, 11, 48, 109
13, 111714, Note_on_c, 11, 48, 0
13, 111714, Note_on_c, 11, 60, 0
13, 111720, Note_on_c, 11, 60, 116
13, 111720, Note_on_c, 11, 48, 113
13, 111744, Note_on_c, 11, 48, 0
13, 111744, Note_on_c, 11, 60, 0
13, 111750, Note_on_c, 11, 60, 127
13, 111750, Note_on_c, 11, 48, 125
13, 111774, Note_on_c, 11, 48, 0
13, 111774, Note_on_c, 11, 60, 0
13, 111780, Note_on_c, 11, 53, 121
13, 111804, Note_on_c, 11, 53, 0
13, 111810, Note_on_c, 11, 65, 120
13, 111834, Note_on_c, 11, 65, 0
13, 111840, Note_on_c, 11, 63, 105
13, 111864, Note_on_c, 11, 63, 0
13, 111870, Note_on_c, 11, 63, 115
13, 111894, Note_on_c, 11, 63, 0
13, 111900, Note_on_c, 11, 62, 116
13, 111924, Note_on_c, 11, 62, 0
13, 111930, Note_on_c, 11, 62, 106
13, 111954, Note_on_c, 11, 62, 0
13, 111960, Note_on_c, 11, 60, 123
13, 111984, Note_on_c, 11, 60, 0
13, 111990, Note_on_c, 11, 60, 125
13, 112014, Note_on_c, 11, 60, 0
13, 112020, Note_on_c, 11, 58, 111
13, 112044, Note_on_c, 11, 58, 0
13, 112050, Note_on_c, 11, 58, 111
13, 112074, Note_on_c, 11, 58, 0
13, 112080, Note_on_c, 11, 56, 96
13, 112080, Note_on_c, 11, 53, 105
13, 112104, Note_on_c, 11, 53, 0
13, 112104, Note_on_c, 11, 56, 0
13, 112110, Note_on_c, 11, 56, 107
13, 112110, Note_on_c, 11, 53, 116
13, 112134, Note_on_c, 11, 53, 0
13, 112134, Note_on_c, 11, 56, 0
13, 112140, Note_on_c, 11, 51, 96
13, 112140, Note_on_c, 11, 55, 127
13, 112164, Note_on_c, 11, 55, 0
13, 112164, Note_on_c, 11, 51, 0
13, 112170, Note_on_c, 11, 55, 127
13, 112170, Note_on_c, 11, 51, 90
13, 112194, Note_on_c, 11, 51, 0
13, 112194, Note_on_c, 11, 55, 0
13, 112200, Note_on_c, 11, 51, 101
13, 112200, Note_on_c, 11, 55, 120
13, 112224, Note_on_c, 11, 55, 0
13, 112224, Note_on_c, 11, 51, 0
13, 112230, Note_on_c, 11, 55, 121
13, 112230, Note_on_c, 11, 51, 87
13, 112254, Note_on_c, 11, 51, 0
13, 112254, Note_on_c, 11, 55, 0
13, 112260, Note_on_c, 11, 53, 117
13, 112260, Note_on_c, 11, 50, 107
13, 112284, Note_on_c, 11, 50, 0
13, 112284, Note_on_c, 11, 53, 0
13, 112290, Note_on_c, 11, 53, 120
13, 112290, Note_on_c, 11, 50, 117
13, 112314, Note_on_c, 11, 50, 0
13, 112314, Note_on_c, 11, 53, 0
13, 112320, Note_on_c, 11, 53, 123
13, 112320, Note_on_c, 11, 50, 111
13, 112416, Note_on_c, 11, 50, 0
13, 112416, Note_on_c, 11, 53, 0
13, 113040, Note_on_c, 11, 64, 120
13, 113040, Note_on_c, 11, 55, 107
13, 113136, Note_on_c, 11, 55, 0
13, 113136, Note_on_c, 11, 64, 0
13, 113760, Note_on_c, 11, 65, 123
13, 113856, Note_on_c, 11, 65, 0
13, 114480, Control_c, 11, 7, 84
13, 117060, Note_on_c, 11, 63, 118
13, 117708, Note_on_c, 11, 63, 0
13, 117780, Note_on_c, 11, 63, 111
13, 118428, Note_on_c, 11, 63, 0
13, 118500, Note_on_c, 11, 63, 113
13, 119148, Note_on_c, 11, 63, 0
13, 119220, Note_on_c, 11, 63, 115
13, 119316, Note_on_c, 11, 63, 0
13, 119340, Note_on_c, 11, 63, 113
13, 119388, Note_on_c, 11, 63, 0
13, 119400, Note_on_c, 11, 63, 111
13, 119496, Note_on_c, 11, 63, 0
13, 119520, Note_on_c, 11, 63, 111
13, 119568, Note_on_c, 11, 63, 0
13, 119580, Note_on_c, 11, 63, 113
13, 119676, Note_on_c, 11, 63, 0
13, 119700, Note_on_c, 11, 63, 111
13, 119748, Note_on_c, 11, 63, 0
13, 119760, Note_on_c, 11, 63, 118
13, 119856, Note_on_c, 11, 63, 0
13, 119880, Note_on_c, 11, 63, 111
13, 119928, Note_on_c, 11, 63, 0
13, 119940, Note_on_c, 11, 63, 123
13, 120036, Note_on_c, 11, 63, 0
13, 123120, Control_c, 11, 7, 114
13, 123125, Control_c, 11, 7, 115
13, 123480, Note_on_c, 11, 48, 107
13, 123504, Note_on_c, 11, 48, 0
13, 123510, Note_on_c, 11, 51, 121
13, 123534, Note_on_c, 11, 51, 0
13, 123540, Note_on_c, 11, 49, 127
13, 123564, Note_on_c, 11, 49, 0
13, 123570, Note_on_c, 11, 51, 109
13, 123594, Note_on_c, 11, 51, 0
13, 123600, Note_on_c, 11, 49, 113
13, 123624, Note_on_c, 11, 49, 0
13, 123630, Note_on_c, 11, 51, 105
13, 123654, Note_on_c, 11, 51, 0
13, 123660, Note_on_c, 11, 49, 113
13, 123684, Note_on_c, 11, 49, 0
13, 123690, Note_on_c, 11, 51, 107
13, 123714, Note_on_c, 11, 51, 0
13, 123720, Note_on_c, 11, 46, 115
13, 123744, Note_on_c, 11, 46, 0
13, 123750, Note_on_c, 11, 51, 107
13, 123774, Note_on_c, 11, 51, 0
13, 123780, Note_on_c, 11, 46, 105
13, 123804, Note_on_c, 11, 46, 0
13, 123810, Note_on_c, 11, 51, 99
13, 123834, Note_on_c, 11, 51, 0
13, 123840, Note_on_c, 11, 46, 107
13, 123864, Note_on_c, 11, 46, 0
13, 123870, Note_on_c, 11, 51, 115
13, 123894, Note_on_c, 11, 51, 0
13, 123900, Note_on_c, 11, 55, 127
13, 123996, Note_on_c, 11, 55, 0
13, 124920, Note_on_c, 11, 48, 107
13, 124944, Note_on_c, 11, 48, 0
13, 124950, Note_on_c, 11, 51, 121
13, 124974, Note_on_c, 11, 51, 0
13, 124980, Note_on_c, 11, 49, 127
13, 125004, Note_on_c, 11, 49, 0
13, 125010, Note_on_c, 11, 51, 109
13, 125034, Note_on_c, 11, 51, 0
13, 125040, Note_on_c, 11, 49, 113
13, 125064, Note_on_c, 11, 49, 0
13, 125070, Note_on_c, 11, 51, 105
13, 125094, Note_on_c, 11, 51, 0
13, 125100, Note_on_c, 11, 49, 113
13, 125124, Note_on_c, 11, 49, 0
13, 125130, Note_on_c, 11, 51, 107
13, 125154, Note_on_c, 11, 51, 0
13, 125160, Note_on_c, 11, 46, 115
13, 125184, Note_on_c, 11, 46, 0
13, 125190, Note_on_c, 11, 51, 107
13, 125214, Note_on_c, 11, 51, 0
13, 125220, Note_on_c, 11, 46, 105
13, 125244, Note_on_c, 11, 46, 0
13, 125250, Note_on_c, 11, 51, 99
13, 125274, Note_on_c, 11, 51, 0
13, 125280, Note_on_c, 11, 46, 107
13, 125304, Note_on_c, 11, 46, 0
13, 125310, Note_on_c, 11, 51, 115
13, 125334, Note_on_c, 11, 51, 0
13, 125340, Note_on_c, 11, 55, 127
13, 125436, Note_on_c, 11, 55, 0
13, 126360, Note_on_c, 11, 56, 115
13, 126384, Note_on_c, 11, 56, 0
13, 126390, Note_on_c, 11, 51, 103
13, 126414, Note_on_c, 11, 51, 0
13, 126420, Note_on_c, 11, 58, 111
13, 126444, Note_on_c, 11, 58, 0
13, 126450, Note_on_c, 11, 51, 101
13, 126474, Note_on_c, 11, 51, 0
13, 126480, Note_on_c, 11, 58, 109
13, 126504, Note_on_c, 11, 58, 0
13, 126510, Note_on_c, 11, 51, 95
13, 126534, Note_on_c, 11, 51, 0
13, 126540, Note_on_c, 11, 58, 113
13, 126564, Note_on_c, 11, 58, 0
13, 126570, Note_on_c, 11, 58, 107
13, 126594, Note_on_c, 11, 58, 0
13, 126600, Note_on_c, 11, 58, 115
13, 126624, Note_on_c, 11, 58, 0
13, 126630, Note_on_c, 11, 51, 115
13, 126654, Note_on_c, 11, 51, 0
13, 126660, Note_on_c, 11, 58, 121
13, 126684, Note_on_c, 11, 58, 0
13, 126690, Note_on_c, 11, 56, 121
13, 126714, Note_on_c, 11, 56, 0
13, 126720, Note_on_c, 11, 55, 109
13, 126744, Note_on_c, 11, 55, 0
13, 126750, Note_on_c, 11, 55, 116
13, 126774, Note_on_c, 11, 55, 0
13, 126780, Note_on_c, 11, 56, 121
13, 126804, Note_on_c, 11, 56, 0
13, 126810, Note_on_c, 11, 51, 118
13, 126834, Note_on_c, 11, 51, 0
13, 126840, Note_on_c, 11, 56, 115
13, 126864, Note_on_c, 11, 56, 0
13, 126870, Note_on_c, 11, 51, 109
13, 126894, Note_on_c, 11, 51, 0
13, 126900, Note_on_c, 11, 56, 111
13, 126924, Note_on_c, 11, 56, 0
13, 126930, Note_on_c, 11, 51, 118
13, 126954, Note_on_c, 11, 51, 0
13, 126960, Note_on_c, 11, 56, 111
13, 126960, Note_on_c, 11, 51, 123
13, 127056, Note_on_c, 11, 51, 0
13, 127056, Note_on_c, 11, 56, 0
13, 127440, Control_c, 11, 7, 126
13, 127800, Note_on_c, 11, 60, 127
13, 127824, Note_on_c, 11, 60, 0
13, 127830, Note_on_c, 11, 59, 127
13, 127854, Note_on_c, 11, 59, 0
13, 127860, Note_on_c, 11, 59, 118
13, 127884, Note_on_c, 11, 59, 0
13, 127890, Note_on_c, 11, 59, 116
13, 127914, Note_on_c, 11, 59, 0
13, 127920, Note_on_c, 11, 59, 116
13, 127944, Note_on_c, 11, 59, 0
13, 127950, Note_on_c, 11, 59, 127
13, 127974, Note_on_c, 11, 59, 0
13, 127980, Note_on_c, 11, 58, 113
13, 128004, Note_on_c, 11, 58, 0
13, 128010, Note_on_c, 11, 57, 127
13, 128034, Note_on_c, 11, 57, 0
13, 128040, Note_on_c, 11, 57, 125
13, 128064, Note_on_c, 11, 57, 0
13, 128070, Note_on_c, 11, 57, 118
13, 128094, Note_on_c, 11, 57, 0
13, 128100, Note_on_c, 11, 57, 127
13, 128124, Note_on_c, 11, 57, 0
13, 128130, Note_on_c, 11, 57, 127
13, 128154, Note_on_c, 11, 57, 0
13, 128160, Note_on_c, 11, 56, 115
13, 128184, Note_on_c, 11, 56, 0
13, 128190, Note_on_c, 11, 55, 123
13, 128214, Note_on_c, 11, 55, 0
13, 128220, Note_on_c, 11, 55, 120
13, 128244, Note_on_c, 11, 55, 0
13, 128250, Note_on_c, 11, 55, 114
13, 128274, Note_on_c, 11, 55, 0
13, 128280, Note_on_c, 11, 55, 120
13, 128304, Note_on_c, 11, 55, 0
13, 128310, Note_on_c, 11, 55, 127
13, 128334, Note_on_c, 11, 55, 0
13, 128340, Note_on_c, 11, 54, 118
13, 128364, Note_on_c, 11, 54, 0
13, 128370, Note_on_c, 11, 53, 120
13, 128394, Note_on_c, 11, 53, 0
13, 128400, Note_on_c, 11, 53, 111
13, 128424, Note_on_c, 11, 53, 0
13, 128430, Note_on_c, 11, 53, 117
13, 128454, Note_on_c, 11, 53, 0
13, 128460, Note_on_c, 11, 52, 111
13, 128484, Note_on_c, 11, 52, 0
13, 128490, Note_on_c, 11, 52, 114
13, 128514, Note_on_c, 11, 52, 0
13, 128520, Note_on_c, 11, 51, 88
13, 128520, Note_on_c, 11, 55, 116
13, 128544, Note_on_c, 11, 55, 0
13, 128544, Note_on_c, 11, 51, 0
13, 128550, Note_on_c, 11, 51, 101
13, 128550, Note_on_c, 11, 55, 123
13, 128574, Note_on_c, 11, 55, 0
13, 128574, Note_on_c, 11, 51, 0
13, 128580, Note_on_c, 11, 51, 107
13, 128580, Note_on_c, 11, 55, 127
13, 128604, Note_on_c, 11, 55, 0
13, 128604, Note_on_c, 11, 51, 0
13, 128610, Note_on_c, 11, 58, 91
13, 128610, Note_on_c, 11, 55, 111
13, 128634, Note_on_c, 11, 55, 0
13, 128634, Note_on_c, 11, 58, 0
13, 128640, Note_on_c, 11, 58, 88
13, 128640, Note_on_c, 11, 55, 114
13, 128664, Note_on_c, 11, 55, 0
13, 128664, Note_on_c, 11, 58, 0
13, 128670, Note_on_c, 11, 58, 97
13, 128670, Note_on_c, 11, 55, 112
13, 128694, Note_on_c, 11, 55, 0
13, 128694, Note_on_c, 11, 58, 0
13, 128700, Note_on_c, 11, 58, 105
13, 128700, Note_on_c, 11, 55, 123
13, 128724, Note_on_c, 11, 55, 0
13, 128724, Note_on_c, 11, 58, 0
13, 128730, Note_on_c, 11, 58, 100
13, 128730, Note_on_c, 11, 63, 103
13, 128754, Note_on_c, 11, 63, 0
13, 128754, Note_on_c, 11, 58, 0
13, 128760, Note_on_c, 11, 63, 105
13, 128760, Note_on_c, 11, 58, 100
13, 128784, Note_on_c, 11, 58, 0
13, 128784, Note_on_c, 11, 63, 0
13, 128790, Note_on_c, 11, 58, 103
13, 128790, Note_on_c, 11, 63, 99
13, 128814, Note_on_c, 11, 63, 0
13, 128814, Note_on_c, 11, 58, 0
13, 128820, Note_on_c, 11, 58, 100
13, 128820, Note_on_c, 11, 63, 90
13, 128844, Note_on_c, 11, 63, 0
13, 128844, Note_on_c, 11, 58, 0
13, 128850, Note_on_c, 11, 58, 107
13, 128850, Note_on_c, 11, 63, 101
13, 128874, Note_on_c, 11, 63, 0
13, 128874, Note_on_c, 11, 58, 0
13, 128880, Note_on_c, 11, 63, 101
13, 128880, Note_on_c, 11, 58, 97
13, 128904, Note_on_c, 11, 58, 0
13, 128904, Note_on_c, 11, 63, 0
13, 128910, Note_on_c, 11, 63, 99
13, 128910, Note_on_c, 11, 67, 116
13, 128934, Note_on_c, 11, 67, 0
13, 128934, Note_on_c, 11, 63, 0
13, 128940, Note_on_c, 11, 63, 88
13, 128940, Note_on_c, 11, 67, 114
13, 128964, Note_on_c, 11, 67, 0
13, 128964, Note_on_c, 11, 63, 0
13, 128970, Note_on_c, 11, 70, 109
13, 128970, Note_on_c, 11, 67, 120
13, 128994, Note_on_c, 11, 67, 0
13, 128994, Note_on_c, 11, 70, 0
13, 129000, Note_on_c, 11, 70, 92
13, 129000, Note_on_c, 11, 67, 116
13, 129024, Note_on_c, 11, 67, 0
13, 129024, Note_on_c, 11, 70, 0
13, 129030, Note_on_c, 11, 70, 86
13, 129030, Note_on_c, 11, 67, 112
13, 129054, Note_on_c, 11, 67, 0
13, 129054, Note_on_c, 11, 70, 0
13, 129060, Note_on_c, 11, 70, 92
13, 129060, Note_on_c, 11, 67, 117
13, 129084, Note_on_c, 11, 67, 0
13, 129084, Note_on_c, 11, 70, 0
13, 129090, Note_on_c, 11, 67, 109
13, 129090, Note_on_c, 11, 70, 93
13, 129114, Note_on_c, 11, 70, 0
13, 129114, Note_on_c, 11, 67, 0
13, 129120, Note_on_c, 11, 70, 97
13, 129120, Note_on_c, 11, 67, 110
13, 129144, Note_on_c, 11, 67, 0
13, 129144, Note_on_c, 11, 70, 0
13, 129150, Note_on_c, 11, 67, 112
13, 129150, Note_on_c, 11, 70, 87
13, 129174, Note_on_c, 11, 70, 0
13, 129174, Note_on_c, 11, 67, 0
13, 129180, Note_on_c, 11, 67, 105
13, 129180, Note_on_c, 11, 70, 92
13, 129204, Note_on_c, 11, 70, 0
13, 129204, Note_on_c, 11, 67, 0
13, 129210, Note_on_c, 11, 67, 110
13, 129210, Note_on_c, 11, 70, 90
13, 129234, Note_on_c, 11, 70, 0
13, 129234, Note_on_c, 11, 67, 0
13, 129240, Note_on_c, 11, 70, 97
13, 129240, Note_on_c, 11, 67, 127
13, 129264, Note_on_c, 11, 67, 0
13, 129264, Note_on_c, 11, 70, 0
13, 129270, Note_on_c, 11, 67, 118
13, 129270, Note_on_c, 11, 58, 92
13, 129294, Note_on_c, 11, 58, 0
13, 129294, Note_on_c, 11, 67, 0
13, 129300, Note_on_c, 11, 68, 115
13, 129300, Note_on_c, 11, 58, 100
13, 129324, Note_on_c, 11, 58, 0
13, 129324, Note_on_c, 11, 68, 0
13, 129330, Note_on_c, 11, 56, 103
13, 129330, Note_on_c, 11, 58, 107
13, 129354, Note_on_c, 11, 58, 0
13, 129354, Note_on_c, 11, 56, 0
13, 129360, Note_on_c, 11, 58, 103
13, 129360, Note_on_c, 11, 56, 103
13, 129384, Note_on_c, 11, 56, 0
13, 129384, Note_on_c, 11, 58, 0
13, 129390, Note_on_c, 11, 58, 103
13, 129390, Note_on_c, 11, 56, 103
13, 129414, Note_on_c, 11, 56, 0
13, 129414, Note_on_c, 11, 58, 0
13, 129420, Note_on_c, 11, 58, 101
13, 129420, Note_on_c, 11, 56, 94
13, 129444, Note_on_c, 11, 56, 0
13, 129444, Note_on_c, 11, 58, 0
13, 129450, Note_on_c, 11, 58, 99
13, 129450, Note_on_c, 11, 56, 103
13, 129474, Note_on_c, 11, 56, 0
13, 129474, Note_on_c, 11, 58, 0
13, 129480, Note_on_c, 11, 58, 99
13, 129480, Note_on_c, 11, 55, 112
13, 129504, Note_on_c, 11, 55, 0
13, 129504, Note_on_c, 11, 58, 0
13, 129510, Note_on_c, 11, 58, 100
13, 129510, Note_on_c, 11, 55, 114
13, 129534, Note_on_c, 11, 55, 0
13, 129534, Note_on_c, 11, 58, 0
13, 129540, Note_on_c, 11, 58, 97
13, 129540, Note_on_c, 11, 55, 104
13, 129564, Note_on_c, 11, 55, 0
13, 129564, Note_on_c, 11, 58, 0
13, 129570, Note_on_c, 11, 58, 95
13, 129570, Note_on_c, 11, 55, 113
13, 129594, Note_on_c, 11, 55, 0
13, 129594, Note_on_c, 11, 58, 0
13, 129600, Note_on_c, 11, 63, 84
13, 129600, Note_on_c, 11, 58, 97
13, 129600, Note_on_c, 11, 55, 109
13, 129624, Note_on_c, 11, 55, 0
13, 129624, Note_on_c, 11, 58, 0
13, 129624, Note_on_c, 11, 63, 0
13, 129630, Note_on_c, 11, 58, 111
13, 129630, Note_on_c, 11, 63, 96
13, 129630, Note_on_c, 11, 55, 117
13, 129654, Note_on_c, 11, 55, 0
13, 129654, Note_on_c, 11, 63, 0
13, 129654, Note_on_c, 11, 58, 0
13, 129660, Note_on_c, 11, 62, 106
13, 129660, Note_on_c, 11, 58, 90
13, 129660, Note_on_c, 11, 53, 100
13, 129684, Note_on_c, 11, 53, 0
13, 129684, Note_on_c, 11, 58, 0
13, 129684, Note_on_c, 11, 62, 0
13, 129690, Note_on_c, 11, 65, 123
13, 129690, Note_on_c, 11, 62, 108
13, 129714, Note_on_c, 11, 62, 0
13, 129714, Note_on_c, 11, 65, 0
13, 129720, Note_on_c, 11, 65, 121
13, 129720, Note_on_c, 11, 62, 103
13, 129744, Note_on_c, 11, 62, 0
13, 129744, Note_on_c, 11, 65, 0
13, 129750, Note_on_c, 11, 65, 116
13, 129750, Note_on_c, 11, 62, 110
13, 129774, Note_on_c, 11, 62, 0
13, 129774, Note_on_c, 11, 65, 0
13, 129780, Note_on_c, 11, 65, 123
13, 129780, Note_on_c, 11, 62, 114
13, 129804, Note_on_c, 11, 62, 0
13, 129804, Note_on_c, 11, 65, 0
13, 129810, Note_on_c, 11, 66, 90
13, 129810, Note_on_c, 11, 63, 99
13, 129834, Note_on_c, 11, 63, 0
13, 129834, Note_on_c, 11, 66, 0
13, 129840, Note_on_c, 11, 62, 108
13, 129840, Note_on_c, 11, 65, 111
13, 129864, Note_on_c, 11, 65, 0
13, 129864, Note_on_c, 11, 62, 0
13, 129870, Note_on_c, 11, 58, 94
13, 129894, Note_on_c, 11, 58, 0
13, 129900, Note_on_c, 11, 58, 103
13, 129924, Note_on_c, 11, 58, 0
13, 129930, Note_on_c, 11, 56, 101
13, 129954, Note_on_c, 11, 56, 0
13, 129960, Note_on_c, 11, 55, 120
13, 129960, Note_on_c, 11, 51, 86
13, 129984, Note_on_c, 11, 51, 0
13, 129984, Note_on_c, 11, 55, 0
13, 129990, Note_on_c, 11, 51, 97
13, 129990, Note_on_c, 11, 55, 127
13, 130014, Note_on_c, 11, 55, 0
13, 130014, Note_on_c, 11, 51, 0
13, 130020, Note_on_c, 11, 55, 127
13, 130020, Note_on_c, 11, 51, 100
13, 130044, Note_on_c, 11, 51, 0
13, 130044, Note_on_c, 11, 55, 0
13, 130050, Note_on_c, 11, 58, 95
13, 130050, Note_on_c, 11, 55, 117
13, 130074, Note_on_c, 11, 55, 0
13, 130074, Note_on_c, 11, 58, 0
13, 130080, Note_on_c, 11, 58, 92
13, 130080, Note_on_c, 11, 55, 114
13, 130104, Note_on_c, 11, 55, 0
13, 130104, Note_on_c, 11, 58, 0
13, 130110, Note_on_c, 11, 55, 112
13, 130110, Note_on_c, 11, 58, 96
13, 130134, Note_on_c, 11, 58, 0
13, 130134, Note_on_c, 11, 55, 0
13, 130140, Note_on_c, 11, 58, 100
13, 130140, Note_on_c, 11, 55, 116
13, 130164, Note_on_c, 11, 55, 0
13, 130164, Note_on_c, 11, 58, 0
13, 130170, Note_on_c, 11, 58, 101
13, 130170, Note_on_c, 11, 63, 103
13, 130194, Note_on_c, 11, 63, 0
13, 130194, Note_on_c, 11, 58, 0
13, 130200, Note_on_c, 11, 58, 100
13, 130200, Note_on_c, 11, 63, 96
13, 130224, Note_on_c, 11, 63, 0
13, 130224, Note_on_c, 11, 58, 0
13, 130230, Note_on_c, 11, 58, 101
13, 130230, Note_on_c, 11, 63, 100
13, 130254, Note_on_c, 11, 63, 0
13, 130254, Note_on_c, 11, 58, 0
13, 130260, Note_on_c, 11, 58, 97
13, 130260, Note_on_c, 11, 63, 100
13, 130284, Note_on_c, 11, 63, 0
13, 130284, Note_on_c, 11, 58, 0
13, 130290, Note_on_c, 11, 58, 94
13, 130290, Note_on_c, 11, 63, 91
13, 130314, Note_on_c, 11, 63, 0
13, 130314, Note_on_c, 11, 58, 0
13, 130320, Note_on_c, 11, 58, 100
13, 130320, Note_on_c, 11, 63, 111
13, 130344, Note_on_c, 11, 63, 0
13, 130344, Note_on_c, 11, 58, 0
13, 130350, Note_on_c, 11, 63, 97
13, 130350, Note_on_c, 11, 67, 117
13, 130374, Note_on_c, 11, 67, 0
13, 130374, Note_on_c, 11, 63, 0
13, 130380, Note_on_c, 11, 67, 121
13, 130380, Note_on_c, 11, 63, 103
13, 130404, Note_on_c, 11, 63, 0
13, 130404, Note_on_c, 11, 67, 0
13, 130410, Note_on_c, 11, 67, 112
13, 130410, Note_on_c, 11, 70, 94
13, 130434, Note_on_c, 11, 70, 0
13, 130434, Note_on_c, 11, 67, 0
13, 130440, Note_on_c, 11, 67, 109
13, 130440, Note_on_c, 11, 70, 81
13, 130464, Note_on_c, 11, 70, 0
13, 130464, Note_on_c, 11, 67, 0
13, 130470, Note_on_c, 11, 67, 111
13, 130470, Note_on_c, 11, 70, 86
13, 130494, Note_on_c, 11, 70, 0
13, 130494, Note_on_c, 11, 67, 0
13, 130500, Note_on_c, 11, 67, 105
13, 130500, Note_on_c, 11, 70, 85
13, 130524, Note_on_c, 11, 70, 0
13, 130524, Note_on_c, 11, 67, 0
13, 130530, Note_on_c, 11, 67, 114
13, 130530, Note_on_c, 11, 70, 103
13, 130554, Note_on_c, 11, 70, 0
13, 130554, Note_on_c, 11, 67, 0
13, 130560, Note_on_c, 11, 67, 120
13, 130560, Note_on_c, 11, 70, 97
13, 130584, Note_on_c, 11, 70, 0
13, 130584, Note_on_c, 11, 67, 0
13, 130590, Note_on_c, 11, 67, 105
13, 130590, Note_on_c, 11, 70, 85
13, 130614, Note_on_c, 11, 70, 0
13, 130614, Note_on_c, 11, 67, 0
13, 130620, Note_on_c, 11, 67, 109
13, 130620, Note_on_c, 11, 70, 85
13, 130644, Note_on_c, 11, 70, 0
13, 130644, Note_on_c, 11, 67, 0
13, 130650, Note_on_c, 11, 67, 107
13, 130650, Note_on_c, 11, 70, 91
13, 130674, Note_on_c, 11, 70, 0
13, 130674, Note_on_c, 11, 67, 0
13, 130680, Note_on_c, 11, 67, 125
13, 130680, Note_on_c, 11, 70, 85
13, 130704, Note_on_c, 11, 70, 0
13, 130704, Note_on_c, 11, 67, 0
13, 130710, Note_on_c, 11, 67, 127
13, 130710, Note_on_c, 11, 58, 89
13, 130734, Note_on_c, 11, 58, 0
13, 130734, Note_on_c, 11, 67, 0
13, 130740, Note_on_c, 11, 68, 89
13, 130740, Note_on_c, 11, 70, 95
13, 130764, Note_on_c, 11, 70, 0
13, 130764, Note_on_c, 11, 68, 0
13, 130770, Note_on_c, 11, 56, 97
13, 130770, Note_on_c, 11, 58, 109
13, 130794, Note_on_c, 11, 58, 0
13, 130794, Note_on_c, 11, 56, 0
13, 130800, Note_on_c, 11, 56, 99
13, 130800, Note_on_c, 11, 58, 97
13, 130824, Note_on_c, 11, 58, 0
13, 130824, Note_on_c, 11, 56, 0
13, 130830, Note_on_c, 11, 56, 88
13, 130830, Note_on_c, 11, 58, 88
13, 130854, Note_on_c, 11, 58, 0
13, 130854, Note_on_c, 11, 56, 0
13, 130860, Note_on_c, 11, 56, 95
13, 130860, Note_on_c, 11, 58, 96
13, 130884, Note_on_c, 11, 58, 0
13, 130884, Note_on_c, 11, 56, 0
13, 130890, Note_on_c, 11, 56, 95
13, 130890, Note_on_c, 11, 58, 99
13, 130914, Note_on_c, 11, 58, 0
13, 130914, Note_on_c, 11, 56, 0
13, 130920, Note_on_c, 11, 55, 117
13, 130920, Note_on_c, 11, 58, 83
13, 130944, Note_on_c, 11, 58, 0
13, 130944, Note_on_c, 11, 55, 0
13, 130950, Note_on_c, 11, 55, 111
13, 130950, Note_on_c, 11, 58, 88
13, 130974, Note_on_c, 11, 58, 0
13, 130974, Note_on_c, 11, 55, 0
13, 130980, Note_on_c, 11, 55, 109
13, 130980, Note_on_c, 11, 58, 90
13, 131004, Note_on_c, 11, 58, 0
13, 131004, Note_on_c, 11, 55, 0
13, 131010, Note_on_c, 11, 58, 107
13, 131010, Note_on_c, 11, 55, 117
13, 131034, Note_on_c, 11, 55, 0
13, 131034, Note_on_c, 11, 58, 0
13, 131040, Note_on_c, 11, 58, 88
13, 131040, Note_on_c, 11, 63, 87
13, 131040, Note_on_c, 11, 55, 100
13, 131064, Note_on_c, 11, 55, 0
13, 131064, Note_on_c, 11, 63, 0
13, 131064, Note_on_c, 11, 58, 0
13, 131070, Note_on_c, 11, 63, 100
13, 131070, Note_on_c, 11, 58, 100
13, 131070, Note_on_c, 11, 55, 110
13, 131094, Note_on_c, 11, 55, 0
13, 131094, Note_on_c, 11, 58, 0
13, 131094, Note_on_c, 11, 63, 0
13, 131100, Note_on_c, 11, 58, 89
13, 131100, Note_on_c, 11, 62, 107
13, 131100, Note_on_c, 11, 53, 103
13, 131124, Note_on_c, 11, 53, 0
13, 131124, Note_on_c, 11, 62, 0
13, 131124, Note_on_c, 11, 58, 0
13, 131130, Note_on_c, 11, 62, 127
13, 131130, Note_on_c, 11, 65, 113
13, 131154, Note_on_c, 11, 65, 0
13, 131154, Note_on_c, 11, 62, 0
13, 131160, Note_on_c, 11, 62, 112
13, 131160, Note_on_c, 11, 65, 110
13, 131184, Note_on_c, 11, 65, 0
13, 131184, Note_on_c, 11, 62, 0
13, 131190, Note_on_c, 11, 62, 111
13, 131190, Note_on_c, 11, 65, 108
13, 131214, Note_on_c, 11, 65, 0
13, 131214, Note_on_c, 11, 62, 0
13, 131220, Note_on_c, 11, 62, 123
13, 131220, Note_on_c, 11, 65, 117
13, 131244, Note_on_c, 11, 65, 0
13, 131244, Note_on_c, 11, 62, 0
13, 131250, Note_on_c, 11, 66, 94
13, 131250, Note_on_c, 11, 63, 113
13, 131274, Note_on_c, 11, 63, 0
13, 131274, Note_on_c, 11, 66, 0
13, 131280, Note_on_c, 11, 62, 120
13, 131280, Note_on_c, 11, 65, 112
13, 131304, Note_on_c, 11, 65, 0
13, 131304, Note_on_c, 11, 62, 0
13, 131310, Note_on_c, 11, 62, 111
13, 131310, Note_on_c, 11, 65, 114
13, 131334, Note_on_c, 11, 65, 0
13, 131334, Note_on_c, 11, 62, 0
13, 131340, Note_on_c, 11, 62, 109
13, 131340, Note_on_c, 11, 65, 107
13, 131364, Note_on_c, 11, 65, 0
13, 131364, Note_on_c, 11, 62, 0
13, 131370, Note_on_c, 11, 62, 107
13, 131370, Note_on_c, 11, 65, 106
13, 131394, Note_on_c, 11, 65, 0
13, 131394, Note_on_c, 11, 62, 0
13, 131400, Note_on_c, 11, 65, 120
13, 131400, Note_on_c, 11, 62, 118
13, 131424, Note_on_c, 11, 62, 0
13, 131424, Note_on_c, 11, 65, 0
13, 131430, Note_on_c, 11, 64, 116
13, 131430, Note_on_c, 11, 61, 88
13, 131454, Note_on_c, 11, 61, 0
13, 131454, Note_on_c, 11, 64, 0
13, 131460, Note_on_c, 11, 63, 93
13, 131460, Note_on_c, 11, 60, 127
13, 131484, Note_on_c, 11, 60, 0
13, 131484, Note_on_c, 11, 63, 0
13, 131490, Note_on_c, 11, 60, 110
13, 131490, Note_on_c, 11, 63, 99
13, 131514, Note_on_c, 11, 63, 0
13, 131514, Note_on_c, 11, 60, 0
13, 131520, Note_on_c, 11, 60, 107
13, 131520, Note_on_c, 11, 63, 85
13, 131544, Note_on_c, 11, 63, 0
13, 131544, Note_on_c, 11, 60, 0
13, 131550, Note_on_c, 11, 63, 113
13, 131550, Note_on_c, 11, 60, 114
13, 131574, Note_on_c, 11, 60, 0
13, 131574, Note_on_c, 11, 63, 0
13, 131580, Note_on_c, 11, 62, 118
13, 131580, Note_on_c, 11, 59, 87
13, 131604, Note_on_c, 11, 59, 0
13, 131604, Note_on_c, 11, 62, 0
13, 131610, Note_on_c, 11, 62, 125
13, 131610, Note_on_c, 11, 59, 88
13, 131634, Note_on_c, 11, 59, 0
13, 131634, Note_on_c, 11, 62, 0
13, 131640, Note_on_c, 11, 58, 107
13, 131640, Note_on_c, 11, 61, 107
13, 131664, Note_on_c, 11, 61, 0
13, 131664, Note_on_c, 11, 58, 0
13, 131670, Note_on_c, 11, 58, 103
13, 131670, Note_on_c, 11, 61, 107
13, 131694, Note_on_c, 11, 61, 0
13, 131694, Note_on_c, 11, 58, 0
13, 131700, Note_on_c, 11, 61, 107
13, 131700, Note_on_c, 11, 58, 105
13, 131724, Note_on_c, 11, 58, 0
13, 131724, Note_on_c, 11, 61, 0
13, 131730, Note_on_c, 11, 58, 115
13, 131730, Note_on_c, 11, 61, 113
13, 131754, Note_on_c, 11, 61, 0
13, 131754, Note_on_c, 11, 58, 0
13, 131760, Note_on_c, 11, 60, 112
13, 131760, Note_on_c, 11, 57, 106
13, 131784, Note_on_c, 11, 57, 0
13, 131784, Note_on_c, 11, 60, 0
13, 131790, Note_on_c, 11, 60, 125
13, 131790, Note_on_c, 11, 57, 110
13, 131814, Note_on_c, 11, 57, 0
13, 131814, Note_on_c, 11, 60, 0
13, 131820, Note_on_c, 11, 56, 101
13, 131820, Note_on_c, 11, 59, 127
13, 131844, Note_on_c, 11, 59, 0
13, 131844, Note_on_c, 11, 56, 0
13, 131850, Note_on_c, 11, 56, 90
13, 131850, Note_on_c, 11, 59, 123
13, 131874, Note_on_c, 11, 59, 0
13, 131874, Note_on_c, 11, 56, 0
13, 131880, Note_on_c, 11, 56, 85
13, 131880, Note_on_c, 11, 59, 120
13, 131904, Note_on_c, 11, 59, 0
13, 131904, Note_on_c, 11, 56, 0
13, 131910, Note_on_c, 11, 59, 125
13, 131910, Note_on_c, 11, 56, 93
13, 131934, Note_on_c, 11, 56, 0
13, 131934, Note_on_c, 11, 59, 0
13, 131940, Note_on_c, 11, 58, 93
13, 131940, Note_on_c, 11, 55, 107
13, 131964, Note_on_c, 11, 55, 0
13, 131964, Note_on_c, 11, 58, 0
13, 131970, Note_on_c, 11, 54, 100
13, 131970, Note_on_c, 11, 57, 121
13, 131994, Note_on_c, 11, 57, 0
13, 131994, Note_on_c, 11, 54, 0
13, 132000, Note_on_c, 11, 56, 103
13, 132000, Note_on_c, 11, 53, 100
13, 132024, Note_on_c, 11, 53, 0
13, 132024, Note_on_c, 11, 56, 0
13, 132030, Note_on_c, 11, 56, 111
13, 132030, Note_on_c, 11, 53, 105
13, 132054, Note_on_c, 11, 53, 0
13, 132054, Note_on_c, 11, 56, 0
13, 132060, Note_on_c, 11, 56, 100
13, 132060, Note_on_c, 11, 53, 103
13, 132084, Note_on_c, 11, 53, 0
13, 132084, Note_on_c, 11, 56, 0
13, 132090, Note_on_c, 11, 56, 103
13, 132090, Note_on_c, 11, 53, 102
13, 132114, Note_on_c, 11, 53, 0
13, 132114, Note_on_c, 11, 56, 0
13, 132120, Note_on_c, 11, 56, 100
13, 132120, Note_on_c, 11, 53, 111
13, 132144, Note_on_c, 11, 53, 0
13, 132144, Note_on_c, 11, 56, 0
13, 132150, Note_on_c, 11, 56, 103
13, 132150, Note_on_c, 11, 53, 110
13, 132174, Note_on_c, 11, 53, 0
13, 132174, Note_on_c, 11, 56, 0
13, 132180, Note_on_c, 11, 56, 103
13, 132180, Note_on_c, 11, 53, 112
13, 132204, Note_on_c, 11, 53, 0
13, 132204, Note_on_c, 11, 56, 0
13, 132210, Note_on_c, 11, 55, 116
13, 132210, Note_on_c, 11, 58, 111
13, 132234, Note_on_c, 11, 58, 0
13, 132234, Note_on_c, 11, 55, 0
13, 132240, Note_on_c, 11, 56, 107
13, 132240, Note_on_c, 11, 53, 111
13, 132264, Note_on_c, 11, 53, 0
13, 132264, Note_on_c, 11, 56, 0
13, 132270, Note_on_c, 11, 56, 107
13, 132270, Note_on_c, 11, 53, 107
13, 132294, Note_on_c, 11, 53, 0
13, 132294, Note_on_c, 11, 56, 0
13, 132300, Note_on_c, 11, 56, 109
13, 132300, Note_on_c, 11, 53, 109
13, 132324, Note_on_c, 11, 53, 0
13, 132324, Note_on_c, 11, 56, 0
13, 132330, Note_on_c, 11, 56, 109
13, 132330, Note_on_c, 11, 53, 108
13, 132354, Note_on_c, 11, 53, 0
13, 132354, Note_on_c, 11, 56, 0
13, 132360, Note_on_c, 11, 56, 91
13, 132360, Note_on_c, 11, 53, 103
13, 132384, Note_on_c, 11, 53, 0
13, 132384, Note_on_c, 11, 56, 0
13, 132390, Note_on_c, 11, 56, 97
13, 132414, Note_on_c, 11, 56, 0
13, 132420, Note_on_c, 11, 56, 109
13, 132420, Note_on_c, 11, 53, 102
13, 132444, Note_on_c, 11, 53, 0
13, 132444, Note_on_c, 11, 56, 0
13, 132450, Note_on_c, 11, 58, 82
13, 132450, Note_on_c, 11, 56, 87
13, 132450, Note_on_c, 11, 53, 103
13, 132474, Note_on_c, 11, 53, 0
13, 132474, Note_on_c, 11, 56, 0
13, 132474, Note_on_c, 11, 58, 0
13, 132480, Note_on_c, 11, 58, 89
13, 132480, Note_on_c, 11, 56, 96
13, 132480, Note_on_c, 11, 53, 109
13, 132504, Note_on_c, 11, 53, 0
13, 132504, Note_on_c, 11, 56, 0
13, 132504, Note_on_c, 11, 58, 0
13, 132510, Note_on_c, 11, 58, 95
13, 132510, Note_on_c, 11, 56, 101
13, 132510, Note_on_c, 11, 53, 111
13, 132534, Note_on_c, 11, 53, 0
13, 132534, Note_on_c, 11, 56, 0
13, 132534, Note_on_c, 11, 58, 0
13, 132540, Note_on_c, 11, 51, 80
13, 132540, Note_on_c, 11, 55, 80
13, 132540, Note_on_c, 11, 58, 80
13, 132564, Note_on_c, 11, 58, 0
13, 132564, Note_on_c, 11, 55, 0
13, 132564, Note_on_c, 11, 51, 0
13, 132570, Note_on_c, 11, 58, 95
13, 132570, Note_on_c, 11, 55, 120
13, 132570, Note_on_c, 11, 51, 87
13, 132594, Note_on_c, 11, 51, 0
13, 132594, Note_on_c, 11, 55, 0
13, 132594, Note_on_c, 11, 58, 0
13, 132600, Note_on_c, 11, 55, 110
13, 132600, Note_on_c, 11, 58, 86
13, 132600, Note_on_c, 11, 51, 85
13, 132624, Note_on_c, 11, 51, 0
13, 132624, Note_on_c, 11, 58, 0
13, 132624, Note_on_c, 11, 55, 0
13, 132630, Note_on_c, 11, 58, 92
13, 132630, Note_on_c, 11, 51, 83
13, 132630, Note_on_c, 11, 55, 120
13, 132654, Note_on_c, 11, 55, 0
13, 132654, Note_on_c, 11, 51, 0
13, 132654, Note_on_c, 11, 58, 0
13, 132660, Note_on_c, 11, 55, 127
13, 132660, Note_on_c, 11, 58, 100
13, 132660, Note_on_c, 11, 51, 91
13, 132684, Note_on_c, 11, 51, 0
13, 132684, Note_on_c, 11, 58, 0
13, 132684, Note_on_c, 11, 55, 0
13, 132690, Note_on_c, 11, 58, 101
13, 132690, Note_on_c, 11, 55, 127
13, 132690, Note_on_c, 11, 51, 97
13, 132714, Note_on_c, 11, 51, 0
13, 132714, Note_on_c, 11, 55, 0
13, 132714, Note_on_c, 11, 58, 0
13, 132720, Note_on_c, 11, 58, 103
13, 132720, Note_on_c, 11, 55, 127
13, 132720, Note_on_c, 11, 51, 99
13, 132816, Note_on_c, 11, 51, 0
13, 132816, Note_on_c, 11, 55, 0
13, 132816, Note_on_c, 11, 58, 0
13, 134285, Control_c, 11, 7, 94
13, 134820, Note_on_c, 11, 51, 121
13, 134868, Note_on_c, 11, 51, 0
13, 134880, Note_on_c, 11, 51, 127
13, 134952, Note_on_c, 11, 51, 0
13, 134970, Note_on_c, 11, 53, 118
13, 134994, Note_on_c, 11, 53, 0
13, 135000, Note_on_c, 11, 55, 103
13, 135048, Note_on_c, 11, 55, 0
13, 135060, Note_on_c, 11, 56, 86
13, 135119, Note_on_c, 11, 56, 0
13, 135180, Note_on_c, 11, 53, 97
13, 135228, Note_on_c, 11, 53, 0
13, 135240, Note_on_c, 11, 53, 100
13, 135312, Note_on_c, 11, 53, 0
13, 135330, Note_on_c, 11, 55, 120
13, 135358, Note_on_c, 11, 55, 0
13, 135360, Note_on_c, 11, 56, 123
13, 135408, Note_on_c, 11, 56, 0
13, 135420, Note_on_c, 11, 58, 93
13, 135719, Note_on_c, 11, 58, 0
13, 135780, Note_on_c, 11, 55, 127
13, 135876, Note_on_c, 11, 55, 0
13, 137580, Note_on_c, 11, 51, 127
13, 137580, Note_on_c, 11, 55, 127
13, 137604, Note_on_c, 11, 55, 0
13, 137604, Note_on_c, 11, 51, 0
13, 137610, Note_on_c, 11, 55, 127
13, 137610, Note_on_c, 11, 51, 115
13, 137634, Note_on_c, 11, 51, 0
13, 137634, Note_on_c, 11, 55, 0
13, 137640, Note_on_c, 11, 51, 118
13, 137640, Note_on_c, 11, 55, 127
13, 137664, Note_on_c, 11, 55, 0
13, 137664, Note_on_c, 11, 51, 0
13, 137670, Note_on_c, 11, 51, 113
13, 137670, Note_on_c, 11, 55, 127
13, 137694, Note_on_c, 11, 55, 0
13, 137694, Note_on_c, 11, 51, 0
13, 137700, Note_on_c, 11, 51, 115
13, 137700, Note_on_c, 11, 55, 127
13, 137724, Note_on_c, 11, 55, 0
13, 137724, Note_on_c, 11, 51, 0
13, 137730, Note_on_c, 11, 55, 127
13, 137730, Note_on_c, 11, 51, 113
13, 137754, Note_on_c, 11, 51, 0
13, 137754, Note_on_c, 11, 55, 0
13, 137760, Note_on_c, 11, 51, 113
13, 137760, Note_on_c, 11, 55, 127
13, 137784, Note_on_c, 11, 55, 0
13, 137784, Note_on_c, 11, 51, 0
13, 137790, Note_on_c, 11, 51, 113
13, 137790, Note_on_c, 11, 55, 127
13, 137814, Note_on_c, 11, 55, 0
13, 137814, Note_on_c, 11, 51, 0
13, 137820, Note_on_c, 11, 51, 107
13, 137820, Note_on_c, 11, 55, 127
13, 137844, Note_on_c, 11, 55, 0
13, 137844, Note_on_c, 11, 51, 0
13, 137850, Note_on_c, 11, 51, 99
13, 137850, Note_on_c, 11, 55, 120
13, 137874, Note_on_c, 11, 55, 0
13, 137874, Note_on_c, 11, 51, 0
13, 137880, Note_on_c, 11, 51, 97
13, 137880, Note_on_c, 11, 55, 121
13, 137904, Note_on_c, 11, 55, 0
13, 137904, Note_on_c, 11, 51, 0
13, 137910, Note_on_c, 11, 51, 118
13, 137910, Note_on_c, 11, 55, 127
13, 137934, Note_on_c, 11, 55, 0
13, 137934, Note_on_c, 11, 51, 0
13, 137940, Note_on_c, 11, 55, 105
13, 137940, Note_on_c, 11, 51, 127
13, 137964, Note_on_c, 11, 51, 0
13, 137964, Note_on_c, 11, 55, 0
13, 137970, Note_on_c, 11, 55, 115
13, 137970, Note_on_c, 11, 51, 127
13, 137994, Note_on_c, 11, 51, 0
13, 137994, Note_on_c, 11, 55, 0
13, 138000, Note_on_c, 11, 55, 107
13, 138000, Note_on_c, 11, 51, 127
13, 138024, Note_on_c, 11, 51, 0
13, 138024, Note_on_c, 11, 55, 0
13, 138030, Note_on_c, 11, 55, 100
13, 138030, Note_on_c, 11, 51, 127
13, 138054, Note_on_c, 11, 51, 0
13, 138054, Note_on_c, 11, 55, 0
13, 138060, Note_on_c, 11, 55, 107
13, 138060, Note_on_c, 11, 51, 127
13, 138084, Note_on_c, 11, 51, 0
13, 138084, Note_on_c, 11, 55, 0
13, 138090, Note_on_c, 11, 55, 109
13, 138090, Note_on_c, 11, 51, 127
13, 138114, Note_on_c, 11, 51, 0
13, 138114, Note_on_c, 11, 55, 0
13, 138120, Note_on_c, 11, 50, 125
13, 138120, Note_on_c, 11, 56, 105
13, 138144, Note_on_c, 11, 56, 0
13, 138144, Note_on_c, 11, 50, 0
13, 138150, Note_on_c, 11, 50, 127
13, 138150, Note_on_c, 11, 56, 107
13, 138174, Note_on_c, 11, 56, 0
13, 138174, Note_on_c, 11, 50, 0
13, 138180, Note_on_c, 11, 56, 111
13, 138180, Note_on_c, 11, 50, 127
13, 138204, Note_on_c, 11, 50, 0
13, 138204, Note_on_c, 11, 56, 0
13, 138210, Note_on_c, 11, 56, 109
13, 138210, Note_on_c, 11, 50, 127
13, 138234, Note_on_c, 11, 50, 0
13, 138234, Note_on_c, 11, 56, 0
13, 138240, Note_on_c, 11, 56, 109
13, 138240, Note_on_c, 11, 50, 127
13, 138264, Note_on_c, 11, 50, 0
13, 138264, Note_on_c, 11, 56, 0
13, 138270, Note_on_c, 11, 50, 123
13, 138270, Note_on_c, 11, 56, 93
13, 138294, Note_on_c, 11, 56, 0
13, 138294, Note_on_c, 11, 50, 0
13, 138300, Note_on_c, 11, 51, 95
13, 138300, Note_on_c, 11, 55, 117
13, 138396, Note_on_c, 11, 55, 0
13, 138396, Note_on_c, 11, 51, 0
13, 143285, Control_c, 11, 7, 126
13, 143340, Note_on_c, 11, 55, 127
13, 143340, Note_on_c, 11, 51, 113
13, 143436, Note_on_c, 11, 51, 0
13, 143436, Note_on_c, 11, 55, 0
13, 143730, Note_on_c, 11, 51, 126
13, 143754, Note_on_c, 11, 51, 0
13, 143760, Note_on_c, 11, 53, 127
13, 143784, Note_on_c, 11, 53, 0
13, 143790, Note_on_c, 11, 55, 106
13, 143814, Note_on_c, 11, 55, 0
13, 143820, Note_on_c, 11, 56, 121
13, 143844, Note_on_c, 11, 56, 0
13, 143850, Note_on_c, 11, 58, 123
13, 143874, Note_on_c, 11, 58, 0
13, 143880, Note_on_c, 11, 60, 127
13, 143904, Note_on_c, 11, 60, 0
13, 143910, Note_on_c, 11, 59, 123
13, 143934, Note_on_c, 11, 59, 0
13, 143940, Note_on_c, 11, 60, 127
13, 143964, Note_on_c, 11, 60, 0
13, 143970, Note_on_c, 11, 62, 99
13, 143994, Note_on_c, 11, 62, 0
13, 144000, Note_on_c, 11, 63, 127
13, 144024, Note_on_c, 11, 63, 0
13, 144030, Note_on_c, 11, 60, 127
13, 144054, Note_on_c, 11, 60, 0
13, 144060, Note_on_c, 11, 58, 127
13, 144156, Note_on_c, 11, 58, 0
13, 144420, Note_on_c, 11, 56, 121
13, 144444, Note_on_c, 11, 56, 0
13, 144450, Note_on_c, 11, 58, 121
13, 144474, Note_on_c, 11, 58, 0
13, 144480, Note_on_c, 11, 56, 127
13, 144504, Note_on_c, 11, 56, 0
13, 144510, Note_on_c, 11, 58, 127
13, 144534, Note_on_c, 11, 58, 0
13, 144540, Note_on_c, 11, 56, 127
13, 144564, Note_on_c, 11, 56, 0
13, 144570, Note_on_c, 11, 58, 127
13, 144594, Note_on_c, 11, 58, 0
13, 144600, Note_on_c, 11, 56, 127
13, 144624, Note_on_c, 11, 56, 0
13, 144630, Note_on_c, 11, 58, 127
13, 144654, Note_on_c, 11, 58, 0
13, 144660, Note_on_c, 11, 56, 127
13, 144684, Note_on_c, 11, 56, 0
13, 144690, Note_on_c, 11, 58, 126
13, 144714, Note_on_c, 11, 58, 0
13, 144720, Note_on_c, 11, 56, 127
13, 144744, Note_on_c, 11, 56, 0
13, 144750, Note_on_c, 11, 58, 127
13, 144774, Note_on_c, 11, 58, 0
13, 144780, Note_on_c, 11, 51, 118
13, 144780, Note_on_c, 11, 55, 127
13, 144876, Note_on_c, 11, 55, 0
13, 144876, Note_on_c, 11, 51, 0
13, 153060, Note_on_c, 11, 55, 127
13, 153108, Note_on_c, 11, 55, 0
13, 153120, Note_on_c, 11, 58, 127
13, 153168, Note_on_c, 11, 58, 0
13, 153180, Note_on_c, 11, 58, 126
13, 153228, Note_on_c, 11, 58, 0
13, 153240, Note_on_c, 11, 63, 126
13, 153288, Note_on_c, 11, 63, 0
13, 153360, Note_on_c, 11, 63, 118
13, 153384, Note_on_c, 11, 63, 0
13, 153390, Note_on_c, 11, 67, 127
13, 153414, Note_on_c, 11, 67, 0
13, 153420, Note_on_c, 11, 58, 123
13, 153444, Note_on_c, 11, 58, 0
13, 153450, Note_on_c, 11, 63, 105
13, 153450, Note_on_c, 11, 55, 117
13, 153474, Note_on_c, 11, 55, 0
13, 153474, Note_on_c, 11, 63, 0
13, 153480, Note_on_c, 11, 63, 109
13, 153480, Note_on_c, 11, 55, 123
13, 153696, Note_on_c, 11, 55, 0
13, 153696, Note_on_c, 11, 63, 0
13, 153720, Note_on_c, 11, 58, 121
13, 153768, Note_on_c, 11, 58, 0
13, 153780, Note_on_c, 11, 58, 118
13, 153804, Note_on_c, 11, 58, 0
13, 153810, Note_on_c, 11, 62, 127
13, 153810, Note_on_c, 11, 65, 127
13, 153834, Note_on_c, 11, 65, 0
13, 153834, Note_on_c, 11, 62, 0
13, 153840, Note_on_c, 11, 62, 127
13, 153840, Note_on_c, 11, 65, 127
13, 154056, Note_on_c, 11, 65, 0
13, 154056, Note_on_c, 11, 62, 0
13, 154080, Note_on_c, 11, 58, 111
13, 154128, Note_on_c, 11, 58, 0
13, 154140, Note_on_c, 11, 58, 127
13, 154164, Note_on_c, 11, 58, 0
13, 154170, Note_on_c, 11, 67, 105
13, 154170, Note_on_c, 11, 63, 123
13, 154194, Note_on_c, 11, 63, 0
13, 154194, Note_on_c, 11, 67, 0
13, 154200, Note_on_c, 11, 63, 109
13, 154200, Note_on_c, 11, 67, 127
13, 154296, Note_on_c, 11, 67, 0
13, 154296, Note_on_c, 11, 63, 0
13, 154320, Note_on_c, 11, 58, 118
13, 154344, Note_on_c, 11, 58, 0
13, 154350, Note_on_c, 11, 63, 99
13, 154350, Note_on_c, 11, 67, 127
13, 154374, Note_on_c, 11, 67, 0
13, 154374, Note_on_c, 11, 63, 0
13, 154380, Note_on_c, 11, 63, 111
13, 154380, Note_on_c, 11, 67, 125
13, 154476, Note_on_c, 11, 67, 0
13, 154476, Note_on_c, 11, 63, 0
13, 154500, Note_on_c, 11, 58, 127
13, 154524, Note_on_c, 11, 58, 0
13, 154530, Note_on_c, 11, 63, 123
13, 154530, Note_on_c, 11, 67, 105
13, 154554, Note_on_c, 11, 67, 0
13, 154554, Note_on_c, 11, 63, 0
13, 154560, Note_on_c, 11, 67, 127
13, 154560, Note_on_c, 11, 63, 109
13, 154656, Note_on_c, 11, 63, 0
13, 154656, Note_on_c, 11, 67, 0
13, 154680, Note_on_c, 11, 58, 118
13, 154704, Note_on_c, 11, 58, 0
13, 154710, Note_on_c, 11, 67, 127
13, 154710, Note_on_c, 11, 63, 99
13, 154734, Note_on_c, 11, 63, 0
13, 154734, Note_on_c, 11, 67, 0
13, 154740, Note_on_c, 11, 67, 125
13, 154740, Note_on_c, 11, 63, 111
13, 154836, Note_on_c, 11, 63, 0
13, 154836, Note_on_c, 11, 67, 0
13, 154860, Note_on_c, 11, 67, 127
13, 154860, Note_on_c, 11, 51, 126
13, 154860, Note_on_c, 11, 58, 99
13, 154956, Note_on_c, 11, 58, 0
13, 154956, Note_on_c, 11, 51, 0
13, 154956, Note_on_c, 11, 67, 0
13, 155040, Note_on_c, 11, 58, 100
13, 155040, Note_on_c, 11, 55, 123
13, 155136, Note_on_c, 11, 55, 0
13, 155136, Note_on_c, 11, 58, 0
13, 155220, Note_on_c, 11, 51, 123
13, 155316, Note_on_c, 11, 51, 0
13, 155316, End_track
14, 0, Start_track
14, 0, MIDI_port, 0
14, 0, Title_t, "Cello"
14, 0, Program_c, 12, 42
14, 0, Control_c, 12, 7, 100
14, 0, Control_c, 12, 10, 90
14, 0, Control_c, 12, 93, 0
14, 0, Control_c, 12, 91, 0
14, 4980, Note_on_c, 12, 50, 127
14, 5004, Note_on_c, 12, 50, 0
14, 5010, Note_on_c, 12, 49, 126
14, 5034, Note_on_c, 12, 49, 0
14, 5040, Note_on_c, 12, 49, 127
14, 5088, Note_on_c, 12, 49, 0
14, 5160, Note_on_c, 12, 48, 127
14, 5184, Note_on_c, 12, 48, 0
14, 5190, Note_on_c, 12, 47, 117
14, 5214, Note_on_c, 12, 47, 0
14, 5220, Note_on_c, 12, 47, 127
14, 5268, Note_on_c, 12, 47, 0
14, 5340, Note_on_c, 12, 46, 127
14, 5364, Note_on_c, 12, 46, 0
14, 5370, Note_on_c, 12, 45, 127
14, 5394, Note_on_c, 12, 45, 0
14, 5400, Note_on_c, 12, 45, 125
14, 5448, Note_on_c, 12, 45, 0
14, 5520, Note_on_c, 12, 44, 99
14, 5544, Note_on_c, 12, 44, 0
14, 5550, Note_on_c, 12, 43, 121
14, 5574, Note_on_c, 12, 43, 0
14, 5580, Note_on_c, 12, 43, 127
14, 5628, Note_on_c, 12, 43, 0
14, 5700, Note_on_c, 12, 41, 121
14, 5724, Note_on_c, 12, 41, 0
14, 5730, Note_on_c, 12, 39, 118
14, 5754, Note_on_c, 12, 39, 0
14, 5760, Note_on_c, 12, 39, 123
14, 5808, Note_on_c, 12, 39, 0
14, 5820, Note_on_c, 12, 39, 111
14, 5868, Note_on_c, 12, 39, 0
14, 5880, Note_on_c, 12, 39, 115
14, 5928, Note_on_c, 12, 39, 0
14, 5940, Note_on_c, 12, 39, 127
14, 6036, Note_on_c, 12, 39, 0
14, 6060, Note_on_c, 12, 39, 113
14, 6108, Note_on_c, 12, 39, 0
14, 6120, Note_on_c, 12, 39, 121
14, 6168, Note_on_c, 12, 39, 0
14, 6180, Note_on_c, 12, 39, 121
14, 6396, Note_on_c, 12, 39, 0
14, 6420, Note_on_c, 12, 51, 118
14, 6468, Note_on_c, 12, 51, 0
14, 6480, Note_on_c, 12, 50, 118
14, 6528, Note_on_c, 12, 50, 0
14, 6600, Note_on_c, 12, 46, 115
14, 6648, Note_on_c, 12, 46, 0
14, 6660, Note_on_c, 12, 51, 115
14, 6708, Note_on_c, 12, 51, 0
14, 6780, Note_on_c, 12, 55, 127
14, 6828, Note_on_c, 12, 55, 0
14, 6840, Note_on_c, 12, 58, 126
14, 6888, Note_on_c, 12, 58, 0
14, 6900, Note_on_c, 12, 46, 113
14, 6948, Note_on_c, 12, 46, 0
14, 6960, Note_on_c, 12, 46, 121
14, 7008, Note_on_c, 12, 46, 0
14, 7020, Note_on_c, 12, 46, 123
14, 7068, Note_on_c, 12, 46, 0
14, 7080, Note_on_c, 12, 46, 127
14, 7104, Note_on_c, 12, 46, 0
14, 7110, Note_on_c, 12, 44, 113
14, 7134, Note_on_c, 12, 44, 0
14, 7140, Note_on_c, 12, 43, 127
14, 7164, Note_on_c, 12, 43, 0
14, 7170, Note_on_c, 12, 41, 123
14, 7194, Note_on_c, 12, 41, 0
14, 7200, Note_on_c, 12, 39, 123
14, 7248, Note_on_c, 12, 39, 0
14, 7260, Note_on_c, 12, 39, 126
14, 7308, Note_on_c, 12, 39, 0
14, 7320, Note_on_c, 12, 39, 123
14, 7368, Note_on_c, 12, 39, 0
14, 7380, Note_on_c, 12, 39, 121
14, 7476, Note_on_c, 12, 39, 0
14, 7500, Note_on_c, 12, 39, 121
14, 7548, Note_on_c, 12, 39, 0
14, 7560, Note_on_c, 12, 39, 113
14, 7608, Note_on_c, 12, 39, 0
14, 7620, Note_on_c, 12, 39, 121
14, 7836, Note_on_c, 12, 39, 0
14, 7860, Note_on_c, 12, 51, 107
14, 7908, Note_on_c, 12, 51, 0
14, 7920, Note_on_c, 12, 50, 127
14, 7968, Note_on_c, 12, 50, 0
14, 8040, Note_on_c, 12, 46, 109
14, 8088, Note_on_c, 12, 46, 0
14, 8100, Note_on_c, 12, 51, 88
14, 8148, Note_on_c, 12, 51, 0
14, 8220, Note_on_c, 12, 55, 125
14, 8268, Note_on_c, 12, 55, 0
14, 8280, Note_on_c, 12, 58, 76
14, 8328, Note_on_c, 12, 58, 0
14, 8340, Note_on_c, 12, 46, 111
14, 8388, Note_on_c, 12, 46, 0
14, 8400, Note_on_c, 12, 46, 107
14, 8448, Note_on_c, 12, 46, 0
14, 8460, Note_on_c, 12, 46, 111
14, 8508, Note_on_c, 12, 46, 0
14, 8520, Note_on_c, 12, 46, 113
14, 8568, Note_on_c, 12, 46, 0
14, 8580, Note_on_c, 12, 46, 109
14, 8628, Note_on_c, 12, 46, 0
14, 8640, Note_on_c, 12, 46, 115
14, 8736, Note_on_c, 12, 46, 0
14, 8820, Note_on_c, 12, 46, 113
14, 8916, Note_on_c, 12, 46, 0
14, 9000, Note_on_c, 12, 46, 115
14, 9096, Note_on_c, 12, 46, 0
14, 9180, Note_on_c, 12, 46, 113
14, 9276, Note_on_c, 12, 46, 0
14, 9360, Note_on_c, 12, 46, 111
14, 9456, Note_on_c, 12, 46, 0
14, 9480, Note_on_c, 12, 46, 105
14, 9528, Note_on_c, 12, 46, 0
14, 9540, Note_on_c, 12, 46, 115
14, 9612, Note_on_c, 12, 46, 0
14, 9630, Note_on_c, 12, 46, 123
14, 9654, Note_on_c, 12, 46, 0
14, 9660, Note_on_c, 12, 46, 111
14, 9708, Note_on_c, 12, 46, 0
14, 9720, Note_on_c, 12, 51, 121
14, 9816, Note_on_c, 12, 51, 0
14, 9840, Note_on_c, 12, 51, 113
14, 9888, Note_on_c, 12, 51, 0
14, 9900, Note_on_c, 12, 51, 111
14, 9996, Note_on_c, 12, 51, 0
14, 10020, Note_on_c, 12, 46, 111
14, 10068, Note_on_c, 12, 46, 0
14, 10080, Note_on_c, 12, 46, 111
14, 10176, Note_on_c, 12, 46, 0
14, 10200, Note_on_c, 12, 46, 118
14, 10248, Note_on_c, 12, 46, 0
14, 10260, Note_on_c, 12, 46, 115
14, 10332, Note_on_c, 12, 46, 0
14, 10350, Note_on_c, 12, 46, 121
14, 10374, Note_on_c, 12, 46, 0
14, 10380, Note_on_c, 12, 46, 123
14, 10428, Note_on_c, 12, 46, 0
14, 10440, Note_on_c, 12, 51, 118
14, 10716, Note_on_c, 12, 51, 0
14, 10740, Note_on_c, 12, 39, 126
14, 10788, Note_on_c, 12, 39, 0
14, 10800, Note_on_c, 12, 53, 127
14, 11076, Note_on_c, 12, 53, 0
14, 11100, Note_on_c, 12, 41, 127
14, 11148, Note_on_c, 12, 41, 0
14, 11160, Note_on_c, 12, 55, 127
14, 11436, Note_on_c, 12, 55, 0
14, 11460, Note_on_c, 12, 43, 127
14, 11508, Note_on_c, 12, 43, 0
14, 11520, Note_on_c, 12, 44, 126
14, 11592, Note_on_c, 12, 44, 0
14, 11610, Note_on_c, 12, 56, 115
14, 11634, Note_on_c, 12, 56, 0
14, 11640, Note_on_c, 12, 56, 115
14, 11688, Note_on_c, 12, 56, 0
14, 11700, Note_on_c, 12, 56, 111
14, 11772, Note_on_c, 12, 56, 0
14, 11790, Note_on_c, 12, 56, 118
14, 11814, Note_on_c, 12, 56, 0
14, 11820, Note_on_c, 12, 57, 123
14, 11868, Note_on_c, 12, 57, 0
14, 11880, Note_on_c, 12, 58, 115
14, 11952, Note_on_c, 12, 58, 0
14, 11970, Note_on_c, 12, 57, 114
14, 11994, Note_on_c, 12, 57, 0
14, 12000, Note_on_c, 12, 56, 113
14, 12048, Note_on_c, 12, 56, 0
14, 12060, Note_on_c, 12, 55, 117
14, 12132, Note_on_c, 12, 55, 0
14, 12150, Note_on_c, 12, 53, 127
14, 12174, Note_on_c, 12, 53, 0
14, 12180, Note_on_c, 12, 51, 113
14, 12228, Note_on_c, 12, 51, 0
14, 12240, Note_on_c, 12, 56, 123
14, 12336, Note_on_c, 12, 56, 0
14, 12420, Note_on_c, 12, 46, 121
14, 12516, Note_on_c, 12, 46, 0
14, 12600, Note_on_c, 12, 51, 121
14, 12696, Note_on_c, 12, 51, 0
14, 12960, Note_on_c, 12, 60, 127
14, 13104, Note_on_c, 12, 60, 0
14, 13140, Note_on_c, 12, 56, 107
14, 13284, Note_on_c, 12, 56, 0
14, 13320, Note_on_c, 12, 55, 120
14, 13416, Note_on_c, 12, 55, 0
14, 13680, Note_on_c, 12, 58, 121
14, 13824, Note_on_c, 12, 58, 0
14, 13860, Note_on_c, 12, 46, 121
14, 14004, Note_on_c, 12, 46, 0
14, 14040, Note_on_c, 12, 51, 121
14, 14136, Note_on_c, 12, 51, 0
14, 14400, Note_on_c, 12, 51, 111
14, 14496, Note_on_c, 12, 51, 0
14, 14760, Note_on_c, 12, 51, 126
14, 14856, Note_on_c, 12, 51, 0
14, 19200, Note_on_c, 12, 53, 94
14, 19248, Note_on_c, 12, 53, 0
14, 19260, Note_on_c, 12, 53, 93
14, 19356, Note_on_c, 12, 53, 0
14, 19920, Note_on_c, 12, 56, 84
14, 19968, Note_on_c, 12, 56, 0
14, 19980, Note_on_c, 12, 56, 86
14, 20076, Note_on_c, 12, 56, 0
14, 21960, Note_on_c, 12, 39, 111
14, 22188, Note_on_c, 12, 39, 0
14, 22200, Note_on_c, 12, 56, 121
14, 22248, Note_on_c, 12, 56, 0
14, 22260, Note_on_c, 12, 55, 120
14, 22308, Note_on_c, 12, 55, 0
14, 22320, Note_on_c, 12, 53, 120
14, 22368, Note_on_c, 12, 53, 0
14, 22380, Note_on_c, 12, 51, 103
14, 22428, Note_on_c, 12, 51, 0
14, 22440, Note_on_c, 12, 50, 120
14, 22488, Note_on_c, 12, 50, 0
14, 22500, Note_on_c, 12, 48, 120
14, 22548, Note_on_c, 12, 48, 0
14, 22560, Note_on_c, 12, 46, 103
14, 22608, Note_on_c, 12, 46, 0
14, 22620, Note_on_c, 12, 45, 123
14, 22668, Note_on_c, 12, 45, 0
14, 22680, Note_on_c, 12, 43, 109
14, 22728, Note_on_c, 12, 43, 0
14, 22740, Note_on_c, 12, 41, 105
14, 22788, Note_on_c, 12, 41, 0
14, 22800, Note_on_c, 12, 53, 101
14, 22848, Note_on_c, 12, 53, 0
14, 22860, Note_on_c, 12, 53, 111
14, 22908, Note_on_c, 12, 53, 0
14, 22920, Note_on_c, 12, 53, 113
14, 22968, Note_on_c, 12, 53, 0
14, 22980, Note_on_c, 12, 53, 110
14, 23028, Note_on_c, 12, 53, 0
14, 23040, Note_on_c, 12, 53, 116
14, 23136, Note_on_c, 12, 53, 0
14, 23760, Note_on_c, 12, 50, 116
14, 23856, Note_on_c, 12, 50, 0
14, 24480, Note_on_c, 12, 51, 115
14, 24576, Note_on_c, 12, 51, 0
14, 28980, Note_on_c, 12, 46, 111
14, 29076, Note_on_c, 12, 46, 0
14, 29100, Note_on_c, 12, 46, 100
14, 29148, Note_on_c, 12, 46, 0
14, 29160, Note_on_c, 12, 46, 115
14, 29304, Note_on_c, 12, 46, 0
14, 29340, Note_on_c, 12, 51, 127
14, 29484, Note_on_c, 12, 51, 0
14, 29520, Note_on_c, 12, 46, 123
14, 29664, Note_on_c, 12, 46, 0
14, 29700, Note_on_c, 12, 51, 123
14, 29844, Note_on_c, 12, 51, 0
14, 29880, Note_on_c, 12, 46, 111
14, 29976, Note_on_c, 12, 46, 0
14, 30000, Note_on_c, 12, 51, 121
14, 30048, Note_on_c, 12, 51, 0
14, 30060, Note_on_c, 12, 46, 109
14, 30156, Note_on_c, 12, 46, 0
14, 30180, Note_on_c, 12, 51, 109
14, 30228, Note_on_c, 12, 51, 0
14, 30240, Note_on_c, 12, 46, 113
14, 30336, Note_on_c, 12, 46, 0
14, 30360, Note_on_c, 12, 51, 111
14, 30408, Note_on_c, 12, 51, 0
14, 30420, Note_on_c, 12, 46, 121
14, 30516, Note_on_c, 12, 46, 0
14, 30540, Note_on_c, 12, 51, 123
14, 30588, Note_on_c, 12, 51, 0
14, 30600, Note_on_c, 12, 46, 121
14, 30696, Note_on_c, 12, 46, 0
14, 38460, Note_on_c, 12, 51, 111
14, 38508, Note_on_c, 12, 51, 0
14, 38520, Note_on_c, 12, 46, 88
14, 38616, Note_on_c, 12, 46, 0
14, 38640, Note_on_c, 12, 46, 111
14, 38688, Note_on_c, 12, 46, 0
14, 38700, Note_on_c, 12, 46, 109
14, 38772, Note_on_c, 12, 46, 0
14, 38790, Note_on_c, 12, 46, 115
14, 38814, Note_on_c, 12, 46, 0
14, 38820, Note_on_c, 12, 46, 111
14, 38868, Note_on_c, 12, 46, 0
14, 38880, Note_on_c, 12, 39, 90
14, 38976, Note_on_c, 12, 39, 0
14, 39000, Note_on_c, 12, 39, 105
14, 39048, Note_on_c, 12, 39, 0
14, 39060, Note_on_c, 12, 39, 111
14, 39156, Note_on_c, 12, 39, 0
14, 39900, Note_on_c, 12, 51, 121
14, 39948, Note_on_c, 12, 51, 0
14, 39960, Note_on_c, 12, 50, 127
14, 40056, Note_on_c, 12, 50, 0
14, 40080, Note_on_c, 12, 50, 125
14, 40128, Note_on_c, 12, 50, 0
14, 40140, Note_on_c, 12, 50, 127
14, 40212, Note_on_c, 12, 50, 0
14, 40230, Note_on_c, 12, 51, 118
14, 40254, Note_on_c, 12, 51, 0
14, 40260, Note_on_c, 12, 53, 113
14, 40308, Note_on_c, 12, 53, 0
14, 40320, Note_on_c, 12, 53, 127
14, 40368, Note_on_c, 12, 53, 0
14, 40380, Note_on_c, 12, 55, 127
14, 40428, Note_on_c, 12, 55, 0
14, 40440, Note_on_c, 12, 51, 118
14, 40488, Note_on_c, 12, 51, 0
14, 40500, Note_on_c, 12, 51, 111
14, 40596, Note_on_c, 12, 51, 0
14, 40980, Note_on_c, 12, 48, 114
14, 41028, Note_on_c, 12, 48, 0
14, 41040, Note_on_c, 12, 46, 94
14, 41136, Note_on_c, 12, 46, 0
14, 41160, Note_on_c, 12, 46, 90
14, 41208, Note_on_c, 12, 46, 0
14, 41220, Note_on_c, 12, 46, 113
14, 41292, Note_on_c, 12, 46, 0
14, 41310, Note_on_c, 12, 48, 127
14, 41334, Note_on_c, 12, 48, 0
14, 41340, Note_on_c, 12, 49, 113
14, 41388, Note_on_c, 12, 49, 0
14, 41400, Note_on_c, 12, 48, 127
14, 41496, Note_on_c, 12, 48, 0
14, 41700, Note_on_c, 12, 55, 114
14, 41748, Note_on_c, 12, 55, 0
14, 41760, Note_on_c, 12, 53, 105
14, 41856, Note_on_c, 12, 53, 0
14, 41880, Note_on_c, 12, 53, 127
14, 41928, Note_on_c, 12, 53, 0
14, 41940, Note_on_c, 12, 53, 127
14, 42012, Note_on_c, 12, 53, 0
14, 42030, Note_on_c, 12, 55, 127
14, 42054, Note_on_c, 12, 55, 0
14, 42060, Note_on_c, 12, 56, 109
14, 42108, Note_on_c, 12, 56, 0
14, 42120, Note_on_c, 12, 55, 120
14, 42216, Note_on_c, 12, 55, 0
14, 42420, Note_on_c, 12, 50, 118
14, 42468, Note_on_c, 12, 50, 0
14, 42480, Note_on_c, 12, 48, 125
14, 42576, Note_on_c, 12, 48, 0
14, 42600, Note_on_c, 12, 48, 127
14, 42648, Note_on_c, 12, 48, 0
14, 42660, Note_on_c, 12, 48, 127
14, 42732, Note_on_c, 12, 48, 0
14, 42750, Note_on_c, 12, 50, 127
14, 42774, Note_on_c, 12, 50, 0
14, 42780, Note_on_c, 12, 48, 127
14, 42828, Note_on_c, 12, 48, 0
14, 42840, Note_on_c, 12, 47, 127
14, 42936, Note_on_c, 12, 47, 0
14, 42960, Note_on_c, 12, 47, 127
14, 43008, Note_on_c, 12, 47, 0
14, 43020, Note_on_c, 12, 47, 127
14, 43092, Note_on_c, 12, 47, 0
14, 43110, Note_on_c, 12, 48, 127
14, 43134, Note_on_c, 12, 48, 0
14, 43140, Note_on_c, 12, 50, 127
14, 43188, Note_on_c, 12, 50, 0
14, 43200, Note_on_c, 12, 51, 127
14, 43296, Note_on_c, 12, 51, 0
14, 43320, Note_on_c, 12, 48, 127
14, 43368, Note_on_c, 12, 48, 0
14, 43380, Note_on_c, 12, 48, 127
14, 43452, Note_on_c, 12, 48, 0
14, 43470, Note_on_c, 12, 50, 127
14, 43494, Note_on_c, 12, 50, 0
14, 43500, Note_on_c, 12, 51, 127
14, 43548, Note_on_c, 12, 51, 0
14, 43560, Note_on_c, 12, 53, 127
14, 43656, Note_on_c, 12, 53, 0
14, 43680, Note_on_c, 12, 50, 127
14, 43728, Note_on_c, 12, 50, 0
14, 43740, Note_on_c, 12, 50, 127
14, 43812, Note_on_c, 12, 50, 0
14, 43830, Note_on_c, 12, 51, 127
14, 43854, Note_on_c, 12, 51, 0
14, 43860, Note_on_c, 12, 53, 127
14, 43908, Note_on_c, 12, 53, 0
14, 43920, Note_on_c, 12, 55, 127
14, 44016, Note_on_c, 12, 55, 0
14, 53460, Note_on_c, 12, 43, 123
14, 53484, Note_on_c, 12, 43, 0
14, 53490, Note_on_c, 12, 55, 116
14, 53514, Note_on_c, 12, 55, 0
14, 53520, Note_on_c, 12, 55, 123
14, 53616, Note_on_c, 12, 55, 0
14, 54900, Note_on_c, 12, 43, 123
14, 54924, Note_on_c, 12, 43, 0
14, 54930, Note_on_c, 12, 55, 117
14, 54954, Note_on_c, 12, 55, 0
14, 54960, Note_on_c, 12, 55, 108
14, 55056, Note_on_c, 12, 55, 0
14, 55080, Note_on_c, 12, 48, 127
14, 55176, Note_on_c, 12, 48, 0
14, 55440, Note_on_c, 12, 57, 127
14, 55584, Note_on_c, 12, 57, 0
14, 55620, Note_on_c, 12, 53, 127
14, 55764, Note_on_c, 12, 53, 0
14, 55800, Note_on_c, 12, 52, 127
14, 55896, Note_on_c, 12, 52, 0
14, 56160, Note_on_c, 12, 55, 121
14, 56304, Note_on_c, 12, 55, 0
14, 56340, Note_on_c, 12, 43, 118
14, 56484, Note_on_c, 12, 43, 0
14, 56520, Note_on_c, 12, 48, 127
14, 56616, Note_on_c, 12, 48, 0
14, 56880, Note_on_c, 12, 48, 127
14, 56976, Note_on_c, 12, 48, 0
14, 59700, Note_on_c, 12, 56, 68
14, 59760, Note_on_c, 12, 56, 65
14, 59796, Note_on_c, 12, 56, 0
14, 59808, Note_on_c, 12, 56, 0
14, 59820, Note_on_c, 12, 56, 67
14, 59868, Note_on_c, 12, 56, 0
14, 59940, Note_on_c, 12, 56, 68
14, 59988, Note_on_c, 12, 56, 0
14, 60000, Note_on_c, 12, 56, 73
14, 60048, Note_on_c, 12, 56, 0
14, 60120, Note_on_c, 12, 56, 68
14, 60168, Note_on_c, 12, 56, 0
14, 60180, Note_on_c, 12, 56, 73
14, 60228, Note_on_c, 12, 56, 0
14, 60300, Note_on_c, 12, 56, 69
14, 60348, Note_on_c, 12, 56, 0
14, 60360, Note_on_c, 12, 56, 73
14, 60408, Note_on_c, 12, 56, 0
14, 60480, Note_on_c, 12, 49, 69
14, 60528, Note_on_c, 12, 49, 0
14, 60540, Note_on_c, 12, 49, 73
14, 60588, Note_on_c, 12, 49, 0
14, 60660, Note_on_c, 12, 49, 67
14, 60708, Note_on_c, 12, 49, 0
14, 60720, Note_on_c, 12, 49, 76
14, 60768, Note_on_c, 12, 49, 0
14, 60840, Note_on_c, 12, 49, 68
14, 60888, Note_on_c, 12, 49, 0
14, 60900, Note_on_c, 12, 49, 73
14, 60948, Note_on_c, 12, 49, 0
14, 61020, Note_on_c, 12, 49, 68
14, 61068, Note_on_c, 12, 49, 0
14, 61080, Note_on_c, 12, 49, 73
14, 61128, Note_on_c, 12, 49, 0
14, 61200, Note_on_c, 12, 51, 65
14, 61248, Note_on_c, 12, 51, 0
14, 61260, Note_on_c, 12, 51, 69
14, 61308, Note_on_c, 12, 51, 0
14, 61380, Note_on_c, 12, 51, 64
14, 61428, Note_on_c, 12, 51, 0
14, 61440, Note_on_c, 12, 51, 71
14, 61488, Note_on_c, 12, 51, 0
14, 61560, Note_on_c, 12, 51, 65
14, 61608, Note_on_c, 12, 51, 0
14, 61620, Note_on_c, 12, 51, 74
14, 61668, Note_on_c, 12, 51, 0
14, 61740, Note_on_c, 12, 51, 69
14, 61788, Note_on_c, 12, 51, 0
14, 61800, Note_on_c, 12, 51, 69
14, 61848, Note_on_c, 12, 51, 0
14, 62100, Note_on_c, 12, 44, 76
14, 62124, Note_on_c, 12, 44, 0
14, 62130, Note_on_c, 12, 56, 63
14, 62154, Note_on_c, 12, 56, 0
14, 62160, Note_on_c, 12, 56, 67
14, 62256, Note_on_c, 12, 56, 0
14, 63540, Note_on_c, 12, 44, 68
14, 63564, Note_on_c, 12, 44, 0
14, 63570, Note_on_c, 12, 56, 65
14, 63594, Note_on_c, 12, 56, 0
14, 63600, Note_on_c, 12, 56, 58
14, 63696, Note_on_c, 12, 56, 0
14, 64800, Note_on_c, 12, 56, 121
14, 64896, Note_on_c, 12, 56, 0
14, 65160, Note_on_c, 12, 53, 127
14, 65304, Note_on_c, 12, 53, 0
14, 65340, Note_on_c, 12, 49, 121
14, 65484, Note_on_c, 12, 49, 0
14, 65520, Note_on_c, 12, 48, 127
14, 65616, Note_on_c, 12, 48, 0
14, 65880, Note_on_c, 12, 63, 121
14, 66024, Note_on_c, 12, 63, 0
14, 66060, Note_on_c, 12, 51, 113
14, 66204, Note_on_c, 12, 51, 0
14, 66240, Note_on_c, 12, 44, 113
14, 66336, Note_on_c, 12, 44, 0
14, 66600, Note_on_c, 12, 44, 118
14, 66696, Note_on_c, 12, 44, 0
14, 69780, Note_on_c, 12, 52, 107
14, 69828, Note_on_c, 12, 52, 0
14, 69840, Note_on_c, 12, 52, 116
14, 69888, Note_on_c, 12, 52, 0
14, 69900, Note_on_c, 12, 52, 127
14, 69948, Note_on_c, 12, 52, 0
14, 70020, Note_on_c, 12, 52, 114
14, 70068, Note_on_c, 12, 52, 0
14, 70080, Note_on_c, 12, 52, 121
14, 70128, Note_on_c, 12, 52, 0
14, 70200, Note_on_c, 12, 52, 123
14, 70248, Note_on_c, 12, 52, 0
14, 70260, Note_on_c, 12, 52, 125
14, 70308, Note_on_c, 12, 52, 0
14, 70380, Note_on_c, 12, 52, 118
14, 70428, Note_on_c, 12, 52, 0
14, 70440, Note_on_c, 12, 52, 127
14, 70488, Note_on_c, 12, 52, 0
14, 70560, Note_on_c, 12, 57, 127
14, 70608, Note_on_c, 12, 57, 0
14, 70620, Note_on_c, 12, 57, 127
14, 70668, Note_on_c, 12, 57, 0
14, 70740, Note_on_c, 12, 57, 123
14, 70788, Note_on_c, 12, 57, 0
14, 70800, Note_on_c, 12, 57, 127
14, 70848, Note_on_c, 12, 57, 0
14, 70920, Note_on_c, 12, 57, 123
14, 70968, Note_on_c, 12, 57, 0
14, 70980, Note_on_c, 12, 57, 127
14, 71028, Note_on_c, 12, 57, 0
14, 71100, Note_on_c, 12, 57, 120
14, 71148, Note_on_c, 12, 57, 0
14, 71160, Note_on_c, 12, 57, 123
14, 71208, Note_on_c, 12, 57, 0
14, 71280, Note_on_c, 12, 59, 123
14, 71328, Note_on_c, 12, 59, 0
14, 71340, Note_on_c, 12, 59, 125
14, 71388, Note_on_c, 12, 59, 0
14, 71460, Note_on_c, 12, 47, 127
14, 71508, Note_on_c, 12, 47, 0
14, 71520, Note_on_c, 12, 47, 127
14, 71568, Note_on_c, 12, 47, 0
14, 71640, Note_on_c, 12, 47, 127
14, 71688, Note_on_c, 12, 47, 0
14, 71700, Note_on_c, 12, 47, 127
14, 71748, Note_on_c, 12, 47, 0
14, 71820, Note_on_c, 12, 47, 113
14, 71868, Note_on_c, 12, 47, 0
14, 71880, Note_on_c, 12, 47, 127
14, 71928, Note_on_c, 12, 47, 0
14, 73260, Note_on_c, 12, 47, 127
14, 73284, Note_on_c, 12, 47, 0
14, 73290, Note_on_c, 12, 59, 127
14, 73314, Note_on_c, 12, 59, 0
14, 73320, Note_on_c, 12, 59, 125
14, 73416, Note_on_c, 12, 59, 0
14, 74700, Note_on_c, 12, 47, 127
14, 74724, Note_on_c, 12, 47, 0
14, 74730, Note_on_c, 12, 59, 127
14, 74754, Note_on_c, 12, 59, 0
14, 74760, Note_on_c, 12, 59, 127
14, 74856, Note_on_c, 12, 59, 0
14, 74880, Note_on_c, 12, 52, 127
14, 74976, Note_on_c, 12, 52, 0
14, 75240, Note_on_c, 12, 61, 118
14, 75384, Note_on_c, 12, 61, 0
14, 75420, Note_on_c, 12, 57, 127
14, 75564, Note_on_c, 12, 57, 0
14, 75600, Note_on_c, 12, 56, 118
14, 75696, Note_on_c, 12, 56, 0
14, 75960, Note_on_c, 12, 59, 127
14, 76104, Note_on_c, 12, 59, 0
14, 76140, Note_on_c, 12, 47, 127
14, 76284, Note_on_c, 12, 47, 0
14, 76320, Note_on_c, 12, 52, 127
14, 76416, Note_on_c, 12, 52, 0
14, 79200, Note_on_c, 12, 46, 111
14, 79272, Note_on_c, 12, 46, 0
14, 79290, Note_on_c, 12, 46, 123
14, 79314, Note_on_c, 12, 46, 0
14, 79320, Note_on_c, 12, 46, 127
14, 79368, Note_on_c, 12, 46, 0
14, 79380, Note_on_c, 12, 46, 123
14, 79428, Note_on_c, 12, 46, 0
14, 79440, Note_on_c, 12, 46, 123
14, 79488, Note_on_c, 12, 46, 0
14, 79500, Note_on_c, 12, 46, 127
14, 79548, Note_on_c, 12, 46, 0
14, 79560, Note_on_c, 12, 46, 127
14, 79632, Note_on_c, 12, 46, 0
14, 79650, Note_on_c, 12, 46, 125
14, 79674, Note_on_c, 12, 46, 0
14, 79680, Note_on_c, 12, 46, 127
14, 79728, Note_on_c, 12, 46, 0
14, 79740, Note_on_c, 12, 46, 127
14, 79788, Note_on_c, 12, 46, 0
14, 79800, Note_on_c, 12, 46, 117
14, 79848, Note_on_c, 12, 46, 0
14, 79860, Note_on_c, 12, 46, 113
14, 79908, Note_on_c, 12, 46, 0
14, 80640, Note_on_c, 12, 46, 123
14, 80712, Note_on_c, 12, 46, 0
14, 80730, Note_on_c, 12, 46, 126
14, 80754, Note_on_c, 12, 46, 0
14, 80760, Note_on_c, 12, 46, 121
14, 80808, Note_on_c, 12, 46, 0
14, 80820, Note_on_c, 12, 46, 121
14, 80868, Note_on_c, 12, 46, 0
14, 80880, Note_on_c, 12, 46, 118
14, 80928, Note_on_c, 12, 46, 0
14, 80940, Note_on_c, 12, 46, 121
14, 80988, Note_on_c, 12, 46, 0
14, 81000, Note_on_c, 12, 46, 123
14, 81072, Note_on_c, 12, 46, 0
14, 81090, Note_on_c, 12, 46, 126
14, 81114, Note_on_c, 12, 46, 0
14, 81120, Note_on_c, 12, 46, 121
14, 81168, Note_on_c, 12, 46, 0
14, 81180, Note_on_c, 12, 46, 118
14, 81228, Note_on_c, 12, 46, 0
14, 81240, Note_on_c, 12, 46, 121
14, 81288, Note_on_c, 12, 46, 0
14, 81300, Note_on_c, 12, 46, 123
14, 81348, Note_on_c, 12, 46, 0
14, 82260, Note_on_c, 12, 46, 123
14, 82332, Note_on_c, 12, 46, 0
14, 82350, Note_on_c, 12, 46, 123
14, 82374, Note_on_c, 12, 46, 0
14, 82380, Note_on_c, 12, 46, 118
14, 82428, Note_on_c, 12, 46, 0
14, 82620, Note_on_c, 12, 46, 123
14, 82692, Note_on_c, 12, 46, 0
14, 82710, Note_on_c, 12, 46, 126
14, 82734, Note_on_c, 12, 46, 0
14, 82740, Note_on_c, 12, 46, 126
14, 82788, Note_on_c, 12, 46, 0
14, 93540, Note_on_c, 12, 50, 127
14, 93564, Note_on_c, 12, 50, 0
14, 93570, Note_on_c, 12, 49, 126
14, 93594, Note_on_c, 12, 49, 0
14, 93600, Note_on_c, 12, 49, 111
14, 93648, Note_on_c, 12, 49, 0
14, 93660, Note_on_c, 12, 49, 126
14, 93708, Note_on_c, 12, 49, 0
14, 93720, Note_on_c, 12, 48, 113
14, 93744, Note_on_c, 12, 48, 0
14, 93750, Note_on_c, 12, 47, 102
14, 93774, Note_on_c, 12, 47, 0
14, 93780, Note_on_c, 12, 47, 118
14, 93828, Note_on_c, 12, 47, 0
14, 93840, Note_on_c, 12, 47, 127
14, 93888, Note_on_c, 12, 47, 0
14, 93900, Note_on_c, 12, 46, 121
14, 93924, Note_on_c, 12, 46, 0
14, 93930, Note_on_c, 12, 45, 123
14, 93954, Note_on_c, 12, 45, 0
14, 93960, Note_on_c, 12, 45, 127
14, 94008, Note_on_c, 12, 45, 0
14, 94020, Note_on_c, 12, 45, 125
14, 94068, Note_on_c, 12, 45, 0
14, 94080, Note_on_c, 12, 44, 113
14, 94104, Note_on_c, 12, 44, 0
14, 94110, Note_on_c, 12, 43, 125
14, 94134, Note_on_c, 12, 43, 0
14, 94140, Note_on_c, 12, 43, 127
14, 94188, Note_on_c, 12, 43, 0
14, 94200, Note_on_c, 12, 43, 127
14, 94248, Note_on_c, 12, 43, 0
14, 94260, Note_on_c, 12, 41, 96
14, 94284, Note_on_c, 12, 41, 0
14, 94290, Note_on_c, 12, 39, 118
14, 94314, Note_on_c, 12, 39, 0
14, 94320, Note_on_c, 12, 39, 123
14, 94368, Note_on_c, 12, 39, 0
14, 94380, Note_on_c, 12, 39, 111
14, 94428, Note_on_c, 12, 39, 0
14, 94440, Note_on_c, 12, 39, 115
14, 94488, Note_on_c, 12, 39, 0
14, 94500, Note_on_c, 12, 39, 127
14, 94596, Note_on_c, 12, 39, 0
14, 94620, Note_on_c, 12, 39, 113
14, 94668, Note_on_c, 12, 39, 0
14, 94680, Note_on_c, 12, 39, 121
14, 94728, Note_on_c, 12, 39, 0
14, 94740, Note_on_c, 12, 39, 121
14, 94956, Note_on_c, 12, 39, 0
14, 94980, Note_on_c, 12, 51, 118
14, 95028, Note_on_c, 12, 51, 0
14, 95040, Note_on_c, 12, 50, 118
14, 95088, Note_on_c, 12, 50, 0
14, 95160, Note_on_c, 12, 46, 115
14, 95208, Note_on_c, 12, 46, 0
14, 95220, Note_on_c, 12, 51, 115
14, 95268, Note_on_c, 12, 51, 0
14, 95340, Note_on_c, 12, 55, 127
14, 95388, Note_on_c, 12, 55, 0
14, 95400, Note_on_c, 12, 58, 126
14, 95448, Note_on_c, 12, 58, 0
14, 95460, Note_on_c, 12, 46, 113
14, 95508, Note_on_c, 12, 46, 0
14, 95520, Note_on_c, 12, 46, 121
14, 95568, Note_on_c, 12, 46, 0
14, 95580, Note_on_c, 12, 46, 123
14, 95628, Note_on_c, 12, 46, 0
14, 95640, Note_on_c, 12, 46, 127
14, 95664, Note_on_c, 12, 46, 0
14, 95670, Note_on_c, 12, 44, 113
14, 95694, Note_on_c, 12, 44, 0
14, 95700, Note_on_c, 12, 43, 127
14, 95724, Note_on_c, 12, 43, 0
14, 95730, Note_on_c, 12, 41, 123
14, 95754, Note_on_c, 12, 41, 0
14, 95760, Note_on_c, 12, 39, 123
14, 95808, Note_on_c, 12, 39, 0
14, 95820, Note_on_c, 12, 39, 126
14, 95868, Note_on_c, 12, 39, 0
14, 95880, Note_on_c, 12, 39, 123
14, 95928, Note_on_c, 12, 39, 0
14, 95940, Note_on_c, 12, 39, 121
14, 96036, Note_on_c, 12, 39, 0
14, 96060, Note_on_c, 12, 39, 121
14, 96108, Note_on_c, 12, 39, 0
14, 96120, Note_on_c, 12, 39, 113
14, 96168, Note_on_c, 12, 39, 0
14, 96180, Note_on_c, 12, 39, 121
14, 96396, Note_on_c, 12, 39, 0
14, 96420, Note_on_c, 12, 51, 107
14, 96468, Note_on_c, 12, 51, 0
14, 96480, Note_on_c, 12, 50, 127
14, 96528, Note_on_c, 12, 50, 0
14, 96600, Note_on_c, 12, 46, 109
14, 96648, Note_on_c, 12, 46, 0
14, 96660, Note_on_c, 12, 51, 88
14, 96708, Note_on_c, 12, 51, 0
14, 96780, Note_on_c, 12, 55, 125
14, 96828, Note_on_c, 12, 55, 0
14, 96840, Note_on_c, 12, 58, 76
14, 96888, Note_on_c, 12, 58, 0
14, 96900, Note_on_c, 12, 46, 111
14, 96948, Note_on_c, 12, 46, 0
14, 96960, Note_on_c, 12, 46, 107
14, 97008, Note_on_c, 12, 46, 0
14, 97020, Note_on_c, 12, 46, 111
14, 97068, Note_on_c, 12, 46, 0
14, 97080, Note_on_c, 12, 46, 113
14, 97128, Note_on_c, 12, 46, 0
14, 97140, Note_on_c, 12, 46, 109
14, 97188, Note_on_c, 12, 46, 0
14, 97200, Note_on_c, 12, 46, 115
14, 97296, Note_on_c, 12, 46, 0
14, 97380, Note_on_c, 12, 46, 113
14, 97476, Note_on_c, 12, 46, 0
14, 97560, Note_on_c, 12, 46, 115
14, 97656, Note_on_c, 12, 46, 0
14, 97740, Note_on_c, 12, 46, 113
14, 97836, Note_on_c, 12, 46, 0
14, 97920, Note_on_c, 12, 46, 111
14, 98016, Note_on_c, 12, 46, 0
14, 98040, Note_on_c, 12, 46, 105
14, 98088, Note_on_c, 12, 46, 0
14, 98100, Note_on_c, 12, 46, 115
14, 98172, Note_on_c, 12, 46, 0
14, 98190, Note_on_c, 12, 46, 123
14, 98214, Note_on_c, 12, 46, 0
14, 98220, Note_on_c, 12, 46, 111
14, 98268, Note_on_c, 12, 46, 0
14, 98280, Note_on_c, 12, 51, 121
14, 98376, Note_on_c, 12, 51, 0
14, 98400, Note_on_c, 12, 51, 113
14, 98448, Note_on_c, 12, 51, 0
14, 98460, Note_on_c, 12, 51, 111
14, 98556, Note_on_c, 12, 51, 0
14, 98580, Note_on_c, 12, 46, 111
14, 98628, Note_on_c, 12, 46, 0
14, 98640, Note_on_c, 12, 46, 111
14, 98736, Note_on_c, 12, 46, 0
14, 98760, Note_on_c, 12, 46, 118
14, 98808, Note_on_c, 12, 46, 0
14, 98820, Note_on_c, 12, 46, 115
14, 98892, Note_on_c, 12, 46, 0
14, 98910, Note_on_c, 12, 46, 121
14, 98934, Note_on_c, 12, 46, 0
14, 98940, Note_on_c, 12, 46, 123
14, 98988, Note_on_c, 12, 46, 0
14, 99000, Note_on_c, 12, 51, 118
14, 99276, Note_on_c, 12, 51, 0
14, 99300, Note_on_c, 12, 39, 126
14, 99348, Note_on_c, 12, 39, 0
14, 99360, Note_on_c, 12, 53, 127
14, 99636, Note_on_c, 12, 53, 0
14, 99660, Note_on_c, 12, 41, 127
14, 99708, Note_on_c, 12, 41, 0
14, 99720, Note_on_c, 12, 55, 127
14, 99996, Note_on_c, 12, 55, 0
14, 100020, Note_on_c, 12, 43, 127
14, 100068, Note_on_c, 12, 43, 0
14, 100080, Note_on_c, 12, 44, 126
14, 100152, Note_on_c, 12, 44, 0
14, 100170, Note_on_c, 12, 56, 115
14, 100194, Note_on_c, 12, 56, 0
14, 100200, Note_on_c, 12, 56, 115
14, 100248, Note_on_c, 12, 56, 0
14, 100260, Note_on_c, 12, 56, 111
14, 100332, Note_on_c, 12, 56, 0
14, 100350, Note_on_c, 12, 56, 118
14, 100374, Note_on_c, 12, 56, 0
14, 100380, Note_on_c, 12, 57, 123
14, 100428, Note_on_c, 12, 57, 0
14, 100440, Note_on_c, 12, 58, 115
14, 100512, Note_on_c, 12, 58, 0
14, 100530, Note_on_c, 12, 57, 114
14, 100554, Note_on_c, 12, 57, 0
14, 100560, Note_on_c, 12, 56, 113
14, 100608, Note_on_c, 12, 56, 0
14, 100620, Note_on_c, 12, 55, 117
14, 100692, Note_on_c, 12, 55, 0
14, 100710, Note_on_c, 12, 53, 127
14, 100734, Note_on_c, 12, 53, 0
14, 100740, Note_on_c, 12, 51, 113
14, 100788, Note_on_c, 12, 51, 0
14, 100800, Note_on_c, 12, 56, 123
14, 100896, Note_on_c, 12, 56, 0
14, 100980, Note_on_c, 12, 46, 121
14, 101076, Note_on_c, 12, 46, 0
14, 101160, Note_on_c, 12, 51, 121
14, 101256, Note_on_c, 12, 51, 0
14, 101520, Note_on_c, 12, 60, 127
14, 101664, Note_on_c, 12, 60, 0
14, 101700, Note_on_c, 12, 56, 107
14, 101844, Note_on_c, 12, 56, 0
14, 101880, Note_on_c, 12, 55, 120
14, 101976, Note_on_c, 12, 55, 0
14, 102240, Note_on_c, 12, 58, 121
14, 102384, Note_on_c, 12, 58, 0
14, 102420, Note_on_c, 12, 46, 121
14, 102564, Note_on_c, 12, 46, 0
14, 102600, Note_on_c, 12, 51, 121
14, 102696, Note_on_c, 12, 51, 0
14, 102960, Note_on_c, 12, 51, 111
14, 103056, Note_on_c, 12, 51, 0
14, 103320, Note_on_c, 12, 51, 126
14, 103416, Note_on_c, 12, 51, 0
14, 107760, Note_on_c, 12, 53, 94
14, 107808, Note_on_c, 12, 53, 0
14, 107820, Note_on_c, 12, 53, 93
14, 107916, Note_on_c, 12, 53, 0
14, 108480, Note_on_c, 12, 56, 100
14, 108524, Note_on_c, 12, 56, 0
14, 108540, Note_on_c, 12, 56, 100
14, 108659, Note_on_c, 12, 56, 0
14, 111240, Note_on_c, 12, 44, 121
14, 111476, Note_on_c, 12, 44, 0
14, 111480, Note_on_c, 12, 61, 109
14, 111528, Note_on_c, 12, 61, 0
14, 111540, Note_on_c, 12, 60, 114
14, 111588, Note_on_c, 12, 60, 0
14, 111600, Note_on_c, 12, 58, 123
14, 111648, Note_on_c, 12, 58, 0
14, 111660, Note_on_c, 12, 56, 118
14, 111708, Note_on_c, 12, 56, 0
14, 111720, Note_on_c, 12, 55, 123
14, 111768, Note_on_c, 12, 55, 0
14, 111780, Note_on_c, 12, 53, 110
14, 111828, Note_on_c, 12, 53, 0
14, 111840, Note_on_c, 12, 51, 113
14, 111888, Note_on_c, 12, 51, 0
14, 111900, Note_on_c, 12, 50, 127
14, 111948, Note_on_c, 12, 50, 0
14, 111960, Note_on_c, 12, 48, 127
14, 112008, Note_on_c, 12, 48, 0
14, 112020, Note_on_c, 12, 46, 94
14, 112068, Note_on_c, 12, 46, 0
14, 112080, Note_on_c, 12, 58, 118
14, 112128, Note_on_c, 12, 58, 0
14, 112140, Note_on_c, 12, 46, 111
14, 112188, Note_on_c, 12, 46, 0
14, 112200, Note_on_c, 12, 58, 115
14, 112248, Note_on_c, 12, 58, 0
14, 112260, Note_on_c, 12, 46, 111
14, 112308, Note_on_c, 12, 46, 0
14, 112320, Note_on_c, 12, 46, 121
14, 112416, Note_on_c, 12, 46, 0
14, 113040, Note_on_c, 12, 55, 116
14, 113136, Note_on_c, 12, 55, 0
14, 113760, Note_on_c, 12, 56, 115
14, 113856, Note_on_c, 12, 56, 0
14, 118500, Note_on_c, 12, 51, 109
14, 118644, Note_on_c, 12, 51, 0
14, 118680, Note_on_c, 12, 56, 107
14, 118824, Note_on_c, 12, 56, 0
14, 118860, Note_on_c, 12, 51, 111
14, 119004, Note_on_c, 12, 51, 0
14, 119040, Note_on_c, 12, 56, 109
14, 119184, Note_on_c, 12, 56, 0
14, 119220, Note_on_c, 12, 51, 111
14, 119316, Note_on_c, 12, 51, 0
14, 119340, Note_on_c, 12, 56, 107
14, 119388, Note_on_c, 12, 56, 0
14, 119400, Note_on_c, 12, 51, 109
14, 119496, Note_on_c, 12, 51, 0
14, 119520, Note_on_c, 12, 56, 107
14, 119568, Note_on_c, 12, 56, 0
14, 119580, Note_on_c, 12, 51, 118
14, 119676, Note_on_c, 12, 51, 0
14, 119700, Note_on_c, 12, 56, 111
14, 119748, Note_on_c, 12, 56, 0
14, 119760, Note_on_c, 12, 51, 118
14, 119856, Note_on_c, 12, 51, 0
14, 119880, Note_on_c, 12, 56, 111
14, 119928, Note_on_c, 12, 56, 0
14, 119940, Note_on_c, 12, 51, 121
14, 120036, Note_on_c, 12, 51, 0
14, 123480, Note_on_c, 12, 56, 109
14, 123528, Note_on_c, 12, 56, 0
14, 123540, Note_on_c, 12, 55, 127
14, 123588, Note_on_c, 12, 55, 0
14, 123660, Note_on_c, 12, 51, 111
14, 123708, Note_on_c, 12, 51, 0
14, 123720, Note_on_c, 12, 56, 127
14, 123768, Note_on_c, 12, 56, 0
14, 123840, Note_on_c, 12, 60, 123
14, 123888, Note_on_c, 12, 60, 0
14, 123900, Note_on_c, 12, 51, 118
14, 123996, Note_on_c, 12, 51, 0
14, 124920, Note_on_c, 12, 56, 109
14, 124968, Note_on_c, 12, 56, 0
14, 124980, Note_on_c, 12, 55, 127
14, 125028, Note_on_c, 12, 55, 0
14, 125100, Note_on_c, 12, 51, 111
14, 125148, Note_on_c, 12, 51, 0
14, 125160, Note_on_c, 12, 56, 127
14, 125208, Note_on_c, 12, 56, 0
14, 125280, Note_on_c, 12, 60, 123
14, 125328, Note_on_c, 12, 60, 0
14, 125340, Note_on_c, 12, 51, 118
14, 125436, Note_on_c, 12, 51, 0
14, 126360, Note_on_c, 12, 56, 118
14, 126408, Note_on_c, 12, 56, 0
14, 126420, Note_on_c, 12, 51, 121
14, 126516, Note_on_c, 12, 51, 0
14, 126540, Note_on_c, 12, 51, 123
14, 126588, Note_on_c, 12, 51, 0
14, 126600, Note_on_c, 12, 51, 121
14, 126672, Note_on_c, 12, 51, 0
14, 126690, Note_on_c, 12, 51, 123
14, 126714, Note_on_c, 12, 51, 0
14, 126720, Note_on_c, 12, 51, 118
14, 126768, Note_on_c, 12, 51, 0
14, 126780, Note_on_c, 12, 56, 121
14, 126876, Note_on_c, 12, 56, 0
14, 126900, Note_on_c, 12, 56, 127
14, 126948, Note_on_c, 12, 56, 0
14, 126960, Note_on_c, 12, 56, 126
14, 127056, Note_on_c, 12, 56, 0
14, 127800, Note_on_c, 12, 48, 123
14, 127824, Note_on_c, 12, 48, 0
14, 127830, Note_on_c, 12, 47, 127
14, 127854, Note_on_c, 12, 47, 0
14, 127860, Note_on_c, 12, 47, 118
14, 127884, Note_on_c, 12, 47, 0
14, 127890, Note_on_c, 12, 47, 109
14, 127914, Note_on_c, 12, 47, 0
14, 127920, Note_on_c, 12, 47, 112
14, 127944, Note_on_c, 12, 47, 0
14, 127950, Note_on_c, 12, 47, 120
14, 127974, Note_on_c, 12, 47, 0
14, 127980, Note_on_c, 12, 46, 103
14, 128004, Note_on_c, 12, 46, 0
14, 128010, Note_on_c, 12, 45, 125
14, 128034, Note_on_c, 12, 45, 0
14, 128040, Note_on_c, 12, 45, 123
14, 128064, Note_on_c, 12, 45, 0
14, 128070, Note_on_c, 12, 45, 116
14, 128094, Note_on_c, 12, 45, 0
14, 128100, Note_on_c, 12, 45, 116
14, 128124, Note_on_c, 12, 45, 0
14, 128130, Note_on_c, 12, 45, 121
14, 128154, Note_on_c, 12, 45, 0
14, 128160, Note_on_c, 12, 44, 111
14, 128184, Note_on_c, 12, 44, 0
14, 128190, Note_on_c, 12, 43, 127
14, 128214, Note_on_c, 12, 43, 0
14, 128220, Note_on_c, 12, 43, 116
14, 128244, Note_on_c, 12, 43, 0
14, 128250, Note_on_c, 12, 43, 114
14, 128274, Note_on_c, 12, 43, 0
14, 128280, Note_on_c, 12, 43, 114
14, 128304, Note_on_c, 12, 43, 0
14, 128310, Note_on_c, 12, 43, 127
14, 128334, Note_on_c, 12, 43, 0
14, 128340, Note_on_c, 12, 42, 121
14, 128364, Note_on_c, 12, 42, 0
14, 128370, Note_on_c, 12, 41, 127
14, 128394, Note_on_c, 12, 41, 0
14, 128400, Note_on_c, 12, 41, 127
14, 128424, Note_on_c, 12, 41, 0
14, 128430, Note_on_c, 12, 41, 125
14, 128454, Note_on_c, 12, 41, 0
14, 128460, Note_on_c, 12, 40, 127
14, 128484, Note_on_c, 12, 40, 0
14, 128490, Note_on_c, 12, 40, 127
14, 128514, Note_on_c, 12, 40, 0
14, 128520, Note_on_c, 12, 39, 121
14, 128544, Note_on_c, 12, 39, 0
14, 128550, Note_on_c, 12, 39, 118
14, 128574, Note_on_c, 12, 39, 0
14, 128580, Note_on_c, 12, 39, 126
14, 128604, Note_on_c, 12, 39, 0
14, 128610, Note_on_c, 12, 51, 115
14, 128634, Note_on_c, 12, 51, 0
14, 128640, Note_on_c, 12, 51, 100
14, 128664, Note_on_c, 12, 51, 0
14, 128670, Note_on_c, 12, 51, 99
14, 128694, Note_on_c, 12, 51, 0
14, 128700, Note_on_c, 12, 51, 97
14, 128724, Note_on_c, 12, 51, 0
14, 128730, Note_on_c, 12, 51, 96
14, 128754, Note_on_c, 12, 51, 0
14, 128760, Note_on_c, 12, 51, 94
14, 128784, Note_on_c, 12, 51, 0
14, 128790, Note_on_c, 12, 51, 90
14, 128814, Note_on_c, 12, 51, 0
14, 128820, Note_on_c, 12, 51, 94
14, 128844, Note_on_c, 12, 51, 0
14, 128850, Note_on_c, 12, 51, 97
14, 128850, Note_on_c, 12, 51, 88
14, 128874, Note_on_c, 12, 51, 0
14, 128874, Note_on_c, 12, 51, 0
14, 128880, Note_on_c, 12, 51, 90
14, 128904, Note_on_c, 12, 51, 0
14, 128910, Note_on_c, 12, 51, 87
14, 128934, Note_on_c, 12, 51, 0
14, 128940, Note_on_c, 12, 51, 96
14, 128940, Note_on_c, 12, 51, 99
14, 128964, Note_on_c, 12, 51, 0
14, 128964, Note_on_c, 12, 51, 0
14, 128970, Note_on_c, 12, 51, 115
14, 128994, Note_on_c, 12, 51, 0
14, 129000, Note_on_c, 12, 51, 101
14, 129024, Note_on_c, 12, 51, 0
14, 129030, Note_on_c, 12, 51, 99
14, 129054, Note_on_c, 12, 51, 0
14, 129060, Note_on_c, 12, 51, 99
14, 129084, Note_on_c, 12, 51, 0
14, 129090, Note_on_c, 12, 51, 101
14, 129114, Note_on_c, 12, 51, 0
14, 129120, Note_on_c, 12, 51, 107
14, 129144, Note_on_c, 12, 51, 0
14, 129150, Note_on_c, 12, 51, 105
14, 129174, Note_on_c, 12, 51, 0
14, 129180, Note_on_c, 12, 51, 94
14, 129180, Note_on_c, 12, 51, 95
14, 129204, Note_on_c, 12, 51, 0
14, 129204, Note_on_c, 12, 51, 0
14, 129210, Note_on_c, 12, 51, 95
14, 129234, Note_on_c, 12, 51, 0
14, 129240, Note_on_c, 12, 51, 113
14, 129264, Note_on_c, 12, 51, 0
14, 129270, Note_on_c, 12, 51, 123
14, 129294, Note_on_c, 12, 51, 0
14, 129300, Note_on_c, 12, 50, 127
14, 129324, Note_on_c, 12, 50, 0
14, 129330, Note_on_c, 12, 50, 127
14, 129354, Note_on_c, 12, 50, 0
14, 129360, Note_on_c, 12, 50, 127
14, 129384, Note_on_c, 12, 50, 0
14, 129390, Note_on_c, 12, 50, 127
14, 129414, Note_on_c, 12, 50, 0
14, 129420, Note_on_c, 12, 46, 81
14, 129444, Note_on_c, 12, 46, 0
14, 129450, Note_on_c, 12, 46, 107
14, 129474, Note_on_c, 12, 46, 0
14, 129480, Note_on_c, 12, 51, 123
14, 129504, Note_on_c, 12, 51, 0
14, 129510, Note_on_c, 12, 51, 113
14, 129534, Note_on_c, 12, 51, 0
14, 129540, Note_on_c, 12, 51, 118
14, 129564, Note_on_c, 12, 51, 0
14, 129570, Note_on_c, 12, 51, 111
14, 129594, Note_on_c, 12, 51, 0
14, 129600, Note_on_c, 12, 55, 127
14, 129624, Note_on_c, 12, 55, 0
14, 129630, Note_on_c, 12, 55, 127
14, 129654, Note_on_c, 12, 55, 0
14, 129660, Note_on_c, 12, 58, 123
14, 129684, Note_on_c, 12, 58, 0
14, 129690, Note_on_c, 12, 46, 123
14, 129714, Note_on_c, 12, 46, 0
14, 129720, Note_on_c, 12, 46, 115
14, 129744, Note_on_c, 12, 46, 0
14, 129750, Note_on_c, 12, 46, 115
14, 129774, Note_on_c, 12, 46, 0
14, 129780, Note_on_c, 12, 46, 118
14, 129804, Note_on_c, 12, 46, 0
14, 129810, Note_on_c, 12, 46, 113
14, 129834, Note_on_c, 12, 46, 0
14, 129840, Note_on_c, 12, 46, 115
14, 129864, Note_on_c, 12, 46, 0
14, 129870, Note_on_c, 12, 46, 118
14, 129894, Note_on_c, 12, 46, 0
14, 129900, Note_on_c, 12, 46, 105
14, 129924, Note_on_c, 12, 46, 0
14, 129930, Note_on_c, 12, 44, 121
14, 129954, Note_on_c, 12, 44, 0
14, 129960, Note_on_c, 12, 43, 125
14, 129984, Note_on_c, 12, 43, 0
14, 129990, Note_on_c, 12, 41, 127
14, 130014, Note_on_c, 12, 41, 0
14, 130020, Note_on_c, 12, 39, 123
14, 130044, Note_on_c, 12, 39, 0
14, 130050, Note_on_c, 12, 51, 123
14, 130074, Note_on_c, 12, 51, 0
14, 130080, Note_on_c, 12, 51, 109
14, 130104, Note_on_c, 12, 51, 0
14, 130110, Note_on_c, 12, 51, 113
14, 130134, Note_on_c, 12, 51, 0
14, 130140, Note_on_c, 12, 51, 115
14, 130164, Note_on_c, 12, 51, 0
14, 130170, Note_on_c, 12, 51, 121
14, 130194, Note_on_c, 12, 51, 0
14, 130200, Note_on_c, 12, 51, 127
14, 130224, Note_on_c, 12, 51, 0
14, 130230, Note_on_c, 12, 51, 118
14, 130254, Note_on_c, 12, 51, 0
14, 130260, Note_on_c, 12, 51, 113
14, 130284, Note_on_c, 12, 51, 0
14, 130290, Note_on_c, 12, 51, 115
14, 130314, Note_on_c, 12, 51, 0
14, 130320, Note_on_c, 12, 51, 113
14, 130344, Note_on_c, 12, 51, 0
14, 130350, Note_on_c, 12, 51, 121
14, 130374, Note_on_c, 12, 51, 0
14, 130380, Note_on_c, 12, 51, 127
14, 130404, Note_on_c, 12, 51, 0
14, 130410, Note_on_c, 12, 51, 121
14, 130434, Note_on_c, 12, 51, 0
14, 130440, Note_on_c, 12, 51, 118
14, 130464, Note_on_c, 12, 51, 0
14, 130470, Note_on_c, 12, 51, 121
14, 130494, Note_on_c, 12, 51, 0
14, 130500, Note_on_c, 12, 51, 118
14, 130524, Note_on_c, 12, 51, 0
14, 130530, Note_on_c, 12, 51, 126
14, 130554, Note_on_c, 12, 51, 0
14, 130560, Note_on_c, 12, 51, 126
14, 130584, Note_on_c, 12, 51, 0
14, 130590, Note_on_c, 12, 51, 121
14, 130614, Note_on_c, 12, 51, 0
14, 130620, Note_on_c, 12, 51, 126
14, 130644, Note_on_c, 12, 51, 0
14, 130650, Note_on_c, 12, 51, 123
14, 130674, Note_on_c, 12, 51, 0
14, 130680, Note_on_c, 12, 51, 126
14, 130704, Note_on_c, 12, 51, 0
14, 130710, Note_on_c, 12, 51, 123
14, 130734, Note_on_c, 12, 51, 0
14, 130740, Note_on_c, 12, 50, 127
14, 130764, Note_on_c, 12, 50, 0
14, 130770, Note_on_c, 12, 50, 127
14, 130794, Note_on_c, 12, 50, 0
14, 130800, Note_on_c, 12, 50, 127
14, 130824, Note_on_c, 12, 50, 0
14, 130830, Note_on_c, 12, 50, 127
14, 130854, Note_on_c, 12, 50, 0
14, 130860, Note_on_c, 12, 46, 115
14, 130884, Note_on_c, 12, 46, 0
14, 130890, Note_on_c, 12, 46, 118
14, 130914, Note_on_c, 12, 46, 0
14, 130920, Note_on_c, 12, 51, 121
14, 130944, Note_on_c, 12, 51, 0
14, 130950, Note_on_c, 12, 51, 113
14, 130974, Note_on_c, 12, 51, 0
14, 130980, Note_on_c, 12, 51, 113
14, 131004, Note_on_c, 12, 51, 0
14, 131010, Note_on_c, 12, 51, 115
14, 131034, Note_on_c, 12, 51, 0
14, 131040, Note_on_c, 12, 55, 127
14, 131064, Note_on_c, 12, 55, 0
14, 131070, Note_on_c, 12, 55, 127
14, 131094, Note_on_c, 12, 55, 0
14, 131100, Note_on_c, 12, 58, 123
14, 131124, Note_on_c, 12, 58, 0
14, 131130, Note_on_c, 12, 46, 123
14, 131154, Note_on_c, 12, 46, 0
14, 131160, Note_on_c, 12, 46, 115
14, 131184, Note_on_c, 12, 46, 0
14, 131190, Note_on_c, 12, 46, 113
14, 131214, Note_on_c, 12, 46, 0
14, 131220, Note_on_c, 12, 46, 115
14, 131244, Note_on_c, 12, 46, 0
14, 131250, Note_on_c, 12, 46, 127
14, 131274, Note_on_c, 12, 46, 0
14, 131280, Note_on_c, 12, 46, 127
14, 131304, Note_on_c, 12, 46, 0
14, 131310, Note_on_c, 12, 58, 107
14, 131334, Note_on_c, 12, 58, 0
14, 131340, Note_on_c, 12, 58, 113
14, 131364, Note_on_c, 12, 58, 0
14, 131370, Note_on_c, 12, 58, 111
14, 131394, Note_on_c, 12, 58, 0
14, 131400, Note_on_c, 12, 58, 111
14, 131424, Note_on_c, 12, 58, 0
14, 131430, Note_on_c, 12, 58, 121
14, 131454, Note_on_c, 12, 58, 0
14, 131460, Note_on_c, 12, 46, 126
14, 131484, Note_on_c, 12, 46, 0
14, 131490, Note_on_c, 12, 58, 115
14, 131514, Note_on_c, 12, 58, 0
14, 131520, Note_on_c, 12, 58, 109
14, 131544, Note_on_c, 12, 58, 0
14, 131550, Note_on_c, 12, 58, 118
14, 131574, Note_on_c, 12, 58, 0
14, 131580, Note_on_c, 12, 58, 115
14, 131604, Note_on_c, 12, 58, 0
14, 131610, Note_on_c, 12, 58, 123
14, 131634, Note_on_c, 12, 58, 0
14, 131640, Note_on_c, 12, 46, 107
14, 131664, Note_on_c, 12, 46, 0
14, 131670, Note_on_c, 12, 58, 113
14, 131694, Note_on_c, 12, 58, 0
14, 131700, Note_on_c, 12, 58, 115
14, 131724, Note_on_c, 12, 58, 0
14, 131730, Note_on_c, 12, 58, 111
14, 131754, Note_on_c, 12, 58, 0
14, 131760, Note_on_c, 12, 58, 111
14, 131784, Note_on_c, 12, 58, 0
14, 131790, Note_on_c, 12, 58, 121
14, 131814, Note_on_c, 12, 58, 0
14, 131820, Note_on_c, 12, 46, 123
14, 131844, Note_on_c, 12, 46, 0
14, 131850, Note_on_c, 12, 58, 109
14, 131874, Note_on_c, 12, 58, 0
14, 131880, Note_on_c, 12, 58, 107
14, 131904, Note_on_c, 12, 58, 0
14, 131910, Note_on_c, 12, 58, 109
14, 131934, Note_on_c, 12, 58, 0
14, 131940, Note_on_c, 12, 58, 115
14, 131964, Note_on_c, 12, 58, 0
14, 131970, Note_on_c, 12, 58, 118
14, 131994, Note_on_c, 12, 58, 0
14, 132000, Note_on_c, 12, 46, 118
14, 132024, Note_on_c, 12, 46, 0
14, 132030, Note_on_c, 12, 58, 111
14, 132054, Note_on_c, 12, 58, 0
14, 132060, Note_on_c, 12, 58, 118
14, 132084, Note_on_c, 12, 58, 0
14, 132090, Note_on_c, 12, 58, 111
14, 132114, Note_on_c, 12, 58, 0
14, 132120, Note_on_c, 12, 58, 105
14, 132144, Note_on_c, 12, 58, 0
14, 132150, Note_on_c, 12, 58, 113
14, 132174, Note_on_c, 12, 58, 0
14, 132180, Note_on_c, 12, 46, 127
14, 132204, Note_on_c, 12, 46, 0
14, 132210, Note_on_c, 12, 58, 80
14, 132234, Note_on_c, 12, 58, 0
14, 132240, Note_on_c, 12, 58, 111
14, 132264, Note_on_c, 12, 58, 0
14, 132270, Note_on_c, 12, 58, 115
14, 132294, Note_on_c, 12, 58, 0
14, 132300, Note_on_c, 12, 58, 115
14, 132324, Note_on_c, 12, 58, 0
14, 132330, Note_on_c, 12, 58, 123
14, 132354, Note_on_c, 12, 58, 0
14, 132360, Note_on_c, 12, 46, 126
14, 132384, Note_on_c, 12, 46, 0
14, 132390, Note_on_c, 12, 58, 126
14, 132414, Note_on_c, 12, 58, 0
14, 132420, Note_on_c, 12, 46, 123
14, 132444, Note_on_c, 12, 46, 0
14, 132450, Note_on_c, 12, 46, 115
14, 132474, Note_on_c, 12, 46, 0
14, 132480, Note_on_c, 12, 46, 113
14, 132504, Note_on_c, 12, 46, 0
14, 132510, Note_on_c, 12, 46, 123
14, 132534, Note_on_c, 12, 46, 0
14, 132540, Note_on_c, 12, 51, 126
14, 132564, Note_on_c, 12, 51, 0
14, 132570, Note_on_c, 12, 51, 115
14, 132594, Note_on_c, 12, 51, 0
14, 132600, Note_on_c, 12, 51, 121
14, 132624, Note_on_c, 12, 51, 0
14, 132630, Note_on_c, 12, 51, 118
14, 132654, Note_on_c, 12, 51, 0
14, 132660, Note_on_c, 12, 51, 121
14, 132684, Note_on_c, 12, 51, 0
14, 132690, Note_on_c, 12, 51, 111
14, 132714, Note_on_c, 12, 51, 0
14, 132720, Note_on_c, 12, 51, 126
14, 132816, Note_on_c, 12, 51, 0
14, 137940, Note_on_c, 12, 51, 126
14, 138036, Note_on_c, 12, 51, 0
14, 138120, Note_on_c, 12, 46, 123
14, 138216, Note_on_c, 12, 46, 0
14, 138300, Note_on_c, 12, 53, 127
14, 138396, Note_on_c, 12, 53, 0
14, 138480, Note_on_c, 12, 46, 123
14, 138576, Note_on_c, 12, 46, 0
14, 143340, Note_on_c, 12, 51, 123
14, 143436, Note_on_c, 12, 51, 0
14, 143700, Note_on_c, 12, 60, 127
14, 143844, Note_on_c, 12, 60, 0
14, 143880, Note_on_c, 12, 56, 123
14, 144024, Note_on_c, 12, 56, 0
14, 144060, Note_on_c, 12, 55, 127
14, 144156, Note_on_c, 12, 55, 0
14, 144420, Note_on_c, 12, 58, 123
14, 144564, Note_on_c, 12, 58, 0
14, 144600, Note_on_c, 12, 46, 121
14, 144744, Note_on_c, 12, 46, 0
14, 144780, Note_on_c, 12, 51, 126
14, 144876, Note_on_c, 12, 51, 0
14, 153060, Note_on_c, 12, 51, 127
14, 153108, Note_on_c, 12, 51, 0
14, 153120, Note_on_c, 12, 51, 127
14, 153168, Note_on_c, 12, 51, 0
14, 153180, Note_on_c, 12, 51, 127
14, 153228, Note_on_c, 12, 51, 0
14, 153240, Note_on_c, 12, 51, 123
14, 153336, Note_on_c, 12, 51, 0
14, 153360, Note_on_c, 12, 51, 127
14, 153408, Note_on_c, 12, 51, 0
14, 153420, Note_on_c, 12, 51, 127
14, 153468, Note_on_c, 12, 51, 0
14, 153480, Note_on_c, 12, 51, 123
14, 153696, Note_on_c, 12, 51, 0
14, 153720, Note_on_c, 12, 46, 123
14, 153768, Note_on_c, 12, 46, 0
14, 153780, Note_on_c, 12, 46, 126
14, 153828, Note_on_c, 12, 46, 0
14, 153840, Note_on_c, 12, 46, 126
14, 154056, Note_on_c, 12, 46, 0
14, 154080, Note_on_c, 12, 46, 126
14, 154128, Note_on_c, 12, 46, 0
14, 154140, Note_on_c, 12, 51, 121
14, 154188, Note_on_c, 12, 51, 0
14, 154200, Note_on_c, 12, 51, 121
14, 154296, Note_on_c, 12, 51, 0
14, 154320, Note_on_c, 12, 51, 115
14, 154368, Note_on_c, 12, 51, 0
14, 154380, Note_on_c, 12, 51, 121
14, 154476, Note_on_c, 12, 51, 0
14, 154500, Note_on_c, 12, 51, 126
14, 154548, Note_on_c, 12, 51, 0
14, 154560, Note_on_c, 12, 51, 126
14, 154656, Note_on_c, 12, 51, 0
14, 154680, Note_on_c, 12, 51, 126
14, 154728, Note_on_c, 12, 51, 0
14, 154740, Note_on_c, 12, 51, 123
14, 154836, Note_on_c, 12, 51, 0
14, 154860, Note_on_c, 12, 51, 118
14, 154956, Note_on_c, 12, 51, 0
14, 155040, Note_on_c, 12, 51, 123
14, 155136, Note_on_c, 12, 51, 0
14, 155220, Note_on_c, 12, 51, 115
14, 155316, Note_on_c, 12, 51, 0
14, 155316, End_track
15, 0, Start_track
15, 0, MIDI_port, 0
15, 0, Title_t, "Bass"
15, 0, Program_c, 13, 43
15, 0, Control_c, 13, 7, 100
15, 0, Control_c, 13, 10, 110
15, 0, Control_c, 13, 93, 0
15, 0, Control_c, 13, 91, 0
15, 5700, Note_on_c, 13, 53, 127
15, 5724, Note_on_c, 13, 53, 0
15, 5730, Note_on_c, 13, 51, 103
15, 5754, Note_on_c, 13, 51, 0
15, 5760, Note_on_c, 13, 51, 123
15, 5808, Note_on_c, 13, 51, 0
15, 5820, Note_on_c, 13, 51, 111
15, 5868, Note_on_c, 13, 51, 0
15, 5880, Note_on_c, 13, 51, 115
15, 5928, Note_on_c, 13, 51, 0
15, 5940, Note_on_c, 13, 51, 127
15, 6036, Note_on_c, 13, 51, 0
15, 6060, Note_on_c, 13, 51, 113
15, 6108, Note_on_c, 13, 51, 0
15, 6120, Note_on_c, 13, 51, 121
15, 6168, Note_on_c, 13, 51, 0
15, 6180, Note_on_c, 13, 51, 121
15, 6396, Note_on_c, 13, 51, 0
15, 6420, Note_on_c, 13, 51, 118
15, 6468, Note_on_c, 13, 51, 0
15, 6480, Note_on_c, 13, 50, 118
15, 6528, Note_on_c, 13, 50, 0
15, 6600, Note_on_c, 13, 46, 115
15, 6648, Note_on_c, 13, 46, 0
15, 6660, Note_on_c, 13, 51, 115
15, 6708, Note_on_c, 13, 51, 0
15, 6780, Note_on_c, 13, 55, 127
15, 6828, Note_on_c, 13, 55, 0
15, 6840, Note_on_c, 13, 58, 126
15, 6888, Note_on_c, 13, 58, 0
15, 6900, Note_on_c, 13, 46, 113
15, 6948, Note_on_c, 13, 46, 0
15, 6960, Note_on_c, 13, 46, 121
15, 7008, Note_on_c, 13, 46, 0
15, 7020, Note_on_c, 13, 46, 123
15, 7068, Note_on_c, 13, 46, 0
15, 7080, Note_on_c, 13, 46, 127
15, 7104, Note_on_c, 13, 46, 0
15, 7110, Note_on_c, 13, 56, 113
15, 7134, Note_on_c, 13, 56, 0
15, 7140, Note_on_c, 13, 55, 127
15, 7164, Note_on_c, 13, 55, 0
15, 7170, Note_on_c, 13, 53, 123
15, 7194, Note_on_c, 13, 53, 0
15, 7200, Note_on_c, 13, 51, 123
15, 7248, Note_on_c, 13, 51, 0
15, 7260, Note_on_c, 13, 51, 126
15, 7308, Note_on_c, 13, 51, 0
15, 7320, Note_on_c, 13, 51, 123
15, 7368, Note_on_c, 13, 51, 0
15, 7380, Note_on_c, 13, 51, 121
15, 7476, Note_on_c, 13, 51, 0
15, 7500, Note_on_c, 13, 51, 121
15, 7548, Note_on_c, 13, 51, 0
15, 7560, Note_on_c, 13, 51, 113
15, 7608, Note_on_c, 13, 51, 0
15, 7620, Note_on_c, 13, 51, 121
15, 7836, Note_on_c, 13, 51, 0
15, 7860, Note_on_c, 13, 51, 107
15, 7908, Note_on_c, 13, 51, 0
15, 7920, Note_on_c, 13, 50, 127
15, 7968, Note_on_c, 13, 50, 0
15, 8040, Note_on_c, 13, 46, 109
15, 8088, Note_on_c, 13, 46, 0
15, 8100, Note_on_c, 13, 51, 88
15, 8148, Note_on_c, 13, 51, 0
15, 8220, Note_on_c, 13, 55, 125
15, 8268, Note_on_c, 13, 55, 0
15, 8280, Note_on_c, 13, 58, 76
15, 8328, Note_on_c, 13, 58, 0
15, 8340, Note_on_c, 13, 46, 111
15, 8388, Note_on_c, 13, 46, 0
15, 8400, Note_on_c, 13, 46, 107
15, 8448, Note_on_c, 13, 46, 0
15, 8460, Note_on_c, 13, 46, 111
15, 8508, Note_on_c, 13, 46, 0
15, 8520, Note_on_c, 13, 46, 113
15, 8568, Note_on_c, 13, 46, 0
15, 8580, Note_on_c, 13, 46, 109
15, 8628, Note_on_c, 13, 46, 0
15, 8640, Note_on_c, 13, 46, 115
15, 8736, Note_on_c, 13, 46, 0
15, 8820, Note_on_c, 13, 46, 113
15, 8916, Note_on_c, 13, 46, 0
15, 9000, Note_on_c, 13, 46, 115
15, 9096, Note_on_c, 13, 46, 0
15, 9180, Note_on_c, 13, 46, 113
15, 9276, Note_on_c, 13, 46, 0
15, 9360, Note_on_c, 13, 46, 111
15, 9456, Note_on_c, 13, 46, 0
15, 9480, Note_on_c, 13, 46, 105
15, 9528, Note_on_c, 13, 46, 0
15, 9540, Note_on_c, 13, 46, 115
15, 9612, Note_on_c, 13, 46, 0
15, 9630, Note_on_c, 13, 46, 123
15, 9654, Note_on_c, 13, 46, 0
15, 9660, Note_on_c, 13, 46, 111
15, 9708, Note_on_c, 13, 46, 0
15, 9720, Note_on_c, 13, 51, 121
15, 9816, Note_on_c, 13, 51, 0
15, 9840, Note_on_c, 13, 51, 113
15, 9888, Note_on_c, 13, 51, 0
15, 9900, Note_on_c, 13, 51, 111
15, 9996, Note_on_c, 13, 51, 0
15, 10020, Note_on_c, 13, 46, 111
15, 10068, Note_on_c, 13, 46, 0
15, 10080, Note_on_c, 13, 46, 111
15, 10176, Note_on_c, 13, 46, 0
15, 10200, Note_on_c, 13, 46, 118
15, 10248, Note_on_c, 13, 46, 0
15, 10260, Note_on_c, 13, 46, 115
15, 10332, Note_on_c, 13, 46, 0
15, 10350, Note_on_c, 13, 46, 121
15, 10374, Note_on_c, 13, 46, 0
15, 10380, Note_on_c, 13, 46, 123
15, 10428, Note_on_c, 13, 46, 0
15, 10440, Note_on_c, 13, 51, 118
15, 10716, Note_on_c, 13, 51, 0
15, 10740, Note_on_c, 13, 39, 126
15, 10788, Note_on_c, 13, 39, 0
15, 10800, Note_on_c, 13, 53, 127
15, 11076, Note_on_c, 13, 53, 0
15, 11100, Note_on_c, 13, 41, 127
15, 11148, Note_on_c, 13, 41, 0
15, 11160, Note_on_c, 13, 55, 127
15, 11436, Note_on_c, 13, 55, 0
15, 11460, Note_on_c, 13, 43, 127
15, 11508, Note_on_c, 13, 43, 0
15, 11520, Note_on_c, 13, 44, 126
15, 11592, Note_on_c, 13, 44, 0
15, 11610, Note_on_c, 13, 56, 115
15, 11634, Note_on_c, 13, 56, 0
15, 11640, Note_on_c, 13, 56, 115
15, 11688, Note_on_c, 13, 56, 0
15, 11700, Note_on_c, 13, 56, 111
15, 11772, Note_on_c, 13, 56, 0
15, 11790, Note_on_c, 13, 56, 118
15, 11814, Note_on_c, 13, 56, 0
15, 11820, Note_on_c, 13, 57, 123
15, 11868, Note_on_c, 13, 57, 0
15, 11880, Note_on_c, 13, 58, 115
15, 11952, Note_on_c, 13, 58, 0
15, 11970, Note_on_c, 13, 57, 114
15, 11994, Note_on_c, 13, 57, 0
15, 12000, Note_on_c, 13, 56, 113
15, 12048, Note_on_c, 13, 56, 0
15, 12060, Note_on_c, 13, 55, 117
15, 12132, Note_on_c, 13, 55, 0
15, 12150, Note_on_c, 13, 53, 127
15, 12174, Note_on_c, 13, 53, 0
15, 12180, Note_on_c, 13, 51, 113
15, 12228, Note_on_c, 13, 51, 0
15, 12240, Note_on_c, 13, 56, 123
15, 12336, Note_on_c, 13, 56, 0
15, 12420, Note_on_c, 13, 46, 121
15, 12516, Note_on_c, 13, 46, 0
15, 12600, Note_on_c, 13, 51, 121
15, 12696, Note_on_c, 13, 51, 0
15, 12960, Note_on_c, 13, 60, 127
15, 13104, Note_on_c, 13, 60, 0
15, 13140, Note_on_c, 13, 56, 107
15, 13284, Note_on_c, 13, 56, 0
15, 13320, Note_on_c, 13, 55, 120
15, 13416, Note_on_c, 13, 55, 0
15, 13680, Note_on_c, 13, 58, 121
15, 13824, Note_on_c, 13, 58, 0
15, 13860, Note_on_c, 13, 46, 121
15, 14004, Note_on_c, 13, 46, 0
15, 14040, Note_on_c, 13, 51, 121
15, 14136, Note_on_c, 13, 51, 0
15, 14400, Note_on_c, 13, 51, 111
15, 14496, Note_on_c, 13, 51, 0
15, 14760, Note_on_c, 13, 51, 126
15, 14856, Note_on_c, 13, 51, 0
15, 19200, Note_on_c, 13, 53, 94
15, 19248, Note_on_c, 13, 53, 0
15, 19260, Note_on_c, 13, 53, 93
15, 19356, Note_on_c, 13, 53, 0
15, 19920, Note_on_c, 13, 56, 84
15, 19968, Note_on_c, 13, 56, 0
15, 19980, Note_on_c, 13, 56, 86
15, 20076, Note_on_c, 13, 56, 0
15, 21960, Note_on_c, 13, 51, 111
15, 22188, Note_on_c, 13, 51, 0
15, 22200, Note_on_c, 13, 56, 121
15, 22248, Note_on_c, 13, 56, 0
15, 22260, Note_on_c, 13, 55, 120
15, 22308, Note_on_c, 13, 55, 0
15, 22320, Note_on_c, 13, 53, 120
15, 22368, Note_on_c, 13, 53, 0
15, 22380, Note_on_c, 13, 51, 103
15, 22428, Note_on_c, 13, 51, 0
15, 22440, Note_on_c, 13, 50, 120
15, 22488, Note_on_c, 13, 50, 0
15, 22500, Note_on_c, 13, 48, 120
15, 22548, Note_on_c, 13, 48, 0
15, 22560, Note_on_c, 13, 46, 103
15, 22608, Note_on_c, 13, 46, 0
15, 22620, Note_on_c, 13, 45, 123
15, 22668, Note_on_c, 13, 45, 0
15, 22680, Note_on_c, 13, 43, 109
15, 22728, Note_on_c, 13, 43, 0
15, 22740, Note_on_c, 13, 41, 105
15, 22788, Note_on_c, 13, 41, 0
15, 22800, Note_on_c, 13, 53, 101
15, 22848, Note_on_c, 13, 53, 0
15, 22860, Note_on_c, 13, 53, 111
15, 22908, Note_on_c, 13, 53, 0
15, 22920, Note_on_c, 13, 53, 113
15, 22968, Note_on_c, 13, 53, 0
15, 22980, Note_on_c, 13, 53, 110
15, 23028, Note_on_c, 13, 53, 0
15, 23040, Note_on_c, 13, 53, 116
15, 23136, Note_on_c, 13, 53, 0
15, 23760, Note_on_c, 13, 50, 116
15, 23856, Note_on_c, 13, 50, 0
15, 24480, Note_on_c, 13, 51, 115
15, 24576, Note_on_c, 13, 51, 0
15, 28980, Note_on_c, 13, 46, 111
15, 29076, Note_on_c, 13, 46, 0
15, 29100, Note_on_c, 13, 46, 100
15, 29148, Note_on_c, 13, 46, 0
15, 29160, Note_on_c, 13, 46, 115
15, 29304, Note_on_c, 13, 46, 0
15, 29340, Note_on_c, 13, 51, 127
15, 29484, Note_on_c, 13, 51, 0
15, 29520, Note_on_c, 13, 46, 123
15, 29664, Note_on_c, 13, 46, 0
15, 29700, Note_on_c, 13, 51, 123
15, 29844, Note_on_c, 13, 51, 0
15, 29880, Note_on_c, 13, 46, 111
15, 29976, Note_on_c, 13, 46, 0
15, 30000, Note_on_c, 13, 51, 121
15, 30048, Note_on_c, 13, 51, 0
15, 30060, Note_on_c, 13, 46, 109
15, 30156, Note_on_c, 13, 46, 0
15, 30180, Note_on_c, 13, 51, 109
15, 30228, Note_on_c, 13, 51, 0
15, 30240, Note_on_c, 13, 46, 113
15, 30336, Note_on_c, 13, 46, 0
15, 30360, Note_on_c, 13, 51, 111
15, 30408, Note_on_c, 13, 51, 0
15, 30420, Note_on_c, 13, 46, 121
15, 30516, Note_on_c, 13, 46, 0
15, 30540, Note_on_c, 13, 51, 123
15, 30588, Note_on_c, 13, 51, 0
15, 30600, Note_on_c, 13, 46, 121
15, 30696, Note_on_c, 13, 46, 0
15, 55080, Note_on_c, 13, 48, 127
15, 55176, Note_on_c, 13, 48, 0
15, 55440, Note_on_c, 13, 57, 127
15, 55584, Note_on_c, 13, 57, 0
15, 55620, Note_on_c, 13, 53, 127
15, 55764, Note_on_c, 13, 53, 0
15, 55800, Note_on_c, 13, 52, 127
15, 55896, Note_on_c, 13, 52, 0
15, 56160, Note_on_c, 13, 55, 121
15, 56304, Note_on_c, 13, 55, 0
15, 56340, Note_on_c, 13, 43, 118
15, 56484, Note_on_c, 13, 43, 0
15, 56520, Note_on_c, 13, 48, 127
15, 56616, Note_on_c, 13, 48, 0
15, 56880, Note_on_c, 13, 48, 127
15, 56976, Note_on_c, 13, 48, 0
15, 59700, Note_on_c, 13, 56, 68
15, 59760, Note_on_c, 13, 56, 65
15, 59796, Note_on_c, 13, 56, 0
15, 59808, Note_on_c, 13, 56, 0
15, 59820, Note_on_c, 13, 56, 67
15, 59868, Note_on_c, 13, 56, 0
15, 59940, Note_on_c, 13, 56, 68
15, 59988, Note_on_c, 13, 56, 0
15, 60000, Note_on_c, 13, 56, 73
15, 60048, Note_on_c, 13, 56, 0
15, 60120, Note_on_c, 13, 56, 68
15, 60168, Note_on_c, 13, 56, 0
15, 60180, Note_on_c, 13, 56, 73
15, 60228, Note_on_c, 13, 56, 0
15, 60300, Note_on_c, 13, 56, 69
15, 60348, Note_on_c, 13, 56, 0
15, 60360, Note_on_c, 13, 56, 73
15, 60408, Note_on_c, 13, 56, 0
15, 60480, Note_on_c, 13, 49, 69
15, 60528, Note_on_c, 13, 49, 0
15, 60540, Note_on_c, 13, 49, 73
15, 60588, Note_on_c, 13, 49, 0
15, 60660, Note_on_c, 13, 49, 67
15, 60708, Note_on_c, 13, 49, 0
15, 60720, Note_on_c, 13, 49, 76
15, 60768, Note_on_c, 13, 49, 0
15, 60840, Note_on_c, 13, 49, 68
15, 60888, Note_on_c, 13, 49, 0
15, 60900, Note_on_c, 13, 49, 73
15, 60948, Note_on_c, 13, 49, 0
15, 61020, Note_on_c, 13, 49, 68
15, 61068, Note_on_c, 13, 49, 0
15, 61080, Note_on_c, 13, 49, 73
15, 61128, Note_on_c, 13, 49, 0
15, 61200, Note_on_c, 13, 51, 65
15, 61248, Note_on_c, 13, 51, 0
15, 61260, Note_on_c, 13, 51, 69
15, 61308, Note_on_c, 13, 51, 0
15, 61380, Note_on_c, 13, 51, 64
15, 61428, Note_on_c, 13, 51, 0
15, 61440, Note_on_c, 13, 51, 71
15, 61488, Note_on_c, 13, 51, 0
15, 61560, Note_on_c, 13, 51, 65
15, 61608, Note_on_c, 13, 51, 0
15, 61620, Note_on_c, 13, 51, 74
15, 61668, Note_on_c, 13, 51, 0
15, 61740, Note_on_c, 13, 51, 69
15, 61788, Note_on_c, 13, 51, 0
15, 61800, Note_on_c, 13, 51, 69
15, 61848, Note_on_c, 13, 51, 0
15, 64800, Note_on_c, 13, 56, 121
15, 64896, Note_on_c, 13, 56, 0
15, 65160, Note_on_c, 13, 53, 127
15, 65304, Note_on_c, 13, 53, 0
15, 65340, Note_on_c, 13, 49, 121
15, 65484, Note_on_c, 13, 49, 0
15, 65520, Note_on_c, 13, 48, 127
15, 65616, Note_on_c, 13, 48, 0
15, 65880, Note_on_c, 13, 63, 121
15, 66024, Note_on_c, 13, 63, 0
15, 66060, Note_on_c, 13, 51, 113
15, 66204, Note_on_c, 13, 51, 0
15, 66240, Note_on_c, 13, 44, 113
15, 66336, Note_on_c, 13, 44, 0
15, 66600, Note_on_c, 13, 44, 118
15, 66696, Note_on_c, 13, 44, 0
15, 74880, Note_on_c, 13, 52, 127
15, 74976, Note_on_c, 13, 52, 0
15, 75240, Note_on_c, 13, 61, 118
15, 75384, Note_on_c, 13, 61, 0
15, 75420, Note_on_c, 13, 57, 127
15, 75564, Note_on_c, 13, 57, 0
15, 75600, Note_on_c, 13, 56, 118
15, 75696, Note_on_c, 13, 56, 0
15, 75960, Note_on_c, 13, 59, 127
15, 76104, Note_on_c, 13, 59, 0
15, 76140, Note_on_c, 13, 47, 127
15, 76284, Note_on_c, 13, 47, 0
15, 76320, Note_on_c, 13, 52, 127
15, 76416, Note_on_c, 13, 52, 0
15, 79200, Note_on_c, 13, 46, 111
15, 79272, Note_on_c, 13, 46, 0
15, 79290, Note_on_c, 13, 46, 123
15, 79314, Note_on_c, 13, 46, 0
15, 79320, Note_on_c, 13, 46, 127
15, 79368, Note_on_c, 13, 46, 0
15, 79380, Note_on_c, 13, 46, 123
15, 79428, Note_on_c, 13, 46, 0
15, 79440, Note_on_c, 13, 46, 123
15, 79488, Note_on_c, 13, 46, 0
15, 79500, Note_on_c, 13, 46, 127
15, 79548, Note_on_c, 13, 46, 0
15, 79560, Note_on_c, 13, 46, 127
15, 79632, Note_on_c, 13, 46, 0
15, 79650, Note_on_c, 13, 46, 125
15, 79674, Note_on_c, 13, 46, 0
15, 79680, Note_on_c, 13, 46, 127
15, 79728, Note_on_c, 13, 46, 0
15, 79740, Note_on_c, 13, 46, 127
15, 79788, Note_on_c, 13, 46, 0
15, 79800, Note_on_c, 13, 46, 117
15, 79848, Note_on_c, 13, 46, 0
15, 79860, Note_on_c, 13, 46, 113
15, 79908, Note_on_c, 13, 46, 0
15, 80640, Note_on_c, 13, 46, 123
15, 80712, Note_on_c, 13, 46, 0
15, 80730, Note_on_c, 13, 46, 126
15, 80754, Note_on_c, 13, 46, 0
15, 80760, Note_on_c, 13, 46, 121
15, 80808, Note_on_c, 13, 46, 0
15, 80820, Note_on_c, 13, 46, 121
15, 80868, Note_on_c, 13, 46, 0
15, 80880, Note_on_c, 13, 46, 118
15, 80928, Note_on_c, 13, 46, 0
15, 80940, Note_on_c, 13, 46, 121
15, 80988, Note_on_c, 13, 46, 0
15, 81000, Note_on_c, 13, 46, 123
15, 81072, Note_on_c, 13, 46, 0
15, 81090, Note_on_c, 13, 46, 126
15, 81114, Note_on_c, 13, 46, 0
15, 81120, Note_on_c, 13, 46, 121
15, 81168, Note_on_c, 13, 46, 0
15, 81180, Note_on_c, 13, 46, 118
15, 81228, Note_on_c, 13, 46, 0
15, 81240, Note_on_c, 13, 46, 121
15, 81288, Note_on_c, 13, 46, 0
15, 81300, Note_on_c, 13, 46, 123
15, 81348, Note_on_c, 13, 46, 0
15, 82260, Note_on_c, 13, 46, 123
15, 82332, Note_on_c, 13, 46, 0
15, 82350, Note_on_c, 13, 46, 123
15, 82374, Note_on_c, 13, 46, 0
15, 82380, Note_on_c, 13, 46, 118
15, 82428, Note_on_c, 13, 46, 0
15, 82620, Note_on_c, 13, 46, 123
15, 82692, Note_on_c, 13, 46, 0
15, 82710, Note_on_c, 13, 46, 126
15, 82734, Note_on_c, 13, 46, 0
15, 82740, Note_on_c, 13, 46, 126
15, 82788, Note_on_c, 13, 46, 0
15, 94260, Note_on_c, 13, 53, 127
15, 94284, Note_on_c, 13, 53, 0
15, 94290, Note_on_c, 13, 51, 103
15, 94314, Note_on_c, 13, 51, 0
15, 94320, Note_on_c, 13, 51, 123
15, 94368, Note_on_c, 13, 51, 0
15, 94380, Note_on_c, 13, 51, 111
15, 94428, Note_on_c, 13, 51, 0
15, 94440, Note_on_c, 13, 51, 115
15, 94488, Note_on_c, 13, 51, 0
15, 94500, Note_on_c, 13, 51, 127
15, 94596, Note_on_c, 13, 51, 0
15, 94620, Note_on_c, 13, 51, 113
15, 94668, Note_on_c, 13, 51, 0
15, 94680, Note_on_c, 13, 51, 121
15, 94728, Note_on_c, 13, 51, 0
15, 94740, Note_on_c, 13, 51, 121
15, 94956, Note_on_c, 13, 51, 0
15, 94980, Note_on_c, 13, 51, 118
15, 95028, Note_on_c, 13, 51, 0
15, 95040, Note_on_c, 13, 50, 118
15, 95088, Note_on_c, 13, 50, 0
15, 95160, Note_on_c, 13, 46, 115
15, 95208, Note_on_c, 13, 46, 0
15, 95220, Note_on_c, 13, 51, 115
15, 95268, Note_on_c, 13, 51, 0
15, 95340, Note_on_c, 13, 55, 127
15, 95388, Note_on_c, 13, 55, 0
15, 95400, Note_on_c, 13, 58, 126
15, 95448, Note_on_c, 13, 58, 0
15, 95460, Note_on_c, 13, 46, 113
15, 95508, Note_on_c, 13, 46, 0
15, 95520, Note_on_c, 13, 46, 121
15, 95568, Note_on_c, 13, 46, 0
15, 95580, Note_on_c, 13, 46, 123
15, 95628, Note_on_c, 13, 46, 0
15, 95640, Note_on_c, 13, 46, 127
15, 95664, Note_on_c, 13, 46, 0
15, 95670, Note_on_c, 13, 56, 113
15, 95694, Note_on_c, 13, 56, 0
15, 95700, Note_on_c, 13, 55, 127
15, 95724, Note_on_c, 13, 55, 0
15, 95730, Note_on_c, 13, 53, 123
15, 95754, Note_on_c, 13, 53, 0
15, 95760, Note_on_c, 13, 51, 123
15, 95808, Note_on_c, 13, 51, 0
15, 95820, Note_on_c, 13, 51, 126
15, 95868, Note_on_c, 13, 51, 0
15, 95880, Note_on_c, 13, 51, 123
15, 95928, Note_on_c, 13, 51, 0
15, 95940, Note_on_c, 13, 51, 121
15, 96036, Note_on_c, 13, 51, 0
15, 96060, Note_on_c, 13, 51, 121
15, 96108, Note_on_c, 13, 51, 0
15, 96120, Note_on_c, 13, 51, 113
15, 96168, Note_on_c, 13, 51, 0
15, 96180, Note_on_c, 13, 51, 121
15, 96396, Note_on_c, 13, 51, 0
15, 96420, Note_on_c, 13, 51, 107
15, 96468, Note_on_c, 13, 51, 0
15, 96480, Note_on_c, 13, 50, 127
15, 96528, Note_on_c, 13, 50, 0
15, 96600, Note_on_c, 13, 46, 109
15, 96648, Note_on_c, 13, 46, 0
15, 96660, Note_on_c, 13, 51, 88
15, 96708, Note_on_c, 13, 51, 0
15, 96780, Note_on_c, 13, 55, 125
15, 96828, Note_on_c, 13, 55, 0
15, 96840, Note_on_c, 13, 58, 76
15, 96888, Note_on_c, 13, 58, 0
15, 96900, Note_on_c, 13, 46, 111
15, 96948, Note_on_c, 13, 46, 0
15, 96960, Note_on_c, 13, 46, 107
15, 97008, Note_on_c, 13, 46, 0
15, 97020, Note_on_c, 13, 46, 111
15, 97068, Note_on_c, 13, 46, 0
15, 97080, Note_on_c, 13, 46, 113
15, 97128, Note_on_c, 13, 46, 0
15, 97140, Note_on_c, 13, 46, 109
15, 97188, Note_on_c, 13, 46, 0
15, 97200, Note_on_c, 13, 46, 115
15, 97296, Note_on_c, 13, 46, 0
15, 97380, Note_on_c, 13, 46, 113
15, 97476, Note_on_c, 13, 46, 0
15, 97560, Note_on_c, 13, 46, 115
15, 97656, Note_on_c, 13, 46, 0
15, 97740, Note_on_c, 13, 46, 113
15, 97836, Note_on_c, 13, 46, 0
15, 97920, Note_on_c, 13, 46, 111
15, 98016, Note_on_c, 13, 46, 0
15, 98040, Note_on_c, 13, 46, 105
15, 98088, Note_on_c, 13, 46, 0
15, 98100, Note_on_c, 13, 46, 115
15, 98172, Note_on_c, 13, 46, 0
15, 98190, Note_on_c, 13, 46, 123
15, 98214, Note_on_c, 13, 46, 0
15, 98220, Note_on_c, 13, 46, 111
15, 98268, Note_on_c, 13, 46, 0
15, 98280, Note_on_c, 13, 51, 121
15, 98376, Note_on_c, 13, 51, 0
15, 98400, Note_on_c, 13, 51, 113
15, 98448, Note_on_c, 13, 51, 0
15, 98460, Note_on_c, 13, 51, 111
15, 98556, Note_on_c, 13, 51, 0
15, 98580, Note_on_c, 13, 46, 111
15, 98628, Note_on_c, 13, 46, 0
15, 98640, Note_on_c, 13, 46, 111
15, 98736, Note_on_c, 13, 46, 0
15, 98760, Note_on_c, 13, 46, 118
15, 98808, Note_on_c, 13, 46, 0
15, 98820, Note_on_c, 13, 46, 115
15, 98892, Note_on_c, 13, 46, 0
15, 98910, Note_on_c, 13, 46, 121
15, 98934, Note_on_c, 13, 46, 0
15, 98940, Note_on_c, 13, 46, 123
15, 98988, Note_on_c, 13, 46, 0
15, 99000, Note_on_c, 13, 51, 118
15, 99276, Note_on_c, 13, 51, 0
15, 99300, Note_on_c, 13, 39, 126
15, 99348, Note_on_c, 13, 39, 0
15, 99360, Note_on_c, 13, 53, 127
15, 99636, Note_on_c, 13, 53, 0
15, 99660, Note_on_c, 13, 41, 127
15, 99708, Note_on_c, 13, 41, 0
15, 99720, Note_on_c, 13, 55, 127
15, 99996, Note_on_c, 13, 55, 0
15, 100020, Note_on_c, 13, 43, 127
15, 100068, Note_on_c, 13, 43, 0
15, 100080, Note_on_c, 13, 44, 126
15, 100152, Note_on_c, 13, 44, 0
15, 100170, Note_on_c, 13, 56, 115
15, 100194, Note_on_c, 13, 56, 0
15, 100200, Note_on_c, 13, 56, 115
15, 100248, Note_on_c, 13, 56, 0
15, 100260, Note_on_c, 13, 56, 111
15, 100332, Note_on_c, 13, 56, 0
15, 100350, Note_on_c, 13, 56, 118
15, 100374, Note_on_c, 13, 56, 0
15, 100380, Note_on_c, 13, 57, 123
15, 100428, Note_on_c, 13, 57, 0
15, 100440, Note_on_c, 13, 58, 115
15, 100512, Note_on_c, 13, 58, 0
15, 100530, Note_on_c, 13, 57, 114
15, 100554, Note_on_c, 13, 57, 0
15, 100560, Note_on_c, 13, 56, 113
15, 100608, Note_on_c, 13, 56, 0
15, 100620, Note_on_c, 13, 55, 117
15, 100692, Note_on_c, 13, 55, 0
15, 100710, Note_on_c, 13, 53, 127
15, 100734, Note_on_c, 13, 53, 0
15, 100740, Note_on_c, 13, 51, 113
15, 100788, Note_on_c, 13, 51, 0
15, 100800, Note_on_c, 13, 56, 123
15, 100896, Note_on_c, 13, 56, 0
15, 100980, Note_on_c, 13, 46, 121
15, 101076, Note_on_c, 13, 46, 0
15, 101160, Note_on_c, 13, 51, 121
15, 101256, Note_on_c, 13, 51, 0
15, 101520, Note_on_c, 13, 60, 127
15, 101664, Note_on_c, 13, 60, 0
15, 101700, Note_on_c, 13, 56, 107
15, 101844, Note_on_c, 13, 56, 0
15, 101880, Note_on_c, 13, 55, 120
15, 101976, Note_on_c, 13, 55, 0
15, 102240, Note_on_c, 13, 58, 121
15, 102384, Note_on_c, 13, 58, 0
15, 102420, Note_on_c, 13, 46, 121
15, 102564, Note_on_c, 13, 46, 0
15, 102600, Note_on_c, 13, 51, 121
15, 102696, Note_on_c, 13, 51, 0
15, 102960, Note_on_c, 13, 51, 111
15, 103056, Note_on_c, 13, 51, 0
15, 103320, Note_on_c, 13, 51, 126
15, 103416, Note_on_c, 13, 51, 0
15, 107760, Note_on_c, 13, 53, 94
15, 107808, Note_on_c, 13, 53, 0
15, 107820, Note_on_c, 13, 53, 93
15, 107916, Note_on_c, 13, 53, 0
15, 108480, Note_on_c, 13, 56, 100
15, 108524, Note_on_c, 13, 56, 0
15, 108540, Note_on_c, 13, 56, 100
15, 108659, Note_on_c, 13, 56, 0
15, 111240, Note_on_c, 13, 44, 121
15, 111476, Note_on_c, 13, 44, 0
15, 111480, Note_on_c, 13, 61, 109
15, 111528, Note_on_c, 13, 61, 0
15, 111540, Note_on_c, 13, 60, 114
15, 111588, Note_on_c, 13, 60, 0
15, 111600, Note_on_c, 13, 58, 123
15, 111648, Note_on_c, 13, 58, 0
15, 111660, Note_on_c, 13, 56, 118
15, 111708, Note_on_c, 13, 56, 0
15, 111720, Note_on_c, 13, 55, 123
15, 111768, Note_on_c, 13, 55, 0
15, 111780, Note_on_c, 13, 53, 110
15, 111828, Note_on_c, 13, 53, 0
15, 111840, Note_on_c, 13, 51, 113
15, 111888, Note_on_c, 13, 51, 0
15, 111900, Note_on_c, 13, 50, 127
15, 111948, Note_on_c, 13, 50, 0
15, 111960, Note_on_c, 13, 48, 127
15, 112008, Note_on_c, 13, 48, 0
15, 112020, Note_on_c, 13, 46, 94
15, 112068, Note_on_c, 13, 46, 0
15, 112080, Note_on_c, 13, 58, 118
15, 112128, Note_on_c, 13, 58, 0
15, 112140, Note_on_c, 13, 46, 111
15, 112188, Note_on_c, 13, 46, 0
15, 112200, Note_on_c, 13, 58, 115
15, 112248, Note_on_c, 13, 58, 0
15, 112260, Note_on_c, 13, 46, 111
15, 112308, Note_on_c, 13, 46, 0
15, 112320, Note_on_c, 13, 46, 121
15, 112416, Note_on_c, 13, 46, 0
15, 113040, Note_on_c, 13, 55, 116
15, 113136, Note_on_c, 13, 55, 0
15, 113760, Note_on_c, 13, 56, 115
15, 113856, Note_on_c, 13, 56, 0
15, 119760, Note_on_c, 13, 51, 118
15, 119856, Note_on_c, 13, 51, 0
15, 119880, Note_on_c, 13, 56, 111
15, 119928, Note_on_c, 13, 56, 0
15, 119940, Note_on_c, 13, 51, 121
15, 120036, Note_on_c, 13, 51, 0
15, 123480, Note_on_c, 13, 56, 109
15, 123528, Note_on_c, 13, 56, 0
15, 123540, Note_on_c, 13, 55, 127
15, 123588, Note_on_c, 13, 55, 0
15, 123660, Note_on_c, 13, 51, 111
15, 123708, Note_on_c, 13, 51, 0
15, 123720, Note_on_c, 13, 56, 127
15, 123768, Note_on_c, 13, 56, 0
15, 123840, Note_on_c, 13, 60, 123
15, 123888, Note_on_c, 13, 60, 0
15, 123900, Note_on_c, 13, 51, 118
15, 123996, Note_on_c, 13, 51, 0
15, 124920, Note_on_c, 13, 56, 109
15, 124968, Note_on_c, 13, 56, 0
15, 124980, Note_on_c, 13, 55, 127
15, 125028, Note_on_c, 13, 55, 0
15, 125100, Note_on_c, 13, 51, 111
15, 125148, Note_on_c, 13, 51, 0
15, 125160, Note_on_c, 13, 56, 127
15, 125208, Note_on_c, 13, 56, 0
15, 125280, Note_on_c, 13, 60, 123
15, 125328, Note_on_c, 13, 60, 0
15, 125340, Note_on_c, 13, 51, 118
15, 125436, Note_on_c, 13, 51, 0
15, 126360, Note_on_c, 13, 56, 118
15, 126408, Note_on_c, 13, 56, 0
15, 126420, Note_on_c, 13, 51, 121
15, 126516, Note_on_c, 13, 51, 0
15, 126540, Note_on_c, 13, 51, 123
15, 126588, Note_on_c, 13, 51, 0
15, 126600, Note_on_c, 13, 51, 121
15, 126672, Note_on_c, 13, 51, 0
15, 126690, Note_on_c, 13, 51, 123
15, 126714, Note_on_c, 13, 51, 0
15, 126720, Note_on_c, 13, 51, 118
15, 126768, Note_on_c, 13, 51, 0
15, 126780, Note_on_c, 13, 56, 121
15, 126876, Note_on_c, 13, 56, 0
15, 126900, Note_on_c, 13, 56, 127
15, 126948, Note_on_c, 13, 56, 0
15, 126960, Note_on_c, 13, 56, 126
15, 127056, Note_on_c, 13, 56, 0
15, 128520, Note_on_c, 13, 51, 113
15, 128544, Note_on_c, 13, 51, 0
15, 128550, Note_on_c, 13, 51, 111
15, 128574, Note_on_c, 13, 51, 0
15, 128580, Note_on_c, 13, 51, 123
15, 128604, Note_on_c, 13, 51, 0
15, 128610, Note_on_c, 13, 51, 115
15, 128634, Note_on_c, 13, 51, 0
15, 128640, Note_on_c, 13, 51, 105
15, 128664, Note_on_c, 13, 51, 0
15, 128670, Note_on_c, 13, 51, 111
15, 128694, Note_on_c, 13, 51, 0
15, 128700, Note_on_c, 13, 51, 113
15, 128724, Note_on_c, 13, 51, 0
15, 128730, Note_on_c, 13, 51, 121
15, 128754, Note_on_c, 13, 51, 0
15, 128760, Note_on_c, 13, 51, 126
15, 128784, Note_on_c, 13, 51, 0
15, 128790, Note_on_c, 13, 51, 123
15, 128814, Note_on_c, 13, 51, 0
15, 128820, Note_on_c, 13, 51, 123
15, 128844, Note_on_c, 13, 51, 0
15, 128850, Note_on_c, 13, 51, 118
15, 128874, Note_on_c, 13, 51, 0
15, 128880, Note_on_c, 13, 51, 118
15, 128904, Note_on_c, 13, 51, 0
15, 128910, Note_on_c, 13, 51, 127
15, 128934, Note_on_c, 13, 51, 0
15, 128940, Note_on_c, 13, 51, 127
15, 128964, Note_on_c, 13, 51, 0
15, 128970, Note_on_c, 13, 51, 115
15, 128994, Note_on_c, 13, 51, 0
15, 129000, Note_on_c, 13, 51, 113
15, 129024, Note_on_c, 13, 51, 0
15, 129030, Note_on_c, 13, 51, 113
15, 129054, Note_on_c, 13, 51, 0
15, 129060, Note_on_c, 13, 51, 107
15, 129084, Note_on_c, 13, 51, 0
15, 129090, Note_on_c, 13, 51, 118
15, 129114, Note_on_c, 13, 51, 0
15, 129120, Note_on_c, 13, 51, 121
15, 129144, Note_on_c, 13, 51, 0
15, 129150, Note_on_c, 13, 51, 113
15, 129174, Note_on_c, 13, 51, 0
15, 129180, Note_on_c, 13, 51, 111
15, 129204, Note_on_c, 13, 51, 0
15, 129210, Note_on_c, 13, 51, 113
15, 129234, Note_on_c, 13, 51, 0
15, 129240, Note_on_c, 13, 51, 121
15, 129264, Note_on_c, 13, 51, 0
15, 129270, Note_on_c, 13, 51, 127
15, 129294, Note_on_c, 13, 51, 0
15, 129300, Note_on_c, 13, 50, 115
15, 129324, Note_on_c, 13, 50, 0
15, 129330, Note_on_c, 13, 50, 115
15, 129354, Note_on_c, 13, 50, 0
15, 129360, Note_on_c, 13, 50, 118
15, 129384, Note_on_c, 13, 50, 0
15, 129390, Note_on_c, 13, 50, 126
15, 129414, Note_on_c, 13, 50, 0
15, 129420, Note_on_c, 13, 46, 111
15, 129444, Note_on_c, 13, 46, 0
15, 129450, Note_on_c, 13, 46, 113
15, 129474, Note_on_c, 13, 46, 0
15, 129480, Note_on_c, 13, 51, 121
15, 129504, Note_on_c, 13, 51, 0
15, 129510, Note_on_c, 13, 51, 107
15, 129534, Note_on_c, 13, 51, 0
15, 129540, Note_on_c, 13, 51, 113
15, 129564, Note_on_c, 13, 51, 0
15, 129570, Note_on_c, 13, 51, 113
15, 129594, Note_on_c, 13, 51, 0
15, 129600, Note_on_c, 13, 55, 123
15, 129624, Note_on_c, 13, 55, 0
15, 129630, Note_on_c, 13, 55, 127
15, 129654, Note_on_c, 13, 55, 0
15, 129660, Note_on_c, 13, 58, 127
15, 129684, Note_on_c, 13, 58, 0
15, 129690, Note_on_c, 13, 46, 123
15, 129714, Note_on_c, 13, 46, 0
15, 129720, Note_on_c, 13, 46, 113
15, 129744, Note_on_c, 13, 46, 0
15, 129750, Note_on_c, 13, 46, 123
15, 129774, Note_on_c, 13, 46, 0
15, 129780, Note_on_c, 13, 46, 126
15, 129804, Note_on_c, 13, 46, 0
15, 129810, Note_on_c, 13, 58, 118
15, 129834, Note_on_c, 13, 58, 0
15, 129840, Note_on_c, 13, 58, 111
15, 129864, Note_on_c, 13, 58, 0
15, 129870, Note_on_c, 13, 58, 111
15, 129894, Note_on_c, 13, 58, 0
15, 129900, Note_on_c, 13, 58, 111
15, 129924, Note_on_c, 13, 58, 0
15, 129930, Note_on_c, 13, 56, 118
15, 129954, Note_on_c, 13, 56, 0
15, 129960, Note_on_c, 13, 55, 127
15, 129984, Note_on_c, 13, 55, 0
15, 129990, Note_on_c, 13, 53, 127
15, 130014, Note_on_c, 13, 53, 0
15, 130020, Note_on_c, 13, 51, 123
15, 130044, Note_on_c, 13, 51, 0
15, 130050, Note_on_c, 13, 51, 109
15, 130074, Note_on_c, 13, 51, 0
15, 130080, Note_on_c, 13, 51, 100
15, 130104, Note_on_c, 13, 51, 0
15, 130110, Note_on_c, 13, 51, 107
15, 130134, Note_on_c, 13, 51, 0
15, 130140, Note_on_c, 13, 51, 115
15, 130164, Note_on_c, 13, 51, 0
15, 130170, Note_on_c, 13, 51, 115
15, 130194, Note_on_c, 13, 51, 0
15, 130200, Note_on_c, 13, 51, 121
15, 130224, Note_on_c, 13, 51, 0
15, 130230, Note_on_c, 13, 51, 115
15, 130254, Note_on_c, 13, 51, 0
15, 130260, Note_on_c, 13, 51, 113
15, 130284, Note_on_c, 13, 51, 0
15, 130290, Note_on_c, 13, 51, 113
15, 130314, Note_on_c, 13, 51, 0
15, 130320, Note_on_c, 13, 51, 111
15, 130344, Note_on_c, 13, 51, 0
15, 130350, Note_on_c, 13, 51, 121
15, 130374, Note_on_c, 13, 51, 0
15, 130380, Note_on_c, 13, 51, 127
15, 130404, Note_on_c, 13, 51, 0
15, 130410, Note_on_c, 13, 51, 115
15, 130434, Note_on_c, 13, 51, 0
15, 130440, Note_on_c, 13, 51, 109
15, 130464, Note_on_c, 13, 51, 0
15, 130470, Note_on_c, 13, 51, 111
15, 130494, Note_on_c, 13, 51, 0
15, 130500, Note_on_c, 13, 51, 115
15, 130524, Note_on_c, 13, 51, 0
15, 130530, Note_on_c, 13, 51, 115
15, 130554, Note_on_c, 13, 51, 0
15, 130560, Note_on_c, 13, 51, 126
15, 130584, Note_on_c, 13, 51, 0
15, 130590, Note_on_c, 13, 51, 118
15, 130614, Note_on_c, 13, 51, 0
15, 130620, Note_on_c, 13, 51, 121
15, 130644, Note_on_c, 13, 51, 0
15, 130650, Note_on_c, 13, 51, 121
15, 130674, Note_on_c, 13, 51, 0
15, 130680, Note_on_c, 13, 51, 123
15, 130704, Note_on_c, 13, 51, 0
15, 130710, Note_on_c, 13, 51, 126
15, 130734, Note_on_c, 13, 51, 0
15, 130740, Note_on_c, 13, 50, 115
15, 130764, Note_on_c, 13, 50, 0
15, 130770, Note_on_c, 13, 50, 115
15, 130794, Note_on_c, 13, 50, 0
15, 130800, Note_on_c, 13, 50, 123
15, 130824, Note_on_c, 13, 50, 0
15, 130830, Note_on_c, 13, 50, 115
15, 130854, Note_on_c, 13, 50, 0
15, 130860, Note_on_c, 13, 46, 111
15, 130884, Note_on_c, 13, 46, 0
15, 130890, Note_on_c, 13, 46, 111
15, 130914, Note_on_c, 13, 46, 0
15, 130920, Note_on_c, 13, 51, 109
15, 130944, Note_on_c, 13, 51, 0
15, 130950, Note_on_c, 13, 51, 115
15, 130974, Note_on_c, 13, 51, 0
15, 130980, Note_on_c, 13, 51, 109
15, 131004, Note_on_c, 13, 51, 0
15, 131010, Note_on_c, 13, 51, 118
15, 131034, Note_on_c, 13, 51, 0
15, 131040, Note_on_c, 13, 55, 120
15, 131064, Note_on_c, 13, 55, 0
15, 131070, Note_on_c, 13, 55, 109
15, 131094, Note_on_c, 13, 55, 0
15, 131100, Note_on_c, 13, 58, 123
15, 131124, Note_on_c, 13, 58, 0
15, 131130, Note_on_c, 13, 46, 123
15, 131154, Note_on_c, 13, 46, 0
15, 131160, Note_on_c, 13, 46, 115
15, 131184, Note_on_c, 13, 46, 0
15, 131190, Note_on_c, 13, 46, 113
15, 131214, Note_on_c, 13, 46, 0
15, 131220, Note_on_c, 13, 46, 115
15, 131244, Note_on_c, 13, 46, 0
15, 131250, Note_on_c, 13, 46, 127
15, 131274, Note_on_c, 13, 46, 0
15, 131280, Note_on_c, 13, 46, 127
15, 131304, Note_on_c, 13, 46, 0
15, 131310, Note_on_c, 13, 58, 107
15, 131334, Note_on_c, 13, 58, 0
15, 131340, Note_on_c, 13, 58, 113
15, 131364, Note_on_c, 13, 58, 0
15, 131370, Note_on_c, 13, 58, 111
15, 131394, Note_on_c, 13, 58, 0
15, 131400, Note_on_c, 13, 58, 111
15, 131424, Note_on_c, 13, 58, 0
15, 131430, Note_on_c, 13, 58, 121
15, 131454, Note_on_c, 13, 58, 0
15, 131460, Note_on_c, 13, 46, 126
15, 131484, Note_on_c, 13, 46, 0
15, 131490, Note_on_c, 13, 58, 115
15, 131514, Note_on_c, 13, 58, 0
15, 131520, Note_on_c, 13, 58, 109
15, 131544, Note_on_c, 13, 58, 0
15, 131550, Note_on_c, 13, 58, 118
15, 131574, Note_on_c, 13, 58, 0
15, 131580, Note_on_c, 13, 58, 115
15, 131604, Note_on_c, 13, 58, 0
15, 131610, Note_on_c, 13, 58, 123
15, 131634, Note_on_c, 13, 58, 0
15, 131640, Note_on_c, 13, 46, 107
15, 131664, Note_on_c, 13, 46, 0
15, 131670, Note_on_c, 13, 58, 113
15, 131694, Note_on_c, 13, 58, 0
15, 131700, Note_on_c, 13, 58, 115
15, 131724, Note_on_c, 13, 58, 0
15, 131730, Note_on_c, 13, 58, 111
15, 131754, Note_on_c, 13, 58, 0
15, 131760, Note_on_c, 13, 58, 111
15, 131784, Note_on_c, 13, 58, 0
15, 131790, Note_on_c, 13, 58, 121
15, 131814, Note_on_c, 13, 58, 0
15, 131820, Note_on_c, 13, 46, 123
15, 131844, Note_on_c, 13, 46, 0
15, 131850, Note_on_c, 13, 58, 109
15, 131874, Note_on_c, 13, 58, 0
15, 131880, Note_on_c, 13, 58, 107
15, 131904, Note_on_c, 13, 58, 0
15, 131910, Note_on_c, 13, 58, 109
15, 131934, Note_on_c, 13, 58, 0
15, 131940, Note_on_c, 13, 58, 115
15, 131964, Note_on_c, 13, 58, 0
15, 131970, Note_on_c, 13, 58, 118
15, 131994, Note_on_c, 13, 58, 0
15, 132000, Note_on_c, 13, 46, 118
15, 132024, Note_on_c, 13, 46, 0
15, 132030, Note_on_c, 13, 58, 111
15, 132054, Note_on_c, 13, 58, 0
15, 132060, Note_on_c, 13, 58, 118
15, 132084, Note_on_c, 13, 58, 0
15, 132090, Note_on_c, 13, 58, 111
15, 132114, Note_on_c, 13, 58, 0
15, 132120, Note_on_c, 13, 58, 105
15, 132144, Note_on_c, 13, 58, 0
15, 132150, Note_on_c, 13, 58, 113
15, 132174, Note_on_c, 13, 58, 0
15, 132180, Note_on_c, 13, 46, 127
15, 132204, Note_on_c, 13, 46, 0
15, 132210, Note_on_c, 13, 58, 80
15, 132234, Note_on_c, 13, 58, 0
15, 132240, Note_on_c, 13, 58, 111
15, 132264, Note_on_c, 13, 58, 0
15, 132270, Note_on_c, 13, 58, 115
15, 132294, Note_on_c, 13, 58, 0
15, 132300, Note_on_c, 13, 58, 115
15, 132324, Note_on_c, 13, 58, 0
15, 132330, Note_on_c, 13, 58, 123
15, 132354, Note_on_c, 13, 58, 0
15, 132360, Note_on_c, 13, 46, 126
15, 132384, Note_on_c, 13, 46, 0
15, 132390, Note_on_c, 13, 58, 126
15, 132414, Note_on_c, 13, 58, 0
15, 132420, Note_on_c, 13, 46, 123
15, 132444, Note_on_c, 13, 46, 0
15, 132450, Note_on_c, 13, 46, 115
15, 132474, Note_on_c, 13, 46, 0
15, 132480, Note_on_c, 13, 46, 113
15, 132504, Note_on_c, 13, 46, 0
15, 132510, Note_on_c, 13, 46, 123
15, 132534, Note_on_c, 13, 46, 0
15, 132540, Note_on_c, 13, 51, 126
15, 132564, Note_on_c, 13, 51, 0
15, 132570, Note_on_c, 13, 51, 115
15, 132594, Note_on_c, 13, 51, 0
15, 132600, Note_on_c, 13, 51, 121
15, 132624, Note_on_c, 13, 51, 0
15, 132630, Note_on_c, 13, 51, 118
15, 132654, Note_on_c, 13, 51, 0
15, 132660, Note_on_c, 13, 51, 121
15, 132684, Note_on_c, 13, 51, 0
15, 132690, Note_on_c, 13, 51, 111
15, 132714, Note_on_c, 13, 51, 0
15, 132720, Note_on_c, 13, 51, 126
15, 132816, Note_on_c, 13, 51, 0
15, 153060, Note_on_c, 13, 51, 127
15, 153108, Note_on_c, 13, 51, 0
15, 153120, Note_on_c, 13, 51, 127
15, 153168, Note_on_c, 13, 51, 0
15, 153180, Note_on_c, 13, 51, 127
15, 153228, Note_on_c, 13, 51, 0
15, 153240, Note_on_c, 13, 51, 123
15, 153336, Note_on_c, 13, 51, 0
15, 153360, Note_on_c, 13, 51, 127
15, 153408, Note_on_c, 13, 51, 0
15, 153420, Note_on_c, 13, 51, 127
15, 153468, Note_on_c, 13, 51, 0
15, 153480, Note_on_c, 13, 51, 123
15, 153696, Note_on_c, 13, 51, 0
15, 153720, Note_on_c, 13, 46, 123
15, 153768, Note_on_c, 13, 46, 0
15, 153780, Note_on_c, 13, 46, 126
15, 153828, Note_on_c, 13, 46, 0
15, 153840, Note_on_c, 13, 46, 126
15, 154056, Note_on_c, 13, 46, 0
15, 154080, Note_on_c, 13, 46, 126
15, 154128, Note_on_c, 13, 46, 0
15, 154140, Note_on_c, 13, 51, 121
15, 154188, Note_on_c, 13, 51, 0
15, 154200, Note_on_c, 13, 51, 121
15, 154296, Note_on_c, 13, 51, 0
15, 154320, Note_on_c, 13, 51, 115
15, 154368, Note_on_c, 13, 51, 0
15, 154380, Note_on_c, 13, 51, 121
15, 154476, Note_on_c, 13, 51, 0
15, 154500, Note_on_c, 13, 51, 126
15, 154548, Note_on_c, 13, 51, 0
15, 154560, Note_on_c, 13, 51, 126
15, 154656, Note_on_c, 13, 51, 0
15, 154680, Note_on_c, 13, 51, 126
15, 154728, Note_on_c, 13, 51, 0
15, 154740, Note_on_c, 13, 51, 123
15, 154836, Note_on_c, 13, 51, 0
15, 154860, Note_on_c, 13, 51, 118
15, 154956, Note_on_c, 13, 51, 0
15, 155040, Note_on_c, 13, 51, 123
15, 155136, Note_on_c, 13, 51, 0
15, 155220, Note_on_c, 13, 51, 115
15, 155316, Note_on_c, 13, 51, 0
15, 155316, End_track
16, 0, Start_track
16, 0, MIDI_port, 0
16, 0, Title_t, "Pizz Strings"
16, 0, Program_c, 14, 45
16, 0, Control_c, 14, 7, 85
16, 0, Control_c, 14, 10, 60
16, 0, Control_c, 14, 93, 0
16, 0, Control_c, 14, 91, 0
16, 49260, Note_on_c, 14, 55, 100
16, 49260, Note_on_c, 14, 67, 105
16, 49308, Note_on_c, 14, 67, 0
16, 49308, Note_on_c, 14, 55, 0
16, 49320, Note_on_c, 14, 67, 105
16, 49320, Note_on_c, 14, 64, 118
16, 49320, Note_on_c, 14, 60, 104
16, 49416, Note_on_c, 14, 60, 0
16, 49416, Note_on_c, 14, 64, 0
16, 49416, Note_on_c, 14, 67, 0
16, 49620, Note_on_c, 14, 67, 105
16, 49620, Note_on_c, 14, 64, 114
16, 49620, Note_on_c, 14, 60, 101
16, 49668, Note_on_c, 14, 60, 0
16, 49668, Note_on_c, 14, 64, 0
16, 49668, Note_on_c, 14, 67, 0
16, 49680, Note_on_c, 14, 67, 109
16, 49680, Note_on_c, 14, 64, 118
16, 49680, Note_on_c, 14, 60, 113
16, 49776, Note_on_c, 14, 60, 0
16, 49776, Note_on_c, 14, 64, 0
16, 49776, Note_on_c, 14, 67, 0
16, 49980, Note_on_c, 14, 64, 105
16, 49980, Note_on_c, 14, 67, 108
16, 49980, Note_on_c, 14, 60, 96
16, 50028, Note_on_c, 14, 60, 0
16, 50028, Note_on_c, 14, 67, 0
16, 50028, Note_on_c, 14, 64, 0
16, 50040, Note_on_c, 14, 67, 109
16, 50040, Note_on_c, 14, 64, 110
16, 50040, Note_on_c, 14, 60, 100
16, 50136, Note_on_c, 14, 60, 0
16, 50136, Note_on_c, 14, 64, 0
16, 50136, Note_on_c, 14, 67, 0
16, 50340, Note_on_c, 14, 67, 105
16, 50340, Note_on_c, 14, 64, 109
16, 50340, Note_on_c, 14, 60, 98
16, 50388, Note_on_c, 14, 60, 0
16, 50388, Note_on_c, 14, 64, 0
16, 50388, Note_on_c, 14, 67, 0
16, 50400, Note_on_c, 14, 67, 104
16, 50400, Note_on_c, 14, 64, 127
16, 50400, Note_on_c, 14, 60, 98
16, 50496, Note_on_c, 14, 60, 0
16, 50496, Note_on_c, 14, 64, 0
16, 50496, Note_on_c, 14, 67, 0
16, 50700, Note_on_c, 14, 67, 114
16, 50700, Note_on_c, 14, 64, 114
16, 50700, Note_on_c, 14, 60, 100
16, 50748, Note_on_c, 14, 60, 0
16, 50748, Note_on_c, 14, 64, 0
16, 50748, Note_on_c, 14, 67, 0
16, 50760, Note_on_c, 14, 69, 100
16, 50760, Note_on_c, 14, 62, 103
16, 50760, Note_on_c, 14, 60, 100
16, 50856, Note_on_c, 14, 60, 0
16, 50856, Note_on_c, 14, 62, 0
16, 50856, Note_on_c, 14, 69, 0
16, 50940, Note_on_c, 14, 69, 106
16, 50940, Note_on_c, 14, 62, 125
16, 50940, Note_on_c, 14, 60, 109
16, 51036, Note_on_c, 14, 60, 0
16, 51036, Note_on_c, 14, 62, 0
16, 51036, Note_on_c, 14, 69, 0
16, 51120, Note_on_c, 14, 60, 100
16, 51120, Note_on_c, 14, 62, 103
16, 51120, Note_on_c, 14, 69, 100
16, 51216, Note_on_c, 14, 69, 0
16, 51216, Note_on_c, 14, 62, 0
16, 51216, Note_on_c, 14, 60, 0
16, 51300, Note_on_c, 14, 60, 109
16, 51300, Note_on_c, 14, 62, 125
16, 51300, Note_on_c, 14, 69, 106
16, 51396, Note_on_c, 14, 69, 0
16, 51396, Note_on_c, 14, 62, 0
16, 51396, Note_on_c, 14, 60, 0
16, 51480, Note_on_c, 14, 67, 99
16, 51480, Note_on_c, 14, 64, 107
16, 51480, Note_on_c, 14, 60, 100
16, 51576, Note_on_c, 14, 60, 0
16, 51576, Note_on_c, 14, 64, 0
16, 51576, Note_on_c, 14, 67, 0
16, 51660, Note_on_c, 14, 67, 104
16, 51660, Note_on_c, 14, 64, 116
16, 51660, Note_on_c, 14, 60, 99
16, 51756, Note_on_c, 14, 60, 0
16, 51756, Note_on_c, 14, 64, 0
16, 51756, Note_on_c, 14, 67, 0
16, 51840, Note_on_c, 14, 67, 104
16, 51840, Note_on_c, 14, 62, 120
16, 51840, Note_on_c, 14, 59, 100
16, 51936, Note_on_c, 14, 59, 0
16, 51936, Note_on_c, 14, 62, 0
16, 51936, Note_on_c, 14, 67, 0
16, 52020, Note_on_c, 14, 59, 111
16, 52020, Note_on_c, 14, 67, 111
16, 52020, Note_on_c, 14, 62, 125
16, 52116, Note_on_c, 14, 62, 0
16, 52116, Note_on_c, 14, 67, 0
16, 52116, Note_on_c, 14, 59, 0
16, 57960, Note_on_c, 14, 68, 94
16, 57960, Note_on_c, 14, 63, 111
16, 57960, Note_on_c, 14, 60, 116
16, 58056, Note_on_c, 14, 60, 0
16, 58056, Note_on_c, 14, 63, 0
16, 58056, Note_on_c, 14, 68, 0
16, 58260, Note_on_c, 14, 68, 85
16, 58260, Note_on_c, 14, 63, 103
16, 58260, Note_on_c, 14, 60, 111
16, 58308, Note_on_c, 14, 60, 0
16, 58308, Note_on_c, 14, 63, 0
16, 58308, Note_on_c, 14, 68, 0
16, 58320, Note_on_c, 14, 63, 115
16, 58320, Note_on_c, 14, 68, 95
16, 58320, Note_on_c, 14, 60, 110
16, 58416, Note_on_c, 14, 60, 0
16, 58416, Note_on_c, 14, 68, 0
16, 58416, Note_on_c, 14, 63, 0
16, 58620, Note_on_c, 14, 68, 109
16, 58620, Note_on_c, 14, 60, 110
16, 58620, Note_on_c, 14, 63, 115
16, 58668, Note_on_c, 14, 63, 0
16, 58668, Note_on_c, 14, 60, 0
16, 58668, Note_on_c, 14, 68, 0
16, 58680, Note_on_c, 14, 67, 127
16, 58680, Note_on_c, 14, 61, 94
16, 58680, Note_on_c, 14, 63, 126
16, 58776, Note_on_c, 14, 63, 0
16, 58776, Note_on_c, 14, 61, 0
16, 58776, Note_on_c, 14, 67, 0
16, 58980, Note_on_c, 14, 61, 87
16, 58980, Note_on_c, 14, 67, 125
16, 58980, Note_on_c, 14, 63, 118
16, 59028, Note_on_c, 14, 63, 0
16, 59028, Note_on_c, 14, 67, 0
16, 59028, Note_on_c, 14, 61, 0
16, 59040, Note_on_c, 14, 68, 99
16, 59040, Note_on_c, 14, 63, 121
16, 59040, Note_on_c, 14, 60, 114
16, 59136, Note_on_c, 14, 60, 0
16, 59136, Note_on_c, 14, 63, 0
16, 59136, Note_on_c, 14, 68, 0
16, 59340, Note_on_c, 14, 68, 101
16, 59340, Note_on_c, 14, 60, 113
16, 59340, Note_on_c, 14, 63, 109
16, 59388, Note_on_c, 14, 63, 0
16, 59388, Note_on_c, 14, 60, 0
16, 59388, Note_on_c, 14, 68, 0
16, 59400, Note_on_c, 14, 67, 127
16, 59400, Note_on_c, 14, 63, 127
16, 59400, Note_on_c, 14, 61, 109
16, 59496, Note_on_c, 14, 61, 0
16, 59496, Note_on_c, 14, 63, 0
16, 59496, Note_on_c, 14, 67, 0
16, 68040, Note_on_c, 14, 68, 103
16, 68040, Note_on_c, 14, 64, 127
16, 68136, Note_on_c, 14, 64, 0
16, 68136, Note_on_c, 14, 68, 0
16, 68340, Note_on_c, 14, 64, 123
16, 68340, Note_on_c, 14, 68, 107
16, 68388, Note_on_c, 14, 68, 0
16, 68388, Note_on_c, 14, 64, 0
16, 68400, Note_on_c, 14, 64, 127
16, 68400, Note_on_c, 14, 68, 105
16, 68496, Note_on_c, 14, 68, 0
16, 68496, Note_on_c, 14, 64, 0
16, 68700, Note_on_c, 14, 68, 101
16, 68700, Note_on_c, 14, 64, 127
16, 68748, Note_on_c, 14, 64, 0
16, 68748, Note_on_c, 14, 68, 0
16, 68760, Note_on_c, 14, 66, 105
16, 68760, Note_on_c, 14, 69, 127
16, 68856, Note_on_c, 14, 69, 0
16, 68856, Note_on_c, 14, 66, 0
16, 69060, Note_on_c, 14, 65, 117
16, 69060, Note_on_c, 14, 69, 127
16, 69108, Note_on_c, 14, 69, 0
16, 69108, Note_on_c, 14, 65, 0
16, 69120, Note_on_c, 14, 68, 105
16, 69120, Note_on_c, 14, 64, 127
16, 69216, Note_on_c, 14, 64, 0
16, 69216, Note_on_c, 14, 68, 0
16, 69420, Note_on_c, 14, 68, 95
16, 69420, Note_on_c, 14, 64, 127
16, 69468, Note_on_c, 14, 64, 0
16, 69468, Note_on_c, 14, 68, 0
16, 69480, Note_on_c, 14, 66, 118
16, 69480, Note_on_c, 14, 69, 127
16, 69576, Note_on_c, 14, 69, 0
16, 69576, Note_on_c, 14, 66, 0
16, 92160, Note_on_c, 14, 62, 123
16, 92160, Note_on_c, 14, 58, 115
16, 92256, Note_on_c, 14, 58, 0
16, 92256, Note_on_c, 14, 62, 0
16, 92340, Note_on_c, 14, 58, 90
16, 92340, Note_on_c, 14, 65, 121
16, 92436, Note_on_c, 14, 65, 0
16, 92436, Note_on_c, 14, 58, 0
16, 92520, Note_on_c, 14, 63, 115
16, 92520, Note_on_c, 14, 58, 111
16, 92616, Note_on_c, 14, 58, 0
16, 92616, Note_on_c, 14, 63, 0
16, 92616, End_track
17, 0, Start_track
17, 0, MIDI_port, 0
17, 0, Title_t, "Pizz Strings"
17, 0, Program_c, 14, 45
17, 0, Control_c, 14, 7, 85
17, 0, Control_c, 14, 10, 60
17, 0, Control_c, 14, 93, 0
17, 0, Control_c, 14, 91, 0
17, 25500, Note_on_c, 14, 53, 113
17, 25500, Note_on_c, 14, 41, 112
17, 25548, Note_on_c, 14, 41, 0
17, 25548, Note_on_c, 14, 53, 0
17, 25560, Note_on_c, 14, 53, 118
17, 25560, Note_on_c, 14, 41, 118
17, 25656, Note_on_c, 14, 41, 0
17, 25656, Note_on_c, 14, 53, 0
17, 25740, Note_on_c, 14, 53, 127
17, 25740, Note_on_c, 14, 41, 127
17, 25836, Note_on_c, 14, 41, 0
17, 25836, Note_on_c, 14, 53, 0
17, 25920, Note_on_c, 14, 41, 118
17, 25920, Note_on_c, 14, 53, 118
17, 26016, Note_on_c, 14, 53, 0
17, 26016, Note_on_c, 14, 41, 0
17, 26100, Note_on_c, 14, 41, 127
17, 26100, Note_on_c, 14, 53, 127
17, 26196, Note_on_c, 14, 53, 0
17, 26196, Note_on_c, 14, 41, 0
17, 26280, Note_on_c, 14, 41, 118
17, 26280, Note_on_c, 14, 53, 118
17, 26376, Note_on_c, 14, 53, 0
17, 26376, Note_on_c, 14, 41, 0
17, 26460, Note_on_c, 14, 41, 127
17, 26460, Note_on_c, 14, 53, 127
17, 26556, Note_on_c, 14, 53, 0
17, 26556, Note_on_c, 14, 41, 0
17, 26640, Note_on_c, 14, 41, 118
17, 26640, Note_on_c, 14, 53, 118
17, 26736, Note_on_c, 14, 53, 0
17, 26736, Note_on_c, 14, 41, 0
17, 26820, Note_on_c, 14, 41, 127
17, 26820, Note_on_c, 14, 53, 127
17, 26916, Note_on_c, 14, 53, 0
17, 26916, Note_on_c, 14, 41, 0
17, 27000, Note_on_c, 14, 41, 118
17, 27000, Note_on_c, 14, 53, 118
17, 27096, Note_on_c, 14, 53, 0
17, 27096, Note_on_c, 14, 41, 0
17, 27180, Note_on_c, 14, 41, 127
17, 27180, Note_on_c, 14, 53, 127
17, 27276, Note_on_c, 14, 53, 0
17, 27276, Note_on_c, 14, 41, 0
17, 27360, Note_on_c, 14, 41, 118
17, 27360, Note_on_c, 14, 53, 118
17, 27456, Note_on_c, 14, 53, 0
17, 27456, Note_on_c, 14, 41, 0
17, 27540, Note_on_c, 14, 41, 127
17, 27540, Note_on_c, 14, 53, 127
17, 27636, Note_on_c, 14, 53, 0
17, 27636, Note_on_c, 14, 41, 0
17, 27720, Note_on_c, 14, 34, 121
17, 27720, Note_on_c, 14, 46, 109
17, 27816, Note_on_c, 14, 46, 0
17, 27816, Note_on_c, 14, 34, 0
17, 28260, Note_on_c, 14, 34, 127
17, 28260, Note_on_c, 14, 46, 111
17, 28356, Note_on_c, 14, 46, 0
17, 28356, Note_on_c, 14, 34, 0
17, 28380, Note_on_c, 14, 34, 123
17, 28380, Note_on_c, 14, 46, 111
17, 28428, Note_on_c, 14, 46, 0
17, 28428, Note_on_c, 14, 34, 0
17, 28440, Note_on_c, 14, 46, 111
17, 28440, Note_on_c, 14, 34, 113
17, 28536, Note_on_c, 14, 34, 0
17, 28536, Note_on_c, 14, 46, 0
17, 37080, Note_on_c, 14, 34, 82
17, 37080, Note_on_c, 14, 46, 88
17, 37080, Note_on_c, 14, 53, 104
17, 37080, Note_on_c, 14, 58, 103
17, 37080, Note_on_c, 14, 62, 103
17, 37176, Note_on_c, 14, 62, 0
17, 37176, Note_on_c, 14, 53, 0
17, 37176, Note_on_c, 14, 34, 0
17, 37176, Note_on_c, 14, 46, 0
17, 37176, Note_on_c, 14, 58, 0
17, 37260, Note_on_c, 14, 34, 86
17, 37260, Note_on_c, 14, 58, 86
17, 37260, Note_on_c, 14, 65, 103
17, 37260, Note_on_c, 14, 46, 91
17, 37260, Note_on_c, 14, 50, 101
17, 37356, Note_on_c, 14, 50, 0
17, 37356, Note_on_c, 14, 65, 0
17, 37356, Note_on_c, 14, 34, 0
17, 37356, Note_on_c, 14, 58, 0
17, 37356, Note_on_c, 14, 46, 0
17, 37440, Note_on_c, 14, 63, 79
17, 37440, Note_on_c, 14, 39, 89
17, 37440, Note_on_c, 14, 58, 83
17, 37440, Note_on_c, 14, 51, 83
17, 37440, Note_on_c, 14, 55, 98
17, 37536, Note_on_c, 14, 55, 0
17, 37536, Note_on_c, 14, 58, 0
17, 37536, Note_on_c, 14, 63, 0
17, 37536, Note_on_c, 14, 39, 0
17, 37536, Note_on_c, 14, 51, 0
17, 49320, Note_on_c, 14, 48, 105
17, 49320, Note_on_c, 14, 55, 113
17, 49416, Note_on_c, 14, 55, 0
17, 49416, Note_on_c, 14, 48, 0
17, 49620, Note_on_c, 14, 55, 106
17, 49620, Note_on_c, 14, 48, 105
17, 49668, Note_on_c, 14, 48, 0
17, 49668, Note_on_c, 14, 55, 0
17, 49680, Note_on_c, 14, 55, 113
17, 49680, Note_on_c, 14, 48, 105
17, 49776, Note_on_c, 14, 48, 0
17, 49776, Note_on_c, 14, 55, 0
17, 49980, Note_on_c, 14, 48, 105
17, 49980, Note_on_c, 14, 55, 106
17, 50028, Note_on_c, 14, 55, 0
17, 50028, Note_on_c, 14, 48, 0
17, 50040, Note_on_c, 14, 55, 113
17, 50040, Note_on_c, 14, 48, 105
17, 50136, Note_on_c, 14, 48, 0
17, 50136, Note_on_c, 14, 55, 0
17, 50340, Note_on_c, 14, 48, 105
17, 50340, Note_on_c, 14, 55, 106
17, 50388, Note_on_c, 14, 55, 0
17, 50388, Note_on_c, 14, 48, 0
17, 50400, Note_on_c, 14, 55, 113
17, 50400, Note_on_c, 14, 48, 105
17, 50496, Note_on_c, 14, 48, 0
17, 50496, Note_on_c, 14, 55, 0
17, 50700, Note_on_c, 14, 48, 105
17, 50700, Note_on_c, 14, 55, 106
17, 50748, Note_on_c, 14, 55, 0
17, 50748, Note_on_c, 14, 48, 0
17, 50760, Note_on_c, 14, 57, 102
17, 50760, Note_on_c, 14, 53, 117
17, 50856, Note_on_c, 14, 53, 0
17, 50856, Note_on_c, 14, 57, 0
17, 50940, Note_on_c, 14, 57, 109
17, 50940, Note_on_c, 14, 53, 116
17, 51036, Note_on_c, 14, 53, 0
17, 51036, Note_on_c, 14, 57, 0
17, 51120, Note_on_c, 14, 57, 123
17, 51120, Note_on_c, 14, 53, 123
17, 51216, Note_on_c, 14, 53, 0
17, 51216, Note_on_c, 14, 57, 0
17, 51300, Note_on_c, 14, 57, 112
17, 51300, Note_on_c, 14, 53, 113
17, 51396, Note_on_c, 14, 53, 0
17, 51396, Note_on_c, 14, 57, 0
17, 51480, Note_on_c, 14, 55, 127
17, 51576, Note_on_c, 14, 55, 0
17, 51660, Note_on_c, 14, 55, 118
17, 51756, Note_on_c, 14, 55, 0
17, 51840, Note_on_c, 14, 55, 114
17, 51936, Note_on_c, 14, 55, 0
17, 52020, Note_on_c, 14, 55, 112
17, 52116, Note_on_c, 14, 55, 0
17, 57960, Note_on_c, 14, 56, 121
17, 57960, Note_on_c, 14, 44, 99
17, 58056, Note_on_c, 14, 44, 0
17, 58056, Note_on_c, 14, 56, 0
17, 58260, Note_on_c, 14, 56, 113
17, 58260, Note_on_c, 14, 44, 97
17, 58308, Note_on_c, 14, 44, 0
17, 58308, Note_on_c, 14, 56, 0
17, 58320, Note_on_c, 14, 56, 111
17, 58320, Note_on_c, 14, 44, 93
17, 58416, Note_on_c, 14, 44, 0
17, 58416, Note_on_c, 14, 56, 0
17, 58620, Note_on_c, 14, 56, 126
17, 58620, Note_on_c, 14, 44, 105
17, 58668, Note_on_c, 14, 44, 0
17, 58668, Note_on_c, 14, 56, 0
17, 58680, Note_on_c, 14, 56, 127
17, 58680, Note_on_c, 14, 44, 109
17, 58776, Note_on_c, 14, 44, 0
17, 58776, Note_on_c, 14, 56, 0
17, 58980, Note_on_c, 14, 56, 127
17, 58980, Note_on_c, 14, 44, 107
17, 59028, Note_on_c, 14, 44, 0
17, 59028, Note_on_c, 14, 56, 0
17, 59040, Note_on_c, 14, 56, 121
17, 59040, Note_on_c, 14, 44, 105
17, 59136, Note_on_c, 14, 44, 0
17, 59136, Note_on_c, 14, 56, 0
17, 59340, Note_on_c, 14, 56, 123
17, 59340, Note_on_c, 14, 44, 105
17, 59388, Note_on_c, 14, 44, 0
17, 59388, Note_on_c, 14, 56, 0
17, 59400, Note_on_c, 14, 44, 107
17, 59400, Note_on_c, 14, 56, 107
17, 59496, Note_on_c, 14, 56, 0
17, 59496, Note_on_c, 14, 44, 0
17, 68040, Note_on_c, 14, 40, 114
17, 68040, Note_on_c, 14, 59, 111
17, 68040, Note_on_c, 14, 52, 117
17, 68136, Note_on_c, 14, 52, 0
17, 68136, Note_on_c, 14, 59, 0
17, 68136, Note_on_c, 14, 40, 0
17, 68340, Note_on_c, 14, 40, 127
17, 68340, Note_on_c, 14, 52, 127
17, 68340, Note_on_c, 14, 59, 112
17, 68388, Note_on_c, 14, 59, 0
17, 68388, Note_on_c, 14, 52, 0
17, 68388, Note_on_c, 14, 40, 0
17, 68400, Note_on_c, 14, 52, 121
17, 68400, Note_on_c, 14, 40, 127
17, 68400, Note_on_c, 14, 59, 113
17, 68496, Note_on_c, 14, 59, 0
17, 68496, Note_on_c, 14, 40, 0
17, 68496, Note_on_c, 14, 52, 0
17, 68700, Note_on_c, 14, 59, 123
17, 68700, Note_on_c, 14, 40, 127
17, 68700, Note_on_c, 14, 52, 127
17, 68748, Note_on_c, 14, 52, 0
17, 68748, Note_on_c, 14, 40, 0
17, 68748, Note_on_c, 14, 59, 0
17, 68760, Note_on_c, 14, 59, 113
17, 68760, Note_on_c, 14, 40, 127
17, 68760, Note_on_c, 14, 52, 121
17, 68856, Note_on_c, 14, 52, 0
17, 68856, Note_on_c, 14, 40, 0
17, 68856, Note_on_c, 14, 59, 0
17, 69060, Note_on_c, 14, 52, 127
17, 69060, Note_on_c, 14, 40, 127
17, 69060, Note_on_c, 14, 59, 123
17, 69108, Note_on_c, 14, 59, 0
17, 69108, Note_on_c, 14, 40, 0
17, 69108, Note_on_c, 14, 52, 0
17, 69120, Note_on_c, 14, 59, 113
17, 69120, Note_on_c, 14, 40, 127
17, 69120, Note_on_c, 14, 52, 121
17, 69216, Note_on_c, 14, 52, 0
17, 69216, Note_on_c, 14, 40, 0
17, 69216, Note_on_c, 14, 59, 0
17, 69420, Note_on_c, 14, 52, 127
17, 69420, Note_on_c, 14, 40, 127
17, 69420, Note_on_c, 14, 59, 123
17, 69468, Note_on_c, 14, 59, 0
17, 69468, Note_on_c, 14, 40, 0
17, 69468, Note_on_c, 14, 52, 0
17, 69480, Note_on_c, 14, 59, 113
17, 69480, Note_on_c, 14, 40, 127
17, 69480, Note_on_c, 14, 52, 121
17, 69576, Note_on_c, 14, 52, 0
17, 69576, Note_on_c, 14, 40, 0
17, 69576, Note_on_c, 14, 59, 0
17, 76500, Note_on_c, 14, 52, 127
17, 76500, Note_on_c, 14, 40, 125
17, 76596, Note_on_c, 14, 40, 0
17, 76596, Note_on_c, 14, 52, 0
17, 76680, Note_on_c, 14, 40, 127
17, 76680, Note_on_c, 14, 52, 127
17, 76776, Note_on_c, 14, 52, 0
17, 76776, Note_on_c, 14, 40, 0
17, 76860, Note_on_c, 14, 40, 127
17, 76860, Note_on_c, 14, 52, 127
17, 76956, Note_on_c, 14, 52, 0
17, 76956, Note_on_c, 14, 40, 0
17, 77040, Note_on_c, 14, 57, 100
17, 77040, Note_on_c, 14, 45, 114
17, 77136, Note_on_c, 14, 45, 0
17, 77136, Note_on_c, 14, 57, 0
17, 77220, Note_on_c, 14, 57, 107
17, 77220, Note_on_c, 14, 45, 121
17, 77316, Note_on_c, 14, 45, 0
17, 77316, Note_on_c, 14, 57, 0
17, 77400, Note_on_c, 14, 57, 107
17, 77400, Note_on_c, 14, 45, 118
17, 77496, Note_on_c, 14, 45, 0
17, 77496, Note_on_c, 14, 57, 0
17, 77580, Note_on_c, 14, 57, 106
17, 77580, Note_on_c, 14, 45, 113
17, 77676, Note_on_c, 14, 45, 0
17, 77676, Note_on_c, 14, 57, 0
17, 77760, Note_on_c, 14, 50, 116
17, 77760, Note_on_c, 14, 38, 117
17, 77856, Note_on_c, 14, 38, 0
17, 77856, Note_on_c, 14, 50, 0
17, 77940, Note_on_c, 14, 55, 100
17, 77940, Note_on_c, 14, 43, 116
17, 78052, Note_on_c, 14, 43, 0
17, 78052, Note_on_c, 14, 55, 0
17, 78120, Note_on_c, 14, 48, 127
17, 78120, Note_on_c, 14, 36, 117
17, 78216, Note_on_c, 14, 36, 0
17, 78216, Note_on_c, 14, 48, 0
17, 78300, Note_on_c, 14, 53, 117
17, 78300, Note_on_c, 14, 41, 101
17, 78412, Note_on_c, 14, 41, 0
17, 78412, Note_on_c, 14, 53, 0
17, 78480, Note_on_c, 14, 53, 104
17, 78480, Note_on_c, 14, 41, 110
17, 78576, Note_on_c, 14, 41, 0
17, 78576, Note_on_c, 14, 53, 0
17, 78660, Note_on_c, 14, 53, 120
17, 78660, Note_on_c, 14, 41, 113
17, 78756, Note_on_c, 14, 41, 0
17, 78756, Note_on_c, 14, 53, 0
17, 78840, Note_on_c, 14, 50, 109
17, 78840, Note_on_c, 14, 38, 118
17, 78936, Note_on_c, 14, 38, 0
17, 78936, Note_on_c, 14, 50, 0
17, 79020, Note_on_c, 14, 36, 107
17, 79020, Note_on_c, 14, 48, 120
17, 79116, Note_on_c, 14, 48, 0
17, 79116, Note_on_c, 14, 36, 0
17, 85680, Note_on_c, 14, 51, 121
17, 85680, Note_on_c, 14, 39, 127
17, 85776, Note_on_c, 14, 39, 0
17, 85776, Note_on_c, 14, 51, 0
17, 87120, Note_on_c, 14, 51, 127
17, 87120, Note_on_c, 14, 39, 123
17, 87216, Note_on_c, 14, 39, 0
17, 87216, Note_on_c, 14, 51, 0
17, 92160, Note_on_c, 14, 34, 113
17, 92160, Note_on_c, 14, 53, 120
17, 92160, Note_on_c, 14, 46, 113
17, 92256, Note_on_c, 14, 46, 0
17, 92256, Note_on_c, 14, 53, 0
17, 92256, Note_on_c, 14, 34, 0
17, 92340, Note_on_c, 14, 50, 127
17, 92340, Note_on_c, 14, 46, 105
17, 92340, Note_on_c, 14, 34, 127
17, 92436, Note_on_c, 14, 34, 0
17, 92436, Note_on_c, 14, 46, 0
17, 92436, Note_on_c, 14, 50, 0
17, 92520, Note_on_c, 14, 55, 120
17, 92520, Note_on_c, 14, 39, 123
17, 92520, Note_on_c, 14, 51, 115
17, 92616, Note_on_c, 14, 51, 0
17, 92616, Note_on_c, 14, 39, 0
17, 92616, Note_on_c, 14, 55, 0
17, 114840, Note_on_c, 14, 58, 118
17, 114888, Note_on_c, 14, 58, 0
17, 114900, Note_on_c, 14, 58, 88
17, 114900, Note_on_c, 14, 46, 111
17, 114948, Note_on_c, 14, 46, 0
17, 114960, Note_on_c, 14, 46, 88
17, 115004, Note_on_c, 14, 58, 0
17, 115019, Note_on_c, 14, 46, 0
17, 115080, Note_on_c, 14, 58, 115
17, 115080, Note_on_c, 14, 46, 103
17, 115176, Note_on_c, 14, 46, 0
17, 115176, Note_on_c, 14, 58, 0
17, 115260, Note_on_c, 14, 58, 88
17, 115260, Note_on_c, 14, 46, 88
17, 115356, Note_on_c, 14, 46, 0
17, 115356, Note_on_c, 14, 58, 0
17, 115440, Note_on_c, 14, 46, 103
17, 115440, Note_on_c, 14, 58, 115
17, 115536, Note_on_c, 14, 58, 0
17, 115536, Note_on_c, 14, 46, 0
17, 115620, Note_on_c, 14, 58, 88
17, 115620, Note_on_c, 14, 46, 88
17, 115716, Note_on_c, 14, 46, 0
17, 115716, Note_on_c, 14, 58, 0
17, 115800, Note_on_c, 14, 46, 103
17, 115800, Note_on_c, 14, 58, 115
17, 115896, Note_on_c, 14, 58, 0
17, 115896, Note_on_c, 14, 46, 0
17, 115980, Note_on_c, 14, 58, 88
17, 115980, Note_on_c, 14, 46, 88
17, 116076, Note_on_c, 14, 46, 0
17, 116076, Note_on_c, 14, 58, 0
17, 116160, Note_on_c, 14, 46, 103
17, 116160, Note_on_c, 14, 58, 115
17, 116256, Note_on_c, 14, 58, 0
17, 116256, Note_on_c, 14, 46, 0
17, 116340, Note_on_c, 14, 58, 88
17, 116340, Note_on_c, 14, 46, 88
17, 116436, Note_on_c, 14, 46, 0
17, 116436, Note_on_c, 14, 58, 0
17, 116520, Note_on_c, 14, 46, 103
17, 116520, Note_on_c, 14, 58, 115
17, 116616, Note_on_c, 14, 58, 0
17, 116616, Note_on_c, 14, 46, 0
17, 116700, Note_on_c, 14, 58, 88
17, 116700, Note_on_c, 14, 46, 88
17, 116796, Note_on_c, 14, 46, 0
17, 116796, Note_on_c, 14, 58, 0
17, 116880, Note_on_c, 14, 46, 103
17, 116880, Note_on_c, 14, 58, 115
17, 116976, Note_on_c, 14, 58, 0
17, 116976, Note_on_c, 14, 46, 0
17, 117060, Note_on_c, 14, 51, 109
17, 117060, Note_on_c, 14, 39, 97
17, 117156, Note_on_c, 14, 39, 0
17, 117156, Note_on_c, 14, 51, 0
17, 117600, Note_on_c, 14, 63, 97
17, 117600, Note_on_c, 14, 51, 90
17, 117696, Note_on_c, 14, 51, 0
17, 117696, Note_on_c, 14, 63, 0
17, 117720, Note_on_c, 14, 51, 111
17, 117720, Note_on_c, 14, 63, 105
17, 117768, Note_on_c, 14, 63, 0
17, 117768, Note_on_c, 14, 51, 0
17, 117780, Note_on_c, 14, 39, 115
17, 117780, Note_on_c, 14, 51, 107
17, 117876, Note_on_c, 14, 51, 0
17, 117876, Note_on_c, 14, 39, 0
17, 118320, Note_on_c, 14, 63, 113
17, 118320, Note_on_c, 14, 51, 91
17, 118416, Note_on_c, 14, 51, 0
17, 118416, Note_on_c, 14, 63, 0
17, 118440, Note_on_c, 14, 63, 109
17, 118440, Note_on_c, 14, 51, 103
17, 118488, Note_on_c, 14, 51, 0
17, 118488, Note_on_c, 14, 63, 0
17, 118500, Note_on_c, 14, 39, 113
17, 118596, Note_on_c, 14, 39, 0
17, 134340, Note_on_c, 14, 39, 115
17, 134340, Note_on_c, 14, 51, 115
17, 134436, Note_on_c, 14, 51, 0
17, 134436, Note_on_c, 14, 39, 0
17, 134520, Note_on_c, 14, 34, 118
17, 134520, Note_on_c, 14, 46, 118
17, 134616, Note_on_c, 14, 46, 0
17, 134616, Note_on_c, 14, 34, 0
17, 134700, Note_on_c, 14, 41, 125
17, 134700, Note_on_c, 14, 53, 125
17, 134796, Note_on_c, 14, 53, 0
17, 134796, Note_on_c, 14, 41, 0
17, 134880, Note_on_c, 14, 34, 126
17, 134880, Note_on_c, 14, 46, 107
17, 134976, Note_on_c, 14, 46, 0
17, 134976, Note_on_c, 14, 34, 0
17, 135060, Note_on_c, 14, 51, 107
17, 135060, Note_on_c, 14, 39, 101
17, 135156, Note_on_c, 14, 39, 0
17, 135156, Note_on_c, 14, 51, 0
17, 135240, Note_on_c, 14, 34, 118
17, 135240, Note_on_c, 14, 46, 126
17, 135336, Note_on_c, 14, 46, 0
17, 135336, Note_on_c, 14, 34, 0
17, 135420, Note_on_c, 14, 58, 88
17, 135420, Note_on_c, 14, 46, 100
17, 135516, Note_on_c, 14, 46, 0
17, 135516, Note_on_c, 14, 58, 0
17, 135600, Note_on_c, 14, 34, 115
17, 135600, Note_on_c, 14, 46, 123
17, 135696, Note_on_c, 14, 46, 0
17, 135696, Note_on_c, 14, 34, 0
17, 135780, Note_on_c, 14, 51, 121
17, 135780, Note_on_c, 14, 39, 107
17, 135876, Note_on_c, 14, 39, 0
17, 135876, Note_on_c, 14, 51, 0
17, 138660, Note_on_c, 14, 51, 123
17, 138660, Note_on_c, 14, 39, 127
17, 138756, Note_on_c, 14, 39, 0
17, 138756, Note_on_c, 14, 51, 0
17, 138840, Note_on_c, 14, 34, 127
17, 138840, Note_on_c, 14, 46, 121
17, 138936, Note_on_c, 14, 46, 0
17, 138936, Note_on_c, 14, 34, 0
17, 139020, Note_on_c, 14, 53, 127
17, 139020, Note_on_c, 14, 41, 127
17, 139116, Note_on_c, 14, 41, 0
17, 139116, Note_on_c, 14, 53, 0
17, 139200, Note_on_c, 14, 34, 101
17, 139200, Note_on_c, 14, 46, 109
17, 139296, Note_on_c, 14, 46, 0
17, 139296, Note_on_c, 14, 34, 0
17, 139380, Note_on_c, 14, 51, 121
17, 139380, Note_on_c, 14, 39, 107
17, 139476, Note_on_c, 14, 39, 0
17, 139476, Note_on_c, 14, 51, 0
17, 139560, Note_on_c, 14, 34, 127
17, 139560, Note_on_c, 14, 46, 121
17, 139656, Note_on_c, 14, 46, 0
17, 139656, Note_on_c, 14, 34, 0
17, 139740, Note_on_c, 14, 53, 127
17, 139740, Note_on_c, 14, 41, 127
17, 139836, Note_on_c, 14, 41, 0
17, 139836, Note_on_c, 14, 53, 0
17, 139920, Note_on_c, 14, 34, 126
17, 139920, Note_on_c, 14, 46, 126
17, 140016, Note_on_c, 14, 46, 0
17, 140016, Note_on_c, 14, 34, 0
17, 140100, Note_on_c, 14, 39, 123
17, 140100, Note_on_c, 14, 51, 105
17, 140196, Note_on_c, 14, 51, 0
17, 140196, Note_on_c, 14, 39, 0
17, 140280, Note_on_c, 14, 46, 121
17, 140280, Note_on_c, 14, 34, 121
17, 140376, Note_on_c, 14, 34, 0
17, 140376, Note_on_c, 14, 46, 0
17, 140460, Note_on_c, 14, 46, 126
17, 140460, Note_on_c, 14, 58, 115
17, 140556, Note_on_c, 14, 58, 0
17, 140556, Note_on_c, 14, 46, 0
17, 140640, Note_on_c, 14, 46, 127
17, 140640, Note_on_c, 14, 34, 118
17, 140736, Note_on_c, 14, 34, 0
17, 140736, Note_on_c, 14, 46, 0
17, 140820, Note_on_c, 14, 51, 127
17, 140820, Note_on_c, 14, 39, 118
17, 140916, Note_on_c, 14, 39, 0
17, 140916, Note_on_c, 14, 51, 0
17, 140916, End_track
18, 0, Start_track
18, 0, MIDI_port, 0
18, 0, Title_t, "Arranged 2/97"
18, 0, End_track
19, 0, Start_track
19, 0, MIDI_port, 0
19, 0, Title_t, "By G. Breed"
19, 0, End_track
20, 0, Start_track
20, 0, MIDI_port, 0
20, 0, Title_t, "& M. Wright"
20, 0, End_track
0, 0, End_of_file