0, 0, Header, 1, 2, 240
1, 0, Start_track
1, 0, Tempo, 171429
1, 23040, Tempo, 214286
1, 24720, Tempo, 204778
1, 24960, Tempo, 195440
1, 25200, Tempo, 187500
1, 25920, Tempo, 193548
1, 27480, Tempo, 185759
1, 27720, Tempo, 178042
1, 28080, Tempo, 171429
1, 31920, Tempo, 180180
1, 32160, Tempo, 189274
1, 32400, Tempo, 200000
1, 32640, Tempo, 212014
1, 32880, Tempo, 224719
1, 33120, Tempo, 400000
1, 33840, Tempo, 600000
1, 34560, Tempo, 171429
1, 50400, Tempo, 214286
1, 52080, Tempo, 204778
1, 52320, Tempo, 195440
1, 52560, Tempo, 187500
1, 53280, Tempo, 193548
1, 54840, Tempo, 185759
1, 55080, Tempo, 178042
1, 55440, Tempo, 171429
1, 59280, Tempo, 180180
1, 59520, Tempo, 189274
1, 59760, Tempo, 200000
1, 60000, Tempo, 212014
1, 60240, Tempo, 224719
1, 60480, Tempo, 400000
1, 61200, Tempo, 600000
1, 61920, Tempo, 171429
1, 123840, Tempo, 214286
1, 125520, Tempo, 204778
1, 125760, Tempo, 195440
1, 126000, Tempo, 187500
1, 126720, Tempo, 193548
1, 128280, Tempo, 185759
1, 128520, Tempo, 178042
1, 128880, Tempo, 171429
1, 132720, Tempo, 180180
1, 132960, Tempo, 189274
1, 133200, Tempo, 200000
1, 133440, Tempo, 212014
1, 133680, Tempo, 224719
1, 133920, Tempo, 400000
1, 134640, Tempo, 600000
1, 135360, Tempo, 171429
1, 135360, End_track
2, 0, Start_track
2, 0, Program_c, 0, 0
2, 0, Note_on_c, 0, 78, 72
2, 720, Note_on_c, 0, 66, 72
2, 1426, Note_off_c, 0, 78, 64
2, 1426, Note_off_c, 0, 66, 64
2, 1440, Note_on_c, 0, 54, 72
2, 2160, Note_on_c, 0, 42, 72
2, 2866, Note_off_c, 0, 54, 64
2, 2866, Note_off_c, 0, 42, 64
2, 2880, Note_on_c, 0, 50, 72
2, 2880, Note_on_c, 0, 54, 72
2, 2880, Note_on_c, 0, 69, 72
2, 2998, Note_off_c, 0, 69, 64
2, 2998, Note_off_c, 0, 54, 64
2, 2998, Note_off_c, 0, 50, 64
2, 3000, Note_on_c, 0, 66, 72
2, 3118, Note_off_c, 0, 66, 64
2, 3120, Note_on_c, 0, 54, 72
2, 3120, Note_on_c, 0, 50, 72
2, 3120, Note_on_c, 0, 62, 72
2, 3238, Note_off_c, 0, 62, 64
2, 3238, Note_off_c, 0, 50, 64
2, 3238, Note_off_c, 0, 54, 64
2, 3600, Note_on_c, 0, 43, 72
2, 3600, Note_on_c, 0, 47, 72
2, 3600, Note_on_c, 0, 52, 72
2, 3600, Note_on_c, 0, 71, 72
2, 3718, Note_off_c, 0, 71, 64
2, 3718, Note_off_c, 0, 52, 64
2, 3718, Note_off_c, 0, 47, 64
2, 3718, Note_off_c, 0, 43, 64
2, 3720, Note_on_c, 0, 67, 72
2, 3838, Note_off_c, 0, 67, 64
2, 3840, Note_on_c, 0, 47, 72
2, 3840, Note_on_c, 0, 52, 72
2, 3840, Note_on_c, 0, 43, 72
2, 3840, Note_on_c, 0, 64, 72
2, 3958, Note_off_c, 0, 64, 64
2, 3958, Note_off_c, 0, 43, 64
2, 3958, Note_off_c, 0, 52, 64
2, 3958, Note_off_c, 0, 47, 64
2, 4320, Note_on_c, 0, 45, 72
2, 4320, Note_on_c, 0, 52, 72
2, 4320, Note_on_c, 0, 55, 72
2, 4320, Note_on_c, 0, 67, 72
2, 4438, Note_off_c, 0, 67, 64
2, 4438, Note_off_c, 0, 55, 64
2, 4438, Note_off_c, 0, 52, 64
2, 4438, Note_off_c, 0, 45, 64
2, 4440, Note_on_c, 0, 64, 72
2, 4558, Note_off_c, 0, 64, 64
2, 4560, Note_on_c, 0, 52, 72
2, 4560, Note_on_c, 0, 55, 72
2, 4560, Note_on_c, 0, 45, 72
2, 4560, Note_on_c, 0, 61, 72
2, 4678, Note_off_c, 0, 61, 64
2, 4678, Note_off_c, 0, 45, 64
2, 4678, Note_off_c, 0, 55, 64
2, 4678, Note_off_c, 0, 52, 64
2, 5040, Note_on_c, 0, 50, 72
2, 5040, Note_on_c, 0, 54, 72
2, 5040, Note_on_c, 0, 62, 72
2, 5158, Note_off_c, 0, 62, 64
2, 5158, Note_off_c, 0, 54, 64
2, 5158, Note_off_c, 0, 50, 64
2, 5280, Note_on_c, 0, 50, 72
2, 5280, Note_on_c, 0, 54, 72
2, 5280, Note_on_c, 0, 62, 72
2, 5398, Note_off_c, 0, 62, 64
2, 5398, Note_off_c, 0, 54, 64
2, 5398, Note_off_c, 0, 50, 64
2, 5760, Note_on_c, 0, 81, 72
2, 6480, Note_on_c, 0, 69, 72
2, 7186, Note_off_c, 0, 81, 64
2, 7186, Note_off_c, 0, 69, 64
2, 7200, Note_on_c, 0, 57, 72
2, 7920, Note_on_c, 0, 45, 72
2, 8626, Note_off_c, 0, 57, 64
2, 8626, Note_off_c, 0, 45, 64
2, 8640, Note_on_c, 0, 49, 72
2, 8640, Note_on_c, 0, 52, 72
2, 8640, Note_on_c, 0, 57, 72
2, 8640, Note_on_c, 0, 76, 72
2, 8758, Note_off_c, 0, 76, 64
2, 8758, Note_off_c, 0, 57, 64
2, 8758, Note_off_c, 0, 52, 64
2, 8758, Note_off_c, 0, 49, 64
2, 8760, Note_on_c, 0, 73, 72
2, 8878, Note_off_c, 0, 73, 64
2, 8880, Note_on_c, 0, 52, 72
2, 8880, Note_on_c, 0, 57, 72
2, 8880, Note_on_c, 0, 49, 72
2, 8880, Note_on_c, 0, 69, 72
2, 8998, Note_off_c, 0, 69, 64
2, 8998, Note_off_c, 0, 49, 64
2, 8998, Note_off_c, 0, 57, 64
2, 8998, Note_off_c, 0, 52, 64
2, 9360, Note_on_c, 0, 50, 72
2, 9360, Note_on_c, 0, 54, 72
2, 9360, Note_on_c, 0, 59, 72
2, 9360, Note_on_c, 0, 78, 72
2, 9478, Note_off_c, 0, 78, 64
2, 9478, Note_off_c, 0, 59, 64
2, 9478, Note_off_c, 0, 54, 64
2, 9478, Note_off_c, 0, 50, 64
2, 9480, Note_on_c, 0, 74, 72
2, 9598, Note_off_c, 0, 74, 64
2, 9600, Note_on_c, 0, 54, 72
2, 9600, Note_on_c, 0, 59, 72
2, 9600, Note_on_c, 0, 50, 72
2, 9600, Note_on_c, 0, 71, 72
2, 9718, Note_off_c, 0, 71, 64
2, 9718, Note_off_c, 0, 50, 64
2, 9718, Note_off_c, 0, 59, 64
2, 9718, Note_off_c, 0, 54, 64
2, 10080, Note_on_c, 0, 52, 72
2, 10080, Note_on_c, 0, 59, 72
2, 10080, Note_on_c, 0, 62, 72
2, 10080, Note_on_c, 0, 74, 72
2, 10198, Note_off_c, 0, 74, 64
2, 10198, Note_off_c, 0, 62, 64
2, 10198, Note_off_c, 0, 59, 64
2, 10198, Note_off_c, 0, 52, 64
2, 10200, Note_on_c, 0, 71, 72
2, 10318, Note_off_c, 0, 71, 64
2, 10320, Note_on_c, 0, 59, 72
2, 10320, Note_on_c, 0, 62, 72
2, 10320, Note_on_c, 0, 52, 72
2, 10320, Note_on_c, 0, 68, 72
2, 10438, Note_off_c, 0, 68, 64
2, 10438, Note_off_c, 0, 52, 64
2, 10438, Note_off_c, 0, 62, 64
2, 10438, Note_off_c, 0, 59, 64
2, 10800, Note_on_c, 0, 57, 72
2, 10800, Note_on_c, 0, 61, 72
2, 10800, Note_on_c, 0, 69, 72
2, 10918, Note_off_c, 0, 69, 64
2, 10918, Note_off_c, 0, 61, 64
2, 10918, Note_off_c, 0, 57, 64
2, 11040, Note_on_c, 0, 69, 72
2, 11040, Note_on_c, 0, 61, 72
2, 11040, Note_on_c, 0, 57, 72
2, 11158, Note_off_c, 0, 57, 64
2, 11158, Note_off_c, 0, 61, 64
2, 11158, Note_off_c, 0, 69, 64
2, 11520, Note_on_c, 0, 74, 105
2, 11520, Note_on_c, 0, 78, 105
2, 12226, Note_off_c, 0, 78, 64
2, 12226, Note_off_c, 0, 74, 64
2, 12240, Note_on_c, 0, 66, 105
2, 12240, Note_on_c, 0, 62, 105
2, 12946, Note_off_c, 0, 62, 64
2, 12946, Note_off_c, 0, 66, 64
2, 12960, Note_on_c, 0, 54, 105
2, 12960, Note_on_c, 0, 50, 105
2, 13666, Note_off_c, 0, 50, 64
2, 13666, Note_off_c, 0, 54, 64
2, 13680, Note_on_c, 0, 42, 105
2, 13680, Note_on_c, 0, 38, 105
2, 14386, Note_off_c, 0, 38, 64
2, 14386, Note_off_c, 0, 42, 64
2, 14400, Note_on_c, 0, 50, 81
2, 14400, Note_on_c, 0, 54, 81
2, 14400, Note_on_c, 0, 69, 81
2, 14400, Note_on_c, 0, 57, 81
2, 14518, Note_off_c, 0, 57, 64
2, 14518, Note_off_c, 0, 69, 64
2, 14518, Note_off_c, 0, 54, 64
2, 14518, Note_off_c, 0, 50, 64
2, 14520, Note_on_c, 0, 66, 81
2, 14638, Note_off_c, 0, 66, 64
2, 14640, Note_on_c, 0, 54, 81
2, 14640, Note_on_c, 0, 50, 81
2, 14640, Note_on_c, 0, 62, 81
2, 14640, Note_on_c, 0, 57, 81
2, 14758, Note_off_c, 0, 57, 64
2, 14758, Note_off_c, 0, 62, 64
2, 14758, Note_off_c, 0, 50, 64
2, 14758, Note_off_c, 0, 54, 64
2, 15120, Note_on_c, 0, 59, 81
2, 15120, Note_on_c, 0, 71, 81
2, 15120, Note_on_c, 0, 52, 81
2, 15120, Note_on_c, 0, 43, 81
2, 15238, Note_off_c, 0, 43, 64
2, 15238, Note_off_c, 0, 52, 64
2, 15238, Note_off_c, 0, 71, 64
2, 15238, Note_off_c, 0, 59, 64
2, 15240, Note_on_c, 0, 67, 81
2, 15358, Note_off_c, 0, 67, 64
2, 15360, Note_on_c, 0, 52, 81
2, 15360, Note_on_c, 0, 43, 81
2, 15360, Note_on_c, 0, 59, 81
2, 15360, Note_on_c, 0, 64, 81
2, 15478, Note_off_c, 0, 64, 64
2, 15478, Note_off_c, 0, 59, 64
2, 15478, Note_off_c, 0, 43, 64
2, 15478, Note_off_c, 0, 52, 64
2, 15840, Note_on_c, 0, 45, 81
2, 15840, Note_on_c, 0, 52, 81
2, 15840, Note_on_c, 0, 55, 81
2, 15840, Note_on_c, 0, 67, 81
2, 15958, Note_off_c, 0, 67, 64
2, 15958, Note_off_c, 0, 55, 64
2, 15958, Note_off_c, 0, 52, 64
2, 15958, Note_off_c, 0, 45, 64
2, 15960, Note_on_c, 0, 64, 81
2, 16078, Note_off_c, 0, 64, 64
2, 16080, Note_on_c, 0, 52, 81
2, 16080, Note_on_c, 0, 45, 81
2, 16080, Note_on_c, 0, 55, 81
2, 16080, Note_on_c, 0, 61, 81
2, 16198, Note_off_c, 0, 61, 64
2, 16198, Note_off_c, 0, 55, 64
2, 16198, Note_off_c, 0, 45, 64
2, 16198, Note_off_c, 0, 52, 64
2, 16560, Note_on_c, 0, 38, 81
2, 16560, Note_on_c, 0, 50, 81
2, 16560, Note_on_c, 0, 54, 81
2, 16560, Note_on_c, 0, 62, 81
2, 16678, Note_off_c, 0, 62, 64
2, 16678, Note_off_c, 0, 54, 64
2, 16678, Note_off_c, 0, 50, 64
2, 16678, Note_off_c, 0, 38, 64
2, 16800, Note_on_c, 0, 50, 81
2, 16800, Note_on_c, 0, 38, 81
2, 16800, Note_on_c, 0, 54, 81
2, 16800, Note_on_c, 0, 62, 81
2, 16918, Note_off_c, 0, 62, 64
2, 16918, Note_off_c, 0, 54, 64
2, 16918, Note_off_c, 0, 38, 64
2, 16918, Note_off_c, 0, 50, 64
2, 17280, Note_on_c, 0, 73, 105
2, 17280, Note_on_c, 0, 81, 105
2, 17986, Note_off_c, 0, 81, 64
2, 17986, Note_off_c, 0, 73, 64
2, 18000, Note_on_c, 0, 61, 105
2, 18000, Note_on_c, 0, 69, 105
2, 18706, Note_off_c, 0, 69, 64
2, 18706, Note_off_c, 0, 61, 64
2, 18720, Note_on_c, 0, 49, 105
2, 18720, Note_on_c, 0, 57, 105
2, 19426, Note_off_c, 0, 57, 64
2, 19426, Note_off_c, 0, 49, 64
2, 19440, Note_on_c, 0, 37, 105
2, 19440, Note_on_c, 0, 45, 105
2, 20146, Note_off_c, 0, 45, 64
2, 20146, Note_off_c, 0, 37, 64
2, 20160, Note_on_c, 0, 49, 81
2, 20160, Note_on_c, 0, 52, 81
2, 20160, Note_on_c, 0, 57, 81
2, 20160, Note_on_c, 0, 64, 81
2, 20160, Note_on_c, 0, 76, 81
2, 20278, Note_off_c, 0, 76, 64
2, 20278, Note_off_c, 0, 64, 64
2, 20278, Note_off_c, 0, 57, 64
2, 20278, Note_off_c, 0, 52, 64
2, 20278, Note_off_c, 0, 49, 64
2, 20280, Note_on_c, 0, 73, 81
2, 20398, Note_off_c, 0, 73, 64
2, 20400, Note_on_c, 0, 52, 81
2, 20400, Note_on_c, 0, 57, 81
2, 20400, Note_on_c, 0, 49, 81
2, 20400, Note_on_c, 0, 64, 81
2, 20400, Note_on_c, 0, 69, 81
2, 20518, Note_off_c, 0, 69, 64
2, 20518, Note_off_c, 0, 64, 64
2, 20518, Note_off_c, 0, 49, 64
2, 20518, Note_off_c, 0, 57, 64
2, 20518, Note_off_c, 0, 52, 64
2, 20880, Note_on_c, 0, 50, 81
2, 20880, Note_on_c, 0, 54, 81
2, 20880, Note_on_c, 0, 59, 81
2, 20880, Note_on_c, 0, 66, 81
2, 20880, Note_on_c, 0, 78, 81
2, 20998, Note_off_c, 0, 78, 64
2, 20998, Note_off_c, 0, 66, 64
2, 20998, Note_off_c, 0, 59, 64
2, 20998, Note_off_c, 0, 54, 64
2, 20998, Note_off_c, 0, 50, 64
2, 21000, Note_on_c, 0, 74, 81
2, 21118, Note_off_c, 0, 74, 64
2, 21120, Note_on_c, 0, 54, 81
2, 21120, Note_on_c, 0, 59, 81
2, 21120, Note_on_c, 0, 50, 81
2, 21120, Note_on_c, 0, 66, 81
2, 21120, Note_on_c, 0, 71, 81
2, 21238, Note_off_c, 0, 71, 64
2, 21238, Note_off_c, 0, 66, 64
2, 21238, Note_off_c, 0, 50, 64
2, 21238, Note_off_c, 0, 59, 64
2, 21238, Note_off_c, 0, 54, 64
2, 21600, Note_on_c, 0, 52, 81
2, 21600, Note_on_c, 0, 59, 81
2, 21600, Note_on_c, 0, 62, 81
2, 21600, Note_on_c, 0, 74, 81
2, 21718, Note_off_c, 0, 74, 64
2, 21718, Note_off_c, 0, 62, 64
2, 21718, Note_off_c, 0, 59, 64
2, 21718, Note_off_c, 0, 52, 64
2, 21720, Note_on_c, 0, 71, 81
2, 21838, Note_off_c, 0, 71, 64
2, 21840, Note_on_c, 0, 59, 81
2, 21840, Note_on_c, 0, 52, 81
2, 21840, Note_on_c, 0, 62, 81
2, 21840, Note_on_c, 0, 68, 81
2, 21958, Note_off_c, 0, 68, 64
2, 21958, Note_off_c, 0, 62, 64
2, 21958, Note_off_c, 0, 52, 64
2, 21958, Note_off_c, 0, 59, 64
2, 22320, Note_on_c, 0, 45, 81
2, 22320, Note_on_c, 0, 69, 81
2, 22320, Note_on_c, 0, 61, 81
2, 22320, Note_on_c, 0, 57, 81
2, 22438, Note_off_c, 0, 57, 64
2, 22438, Note_off_c, 0, 61, 64
2, 22438, Note_off_c, 0, 69, 64
2, 22438, Note_off_c, 0, 45, 64
2, 22560, Note_on_c, 0, 45, 81
2, 22560, Note_on_c, 0, 57, 81
2, 22560, Note_on_c, 0, 61, 81
2, 22560, Note_on_c, 0, 69, 81
2, 22678, Note_off_c, 0, 69, 64
2, 22678, Note_off_c, 0, 61, 64
2, 22678, Note_off_c, 0, 57, 64
2, 22678, Note_off_c, 0, 45, 64
2, 23040, Control_c, 0, 64, 127
2, 23040, Note_on_c, 0, 66, 58
2, 23280, Note_on_c, 0, 74, 58
2, 23280, Note_on_c, 0, 72, 58
2, 23280, Note_on_c, 0, 69, 58
2, 23515, Note_off_c, 0, 69, 64
2, 23515, Note_off_c, 0, 72, 64
2, 23515, Note_off_c, 0, 74, 64
2, 23520, Note_on_c, 0, 72, 58
2, 23520, Note_on_c, 0, 74, 58
2, 23520, Note_on_c, 0, 69, 58
2, 23746, Note_off_c, 0, 66, 64
2, 23755, Note_off_c, 0, 69, 64
2, 23755, Note_off_c, 0, 74, 64
2, 23755, Note_off_c, 0, 72, 64
2, 23760, Note_on_c, 0, 54, 58
2, 24000, Note_on_c, 0, 74, 58
2, 24000, Note_on_c, 0, 72, 58
2, 24000, Note_on_c, 0, 69, 58
2, 24235, Note_off_c, 0, 69, 64
2, 24235, Note_off_c, 0, 72, 64
2, 24235, Note_off_c, 0, 74, 64
2, 24240, Note_on_c, 0, 72, 58
2, 24240, Note_on_c, 0, 74, 58
2, 24240, Note_on_c, 0, 69, 58
2, 24466, Note_off_c, 0, 54, 64
2, 24475, Note_off_c, 0, 69, 64
2, 24475, Note_off_c, 0, 74, 64
2, 24475, Note_off_c, 0, 72, 64
2, 24480, Control_c, 0, 64, 0
2, 24480, Note_on_c, 0, 42, 58
2, 24720, Note_on_c, 0, 74, 58
2, 24720, Note_on_c, 0, 70, 58
2, 24838, Note_off_c, 0, 70, 64
2, 24838, Note_off_c, 0, 74, 64
2, 24960, Note_on_c, 0, 70, 58
2, 24960, Note_on_c, 0, 74, 58
2, 25078, Note_off_c, 0, 74, 64
2, 25078, Note_off_c, 0, 70, 64
2, 25186, Note_off_c, 0, 42, 64
2, 25200, Note_on_c, 0, 43, 58
2, 25440, Note_on_c, 0, 71, 58
2, 25440, Note_on_c, 0, 74, 58
2, 25558, Note_off_c, 0, 74, 64
2, 25558, Note_off_c, 0, 71, 64
2, 25680, Note_on_c, 0, 71, 58
2, 25680, Note_on_c, 0, 74, 58
2, 25798, Note_off_c, 0, 74, 64
2, 25798, Note_off_c, 0, 71, 64
2, 25906, Note_off_c, 0, 43, 64
2, 25920, Control_c, 0, 64, 127
2, 25920, Note_on_c, 0, 68, 58
2, 26160, Note_on_c, 0, 76, 58
2, 26160, Note_on_c, 0, 74, 58
2, 26160, Note_on_c, 0, 71, 58
2, 26395, Note_off_c, 0, 71, 64
2, 26395, Note_off_c, 0, 74, 64
2, 26395, Note_off_c, 0, 76, 64
2, 26400, Note_on_c, 0, 74, 58
2, 26400, Note_on_c, 0, 76, 58
2, 26400, Note_on_c, 0, 71, 58
2, 26626, Note_off_c, 0, 68, 64
2, 26635, Note_off_c, 0, 71, 64
2, 26635, Note_off_c, 0, 76, 64
2, 26635, Note_off_c, 0, 74, 64
2, 26640, Note_on_c, 0, 56, 58
2, 26880, Note_on_c, 0, 76, 58
2, 26880, Note_on_c, 0, 74, 58
2, 26880, Note_on_c, 0, 71, 58
2, 27115, Note_off_c, 0, 71, 64
2, 27115, Note_off_c, 0, 74, 64
2, 27115, Note_off_c, 0, 76, 64
2, 27120, Note_on_c, 0, 74, 58
2, 27120, Note_on_c, 0, 76, 58
2, 27120, Note_on_c, 0, 71, 58
2, 27346, Note_off_c, 0, 56, 64
2, 27355, Note_off_c, 0, 71, 64
2, 27355, Note_off_c, 0, 76, 64
2, 27355, Note_off_c, 0, 74, 64
2, 27360, Control_c, 0, 64, 0
2, 27360, Note_on_c, 0, 44, 58
2, 27600, Note_on_c, 0, 76, 61
2, 27600, Note_on_c, 0, 72, 61
2, 27718, Note_off_c, 0, 72, 64
2, 27718, Note_off_c, 0, 76, 64
2, 27840, Note_on_c, 0, 72, 64
2, 27840, Note_on_c, 0, 76, 64
2, 27958, Note_off_c, 0, 76, 64
2, 27958, Note_off_c, 0, 72, 64
2, 28066, Note_off_c, 0, 44, 64
2, 28080, Note_on_c, 0, 45, 67
2, 28320, Note_on_c, 0, 73, 71
2, 28320, Note_on_c, 0, 76, 71
2, 28438, Note_off_c, 0, 76, 64
2, 28438, Note_off_c, 0, 73, 64
2, 28560, Note_on_c, 0, 73, 74
2, 28560, Note_on_c, 0, 76, 74
2, 28678, Note_off_c, 0, 76, 64
2, 28678, Note_off_c, 0, 73, 64
2, 28786, Note_off_c, 0, 45, 64
2, 28800, Control_c, 0, 64, 127
2, 28800, Note_on_c, 0, 70, 77
2, 29040, Note_on_c, 0, 73, 80
2, 29040, Note_on_c, 0, 76, 80
2, 29040, Note_on_c, 0, 78, 80
2, 29275, Note_off_c, 0, 78, 64
2, 29275, Note_off_c, 0, 76, 64
2, 29275, Note_off_c, 0, 73, 64
2, 29280, Note_on_c, 0, 78, 84
2, 29280, Note_on_c, 0, 76, 84
2, 29280, Note_on_c, 0, 73, 84
2, 29506, Note_off_c, 0, 70, 64
2, 29515, Note_off_c, 0, 73, 64
2, 29515, Note_off_c, 0, 76, 64
2, 29515, Note_off_c, 0, 78, 64
2, 29520, Note_on_c, 0, 58, 87
2, 29760, Note_on_c, 0, 76, 90
2, 29760, Note_on_c, 0, 78, 90
2, 29760, Note_on_c, 0, 73, 90
2, 29995, Note_off_c, 0, 73, 64
2, 29995, Note_off_c, 0, 78, 64
2, 29995, Note_off_c, 0, 76, 64
2, 30000, Note_on_c, 0, 76, 94
2, 30000, Note_on_c, 0, 73, 94
2, 30000, Note_on_c, 0, 78, 94
2, 30226, Note_off_c, 0, 58, 64
2, 30235, Note_off_c, 0, 78, 64
2, 30235, Note_off_c, 0, 73, 64
2, 30235, Note_off_c, 0, 76, 64
2, 30240, Note_on_c, 0, 46, 96
2, 30480, Control_c, 0, 64, 0
2, 30480, Note_on_c, 0, 73, 96
2, 30480, Note_on_c, 0, 78, 96
2, 30715, Note_off_c, 0, 78, 64
2, 30715, Note_off_c, 0, 73, 64
2, 30720, Note_on_c, 0, 73, 104
2, 30720, Note_on_c, 0, 78, 104
2, 30946, Note_off_c, 0, 46, 64
2, 30955, Note_off_c, 0, 78, 64
2, 30955, Note_off_c, 0, 73, 64
2, 30960, Note_on_c, 0, 47, 112
2, 31200, Note_on_c, 0, 78, 121
2, 31200, Note_on_c, 0, 74, 121
2, 31435, Note_off_c, 0, 74, 64
2, 31435, Note_off_c, 0, 78, 64
2, 31440, Note_on_c, 0, 74, 124
2, 31440, Note_on_c, 0, 78, 124
2, 31666, Note_off_c, 0, 47, 64
2, 31675, Note_off_c, 0, 78, 64
2, 31675, Note_off_c, 0, 74, 64
2, 31680, Note_on_c, 0, 59, 126
2, 31920, Note_on_c, 0, 74, 120
2, 31920, Note_on_c, 0, 79, 120
2, 32155, Note_off_c, 0, 79, 64
2, 32155, Note_off_c, 0, 74, 64
2, 32160, Note_on_c, 0, 74, 113
2, 32160, Note_on_c, 0, 79, 113
2, 32386, Note_off_c, 0, 59, 64
2, 32395, Note_off_c, 0, 79, 64
2, 32395, Note_off_c, 0, 74, 64
2, 32400, Note_on_c, 0, 60, 106
2, 32640, Note_on_c, 0, 75, 99
2, 32640, Note_on_c, 0, 79, 99
2, 32758, Note_off_c, 0, 79, 64
2, 32758, Note_off_c, 0, 75, 64
2, 32880, Note_on_c, 0, 79, 93
2, 32880, Note_on_c, 0, 75, 93
2, 32998, Note_off_c, 0, 75, 64
2, 32998, Note_off_c, 0, 79, 64
2, 33106, Note_off_c, 0, 60, 64
2, 33120, Note_on_c, 0, 61, 72
2, 33360, Note_on_c, 0, 69, 72
2, 33360, Note_on_c, 0, 76, 72
2, 33360, Note_on_c, 0, 79, 72
2, 34546, Note_off_c, 0, 69, 64
2, 34546, Note_off_c, 0, 76, 64
2, 34546, Note_off_c, 0, 79, 64
2, 34546, Note_off_c, 0, 61, 64
2, 34560, Note_on_c, 0, 74, 72
2, 34560, Note_on_c, 0, 78, 72
2, 35266, Note_off_c, 0, 78, 64
2, 35266, Note_off_c, 0, 74, 64
2, 35280, Note_on_c, 0, 66, 72
2, 35280, Note_on_c, 0, 62, 72
2, 35986, Note_off_c, 0, 62, 64
2, 35986, Note_off_c, 0, 66, 64
2, 36000, Note_on_c, 0, 50, 72
2, 36000, Note_on_c, 0, 54, 72
2, 36706, Note_off_c, 0, 54, 64
2, 36706, Note_off_c, 0, 50, 64
2, 36720, Note_on_c, 0, 42, 72
2, 36720, Note_on_c, 0, 38, 72
2, 37426, Note_off_c, 0, 38, 64
2, 37426, Note_off_c, 0, 42, 64
2, 37440, Note_on_c, 0, 50, 72
2, 37440, Note_on_c, 0, 54, 72
2, 37440, Note_on_c, 0, 69, 72
2, 37558, Note_off_c, 0, 69, 64
2, 37558, Note_off_c, 0, 54, 64
2, 37558, Note_off_c, 0, 50, 64
2, 37560, Note_on_c, 0, 66, 72
2, 37678, Note_off_c, 0, 66, 64
2, 37680, Note_on_c, 0, 54, 72
2, 37680, Note_on_c, 0, 50, 72
2, 37680, Note_on_c, 0, 62, 72
2, 37798, Note_off_c, 0, 62, 64
2, 37798, Note_off_c, 0, 50, 64
2, 37798, Note_off_c, 0, 54, 64
2, 38160, Note_on_c, 0, 43, 72
2, 38160, Note_on_c, 0, 47, 72
2, 38160, Note_on_c, 0, 52, 72
2, 38160, Note_on_c, 0, 71, 72
2, 38278, Note_off_c, 0, 71, 64
2, 38278, Note_off_c, 0, 52, 64
2, 38278, Note_off_c, 0, 47, 64
2, 38278, Note_off_c, 0, 43, 64
2, 38280, Note_on_c, 0, 67, 72
2, 38398, Note_off_c, 0, 67, 64
2, 38400, Note_on_c, 0, 47, 72
2, 38400, Note_on_c, 0, 52, 72
2, 38400, Note_on_c, 0, 43, 72
2, 38400, Note_on_c, 0, 64, 72
2, 38518, Note_off_c, 0, 64, 64
2, 38518, Note_off_c, 0, 43, 64
2, 38518, Note_off_c, 0, 52, 64
2, 38518, Note_off_c, 0, 47, 64
2, 38880, Note_on_c, 0, 45, 72
2, 38880, Note_on_c, 0, 52, 72
2, 38880, Note_on_c, 0, 55, 72
2, 38880, Note_on_c, 0, 67, 72
2, 38998, Note_off_c, 0, 67, 64
2, 38998, Note_off_c, 0, 55, 64
2, 38998, Note_off_c, 0, 52, 64
2, 38998, Note_off_c, 0, 45, 64
2, 39000, Note_on_c, 0, 64, 72
2, 39118, Note_off_c, 0, 64, 64
2, 39120, Note_on_c, 0, 52, 72
2, 39120, Note_on_c, 0, 55, 72
2, 39120, Note_on_c, 0, 45, 72
2, 39120, Note_on_c, 0, 61, 72
2, 39238, Note_off_c, 0, 61, 64
2, 39238, Note_off_c, 0, 45, 64
2, 39238, Note_off_c, 0, 55, 64
2, 39238, Note_off_c, 0, 52, 64
2, 39600, Note_on_c, 0, 50, 72
2, 39600, Note_on_c, 0, 54, 72
2, 39600, Note_on_c, 0, 62, 72
2, 39718, Note_off_c, 0, 62, 64
2, 39718, Note_off_c, 0, 54, 64
2, 39718, Note_off_c, 0, 50, 64
2, 39840, Note_on_c, 0, 50, 72
2, 39840, Note_on_c, 0, 54, 72
2, 39840, Note_on_c, 0, 62, 72
2, 39958, Note_off_c, 0, 62, 64
2, 39958, Note_off_c, 0, 54, 64
2, 39958, Note_off_c, 0, 50, 64
2, 40320, Control_c, 0, 64, 127
2, 40320, Note_on_c, 0, 86, 120
2, 40320, Note_on_c, 0, 81, 120
2, 40320, Note_on_c, 0, 78, 120
2, 41026, Note_off_c, 0, 78, 64
2, 41026, Note_off_c, 0, 81, 64
2, 41026, Note_off_c, 0, 86, 64
2, 41040, Note_on_c, 0, 54, 116
2, 41040, Note_on_c, 0, 57, 116
2, 41040, Note_on_c, 0, 62, 116
2, 41040, Note_on_c, 0, 66, 116
2, 41040, Note_on_c, 0, 69, 116
2, 41040, Note_on_c, 0, 74, 116
2, 41746, Note_off_c, 0, 74, 64
2, 41746, Note_off_c, 0, 69, 64
2, 41746, Note_off_c, 0, 66, 64
2, 41746, Note_off_c, 0, 62, 64
2, 41746, Note_off_c, 0, 57, 64
2, 41746, Note_off_c, 0, 54, 64
2, 41760, Note_on_c, 0, 42, 116
2, 41760, Note_on_c, 0, 45, 116
2, 41760, Note_on_c, 0, 50, 116
2, 42466, Note_off_c, 0, 50, 64
2, 42466, Note_off_c, 0, 45, 64
2, 42466, Note_off_c, 0, 42, 64
2, 42480, Note_on_c, 0, 30, 116
2, 42480, Note_on_c, 0, 33, 116
2, 42480, Note_on_c, 0, 38, 116
2, 43186, Note_off_c, 0, 38, 64
2, 43186, Note_off_c, 0, 33, 64
2, 43186, Note_off_c, 0, 30, 64
2, 43200, Control_c, 0, 64, 0
2, 43200, Note_on_c, 0, 57, 72
2, 43200, Note_on_c, 0, 63, 72
2, 43200, Note_on_c, 0, 54, 72
2, 43200, Note_on_c, 0, 81, 72
2, 43200, Note_on_c, 0, 60, 72
2, 43318, Note_off_c, 0, 60, 64
2, 43318, Note_off_c, 0, 81, 64
2, 43318, Note_off_c, 0, 54, 64
2, 43318, Note_off_c, 0, 63, 64
2, 43318, Note_off_c, 0, 57, 64
2, 43320, Note_on_c, 0, 78, 72
2, 43438, Note_off_c, 0, 78, 64
2, 43440, Note_on_c, 0, 57, 72
2, 43440, Note_on_c, 0, 60, 72
2, 43440, Note_on_c, 0, 63, 72
2, 43440, Note_on_c, 0, 54, 72
2, 43440, Note_on_c, 0, 75, 72
2, 43558, Note_off_c, 0, 75, 64
2, 43558, Note_off_c, 0, 54, 64
2, 43558, Note_off_c, 0, 63, 64
2, 43558, Note_off_c, 0, 60, 64
2, 43558, Note_off_c, 0, 57, 64
2, 43920, Note_on_c, 0, 83, 72
2, 43920, Note_on_c, 0, 64, 72
2, 43920, Note_on_c, 0, 59, 72
2, 43920, Note_on_c, 0, 55, 72
2, 44038, Note_off_c, 0, 55, 64
2, 44038, Note_off_c, 0, 59, 64
2, 44038, Note_off_c, 0, 64, 64
2, 44038, Note_off_c, 0, 83, 64
2, 44040, Note_on_c, 0, 79, 72
2, 44158, Note_off_c, 0, 79, 64
2, 44160, Note_on_c, 0, 76, 72
2, 44160, Note_on_c, 0, 64, 72
2, 44160, Note_on_c, 0, 59, 72
2, 44160, Note_on_c, 0, 55, 72
2, 44278, Note_off_c, 0, 55, 64
2, 44278, Note_off_c, 0, 59, 64
2, 44278, Note_off_c, 0, 64, 64
2, 44278, Note_off_c, 0, 76, 64
2, 44640, Note_on_c, 0, 64, 72
2, 44640, Note_on_c, 0, 67, 72
2, 44640, Note_on_c, 0, 57, 72
2, 44640, Note_on_c, 0, 81, 72
2, 44758, Note_off_c, 0, 81, 64
2, 44758, Note_off_c, 0, 57, 64
2, 44758, Note_off_c, 0, 67, 64
2, 44758, Note_off_c, 0, 64, 64
2, 44760, Note_on_c, 0, 76, 72
2, 44878, Note_off_c, 0, 76, 64
2, 44880, Note_on_c, 0, 67, 72
2, 44880, Note_on_c, 0, 57, 72
2, 44880, Note_on_c, 0, 64, 72
2, 44880, Note_on_c, 0, 73, 72
2, 44998, Note_off_c, 0, 73, 64
2, 44998, Note_off_c, 0, 64, 64
2, 44998, Note_off_c, 0, 57, 64
2, 44998, Note_off_c, 0, 67, 64
2, 45360, Note_on_c, 0, 74, 72
2, 45360, Note_on_c, 0, 66, 72
2, 45360, Note_on_c, 0, 62, 72
2, 45478, Note_off_c, 0, 62, 64
2, 45478, Note_off_c, 0, 66, 64
2, 45478, Note_off_c, 0, 74, 64
2, 45480, Note_on_c, 0, 69, 72
2, 45598, Note_off_c, 0, 69, 64
2, 45600, Note_on_c, 0, 62, 74
2, 45600, Note_on_c, 0, 66, 74
2, 45718, Note_off_c, 0, 66, 64
2, 45718, Note_off_c, 0, 62, 64
2, 46080, Note_on_c, 0, 52, 83
2, 46080, Note_on_c, 0, 55, 83
2, 46080, Note_on_c, 0, 45, 83
2, 46080, Note_on_c, 0, 69, 83
2, 46198, Note_off_c, 0, 69, 64
2, 46198, Note_off_c, 0, 45, 64
2, 46198, Note_off_c, 0, 55, 64
2, 46198, Note_off_c, 0, 52, 64
2, 46200, Note_on_c, 0, 64, 86
2, 46318, Note_off_c, 0, 64, 64
2, 46320, Note_on_c, 0, 55, 88
2, 46320, Note_on_c, 0, 45, 88
2, 46320, Note_on_c, 0, 52, 88
2, 46320, Note_on_c, 0, 61, 88
2, 46438, Note_off_c, 0, 61, 64
2, 46438, Note_off_c, 0, 52, 64
2, 46438, Note_off_c, 0, 45, 64
2, 46438, Note_off_c, 0, 55, 64
2, 46800, Note_on_c, 0, 62, 97
2, 46800, Note_on_c, 0, 54, 97
2, 46800, Note_on_c, 0, 50, 97
2, 46918, Note_off_c, 0, 50, 64
2, 46918, Note_off_c, 0, 54, 64
2, 46918, Note_off_c, 0, 62, 64
2, 46920, Note_on_c, 0, 57, 100
2, 47038, Note_off_c, 0, 57, 64
2, 47040, Note_on_c, 0, 50, 102
2, 47040, Note_on_c, 0, 54, 102
2, 47158, Note_off_c, 0, 54, 64
2, 47158, Note_off_c, 0, 50, 64
2, 47520, Note_on_c, 0, 57, 110
2, 47520, Note_on_c, 0, 43, 110
2, 47520, Note_on_c, 0, 33, 110
2, 47638, Note_off_c, 0, 33, 64
2, 47638, Note_off_c, 0, 43, 64
2, 47638, Note_off_c, 0, 57, 64
2, 47640, Note_on_c, 0, 52, 116
2, 47758, Note_off_c, 0, 52, 64
2, 47760, Note_on_c, 0, 49, 123
2, 47760, Note_on_c, 0, 43, 123
2, 47760, Note_on_c, 0, 33, 123
2, 47878, Note_off_c, 0, 33, 64
2, 47878, Note_off_c, 0, 43, 64
2, 47878, Note_off_c, 0, 49, 64
2, 48240, Note_on_c, 0, 38, 127
2, 48240, Note_on_c, 0, 42, 127
2, 48240, Note_on_c, 0, 50, 127
2, 48358, Note_off_c, 0, 50, 64
2, 48358, Note_off_c, 0, 42, 64
2, 48358, Note_off_c, 0, 38, 64
2, 48480, Note_on_c, 0, 38, 127
2, 48480, Note_on_c, 0, 42, 127
2, 48480, Note_on_c, 0, 50, 127
2, 48598, Note_off_c, 0, 50, 64
2, 48598, Note_off_c, 0, 42, 64
2, 48598, Note_off_c, 0, 38, 64
2, 48960, Note_on_c, 0, 50, 127
2, 48960, Note_on_c, 0, 38, 127
2, 48960, Note_on_c, 0, 74, 127
2, 48960, Note_on_c, 0, 86, 127
2, 49136, Note_off_c, 0, 86, 64
2, 49136, Note_off_c, 0, 74, 64
2, 49136, Note_off_c, 0, 38, 64
2, 49136, Note_off_c, 0, 50, 64
2, 50400, Control_c, 0, 64, 127
2, 50400, Note_on_c, 0, 66, 58
2, 50640, Note_on_c, 0, 74, 58
2, 50640, Note_on_c, 0, 72, 58
2, 50640, Note_on_c, 0, 69, 58
2, 50875, Note_off_c, 0, 69, 64
2, 50875, Note_off_c, 0, 72, 64
2, 50875, Note_off_c, 0, 74, 64
2, 50880, Note_on_c, 0, 72, 58
2, 50880, Note_on_c, 0, 74, 58
2, 50880, Note_on_c, 0, 69, 58
2, 51106, Note_off_c, 0, 66, 64
2, 51115, Note_off_c, 0, 69, 64
2, 51115, Note_off_c, 0, 74, 64
2, 51115, Note_off_c, 0, 72, 64
2, 51120, Note_on_c, 0, 54, 58
2, 51360, Note_on_c, 0, 74, 58
2, 51360, Note_on_c, 0, 72, 58
2, 51360, Note_on_c, 0, 69, 58
2, 51595, Note_off_c, 0, 69, 64
2, 51595, Note_off_c, 0, 72, 64
2, 51595, Note_off_c, 0, 74, 64
2, 51600, Note_on_c, 0, 72, 58
2, 51600, Note_on_c, 0, 74, 58
2, 51600, Note_on_c, 0, 69, 58
2, 51826, Note_off_c, 0, 54, 64
2, 51835, Note_off_c, 0, 69, 64
2, 51835, Note_off_c, 0, 74, 64
2, 51835, Note_off_c, 0, 72, 64
2, 51840, Control_c, 0, 64, 0
2, 51840, Note_on_c, 0, 42, 58
2, 52080, Note_on_c, 0, 74, 58
2, 52080, Note_on_c, 0, 70, 58
2, 52198, Note_off_c, 0, 70, 64
2, 52198, Note_off_c, 0, 74, 64
2, 52320, Note_on_c, 0, 70, 58
2, 52320, Note_on_c, 0, 74, 58
2, 52438, Note_off_c, 0, 74, 64
2, 52438, Note_off_c, 0, 70, 64
2, 52546, Note_off_c, 0, 42, 64
2, 52560, Note_on_c, 0, 43, 58
2, 52800, Note_on_c, 0, 71, 58
2, 52800, Note_on_c, 0, 74, 58
2, 52918, Note_off_c, 0, 74, 64
2, 52918, Note_off_c, 0, 71, 64
2, 53040, Note_on_c, 0, 71, 58
2, 53040, Note_on_c, 0, 74, 58
2, 53158, Note_off_c, 0, 74, 64
2, 53158, Note_off_c, 0, 71, 64
2, 53266, Note_off_c, 0, 43, 64
2, 53280, Control_c, 0, 64, 127
2, 53280, Note_on_c, 0, 68, 58
2, 53520, Note_on_c, 0, 76, 58
2, 53520, Note_on_c, 0, 74, 58
2, 53520, Note_on_c, 0, 71, 58
2, 53755, Note_off_c, 0, 71, 64
2, 53755, Note_off_c, 0, 74, 64
2, 53755, Note_off_c, 0, 76, 64
2, 53760, Note_on_c, 0, 74, 58
2, 53760, Note_on_c, 0, 76, 58
2, 53760, Note_on_c, 0, 71, 58
2, 53986, Note_off_c, 0, 68, 64
2, 53995, Note_off_c, 0, 71, 64
2, 53995, Note_off_c, 0, 76, 64
2, 53995, Note_off_c, 0, 74, 64
2, 54000, Note_on_c, 0, 56, 58
2, 54240, Note_on_c, 0, 76, 58
2, 54240, Note_on_c, 0, 74, 58
2, 54240, Note_on_c, 0, 71, 58
2, 54475, Note_off_c, 0, 71, 64
2, 54475, Note_off_c, 0, 74, 64
2, 54475, Note_off_c, 0, 76, 64
2, 54480, Note_on_c, 0, 74, 58
2, 54480, Note_on_c, 0, 76, 58
2, 54480, Note_on_c, 0, 71, 58
2, 54706, Note_off_c, 0, 56, 64
2, 54715, Note_off_c, 0, 71, 64
2, 54715, Note_off_c, 0, 76, 64
2, 54715, Note_off_c, 0, 74, 64
2, 54720, Control_c, 0, 64, 0
2, 54720, Note_on_c, 0, 44, 58
2, 54960, Note_on_c, 0, 76, 61
2, 54960, Note_on_c, 0, 72, 61
2, 55078, Note_off_c, 0, 72, 64
2, 55078, Note_off_c, 0, 76, 64
2, 55200, Note_on_c, 0, 72, 64
2, 55200, Note_on_c, 0, 76, 64
2, 55318, Note_off_c, 0, 76, 64
2, 55318, Note_off_c, 0, 72, 64
2, 55426, Note_off_c, 0, 44, 64
2, 55440, Note_on_c, 0, 45, 67
2, 55680, Note_on_c, 0, 73, 71
2, 55680, Note_on_c, 0, 76, 71
2, 55798, Note_off_c, 0, 76, 64
2, 55798, Note_off_c, 0, 73, 64
2, 55920, Note_on_c, 0, 73, 74
2, 55920, Note_on_c, 0, 76, 74
2, 56038, Note_off_c, 0, 76, 64
2, 56038, Note_off_c, 0, 73, 64
2, 56146, Note_off_c, 0, 45, 64
2, 56160, Control_c, 0, 64, 127
2, 56160, Note_on_c, 0, 70, 77
2, 56400, Note_on_c, 0, 73, 80
2, 56400, Note_on_c, 0, 76, 80
2, 56400, Note_on_c, 0, 78, 80
2, 56635, Note_off_c, 0, 78, 64
2, 56635, Note_off_c, 0, 76, 64
2, 56635, Note_off_c, 0, 73, 64
2, 56640, Note_on_c, 0, 78, 84
2, 56640, Note_on_c, 0, 76, 84
2, 56640, Note_on_c, 0, 73, 84
2, 56866, Note_off_c, 0, 70, 64
2, 56875, Note_off_c, 0, 73, 64
2, 56875, Note_off_c, 0, 76, 64
2, 56875, Note_off_c, 0, 78, 64
2, 56880, Note_on_c, 0, 58, 87
2, 57120, Note_on_c, 0, 76, 90
2, 57120, Note_on_c, 0, 78, 90
2, 57120, Note_on_c, 0, 73, 90
2, 57355, Note_off_c, 0, 73, 64
2, 57355, Note_off_c, 0, 78, 64
2, 57355, Note_off_c, 0, 76, 64
2, 57360, Note_on_c, 0, 76, 94
2, 57360, Note_on_c, 0, 73, 94
2, 57360, Note_on_c, 0, 78, 94
2, 57586, Note_off_c, 0, 58, 64
2, 57595, Note_off_c, 0, 78, 64
2, 57595, Note_off_c, 0, 73, 64
2, 57595, Note_off_c, 0, 76, 64
2, 57600, Note_on_c, 0, 46, 96
2, 57840, Control_c, 0, 64, 0
2, 57840, Note_on_c, 0, 73, 96
2, 57840, Note_on_c, 0, 78, 96
2, 58075, Note_off_c, 0, 78, 64
2, 58075, Note_off_c, 0, 73, 64
2, 58080, Note_on_c, 0, 73, 104
2, 58080, Note_on_c, 0, 78, 104
2, 58306, Note_off_c, 0, 46, 64
2, 58315, Note_off_c, 0, 78, 64
2, 58315, Note_off_c, 0, 73, 64
2, 58320, Note_on_c, 0, 47, 112
2, 58560, Note_on_c, 0, 78, 121
2, 58560, Note_on_c, 0, 74, 121
2, 58795, Note_off_c, 0, 74, 64
2, 58795, Note_off_c, 0, 78, 64
2, 58800, Note_on_c, 0, 74, 124
2, 58800, Note_on_c, 0, 78, 124
2, 59026, Note_off_c, 0, 47, 64
2, 59035, Note_off_c, 0, 78, 64
2, 59035, Note_off_c, 0, 74, 64
2, 59040, Note_on_c, 0, 59, 126
2, 59280, Note_on_c, 0, 74, 120
2, 59280, Note_on_c, 0, 79, 120
2, 59515, Note_off_c, 0, 79, 64
2, 59515, Note_off_c, 0, 74, 64
2, 59520, Note_on_c, 0, 74, 113
2, 59520, Note_on_c, 0, 79, 113
2, 59746, Note_off_c, 0, 59, 64
2, 59755, Note_off_c, 0, 79, 64
2, 59755, Note_off_c, 0, 74, 64
2, 59760, Note_on_c, 0, 60, 106
2, 60000, Note_on_c, 0, 75, 99
2, 60000, Note_on_c, 0, 79, 99
2, 60118, Note_off_c, 0, 79, 64
2, 60118, Note_off_c, 0, 75, 64
2, 60240, Note_on_c, 0, 79, 93
2, 60240, Note_on_c, 0, 75, 93
2, 60358, Note_off_c, 0, 75, 64
2, 60358, Note_off_c, 0, 79, 64
2, 60466, Note_off_c, 0, 60, 64
2, 60480, Note_on_c, 0, 61, 72
2, 60720, Note_on_c, 0, 69, 72
2, 60720, Note_on_c, 0, 76, 72
2, 60720, Note_on_c, 0, 79, 72
2, 61906, Note_off_c, 0, 69, 64
2, 61906, Note_off_c, 0, 76, 64
2, 61906, Note_off_c, 0, 79, 64
2, 61906, Note_off_c, 0, 61, 64
2, 61920, Note_on_c, 0, 74, 72
2, 61920, Note_on_c, 0, 78, 72
2, 62626, Note_off_c, 0, 78, 64
2, 62626, Note_off_c, 0, 74, 64
2, 62640, Note_on_c, 0, 66, 72
2, 62640, Note_on_c, 0, 62, 72
2, 63346, Note_off_c, 0, 62, 64
2, 63346, Note_off_c, 0, 66, 64
2, 63360, Note_on_c, 0, 50, 72
2, 63360, Note_on_c, 0, 54, 72
2, 64066, Note_off_c, 0, 54, 64
2, 64066, Note_off_c, 0, 50, 64
2, 64080, Note_on_c, 0, 42, 72
2, 64080, Note_on_c, 0, 38, 72
2, 64786, Note_off_c, 0, 38, 64
2, 64786, Note_off_c, 0, 42, 64
2, 64800, Note_on_c, 0, 50, 72
2, 64800, Note_on_c, 0, 54, 72
2, 64800, Note_on_c, 0, 69, 72
2, 64918, Note_off_c, 0, 69, 64
2, 64918, Note_off_c, 0, 54, 64
2, 64918, Note_off_c, 0, 50, 64
2, 64920, Note_on_c, 0, 66, 72
2, 65038, Note_off_c, 0, 66, 64
2, 65040, Note_on_c, 0, 54, 72
2, 65040, Note_on_c, 0, 50, 72
2, 65040, Note_on_c, 0, 62, 72
2, 65158, Note_off_c, 0, 62, 64
2, 65158, Note_off_c, 0, 50, 64
2, 65158, Note_off_c, 0, 54, 64
2, 65520, Note_on_c, 0, 43, 72
2, 65520, Note_on_c, 0, 47, 72
2, 65520, Note_on_c, 0, 52, 72
2, 65520, Note_on_c, 0, 71, 72
2, 65638, Note_off_c, 0, 71, 64
2, 65638, Note_off_c, 0, 52, 64
2, 65638, Note_off_c, 0, 47, 64
2, 65638, Note_off_c, 0, 43, 64
2, 65640, Note_on_c, 0, 67, 72
2, 65758, Note_off_c, 0, 67, 64
2, 65760, Note_on_c, 0, 47, 72
2, 65760, Note_on_c, 0, 52, 72
2, 65760, Note_on_c, 0, 43, 72
2, 65760, Note_on_c, 0, 64, 72
2, 65878, Note_off_c, 0, 64, 64
2, 65878, Note_off_c, 0, 43, 64
2, 65878, Note_off_c, 0, 52, 64
2, 65878, Note_off_c, 0, 47, 64
2, 66240, Note_on_c, 0, 45, 72
2, 66240, Note_on_c, 0, 52, 72
2, 66240, Note_on_c, 0, 55, 72
2, 66240, Note_on_c, 0, 67, 72
2, 66358, Note_off_c, 0, 67, 64
2, 66358, Note_off_c, 0, 55, 64
2, 66358, Note_off_c, 0, 52, 64
2, 66358, Note_off_c, 0, 45, 64
2, 66360, Note_on_c, 0, 64, 72
2, 66478, Note_off_c, 0, 64, 64
2, 66480, Note_on_c, 0, 52, 72
2, 66480, Note_on_c, 0, 55, 72
2, 66480, Note_on_c, 0, 45, 72
2, 66480, Note_on_c, 0, 61, 72
2, 66598, Note_off_c, 0, 61, 64
2, 66598, Note_off_c, 0, 45, 64
2, 66598, Note_off_c, 0, 55, 64
2, 66598, Note_off_c, 0, 52, 64
2, 66960, Note_on_c, 0, 50, 72
2, 66960, Note_on_c, 0, 54, 72
2, 66960, Note_on_c, 0, 62, 72
2, 67078, Note_off_c, 0, 62, 64
2, 67078, Note_off_c, 0, 54, 64
2, 67078, Note_off_c, 0, 50, 64
2, 67200, Note_on_c, 0, 50, 72
2, 67200, Note_on_c, 0, 54, 72
2, 67200, Note_on_c, 0, 62, 72
2, 67318, Note_off_c, 0, 62, 64
2, 67318, Note_off_c, 0, 54, 64
2, 67318, Note_off_c, 0, 50, 64
2, 67680, Control_c, 0, 64, 127
2, 67680, Note_on_c, 0, 86, 120
2, 67680, Note_on_c, 0, 81, 120
2, 67680, Note_on_c, 0, 78, 120
2, 68386, Note_off_c, 0, 78, 64
2, 68386, Note_off_c, 0, 81, 64
2, 68386, Note_off_c, 0, 86, 64
2, 68400, Note_on_c, 0, 54, 116
2, 68400, Note_on_c, 0, 57, 116
2, 68400, Note_on_c, 0, 62, 116
2, 68400, Note_on_c, 0, 66, 116
2, 68400, Note_on_c, 0, 69, 116
2, 68400, Note_on_c, 0, 74, 116
2, 69106, Note_off_c, 0, 74, 64
2, 69106, Note_off_c, 0, 69, 64
2, 69106, Note_off_c, 0, 66, 64
2, 69106, Note_off_c, 0, 62, 64
2, 69106, Note_off_c, 0, 57, 64
2, 69106, Note_off_c, 0, 54, 64
2, 69120, Note_on_c, 0, 42, 116
2, 69120, Note_on_c, 0, 45, 116
2, 69120, Note_on_c, 0, 50, 116
2, 69826, Note_off_c, 0, 50, 64
2, 69826, Note_off_c, 0, 45, 64
2, 69826, Note_off_c, 0, 42, 64
2, 69840, Note_on_c, 0, 30, 116
2, 69840, Note_on_c, 0, 33, 116
2, 69840, Note_on_c, 0, 38, 116
2, 70546, Note_off_c, 0, 38, 64
2, 70546, Note_off_c, 0, 33, 64
2, 70546, Note_off_c, 0, 30, 64
2, 70560, Control_c, 0, 64, 0
2, 70560, Note_on_c, 0, 57, 72
2, 70560, Note_on_c, 0, 63, 72
2, 70560, Note_on_c, 0, 54, 72
2, 70560, Note_on_c, 0, 81, 72
2, 70560, Note_on_c, 0, 60, 72
2, 70678, Note_off_c, 0, 60, 64
2, 70678, Note_off_c, 0, 81, 64
2, 70678, Note_off_c, 0, 54, 64
2, 70678, Note_off_c, 0, 63, 64
2, 70678, Note_off_c, 0, 57, 64
2, 70680, Note_on_c, 0, 78, 72
2, 70798, Note_off_c, 0, 78, 64
2, 70800, Note_on_c, 0, 57, 72
2, 70800, Note_on_c, 0, 60, 72
2, 70800, Note_on_c, 0, 63, 72
2, 70800, Note_on_c, 0, 54, 72
2, 70800, Note_on_c, 0, 75, 72
2, 70918, Note_off_c, 0, 75, 64
2, 70918, Note_off_c, 0, 54, 64
2, 70918, Note_off_c, 0, 63, 64
2, 70918, Note_off_c, 0, 60, 64
2, 70918, Note_off_c, 0, 57, 64
2, 71280, Note_on_c, 0, 83, 72
2, 71280, Note_on_c, 0, 64, 72
2, 71280, Note_on_c, 0, 59, 72
2, 71280, Note_on_c, 0, 55, 72
2, 71398, Note_off_c, 0, 55, 64
2, 71398, Note_off_c, 0, 59, 64
2, 71398, Note_off_c, 0, 64, 64
2, 71398, Note_off_c, 0, 83, 64
2, 71400, Note_on_c, 0, 79, 72
2, 71518, Note_off_c, 0, 79, 64
2, 71520, Note_on_c, 0, 76, 72
2, 71520, Note_on_c, 0, 64, 72
2, 71520, Note_on_c, 0, 59, 72
2, 71520, Note_on_c, 0, 55, 72
2, 71638, Note_off_c, 0, 55, 64
2, 71638, Note_off_c, 0, 59, 64
2, 71638, Note_off_c, 0, 64, 64
2, 71638, Note_off_c, 0, 76, 64
2, 72000, Note_on_c, 0, 64, 72
2, 72000, Note_on_c, 0, 67, 72
2, 72000, Note_on_c, 0, 57, 72
2, 72000, Note_on_c, 0, 81, 72
2, 72118, Note_off_c, 0, 81, 64
2, 72118, Note_off_c, 0, 57, 64
2, 72118, Note_off_c, 0, 67, 64
2, 72118, Note_off_c, 0, 64, 64
2, 72120, Note_on_c, 0, 76, 72
2, 72238, Note_off_c, 0, 76, 64
2, 72240, Note_on_c, 0, 67, 72
2, 72240, Note_on_c, 0, 57, 72
2, 72240, Note_on_c, 0, 64, 72
2, 72240, Note_on_c, 0, 73, 72
2, 72358, Note_off_c, 0, 73, 64
2, 72358, Note_off_c, 0, 64, 64
2, 72358, Note_off_c, 0, 57, 64
2, 72358, Note_off_c, 0, 67, 64
2, 72720, Note_on_c, 0, 74, 72
2, 72720, Note_on_c, 0, 66, 72
2, 72720, Note_on_c, 0, 62, 72
2, 72838, Note_off_c, 0, 62, 64
2, 72838, Note_off_c, 0, 66, 64
2, 72838, Note_off_c, 0, 74, 64
2, 72840, Note_on_c, 0, 69, 72
2, 72958, Note_off_c, 0, 69, 64
2, 72960, Note_on_c, 0, 62, 74
2, 72960, Note_on_c, 0, 66, 74
2, 73078, Note_off_c, 0, 66, 64
2, 73078, Note_off_c, 0, 62, 64
2, 73440, Note_on_c, 0, 52, 83
2, 73440, Note_on_c, 0, 55, 83
2, 73440, Note_on_c, 0, 45, 83
2, 73440, Note_on_c, 0, 69, 83
2, 73558, Note_off_c, 0, 69, 64
2, 73558, Note_off_c, 0, 45, 64
2, 73558, Note_off_c, 0, 55, 64
2, 73558, Note_off_c, 0, 52, 64
2, 73560, Note_on_c, 0, 64, 86
2, 73678, Note_off_c, 0, 64, 64
2, 73680, Note_on_c, 0, 55, 88
2, 73680, Note_on_c, 0, 45, 88
2, 73680, Note_on_c, 0, 52, 88
2, 73680, Note_on_c, 0, 61, 88
2, 73798, Note_off_c, 0, 61, 64
2, 73798, Note_off_c, 0, 52, 64
2, 73798, Note_off_c, 0, 45, 64
2, 73798, Note_off_c, 0, 55, 64
2, 74160, Note_on_c, 0, 62, 97
2, 74160, Note_on_c, 0, 54, 97
2, 74160, Note_on_c, 0, 50, 97
2, 74278, Note_off_c, 0, 50, 64
2, 74278, Note_off_c, 0, 54, 64
2, 74278, Note_off_c, 0, 62, 64
2, 74280, Note_on_c, 0, 57, 100
2, 74398, Note_off_c, 0, 57, 64
2, 74400, Note_on_c, 0, 50, 102
2, 74400, Note_on_c, 0, 54, 102
2, 74518, Note_off_c, 0, 54, 64
2, 74518, Note_off_c, 0, 50, 64
2, 74880, Note_on_c, 0, 57, 110
2, 74880, Note_on_c, 0, 43, 110
2, 74880, Note_on_c, 0, 33, 110
2, 74998, Note_off_c, 0, 33, 64
2, 74998, Note_off_c, 0, 43, 64
2, 74998, Note_off_c, 0, 57, 64
2, 75000, Note_on_c, 0, 52, 116
2, 75118, Note_off_c, 0, 52, 64
2, 75120, Note_on_c, 0, 49, 123
2, 75120, Note_on_c, 0, 43, 123
2, 75120, Note_on_c, 0, 33, 123
2, 75238, Note_off_c, 0, 33, 64
2, 75238, Note_off_c, 0, 43, 64
2, 75238, Note_off_c, 0, 49, 64
2, 75600, Note_on_c, 0, 38, 127
2, 75600, Note_on_c, 0, 42, 127
2, 75600, Note_on_c, 0, 50, 127
2, 75718, Note_off_c, 0, 50, 64
2, 75718, Note_off_c, 0, 42, 64
2, 75718, Note_off_c, 0, 38, 64
2, 75840, Note_on_c, 0, 38, 127
2, 75840, Note_on_c, 0, 42, 127
2, 75840, Note_on_c, 0, 50, 127
2, 75958, Note_off_c, 0, 50, 64
2, 75958, Note_off_c, 0, 42, 64
2, 75958, Note_off_c, 0, 38, 64
2, 76320, Note_on_c, 0, 50, 127
2, 76320, Note_on_c, 0, 38, 127
2, 76320, Note_on_c, 0, 74, 127
2, 76320, Note_on_c, 0, 86, 127
2, 76496, Note_off_c, 0, 86, 64
2, 76496, Note_off_c, 0, 74, 64
2, 76496, Note_off_c, 0, 38, 64
2, 76496, Note_off_c, 0, 50, 64
2, 77760, Note_on_c, 0, 78, 72
2, 77760, Note_on_c, 0, 42, 72
2, 77878, Note_off_c, 0, 42, 64
2, 77880, Note_on_c, 0, 54, 72
2, 77998, Note_off_c, 0, 54, 64
2, 78000, Note_on_c, 0, 44, 72
2, 78118, Note_off_c, 0, 44, 64
2, 78120, Note_on_c, 0, 56, 72
2, 78238, Note_off_c, 0, 56, 64
2, 78240, Note_on_c, 0, 46, 72
2, 78358, Note_off_c, 0, 46, 64
2, 78360, Note_on_c, 0, 58, 72
2, 78416, Note_off_c, 0, 78, 64
2, 78420, Note_on_c, 0, 76, 72
2, 78478, Note_off_c, 0, 58, 64
2, 78479, Note_off_c, 0, 76, 64
2, 78480, Note_on_c, 0, 47, 72
2, 78480, Note_on_c, 0, 74, 72
2, 78598, Note_off_c, 0, 47, 64
2, 78600, Note_on_c, 0, 59, 72
2, 78718, Note_off_c, 0, 59, 64
2, 78720, Note_on_c, 0, 49, 72
2, 78833, Note_off_c, 0, 74, 64
2, 78838, Note_off_c, 0, 49, 64
2, 78840, Note_on_c, 0, 61, 72
2, 78840, Note_on_c, 0, 73, 72
2, 78899, Note_off_c, 0, 73, 64
2, 78958, Note_off_c, 0, 61, 64
2, 78960, Note_on_c, 0, 71, 72
2, 78960, Note_on_c, 0, 50, 72
2, 79078, Note_off_c, 0, 50, 64
2, 79078, Note_off_c, 0, 71, 64
2, 79080, Note_on_c, 0, 62, 72
2, 79198, Note_off_c, 0, 62, 64
2, 79200, Note_on_c, 0, 52, 72
2, 79200, Note_on_c, 0, 71, 72
2, 79318, Note_off_c, 0, 71, 64
2, 79318, Note_off_c, 0, 52, 64
2, 79320, Note_on_c, 0, 64, 72
2, 79438, Note_off_c, 0, 64, 64
2, 79440, Note_on_c, 0, 71, 72
2, 79440, Note_on_c, 0, 49, 72
2, 79558, Note_off_c, 0, 49, 64
2, 79558, Note_off_c, 0, 71, 64
2, 79560, Note_on_c, 0, 61, 72
2, 79678, Note_off_c, 0, 61, 64
2, 79680, Note_on_c, 0, 70, 72
2, 79680, Note_on_c, 0, 54, 72
2, 79798, Note_off_c, 0, 54, 64
2, 79798, Note_off_c, 0, 70, 64
2, 79800, Note_on_c, 0, 66, 72
2, 79918, Note_off_c, 0, 66, 64
2, 79920, Note_on_c, 0, 71, 72
2, 79920, Note_on_c, 0, 50, 72
2, 80038, Note_off_c, 0, 50, 64
2, 80040, Note_on_c, 0, 62, 72
2, 80158, Note_off_c, 0, 62, 64
2, 80160, Note_on_c, 0, 49, 72
2, 80278, Note_off_c, 0, 49, 64
2, 80280, Note_on_c, 0, 61, 72
2, 80398, Note_off_c, 0, 61, 64
2, 80400, Note_on_c, 0, 47, 72
2, 80518, Note_off_c, 0, 47, 64
2, 80520, Note_on_c, 0, 59, 72
2, 80626, Note_off_c, 0, 71, 64
2, 80638, Note_off_c, 0, 59, 64
2, 80640, Note_on_c, 0, 46, 72
2, 80640, Note_on_c, 0, 78, 72
2, 80758, Note_off_c, 0, 46, 64
2, 80760, Note_on_c, 0, 58, 72
2, 80878, Note_off_c, 0, 58, 64
2, 80880, Note_on_c, 0, 47, 72
2, 80998, Note_off_c, 0, 47, 64
2, 81000, Note_on_c, 0, 59, 72
2, 81118, Note_off_c, 0, 59, 64
2, 81120, Note_on_c, 0, 49, 72
2, 81238, Note_off_c, 0, 49, 64
2, 81240, Note_on_c, 0, 61, 72
2, 81296, Note_off_c, 0, 78, 64
2, 81300, Note_on_c, 0, 76, 72
2, 81358, Note_off_c, 0, 61, 64
2, 81359, Note_off_c, 0, 76, 64
2, 81360, Note_on_c, 0, 50, 72
2, 81360, Note_on_c, 0, 74, 72
2, 81478, Note_off_c, 0, 50, 64
2, 81480, Note_on_c, 0, 62, 72
2, 81598, Note_off_c, 0, 62, 64
2, 81600, Note_on_c, 0, 52, 72
2, 81713, Note_off_c, 0, 74, 64
2, 81718, Note_off_c, 0, 52, 64
2, 81720, Note_on_c, 0, 64, 72
2, 81720, Note_on_c, 0, 73, 72
2, 81779, Note_off_c, 0, 73, 64
2, 81838, Note_off_c, 0, 64, 64
2, 81840, Note_on_c, 0, 71, 72
2, 81840, Note_on_c, 0, 54, 72
2, 81958, Note_off_c, 0, 54, 64
2, 81958, Note_off_c, 0, 71, 64
2, 81960, Note_on_c, 0, 66, 72
2, 82078, Note_off_c, 0, 66, 64
2, 82080, Note_on_c, 0, 71, 72
2, 82080, Note_on_c, 0, 55, 72
2, 82198, Note_off_c, 0, 55, 64
2, 82198, Note_off_c, 0, 71, 64
2, 82200, Note_on_c, 0, 67, 72
2, 82318, Note_off_c, 0, 67, 64
2, 82320, Note_on_c, 0, 71, 72
2, 82320, Note_on_c, 0, 52, 72
2, 82438, Note_off_c, 0, 52, 64
2, 82438, Note_off_c, 0, 71, 64
2, 82440, Note_on_c, 0, 64, 72
2, 82558, Note_off_c, 0, 64, 64
2, 82560, Note_on_c, 0, 57, 72
2, 82560, Note_on_c, 0, 73, 72
2, 82678, Note_off_c, 0, 73, 64
2, 82678, Note_off_c, 0, 57, 64
2, 82680, Note_on_c, 0, 69, 72
2, 82798, Note_off_c, 0, 69, 64
2, 82800, Note_on_c, 0, 54, 72
2, 82800, Note_on_c, 0, 74, 72
2, 82918, Note_off_c, 0, 54, 64
2, 82920, Note_on_c, 0, 66, 72
2, 83038, Note_off_c, 0, 66, 64
2, 83040, Note_on_c, 0, 52, 72
2, 83158, Note_off_c, 0, 52, 64
2, 83160, Note_on_c, 0, 64, 72
2, 83278, Note_off_c, 0, 64, 64
2, 83280, Note_on_c, 0, 50, 72
2, 83398, Note_off_c, 0, 50, 64
2, 83400, Note_on_c, 0, 62, 72
2, 83506, Note_off_c, 0, 74, 64
2, 83518, Note_off_c, 0, 62, 64
2, 83520, Note_on_c, 0, 78, 72
2, 83520, Note_on_c, 0, 42, 72
2, 83638, Note_off_c, 0, 42, 64
2, 83640, Note_on_c, 0, 54, 72
2, 83758, Note_off_c, 0, 54, 64
2, 83760, Note_on_c, 0, 44, 72
2, 83878, Note_off_c, 0, 44, 64
2, 83880, Note_on_c, 0, 56, 72
2, 83998, Note_off_c, 0, 56, 64
2, 84000, Note_on_c, 0, 46, 72
2, 84118, Note_off_c, 0, 46, 64
2, 84120, Note_on_c, 0, 58, 72
2, 84176, Note_off_c, 0, 78, 64
2, 84180, Note_on_c, 0, 76, 72
2, 84238, Note_off_c, 0, 58, 64
2, 84239, Note_off_c, 0, 76, 64
2, 84240, Note_on_c, 0, 47, 72
2, 84240, Note_on_c, 0, 74, 72
2, 84358, Note_off_c, 0, 47, 64
2, 84360, Note_on_c, 0, 59, 72
2, 84478, Note_off_c, 0, 59, 64
2, 84480, Note_on_c, 0, 49, 72
2, 84593, Note_off_c, 0, 74, 64
2, 84598, Note_off_c, 0, 49, 64
2, 84600, Note_on_c, 0, 61, 72
2, 84600, Note_on_c, 0, 73, 72
2, 84659, Note_off_c, 0, 73, 64
2, 84718, Note_off_c, 0, 61, 64
2, 84720, Note_on_c, 0, 71, 72
2, 84720, Note_on_c, 0, 50, 72
2, 84838, Note_off_c, 0, 50, 64
2, 84838, Note_off_c, 0, 71, 64
2, 84840, Note_on_c, 0, 62, 72
2, 84958, Note_off_c, 0, 62, 64
2, 84960, Note_on_c, 0, 52, 72
2, 84960, Note_on_c, 0, 71, 72
2, 85078, Note_off_c, 0, 71, 64
2, 85078, Note_off_c, 0, 52, 64
2, 85080, Note_on_c, 0, 64, 72
2, 85198, Note_off_c, 0, 64, 64
2, 85200, Note_on_c, 0, 71, 72
2, 85200, Note_on_c, 0, 49, 72
2, 85318, Note_off_c, 0, 49, 64
2, 85318, Note_off_c, 0, 71, 64
2, 85320, Note_on_c, 0, 61, 72
2, 85438, Note_off_c, 0, 61, 64
2, 85440, Note_on_c, 0, 70, 72
2, 85440, Note_on_c, 0, 54, 72
2, 85558, Note_off_c, 0, 54, 64
2, 85558, Note_off_c, 0, 70, 64
2, 85560, Note_on_c, 0, 66, 72
2, 85678, Note_off_c, 0, 66, 64
2, 85680, Note_on_c, 0, 71, 72
2, 85680, Note_on_c, 0, 50, 72
2, 85798, Note_off_c, 0, 50, 64
2, 85800, Note_on_c, 0, 62, 72
2, 85918, Note_off_c, 0, 62, 64
2, 85920, Note_on_c, 0, 49, 72
2, 86038, Note_off_c, 0, 49, 64
2, 86040, Note_on_c, 0, 61, 72
2, 86158, Note_off_c, 0, 61, 64
2, 86160, Note_on_c, 0, 47, 72
2, 86278, Note_off_c, 0, 47, 64
2, 86280, Note_on_c, 0, 59, 72
2, 86386, Note_off_c, 0, 71, 64
2, 86398, Note_off_c, 0, 59, 64
2, 86400, Note_on_c, 0, 46, 72
2, 86400, Note_on_c, 0, 78, 72
2, 86518, Note_off_c, 0, 46, 64
2, 86520, Note_on_c, 0, 58, 72
2, 86638, Note_off_c, 0, 58, 64
2, 86640, Note_on_c, 0, 47, 72
2, 86758, Note_off_c, 0, 47, 64
2, 86760, Note_on_c, 0, 59, 72
2, 86878, Note_off_c, 0, 59, 64
2, 86880, Note_on_c, 0, 49, 72
2, 86998, Note_off_c, 0, 49, 64
2, 87000, Note_on_c, 0, 61, 72
2, 87056, Note_off_c, 0, 78, 64
2, 87060, Note_on_c, 0, 76, 72
2, 87118, Note_off_c, 0, 61, 64
2, 87119, Note_off_c, 0, 76, 64
2, 87120, Note_on_c, 0, 50, 72
2, 87120, Note_on_c, 0, 74, 72
2, 87238, Note_off_c, 0, 50, 64
2, 87240, Note_on_c, 0, 62, 72
2, 87358, Note_off_c, 0, 62, 64
2, 87360, Note_on_c, 0, 52, 72
2, 87473, Note_off_c, 0, 74, 64
2, 87478, Note_off_c, 0, 52, 64
2, 87480, Note_on_c, 0, 64, 72
2, 87480, Note_on_c, 0, 73, 72
2, 87539, Note_off_c, 0, 73, 64
2, 87598, Note_off_c, 0, 64, 64
2, 87600, Note_on_c, 0, 71, 72
2, 87600, Note_on_c, 0, 54, 72
2, 87718, Note_off_c, 0, 54, 64
2, 87718, Note_off_c, 0, 71, 64
2, 87720, Note_on_c, 0, 66, 72
2, 87838, Note_off_c, 0, 66, 64
2, 87840, Note_on_c, 0, 71, 72
2, 87840, Note_on_c, 0, 55, 72
2, 87958, Note_off_c, 0, 55, 64
2, 87958, Note_off_c, 0, 71, 64
2, 87960, Note_on_c, 0, 67, 72
2, 88078, Note_off_c, 0, 67, 64
2, 88080, Note_on_c, 0, 71, 72
2, 88080, Note_on_c, 0, 52, 72
2, 88198, Note_off_c, 0, 52, 64
2, 88198, Note_off_c, 0, 71, 64
2, 88200, Note_on_c, 0, 64, 72
2, 88318, Note_off_c, 0, 64, 64
2, 88320, Note_on_c, 0, 57, 72
2, 88320, Note_on_c, 0, 73, 72
2, 88438, Note_off_c, 0, 73, 64
2, 88438, Note_off_c, 0, 57, 64
2, 88440, Note_on_c, 0, 69, 72
2, 88558, Note_off_c, 0, 69, 64
2, 88560, Note_on_c, 0, 54, 72
2, 88560, Note_on_c, 0, 74, 72
2, 88678, Note_off_c, 0, 54, 64
2, 88680, Note_on_c, 0, 66, 72
2, 88798, Note_off_c, 0, 66, 64
2, 88800, Note_on_c, 0, 52, 72
2, 88918, Note_off_c, 0, 52, 64
2, 88920, Note_on_c, 0, 64, 72
2, 89038, Note_off_c, 0, 64, 64
2, 89040, Note_on_c, 0, 50, 72
2, 89158, Note_off_c, 0, 50, 64
2, 89160, Note_on_c, 0, 62, 72
2, 89266, Note_off_c, 0, 74, 64
2, 89278, Note_off_c, 0, 62, 64
2, 89280, Control_c, 0, 64, 127
2, 89280, Note_on_c, 0, 78, 72
2, 89280, Note_on_c, 0, 50, 72
2, 89398, Note_off_c, 0, 50, 64
2, 89400, Note_on_c, 0, 62, 75
2, 89518, Note_off_c, 0, 62, 64
2, 89520, Note_on_c, 0, 54, 78
2, 89638, Note_off_c, 0, 54, 64
2, 89640, Note_on_c, 0, 62, 82
2, 89758, Note_off_c, 0, 62, 64
2, 89760, Note_on_c, 0, 57, 85
2, 89878, Note_off_c, 0, 57, 64
2, 89880, Note_on_c, 0, 62, 88
2, 89936, Note_off_c, 0, 78, 64
2, 89940, Note_on_c, 0, 76, 90
2, 89998, Note_off_c, 0, 62, 64
2, 89999, Note_off_c, 0, 76, 64
2, 90000, Control_c, 0, 64, 0
2, 90000, Note_on_c, 0, 74, 92
2, 90000, Note_on_c, 0, 50, 92
2, 90118, Note_off_c, 0, 50, 64
2, 90120, Note_on_c, 0, 62, 95
2, 90238, Note_off_c, 0, 62, 64
2, 90240, Note_on_c, 0, 55, 99
2, 90353, Note_off_c, 0, 74, 64
2, 90358, Note_off_c, 0, 55, 64
2, 90360, Control_c, 0, 64, 127
2, 90360, Note_on_c, 0, 73, 102
2, 90360, Note_on_c, 0, 62, 102
2, 90419, Note_off_c, 0, 73, 64
2, 90478, Note_off_c, 0, 62, 64
2, 90480, Control_c, 0, 64, 0
2, 90480, Note_on_c, 0, 59, 105
2, 90480, Note_on_c, 0, 71, 105
2, 90598, Note_off_c, 0, 71, 64
2, 90598, Note_off_c, 0, 59, 64
2, 90600, Note_on_c, 0, 62, 109
2, 90718, Note_off_c, 0, 62, 64
2, 90720, Note_on_c, 0, 50, 111
2, 90720, Note_on_c, 0, 71, 111
2, 90838, Note_off_c, 0, 71, 64
2, 90838, Note_off_c, 0, 50, 64
2, 90840, Note_on_c, 0, 62, 108
2, 90958, Note_off_c, 0, 62, 64
2, 90960, Note_on_c, 0, 55, 104
2, 90960, Note_on_c, 0, 71, 104
2, 91078, Note_off_c, 0, 71, 64
2, 91078, Note_off_c, 0, 55, 64
2, 91080, Note_on_c, 0, 62, 101
2, 91198, Note_off_c, 0, 62, 64
2, 91200, Note_on_c, 0, 58, 97
2, 91200, Note_on_c, 0, 73, 97
2, 91318, Note_off_c, 0, 73, 64
2, 91318, Note_off_c, 0, 58, 64
2, 91320, Note_on_c, 0, 62, 94
2, 91438, Note_off_c, 0, 62, 64
2, 91440, Control_c, 0, 64, 127
2, 91440, Note_on_c, 0, 74, 90
2, 91440, Note_on_c, 0, 50, 90
2, 91558, Note_off_c, 0, 50, 64
2, 91560, Note_on_c, 0, 62, 87
2, 91678, Note_off_c, 0, 62, 64
2, 91680, Note_on_c, 0, 54, 83
2, 91798, Note_off_c, 0, 54, 64
2, 91800, Note_on_c, 0, 62, 80
2, 91918, Note_off_c, 0, 62, 64
2, 91920, Note_on_c, 0, 57, 76
2, 92038, Note_off_c, 0, 57, 64
2, 92040, Note_on_c, 0, 62, 73
2, 92146, Note_off_c, 0, 74, 64
2, 92158, Note_off_c, 0, 62, 64
2, 92160, Control_c, 0, 64, 0
2, 92160, Note_on_c, 0, 78, 72
2, 92160, Note_on_c, 0, 49, 72
2, 92278, Note_off_c, 0, 49, 64
2, 92280, Note_on_c, 0, 58, 72
2, 92398, Note_off_c, 0, 58, 64
2, 92400, Note_on_c, 0, 52, 72
2, 92518, Note_off_c, 0, 52, 64
2, 92520, Note_on_c, 0, 58, 72
2, 92638, Note_off_c, 0, 58, 64
2, 92640, Control_c, 0, 64, 127
2, 92640, Note_on_c, 0, 54, 72
2, 92758, Note_off_c, 0, 54, 64
2, 92760, Note_on_c, 0, 58, 72
2, 92816, Note_off_c, 0, 78, 64
2, 92820, Note_on_c, 0, 76, 72
2, 92878, Note_off_c, 0, 58, 64
2, 92879, Note_off_c, 0, 76, 64
2, 92880, Control_c, 0, 64, 0
2, 92880, Note_on_c, 0, 74, 72
2, 92880, Note_on_c, 0, 47, 72
2, 92998, Note_off_c, 0, 47, 64
2, 93000, Note_on_c, 0, 59, 72
2, 93118, Note_off_c, 0, 59, 64
2, 93120, Note_on_c, 0, 38, 72
2, 93233, Note_off_c, 0, 74, 64
2, 93238, Note_off_c, 0, 38, 64
2, 93240, Control_c, 0, 64, 127
2, 93240, Note_on_c, 0, 73, 72
2, 93240, Note_on_c, 0, 50, 72
2, 93299, Note_off_c, 0, 73, 64
2, 93358, Note_off_c, 0, 50, 64
2, 93360, Control_c, 0, 64, 0
2, 93360, Note_on_c, 0, 40, 72
2, 93360, Note_on_c, 0, 71, 72
2, 93478, Note_off_c, 0, 71, 64
2, 93478, Note_off_c, 0, 40, 64
2, 93480, Note_on_c, 0, 52, 72
2, 93598, Note_off_c, 0, 52, 64
2, 93600, Note_on_c, 0, 71, 72
2, 93600, Note_on_c, 0, 42, 72
2, 93718, Note_off_c, 0, 42, 64
2, 93718, Note_off_c, 0, 71, 64
2, 93720, Note_on_c, 0, 54, 72
2, 93838, Note_off_c, 0, 54, 64
2, 93840, Note_on_c, 0, 71, 72
2, 93840, Note_on_c, 0, 40, 72
2, 93958, Note_off_c, 0, 40, 64
2, 93958, Note_off_c, 0, 71, 64
2, 93960, Note_on_c, 0, 52, 72
2, 94078, Note_off_c, 0, 52, 64
2, 94080, Note_on_c, 0, 42, 72
2, 94080, Note_on_c, 0, 70, 72
2, 94198, Note_off_c, 0, 70, 64
2, 94198, Note_off_c, 0, 42, 64
2, 94200, Note_on_c, 0, 54, 72
2, 94318, Note_off_c, 0, 54, 64
2, 94320, Control_c, 0, 64, 127
2, 94320, Note_on_c, 0, 71, 72
2, 94320, Note_on_c, 0, 35, 72
2, 94438, Note_off_c, 0, 35, 64
2, 94440, Note_on_c, 0, 47, 72
2, 94558, Note_off_c, 0, 47, 64
2, 94560, Note_on_c, 0, 47, 72
2, 94678, Note_off_c, 0, 47, 64
2, 94680, Note_on_c, 0, 59, 72
2, 94798, Note_off_c, 0, 59, 64
2, 94800, Note_on_c, 0, 49, 72
2, 94918, Note_off_c, 0, 49, 64
2, 94920, Note_on_c, 0, 61, 72
2, 94920, Control_c, 0, 64, 0
2, 95026, Note_off_c, 0, 71, 64
2, 95038, Note_off_c, 0, 61, 64
2, 95040, Note_on_c, 0, 78, 72
2, 95040, Note_on_c, 0, 50, 72
2, 95158, Note_off_c, 0, 50, 64
2, 95160, Note_on_c, 0, 62, 73
2, 95278, Note_off_c, 0, 62, 64
2, 95280, Note_on_c, 0, 52, 75
2, 95398, Note_off_c, 0, 52, 64
2, 95400, Note_on_c, 0, 64, 76
2, 95518, Note_off_c, 0, 64, 64
2, 95520, Note_on_c, 0, 54, 78
2, 95638, Note_off_c, 0, 54, 64
2, 95640, Note_on_c, 0, 66, 80
2, 95696, Note_off_c, 0, 78, 64
2, 95700, Note_on_c, 0, 76, 81
2, 95758, Note_off_c, 0, 66, 64
2, 95759, Note_off_c, 0, 76, 64
2, 95760, Note_on_c, 0, 74, 81
2, 95760, Note_on_c, 0, 55, 81
2, 95878, Note_off_c, 0, 55, 64
2, 95880, Note_on_c, 0, 67, 83
2, 95998, Note_off_c, 0, 67, 64
2, 96000, Note_on_c, 0, 62, 85
2, 96113, Note_off_c, 0, 74, 64
2, 96118, Note_off_c, 0, 62, 64
2, 96120, Note_on_c, 0, 73, 86
2, 96120, Note_on_c, 0, 67, 86
2, 96179, Note_off_c, 0, 73, 64
2, 96238, Note_off_c, 0, 67, 64
2, 96240, Note_on_c, 0, 55, 88
2, 96240, Note_on_c, 0, 71, 88
2, 96358, Note_off_c, 0, 71, 64
2, 96358, Note_off_c, 0, 55, 64
2, 96360, Note_on_c, 0, 67, 90
2, 96478, Note_off_c, 0, 67, 64
2, 96480, Note_on_c, 0, 56, 91
2, 96480, Note_on_c, 0, 71, 91
2, 96598, Note_off_c, 0, 71, 64
2, 96598, Note_off_c, 0, 56, 64
2, 96600, Note_on_c, 0, 65, 93
2, 96718, Note_off_c, 0, 65, 64
2, 96720, Note_on_c, 0, 62, 94
2, 96720, Note_on_c, 0, 71, 94
2, 96838, Note_off_c, 0, 71, 64
2, 96838, Note_off_c, 0, 62, 64
2, 96840, Note_on_c, 0, 65, 96
2, 96958, Note_off_c, 0, 65, 64
2, 96960, Note_on_c, 0, 56, 98
2, 96960, Note_on_c, 0, 73, 98
2, 97078, Note_off_c, 0, 73, 64
2, 97078, Note_off_c, 0, 56, 64
2, 97080, Note_on_c, 0, 65, 99
2, 97198, Note_off_c, 0, 65, 64
2, 97200, Control_c, 0, 64, 127
2, 97200, Note_on_c, 0, 74, 101
2, 97200, Note_on_c, 0, 57, 101
2, 97318, Note_off_c, 0, 57, 64
2, 97320, Note_on_c, 0, 66, 103
2, 97438, Note_off_c, 0, 66, 64
2, 97440, Note_on_c, 0, 62, 104
2, 97558, Note_off_c, 0, 62, 64
2, 97560, Note_on_c, 0, 66, 106
2, 97678, Note_off_c, 0, 66, 64
2, 97680, Note_on_c, 0, 57, 108
2, 97798, Note_off_c, 0, 57, 64
2, 97800, Note_on_c, 0, 66, 109
2, 97800, Control_c, 0, 64, 0
2, 97906, Note_off_c, 0, 74, 64
2, 97918, Note_off_c, 0, 66, 64
2, 97920, Control_c, 0, 64, 127
2, 97920, Note_on_c, 0, 58, 110
2, 97920, Note_on_c, 0, 61, 109
2, 97920, Note_on_c, 0, 78, 109
2, 98038, Note_off_c, 0, 61, 64
2, 98038, Note_off_c, 0, 58, 64
2, 98040, Note_on_c, 0, 66, 109
2, 98158, Note_off_c, 0, 66, 64
2, 98160, Note_on_c, 0, 59, 109
2, 98160, Note_on_c, 0, 62, 109
2, 98278, Note_off_c, 0, 62, 64
2, 98278, Note_off_c, 0, 59, 64
2, 98280, Note_on_c, 0, 66, 109
2, 98398, Note_off_c, 0, 66, 64
2, 98400, Control_c, 0, 64, 0
2, 98400, Note_on_c, 0, 61, 109
2, 98400, Note_on_c, 0, 64, 109
2, 98518, Note_off_c, 0, 64, 64
2, 98518, Note_off_c, 0, 61, 64
2, 98520, Note_on_c, 0, 66, 104
2, 98576, Note_off_c, 0, 78, 64
2, 98580, Note_on_c, 0, 76, 102
2, 98638, Note_off_c, 0, 66, 64
2, 98639, Note_off_c, 0, 76, 64
2, 98640, Note_on_c, 0, 62, 99
2, 98640, Note_on_c, 0, 74, 99
2, 98640, Note_on_c, 0, 59, 99
2, 98758, Note_off_c, 0, 59, 64
2, 98758, Note_off_c, 0, 62, 64
2, 98760, Note_on_c, 0, 66, 94
2, 98878, Note_off_c, 0, 66, 64
2, 98880, Note_on_c, 0, 50, 89
2, 98993, Note_off_c, 0, 74, 64
2, 98998, Note_off_c, 0, 50, 64
2, 99000, Note_on_c, 0, 73, 84
2, 99000, Note_on_c, 0, 62, 84
2, 99059, Note_off_c, 0, 73, 64
2, 99118, Note_off_c, 0, 62, 64
2, 99120, Note_on_c, 0, 52, 79
2, 99120, Note_on_c, 0, 71, 79
2, 99238, Note_off_c, 0, 71, 64
2, 99238, Note_off_c, 0, 52, 64
2, 99240, Note_on_c, 0, 64, 73
2, 99358, Note_off_c, 0, 64, 64
2, 99360, Note_on_c, 0, 71, 72
2, 99360, Note_on_c, 0, 54, 72
2, 99478, Note_off_c, 0, 54, 64
2, 99478, Note_off_c, 0, 71, 64
2, 99480, Note_on_c, 0, 66, 72
2, 99598, Note_off_c, 0, 66, 64
2, 99600, Note_on_c, 0, 71, 72
2, 99600, Note_on_c, 0, 52, 72
2, 99718, Note_off_c, 0, 52, 64
2, 99718, Note_off_c, 0, 71, 64
2, 99720, Note_on_c, 0, 64, 72
2, 99838, Note_off_c, 0, 64, 64
2, 99840, Note_on_c, 0, 54, 72
2, 99840, Note_on_c, 0, 70, 72
2, 99958, Note_off_c, 0, 70, 64
2, 99958, Note_off_c, 0, 54, 64
2, 99960, Note_on_c, 0, 66, 72
2, 100078, Note_off_c, 0, 66, 64
2, 100080, Control_c, 0, 64, 127
2, 100080, Note_on_c, 0, 47, 72
2, 100080, Note_on_c, 0, 71, 72
2, 100198, Note_off_c, 0, 47, 64
2, 100200, Note_on_c, 0, 59, 72
2, 100318, Note_off_c, 0, 59, 64
2, 100320, Note_on_c, 0, 54, 72
2, 100438, Note_off_c, 0, 54, 64
2, 100440, Note_on_c, 0, 50, 72
2, 100558, Note_off_c, 0, 50, 64
2, 100560, Note_on_c, 0, 47, 72
2, 100560, Control_c, 0, 64, 0
2, 100786, Note_off_c, 0, 71, 64
2, 100795, Note_off_c, 0, 47, 64
2, 100800, Note_on_c, 0, 78, 72
2, 101520, Note_on_c, 0, 66, 72
2, 102226, Note_off_c, 0, 78, 64
2, 102226, Note_off_c, 0, 66, 64
2, 102240, Note_on_c, 0, 54, 72
2, 102960, Note_on_c, 0, 42, 72
2, 103666, Note_off_c, 0, 54, 64
2, 103666, Note_off_c, 0, 42, 64
2, 103680, Note_on_c, 0, 50, 72
2, 103680, Note_on_c, 0, 54, 72
2, 103680, Note_on_c, 0, 69, 72
2, 103798, Note_off_c, 0, 69, 64
2, 103798, Note_off_c, 0, 54, 64
2, 103798, Note_off_c, 0, 50, 64
2, 103800, Note_on_c, 0, 66, 72
2, 103918, Note_off_c, 0, 66, 64
2, 103920, Note_on_c, 0, 54, 72
2, 103920, Note_on_c, 0, 50, 72
2, 103920, Note_on_c, 0, 62, 72
2, 104038, Note_off_c, 0, 62, 64
2, 104038, Note_off_c, 0, 50, 64
2, 104038, Note_off_c, 0, 54, 64
2, 104400, Note_on_c, 0, 43, 72
2, 104400, Note_on_c, 0, 47, 72
2, 104400, Note_on_c, 0, 52, 72
2, 104400, Note_on_c, 0, 71, 72
2, 104518, Note_off_c, 0, 71, 64
2, 104518, Note_off_c, 0, 52, 64
2, 104518, Note_off_c, 0, 47, 64
2, 104518, Note_off_c, 0, 43, 64
2, 104520, Note_on_c, 0, 67, 72
2, 104638, Note_off_c, 0, 67, 64
2, 104640, Note_on_c, 0, 47, 72
2, 104640, Note_on_c, 0, 52, 72
2, 104640, Note_on_c, 0, 43, 72
2, 104640, Note_on_c, 0, 64, 72
2, 104758, Note_off_c, 0, 64, 64
2, 104758, Note_off_c, 0, 43, 64
2, 104758, Note_off_c, 0, 52, 64
2, 104758, Note_off_c, 0, 47, 64
2, 105120, Note_on_c, 0, 45, 72
2, 105120, Note_on_c, 0, 52, 72
2, 105120, Note_on_c, 0, 55, 72
2, 105120, Note_on_c, 0, 67, 72
2, 105238, Note_off_c, 0, 67, 64
2, 105238, Note_off_c, 0, 55, 64
2, 105238, Note_off_c, 0, 52, 64
2, 105238, Note_off_c, 0, 45, 64
2, 105240, Note_on_c, 0, 64, 72
2, 105358, Note_off_c, 0, 64, 64
2, 105360, Note_on_c, 0, 52, 72
2, 105360, Note_on_c, 0, 55, 72
2, 105360, Note_on_c, 0, 45, 72
2, 105360, Note_on_c, 0, 61, 72
2, 105478, Note_off_c, 0, 61, 64
2, 105478, Note_off_c, 0, 45, 64
2, 105478, Note_off_c, 0, 55, 64
2, 105478, Note_off_c, 0, 52, 64
2, 105840, Note_on_c, 0, 50, 72
2, 105840, Note_on_c, 0, 54, 72
2, 105840, Note_on_c, 0, 62, 72
2, 105958, Note_off_c, 0, 62, 64
2, 105958, Note_off_c, 0, 54, 64
2, 105958, Note_off_c, 0, 50, 64
2, 106080, Note_on_c, 0, 50, 72
2, 106080, Note_on_c, 0, 54, 72
2, 106080, Note_on_c, 0, 62, 72
2, 106198, Note_off_c, 0, 62, 64
2, 106198, Note_off_c, 0, 54, 64
2, 106198, Note_off_c, 0, 50, 64
2, 106560, Note_on_c, 0, 81, 72
2, 107280, Note_on_c, 0, 69, 72
2, 107986, Note_off_c, 0, 81, 64
2, 107986, Note_off_c, 0, 69, 64
2, 108000, Note_on_c, 0, 57, 72
2, 108720, Note_on_c, 0, 45, 72
2, 109426, Note_off_c, 0, 57, 64
2, 109426, Note_off_c, 0, 45, 64
2, 109440, Note_on_c, 0, 49, 72
2, 109440, Note_on_c, 0, 52, 72
2, 109440, Note_on_c, 0, 57, 72
2, 109440, Note_on_c, 0, 76, 72
2, 109558, Note_off_c, 0, 76, 64
2, 109558, Note_off_c, 0, 57, 64
2, 109558, Note_off_c, 0, 52, 64
2, 109558, Note_off_c, 0, 49, 64
2, 109560, Note_on_c, 0, 73, 72
2, 109678, Note_off_c, 0, 73, 64
2, 109680, Note_on_c, 0, 52, 72
2, 109680, Note_on_c, 0, 57, 72
2, 109680, Note_on_c, 0, 49, 72
2, 109680, Note_on_c, 0, 69, 72
2, 109798, Note_off_c, 0, 69, 64
2, 109798, Note_off_c, 0, 49, 64
2, 109798, Note_off_c, 0, 57, 64
2, 109798, Note_off_c, 0, 52, 64
2, 110160, Note_on_c, 0, 50, 72
2, 110160, Note_on_c, 0, 54, 72
2, 110160, Note_on_c, 0, 59, 72
2, 110160, Note_on_c, 0, 78, 72
2, 110278, Note_off_c, 0, 78, 64
2, 110278, Note_off_c, 0, 59, 64
2, 110278, Note_off_c, 0, 54, 64
2, 110278, Note_off_c, 0, 50, 64
2, 110280, Note_on_c, 0, 74, 72
2, 110398, Note_off_c, 0, 74, 64
2, 110400, Note_on_c, 0, 54, 72
2, 110400, Note_on_c, 0, 59, 72
2, 110400, Note_on_c, 0, 50, 72
2, 110400, Note_on_c, 0, 71, 72
2, 110518, Note_off_c, 0, 71, 64
2, 110518, Note_off_c, 0, 50, 64
2, 110518, Note_off_c, 0, 59, 64
2, 110518, Note_off_c, 0, 54, 64
2, 110880, Note_on_c, 0, 52, 72
2, 110880, Note_on_c, 0, 59, 72
2, 110880, Note_on_c, 0, 62, 72
2, 110880, Note_on_c, 0, 74, 72
2, 110998, Note_off_c, 0, 74, 64
2, 110998, Note_off_c, 0, 62, 64
2, 110998, Note_off_c, 0, 59, 64
2, 110998, Note_off_c, 0, 52, 64
2, 111000, Note_on_c, 0, 71, 72
2, 111118, Note_off_c, 0, 71, 64
2, 111120, Note_on_c, 0, 59, 72
2, 111120, Note_on_c, 0, 62, 72
2, 111120, Note_on_c, 0, 52, 72
2, 111120, Note_on_c, 0, 68, 72
2, 111238, Note_off_c, 0, 68, 64
2, 111238, Note_off_c, 0, 52, 64
2, 111238, Note_off_c, 0, 62, 64
2, 111238, Note_off_c, 0, 59, 64
2, 111600, Note_on_c, 0, 57, 72
2, 111600, Note_on_c, 0, 61, 72
2, 111600, Note_on_c, 0, 69, 72
2, 111718, Note_off_c, 0, 69, 64
2, 111718, Note_off_c, 0, 61, 64
2, 111718, Note_off_c, 0, 57, 64
2, 111840, Note_on_c, 0, 69, 72
2, 111840, Note_on_c, 0, 61, 72
2, 111840, Note_on_c, 0, 57, 72
2, 111958, Note_off_c, 0, 57, 64
2, 111958, Note_off_c, 0, 61, 64
2, 111958, Note_off_c, 0, 69, 64
2, 112320, Note_on_c, 0, 74, 105
2, 112320, Note_on_c, 0, 78, 105
2, 113026, Note_off_c, 0, 78, 64
2, 113026, Note_off_c, 0, 74, 64
2, 113040, Note_on_c, 0, 66, 105
2, 113040, Note_on_c, 0, 62, 105
2, 113746, Note_off_c, 0, 62, 64
2, 113746, Note_off_c, 0, 66, 64
2, 113760, Note_on_c, 0, 54, 105
2, 113760, Note_on_c, 0, 50, 105
2, 114466, Note_off_c, 0, 50, 64
2, 114466, Note_off_c, 0, 54, 64
2, 114480, Note_on_c, 0, 42, 105
2, 114480, Note_on_c, 0, 38, 105
2, 115186, Note_off_c, 0, 38, 64
2, 115186, Note_off_c, 0, 42, 64
2, 115200, Note_on_c, 0, 50, 81
2, 115200, Note_on_c, 0, 54, 81
2, 115200, Note_on_c, 0, 69, 81
2, 115200, Note_on_c, 0, 57, 81
2, 115318, Note_off_c, 0, 57, 64
2, 115318, Note_off_c, 0, 69, 64
2, 115318, Note_off_c, 0, 54, 64
2, 115318, Note_off_c, 0, 50, 64
2, 115320, Note_on_c, 0, 66, 81
2, 115438, Note_off_c, 0, 66, 64
2, 115440, Note_on_c, 0, 54, 81
2, 115440, Note_on_c, 0, 50, 81
2, 115440, Note_on_c, 0, 62, 81
2, 115440, Note_on_c, 0, 57, 81
2, 115558, Note_off_c, 0, 57, 64
2, 115558, Note_off_c, 0, 62, 64
2, 115558, Note_off_c, 0, 50, 64
2, 115558, Note_off_c, 0, 54, 64
2, 115920, Note_on_c, 0, 59, 81
2, 115920, Note_on_c, 0, 71, 81
2, 115920, Note_on_c, 0, 52, 81
2, 115920, Note_on_c, 0, 43, 81
2, 116038, Note_off_c, 0, 43, 64
2, 116038, Note_off_c, 0, 52, 64
2, 116038, Note_off_c, 0, 71, 64
2, 116038, Note_off_c, 0, 59, 64
2, 116040, Note_on_c, 0, 67, 81
2, 116158, Note_off_c, 0, 67, 64
2, 116160, Note_on_c, 0, 52, 81
2, 116160, Note_on_c, 0, 43, 81
2, 116160, Note_on_c, 0, 59, 81
2, 116160, Note_on_c, 0, 64, 81
2, 116278, Note_off_c, 0, 64, 64
2, 116278, Note_off_c, 0, 59, 64
2, 116278, Note_off_c, 0, 43, 64
2, 116278, Note_off_c, 0, 52, 64
2, 116640, Note_on_c, 0, 45, 81
2, 116640, Note_on_c, 0, 52, 81
2, 116640, Note_on_c, 0, 55, 81
2, 116640, Note_on_c, 0, 67, 81
2, 116758, Note_off_c, 0, 67, 64
2, 116758, Note_off_c, 0, 55, 64
2, 116758, Note_off_c, 0, 52, 64
2, 116758, Note_off_c, 0, 45, 64
2, 116760, Note_on_c, 0, 64, 81
2, 116878, Note_off_c, 0, 64, 64
2, 116880, Note_on_c, 0, 52, 81
2, 116880, Note_on_c, 0, 45, 81
2, 116880, Note_on_c, 0, 55, 81
2, 116880, Note_on_c, 0, 61, 81
2, 116998, Note_off_c, 0, 61, 64
2, 116998, Note_off_c, 0, 55, 64
2, 116998, Note_off_c, 0, 45, 64
2, 116998, Note_off_c, 0, 52, 64
2, 117360, Note_on_c, 0, 38, 81
2, 117360, Note_on_c, 0, 50, 81
2, 117360, Note_on_c, 0, 54, 81
2, 117360, Note_on_c, 0, 62, 81
2, 117478, Note_off_c, 0, 62, 64
2, 117478, Note_off_c, 0, 54, 64
2, 117478, Note_off_c, 0, 50, 64
2, 117478, Note_off_c, 0, 38, 64
2, 117600, Note_on_c, 0, 50, 81
2, 117600, Note_on_c, 0, 38, 81
2, 117600, Note_on_c, 0, 54, 81
2, 117600, Note_on_c, 0, 62, 81
2, 117718, Note_off_c, 0, 62, 64
2, 117718, Note_off_c, 0, 54, 64
2, 117718, Note_off_c, 0, 38, 64
2, 117718, Note_off_c, 0, 50, 64
2, 118080, Note_on_c, 0, 73, 105
2, 118080, Note_on_c, 0, 81, 105
2, 118786, Note_off_c, 0, 81, 64
2, 118786, Note_off_c, 0, 73, 64
2, 118800, Note_on_c, 0, 61, 105
2, 118800, Note_on_c, 0, 69, 105
2, 119506, Note_off_c, 0, 69, 64
2, 119506, Note_off_c, 0, 61, 64
2, 119520, Note_on_c, 0, 49, 105
2, 119520, Note_on_c, 0, 57, 105
2, 120226, Note_off_c, 0, 57, 64
2, 120226, Note_off_c, 0, 49, 64
2, 120240, Note_on_c, 0, 37, 105
2, 120240, Note_on_c, 0, 45, 105
2, 120946, Note_off_c, 0, 45, 64
2, 120946, Note_off_c, 0, 37, 64
2, 120960, Note_on_c, 0, 49, 81
2, 120960, Note_on_c, 0, 52, 81
2, 120960, Note_on_c, 0, 57, 81
2, 120960, Note_on_c, 0, 64, 81
2, 120960, Note_on_c, 0, 76, 81
2, 121078, Note_off_c, 0, 76, 64
2, 121078, Note_off_c, 0, 64, 64
2, 121078, Note_off_c, 0, 57, 64
2, 121078, Note_off_c, 0, 52, 64
2, 121078, Note_off_c, 0, 49, 64
2, 121080, Note_on_c, 0, 73, 81
2, 121198, Note_off_c, 0, 73, 64
2, 121200, Note_on_c, 0, 52, 81
2, 121200, Note_on_c, 0, 57, 81
2, 121200, Note_on_c, 0, 49, 81
2, 121200, Note_on_c, 0, 64, 81
2, 121200, Note_on_c, 0, 69, 81
2, 121318, Note_off_c, 0, 69, 64
2, 121318, Note_off_c, 0, 64, 64
2, 121318, Note_off_c, 0, 49, 64
2, 121318, Note_off_c, 0, 57, 64
2, 121318, Note_off_c, 0, 52, 64
2, 121680, Note_on_c, 0, 50, 81
2, 121680, Note_on_c, 0, 54, 81
2, 121680, Note_on_c, 0, 59, 81
2, 121680, Note_on_c, 0, 66, 81
2, 121680, Note_on_c, 0, 78, 81
2, 121798, Note_off_c, 0, 78, 64
2, 121798, Note_off_c, 0, 66, 64
2, 121798, Note_off_c, 0, 59, 64
2, 121798, Note_off_c, 0, 54, 64
2, 121798, Note_off_c, 0, 50, 64
2, 121800, Note_on_c, 0, 74, 81
2, 121918, Note_off_c, 0, 74, 64
2, 121920, Note_on_c, 0, 54, 81
2, 121920, Note_on_c, 0, 59, 81
2, 121920, Note_on_c, 0, 50, 81
2, 121920, Note_on_c, 0, 66, 81
2, 121920, Note_on_c, 0, 71, 81
2, 122038, Note_off_c, 0, 71, 64
2, 122038, Note_off_c, 0, 66, 64
2, 122038, Note_off_c, 0, 50, 64
2, 122038, Note_off_c, 0, 59, 64
2, 122038, Note_off_c, 0, 54, 64
2, 122400, Note_on_c, 0, 52, 81
2, 122400, Note_on_c, 0, 59, 81
2, 122400, Note_on_c, 0, 62, 81
2, 122400, Note_on_c, 0, 74, 81
2, 122518, Note_off_c, 0, 74, 64
2, 122518, Note_off_c, 0, 62, 64
2, 122518, Note_off_c, 0, 59, 64
2, 122518, Note_off_c, 0, 52, 64
2, 122520, Note_on_c, 0, 71, 81
2, 122638, Note_off_c, 0, 71, 64
2, 122640, Note_on_c, 0, 59, 81
2, 122640, Note_on_c, 0, 52, 81
2, 122640, Note_on_c, 0, 62, 81
2, 122640, Note_on_c, 0, 68, 81
2, 122758, Note_off_c, 0, 68, 64
2, 122758, Note_off_c, 0, 62, 64
2, 122758, Note_off_c, 0, 52, 64
2, 122758, Note_off_c, 0, 59, 64
2, 123120, Note_on_c, 0, 45, 81
2, 123120, Note_on_c, 0, 69, 81
2, 123120, Note_on_c, 0, 61, 81
2, 123120, Note_on_c, 0, 57, 81
2, 123238, Note_off_c, 0, 57, 64
2, 123238, Note_off_c, 0, 61, 64
2, 123238, Note_off_c, 0, 69, 64
2, 123238, Note_off_c, 0, 45, 64
2, 123360, Note_on_c, 0, 45, 81
2, 123360, Note_on_c, 0, 57, 81
2, 123360, Note_on_c, 0, 61, 81
2, 123360, Note_on_c, 0, 69, 81
2, 123478, Note_off_c, 0, 69, 64
2, 123478, Note_off_c, 0, 61, 64
2, 123478, Note_off_c, 0, 57, 64
2, 123478, Note_off_c, 0, 45, 64
2, 123840, Control_c, 0, 64, 127
2, 123840, Note_on_c, 0, 66, 58
2, 124080, Note_on_c, 0, 74, 58
2, 124080, Note_on_c, 0, 72, 58
2, 124080, Note_on_c, 0, 69, 58
2, 124315, Note_off_c, 0, 69, 64
2, 124315, Note_off_c, 0, 72, 64
2, 124315, Note_off_c, 0, 74, 64
2, 124320, Note_on_c, 0, 72, 58
2, 124320, Note_on_c, 0, 74, 58
2, 124320, Note_on_c, 0, 69, 58
2, 124546, Note_off_c, 0, 66, 64
2, 124555, Note_off_c, 0, 69, 64
2, 124555, Note_off_c, 0, 74, 64
2, 124555, Note_off_c, 0, 72, 64
2, 124560, Note_on_c, 0, 54, 58
2, 124800, Note_on_c, 0, 74, 58
2, 124800, Note_on_c, 0, 72, 58
2, 124800, Note_on_c, 0, 69, 58
2, 125035, Note_off_c, 0, 69, 64
2, 125035, Note_off_c, 0, 72, 64
2, 125035, Note_off_c, 0, 74, 64
2, 125040, Note_on_c, 0, 72, 58
2, 125040, Note_on_c, 0, 74, 58
2, 125040, Note_on_c, 0, 69, 58
2, 125266, Note_off_c, 0, 54, 64
2, 125275, Note_off_c, 0, 69, 64
2, 125275, Note_off_c, 0, 74, 64
2, 125275, Note_off_c, 0, 72, 64
2, 125280, Control_c, 0, 64, 0
2, 125280, Note_on_c, 0, 42, 58
2, 125520, Note_on_c, 0, 74, 58
2, 125520, Note_on_c, 0, 70, 58
2, 125638, Note_off_c, 0, 70, 64
2, 125638, Note_off_c, 0, 74, 64
2, 125760, Note_on_c, 0, 70, 58
2, 125760, Note_on_c, 0, 74, 58
2, 125878, Note_off_c, 0, 74, 64
2, 125878, Note_off_c, 0, 70, 64
2, 125986, Note_off_c, 0, 42, 64
2, 126000, Note_on_c, 0, 43, 58
2, 126240, Note_on_c, 0, 71, 58
2, 126240, Note_on_c, 0, 74, 58
2, 126358, Note_off_c, 0, 74, 64
2, 126358, Note_off_c, 0, 71, 64
2, 126480, Note_on_c, 0, 71, 58
2, 126480, Note_on_c, 0, 74, 58
2, 126598, Note_off_c, 0, 74, 64
2, 126598, Note_off_c, 0, 71, 64
2, 126706, Note_off_c, 0, 43, 64
2, 126720, Control_c, 0, 64, 127
2, 126720, Note_on_c, 0, 68, 58
2, 126960, Note_on_c, 0, 76, 58
2, 126960, Note_on_c, 0, 74, 58
2, 126960, Note_on_c, 0, 71, 58
2, 127195, Note_off_c, 0, 71, 64
2, 127195, Note_off_c, 0, 74, 64
2, 127195, Note_off_c, 0, 76, 64
2, 127200, Note_on_c, 0, 74, 58
2, 127200, Note_on_c, 0, 76, 58
2, 127200, Note_on_c, 0, 71, 58
2, 127426, Note_off_c, 0, 68, 64
2, 127435, Note_off_c, 0, 71, 64
2, 127435, Note_off_c, 0, 76, 64
2, 127435, Note_off_c, 0, 74, 64
2, 127440, Note_on_c, 0, 56, 58
2, 127680, Note_on_c, 0, 76, 58
2, 127680, Note_on_c, 0, 74, 58
2, 127680, Note_on_c, 0, 71, 58
2, 127915, Note_off_c, 0, 71, 64
2, 127915, Note_off_c, 0, 74, 64
2, 127915, Note_off_c, 0, 76, 64
2, 127920, Note_on_c, 0, 74, 58
2, 127920, Note_on_c, 0, 76, 58
2, 127920, Note_on_c, 0, 71, 58
2, 128146, Note_off_c, 0, 56, 64
2, 128155, Note_off_c, 0, 71, 64
2, 128155, Note_off_c, 0, 76, 64
2, 128155, Note_off_c, 0, 74, 64
2, 128160, Control_c, 0, 64, 0
2, 128160, Note_on_c, 0, 44, 58
2, 128400, Note_on_c, 0, 76, 61
2, 128400, Note_on_c, 0, 72, 61
2, 128518, Note_off_c, 0, 72, 64
2, 128518, Note_off_c, 0, 76, 64
2, 128640, Note_on_c, 0, 72, 64
2, 128640, Note_on_c, 0, 76, 64
2, 128758, Note_off_c, 0, 76, 64
2, 128758, Note_off_c, 0, 72, 64
2, 128866, Note_off_c, 0, 44, 64
2, 128880, Note_on_c, 0, 45, 67
2, 129120, Note_on_c, 0, 73, 71
2, 129120, Note_on_c, 0, 76, 71
2, 129238, Note_off_c, 0, 76, 64
2, 129238, Note_off_c, 0, 73, 64
2, 129360, Note_on_c, 0, 73, 74
2, 129360, Note_on_c, 0, 76, 74
2, 129478, Note_off_c, 0, 76, 64
2, 129478, Note_off_c, 0, 73, 64
2, 129586, Note_off_c, 0, 45, 64
2, 129600, Control_c, 0, 64, 127
2, 129600, Note_on_c, 0, 70, 77
2, 129840, Note_on_c, 0, 73, 80
2, 129840, Note_on_c, 0, 76, 80
2, 129840, Note_on_c, 0, 78, 80
2, 130075, Note_off_c, 0, 78, 64
2, 130075, Note_off_c, 0, 76, 64
2, 130075, Note_off_c, 0, 73, 64
2, 130080, Note_on_c, 0, 78, 84
2, 130080, Note_on_c, 0, 76, 84
2, 130080, Note_on_c, 0, 73, 84
2, 130306, Note_off_c, 0, 70, 64
2, 130315, Note_off_c, 0, 73, 64
2, 130315, Note_off_c, 0, 76, 64
2, 130315, Note_off_c, 0, 78, 64
2, 130320, Note_on_c, 0, 58, 87
2, 130560, Note_on_c, 0, 76, 90
2, 130560, Note_on_c, 0, 78, 90
2, 130560, Note_on_c, 0, 73, 90
2, 130795, Note_off_c, 0, 73, 64
2, 130795, Note_off_c, 0, 78, 64
2, 130795, Note_off_c, 0, 76, 64
2, 130800, Note_on_c, 0, 76, 94
2, 130800, Note_on_c, 0, 73, 94
2, 130800, Note_on_c, 0, 78, 94
2, 131026, Note_off_c, 0, 58, 64
2, 131035, Note_off_c, 0, 78, 64
2, 131035, Note_off_c, 0, 73, 64
2, 131035, Note_off_c, 0, 76, 64
2, 131040, Note_on_c, 0, 46, 96
2, 131280, Control_c, 0, 64, 0
2, 131280, Note_on_c, 0, 73, 96
2, 131280, Note_on_c, 0, 78, 96
2, 131515, Note_off_c, 0, 78, 64
2, 131515, Note_off_c, 0, 73, 64
2, 131520, Note_on_c, 0, 73, 104
2, 131520, Note_on_c, 0, 78, 104
2, 131746, Note_off_c, 0, 46, 64
2, 131755, Note_off_c, 0, 78, 64
2, 131755, Note_off_c, 0, 73, 64
2, 131760, Note_on_c, 0, 47, 112
2, 132000, Note_on_c, 0, 78, 121
2, 132000, Note_on_c, 0, 74, 121
2, 132235, Note_off_c, 0, 74, 64
2, 132235, Note_off_c, 0, 78, 64
2, 132240, Note_on_c, 0, 74, 124
2, 132240, Note_on_c, 0, 78, 124
2, 132466, Note_off_c, 0, 47, 64
2, 132475, Note_off_c, 0, 78, 64
2, 132475, Note_off_c, 0, 74, 64
2, 132480, Note_on_c, 0, 59, 126
2, 132720, Note_on_c, 0, 74, 120
2, 132720, Note_on_c, 0, 79, 120
2, 132955, Note_off_c, 0, 79, 64
2, 132955, Note_off_c, 0, 74, 64
2, 132960, Note_on_c, 0, 74, 113
2, 132960, Note_on_c, 0, 79, 113
2, 133186, Note_off_c, 0, 59, 64
2, 133195, Note_off_c, 0, 79, 64
2, 133195, Note_off_c, 0, 74, 64
2, 133200, Note_on_c, 0, 60, 106
2, 133440, Note_on_c, 0, 75, 99
2, 133440, Note_on_c, 0, 79, 99
2, 133558, Note_off_c, 0, 79, 64
2, 133558, Note_off_c, 0, 75, 64
2, 133680, Note_on_c, 0, 79, 93
2, 133680, Note_on_c, 0, 75, 93
2, 133798, Note_off_c, 0, 75, 64
2, 133798, Note_off_c, 0, 79, 64
2, 133906, Note_off_c, 0, 60, 64
2, 133920, Note_on_c, 0, 61, 72
2, 134160, Note_on_c, 0, 69, 72
2, 134160, Note_on_c, 0, 76, 72
2, 134160, Note_on_c, 0, 79, 72
2, 135346, Note_off_c, 0, 69, 64
2, 135346, Note_off_c, 0, 76, 64
2, 135346, Note_off_c, 0, 79, 64
2, 135346, Note_off_c, 0, 61, 64
2, 135360, Note_on_c, 0, 74, 72
2, 135360, Note_on_c, 0, 78, 72
2, 136066, Note_off_c, 0, 78, 64
2, 136066, Note_off_c, 0, 74, 64
2, 136080, Note_on_c, 0, 66, 72
2, 136080, Note_on_c, 0, 62, 72
2, 136786, Note_off_c, 0, 62, 64
2, 136786, Note_off_c, 0, 66, 64
2, 136800, Note_on_c, 0, 50, 72
2, 136800, Note_on_c, 0, 54, 72
2, 137506, Note_off_c, 0, 54, 64
2, 137506, Note_off_c, 0, 50, 64
2, 137520, Note_on_c, 0, 42, 72
2, 137520, Note_on_c, 0, 38, 72
2, 138226, Note_off_c, 0, 38, 64
2, 138226, Note_off_c, 0, 42, 64
2, 138240, Note_on_c, 0, 50, 72
2, 138240, Note_on_c, 0, 54, 72
2, 138240, Note_on_c, 0, 69, 72
2, 138358, Note_off_c, 0, 69, 64
2, 138358, Note_off_c, 0, 54, 64
2, 138358, Note_off_c, 0, 50, 64
2, 138360, Note_on_c, 0, 66, 72
2, 138478, Note_off_c, 0, 66, 64
2, 138480, Note_on_c, 0, 54, 72
2, 138480, Note_on_c, 0, 50, 72
2, 138480, Note_on_c, 0, 62, 72
2, 138598, Note_off_c, 0, 62, 64
2, 138598, Note_off_c, 0, 50, 64
2, 138598, Note_off_c, 0, 54, 64
2, 138960, Note_on_c, 0, 43, 72
2, 138960, Note_on_c, 0, 47, 72
2, 138960, Note_on_c, 0, 52, 72
2, 138960, Note_on_c, 0, 71, 72
2, 139078, Note_off_c, 0, 71, 64
2, 139078, Note_off_c, 0, 52, 64
2, 139078, Note_off_c, 0, 47, 64
2, 139078, Note_off_c, 0, 43, 64
2, 139080, Note_on_c, 0, 67, 72
2, 139198, Note_off_c, 0, 67, 64
2, 139200, Note_on_c, 0, 47, 72
2, 139200, Note_on_c, 0, 52, 72
2, 139200, Note_on_c, 0, 43, 72
2, 139200, Note_on_c, 0, 64, 72
2, 139318, Note_off_c, 0, 64, 64
2, 139318, Note_off_c, 0, 43, 64
2, 139318, Note_off_c, 0, 52, 64
2, 139318, Note_off_c, 0, 47, 64
2, 139680, Note_on_c, 0, 45, 72
2, 139680, Note_on_c, 0, 52, 72
2, 139680, Note_on_c, 0, 55, 72
2, 139680, Note_on_c, 0, 67, 72
2, 139798, Note_off_c, 0, 67, 64
2, 139798, Note_off_c, 0, 55, 64
2, 139798, Note_off_c, 0, 52, 64
2, 139798, Note_off_c, 0, 45, 64
2, 139800, Note_on_c, 0, 64, 72
2, 139918, Note_off_c, 0, 64, 64
2, 139920, Note_on_c, 0, 52, 72
2, 139920, Note_on_c, 0, 55, 72
2, 139920, Note_on_c, 0, 45, 72
2, 139920, Note_on_c, 0, 61, 72
2, 140038, Note_off_c, 0, 61, 64
2, 140038, Note_off_c, 0, 45, 64
2, 140038, Note_off_c, 0, 55, 64
2, 140038, Note_off_c, 0, 52, 64
2, 140400, Note_on_c, 0, 50, 72
2, 140400, Note_on_c, 0, 54, 72
2, 140400, Note_on_c, 0, 62, 72
2, 140518, Note_off_c, 0, 62, 64
2, 140518, Note_off_c, 0, 54, 64
2, 140518, Note_off_c, 0, 50, 64
2, 140640, Note_on_c, 0, 50, 72
2, 140640, Note_on_c, 0, 54, 72
2, 140640, Note_on_c, 0, 62, 72
2, 140758, Note_off_c, 0, 62, 64
2, 140758, Note_off_c, 0, 54, 64
2, 140758, Note_off_c, 0, 50, 64
2, 141120, Control_c, 0, 64, 127
2, 141120, Note_on_c, 0, 86, 120
2, 141120, Note_on_c, 0, 81, 120
2, 141120, Note_on_c, 0, 78, 120
2, 141826, Note_off_c, 0, 78, 64
2, 141826, Note_off_c, 0, 81, 64
2, 141826, Note_off_c, 0, 86, 64
2, 141840, Note_on_c, 0, 54, 116
2, 141840, Note_on_c, 0, 57, 116
2, 141840, Note_on_c, 0, 62, 116
2, 141840, Note_on_c, 0, 66, 116
2, 141840, Note_on_c, 0, 69, 116
2, 141840, Note_on_c, 0, 74, 116
2, 142546, Note_off_c, 0, 74, 64
2, 142546, Note_off_c, 0, 69, 64
2, 142546, Note_off_c, 0, 66, 64
2, 142546, Note_off_c, 0, 62, 64
2, 142546, Note_off_c, 0, 57, 64
2, 142546, Note_off_c, 0, 54, 64
2, 142560, Note_on_c, 0, 42, 116
2, 142560, Note_on_c, 0, 45, 116
2, 142560, Note_on_c, 0, 50, 116
2, 143266, Note_off_c, 0, 50, 64
2, 143266, Note_off_c, 0, 45, 64
2, 143266, Note_off_c, 0, 42, 64
2, 143280, Note_on_c, 0, 30, 116
2, 143280, Note_on_c, 0, 33, 116
2, 143280, Note_on_c, 0, 38, 116
2, 143986, Note_off_c, 0, 38, 64
2, 143986, Note_off_c, 0, 33, 64
2, 143986, Note_off_c, 0, 30, 64
2, 144000, Control_c, 0, 64, 0
2, 144000, Note_on_c, 0, 57, 72
2, 144000, Note_on_c, 0, 63, 72
2, 144000, Note_on_c, 0, 54, 72
2, 144000, Note_on_c, 0, 81, 72
2, 144000, Note_on_c, 0, 60, 72
2, 144118, Note_off_c, 0, 60, 64
2, 144118, Note_off_c, 0, 81, 64
2, 144118, Note_off_c, 0, 54, 64
2, 144118, Note_off_c, 0, 63, 64
2, 144118, Note_off_c, 0, 57, 64
2, 144120, Note_on_c, 0, 78, 72
2, 144238, Note_off_c, 0, 78, 64
2, 144240, Note_on_c, 0, 57, 72
2, 144240, Note_on_c, 0, 60, 72
2, 144240, Note_on_c, 0, 63, 72
2, 144240, Note_on_c, 0, 54, 72
2, 144240, Note_on_c, 0, 75, 72
2, 144358, Note_off_c, 0, 75, 64
2, 144358, Note_off_c, 0, 54, 64
2, 144358, Note_off_c, 0, 63, 64
2, 144358, Note_off_c, 0, 60, 64
2, 144358, Note_off_c, 0, 57, 64
2, 144720, Note_on_c, 0, 83, 72
2, 144720, Note_on_c, 0, 64, 72
2, 144720, Note_on_c, 0, 59, 72
2, 144720, Note_on_c, 0, 55, 72
2, 144838, Note_off_c, 0, 55, 64
2, 144838, Note_off_c, 0, 59, 64
2, 144838, Note_off_c, 0, 64, 64
2, 144838, Note_off_c, 0, 83, 64
2, 144840, Note_on_c, 0, 79, 72
2, 144958, Note_off_c, 0, 79, 64
2, 144960, Note_on_c, 0, 76, 72
2, 144960, Note_on_c, 0, 64, 72
2, 144960, Note_on_c, 0, 59, 72
2, 144960, Note_on_c, 0, 55, 72
2, 145078, Note_off_c, 0, 55, 64
2, 145078, Note_off_c, 0, 59, 64
2, 145078, Note_off_c, 0, 64, 64
2, 145078, Note_off_c, 0, 76, 64
2, 145440, Note_on_c, 0, 64, 72
2, 145440, Note_on_c, 0, 67, 72
2, 145440, Note_on_c, 0, 57, 72
2, 145440, Note_on_c, 0, 81, 72
2, 145558, Note_off_c, 0, 81, 64
2, 145558, Note_off_c, 0, 57, 64
2, 145558, Note_off_c, 0, 67, 64
2, 145558, Note_off_c, 0, 64, 64
2, 145560, Note_on_c, 0, 76, 72
2, 145678, Note_off_c, 0, 76, 64
2, 145680, Note_on_c, 0, 67, 72
2, 145680, Note_on_c, 0, 57, 72
2, 145680, Note_on_c, 0, 64, 72
2, 145680, Note_on_c, 0, 73, 72
2, 145798, Note_off_c, 0, 73, 64
2, 145798, Note_off_c, 0, 64, 64
2, 145798, Note_off_c, 0, 57, 64
2, 145798, Note_off_c, 0, 67, 64
2, 146160, Note_on_c, 0, 74, 72
2, 146160, Note_on_c, 0, 66, 72
2, 146160, Note_on_c, 0, 62, 72
2, 146278, Note_off_c, 0, 62, 64
2, 146278, Note_off_c, 0, 66, 64
2, 146278, Note_off_c, 0, 74, 64
2, 146280, Note_on_c, 0, 69, 72
2, 146398, Note_off_c, 0, 69, 64
2, 146400, Note_on_c, 0, 62, 74
2, 146400, Note_on_c, 0, 66, 74
2, 146518, Note_off_c, 0, 66, 64
2, 146518, Note_off_c, 0, 62, 64
2, 146880, Note_on_c, 0, 52, 83
2, 146880, Note_on_c, 0, 55, 83
2, 146880, Note_on_c, 0, 45, 83
2, 146880, Note_on_c, 0, 69, 83
2, 146998, Note_off_c, 0, 69, 64
2, 146998, Note_off_c, 0, 45, 64
2, 146998, Note_off_c, 0, 55, 64
2, 146998, Note_off_c, 0, 52, 64
2, 147000, Note_on_c, 0, 64, 86
2, 147118, Note_off_c, 0, 64, 64
2, 147120, Note_on_c, 0, 55, 88
2, 147120, Note_on_c, 0, 45, 88
2, 147120, Note_on_c, 0, 52, 88
2, 147120, Note_on_c, 0, 61, 88
2, 147238, Note_off_c, 0, 61, 64
2, 147238, Note_off_c, 0, 52, 64
2, 147238, Note_off_c, 0, 45, 64
2, 147238, Note_off_c, 0, 55, 64
2, 147600, Note_on_c, 0, 62, 97
2, 147600, Note_on_c, 0, 54, 97
2, 147600, Note_on_c, 0, 50, 97
2, 147718, Note_off_c, 0, 50, 64
2, 147718, Note_off_c, 0, 54, 64
2, 147718, Note_off_c, 0, 62, 64
2, 147720, Note_on_c, 0, 57, 100
2, 147838, Note_off_c, 0, 57, 64
2, 147840, Note_on_c, 0, 50, 102
2, 147840, Note_on_c, 0, 54, 102
2, 147958, Note_off_c, 0, 54, 64
2, 147958, Note_off_c, 0, 50, 64
2, 148320, Note_on_c, 0, 57, 110
2, 148320, Note_on_c, 0, 43, 110
2, 148320, Note_on_c, 0, 33, 110
2, 148438, Note_off_c, 0, 33, 64
2, 148438, Note_off_c, 0, 43, 64
2, 148438, Note_off_c, 0, 57, 64
2, 148440, Note_on_c, 0, 52, 116
2, 148558, Note_off_c, 0, 52, 64
2, 148560, Note_on_c, 0, 49, 123
2, 148560, Note_on_c, 0, 43, 123
2, 148560, Note_on_c, 0, 33, 123
2, 148678, Note_off_c, 0, 33, 64
2, 148678, Note_off_c, 0, 43, 64
2, 148678, Note_off_c, 0, 49, 64
2, 149040, Note_on_c, 0, 38, 127
2, 149040, Note_on_c, 0, 42, 127
2, 149040, Note_on_c, 0, 50, 127
2, 149158, Note_off_c, 0, 50, 64
2, 149158, Note_off_c, 0, 42, 64
2, 149158, Note_off_c, 0, 38, 64
2, 149280, Note_on_c, 0, 38, 127
2, 149280, Note_on_c, 0, 42, 127
2, 149280, Note_on_c, 0, 50, 127
2, 149398, Note_off_c, 0, 50, 64
2, 149398, Note_off_c, 0, 42, 64
2, 149398, Note_off_c, 0, 38, 64
2, 149760, Note_on_c, 0, 50, 127
2, 149760, Note_on_c, 0, 38, 127
2, 149760, Note_on_c, 0, 74, 127
2, 149760, Note_on_c, 0, 86, 127
2, 149995, Note_off_c, 0, 86, 64
2, 149995, Note_off_c, 0, 74, 64
2, 149995, Note_off_c, 0, 38, 64
2, 149995, Note_off_c, 0, 50, 64
2, 149995, End_track
0, 0, End_of_file