0, 0, Header, 1, 4, 120
1, 0, Start_track
1, 0, Title_t, "Sonate in C WoO 51 (1791-1792)"
1, 0, Copyright_t, "Copyright \251 2000 di fiorellaearmando@panet.it"
1, 0, Text_t, "ARMANDO ORLANDI\012"
1, 0, Time_signature, 4, 2, 24, 8
1, 0, Key_signature, 0, "major"
1, 0, Tempo, 428571
1, 15360, Tempo, 428571
1, 87770, Tempo, 428571
1, 89206, Tempo, 1111111
1, 89280, Time_signature, 3, 2, 24, 8
1, 89280, Key_signature, -1, "major"
1, 89280, Tempo, 1111111
1, 95395, Tempo, 1111111
1, 101725, Tempo, 1090909
1, 101730, Tempo, 1090909
1, 101740, Tempo, 1111111
1, 101745, Tempo, 1132075
1, 101755, Tempo, 1153846
1, 101760, Tempo, 1176471
1, 101770, Tempo, 1200000
1, 101775, Tempo, 1224490
1, 101785, Tempo, 1250000
1, 101790, Tempo, 1276596
1, 101795, Tempo, 1304348
1, 101805, Tempo, 1333333
1, 101810, Tempo, 1363636
1, 101820, Tempo, 1395349
1, 101825, Tempo, 1428571
1, 101835, Tempo, 1463415
1, 101840, Tempo, 1500000
1, 101845, Tempo, 1538462
1, 101855, Tempo, 1578947
1, 101860, Tempo, 1621622
1, 101870, Tempo, 1666667
1, 101875, Tempo, 1714286
1, 101885, Tempo, 1764706
1, 101890, Tempo, 1818182
1, 101900, Tempo, 1875000
1, 101905, Tempo, 1935484
1, 101910, Tempo, 2000000
1, 101920, Tempo, 2068966
1, 101925, Tempo, 2142857
1, 101935, Tempo, 2222222
1, 101940, Tempo, 2307692
1, 101950, Tempo, 2400000
1, 101955, Tempo, 2500000
1, 101960, Tempo, 2608696
1, 101970, Tempo, 2727273
1, 101975, Tempo, 2857143
1, 101985, Tempo, 3000000
1, 101990, Tempo, 3157895
1, 102000, Tempo, 3333333
1, 102005, Tempo, 3529412
1, 102015, Tempo, 3750000
1, 102020, Tempo, 4000000
1, 102025, Tempo, 4285714
1, 102035, Tempo, 4615385
1, 102040, Tempo, 5000000
1, 102050, Tempo, 5454545
1, 102055, Tempo, 6000000
1, 102065, Tempo, 6666667
1, 102070, Tempo, 7500000
1, 102075, Tempo, 7500000
1, 102080, Tempo, 7500000
1, 102335, Tempo, 6666667
1, 184675, Tempo, 1111111
1, 184675, End_track
2, 0, Start_track
2, 0, Title_t, "PianoR"
2, 0, Program_c, 0, 0
2, 0, Control_c, 0, 7, 127
2, 0, Control_c, 0, 10, 44
2, 0, Control_c, 0, 93, 18
2, 0, Control_c, 0, 91, 13
2, 300, Note_on_c, 0, 79, 59
2, 360, Note_on_c, 0, 79, 0
2, 360, Note_on_c, 0, 81, 59
2, 375, Note_on_c, 0, 81, 0
2, 375, Note_on_c, 0, 79, 59
2, 390, Note_on_c, 0, 79, 0
2, 390, Note_on_c, 0, 81, 59
2, 405, Note_on_c, 0, 81, 0
2, 405, Note_on_c, 0, 79, 59
2, 420, Note_on_c, 0, 79, 0
2, 420, Note_on_c, 0, 81, 59
2, 435, Note_on_c, 0, 81, 0
2, 435, Note_on_c, 0, 79, 59
2, 450, Note_on_c, 0, 79, 0
2, 450, Note_on_c, 0, 78, 59
2, 465, Note_on_c, 0, 78, 0
2, 465, Note_on_c, 0, 79, 59
2, 480, Note_on_c, 0, 79, 0
2, 480, Note_on_c, 0, 84, 59
2, 480, Note_on_c, 0, 84, 59
2, 540, Note_on_c, 0, 84, 0
2, 540, Note_on_c, 0, 79, 59
2, 600, Note_on_c, 0, 79, 0
2, 600, Note_on_c, 0, 76, 59
2, 660, Note_on_c, 0, 76, 0
2, 660, Note_on_c, 0, 72, 59
2, 720, Note_on_c, 0, 72, 0
2, 720, Note_on_c, 0, 84, 0
2, 960, Note_on_c, 0, 79, 59
2, 1020, Note_on_c, 0, 79, 0
2, 1020, Note_on_c, 0, 76, 59
2, 1080, Note_on_c, 0, 76, 0
2, 1080, Note_on_c, 0, 72, 59
2, 1140, Note_on_c, 0, 72, 0
2, 1140, Note_on_c, 0, 67, 59
2, 1200, Note_on_c, 0, 67, 0
2, 1440, Note_on_c, 0, 76, 62
2, 1500, Note_on_c, 0, 76, 0
2, 1500, Note_on_c, 0, 72, 65
2, 1560, Note_on_c, 0, 72, 0
2, 1560, Note_on_c, 0, 67, 68
2, 1620, Note_on_c, 0, 67, 0
2, 1620, Note_on_c, 0, 64, 70
2, 1680, Note_on_c, 0, 64, 0
2, 1680, Note_on_c, 0, 76, 76
2, 1740, Note_on_c, 0, 76, 0
2, 1740, Note_on_c, 0, 72, 80
2, 1800, Note_on_c, 0, 72, 0
2, 1800, Note_on_c, 0, 67, 86
2, 1860, Note_on_c, 0, 67, 0
2, 1860, Note_on_c, 0, 64, 96
2, 1920, Note_on_c, 0, 64, 0
2, 1920, Note_on_c, 0, 67, 105
2, 1920, Note_on_c, 0, 72, 105
2, 1920, Note_on_c, 0, 77, 105
2, 2160, Note_on_c, 0, 71, 109
2, 2162, Note_on_c, 0, 72, 0
2, 2220, Note_on_c, 0, 71, 0
2, 2220, Note_on_c, 0, 77, 59
2, 2222, Note_on_c, 0, 77, 0
2, 2222, Note_on_c, 0, 67, 0
2, 2280, Note_on_c, 0, 77, 0
2, 2280, Note_on_c, 0, 79, 59
2, 2295, Note_on_c, 0, 79, 0
2, 2295, Note_on_c, 0, 77, 59
2, 2310, Note_on_c, 0, 77, 0
2, 2310, Note_on_c, 0, 79, 59
2, 2325, Note_on_c, 0, 79, 0
2, 2325, Note_on_c, 0, 77, 59
2, 2340, Note_on_c, 0, 77, 0
2, 2340, Note_on_c, 0, 79, 59
2, 2355, Note_on_c, 0, 79, 0
2, 2355, Note_on_c, 0, 77, 59
2, 2370, Note_on_c, 0, 77, 0
2, 2370, Note_on_c, 0, 76, 59
2, 2385, Note_on_c, 0, 76, 0
2, 2385, Note_on_c, 0, 77, 59
2, 2400, Note_on_c, 0, 77, 0
2, 2400, Note_on_c, 0, 81, 59
2, 2460, Note_on_c, 0, 81, 0
2, 2460, Note_on_c, 0, 77, 59
2, 2520, Note_on_c, 0, 77, 0
2, 2520, Note_on_c, 0, 74, 59
2, 2580, Note_on_c, 0, 74, 0
2, 2580, Note_on_c, 0, 71, 59
2, 2640, Note_on_c, 0, 71, 0
2, 2880, Note_on_c, 0, 77, 59
2, 2940, Note_on_c, 0, 77, 0
2, 2940, Note_on_c, 0, 74, 59
2, 3000, Note_on_c, 0, 74, 0
2, 3000, Note_on_c, 0, 71, 59
2, 3060, Note_on_c, 0, 71, 0
2, 3060, Note_on_c, 0, 67, 59
2, 3120, Note_on_c, 0, 67, 0
2, 3360, Note_on_c, 0, 74, 62
2, 3420, Note_on_c, 0, 74, 0
2, 3420, Note_on_c, 0, 71, 65
2, 3480, Note_on_c, 0, 71, 0
2, 3480, Note_on_c, 0, 67, 68
2, 3540, Note_on_c, 0, 67, 0
2, 3540, Note_on_c, 0, 65, 70
2, 3600, Note_on_c, 0, 65, 0
2, 3600, Note_on_c, 0, 74, 76
2, 3660, Note_on_c, 0, 74, 0
2, 3660, Note_on_c, 0, 71, 80
2, 3720, Note_on_c, 0, 71, 0
2, 3720, Note_on_c, 0, 67, 86
2, 3780, Note_on_c, 0, 67, 0
2, 3780, Note_on_c, 0, 65, 93
2, 3840, Note_on_c, 0, 65, 0
2, 3840, Note_on_c, 0, 74, 109
2, 3840, Note_on_c, 0, 67, 109
2, 3840, Note_on_c, 0, 71, 109
2, 3840, Note_on_c, 0, 77, 119
2, 4080, Note_on_c, 0, 72, 89
2, 4080, Note_on_c, 0, 76, 89
2, 4085, Note_on_c, 0, 77, 0
2, 4085, Note_on_c, 0, 71, 0
2, 4085, Note_on_c, 0, 74, 0
2, 4140, Note_on_c, 0, 76, 0
2, 4140, Note_on_c, 0, 72, 0
2, 4140, Note_on_c, 0, 79, 59
2, 4145, Note_on_c, 0, 67, 0
2, 4200, Note_on_c, 0, 79, 0
2, 4200, Note_on_c, 0, 81, 59
2, 4215, Note_on_c, 0, 81, 0
2, 4215, Note_on_c, 0, 79, 59
2, 4230, Note_on_c, 0, 79, 0
2, 4230, Note_on_c, 0, 81, 59
2, 4245, Note_on_c, 0, 81, 0
2, 4245, Note_on_c, 0, 79, 59
2, 4260, Note_on_c, 0, 79, 0
2, 4260, Note_on_c, 0, 81, 59
2, 4275, Note_on_c, 0, 81, 0
2, 4275, Note_on_c, 0, 79, 59
2, 4290, Note_on_c, 0, 79, 0
2, 4290, Note_on_c, 0, 78, 59
2, 4305, Note_on_c, 0, 78, 0
2, 4305, Note_on_c, 0, 79, 59
2, 4320, Note_on_c, 0, 79, 0
2, 4320, Note_on_c, 0, 84, 59
2, 4477, Note_on_c, 0, 84, 0
2, 4480, Note_on_c, 0, 79, 59
2, 4520, Note_on_c, 0, 79, 0
2, 4520, Note_on_c, 0, 83, 59
2, 4560, Note_on_c, 0, 83, 0
2, 4560, Note_on_c, 0, 84, 59
2, 4600, Note_on_c, 0, 84, 0
2, 4600, Note_on_c, 0, 83, 59
2, 4640, Note_on_c, 0, 83, 0
2, 4640, Note_on_c, 0, 81, 59
2, 4680, Note_on_c, 0, 81, 0
2, 4680, Note_on_c, 0, 79, 59
2, 4720, Note_on_c, 0, 79, 0
2, 4720, Note_on_c, 0, 77, 59
2, 4760, Note_on_c, 0, 77, 0
2, 4760, Note_on_c, 0, 76, 59
2, 4800, Note_on_c, 0, 76, 0
2, 4800, Note_on_c, 0, 81, 59
2, 4960, Note_on_c, 0, 80, 59
2, 4962, Note_on_c, 0, 81, 0
2, 5000, Note_on_c, 0, 80, 0
2, 5000, Note_on_c, 0, 83, 59
2, 5040, Note_on_c, 0, 83, 0
2, 5040, Note_on_c, 0, 81, 59
2, 5080, Note_on_c, 0, 81, 0
2, 5080, Note_on_c, 0, 79, 59
2, 5120, Note_on_c, 0, 79, 0
2, 5120, Note_on_c, 0, 77, 59
2, 5160, Note_on_c, 0, 77, 0
2, 5160, Note_on_c, 0, 76, 59
2, 5200, Note_on_c, 0, 76, 0
2, 5200, Note_on_c, 0, 77, 59
2, 5240, Note_on_c, 0, 77, 0
2, 5240, Note_on_c, 0, 74, 59
2, 5280, Note_on_c, 0, 74, 0
2, 5280, Note_on_c, 0, 72, 59
2, 5435, Note_on_c, 0, 72, 0
2, 5440, Note_on_c, 0, 76, 59
2, 5480, Note_on_c, 0, 76, 0
2, 5480, Note_on_c, 0, 72, 59
2, 5520, Note_on_c, 0, 72, 0
2, 5520, Note_on_c, 0, 71, 59
2, 5675, Note_on_c, 0, 71, 0
2, 5680, Note_on_c, 0, 74, 62
2, 5720, Note_on_c, 0, 74, 0
2, 5720, Note_on_c, 0, 79, 65
2, 5760, Note_on_c, 0, 79, 0
2, 5760, Note_on_c, 0, 77, 66
2, 5920, Note_on_c, 0, 77, 0
2, 5920, Note_on_c, 0, 76, 72
2, 5960, Note_on_c, 0, 76, 0
2, 5960, Note_on_c, 0, 77, 75
2, 6000, Note_on_c, 0, 77, 0
2, 6000, Note_on_c, 0, 78, 75
2, 6040, Note_on_c, 0, 78, 0
2, 6040, Note_on_c, 0, 79, 76
2, 6080, Note_on_c, 0, 79, 0
2, 6080, Note_on_c, 0, 80, 80
2, 6120, Note_on_c, 0, 80, 0
2, 6120, Note_on_c, 0, 81, 81
2, 6160, Note_on_c, 0, 81, 0
2, 6160, Note_on_c, 0, 82, 81
2, 6200, Note_on_c, 0, 82, 0
2, 6200, Note_on_c, 0, 83, 81
2, 6240, Note_on_c, 0, 83, 0
2, 6240, Note_on_c, 0, 84, 81
2, 6400, Note_on_c, 0, 84, 0
2, 6405, Note_on_c, 0, 79, 81
2, 6435, Note_on_c, 0, 83, 80
2, 6445, Note_on_c, 0, 79, 0
2, 6475, Note_on_c, 0, 83, 0
2, 6480, Note_on_c, 0, 84, 80
2, 6520, Note_on_c, 0, 84, 0
2, 6520, Note_on_c, 0, 83, 79
2, 6560, Note_on_c, 0, 83, 0
2, 6560, Note_on_c, 0, 81, 78
2, 6600, Note_on_c, 0, 81, 0
2, 6600, Note_on_c, 0, 79, 78
2, 6640, Note_on_c, 0, 79, 0
2, 6640, Note_on_c, 0, 77, 78
2, 6680, Note_on_c, 0, 77, 0
2, 6680, Note_on_c, 0, 76, 78
2, 6720, Note_on_c, 0, 76, 0
2, 6720, Note_on_c, 0, 81, 78
2, 6880, Note_on_c, 0, 81, 0
2, 6885, Note_on_c, 0, 80, 78
2, 6915, Note_on_c, 0, 83, 78
2, 6925, Note_on_c, 0, 80, 0
2, 6955, Note_on_c, 0, 83, 0
2, 6960, Note_on_c, 0, 81, 78
2, 7000, Note_on_c, 0, 81, 0
2, 7000, Note_on_c, 0, 79, 78
2, 7040, Note_on_c, 0, 79, 0
2, 7040, Note_on_c, 0, 77, 78
2, 7080, Note_on_c, 0, 77, 0
2, 7080, Note_on_c, 0, 76, 78
2, 7120, Note_on_c, 0, 76, 0
2, 7120, Note_on_c, 0, 77, 78
2, 7160, Note_on_c, 0, 77, 0
2, 7160, Note_on_c, 0, 74, 77
2, 7200, Note_on_c, 0, 74, 0
2, 7200, Note_on_c, 0, 79, 104
2, 7360, Note_on_c, 0, 79, 0
2, 7360, Note_on_c, 0, 76, 102
2, 7400, Note_on_c, 0, 76, 0
2, 7400, Note_on_c, 0, 72, 103
2, 7440, Note_on_c, 0, 72, 0
2, 7440, Note_on_c, 0, 77, 103
2, 7600, Note_on_c, 0, 77, 0
2, 7600, Note_on_c, 0, 74, 105
2, 7640, Note_on_c, 0, 74, 0
2, 7640, Note_on_c, 0, 71, 105
2, 7680, Note_on_c, 0, 71, 0
2, 7680, Note_on_c, 0, 72, 103
2, 7800, Note_on_c, 0, 72, 0
2, 7980, Note_on_c, 0, 72, 103
2, 8040, Note_on_c, 0, 72, 0
2, 8040, Note_on_c, 0, 74, 103
2, 8055, Note_on_c, 0, 74, 0
2, 8055, Note_on_c, 0, 72, 103
2, 8070, Note_on_c, 0, 72, 0
2, 8070, Note_on_c, 0, 74, 103
2, 8085, Note_on_c, 0, 74, 0
2, 8085, Note_on_c, 0, 72, 103
2, 8100, Note_on_c, 0, 72, 0
2, 8100, Note_on_c, 0, 74, 103
2, 8115, Note_on_c, 0, 74, 0
2, 8115, Note_on_c, 0, 72, 103
2, 8130, Note_on_c, 0, 72, 0
2, 8130, Note_on_c, 0, 71, 103
2, 8145, Note_on_c, 0, 71, 0
2, 8145, Note_on_c, 0, 72, 103
2, 8160, Note_on_c, 0, 72, 0
2, 8160, Note_on_c, 0, 78, 103
2, 8280, Note_on_c, 0, 78, 0
2, 8460, Note_on_c, 0, 72, 103
2, 8520, Note_on_c, 0, 72, 0
2, 8520, Note_on_c, 0, 74, 103
2, 8535, Note_on_c, 0, 74, 0
2, 8535, Note_on_c, 0, 72, 103
2, 8550, Note_on_c, 0, 72, 0
2, 8550, Note_on_c, 0, 74, 103
2, 8565, Note_on_c, 0, 74, 0
2, 8565, Note_on_c, 0, 72, 103
2, 8580, Note_on_c, 0, 72, 0
2, 8580, Note_on_c, 0, 74, 103
2, 8595, Note_on_c, 0, 74, 0
2, 8595, Note_on_c, 0, 72, 103
2, 8610, Note_on_c, 0, 72, 0
2, 8610, Note_on_c, 0, 71, 103
2, 8625, Note_on_c, 0, 71, 0
2, 8625, Note_on_c, 0, 72, 103
2, 8640, Note_on_c, 0, 72, 0
2, 8640, Note_on_c, 0, 84, 123
2, 8800, Note_on_c, 0, 84, 0
2, 8800, Note_on_c, 0, 83, 103
2, 8840, Note_on_c, 0, 83, 0
2, 8840, Note_on_c, 0, 81, 103
2, 8880, Note_on_c, 0, 81, 0
2, 8880, Note_on_c, 0, 79, 103
2, 8920, Note_on_c, 0, 79, 0
2, 8920, Note_on_c, 0, 78, 103
2, 8960, Note_on_c, 0, 78, 0
2, 8960, Note_on_c, 0, 76, 103
2, 9000, Note_on_c, 0, 76, 0
2, 9000, Note_on_c, 0, 74, 103
2, 9040, Note_on_c, 0, 74, 0
2, 9040, Note_on_c, 0, 76, 103
2, 9080, Note_on_c, 0, 76, 0
2, 9080, Note_on_c, 0, 72, 103
2, 9120, Note_on_c, 0, 72, 0
2, 9160, Note_on_c, 0, 71, 73
2, 9195, Note_on_c, 0, 74, 73
2, 9200, Note_on_c, 0, 71, 0
2, 9235, Note_on_c, 0, 74, 0
2, 9280, Note_on_c, 0, 79, 73
2, 9315, Note_on_c, 0, 74, 73
2, 9320, Note_on_c, 0, 79, 0
2, 9355, Note_on_c, 0, 74, 0
2, 9400, Note_on_c, 0, 79, 73
2, 9435, Note_on_c, 0, 74, 73
2, 9440, Note_on_c, 0, 79, 0
2, 9475, Note_on_c, 0, 74, 0
2, 9520, Note_on_c, 0, 83, 73
2, 9560, Note_on_c, 0, 83, 0
2, 9560, Note_on_c, 0, 74, 73
2, 9600, Note_on_c, 0, 74, 0
2, 9640, Note_on_c, 0, 84, 73
2, 9675, Note_on_c, 0, 74, 73
2, 9680, Note_on_c, 0, 84, 0
2, 9715, Note_on_c, 0, 74, 0
2, 9760, Note_on_c, 0, 81, 73
2, 9795, Note_on_c, 0, 74, 73
2, 9800, Note_on_c, 0, 81, 0
2, 9835, Note_on_c, 0, 74, 0
2, 9880, Note_on_c, 0, 78, 73
2, 9915, Note_on_c, 0, 74, 73
2, 9920, Note_on_c, 0, 78, 0
2, 9955, Note_on_c, 0, 74, 0
2, 10000, Note_on_c, 0, 81, 73
2, 10040, Note_on_c, 0, 81, 0
2, 10040, Note_on_c, 0, 74, 73
2, 10080, Note_on_c, 0, 74, 0
2, 10120, Note_on_c, 0, 79, 84
2, 10155, Note_on_c, 0, 74, 86
2, 10160, Note_on_c, 0, 79, 0
2, 10195, Note_on_c, 0, 74, 0
2, 10240, Note_on_c, 0, 83, 91
2, 10275, Note_on_c, 0, 74, 92
2, 10280, Note_on_c, 0, 83, 0
2, 10315, Note_on_c, 0, 74, 0
2, 10360, Note_on_c, 0, 81, 95
2, 10395, Note_on_c, 0, 74, 97
2, 10400, Note_on_c, 0, 81, 0
2, 10435, Note_on_c, 0, 74, 0
2, 10480, Note_on_c, 0, 83, 101
2, 10515, Note_on_c, 0, 74, 102
2, 10520, Note_on_c, 0, 83, 0
2, 10555, Note_on_c, 0, 74, 0
2, 10600, Note_on_c, 0, 84, 112
2, 10635, Note_on_c, 0, 74, 111
2, 10640, Note_on_c, 0, 84, 0
2, 10675, Note_on_c, 0, 74, 0
2, 10720, Note_on_c, 0, 81, 106
2, 10755, Note_on_c, 0, 74, 105
2, 10760, Note_on_c, 0, 81, 0
2, 10795, Note_on_c, 0, 74, 0
2, 10840, Note_on_c, 0, 78, 101
2, 10875, Note_on_c, 0, 74, 100
2, 10880, Note_on_c, 0, 78, 0
2, 10915, Note_on_c, 0, 74, 0
2, 10960, Note_on_c, 0, 81, 97
2, 11000, Note_on_c, 0, 81, 0
2, 11000, Note_on_c, 0, 74, 95
2, 11040, Note_on_c, 0, 74, 0
2, 11080, Note_on_c, 0, 79, 86
2, 11115, Note_on_c, 0, 74, 85
2, 11120, Note_on_c, 0, 79, 0
2, 11155, Note_on_c, 0, 74, 0
2, 11200, Note_on_c, 0, 80, 82
2, 11240, Note_on_c, 0, 80, 0
2, 11240, Note_on_c, 0, 74, 80
2, 11280, Note_on_c, 0, 74, 0
2, 11320, Note_on_c, 0, 83, 78
2, 11360, Note_on_c, 0, 83, 0
2, 11360, Note_on_c, 0, 76, 77
2, 11400, Note_on_c, 0, 76, 0
2, 11440, Note_on_c, 0, 81, 77
2, 11480, Note_on_c, 0, 81, 0
2, 11480, Note_on_c, 0, 76, 76
2, 11520, Note_on_c, 0, 76, 0
2, 11560, Note_on_c, 0, 84, 75
2, 11595, Note_on_c, 0, 78, 75
2, 11600, Note_on_c, 0, 84, 0
2, 11635, Note_on_c, 0, 78, 0
2, 11680, Note_on_c, 0, 83, 74
2, 11715, Note_on_c, 0, 78, 74
2, 11720, Note_on_c, 0, 83, 0
2, 11755, Note_on_c, 0, 78, 0
2, 11800, Note_on_c, 0, 84, 73
2, 11835, Note_on_c, 0, 78, 72
2, 11840, Note_on_c, 0, 84, 0
2, 11875, Note_on_c, 0, 78, 0
2, 11920, Note_on_c, 0, 83, 71
2, 11955, Note_on_c, 0, 78, 71
2, 11960, Note_on_c, 0, 83, 0
2, 11995, Note_on_c, 0, 78, 0
2, 12040, Note_on_c, 0, 79, 70
2, 12080, Note_on_c, 0, 79, 0
2, 12080, Note_on_c, 0, 83, 69
2, 12120, Note_on_c, 0, 83, 0
2, 12160, Note_on_c, 0, 78, 68
2, 12195, Note_on_c, 0, 83, 68
2, 12200, Note_on_c, 0, 78, 0
2, 12235, Note_on_c, 0, 83, 0
2, 12280, Note_on_c, 0, 79, 67
2, 12315, Note_on_c, 0, 83, 66
2, 12320, Note_on_c, 0, 79, 0
2, 12355, Note_on_c, 0, 83, 0
2, 12400, Note_on_c, 0, 78, 66
2, 12435, Note_on_c, 0, 83, 65
2, 12440, Note_on_c, 0, 78, 0
2, 12475, Note_on_c, 0, 83, 0
2, 12520, Note_on_c, 0, 79, 65
2, 12560, Note_on_c, 0, 79, 0
2, 12560, Note_on_c, 0, 83, 64
2, 12600, Note_on_c, 0, 83, 0
2, 12640, Note_on_c, 0, 76, 63
2, 12680, Note_on_c, 0, 76, 0
2, 12680, Note_on_c, 0, 81, 63
2, 12720, Note_on_c, 0, 81, 0
2, 12760, Note_on_c, 0, 71, 62
2, 12800, Note_on_c, 0, 71, 0
2, 12800, Note_on_c, 0, 79, 62
2, 12840, Note_on_c, 0, 79, 0
2, 12880, Note_on_c, 0, 69, 62
2, 12920, Note_on_c, 0, 69, 0
2, 12920, Note_on_c, 0, 78, 62
2, 12960, Note_on_c, 0, 78, 0
2, 13000, Note_on_c, 0, 71, 92
2, 13035, Note_on_c, 0, 79, 93
2, 13040, Note_on_c, 0, 71, 0
2, 13075, Note_on_c, 0, 79, 0
2, 13120, Note_on_c, 0, 71, 93
2, 13120, Note_on_c, 0, 78, 93
2, 13155, Note_on_c, 0, 83, 93
2, 13160, Note_on_c, 0, 78, 0
2, 13160, Note_on_c, 0, 71, 0
2, 13195, Note_on_c, 0, 83, 0
2, 13240, Note_on_c, 0, 71, 92
2, 13240, Note_on_c, 0, 79, 92
2, 13275, Note_on_c, 0, 83, 92
2, 13280, Note_on_c, 0, 79, 0
2, 13280, Note_on_c, 0, 71, 0
2, 13315, Note_on_c, 0, 83, 0
2, 13360, Note_on_c, 0, 71, 91
2, 13360, Note_on_c, 0, 78, 91
2, 13395, Note_on_c, 0, 83, 90
2, 13400, Note_on_c, 0, 78, 0
2, 13400, Note_on_c, 0, 71, 0
2, 13435, Note_on_c, 0, 83, 0
2, 13480, Note_on_c, 0, 71, 89
2, 13480, Note_on_c, 0, 79, 89
2, 13515, Note_on_c, 0, 83, 89
2, 13520, Note_on_c, 0, 79, 0
2, 13520, Note_on_c, 0, 71, 0
2, 13555, Note_on_c, 0, 83, 0
2, 13600, Note_on_c, 0, 76, 88
2, 13600, Note_on_c, 0, 81, 88
2, 13635, Note_on_c, 0, 84, 87
2, 13640, Note_on_c, 0, 81, 0
2, 13640, Note_on_c, 0, 76, 0
2, 13675, Note_on_c, 0, 84, 0
2, 13720, Note_on_c, 0, 74, 85
2, 13720, Note_on_c, 0, 79, 85
2, 13755, Note_on_c, 0, 83, 84
2, 13760, Note_on_c, 0, 79, 0
2, 13760, Note_on_c, 0, 74, 0
2, 13795, Note_on_c, 0, 83, 0
2, 13840, Note_on_c, 0, 72, 80
2, 13840, Note_on_c, 0, 78, 80
2, 13875, Note_on_c, 0, 81, 80
2, 13880, Note_on_c, 0, 78, 0
2, 13880, Note_on_c, 0, 72, 0
2, 13915, Note_on_c, 0, 81, 0
2, 13960, Note_on_c, 0, 71, 77
2, 14000, Note_on_c, 0, 71, 0
2, 14000, Note_on_c, 0, 79, 76
2, 14040, Note_on_c, 0, 79, 0
2, 14080, Note_on_c, 0, 71, 74
2, 14120, Note_on_c, 0, 71, 0
2, 14120, Note_on_c, 0, 77, 73
2, 14160, Note_on_c, 0, 77, 0
2, 14200, Note_on_c, 0, 72, 72
2, 14240, Note_on_c, 0, 72, 0
2, 14240, Note_on_c, 0, 76, 71
2, 14280, Note_on_c, 0, 76, 0
2, 14320, Note_on_c, 0, 72, 69
2, 14360, Note_on_c, 0, 72, 0
2, 14360, Note_on_c, 0, 78, 67
2, 14400, Note_on_c, 0, 78, 0
2, 14440, Note_on_c, 0, 71, 65
2, 14480, Note_on_c, 0, 71, 0
2, 14480, Note_on_c, 0, 79, 64
2, 14520, Note_on_c, 0, 79, 0
2, 14560, Note_on_c, 0, 71, 60
2, 14600, Note_on_c, 0, 71, 0
2, 14600, Note_on_c, 0, 77, 59
2, 14640, Note_on_c, 0, 77, 0
2, 14680, Note_on_c, 0, 72, 56
2, 14720, Note_on_c, 0, 72, 0
2, 14720, Note_on_c, 0, 76, 55
2, 14760, Note_on_c, 0, 76, 0
2, 14800, Note_on_c, 0, 72, 53
2, 14840, Note_on_c, 0, 72, 0
2, 14840, Note_on_c, 0, 78, 53
2, 14880, Note_on_c, 0, 78, 0
2, 14880, Note_on_c, 0, 79, 52
2, 14920, Note_on_c, 0, 79, 0
2, 14920, Note_on_c, 0, 74, 51
2, 14960, Note_on_c, 0, 74, 0
2, 14960, Note_on_c, 0, 71, 51
2, 15000, Note_on_c, 0, 71, 0
2, 15000, Note_on_c, 0, 67, 50
2, 15040, Note_on_c, 0, 67, 0
2, 15040, Note_on_c, 0, 62, 50
2, 15080, Note_on_c, 0, 62, 0
2, 15080, Note_on_c, 0, 59, 49
2, 15120, Note_on_c, 0, 59, 0
2, 15120, Note_on_c, 0, 67, 48
2, 15160, Note_on_c, 0, 67, 0
2, 15160, Note_on_c, 0, 62, 45
2, 15200, Note_on_c, 0, 62, 0
2, 15200, Note_on_c, 0, 59, 43
2, 15240, Note_on_c, 0, 59, 0
2, 15660, Note_on_c, 0, 79, 59
2, 15720, Note_on_c, 0, 79, 0
2, 15720, Note_on_c, 0, 81, 59
2, 15735, Note_on_c, 0, 81, 0
2, 15735, Note_on_c, 0, 79, 59
2, 15750, Note_on_c, 0, 79, 0
2, 15750, Note_on_c, 0, 81, 59
2, 15765, Note_on_c, 0, 81, 0
2, 15765, Note_on_c, 0, 79, 59
2, 15780, Note_on_c, 0, 79, 0
2, 15780, Note_on_c, 0, 81, 59
2, 15795, Note_on_c, 0, 81, 0
2, 15795, Note_on_c, 0, 79, 59
2, 15810, Note_on_c, 0, 79, 0
2, 15810, Note_on_c, 0, 78, 59
2, 15825, Note_on_c, 0, 78, 0
2, 15825, Note_on_c, 0, 79, 59
2, 15840, Note_on_c, 0, 79, 0
2, 15840, Note_on_c, 0, 84, 59
2, 15840, Note_on_c, 0, 84, 59
2, 15900, Note_on_c, 0, 84, 0
2, 15900, Note_on_c, 0, 79, 59
2, 15960, Note_on_c, 0, 79, 0
2, 15960, Note_on_c, 0, 76, 59
2, 16020, Note_on_c, 0, 76, 0
2, 16020, Note_on_c, 0, 72, 59
2, 16080, Note_on_c, 0, 72, 0
2, 16080, Note_on_c, 0, 84, 0
2, 16320, Note_on_c, 0, 79, 59
2, 16380, Note_on_c, 0, 79, 0
2, 16380, Note_on_c, 0, 76, 59
2, 16440, Note_on_c, 0, 76, 0
2, 16440, Note_on_c, 0, 72, 59
2, 16500, Note_on_c, 0, 72, 0
2, 16500, Note_on_c, 0, 67, 59
2, 16560, Note_on_c, 0, 67, 0
2, 16800, Note_on_c, 0, 76, 62
2, 16860, Note_on_c, 0, 76, 0
2, 16860, Note_on_c, 0, 72, 65
2, 16920, Note_on_c, 0, 72, 0
2, 16920, Note_on_c, 0, 67, 68
2, 16980, Note_on_c, 0, 67, 0
2, 16980, Note_on_c, 0, 64, 70
2, 17040, Note_on_c, 0, 64, 0
2, 17040, Note_on_c, 0, 76, 76
2, 17100, Note_on_c, 0, 76, 0
2, 17100, Note_on_c, 0, 72, 80
2, 17160, Note_on_c, 0, 72, 0
2, 17160, Note_on_c, 0, 67, 86
2, 17220, Note_on_c, 0, 67, 0
2, 17220, Note_on_c, 0, 64, 96
2, 17280, Note_on_c, 0, 64, 0
2, 17280, Note_on_c, 0, 67, 105
2, 17280, Note_on_c, 0, 72, 105
2, 17280, Note_on_c, 0, 77, 105
2, 17520, Note_on_c, 0, 71, 109
2, 17522, Note_on_c, 0, 72, 0
2, 17580, Note_on_c, 0, 71, 0
2, 17580, Note_on_c, 0, 77, 59
2, 17582, Note_on_c, 0, 77, 0
2, 17582, Note_on_c, 0, 67, 0
2, 17640, Note_on_c, 0, 77, 0
2, 17640, Note_on_c, 0, 79, 59
2, 17655, Note_on_c, 0, 79, 0
2, 17655, Note_on_c, 0, 77, 59
2, 17670, Note_on_c, 0, 77, 0
2, 17670, Note_on_c, 0, 79, 59
2, 17685, Note_on_c, 0, 79, 0
2, 17685, Note_on_c, 0, 77, 59
2, 17700, Note_on_c, 0, 77, 0
2, 17700, Note_on_c, 0, 79, 59
2, 17715, Note_on_c, 0, 79, 0
2, 17715, Note_on_c, 0, 77, 59
2, 17730, Note_on_c, 0, 77, 0
2, 17730, Note_on_c, 0, 76, 59
2, 17745, Note_on_c, 0, 76, 0
2, 17745, Note_on_c, 0, 77, 59
2, 17760, Note_on_c, 0, 77, 0
2, 17760, Note_on_c, 0, 81, 59
2, 17820, Note_on_c, 0, 81, 0
2, 17820, Note_on_c, 0, 77, 59
2, 17880, Note_on_c, 0, 77, 0
2, 17880, Note_on_c, 0, 74, 59
2, 17940, Note_on_c, 0, 74, 0
2, 17940, Note_on_c, 0, 71, 59
2, 18000, Note_on_c, 0, 71, 0
2, 18240, Note_on_c, 0, 77, 59
2, 18300, Note_on_c, 0, 77, 0
2, 18300, Note_on_c, 0, 74, 59
2, 18360, Note_on_c, 0, 74, 0
2, 18360, Note_on_c, 0, 71, 59
2, 18420, Note_on_c, 0, 71, 0
2, 18420, Note_on_c, 0, 67, 59
2, 18480, Note_on_c, 0, 67, 0
2, 18720, Note_on_c, 0, 74, 62
2, 18780, Note_on_c, 0, 74, 0
2, 18780, Note_on_c, 0, 71, 65
2, 18840, Note_on_c, 0, 71, 0
2, 18840, Note_on_c, 0, 67, 68
2, 18900, Note_on_c, 0, 67, 0
2, 18900, Note_on_c, 0, 65, 70
2, 18960, Note_on_c, 0, 65, 0
2, 18960, Note_on_c, 0, 74, 76
2, 19020, Note_on_c, 0, 74, 0
2, 19020, Note_on_c, 0, 71, 80
2, 19080, Note_on_c, 0, 71, 0
2, 19080, Note_on_c, 0, 67, 86
2, 19140, Note_on_c, 0, 67, 0
2, 19140, Note_on_c, 0, 65, 93
2, 19200, Note_on_c, 0, 65, 0
2, 19200, Note_on_c, 0, 74, 109
2, 19200, Note_on_c, 0, 67, 109
2, 19200, Note_on_c, 0, 71, 109
2, 19200, Note_on_c, 0, 77, 119
2, 19440, Note_on_c, 0, 72, 89
2, 19440, Note_on_c, 0, 76, 89
2, 19445, Note_on_c, 0, 77, 0
2, 19445, Note_on_c, 0, 71, 0
2, 19445, Note_on_c, 0, 74, 0
2, 19500, Note_on_c, 0, 76, 0
2, 19500, Note_on_c, 0, 72, 0
2, 19500, Note_on_c, 0, 79, 59
2, 19505, Note_on_c, 0, 67, 0
2, 19560, Note_on_c, 0, 79, 0
2, 19560, Note_on_c, 0, 81, 59
2, 19575, Note_on_c, 0, 81, 0
2, 19575, Note_on_c, 0, 79, 59
2, 19590, Note_on_c, 0, 79, 0
2, 19590, Note_on_c, 0, 81, 59
2, 19605, Note_on_c, 0, 81, 0
2, 19605, Note_on_c, 0, 79, 59
2, 19620, Note_on_c, 0, 79, 0
2, 19620, Note_on_c, 0, 81, 59
2, 19635, Note_on_c, 0, 81, 0
2, 19635, Note_on_c, 0, 79, 59
2, 19650, Note_on_c, 0, 79, 0
2, 19650, Note_on_c, 0, 78, 59
2, 19665, Note_on_c, 0, 78, 0
2, 19665, Note_on_c, 0, 79, 59
2, 19680, Note_on_c, 0, 79, 0
2, 19680, Note_on_c, 0, 84, 59
2, 19837, Note_on_c, 0, 84, 0
2, 19840, Note_on_c, 0, 79, 59
2, 19880, Note_on_c, 0, 79, 0
2, 19880, Note_on_c, 0, 83, 59
2, 19920, Note_on_c, 0, 83, 0
2, 19920, Note_on_c, 0, 84, 59
2, 19960, Note_on_c, 0, 84, 0
2, 19960, Note_on_c, 0, 83, 59
2, 20000, Note_on_c, 0, 83, 0
2, 20000, Note_on_c, 0, 81, 59
2, 20040, Note_on_c, 0, 81, 0
2, 20040, Note_on_c, 0, 79, 59
2, 20080, Note_on_c, 0, 79, 0
2, 20080, Note_on_c, 0, 77, 59
2, 20120, Note_on_c, 0, 77, 0
2, 20120, Note_on_c, 0, 76, 59
2, 20160, Note_on_c, 0, 76, 0
2, 20160, Note_on_c, 0, 81, 59
2, 20320, Note_on_c, 0, 80, 59
2, 20322, Note_on_c, 0, 81, 0
2, 20360, Note_on_c, 0, 80, 0
2, 20360, Note_on_c, 0, 83, 59
2, 20400, Note_on_c, 0, 83, 0
2, 20400, Note_on_c, 0, 81, 59
2, 20440, Note_on_c, 0, 81, 0
2, 20440, Note_on_c, 0, 79, 59
2, 20480, Note_on_c, 0, 79, 0
2, 20480, Note_on_c, 0, 77, 59
2, 20520, Note_on_c, 0, 77, 0
2, 20520, Note_on_c, 0, 76, 59
2, 20560, Note_on_c, 0, 76, 0
2, 20560, Note_on_c, 0, 77, 59
2, 20600, Note_on_c, 0, 77, 0
2, 20600, Note_on_c, 0, 74, 59
2, 20640, Note_on_c, 0, 74, 0
2, 20640, Note_on_c, 0, 72, 59
2, 20795, Note_on_c, 0, 72, 0
2, 20800, Note_on_c, 0, 76, 59
2, 20840, Note_on_c, 0, 76, 0
2, 20840, Note_on_c, 0, 72, 59
2, 20880, Note_on_c, 0, 72, 0
2, 20880, Note_on_c, 0, 71, 59
2, 21035, Note_on_c, 0, 71, 0
2, 21040, Note_on_c, 0, 74, 62
2, 21080, Note_on_c, 0, 74, 0
2, 21080, Note_on_c, 0, 79, 65
2, 21120, Note_on_c, 0, 79, 0
2, 21120, Note_on_c, 0, 77, 66
2, 21280, Note_on_c, 0, 77, 0
2, 21280, Note_on_c, 0, 76, 72
2, 21320, Note_on_c, 0, 76, 0
2, 21320, Note_on_c, 0, 77, 75
2, 21360, Note_on_c, 0, 77, 0
2, 21360, Note_on_c, 0, 78, 75
2, 21400, Note_on_c, 0, 78, 0
2, 21400, Note_on_c, 0, 79, 76
2, 21440, Note_on_c, 0, 79, 0
2, 21440, Note_on_c, 0, 80, 80
2, 21480, Note_on_c, 0, 80, 0
2, 21480, Note_on_c, 0, 81, 81
2, 21520, Note_on_c, 0, 81, 0
2, 21520, Note_on_c, 0, 82, 81
2, 21560, Note_on_c, 0, 82, 0
2, 21560, Note_on_c, 0, 83, 81
2, 21600, Note_on_c, 0, 83, 0
2, 21600, Note_on_c, 0, 84, 81
2, 21760, Note_on_c, 0, 84, 0
2, 21765, Note_on_c, 0, 79, 81
2, 21795, Note_on_c, 0, 83, 80
2, 21805, Note_on_c, 0, 79, 0
2, 21835, Note_on_c, 0, 83, 0
2, 21840, Note_on_c, 0, 84, 80
2, 21880, Note_on_c, 0, 84, 0
2, 21880, Note_on_c, 0, 83, 79
2, 21920, Note_on_c, 0, 83, 0
2, 21920, Note_on_c, 0, 81, 78
2, 21960, Note_on_c, 0, 81, 0
2, 21960, Note_on_c, 0, 79, 78
2, 22000, Note_on_c, 0, 79, 0
2, 22000, Note_on_c, 0, 77, 78
2, 22040, Note_on_c, 0, 77, 0
2, 22040, Note_on_c, 0, 76, 78
2, 22080, Note_on_c, 0, 76, 0
2, 22080, Note_on_c, 0, 81, 78
2, 22240, Note_on_c, 0, 81, 0
2, 22245, Note_on_c, 0, 80, 78
2, 22275, Note_on_c, 0, 83, 78
2, 22285, Note_on_c, 0, 80, 0
2, 22315, Note_on_c, 0, 83, 0
2, 22320, Note_on_c, 0, 81, 78
2, 22360, Note_on_c, 0, 81, 0
2, 22360, Note_on_c, 0, 79, 78
2, 22400, Note_on_c, 0, 79, 0
2, 22400, Note_on_c, 0, 77, 78
2, 22440, Note_on_c, 0, 77, 0
2, 22440, Note_on_c, 0, 76, 78
2, 22480, Note_on_c, 0, 76, 0
2, 22480, Note_on_c, 0, 77, 78
2, 22520, Note_on_c, 0, 77, 0
2, 22520, Note_on_c, 0, 74, 77
2, 22560, Note_on_c, 0, 74, 0
2, 22560, Note_on_c, 0, 79, 104
2, 22720, Note_on_c, 0, 79, 0
2, 22720, Note_on_c, 0, 76, 102
2, 22760, Note_on_c, 0, 76, 0
2, 22760, Note_on_c, 0, 72, 103
2, 22800, Note_on_c, 0, 72, 0
2, 22800, Note_on_c, 0, 77, 103
2, 22960, Note_on_c, 0, 77, 0
2, 22960, Note_on_c, 0, 74, 105
2, 23000, Note_on_c, 0, 74, 0
2, 23000, Note_on_c, 0, 71, 105
2, 23040, Note_on_c, 0, 71, 0
2, 23040, Note_on_c, 0, 72, 103
2, 23160, Note_on_c, 0, 72, 0
2, 23340, Note_on_c, 0, 72, 103
2, 23400, Note_on_c, 0, 72, 0
2, 23400, Note_on_c, 0, 74, 103
2, 23415, Note_on_c, 0, 74, 0
2, 23415, Note_on_c, 0, 72, 103
2, 23430, Note_on_c, 0, 72, 0
2, 23430, Note_on_c, 0, 74, 103
2, 23445, Note_on_c, 0, 74, 0
2, 23445, Note_on_c, 0, 72, 103
2, 23460, Note_on_c, 0, 72, 0
2, 23460, Note_on_c, 0, 74, 103
2, 23475, Note_on_c, 0, 74, 0
2, 23475, Note_on_c, 0, 72, 103
2, 23490, Note_on_c, 0, 72, 0
2, 23490, Note_on_c, 0, 71, 103
2, 23505, Note_on_c, 0, 71, 0
2, 23505, Note_on_c, 0, 72, 103
2, 23520, Note_on_c, 0, 72, 0
2, 23520, Note_on_c, 0, 78, 103
2, 23640, Note_on_c, 0, 78, 0
2, 23820, Note_on_c, 0, 72, 103
2, 23880, Note_on_c, 0, 72, 0
2, 23880, Note_on_c, 0, 74, 103
2, 23895, Note_on_c, 0, 74, 0
2, 23895, Note_on_c, 0, 72, 103
2, 23910, Note_on_c, 0, 72, 0
2, 23910, Note_on_c, 0, 74, 103
2, 23925, Note_on_c, 0, 74, 0
2, 23925, Note_on_c, 0, 72, 103
2, 23940, Note_on_c, 0, 72, 0
2, 23940, Note_on_c, 0, 74, 103
2, 23955, Note_on_c, 0, 74, 0
2, 23955, Note_on_c, 0, 72, 103
2, 23970, Note_on_c, 0, 72, 0
2, 23970, Note_on_c, 0, 71, 103
2, 23985, Note_on_c, 0, 71, 0
2, 23985, Note_on_c, 0, 72, 103
2, 24000, Note_on_c, 0, 72, 0
2, 24000, Note_on_c, 0, 84, 123
2, 24160, Note_on_c, 0, 84, 0
2, 24160, Note_on_c, 0, 83, 103
2, 24200, Note_on_c, 0, 83, 0
2, 24200, Note_on_c, 0, 81, 103
2, 24240, Note_on_c, 0, 81, 0
2, 24240, Note_on_c, 0, 79, 103
2, 24280, Note_on_c, 0, 79, 0
2, 24280, Note_on_c, 0, 78, 103
2, 24320, Note_on_c, 0, 78, 0
2, 24320, Note_on_c, 0, 76, 103
2, 24360, Note_on_c, 0, 76, 0
2, 24360, Note_on_c, 0, 74, 103
2, 24400, Note_on_c, 0, 74, 0
2, 24400, Note_on_c, 0, 76, 103
2, 24440, Note_on_c, 0, 76, 0
2, 24440, Note_on_c, 0, 72, 103
2, 24480, Note_on_c, 0, 72, 0
2, 24520, Note_on_c, 0, 71, 73
2, 24555, Note_on_c, 0, 74, 73
2, 24560, Note_on_c, 0, 71, 0
2, 24595, Note_on_c, 0, 74, 0
2, 24640, Note_on_c, 0, 79, 73
2, 24675, Note_on_c, 0, 74, 73
2, 24680, Note_on_c, 0, 79, 0
2, 24715, Note_on_c, 0, 74, 0
2, 24760, Note_on_c, 0, 79, 73
2, 24795, Note_on_c, 0, 74, 73
2, 24800, Note_on_c, 0, 79, 0
2, 24835, Note_on_c, 0, 74, 0
2, 24880, Note_on_c, 0, 83, 73
2, 24920, Note_on_c, 0, 83, 0
2, 24920, Note_on_c, 0, 74, 73
2, 24960, Note_on_c, 0, 74, 0
2, 25000, Note_on_c, 0, 84, 73
2, 25035, Note_on_c, 0, 74, 73
2, 25040, Note_on_c, 0, 84, 0
2, 25075, Note_on_c, 0, 74, 0
2, 25120, Note_on_c, 0, 81, 73
2, 25155, Note_on_c, 0, 74, 73
2, 25160, Note_on_c, 0, 81, 0
2, 25195, Note_on_c, 0, 74, 0
2, 25240, Note_on_c, 0, 78, 73
2, 25275, Note_on_c, 0, 74, 73
2, 25280, Note_on_c, 0, 78, 0
2, 25315, Note_on_c, 0, 74, 0
2, 25360, Note_on_c, 0, 81, 73
2, 25400, Note_on_c, 0, 81, 0
2, 25400, Note_on_c, 0, 74, 73
2, 25440, Note_on_c, 0, 74, 0
2, 25480, Note_on_c, 0, 79, 84
2, 25515, Note_on_c, 0, 74, 86
2, 25520, Note_on_c, 0, 79, 0
2, 25555, Note_on_c, 0, 74, 0
2, 25600, Note_on_c, 0, 83, 91
2, 25635, Note_on_c, 0, 74, 92
2, 25640, Note_on_c, 0, 83, 0
2, 25675, Note_on_c, 0, 74, 0
2, 25720, Note_on_c, 0, 81, 95
2, 25755, Note_on_c, 0, 74, 97
2, 25760, Note_on_c, 0, 81, 0
2, 25795, Note_on_c, 0, 74, 0
2, 25840, Note_on_c, 0, 83, 101
2, 25875, Note_on_c, 0, 74, 102
2, 25880, Note_on_c, 0, 83, 0
2, 25915, Note_on_c, 0, 74, 0
2, 25960, Note_on_c, 0, 84, 112
2, 25995, Note_on_c, 0, 74, 111
2, 26000, Note_on_c, 0, 84, 0
2, 26035, Note_on_c, 0, 74, 0
2, 26080, Note_on_c, 0, 81, 106
2, 26115, Note_on_c, 0, 74, 105
2, 26120, Note_on_c, 0, 81, 0
2, 26155, Note_on_c, 0, 74, 0
2, 26200, Note_on_c, 0, 78, 101
2, 26235, Note_on_c, 0, 74, 100
2, 26240, Note_on_c, 0, 78, 0
2, 26275, Note_on_c, 0, 74, 0
2, 26320, Note_on_c, 0, 81, 97
2, 26360, Note_on_c, 0, 81, 0
2, 26360, Note_on_c, 0, 74, 95
2, 26400, Note_on_c, 0, 74, 0
2, 26440, Note_on_c, 0, 79, 86
2, 26475, Note_on_c, 0, 74, 85
2, 26480, Note_on_c, 0, 79, 0
2, 26515, Note_on_c, 0, 74, 0
2, 26560, Note_on_c, 0, 80, 82
2, 26600, Note_on_c, 0, 80, 0
2, 26600, Note_on_c, 0, 74, 80
2, 26640, Note_on_c, 0, 74, 0
2, 26680, Note_on_c, 0, 83, 78
2, 26720, Note_on_c, 0, 83, 0
2, 26720, Note_on_c, 0, 76, 77
2, 26760, Note_on_c, 0, 76, 0
2, 26800, Note_on_c, 0, 81, 77
2, 26840, Note_on_c, 0, 81, 0
2, 26840, Note_on_c, 0, 76, 76
2, 26880, Note_on_c, 0, 76, 0
2, 26920, Note_on_c, 0, 84, 75
2, 26955, Note_on_c, 0, 78, 75
2, 26960, Note_on_c, 0, 84, 0
2, 26995, Note_on_c, 0, 78, 0
2, 27040, Note_on_c, 0, 83, 74
2, 27075, Note_on_c, 0, 78, 74
2, 27080, Note_on_c, 0, 83, 0
2, 27115, Note_on_c, 0, 78, 0
2, 27160, Note_on_c, 0, 84, 73
2, 27195, Note_on_c, 0, 78, 72
2, 27200, Note_on_c, 0, 84, 0
2, 27235, Note_on_c, 0, 78, 0
2, 27280, Note_on_c, 0, 83, 71
2, 27315, Note_on_c, 0, 78, 71
2, 27320, Note_on_c, 0, 83, 0
2, 27355, Note_on_c, 0, 78, 0
2, 27400, Note_on_c, 0, 79, 70
2, 27440, Note_on_c, 0, 79, 0
2, 27440, Note_on_c, 0, 83, 69
2, 27480, Note_on_c, 0, 83, 0
2, 27520, Note_on_c, 0, 78, 68
2, 27555, Note_on_c, 0, 83, 68
2, 27560, Note_on_c, 0, 78, 0
2, 27595, Note_on_c, 0, 83, 0
2, 27640, Note_on_c, 0, 79, 67
2, 27675, Note_on_c, 0, 83, 66
2, 27680, Note_on_c, 0, 79, 0
2, 27715, Note_on_c, 0, 83, 0
2, 27760, Note_on_c, 0, 78, 66
2, 27795, Note_on_c, 0, 83, 65
2, 27800, Note_on_c, 0, 78, 0
2, 27835, Note_on_c, 0, 83, 0
2, 27880, Note_on_c, 0, 79, 65
2, 27920, Note_on_c, 0, 79, 0
2, 27920, Note_on_c, 0, 83, 64
2, 27960, Note_on_c, 0, 83, 0
2, 28000, Note_on_c, 0, 76, 63
2, 28040, Note_on_c, 0, 76, 0
2, 28040, Note_on_c, 0, 81, 63
2, 28080, Note_on_c, 0, 81, 0
2, 28120, Note_on_c, 0, 71, 62
2, 28160, Note_on_c, 0, 71, 0
2, 28160, Note_on_c, 0, 79, 62
2, 28200, Note_on_c, 0, 79, 0
2, 28240, Note_on_c, 0, 69, 62
2, 28280, Note_on_c, 0, 69, 0
2, 28280, Note_on_c, 0, 78, 62
2, 28320, Note_on_c, 0, 78, 0
2, 28360, Note_on_c, 0, 71, 92
2, 28395, Note_on_c, 0, 79, 93
2, 28400, Note_on_c, 0, 71, 0
2, 28435, Note_on_c, 0, 79, 0
2, 28480, Note_on_c, 0, 71, 93
2, 28480, Note_on_c, 0, 78, 93
2, 28515, Note_on_c, 0, 83, 93
2, 28520, Note_on_c, 0, 78, 0
2, 28520, Note_on_c, 0, 71, 0
2, 28555, Note_on_c, 0, 83, 0
2, 28600, Note_on_c, 0, 71, 92
2, 28600, Note_on_c, 0, 79, 92
2, 28635, Note_on_c, 0, 83, 92
2, 28640, Note_on_c, 0, 79, 0
2, 28640, Note_on_c, 0, 71, 0
2, 28675, Note_on_c, 0, 83, 0
2, 28720, Note_on_c, 0, 71, 91
2, 28720, Note_on_c, 0, 78, 91
2, 28755, Note_on_c, 0, 83, 90
2, 28760, Note_on_c, 0, 78, 0
2, 28760, Note_on_c, 0, 71, 0
2, 28795, Note_on_c, 0, 83, 0
2, 28840, Note_on_c, 0, 71, 89
2, 28840, Note_on_c, 0, 79, 89
2, 28875, Note_on_c, 0, 83, 89
2, 28880, Note_on_c, 0, 79, 0
2, 28880, Note_on_c, 0, 71, 0
2, 28915, Note_on_c, 0, 83, 0
2, 28960, Note_on_c, 0, 76, 88
2, 28960, Note_on_c, 0, 81, 88
2, 28995, Note_on_c, 0, 84, 87
2, 29000, Note_on_c, 0, 81, 0
2, 29000, Note_on_c, 0, 76, 0
2, 29035, Note_on_c, 0, 84, 0
2, 29080, Note_on_c, 0, 74, 85
2, 29080, Note_on_c, 0, 79, 85
2, 29115, Note_on_c, 0, 83, 84
2, 29120, Note_on_c, 0, 79, 0
2, 29120, Note_on_c, 0, 74, 0
2, 29155, Note_on_c, 0, 83, 0
2, 29200, Note_on_c, 0, 72, 80
2, 29200, Note_on_c, 0, 78, 80
2, 29235, Note_on_c, 0, 81, 80
2, 29240, Note_on_c, 0, 78, 0
2, 29240, Note_on_c, 0, 72, 0
2, 29275, Note_on_c, 0, 81, 0
2, 29320, Note_on_c, 0, 71, 77
2, 29360, Note_on_c, 0, 71, 0
2, 29360, Note_on_c, 0, 79, 76
2, 29400, Note_on_c, 0, 79, 0
2, 29440, Note_on_c, 0, 71, 74
2, 29480, Note_on_c, 0, 71, 0
2, 29480, Note_on_c, 0, 77, 73
2, 29520, Note_on_c, 0, 77, 0
2, 29560, Note_on_c, 0, 72, 72
2, 29600, Note_on_c, 0, 72, 0
2, 29600, Note_on_c, 0, 76, 71
2, 29640, Note_on_c, 0, 76, 0
2, 29680, Note_on_c, 0, 72, 69
2, 29720, Note_on_c, 0, 72, 0
2, 29720, Note_on_c, 0, 78, 67
2, 29760, Note_on_c, 0, 78, 0
2, 29800, Note_on_c, 0, 71, 65
2, 29840, Note_on_c, 0, 71, 0
2, 29840, Note_on_c, 0, 79, 64
2, 29880, Note_on_c, 0, 79, 0
2, 29920, Note_on_c, 0, 71, 60
2, 29960, Note_on_c, 0, 71, 0
2, 29960, Note_on_c, 0, 77, 59
2, 30000, Note_on_c, 0, 77, 0
2, 30040, Note_on_c, 0, 72, 56
2, 30080, Note_on_c, 0, 72, 0
2, 30080, Note_on_c, 0, 76, 55
2, 30120, Note_on_c, 0, 76, 0
2, 30160, Note_on_c, 0, 72, 53
2, 30200, Note_on_c, 0, 72, 0
2, 30200, Note_on_c, 0, 78, 53
2, 30240, Note_on_c, 0, 78, 0
2, 30240, Note_on_c, 0, 79, 52
2, 30280, Note_on_c, 0, 79, 0
2, 30280, Note_on_c, 0, 74, 51
2, 30320, Note_on_c, 0, 74, 0
2, 30320, Note_on_c, 0, 71, 51
2, 30360, Note_on_c, 0, 71, 0
2, 30360, Note_on_c, 0, 67, 50
2, 30400, Note_on_c, 0, 67, 0
2, 30400, Note_on_c, 0, 62, 50
2, 30440, Note_on_c, 0, 62, 0
2, 30440, Note_on_c, 0, 59, 49
2, 30480, Note_on_c, 0, 59, 0
2, 30480, Note_on_c, 0, 67, 48
2, 30520, Note_on_c, 0, 67, 0
2, 30520, Note_on_c, 0, 62, 45
2, 30560, Note_on_c, 0, 62, 0
2, 30560, Note_on_c, 0, 59, 43
2, 30600, Note_on_c, 0, 59, 0
2, 30960, Note_on_c, 0, 79, 66
2, 31020, Note_on_c, 0, 79, 0
2, 31020, Note_on_c, 0, 81, 67
2, 31035, Note_on_c, 0, 81, 0
2, 31035, Note_on_c, 0, 79, 67
2, 31050, Note_on_c, 0, 79, 0
2, 31050, Note_on_c, 0, 81, 67
2, 31065, Note_on_c, 0, 81, 0
2, 31065, Note_on_c, 0, 79, 67
2, 31080, Note_on_c, 0, 79, 0
2, 31080, Note_on_c, 0, 81, 67
2, 31095, Note_on_c, 0, 81, 0
2, 31095, Note_on_c, 0, 79, 67
2, 31110, Note_on_c, 0, 79, 0
2, 31110, Note_on_c, 0, 81, 67
2, 31125, Note_on_c, 0, 81, 0
2, 31125, Note_on_c, 0, 79, 67
2, 31140, Note_on_c, 0, 79, 0
2, 31140, Note_on_c, 0, 81, 67
2, 31155, Note_on_c, 0, 81, 0
2, 31155, Note_on_c, 0, 79, 67
2, 31170, Note_on_c, 0, 79, 0
2, 31170, Note_on_c, 0, 77, 67
2, 31185, Note_on_c, 0, 77, 0
2, 31185, Note_on_c, 0, 79, 67
2, 31200, Note_on_c, 0, 79, 0
2, 31200, Note_on_c, 0, 82, 67
2, 31260, Note_on_c, 0, 82, 0
2, 31260, Note_on_c, 0, 79, 67
2, 31320, Note_on_c, 0, 79, 0
2, 31320, Note_on_c, 0, 75, 67
2, 31380, Note_on_c, 0, 75, 0
2, 31380, Note_on_c, 0, 70, 67
2, 31440, Note_on_c, 0, 70, 0
2, 31680, Note_on_c, 0, 79, 70
2, 31740, Note_on_c, 0, 79, 0
2, 31740, Note_on_c, 0, 75, 71
2, 31800, Note_on_c, 0, 75, 0
2, 31800, Note_on_c, 0, 70, 71
2, 31860, Note_on_c, 0, 70, 0
2, 31860, Note_on_c, 0, 67, 71
2, 31920, Note_on_c, 0, 67, 0
2, 32160, Note_on_c, 0, 79, 80
2, 32220, Note_on_c, 0, 79, 0
2, 32220, Note_on_c, 0, 75, 84
2, 32280, Note_on_c, 0, 75, 0
2, 32280, Note_on_c, 0, 70, 86
2, 32340, Note_on_c, 0, 70, 0
2, 32340, Note_on_c, 0, 67, 88
2, 32400, Note_on_c, 0, 67, 0
2, 32400, Note_on_c, 0, 79, 90
2, 32460, Note_on_c, 0, 79, 0
2, 32460, Note_on_c, 0, 75, 92
2, 32520, Note_on_c, 0, 75, 0
2, 32520, Note_on_c, 0, 70, 94
2, 32580, Note_on_c, 0, 70, 0
2, 32580, Note_on_c, 0, 67, 97
2, 32640, Note_on_c, 0, 67, 0
2, 32640, Note_on_c, 0, 75, 119
2, 32640, Note_on_c, 0, 70, 119
2, 32640, Note_on_c, 0, 68, 119
2, 32640, Note_on_c, 0, 80, 119
2, 32880, Note_on_c, 0, 75, 0
2, 32880, Note_on_c, 0, 74, 119
2, 32940, Note_on_c, 0, 74, 0
2, 32940, Note_on_c, 0, 80, 0
2, 32940, Note_on_c, 0, 68, 0
2, 32940, Note_on_c, 0, 70, 0
2, 33120, Note_on_c, 0, 80, 80
2, 33180, Note_on_c, 0, 80, 0
2, 33180, Note_on_c, 0, 77, 84
2, 33240, Note_on_c, 0, 77, 0
2, 33240, Note_on_c, 0, 70, 86
2, 33300, Note_on_c, 0, 70, 0
2, 33300, Note_on_c, 0, 68, 88
2, 33360, Note_on_c, 0, 68, 0
2, 33360, Note_on_c, 0, 80, 90
2, 33420, Note_on_c, 0, 80, 0
2, 33420, Note_on_c, 0, 74, 92
2, 33480, Note_on_c, 0, 74, 0
2, 33480, Note_on_c, 0, 70, 94
2, 33540, Note_on_c, 0, 70, 0
2, 33540, Note_on_c, 0, 68, 97
2, 33600, Note_on_c, 0, 68, 0
2, 33600, Note_on_c, 0, 77, 119
2, 33600, Note_on_c, 0, 73, 119
2, 33600, Note_on_c, 0, 70, 119
2, 33600, Note_on_c, 0, 82, 119
2, 33840, Note_on_c, 0, 77, 0
2, 33840, Note_on_c, 0, 76, 119
2, 33900, Note_on_c, 0, 76, 0
2, 33900, Note_on_c, 0, 82, 0
2, 33900, Note_on_c, 0, 70, 0
2, 33900, Note_on_c, 0, 73, 0
2, 34080, Note_on_c, 0, 82, 60
2, 34140, Note_on_c, 0, 82, 0
2, 34140, Note_on_c, 0, 76, 63
2, 34200, Note_on_c, 0, 76, 0
2, 34200, Note_on_c, 0, 73, 66
2, 34260, Note_on_c, 0, 73, 0
2, 34260, Note_on_c, 0, 70, 67
2, 34320, Note_on_c, 0, 70, 0
2, 34320, Note_on_c, 0, 82, 69
2, 34380, Note_on_c, 0, 82, 0
2, 34380, Note_on_c, 0, 76, 70
2, 34440, Note_on_c, 0, 76, 0
2, 34440, Note_on_c, 0, 73, 72
2, 34500, Note_on_c, 0, 73, 0
2, 34500, Note_on_c, 0, 70, 74
2, 34560, Note_on_c, 0, 70, 0
2, 34620, Note_on_c, 0, 82, 56
2, 34680, Note_on_c, 0, 82, 0
2, 34680, Note_on_c, 0, 77, 56
2, 34740, Note_on_c, 0, 77, 0
2, 34740, Note_on_c, 0, 72, 56
2, 34800, Note_on_c, 0, 72, 0
2, 34860, Note_on_c, 0, 84, 56
2, 34920, Note_on_c, 0, 84, 0
2, 34920, Note_on_c, 0, 77, 56
2, 34980, Note_on_c, 0, 77, 0
2, 34980, Note_on_c, 0, 72, 55
2, 35040, Note_on_c, 0, 72, 0
2, 35100, Note_on_c, 0, 84, 54
2, 35160, Note_on_c, 0, 84, 0
2, 35160, Note_on_c, 0, 76, 53
2, 35220, Note_on_c, 0, 76, 0
2, 35220, Note_on_c, 0, 72, 53
2, 35280, Note_on_c, 0, 72, 0
2, 35340, Note_on_c, 0, 82, 53
2, 35400, Note_on_c, 0, 82, 0
2, 35400, Note_on_c, 0, 76, 53
2, 35460, Note_on_c, 0, 76, 0
2, 35460, Note_on_c, 0, 72, 53
2, 35520, Note_on_c, 0, 72, 0
2, 35580, Note_on_c, 0, 82, 53
2, 35640, Note_on_c, 0, 82, 0
2, 35640, Note_on_c, 0, 77, 53
2, 35700, Note_on_c, 0, 77, 0
2, 35700, Note_on_c, 0, 72, 53
2, 35760, Note_on_c, 0, 72, 0
2, 35820, Note_on_c, 0, 80, 53
2, 35880, Note_on_c, 0, 80, 0
2, 35880, Note_on_c, 0, 72, 53
2, 35940, Note_on_c, 0, 72, 0
2, 35940, Note_on_c, 0, 68, 53
2, 36000, Note_on_c, 0, 68, 0
2, 36060, Note_on_c, 0, 80, 53
2, 36120, Note_on_c, 0, 80, 0
2, 36120, Note_on_c, 0, 70, 53
2, 36180, Note_on_c, 0, 70, 0
2, 36180, Note_on_c, 0, 68, 53
2, 36240, Note_on_c, 0, 68, 0
2, 36300, Note_on_c, 0, 78, 53
2, 36360, Note_on_c, 0, 78, 0
2, 36360, Note_on_c, 0, 72, 53
2, 36420, Note_on_c, 0, 72, 0
2, 36420, Note_on_c, 0, 68, 53
2, 36480, Note_on_c, 0, 68, 0
2, 36480, Note_on_c, 0, 77, 40
2, 36540, Note_on_c, 0, 77, 0
2, 36540, Note_on_c, 0, 73, 40
2, 36600, Note_on_c, 0, 73, 0
2, 36600, Note_on_c, 0, 68, 40
2, 36660, Note_on_c, 0, 68, 0
2, 36660, Note_on_c, 0, 65, 40
2, 36720, Note_on_c, 0, 65, 0
2, 36960, Note_on_c, 0, 77, 40
2, 37020, Note_on_c, 0, 77, 0
2, 37020, Note_on_c, 0, 73, 40
2, 37080, Note_on_c, 0, 73, 0
2, 37080, Note_on_c, 0, 68, 40
2, 37140, Note_on_c, 0, 68, 0
2, 37140, Note_on_c, 0, 65, 40
2, 37200, Note_on_c, 0, 65, 0
2, 37440, Note_on_c, 0, 77, 61
2, 37500, Note_on_c, 0, 77, 0
2, 37500, Note_on_c, 0, 73, 66
2, 37560, Note_on_c, 0, 73, 0
2, 37560, Note_on_c, 0, 68, 69
2, 37620, Note_on_c, 0, 68, 0
2, 37620, Note_on_c, 0, 65, 74
2, 37680, Note_on_c, 0, 65, 0
2, 37680, Note_on_c, 0, 77, 77
2, 37740, Note_on_c, 0, 77, 0
2, 37740, Note_on_c, 0, 72, 81
2, 37800, Note_on_c, 0, 72, 0
2, 37800, Note_on_c, 0, 68, 85
2, 37860, Note_on_c, 0, 68, 0
2, 37860, Note_on_c, 0, 65, 87
2, 37920, Note_on_c, 0, 65, 0
2, 37920, Note_on_c, 0, 77, 95
2, 37980, Note_on_c, 0, 77, 0
2, 37980, Note_on_c, 0, 74, 89
2, 38040, Note_on_c, 0, 74, 0
2, 38040, Note_on_c, 0, 68, 79
2, 38100, Note_on_c, 0, 68, 0
2, 38100, Note_on_c, 0, 65, 74
2, 38160, Note_on_c, 0, 65, 0
2, 38160, Note_on_c, 0, 75, 72
2, 38220, Note_on_c, 0, 75, 0
2, 38220, Note_on_c, 0, 72, 68
2, 38280, Note_on_c, 0, 72, 0
2, 38280, Note_on_c, 0, 67, 65
2, 38340, Note_on_c, 0, 67, 0
2, 38340, Note_on_c, 0, 63, 65
2, 38400, Note_on_c, 0, 63, 0
2, 38400, Note_on_c, 0, 74, 65
2, 38460, Note_on_c, 0, 74, 0
2, 38460, Note_on_c, 0, 72, 65
2, 38520, Note_on_c, 0, 72, 0
2, 38520, Note_on_c, 0, 68, 65
2, 38580, Note_on_c, 0, 68, 0
2, 38580, Note_on_c, 0, 62, 65
2, 38640, Note_on_c, 0, 62, 0
2, 38640, Note_on_c, 0, 74, 65
2, 38700, Note_on_c, 0, 74, 0
2, 38700, Note_on_c, 0, 72, 65
2, 38760, Note_on_c, 0, 72, 0
2, 38760, Note_on_c, 0, 68, 65
2, 38820, Note_on_c, 0, 68, 0
2, 38820, Note_on_c, 0, 62, 65
2, 38880, Note_on_c, 0, 62, 0
2, 38880, Note_on_c, 0, 74, 65
2, 38940, Note_on_c, 0, 74, 0
2, 38940, Note_on_c, 0, 72, 65
2, 39000, Note_on_c, 0, 72, 0
2, 39000, Note_on_c, 0, 69, 65
2, 39060, Note_on_c, 0, 69, 0
2, 39060, Note_on_c, 0, 62, 65
2, 39120, Note_on_c, 0, 62, 0
2, 39120, Note_on_c, 0, 74, 65
2, 39180, Note_on_c, 0, 74, 0
2, 39180, Note_on_c, 0, 72, 65
2, 39240, Note_on_c, 0, 72, 0
2, 39240, Note_on_c, 0, 69, 65
2, 39300, Note_on_c, 0, 69, 0
2, 39300, Note_on_c, 0, 62, 65
2, 39360, Note_on_c, 0, 62, 0
2, 39400, Note_on_c, 0, 71, 45
2, 39440, Note_on_c, 0, 71, 0
2, 39440, Note_on_c, 0, 74, 45
2, 39480, Note_on_c, 0, 74, 0
2, 39480, Note_on_c, 0, 79, 45
2, 39600, Note_on_c, 0, 79, 0
2, 39640, Note_on_c, 0, 72, 45
2, 39680, Note_on_c, 0, 72, 0
2, 39680, Note_on_c, 0, 75, 45
2, 39720, Note_on_c, 0, 75, 0
2, 39720, Note_on_c, 0, 79, 45
2, 39840, Note_on_c, 0, 79, 0
2, 39880, Note_on_c, 0, 74, 45
2, 39920, Note_on_c, 0, 74, 0
2, 39920, Note_on_c, 0, 77, 45
2, 39960, Note_on_c, 0, 77, 0
2, 39960, Note_on_c, 0, 79, 45
2, 40080, Note_on_c, 0, 79, 0
2, 40120, Note_on_c, 0, 72, 45
2, 40160, Note_on_c, 0, 72, 0
2, 40160, Note_on_c, 0, 75, 45
2, 40200, Note_on_c, 0, 75, 0
2, 40200, Note_on_c, 0, 79, 45
2, 40320, Note_on_c, 0, 79, 0
2, 40365, Note_on_c, 0, 71, 43
2, 40395, Note_on_c, 0, 74, 45
2, 40405, Note_on_c, 0, 71, 0
2, 40435, Note_on_c, 0, 74, 0
2, 40440, Note_on_c, 0, 79, 48
2, 40560, Note_on_c, 0, 79, 0
2, 40600, Note_on_c, 0, 72, 55
2, 40640, Note_on_c, 0, 72, 0
2, 40640, Note_on_c, 0, 75, 57
2, 40680, Note_on_c, 0, 75, 0
2, 40680, Note_on_c, 0, 80, 59
2, 40800, Note_on_c, 0, 80, 0
2, 40840, Note_on_c, 0, 73, 66
2, 40880, Note_on_c, 0, 73, 0
2, 40880, Note_on_c, 0, 76, 68
2, 40920, Note_on_c, 0, 76, 0
2, 40920, Note_on_c, 0, 81, 69
2, 41040, Note_on_c, 0, 81, 0
2, 41080, Note_on_c, 0, 74, 83
2, 41120, Note_on_c, 0, 74, 0
2, 41120, Note_on_c, 0, 77, 86
2, 41160, Note_on_c, 0, 77, 0
2, 41160, Note_on_c, 0, 82, 88
2, 41280, Note_on_c, 0, 82, 0
2, 41320, Note_on_c, 0, 74, 110
2, 41360, Note_on_c, 0, 74, 0
2, 41360, Note_on_c, 0, 77, 110
2, 41400, Note_on_c, 0, 77, 0
2, 41400, Note_on_c, 0, 83, 113
2, 41520, Note_on_c, 0, 83, 0
2, 42060, Note_on_c, 0, 79, 59
2, 42120, Note_on_c, 0, 79, 0
2, 42120, Note_on_c, 0, 81, 59
2, 42135, Note_on_c, 0, 81, 0
2, 42135, Note_on_c, 0, 79, 59
2, 42150, Note_on_c, 0, 79, 0
2, 42150, Note_on_c, 0, 81, 59
2, 42165, Note_on_c, 0, 81, 0
2, 42165, Note_on_c, 0, 79, 59
2, 42180, Note_on_c, 0, 79, 0
2, 42180, Note_on_c, 0, 81, 59
2, 42195, Note_on_c, 0, 81, 0
2, 42195, Note_on_c, 0, 79, 59
2, 42210, Note_on_c, 0, 79, 0
2, 42210, Note_on_c, 0, 78, 59
2, 42225, Note_on_c, 0, 78, 0
2, 42225, Note_on_c, 0, 79, 59
2, 42240, Note_on_c, 0, 79, 0
2, 42240, Note_on_c, 0, 84, 59
2, 42240, Note_on_c, 0, 84, 59
2, 42300, Note_on_c, 0, 84, 0
2, 42300, Note_on_c, 0, 79, 59
2, 42360, Note_on_c, 0, 79, 0
2, 42360, Note_on_c, 0, 76, 59
2, 42420, Note_on_c, 0, 76, 0
2, 42420, Note_on_c, 0, 72, 59
2, 42480, Note_on_c, 0, 72, 0
2, 42480, Note_on_c, 0, 84, 0
2, 42720, Note_on_c, 0, 79, 59
2, 42780, Note_on_c, 0, 79, 0
2, 42780, Note_on_c, 0, 76, 59
2, 42840, Note_on_c, 0, 76, 0
2, 42840, Note_on_c, 0, 72, 59
2, 42900, Note_on_c, 0, 72, 0
2, 42900, Note_on_c, 0, 67, 59
2, 42960, Note_on_c, 0, 67, 0
2, 43200, Note_on_c, 0, 76, 62
2, 43260, Note_on_c, 0, 76, 0
2, 43260, Note_on_c, 0, 72, 65
2, 43320, Note_on_c, 0, 72, 0
2, 43320, Note_on_c, 0, 67, 68
2, 43380, Note_on_c, 0, 67, 0
2, 43380, Note_on_c, 0, 64, 70
2, 43440, Note_on_c, 0, 64, 0
2, 43440, Note_on_c, 0, 76, 76
2, 43500, Note_on_c, 0, 76, 0
2, 43500, Note_on_c, 0, 72, 80
2, 43560, Note_on_c, 0, 72, 0
2, 43560, Note_on_c, 0, 67, 86
2, 43620, Note_on_c, 0, 67, 0
2, 43620, Note_on_c, 0, 64, 96
2, 43680, Note_on_c, 0, 64, 0
2, 43680, Note_on_c, 0, 72, 105
2, 43680, Note_on_c, 0, 77, 105
2, 43680, Note_on_c, 0, 67, 105
2, 43920, Note_on_c, 0, 71, 109
2, 43922, Note_on_c, 0, 72, 0
2, 43980, Note_on_c, 0, 71, 0
2, 43980, Note_on_c, 0, 77, 59
2, 43982, Note_on_c, 0, 67, 0
2, 43982, Note_on_c, 0, 77, 0
2, 44040, Note_on_c, 0, 77, 0
2, 44040, Note_on_c, 0, 79, 59
2, 44055, Note_on_c, 0, 79, 0
2, 44055, Note_on_c, 0, 77, 59
2, 44070, Note_on_c, 0, 77, 0
2, 44070, Note_on_c, 0, 79, 59
2, 44085, Note_on_c, 0, 79, 0
2, 44085, Note_on_c, 0, 77, 59
2, 44100, Note_on_c, 0, 77, 0
2, 44100, Note_on_c, 0, 79, 59
2, 44115, Note_on_c, 0, 79, 0
2, 44115, Note_on_c, 0, 77, 59
2, 44130, Note_on_c, 0, 77, 0
2, 44130, Note_on_c, 0, 76, 59
2, 44145, Note_on_c, 0, 76, 0
2, 44145, Note_on_c, 0, 77, 59
2, 44160, Note_on_c, 0, 77, 0
2, 44160, Note_on_c, 0, 81, 59
2, 44220, Note_on_c, 0, 81, 0
2, 44220, Note_on_c, 0, 77, 59
2, 44280, Note_on_c, 0, 77, 0
2, 44280, Note_on_c, 0, 74, 59
2, 44340, Note_on_c, 0, 74, 0
2, 44340, Note_on_c, 0, 71, 59
2, 44400, Note_on_c, 0, 71, 0
2, 44640, Note_on_c, 0, 77, 59
2, 44700, Note_on_c, 0, 77, 0
2, 44700, Note_on_c, 0, 74, 59
2, 44760, Note_on_c, 0, 74, 0
2, 44760, Note_on_c, 0, 71, 59
2, 44820, Note_on_c, 0, 71, 0
2, 44820, Note_on_c, 0, 67, 59
2, 44880, Note_on_c, 0, 67, 0
2, 45120, Note_on_c, 0, 74, 62
2, 45180, Note_on_c, 0, 74, 0
2, 45180, Note_on_c, 0, 71, 65
2, 45240, Note_on_c, 0, 71, 0
2, 45240, Note_on_c, 0, 67, 68
2, 45300, Note_on_c, 0, 67, 0
2, 45300, Note_on_c, 0, 65, 70
2, 45360, Note_on_c, 0, 65, 0
2, 45360, Note_on_c, 0, 74, 76
2, 45420, Note_on_c, 0, 74, 0
2, 45420, Note_on_c, 0, 71, 80
2, 45480, Note_on_c, 0, 71, 0
2, 45480, Note_on_c, 0, 67, 86
2, 45540, Note_on_c, 0, 67, 0
2, 45540, Note_on_c, 0, 65, 93
2, 45600, Note_on_c, 0, 65, 0
2, 45600, Note_on_c, 0, 67, 109
2, 45600, Note_on_c, 0, 71, 109
2, 45600, Note_on_c, 0, 77, 119
2, 45600, Note_on_c, 0, 74, 109
2, 45840, Note_on_c, 0, 76, 89
2, 45840, Note_on_c, 0, 72, 89
2, 45845, Note_on_c, 0, 74, 0
2, 45845, Note_on_c, 0, 77, 0
2, 45845, Note_on_c, 0, 71, 0
2, 45900, Note_on_c, 0, 72, 0
2, 45900, Note_on_c, 0, 76, 0
2, 45900, Note_on_c, 0, 79, 59
2, 45905, Note_on_c, 0, 67, 0
2, 45960, Note_on_c, 0, 79, 0
2, 45960, Note_on_c, 0, 81, 59
2, 45975, Note_on_c, 0, 81, 0
2, 45975, Note_on_c, 0, 79, 59
2, 45990, Note_on_c, 0, 79, 0
2, 45990, Note_on_c, 0, 81, 59
2, 46005, Note_on_c, 0, 81, 0
2, 46005, Note_on_c, 0, 79, 59
2, 46020, Note_on_c, 0, 79, 0
2, 46020, Note_on_c, 0, 81, 59
2, 46035, Note_on_c, 0, 81, 0
2, 46035, Note_on_c, 0, 79, 59
2, 46050, Note_on_c, 0, 79, 0
2, 46050, Note_on_c, 0, 78, 59
2, 46065, Note_on_c, 0, 78, 0
2, 46065, Note_on_c, 0, 79, 59
2, 46080, Note_on_c, 0, 79, 0
2, 46080, Note_on_c, 0, 84, 59
2, 46237, Note_on_c, 0, 84, 0
2, 46240, Note_on_c, 0, 79, 59
2, 46280, Note_on_c, 0, 79, 0
2, 46280, Note_on_c, 0, 83, 59
2, 46320, Note_on_c, 0, 83, 0
2, 46320, Note_on_c, 0, 84, 59
2, 46360, Note_on_c, 0, 84, 0
2, 46360, Note_on_c, 0, 83, 59
2, 46400, Note_on_c, 0, 83, 0
2, 46400, Note_on_c, 0, 81, 59
2, 46440, Note_on_c, 0, 81, 0
2, 46440, Note_on_c, 0, 79, 59
2, 46480, Note_on_c, 0, 79, 0
2, 46480, Note_on_c, 0, 77, 59
2, 46520, Note_on_c, 0, 77, 0
2, 46520, Note_on_c, 0, 76, 59
2, 46560, Note_on_c, 0, 76, 0
2, 46560, Note_on_c, 0, 81, 59
2, 46720, Note_on_c, 0, 80, 59
2, 46722, Note_on_c, 0, 81, 0
2, 46760, Note_on_c, 0, 80, 0
2, 46760, Note_on_c, 0, 83, 59
2, 46800, Note_on_c, 0, 83, 0
2, 46800, Note_on_c, 0, 81, 59
2, 46840, Note_on_c, 0, 81, 0
2, 46840, Note_on_c, 0, 79, 59
2, 46880, Note_on_c, 0, 79, 0
2, 46880, Note_on_c, 0, 77, 59
2, 46920, Note_on_c, 0, 77, 0
2, 46920, Note_on_c, 0, 76, 59
2, 46960, Note_on_c, 0, 76, 0
2, 46960, Note_on_c, 0, 77, 59
2, 47000, Note_on_c, 0, 77, 0
2, 47000, Note_on_c, 0, 74, 59
2, 47040, Note_on_c, 0, 74, 0
2, 47040, Note_on_c, 0, 72, 59
2, 47195, Note_on_c, 0, 72, 0
2, 47200, Note_on_c, 0, 76, 59
2, 47240, Note_on_c, 0, 76, 0
2, 47240, Note_on_c, 0, 72, 59
2, 47280, Note_on_c, 0, 72, 0
2, 47280, Note_on_c, 0, 71, 59
2, 47435, Note_on_c, 0, 71, 0
2, 47440, Note_on_c, 0, 74, 62
2, 47480, Note_on_c, 0, 74, 0
2, 47480, Note_on_c, 0, 79, 65
2, 47520, Note_on_c, 0, 79, 0
2, 47520, Note_on_c, 0, 77, 66
2, 47680, Note_on_c, 0, 77, 0
2, 47680, Note_on_c, 0, 76, 72
2, 47720, Note_on_c, 0, 76, 0
2, 47720, Note_on_c, 0, 77, 75
2, 47760, Note_on_c, 0, 77, 0
2, 47760, Note_on_c, 0, 78, 75
2, 47800, Note_on_c, 0, 78, 0
2, 47800, Note_on_c, 0, 79, 76
2, 47840, Note_on_c, 0, 79, 0
2, 47840, Note_on_c, 0, 80, 80
2, 47880, Note_on_c, 0, 80, 0
2, 47880, Note_on_c, 0, 81, 81
2, 47920, Note_on_c, 0, 81, 0
2, 47920, Note_on_c, 0, 82, 81
2, 47960, Note_on_c, 0, 82, 0
2, 47960, Note_on_c, 0, 83, 81
2, 48000, Note_on_c, 0, 83, 0
2, 48000, Note_on_c, 0, 84, 81
2, 48160, Note_on_c, 0, 84, 0
2, 48165, Note_on_c, 0, 79, 81
2, 48195, Note_on_c, 0, 83, 81
2, 48205, Note_on_c, 0, 79, 0
2, 48235, Note_on_c, 0, 83, 0
2, 48240, Note_on_c, 0, 84, 82
2, 48280, Note_on_c, 0, 84, 0
2, 48280, Note_on_c, 0, 79, 83
2, 48320, Note_on_c, 0, 79, 0
2, 48320, Note_on_c, 0, 83, 83
2, 48360, Note_on_c, 0, 83, 0
2, 48360, Note_on_c, 0, 84, 83
2, 48400, Note_on_c, 0, 84, 0
2, 48400, Note_on_c, 0, 79, 84
2, 48440, Note_on_c, 0, 79, 0
2, 48440, Note_on_c, 0, 83, 85
2, 48480, Note_on_c, 0, 83, 0
2, 48480, Note_on_c, 0, 84, 85
2, 48640, Note_on_c, 0, 84, 0
2, 48645, Note_on_c, 0, 79, 85
2, 48675, Note_on_c, 0, 82, 85
2, 48685, Note_on_c, 0, 79, 0
2, 48715, Note_on_c, 0, 82, 0
2, 48720, Note_on_c, 0, 84, 85
2, 48760, Note_on_c, 0, 84, 0
2, 48760, Note_on_c, 0, 79, 85
2, 48800, Note_on_c, 0, 79, 0
2, 48800, Note_on_c, 0, 82, 85
2, 48840, Note_on_c, 0, 82, 0
2, 48840, Note_on_c, 0, 84, 85
2, 48880, Note_on_c, 0, 84, 0
2, 48880, Note_on_c, 0, 79, 85
2, 48920, Note_on_c, 0, 79, 0
2, 48920, Note_on_c, 0, 82, 85
2, 48960, Note_on_c, 0, 82, 0
2, 48960, Note_on_c, 0, 84, 78
2, 49120, Note_on_c, 0, 84, 0
2, 49120, Note_on_c, 0, 77, 56
2, 49160, Note_on_c, 0, 77, 0
2, 49160, Note_on_c, 0, 81, 56
2, 49200, Note_on_c, 0, 81, 0
2, 49200, Note_on_c, 0, 82, 57
2, 49360, Note_on_c, 0, 82, 0
2, 49360, Note_on_c, 0, 74, 58
2, 49400, Note_on_c, 0, 74, 0
2, 49400, Note_on_c, 0, 79, 58
2, 49440, Note_on_c, 0, 79, 0
2, 49440, Note_on_c, 0, 81, 58
2, 49600, Note_on_c, 0, 81, 0
2, 49600, Note_on_c, 0, 72, 59
2, 49640, Note_on_c, 0, 72, 0
2, 49640, Note_on_c, 0, 77, 59
2, 49680, Note_on_c, 0, 77, 0
2, 49680, Note_on_c, 0, 79, 60
2, 49840, Note_on_c, 0, 79, 0
2, 49840, Note_on_c, 0, 70, 60
2, 49880, Note_on_c, 0, 70, 0
2, 49880, Note_on_c, 0, 76, 60
2, 49920, Note_on_c, 0, 76, 0
2, 49960, Note_on_c, 0, 77, 40
2, 50000, Note_on_c, 0, 77, 0
2, 50000, Note_on_c, 0, 72, 40
2, 50040, Note_on_c, 0, 72, 0
2, 50080, Note_on_c, 0, 81, 40
2, 50120, Note_on_c, 0, 81, 0
2, 50120, Note_on_c, 0, 72, 40
2, 50160, Note_on_c, 0, 72, 0
2, 50200, Note_on_c, 0, 81, 40
2, 50240, Note_on_c, 0, 81, 0
2, 50240, Note_on_c, 0, 72, 40
2, 50280, Note_on_c, 0, 72, 0
2, 50320, Note_on_c, 0, 84, 40
2, 50360, Note_on_c, 0, 84, 0
2, 50360, Note_on_c, 0, 72, 40
2, 50400, Note_on_c, 0, 72, 0
2, 50440, Note_on_c, 0, 82, 40
2, 50480, Note_on_c, 0, 82, 0
2, 50480, Note_on_c, 0, 72, 40
2, 50520, Note_on_c, 0, 72, 0
2, 50560, Note_on_c, 0, 79, 40
2, 50600, Note_on_c, 0, 79, 0
2, 50600, Note_on_c, 0, 72, 40
2, 50640, Note_on_c, 0, 72, 0
2, 50680, Note_on_c, 0, 76, 40
2, 50720, Note_on_c, 0, 76, 0
2, 50720, Note_on_c, 0, 72, 40
2, 50760, Note_on_c, 0, 72, 0
2, 50800, Note_on_c, 0, 79, 40
2, 50840, Note_on_c, 0, 79, 0
2, 50840, Note_on_c, 0, 72, 40
2, 50880, Note_on_c, 0, 72, 0
2, 50920, Note_on_c, 0, 77, 40
2, 50960, Note_on_c, 0, 77, 0
2, 50960, Note_on_c, 0, 72, 40
2, 51000, Note_on_c, 0, 72, 0
2, 51040, Note_on_c, 0, 84, 40
2, 51080, Note_on_c, 0, 84, 0
2, 51080, Note_on_c, 0, 72, 40
2, 51120, Note_on_c, 0, 72, 0
2, 51160, Note_on_c, 0, 83, 40
2, 51200, Note_on_c, 0, 83, 0
2, 51200, Note_on_c, 0, 72, 40
2, 51240, Note_on_c, 0, 72, 0
2, 51280, Note_on_c, 0, 84, 40
2, 51320, Note_on_c, 0, 84, 0
2, 51320, Note_on_c, 0, 72, 40
2, 51360, Note_on_c, 0, 72, 0
2, 51400, Note_on_c, 0, 82, 40
2, 51440, Note_on_c, 0, 82, 0
2, 51440, Note_on_c, 0, 72, 40
2, 51480, Note_on_c, 0, 72, 0
2, 51520, Note_on_c, 0, 79, 40
2, 51560, Note_on_c, 0, 79, 0
2, 51560, Note_on_c, 0, 72, 40
2, 51600, Note_on_c, 0, 72, 0
2, 51640, Note_on_c, 0, 76, 40
2, 51680, Note_on_c, 0, 76, 0
2, 51680, Note_on_c, 0, 72, 40
2, 51720, Note_on_c, 0, 72, 0
2, 51760, Note_on_c, 0, 79, 40
2, 51800, Note_on_c, 0, 79, 0
2, 51800, Note_on_c, 0, 72, 40
2, 51840, Note_on_c, 0, 72, 0
2, 51880, Note_on_c, 0, 77, 40
2, 51920, Note_on_c, 0, 77, 0
2, 51920, Note_on_c, 0, 72, 40
2, 51960, Note_on_c, 0, 72, 0
2, 52000, Note_on_c, 0, 81, 40
2, 52040, Note_on_c, 0, 81, 0
2, 52040, Note_on_c, 0, 72, 40
2, 52080, Note_on_c, 0, 72, 0
2, 52120, Note_on_c, 0, 81, 40
2, 52160, Note_on_c, 0, 81, 0
2, 52160, Note_on_c, 0, 74, 40
2, 52200, Note_on_c, 0, 74, 0
2, 52240, Note_on_c, 0, 79, 40
2, 52280, Note_on_c, 0, 79, 0
2, 52280, Note_on_c, 0, 74, 40
2, 52320, Note_on_c, 0, 74, 0
2, 52360, Note_on_c, 0, 77, 40
2, 52400, Note_on_c, 0, 77, 0
2, 52400, Note_on_c, 0, 72, 40
2, 52440, Note_on_c, 0, 72, 0
2, 52480, Note_on_c, 0, 76, 40
2, 52520, Note_on_c, 0, 76, 0
2, 52520, Note_on_c, 0, 72, 40
2, 52560, Note_on_c, 0, 72, 0
2, 52600, Note_on_c, 0, 76, 40
2, 52640, Note_on_c, 0, 76, 0
2, 52640, Note_on_c, 0, 71, 40
2, 52680, Note_on_c, 0, 71, 0
2, 52720, Note_on_c, 0, 74, 40
2, 52760, Note_on_c, 0, 74, 0
2, 52760, Note_on_c, 0, 71, 40
2, 52800, Note_on_c, 0, 71, 0
2, 52840, Note_on_c, 0, 72, 40
2, 52880, Note_on_c, 0, 72, 0
2, 52880, Note_on_c, 0, 67, 40
2, 52920, Note_on_c, 0, 67, 0
2, 52960, Note_on_c, 0, 76, 40
2, 53000, Note_on_c, 0, 76, 0
2, 53000, Note_on_c, 0, 67, 40
2, 53040, Note_on_c, 0, 67, 0
2, 53080, Note_on_c, 0, 76, 40
2, 53120, Note_on_c, 0, 76, 0
2, 53120, Note_on_c, 0, 67, 40
2, 53160, Note_on_c, 0, 67, 0
2, 53200, Note_on_c, 0, 79, 40
2, 53240, Note_on_c, 0, 79, 0
2, 53240, Note_on_c, 0, 67, 40
2, 53280, Note_on_c, 0, 67, 0
2, 53320, Note_on_c, 0, 77, 40
2, 53360, Note_on_c, 0, 77, 0
2, 53360, Note_on_c, 0, 67, 40
2, 53400, Note_on_c, 0, 67, 0
2, 53440, Note_on_c, 0, 74, 40
2, 53480, Note_on_c, 0, 74, 0
2, 53480, Note_on_c, 0, 67, 40
2, 53520, Note_on_c, 0, 67, 0
2, 53560, Note_on_c, 0, 71, 40
2, 53600, Note_on_c, 0, 71, 0
2, 53600, Note_on_c, 0, 67, 40
2, 53640, Note_on_c, 0, 67, 0
2, 53680, Note_on_c, 0, 74, 40
2, 53720, Note_on_c, 0, 74, 0
2, 53720, Note_on_c, 0, 67, 40
2, 53760, Note_on_c, 0, 67, 0
2, 53800, Note_on_c, 0, 72, 40
2, 53840, Note_on_c, 0, 72, 0
2, 53840, Note_on_c, 0, 67, 40
2, 53880, Note_on_c, 0, 67, 0
2, 53920, Note_on_c, 0, 79, 40
2, 53960, Note_on_c, 0, 79, 0
2, 53960, Note_on_c, 0, 67, 40
2, 54000, Note_on_c, 0, 67, 0
2, 54040, Note_on_c, 0, 78, 40
2, 54080, Note_on_c, 0, 78, 0
2, 54080, Note_on_c, 0, 67, 40
2, 54120, Note_on_c, 0, 67, 0
2, 54160, Note_on_c, 0, 79, 40
2, 54200, Note_on_c, 0, 79, 0
2, 54200, Note_on_c, 0, 67, 40
2, 54240, Note_on_c, 0, 67, 0
2, 54280, Note_on_c, 0, 77, 40
2, 54320, Note_on_c, 0, 77, 0
2, 54320, Note_on_c, 0, 67, 40
2, 54360, Note_on_c, 0, 67, 0
2, 54400, Note_on_c, 0, 74, 40
2, 54440, Note_on_c, 0, 74, 0
2, 54440, Note_on_c, 0, 67, 40
2, 54480, Note_on_c, 0, 67, 0
2, 54520, Note_on_c, 0, 71, 40
2, 54560, Note_on_c, 0, 71, 0
2, 54560, Note_on_c, 0, 67, 40
2, 54600, Note_on_c, 0, 67, 0
2, 54640, Note_on_c, 0, 74, 41
2, 54680, Note_on_c, 0, 74, 0
2, 54680, Note_on_c, 0, 67, 41
2, 54720, Note_on_c, 0, 67, 0
2, 54760, Note_on_c, 0, 72, 41
2, 54795, Note_on_c, 0, 67, 41
2, 54800, Note_on_c, 0, 72, 0
2, 54835, Note_on_c, 0, 67, 0
2, 54880, Note_on_c, 0, 73, 41
2, 54915, Note_on_c, 0, 67, 41
2, 54920, Note_on_c, 0, 73, 0
2, 54955, Note_on_c, 0, 67, 0
2, 55000, Note_on_c, 0, 76, 51
2, 55035, Note_on_c, 0, 69, 52
2, 55040, Note_on_c, 0, 76, 0
2, 55075, Note_on_c, 0, 69, 0
2, 55120, Note_on_c, 0, 74, 60
2, 55155, Note_on_c, 0, 69, 62
2, 55160, Note_on_c, 0, 74, 0
2, 55195, Note_on_c, 0, 69, 0
2, 55240, Note_on_c, 0, 77, 65
2, 55280, Note_on_c, 0, 77, 0
2, 55280, Note_on_c, 0, 71, 67
2, 55320, Note_on_c, 0, 71, 0
2, 55360, Note_on_c, 0, 76, 70
2, 55400, Note_on_c, 0, 76, 0
2, 55400, Note_on_c, 0, 71, 73
2, 55440, Note_on_c, 0, 71, 0
2, 55480, Note_on_c, 0, 77, 77
2, 55520, Note_on_c, 0, 77, 0
2, 55520, Note_on_c, 0, 71, 78
2, 55560, Note_on_c, 0, 71, 0
2, 55600, Note_on_c, 0, 76, 86
2, 55640, Note_on_c, 0, 76, 0
2, 55640, Note_on_c, 0, 71, 89
2, 55680, Note_on_c, 0, 71, 0
2, 55720, Note_on_c, 0, 72, 97
2, 55760, Note_on_c, 0, 72, 0
2, 55760, Note_on_c, 0, 76, 100
2, 55800, Note_on_c, 0, 76, 0
2, 55840, Note_on_c, 0, 71, 39
2, 55880, Note_on_c, 0, 71, 0
2, 55880, Note_on_c, 0, 76, 39
2, 55920, Note_on_c, 0, 76, 0
2, 55960, Note_on_c, 0, 72, 39
2, 56000, Note_on_c, 0, 72, 0
2, 56000, Note_on_c, 0, 76, 39
2, 56040, Note_on_c, 0, 76, 0
2, 56080, Note_on_c, 0, 71, 39
2, 56120, Note_on_c, 0, 71, 0
2, 56120, Note_on_c, 0, 76, 39
2, 56160, Note_on_c, 0, 76, 0
2, 56200, Note_on_c, 0, 72, 39
2, 56235, Note_on_c, 0, 76, 39
2, 56240, Note_on_c, 0, 72, 0
2, 56275, Note_on_c, 0, 76, 0
2, 56320, Note_on_c, 0, 81, 39
2, 56320, Note_on_c, 0, 77, 39
2, 56360, Note_on_c, 0, 77, 0
2, 56360, Note_on_c, 0, 81, 0
2, 56360, Note_on_c, 0, 72, 39
2, 56400, Note_on_c, 0, 72, 0
2, 56440, Note_on_c, 0, 79, 39
2, 56440, Note_on_c, 0, 76, 39
2, 56480, Note_on_c, 0, 76, 0
2, 56480, Note_on_c, 0, 79, 0
2, 56480, Note_on_c, 0, 72, 39
2, 56520, Note_on_c, 0, 72, 0
2, 56560, Note_on_c, 0, 79, 39
2, 56560, Note_on_c, 0, 74, 39
2, 56600, Note_on_c, 0, 74, 0
2, 56600, Note_on_c, 0, 79, 0
2, 56600, Note_on_c, 0, 71, 39
2, 56640, Note_on_c, 0, 71, 0
2, 56680, Note_on_c, 0, 75, 39
2, 56720, Note_on_c, 0, 75, 0
2, 56720, Note_on_c, 0, 76, 39
2, 56760, Note_on_c, 0, 76, 0
2, 56800, Note_on_c, 0, 71, 39
2, 56800, Note_on_c, 0, 83, 109
2, 56840, Note_on_c, 0, 83, 0
2, 56840, Note_on_c, 0, 71, 0
2, 56840, Note_on_c, 0, 76, 105
2, 56880, Note_on_c, 0, 76, 0
2, 56920, Note_on_c, 0, 72, 102
2, 56920, Note_on_c, 0, 84, 102
2, 56960, Note_on_c, 0, 84, 0
2, 56960, Note_on_c, 0, 72, 0
2, 56960, Note_on_c, 0, 76, 100
2, 57000, Note_on_c, 0, 76, 0
2, 57040, Note_on_c, 0, 71, 97
2, 57040, Note_on_c, 0, 83, 97
2, 57080, Note_on_c, 0, 83, 0
2, 57080, Note_on_c, 0, 71, 0
2, 57080, Note_on_c, 0, 76, 95
2, 57120, Note_on_c, 0, 76, 0
2, 57160, Note_on_c, 0, 84, 91
2, 57160, Note_on_c, 0, 72, 91
2, 57200, Note_on_c, 0, 72, 0
2, 57200, Note_on_c, 0, 84, 0
2, 57200, Note_on_c, 0, 76, 89
2, 57240, Note_on_c, 0, 76, 0
2, 57280, Note_on_c, 0, 81, 86
2, 57280, Note_on_c, 0, 77, 86
2, 57320, Note_on_c, 0, 77, 0
2, 57320, Note_on_c, 0, 81, 0
2, 57320, Note_on_c, 0, 72, 83
2, 57360, Note_on_c, 0, 72, 0
2, 57400, Note_on_c, 0, 79, 77
2, 57400, Note_on_c, 0, 76, 77
2, 57440, Note_on_c, 0, 76, 0
2, 57440, Note_on_c, 0, 79, 0
2, 57440, Note_on_c, 0, 72, 75
2, 57480, Note_on_c, 0, 72, 0
2, 57520, Note_on_c, 0, 74, 72
2, 57520, Note_on_c, 0, 77, 72
2, 57560, Note_on_c, 0, 77, 0
2, 57560, Note_on_c, 0, 74, 0
2, 57560, Note_on_c, 0, 71, 71
2, 57600, Note_on_c, 0, 71, 0
2, 57640, Note_on_c, 0, 72, 68
2, 57680, Note_on_c, 0, 72, 0
2, 57680, Note_on_c, 0, 76, 67
2, 57720, Note_on_c, 0, 76, 0
2, 57760, Note_on_c, 0, 70, 64
2, 57800, Note_on_c, 0, 70, 0
2, 57800, Note_on_c, 0, 79, 62
2, 57840, Note_on_c, 0, 79, 0
2, 57880, Note_on_c, 0, 69, 60
2, 57920, Note_on_c, 0, 69, 0
2, 57920, Note_on_c, 0, 79, 59
2, 57960, Note_on_c, 0, 79, 0
2, 58000, Note_on_c, 0, 71, 56
2, 58040, Note_on_c, 0, 71, 0
2, 58040, Note_on_c, 0, 77, 54
2, 58080, Note_on_c, 0, 77, 0
2, 58120, Note_on_c, 0, 72, 52
2, 58160, Note_on_c, 0, 72, 0
2, 58160, Note_on_c, 0, 77, 51
2, 58200, Note_on_c, 0, 77, 0
2, 58240, Note_on_c, 0, 67, 49
2, 58280, Note_on_c, 0, 67, 0
2, 58280, Note_on_c, 0, 76, 47
2, 58320, Note_on_c, 0, 76, 0
2, 58360, Note_on_c, 0, 65, 43
2, 58400, Note_on_c, 0, 65, 0
2, 58400, Note_on_c, 0, 76, 41
2, 58440, Note_on_c, 0, 76, 0
2, 58480, Note_on_c, 0, 65, 37
2, 58520, Note_on_c, 0, 65, 0
2, 58520, Note_on_c, 0, 74, 36
2, 58560, Note_on_c, 0, 74, 0
2, 58600, Note_on_c, 0, 64, 34
2, 58640, Note_on_c, 0, 64, 0
2, 58640, Note_on_c, 0, 72, 33
2, 58680, Note_on_c, 0, 72, 0
2, 58720, Note_on_c, 0, 82, 32
2, 58720, Note_on_c, 0, 79, 32
2, 58760, Note_on_c, 0, 79, 0
2, 58760, Note_on_c, 0, 82, 0
2, 58760, Note_on_c, 0, 84, 31
2, 58800, Note_on_c, 0, 84, 0
2, 58840, Note_on_c, 0, 81, 31
2, 58845, Note_on_c, 0, 78, 31
2, 58880, Note_on_c, 0, 81, 0
2, 58880, Note_on_c, 0, 84, 31
2, 58885, Note_on_c, 0, 78, 0
2, 58920, Note_on_c, 0, 84, 0
2, 58960, Note_on_c, 0, 83, 30
2, 58960, Note_on_c, 0, 77, 30
2, 59000, Note_on_c, 0, 77, 0
2, 59000, Note_on_c, 0, 83, 0
2, 59000, Note_on_c, 0, 84, 30
2, 59040, Note_on_c, 0, 84, 0
2, 59080, Note_on_c, 0, 76, 57
2, 59080, Note_on_c, 0, 79, 57
2, 59115, Note_on_c, 0, 84, 60
2, 59120, Note_on_c, 0, 79, 0
2, 59120, Note_on_c, 0, 76, 0
2, 59155, Note_on_c, 0, 84, 0
2, 59200, Note_on_c, 0, 78, 67
2, 59200, Note_on_c, 0, 75, 67
2, 59240, Note_on_c, 0, 75, 0
2, 59240, Note_on_c, 0, 78, 0
2, 59240, Note_on_c, 0, 84, 69
2, 59280, Note_on_c, 0, 84, 0
2, 59320, Note_on_c, 0, 74, 73
2, 59320, Note_on_c, 0, 77, 73
2, 59360, Note_on_c, 0, 77, 0
2, 59360, Note_on_c, 0, 74, 0
2, 59360, Note_on_c, 0, 84, 76
2, 59400, Note_on_c, 0, 84, 0
2, 59440, Note_on_c, 0, 74, 86
2, 59440, Note_on_c, 0, 77, 86
2, 59480, Note_on_c, 0, 77, 0
2, 59480, Note_on_c, 0, 74, 0
2, 59480, Note_on_c, 0, 83, 95
2, 59520, Note_on_c, 0, 83, 0
2, 59520, Note_on_c, 0, 84, 30
2, 59560, Note_on_c, 0, 84, 0
2, 59560, Note_on_c, 0, 79, 28
2, 59600, Note_on_c, 0, 79, 0
2, 59600, Note_on_c, 0, 76, 27
2, 59640, Note_on_c, 0, 76, 0
2, 59640, Note_on_c, 0, 72, 27
2, 59680, Note_on_c, 0, 72, 0
2, 59680, Note_on_c, 0, 67, 26
2, 59720, Note_on_c, 0, 67, 0
2, 59720, Note_on_c, 0, 64, 25
2, 59760, Note_on_c, 0, 64, 0
2, 59760, Note_on_c, 0, 72, 25
2, 59800, Note_on_c, 0, 72, 0
2, 59800, Note_on_c, 0, 67, 24
2, 59840, Note_on_c, 0, 67, 0
2, 59840, Note_on_c, 0, 64, 23
2, 59880, Note_on_c, 0, 64, 0
2, 60240, Note_on_c, 0, 79, 66
2, 60300, Note_on_c, 0, 79, 0
2, 60300, Note_on_c, 0, 81, 67
2, 60315, Note_on_c, 0, 81, 0
2, 60315, Note_on_c, 0, 79, 67
2, 60330, Note_on_c, 0, 79, 0
2, 60330, Note_on_c, 0, 81, 67
2, 60345, Note_on_c, 0, 81, 0
2, 60345, Note_on_c, 0, 79, 67
2, 60360, Note_on_c, 0, 79, 0
2, 60360, Note_on_c, 0, 81, 67
2, 60375, Note_on_c, 0, 81, 0
2, 60375, Note_on_c, 0, 79, 67
2, 60390, Note_on_c, 0, 79, 0
2, 60390, Note_on_c, 0, 81, 67
2, 60405, Note_on_c, 0, 81, 0
2, 60405, Note_on_c, 0, 79, 67
2, 60420, Note_on_c, 0, 79, 0
2, 60420, Note_on_c, 0, 81, 67
2, 60435, Note_on_c, 0, 81, 0
2, 60435, Note_on_c, 0, 79, 67
2, 60450, Note_on_c, 0, 79, 0
2, 60450, Note_on_c, 0, 77, 67
2, 60465, Note_on_c, 0, 77, 0
2, 60465, Note_on_c, 0, 79, 67
2, 60480, Note_on_c, 0, 79, 0
2, 60480, Note_on_c, 0, 82, 67
2, 60540, Note_on_c, 0, 82, 0
2, 60540, Note_on_c, 0, 79, 67
2, 60600, Note_on_c, 0, 79, 0
2, 60600, Note_on_c, 0, 75, 67
2, 60660, Note_on_c, 0, 75, 0
2, 60660, Note_on_c, 0, 70, 67
2, 60720, Note_on_c, 0, 70, 0
2, 60960, Note_on_c, 0, 79, 70
2, 61020, Note_on_c, 0, 79, 0
2, 61020, Note_on_c, 0, 75, 71
2, 61080, Note_on_c, 0, 75, 0
2, 61080, Note_on_c, 0, 70, 71
2, 61140, Note_on_c, 0, 70, 0
2, 61140, Note_on_c, 0, 67, 71
2, 61200, Note_on_c, 0, 67, 0
2, 61440, Note_on_c, 0, 79, 80
2, 61500, Note_on_c, 0, 79, 0
2, 61500, Note_on_c, 0, 75, 84
2, 61560, Note_on_c, 0, 75, 0
2, 61560, Note_on_c, 0, 70, 86
2, 61620, Note_on_c, 0, 70, 0
2, 61620, Note_on_c, 0, 67, 88
2, 61680, Note_on_c, 0, 67, 0
2, 61680, Note_on_c, 0, 79, 90
2, 61740, Note_on_c, 0, 79, 0
2, 61740, Note_on_c, 0, 75, 92
2, 61800, Note_on_c, 0, 75, 0
2, 61800, Note_on_c, 0, 70, 94
2, 61860, Note_on_c, 0, 70, 0
2, 61860, Note_on_c, 0, 67, 97
2, 61920, Note_on_c, 0, 67, 0
2, 61920, Note_on_c, 0, 75, 119
2, 61920, Note_on_c, 0, 70, 119
2, 61920, Note_on_c, 0, 68, 119
2, 61920, Note_on_c, 0, 80, 119
2, 62160, Note_on_c, 0, 75, 0
2, 62160, Note_on_c, 0, 74, 119
2, 62220, Note_on_c, 0, 74, 0
2, 62220, Note_on_c, 0, 80, 0
2, 62220, Note_on_c, 0, 68, 0
2, 62220, Note_on_c, 0, 70, 0
2, 62400, Note_on_c, 0, 80, 80
2, 62460, Note_on_c, 0, 80, 0
2, 62460, Note_on_c, 0, 77, 84
2, 62520, Note_on_c, 0, 77, 0
2, 62520, Note_on_c, 0, 70, 86
2, 62580, Note_on_c, 0, 70, 0
2, 62580, Note_on_c, 0, 68, 88
2, 62640, Note_on_c, 0, 68, 0
2, 62640, Note_on_c, 0, 80, 90
2, 62700, Note_on_c, 0, 80, 0
2, 62700, Note_on_c, 0, 74, 92
2, 62760, Note_on_c, 0, 74, 0
2, 62760, Note_on_c, 0, 70, 94
2, 62820, Note_on_c, 0, 70, 0
2, 62820, Note_on_c, 0, 68, 97
2, 62880, Note_on_c, 0, 68, 0
2, 62880, Note_on_c, 0, 73, 119
2, 62880, Note_on_c, 0, 70, 119
2, 62880, Note_on_c, 0, 77, 119
2, 62880, Note_on_c, 0, 82, 119
2, 63120, Note_on_c, 0, 77, 0
2, 63120, Note_on_c, 0, 76, 119
2, 63180, Note_on_c, 0, 76, 0
2, 63180, Note_on_c, 0, 82, 0
2, 63180, Note_on_c, 0, 70, 0
2, 63180, Note_on_c, 0, 73, 0
2, 63360, Note_on_c, 0, 82, 60
2, 63420, Note_on_c, 0, 82, 0
2, 63420, Note_on_c, 0, 76, 63
2, 63480, Note_on_c, 0, 76, 0
2, 63480, Note_on_c, 0, 73, 66
2, 63540, Note_on_c, 0, 73, 0
2, 63540, Note_on_c, 0, 70, 67
2, 63600, Note_on_c, 0, 70, 0
2, 63600, Note_on_c, 0, 82, 69
2, 63660, Note_on_c, 0, 82, 0
2, 63660, Note_on_c, 0, 76, 70
2, 63720, Note_on_c, 0, 76, 0
2, 63720, Note_on_c, 0, 73, 72
2, 63780, Note_on_c, 0, 73, 0
2, 63780, Note_on_c, 0, 70, 74
2, 63840, Note_on_c, 0, 70, 0
2, 63900, Note_on_c, 0, 82, 56
2, 63960, Note_on_c, 0, 82, 0
2, 63960, Note_on_c, 0, 77, 56
2, 64020, Note_on_c, 0, 77, 0
2, 64020, Note_on_c, 0, 72, 56
2, 64080, Note_on_c, 0, 72, 0
2, 64140, Note_on_c, 0, 84, 56
2, 64200, Note_on_c, 0, 84, 0
2, 64200, Note_on_c, 0, 77, 56
2, 64260, Note_on_c, 0, 77, 0
2, 64260, Note_on_c, 0, 72, 55
2, 64320, Note_on_c, 0, 72, 0
2, 64380, Note_on_c, 0, 84, 54
2, 64440, Note_on_c, 0, 84, 0
2, 64440, Note_on_c, 0, 76, 53
2, 64500, Note_on_c, 0, 76, 0
2, 64500, Note_on_c, 0, 72, 53
2, 64560, Note_on_c, 0, 72, 0
2, 64620, Note_on_c, 0, 82, 53
2, 64680, Note_on_c, 0, 82, 0
2, 64680, Note_on_c, 0, 76, 53
2, 64740, Note_on_c, 0, 76, 0
2, 64740, Note_on_c, 0, 72, 53
2, 64800, Note_on_c, 0, 72, 0
2, 64860, Note_on_c, 0, 82, 53
2, 64920, Note_on_c, 0, 82, 0
2, 64920, Note_on_c, 0, 77, 53
2, 64980, Note_on_c, 0, 77, 0
2, 64980, Note_on_c, 0, 72, 53
2, 65040, Note_on_c, 0, 72, 0
2, 65100, Note_on_c, 0, 80, 53
2, 65160, Note_on_c, 0, 80, 0
2, 65160, Note_on_c, 0, 72, 53
2, 65220, Note_on_c, 0, 72, 0
2, 65220, Note_on_c, 0, 68, 53
2, 65280, Note_on_c, 0, 68, 0
2, 65340, Note_on_c, 0, 80, 53
2, 65400, Note_on_c, 0, 80, 0
2, 65400, Note_on_c, 0, 70, 53
2, 65460, Note_on_c, 0, 70, 0
2, 65460, Note_on_c, 0, 68, 53
2, 65520, Note_on_c, 0, 68, 0
2, 65580, Note_on_c, 0, 78, 53
2, 65640, Note_on_c, 0, 78, 0
2, 65640, Note_on_c, 0, 72, 53
2, 65700, Note_on_c, 0, 72, 0
2, 65700, Note_on_c, 0, 68, 53
2, 65760, Note_on_c, 0, 68, 0
2, 65760, Note_on_c, 0, 77, 40
2, 65820, Note_on_c, 0, 77, 0
2, 65820, Note_on_c, 0, 73, 40
2, 65880, Note_on_c, 0, 73, 0
2, 65880, Note_on_c, 0, 68, 40
2, 65940, Note_on_c, 0, 68, 0
2, 65940, Note_on_c, 0, 65, 40
2, 66000, Note_on_c, 0, 65, 0
2, 66240, Note_on_c, 0, 77, 40
2, 66300, Note_on_c, 0, 77, 0
2, 66300, Note_on_c, 0, 73, 40
2, 66360, Note_on_c, 0, 73, 0
2, 66360, Note_on_c, 0, 68, 40
2, 66420, Note_on_c, 0, 68, 0
2, 66420, Note_on_c, 0, 65, 40
2, 66480, Note_on_c, 0, 65, 0
2, 66720, Note_on_c, 0, 77, 61
2, 66780, Note_on_c, 0, 77, 0
2, 66780, Note_on_c, 0, 73, 66
2, 66840, Note_on_c, 0, 73, 0
2, 66840, Note_on_c, 0, 68, 69
2, 66900, Note_on_c, 0, 68, 0
2, 66900, Note_on_c, 0, 65, 74
2, 66960, Note_on_c, 0, 65, 0
2, 66960, Note_on_c, 0, 77, 77
2, 67020, Note_on_c, 0, 77, 0
2, 67020, Note_on_c, 0, 72, 81
2, 67080, Note_on_c, 0, 72, 0
2, 67080, Note_on_c, 0, 68, 85
2, 67140, Note_on_c, 0, 68, 0
2, 67140, Note_on_c, 0, 65, 87
2, 67200, Note_on_c, 0, 65, 0
2, 67200, Note_on_c, 0, 77, 95
2, 67260, Note_on_c, 0, 77, 0
2, 67260, Note_on_c, 0, 74, 89
2, 67320, Note_on_c, 0, 74, 0
2, 67320, Note_on_c, 0, 68, 79
2, 67380, Note_on_c, 0, 68, 0
2, 67380, Note_on_c, 0, 65, 74
2, 67440, Note_on_c, 0, 65, 0
2, 67440, Note_on_c, 0, 75, 72
2, 67500, Note_on_c, 0, 75, 0
2, 67500, Note_on_c, 0, 72, 68
2, 67560, Note_on_c, 0, 72, 0
2, 67560, Note_on_c, 0, 67, 65
2, 67620, Note_on_c, 0, 67, 0
2, 67620, Note_on_c, 0, 63, 65
2, 67680, Note_on_c, 0, 63, 0
2, 67680, Note_on_c, 0, 74, 65
2, 67740, Note_on_c, 0, 74, 0
2, 67740, Note_on_c, 0, 72, 65
2, 67800, Note_on_c, 0, 72, 0
2, 67800, Note_on_c, 0, 68, 65
2, 67860, Note_on_c, 0, 68, 0
2, 67860, Note_on_c, 0, 62, 65
2, 67920, Note_on_c, 0, 62, 0
2, 67920, Note_on_c, 0, 74, 65
2, 67980, Note_on_c, 0, 74, 0
2, 67980, Note_on_c, 0, 72, 65
2, 68040, Note_on_c, 0, 72, 0
2, 68040, Note_on_c, 0, 68, 65
2, 68100, Note_on_c, 0, 68, 0
2, 68100, Note_on_c, 0, 62, 65
2, 68160, Note_on_c, 0, 62, 0
2, 68160, Note_on_c, 0, 74, 65
2, 68220, Note_on_c, 0, 74, 0
2, 68220, Note_on_c, 0, 72, 65
2, 68280, Note_on_c, 0, 72, 0
2, 68280, Note_on_c, 0, 69, 65
2, 68340, Note_on_c, 0, 69, 0
2, 68340, Note_on_c, 0, 62, 65
2, 68400, Note_on_c, 0, 62, 0
2, 68400, Note_on_c, 0, 74, 65
2, 68460, Note_on_c, 0, 74, 0
2, 68460, Note_on_c, 0, 72, 65
2, 68520, Note_on_c, 0, 72, 0
2, 68520, Note_on_c, 0, 69, 65
2, 68580, Note_on_c, 0, 69, 0
2, 68580, Note_on_c, 0, 62, 65
2, 68640, Note_on_c, 0, 62, 0
2, 68680, Note_on_c, 0, 71, 45
2, 68720, Note_on_c, 0, 71, 0
2, 68720, Note_on_c, 0, 74, 45
2, 68760, Note_on_c, 0, 74, 0
2, 68760, Note_on_c, 0, 79, 45
2, 68880, Note_on_c, 0, 79, 0
2, 68920, Note_on_c, 0, 72, 45
2, 68960, Note_on_c, 0, 72, 0
2, 68960, Note_on_c, 0, 75, 45
2, 69000, Note_on_c, 0, 75, 0
2, 69000, Note_on_c, 0, 79, 45
2, 69120, Note_on_c, 0, 79, 0
2, 69160, Note_on_c, 0, 74, 45
2, 69200, Note_on_c, 0, 74, 0
2, 69200, Note_on_c, 0, 77, 45
2, 69240, Note_on_c, 0, 77, 0
2, 69240, Note_on_c, 0, 79, 45
2, 69360, Note_on_c, 0, 79, 0
2, 69400, Note_on_c, 0, 72, 45
2, 69440, Note_on_c, 0, 72, 0
2, 69440, Note_on_c, 0, 75, 45
2, 69480, Note_on_c, 0, 75, 0
2, 69480, Note_on_c, 0, 79, 45
2, 69600, Note_on_c, 0, 79, 0
2, 69645, Note_on_c, 0, 71, 43
2, 69675, Note_on_c, 0, 74, 45
2, 69685, Note_on_c, 0, 71, 0
2, 69715, Note_on_c, 0, 74, 0
2, 69720, Note_on_c, 0, 79, 48
2, 69840, Note_on_c, 0, 79, 0
2, 69880, Note_on_c, 0, 72, 55
2, 69920, Note_on_c, 0, 72, 0
2, 69920, Note_on_c, 0, 75, 57
2, 69960, Note_on_c, 0, 75, 0
2, 69960, Note_on_c, 0, 80, 59
2, 70080, Note_on_c, 0, 80, 0
2, 70120, Note_on_c, 0, 73, 66
2, 70160, Note_on_c, 0, 73, 0
2, 70160, Note_on_c, 0, 76, 68
2, 70200, Note_on_c, 0, 76, 0
2, 70200, Note_on_c, 0, 81, 69
2, 70320, Note_on_c, 0, 81, 0
2, 70360, Note_on_c, 0, 74, 83
2, 70400, Note_on_c, 0, 74, 0
2, 70400, Note_on_c, 0, 77, 86
2, 70440, Note_on_c, 0, 77, 0
2, 70440, Note_on_c, 0, 82, 88
2, 70560, Note_on_c, 0, 82, 0
2, 70600, Note_on_c, 0, 74, 110
2, 70640, Note_on_c, 0, 74, 0
2, 70640, Note_on_c, 0, 77, 110
2, 70680, Note_on_c, 0, 77, 0
2, 70860, Note_on_c, 0, 79, 59
2, 70920, Note_on_c, 0, 79, 0
2, 70920, Note_on_c, 0, 81, 59
2, 70935, Note_on_c, 0, 81, 0
2, 70935, Note_on_c, 0, 79, 59
2, 70950, Note_on_c, 0, 79, 0
2, 70950, Note_on_c, 0, 81, 59
2, 70965, Note_on_c, 0, 81, 0
2, 70965, Note_on_c, 0, 79, 59
2, 70980, Note_on_c, 0, 79, 0
2, 70980, Note_on_c, 0, 81, 59
2, 70995, Note_on_c, 0, 81, 0
2, 70995, Note_on_c, 0, 79, 59
2, 71010, Note_on_c, 0, 79, 0
2, 71010, Note_on_c, 0, 78, 59
2, 71025, Note_on_c, 0, 78, 0
2, 71025, Note_on_c, 0, 79, 59
2, 71040, Note_on_c, 0, 79, 0
2, 71040, Note_on_c, 0, 84, 59
2, 71040, Note_on_c, 0, 84, 59
2, 71100, Note_on_c, 0, 84, 0
2, 71100, Note_on_c, 0, 79, 59
2, 71160, Note_on_c, 0, 79, 0
2, 71160, Note_on_c, 0, 76, 59
2, 71220, Note_on_c, 0, 76, 0
2, 71220, Note_on_c, 0, 72, 59
2, 71280, Note_on_c, 0, 72, 0
2, 71280, Note_on_c, 0, 84, 0
2, 71520, Note_on_c, 0, 79, 59
2, 71580, Note_on_c, 0, 79, 0
2, 71580, Note_on_c, 0, 76, 59
2, 71640, Note_on_c, 0, 76, 0
2, 71640, Note_on_c, 0, 72, 59
2, 71700, Note_on_c, 0, 72, 0
2, 71700, Note_on_c, 0, 67, 59
2, 71760, Note_on_c, 0, 67, 0
2, 72000, Note_on_c, 0, 76, 62
2, 72060, Note_on_c, 0, 76, 0
2, 72060, Note_on_c, 0, 72, 65
2, 72120, Note_on_c, 0, 72, 0
2, 72120, Note_on_c, 0, 67, 68
2, 72180, Note_on_c, 0, 67, 0
2, 72180, Note_on_c, 0, 64, 70
2, 72240, Note_on_c, 0, 64, 0
2, 72240, Note_on_c, 0, 76, 76
2, 72300, Note_on_c, 0, 76, 0
2, 72300, Note_on_c, 0, 72, 80
2, 72360, Note_on_c, 0, 72, 0
2, 72360, Note_on_c, 0, 67, 86
2, 72420, Note_on_c, 0, 67, 0
2, 72420, Note_on_c, 0, 64, 96
2, 72480, Note_on_c, 0, 64, 0
2, 72480, Note_on_c, 0, 72, 105
2, 72480, Note_on_c, 0, 77, 105
2, 72480, Note_on_c, 0, 67, 105
2, 72720, Note_on_c, 0, 71, 109
2, 72722, Note_on_c, 0, 72, 0
2, 72780, Note_on_c, 0, 71, 0
2, 72780, Note_on_c, 0, 77, 59
2, 72782, Note_on_c, 0, 67, 0
2, 72782, Note_on_c, 0, 77, 0
2, 72840, Note_on_c, 0, 77, 0
2, 72840, Note_on_c, 0, 79, 59
2, 72855, Note_on_c, 0, 79, 0
2, 72855, Note_on_c, 0, 77, 59
2, 72870, Note_on_c, 0, 77, 0
2, 72870, Note_on_c, 0, 79, 59
2, 72885, Note_on_c, 0, 79, 0
2, 72885, Note_on_c, 0, 77, 59
2, 72900, Note_on_c, 0, 77, 0
2, 72900, Note_on_c, 0, 79, 59
2, 72915, Note_on_c, 0, 79, 0
2, 72915, Note_on_c, 0, 77, 59
2, 72930, Note_on_c, 0, 77, 0
2, 72930, Note_on_c, 0, 76, 59
2, 72945, Note_on_c, 0, 76, 0
2, 72945, Note_on_c, 0, 77, 59
2, 72960, Note_on_c, 0, 77, 0
2, 72960, Note_on_c, 0, 81, 59
2, 73020, Note_on_c, 0, 81, 0
2, 73020, Note_on_c, 0, 77, 59
2, 73080, Note_on_c, 0, 77, 0
2, 73080, Note_on_c, 0, 74, 59
2, 73140, Note_on_c, 0, 74, 0
2, 73140, Note_on_c, 0, 71, 59
2, 73200, Note_on_c, 0, 71, 0
2, 73440, Note_on_c, 0, 77, 59
2, 73500, Note_on_c, 0, 77, 0
2, 73500, Note_on_c, 0, 74, 59
2, 73560, Note_on_c, 0, 74, 0
2, 73560, Note_on_c, 0, 71, 59
2, 73620, Note_on_c, 0, 71, 0
2, 73620, Note_on_c, 0, 67, 59
2, 73680, Note_on_c, 0, 67, 0
2, 73920, Note_on_c, 0, 74, 62
2, 73980, Note_on_c, 0, 74, 0
2, 73980, Note_on_c, 0, 71, 65
2, 74040, Note_on_c, 0, 71, 0
2, 74040, Note_on_c, 0, 67, 68
2, 74100, Note_on_c, 0, 67, 0
2, 74100, Note_on_c, 0, 65, 70
2, 74160, Note_on_c, 0, 65, 0
2, 74160, Note_on_c, 0, 74, 76
2, 74220, Note_on_c, 0, 74, 0
2, 74220, Note_on_c, 0, 71, 80
2, 74280, Note_on_c, 0, 71, 0
2, 74280, Note_on_c, 0, 67, 86
2, 74340, Note_on_c, 0, 67, 0
2, 74340, Note_on_c, 0, 65, 93
2, 74400, Note_on_c, 0, 65, 0
2, 74400, Note_on_c, 0, 67, 109
2, 74400, Note_on_c, 0, 71, 109
2, 74400, Note_on_c, 0, 74, 109
2, 74400, Note_on_c, 0, 77, 119
2, 74640, Note_on_c, 0, 72, 89
2, 74640, Note_on_c, 0, 76, 89
2, 74645, Note_on_c, 0, 77, 0
2, 74645, Note_on_c, 0, 74, 0
2, 74645, Note_on_c, 0, 71, 0
2, 74700, Note_on_c, 0, 76, 0
2, 74700, Note_on_c, 0, 72, 0
2, 74700, Note_on_c, 0, 79, 59
2, 74705, Note_on_c, 0, 67, 0
2, 74760, Note_on_c, 0, 79, 0
2, 74760, Note_on_c, 0, 81, 59
2, 74775, Note_on_c, 0, 81, 0
2, 74775, Note_on_c, 0, 79, 59
2, 74790, Note_on_c, 0, 79, 0
2, 74790, Note_on_c, 0, 81, 59
2, 74805, Note_on_c, 0, 81, 0
2, 74805, Note_on_c, 0, 79, 59
2, 74820, Note_on_c, 0, 79, 0
2, 74820, Note_on_c, 0, 81, 59
2, 74835, Note_on_c, 0, 81, 0
2, 74835, Note_on_c, 0, 79, 59
2, 74850, Note_on_c, 0, 79, 0
2, 74850, Note_on_c, 0, 78, 59
2, 74865, Note_on_c, 0, 78, 0
2, 74865, Note_on_c, 0, 79, 59
2, 74880, Note_on_c, 0, 79, 0
2, 74880, Note_on_c, 0, 84, 59
2, 75037, Note_on_c, 0, 84, 0
2, 75040, Note_on_c, 0, 79, 59
2, 75080, Note_on_c, 0, 79, 0
2, 75080, Note_on_c, 0, 83, 59
2, 75120, Note_on_c, 0, 83, 0
2, 75120, Note_on_c, 0, 84, 59
2, 75160, Note_on_c, 0, 84, 0
2, 75160, Note_on_c, 0, 83, 59
2, 75200, Note_on_c, 0, 83, 0
2, 75200, Note_on_c, 0, 81, 59
2, 75240, Note_on_c, 0, 81, 0
2, 75240, Note_on_c, 0, 79, 59
2, 75280, Note_on_c, 0, 79, 0
2, 75280, Note_on_c, 0, 77, 59
2, 75320, Note_on_c, 0, 77, 0
2, 75320, Note_on_c, 0, 76, 59
2, 75360, Note_on_c, 0, 76, 0
2, 75360, Note_on_c, 0, 81, 59
2, 75520, Note_on_c, 0, 80, 59
2, 75522, Note_on_c, 0, 81, 0
2, 75560, Note_on_c, 0, 80, 0
2, 75560, Note_on_c, 0, 83, 59
2, 75600, Note_on_c, 0, 83, 0
2, 75600, Note_on_c, 0, 81, 59
2, 75640, Note_on_c, 0, 81, 0
2, 75640, Note_on_c, 0, 79, 59
2, 75680, Note_on_c, 0, 79, 0
2, 75680, Note_on_c, 0, 77, 59
2, 75720, Note_on_c, 0, 77, 0
2, 75720, Note_on_c, 0, 76, 59
2, 75760, Note_on_c, 0, 76, 0
2, 75760, Note_on_c, 0, 77, 59
2, 75800, Note_on_c, 0, 77, 0
2, 75800, Note_on_c, 0, 74, 59
2, 75840, Note_on_c, 0, 74, 0
2, 75840, Note_on_c, 0, 72, 59
2, 75995, Note_on_c, 0, 72, 0
2, 76000, Note_on_c, 0, 76, 59
2, 76040, Note_on_c, 0, 76, 0
2, 76040, Note_on_c, 0, 72, 59
2, 76080, Note_on_c, 0, 72, 0
2, 76080, Note_on_c, 0, 71, 59
2, 76235, Note_on_c, 0, 71, 0
2, 76240, Note_on_c, 0, 74, 62
2, 76280, Note_on_c, 0, 74, 0
2, 76280, Note_on_c, 0, 79, 65
2, 76320, Note_on_c, 0, 79, 0
2, 76320, Note_on_c, 0, 77, 66
2, 76480, Note_on_c, 0, 77, 0
2, 76480, Note_on_c, 0, 76, 72
2, 76520, Note_on_c, 0, 76, 0
2, 76520, Note_on_c, 0, 77, 75
2, 76560, Note_on_c, 0, 77, 0
2, 76560, Note_on_c, 0, 78, 75
2, 76600, Note_on_c, 0, 78, 0
2, 76600, Note_on_c, 0, 79, 76
2, 76640, Note_on_c, 0, 79, 0
2, 76640, Note_on_c, 0, 80, 80
2, 76680, Note_on_c, 0, 80, 0
2, 76680, Note_on_c, 0, 81, 81
2, 76720, Note_on_c, 0, 81, 0
2, 76720, Note_on_c, 0, 82, 81
2, 76760, Note_on_c, 0, 82, 0
2, 76760, Note_on_c, 0, 83, 81
2, 76800, Note_on_c, 0, 83, 0
2, 76800, Note_on_c, 0, 84, 81
2, 76960, Note_on_c, 0, 84, 0
2, 76965, Note_on_c, 0, 79, 81
2, 76995, Note_on_c, 0, 83, 81
2, 77005, Note_on_c, 0, 79, 0
2, 77035, Note_on_c, 0, 83, 0
2, 77040, Note_on_c, 0, 84, 82
2, 77080, Note_on_c, 0, 84, 0
2, 77080, Note_on_c, 0, 79, 83
2, 77120, Note_on_c, 0, 79, 0
2, 77120, Note_on_c, 0, 83, 83
2, 77160, Note_on_c, 0, 83, 0
2, 77160, Note_on_c, 0, 84, 83
2, 77200, Note_on_c, 0, 84, 0
2, 77200, Note_on_c, 0, 79, 84
2, 77240, Note_on_c, 0, 79, 0
2, 77240, Note_on_c, 0, 83, 85
2, 77280, Note_on_c, 0, 83, 0
2, 77280, Note_on_c, 0, 84, 85
2, 77440, Note_on_c, 0, 84, 0
2, 77445, Note_on_c, 0, 79, 85
2, 77475, Note_on_c, 0, 82, 85
2, 77485, Note_on_c, 0, 79, 0
2, 77515, Note_on_c, 0, 82, 0
2, 77520, Note_on_c, 0, 84, 85
2, 77560, Note_on_c, 0, 84, 0
2, 77560, Note_on_c, 0, 79, 85
2, 77600, Note_on_c, 0, 79, 0
2, 77600, Note_on_c, 0, 82, 85
2, 77640, Note_on_c, 0, 82, 0
2, 77640, Note_on_c, 0, 84, 85
2, 77680, Note_on_c, 0, 84, 0
2, 77680, Note_on_c, 0, 79, 85
2, 77720, Note_on_c, 0, 79, 0
2, 77720, Note_on_c, 0, 82, 85
2, 77760, Note_on_c, 0, 82, 0
2, 77760, Note_on_c, 0, 84, 78
2, 77920, Note_on_c, 0, 84, 0
2, 77920, Note_on_c, 0, 77, 56
2, 77960, Note_on_c, 0, 77, 0
2, 77960, Note_on_c, 0, 81, 56
2, 78000, Note_on_c, 0, 81, 0
2, 78000, Note_on_c, 0, 82, 57
2, 78160, Note_on_c, 0, 82, 0
2, 78160, Note_on_c, 0, 74, 58
2, 78200, Note_on_c, 0, 74, 0
2, 78200, Note_on_c, 0, 79, 58
2, 78240, Note_on_c, 0, 79, 0
2, 78240, Note_on_c, 0, 81, 58
2, 78400, Note_on_c, 0, 81, 0
2, 78400, Note_on_c, 0, 72, 59
2, 78440, Note_on_c, 0, 72, 0
2, 78440, Note_on_c, 0, 77, 59
2, 78480, Note_on_c, 0, 77, 0
2, 78480, Note_on_c, 0, 79, 60
2, 78640, Note_on_c, 0, 79, 0
2, 78640, Note_on_c, 0, 70, 60
2, 78680, Note_on_c, 0, 70, 0
2, 78680, Note_on_c, 0, 76, 60
2, 78720, Note_on_c, 0, 76, 0
2, 78760, Note_on_c, 0, 77, 40
2, 78800, Note_on_c, 0, 77, 0
2, 78800, Note_on_c, 0, 72, 40
2, 78840, Note_on_c, 0, 72, 0
2, 78880, Note_on_c, 0, 81, 40
2, 78920, Note_on_c, 0, 81, 0
2, 78920, Note_on_c, 0, 72, 40
2, 78960, Note_on_c, 0, 72, 0
2, 79000, Note_on_c, 0, 81, 40
2, 79040, Note_on_c, 0, 81, 0
2, 79040, Note_on_c, 0, 72, 40
2, 79080, Note_on_c, 0, 72, 0
2, 79120, Note_on_c, 0, 84, 40
2, 79160, Note_on_c, 0, 84, 0
2, 79160, Note_on_c, 0, 72, 40
2, 79200, Note_on_c, 0, 72, 0
2, 79240, Note_on_c, 0, 82, 40
2, 79280, Note_on_c, 0, 82, 0
2, 79280, Note_on_c, 0, 72, 40
2, 79320, Note_on_c, 0, 72, 0
2, 79360, Note_on_c, 0, 79, 40
2, 79400, Note_on_c, 0, 79, 0
2, 79400, Note_on_c, 0, 72, 40
2, 79440, Note_on_c, 0, 72, 0
2, 79480, Note_on_c, 0, 76, 40
2, 79520, Note_on_c, 0, 76, 0
2, 79520, Note_on_c, 0, 72, 40
2, 79560, Note_on_c, 0, 72, 0
2, 79600, Note_on_c, 0, 79, 40
2, 79640, Note_on_c, 0, 79, 0
2, 79640, Note_on_c, 0, 72, 40
2, 79680, Note_on_c, 0, 72, 0
2, 79720, Note_on_c, 0, 77, 40
2, 79760, Note_on_c, 0, 77, 0
2, 79760, Note_on_c, 0, 72, 40
2, 79800, Note_on_c, 0, 72, 0
2, 79840, Note_on_c, 0, 84, 40
2, 79880, Note_on_c, 0, 84, 0
2, 79880, Note_on_c, 0, 72, 40
2, 79920, Note_on_c, 0, 72, 0
2, 79960, Note_on_c, 0, 83, 40
2, 80000, Note_on_c, 0, 83, 0
2, 80000, Note_on_c, 0, 72, 40
2, 80040, Note_on_c, 0, 72, 0
2, 80080, Note_on_c, 0, 84, 40
2, 80120, Note_on_c, 0, 84, 0
2, 80120, Note_on_c, 0, 72, 40
2, 80160, Note_on_c, 0, 72, 0
2, 80200, Note_on_c, 0, 82, 40
2, 80240, Note_on_c, 0, 82, 0
2, 80240, Note_on_c, 0, 72, 40
2, 80280, Note_on_c, 0, 72, 0
2, 80320, Note_on_c, 0, 79, 40
2, 80360, Note_on_c, 0, 79, 0
2, 80360, Note_on_c, 0, 72, 40
2, 80400, Note_on_c, 0, 72, 0
2, 80440, Note_on_c, 0, 76, 40
2, 80480, Note_on_c, 0, 76, 0
2, 80480, Note_on_c, 0, 72, 40
2, 80520, Note_on_c, 0, 72, 0
2, 80560, Note_on_c, 0, 79, 40
2, 80600, Note_on_c, 0, 79, 0
2, 80600, Note_on_c, 0, 72, 40
2, 80640, Note_on_c, 0, 72, 0
2, 80680, Note_on_c, 0, 77, 40
2, 80720, Note_on_c, 0, 77, 0
2, 80720, Note_on_c, 0, 72, 40
2, 80760, Note_on_c, 0, 72, 0
2, 80800, Note_on_c, 0, 81, 40
2, 80840, Note_on_c, 0, 81, 0
2, 80840, Note_on_c, 0, 72, 40
2, 80880, Note_on_c, 0, 72, 0
2, 80920, Note_on_c, 0, 81, 40
2, 80960, Note_on_c, 0, 81, 0
2, 80960, Note_on_c, 0, 74, 40
2, 81000, Note_on_c, 0, 74, 0
2, 81040, Note_on_c, 0, 79, 40
2, 81080, Note_on_c, 0, 79, 0
2, 81080, Note_on_c, 0, 74, 40
2, 81120, Note_on_c, 0, 74, 0
2, 81160, Note_on_c, 0, 77, 40
2, 81200, Note_on_c, 0, 77, 0
2, 81200, Note_on_c, 0, 72, 40
2, 81240, Note_on_c, 0, 72, 0
2, 81280, Note_on_c, 0, 76, 40
2, 81320, Note_on_c, 0, 76, 0
2, 81320, Note_on_c, 0, 72, 40
2, 81360, Note_on_c, 0, 72, 0
2, 81400, Note_on_c, 0, 76, 40
2, 81440, Note_on_c, 0, 76, 0
2, 81440, Note_on_c, 0, 71, 40
2, 81480, Note_on_c, 0, 71, 0
2, 81520, Note_on_c, 0, 74, 40
2, 81560, Note_on_c, 0, 74, 0
2, 81560, Note_on_c, 0, 71, 40
2, 81600, Note_on_c, 0, 71, 0
2, 81640, Note_on_c, 0, 72, 40
2, 81680, Note_on_c, 0, 72, 0
2, 81680, Note_on_c, 0, 67, 40
2, 81720, Note_on_c, 0, 67, 0
2, 81760, Note_on_c, 0, 76, 40
2, 81800, Note_on_c, 0, 76, 0
2, 81800, Note_on_c, 0, 67, 40
2, 81840, Note_on_c, 0, 67, 0
2, 81880, Note_on_c, 0, 76, 40
2, 81920, Note_on_c, 0, 76, 0
2, 81920, Note_on_c, 0, 67, 40
2, 81960, Note_on_c, 0, 67, 0
2, 82000, Note_on_c, 0, 79, 40
2, 82040, Note_on_c, 0, 79, 0
2, 82040, Note_on_c, 0, 67, 40
2, 82080, Note_on_c, 0, 67, 0
2, 82120, Note_on_c, 0, 77, 40
2, 82160, Note_on_c, 0, 77, 0
2, 82160, Note_on_c, 0, 67, 40
2, 82200, Note_on_c, 0, 67, 0
2, 82240, Note_on_c, 0, 74, 40
2, 82280, Note_on_c, 0, 74, 0
2, 82280, Note_on_c, 0, 67, 40
2, 82320, Note_on_c, 0, 67, 0
2, 82360, Note_on_c, 0, 71, 40
2, 82400, Note_on_c, 0, 71, 0
2, 82400, Note_on_c, 0, 67, 40
2, 82440, Note_on_c, 0, 67, 0
2, 82480, Note_on_c, 0, 74, 40
2, 82520, Note_on_c, 0, 74, 0
2, 82520, Note_on_c, 0, 67, 40
2, 82560, Note_on_c, 0, 67, 0
2, 82600, Note_on_c, 0, 72, 40
2, 82640, Note_on_c, 0, 72, 0
2, 82640, Note_on_c, 0, 67, 40
2, 82680, Note_on_c, 0, 67, 0
2, 82720, Note_on_c, 0, 79, 40
2, 82760, Note_on_c, 0, 79, 0
2, 82760, Note_on_c, 0, 67, 40
2, 82800, Note_on_c, 0, 67, 0
2, 82840, Note_on_c, 0, 78, 40
2, 82880, Note_on_c, 0, 78, 0
2, 82880, Note_on_c, 0, 67, 40
2, 82920, Note_on_c, 0, 67, 0
2, 82960, Note_on_c, 0, 79, 40
2, 83000, Note_on_c, 0, 79, 0
2, 83000, Note_on_c, 0, 67, 40
2, 83040, Note_on_c, 0, 67, 0
2, 83080, Note_on_c, 0, 77, 40
2, 83120, Note_on_c, 0, 77, 0
2, 83120, Note_on_c, 0, 67, 40
2, 83160, Note_on_c, 0, 67, 0
2, 83200, Note_on_c, 0, 74, 40
2, 83240, Note_on_c, 0, 74, 0
2, 83240, Note_on_c, 0, 67, 40
2, 83280, Note_on_c, 0, 67, 0
2, 83320, Note_on_c, 0, 71, 40
2, 83360, Note_on_c, 0, 71, 0
2, 83360, Note_on_c, 0, 67, 40
2, 83400, Note_on_c, 0, 67, 0
2, 83440, Note_on_c, 0, 74, 41
2, 83480, Note_on_c, 0, 74, 0
2, 83480, Note_on_c, 0, 67, 41
2, 83520, Note_on_c, 0, 67, 0
2, 83560, Note_on_c, 0, 72, 41
2, 83595, Note_on_c, 0, 67, 41
2, 83600, Note_on_c, 0, 72, 0
2, 83635, Note_on_c, 0, 67, 0
2, 83680, Note_on_c, 0, 73, 41
2, 83715, Note_on_c, 0, 67, 41
2, 83720, Note_on_c, 0, 73, 0
2, 83755, Note_on_c, 0, 67, 0
2, 83800, Note_on_c, 0, 76, 51
2, 83835, Note_on_c, 0, 69, 52
2, 83840, Note_on_c, 0, 76, 0
2, 83875, Note_on_c, 0, 69, 0
2, 83920, Note_on_c, 0, 74, 60
2, 83955, Note_on_c, 0, 69, 62
2, 83960, Note_on_c, 0, 74, 0
2, 83995, Note_on_c, 0, 69, 0
2, 84040, Note_on_c, 0, 77, 65
2, 84080, Note_on_c, 0, 77, 0
2, 84080, Note_on_c, 0, 71, 67
2, 84120, Note_on_c, 0, 71, 0
2, 84160, Note_on_c, 0, 76, 70
2, 84200, Note_on_c, 0, 76, 0
2, 84200, Note_on_c, 0, 71, 73
2, 84240, Note_on_c, 0, 71, 0
2, 84280, Note_on_c, 0, 77, 77
2, 84320, Note_on_c, 0, 77, 0
2, 84320, Note_on_c, 0, 71, 78
2, 84360, Note_on_c, 0, 71, 0
2, 84400, Note_on_c, 0, 76, 86
2, 84440, Note_on_c, 0, 76, 0
2, 84440, Note_on_c, 0, 71, 89
2, 84480, Note_on_c, 0, 71, 0
2, 84520, Note_on_c, 0, 72, 97
2, 84560, Note_on_c, 0, 72, 0
2, 84560, Note_on_c, 0, 76, 100
2, 84600, Note_on_c, 0, 76, 0
2, 84640, Note_on_c, 0, 71, 39
2, 84680, Note_on_c, 0, 71, 0
2, 84680, Note_on_c, 0, 76, 39
2, 84720, Note_on_c, 0, 76, 0
2, 84760, Note_on_c, 0, 72, 39
2, 84800, Note_on_c, 0, 72, 0
2, 84800, Note_on_c, 0, 76, 39
2, 84840, Note_on_c, 0, 76, 0
2, 84880, Note_on_c, 0, 71, 39
2, 84920, Note_on_c, 0, 71, 0
2, 84920, Note_on_c, 0, 76, 39
2, 84960, Note_on_c, 0, 76, 0
2, 85000, Note_on_c, 0, 72, 39
2, 85035, Note_on_c, 0, 76, 39
2, 85040, Note_on_c, 0, 72, 0
2, 85075, Note_on_c, 0, 76, 0
2, 85120, Note_on_c, 0, 77, 39
2, 85120, Note_on_c, 0, 81, 39
2, 85160, Note_on_c, 0, 81, 0
2, 85160, Note_on_c, 0, 77, 0
2, 85160, Note_on_c, 0, 72, 39
2, 85200, Note_on_c, 0, 72, 0
2, 85240, Note_on_c, 0, 76, 39
2, 85240, Note_on_c, 0, 79, 39
2, 85280, Note_on_c, 0, 79, 0
2, 85280, Note_on_c, 0, 76, 0
2, 85280, Note_on_c, 0, 72, 39
2, 85320, Note_on_c, 0, 72, 0
2, 85360, Note_on_c, 0, 74, 39
2, 85360, Note_on_c, 0, 79, 39
2, 85400, Note_on_c, 0, 79, 0
2, 85400, Note_on_c, 0, 74, 0
2, 85400, Note_on_c, 0, 71, 39
2, 85440, Note_on_c, 0, 71, 0
2, 85480, Note_on_c, 0, 75, 39
2, 85520, Note_on_c, 0, 75, 0
2, 85520, Note_on_c, 0, 76, 39
2, 85560, Note_on_c, 0, 76, 0
2, 85600, Note_on_c, 0, 71, 39
2, 85600, Note_on_c, 0, 83, 109
2, 85640, Note_on_c, 0, 83, 0
2, 85640, Note_on_c, 0, 71, 0
2, 85640, Note_on_c, 0, 76, 105
2, 85680, Note_on_c, 0, 76, 0
2, 85720, Note_on_c, 0, 84, 102
2, 85720, Note_on_c, 0, 72, 102
2, 85760, Note_on_c, 0, 72, 0
2, 85760, Note_on_c, 0, 84, 0
2, 85760, Note_on_c, 0, 76, 100
2, 85800, Note_on_c, 0, 76, 0
2, 85840, Note_on_c, 0, 83, 97
2, 85840, Note_on_c, 0, 71, 97
2, 85880, Note_on_c, 0, 71, 0
2, 85880, Note_on_c, 0, 83, 0
2, 85880, Note_on_c, 0, 76, 95
2, 85920, Note_on_c, 0, 76, 0
2, 85960, Note_on_c, 0, 72, 91
2, 85960, Note_on_c, 0, 84, 91
2, 86000, Note_on_c, 0, 84, 0
2, 86000, Note_on_c, 0, 72, 0
2, 86000, Note_on_c, 0, 76, 89
2, 86040, Note_on_c, 0, 76, 0
2, 86080, Note_on_c, 0, 81, 86
2, 86080, Note_on_c, 0, 77, 86
2, 86120, Note_on_c, 0, 77, 0
2, 86120, Note_on_c, 0, 81, 0
2, 86120, Note_on_c, 0, 72, 83
2, 86160, Note_on_c, 0, 72, 0
2, 86200, Note_on_c, 0, 79, 77
2, 86200, Note_on_c, 0, 76, 77
2, 86240, Note_on_c, 0, 76, 0
2, 86240, Note_on_c, 0, 79, 0
2, 86240, Note_on_c, 0, 72, 75
2, 86280, Note_on_c, 0, 72, 0
2, 86320, Note_on_c, 0, 77, 72
2, 86320, Note_on_c, 0, 74, 72
2, 86360, Note_on_c, 0, 74, 0
2, 86360, Note_on_c, 0, 77, 0
2, 86360, Note_on_c, 0, 71, 71
2, 86400, Note_on_c, 0, 71, 0
2, 86440, Note_on_c, 0, 72, 68
2, 86480, Note_on_c, 0, 72, 0
2, 86480, Note_on_c, 0, 76, 67
2, 86520, Note_on_c, 0, 76, 0
2, 86560, Note_on_c, 0, 70, 64
2, 86600, Note_on_c, 0, 70, 0
2, 86600, Note_on_c, 0, 79, 62
2, 86640, Note_on_c, 0, 79, 0
2, 86680, Note_on_c, 0, 69, 60
2, 86720, Note_on_c, 0, 69, 0
2, 86720, Note_on_c, 0, 79, 59
2, 86760, Note_on_c, 0, 79, 0
2, 86800, Note_on_c, 0, 71, 56
2, 86840, Note_on_c, 0, 71, 0
2, 86840, Note_on_c, 0, 77, 54
2, 86880, Note_on_c, 0, 77, 0
2, 86920, Note_on_c, 0, 72, 52
2, 86960, Note_on_c, 0, 72, 0
2, 86960, Note_on_c, 0, 77, 51
2, 87000, Note_on_c, 0, 77, 0
2, 87040, Note_on_c, 0, 67, 49
2, 87080, Note_on_c, 0, 67, 0
2, 87080, Note_on_c, 0, 76, 47
2, 87120, Note_on_c, 0, 76, 0
2, 87160, Note_on_c, 0, 65, 43
2, 87200, Note_on_c, 0, 65, 0
2, 87200, Note_on_c, 0, 76, 41
2, 87240, Note_on_c, 0, 76, 0
2, 87280, Note_on_c, 0, 65, 37
2, 87320, Note_on_c, 0, 65, 0
2, 87320, Note_on_c, 0, 74, 36
2, 87360, Note_on_c, 0, 74, 0
2, 87400, Note_on_c, 0, 64, 34
2, 87440, Note_on_c, 0, 64, 0
2, 87440, Note_on_c, 0, 72, 33
2, 87480, Note_on_c, 0, 72, 0
2, 87520, Note_on_c, 0, 82, 32
2, 87520, Note_on_c, 0, 79, 32
2, 87560, Note_on_c, 0, 79, 0
2, 87560, Note_on_c, 0, 82, 0
2, 87560, Note_on_c, 0, 84, 31
2, 87600, Note_on_c, 0, 84, 0
2, 87640, Note_on_c, 0, 81, 31
2, 87645, Note_on_c, 0, 78, 31
2, 87680, Note_on_c, 0, 81, 0
2, 87680, Note_on_c, 0, 84, 31
2, 87685, Note_on_c, 0, 78, 0
2, 87720, Note_on_c, 0, 84, 0
2, 87760, Note_on_c, 0, 83, 30
2, 87760, Note_on_c, 0, 77, 30
2, 87800, Note_on_c, 0, 77, 0
2, 87800, Note_on_c, 0, 83, 0
2, 87800, Note_on_c, 0, 84, 30
2, 87840, Note_on_c, 0, 84, 0
2, 87880, Note_on_c, 0, 79, 57
2, 87880, Note_on_c, 0, 76, 57
2, 87915, Note_on_c, 0, 84, 60
2, 87920, Note_on_c, 0, 76, 0
2, 87920, Note_on_c, 0, 79, 0
2, 87955, Note_on_c, 0, 84, 0
2, 88000, Note_on_c, 0, 75, 67
2, 88000, Note_on_c, 0, 78, 67
2, 88040, Note_on_c, 0, 78, 0
2, 88040, Note_on_c, 0, 75, 0
2, 88040, Note_on_c, 0, 84, 69
2, 88080, Note_on_c, 0, 84, 0
2, 88120, Note_on_c, 0, 74, 73
2, 88120, Note_on_c, 0, 77, 73
2, 88160, Note_on_c, 0, 77, 0
2, 88160, Note_on_c, 0, 74, 0
2, 88160, Note_on_c, 0, 84, 76
2, 88200, Note_on_c, 0, 84, 0
2, 88240, Note_on_c, 0, 74, 86
2, 88240, Note_on_c, 0, 77, 86
2, 88280, Note_on_c, 0, 77, 0
2, 88280, Note_on_c, 0, 74, 0
2, 88280, Note_on_c, 0, 83, 95
2, 88320, Note_on_c, 0, 83, 0
2, 88320, Note_on_c, 0, 84, 30
2, 88360, Note_on_c, 0, 84, 0
2, 88360, Note_on_c, 0, 79, 28
2, 88400, Note_on_c, 0, 79, 0
2, 88400, Note_on_c, 0, 76, 27
2, 88440, Note_on_c, 0, 76, 0
2, 88440, Note_on_c, 0, 72, 27
2, 88480, Note_on_c, 0, 72, 0
2, 88480, Note_on_c, 0, 67, 26
2, 88520, Note_on_c, 0, 67, 0
2, 88520, Note_on_c, 0, 64, 25
2, 88560, Note_on_c, 0, 64, 0
2, 88560, Note_on_c, 0, 72, 25
2, 88600, Note_on_c, 0, 72, 0
2, 88600, Note_on_c, 0, 67, 24
2, 88640, Note_on_c, 0, 67, 0
2, 88640, Note_on_c, 0, 64, 23
2, 88680, Note_on_c, 0, 64, 0
2, 89280, Control_c, 0, 10, 84
2, 89280, Control_c, 0, 93, 17
2, 89280, Control_c, 0, 7, 107
2, 89280, Note_on_c, 0, 81, 48
2, 89280, Control_c, 0, 91, 12
2, 89400, Note_on_c, 0, 81, 0
2, 89400, Note_on_c, 0, 82, 48
2, 89580, Note_on_c, 0, 82, 0
2, 89580, Note_on_c, 0, 81, 48
2, 89640, Note_on_c, 0, 81, 0
2, 89640, Note_on_c, 0, 81, 48
2, 89670, Note_on_c, 0, 81, 0
2, 89670, Note_on_c, 0, 79, 48
2, 89700, Note_on_c, 0, 79, 0
2, 89700, Note_on_c, 0, 77, 48
2, 89730, Note_on_c, 0, 77, 0
2, 89730, Note_on_c, 0, 76, 49
2, 89760, Note_on_c, 0, 76, 0
2, 89760, Note_on_c, 0, 79, 49
2, 89820, Note_on_c, 0, 79, 0
2, 89820, Note_on_c, 0, 77, 49
2, 89940, Note_on_c, 0, 77, 0
2, 89940, Note_on_c, 0, 79, 49
2, 90000, Note_on_c, 0, 79, 0
2, 90000, Note_on_c, 0, 81, 59
2, 90060, Note_on_c, 0, 81, 0
2, 90060, Note_on_c, 0, 84, 69
2, 90105, Note_on_c, 0, 84, 79
2, 90120, Note_on_c, 0, 84, 0
2, 90120, Note_on_c, 0, 84, 0
2, 90120, Note_on_c, 0, 82, 79
2, 90180, Note_on_c, 0, 82, 0
2, 90180, Note_on_c, 0, 81, 69
2, 90240, Note_on_c, 0, 81, 0
2, 90240, Note_on_c, 0, 79, 59
2, 90300, Note_on_c, 0, 79, 0
2, 90300, Note_on_c, 0, 77, 49
2, 90360, Note_on_c, 0, 77, 0
2, 90360, Note_on_c, 0, 81, 49
2, 90420, Note_on_c, 0, 81, 0
2, 90420, Note_on_c, 0, 81, 49
2, 90435, Note_on_c, 0, 81, 0
2, 90435, Note_on_c, 0, 82, 49
2, 90450, Note_on_c, 0, 82, 0
2, 90450, Note_on_c, 0, 83, 49
2, 90465, Note_on_c, 0, 83, 0
2, 90465, Note_on_c, 0, 84, 49
2, 90480, Note_on_c, 0, 84, 0
2, 90480, Note_on_c, 0, 79, 49
2, 90540, Note_on_c, 0, 79, 0
2, 90720, Note_on_c, 0, 79, 49
2, 90720, Note_on_c, 0, 76, 49
2, 90750, Note_on_c, 0, 76, 0
2, 90750, Note_on_c, 0, 79, 0
2, 90750, Note_on_c, 0, 84, 49
2, 90780, Note_on_c, 0, 84, 0
2, 90810, Note_on_c, 0, 84, 49
2, 90840, Note_on_c, 0, 84, 0
2, 90840, Note_on_c, 0, 82, 49
2, 90840, Note_on_c, 0, 79, 49
2, 90870, Note_on_c, 0, 79, 0
2, 90870, Note_on_c, 0, 82, 0
2, 90870, Note_on_c, 0, 84, 49
2, 90900, Note_on_c, 0, 84, 0
2, 90930, Note_on_c, 0, 84, 49
2, 90960, Note_on_c, 0, 84, 0
2, 90960, Note_on_c, 0, 81, 69
2, 90960, Note_on_c, 0, 77, 69
2, 90975, Note_on_c, 0, 77, 0
2, 90975, Note_on_c, 0, 81, 0
2, 90975, Note_on_c, 0, 84, 72
2, 90990, Note_on_c, 0, 84, 0
2, 90990, Note_on_c, 0, 83, 80
2, 91005, Note_on_c, 0, 83, 0
2, 91005, Note_on_c, 0, 84, 82
2, 91020, Note_on_c, 0, 84, 0
2, 91020, Note_on_c, 0, 83, 85
2, 91035, Note_on_c, 0, 83, 0
2, 91035, Note_on_c, 0, 84, 88
2, 91050, Note_on_c, 0, 84, 0
2, 91050, Note_on_c, 0, 83, 93
2, 91065, Note_on_c, 0, 83, 0
2, 91065, Note_on_c, 0, 84, 94
2, 91080, Note_on_c, 0, 84, 0
2, 91080, Note_on_c, 0, 79, 49
2, 91080, Note_on_c, 0, 76, 49
2, 91110, Note_on_c, 0, 76, 0
2, 91110, Note_on_c, 0, 79, 0
2, 91110, Note_on_c, 0, 84, 49
2, 91140, Note_on_c, 0, 84, 0
2, 91170, Note_on_c, 0, 84, 49
2, 91200, Note_on_c, 0, 84, 0
2, 91200, Note_on_c, 0, 82, 49
2, 91200, Note_on_c, 0, 79, 49
2, 91230, Note_on_c, 0, 79, 0
2, 91230, Note_on_c, 0, 82, 0
2, 91230, Note_on_c, 0, 84, 49
2, 91260, Note_on_c, 0, 84, 0
2, 91290, Note_on_c, 0, 84, 49
2, 91320, Note_on_c, 0, 84, 0
2, 91320, Note_on_c, 0, 77, 69
2, 91320, Note_on_c, 0, 81, 69
2, 91335, Note_on_c, 0, 81, 0
2, 91335, Note_on_c, 0, 77, 0
2, 91335, Note_on_c, 0, 84, 72
2, 91350, Note_on_c, 0, 84, 0
2, 91350, Note_on_c, 0, 83, 80
2, 91365, Note_on_c, 0, 83, 0
2, 91365, Note_on_c, 0, 84, 82
2, 91380, Note_on_c, 0, 84, 0
2, 91380, Note_on_c, 0, 83, 85
2, 91395, Note_on_c, 0, 83, 0
2, 91395, Note_on_c, 0, 84, 88
2, 91410, Note_on_c, 0, 84, 0
2, 91410, Note_on_c, 0, 83, 93
2, 91425, Note_on_c, 0, 83, 0
2, 91425, Note_on_c, 0, 84, 94
2, 91440, Note_on_c, 0, 84, 0
2, 91440, Note_on_c, 0, 84, 49
2, 91470, Note_on_c, 0, 84, 0
2, 91470, Note_on_c, 0, 74, 49
2, 91530, Note_on_c, 0, 74, 0
2, 91530, Note_on_c, 0, 82, 49
2, 91560, Note_on_c, 0, 82, 0
2, 91560, Note_on_c, 0, 82, 49
2, 91590, Note_on_c, 0, 82, 0
2, 91590, Note_on_c, 0, 72, 49
2, 91650, Note_on_c, 0, 72, 0
2, 91650, Note_on_c, 0, 81, 49
2, 91680, Note_on_c, 0, 81, 0
2, 91680, Note_on_c, 0, 81, 49
2, 91710, Note_on_c, 0, 81, 0
2, 91710, Note_on_c, 0, 70, 49
2, 91770, Note_on_c, 0, 70, 0
2, 91770, Note_on_c, 0, 79, 49
2, 91800, Note_on_c, 0, 79, 0
2, 91800, Note_on_c, 0, 70, 49
2, 91800, Note_on_c, 0, 79, 49
2, 91920, Note_on_c, 0, 79, 0
2, 91920, Note_on_c, 0, 70, 0
2, 91920, Note_on_c, 0, 69, 49
2, 91920, Note_on_c, 0, 77, 49
2, 91980, Note_on_c, 0, 77, 0
2, 91980, Note_on_c, 0, 69, 0
2, 92160, Note_on_c, 0, 65, 49
2, 92180, Note_on_c, 0, 65, 0
2, 92180, Note_on_c, 0, 69, 49
2, 92200, Note_on_c, 0, 69, 0
2, 92200, Note_on_c, 0, 74, 49
2, 92220, Note_on_c, 0, 74, 0
2, 92220, Note_on_c, 0, 77, 49
2, 92240, Note_on_c, 0, 77, 0
2, 92240, Note_on_c, 0, 74, 49
2, 92260, Note_on_c, 0, 74, 0
2, 92260, Note_on_c, 0, 69, 49
2, 92280, Note_on_c, 0, 69, 0
2, 92280, Note_on_c, 0, 65, 49
2, 92300, Note_on_c, 0, 65, 0
2, 92300, Note_on_c, 0, 69, 49
2, 92320, Note_on_c, 0, 69, 0
2, 92320, Note_on_c, 0, 74, 49
2, 92340, Note_on_c, 0, 74, 0
2, 92340, Note_on_c, 0, 77, 49
2, 92360, Note_on_c, 0, 77, 0
2, 92360, Note_on_c, 0, 74, 49
2, 92380, Note_on_c, 0, 74, 0
2, 92380, Note_on_c, 0, 69, 49
2, 92400, Note_on_c, 0, 69, 0
2, 92400, Note_on_c, 0, 65, 49
2, 92420, Note_on_c, 0, 65, 0
2, 92420, Note_on_c, 0, 69, 49
2, 92440, Note_on_c, 0, 69, 0
2, 92440, Note_on_c, 0, 74, 49
2, 92460, Note_on_c, 0, 74, 0
2, 92460, Note_on_c, 0, 77, 49
2, 92480, Note_on_c, 0, 77, 0
2, 92480, Note_on_c, 0, 74, 49
2, 92500, Note_on_c, 0, 74, 0
2, 92500, Note_on_c, 0, 69, 49
2, 92520, Note_on_c, 0, 69, 0
2, 92520, Note_on_c, 0, 67, 49
2, 92540, Note_on_c, 0, 67, 0
2, 92540, Note_on_c, 0, 69, 49
2, 92560, Note_on_c, 0, 69, 0
2, 92560, Note_on_c, 0, 73, 49
2, 92580, Note_on_c, 0, 73, 0
2, 92580, Note_on_c, 0, 79, 49
2, 92600, Note_on_c, 0, 79, 0
2, 92600, Note_on_c, 0, 73, 49
2, 92620, Note_on_c, 0, 73, 0
2, 92620, Note_on_c, 0, 69, 49
2, 92640, Note_on_c, 0, 69, 0
2, 92640, Note_on_c, 0, 67, 49
2, 92660, Note_on_c, 0, 67, 0
2, 92660, Note_on_c, 0, 69, 49
2, 92680, Note_on_c, 0, 69, 0
2, 92680, Note_on_c, 0, 73, 49
2, 92700, Note_on_c, 0, 73, 0
2, 92700, Note_on_c, 0, 79, 49
2, 92720, Note_on_c, 0, 79, 0
2, 92720, Note_on_c, 0, 73, 49
2, 92740, Note_on_c, 0, 73, 0
2, 92740, Note_on_c, 0, 69, 49
2, 92760, Note_on_c, 0, 69, 0
2, 92760, Note_on_c, 0, 67, 49
2, 92780, Note_on_c, 0, 67, 0
2, 92780, Note_on_c, 0, 69, 49
2, 92800, Note_on_c, 0, 69, 0
2, 92800, Note_on_c, 0, 73, 49
2, 92820, Note_on_c, 0, 73, 0
2, 92820, Note_on_c, 0, 79, 49
2, 92840, Note_on_c, 0, 79, 0
2, 92840, Note_on_c, 0, 73, 49
2, 92860, Note_on_c, 0, 73, 0
2, 92860, Note_on_c, 0, 69, 49
2, 92880, Note_on_c, 0, 69, 0
2, 92895, Note_on_c, 0, 69, 49
2, 92915, Note_on_c, 0, 69, 0
2, 92920, Note_on_c, 0, 74, 49
2, 92940, Note_on_c, 0, 74, 0
2, 92940, Note_on_c, 0, 81, 49
2, 92960, Note_on_c, 0, 81, 0
2, 92960, Note_on_c, 0, 77, 49
2, 92980, Note_on_c, 0, 77, 0
2, 92980, Note_on_c, 0, 74, 49
2, 93000, Note_on_c, 0, 74, 0
2, 93020, Note_on_c, 0, 67, 49
2, 93040, Note_on_c, 0, 67, 0
2, 93040, Note_on_c, 0, 70, 49
2, 93060, Note_on_c, 0, 70, 0
2, 93060, Note_on_c, 0, 79, 49
2, 93080, Note_on_c, 0, 79, 0
2, 93080, Note_on_c, 0, 76, 49
2, 93100, Note_on_c, 0, 76, 0
2, 93100, Note_on_c, 0, 70, 49
2, 93120, Note_on_c, 0, 70, 0
2, 93140, Note_on_c, 0, 67, 49
2, 93160, Note_on_c, 0, 67, 0
2, 93160, Note_on_c, 0, 69, 49
2, 93180, Note_on_c, 0, 69, 0
2, 93180, Note_on_c, 0, 76, 49
2, 93200, Note_on_c, 0, 76, 0
2, 93200, Note_on_c, 0, 73, 49
2, 93220, Note_on_c, 0, 73, 0
2, 93220, Note_on_c, 0, 69, 49
2, 93240, Note_on_c, 0, 69, 0
2, 93240, Note_on_c, 0, 65, 49
2, 93260, Note_on_c, 0, 65, 0
2, 93260, Note_on_c, 0, 69, 49
2, 93280, Note_on_c, 0, 69, 0
2, 93280, Note_on_c, 0, 74, 49
2, 93300, Note_on_c, 0, 74, 0
2, 93300, Note_on_c, 0, 77, 49
2, 93320, Note_on_c, 0, 77, 0
2, 93320, Note_on_c, 0, 74, 49
2, 93340, Note_on_c, 0, 74, 0
2, 93340, Note_on_c, 0, 69, 49
2, 93360, Note_on_c, 0, 69, 0
2, 93360, Note_on_c, 0, 65, 59
2, 93380, Note_on_c, 0, 65, 0
2, 93380, Note_on_c, 0, 69, 61
2, 93400, Note_on_c, 0, 69, 0
2, 93400, Note_on_c, 0, 74, 62
2, 93420, Note_on_c, 0, 74, 0
2, 93420, Note_on_c, 0, 77, 64
2, 93440, Note_on_c, 0, 77, 0
2, 93440, Note_on_c, 0, 74, 65
2, 93460, Note_on_c, 0, 74, 0
2, 93460, Note_on_c, 0, 69, 66
2, 93480, Note_on_c, 0, 69, 0
2, 93480, Note_on_c, 0, 65, 67
2, 93500, Note_on_c, 0, 65, 0
2, 93500, Note_on_c, 0, 74, 69
2, 93520, Note_on_c, 0, 74, 0
2, 93520, Note_on_c, 0, 77, 70
2, 93540, Note_on_c, 0, 77, 0
2, 93540, Note_on_c, 0, 65, 71
2, 93560, Note_on_c, 0, 65, 0
2, 93560, Note_on_c, 0, 72, 72
2, 93580, Note_on_c, 0, 72, 0
2, 93580, Note_on_c, 0, 77, 74
2, 93600, Note_on_c, 0, 77, 0
2, 93600, Note_on_c, 0, 65, 75
2, 93620, Note_on_c, 0, 65, 0
2, 93620, Note_on_c, 0, 71, 76
2, 93640, Note_on_c, 0, 71, 0
2, 93640, Note_on_c, 0, 74, 76
2, 93660, Note_on_c, 0, 74, 0
2, 93660, Note_on_c, 0, 77, 77
2, 93680, Note_on_c, 0, 77, 0
2, 93680, Note_on_c, 0, 74, 78
2, 93700, Note_on_c, 0, 74, 0
2, 93700, Note_on_c, 0, 71, 79
2, 93720, Note_on_c, 0, 71, 0
2, 93720, Note_on_c, 0, 65, 80
2, 93740, Note_on_c, 0, 65, 0
2, 93740, Note_on_c, 0, 71, 81
2, 93760, Note_on_c, 0, 71, 0
2, 93760, Note_on_c, 0, 74, 82
2, 93780, Note_on_c, 0, 74, 0
2, 93780, Note_on_c, 0, 77, 84
2, 93800, Note_on_c, 0, 77, 0
2, 93800, Note_on_c, 0, 74, 86
2, 93820, Note_on_c, 0, 74, 0
2, 93820, Note_on_c, 0, 71, 87
2, 93840, Note_on_c, 0, 71, 0
2, 93840, Note_on_c, 0, 64, 89
2, 93860, Note_on_c, 0, 64, 0
2, 93860, Note_on_c, 0, 69, 90
2, 93880, Note_on_c, 0, 69, 0
2, 93880, Note_on_c, 0, 72, 91
2, 93900, Note_on_c, 0, 72, 0
2, 93900, Note_on_c, 0, 76, 94
2, 93920, Note_on_c, 0, 76, 0
2, 93920, Note_on_c, 0, 72, 95
2, 93940, Note_on_c, 0, 72, 0
2, 93940, Note_on_c, 0, 69, 98
2, 93960, Note_on_c, 0, 69, 0
2, 93980, Note_on_c, 0, 65, 49
2, 94000, Note_on_c, 0, 65, 0
2, 94000, Note_on_c, 0, 69, 49
2, 94020, Note_on_c, 0, 69, 0
2, 94020, Note_on_c, 0, 76, 49
2, 94040, Note_on_c, 0, 76, 0
2, 94040, Note_on_c, 0, 69, 49
2, 94060, Note_on_c, 0, 69, 0
2, 94060, Note_on_c, 0, 74, 49
2, 94080, Note_on_c, 0, 74, 0
2, 94100, Note_on_c, 0, 64, 49
2, 94120, Note_on_c, 0, 64, 0
2, 94120, Note_on_c, 0, 67, 49
2, 94140, Note_on_c, 0, 67, 0
2, 94140, Note_on_c, 0, 74, 49
2, 94160, Note_on_c, 0, 74, 0
2, 94160, Note_on_c, 0, 67, 49
2, 94180, Note_on_c, 0, 67, 0
2, 94180, Note_on_c, 0, 72, 49
2, 94200, Note_on_c, 0, 72, 0
2, 94220, Note_on_c, 0, 62, 49
2, 94240, Note_on_c, 0, 62, 0
2, 94240, Note_on_c, 0, 65, 49
2, 94260, Note_on_c, 0, 65, 0
2, 94260, Note_on_c, 0, 72, 49
2, 94280, Note_on_c, 0, 72, 0
2, 94280, Note_on_c, 0, 65, 49
2, 94300, Note_on_c, 0, 65, 0
2, 94300, Note_on_c, 0, 71, 49
2, 94320, Note_on_c, 0, 71, 0
2, 94320, Note_on_c, 0, 64, 49
2, 94340, Note_on_c, 0, 64, 0
2, 94340, Note_on_c, 0, 67, 49
2, 94360, Note_on_c, 0, 67, 0
2, 94360, Note_on_c, 0, 72, 49
2, 94380, Note_on_c, 0, 72, 0
2, 94380, Note_on_c, 0, 64, 49
2, 94400, Note_on_c, 0, 64, 0
2, 94400, Note_on_c, 0, 67, 49
2, 94420, Note_on_c, 0, 67, 0
2, 94420, Note_on_c, 0, 72, 49
2, 94440, Note_on_c, 0, 72, 0
2, 94440, Note_on_c, 0, 64, 49
2, 94460, Note_on_c, 0, 64, 0
2, 94460, Note_on_c, 0, 67, 49
2, 94480, Note_on_c, 0, 67, 0
2, 94480, Note_on_c, 0, 72, 49
2, 94500, Note_on_c, 0, 72, 0
2, 94500, Note_on_c, 0, 64, 62
2, 94520, Note_on_c, 0, 64, 0
2, 94520, Note_on_c, 0, 67, 72
2, 94540, Note_on_c, 0, 67, 0
2, 94540, Note_on_c, 0, 73, 81
2, 94560, Note_on_c, 0, 73, 0
2, 94560, Note_on_c, 0, 65, 87
2, 94580, Note_on_c, 0, 65, 0
2, 94580, Note_on_c, 0, 69, 91
2, 94600, Note_on_c, 0, 69, 0
2, 94600, Note_on_c, 0, 74, 88
2, 94620, Note_on_c, 0, 74, 0
2, 94620, Note_on_c, 0, 65, 81
2, 94640, Note_on_c, 0, 65, 0
2, 94640, Note_on_c, 0, 67, 75
2, 94660, Note_on_c, 0, 67, 0
2, 94660, Note_on_c, 0, 71, 68
2, 94680, Note_on_c, 0, 71, 0
2, 94680, Note_on_c, 0, 64, 39
2, 94700, Note_on_c, 0, 64, 0
2, 94700, Note_on_c, 0, 67, 39
2, 94720, Note_on_c, 0, 67, 0
2, 94720, Note_on_c, 0, 72, 39
2, 94740, Note_on_c, 0, 72, 0
2, 94740, Note_on_c, 0, 64, 49
2, 94760, Note_on_c, 0, 64, 0
2, 94760, Note_on_c, 0, 67, 49
2, 94780, Note_on_c, 0, 67, 0
2, 94780, Note_on_c, 0, 72, 49
2, 94800, Note_on_c, 0, 72, 0
2, 94800, Note_on_c, 0, 64, 49
2, 94820, Note_on_c, 0, 64, 0
2, 94820, Note_on_c, 0, 67, 49
2, 94840, Note_on_c, 0, 67, 0
2, 94840, Note_on_c, 0, 72, 49
2, 94860, Note_on_c, 0, 72, 0
2, 94860, Note_on_c, 0, 64, 62
2, 94880, Note_on_c, 0, 64, 0
2, 94880, Note_on_c, 0, 67, 72
2, 94900, Note_on_c, 0, 67, 0
2, 94900, Note_on_c, 0, 73, 81
2, 94920, Note_on_c, 0, 73, 0
2, 94920, Note_on_c, 0, 65, 87
2, 94940, Note_on_c, 0, 65, 0
2, 94940, Note_on_c, 0, 69, 91
2, 94960, Note_on_c, 0, 69, 0
2, 94960, Note_on_c, 0, 74, 88
2, 94980, Note_on_c, 0, 74, 0
2, 94980, Note_on_c, 0, 65, 81
2, 95000, Note_on_c, 0, 65, 0
2, 95000, Note_on_c, 0, 67, 75
2, 95020, Note_on_c, 0, 67, 0
2, 95020, Note_on_c, 0, 71, 68
2, 95040, Note_on_c, 0, 71, 0
2, 95040, Note_on_c, 0, 64, 39
2, 95060, Note_on_c, 0, 64, 0
2, 95060, Note_on_c, 0, 67, 39
2, 95080, Note_on_c, 0, 67, 0
2, 95080, Note_on_c, 0, 72, 40
2, 95100, Note_on_c, 0, 72, 0
2, 95100, Note_on_c, 0, 65, 42
2, 95120, Note_on_c, 0, 65, 0
2, 95120, Note_on_c, 0, 69, 43
2, 95140, Note_on_c, 0, 69, 0
2, 95140, Note_on_c, 0, 74, 45
2, 95160, Note_on_c, 0, 74, 0
2, 95160, Note_on_c, 0, 67, 46
2, 95180, Note_on_c, 0, 67, 0
2, 95180, Note_on_c, 0, 70, 48
2, 95200, Note_on_c, 0, 70, 0
2, 95200, Note_on_c, 0, 76, 49
2, 95220, Note_on_c, 0, 76, 0
2, 95220, Note_on_c, 0, 69, 52
2, 95240, Note_on_c, 0, 69, 0
2, 95240, Note_on_c, 0, 72, 55
2, 95260, Note_on_c, 0, 72, 0
2, 95260, Note_on_c, 0, 77, 56
2, 95280, Note_on_c, 0, 77, 0
2, 95280, Note_on_c, 0, 72, 60
2, 95300, Note_on_c, 0, 72, 0
2, 95300, Note_on_c, 0, 76, 64
2, 95320, Note_on_c, 0, 76, 0
2, 95320, Note_on_c, 0, 79, 68
2, 95340, Note_on_c, 0, 79, 0
2, 95340, Note_on_c, 0, 72, 71
2, 95360, Note_on_c, 0, 72, 0
2, 95360, Note_on_c, 0, 76, 54
2, 95380, Note_on_c, 0, 76, 0
2, 95380, Note_on_c, 0, 80, 47
2, 95395, Control_c, 0, 93, 17
2, 95395, Control_c, 0, 7, 107
2, 95395, Control_c, 0, 10, 84
2, 95395, Control_c, 0, 91, 12
2, 95395, Note_on_c, 0, 81, 48
2, 95400, Note_on_c, 0, 80, 0
2, 95475, Note_on_c, 0, 86, 48
2, 95490, Note_on_c, 0, 86, 0
2, 95490, Note_on_c, 0, 84, 48
2, 95505, Note_on_c, 0, 84, 0
2, 95505, Note_on_c, 0, 82, 48
2, 95515, Note_on_c, 0, 81, 0
2, 95520, Note_on_c, 0, 82, 0
2, 95520, Note_on_c, 0, 84, 48
2, 95580, Note_on_c, 0, 84, 0
2, 95580, Note_on_c, 0, 82, 48
2, 95695, Note_on_c, 0, 81, 48
2, 95700, Note_on_c, 0, 82, 0
2, 95755, Note_on_c, 0, 81, 0
2, 95755, Note_on_c, 0, 81, 48
2, 95785, Note_on_c, 0, 81, 0
2, 95785, Note_on_c, 0, 79, 48
2, 95815, Note_on_c, 0, 79, 0
2, 95815, Note_on_c, 0, 77, 48
2, 95845, Note_on_c, 0, 77, 0
2, 95845, Note_on_c, 0, 76, 49
2, 95875, Note_on_c, 0, 76, 0
2, 95875, Note_on_c, 0, 79, 49
2, 95935, Note_on_c, 0, 79, 0
2, 95935, Note_on_c, 0, 77, 49
2, 96055, Note_on_c, 0, 77, 0
2, 96055, Note_on_c, 0, 79, 49
2, 96115, Note_on_c, 0, 79, 0
2, 96115, Note_on_c, 0, 81, 59
2, 96135, Note_on_c, 0, 82, 48
2, 96150, Note_on_c, 0, 82, 0
2, 96150, Note_on_c, 0, 81, 48
2, 96165, Note_on_c, 0, 81, 0
2, 96165, Note_on_c, 0, 79, 48
2, 96175, Note_on_c, 0, 81, 0
2, 96180, Note_on_c, 0, 79, 0
2, 96180, Note_on_c, 0, 81, 48
2, 96210, Note_on_c, 0, 81, 0
2, 96210, Note_on_c, 0, 82, 48
2, 96225, Note_on_c, 0, 82, 0
2, 96225, Note_on_c, 0, 84, 48
2, 96240, Note_on_c, 0, 84, 0
2, 96240, Note_on_c, 0, 84, 48
2, 96270, Note_on_c, 0, 84, 0
2, 96270, Note_on_c, 0, 82, 48
2, 96300, Note_on_c, 0, 82, 0
2, 96300, Note_on_c, 0, 82, 48
2, 96330, Note_on_c, 0, 82, 0
2, 96330, Note_on_c, 0, 81, 48
2, 96360, Note_on_c, 0, 81, 0
2, 96360, Note_on_c, 0, 81, 48
2, 96390, Note_on_c, 0, 81, 0
2, 96390, Note_on_c, 0, 79, 48
2, 96420, Note_on_c, 0, 79, 0
2, 96420, Note_on_c, 0, 79, 48
2, 96450, Note_on_c, 0, 79, 0
2, 96450, Note_on_c, 0, 77, 48
2, 96475, Note_on_c, 0, 81, 49
2, 96480, Note_on_c, 0, 77, 0
2, 96542, Note_on_c, 0, 81, 0
2, 96545, Note_on_c, 0, 84, 49
2, 96553, Note_on_c, 0, 84, 0
2, 96555, Note_on_c, 0, 83, 49
2, 96563, Note_on_c, 0, 83, 0
2, 96565, Note_on_c, 0, 84, 49
2, 96573, Note_on_c, 0, 84, 0
2, 96575, Note_on_c, 0, 82, 49
2, 96583, Note_on_c, 0, 82, 0
2, 96585, Note_on_c, 0, 81, 49
2, 96593, Note_on_c, 0, 81, 0
2, 96595, Note_on_c, 0, 79, 49
2, 96655, Note_on_c, 0, 79, 0
2, 96835, Note_on_c, 0, 76, 49
2, 96835, Note_on_c, 0, 79, 49
2, 96865, Note_on_c, 0, 79, 0
2, 96865, Note_on_c, 0, 76, 0
2, 96865, Note_on_c, 0, 84, 49
2, 96895, Note_on_c, 0, 84, 0
2, 96925, Note_on_c, 0, 84, 49
2, 96955, Note_on_c, 0, 84, 0
2, 96955, Note_on_c, 0, 82, 49
2, 96955, Note_on_c, 0, 79, 49
2, 96985, Note_on_c, 0, 79, 0
2, 96985, Note_on_c, 0, 82, 0
2, 96985, Note_on_c, 0, 84, 49
2, 97015, Note_on_c, 0, 84, 0
2, 97045, Note_on_c, 0, 84, 49
2, 97075, Note_on_c, 0, 84, 0
2, 97075, Note_on_c, 0, 81, 69
2, 97075, Note_on_c, 0, 77, 69
2, 97090, Note_on_c, 0, 77, 0
2, 97090, Note_on_c, 0, 81, 0
2, 97090, Note_on_c, 0, 84, 72
2, 97105, Note_on_c, 0, 84, 0
2, 97105, Note_on_c, 0, 83, 80
2, 97120, Note_on_c, 0, 83, 0
2, 97120, Note_on_c, 0, 84, 82
2, 97135, Note_on_c, 0, 84, 0
2, 97135, Note_on_c, 0, 83, 85
2, 97150, Note_on_c, 0, 83, 0
2, 97150, Note_on_c, 0, 84, 88
2, 97165, Note_on_c, 0, 84, 0
2, 97165, Note_on_c, 0, 83, 93
2, 97180, Note_on_c, 0, 83, 0
2, 97180, Note_on_c, 0, 84, 94
2, 97195, Note_on_c, 0, 84, 0
2, 97195, Note_on_c, 0, 76, 49
2, 97195, Note_on_c, 0, 79, 49
2, 97225, Note_on_c, 0, 79, 0
2, 97225, Note_on_c, 0, 76, 0
2, 97225, Note_on_c, 0, 84, 49
2, 97255, Note_on_c, 0, 84, 0
2, 97285, Note_on_c, 0, 84, 49
2, 97315, Note_on_c, 0, 84, 0
2, 97315, Note_on_c, 0, 79, 49
2, 97315, Note_on_c, 0, 82, 49
2, 97345, Note_on_c, 0, 82, 0
2, 97345, Note_on_c, 0, 79, 0
2, 97345, Note_on_c, 0, 84, 49
2, 97375, Note_on_c, 0, 84, 0
2, 97405, Note_on_c, 0, 84, 49
2, 97435, Note_on_c, 0, 84, 0
2, 97435, Note_on_c, 0, 81, 69
2, 97435, Note_on_c, 0, 77, 69
2, 97450, Note_on_c, 0, 77, 0
2, 97450, Note_on_c, 0, 81, 0
2, 97450, Note_on_c, 0, 84, 72
2, 97465, Note_on_c, 0, 84, 0
2, 97465, Note_on_c, 0, 83, 80
2, 97480, Note_on_c, 0, 83, 0
2, 97480, Note_on_c, 0, 84, 82
2, 97495, Note_on_c, 0, 84, 0
2, 97495, Note_on_c, 0, 83, 85
2, 97510, Note_on_c, 0, 83, 0
2, 97510, Note_on_c, 0, 84, 88
2, 97525, Note_on_c, 0, 84, 0
2, 97525, Note_on_c, 0, 83, 93
2, 97540, Note_on_c, 0, 83, 0
2, 97540, Note_on_c, 0, 84, 94
2, 97555, Note_on_c, 0, 84, 0
2, 97590, Note_on_c, 0, 74, 49
2, 97605, Note_on_c, 0, 74, 0
2, 97605, Note_on_c, 0, 79, 49
2, 97620, Note_on_c, 0, 79, 0
2, 97620, Note_on_c, 0, 84, 49
2, 97650, Note_on_c, 0, 84, 0
2, 97650, Note_on_c, 0, 82, 49
2, 97680, Note_on_c, 0, 82, 0
2, 97710, Note_on_c, 0, 72, 49
2, 97725, Note_on_c, 0, 72, 0
2, 97725, Note_on_c, 0, 77, 49
2, 97740, Note_on_c, 0, 77, 0
2, 97740, Note_on_c, 0, 82, 49
2, 97770, Note_on_c, 0, 82, 0
2, 97770, Note_on_c, 0, 81, 49
2, 97800, Note_on_c, 0, 81, 0
2, 97830, Note_on_c, 0, 70, 49
2, 97845, Note_on_c, 0, 70, 0
2, 97845, Note_on_c, 0, 76, 49
2, 97860, Note_on_c, 0, 76, 0
2, 97860, Note_on_c, 0, 81, 49
2, 97890, Note_on_c, 0, 81, 0
2, 97890, Note_on_c, 0, 79, 49
2, 97920, Note_on_c, 0, 79, 0
2, 97920, Note_on_c, 0, 69, 31
2, 97940, Note_on_c, 0, 69, 0
2, 97940, Note_on_c, 0, 72, 31
2, 97960, Note_on_c, 0, 72, 0
2, 97960, Note_on_c, 0, 77, 31
2, 97980, Note_on_c, 0, 77, 0
2, 97980, Note_on_c, 0, 81, 31
2, 98000, Note_on_c, 0, 81, 0
2, 98000, Note_on_c, 0, 77, 31
2, 98020, Note_on_c, 0, 77, 0
2, 98020, Note_on_c, 0, 72, 31
2, 98040, Note_on_c, 0, 72, 0
2, 98040, Note_on_c, 0, 69, 31
2, 98060, Note_on_c, 0, 69, 0
2, 98060, Note_on_c, 0, 72, 31
2, 98080, Note_on_c, 0, 72, 0
2, 98080, Note_on_c, 0, 77, 31
2, 98100, Note_on_c, 0, 77, 0
2, 98100, Note_on_c, 0, 81, 31
2, 98120, Note_on_c, 0, 81, 0
2, 98120, Note_on_c, 0, 77, 31
2, 98140, Note_on_c, 0, 77, 0
2, 98140, Note_on_c, 0, 72, 31
2, 98160, Note_on_c, 0, 72, 0
2, 98160, Note_on_c, 0, 69, 31
2, 98180, Note_on_c, 0, 69, 0
2, 98180, Note_on_c, 0, 72, 31
2, 98200, Note_on_c, 0, 72, 0
2, 98200, Note_on_c, 0, 77, 31
2, 98220, Note_on_c, 0, 77, 0
2, 98220, Note_on_c, 0, 81, 31
2, 98240, Note_on_c, 0, 81, 0
2, 98240, Note_on_c, 0, 77, 31
2, 98260, Note_on_c, 0, 77, 0
2, 98260, Note_on_c, 0, 72, 31
2, 98280, Note_on_c, 0, 72, 0
2, 98280, Note_on_c, 0, 69, 31
2, 98300, Note_on_c, 0, 69, 0
2, 98300, Note_on_c, 0, 74, 31
2, 98320, Note_on_c, 0, 74, 0
2, 98320, Note_on_c, 0, 77, 31
2, 98340, Note_on_c, 0, 77, 0
2, 98340, Note_on_c, 0, 81, 31
2, 98360, Note_on_c, 0, 81, 0
2, 98360, Note_on_c, 0, 77, 31
2, 98380, Note_on_c, 0, 77, 0
2, 98380, Note_on_c, 0, 74, 31
2, 98400, Note_on_c, 0, 74, 0
2, 98400, Note_on_c, 0, 69, 52
2, 98420, Note_on_c, 0, 69, 0
2, 98420, Note_on_c, 0, 74, 57
2, 98440, Note_on_c, 0, 74, 0
2, 98440, Note_on_c, 0, 77, 59
2, 98460, Note_on_c, 0, 77, 0
2, 98460, Note_on_c, 0, 81, 64
2, 98480, Note_on_c, 0, 81, 0
2, 98480, Note_on_c, 0, 77, 68
2, 98500, Note_on_c, 0, 77, 0
2, 98500, Note_on_c, 0, 74, 74
2, 98520, Note_on_c, 0, 74, 0
2, 98520, Note_on_c, 0, 69, 82
2, 98540, Note_on_c, 0, 69, 0
2, 98540, Note_on_c, 0, 74, 85
2, 98560, Note_on_c, 0, 74, 0
2, 98560, Note_on_c, 0, 77, 88
2, 98580, Note_on_c, 0, 77, 0
2, 98580, Note_on_c, 0, 81, 95
2, 98600, Note_on_c, 0, 81, 0
2, 98600, Note_on_c, 0, 77, 101
2, 98620, Note_on_c, 0, 77, 0
2, 98620, Note_on_c, 0, 74, 98
2, 98640, Note_on_c, 0, 74, 0
2, 98660, Note_on_c, 0, 70, 91
2, 98680, Note_on_c, 0, 70, 0
2, 98680, Note_on_c, 0, 77, 88
2, 98700, Note_on_c, 0, 77, 0
2, 98700, Note_on_c, 0, 81, 85
2, 98720, Note_on_c, 0, 81, 0
2, 98720, Note_on_c, 0, 74, 82
2, 98740, Note_on_c, 0, 74, 0
2, 98740, Note_on_c, 0, 79, 78
2, 98760, Note_on_c, 0, 79, 0
2, 98780, Note_on_c, 0, 69, 71
2, 98800, Note_on_c, 0, 69, 0
2, 98800, Note_on_c, 0, 72, 67
2, 98820, Note_on_c, 0, 72, 0
2, 98820, Note_on_c, 0, 79, 61
2, 98840, Note_on_c, 0, 79, 0
2, 98840, Note_on_c, 0, 72, 57
2, 98860, Note_on_c, 0, 72, 0
2, 98860, Note_on_c, 0, 77, 52
2, 98880, Note_on_c, 0, 77, 0
2, 98900, Note_on_c, 0, 67, 49
2, 98920, Note_on_c, 0, 67, 0
2, 98920, Note_on_c, 0, 70, 49
2, 98940, Note_on_c, 0, 70, 0
2, 98940, Note_on_c, 0, 77, 48
2, 98960, Note_on_c, 0, 77, 0
2, 98960, Note_on_c, 0, 70, 47
2, 98980, Note_on_c, 0, 70, 0
2, 98980, Note_on_c, 0, 76, 47
2, 99000, Note_on_c, 0, 76, 0
2, 99000, Note_on_c, 0, 65, 46
2, 99020, Note_on_c, 0, 65, 0
2, 99020, Note_on_c, 0, 69, 46
2, 99040, Note_on_c, 0, 69, 0
2, 99040, Note_on_c, 0, 74, 45
2, 99060, Note_on_c, 0, 74, 0
2, 99060, Note_on_c, 0, 77, 44
2, 99080, Note_on_c, 0, 77, 0
2, 99080, Note_on_c, 0, 74, 43
2, 99100, Note_on_c, 0, 74, 0
2, 99100, Note_on_c, 0, 69, 43
2, 99120, Note_on_c, 0, 69, 0
2, 99120, Note_on_c, 0, 65, 42
2, 99140, Note_on_c, 0, 65, 0
2, 99140, Note_on_c, 0, 69, 42
2, 99160, Note_on_c, 0, 69, 0
2, 99160, Note_on_c, 0, 77, 42
2, 99180, Note_on_c, 0, 77, 0
2, 99180, Note_on_c, 0, 65, 42
2, 99200, Note_on_c, 0, 65, 0
2, 99200, Note_on_c, 0, 69, 42
2, 99220, Note_on_c, 0, 69, 0
2, 99220, Note_on_c, 0, 76, 42
2, 99240, Note_on_c, 0, 76, 0
2, 99240, Note_on_c, 0, 62, 42
2, 99260, Note_on_c, 0, 62, 0
2, 99260, Note_on_c, 0, 65, 42
2, 99280, Note_on_c, 0, 65, 0
2, 99280, Note_on_c, 0, 74, 42
2, 99300, Note_on_c, 0, 74, 0
2, 99300, Note_on_c, 0, 62, 42
2, 99320, Note_on_c, 0, 62, 0
2, 99320, Note_on_c, 0, 65, 42
2, 99340, Note_on_c, 0, 65, 0
2, 99340, Note_on_c, 0, 72, 42
2, 99360, Note_on_c, 0, 72, 0
2, 99360, Note_on_c, 0, 59, 42
2, 99380, Note_on_c, 0, 59, 0
2, 99380, Note_on_c, 0, 62, 42
2, 99400, Note_on_c, 0, 62, 0
2, 99400, Note_on_c, 0, 65, 41
2, 99420, Note_on_c, 0, 65, 0
2, 99420, Note_on_c, 0, 71, 41
2, 99440, Note_on_c, 0, 71, 0
2, 99440, Note_on_c, 0, 65, 41
2, 99460, Note_on_c, 0, 65, 0
2, 99460, Note_on_c, 0, 62, 41
2, 99480, Note_on_c, 0, 62, 0
2, 99480, Note_on_c, 0, 58, 41
2, 99500, Note_on_c, 0, 58, 0
2, 99500, Note_on_c, 0, 64, 41
2, 99520, Note_on_c, 0, 64, 0
2, 99520, Note_on_c, 0, 67, 41
2, 99540, Note_on_c, 0, 67, 0
2, 99540, Note_on_c, 0, 70, 41
2, 99560, Note_on_c, 0, 70, 0
2, 99560, Note_on_c, 0, 67, 41
2, 99580, Note_on_c, 0, 67, 0
2, 99580, Note_on_c, 0, 64, 40
2, 99600, Note_on_c, 0, 64, 0
2, 99600, Note_on_c, 0, 57, 40
2, 99620, Note_on_c, 0, 57, 0
2, 99620, Note_on_c, 0, 62, 40
2, 99640, Note_on_c, 0, 62, 0
2, 99640, Note_on_c, 0, 65, 40
2, 99660, Note_on_c, 0, 65, 0
2, 99660, Note_on_c, 0, 69, 40
2, 99680, Note_on_c, 0, 69, 0
2, 99680, Note_on_c, 0, 65, 39
2, 99700, Note_on_c, 0, 65, 0
2, 99700, Note_on_c, 0, 62, 39
2, 99720, Note_on_c, 0, 62, 0
2, 99740, Note_on_c, 0, 58, 41
2, 99760, Note_on_c, 0, 58, 0
2, 99760, Note_on_c, 0, 62, 41
2, 99780, Note_on_c, 0, 62, 0
2, 99780, Note_on_c, 0, 69, 41
2, 99800, Note_on_c, 0, 69, 0
2, 99800, Note_on_c, 0, 62, 41
2, 99820, Note_on_c, 0, 62, 0
2, 99820, Note_on_c, 0, 67, 41
2, 99840, Note_on_c, 0, 67, 0
2, 99860, Note_on_c, 0, 57, 41
2, 99880, Note_on_c, 0, 57, 0
2, 99880, Note_on_c, 0, 60, 41
2, 99900, Note_on_c, 0, 60, 0
2, 99900, Note_on_c, 0, 67, 41
2, 99920, Note_on_c, 0, 67, 0
2, 99920, Note_on_c, 0, 60, 41
2, 99940, Note_on_c, 0, 60, 0
2, 99940, Note_on_c, 0, 65, 41
2, 99960, Note_on_c, 0, 65, 0
2, 99980, Note_on_c, 0, 55, 41
2, 100000, Note_on_c, 0, 55, 0
2, 100000, Note_on_c, 0, 58, 41
2, 100020, Note_on_c, 0, 58, 0
2, 100020, Note_on_c, 0, 65, 41
2, 100040, Note_on_c, 0, 65, 0
2, 100040, Note_on_c, 0, 58, 41
2, 100060, Note_on_c, 0, 58, 0
2, 100060, Note_on_c, 0, 64, 41
2, 100080, Note_on_c, 0, 64, 0
2, 100080, Note_on_c, 0, 57, 41
2, 100100, Note_on_c, 0, 57, 0
2, 100100, Note_on_c, 0, 60, 41
2, 100120, Note_on_c, 0, 60, 0
2, 100120, Note_on_c, 0, 65, 41
2, 100140, Note_on_c, 0, 65, 0
2, 100140, Note_on_c, 0, 57, 41
2, 100160, Note_on_c, 0, 57, 0
2, 100160, Note_on_c, 0, 60, 41
2, 100180, Note_on_c, 0, 60, 0
2, 100180, Note_on_c, 0, 65, 41
2, 100200, Note_on_c, 0, 65, 0
2, 100200, Note_on_c, 0, 57, 41
2, 100220, Note_on_c, 0, 57, 0
2, 100220, Note_on_c, 0, 60, 41
2, 100240, Note_on_c, 0, 60, 0
2, 100240, Note_on_c, 0, 65, 41
2, 100260, Note_on_c, 0, 65, 0
2, 100260, Note_on_c, 0, 57, 41
2, 100280, Note_on_c, 0, 57, 0
2, 100280, Note_on_c, 0, 60, 41
2, 100300, Note_on_c, 0, 60, 0
2, 100300, Note_on_c, 0, 66, 40
2, 100320, Note_on_c, 0, 66, 0
2, 100320, Note_on_c, 0, 58, 40
2, 100340, Note_on_c, 0, 58, 0
2, 100340, Note_on_c, 0, 62, 50
2, 100360, Note_on_c, 0, 62, 0
2, 100360, Note_on_c, 0, 67, 60
2, 100380, Note_on_c, 0, 67, 0
2, 100380, Note_on_c, 0, 58, 59
2, 100400, Note_on_c, 0, 58, 0
2, 100400, Note_on_c, 0, 60, 48
2, 100420, Note_on_c, 0, 60, 0
2, 100420, Note_on_c, 0, 64, 38
2, 100440, Note_on_c, 0, 64, 0
2, 100440, Note_on_c, 0, 57, 37
2, 100460, Note_on_c, 0, 57, 0
2, 100460, Note_on_c, 0, 60, 36
2, 100480, Note_on_c, 0, 60, 0
2, 100480, Note_on_c, 0, 65, 36
2, 100500, Note_on_c, 0, 65, 0
2, 100500, Note_on_c, 0, 57, 36
2, 100520, Note_on_c, 0, 57, 0
2, 100520, Note_on_c, 0, 60, 36
2, 100540, Note_on_c, 0, 60, 0
2, 100540, Note_on_c, 0, 65, 36
2, 100560, Note_on_c, 0, 65, 0
2, 100560, Note_on_c, 0, 57, 36
2, 100580, Note_on_c, 0, 57, 0
2, 100580, Note_on_c, 0, 60, 36
2, 100600, Note_on_c, 0, 60, 0
2, 100600, Note_on_c, 0, 65, 36
2, 100620, Note_on_c, 0, 65, 0
2, 100620, Note_on_c, 0, 57, 36
2, 100640, Note_on_c, 0, 57, 0
2, 100640, Note_on_c, 0, 60, 46
2, 100660, Note_on_c, 0, 60, 0
2, 100660, Note_on_c, 0, 66, 56
2, 100680, Note_on_c, 0, 66, 0
2, 100680, Note_on_c, 0, 58, 66
2, 100700, Note_on_c, 0, 58, 0
2, 100700, Note_on_c, 0, 62, 56
2, 100720, Note_on_c, 0, 62, 0
2, 100720, Note_on_c, 0, 67, 46
2, 100740, Note_on_c, 0, 67, 0
2, 100740, Note_on_c, 0, 58, 39
2, 100760, Note_on_c, 0, 58, 0
2, 100760, Note_on_c, 0, 61, 40
2, 100780, Note_on_c, 0, 61, 0
2, 100780, Note_on_c, 0, 64, 35
2, 100800, Note_on_c, 0, 64, 0
2, 100800, Note_on_c, 0, 58, 45
2, 100820, Note_on_c, 0, 58, 0
2, 100820, Note_on_c, 0, 61, 50
2, 100840, Note_on_c, 0, 61, 0
2, 100840, Note_on_c, 0, 64, 54
2, 100860, Note_on_c, 0, 64, 0
2, 100860, Note_on_c, 0, 67, 57
2, 100880, Note_on_c, 0, 67, 0
2, 100880, Note_on_c, 0, 64, 61
2, 100900, Note_on_c, 0, 64, 0
2, 100900, Note_on_c, 0, 62, 65
2, 100920, Note_on_c, 0, 62, 0
2, 100920, Note_on_c, 0, 58, 68
2, 100940, Note_on_c, 0, 58, 0
2, 100940, Note_on_c, 0, 62, 73
2, 100960, Note_on_c, 0, 62, 0
2, 100960, Note_on_c, 0, 64, 80
2, 100980, Note_on_c, 0, 64, 0
2, 100980, Note_on_c, 0, 67, 93
2, 101000, Note_on_c, 0, 67, 0
2, 101000, Note_on_c, 0, 64, 97
2, 101020, Note_on_c, 0, 64, 0
2, 101020, Note_on_c, 0, 62, 74
2, 101040, Note_on_c, 0, 62, 0
2, 101040, Note_on_c, 0, 58, 68
2, 101060, Note_on_c, 0, 58, 0
2, 101060, Note_on_c, 0, 62, 61
2, 101080, Note_on_c, 0, 62, 0
2, 101080, Note_on_c, 0, 64, 57
2, 101100, Note_on_c, 0, 64, 0
2, 101100, Note_on_c, 0, 67, 52
2, 101120, Note_on_c, 0, 67, 0
2, 101120, Note_on_c, 0, 64, 47
2, 101140, Note_on_c, 0, 64, 0
2, 101140, Note_on_c, 0, 62, 43
2, 101160, Note_on_c, 0, 62, 0
2, 101160, Note_on_c, 0, 57, 35
2, 101180, Note_on_c, 0, 57, 0
2, 101180, Note_on_c, 0, 60, 35
2, 101200, Note_on_c, 0, 60, 0
2, 101200, Note_on_c, 0, 65, 35
2, 101220, Note_on_c, 0, 65, 0
2, 101220, Note_on_c, 0, 69, 30
2, 101280, Note_on_c, 0, 69, 0
2, 101580, Note_on_c, 0, 65, 27
2, 101640, Note_on_c, 0, 65, 0
2, 101640, End_track
3, 0, Start_track
3, 0, Title_t, "PianoL"
3, 0, Program_c, 1, 0
3, 0, Control_c, 1, 7, 127
3, 0, Control_c, 1, 10, 82
3, 0, Control_c, 1, 93, 27
3, 0, Control_c, 1, 91, 21
3, 720, Note_on_c, 1, 48, 58
3, 720, Note_on_c, 1, 48, 58
3, 780, Note_on_c, 1, 48, 0
3, 780, Note_on_c, 1, 52, 60
3, 840, Note_on_c, 1, 52, 0
3, 840, Note_on_c, 1, 55, 61
3, 900, Note_on_c, 1, 55, 0
3, 900, Note_on_c, 1, 60, 62
3, 960, Note_on_c, 1, 60, 0
3, 960, Note_on_c, 1, 48, 0
3, 1200, Note_on_c, 1, 48, 61
3, 1260, Note_on_c, 1, 48, 0
3, 1260, Note_on_c, 1, 52, 61
3, 1320, Note_on_c, 1, 52, 0
3, 1320, Note_on_c, 1, 55, 61
3, 1380, Note_on_c, 1, 55, 0
3, 1380, Note_on_c, 1, 60, 61
3, 1440, Note_on_c, 1, 60, 0
3, 1440, Note_on_c, 1, 48, 61
3, 1500, Note_on_c, 1, 48, 0
3, 1500, Note_on_c, 1, 52, 64
3, 1560, Note_on_c, 1, 52, 0
3, 1560, Note_on_c, 1, 55, 67
3, 1620, Note_on_c, 1, 55, 0
3, 1620, Note_on_c, 1, 60, 72
3, 1680, Note_on_c, 1, 60, 0
3, 1680, Note_on_c, 1, 48, 76
3, 1740, Note_on_c, 1, 48, 0
3, 1740, Note_on_c, 1, 52, 80
3, 1800, Note_on_c, 1, 52, 0
3, 1800, Note_on_c, 1, 55, 84
3, 1860, Note_on_c, 1, 55, 0
3, 1860, Note_on_c, 1, 60, 89
3, 1920, Note_on_c, 1, 60, 0
3, 1920, Note_on_c, 1, 50, 96
3, 1920, Note_on_c, 1, 62, 96
3, 2222, Note_on_c, 1, 62, 0
3, 2222, Note_on_c, 1, 50, 0
3, 2640, Note_on_c, 1, 55, 58
3, 2700, Note_on_c, 1, 55, 0
3, 2700, Note_on_c, 1, 59, 60
3, 2760, Note_on_c, 1, 59, 0
3, 2760, Note_on_c, 1, 62, 61
3, 2820, Note_on_c, 1, 62, 0
3, 2820, Note_on_c, 1, 65, 62
3, 2880, Note_on_c, 1, 65, 0
3, 3120, Note_on_c, 1, 43, 61
3, 3180, Note_on_c, 1, 43, 0
3, 3180, Note_on_c, 1, 50, 61
3, 3240, Note_on_c, 1, 50, 0
3, 3240, Note_on_c, 1, 53, 61
3, 3300, Note_on_c, 1, 53, 0
3, 3300, Note_on_c, 1, 55, 61
3, 3360, Note_on_c, 1, 55, 0
3, 3360, Note_on_c, 1, 43, 61
3, 3420, Note_on_c, 1, 43, 0
3, 3420, Note_on_c, 1, 50, 64
3, 3480, Note_on_c, 1, 50, 0
3, 3480, Note_on_c, 1, 53, 67
3, 3540, Note_on_c, 1, 53, 0
3, 3540, Note_on_c, 1, 55, 72
3, 3600, Note_on_c, 1, 55, 0
3, 3600, Note_on_c, 1, 43, 76
3, 3660, Note_on_c, 1, 43, 0
3, 3660, Note_on_c, 1, 50, 80
3, 3720, Note_on_c, 1, 50, 0
3, 3720, Note_on_c, 1, 53, 84
3, 3780, Note_on_c, 1, 53, 0
3, 3780, Note_on_c, 1, 55, 89
3, 3840, Note_on_c, 1, 55, 0
3, 3840, Note_on_c, 1, 60, 126
3, 3840, Note_on_c, 1, 48, 126
3, 4145, Note_on_c, 1, 48, 0
3, 4145, Note_on_c, 1, 60, 0
3, 4320, Note_on_c, 1, 64, 59
3, 4360, Note_on_c, 1, 64, 0
3, 4360, Note_on_c, 1, 64, 59
3, 4400, Note_on_c, 1, 64, 0
3, 4400, Note_on_c, 1, 67, 59
3, 4440, Note_on_c, 1, 67, 0
3, 4440, Note_on_c, 1, 72, 59
3, 4560, Note_on_c, 1, 72, 0
3, 4840, Note_on_c, 1, 65, 59
3, 4880, Note_on_c, 1, 65, 0
3, 4880, Note_on_c, 1, 69, 59
3, 4920, Note_on_c, 1, 69, 0
3, 4920, Note_on_c, 1, 74, 59
3, 5040, Note_on_c, 1, 74, 0
3, 5320, Note_on_c, 1, 55, 59
3, 5360, Note_on_c, 1, 55, 0
3, 5360, Note_on_c, 1, 60, 59
3, 5400, Note_on_c, 1, 60, 0
3, 5400, Note_on_c, 1, 64, 59
3, 5520, Note_on_c, 1, 64, 0
3, 5560, Note_on_c, 1, 55, 59
3, 5600, Note_on_c, 1, 55, 0
3, 5600, Note_on_c, 1, 62, 59
3, 5640, Note_on_c, 1, 62, 0
3, 5640, Note_on_c, 1, 65, 59
3, 5760, Note_on_c, 1, 65, 0
3, 5800, Note_on_c, 1, 60, 64
3, 5840, Note_on_c, 1, 60, 0
3, 5840, Note_on_c, 1, 64, 64
3, 5880, Note_on_c, 1, 64, 0
3, 5880, Note_on_c, 1, 67, 64
3, 6000, Note_on_c, 1, 67, 0
3, 6280, Note_on_c, 1, 64, 66
3, 6320, Note_on_c, 1, 64, 0
3, 6320, Note_on_c, 1, 67, 66
3, 6360, Note_on_c, 1, 67, 0
3, 6360, Note_on_c, 1, 72, 65
3, 6480, Note_on_c, 1, 72, 0
3, 6760, Note_on_c, 1, 65, 82
3, 6800, Note_on_c, 1, 65, 0
3, 6800, Note_on_c, 1, 69, 82
3, 6840, Note_on_c, 1, 69, 0
3, 6840, Note_on_c, 1, 74, 82
3, 6960, Note_on_c, 1, 74, 0
3, 7240, Note_on_c, 1, 55, 84
3, 7280, Note_on_c, 1, 55, 0
3, 7280, Note_on_c, 1, 60, 84
3, 7320, Note_on_c, 1, 60, 0
3, 7320, Note_on_c, 1, 64, 84
3, 7440, Note_on_c, 1, 64, 0
3, 7480, Note_on_c, 1, 55, 84
3, 7520, Note_on_c, 1, 55, 0
3, 7520, Note_on_c, 1, 62, 84
3, 7560, Note_on_c, 1, 62, 0
3, 7560, Note_on_c, 1, 65, 84
3, 7680, Note_on_c, 1, 65, 0
3, 7680, Note_on_c, 1, 48, 103
3, 7740, Note_on_c, 1, 48, 0
3, 7740, Note_on_c, 1, 52, 103
3, 7800, Note_on_c, 1, 52, 0
3, 7800, Note_on_c, 1, 55, 103
3, 7860, Note_on_c, 1, 55, 0
3, 7860, Note_on_c, 1, 60, 103
3, 7920, Note_on_c, 1, 60, 0
3, 7920, Note_on_c, 1, 48, 103
3, 8040, Note_on_c, 1, 48, 0
3, 8160, Note_on_c, 1, 57, 103
3, 8220, Note_on_c, 1, 57, 0
3, 8220, Note_on_c, 1, 60, 103
3, 8280, Note_on_c, 1, 60, 0
3, 8280, Note_on_c, 1, 66, 103
3, 8340, Note_on_c, 1, 66, 0
3, 8340, Note_on_c, 1, 69, 103
3, 8400, Note_on_c, 1, 69, 0
3, 8400, Note_on_c, 1, 57, 103
3, 8520, Note_on_c, 1, 57, 0
3, 8640, Note_on_c, 1, 54, 103
3, 8700, Note_on_c, 1, 54, 0
3, 8700, Note_on_c, 1, 57, 103
3, 8760, Note_on_c, 1, 57, 0
3, 8760, Note_on_c, 1, 62, 103
3, 8820, Note_on_c, 1, 62, 0
3, 8820, Note_on_c, 1, 66, 103
3, 8880, Note_on_c, 1, 66, 0
3, 8880, Note_on_c, 1, 54, 103
3, 9000, Note_on_c, 1, 54, 0
3, 9120, Note_on_c, 1, 55, 73
3, 9240, Note_on_c, 1, 55, 0
3, 9240, Note_on_c, 1, 59, 73
3, 9360, Note_on_c, 1, 59, 0
3, 9360, Note_on_c, 1, 62, 73
3, 9480, Note_on_c, 1, 62, 0
3, 9480, Note_on_c, 1, 67, 73
3, 9600, Note_on_c, 1, 67, 0
3, 9600, Note_on_c, 1, 69, 73
3, 9720, Note_on_c, 1, 69, 0
3, 9720, Note_on_c, 1, 66, 73
3, 9840, Note_on_c, 1, 66, 0
3, 9840, Note_on_c, 1, 62, 73
3, 9960, Note_on_c, 1, 62, 0
3, 9960, Note_on_c, 1, 60, 73
3, 10080, Note_on_c, 1, 60, 0
3, 10080, Note_on_c, 1, 59, 73
3, 10200, Note_on_c, 1, 59, 0
3, 10200, Note_on_c, 1, 62, 73
3, 10320, Note_on_c, 1, 62, 0
3, 10320, Note_on_c, 1, 66, 73
3, 10440, Note_on_c, 1, 66, 0
3, 10440, Note_on_c, 1, 67, 73
3, 10560, Note_on_c, 1, 67, 0
3, 10560, Note_on_c, 1, 69, 73
3, 10680, Note_on_c, 1, 69, 0
3, 10680, Note_on_c, 1, 66, 73
3, 10800, Note_on_c, 1, 66, 0
3, 10800, Note_on_c, 1, 62, 73
3, 10920, Note_on_c, 1, 62, 0
3, 10920, Note_on_c, 1, 60, 73
3, 11040, Note_on_c, 1, 60, 0
3, 11040, Note_on_c, 1, 59, 73
3, 11160, Note_on_c, 1, 59, 0
3, 11160, Note_on_c, 1, 71, 73
3, 11280, Note_on_c, 1, 71, 0
3, 11280, Note_on_c, 1, 60, 73
3, 11400, Note_on_c, 1, 60, 0
3, 11400, Note_on_c, 1, 72, 73
3, 11520, Note_on_c, 1, 72, 0
3, 11520, Note_on_c, 1, 62, 77
3, 11640, Note_on_c, 1, 62, 0
3, 11640, Note_on_c, 1, 74, 79
3, 11760, Note_on_c, 1, 74, 0
3, 11760, Note_on_c, 1, 63, 79
3, 11880, Note_on_c, 1, 63, 0
3, 11880, Note_on_c, 1, 75, 79
3, 12000, Note_on_c, 1, 75, 0
3, 12000, Note_on_c, 1, 76, 79
3, 12120, Note_on_c, 1, 76, 0
3, 12120, Note_on_c, 1, 75, 79
3, 12240, Note_on_c, 1, 75, 0
3, 12240, Note_on_c, 1, 76, 79
3, 12360, Note_on_c, 1, 76, 0
3, 12360, Note_on_c, 1, 75, 79
3, 12480, Note_on_c, 1, 75, 0
3, 12480, Note_on_c, 1, 76, 79
3, 12600, Note_on_c, 1, 76, 0
3, 12600, Note_on_c, 1, 72, 76
3, 12720, Note_on_c, 1, 72, 0
3, 12720, Note_on_c, 1, 74, 72
3, 12840, Note_on_c, 1, 74, 0
3, 12840, Note_on_c, 1, 62, 67
3, 12960, Note_on_c, 1, 62, 0
3, 12960, Note_on_c, 1, 67, 60
3, 13080, Note_on_c, 1, 67, 0
3, 13080, Note_on_c, 1, 63, 60
3, 13080, Note_on_c, 1, 51, 60
3, 13200, Note_on_c, 1, 51, 0
3, 13200, Note_on_c, 1, 63, 0
3, 13200, Note_on_c, 1, 52, 59
3, 13200, Note_on_c, 1, 64, 59
3, 13320, Note_on_c, 1, 64, 0
3, 13320, Note_on_c, 1, 52, 0
3, 13320, Note_on_c, 1, 63, 59
3, 13320, Note_on_c, 1, 51, 59
3, 13440, Note_on_c, 1, 51, 0
3, 13440, Note_on_c, 1, 63, 0
3, 13440, Note_on_c, 1, 52, 57
3, 13440, Note_on_c, 1, 64, 57
3, 13560, Note_on_c, 1, 64, 0
3, 13560, Note_on_c, 1, 52, 0
3, 13560, Note_on_c, 1, 60, 57
3, 13560, Note_on_c, 1, 48, 57
3, 13680, Note_on_c, 1, 48, 0
3, 13680, Note_on_c, 1, 60, 0
3, 13680, Note_on_c, 1, 50, 57
3, 13680, Note_on_c, 1, 62, 57
3, 13800, Note_on_c, 1, 62, 0
3, 13800, Note_on_c, 1, 50, 0
3, 13800, Note_on_c, 1, 50, 57
3, 13920, Note_on_c, 1, 50, 0
3, 13920, Note_on_c, 1, 43, 57
3, 13920, Note_on_c, 1, 43, 57
3, 14040, Note_on_c, 1, 43, 0
3, 14040, Note_on_c, 1, 55, 57
3, 14160, Note_on_c, 1, 55, 0
3, 14160, Note_on_c, 1, 55, 58
3, 14280, Note_on_c, 1, 55, 0
3, 14280, Note_on_c, 1, 55, 58
3, 14400, Note_on_c, 1, 55, 0
3, 14400, Note_on_c, 1, 43, 0
3, 14400, Note_on_c, 1, 43, 59
3, 14400, Note_on_c, 1, 43, 59
3, 14520, Note_on_c, 1, 43, 0
3, 14520, Note_on_c, 1, 55, 61
3, 14640, Note_on_c, 1, 55, 0
3, 14640, Note_on_c, 1, 55, 61
3, 14760, Note_on_c, 1, 55, 0
3, 14760, Note_on_c, 1, 55, 61
3, 14880, Note_on_c, 1, 55, 0
3, 14880, Note_on_c, 1, 43, 0
3, 14880, Note_on_c, 1, 43, 61
3, 14880, Note_on_c, 1, 55, 61
3, 15000, Note_on_c, 1, 55, 0
3, 15000, Note_on_c, 1, 43, 0
3, 15240, Note_on_c, 1, 55, 53
3, 15280, Note_on_c, 1, 55, 0
3, 15280, Note_on_c, 1, 50, 51
3, 15320, Note_on_c, 1, 50, 0
3, 15320, Note_on_c, 1, 47, 50
3, 15360, Note_on_c, 1, 47, 0
3, 15360, Note_on_c, 1, 43, 41
3, 15480, Note_on_c, 1, 43, 0
3, 16080, Note_on_c, 1, 48, 58
3, 16080, Note_on_c, 1, 48, 58
3, 16140, Note_on_c, 1, 48, 0
3, 16140, Note_on_c, 1, 52, 60
3, 16200, Note_on_c, 1, 52, 0
3, 16200, Note_on_c, 1, 55, 61
3, 16260, Note_on_c, 1, 55, 0
3, 16260, Note_on_c, 1, 60, 62
3, 16320, Note_on_c, 1, 60, 0
3, 16320, Note_on_c, 1, 48, 0
3, 16560, Note_on_c, 1, 48, 61
3, 16620, Note_on_c, 1, 48, 0
3, 16620, Note_on_c, 1, 52, 61
3, 16680, Note_on_c, 1, 52, 0
3, 16680, Note_on_c, 1, 55, 61
3, 16740, Note_on_c, 1, 55, 0
3, 16740, Note_on_c, 1, 60, 61
3, 16800, Note_on_c, 1, 60, 0
3, 16800, Note_on_c, 1, 48, 61
3, 16860, Note_on_c, 1, 48, 0
3, 16860, Note_on_c, 1, 52, 64
3, 16920, Note_on_c, 1, 52, 0
3, 16920, Note_on_c, 1, 55, 67
3, 16980, Note_on_c, 1, 55, 0
3, 16980, Note_on_c, 1, 60, 72
3, 17040, Note_on_c, 1, 60, 0
3, 17040, Note_on_c, 1, 48, 76
3, 17100, Note_on_c, 1, 48, 0
3, 17100, Note_on_c, 1, 52, 80
3, 17160, Note_on_c, 1, 52, 0
3, 17160, Note_on_c, 1, 55, 84
3, 17220, Note_on_c, 1, 55, 0
3, 17220, Note_on_c, 1, 60, 89
3, 17280, Note_on_c, 1, 60, 0
3, 17280, Note_on_c, 1, 50, 96
3, 17280, Note_on_c, 1, 62, 96
3, 17582, Note_on_c, 1, 62, 0
3, 17582, Note_on_c, 1, 50, 0
3, 18000, Note_on_c, 1, 55, 58
3, 18060, Note_on_c, 1, 55, 0
3, 18060, Note_on_c, 1, 59, 60
3, 18120, Note_on_c, 1, 59, 0
3, 18120, Note_on_c, 1, 62, 61
3, 18180, Note_on_c, 1, 62, 0
3, 18180, Note_on_c, 1, 65, 62
3, 18240, Note_on_c, 1, 65, 0
3, 18480, Note_on_c, 1, 43, 61
3, 18540, Note_on_c, 1, 43, 0
3, 18540, Note_on_c, 1, 50, 61
3, 18600, Note_on_c, 1, 50, 0
3, 18600, Note_on_c, 1, 53, 61
3, 18660, Note_on_c, 1, 53, 0
3, 18660, Note_on_c, 1, 55, 61
3, 18720, Note_on_c, 1, 55, 0
3, 18720, Note_on_c, 1, 43, 61
3, 18780, Note_on_c, 1, 43, 0
3, 18780, Note_on_c, 1, 50, 64
3, 18840, Note_on_c, 1, 50, 0
3, 18840, Note_on_c, 1, 53, 67
3, 18900, Note_on_c, 1, 53, 0
3, 18900, Note_on_c, 1, 55, 72
3, 18960, Note_on_c, 1, 55, 0
3, 18960, Note_on_c, 1, 43, 76
3, 19020, Note_on_c, 1, 43, 0
3, 19020, Note_on_c, 1, 50, 80
3, 19080, Note_on_c, 1, 50, 0
3, 19080, Note_on_c, 1, 53, 84
3, 19140, Note_on_c, 1, 53, 0
3, 19140, Note_on_c, 1, 55, 89
3, 19200, Note_on_c, 1, 55, 0
3, 19200, Note_on_c, 1, 60, 126
3, 19200, Note_on_c, 1, 48, 126
3, 19505, Note_on_c, 1, 48, 0
3, 19505, Note_on_c, 1, 60, 0
3, 19680, Note_on_c, 1, 64, 59
3, 19720, Note_on_c, 1, 64, 0
3, 19720, Note_on_c, 1, 64, 59
3, 19760, Note_on_c, 1, 64, 0
3, 19760, Note_on_c, 1, 67, 59
3, 19800, Note_on_c, 1, 67, 0
3, 19800, Note_on_c, 1, 72, 59
3, 19920, Note_on_c, 1, 72, 0
3, 20200, Note_on_c, 1, 65, 59
3, 20240, Note_on_c, 1, 65, 0
3, 20240, Note_on_c, 1, 69, 59
3, 20280, Note_on_c, 1, 69, 0
3, 20280, Note_on_c, 1, 74, 59
3, 20400, Note_on_c, 1, 74, 0
3, 20680, Note_on_c, 1, 55, 59
3, 20720, Note_on_c, 1, 55, 0
3, 20720, Note_on_c, 1, 60, 59
3, 20760, Note_on_c, 1, 60, 0
3, 20760, Note_on_c, 1, 64, 59
3, 20880, Note_on_c, 1, 64, 0
3, 20920, Note_on_c, 1, 55, 59
3, 20960, Note_on_c, 1, 55, 0
3, 20960, Note_on_c, 1, 62, 59
3, 21000, Note_on_c, 1, 62, 0
3, 21000, Note_on_c, 1, 65, 59
3, 21120, Note_on_c, 1, 65, 0
3, 21160, Note_on_c, 1, 60, 64
3, 21200, Note_on_c, 1, 60, 0
3, 21200, Note_on_c, 1, 64, 64
3, 21240, Note_on_c, 1, 64, 0
3, 21240, Note_on_c, 1, 67, 64
3, 21360, Note_on_c, 1, 67, 0
3, 21640, Note_on_c, 1, 64, 66
3, 21680, Note_on_c, 1, 64, 0
3, 21680, Note_on_c, 1, 67, 66
3, 21720, Note_on_c, 1, 67, 0
3, 21720, Note_on_c, 1, 72, 65
3, 21840, Note_on_c, 1, 72, 0
3, 22120, Note_on_c, 1, 65, 82
3, 22160, Note_on_c, 1, 65, 0
3, 22160, Note_on_c, 1, 69, 82
3, 22200, Note_on_c, 1, 69, 0
3, 22200, Note_on_c, 1, 74, 82
3, 22320, Note_on_c, 1, 74, 0
3, 22600, Note_on_c, 1, 55, 84
3, 22640, Note_on_c, 1, 55, 0
3, 22640, Note_on_c, 1, 60, 84
3, 22680, Note_on_c, 1, 60, 0
3, 22680, Note_on_c, 1, 64, 84
3, 22800, Note_on_c, 1, 64, 0
3, 22840, Note_on_c, 1, 55, 84
3, 22880, Note_on_c, 1, 55, 0
3, 22880, Note_on_c, 1, 62, 84
3, 22920, Note_on_c, 1, 62, 0
3, 22920, Note_on_c, 1, 65, 84
3, 23040, Note_on_c, 1, 65, 0
3, 23040, Note_on_c, 1, 48, 103
3, 23100, Note_on_c, 1, 48, 0
3, 23100, Note_on_c, 1, 52, 103
3, 23160, Note_on_c, 1, 52, 0
3, 23160, Note_on_c, 1, 55, 103
3, 23220, Note_on_c, 1, 55, 0
3, 23220, Note_on_c, 1, 60, 103
3, 23280, Note_on_c, 1, 60, 0
3, 23280, Note_on_c, 1, 48, 103
3, 23400, Note_on_c, 1, 48, 0
3, 23520, Note_on_c, 1, 57, 103
3, 23580, Note_on_c, 1, 57, 0
3, 23580, Note_on_c, 1, 60, 103
3, 23640, Note_on_c, 1, 60, 0
3, 23640, Note_on_c, 1, 66, 103
3, 23700, Note_on_c, 1, 66, 0
3, 23700, Note_on_c, 1, 69, 103
3, 23760, Note_on_c, 1, 69, 0
3, 23760, Note_on_c, 1, 57, 103
3, 23880, Note_on_c, 1, 57, 0
3, 24000, Note_on_c, 1, 54, 103
3, 24060, Note_on_c, 1, 54, 0
3, 24060, Note_on_c, 1, 57, 103
3, 24120, Note_on_c, 1, 57, 0
3, 24120, Note_on_c, 1, 62, 103
3, 24180, Note_on_c, 1, 62, 0
3, 24180, Note_on_c, 1, 66, 103
3, 24240, Note_on_c, 1, 66, 0
3, 24240, Note_on_c, 1, 54, 103
3, 24360, Note_on_c, 1, 54, 0
3, 24480, Note_on_c, 1, 55, 73
3, 24600, Note_on_c, 1, 55, 0
3, 24600, Note_on_c, 1, 59, 73
3, 24720, Note_on_c, 1, 59, 0
3, 24720, Note_on_c, 1, 62, 73
3, 24840, Note_on_c, 1, 62, 0
3, 24840, Note_on_c, 1, 67, 73
3, 24960, Note_on_c, 1, 67, 0
3, 24960, Note_on_c, 1, 69, 73
3, 25080, Note_on_c, 1, 69, 0
3, 25080, Note_on_c, 1, 66, 73
3, 25200, Note_on_c, 1, 66, 0
3, 25200, Note_on_c, 1, 62, 73
3, 25320, Note_on_c, 1, 62, 0
3, 25320, Note_on_c, 1, 60, 73
3, 25440, Note_on_c, 1, 60, 0
3, 25440, Note_on_c, 1, 59, 73
3, 25560, Note_on_c, 1, 59, 0
3, 25560, Note_on_c, 1, 62, 73
3, 25680, Note_on_c, 1, 62, 0
3, 25680, Note_on_c, 1, 66, 73
3, 25800, Note_on_c, 1, 66, 0
3, 25800, Note_on_c, 1, 67, 73
3, 25920, Note_on_c, 1, 67, 0
3, 25920, Note_on_c, 1, 69, 73
3, 26040, Note_on_c, 1, 69, 0
3, 26040, Note_on_c, 1, 66, 73
3, 26160, Note_on_c, 1, 66, 0
3, 26160, Note_on_c, 1, 62, 73
3, 26280, Note_on_c, 1, 62, 0
3, 26280, Note_on_c, 1, 60, 73
3, 26400, Note_on_c, 1, 60, 0
3, 26400, Note_on_c, 1, 59, 73
3, 26520, Note_on_c, 1, 59, 0
3, 26520, Note_on_c, 1, 71, 73
3, 26640, Note_on_c, 1, 71, 0
3, 26640, Note_on_c, 1, 60, 73
3, 26760, Note_on_c, 1, 60, 0
3, 26760, Note_on_c, 1, 72, 73
3, 26880, Note_on_c, 1, 72, 0
3, 26880, Note_on_c, 1, 62, 77
3, 27000, Note_on_c, 1, 62, 0
3, 27000, Note_on_c, 1, 74, 79
3, 27120, Note_on_c, 1, 74, 0
3, 27120, Note_on_c, 1, 63, 79
3, 27240, Note_on_c, 1, 63, 0
3, 27240, Note_on_c, 1, 75, 79
3, 27360, Note_on_c, 1, 75, 0
3, 27360, Note_on_c, 1, 76, 79
3, 27480, Note_on_c, 1, 76, 0
3, 27480, Note_on_c, 1, 75, 79
3, 27600, Note_on_c, 1, 75, 0
3, 27600, Note_on_c, 1, 76, 79
3, 27720, Note_on_c, 1, 76, 0
3, 27720, Note_on_c, 1, 75, 79
3, 27840, Note_on_c, 1, 75, 0
3, 27840, Note_on_c, 1, 76, 79
3, 27960, Note_on_c, 1, 76, 0
3, 27960, Note_on_c, 1, 72, 76
3, 28080, Note_on_c, 1, 72, 0
3, 28080, Note_on_c, 1, 74, 72
3, 28200, Note_on_c, 1, 74, 0
3, 28200, Note_on_c, 1, 62, 67
3, 28320, Note_on_c, 1, 62, 0
3, 28320, Note_on_c, 1, 67, 60
3, 28440, Note_on_c, 1, 67, 0
3, 28440, Note_on_c, 1, 63, 60
3, 28440, Note_on_c, 1, 51, 60
3, 28560, Note_on_c, 1, 51, 0
3, 28560, Note_on_c, 1, 63, 0
3, 28560, Note_on_c, 1, 52, 59
3, 28560, Note_on_c, 1, 64, 59
3, 28680, Note_on_c, 1, 64, 0
3, 28680, Note_on_c, 1, 52, 0
3, 28680, Note_on_c, 1, 63, 59
3, 28680, Note_on_c, 1, 51, 59
3, 28800, Note_on_c, 1, 51, 0
3, 28800, Note_on_c, 1, 63, 0
3, 28800, Note_on_c, 1, 52, 57
3, 28800, Note_on_c, 1, 64, 57
3, 28920, Note_on_c, 1, 64, 0
3, 28920, Note_on_c, 1, 52, 0
3, 28920, Note_on_c, 1, 60, 57
3, 28920, Note_on_c, 1, 48, 57
3, 29040, Note_on_c, 1, 48, 0
3, 29040, Note_on_c, 1, 60, 0
3, 29040, Note_on_c, 1, 50, 57
3, 29040, Note_on_c, 1, 62, 57
3, 29160, Note_on_c, 1, 62, 0
3, 29160, Note_on_c, 1, 50, 0
3, 29160, Note_on_c, 1, 50, 57
3, 29280, Note_on_c, 1, 50, 0
3, 29280, Note_on_c, 1, 43, 57
3, 29280, Note_on_c, 1, 43, 57
3, 29400, Note_on_c, 1, 43, 0
3, 29400, Note_on_c, 1, 55, 57
3, 29520, Note_on_c, 1, 55, 0
3, 29520, Note_on_c, 1, 55, 58
3, 29640, Note_on_c, 1, 55, 0
3, 29640, Note_on_c, 1, 55, 58
3, 29760, Note_on_c, 1, 55, 0
3, 29760, Note_on_c, 1, 43, 0
3, 29760, Note_on_c, 1, 43, 59
3, 29760, Note_on_c, 1, 43, 59
3, 29880, Note_on_c, 1, 43, 0
3, 29880, Note_on_c, 1, 55, 61
3, 30000, Note_on_c, 1, 55, 0
3, 30000, Note_on_c, 1, 55, 61
3, 30120, Note_on_c, 1, 55, 0
3, 30120, Note_on_c, 1, 55, 61
3, 30240, Note_on_c, 1, 55, 0
3, 30240, Note_on_c, 1, 43, 0
3, 30240, Note_on_c, 1, 43, 61
3, 30240, Note_on_c, 1, 55, 61
3, 30360, Note_on_c, 1, 55, 0
3, 30360, Note_on_c, 1, 43, 0
3, 30600, Note_on_c, 1, 55, 53
3, 30640, Note_on_c, 1, 55, 0
3, 30640, Note_on_c, 1, 50, 51
3, 30680, Note_on_c, 1, 50, 0
3, 30680, Note_on_c, 1, 47, 50
3, 30720, Note_on_c, 1, 47, 0
3, 30720, Note_on_c, 1, 43, 41
3, 30840, Note_on_c, 1, 43, 0
3, 31440, Note_on_c, 1, 51, 79
3, 31500, Note_on_c, 1, 51, 0
3, 31500, Note_on_c, 1, 55, 79
3, 31560, Note_on_c, 1, 55, 0
3, 31560, Note_on_c, 1, 58, 79
3, 31620, Note_on_c, 1, 58, 0
3, 31620, Note_on_c, 1, 63, 79
3, 31680, Note_on_c, 1, 63, 0
3, 31920, Note_on_c, 1, 51, 79
3, 31980, Note_on_c, 1, 51, 0
3, 31980, Note_on_c, 1, 55, 79
3, 32040, Note_on_c, 1, 55, 0
3, 32040, Note_on_c, 1, 58, 79
3, 32100, Note_on_c, 1, 58, 0
3, 32100, Note_on_c, 1, 63, 79
3, 32160, Note_on_c, 1, 63, 0
3, 32160, Note_on_c, 1, 51, 79
3, 32220, Note_on_c, 1, 51, 0
3, 32220, Note_on_c, 1, 55, 79
3, 32280, Note_on_c, 1, 55, 0
3, 32280, Note_on_c, 1, 58, 79
3, 32340, Note_on_c, 1, 58, 0
3, 32340, Note_on_c, 1, 63, 79
3, 32400, Note_on_c, 1, 63, 0
3, 32400, Note_on_c, 1, 51, 79
3, 32460, Note_on_c, 1, 51, 0
3, 32460, Note_on_c, 1, 55, 79
3, 32520, Note_on_c, 1, 55, 0
3, 32520, Note_on_c, 1, 58, 79
3, 32580, Note_on_c, 1, 58, 0
3, 32580, Note_on_c, 1, 63, 79
3, 32640, Note_on_c, 1, 63, 0
3, 32640, Note_on_c, 1, 65, 119
3, 32640, Note_on_c, 1, 53, 119
3, 32940, Note_on_c, 1, 53, 0
3, 32940, Note_on_c, 1, 65, 0
3, 33120, Note_on_c, 1, 53, 79
3, 33180, Note_on_c, 1, 53, 0
3, 33180, Note_on_c, 1, 58, 79
3, 33240, Note_on_c, 1, 58, 0
3, 33240, Note_on_c, 1, 62, 79
3, 33300, Note_on_c, 1, 62, 0
3, 33300, Note_on_c, 1, 65, 79
3, 33360, Note_on_c, 1, 65, 0
3, 33360, Note_on_c, 1, 53, 79
3, 33420, Note_on_c, 1, 53, 0
3, 33420, Note_on_c, 1, 58, 79
3, 33480, Note_on_c, 1, 58, 0
3, 33480, Note_on_c, 1, 62, 79
3, 33540, Note_on_c, 1, 62, 0
3, 33540, Note_on_c, 1, 65, 79
3, 33600, Note_on_c, 1, 65, 0
3, 33600, Note_on_c, 1, 55, 119
3, 33600, Note_on_c, 1, 67, 119
3, 33900, Note_on_c, 1, 67, 0
3, 33900, Note_on_c, 1, 55, 0
3, 34080, Note_on_c, 1, 55, 61
3, 34140, Note_on_c, 1, 55, 0
3, 34140, Note_on_c, 1, 61, 62
3, 34200, Note_on_c, 1, 61, 0
3, 34200, Note_on_c, 1, 64, 63
3, 34260, Note_on_c, 1, 64, 0
3, 34260, Note_on_c, 1, 67, 66
3, 34320, Note_on_c, 1, 67, 0
3, 34320, Note_on_c, 1, 55, 69
3, 34380, Note_on_c, 1, 55, 0
3, 34380, Note_on_c, 1, 61, 74
3, 34440, Note_on_c, 1, 61, 0
3, 34440, Note_on_c, 1, 64, 76
3, 34500, Note_on_c, 1, 64, 0
3, 34500, Note_on_c, 1, 67, 78
3, 34560, Note_on_c, 1, 67, 0
3, 34560, Note_on_c, 1, 56, 80
3, 34680, Note_on_c, 1, 56, 0
3, 34680, Note_on_c, 1, 68, 56
3, 34800, Note_on_c, 1, 68, 0
3, 34800, Note_on_c, 1, 68, 56
3, 34920, Note_on_c, 1, 68, 0
3, 34920, Note_on_c, 1, 68, 56
3, 35040, Note_on_c, 1, 68, 0
3, 35040, Note_on_c, 1, 55, 56
3, 35160, Note_on_c, 1, 55, 0
3, 35160, Note_on_c, 1, 67, 56
3, 35280, Note_on_c, 1, 67, 0
3, 35280, Note_on_c, 1, 67, 56
3, 35400, Note_on_c, 1, 67, 0
3, 35400, Note_on_c, 1, 67, 59
3, 35520, Note_on_c, 1, 67, 0
3, 35520, Note_on_c, 1, 53, 59
3, 35640, Note_on_c, 1, 53, 0
3, 35640, Note_on_c, 1, 65, 59
3, 35760, Note_on_c, 1, 65, 0
3, 35760, Note_on_c, 1, 65, 59
3, 35880, Note_on_c, 1, 65, 0
3, 35880, Note_on_c, 1, 65, 59
3, 36000, Note_on_c, 1, 65, 0
3, 36000, Note_on_c, 1, 51, 59
3, 36120, Note_on_c, 1, 51, 0
3, 36120, Note_on_c, 1, 63, 59
3, 36240, Note_on_c, 1, 63, 0
3, 36240, Note_on_c, 1, 63, 59
3, 36360, Note_on_c, 1, 63, 0
3, 36360, Note_on_c, 1, 63, 59
3, 36480, Note_on_c, 1, 63, 0
3, 36720, Note_on_c, 1, 49, 40
3, 36780, Note_on_c, 1, 49, 0
3, 36780, Note_on_c, 1, 53, 40
3, 36840, Note_on_c, 1, 53, 0
3, 36840, Note_on_c, 1, 56, 40
3, 36900, Note_on_c, 1, 56, 0
3, 36900, Note_on_c, 1, 61, 40
3, 36960, Note_on_c, 1, 61, 0
3, 37200, Note_on_c, 1, 49, 40
3, 37260, Note_on_c, 1, 49, 0
3, 37260, Note_on_c, 1, 53, 40
3, 37320, Note_on_c, 1, 53, 0
3, 37320, Note_on_c, 1, 56, 40
3, 37380, Note_on_c, 1, 56, 0
3, 37380, Note_on_c, 1, 61, 40
3, 37440, Note_on_c, 1, 61, 0
3, 37440, Note_on_c, 1, 61, 53
3, 37680, Note_on_c, 1, 61, 0
3, 37680, Note_on_c, 1, 60, 66
3, 37920, Note_on_c, 1, 60, 0
3, 37920, Note_on_c, 1, 59, 53
3, 38160, Note_on_c, 1, 59, 0
3, 38160, Note_on_c, 1, 60, 53
3, 38400, Note_on_c, 1, 60, 0
3, 38400, Note_on_c, 1, 53, 53
3, 38760, Note_on_c, 1, 53, 0
3, 38760, Note_on_c, 1, 53, 53
3, 38880, Note_on_c, 1, 53, 0
3, 38880, Note_on_c, 1, 54, 53
3, 39240, Note_on_c, 1, 54, 0
3, 39240, Note_on_c, 1, 54, 53
3, 39360, Note_on_c, 1, 54, 0
3, 39360, Note_on_c, 1, 55, 45
3, 39520, Note_on_c, 1, 55, 0
3, 39520, Note_on_c, 1, 59, 46
3, 39560, Note_on_c, 1, 59, 0
3, 39560, Note_on_c, 1, 62, 46
3, 39600, Note_on_c, 1, 62, 0
3, 39600, Note_on_c, 1, 55, 46
3, 39760, Note_on_c, 1, 55, 0
3, 39760, Note_on_c, 1, 60, 47
3, 39800, Note_on_c, 1, 60, 0
3, 39800, Note_on_c, 1, 63, 47
3, 39840, Note_on_c, 1, 63, 0
3, 39840, Note_on_c, 1, 55, 47
3, 40000, Note_on_c, 1, 55, 0
3, 40000, Note_on_c, 1, 62, 47
3, 40040, Note_on_c, 1, 62, 0
3, 40040, Note_on_c, 1, 65, 47
3, 40080, Note_on_c, 1, 65, 0
3, 40080, Note_on_c, 1, 55, 47
3, 40240, Note_on_c, 1, 55, 0
3, 40240, Note_on_c, 1, 60, 47
3, 40280, Note_on_c, 1, 60, 0
3, 40280, Note_on_c, 1, 63, 47
3, 40320, Note_on_c, 1, 63, 0
3, 40320, Note_on_c, 1, 55, 47
3, 40480, Note_on_c, 1, 55, 0
3, 40480, Note_on_c, 1, 62, 51
3, 40520, Note_on_c, 1, 62, 0
3, 40520, Note_on_c, 1, 65, 53
3, 40560, Note_on_c, 1, 65, 0
3, 40560, Note_on_c, 1, 55, 54
3, 40720, Note_on_c, 1, 55, 0
3, 40720, Note_on_c, 1, 60, 59
3, 40760, Note_on_c, 1, 60, 0
3, 40760, Note_on_c, 1, 63, 60
3, 40800, Note_on_c, 1, 63, 0
3, 40800, Note_on_c, 1, 55, 60
3, 40960, Note_on_c, 1, 55, 0
3, 40960, Note_on_c, 1, 61, 68
3, 41000, Note_on_c, 1, 61, 0
3, 41000, Note_on_c, 1, 64, 71
3, 41040, Note_on_c, 1, 64, 0
3, 41040, Note_on_c, 1, 55, 73
3, 41200, Note_on_c, 1, 55, 0
3, 41200, Note_on_c, 1, 62, 83
3, 41240, Note_on_c, 1, 62, 0
3, 41240, Note_on_c, 1, 65, 86
3, 41280, Note_on_c, 1, 65, 0
3, 41280, Note_on_c, 1, 55, 90
3, 41440, Note_on_c, 1, 55, 0
3, 41440, Note_on_c, 1, 62, 104
3, 41480, Note_on_c, 1, 62, 0
3, 41480, Note_on_c, 1, 65, 108
3, 41520, Note_on_c, 1, 65, 0
3, 42480, Note_on_c, 1, 48, 58
3, 42480, Note_on_c, 1, 48, 58
3, 42540, Note_on_c, 1, 48, 0
3, 42540, Note_on_c, 1, 52, 60
3, 42600, Note_on_c, 1, 52, 0
3, 42600, Note_on_c, 1, 55, 61
3, 42660, Note_on_c, 1, 55, 0
3, 42660, Note_on_c, 1, 60, 62
3, 42720, Note_on_c, 1, 60, 0
3, 42720, Note_on_c, 1, 48, 0
3, 42960, Note_on_c, 1, 48, 61
3, 43020, Note_on_c, 1, 48, 0
3, 43020, Note_on_c, 1, 52, 61
3, 43080, Note_on_c, 1, 52, 0
3, 43080, Note_on_c, 1, 55, 61
3, 43140, Note_on_c, 1, 55, 0
3, 43140, Note_on_c, 1, 60, 61
3, 43200, Note_on_c, 1, 60, 0
3, 43200, Note_on_c, 1, 48, 61
3, 43260, Note_on_c, 1, 48, 0
3, 43260, Note_on_c, 1, 52, 64
3, 43320, Note_on_c, 1, 52, 0
3, 43320, Note_on_c, 1, 55, 67
3, 43380, Note_on_c, 1, 55, 0
3, 43380, Note_on_c, 1, 60, 72
3, 43440, Note_on_c, 1, 60, 0
3, 43440, Note_on_c, 1, 48, 76
3, 43500, Note_on_c, 1, 48, 0
3, 43500, Note_on_c, 1, 52, 80
3, 43560, Note_on_c, 1, 52, 0
3, 43560, Note_on_c, 1, 55, 84
3, 43620, Note_on_c, 1, 55, 0
3, 43620, Note_on_c, 1, 60, 89
3, 43680, Note_on_c, 1, 60, 0
3, 43680, Note_on_c, 1, 50, 96
3, 43680, Note_on_c, 1, 62, 96
3, 43982, Note_on_c, 1, 62, 0
3, 43982, Note_on_c, 1, 50, 0
3, 44400, Note_on_c, 1, 55, 58
3, 44460, Note_on_c, 1, 55, 0
3, 44460, Note_on_c, 1, 59, 60
3, 44520, Note_on_c, 1, 59, 0
3, 44520, Note_on_c, 1, 62, 61
3, 44580, Note_on_c, 1, 62, 0
3, 44580, Note_on_c, 1, 65, 62
3, 44640, Note_on_c, 1, 65, 0
3, 44880, Note_on_c, 1, 43, 61
3, 44940, Note_on_c, 1, 43, 0
3, 44940, Note_on_c, 1, 50, 61
3, 45000, Note_on_c, 1, 50, 0
3, 45000, Note_on_c, 1, 53, 61
3, 45060, Note_on_c, 1, 53, 0
3, 45060, Note_on_c, 1, 55, 61
3, 45120, Note_on_c, 1, 55, 0
3, 45120, Note_on_c, 1, 43, 61
3, 45180, Note_on_c, 1, 43, 0
3, 45180, Note_on_c, 1, 50, 64
3, 45240, Note_on_c, 1, 50, 0
3, 45240, Note_on_c, 1, 53, 67
3, 45300, Note_on_c, 1, 53, 0
3, 45300, Note_on_c, 1, 55, 72
3, 45360, Note_on_c, 1, 55, 0
3, 45360, Note_on_c, 1, 43, 76
3, 45420, Note_on_c, 1, 43, 0
3, 45420, Note_on_c, 1, 50, 80
3, 45480, Note_on_c, 1, 50, 0
3, 45480, Note_on_c, 1, 53, 84
3, 45540, Note_on_c, 1, 53, 0
3, 45540, Note_on_c, 1, 55, 89
3, 45600, Note_on_c, 1, 55, 0
3, 45600, Note_on_c, 1, 60, 126
3, 45600, Note_on_c, 1, 48, 126
3, 45905, Note_on_c, 1, 48, 0
3, 45905, Note_on_c, 1, 60, 0
3, 46080, Note_on_c, 1, 64, 59
3, 46120, Note_on_c, 1, 64, 0
3, 46120, Note_on_c, 1, 64, 59
3, 46160, Note_on_c, 1, 64, 0
3, 46160, Note_on_c, 1, 67, 59
3, 46200, Note_on_c, 1, 67, 0
3, 46200, Note_on_c, 1, 72, 59
3, 46320, Note_on_c, 1, 72, 0
3, 46600, Note_on_c, 1, 65, 59
3, 46640, Note_on_c, 1, 65, 0
3, 46640, Note_on_c, 1, 69, 59
3, 46680, Note_on_c, 1, 69, 0
3, 46680, Note_on_c, 1, 74, 59
3, 46800, Note_on_c, 1, 74, 0
3, 47080, Note_on_c, 1, 55, 59
3, 47120, Note_on_c, 1, 55, 0
3, 47120, Note_on_c, 1, 60, 59
3, 47160, Note_on_c, 1, 60, 0
3, 47160, Note_on_c, 1, 64, 59
3, 47280, Note_on_c, 1, 64, 0
3, 47320, Note_on_c, 1, 55, 59
3, 47360, Note_on_c, 1, 55, 0
3, 47360, Note_on_c, 1, 62, 59
3, 47400, Note_on_c, 1, 62, 0
3, 47400, Note_on_c, 1, 65, 59
3, 47520, Note_on_c, 1, 65, 0
3, 47560, Note_on_c, 1, 60, 64
3, 47600, Note_on_c, 1, 60, 0
3, 47600, Note_on_c, 1, 64, 64
3, 47640, Note_on_c, 1, 64, 0
3, 47640, Note_on_c, 1, 67, 64
3, 47760, Note_on_c, 1, 67, 0
3, 48040, Note_on_c, 1, 64, 76
3, 48080, Note_on_c, 1, 64, 0
3, 48080, Note_on_c, 1, 67, 76
3, 48120, Note_on_c, 1, 67, 0
3, 48120, Note_on_c, 1, 72, 76
3, 48240, Note_on_c, 1, 72, 0
3, 48520, Note_on_c, 1, 64, 79
3, 48560, Note_on_c, 1, 64, 0
3, 48560, Note_on_c, 1, 67, 79
3, 48600, Note_on_c, 1, 67, 0
3, 48600, Note_on_c, 1, 72, 79
3, 48720, Note_on_c, 1, 72, 0
3, 49000, Note_on_c, 1, 65, 51
3, 49040, Note_on_c, 1, 65, 0
3, 49040, Note_on_c, 1, 69, 51
3, 49080, Note_on_c, 1, 69, 0
3, 49080, Note_on_c, 1, 72, 51
3, 49200, Note_on_c, 1, 72, 0
3, 49240, Note_on_c, 1, 58, 50
3, 49280, Note_on_c, 1, 58, 0
3, 49280, Note_on_c, 1, 62, 50
3, 49320, Note_on_c, 1, 62, 0
3, 49320, Note_on_c, 1, 67, 50
3, 49440, Note_on_c, 1, 67, 0
3, 49480, Note_on_c, 1, 60, 51
3, 49520, Note_on_c, 1, 60, 0
3, 49520, Note_on_c, 1, 65, 51
3, 49560, Note_on_c, 1, 65, 0
3, 49560, Note_on_c, 1, 69, 51
3, 49680, Note_on_c, 1, 69, 0
3, 49720, Note_on_c, 1, 48, 51
3, 49760, Note_on_c, 1, 48, 0
3, 49760, Note_on_c, 1, 55, 51
3, 49800, Note_on_c, 1, 55, 0
3, 49800, Note_on_c, 1, 60, 51
3, 49920, Note_on_c, 1, 60, 0
3, 49920, Note_on_c, 1, 53, 51
3, 50040, Note_on_c, 1, 53, 0
3, 50040, Note_on_c, 1, 60, 51
3, 50160, Note_on_c, 1, 60, 0
3, 50160, Note_on_c, 1, 65, 51
3, 50280, Note_on_c, 1, 65, 0
3, 50280, Note_on_c, 1, 69, 51
3, 50400, Note_on_c, 1, 69, 0
3, 50400, Note_on_c, 1, 67, 51
3, 50520, Note_on_c, 1, 67, 0
3, 50520, Note_on_c, 1, 64, 51
3, 50640, Note_on_c, 1, 64, 0
3, 50640, Note_on_c, 1, 60, 51
3, 50760, Note_on_c, 1, 60, 0
3, 50760, Note_on_c, 1, 58, 51
3, 50880, Note_on_c, 1, 58, 0
3, 50880, Note_on_c, 1, 57, 51
3, 51000, Note_on_c, 1, 57, 0
3, 51000, Note_on_c, 1, 60, 51
3, 51120, Note_on_c, 1, 60, 0
3, 51120, Note_on_c, 1, 65, 51
3, 51240, Note_on_c, 1, 65, 0
3, 51240, Note_on_c, 1, 69, 51
3, 51360, Note_on_c, 1, 69, 0
3, 51360, Note_on_c, 1, 67, 51
3, 51480, Note_on_c, 1, 67, 0
3, 51480, Note_on_c, 1, 64, 51
3, 51600, Note_on_c, 1, 64, 0
3, 51600, Note_on_c, 1, 60, 51
3, 51720, Note_on_c, 1, 60, 0
3, 51720, Note_on_c, 1, 58, 51
3, 51840, Note_on_c, 1, 58, 0
3, 51840, Note_on_c, 1, 57, 51
3, 51960, Note_on_c, 1, 57, 0
3, 51960, Note_on_c, 1, 65, 51
3, 52080, Note_on_c, 1, 65, 0
3, 52080, Note_on_c, 1, 59, 51
3, 52200, Note_on_c, 1, 59, 0
3, 52200, Note_on_c, 1, 67, 51
3, 52320, Note_on_c, 1, 67, 0
3, 52320, Note_on_c, 1, 60, 51
3, 52440, Note_on_c, 1, 60, 0
3, 52440, Note_on_c, 1, 67, 51
3, 52560, Note_on_c, 1, 67, 0
3, 52560, Note_on_c, 1, 55, 51
3, 52680, Note_on_c, 1, 55, 0
3, 52680, Note_on_c, 1, 65, 51
3, 52800, Note_on_c, 1, 65, 0
3, 52800, Note_on_c, 1, 48, 51
3, 52920, Note_on_c, 1, 48, 0
3, 52920, Note_on_c, 1, 55, 51
3, 53040, Note_on_c, 1, 55, 0
3, 53040, Note_on_c, 1, 60, 51
3, 53160, Note_on_c, 1, 60, 0
3, 53160, Note_on_c, 1, 64, 51
3, 53280, Note_on_c, 1, 64, 0
3, 53280, Note_on_c, 1, 62, 51
3, 53400, Note_on_c, 1, 62, 0
3, 53400, Note_on_c, 1, 59, 51
3, 53520, Note_on_c, 1, 59, 0
3, 53520, Note_on_c, 1, 55, 51
3, 53640, Note_on_c, 1, 55, 0
3, 53640, Note_on_c, 1, 53, 51
3, 53760, Note_on_c, 1, 53, 0
3, 53760, Note_on_c, 1, 52, 51
3, 53880, Note_on_c, 1, 52, 0
3, 53880, Note_on_c, 1, 55, 51
3, 54000, Note_on_c, 1, 55, 0
3, 54000, Note_on_c, 1, 60, 51
3, 54120, Note_on_c, 1, 60, 0
3, 54120, Note_on_c, 1, 64, 51
3, 54240, Note_on_c, 1, 64, 0
3, 54240, Note_on_c, 1, 62, 51
3, 54360, Note_on_c, 1, 62, 0
3, 54360, Note_on_c, 1, 59, 51
3, 54480, Note_on_c, 1, 59, 0
3, 54480, Note_on_c, 1, 55, 51
3, 54600, Note_on_c, 1, 55, 0
3, 54600, Note_on_c, 1, 53, 51
3, 54720, Note_on_c, 1, 53, 0
3, 54720, Note_on_c, 1, 52, 51
3, 54840, Note_on_c, 1, 52, 0
3, 54840, Note_on_c, 1, 64, 51
3, 54960, Note_on_c, 1, 64, 0
3, 54960, Note_on_c, 1, 53, 51
3, 55080, Note_on_c, 1, 53, 0
3, 55080, Note_on_c, 1, 65, 61
3, 55200, Note_on_c, 1, 65, 0
3, 55200, Note_on_c, 1, 55, 71
3, 55320, Note_on_c, 1, 55, 0
3, 55320, Note_on_c, 1, 67, 71
3, 55440, Note_on_c, 1, 67, 0
3, 55440, Note_on_c, 1, 56, 81
3, 55560, Note_on_c, 1, 56, 0
3, 55560, Note_on_c, 1, 68, 91
3, 55680, Note_on_c, 1, 68, 0
3, 55680, Note_on_c, 1, 69, 101
3, 55800, Note_on_c, 1, 69, 0
3, 55800, Note_on_c, 1, 68, 51
3, 55920, Note_on_c, 1, 68, 0
3, 55920, Note_on_c, 1, 69, 51
3, 56040, Note_on_c, 1, 69, 0
3, 56040, Note_on_c, 1, 68, 51
3, 56160, Note_on_c, 1, 68, 0
3, 56160, Note_on_c, 1, 69, 51
3, 56280, Note_on_c, 1, 69, 0
3, 56280, Note_on_c, 1, 65, 51
3, 56400, Note_on_c, 1, 65, 0
3, 56400, Note_on_c, 1, 67, 51
3, 56520, Note_on_c, 1, 67, 0
3, 56520, Note_on_c, 1, 55, 51
3, 56640, Note_on_c, 1, 55, 0
3, 56640, Note_on_c, 1, 60, 51
3, 56760, Note_on_c, 1, 60, 0
3, 56760, Note_on_c, 1, 56, 54
3, 56760, Note_on_c, 1, 68, 54
3, 56880, Note_on_c, 1, 68, 0
3, 56880, Note_on_c, 1, 56, 0
3, 56880, Note_on_c, 1, 57, 54
3, 56880, Note_on_c, 1, 69, 54
3, 57000, Note_on_c, 1, 69, 0
3, 57000, Note_on_c, 1, 57, 0
3, 57000, Note_on_c, 1, 68, 53
3, 57000, Note_on_c, 1, 56, 53
3, 57120, Note_on_c, 1, 56, 0
3, 57120, Note_on_c, 1, 68, 0
3, 57120, Note_on_c, 1, 69, 52
3, 57120, Note_on_c, 1, 57, 52
3, 57240, Note_on_c, 1, 57, 0
3, 57240, Note_on_c, 1, 69, 0
3, 57240, Note_on_c, 1, 65, 51
3, 57360, Note_on_c, 1, 65, 0
3, 57360, Note_on_c, 1, 67, 51
3, 57480, Note_on_c, 1, 67, 0
3, 57480, Note_on_c, 1, 55, 50
3, 57600, Note_on_c, 1, 55, 0
3, 57600, Note_on_c, 1, 48, 50
3, 57600, Note_on_c, 1, 48, 50
3, 57720, Note_on_c, 1, 48, 0
3, 57720, Note_on_c, 1, 60, 48
3, 57840, Note_on_c, 1, 60, 0
3, 57840, Note_on_c, 1, 60, 48
3, 57960, Note_on_c, 1, 60, 0
3, 57960, Note_on_c, 1, 60, 46
3, 58080, Note_on_c, 1, 60, 0
3, 58080, Note_on_c, 1, 48, 0
3, 58080, Note_on_c, 1, 48, 46
3, 58080, Note_on_c, 1, 48, 46
3, 58200, Note_on_c, 1, 48, 0
3, 58200, Note_on_c, 1, 60, 46
3, 58320, Note_on_c, 1, 60, 0
3, 58320, Note_on_c, 1, 60, 45
3, 58440, Note_on_c, 1, 60, 0
3, 58440, Note_on_c, 1, 60, 44
3, 58560, Note_on_c, 1, 60, 0
3, 58560, Note_on_c, 1, 48, 0
3, 58560, Note_on_c, 1, 48, 44
3, 58560, Note_on_c, 1, 48, 44
3, 58680, Note_on_c, 1, 48, 0
3, 58680, Note_on_c, 1, 60, 43
3, 58800, Note_on_c, 1, 60, 0
3, 58800, Note_on_c, 1, 60, 43
3, 58920, Note_on_c, 1, 60, 0
3, 58920, Note_on_c, 1, 60, 41
3, 59040, Note_on_c, 1, 60, 0
3, 59040, Note_on_c, 1, 48, 0
3, 59040, Note_on_c, 1, 48, 47
3, 59040, Note_on_c, 1, 48, 47
3, 59160, Note_on_c, 1, 48, 0
3, 59160, Note_on_c, 1, 60, 62
3, 59280, Note_on_c, 1, 60, 0
3, 59280, Note_on_c, 1, 60, 80
3, 59400, Note_on_c, 1, 60, 0
3, 59400, Note_on_c, 1, 60, 93
3, 59520, Note_on_c, 1, 60, 0
3, 59520, Note_on_c, 1, 48, 0
3, 59520, Note_on_c, 1, 48, 34
3, 59640, Note_on_c, 1, 48, 0
3, 59880, Note_on_c, 1, 60, 23
3, 59920, Note_on_c, 1, 60, 0
3, 59920, Note_on_c, 1, 55, 23
3, 59960, Note_on_c, 1, 55, 0
3, 59960, Note_on_c, 1, 52, 23
3, 60000, Note_on_c, 1, 52, 0
3, 60000, Note_on_c, 1, 48, 41
3, 60120, Note_on_c, 1, 48, 0
3, 60720, Note_on_c, 1, 51, 79
3, 60780, Note_on_c, 1, 51, 0
3, 60780, Note_on_c, 1, 55, 79
3, 60840, Note_on_c, 1, 55, 0
3, 60840, Note_on_c, 1, 58, 79
3, 60900, Note_on_c, 1, 58, 0
3, 60900, Note_on_c, 1, 63, 79
3, 60960, Note_on_c, 1, 63, 0
3, 61200, Note_on_c, 1, 51, 79
3, 61260, Note_on_c, 1, 51, 0
3, 61260, Note_on_c, 1, 55, 79
3, 61320, Note_on_c, 1, 55, 0
3, 61320, Note_on_c, 1, 58, 79
3, 61380, Note_on_c, 1, 58, 0
3, 61380, Note_on_c, 1, 63, 79
3, 61440, Note_on_c, 1, 63, 0
3, 61440, Note_on_c, 1, 51, 79
3, 61500, Note_on_c, 1, 51, 0
3, 61500, Note_on_c, 1, 55, 79
3, 61560, Note_on_c, 1, 55, 0
3, 61560, Note_on_c, 1, 58, 79
3, 61620, Note_on_c, 1, 58, 0
3, 61620, Note_on_c, 1, 63, 79
3, 61680, Note_on_c, 1, 63, 0
3, 61680, Note_on_c, 1, 51, 79
3, 61740, Note_on_c, 1, 51, 0
3, 61740, Note_on_c, 1, 55, 79
3, 61800, Note_on_c, 1, 55, 0
3, 61800, Note_on_c, 1, 58, 79
3, 61860, Note_on_c, 1, 58, 0
3, 61860, Note_on_c, 1, 63, 79
3, 61920, Note_on_c, 1, 63, 0
3, 61920, Note_on_c, 1, 65, 119
3, 61920, Note_on_c, 1, 53, 119
3, 62220, Note_on_c, 1, 53, 0
3, 62220, Note_on_c, 1, 65, 0
3, 62400, Note_on_c, 1, 53, 79
3, 62460, Note_on_c, 1, 53, 0
3, 62460, Note_on_c, 1, 58, 79
3, 62520, Note_on_c, 1, 58, 0
3, 62520, Note_on_c, 1, 62, 79
3, 62580, Note_on_c, 1, 62, 0
3, 62580, Note_on_c, 1, 65, 79
3, 62640, Note_on_c, 1, 65, 0
3, 62640, Note_on_c, 1, 53, 79
3, 62700, Note_on_c, 1, 53, 0
3, 62700, Note_on_c, 1, 58, 79
3, 62760, Note_on_c, 1, 58, 0
3, 62760, Note_on_c, 1, 62, 79
3, 62820, Note_on_c, 1, 62, 0
3, 62820, Note_on_c, 1, 65, 79
3, 62880, Note_on_c, 1, 65, 0
3, 62880, Note_on_c, 1, 55, 119
3, 62880, Note_on_c, 1, 67, 119
3, 63180, Note_on_c, 1, 67, 0
3, 63180, Note_on_c, 1, 55, 0
3, 63360, Note_on_c, 1, 55, 61
3, 63420, Note_on_c, 1, 55, 0
3, 63420, Note_on_c, 1, 61, 62
3, 63480, Note_on_c, 1, 61, 0
3, 63480, Note_on_c, 1, 64, 63
3, 63540, Note_on_c, 1, 64, 0
3, 63540, Note_on_c, 1, 67, 66
3, 63600, Note_on_c, 1, 67, 0
3, 63600, Note_on_c, 1, 55, 69
3, 63660, Note_on_c, 1, 55, 0
3, 63660, Note_on_c, 1, 61, 74
3, 63720, Note_on_c, 1, 61, 0
3, 63720, Note_on_c, 1, 64, 76
3, 63780, Note_on_c, 1, 64, 0
3, 63780, Note_on_c, 1, 67, 78
3, 63840, Note_on_c, 1, 67, 0
3, 63840, Note_on_c, 1, 56, 80
3, 63960, Note_on_c, 1, 56, 0
3, 63960, Note_on_c, 1, 68, 56
3, 64080, Note_on_c, 1, 68, 0
3, 64080, Note_on_c, 1, 68, 56
3, 64200, Note_on_c, 1, 68, 0
3, 64200, Note_on_c, 1, 68, 56
3, 64320, Note_on_c, 1, 68, 0
3, 64320, Note_on_c, 1, 55, 56
3, 64440, Note_on_c, 1, 55, 0
3, 64440, Note_on_c, 1, 67, 56
3, 64560, Note_on_c, 1, 67, 0
3, 64560, Note_on_c, 1, 67, 56
3, 64680, Note_on_c, 1, 67, 0
3, 64680, Note_on_c, 1, 67, 59
3, 64800, Note_on_c, 1, 67, 0
3, 64800, Note_on_c, 1, 53, 59
3, 64920, Note_on_c, 1, 53, 0
3, 64920, Note_on_c, 1, 65, 59
3, 65040, Note_on_c, 1, 65, 0
3, 65040, Note_on_c, 1, 65, 59
3, 65160, Note_on_c, 1, 65, 0
3, 65160, Note_on_c, 1, 65, 59
3, 65280, Note_on_c, 1, 65, 0
3, 65280, Note_on_c, 1, 51, 59
3, 65400, Note_on_c, 1, 51, 0
3, 65400, Note_on_c, 1, 63, 59
3, 65520, Note_on_c, 1, 63, 0
3, 65520, Note_on_c, 1, 63, 59
3, 65640, Note_on_c, 1, 63, 0
3, 65640, Note_on_c, 1, 63, 59
3, 65760, Note_on_c, 1, 63, 0
3, 66000, Note_on_c, 1, 49, 40
3, 66060, Note_on_c, 1, 49, 0
3, 66060, Note_on_c, 1, 53, 40
3, 66120, Note_on_c, 1, 53, 0
3, 66120, Note_on_c, 1, 56, 40
3, 66180, Note_on_c, 1, 56, 0
3, 66180, Note_on_c, 1, 61, 40
3, 66240, Note_on_c, 1, 61, 0
3, 66480, Note_on_c, 1, 49, 40
3, 66540, Note_on_c, 1, 49, 0
3, 66540, Note_on_c, 1, 53, 40
3, 66600, Note_on_c, 1, 53, 0
3, 66600, Note_on_c, 1, 56, 40
3, 66660, Note_on_c, 1, 56, 0
3, 66660, Note_on_c, 1, 61, 40
3, 66720, Note_on_c, 1, 61, 0
3, 66720, Note_on_c, 1, 61, 53
3, 66960, Note_on_c, 1, 61, 0
3, 66960, Note_on_c, 1, 60, 66
3, 67200, Note_on_c, 1, 60, 0
3, 67200, Note_on_c, 1, 59, 53
3, 67440, Note_on_c, 1, 59, 0
3, 67440, Note_on_c, 1, 60, 53
3, 67680, Note_on_c, 1, 60, 0
3, 67680, Note_on_c, 1, 53, 53
3, 68040, Note_on_c, 1, 53, 0
3, 68040, Note_on_c, 1, 53, 53
3, 68160, Note_on_c, 1, 53, 0
3, 68160, Note_on_c, 1, 54, 53
3, 68520, Note_on_c, 1, 54, 0
3, 68520, Note_on_c, 1, 54, 53
3, 68640, Note_on_c, 1, 54, 0
3, 68640, Note_on_c, 1, 55, 45
3, 68800, Note_on_c, 1, 55, 0
3, 68800, Note_on_c, 1, 59, 46
3, 68840, Note_on_c, 1, 59, 0
3, 68840, Note_on_c, 1, 62, 46
3, 68880, Note_on_c, 1, 62, 0
3, 68880, Note_on_c, 1, 55, 46
3, 69040, Note_on_c, 1, 55, 0
3, 69040, Note_on_c, 1, 60, 47
3, 69080, Note_on_c, 1, 60, 0
3, 69080, Note_on_c, 1, 63, 47
3, 69120, Note_on_c, 1, 63, 0
3, 69120, Note_on_c, 1, 55, 47
3, 69280, Note_on_c, 1, 55, 0
3, 69280, Note_on_c, 1, 62, 47
3, 69320, Note_on_c, 1, 62, 0
3, 69320, Note_on_c, 1, 65, 47
3, 69360, Note_on_c, 1, 65, 0
3, 69360, Note_on_c, 1, 55, 47
3, 69520, Note_on_c, 1, 55, 0
3, 69520, Note_on_c, 1, 60, 47
3, 69560, Note_on_c, 1, 60, 0
3, 69560, Note_on_c, 1, 63, 47
3, 69600, Note_on_c, 1, 63, 0
3, 69600, Note_on_c, 1, 55, 47
3, 69760, Note_on_c, 1, 55, 0
3, 69760, Note_on_c, 1, 62, 51
3, 69800, Note_on_c, 1, 62, 0
3, 69800, Note_on_c, 1, 65, 53
3, 69840, Note_on_c, 1, 65, 0
3, 69840, Note_on_c, 1, 55, 54
3, 70000, Note_on_c, 1, 55, 0
3, 70000, Note_on_c, 1, 60, 59
3, 70040, Note_on_c, 1, 60, 0
3, 70040, Note_on_c, 1, 63, 60
3, 70080, Note_on_c, 1, 63, 0
3, 70080, Note_on_c, 1, 55, 60
3, 70240, Note_on_c, 1, 55, 0
3, 70240, Note_on_c, 1, 61, 68
3, 70280, Note_on_c, 1, 61, 0
3, 70280, Note_on_c, 1, 64, 71
3, 70320, Note_on_c, 1, 64, 0
3, 70320, Note_on_c, 1, 55, 73
3, 70480, Note_on_c, 1, 55, 0
3, 70480, Note_on_c, 1, 62, 83
3, 70520, Note_on_c, 1, 62, 0
3, 70520, Note_on_c, 1, 65, 86
3, 70560, Note_on_c, 1, 65, 0
3, 70560, Note_on_c, 1, 55, 90
3, 70720, Note_on_c, 1, 55, 0
3, 70720, Note_on_c, 1, 62, 104
3, 70760, Note_on_c, 1, 62, 0
3, 70760, Note_on_c, 1, 65, 108
3, 70800, Note_on_c, 1, 65, 0
3, 71280, Note_on_c, 1, 48, 58
3, 71280, Note_on_c, 1, 48, 58
3, 71340, Note_on_c, 1, 48, 0
3, 71340, Note_on_c, 1, 52, 60
3, 71400, Note_on_c, 1, 52, 0
3, 71400, Note_on_c, 1, 55, 61
3, 71460, Note_on_c, 1, 55, 0
3, 71460, Note_on_c, 1, 60, 62
3, 71520, Note_on_c, 1, 60, 0
3, 71520, Note_on_c, 1, 48, 0
3, 71760, Note_on_c, 1, 48, 61
3, 71820, Note_on_c, 1, 48, 0
3, 71820, Note_on_c, 1, 52, 61
3, 71880, Note_on_c, 1, 52, 0
3, 71880, Note_on_c, 1, 55, 61
3, 71940, Note_on_c, 1, 55, 0
3, 71940, Note_on_c, 1, 60, 61
3, 72000, Note_on_c, 1, 60, 0
3, 72000, Note_on_c, 1, 48, 61
3, 72060, Note_on_c, 1, 48, 0
3, 72060, Note_on_c, 1, 52, 64
3, 72120, Note_on_c, 1, 52, 0
3, 72120, Note_on_c, 1, 55, 67
3, 72180, Note_on_c, 1, 55, 0
3, 72180, Note_on_c, 1, 60, 72
3, 72240, Note_on_c, 1, 60, 0
3, 72240, Note_on_c, 1, 48, 76
3, 72300, Note_on_c, 1, 48, 0
3, 72300, Note_on_c, 1, 52, 80
3, 72360, Note_on_c, 1, 52, 0
3, 72360, Note_on_c, 1, 55, 84
3, 72420, Note_on_c, 1, 55, 0
3, 72420, Note_on_c, 1, 60, 89
3, 72480, Note_on_c, 1, 60, 0
3, 72480, Note_on_c, 1, 50, 96
3, 72480, Note_on_c, 1, 62, 96
3, 72782, Note_on_c, 1, 62, 0
3, 72782, Note_on_c, 1, 50, 0
3, 73200, Note_on_c, 1, 55, 58
3, 73260, Note_on_c, 1, 55, 0
3, 73260, Note_on_c, 1, 59, 60
3, 73320, Note_on_c, 1, 59, 0
3, 73320, Note_on_c, 1, 62, 61
3, 73380, Note_on_c, 1, 62, 0
3, 73380, Note_on_c, 1, 65, 62
3, 73440, Note_on_c, 1, 65, 0
3, 73680, Note_on_c, 1, 43, 61
3, 73740, Note_on_c, 1, 43, 0
3, 73740, Note_on_c, 1, 50, 61
3, 73800, Note_on_c, 1, 50, 0
3, 73800, Note_on_c, 1, 53, 61
3, 73860, Note_on_c, 1, 53, 0
3, 73860, Note_on_c, 1, 55, 61
3, 73920, Note_on_c, 1, 55, 0
3, 73920, Note_on_c, 1, 43, 61
3, 73980, Note_on_c, 1, 43, 0
3, 73980, Note_on_c, 1, 50, 64
3, 74040, Note_on_c, 1, 50, 0
3, 74040, Note_on_c, 1, 53, 67
3, 74100, Note_on_c, 1, 53, 0
3, 74100, Note_on_c, 1, 55, 72
3, 74160, Note_on_c, 1, 55, 0
3, 74160, Note_on_c, 1, 43, 76
3, 74220, Note_on_c, 1, 43, 0
3, 74220, Note_on_c, 1, 50, 80
3, 74280, Note_on_c, 1, 50, 0
3, 74280, Note_on_c, 1, 53, 84
3, 74340, Note_on_c, 1, 53, 0
3, 74340, Note_on_c, 1, 55, 89
3, 74400, Note_on_c, 1, 55, 0
3, 74400, Note_on_c, 1, 60, 126
3, 74400, Note_on_c, 1, 48, 126
3, 74705, Note_on_c, 1, 48, 0
3, 74705, Note_on_c, 1, 60, 0
3, 74880, Note_on_c, 1, 64, 59
3, 74920, Note_on_c, 1, 64, 0
3, 74920, Note_on_c, 1, 64, 59
3, 74960, Note_on_c, 1, 64, 0
3, 74960, Note_on_c, 1, 67, 59
3, 75000, Note_on_c, 1, 67, 0
3, 75000, Note_on_c, 1, 72, 59
3, 75120, Note_on_c, 1, 72, 0
3, 75400, Note_on_c, 1, 65, 59
3, 75440, Note_on_c, 1, 65, 0
3, 75440, Note_on_c, 1, 69, 59
3, 75480, Note_on_c, 1, 69, 0
3, 75480, Note_on_c, 1, 74, 59
3, 75600, Note_on_c, 1, 74, 0
3, 75880, Note_on_c, 1, 55, 59
3, 75920, Note_on_c, 1, 55, 0
3, 75920, Note_on_c, 1, 60, 59
3, 75960, Note_on_c, 1, 60, 0
3, 75960, Note_on_c, 1, 64, 59
3, 76080, Note_on_c, 1, 64, 0
3, 76120, Note_on_c, 1, 55, 59
3, 76160, Note_on_c, 1, 55, 0
3, 76160, Note_on_c, 1, 62, 59
3, 76200, Note_on_c, 1, 62, 0
3, 76200, Note_on_c, 1, 65, 59
3, 76320, Note_on_c, 1, 65, 0
3, 76360, Note_on_c, 1, 60, 64
3, 76400, Note_on_c, 1, 60, 0
3, 76400, Note_on_c, 1, 64, 64
3, 76440, Note_on_c, 1, 64, 0
3, 76440, Note_on_c, 1, 67, 64
3, 76560, Note_on_c, 1, 67, 0
3, 76840, Note_on_c, 1, 64, 76
3, 76880, Note_on_c, 1, 64, 0
3, 76880, Note_on_c, 1, 67, 76
3, 76920, Note_on_c, 1, 67, 0
3, 76920, Note_on_c, 1, 72, 76
3, 77040, Note_on_c, 1, 72, 0
3, 77320, Note_on_c, 1, 64, 79
3, 77360, Note_on_c, 1, 64, 0
3, 77360, Note_on_c, 1, 67, 79
3, 77400, Note_on_c, 1, 67, 0
3, 77400, Note_on_c, 1, 72, 79
3, 77520, Note_on_c, 1, 72, 0
3, 77800, Note_on_c, 1, 65, 51
3, 77840, Note_on_c, 1, 65, 0
3, 77840, Note_on_c, 1, 69, 51
3, 77880, Note_on_c, 1, 69, 0
3, 77880, Note_on_c, 1, 72, 51
3, 78000, Note_on_c, 1, 72, 0
3, 78040, Note_on_c, 1, 58, 50
3, 78080, Note_on_c, 1, 58, 0
3, 78080, Note_on_c, 1, 62, 50
3, 78120, Note_on_c, 1, 62, 0
3, 78120, Note_on_c, 1, 67, 50
3, 78240, Note_on_c, 1, 67, 0
3, 78280, Note_on_c, 1, 60, 51
3, 78320, Note_on_c, 1, 60, 0
3, 78320, Note_on_c, 1, 65, 51
3, 78360, Note_on_c, 1, 65, 0
3, 78360, Note_on_c, 1, 69, 51
3, 78480, Note_on_c, 1, 69, 0
3, 78520, Note_on_c, 1, 48, 51
3, 78560, Note_on_c, 1, 48, 0
3, 78560, Note_on_c, 1, 55, 51
3, 78600, Note_on_c, 1, 55, 0
3, 78600, Note_on_c, 1, 60, 51
3, 78720, Note_on_c, 1, 60, 0
3, 78720, Note_on_c, 1, 53, 51
3, 78840, Note_on_c, 1, 53, 0
3, 78840, Note_on_c, 1, 60, 51
3, 78960, Note_on_c, 1, 60, 0
3, 78960, Note_on_c, 1, 65, 51
3, 79080, Note_on_c, 1, 65, 0
3, 79080, Note_on_c, 1, 69, 51
3, 79200, Note_on_c, 1, 69, 0
3, 79200, Note_on_c, 1, 67, 51
3, 79320, Note_on_c, 1, 67, 0
3, 79320, Note_on_c, 1, 64, 51
3, 79440, Note_on_c, 1, 64, 0
3, 79440, Note_on_c, 1, 60, 51
3, 79560, Note_on_c, 1, 60, 0
3, 79560, Note_on_c, 1, 58, 51
3, 79680, Note_on_c, 1, 58, 0
3, 79680, Note_on_c, 1, 57, 51
3, 79800, Note_on_c, 1, 57, 0
3, 79800, Note_on_c, 1, 60, 51
3, 79920, Note_on_c, 1, 60, 0
3, 79920, Note_on_c, 1, 65, 51
3, 80040, Note_on_c, 1, 65, 0
3, 80040, Note_on_c, 1, 69, 51
3, 80160, Note_on_c, 1, 69, 0
3, 80160, Note_on_c, 1, 67, 51
3, 80280, Note_on_c, 1, 67, 0
3, 80280, Note_on_c, 1, 64, 51
3, 80400, Note_on_c, 1, 64, 0
3, 80400, Note_on_c, 1, 60, 51
3, 80520, Note_on_c, 1, 60, 0
3, 80520, Note_on_c, 1, 58, 51
3, 80640, Note_on_c, 1, 58, 0
3, 80640, Note_on_c, 1, 57, 51
3, 80760, Note_on_c, 1, 57, 0
3, 80760, Note_on_c, 1, 65, 51
3, 80880, Note_on_c, 1, 65, 0
3, 80880, Note_on_c, 1, 59, 51
3, 81000, Note_on_c, 1, 59, 0
3, 81000, Note_on_c, 1, 67, 51
3, 81120, Note_on_c, 1, 67, 0
3, 81120, Note_on_c, 1, 60, 51
3, 81240, Note_on_c, 1, 60, 0
3, 81240, Note_on_c, 1, 67, 51
3, 81360, Note_on_c, 1, 67, 0
3, 81360, Note_on_c, 1, 55, 51
3, 81480, Note_on_c, 1, 55, 0
3, 81480, Note_on_c, 1, 65, 51
3, 81600, Note_on_c, 1, 65, 0
3, 81600, Note_on_c, 1, 48, 51
3, 81720, Note_on_c, 1, 48, 0
3, 81720, Note_on_c, 1, 55, 51
3, 81840, Note_on_c, 1, 55, 0
3, 81840, Note_on_c, 1, 60, 51
3, 81960, Note_on_c, 1, 60, 0
3, 81960, Note_on_c, 1, 64, 51
3, 82080, Note_on_c, 1, 64, 0
3, 82080, Note_on_c, 1, 62, 51
3, 82200, Note_on_c, 1, 62, 0
3, 82200, Note_on_c, 1, 59, 51
3, 82320, Note_on_c, 1, 59, 0
3, 82320, Note_on_c, 1, 55, 51
3, 82440, Note_on_c, 1, 55, 0
3, 82440, Note_on_c, 1, 53, 51
3, 82560, Note_on_c, 1, 53, 0
3, 82560, Note_on_c, 1, 52, 51
3, 82680, Note_on_c, 1, 52, 0
3, 82680, Note_on_c, 1, 55, 51
3, 82800, Note_on_c, 1, 55, 0
3, 82800, Note_on_c, 1, 60, 51
3, 82920, Note_on_c, 1, 60, 0
3, 82920, Note_on_c, 1, 64, 51
3, 83040, Note_on_c, 1, 64, 0
3, 83040, Note_on_c, 1, 62, 51
3, 83160, Note_on_c, 1, 62, 0
3, 83160, Note_on_c, 1, 59, 51
3, 83280, Note_on_c, 1, 59, 0
3, 83280, Note_on_c, 1, 55, 51
3, 83400, Note_on_c, 1, 55, 0
3, 83400, Note_on_c, 1, 53, 51
3, 83520, Note_on_c, 1, 53, 0
3, 83520, Note_on_c, 1, 52, 51
3, 83640, Note_on_c, 1, 52, 0
3, 83640, Note_on_c, 1, 64, 51
3, 83760, Note_on_c, 1, 64, 0
3, 83760, Note_on_c, 1, 53, 51
3, 83880, Note_on_c, 1, 53, 0
3, 83880, Note_on_c, 1, 65, 61
3, 84000, Note_on_c, 1, 65, 0
3, 84000, Note_on_c, 1, 55, 71
3, 84120, Note_on_c, 1, 55, 0
3, 84120, Note_on_c, 1, 67, 71
3, 84240, Note_on_c, 1, 67, 0
3, 84240, Note_on_c, 1, 56, 81
3, 84360, Note_on_c, 1, 56, 0
3, 84360, Note_on_c, 1, 68, 91
3, 84480, Note_on_c, 1, 68, 0
3, 84480, Note_on_c, 1, 69, 101
3, 84600, Note_on_c, 1, 69, 0
3, 84600, Note_on_c, 1, 68, 51
3, 84720, Note_on_c, 1, 68, 0
3, 84720, Note_on_c, 1, 69, 51
3, 84840, Note_on_c, 1, 69, 0
3, 84840, Note_on_c, 1, 68, 51
3, 84960, Note_on_c, 1, 68, 0
3, 84960, Note_on_c, 1, 69, 51
3, 85080, Note_on_c, 1, 69, 0
3, 85080, Note_on_c, 1, 65, 51
3, 85200, Note_on_c, 1, 65, 0
3, 85200, Note_on_c, 1, 67, 51
3, 85320, Note_on_c, 1, 67, 0
3, 85320, Note_on_c, 1, 55, 51
3, 85440, Note_on_c, 1, 55, 0
3, 85440, Note_on_c, 1, 60, 51
3, 85560, Note_on_c, 1, 60, 0
3, 85560, Note_on_c, 1, 56, 54
3, 85560, Note_on_c, 1, 68, 54
3, 85680, Note_on_c, 1, 68, 0
3, 85680, Note_on_c, 1, 56, 0
3, 85680, Note_on_c, 1, 69, 54
3, 85680, Note_on_c, 1, 57, 54
3, 85800, Note_on_c, 1, 57, 0
3, 85800, Note_on_c, 1, 69, 0
3, 85800, Note_on_c, 1, 56, 53
3, 85800, Note_on_c, 1, 68, 53
3, 85920, Note_on_c, 1, 68, 0
3, 85920, Note_on_c, 1, 56, 0
3, 85920, Note_on_c, 1, 69, 52
3, 85920, Note_on_c, 1, 57, 52
3, 86040, Note_on_c, 1, 57, 0
3, 86040, Note_on_c, 1, 69, 0
3, 86040, Note_on_c, 1, 65, 51
3, 86160, Note_on_c, 1, 65, 0
3, 86160, Note_on_c, 1, 67, 51
3, 86280, Note_on_c, 1, 67, 0
3, 86280, Note_on_c, 1, 55, 50
3, 86400, Note_on_c, 1, 55, 0
3, 86400, Note_on_c, 1, 48, 50
3, 86400, Note_on_c, 1, 48, 50
3, 86520, Note_on_c, 1, 48, 0
3, 86520, Note_on_c, 1, 60, 48
3, 86640, Note_on_c, 1, 60, 0
3, 86640, Note_on_c, 1, 60, 48
3, 86760, Note_on_c, 1, 60, 0
3, 86760, Note_on_c, 1, 60, 46
3, 86880, Note_on_c, 1, 60, 0
3, 86880, Note_on_c, 1, 48, 0
3, 86880, Note_on_c, 1, 48, 46
3, 86880, Note_on_c, 1, 48, 46
3, 87000, Note_on_c, 1, 48, 0
3, 87000, Note_on_c, 1, 60, 46
3, 87120, Note_on_c, 1, 60, 0
3, 87120, Note_on_c, 1, 60, 45
3, 87240, Note_on_c, 1, 60, 0
3, 87240, Note_on_c, 1, 60, 44
3, 87360, Note_on_c, 1, 60, 0
3, 87360, Note_on_c, 1, 48, 0
3, 87360, Note_on_c, 1, 48, 44
3, 87360, Note_on_c, 1, 48, 44
3, 87480, Note_on_c, 1, 48, 0
3, 87480, Note_on_c, 1, 60, 43
3, 87600, Note_on_c, 1, 60, 0
3, 87600, Note_on_c, 1, 60, 43
3, 87720, Note_on_c, 1, 60, 0
3, 87720, Note_on_c, 1, 60, 41
3, 87840, Note_on_c, 1, 60, 0
3, 87840, Note_on_c, 1, 48, 0
3, 87840, Note_on_c, 1, 48, 47
3, 87840, Note_on_c, 1, 48, 47
3, 87960, Note_on_c, 1, 48, 0
3, 87960, Note_on_c, 1, 60, 62
3, 88080, Note_on_c, 1, 60, 0
3, 88080, Note_on_c, 1, 60, 80
3, 88200, Note_on_c, 1, 60, 0
3, 88200, Note_on_c, 1, 60, 93
3, 88320, Note_on_c, 1, 60, 0
3, 88320, Note_on_c, 1, 48, 0
3, 88320, Note_on_c, 1, 48, 34
3, 88440, Note_on_c, 1, 48, 0
3, 88680, Note_on_c, 1, 60, 23
3, 88720, Note_on_c, 1, 60, 0
3, 88720, Note_on_c, 1, 55, 23
3, 88760, Note_on_c, 1, 55, 0
3, 88760, Note_on_c, 1, 52, 23
3, 88800, Note_on_c, 1, 52, 0
3, 88800, Note_on_c, 1, 48, 27
3, 88920, Note_on_c, 1, 48, 0
3, 89280, Control_c, 1, 10, 43
3, 89280, Control_c, 1, 7, 96
3, 89280, Control_c, 1, 91, 26
3, 89280, Control_c, 1, 93, 21
3, 89280, Note_on_c, 1, 65, 34
3, 89310, Note_on_c, 1, 65, 0
3, 89310, Note_on_c, 1, 72, 34
3, 89340, Note_on_c, 1, 72, 0
3, 89340, Note_on_c, 1, 69, 34
3, 89370, Note_on_c, 1, 69, 0
3, 89370, Note_on_c, 1, 72, 34
3, 89400, Note_on_c, 1, 72, 0
3, 89400, Note_on_c, 1, 64, 34
3, 89430, Note_on_c, 1, 64, 0
3, 89430, Note_on_c, 1, 72, 34
3, 89460, Note_on_c, 1, 72, 0
3, 89460, Note_on_c, 1, 67, 34
3, 89490, Note_on_c, 1, 67, 0
3, 89490, Note_on_c, 1, 72, 34
3, 89520, Note_on_c, 1, 72, 0
3, 89520, Note_on_c, 1, 65, 34
3, 89550, Note_on_c, 1, 65, 0
3, 89550, Note_on_c, 1, 72, 34
3, 89580, Note_on_c, 1, 72, 0
3, 89580, Note_on_c, 1, 69, 35
3, 89610, Note_on_c, 1, 69, 0
3, 89610, Note_on_c, 1, 72, 35
3, 89640, Note_on_c, 1, 72, 0
3, 89640, Note_on_c, 1, 60, 35
3, 89670, Note_on_c, 1, 60, 0
3, 89670, Note_on_c, 1, 72, 35
3, 89700, Note_on_c, 1, 72, 0
3, 89700, Note_on_c, 1, 70, 35
3, 89730, Note_on_c, 1, 70, 0
3, 89730, Note_on_c, 1, 72, 35
3, 89760, Note_on_c, 1, 72, 0
3, 89760, Note_on_c, 1, 69, 35
3, 89790, Note_on_c, 1, 69, 0
3, 89790, Note_on_c, 1, 72, 35
3, 89820, Note_on_c, 1, 72, 0
3, 89820, Note_on_c, 1, 68, 35
3, 89850, Note_on_c, 1, 68, 0
3, 89850, Note_on_c, 1, 72, 35
3, 89880, Note_on_c, 1, 72, 0
3, 89880, Note_on_c, 1, 69, 35
3, 89910, Note_on_c, 1, 69, 0
3, 89910, Note_on_c, 1, 72, 35
3, 89940, Note_on_c, 1, 72, 0
3, 89940, Note_on_c, 1, 64, 35
3, 89970, Note_on_c, 1, 64, 0
3, 89970, Note_on_c, 1, 72, 34
3, 90000, Note_on_c, 1, 72, 0
3, 90000, Note_on_c, 1, 65, 34
3, 90030, Note_on_c, 1, 65, 0
3, 90030, Note_on_c, 1, 72, 33
3, 90060, Note_on_c, 1, 72, 0
3, 90060, Note_on_c, 1, 63, 33
3, 90090, Note_on_c, 1, 63, 0
3, 90090, Note_on_c, 1, 65, 32
3, 90120, Note_on_c, 1, 65, 0
3, 90120, Note_on_c, 1, 62, 32
3, 90150, Note_on_c, 1, 62, 0
3, 90150, Note_on_c, 1, 65, 32
3, 90180, Note_on_c, 1, 65, 0
3, 90180, Note_on_c, 1, 60, 31
3, 90210, Note_on_c, 1, 60, 0
3, 90210, Note_on_c, 1, 65, 31
3, 90240, Note_on_c, 1, 65, 0
3, 90240, Note_on_c, 1, 58, 31
3, 90270, Note_on_c, 1, 58, 0
3, 90270, Note_on_c, 1, 62, 31
3, 90300, Note_on_c, 1, 62, 0
3, 90300, Note_on_c, 1, 59, 31
3, 90330, Note_on_c, 1, 59, 0
3, 90330, Note_on_c, 1, 62, 31
3, 90360, Note_on_c, 1, 62, 0
3, 90360, Note_on_c, 1, 60, 31
3, 90390, Note_on_c, 1, 60, 0
3, 90390, Note_on_c, 1, 65, 31
3, 90420, Note_on_c, 1, 65, 0
3, 90420, Note_on_c, 1, 69, 31
3, 90450, Note_on_c, 1, 69, 0
3, 90450, Note_on_c, 1, 72, 31
3, 90480, Note_on_c, 1, 72, 0
3, 90480, Note_on_c, 1, 60, 31
3, 90510, Note_on_c, 1, 60, 0
3, 90510, Note_on_c, 1, 64, 31
3, 90540, Note_on_c, 1, 64, 0
3, 90540, Note_on_c, 1, 67, 31
3, 90570, Note_on_c, 1, 67, 0
3, 90570, Note_on_c, 1, 72, 31
3, 90600, Note_on_c, 1, 72, 0
3, 90600, Note_on_c, 1, 71, 31
3, 90630, Note_on_c, 1, 71, 0
3, 90630, Note_on_c, 1, 72, 31
3, 90660, Note_on_c, 1, 72, 0
3, 90660, Note_on_c, 1, 74, 31
3, 90690, Note_on_c, 1, 74, 0
3, 90690, Note_on_c, 1, 72, 31
3, 90720, Note_on_c, 1, 72, 0
3, 90720, Note_on_c, 1, 70, 31
3, 90750, Note_on_c, 1, 70, 0
3, 90750, Note_on_c, 1, 72, 31
3, 90780, Note_on_c, 1, 72, 0
3, 90780, Note_on_c, 1, 67, 31
3, 90810, Note_on_c, 1, 67, 0
3, 90810, Note_on_c, 1, 72, 31
3, 90840, Note_on_c, 1, 72, 0
3, 90840, Note_on_c, 1, 64, 31
3, 90870, Note_on_c, 1, 64, 0
3, 90870, Note_on_c, 1, 72, 31
3, 90900, Note_on_c, 1, 72, 0
3, 90900, Note_on_c, 1, 60, 31
3, 90930, Note_on_c, 1, 60, 0
3, 90930, Note_on_c, 1, 72, 31
3, 90960, Note_on_c, 1, 72, 0
3, 90960, Note_on_c, 1, 65, 31
3, 90990, Note_on_c, 1, 65, 0
3, 90990, Note_on_c, 1, 72, 31
3, 91020, Note_on_c, 1, 72, 0
3, 91020, Note_on_c, 1, 69, 31
3, 91050, Note_on_c, 1, 69, 0
3, 91050, Note_on_c, 1, 72, 31
3, 91080, Note_on_c, 1, 72, 0
3, 91080, Note_on_c, 1, 70, 31
3, 91110, Note_on_c, 1, 70, 0
3, 91110, Note_on_c, 1, 72, 31
3, 91140, Note_on_c, 1, 72, 0
3, 91140, Note_on_c, 1, 67, 31
3, 91170, Note_on_c, 1, 67, 0
3, 91170, Note_on_c, 1, 72, 31
3, 91200, Note_on_c, 1, 72, 0
3, 91200, Note_on_c, 1, 64, 31
3, 91230, Note_on_c, 1, 64, 0
3, 91230, Note_on_c, 1, 72, 31
3, 91260, Note_on_c, 1, 72, 0
3, 91260, Note_on_c, 1, 60, 31
3, 91290, Note_on_c, 1, 60, 0
3, 91290, Note_on_c, 1, 72, 31
3, 91320, Note_on_c, 1, 72, 0
3, 91320, Note_on_c, 1, 65, 31
3, 91350, Note_on_c, 1, 65, 0
3, 91350, Note_on_c, 1, 72, 31
3, 91380, Note_on_c, 1, 72, 0
3, 91380, Note_on_c, 1, 69, 31
3, 91410, Note_on_c, 1, 69, 0
3, 91410, Note_on_c, 1, 72, 31
3, 91440, Note_on_c, 1, 72, 0
3, 91440, Note_on_c, 1, 58, 31
3, 91470, Note_on_c, 1, 58, 0
3, 91470, Note_on_c, 1, 67, 31
3, 91500, Note_on_c, 1, 67, 0
3, 91500, Note_on_c, 1, 62, 31
3, 91530, Note_on_c, 1, 62, 0
3, 91530, Note_on_c, 1, 67, 31
3, 91560, Note_on_c, 1, 67, 0
3, 91560, Note_on_c, 1, 60, 31
3, 91590, Note_on_c, 1, 60, 0
3, 91590, Note_on_c, 1, 69, 31
3, 91620, Note_on_c, 1, 69, 0
3, 91620, Note_on_c, 1, 65, 31
3, 91650, Note_on_c, 1, 65, 0
3, 91650, Note_on_c, 1, 69, 31
3, 91680, Note_on_c, 1, 69, 0
3, 91680, Note_on_c, 1, 60, 31
3, 91710, Note_on_c, 1, 60, 0
3, 91710, Note_on_c, 1, 67, 31
3, 91740, Note_on_c, 1, 67, 0
3, 91740, Note_on_c, 1, 64, 31
3, 91770, Note_on_c, 1, 64, 0
3, 91770, Note_on_c, 1, 67, 31
3, 91800, Note_on_c, 1, 67, 0
3, 91800, Note_on_c, 1, 53, 31
3, 91830, Note_on_c, 1, 53, 0
3, 91830, Note_on_c, 1, 60, 31
3, 91860, Note_on_c, 1, 60, 0
3, 91860, Note_on_c, 1, 64, 31
3, 91890, Note_on_c, 1, 64, 0
3, 91890, Note_on_c, 1, 60, 31
3, 91920, Note_on_c, 1, 60, 0
3, 91920, Note_on_c, 1, 65, 31
3, 91980, Note_on_c, 1, 65, 0
3, 91980, Note_on_c, 1, 57, 31
3, 92040, Note_on_c, 1, 57, 0
3, 92040, Note_on_c, 1, 57, 31
3, 92100, Note_on_c, 1, 57, 0
3, 92100, Note_on_c, 1, 57, 31
3, 92160, Note_on_c, 1, 57, 0
3, 92160, Note_on_c, 1, 50, 31
3, 92160, Note_on_c, 1, 62, 31
3, 92340, Note_on_c, 1, 62, 0
3, 92340, Note_on_c, 1, 50, 0
3, 92340, Note_on_c, 1, 57, 31
3, 92400, Note_on_c, 1, 57, 0
3, 92400, Note_on_c, 1, 62, 31
3, 92460, Note_on_c, 1, 62, 0
3, 92460, Note_on_c, 1, 57, 31
3, 92520, Note_on_c, 1, 57, 0
3, 92520, Note_on_c, 1, 64, 31
3, 92520, Note_on_c, 1, 52, 31
3, 92700, Note_on_c, 1, 52, 0
3, 92700, Note_on_c, 1, 64, 0
3, 92700, Note_on_c, 1, 57, 31
3, 92760, Note_on_c, 1, 57, 0
3, 92760, Note_on_c, 1, 64, 31
3, 92820, Note_on_c, 1, 64, 0
3, 92820, Note_on_c, 1, 57, 31
3, 92880, Note_on_c, 1, 57, 0
3, 92880, Note_on_c, 1, 53, 31
3, 92880, Note_on_c, 1, 65, 31
3, 93000, Note_on_c, 1, 65, 0
3, 93000, Note_on_c, 1, 53, 0
3, 93000, Note_on_c, 1, 55, 31
3, 93120, Note_on_c, 1, 55, 0
3, 93120, Note_on_c, 1, 57, 31
3, 93240, Note_on_c, 1, 57, 0
3, 93240, Note_on_c, 1, 50, 31
3, 93240, Note_on_c, 1, 62, 31
3, 93420, Note_on_c, 1, 62, 0
3, 93420, Note_on_c, 1, 50, 0
3, 93420, Note_on_c, 1, 60, 51
3, 93480, Note_on_c, 1, 60, 0
3, 93480, Note_on_c, 1, 59, 61
3, 93540, Note_on_c, 1, 59, 0
3, 93540, Note_on_c, 1, 57, 81
3, 93600, Note_on_c, 1, 57, 0
3, 93600, Note_on_c, 1, 55, 81
3, 93720, Note_on_c, 1, 55, 0
3, 93720, Note_on_c, 1, 56, 91
3, 93840, Note_on_c, 1, 56, 0
3, 93840, Note_on_c, 1, 57, 100
3, 93960, Note_on_c, 1, 57, 0
3, 93960, Note_on_c, 1, 53, 49
3, 94080, Note_on_c, 1, 53, 0
3, 94080, Note_on_c, 1, 55, 49
3, 94080, Note_on_c, 1, 55, 49
3, 94200, Note_on_c, 1, 55, 0
3, 94200, Note_on_c, 1, 43, 49
3, 94320, Note_on_c, 1, 43, 0
3, 94320, Note_on_c, 1, 55, 0
3, 94320, Note_on_c, 1, 48, 49
3, 94500, Note_on_c, 1, 60, 59
3, 94560, Note_on_c, 1, 60, 0
3, 94560, Note_on_c, 1, 60, 79
3, 94620, Note_on_c, 1, 60, 0
3, 94620, Note_on_c, 1, 60, 59
3, 94680, Note_on_c, 1, 60, 0
3, 94680, Note_on_c, 1, 48, 0
3, 94680, Note_on_c, 1, 48, 39
3, 94860, Note_on_c, 1, 60, 59
3, 94920, Note_on_c, 1, 60, 0
3, 94920, Note_on_c, 1, 60, 79
3, 94980, Note_on_c, 1, 60, 0
3, 94980, Note_on_c, 1, 60, 59
3, 95040, Note_on_c, 1, 60, 0
3, 95040, Note_on_c, 1, 48, 0
3, 95040, Note_on_c, 1, 48, 59
3, 95100, Note_on_c, 1, 48, 0
3, 95395, Note_on_c, 1, 65, 34
3, 95395, Control_c, 1, 93, 21
3, 95395, Control_c, 1, 91, 26
3, 95395, Control_c, 1, 7, 96
3, 95395, Control_c, 1, 10, 43
3, 95425, Note_on_c, 1, 65, 0
3, 95425, Note_on_c, 1, 72, 34
3, 95455, Note_on_c, 1, 72, 0
3, 95455, Note_on_c, 1, 69, 34
3, 95485, Note_on_c, 1, 69, 0
3, 95485, Note_on_c, 1, 72, 34
3, 95515, Note_on_c, 1, 72, 0
3, 95515, Note_on_c, 1, 64, 34
3, 95545, Note_on_c, 1, 64, 0
3, 95545, Note_on_c, 1, 72, 34
3, 95575, Note_on_c, 1, 72, 0
3, 95575, Note_on_c, 1, 67, 34
3, 95605, Note_on_c, 1, 67, 0
3, 95605, Note_on_c, 1, 72, 34
3, 95635, Note_on_c, 1, 72, 0
3, 95635, Note_on_c, 1, 65, 34
3, 95665, Note_on_c, 1, 65, 0
3, 95665, Note_on_c, 1, 72, 34
3, 95695, Note_on_c, 1, 72, 0
3, 95695, Note_on_c, 1, 69, 35
3, 95725, Note_on_c, 1, 69, 0
3, 95725, Note_on_c, 1, 72, 35
3, 95755, Note_on_c, 1, 72, 0
3, 95755, Note_on_c, 1, 60, 35
3, 95785, Note_on_c, 1, 60, 0
3, 95785, Note_on_c, 1, 72, 35
3, 95815, Note_on_c, 1, 72, 0
3, 95815, Note_on_c, 1, 70, 35
3, 95845, Note_on_c, 1, 70, 0
3, 95845, Note_on_c, 1, 72, 35
3, 95875, Note_on_c, 1, 72, 0
3, 95875, Note_on_c, 1, 69, 35
3, 95905, Note_on_c, 1, 69, 0
3, 95905, Note_on_c, 1, 72, 35
3, 95935, Note_on_c, 1, 72, 0
3, 95935, Note_on_c, 1, 68, 35
3, 95965, Note_on_c, 1, 68, 0
3, 95965, Note_on_c, 1, 72, 35
3, 95995, Note_on_c, 1, 72, 0
3, 95995, Note_on_c, 1, 69, 35
3, 96025, Note_on_c, 1, 69, 0
3, 96025, Note_on_c, 1, 72, 35
3, 96055, Note_on_c, 1, 72, 0
3, 96055, Note_on_c, 1, 64, 35
3, 96085, Note_on_c, 1, 64, 0
3, 96085, Note_on_c, 1, 72, 34
3, 96115, Note_on_c, 1, 72, 0
3, 96115, Note_on_c, 1, 65, 34
3, 96145, Note_on_c, 1, 65, 0
3, 96145, Note_on_c, 1, 72, 33
3, 96175, Note_on_c, 1, 72, 0
3, 96175, Note_on_c, 1, 63, 33
3, 96205, Note_on_c, 1, 63, 0
3, 96205, Note_on_c, 1, 65, 32
3, 96235, Note_on_c, 1, 65, 0
3, 96235, Note_on_c, 1, 62, 32
3, 96265, Note_on_c, 1, 62, 0
3, 96265, Note_on_c, 1, 65, 32
3, 96295, Note_on_c, 1, 65, 0
3, 96295, Note_on_c, 1, 60, 31
3, 96325, Note_on_c, 1, 60, 0
3, 96325, Note_on_c, 1, 65, 31
3, 96355, Note_on_c, 1, 65, 0
3, 96355, Note_on_c, 1, 58, 31
3, 96385, Note_on_c, 1, 58, 0
3, 96385, Note_on_c, 1, 62, 31
3, 96415, Note_on_c, 1, 62, 0
3, 96415, Note_on_c, 1, 59, 31
3, 96445, Note_on_c, 1, 59, 0
3, 96445, Note_on_c, 1, 62, 31
3, 96475, Note_on_c, 1, 62, 0
3, 96475, Note_on_c, 1, 60, 31
3, 96505, Note_on_c, 1, 60, 0
3, 96505, Note_on_c, 1, 65, 31
3, 96535, Note_on_c, 1, 65, 0
3, 96535, Note_on_c, 1, 69, 31
3, 96565, Note_on_c, 1, 69, 0
3, 96565, Note_on_c, 1, 72, 31
3, 96595, Note_on_c, 1, 72, 0
3, 96595, Note_on_c, 1, 60, 31
3, 96625, Note_on_c, 1, 60, 0
3, 96625, Note_on_c, 1, 64, 31
3, 96655, Note_on_c, 1, 64, 0
3, 96655, Note_on_c, 1, 67, 31
3, 96685, Note_on_c, 1, 67, 0
3, 96685, Note_on_c, 1, 72, 31
3, 96715, Note_on_c, 1, 72, 0
3, 96715, Note_on_c, 1, 71, 31
3, 96745, Note_on_c, 1, 71, 0
3, 96745, Note_on_c, 1, 72, 31
3, 96775, Note_on_c, 1, 72, 0
3, 96775, Note_on_c, 1, 74, 31
3, 96805, Note_on_c, 1, 74, 0
3, 96805, Note_on_c, 1, 72, 31
3, 96835, Note_on_c, 1, 72, 0
3, 96835, Note_on_c, 1, 70, 31
3, 96865, Note_on_c, 1, 70, 0
3, 96865, Note_on_c, 1, 72, 31
3, 96895, Note_on_c, 1, 72, 0
3, 96895, Note_on_c, 1, 67, 31
3, 96925, Note_on_c, 1, 67, 0
3, 96925, Note_on_c, 1, 72, 31
3, 96955, Note_on_c, 1, 72, 0
3, 96955, Note_on_c, 1, 64, 31
3, 96985, Note_on_c, 1, 64, 0
3, 96985, Note_on_c, 1, 72, 31
3, 97015, Note_on_c, 1, 72, 0
3, 97015, Note_on_c, 1, 60, 31
3, 97045, Note_on_c, 1, 60, 0
3, 97045, Note_on_c, 1, 72, 31
3, 97075, Note_on_c, 1, 72, 0
3, 97075, Note_on_c, 1, 65, 31
3, 97105, Note_on_c, 1, 65, 0
3, 97105, Note_on_c, 1, 72, 31
3, 97135, Note_on_c, 1, 72, 0
3, 97135, Note_on_c, 1, 69, 31
3, 97165, Note_on_c, 1, 69, 0
3, 97165, Note_on_c, 1, 72, 31
3, 97195, Note_on_c, 1, 72, 0
3, 97195, Note_on_c, 1, 70, 31
3, 97225, Note_on_c, 1, 70, 0
3, 97225, Note_on_c, 1, 72, 31
3, 97255, Note_on_c, 1, 72, 0
3, 97255, Note_on_c, 1, 67, 31
3, 97285, Note_on_c, 1, 67, 0
3, 97285, Note_on_c, 1, 72, 31
3, 97315, Note_on_c, 1, 72, 0
3, 97315, Note_on_c, 1, 64, 31
3, 97345, Note_on_c, 1, 64, 0
3, 97345, Note_on_c, 1, 72, 31
3, 97375, Note_on_c, 1, 72, 0
3, 97375, Note_on_c, 1, 60, 31
3, 97405, Note_on_c, 1, 60, 0
3, 97405, Note_on_c, 1, 72, 31
3, 97435, Note_on_c, 1, 72, 0
3, 97435, Note_on_c, 1, 65, 31
3, 97465, Note_on_c, 1, 65, 0
3, 97465, Note_on_c, 1, 72, 31
3, 97495, Note_on_c, 1, 72, 0
3, 97495, Note_on_c, 1, 69, 31
3, 97525, Note_on_c, 1, 69, 0
3, 97525, Note_on_c, 1, 72, 31
3, 97555, Note_on_c, 1, 72, 0
3, 97555, Note_on_c, 1, 58, 31
3, 97585, Note_on_c, 1, 58, 0
3, 97585, Note_on_c, 1, 67, 31
3, 97615, Note_on_c, 1, 67, 0
3, 97615, Note_on_c, 1, 62, 31
3, 97645, Note_on_c, 1, 62, 0
3, 97645, Note_on_c, 1, 67, 31
3, 97675, Note_on_c, 1, 67, 0
3, 97675, Note_on_c, 1, 60, 31
3, 97705, Note_on_c, 1, 60, 0
3, 97705, Note_on_c, 1, 69, 31
3, 97735, Note_on_c, 1, 69, 0
3, 97735, Note_on_c, 1, 65, 31
3, 97765, Note_on_c, 1, 65, 0
3, 97765, Note_on_c, 1, 69, 31
3, 97795, Note_on_c, 1, 69, 0
3, 97795, Note_on_c, 1, 60, 31
3, 97825, Note_on_c, 1, 60, 0
3, 97825, Note_on_c, 1, 67, 31
3, 97855, Note_on_c, 1, 67, 0
3, 97855, Note_on_c, 1, 64, 31
3, 97885, Note_on_c, 1, 64, 0
3, 97885, Note_on_c, 1, 67, 31
3, 97915, Note_on_c, 1, 67, 0
3, 97920, Note_on_c, 1, 53, 31
3, 97920, Note_on_c, 1, 65, 31
3, 98100, Note_on_c, 1, 65, 0
3, 98100, Note_on_c, 1, 53, 0
3, 98100, Note_on_c, 1, 60, 31
3, 98160, Note_on_c, 1, 60, 0
3, 98160, Note_on_c, 1, 53, 31
3, 98160, Note_on_c, 1, 65, 31
3, 98220, Note_on_c, 1, 65, 0
3, 98220, Note_on_c, 1, 53, 0
3, 98220, Note_on_c, 1, 60, 31
3, 98280, Note_on_c, 1, 60, 0
3, 98280, Note_on_c, 1, 62, 31
3, 98280, Note_on_c, 1, 50, 31
3, 98460, Note_on_c, 1, 50, 0
3, 98460, Note_on_c, 1, 62, 0
3, 98460, Note_on_c, 1, 57, 51
3, 98520, Note_on_c, 1, 57, 0
3, 98520, Note_on_c, 1, 62, 71
3, 98520, Note_on_c, 1, 50, 71
3, 98580, Note_on_c, 1, 50, 0
3, 98580, Note_on_c, 1, 62, 0
3, 98580, Note_on_c, 1, 57, 81
3, 98640, Note_on_c, 1, 57, 0
3, 98640, Note_on_c, 1, 58, 81
3, 98760, Note_on_c, 1, 58, 0
3, 98760, Note_on_c, 1, 60, 71
3, 98880, Note_on_c, 1, 60, 0
3, 98880, Note_on_c, 1, 61, 61
3, 99000, Note_on_c, 1, 61, 0
3, 99000, Note_on_c, 1, 62, 41
3, 99180, Note_on_c, 1, 62, 0
3, 99180, Note_on_c, 1, 60, 41
3, 99240, Note_on_c, 1, 60, 0
3, 99240, Note_on_c, 1, 58, 41
3, 99300, Note_on_c, 1, 58, 0
3, 99300, Note_on_c, 1, 57, 41
3, 99360, Note_on_c, 1, 57, 0
3, 99360, Note_on_c, 1, 55, 41
3, 99480, Note_on_c, 1, 55, 0
3, 99480, Note_on_c, 1, 49, 41
3, 99600, Note_on_c, 1, 49, 0
3, 99600, Note_on_c, 1, 50, 41
3, 99720, Note_on_c, 1, 50, 0
3, 99720, Note_on_c, 1, 46, 41
3, 99840, Note_on_c, 1, 46, 0
3, 99840, Note_on_c, 1, 48, 41
3, 99840, Note_on_c, 1, 48, 41
3, 99960, Note_on_c, 1, 48, 0
3, 99960, Note_on_c, 1, 36, 41
3, 100080, Note_on_c, 1, 36, 0
3, 100080, Note_on_c, 1, 48, 0
3, 100080, Note_on_c, 1, 41, 41
3, 100260, Note_on_c, 1, 53, 41
3, 100320, Note_on_c, 1, 53, 0
3, 100320, Note_on_c, 1, 53, 41
3, 100380, Note_on_c, 1, 53, 0
3, 100380, Note_on_c, 1, 53, 41
3, 100440, Note_on_c, 1, 53, 0
3, 100440, Note_on_c, 1, 41, 0
3, 100440, Note_on_c, 1, 41, 41
3, 100620, Note_on_c, 1, 53, 41
3, 100680, Note_on_c, 1, 53, 0
3, 100680, Note_on_c, 1, 53, 41
3, 100740, Note_on_c, 1, 53, 0
3, 100740, Note_on_c, 1, 53, 41
3, 100800, Note_on_c, 1, 53, 0
3, 100800, Note_on_c, 1, 41, 0
3, 100800, Note_on_c, 1, 41, 35
3, 100920, Note_on_c, 1, 41, 0
3, 100920, Note_on_c, 1, 53, 35
3, 101040, Note_on_c, 1, 53, 0
3, 101040, Note_on_c, 1, 53, 35
3, 101160, Note_on_c, 1, 53, 0
3, 101160, Control_c, 1, 64, 127
3, 101160, Note_on_c, 1, 41, 35
3, 101160, Note_on_c, 1, 53, 35
3, 101280, Note_on_c, 1, 53, 0
3, 101280, Note_on_c, 1, 41, 0
3, 101400, Control_c, 1, 64, 0
3, 101520, Control_c, 1, 64, 127
3, 101520, Note_on_c, 1, 41, 33
3, 101540, Note_on_c, 1, 41, 0
3, 101540, Note_on_c, 1, 48, 33
3, 101560, Note_on_c, 1, 48, 0
3, 101560, Note_on_c, 1, 57, 33
3, 101580, Note_on_c, 1, 57, 0
3, 101580, Note_on_c, 1, 57, 33
3, 101640, Note_on_c, 1, 57, 0
3, 101760, Control_c, 1, 64, 0
3, 101760, Note_on_c, 1, 48, 29
3, 101760, Note_on_c, 1, 60, 29
3, 101760, Note_on_c, 1, 57, 29
3, 101760, Note_on_c, 1, 41, 29
3, 101820, Note_on_c, 1, 41, 0
3, 101820, Note_on_c, 1, 48, 0
3, 101820, Note_on_c, 1, 60, 0
3, 101820, Note_on_c, 1, 57, 0
3, 101880, Control_c, 1, 64, 127
3, 101880, Note_on_c, 1, 53, 24
3, 101880, Note_on_c, 1, 48, 24
3, 101880, Note_on_c, 1, 41, 24
3, 101880, Note_on_c, 1, 57, 24
3, 102120, Note_on_c, 1, 57, 0
3, 102120, Note_on_c, 1, 53, 0
3, 102120, Note_on_c, 1, 48, 0
3, 102120, Note_on_c, 1, 41, 0
3, 102240, Control_c, 1, 64, 0
3, 102240, End_track
4, 0, Start_track
4, 0, End_track
0, 0, End_of_file