0, 0, Header, 1, 3, 192
1, 0, Start_track
1, 0, Title_t, "Rondo Opus.51, No.1"
1, 0, Text_t, "By Ludwig Van Beethoven"
1, 0, Copyright_t, "Copyright \251June 2001 by Ritchie Steven Ritchie"
1, 0, Copyright_t, "Ritchie Steven Ritchie"
1, 0, Text_t, "Generated by NoteWorthy Composer"
1, 0, Tempo, 428571
1, 0, Tempo, 428571
1, 0, Time_signature, 4, 2, 24, 8
1, 39168, Key_signature, -3, "major"
1, 70272, Key_signature, 0, "major"
1, 80256, Tempo, 428571
1, 80256, Tempo, 428571
1, 81024, Tempo, 461538
1, 81024, Tempo, 461538
1, 81792, Tempo, 400000
1, 81792, Tempo, 400000
1, 100944, Tempo, 444444
1, 100944, Tempo, 444444
1, 101712, Tempo, 480000
1, 101712, Tempo, 480000
1, 101712, End_track
2, 0, Start_track
2, 0, MIDI_port, 0
2, 0, Title_t, "Copyright 2001 Reg"
2, 0, Program_c, 0, 0
2, 0, Control_c, 0, 7, 127
2, 0, Control_c, 0, 10, 110
2, 0, Control_c, 0, 91, 84
2, 0, Control_c, 0, 93, 84
2, 0, Note_on_c, 0, 72, 60
2, 120, Note_on_c, 0, 72, 0
2, 192, Note_on_c, 0, 72, 60
2, 240, Note_on_c, 0, 72, 0
2, 384, Note_on_c, 0, 72, 60
2, 480, Note_on_c, 0, 72, 0
2, 480, Note_on_c, 0, 71, 60
2, 576, Note_on_c, 0, 71, 0
2, 576, Note_on_c, 0, 69, 60
2, 672, Note_on_c, 0, 69, 0
2, 672, Note_on_c, 0, 71, 60
2, 768, Note_on_c, 0, 71, 0
2, 768, Note_on_c, 0, 72, 60
2, 816, Note_on_c, 0, 72, 60
2, 864, Note_on_c, 0, 72, 0
2, 864, Note_on_c, 0, 72, 60
2, 912, Note_on_c, 0, 72, 0
2, 912, Note_on_c, 0, 72, 60
2, 928, Note_on_c, 0, 72, 0
2, 960, Note_on_c, 0, 72, 0
2, 960, Note_on_c, 0, 72, 60
2, 1104, Note_on_c, 0, 72, 0
2, 1104, Note_on_c, 0, 76, 60
2, 1152, Note_on_c, 0, 76, 0
2, 1152, Note_on_c, 0, 79, 60
2, 1488, Note_on_c, 0, 79, 0
2, 1536, Note_on_c, 0, 77, 60
2, 1632, Note_on_c, 0, 77, 0
2, 1632, Note_on_c, 0, 81, 60
2, 1824, Note_on_c, 0, 81, 0
2, 1824, Note_on_c, 0, 79, 60
2, 1872, Note_on_c, 0, 79, 0
2, 1872, Note_on_c, 0, 77, 60
2, 1920, Note_on_c, 0, 77, 0
2, 1920, Note_on_c, 0, 76, 60
2, 2016, Note_on_c, 0, 76, 0
2, 2016, Note_on_c, 0, 79, 60
2, 2208, Note_on_c, 0, 79, 0
2, 2208, Note_on_c, 0, 77, 60
2, 2256, Note_on_c, 0, 77, 0
2, 2256, Note_on_c, 0, 76, 60
2, 2304, Note_on_c, 0, 76, 0
2, 2304, Note_on_c, 0, 74, 60
2, 2352, Note_on_c, 0, 74, 0
2, 2352, Note_on_c, 0, 76, 60
2, 2400, Note_on_c, 0, 76, 0
2, 2400, Note_on_c, 0, 77, 60
2, 2448, Note_on_c, 0, 77, 0
2, 2448, Note_on_c, 0, 76, 60
2, 2496, Note_on_c, 0, 76, 0
2, 2496, Note_on_c, 0, 79, 60
2, 2544, Note_on_c, 0, 79, 0
2, 2544, Note_on_c, 0, 77, 60
2, 2592, Note_on_c, 0, 77, 0
2, 2592, Note_on_c, 0, 76, 60
2, 2640, Note_on_c, 0, 76, 0
2, 2640, Note_on_c, 0, 74, 60
2, 2688, Note_on_c, 0, 74, 0
2, 2688, Note_on_c, 0, 72, 60
2, 2880, Note_on_c, 0, 72, 0
2, 2880, Note_on_c, 0, 71, 60
2, 2912, Note_on_c, 0, 71, 0
2, 2976, Note_on_c, 0, 67, 60
2, 3008, Note_on_c, 0, 67, 0
2, 3072, Note_on_c, 0, 67, 60
2, 3096, Note_on_c, 0, 67, 0
2, 3096, Note_on_c, 0, 72, 60
2, 3152, Note_on_c, 0, 72, 0
2, 3264, Note_on_c, 0, 72, 60
2, 3312, Note_on_c, 0, 72, 0
2, 3456, Note_on_c, 0, 72, 60
2, 3552, Note_on_c, 0, 72, 0
2, 3552, Note_on_c, 0, 71, 60
2, 3648, Note_on_c, 0, 71, 0
2, 3648, Note_on_c, 0, 69, 60
2, 3744, Note_on_c, 0, 69, 0
2, 3744, Note_on_c, 0, 71, 60
2, 3840, Note_on_c, 0, 71, 0
2, 3840, Note_on_c, 0, 72, 60
2, 3888, Note_on_c, 0, 72, 60
2, 3936, Note_on_c, 0, 72, 0
2, 3936, Note_on_c, 0, 72, 60
2, 3984, Note_on_c, 0, 72, 0
2, 3984, Note_on_c, 0, 72, 60
2, 4000, Note_on_c, 0, 72, 0
2, 4032, Note_on_c, 0, 72, 0
2, 4032, Note_on_c, 0, 72, 60
2, 4176, Note_on_c, 0, 72, 0
2, 4176, Note_on_c, 0, 76, 60
2, 4224, Note_on_c, 0, 76, 0
2, 4224, Note_on_c, 0, 79, 60
2, 4560, Note_on_c, 0, 79, 0
2, 4608, Note_on_c, 0, 77, 60
2, 4800, Note_on_c, 0, 77, 0
2, 4800, Note_on_c, 0, 77, 60
2, 4848, Note_on_c, 0, 77, 0
2, 4848, Note_on_c, 0, 81, 60
2, 4896, Note_on_c, 0, 81, 0
2, 4896, Note_on_c, 0, 79, 60
2, 4944, Note_on_c, 0, 79, 0
2, 4944, Note_on_c, 0, 77, 60
2, 4992, Note_on_c, 0, 77, 0
2, 4992, Note_on_c, 0, 76, 60
2, 5040, Note_on_c, 0, 76, 0
2, 5040, Note_on_c, 0, 79, 60
2, 5088, Note_on_c, 0, 79, 0
2, 5088, Note_on_c, 0, 77, 60
2, 5136, Note_on_c, 0, 77, 0
2, 5136, Note_on_c, 0, 76, 60
2, 5184, Note_on_c, 0, 76, 0
2, 5184, Note_on_c, 0, 74, 60
2, 5232, Note_on_c, 0, 74, 0
2, 5232, Note_on_c, 0, 77, 60
2, 5280, Note_on_c, 0, 77, 0
2, 5280, Note_on_c, 0, 76, 60
2, 5328, Note_on_c, 0, 76, 0
2, 5328, Note_on_c, 0, 74, 60
2, 5376, Note_on_c, 0, 74, 0
2, 5376, Note_on_c, 0, 72, 60
2, 5424, Note_on_c, 0, 72, 60
2, 5472, Note_on_c, 0, 72, 0
2, 5472, Note_on_c, 0, 72, 60
2, 5520, Note_on_c, 0, 72, 0
2, 5520, Note_on_c, 0, 72, 60
2, 5536, Note_on_c, 0, 72, 0
2, 5568, Note_on_c, 0, 72, 0
2, 5568, Note_on_c, 0, 76, 60
2, 5664, Note_on_c, 0, 76, 0
2, 5664, Note_on_c, 0, 74, 60
2, 5760, Note_on_c, 0, 74, 0
2, 5760, Note_on_c, 0, 64, 60
2, 5760, Note_on_c, 0, 72, 60
2, 5920, Note_on_c, 0, 64, 0
2, 5920, Note_on_c, 0, 72, 0
2, 6240, Note_on_c, 0, 67, 75
2, 6272, Note_on_c, 0, 67, 0
2, 6336, Note_on_c, 0, 72, 75
2, 6368, Note_on_c, 0, 72, 0
2, 6432, Note_on_c, 0, 76, 75
2, 6464, Note_on_c, 0, 76, 0
2, 6528, Note_on_c, 0, 77, 75
2, 6670, Note_on_c, 0, 77, 0
2, 6672, Note_on_c, 0, 74, 75
2, 6718, Note_on_c, 0, 74, 0
2, 6720, Note_on_c, 0, 71, 75
2, 6880, Note_on_c, 0, 71, 0
2, 7008, Note_on_c, 0, 67, 75
2, 7040, Note_on_c, 0, 67, 0
2, 7104, Note_on_c, 0, 71, 75
2, 7136, Note_on_c, 0, 71, 0
2, 7200, Note_on_c, 0, 74, 75
2, 7232, Note_on_c, 0, 74, 0
2, 7296, Note_on_c, 0, 76, 75
2, 7438, Note_on_c, 0, 76, 0
2, 7440, Note_on_c, 0, 72, 75
2, 7486, Note_on_c, 0, 72, 0
2, 7488, Note_on_c, 0, 67, 75
2, 7648, Note_on_c, 0, 67, 0
2, 7776, Note_on_c, 0, 67, 75
2, 7824, Note_on_c, 0, 67, 0
2, 7824, Note_on_c, 0, 69, 75
2, 7872, Note_on_c, 0, 69, 0
2, 7872, Note_on_c, 0, 71, 75
2, 7920, Note_on_c, 0, 71, 0
2, 7920, Note_on_c, 0, 72, 75
2, 7968, Note_on_c, 0, 72, 0
2, 7968, Note_on_c, 0, 74, 75
2, 8016, Note_on_c, 0, 74, 0
2, 8016, Note_on_c, 0, 76, 75
2, 8062, Note_on_c, 0, 76, 0
2, 8064, Note_on_c, 0, 79, 75
2, 8112, Note_on_c, 0, 79, 0
2, 8112, Note_on_c, 0, 77, 75
2, 8158, Note_on_c, 0, 77, 0
2, 8160, Note_on_c, 0, 76, 75
2, 8208, Note_on_c, 0, 76, 0
2, 8208, Note_on_c, 0, 74, 75
2, 8254, Note_on_c, 0, 74, 0
2, 8256, Note_on_c, 0, 72, 75
2, 8350, Note_on_c, 0, 72, 0
2, 8352, Note_on_c, 0, 71, 75
2, 8384, Note_on_c, 0, 71, 0
2, 8544, Note_on_c, 0, 79, 75
2, 8590, Note_on_c, 0, 79, 0
2, 8592, Note_on_c, 0, 81, 75
2, 8638, Note_on_c, 0, 81, 0
2, 8640, Note_on_c, 0, 83, 75
2, 8686, Note_on_c, 0, 83, 0
2, 8688, Note_on_c, 0, 84, 75
2, 8734, Note_on_c, 0, 84, 0
2, 8736, Note_on_c, 0, 86, 75
2, 8782, Note_on_c, 0, 86, 0
2, 8784, Note_on_c, 0, 87, 75
2, 8830, Note_on_c, 0, 87, 0
2, 8832, Note_on_c, 0, 88, 75
2, 8878, Note_on_c, 0, 88, 0
2, 8880, Note_on_c, 0, 87, 74
2, 8926, Note_on_c, 0, 87, 0
2, 8928, Note_on_c, 0, 89, 73
2, 8974, Note_on_c, 0, 89, 0
2, 8976, Note_on_c, 0, 88, 72
2, 9022, Note_on_c, 0, 88, 0
2, 9024, Note_on_c, 0, 86, 71
2, 9070, Note_on_c, 0, 86, 0
2, 9072, Note_on_c, 0, 84, 70
2, 9118, Note_on_c, 0, 84, 0
2, 9120, Note_on_c, 0, 83, 69
2, 9166, Note_on_c, 0, 83, 0
2, 9168, Note_on_c, 0, 81, 68
2, 9214, Note_on_c, 0, 81, 0
2, 9216, Note_on_c, 0, 79, 67
2, 9248, Note_on_c, 0, 79, 0
2, 9264, Note_on_c, 0, 88, 66
2, 9296, Note_on_c, 0, 88, 0
2, 9312, Note_on_c, 0, 86, 65
2, 9344, Note_on_c, 0, 86, 0
2, 9360, Note_on_c, 0, 84, 64
2, 9392, Note_on_c, 0, 84, 0
2, 9408, Note_on_c, 0, 83, 63
2, 9440, Note_on_c, 0, 83, 0
2, 9456, Note_on_c, 0, 81, 62
2, 9488, Note_on_c, 0, 81, 0
2, 9504, Note_on_c, 0, 79, 61
2, 9536, Note_on_c, 0, 79, 0
2, 9552, Note_on_c, 0, 77, 60
2, 9584, Note_on_c, 0, 77, 0
2, 9600, Note_on_c, 0, 76, 59
2, 9632, Note_on_c, 0, 76, 0
2, 9648, Note_on_c, 0, 84, 58
2, 9680, Note_on_c, 0, 84, 0
2, 9696, Note_on_c, 0, 83, 57
2, 9728, Note_on_c, 0, 83, 0
2, 9744, Note_on_c, 0, 81, 55
2, 9776, Note_on_c, 0, 81, 0
2, 9792, Note_on_c, 0, 79, 53
2, 9824, Note_on_c, 0, 79, 0
2, 9840, Note_on_c, 0, 77, 51
2, 9872, Note_on_c, 0, 77, 0
2, 9888, Note_on_c, 0, 76, 49
2, 9920, Note_on_c, 0, 76, 0
2, 9936, Note_on_c, 0, 74, 47
2, 9968, Note_on_c, 0, 74, 0
2, 9984, Note_on_c, 0, 72, 45
2, 10104, Note_on_c, 0, 72, 0
2, 10176, Note_on_c, 0, 72, 45
2, 10224, Note_on_c, 0, 72, 0
2, 10368, Note_on_c, 0, 72, 45
2, 10464, Note_on_c, 0, 72, 0
2, 10464, Note_on_c, 0, 71, 45
2, 10560, Note_on_c, 0, 71, 0
2, 10560, Note_on_c, 0, 69, 45
2, 10656, Note_on_c, 0, 69, 0
2, 10656, Note_on_c, 0, 71, 45
2, 10752, Note_on_c, 0, 71, 0
2, 10752, Note_on_c, 0, 72, 45
2, 10800, Note_on_c, 0, 72, 45
2, 10848, Note_on_c, 0, 72, 0
2, 10848, Note_on_c, 0, 72, 45
2, 10896, Note_on_c, 0, 72, 0
2, 10896, Note_on_c, 0, 72, 45
2, 10912, Note_on_c, 0, 72, 0
2, 10944, Note_on_c, 0, 72, 0
2, 10944, Note_on_c, 0, 72, 45
2, 11088, Note_on_c, 0, 72, 0
2, 11088, Note_on_c, 0, 76, 45
2, 11136, Note_on_c, 0, 76, 0
2, 11136, Note_on_c, 0, 79, 45
2, 11472, Note_on_c, 0, 79, 0
2, 11520, Note_on_c, 0, 77, 45
2, 11712, Note_on_c, 0, 77, 0
2, 11712, Note_on_c, 0, 77, 45
2, 11760, Note_on_c, 0, 77, 0
2, 11760, Note_on_c, 0, 81, 45
2, 11808, Note_on_c, 0, 81, 0
2, 11808, Note_on_c, 0, 79, 45
2, 11856, Note_on_c, 0, 79, 0
2, 11856, Note_on_c, 0, 77, 45
2, 11904, Note_on_c, 0, 77, 0
2, 11904, Note_on_c, 0, 76, 45
2, 11952, Note_on_c, 0, 76, 0
2, 11952, Note_on_c, 0, 79, 45
2, 12000, Note_on_c, 0, 79, 0
2, 12000, Note_on_c, 0, 77, 45
2, 12048, Note_on_c, 0, 77, 0
2, 12048, Note_on_c, 0, 76, 45
2, 12096, Note_on_c, 0, 76, 0
2, 12096, Note_on_c, 0, 74, 45
2, 12144, Note_on_c, 0, 74, 0
2, 12144, Note_on_c, 0, 77, 45
2, 12192, Note_on_c, 0, 77, 0
2, 12192, Note_on_c, 0, 76, 45
2, 12240, Note_on_c, 0, 76, 0
2, 12240, Note_on_c, 0, 74, 45
2, 12288, Note_on_c, 0, 74, 0
2, 12288, Note_on_c, 0, 72, 45
2, 12336, Note_on_c, 0, 72, 45
2, 12384, Note_on_c, 0, 72, 0
2, 12384, Note_on_c, 0, 72, 45
2, 12432, Note_on_c, 0, 72, 0
2, 12432, Note_on_c, 0, 72, 45
2, 12448, Note_on_c, 0, 72, 0
2, 12480, Note_on_c, 0, 72, 0
2, 12480, Note_on_c, 0, 76, 45
2, 12576, Note_on_c, 0, 76, 0
2, 12576, Note_on_c, 0, 74, 45
2, 12672, Note_on_c, 0, 74, 0
2, 12672, Note_on_c, 0, 64, 45
2, 12672, Note_on_c, 0, 72, 45
2, 12832, Note_on_c, 0, 64, 0
2, 12832, Note_on_c, 0, 72, 0
2, 13104, Note_on_c, 0, 72, 45
2, 13150, Note_on_c, 0, 72, 0
2, 13152, Note_on_c, 0, 74, 45
2, 13200, Note_on_c, 0, 74, 0
2, 13200, Note_on_c, 0, 76, 45
2, 13248, Note_on_c, 0, 76, 0
2, 13248, Note_on_c, 0, 77, 45
2, 13296, Note_on_c, 0, 77, 0
2, 13296, Note_on_c, 0, 79, 45
2, 13344, Note_on_c, 0, 79, 0
2, 13344, Note_on_c, 0, 81, 45
2, 13392, Note_on_c, 0, 81, 0
2, 13392, Note_on_c, 0, 83, 45
2, 13440, Note_on_c, 0, 83, 0
2, 13440, Note_on_c, 0, 84, 45
2, 13728, Note_on_c, 0, 84, 0
2, 13728, Note_on_c, 0, 81, 45
2, 13824, Note_on_c, 0, 81, 0
2, 13824, Note_on_c, 0, 78, 45
2, 13920, Note_on_c, 0, 78, 0
2, 13920, Note_on_c, 0, 72, 45
2, 13968, Note_on_c, 0, 72, 0
2, 13968, Note_on_c, 0, 72, 45
2, 14016, Note_on_c, 0, 72, 0
2, 14016, Note_on_c, 0, 74, 45
2, 14084, Note_on_c, 0, 74, 0
2, 14112, Note_on_c, 0, 69, 45
2, 14144, Note_on_c, 0, 69, 0
2, 14208, Note_on_c, 0, 72, 45
2, 14400, Note_on_c, 0, 72, 0
2, 14400, Note_on_c, 0, 71, 45
2, 14560, Note_on_c, 0, 71, 0
2, 14640, Note_on_c, 0, 67, 45
2, 14686, Note_on_c, 0, 67, 0
2, 14688, Note_on_c, 0, 69, 45
2, 14734, Note_on_c, 0, 69, 0
2, 14736, Note_on_c, 0, 71, 45
2, 14782, Note_on_c, 0, 71, 0
2, 14784, Note_on_c, 0, 72, 45
2, 14830, Note_on_c, 0, 72, 0
2, 14832, Note_on_c, 0, 74, 45
2, 14878, Note_on_c, 0, 74, 0
2, 14880, Note_on_c, 0, 76, 45
2, 14926, Note_on_c, 0, 76, 0
2, 14928, Note_on_c, 0, 78, 45
2, 14974, Note_on_c, 0, 78, 0
2, 14976, Note_on_c, 0, 79, 45
2, 15232, Note_on_c, 0, 79, 0
2, 15264, Note_on_c, 0, 76, 45
2, 15358, Note_on_c, 0, 76, 0
2, 15360, Note_on_c, 0, 73, 45
2, 15454, Note_on_c, 0, 73, 0
2, 15456, Note_on_c, 0, 67, 45
2, 15502, Note_on_c, 0, 67, 0
2, 15504, Note_on_c, 0, 67, 45
2, 15550, Note_on_c, 0, 67, 0
2, 15552, Note_on_c, 0, 69, 45
2, 15584, Note_on_c, 0, 69, 0
2, 15648, Note_on_c, 0, 64, 45
2, 15680, Note_on_c, 0, 64, 0
2, 15744, Note_on_c, 0, 67, 45
2, 15886, Note_on_c, 0, 67, 0
2, 15888, Note_on_c, 0, 66, 45
2, 15934, Note_on_c, 0, 66, 0
2, 15936, Note_on_c, 0, 74, 92
2, 16096, Note_on_c, 0, 74, 0
2, 16128, Note_on_c, 0, 74, 45
2, 16174, Note_on_c, 0, 74, 0
2, 16176, Note_on_c, 0, 73, 45
2, 16222, Note_on_c, 0, 73, 0
2, 16224, Note_on_c, 0, 76, 45
2, 16270, Note_on_c, 0, 76, 0
2, 16272, Note_on_c, 0, 74, 45
2, 16318, Note_on_c, 0, 74, 0
2, 16320, Note_on_c, 0, 73, 45
2, 16366, Note_on_c, 0, 73, 0
2, 16368, Note_on_c, 0, 71, 45
2, 16414, Note_on_c, 0, 71, 0
2, 16416, Note_on_c, 0, 69, 45
2, 16462, Note_on_c, 0, 69, 0
2, 16464, Note_on_c, 0, 67, 45
2, 16510, Note_on_c, 0, 67, 0
2, 16512, Note_on_c, 0, 66, 45
2, 16558, Note_on_c, 0, 66, 0
2, 16560, Note_on_c, 0, 67, 45
2, 16606, Note_on_c, 0, 67, 0
2, 16608, Note_on_c, 0, 69, 45
2, 16654, Note_on_c, 0, 69, 0
2, 16656, Note_on_c, 0, 71, 45
2, 16702, Note_on_c, 0, 71, 0
2, 16704, Note_on_c, 0, 69, 45
2, 16750, Note_on_c, 0, 69, 0
2, 16752, Note_on_c, 0, 71, 45
2, 16798, Note_on_c, 0, 71, 0
2, 16800, Note_on_c, 0, 73, 45
2, 16846, Note_on_c, 0, 73, 0
2, 16848, Note_on_c, 0, 74, 45
2, 16894, Note_on_c, 0, 74, 0
2, 16896, Note_on_c, 0, 73, 45
2, 16942, Note_on_c, 0, 73, 0
2, 16944, Note_on_c, 0, 74, 45
2, 16990, Note_on_c, 0, 74, 0
2, 16992, Note_on_c, 0, 76, 45
2, 17038, Note_on_c, 0, 76, 0
2, 17040, Note_on_c, 0, 74, 45
2, 17086, Note_on_c, 0, 74, 0
2, 17088, Note_on_c, 0, 73, 45
2, 17134, Note_on_c, 0, 73, 0
2, 17136, Note_on_c, 0, 71, 45
2, 17182, Note_on_c, 0, 71, 0
2, 17184, Note_on_c, 0, 69, 45
2, 17230, Note_on_c, 0, 69, 0
2, 17232, Note_on_c, 0, 67, 45
2, 17278, Note_on_c, 0, 67, 0
2, 17280, Note_on_c, 0, 66, 45
2, 17326, Note_on_c, 0, 66, 0
2, 17328, Note_on_c, 0, 67, 45
2, 17376, Note_on_c, 0, 67, 0
2, 17376, Note_on_c, 0, 69, 45
2, 17424, Note_on_c, 0, 69, 0
2, 17424, Note_on_c, 0, 71, 45
2, 17472, Note_on_c, 0, 71, 0
2, 17472, Note_on_c, 0, 73, 45
2, 17520, Note_on_c, 0, 73, 0
2, 17520, Note_on_c, 0, 74, 45
2, 17568, Note_on_c, 0, 74, 0
2, 17568, Note_on_c, 0, 76, 45
2, 17616, Note_on_c, 0, 76, 0
2, 17616, Note_on_c, 0, 78, 45
2, 17664, Note_on_c, 0, 78, 0
2, 17664, Note_on_c, 0, 79, 45
2, 17712, Note_on_c, 0, 79, 0
2, 17712, Note_on_c, 0, 78, 45
2, 17728, Note_on_c, 0, 78, 0
2, 17728, Note_on_c, 0, 78, 45
2, 17744, Note_on_c, 0, 78, 0
2, 17744, Note_on_c, 0, 78, 45
2, 17760, Note_on_c, 0, 78, 0
2, 17760, Note_on_c, 0, 79, 45
2, 17808, Note_on_c, 0, 79, 0
2, 17808, Note_on_c, 0, 81, 45
2, 17856, Note_on_c, 0, 81, 0
2, 17856, Note_on_c, 0, 83, 45
2, 17904, Note_on_c, 0, 83, 0
2, 17904, Note_on_c, 0, 82, 45
2, 17920, Note_on_c, 0, 82, 0
2, 17920, Note_on_c, 0, 82, 45
2, 17936, Note_on_c, 0, 82, 0
2, 17936, Note_on_c, 0, 82, 45
2, 17952, Note_on_c, 0, 82, 0
2, 17952, Note_on_c, 0, 83, 45
2, 18000, Note_on_c, 0, 83, 0
2, 18000, Note_on_c, 0, 85, 45
2, 18048, Note_on_c, 0, 85, 0
2, 18048, Note_on_c, 0, 86, 45
2, 18096, Note_on_c, 0, 86, 0
2, 18096, Note_on_c, 0, 85, 45
2, 18144, Note_on_c, 0, 85, 0
2, 18144, Note_on_c, 0, 88, 46
2, 18192, Note_on_c, 0, 88, 0
2, 18192, Note_on_c, 0, 86, 47
2, 18240, Note_on_c, 0, 86, 0
2, 18240, Note_on_c, 0, 81, 48
2, 18288, Note_on_c, 0, 81, 0
2, 18288, Note_on_c, 0, 80, 49
2, 18336, Note_on_c, 0, 80, 0
2, 18336, Note_on_c, 0, 83, 50
2, 18384, Note_on_c, 0, 83, 0
2, 18384, Note_on_c, 0, 81, 51
2, 18432, Note_on_c, 0, 81, 0
2, 18432, Note_on_c, 0, 78, 52
2, 18480, Note_on_c, 0, 78, 0
2, 18480, Note_on_c, 0, 77, 53
2, 18528, Note_on_c, 0, 77, 0
2, 18528, Note_on_c, 0, 79, 54
2, 18576, Note_on_c, 0, 79, 0
2, 18576, Note_on_c, 0, 78, 55
2, 18624, Note_on_c, 0, 78, 0
2, 18624, Note_on_c, 0, 74, 56
2, 18672, Note_on_c, 0, 74, 0
2, 18672, Note_on_c, 0, 73, 57
2, 18720, Note_on_c, 0, 73, 0
2, 18720, Note_on_c, 0, 76, 58
2, 18768, Note_on_c, 0, 76, 0
2, 18768, Note_on_c, 0, 74, 59
2, 18814, Note_on_c, 0, 74, 0
2, 18864, Note_on_c, 0, 72, 60
2, 18864, Note_on_c, 0, 74, 60
2, 18896, Note_on_c, 0, 72, 0
2, 18896, Note_on_c, 0, 74, 0
2, 18960, Note_on_c, 0, 72, 60
2, 18960, Note_on_c, 0, 74, 60
2, 18992, Note_on_c, 0, 72, 0
2, 18992, Note_on_c, 0, 74, 0
2, 19056, Note_on_c, 0, 72, 60
2, 19056, Note_on_c, 0, 74, 60
2, 19088, Note_on_c, 0, 72, 0
2, 19088, Note_on_c, 0, 74, 0
2, 19152, Note_on_c, 0, 72, 60
2, 19152, Note_on_c, 0, 74, 60
2, 19184, Note_on_c, 0, 72, 0
2, 19184, Note_on_c, 0, 74, 0
2, 19248, Note_on_c, 0, 72, 60
2, 19248, Note_on_c, 0, 74, 60
2, 19280, Note_on_c, 0, 72, 0
2, 19280, Note_on_c, 0, 74, 0
2, 19344, Note_on_c, 0, 72, 60
2, 19344, Note_on_c, 0, 74, 60
2, 19376, Note_on_c, 0, 72, 0
2, 19376, Note_on_c, 0, 74, 0
2, 19440, Note_on_c, 0, 72, 60
2, 19440, Note_on_c, 0, 74, 60
2, 19472, Note_on_c, 0, 72, 0
2, 19472, Note_on_c, 0, 74, 0
2, 19536, Note_on_c, 0, 72, 60
2, 19536, Note_on_c, 0, 74, 60
2, 19568, Note_on_c, 0, 72, 0
2, 19568, Note_on_c, 0, 74, 0
2, 19632, Note_on_c, 0, 74, 60
2, 19680, Note_on_c, 0, 74, 0
2, 19680, Note_on_c, 0, 73, 60
2, 19728, Note_on_c, 0, 73, 0
2, 19728, Note_on_c, 0, 74, 60
2, 19776, Note_on_c, 0, 74, 0
2, 19776, Note_on_c, 0, 79, 60
2, 19824, Note_on_c, 0, 79, 0
2, 19824, Note_on_c, 0, 74, 60
2, 19872, Note_on_c, 0, 74, 0
2, 19872, Note_on_c, 0, 83, 60
2, 19920, Note_on_c, 0, 83, 0
2, 19920, Note_on_c, 0, 74, 60
2, 19968, Note_on_c, 0, 74, 0
2, 19968, Note_on_c, 0, 86, 92
2, 20016, Note_on_c, 0, 86, 0
2, 20016, Note_on_c, 0, 74, 92
2, 20064, Note_on_c, 0, 74, 0
2, 20064, Note_on_c, 0, 83, 60
2, 20112, Note_on_c, 0, 83, 0
2, 20112, Note_on_c, 0, 74, 60
2, 20160, Note_on_c, 0, 74, 0
2, 20160, Note_on_c, 0, 81, 60
2, 20208, Note_on_c, 0, 81, 0
2, 20208, Note_on_c, 0, 74, 60
2, 20256, Note_on_c, 0, 74, 0
2, 20256, Note_on_c, 0, 79, 60
2, 20304, Note_on_c, 0, 79, 0
2, 20304, Note_on_c, 0, 74, 60
2, 20350, Note_on_c, 0, 74, 0
2, 20400, Note_on_c, 0, 72, 60
2, 20400, Note_on_c, 0, 74, 60
2, 20432, Note_on_c, 0, 72, 0
2, 20432, Note_on_c, 0, 74, 0
2, 20496, Note_on_c, 0, 72, 60
2, 20496, Note_on_c, 0, 74, 60
2, 20528, Note_on_c, 0, 72, 0
2, 20528, Note_on_c, 0, 74, 0
2, 20592, Note_on_c, 0, 72, 60
2, 20592, Note_on_c, 0, 74, 60
2, 20624, Note_on_c, 0, 72, 0
2, 20624, Note_on_c, 0, 74, 0
2, 20688, Note_on_c, 0, 72, 60
2, 20688, Note_on_c, 0, 74, 60
2, 20720, Note_on_c, 0, 72, 0
2, 20720, Note_on_c, 0, 74, 0
2, 20784, Note_on_c, 0, 72, 60
2, 20784, Note_on_c, 0, 74, 60
2, 20816, Note_on_c, 0, 72, 0
2, 20816, Note_on_c, 0, 74, 0
2, 20880, Note_on_c, 0, 72, 60
2, 20880, Note_on_c, 0, 74, 60
2, 20912, Note_on_c, 0, 72, 0
2, 20912, Note_on_c, 0, 74, 0
2, 20976, Note_on_c, 0, 72, 60
2, 20976, Note_on_c, 0, 74, 60
2, 21008, Note_on_c, 0, 72, 0
2, 21008, Note_on_c, 0, 74, 0
2, 21072, Note_on_c, 0, 72, 60
2, 21072, Note_on_c, 0, 74, 60
2, 21104, Note_on_c, 0, 72, 0
2, 21104, Note_on_c, 0, 74, 0
2, 21168, Note_on_c, 0, 74, 60
2, 21216, Note_on_c, 0, 74, 0
2, 21216, Note_on_c, 0, 73, 60
2, 21264, Note_on_c, 0, 73, 0
2, 21264, Note_on_c, 0, 74, 60
2, 21312, Note_on_c, 0, 74, 0
2, 21312, Note_on_c, 0, 79, 60
2, 21360, Note_on_c, 0, 79, 0
2, 21360, Note_on_c, 0, 74, 60
2, 21408, Note_on_c, 0, 74, 0
2, 21408, Note_on_c, 0, 83, 60
2, 21456, Note_on_c, 0, 83, 0
2, 21456, Note_on_c, 0, 74, 60
2, 21504, Note_on_c, 0, 74, 0
2, 21504, Note_on_c, 0, 86, 92
2, 21552, Note_on_c, 0, 86, 0
2, 21552, Note_on_c, 0, 74, 92
2, 21600, Note_on_c, 0, 74, 0
2, 21600, Note_on_c, 0, 83, 60
2, 21648, Note_on_c, 0, 83, 0
2, 21648, Note_on_c, 0, 74, 60
2, 21696, Note_on_c, 0, 74, 0
2, 21696, Note_on_c, 0, 81, 60
2, 21744, Note_on_c, 0, 81, 0
2, 21744, Note_on_c, 0, 74, 60
2, 21792, Note_on_c, 0, 74, 0
2, 21792, Note_on_c, 0, 79, 60
2, 21840, Note_on_c, 0, 79, 0
2, 21840, Note_on_c, 0, 74, 60
2, 21886, Note_on_c, 0, 74, 0
2, 21936, Note_on_c, 0, 74, 61
2, 21936, Note_on_c, 0, 76, 61
2, 21968, Note_on_c, 0, 74, 0
2, 21968, Note_on_c, 0, 76, 0
2, 22032, Note_on_c, 0, 74, 64
2, 22032, Note_on_c, 0, 76, 64
2, 22064, Note_on_c, 0, 74, 0
2, 22064, Note_on_c, 0, 76, 0
2, 22128, Note_on_c, 0, 74, 68
2, 22128, Note_on_c, 0, 76, 68
2, 22160, Note_on_c, 0, 74, 0
2, 22160, Note_on_c, 0, 76, 0
2, 22224, Note_on_c, 0, 74, 72
2, 22224, Note_on_c, 0, 76, 72
2, 22256, Note_on_c, 0, 74, 0
2, 22256, Note_on_c, 0, 76, 0
2, 22320, Note_on_c, 0, 74, 76
2, 22320, Note_on_c, 0, 76, 76
2, 22352, Note_on_c, 0, 74, 0
2, 22352, Note_on_c, 0, 76, 0
2, 22416, Note_on_c, 0, 74, 80
2, 22416, Note_on_c, 0, 76, 80
2, 22448, Note_on_c, 0, 74, 0
2, 22448, Note_on_c, 0, 76, 0
2, 22512, Note_on_c, 0, 74, 84
2, 22512, Note_on_c, 0, 76, 84
2, 22544, Note_on_c, 0, 74, 0
2, 22544, Note_on_c, 0, 76, 0
2, 22608, Note_on_c, 0, 74, 88
2, 22608, Note_on_c, 0, 76, 88
2, 22640, Note_on_c, 0, 74, 0
2, 22640, Note_on_c, 0, 76, 0
2, 22704, Note_on_c, 0, 76, 92
2, 22752, Note_on_c, 0, 76, 0
2, 22752, Note_on_c, 0, 78, 92
2, 22800, Note_on_c, 0, 78, 0
2, 22800, Note_on_c, 0, 80, 92
2, 22848, Note_on_c, 0, 80, 0
2, 22848, Note_on_c, 0, 81, 92
2, 22896, Note_on_c, 0, 81, 0
2, 22896, Note_on_c, 0, 83, 92
2, 22944, Note_on_c, 0, 83, 0
2, 22944, Note_on_c, 0, 84, 92
2, 22992, Note_on_c, 0, 84, 0
2, 22992, Note_on_c, 0, 86, 92
2, 23040, Note_on_c, 0, 86, 0
2, 23040, Note_on_c, 0, 88, 92
2, 23088, Note_on_c, 0, 88, 0
2, 23088, Note_on_c, 0, 87, 92
2, 23136, Note_on_c, 0, 87, 0
2, 23136, Note_on_c, 0, 89, 92
2, 23184, Note_on_c, 0, 89, 0
2, 23184, Note_on_c, 0, 88, 92
2, 23232, Note_on_c, 0, 88, 0
2, 23232, Note_on_c, 0, 86, 92
2, 23280, Note_on_c, 0, 86, 0
2, 23280, Note_on_c, 0, 84, 92
2, 23328, Note_on_c, 0, 84, 0
2, 23328, Note_on_c, 0, 83, 92
2, 23376, Note_on_c, 0, 83, 0
2, 23376, Note_on_c, 0, 82, 92
2, 23424, Note_on_c, 0, 82, 0
2, 23424, Note_on_c, 0, 84, 45
2, 23472, Note_on_c, 0, 84, 0
2, 23472, Note_on_c, 0, 83, 45
2, 23520, Note_on_c, 0, 83, 0
2, 23520, Note_on_c, 0, 88, 45
2, 23568, Note_on_c, 0, 88, 0
2, 23568, Note_on_c, 0, 86, 45
2, 23616, Note_on_c, 0, 86, 0
2, 23616, Note_on_c, 0, 84, 45
2, 23664, Note_on_c, 0, 84, 0
2, 23664, Note_on_c, 0, 83, 45
2, 23712, Note_on_c, 0, 83, 0
2, 23712, Note_on_c, 0, 81, 45
2, 23760, Note_on_c, 0, 81, 0
2, 23760, Note_on_c, 0, 79, 45
2, 23808, Note_on_c, 0, 79, 0
2, 23808, Note_on_c, 0, 83, 45
2, 23856, Note_on_c, 0, 83, 0
2, 23856, Note_on_c, 0, 81, 45
2, 23904, Note_on_c, 0, 81, 0
2, 23904, Note_on_c, 0, 86, 45
2, 23952, Note_on_c, 0, 86, 0
2, 23952, Note_on_c, 0, 84, 45
2, 24000, Note_on_c, 0, 84, 0
2, 24000, Note_on_c, 0, 83, 45
2, 24048, Note_on_c, 0, 83, 0
2, 24048, Note_on_c, 0, 81, 45
2, 24096, Note_on_c, 0, 81, 0
2, 24096, Note_on_c, 0, 79, 45
2, 24144, Note_on_c, 0, 79, 0
2, 24144, Note_on_c, 0, 78, 45
2, 24192, Note_on_c, 0, 78, 0
2, 24192, Note_on_c, 0, 79, 45
2, 24238, Note_on_c, 0, 79, 0
2, 24240, Note_on_c, 0, 80, 45
2, 24286, Note_on_c, 0, 80, 0
2, 24288, Note_on_c, 0, 81, 45
2, 24334, Note_on_c, 0, 81, 0
2, 24336, Note_on_c, 0, 82, 45
2, 24382, Note_on_c, 0, 82, 0
2, 24384, Note_on_c, 0, 83, 45
2, 24430, Note_on_c, 0, 83, 0
2, 24432, Note_on_c, 0, 77, 45
2, 24478, Note_on_c, 0, 77, 0
2, 24480, Note_on_c, 0, 76, 45
2, 24526, Note_on_c, 0, 76, 0
2, 24528, Note_on_c, 0, 74, 45
2, 24574, Note_on_c, 0, 74, 0
2, 24576, Note_on_c, 0, 73, 45
2, 24622, Note_on_c, 0, 73, 0
2, 24624, Note_on_c, 0, 76, 45
2, 24670, Note_on_c, 0, 76, 0
2, 24672, Note_on_c, 0, 78, 45
2, 24718, Note_on_c, 0, 78, 0
2, 24720, Note_on_c, 0, 80, 45
2, 24766, Note_on_c, 0, 80, 0
2, 24768, Note_on_c, 0, 81, 45
2, 24814, Note_on_c, 0, 81, 0
2, 24816, Note_on_c, 0, 76, 45
2, 24862, Note_on_c, 0, 76, 0
2, 24864, Note_on_c, 0, 74, 45
2, 24910, Note_on_c, 0, 74, 0
2, 24912, Note_on_c, 0, 72, 45
2, 24958, Note_on_c, 0, 72, 0
2, 24960, Note_on_c, 0, 70, 45
2, 25006, Note_on_c, 0, 70, 0
2, 25008, Note_on_c, 0, 71, 45
2, 25054, Note_on_c, 0, 71, 0
2, 25056, Note_on_c, 0, 76, 45
2, 25102, Note_on_c, 0, 76, 0
2, 25104, Note_on_c, 0, 74, 45
2, 25150, Note_on_c, 0, 74, 0
2, 25152, Note_on_c, 0, 72, 45
2, 25198, Note_on_c, 0, 72, 0
2, 25200, Note_on_c, 0, 71, 45
2, 25246, Note_on_c, 0, 71, 0
2, 25248, Note_on_c, 0, 69, 45
2, 25294, Note_on_c, 0, 69, 0
2, 25296, Note_on_c, 0, 67, 45
2, 25342, Note_on_c, 0, 67, 0
2, 25344, Note_on_c, 0, 71, 45
2, 25390, Note_on_c, 0, 71, 0
2, 25392, Note_on_c, 0, 69, 45
2, 25438, Note_on_c, 0, 69, 0
2, 25440, Note_on_c, 0, 74, 46
2, 25486, Note_on_c, 0, 74, 0
2, 25488, Note_on_c, 0, 72, 47
2, 25534, Note_on_c, 0, 72, 0
2, 25536, Note_on_c, 0, 71, 48
2, 25582, Note_on_c, 0, 71, 0
2, 25584, Note_on_c, 0, 69, 49
2, 25630, Note_on_c, 0, 69, 0
2, 25632, Note_on_c, 0, 67, 50
2, 25678, Note_on_c, 0, 67, 0
2, 25680, Note_on_c, 0, 66, 51
2, 25726, Note_on_c, 0, 66, 0
2, 25728, Note_on_c, 0, 67, 52
2, 25888, Note_on_c, 0, 67, 0
2, 26112, Note_on_c, 0, 59, 60
2, 26112, Note_on_c, 0, 62, 60
2, 26112, Note_on_c, 0, 67, 60
2, 26160, Note_on_c, 0, 59, 0
2, 26160, Note_on_c, 0, 62, 0
2, 26160, Note_on_c, 0, 67, 0
2, 26304, Note_on_c, 0, 59, 60
2, 26304, Note_on_c, 0, 62, 60
2, 26304, Note_on_c, 0, 67, 60
2, 26352, Note_on_c, 0, 59, 0
2, 26352, Note_on_c, 0, 62, 0
2, 26352, Note_on_c, 0, 67, 0
2, 26496, Note_on_c, 0, 57, 60
2, 26496, Note_on_c, 0, 63, 60
2, 26496, Note_on_c, 0, 66, 60
2, 26752, Note_on_c, 0, 66, 0
2, 26784, Note_on_c, 0, 67, 60
2, 26832, Note_on_c, 0, 57, 0
2, 26832, Note_on_c, 0, 63, 0
2, 26878, Note_on_c, 0, 67, 0
2, 26880, Note_on_c, 0, 63, 60
2, 26880, Note_on_c, 0, 66, 60
2, 26880, Note_on_c, 0, 69, 60
2, 27040, Note_on_c, 0, 63, 0
2, 27040, Note_on_c, 0, 66, 0
2, 27040, Note_on_c, 0, 69, 0
2, 27072, Note_on_c, 0, 63, 60
2, 27072, Note_on_c, 0, 66, 60
2, 27072, Note_on_c, 0, 69, 60
2, 27214, Note_on_c, 0, 69, 0
2, 27216, Note_on_c, 0, 71, 60
2, 27232, Note_on_c, 0, 63, 0
2, 27232, Note_on_c, 0, 66, 0
2, 27262, Note_on_c, 0, 71, 0
2, 27264, Note_on_c, 0, 62, 60
2, 27264, Note_on_c, 0, 67, 60
2, 27424, Note_on_c, 0, 62, 0
2, 27424, Note_on_c, 0, 67, 0
2, 27648, Note_on_c, 0, 59, 60
2, 27648, Note_on_c, 0, 62, 60
2, 27648, Note_on_c, 0, 67, 60
2, 27768, Note_on_c, 0, 59, 0
2, 27768, Note_on_c, 0, 62, 0
2, 27768, Note_on_c, 0, 67, 0
2, 27840, Note_on_c, 0, 59, 60
2, 27840, Note_on_c, 0, 62, 60
2, 27840, Note_on_c, 0, 67, 60
2, 27888, Note_on_c, 0, 59, 0
2, 27888, Note_on_c, 0, 62, 0
2, 27888, Note_on_c, 0, 67, 0
2, 28032, Note_on_c, 0, 57, 60
2, 28032, Note_on_c, 0, 63, 60
2, 28032, Note_on_c, 0, 66, 60
2, 28288, Note_on_c, 0, 66, 0
2, 28320, Note_on_c, 0, 67, 60
2, 28368, Note_on_c, 0, 57, 0
2, 28368, Note_on_c, 0, 63, 0
2, 28414, Note_on_c, 0, 67, 0
2, 28416, Note_on_c, 0, 63, 60
2, 28416, Note_on_c, 0, 66, 60
2, 28416, Note_on_c, 0, 69, 60
2, 28576, Note_on_c, 0, 63, 0
2, 28576, Note_on_c, 0, 66, 0
2, 28576, Note_on_c, 0, 69, 0
2, 28608, Note_on_c, 0, 63, 60
2, 28608, Note_on_c, 0, 66, 60
2, 28608, Note_on_c, 0, 69, 60
2, 28750, Note_on_c, 0, 69, 0
2, 28752, Note_on_c, 0, 71, 60
2, 28768, Note_on_c, 0, 63, 0
2, 28768, Note_on_c, 0, 66, 0
2, 28798, Note_on_c, 0, 71, 0
2, 28800, Note_on_c, 0, 62, 60
2, 28800, Note_on_c, 0, 67, 60
2, 28960, Note_on_c, 0, 62, 0
2, 28960, Note_on_c, 0, 67, 0
2, 29184, Note_on_c, 0, 63, 65
2, 29184, Note_on_c, 0, 66, 65
2, 29184, Note_on_c, 0, 69, 65
2, 29344, Note_on_c, 0, 63, 0
2, 29344, Note_on_c, 0, 66, 0
2, 29344, Note_on_c, 0, 69, 0
2, 29568, Note_on_c, 0, 65, 71
2, 29568, Note_on_c, 0, 68, 71
2, 29568, Note_on_c, 0, 71, 71
2, 29728, Note_on_c, 0, 65, 0
2, 29728, Note_on_c, 0, 68, 0
2, 29728, Note_on_c, 0, 71, 0
2, 29952, Note_on_c, 0, 67, 77
2, 29952, Note_on_c, 0, 72, 77
2, 30112, Note_on_c, 0, 67, 0
2, 30112, Note_on_c, 0, 72, 0
2, 30336, Note_on_c, 0, 71, 83
2, 30336, Note_on_c, 0, 74, 83
2, 30496, Note_on_c, 0, 71, 0
2, 30496, Note_on_c, 0, 74, 0
2, 30912, Note_on_c, 0, 71, 92
2, 30912, Note_on_c, 0, 74, 92
2, 30912, Note_on_c, 0, 83, 92
2, 31032, Note_on_c, 0, 71, 0
2, 31032, Note_on_c, 0, 74, 0
2, 31032, Note_on_c, 0, 83, 0
2, 31104, Note_on_c, 0, 71, 45
2, 31104, Note_on_c, 0, 74, 45
2, 31104, Note_on_c, 0, 83, 45
2, 31152, Note_on_c, 0, 71, 0
2, 31152, Note_on_c, 0, 74, 0
2, 31152, Note_on_c, 0, 83, 0
2, 31680, Note_on_c, 0, 83, 92
2, 31680, Note_on_c, 0, 86, 92
2, 31800, Note_on_c, 0, 83, 0
2, 31800, Note_on_c, 0, 86, 0
2, 31872, Note_on_c, 0, 83, 92
2, 31872, Note_on_c, 0, 86, 92
2, 31920, Note_on_c, 0, 83, 0
2, 31920, Note_on_c, 0, 86, 0
2, 33024, Note_on_c, 0, 72, 45
2, 33072, Note_on_c, 0, 72, 0
2, 33216, Note_on_c, 0, 64, 45
2, 33216, Note_on_c, 0, 72, 45
2, 33310, Note_on_c, 0, 64, 0
2, 33312, Note_on_c, 0, 67, 45
2, 33376, Note_on_c, 0, 72, 0
2, 33406, Note_on_c, 0, 67, 0
2, 33408, Note_on_c, 0, 72, 45
2, 33504, Note_on_c, 0, 72, 0
2, 33504, Note_on_c, 0, 71, 45
2, 33600, Note_on_c, 0, 71, 0
2, 33600, Note_on_c, 0, 69, 45
2, 33696, Note_on_c, 0, 69, 0
2, 33696, Note_on_c, 0, 71, 45
2, 33792, Note_on_c, 0, 71, 0
2, 33792, Note_on_c, 0, 72, 45
2, 33840, Note_on_c, 0, 72, 45
2, 33888, Note_on_c, 0, 72, 0
2, 33888, Note_on_c, 0, 72, 45
2, 33936, Note_on_c, 0, 72, 0
2, 33936, Note_on_c, 0, 72, 45
2, 33952, Note_on_c, 0, 72, 0
2, 33984, Note_on_c, 0, 72, 0
2, 33984, Note_on_c, 0, 72, 45
2, 34128, Note_on_c, 0, 72, 0
2, 34128, Note_on_c, 0, 76, 45
2, 34176, Note_on_c, 0, 76, 0
2, 34176, Note_on_c, 0, 79, 45
2, 34512, Note_on_c, 0, 79, 0
2, 34560, Note_on_c, 0, 77, 45
2, 34654, Note_on_c, 0, 77, 0
2, 34656, Note_on_c, 0, 81, 45
2, 34816, Note_on_c, 0, 81, 0
2, 34848, Note_on_c, 0, 79, 45
2, 34894, Note_on_c, 0, 79, 0
2, 34896, Note_on_c, 0, 77, 45
2, 34942, Note_on_c, 0, 77, 0
2, 34944, Note_on_c, 0, 76, 45
2, 35038, Note_on_c, 0, 76, 0
2, 35040, Note_on_c, 0, 79, 45
2, 35200, Note_on_c, 0, 79, 0
2, 35232, Note_on_c, 0, 77, 45
2, 35278, Note_on_c, 0, 77, 0
2, 35280, Note_on_c, 0, 76, 45
2, 35326, Note_on_c, 0, 76, 0
2, 35328, Note_on_c, 0, 74, 45
2, 35374, Note_on_c, 0, 74, 0
2, 35376, Note_on_c, 0, 76, 45
2, 35422, Note_on_c, 0, 76, 0
2, 35424, Note_on_c, 0, 77, 45
2, 35470, Note_on_c, 0, 77, 0
2, 35472, Note_on_c, 0, 76, 45
2, 35518, Note_on_c, 0, 76, 0
2, 35520, Note_on_c, 0, 79, 45
2, 35566, Note_on_c, 0, 79, 0
2, 35568, Note_on_c, 0, 77, 45
2, 35614, Note_on_c, 0, 77, 0
2, 35616, Note_on_c, 0, 76, 45
2, 35662, Note_on_c, 0, 76, 0
2, 35664, Note_on_c, 0, 74, 45
2, 35710, Note_on_c, 0, 74, 0
2, 35712, Note_on_c, 0, 72, 45
2, 35872, Note_on_c, 0, 72, 0
2, 35904, Note_on_c, 0, 71, 45
2, 35936, Note_on_c, 0, 71, 0
2, 36000, Note_on_c, 0, 67, 45
2, 36032, Note_on_c, 0, 67, 0
2, 36096, Note_on_c, 0, 67, 45
2, 36120, Note_on_c, 0, 67, 0
2, 36120, Note_on_c, 0, 72, 45
2, 36176, Note_on_c, 0, 72, 0
2, 36288, Note_on_c, 0, 72, 45
2, 36336, Note_on_c, 0, 72, 0
2, 36480, Note_on_c, 0, 72, 45
2, 36576, Note_on_c, 0, 72, 0
2, 36576, Note_on_c, 0, 71, 45
2, 36672, Note_on_c, 0, 71, 0
2, 36672, Note_on_c, 0, 69, 45
2, 36768, Note_on_c, 0, 69, 0
2, 36768, Note_on_c, 0, 71, 45
2, 36862, Note_on_c, 0, 71, 0
2, 36864, Note_on_c, 0, 72, 45
2, 36912, Note_on_c, 0, 72, 45
2, 36958, Note_on_c, 0, 72, 0
2, 36960, Note_on_c, 0, 72, 45
2, 37006, Note_on_c, 0, 72, 0
2, 37008, Note_on_c, 0, 72, 45
2, 37024, Note_on_c, 0, 72, 0
2, 37054, Note_on_c, 0, 72, 0
2, 37056, Note_on_c, 0, 72, 45
2, 37088, Note_on_c, 0, 72, 0
2, 37104, Note_on_c, 0, 74, 45
2, 37136, Note_on_c, 0, 74, 0
2, 37152, Note_on_c, 0, 76, 45
2, 37184, Note_on_c, 0, 76, 0
2, 37200, Note_on_c, 0, 77, 45
2, 37232, Note_on_c, 0, 77, 0
2, 37248, Note_on_c, 0, 78, 45
2, 37344, Note_on_c, 0, 78, 0
2, 37344, Note_on_c, 0, 79, 45
2, 37504, Note_on_c, 0, 79, 0
2, 37536, Note_on_c, 0, 79, 45
2, 37632, Note_on_c, 0, 79, 0
2, 37632, Note_on_c, 0, 77, 45
2, 37656, Note_on_c, 0, 79, 45
2, 37680, Note_on_c, 0, 79, 0
2, 37680, Note_on_c, 0, 81, 45
2, 37704, Note_on_c, 0, 81, 0
2, 37704, Note_on_c, 0, 79, 45
2, 37726, Note_on_c, 0, 77, 0
2, 37728, Note_on_c, 0, 79, 0
2, 37728, Note_on_c, 0, 76, 45
2, 37752, Note_on_c, 0, 76, 0
2, 37752, Note_on_c, 0, 77, 45
2, 37776, Note_on_c, 0, 77, 0
2, 37776, Note_on_c, 0, 81, 45
2, 37920, Note_on_c, 0, 81, 0
2, 37920, Note_on_c, 0, 79, 45
2, 37968, Note_on_c, 0, 79, 0
2, 37968, Note_on_c, 0, 77, 45
2, 38016, Note_on_c, 0, 77, 0
2, 38016, Note_on_c, 0, 76, 45
2, 38048, Note_on_c, 0, 76, 0
2, 38048, Note_on_c, 0, 75, 45
2, 38080, Note_on_c, 0, 75, 0
2, 38080, Note_on_c, 0, 76, 45
2, 38112, Note_on_c, 0, 76, 0
2, 38112, Note_on_c, 0, 79, 45
2, 38144, Note_on_c, 0, 79, 0
2, 38144, Note_on_c, 0, 77, 45
2, 38176, Note_on_c, 0, 77, 0
2, 38176, Note_on_c, 0, 76, 45
2, 38208, Note_on_c, 0, 76, 0
2, 38208, Note_on_c, 0, 74, 45
2, 38240, Note_on_c, 0, 74, 0
2, 38240, Note_on_c, 0, 73, 45
2, 38272, Note_on_c, 0, 73, 0
2, 38272, Note_on_c, 0, 74, 45
2, 38304, Note_on_c, 0, 74, 0
2, 38304, Note_on_c, 0, 77, 45
2, 38336, Note_on_c, 0, 77, 0
2, 38336, Note_on_c, 0, 76, 45
2, 38368, Note_on_c, 0, 76, 0
2, 38368, Note_on_c, 0, 74, 45
2, 38400, Note_on_c, 0, 74, 0
2, 38400, Note_on_c, 0, 72, 45
2, 38448, Note_on_c, 0, 72, 45
2, 38496, Note_on_c, 0, 72, 0
2, 38496, Note_on_c, 0, 72, 45
2, 38544, Note_on_c, 0, 72, 0
2, 38544, Note_on_c, 0, 72, 45
2, 38560, Note_on_c, 0, 72, 0
2, 38592, Note_on_c, 0, 72, 0
2, 38592, Note_on_c, 0, 76, 45
2, 38688, Note_on_c, 0, 76, 0
2, 38688, Note_on_c, 0, 74, 45
2, 38784, Note_on_c, 0, 74, 0
2, 38784, Note_on_c, 0, 64, 45
2, 38784, Note_on_c, 0, 72, 45
2, 38944, Note_on_c, 0, 64, 0
2, 38944, Note_on_c, 0, 72, 0
2, 39072, Note_on_c, 0, 67, 92
2, 39104, Note_on_c, 0, 67, 0
2, 39168, Note_on_c, 0, 63, 92
2, 39168, Note_on_c, 0, 75, 92
2, 39200, Note_on_c, 0, 63, 0
2, 39200, Note_on_c, 0, 75, 0
2, 39264, Note_on_c, 0, 63, 92
2, 39264, Note_on_c, 0, 75, 127
2, 39424, Note_on_c, 0, 75, 0
2, 39456, Note_on_c, 0, 74, 92
2, 39502, Note_on_c, 0, 74, 0
2, 39504, Note_on_c, 0, 72, 92
2, 39520, Note_on_c, 0, 63, 0
2, 39536, Note_on_c, 0, 72, 0
2, 39648, Note_on_c, 0, 62, 92
2, 39678, Note_on_c, 0, 62, 0
2, 39680, Note_on_c, 0, 65, 92
2, 39710, Note_on_c, 0, 65, 0
2, 39712, Note_on_c, 0, 71, 92
2, 39742, Note_on_c, 0, 71, 0
2, 39840, Note_on_c, 0, 71, 92
2, 39870, Note_on_c, 0, 71, 0
2, 39872, Note_on_c, 0, 74, 92
2, 39902, Note_on_c, 0, 74, 0
2, 39904, Note_on_c, 0, 77, 92
2, 39925, Note_on_c, 0, 77, 0
2, 39936, Note_on_c, 0, 65, 92
2, 39936, Note_on_c, 0, 77, 92
2, 39968, Note_on_c, 0, 65, 0
2, 39968, Note_on_c, 0, 77, 0
2, 40032, Note_on_c, 0, 65, 92
2, 40032, Note_on_c, 0, 77, 127
2, 40192, Note_on_c, 0, 77, 0
2, 40224, Note_on_c, 0, 75, 92
2, 40270, Note_on_c, 0, 75, 0
2, 40272, Note_on_c, 0, 74, 92
2, 40288, Note_on_c, 0, 65, 0
2, 40304, Note_on_c, 0, 74, 0
2, 40416, Note_on_c, 0, 63, 92
2, 40446, Note_on_c, 0, 63, 0
2, 40448, Note_on_c, 0, 67, 92
2, 40478, Note_on_c, 0, 67, 0
2, 40480, Note_on_c, 0, 72, 92
2, 40510, Note_on_c, 0, 72, 0
2, 40608, Note_on_c, 0, 75, 92
2, 40638, Note_on_c, 0, 75, 0
2, 40640, Note_on_c, 0, 79, 92
2, 40670, Note_on_c, 0, 79, 0
2, 40672, Note_on_c, 0, 84, 92
2, 40693, Note_on_c, 0, 84, 0
2, 40704, Note_on_c, 0, 73, 92
2, 40704, Note_on_c, 0, 85, 92
2, 40736, Note_on_c, 0, 73, 0
2, 40736, Note_on_c, 0, 85, 0
2, 40800, Note_on_c, 0, 73, 127
2, 40800, Note_on_c, 0, 85, 127
2, 40960, Note_on_c, 0, 73, 0
2, 40960, Note_on_c, 0, 85, 0
2, 40992, Note_on_c, 0, 84, 92
2, 41038, Note_on_c, 0, 84, 0
2, 41040, Note_on_c, 0, 82, 92
2, 41086, Note_on_c, 0, 82, 0
2, 41088, Note_on_c, 0, 82, 92
2, 41134, Note_on_c, 0, 82, 0
2, 41136, Note_on_c, 0, 80, 92
2, 41182, Note_on_c, 0, 80, 0
2, 41184, Note_on_c, 0, 80, 92
2, 41230, Note_on_c, 0, 80, 0
2, 41232, Note_on_c, 0, 79, 92
2, 41278, Note_on_c, 0, 79, 0
2, 41280, Note_on_c, 0, 79, 92
2, 41326, Note_on_c, 0, 79, 0
2, 41328, Note_on_c, 0, 77, 92
2, 41374, Note_on_c, 0, 77, 0
2, 41376, Note_on_c, 0, 77, 92
2, 41422, Note_on_c, 0, 77, 0
2, 41424, Note_on_c, 0, 75, 92
2, 41470, Note_on_c, 0, 75, 0
2, 41472, Note_on_c, 0, 75, 92
2, 41518, Note_on_c, 0, 75, 0
2, 41520, Note_on_c, 0, 74, 92
2, 41566, Note_on_c, 0, 74, 0
2, 41568, Note_on_c, 0, 74, 92
2, 41614, Note_on_c, 0, 74, 0
2, 41616, Note_on_c, 0, 75, 92
2, 41662, Note_on_c, 0, 75, 0
2, 41664, Note_on_c, 0, 75, 92
2, 41710, Note_on_c, 0, 75, 0
2, 41712, Note_on_c, 0, 74, 92
2, 41758, Note_on_c, 0, 74, 0
2, 41760, Note_on_c, 0, 74, 92
2, 41806, Note_on_c, 0, 74, 0
2, 41808, Note_on_c, 0, 72, 92
2, 41854, Note_on_c, 0, 72, 0
2, 41856, Note_on_c, 0, 72, 92
2, 41902, Note_on_c, 0, 72, 0
2, 41904, Note_on_c, 0, 71, 92
2, 41950, Note_on_c, 0, 71, 0
2, 41952, Note_on_c, 0, 69, 92
2, 41998, Note_on_c, 0, 69, 0
2, 42000, Note_on_c, 0, 67, 92
2, 42046, Note_on_c, 0, 67, 0
2, 42048, Note_on_c, 0, 66, 92
2, 42094, Note_on_c, 0, 66, 0
2, 42096, Note_on_c, 0, 67, 92
2, 42142, Note_on_c, 0, 67, 0
2, 42144, Note_on_c, 0, 68, 92
2, 42190, Note_on_c, 0, 68, 0
2, 42192, Note_on_c, 0, 67, 92
2, 42224, Note_on_c, 0, 67, 0
2, 42240, Note_on_c, 0, 63, 92
2, 42240, Note_on_c, 0, 75, 92
2, 42334, Note_on_c, 0, 63, 0
2, 42334, Note_on_c, 0, 75, 0
2, 42336, Note_on_c, 0, 63, 92
2, 42336, Note_on_c, 0, 75, 127
2, 42496, Note_on_c, 0, 75, 0
2, 42528, Note_on_c, 0, 74, 92
2, 42574, Note_on_c, 0, 74, 0
2, 42576, Note_on_c, 0, 72, 92
2, 42592, Note_on_c, 0, 63, 0
2, 42608, Note_on_c, 0, 72, 0
2, 42720, Note_on_c, 0, 62, 92
2, 42750, Note_on_c, 0, 62, 0
2, 42752, Note_on_c, 0, 65, 92
2, 42782, Note_on_c, 0, 65, 0
2, 42784, Note_on_c, 0, 70, 92
2, 42814, Note_on_c, 0, 70, 0
2, 42912, Note_on_c, 0, 74, 92
2, 42942, Note_on_c, 0, 74, 0
2, 42944, Note_on_c, 0, 77, 92
2, 42974, Note_on_c, 0, 77, 0
2, 42976, Note_on_c, 0, 80, 92
2, 43006, Note_on_c, 0, 80, 0
2, 43008, Note_on_c, 0, 80, 92
2, 43008, Note_on_c, 0, 84, 92
2, 43040, Note_on_c, 0, 80, 0
2, 43040, Note_on_c, 0, 84, 0
2, 43104, Note_on_c, 0, 80, 127
2, 43104, Note_on_c, 0, 84, 127
2, 43296, Note_on_c, 0, 80, 0
2, 43296, Note_on_c, 0, 84, 0
2, 43296, Note_on_c, 0, 79, 92
2, 43296, Note_on_c, 0, 82, 92
2, 43344, Note_on_c, 0, 79, 0
2, 43344, Note_on_c, 0, 82, 0
2, 43344, Note_on_c, 0, 77, 92
2, 43344, Note_on_c, 0, 80, 92
2, 43390, Note_on_c, 0, 77, 0
2, 43390, Note_on_c, 0, 80, 0
2, 43488, Note_on_c, 0, 67, 92
2, 43518, Note_on_c, 0, 67, 0
2, 43520, Note_on_c, 0, 70, 92
2, 43550, Note_on_c, 0, 70, 0
2, 43552, Note_on_c, 0, 75, 92
2, 43582, Note_on_c, 0, 75, 0
2, 43680, Note_on_c, 0, 79, 92
2, 43710, Note_on_c, 0, 79, 0
2, 43712, Note_on_c, 0, 82, 92
2, 43742, Note_on_c, 0, 82, 0
2, 43744, Note_on_c, 0, 87, 92
2, 43765, Note_on_c, 0, 87, 0
2, 43872, Note_on_c, 0, 87, 108
2, 43902, Note_on_c, 0, 87, 0
2, 43904, Note_on_c, 0, 86, 108
2, 43934, Note_on_c, 0, 86, 0
2, 43936, Note_on_c, 0, 84, 108
2, 43966, Note_on_c, 0, 84, 0
2, 43968, Note_on_c, 0, 82, 108
2, 43998, Note_on_c, 0, 82, 0
2, 44000, Note_on_c, 0, 80, 108
2, 44030, Note_on_c, 0, 80, 0
2, 44032, Note_on_c, 0, 79, 108
2, 44062, Note_on_c, 0, 79, 0
2, 44064, Note_on_c, 0, 77, 108
2, 44094, Note_on_c, 0, 77, 0
2, 44096, Note_on_c, 0, 75, 108
2, 44126, Note_on_c, 0, 75, 0
2, 44128, Note_on_c, 0, 74, 108
2, 44158, Note_on_c, 0, 74, 0
2, 44160, Note_on_c, 0, 72, 108
2, 44192, Note_on_c, 0, 72, 0
2, 44256, Note_on_c, 0, 84, 108
2, 44286, Note_on_c, 0, 84, 0
2, 44288, Note_on_c, 0, 82, 108
2, 44318, Note_on_c, 0, 82, 0
2, 44320, Note_on_c, 0, 80, 108
2, 44350, Note_on_c, 0, 80, 0
2, 44352, Note_on_c, 0, 79, 108
2, 44382, Note_on_c, 0, 79, 0
2, 44384, Note_on_c, 0, 77, 108
2, 44414, Note_on_c, 0, 77, 0
2, 44416, Note_on_c, 0, 75, 108
2, 44446, Note_on_c, 0, 75, 0
2, 44448, Note_on_c, 0, 74, 108
2, 44478, Note_on_c, 0, 74, 0
2, 44480, Note_on_c, 0, 75, 108
2, 44510, Note_on_c, 0, 75, 0
2, 44512, Note_on_c, 0, 72, 108
2, 44542, Note_on_c, 0, 72, 0
2, 44544, Note_on_c, 0, 70, 108
2, 44576, Note_on_c, 0, 70, 0
2, 44640, Note_on_c, 0, 70, 108
2, 44640, Note_on_c, 0, 75, 108
2, 44640, Note_on_c, 0, 79, 108
2, 44640, Note_on_c, 0, 82, 108
2, 44672, Note_on_c, 0, 70, 0
2, 44672, Note_on_c, 0, 75, 0
2, 44672, Note_on_c, 0, 79, 0
2, 44672, Note_on_c, 0, 82, 0
2, 44832, Note_on_c, 0, 65, 108
2, 44832, Note_on_c, 0, 68, 108
2, 44832, Note_on_c, 0, 70, 108
2, 44832, Note_on_c, 0, 74, 108
2, 44864, Note_on_c, 0, 65, 0
2, 44864, Note_on_c, 0, 68, 0
2, 44864, Note_on_c, 0, 70, 0
2, 44864, Note_on_c, 0, 74, 0
2, 44928, Note_on_c, 0, 67, 60
2, 44928, Note_on_c, 0, 70, 60
2, 44928, Note_on_c, 0, 75, 60
2, 45088, Note_on_c, 0, 67, 0
2, 45088, Note_on_c, 0, 70, 0
2, 45088, Note_on_c, 0, 75, 0
2, 45408, Note_on_c, 0, 79, 60
2, 45440, Note_on_c, 0, 79, 0
2, 45504, Note_on_c, 0, 79, 60
2, 45536, Note_on_c, 0, 79, 0
2, 45600, Note_on_c, 0, 79, 60
2, 45632, Note_on_c, 0, 79, 0
2, 45696, Note_on_c, 0, 82, 60
2, 45838, Note_on_c, 0, 82, 0
2, 45840, Note_on_c, 0, 80, 60
2, 45886, Note_on_c, 0, 80, 0
2, 45888, Note_on_c, 0, 77, 60
2, 45936, Note_on_c, 0, 77, 0
2, 46176, Note_on_c, 0, 70, 60
2, 46208, Note_on_c, 0, 70, 0
2, 46272, Note_on_c, 0, 70, 60
2, 46304, Note_on_c, 0, 70, 0
2, 46368, Note_on_c, 0, 70, 60
2, 46400, Note_on_c, 0, 70, 0
2, 46464, Note_on_c, 0, 70, 60
2, 46488, Note_on_c, 0, 70, 0
2, 46488, Note_on_c, 0, 77, 60
2, 46654, Note_on_c, 0, 77, 0
2, 46656, Note_on_c, 0, 75, 60
2, 46688, Note_on_c, 0, 75, 0
2, 46896, Note_on_c, 0, 79, 60
2, 46942, Note_on_c, 0, 79, 0
2, 46944, Note_on_c, 0, 78, 60
2, 46990, Note_on_c, 0, 78, 0
2, 46992, Note_on_c, 0, 79, 60
2, 47038, Note_on_c, 0, 79, 0
2, 47040, Note_on_c, 0, 78, 60
2, 47086, Note_on_c, 0, 78, 0
2, 47088, Note_on_c, 0, 79, 60
2, 47134, Note_on_c, 0, 79, 0
2, 47136, Note_on_c, 0, 80, 60
2, 47182, Note_on_c, 0, 80, 0
2, 47184, Note_on_c, 0, 79, 60
2, 47230, Note_on_c, 0, 79, 0
2, 47232, Note_on_c, 0, 82, 60
2, 47374, Note_on_c, 0, 82, 0
2, 47376, Note_on_c, 0, 80, 60
2, 47422, Note_on_c, 0, 80, 0
2, 47424, Note_on_c, 0, 77, 60
2, 47472, Note_on_c, 0, 77, 0
2, 47664, Note_on_c, 0, 70, 60
2, 47710, Note_on_c, 0, 70, 0
2, 47712, Note_on_c, 0, 69, 60
2, 47758, Note_on_c, 0, 69, 0
2, 47760, Note_on_c, 0, 70, 60
2, 47806, Note_on_c, 0, 70, 0
2, 47808, Note_on_c, 0, 69, 60
2, 47854, Note_on_c, 0, 69, 0
2, 47856, Note_on_c, 0, 70, 60
2, 47902, Note_on_c, 0, 70, 0
2, 47904, Note_on_c, 0, 69, 60
2, 47950, Note_on_c, 0, 69, 0
2, 47952, Note_on_c, 0, 70, 60
2, 47998, Note_on_c, 0, 70, 0
2, 48000, Note_on_c, 0, 70, 60
2, 48024, Note_on_c, 0, 70, 0
2, 48024, Note_on_c, 0, 77, 60
2, 48190, Note_on_c, 0, 77, 0
2, 48192, Note_on_c, 0, 76, 60
2, 48224, Note_on_c, 0, 76, 0
2, 48432, Note_on_c, 0, 72, 60
2, 48478, Note_on_c, 0, 72, 0
2, 48480, Note_on_c, 0, 71, 60
2, 48526, Note_on_c, 0, 71, 0
2, 48528, Note_on_c, 0, 72, 60
2, 48574, Note_on_c, 0, 72, 0
2, 48576, Note_on_c, 0, 71, 60
2, 48622, Note_on_c, 0, 71, 0
2, 48624, Note_on_c, 0, 72, 60
2, 48670, Note_on_c, 0, 72, 0
2, 48672, Note_on_c, 0, 71, 60
2, 48718, Note_on_c, 0, 71, 0
2, 48720, Note_on_c, 0, 72, 60
2, 48766, Note_on_c, 0, 72, 0
2, 48768, Note_on_c, 0, 72, 60
2, 48792, Note_on_c, 0, 72, 0
2, 48792, Note_on_c, 0, 79, 60
2, 48958, Note_on_c, 0, 79, 0
2, 48960, Note_on_c, 0, 78, 60
2, 48992, Note_on_c, 0, 78, 0
2, 49200, Note_on_c, 0, 74, 60
2, 49246, Note_on_c, 0, 74, 0
2, 49248, Note_on_c, 0, 73, 60
2, 49294, Note_on_c, 0, 73, 0
2, 49296, Note_on_c, 0, 74, 60
2, 49342, Note_on_c, 0, 74, 0
2, 49344, Note_on_c, 0, 73, 60
2, 49390, Note_on_c, 0, 73, 0
2, 49392, Note_on_c, 0, 74, 60
2, 49438, Note_on_c, 0, 74, 0
2, 49440, Note_on_c, 0, 73, 60
2, 49486, Note_on_c, 0, 73, 0
2, 49488, Note_on_c, 0, 74, 60
2, 49534, Note_on_c, 0, 74, 0
2, 49536, Note_on_c, 0, 81, 60
2, 49630, Note_on_c, 0, 81, 0
2, 49632, Note_on_c, 0, 79, 64
2, 49792, Note_on_c, 0, 79, 0
2, 49824, Note_on_c, 0, 81, 72
2, 49870, Note_on_c, 0, 81, 0
2, 49872, Note_on_c, 0, 83, 74
2, 49918, Note_on_c, 0, 83, 0
2, 49920, Note_on_c, 0, 84, 76
2, 49966, Note_on_c, 0, 84, 0
2, 49968, Note_on_c, 0, 86, 78
2, 50014, Note_on_c, 0, 86, 0
2, 50016, Note_on_c, 0, 87, 80
2, 50062, Note_on_c, 0, 87, 0
2, 50064, Note_on_c, 0, 86, 82
2, 50110, Note_on_c, 0, 86, 0
2, 50112, Note_on_c, 0, 89, 84
2, 50158, Note_on_c, 0, 89, 0
2, 50160, Note_on_c, 0, 87, 86
2, 50206, Note_on_c, 0, 87, 0
2, 50208, Note_on_c, 0, 86, 88
2, 50254, Note_on_c, 0, 86, 0
2, 50256, Note_on_c, 0, 84, 90
2, 50302, Note_on_c, 0, 84, 0
2, 50304, Note_on_c, 0, 83, 92
2, 50334, Note_on_c, 0, 83, 0
2, 50336, Note_on_c, 0, 86, 92
2, 50366, Note_on_c, 0, 86, 0
2, 50368, Note_on_c, 0, 84, 92
2, 50398, Note_on_c, 0, 84, 0
2, 50400, Note_on_c, 0, 83, 92
2, 50430, Note_on_c, 0, 83, 0
2, 50432, Note_on_c, 0, 81, 92
2, 50462, Note_on_c, 0, 81, 0
2, 50464, Note_on_c, 0, 79, 92
2, 50494, Note_on_c, 0, 79, 0
2, 50496, Note_on_c, 0, 77, 92
2, 50526, Note_on_c, 0, 77, 0
2, 50528, Note_on_c, 0, 80, 92
2, 50558, Note_on_c, 0, 80, 0
2, 50560, Note_on_c, 0, 79, 92
2, 50590, Note_on_c, 0, 79, 0
2, 50592, Note_on_c, 0, 77, 92
2, 50622, Note_on_c, 0, 77, 0
2, 50624, Note_on_c, 0, 75, 92
2, 50654, Note_on_c, 0, 75, 0
2, 50656, Note_on_c, 0, 74, 92
2, 50686, Note_on_c, 0, 74, 0
2, 50688, Note_on_c, 0, 63, 92
2, 50688, Note_on_c, 0, 75, 92
2, 50720, Note_on_c, 0, 63, 0
2, 50720, Note_on_c, 0, 75, 0
2, 50784, Note_on_c, 0, 63, 92
2, 50784, Note_on_c, 0, 75, 92
2, 50944, Note_on_c, 0, 75, 0
2, 50976, Note_on_c, 0, 74, 92
2, 51022, Note_on_c, 0, 74, 0
2, 51024, Note_on_c, 0, 72, 92
2, 51040, Note_on_c, 0, 63, 0
2, 51056, Note_on_c, 0, 72, 0
2, 51168, Note_on_c, 0, 62, 92
2, 51198, Note_on_c, 0, 62, 0
2, 51200, Note_on_c, 0, 65, 92
2, 51230, Note_on_c, 0, 65, 0
2, 51232, Note_on_c, 0, 71, 92
2, 51262, Note_on_c, 0, 71, 0
2, 51360, Note_on_c, 0, 71, 92
2, 51390, Note_on_c, 0, 71, 0
2, 51392, Note_on_c, 0, 74, 92
2, 51422, Note_on_c, 0, 74, 0
2, 51424, Note_on_c, 0, 77, 92
2, 51445, Note_on_c, 0, 77, 0
2, 51456, Note_on_c, 0, 65, 92
2, 51456, Note_on_c, 0, 77, 92
2, 51488, Note_on_c, 0, 65, 0
2, 51488, Note_on_c, 0, 77, 0
2, 51552, Note_on_c, 0, 65, 92
2, 51552, Note_on_c, 0, 77, 92
2, 51712, Note_on_c, 0, 77, 0
2, 51744, Note_on_c, 0, 75, 92
2, 51790, Note_on_c, 0, 75, 0
2, 51792, Note_on_c, 0, 74, 92
2, 51808, Note_on_c, 0, 65, 0
2, 51824, Note_on_c, 0, 74, 0
2, 51936, Note_on_c, 0, 63, 92
2, 51966, Note_on_c, 0, 63, 0
2, 51968, Note_on_c, 0, 67, 92
2, 51998, Note_on_c, 0, 67, 0
2, 52000, Note_on_c, 0, 72, 92
2, 52030, Note_on_c, 0, 72, 0
2, 52128, Note_on_c, 0, 75, 92
2, 52158, Note_on_c, 0, 75, 0
2, 52160, Note_on_c, 0, 79, 92
2, 52190, Note_on_c, 0, 79, 0
2, 52192, Note_on_c, 0, 84, 92
2, 52213, Note_on_c, 0, 84, 0
2, 52224, Note_on_c, 0, 73, 92
2, 52224, Note_on_c, 0, 85, 92
2, 52256, Note_on_c, 0, 73, 0
2, 52256, Note_on_c, 0, 85, 0
2, 52320, Note_on_c, 0, 73, 127
2, 52320, Note_on_c, 0, 85, 127
2, 52512, Note_on_c, 0, 73, 0
2, 52512, Note_on_c, 0, 85, 0
2, 52512, Note_on_c, 0, 84, 92
2, 52558, Note_on_c, 0, 84, 0
2, 52560, Note_on_c, 0, 82, 92
2, 52606, Note_on_c, 0, 82, 0
2, 52704, Note_on_c, 0, 80, 92
2, 52752, Note_on_c, 0, 80, 0
2, 52752, Note_on_c, 0, 84, 92
2, 52784, Note_on_c, 0, 84, 0
2, 52896, Note_on_c, 0, 74, 92
2, 52944, Note_on_c, 0, 74, 0
2, 52944, Note_on_c, 0, 77, 92
2, 52976, Note_on_c, 0, 77, 0
2, 53088, Note_on_c, 0, 75, 92
2, 53136, Note_on_c, 0, 75, 0
2, 53136, Note_on_c, 0, 79, 92
2, 53168, Note_on_c, 0, 79, 0
2, 53280, Note_on_c, 0, 71, 92
2, 53328, Note_on_c, 0, 71, 0
2, 53328, Note_on_c, 0, 74, 92
2, 53360, Note_on_c, 0, 74, 0
2, 53424, Note_on_c, 0, 72, 92
2, 53470, Note_on_c, 0, 72, 0
2, 53472, Note_on_c, 0, 71, 92
2, 53518, Note_on_c, 0, 71, 0
2, 53520, Note_on_c, 0, 72, 92
2, 53566, Note_on_c, 0, 72, 0
2, 53568, Note_on_c, 0, 71, 92
2, 53614, Note_on_c, 0, 71, 0
2, 53616, Note_on_c, 0, 72, 92
2, 53662, Note_on_c, 0, 72, 0
2, 53664, Note_on_c, 0, 71, 92
2, 53710, Note_on_c, 0, 71, 0
2, 53712, Note_on_c, 0, 72, 92
2, 53744, Note_on_c, 0, 72, 0
2, 53760, Note_on_c, 0, 61, 92
2, 53760, Note_on_c, 0, 73, 92
2, 53792, Note_on_c, 0, 61, 0
2, 53792, Note_on_c, 0, 73, 0
2, 53856, Note_on_c, 0, 61, 127
2, 53856, Note_on_c, 0, 73, 127
2, 54016, Note_on_c, 0, 61, 0
2, 54016, Note_on_c, 0, 73, 0
2, 54048, Note_on_c, 0, 72, 92
2, 54094, Note_on_c, 0, 72, 0
2, 54096, Note_on_c, 0, 70, 92
2, 54128, Note_on_c, 0, 70, 0
2, 54192, Note_on_c, 0, 68, 92
2, 54238, Note_on_c, 0, 68, 0
2, 54240, Note_on_c, 0, 70, 92
2, 54286, Note_on_c, 0, 70, 0
2, 54288, Note_on_c, 0, 71, 92
2, 54334, Note_on_c, 0, 71, 0
2, 54336, Note_on_c, 0, 72, 92
2, 54382, Note_on_c, 0, 72, 0
2, 54384, Note_on_c, 0, 62, 92
2, 54430, Note_on_c, 0, 62, 0
2, 54432, Note_on_c, 0, 65, 92
2, 54478, Note_on_c, 0, 65, 0
2, 54480, Note_on_c, 0, 68, 92
2, 54526, Note_on_c, 0, 68, 0
2, 54576, Note_on_c, 0, 63, 90
2, 54622, Note_on_c, 0, 63, 0
2, 54624, Note_on_c, 0, 67, 88
2, 54670, Note_on_c, 0, 67, 0
2, 54672, Note_on_c, 0, 60, 86
2, 54718, Note_on_c, 0, 60, 0
2, 54768, Note_on_c, 0, 62, 82
2, 54814, Note_on_c, 0, 62, 0
2, 54816, Note_on_c, 0, 65, 80
2, 54862, Note_on_c, 0, 65, 0
2, 54864, Note_on_c, 0, 59, 78
2, 54910, Note_on_c, 0, 59, 0
2, 54976, Note_on_c, 0, 60, 75
2, 55018, Note_on_c, 0, 60, 0
2, 55040, Note_on_c, 0, 61, 75
2, 55082, Note_on_c, 0, 61, 0
2, 55104, Note_on_c, 0, 62, 75
2, 55146, Note_on_c, 0, 62, 0
2, 55168, Note_on_c, 0, 63, 75
2, 55210, Note_on_c, 0, 63, 0
2, 55232, Note_on_c, 0, 64, 75
2, 55274, Note_on_c, 0, 64, 0
2, 55296, Note_on_c, 0, 65, 75
2, 55338, Note_on_c, 0, 65, 0
2, 55360, Note_on_c, 0, 66, 75
2, 55402, Note_on_c, 0, 66, 0
2, 55424, Note_on_c, 0, 67, 75
2, 55466, Note_on_c, 0, 67, 0
2, 55488, Note_on_c, 0, 68, 75
2, 55530, Note_on_c, 0, 68, 0
2, 55552, Note_on_c, 0, 69, 75
2, 55594, Note_on_c, 0, 69, 0
2, 55616, Note_on_c, 0, 70, 75
2, 55658, Note_on_c, 0, 70, 0
2, 55680, Note_on_c, 0, 71, 75
2, 55742, Note_on_c, 0, 71, 0
2, 55744, Note_on_c, 0, 72, 75
2, 55786, Note_on_c, 0, 72, 0
2, 55808, Note_on_c, 0, 72, 75
2, 55850, Note_on_c, 0, 72, 0
2, 55872, Note_on_c, 0, 72, 75
2, 55914, Note_on_c, 0, 72, 0
2, 55936, Note_on_c, 0, 72, 75
2, 55978, Note_on_c, 0, 72, 0
2, 56000, Note_on_c, 0, 72, 75
2, 56042, Note_on_c, 0, 72, 0
2, 56064, Note_on_c, 0, 72, 75
2, 56106, Note_on_c, 0, 72, 0
2, 56128, Note_on_c, 0, 72, 75
2, 56170, Note_on_c, 0, 72, 0
2, 56192, Note_on_c, 0, 72, 75
2, 56234, Note_on_c, 0, 72, 0
2, 56256, Note_on_c, 0, 71, 75
2, 56320, Note_on_c, 0, 71, 0
2, 56320, Note_on_c, 0, 72, 75
2, 56362, Note_on_c, 0, 72, 0
2, 56384, Note_on_c, 0, 72, 75
2, 56426, Note_on_c, 0, 72, 0
2, 56448, Note_on_c, 0, 72, 75
2, 56512, Note_on_c, 0, 72, 0
2, 56512, Note_on_c, 0, 73, 75
2, 56554, Note_on_c, 0, 73, 0
2, 56576, Note_on_c, 0, 73, 75
2, 56618, Note_on_c, 0, 73, 0
2, 56640, Note_on_c, 0, 73, 75
2, 56682, Note_on_c, 0, 73, 0
2, 56704, Note_on_c, 0, 73, 75
2, 56746, Note_on_c, 0, 73, 0
2, 56768, Note_on_c, 0, 73, 75
2, 56810, Note_on_c, 0, 73, 0
2, 56832, Note_on_c, 0, 73, 75
2, 56874, Note_on_c, 0, 73, 0
2, 56896, Note_on_c, 0, 74, 75
2, 56938, Note_on_c, 0, 74, 0
2, 56960, Note_on_c, 0, 74, 75
2, 57002, Note_on_c, 0, 74, 0
2, 57024, Note_on_c, 0, 74, 75
2, 57066, Note_on_c, 0, 74, 0
2, 57088, Note_on_c, 0, 74, 75
2, 57130, Note_on_c, 0, 74, 0
2, 57152, Note_on_c, 0, 74, 75
2, 57194, Note_on_c, 0, 74, 0
2, 57216, Note_on_c, 0, 74, 75
2, 57262, Note_on_c, 0, 74, 0
2, 57264, Note_on_c, 0, 75, 75
2, 57310, Note_on_c, 0, 75, 0
2, 57312, Note_on_c, 0, 77, 75
2, 57358, Note_on_c, 0, 77, 0
2, 57360, Note_on_c, 0, 75, 75
2, 57406, Note_on_c, 0, 75, 0
2, 57408, Note_on_c, 0, 73, 75
2, 57454, Note_on_c, 0, 73, 0
2, 57456, Note_on_c, 0, 72, 75
2, 57502, Note_on_c, 0, 72, 0
2, 57504, Note_on_c, 0, 75, 75
2, 57534, Note_on_c, 0, 75, 0
2, 57536, Note_on_c, 0, 73, 75
2, 57566, Note_on_c, 0, 73, 0
2, 57568, Note_on_c, 0, 70, 75
2, 57598, Note_on_c, 0, 70, 0
2, 57600, Note_on_c, 0, 68, 60
2, 57648, Note_on_c, 0, 68, 0
2, 57792, Note_on_c, 0, 68, 60
2, 57840, Note_on_c, 0, 68, 0
2, 57984, Note_on_c, 0, 68, 60
2, 58080, Note_on_c, 0, 68, 0
2, 58080, Note_on_c, 0, 67, 60
2, 58176, Note_on_c, 0, 67, 0
2, 58176, Note_on_c, 0, 65, 60
2, 58272, Note_on_c, 0, 65, 0
2, 58272, Note_on_c, 0, 67, 60
2, 58368, Note_on_c, 0, 67, 0
2, 58368, Note_on_c, 0, 68, 60
2, 58416, Note_on_c, 0, 68, 60
2, 58464, Note_on_c, 0, 68, 0
2, 58464, Note_on_c, 0, 68, 60
2, 58512, Note_on_c, 0, 68, 0
2, 58512, Note_on_c, 0, 68, 60
2, 58528, Note_on_c, 0, 68, 0
2, 58560, Note_on_c, 0, 68, 0
2, 58560, Note_on_c, 0, 68, 60
2, 58704, Note_on_c, 0, 68, 0
2, 58704, Note_on_c, 0, 72, 60
2, 58750, Note_on_c, 0, 72, 0
2, 58752, Note_on_c, 0, 75, 60
2, 59136, Note_on_c, 0, 75, 0
2, 59136, Note_on_c, 0, 73, 60
2, 59204, Note_on_c, 0, 73, 0
2, 59232, Note_on_c, 0, 89, 60
2, 59424, Note_on_c, 0, 89, 0
2, 59424, Note_on_c, 0, 87, 60
2, 59472, Note_on_c, 0, 87, 0
2, 59472, Note_on_c, 0, 85, 60
2, 59520, Note_on_c, 0, 85, 0
2, 59520, Note_on_c, 0, 84, 60
2, 59552, Note_on_c, 0, 84, 0
2, 59616, Note_on_c, 0, 87, 60
2, 59776, Note_on_c, 0, 87, 0
2, 59808, Note_on_c, 0, 85, 60
2, 59854, Note_on_c, 0, 85, 0
2, 59856, Note_on_c, 0, 84, 60
2, 59902, Note_on_c, 0, 84, 0
2, 59904, Note_on_c, 0, 82, 60
2, 59950, Note_on_c, 0, 82, 0
2, 59952, Note_on_c, 0, 84, 60
2, 59998, Note_on_c, 0, 84, 0
2, 60000, Note_on_c, 0, 85, 60
2, 60046, Note_on_c, 0, 85, 0
2, 60048, Note_on_c, 0, 84, 60
2, 60094, Note_on_c, 0, 84, 0
2, 60096, Note_on_c, 0, 87, 60
2, 60142, Note_on_c, 0, 87, 0
2, 60144, Note_on_c, 0, 85, 60
2, 60190, Note_on_c, 0, 85, 0
2, 60192, Note_on_c, 0, 84, 60
2, 60238, Note_on_c, 0, 84, 0
2, 60240, Note_on_c, 0, 82, 60
2, 60286, Note_on_c, 0, 82, 0
2, 60288, Note_on_c, 0, 80, 60
2, 60448, Note_on_c, 0, 80, 0
2, 60480, Note_on_c, 0, 79, 60
2, 60574, Note_on_c, 0, 79, 0
2, 60576, Note_on_c, 0, 63, 60
2, 60608, Note_on_c, 0, 63, 0
2, 60672, Note_on_c, 0, 63, 60
2, 60736, Note_on_c, 0, 63, 0
2, 60736, Note_on_c, 0, 68, 60
2, 60778, Note_on_c, 0, 68, 0
2, 60800, Note_on_c, 0, 68, 60
2, 60842, Note_on_c, 0, 68, 0
2, 60864, Note_on_c, 0, 68, 60
2, 60906, Note_on_c, 0, 68, 0
2, 60928, Note_on_c, 0, 68, 60
2, 60970, Note_on_c, 0, 68, 0
2, 60992, Note_on_c, 0, 68, 60
2, 61034, Note_on_c, 0, 68, 0
2, 61056, Note_on_c, 0, 68, 60
2, 61120, Note_on_c, 0, 68, 0
2, 61120, Note_on_c, 0, 67, 60
2, 61182, Note_on_c, 0, 67, 0
2, 61184, Note_on_c, 0, 65, 60
2, 61226, Note_on_c, 0, 65, 0
2, 61248, Note_on_c, 0, 63, 60
2, 61290, Note_on_c, 0, 63, 0
2, 61312, Note_on_c, 0, 65, 60
2, 61354, Note_on_c, 0, 65, 0
2, 61376, Note_on_c, 0, 67, 60
2, 61418, Note_on_c, 0, 67, 0
2, 61440, Note_on_c, 0, 68, 60
2, 61502, Note_on_c, 0, 68, 0
2, 61504, Note_on_c, 0, 70, 60
2, 61566, Note_on_c, 0, 70, 0
2, 61568, Note_on_c, 0, 71, 60
2, 61630, Note_on_c, 0, 71, 0
2, 61632, Note_on_c, 0, 72, 60
2, 61674, Note_on_c, 0, 72, 0
2, 61696, Note_on_c, 0, 73, 60
2, 61738, Note_on_c, 0, 73, 0
2, 61760, Note_on_c, 0, 74, 60
2, 61802, Note_on_c, 0, 74, 0
2, 61824, Note_on_c, 0, 77, 60
2, 61856, Note_on_c, 0, 77, 0
2, 61920, Note_on_c, 0, 75, 92
2, 62080, Note_on_c, 0, 75, 0
2, 62112, Note_on_c, 0, 75, 60
2, 62208, Note_on_c, 0, 75, 0
2, 62208, Note_on_c, 0, 73, 60
2, 62240, Note_on_c, 0, 73, 0
2, 62304, Note_on_c, 0, 89, 60
2, 62464, Note_on_c, 0, 89, 0
2, 62496, Note_on_c, 0, 87, 60
2, 62542, Note_on_c, 0, 87, 0
2, 62544, Note_on_c, 0, 85, 60
2, 62590, Note_on_c, 0, 85, 0
2, 62592, Note_on_c, 0, 84, 60
2, 62640, Note_on_c, 0, 86, 60
2, 62686, Note_on_c, 0, 86, 0
2, 62688, Note_on_c, 0, 87, 60
2, 62734, Note_on_c, 0, 87, 0
2, 62736, Note_on_c, 0, 86, 60
2, 62782, Note_on_c, 0, 86, 0
2, 62784, Note_on_c, 0, 87, 60
2, 62830, Note_on_c, 0, 87, 0
2, 62832, Note_on_c, 0, 86, 60
2, 62878, Note_on_c, 0, 86, 0
2, 62880, Note_on_c, 0, 87, 60
2, 62926, Note_on_c, 0, 87, 0
2, 62928, Note_on_c, 0, 84, 0
2, 62928, Note_on_c, 0, 86, 60
2, 62974, Note_on_c, 0, 86, 0
2, 62976, Note_on_c, 0, 89, 60
2, 63072, Note_on_c, 0, 89, 0
2, 63072, Note_on_c, 0, 87, 60
2, 63168, Note_on_c, 0, 87, 0
2, 63168, Note_on_c, 0, 86, 60
2, 63264, Note_on_c, 0, 86, 0
2, 63264, Note_on_c, 0, 84, 60
2, 63360, Note_on_c, 0, 84, 0
2, 63360, Note_on_c, 0, 83, 60
2, 63520, Note_on_c, 0, 83, 0
2, 63840, Note_on_c, 0, 79, 60
2, 63872, Note_on_c, 0, 79, 0
2, 63936, Note_on_c, 0, 79, 60
2, 63968, Note_on_c, 0, 79, 0
2, 64032, Note_on_c, 0, 79, 60
2, 64064, Note_on_c, 0, 79, 0
2, 64128, Note_on_c, 0, 79, 60
2, 64270, Note_on_c, 0, 79, 0
2, 64272, Note_on_c, 0, 75, 60
2, 64318, Note_on_c, 0, 75, 0
2, 64320, Note_on_c, 0, 72, 60
2, 64480, Note_on_c, 0, 72, 0
2, 64608, Note_on_c, 0, 87, 60
2, 64702, Note_on_c, 0, 87, 0
2, 64704, Note_on_c, 0, 86, 60
2, 64798, Note_on_c, 0, 86, 0
2, 64800, Note_on_c, 0, 84, 60
2, 64894, Note_on_c, 0, 84, 0
2, 64896, Note_on_c, 0, 83, 60
2, 65038, Note_on_c, 0, 83, 0
2, 65040, Note_on_c, 0, 84, 60
2, 65086, Note_on_c, 0, 84, 0
2, 65088, Note_on_c, 0, 86, 60
2, 65248, Note_on_c, 0, 86, 0
2, 65328, Note_on_c, 0, 79, 60
2, 65376, Note_on_c, 0, 79, 0
2, 65376, Note_on_c, 0, 78, 60
2, 65424, Note_on_c, 0, 78, 0
2, 65424, Note_on_c, 0, 79, 60
2, 65472, Note_on_c, 0, 79, 0
2, 65472, Note_on_c, 0, 80, 60
2, 65520, Note_on_c, 0, 80, 0
2, 65520, Note_on_c, 0, 79, 60
2, 65568, Note_on_c, 0, 79, 0
2, 65568, Note_on_c, 0, 77, 60
2, 65616, Note_on_c, 0, 77, 0
2, 65616, Note_on_c, 0, 74, 60
2, 65664, Note_on_c, 0, 74, 0
2, 65664, Note_on_c, 0, 75, 60
2, 65712, Note_on_c, 0, 75, 0
2, 65712, Note_on_c, 0, 77, 60
2, 65760, Note_on_c, 0, 77, 0
2, 65760, Note_on_c, 0, 78, 60
2, 65808, Note_on_c, 0, 78, 0
2, 65808, Note_on_c, 0, 79, 60
2, 65856, Note_on_c, 0, 79, 0
2, 65856, Note_on_c, 0, 72, 60
2, 65904, Note_on_c, 0, 72, 0
2, 66144, Note_on_c, 0, 75, 60
2, 66192, Note_on_c, 0, 75, 0
2, 66192, Note_on_c, 0, 74, 60
2, 66240, Note_on_c, 0, 74, 0
2, 66240, Note_on_c, 0, 77, 60
2, 66288, Note_on_c, 0, 77, 0
2, 66288, Note_on_c, 0, 75, 60
2, 66336, Note_on_c, 0, 75, 0
2, 66336, Note_on_c, 0, 74, 60
2, 66384, Note_on_c, 0, 74, 0
2, 66384, Note_on_c, 0, 72, 60
2, 66432, Note_on_c, 0, 72, 0
2, 66432, Note_on_c, 0, 71, 60
2, 66576, Note_on_c, 0, 71, 0
2, 66576, Note_on_c, 0, 72, 60
2, 66624, Note_on_c, 0, 72, 0
2, 66624, Note_on_c, 0, 74, 60
2, 66672, Note_on_c, 0, 74, 0
2, 66912, Note_on_c, 0, 63, 60
2, 66960, Note_on_c, 0, 63, 0
2, 66960, Note_on_c, 0, 62, 60
2, 67008, Note_on_c, 0, 62, 0
2, 67008, Note_on_c, 0, 65, 60
2, 67056, Note_on_c, 0, 65, 0
2, 67056, Note_on_c, 0, 63, 60
2, 67104, Note_on_c, 0, 63, 0
2, 67104, Note_on_c, 0, 62, 60
2, 67152, Note_on_c, 0, 62, 0
2, 67152, Note_on_c, 0, 60, 60
2, 67198, Note_on_c, 0, 60, 0
2, 67488, Note_on_c, 0, 62, 72
2, 67518, Note_on_c, 0, 62, 0
2, 67520, Note_on_c, 0, 63, 73
2, 67550, Note_on_c, 0, 63, 0
2, 67552, Note_on_c, 0, 64, 74
2, 67582, Note_on_c, 0, 64, 0
2, 67584, Note_on_c, 0, 65, 75
2, 67614, Note_on_c, 0, 65, 0
2, 67616, Note_on_c, 0, 66, 76
2, 67646, Note_on_c, 0, 66, 0
2, 67648, Note_on_c, 0, 67, 77
2, 67678, Note_on_c, 0, 67, 0
2, 67680, Note_on_c, 0, 68, 78
2, 67710, Note_on_c, 0, 68, 0
2, 67712, Note_on_c, 0, 69, 79
2, 67742, Note_on_c, 0, 69, 0
2, 67744, Note_on_c, 0, 70, 80
2, 67774, Note_on_c, 0, 70, 0
2, 67776, Note_on_c, 0, 71, 81
2, 67806, Note_on_c, 0, 71, 0
2, 67808, Note_on_c, 0, 72, 82
2, 67838, Note_on_c, 0, 72, 0
2, 67840, Note_on_c, 0, 73, 83
2, 67870, Note_on_c, 0, 73, 0
2, 67872, Note_on_c, 0, 74, 84
2, 67902, Note_on_c, 0, 74, 0
2, 67904, Note_on_c, 0, 75, 85
2, 67934, Note_on_c, 0, 75, 0
2, 67936, Note_on_c, 0, 76, 86
2, 67966, Note_on_c, 0, 76, 0
2, 67968, Note_on_c, 0, 77, 87
2, 67998, Note_on_c, 0, 77, 0
2, 68000, Note_on_c, 0, 78, 88
2, 68030, Note_on_c, 0, 78, 0
2, 68032, Note_on_c, 0, 79, 89
2, 68062, Note_on_c, 0, 79, 0
2, 68064, Note_on_c, 0, 80, 90
2, 68094, Note_on_c, 0, 80, 0
2, 68096, Note_on_c, 0, 81, 92
2, 68126, Note_on_c, 0, 81, 0
2, 68128, Note_on_c, 0, 82, 94
2, 68158, Note_on_c, 0, 82, 0
2, 68160, Note_on_c, 0, 83, 96
2, 68190, Note_on_c, 0, 83, 0
2, 68192, Note_on_c, 0, 84, 98
2, 68222, Note_on_c, 0, 84, 0
2, 68224, Note_on_c, 0, 85, 100
2, 68254, Note_on_c, 0, 85, 0
2, 68256, Note_on_c, 0, 86, 102
2, 68286, Note_on_c, 0, 86, 0
2, 68288, Note_on_c, 0, 87, 104
2, 68318, Note_on_c, 0, 87, 0
2, 68320, Note_on_c, 0, 88, 106
2, 68350, Note_on_c, 0, 88, 0
2, 68352, Note_on_c, 0, 90, 108
2, 68394, Note_on_c, 0, 90, 0
2, 68416, Note_on_c, 0, 88, 108
2, 68458, Note_on_c, 0, 88, 0
2, 68480, Note_on_c, 0, 87, 108
2, 68522, Note_on_c, 0, 87, 0
2, 68544, Note_on_c, 0, 86, 108
2, 68586, Note_on_c, 0, 86, 0
2, 68608, Note_on_c, 0, 85, 108
2, 68650, Note_on_c, 0, 85, 0
2, 68672, Note_on_c, 0, 84, 108
2, 68714, Note_on_c, 0, 84, 0
2, 68736, Note_on_c, 0, 83, 108
2, 68778, Note_on_c, 0, 83, 0
2, 68800, Note_on_c, 0, 82, 108
2, 68842, Note_on_c, 0, 82, 0
2, 68864, Note_on_c, 0, 81, 108
2, 68906, Note_on_c, 0, 81, 0
2, 68928, Note_on_c, 0, 80, 108
2, 68970, Note_on_c, 0, 80, 0
2, 68992, Note_on_c, 0, 79, 108
2, 69034, Note_on_c, 0, 79, 0
2, 69056, Note_on_c, 0, 78, 108
2, 69098, Note_on_c, 0, 78, 0
2, 69120, Note_on_c, 0, 77, 108
2, 69162, Note_on_c, 0, 77, 0
2, 69184, Note_on_c, 0, 76, 108
2, 69226, Note_on_c, 0, 76, 0
2, 69248, Note_on_c, 0, 75, 108
2, 69290, Note_on_c, 0, 75, 0
2, 69312, Note_on_c, 0, 74, 108
2, 69354, Note_on_c, 0, 74, 0
2, 69376, Note_on_c, 0, 73, 108
2, 69418, Note_on_c, 0, 73, 0
2, 69440, Note_on_c, 0, 72, 108
2, 69482, Note_on_c, 0, 72, 0
2, 69504, Note_on_c, 0, 71, 108
2, 69546, Note_on_c, 0, 71, 0
2, 69568, Note_on_c, 0, 70, 108
2, 69610, Note_on_c, 0, 70, 0
2, 69632, Note_on_c, 0, 69, 108
2, 69674, Note_on_c, 0, 69, 0
2, 69696, Note_on_c, 0, 67, 108
2, 69738, Note_on_c, 0, 67, 0
2, 69760, Note_on_c, 0, 69, 108
2, 69802, Note_on_c, 0, 69, 0
2, 69824, Note_on_c, 0, 71, 108
2, 69866, Note_on_c, 0, 71, 0
2, 69888, Note_on_c, 0, 72, 60
2, 70080, Note_on_c, 0, 72, 0
2, 70080, Note_on_c, 0, 72, 60
2, 70240, Note_on_c, 0, 72, 0
2, 70272, Note_on_c, 0, 72, 60
2, 70368, Note_on_c, 0, 72, 0
2, 70368, Note_on_c, 0, 71, 60
2, 70464, Note_on_c, 0, 71, 0
2, 70464, Note_on_c, 0, 69, 60
2, 70560, Note_on_c, 0, 69, 0
2, 70560, Note_on_c, 0, 71, 60
2, 70656, Note_on_c, 0, 71, 0
2, 70656, Note_on_c, 0, 72, 60
2, 70704, Note_on_c, 0, 72, 60
2, 70752, Note_on_c, 0, 72, 0
2, 70752, Note_on_c, 0, 72, 60
2, 70800, Note_on_c, 0, 72, 0
2, 70800, Note_on_c, 0, 72, 60
2, 70816, Note_on_c, 0, 72, 0
2, 70848, Note_on_c, 0, 72, 0
2, 70848, Note_on_c, 0, 72, 60
2, 70992, Note_on_c, 0, 72, 0
2, 70992, Note_on_c, 0, 76, 60
2, 71040, Note_on_c, 0, 76, 0
2, 71040, Note_on_c, 0, 79, 60
2, 71376, Note_on_c, 0, 79, 0
2, 71424, Note_on_c, 0, 77, 60
2, 71520, Note_on_c, 0, 77, 0
2, 71520, Note_on_c, 0, 81, 60
2, 71712, Note_on_c, 0, 81, 0
2, 71712, Note_on_c, 0, 79, 60
2, 71760, Note_on_c, 0, 79, 0
2, 71760, Note_on_c, 0, 77, 60
2, 71808, Note_on_c, 0, 77, 0
2, 71808, Note_on_c, 0, 76, 60
2, 71904, Note_on_c, 0, 76, 0
2, 71904, Note_on_c, 0, 79, 60
2, 72096, Note_on_c, 0, 79, 0
2, 72096, Note_on_c, 0, 77, 60
2, 72144, Note_on_c, 0, 77, 0
2, 72144, Note_on_c, 0, 76, 60
2, 72192, Note_on_c, 0, 76, 0
2, 72192, Note_on_c, 0, 74, 60
2, 72240, Note_on_c, 0, 74, 0
2, 72240, Note_on_c, 0, 76, 60
2, 72288, Note_on_c, 0, 76, 0
2, 72288, Note_on_c, 0, 77, 60
2, 72336, Note_on_c, 0, 77, 0
2, 72336, Note_on_c, 0, 76, 60
2, 72384, Note_on_c, 0, 76, 0
2, 72384, Note_on_c, 0, 79, 60
2, 72432, Note_on_c, 0, 79, 0
2, 72432, Note_on_c, 0, 77, 60
2, 72480, Note_on_c, 0, 77, 0
2, 72480, Note_on_c, 0, 76, 60
2, 72528, Note_on_c, 0, 76, 0
2, 72528, Note_on_c, 0, 74, 60
2, 72576, Note_on_c, 0, 74, 0
2, 72576, Note_on_c, 0, 72, 60
2, 72768, Note_on_c, 0, 72, 0
2, 72768, Note_on_c, 0, 71, 60
2, 72800, Note_on_c, 0, 71, 0
2, 72864, Note_on_c, 0, 67, 60
2, 72896, Note_on_c, 0, 67, 0
2, 72960, Note_on_c, 0, 67, 60
2, 73024, Note_on_c, 0, 67, 0
2, 73024, Note_on_c, 0, 72, 60
2, 73086, Note_on_c, 0, 72, 0
2, 73088, Note_on_c, 0, 72, 60
2, 73130, Note_on_c, 0, 72, 0
2, 73152, Note_on_c, 0, 72, 60
2, 73194, Note_on_c, 0, 72, 0
2, 73216, Note_on_c, 0, 72, 60
2, 73258, Note_on_c, 0, 72, 0
2, 73280, Note_on_c, 0, 72, 60
2, 73322, Note_on_c, 0, 72, 0
2, 73344, Note_on_c, 0, 72, 60
2, 73408, Note_on_c, 0, 72, 0
2, 73408, Note_on_c, 0, 71, 60
2, 73470, Note_on_c, 0, 71, 0
2, 73472, Note_on_c, 0, 69, 60
2, 73534, Note_on_c, 0, 69, 0
2, 73536, Note_on_c, 0, 67, 60
2, 73578, Note_on_c, 0, 67, 0
2, 73600, Note_on_c, 0, 69, 60
2, 73642, Note_on_c, 0, 69, 0
2, 73664, Note_on_c, 0, 71, 60
2, 73706, Note_on_c, 0, 71, 0
2, 73776, Note_on_c, 0, 72, 60
2, 73808, Note_on_c, 0, 72, 0
2, 73824, Note_on_c, 0, 73, 60
2, 73856, Note_on_c, 0, 73, 0
2, 73872, Note_on_c, 0, 74, 60
2, 73904, Note_on_c, 0, 74, 0
2, 73920, Note_on_c, 0, 75, 60
2, 73952, Note_on_c, 0, 75, 0
2, 73968, Note_on_c, 0, 76, 60
2, 74000, Note_on_c, 0, 76, 0
2, 74016, Note_on_c, 0, 77, 60
2, 74048, Note_on_c, 0, 77, 0
2, 74064, Note_on_c, 0, 78, 60
2, 74096, Note_on_c, 0, 78, 0
2, 74112, Note_on_c, 0, 81, 60
2, 74180, Note_on_c, 0, 81, 0
2, 74208, Note_on_c, 0, 79, 92
2, 74368, Note_on_c, 0, 79, 0
2, 74400, Note_on_c, 0, 79, 45
2, 74494, Note_on_c, 0, 79, 0
2, 74496, Note_on_c, 0, 77, 45
2, 74520, Note_on_c, 0, 79, 45
2, 74542, Note_on_c, 0, 79, 0
2, 74544, Note_on_c, 0, 81, 45
2, 74566, Note_on_c, 0, 81, 0
2, 74568, Note_on_c, 0, 79, 45
2, 74590, Note_on_c, 0, 77, 0
2, 74590, Note_on_c, 0, 79, 0
2, 74592, Note_on_c, 0, 76, 45
2, 74614, Note_on_c, 0, 76, 0
2, 74616, Note_on_c, 0, 77, 45
2, 74638, Note_on_c, 0, 77, 0
2, 74640, Note_on_c, 0, 81, 45
2, 74782, Note_on_c, 0, 81, 0
2, 74784, Note_on_c, 0, 79, 45
2, 74830, Note_on_c, 0, 79, 0
2, 74832, Note_on_c, 0, 77, 45
2, 74878, Note_on_c, 0, 77, 0
2, 74880, Note_on_c, 0, 76, 45
2, 74910, Note_on_c, 0, 76, 0
2, 74912, Note_on_c, 0, 79, 45
2, 74942, Note_on_c, 0, 79, 0
2, 74944, Note_on_c, 0, 83, 45
2, 74974, Note_on_c, 0, 83, 0
2, 74976, Note_on_c, 0, 84, 45
2, 75006, Note_on_c, 0, 84, 0
2, 75008, Note_on_c, 0, 79, 45
2, 75038, Note_on_c, 0, 79, 0
2, 75040, Note_on_c, 0, 76, 45
2, 75070, Note_on_c, 0, 76, 0
2, 75072, Note_on_c, 0, 74, 45
2, 75102, Note_on_c, 0, 74, 0
2, 75104, Note_on_c, 0, 77, 45
2, 75134, Note_on_c, 0, 77, 0
2, 75136, Note_on_c, 0, 80, 45
2, 75166, Note_on_c, 0, 80, 0
2, 75168, Note_on_c, 0, 81, 45
2, 75198, Note_on_c, 0, 81, 0
2, 75200, Note_on_c, 0, 77, 45
2, 75230, Note_on_c, 0, 77, 0
2, 75232, Note_on_c, 0, 74, 45
2, 75262, Note_on_c, 0, 74, 0
2, 75264, Note_on_c, 0, 72, 45
2, 75312, Note_on_c, 0, 72, 45
2, 75358, Note_on_c, 0, 72, 0
2, 75360, Note_on_c, 0, 72, 45
2, 75406, Note_on_c, 0, 72, 0
2, 75408, Note_on_c, 0, 72, 45
2, 75424, Note_on_c, 0, 72, 0
2, 75454, Note_on_c, 0, 72, 0
2, 75456, Note_on_c, 0, 76, 45
2, 75550, Note_on_c, 0, 76, 0
2, 75552, Note_on_c, 0, 74, 45
2, 75646, Note_on_c, 0, 74, 0
2, 75648, Note_on_c, 0, 64, 75
2, 75648, Note_on_c, 0, 72, 75
2, 75808, Note_on_c, 0, 64, 0
2, 75808, Note_on_c, 0, 72, 0
2, 76128, Note_on_c, 0, 67, 75
2, 76160, Note_on_c, 0, 67, 0
2, 76224, Note_on_c, 0, 72, 75
2, 76256, Note_on_c, 0, 72, 0
2, 76320, Note_on_c, 0, 76, 75
2, 76352, Note_on_c, 0, 76, 0
2, 76416, Note_on_c, 0, 77, 75
2, 76560, Note_on_c, 0, 77, 0
2, 76560, Note_on_c, 0, 74, 75
2, 76608, Note_on_c, 0, 74, 0
2, 76608, Note_on_c, 0, 71, 75
2, 76768, Note_on_c, 0, 71, 0
2, 76896, Note_on_c, 0, 67, 75
2, 76928, Note_on_c, 0, 67, 0
2, 76992, Note_on_c, 0, 71, 75
2, 77024, Note_on_c, 0, 71, 0
2, 77088, Note_on_c, 0, 74, 75
2, 77120, Note_on_c, 0, 74, 0
2, 77184, Note_on_c, 0, 76, 75
2, 77328, Note_on_c, 0, 76, 0
2, 77328, Note_on_c, 0, 72, 75
2, 77376, Note_on_c, 0, 72, 0
2, 77376, Note_on_c, 0, 67, 75
2, 77536, Note_on_c, 0, 67, 0
2, 77664, Note_on_c, 0, 67, 75
2, 77712, Note_on_c, 0, 67, 0
2, 77712, Note_on_c, 0, 69, 75
2, 77760, Note_on_c, 0, 69, 0
2, 77760, Note_on_c, 0, 71, 75
2, 77808, Note_on_c, 0, 71, 0
2, 77808, Note_on_c, 0, 72, 75
2, 77856, Note_on_c, 0, 72, 0
2, 77856, Note_on_c, 0, 74, 75
2, 77904, Note_on_c, 0, 74, 0
2, 77904, Note_on_c, 0, 76, 75
2, 77950, Note_on_c, 0, 76, 0
2, 77952, Note_on_c, 0, 79, 75
2, 78000, Note_on_c, 0, 79, 0
2, 78000, Note_on_c, 0, 77, 75
2, 78046, Note_on_c, 0, 77, 0
2, 78048, Note_on_c, 0, 76, 75
2, 78096, Note_on_c, 0, 76, 0
2, 78096, Note_on_c, 0, 74, 75
2, 78142, Note_on_c, 0, 74, 0
2, 78144, Note_on_c, 0, 72, 75
2, 78240, Note_on_c, 0, 72, 0
2, 78240, Note_on_c, 0, 71, 75
2, 78334, Note_on_c, 0, 71, 0
2, 78432, Note_on_c, 0, 79, 75
2, 78480, Note_on_c, 0, 79, 0
2, 78480, Note_on_c, 0, 81, 75
2, 78528, Note_on_c, 0, 81, 0
2, 78528, Note_on_c, 0, 83, 75
2, 78576, Note_on_c, 0, 83, 0
2, 78576, Note_on_c, 0, 84, 75
2, 78624, Note_on_c, 0, 84, 0
2, 78624, Note_on_c, 0, 86, 75
2, 78672, Note_on_c, 0, 86, 0
2, 78672, Note_on_c, 0, 87, 75
2, 78720, Note_on_c, 0, 87, 0
2, 78720, Note_on_c, 0, 88, 75
2, 78768, Note_on_c, 0, 88, 0
2, 78768, Note_on_c, 0, 87, 75
2, 78816, Note_on_c, 0, 87, 0
2, 78816, Note_on_c, 0, 89, 75
2, 78864, Note_on_c, 0, 89, 0
2, 78864, Note_on_c, 0, 88, 75
2, 78912, Note_on_c, 0, 88, 0
2, 78912, Note_on_c, 0, 86, 75
2, 78960, Note_on_c, 0, 86, 0
2, 78960, Note_on_c, 0, 84, 75
2, 79008, Note_on_c, 0, 84, 0
2, 79008, Note_on_c, 0, 83, 75
2, 79056, Note_on_c, 0, 83, 0
2, 79056, Note_on_c, 0, 81, 75
2, 79104, Note_on_c, 0, 81, 0
2, 79104, Note_on_c, 0, 79, 75
2, 79136, Note_on_c, 0, 79, 0
2, 79152, Note_on_c, 0, 84, 75
2, 79184, Note_on_c, 0, 84, 0
2, 79200, Note_on_c, 0, 83, 74
2, 79232, Note_on_c, 0, 83, 0
2, 79248, Note_on_c, 0, 81, 73
2, 79280, Note_on_c, 0, 81, 0
2, 79296, Note_on_c, 0, 80, 72
2, 79328, Note_on_c, 0, 80, 0
2, 79344, Note_on_c, 0, 79, 71
2, 79376, Note_on_c, 0, 79, 0
2, 79392, Note_on_c, 0, 78, 70
2, 79424, Note_on_c, 0, 78, 0
2, 79440, Note_on_c, 0, 77, 69
2, 79472, Note_on_c, 0, 77, 0
2, 79488, Note_on_c, 0, 76, 68
2, 79520, Note_on_c, 0, 76, 0
2, 79536, Note_on_c, 0, 81, 67
2, 79568, Note_on_c, 0, 81, 0
2, 79584, Note_on_c, 0, 79, 66
2, 79616, Note_on_c, 0, 79, 0
2, 79632, Note_on_c, 0, 78, 65
2, 79664, Note_on_c, 0, 78, 0
2, 79680, Note_on_c, 0, 77, 64
2, 79712, Note_on_c, 0, 77, 0
2, 79728, Note_on_c, 0, 76, 63
2, 79760, Note_on_c, 0, 76, 0
2, 79776, Note_on_c, 0, 75, 62
2, 79808, Note_on_c, 0, 75, 0
2, 79824, Note_on_c, 0, 74, 61
2, 79856, Note_on_c, 0, 74, 0
2, 79872, Note_on_c, 0, 72, 60
2, 79920, Note_on_c, 0, 72, 0
2, 80064, Note_on_c, 0, 72, 60
2, 80112, Note_on_c, 0, 72, 0
2, 80256, Note_on_c, 0, 72, 60
2, 80350, Note_on_c, 0, 72, 0
2, 80352, Note_on_c, 0, 71, 60
2, 80446, Note_on_c, 0, 71, 0
2, 80448, Note_on_c, 0, 70, 60
2, 80542, Note_on_c, 0, 70, 0
2, 80544, Note_on_c, 0, 71, 60
2, 80576, Note_on_c, 0, 71, 0
2, 80640, Note_on_c, 0, 71, 60
2, 80760, Note_on_c, 0, 71, 0
2, 80832, Note_on_c, 0, 71, 60
2, 80880, Note_on_c, 0, 71, 0
2, 81024, Note_on_c, 0, 71, 60
2, 81048, Note_on_c, 0, 71, 0
2, 81048, Note_on_c, 0, 74, 60
2, 81118, Note_on_c, 0, 74, 0
2, 81120, Note_on_c, 0, 72, 60
2, 81214, Note_on_c, 0, 72, 0
2, 81216, Note_on_c, 0, 71, 60
2, 81310, Note_on_c, 0, 71, 0
2, 81312, Note_on_c, 0, 72, 60
2, 81406, Note_on_c, 0, 72, 0
2, 81408, Note_on_c, 0, 72, 45
2, 81528, Note_on_c, 0, 72, 0
2, 81600, Note_on_c, 0, 72, 45
2, 81648, Note_on_c, 0, 72, 0
2, 81792, Note_on_c, 0, 75, 45
2, 81886, Note_on_c, 0, 75, 0
2, 81888, Note_on_c, 0, 73, 45
2, 81982, Note_on_c, 0, 73, 0
2, 81984, Note_on_c, 0, 72, 45
2, 82078, Note_on_c, 0, 72, 0
2, 82080, Note_on_c, 0, 73, 45
2, 82174, Note_on_c, 0, 73, 0
2, 82176, Note_on_c, 0, 78, 45
2, 82296, Note_on_c, 0, 78, 0
2, 82368, Note_on_c, 0, 78, 45
2, 82416, Note_on_c, 0, 78, 0
2, 82560, Note_on_c, 0, 78, 45
2, 82654, Note_on_c, 0, 78, 0
2, 82656, Note_on_c, 0, 77, 45
2, 82750, Note_on_c, 0, 77, 0
2, 82752, Note_on_c, 0, 75, 45
2, 82846, Note_on_c, 0, 75, 0
2, 82848, Note_on_c, 0, 73, 45
2, 82942, Note_on_c, 0, 73, 0
2, 82944, Note_on_c, 0, 68, 45
2, 82944, Note_on_c, 0, 72, 45
2, 83064, Note_on_c, 0, 68, 0
2, 83064, Note_on_c, 0, 72, 0
2, 83136, Note_on_c, 0, 68, 45
2, 83136, Note_on_c, 0, 72, 45
2, 83184, Note_on_c, 0, 68, 0
2, 83184, Note_on_c, 0, 72, 0
2, 83328, Note_on_c, 0, 68, 45
2, 83328, Note_on_c, 0, 75, 45
2, 83422, Note_on_c, 0, 75, 0
2, 83424, Note_on_c, 0, 73, 45
2, 83518, Note_on_c, 0, 73, 0
2, 83520, Note_on_c, 0, 72, 45
2, 83614, Note_on_c, 0, 72, 0
2, 83616, Note_on_c, 0, 73, 45
2, 83664, Note_on_c, 0, 68, 0
2, 83710, Note_on_c, 0, 73, 0
2, 83712, Note_on_c, 0, 66, 45
2, 83712, Note_on_c, 0, 68, 45
2, 83712, Note_on_c, 0, 75, 45
2, 83712, Note_on_c, 0, 78, 45
2, 83832, Note_on_c, 0, 66, 0
2, 83832, Note_on_c, 0, 68, 0
2, 83832, Note_on_c, 0, 75, 0
2, 83832, Note_on_c, 0, 78, 0
2, 83904, Note_on_c, 0, 66, 45
2, 83904, Note_on_c, 0, 68, 45
2, 83904, Note_on_c, 0, 75, 45
2, 83904, Note_on_c, 0, 78, 45
2, 84064, Note_on_c, 0, 66, 0
2, 84064, Note_on_c, 0, 68, 0
2, 84064, Note_on_c, 0, 75, 0
2, 84064, Note_on_c, 0, 78, 0
2, 84288, Note_on_c, 0, 65, 45
2, 84336, Note_on_c, 0, 65, 0
2, 84336, Note_on_c, 0, 68, 45
2, 84384, Note_on_c, 0, 68, 0
2, 84384, Note_on_c, 0, 73, 45
2, 84432, Note_on_c, 0, 73, 0
2, 84432, Note_on_c, 0, 77, 45
2, 84480, Note_on_c, 0, 77, 0
2, 84672, Note_on_c, 0, 63, 45
2, 84720, Note_on_c, 0, 63, 0
2, 84720, Note_on_c, 0, 68, 45
2, 84768, Note_on_c, 0, 68, 0
2, 84768, Note_on_c, 0, 72, 45
2, 84816, Note_on_c, 0, 72, 0
2, 84816, Note_on_c, 0, 75, 45
2, 84864, Note_on_c, 0, 75, 0
2, 85056, Note_on_c, 0, 68, 45
2, 85104, Note_on_c, 0, 68, 0
2, 85104, Note_on_c, 0, 73, 45
2, 85152, Note_on_c, 0, 73, 0
2, 85152, Note_on_c, 0, 77, 45
2, 85200, Note_on_c, 0, 77, 0
2, 85200, Note_on_c, 0, 80, 45
2, 85248, Note_on_c, 0, 80, 0
2, 85440, Note_on_c, 0, 66, 45
2, 85488, Note_on_c, 0, 66, 0
2, 85488, Note_on_c, 0, 68, 45
2, 85536, Note_on_c, 0, 68, 0
2, 85536, Note_on_c, 0, 72, 45
2, 85584, Note_on_c, 0, 72, 0
2, 85584, Note_on_c, 0, 78, 45
2, 85632, Note_on_c, 0, 78, 0
2, 85824, Note_on_c, 0, 65, 45
2, 85872, Note_on_c, 0, 65, 0
2, 85872, Note_on_c, 0, 68, 45
2, 85920, Note_on_c, 0, 68, 0
2, 85920, Note_on_c, 0, 73, 45
2, 85968, Note_on_c, 0, 73, 0
2, 85968, Note_on_c, 0, 77, 45
2, 86016, Note_on_c, 0, 77, 0
2, 86208, Note_on_c, 0, 65, 45
2, 86256, Note_on_c, 0, 65, 0
2, 86256, Note_on_c, 0, 68, 45
2, 86304, Note_on_c, 0, 68, 0
2, 86304, Note_on_c, 0, 72, 45
2, 86352, Note_on_c, 0, 72, 0
2, 86352, Note_on_c, 0, 77, 45
2, 86400, Note_on_c, 0, 77, 0
2, 86592, Note_on_c, 0, 65, 45
2, 86640, Note_on_c, 0, 65, 0
2, 86640, Note_on_c, 0, 68, 45
2, 86688, Note_on_c, 0, 68, 0
2, 86688, Note_on_c, 0, 74, 45
2, 86736, Note_on_c, 0, 74, 0
2, 86736, Note_on_c, 0, 77, 45
2, 86784, Note_on_c, 0, 77, 0
2, 86976, Note_on_c, 0, 63, 45
2, 87024, Note_on_c, 0, 63, 0
2, 87024, Note_on_c, 0, 67, 45
2, 87072, Note_on_c, 0, 67, 0
2, 87072, Note_on_c, 0, 72, 45
2, 87120, Note_on_c, 0, 72, 0
2, 87120, Note_on_c, 0, 75, 45
2, 87168, Note_on_c, 0, 75, 0
2, 87360, Note_on_c, 0, 62, 56
2, 87408, Note_on_c, 0, 62, 0
2, 87408, Note_on_c, 0, 68, 59
2, 87456, Note_on_c, 0, 68, 0
2, 87456, Note_on_c, 0, 72, 62
2, 87504, Note_on_c, 0, 72, 0
2, 87504, Note_on_c, 0, 74, 65
2, 87552, Note_on_c, 0, 74, 0
2, 87744, Note_on_c, 0, 64, 80
2, 87792, Note_on_c, 0, 64, 0
2, 87792, Note_on_c, 0, 70, 83
2, 87840, Note_on_c, 0, 70, 0
2, 87840, Note_on_c, 0, 72, 86
2, 87888, Note_on_c, 0, 72, 0
2, 87888, Note_on_c, 0, 76, 89
2, 87936, Note_on_c, 0, 76, 0
2, 88128, Note_on_c, 0, 65, 92
2, 88176, Note_on_c, 0, 65, 0
2, 88176, Note_on_c, 0, 68, 92
2, 88224, Note_on_c, 0, 68, 0
2, 88224, Note_on_c, 0, 72, 92
2, 88272, Note_on_c, 0, 72, 0
2, 88272, Note_on_c, 0, 77, 92
2, 88320, Note_on_c, 0, 77, 0
2, 88512, Note_on_c, 0, 66, 92
2, 88560, Note_on_c, 0, 66, 0
2, 88560, Note_on_c, 0, 72, 92
2, 88608, Note_on_c, 0, 72, 0
2, 88608, Note_on_c, 0, 75, 92
2, 88656, Note_on_c, 0, 75, 0
2, 88656, Note_on_c, 0, 78, 92
2, 88704, Note_on_c, 0, 78, 0
2, 88704, Note_on_c, 0, 67, 127
2, 88704, Note_on_c, 0, 72, 127
2, 88704, Note_on_c, 0, 76, 127
2, 88704, Note_on_c, 0, 79, 127
2, 88992, Note_on_c, 0, 67, 0
2, 88992, Note_on_c, 0, 72, 0
2, 88992, Note_on_c, 0, 76, 0
2, 88992, Note_on_c, 0, 79, 0
2, 88992, Note_on_c, 0, 74, 60
2, 88992, Note_on_c, 0, 77, 60
2, 89088, Note_on_c, 0, 74, 0
2, 89088, Note_on_c, 0, 77, 0
2, 89088, Note_on_c, 0, 72, 60
2, 89088, Note_on_c, 0, 76, 60
2, 89120, Note_on_c, 0, 72, 0
2, 89120, Note_on_c, 0, 76, 0
2, 89184, Note_on_c, 0, 67, 60
2, 89184, Note_on_c, 0, 76, 60
2, 89216, Note_on_c, 0, 67, 0
2, 89216, Note_on_c, 0, 76, 0
2, 89280, Note_on_c, 0, 65, 60
2, 89280, Note_on_c, 0, 69, 60
2, 89280, Note_on_c, 0, 74, 60
2, 89312, Note_on_c, 0, 65, 0
2, 89312, Note_on_c, 0, 69, 0
2, 89312, Note_on_c, 0, 74, 0
2, 89376, Note_on_c, 0, 63, 60
2, 89376, Note_on_c, 0, 66, 60
2, 89376, Note_on_c, 0, 69, 60
2, 89376, Note_on_c, 0, 72, 60
2, 89408, Note_on_c, 0, 63, 0
2, 89408, Note_on_c, 0, 66, 0
2, 89408, Note_on_c, 0, 69, 0
2, 89408, Note_on_c, 0, 72, 0
2, 89472, Note_on_c, 0, 64, 60
2, 89472, Note_on_c, 0, 67, 60
2, 89472, Note_on_c, 0, 72, 60
2, 89760, Note_on_c, 0, 64, 0
2, 89760, Note_on_c, 0, 67, 0
2, 89760, Note_on_c, 0, 72, 0
2, 89760, Note_on_c, 0, 64, 60
2, 89760, Note_on_c, 0, 67, 60
2, 89760, Note_on_c, 0, 72, 60
2, 89856, Note_on_c, 0, 64, 0
2, 89856, Note_on_c, 0, 67, 0
2, 89856, Note_on_c, 0, 72, 0
2, 89856, Note_on_c, 0, 62, 60
2, 89856, Note_on_c, 0, 65, 60
2, 89856, Note_on_c, 0, 72, 60
2, 89952, Note_on_c, 0, 72, 0
2, 89952, Note_on_c, 0, 71, 60
2, 90048, Note_on_c, 0, 62, 0
2, 90048, Note_on_c, 0, 65, 0
2, 90048, Note_on_c, 0, 71, 0
2, 90048, Note_on_c, 0, 62, 60
2, 90048, Note_on_c, 0, 65, 60
2, 90048, Note_on_c, 0, 69, 60
2, 90144, Note_on_c, 0, 69, 0
2, 90144, Note_on_c, 0, 67, 60
2, 90240, Note_on_c, 0, 62, 0
2, 90240, Note_on_c, 0, 65, 0
2, 90240, Note_on_c, 0, 67, 0
2, 90240, Note_on_c, 0, 76, 92
2, 90240, Note_on_c, 0, 79, 92
2, 90528, Note_on_c, 0, 76, 0
2, 90528, Note_on_c, 0, 79, 0
2, 90528, Note_on_c, 0, 74, 92
2, 90528, Note_on_c, 0, 77, 92
2, 90624, Note_on_c, 0, 74, 0
2, 90624, Note_on_c, 0, 77, 0
2, 90624, Note_on_c, 0, 72, 92
2, 90624, Note_on_c, 0, 76, 92
2, 90656, Note_on_c, 0, 72, 0
2, 90656, Note_on_c, 0, 76, 0
2, 90720, Note_on_c, 0, 67, 92
2, 90720, Note_on_c, 0, 76, 92
2, 90752, Note_on_c, 0, 67, 0
2, 90752, Note_on_c, 0, 76, 0
2, 90816, Note_on_c, 0, 65, 92
2, 90816, Note_on_c, 0, 69, 92
2, 90816, Note_on_c, 0, 74, 92
2, 90848, Note_on_c, 0, 65, 0
2, 90848, Note_on_c, 0, 69, 0
2, 90848, Note_on_c, 0, 74, 0
2, 90912, Note_on_c, 0, 63, 92
2, 90912, Note_on_c, 0, 66, 92
2, 90912, Note_on_c, 0, 69, 92
2, 90912, Note_on_c, 0, 72, 92
2, 90944, Note_on_c, 0, 63, 0
2, 90944, Note_on_c, 0, 66, 0
2, 90944, Note_on_c, 0, 69, 0
2, 90944, Note_on_c, 0, 72, 0
2, 91008, Note_on_c, 0, 64, 127
2, 91008, Note_on_c, 0, 67, 127
2, 91008, Note_on_c, 0, 72, 127
2, 91296, Note_on_c, 0, 64, 0
2, 91296, Note_on_c, 0, 67, 0
2, 91296, Note_on_c, 0, 72, 0
2, 91296, Note_on_c, 0, 64, 60
2, 91296, Note_on_c, 0, 67, 60
2, 91296, Note_on_c, 0, 72, 60
2, 91392, Note_on_c, 0, 64, 0
2, 91392, Note_on_c, 0, 67, 0
2, 91392, Note_on_c, 0, 72, 0
2, 91392, Note_on_c, 0, 62, 60
2, 91392, Note_on_c, 0, 65, 60
2, 91392, Note_on_c, 0, 72, 60
2, 91488, Note_on_c, 0, 72, 0
2, 91488, Note_on_c, 0, 71, 60
2, 91584, Note_on_c, 0, 62, 0
2, 91584, Note_on_c, 0, 65, 0
2, 91584, Note_on_c, 0, 71, 0
2, 91584, Note_on_c, 0, 62, 60
2, 91584, Note_on_c, 0, 65, 60
2, 91584, Note_on_c, 0, 69, 60
2, 91680, Note_on_c, 0, 69, 0
2, 91680, Note_on_c, 0, 67, 60
2, 91776, Note_on_c, 0, 62, 0
2, 91776, Note_on_c, 0, 65, 0
2, 91776, Note_on_c, 0, 67, 0
2, 91776, Note_on_c, 0, 64, 60
2, 91776, Note_on_c, 0, 72, 60
2, 91968, Note_on_c, 0, 64, 0
2, 91968, Note_on_c, 0, 72, 0
2, 92064, Note_on_c, 0, 48, 45
2, 92132, Note_on_c, 0, 48, 0
2, 92160, Note_on_c, 0, 48, 45
2, 92256, Note_on_c, 0, 48, 0
2, 92256, Note_on_c, 0, 47, 45
2, 92352, Note_on_c, 0, 47, 0
2, 92352, Note_on_c, 0, 45, 45
2, 92448, Note_on_c, 0, 45, 0
2, 92448, Note_on_c, 0, 47, 45
2, 92544, Note_on_c, 0, 47, 0
2, 92544, Note_on_c, 0, 48, 45
2, 92736, Note_on_c, 0, 48, 0
2, 92736, Note_on_c, 0, 43, 45
2, 92832, Note_on_c, 0, 43, 0
2, 92832, Note_on_c, 0, 72, 45
2, 92928, Note_on_c, 0, 72, 0
2, 92928, Note_on_c, 0, 72, 45
2, 93024, Note_on_c, 0, 72, 0
2, 93024, Note_on_c, 0, 71, 45
2, 93120, Note_on_c, 0, 71, 0
2, 93120, Note_on_c, 0, 69, 45
2, 93216, Note_on_c, 0, 69, 0
2, 93216, Note_on_c, 0, 71, 45
2, 93312, Note_on_c, 0, 71, 0
2, 93312, Note_on_c, 0, 72, 45
2, 93504, Note_on_c, 0, 72, 0
2, 93504, Note_on_c, 0, 67, 45
2, 93600, Note_on_c, 0, 67, 0
2, 93648, Note_on_c, 0, 48, 45
2, 93682, Note_on_c, 0, 48, 0
2, 93696, Note_on_c, 0, 48, 45
2, 93744, Note_on_c, 0, 48, 0
2, 93744, Note_on_c, 0, 47, 45
2, 93792, Note_on_c, 0, 47, 0
2, 93792, Note_on_c, 0, 52, 45
2, 93840, Note_on_c, 0, 52, 0
2, 93840, Note_on_c, 0, 50, 45
2, 93888, Note_on_c, 0, 50, 0
2, 93888, Note_on_c, 0, 48, 45
2, 93936, Note_on_c, 0, 48, 0
2, 93936, Note_on_c, 0, 47, 45
2, 93984, Note_on_c, 0, 47, 0
2, 93984, Note_on_c, 0, 45, 45
2, 94032, Note_on_c, 0, 45, 0
2, 94032, Note_on_c, 0, 43, 45
2, 94080, Note_on_c, 0, 43, 0
2, 94080, Note_on_c, 0, 43, 45
2, 94104, Note_on_c, 0, 43, 0
2, 94104, Note_on_c, 0, 48, 45
2, 94272, Note_on_c, 0, 48, 0
2, 94272, Note_on_c, 0, 43, 45
2, 94368, Note_on_c, 0, 43, 0
2, 94416, Note_on_c, 0, 72, 45
2, 94448, Note_on_c, 0, 72, 0
2, 94464, Note_on_c, 0, 72, 45
2, 94512, Note_on_c, 0, 72, 0
2, 94512, Note_on_c, 0, 71, 45
2, 94560, Note_on_c, 0, 71, 0
2, 94560, Note_on_c, 0, 76, 45
2, 94608, Note_on_c, 0, 76, 0
2, 94608, Note_on_c, 0, 74, 45
2, 94656, Note_on_c, 0, 74, 0
2, 94656, Note_on_c, 0, 72, 45
2, 94704, Note_on_c, 0, 72, 0
2, 94704, Note_on_c, 0, 71, 45
2, 94752, Note_on_c, 0, 71, 0
2, 94752, Note_on_c, 0, 69, 45
2, 94800, Note_on_c, 0, 69, 0
2, 94800, Note_on_c, 0, 67, 45
2, 94848, Note_on_c, 0, 67, 0
2, 94848, Note_on_c, 0, 67, 45
2, 94872, Note_on_c, 0, 67, 0
2, 94872, Note_on_c, 0, 72, 45
2, 95040, Note_on_c, 0, 72, 0
2, 95040, Note_on_c, 0, 67, 45
2, 95136, Note_on_c, 0, 67, 0
2, 95184, Note_on_c, 0, 48, 45
2, 95218, Note_on_c, 0, 48, 0
2, 95232, Note_on_c, 0, 48, 45
2, 95280, Note_on_c, 0, 48, 0
2, 95280, Note_on_c, 0, 47, 45
2, 95328, Note_on_c, 0, 47, 0
2, 95328, Note_on_c, 0, 52, 45
2, 95376, Note_on_c, 0, 52, 0
2, 95376, Note_on_c, 0, 50, 45
2, 95424, Note_on_c, 0, 50, 0
2, 95424, Note_on_c, 0, 48, 45
2, 95472, Note_on_c, 0, 48, 0
2, 95472, Note_on_c, 0, 47, 45
2, 95520, Note_on_c, 0, 47, 0
2, 95520, Note_on_c, 0, 45, 45
2, 95568, Note_on_c, 0, 45, 0
2, 95568, Note_on_c, 0, 43, 45
2, 95616, Note_on_c, 0, 43, 0
2, 95616, Note_on_c, 0, 48, 45
2, 95808, Note_on_c, 0, 48, 0
2, 95808, Note_on_c, 0, 49, 92
2, 96000, Note_on_c, 0, 49, 0
2, 96000, Note_on_c, 0, 50, 60
2, 96192, Note_on_c, 0, 50, 0
2, 96192, Note_on_c, 0, 51, 92
2, 96384, Note_on_c, 0, 51, 0
2, 96384, Note_on_c, 0, 52, 60
2, 96576, Note_on_c, 0, 52, 0
2, 96576, Note_on_c, 0, 52, 92
2, 96768, Note_on_c, 0, 52, 0
2, 96768, Note_on_c, 0, 53, 60
2, 96960, Note_on_c, 0, 53, 0
2, 96960, Note_on_c, 0, 54, 92
2, 97152, Note_on_c, 0, 54, 0
2, 97152, Note_on_c, 0, 55, 92
2, 97184, Note_on_c, 0, 55, 0
2, 97184, Note_on_c, 0, 56, 92
2, 97216, Note_on_c, 0, 56, 0
2, 97216, Note_on_c, 0, 57, 92
2, 97248, Note_on_c, 0, 57, 0
2, 97248, Note_on_c, 0, 58, 92
2, 97280, Note_on_c, 0, 58, 0
2, 97280, Note_on_c, 0, 59, 92
2, 97312, Note_on_c, 0, 59, 0
2, 97312, Note_on_c, 0, 60, 92
2, 97344, Note_on_c, 0, 60, 0
2, 97344, Note_on_c, 0, 61, 92
2, 97376, Note_on_c, 0, 61, 0
2, 97376, Note_on_c, 0, 62, 92
2, 97408, Note_on_c, 0, 62, 0
2, 97408, Note_on_c, 0, 63, 92
2, 97440, Note_on_c, 0, 63, 0
2, 97440, Note_on_c, 0, 64, 92
2, 97472, Note_on_c, 0, 64, 0
2, 97472, Note_on_c, 0, 65, 92
2, 97504, Note_on_c, 0, 65, 0
2, 97504, Note_on_c, 0, 66, 92
2, 97536, Note_on_c, 0, 66, 0
2, 97536, Note_on_c, 0, 67, 92
2, 97568, Note_on_c, 0, 67, 0
2, 97568, Note_on_c, 0, 68, 92
2, 97600, Note_on_c, 0, 68, 0
2, 97600, Note_on_c, 0, 69, 92
2, 97632, Note_on_c, 0, 69, 0
2, 97632, Note_on_c, 0, 70, 92
2, 97664, Note_on_c, 0, 70, 0
2, 97664, Note_on_c, 0, 71, 92
2, 97696, Note_on_c, 0, 71, 0
2, 97696, Note_on_c, 0, 72, 92
2, 97728, Note_on_c, 0, 72, 0
2, 97728, Note_on_c, 0, 73, 92
2, 97760, Note_on_c, 0, 73, 0
2, 97760, Note_on_c, 0, 74, 92
2, 97792, Note_on_c, 0, 74, 0
2, 97792, Note_on_c, 0, 75, 92
2, 97824, Note_on_c, 0, 75, 0
2, 97824, Note_on_c, 0, 76, 92
2, 97856, Note_on_c, 0, 76, 0
2, 97856, Note_on_c, 0, 77, 92
2, 97888, Note_on_c, 0, 77, 0
2, 97888, Note_on_c, 0, 78, 92
2, 97920, Note_on_c, 0, 78, 0
2, 97920, Note_on_c, 0, 79, 92
2, 97936, Note_on_c, 0, 79, 0
2, 97936, Note_on_c, 0, 80, 89
2, 97952, Note_on_c, 0, 80, 0
2, 97952, Note_on_c, 0, 81, 86
2, 97968, Note_on_c, 0, 81, 0
2, 97968, Note_on_c, 0, 82, 83
2, 97984, Note_on_c, 0, 82, 0
2, 97984, Note_on_c, 0, 83, 80
2, 98000, Note_on_c, 0, 83, 0
2, 98000, Note_on_c, 0, 84, 76
2, 98016, Note_on_c, 0, 84, 0
2, 98016, Note_on_c, 0, 85, 72
2, 98032, Note_on_c, 0, 85, 0
2, 98032, Note_on_c, 0, 86, 68
2, 98048, Note_on_c, 0, 86, 0
2, 98048, Note_on_c, 0, 87, 64
2, 98064, Note_on_c, 0, 87, 0
2, 98064, Note_on_c, 0, 88, 60
2, 98096, Note_on_c, 0, 88, 0
2, 98160, Note_on_c, 0, 86, 60
2, 98192, Note_on_c, 0, 86, 0
2, 98256, Note_on_c, 0, 84, 60
2, 98288, Note_on_c, 0, 84, 0
2, 98352, Note_on_c, 0, 83, 60
2, 98384, Note_on_c, 0, 83, 0
2, 98448, Note_on_c, 0, 81, 60
2, 98480, Note_on_c, 0, 81, 0
2, 98544, Note_on_c, 0, 79, 60
2, 98576, Note_on_c, 0, 79, 0
2, 98640, Note_on_c, 0, 77, 60
2, 98708, Note_on_c, 0, 77, 0
2, 98736, Note_on_c, 0, 76, 60
2, 98804, Note_on_c, 0, 76, 0
2, 98832, Note_on_c, 0, 74, 60
2, 98900, Note_on_c, 0, 74, 0
2, 98928, Note_on_c, 0, 72, 60
2, 98996, Note_on_c, 0, 72, 0
2, 99024, Note_on_c, 0, 71, 60
2, 99092, Note_on_c, 0, 71, 0
2, 99120, Note_on_c, 0, 69, 60
2, 99188, Note_on_c, 0, 69, 0
2, 99216, Note_on_c, 0, 67, 60
2, 99284, Note_on_c, 0, 67, 0
2, 99312, Note_on_c, 0, 66, 60
2, 99344, Note_on_c, 0, 66, 0
2, 99408, Note_on_c, 0, 67, 60
2, 99504, Note_on_c, 0, 67, 0
2, 99504, Note_on_c, 0, 72, 60
2, 99600, Note_on_c, 0, 72, 0
2, 99600, Note_on_c, 0, 76, 60
2, 99696, Note_on_c, 0, 76, 0
2, 99696, Note_on_c, 0, 79, 60
2, 99792, Note_on_c, 0, 79, 0
2, 99792, Note_on_c, 0, 79, 92
2, 99888, Note_on_c, 0, 79, 0
2, 99888, Note_on_c, 0, 77, 92
2, 99984, Note_on_c, 0, 77, 0
2, 99984, Note_on_c, 0, 74, 60
2, 100080, Note_on_c, 0, 74, 0
2, 100080, Note_on_c, 0, 71, 60
2, 100176, Note_on_c, 0, 71, 0
2, 100176, Note_on_c, 0, 72, 60
2, 100368, Note_on_c, 0, 72, 0
2, 100896, Note_on_c, 0, 67, 60
2, 100944, Note_on_c, 0, 67, 0
2, 100944, Note_on_c, 0, 79, 60
2, 101328, Note_on_c, 0, 79, 0
2, 101664, Note_on_c, 0, 67, 60
2, 101712, Note_on_c, 0, 67, 0
2, 101712, Note_on_c, 0, 79, 60
2, 102096, Note_on_c, 0, 79, 0
2, 102096, Note_on_c, 0, 70, 60
2, 102096, Note_on_c, 0, 79, 60
2, 102144, Note_on_c, 0, 70, 0
2, 102144, Note_on_c, 0, 79, 0
2, 102288, Note_on_c, 0, 70, 69
2, 102288, Note_on_c, 0, 79, 69
2, 102336, Note_on_c, 0, 70, 0
2, 102336, Note_on_c, 0, 79, 0
2, 102480, Note_on_c, 0, 69, 78
2, 102480, Note_on_c, 0, 79, 78
2, 102576, Note_on_c, 0, 79, 0
2, 102576, Note_on_c, 0, 77, 83
2, 102672, Note_on_c, 0, 77, 0
2, 102672, Note_on_c, 0, 76, 88
2, 102768, Note_on_c, 0, 76, 0
2, 102768, Note_on_c, 0, 74, 93
2, 102864, Note_on_c, 0, 69, 0
2, 102864, Note_on_c, 0, 74, 0
2, 102864, Note_on_c, 0, 67, 98
2, 102864, Note_on_c, 0, 72, 98
2, 102960, Note_on_c, 0, 67, 0
2, 102960, Note_on_c, 0, 72, 0
2, 103056, Note_on_c, 0, 62, 108
2, 103056, Note_on_c, 0, 65, 108
2, 103056, Note_on_c, 0, 67, 108
2, 103056, Note_on_c, 0, 71, 108
2, 103088, Note_on_c, 0, 62, 0
2, 103088, Note_on_c, 0, 65, 0
2, 103088, Note_on_c, 0, 67, 0
2, 103088, Note_on_c, 0, 71, 0
2, 103248, Note_on_c, 0, 64, 108
2, 103248, Note_on_c, 0, 67, 108
2, 103248, Note_on_c, 0, 72, 108
2, 103440, Note_on_c, 0, 64, 0
2, 103440, Note_on_c, 0, 67, 0
2, 103440, Note_on_c, 0, 72, 0
2, 103440, End_track
3, 0, Start_track
3, 0, MIDI_port, 0
3, 0, Title_t, "Reginald Steven Ritchie"
3, 0, Program_c, 1, 0
3, 0, Control_c, 1, 7, 127
3, 0, Control_c, 1, 10, 9
3, 0, Control_c, 1, 91, 84
3, 0, Control_c, 1, 93, 84
3, 0, Note_on_c, 1, 60, 45
3, 0, Note_on_c, 1, 64, 45
3, 96, Note_on_c, 1, 60, 0
3, 96, Note_on_c, 1, 64, 0
3, 96, Note_on_c, 1, 67, 45
3, 192, Note_on_c, 1, 67, 0
3, 192, Note_on_c, 1, 60, 45
3, 192, Note_on_c, 1, 64, 45
3, 288, Note_on_c, 1, 60, 0
3, 288, Note_on_c, 1, 64, 0
3, 288, Note_on_c, 1, 67, 45
3, 384, Note_on_c, 1, 67, 0
3, 384, Note_on_c, 1, 62, 45
3, 384, Note_on_c, 1, 65, 45
3, 480, Note_on_c, 1, 62, 0
3, 480, Note_on_c, 1, 65, 0
3, 480, Note_on_c, 1, 67, 45
3, 576, Note_on_c, 1, 67, 0
3, 576, Note_on_c, 1, 62, 45
3, 576, Note_on_c, 1, 65, 45
3, 672, Note_on_c, 1, 62, 0
3, 672, Note_on_c, 1, 65, 0
3, 672, Note_on_c, 1, 67, 45
3, 768, Note_on_c, 1, 67, 0
3, 768, Note_on_c, 1, 60, 45
3, 768, Note_on_c, 1, 64, 45
3, 864, Note_on_c, 1, 60, 0
3, 864, Note_on_c, 1, 64, 0
3, 864, Note_on_c, 1, 67, 45
3, 960, Note_on_c, 1, 67, 0
3, 960, Note_on_c, 1, 60, 45
3, 960, Note_on_c, 1, 64, 45
3, 1056, Note_on_c, 1, 60, 0
3, 1056, Note_on_c, 1, 64, 0
3, 1056, Note_on_c, 1, 67, 45
3, 1152, Note_on_c, 1, 67, 0
3, 1152, Note_on_c, 1, 59, 45
3, 1152, Note_on_c, 1, 62, 45
3, 1248, Note_on_c, 1, 59, 0
3, 1248, Note_on_c, 1, 62, 0
3, 1248, Note_on_c, 1, 67, 45
3, 1344, Note_on_c, 1, 67, 0
3, 1344, Note_on_c, 1, 59, 45
3, 1344, Note_on_c, 1, 62, 45
3, 1440, Note_on_c, 1, 59, 0
3, 1440, Note_on_c, 1, 62, 0
3, 1440, Note_on_c, 1, 67, 45
3, 1536, Note_on_c, 1, 67, 0
3, 1536, Note_on_c, 1, 57, 45
3, 1536, Note_on_c, 1, 60, 45
3, 1632, Note_on_c, 1, 57, 0
3, 1632, Note_on_c, 1, 60, 0
3, 1632, Note_on_c, 1, 65, 45
3, 1728, Note_on_c, 1, 65, 0
3, 1728, Note_on_c, 1, 59, 45
3, 1728, Note_on_c, 1, 62, 45
3, 1824, Note_on_c, 1, 59, 0
3, 1824, Note_on_c, 1, 62, 0
3, 1824, Note_on_c, 1, 67, 45
3, 1920, Note_on_c, 1, 67, 0
3, 1920, Note_on_c, 1, 60, 45
3, 2016, Note_on_c, 1, 60, 0
3, 2016, Note_on_c, 1, 64, 45
3, 2048, Note_on_c, 1, 64, 0
3, 2112, Note_on_c, 1, 52, 45
3, 2112, Note_on_c, 1, 55, 45
3, 2206, Note_on_c, 1, 52, 0
3, 2206, Note_on_c, 1, 55, 0
3, 2208, Note_on_c, 1, 60, 45
3, 2302, Note_on_c, 1, 60, 0
3, 2304, Note_on_c, 1, 53, 45
3, 2304, Note_on_c, 1, 53, 45
3, 2398, Note_on_c, 1, 53, 0
3, 2400, Note_on_c, 1, 57, 45
3, 2494, Note_on_c, 1, 57, 0
3, 2496, Note_on_c, 1, 62, 45
3, 2590, Note_on_c, 1, 62, 0
3, 2592, Note_on_c, 1, 65, 45
3, 2640, Note_on_c, 1, 53, 0
3, 2686, Note_on_c, 1, 65, 0
3, 2688, Note_on_c, 1, 55, 45
3, 2784, Note_on_c, 1, 64, 45
3, 2880, Note_on_c, 1, 64, 0
3, 2880, Note_on_c, 1, 62, 45
3, 2912, Note_on_c, 1, 62, 0
3, 2944, Note_on_c, 1, 55, 0
3, 3072, Note_on_c, 1, 60, 45
3, 3072, Note_on_c, 1, 64, 45
3, 3166, Note_on_c, 1, 60, 0
3, 3166, Note_on_c, 1, 64, 0
3, 3168, Note_on_c, 1, 67, 45
3, 3262, Note_on_c, 1, 67, 0
3, 3264, Note_on_c, 1, 60, 45
3, 3264, Note_on_c, 1, 64, 45
3, 3358, Note_on_c, 1, 60, 0
3, 3358, Note_on_c, 1, 64, 0
3, 3360, Note_on_c, 1, 67, 45
3, 3454, Note_on_c, 1, 67, 0
3, 3456, Note_on_c, 1, 62, 45
3, 3456, Note_on_c, 1, 65, 45
3, 3552, Note_on_c, 1, 62, 0
3, 3552, Note_on_c, 1, 65, 0
3, 3552, Note_on_c, 1, 67, 45
3, 3648, Note_on_c, 1, 67, 0
3, 3648, Note_on_c, 1, 62, 45
3, 3648, Note_on_c, 1, 65, 45
3, 3744, Note_on_c, 1, 62, 0
3, 3744, Note_on_c, 1, 65, 0
3, 3744, Note_on_c, 1, 67, 45
3, 3840, Note_on_c, 1, 67, 0
3, 3840, Note_on_c, 1, 60, 45
3, 3840, Note_on_c, 1, 64, 45
3, 3936, Note_on_c, 1, 60, 0
3, 3936, Note_on_c, 1, 64, 0
3, 3936, Note_on_c, 1, 67, 45
3, 4032, Note_on_c, 1, 67, 0
3, 4032, Note_on_c, 1, 60, 45
3, 4032, Note_on_c, 1, 64, 45
3, 4128, Note_on_c, 1, 60, 0
3, 4128, Note_on_c, 1, 64, 0
3, 4128, Note_on_c, 1, 67, 45
3, 4224, Note_on_c, 1, 67, 0
3, 4224, Note_on_c, 1, 59, 45
3, 4224, Note_on_c, 1, 62, 45
3, 4320, Note_on_c, 1, 59, 0
3, 4320, Note_on_c, 1, 62, 0
3, 4320, Note_on_c, 1, 67, 45
3, 4416, Note_on_c, 1, 67, 0
3, 4416, Note_on_c, 1, 59, 45
3, 4416, Note_on_c, 1, 62, 45
3, 4512, Note_on_c, 1, 59, 0
3, 4512, Note_on_c, 1, 62, 0
3, 4512, Note_on_c, 1, 67, 45
3, 4608, Note_on_c, 1, 67, 0
3, 4608, Note_on_c, 1, 57, 45
3, 4608, Note_on_c, 1, 60, 45
3, 4704, Note_on_c, 1, 57, 0
3, 4704, Note_on_c, 1, 60, 0
3, 4704, Note_on_c, 1, 65, 45
3, 4800, Note_on_c, 1, 65, 0
3, 4800, Note_on_c, 1, 59, 45
3, 4800, Note_on_c, 1, 62, 45
3, 4896, Note_on_c, 1, 59, 0
3, 4896, Note_on_c, 1, 62, 0
3, 4896, Note_on_c, 1, 67, 45
3, 4992, Note_on_c, 1, 67, 0
3, 4992, Note_on_c, 1, 60, 45
3, 4992, Note_on_c, 1, 64, 45
3, 5086, Note_on_c, 1, 60, 0
3, 5086, Note_on_c, 1, 64, 0
3, 5088, Note_on_c, 1, 67, 45
3, 5120, Note_on_c, 1, 67, 0
3, 5184, Note_on_c, 1, 53, 45
3, 5280, Note_on_c, 1, 53, 0
3, 5280, Note_on_c, 1, 65, 45
3, 5374, Note_on_c, 1, 65, 0
3, 5376, Note_on_c, 1, 55, 45
3, 5472, Note_on_c, 1, 55, 0
3, 5472, Note_on_c, 1, 64, 45
3, 5568, Note_on_c, 1, 64, 0
3, 5568, Note_on_c, 1, 55, 45
3, 5664, Note_on_c, 1, 55, 0
3, 5664, Note_on_c, 1, 65, 45
3, 5758, Note_on_c, 1, 65, 0
3, 5760, Note_on_c, 1, 48, 60
3, 5856, Note_on_c, 1, 48, 0
3, 5856, Note_on_c, 1, 55, 60
3, 5888, Note_on_c, 1, 55, 0
3, 5952, Note_on_c, 1, 55, 60
3, 5984, Note_on_c, 1, 55, 0
3, 6048, Note_on_c, 1, 55, 60
3, 6080, Note_on_c, 1, 55, 0
3, 6144, Note_on_c, 1, 52, 60
3, 6144, Note_on_c, 1, 60, 60
3, 6240, Note_on_c, 1, 52, 0
3, 6240, Note_on_c, 1, 55, 60
3, 6272, Note_on_c, 1, 55, 0
3, 6336, Note_on_c, 1, 55, 60
3, 6368, Note_on_c, 1, 55, 0
3, 6432, Note_on_c, 1, 55, 60
3, 6464, Note_on_c, 1, 55, 0
3, 6480, Note_on_c, 1, 60, 0
3, 6528, Note_on_c, 1, 50, 60
3, 6528, Note_on_c, 1, 59, 60
3, 6624, Note_on_c, 1, 50, 0
3, 6624, Note_on_c, 1, 55, 60
3, 6656, Note_on_c, 1, 55, 0
3, 6720, Note_on_c, 1, 55, 60
3, 6752, Note_on_c, 1, 55, 0
3, 6816, Note_on_c, 1, 55, 60
3, 6848, Note_on_c, 1, 55, 0
3, 6864, Note_on_c, 1, 59, 0
3, 6912, Note_on_c, 1, 53, 60
3, 6912, Note_on_c, 1, 62, 60
3, 7008, Note_on_c, 1, 53, 0
3, 7008, Note_on_c, 1, 55, 60
3, 7040, Note_on_c, 1, 55, 0
3, 7104, Note_on_c, 1, 55, 60
3, 7136, Note_on_c, 1, 55, 0
3, 7200, Note_on_c, 1, 55, 60
3, 7232, Note_on_c, 1, 55, 0
3, 7248, Note_on_c, 1, 62, 0
3, 7296, Note_on_c, 1, 52, 60
3, 7296, Note_on_c, 1, 60, 60
3, 7392, Note_on_c, 1, 52, 0
3, 7392, Note_on_c, 1, 55, 60
3, 7424, Note_on_c, 1, 55, 0
3, 7488, Note_on_c, 1, 55, 60
3, 7520, Note_on_c, 1, 55, 0
3, 7584, Note_on_c, 1, 55, 60
3, 7616, Note_on_c, 1, 55, 0
3, 7632, Note_on_c, 1, 60, 0
3, 7680, Note_on_c, 1, 48, 60
3, 7680, Note_on_c, 1, 52, 60
3, 7774, Note_on_c, 1, 52, 0
3, 7776, Note_on_c, 1, 55, 60
3, 7808, Note_on_c, 1, 55, 0
3, 7872, Note_on_c, 1, 55, 60
3, 7904, Note_on_c, 1, 55, 0
3, 7968, Note_on_c, 1, 55, 60
3, 8016, Note_on_c, 1, 48, 0
3, 8062, Note_on_c, 1, 55, 0
3, 8064, Note_on_c, 1, 50, 60
3, 8064, Note_on_c, 1, 53, 60
3, 8160, Note_on_c, 1, 53, 0
3, 8160, Note_on_c, 1, 55, 60
3, 8192, Note_on_c, 1, 55, 0
3, 8256, Note_on_c, 1, 55, 60
3, 8288, Note_on_c, 1, 55, 0
3, 8352, Note_on_c, 1, 55, 60
3, 8384, Note_on_c, 1, 55, 0
3, 8400, Note_on_c, 1, 50, 0
3, 8448, Note_on_c, 1, 47, 60
3, 8448, Note_on_c, 1, 53, 60
3, 8544, Note_on_c, 1, 53, 0
3, 8544, Note_on_c, 1, 55, 60
3, 8576, Note_on_c, 1, 55, 0
3, 8640, Note_on_c, 1, 55, 60
3, 8672, Note_on_c, 1, 55, 0
3, 8736, Note_on_c, 1, 55, 60
3, 8784, Note_on_c, 1, 47, 0
3, 8830, Note_on_c, 1, 55, 0
3, 8832, Note_on_c, 1, 48, 60
3, 8832, Note_on_c, 1, 52, 60
3, 8992, Note_on_c, 1, 48, 0
3, 8992, Note_on_c, 1, 52, 0
3, 9984, Note_on_c, 1, 60, 30
3, 9984, Note_on_c, 1, 64, 30
3, 10080, Note_on_c, 1, 60, 0
3, 10080, Note_on_c, 1, 64, 0
3, 10080, Note_on_c, 1, 67, 30
3, 10176, Note_on_c, 1, 67, 0
3, 10176, Note_on_c, 1, 60, 30
3, 10176, Note_on_c, 1, 64, 30
3, 10272, Note_on_c, 1, 60, 0
3, 10272, Note_on_c, 1, 64, 0
3, 10272, Note_on_c, 1, 67, 30
3, 10368, Note_on_c, 1, 67, 0
3, 10368, Note_on_c, 1, 62, 30
3, 10368, Note_on_c, 1, 65, 30
3, 10464, Note_on_c, 1, 62, 0
3, 10464, Note_on_c, 1, 65, 0
3, 10464, Note_on_c, 1, 67, 30
3, 10560, Note_on_c, 1, 67, 0
3, 10560, Note_on_c, 1, 62, 30
3, 10560, Note_on_c, 1, 65, 30
3, 10656, Note_on_c, 1, 62, 0
3, 10656, Note_on_c, 1, 65, 0
3, 10656, Note_on_c, 1, 67, 30
3, 10752, Note_on_c, 1, 67, 0
3, 10752, Note_on_c, 1, 60, 30
3, 10752, Note_on_c, 1, 64, 30
3, 10848, Note_on_c, 1, 60, 0
3, 10848, Note_on_c, 1, 64, 0
3, 10848, Note_on_c, 1, 67, 30
3, 10944, Note_on_c, 1, 67, 0
3, 10944, Note_on_c, 1, 60, 30
3, 10944, Note_on_c, 1, 64, 30
3, 11040, Note_on_c, 1, 60, 0
3, 11040, Note_on_c, 1, 64, 0
3, 11040, Note_on_c, 1, 67, 30
3, 11136, Note_on_c, 1, 67, 0
3, 11136, Note_on_c, 1, 59, 30
3, 11136, Note_on_c, 1, 62, 30
3, 11232, Note_on_c, 1, 59, 0
3, 11232, Note_on_c, 1, 62, 0
3, 11232, Note_on_c, 1, 67, 30
3, 11328, Note_on_c, 1, 67, 0
3, 11328, Note_on_c, 1, 59, 30
3, 11328, Note_on_c, 1, 62, 30
3, 11424, Note_on_c, 1, 59, 0
3, 11424, Note_on_c, 1, 62, 0
3, 11424, Note_on_c, 1, 67, 30
3, 11520, Note_on_c, 1, 67, 0
3, 11520, Note_on_c, 1, 57, 30
3, 11520, Note_on_c, 1, 60, 30
3, 11616, Note_on_c, 1, 57, 0
3, 11616, Note_on_c, 1, 60, 0
3, 11616, Note_on_c, 1, 65, 30
3, 11712, Note_on_c, 1, 65, 0
3, 11712, Note_on_c, 1, 59, 30
3, 11712, Note_on_c, 1, 62, 30
3, 11808, Note_on_c, 1, 59, 0
3, 11808, Note_on_c, 1, 62, 0
3, 11808, Note_on_c, 1, 67, 30
3, 11904, Note_on_c, 1, 67, 0
3, 11904, Note_on_c, 1, 60, 30
3, 11904, Note_on_c, 1, 64, 30
3, 12000, Note_on_c, 1, 60, 0
3, 12000, Note_on_c, 1, 64, 0
3, 12000, Note_on_c, 1, 67, 30
3, 12032, Note_on_c, 1, 67, 0
3, 12096, Note_on_c, 1, 53, 30
3, 12192, Note_on_c, 1, 53, 0
3, 12192, Note_on_c, 1, 65, 30
3, 12288, Note_on_c, 1, 65, 0
3, 12288, Note_on_c, 1, 55, 30
3, 12384, Note_on_c, 1, 55, 0
3, 12384, Note_on_c, 1, 64, 30
3, 12480, Note_on_c, 1, 64, 0
3, 12480, Note_on_c, 1, 55, 30
3, 12576, Note_on_c, 1, 55, 0
3, 12576, Note_on_c, 1, 65, 30
3, 12670, Note_on_c, 1, 65, 0
3, 12720, Note_on_c, 1, 48, 30
3, 12766, Note_on_c, 1, 48, 0
3, 12768, Note_on_c, 1, 52, 30
3, 12814, Note_on_c, 1, 52, 0
3, 12816, Note_on_c, 1, 55, 30
3, 12862, Note_on_c, 1, 55, 0
3, 12864, Note_on_c, 1, 60, 30
3, 12910, Note_on_c, 1, 60, 0
3, 12912, Note_on_c, 1, 55, 30
3, 12958, Note_on_c, 1, 55, 0
3, 12960, Note_on_c, 1, 52, 30
3, 13006, Note_on_c, 1, 52, 0
3, 13008, Note_on_c, 1, 55, 30
3, 13054, Note_on_c, 1, 55, 0
3, 13056, Note_on_c, 1, 48, 30
3, 13216, Note_on_c, 1, 48, 0
3, 13488, Note_on_c, 1, 45, 30
3, 13536, Note_on_c, 1, 45, 0
3, 13536, Note_on_c, 1, 48, 30
3, 13584, Note_on_c, 1, 48, 0
3, 13584, Note_on_c, 1, 54, 30
3, 13632, Note_on_c, 1, 54, 0
3, 13632, Note_on_c, 1, 57, 30
3, 13680, Note_on_c, 1, 57, 0
3, 13680, Note_on_c, 1, 54, 30
3, 13728, Note_on_c, 1, 54, 0
3, 13728, Note_on_c, 1, 48, 30
3, 13776, Note_on_c, 1, 48, 0
3, 13776, Note_on_c, 1, 54, 30
3, 13824, Note_on_c, 1, 54, 0
3, 13824, Note_on_c, 1, 45, 30
3, 13984, Note_on_c, 1, 45, 0
3, 14256, Note_on_c, 1, 43, 30
3, 14304, Note_on_c, 1, 43, 0
3, 14304, Note_on_c, 1, 47, 30
3, 14352, Note_on_c, 1, 47, 0
3, 14352, Note_on_c, 1, 50, 30
3, 14400, Note_on_c, 1, 50, 0
3, 14400, Note_on_c, 1, 55, 30
3, 14448, Note_on_c, 1, 55, 0
3, 14448, Note_on_c, 1, 50, 30
3, 14496, Note_on_c, 1, 50, 0
3, 14496, Note_on_c, 1, 47, 30
3, 14544, Note_on_c, 1, 47, 0
3, 14544, Note_on_c, 1, 50, 30
3, 14592, Note_on_c, 1, 50, 0
3, 14592, Note_on_c, 1, 43, 30
3, 14752, Note_on_c, 1, 43, 0
3, 15024, Note_on_c, 1, 52, 30
3, 15070, Note_on_c, 1, 52, 0
3, 15072, Note_on_c, 1, 55, 30
3, 15118, Note_on_c, 1, 55, 0
3, 15120, Note_on_c, 1, 61, 30
3, 15166, Note_on_c, 1, 61, 0
3, 15168, Note_on_c, 1, 64, 30
3, 15214, Note_on_c, 1, 64, 0
3, 15216, Note_on_c, 1, 61, 30
3, 15262, Note_on_c, 1, 61, 0
3, 15264, Note_on_c, 1, 55, 30
3, 15310, Note_on_c, 1, 55, 0
3, 15312, Note_on_c, 1, 61, 30
3, 15358, Note_on_c, 1, 61, 0
3, 15360, Note_on_c, 1, 52, 30
3, 15520, Note_on_c, 1, 52, 0
3, 15744, Note_on_c, 1, 50, 30
3, 15838, Note_on_c, 1, 50, 0
3, 15840, Note_on_c, 1, 57, 30
3, 15934, Note_on_c, 1, 57, 0
3, 15936, Note_on_c, 1, 54, 75
3, 16030, Note_on_c, 1, 54, 0
3, 16032, Note_on_c, 1, 57, 75
3, 16126, Note_on_c, 1, 57, 0
3, 16128, Note_on_c, 1, 52, 30
3, 16222, Note_on_c, 1, 52, 0
3, 16224, Note_on_c, 1, 57, 30
3, 16318, Note_on_c, 1, 57, 0
3, 16320, Note_on_c, 1, 45, 30
3, 16414, Note_on_c, 1, 45, 0
3, 16416, Note_on_c, 1, 57, 30
3, 16510, Note_on_c, 1, 57, 0
3, 16512, Note_on_c, 1, 50, 30
3, 16606, Note_on_c, 1, 50, 0
3, 16608, Note_on_c, 1, 57, 30
3, 16702, Note_on_c, 1, 57, 0
3, 16704, Note_on_c, 1, 54, 30
3, 16798, Note_on_c, 1, 54, 0
3, 16800, Note_on_c, 1, 57, 30
3, 16894, Note_on_c, 1, 57, 0
3, 16896, Note_on_c, 1, 52, 30
3, 16990, Note_on_c, 1, 52, 0
3, 16992, Note_on_c, 1, 57, 30
3, 17086, Note_on_c, 1, 57, 0
3, 17088, Note_on_c, 1, 45, 30
3, 17182, Note_on_c, 1, 45, 0
3, 17184, Note_on_c, 1, 57, 30
3, 17278, Note_on_c, 1, 57, 0
3, 17280, Note_on_c, 1, 50, 30
3, 17374, Note_on_c, 1, 50, 0
3, 17376, Note_on_c, 1, 57, 30
3, 17470, Note_on_c, 1, 57, 0
3, 17472, Note_on_c, 1, 54, 30
3, 17566, Note_on_c, 1, 54, 0
3, 17568, Note_on_c, 1, 57, 30
3, 17662, Note_on_c, 1, 57, 0
3, 17664, Note_on_c, 1, 52, 30
3, 17758, Note_on_c, 1, 52, 0
3, 17760, Note_on_c, 1, 57, 30
3, 17854, Note_on_c, 1, 57, 0
3, 17856, Note_on_c, 1, 45, 30
3, 17856, Note_on_c, 1, 55, 30
3, 17950, Note_on_c, 1, 45, 0
3, 17950, Note_on_c, 1, 55, 0
3, 17952, Note_on_c, 1, 57, 30
3, 18046, Note_on_c, 1, 57, 0
3, 18048, Note_on_c, 1, 50, 30
3, 18048, Note_on_c, 1, 54, 30
3, 18208, Note_on_c, 1, 50, 0
3, 18208, Note_on_c, 1, 54, 0
3, 18816, Note_on_c, 1, 62, 45
3, 18816, Note_on_c, 1, 66, 45
3, 18848, Note_on_c, 1, 62, 0
3, 18848, Note_on_c, 1, 66, 0
3, 18912, Note_on_c, 1, 64, 45
3, 18912, Note_on_c, 1, 67, 45
3, 18944, Note_on_c, 1, 64, 0
3, 18944, Note_on_c, 1, 67, 0
3, 19008, Note_on_c, 1, 66, 45
3, 19008, Note_on_c, 1, 69, 45
3, 19040, Note_on_c, 1, 66, 0
3, 19040, Note_on_c, 1, 69, 0
3, 19104, Note_on_c, 1, 64, 45
3, 19104, Note_on_c, 1, 67, 45
3, 19136, Note_on_c, 1, 64, 0
3, 19136, Note_on_c, 1, 67, 0
3, 19200, Note_on_c, 1, 66, 45
3, 19200, Note_on_c, 1, 69, 45
3, 19232, Note_on_c, 1, 66, 0
3, 19232, Note_on_c, 1, 69, 0
3, 19296, Note_on_c, 1, 64, 45
3, 19296, Note_on_c, 1, 67, 45
3, 19328, Note_on_c, 1, 64, 0
3, 19328, Note_on_c, 1, 67, 0
3, 19392, Note_on_c, 1, 66, 45
3, 19392, Note_on_c, 1, 69, 45
3, 19424, Note_on_c, 1, 66, 0
3, 19424, Note_on_c, 1, 69, 0
3, 19488, Note_on_c, 1, 64, 45
3, 19488, Note_on_c, 1, 67, 45
3, 19520, Note_on_c, 1, 64, 0
3, 19520, Note_on_c, 1, 67, 0
3, 19584, Note_on_c, 1, 67, 45
3, 19584, Note_on_c, 1, 71, 45
3, 19704, Note_on_c, 1, 67, 0
3, 19704, Note_on_c, 1, 71, 0
3, 19776, Note_on_c, 1, 67, 45
3, 19776, Note_on_c, 1, 71, 45
3, 19824, Note_on_c, 1, 67, 0
3, 19824, Note_on_c, 1, 71, 0
3, 20352, Note_on_c, 1, 66, 45
3, 20352, Note_on_c, 1, 69, 45
3, 20384, Note_on_c, 1, 66, 0
3, 20384, Note_on_c, 1, 69, 0
3, 20448, Note_on_c, 1, 64, 45
3, 20448, Note_on_c, 1, 67, 45
3, 20480, Note_on_c, 1, 64, 0
3, 20480, Note_on_c, 1, 67, 0
3, 20544, Note_on_c, 1, 62, 45
3, 20544, Note_on_c, 1, 66, 45
3, 20576, Note_on_c, 1, 62, 0
3, 20576, Note_on_c, 1, 66, 0
3, 20640, Note_on_c, 1, 64, 45
3, 20640, Note_on_c, 1, 67, 45
3, 20672, Note_on_c, 1, 64, 0
3, 20672, Note_on_c, 1, 67, 0
3, 20736, Note_on_c, 1, 66, 45
3, 20736, Note_on_c, 1, 69, 45
3, 20768, Note_on_c, 1, 66, 0
3, 20768, Note_on_c, 1, 69, 0
3, 20832, Note_on_c, 1, 64, 45
3, 20832, Note_on_c, 1, 67, 45
3, 20864, Note_on_c, 1, 64, 0
3, 20864, Note_on_c, 1, 67, 0
3, 20928, Note_on_c, 1, 66, 45
3, 20928, Note_on_c, 1, 69, 45
3, 20960, Note_on_c, 1, 66, 0
3, 20960, Note_on_c, 1, 69, 0
3, 21024, Note_on_c, 1, 62, 45
3, 21024, Note_on_c, 1, 66, 45
3, 21056, Note_on_c, 1, 62, 0
3, 21056, Note_on_c, 1, 66, 0
3, 21120, Note_on_c, 1, 67, 45
3, 21120, Note_on_c, 1, 71, 45
3, 21240, Note_on_c, 1, 67, 0
3, 21240, Note_on_c, 1, 71, 0
3, 21312, Note_on_c, 1, 67, 45
3, 21312, Note_on_c, 1, 71, 45
3, 21360, Note_on_c, 1, 67, 0
3, 21360, Note_on_c, 1, 71, 0
3, 21888, Note_on_c, 1, 68, 45
3, 21888, Note_on_c, 1, 71, 45
3, 21920, Note_on_c, 1, 68, 0
3, 21920, Note_on_c, 1, 71, 0
3, 21984, Note_on_c, 1, 66, 50
3, 21984, Note_on_c, 1, 69, 50
3, 22016, Note_on_c, 1, 66, 0
3, 22016, Note_on_c, 1, 69, 0
3, 22080, Note_on_c, 1, 64, 56
3, 22080, Note_on_c, 1, 68, 56
3, 22112, Note_on_c, 1, 64, 0
3, 22112, Note_on_c, 1, 68, 0
3, 22176, Note_on_c, 1, 66, 62
3, 22176, Note_on_c, 1, 69, 62
3, 22208, Note_on_c, 1, 66, 0
3, 22208, Note_on_c, 1, 69, 0
3, 22272, Note_on_c, 1, 68, 68
3, 22272, Note_on_c, 1, 71, 68
3, 22304, Note_on_c, 1, 68, 0
3, 22304, Note_on_c, 1, 71, 0
3, 22368, Note_on_c, 1, 66, 74
3, 22368, Note_on_c, 1, 69, 74
3, 22400, Note_on_c, 1, 66, 0
3, 22400, Note_on_c, 1, 69, 0
3, 22464, Note_on_c, 1, 68, 80
3, 22464, Note_on_c, 1, 71, 80
3, 22496, Note_on_c, 1, 68, 0
3, 22496, Note_on_c, 1, 71, 0
3, 22560, Note_on_c, 1, 66, 86
3, 22560, Note_on_c, 1, 69, 86
3, 22592, Note_on_c, 1, 66, 0
3, 22592, Note_on_c, 1, 69, 0
3, 22656, Note_on_c, 1, 69, 92
3, 22656, Note_on_c, 1, 72, 92
3, 22704, Note_on_c, 1, 69, 0
3, 22704, Note_on_c, 1, 72, 0
3, 22848, Note_on_c, 1, 69, 92
3, 22848, Note_on_c, 1, 72, 92
3, 22896, Note_on_c, 1, 69, 0
3, 22896, Note_on_c, 1, 72, 0
3, 23232, Note_on_c, 1, 66, 92
3, 23424, Note_on_c, 1, 66, 0
3, 23424, Note_on_c, 1, 67, 45
3, 23584, Note_on_c, 1, 67, 0
3, 23616, Note_on_c, 1, 64, 45
3, 23776, Note_on_c, 1, 64, 0
3, 23808, Note_on_c, 1, 60, 45
3, 23968, Note_on_c, 1, 60, 0
3, 24000, Note_on_c, 1, 62, 45
3, 24160, Note_on_c, 1, 62, 0
3, 24192, Note_on_c, 1, 59, 45
3, 24352, Note_on_c, 1, 59, 0
3, 24384, Note_on_c, 1, 56, 45
3, 24544, Note_on_c, 1, 56, 0
3, 24576, Note_on_c, 1, 57, 45
3, 24736, Note_on_c, 1, 57, 0
3, 24768, Note_on_c, 1, 54, 45
3, 24928, Note_on_c, 1, 54, 0
3, 24960, Note_on_c, 1, 55, 45
3, 25120, Note_on_c, 1, 55, 0
3, 25152, Note_on_c, 1, 52, 42
3, 25312, Note_on_c, 1, 52, 0
3, 25344, Note_on_c, 1, 48, 38
3, 25504, Note_on_c, 1, 48, 0
3, 25536, Note_on_c, 1, 50, 34
3, 25696, Note_on_c, 1, 50, 0
3, 25728, Note_on_c, 1, 43, 30
3, 25822, Note_on_c, 1, 43, 0
3, 25824, Note_on_c, 1, 47, 30
3, 25918, Note_on_c, 1, 47, 0
3, 25920, Note_on_c, 1, 50, 30
3, 26014, Note_on_c, 1, 50, 0
3, 26016, Note_on_c, 1, 48, 30
3, 26110, Note_on_c, 1, 48, 0
3, 26112, Note_on_c, 1, 47, 30
3, 26206, Note_on_c, 1, 47, 0
3, 26208, Note_on_c, 1, 45, 30
3, 26302, Note_on_c, 1, 45, 0
3, 26304, Note_on_c, 1, 47, 30
3, 26398, Note_on_c, 1, 47, 0
3, 26400, Note_on_c, 1, 43, 30
3, 26494, Note_on_c, 1, 43, 0
3, 26496, Note_on_c, 1, 48, 30
3, 26590, Note_on_c, 1, 48, 0
3, 26592, Note_on_c, 1, 43, 30
3, 26686, Note_on_c, 1, 43, 0
3, 26688, Note_on_c, 1, 48, 30
3, 26782, Note_on_c, 1, 48, 0
3, 26784, Note_on_c, 1, 43, 30
3, 26878, Note_on_c, 1, 43, 0
3, 26880, Note_on_c, 1, 48, 30
3, 26974, Note_on_c, 1, 48, 0
3, 26976, Note_on_c, 1, 43, 30
3, 27070, Note_on_c, 1, 43, 0
3, 27072, Note_on_c, 1, 48, 30
3, 27166, Note_on_c, 1, 48, 0
3, 27168, Note_on_c, 1, 43, 30
3, 27262, Note_on_c, 1, 43, 0
3, 27264, Note_on_c, 1, 47, 30
3, 27358, Note_on_c, 1, 47, 0
3, 27360, Note_on_c, 1, 43, 30
3, 27454, Note_on_c, 1, 43, 0
3, 27456, Note_on_c, 1, 50, 30
3, 27550, Note_on_c, 1, 50, 0
3, 27552, Note_on_c, 1, 48, 30
3, 27646, Note_on_c, 1, 48, 0
3, 27648, Note_on_c, 1, 47, 30
3, 27742, Note_on_c, 1, 47, 0
3, 27744, Note_on_c, 1, 45, 30
3, 27838, Note_on_c, 1, 45, 0
3, 27840, Note_on_c, 1, 47, 30
3, 27934, Note_on_c, 1, 47, 0
3, 27936, Note_on_c, 1, 43, 30
3, 28030, Note_on_c, 1, 43, 0
3, 28032, Note_on_c, 1, 48, 30
3, 28126, Note_on_c, 1, 48, 0
3, 28128, Note_on_c, 1, 43, 30
3, 28222, Note_on_c, 1, 43, 0
3, 28224, Note_on_c, 1, 48, 30
3, 28318, Note_on_c, 1, 48, 0
3, 28320, Note_on_c, 1, 43, 30
3, 28414, Note_on_c, 1, 43, 0
3, 28416, Note_on_c, 1, 48, 30
3, 28510, Note_on_c, 1, 48, 0
3, 28512, Note_on_c, 1, 43, 30
3, 28606, Note_on_c, 1, 43, 0
3, 28608, Note_on_c, 1, 48, 30
3, 28702, Note_on_c, 1, 48, 0
3, 28704, Note_on_c, 1, 43, 30
3, 28798, Note_on_c, 1, 43, 0
3, 28800, Note_on_c, 1, 47, 30
3, 28894, Note_on_c, 1, 47, 0
3, 28896, Note_on_c, 1, 43, 32
3, 28990, Note_on_c, 1, 43, 0
3, 28992, Note_on_c, 1, 47, 34
3, 29086, Note_on_c, 1, 47, 0
3, 29088, Note_on_c, 1, 43, 36
3, 29182, Note_on_c, 1, 43, 0
3, 29184, Note_on_c, 1, 48, 38
3, 29278, Note_on_c, 1, 48, 0
3, 29280, Note_on_c, 1, 43, 40
3, 29374, Note_on_c, 1, 43, 0
3, 29376, Note_on_c, 1, 48, 42
3, 29470, Note_on_c, 1, 48, 0
3, 29472, Note_on_c, 1, 43, 44
3, 29566, Note_on_c, 1, 43, 0
3, 29568, Note_on_c, 1, 50, 46
3, 29662, Note_on_c, 1, 50, 0
3, 29664, Note_on_c, 1, 43, 48
3, 29758, Note_on_c, 1, 43, 0
3, 29760, Note_on_c, 1, 50, 50
3, 29854, Note_on_c, 1, 50, 0
3, 29856, Note_on_c, 1, 43, 52
3, 29950, Note_on_c, 1, 43, 0
3, 29952, Note_on_c, 1, 52, 54
3, 30046, Note_on_c, 1, 52, 0
3, 30048, Note_on_c, 1, 43, 56
3, 30142, Note_on_c, 1, 43, 0
3, 30144, Note_on_c, 1, 52, 58
3, 30238, Note_on_c, 1, 52, 0
3, 30240, Note_on_c, 1, 43, 60
3, 30334, Note_on_c, 1, 43, 0
3, 30336, Note_on_c, 1, 53, 62
3, 30430, Note_on_c, 1, 53, 0
3, 30432, Note_on_c, 1, 43, 64
3, 30526, Note_on_c, 1, 43, 0
3, 30528, Note_on_c, 1, 54, 66
3, 30622, Note_on_c, 1, 54, 0
3, 30624, Note_on_c, 1, 43, 68
3, 30718, Note_on_c, 1, 43, 0
3, 30720, Note_on_c, 1, 55, 70
3, 30814, Note_on_c, 1, 55, 0
3, 30816, Note_on_c, 1, 43, 72
3, 30910, Note_on_c, 1, 43, 0
3, 30912, Note_on_c, 1, 56, 75
3, 31006, Note_on_c, 1, 56, 0
3, 31008, Note_on_c, 1, 43, 75
3, 31102, Note_on_c, 1, 43, 0
3, 31104, Note_on_c, 1, 55, 30
3, 31198, Note_on_c, 1, 55, 0
3, 31200, Note_on_c, 1, 43, 30
3, 31294, Note_on_c, 1, 43, 0
3, 31296, Note_on_c, 1, 54, 30
3, 31390, Note_on_c, 1, 54, 0
3, 31392, Note_on_c, 1, 43, 30
3, 31486, Note_on_c, 1, 43, 0
3, 31488, Note_on_c, 1, 55, 30
3, 31582, Note_on_c, 1, 55, 0
3, 31584, Note_on_c, 1, 43, 30
3, 31678, Note_on_c, 1, 43, 0
3, 31680, Note_on_c, 1, 56, 30
3, 31774, Note_on_c, 1, 56, 0
3, 31776, Note_on_c, 1, 43, 30
3, 31870, Note_on_c, 1, 43, 0
3, 31872, Note_on_c, 1, 55, 30
3, 31966, Note_on_c, 1, 55, 0
3, 31968, Note_on_c, 1, 43, 30
3, 32062, Note_on_c, 1, 43, 0
3, 32064, Note_on_c, 1, 54, 30
3, 32158, Note_on_c, 1, 54, 0
3, 32160, Note_on_c, 1, 43, 30
3, 32254, Note_on_c, 1, 43, 0
3, 32256, Note_on_c, 1, 55, 30
3, 32350, Note_on_c, 1, 55, 0
3, 32352, Note_on_c, 1, 43, 30
3, 32446, Note_on_c, 1, 43, 0
3, 32448, Note_on_c, 1, 57, 30
3, 32542, Note_on_c, 1, 57, 0
3, 32544, Note_on_c, 1, 43, 30
3, 32638, Note_on_c, 1, 43, 0
3, 32640, Note_on_c, 1, 55, 30
3, 32734, Note_on_c, 1, 55, 0
3, 32736, Note_on_c, 1, 43, 30
3, 32830, Note_on_c, 1, 43, 0
3, 32832, Note_on_c, 1, 53, 30
3, 32926, Note_on_c, 1, 53, 0
3, 32928, Note_on_c, 1, 43, 30
3, 33022, Note_on_c, 1, 43, 0
3, 33024, Note_on_c, 1, 48, 30
3, 33024, Note_on_c, 1, 52, 30
3, 33118, Note_on_c, 1, 48, 0
3, 33118, Note_on_c, 1, 52, 0
3, 33120, Note_on_c, 1, 53, 30
3, 33214, Note_on_c, 1, 53, 0
3, 33408, Note_on_c, 1, 62, 30
3, 33408, Note_on_c, 1, 65, 30
3, 33502, Note_on_c, 1, 62, 0
3, 33502, Note_on_c, 1, 65, 0
3, 33504, Note_on_c, 1, 67, 30
3, 33598, Note_on_c, 1, 67, 0
3, 33600, Note_on_c, 1, 62, 30
3, 33600, Note_on_c, 1, 65, 30
3, 33694, Note_on_c, 1, 62, 0
3, 33694, Note_on_c, 1, 65, 0
3, 33696, Note_on_c, 1, 67, 30
3, 33790, Note_on_c, 1, 67, 0
3, 33792, Note_on_c, 1, 60, 30
3, 33792, Note_on_c, 1, 64, 30
3, 33886, Note_on_c, 1, 60, 0
3, 33886, Note_on_c, 1, 64, 0
3, 33888, Note_on_c, 1, 67, 30
3, 33982, Note_on_c, 1, 67, 0
3, 33984, Note_on_c, 1, 60, 30
3, 33984, Note_on_c, 1, 64, 30
3, 34078, Note_on_c, 1, 60, 0
3, 34078, Note_on_c, 1, 64, 0
3, 34080, Note_on_c, 1, 67, 30
3, 34174, Note_on_c, 1, 67, 0
3, 34176, Note_on_c, 1, 59, 30
3, 34176, Note_on_c, 1, 62, 30
3, 34270, Note_on_c, 1, 59, 0
3, 34270, Note_on_c, 1, 62, 0
3, 34272, Note_on_c, 1, 67, 30
3, 34366, Note_on_c, 1, 67, 0
3, 34368, Note_on_c, 1, 59, 30
3, 34368, Note_on_c, 1, 62, 30
3, 34462, Note_on_c, 1, 59, 0
3, 34462, Note_on_c, 1, 62, 0
3, 34464, Note_on_c, 1, 67, 30
3, 34558, Note_on_c, 1, 67, 0
3, 34560, Note_on_c, 1, 57, 30
3, 34560, Note_on_c, 1, 60, 30
3, 34654, Note_on_c, 1, 57, 0
3, 34654, Note_on_c, 1, 60, 0
3, 34656, Note_on_c, 1, 65, 30
3, 34750, Note_on_c, 1, 65, 0
3, 34752, Note_on_c, 1, 59, 30
3, 34752, Note_on_c, 1, 62, 30
3, 34846, Note_on_c, 1, 59, 0
3, 34846, Note_on_c, 1, 62, 0
3, 34848, Note_on_c, 1, 67, 30
3, 34942, Note_on_c, 1, 67, 0
3, 34944, Note_on_c, 1, 60, 30
3, 35038, Note_on_c, 1, 60, 0
3, 35040, Note_on_c, 1, 64, 30
3, 35134, Note_on_c, 1, 64, 0
3, 35136, Note_on_c, 1, 52, 30
3, 35136, Note_on_c, 1, 55, 30
3, 35230, Note_on_c, 1, 52, 0
3, 35230, Note_on_c, 1, 55, 0
3, 35232, Note_on_c, 1, 60, 30
3, 35326, Note_on_c, 1, 60, 0
3, 35328, Note_on_c, 1, 53, 30
3, 35328, Note_on_c, 1, 53, 30
3, 35422, Note_on_c, 1, 53, 0
3, 35424, Note_on_c, 1, 57, 30
3, 35518, Note_on_c, 1, 57, 0
3, 35520, Note_on_c, 1, 62, 30
3, 35614, Note_on_c, 1, 62, 0
3, 35616, Note_on_c, 1, 65, 30
3, 35664, Note_on_c, 1, 53, 0
3, 35710, Note_on_c, 1, 65, 0
3, 35712, Note_on_c, 1, 55, 30
3, 35808, Note_on_c, 1, 64, 30
3, 35902, Note_on_c, 1, 64, 0
3, 35904, Note_on_c, 1, 60, 30
3, 35936, Note_on_c, 1, 60, 0
3, 35968, Note_on_c, 1, 55, 0
3, 36096, Note_on_c, 1, 60, 30
3, 36096, Note_on_c, 1, 64, 30
3, 36190, Note_on_c, 1, 60, 0
3, 36190, Note_on_c, 1, 64, 0
3, 36192, Note_on_c, 1, 67, 30
3, 36286, Note_on_c, 1, 67, 0
3, 36288, Note_on_c, 1, 60, 30
3, 36288, Note_on_c, 1, 64, 30
3, 36382, Note_on_c, 1, 60, 0
3, 36382, Note_on_c, 1, 64, 0
3, 36384, Note_on_c, 1, 67, 30
3, 36478, Note_on_c, 1, 67, 0
3, 36480, Note_on_c, 1, 62, 30
3, 36480, Note_on_c, 1, 65, 30
3, 36576, Note_on_c, 1, 62, 0
3, 36576, Note_on_c, 1, 65, 0
3, 36576, Note_on_c, 1, 67, 30
3, 36672, Note_on_c, 1, 67, 0
3, 36672, Note_on_c, 1, 62, 30
3, 36672, Note_on_c, 1, 65, 30
3, 36768, Note_on_c, 1, 62, 0
3, 36768, Note_on_c, 1, 65, 0
3, 36768, Note_on_c, 1, 67, 30
3, 36864, Note_on_c, 1, 67, 0
3, 36864, Note_on_c, 1, 60, 30
3, 36864, Note_on_c, 1, 64, 30
3, 36960, Note_on_c, 1, 60, 0
3, 36960, Note_on_c, 1, 64, 0
3, 36960, Note_on_c, 1, 67, 30
3, 37056, Note_on_c, 1, 67, 0
3, 37056, Note_on_c, 1, 60, 30
3, 37056, Note_on_c, 1, 64, 30
3, 37152, Note_on_c, 1, 60, 0
3, 37152, Note_on_c, 1, 64, 0
3, 37152, Note_on_c, 1, 67, 30
3, 37248, Note_on_c, 1, 67, 0
3, 37248, Note_on_c, 1, 59, 30
3, 37248, Note_on_c, 1, 62, 30
3, 37344, Note_on_c, 1, 59, 0
3, 37344, Note_on_c, 1, 62, 0
3, 37344, Note_on_c, 1, 67, 30
3, 37440, Note_on_c, 1, 67, 0
3, 37440, Note_on_c, 1, 59, 30
3, 37440, Note_on_c, 1, 62, 30
3, 37536, Note_on_c, 1, 59, 0
3, 37536, Note_on_c, 1, 62, 0
3, 37536, Note_on_c, 1, 67, 30
3, 37632, Note_on_c, 1, 67, 0
3, 37632, Note_on_c, 1, 57, 30
3, 37632, Note_on_c, 1, 60, 30
3, 37728, Note_on_c, 1, 57, 0
3, 37728, Note_on_c, 1, 60, 0
3, 37728, Note_on_c, 1, 65, 30
3, 37824, Note_on_c, 1, 65, 0
3, 37824, Note_on_c, 1, 59, 30
3, 37824, Note_on_c, 1, 62, 30
3, 37920, Note_on_c, 1, 59, 0
3, 37920, Note_on_c, 1, 62, 0
3, 37920, Note_on_c, 1, 67, 30
3, 38016, Note_on_c, 1, 67, 0
3, 38016, Note_on_c, 1, 60, 30
3, 38016, Note_on_c, 1, 64, 30
3, 38112, Note_on_c, 1, 60, 0
3, 38112, Note_on_c, 1, 64, 0
3, 38112, Note_on_c, 1, 67, 30
3, 38144, Note_on_c, 1, 67, 0
3, 38208, Note_on_c, 1, 53, 30
3, 38302, Note_on_c, 1, 53, 0
3, 38304, Note_on_c, 1, 65, 30
3, 38398, Note_on_c, 1, 65, 0
3, 38400, Note_on_c, 1, 55, 30
3, 38494, Note_on_c, 1, 55, 0
3, 38496, Note_on_c, 1, 64, 30
3, 38590, Note_on_c, 1, 64, 0
3, 38592, Note_on_c, 1, 55, 30
3, 38686, Note_on_c, 1, 55, 0
3, 38688, Note_on_c, 1, 65, 30
3, 38782, Note_on_c, 1, 65, 0
3, 38784, Note_on_c, 1, 48, 30
3, 38878, Note_on_c, 1, 48, 0
3, 38880, Note_on_c, 1, 60, 30
3, 38974, Note_on_c, 1, 60, 0
3, 38976, Note_on_c, 1, 48, 30
3, 39008, Note_on_c, 1, 48, 0
3, 39168, Note_on_c, 1, 48, 92
3, 39168, Note_on_c, 1, 55, 92
3, 39200, Note_on_c, 1, 48, 0
3, 39200, Note_on_c, 1, 55, 0
3, 39264, Note_on_c, 1, 48, 127
3, 39264, Note_on_c, 1, 55, 92
3, 39424, Note_on_c, 1, 48, 0
3, 39456, Note_on_c, 1, 50, 92
3, 39502, Note_on_c, 1, 50, 0
3, 39504, Note_on_c, 1, 51, 92
3, 39520, Note_on_c, 1, 55, 0
3, 39536, Note_on_c, 1, 51, 0
3, 39552, Note_on_c, 1, 50, 92
3, 39582, Note_on_c, 1, 50, 0
3, 39584, Note_on_c, 1, 53, 92
3, 39614, Note_on_c, 1, 53, 0
3, 39616, Note_on_c, 1, 56, 92
3, 39646, Note_on_c, 1, 56, 0
3, 39744, Note_on_c, 1, 62, 92
3, 39774, Note_on_c, 1, 62, 0
3, 39776, Note_on_c, 1, 65, 92
3, 39806, Note_on_c, 1, 65, 0
3, 39808, Note_on_c, 1, 68, 92
3, 39838, Note_on_c, 1, 68, 0
3, 39936, Note_on_c, 1, 50, 92
3, 39936, Note_on_c, 1, 59, 92
3, 39968, Note_on_c, 1, 50, 0
3, 39968, Note_on_c, 1, 59, 0
3, 40032, Note_on_c, 1, 50, 127
3, 40032, Note_on_c, 1, 59, 92
3, 40192, Note_on_c, 1, 50, 0
3, 40224, Note_on_c, 1, 51, 92
3, 40270, Note_on_c, 1, 51, 0
3, 40272, Note_on_c, 1, 53, 92
3, 40288, Note_on_c, 1, 59, 0
3, 40304, Note_on_c, 1, 53, 0
3, 40320, Note_on_c, 1, 51, 92
3, 40350, Note_on_c, 1, 51, 0
3, 40352, Note_on_c, 1, 55, 92
3, 40382, Note_on_c, 1, 55, 0
3, 40384, Note_on_c, 1, 60, 92
3, 40414, Note_on_c, 1, 60, 0
3, 40512, Note_on_c, 1, 63, 92
3, 40542, Note_on_c, 1, 63, 0
3, 40544, Note_on_c, 1, 67, 92
3, 40574, Note_on_c, 1, 67, 0
3, 40576, Note_on_c, 1, 72, 92
3, 40606, Note_on_c, 1, 72, 0
3, 40704, Note_on_c, 1, 64, 92
3, 40704, Note_on_c, 1, 67, 92
3, 40736, Note_on_c, 1, 64, 0
3, 40736, Note_on_c, 1, 67, 0
3, 40800, Note_on_c, 1, 64, 127
3, 40800, Note_on_c, 1, 67, 127
3, 40960, Note_on_c, 1, 64, 0
3, 40960, Note_on_c, 1, 67, 0
3, 40992, Note_on_c, 1, 65, 92
3, 40992, Note_on_c, 1, 68, 92
3, 41038, Note_on_c, 1, 65, 0
3, 41038, Note_on_c, 1, 68, 0
3, 41040, Note_on_c, 1, 67, 92
3, 41040, Note_on_c, 1, 70, 92
3, 41086, Note_on_c, 1, 67, 0
3, 41086, Note_on_c, 1, 70, 0
3, 41088, Note_on_c, 1, 65, 92
3, 41088, Note_on_c, 1, 68, 92
3, 41248, Note_on_c, 1, 65, 0
3, 41248, Note_on_c, 1, 68, 0
3, 41472, Note_on_c, 1, 53, 92
3, 41472, Note_on_c, 1, 56, 92
3, 41504, Note_on_c, 1, 53, 0
3, 41504, Note_on_c, 1, 56, 0
3, 41664, Note_on_c, 1, 54, 92
3, 41664, Note_on_c, 1, 57, 92
3, 41696, Note_on_c, 1, 54, 0
3, 41696, Note_on_c, 1, 57, 0
3, 41856, Note_on_c, 1, 55, 92
3, 41856, Note_on_c, 1, 62, 92
3, 41888, Note_on_c, 1, 55, 0
3, 41888, Note_on_c, 1, 62, 0
3, 42240, Note_on_c, 1, 48, 92
3, 42240, Note_on_c, 1, 55, 92
3, 42272, Note_on_c, 1, 48, 0
3, 42272, Note_on_c, 1, 55, 0
3, 42336, Note_on_c, 1, 48, 127
3, 42336, Note_on_c, 1, 55, 92
3, 42496, Note_on_c, 1, 48, 0
3, 42528, Note_on_c, 1, 50, 92
3, 42574, Note_on_c, 1, 50, 0
3, 42576, Note_on_c, 1, 51, 92
3, 42592, Note_on_c, 1, 55, 0
3, 42608, Note_on_c, 1, 51, 0
3, 42624, Note_on_c, 1, 50, 92
3, 42654, Note_on_c, 1, 50, 0
3, 42656, Note_on_c, 1, 53, 92
3, 42686, Note_on_c, 1, 53, 0
3, 42688, Note_on_c, 1, 58, 92
3, 42718, Note_on_c, 1, 58, 0
3, 42816, Note_on_c, 1, 62, 92
3, 42846, Note_on_c, 1, 62, 0
3, 42848, Note_on_c, 1, 65, 92
3, 42878, Note_on_c, 1, 65, 0
3, 42880, Note_on_c, 1, 70, 92
3, 42910, Note_on_c, 1, 70, 0
3, 43008, Note_on_c, 1, 46, 92
3, 43008, Note_on_c, 1, 58, 92
3, 43040, Note_on_c, 1, 46, 0
3, 43040, Note_on_c, 1, 58, 0
3, 43104, Note_on_c, 1, 46, 127
3, 43104, Note_on_c, 1, 58, 92
3, 43264, Note_on_c, 1, 46, 0
3, 43296, Note_on_c, 1, 48, 92
3, 43342, Note_on_c, 1, 48, 0
3, 43344, Note_on_c, 1, 50, 92
3, 43360, Note_on_c, 1, 58, 0
3, 43390, Note_on_c, 1, 50, 0
3, 43392, Note_on_c, 1, 51, 92
3, 43422, Note_on_c, 1, 51, 0
3, 43424, Note_on_c, 1, 55, 92
3, 43454, Note_on_c, 1, 55, 0
3, 43456, Note_on_c, 1, 58, 92
3, 43486, Note_on_c, 1, 58, 0
3, 43584, Note_on_c, 1, 63, 92
3, 43614, Note_on_c, 1, 63, 0
3, 43616, Note_on_c, 1, 67, 92
3, 43646, Note_on_c, 1, 67, 0
3, 43648, Note_on_c, 1, 70, 92
3, 43678, Note_on_c, 1, 70, 0
3, 43776, Note_on_c, 1, 55, 108
3, 43776, Note_on_c, 1, 58, 108
3, 43776, Note_on_c, 1, 63, 108
3, 43936, Note_on_c, 1, 55, 0
3, 43936, Note_on_c, 1, 58, 0
3, 43936, Note_on_c, 1, 63, 0
3, 44160, Note_on_c, 1, 56, 108
3, 44160, Note_on_c, 1, 60, 108
3, 44160, Note_on_c, 1, 63, 108
3, 44160, Note_on_c, 1, 65, 108
3, 44320, Note_on_c, 1, 56, 0
3, 44320, Note_on_c, 1, 60, 0
3, 44320, Note_on_c, 1, 63, 0
3, 44320, Note_on_c, 1, 65, 0
3, 44544, Note_on_c, 1, 58, 108
3, 44544, Note_on_c, 1, 63, 108
3, 44544, Note_on_c, 1, 67, 108
3, 44576, Note_on_c, 1, 58, 0
3, 44576, Note_on_c, 1, 63, 0
3, 44576, Note_on_c, 1, 67, 0
3, 44736, Note_on_c, 1, 46, 108
3, 44736, Note_on_c, 1, 58, 108
3, 44768, Note_on_c, 1, 46, 0
3, 44768, Note_on_c, 1, 58, 0
3, 44928, Note_on_c, 1, 51, 45
3, 44976, Note_on_c, 1, 51, 0
3, 44976, Note_on_c, 1, 58, 45
3, 45024, Note_on_c, 1, 58, 0
3, 45024, Note_on_c, 1, 55, 45
3, 45072, Note_on_c, 1, 55, 0
3, 45072, Note_on_c, 1, 58, 45
3, 45120, Note_on_c, 1, 58, 0
3, 45120, Note_on_c, 1, 46, 45
3, 45168, Note_on_c, 1, 46, 0
3, 45168, Note_on_c, 1, 58, 45
3, 45216, Note_on_c, 1, 58, 0
3, 45216, Note_on_c, 1, 55, 45
3, 45264, Note_on_c, 1, 55, 0
3, 45264, Note_on_c, 1, 58, 45
3, 45312, Note_on_c, 1, 58, 0
3, 45312, Note_on_c, 1, 51, 45
3, 45360, Note_on_c, 1, 51, 0
3, 45360, Note_on_c, 1, 58, 45
3, 45408, Note_on_c, 1, 58, 0
3, 45408, Note_on_c, 1, 55, 45
3, 45456, Note_on_c, 1, 55, 0
3, 45456, Note_on_c, 1, 58, 45
3, 45504, Note_on_c, 1, 58, 0
3, 45504, Note_on_c, 1, 46, 45
3, 45552, Note_on_c, 1, 46, 0
3, 45552, Note_on_c, 1, 58, 45
3, 45600, Note_on_c, 1, 58, 0
3, 45600, Note_on_c, 1, 55, 45
3, 45648, Note_on_c, 1, 55, 0
3, 45648, Note_on_c, 1, 58, 45
3, 45696, Note_on_c, 1, 58, 0
3, 45696, Note_on_c, 1, 53, 45
3, 45744, Note_on_c, 1, 53, 0
3, 45744, Note_on_c, 1, 58, 45
3, 45792, Note_on_c, 1, 58, 0
3, 45792, Note_on_c, 1, 56, 45
3, 45840, Note_on_c, 1, 56, 0
3, 45840, Note_on_c, 1, 58, 45
3, 45888, Note_on_c, 1, 58, 0
3, 45888, Note_on_c, 1, 46, 45
3, 45936, Note_on_c, 1, 46, 0
3, 45936, Note_on_c, 1, 58, 45
3, 45984, Note_on_c, 1, 58, 0
3, 45984, Note_on_c, 1, 56, 45
3, 46032, Note_on_c, 1, 56, 0
3, 46032, Note_on_c, 1, 58, 45
3, 46080, Note_on_c, 1, 58, 0
3, 46080, Note_on_c, 1, 50, 45
3, 46128, Note_on_c, 1, 50, 0
3, 46128, Note_on_c, 1, 58, 45
3, 46176, Note_on_c, 1, 58, 0
3, 46176, Note_on_c, 1, 56, 45
3, 46224, Note_on_c, 1, 56, 0
3, 46224, Note_on_c, 1, 58, 45
3, 46272, Note_on_c, 1, 58, 0
3, 46272, Note_on_c, 1, 46, 45
3, 46320, Note_on_c, 1, 46, 0
3, 46320, Note_on_c, 1, 58, 45
3, 46368, Note_on_c, 1, 58, 0
3, 46368, Note_on_c, 1, 56, 45
3, 46416, Note_on_c, 1, 56, 0
3, 46416, Note_on_c, 1, 58, 45
3, 46462, Note_on_c, 1, 58, 0
3, 46464, Note_on_c, 1, 51, 45
3, 46512, Note_on_c, 1, 51, 0
3, 46512, Note_on_c, 1, 58, 45
3, 46560, Note_on_c, 1, 58, 0
3, 46560, Note_on_c, 1, 55, 45
3, 46608, Note_on_c, 1, 55, 0
3, 46608, Note_on_c, 1, 58, 45
3, 46656, Note_on_c, 1, 58, 0
3, 46656, Note_on_c, 1, 46, 45
3, 46704, Note_on_c, 1, 46, 0
3, 46704, Note_on_c, 1, 58, 45
3, 46752, Note_on_c, 1, 58, 0
3, 46752, Note_on_c, 1, 55, 45
3, 46800, Note_on_c, 1, 55, 0
3, 46800, Note_on_c, 1, 58, 45
3, 46848, Note_on_c, 1, 58, 0
3, 46848, Note_on_c, 1, 51, 45
3, 46896, Note_on_c, 1, 51, 0
3, 46896, Note_on_c, 1, 58, 45
3, 46944, Note_on_c, 1, 58, 0
3, 46944, Note_on_c, 1, 55, 45
3, 46992, Note_on_c, 1, 55, 0
3, 46992, Note_on_c, 1, 58, 45
3, 47040, Note_on_c, 1, 58, 0
3, 47040, Note_on_c, 1, 46, 45
3, 47088, Note_on_c, 1, 46, 0
3, 47088, Note_on_c, 1, 58, 45
3, 47136, Note_on_c, 1, 58, 0
3, 47136, Note_on_c, 1, 55, 45
3, 47184, Note_on_c, 1, 55, 0
3, 47184, Note_on_c, 1, 58, 45
3, 47232, Note_on_c, 1, 58, 0
3, 47232, Note_on_c, 1, 53, 45
3, 47280, Note_on_c, 1, 53, 0
3, 47280, Note_on_c, 1, 58, 45
3, 47328, Note_on_c, 1, 58, 0
3, 47328, Note_on_c, 1, 56, 45
3, 47376, Note_on_c, 1, 56, 0
3, 47376, Note_on_c, 1, 58, 45
3, 47424, Note_on_c, 1, 58, 0
3, 47424, Note_on_c, 1, 46, 45
3, 47472, Note_on_c, 1, 46, 0
3, 47472, Note_on_c, 1, 58, 45
3, 47520, Note_on_c, 1, 58, 0
3, 47520, Note_on_c, 1, 56, 45
3, 47568, Note_on_c, 1, 56, 0
3, 47568, Note_on_c, 1, 58, 45
3, 47616, Note_on_c, 1, 58, 0
3, 47616, Note_on_c, 1, 50, 45
3, 47664, Note_on_c, 1, 50, 0
3, 47664, Note_on_c, 1, 58, 45
3, 47712, Note_on_c, 1, 58, 0
3, 47712, Note_on_c, 1, 56, 45
3, 47760, Note_on_c, 1, 56, 0
3, 47760, Note_on_c, 1, 58, 45
3, 47808, Note_on_c, 1, 58, 0
3, 47808, Note_on_c, 1, 46, 45
3, 47856, Note_on_c, 1, 46, 0
3, 47856, Note_on_c, 1, 58, 45
3, 47904, Note_on_c, 1, 58, 0
3, 47904, Note_on_c, 1, 56, 45
3, 47952, Note_on_c, 1, 56, 0
3, 47952, Note_on_c, 1, 58, 45
3, 47998, Note_on_c, 1, 58, 0
3, 48000, Note_on_c, 1, 49, 45
3, 48048, Note_on_c, 1, 49, 0
3, 48048, Note_on_c, 1, 58, 45
3, 48096, Note_on_c, 1, 58, 0
3, 48096, Note_on_c, 1, 55, 45
3, 48144, Note_on_c, 1, 55, 0
3, 48144, Note_on_c, 1, 58, 45
3, 48192, Note_on_c, 1, 58, 0
3, 48192, Note_on_c, 1, 48, 45
3, 48240, Note_on_c, 1, 48, 0
3, 48240, Note_on_c, 1, 58, 45
3, 48288, Note_on_c, 1, 58, 0
3, 48288, Note_on_c, 1, 55, 45
3, 48336, Note_on_c, 1, 55, 0
3, 48336, Note_on_c, 1, 58, 45
3, 48384, Note_on_c, 1, 58, 0
3, 48384, Note_on_c, 1, 52, 45
3, 48432, Note_on_c, 1, 52, 0
3, 48432, Note_on_c, 1, 58, 45
3, 48480, Note_on_c, 1, 58, 0
3, 48480, Note_on_c, 1, 55, 45
3, 48528, Note_on_c, 1, 55, 0
3, 48528, Note_on_c, 1, 58, 45
3, 48576, Note_on_c, 1, 58, 0
3, 48576, Note_on_c, 1, 48, 45
3, 48624, Note_on_c, 1, 48, 0
3, 48624, Note_on_c, 1, 58, 45
3, 48672, Note_on_c, 1, 58, 0
3, 48672, Note_on_c, 1, 55, 45
3, 48720, Note_on_c, 1, 55, 0
3, 48720, Note_on_c, 1, 58, 45
3, 48766, Note_on_c, 1, 58, 0
3, 48768, Note_on_c, 1, 51, 45
3, 48814, Note_on_c, 1, 51, 0
3, 48816, Note_on_c, 1, 60, 45
3, 48864, Note_on_c, 1, 60, 0
3, 48864, Note_on_c, 1, 57, 45
3, 48912, Note_on_c, 1, 57, 0
3, 48912, Note_on_c, 1, 60, 45
3, 48960, Note_on_c, 1, 60, 0
3, 48960, Note_on_c, 1, 50, 45
3, 49008, Note_on_c, 1, 50, 0
3, 49008, Note_on_c, 1, 60, 45
3, 49056, Note_on_c, 1, 60, 0
3, 49056, Note_on_c, 1, 57, 45
3, 49104, Note_on_c, 1, 57, 0
3, 49104, Note_on_c, 1, 60, 45
3, 49152, Note_on_c, 1, 60, 0
3, 49152, Note_on_c, 1, 54, 45
3, 49200, Note_on_c, 1, 54, 0
3, 49200, Note_on_c, 1, 60, 45
3, 49248, Note_on_c, 1, 60, 0
3, 49248, Note_on_c, 1, 57, 45
3, 49296, Note_on_c, 1, 57, 0
3, 49296, Note_on_c, 1, 60, 45
3, 49344, Note_on_c, 1, 60, 0
3, 49344, Note_on_c, 1, 50, 45
3, 49392, Note_on_c, 1, 50, 0
3, 49392, Note_on_c, 1, 60, 45
3, 49440, Note_on_c, 1, 60, 0
3, 49440, Note_on_c, 1, 57, 45
3, 49488, Note_on_c, 1, 57, 0
3, 49488, Note_on_c, 1, 60, 45
3, 49534, Note_on_c, 1, 60, 0
3, 49536, Note_on_c, 1, 55, 45
3, 49584, Note_on_c, 1, 55, 0
3, 49584, Note_on_c, 1, 62, 47
3, 49632, Note_on_c, 1, 62, 0
3, 49632, Note_on_c, 1, 59, 50
3, 49680, Note_on_c, 1, 59, 0
3, 49680, Note_on_c, 1, 62, 53
3, 49728, Note_on_c, 1, 62, 0
3, 49728, Note_on_c, 1, 53, 56
3, 49776, Note_on_c, 1, 53, 0
3, 49776, Note_on_c, 1, 62, 59
3, 49824, Note_on_c, 1, 62, 0
3, 49824, Note_on_c, 1, 59, 62
3, 49872, Note_on_c, 1, 59, 0
3, 49872, Note_on_c, 1, 62, 65
3, 49920, Note_on_c, 1, 62, 0
3, 49920, Note_on_c, 1, 51, 68
3, 49968, Note_on_c, 1, 51, 0
3, 49968, Note_on_c, 1, 60, 71
3, 50016, Note_on_c, 1, 60, 0
3, 50016, Note_on_c, 1, 55, 74
3, 50064, Note_on_c, 1, 55, 0
3, 50064, Note_on_c, 1, 60, 77
3, 50112, Note_on_c, 1, 60, 0
3, 50112, Note_on_c, 1, 48, 80
3, 50160, Note_on_c, 1, 48, 0
3, 50160, Note_on_c, 1, 60, 83
3, 50208, Note_on_c, 1, 60, 0
3, 50208, Note_on_c, 1, 55, 86
3, 50256, Note_on_c, 1, 55, 0
3, 50256, Note_on_c, 1, 60, 89
3, 50302, Note_on_c, 1, 60, 0
3, 50304, Note_on_c, 1, 43, 92
3, 50304, Note_on_c, 1, 47, 92
3, 50304, Note_on_c, 1, 50, 92
3, 50304, Note_on_c, 1, 55, 92
3, 50336, Note_on_c, 1, 43, 0
3, 50336, Note_on_c, 1, 47, 0
3, 50336, Note_on_c, 1, 50, 0
3, 50336, Note_on_c, 1, 55, 0
3, 50688, Note_on_c, 1, 48, 92
3, 50688, Note_on_c, 1, 55, 92
3, 50720, Note_on_c, 1, 48, 0
3, 50720, Note_on_c, 1, 55, 0
3, 50784, Note_on_c, 1, 48, 127
3, 50784, Note_on_c, 1, 55, 92
3, 50944, Note_on_c, 1, 48, 0
3, 50976, Note_on_c, 1, 50, 92
3, 51022, Note_on_c, 1, 50, 0
3, 51024, Note_on_c, 1, 51, 92
3, 51040, Note_on_c, 1, 55, 0
3, 51070, Note_on_c, 1, 51, 0
3, 51072, Note_on_c, 1, 50, 92
3, 51102, Note_on_c, 1, 50, 0
3, 51104, Note_on_c, 1, 53, 92
3, 51134, Note_on_c, 1, 53, 0
3, 51136, Note_on_c, 1, 56, 92
3, 51166, Note_on_c, 1, 56, 0
3, 51264, Note_on_c, 1, 62, 92
3, 51294, Note_on_c, 1, 62, 0
3, 51296, Note_on_c, 1, 65, 92
3, 51326, Note_on_c, 1, 65, 0
3, 51328, Note_on_c, 1, 68, 92
3, 51358, Note_on_c, 1, 68, 0
3, 51456, Note_on_c, 1, 50, 92
3, 51456, Note_on_c, 1, 59, 92
3, 51488, Note_on_c, 1, 50, 0
3, 51488, Note_on_c, 1, 59, 0
3, 51552, Note_on_c, 1, 50, 92
3, 51552, Note_on_c, 1, 59, 92
3, 51712, Note_on_c, 1, 50, 0
3, 51744, Note_on_c, 1, 51, 92
3, 51790, Note_on_c, 1, 51, 0
3, 51792, Note_on_c, 1, 53, 92
3, 51808, Note_on_c, 1, 59, 0
3, 51824, Note_on_c, 1, 53, 0
3, 51840, Note_on_c, 1, 51, 92
3, 51870, Note_on_c, 1, 51, 0
3, 51872, Note_on_c, 1, 55, 92
3, 51902, Note_on_c, 1, 55, 0
3, 51904, Note_on_c, 1, 60, 92
3, 51934, Note_on_c, 1, 60, 0
3, 52032, Note_on_c, 1, 63, 92
3, 52062, Note_on_c, 1, 63, 0
3, 52064, Note_on_c, 1, 67, 92
3, 52094, Note_on_c, 1, 67, 0
3, 52096, Note_on_c, 1, 72, 92
3, 52126, Note_on_c, 1, 72, 0
3, 52224, Note_on_c, 1, 64, 92
3, 52224, Note_on_c, 1, 67, 92
3, 52256, Note_on_c, 1, 64, 0
3, 52256, Note_on_c, 1, 67, 0
3, 52320, Note_on_c, 1, 64, 127
3, 52320, Note_on_c, 1, 67, 127
3, 52480, Note_on_c, 1, 64, 0
3, 52480, Note_on_c, 1, 67, 0
3, 52512, Note_on_c, 1, 65, 92
3, 52512, Note_on_c, 1, 68, 92
3, 52558, Note_on_c, 1, 65, 0
3, 52558, Note_on_c, 1, 68, 0
3, 52560, Note_on_c, 1, 67, 92
3, 52560, Note_on_c, 1, 70, 92
3, 52606, Note_on_c, 1, 67, 0
3, 52606, Note_on_c, 1, 70, 0
3, 52608, Note_on_c, 1, 65, 92
3, 52608, Note_on_c, 1, 68, 92
3, 52656, Note_on_c, 1, 65, 0
3, 52656, Note_on_c, 1, 68, 0
3, 52800, Note_on_c, 1, 65, 92
3, 52848, Note_on_c, 1, 65, 0
3, 52992, Note_on_c, 1, 67, 92
3, 53040, Note_on_c, 1, 67, 0
3, 53184, Note_on_c, 1, 55, 92
3, 53184, Note_on_c, 1, 65, 92
3, 53232, Note_on_c, 1, 55, 0
3, 53232, Note_on_c, 1, 65, 0
3, 53376, Note_on_c, 1, 56, 92
3, 53376, Note_on_c, 1, 63, 92
3, 53536, Note_on_c, 1, 56, 0
3, 53536, Note_on_c, 1, 63, 0
3, 53760, Note_on_c, 1, 52, 92
3, 53760, Note_on_c, 1, 55, 92
3, 53792, Note_on_c, 1, 52, 0
3, 53792, Note_on_c, 1, 55, 0
3, 53856, Note_on_c, 1, 52, 127
3, 53856, Note_on_c, 1, 55, 127
3, 54016, Note_on_c, 1, 52, 0
3, 54016, Note_on_c, 1, 55, 0
3, 54048, Note_on_c, 1, 53, 92
3, 54048, Note_on_c, 1, 56, 92
3, 54094, Note_on_c, 1, 53, 0
3, 54094, Note_on_c, 1, 56, 0
3, 54096, Note_on_c, 1, 55, 92
3, 54096, Note_on_c, 1, 58, 92
3, 54142, Note_on_c, 1, 55, 0
3, 54142, Note_on_c, 1, 58, 0
3, 54144, Note_on_c, 1, 53, 92
3, 54144, Note_on_c, 1, 56, 92
3, 54192, Note_on_c, 1, 53, 0
3, 54192, Note_on_c, 1, 56, 0
3, 54336, Note_on_c, 1, 53, 92
3, 54384, Note_on_c, 1, 53, 0
3, 54528, Note_on_c, 1, 55, 92
3, 54576, Note_on_c, 1, 55, 0
3, 54720, Note_on_c, 1, 43, 84
3, 54768, Note_on_c, 1, 43, 0
3, 54912, Note_on_c, 1, 48, 75
3, 55104, Note_on_c, 1, 48, 0
3, 57600, Note_on_c, 1, 56, 45
3, 57600, Note_on_c, 1, 60, 45
3, 57696, Note_on_c, 1, 56, 0
3, 57696, Note_on_c, 1, 60, 0
3, 57696, Note_on_c, 1, 63, 45
3, 57792, Note_on_c, 1, 63, 0
3, 57792, Note_on_c, 1, 56, 45
3, 57792, Note_on_c, 1, 60, 45
3, 57888, Note_on_c, 1, 56, 0
3, 57888, Note_on_c, 1, 60, 0
3, 57888, Note_on_c, 1, 63, 45
3, 57984, Note_on_c, 1, 63, 0
3, 57984, Note_on_c, 1, 58, 45
3, 57984, Note_on_c, 1, 61, 45
3, 58080, Note_on_c, 1, 58, 0
3, 58080, Note_on_c, 1, 61, 0
3, 58080, Note_on_c, 1, 63, 45
3, 58176, Note_on_c, 1, 63, 0
3, 58176, Note_on_c, 1, 58, 45
3, 58176, Note_on_c, 1, 61, 45
3, 58272, Note_on_c, 1, 58, 0
3, 58272, Note_on_c, 1, 61, 0
3, 58272, Note_on_c, 1, 63, 45
3, 58368, Note_on_c, 1, 63, 0
3, 58368, Note_on_c, 1, 56, 45
3, 58368, Note_on_c, 1, 60, 45
3, 58464, Note_on_c, 1, 56, 0
3, 58464, Note_on_c, 1, 60, 0
3, 58464, Note_on_c, 1, 63, 45
3, 58560, Note_on_c, 1, 63, 0
3, 58560, Note_on_c, 1, 56, 45
3, 58560, Note_on_c, 1, 60, 45
3, 58656, Note_on_c, 1, 56, 0
3, 58656, Note_on_c, 1, 60, 0
3, 58656, Note_on_c, 1, 63, 45
3, 58752, Note_on_c, 1, 63, 0
3, 58752, Note_on_c, 1, 55, 45
3, 58752, Note_on_c, 1, 58, 45
3, 58848, Note_on_c, 1, 55, 0
3, 58848, Note_on_c, 1, 58, 0
3, 58848, Note_on_c, 1, 63, 45
3, 58944, Note_on_c, 1, 63, 0
3, 58944, Note_on_c, 1, 55, 45
3, 58944, Note_on_c, 1, 58, 45
3, 59040, Note_on_c, 1, 55, 0
3, 59040, Note_on_c, 1, 58, 0
3, 59040, Note_on_c, 1, 63, 45
3, 59136, Note_on_c, 1, 63, 0
3, 59136, Note_on_c, 1, 53, 45
3, 59136, Note_on_c, 1, 56, 45
3, 59232, Note_on_c, 1, 53, 0
3, 59232, Note_on_c, 1, 56, 0
3, 59232, Note_on_c, 1, 61, 45
3, 59328, Note_on_c, 1, 61, 0
3, 59328, Note_on_c, 1, 55, 45
3, 59328, Note_on_c, 1, 58, 45
3, 59424, Note_on_c, 1, 55, 0
3, 59424, Note_on_c, 1, 58, 0
3, 59424, Note_on_c, 1, 63, 45
3, 59520, Note_on_c, 1, 63, 0
3, 59520, Note_on_c, 1, 56, 45
3, 59616, Note_on_c, 1, 56, 0
3, 59616, Note_on_c, 1, 60, 45
3, 59712, Note_on_c, 1, 60, 0
3, 59712, Note_on_c, 1, 63, 45
3, 59808, Note_on_c, 1, 63, 0
3, 59808, Note_on_c, 1, 68, 45
3, 59902, Note_on_c, 1, 68, 0
3, 59904, Note_on_c, 1, 61, 45
3, 59904, Note_on_c, 1, 61, 45
3, 59998, Note_on_c, 1, 61, 0
3, 60000, Note_on_c, 1, 65, 45
3, 60094, Note_on_c, 1, 65, 0
3, 60096, Note_on_c, 1, 70, 45
3, 60190, Note_on_c, 1, 70, 0
3, 60192, Note_on_c, 1, 73, 45
3, 60240, Note_on_c, 1, 61, 0
3, 60286, Note_on_c, 1, 73, 0
3, 60288, Note_on_c, 1, 63, 45
3, 60384, Note_on_c, 1, 72, 45
3, 60478, Note_on_c, 1, 72, 0
3, 60480, Note_on_c, 1, 70, 45
3, 60544, Note_on_c, 1, 63, 0
3, 60574, Note_on_c, 1, 70, 0
3, 60672, Note_on_c, 1, 56, 45
3, 60672, Note_on_c, 1, 60, 45
3, 60768, Note_on_c, 1, 56, 0
3, 60768, Note_on_c, 1, 60, 0
3, 60768, Note_on_c, 1, 63, 45
3, 60864, Note_on_c, 1, 63, 0
3, 60864, Note_on_c, 1, 56, 45
3, 60864, Note_on_c, 1, 60, 45
3, 60960, Note_on_c, 1, 56, 0
3, 60960, Note_on_c, 1, 60, 0
3, 60960, Note_on_c, 1, 63, 45
3, 61056, Note_on_c, 1, 63, 0
3, 61056, Note_on_c, 1, 58, 45
3, 61056, Note_on_c, 1, 61, 45
3, 61152, Note_on_c, 1, 58, 0
3, 61152, Note_on_c, 1, 61, 0
3, 61152, Note_on_c, 1, 63, 45
3, 61248, Note_on_c, 1, 63, 0
3, 61248, Note_on_c, 1, 58, 45
3, 61248, Note_on_c, 1, 61, 45
3, 61344, Note_on_c, 1, 58, 0
3, 61344, Note_on_c, 1, 61, 0
3, 61344, Note_on_c, 1, 63, 45
3, 61440, Note_on_c, 1, 63, 0
3, 61440, Note_on_c, 1, 56, 45
3, 61440, Note_on_c, 1, 60, 45
3, 61536, Note_on_c, 1, 56, 0
3, 61536, Note_on_c, 1, 60, 0
3, 61536, Note_on_c, 1, 63, 45
3, 61632, Note_on_c, 1, 63, 0
3, 61632, Note_on_c, 1, 56, 45
3, 61632, Note_on_c, 1, 60, 45
3, 61728, Note_on_c, 1, 56, 0
3, 61728, Note_on_c, 1, 60, 0
3, 61728, Note_on_c, 1, 63, 45
3, 61824, Note_on_c, 1, 63, 0
3, 61824, Note_on_c, 1, 55, 45
3, 61824, Note_on_c, 1, 58, 45
3, 61920, Note_on_c, 1, 55, 0
3, 61920, Note_on_c, 1, 58, 0
3, 61920, Note_on_c, 1, 63, 75
3, 62016, Note_on_c, 1, 63, 0
3, 62016, Note_on_c, 1, 55, 75
3, 62016, Note_on_c, 1, 58, 75
3, 62112, Note_on_c, 1, 55, 0
3, 62112, Note_on_c, 1, 58, 0
3, 62112, Note_on_c, 1, 63, 75
3, 62208, Note_on_c, 1, 63, 0
3, 62208, Note_on_c, 1, 53, 45
3, 62208, Note_on_c, 1, 56, 45
3, 62304, Note_on_c, 1, 53, 0
3, 62304, Note_on_c, 1, 56, 0
3, 62304, Note_on_c, 1, 61, 45
3, 62400, Note_on_c, 1, 61, 0
3, 62400, Note_on_c, 1, 55, 45
3, 62400, Note_on_c, 1, 58, 45
3, 62496, Note_on_c, 1, 55, 0
3, 62496, Note_on_c, 1, 58, 0
3, 62496, Note_on_c, 1, 63, 45
3, 62590, Note_on_c, 1, 63, 0
3, 62592, Note_on_c, 1, 56, 45
3, 62688, Note_on_c, 1, 56, 0
3, 62688, Note_on_c, 1, 63, 45
3, 62784, Note_on_c, 1, 63, 0
3, 62784, Note_on_c, 1, 55, 45
3, 62880, Note_on_c, 1, 55, 0
3, 62880, Note_on_c, 1, 63, 45
3, 62976, Note_on_c, 1, 63, 0
3, 62976, Note_on_c, 1, 54, 45
3, 63070, Note_on_c, 1, 54, 0
3, 63072, Note_on_c, 1, 57, 45
3, 63168, Note_on_c, 1, 57, 0
3, 63168, Note_on_c, 1, 42, 45
3, 63264, Note_on_c, 1, 42, 0
3, 63264, Note_on_c, 1, 54, 45
3, 63358, Note_on_c, 1, 54, 0
3, 63360, Note_on_c, 1, 43, 45
3, 63408, Note_on_c, 1, 43, 0
3, 63408, Note_on_c, 1, 55, 45
3, 63456, Note_on_c, 1, 55, 0
3, 63456, Note_on_c, 1, 47, 45
3, 63504, Note_on_c, 1, 47, 0
3, 63504, Note_on_c, 1, 55, 45
3, 63552, Note_on_c, 1, 55, 0
3, 63552, Note_on_c, 1, 50, 45
3, 63600, Note_on_c, 1, 50, 0
3, 63600, Note_on_c, 1, 55, 45
3, 63648, Note_on_c, 1, 55, 0
3, 63648, Note_on_c, 1, 47, 45
3, 63696, Note_on_c, 1, 47, 0
3, 63696, Note_on_c, 1, 55, 45
3, 63744, Note_on_c, 1, 55, 0
3, 63744, Note_on_c, 1, 43, 45
3, 63792, Note_on_c, 1, 43, 0
3, 63792, Note_on_c, 1, 55, 45
3, 63840, Note_on_c, 1, 55, 0
3, 63840, Note_on_c, 1, 47, 45
3, 63888, Note_on_c, 1, 47, 0
3, 63888, Note_on_c, 1, 55, 45
3, 63936, Note_on_c, 1, 55, 0
3, 63936, Note_on_c, 1, 50, 45
3, 63984, Note_on_c, 1, 50, 0
3, 63984, Note_on_c, 1, 55, 45
3, 64032, Note_on_c, 1, 55, 0
3, 64032, Note_on_c, 1, 47, 45
3, 64080, Note_on_c, 1, 47, 0
3, 64080, Note_on_c, 1, 55, 45
3, 64126, Note_on_c, 1, 55, 0
3, 64128, Note_on_c, 1, 43, 45
3, 64176, Note_on_c, 1, 43, 0
3, 64176, Note_on_c, 1, 55, 45
3, 64224, Note_on_c, 1, 55, 0
3, 64224, Note_on_c, 1, 48, 45
3, 64272, Note_on_c, 1, 48, 0
3, 64272, Note_on_c, 1, 55, 45
3, 64320, Note_on_c, 1, 55, 0
3, 64320, Note_on_c, 1, 51, 45
3, 64368, Note_on_c, 1, 51, 0
3, 64368, Note_on_c, 1, 55, 45
3, 64416, Note_on_c, 1, 55, 0
3, 64416, Note_on_c, 1, 48, 45
3, 64464, Note_on_c, 1, 48, 0
3, 64464, Note_on_c, 1, 55, 45
3, 64512, Note_on_c, 1, 55, 0
3, 64512, Note_on_c, 1, 43, 45
3, 64560, Note_on_c, 1, 43, 0
3, 64560, Note_on_c, 1, 55, 45
3, 64608, Note_on_c, 1, 55, 0
3, 64608, Note_on_c, 1, 48, 45
3, 64656, Note_on_c, 1, 48, 0
3, 64656, Note_on_c, 1, 55, 45
3, 64704, Note_on_c, 1, 55, 0
3, 64704, Note_on_c, 1, 51, 45
3, 64752, Note_on_c, 1, 51, 0
3, 64752, Note_on_c, 1, 55, 45
3, 64800, Note_on_c, 1, 55, 0
3, 64800, Note_on_c, 1, 48, 45
3, 64848, Note_on_c, 1, 48, 0
3, 64848, Note_on_c, 1, 55, 45
3, 64894, Note_on_c, 1, 55, 0
3, 64896, Note_on_c, 1, 43, 45
3, 64944, Note_on_c, 1, 43, 0
3, 64944, Note_on_c, 1, 55, 45
3, 64992, Note_on_c, 1, 55, 0
3, 64992, Note_on_c, 1, 47, 45
3, 65040, Note_on_c, 1, 47, 0
3, 65040, Note_on_c, 1, 55, 45
3, 65088, Note_on_c, 1, 55, 0
3, 65088, Note_on_c, 1, 50, 45
3, 65136, Note_on_c, 1, 50, 0
3, 65136, Note_on_c, 1, 55, 45
3, 65184, Note_on_c, 1, 55, 0
3, 65184, Note_on_c, 1, 47, 45
3, 65232, Note_on_c, 1, 47, 0
3, 65232, Note_on_c, 1, 55, 45
3, 65280, Note_on_c, 1, 55, 0
3, 65280, Note_on_c, 1, 43, 45
3, 65328, Note_on_c, 1, 43, 0
3, 65328, Note_on_c, 1, 55, 45
3, 65376, Note_on_c, 1, 55, 0
3, 65376, Note_on_c, 1, 47, 45
3, 65424, Note_on_c, 1, 47, 0
3, 65424, Note_on_c, 1, 55, 45
3, 65472, Note_on_c, 1, 55, 0
3, 65472, Note_on_c, 1, 50, 45
3, 65520, Note_on_c, 1, 50, 0
3, 65520, Note_on_c, 1, 55, 45
3, 65568, Note_on_c, 1, 55, 0
3, 65568, Note_on_c, 1, 47, 45
3, 65616, Note_on_c, 1, 47, 0
3, 65616, Note_on_c, 1, 55, 45
3, 65662, Note_on_c, 1, 55, 0
3, 65664, Note_on_c, 1, 43, 45
3, 65712, Note_on_c, 1, 43, 0
3, 65712, Note_on_c, 1, 55, 45
3, 65760, Note_on_c, 1, 55, 0
3, 65760, Note_on_c, 1, 48, 45
3, 65808, Note_on_c, 1, 48, 0
3, 65808, Note_on_c, 1, 55, 45
3, 65856, Note_on_c, 1, 55, 0
3, 65856, Note_on_c, 1, 51, 45
3, 65904, Note_on_c, 1, 51, 0
3, 65904, Note_on_c, 1, 55, 45
3, 65952, Note_on_c, 1, 55, 0
3, 65952, Note_on_c, 1, 48, 45
3, 66000, Note_on_c, 1, 48, 0
3, 66000, Note_on_c, 1, 55, 45
3, 66048, Note_on_c, 1, 55, 0
3, 66048, Note_on_c, 1, 43, 45
3, 66096, Note_on_c, 1, 43, 0
3, 66096, Note_on_c, 1, 55, 45
3, 66144, Note_on_c, 1, 55, 0
3, 66144, Note_on_c, 1, 48, 45
3, 66192, Note_on_c, 1, 48, 0
3, 66192, Note_on_c, 1, 55, 45
3, 66240, Note_on_c, 1, 55, 0
3, 66240, Note_on_c, 1, 51, 45
3, 66288, Note_on_c, 1, 51, 0
3, 66288, Note_on_c, 1, 55, 45
3, 66336, Note_on_c, 1, 55, 0
3, 66336, Note_on_c, 1, 48, 45
3, 66384, Note_on_c, 1, 48, 0
3, 66384, Note_on_c, 1, 55, 45
3, 66430, Note_on_c, 1, 55, 0
3, 66432, Note_on_c, 1, 43, 45
3, 66480, Note_on_c, 1, 43, 0
3, 66480, Note_on_c, 1, 55, 45
3, 66528, Note_on_c, 1, 55, 0
3, 66528, Note_on_c, 1, 50, 45
3, 66576, Note_on_c, 1, 50, 0
3, 66576, Note_on_c, 1, 55, 45
3, 66624, Note_on_c, 1, 55, 0
3, 66624, Note_on_c, 1, 43, 45
3, 66672, Note_on_c, 1, 43, 0
3, 66672, Note_on_c, 1, 55, 45
3, 66720, Note_on_c, 1, 55, 0
3, 66720, Note_on_c, 1, 47, 45
3, 66768, Note_on_c, 1, 47, 0
3, 66768, Note_on_c, 1, 55, 45
3, 66816, Note_on_c, 1, 55, 0
3, 66816, Note_on_c, 1, 43, 45
3, 66864, Note_on_c, 1, 43, 0
3, 66864, Note_on_c, 1, 55, 45
3, 66912, Note_on_c, 1, 55, 0
3, 66912, Note_on_c, 1, 48, 45
3, 66960, Note_on_c, 1, 48, 0
3, 66960, Note_on_c, 1, 55, 45
3, 67008, Note_on_c, 1, 55, 0
3, 67008, Note_on_c, 1, 43, 45
3, 67056, Note_on_c, 1, 43, 0
3, 67056, Note_on_c, 1, 55, 45
3, 67104, Note_on_c, 1, 55, 0
3, 67104, Note_on_c, 1, 51, 45
3, 67152, Note_on_c, 1, 51, 0
3, 67152, Note_on_c, 1, 55, 45
3, 67198, Note_on_c, 1, 55, 0
3, 67200, Note_on_c, 1, 43, 45
3, 67232, Note_on_c, 1, 54, 45
3, 67262, Note_on_c, 1, 54, 0
3, 67264, Note_on_c, 1, 55, 45
3, 67294, Note_on_c, 1, 55, 0
3, 67296, Note_on_c, 1, 56, 45
3, 67326, Note_on_c, 1, 56, 0
3, 67328, Note_on_c, 1, 57, 45
3, 67358, Note_on_c, 1, 57, 0
3, 67360, Note_on_c, 1, 43, 0
3, 67360, Note_on_c, 1, 58, 45
3, 67390, Note_on_c, 1, 58, 0
3, 67392, Note_on_c, 1, 58, 45
3, 67422, Note_on_c, 1, 58, 0
3, 67424, Note_on_c, 1, 60, 45
3, 67454, Note_on_c, 1, 60, 0
3, 67456, Note_on_c, 1, 61, 45
3, 67486, Note_on_c, 1, 61, 0
3, 69888, Note_on_c, 1, 60, 45
3, 69888, Note_on_c, 1, 63, 45
3, 69982, Note_on_c, 1, 60, 0
3, 69982, Note_on_c, 1, 63, 0
3, 69984, Note_on_c, 1, 67, 45
3, 70078, Note_on_c, 1, 67, 0
3, 70080, Note_on_c, 1, 60, 45
3, 70080, Note_on_c, 1, 63, 45
3, 70174, Note_on_c, 1, 60, 0
3, 70174, Note_on_c, 1, 63, 0
3, 70176, Note_on_c, 1, 67, 45
3, 70270, Note_on_c, 1, 67, 0
3, 70272, Note_on_c, 1, 62, 45
3, 70272, Note_on_c, 1, 65, 45
3, 70368, Note_on_c, 1, 62, 0
3, 70368, Note_on_c, 1, 65, 0
3, 70368, Note_on_c, 1, 67, 45
3, 70464, Note_on_c, 1, 67, 0
3, 70464, Note_on_c, 1, 62, 45
3, 70464, Note_on_c, 1, 65, 45
3, 70560, Note_on_c, 1, 62, 0
3, 70560, Note_on_c, 1, 65, 0
3, 70560, Note_on_c, 1, 67, 45
3, 70656, Note_on_c, 1, 67, 0
3, 70656, Note_on_c, 1, 60, 45
3, 70656, Note_on_c, 1, 64, 45
3, 70752, Note_on_c, 1, 60, 0
3, 70752, Note_on_c, 1, 64, 0
3, 70752, Note_on_c, 1, 67, 45
3, 70848, Note_on_c, 1, 67, 0
3, 70848, Note_on_c, 1, 60, 45
3, 70848, Note_on_c, 1, 64, 45
3, 70944, Note_on_c, 1, 60, 0
3, 70944, Note_on_c, 1, 64, 0
3, 70944, Note_on_c, 1, 67, 45
3, 71040, Note_on_c, 1, 67, 0
3, 71040, Note_on_c, 1, 59, 45
3, 71040, Note_on_c, 1, 62, 45
3, 71136, Note_on_c, 1, 59, 0
3, 71136, Note_on_c, 1, 62, 0
3, 71136, Note_on_c, 1, 67, 45
3, 71232, Note_on_c, 1, 67, 0
3, 71232, Note_on_c, 1, 59, 45
3, 71232, Note_on_c, 1, 62, 45
3, 71328, Note_on_c, 1, 59, 0
3, 71328, Note_on_c, 1, 62, 0
3, 71328, Note_on_c, 1, 67, 45
3, 71424, Note_on_c, 1, 67, 0
3, 71424, Note_on_c, 1, 57, 45
3, 71424, Note_on_c, 1, 60, 45
3, 71520, Note_on_c, 1, 57, 0
3, 71520, Note_on_c, 1, 60, 0
3, 71520, Note_on_c, 1, 65, 45
3, 71616, Note_on_c, 1, 65, 0
3, 71616, Note_on_c, 1, 57, 45
3, 71616, Note_on_c, 1, 60, 45
3, 71712, Note_on_c, 1, 57, 0
3, 71712, Note_on_c, 1, 60, 0
3, 71712, Note_on_c, 1, 67, 45
3, 71808, Note_on_c, 1, 67, 0
3, 71808, Note_on_c, 1, 60, 45
3, 71904, Note_on_c, 1, 60, 0
3, 71904, Note_on_c, 1, 64, 45
3, 71936, Note_on_c, 1, 64, 0
3, 72000, Note_on_c, 1, 52, 45
3, 72000, Note_on_c, 1, 55, 45
3, 72096, Note_on_c, 1, 52, 0
3, 72096, Note_on_c, 1, 55, 0
3, 72096, Note_on_c, 1, 60, 45
3, 72192, Note_on_c, 1, 60, 0
3, 72192, Note_on_c, 1, 53, 45
3, 72192, Note_on_c, 1, 53, 45
3, 72288, Note_on_c, 1, 53, 0
3, 72288, Note_on_c, 1, 57, 45
3, 72384, Note_on_c, 1, 57, 0
3, 72384, Note_on_c, 1, 62, 45
3, 72480, Note_on_c, 1, 62, 0
3, 72480, Note_on_c, 1, 65, 45
3, 72528, Note_on_c, 1, 53, 0
3, 72574, Note_on_c, 1, 65, 0
3, 72576, Note_on_c, 1, 55, 45
3, 72672, Note_on_c, 1, 64, 45
3, 72766, Note_on_c, 1, 64, 0
3, 72768, Note_on_c, 1, 62, 45
3, 72800, Note_on_c, 1, 62, 0
3, 72832, Note_on_c, 1, 55, 0
3, 72960, Note_on_c, 1, 60, 45
3, 72960, Note_on_c, 1, 64, 45
3, 73054, Note_on_c, 1, 60, 0
3, 73054, Note_on_c, 1, 64, 0
3, 73056, Note_on_c, 1, 67, 45
3, 73150, Note_on_c, 1, 67, 0
3, 73152, Note_on_c, 1, 60, 45
3, 73152, Note_on_c, 1, 64, 45
3, 73246, Note_on_c, 1, 60, 0
3, 73246, Note_on_c, 1, 64, 0
3, 73248, Note_on_c, 1, 67, 45
3, 73342, Note_on_c, 1, 67, 0
3, 73344, Note_on_c, 1, 62, 45
3, 73344, Note_on_c, 1, 65, 45
3, 73440, Note_on_c, 1, 62, 0
3, 73440, Note_on_c, 1, 65, 0
3, 73440, Note_on_c, 1, 67, 45
3, 73536, Note_on_c, 1, 67, 0
3, 73536, Note_on_c, 1, 62, 45
3, 73536, Note_on_c, 1, 65, 45
3, 73632, Note_on_c, 1, 62, 0
3, 73632, Note_on_c, 1, 65, 0
3, 73632, Note_on_c, 1, 67, 45
3, 73728, Note_on_c, 1, 67, 0
3, 73728, Note_on_c, 1, 60, 45
3, 73728, Note_on_c, 1, 64, 45
3, 73824, Note_on_c, 1, 60, 0
3, 73824, Note_on_c, 1, 64, 0
3, 73824, Note_on_c, 1, 67, 45
3, 73920, Note_on_c, 1, 67, 0
3, 73920, Note_on_c, 1, 60, 45
3, 73920, Note_on_c, 1, 64, 45
3, 74016, Note_on_c, 1, 60, 0
3, 74016, Note_on_c, 1, 64, 0
3, 74016, Note_on_c, 1, 67, 45
3, 74112, Note_on_c, 1, 67, 0
3, 74112, Note_on_c, 1, 59, 45
3, 74112, Note_on_c, 1, 62, 45
3, 74208, Note_on_c, 1, 59, 0
3, 74208, Note_on_c, 1, 62, 0
3, 74208, Note_on_c, 1, 67, 75
3, 74304, Note_on_c, 1, 67, 0
3, 74304, Note_on_c, 1, 59, 75
3, 74304, Note_on_c, 1, 62, 75
3, 74400, Note_on_c, 1, 59, 0
3, 74400, Note_on_c, 1, 62, 0
3, 74400, Note_on_c, 1, 67, 30
3, 74496, Note_on_c, 1, 67, 0
3, 74496, Note_on_c, 1, 57, 30
3, 74496, Note_on_c, 1, 60, 30
3, 74592, Note_on_c, 1, 57, 0
3, 74592, Note_on_c, 1, 60, 0
3, 74592, Note_on_c, 1, 65, 30
3, 74688, Note_on_c, 1, 65, 0
3, 74688, Note_on_c, 1, 59, 30
3, 74688, Note_on_c, 1, 62, 30
3, 74784, Note_on_c, 1, 59, 0
3, 74784, Note_on_c, 1, 62, 0
3, 74784, Note_on_c, 1, 65, 30
3, 74880, Note_on_c, 1, 65, 0
3, 74880, Note_on_c, 1, 60, 30
3, 74880, Note_on_c, 1, 64, 30
3, 74976, Note_on_c, 1, 60, 0
3, 74976, Note_on_c, 1, 64, 0
3, 74976, Note_on_c, 1, 67, 30
3, 75070, Note_on_c, 1, 67, 0
3, 75072, Note_on_c, 1, 53, 30
3, 75166, Note_on_c, 1, 53, 0
3, 75168, Note_on_c, 1, 65, 30
3, 75262, Note_on_c, 1, 65, 0
3, 75264, Note_on_c, 1, 55, 30
3, 75358, Note_on_c, 1, 55, 0
3, 75360, Note_on_c, 1, 64, 30
3, 75454, Note_on_c, 1, 64, 0
3, 75456, Note_on_c, 1, 55, 30
3, 75550, Note_on_c, 1, 55, 0
3, 75552, Note_on_c, 1, 65, 30
3, 75646, Note_on_c, 1, 65, 0
3, 75648, Note_on_c, 1, 48, 60
3, 75744, Note_on_c, 1, 48, 0
3, 75744, Note_on_c, 1, 55, 60
3, 75776, Note_on_c, 1, 55, 0
3, 75840, Note_on_c, 1, 55, 60
3, 75872, Note_on_c, 1, 55, 0
3, 75936, Note_on_c, 1, 55, 60
3, 75968, Note_on_c, 1, 55, 0
3, 76032, Note_on_c, 1, 52, 60
3, 76032, Note_on_c, 1, 60, 60
3, 76128, Note_on_c, 1, 52, 0
3, 76128, Note_on_c, 1, 55, 60
3, 76160, Note_on_c, 1, 55, 0
3, 76224, Note_on_c, 1, 55, 60
3, 76256, Note_on_c, 1, 55, 0
3, 76320, Note_on_c, 1, 55, 60
3, 76352, Note_on_c, 1, 55, 0
3, 76368, Note_on_c, 1, 60, 0
3, 76416, Note_on_c, 1, 50, 60
3, 76416, Note_on_c, 1, 59, 60
3, 76512, Note_on_c, 1, 50, 0
3, 76512, Note_on_c, 1, 55, 60
3, 76544, Note_on_c, 1, 55, 0
3, 76608, Note_on_c, 1, 55, 60
3, 76640, Note_on_c, 1, 55, 0
3, 76704, Note_on_c, 1, 55, 60
3, 76736, Note_on_c, 1, 55, 0
3, 76752, Note_on_c, 1, 59, 0
3, 76800, Note_on_c, 1, 53, 60
3, 76800, Note_on_c, 1, 62, 60
3, 76896, Note_on_c, 1, 53, 0
3, 76896, Note_on_c, 1, 55, 60
3, 76928, Note_on_c, 1, 55, 0
3, 76992, Note_on_c, 1, 55, 60
3, 77024, Note_on_c, 1, 55, 0
3, 77088, Note_on_c, 1, 55, 60
3, 77120, Note_on_c, 1, 55, 0
3, 77136, Note_on_c, 1, 62, 0
3, 77184, Note_on_c, 1, 52, 60
3, 77184, Note_on_c, 1, 60, 60
3, 77280, Note_on_c, 1, 52, 0
3, 77280, Note_on_c, 1, 55, 60
3, 77312, Note_on_c, 1, 55, 0
3, 77376, Note_on_c, 1, 55, 60
3, 77408, Note_on_c, 1, 55, 0
3, 77472, Note_on_c, 1, 55, 60
3, 77504, Note_on_c, 1, 55, 0
3, 77520, Note_on_c, 1, 60, 0
3, 77568, Note_on_c, 1, 48, 60
3, 77568, Note_on_c, 1, 52, 60
3, 77664, Note_on_c, 1, 52, 0
3, 77664, Note_on_c, 1, 55, 60
3, 77696, Note_on_c, 1, 55, 0
3, 77760, Note_on_c, 1, 55, 60
3, 77792, Note_on_c, 1, 55, 0
3, 77856, Note_on_c, 1, 55, 60
3, 77888, Note_on_c, 1, 55, 0
3, 77904, Note_on_c, 1, 48, 0
3, 77952, Note_on_c, 1, 50, 60
3, 77952, Note_on_c, 1, 53, 60
3, 78048, Note_on_c, 1, 53, 0
3, 78048, Note_on_c, 1, 55, 60
3, 78080, Note_on_c, 1, 55, 0
3, 78144, Note_on_c, 1, 55, 60
3, 78176, Note_on_c, 1, 55, 0
3, 78240, Note_on_c, 1, 55, 60
3, 78272, Note_on_c, 1, 55, 0
3, 78288, Note_on_c, 1, 50, 0
3, 78336, Note_on_c, 1, 47, 60
3, 78336, Note_on_c, 1, 53, 60
3, 78432, Note_on_c, 1, 53, 0
3, 78432, Note_on_c, 1, 55, 60
3, 78464, Note_on_c, 1, 55, 0
3, 78528, Note_on_c, 1, 55, 60
3, 78560, Note_on_c, 1, 55, 0
3, 78624, Note_on_c, 1, 55, 60
3, 78656, Note_on_c, 1, 55, 0
3, 78672, Note_on_c, 1, 47, 0
3, 78720, Note_on_c, 1, 48, 60
3, 78720, Note_on_c, 1, 52, 60
3, 78880, Note_on_c, 1, 48, 0
3, 78880, Note_on_c, 1, 52, 0
3, 79872, Note_on_c, 1, 60, 45
3, 79872, Note_on_c, 1, 64, 45
3, 79966, Note_on_c, 1, 60, 0
3, 79966, Note_on_c, 1, 64, 0
3, 79968, Note_on_c, 1, 67, 45
3, 80062, Note_on_c, 1, 67, 0
3, 80064, Note_on_c, 1, 60, 45
3, 80064, Note_on_c, 1, 64, 45
3, 80158, Note_on_c, 1, 60, 0
3, 80158, Note_on_c, 1, 64, 0
3, 80160, Note_on_c, 1, 67, 45
3, 80254, Note_on_c, 1, 67, 0
3, 80256, Note_on_c, 1, 62, 45
3, 80256, Note_on_c, 1, 65, 45
3, 80256, Note_on_c, 1, 67, 45
3, 80592, Note_on_c, 1, 62, 0
3, 80592, Note_on_c, 1, 65, 0
3, 80592, Note_on_c, 1, 67, 0
3, 80640, Note_on_c, 1, 62, 45
3, 80640, Note_on_c, 1, 65, 45
3, 80734, Note_on_c, 1, 62, 0
3, 80734, Note_on_c, 1, 65, 0
3, 80736, Note_on_c, 1, 68, 45
3, 80830, Note_on_c, 1, 68, 0
3, 80832, Note_on_c, 1, 62, 45
3, 80832, Note_on_c, 1, 65, 45
3, 80926, Note_on_c, 1, 62, 0
3, 80926, Note_on_c, 1, 65, 0
3, 80928, Note_on_c, 1, 68, 45
3, 81022, Note_on_c, 1, 68, 0
3, 81024, Note_on_c, 1, 63, 45
3, 81024, Note_on_c, 1, 67, 45
3, 81360, Note_on_c, 1, 63, 0
3, 81360, Note_on_c, 1, 67, 0
3, 81408, Note_on_c, 1, 66, 30
3, 81502, Note_on_c, 1, 66, 0
3, 81504, Note_on_c, 1, 68, 30
3, 81598, Note_on_c, 1, 68, 0
3, 81600, Note_on_c, 1, 66, 30
3, 81694, Note_on_c, 1, 66, 0
3, 81696, Note_on_c, 1, 68, 30
3, 81790, Note_on_c, 1, 68, 0
3, 81792, Note_on_c, 1, 65, 30
3, 81886, Note_on_c, 1, 65, 0
3, 81888, Note_on_c, 1, 68, 30
3, 81982, Note_on_c, 1, 68, 0
3, 81984, Note_on_c, 1, 65, 30
3, 82078, Note_on_c, 1, 65, 0
3, 82080, Note_on_c, 1, 68, 30
3, 82174, Note_on_c, 1, 68, 0
3, 82176, Note_on_c, 1, 60, 30
3, 82270, Note_on_c, 1, 60, 0
3, 82272, Note_on_c, 1, 68, 30
3, 82366, Note_on_c, 1, 68, 0
3, 82368, Note_on_c, 1, 60, 30
3, 82462, Note_on_c, 1, 60, 0
3, 82464, Note_on_c, 1, 68, 30
3, 82558, Note_on_c, 1, 68, 0
3, 82560, Note_on_c, 1, 61, 30
3, 82654, Note_on_c, 1, 61, 0
3, 82656, Note_on_c, 1, 68, 30
3, 82750, Note_on_c, 1, 68, 0
3, 82752, Note_on_c, 1, 61, 30
3, 82846, Note_on_c, 1, 61, 0
3, 82848, Note_on_c, 1, 68, 30
3, 82942, Note_on_c, 1, 68, 0
3, 82944, Note_on_c, 1, 54, 30
3, 82944, Note_on_c, 1, 63, 30
3, 83038, Note_on_c, 1, 54, 0
3, 83040, Note_on_c, 1, 56, 30
3, 83104, Note_on_c, 1, 63, 0
3, 83134, Note_on_c, 1, 56, 0
3, 83136, Note_on_c, 1, 54, 30
3, 83136, Note_on_c, 1, 63, 30
3, 83230, Note_on_c, 1, 54, 0
3, 83232, Note_on_c, 1, 56, 30
3, 83296, Note_on_c, 1, 63, 0
3, 83326, Note_on_c, 1, 56, 0
3, 83328, Note_on_c, 1, 53, 30
3, 83328, Note_on_c, 1, 61, 30
3, 83422, Note_on_c, 1, 53, 0
3, 83424, Note_on_c, 1, 56, 30
3, 83518, Note_on_c, 1, 56, 0
3, 83520, Note_on_c, 1, 53, 30
3, 83614, Note_on_c, 1, 53, 0
3, 83616, Note_on_c, 1, 56, 30
3, 83664, Note_on_c, 1, 61, 0
3, 83710, Note_on_c, 1, 56, 0
3, 83712, Note_on_c, 1, 48, 30
3, 83712, Note_on_c, 1, 60, 30
3, 83806, Note_on_c, 1, 48, 0
3, 83808, Note_on_c, 1, 56, 30
3, 83872, Note_on_c, 1, 60, 0
3, 83902, Note_on_c, 1, 56, 0
3, 83904, Note_on_c, 1, 48, 30
3, 83904, Note_on_c, 1, 60, 30
3, 83998, Note_on_c, 1, 48, 0
3, 84000, Note_on_c, 1, 56, 30
3, 84064, Note_on_c, 1, 60, 0
3, 84094, Note_on_c, 1, 56, 0
3, 84096, Note_on_c, 1, 49, 30
3, 84144, Note_on_c, 1, 49, 0
3, 84144, Note_on_c, 1, 53, 30
3, 84192, Note_on_c, 1, 53, 0
3, 84192, Note_on_c, 1, 56, 30
3, 84240, Note_on_c, 1, 56, 0
3, 84240, Note_on_c, 1, 59, 30
3, 84288, Note_on_c, 1, 59, 0
3, 84480, Note_on_c, 1, 54, 30
3, 84528, Note_on_c, 1, 54, 0
3, 84528, Note_on_c, 1, 56, 30
3, 84576, Note_on_c, 1, 56, 0
3, 84576, Note_on_c, 1, 59, 30
3, 84624, Note_on_c, 1, 59, 0
3, 84624, Note_on_c, 1, 63, 30
3, 84672, Note_on_c, 1, 63, 0
3, 84864, Note_on_c, 1, 53, 30
3, 84912, Note_on_c, 1, 53, 0
3, 84912, Note_on_c, 1, 56, 30
3, 84960, Note_on_c, 1, 56, 0
3, 84960, Note_on_c, 1, 61, 30
3, 85008, Note_on_c, 1, 61, 0
3, 85008, Note_on_c, 1, 65, 30
3, 85056, Note_on_c, 1, 65, 0
3, 85248, Note_on_c, 1, 51, 30
3, 85296, Note_on_c, 1, 51, 0
3, 85296, Note_on_c, 1, 56, 30
3, 85344, Note_on_c, 1, 56, 0
3, 85344, Note_on_c, 1, 60, 30
3, 85392, Note_on_c, 1, 60, 0
3, 85392, Note_on_c, 1, 63, 30
3, 85440, Note_on_c, 1, 63, 0
3, 85632, Note_on_c, 1, 49, 30
3, 85680, Note_on_c, 1, 49, 0
3, 85680, Note_on_c, 1, 53, 30
3, 85728, Note_on_c, 1, 53, 0
3, 85728, Note_on_c, 1, 56, 30
3, 85776, Note_on_c, 1, 56, 0
3, 85776, Note_on_c, 1, 61, 30
3, 85824, Note_on_c, 1, 61, 0
3, 86016, Note_on_c, 1, 48, 30
3, 86064, Note_on_c, 1, 48, 0
3, 86064, Note_on_c, 1, 53, 30
3, 86112, Note_on_c, 1, 53, 0
3, 86112, Note_on_c, 1, 56, 30
3, 86160, Note_on_c, 1, 56, 0
3, 86160, Note_on_c, 1, 60, 30
3, 86208, Note_on_c, 1, 60, 0
3, 86400, Note_on_c, 1, 47, 30
3, 86448, Note_on_c, 1, 47, 0
3, 86448, Note_on_c, 1, 53, 30
3, 86496, Note_on_c, 1, 53, 0
3, 86496, Note_on_c, 1, 56, 30
3, 86544, Note_on_c, 1, 56, 0
3, 86544, Note_on_c, 1, 59, 30
3, 86592, Note_on_c, 1, 59, 0
3, 86784, Note_on_c, 1, 48, 30
3, 86832, Note_on_c, 1, 48, 0
3, 86832, Note_on_c, 1, 51, 30
3, 86880, Note_on_c, 1, 51, 0
3, 86880, Note_on_c, 1, 55, 30
3, 86928, Note_on_c, 1, 55, 0
3, 86928, Note_on_c, 1, 60, 30
3, 86976, Note_on_c, 1, 60, 0
3, 87168, Note_on_c, 1, 41, 30
3, 87216, Note_on_c, 1, 41, 0
3, 87216, Note_on_c, 1, 44, 33
3, 87264, Note_on_c, 1, 44, 0
3, 87264, Note_on_c, 1, 48, 36
3, 87312, Note_on_c, 1, 48, 0
3, 87312, Note_on_c, 1, 53, 40
3, 87360, Note_on_c, 1, 53, 0
3, 87552, Note_on_c, 1, 43, 60
3, 87600, Note_on_c, 1, 43, 0
3, 87600, Note_on_c, 1, 46, 64
3, 87648, Note_on_c, 1, 46, 0
3, 87648, Note_on_c, 1, 48, 68
3, 87696, Note_on_c, 1, 48, 0
3, 87696, Note_on_c, 1, 55, 72
3, 87744, Note_on_c, 1, 55, 0
3, 87936, Note_on_c, 1, 44, 92
3, 87984, Note_on_c, 1, 44, 0
3, 87984, Note_on_c, 1, 48, 92
3, 88032, Note_on_c, 1, 48, 0
3, 88032, Note_on_c, 1, 53, 92
3, 88080, Note_on_c, 1, 53, 0
3, 88080, Note_on_c, 1, 56, 92
3, 88128, Note_on_c, 1, 56, 0
3, 88320, Note_on_c, 1, 45, 92
3, 88368, Note_on_c, 1, 45, 0
3, 88368, Note_on_c, 1, 48, 92
3, 88416, Note_on_c, 1, 48, 0
3, 88416, Note_on_c, 1, 51, 92
3, 88464, Note_on_c, 1, 51, 0
3, 88464, Note_on_c, 1, 57, 92
3, 88512, Note_on_c, 1, 57, 0
3, 88704, Note_on_c, 1, 43, 127
3, 88800, Note_on_c, 1, 43, 0
3, 88800, Note_on_c, 1, 55, 45
3, 88832, Note_on_c, 1, 55, 0
3, 88896, Note_on_c, 1, 55, 45
3, 88928, Note_on_c, 1, 55, 0
3, 88992, Note_on_c, 1, 55, 45
3, 89024, Note_on_c, 1, 55, 0
3, 89088, Note_on_c, 1, 55, 45
3, 89120, Note_on_c, 1, 55, 0
3, 89184, Note_on_c, 1, 55, 45
3, 89216, Note_on_c, 1, 55, 0
3, 89280, Note_on_c, 1, 55, 45
3, 89312, Note_on_c, 1, 55, 0
3, 89376, Note_on_c, 1, 55, 45
3, 89408, Note_on_c, 1, 55, 0
3, 89472, Note_on_c, 1, 43, 45
3, 89568, Note_on_c, 1, 43, 0
3, 89568, Note_on_c, 1, 55, 45
3, 89664, Note_on_c, 1, 55, 0
3, 89664, Note_on_c, 1, 43, 45
3, 89760, Note_on_c, 1, 43, 0
3, 89760, Note_on_c, 1, 55, 45
3, 89856, Note_on_c, 1, 55, 0
3, 89856, Note_on_c, 1, 43, 45
3, 89952, Note_on_c, 1, 43, 0
3, 89952, Note_on_c, 1, 55, 45
3, 90048, Note_on_c, 1, 55, 0
3, 90048, Note_on_c, 1, 43, 45
3, 90144, Note_on_c, 1, 43, 0
3, 90144, Note_on_c, 1, 55, 45
3, 90240, Note_on_c, 1, 55, 0
3, 90240, Note_on_c, 1, 43, 75
3, 90304, Note_on_c, 1, 43, 0
3, 90304, Note_on_c, 1, 47, 75
3, 90368, Note_on_c, 1, 47, 0
3, 90368, Note_on_c, 1, 52, 75
3, 90432, Note_on_c, 1, 52, 0
3, 90432, Note_on_c, 1, 55, 75
3, 90496, Note_on_c, 1, 55, 0
3, 90496, Note_on_c, 1, 60, 75
3, 90560, Note_on_c, 1, 60, 0
3, 90560, Note_on_c, 1, 64, 75
3, 90624, Note_on_c, 1, 64, 0
3, 90624, Note_on_c, 1, 67, 75
3, 90656, Note_on_c, 1, 67, 0
3, 90720, Note_on_c, 1, 55, 75
3, 90752, Note_on_c, 1, 55, 0
3, 90816, Note_on_c, 1, 55, 75
3, 90848, Note_on_c, 1, 55, 0
3, 90912, Note_on_c, 1, 55, 75
3, 91008, Note_on_c, 1, 55, 0
3, 91008, Note_on_c, 1, 43, 105
3, 91104, Note_on_c, 1, 43, 0
3, 91104, Note_on_c, 1, 55, 75
3, 91200, Note_on_c, 1, 55, 0
3, 91200, Note_on_c, 1, 43, 45
3, 91296, Note_on_c, 1, 43, 0
3, 91296, Note_on_c, 1, 55, 45
3, 91392, Note_on_c, 1, 55, 0
3, 91392, Note_on_c, 1, 43, 45
3, 91488, Note_on_c, 1, 43, 0
3, 91488, Note_on_c, 1, 55, 45
3, 91584, Note_on_c, 1, 55, 0
3, 91584, Note_on_c, 1, 43, 45
3, 91680, Note_on_c, 1, 43, 0
3, 91680, Note_on_c, 1, 55, 45
3, 91776, Note_on_c, 1, 55, 0
3, 91776, Note_on_c, 1, 48, 45
3, 91824, Note_on_c, 1, 48, 0
3, 91824, Note_on_c, 1, 60, 45
3, 91872, Note_on_c, 1, 60, 0
3, 91872, Note_on_c, 1, 55, 45
3, 91920, Note_on_c, 1, 55, 0
3, 91920, Note_on_c, 1, 60, 45
3, 91968, Note_on_c, 1, 60, 0
3, 91968, Note_on_c, 1, 52, 45
3, 92016, Note_on_c, 1, 52, 0
3, 92016, Note_on_c, 1, 60, 45
3, 92064, Note_on_c, 1, 60, 0
3, 92064, Note_on_c, 1, 55, 30
3, 92112, Note_on_c, 1, 55, 0
3, 92112, Note_on_c, 1, 60, 30
3, 92160, Note_on_c, 1, 60, 0
3, 92160, Note_on_c, 1, 53, 30
3, 92208, Note_on_c, 1, 53, 0
3, 92208, Note_on_c, 1, 62, 30
3, 92256, Note_on_c, 1, 62, 0
3, 92256, Note_on_c, 1, 55, 30
3, 92304, Note_on_c, 1, 55, 0
3, 92304, Note_on_c, 1, 62, 30
3, 92352, Note_on_c, 1, 62, 0
3, 92352, Note_on_c, 1, 53, 30
3, 92400, Note_on_c, 1, 53, 0
3, 92400, Note_on_c, 1, 62, 30
3, 92448, Note_on_c, 1, 62, 0
3, 92448, Note_on_c, 1, 55, 30
3, 92496, Note_on_c, 1, 55, 0
3, 92496, Note_on_c, 1, 62, 30
3, 92544, Note_on_c, 1, 62, 0
3, 92544, Note_on_c, 1, 52, 30
3, 92592, Note_on_c, 1, 52, 0
3, 92592, Note_on_c, 1, 60, 30
3, 92640, Note_on_c, 1, 60, 0
3, 92640, Note_on_c, 1, 55, 30
3, 92688, Note_on_c, 1, 55, 0
3, 92688, Note_on_c, 1, 60, 30
3, 92736, Note_on_c, 1, 60, 0
3, 92736, Note_on_c, 1, 52, 30
3, 92784, Note_on_c, 1, 52, 0
3, 92784, Note_on_c, 1, 60, 30
3, 92832, Note_on_c, 1, 60, 0
3, 92832, Note_on_c, 1, 55, 30
3, 92880, Note_on_c, 1, 55, 0
3, 92880, Note_on_c, 1, 60, 30
3, 92928, Note_on_c, 1, 60, 0
3, 92928, Note_on_c, 1, 53, 30
3, 92976, Note_on_c, 1, 53, 0
3, 92976, Note_on_c, 1, 62, 30
3, 93024, Note_on_c, 1, 62, 0
3, 93024, Note_on_c, 1, 55, 30
3, 93072, Note_on_c, 1, 55, 0
3, 93072, Note_on_c, 1, 62, 30
3, 93120, Note_on_c, 1, 62, 0
3, 93120, Note_on_c, 1, 53, 30
3, 93168, Note_on_c, 1, 53, 0
3, 93168, Note_on_c, 1, 62, 30
3, 93216, Note_on_c, 1, 62, 0
3, 93216, Note_on_c, 1, 55, 30
3, 93264, Note_on_c, 1, 55, 0
3, 93264, Note_on_c, 1, 62, 30
3, 93312, Note_on_c, 1, 62, 0
3, 93312, Note_on_c, 1, 52, 30
3, 93360, Note_on_c, 1, 52, 0
3, 93360, Note_on_c, 1, 60, 30
3, 93408, Note_on_c, 1, 60, 0
3, 93408, Note_on_c, 1, 55, 30
3, 93456, Note_on_c, 1, 55, 0
3, 93456, Note_on_c, 1, 60, 30
3, 93504, Note_on_c, 1, 60, 0
3, 93504, Note_on_c, 1, 52, 30
3, 93552, Note_on_c, 1, 52, 0
3, 93552, Note_on_c, 1, 60, 30
3, 93600, Note_on_c, 1, 60, 0
3, 93600, Note_on_c, 1, 55, 30
3, 93648, Note_on_c, 1, 55, 0
3, 93648, Note_on_c, 1, 60, 30
3, 93696, Note_on_c, 1, 60, 0
3, 93696, Note_on_c, 1, 53, 30
3, 93744, Note_on_c, 1, 53, 0
3, 93744, Note_on_c, 1, 62, 30
3, 93792, Note_on_c, 1, 62, 0
3, 93792, Note_on_c, 1, 55, 30
3, 93840, Note_on_c, 1, 55, 0
3, 93840, Note_on_c, 1, 62, 30
3, 93888, Note_on_c, 1, 62, 0
3, 93888, Note_on_c, 1, 53, 30
3, 93936, Note_on_c, 1, 53, 0
3, 93936, Note_on_c, 1, 62, 30
3, 93984, Note_on_c, 1, 62, 0
3, 93984, Note_on_c, 1, 55, 30
3, 94032, Note_on_c, 1, 55, 0
3, 94032, Note_on_c, 1, 62, 30
3, 94080, Note_on_c, 1, 62, 0
3, 94080, Note_on_c, 1, 52, 30
3, 94128, Note_on_c, 1, 52, 0
3, 94128, Note_on_c, 1, 60, 30
3, 94176, Note_on_c, 1, 60, 0
3, 94176, Note_on_c, 1, 55, 30
3, 94224, Note_on_c, 1, 55, 0
3, 94224, Note_on_c, 1, 60, 30
3, 94272, Note_on_c, 1, 60, 0
3, 94272, Note_on_c, 1, 52, 30
3, 94320, Note_on_c, 1, 52, 0
3, 94320, Note_on_c, 1, 60, 30
3, 94368, Note_on_c, 1, 60, 0
3, 94368, Note_on_c, 1, 55, 30
3, 94416, Note_on_c, 1, 55, 0
3, 94416, Note_on_c, 1, 60, 30
3, 94464, Note_on_c, 1, 60, 0
3, 94464, Note_on_c, 1, 53, 30
3, 94512, Note_on_c, 1, 53, 0
3, 94512, Note_on_c, 1, 62, 30
3, 94560, Note_on_c, 1, 62, 0
3, 94560, Note_on_c, 1, 55, 30
3, 94608, Note_on_c, 1, 55, 0
3, 94608, Note_on_c, 1, 62, 30
3, 94656, Note_on_c, 1, 62, 0
3, 94656, Note_on_c, 1, 53, 30
3, 94704, Note_on_c, 1, 53, 0
3, 94704, Note_on_c, 1, 62, 30
3, 94752, Note_on_c, 1, 62, 0
3, 94752, Note_on_c, 1, 55, 30
3, 94800, Note_on_c, 1, 55, 0
3, 94800, Note_on_c, 1, 62, 30
3, 94848, Note_on_c, 1, 62, 0
3, 94848, Note_on_c, 1, 52, 30
3, 94896, Note_on_c, 1, 52, 0
3, 94896, Note_on_c, 1, 60, 30
3, 94944, Note_on_c, 1, 60, 0
3, 94944, Note_on_c, 1, 55, 30
3, 94992, Note_on_c, 1, 55, 0
3, 94992, Note_on_c, 1, 60, 30
3, 95040, Note_on_c, 1, 60, 0
3, 95040, Note_on_c, 1, 52, 30
3, 95088, Note_on_c, 1, 52, 0
3, 95088, Note_on_c, 1, 60, 30
3, 95136, Note_on_c, 1, 60, 0
3, 95136, Note_on_c, 1, 55, 30
3, 95184, Note_on_c, 1, 55, 0
3, 95184, Note_on_c, 1, 60, 30
3, 95232, Note_on_c, 1, 60, 0
3, 95232, Note_on_c, 1, 53, 30
3, 95280, Note_on_c, 1, 53, 0
3, 95280, Note_on_c, 1, 62, 30
3, 95328, Note_on_c, 1, 62, 0
3, 95328, Note_on_c, 1, 55, 30
3, 95376, Note_on_c, 1, 55, 0
3, 95376, Note_on_c, 1, 62, 30
3, 95424, Note_on_c, 1, 62, 0
3, 95424, Note_on_c, 1, 53, 30
3, 95472, Note_on_c, 1, 53, 0
3, 95472, Note_on_c, 1, 62, 30
3, 95520, Note_on_c, 1, 62, 0
3, 95520, Note_on_c, 1, 55, 30
3, 95568, Note_on_c, 1, 55, 0
3, 95568, Note_on_c, 1, 62, 30
3, 95616, Note_on_c, 1, 62, 0
3, 95616, Note_on_c, 1, 52, 30
3, 95664, Note_on_c, 1, 52, 0
3, 95664, Note_on_c, 1, 60, 30
3, 95712, Note_on_c, 1, 60, 0
3, 95712, Note_on_c, 1, 55, 30
3, 95760, Note_on_c, 1, 55, 0
3, 95760, Note_on_c, 1, 60, 30
3, 95808, Note_on_c, 1, 60, 0
3, 95808, Note_on_c, 1, 52, 75
3, 95856, Note_on_c, 1, 52, 0
3, 95856, Note_on_c, 1, 58, 75
3, 95904, Note_on_c, 1, 58, 0
3, 95904, Note_on_c, 1, 55, 45
3, 95952, Note_on_c, 1, 55, 0
3, 95952, Note_on_c, 1, 58, 45
3, 96000, Note_on_c, 1, 58, 0
3, 96000, Note_on_c, 1, 53, 45
3, 96048, Note_on_c, 1, 53, 0
3, 96048, Note_on_c, 1, 57, 45
3, 96096, Note_on_c, 1, 57, 0
3, 96096, Note_on_c, 1, 56, 45
3, 96144, Note_on_c, 1, 56, 0
3, 96144, Note_on_c, 1, 57, 45
3, 96192, Note_on_c, 1, 57, 0
3, 96192, Note_on_c, 1, 54, 75
3, 96240, Note_on_c, 1, 54, 0
3, 96240, Note_on_c, 1, 57, 75
3, 96288, Note_on_c, 1, 57, 0
3, 96288, Note_on_c, 1, 59, 45
3, 96336, Note_on_c, 1, 59, 0
3, 96336, Note_on_c, 1, 57, 45
3, 96384, Note_on_c, 1, 57, 0
3, 96384, Note_on_c, 1, 55, 45
3, 96432, Note_on_c, 1, 55, 0
3, 96432, Note_on_c, 1, 59, 45
3, 96480, Note_on_c, 1, 59, 0
3, 96480, Note_on_c, 1, 57, 45
3, 96528, Note_on_c, 1, 57, 0
3, 96528, Note_on_c, 1, 59, 45
3, 96576, Note_on_c, 1, 59, 0
3, 96576, Note_on_c, 1, 55, 75
3, 96624, Note_on_c, 1, 55, 0
3, 96624, Note_on_c, 1, 58, 75
3, 96672, Note_on_c, 1, 58, 0
3, 96672, Note_on_c, 1, 60, 45
3, 96720, Note_on_c, 1, 60, 0
3, 96720, Note_on_c, 1, 58, 45
3, 96768, Note_on_c, 1, 58, 0
3, 96768, Note_on_c, 1, 57, 45
3, 96816, Note_on_c, 1, 57, 0
3, 96816, Note_on_c, 1, 60, 45
3, 96864, Note_on_c, 1, 60, 0
3, 96864, Note_on_c, 1, 59, 45
3, 96912, Note_on_c, 1, 59, 0
3, 96912, Note_on_c, 1, 60, 45
3, 96960, Note_on_c, 1, 60, 0
3, 96960, Note_on_c, 1, 57, 75
3, 97008, Note_on_c, 1, 57, 0
3, 97008, Note_on_c, 1, 60, 75
3, 97056, Note_on_c, 1, 60, 0
3, 97056, Note_on_c, 1, 62, 45
3, 97104, Note_on_c, 1, 62, 0
3, 97104, Note_on_c, 1, 60, 45
3, 97152, Note_on_c, 1, 60, 0
3, 97152, Note_on_c, 1, 60, 92
3, 97152, Note_on_c, 1, 64, 92
3, 97344, Note_on_c, 1, 60, 0
3, 97344, Note_on_c, 1, 64, 0
3, 99408, Note_on_c, 1, 43, 60
3, 99408, Note_on_c, 1, 48, 60
3, 99408, Note_on_c, 1, 52, 60
3, 99792, Note_on_c, 1, 43, 0
3, 99792, Note_on_c, 1, 48, 0
3, 99792, Note_on_c, 1, 52, 0
3, 99792, Note_on_c, 1, 43, 75
3, 99792, Note_on_c, 1, 50, 75
3, 99792, Note_on_c, 1, 53, 75
3, 100176, Note_on_c, 1, 43, 0
3, 100176, Note_on_c, 1, 50, 0
3, 100176, Note_on_c, 1, 53, 0
3, 100176, Note_on_c, 1, 48, 60
3, 100176, Note_on_c, 1, 52, 60
3, 100368, Note_on_c, 1, 48, 0
3, 100368, Note_on_c, 1, 52, 0
3, 100512, Note_on_c, 1, 55, 60
3, 100560, Note_on_c, 1, 55, 0
3, 100560, Note_on_c, 1, 60, 60
3, 100560, Note_on_c, 1, 64, 60
3, 100608, Note_on_c, 1, 60, 0
3, 100608, Note_on_c, 1, 64, 0
3, 100752, Note_on_c, 1, 60, 60
3, 100752, Note_on_c, 1, 64, 60
3, 100800, Note_on_c, 1, 60, 0
3, 100800, Note_on_c, 1, 64, 0
3, 100944, Note_on_c, 1, 60, 45
3, 100944, Note_on_c, 1, 64, 45
3, 101040, Note_on_c, 1, 60, 0
3, 101040, Note_on_c, 1, 64, 0
3, 101040, Note_on_c, 1, 59, 45
3, 101040, Note_on_c, 1, 62, 45
3, 101136, Note_on_c, 1, 59, 0
3, 101136, Note_on_c, 1, 62, 0
3, 101136, Note_on_c, 1, 58, 45
3, 101136, Note_on_c, 1, 61, 45
3, 101232, Note_on_c, 1, 58, 0
3, 101232, Note_on_c, 1, 61, 0
3, 101232, Note_on_c, 1, 59, 45
3, 101232, Note_on_c, 1, 62, 45
3, 101328, Note_on_c, 1, 59, 0
3, 101328, Note_on_c, 1, 62, 0
3, 101328, Note_on_c, 1, 55, 45
3, 101352, Note_on_c, 1, 55, 0
3, 101352, Note_on_c, 1, 62, 45
3, 101352, Note_on_c, 1, 65, 45
3, 101408, Note_on_c, 1, 62, 0
3, 101408, Note_on_c, 1, 65, 0
3, 101520, Note_on_c, 1, 62, 45
3, 101520, Note_on_c, 1, 65, 45
3, 101568, Note_on_c, 1, 62, 0
3, 101568, Note_on_c, 1, 65, 0
3, 101712, Note_on_c, 1, 62, 45
3, 101712, Note_on_c, 1, 65, 45
3, 101808, Note_on_c, 1, 62, 0
3, 101808, Note_on_c, 1, 65, 0
3, 101808, Note_on_c, 1, 60, 49
3, 101808, Note_on_c, 1, 64, 49
3, 101904, Note_on_c, 1, 60, 0
3, 101904, Note_on_c, 1, 64, 0
3, 101904, Note_on_c, 1, 59, 53
3, 101904, Note_on_c, 1, 63, 53
3, 102000, Note_on_c, 1, 59, 0
3, 102000, Note_on_c, 1, 63, 0
3, 102000, Note_on_c, 1, 60, 57
3, 102000, Note_on_c, 1, 64, 57
3, 102096, Note_on_c, 1, 60, 0
3, 102096, Note_on_c, 1, 64, 0
3, 102096, Note_on_c, 1, 52, 61
3, 102096, Note_on_c, 1, 61, 61
3, 102216, Note_on_c, 1, 52, 0
3, 102216, Note_on_c, 1, 61, 0
3, 102288, Note_on_c, 1, 52, 70
3, 102288, Note_on_c, 1, 61, 70
3, 102336, Note_on_c, 1, 52, 0
3, 102336, Note_on_c, 1, 61, 0
3, 102480, Note_on_c, 1, 53, 79
3, 102480, Note_on_c, 1, 61, 79
3, 102576, Note_on_c, 1, 61, 0
3, 102576, Note_on_c, 1, 62, 83
3, 102672, Note_on_c, 1, 62, 0
3, 102672, Note_on_c, 1, 64, 88
3, 102768, Note_on_c, 1, 64, 0
3, 102768, Note_on_c, 1, 65, 93
3, 102864, Note_on_c, 1, 53, 0
3, 102864, Note_on_c, 1, 65, 0
3, 102864, Note_on_c, 1, 55, 98
3, 102864, Note_on_c, 1, 64, 98
3, 102896, Note_on_c, 1, 55, 0
3, 102896, Note_on_c, 1, 64, 0
3, 103056, Note_on_c, 1, 43, 108
3, 103056, Note_on_c, 1, 55, 108
3, 103088, Note_on_c, 1, 43, 0
3, 103088, Note_on_c, 1, 55, 0
3, 103248, Note_on_c, 1, 36, 108
3, 103248, Note_on_c, 1, 48, 108
3, 103440, Note_on_c, 1, 36, 0
3, 103440, Note_on_c, 1, 48, 0
3, 103440, End_track
0, 0, End_of_file