0, 0, Header, 1, 12, 120
1, 0, Start_track
1, 0, Time_signature, 3, 2, 24, 8
1, 0, Key_signature, -1, "major"
1, 0, Tempo, 240000
1, 0, Marker_t, "Presto"
1, 30190, Tempo, 240000
1, 38970, Tempo, 240000
1, 71250, Tempo, 240000
1, 79570, Tempo, 240000
1, 107280, Key_signature, 2, "major"
1, 107280, Tempo, 352941
1, 107280, Marker_t, "Assai meno presto"
1, 109970, Tempo, 352941
1, 113930, Tempo, 352941
1, 153960, Tempo, 240000
1, 154080, Key_signature, -1, "major"
1, 154080, Tempo, 240000
1, 154080, Marker_t, "Presto"
1, 155510, Tempo, 240000
1, 171280, Tempo, 240000
1, 185760, Tempo, 240000
1, 192330, Tempo, 240000
1, 216000, Key_signature, 2, "major"
1, 216000, Tempo, 352941
1, 216000, Marker_t, "Assai meno presto"
1, 218690, Tempo, 352941
1, 222650, Tempo, 352941
1, 262440, Marker_t, "Presto"
1, 262680, Tempo, 240000
1, 262800, Key_signature, -1, "major"
1, 262800, Tempo, 240000
1, 264230, Tempo, 240000
1, 271080, Tempo, 240000
1, 271360, Tempo, 240000
1, 285840, Tempo, 240000
1, 292410, Tempo, 240000
1, 316080, Tempo, 352941
1, 316080, Marker_t, "Assai meno presto"
1, 317520, Tempo, 240000
1, 317520, Marker_t, "Presto"
1, 317520, End_track
2, 0, Start_track
2, 0, MIDI_port, 0
2, 0, Title_t, "Flutes"
2, 0, Program_c, 0, 73
2, 0, Control_c, 0, 7, 100
2, 0, Control_c, 0, 10, 50
2, 600, Note_on_c, 0, 77, 100
2, 720, Note_on_c, 0, 77, 0
2, 720, Note_on_c, 0, 77, 100
2, 750, Note_on_c, 0, 77, 0
2, 750, Note_on_c, 0, 81, 100
2, 840, Note_on_c, 0, 81, 0
2, 840, Note_on_c, 0, 77, 100
2, 900, Note_on_c, 0, 77, 0
2, 960, Note_on_c, 0, 77, 100
2, 960, Note_on_c, 0, 81, 100
2, 1080, Note_on_c, 0, 81, 0
2, 1080, Note_on_c, 0, 77, 0
2, 1080, Note_on_c, 0, 81, 100
2, 1080, Note_on_c, 0, 77, 100
2, 1110, Note_on_c, 0, 77, 0
2, 1110, Note_on_c, 0, 81, 0
2, 1110, Note_on_c, 0, 84, 100
2, 1110, Note_on_c, 0, 81, 100
2, 1200, Note_on_c, 0, 81, 0
2, 1200, Note_on_c, 0, 84, 0
2, 1200, Note_on_c, 0, 77, 100
2, 1200, Note_on_c, 0, 81, 100
2, 1260, Note_on_c, 0, 81, 0
2, 1260, Note_on_c, 0, 77, 0
2, 1320, Note_on_c, 0, 81, 100
2, 1320, Note_on_c, 0, 84, 100
2, 1440, Note_on_c, 0, 84, 0
2, 1440, Note_on_c, 0, 81, 0
2, 1440, Note_on_c, 0, 89, 100
2, 1440, Note_on_c, 0, 81, 100
2, 1560, Note_on_c, 0, 81, 0
2, 1560, Note_on_c, 0, 89, 0
2, 1560, Note_on_c, 0, 89, 100
2, 1560, Note_on_c, 0, 81, 100
2, 1680, Note_on_c, 0, 81, 0
2, 1680, Note_on_c, 0, 89, 0
2, 1680, Note_on_c, 0, 88, 100
2, 1680, Note_on_c, 0, 84, 100
2, 1800, Note_on_c, 0, 84, 0
2, 1800, Note_on_c, 0, 88, 0
2, 1800, Note_on_c, 0, 86, 100
2, 1800, Note_on_c, 0, 82, 100
2, 1920, Note_on_c, 0, 82, 0
2, 1920, Note_on_c, 0, 86, 0
2, 1920, Note_on_c, 0, 86, 100
2, 1920, Note_on_c, 0, 82, 100
2, 2040, Note_on_c, 0, 82, 0
2, 2040, Note_on_c, 0, 86, 0
2, 2040, Note_on_c, 0, 84, 100
2, 2040, Note_on_c, 0, 81, 100
2, 2160, Note_on_c, 0, 81, 0
2, 2160, Note_on_c, 0, 84, 0
2, 2160, Note_on_c, 0, 82, 100
2, 2160, Note_on_c, 0, 79, 100
2, 2280, Note_on_c, 0, 79, 0
2, 2280, Note_on_c, 0, 82, 0
2, 2280, Note_on_c, 0, 82, 100
2, 2280, Note_on_c, 0, 79, 100
2, 2400, Note_on_c, 0, 79, 0
2, 2400, Note_on_c, 0, 82, 0
2, 2400, Note_on_c, 0, 81, 100
2, 2400, Note_on_c, 0, 77, 100
2, 2520, Note_on_c, 0, 77, 0
2, 2520, Note_on_c, 0, 81, 0
2, 2520, Note_on_c, 0, 76, 100
2, 2520, Note_on_c, 0, 79, 100
2, 2880, Note_on_c, 0, 79, 0
2, 2880, Note_on_c, 0, 76, 0
2, 2880, Note_on_c, 0, 91, 100
2, 2880, Note_on_c, 0, 88, 100
2, 3000, Note_on_c, 0, 88, 0
2, 3000, Note_on_c, 0, 91, 0
2, 3000, Note_on_c, 0, 88, 100
2, 3000, Note_on_c, 0, 91, 100
2, 3120, Note_on_c, 0, 91, 0
2, 3120, Note_on_c, 0, 88, 0
2, 3120, Note_on_c, 0, 86, 100
2, 3120, Note_on_c, 0, 89, 100
2, 3240, Note_on_c, 0, 89, 0
2, 3240, Note_on_c, 0, 86, 0
2, 3240, Note_on_c, 0, 88, 100
2, 3240, Note_on_c, 0, 84, 100
2, 3360, Note_on_c, 0, 84, 0
2, 3360, Note_on_c, 0, 88, 0
2, 3360, Note_on_c, 0, 88, 100
2, 3360, Note_on_c, 0, 84, 100
2, 3480, Note_on_c, 0, 84, 0
2, 3480, Note_on_c, 0, 88, 0
2, 3480, Note_on_c, 0, 86, 100
2, 3480, Note_on_c, 0, 82, 100
2, 3600, Note_on_c, 0, 82, 0
2, 3600, Note_on_c, 0, 86, 0
2, 3600, Note_on_c, 0, 81, 100
2, 3600, Note_on_c, 0, 84, 100
2, 3720, Note_on_c, 0, 84, 0
2, 3720, Note_on_c, 0, 81, 0
2, 3720, Note_on_c, 0, 81, 100
2, 3720, Note_on_c, 0, 84, 100
2, 3840, Note_on_c, 0, 84, 0
2, 3840, Note_on_c, 0, 81, 0
2, 3840, Note_on_c, 0, 79, 100
2, 3840, Note_on_c, 0, 82, 100
2, 3960, Note_on_c, 0, 82, 0
2, 3960, Note_on_c, 0, 79, 0
2, 3960, Note_on_c, 0, 77, 100
2, 3960, Note_on_c, 0, 81, 100
2, 4320, Note_on_c, 0, 81, 0
2, 4320, Note_on_c, 0, 77, 0
2, 5040, Note_on_c, 0, 79, 100
2, 5160, Note_on_c, 0, 79, 0
2, 5160, Note_on_c, 0, 79, 100
2, 5280, Note_on_c, 0, 79, 0
2, 5280, Note_on_c, 0, 77, 100
2, 5400, Note_on_c, 0, 77, 0
2, 5400, Note_on_c, 0, 82, 100
2, 5640, Note_on_c, 0, 82, 0
2, 5640, Note_on_c, 0, 81, 100
2, 5760, Note_on_c, 0, 81, 0
2, 5760, Note_on_c, 0, 86, 100
2, 6000, Note_on_c, 0, 86, 0
2, 6000, Note_on_c, 0, 85, 100
2, 6120, Note_on_c, 0, 85, 0
2, 6120, Note_on_c, 0, 89, 100
2, 6360, Note_on_c, 0, 89, 0
2, 6360, Note_on_c, 0, 88, 100
2, 6480, Note_on_c, 0, 88, 0
2, 6480, Note_on_c, 0, 88, 100
2, 6840, Note_on_c, 0, 88, 0
2, 6840, Note_on_c, 0, 88, 100
2, 6960, Note_on_c, 0, 88, 0
2, 7200, Note_on_c, 0, 88, 100
2, 7560, Note_on_c, 0, 88, 0
2, 7560, Note_on_c, 0, 88, 100
2, 7680, Note_on_c, 0, 88, 0
2, 7920, Note_on_c, 0, 88, 100
2, 7920, Note_on_c, 0, 88, 100
2, 8040, Note_on_c, 0, 88, 0
2, 8040, Note_on_c, 0, 90, 100
2, 8160, Note_on_c, 0, 90, 0
2, 8160, Note_on_c, 0, 92, 100
2, 8280, Note_on_c, 0, 92, 0
2, 8280, Note_on_c, 0, 93, 100
2, 8400, Note_on_c, 0, 93, 0
2, 8400, Note_on_c, 0, 88, 0
2, 8400, Note_on_c, 0, 88, 100
2, 8520, Note_on_c, 0, 88, 0
2, 8520, Note_on_c, 0, 85, 100
2, 8640, Note_on_c, 0, 85, 0
2, 8640, Note_on_c, 0, 81, 100
2, 8760, Note_on_c, 0, 81, 0
2, 8760, Note_on_c, 0, 76, 100
2, 8880, Note_on_c, 0, 76, 0
2, 8880, Note_on_c, 0, 73, 100
2, 9000, Note_on_c, 0, 73, 0
2, 9000, Note_on_c, 0, 69, 100
2, 9120, Note_on_c, 0, 69, 0
2, 9240, Note_on_c, 0, 77, 100
2, 9360, Note_on_c, 0, 77, 0
2, 9360, Note_on_c, 0, 77, 100
2, 9390, Note_on_c, 0, 77, 0
2, 9390, Note_on_c, 0, 81, 100
2, 9480, Note_on_c, 0, 81, 0
2, 9480, Note_on_c, 0, 77, 100
2, 9540, Note_on_c, 0, 77, 0
2, 9600, Note_on_c, 0, 77, 100
2, 9600, Note_on_c, 0, 81, 100
2, 9720, Note_on_c, 0, 81, 0
2, 9720, Note_on_c, 0, 77, 0
2, 9720, Note_on_c, 0, 81, 100
2, 9720, Note_on_c, 0, 77, 100
2, 9750, Note_on_c, 0, 77, 0
2, 9750, Note_on_c, 0, 81, 0
2, 9750, Note_on_c, 0, 84, 100
2, 9750, Note_on_c, 0, 81, 100
2, 9840, Note_on_c, 0, 81, 0
2, 9840, Note_on_c, 0, 84, 0
2, 9840, Note_on_c, 0, 77, 100
2, 9840, Note_on_c, 0, 81, 100
2, 9900, Note_on_c, 0, 81, 0
2, 9900, Note_on_c, 0, 77, 0
2, 9960, Note_on_c, 0, 81, 100
2, 9960, Note_on_c, 0, 84, 100
2, 10080, Note_on_c, 0, 84, 0
2, 10080, Note_on_c, 0, 81, 0
2, 10080, Note_on_c, 0, 89, 100
2, 10080, Note_on_c, 0, 81, 100
2, 10200, Note_on_c, 0, 81, 0
2, 10200, Note_on_c, 0, 89, 0
2, 10200, Note_on_c, 0, 89, 100
2, 10200, Note_on_c, 0, 81, 100
2, 10320, Note_on_c, 0, 81, 0
2, 10320, Note_on_c, 0, 89, 0
2, 10320, Note_on_c, 0, 88, 100
2, 10320, Note_on_c, 0, 84, 100
2, 10440, Note_on_c, 0, 84, 0
2, 10440, Note_on_c, 0, 88, 0
2, 10440, Note_on_c, 0, 86, 100
2, 10440, Note_on_c, 0, 82, 100
2, 10560, Note_on_c, 0, 82, 0
2, 10560, Note_on_c, 0, 86, 0
2, 10560, Note_on_c, 0, 86, 100
2, 10560, Note_on_c, 0, 82, 100
2, 10680, Note_on_c, 0, 82, 0
2, 10680, Note_on_c, 0, 86, 0
2, 10680, Note_on_c, 0, 84, 100
2, 10680, Note_on_c, 0, 81, 100
2, 10800, Note_on_c, 0, 81, 0
2, 10800, Note_on_c, 0, 84, 0
2, 10800, Note_on_c, 0, 82, 100
2, 10800, Note_on_c, 0, 79, 100
2, 10920, Note_on_c, 0, 79, 0
2, 10920, Note_on_c, 0, 82, 0
2, 10920, Note_on_c, 0, 82, 100
2, 10920, Note_on_c, 0, 79, 100
2, 11040, Note_on_c, 0, 79, 0
2, 11040, Note_on_c, 0, 82, 0
2, 11040, Note_on_c, 0, 81, 100
2, 11040, Note_on_c, 0, 77, 100
2, 11160, Note_on_c, 0, 77, 0
2, 11160, Note_on_c, 0, 81, 0
2, 11160, Note_on_c, 0, 76, 100
2, 11160, Note_on_c, 0, 79, 100
2, 11520, Note_on_c, 0, 79, 0
2, 11520, Note_on_c, 0, 76, 0
2, 11520, Note_on_c, 0, 91, 100
2, 11520, Note_on_c, 0, 88, 100
2, 11640, Note_on_c, 0, 88, 0
2, 11640, Note_on_c, 0, 91, 0
2, 11640, Note_on_c, 0, 88, 100
2, 11640, Note_on_c, 0, 91, 100
2, 11760, Note_on_c, 0, 91, 0
2, 11760, Note_on_c, 0, 88, 0
2, 11760, Note_on_c, 0, 86, 100
2, 11760, Note_on_c, 0, 89, 100
2, 11880, Note_on_c, 0, 89, 0
2, 11880, Note_on_c, 0, 86, 0
2, 11880, Note_on_c, 0, 88, 100
2, 11880, Note_on_c, 0, 84, 100
2, 12000, Note_on_c, 0, 84, 0
2, 12000, Note_on_c, 0, 88, 0
2, 12000, Note_on_c, 0, 88, 100
2, 12000, Note_on_c, 0, 84, 100
2, 12120, Note_on_c, 0, 84, 0
2, 12120, Note_on_c, 0, 88, 0
2, 12120, Note_on_c, 0, 86, 100
2, 12120, Note_on_c, 0, 82, 100
2, 12240, Note_on_c, 0, 82, 0
2, 12240, Note_on_c, 0, 86, 0
2, 12240, Note_on_c, 0, 81, 100
2, 12240, Note_on_c, 0, 84, 100
2, 12360, Note_on_c, 0, 84, 0
2, 12360, Note_on_c, 0, 81, 0
2, 12360, Note_on_c, 0, 81, 100
2, 12360, Note_on_c, 0, 84, 100
2, 12480, Note_on_c, 0, 84, 0
2, 12480, Note_on_c, 0, 81, 0
2, 12480, Note_on_c, 0, 79, 100
2, 12480, Note_on_c, 0, 82, 100
2, 12600, Note_on_c, 0, 82, 0
2, 12600, Note_on_c, 0, 79, 0
2, 12600, Note_on_c, 0, 77, 100
2, 12600, Note_on_c, 0, 81, 100
2, 12960, Note_on_c, 0, 81, 0
2, 12960, Note_on_c, 0, 77, 0
2, 13680, Note_on_c, 0, 79, 100
2, 13800, Note_on_c, 0, 79, 0
2, 13800, Note_on_c, 0, 79, 100
2, 13920, Note_on_c, 0, 79, 0
2, 13920, Note_on_c, 0, 77, 100
2, 14040, Note_on_c, 0, 77, 0
2, 14040, Note_on_c, 0, 82, 100
2, 14280, Note_on_c, 0, 82, 0
2, 14280, Note_on_c, 0, 81, 100
2, 14400, Note_on_c, 0, 81, 0
2, 14400, Note_on_c, 0, 86, 100
2, 14640, Note_on_c, 0, 86, 0
2, 14640, Note_on_c, 0, 85, 100
2, 14760, Note_on_c, 0, 85, 0
2, 14760, Note_on_c, 0, 89, 100
2, 15000, Note_on_c, 0, 89, 0
2, 15000, Note_on_c, 0, 88, 100
2, 15120, Note_on_c, 0, 88, 0
2, 15120, Note_on_c, 0, 88, 100
2, 15480, Note_on_c, 0, 88, 0
2, 15480, Note_on_c, 0, 88, 100
2, 15600, Note_on_c, 0, 88, 0
2, 15840, Note_on_c, 0, 88, 100
2, 16200, Note_on_c, 0, 88, 0
2, 16200, Note_on_c, 0, 88, 100
2, 16320, Note_on_c, 0, 88, 0
2, 16560, Note_on_c, 0, 88, 100
2, 16560, Note_on_c, 0, 88, 100
2, 16680, Note_on_c, 0, 88, 0
2, 16680, Note_on_c, 0, 90, 100
2, 16800, Note_on_c, 0, 90, 0
2, 16800, Note_on_c, 0, 92, 100
2, 16920, Note_on_c, 0, 92, 0
2, 16920, Note_on_c, 0, 93, 100
2, 17040, Note_on_c, 0, 93, 0
2, 17040, Note_on_c, 0, 88, 0
2, 17040, Note_on_c, 0, 88, 100
2, 17160, Note_on_c, 0, 88, 0
2, 17160, Note_on_c, 0, 85, 100
2, 17280, Note_on_c, 0, 85, 0
2, 17280, Note_on_c, 0, 81, 100
2, 17400, Note_on_c, 0, 81, 0
2, 17400, Note_on_c, 0, 76, 100
2, 17520, Note_on_c, 0, 76, 0
2, 17520, Note_on_c, 0, 73, 100
2, 17640, Note_on_c, 0, 73, 0
2, 17640, Note_on_c, 0, 69, 100
2, 17760, Note_on_c, 0, 69, 0
2, 19320, Note_on_c, 0, 81, 100
2, 19440, Note_on_c, 0, 81, 0
2, 19440, Note_on_c, 0, 83, 100
2, 19560, Note_on_c, 0, 83, 0
2, 19560, Note_on_c, 0, 83, 100
2, 19680, Note_on_c, 0, 83, 0
2, 19680, Note_on_c, 0, 81, 100
2, 19800, Note_on_c, 0, 81, 0
2, 19800, Note_on_c, 0, 86, 100
2, 20040, Note_on_c, 0, 86, 0
2, 20040, Note_on_c, 0, 85, 100
2, 20160, Note_on_c, 0, 85, 0
2, 20160, Note_on_c, 0, 83, 100
2, 20280, Note_on_c, 0, 83, 0
2, 20280, Note_on_c, 0, 83, 100
2, 20400, Note_on_c, 0, 83, 0
2, 20400, Note_on_c, 0, 81, 100
2, 20520, Note_on_c, 0, 81, 0
2, 20520, Note_on_c, 0, 86, 100
2, 20760, Note_on_c, 0, 86, 0
2, 20760, Note_on_c, 0, 85, 100
2, 20880, Note_on_c, 0, 85, 0
2, 20880, Note_on_c, 0, 86, 100
2, 21120, Note_on_c, 0, 86, 0
2, 21120, Note_on_c, 0, 85, 100
2, 21240, Note_on_c, 0, 85, 0
2, 21240, Note_on_c, 0, 86, 100
2, 21480, Note_on_c, 0, 86, 0
2, 21480, Note_on_c, 0, 85, 100
2, 21600, Note_on_c, 0, 85, 0
2, 21600, Note_on_c, 0, 86, 100
2, 21840, Note_on_c, 0, 86, 0
2, 21840, Note_on_c, 0, 85, 100
2, 21960, Note_on_c, 0, 85, 0
2, 21960, Note_on_c, 0, 86, 100
2, 22200, Note_on_c, 0, 86, 0
2, 22200, Note_on_c, 0, 85, 100
2, 22320, Note_on_c, 0, 85, 0
2, 24720, Note_on_c, 0, 89, 100
2, 24720, Note_on_c, 0, 86, 100
2, 24840, Note_on_c, 0, 86, 0
2, 24840, Note_on_c, 0, 89, 0
2, 24840, Note_on_c, 0, 86, 100
2, 24840, Note_on_c, 0, 89, 100
2, 24960, Note_on_c, 0, 89, 0
2, 24960, Note_on_c, 0, 86, 0
2, 25080, Note_on_c, 0, 84, 100
2, 25200, Note_on_c, 0, 84, 0
2, 25200, Note_on_c, 0, 86, 100
2, 25320, Note_on_c, 0, 86, 0
2, 25320, Note_on_c, 0, 86, 100
2, 25440, Note_on_c, 0, 86, 0
2, 25440, Note_on_c, 0, 84, 100
2, 25560, Note_on_c, 0, 84, 0
2, 25560, Note_on_c, 0, 89, 100
2, 25800, Note_on_c, 0, 89, 0
2, 25800, Note_on_c, 0, 88, 100
2, 25920, Note_on_c, 0, 88, 0
2, 25920, Note_on_c, 0, 86, 100
2, 26040, Note_on_c, 0, 86, 0
2, 26040, Note_on_c, 0, 86, 100
2, 26160, Note_on_c, 0, 86, 0
2, 26160, Note_on_c, 0, 84, 100
2, 26280, Note_on_c, 0, 84, 0
2, 26280, Note_on_c, 0, 89, 100
2, 26520, Note_on_c, 0, 89, 0
2, 26520, Note_on_c, 0, 88, 100
2, 26640, Note_on_c, 0, 88, 0
2, 26640, Note_on_c, 0, 89, 100
2, 26880, Note_on_c, 0, 89, 0
2, 26880, Note_on_c, 0, 88, 100
2, 27000, Note_on_c, 0, 88, 0
2, 27000, Note_on_c, 0, 89, 100
2, 27240, Note_on_c, 0, 89, 0
2, 27240, Note_on_c, 0, 88, 100
2, 27360, Note_on_c, 0, 88, 0
2, 27360, Note_on_c, 0, 89, 100
2, 27600, Note_on_c, 0, 89, 0
2, 27600, Note_on_c, 0, 88, 100
2, 27720, Note_on_c, 0, 88, 0
2, 27720, Note_on_c, 0, 89, 100
2, 27960, Note_on_c, 0, 89, 0
2, 27960, Note_on_c, 0, 88, 100
2, 28080, Note_on_c, 0, 88, 0
2, 35640, Note_on_c, 0, 82, 100
2, 35760, Note_on_c, 0, 82, 0
2, 35760, Note_on_c, 0, 82, 100
2, 35880, Note_on_c, 0, 82, 0
2, 35880, Note_on_c, 0, 81, 100
2, 36000, Note_on_c, 0, 81, 0
2, 36000, Note_on_c, 0, 79, 100
2, 36120, Note_on_c, 0, 79, 0
2, 36120, Note_on_c, 0, 79, 100
2, 36240, Note_on_c, 0, 79, 0
2, 36240, Note_on_c, 0, 77, 100
2, 36360, Note_on_c, 0, 77, 0
2, 36360, Note_on_c, 0, 75, 100
2, 36480, Note_on_c, 0, 75, 0
2, 36480, Note_on_c, 0, 75, 100
2, 36600, Note_on_c, 0, 75, 0
2, 36600, Note_on_c, 0, 74, 100
2, 36720, Note_on_c, 0, 74, 0
2, 36720, Note_on_c, 0, 72, 100
2, 36840, Note_on_c, 0, 72, 0
2, 37080, Note_on_c, 0, 84, 100
2, 37200, Note_on_c, 0, 84, 0
2, 37200, Note_on_c, 0, 84, 100
2, 37320, Note_on_c, 0, 84, 0
2, 37320, Note_on_c, 0, 82, 100
2, 37440, Note_on_c, 0, 82, 0
2, 37440, Note_on_c, 0, 81, 100
2, 37560, Note_on_c, 0, 81, 0
2, 37560, Note_on_c, 0, 81, 100
2, 37680, Note_on_c, 0, 81, 0
2, 37680, Note_on_c, 0, 79, 100
2, 37800, Note_on_c, 0, 79, 0
2, 37800, Note_on_c, 0, 77, 100
2, 37920, Note_on_c, 0, 77, 0
2, 37920, Note_on_c, 0, 77, 100
2, 38040, Note_on_c, 0, 77, 0
2, 38040, Note_on_c, 0, 75, 100
2, 38160, Note_on_c, 0, 75, 0
2, 38160, Note_on_c, 0, 74, 100
2, 38280, Note_on_c, 0, 74, 0
2, 40920, Note_on_c, 0, 89, 100
2, 40920, Note_on_c, 0, 77, 100
2, 41040, Note_on_c, 0, 77, 0
2, 41040, Note_on_c, 0, 89, 0
2, 41040, Note_on_c, 0, 89, 100
2, 41040, Note_on_c, 0, 77, 100
2, 41070, Note_on_c, 0, 77, 0
2, 41070, Note_on_c, 0, 89, 0
2, 41070, Note_on_c, 0, 93, 100
2, 41070, Note_on_c, 0, 79, 100
2, 41160, Note_on_c, 0, 79, 0
2, 41160, Note_on_c, 0, 93, 0
2, 41160, Note_on_c, 0, 89, 100
2, 41160, Note_on_c, 0, 77, 100
2, 41220, Note_on_c, 0, 77, 0
2, 41220, Note_on_c, 0, 89, 0
2, 41280, Note_on_c, 0, 81, 100
2, 41280, Note_on_c, 0, 77, 100
2, 41400, Note_on_c, 0, 77, 0
2, 41400, Note_on_c, 0, 81, 0
2, 41400, Note_on_c, 0, 81, 100
2, 41400, Note_on_c, 0, 77, 100
2, 41430, Note_on_c, 0, 77, 0
2, 41430, Note_on_c, 0, 81, 0
2, 41430, Note_on_c, 0, 84, 100
2, 41430, Note_on_c, 0, 81, 100
2, 41520, Note_on_c, 0, 81, 0
2, 41520, Note_on_c, 0, 84, 0
2, 41520, Note_on_c, 0, 77, 100
2, 41520, Note_on_c, 0, 81, 100
2, 41580, Note_on_c, 0, 81, 0
2, 41580, Note_on_c, 0, 77, 0
2, 41640, Note_on_c, 0, 84, 100
2, 41640, Note_on_c, 0, 81, 100
2, 41760, Note_on_c, 0, 81, 0
2, 41760, Note_on_c, 0, 84, 0
2, 41760, Note_on_c, 0, 89, 100
2, 41760, Note_on_c, 0, 77, 100
2, 42960, Note_on_c, 0, 77, 0
2, 42960, Note_on_c, 0, 89, 0
2, 42960, Note_on_c, 0, 91, 100
2, 42960, Note_on_c, 0, 79, 100
2, 43080, Note_on_c, 0, 79, 0
2, 43080, Note_on_c, 0, 91, 0
2, 43080, Note_on_c, 0, 91, 100
2, 43080, Note_on_c, 0, 79, 100
2, 43200, Note_on_c, 0, 79, 0
2, 43200, Note_on_c, 0, 91, 0
2, 43200, Note_on_c, 0, 91, 100
2, 43200, Note_on_c, 0, 79, 100
2, 44400, Note_on_c, 0, 79, 0
2, 44400, Note_on_c, 0, 91, 0
2, 44400, Note_on_c, 0, 81, 100
2, 44400, Note_on_c, 0, 93, 100
2, 44520, Note_on_c, 0, 93, 0
2, 44520, Note_on_c, 0, 81, 0
2, 44520, Note_on_c, 0, 81, 100
2, 44520, Note_on_c, 0, 93, 100
2, 44640, Note_on_c, 0, 93, 0
2, 44640, Note_on_c, 0, 81, 0
2, 44760, Note_on_c, 0, 81, 100
2, 44880, Note_on_c, 0, 81, 0
2, 44880, Note_on_c, 0, 82, 100
2, 45000, Note_on_c, 0, 82, 0
2, 45000, Note_on_c, 0, 84, 100
2, 45120, Note_on_c, 0, 84, 0
2, 45120, Note_on_c, 0, 84, 100
2, 45240, Note_on_c, 0, 84, 0
2, 45240, Note_on_c, 0, 86, 100
2, 45360, Note_on_c, 0, 86, 0
2, 45360, Note_on_c, 0, 88, 100
2, 45480, Note_on_c, 0, 88, 0
2, 45480, Note_on_c, 0, 88, 100
2, 45600, Note_on_c, 0, 88, 0
2, 45600, Note_on_c, 0, 89, 100
2, 45720, Note_on_c, 0, 89, 0
2, 45720, Note_on_c, 0, 91, 100
2, 45840, Note_on_c, 0, 91, 0
2, 46200, Note_on_c, 0, 82, 100
2, 46320, Note_on_c, 0, 82, 0
2, 46320, Note_on_c, 0, 84, 100
2, 46440, Note_on_c, 0, 84, 0
2, 46440, Note_on_c, 0, 86, 100
2, 46560, Note_on_c, 0, 86, 0
2, 46560, Note_on_c, 0, 86, 100
2, 46680, Note_on_c, 0, 86, 0
2, 46680, Note_on_c, 0, 88, 100
2, 46800, Note_on_c, 0, 88, 0
2, 46800, Note_on_c, 0, 89, 100
2, 46920, Note_on_c, 0, 89, 0
2, 46920, Note_on_c, 0, 89, 100
2, 47040, Note_on_c, 0, 89, 0
2, 47040, Note_on_c, 0, 91, 100
2, 47160, Note_on_c, 0, 91, 0
2, 47160, Note_on_c, 0, 93, 100
2, 47280, Note_on_c, 0, 93, 0
2, 51480, Note_on_c, 0, 84, 100
2, 51480, Note_on_c, 0, 79, 100
2, 51600, Note_on_c, 0, 79, 0
2, 51600, Note_on_c, 0, 84, 0
2, 51600, Note_on_c, 0, 84, 100
2, 51600, Note_on_c, 0, 79, 100
2, 51720, Note_on_c, 0, 79, 0
2, 51720, Note_on_c, 0, 84, 0
2, 51720, Note_on_c, 0, 84, 100
2, 51720, Note_on_c, 0, 79, 100
2, 51840, Note_on_c, 0, 79, 0
2, 51840, Note_on_c, 0, 84, 0
2, 52200, Note_on_c, 0, 84, 100
2, 52200, Note_on_c, 0, 79, 100
2, 52320, Note_on_c, 0, 79, 0
2, 52320, Note_on_c, 0, 84, 0
2, 52320, Note_on_c, 0, 84, 100
2, 52320, Note_on_c, 0, 79, 100
2, 52440, Note_on_c, 0, 79, 0
2, 52440, Note_on_c, 0, 84, 0
2, 52440, Note_on_c, 0, 84, 100
2, 52440, Note_on_c, 0, 79, 100
2, 52560, Note_on_c, 0, 79, 0
2, 52560, Note_on_c, 0, 84, 0
2, 52920, Note_on_c, 0, 84, 100
2, 52920, Note_on_c, 0, 79, 100
2, 53040, Note_on_c, 0, 79, 0
2, 53040, Note_on_c, 0, 84, 0
2, 53040, Note_on_c, 0, 84, 100
2, 53040, Note_on_c, 0, 79, 100
2, 53160, Note_on_c, 0, 79, 0
2, 53160, Note_on_c, 0, 84, 0
2, 53160, Note_on_c, 0, 84, 100
2, 53160, Note_on_c, 0, 79, 100
2, 53280, Note_on_c, 0, 79, 0
2, 53280, Note_on_c, 0, 84, 0
2, 53640, Note_on_c, 0, 84, 100
2, 53640, Note_on_c, 0, 79, 100
2, 53760, Note_on_c, 0, 79, 0
2, 53760, Note_on_c, 0, 84, 0
2, 53760, Note_on_c, 0, 84, 100
2, 53760, Note_on_c, 0, 79, 100
2, 53880, Note_on_c, 0, 79, 0
2, 53880, Note_on_c, 0, 84, 0
2, 53880, Note_on_c, 0, 84, 100
2, 53880, Note_on_c, 0, 79, 100
2, 54000, Note_on_c, 0, 79, 0
2, 54000, Note_on_c, 0, 84, 0
2, 54000, Note_on_c, 0, 88, 100
2, 54030, Note_on_c, 0, 88, 0
2, 54030, Note_on_c, 0, 89, 100
2, 54060, Note_on_c, 0, 89, 0
2, 54060, Note_on_c, 0, 88, 100
2, 54090, Note_on_c, 0, 88, 0
2, 54090, Note_on_c, 0, 89, 100
2, 54120, Note_on_c, 0, 89, 0
2, 54120, Note_on_c, 0, 88, 100
2, 54150, Note_on_c, 0, 88, 0
2, 54150, Note_on_c, 0, 89, 100
2, 54180, Note_on_c, 0, 89, 0
2, 54180, Note_on_c, 0, 88, 100
2, 54210, Note_on_c, 0, 88, 0
2, 54210, Note_on_c, 0, 89, 100
2, 54240, Note_on_c, 0, 89, 0
2, 54240, Note_on_c, 0, 88, 100
2, 54270, Note_on_c, 0, 88, 0
2, 54270, Note_on_c, 0, 89, 100
2, 54300, Note_on_c, 0, 89, 0
2, 54300, Note_on_c, 0, 86, 100
2, 54330, Note_on_c, 0, 86, 0
2, 54330, Note_on_c, 0, 88, 100
2, 54360, Note_on_c, 0, 88, 0
2, 54360, Note_on_c, 0, 81, 100
2, 54360, Note_on_c, 0, 89, 100
2, 54480, Note_on_c, 0, 89, 0
2, 54480, Note_on_c, 0, 81, 0
2, 54480, Note_on_c, 0, 84, 100
2, 54480, Note_on_c, 0, 81, 100
2, 54600, Note_on_c, 0, 81, 0
2, 54600, Note_on_c, 0, 84, 0
2, 54600, Note_on_c, 0, 77, 100
2, 54600, Note_on_c, 0, 81, 100
2, 54720, Note_on_c, 0, 81, 0
2, 54720, Note_on_c, 0, 77, 0
2, 54720, Note_on_c, 0, 82, 100
2, 54750, Note_on_c, 0, 82, 0
2, 54750, Note_on_c, 0, 84, 100
2, 54780, Note_on_c, 0, 84, 0
2, 54780, Note_on_c, 0, 82, 100
2, 54810, Note_on_c, 0, 82, 0
2, 54810, Note_on_c, 0, 84, 100
2, 54840, Note_on_c, 0, 84, 0
2, 54840, Note_on_c, 0, 82, 100
2, 54870, Note_on_c, 0, 82, 0
2, 54870, Note_on_c, 0, 84, 100
2, 54900, Note_on_c, 0, 84, 0
2, 54900, Note_on_c, 0, 82, 100
2, 54930, Note_on_c, 0, 82, 0
2, 54930, Note_on_c, 0, 84, 100
2, 54960, Note_on_c, 0, 84, 0
2, 54960, Note_on_c, 0, 82, 100
2, 54990, Note_on_c, 0, 82, 0
2, 54990, Note_on_c, 0, 84, 100
2, 55020, Note_on_c, 0, 84, 0
2, 55020, Note_on_c, 0, 81, 100
2, 55050, Note_on_c, 0, 81, 0
2, 55050, Note_on_c, 0, 82, 100
2, 55080, Note_on_c, 0, 82, 0
2, 55080, Note_on_c, 0, 77, 100
2, 55080, Note_on_c, 0, 81, 100
2, 55200, Note_on_c, 0, 81, 0
2, 55200, Note_on_c, 0, 77, 0
2, 55200, Note_on_c, 0, 84, 100
2, 55200, Note_on_c, 0, 81, 100
2, 55320, Note_on_c, 0, 81, 0
2, 55320, Note_on_c, 0, 84, 0
2, 55320, Note_on_c, 0, 89, 100
2, 55320, Note_on_c, 0, 81, 100
2, 55440, Note_on_c, 0, 81, 0
2, 55440, Note_on_c, 0, 89, 0
2, 55440, Note_on_c, 0, 88, 100
2, 55470, Note_on_c, 0, 88, 0
2, 55470, Note_on_c, 0, 89, 100
2, 55500, Note_on_c, 0, 89, 0
2, 55500, Note_on_c, 0, 88, 100
2, 55530, Note_on_c, 0, 88, 0
2, 55530, Note_on_c, 0, 89, 100
2, 55560, Note_on_c, 0, 89, 0
2, 55560, Note_on_c, 0, 88, 100
2, 55590, Note_on_c, 0, 88, 0
2, 55590, Note_on_c, 0, 89, 100
2, 55620, Note_on_c, 0, 89, 0
2, 55620, Note_on_c, 0, 88, 100
2, 55650, Note_on_c, 0, 88, 0
2, 55650, Note_on_c, 0, 89, 100
2, 55680, Note_on_c, 0, 89, 0
2, 55680, Note_on_c, 0, 88, 100
2, 55710, Note_on_c, 0, 88, 0
2, 55710, Note_on_c, 0, 89, 100
2, 55740, Note_on_c, 0, 89, 0
2, 55740, Note_on_c, 0, 86, 100
2, 55770, Note_on_c, 0, 86, 0
2, 55770, Note_on_c, 0, 88, 100
2, 55800, Note_on_c, 0, 88, 0
2, 55800, Note_on_c, 0, 89, 100
2, 55800, Note_on_c, 0, 81, 100
2, 55920, Note_on_c, 0, 81, 0
2, 55920, Note_on_c, 0, 89, 0
2, 55920, Note_on_c, 0, 84, 100
2, 55920, Note_on_c, 0, 81, 100
2, 56040, Note_on_c, 0, 81, 0
2, 56040, Note_on_c, 0, 84, 0
2, 56040, Note_on_c, 0, 77, 100
2, 56040, Note_on_c, 0, 81, 100
2, 56160, Note_on_c, 0, 81, 0
2, 56160, Note_on_c, 0, 77, 0
2, 56160, Note_on_c, 0, 88, 100
2, 56190, Note_on_c, 0, 88, 0
2, 56190, Note_on_c, 0, 89, 100
2, 56220, Note_on_c, 0, 89, 0
2, 56220, Note_on_c, 0, 88, 100
2, 56250, Note_on_c, 0, 88, 0
2, 56250, Note_on_c, 0, 89, 100
2, 56280, Note_on_c, 0, 89, 0
2, 56280, Note_on_c, 0, 88, 100
2, 56310, Note_on_c, 0, 88, 0
2, 56310, Note_on_c, 0, 89, 100
2, 56340, Note_on_c, 0, 89, 0
2, 56340, Note_on_c, 0, 88, 100
2, 56370, Note_on_c, 0, 88, 0
2, 56370, Note_on_c, 0, 89, 100
2, 56400, Note_on_c, 0, 89, 0
2, 56400, Note_on_c, 0, 88, 100
2, 56430, Note_on_c, 0, 88, 0
2, 56430, Note_on_c, 0, 89, 100
2, 56460, Note_on_c, 0, 89, 0
2, 56460, Note_on_c, 0, 86, 100
2, 56490, Note_on_c, 0, 86, 0
2, 56490, Note_on_c, 0, 88, 100
2, 56520, Note_on_c, 0, 88, 0
2, 56520, Note_on_c, 0, 89, 100
2, 56520, Note_on_c, 0, 81, 100
2, 56640, Note_on_c, 0, 81, 0
2, 56640, Note_on_c, 0, 89, 0
2, 56640, Note_on_c, 0, 84, 100
2, 56640, Note_on_c, 0, 81, 100
2, 56760, Note_on_c, 0, 81, 0
2, 56760, Note_on_c, 0, 84, 0
2, 56760, Note_on_c, 0, 77, 100
2, 56760, Note_on_c, 0, 81, 100
2, 56880, Note_on_c, 0, 81, 0
2, 56880, Note_on_c, 0, 77, 0
2, 56880, Note_on_c, 0, 88, 100
2, 56910, Note_on_c, 0, 88, 0
2, 56910, Note_on_c, 0, 89, 100
2, 56940, Note_on_c, 0, 89, 0
2, 56940, Note_on_c, 0, 88, 100
2, 56970, Note_on_c, 0, 88, 0
2, 56970, Note_on_c, 0, 89, 100
2, 57000, Note_on_c, 0, 89, 0
2, 57000, Note_on_c, 0, 88, 100
2, 57030, Note_on_c, 0, 88, 0
2, 57030, Note_on_c, 0, 89, 100
2, 57060, Note_on_c, 0, 89, 0
2, 57060, Note_on_c, 0, 88, 100
2, 57090, Note_on_c, 0, 88, 0
2, 57090, Note_on_c, 0, 89, 100
2, 57120, Note_on_c, 0, 89, 0
2, 57120, Note_on_c, 0, 88, 100
2, 57150, Note_on_c, 0, 88, 0
2, 57150, Note_on_c, 0, 89, 100
2, 57180, Note_on_c, 0, 89, 0
2, 57180, Note_on_c, 0, 86, 100
2, 57210, Note_on_c, 0, 86, 0
2, 57210, Note_on_c, 0, 88, 100
2, 57240, Note_on_c, 0, 88, 0
2, 57240, Note_on_c, 0, 89, 100
2, 57240, Note_on_c, 0, 81, 100
2, 57360, Note_on_c, 0, 81, 0
2, 57360, Note_on_c, 0, 89, 0
2, 57360, Note_on_c, 0, 84, 100
2, 57480, Note_on_c, 0, 84, 0
2, 57480, Note_on_c, 0, 81, 100
2, 57600, Note_on_c, 0, 81, 0
2, 57600, Note_on_c, 0, 77, 100
2, 57720, Note_on_c, 0, 77, 0
2, 57720, Note_on_c, 0, 72, 100
2, 57840, Note_on_c, 0, 72, 0
2, 57840, Note_on_c, 0, 69, 100
2, 57960, Note_on_c, 0, 69, 0
2, 57960, Note_on_c, 0, 77, 100
2, 58080, Note_on_c, 0, 77, 0
2, 59640, Note_on_c, 0, 89, 100
2, 59640, Note_on_c, 0, 77, 100
2, 59760, Note_on_c, 0, 77, 0
2, 59760, Note_on_c, 0, 89, 0
2, 59760, Note_on_c, 0, 89, 100
2, 59760, Note_on_c, 0, 77, 100
2, 59790, Note_on_c, 0, 77, 0
2, 59790, Note_on_c, 0, 89, 0
2, 59790, Note_on_c, 0, 93, 100
2, 59790, Note_on_c, 0, 81, 100
2, 59880, Note_on_c, 0, 81, 0
2, 59880, Note_on_c, 0, 93, 0
2, 59880, Note_on_c, 0, 89, 100
2, 59880, Note_on_c, 0, 77, 100
2, 59940, Note_on_c, 0, 77, 0
2, 59940, Note_on_c, 0, 89, 0
2, 60000, Note_on_c, 0, 89, 100
2, 60000, Note_on_c, 0, 77, 100
2, 60120, Note_on_c, 0, 77, 0
2, 60120, Note_on_c, 0, 89, 0
2, 60120, Note_on_c, 0, 89, 100
2, 60120, Note_on_c, 0, 77, 100
2, 60150, Note_on_c, 0, 77, 0
2, 60150, Note_on_c, 0, 89, 0
2, 60150, Note_on_c, 0, 81, 100
2, 60150, Note_on_c, 0, 93, 100
2, 60240, Note_on_c, 0, 93, 0
2, 60240, Note_on_c, 0, 81, 0
2, 60240, Note_on_c, 0, 89, 100
2, 60240, Note_on_c, 0, 77, 100
2, 60360, Note_on_c, 0, 77, 0
2, 60360, Note_on_c, 0, 89, 0
2, 60360, Note_on_c, 0, 89, 100
2, 60360, Note_on_c, 0, 77, 100
2, 60480, Note_on_c, 0, 77, 0
2, 60480, Note_on_c, 0, 89, 0
2, 60480, Note_on_c, 0, 89, 100
2, 60480, Note_on_c, 0, 77, 100
2, 60510, Note_on_c, 0, 77, 0
2, 60510, Note_on_c, 0, 89, 0
2, 60510, Note_on_c, 0, 81, 100
2, 60510, Note_on_c, 0, 93, 100
2, 60600, Note_on_c, 0, 93, 0
2, 60600, Note_on_c, 0, 81, 0
2, 60600, Note_on_c, 0, 89, 100
2, 60600, Note_on_c, 0, 77, 100
2, 60720, Note_on_c, 0, 77, 0
2, 60720, Note_on_c, 0, 89, 0
2, 60720, Note_on_c, 0, 89, 100
2, 60720, Note_on_c, 0, 77, 100
2, 60840, Note_on_c, 0, 77, 0
2, 60840, Note_on_c, 0, 89, 0
2, 60840, Note_on_c, 0, 89, 100
2, 60840, Note_on_c, 0, 77, 100
2, 60870, Note_on_c, 0, 77, 0
2, 60870, Note_on_c, 0, 89, 0
2, 60870, Note_on_c, 0, 81, 100
2, 60870, Note_on_c, 0, 93, 100
2, 60960, Note_on_c, 0, 93, 0
2, 60960, Note_on_c, 0, 81, 0
2, 60960, Note_on_c, 0, 89, 100
2, 60960, Note_on_c, 0, 77, 100
2, 61080, Note_on_c, 0, 77, 0
2, 61080, Note_on_c, 0, 89, 0
2, 61080, Note_on_c, 0, 89, 100
2, 61080, Note_on_c, 0, 77, 100
2, 61200, Note_on_c, 0, 77, 0
2, 61200, Note_on_c, 0, 89, 0
2, 61200, Note_on_c, 0, 81, 100
2, 61200, Note_on_c, 0, 93, 100
2, 62520, Note_on_c, 0, 93, 0
2, 62520, Note_on_c, 0, 81, 0
2, 63960, Note_on_c, 0, 81, 100
2, 64080, Note_on_c, 0, 81, 0
2, 64080, Note_on_c, 0, 83, 100
2, 64200, Note_on_c, 0, 83, 0
2, 64200, Note_on_c, 0, 83, 100
2, 64320, Note_on_c, 0, 83, 0
2, 64320, Note_on_c, 0, 81, 100
2, 64440, Note_on_c, 0, 81, 0
2, 64440, Note_on_c, 0, 86, 100
2, 64680, Note_on_c, 0, 86, 0
2, 64680, Note_on_c, 0, 85, 100
2, 64800, Note_on_c, 0, 85, 0
2, 64800, Note_on_c, 0, 83, 100
2, 64920, Note_on_c, 0, 83, 0
2, 64920, Note_on_c, 0, 83, 100
2, 65040, Note_on_c, 0, 83, 0
2, 65040, Note_on_c, 0, 81, 100
2, 65160, Note_on_c, 0, 81, 0
2, 65160, Note_on_c, 0, 86, 100
2, 65400, Note_on_c, 0, 86, 0
2, 65400, Note_on_c, 0, 85, 100
2, 65520, Note_on_c, 0, 85, 0
2, 65520, Note_on_c, 0, 86, 100
2, 65760, Note_on_c, 0, 86, 0
2, 65760, Note_on_c, 0, 85, 100
2, 65880, Note_on_c, 0, 85, 0
2, 65880, Note_on_c, 0, 86, 100
2, 66120, Note_on_c, 0, 86, 0
2, 66120, Note_on_c, 0, 85, 100
2, 66240, Note_on_c, 0, 85, 0
2, 66240, Note_on_c, 0, 86, 100
2, 66480, Note_on_c, 0, 86, 0
2, 66480, Note_on_c, 0, 85, 100
2, 66600, Note_on_c, 0, 85, 0
2, 66600, Note_on_c, 0, 86, 100
2, 66840, Note_on_c, 0, 86, 0
2, 66840, Note_on_c, 0, 85, 100
2, 66960, Note_on_c, 0, 85, 0
2, 69360, Note_on_c, 0, 89, 100
2, 69360, Note_on_c, 0, 86, 100
2, 69480, Note_on_c, 0, 86, 0
2, 69480, Note_on_c, 0, 89, 0
2, 69480, Note_on_c, 0, 86, 100
2, 69480, Note_on_c, 0, 89, 100
2, 69600, Note_on_c, 0, 89, 0
2, 69600, Note_on_c, 0, 86, 0
2, 69720, Note_on_c, 0, 84, 100
2, 69840, Note_on_c, 0, 84, 0
2, 69840, Note_on_c, 0, 86, 100
2, 69960, Note_on_c, 0, 86, 0
2, 69960, Note_on_c, 0, 86, 100
2, 70080, Note_on_c, 0, 86, 0
2, 70080, Note_on_c, 0, 84, 100
2, 70200, Note_on_c, 0, 84, 0
2, 70200, Note_on_c, 0, 89, 100
2, 70440, Note_on_c, 0, 89, 0
2, 70440, Note_on_c, 0, 88, 100
2, 70560, Note_on_c, 0, 88, 0
2, 70560, Note_on_c, 0, 86, 100
2, 70680, Note_on_c, 0, 86, 0
2, 70680, Note_on_c, 0, 86, 100
2, 70800, Note_on_c, 0, 86, 0
2, 70800, Note_on_c, 0, 84, 100
2, 70920, Note_on_c, 0, 84, 0
2, 70920, Note_on_c, 0, 89, 100
2, 71160, Note_on_c, 0, 89, 0
2, 71160, Note_on_c, 0, 88, 100
2, 71280, Note_on_c, 0, 88, 0
2, 71280, Note_on_c, 0, 89, 100
2, 71520, Note_on_c, 0, 89, 0
2, 71520, Note_on_c, 0, 88, 100
2, 71640, Note_on_c, 0, 88, 0
2, 71640, Note_on_c, 0, 89, 100
2, 71880, Note_on_c, 0, 89, 0
2, 71880, Note_on_c, 0, 88, 100
2, 72000, Note_on_c, 0, 88, 0
2, 72000, Note_on_c, 0, 89, 100
2, 72240, Note_on_c, 0, 89, 0
2, 72240, Note_on_c, 0, 88, 100
2, 72360, Note_on_c, 0, 88, 0
2, 72360, Note_on_c, 0, 89, 100
2, 72600, Note_on_c, 0, 89, 0
2, 72600, Note_on_c, 0, 88, 100
2, 72720, Note_on_c, 0, 88, 0
2, 80280, Note_on_c, 0, 82, 100
2, 80400, Note_on_c, 0, 82, 0
2, 80400, Note_on_c, 0, 82, 100
2, 80520, Note_on_c, 0, 82, 0
2, 80520, Note_on_c, 0, 81, 100
2, 80640, Note_on_c, 0, 81, 0
2, 80640, Note_on_c, 0, 79, 100
2, 80760, Note_on_c, 0, 79, 0
2, 80760, Note_on_c, 0, 79, 100
2, 80880, Note_on_c, 0, 79, 0
2, 80880, Note_on_c, 0, 77, 100
2, 81000, Note_on_c, 0, 77, 0
2, 81000, Note_on_c, 0, 75, 100
2, 81120, Note_on_c, 0, 75, 0
2, 81120, Note_on_c, 0, 75, 100
2, 81240, Note_on_c, 0, 75, 0
2, 81240, Note_on_c, 0, 74, 100
2, 81360, Note_on_c, 0, 74, 0
2, 81360, Note_on_c, 0, 72, 100
2, 81480, Note_on_c, 0, 72, 0
2, 81720, Note_on_c, 0, 84, 100
2, 81840, Note_on_c, 0, 84, 0
2, 81840, Note_on_c, 0, 84, 100
2, 81960, Note_on_c, 0, 84, 0
2, 81960, Note_on_c, 0, 82, 100
2, 82080, Note_on_c, 0, 82, 0
2, 82080, Note_on_c, 0, 81, 100
2, 82200, Note_on_c, 0, 81, 0
2, 82200, Note_on_c, 0, 81, 100
2, 82320, Note_on_c, 0, 81, 0
2, 82320, Note_on_c, 0, 79, 100
2, 82440, Note_on_c, 0, 79, 0
2, 82440, Note_on_c, 0, 77, 100
2, 82560, Note_on_c, 0, 77, 0
2, 82560, Note_on_c, 0, 77, 100
2, 82680, Note_on_c, 0, 77, 0
2, 82680, Note_on_c, 0, 75, 100
2, 82800, Note_on_c, 0, 75, 0
2, 82800, Note_on_c, 0, 74, 100
2, 82920, Note_on_c, 0, 74, 0
2, 85560, Note_on_c, 0, 89, 100
2, 85560, Note_on_c, 0, 77, 100
2, 85680, Note_on_c, 0, 77, 0
2, 85680, Note_on_c, 0, 89, 0
2, 85680, Note_on_c, 0, 89, 100
2, 85680, Note_on_c, 0, 77, 100
2, 85710, Note_on_c, 0, 77, 0
2, 85710, Note_on_c, 0, 89, 0
2, 85710, Note_on_c, 0, 93, 100
2, 85710, Note_on_c, 0, 79, 100
2, 85800, Note_on_c, 0, 79, 0
2, 85800, Note_on_c, 0, 93, 0
2, 85800, Note_on_c, 0, 89, 100
2, 85800, Note_on_c, 0, 77, 100
2, 85860, Note_on_c, 0, 77, 0
2, 85860, Note_on_c, 0, 89, 0
2, 85920, Note_on_c, 0, 81, 100
2, 85920, Note_on_c, 0, 77, 100
2, 86040, Note_on_c, 0, 77, 0
2, 86040, Note_on_c, 0, 81, 0
2, 86040, Note_on_c, 0, 81, 100
2, 86040, Note_on_c, 0, 77, 100
2, 86070, Note_on_c, 0, 77, 0
2, 86070, Note_on_c, 0, 81, 0
2, 86070, Note_on_c, 0, 84, 100
2, 86070, Note_on_c, 0, 81, 100
2, 86160, Note_on_c, 0, 81, 0
2, 86160, Note_on_c, 0, 84, 0
2, 86160, Note_on_c, 0, 77, 100
2, 86160, Note_on_c, 0, 81, 100
2, 86220, Note_on_c, 0, 81, 0
2, 86220, Note_on_c, 0, 77, 0
2, 86280, Note_on_c, 0, 84, 100
2, 86280, Note_on_c, 0, 81, 100
2, 86400, Note_on_c, 0, 81, 0
2, 86400, Note_on_c, 0, 84, 0
2, 86400, Note_on_c, 0, 89, 100
2, 86400, Note_on_c, 0, 77, 100
2, 87600, Note_on_c, 0, 77, 0
2, 87600, Note_on_c, 0, 89, 0
2, 87600, Note_on_c, 0, 91, 100
2, 87600, Note_on_c, 0, 79, 100
2, 87720, Note_on_c, 0, 79, 0
2, 87720, Note_on_c, 0, 91, 0
2, 87720, Note_on_c, 0, 91, 100
2, 87720, Note_on_c, 0, 79, 100
2, 87840, Note_on_c, 0, 79, 0
2, 87840, Note_on_c, 0, 91, 0
2, 87840, Note_on_c, 0, 91, 100
2, 87840, Note_on_c, 0, 79, 100
2, 89040, Note_on_c, 0, 79, 0
2, 89040, Note_on_c, 0, 91, 0
2, 89040, Note_on_c, 0, 81, 100
2, 89040, Note_on_c, 0, 93, 100
2, 89160, Note_on_c, 0, 93, 0
2, 89160, Note_on_c, 0, 81, 0
2, 89160, Note_on_c, 0, 81, 100
2, 89160, Note_on_c, 0, 93, 100
2, 89280, Note_on_c, 0, 93, 0
2, 89280, Note_on_c, 0, 81, 0
2, 89400, Note_on_c, 0, 81, 100
2, 89520, Note_on_c, 0, 81, 0
2, 89520, Note_on_c, 0, 82, 100
2, 89640, Note_on_c, 0, 82, 0
2, 89640, Note_on_c, 0, 84, 100
2, 89760, Note_on_c, 0, 84, 0
2, 89760, Note_on_c, 0, 84, 100
2, 89880, Note_on_c, 0, 84, 0
2, 89880, Note_on_c, 0, 86, 100
2, 90000, Note_on_c, 0, 86, 0
2, 90000, Note_on_c, 0, 88, 100
2, 90120, Note_on_c, 0, 88, 0
2, 90120, Note_on_c, 0, 88, 100
2, 90240, Note_on_c, 0, 88, 0
2, 90240, Note_on_c, 0, 89, 100
2, 90360, Note_on_c, 0, 89, 0
2, 90360, Note_on_c, 0, 91, 100
2, 90480, Note_on_c, 0, 91, 0
2, 90840, Note_on_c, 0, 82, 100
2, 90960, Note_on_c, 0, 82, 0
2, 90960, Note_on_c, 0, 84, 100
2, 91080, Note_on_c, 0, 84, 0
2, 91080, Note_on_c, 0, 86, 100
2, 91200, Note_on_c, 0, 86, 0
2, 91200, Note_on_c, 0, 86, 100
2, 91320, Note_on_c, 0, 86, 0
2, 91320, Note_on_c, 0, 88, 100
2, 91440, Note_on_c, 0, 88, 0
2, 91440, Note_on_c, 0, 89, 100
2, 91560, Note_on_c, 0, 89, 0
2, 91560, Note_on_c, 0, 89, 100
2, 91680, Note_on_c, 0, 89, 0
2, 91680, Note_on_c, 0, 91, 100
2, 91800, Note_on_c, 0, 91, 0
2, 91800, Note_on_c, 0, 93, 100
2, 91920, Note_on_c, 0, 93, 0
2, 96120, Note_on_c, 0, 84, 100
2, 96120, Note_on_c, 0, 79, 100
2, 96240, Note_on_c, 0, 79, 0
2, 96240, Note_on_c, 0, 84, 0
2, 96240, Note_on_c, 0, 84, 100
2, 96240, Note_on_c, 0, 79, 100
2, 96360, Note_on_c, 0, 79, 0
2, 96360, Note_on_c, 0, 84, 0
2, 96360, Note_on_c, 0, 84, 100
2, 96360, Note_on_c, 0, 79, 100
2, 96480, Note_on_c, 0, 79, 0
2, 96480, Note_on_c, 0, 84, 0
2, 96840, Note_on_c, 0, 84, 100
2, 96840, Note_on_c, 0, 79, 100
2, 96960, Note_on_c, 0, 79, 0
2, 96960, Note_on_c, 0, 84, 0
2, 96960, Note_on_c, 0, 84, 100
2, 96960, Note_on_c, 0, 79, 100
2, 97080, Note_on_c, 0, 79, 0
2, 97080, Note_on_c, 0, 84, 0
2, 97080, Note_on_c, 0, 84, 100
2, 97080, Note_on_c, 0, 79, 100
2, 97200, Note_on_c, 0, 79, 0
2, 97200, Note_on_c, 0, 84, 0
2, 97560, Note_on_c, 0, 84, 100
2, 97560, Note_on_c, 0, 79, 100
2, 97680, Note_on_c, 0, 79, 0
2, 97680, Note_on_c, 0, 84, 0
2, 97680, Note_on_c, 0, 84, 100
2, 97680, Note_on_c, 0, 79, 100
2, 97800, Note_on_c, 0, 79, 0
2, 97800, Note_on_c, 0, 84, 0
2, 97800, Note_on_c, 0, 84, 100
2, 97800, Note_on_c, 0, 79, 100
2, 97920, Note_on_c, 0, 79, 0
2, 97920, Note_on_c, 0, 84, 0
2, 98280, Note_on_c, 0, 84, 100
2, 98280, Note_on_c, 0, 79, 100
2, 98400, Note_on_c, 0, 79, 0
2, 98400, Note_on_c, 0, 84, 0
2, 98400, Note_on_c, 0, 84, 100
2, 98400, Note_on_c, 0, 79, 100
2, 98520, Note_on_c, 0, 79, 0
2, 98520, Note_on_c, 0, 84, 0
2, 98520, Note_on_c, 0, 84, 100
2, 98520, Note_on_c, 0, 79, 100
2, 98640, Note_on_c, 0, 79, 0
2, 98640, Note_on_c, 0, 84, 0
2, 98640, Note_on_c, 0, 88, 100
2, 98670, Note_on_c, 0, 88, 0
2, 98670, Note_on_c, 0, 89, 100
2, 98700, Note_on_c, 0, 89, 0
2, 98700, Note_on_c, 0, 88, 100
2, 98730, Note_on_c, 0, 88, 0
2, 98730, Note_on_c, 0, 89, 100
2, 98760, Note_on_c, 0, 89, 0
2, 98760, Note_on_c, 0, 88, 100
2, 98790, Note_on_c, 0, 88, 0
2, 98790, Note_on_c, 0, 89, 100
2, 98820, Note_on_c, 0, 89, 0
2, 98820, Note_on_c, 0, 88, 100
2, 98850, Note_on_c, 0, 88, 0
2, 98850, Note_on_c, 0, 89, 100
2, 98880, Note_on_c, 0, 89, 0
2, 98880, Note_on_c, 0, 88, 100
2, 98910, Note_on_c, 0, 88, 0
2, 98910, Note_on_c, 0, 89, 100
2, 98940, Note_on_c, 0, 89, 0
2, 98940, Note_on_c, 0, 86, 100
2, 98970, Note_on_c, 0, 86, 0
2, 98970, Note_on_c, 0, 88, 100
2, 99000, Note_on_c, 0, 88, 0
2, 99000, Note_on_c, 0, 81, 100
2, 99000, Note_on_c, 0, 89, 100
2, 99120, Note_on_c, 0, 89, 0
2, 99120, Note_on_c, 0, 81, 0
2, 99120, Note_on_c, 0, 84, 100
2, 99120, Note_on_c, 0, 81, 100
2, 99240, Note_on_c, 0, 81, 0
2, 99240, Note_on_c, 0, 84, 0
2, 99240, Note_on_c, 0, 77, 100
2, 99240, Note_on_c, 0, 81, 100
2, 99360, Note_on_c, 0, 81, 0
2, 99360, Note_on_c, 0, 77, 0
2, 99360, Note_on_c, 0, 82, 100
2, 99390, Note_on_c, 0, 82, 0
2, 99390, Note_on_c, 0, 84, 100
2, 99420, Note_on_c, 0, 84, 0
2, 99420, Note_on_c, 0, 82, 100
2, 99450, Note_on_c, 0, 82, 0
2, 99450, Note_on_c, 0, 84, 100
2, 99480, Note_on_c, 0, 84, 0
2, 99480, Note_on_c, 0, 82, 100
2, 99510, Note_on_c, 0, 82, 0
2, 99510, Note_on_c, 0, 84, 100
2, 99540, Note_on_c, 0, 84, 0
2, 99540, Note_on_c, 0, 82, 100
2, 99570, Note_on_c, 0, 82, 0
2, 99570, Note_on_c, 0, 84, 100
2, 99600, Note_on_c, 0, 84, 0
2, 99600, Note_on_c, 0, 82, 100
2, 99630, Note_on_c, 0, 82, 0
2, 99630, Note_on_c, 0, 84, 100
2, 99660, Note_on_c, 0, 84, 0
2, 99660, Note_on_c, 0, 81, 100
2, 99690, Note_on_c, 0, 81, 0
2, 99690, Note_on_c, 0, 82, 100
2, 99720, Note_on_c, 0, 82, 0
2, 99720, Note_on_c, 0, 77, 100
2, 99720, Note_on_c, 0, 81, 100
2, 99840, Note_on_c, 0, 81, 0
2, 99840, Note_on_c, 0, 77, 0
2, 99840, Note_on_c, 0, 84, 100
2, 99840, Note_on_c, 0, 81, 100
2, 99960, Note_on_c, 0, 81, 0
2, 99960, Note_on_c, 0, 84, 0
2, 99960, Note_on_c, 0, 89, 100
2, 99960, Note_on_c, 0, 81, 100
2, 100080, Note_on_c, 0, 81, 0
2, 100080, Note_on_c, 0, 89, 0
2, 100080, Note_on_c, 0, 88, 100
2, 100110, Note_on_c, 0, 88, 0
2, 100110, Note_on_c, 0, 89, 100
2, 100140, Note_on_c, 0, 89, 0
2, 100140, Note_on_c, 0, 88, 100
2, 100170, Note_on_c, 0, 88, 0
2, 100170, Note_on_c, 0, 89, 100
2, 100200, Note_on_c, 0, 89, 0
2, 100200, Note_on_c, 0, 88, 100
2, 100230, Note_on_c, 0, 88, 0
2, 100230, Note_on_c, 0, 89, 100
2, 100260, Note_on_c, 0, 89, 0
2, 100260, Note_on_c, 0, 88, 100
2, 100290, Note_on_c, 0, 88, 0
2, 100290, Note_on_c, 0, 89, 100
2, 100320, Note_on_c, 0, 89, 0
2, 100320, Note_on_c, 0, 88, 100
2, 100350, Note_on_c, 0, 88, 0
2, 100350, Note_on_c, 0, 89, 100
2, 100380, Note_on_c, 0, 89, 0
2, 100380, Note_on_c, 0, 86, 100
2, 100410, Note_on_c, 0, 86, 0
2, 100410, Note_on_c, 0, 88, 100
2, 100440, Note_on_c, 0, 88, 0
2, 100440, Note_on_c, 0, 89, 100
2, 100440, Note_on_c, 0, 81, 100
2, 100560, Note_on_c, 0, 81, 0
2, 100560, Note_on_c, 0, 89, 0
2, 100560, Note_on_c, 0, 84, 100
2, 100560, Note_on_c, 0, 81, 100
2, 100680, Note_on_c, 0, 81, 0
2, 100680, Note_on_c, 0, 84, 0
2, 100680, Note_on_c, 0, 77, 100
2, 100680, Note_on_c, 0, 81, 100
2, 100800, Note_on_c, 0, 81, 0
2, 100800, Note_on_c, 0, 77, 0
2, 100800, Note_on_c, 0, 88, 100
2, 100830, Note_on_c, 0, 88, 0
2, 100830, Note_on_c, 0, 89, 100
2, 100860, Note_on_c, 0, 89, 0
2, 100860, Note_on_c, 0, 88, 100
2, 100890, Note_on_c, 0, 88, 0
2, 100890, Note_on_c, 0, 89, 100
2, 100920, Note_on_c, 0, 89, 0
2, 100920, Note_on_c, 0, 88, 100
2, 100950, Note_on_c, 0, 88, 0
2, 100950, Note_on_c, 0, 89, 100
2, 100980, Note_on_c, 0, 89, 0
2, 100980, Note_on_c, 0, 88, 100
2, 101010, Note_on_c, 0, 88, 0
2, 101010, Note_on_c, 0, 89, 100
2, 101040, Note_on_c, 0, 89, 0
2, 101040, Note_on_c, 0, 88, 100
2, 101070, Note_on_c, 0, 88, 0
2, 101070, Note_on_c, 0, 89, 100
2, 101100, Note_on_c, 0, 89, 0
2, 101100, Note_on_c, 0, 86, 100
2, 101130, Note_on_c, 0, 86, 0
2, 101130, Note_on_c, 0, 88, 100
2, 101160, Note_on_c, 0, 88, 0
2, 101160, Note_on_c, 0, 89, 100
2, 101160, Note_on_c, 0, 81, 100
2, 101280, Note_on_c, 0, 81, 0
2, 101280, Note_on_c, 0, 89, 0
2, 101280, Note_on_c, 0, 84, 100
2, 101280, Note_on_c, 0, 81, 100
2, 101400, Note_on_c, 0, 81, 0
2, 101400, Note_on_c, 0, 84, 0
2, 101400, Note_on_c, 0, 77, 100
2, 101400, Note_on_c, 0, 81, 100
2, 101520, Note_on_c, 0, 81, 0
2, 101520, Note_on_c, 0, 77, 0
2, 101520, Note_on_c, 0, 88, 100
2, 101550, Note_on_c, 0, 88, 0
2, 101550, Note_on_c, 0, 89, 100
2, 101580, Note_on_c, 0, 89, 0
2, 101580, Note_on_c, 0, 88, 100
2, 101610, Note_on_c, 0, 88, 0
2, 101610, Note_on_c, 0, 89, 100
2, 101640, Note_on_c, 0, 89, 0
2, 101640, Note_on_c, 0, 88, 100
2, 101670, Note_on_c, 0, 88, 0
2, 101670, Note_on_c, 0, 89, 100
2, 101700, Note_on_c, 0, 89, 0
2, 101700, Note_on_c, 0, 88, 100
2, 101730, Note_on_c, 0, 88, 0
2, 101730, Note_on_c, 0, 89, 100
2, 101760, Note_on_c, 0, 89, 0
2, 101760, Note_on_c, 0, 88, 100
2, 101790, Note_on_c, 0, 88, 0
2, 101790, Note_on_c, 0, 89, 100
2, 101820, Note_on_c, 0, 89, 0
2, 101820, Note_on_c, 0, 86, 100
2, 101850, Note_on_c, 0, 86, 0
2, 101850, Note_on_c, 0, 88, 100
2, 101880, Note_on_c, 0, 88, 0
2, 101880, Note_on_c, 0, 89, 100
2, 101880, Note_on_c, 0, 81, 100
2, 102000, Note_on_c, 0, 81, 0
2, 102000, Note_on_c, 0, 89, 0
2, 102000, Note_on_c, 0, 84, 100
2, 102120, Note_on_c, 0, 84, 0
2, 102120, Note_on_c, 0, 81, 100
2, 102240, Note_on_c, 0, 81, 0
2, 102240, Note_on_c, 0, 77, 100
2, 102360, Note_on_c, 0, 77, 0
2, 102360, Note_on_c, 0, 72, 100
2, 102480, Note_on_c, 0, 72, 0
2, 102480, Note_on_c, 0, 69, 100
2, 102600, Note_on_c, 0, 69, 0
2, 102600, Note_on_c, 0, 77, 100
2, 102720, Note_on_c, 0, 77, 0
2, 104280, Note_on_c, 0, 89, 100
2, 104280, Note_on_c, 0, 77, 100
2, 104400, Note_on_c, 0, 77, 0
2, 104400, Note_on_c, 0, 89, 0
2, 104400, Note_on_c, 0, 89, 100
2, 104400, Note_on_c, 0, 77, 100
2, 104430, Note_on_c, 0, 77, 0
2, 104430, Note_on_c, 0, 89, 0
2, 104430, Note_on_c, 0, 93, 100
2, 104430, Note_on_c, 0, 81, 100
2, 104520, Note_on_c, 0, 81, 0
2, 104520, Note_on_c, 0, 93, 0
2, 104520, Note_on_c, 0, 89, 100
2, 104520, Note_on_c, 0, 77, 100
2, 104580, Note_on_c, 0, 77, 0
2, 104580, Note_on_c, 0, 89, 0
2, 104640, Note_on_c, 0, 89, 100
2, 104640, Note_on_c, 0, 77, 100
2, 104760, Note_on_c, 0, 77, 0
2, 104760, Note_on_c, 0, 89, 0
2, 104760, Note_on_c, 0, 89, 100
2, 104760, Note_on_c, 0, 77, 100
2, 104790, Note_on_c, 0, 77, 0
2, 104790, Note_on_c, 0, 89, 0
2, 104790, Note_on_c, 0, 81, 100
2, 104790, Note_on_c, 0, 93, 100
2, 104880, Note_on_c, 0, 93, 0
2, 104880, Note_on_c, 0, 81, 0
2, 104880, Note_on_c, 0, 89, 100
2, 104880, Note_on_c, 0, 77, 100
2, 105000, Note_on_c, 0, 77, 0
2, 105000, Note_on_c, 0, 89, 0
2, 105000, Note_on_c, 0, 89, 100
2, 105000, Note_on_c, 0, 77, 100
2, 105120, Note_on_c, 0, 77, 0
2, 105120, Note_on_c, 0, 89, 0
2, 105120, Note_on_c, 0, 89, 100
2, 105120, Note_on_c, 0, 77, 100
2, 105150, Note_on_c, 0, 77, 0
2, 105150, Note_on_c, 0, 89, 0
2, 105150, Note_on_c, 0, 81, 100
2, 105150, Note_on_c, 0, 93, 100
2, 105240, Note_on_c, 0, 93, 0
2, 105240, Note_on_c, 0, 81, 0
2, 105240, Note_on_c, 0, 89, 100
2, 105240, Note_on_c, 0, 77, 100
2, 105360, Note_on_c, 0, 77, 0
2, 105360, Note_on_c, 0, 89, 0
2, 105360, Note_on_c, 0, 89, 100
2, 105360, Note_on_c, 0, 77, 100
2, 105480, Note_on_c, 0, 77, 0
2, 105480, Note_on_c, 0, 89, 0
2, 105480, Note_on_c, 0, 89, 100
2, 105480, Note_on_c, 0, 77, 100
2, 105510, Note_on_c, 0, 77, 0
2, 105510, Note_on_c, 0, 89, 0
2, 105510, Note_on_c, 0, 81, 100
2, 105510, Note_on_c, 0, 93, 100
2, 105600, Note_on_c, 0, 93, 0
2, 105600, Note_on_c, 0, 81, 0
2, 105600, Note_on_c, 0, 89, 100
2, 105600, Note_on_c, 0, 77, 100
2, 105720, Note_on_c, 0, 77, 0
2, 105720, Note_on_c, 0, 89, 0
2, 105720, Note_on_c, 0, 89, 100
2, 105720, Note_on_c, 0, 77, 100
2, 105840, Note_on_c, 0, 77, 0
2, 105840, Note_on_c, 0, 89, 0
2, 105840, Note_on_c, 0, 81, 100
2, 105840, Note_on_c, 0, 93, 100
2, 107280, Note_on_c, 0, 93, 0
2, 107280, Note_on_c, 0, 81, 0
2, 107280, Note_on_c, 0, 74, 100
2, 107280, Note_on_c, 0, 86, 100
2, 107400, Note_on_c, 0, 86, 0
2, 107400, Note_on_c, 0, 74, 0
2, 113400, Note_on_c, 0, 86, 100
2, 113400, Note_on_c, 0, 74, 100
2, 113700, Note_on_c, 0, 74, 0
2, 113700, Note_on_c, 0, 86, 0
2, 113700, Note_on_c, 0, 73, 100
2, 113700, Note_on_c, 0, 85, 100
2, 113760, Note_on_c, 0, 85, 0
2, 113760, Note_on_c, 0, 73, 0
2, 113760, Note_on_c, 0, 74, 100
2, 113760, Note_on_c, 0, 86, 100
2, 113880, Note_on_c, 0, 86, 0
2, 113880, Note_on_c, 0, 74, 0
2, 114120, Note_on_c, 0, 86, 100
2, 114120, Note_on_c, 0, 74, 100
2, 114420, Note_on_c, 0, 74, 0
2, 114420, Note_on_c, 0, 86, 0
2, 114420, Note_on_c, 0, 73, 100
2, 114420, Note_on_c, 0, 85, 100
2, 114480, Note_on_c, 0, 85, 0
2, 114480, Note_on_c, 0, 73, 0
2, 114480, Note_on_c, 0, 74, 100
2, 114480, Note_on_c, 0, 86, 100
2, 114600, Note_on_c, 0, 86, 0
2, 114600, Note_on_c, 0, 74, 0
2, 116280, Note_on_c, 0, 88, 100
2, 116280, Note_on_c, 0, 76, 100
2, 116580, Note_on_c, 0, 76, 0
2, 116580, Note_on_c, 0, 88, 0
2, 116580, Note_on_c, 0, 75, 100
2, 116580, Note_on_c, 0, 87, 100
2, 116640, Note_on_c, 0, 87, 0
2, 116640, Note_on_c, 0, 75, 0
2, 116640, Note_on_c, 0, 88, 100
2, 116640, Note_on_c, 0, 76, 100
2, 116760, Note_on_c, 0, 76, 0
2, 116760, Note_on_c, 0, 88, 0
2, 117000, Note_on_c, 0, 88, 100
2, 117000, Note_on_c, 0, 76, 100
2, 117300, Note_on_c, 0, 76, 0
2, 117300, Note_on_c, 0, 88, 0
2, 117300, Note_on_c, 0, 87, 100
2, 117300, Note_on_c, 0, 75, 100
2, 117360, Note_on_c, 0, 75, 0
2, 117360, Note_on_c, 0, 87, 0
2, 117360, Note_on_c, 0, 76, 100
2, 117360, Note_on_c, 0, 88, 100
2, 117480, Note_on_c, 0, 88, 0
2, 117480, Note_on_c, 0, 76, 0
2, 118800, Note_on_c, 0, 81, 100
2, 119400, Note_on_c, 0, 81, 0
2, 119400, Note_on_c, 0, 83, 100
2, 119520, Note_on_c, 0, 83, 0
2, 119520, Note_on_c, 0, 79, 100
2, 120120, Note_on_c, 0, 79, 0
2, 120120, Note_on_c, 0, 81, 100
2, 120240, Note_on_c, 0, 81, 0
2, 120240, Note_on_c, 0, 78, 100
2, 120600, Note_on_c, 0, 78, 0
2, 120600, Note_on_c, 0, 79, 100
2, 120630, Note_on_c, 0, 79, 0
2, 120630, Note_on_c, 0, 78, 100
2, 120660, Note_on_c, 0, 78, 0
2, 120660, Note_on_c, 0, 76, 100
2, 120690, Note_on_c, 0, 76, 0
2, 120690, Note_on_c, 0, 78, 100
2, 120720, Note_on_c, 0, 78, 0
2, 120720, Note_on_c, 0, 81, 100
2, 120840, Note_on_c, 0, 81, 0
2, 120840, Note_on_c, 0, 79, 100
2, 120960, Note_on_c, 0, 79, 0
2, 120960, Note_on_c, 0, 78, 100
2, 121320, Note_on_c, 0, 78, 0
2, 121320, Note_on_c, 0, 76, 100
2, 121440, Note_on_c, 0, 76, 0
2, 121680, Note_on_c, 0, 81, 100
2, 122040, Note_on_c, 0, 81, 0
2, 122040, Note_on_c, 0, 83, 100
2, 122070, Note_on_c, 0, 83, 0
2, 122070, Note_on_c, 0, 81, 100
2, 122100, Note_on_c, 0, 81, 0
2, 122100, Note_on_c, 0, 80, 100
2, 122130, Note_on_c, 0, 80, 0
2, 122130, Note_on_c, 0, 81, 100
2, 122160, Note_on_c, 0, 81, 0
2, 122160, Note_on_c, 0, 85, 100
2, 122280, Note_on_c, 0, 85, 0
2, 122280, Note_on_c, 0, 83, 100
2, 122400, Note_on_c, 0, 83, 0
2, 122400, Note_on_c, 0, 81, 100
2, 122640, Note_on_c, 0, 81, 0
2, 122640, Note_on_c, 0, 79, 100
2, 122880, Note_on_c, 0, 79, 0
2, 122880, Note_on_c, 0, 83, 100
2, 123000, Note_on_c, 0, 83, 0
2, 123000, Note_on_c, 0, 81, 100
2, 123120, Note_on_c, 0, 81, 0
2, 123120, Note_on_c, 0, 79, 100
2, 123240, Note_on_c, 0, 79, 0
2, 123240, Note_on_c, 0, 78, 100
2, 123360, Note_on_c, 0, 78, 0
2, 123360, Note_on_c, 0, 81, 100
2, 123480, Note_on_c, 0, 81, 0
2, 123480, Note_on_c, 0, 86, 100
2, 123600, Note_on_c, 0, 86, 0
2, 123600, Note_on_c, 0, 81, 100
2, 123720, Note_on_c, 0, 81, 0
2, 123720, Note_on_c, 0, 78, 100
2, 123840, Note_on_c, 0, 78, 0
2, 123840, Note_on_c, 0, 76, 100
2, 124320, Note_on_c, 0, 76, 0
2, 124320, Note_on_c, 0, 81, 100
2, 124440, Note_on_c, 0, 81, 0
2, 124440, Note_on_c, 0, 78, 100
2, 124560, Note_on_c, 0, 78, 0
2, 124560, Note_on_c, 0, 76, 100
2, 125040, Note_on_c, 0, 76, 0
2, 125040, Note_on_c, 0, 81, 100
2, 125160, Note_on_c, 0, 81, 0
2, 125160, Note_on_c, 0, 78, 100
2, 125280, Note_on_c, 0, 78, 0
2, 125280, Note_on_c, 0, 76, 100
2, 125400, Note_on_c, 0, 76, 0
2, 127560, Note_on_c, 0, 88, 100
2, 127560, Note_on_c, 0, 91, 100
2, 127800, Note_on_c, 0, 91, 0
2, 127800, Note_on_c, 0, 88, 0
2, 127800, Note_on_c, 0, 88, 100
2, 127800, Note_on_c, 0, 91, 100
2, 128040, Note_on_c, 0, 91, 0
2, 128040, Note_on_c, 0, 88, 0
2, 128040, Note_on_c, 0, 91, 100
2, 128040, Note_on_c, 0, 88, 100
2, 128160, Note_on_c, 0, 88, 0
2, 128160, Note_on_c, 0, 91, 0
2, 128160, Note_on_c, 0, 90, 100
2, 128160, Note_on_c, 0, 86, 100
2, 128460, Note_on_c, 0, 86, 0
2, 128460, Note_on_c, 0, 90, 0
2, 128460, Note_on_c, 0, 91, 100
2, 128460, Note_on_c, 0, 88, 100
2, 128520, Note_on_c, 0, 88, 0
2, 128520, Note_on_c, 0, 91, 0
2, 128880, Note_on_c, 0, 90, 100
2, 128880, Note_on_c, 0, 86, 100
2, 129180, Note_on_c, 0, 86, 0
2, 129180, Note_on_c, 0, 90, 0
2, 129180, Note_on_c, 0, 91, 100
2, 129180, Note_on_c, 0, 88, 100
2, 129240, Note_on_c, 0, 88, 0
2, 129240, Note_on_c, 0, 91, 0
2, 129240, Note_on_c, 0, 86, 100
2, 129240, Note_on_c, 0, 90, 100
2, 129360, Note_on_c, 0, 90, 0
2, 129360, Note_on_c, 0, 86, 0
2, 129600, Note_on_c, 0, 90, 100
2, 129600, Note_on_c, 0, 86, 100
2, 129840, Note_on_c, 0, 86, 0
2, 129840, Note_on_c, 0, 90, 0
2, 129840, Note_on_c, 0, 88, 100
2, 129840, Note_on_c, 0, 85, 100
2, 129960, Note_on_c, 0, 85, 0
2, 129960, Note_on_c, 0, 88, 0
2, 129960, Note_on_c, 0, 90, 100
2, 129960, Note_on_c, 0, 86, 100
2, 130080, Note_on_c, 0, 86, 0
2, 130080, Note_on_c, 0, 90, 0
2, 130080, Note_on_c, 0, 88, 100
2, 130080, Note_on_c, 0, 91, 100
2, 130200, Note_on_c, 0, 91, 0
2, 130200, Note_on_c, 0, 88, 0
2, 130200, Note_on_c, 0, 86, 100
2, 130200, Note_on_c, 0, 90, 100
2, 130320, Note_on_c, 0, 90, 0
2, 130320, Note_on_c, 0, 86, 0
2, 130320, Note_on_c, 0, 88, 100
2, 130320, Note_on_c, 0, 85, 100
2, 130440, Note_on_c, 0, 85, 0
2, 130440, Note_on_c, 0, 88, 0
2, 131040, Note_on_c, 0, 85, 100
2, 131040, Note_on_c, 0, 88, 100
2, 131340, Note_on_c, 0, 88, 0
2, 131340, Note_on_c, 0, 85, 0
2, 131340, Note_on_c, 0, 84, 100
2, 131340, Note_on_c, 0, 87, 100
2, 131400, Note_on_c, 0, 87, 0
2, 131400, Note_on_c, 0, 84, 0
2, 131400, Note_on_c, 0, 88, 100
2, 131400, Note_on_c, 0, 85, 100
2, 131520, Note_on_c, 0, 85, 0
2, 131520, Note_on_c, 0, 88, 0
2, 131760, Note_on_c, 0, 85, 100
2, 131760, Note_on_c, 0, 88, 100
2, 132060, Note_on_c, 0, 88, 0
2, 132060, Note_on_c, 0, 85, 0
2, 132060, Note_on_c, 0, 84, 100
2, 132060, Note_on_c, 0, 87, 100
2, 132120, Note_on_c, 0, 87, 0
2, 132120, Note_on_c, 0, 84, 0
2, 132120, Note_on_c, 0, 88, 100
2, 132120, Note_on_c, 0, 85, 100
2, 132240, Note_on_c, 0, 85, 0
2, 132240, Note_on_c, 0, 88, 0
2, 132480, Note_on_c, 0, 88, 100
2, 132480, Note_on_c, 0, 85, 100
2, 132720, Note_on_c, 0, 85, 0
2, 132720, Note_on_c, 0, 88, 0
2, 132720, Note_on_c, 0, 86, 100
2, 132720, Note_on_c, 0, 90, 100
2, 132840, Note_on_c, 0, 90, 0
2, 132840, Note_on_c, 0, 86, 0
2, 132840, Note_on_c, 0, 93, 100
2, 132840, Note_on_c, 0, 90, 100
2, 132960, Note_on_c, 0, 90, 0
2, 132960, Note_on_c, 0, 93, 0
2, 132960, Note_on_c, 0, 88, 100
2, 132960, Note_on_c, 0, 91, 100
2, 133080, Note_on_c, 0, 91, 0
2, 133080, Note_on_c, 0, 88, 0
2, 133080, Note_on_c, 0, 85, 100
2, 133080, Note_on_c, 0, 88, 100
2, 133200, Note_on_c, 0, 88, 0
2, 133200, Note_on_c, 0, 85, 0
2, 133200, Note_on_c, 0, 86, 100
2, 133320, Note_on_c, 0, 86, 0
2, 133920, Note_on_c, 0, 81, 100
2, 134520, Note_on_c, 0, 81, 0
2, 134520, Note_on_c, 0, 83, 100
2, 134640, Note_on_c, 0, 83, 0
2, 134640, Note_on_c, 0, 79, 100
2, 135240, Note_on_c, 0, 79, 0
2, 135240, Note_on_c, 0, 81, 100
2, 135360, Note_on_c, 0, 81, 0
2, 135360, Note_on_c, 0, 78, 100
2, 135720, Note_on_c, 0, 78, 0
2, 135720, Note_on_c, 0, 79, 100
2, 135750, Note_on_c, 0, 79, 0
2, 135750, Note_on_c, 0, 78, 100
2, 135780, Note_on_c, 0, 78, 0
2, 135780, Note_on_c, 0, 76, 100
2, 135810, Note_on_c, 0, 76, 0
2, 135810, Note_on_c, 0, 78, 100
2, 135840, Note_on_c, 0, 78, 0
2, 135840, Note_on_c, 0, 81, 100
2, 135960, Note_on_c, 0, 81, 0
2, 135960, Note_on_c, 0, 79, 100
2, 136080, Note_on_c, 0, 79, 0
2, 136080, Note_on_c, 0, 78, 100
2, 136440, Note_on_c, 0, 78, 0
2, 136440, Note_on_c, 0, 76, 100
2, 136560, Note_on_c, 0, 76, 0
2, 136800, Note_on_c, 0, 81, 100
2, 137160, Note_on_c, 0, 81, 0
2, 137160, Note_on_c, 0, 83, 100
2, 137190, Note_on_c, 0, 83, 0
2, 137190, Note_on_c, 0, 81, 100
2, 137220, Note_on_c, 0, 81, 0
2, 137220, Note_on_c, 0, 80, 100
2, 137250, Note_on_c, 0, 80, 0
2, 137250, Note_on_c, 0, 81, 100
2, 137280, Note_on_c, 0, 81, 0
2, 137280, Note_on_c, 0, 85, 100
2, 137400, Note_on_c, 0, 85, 0
2, 137400, Note_on_c, 0, 83, 100
2, 137520, Note_on_c, 0, 83, 0
2, 137520, Note_on_c, 0, 81, 100
2, 137760, Note_on_c, 0, 81, 0
2, 137760, Note_on_c, 0, 79, 100
2, 138000, Note_on_c, 0, 79, 0
2, 138000, Note_on_c, 0, 83, 100
2, 138120, Note_on_c, 0, 83, 0
2, 138120, Note_on_c, 0, 81, 100
2, 138240, Note_on_c, 0, 81, 0
2, 138240, Note_on_c, 0, 79, 100
2, 138360, Note_on_c, 0, 79, 0
2, 138360, Note_on_c, 0, 78, 100
2, 138480, Note_on_c, 0, 78, 0
2, 138480, Note_on_c, 0, 81, 100
2, 138600, Note_on_c, 0, 81, 0
2, 138600, Note_on_c, 0, 86, 100
2, 138720, Note_on_c, 0, 86, 0
2, 138720, Note_on_c, 0, 81, 100
2, 138840, Note_on_c, 0, 81, 0
2, 138840, Note_on_c, 0, 78, 100
2, 138960, Note_on_c, 0, 78, 0
2, 138960, Note_on_c, 0, 76, 100
2, 139440, Note_on_c, 0, 76, 0
2, 139440, Note_on_c, 0, 81, 100
2, 139560, Note_on_c, 0, 81, 0
2, 139560, Note_on_c, 0, 78, 100
2, 139680, Note_on_c, 0, 78, 0
2, 139680, Note_on_c, 0, 76, 100
2, 140160, Note_on_c, 0, 76, 0
2, 140160, Note_on_c, 0, 81, 100
2, 140280, Note_on_c, 0, 81, 0
2, 140280, Note_on_c, 0, 78, 100
2, 140400, Note_on_c, 0, 78, 0
2, 140400, Note_on_c, 0, 76, 100
2, 140520, Note_on_c, 0, 76, 0
2, 142680, Note_on_c, 0, 88, 100
2, 142680, Note_on_c, 0, 91, 100
2, 142920, Note_on_c, 0, 91, 0
2, 142920, Note_on_c, 0, 88, 0
2, 142920, Note_on_c, 0, 88, 100
2, 142920, Note_on_c, 0, 91, 100
2, 143160, Note_on_c, 0, 91, 0
2, 143160, Note_on_c, 0, 88, 0
2, 143160, Note_on_c, 0, 91, 100
2, 143160, Note_on_c, 0, 88, 100
2, 143280, Note_on_c, 0, 88, 0
2, 143280, Note_on_c, 0, 91, 0
2, 143280, Note_on_c, 0, 90, 100
2, 143280, Note_on_c, 0, 86, 100
2, 143580, Note_on_c, 0, 86, 0
2, 143580, Note_on_c, 0, 90, 0
2, 143580, Note_on_c, 0, 91, 100
2, 143580, Note_on_c, 0, 88, 100
2, 143640, Note_on_c, 0, 88, 0
2, 143640, Note_on_c, 0, 91, 0
2, 144000, Note_on_c, 0, 90, 100
2, 144000, Note_on_c, 0, 86, 100
2, 144300, Note_on_c, 0, 86, 0
2, 144300, Note_on_c, 0, 90, 0
2, 144300, Note_on_c, 0, 91, 100
2, 144300, Note_on_c, 0, 88, 100
2, 144360, Note_on_c, 0, 88, 0
2, 144360, Note_on_c, 0, 91, 0
2, 144360, Note_on_c, 0, 86, 100
2, 144360, Note_on_c, 0, 90, 100
2, 144480, Note_on_c, 0, 90, 0
2, 144480, Note_on_c, 0, 86, 0
2, 144720, Note_on_c, 0, 90, 100
2, 144720, Note_on_c, 0, 86, 100
2, 144960, Note_on_c, 0, 86, 0
2, 144960, Note_on_c, 0, 90, 0
2, 144960, Note_on_c, 0, 88, 100
2, 144960, Note_on_c, 0, 85, 100
2, 145080, Note_on_c, 0, 85, 0
2, 145080, Note_on_c, 0, 88, 0
2, 145080, Note_on_c, 0, 90, 100
2, 145080, Note_on_c, 0, 86, 100
2, 145200, Note_on_c, 0, 86, 0
2, 145200, Note_on_c, 0, 90, 0
2, 145200, Note_on_c, 0, 88, 100
2, 145200, Note_on_c, 0, 91, 100
2, 145320, Note_on_c, 0, 91, 0
2, 145320, Note_on_c, 0, 88, 0
2, 145320, Note_on_c, 0, 86, 100
2, 145320, Note_on_c, 0, 90, 100
2, 145440, Note_on_c, 0, 90, 0
2, 145440, Note_on_c, 0, 86, 0
2, 145440, Note_on_c, 0, 88, 100
2, 145440, Note_on_c, 0, 85, 100
2, 145560, Note_on_c, 0, 85, 0
2, 145560, Note_on_c, 0, 88, 0
2, 146160, Note_on_c, 0, 85, 100
2, 146160, Note_on_c, 0, 88, 100
2, 146460, Note_on_c, 0, 88, 0
2, 146460, Note_on_c, 0, 85, 0
2, 146460, Note_on_c, 0, 84, 100
2, 146460, Note_on_c, 0, 87, 100
2, 146520, Note_on_c, 0, 87, 0
2, 146520, Note_on_c, 0, 84, 0
2, 146520, Note_on_c, 0, 88, 100
2, 146520, Note_on_c, 0, 85, 100
2, 146640, Note_on_c, 0, 85, 0
2, 146640, Note_on_c, 0, 88, 0
2, 146880, Note_on_c, 0, 85, 100
2, 146880, Note_on_c, 0, 88, 100
2, 147180, Note_on_c, 0, 88, 0
2, 147180, Note_on_c, 0, 85, 0
2, 147180, Note_on_c, 0, 84, 100
2, 147180, Note_on_c, 0, 87, 100
2, 147240, Note_on_c, 0, 87, 0
2, 147240, Note_on_c, 0, 84, 0
2, 147240, Note_on_c, 0, 88, 100
2, 147240, Note_on_c, 0, 85, 100
2, 147360, Note_on_c, 0, 85, 0
2, 147360, Note_on_c, 0, 88, 0
2, 147600, Note_on_c, 0, 88, 100
2, 147600, Note_on_c, 0, 85, 100
2, 147840, Note_on_c, 0, 85, 0
2, 147840, Note_on_c, 0, 88, 0
2, 147840, Note_on_c, 0, 86, 100
2, 147840, Note_on_c, 0, 90, 100
2, 147960, Note_on_c, 0, 90, 0
2, 147960, Note_on_c, 0, 86, 0
2, 147960, Note_on_c, 0, 93, 100
2, 147960, Note_on_c, 0, 90, 100
2, 148080, Note_on_c, 0, 90, 0
2, 148080, Note_on_c, 0, 93, 0
2, 148080, Note_on_c, 0, 88, 100
2, 148080, Note_on_c, 0, 91, 100
2, 148200, Note_on_c, 0, 91, 0
2, 148200, Note_on_c, 0, 88, 0
2, 148200, Note_on_c, 0, 85, 100
2, 148200, Note_on_c, 0, 88, 100
2, 148320, Note_on_c, 0, 88, 0
2, 148320, Note_on_c, 0, 85, 0
2, 148320, Note_on_c, 0, 86, 100
2, 148440, Note_on_c, 0, 86, 0
2, 153960, Note_on_c, 0, 77, 100
2, 154080, Note_on_c, 0, 77, 0
2, 154080, Note_on_c, 0, 77, 100
2, 154110, Note_on_c, 0, 77, 0
2, 154110, Note_on_c, 0, 81, 100
2, 154200, Note_on_c, 0, 81, 0
2, 154200, Note_on_c, 0, 77, 100
2, 154260, Note_on_c, 0, 77, 0
2, 154320, Note_on_c, 0, 77, 100
2, 154320, Note_on_c, 0, 81, 100
2, 154440, Note_on_c, 0, 81, 0
2, 154440, Note_on_c, 0, 77, 0
2, 154440, Note_on_c, 0, 81, 100
2, 154440, Note_on_c, 0, 77, 100
2, 154470, Note_on_c, 0, 77, 0
2, 154470, Note_on_c, 0, 81, 0
2, 154470, Note_on_c, 0, 84, 100
2, 154470, Note_on_c, 0, 81, 100
2, 154560, Note_on_c, 0, 81, 0
2, 154560, Note_on_c, 0, 84, 0
2, 154560, Note_on_c, 0, 77, 100
2, 154560, Note_on_c, 0, 81, 100
2, 154620, Note_on_c, 0, 81, 0
2, 154620, Note_on_c, 0, 77, 0
2, 154680, Note_on_c, 0, 81, 100
2, 154680, Note_on_c, 0, 84, 100
2, 154800, Note_on_c, 0, 84, 0
2, 154800, Note_on_c, 0, 81, 0
2, 154800, Note_on_c, 0, 89, 100
2, 154800, Note_on_c, 0, 81, 100
2, 154920, Note_on_c, 0, 81, 0
2, 154920, Note_on_c, 0, 89, 0
2, 154920, Note_on_c, 0, 89, 100
2, 154920, Note_on_c, 0, 81, 100
2, 155040, Note_on_c, 0, 81, 0
2, 155040, Note_on_c, 0, 89, 0
2, 155040, Note_on_c, 0, 88, 100
2, 155040, Note_on_c, 0, 84, 100
2, 155160, Note_on_c, 0, 84, 0
2, 155160, Note_on_c, 0, 88, 0
2, 155160, Note_on_c, 0, 86, 100
2, 155160, Note_on_c, 0, 82, 100
2, 155280, Note_on_c, 0, 82, 0
2, 155280, Note_on_c, 0, 86, 0
2, 155280, Note_on_c, 0, 86, 100
2, 155280, Note_on_c, 0, 82, 100
2, 155400, Note_on_c, 0, 82, 0
2, 155400, Note_on_c, 0, 86, 0
2, 155400, Note_on_c, 0, 84, 100
2, 155400, Note_on_c, 0, 81, 100
2, 155520, Note_on_c, 0, 81, 0
2, 155520, Note_on_c, 0, 84, 0
2, 155520, Note_on_c, 0, 82, 100
2, 155520, Note_on_c, 0, 79, 100
2, 155640, Note_on_c, 0, 79, 0
2, 155640, Note_on_c, 0, 82, 0
2, 155640, Note_on_c, 0, 82, 100
2, 155640, Note_on_c, 0, 79, 100
2, 155760, Note_on_c, 0, 79, 0
2, 155760, Note_on_c, 0, 82, 0
2, 155760, Note_on_c, 0, 81, 100
2, 155760, Note_on_c, 0, 77, 100
2, 155880, Note_on_c, 0, 77, 0
2, 155880, Note_on_c, 0, 81, 0
2, 155880, Note_on_c, 0, 76, 100
2, 155880, Note_on_c, 0, 79, 100
2, 156240, Note_on_c, 0, 79, 0
2, 156240, Note_on_c, 0, 76, 0
2, 156240, Note_on_c, 0, 91, 100
2, 156240, Note_on_c, 0, 88, 100
2, 156360, Note_on_c, 0, 88, 0
2, 156360, Note_on_c, 0, 91, 0
2, 156360, Note_on_c, 0, 88, 100
2, 156360, Note_on_c, 0, 91, 100
2, 156480, Note_on_c, 0, 91, 0
2, 156480, Note_on_c, 0, 88, 0
2, 156480, Note_on_c, 0, 86, 100
2, 156480, Note_on_c, 0, 89, 100
2, 156600, Note_on_c, 0, 89, 0
2, 156600, Note_on_c, 0, 86, 0
2, 156600, Note_on_c, 0, 88, 100
2, 156600, Note_on_c, 0, 84, 100
2, 156720, Note_on_c, 0, 84, 0
2, 156720, Note_on_c, 0, 88, 0
2, 156720, Note_on_c, 0, 88, 100
2, 156720, Note_on_c, 0, 84, 100
2, 156840, Note_on_c, 0, 84, 0
2, 156840, Note_on_c, 0, 88, 0
2, 156840, Note_on_c, 0, 86, 100
2, 156840, Note_on_c, 0, 82, 100
2, 156960, Note_on_c, 0, 82, 0
2, 156960, Note_on_c, 0, 86, 0
2, 156960, Note_on_c, 0, 81, 100
2, 156960, Note_on_c, 0, 84, 100
2, 157080, Note_on_c, 0, 84, 0
2, 157080, Note_on_c, 0, 81, 0
2, 157080, Note_on_c, 0, 81, 100
2, 157080, Note_on_c, 0, 84, 100
2, 157200, Note_on_c, 0, 84, 0
2, 157200, Note_on_c, 0, 81, 0
2, 157200, Note_on_c, 0, 79, 100
2, 157200, Note_on_c, 0, 82, 100
2, 157320, Note_on_c, 0, 82, 0
2, 157320, Note_on_c, 0, 79, 0
2, 157320, Note_on_c, 0, 77, 100
2, 157320, Note_on_c, 0, 81, 100
2, 157680, Note_on_c, 0, 81, 0
2, 157680, Note_on_c, 0, 77, 0
2, 158400, Note_on_c, 0, 79, 100
2, 158520, Note_on_c, 0, 79, 0
2, 158520, Note_on_c, 0, 79, 100
2, 158640, Note_on_c, 0, 79, 0
2, 158640, Note_on_c, 0, 77, 100
2, 158760, Note_on_c, 0, 77, 0
2, 158760, Note_on_c, 0, 82, 100
2, 159000, Note_on_c, 0, 82, 0
2, 159000, Note_on_c, 0, 81, 100
2, 159120, Note_on_c, 0, 81, 0
2, 159120, Note_on_c, 0, 86, 100
2, 159360, Note_on_c, 0, 86, 0
2, 159360, Note_on_c, 0, 85, 100
2, 159480, Note_on_c, 0, 85, 0
2, 159480, Note_on_c, 0, 89, 100
2, 159720, Note_on_c, 0, 89, 0
2, 159720, Note_on_c, 0, 88, 100
2, 159840, Note_on_c, 0, 88, 0
2, 159840, Note_on_c, 0, 88, 100
2, 160200, Note_on_c, 0, 88, 0
2, 160200, Note_on_c, 0, 88, 100
2, 160320, Note_on_c, 0, 88, 0
2, 160560, Note_on_c, 0, 88, 100
2, 160920, Note_on_c, 0, 88, 0
2, 160920, Note_on_c, 0, 88, 100
2, 161040, Note_on_c, 0, 88, 0
2, 161280, Note_on_c, 0, 88, 100
2, 161280, Note_on_c, 0, 88, 100
2, 161400, Note_on_c, 0, 88, 0
2, 161400, Note_on_c, 0, 90, 100
2, 161520, Note_on_c, 0, 90, 0
2, 161520, Note_on_c, 0, 92, 100
2, 161640, Note_on_c, 0, 92, 0
2, 161640, Note_on_c, 0, 93, 100
2, 161760, Note_on_c, 0, 93, 0
2, 161760, Note_on_c, 0, 88, 0
2, 161760, Note_on_c, 0, 88, 100
2, 161880, Note_on_c, 0, 88, 0
2, 161880, Note_on_c, 0, 85, 100
2, 162000, Note_on_c, 0, 85, 0
2, 162000, Note_on_c, 0, 81, 100
2, 162120, Note_on_c, 0, 81, 0
2, 162120, Note_on_c, 0, 76, 100
2, 162240, Note_on_c, 0, 76, 0
2, 162240, Note_on_c, 0, 73, 100
2, 162360, Note_on_c, 0, 73, 0
2, 162360, Note_on_c, 0, 69, 100
2, 162480, Note_on_c, 0, 69, 0
2, 162600, Note_on_c, 0, 77, 100
2, 162720, Note_on_c, 0, 77, 0
2, 162720, Note_on_c, 0, 77, 100
2, 162750, Note_on_c, 0, 77, 0
2, 162750, Note_on_c, 0, 81, 100
2, 162840, Note_on_c, 0, 81, 0
2, 162840, Note_on_c, 0, 77, 100
2, 162900, Note_on_c, 0, 77, 0
2, 162960, Note_on_c, 0, 77, 100
2, 162960, Note_on_c, 0, 81, 100
2, 163080, Note_on_c, 0, 81, 0
2, 163080, Note_on_c, 0, 77, 0
2, 163080, Note_on_c, 0, 81, 100
2, 163080, Note_on_c, 0, 77, 100
2, 163110, Note_on_c, 0, 77, 0
2, 163110, Note_on_c, 0, 81, 0
2, 163110, Note_on_c, 0, 84, 100
2, 163110, Note_on_c, 0, 81, 100
2, 163200, Note_on_c, 0, 81, 0
2, 163200, Note_on_c, 0, 84, 0
2, 163200, Note_on_c, 0, 77, 100
2, 163200, Note_on_c, 0, 81, 100
2, 163260, Note_on_c, 0, 81, 0
2, 163260, Note_on_c, 0, 77, 0
2, 163320, Note_on_c, 0, 81, 100
2, 163320, Note_on_c, 0, 84, 100
2, 163440, Note_on_c, 0, 84, 0
2, 163440, Note_on_c, 0, 81, 0
2, 163440, Note_on_c, 0, 89, 100
2, 163440, Note_on_c, 0, 81, 100
2, 163560, Note_on_c, 0, 81, 0
2, 163560, Note_on_c, 0, 89, 0
2, 163560, Note_on_c, 0, 89, 100
2, 163560, Note_on_c, 0, 81, 100
2, 163680, Note_on_c, 0, 81, 0
2, 163680, Note_on_c, 0, 89, 0
2, 163680, Note_on_c, 0, 88, 100
2, 163680, Note_on_c, 0, 84, 100
2, 163800, Note_on_c, 0, 84, 0
2, 163800, Note_on_c, 0, 88, 0
2, 163800, Note_on_c, 0, 86, 100
2, 163800, Note_on_c, 0, 82, 100
2, 163920, Note_on_c, 0, 82, 0
2, 163920, Note_on_c, 0, 86, 0
2, 163920, Note_on_c, 0, 86, 100
2, 163920, Note_on_c, 0, 82, 100
2, 164040, Note_on_c, 0, 82, 0
2, 164040, Note_on_c, 0, 86, 0
2, 164040, Note_on_c, 0, 84, 100
2, 164040, Note_on_c, 0, 81, 100
2, 164160, Note_on_c, 0, 81, 0
2, 164160, Note_on_c, 0, 84, 0
2, 164160, Note_on_c, 0, 82, 100
2, 164160, Note_on_c, 0, 79, 100
2, 164280, Note_on_c, 0, 79, 0
2, 164280, Note_on_c, 0, 82, 0
2, 164280, Note_on_c, 0, 82, 100
2, 164280, Note_on_c, 0, 79, 100
2, 164400, Note_on_c, 0, 79, 0
2, 164400, Note_on_c, 0, 82, 0
2, 164400, Note_on_c, 0, 81, 100
2, 164400, Note_on_c, 0, 77, 100
2, 164520, Note_on_c, 0, 77, 0
2, 164520, Note_on_c, 0, 81, 0
2, 164520, Note_on_c, 0, 76, 100
2, 164520, Note_on_c, 0, 79, 100
2, 164880, Note_on_c, 0, 79, 0
2, 164880, Note_on_c, 0, 76, 0
2, 164880, Note_on_c, 0, 91, 100
2, 164880, Note_on_c, 0, 88, 100
2, 165000, Note_on_c, 0, 88, 0
2, 165000, Note_on_c, 0, 91, 0
2, 165000, Note_on_c, 0, 88, 100
2, 165000, Note_on_c, 0, 91, 100
2, 165120, Note_on_c, 0, 91, 0
2, 165120, Note_on_c, 0, 88, 0
2, 165120, Note_on_c, 0, 86, 100
2, 165120, Note_on_c, 0, 89, 100
2, 165240, Note_on_c, 0, 89, 0
2, 165240, Note_on_c, 0, 86, 0
2, 165240, Note_on_c, 0, 88, 100
2, 165240, Note_on_c, 0, 84, 100
2, 165360, Note_on_c, 0, 84, 0
2, 165360, Note_on_c, 0, 88, 0
2, 165360, Note_on_c, 0, 88, 100
2, 165360, Note_on_c, 0, 84, 100
2, 165480, Note_on_c, 0, 84, 0
2, 165480, Note_on_c, 0, 88, 0
2, 165480, Note_on_c, 0, 86, 100
2, 165480, Note_on_c, 0, 82, 100
2, 165600, Note_on_c, 0, 82, 0
2, 165600, Note_on_c, 0, 86, 0
2, 165600, Note_on_c, 0, 81, 100
2, 165600, Note_on_c, 0, 84, 100
2, 165720, Note_on_c, 0, 84, 0
2, 165720, Note_on_c, 0, 81, 0
2, 165720, Note_on_c, 0, 81, 100
2, 165720, Note_on_c, 0, 84, 100
2, 165840, Note_on_c, 0, 84, 0
2, 165840, Note_on_c, 0, 81, 0
2, 165840, Note_on_c, 0, 79, 100
2, 165840, Note_on_c, 0, 82, 100
2, 165960, Note_on_c, 0, 82, 0
2, 165960, Note_on_c, 0, 79, 0
2, 165960, Note_on_c, 0, 77, 100
2, 165960, Note_on_c, 0, 81, 100
2, 166320, Note_on_c, 0, 81, 0
2, 166320, Note_on_c, 0, 77, 0
2, 167040, Note_on_c, 0, 79, 100
2, 167160, Note_on_c, 0, 79, 0
2, 167160, Note_on_c, 0, 79, 100
2, 167280, Note_on_c, 0, 79, 0
2, 167280, Note_on_c, 0, 77, 100
2, 167400, Note_on_c, 0, 77, 0
2, 167400, Note_on_c, 0, 82, 100
2, 167640, Note_on_c, 0, 82, 0
2, 167640, Note_on_c, 0, 81, 100
2, 167760, Note_on_c, 0, 81, 0
2, 167760, Note_on_c, 0, 86, 100
2, 168000, Note_on_c, 0, 86, 0
2, 168000, Note_on_c, 0, 85, 100
2, 168120, Note_on_c, 0, 85, 0
2, 168120, Note_on_c, 0, 89, 100
2, 168360, Note_on_c, 0, 89, 0
2, 168360, Note_on_c, 0, 88, 100
2, 168480, Note_on_c, 0, 88, 0
2, 168480, Note_on_c, 0, 88, 100
2, 168840, Note_on_c, 0, 88, 0
2, 168840, Note_on_c, 0, 88, 100
2, 168960, Note_on_c, 0, 88, 0
2, 169200, Note_on_c, 0, 88, 100
2, 169560, Note_on_c, 0, 88, 0
2, 169560, Note_on_c, 0, 88, 100
2, 169680, Note_on_c, 0, 88, 0
2, 169920, Note_on_c, 0, 88, 100
2, 169920, Note_on_c, 0, 88, 100
2, 170040, Note_on_c, 0, 88, 0
2, 170040, Note_on_c, 0, 90, 100
2, 170160, Note_on_c, 0, 90, 0
2, 170160, Note_on_c, 0, 92, 100
2, 170280, Note_on_c, 0, 92, 0
2, 170280, Note_on_c, 0, 93, 100
2, 170400, Note_on_c, 0, 93, 0
2, 170400, Note_on_c, 0, 88, 0
2, 170400, Note_on_c, 0, 88, 100
2, 170520, Note_on_c, 0, 88, 0
2, 170520, Note_on_c, 0, 85, 100
2, 170640, Note_on_c, 0, 85, 0
2, 170640, Note_on_c, 0, 81, 100
2, 170760, Note_on_c, 0, 81, 0
2, 170760, Note_on_c, 0, 76, 100
2, 170880, Note_on_c, 0, 76, 0
2, 170880, Note_on_c, 0, 73, 100
2, 171000, Note_on_c, 0, 73, 0
2, 171000, Note_on_c, 0, 69, 100
2, 171120, Note_on_c, 0, 69, 0
2, 172680, Note_on_c, 0, 81, 100
2, 172800, Note_on_c, 0, 81, 0
2, 172800, Note_on_c, 0, 83, 100
2, 172920, Note_on_c, 0, 83, 0
2, 172920, Note_on_c, 0, 83, 100
2, 173040, Note_on_c, 0, 83, 0
2, 173040, Note_on_c, 0, 81, 100
2, 173160, Note_on_c, 0, 81, 0
2, 173160, Note_on_c, 0, 86, 100
2, 173400, Note_on_c, 0, 86, 0
2, 173400, Note_on_c, 0, 85, 100
2, 173520, Note_on_c, 0, 85, 0
2, 173520, Note_on_c, 0, 83, 100
2, 173640, Note_on_c, 0, 83, 0
2, 173640, Note_on_c, 0, 83, 100
2, 173760, Note_on_c, 0, 83, 0
2, 173760, Note_on_c, 0, 81, 100
2, 173880, Note_on_c, 0, 81, 0
2, 173880, Note_on_c, 0, 86, 100
2, 174120, Note_on_c, 0, 86, 0
2, 174120, Note_on_c, 0, 85, 100
2, 174240, Note_on_c, 0, 85, 0
2, 174240, Note_on_c, 0, 86, 100
2, 174480, Note_on_c, 0, 86, 0
2, 174480, Note_on_c, 0, 85, 100
2, 174600, Note_on_c, 0, 85, 0
2, 174600, Note_on_c, 0, 86, 100
2, 174840, Note_on_c, 0, 86, 0
2, 174840, Note_on_c, 0, 85, 100
2, 174960, Note_on_c, 0, 85, 0
2, 174960, Note_on_c, 0, 86, 100
2, 175200, Note_on_c, 0, 86, 0
2, 175200, Note_on_c, 0, 85, 100
2, 175320, Note_on_c, 0, 85, 0
2, 175320, Note_on_c, 0, 86, 100
2, 175560, Note_on_c, 0, 86, 0
2, 175560, Note_on_c, 0, 85, 100
2, 175680, Note_on_c, 0, 85, 0
2, 178080, Note_on_c, 0, 89, 100
2, 178080, Note_on_c, 0, 86, 100
2, 178200, Note_on_c, 0, 86, 0
2, 178200, Note_on_c, 0, 89, 0
2, 178200, Note_on_c, 0, 86, 100
2, 178200, Note_on_c, 0, 89, 100
2, 178320, Note_on_c, 0, 89, 0
2, 178320, Note_on_c, 0, 86, 0
2, 178440, Note_on_c, 0, 84, 100
2, 178560, Note_on_c, 0, 84, 0
2, 178560, Note_on_c, 0, 86, 100
2, 178680, Note_on_c, 0, 86, 0
2, 178680, Note_on_c, 0, 86, 100
2, 178800, Note_on_c, 0, 86, 0
2, 178800, Note_on_c, 0, 84, 100
2, 178920, Note_on_c, 0, 84, 0
2, 178920, Note_on_c, 0, 89, 100
2, 179160, Note_on_c, 0, 89, 0
2, 179160, Note_on_c, 0, 88, 100
2, 179280, Note_on_c, 0, 88, 0
2, 179280, Note_on_c, 0, 86, 100
2, 179400, Note_on_c, 0, 86, 0
2, 179400, Note_on_c, 0, 86, 100
2, 179520, Note_on_c, 0, 86, 0
2, 179520, Note_on_c, 0, 84, 100
2, 179640, Note_on_c, 0, 84, 0
2, 179640, Note_on_c, 0, 89, 100
2, 179880, Note_on_c, 0, 89, 0
2, 179880, Note_on_c, 0, 88, 100
2, 180000, Note_on_c, 0, 88, 0
2, 180000, Note_on_c, 0, 89, 100
2, 180240, Note_on_c, 0, 89, 0
2, 180240, Note_on_c, 0, 88, 100
2, 180360, Note_on_c, 0, 88, 0
2, 180360, Note_on_c, 0, 89, 100
2, 180600, Note_on_c, 0, 89, 0
2, 180600, Note_on_c, 0, 88, 100
2, 180720, Note_on_c, 0, 88, 0
2, 180720, Note_on_c, 0, 89, 100
2, 180960, Note_on_c, 0, 89, 0
2, 180960, Note_on_c, 0, 88, 100
2, 181080, Note_on_c, 0, 88, 0
2, 181080, Note_on_c, 0, 89, 100
2, 181320, Note_on_c, 0, 89, 0
2, 181320, Note_on_c, 0, 88, 100
2, 181440, Note_on_c, 0, 88, 0
2, 189000, Note_on_c, 0, 82, 100
2, 189120, Note_on_c, 0, 82, 0
2, 189120, Note_on_c, 0, 82, 100
2, 189240, Note_on_c, 0, 82, 0
2, 189240, Note_on_c, 0, 81, 100
2, 189360, Note_on_c, 0, 81, 0
2, 189360, Note_on_c, 0, 79, 100
2, 189480, Note_on_c, 0, 79, 0
2, 189480, Note_on_c, 0, 79, 100
2, 189600, Note_on_c, 0, 79, 0
2, 189600, Note_on_c, 0, 77, 100
2, 189720, Note_on_c, 0, 77, 0
2, 189720, Note_on_c, 0, 75, 100
2, 189840, Note_on_c, 0, 75, 0
2, 189840, Note_on_c, 0, 75, 100
2, 189960, Note_on_c, 0, 75, 0
2, 189960, Note_on_c, 0, 74, 100
2, 190080, Note_on_c, 0, 74, 0
2, 190080, Note_on_c, 0, 72, 100
2, 190200, Note_on_c, 0, 72, 0
2, 190440, Note_on_c, 0, 84, 100
2, 190560, Note_on_c, 0, 84, 0
2, 190560, Note_on_c, 0, 84, 100
2, 190680, Note_on_c, 0, 84, 0
2, 190680, Note_on_c, 0, 82, 100
2, 190800, Note_on_c, 0, 82, 0
2, 190800, Note_on_c, 0, 81, 100
2, 190920, Note_on_c, 0, 81, 0
2, 190920, Note_on_c, 0, 81, 100
2, 191040, Note_on_c, 0, 81, 0
2, 191040, Note_on_c, 0, 79, 100
2, 191160, Note_on_c, 0, 79, 0
2, 191160, Note_on_c, 0, 77, 100
2, 191280, Note_on_c, 0, 77, 0
2, 191280, Note_on_c, 0, 77, 100
2, 191400, Note_on_c, 0, 77, 0
2, 191400, Note_on_c, 0, 75, 100
2, 191520, Note_on_c, 0, 75, 0
2, 191520, Note_on_c, 0, 74, 100
2, 191640, Note_on_c, 0, 74, 0
2, 194280, Note_on_c, 0, 89, 100
2, 194280, Note_on_c, 0, 77, 100
2, 194400, Note_on_c, 0, 77, 0
2, 194400, Note_on_c, 0, 89, 0
2, 194400, Note_on_c, 0, 89, 100
2, 194400, Note_on_c, 0, 77, 100
2, 194430, Note_on_c, 0, 77, 0
2, 194430, Note_on_c, 0, 89, 0
2, 194430, Note_on_c, 0, 93, 100
2, 194430, Note_on_c, 0, 79, 100
2, 194520, Note_on_c, 0, 79, 0
2, 194520, Note_on_c, 0, 93, 0
2, 194520, Note_on_c, 0, 89, 100
2, 194520, Note_on_c, 0, 77, 100
2, 194580, Note_on_c, 0, 77, 0
2, 194580, Note_on_c, 0, 89, 0
2, 194640, Note_on_c, 0, 81, 100
2, 194640, Note_on_c, 0, 77, 100
2, 194760, Note_on_c, 0, 77, 0
2, 194760, Note_on_c, 0, 81, 0
2, 194760, Note_on_c, 0, 81, 100
2, 194760, Note_on_c, 0, 77, 100
2, 194790, Note_on_c, 0, 77, 0
2, 194790, Note_on_c, 0, 81, 0
2, 194790, Note_on_c, 0, 84, 100
2, 194790, Note_on_c, 0, 81, 100
2, 194880, Note_on_c, 0, 81, 0
2, 194880, Note_on_c, 0, 84, 0
2, 194880, Note_on_c, 0, 77, 100
2, 194880, Note_on_c, 0, 81, 100
2, 194940, Note_on_c, 0, 81, 0
2, 194940, Note_on_c, 0, 77, 0
2, 195000, Note_on_c, 0, 84, 100
2, 195000, Note_on_c, 0, 81, 100
2, 195120, Note_on_c, 0, 81, 0
2, 195120, Note_on_c, 0, 84, 0
2, 195120, Note_on_c, 0, 89, 100
2, 195120, Note_on_c, 0, 77, 100
2, 196320, Note_on_c, 0, 77, 0
2, 196320, Note_on_c, 0, 89, 0
2, 196320, Note_on_c, 0, 91, 100
2, 196320, Note_on_c, 0, 79, 100
2, 196440, Note_on_c, 0, 79, 0
2, 196440, Note_on_c, 0, 91, 0
2, 196440, Note_on_c, 0, 91, 100
2, 196440, Note_on_c, 0, 79, 100
2, 196560, Note_on_c, 0, 79, 0
2, 196560, Note_on_c, 0, 91, 0
2, 196560, Note_on_c, 0, 91, 100
2, 196560, Note_on_c, 0, 79, 100
2, 197760, Note_on_c, 0, 79, 0
2, 197760, Note_on_c, 0, 91, 0
2, 197760, Note_on_c, 0, 81, 100
2, 197760, Note_on_c, 0, 93, 100
2, 197880, Note_on_c, 0, 93, 0
2, 197880, Note_on_c, 0, 81, 0
2, 197880, Note_on_c, 0, 81, 100
2, 197880, Note_on_c, 0, 93, 100
2, 198000, Note_on_c, 0, 93, 0
2, 198000, Note_on_c, 0, 81, 0
2, 198120, Note_on_c, 0, 81, 100
2, 198240, Note_on_c, 0, 81, 0
2, 198240, Note_on_c, 0, 82, 100
2, 198360, Note_on_c, 0, 82, 0
2, 198360, Note_on_c, 0, 84, 100
2, 198480, Note_on_c, 0, 84, 0
2, 198480, Note_on_c, 0, 84, 100
2, 198600, Note_on_c, 0, 84, 0
2, 198600, Note_on_c, 0, 86, 100
2, 198720, Note_on_c, 0, 86, 0
2, 198720, Note_on_c, 0, 88, 100
2, 198840, Note_on_c, 0, 88, 0
2, 198840, Note_on_c, 0, 88, 100
2, 198960, Note_on_c, 0, 88, 0
2, 198960, Note_on_c, 0, 89, 100
2, 199080, Note_on_c, 0, 89, 0
2, 199080, Note_on_c, 0, 91, 100
2, 199200, Note_on_c, 0, 91, 0
2, 199560, Note_on_c, 0, 82, 100
2, 199680, Note_on_c, 0, 82, 0
2, 199680, Note_on_c, 0, 84, 100
2, 199800, Note_on_c, 0, 84, 0
2, 199800, Note_on_c, 0, 86, 100
2, 199920, Note_on_c, 0, 86, 0
2, 199920, Note_on_c, 0, 86, 100
2, 200040, Note_on_c, 0, 86, 0
2, 200040, Note_on_c, 0, 88, 100
2, 200160, Note_on_c, 0, 88, 0
2, 200160, Note_on_c, 0, 89, 100
2, 200280, Note_on_c, 0, 89, 0
2, 200280, Note_on_c, 0, 89, 100
2, 200400, Note_on_c, 0, 89, 0
2, 200400, Note_on_c, 0, 91, 100
2, 200520, Note_on_c, 0, 91, 0
2, 200520, Note_on_c, 0, 93, 100
2, 200640, Note_on_c, 0, 93, 0
2, 204840, Note_on_c, 0, 84, 100
2, 204840, Note_on_c, 0, 79, 100
2, 204960, Note_on_c, 0, 79, 0
2, 204960, Note_on_c, 0, 84, 0
2, 204960, Note_on_c, 0, 84, 100
2, 204960, Note_on_c, 0, 79, 100
2, 205080, Note_on_c, 0, 79, 0
2, 205080, Note_on_c, 0, 84, 0
2, 205080, Note_on_c, 0, 84, 100
2, 205080, Note_on_c, 0, 79, 100
2, 205200, Note_on_c, 0, 79, 0
2, 205200, Note_on_c, 0, 84, 0
2, 205560, Note_on_c, 0, 84, 100
2, 205560, Note_on_c, 0, 79, 100
2, 205680, Note_on_c, 0, 79, 0
2, 205680, Note_on_c, 0, 84, 0
2, 205680, Note_on_c, 0, 84, 100
2, 205680, Note_on_c, 0, 79, 100
2, 205800, Note_on_c, 0, 79, 0
2, 205800, Note_on_c, 0, 84, 0
2, 205800, Note_on_c, 0, 84, 100
2, 205800, Note_on_c, 0, 79, 100
2, 205920, Note_on_c, 0, 79, 0
2, 205920, Note_on_c, 0, 84, 0
2, 206280, Note_on_c, 0, 84, 100
2, 206280, Note_on_c, 0, 79, 100
2, 206400, Note_on_c, 0, 79, 0
2, 206400, Note_on_c, 0, 84, 0
2, 206400, Note_on_c, 0, 84, 100
2, 206400, Note_on_c, 0, 79, 100
2, 206520, Note_on_c, 0, 79, 0
2, 206520, Note_on_c, 0, 84, 0
2, 206520, Note_on_c, 0, 84, 100
2, 206520, Note_on_c, 0, 79, 100
2, 206640, Note_on_c, 0, 79, 0
2, 206640, Note_on_c, 0, 84, 0
2, 207000, Note_on_c, 0, 84, 100
2, 207000, Note_on_c, 0, 79, 100
2, 207120, Note_on_c, 0, 79, 0
2, 207120, Note_on_c, 0, 84, 0
2, 207120, Note_on_c, 0, 84, 100
2, 207120, Note_on_c, 0, 79, 100
2, 207240, Note_on_c, 0, 79, 0
2, 207240, Note_on_c, 0, 84, 0
2, 207240, Note_on_c, 0, 84, 100
2, 207240, Note_on_c, 0, 79, 100
2, 207360, Note_on_c, 0, 79, 0
2, 207360, Note_on_c, 0, 84, 0
2, 207360, Note_on_c, 0, 88, 100
2, 207390, Note_on_c, 0, 88, 0
2, 207390, Note_on_c, 0, 89, 100
2, 207420, Note_on_c, 0, 89, 0
2, 207420, Note_on_c, 0, 88, 100
2, 207450, Note_on_c, 0, 88, 0
2, 207450, Note_on_c, 0, 89, 100
2, 207480, Note_on_c, 0, 89, 0
2, 207480, Note_on_c, 0, 88, 100
2, 207510, Note_on_c, 0, 88, 0
2, 207510, Note_on_c, 0, 89, 100
2, 207540, Note_on_c, 0, 89, 0
2, 207540, Note_on_c, 0, 88, 100
2, 207570, Note_on_c, 0, 88, 0
2, 207570, Note_on_c, 0, 89, 100
2, 207600, Note_on_c, 0, 89, 0
2, 207600, Note_on_c, 0, 88, 100
2, 207630, Note_on_c, 0, 88, 0
2, 207630, Note_on_c, 0, 89, 100
2, 207660, Note_on_c, 0, 89, 0
2, 207660, Note_on_c, 0, 86, 100
2, 207690, Note_on_c, 0, 86, 0
2, 207690, Note_on_c, 0, 88, 100
2, 207720, Note_on_c, 0, 88, 0
2, 207720, Note_on_c, 0, 81, 100
2, 207720, Note_on_c, 0, 89, 100
2, 207840, Note_on_c, 0, 89, 0
2, 207840, Note_on_c, 0, 81, 0
2, 207840, Note_on_c, 0, 84, 100
2, 207840, Note_on_c, 0, 81, 100
2, 207960, Note_on_c, 0, 81, 0
2, 207960, Note_on_c, 0, 84, 0
2, 207960, Note_on_c, 0, 77, 100
2, 207960, Note_on_c, 0, 81, 100
2, 208080, Note_on_c, 0, 81, 0
2, 208080, Note_on_c, 0, 77, 0
2, 208080, Note_on_c, 0, 82, 100
2, 208110, Note_on_c, 0, 82, 0
2, 208110, Note_on_c, 0, 84, 100
2, 208140, Note_on_c, 0, 84, 0
2, 208140, Note_on_c, 0, 82, 100
2, 208170, Note_on_c, 0, 82, 0
2, 208170, Note_on_c, 0, 84, 100
2, 208200, Note_on_c, 0, 84, 0
2, 208200, Note_on_c, 0, 82, 100
2, 208230, Note_on_c, 0, 82, 0
2, 208230, Note_on_c, 0, 84, 100
2, 208260, Note_on_c, 0, 84, 0
2, 208260, Note_on_c, 0, 82, 100
2, 208290, Note_on_c, 0, 82, 0
2, 208290, Note_on_c, 0, 84, 100
2, 208320, Note_on_c, 0, 84, 0
2, 208320, Note_on_c, 0, 82, 100
2, 208350, Note_on_c, 0, 82, 0
2, 208350, Note_on_c, 0, 84, 100
2, 208380, Note_on_c, 0, 84, 0
2, 208380, Note_on_c, 0, 81, 100
2, 208410, Note_on_c, 0, 81, 0
2, 208410, Note_on_c, 0, 82, 100
2, 208440, Note_on_c, 0, 82, 0
2, 208440, Note_on_c, 0, 77, 100
2, 208440, Note_on_c, 0, 81, 100
2, 208560, Note_on_c, 0, 81, 0
2, 208560, Note_on_c, 0, 77, 0
2, 208560, Note_on_c, 0, 84, 100
2, 208560, Note_on_c, 0, 81, 100
2, 208680, Note_on_c, 0, 81, 0
2, 208680, Note_on_c, 0, 84, 0
2, 208680, Note_on_c, 0, 89, 100
2, 208680, Note_on_c, 0, 81, 100
2, 208800, Note_on_c, 0, 81, 0
2, 208800, Note_on_c, 0, 89, 0
2, 208800, Note_on_c, 0, 88, 100
2, 208830, Note_on_c, 0, 88, 0
2, 208830, Note_on_c, 0, 89, 100
2, 208860, Note_on_c, 0, 89, 0
2, 208860, Note_on_c, 0, 88, 100
2, 208890, Note_on_c, 0, 88, 0
2, 208890, Note_on_c, 0, 89, 100
2, 208920, Note_on_c, 0, 89, 0
2, 208920, Note_on_c, 0, 88, 100
2, 208950, Note_on_c, 0, 88, 0
2, 208950, Note_on_c, 0, 89, 100
2, 208980, Note_on_c, 0, 89, 0
2, 208980, Note_on_c, 0, 88, 100
2, 209010, Note_on_c, 0, 88, 0
2, 209010, Note_on_c, 0, 89, 100
2, 209040, Note_on_c, 0, 89, 0
2, 209040, Note_on_c, 0, 88, 100
2, 209070, Note_on_c, 0, 88, 0
2, 209070, Note_on_c, 0, 89, 100
2, 209100, Note_on_c, 0, 89, 0
2, 209100, Note_on_c, 0, 86, 100
2, 209130, Note_on_c, 0, 86, 0
2, 209130, Note_on_c, 0, 88, 100
2, 209160, Note_on_c, 0, 88, 0
2, 209160, Note_on_c, 0, 89, 100
2, 209160, Note_on_c, 0, 81, 100
2, 209280, Note_on_c, 0, 81, 0
2, 209280, Note_on_c, 0, 89, 0
2, 209280, Note_on_c, 0, 84, 100
2, 209280, Note_on_c, 0, 81, 100
2, 209400, Note_on_c, 0, 81, 0
2, 209400, Note_on_c, 0, 84, 0
2, 209400, Note_on_c, 0, 77, 100
2, 209400, Note_on_c, 0, 81, 100
2, 209520, Note_on_c, 0, 81, 0
2, 209520, Note_on_c, 0, 77, 0
2, 209520, Note_on_c, 0, 88, 100
2, 209550, Note_on_c, 0, 88, 0
2, 209550, Note_on_c, 0, 89, 100
2, 209580, Note_on_c, 0, 89, 0
2, 209580, Note_on_c, 0, 88, 100
2, 209610, Note_on_c, 0, 88, 0
2, 209610, Note_on_c, 0, 89, 100
2, 209640, Note_on_c, 0, 89, 0
2, 209640, Note_on_c, 0, 88, 100
2, 209670, Note_on_c, 0, 88, 0
2, 209670, Note_on_c, 0, 89, 100
2, 209700, Note_on_c, 0, 89, 0
2, 209700, Note_on_c, 0, 88, 100
2, 209730, Note_on_c, 0, 88, 0
2, 209730, Note_on_c, 0, 89, 100
2, 209760, Note_on_c, 0, 89, 0
2, 209760, Note_on_c, 0, 88, 100
2, 209790, Note_on_c, 0, 88, 0
2, 209790, Note_on_c, 0, 89, 100
2, 209820, Note_on_c, 0, 89, 0
2, 209820, Note_on_c, 0, 86, 100
2, 209850, Note_on_c, 0, 86, 0
2, 209850, Note_on_c, 0, 88, 100
2, 209880, Note_on_c, 0, 88, 0
2, 209880, Note_on_c, 0, 89, 100
2, 209880, Note_on_c, 0, 81, 100
2, 210000, Note_on_c, 0, 81, 0
2, 210000, Note_on_c, 0, 89, 0
2, 210000, Note_on_c, 0, 84, 100
2, 210000, Note_on_c, 0, 81, 100
2, 210120, Note_on_c, 0, 81, 0
2, 210120, Note_on_c, 0, 84, 0
2, 210120, Note_on_c, 0, 77, 100
2, 210120, Note_on_c, 0, 81, 100
2, 210240, Note_on_c, 0, 81, 0
2, 210240, Note_on_c, 0, 77, 0
2, 210240, Note_on_c, 0, 88, 100
2, 210270, Note_on_c, 0, 88, 0
2, 210270, Note_on_c, 0, 89, 100
2, 210300, Note_on_c, 0, 89, 0
2, 210300, Note_on_c, 0, 88, 100
2, 210330, Note_on_c, 0, 88, 0
2, 210330, Note_on_c, 0, 89, 100
2, 210360, Note_on_c, 0, 89, 0
2, 210360, Note_on_c, 0, 88, 100
2, 210390, Note_on_c, 0, 88, 0
2, 210390, Note_on_c, 0, 89, 100
2, 210420, Note_on_c, 0, 89, 0
2, 210420, Note_on_c, 0, 88, 100
2, 210450, Note_on_c, 0, 88, 0
2, 210450, Note_on_c, 0, 89, 100
2, 210480, Note_on_c, 0, 89, 0
2, 210480, Note_on_c, 0, 88, 100
2, 210510, Note_on_c, 0, 88, 0
2, 210510, Note_on_c, 0, 89, 100
2, 210540, Note_on_c, 0, 89, 0
2, 210540, Note_on_c, 0, 86, 100
2, 210570, Note_on_c, 0, 86, 0
2, 210570, Note_on_c, 0, 88, 100
2, 210600, Note_on_c, 0, 88, 0
2, 210600, Note_on_c, 0, 89, 100
2, 210600, Note_on_c, 0, 81, 100
2, 210720, Note_on_c, 0, 81, 0
2, 210720, Note_on_c, 0, 89, 0
2, 210720, Note_on_c, 0, 84, 100
2, 210840, Note_on_c, 0, 84, 0
2, 210840, Note_on_c, 0, 81, 100
2, 210960, Note_on_c, 0, 81, 0
2, 210960, Note_on_c, 0, 77, 100
2, 211080, Note_on_c, 0, 77, 0
2, 211080, Note_on_c, 0, 72, 100
2, 211200, Note_on_c, 0, 72, 0
2, 211200, Note_on_c, 0, 69, 100
2, 211320, Note_on_c, 0, 69, 0
2, 211320, Note_on_c, 0, 77, 100
2, 211440, Note_on_c, 0, 77, 0
2, 213000, Note_on_c, 0, 89, 100
2, 213000, Note_on_c, 0, 77, 100
2, 213120, Note_on_c, 0, 77, 0
2, 213120, Note_on_c, 0, 89, 0
2, 213120, Note_on_c, 0, 89, 100
2, 213120, Note_on_c, 0, 77, 100
2, 213150, Note_on_c, 0, 77, 0
2, 213150, Note_on_c, 0, 89, 0
2, 213150, Note_on_c, 0, 93, 100
2, 213150, Note_on_c, 0, 81, 100
2, 213240, Note_on_c, 0, 81, 0
2, 213240, Note_on_c, 0, 93, 0
2, 213240, Note_on_c, 0, 89, 100
2, 213240, Note_on_c, 0, 77, 100
2, 213300, Note_on_c, 0, 77, 0
2, 213300, Note_on_c, 0, 89, 0
2, 213360, Note_on_c, 0, 89, 100
2, 213360, Note_on_c, 0, 77, 100
2, 213480, Note_on_c, 0, 77, 0
2, 213480, Note_on_c, 0, 89, 0
2, 213480, Note_on_c, 0, 89, 100
2, 213480, Note_on_c, 0, 77, 100
2, 213510, Note_on_c, 0, 77, 0
2, 213510, Note_on_c, 0, 89, 0
2, 213510, Note_on_c, 0, 81, 100
2, 213510, Note_on_c, 0, 93, 100
2, 213600, Note_on_c, 0, 93, 0
2, 213600, Note_on_c, 0, 81, 0
2, 213600, Note_on_c, 0, 89, 100
2, 213600, Note_on_c, 0, 77, 100
2, 213720, Note_on_c, 0, 77, 0
2, 213720, Note_on_c, 0, 89, 0
2, 213720, Note_on_c, 0, 89, 100
2, 213720, Note_on_c, 0, 77, 100
2, 213840, Note_on_c, 0, 77, 0
2, 213840, Note_on_c, 0, 89, 0
2, 213840, Note_on_c, 0, 89, 100
2, 213840, Note_on_c, 0, 77, 100
2, 213870, Note_on_c, 0, 77, 0
2, 213870, Note_on_c, 0, 89, 0
2, 213870, Note_on_c, 0, 81, 100
2, 213870, Note_on_c, 0, 93, 100
2, 213960, Note_on_c, 0, 93, 0
2, 213960, Note_on_c, 0, 81, 0
2, 213960, Note_on_c, 0, 89, 100
2, 213960, Note_on_c, 0, 77, 100
2, 214080, Note_on_c, 0, 77, 0
2, 214080, Note_on_c, 0, 89, 0
2, 214080, Note_on_c, 0, 89, 100
2, 214080, Note_on_c, 0, 77, 100
2, 214200, Note_on_c, 0, 77, 0
2, 214200, Note_on_c, 0, 89, 0
2, 214200, Note_on_c, 0, 89, 100
2, 214200, Note_on_c, 0, 77, 100
2, 214230, Note_on_c, 0, 77, 0
2, 214230, Note_on_c, 0, 89, 0
2, 214230, Note_on_c, 0, 81, 100
2, 214230, Note_on_c, 0, 93, 100
2, 214320, Note_on_c, 0, 93, 0
2, 214320, Note_on_c, 0, 81, 0
2, 214320, Note_on_c, 0, 89, 100
2, 214320, Note_on_c, 0, 77, 100
2, 214440, Note_on_c, 0, 77, 0
2, 214440, Note_on_c, 0, 89, 0
2, 214440, Note_on_c, 0, 89, 100
2, 214440, Note_on_c, 0, 77, 100
2, 214560, Note_on_c, 0, 77, 0
2, 214560, Note_on_c, 0, 89, 0
2, 214560, Note_on_c, 0, 81, 100
2, 214560, Note_on_c, 0, 93, 100
2, 216000, Note_on_c, 0, 93, 0
2, 216000, Note_on_c, 0, 81, 0
2, 216000, Note_on_c, 0, 74, 100
2, 216000, Note_on_c, 0, 86, 100
2, 216120, Note_on_c, 0, 86, 0
2, 216120, Note_on_c, 0, 74, 0
2, 222120, Note_on_c, 0, 86, 100
2, 222120, Note_on_c, 0, 74, 100
2, 222420, Note_on_c, 0, 74, 0
2, 222420, Note_on_c, 0, 86, 0
2, 222420, Note_on_c, 0, 73, 100
2, 222420, Note_on_c, 0, 85, 100
2, 222480, Note_on_c, 0, 85, 0
2, 222480, Note_on_c, 0, 73, 0
2, 222480, Note_on_c, 0, 74, 100
2, 222480, Note_on_c, 0, 86, 100
2, 222600, Note_on_c, 0, 86, 0
2, 222600, Note_on_c, 0, 74, 0
2, 222840, Note_on_c, 0, 86, 100
2, 222840, Note_on_c, 0, 74, 100
2, 223140, Note_on_c, 0, 74, 0
2, 223140, Note_on_c, 0, 86, 0
2, 223140, Note_on_c, 0, 73, 100
2, 223140, Note_on_c, 0, 85, 100
2, 223200, Note_on_c, 0, 85, 0
2, 223200, Note_on_c, 0, 73, 0
2, 223200, Note_on_c, 0, 74, 100
2, 223200, Note_on_c, 0, 86, 100
2, 223320, Note_on_c, 0, 86, 0
2, 223320, Note_on_c, 0, 74, 0
2, 225000, Note_on_c, 0, 88, 100
2, 225000, Note_on_c, 0, 76, 100
2, 225300, Note_on_c, 0, 76, 0
2, 225300, Note_on_c, 0, 88, 0
2, 225300, Note_on_c, 0, 75, 100
2, 225300, Note_on_c, 0, 87, 100
2, 225360, Note_on_c, 0, 87, 0
2, 225360, Note_on_c, 0, 75, 0
2, 225360, Note_on_c, 0, 88, 100
2, 225360, Note_on_c, 0, 76, 100
2, 225480, Note_on_c, 0, 76, 0
2, 225480, Note_on_c, 0, 88, 0
2, 225720, Note_on_c, 0, 88, 100
2, 225720, Note_on_c, 0, 76, 100
2, 226020, Note_on_c, 0, 76, 0
2, 226020, Note_on_c, 0, 88, 0
2, 226020, Note_on_c, 0, 87, 100
2, 226020, Note_on_c, 0, 75, 100
2, 226080, Note_on_c, 0, 75, 0
2, 226080, Note_on_c, 0, 87, 0
2, 226080, Note_on_c, 0, 76, 100
2, 226080, Note_on_c, 0, 88, 100
2, 226200, Note_on_c, 0, 88, 0
2, 226200, Note_on_c, 0, 76, 0
2, 227520, Note_on_c, 0, 81, 100
2, 228120, Note_on_c, 0, 81, 0
2, 228120, Note_on_c, 0, 83, 100
2, 228240, Note_on_c, 0, 83, 0
2, 228240, Note_on_c, 0, 79, 100
2, 228840, Note_on_c, 0, 79, 0
2, 228840, Note_on_c, 0, 81, 100
2, 228960, Note_on_c, 0, 81, 0
2, 228960, Note_on_c, 0, 78, 100
2, 229320, Note_on_c, 0, 78, 0
2, 229320, Note_on_c, 0, 79, 100
2, 229350, Note_on_c, 0, 79, 0
2, 229350, Note_on_c, 0, 78, 100
2, 229380, Note_on_c, 0, 78, 0
2, 229380, Note_on_c, 0, 76, 100
2, 229410, Note_on_c, 0, 76, 0
2, 229410, Note_on_c, 0, 78, 100
2, 229440, Note_on_c, 0, 78, 0
2, 229440, Note_on_c, 0, 81, 100
2, 229560, Note_on_c, 0, 81, 0
2, 229560, Note_on_c, 0, 79, 100
2, 229680, Note_on_c, 0, 79, 0
2, 229680, Note_on_c, 0, 78, 100
2, 230040, Note_on_c, 0, 78, 0
2, 230040, Note_on_c, 0, 76, 100
2, 230160, Note_on_c, 0, 76, 0
2, 230400, Note_on_c, 0, 81, 100
2, 230760, Note_on_c, 0, 81, 0
2, 230760, Note_on_c, 0, 83, 100
2, 230790, Note_on_c, 0, 83, 0
2, 230790, Note_on_c, 0, 81, 100
2, 230820, Note_on_c, 0, 81, 0
2, 230820, Note_on_c, 0, 80, 100
2, 230850, Note_on_c, 0, 80, 0
2, 230850, Note_on_c, 0, 81, 100
2, 230880, Note_on_c, 0, 81, 0
2, 230880, Note_on_c, 0, 85, 100
2, 231000, Note_on_c, 0, 85, 0
2, 231000, Note_on_c, 0, 83, 100
2, 231120, Note_on_c, 0, 83, 0
2, 231120, Note_on_c, 0, 81, 100
2, 231360, Note_on_c, 0, 81, 0
2, 231360, Note_on_c, 0, 79, 100
2, 231600, Note_on_c, 0, 79, 0
2, 231600, Note_on_c, 0, 83, 100
2, 231720, Note_on_c, 0, 83, 0
2, 231720, Note_on_c, 0, 81, 100
2, 231840, Note_on_c, 0, 81, 0
2, 231840, Note_on_c, 0, 79, 100
2, 231960, Note_on_c, 0, 79, 0
2, 231960, Note_on_c, 0, 78, 100
2, 232080, Note_on_c, 0, 78, 0
2, 232080, Note_on_c, 0, 81, 100
2, 232200, Note_on_c, 0, 81, 0
2, 232200, Note_on_c, 0, 86, 100
2, 232320, Note_on_c, 0, 86, 0
2, 232320, Note_on_c, 0, 81, 100
2, 232440, Note_on_c, 0, 81, 0
2, 232440, Note_on_c, 0, 78, 100
2, 232560, Note_on_c, 0, 78, 0
2, 232560, Note_on_c, 0, 76, 100
2, 233040, Note_on_c, 0, 76, 0
2, 233040, Note_on_c, 0, 81, 100
2, 233160, Note_on_c, 0, 81, 0
2, 233160, Note_on_c, 0, 78, 100
2, 233280, Note_on_c, 0, 78, 0
2, 233280, Note_on_c, 0, 76, 100
2, 233760, Note_on_c, 0, 76, 0
2, 233760, Note_on_c, 0, 81, 100
2, 233880, Note_on_c, 0, 81, 0
2, 233880, Note_on_c, 0, 78, 100
2, 234000, Note_on_c, 0, 78, 0
2, 234000, Note_on_c, 0, 76, 100
2, 234120, Note_on_c, 0, 76, 0
2, 236280, Note_on_c, 0, 88, 100
2, 236280, Note_on_c, 0, 91, 100
2, 236520, Note_on_c, 0, 91, 0
2, 236520, Note_on_c, 0, 88, 0
2, 236520, Note_on_c, 0, 88, 100
2, 236520, Note_on_c, 0, 91, 100
2, 236760, Note_on_c, 0, 91, 0
2, 236760, Note_on_c, 0, 88, 0
2, 236760, Note_on_c, 0, 91, 100
2, 236760, Note_on_c, 0, 88, 100
2, 236880, Note_on_c, 0, 88, 0
2, 236880, Note_on_c, 0, 91, 0
2, 236880, Note_on_c, 0, 90, 100
2, 236880, Note_on_c, 0, 86, 100
2, 237180, Note_on_c, 0, 86, 0
2, 237180, Note_on_c, 0, 90, 0
2, 237180, Note_on_c, 0, 91, 100
2, 237180, Note_on_c, 0, 88, 100
2, 237240, Note_on_c, 0, 88, 0
2, 237240, Note_on_c, 0, 91, 0
2, 237600, Note_on_c, 0, 90, 100
2, 237600, Note_on_c, 0, 86, 100
2, 237900, Note_on_c, 0, 86, 0
2, 237900, Note_on_c, 0, 90, 0
2, 237900, Note_on_c, 0, 91, 100
2, 237900, Note_on_c, 0, 88, 100
2, 237960, Note_on_c, 0, 88, 0
2, 237960, Note_on_c, 0, 91, 0
2, 237960, Note_on_c, 0, 86, 100
2, 237960, Note_on_c, 0, 90, 100
2, 238080, Note_on_c, 0, 90, 0
2, 238080, Note_on_c, 0, 86, 0
2, 238320, Note_on_c, 0, 90, 100
2, 238320, Note_on_c, 0, 86, 100
2, 238560, Note_on_c, 0, 86, 0
2, 238560, Note_on_c, 0, 90, 0
2, 238560, Note_on_c, 0, 88, 100
2, 238560, Note_on_c, 0, 85, 100
2, 238680, Note_on_c, 0, 85, 0
2, 238680, Note_on_c, 0, 88, 0
2, 238680, Note_on_c, 0, 90, 100
2, 238680, Note_on_c, 0, 86, 100
2, 238800, Note_on_c, 0, 86, 0
2, 238800, Note_on_c, 0, 90, 0
2, 238800, Note_on_c, 0, 88, 100
2, 238800, Note_on_c, 0, 91, 100
2, 238920, Note_on_c, 0, 91, 0
2, 238920, Note_on_c, 0, 88, 0
2, 238920, Note_on_c, 0, 86, 100
2, 238920, Note_on_c, 0, 90, 100
2, 239040, Note_on_c, 0, 90, 0
2, 239040, Note_on_c, 0, 86, 0
2, 239040, Note_on_c, 0, 88, 100
2, 239040, Note_on_c, 0, 85, 100
2, 239160, Note_on_c, 0, 85, 0
2, 239160, Note_on_c, 0, 88, 0
2, 239760, Note_on_c, 0, 85, 100
2, 239760, Note_on_c, 0, 88, 100
2, 240060, Note_on_c, 0, 88, 0
2, 240060, Note_on_c, 0, 85, 0
2, 240060, Note_on_c, 0, 84, 100
2, 240060, Note_on_c, 0, 87, 100
2, 240120, Note_on_c, 0, 87, 0
2, 240120, Note_on_c, 0, 84, 0
2, 240120, Note_on_c, 0, 88, 100
2, 240120, Note_on_c, 0, 85, 100
2, 240240, Note_on_c, 0, 85, 0
2, 240240, Note_on_c, 0, 88, 0
2, 240480, Note_on_c, 0, 85, 100
2, 240480, Note_on_c, 0, 88, 100
2, 240780, Note_on_c, 0, 88, 0
2, 240780, Note_on_c, 0, 85, 0
2, 240780, Note_on_c, 0, 84, 100
2, 240780, Note_on_c, 0, 87, 100
2, 240840, Note_on_c, 0, 87, 0
2, 240840, Note_on_c, 0, 84, 0
2, 240840, Note_on_c, 0, 88, 100
2, 240840, Note_on_c, 0, 85, 100
2, 240960, Note_on_c, 0, 85, 0
2, 240960, Note_on_c, 0, 88, 0
2, 241200, Note_on_c, 0, 88, 100
2, 241200, Note_on_c, 0, 85, 100
2, 241440, Note_on_c, 0, 85, 0
2, 241440, Note_on_c, 0, 88, 0
2, 241440, Note_on_c, 0, 86, 100
2, 241440, Note_on_c, 0, 90, 100
2, 241560, Note_on_c, 0, 90, 0
2, 241560, Note_on_c, 0, 86, 0
2, 241560, Note_on_c, 0, 93, 100
2, 241560, Note_on_c, 0, 90, 100
2, 241680, Note_on_c, 0, 90, 0
2, 241680, Note_on_c, 0, 93, 0
2, 241680, Note_on_c, 0, 88, 100
2, 241680, Note_on_c, 0, 91, 100
2, 241800, Note_on_c, 0, 91, 0
2, 241800, Note_on_c, 0, 88, 0
2, 241800, Note_on_c, 0, 85, 100
2, 241800, Note_on_c, 0, 88, 100
2, 241920, Note_on_c, 0, 88, 0
2, 241920, Note_on_c, 0, 85, 0
2, 241920, Note_on_c, 0, 86, 100
2, 242040, Note_on_c, 0, 86, 0
2, 242640, Note_on_c, 0, 81, 100
2, 243240, Note_on_c, 0, 81, 0
2, 243240, Note_on_c, 0, 83, 100
2, 243360, Note_on_c, 0, 83, 0
2, 243360, Note_on_c, 0, 79, 100
2, 243960, Note_on_c, 0, 79, 0
2, 243960, Note_on_c, 0, 81, 100
2, 244080, Note_on_c, 0, 81, 0
2, 244080, Note_on_c, 0, 78, 100
2, 244440, Note_on_c, 0, 78, 0
2, 244440, Note_on_c, 0, 79, 100
2, 244470, Note_on_c, 0, 79, 0
2, 244470, Note_on_c, 0, 78, 100
2, 244500, Note_on_c, 0, 78, 0
2, 244500, Note_on_c, 0, 76, 100
2, 244530, Note_on_c, 0, 76, 0
2, 244530, Note_on_c, 0, 78, 100
2, 244560, Note_on_c, 0, 78, 0
2, 244560, Note_on_c, 0, 81, 100
2, 244680, Note_on_c, 0, 81, 0
2, 244680, Note_on_c, 0, 79, 100
2, 244800, Note_on_c, 0, 79, 0
2, 244800, Note_on_c, 0, 78, 100
2, 245160, Note_on_c, 0, 78, 0
2, 245160, Note_on_c, 0, 76, 100
2, 245280, Note_on_c, 0, 76, 0
2, 245520, Note_on_c, 0, 81, 100
2, 245880, Note_on_c, 0, 81, 0
2, 245880, Note_on_c, 0, 83, 100
2, 245910, Note_on_c, 0, 83, 0
2, 245910, Note_on_c, 0, 81, 100
2, 245940, Note_on_c, 0, 81, 0
2, 245940, Note_on_c, 0, 80, 100
2, 245970, Note_on_c, 0, 80, 0
2, 245970, Note_on_c, 0, 81, 100
2, 246000, Note_on_c, 0, 81, 0
2, 246000, Note_on_c, 0, 85, 100
2, 246120, Note_on_c, 0, 85, 0
2, 246120, Note_on_c, 0, 83, 100
2, 246240, Note_on_c, 0, 83, 0
2, 246240, Note_on_c, 0, 81, 100
2, 246480, Note_on_c, 0, 81, 0
2, 246480, Note_on_c, 0, 79, 100
2, 246720, Note_on_c, 0, 79, 0
2, 246720, Note_on_c, 0, 83, 100
2, 246840, Note_on_c, 0, 83, 0
2, 246840, Note_on_c, 0, 81, 100
2, 246960, Note_on_c, 0, 81, 0
2, 246960, Note_on_c, 0, 79, 100
2, 247080, Note_on_c, 0, 79, 0
2, 247080, Note_on_c, 0, 78, 100
2, 247200, Note_on_c, 0, 78, 0
2, 247200, Note_on_c, 0, 81, 100
2, 247320, Note_on_c, 0, 81, 0
2, 247320, Note_on_c, 0, 86, 100
2, 247440, Note_on_c, 0, 86, 0
2, 247440, Note_on_c, 0, 81, 100
2, 247560, Note_on_c, 0, 81, 0
2, 247560, Note_on_c, 0, 78, 100
2, 247680, Note_on_c, 0, 78, 0
2, 247680, Note_on_c, 0, 76, 100
2, 248160, Note_on_c, 0, 76, 0
2, 248160, Note_on_c, 0, 81, 100
2, 248280, Note_on_c, 0, 81, 0
2, 248280, Note_on_c, 0, 78, 100
2, 248400, Note_on_c, 0, 78, 0
2, 248400, Note_on_c, 0, 76, 100
2, 248880, Note_on_c, 0, 76, 0
2, 248880, Note_on_c, 0, 81, 100
2, 249000, Note_on_c, 0, 81, 0
2, 249000, Note_on_c, 0, 78, 100
2, 249120, Note_on_c, 0, 78, 0
2, 249120, Note_on_c, 0, 76, 100
2, 249240, Note_on_c, 0, 76, 0
2, 251400, Note_on_c, 0, 88, 100
2, 251400, Note_on_c, 0, 91, 100
2, 251640, Note_on_c, 0, 91, 0
2, 251640, Note_on_c, 0, 88, 0
2, 251640, Note_on_c, 0, 88, 100
2, 251640, Note_on_c, 0, 91, 100
2, 251880, Note_on_c, 0, 91, 0
2, 251880, Note_on_c, 0, 88, 0
2, 251880, Note_on_c, 0, 91, 100
2, 251880, Note_on_c, 0, 88, 100
2, 252000, Note_on_c, 0, 88, 0
2, 252000, Note_on_c, 0, 91, 0
2, 252000, Note_on_c, 0, 90, 100
2, 252000, Note_on_c, 0, 86, 100
2, 252300, Note_on_c, 0, 86, 0
2, 252300, Note_on_c, 0, 90, 0
2, 252300, Note_on_c, 0, 91, 100
2, 252300, Note_on_c, 0, 88, 100
2, 252360, Note_on_c, 0, 88, 0
2, 252360, Note_on_c, 0, 91, 0
2, 252720, Note_on_c, 0, 90, 100
2, 252720, Note_on_c, 0, 86, 100
2, 253020, Note_on_c, 0, 86, 0
2, 253020, Note_on_c, 0, 90, 0
2, 253020, Note_on_c, 0, 91, 100
2, 253020, Note_on_c, 0, 88, 100
2, 253080, Note_on_c, 0, 88, 0
2, 253080, Note_on_c, 0, 91, 0
2, 253080, Note_on_c, 0, 86, 100
2, 253080, Note_on_c, 0, 90, 100
2, 253200, Note_on_c, 0, 90, 0
2, 253200, Note_on_c, 0, 86, 0
2, 253440, Note_on_c, 0, 90, 100
2, 253440, Note_on_c, 0, 86, 100
2, 253680, Note_on_c, 0, 86, 0
2, 253680, Note_on_c, 0, 90, 0
2, 253680, Note_on_c, 0, 88, 100
2, 253680, Note_on_c, 0, 85, 100
2, 253800, Note_on_c, 0, 85, 0
2, 253800, Note_on_c, 0, 88, 0
2, 253800, Note_on_c, 0, 90, 100
2, 253800, Note_on_c, 0, 86, 100
2, 253920, Note_on_c, 0, 86, 0
2, 253920, Note_on_c, 0, 90, 0
2, 253920, Note_on_c, 0, 88, 100
2, 253920, Note_on_c, 0, 91, 100
2, 254040, Note_on_c, 0, 91, 0
2, 254040, Note_on_c, 0, 88, 0
2, 254040, Note_on_c, 0, 86, 100
2, 254040, Note_on_c, 0, 90, 100
2, 254160, Note_on_c, 0, 90, 0
2, 254160, Note_on_c, 0, 86, 0
2, 254160, Note_on_c, 0, 88, 100
2, 254160, Note_on_c, 0, 85, 100
2, 254280, Note_on_c, 0, 85, 0
2, 254280, Note_on_c, 0, 88, 0
2, 254880, Note_on_c, 0, 85, 100
2, 254880, Note_on_c, 0, 88, 100
2, 255180, Note_on_c, 0, 88, 0
2, 255180, Note_on_c, 0, 85, 0
2, 255180, Note_on_c, 0, 84, 100
2, 255180, Note_on_c, 0, 87, 100
2, 255240, Note_on_c, 0, 87, 0
2, 255240, Note_on_c, 0, 84, 0
2, 255240, Note_on_c, 0, 88, 100
2, 255240, Note_on_c, 0, 85, 100
2, 255360, Note_on_c, 0, 85, 0
2, 255360, Note_on_c, 0, 88, 0
2, 255600, Note_on_c, 0, 85, 100
2, 255600, Note_on_c, 0, 88, 100
2, 255900, Note_on_c, 0, 88, 0
2, 255900, Note_on_c, 0, 85, 0
2, 255900, Note_on_c, 0, 84, 100
2, 255900, Note_on_c, 0, 87, 100
2, 255960, Note_on_c, 0, 87, 0
2, 255960, Note_on_c, 0, 84, 0
2, 255960, Note_on_c, 0, 88, 100
2, 255960, Note_on_c, 0, 85, 100
2, 256080, Note_on_c, 0, 85, 0
2, 256080, Note_on_c, 0, 88, 0
2, 256320, Note_on_c, 0, 88, 100
2, 256320, Note_on_c, 0, 85, 100
2, 256560, Note_on_c, 0, 85, 0
2, 256560, Note_on_c, 0, 88, 0
2, 256560, Note_on_c, 0, 86, 100
2, 256560, Note_on_c, 0, 90, 100
2, 256680, Note_on_c, 0, 90, 0
2, 256680, Note_on_c, 0, 86, 0
2, 256680, Note_on_c, 0, 93, 100
2, 256680, Note_on_c, 0, 90, 100
2, 256800, Note_on_c, 0, 90, 0
2, 256800, Note_on_c, 0, 93, 0
2, 256800, Note_on_c, 0, 88, 100
2, 256800, Note_on_c, 0, 91, 100
2, 256920, Note_on_c, 0, 91, 0
2, 256920, Note_on_c, 0, 88, 0
2, 256920, Note_on_c, 0, 85, 100
2, 256920, Note_on_c, 0, 88, 100
2, 257040, Note_on_c, 0, 88, 0
2, 257040, Note_on_c, 0, 85, 0
2, 257040, Note_on_c, 0, 86, 100
2, 257160, Note_on_c, 0, 86, 0
2, 262680, Note_on_c, 0, 77, 100
2, 262800, Note_on_c, 0, 77, 0
2, 262800, Note_on_c, 0, 77, 100
2, 262830, Note_on_c, 0, 77, 0
2, 262830, Note_on_c, 0, 81, 100
2, 262920, Note_on_c, 0, 81, 0
2, 262920, Note_on_c, 0, 77, 100
2, 262980, Note_on_c, 0, 77, 0
2, 263040, Note_on_c, 0, 77, 100
2, 263040, Note_on_c, 0, 81, 100
2, 263160, Note_on_c, 0, 81, 0
2, 263160, Note_on_c, 0, 77, 0
2, 263160, Note_on_c, 0, 81, 100
2, 263160, Note_on_c, 0, 77, 100
2, 263190, Note_on_c, 0, 77, 0
2, 263190, Note_on_c, 0, 81, 0
2, 263190, Note_on_c, 0, 84, 100
2, 263190, Note_on_c, 0, 81, 100
2, 263280, Note_on_c, 0, 81, 0
2, 263280, Note_on_c, 0, 84, 0
2, 263280, Note_on_c, 0, 77, 100
2, 263280, Note_on_c, 0, 81, 100
2, 263340, Note_on_c, 0, 81, 0
2, 263340, Note_on_c, 0, 77, 0
2, 263400, Note_on_c, 0, 81, 100
2, 263400, Note_on_c, 0, 84, 100
2, 263520, Note_on_c, 0, 84, 0
2, 263520, Note_on_c, 0, 81, 0
2, 263520, Note_on_c, 0, 89, 100
2, 263520, Note_on_c, 0, 81, 100
2, 263640, Note_on_c, 0, 81, 0
2, 263640, Note_on_c, 0, 89, 0
2, 263640, Note_on_c, 0, 89, 100
2, 263640, Note_on_c, 0, 81, 100
2, 263760, Note_on_c, 0, 81, 0
2, 263760, Note_on_c, 0, 89, 0
2, 263760, Note_on_c, 0, 88, 100
2, 263760, Note_on_c, 0, 84, 100
2, 263880, Note_on_c, 0, 84, 0
2, 263880, Note_on_c, 0, 88, 0
2, 263880, Note_on_c, 0, 86, 100
2, 263880, Note_on_c, 0, 82, 100
2, 264000, Note_on_c, 0, 82, 0
2, 264000, Note_on_c, 0, 86, 0
2, 264000, Note_on_c, 0, 86, 100
2, 264000, Note_on_c, 0, 82, 100
2, 264120, Note_on_c, 0, 82, 0
2, 264120, Note_on_c, 0, 86, 0
2, 264120, Note_on_c, 0, 84, 100
2, 264120, Note_on_c, 0, 81, 100
2, 264240, Note_on_c, 0, 81, 0
2, 264240, Note_on_c, 0, 84, 0
2, 264240, Note_on_c, 0, 82, 100
2, 264240, Note_on_c, 0, 79, 100
2, 264360, Note_on_c, 0, 79, 0
2, 264360, Note_on_c, 0, 82, 0
2, 264360, Note_on_c, 0, 82, 100
2, 264360, Note_on_c, 0, 79, 100
2, 264480, Note_on_c, 0, 79, 0
2, 264480, Note_on_c, 0, 82, 0
2, 264480, Note_on_c, 0, 81, 100
2, 264480, Note_on_c, 0, 77, 100
2, 264600, Note_on_c, 0, 77, 0
2, 264600, Note_on_c, 0, 81, 0
2, 264600, Note_on_c, 0, 76, 100
2, 264600, Note_on_c, 0, 79, 100
2, 264960, Note_on_c, 0, 79, 0
2, 264960, Note_on_c, 0, 76, 0
2, 264960, Note_on_c, 0, 91, 100
2, 264960, Note_on_c, 0, 88, 100
2, 265080, Note_on_c, 0, 88, 0
2, 265080, Note_on_c, 0, 91, 0
2, 265080, Note_on_c, 0, 88, 100
2, 265080, Note_on_c, 0, 91, 100
2, 265200, Note_on_c, 0, 91, 0
2, 265200, Note_on_c, 0, 88, 0
2, 265200, Note_on_c, 0, 86, 100
2, 265200, Note_on_c, 0, 89, 100
2, 265320, Note_on_c, 0, 89, 0
2, 265320, Note_on_c, 0, 86, 0
2, 265320, Note_on_c, 0, 88, 100
2, 265320, Note_on_c, 0, 84, 100
2, 265440, Note_on_c, 0, 84, 0
2, 265440, Note_on_c, 0, 88, 0
2, 265440, Note_on_c, 0, 88, 100
2, 265440, Note_on_c, 0, 84, 100
2, 265560, Note_on_c, 0, 84, 0
2, 265560, Note_on_c, 0, 88, 0
2, 265560, Note_on_c, 0, 86, 100
2, 265560, Note_on_c, 0, 82, 100
2, 265680, Note_on_c, 0, 82, 0
2, 265680, Note_on_c, 0, 86, 0
2, 265680, Note_on_c, 0, 81, 100
2, 265680, Note_on_c, 0, 84, 100
2, 265800, Note_on_c, 0, 84, 0
2, 265800, Note_on_c, 0, 81, 0
2, 265800, Note_on_c, 0, 81, 100
2, 265800, Note_on_c, 0, 84, 100
2, 265920, Note_on_c, 0, 84, 0
2, 265920, Note_on_c, 0, 81, 0
2, 265920, Note_on_c, 0, 79, 100
2, 265920, Note_on_c, 0, 82, 100
2, 266040, Note_on_c, 0, 82, 0
2, 266040, Note_on_c, 0, 79, 0
2, 266040, Note_on_c, 0, 77, 100
2, 266040, Note_on_c, 0, 81, 100
2, 266400, Note_on_c, 0, 81, 0
2, 266400, Note_on_c, 0, 77, 0
2, 267120, Note_on_c, 0, 79, 100
2, 267240, Note_on_c, 0, 79, 0
2, 267240, Note_on_c, 0, 79, 100
2, 267360, Note_on_c, 0, 79, 0
2, 267360, Note_on_c, 0, 77, 100
2, 267480, Note_on_c, 0, 77, 0
2, 267480, Note_on_c, 0, 82, 100
2, 267720, Note_on_c, 0, 82, 0
2, 267720, Note_on_c, 0, 81, 100
2, 267840, Note_on_c, 0, 81, 0
2, 267840, Note_on_c, 0, 86, 100
2, 268080, Note_on_c, 0, 86, 0
2, 268080, Note_on_c, 0, 85, 100
2, 268200, Note_on_c, 0, 85, 0
2, 268200, Note_on_c, 0, 89, 100
2, 268440, Note_on_c, 0, 89, 0
2, 268440, Note_on_c, 0, 88, 100
2, 268560, Note_on_c, 0, 88, 0
2, 268560, Note_on_c, 0, 88, 100
2, 268920, Note_on_c, 0, 88, 0
2, 268920, Note_on_c, 0, 88, 100
2, 269040, Note_on_c, 0, 88, 0
2, 269280, Note_on_c, 0, 88, 100
2, 269640, Note_on_c, 0, 88, 0
2, 269640, Note_on_c, 0, 88, 100
2, 269760, Note_on_c, 0, 88, 0
2, 270000, Note_on_c, 0, 88, 100
2, 270000, Note_on_c, 0, 88, 100
2, 270120, Note_on_c, 0, 88, 0
2, 270120, Note_on_c, 0, 90, 100
2, 270240, Note_on_c, 0, 90, 0
2, 270240, Note_on_c, 0, 92, 100
2, 270360, Note_on_c, 0, 92, 0
2, 270360, Note_on_c, 0, 93, 100
2, 270480, Note_on_c, 0, 93, 0
2, 270480, Note_on_c, 0, 88, 0
2, 270480, Note_on_c, 0, 88, 100
2, 270600, Note_on_c, 0, 88, 0
2, 270600, Note_on_c, 0, 85, 100
2, 270720, Note_on_c, 0, 85, 0
2, 270720, Note_on_c, 0, 81, 100
2, 270840, Note_on_c, 0, 81, 0
2, 270840, Note_on_c, 0, 76, 100
2, 270960, Note_on_c, 0, 76, 0
2, 270960, Note_on_c, 0, 73, 100
2, 271080, Note_on_c, 0, 73, 0
2, 271080, Note_on_c, 0, 69, 100
2, 271200, Note_on_c, 0, 69, 0
2, 272760, Note_on_c, 0, 81, 100
2, 272880, Note_on_c, 0, 81, 0
2, 272880, Note_on_c, 0, 83, 100
2, 273000, Note_on_c, 0, 83, 0
2, 273000, Note_on_c, 0, 83, 100
2, 273120, Note_on_c, 0, 83, 0
2, 273120, Note_on_c, 0, 81, 100
2, 273240, Note_on_c, 0, 81, 0
2, 273240, Note_on_c, 0, 86, 100
2, 273480, Note_on_c, 0, 86, 0
2, 273480, Note_on_c, 0, 85, 100
2, 273600, Note_on_c, 0, 85, 0
2, 273600, Note_on_c, 0, 83, 100
2, 273720, Note_on_c, 0, 83, 0
2, 273720, Note_on_c, 0, 83, 100
2, 273840, Note_on_c, 0, 83, 0
2, 273840, Note_on_c, 0, 81, 100
2, 273960, Note_on_c, 0, 81, 0
2, 273960, Note_on_c, 0, 86, 100
2, 274200, Note_on_c, 0, 86, 0
2, 274200, Note_on_c, 0, 85, 100
2, 274320, Note_on_c, 0, 85, 0
2, 274320, Note_on_c, 0, 86, 100
2, 274560, Note_on_c, 0, 86, 0
2, 274560, Note_on_c, 0, 85, 100
2, 274680, Note_on_c, 0, 85, 0
2, 274680, Note_on_c, 0, 86, 100
2, 274920, Note_on_c, 0, 86, 0
2, 274920, Note_on_c, 0, 85, 100
2, 275040, Note_on_c, 0, 85, 0
2, 275040, Note_on_c, 0, 86, 100
2, 275280, Note_on_c, 0, 86, 0
2, 275280, Note_on_c, 0, 85, 100
2, 275400, Note_on_c, 0, 85, 0
2, 275400, Note_on_c, 0, 86, 100
2, 275640, Note_on_c, 0, 86, 0
2, 275640, Note_on_c, 0, 85, 100
2, 275760, Note_on_c, 0, 85, 0
2, 278160, Note_on_c, 0, 89, 100
2, 278160, Note_on_c, 0, 86, 100
2, 278280, Note_on_c, 0, 86, 0
2, 278280, Note_on_c, 0, 89, 0
2, 278280, Note_on_c, 0, 86, 100
2, 278280, Note_on_c, 0, 89, 100
2, 278400, Note_on_c, 0, 89, 0
2, 278400, Note_on_c, 0, 86, 0
2, 278520, Note_on_c, 0, 84, 100
2, 278640, Note_on_c, 0, 84, 0
2, 278640, Note_on_c, 0, 86, 100
2, 278760, Note_on_c, 0, 86, 0
2, 278760, Note_on_c, 0, 86, 100
2, 278880, Note_on_c, 0, 86, 0
2, 278880, Note_on_c, 0, 84, 100
2, 279000, Note_on_c, 0, 84, 0
2, 279000, Note_on_c, 0, 89, 100
2, 279240, Note_on_c, 0, 89, 0
2, 279240, Note_on_c, 0, 88, 100
2, 279360, Note_on_c, 0, 88, 0
2, 279360, Note_on_c, 0, 86, 100
2, 279480, Note_on_c, 0, 86, 0
2, 279480, Note_on_c, 0, 86, 100
2, 279600, Note_on_c, 0, 86, 0
2, 279600, Note_on_c, 0, 84, 100
2, 279720, Note_on_c, 0, 84, 0
2, 279720, Note_on_c, 0, 89, 100
2, 279960, Note_on_c, 0, 89, 0
2, 279960, Note_on_c, 0, 88, 100
2, 280080, Note_on_c, 0, 88, 0
2, 280080, Note_on_c, 0, 89, 100
2, 280320, Note_on_c, 0, 89, 0
2, 280320, Note_on_c, 0, 88, 100
2, 280440, Note_on_c, 0, 88, 0
2, 280440, Note_on_c, 0, 89, 100
2, 280680, Note_on_c, 0, 89, 0
2, 280680, Note_on_c, 0, 88, 100
2, 280800, Note_on_c, 0, 88, 0
2, 280800, Note_on_c, 0, 89, 100
2, 281040, Note_on_c, 0, 89, 0
2, 281040, Note_on_c, 0, 88, 100
2, 281160, Note_on_c, 0, 88, 0
2, 281160, Note_on_c, 0, 89, 100
2, 281400, Note_on_c, 0, 89, 0
2, 281400, Note_on_c, 0, 88, 100
2, 281520, Note_on_c, 0, 88, 0
2, 289080, Note_on_c, 0, 82, 100
2, 289200, Note_on_c, 0, 82, 0
2, 289200, Note_on_c, 0, 82, 100
2, 289320, Note_on_c, 0, 82, 0
2, 289320, Note_on_c, 0, 81, 100
2, 289440, Note_on_c, 0, 81, 0
2, 289440, Note_on_c, 0, 79, 100
2, 289560, Note_on_c, 0, 79, 0
2, 289560, Note_on_c, 0, 79, 100
2, 289680, Note_on_c, 0, 79, 0
2, 289680, Note_on_c, 0, 77, 100
2, 289800, Note_on_c, 0, 77, 0
2, 289800, Note_on_c, 0, 75, 100
2, 289920, Note_on_c, 0, 75, 0
2, 289920, Note_on_c, 0, 75, 100
2, 290040, Note_on_c, 0, 75, 0
2, 290040, Note_on_c, 0, 74, 100
2, 290160, Note_on_c, 0, 74, 0
2, 290160, Note_on_c, 0, 72, 100
2, 290280, Note_on_c, 0, 72, 0
2, 290520, Note_on_c, 0, 84, 100
2, 290640, Note_on_c, 0, 84, 0
2, 290640, Note_on_c, 0, 84, 100
2, 290760, Note_on_c, 0, 84, 0
2, 290760, Note_on_c, 0, 82, 100
2, 290880, Note_on_c, 0, 82, 0
2, 290880, Note_on_c, 0, 81, 100
2, 291000, Note_on_c, 0, 81, 0
2, 291000, Note_on_c, 0, 81, 100
2, 291120, Note_on_c, 0, 81, 0
2, 291120, Note_on_c, 0, 79, 100
2, 291240, Note_on_c, 0, 79, 0
2, 291240, Note_on_c, 0, 77, 100
2, 291360, Note_on_c, 0, 77, 0
2, 291360, Note_on_c, 0, 77, 100
2, 291480, Note_on_c, 0, 77, 0
2, 291480, Note_on_c, 0, 75, 100
2, 291600, Note_on_c, 0, 75, 0
2, 291600, Note_on_c, 0, 74, 100
2, 291720, Note_on_c, 0, 74, 0
2, 294360, Note_on_c, 0, 89, 100
2, 294360, Note_on_c, 0, 77, 100
2, 294480, Note_on_c, 0, 77, 0
2, 294480, Note_on_c, 0, 89, 0
2, 294480, Note_on_c, 0, 89, 100
2, 294480, Note_on_c, 0, 77, 100
2, 294510, Note_on_c, 0, 77, 0
2, 294510, Note_on_c, 0, 89, 0
2, 294510, Note_on_c, 0, 93, 100
2, 294510, Note_on_c, 0, 79, 100
2, 294600, Note_on_c, 0, 79, 0
2, 294600, Note_on_c, 0, 93, 0
2, 294600, Note_on_c, 0, 89, 100
2, 294600, Note_on_c, 0, 77, 100
2, 294660, Note_on_c, 0, 77, 0
2, 294660, Note_on_c, 0, 89, 0
2, 294720, Note_on_c, 0, 81, 100
2, 294720, Note_on_c, 0, 77, 100
2, 294840, Note_on_c, 0, 77, 0
2, 294840, Note_on_c, 0, 81, 0
2, 294840, Note_on_c, 0, 81, 100
2, 294840, Note_on_c, 0, 77, 100
2, 294870, Note_on_c, 0, 77, 0
2, 294870, Note_on_c, 0, 81, 0
2, 294870, Note_on_c, 0, 84, 100
2, 294870, Note_on_c, 0, 81, 100
2, 294960, Note_on_c, 0, 81, 0
2, 294960, Note_on_c, 0, 84, 0
2, 294960, Note_on_c, 0, 77, 100
2, 294960, Note_on_c, 0, 81, 100
2, 295020, Note_on_c, 0, 81, 0
2, 295020, Note_on_c, 0, 77, 0
2, 295080, Note_on_c, 0, 84, 100
2, 295080, Note_on_c, 0, 81, 100
2, 295200, Note_on_c, 0, 81, 0
2, 295200, Note_on_c, 0, 84, 0
2, 295200, Note_on_c, 0, 89, 100
2, 295200, Note_on_c, 0, 77, 100
2, 296400, Note_on_c, 0, 77, 0
2, 296400, Note_on_c, 0, 89, 0
2, 296400, Note_on_c, 0, 91, 100
2, 296400, Note_on_c, 0, 79, 100
2, 296520, Note_on_c, 0, 79, 0
2, 296520, Note_on_c, 0, 91, 0
2, 296520, Note_on_c, 0, 91, 100
2, 296520, Note_on_c, 0, 79, 100
2, 296640, Note_on_c, 0, 79, 0
2, 296640, Note_on_c, 0, 91, 0
2, 296640, Note_on_c, 0, 91, 100
2, 296640, Note_on_c, 0, 79, 100
2, 297840, Note_on_c, 0, 79, 0
2, 297840, Note_on_c, 0, 91, 0
2, 297840, Note_on_c, 0, 81, 100
2, 297840, Note_on_c, 0, 93, 100
2, 297960, Note_on_c, 0, 93, 0
2, 297960, Note_on_c, 0, 81, 0
2, 297960, Note_on_c, 0, 81, 100
2, 297960, Note_on_c, 0, 93, 100
2, 298080, Note_on_c, 0, 93, 0
2, 298080, Note_on_c, 0, 81, 0
2, 298200, Note_on_c, 0, 81, 100
2, 298320, Note_on_c, 0, 81, 0
2, 298320, Note_on_c, 0, 82, 100
2, 298440, Note_on_c, 0, 82, 0
2, 298440, Note_on_c, 0, 84, 100
2, 298560, Note_on_c, 0, 84, 0
2, 298560, Note_on_c, 0, 84, 100
2, 298680, Note_on_c, 0, 84, 0
2, 298680, Note_on_c, 0, 86, 100
2, 298800, Note_on_c, 0, 86, 0
2, 298800, Note_on_c, 0, 88, 100
2, 298920, Note_on_c, 0, 88, 0
2, 298920, Note_on_c, 0, 88, 100
2, 299040, Note_on_c, 0, 88, 0
2, 299040, Note_on_c, 0, 89, 100
2, 299160, Note_on_c, 0, 89, 0
2, 299160, Note_on_c, 0, 91, 100
2, 299280, Note_on_c, 0, 91, 0
2, 299640, Note_on_c, 0, 82, 100
2, 299760, Note_on_c, 0, 82, 0
2, 299760, Note_on_c, 0, 84, 100
2, 299880, Note_on_c, 0, 84, 0
2, 299880, Note_on_c, 0, 86, 100
2, 300000, Note_on_c, 0, 86, 0
2, 300000, Note_on_c, 0, 86, 100
2, 300120, Note_on_c, 0, 86, 0
2, 300120, Note_on_c, 0, 88, 100
2, 300240, Note_on_c, 0, 88, 0
2, 300240, Note_on_c, 0, 89, 100
2, 300360, Note_on_c, 0, 89, 0
2, 300360, Note_on_c, 0, 89, 100
2, 300480, Note_on_c, 0, 89, 0
2, 300480, Note_on_c, 0, 91, 100
2, 300600, Note_on_c, 0, 91, 0
2, 300600, Note_on_c, 0, 93, 100
2, 300720, Note_on_c, 0, 93, 0
2, 304920, Note_on_c, 0, 84, 100
2, 304920, Note_on_c, 0, 79, 100
2, 305040, Note_on_c, 0, 79, 0
2, 305040, Note_on_c, 0, 84, 0
2, 305040, Note_on_c, 0, 84, 100
2, 305040, Note_on_c, 0, 79, 100
2, 305160, Note_on_c, 0, 79, 0
2, 305160, Note_on_c, 0, 84, 0
2, 305160, Note_on_c, 0, 84, 100
2, 305160, Note_on_c, 0, 79, 100
2, 305280, Note_on_c, 0, 79, 0
2, 305280, Note_on_c, 0, 84, 0
2, 305640, Note_on_c, 0, 84, 100
2, 305640, Note_on_c, 0, 79, 100
2, 305760, Note_on_c, 0, 79, 0
2, 305760, Note_on_c, 0, 84, 0
2, 305760, Note_on_c, 0, 84, 100
2, 305760, Note_on_c, 0, 79, 100
2, 305880, Note_on_c, 0, 79, 0
2, 305880, Note_on_c, 0, 84, 0
2, 305880, Note_on_c, 0, 84, 100
2, 305880, Note_on_c, 0, 79, 100
2, 306000, Note_on_c, 0, 79, 0
2, 306000, Note_on_c, 0, 84, 0
2, 306360, Note_on_c, 0, 84, 100
2, 306360, Note_on_c, 0, 79, 100
2, 306480, Note_on_c, 0, 79, 0
2, 306480, Note_on_c, 0, 84, 0
2, 306480, Note_on_c, 0, 84, 100
2, 306480, Note_on_c, 0, 79, 100
2, 306600, Note_on_c, 0, 79, 0
2, 306600, Note_on_c, 0, 84, 0
2, 306600, Note_on_c, 0, 84, 100
2, 306600, Note_on_c, 0, 79, 100
2, 306720, Note_on_c, 0, 79, 0
2, 306720, Note_on_c, 0, 84, 0
2, 307080, Note_on_c, 0, 84, 100
2, 307080, Note_on_c, 0, 79, 100
2, 307200, Note_on_c, 0, 79, 0
2, 307200, Note_on_c, 0, 84, 0
2, 307200, Note_on_c, 0, 84, 100
2, 307200, Note_on_c, 0, 79, 100
2, 307320, Note_on_c, 0, 79, 0
2, 307320, Note_on_c, 0, 84, 0
2, 307320, Note_on_c, 0, 84, 100
2, 307320, Note_on_c, 0, 79, 100
2, 307440, Note_on_c, 0, 79, 0
2, 307440, Note_on_c, 0, 84, 0
2, 307440, Note_on_c, 0, 88, 100
2, 307470, Note_on_c, 0, 88, 0
2, 307470, Note_on_c, 0, 89, 100
2, 307500, Note_on_c, 0, 89, 0
2, 307500, Note_on_c, 0, 88, 100
2, 307530, Note_on_c, 0, 88, 0
2, 307530, Note_on_c, 0, 89, 100
2, 307560, Note_on_c, 0, 89, 0
2, 307560, Note_on_c, 0, 88, 100
2, 307590, Note_on_c, 0, 88, 0
2, 307590, Note_on_c, 0, 89, 100
2, 307620, Note_on_c, 0, 89, 0
2, 307620, Note_on_c, 0, 88, 100
2, 307650, Note_on_c, 0, 88, 0
2, 307650, Note_on_c, 0, 89, 100
2, 307680, Note_on_c, 0, 89, 0
2, 307680, Note_on_c, 0, 88, 100
2, 307710, Note_on_c, 0, 88, 0
2, 307710, Note_on_c, 0, 89, 100
2, 307740, Note_on_c, 0, 89, 0
2, 307740, Note_on_c, 0, 86, 100
2, 307770, Note_on_c, 0, 86, 0
2, 307770, Note_on_c, 0, 88, 100
2, 307800, Note_on_c, 0, 88, 0
2, 307800, Note_on_c, 0, 81, 100
2, 307800, Note_on_c, 0, 89, 100
2, 307920, Note_on_c, 0, 89, 0
2, 307920, Note_on_c, 0, 81, 0
2, 307920, Note_on_c, 0, 84, 100
2, 307920, Note_on_c, 0, 81, 100
2, 308040, Note_on_c, 0, 81, 0
2, 308040, Note_on_c, 0, 84, 0
2, 308040, Note_on_c, 0, 77, 100
2, 308040, Note_on_c, 0, 81, 100
2, 308160, Note_on_c, 0, 81, 0
2, 308160, Note_on_c, 0, 77, 0
2, 308160, Note_on_c, 0, 82, 100
2, 308190, Note_on_c, 0, 82, 0
2, 308190, Note_on_c, 0, 84, 100
2, 308220, Note_on_c, 0, 84, 0
2, 308220, Note_on_c, 0, 82, 100
2, 308250, Note_on_c, 0, 82, 0
2, 308250, Note_on_c, 0, 84, 100
2, 308280, Note_on_c, 0, 84, 0
2, 308280, Note_on_c, 0, 82, 100
2, 308310, Note_on_c, 0, 82, 0
2, 308310, Note_on_c, 0, 84, 100
2, 308340, Note_on_c, 0, 84, 0
2, 308340, Note_on_c, 0, 82, 100
2, 308370, Note_on_c, 0, 82, 0
2, 308370, Note_on_c, 0, 84, 100
2, 308400, Note_on_c, 0, 84, 0
2, 308400, Note_on_c, 0, 82, 100
2, 308430, Note_on_c, 0, 82, 0
2, 308430, Note_on_c, 0, 84, 100
2, 308460, Note_on_c, 0, 84, 0
2, 308460, Note_on_c, 0, 81, 100
2, 308490, Note_on_c, 0, 81, 0
2, 308490, Note_on_c, 0, 82, 100
2, 308520, Note_on_c, 0, 82, 0
2, 308520, Note_on_c, 0, 77, 100
2, 308520, Note_on_c, 0, 81, 100
2, 308640, Note_on_c, 0, 81, 0
2, 308640, Note_on_c, 0, 77, 0
2, 308640, Note_on_c, 0, 84, 100
2, 308640, Note_on_c, 0, 81, 100
2, 308760, Note_on_c, 0, 81, 0
2, 308760, Note_on_c, 0, 84, 0
2, 308760, Note_on_c, 0, 89, 100
2, 308760, Note_on_c, 0, 81, 100
2, 308880, Note_on_c, 0, 81, 0
2, 308880, Note_on_c, 0, 89, 0
2, 308880, Note_on_c, 0, 88, 100
2, 308910, Note_on_c, 0, 88, 0
2, 308910, Note_on_c, 0, 89, 100
2, 308940, Note_on_c, 0, 89, 0
2, 308940, Note_on_c, 0, 88, 100
2, 308970, Note_on_c, 0, 88, 0
2, 308970, Note_on_c, 0, 89, 100
2, 309000, Note_on_c, 0, 89, 0
2, 309000, Note_on_c, 0, 88, 100
2, 309030, Note_on_c, 0, 88, 0
2, 309030, Note_on_c, 0, 89, 100
2, 309060, Note_on_c, 0, 89, 0
2, 309060, Note_on_c, 0, 88, 100
2, 309090, Note_on_c, 0, 88, 0
2, 309090, Note_on_c, 0, 89, 100
2, 309120, Note_on_c, 0, 89, 0
2, 309120, Note_on_c, 0, 88, 100
2, 309150, Note_on_c, 0, 88, 0
2, 309150, Note_on_c, 0, 89, 100
2, 309180, Note_on_c, 0, 89, 0
2, 309180, Note_on_c, 0, 86, 100
2, 309210, Note_on_c, 0, 86, 0
2, 309210, Note_on_c, 0, 88, 100
2, 309240, Note_on_c, 0, 88, 0
2, 309240, Note_on_c, 0, 89, 100
2, 309240, Note_on_c, 0, 81, 100
2, 309360, Note_on_c, 0, 81, 0
2, 309360, Note_on_c, 0, 89, 0
2, 309360, Note_on_c, 0, 84, 100
2, 309360, Note_on_c, 0, 81, 100
2, 309480, Note_on_c, 0, 81, 0
2, 309480, Note_on_c, 0, 84, 0
2, 309480, Note_on_c, 0, 77, 100
2, 309480, Note_on_c, 0, 81, 100
2, 309600, Note_on_c, 0, 81, 0
2, 309600, Note_on_c, 0, 77, 0
2, 309600, Note_on_c, 0, 88, 100
2, 309630, Note_on_c, 0, 88, 0
2, 309630, Note_on_c, 0, 89, 100
2, 309660, Note_on_c, 0, 89, 0
2, 309660, Note_on_c, 0, 88, 100
2, 309690, Note_on_c, 0, 88, 0
2, 309690, Note_on_c, 0, 89, 100
2, 309720, Note_on_c, 0, 89, 0
2, 309720, Note_on_c, 0, 88, 100
2, 309750, Note_on_c, 0, 88, 0
2, 309750, Note_on_c, 0, 89, 100
2, 309780, Note_on_c, 0, 89, 0
2, 309780, Note_on_c, 0, 88, 100
2, 309810, Note_on_c, 0, 88, 0
2, 309810, Note_on_c, 0, 89, 100
2, 309840, Note_on_c, 0, 89, 0
2, 309840, Note_on_c, 0, 88, 100
2, 309870, Note_on_c, 0, 88, 0
2, 309870, Note_on_c, 0, 89, 100
2, 309900, Note_on_c, 0, 89, 0
2, 309900, Note_on_c, 0, 86, 100
2, 309930, Note_on_c, 0, 86, 0
2, 309930, Note_on_c, 0, 88, 100
2, 309960, Note_on_c, 0, 88, 0
2, 309960, Note_on_c, 0, 89, 100
2, 309960, Note_on_c, 0, 81, 100
2, 310080, Note_on_c, 0, 81, 0
2, 310080, Note_on_c, 0, 89, 0
2, 310080, Note_on_c, 0, 84, 100
2, 310080, Note_on_c, 0, 81, 100
2, 310200, Note_on_c, 0, 81, 0
2, 310200, Note_on_c, 0, 84, 0
2, 310200, Note_on_c, 0, 77, 100
2, 310200, Note_on_c, 0, 81, 100
2, 310320, Note_on_c, 0, 81, 0
2, 310320, Note_on_c, 0, 77, 0
2, 310320, Note_on_c, 0, 88, 100
2, 310350, Note_on_c, 0, 88, 0
2, 310350, Note_on_c, 0, 89, 100
2, 310380, Note_on_c, 0, 89, 0
2, 310380, Note_on_c, 0, 88, 100
2, 310410, Note_on_c, 0, 88, 0
2, 310410, Note_on_c, 0, 89, 100
2, 310440, Note_on_c, 0, 89, 0
2, 310440, Note_on_c, 0, 88, 100
2, 310470, Note_on_c, 0, 88, 0
2, 310470, Note_on_c, 0, 89, 100
2, 310500, Note_on_c, 0, 89, 0
2, 310500, Note_on_c, 0, 88, 100
2, 310530, Note_on_c, 0, 88, 0
2, 310530, Note_on_c, 0, 89, 100
2, 310560, Note_on_c, 0, 89, 0
2, 310560, Note_on_c, 0, 88, 100
2, 310590, Note_on_c, 0, 88, 0
2, 310590, Note_on_c, 0, 89, 100
2, 310620, Note_on_c, 0, 89, 0
2, 310620, Note_on_c, 0, 86, 100
2, 310650, Note_on_c, 0, 86, 0
2, 310650, Note_on_c, 0, 88, 100
2, 310680, Note_on_c, 0, 88, 0
2, 310680, Note_on_c, 0, 89, 100
2, 310680, Note_on_c, 0, 81, 100
2, 310800, Note_on_c, 0, 81, 0
2, 310800, Note_on_c, 0, 89, 0
2, 310800, Note_on_c, 0, 84, 100
2, 310920, Note_on_c, 0, 84, 0
2, 310920, Note_on_c, 0, 81, 100
2, 311040, Note_on_c, 0, 81, 0
2, 311040, Note_on_c, 0, 77, 100
2, 311160, Note_on_c, 0, 77, 0
2, 311160, Note_on_c, 0, 72, 100
2, 311280, Note_on_c, 0, 72, 0
2, 311280, Note_on_c, 0, 69, 100
2, 311400, Note_on_c, 0, 69, 0
2, 311400, Note_on_c, 0, 77, 100
2, 311520, Note_on_c, 0, 77, 0
2, 313080, Note_on_c, 0, 89, 100
2, 313080, Note_on_c, 0, 77, 100
2, 313200, Note_on_c, 0, 77, 0
2, 313200, Note_on_c, 0, 89, 0
2, 313200, Note_on_c, 0, 89, 100
2, 313200, Note_on_c, 0, 77, 100
2, 313230, Note_on_c, 0, 77, 0
2, 313230, Note_on_c, 0, 89, 0
2, 313230, Note_on_c, 0, 93, 100
2, 313230, Note_on_c, 0, 81, 100
2, 313320, Note_on_c, 0, 81, 0
2, 313320, Note_on_c, 0, 93, 0
2, 313320, Note_on_c, 0, 89, 100
2, 313320, Note_on_c, 0, 77, 100
2, 313380, Note_on_c, 0, 77, 0
2, 313380, Note_on_c, 0, 89, 0
2, 313440, Note_on_c, 0, 89, 100
2, 313440, Note_on_c, 0, 77, 100
2, 313560, Note_on_c, 0, 77, 0
2, 313560, Note_on_c, 0, 89, 0
2, 313560, Note_on_c, 0, 89, 100
2, 313560, Note_on_c, 0, 77, 100
2, 313590, Note_on_c, 0, 77, 0
2, 313590, Note_on_c, 0, 89, 0
2, 313590, Note_on_c, 0, 81, 100
2, 313590, Note_on_c, 0, 93, 100
2, 313680, Note_on_c, 0, 93, 0
2, 313680, Note_on_c, 0, 81, 0
2, 313680, Note_on_c, 0, 89, 100
2, 313680, Note_on_c, 0, 77, 100
2, 313800, Note_on_c, 0, 77, 0
2, 313800, Note_on_c, 0, 89, 0
2, 313800, Note_on_c, 0, 89, 100
2, 313800, Note_on_c, 0, 77, 100
2, 313920, Note_on_c, 0, 77, 0
2, 313920, Note_on_c, 0, 89, 0
2, 313920, Note_on_c, 0, 89, 100
2, 313920, Note_on_c, 0, 77, 100
2, 313950, Note_on_c, 0, 77, 0
2, 313950, Note_on_c, 0, 89, 0
2, 313950, Note_on_c, 0, 81, 100
2, 313950, Note_on_c, 0, 93, 100
2, 314040, Note_on_c, 0, 93, 0
2, 314040, Note_on_c, 0, 81, 0
2, 314040, Note_on_c, 0, 89, 100
2, 314040, Note_on_c, 0, 77, 100
2, 314160, Note_on_c, 0, 77, 0
2, 314160, Note_on_c, 0, 89, 0
2, 314160, Note_on_c, 0, 89, 100
2, 314160, Note_on_c, 0, 77, 100
2, 314280, Note_on_c, 0, 77, 0
2, 314280, Note_on_c, 0, 89, 0
2, 314280, Note_on_c, 0, 89, 100
2, 314280, Note_on_c, 0, 77, 100
2, 314310, Note_on_c, 0, 77, 0
2, 314310, Note_on_c, 0, 89, 0
2, 314310, Note_on_c, 0, 81, 100
2, 314310, Note_on_c, 0, 93, 100
2, 314400, Note_on_c, 0, 93, 0
2, 314400, Note_on_c, 0, 81, 0
2, 314400, Note_on_c, 0, 89, 100
2, 314400, Note_on_c, 0, 77, 100
2, 314520, Note_on_c, 0, 77, 0
2, 314520, Note_on_c, 0, 89, 0
2, 314520, Note_on_c, 0, 89, 100
2, 314520, Note_on_c, 0, 77, 100
2, 314640, Note_on_c, 0, 77, 0
2, 314640, Note_on_c, 0, 89, 0
2, 314640, Note_on_c, 0, 81, 100
2, 314640, Note_on_c, 0, 93, 100
2, 316200, Note_on_c, 0, 93, 0
2, 316200, Note_on_c, 0, 81, 0
2, 317520, Note_on_c, 0, 82, 100
2, 317640, Note_on_c, 0, 82, 0
2, 317880, Note_on_c, 0, 83, 100
2, 318000, Note_on_c, 0, 83, 0
2, 318240, Note_on_c, 0, 84, 100
2, 318360, Note_on_c, 0, 84, 0
2, 318600, Note_on_c, 0, 88, 100
2, 318600, Note_on_c, 0, 84, 100
2, 318720, Note_on_c, 0, 84, 0
2, 318720, Note_on_c, 0, 88, 0
2, 318960, Note_on_c, 0, 84, 100
2, 318960, Note_on_c, 0, 89, 100
2, 319080, Note_on_c, 0, 89, 0
2, 319080, Note_on_c, 0, 84, 0
2, 319080, End_track
3, 0, Start_track
3, 0, MIDI_port, 0
3, 0, Title_t, "Oboes"
3, 0, Program_c, 1, 68
3, 0, Control_c, 1, 7, 75
3, 0, Control_c, 1, 10, 65
3, 600, Note_on_c, 1, 77, 100
3, 720, Note_on_c, 1, 77, 0
3, 720, Note_on_c, 1, 77, 100
3, 750, Note_on_c, 1, 77, 0
3, 750, Note_on_c, 1, 81, 100
3, 840, Note_on_c, 1, 81, 0
3, 840, Note_on_c, 1, 77, 100
3, 900, Note_on_c, 1, 77, 0
3, 960, Note_on_c, 1, 77, 100
3, 960, Note_on_c, 1, 81, 100
3, 1080, Note_on_c, 1, 81, 0
3, 1080, Note_on_c, 1, 77, 0
3, 1080, Note_on_c, 1, 81, 100
3, 1080, Note_on_c, 1, 77, 100
3, 1110, Note_on_c, 1, 77, 0
3, 1110, Note_on_c, 1, 81, 0
3, 1110, Note_on_c, 1, 84, 100
3, 1110, Note_on_c, 1, 81, 100
3, 1200, Note_on_c, 1, 81, 0
3, 1200, Note_on_c, 1, 84, 0
3, 1200, Note_on_c, 1, 81, 100
3, 1200, Note_on_c, 1, 77, 100
3, 1260, Note_on_c, 1, 77, 0
3, 1260, Note_on_c, 1, 81, 0
3, 1320, Note_on_c, 1, 84, 100
3, 1320, Note_on_c, 1, 81, 100
3, 1440, Note_on_c, 1, 81, 0
3, 1440, Note_on_c, 1, 84, 0
3, 1440, Note_on_c, 1, 77, 100
3, 1440, Note_on_c, 1, 81, 100
3, 1560, Note_on_c, 1, 81, 0
3, 1560, Note_on_c, 1, 77, 0
3, 6120, Note_on_c, 1, 80, 100
3, 6360, Note_on_c, 1, 80, 0
3, 6360, Note_on_c, 1, 81, 100
3, 6480, Note_on_c, 1, 81, 0
3, 6480, Note_on_c, 1, 86, 100
3, 6480, Note_on_c, 1, 83, 100
3, 6840, Note_on_c, 1, 83, 0
3, 6840, Note_on_c, 1, 86, 0
3, 6840, Note_on_c, 1, 81, 100
3, 6840, Note_on_c, 1, 85, 100
3, 6960, Note_on_c, 1, 85, 0
3, 6960, Note_on_c, 1, 81, 0
3, 7200, Note_on_c, 1, 86, 100
3, 7200, Note_on_c, 1, 83, 100
3, 7560, Note_on_c, 1, 83, 0
3, 7560, Note_on_c, 1, 86, 0
3, 7560, Note_on_c, 1, 81, 100
3, 7560, Note_on_c, 1, 85, 100
3, 7680, Note_on_c, 1, 85, 0
3, 7680, Note_on_c, 1, 81, 0
3, 7920, Note_on_c, 1, 86, 100
3, 7920, Note_on_c, 1, 83, 100
3, 8280, Note_on_c, 1, 83, 0
3, 8280, Note_on_c, 1, 86, 0
3, 8280, Note_on_c, 1, 85, 100
3, 8280, Note_on_c, 1, 81, 100
3, 8400, Note_on_c, 1, 81, 0
3, 8400, Note_on_c, 1, 85, 0
3, 8400, Note_on_c, 1, 76, 100
3, 8520, Note_on_c, 1, 76, 0
3, 8520, Note_on_c, 1, 85, 100
3, 8640, Note_on_c, 1, 85, 0
3, 8640, Note_on_c, 1, 81, 100
3, 8760, Note_on_c, 1, 81, 0
3, 8760, Note_on_c, 1, 76, 100
3, 8880, Note_on_c, 1, 76, 0
3, 8880, Note_on_c, 1, 73, 100
3, 9000, Note_on_c, 1, 73, 0
3, 9000, Note_on_c, 1, 69, 100
3, 9120, Note_on_c, 1, 69, 0
3, 9240, Note_on_c, 1, 77, 100
3, 9360, Note_on_c, 1, 77, 0
3, 9360, Note_on_c, 1, 77, 100
3, 9390, Note_on_c, 1, 77, 0
3, 9390, Note_on_c, 1, 81, 100
3, 9480, Note_on_c, 1, 81, 0
3, 9480, Note_on_c, 1, 77, 100
3, 9540, Note_on_c, 1, 77, 0
3, 9600, Note_on_c, 1, 77, 100
3, 9600, Note_on_c, 1, 81, 100
3, 9720, Note_on_c, 1, 81, 0
3, 9720, Note_on_c, 1, 77, 0
3, 9720, Note_on_c, 1, 81, 100
3, 9720, Note_on_c, 1, 77, 100
3, 9750, Note_on_c, 1, 77, 0
3, 9750, Note_on_c, 1, 81, 0
3, 9750, Note_on_c, 1, 84, 100
3, 9750, Note_on_c, 1, 81, 100
3, 9840, Note_on_c, 1, 81, 0
3, 9840, Note_on_c, 1, 84, 0
3, 9840, Note_on_c, 1, 81, 100
3, 9840, Note_on_c, 1, 77, 100
3, 9900, Note_on_c, 1, 77, 0
3, 9900, Note_on_c, 1, 81, 0
3, 9960, Note_on_c, 1, 84, 100
3, 9960, Note_on_c, 1, 81, 100
3, 10080, Note_on_c, 1, 81, 0
3, 10080, Note_on_c, 1, 84, 0
3, 10080, Note_on_c, 1, 77, 100
3, 10080, Note_on_c, 1, 81, 100
3, 10200, Note_on_c, 1, 81, 0
3, 10200, Note_on_c, 1, 77, 0
3, 14760, Note_on_c, 1, 80, 100
3, 15000, Note_on_c, 1, 80, 0
3, 15000, Note_on_c, 1, 81, 100
3, 15120, Note_on_c, 1, 81, 0
3, 15120, Note_on_c, 1, 86, 100
3, 15120, Note_on_c, 1, 83, 100
3, 15480, Note_on_c, 1, 83, 0
3, 15480, Note_on_c, 1, 86, 0
3, 15480, Note_on_c, 1, 81, 100
3, 15480, Note_on_c, 1, 85, 100
3, 15600, Note_on_c, 1, 85, 0
3, 15600, Note_on_c, 1, 81, 0
3, 15840, Note_on_c, 1, 86, 100
3, 15840, Note_on_c, 1, 83, 100
3, 16200, Note_on_c, 1, 83, 0
3, 16200, Note_on_c, 1, 86, 0
3, 16200, Note_on_c, 1, 81, 100
3, 16200, Note_on_c, 1, 85, 100
3, 16320, Note_on_c, 1, 85, 0
3, 16320, Note_on_c, 1, 81, 0
3, 16560, Note_on_c, 1, 86, 100
3, 16560, Note_on_c, 1, 83, 100
3, 16920, Note_on_c, 1, 83, 0
3, 16920, Note_on_c, 1, 86, 0
3, 16920, Note_on_c, 1, 85, 100
3, 16920, Note_on_c, 1, 81, 100
3, 17040, Note_on_c, 1, 81, 0
3, 17040, Note_on_c, 1, 85, 0
3, 17040, Note_on_c, 1, 76, 100
3, 17160, Note_on_c, 1, 76, 0
3, 17160, Note_on_c, 1, 85, 100
3, 17280, Note_on_c, 1, 85, 0
3, 17280, Note_on_c, 1, 81, 100
3, 17400, Note_on_c, 1, 81, 0
3, 17400, Note_on_c, 1, 76, 100
3, 17520, Note_on_c, 1, 76, 0
3, 17520, Note_on_c, 1, 73, 100
3, 17640, Note_on_c, 1, 73, 0
3, 17640, Note_on_c, 1, 69, 100
3, 17760, Note_on_c, 1, 69, 0
3, 24720, Note_on_c, 1, 74, 100
3, 24720, Note_on_c, 1, 83, 100
3, 24840, Note_on_c, 1, 83, 0
3, 24840, Note_on_c, 1, 74, 0
3, 24840, Note_on_c, 1, 74, 100
3, 24840, Note_on_c, 1, 83, 100
3, 24960, Note_on_c, 1, 83, 0
3, 24960, Note_on_c, 1, 74, 0
3, 25080, Note_on_c, 1, 79, 100
3, 25080, Note_on_c, 1, 76, 100
3, 25200, Note_on_c, 1, 76, 0
3, 25200, Note_on_c, 1, 79, 0
3, 25200, Note_on_c, 1, 77, 100
3, 25200, Note_on_c, 1, 81, 100
3, 25320, Note_on_c, 1, 81, 0
3, 25320, Note_on_c, 1, 77, 0
3, 25320, Note_on_c, 1, 77, 100
3, 25320, Note_on_c, 1, 81, 100
3, 25440, Note_on_c, 1, 81, 0
3, 25440, Note_on_c, 1, 77, 0
3, 25440, Note_on_c, 1, 76, 100
3, 25440, Note_on_c, 1, 79, 100
3, 25560, Note_on_c, 1, 79, 0
3, 25560, Note_on_c, 1, 76, 0
3, 25560, Note_on_c, 1, 74, 100
3, 25560, Note_on_c, 1, 83, 100
3, 25800, Note_on_c, 1, 83, 0
3, 25800, Note_on_c, 1, 74, 0
3, 25800, Note_on_c, 1, 72, 100
3, 25800, Note_on_c, 1, 84, 100
3, 25920, Note_on_c, 1, 84, 0
3, 25920, Note_on_c, 1, 72, 0
3, 25920, Note_on_c, 1, 81, 100
3, 25920, Note_on_c, 1, 77, 100
3, 26040, Note_on_c, 1, 77, 0
3, 26040, Note_on_c, 1, 81, 0
3, 26040, Note_on_c, 1, 81, 100
3, 26040, Note_on_c, 1, 77, 100
3, 26160, Note_on_c, 1, 77, 0
3, 26160, Note_on_c, 1, 81, 0
3, 26160, Note_on_c, 1, 79, 100
3, 26160, Note_on_c, 1, 76, 100
3, 26280, Note_on_c, 1, 76, 0
3, 26280, Note_on_c, 1, 79, 0
3, 26280, Note_on_c, 1, 74, 100
3, 26280, Note_on_c, 1, 83, 100
3, 26520, Note_on_c, 1, 83, 0
3, 26520, Note_on_c, 1, 74, 0
3, 26520, Note_on_c, 1, 84, 100
3, 26520, Note_on_c, 1, 72, 100
3, 26640, Note_on_c, 1, 72, 0
3, 26640, Note_on_c, 1, 84, 0
3, 26640, Note_on_c, 1, 74, 100
3, 26640, Note_on_c, 1, 83, 100
3, 26880, Note_on_c, 1, 83, 0
3, 26880, Note_on_c, 1, 74, 0
3, 26880, Note_on_c, 1, 84, 100
3, 26880, Note_on_c, 1, 72, 100
3, 27000, Note_on_c, 1, 72, 0
3, 27000, Note_on_c, 1, 84, 0
3, 27000, Note_on_c, 1, 74, 100
3, 27000, Note_on_c, 1, 83, 100
3, 27240, Note_on_c, 1, 83, 0
3, 27240, Note_on_c, 1, 74, 0
3, 27240, Note_on_c, 1, 84, 100
3, 27240, Note_on_c, 1, 72, 100
3, 27360, Note_on_c, 1, 72, 0
3, 27360, Note_on_c, 1, 84, 0
3, 27360, Note_on_c, 1, 74, 100
3, 27360, Note_on_c, 1, 83, 100
3, 27600, Note_on_c, 1, 83, 0
3, 27600, Note_on_c, 1, 74, 0
3, 27600, Note_on_c, 1, 84, 100
3, 27600, Note_on_c, 1, 72, 100
3, 27720, Note_on_c, 1, 72, 0
3, 27720, Note_on_c, 1, 84, 0
3, 27720, Note_on_c, 1, 74, 100
3, 27720, Note_on_c, 1, 83, 100
3, 27960, Note_on_c, 1, 83, 0
3, 27960, Note_on_c, 1, 74, 0
3, 27960, Note_on_c, 1, 84, 100
3, 27960, Note_on_c, 1, 72, 100
3, 28080, Note_on_c, 1, 72, 0
3, 28080, Note_on_c, 1, 84, 0
3, 31920, Note_on_c, 1, 70, 100
3, 32040, Note_on_c, 1, 70, 0
3, 32040, Note_on_c, 1, 74, 100
3, 32160, Note_on_c, 1, 74, 0
3, 32160, Note_on_c, 1, 70, 100
3, 32220, Note_on_c, 1, 70, 0
3, 32280, Note_on_c, 1, 74, 100
3, 32400, Note_on_c, 1, 74, 0
3, 32400, Note_on_c, 1, 77, 100
3, 32520, Note_on_c, 1, 77, 0
3, 32520, Note_on_c, 1, 74, 100
3, 32580, Note_on_c, 1, 74, 0
3, 32640, Note_on_c, 1, 77, 100
3, 32760, Note_on_c, 1, 77, 0
3, 32760, Note_on_c, 1, 82, 100
3, 32880, Note_on_c, 1, 82, 0
3, 32880, Note_on_c, 1, 82, 100
3, 33000, Note_on_c, 1, 82, 0
3, 33000, Note_on_c, 1, 81, 100
3, 33120, Note_on_c, 1, 81, 0
3, 33120, Note_on_c, 1, 79, 100
3, 33240, Note_on_c, 1, 79, 0
3, 33240, Note_on_c, 1, 79, 100
3, 33360, Note_on_c, 1, 79, 0
3, 33360, Note_on_c, 1, 77, 100
3, 33480, Note_on_c, 1, 77, 0
3, 33480, Note_on_c, 1, 75, 100
3, 33600, Note_on_c, 1, 75, 0
3, 33600, Note_on_c, 1, 75, 100
3, 33720, Note_on_c, 1, 75, 0
3, 33720, Note_on_c, 1, 74, 100
3, 33840, Note_on_c, 1, 74, 0
3, 33840, Note_on_c, 1, 72, 100
3, 33960, Note_on_c, 1, 72, 0
3, 34200, Note_on_c, 1, 84, 100
3, 34320, Note_on_c, 1, 84, 0
3, 34320, Note_on_c, 1, 84, 100
3, 34440, Note_on_c, 1, 84, 0
3, 34440, Note_on_c, 1, 82, 100
3, 34560, Note_on_c, 1, 82, 0
3, 34560, Note_on_c, 1, 81, 100
3, 34680, Note_on_c, 1, 81, 0
3, 34680, Note_on_c, 1, 81, 100
3, 34800, Note_on_c, 1, 81, 0
3, 34800, Note_on_c, 1, 79, 100
3, 34920, Note_on_c, 1, 79, 0
3, 34920, Note_on_c, 1, 77, 100
3, 35040, Note_on_c, 1, 77, 0
3, 35040, Note_on_c, 1, 77, 100
3, 35160, Note_on_c, 1, 77, 0
3, 35160, Note_on_c, 1, 75, 100
3, 35280, Note_on_c, 1, 75, 0
3, 35280, Note_on_c, 1, 74, 100
3, 35400, Note_on_c, 1, 74, 0
3, 35640, Note_on_c, 1, 86, 100
3, 35760, Note_on_c, 1, 86, 0
3, 35760, Note_on_c, 1, 86, 100
3, 35880, Note_on_c, 1, 86, 0
3, 35880, Note_on_c, 1, 84, 100
3, 36000, Note_on_c, 1, 84, 0
3, 36000, Note_on_c, 1, 82, 100
3, 36120, Note_on_c, 1, 82, 0
3, 36120, Note_on_c, 1, 82, 100
3, 36240, Note_on_c, 1, 82, 0
3, 36240, Note_on_c, 1, 81, 100
3, 36360, Note_on_c, 1, 81, 0
3, 36360, Note_on_c, 1, 79, 100
3, 36480, Note_on_c, 1, 79, 0
3, 36480, Note_on_c, 1, 79, 100
3, 36600, Note_on_c, 1, 79, 0
3, 36600, Note_on_c, 1, 77, 100
3, 36720, Note_on_c, 1, 77, 0
3, 36720, Note_on_c, 1, 75, 100
3, 36840, Note_on_c, 1, 75, 0
3, 37080, Note_on_c, 1, 81, 100
3, 37200, Note_on_c, 1, 81, 0
3, 37200, Note_on_c, 1, 81, 100
3, 37320, Note_on_c, 1, 81, 0
3, 37320, Note_on_c, 1, 79, 100
3, 37440, Note_on_c, 1, 79, 0
3, 37440, Note_on_c, 1, 77, 100
3, 37560, Note_on_c, 1, 77, 0
3, 37560, Note_on_c, 1, 77, 100
3, 37680, Note_on_c, 1, 77, 0
3, 37680, Note_on_c, 1, 75, 100
3, 37800, Note_on_c, 1, 75, 0
3, 37800, Note_on_c, 1, 74, 100
3, 37920, Note_on_c, 1, 74, 0
3, 37920, Note_on_c, 1, 74, 100
3, 38040, Note_on_c, 1, 74, 0
3, 38040, Note_on_c, 1, 72, 100
3, 38160, Note_on_c, 1, 72, 0
3, 38160, Note_on_c, 1, 70, 100
3, 38280, Note_on_c, 1, 70, 0
3, 38520, Note_on_c, 1, 77, 100
3, 39720, Note_on_c, 1, 77, 0
3, 39720, Note_on_c, 1, 76, 100
3, 39720, Note_on_c, 1, 79, 100
3, 39840, Note_on_c, 1, 79, 0
3, 39840, Note_on_c, 1, 76, 0
3, 39840, Note_on_c, 1, 76, 100
3, 39840, Note_on_c, 1, 79, 100
3, 39960, Note_on_c, 1, 79, 0
3, 39960, Note_on_c, 1, 76, 0
3, 39960, Note_on_c, 1, 76, 100
3, 39960, Note_on_c, 1, 79, 100
3, 40920, Note_on_c, 1, 79, 0
3, 40920, Note_on_c, 1, 76, 0
3, 40920, Note_on_c, 1, 77, 100
3, 40920, Note_on_c, 1, 81, 100
3, 41040, Note_on_c, 1, 81, 0
3, 41040, Note_on_c, 1, 77, 0
3, 41040, Note_on_c, 1, 77, 100
3, 41070, Note_on_c, 1, 77, 0
3, 41070, Note_on_c, 1, 81, 100
3, 41160, Note_on_c, 1, 81, 0
3, 41160, Note_on_c, 1, 77, 100
3, 41220, Note_on_c, 1, 77, 0
3, 41280, Note_on_c, 1, 81, 100
3, 41280, Note_on_c, 1, 77, 100
3, 41400, Note_on_c, 1, 77, 0
3, 41400, Note_on_c, 1, 81, 0
3, 41400, Note_on_c, 1, 81, 100
3, 41400, Note_on_c, 1, 77, 100
3, 41430, Note_on_c, 1, 77, 0
3, 41430, Note_on_c, 1, 81, 0
3, 41430, Note_on_c, 1, 84, 100
3, 41430, Note_on_c, 1, 81, 100
3, 41520, Note_on_c, 1, 81, 0
3, 41520, Note_on_c, 1, 84, 0
3, 41520, Note_on_c, 1, 77, 100
3, 41520, Note_on_c, 1, 81, 100
3, 41580, Note_on_c, 1, 81, 0
3, 41580, Note_on_c, 1, 77, 0
3, 41640, Note_on_c, 1, 84, 100
3, 41640, Note_on_c, 1, 81, 100
3, 41760, Note_on_c, 1, 81, 0
3, 41760, Note_on_c, 1, 84, 0
3, 41760, Note_on_c, 1, 65, 100
3, 41760, Note_on_c, 1, 77, 100
3, 42960, Note_on_c, 1, 77, 0
3, 42960, Note_on_c, 1, 65, 0
3, 42960, Note_on_c, 1, 67, 100
3, 42960, Note_on_c, 1, 79, 100
3, 43080, Note_on_c, 1, 79, 0
3, 43080, Note_on_c, 1, 67, 0
3, 43080, Note_on_c, 1, 79, 100
3, 43080, Note_on_c, 1, 67, 100
3, 43200, Note_on_c, 1, 67, 0
3, 43200, Note_on_c, 1, 79, 0
3, 43200, Note_on_c, 1, 79, 100
3, 43200, Note_on_c, 1, 67, 100
3, 44400, Note_on_c, 1, 67, 0
3, 44400, Note_on_c, 1, 79, 0
3, 44400, Note_on_c, 1, 81, 100
3, 44400, Note_on_c, 1, 69, 100
3, 44520, Note_on_c, 1, 69, 0
3, 44520, Note_on_c, 1, 81, 0
3, 44520, Note_on_c, 1, 81, 100
3, 44520, Note_on_c, 1, 69, 100
3, 44640, Note_on_c, 1, 69, 0
3, 44640, Note_on_c, 1, 81, 0
3, 44760, Note_on_c, 1, 69, 100
3, 44880, Note_on_c, 1, 69, 0
3, 44880, Note_on_c, 1, 70, 100
3, 45000, Note_on_c, 1, 70, 0
3, 45000, Note_on_c, 1, 72, 100
3, 45120, Note_on_c, 1, 72, 0
3, 45120, Note_on_c, 1, 72, 100
3, 45240, Note_on_c, 1, 72, 0
3, 45240, Note_on_c, 1, 74, 100
3, 45360, Note_on_c, 1, 74, 0
3, 45360, Note_on_c, 1, 76, 100
3, 45480, Note_on_c, 1, 76, 0
3, 45480, Note_on_c, 1, 76, 100
3, 45600, Note_on_c, 1, 76, 0
3, 45600, Note_on_c, 1, 77, 100
3, 45720, Note_on_c, 1, 77, 0
3, 45720, Note_on_c, 1, 79, 100
3, 45840, Note_on_c, 1, 79, 0
3, 46200, Note_on_c, 1, 70, 100
3, 46320, Note_on_c, 1, 70, 0
3, 46320, Note_on_c, 1, 72, 100
3, 46440, Note_on_c, 1, 72, 0
3, 46440, Note_on_c, 1, 74, 100
3, 46560, Note_on_c, 1, 74, 0
3, 46560, Note_on_c, 1, 74, 100
3, 46680, Note_on_c, 1, 74, 0
3, 46680, Note_on_c, 1, 76, 100
3, 46800, Note_on_c, 1, 76, 0
3, 46800, Note_on_c, 1, 77, 100
3, 46920, Note_on_c, 1, 77, 0
3, 46920, Note_on_c, 1, 77, 100
3, 47040, Note_on_c, 1, 77, 0
3, 47040, Note_on_c, 1, 79, 100
3, 47160, Note_on_c, 1, 79, 0
3, 47160, Note_on_c, 1, 81, 100
3, 47280, Note_on_c, 1, 81, 0
3, 48240, Note_on_c, 1, 72, 100
3, 48240, Note_on_c, 1, 79, 100
3, 48360, Note_on_c, 1, 79, 0
3, 48360, Note_on_c, 1, 72, 0
3, 48360, Note_on_c, 1, 72, 100
3, 48360, Note_on_c, 1, 79, 100
3, 48480, Note_on_c, 1, 79, 0
3, 48480, Note_on_c, 1, 72, 0
3, 48480, Note_on_c, 1, 72, 100
3, 48480, Note_on_c, 1, 77, 100
3, 48600, Note_on_c, 1, 77, 0
3, 48600, Note_on_c, 1, 72, 0
3, 48600, Note_on_c, 1, 76, 100
3, 48600, Note_on_c, 1, 82, 100
3, 48840, Note_on_c, 1, 82, 0
3, 48840, Note_on_c, 1, 76, 0
3, 48840, Note_on_c, 1, 77, 100
3, 48840, Note_on_c, 1, 81, 100
3, 48960, Note_on_c, 1, 81, 0
3, 48960, Note_on_c, 1, 77, 0
3, 51480, Note_on_c, 1, 72, 100
3, 51480, Note_on_c, 1, 76, 100
3, 51600, Note_on_c, 1, 76, 0
3, 51600, Note_on_c, 1, 72, 0
3, 51600, Note_on_c, 1, 72, 100
3, 51600, Note_on_c, 1, 76, 100
3, 51720, Note_on_c, 1, 76, 0
3, 51720, Note_on_c, 1, 72, 0
3, 51720, Note_on_c, 1, 72, 100
3, 51720, Note_on_c, 1, 76, 100
3, 51840, Note_on_c, 1, 76, 0
3, 51840, Note_on_c, 1, 72, 0
3, 52200, Note_on_c, 1, 72, 100
3, 52200, Note_on_c, 1, 76, 100
3, 52320, Note_on_c, 1, 76, 0
3, 52320, Note_on_c, 1, 72, 0
3, 52320, Note_on_c, 1, 72, 100
3, 52320, Note_on_c, 1, 76, 100
3, 52440, Note_on_c, 1, 76, 0
3, 52440, Note_on_c, 1, 72, 0
3, 52440, Note_on_c, 1, 72, 100
3, 52440, Note_on_c, 1, 76, 100
3, 52560, Note_on_c, 1, 76, 0
3, 52560, Note_on_c, 1, 72, 0
3, 52920, Note_on_c, 1, 72, 100
3, 52920, Note_on_c, 1, 76, 100
3, 53040, Note_on_c, 1, 76, 0
3, 53040, Note_on_c, 1, 72, 0
3, 53040, Note_on_c, 1, 72, 100
3, 53040, Note_on_c, 1, 76, 100
3, 53160, Note_on_c, 1, 76, 0
3, 53160, Note_on_c, 1, 72, 0
3, 53160, Note_on_c, 1, 72, 100
3, 53160, Note_on_c, 1, 76, 100
3, 53280, Note_on_c, 1, 76, 0
3, 53280, Note_on_c, 1, 72, 0
3, 53640, Note_on_c, 1, 72, 100
3, 53640, Note_on_c, 1, 76, 100
3, 53760, Note_on_c, 1, 76, 0
3, 53760, Note_on_c, 1, 72, 0
3, 53760, Note_on_c, 1, 72, 100
3, 53760, Note_on_c, 1, 76, 100
3, 53880, Note_on_c, 1, 76, 0
3, 53880, Note_on_c, 1, 72, 0
3, 53880, Note_on_c, 1, 72, 100
3, 53880, Note_on_c, 1, 76, 100
3, 54000, Note_on_c, 1, 76, 0
3, 54000, Note_on_c, 1, 72, 0
3, 54000, Note_on_c, 1, 76, 100
3, 54030, Note_on_c, 1, 76, 0
3, 54030, Note_on_c, 1, 77, 100
3, 54060, Note_on_c, 1, 77, 0
3, 54060, Note_on_c, 1, 76, 100
3, 54090, Note_on_c, 1, 76, 0
3, 54090, Note_on_c, 1, 77, 100
3, 54120, Note_on_c, 1, 77, 0
3, 54120, Note_on_c, 1, 76, 100
3, 54150, Note_on_c, 1, 76, 0
3, 54150, Note_on_c, 1, 77, 100
3, 54180, Note_on_c, 1, 77, 0
3, 54180, Note_on_c, 1, 76, 100
3, 54210, Note_on_c, 1, 76, 0
3, 54210, Note_on_c, 1, 77, 100
3, 54240, Note_on_c, 1, 77, 0
3, 54240, Note_on_c, 1, 76, 100
3, 54270, Note_on_c, 1, 76, 0
3, 54270, Note_on_c, 1, 77, 100
3, 54300, Note_on_c, 1, 77, 0
3, 54300, Note_on_c, 1, 74, 100
3, 54330, Note_on_c, 1, 74, 0
3, 54330, Note_on_c, 1, 76, 100
3, 54360, Note_on_c, 1, 76, 0
3, 54360, Note_on_c, 1, 69, 100
3, 54360, Note_on_c, 1, 77, 100
3, 54480, Note_on_c, 1, 77, 0
3, 54480, Note_on_c, 1, 69, 0
3, 54480, Note_on_c, 1, 72, 100
3, 54480, Note_on_c, 1, 69, 100
3, 54600, Note_on_c, 1, 69, 0
3, 54600, Note_on_c, 1, 72, 0
3, 54600, Note_on_c, 1, 65, 100
3, 54600, Note_on_c, 1, 69, 100
3, 54720, Note_on_c, 1, 69, 0
3, 54720, Note_on_c, 1, 65, 0
3, 54720, Note_on_c, 1, 70, 100
3, 54750, Note_on_c, 1, 70, 0
3, 54750, Note_on_c, 1, 72, 100
3, 54780, Note_on_c, 1, 72, 0
3, 54780, Note_on_c, 1, 70, 100
3, 54810, Note_on_c, 1, 70, 0
3, 54810, Note_on_c, 1, 72, 100
3, 54840, Note_on_c, 1, 72, 0
3, 54840, Note_on_c, 1, 70, 100
3, 54870, Note_on_c, 1, 70, 0
3, 54870, Note_on_c, 1, 72, 100
3, 54900, Note_on_c, 1, 72, 0
3, 54900, Note_on_c, 1, 70, 100
3, 54930, Note_on_c, 1, 70, 0
3, 54930, Note_on_c, 1, 72, 100
3, 54960, Note_on_c, 1, 72, 0
3, 54960, Note_on_c, 1, 70, 100
3, 54990, Note_on_c, 1, 70, 0
3, 54990, Note_on_c, 1, 72, 100
3, 55020, Note_on_c, 1, 72, 0
3, 55020, Note_on_c, 1, 69, 100
3, 55050, Note_on_c, 1, 69, 0
3, 55050, Note_on_c, 1, 70, 100
3, 55080, Note_on_c, 1, 70, 0
3, 55080, Note_on_c, 1, 65, 100
3, 55080, Note_on_c, 1, 69, 100
3, 55200, Note_on_c, 1, 69, 0
3, 55200, Note_on_c, 1, 65, 0
3, 55200, Note_on_c, 1, 72, 100
3, 55200, Note_on_c, 1, 69, 100
3, 55320, Note_on_c, 1, 69, 0
3, 55320, Note_on_c, 1, 72, 0
3, 55320, Note_on_c, 1, 77, 100
3, 55320, Note_on_c, 1, 69, 100
3, 55440, Note_on_c, 1, 69, 0
3, 55440, Note_on_c, 1, 77, 0
3, 55440, Note_on_c, 1, 76, 100
3, 55470, Note_on_c, 1, 76, 0
3, 55470, Note_on_c, 1, 77, 100
3, 55500, Note_on_c, 1, 77, 0
3, 55500, Note_on_c, 1, 76, 100
3, 55530, Note_on_c, 1, 76, 0
3, 55530, Note_on_c, 1, 77, 100
3, 55560, Note_on_c, 1, 77, 0
3, 55560, Note_on_c, 1, 76, 100
3, 55590, Note_on_c, 1, 76, 0
3, 55590, Note_on_c, 1, 77, 100
3, 55620, Note_on_c, 1, 77, 0
3, 55620, Note_on_c, 1, 76, 100
3, 55650, Note_on_c, 1, 76, 0
3, 55650, Note_on_c, 1, 77, 100
3, 55680, Note_on_c, 1, 77, 0
3, 55680, Note_on_c, 1, 76, 100
3, 55710, Note_on_c, 1, 76, 0
3, 55710, Note_on_c, 1, 77, 100
3, 55740, Note_on_c, 1, 77, 0
3, 55740, Note_on_c, 1, 74, 100
3, 55770, Note_on_c, 1, 74, 0
3, 55770, Note_on_c, 1, 76, 100
3, 55800, Note_on_c, 1, 76, 0
3, 55800, Note_on_c, 1, 69, 100
3, 55800, Note_on_c, 1, 77, 100
3, 55920, Note_on_c, 1, 77, 0
3, 55920, Note_on_c, 1, 69, 0
3, 55920, Note_on_c, 1, 72, 100
3, 55920, Note_on_c, 1, 69, 100
3, 56040, Note_on_c, 1, 69, 0
3, 56040, Note_on_c, 1, 72, 0
3, 56040, Note_on_c, 1, 65, 100
3, 56040, Note_on_c, 1, 69, 100
3, 56160, Note_on_c, 1, 69, 0
3, 56160, Note_on_c, 1, 65, 0
3, 56160, Note_on_c, 1, 76, 100
3, 56190, Note_on_c, 1, 76, 0
3, 56190, Note_on_c, 1, 77, 100
3, 56220, Note_on_c, 1, 77, 0
3, 56220, Note_on_c, 1, 76, 100
3, 56250, Note_on_c, 1, 76, 0
3, 56250, Note_on_c, 1, 77, 100
3, 56280, Note_on_c, 1, 77, 0
3, 56280, Note_on_c, 1, 76, 100
3, 56310, Note_on_c, 1, 76, 0
3, 56310, Note_on_c, 1, 77, 100
3, 56340, Note_on_c, 1, 77, 0
3, 56340, Note_on_c, 1, 76, 100
3, 56370, Note_on_c, 1, 76, 0
3, 56370, Note_on_c, 1, 77, 100
3, 56400, Note_on_c, 1, 77, 0
3, 56400, Note_on_c, 1, 76, 100
3, 56430, Note_on_c, 1, 76, 0
3, 56430, Note_on_c, 1, 77, 100
3, 56460, Note_on_c, 1, 77, 0
3, 56460, Note_on_c, 1, 74, 100
3, 56490, Note_on_c, 1, 74, 0
3, 56490, Note_on_c, 1, 76, 100
3, 56520, Note_on_c, 1, 76, 0
3, 56520, Note_on_c, 1, 69, 100
3, 56520, Note_on_c, 1, 77, 100
3, 56640, Note_on_c, 1, 77, 0
3, 56640, Note_on_c, 1, 69, 0
3, 56640, Note_on_c, 1, 72, 100
3, 56640, Note_on_c, 1, 69, 100
3, 56760, Note_on_c, 1, 69, 0
3, 56760, Note_on_c, 1, 72, 0
3, 56760, Note_on_c, 1, 65, 100
3, 56760, Note_on_c, 1, 69, 100
3, 56880, Note_on_c, 1, 69, 0
3, 56880, Note_on_c, 1, 65, 0
3, 56880, Note_on_c, 1, 76, 100
3, 56910, Note_on_c, 1, 76, 0
3, 56910, Note_on_c, 1, 77, 100
3, 56940, Note_on_c, 1, 77, 0
3, 56940, Note_on_c, 1, 76, 100
3, 56970, Note_on_c, 1, 76, 0
3, 56970, Note_on_c, 1, 77, 100
3, 57000, Note_on_c, 1, 77, 0
3, 57000, Note_on_c, 1, 76, 100
3, 57030, Note_on_c, 1, 76, 0
3, 57030, Note_on_c, 1, 77, 100
3, 57060, Note_on_c, 1, 77, 0
3, 57060, Note_on_c, 1, 76, 100
3, 57090, Note_on_c, 1, 76, 0
3, 57090, Note_on_c, 1, 77, 100
3, 57120, Note_on_c, 1, 77, 0
3, 57120, Note_on_c, 1, 76, 100
3, 57150, Note_on_c, 1, 76, 0
3, 57150, Note_on_c, 1, 77, 100
3, 57180, Note_on_c, 1, 77, 0
3, 57180, Note_on_c, 1, 74, 100
3, 57210, Note_on_c, 1, 74, 0
3, 57210, Note_on_c, 1, 76, 100
3, 57240, Note_on_c, 1, 76, 0
3, 57240, Note_on_c, 1, 69, 100
3, 57240, Note_on_c, 1, 77, 100
3, 57360, Note_on_c, 1, 77, 0
3, 57360, Note_on_c, 1, 69, 0
3, 57360, Note_on_c, 1, 72, 100
3, 57360, Note_on_c, 1, 84, 100
3, 57480, Note_on_c, 1, 84, 0
3, 57480, Note_on_c, 1, 72, 0
3, 57480, Note_on_c, 1, 69, 100
3, 57480, Note_on_c, 1, 81, 100
3, 57600, Note_on_c, 1, 81, 0
3, 57600, Note_on_c, 1, 69, 0
3, 57600, Note_on_c, 1, 77, 100
3, 57720, Note_on_c, 1, 77, 0
3, 57720, Note_on_c, 1, 72, 100
3, 57840, Note_on_c, 1, 72, 0
3, 57840, Note_on_c, 1, 69, 100
3, 57960, Note_on_c, 1, 69, 0
3, 57960, Note_on_c, 1, 69, 100
3, 57960, Note_on_c, 1, 77, 100
3, 58080, Note_on_c, 1, 77, 0
3, 58080, Note_on_c, 1, 69, 0
3, 59640, Note_on_c, 1, 65, 100
3, 59640, Note_on_c, 1, 77, 100
3, 59760, Note_on_c, 1, 77, 0
3, 59760, Note_on_c, 1, 65, 0
3, 59760, Note_on_c, 1, 77, 100
3, 59760, Note_on_c, 1, 65, 100
3, 59790, Note_on_c, 1, 65, 0
3, 59790, Note_on_c, 1, 77, 0
3, 59790, Note_on_c, 1, 69, 100
3, 59790, Note_on_c, 1, 81, 100
3, 59880, Note_on_c, 1, 81, 0
3, 59880, Note_on_c, 1, 69, 0
3, 59880, Note_on_c, 1, 65, 100
3, 59880, Note_on_c, 1, 77, 100
3, 59940, Note_on_c, 1, 77, 0
3, 59940, Note_on_c, 1, 65, 0
3, 60000, Note_on_c, 1, 65, 100
3, 60000, Note_on_c, 1, 77, 100
3, 60120, Note_on_c, 1, 77, 0
3, 60120, Note_on_c, 1, 65, 0
3, 60120, Note_on_c, 1, 65, 100
3, 60120, Note_on_c, 1, 77, 100
3, 60150, Note_on_c, 1, 77, 0
3, 60150, Note_on_c, 1, 65, 0
3, 60150, Note_on_c, 1, 69, 100
3, 60150, Note_on_c, 1, 81, 100
3, 60240, Note_on_c, 1, 81, 0
3, 60240, Note_on_c, 1, 69, 0
3, 60240, Note_on_c, 1, 65, 100
3, 60240, Note_on_c, 1, 77, 100
3, 60360, Note_on_c, 1, 77, 0
3, 60360, Note_on_c, 1, 65, 0
3, 60360, Note_on_c, 1, 65, 100
3, 60360, Note_on_c, 1, 77, 100
3, 60480, Note_on_c, 1, 77, 0
3, 60480, Note_on_c, 1, 65, 0
3, 60480, Note_on_c, 1, 65, 100
3, 60480, Note_on_c, 1, 77, 100
3, 60510, Note_on_c, 1, 77, 0
3, 60510, Note_on_c, 1, 65, 0
3, 60510, Note_on_c, 1, 69, 100
3, 60510, Note_on_c, 1, 81, 100
3, 60600, Note_on_c, 1, 81, 0
3, 60600, Note_on_c, 1, 69, 0
3, 60600, Note_on_c, 1, 65, 100
3, 60600, Note_on_c, 1, 77, 100
3, 60720, Note_on_c, 1, 77, 0
3, 60720, Note_on_c, 1, 65, 0
3, 60720, Note_on_c, 1, 65, 100
3, 60720, Note_on_c, 1, 77, 100
3, 60840, Note_on_c, 1, 77, 0
3, 60840, Note_on_c, 1, 65, 0
3, 60840, Note_on_c, 1, 65, 100
3, 60840, Note_on_c, 1, 77, 100
3, 60870, Note_on_c, 1, 77, 0
3, 60870, Note_on_c, 1, 65, 0
3, 60870, Note_on_c, 1, 69, 100
3, 60870, Note_on_c, 1, 81, 100
3, 60960, Note_on_c, 1, 81, 0
3, 60960, Note_on_c, 1, 69, 0
3, 60960, Note_on_c, 1, 65, 100
3, 60960, Note_on_c, 1, 77, 100
3, 61080, Note_on_c, 1, 77, 0
3, 61080, Note_on_c, 1, 65, 0
3, 61080, Note_on_c, 1, 65, 100
3, 61080, Note_on_c, 1, 77, 100
3, 61200, Note_on_c, 1, 77, 0
3, 61200, Note_on_c, 1, 65, 0
3, 61200, Note_on_c, 1, 69, 100
3, 61200, Note_on_c, 1, 81, 100
3, 62520, Note_on_c, 1, 81, 0
3, 62520, Note_on_c, 1, 69, 0
3, 69360, Note_on_c, 1, 74, 100
3, 69360, Note_on_c, 1, 83, 100
3, 69480, Note_on_c, 1, 83, 0
3, 69480, Note_on_c, 1, 74, 0
3, 69480, Note_on_c, 1, 74, 100
3, 69480, Note_on_c, 1, 83, 100
3, 69600, Note_on_c, 1, 83, 0
3, 69600, Note_on_c, 1, 74, 0
3, 69720, Note_on_c, 1, 79, 100
3, 69720, Note_on_c, 1, 76, 100
3, 69840, Note_on_c, 1, 76, 0
3, 69840, Note_on_c, 1, 79, 0
3, 69840, Note_on_c, 1, 77, 100
3, 69840, Note_on_c, 1, 81, 100
3, 69960, Note_on_c, 1, 81, 0
3, 69960, Note_on_c, 1, 77, 0
3, 69960, Note_on_c, 1, 77, 100
3, 69960, Note_on_c, 1, 81, 100
3, 70080, Note_on_c, 1, 81, 0
3, 70080, Note_on_c, 1, 77, 0
3, 70080, Note_on_c, 1, 76, 100
3, 70080, Note_on_c, 1, 79, 100
3, 70200, Note_on_c, 1, 79, 0
3, 70200, Note_on_c, 1, 76, 0
3, 70200, Note_on_c, 1, 74, 100
3, 70200, Note_on_c, 1, 83, 100
3, 70440, Note_on_c, 1, 83, 0
3, 70440, Note_on_c, 1, 74, 0
3, 70440, Note_on_c, 1, 72, 100
3, 70440, Note_on_c, 1, 84, 100
3, 70560, Note_on_c, 1, 84, 0
3, 70560, Note_on_c, 1, 72, 0
3, 70560, Note_on_c, 1, 81, 100
3, 70560, Note_on_c, 1, 77, 100
3, 70680, Note_on_c, 1, 77, 0
3, 70680, Note_on_c, 1, 81, 0
3, 70680, Note_on_c, 1, 81, 100
3, 70680, Note_on_c, 1, 77, 100
3, 70800, Note_on_c, 1, 77, 0
3, 70800, Note_on_c, 1, 81, 0
3, 70800, Note_on_c, 1, 79, 100
3, 70800, Note_on_c, 1, 76, 100
3, 70920, Note_on_c, 1, 76, 0
3, 70920, Note_on_c, 1, 79, 0
3, 70920, Note_on_c, 1, 74, 100
3, 70920, Note_on_c, 1, 83, 100
3, 71160, Note_on_c, 1, 83, 0
3, 71160, Note_on_c, 1, 74, 0
3, 71160, Note_on_c, 1, 84, 100
3, 71160, Note_on_c, 1, 72, 100
3, 71280, Note_on_c, 1, 72, 0
3, 71280, Note_on_c, 1, 84, 0
3, 71280, Note_on_c, 1, 74, 100
3, 71280, Note_on_c, 1, 83, 100
3, 71520, Note_on_c, 1, 83, 0
3, 71520, Note_on_c, 1, 74, 0
3, 71520, Note_on_c, 1, 84, 100
3, 71520, Note_on_c, 1, 72, 100
3, 71640, Note_on_c, 1, 72, 0
3, 71640, Note_on_c, 1, 84, 0
3, 71640, Note_on_c, 1, 74, 100
3, 71640, Note_on_c, 1, 83, 100
3, 71880, Note_on_c, 1, 83, 0
3, 71880, Note_on_c, 1, 74, 0
3, 71880, Note_on_c, 1, 84, 100
3, 71880, Note_on_c, 1, 72, 100
3, 72000, Note_on_c, 1, 72, 0
3, 72000, Note_on_c, 1, 84, 0
3, 72000, Note_on_c, 1, 74, 100
3, 72000, Note_on_c, 1, 83, 100
3, 72240, Note_on_c, 1, 83, 0
3, 72240, Note_on_c, 1, 74, 0
3, 72240, Note_on_c, 1, 84, 100
3, 72240, Note_on_c, 1, 72, 100
3, 72360, Note_on_c, 1, 72, 0
3, 72360, Note_on_c, 1, 84, 0
3, 72360, Note_on_c, 1, 74, 100
3, 72360, Note_on_c, 1, 83, 100
3, 72600, Note_on_c, 1, 83, 0
3, 72600, Note_on_c, 1, 74, 0
3, 72600, Note_on_c, 1, 84, 100
3, 72600, Note_on_c, 1, 72, 100
3, 72720, Note_on_c, 1, 72, 0
3, 72720, Note_on_c, 1, 84, 0
3, 76560, Note_on_c, 1, 70, 100
3, 76680, Note_on_c, 1, 70, 0
3, 76680, Note_on_c, 1, 74, 100
3, 76800, Note_on_c, 1, 74, 0
3, 76800, Note_on_c, 1, 70, 100
3, 76860, Note_on_c, 1, 70, 0
3, 76920, Note_on_c, 1, 74, 100
3, 77040, Note_on_c, 1, 74, 0
3, 77040, Note_on_c, 1, 77, 100
3, 77160, Note_on_c, 1, 77, 0
3, 77160, Note_on_c, 1, 74, 100
3, 77220, Note_on_c, 1, 74, 0
3, 77280, Note_on_c, 1, 77, 100
3, 77400, Note_on_c, 1, 77, 0
3, 77400, Note_on_c, 1, 82, 100
3, 77520, Note_on_c, 1, 82, 0
3, 77520, Note_on_c, 1, 82, 100
3, 77640, Note_on_c, 1, 82, 0
3, 77640, Note_on_c, 1, 81, 100
3, 77760, Note_on_c, 1, 81, 0
3, 77760, Note_on_c, 1, 79, 100
3, 77880, Note_on_c, 1, 79, 0
3, 77880, Note_on_c, 1, 79, 100
3, 78000, Note_on_c, 1, 79, 0
3, 78000, Note_on_c, 1, 77, 100
3, 78120, Note_on_c, 1, 77, 0
3, 78120, Note_on_c, 1, 75, 100
3, 78240, Note_on_c, 1, 75, 0
3, 78240, Note_on_c, 1, 75, 100
3, 78360, Note_on_c, 1, 75, 0
3, 78360, Note_on_c, 1, 74, 100
3, 78480, Note_on_c, 1, 74, 0
3, 78480, Note_on_c, 1, 72, 100
3, 78600, Note_on_c, 1, 72, 0
3, 78840, Note_on_c, 1, 84, 100
3, 78960, Note_on_c, 1, 84, 0
3, 78960, Note_on_c, 1, 84, 100
3, 79080, Note_on_c, 1, 84, 0
3, 79080, Note_on_c, 1, 82, 100
3, 79200, Note_on_c, 1, 82, 0
3, 79200, Note_on_c, 1, 81, 100
3, 79320, Note_on_c, 1, 81, 0
3, 79320, Note_on_c, 1, 81, 100
3, 79440, Note_on_c, 1, 81, 0
3, 79440, Note_on_c, 1, 79, 100
3, 79560, Note_on_c, 1, 79, 0
3, 79560, Note_on_c, 1, 77, 100
3, 79680, Note_on_c, 1, 77, 0
3, 79680, Note_on_c, 1, 77, 100
3, 79800, Note_on_c, 1, 77, 0
3, 79800, Note_on_c, 1, 75, 100
3, 79920, Note_on_c, 1, 75, 0
3, 79920, Note_on_c, 1, 74, 100
3, 80040, Note_on_c, 1, 74, 0
3, 80280, Note_on_c, 1, 86, 100
3, 80400, Note_on_c, 1, 86, 0
3, 80400, Note_on_c, 1, 86, 100
3, 80520, Note_on_c, 1, 86, 0
3, 80520, Note_on_c, 1, 84, 100
3, 80640, Note_on_c, 1, 84, 0
3, 80640, Note_on_c, 1, 82, 100
3, 80760, Note_on_c, 1, 82, 0
3, 80760, Note_on_c, 1, 82, 100
3, 80880, Note_on_c, 1, 82, 0
3, 80880, Note_on_c, 1, 81, 100
3, 81000, Note_on_c, 1, 81, 0
3, 81000, Note_on_c, 1, 79, 100
3, 81120, Note_on_c, 1, 79, 0
3, 81120, Note_on_c, 1, 79, 100
3, 81240, Note_on_c, 1, 79, 0
3, 81240, Note_on_c, 1, 77, 100
3, 81360, Note_on_c, 1, 77, 0
3, 81360, Note_on_c, 1, 75, 100
3, 81480, Note_on_c, 1, 75, 0
3, 81720, Note_on_c, 1, 81, 100
3, 81840, Note_on_c, 1, 81, 0
3, 81840, Note_on_c, 1, 81, 100
3, 81960, Note_on_c, 1, 81, 0
3, 81960, Note_on_c, 1, 79, 100
3, 82080, Note_on_c, 1, 79, 0
3, 82080, Note_on_c, 1, 77, 100
3, 82200, Note_on_c, 1, 77, 0
3, 82200, Note_on_c, 1, 77, 100
3, 82320, Note_on_c, 1, 77, 0
3, 82320, Note_on_c, 1, 75, 100
3, 82440, Note_on_c, 1, 75, 0
3, 82440, Note_on_c, 1, 74, 100
3, 82560, Note_on_c, 1, 74, 0
3, 82560, Note_on_c, 1, 74, 100
3, 82680, Note_on_c, 1, 74, 0
3, 82680, Note_on_c, 1, 72, 100
3, 82800, Note_on_c, 1, 72, 0
3, 82800, Note_on_c, 1, 70, 100
3, 82920, Note_on_c, 1, 70, 0
3, 83160, Note_on_c, 1, 77, 100
3, 84360, Note_on_c, 1, 77, 0
3, 84360, Note_on_c, 1, 76, 100
3, 84360, Note_on_c, 1, 79, 100
3, 84480, Note_on_c, 1, 79, 0
3, 84480, Note_on_c, 1, 76, 0
3, 84480, Note_on_c, 1, 76, 100
3, 84480, Note_on_c, 1, 79, 100
3, 84600, Note_on_c, 1, 79, 0
3, 84600, Note_on_c, 1, 76, 0
3, 84600, Note_on_c, 1, 76, 100
3, 84600, Note_on_c, 1, 79, 100
3, 85560, Note_on_c, 1, 79, 0
3, 85560, Note_on_c, 1, 76, 0
3, 85560, Note_on_c, 1, 77, 100
3, 85560, Note_on_c, 1, 81, 100
3, 85680, Note_on_c, 1, 81, 0
3, 85680, Note_on_c, 1, 77, 0
3, 85680, Note_on_c, 1, 77, 100
3, 85710, Note_on_c, 1, 77, 0
3, 85710, Note_on_c, 1, 81, 100
3, 85800, Note_on_c, 1, 81, 0
3, 85800, Note_on_c, 1, 77, 100
3, 85860, Note_on_c, 1, 77, 0
3, 85920, Note_on_c, 1, 81, 100
3, 85920, Note_on_c, 1, 77, 100
3, 86040, Note_on_c, 1, 77, 0
3, 86040, Note_on_c, 1, 81, 0
3, 86040, Note_on_c, 1, 81, 100
3, 86040, Note_on_c, 1, 77, 100
3, 86070, Note_on_c, 1, 77, 0
3, 86070, Note_on_c, 1, 81, 0
3, 86070, Note_on_c, 1, 84, 100
3, 86070, Note_on_c, 1, 81, 100
3, 86160, Note_on_c, 1, 81, 0
3, 86160, Note_on_c, 1, 84, 0
3, 86160, Note_on_c, 1, 77, 100
3, 86160, Note_on_c, 1, 81, 100
3, 86220, Note_on_c, 1, 81, 0
3, 86220, Note_on_c, 1, 77, 0
3, 86280, Note_on_c, 1, 84, 100
3, 86280, Note_on_c, 1, 81, 100
3, 86400, Note_on_c, 1, 81, 0
3, 86400, Note_on_c, 1, 84, 0
3, 86400, Note_on_c, 1, 65, 100
3, 86400, Note_on_c, 1, 77, 100
3, 87600, Note_on_c, 1, 77, 0
3, 87600, Note_on_c, 1, 65, 0
3, 87600, Note_on_c, 1, 67, 100
3, 87600, Note_on_c, 1, 79, 100
3, 87720, Note_on_c, 1, 79, 0
3, 87720, Note_on_c, 1, 67, 0
3, 87720, Note_on_c, 1, 79, 100
3, 87720, Note_on_c, 1, 67, 100
3, 87840, Note_on_c, 1, 67, 0
3, 87840, Note_on_c, 1, 79, 0
3, 87840, Note_on_c, 1, 79, 100
3, 87840, Note_on_c, 1, 67, 100
3, 89040, Note_on_c, 1, 67, 0
3, 89040, Note_on_c, 1, 79, 0
3, 89040, Note_on_c, 1, 81, 100
3, 89040, Note_on_c, 1, 69, 100
3, 89160, Note_on_c, 1, 69, 0
3, 89160, Note_on_c, 1, 81, 0
3, 89160, Note_on_c, 1, 81, 100
3, 89160, Note_on_c, 1, 69, 100
3, 89280, Note_on_c, 1, 69, 0
3, 89280, Note_on_c, 1, 81, 0
3, 89400, Note_on_c, 1, 69, 100
3, 89520, Note_on_c, 1, 69, 0
3, 89520, Note_on_c, 1, 70, 100
3, 89640, Note_on_c, 1, 70, 0
3, 89640, Note_on_c, 1, 72, 100
3, 89760, Note_on_c, 1, 72, 0
3, 89760, Note_on_c, 1, 72, 100
3, 89880, Note_on_c, 1, 72, 0
3, 89880, Note_on_c, 1, 74, 100
3, 90000, Note_on_c, 1, 74, 0
3, 90000, Note_on_c, 1, 76, 100
3, 90120, Note_on_c, 1, 76, 0
3, 90120, Note_on_c, 1, 76, 100
3, 90240, Note_on_c, 1, 76, 0
3, 90240, Note_on_c, 1, 77, 100
3, 90360, Note_on_c, 1, 77, 0
3, 90360, Note_on_c, 1, 79, 100
3, 90480, Note_on_c, 1, 79, 0
3, 90840, Note_on_c, 1, 70, 100
3, 90960, Note_on_c, 1, 70, 0
3, 90960, Note_on_c, 1, 72, 100
3, 91080, Note_on_c, 1, 72, 0
3, 91080, Note_on_c, 1, 74, 100
3, 91200, Note_on_c, 1, 74, 0
3, 91200, Note_on_c, 1, 74, 100
3, 91320, Note_on_c, 1, 74, 0
3, 91320, Note_on_c, 1, 76, 100
3, 91440, Note_on_c, 1, 76, 0
3, 91440, Note_on_c, 1, 77, 100
3, 91560, Note_on_c, 1, 77, 0
3, 91560, Note_on_c, 1, 77, 100
3, 91680, Note_on_c, 1, 77, 0
3, 91680, Note_on_c, 1, 79, 100
3, 91800, Note_on_c, 1, 79, 0
3, 91800, Note_on_c, 1, 81, 100
3, 91920, Note_on_c, 1, 81, 0
3, 92880, Note_on_c, 1, 72, 100
3, 92880, Note_on_c, 1, 79, 100
3, 93000, Note_on_c, 1, 79, 0
3, 93000, Note_on_c, 1, 72, 0
3, 93000, Note_on_c, 1, 72, 100
3, 93000, Note_on_c, 1, 79, 100
3, 93120, Note_on_c, 1, 79, 0
3, 93120, Note_on_c, 1, 72, 0
3, 93120, Note_on_c, 1, 72, 100
3, 93120, Note_on_c, 1, 77, 100
3, 93240, Note_on_c, 1, 77, 0
3, 93240, Note_on_c, 1, 72, 0
3, 93240, Note_on_c, 1, 76, 100
3, 93240, Note_on_c, 1, 82, 100
3, 93480, Note_on_c, 1, 82, 0
3, 93480, Note_on_c, 1, 76, 0
3, 93480, Note_on_c, 1, 77, 100
3, 93480, Note_on_c, 1, 81, 100
3, 93600, Note_on_c, 1, 81, 0
3, 93600, Note_on_c, 1, 77, 0
3, 96120, Note_on_c, 1, 72, 100
3, 96120, Note_on_c, 1, 76, 100
3, 96240, Note_on_c, 1, 76, 0
3, 96240, Note_on_c, 1, 72, 0
3, 96240, Note_on_c, 1, 72, 100
3, 96240, Note_on_c, 1, 76, 100
3, 96360, Note_on_c, 1, 76, 0
3, 96360, Note_on_c, 1, 72, 0
3, 96360, Note_on_c, 1, 72, 100
3, 96360, Note_on_c, 1, 76, 100
3, 96480, Note_on_c, 1, 76, 0
3, 96480, Note_on_c, 1, 72, 0
3, 96840, Note_on_c, 1, 72, 100
3, 96840, Note_on_c, 1, 76, 100
3, 96960, Note_on_c, 1, 76, 0
3, 96960, Note_on_c, 1, 72, 0
3, 96960, Note_on_c, 1, 72, 100
3, 96960, Note_on_c, 1, 76, 100
3, 97080, Note_on_c, 1, 76, 0
3, 97080, Note_on_c, 1, 72, 0
3, 97080, Note_on_c, 1, 72, 100
3, 97080, Note_on_c, 1, 76, 100
3, 97200, Note_on_c, 1, 76, 0
3, 97200, Note_on_c, 1, 72, 0
3, 97560, Note_on_c, 1, 72, 100
3, 97560, Note_on_c, 1, 76, 100
3, 97680, Note_on_c, 1, 76, 0
3, 97680, Note_on_c, 1, 72, 0
3, 97680, Note_on_c, 1, 72, 100
3, 97680, Note_on_c, 1, 76, 100
3, 97800, Note_on_c, 1, 76, 0
3, 97800, Note_on_c, 1, 72, 0
3, 97800, Note_on_c, 1, 72, 100
3, 97800, Note_on_c, 1, 76, 100
3, 97920, Note_on_c, 1, 76, 0
3, 97920, Note_on_c, 1, 72, 0
3, 98280, Note_on_c, 1, 72, 100
3, 98280, Note_on_c, 1, 76, 100
3, 98400, Note_on_c, 1, 76, 0
3, 98400, Note_on_c, 1, 72, 0
3, 98400, Note_on_c, 1, 72, 100
3, 98400, Note_on_c, 1, 76, 100
3, 98520, Note_on_c, 1, 76, 0
3, 98520, Note_on_c, 1, 72, 0
3, 98520, Note_on_c, 1, 72, 100
3, 98520, Note_on_c, 1, 76, 100
3, 98640, Note_on_c, 1, 76, 0
3, 98640, Note_on_c, 1, 72, 0
3, 98640, Note_on_c, 1, 76, 100
3, 98670, Note_on_c, 1, 76, 0
3, 98670, Note_on_c, 1, 77, 100
3, 98700, Note_on_c, 1, 77, 0
3, 98700, Note_on_c, 1, 76, 100
3, 98730, Note_on_c, 1, 76, 0
3, 98730, Note_on_c, 1, 77, 100
3, 98760, Note_on_c, 1, 77, 0
3, 98760, Note_on_c, 1, 76, 100
3, 98790, Note_on_c, 1, 76, 0
3, 98790, Note_on_c, 1, 77, 100
3, 98820, Note_on_c, 1, 77, 0
3, 98820, Note_on_c, 1, 76, 100
3, 98850, Note_on_c, 1, 76, 0
3, 98850, Note_on_c, 1, 77, 100
3, 98880, Note_on_c, 1, 77, 0
3, 98880, Note_on_c, 1, 76, 100
3, 98910, Note_on_c, 1, 76, 0
3, 98910, Note_on_c, 1, 77, 100
3, 98940, Note_on_c, 1, 77, 0
3, 98940, Note_on_c, 1, 74, 100
3, 98970, Note_on_c, 1, 74, 0
3, 98970, Note_on_c, 1, 76, 100
3, 99000, Note_on_c, 1, 76, 0
3, 99000, Note_on_c, 1, 69, 100
3, 99000, Note_on_c, 1, 77, 100
3, 99120, Note_on_c, 1, 77, 0
3, 99120, Note_on_c, 1, 69, 0
3, 99120, Note_on_c, 1, 72, 100
3, 99120, Note_on_c, 1, 69, 100
3, 99240, Note_on_c, 1, 69, 0
3, 99240, Note_on_c, 1, 72, 0
3, 99240, Note_on_c, 1, 65, 100
3, 99240, Note_on_c, 1, 69, 100
3, 99360, Note_on_c, 1, 69, 0
3, 99360, Note_on_c, 1, 65, 0
3, 99360, Note_on_c, 1, 70, 100
3, 99390, Note_on_c, 1, 70, 0
3, 99390, Note_on_c, 1, 72, 100
3, 99420, Note_on_c, 1, 72, 0
3, 99420, Note_on_c, 1, 70, 100
3, 99450, Note_on_c, 1, 70, 0
3, 99450, Note_on_c, 1, 72, 100
3, 99480, Note_on_c, 1, 72, 0
3, 99480, Note_on_c, 1, 70, 100
3, 99510, Note_on_c, 1, 70, 0
3, 99510, Note_on_c, 1, 72, 100
3, 99540, Note_on_c, 1, 72, 0
3, 99540, Note_on_c, 1, 70, 100
3, 99570, Note_on_c, 1, 70, 0
3, 99570, Note_on_c, 1, 72, 100
3, 99600, Note_on_c, 1, 72, 0
3, 99600, Note_on_c, 1, 70, 100
3, 99630, Note_on_c, 1, 70, 0
3, 99630, Note_on_c, 1, 72, 100
3, 99660, Note_on_c, 1, 72, 0
3, 99660, Note_on_c, 1, 69, 100
3, 99690, Note_on_c, 1, 69, 0
3, 99690, Note_on_c, 1, 70, 100
3, 99720, Note_on_c, 1, 70, 0
3, 99720, Note_on_c, 1, 65, 100
3, 99720, Note_on_c, 1, 69, 100
3, 99840, Note_on_c, 1, 69, 0
3, 99840, Note_on_c, 1, 65, 0
3, 99840, Note_on_c, 1, 72, 100
3, 99840, Note_on_c, 1, 69, 100
3, 99960, Note_on_c, 1, 69, 0
3, 99960, Note_on_c, 1, 72, 0
3, 99960, Note_on_c, 1, 77, 100
3, 99960, Note_on_c, 1, 69, 100
3, 100080, Note_on_c, 1, 69, 0
3, 100080, Note_on_c, 1, 77, 0
3, 100080, Note_on_c, 1, 76, 100
3, 100110, Note_on_c, 1, 76, 0
3, 100110, Note_on_c, 1, 77, 100
3, 100140, Note_on_c, 1, 77, 0
3, 100140, Note_on_c, 1, 76, 100
3, 100170, Note_on_c, 1, 76, 0
3, 100170, Note_on_c, 1, 77, 100
3, 100200, Note_on_c, 1, 77, 0
3, 100200, Note_on_c, 1, 76, 100
3, 100230, Note_on_c, 1, 76, 0
3, 100230, Note_on_c, 1, 77, 100
3, 100260, Note_on_c, 1, 77, 0
3, 100260, Note_on_c, 1, 76, 100
3, 100290, Note_on_c, 1, 76, 0
3, 100290, Note_on_c, 1, 77, 100
3, 100320, Note_on_c, 1, 77, 0
3, 100320, Note_on_c, 1, 76, 100
3, 100350, Note_on_c, 1, 76, 0
3, 100350, Note_on_c, 1, 77, 100
3, 100380, Note_on_c, 1, 77, 0
3, 100380, Note_on_c, 1, 74, 100
3, 100410, Note_on_c, 1, 74, 0
3, 100410, Note_on_c, 1, 76, 100
3, 100440, Note_on_c, 1, 76, 0
3, 100440, Note_on_c, 1, 69, 100
3, 100440, Note_on_c, 1, 77, 100
3, 100560, Note_on_c, 1, 77, 0
3, 100560, Note_on_c, 1, 69, 0
3, 100560, Note_on_c, 1, 72, 100
3, 100560, Note_on_c, 1, 69, 100
3, 100680, Note_on_c, 1, 69, 0
3, 100680, Note_on_c, 1, 72, 0
3, 100680, Note_on_c, 1, 65, 100
3, 100680, Note_on_c, 1, 69, 100
3, 100800, Note_on_c, 1, 69, 0
3, 100800, Note_on_c, 1, 65, 0
3, 100800, Note_on_c, 1, 76, 100
3, 100830, Note_on_c, 1, 76, 0
3, 100830, Note_on_c, 1, 77, 100
3, 100860, Note_on_c, 1, 77, 0
3, 100860, Note_on_c, 1, 76, 100
3, 100890, Note_on_c, 1, 76, 0
3, 100890, Note_on_c, 1, 77, 100
3, 100920, Note_on_c, 1, 77, 0
3, 100920, Note_on_c, 1, 76, 100
3, 100950, Note_on_c, 1, 76, 0
3, 100950, Note_on_c, 1, 77, 100
3, 100980, Note_on_c, 1, 77, 0
3, 100980, Note_on_c, 1, 76, 100
3, 101010, Note_on_c, 1, 76, 0
3, 101010, Note_on_c, 1, 77, 100
3, 101040, Note_on_c, 1, 77, 0
3, 101040, Note_on_c, 1, 76, 100
3, 101070, Note_on_c, 1, 76, 0
3, 101070, Note_on_c, 1, 77, 100
3, 101100, Note_on_c, 1, 77, 0
3, 101100, Note_on_c, 1, 74, 100
3, 101130, Note_on_c, 1, 74, 0
3, 101130, Note_on_c, 1, 76, 100
3, 101160, Note_on_c, 1, 76, 0
3, 101160, Note_on_c, 1, 69, 100
3, 101160, Note_on_c, 1, 77, 100
3, 101280, Note_on_c, 1, 77, 0
3, 101280, Note_on_c, 1, 69, 0
3, 101280, Note_on_c, 1, 72, 100
3, 101280, Note_on_c, 1, 69, 100
3, 101400, Note_on_c, 1, 69, 0
3, 101400, Note_on_c, 1, 72, 0
3, 101400, Note_on_c, 1, 65, 100
3, 101400, Note_on_c, 1, 69, 100
3, 101520, Note_on_c, 1, 69, 0
3, 101520, Note_on_c, 1, 65, 0
3, 101520, Note_on_c, 1, 76, 100
3, 101550, Note_on_c, 1, 76, 0
3, 101550, Note_on_c, 1, 77, 100
3, 101580, Note_on_c, 1, 77, 0
3, 101580, Note_on_c, 1, 76, 100
3, 101610, Note_on_c, 1, 76, 0
3, 101610, Note_on_c, 1, 77, 100
3, 101640, Note_on_c, 1, 77, 0
3, 101640, Note_on_c, 1, 76, 100
3, 101670, Note_on_c, 1, 76, 0
3, 101670, Note_on_c, 1, 77, 100
3, 101700, Note_on_c, 1, 77, 0
3, 101700, Note_on_c, 1, 76, 100
3, 101730, Note_on_c, 1, 76, 0
3, 101730, Note_on_c, 1, 77, 100
3, 101760, Note_on_c, 1, 77, 0
3, 101760, Note_on_c, 1, 76, 100
3, 101790, Note_on_c, 1, 76, 0
3, 101790, Note_on_c, 1, 77, 100
3, 101820, Note_on_c, 1, 77, 0
3, 101820, Note_on_c, 1, 74, 100
3, 101850, Note_on_c, 1, 74, 0
3, 101850, Note_on_c, 1, 76, 100
3, 101880, Note_on_c, 1, 76, 0
3, 101880, Note_on_c, 1, 69, 100
3, 101880, Note_on_c, 1, 77, 100
3, 102000, Note_on_c, 1, 77, 0
3, 102000, Note_on_c, 1, 69, 0
3, 102000, Note_on_c, 1, 72, 100
3, 102000, Note_on_c, 1, 84, 100
3, 102120, Note_on_c, 1, 84, 0
3, 102120, Note_on_c, 1, 72, 0
3, 102120, Note_on_c, 1, 69, 100
3, 102120, Note_on_c, 1, 81, 100
3, 102240, Note_on_c, 1, 81, 0
3, 102240, Note_on_c, 1, 69, 0
3, 102240, Note_on_c, 1, 77, 100
3, 102360, Note_on_c, 1, 77, 0
3, 102360, Note_on_c, 1, 72, 100
3, 102480, Note_on_c, 1, 72, 0
3, 102480, Note_on_c, 1, 69, 100
3, 102600, Note_on_c, 1, 69, 0
3, 102600, Note_on_c, 1, 69, 100
3, 102600, Note_on_c, 1, 77, 100
3, 102720, Note_on_c, 1, 77, 0
3, 102720, Note_on_c, 1, 69, 0
3, 104280, Note_on_c, 1, 65, 100
3, 104280, Note_on_c, 1, 77, 100
3, 104400, Note_on_c, 1, 77, 0
3, 104400, Note_on_c, 1, 65, 0
3, 104400, Note_on_c, 1, 77, 100
3, 104400, Note_on_c, 1, 65, 100
3, 104430, Note_on_c, 1, 65, 0
3, 104430, Note_on_c, 1, 77, 0
3, 104430, Note_on_c, 1, 69, 100
3, 104430, Note_on_c, 1, 81, 100
3, 104520, Note_on_c, 1, 81, 0
3, 104520, Note_on_c, 1, 69, 0
3, 104520, Note_on_c, 1, 65, 100
3, 104520, Note_on_c, 1, 77, 100
3, 104580, Note_on_c, 1, 77, 0
3, 104580, Note_on_c, 1, 65, 0
3, 104640, Note_on_c, 1, 65, 100
3, 104640, Note_on_c, 1, 77, 100
3, 104760, Note_on_c, 1, 77, 0
3, 104760, Note_on_c, 1, 65, 0
3, 104760, Note_on_c, 1, 65, 100
3, 104760, Note_on_c, 1, 77, 100
3, 104790, Note_on_c, 1, 77, 0
3, 104790, Note_on_c, 1, 65, 0
3, 104790, Note_on_c, 1, 69, 100
3, 104790, Note_on_c, 1, 81, 100
3, 104880, Note_on_c, 1, 81, 0
3, 104880, Note_on_c, 1, 69, 0
3, 104880, Note_on_c, 1, 65, 100
3, 104880, Note_on_c, 1, 77, 100
3, 105000, Note_on_c, 1, 77, 0
3, 105000, Note_on_c, 1, 65, 0
3, 105000, Note_on_c, 1, 65, 100
3, 105000, Note_on_c, 1, 77, 100
3, 105120, Note_on_c, 1, 77, 0
3, 105120, Note_on_c, 1, 65, 0
3, 105120, Note_on_c, 1, 65, 100
3, 105120, Note_on_c, 1, 77, 100
3, 105150, Note_on_c, 1, 77, 0
3, 105150, Note_on_c, 1, 65, 0
3, 105150, Note_on_c, 1, 69, 100
3, 105150, Note_on_c, 1, 81, 100
3, 105240, Note_on_c, 1, 81, 0
3, 105240, Note_on_c, 1, 69, 0
3, 105240, Note_on_c, 1, 65, 100
3, 105240, Note_on_c, 1, 77, 100
3, 105360, Note_on_c, 1, 77, 0
3, 105360, Note_on_c, 1, 65, 0
3, 105360, Note_on_c, 1, 65, 100
3, 105360, Note_on_c, 1, 77, 100
3, 105480, Note_on_c, 1, 77, 0
3, 105480, Note_on_c, 1, 65, 0
3, 105480, Note_on_c, 1, 65, 100
3, 105480, Note_on_c, 1, 77, 100
3, 105510, Note_on_c, 1, 77, 0
3, 105510, Note_on_c, 1, 65, 0
3, 105510, Note_on_c, 1, 69, 100
3, 105510, Note_on_c, 1, 81, 100
3, 105600, Note_on_c, 1, 81, 0
3, 105600, Note_on_c, 1, 69, 0
3, 105600, Note_on_c, 1, 65, 100
3, 105600, Note_on_c, 1, 77, 100
3, 105720, Note_on_c, 1, 77, 0
3, 105720, Note_on_c, 1, 65, 0
3, 105720, Note_on_c, 1, 65, 100
3, 105720, Note_on_c, 1, 77, 100
3, 105840, Note_on_c, 1, 77, 0
3, 105840, Note_on_c, 1, 65, 0
3, 105840, Note_on_c, 1, 69, 100
3, 105840, Note_on_c, 1, 81, 100
3, 107280, Note_on_c, 1, 81, 0
3, 107280, Note_on_c, 1, 69, 0
3, 107280, Note_on_c, 1, 62, 100
3, 107280, Note_on_c, 1, 74, 100
3, 107400, Note_on_c, 1, 74, 0
3, 107400, Note_on_c, 1, 62, 0
3, 113040, Note_on_c, 1, 74, 100
3, 113040, Note_on_c, 1, 66, 100
3, 113340, Note_on_c, 1, 66, 0
3, 113340, Note_on_c, 1, 74, 0
3, 113340, Note_on_c, 1, 64, 100
3, 113340, Note_on_c, 1, 73, 100
3, 113400, Note_on_c, 1, 73, 0
3, 113400, Note_on_c, 1, 64, 0
3, 113400, Note_on_c, 1, 66, 100
3, 113400, Note_on_c, 1, 74, 100
3, 113520, Note_on_c, 1, 74, 0
3, 113520, Note_on_c, 1, 66, 0
3, 113760, Note_on_c, 1, 66, 100
3, 113760, Note_on_c, 1, 74, 100
3, 114060, Note_on_c, 1, 74, 0
3, 114060, Note_on_c, 1, 66, 0
3, 114060, Note_on_c, 1, 64, 100
3, 114060, Note_on_c, 1, 73, 100
3, 114120, Note_on_c, 1, 73, 0
3, 114120, Note_on_c, 1, 64, 0
3, 114120, Note_on_c, 1, 74, 100
3, 114120, Note_on_c, 1, 66, 100
3, 114240, Note_on_c, 1, 66, 0
3, 114240, Note_on_c, 1, 74, 0
3, 114480, Note_on_c, 1, 66, 100
3, 114480, Note_on_c, 1, 74, 100
3, 114720, Note_on_c, 1, 74, 0
3, 114720, Note_on_c, 1, 66, 0
3, 114720, Note_on_c, 1, 69, 100
3, 114720, Note_on_c, 1, 76, 100
3, 114840, Note_on_c, 1, 76, 0
3, 114840, Note_on_c, 1, 69, 0
3, 114840, Note_on_c, 1, 69, 100
3, 114840, Note_on_c, 1, 78, 100
3, 114960, Note_on_c, 1, 78, 0
3, 114960, Note_on_c, 1, 69, 0
3, 114960, Note_on_c, 1, 76, 100
3, 114960, Note_on_c, 1, 79, 100
3, 115080, Note_on_c, 1, 79, 0
3, 115080, Note_on_c, 1, 76, 0
3, 115080, Note_on_c, 1, 74, 100
3, 115080, Note_on_c, 1, 78, 100
3, 115200, Note_on_c, 1, 78, 0
3, 115200, Note_on_c, 1, 74, 0
3, 115200, Note_on_c, 1, 73, 100
3, 115200, Note_on_c, 1, 76, 100
3, 115320, Note_on_c, 1, 76, 0
3, 115320, Note_on_c, 1, 73, 0
3, 115920, Note_on_c, 1, 73, 100
3, 115920, Note_on_c, 1, 76, 100
3, 116220, Note_on_c, 1, 76, 0
3, 116220, Note_on_c, 1, 73, 0
3, 116220, Note_on_c, 1, 72, 100
3, 116220, Note_on_c, 1, 75, 100
3, 116280, Note_on_c, 1, 75, 0
3, 116280, Note_on_c, 1, 72, 0
3, 116280, Note_on_c, 1, 73, 100
3, 116280, Note_on_c, 1, 76, 100
3, 116400, Note_on_c, 1, 76, 0
3, 116400, Note_on_c, 1, 73, 0
3, 116640, Note_on_c, 1, 73, 100
3, 116640, Note_on_c, 1, 76, 100
3, 116940, Note_on_c, 1, 76, 0
3, 116940, Note_on_c, 1, 73, 0
3, 116940, Note_on_c, 1, 75, 100
3, 116940, Note_on_c, 1, 72, 100
3, 117000, Note_on_c, 1, 72, 0
3, 117000, Note_on_c, 1, 75, 0
3, 117000, Note_on_c, 1, 73, 100
3, 117000, Note_on_c, 1, 76, 100
3, 117120, Note_on_c, 1, 76, 0
3, 117120, Note_on_c, 1, 73, 0
3, 117360, Note_on_c, 1, 73, 100
3, 117360, Note_on_c, 1, 76, 100
3, 117600, Note_on_c, 1, 76, 0
3, 117600, Note_on_c, 1, 73, 0
3, 117600, Note_on_c, 1, 74, 100
3, 117600, Note_on_c, 1, 78, 100
3, 117720, Note_on_c, 1, 78, 0
3, 117720, Note_on_c, 1, 74, 0
3, 117720, Note_on_c, 1, 78, 100
3, 117720, Note_on_c, 1, 81, 100
3, 117840, Note_on_c, 1, 81, 0
3, 117840, Note_on_c, 1, 78, 0
3, 117840, Note_on_c, 1, 76, 100
3, 117840, Note_on_c, 1, 79, 100
3, 117960, Note_on_c, 1, 79, 0
3, 117960, Note_on_c, 1, 76, 0
3, 117960, Note_on_c, 1, 73, 100
3, 117960, Note_on_c, 1, 76, 100
3, 118080, Note_on_c, 1, 76, 0
3, 118080, Note_on_c, 1, 73, 0
3, 118080, Note_on_c, 1, 74, 100
3, 118200, Note_on_c, 1, 74, 0
3, 118800, Note_on_c, 1, 78, 100
3, 119400, Note_on_c, 1, 78, 0
3, 119400, Note_on_c, 1, 79, 100
3, 119520, Note_on_c, 1, 79, 0
3, 119520, Note_on_c, 1, 76, 100
3, 120120, Note_on_c, 1, 76, 0
3, 120120, Note_on_c, 1, 78, 100
3, 120240, Note_on_c, 1, 78, 0
3, 120240, Note_on_c, 1, 74, 100
3, 120600, Note_on_c, 1, 74, 0
3, 120600, Note_on_c, 1, 76, 100
3, 120630, Note_on_c, 1, 76, 0
3, 120630, Note_on_c, 1, 74, 100
3, 120660, Note_on_c, 1, 74, 0
3, 120660, Note_on_c, 1, 73, 100
3, 120690, Note_on_c, 1, 73, 0
3, 120690, Note_on_c, 1, 74, 100
3, 120720, Note_on_c, 1, 74, 0
3, 120720, Note_on_c, 1, 78, 100
3, 120840, Note_on_c, 1, 78, 0
3, 120840, Note_on_c, 1, 76, 100
3, 120960, Note_on_c, 1, 76, 0
3, 120960, Note_on_c, 1, 74, 100
3, 121320, Note_on_c, 1, 74, 0
3, 121320, Note_on_c, 1, 73, 100
3, 121440, Note_on_c, 1, 73, 0
3, 121680, Note_on_c, 1, 78, 100
3, 122160, Note_on_c, 1, 78, 0
3, 122160, Note_on_c, 1, 81, 100
3, 122280, Note_on_c, 1, 81, 0
3, 122280, Note_on_c, 1, 79, 100
3, 122400, Note_on_c, 1, 79, 0
3, 122400, Note_on_c, 1, 78, 100
3, 122640, Note_on_c, 1, 78, 0
3, 122640, Note_on_c, 1, 76, 100
3, 122880, Note_on_c, 1, 76, 0
3, 122880, Note_on_c, 1, 79, 100
3, 123000, Note_on_c, 1, 79, 0
3, 123000, Note_on_c, 1, 78, 100
3, 123120, Note_on_c, 1, 78, 0
3, 123120, Note_on_c, 1, 76, 100
3, 123240, Note_on_c, 1, 76, 0
3, 123240, Note_on_c, 1, 74, 100
3, 123360, Note_on_c, 1, 74, 0
3, 123360, Note_on_c, 1, 78, 100
3, 123480, Note_on_c, 1, 78, 0
3, 123480, Note_on_c, 1, 78, 100
3, 123600, Note_on_c, 1, 78, 0
3, 123600, Note_on_c, 1, 78, 100
3, 123720, Note_on_c, 1, 78, 0
3, 123720, Note_on_c, 1, 74, 100
3, 123840, Note_on_c, 1, 74, 0
3, 123840, Note_on_c, 1, 73, 100
3, 124320, Note_on_c, 1, 73, 0
3, 124320, Note_on_c, 1, 78, 100
3, 124440, Note_on_c, 1, 78, 0
3, 124440, Note_on_c, 1, 74, 100
3, 124560, Note_on_c, 1, 74, 0
3, 124560, Note_on_c, 1, 73, 100
3, 125040, Note_on_c, 1, 73, 0
3, 125040, Note_on_c, 1, 78, 100
3, 125160, Note_on_c, 1, 78, 0
3, 125160, Note_on_c, 1, 74, 100
3, 125280, Note_on_c, 1, 74, 0
3, 125280, Note_on_c, 1, 73, 100
3, 125400, Note_on_c, 1, 73, 0
3, 126840, Note_on_c, 1, 76, 100
3, 126840, Note_on_c, 1, 79, 100
3, 127080, Note_on_c, 1, 79, 0
3, 127080, Note_on_c, 1, 76, 0
3, 127080, Note_on_c, 1, 76, 100
3, 127080, Note_on_c, 1, 79, 100
3, 127320, Note_on_c, 1, 79, 0
3, 127320, Note_on_c, 1, 76, 0
3, 127320, Note_on_c, 1, 76, 100
3, 127320, Note_on_c, 1, 79, 100
3, 127440, Note_on_c, 1, 79, 0
3, 127440, Note_on_c, 1, 76, 0
3, 127560, Note_on_c, 1, 76, 100
3, 127560, Note_on_c, 1, 79, 100
3, 127800, Note_on_c, 1, 79, 0
3, 127800, Note_on_c, 1, 76, 0
3, 127800, Note_on_c, 1, 76, 100
3, 127800, Note_on_c, 1, 79, 100
3, 128040, Note_on_c, 1, 79, 0
3, 128040, Note_on_c, 1, 76, 0
3, 128040, Note_on_c, 1, 79, 100
3, 128040, Note_on_c, 1, 76, 100
3, 128160, Note_on_c, 1, 76, 0
3, 128160, Note_on_c, 1, 79, 0
3, 128160, Note_on_c, 1, 78, 100
3, 128160, Note_on_c, 1, 86, 100
3, 128460, Note_on_c, 1, 86, 0
3, 128460, Note_on_c, 1, 78, 0
3, 128460, Note_on_c, 1, 76, 100
3, 128460, Note_on_c, 1, 85, 100
3, 128520, Note_on_c, 1, 85, 0
3, 128520, Note_on_c, 1, 76, 0
3, 128880, Note_on_c, 1, 78, 100
3, 128880, Note_on_c, 1, 86, 100
3, 129180, Note_on_c, 1, 86, 0
3, 129180, Note_on_c, 1, 78, 0
3, 129180, Note_on_c, 1, 85, 100
3, 129180, Note_on_c, 1, 76, 100
3, 129240, Note_on_c, 1, 76, 0
3, 129240, Note_on_c, 1, 85, 0
3, 129240, Note_on_c, 1, 78, 100
3, 129240, Note_on_c, 1, 86, 100
3, 129360, Note_on_c, 1, 86, 0
3, 129360, Note_on_c, 1, 78, 0
3, 129600, Note_on_c, 1, 78, 100
3, 129600, Note_on_c, 1, 86, 100
3, 129840, Note_on_c, 1, 86, 0
3, 129840, Note_on_c, 1, 78, 0
3, 129840, Note_on_c, 1, 76, 100
3, 129840, Note_on_c, 1, 85, 100
3, 129960, Note_on_c, 1, 85, 0
3, 129960, Note_on_c, 1, 76, 0
3, 129960, Note_on_c, 1, 86, 100
3, 129960, Note_on_c, 1, 78, 100
3, 130080, Note_on_c, 1, 78, 0
3, 130080, Note_on_c, 1, 86, 0
3, 130080, Note_on_c, 1, 76, 100
3, 130080, Note_on_c, 1, 79, 100
3, 130200, Note_on_c, 1, 79, 0
3, 130200, Note_on_c, 1, 76, 0
3, 130200, Note_on_c, 1, 74, 100
3, 130200, Note_on_c, 1, 78, 100
3, 130320, Note_on_c, 1, 78, 0
3, 130320, Note_on_c, 1, 74, 0
3, 130320, Note_on_c, 1, 73, 100
3, 130320, Note_on_c, 1, 76, 100
3, 130440, Note_on_c, 1, 76, 0
3, 130440, Note_on_c, 1, 73, 0
3, 131040, Note_on_c, 1, 73, 100
3, 131040, Note_on_c, 1, 76, 100
3, 131340, Note_on_c, 1, 76, 0
3, 131340, Note_on_c, 1, 73, 0
3, 131340, Note_on_c, 1, 72, 100
3, 131340, Note_on_c, 1, 75, 100
3, 131400, Note_on_c, 1, 75, 0
3, 131400, Note_on_c, 1, 72, 0
3, 131400, Note_on_c, 1, 73, 100
3, 131400, Note_on_c, 1, 76, 100
3, 131520, Note_on_c, 1, 76, 0
3, 131520, Note_on_c, 1, 73, 0
3, 131760, Note_on_c, 1, 73, 100
3, 131760, Note_on_c, 1, 76, 100
3, 132060, Note_on_c, 1, 76, 0
3, 132060, Note_on_c, 1, 73, 0
3, 132060, Note_on_c, 1, 72, 100
3, 132060, Note_on_c, 1, 75, 100
3, 132120, Note_on_c, 1, 75, 0
3, 132120, Note_on_c, 1, 72, 0
3, 132120, Note_on_c, 1, 73, 100
3, 132120, Note_on_c, 1, 76, 100
3, 132240, Note_on_c, 1, 76, 0
3, 132240, Note_on_c, 1, 73, 0
3, 132480, Note_on_c, 1, 73, 100
3, 132480, Note_on_c, 1, 76, 100
3, 132720, Note_on_c, 1, 76, 0
3, 132720, Note_on_c, 1, 73, 0
3, 132720, Note_on_c, 1, 78, 100
3, 132720, Note_on_c, 1, 74, 100
3, 132840, Note_on_c, 1, 74, 0
3, 132840, Note_on_c, 1, 78, 0
3, 132840, Note_on_c, 1, 81, 100
3, 132840, Note_on_c, 1, 78, 100
3, 132960, Note_on_c, 1, 78, 0
3, 132960, Note_on_c, 1, 81, 0
3, 132960, Note_on_c, 1, 76, 100
3, 132960, Note_on_c, 1, 79, 100
3, 133080, Note_on_c, 1, 79, 0
3, 133080, Note_on_c, 1, 76, 0
3, 133080, Note_on_c, 1, 85, 100
3, 133080, Note_on_c, 1, 76, 100
3, 133200, Note_on_c, 1, 76, 0
3, 133200, Note_on_c, 1, 85, 0
3, 133200, Note_on_c, 1, 78, 100
3, 133200, Note_on_c, 1, 86, 100
3, 133320, Note_on_c, 1, 86, 0
3, 133320, Note_on_c, 1, 78, 0
3, 133920, Note_on_c, 1, 78, 100
3, 134520, Note_on_c, 1, 78, 0
3, 134520, Note_on_c, 1, 79, 100
3, 134640, Note_on_c, 1, 79, 0
3, 134640, Note_on_c, 1, 76, 100
3, 135240, Note_on_c, 1, 76, 0
3, 135240, Note_on_c, 1, 78, 100
3, 135360, Note_on_c, 1, 78, 0
3, 135360, Note_on_c, 1, 74, 100
3, 135720, Note_on_c, 1, 74, 0
3, 135720, Note_on_c, 1, 76, 100
3, 135750, Note_on_c, 1, 76, 0
3, 135750, Note_on_c, 1, 74, 100
3, 135780, Note_on_c, 1, 74, 0
3, 135780, Note_on_c, 1, 73, 100
3, 135810, Note_on_c, 1, 73, 0
3, 135810, Note_on_c, 1, 74, 100
3, 135840, Note_on_c, 1, 74, 0
3, 135840, Note_on_c, 1, 78, 100
3, 135960, Note_on_c, 1, 78, 0
3, 135960, Note_on_c, 1, 76, 100
3, 136080, Note_on_c, 1, 76, 0
3, 136080, Note_on_c, 1, 74, 100
3, 136440, Note_on_c, 1, 74, 0
3, 136440, Note_on_c, 1, 73, 100
3, 136560, Note_on_c, 1, 73, 0
3, 136800, Note_on_c, 1, 78, 100
3, 137280, Note_on_c, 1, 78, 0
3, 137280, Note_on_c, 1, 81, 100
3, 137400, Note_on_c, 1, 81, 0
3, 137400, Note_on_c, 1, 79, 100
3, 137520, Note_on_c, 1, 79, 0
3, 137520, Note_on_c, 1, 78, 100
3, 137760, Note_on_c, 1, 78, 0
3, 137760, Note_on_c, 1, 76, 100
3, 138000, Note_on_c, 1, 76, 0
3, 138000, Note_on_c, 1, 79, 100
3, 138120, Note_on_c, 1, 79, 0
3, 138120, Note_on_c, 1, 78, 100
3, 138240, Note_on_c, 1, 78, 0
3, 138240, Note_on_c, 1, 76, 100
3, 138360, Note_on_c, 1, 76, 0
3, 138360, Note_on_c, 1, 74, 100
3, 138480, Note_on_c, 1, 74, 0
3, 138480, Note_on_c, 1, 78, 100
3, 138600, Note_on_c, 1, 78, 0
3, 138600, Note_on_c, 1, 78, 100
3, 138720, Note_on_c, 1, 78, 0
3, 138720, Note_on_c, 1, 78, 100
3, 138840, Note_on_c, 1, 78, 0
3, 138840, Note_on_c, 1, 74, 100
3, 138960, Note_on_c, 1, 74, 0
3, 138960, Note_on_c, 1, 73, 100
3, 139440, Note_on_c, 1, 73, 0
3, 139440, Note_on_c, 1, 78, 100
3, 139560, Note_on_c, 1, 78, 0
3, 139560, Note_on_c, 1, 74, 100
3, 139680, Note_on_c, 1, 74, 0
3, 139680, Note_on_c, 1, 73, 100
3, 140160, Note_on_c, 1, 73, 0
3, 140160, Note_on_c, 1, 78, 100
3, 140280, Note_on_c, 1, 78, 0
3, 140280, Note_on_c, 1, 74, 100
3, 140400, Note_on_c, 1, 74, 0
3, 140400, Note_on_c, 1, 73, 100
3, 140520, Note_on_c, 1, 73, 0
3, 141960, Note_on_c, 1, 76, 100
3, 141960, Note_on_c, 1, 79, 100
3, 142200, Note_on_c, 1, 79, 0
3, 142200, Note_on_c, 1, 76, 0
3, 142200, Note_on_c, 1, 76, 100
3, 142200, Note_on_c, 1, 79, 100
3, 142440, Note_on_c, 1, 79, 0
3, 142440, Note_on_c, 1, 76, 0
3, 142440, Note_on_c, 1, 76, 100
3, 142440, Note_on_c, 1, 79, 100
3, 142560, Note_on_c, 1, 79, 0
3, 142560, Note_on_c, 1, 76, 0
3, 142680, Note_on_c, 1, 76, 100
3, 142680, Note_on_c, 1, 79, 100
3, 142920, Note_on_c, 1, 79, 0
3, 142920, Note_on_c, 1, 76, 0
3, 142920, Note_on_c, 1, 76, 100
3, 142920, Note_on_c, 1, 79, 100
3, 143160, Note_on_c, 1, 79, 0
3, 143160, Note_on_c, 1, 76, 0
3, 143160, Note_on_c, 1, 79, 100
3, 143160, Note_on_c, 1, 76, 100
3, 143280, Note_on_c, 1, 76, 0
3, 143280, Note_on_c, 1, 79, 0
3, 143280, Note_on_c, 1, 78, 100
3, 143280, Note_on_c, 1, 86, 100
3, 143580, Note_on_c, 1, 86, 0
3, 143580, Note_on_c, 1, 78, 0
3, 143580, Note_on_c, 1, 76, 100
3, 143580, Note_on_c, 1, 85, 100
3, 143640, Note_on_c, 1, 85, 0
3, 143640, Note_on_c, 1, 76, 0
3, 144000, Note_on_c, 1, 78, 100
3, 144000, Note_on_c, 1, 86, 100
3, 144300, Note_on_c, 1, 86, 0
3, 144300, Note_on_c, 1, 78, 0
3, 144300, Note_on_c, 1, 85, 100
3, 144300, Note_on_c, 1, 76, 100
3, 144360, Note_on_c, 1, 76, 0
3, 144360, Note_on_c, 1, 85, 0
3, 144360, Note_on_c, 1, 78, 100
3, 144360, Note_on_c, 1, 86, 100
3, 144480, Note_on_c, 1, 86, 0
3, 144480, Note_on_c, 1, 78, 0
3, 144720, Note_on_c, 1, 78, 100
3, 144720, Note_on_c, 1, 86, 100
3, 144960, Note_on_c, 1, 86, 0
3, 144960, Note_on_c, 1, 78, 0
3, 144960, Note_on_c, 1, 76, 100
3, 144960, Note_on_c, 1, 85, 100
3, 145080, Note_on_c, 1, 85, 0
3, 145080, Note_on_c, 1, 76, 0
3, 145080, Note_on_c, 1, 86, 100
3, 145080, Note_on_c, 1, 78, 100
3, 145200, Note_on_c, 1, 78, 0
3, 145200, Note_on_c, 1, 86, 0
3, 145200, Note_on_c, 1, 76, 100
3, 145200, Note_on_c, 1, 79, 100
3, 145320, Note_on_c, 1, 79, 0
3, 145320, Note_on_c, 1, 76, 0
3, 145320, Note_on_c, 1, 74, 100
3, 145320, Note_on_c, 1, 78, 100
3, 145440, Note_on_c, 1, 78, 0
3, 145440, Note_on_c, 1, 74, 0
3, 145440, Note_on_c, 1, 73, 100
3, 145440, Note_on_c, 1, 76, 100
3, 145560, Note_on_c, 1, 76, 0
3, 145560, Note_on_c, 1, 73, 0
3, 146160, Note_on_c, 1, 73, 100
3, 146160, Note_on_c, 1, 76, 100
3, 146460, Note_on_c, 1, 76, 0
3, 146460, Note_on_c, 1, 73, 0
3, 146460, Note_on_c, 1, 72, 100
3, 146460, Note_on_c, 1, 75, 100
3, 146520, Note_on_c, 1, 75, 0
3, 146520, Note_on_c, 1, 72, 0
3, 146520, Note_on_c, 1, 73, 100
3, 146520, Note_on_c, 1, 76, 100
3, 146640, Note_on_c, 1, 76, 0
3, 146640, Note_on_c, 1, 73, 0
3, 146880, Note_on_c, 1, 73, 100
3, 146880, Note_on_c, 1, 76, 100
3, 147180, Note_on_c, 1, 76, 0
3, 147180, Note_on_c, 1, 73, 0
3, 147180, Note_on_c, 1, 72, 100
3, 147180, Note_on_c, 1, 75, 100
3, 147240, Note_on_c, 1, 75, 0
3, 147240, Note_on_c, 1, 72, 0
3, 147240, Note_on_c, 1, 73, 100
3, 147240, Note_on_c, 1, 76, 100
3, 147360, Note_on_c, 1, 76, 0
3, 147360, Note_on_c, 1, 73, 0
3, 147600, Note_on_c, 1, 73, 100
3, 147600, Note_on_c, 1, 76, 100
3, 147840, Note_on_c, 1, 76, 0
3, 147840, Note_on_c, 1, 73, 0
3, 147840, Note_on_c, 1, 78, 100
3, 147840, Note_on_c, 1, 74, 100
3, 147960, Note_on_c, 1, 74, 0
3, 147960, Note_on_c, 1, 78, 0
3, 147960, Note_on_c, 1, 81, 100
3, 147960, Note_on_c, 1, 78, 100
3, 148080, Note_on_c, 1, 78, 0
3, 148080, Note_on_c, 1, 81, 0
3, 148080, Note_on_c, 1, 76, 100
3, 148080, Note_on_c, 1, 79, 100
3, 148200, Note_on_c, 1, 79, 0
3, 148200, Note_on_c, 1, 76, 0
3, 148200, Note_on_c, 1, 85, 100
3, 148200, Note_on_c, 1, 76, 100
3, 148320, Note_on_c, 1, 76, 0
3, 148320, Note_on_c, 1, 85, 0
3, 148320, Note_on_c, 1, 78, 100
3, 148320, Note_on_c, 1, 86, 100
3, 148440, Note_on_c, 1, 86, 0
3, 148440, Note_on_c, 1, 78, 0
3, 153960, Note_on_c, 1, 77, 100
3, 154080, Note_on_c, 1, 77, 0
3, 154080, Note_on_c, 1, 77, 100
3, 154110, Note_on_c, 1, 77, 0
3, 154110, Note_on_c, 1, 81, 100
3, 154200, Note_on_c, 1, 81, 0
3, 154200, Note_on_c, 1, 77, 100
3, 154260, Note_on_c, 1, 77, 0
3, 154320, Note_on_c, 1, 77, 100
3, 154320, Note_on_c, 1, 81, 100
3, 154440, Note_on_c, 1, 81, 0
3, 154440, Note_on_c, 1, 77, 0
3, 154440, Note_on_c, 1, 81, 100
3, 154440, Note_on_c, 1, 77, 100
3, 154470, Note_on_c, 1, 77, 0
3, 154470, Note_on_c, 1, 81, 0
3, 154470, Note_on_c, 1, 84, 100
3, 154470, Note_on_c, 1, 81, 100
3, 154560, Note_on_c, 1, 81, 0
3, 154560, Note_on_c, 1, 84, 0
3, 154560, Note_on_c, 1, 81, 100
3, 154560, Note_on_c, 1, 77, 100
3, 154620, Note_on_c, 1, 77, 0
3, 154620, Note_on_c, 1, 81, 0
3, 154680, Note_on_c, 1, 84, 100
3, 154680, Note_on_c, 1, 81, 100
3, 154800, Note_on_c, 1, 81, 0
3, 154800, Note_on_c, 1, 84, 0
3, 154800, Note_on_c, 1, 77, 100
3, 154800, Note_on_c, 1, 81, 100
3, 154920, Note_on_c, 1, 81, 0
3, 154920, Note_on_c, 1, 77, 0
3, 159480, Note_on_c, 1, 80, 100
3, 159720, Note_on_c, 1, 80, 0
3, 159720, Note_on_c, 1, 81, 100
3, 159840, Note_on_c, 1, 81, 0
3, 159840, Note_on_c, 1, 86, 100
3, 159840, Note_on_c, 1, 83, 100
3, 160200, Note_on_c, 1, 83, 0
3, 160200, Note_on_c, 1, 86, 0
3, 160200, Note_on_c, 1, 81, 100
3, 160200, Note_on_c, 1, 85, 100
3, 160320, Note_on_c, 1, 85, 0
3, 160320, Note_on_c, 1, 81, 0
3, 160560, Note_on_c, 1, 86, 100
3, 160560, Note_on_c, 1, 83, 100
3, 160920, Note_on_c, 1, 83, 0
3, 160920, Note_on_c, 1, 86, 0
3, 160920, Note_on_c, 1, 81, 100
3, 160920, Note_on_c, 1, 85, 100
3, 161040, Note_on_c, 1, 85, 0
3, 161040, Note_on_c, 1, 81, 0
3, 161280, Note_on_c, 1, 86, 100
3, 161280, Note_on_c, 1, 83, 100
3, 161640, Note_on_c, 1, 83, 0
3, 161640, Note_on_c, 1, 86, 0
3, 161640, Note_on_c, 1, 85, 100
3, 161640, Note_on_c, 1, 81, 100
3, 161760, Note_on_c, 1, 81, 0
3, 161760, Note_on_c, 1, 85, 0
3, 161760, Note_on_c, 1, 76, 100
3, 161880, Note_on_c, 1, 76, 0
3, 161880, Note_on_c, 1, 85, 100
3, 162000, Note_on_c, 1, 85, 0
3, 162000, Note_on_c, 1, 81, 100
3, 162120, Note_on_c, 1, 81, 0
3, 162120, Note_on_c, 1, 76, 100
3, 162240, Note_on_c, 1, 76, 0
3, 162240, Note_on_c, 1, 73, 100
3, 162360, Note_on_c, 1, 73, 0
3, 162360, Note_on_c, 1, 69, 100
3, 162480, Note_on_c, 1, 69, 0
3, 162600, Note_on_c, 1, 77, 100
3, 162720, Note_on_c, 1, 77, 0
3, 162720, Note_on_c, 1, 77, 100
3, 162750, Note_on_c, 1, 77, 0
3, 162750, Note_on_c, 1, 81, 100
3, 162840, Note_on_c, 1, 81, 0
3, 162840, Note_on_c, 1, 77, 100
3, 162900, Note_on_c, 1, 77, 0
3, 162960, Note_on_c, 1, 77, 100
3, 162960, Note_on_c, 1, 81, 100
3, 163080, Note_on_c, 1, 81, 0
3, 163080, Note_on_c, 1, 77, 0
3, 163080, Note_on_c, 1, 81, 100
3, 163080, Note_on_c, 1, 77, 100
3, 163110, Note_on_c, 1, 77, 0
3, 163110, Note_on_c, 1, 81, 0
3, 163110, Note_on_c, 1, 84, 100
3, 163110, Note_on_c, 1, 81, 100
3, 163200, Note_on_c, 1, 81, 0
3, 163200, Note_on_c, 1, 84, 0
3, 163200, Note_on_c, 1, 81, 100
3, 163200, Note_on_c, 1, 77, 100
3, 163260, Note_on_c, 1, 77, 0
3, 163260, Note_on_c, 1, 81, 0
3, 163320, Note_on_c, 1, 84, 100
3, 163320, Note_on_c, 1, 81, 100
3, 163440, Note_on_c, 1, 81, 0
3, 163440, Note_on_c, 1, 84, 0
3, 163440, Note_on_c, 1, 77, 100
3, 163440, Note_on_c, 1, 81, 100
3, 163560, Note_on_c, 1, 81, 0
3, 163560, Note_on_c, 1, 77, 0
3, 168120, Note_on_c, 1, 80, 100
3, 168360, Note_on_c, 1, 80, 0
3, 168360, Note_on_c, 1, 81, 100
3, 168480, Note_on_c, 1, 81, 0
3, 168480, Note_on_c, 1, 86, 100
3, 168480, Note_on_c, 1, 83, 100
3, 168840, Note_on_c, 1, 83, 0
3, 168840, Note_on_c, 1, 86, 0
3, 168840, Note_on_c, 1, 81, 100
3, 168840, Note_on_c, 1, 85, 100
3, 168960, Note_on_c, 1, 85, 0
3, 168960, Note_on_c, 1, 81, 0
3, 169200, Note_on_c, 1, 86, 100
3, 169200, Note_on_c, 1, 83, 100
3, 169560, Note_on_c, 1, 83, 0
3, 169560, Note_on_c, 1, 86, 0
3, 169560, Note_on_c, 1, 81, 100
3, 169560, Note_on_c, 1, 85, 100
3, 169680, Note_on_c, 1, 85, 0
3, 169680, Note_on_c, 1, 81, 0
3, 169920, Note_on_c, 1, 86, 100
3, 169920, Note_on_c, 1, 83, 100
3, 170280, Note_on_c, 1, 83, 0
3, 170280, Note_on_c, 1, 86, 0
3, 170280, Note_on_c, 1, 85, 100
3, 170280, Note_on_c, 1, 81, 100
3, 170400, Note_on_c, 1, 81, 0
3, 170400, Note_on_c, 1, 85, 0
3, 170400, Note_on_c, 1, 76, 100
3, 170520, Note_on_c, 1, 76, 0
3, 170520, Note_on_c, 1, 85, 100
3, 170640, Note_on_c, 1, 85, 0
3, 170640, Note_on_c, 1, 81, 100
3, 170760, Note_on_c, 1, 81, 0
3, 170760, Note_on_c, 1, 76, 100
3, 170880, Note_on_c, 1, 76, 0
3, 170880, Note_on_c, 1, 73, 100
3, 171000, Note_on_c, 1, 73, 0
3, 171000, Note_on_c, 1, 69, 100
3, 171120, Note_on_c, 1, 69, 0
3, 178080, Note_on_c, 1, 74, 100
3, 178080, Note_on_c, 1, 83, 100
3, 178200, Note_on_c, 1, 83, 0
3, 178200, Note_on_c, 1, 74, 0
3, 178200, Note_on_c, 1, 74, 100
3, 178200, Note_on_c, 1, 83, 100
3, 178320, Note_on_c, 1, 83, 0
3, 178320, Note_on_c, 1, 74, 0
3, 178440, Note_on_c, 1, 79, 100
3, 178440, Note_on_c, 1, 76, 100
3, 178560, Note_on_c, 1, 76, 0
3, 178560, Note_on_c, 1, 79, 0
3, 178560, Note_on_c, 1, 77, 100
3, 178560, Note_on_c, 1, 81, 100
3, 178680, Note_on_c, 1, 81, 0
3, 178680, Note_on_c, 1, 77, 0
3, 178680, Note_on_c, 1, 77, 100
3, 178680, Note_on_c, 1, 81, 100
3, 178800, Note_on_c, 1, 81, 0
3, 178800, Note_on_c, 1, 77, 0
3, 178800, Note_on_c, 1, 76, 100
3, 178800, Note_on_c, 1, 79, 100
3, 178920, Note_on_c, 1, 79, 0
3, 178920, Note_on_c, 1, 76, 0
3, 178920, Note_on_c, 1, 74, 100
3, 178920, Note_on_c, 1, 83, 100
3, 179160, Note_on_c, 1, 83, 0
3, 179160, Note_on_c, 1, 74, 0
3, 179160, Note_on_c, 1, 72, 100
3, 179160, Note_on_c, 1, 84, 100
3, 179280, Note_on_c, 1, 84, 0
3, 179280, Note_on_c, 1, 72, 0
3, 179280, Note_on_c, 1, 81, 100
3, 179280, Note_on_c, 1, 77, 100
3, 179400, Note_on_c, 1, 77, 0
3, 179400, Note_on_c, 1, 81, 0
3, 179400, Note_on_c, 1, 81, 100
3, 179400, Note_on_c, 1, 77, 100
3, 179520, Note_on_c, 1, 77, 0
3, 179520, Note_on_c, 1, 81, 0
3, 179520, Note_on_c, 1, 79, 100
3, 179520, Note_on_c, 1, 76, 100
3, 179640, Note_on_c, 1, 76, 0
3, 179640, Note_on_c, 1, 79, 0
3, 179640, Note_on_c, 1, 74, 100
3, 179640, Note_on_c, 1, 83, 100
3, 179880, Note_on_c, 1, 83, 0
3, 179880, Note_on_c, 1, 74, 0
3, 179880, Note_on_c, 1, 84, 100
3, 179880, Note_on_c, 1, 72, 100
3, 180000, Note_on_c, 1, 72, 0
3, 180000, Note_on_c, 1, 84, 0
3, 180000, Note_on_c, 1, 74, 100
3, 180000, Note_on_c, 1, 83, 100
3, 180240, Note_on_c, 1, 83, 0
3, 180240, Note_on_c, 1, 74, 0
3, 180240, Note_on_c, 1, 84, 100
3, 180240, Note_on_c, 1, 72, 100
3, 180360, Note_on_c, 1, 72, 0
3, 180360, Note_on_c, 1, 84, 0
3, 180360, Note_on_c, 1, 74, 100
3, 180360, Note_on_c, 1, 83, 100
3, 180600, Note_on_c, 1, 83, 0
3, 180600, Note_on_c, 1, 74, 0
3, 180600, Note_on_c, 1, 84, 100
3, 180600, Note_on_c, 1, 72, 100
3, 180720, Note_on_c, 1, 72, 0
3, 180720, Note_on_c, 1, 84, 0
3, 180720, Note_on_c, 1, 74, 100
3, 180720, Note_on_c, 1, 83, 100
3, 180960, Note_on_c, 1, 83, 0
3, 180960, Note_on_c, 1, 74, 0
3, 180960, Note_on_c, 1, 84, 100
3, 180960, Note_on_c, 1, 72, 100
3, 181080, Note_on_c, 1, 72, 0
3, 181080, Note_on_c, 1, 84, 0
3, 181080, Note_on_c, 1, 74, 100
3, 181080, Note_on_c, 1, 83, 100
3, 181320, Note_on_c, 1, 83, 0
3, 181320, Note_on_c, 1, 74, 0
3, 181320, Note_on_c, 1, 84, 100
3, 181320, Note_on_c, 1, 72, 100
3, 181440, Note_on_c, 1, 72, 0
3, 181440, Note_on_c, 1, 84, 0
3, 185280, Note_on_c, 1, 70, 100
3, 185400, Note_on_c, 1, 70, 0
3, 185400, Note_on_c, 1, 74, 100
3, 185520, Note_on_c, 1, 74, 0
3, 185520, Note_on_c, 1, 70, 100
3, 185580, Note_on_c, 1, 70, 0
3, 185640, Note_on_c, 1, 74, 100
3, 185760, Note_on_c, 1, 74, 0
3, 185760, Note_on_c, 1, 77, 100
3, 185880, Note_on_c, 1, 77, 0
3, 185880, Note_on_c, 1, 74, 100
3, 185940, Note_on_c, 1, 74, 0
3, 186000, Note_on_c, 1, 77, 100
3, 186120, Note_on_c, 1, 77, 0
3, 186120, Note_on_c, 1, 82, 100
3, 186240, Note_on_c, 1, 82, 0
3, 186240, Note_on_c, 1, 82, 100
3, 186360, Note_on_c, 1, 82, 0
3, 186360, Note_on_c, 1, 81, 100
3, 186480, Note_on_c, 1, 81, 0
3, 186480, Note_on_c, 1, 79, 100
3, 186600, Note_on_c, 1, 79, 0
3, 186600, Note_on_c, 1, 79, 100
3, 186720, Note_on_c, 1, 79, 0
3, 186720, Note_on_c, 1, 77, 100
3, 186840, Note_on_c, 1, 77, 0
3, 186840, Note_on_c, 1, 75, 100
3, 186960, Note_on_c, 1, 75, 0
3, 186960, Note_on_c, 1, 75, 100
3, 187080, Note_on_c, 1, 75, 0
3, 187080, Note_on_c, 1, 74, 100
3, 187200, Note_on_c, 1, 74, 0
3, 187200, Note_on_c, 1, 72, 100
3, 187320, Note_on_c, 1, 72, 0
3, 187560, Note_on_c, 1, 84, 100
3, 187680, Note_on_c, 1, 84, 0
3, 187680, Note_on_c, 1, 84, 100
3, 187800, Note_on_c, 1, 84, 0
3, 187800, Note_on_c, 1, 82, 100
3, 187920, Note_on_c, 1, 82, 0
3, 187920, Note_on_c, 1, 81, 100
3, 188040, Note_on_c, 1, 81, 0
3, 188040, Note_on_c, 1, 81, 100
3, 188160, Note_on_c, 1, 81, 0
3, 188160, Note_on_c, 1, 79, 100
3, 188280, Note_on_c, 1, 79, 0
3, 188280, Note_on_c, 1, 77, 100
3, 188400, Note_on_c, 1, 77, 0
3, 188400, Note_on_c, 1, 77, 100
3, 188520, Note_on_c, 1, 77, 0
3, 188520, Note_on_c, 1, 75, 100
3, 188640, Note_on_c, 1, 75, 0
3, 188640, Note_on_c, 1, 74, 100
3, 188760, Note_on_c, 1, 74, 0
3, 189000, Note_on_c, 1, 86, 100
3, 189120, Note_on_c, 1, 86, 0
3, 189120, Note_on_c, 1, 86, 100
3, 189240, Note_on_c, 1, 86, 0
3, 189240, Note_on_c, 1, 84, 100
3, 189360, Note_on_c, 1, 84, 0
3, 189360, Note_on_c, 1, 82, 100
3, 189480, Note_on_c, 1, 82, 0
3, 189480, Note_on_c, 1, 82, 100
3, 189600, Note_on_c, 1, 82, 0
3, 189600, Note_on_c, 1, 81, 100
3, 189720, Note_on_c, 1, 81, 0
3, 189720, Note_on_c, 1, 79, 100
3, 189840, Note_on_c, 1, 79, 0
3, 189840, Note_on_c, 1, 79, 100
3, 189960, Note_on_c, 1, 79, 0
3, 189960, Note_on_c, 1, 77, 100
3, 190080, Note_on_c, 1, 77, 0
3, 190080, Note_on_c, 1, 75, 100
3, 190200, Note_on_c, 1, 75, 0
3, 190440, Note_on_c, 1, 81, 100
3, 190560, Note_on_c, 1, 81, 0
3, 190560, Note_on_c, 1, 81, 100
3, 190680, Note_on_c, 1, 81, 0
3, 190680, Note_on_c, 1, 79, 100
3, 190800, Note_on_c, 1, 79, 0
3, 190800, Note_on_c, 1, 77, 100
3, 190920, Note_on_c, 1, 77, 0
3, 190920, Note_on_c, 1, 77, 100
3, 191040, Note_on_c, 1, 77, 0
3, 191040, Note_on_c, 1, 75, 100
3, 191160, Note_on_c, 1, 75, 0
3, 191160, Note_on_c, 1, 74, 100
3, 191280, Note_on_c, 1, 74, 0
3, 191280, Note_on_c, 1, 74, 100
3, 191400, Note_on_c, 1, 74, 0
3, 191400, Note_on_c, 1, 72, 100
3, 191520, Note_on_c, 1, 72, 0
3, 191520, Note_on_c, 1, 70, 100
3, 191640, Note_on_c, 1, 70, 0
3, 191880, Note_on_c, 1, 77, 100
3, 193080, Note_on_c, 1, 77, 0
3, 193080, Note_on_c, 1, 76, 100
3, 193080, Note_on_c, 1, 79, 100
3, 193200, Note_on_c, 1, 79, 0
3, 193200, Note_on_c, 1, 76, 0
3, 193200, Note_on_c, 1, 76, 100
3, 193200, Note_on_c, 1, 79, 100
3, 193320, Note_on_c, 1, 79, 0
3, 193320, Note_on_c, 1, 76, 0
3, 193320, Note_on_c, 1, 76, 100
3, 193320, Note_on_c, 1, 79, 100
3, 194280, Note_on_c, 1, 79, 0
3, 194280, Note_on_c, 1, 76, 0
3, 194280, Note_on_c, 1, 77, 100
3, 194280, Note_on_c, 1, 81, 100
3, 194400, Note_on_c, 1, 81, 0
3, 194400, Note_on_c, 1, 77, 0
3, 194400, Note_on_c, 1, 77, 100
3, 194430, Note_on_c, 1, 77, 0
3, 194430, Note_on_c, 1, 81, 100
3, 194520, Note_on_c, 1, 81, 0
3, 194520, Note_on_c, 1, 77, 100
3, 194580, Note_on_c, 1, 77, 0
3, 194640, Note_on_c, 1, 81, 100
3, 194640, Note_on_c, 1, 77, 100
3, 194760, Note_on_c, 1, 77, 0
3, 194760, Note_on_c, 1, 81, 0
3, 194760, Note_on_c, 1, 81, 100
3, 194760, Note_on_c, 1, 77, 100
3, 194790, Note_on_c, 1, 77, 0
3, 194790, Note_on_c, 1, 81, 0
3, 194790, Note_on_c, 1, 84, 100
3, 194790, Note_on_c, 1, 81, 100
3, 194880, Note_on_c, 1, 81, 0
3, 194880, Note_on_c, 1, 84, 0
3, 194880, Note_on_c, 1, 77, 100
3, 194880, Note_on_c, 1, 81, 100
3, 194940, Note_on_c, 1, 81, 0
3, 194940, Note_on_c, 1, 77, 0
3, 195000, Note_on_c, 1, 84, 100
3, 195000, Note_on_c, 1, 81, 100
3, 195120, Note_on_c, 1, 81, 0
3, 195120, Note_on_c, 1, 84, 0
3, 195120, Note_on_c, 1, 65, 100
3, 195120, Note_on_c, 1, 77, 100
3, 196320, Note_on_c, 1, 77, 0
3, 196320, Note_on_c, 1, 65, 0
3, 196320, Note_on_c, 1, 67, 100
3, 196320, Note_on_c, 1, 79, 100
3, 196440, Note_on_c, 1, 79, 0
3, 196440, Note_on_c, 1, 67, 0
3, 196440, Note_on_c, 1, 79, 100
3, 196440, Note_on_c, 1, 67, 100
3, 196560, Note_on_c, 1, 67, 0
3, 196560, Note_on_c, 1, 79, 0
3, 196560, Note_on_c, 1, 79, 100
3, 196560, Note_on_c, 1, 67, 100
3, 197760, Note_on_c, 1, 67, 0
3, 197760, Note_on_c, 1, 79, 0
3, 197760, Note_on_c, 1, 81, 100
3, 197760, Note_on_c, 1, 69, 100
3, 197880, Note_on_c, 1, 69, 0
3, 197880, Note_on_c, 1, 81, 0
3, 197880, Note_on_c, 1, 81, 100
3, 197880, Note_on_c, 1, 69, 100
3, 198000, Note_on_c, 1, 69, 0
3, 198000, Note_on_c, 1, 81, 0
3, 198120, Note_on_c, 1, 69, 100
3, 198240, Note_on_c, 1, 69, 0
3, 198240, Note_on_c, 1, 70, 100
3, 198360, Note_on_c, 1, 70, 0
3, 198360, Note_on_c, 1, 72, 100
3, 198480, Note_on_c, 1, 72, 0
3, 198480, Note_on_c, 1, 72, 100
3, 198600, Note_on_c, 1, 72, 0
3, 198600, Note_on_c, 1, 74, 100
3, 198720, Note_on_c, 1, 74, 0
3, 198720, Note_on_c, 1, 76, 100
3, 198840, Note_on_c, 1, 76, 0
3, 198840, Note_on_c, 1, 76, 100
3, 198960, Note_on_c, 1, 76, 0
3, 198960, Note_on_c, 1, 77, 100
3, 199080, Note_on_c, 1, 77, 0
3, 199080, Note_on_c, 1, 79, 100
3, 199200, Note_on_c, 1, 79, 0
3, 199560, Note_on_c, 1, 70, 100
3, 199680, Note_on_c, 1, 70, 0
3, 199680, Note_on_c, 1, 72, 100
3, 199800, Note_on_c, 1, 72, 0
3, 199800, Note_on_c, 1, 74, 100
3, 199920, Note_on_c, 1, 74, 0
3, 199920, Note_on_c, 1, 74, 100
3, 200040, Note_on_c, 1, 74, 0
3, 200040, Note_on_c, 1, 76, 100
3, 200160, Note_on_c, 1, 76, 0
3, 200160, Note_on_c, 1, 77, 100
3, 200280, Note_on_c, 1, 77, 0
3, 200280, Note_on_c, 1, 77, 100
3, 200400, Note_on_c, 1, 77, 0
3, 200400, Note_on_c, 1, 79, 100
3, 200520, Note_on_c, 1, 79, 0
3, 200520, Note_on_c, 1, 81, 100
3, 200640, Note_on_c, 1, 81, 0
3, 201600, Note_on_c, 1, 72, 100
3, 201600, Note_on_c, 1, 79, 100
3, 201720, Note_on_c, 1, 79, 0
3, 201720, Note_on_c, 1, 72, 0
3, 201720, Note_on_c, 1, 72, 100
3, 201720, Note_on_c, 1, 79, 100
3, 201840, Note_on_c, 1, 79, 0
3, 201840, Note_on_c, 1, 72, 0
3, 201840, Note_on_c, 1, 72, 100
3, 201840, Note_on_c, 1, 77, 100
3, 201960, Note_on_c, 1, 77, 0
3, 201960, Note_on_c, 1, 72, 0
3, 201960, Note_on_c, 1, 76, 100
3, 201960, Note_on_c, 1, 82, 100
3, 202200, Note_on_c, 1, 82, 0
3, 202200, Note_on_c, 1, 76, 0
3, 202200, Note_on_c, 1, 77, 100
3, 202200, Note_on_c, 1, 81, 100
3, 202320, Note_on_c, 1, 81, 0
3, 202320, Note_on_c, 1, 77, 0
3, 204840, Note_on_c, 1, 72, 100
3, 204840, Note_on_c, 1, 76, 100
3, 204960, Note_on_c, 1, 76, 0
3, 204960, Note_on_c, 1, 72, 0
3, 204960, Note_on_c, 1, 72, 100
3, 204960, Note_on_c, 1, 76, 100
3, 205080, Note_on_c, 1, 76, 0
3, 205080, Note_on_c, 1, 72, 0
3, 205080, Note_on_c, 1, 72, 100
3, 205080, Note_on_c, 1, 76, 100
3, 205200, Note_on_c, 1, 76, 0
3, 205200, Note_on_c, 1, 72, 0
3, 205560, Note_on_c, 1, 72, 100
3, 205560, Note_on_c, 1, 76, 100
3, 205680, Note_on_c, 1, 76, 0
3, 205680, Note_on_c, 1, 72, 0
3, 205680, Note_on_c, 1, 72, 100
3, 205680, Note_on_c, 1, 76, 100
3, 205800, Note_on_c, 1, 76, 0
3, 205800, Note_on_c, 1, 72, 0
3, 205800, Note_on_c, 1, 72, 100
3, 205800, Note_on_c, 1, 76, 100
3, 205920, Note_on_c, 1, 76, 0
3, 205920, Note_on_c, 1, 72, 0
3, 206280, Note_on_c, 1, 72, 100
3, 206280, Note_on_c, 1, 76, 100
3, 206400, Note_on_c, 1, 76, 0
3, 206400, Note_on_c, 1, 72, 0
3, 206400, Note_on_c, 1, 72, 100
3, 206400, Note_on_c, 1, 76, 100
3, 206520, Note_on_c, 1, 76, 0
3, 206520, Note_on_c, 1, 72, 0
3, 206520, Note_on_c, 1, 72, 100
3, 206520, Note_on_c, 1, 76, 100
3, 206640, Note_on_c, 1, 76, 0
3, 206640, Note_on_c, 1, 72, 0
3, 207000, Note_on_c, 1, 72, 100
3, 207000, Note_on_c, 1, 76, 100
3, 207120, Note_on_c, 1, 76, 0
3, 207120, Note_on_c, 1, 72, 0
3, 207120, Note_on_c, 1, 72, 100
3, 207120, Note_on_c, 1, 76, 100
3, 207240, Note_on_c, 1, 76, 0
3, 207240, Note_on_c, 1, 72, 0
3, 207240, Note_on_c, 1, 72, 100
3, 207240, Note_on_c, 1, 76, 100
3, 207360, Note_on_c, 1, 76, 0
3, 207360, Note_on_c, 1, 72, 0
3, 207360, Note_on_c, 1, 76, 100
3, 207390, Note_on_c, 1, 76, 0
3, 207390, Note_on_c, 1, 77, 100
3, 207420, Note_on_c, 1, 77, 0
3, 207420, Note_on_c, 1, 76, 100
3, 207450, Note_on_c, 1, 76, 0
3, 207450, Note_on_c, 1, 77, 100
3, 207480, Note_on_c, 1, 77, 0
3, 207480, Note_on_c, 1, 76, 100
3, 207510, Note_on_c, 1, 76, 0
3, 207510, Note_on_c, 1, 77, 100
3, 207540, Note_on_c, 1, 77, 0
3, 207540, Note_on_c, 1, 76, 100
3, 207570, Note_on_c, 1, 76, 0
3, 207570, Note_on_c, 1, 77, 100
3, 207600, Note_on_c, 1, 77, 0
3, 207600, Note_on_c, 1, 76, 100
3, 207630, Note_on_c, 1, 76, 0
3, 207630, Note_on_c, 1, 77, 100
3, 207660, Note_on_c, 1, 77, 0
3, 207660, Note_on_c, 1, 74, 100
3, 207690, Note_on_c, 1, 74, 0
3, 207690, Note_on_c, 1, 76, 100
3, 207720, Note_on_c, 1, 76, 0
3, 207720, Note_on_c, 1, 69, 100
3, 207720, Note_on_c, 1, 77, 100
3, 207840, Note_on_c, 1, 77, 0
3, 207840, Note_on_c, 1, 69, 0
3, 207840, Note_on_c, 1, 72, 100
3, 207840, Note_on_c, 1, 69, 100
3, 207960, Note_on_c, 1, 69, 0
3, 207960, Note_on_c, 1, 72, 0
3, 207960, Note_on_c, 1, 65, 100
3, 207960, Note_on_c, 1, 69, 100
3, 208080, Note_on_c, 1, 69, 0
3, 208080, Note_on_c, 1, 65, 0
3, 208080, Note_on_c, 1, 70, 100
3, 208110, Note_on_c, 1, 70, 0
3, 208110, Note_on_c, 1, 72, 100
3, 208140, Note_on_c, 1, 72, 0
3, 208140, Note_on_c, 1, 70, 100
3, 208170, Note_on_c, 1, 70, 0
3, 208170, Note_on_c, 1, 72, 100
3, 208200, Note_on_c, 1, 72, 0
3, 208200, Note_on_c, 1, 70, 100
3, 208230, Note_on_c, 1, 70, 0
3, 208230, Note_on_c, 1, 72, 100
3, 208260, Note_on_c, 1, 72, 0
3, 208260, Note_on_c, 1, 70, 100
3, 208290, Note_on_c, 1, 70, 0
3, 208290, Note_on_c, 1, 72, 100
3, 208320, Note_on_c, 1, 72, 0
3, 208320, Note_on_c, 1, 70, 100
3, 208350, Note_on_c, 1, 70, 0
3, 208350, Note_on_c, 1, 72, 100
3, 208380, Note_on_c, 1, 72, 0
3, 208380, Note_on_c, 1, 69, 100
3, 208410, Note_on_c, 1, 69, 0
3, 208410, Note_on_c, 1, 70, 100
3, 208440, Note_on_c, 1, 70, 0
3, 208440, Note_on_c, 1, 65, 100
3, 208440, Note_on_c, 1, 69, 100
3, 208560, Note_on_c, 1, 69, 0
3, 208560, Note_on_c, 1, 65, 0
3, 208560, Note_on_c, 1, 72, 100
3, 208560, Note_on_c, 1, 69, 100
3, 208680, Note_on_c, 1, 69, 0
3, 208680, Note_on_c, 1, 72, 0
3, 208680, Note_on_c, 1, 77, 100
3, 208680, Note_on_c, 1, 69, 100
3, 208800, Note_on_c, 1, 69, 0
3, 208800, Note_on_c, 1, 77, 0
3, 208800, Note_on_c, 1, 76, 100
3, 208830, Note_on_c, 1, 76, 0
3, 208830, Note_on_c, 1, 77, 100
3, 208860, Note_on_c, 1, 77, 0
3, 208860, Note_on_c, 1, 76, 100
3, 208890, Note_on_c, 1, 76, 0
3, 208890, Note_on_c, 1, 77, 100
3, 208920, Note_on_c, 1, 77, 0
3, 208920, Note_on_c, 1, 76, 100
3, 208950, Note_on_c, 1, 76, 0
3, 208950, Note_on_c, 1, 77, 100
3, 208980, Note_on_c, 1, 77, 0
3, 208980, Note_on_c, 1, 76, 100
3, 209010, Note_on_c, 1, 76, 0
3, 209010, Note_on_c, 1, 77, 100
3, 209040, Note_on_c, 1, 77, 0
3, 209040, Note_on_c, 1, 76, 100
3, 209070, Note_on_c, 1, 76, 0
3, 209070, Note_on_c, 1, 77, 100
3, 209100, Note_on_c, 1, 77, 0
3, 209100, Note_on_c, 1, 74, 100
3, 209130, Note_on_c, 1, 74, 0
3, 209130, Note_on_c, 1, 76, 100
3, 209160, Note_on_c, 1, 76, 0
3, 209160, Note_on_c, 1, 69, 100
3, 209160, Note_on_c, 1, 77, 100
3, 209280, Note_on_c, 1, 77, 0
3, 209280, Note_on_c, 1, 69, 0
3, 209280, Note_on_c, 1, 72, 100
3, 209280, Note_on_c, 1, 69, 100
3, 209400, Note_on_c, 1, 69, 0
3, 209400, Note_on_c, 1, 72, 0
3, 209400, Note_on_c, 1, 65, 100
3, 209400, Note_on_c, 1, 69, 100
3, 209520, Note_on_c, 1, 69, 0
3, 209520, Note_on_c, 1, 65, 0
3, 209520, Note_on_c, 1, 76, 100
3, 209550, Note_on_c, 1, 76, 0
3, 209550, Note_on_c, 1, 77, 100
3, 209580, Note_on_c, 1, 77, 0
3, 209580, Note_on_c, 1, 76, 100
3, 209610, Note_on_c, 1, 76, 0
3, 209610, Note_on_c, 1, 77, 100
3, 209640, Note_on_c, 1, 77, 0
3, 209640, Note_on_c, 1, 76, 100
3, 209670, Note_on_c, 1, 76, 0
3, 209670, Note_on_c, 1, 77, 100
3, 209700, Note_on_c, 1, 77, 0
3, 209700, Note_on_c, 1, 76, 100
3, 209730, Note_on_c, 1, 76, 0
3, 209730, Note_on_c, 1, 77, 100
3, 209760, Note_on_c, 1, 77, 0
3, 209760, Note_on_c, 1, 76, 100
3, 209790, Note_on_c, 1, 76, 0
3, 209790, Note_on_c, 1, 77, 100
3, 209820, Note_on_c, 1, 77, 0
3, 209820, Note_on_c, 1, 74, 100
3, 209850, Note_on_c, 1, 74, 0
3, 209850, Note_on_c, 1, 76, 100
3, 209880, Note_on_c, 1, 76, 0
3, 209880, Note_on_c, 1, 69, 100
3, 209880, Note_on_c, 1, 77, 100
3, 210000, Note_on_c, 1, 77, 0
3, 210000, Note_on_c, 1, 69, 0
3, 210000, Note_on_c, 1, 72, 100
3, 210000, Note_on_c, 1, 69, 100
3, 210120, Note_on_c, 1, 69, 0
3, 210120, Note_on_c, 1, 72, 0
3, 210120, Note_on_c, 1, 65, 100
3, 210120, Note_on_c, 1, 69, 100
3, 210240, Note_on_c, 1, 69, 0
3, 210240, Note_on_c, 1, 65, 0
3, 210240, Note_on_c, 1, 76, 100
3, 210270, Note_on_c, 1, 76, 0
3, 210270, Note_on_c, 1, 77, 100
3, 210300, Note_on_c, 1, 77, 0
3, 210300, Note_on_c, 1, 76, 100
3, 210330, Note_on_c, 1, 76, 0
3, 210330, Note_on_c, 1, 77, 100
3, 210360, Note_on_c, 1, 77, 0
3, 210360, Note_on_c, 1, 76, 100
3, 210390, Note_on_c, 1, 76, 0
3, 210390, Note_on_c, 1, 77, 100
3, 210420, Note_on_c, 1, 77, 0
3, 210420, Note_on_c, 1, 76, 100
3, 210450, Note_on_c, 1, 76, 0
3, 210450, Note_on_c, 1, 77, 100
3, 210480, Note_on_c, 1, 77, 0
3, 210480, Note_on_c, 1, 76, 100
3, 210510, Note_on_c, 1, 76, 0
3, 210510, Note_on_c, 1, 77, 100
3, 210540, Note_on_c, 1, 77, 0
3, 210540, Note_on_c, 1, 74, 100
3, 210570, Note_on_c, 1, 74, 0
3, 210570, Note_on_c, 1, 76, 100
3, 210600, Note_on_c, 1, 76, 0
3, 210600, Note_on_c, 1, 69, 100
3, 210600, Note_on_c, 1, 77, 100
3, 210720, Note_on_c, 1, 77, 0
3, 210720, Note_on_c, 1, 69, 0
3, 210720, Note_on_c, 1, 72, 100
3, 210720, Note_on_c, 1, 84, 100
3, 210840, Note_on_c, 1, 84, 0
3, 210840, Note_on_c, 1, 72, 0
3, 210840, Note_on_c, 1, 69, 100
3, 210840, Note_on_c, 1, 81, 100
3, 210960, Note_on_c, 1, 81, 0
3, 210960, Note_on_c, 1, 69, 0
3, 210960, Note_on_c, 1, 77, 100
3, 211080, Note_on_c, 1, 77, 0
3, 211080, Note_on_c, 1, 72, 100
3, 211200, Note_on_c, 1, 72, 0
3, 211200, Note_on_c, 1, 69, 100
3, 211320, Note_on_c, 1, 69, 0
3, 211320, Note_on_c, 1, 69, 100
3, 211320, Note_on_c, 1, 77, 100
3, 211440, Note_on_c, 1, 77, 0
3, 211440, Note_on_c, 1, 69, 0
3, 213000, Note_on_c, 1, 65, 100
3, 213000, Note_on_c, 1, 77, 100
3, 213120, Note_on_c, 1, 77, 0
3, 213120, Note_on_c, 1, 65, 0
3, 213120, Note_on_c, 1, 77, 100
3, 213120, Note_on_c, 1, 65, 100
3, 213150, Note_on_c, 1, 65, 0
3, 213150, Note_on_c, 1, 77, 0
3, 213150, Note_on_c, 1, 69, 100
3, 213150, Note_on_c, 1, 81, 100
3, 213240, Note_on_c, 1, 81, 0
3, 213240, Note_on_c, 1, 69, 0
3, 213240, Note_on_c, 1, 65, 100
3, 213240, Note_on_c, 1, 77, 100
3, 213300, Note_on_c, 1, 77, 0
3, 213300, Note_on_c, 1, 65, 0
3, 213360, Note_on_c, 1, 65, 100
3, 213360, Note_on_c, 1, 77, 100
3, 213480, Note_on_c, 1, 77, 0
3, 213480, Note_on_c, 1, 65, 0
3, 213480, Note_on_c, 1, 65, 100
3, 213480, Note_on_c, 1, 77, 100
3, 213510, Note_on_c, 1, 77, 0
3, 213510, Note_on_c, 1, 65, 0
3, 213510, Note_on_c, 1, 69, 100
3, 213510, Note_on_c, 1, 81, 100
3, 213600, Note_on_c, 1, 81, 0
3, 213600, Note_on_c, 1, 69, 0
3, 213600, Note_on_c, 1, 65, 100
3, 213600, Note_on_c, 1, 77, 100
3, 213720, Note_on_c, 1, 77, 0
3, 213720, Note_on_c, 1, 65, 0
3, 213720, Note_on_c, 1, 65, 100
3, 213720, Note_on_c, 1, 77, 100
3, 213840, Note_on_c, 1, 77, 0
3, 213840, Note_on_c, 1, 65, 0
3, 213840, Note_on_c, 1, 65, 100
3, 213840, Note_on_c, 1, 77, 100
3, 213870, Note_on_c, 1, 77, 0
3, 213870, Note_on_c, 1, 65, 0
3, 213870, Note_on_c, 1, 69, 100
3, 213870, Note_on_c, 1, 81, 100
3, 213960, Note_on_c, 1, 81, 0
3, 213960, Note_on_c, 1, 69, 0
3, 213960, Note_on_c, 1, 65, 100
3, 213960, Note_on_c, 1, 77, 100
3, 214080, Note_on_c, 1, 77, 0
3, 214080, Note_on_c, 1, 65, 0
3, 214080, Note_on_c, 1, 65, 100
3, 214080, Note_on_c, 1, 77, 100
3, 214200, Note_on_c, 1, 77, 0
3, 214200, Note_on_c, 1, 65, 0
3, 214200, Note_on_c, 1, 65, 100
3, 214200, Note_on_c, 1, 77, 100
3, 214230, Note_on_c, 1, 77, 0
3, 214230, Note_on_c, 1, 65, 0
3, 214230, Note_on_c, 1, 69, 100
3, 214230, Note_on_c, 1, 81, 100
3, 214320, Note_on_c, 1, 81, 0
3, 214320, Note_on_c, 1, 69, 0
3, 214320, Note_on_c, 1, 65, 100
3, 214320, Note_on_c, 1, 77, 100
3, 214440, Note_on_c, 1, 77, 0
3, 214440, Note_on_c, 1, 65, 0
3, 214440, Note_on_c, 1, 65, 100
3, 214440, Note_on_c, 1, 77, 100
3, 214560, Note_on_c, 1, 77, 0
3, 214560, Note_on_c, 1, 65, 0
3, 214560, Note_on_c, 1, 69, 100
3, 214560, Note_on_c, 1, 81, 100
3, 216000, Note_on_c, 1, 81, 0
3, 216000, Note_on_c, 1, 69, 0
3, 216000, Note_on_c, 1, 62, 100
3, 216000, Note_on_c, 1, 74, 100
3, 216120, Note_on_c, 1, 74, 0
3, 216120, Note_on_c, 1, 62, 0
3, 221760, Note_on_c, 1, 74, 100
3, 221760, Note_on_c, 1, 66, 100
3, 222060, Note_on_c, 1, 66, 0
3, 222060, Note_on_c, 1, 74, 0
3, 222060, Note_on_c, 1, 64, 100
3, 222060, Note_on_c, 1, 73, 100
3, 222120, Note_on_c, 1, 73, 0
3, 222120, Note_on_c, 1, 64, 0
3, 222120, Note_on_c, 1, 66, 100
3, 222120, Note_on_c, 1, 74, 100
3, 222240, Note_on_c, 1, 74, 0
3, 222240, Note_on_c, 1, 66, 0
3, 222480, Note_on_c, 1, 66, 100
3, 222480, Note_on_c, 1, 74, 100
3, 222780, Note_on_c, 1, 74, 0
3, 222780, Note_on_c, 1, 66, 0
3, 222780, Note_on_c, 1, 64, 100
3, 222780, Note_on_c, 1, 73, 100
3, 222840, Note_on_c, 1, 73, 0
3, 222840, Note_on_c, 1, 64, 0
3, 222840, Note_on_c, 1, 74, 100
3, 222840, Note_on_c, 1, 66, 100
3, 222960, Note_on_c, 1, 66, 0
3, 222960, Note_on_c, 1, 74, 0
3, 223200, Note_on_c, 1, 66, 100
3, 223200, Note_on_c, 1, 74, 100
3, 223440, Note_on_c, 1, 74, 0
3, 223440, Note_on_c, 1, 66, 0
3, 223440, Note_on_c, 1, 69, 100
3, 223440, Note_on_c, 1, 76, 100
3, 223560, Note_on_c, 1, 76, 0
3, 223560, Note_on_c, 1, 69, 0
3, 223560, Note_on_c, 1, 69, 100
3, 223560, Note_on_c, 1, 78, 100
3, 223680, Note_on_c, 1, 78, 0
3, 223680, Note_on_c, 1, 69, 0
3, 223680, Note_on_c, 1, 76, 100
3, 223680, Note_on_c, 1, 79, 100
3, 223800, Note_on_c, 1, 79, 0
3, 223800, Note_on_c, 1, 76, 0
3, 223800, Note_on_c, 1, 74, 100
3, 223800, Note_on_c, 1, 78, 100
3, 223920, Note_on_c, 1, 78, 0
3, 223920, Note_on_c, 1, 74, 0
3, 223920, Note_on_c, 1, 73, 100
3, 223920, Note_on_c, 1, 76, 100
3, 224040, Note_on_c, 1, 76, 0
3, 224040, Note_on_c, 1, 73, 0
3, 224640, Note_on_c, 1, 73, 100
3, 224640, Note_on_c, 1, 76, 100
3, 224940, Note_on_c, 1, 76, 0
3, 224940, Note_on_c, 1, 73, 0
3, 224940, Note_on_c, 1, 72, 100
3, 224940, Note_on_c, 1, 75, 100
3, 225000, Note_on_c, 1, 75, 0
3, 225000, Note_on_c, 1, 72, 0
3, 225000, Note_on_c, 1, 73, 100
3, 225000, Note_on_c, 1, 76, 100
3, 225120, Note_on_c, 1, 76, 0
3, 225120, Note_on_c, 1, 73, 0
3, 225360, Note_on_c, 1, 73, 100
3, 225360, Note_on_c, 1, 76, 100
3, 225660, Note_on_c, 1, 76, 0
3, 225660, Note_on_c, 1, 73, 0
3, 225660, Note_on_c, 1, 75, 100
3, 225660, Note_on_c, 1, 72, 100
3, 225720, Note_on_c, 1, 72, 0
3, 225720, Note_on_c, 1, 75, 0
3, 225720, Note_on_c, 1, 73, 100
3, 225720, Note_on_c, 1, 76, 100
3, 225840, Note_on_c, 1, 76, 0
3, 225840, Note_on_c, 1, 73, 0
3, 226080, Note_on_c, 1, 73, 100
3, 226080, Note_on_c, 1, 76, 100
3, 226320, Note_on_c, 1, 76, 0
3, 226320, Note_on_c, 1, 73, 0
3, 226320, Note_on_c, 1, 74, 100
3, 226320, Note_on_c, 1, 78, 100
3, 226440, Note_on_c, 1, 78, 0
3, 226440, Note_on_c, 1, 74, 0
3, 226440, Note_on_c, 1, 78, 100
3, 226440, Note_on_c, 1, 81, 100
3, 226560, Note_on_c, 1, 81, 0
3, 226560, Note_on_c, 1, 78, 0
3, 226560, Note_on_c, 1, 76, 100
3, 226560, Note_on_c, 1, 79, 100
3, 226680, Note_on_c, 1, 79, 0
3, 226680, Note_on_c, 1, 76, 0
3, 226680, Note_on_c, 1, 73, 100
3, 226680, Note_on_c, 1, 76, 100
3, 226800, Note_on_c, 1, 76, 0
3, 226800, Note_on_c, 1, 73, 0
3, 226800, Note_on_c, 1, 74, 100
3, 226920, Note_on_c, 1, 74, 0
3, 227520, Note_on_c, 1, 78, 100
3, 228120, Note_on_c, 1, 78, 0
3, 228120, Note_on_c, 1, 79, 100
3, 228240, Note_on_c, 1, 79, 0
3, 228240, Note_on_c, 1, 76, 100
3, 228840, Note_on_c, 1, 76, 0
3, 228840, Note_on_c, 1, 78, 100
3, 228960, Note_on_c, 1, 78, 0
3, 228960, Note_on_c, 1, 74, 100
3, 229320, Note_on_c, 1, 74, 0
3, 229320, Note_on_c, 1, 76, 100
3, 229350, Note_on_c, 1, 76, 0
3, 229350, Note_on_c, 1, 74, 100
3, 229380, Note_on_c, 1, 74, 0
3, 229380, Note_on_c, 1, 73, 100
3, 229410, Note_on_c, 1, 73, 0
3, 229410, Note_on_c, 1, 74, 100
3, 229440, Note_on_c, 1, 74, 0
3, 229440, Note_on_c, 1, 78, 100
3, 229560, Note_on_c, 1, 78, 0
3, 229560, Note_on_c, 1, 76, 100
3, 229680, Note_on_c, 1, 76, 0
3, 229680, Note_on_c, 1, 74, 100
3, 230040, Note_on_c, 1, 74, 0
3, 230040, Note_on_c, 1, 73, 100
3, 230160, Note_on_c, 1, 73, 0
3, 230400, Note_on_c, 1, 78, 100
3, 230880, Note_on_c, 1, 78, 0
3, 230880, Note_on_c, 1, 81, 100
3, 231000, Note_on_c, 1, 81, 0
3, 231000, Note_on_c, 1, 79, 100
3, 231120, Note_on_c, 1, 79, 0
3, 231120, Note_on_c, 1, 78, 100
3, 231360, Note_on_c, 1, 78, 0
3, 231360, Note_on_c, 1, 76, 100
3, 231600, Note_on_c, 1, 76, 0
3, 231600, Note_on_c, 1, 79, 100
3, 231720, Note_on_c, 1, 79, 0
3, 231720, Note_on_c, 1, 78, 100
3, 231840, Note_on_c, 1, 78, 0
3, 231840, Note_on_c, 1, 76, 100
3, 231960, Note_on_c, 1, 76, 0
3, 231960, Note_on_c, 1, 74, 100
3, 232080, Note_on_c, 1, 74, 0
3, 232080, Note_on_c, 1, 78, 100
3, 232200, Note_on_c, 1, 78, 0
3, 232200, Note_on_c, 1, 78, 100
3, 232320, Note_on_c, 1, 78, 0
3, 232320, Note_on_c, 1, 78, 100
3, 232440, Note_on_c, 1, 78, 0
3, 232440, Note_on_c, 1, 74, 100
3, 232560, Note_on_c, 1, 74, 0
3, 232560, Note_on_c, 1, 73, 100
3, 233040, Note_on_c, 1, 73, 0
3, 233040, Note_on_c, 1, 78, 100
3, 233160, Note_on_c, 1, 78, 0
3, 233160, Note_on_c, 1, 74, 100
3, 233280, Note_on_c, 1, 74, 0
3, 233280, Note_on_c, 1, 73, 100
3, 233760, Note_on_c, 1, 73, 0
3, 233760, Note_on_c, 1, 78, 100
3, 233880, Note_on_c, 1, 78, 0
3, 233880, Note_on_c, 1, 74, 100
3, 234000, Note_on_c, 1, 74, 0
3, 234000, Note_on_c, 1, 73, 100
3, 234120, Note_on_c, 1, 73, 0
3, 235560, Note_on_c, 1, 76, 100
3, 235560, Note_on_c, 1, 79, 100
3, 235800, Note_on_c, 1, 79, 0
3, 235800, Note_on_c, 1, 76, 0
3, 235800, Note_on_c, 1, 76, 100
3, 235800, Note_on_c, 1, 79, 100
3, 236040, Note_on_c, 1, 79, 0
3, 236040, Note_on_c, 1, 76, 0
3, 236040, Note_on_c, 1, 76, 100
3, 236040, Note_on_c, 1, 79, 100
3, 236160, Note_on_c, 1, 79, 0
3, 236160, Note_on_c, 1, 76, 0
3, 236280, Note_on_c, 1, 76, 100
3, 236280, Note_on_c, 1, 79, 100
3, 236520, Note_on_c, 1, 79, 0
3, 236520, Note_on_c, 1, 76, 0
3, 236520, Note_on_c, 1, 76, 100
3, 236520, Note_on_c, 1, 79, 100
3, 236760, Note_on_c, 1, 79, 0
3, 236760, Note_on_c, 1, 76, 0
3, 236760, Note_on_c, 1, 79, 100
3, 236760, Note_on_c, 1, 76, 100
3, 236880, Note_on_c, 1, 76, 0
3, 236880, Note_on_c, 1, 79, 0
3, 236880, Note_on_c, 1, 78, 100
3, 236880, Note_on_c, 1, 86, 100
3, 237180, Note_on_c, 1, 86, 0
3, 237180, Note_on_c, 1, 78, 0
3, 237180, Note_on_c, 1, 76, 100
3, 237180, Note_on_c, 1, 85, 100
3, 237240, Note_on_c, 1, 85, 0
3, 237240, Note_on_c, 1, 76, 0
3, 237600, Note_on_c, 1, 78, 100
3, 237600, Note_on_c, 1, 86, 100
3, 237900, Note_on_c, 1, 86, 0
3, 237900, Note_on_c, 1, 78, 0
3, 237900, Note_on_c, 1, 85, 100
3, 237900, Note_on_c, 1, 76, 100
3, 237960, Note_on_c, 1, 76, 0
3, 237960, Note_on_c, 1, 85, 0
3, 237960, Note_on_c, 1, 78, 100
3, 237960, Note_on_c, 1, 86, 100
3, 238080, Note_on_c, 1, 86, 0
3, 238080, Note_on_c, 1, 78, 0
3, 238320, Note_on_c, 1, 78, 100
3, 238320, Note_on_c, 1, 86, 100
3, 238560, Note_on_c, 1, 86, 0
3, 238560, Note_on_c, 1, 78, 0
3, 238560, Note_on_c, 1, 76, 100
3, 238560, Note_on_c, 1, 85, 100
3, 238680, Note_on_c, 1, 85, 0
3, 238680, Note_on_c, 1, 76, 0
3, 238680, Note_on_c, 1, 86, 100
3, 238680, Note_on_c, 1, 78, 100
3, 238800, Note_on_c, 1, 78, 0
3, 238800, Note_on_c, 1, 86, 0
3, 238800, Note_on_c, 1, 76, 100
3, 238800, Note_on_c, 1, 79, 100
3, 238920, Note_on_c, 1, 79, 0
3, 238920, Note_on_c, 1, 76, 0
3, 238920, Note_on_c, 1, 74, 100
3, 238920, Note_on_c, 1, 78, 100
3, 239040, Note_on_c, 1, 78, 0
3, 239040, Note_on_c, 1, 74, 0
3, 239040, Note_on_c, 1, 73, 100
3, 239040, Note_on_c, 1, 76, 100
3, 239160, Note_on_c, 1, 76, 0
3, 239160, Note_on_c, 1, 73, 0
3, 239760, Note_on_c, 1, 73, 100
3, 239760, Note_on_c, 1, 76, 100
3, 240060, Note_on_c, 1, 76, 0
3, 240060, Note_on_c, 1, 73, 0
3, 240060, Note_on_c, 1, 72, 100
3, 240060, Note_on_c, 1, 75, 100
3, 240120, Note_on_c, 1, 75, 0
3, 240120, Note_on_c, 1, 72, 0
3, 240120, Note_on_c, 1, 73, 100
3, 240120, Note_on_c, 1, 76, 100
3, 240240, Note_on_c, 1, 76, 0
3, 240240, Note_on_c, 1, 73, 0
3, 240480, Note_on_c, 1, 73, 100
3, 240480, Note_on_c, 1, 76, 100
3, 240780, Note_on_c, 1, 76, 0
3, 240780, Note_on_c, 1, 73, 0
3, 240780, Note_on_c, 1, 72, 100
3, 240780, Note_on_c, 1, 75, 100
3, 240840, Note_on_c, 1, 75, 0
3, 240840, Note_on_c, 1, 72, 0
3, 240840, Note_on_c, 1, 73, 100
3, 240840, Note_on_c, 1, 76, 100
3, 240960, Note_on_c, 1, 76, 0
3, 240960, Note_on_c, 1, 73, 0
3, 241200, Note_on_c, 1, 73, 100
3, 241200, Note_on_c, 1, 76, 100
3, 241440, Note_on_c, 1, 76, 0
3, 241440, Note_on_c, 1, 73, 0
3, 241440, Note_on_c, 1, 78, 100
3, 241440, Note_on_c, 1, 74, 100
3, 241560, Note_on_c, 1, 74, 0
3, 241560, Note_on_c, 1, 78, 0
3, 241560, Note_on_c, 1, 81, 100
3, 241560, Note_on_c, 1, 78, 100
3, 241680, Note_on_c, 1, 78, 0
3, 241680, Note_on_c, 1, 81, 0
3, 241680, Note_on_c, 1, 76, 100
3, 241680, Note_on_c, 1, 79, 100
3, 241800, Note_on_c, 1, 79, 0
3, 241800, Note_on_c, 1, 76, 0
3, 241800, Note_on_c, 1, 85, 100
3, 241800, Note_on_c, 1, 76, 100
3, 241920, Note_on_c, 1, 76, 0
3, 241920, Note_on_c, 1, 85, 0
3, 241920, Note_on_c, 1, 78, 100
3, 241920, Note_on_c, 1, 86, 100
3, 242040, Note_on_c, 1, 86, 0
3, 242040, Note_on_c, 1, 78, 0
3, 242640, Note_on_c, 1, 78, 100
3, 243240, Note_on_c, 1, 78, 0
3, 243240, Note_on_c, 1, 79, 100
3, 243360, Note_on_c, 1, 79, 0
3, 243360, Note_on_c, 1, 76, 100
3, 243960, Note_on_c, 1, 76, 0
3, 243960, Note_on_c, 1, 78, 100
3, 244080, Note_on_c, 1, 78, 0
3, 244080, Note_on_c, 1, 74, 100
3, 244440, Note_on_c, 1, 74, 0
3, 244440, Note_on_c, 1, 76, 100
3, 244470, Note_on_c, 1, 76, 0
3, 244470, Note_on_c, 1, 74, 100
3, 244500, Note_on_c, 1, 74, 0
3, 244500, Note_on_c, 1, 73, 100
3, 244530, Note_on_c, 1, 73, 0
3, 244530, Note_on_c, 1, 74, 100
3, 244560, Note_on_c, 1, 74, 0
3, 244560, Note_on_c, 1, 78, 100
3, 244680, Note_on_c, 1, 78, 0
3, 244680, Note_on_c, 1, 76, 100
3, 244800, Note_on_c, 1, 76, 0
3, 244800, Note_on_c, 1, 74, 100
3, 245160, Note_on_c, 1, 74, 0
3, 245160, Note_on_c, 1, 73, 100
3, 245280, Note_on_c, 1, 73, 0
3, 245520, Note_on_c, 1, 78, 100
3, 246000, Note_on_c, 1, 78, 0
3, 246000, Note_on_c, 1, 81, 100
3, 246120, Note_on_c, 1, 81, 0
3, 246120, Note_on_c, 1, 79, 100
3, 246240, Note_on_c, 1, 79, 0
3, 246240, Note_on_c, 1, 78, 100
3, 246480, Note_on_c, 1, 78, 0
3, 246480, Note_on_c, 1, 76, 100
3, 246720, Note_on_c, 1, 76, 0
3, 246720, Note_on_c, 1, 79, 100
3, 246840, Note_on_c, 1, 79, 0
3, 246840, Note_on_c, 1, 78, 100
3, 246960, Note_on_c, 1, 78, 0
3, 246960, Note_on_c, 1, 76, 100
3, 247080, Note_on_c, 1, 76, 0
3, 247080, Note_on_c, 1, 74, 100
3, 247200, Note_on_c, 1, 74, 0
3, 247200, Note_on_c, 1, 78, 100
3, 247320, Note_on_c, 1, 78, 0
3, 247320, Note_on_c, 1, 78, 100
3, 247440, Note_on_c, 1, 78, 0
3, 247440, Note_on_c, 1, 78, 100
3, 247560, Note_on_c, 1, 78, 0
3, 247560, Note_on_c, 1, 74, 100
3, 247680, Note_on_c, 1, 74, 0
3, 247680, Note_on_c, 1, 73, 100
3, 248160, Note_on_c, 1, 73, 0
3, 248160, Note_on_c, 1, 78, 100
3, 248280, Note_on_c, 1, 78, 0
3, 248280, Note_on_c, 1, 74, 100
3, 248400, Note_on_c, 1, 74, 0
3, 248400, Note_on_c, 1, 73, 100
3, 248880, Note_on_c, 1, 73, 0
3, 248880, Note_on_c, 1, 78, 100
3, 249000, Note_on_c, 1, 78, 0
3, 249000, Note_on_c, 1, 74, 100
3, 249120, Note_on_c, 1, 74, 0
3, 249120, Note_on_c, 1, 73, 100
3, 249240, Note_on_c, 1, 73, 0
3, 250680, Note_on_c, 1, 76, 100
3, 250680, Note_on_c, 1, 79, 100
3, 250920, Note_on_c, 1, 79, 0
3, 250920, Note_on_c, 1, 76, 0
3, 250920, Note_on_c, 1, 76, 100
3, 250920, Note_on_c, 1, 79, 100
3, 251160, Note_on_c, 1, 79, 0
3, 251160, Note_on_c, 1, 76, 0
3, 251160, Note_on_c, 1, 76, 100
3, 251160, Note_on_c, 1, 79, 100
3, 251280, Note_on_c, 1, 79, 0
3, 251280, Note_on_c, 1, 76, 0
3, 251400, Note_on_c, 1, 76, 100
3, 251400, Note_on_c, 1, 79, 100
3, 251640, Note_on_c, 1, 79, 0
3, 251640, Note_on_c, 1, 76, 0
3, 251640, Note_on_c, 1, 76, 100
3, 251640, Note_on_c, 1, 79, 100
3, 251880, Note_on_c, 1, 79, 0
3, 251880, Note_on_c, 1, 76, 0
3, 251880, Note_on_c, 1, 79, 100
3, 251880, Note_on_c, 1, 76, 100
3, 252000, Note_on_c, 1, 76, 0
3, 252000, Note_on_c, 1, 79, 0
3, 252000, Note_on_c, 1, 78, 100
3, 252000, Note_on_c, 1, 86, 100
3, 252300, Note_on_c, 1, 86, 0
3, 252300, Note_on_c, 1, 78, 0
3, 252300, Note_on_c, 1, 76, 100
3, 252300, Note_on_c, 1, 85, 100
3, 252360, Note_on_c, 1, 85, 0
3, 252360, Note_on_c, 1, 76, 0
3, 252720, Note_on_c, 1, 78, 100
3, 252720, Note_on_c, 1, 86, 100
3, 253020, Note_on_c, 1, 86, 0
3, 253020, Note_on_c, 1, 78, 0
3, 253020, Note_on_c, 1, 85, 100
3, 253020, Note_on_c, 1, 76, 100
3, 253080, Note_on_c, 1, 76, 0
3, 253080, Note_on_c, 1, 85, 0
3, 253080, Note_on_c, 1, 78, 100
3, 253080, Note_on_c, 1, 86, 100
3, 253200, Note_on_c, 1, 86, 0
3, 253200, Note_on_c, 1, 78, 0
3, 253440, Note_on_c, 1, 78, 100
3, 253440, Note_on_c, 1, 86, 100
3, 253680, Note_on_c, 1, 86, 0
3, 253680, Note_on_c, 1, 78, 0
3, 253680, Note_on_c, 1, 76, 100
3, 253680, Note_on_c, 1, 85, 100
3, 253800, Note_on_c, 1, 85, 0
3, 253800, Note_on_c, 1, 76, 0
3, 253800, Note_on_c, 1, 86, 100
3, 253800, Note_on_c, 1, 78, 100
3, 253920, Note_on_c, 1, 78, 0
3, 253920, Note_on_c, 1, 86, 0
3, 253920, Note_on_c, 1, 76, 100
3, 253920, Note_on_c, 1, 79, 100
3, 254040, Note_on_c, 1, 79, 0
3, 254040, Note_on_c, 1, 76, 0
3, 254040, Note_on_c, 1, 74, 100
3, 254040, Note_on_c, 1, 78, 100
3, 254160, Note_on_c, 1, 78, 0
3, 254160, Note_on_c, 1, 74, 0
3, 254160, Note_on_c, 1, 73, 100
3, 254160, Note_on_c, 1, 76, 100
3, 254280, Note_on_c, 1, 76, 0
3, 254280, Note_on_c, 1, 73, 0
3, 254880, Note_on_c, 1, 73, 100
3, 254880, Note_on_c, 1, 76, 100
3, 255180, Note_on_c, 1, 76, 0
3, 255180, Note_on_c, 1, 73, 0
3, 255180, Note_on_c, 1, 72, 100
3, 255180, Note_on_c, 1, 75, 100
3, 255240, Note_on_c, 1, 75, 0
3, 255240, Note_on_c, 1, 72, 0
3, 255240, Note_on_c, 1, 73, 100
3, 255240, Note_on_c, 1, 76, 100
3, 255360, Note_on_c, 1, 76, 0
3, 255360, Note_on_c, 1, 73, 0
3, 255600, Note_on_c, 1, 73, 100
3, 255600, Note_on_c, 1, 76, 100
3, 255900, Note_on_c, 1, 76, 0
3, 255900, Note_on_c, 1, 73, 0
3, 255900, Note_on_c, 1, 72, 100
3, 255900, Note_on_c, 1, 75, 100
3, 255960, Note_on_c, 1, 75, 0
3, 255960, Note_on_c, 1, 72, 0
3, 255960, Note_on_c, 1, 73, 100
3, 255960, Note_on_c, 1, 76, 100
3, 256080, Note_on_c, 1, 76, 0
3, 256080, Note_on_c, 1, 73, 0
3, 256320, Note_on_c, 1, 73, 100
3, 256320, Note_on_c, 1, 76, 100
3, 256560, Note_on_c, 1, 76, 0
3, 256560, Note_on_c, 1, 73, 0
3, 256560, Note_on_c, 1, 78, 100
3, 256560, Note_on_c, 1, 74, 100
3, 256680, Note_on_c, 1, 74, 0
3, 256680, Note_on_c, 1, 78, 0
3, 256680, Note_on_c, 1, 81, 100
3, 256680, Note_on_c, 1, 78, 100
3, 256800, Note_on_c, 1, 78, 0
3, 256800, Note_on_c, 1, 81, 0
3, 256800, Note_on_c, 1, 76, 100
3, 256800, Note_on_c, 1, 79, 100
3, 256920, Note_on_c, 1, 79, 0
3, 256920, Note_on_c, 1, 76, 0
3, 256920, Note_on_c, 1, 85, 100
3, 256920, Note_on_c, 1, 76, 100
3, 257040, Note_on_c, 1, 76, 0
3, 257040, Note_on_c, 1, 85, 0
3, 257040, Note_on_c, 1, 78, 100
3, 257040, Note_on_c, 1, 86, 100
3, 257160, Note_on_c, 1, 86, 0
3, 257160, Note_on_c, 1, 78, 0
3, 262680, Note_on_c, 1, 77, 100
3, 262800, Note_on_c, 1, 77, 0
3, 262800, Note_on_c, 1, 77, 100
3, 262830, Note_on_c, 1, 77, 0
3, 262830, Note_on_c, 1, 81, 100
3, 262920, Note_on_c, 1, 81, 0
3, 262920, Note_on_c, 1, 77, 100
3, 262980, Note_on_c, 1, 77, 0
3, 263040, Note_on_c, 1, 77, 100
3, 263040, Note_on_c, 1, 81, 100
3, 263160, Note_on_c, 1, 81, 0
3, 263160, Note_on_c, 1, 77, 0
3, 263160, Note_on_c, 1, 81, 100
3, 263160, Note_on_c, 1, 77, 100
3, 263190, Note_on_c, 1, 77, 0
3, 263190, Note_on_c, 1, 81, 0
3, 263190, Note_on_c, 1, 84, 100
3, 263190, Note_on_c, 1, 81, 100
3, 263280, Note_on_c, 1, 81, 0
3, 263280, Note_on_c, 1, 84, 0
3, 263280, Note_on_c, 1, 81, 100
3, 263280, Note_on_c, 1, 77, 100
3, 263340, Note_on_c, 1, 77, 0
3, 263340, Note_on_c, 1, 81, 0
3, 263400, Note_on_c, 1, 84, 100
3, 263400, Note_on_c, 1, 81, 100
3, 263520, Note_on_c, 1, 81, 0
3, 263520, Note_on_c, 1, 84, 0
3, 263520, Note_on_c, 1, 77, 100
3, 263520, Note_on_c, 1, 81, 100
3, 263640, Note_on_c, 1, 81, 0
3, 263640, Note_on_c, 1, 77, 0
3, 268200, Note_on_c, 1, 80, 100
3, 268440, Note_on_c, 1, 80, 0
3, 268440, Note_on_c, 1, 81, 100
3, 268560, Note_on_c, 1, 81, 0
3, 268560, Note_on_c, 1, 86, 100
3, 268560, Note_on_c, 1, 83, 100
3, 268920, Note_on_c, 1, 83, 0
3, 268920, Note_on_c, 1, 86, 0
3, 268920, Note_on_c, 1, 81, 100
3, 268920, Note_on_c, 1, 85, 100
3, 269040, Note_on_c, 1, 85, 0
3, 269040, Note_on_c, 1, 81, 0
3, 269280, Note_on_c, 1, 86, 100
3, 269280, Note_on_c, 1, 83, 100
3, 269640, Note_on_c, 1, 83, 0
3, 269640, Note_on_c, 1, 86, 0
3, 269640, Note_on_c, 1, 81, 100
3, 269640, Note_on_c, 1, 85, 100
3, 269760, Note_on_c, 1, 85, 0
3, 269760, Note_on_c, 1, 81, 0
3, 270000, Note_on_c, 1, 86, 100
3, 270000, Note_on_c, 1, 83, 100
3, 270360, Note_on_c, 1, 83, 0
3, 270360, Note_on_c, 1, 86, 0
3, 270360, Note_on_c, 1, 85, 100
3, 270360, Note_on_c, 1, 81, 100
3, 270480, Note_on_c, 1, 81, 0
3, 270480, Note_on_c, 1, 85, 0
3, 270480, Note_on_c, 1, 76, 100
3, 270600, Note_on_c, 1, 76, 0
3, 270600, Note_on_c, 1, 85, 100
3, 270720, Note_on_c, 1, 85, 0
3, 270720, Note_on_c, 1, 81, 100
3, 270840, Note_on_c, 1, 81, 0
3, 270840, Note_on_c, 1, 76, 100
3, 270960, Note_on_c, 1, 76, 0
3, 270960, Note_on_c, 1, 73, 100
3, 271080, Note_on_c, 1, 73, 0
3, 271080, Note_on_c, 1, 69, 100
3, 271200, Note_on_c, 1, 69, 0
3, 278160, Note_on_c, 1, 74, 100
3, 278160, Note_on_c, 1, 83, 100
3, 278280, Note_on_c, 1, 83, 0
3, 278280, Note_on_c, 1, 74, 0
3, 278280, Note_on_c, 1, 74, 100
3, 278280, Note_on_c, 1, 83, 100
3, 278400, Note_on_c, 1, 83, 0
3, 278400, Note_on_c, 1, 74, 0
3, 278520, Note_on_c, 1, 79, 100
3, 278520, Note_on_c, 1, 76, 100
3, 278640, Note_on_c, 1, 76, 0
3, 278640, Note_on_c, 1, 79, 0
3, 278640, Note_on_c, 1, 77, 100
3, 278640, Note_on_c, 1, 81, 100
3, 278760, Note_on_c, 1, 81, 0
3, 278760, Note_on_c, 1, 77, 0
3, 278760, Note_on_c, 1, 77, 100
3, 278760, Note_on_c, 1, 81, 100
3, 278880, Note_on_c, 1, 81, 0
3, 278880, Note_on_c, 1, 77, 0
3, 278880, Note_on_c, 1, 76, 100
3, 278880, Note_on_c, 1, 79, 100
3, 279000, Note_on_c, 1, 79, 0
3, 279000, Note_on_c, 1, 76, 0
3, 279000, Note_on_c, 1, 74, 100
3, 279000, Note_on_c, 1, 83, 100
3, 279240, Note_on_c, 1, 83, 0
3, 279240, Note_on_c, 1, 74, 0
3, 279240, Note_on_c, 1, 72, 100
3, 279240, Note_on_c, 1, 84, 100
3, 279360, Note_on_c, 1, 84, 0
3, 279360, Note_on_c, 1, 72, 0
3, 279360, Note_on_c, 1, 81, 100
3, 279360, Note_on_c, 1, 77, 100
3, 279480, Note_on_c, 1, 77, 0
3, 279480, Note_on_c, 1, 81, 0
3, 279480, Note_on_c, 1, 81, 100
3, 279480, Note_on_c, 1, 77, 100
3, 279600, Note_on_c, 1, 77, 0
3, 279600, Note_on_c, 1, 81, 0
3, 279600, Note_on_c, 1, 79, 100
3, 279600, Note_on_c, 1, 76, 100
3, 279720, Note_on_c, 1, 76, 0
3, 279720, Note_on_c, 1, 79, 0
3, 279720, Note_on_c, 1, 74, 100
3, 279720, Note_on_c, 1, 83, 100
3, 279960, Note_on_c, 1, 83, 0
3, 279960, Note_on_c, 1, 74, 0
3, 279960, Note_on_c, 1, 84, 100
3, 279960, Note_on_c, 1, 72, 100
3, 280080, Note_on_c, 1, 72, 0
3, 280080, Note_on_c, 1, 84, 0
3, 280080, Note_on_c, 1, 74, 100
3, 280080, Note_on_c, 1, 83, 100
3, 280320, Note_on_c, 1, 83, 0
3, 280320, Note_on_c, 1, 74, 0
3, 280320, Note_on_c, 1, 84, 100
3, 280320, Note_on_c, 1, 72, 100
3, 280440, Note_on_c, 1, 72, 0
3, 280440, Note_on_c, 1, 84, 0
3, 280440, Note_on_c, 1, 74, 100
3, 280440, Note_on_c, 1, 83, 100
3, 280680, Note_on_c, 1, 83, 0
3, 280680, Note_on_c, 1, 74, 0
3, 280680, Note_on_c, 1, 84, 100
3, 280680, Note_on_c, 1, 72, 100
3, 280800, Note_on_c, 1, 72, 0
3, 280800, Note_on_c, 1, 84, 0
3, 280800, Note_on_c, 1, 74, 100
3, 280800, Note_on_c, 1, 83, 100
3, 281040, Note_on_c, 1, 83, 0
3, 281040, Note_on_c, 1, 74, 0
3, 281040, Note_on_c, 1, 84, 100
3, 281040, Note_on_c, 1, 72, 100
3, 281160, Note_on_c, 1, 72, 0
3, 281160, Note_on_c, 1, 84, 0
3, 281160, Note_on_c, 1, 74, 100
3, 281160, Note_on_c, 1, 83, 100
3, 281400, Note_on_c, 1, 83, 0
3, 281400, Note_on_c, 1, 74, 0
3, 281400, Note_on_c, 1, 84, 100
3, 281400, Note_on_c, 1, 72, 100
3, 281520, Note_on_c, 1, 72, 0
3, 281520, Note_on_c, 1, 84, 0
3, 285360, Note_on_c, 1, 70, 100
3, 285480, Note_on_c, 1, 70, 0
3, 285480, Note_on_c, 1, 74, 100
3, 285600, Note_on_c, 1, 74, 0
3, 285600, Note_on_c, 1, 70, 100
3, 285660, Note_on_c, 1, 70, 0
3, 285720, Note_on_c, 1, 74, 100
3, 285840, Note_on_c, 1, 74, 0
3, 285840, Note_on_c, 1, 77, 100
3, 285960, Note_on_c, 1, 77, 0
3, 285960, Note_on_c, 1, 74, 100
3, 286020, Note_on_c, 1, 74, 0
3, 286080, Note_on_c, 1, 77, 100
3, 286200, Note_on_c, 1, 77, 0
3, 286200, Note_on_c, 1, 82, 100
3, 286320, Note_on_c, 1, 82, 0
3, 286320, Note_on_c, 1, 82, 100
3, 286440, Note_on_c, 1, 82, 0
3, 286440, Note_on_c, 1, 81, 100
3, 286560, Note_on_c, 1, 81, 0
3, 286560, Note_on_c, 1, 79, 100
3, 286680, Note_on_c, 1, 79, 0
3, 286680, Note_on_c, 1, 79, 100
3, 286800, Note_on_c, 1, 79, 0
3, 286800, Note_on_c, 1, 77, 100
3, 286920, Note_on_c, 1, 77, 0
3, 286920, Note_on_c, 1, 75, 100
3, 287040, Note_on_c, 1, 75, 0
3, 287040, Note_on_c, 1, 75, 100
3, 287160, Note_on_c, 1, 75, 0
3, 287160, Note_on_c, 1, 74, 100
3, 287280, Note_on_c, 1, 74, 0
3, 287280, Note_on_c, 1, 72, 100
3, 287400, Note_on_c, 1, 72, 0
3, 287640, Note_on_c, 1, 84, 100
3, 287760, Note_on_c, 1, 84, 0
3, 287760, Note_on_c, 1, 84, 100
3, 287880, Note_on_c, 1, 84, 0
3, 287880, Note_on_c, 1, 82, 100
3, 288000, Note_on_c, 1, 82, 0
3, 288000, Note_on_c, 1, 81, 100
3, 288120, Note_on_c, 1, 81, 0
3, 288120, Note_on_c, 1, 81, 100
3, 288240, Note_on_c, 1, 81, 0
3, 288240, Note_on_c, 1, 79, 100
3, 288360, Note_on_c, 1, 79, 0
3, 288360, Note_on_c, 1, 77, 100
3, 288480, Note_on_c, 1, 77, 0
3, 288480, Note_on_c, 1, 77, 100
3, 288600, Note_on_c, 1, 77, 0
3, 288600, Note_on_c, 1, 75, 100
3, 288720, Note_on_c, 1, 75, 0
3, 288720, Note_on_c, 1, 74, 100
3, 288840, Note_on_c, 1, 74, 0
3, 289080, Note_on_c, 1, 86, 100
3, 289200, Note_on_c, 1, 86, 0
3, 289200, Note_on_c, 1, 86, 100
3, 289320, Note_on_c, 1, 86, 0
3, 289320, Note_on_c, 1, 84, 100
3, 289440, Note_on_c, 1, 84, 0
3, 289440, Note_on_c, 1, 82, 100
3, 289560, Note_on_c, 1, 82, 0
3, 289560, Note_on_c, 1, 82, 100
3, 289680, Note_on_c, 1, 82, 0
3, 289680, Note_on_c, 1, 81, 100
3, 289800, Note_on_c, 1, 81, 0
3, 289800, Note_on_c, 1, 79, 100
3, 289920, Note_on_c, 1, 79, 0
3, 289920, Note_on_c, 1, 79, 100
3, 290040, Note_on_c, 1, 79, 0
3, 290040, Note_on_c, 1, 77, 100
3, 290160, Note_on_c, 1, 77, 0
3, 290160, Note_on_c, 1, 75, 100
3, 290280, Note_on_c, 1, 75, 0
3, 290520, Note_on_c, 1, 81, 100
3, 290640, Note_on_c, 1, 81, 0
3, 290640, Note_on_c, 1, 81, 100
3, 290760, Note_on_c, 1, 81, 0
3, 290760, Note_on_c, 1, 79, 100
3, 290880, Note_on_c, 1, 79, 0
3, 290880, Note_on_c, 1, 77, 100
3, 291000, Note_on_c, 1, 77, 0
3, 291000, Note_on_c, 1, 77, 100
3, 291120, Note_on_c, 1, 77, 0
3, 291120, Note_on_c, 1, 75, 100
3, 291240, Note_on_c, 1, 75, 0
3, 291240, Note_on_c, 1, 74, 100
3, 291360, Note_on_c, 1, 74, 0
3, 291360, Note_on_c, 1, 74, 100
3, 291480, Note_on_c, 1, 74, 0
3, 291480, Note_on_c, 1, 72, 100
3, 291600, Note_on_c, 1, 72, 0
3, 291600, Note_on_c, 1, 70, 100
3, 291720, Note_on_c, 1, 70, 0
3, 291960, Note_on_c, 1, 77, 100
3, 293160, Note_on_c, 1, 77, 0
3, 293160, Note_on_c, 1, 76, 100
3, 293160, Note_on_c, 1, 79, 100
3, 293280, Note_on_c, 1, 79, 0
3, 293280, Note_on_c, 1, 76, 0
3, 293280, Note_on_c, 1, 76, 100
3, 293280, Note_on_c, 1, 79, 100
3, 293400, Note_on_c, 1, 79, 0
3, 293400, Note_on_c, 1, 76, 0
3, 293400, Note_on_c, 1, 76, 100
3, 293400, Note_on_c, 1, 79, 100
3, 294360, Note_on_c, 1, 79, 0
3, 294360, Note_on_c, 1, 76, 0
3, 294360, Note_on_c, 1, 77, 100
3, 294360, Note_on_c, 1, 81, 100
3, 294480, Note_on_c, 1, 81, 0
3, 294480, Note_on_c, 1, 77, 0
3, 294480, Note_on_c, 1, 77, 100
3, 294510, Note_on_c, 1, 77, 0
3, 294510, Note_on_c, 1, 81, 100
3, 294600, Note_on_c, 1, 81, 0
3, 294600, Note_on_c, 1, 77, 100
3, 294660, Note_on_c, 1, 77, 0
3, 294720, Note_on_c, 1, 81, 100
3, 294720, Note_on_c, 1, 77, 100
3, 294840, Note_on_c, 1, 77, 0
3, 294840, Note_on_c, 1, 81, 0
3, 294840, Note_on_c, 1, 81, 100
3, 294840, Note_on_c, 1, 77, 100
3, 294870, Note_on_c, 1, 77, 0
3, 294870, Note_on_c, 1, 81, 0
3, 294870, Note_on_c, 1, 84, 100
3, 294870, Note_on_c, 1, 81, 100
3, 294960, Note_on_c, 1, 81, 0
3, 294960, Note_on_c, 1, 84, 0
3, 294960, Note_on_c, 1, 77, 100
3, 294960, Note_on_c, 1, 81, 100
3, 295020, Note_on_c, 1, 81, 0
3, 295020, Note_on_c, 1, 77, 0
3, 295080, Note_on_c, 1, 84, 100
3, 295080, Note_on_c, 1, 81, 100
3, 295200, Note_on_c, 1, 81, 0
3, 295200, Note_on_c, 1, 84, 0
3, 295200, Note_on_c, 1, 65, 100
3, 295200, Note_on_c, 1, 77, 100
3, 296400, Note_on_c, 1, 77, 0
3, 296400, Note_on_c, 1, 65, 0
3, 296400, Note_on_c, 1, 67, 100
3, 296400, Note_on_c, 1, 79, 100
3, 296520, Note_on_c, 1, 79, 0
3, 296520, Note_on_c, 1, 67, 0
3, 296520, Note_on_c, 1, 79, 100
3, 296520, Note_on_c, 1, 67, 100
3, 296640, Note_on_c, 1, 67, 0
3, 296640, Note_on_c, 1, 79, 0
3, 296640, Note_on_c, 1, 79, 100
3, 296640, Note_on_c, 1, 67, 100
3, 297840, Note_on_c, 1, 67, 0
3, 297840, Note_on_c, 1, 79, 0
3, 297840, Note_on_c, 1, 81, 100
3, 297840, Note_on_c, 1, 69, 100
3, 297960, Note_on_c, 1, 69, 0
3, 297960, Note_on_c, 1, 81, 0
3, 297960, Note_on_c, 1, 81, 100
3, 297960, Note_on_c, 1, 69, 100
3, 298080, Note_on_c, 1, 69, 0
3, 298080, Note_on_c, 1, 81, 0
3, 298200, Note_on_c, 1, 69, 100
3, 298320, Note_on_c, 1, 69, 0
3, 298320, Note_on_c, 1, 70, 100
3, 298440, Note_on_c, 1, 70, 0
3, 298440, Note_on_c, 1, 72, 100
3, 298560, Note_on_c, 1, 72, 0
3, 298560, Note_on_c, 1, 72, 100
3, 298680, Note_on_c, 1, 72, 0
3, 298680, Note_on_c, 1, 74, 100
3, 298800, Note_on_c, 1, 74, 0
3, 298800, Note_on_c, 1, 76, 100
3, 298920, Note_on_c, 1, 76, 0
3, 298920, Note_on_c, 1, 76, 100
3, 299040, Note_on_c, 1, 76, 0
3, 299040, Note_on_c, 1, 77, 100
3, 299160, Note_on_c, 1, 77, 0
3, 299160, Note_on_c, 1, 79, 100
3, 299280, Note_on_c, 1, 79, 0
3, 299640, Note_on_c, 1, 70, 100
3, 299760, Note_on_c, 1, 70, 0
3, 299760, Note_on_c, 1, 72, 100
3, 299880, Note_on_c, 1, 72, 0
3, 299880, Note_on_c, 1, 74, 100
3, 300000, Note_on_c, 1, 74, 0
3, 300000, Note_on_c, 1, 74, 100
3, 300120, Note_on_c, 1, 74, 0
3, 300120, Note_on_c, 1, 76, 100
3, 300240, Note_on_c, 1, 76, 0
3, 300240, Note_on_c, 1, 77, 100
3, 300360, Note_on_c, 1, 77, 0
3, 300360, Note_on_c, 1, 77, 100
3, 300480, Note_on_c, 1, 77, 0
3, 300480, Note_on_c, 1, 79, 100
3, 300600, Note_on_c, 1, 79, 0
3, 300600, Note_on_c, 1, 81, 100
3, 300720, Note_on_c, 1, 81, 0
3, 301680, Note_on_c, 1, 72, 100
3, 301680, Note_on_c, 1, 79, 100
3, 301800, Note_on_c, 1, 79, 0
3, 301800, Note_on_c, 1, 72, 0
3, 301800, Note_on_c, 1, 72, 100
3, 301800, Note_on_c, 1, 79, 100
3, 301920, Note_on_c, 1, 79, 0
3, 301920, Note_on_c, 1, 72, 0
3, 301920, Note_on_c, 1, 72, 100
3, 301920, Note_on_c, 1, 77, 100
3, 302040, Note_on_c, 1, 77, 0
3, 302040, Note_on_c, 1, 72, 0
3, 302040, Note_on_c, 1, 76, 100
3, 302040, Note_on_c, 1, 82, 100
3, 302280, Note_on_c, 1, 82, 0
3, 302280, Note_on_c, 1, 76, 0
3, 302280, Note_on_c, 1, 77, 100
3, 302280, Note_on_c, 1, 81, 100
3, 302400, Note_on_c, 1, 81, 0
3, 302400, Note_on_c, 1, 77, 0
3, 304920, Note_on_c, 1, 72, 100
3, 304920, Note_on_c, 1, 76, 100
3, 305040, Note_on_c, 1, 76, 0
3, 305040, Note_on_c, 1, 72, 0
3, 305040, Note_on_c, 1, 72, 100
3, 305040, Note_on_c, 1, 76, 100
3, 305160, Note_on_c, 1, 76, 0
3, 305160, Note_on_c, 1, 72, 0
3, 305160, Note_on_c, 1, 72, 100
3, 305160, Note_on_c, 1, 76, 100
3, 305280, Note_on_c, 1, 76, 0
3, 305280, Note_on_c, 1, 72, 0
3, 305640, Note_on_c, 1, 72, 100
3, 305640, Note_on_c, 1, 76, 100
3, 305760, Note_on_c, 1, 76, 0
3, 305760, Note_on_c, 1, 72, 0
3, 305760, Note_on_c, 1, 72, 100
3, 305760, Note_on_c, 1, 76, 100
3, 305880, Note_on_c, 1, 76, 0
3, 305880, Note_on_c, 1, 72, 0
3, 305880, Note_on_c, 1, 72, 100
3, 305880, Note_on_c, 1, 76, 100
3, 306000, Note_on_c, 1, 76, 0
3, 306000, Note_on_c, 1, 72, 0
3, 306360, Note_on_c, 1, 72, 100
3, 306360, Note_on_c, 1, 76, 100
3, 306480, Note_on_c, 1, 76, 0
3, 306480, Note_on_c, 1, 72, 0
3, 306480, Note_on_c, 1, 72, 100
3, 306480, Note_on_c, 1, 76, 100
3, 306600, Note_on_c, 1, 76, 0
3, 306600, Note_on_c, 1, 72, 0
3, 306600, Note_on_c, 1, 72, 100
3, 306600, Note_on_c, 1, 76, 100
3, 306720, Note_on_c, 1, 76, 0
3, 306720, Note_on_c, 1, 72, 0
3, 307080, Note_on_c, 1, 72, 100
3, 307080, Note_on_c, 1, 76, 100
3, 307200, Note_on_c, 1, 76, 0
3, 307200, Note_on_c, 1, 72, 0
3, 307200, Note_on_c, 1, 72, 100
3, 307200, Note_on_c, 1, 76, 100
3, 307320, Note_on_c, 1, 76, 0
3, 307320, Note_on_c, 1, 72, 0
3, 307320, Note_on_c, 1, 72, 100
3, 307320, Note_on_c, 1, 76, 100
3, 307440, Note_on_c, 1, 76, 0
3, 307440, Note_on_c, 1, 72, 0
3, 307440, Note_on_c, 1, 76, 100
3, 307470, Note_on_c, 1, 76, 0
3, 307470, Note_on_c, 1, 77, 100
3, 307500, Note_on_c, 1, 77, 0
3, 307500, Note_on_c, 1, 76, 100
3, 307530, Note_on_c, 1, 76, 0
3, 307530, Note_on_c, 1, 77, 100
3, 307560, Note_on_c, 1, 77, 0
3, 307560, Note_on_c, 1, 76, 100
3, 307590, Note_on_c, 1, 76, 0
3, 307590, Note_on_c, 1, 77, 100
3, 307620, Note_on_c, 1, 77, 0
3, 307620, Note_on_c, 1, 76, 100
3, 307650, Note_on_c, 1, 76, 0
3, 307650, Note_on_c, 1, 77, 100
3, 307680, Note_on_c, 1, 77, 0
3, 307680, Note_on_c, 1, 76, 100
3, 307710, Note_on_c, 1, 76, 0
3, 307710, Note_on_c, 1, 77, 100
3, 307740, Note_on_c, 1, 77, 0
3, 307740, Note_on_c, 1, 74, 100
3, 307770, Note_on_c, 1, 74, 0
3, 307770, Note_on_c, 1, 76, 100
3, 307800, Note_on_c, 1, 76, 0
3, 307800, Note_on_c, 1, 69, 100
3, 307800, Note_on_c, 1, 77, 100
3, 307920, Note_on_c, 1, 77, 0
3, 307920, Note_on_c, 1, 69, 0
3, 307920, Note_on_c, 1, 72, 100
3, 307920, Note_on_c, 1, 69, 100
3, 308040, Note_on_c, 1, 69, 0
3, 308040, Note_on_c, 1, 72, 0
3, 308040, Note_on_c, 1, 65, 100
3, 308040, Note_on_c, 1, 69, 100
3, 308160, Note_on_c, 1, 69, 0
3, 308160, Note_on_c, 1, 65, 0
3, 308160, Note_on_c, 1, 70, 100
3, 308190, Note_on_c, 1, 70, 0
3, 308190, Note_on_c, 1, 72, 100
3, 308220, Note_on_c, 1, 72, 0
3, 308220, Note_on_c, 1, 70, 100
3, 308250, Note_on_c, 1, 70, 0
3, 308250, Note_on_c, 1, 72, 100
3, 308280, Note_on_c, 1, 72, 0
3, 308280, Note_on_c, 1, 70, 100
3, 308310, Note_on_c, 1, 70, 0
3, 308310, Note_on_c, 1, 72, 100
3, 308340, Note_on_c, 1, 72, 0
3, 308340, Note_on_c, 1, 70, 100
3, 308370, Note_on_c, 1, 70, 0
3, 308370, Note_on_c, 1, 72, 100
3, 308400, Note_on_c, 1, 72, 0
3, 308400, Note_on_c, 1, 70, 100
3, 308430, Note_on_c, 1, 70, 0
3, 308430, Note_on_c, 1, 72, 100
3, 308460, Note_on_c, 1, 72, 0
3, 308460, Note_on_c, 1, 69, 100
3, 308490, Note_on_c, 1, 69, 0
3, 308490, Note_on_c, 1, 70, 100
3, 308520, Note_on_c, 1, 70, 0
3, 308520, Note_on_c, 1, 65, 100
3, 308520, Note_on_c, 1, 69, 100
3, 308640, Note_on_c, 1, 69, 0
3, 308640, Note_on_c, 1, 65, 0
3, 308640, Note_on_c, 1, 72, 100
3, 308640, Note_on_c, 1, 69, 100
3, 308760, Note_on_c, 1, 69, 0
3, 308760, Note_on_c, 1, 72, 0
3, 308760, Note_on_c, 1, 77, 100
3, 308760, Note_on_c, 1, 69, 100
3, 308880, Note_on_c, 1, 69, 0
3, 308880, Note_on_c, 1, 77, 0
3, 308880, Note_on_c, 1, 76, 100
3, 308910, Note_on_c, 1, 76, 0
3, 308910, Note_on_c, 1, 77, 100
3, 308940, Note_on_c, 1, 77, 0
3, 308940, Note_on_c, 1, 76, 100
3, 308970, Note_on_c, 1, 76, 0
3, 308970, Note_on_c, 1, 77, 100
3, 309000, Note_on_c, 1, 77, 0
3, 309000, Note_on_c, 1, 76, 100
3, 309030, Note_on_c, 1, 76, 0
3, 309030, Note_on_c, 1, 77, 100
3, 309060, Note_on_c, 1, 77, 0
3, 309060, Note_on_c, 1, 76, 100
3, 309090, Note_on_c, 1, 76, 0
3, 309090, Note_on_c, 1, 77, 100
3, 309120, Note_on_c, 1, 77, 0
3, 309120, Note_on_c, 1, 76, 100
3, 309150, Note_on_c, 1, 76, 0
3, 309150, Note_on_c, 1, 77, 100
3, 309180, Note_on_c, 1, 77, 0
3, 309180, Note_on_c, 1, 74, 100
3, 309210, Note_on_c, 1, 74, 0
3, 309210, Note_on_c, 1, 76, 100
3, 309240, Note_on_c, 1, 76, 0
3, 309240, Note_on_c, 1, 69, 100
3, 309240, Note_on_c, 1, 77, 100
3, 309360, Note_on_c, 1, 77, 0
3, 309360, Note_on_c, 1, 69, 0
3, 309360, Note_on_c, 1, 72, 100
3, 309360, Note_on_c, 1, 69, 100
3, 309480, Note_on_c, 1, 69, 0
3, 309480, Note_on_c, 1, 72, 0
3, 309480, Note_on_c, 1, 65, 100
3, 309480, Note_on_c, 1, 69, 100
3, 309600, Note_on_c, 1, 69, 0
3, 309600, Note_on_c, 1, 65, 0
3, 309600, Note_on_c, 1, 76, 100
3, 309630, Note_on_c, 1, 76, 0
3, 309630, Note_on_c, 1, 77, 100
3, 309660, Note_on_c, 1, 77, 0
3, 309660, Note_on_c, 1, 76, 100
3, 309690, Note_on_c, 1, 76, 0
3, 309690, Note_on_c, 1, 77, 100
3, 309720, Note_on_c, 1, 77, 0
3, 309720, Note_on_c, 1, 76, 100
3, 309750, Note_on_c, 1, 76, 0
3, 309750, Note_on_c, 1, 77, 100
3, 309780, Note_on_c, 1, 77, 0
3, 309780, Note_on_c, 1, 76, 100
3, 309810, Note_on_c, 1, 76, 0
3, 309810, Note_on_c, 1, 77, 100
3, 309840, Note_on_c, 1, 77, 0
3, 309840, Note_on_c, 1, 76, 100
3, 309870, Note_on_c, 1, 76, 0
3, 309870, Note_on_c, 1, 77, 100
3, 309900, Note_on_c, 1, 77, 0
3, 309900, Note_on_c, 1, 74, 100
3, 309930, Note_on_c, 1, 74, 0
3, 309930, Note_on_c, 1, 76, 100
3, 309960, Note_on_c, 1, 76, 0
3, 309960, Note_on_c, 1, 69, 100
3, 309960, Note_on_c, 1, 77, 100
3, 310080, Note_on_c, 1, 77, 0
3, 310080, Note_on_c, 1, 69, 0
3, 310080, Note_on_c, 1, 72, 100
3, 310080, Note_on_c, 1, 69, 100
3, 310200, Note_on_c, 1, 69, 0
3, 310200, Note_on_c, 1, 72, 0
3, 310200, Note_on_c, 1, 65, 100
3, 310200, Note_on_c, 1, 69, 100
3, 310320, Note_on_c, 1, 69, 0
3, 310320, Note_on_c, 1, 65, 0
3, 310320, Note_on_c, 1, 76, 100
3, 310350, Note_on_c, 1, 76, 0
3, 310350, Note_on_c, 1, 77, 100
3, 310380, Note_on_c, 1, 77, 0
3, 310380, Note_on_c, 1, 76, 100
3, 310410, Note_on_c, 1, 76, 0
3, 310410, Note_on_c, 1, 77, 100
3, 310440, Note_on_c, 1, 77, 0
3, 310440, Note_on_c, 1, 76, 100
3, 310470, Note_on_c, 1, 76, 0
3, 310470, Note_on_c, 1, 77, 100
3, 310500, Note_on_c, 1, 77, 0
3, 310500, Note_on_c, 1, 76, 100
3, 310530, Note_on_c, 1, 76, 0
3, 310530, Note_on_c, 1, 77, 100
3, 310560, Note_on_c, 1, 77, 0
3, 310560, Note_on_c, 1, 76, 100
3, 310590, Note_on_c, 1, 76, 0
3, 310590, Note_on_c, 1, 77, 100
3, 310620, Note_on_c, 1, 77, 0
3, 310620, Note_on_c, 1, 74, 100
3, 310650, Note_on_c, 1, 74, 0
3, 310650, Note_on_c, 1, 76, 100
3, 310680, Note_on_c, 1, 76, 0
3, 310680, Note_on_c, 1, 69, 100
3, 310680, Note_on_c, 1, 77, 100
3, 310800, Note_on_c, 1, 77, 0
3, 310800, Note_on_c, 1, 69, 0
3, 310800, Note_on_c, 1, 72, 100
3, 310800, Note_on_c, 1, 84, 100
3, 310920, Note_on_c, 1, 84, 0
3, 310920, Note_on_c, 1, 72, 0
3, 310920, Note_on_c, 1, 69, 100
3, 310920, Note_on_c, 1, 81, 100
3, 311040, Note_on_c, 1, 81, 0
3, 311040, Note_on_c, 1, 69, 0
3, 311040, Note_on_c, 1, 77, 100
3, 311160, Note_on_c, 1, 77, 0
3, 311160, Note_on_c, 1, 72, 100
3, 311280, Note_on_c, 1, 72, 0
3, 311280, Note_on_c, 1, 69, 100
3, 311400, Note_on_c, 1, 69, 0
3, 311400, Note_on_c, 1, 69, 100
3, 311400, Note_on_c, 1, 77, 100
3, 311520, Note_on_c, 1, 77, 0
3, 311520, Note_on_c, 1, 69, 0
3, 313080, Note_on_c, 1, 65, 100
3, 313080, Note_on_c, 1, 77, 100
3, 313200, Note_on_c, 1, 77, 0
3, 313200, Note_on_c, 1, 65, 0
3, 313200, Note_on_c, 1, 77, 100
3, 313200, Note_on_c, 1, 65, 100
3, 313230, Note_on_c, 1, 65, 0
3, 313230, Note_on_c, 1, 77, 0
3, 313230, Note_on_c, 1, 69, 100
3, 313230, Note_on_c, 1, 81, 100
3, 313320, Note_on_c, 1, 81, 0
3, 313320, Note_on_c, 1, 69, 0
3, 313320, Note_on_c, 1, 65, 100
3, 313320, Note_on_c, 1, 77, 100
3, 313380, Note_on_c, 1, 77, 0
3, 313380, Note_on_c, 1, 65, 0
3, 313440, Note_on_c, 1, 65, 100
3, 313440, Note_on_c, 1, 77, 100
3, 313560, Note_on_c, 1, 77, 0
3, 313560, Note_on_c, 1, 65, 0
3, 313560, Note_on_c, 1, 65, 100
3, 313560, Note_on_c, 1, 77, 100
3, 313590, Note_on_c, 1, 77, 0
3, 313590, Note_on_c, 1, 65, 0
3, 313590, Note_on_c, 1, 69, 100
3, 313590, Note_on_c, 1, 81, 100
3, 313680, Note_on_c, 1, 81, 0
3, 313680, Note_on_c, 1, 69, 0
3, 313680, Note_on_c, 1, 65, 100
3, 313680, Note_on_c, 1, 77, 100
3, 313800, Note_on_c, 1, 77, 0
3, 313800, Note_on_c, 1, 65, 0
3, 313800, Note_on_c, 1, 65, 100
3, 313800, Note_on_c, 1, 77, 100
3, 313920, Note_on_c, 1, 77, 0
3, 313920, Note_on_c, 1, 65, 0
3, 313920, Note_on_c, 1, 65, 100
3, 313920, Note_on_c, 1, 77, 100
3, 313950, Note_on_c, 1, 77, 0
3, 313950, Note_on_c, 1, 65, 0
3, 313950, Note_on_c, 1, 69, 100
3, 313950, Note_on_c, 1, 81, 100
3, 314040, Note_on_c, 1, 81, 0
3, 314040, Note_on_c, 1, 69, 0
3, 314040, Note_on_c, 1, 65, 100
3, 314040, Note_on_c, 1, 77, 100
3, 314160, Note_on_c, 1, 77, 0
3, 314160, Note_on_c, 1, 65, 0
3, 314160, Note_on_c, 1, 65, 100
3, 314160, Note_on_c, 1, 77, 100
3, 314280, Note_on_c, 1, 77, 0
3, 314280, Note_on_c, 1, 65, 0
3, 314280, Note_on_c, 1, 65, 100
3, 314280, Note_on_c, 1, 77, 100
3, 314310, Note_on_c, 1, 77, 0
3, 314310, Note_on_c, 1, 65, 0
3, 314310, Note_on_c, 1, 69, 100
3, 314310, Note_on_c, 1, 81, 100
3, 314400, Note_on_c, 1, 81, 0
3, 314400, Note_on_c, 1, 69, 0
3, 314400, Note_on_c, 1, 65, 100
3, 314400, Note_on_c, 1, 77, 100
3, 314520, Note_on_c, 1, 77, 0
3, 314520, Note_on_c, 1, 65, 0
3, 314520, Note_on_c, 1, 65, 100
3, 314520, Note_on_c, 1, 77, 100
3, 314640, Note_on_c, 1, 77, 0
3, 314640, Note_on_c, 1, 65, 0
3, 314640, Note_on_c, 1, 69, 100
3, 314640, Note_on_c, 1, 81, 100
3, 316200, Note_on_c, 1, 81, 0
3, 316200, Note_on_c, 1, 69, 0
3, 317520, Note_on_c, 1, 70, 100
3, 317520, Note_on_c, 1, 82, 100
3, 317640, Note_on_c, 1, 82, 0
3, 317640, Note_on_c, 1, 70, 0
3, 317880, Note_on_c, 1, 83, 100
3, 317880, Note_on_c, 1, 71, 100
3, 318000, Note_on_c, 1, 71, 0
3, 318000, Note_on_c, 1, 83, 0
3, 318240, Note_on_c, 1, 84, 100
3, 318240, Note_on_c, 1, 72, 100
3, 318360, Note_on_c, 1, 72, 0
3, 318360, Note_on_c, 1, 84, 0
3, 318600, Note_on_c, 1, 76, 100
3, 318600, Note_on_c, 1, 79, 100
3, 318720, Note_on_c, 1, 79, 0
3, 318720, Note_on_c, 1, 76, 0
3, 318960, Note_on_c, 1, 77, 100
3, 318960, Note_on_c, 1, 81, 100
3, 319080, Note_on_c, 1, 81, 0
3, 319080, Note_on_c, 1, 77, 0
3, 319080, End_track
4, 0, Start_track
4, 0, MIDI_port, 0
4, 0, Title_t, "Clarinets in A"
4, 0, Program_c, 2, 71
4, 0, Control_c, 2, 7, 80
4, 0, Control_c, 2, 10, 65
4, 600, Note_on_c, 2, 69, 100
4, 600, Note_on_c, 2, 77, 100
4, 720, Note_on_c, 2, 77, 0
4, 720, Note_on_c, 2, 69, 0
4, 720, Note_on_c, 2, 77, 100
4, 720, Note_on_c, 2, 69, 100
4, 840, Note_on_c, 2, 69, 0
4, 840, Note_on_c, 2, 77, 0
4, 960, Note_on_c, 2, 69, 100
4, 960, Note_on_c, 2, 77, 100
4, 1080, Note_on_c, 2, 77, 0
4, 1080, Note_on_c, 2, 69, 0
4, 1080, Note_on_c, 2, 77, 100
4, 1080, Note_on_c, 2, 69, 100
4, 1200, Note_on_c, 2, 69, 0
4, 1200, Note_on_c, 2, 77, 0
4, 1320, Note_on_c, 2, 69, 100
4, 1320, Note_on_c, 2, 77, 100
4, 1440, Note_on_c, 2, 77, 0
4, 1440, Note_on_c, 2, 69, 0
4, 1440, Note_on_c, 2, 77, 100
4, 1440, Note_on_c, 2, 69, 100
4, 1560, Note_on_c, 2, 69, 0
4, 1560, Note_on_c, 2, 77, 0
4, 6480, Note_on_c, 2, 71, 100
4, 6480, Note_on_c, 2, 74, 100
4, 6840, Note_on_c, 2, 74, 0
4, 6840, Note_on_c, 2, 71, 0
4, 6840, Note_on_c, 2, 69, 100
4, 6840, Note_on_c, 2, 73, 100
4, 6960, Note_on_c, 2, 73, 0
4, 6960, Note_on_c, 2, 69, 0
4, 7200, Note_on_c, 2, 71, 100
4, 7200, Note_on_c, 2, 74, 100
4, 7560, Note_on_c, 2, 74, 0
4, 7560, Note_on_c, 2, 71, 0
4, 7560, Note_on_c, 2, 69, 100
4, 7560, Note_on_c, 2, 73, 100
4, 7680, Note_on_c, 2, 73, 0
4, 7680, Note_on_c, 2, 69, 0
4, 7920, Note_on_c, 2, 71, 100
4, 7920, Note_on_c, 2, 74, 100
4, 8280, Note_on_c, 2, 74, 0
4, 8280, Note_on_c, 2, 71, 0
4, 8280, Note_on_c, 2, 69, 100
4, 8280, Note_on_c, 2, 73, 100
4, 8400, Note_on_c, 2, 73, 0
4, 8400, Note_on_c, 2, 69, 0
4, 8400, Note_on_c, 2, 76, 100
4, 8520, Note_on_c, 2, 76, 0
4, 8520, Note_on_c, 2, 73, 100
4, 8640, Note_on_c, 2, 73, 0
4, 8640, Note_on_c, 2, 69, 100
4, 8760, Note_on_c, 2, 69, 0
4, 8760, Note_on_c, 2, 64, 100
4, 8880, Note_on_c, 2, 64, 0
4, 8880, Note_on_c, 2, 61, 100
4, 9000, Note_on_c, 2, 61, 0
4, 9000, Note_on_c, 2, 57, 100
4, 9120, Note_on_c, 2, 57, 0
4, 9240, Note_on_c, 2, 69, 100
4, 9240, Note_on_c, 2, 77, 100
4, 9360, Note_on_c, 2, 77, 0
4, 9360, Note_on_c, 2, 69, 0
4, 9360, Note_on_c, 2, 77, 100
4, 9360, Note_on_c, 2, 69, 100
4, 9480, Note_on_c, 2, 69, 0
4, 9480, Note_on_c, 2, 77, 0
4, 9600, Note_on_c, 2, 69, 100
4, 9600, Note_on_c, 2, 77, 100
4, 9720, Note_on_c, 2, 77, 0
4, 9720, Note_on_c, 2, 69, 0
4, 9720, Note_on_c, 2, 77, 100
4, 9720, Note_on_c, 2, 69, 100
4, 9840, Note_on_c, 2, 69, 0
4, 9840, Note_on_c, 2, 77, 0
4, 9960, Note_on_c, 2, 69, 100
4, 9960, Note_on_c, 2, 77, 100
4, 10080, Note_on_c, 2, 77, 0
4, 10080, Note_on_c, 2, 69, 0
4, 10080, Note_on_c, 2, 77, 100
4, 10080, Note_on_c, 2, 69, 100
4, 10200, Note_on_c, 2, 69, 0
4, 10200, Note_on_c, 2, 77, 0
4, 15120, Note_on_c, 2, 71, 100
4, 15120, Note_on_c, 2, 74, 100
4, 15480, Note_on_c, 2, 74, 0
4, 15480, Note_on_c, 2, 71, 0
4, 15480, Note_on_c, 2, 69, 100
4, 15480, Note_on_c, 2, 73, 100
4, 15600, Note_on_c, 2, 73, 0
4, 15600, Note_on_c, 2, 69, 0
4, 15840, Note_on_c, 2, 71, 100
4, 15840, Note_on_c, 2, 74, 100
4, 16200, Note_on_c, 2, 74, 0
4, 16200, Note_on_c, 2, 71, 0
4, 16200, Note_on_c, 2, 69, 100
4, 16200, Note_on_c, 2, 73, 100
4, 16320, Note_on_c, 2, 73, 0
4, 16320, Note_on_c, 2, 69, 0
4, 16560, Note_on_c, 2, 71, 100
4, 16560, Note_on_c, 2, 74, 100
4, 16920, Note_on_c, 2, 74, 0
4, 16920, Note_on_c, 2, 71, 0
4, 16920, Note_on_c, 2, 69, 100
4, 16920, Note_on_c, 2, 73, 100
4, 17040, Note_on_c, 2, 73, 0
4, 17040, Note_on_c, 2, 69, 0
4, 17040, Note_on_c, 2, 76, 100
4, 17160, Note_on_c, 2, 76, 0
4, 17160, Note_on_c, 2, 73, 100
4, 17280, Note_on_c, 2, 73, 0
4, 17280, Note_on_c, 2, 69, 100
4, 17400, Note_on_c, 2, 69, 0
4, 17400, Note_on_c, 2, 64, 100
4, 17520, Note_on_c, 2, 64, 0
4, 17520, Note_on_c, 2, 61, 100
4, 17640, Note_on_c, 2, 61, 0
4, 17640, Note_on_c, 2, 57, 100
4, 17760, Note_on_c, 2, 57, 0
4, 19320, Note_on_c, 2, 73, 100
4, 19320, Note_on_c, 2, 76, 100
4, 19440, Note_on_c, 2, 76, 0
4, 19440, Note_on_c, 2, 73, 0
4, 19440, Note_on_c, 2, 74, 100
4, 19440, Note_on_c, 2, 78, 100
4, 19560, Note_on_c, 2, 78, 0
4, 19560, Note_on_c, 2, 74, 0
4, 19560, Note_on_c, 2, 74, 100
4, 19560, Note_on_c, 2, 78, 100
4, 19680, Note_on_c, 2, 78, 0
4, 19680, Note_on_c, 2, 74, 0
4, 19680, Note_on_c, 2, 76, 100
4, 19680, Note_on_c, 2, 73, 100
4, 19800, Note_on_c, 2, 73, 0
4, 19800, Note_on_c, 2, 76, 0
4, 19800, Note_on_c, 2, 80, 100
4, 19800, Note_on_c, 2, 71, 100
4, 20040, Note_on_c, 2, 71, 0
4, 20040, Note_on_c, 2, 80, 0
4, 20040, Note_on_c, 2, 69, 100
4, 20040, Note_on_c, 2, 81, 100
4, 20160, Note_on_c, 2, 81, 0
4, 20160, Note_on_c, 2, 69, 0
4, 20160, Note_on_c, 2, 74, 100
4, 20160, Note_on_c, 2, 78, 100
4, 20280, Note_on_c, 2, 78, 0
4, 20280, Note_on_c, 2, 74, 0
4, 20280, Note_on_c, 2, 74, 100
4, 20280, Note_on_c, 2, 78, 100
4, 20400, Note_on_c, 2, 78, 0
4, 20400, Note_on_c, 2, 74, 0
4, 20400, Note_on_c, 2, 73, 100
4, 20400, Note_on_c, 2, 76, 100
4, 20520, Note_on_c, 2, 76, 0
4, 20520, Note_on_c, 2, 73, 0
4, 20520, Note_on_c, 2, 80, 100
4, 20520, Note_on_c, 2, 71, 100
4, 20760, Note_on_c, 2, 71, 0
4, 20760, Note_on_c, 2, 80, 0
4, 20760, Note_on_c, 2, 69, 100
4, 20760, Note_on_c, 2, 81, 100
4, 20880, Note_on_c, 2, 81, 0
4, 20880, Note_on_c, 2, 69, 0
4, 20880, Note_on_c, 2, 80, 100
4, 20880, Note_on_c, 2, 71, 100
4, 21120, Note_on_c, 2, 71, 0
4, 21120, Note_on_c, 2, 80, 0
4, 21120, Note_on_c, 2, 69, 100
4, 21120, Note_on_c, 2, 81, 100
4, 21240, Note_on_c, 2, 81, 0
4, 21240, Note_on_c, 2, 69, 0
4, 21240, Note_on_c, 2, 80, 100
4, 21240, Note_on_c, 2, 71, 100
4, 21480, Note_on_c, 2, 71, 0
4, 21480, Note_on_c, 2, 80, 0
4, 21480, Note_on_c, 2, 69, 100
4, 21480, Note_on_c, 2, 81, 100
4, 21600, Note_on_c, 2, 81, 0
4, 21600, Note_on_c, 2, 69, 0
4, 21600, Note_on_c, 2, 80, 100
4, 21600, Note_on_c, 2, 71, 100
4, 21840, Note_on_c, 2, 71, 0
4, 21840, Note_on_c, 2, 80, 0
4, 21840, Note_on_c, 2, 69, 100
4, 21840, Note_on_c, 2, 81, 100
4, 21960, Note_on_c, 2, 81, 0
4, 21960, Note_on_c, 2, 69, 0
4, 21960, Note_on_c, 2, 80, 100
4, 21960, Note_on_c, 2, 71, 100
4, 22200, Note_on_c, 2, 71, 0
4, 22200, Note_on_c, 2, 80, 0
4, 22200, Note_on_c, 2, 69, 100
4, 22200, Note_on_c, 2, 81, 100
4, 22320, Note_on_c, 2, 81, 0
4, 22320, Note_on_c, 2, 69, 0
4, 24720, Note_on_c, 2, 74, 100
4, 24720, Note_on_c, 2, 77, 100
4, 24840, Note_on_c, 2, 77, 0
4, 24840, Note_on_c, 2, 74, 0
4, 24840, Note_on_c, 2, 74, 100
4, 24840, Note_on_c, 2, 77, 100
4, 24960, Note_on_c, 2, 77, 0
4, 24960, Note_on_c, 2, 74, 0
4, 40920, Note_on_c, 2, 77, 100
4, 40920, Note_on_c, 2, 69, 100
4, 41040, Note_on_c, 2, 69, 0
4, 41040, Note_on_c, 2, 77, 0
4, 41040, Note_on_c, 2, 69, 100
4, 41040, Note_on_c, 2, 77, 100
4, 41160, Note_on_c, 2, 77, 0
4, 41160, Note_on_c, 2, 69, 0
4, 41280, Note_on_c, 2, 69, 100
4, 41280, Note_on_c, 2, 77, 100
4, 41400, Note_on_c, 2, 77, 0
4, 41400, Note_on_c, 2, 69, 0
4, 41400, Note_on_c, 2, 69, 100
4, 41400, Note_on_c, 2, 77, 100
4, 41520, Note_on_c, 2, 77, 0
4, 41520, Note_on_c, 2, 69, 0
4, 41640, Note_on_c, 2, 69, 100
4, 41640, Note_on_c, 2, 77, 100
4, 41760, Note_on_c, 2, 77, 0
4, 41760, Note_on_c, 2, 69, 0
4, 41760, Note_on_c, 2, 65, 100
4, 41760, Note_on_c, 2, 77, 100
4, 42960, Note_on_c, 2, 77, 0
4, 42960, Note_on_c, 2, 65, 0
4, 42960, Note_on_c, 2, 67, 100
4, 42960, Note_on_c, 2, 79, 100
4, 43080, Note_on_c, 2, 79, 0
4, 43080, Note_on_c, 2, 67, 0
4, 43080, Note_on_c, 2, 67, 100
4, 43080, Note_on_c, 2, 79, 100
4, 43200, Note_on_c, 2, 79, 0
4, 43200, Note_on_c, 2, 67, 0
4, 43200, Note_on_c, 2, 67, 100
4, 43200, Note_on_c, 2, 79, 100
4, 44400, Note_on_c, 2, 79, 0
4, 44400, Note_on_c, 2, 67, 0
4, 44400, Note_on_c, 2, 69, 100
4, 44400, Note_on_c, 2, 81, 100
4, 44520, Note_on_c, 2, 81, 0
4, 44520, Note_on_c, 2, 69, 0
4, 44520, Note_on_c, 2, 69, 100
4, 44520, Note_on_c, 2, 81, 100
4, 44640, Note_on_c, 2, 81, 0
4, 44640, Note_on_c, 2, 69, 0
4, 51480, Note_on_c, 2, 64, 100
4, 51480, Note_on_c, 2, 67, 100
4, 51600, Note_on_c, 2, 67, 0
4, 51600, Note_on_c, 2, 64, 0
4, 51600, Note_on_c, 2, 64, 100
4, 51600, Note_on_c, 2, 67, 100
4, 51720, Note_on_c, 2, 67, 0
4, 51720, Note_on_c, 2, 64, 0
4, 51720, Note_on_c, 2, 64, 100
4, 51720, Note_on_c, 2, 67, 100
4, 51840, Note_on_c, 2, 67, 0
4, 51840, Note_on_c, 2, 64, 0
4, 52200, Note_on_c, 2, 64, 100
4, 52200, Note_on_c, 2, 67, 100
4, 52320, Note_on_c, 2, 67, 0
4, 52320, Note_on_c, 2, 64, 0
4, 52320, Note_on_c, 2, 64, 100
4, 52320, Note_on_c, 2, 67, 100
4, 52440, Note_on_c, 2, 67, 0
4, 52440, Note_on_c, 2, 64, 0
4, 52440, Note_on_c, 2, 64, 100
4, 52440, Note_on_c, 2, 67, 100
4, 52560, Note_on_c, 2, 67, 0
4, 52560, Note_on_c, 2, 64, 0
4, 52920, Note_on_c, 2, 64, 100
4, 52920, Note_on_c, 2, 67, 100
4, 53040, Note_on_c, 2, 67, 0
4, 53040, Note_on_c, 2, 64, 0
4, 53040, Note_on_c, 2, 64, 100
4, 53040, Note_on_c, 2, 67, 100
4, 53160, Note_on_c, 2, 67, 0
4, 53160, Note_on_c, 2, 64, 0
4, 53160, Note_on_c, 2, 64, 100
4, 53160, Note_on_c, 2, 67, 100
4, 53280, Note_on_c, 2, 67, 0
4, 53280, Note_on_c, 2, 64, 0
4, 53640, Note_on_c, 2, 64, 100
4, 53640, Note_on_c, 2, 67, 100
4, 53760, Note_on_c, 2, 67, 0
4, 53760, Note_on_c, 2, 64, 0
4, 53760, Note_on_c, 2, 64, 100
4, 53760, Note_on_c, 2, 67, 100
4, 53880, Note_on_c, 2, 67, 0
4, 53880, Note_on_c, 2, 64, 0
4, 53880, Note_on_c, 2, 64, 100
4, 53880, Note_on_c, 2, 67, 100
4, 54000, Note_on_c, 2, 67, 0
4, 54000, Note_on_c, 2, 64, 0
4, 54360, Note_on_c, 2, 69, 100
4, 54360, Note_on_c, 2, 77, 100
4, 54480, Note_on_c, 2, 77, 0
4, 54480, Note_on_c, 2, 69, 0
4, 54480, Note_on_c, 2, 69, 100
4, 54480, Note_on_c, 2, 77, 100
4, 54600, Note_on_c, 2, 77, 0
4, 54600, Note_on_c, 2, 69, 0
4, 54600, Note_on_c, 2, 69, 100
4, 54600, Note_on_c, 2, 77, 100
4, 54720, Note_on_c, 2, 77, 0
4, 54720, Note_on_c, 2, 69, 0
4, 55080, Note_on_c, 2, 69, 100
4, 55080, Note_on_c, 2, 77, 100
4, 55200, Note_on_c, 2, 77, 0
4, 55200, Note_on_c, 2, 69, 0
4, 55200, Note_on_c, 2, 69, 100
4, 55200, Note_on_c, 2, 77, 100
4, 55320, Note_on_c, 2, 77, 0
4, 55320, Note_on_c, 2, 69, 0
4, 55320, Note_on_c, 2, 69, 100
4, 55320, Note_on_c, 2, 77, 100
4, 55440, Note_on_c, 2, 77, 0
4, 55440, Note_on_c, 2, 69, 0
4, 55800, Note_on_c, 2, 69, 100
4, 55800, Note_on_c, 2, 77, 100
4, 55920, Note_on_c, 2, 77, 0
4, 55920, Note_on_c, 2, 69, 0
4, 55920, Note_on_c, 2, 69, 100
4, 55920, Note_on_c, 2, 77, 100
4, 56040, Note_on_c, 2, 77, 0
4, 56040, Note_on_c, 2, 69, 0
4, 56040, Note_on_c, 2, 69, 100
4, 56040, Note_on_c, 2, 77, 100
4, 56160, Note_on_c, 2, 77, 0
4, 56160, Note_on_c, 2, 69, 0
4, 56520, Note_on_c, 2, 69, 100
4, 56520, Note_on_c, 2, 77, 100
4, 56640, Note_on_c, 2, 77, 0
4, 56640, Note_on_c, 2, 69, 0
4, 56640, Note_on_c, 2, 69, 100
4, 56640, Note_on_c, 2, 77, 100
4, 56760, Note_on_c, 2, 77, 0
4, 56760, Note_on_c, 2, 69, 0
4, 56760, Note_on_c, 2, 69, 100
4, 56760, Note_on_c, 2, 77, 100
4, 56880, Note_on_c, 2, 77, 0
4, 56880, Note_on_c, 2, 69, 0
4, 57240, Note_on_c, 2, 69, 100
4, 57240, Note_on_c, 2, 77, 100
4, 57360, Note_on_c, 2, 77, 0
4, 57360, Note_on_c, 2, 69, 0
4, 57360, Note_on_c, 2, 69, 100
4, 57360, Note_on_c, 2, 77, 100
4, 57480, Note_on_c, 2, 77, 0
4, 57480, Note_on_c, 2, 69, 0
4, 57480, Note_on_c, 2, 69, 100
4, 57480, Note_on_c, 2, 77, 100
4, 57600, Note_on_c, 2, 77, 0
4, 57600, Note_on_c, 2, 69, 0
4, 57600, Note_on_c, 2, 69, 100
4, 57600, Note_on_c, 2, 77, 100
4, 57720, Note_on_c, 2, 77, 0
4, 57720, Note_on_c, 2, 69, 0
4, 57720, Note_on_c, 2, 69, 100
4, 57720, Note_on_c, 2, 77, 100
4, 57840, Note_on_c, 2, 77, 0
4, 57840, Note_on_c, 2, 69, 0
4, 57840, Note_on_c, 2, 69, 100
4, 57840, Note_on_c, 2, 77, 100
4, 57960, Note_on_c, 2, 77, 0
4, 57960, Note_on_c, 2, 69, 0
4, 57960, Note_on_c, 2, 69, 100
4, 57960, Note_on_c, 2, 77, 100
4, 58080, Note_on_c, 2, 77, 0
4, 58080, Note_on_c, 2, 69, 0
4, 59640, Note_on_c, 2, 65, 100
4, 59640, Note_on_c, 2, 77, 100
4, 59760, Note_on_c, 2, 77, 0
4, 59760, Note_on_c, 2, 65, 0
4, 59760, Note_on_c, 2, 81, 100
4, 59760, Note_on_c, 2, 69, 100
4, 59880, Note_on_c, 2, 69, 0
4, 59880, Note_on_c, 2, 81, 0
4, 60120, Note_on_c, 2, 81, 100
4, 60120, Note_on_c, 2, 69, 100
4, 60240, Note_on_c, 2, 69, 0
4, 60240, Note_on_c, 2, 81, 0
4, 60480, Note_on_c, 2, 81, 100
4, 60480, Note_on_c, 2, 69, 100
4, 60600, Note_on_c, 2, 69, 0
4, 60600, Note_on_c, 2, 81, 0
4, 60840, Note_on_c, 2, 81, 100
4, 60840, Note_on_c, 2, 69, 100
4, 60960, Note_on_c, 2, 69, 0
4, 60960, Note_on_c, 2, 81, 0
4, 61200, Note_on_c, 2, 81, 100
4, 61200, Note_on_c, 2, 69, 100
4, 61320, Note_on_c, 2, 69, 0
4, 61320, Note_on_c, 2, 81, 0
4, 63960, Note_on_c, 2, 73, 100
4, 63960, Note_on_c, 2, 76, 100
4, 64080, Note_on_c, 2, 76, 0
4, 64080, Note_on_c, 2, 73, 0
4, 64080, Note_on_c, 2, 74, 100
4, 64080, Note_on_c, 2, 78, 100
4, 64200, Note_on_c, 2, 78, 0
4, 64200, Note_on_c, 2, 74, 0
4, 64200, Note_on_c, 2, 74, 100
4, 64200, Note_on_c, 2, 78, 100
4, 64320, Note_on_c, 2, 78, 0
4, 64320, Note_on_c, 2, 74, 0
4, 64320, Note_on_c, 2, 76, 100
4, 64320, Note_on_c, 2, 73, 100
4, 64440, Note_on_c, 2, 73, 0
4, 64440, Note_on_c, 2, 76, 0
4, 64440, Note_on_c, 2, 80, 100
4, 64440, Note_on_c, 2, 71, 100
4, 64680, Note_on_c, 2, 71, 0
4, 64680, Note_on_c, 2, 80, 0
4, 64680, Note_on_c, 2, 69, 100
4, 64680, Note_on_c, 2, 81, 100
4, 64800, Note_on_c, 2, 81, 0
4, 64800, Note_on_c, 2, 69, 0
4, 64800, Note_on_c, 2, 74, 100
4, 64800, Note_on_c, 2, 78, 100
4, 64920, Note_on_c, 2, 78, 0
4, 64920, Note_on_c, 2, 74, 0
4, 64920, Note_on_c, 2, 74, 100
4, 64920, Note_on_c, 2, 78, 100
4, 65040, Note_on_c, 2, 78, 0
4, 65040, Note_on_c, 2, 74, 0
4, 65040, Note_on_c, 2, 73, 100
4, 65040, Note_on_c, 2, 76, 100
4, 65160, Note_on_c, 2, 76, 0
4, 65160, Note_on_c, 2, 73, 0
4, 65160, Note_on_c, 2, 80, 100
4, 65160, Note_on_c, 2, 71, 100
4, 65400, Note_on_c, 2, 71, 0
4, 65400, Note_on_c, 2, 80, 0
4, 65400, Note_on_c, 2, 69, 100
4, 65400, Note_on_c, 2, 81, 100
4, 65520, Note_on_c, 2, 81, 0
4, 65520, Note_on_c, 2, 69, 0
4, 65520, Note_on_c, 2, 80, 100
4, 65520, Note_on_c, 2, 71, 100
4, 65760, Note_on_c, 2, 71, 0
4, 65760, Note_on_c, 2, 80, 0
4, 65760, Note_on_c, 2, 69, 100
4, 65760, Note_on_c, 2, 81, 100
4, 65880, Note_on_c, 2, 81, 0
4, 65880, Note_on_c, 2, 69, 0
4, 65880, Note_on_c, 2, 80, 100
4, 65880, Note_on_c, 2, 71, 100
4, 66120, Note_on_c, 2, 71, 0
4, 66120, Note_on_c, 2, 80, 0
4, 66120, Note_on_c, 2, 69, 100
4, 66120, Note_on_c, 2, 81, 100
4, 66240, Note_on_c, 2, 81, 0
4, 66240, Note_on_c, 2, 69, 0
4, 66240, Note_on_c, 2, 80, 100
4, 66240, Note_on_c, 2, 71, 100
4, 66480, Note_on_c, 2, 71, 0
4, 66480, Note_on_c, 2, 80, 0
4, 66480, Note_on_c, 2, 69, 100
4, 66480, Note_on_c, 2, 81, 100
4, 66600, Note_on_c, 2, 81, 0
4, 66600, Note_on_c, 2, 69, 0
4, 66600, Note_on_c, 2, 80, 100
4, 66600, Note_on_c, 2, 71, 100
4, 66840, Note_on_c, 2, 71, 0
4, 66840, Note_on_c, 2, 80, 0
4, 66840, Note_on_c, 2, 69, 100
4, 66840, Note_on_c, 2, 81, 100
4, 66960, Note_on_c, 2, 81, 0
4, 66960, Note_on_c, 2, 69, 0
4, 69360, Note_on_c, 2, 74, 100
4, 69360, Note_on_c, 2, 77, 100
4, 69480, Note_on_c, 2, 77, 0
4, 69480, Note_on_c, 2, 74, 0
4, 69480, Note_on_c, 2, 74, 100
4, 69480, Note_on_c, 2, 77, 100
4, 69600, Note_on_c, 2, 77, 0
4, 69600, Note_on_c, 2, 74, 0
4, 85560, Note_on_c, 2, 77, 100
4, 85560, Note_on_c, 2, 69, 100
4, 85680, Note_on_c, 2, 69, 0
4, 85680, Note_on_c, 2, 77, 0
4, 85680, Note_on_c, 2, 69, 100
4, 85680, Note_on_c, 2, 77, 100
4, 85800, Note_on_c, 2, 77, 0
4, 85800, Note_on_c, 2, 69, 0
4, 85920, Note_on_c, 2, 69, 100
4, 85920, Note_on_c, 2, 77, 100
4, 86040, Note_on_c, 2, 77, 0
4, 86040, Note_on_c, 2, 69, 0
4, 86040, Note_on_c, 2, 69, 100
4, 86040, Note_on_c, 2, 77, 100
4, 86160, Note_on_c, 2, 77, 0
4, 86160, Note_on_c, 2, 69, 0
4, 86280, Note_on_c, 2, 69, 100
4, 86280, Note_on_c, 2, 77, 100
4, 86400, Note_on_c, 2, 77, 0
4, 86400, Note_on_c, 2, 69, 0
4, 86400, Note_on_c, 2, 65, 100
4, 86400, Note_on_c, 2, 77, 100
4, 87600, Note_on_c, 2, 77, 0
4, 87600, Note_on_c, 2, 65, 0
4, 87600, Note_on_c, 2, 67, 100
4, 87600, Note_on_c, 2, 79, 100
4, 87720, Note_on_c, 2, 79, 0
4, 87720, Note_on_c, 2, 67, 0
4, 87720, Note_on_c, 2, 67, 100
4, 87720, Note_on_c, 2, 79, 100
4, 87840, Note_on_c, 2, 79, 0
4, 87840, Note_on_c, 2, 67, 0
4, 87840, Note_on_c, 2, 67, 100
4, 87840, Note_on_c, 2, 79, 100
4, 89040, Note_on_c, 2, 79, 0
4, 89040, Note_on_c, 2, 67, 0
4, 89040, Note_on_c, 2, 69, 100
4, 89040, Note_on_c, 2, 81, 100
4, 89160, Note_on_c, 2, 81, 0
4, 89160, Note_on_c, 2, 69, 0
4, 89160, Note_on_c, 2, 69, 100
4, 89160, Note_on_c, 2, 81, 100
4, 89280, Note_on_c, 2, 81, 0
4, 89280, Note_on_c, 2, 69, 0
4, 96120, Note_on_c, 2, 64, 100
4, 96120, Note_on_c, 2, 67, 100
4, 96240, Note_on_c, 2, 67, 0
4, 96240, Note_on_c, 2, 64, 0
4, 96240, Note_on_c, 2, 64, 100
4, 96240, Note_on_c, 2, 67, 100
4, 96360, Note_on_c, 2, 67, 0
4, 96360, Note_on_c, 2, 64, 0
4, 96360, Note_on_c, 2, 64, 100
4, 96360, Note_on_c, 2, 67, 100
4, 96480, Note_on_c, 2, 67, 0
4, 96480, Note_on_c, 2, 64, 0
4, 96840, Note_on_c, 2, 64, 100
4, 96840, Note_on_c, 2, 67, 100
4, 96960, Note_on_c, 2, 67, 0
4, 96960, Note_on_c, 2, 64, 0
4, 96960, Note_on_c, 2, 64, 100
4, 96960, Note_on_c, 2, 67, 100
4, 97080, Note_on_c, 2, 67, 0
4, 97080, Note_on_c, 2, 64, 0
4, 97080, Note_on_c, 2, 64, 100
4, 97080, Note_on_c, 2, 67, 100
4, 97200, Note_on_c, 2, 67, 0
4, 97200, Note_on_c, 2, 64, 0
4, 97560, Note_on_c, 2, 64, 100
4, 97560, Note_on_c, 2, 67, 100
4, 97680, Note_on_c, 2, 67, 0
4, 97680, Note_on_c, 2, 64, 0
4, 97680, Note_on_c, 2, 64, 100
4, 97680, Note_on_c, 2, 67, 100
4, 97800, Note_on_c, 2, 67, 0
4, 97800, Note_on_c, 2, 64, 0
4, 97800, Note_on_c, 2, 64, 100
4, 97800, Note_on_c, 2, 67, 100
4, 97920, Note_on_c, 2, 67, 0
4, 97920, Note_on_c, 2, 64, 0
4, 98280, Note_on_c, 2, 64, 100
4, 98280, Note_on_c, 2, 67, 100
4, 98400, Note_on_c, 2, 67, 0
4, 98400, Note_on_c, 2, 64, 0
4, 98400, Note_on_c, 2, 64, 100
4, 98400, Note_on_c, 2, 67, 100
4, 98520, Note_on_c, 2, 67, 0
4, 98520, Note_on_c, 2, 64, 0
4, 98520, Note_on_c, 2, 64, 100
4, 98520, Note_on_c, 2, 67, 100
4, 98640, Note_on_c, 2, 67, 0
4, 98640, Note_on_c, 2, 64, 0
4, 99000, Note_on_c, 2, 69, 100
4, 99000, Note_on_c, 2, 77, 100
4, 99120, Note_on_c, 2, 77, 0
4, 99120, Note_on_c, 2, 69, 0
4, 99120, Note_on_c, 2, 69, 100
4, 99120, Note_on_c, 2, 77, 100
4, 99240, Note_on_c, 2, 77, 0
4, 99240, Note_on_c, 2, 69, 0
4, 99240, Note_on_c, 2, 69, 100
4, 99240, Note_on_c, 2, 77, 100
4, 99360, Note_on_c, 2, 77, 0
4, 99360, Note_on_c, 2, 69, 0
4, 99720, Note_on_c, 2, 69, 100
4, 99720, Note_on_c, 2, 77, 100
4, 99840, Note_on_c, 2, 77, 0
4, 99840, Note_on_c, 2, 69, 0
4, 99840, Note_on_c, 2, 69, 100
4, 99840, Note_on_c, 2, 77, 100
4, 99960, Note_on_c, 2, 77, 0
4, 99960, Note_on_c, 2, 69, 0
4, 99960, Note_on_c, 2, 69, 100
4, 99960, Note_on_c, 2, 77, 100
4, 100080, Note_on_c, 2, 77, 0
4, 100080, Note_on_c, 2, 69, 0
4, 100440, Note_on_c, 2, 69, 100
4, 100440, Note_on_c, 2, 77, 100
4, 100560, Note_on_c, 2, 77, 0
4, 100560, Note_on_c, 2, 69, 0
4, 100560, Note_on_c, 2, 69, 100
4, 100560, Note_on_c, 2, 77, 100
4, 100680, Note_on_c, 2, 77, 0
4, 100680, Note_on_c, 2, 69, 0
4, 100680, Note_on_c, 2, 69, 100
4, 100680, Note_on_c, 2, 77, 100
4, 100800, Note_on_c, 2, 77, 0
4, 100800, Note_on_c, 2, 69, 0
4, 101160, Note_on_c, 2, 69, 100
4, 101160, Note_on_c, 2, 77, 100
4, 101280, Note_on_c, 2, 77, 0
4, 101280, Note_on_c, 2, 69, 0
4, 101280, Note_on_c, 2, 69, 100
4, 101280, Note_on_c, 2, 77, 100
4, 101400, Note_on_c, 2, 77, 0
4, 101400, Note_on_c, 2, 69, 0
4, 101400, Note_on_c, 2, 69, 100
4, 101400, Note_on_c, 2, 77, 100
4, 101520, Note_on_c, 2, 77, 0
4, 101520, Note_on_c, 2, 69, 0
4, 101880, Note_on_c, 2, 69, 100
4, 101880, Note_on_c, 2, 77, 100
4, 102000, Note_on_c, 2, 77, 0
4, 102000, Note_on_c, 2, 69, 0
4, 102000, Note_on_c, 2, 69, 100
4, 102000, Note_on_c, 2, 77, 100
4, 102120, Note_on_c, 2, 77, 0
4, 102120, Note_on_c, 2, 69, 0
4, 102120, Note_on_c, 2, 69, 100
4, 102120, Note_on_c, 2, 77, 100
4, 102240, Note_on_c, 2, 77, 0
4, 102240, Note_on_c, 2, 69, 0
4, 102240, Note_on_c, 2, 69, 100
4, 102240, Note_on_c, 2, 77, 100
4, 102360, Note_on_c, 2, 77, 0
4, 102360, Note_on_c, 2, 69, 0
4, 102360, Note_on_c, 2, 69, 100
4, 102360, Note_on_c, 2, 77, 100
4, 102480, Note_on_c, 2, 77, 0
4, 102480, Note_on_c, 2, 69, 0
4, 102480, Note_on_c, 2, 69, 100
4, 102480, Note_on_c, 2, 77, 100
4, 102600, Note_on_c, 2, 77, 0
4, 102600, Note_on_c, 2, 69, 0
4, 102600, Note_on_c, 2, 69, 100
4, 102600, Note_on_c, 2, 77, 100
4, 102720, Note_on_c, 2, 77, 0
4, 102720, Note_on_c, 2, 69, 0
4, 104280, Note_on_c, 2, 65, 100
4, 104280, Note_on_c, 2, 77, 100
4, 104400, Note_on_c, 2, 77, 0
4, 104400, Note_on_c, 2, 65, 0
4, 104400, Note_on_c, 2, 81, 100
4, 104400, Note_on_c, 2, 69, 100
4, 104520, Note_on_c, 2, 69, 0
4, 104520, Note_on_c, 2, 81, 0
4, 104760, Note_on_c, 2, 81, 100
4, 104760, Note_on_c, 2, 69, 100
4, 104880, Note_on_c, 2, 69, 0
4, 104880, Note_on_c, 2, 81, 0
4, 105120, Note_on_c, 2, 81, 100
4, 105120, Note_on_c, 2, 69, 100
4, 105240, Note_on_c, 2, 69, 0
4, 105240, Note_on_c, 2, 81, 0
4, 105480, Note_on_c, 2, 81, 100
4, 105480, Note_on_c, 2, 69, 100
4, 105600, Note_on_c, 2, 69, 0
4, 105600, Note_on_c, 2, 81, 0
4, 105840, Note_on_c, 2, 81, 100
4, 105840, Note_on_c, 2, 69, 100
4, 105960, Note_on_c, 2, 69, 0
4, 105960, Note_on_c, 2, 81, 0
4, 107280, Note_on_c, 2, 74, 100
4, 107280, Note_on_c, 2, 66, 100
4, 107580, Note_on_c, 2, 66, 0
4, 107580, Note_on_c, 2, 74, 0
4, 107580, Note_on_c, 2, 64, 100
4, 107580, Note_on_c, 2, 73, 100
4, 107640, Note_on_c, 2, 73, 0
4, 107640, Note_on_c, 2, 64, 0
4, 107640, Note_on_c, 2, 74, 100
4, 107640, Note_on_c, 2, 66, 100
4, 107760, Note_on_c, 2, 66, 0
4, 107760, Note_on_c, 2, 74, 0
4, 108000, Note_on_c, 2, 74, 100
4, 108000, Note_on_c, 2, 66, 100
4, 108300, Note_on_c, 2, 66, 0
4, 108300, Note_on_c, 2, 74, 0
4, 108300, Note_on_c, 2, 64, 100
4, 108300, Note_on_c, 2, 73, 100
4, 108360, Note_on_c, 2, 73, 0
4, 108360, Note_on_c, 2, 64, 0
4, 108360, Note_on_c, 2, 74, 100
4, 108360, Note_on_c, 2, 66, 100
4, 108480, Note_on_c, 2, 66, 0
4, 108480, Note_on_c, 2, 74, 0
4, 108720, Note_on_c, 2, 74, 100
4, 108720, Note_on_c, 2, 66, 100
4, 108960, Note_on_c, 2, 66, 0
4, 108960, Note_on_c, 2, 74, 0
4, 108960, Note_on_c, 2, 67, 100
4, 108960, Note_on_c, 2, 76, 100
4, 109080, Note_on_c, 2, 76, 0
4, 109080, Note_on_c, 2, 67, 0
4, 109080, Note_on_c, 2, 74, 100
4, 109080, Note_on_c, 2, 78, 100
4, 109200, Note_on_c, 2, 78, 0
4, 109200, Note_on_c, 2, 74, 0
4, 109200, Note_on_c, 2, 79, 100
4, 109200, Note_on_c, 2, 76, 100
4, 109320, Note_on_c, 2, 76, 0
4, 109320, Note_on_c, 2, 79, 0
4, 109320, Note_on_c, 2, 74, 100
4, 109320, Note_on_c, 2, 78, 100
4, 109440, Note_on_c, 2, 78, 0
4, 109440, Note_on_c, 2, 74, 0
4, 109440, Note_on_c, 2, 73, 100
4, 109440, Note_on_c, 2, 76, 100
4, 109560, Note_on_c, 2, 76, 0
4, 109560, Note_on_c, 2, 73, 0
4, 110160, Note_on_c, 2, 73, 100
4, 110160, Note_on_c, 2, 76, 100
4, 110460, Note_on_c, 2, 76, 0
4, 110460, Note_on_c, 2, 73, 0
4, 110460, Note_on_c, 2, 72, 100
4, 110460, Note_on_c, 2, 75, 100
4, 110520, Note_on_c, 2, 75, 0
4, 110520, Note_on_c, 2, 72, 0
4, 110520, Note_on_c, 2, 76, 100
4, 110520, Note_on_c, 2, 73, 100
4, 110640, Note_on_c, 2, 73, 0
4, 110640, Note_on_c, 2, 76, 0
4, 110880, Note_on_c, 2, 73, 100
4, 110880, Note_on_c, 2, 76, 100
4, 111180, Note_on_c, 2, 76, 0
4, 111180, Note_on_c, 2, 73, 0
4, 111180, Note_on_c, 2, 75, 100
4, 111180, Note_on_c, 2, 72, 100
4, 111240, Note_on_c, 2, 72, 0
4, 111240, Note_on_c, 2, 75, 0
4, 111240, Note_on_c, 2, 76, 100
4, 111240, Note_on_c, 2, 73, 100
4, 111360, Note_on_c, 2, 73, 0
4, 111360, Note_on_c, 2, 76, 0
4, 111600, Note_on_c, 2, 73, 100
4, 111600, Note_on_c, 2, 76, 100
4, 111840, Note_on_c, 2, 76, 0
4, 111840, Note_on_c, 2, 73, 0
4, 111840, Note_on_c, 2, 78, 100
4, 111840, Note_on_c, 2, 74, 100
4, 111960, Note_on_c, 2, 74, 0
4, 111960, Note_on_c, 2, 78, 0
4, 111960, Note_on_c, 2, 81, 100
4, 111960, Note_on_c, 2, 78, 100
4, 112080, Note_on_c, 2, 78, 0
4, 112080, Note_on_c, 2, 81, 0
4, 112080, Note_on_c, 2, 76, 100
4, 112080, Note_on_c, 2, 79, 100
4, 112200, Note_on_c, 2, 79, 0
4, 112200, Note_on_c, 2, 76, 0
4, 112200, Note_on_c, 2, 67, 100
4, 112200, Note_on_c, 2, 76, 100
4, 112320, Note_on_c, 2, 76, 0
4, 112320, Note_on_c, 2, 67, 0
4, 112320, Note_on_c, 2, 74, 100
4, 112320, Note_on_c, 2, 66, 100
4, 112440, Note_on_c, 2, 66, 0
4, 112440, Note_on_c, 2, 74, 0
4, 113040, Note_on_c, 2, 62, 100
4, 113040, Note_on_c, 2, 66, 100
4, 113340, Note_on_c, 2, 66, 0
4, 113340, Note_on_c, 2, 62, 0
4, 113340, Note_on_c, 2, 67, 100
4, 113340, Note_on_c, 2, 64, 100
4, 113400, Note_on_c, 2, 64, 0
4, 113400, Note_on_c, 2, 67, 0
4, 113400, Note_on_c, 2, 62, 100
4, 113400, Note_on_c, 2, 66, 100
4, 113520, Note_on_c, 2, 66, 0
4, 113520, Note_on_c, 2, 62, 0
4, 113760, Note_on_c, 2, 62, 100
4, 113760, Note_on_c, 2, 66, 100
4, 114060, Note_on_c, 2, 66, 0
4, 114060, Note_on_c, 2, 62, 0
4, 114060, Note_on_c, 2, 67, 100
4, 114060, Note_on_c, 2, 64, 100
4, 114120, Note_on_c, 2, 64, 0
4, 114120, Note_on_c, 2, 67, 0
4, 114120, Note_on_c, 2, 66, 100
4, 114120, Note_on_c, 2, 62, 100
4, 114240, Note_on_c, 2, 62, 0
4, 114240, Note_on_c, 2, 66, 0
4, 114480, Note_on_c, 2, 62, 100
4, 114480, Note_on_c, 2, 66, 100
4, 114720, Note_on_c, 2, 66, 0
4, 114720, Note_on_c, 2, 62, 0
4, 114720, Note_on_c, 2, 64, 100
4, 114720, Note_on_c, 2, 67, 100
4, 114840, Note_on_c, 2, 67, 0
4, 114840, Note_on_c, 2, 64, 0
4, 114840, Note_on_c, 2, 62, 100
4, 114840, Note_on_c, 2, 66, 100
4, 114960, Note_on_c, 2, 66, 0
4, 114960, Note_on_c, 2, 62, 0
4, 114960, Note_on_c, 2, 64, 100
4, 114960, Note_on_c, 2, 67, 100
4, 115080, Note_on_c, 2, 67, 0
4, 115080, Note_on_c, 2, 64, 0
4, 115080, Note_on_c, 2, 62, 100
4, 115080, Note_on_c, 2, 66, 100
4, 115200, Note_on_c, 2, 66, 0
4, 115200, Note_on_c, 2, 62, 0
4, 115200, Note_on_c, 2, 61, 100
4, 115200, Note_on_c, 2, 64, 100
4, 115320, Note_on_c, 2, 64, 0
4, 115320, Note_on_c, 2, 61, 0
4, 115920, Note_on_c, 2, 67, 100
4, 116220, Note_on_c, 2, 67, 0
4, 116220, Note_on_c, 2, 69, 100
4, 116280, Note_on_c, 2, 69, 0
4, 116280, Note_on_c, 2, 67, 100
4, 116400, Note_on_c, 2, 67, 0
4, 116640, Note_on_c, 2, 67, 100
4, 116940, Note_on_c, 2, 67, 0
4, 116940, Note_on_c, 2, 69, 100
4, 117000, Note_on_c, 2, 69, 0
4, 117000, Note_on_c, 2, 67, 100
4, 117120, Note_on_c, 2, 67, 0
4, 117360, Note_on_c, 2, 64, 100
4, 117360, Note_on_c, 2, 67, 100
4, 117600, Note_on_c, 2, 67, 0
4, 117600, Note_on_c, 2, 64, 0
4, 117600, Note_on_c, 2, 62, 100
4, 117600, Note_on_c, 2, 66, 100
4, 117720, Note_on_c, 2, 66, 0
4, 117720, Note_on_c, 2, 62, 0
4, 117720, Note_on_c, 2, 62, 100
4, 117720, Note_on_c, 2, 66, 100
4, 117840, Note_on_c, 2, 66, 0
4, 117840, Note_on_c, 2, 62, 0
4, 117840, Note_on_c, 2, 61, 100
4, 117840, Note_on_c, 2, 64, 100
4, 117960, Note_on_c, 2, 64, 0
4, 117960, Note_on_c, 2, 61, 0
4, 117960, Note_on_c, 2, 67, 100
4, 117960, Note_on_c, 2, 73, 100
4, 118080, Note_on_c, 2, 73, 0
4, 118080, Note_on_c, 2, 67, 0
4, 118080, Note_on_c, 2, 66, 100
4, 118080, Note_on_c, 2, 74, 100
4, 118200, Note_on_c, 2, 74, 0
4, 118200, Note_on_c, 2, 66, 0
4, 118800, Note_on_c, 2, 66, 100
4, 118800, Note_on_c, 2, 69, 100
4, 119400, Note_on_c, 2, 69, 0
4, 119400, Note_on_c, 2, 66, 0
4, 119400, Note_on_c, 2, 67, 100
4, 119400, Note_on_c, 2, 71, 100
4, 119520, Note_on_c, 2, 71, 0
4, 119520, Note_on_c, 2, 67, 0
4, 119520, Note_on_c, 2, 64, 100
4, 119520, Note_on_c, 2, 67, 100
4, 120120, Note_on_c, 2, 67, 0
4, 120120, Note_on_c, 2, 64, 0
4, 120120, Note_on_c, 2, 66, 100
4, 120120, Note_on_c, 2, 69, 100
4, 120240, Note_on_c, 2, 69, 0
4, 120240, Note_on_c, 2, 66, 0
4, 120240, Note_on_c, 2, 62, 100
4, 120240, Note_on_c, 2, 66, 100
4, 120600, Note_on_c, 2, 66, 0
4, 120600, Note_on_c, 2, 62, 0
4, 120600, Note_on_c, 2, 67, 100
4, 120600, Note_on_c, 2, 64, 100
4, 120630, Note_on_c, 2, 64, 0
4, 120630, Note_on_c, 2, 67, 0
4, 120630, Note_on_c, 2, 66, 100
4, 120630, Note_on_c, 2, 62, 100
4, 120660, Note_on_c, 2, 62, 0
4, 120660, Note_on_c, 2, 66, 0
4, 120660, Note_on_c, 2, 64, 100
4, 120660, Note_on_c, 2, 61, 100
4, 120690, Note_on_c, 2, 61, 0
4, 120690, Note_on_c, 2, 64, 0
4, 120690, Note_on_c, 2, 66, 100
4, 120690, Note_on_c, 2, 62, 100
4, 120720, Note_on_c, 2, 62, 0
4, 120720, Note_on_c, 2, 66, 0
4, 120720, Note_on_c, 2, 66, 100
4, 120720, Note_on_c, 2, 69, 100
4, 120840, Note_on_c, 2, 69, 0
4, 120840, Note_on_c, 2, 66, 0
4, 120840, Note_on_c, 2, 64, 100
4, 120840, Note_on_c, 2, 67, 100
4, 120960, Note_on_c, 2, 67, 0
4, 120960, Note_on_c, 2, 64, 0
4, 120960, Note_on_c, 2, 62, 100
4, 120960, Note_on_c, 2, 66, 100
4, 121320, Note_on_c, 2, 66, 0
4, 121320, Note_on_c, 2, 62, 0
4, 121320, Note_on_c, 2, 61, 100
4, 121320, Note_on_c, 2, 64, 100
4, 121440, Note_on_c, 2, 64, 0
4, 121440, Note_on_c, 2, 61, 0
4, 121680, Note_on_c, 2, 66, 100
4, 121680, Note_on_c, 2, 69, 100
4, 122160, Note_on_c, 2, 69, 0
4, 122160, Note_on_c, 2, 66, 0
4, 122160, Note_on_c, 2, 69, 100
4, 122160, Note_on_c, 2, 73, 100
4, 122280, Note_on_c, 2, 73, 0
4, 122280, Note_on_c, 2, 69, 0
4, 122280, Note_on_c, 2, 67, 100
4, 122280, Note_on_c, 2, 71, 100
4, 122400, Note_on_c, 2, 71, 0
4, 122400, Note_on_c, 2, 67, 0
4, 122400, Note_on_c, 2, 66, 100
4, 122400, Note_on_c, 2, 69, 100
4, 122640, Note_on_c, 2, 69, 0
4, 122640, Note_on_c, 2, 66, 0
4, 122640, Note_on_c, 2, 64, 100
4, 122640, Note_on_c, 2, 67, 100
4, 122880, Note_on_c, 2, 67, 0
4, 122880, Note_on_c, 2, 64, 0
4, 122880, Note_on_c, 2, 67, 100
4, 122880, Note_on_c, 2, 71, 100
4, 123000, Note_on_c, 2, 71, 0
4, 123000, Note_on_c, 2, 67, 0
4, 123000, Note_on_c, 2, 66, 100
4, 123000, Note_on_c, 2, 69, 100
4, 123120, Note_on_c, 2, 69, 0
4, 123120, Note_on_c, 2, 66, 0
4, 123120, Note_on_c, 2, 64, 100
4, 123120, Note_on_c, 2, 67, 100
4, 123240, Note_on_c, 2, 67, 0
4, 123240, Note_on_c, 2, 64, 0
4, 123240, Note_on_c, 2, 62, 100
4, 123240, Note_on_c, 2, 66, 100
4, 123360, Note_on_c, 2, 66, 0
4, 123360, Note_on_c, 2, 62, 0
4, 123360, Note_on_c, 2, 69, 100
4, 123360, Note_on_c, 2, 66, 100
4, 123480, Note_on_c, 2, 66, 0
4, 123480, Note_on_c, 2, 69, 0
4, 123480, Note_on_c, 2, 66, 100
4, 123480, Note_on_c, 2, 74, 100
4, 123600, Note_on_c, 2, 74, 0
4, 123600, Note_on_c, 2, 66, 0
4, 123600, Note_on_c, 2, 69, 100
4, 123600, Note_on_c, 2, 66, 100
4, 123720, Note_on_c, 2, 66, 0
4, 123720, Note_on_c, 2, 69, 0
4, 123720, Note_on_c, 2, 62, 100
4, 123720, Note_on_c, 2, 66, 100
4, 123840, Note_on_c, 2, 66, 0
4, 123840, Note_on_c, 2, 62, 0
4, 123840, Note_on_c, 2, 61, 100
4, 123840, Note_on_c, 2, 64, 100
4, 124320, Note_on_c, 2, 64, 0
4, 124320, Note_on_c, 2, 61, 0
4, 124320, Note_on_c, 2, 69, 100
4, 124320, Note_on_c, 2, 66, 100
4, 124440, Note_on_c, 2, 66, 0
4, 124440, Note_on_c, 2, 69, 0
4, 124440, Note_on_c, 2, 62, 100
4, 124440, Note_on_c, 2, 66, 100
4, 124560, Note_on_c, 2, 66, 0
4, 124560, Note_on_c, 2, 62, 0
4, 124560, Note_on_c, 2, 61, 100
4, 124560, Note_on_c, 2, 64, 100
4, 125040, Note_on_c, 2, 64, 0
4, 125040, Note_on_c, 2, 61, 0
4, 125040, Note_on_c, 2, 69, 100
4, 125040, Note_on_c, 2, 66, 100
4, 125160, Note_on_c, 2, 66, 0
4, 125160, Note_on_c, 2, 69, 0
4, 125160, Note_on_c, 2, 62, 100
4, 125160, Note_on_c, 2, 66, 100
4, 125280, Note_on_c, 2, 66, 0
4, 125280, Note_on_c, 2, 62, 0
4, 125280, Note_on_c, 2, 61, 100
4, 125280, Note_on_c, 2, 64, 100
4, 125400, Note_on_c, 2, 64, 0
4, 125400, Note_on_c, 2, 61, 0
4, 126120, Note_on_c, 2, 69, 100
4, 126120, Note_on_c, 2, 71, 100
4, 126360, Note_on_c, 2, 71, 0
4, 126360, Note_on_c, 2, 69, 0
4, 126360, Note_on_c, 2, 71, 100
4, 126360, Note_on_c, 2, 69, 100
4, 126600, Note_on_c, 2, 69, 0
4, 126600, Note_on_c, 2, 71, 0
4, 126600, Note_on_c, 2, 71, 100
4, 126600, Note_on_c, 2, 69, 100
4, 126720, Note_on_c, 2, 69, 0
4, 126720, Note_on_c, 2, 71, 0
4, 126840, Note_on_c, 2, 70, 100
4, 126840, Note_on_c, 2, 73, 100
4, 127080, Note_on_c, 2, 73, 0
4, 127080, Note_on_c, 2, 70, 0
4, 127080, Note_on_c, 2, 70, 100
4, 127080, Note_on_c, 2, 73, 100
4, 127320, Note_on_c, 2, 73, 0
4, 127320, Note_on_c, 2, 70, 0
4, 127320, Note_on_c, 2, 73, 100
4, 127320, Note_on_c, 2, 70, 100
4, 127440, Note_on_c, 2, 70, 0
4, 127440, Note_on_c, 2, 73, 0
4, 127560, Note_on_c, 2, 73, 100
4, 127560, Note_on_c, 2, 76, 100
4, 127800, Note_on_c, 2, 76, 0
4, 127800, Note_on_c, 2, 73, 0
4, 127800, Note_on_c, 2, 73, 100
4, 127800, Note_on_c, 2, 76, 100
4, 128040, Note_on_c, 2, 76, 0
4, 128040, Note_on_c, 2, 73, 0
4, 128040, Note_on_c, 2, 73, 100
4, 128040, Note_on_c, 2, 76, 100
4, 128160, Note_on_c, 2, 76, 0
4, 128160, Note_on_c, 2, 73, 0
4, 128160, Note_on_c, 2, 74, 100
4, 128160, Note_on_c, 2, 78, 100
4, 128460, Note_on_c, 2, 78, 0
4, 128460, Note_on_c, 2, 74, 0
4, 128460, Note_on_c, 2, 73, 100
4, 128460, Note_on_c, 2, 76, 100
4, 128520, Note_on_c, 2, 76, 0
4, 128520, Note_on_c, 2, 73, 0
4, 128520, Note_on_c, 2, 74, 100
4, 128520, Note_on_c, 2, 78, 100
4, 128640, Note_on_c, 2, 78, 0
4, 128640, Note_on_c, 2, 74, 0
4, 128880, Note_on_c, 2, 74, 100
4, 128880, Note_on_c, 2, 78, 100
4, 129180, Note_on_c, 2, 78, 0
4, 129180, Note_on_c, 2, 74, 0
4, 129180, Note_on_c, 2, 73, 100
4, 129180, Note_on_c, 2, 76, 100
4, 129240, Note_on_c, 2, 76, 0
4, 129240, Note_on_c, 2, 73, 0
4, 129240, Note_on_c, 2, 74, 100
4, 129240, Note_on_c, 2, 78, 100
4, 129360, Note_on_c, 2, 78, 0
4, 129360, Note_on_c, 2, 74, 0
4, 129600, Note_on_c, 2, 74, 100
4, 129600, Note_on_c, 2, 78, 100
4, 129840, Note_on_c, 2, 78, 0
4, 129840, Note_on_c, 2, 74, 0
4, 129840, Note_on_c, 2, 73, 100
4, 129840, Note_on_c, 2, 76, 100
4, 129960, Note_on_c, 2, 76, 0
4, 129960, Note_on_c, 2, 73, 0
4, 129960, Note_on_c, 2, 74, 100
4, 129960, Note_on_c, 2, 78, 100
4, 130080, Note_on_c, 2, 78, 0
4, 130080, Note_on_c, 2, 74, 0
4, 130080, Note_on_c, 2, 79, 100
4, 130080, Note_on_c, 2, 76, 100
4, 130200, Note_on_c, 2, 76, 0
4, 130200, Note_on_c, 2, 79, 0
4, 130200, Note_on_c, 2, 78, 100
4, 130200, Note_on_c, 2, 74, 100
4, 130320, Note_on_c, 2, 74, 0
4, 130320, Note_on_c, 2, 78, 0
4, 130320, Note_on_c, 2, 73, 100
4, 130320, Note_on_c, 2, 76, 100
4, 130440, Note_on_c, 2, 76, 0
4, 130440, Note_on_c, 2, 73, 0
4, 131040, Note_on_c, 2, 73, 100
4, 131040, Note_on_c, 2, 76, 100
4, 131340, Note_on_c, 2, 76, 0
4, 131340, Note_on_c, 2, 73, 0
4, 131340, Note_on_c, 2, 72, 100
4, 131340, Note_on_c, 2, 75, 100
4, 131400, Note_on_c, 2, 75, 0
4, 131400, Note_on_c, 2, 72, 0
4, 131400, Note_on_c, 2, 73, 100
4, 131400, Note_on_c, 2, 76, 100
4, 131520, Note_on_c, 2, 76, 0
4, 131520, Note_on_c, 2, 73, 0
4, 131760, Note_on_c, 2, 73, 100
4, 131760, Note_on_c, 2, 76, 100
4, 132060, Note_on_c, 2, 76, 0
4, 132060, Note_on_c, 2, 73, 0
4, 132060, Note_on_c, 2, 75, 100
4, 132060, Note_on_c, 2, 72, 100
4, 132120, Note_on_c, 2, 72, 0
4, 132120, Note_on_c, 2, 75, 0
4, 132120, Note_on_c, 2, 73, 100
4, 132120, Note_on_c, 2, 76, 100
4, 132240, Note_on_c, 2, 76, 0
4, 132240, Note_on_c, 2, 73, 0
4, 132480, Note_on_c, 2, 73, 100
4, 132480, Note_on_c, 2, 76, 100
4, 132720, Note_on_c, 2, 76, 0
4, 132720, Note_on_c, 2, 73, 0
4, 132720, Note_on_c, 2, 74, 100
4, 132720, Note_on_c, 2, 78, 100
4, 132840, Note_on_c, 2, 78, 0
4, 132840, Note_on_c, 2, 74, 0
4, 132840, Note_on_c, 2, 81, 100
4, 132840, Note_on_c, 2, 78, 100
4, 132960, Note_on_c, 2, 78, 0
4, 132960, Note_on_c, 2, 81, 0
4, 132960, Note_on_c, 2, 79, 100
4, 132960, Note_on_c, 2, 76, 100
4, 133080, Note_on_c, 2, 76, 0
4, 133080, Note_on_c, 2, 79, 0
4, 133080, Note_on_c, 2, 73, 100
4, 133080, Note_on_c, 2, 76, 100
4, 133200, Note_on_c, 2, 76, 0
4, 133200, Note_on_c, 2, 73, 0
4, 133200, Note_on_c, 2, 74, 100
4, 133320, Note_on_c, 2, 74, 0
4, 133920, Note_on_c, 2, 66, 100
4, 133920, Note_on_c, 2, 69, 100
4, 134520, Note_on_c, 2, 69, 0
4, 134520, Note_on_c, 2, 66, 0
4, 134520, Note_on_c, 2, 67, 100
4, 134520, Note_on_c, 2, 71, 100
4, 134640, Note_on_c, 2, 71, 0
4, 134640, Note_on_c, 2, 67, 0
4, 134640, Note_on_c, 2, 64, 100
4, 134640, Note_on_c, 2, 67, 100
4, 135240, Note_on_c, 2, 67, 0
4, 135240, Note_on_c, 2, 64, 0
4, 135240, Note_on_c, 2, 66, 100
4, 135240, Note_on_c, 2, 69, 100
4, 135360, Note_on_c, 2, 69, 0
4, 135360, Note_on_c, 2, 66, 0
4, 135360, Note_on_c, 2, 62, 100
4, 135360, Note_on_c, 2, 66, 100
4, 135720, Note_on_c, 2, 66, 0
4, 135720, Note_on_c, 2, 62, 0
4, 135720, Note_on_c, 2, 67, 100
4, 135720, Note_on_c, 2, 64, 100
4, 135750, Note_on_c, 2, 64, 0
4, 135750, Note_on_c, 2, 67, 0
4, 135750, Note_on_c, 2, 66, 100
4, 135750, Note_on_c, 2, 62, 100
4, 135780, Note_on_c, 2, 62, 0
4, 135780, Note_on_c, 2, 66, 0
4, 135780, Note_on_c, 2, 64, 100
4, 135780, Note_on_c, 2, 61, 100
4, 135810, Note_on_c, 2, 61, 0
4, 135810, Note_on_c, 2, 64, 0
4, 135810, Note_on_c, 2, 66, 100
4, 135810, Note_on_c, 2, 62, 100
4, 135840, Note_on_c, 2, 62, 0
4, 135840, Note_on_c, 2, 66, 0
4, 135840, Note_on_c, 2, 66, 100
4, 135840, Note_on_c, 2, 69, 100
4, 135960, Note_on_c, 2, 69, 0
4, 135960, Note_on_c, 2, 66, 0
4, 135960, Note_on_c, 2, 64, 100
4, 135960, Note_on_c, 2, 67, 100
4, 136080, Note_on_c, 2, 67, 0
4, 136080, Note_on_c, 2, 64, 0
4, 136080, Note_on_c, 2, 62, 100
4, 136080, Note_on_c, 2, 66, 100
4, 136440, Note_on_c, 2, 66, 0
4, 136440, Note_on_c, 2, 62, 0
4, 136440, Note_on_c, 2, 61, 100
4, 136440, Note_on_c, 2, 64, 100
4, 136560, Note_on_c, 2, 64, 0
4, 136560, Note_on_c, 2, 61, 0
4, 136800, Note_on_c, 2, 66, 100
4, 136800, Note_on_c, 2, 69, 100
4, 137280, Note_on_c, 2, 69, 0
4, 137280, Note_on_c, 2, 66, 0
4, 137280, Note_on_c, 2, 69, 100
4, 137280, Note_on_c, 2, 73, 100
4, 137400, Note_on_c, 2, 73, 0
4, 137400, Note_on_c, 2, 69, 0
4, 137400, Note_on_c, 2, 67, 100
4, 137400, Note_on_c, 2, 71, 100
4, 137520, Note_on_c, 2, 71, 0
4, 137520, Note_on_c, 2, 67, 0
4, 137520, Note_on_c, 2, 66, 100
4, 137520, Note_on_c, 2, 69, 100
4, 137760, Note_on_c, 2, 69, 0
4, 137760, Note_on_c, 2, 66, 0
4, 137760, Note_on_c, 2, 64, 100
4, 137760, Note_on_c, 2, 67, 100
4, 138000, Note_on_c, 2, 67, 0
4, 138000, Note_on_c, 2, 64, 0
4, 138000, Note_on_c, 2, 67, 100
4, 138000, Note_on_c, 2, 71, 100
4, 138120, Note_on_c, 2, 71, 0
4, 138120, Note_on_c, 2, 67, 0
4, 138120, Note_on_c, 2, 66, 100
4, 138120, Note_on_c, 2, 69, 100
4, 138240, Note_on_c, 2, 69, 0
4, 138240, Note_on_c, 2, 66, 0
4, 138240, Note_on_c, 2, 64, 100
4, 138240, Note_on_c, 2, 67, 100
4, 138360, Note_on_c, 2, 67, 0
4, 138360, Note_on_c, 2, 64, 0
4, 138360, Note_on_c, 2, 62, 100
4, 138360, Note_on_c, 2, 66, 100
4, 138480, Note_on_c, 2, 66, 0
4, 138480, Note_on_c, 2, 62, 0
4, 138480, Note_on_c, 2, 69, 100
4, 138480, Note_on_c, 2, 66, 100
4, 138600, Note_on_c, 2, 66, 0
4, 138600, Note_on_c, 2, 69, 0
4, 138600, Note_on_c, 2, 66, 100
4, 138600, Note_on_c, 2, 74, 100
4, 138720, Note_on_c, 2, 74, 0
4, 138720, Note_on_c, 2, 66, 0
4, 138720, Note_on_c, 2, 69, 100
4, 138720, Note_on_c, 2, 66, 100
4, 138840, Note_on_c, 2, 66, 0
4, 138840, Note_on_c, 2, 69, 0
4, 138840, Note_on_c, 2, 62, 100
4, 138840, Note_on_c, 2, 66, 100
4, 138960, Note_on_c, 2, 66, 0
4, 138960, Note_on_c, 2, 62, 0
4, 138960, Note_on_c, 2, 61, 100
4, 138960, Note_on_c, 2, 64, 100
4, 139440, Note_on_c, 2, 64, 0
4, 139440, Note_on_c, 2, 61, 0
4, 139440, Note_on_c, 2, 69, 100
4, 139440, Note_on_c, 2, 66, 100
4, 139560, Note_on_c, 2, 66, 0
4, 139560, Note_on_c, 2, 69, 0
4, 139560, Note_on_c, 2, 62, 100
4, 139560, Note_on_c, 2, 66, 100
4, 139680, Note_on_c, 2, 66, 0
4, 139680, Note_on_c, 2, 62, 0
4, 139680, Note_on_c, 2, 61, 100
4, 139680, Note_on_c, 2, 64, 100
4, 140160, Note_on_c, 2, 64, 0
4, 140160, Note_on_c, 2, 61, 0
4, 140160, Note_on_c, 2, 69, 100
4, 140160, Note_on_c, 2, 66, 100
4, 140280, Note_on_c, 2, 66, 0
4, 140280, Note_on_c, 2, 69, 0
4, 140280, Note_on_c, 2, 62, 100
4, 140280, Note_on_c, 2, 66, 100
4, 140400, Note_on_c, 2, 66, 0
4, 140400, Note_on_c, 2, 62, 0
4, 140400, Note_on_c, 2, 61, 100
4, 140400, Note_on_c, 2, 64, 100
4, 140520, Note_on_c, 2, 64, 0
4, 140520, Note_on_c, 2, 61, 0
4, 141240, Note_on_c, 2, 69, 100
4, 141240, Note_on_c, 2, 71, 100
4, 141480, Note_on_c, 2, 71, 0
4, 141480, Note_on_c, 2, 69, 0
4, 141480, Note_on_c, 2, 71, 100
4, 141480, Note_on_c, 2, 69, 100
4, 141720, Note_on_c, 2, 69, 0
4, 141720, Note_on_c, 2, 71, 0
4, 141720, Note_on_c, 2, 71, 100
4, 141720, Note_on_c, 2, 69, 100
4, 141840, Note_on_c, 2, 69, 0
4, 141840, Note_on_c, 2, 71, 0
4, 141960, Note_on_c, 2, 70, 100
4, 141960, Note_on_c, 2, 73, 100
4, 142200, Note_on_c, 2, 73, 0
4, 142200, Note_on_c, 2, 70, 0
4, 142200, Note_on_c, 2, 70, 100
4, 142200, Note_on_c, 2, 73, 100
4, 142440, Note_on_c, 2, 73, 0
4, 142440, Note_on_c, 2, 70, 0
4, 142440, Note_on_c, 2, 73, 100
4, 142440, Note_on_c, 2, 70, 100
4, 142560, Note_on_c, 2, 70, 0
4, 142560, Note_on_c, 2, 73, 0
4, 142680, Note_on_c, 2, 73, 100
4, 142680, Note_on_c, 2, 76, 100
4, 142920, Note_on_c, 2, 76, 0
4, 142920, Note_on_c, 2, 73, 0
4, 142920, Note_on_c, 2, 73, 100
4, 142920, Note_on_c, 2, 76, 100
4, 143160, Note_on_c, 2, 76, 0
4, 143160, Note_on_c, 2, 73, 0
4, 143160, Note_on_c, 2, 73, 100
4, 143160, Note_on_c, 2, 76, 100
4, 143280, Note_on_c, 2, 76, 0
4, 143280, Note_on_c, 2, 73, 0
4, 143280, Note_on_c, 2, 74, 100
4, 143280, Note_on_c, 2, 78, 100
4, 143580, Note_on_c, 2, 78, 0
4, 143580, Note_on_c, 2, 74, 0
4, 143580, Note_on_c, 2, 73, 100
4, 143580, Note_on_c, 2, 76, 100
4, 143640, Note_on_c, 2, 76, 0
4, 143640, Note_on_c, 2, 73, 0
4, 143640, Note_on_c, 2, 74, 100
4, 143640, Note_on_c, 2, 78, 100
4, 143760, Note_on_c, 2, 78, 0
4, 143760, Note_on_c, 2, 74, 0
4, 144000, Note_on_c, 2, 74, 100
4, 144000, Note_on_c, 2, 78, 100
4, 144300, Note_on_c, 2, 78, 0
4, 144300, Note_on_c, 2, 74, 0
4, 144300, Note_on_c, 2, 73, 100
4, 144300, Note_on_c, 2, 76, 100
4, 144360, Note_on_c, 2, 76, 0
4, 144360, Note_on_c, 2, 73, 0
4, 144360, Note_on_c, 2, 74, 100
4, 144360, Note_on_c, 2, 78, 100
4, 144480, Note_on_c, 2, 78, 0
4, 144480, Note_on_c, 2, 74, 0
4, 144720, Note_on_c, 2, 74, 100
4, 144720, Note_on_c, 2, 78, 100
4, 144960, Note_on_c, 2, 78, 0
4, 144960, Note_on_c, 2, 74, 0
4, 144960, Note_on_c, 2, 73, 100
4, 144960, Note_on_c, 2, 76, 100
4, 145080, Note_on_c, 2, 76, 0
4, 145080, Note_on_c, 2, 73, 0
4, 145080, Note_on_c, 2, 74, 100
4, 145080, Note_on_c, 2, 78, 100
4, 145200, Note_on_c, 2, 78, 0
4, 145200, Note_on_c, 2, 74, 0
4, 145200, Note_on_c, 2, 79, 100
4, 145200, Note_on_c, 2, 76, 100
4, 145320, Note_on_c, 2, 76, 0
4, 145320, Note_on_c, 2, 79, 0
4, 145320, Note_on_c, 2, 78, 100
4, 145320, Note_on_c, 2, 74, 100
4, 145440, Note_on_c, 2, 74, 0
4, 145440, Note_on_c, 2, 78, 0
4, 145440, Note_on_c, 2, 73, 100
4, 145440, Note_on_c, 2, 76, 100
4, 145560, Note_on_c, 2, 76, 0
4, 145560, Note_on_c, 2, 73, 0
4, 146160, Note_on_c, 2, 73, 100
4, 146160, Note_on_c, 2, 76, 100
4, 146460, Note_on_c, 2, 76, 0
4, 146460, Note_on_c, 2, 73, 0
4, 146460, Note_on_c, 2, 72, 100
4, 146460, Note_on_c, 2, 75, 100
4, 146520, Note_on_c, 2, 75, 0
4, 146520, Note_on_c, 2, 72, 0
4, 146520, Note_on_c, 2, 73, 100
4, 146520, Note_on_c, 2, 76, 100
4, 146640, Note_on_c, 2, 76, 0
4, 146640, Note_on_c, 2, 73, 0
4, 146880, Note_on_c, 2, 73, 100
4, 146880, Note_on_c, 2, 76, 100
4, 147180, Note_on_c, 2, 76, 0
4, 147180, Note_on_c, 2, 73, 0
4, 147180, Note_on_c, 2, 75, 100
4, 147180, Note_on_c, 2, 72, 100
4, 147240, Note_on_c, 2, 72, 0
4, 147240, Note_on_c, 2, 75, 0
4, 147240, Note_on_c, 2, 73, 100
4, 147240, Note_on_c, 2, 76, 100
4, 147360, Note_on_c, 2, 76, 0
4, 147360, Note_on_c, 2, 73, 0
4, 147600, Note_on_c, 2, 73, 100
4, 147600, Note_on_c, 2, 76, 100
4, 147840, Note_on_c, 2, 76, 0
4, 147840, Note_on_c, 2, 73, 0
4, 147840, Note_on_c, 2, 74, 100
4, 147840, Note_on_c, 2, 78, 100
4, 147960, Note_on_c, 2, 78, 0
4, 147960, Note_on_c, 2, 74, 0
4, 147960, Note_on_c, 2, 81, 100
4, 147960, Note_on_c, 2, 78, 100
4, 148080, Note_on_c, 2, 78, 0
4, 148080, Note_on_c, 2, 81, 0
4, 148080, Note_on_c, 2, 79, 100
4, 148080, Note_on_c, 2, 76, 100
4, 148200, Note_on_c, 2, 76, 0
4, 148200, Note_on_c, 2, 79, 0
4, 148200, Note_on_c, 2, 73, 100
4, 148200, Note_on_c, 2, 76, 100
4, 148320, Note_on_c, 2, 76, 0
4, 148320, Note_on_c, 2, 73, 0
4, 148320, Note_on_c, 2, 74, 100
4, 148440, Note_on_c, 2, 74, 0
4, 153960, Note_on_c, 2, 69, 100
4, 153960, Note_on_c, 2, 77, 100
4, 154080, Note_on_c, 2, 77, 0
4, 154080, Note_on_c, 2, 69, 0
4, 154080, Note_on_c, 2, 77, 100
4, 154080, Note_on_c, 2, 69, 100
4, 154200, Note_on_c, 2, 69, 0
4, 154200, Note_on_c, 2, 77, 0
4, 154320, Note_on_c, 2, 69, 100
4, 154320, Note_on_c, 2, 77, 100
4, 154440, Note_on_c, 2, 77, 0
4, 154440, Note_on_c, 2, 69, 0
4, 154440, Note_on_c, 2, 77, 100
4, 154440, Note_on_c, 2, 69, 100
4, 154560, Note_on_c, 2, 69, 0
4, 154560, Note_on_c, 2, 77, 0
4, 154680, Note_on_c, 2, 69, 100
4, 154680, Note_on_c, 2, 77, 100
4, 154800, Note_on_c, 2, 77, 0
4, 154800, Note_on_c, 2, 69, 0
4, 154800, Note_on_c, 2, 77, 100
4, 154800, Note_on_c, 2, 69, 100
4, 154920, Note_on_c, 2, 69, 0
4, 154920, Note_on_c, 2, 77, 0
4, 159840, Note_on_c, 2, 71, 100
4, 159840, Note_on_c, 2, 74, 100
4, 160200, Note_on_c, 2, 74, 0
4, 160200, Note_on_c, 2, 71, 0
4, 160200, Note_on_c, 2, 69, 100
4, 160200, Note_on_c, 2, 73, 100
4, 160320, Note_on_c, 2, 73, 0
4, 160320, Note_on_c, 2, 69, 0
4, 160560, Note_on_c, 2, 71, 100
4, 160560, Note_on_c, 2, 74, 100
4, 160920, Note_on_c, 2, 74, 0
4, 160920, Note_on_c, 2, 71, 0
4, 160920, Note_on_c, 2, 69, 100
4, 160920, Note_on_c, 2, 73, 100
4, 161040, Note_on_c, 2, 73, 0
4, 161040, Note_on_c, 2, 69, 0
4, 161280, Note_on_c, 2, 71, 100
4, 161280, Note_on_c, 2, 74, 100
4, 161640, Note_on_c, 2, 74, 0
4, 161640, Note_on_c, 2, 71, 0
4, 161640, Note_on_c, 2, 69, 100
4, 161640, Note_on_c, 2, 73, 100
4, 161760, Note_on_c, 2, 73, 0
4, 161760, Note_on_c, 2, 69, 0
4, 161760, Note_on_c, 2, 76, 100
4, 161880, Note_on_c, 2, 76, 0
4, 161880, Note_on_c, 2, 73, 100
4, 162000, Note_on_c, 2, 73, 0
4, 162000, Note_on_c, 2, 69, 100
4, 162120, Note_on_c, 2, 69, 0
4, 162120, Note_on_c, 2, 64, 100
4, 162240, Note_on_c, 2, 64, 0
4, 162240, Note_on_c, 2, 61, 100
4, 162360, Note_on_c, 2, 61, 0
4, 162360, Note_on_c, 2, 57, 100
4, 162480, Note_on_c, 2, 57, 0
4, 162600, Note_on_c, 2, 69, 100
4, 162600, Note_on_c, 2, 77, 100
4, 162720, Note_on_c, 2, 77, 0
4, 162720, Note_on_c, 2, 69, 0
4, 162720, Note_on_c, 2, 77, 100
4, 162720, Note_on_c, 2, 69, 100
4, 162840, Note_on_c, 2, 69, 0
4, 162840, Note_on_c, 2, 77, 0
4, 162960, Note_on_c, 2, 69, 100
4, 162960, Note_on_c, 2, 77, 100
4, 163080, Note_on_c, 2, 77, 0
4, 163080, Note_on_c, 2, 69, 0
4, 163080, Note_on_c, 2, 77, 100
4, 163080, Note_on_c, 2, 69, 100
4, 163200, Note_on_c, 2, 69, 0
4, 163200, Note_on_c, 2, 77, 0
4, 163320, Note_on_c, 2, 69, 100
4, 163320, Note_on_c, 2, 77, 100
4, 163440, Note_on_c, 2, 77, 0
4, 163440, Note_on_c, 2, 69, 0
4, 163440, Note_on_c, 2, 77, 100
4, 163440, Note_on_c, 2, 69, 100
4, 163560, Note_on_c, 2, 69, 0
4, 163560, Note_on_c, 2, 77, 0
4, 168480, Note_on_c, 2, 71, 100
4, 168480, Note_on_c, 2, 74, 100
4, 168840, Note_on_c, 2, 74, 0
4, 168840, Note_on_c, 2, 71, 0
4, 168840, Note_on_c, 2, 69, 100
4, 168840, Note_on_c, 2, 73, 100
4, 168960, Note_on_c, 2, 73, 0
4, 168960, Note_on_c, 2, 69, 0
4, 169200, Note_on_c, 2, 71, 100
4, 169200, Note_on_c, 2, 74, 100
4, 169560, Note_on_c, 2, 74, 0
4, 169560, Note_on_c, 2, 71, 0
4, 169560, Note_on_c, 2, 69, 100
4, 169560, Note_on_c, 2, 73, 100
4, 169680, Note_on_c, 2, 73, 0
4, 169680, Note_on_c, 2, 69, 0
4, 169920, Note_on_c, 2, 71, 100
4, 169920, Note_on_c, 2, 74, 100
4, 170280, Note_on_c, 2, 74, 0
4, 170280, Note_on_c, 2, 71, 0
4, 170280, Note_on_c, 2, 69, 100
4, 170280, Note_on_c, 2, 73, 100
4, 170400, Note_on_c, 2, 73, 0
4, 170400, Note_on_c, 2, 69, 0
4, 170400, Note_on_c, 2, 76, 100
4, 170520, Note_on_c, 2, 76, 0
4, 170520, Note_on_c, 2, 73, 100
4, 170640, Note_on_c, 2, 73, 0
4, 170640, Note_on_c, 2, 69, 100
4, 170760, Note_on_c, 2, 69, 0
4, 170760, Note_on_c, 2, 64, 100
4, 170880, Note_on_c, 2, 64, 0
4, 170880, Note_on_c, 2, 61, 100
4, 171000, Note_on_c, 2, 61, 0
4, 171000, Note_on_c, 2, 57, 100
4, 171120, Note_on_c, 2, 57, 0
4, 172680, Note_on_c, 2, 73, 100
4, 172680, Note_on_c, 2, 76, 100
4, 172800, Note_on_c, 2, 76, 0
4, 172800, Note_on_c, 2, 73, 0
4, 172800, Note_on_c, 2, 74, 100
4, 172800, Note_on_c, 2, 78, 100
4, 172920, Note_on_c, 2, 78, 0
4, 172920, Note_on_c, 2, 74, 0
4, 172920, Note_on_c, 2, 74, 100
4, 172920, Note_on_c, 2, 78, 100
4, 173040, Note_on_c, 2, 78, 0
4, 173040, Note_on_c, 2, 74, 0
4, 173040, Note_on_c, 2, 76, 100
4, 173040, Note_on_c, 2, 73, 100
4, 173160, Note_on_c, 2, 73, 0
4, 173160, Note_on_c, 2, 76, 0
4, 173160, Note_on_c, 2, 80, 100
4, 173160, Note_on_c, 2, 71, 100
4, 173400, Note_on_c, 2, 71, 0
4, 173400, Note_on_c, 2, 80, 0
4, 173400, Note_on_c, 2, 69, 100
4, 173400, Note_on_c, 2, 81, 100
4, 173520, Note_on_c, 2, 81, 0
4, 173520, Note_on_c, 2, 69, 0
4, 173520, Note_on_c, 2, 74, 100
4, 173520, Note_on_c, 2, 78, 100
4, 173640, Note_on_c, 2, 78, 0
4, 173640, Note_on_c, 2, 74, 0
4, 173640, Note_on_c, 2, 74, 100
4, 173640, Note_on_c, 2, 78, 100
4, 173760, Note_on_c, 2, 78, 0
4, 173760, Note_on_c, 2, 74, 0
4, 173760, Note_on_c, 2, 73, 100
4, 173760, Note_on_c, 2, 76, 100
4, 173880, Note_on_c, 2, 76, 0
4, 173880, Note_on_c, 2, 73, 0
4, 173880, Note_on_c, 2, 80, 100
4, 173880, Note_on_c, 2, 71, 100
4, 174120, Note_on_c, 2, 71, 0
4, 174120, Note_on_c, 2, 80, 0
4, 174120, Note_on_c, 2, 69, 100
4, 174120, Note_on_c, 2, 81, 100
4, 174240, Note_on_c, 2, 81, 0
4, 174240, Note_on_c, 2, 69, 0
4, 174240, Note_on_c, 2, 80, 100
4, 174240, Note_on_c, 2, 71, 100
4, 174480, Note_on_c, 2, 71, 0
4, 174480, Note_on_c, 2, 80, 0
4, 174480, Note_on_c, 2, 69, 100
4, 174480, Note_on_c, 2, 81, 100
4, 174600, Note_on_c, 2, 81, 0
4, 174600, Note_on_c, 2, 69, 0
4, 174600, Note_on_c, 2, 80, 100
4, 174600, Note_on_c, 2, 71, 100
4, 174840, Note_on_c, 2, 71, 0
4, 174840, Note_on_c, 2, 80, 0
4, 174840, Note_on_c, 2, 69, 100
4, 174840, Note_on_c, 2, 81, 100
4, 174960, Note_on_c, 2, 81, 0
4, 174960, Note_on_c, 2, 69, 0
4, 174960, Note_on_c, 2, 80, 100
4, 174960, Note_on_c, 2, 71, 100
4, 175200, Note_on_c, 2, 71, 0
4, 175200, Note_on_c, 2, 80, 0
4, 175200, Note_on_c, 2, 69, 100
4, 175200, Note_on_c, 2, 81, 100
4, 175320, Note_on_c, 2, 81, 0
4, 175320, Note_on_c, 2, 69, 0
4, 175320, Note_on_c, 2, 80, 100
4, 175320, Note_on_c, 2, 71, 100
4, 175560, Note_on_c, 2, 71, 0
4, 175560, Note_on_c, 2, 80, 0
4, 175560, Note_on_c, 2, 69, 100
4, 175560, Note_on_c, 2, 81, 100
4, 175680, Note_on_c, 2, 81, 0
4, 175680, Note_on_c, 2, 69, 0
4, 178080, Note_on_c, 2, 74, 100
4, 178080, Note_on_c, 2, 77, 100
4, 178200, Note_on_c, 2, 77, 0
4, 178200, Note_on_c, 2, 74, 0
4, 178200, Note_on_c, 2, 74, 100
4, 178200, Note_on_c, 2, 77, 100
4, 178320, Note_on_c, 2, 77, 0
4, 178320, Note_on_c, 2, 74, 0
4, 194280, Note_on_c, 2, 77, 100
4, 194280, Note_on_c, 2, 69, 100
4, 194400, Note_on_c, 2, 69, 0
4, 194400, Note_on_c, 2, 77, 0
4, 194400, Note_on_c, 2, 69, 100
4, 194400, Note_on_c, 2, 77, 100
4, 194520, Note_on_c, 2, 77, 0
4, 194520, Note_on_c, 2, 69, 0
4, 194640, Note_on_c, 2, 69, 100
4, 194640, Note_on_c, 2, 77, 100
4, 194760, Note_on_c, 2, 77, 0
4, 194760, Note_on_c, 2, 69, 0
4, 194760, Note_on_c, 2, 69, 100
4, 194760, Note_on_c, 2, 77, 100
4, 194880, Note_on_c, 2, 77, 0
4, 194880, Note_on_c, 2, 69, 0
4, 195000, Note_on_c, 2, 69, 100
4, 195000, Note_on_c, 2, 77, 100
4, 195120, Note_on_c, 2, 77, 0
4, 195120, Note_on_c, 2, 69, 0
4, 195120, Note_on_c, 2, 65, 100
4, 195120, Note_on_c, 2, 77, 100
4, 196320, Note_on_c, 2, 77, 0
4, 196320, Note_on_c, 2, 65, 0
4, 196320, Note_on_c, 2, 67, 100
4, 196320, Note_on_c, 2, 79, 100
4, 196440, Note_on_c, 2, 79, 0
4, 196440, Note_on_c, 2, 67, 0
4, 196440, Note_on_c, 2, 67, 100
4, 196440, Note_on_c, 2, 79, 100
4, 196560, Note_on_c, 2, 79, 0
4, 196560, Note_on_c, 2, 67, 0
4, 196560, Note_on_c, 2, 67, 100
4, 196560, Note_on_c, 2, 79, 100
4, 197760, Note_on_c, 2, 79, 0
4, 197760, Note_on_c, 2, 67, 0
4, 197760, Note_on_c, 2, 69, 100
4, 197760, Note_on_c, 2, 81, 100
4, 197880, Note_on_c, 2, 81, 0
4, 197880, Note_on_c, 2, 69, 0
4, 197880, Note_on_c, 2, 69, 100
4, 197880, Note_on_c, 2, 81, 100
4, 198000, Note_on_c, 2, 81, 0
4, 198000, Note_on_c, 2, 69, 0
4, 204840, Note_on_c, 2, 64, 100
4, 204840, Note_on_c, 2, 67, 100
4, 204960, Note_on_c, 2, 67, 0
4, 204960, Note_on_c, 2, 64, 0
4, 204960, Note_on_c, 2, 64, 100
4, 204960, Note_on_c, 2, 67, 100
4, 205080, Note_on_c, 2, 67, 0
4, 205080, Note_on_c, 2, 64, 0
4, 205080, Note_on_c, 2, 64, 100
4, 205080, Note_on_c, 2, 67, 100
4, 205200, Note_on_c, 2, 67, 0
4, 205200, Note_on_c, 2, 64, 0
4, 205560, Note_on_c, 2, 64, 100
4, 205560, Note_on_c, 2, 67, 100
4, 205680, Note_on_c, 2, 67, 0
4, 205680, Note_on_c, 2, 64, 0
4, 205680, Note_on_c, 2, 64, 100
4, 205680, Note_on_c, 2, 67, 100
4, 205800, Note_on_c, 2, 67, 0
4, 205800, Note_on_c, 2, 64, 0
4, 205800, Note_on_c, 2, 64, 100
4, 205800, Note_on_c, 2, 67, 100
4, 205920, Note_on_c, 2, 67, 0
4, 205920, Note_on_c, 2, 64, 0
4, 206280, Note_on_c, 2, 64, 100
4, 206280, Note_on_c, 2, 67, 100
4, 206400, Note_on_c, 2, 67, 0
4, 206400, Note_on_c, 2, 64, 0
4, 206400, Note_on_c, 2, 64, 100
4, 206400, Note_on_c, 2, 67, 100
4, 206520, Note_on_c, 2, 67, 0
4, 206520, Note_on_c, 2, 64, 0
4, 206520, Note_on_c, 2, 64, 100
4, 206520, Note_on_c, 2, 67, 100
4, 206640, Note_on_c, 2, 67, 0
4, 206640, Note_on_c, 2, 64, 0
4, 207000, Note_on_c, 2, 64, 100
4, 207000, Note_on_c, 2, 67, 100
4, 207120, Note_on_c, 2, 67, 0
4, 207120, Note_on_c, 2, 64, 0
4, 207120, Note_on_c, 2, 64, 100
4, 207120, Note_on_c, 2, 67, 100
4, 207240, Note_on_c, 2, 67, 0
4, 207240, Note_on_c, 2, 64, 0
4, 207240, Note_on_c, 2, 64, 100
4, 207240, Note_on_c, 2, 67, 100
4, 207360, Note_on_c, 2, 67, 0
4, 207360, Note_on_c, 2, 64, 0
4, 207720, Note_on_c, 2, 69, 100
4, 207720, Note_on_c, 2, 77, 100
4, 207840, Note_on_c, 2, 77, 0
4, 207840, Note_on_c, 2, 69, 0
4, 207840, Note_on_c, 2, 69, 100
4, 207840, Note_on_c, 2, 77, 100
4, 207960, Note_on_c, 2, 77, 0
4, 207960, Note_on_c, 2, 69, 0
4, 207960, Note_on_c, 2, 69, 100
4, 207960, Note_on_c, 2, 77, 100
4, 208080, Note_on_c, 2, 77, 0
4, 208080, Note_on_c, 2, 69, 0
4, 208440, Note_on_c, 2, 69, 100
4, 208440, Note_on_c, 2, 77, 100
4, 208560, Note_on_c, 2, 77, 0
4, 208560, Note_on_c, 2, 69, 0
4, 208560, Note_on_c, 2, 69, 100
4, 208560, Note_on_c, 2, 77, 100
4, 208680, Note_on_c, 2, 77, 0
4, 208680, Note_on_c, 2, 69, 0
4, 208680, Note_on_c, 2, 69, 100
4, 208680, Note_on_c, 2, 77, 100
4, 208800, Note_on_c, 2, 77, 0
4, 208800, Note_on_c, 2, 69, 0
4, 209160, Note_on_c, 2, 69, 100
4, 209160, Note_on_c, 2, 77, 100
4, 209280, Note_on_c, 2, 77, 0
4, 209280, Note_on_c, 2, 69, 0
4, 209280, Note_on_c, 2, 69, 100
4, 209280, Note_on_c, 2, 77, 100
4, 209400, Note_on_c, 2, 77, 0
4, 209400, Note_on_c, 2, 69, 0
4, 209400, Note_on_c, 2, 69, 100
4, 209400, Note_on_c, 2, 77, 100
4, 209520, Note_on_c, 2, 77, 0
4, 209520, Note_on_c, 2, 69, 0
4, 209880, Note_on_c, 2, 69, 100
4, 209880, Note_on_c, 2, 77, 100
4, 210000, Note_on_c, 2, 77, 0
4, 210000, Note_on_c, 2, 69, 0
4, 210000, Note_on_c, 2, 69, 100
4, 210000, Note_on_c, 2, 77, 100
4, 210120, Note_on_c, 2, 77, 0
4, 210120, Note_on_c, 2, 69, 0
4, 210120, Note_on_c, 2, 69, 100
4, 210120, Note_on_c, 2, 77, 100
4, 210240, Note_on_c, 2, 77, 0
4, 210240, Note_on_c, 2, 69, 0
4, 210600, Note_on_c, 2, 69, 100
4, 210600, Note_on_c, 2, 77, 100
4, 210720, Note_on_c, 2, 77, 0
4, 210720, Note_on_c, 2, 69, 0
4, 210720, Note_on_c, 2, 69, 100
4, 210720, Note_on_c, 2, 77, 100
4, 210840, Note_on_c, 2, 77, 0
4, 210840, Note_on_c, 2, 69, 0
4, 210840, Note_on_c, 2, 69, 100
4, 210840, Note_on_c, 2, 77, 100
4, 210960, Note_on_c, 2, 77, 0
4, 210960, Note_on_c, 2, 69, 0
4, 210960, Note_on_c, 2, 69, 100
4, 210960, Note_on_c, 2, 77, 100
4, 211080, Note_on_c, 2, 77, 0
4, 211080, Note_on_c, 2, 69, 0
4, 211080, Note_on_c, 2, 69, 100
4, 211080, Note_on_c, 2, 77, 100
4, 211200, Note_on_c, 2, 77, 0
4, 211200, Note_on_c, 2, 69, 0
4, 211200, Note_on_c, 2, 69, 100
4, 211200, Note_on_c, 2, 77, 100
4, 211320, Note_on_c, 2, 77, 0
4, 211320, Note_on_c, 2, 69, 0
4, 211320, Note_on_c, 2, 69, 100
4, 211320, Note_on_c, 2, 77, 100
4, 211440, Note_on_c, 2, 77, 0
4, 211440, Note_on_c, 2, 69, 0
4, 213000, Note_on_c, 2, 65, 100
4, 213000, Note_on_c, 2, 77, 100
4, 213120, Note_on_c, 2, 77, 0
4, 213120, Note_on_c, 2, 65, 0
4, 213120, Note_on_c, 2, 81, 100
4, 213120, Note_on_c, 2, 69, 100
4, 213240, Note_on_c, 2, 69, 0
4, 213240, Note_on_c, 2, 81, 0
4, 213480, Note_on_c, 2, 81, 100
4, 213480, Note_on_c, 2, 69, 100
4, 213600, Note_on_c, 2, 69, 0
4, 213600, Note_on_c, 2, 81, 0
4, 213840, Note_on_c, 2, 81, 100
4, 213840, Note_on_c, 2, 69, 100
4, 213960, Note_on_c, 2, 69, 0
4, 213960, Note_on_c, 2, 81, 0
4, 214200, Note_on_c, 2, 81, 100
4, 214200, Note_on_c, 2, 69, 100
4, 214320, Note_on_c, 2, 69, 0
4, 214320, Note_on_c, 2, 81, 0
4, 214560, Note_on_c, 2, 81, 100
4, 214560, Note_on_c, 2, 69, 100
4, 214680, Note_on_c, 2, 69, 0
4, 214680, Note_on_c, 2, 81, 0
4, 216000, Note_on_c, 2, 74, 100
4, 216000, Note_on_c, 2, 66, 100
4, 216300, Note_on_c, 2, 66, 0
4, 216300, Note_on_c, 2, 74, 0
4, 216300, Note_on_c, 2, 64, 100
4, 216300, Note_on_c, 2, 73, 100
4, 216360, Note_on_c, 2, 73, 0
4, 216360, Note_on_c, 2, 64, 0
4, 216360, Note_on_c, 2, 74, 100
4, 216360, Note_on_c, 2, 66, 100
4, 216480, Note_on_c, 2, 66, 0
4, 216480, Note_on_c, 2, 74, 0
4, 216720, Note_on_c, 2, 74, 100
4, 216720, Note_on_c, 2, 66, 100
4, 217020, Note_on_c, 2, 66, 0
4, 217020, Note_on_c, 2, 74, 0
4, 217020, Note_on_c, 2, 64, 100
4, 217020, Note_on_c, 2, 73, 100
4, 217080, Note_on_c, 2, 73, 0
4, 217080, Note_on_c, 2, 64, 0
4, 217080, Note_on_c, 2, 74, 100
4, 217080, Note_on_c, 2, 66, 100
4, 217200, Note_on_c, 2, 66, 0
4, 217200, Note_on_c, 2, 74, 0
4, 217440, Note_on_c, 2, 74, 100
4, 217440, Note_on_c, 2, 66, 100
4, 217680, Note_on_c, 2, 66, 0
4, 217680, Note_on_c, 2, 74, 0
4, 217680, Note_on_c, 2, 67, 100
4, 217680, Note_on_c, 2, 76, 100
4, 217800, Note_on_c, 2, 76, 0
4, 217800, Note_on_c, 2, 67, 0
4, 217800, Note_on_c, 2, 74, 100
4, 217800, Note_on_c, 2, 78, 100
4, 217920, Note_on_c, 2, 78, 0
4, 217920, Note_on_c, 2, 74, 0
4, 217920, Note_on_c, 2, 79, 100
4, 217920, Note_on_c, 2, 76, 100
4, 218040, Note_on_c, 2, 76, 0
4, 218040, Note_on_c, 2, 79, 0
4, 218040, Note_on_c, 2, 74, 100
4, 218040, Note_on_c, 2, 78, 100
4, 218160, Note_on_c, 2, 78, 0
4, 218160, Note_on_c, 2, 74, 0
4, 218160, Note_on_c, 2, 73, 100
4, 218160, Note_on_c, 2, 76, 100
4, 218280, Note_on_c, 2, 76, 0
4, 218280, Note_on_c, 2, 73, 0
4, 218880, Note_on_c, 2, 73, 100
4, 218880, Note_on_c, 2, 76, 100
4, 219180, Note_on_c, 2, 76, 0
4, 219180, Note_on_c, 2, 73, 0
4, 219180, Note_on_c, 2, 72, 100
4, 219180, Note_on_c, 2, 75, 100
4, 219240, Note_on_c, 2, 75, 0
4, 219240, Note_on_c, 2, 72, 0
4, 219240, Note_on_c, 2, 76, 100
4, 219240, Note_on_c, 2, 73, 100
4, 219360, Note_on_c, 2, 73, 0
4, 219360, Note_on_c, 2, 76, 0
4, 219600, Note_on_c, 2, 73, 100
4, 219600, Note_on_c, 2, 76, 100
4, 219900, Note_on_c, 2, 76, 0
4, 219900, Note_on_c, 2, 73, 0
4, 219900, Note_on_c, 2, 75, 100
4, 219900, Note_on_c, 2, 72, 100
4, 219960, Note_on_c, 2, 72, 0
4, 219960, Note_on_c, 2, 75, 0
4, 219960, Note_on_c, 2, 76, 100
4, 219960, Note_on_c, 2, 73, 100
4, 220080, Note_on_c, 2, 73, 0
4, 220080, Note_on_c, 2, 76, 0
4, 220320, Note_on_c, 2, 73, 100
4, 220320, Note_on_c, 2, 76, 100
4, 220560, Note_on_c, 2, 76, 0
4, 220560, Note_on_c, 2, 73, 0
4, 220560, Note_on_c, 2, 78, 100
4, 220560, Note_on_c, 2, 74, 100
4, 220680, Note_on_c, 2, 74, 0
4, 220680, Note_on_c, 2, 78, 0
4, 220680, Note_on_c, 2, 81, 100
4, 220680, Note_on_c, 2, 78, 100
4, 220800, Note_on_c, 2, 78, 0
4, 220800, Note_on_c, 2, 81, 0
4, 220800, Note_on_c, 2, 76, 100
4, 220800, Note_on_c, 2, 79, 100
4, 220920, Note_on_c, 2, 79, 0
4, 220920, Note_on_c, 2, 76, 0
4, 220920, Note_on_c, 2, 67, 100
4, 220920, Note_on_c, 2, 76, 100
4, 221040, Note_on_c, 2, 76, 0
4, 221040, Note_on_c, 2, 67, 0
4, 221040, Note_on_c, 2, 74, 100
4, 221040, Note_on_c, 2, 66, 100
4, 221160, Note_on_c, 2, 66, 0
4, 221160, Note_on_c, 2, 74, 0
4, 221760, Note_on_c, 2, 62, 100
4, 221760, Note_on_c, 2, 66, 100
4, 222060, Note_on_c, 2, 66, 0
4, 222060, Note_on_c, 2, 62, 0
4, 222060, Note_on_c, 2, 67, 100
4, 222060, Note_on_c, 2, 64, 100
4, 222120, Note_on_c, 2, 64, 0
4, 222120, Note_on_c, 2, 67, 0
4, 222120, Note_on_c, 2, 62, 100
4, 222120, Note_on_c, 2, 66, 100
4, 222240, Note_on_c, 2, 66, 0
4, 222240, Note_on_c, 2, 62, 0
4, 222480, Note_on_c, 2, 62, 100
4, 222480, Note_on_c, 2, 66, 100
4, 222780, Note_on_c, 2, 66, 0
4, 222780, Note_on_c, 2, 62, 0
4, 222780, Note_on_c, 2, 67, 100
4, 222780, Note_on_c, 2, 64, 100
4, 222840, Note_on_c, 2, 64, 0
4, 222840, Note_on_c, 2, 67, 0
4, 222840, Note_on_c, 2, 66, 100
4, 222840, Note_on_c, 2, 62, 100
4, 222960, Note_on_c, 2, 62, 0
4, 222960, Note_on_c, 2, 66, 0
4, 223200, Note_on_c, 2, 62, 100
4, 223200, Note_on_c, 2, 66, 100
4, 223440, Note_on_c, 2, 66, 0
4, 223440, Note_on_c, 2, 62, 0
4, 223440, Note_on_c, 2, 64, 100
4, 223440, Note_on_c, 2, 67, 100
4, 223560, Note_on_c, 2, 67, 0
4, 223560, Note_on_c, 2, 64, 0
4, 223560, Note_on_c, 2, 62, 100
4, 223560, Note_on_c, 2, 66, 100
4, 223680, Note_on_c, 2, 66, 0
4, 223680, Note_on_c, 2, 62, 0
4, 223680, Note_on_c, 2, 64, 100
4, 223680, Note_on_c, 2, 67, 100
4, 223800, Note_on_c, 2, 67, 0
4, 223800, Note_on_c, 2, 64, 0
4, 223800, Note_on_c, 2, 62, 100
4, 223800, Note_on_c, 2, 66, 100
4, 223920, Note_on_c, 2, 66, 0
4, 223920, Note_on_c, 2, 62, 0
4, 223920, Note_on_c, 2, 61, 100
4, 223920, Note_on_c, 2, 64, 100
4, 224040, Note_on_c, 2, 64, 0
4, 224040, Note_on_c, 2, 61, 0
4, 224640, Note_on_c, 2, 67, 100
4, 224940, Note_on_c, 2, 67, 0
4, 224940, Note_on_c, 2, 69, 100
4, 225000, Note_on_c, 2, 69, 0
4, 225000, Note_on_c, 2, 67, 100
4, 225120, Note_on_c, 2, 67, 0
4, 225360, Note_on_c, 2, 67, 100
4, 225660, Note_on_c, 2, 67, 0
4, 225660, Note_on_c, 2, 69, 100
4, 225720, Note_on_c, 2, 69, 0
4, 225720, Note_on_c, 2, 67, 100
4, 225840, Note_on_c, 2, 67, 0
4, 226080, Note_on_c, 2, 64, 100
4, 226080, Note_on_c, 2, 67, 100
4, 226320, Note_on_c, 2, 67, 0
4, 226320, Note_on_c, 2, 64, 0
4, 226320, Note_on_c, 2, 62, 100
4, 226320, Note_on_c, 2, 66, 100
4, 226440, Note_on_c, 2, 66, 0
4, 226440, Note_on_c, 2, 62, 0
4, 226440, Note_on_c, 2, 62, 100
4, 226440, Note_on_c, 2, 66, 100
4, 226560, Note_on_c, 2, 66, 0
4, 226560, Note_on_c, 2, 62, 0
4, 226560, Note_on_c, 2, 61, 100
4, 226560, Note_on_c, 2, 64, 100
4, 226680, Note_on_c, 2, 64, 0
4, 226680, Note_on_c, 2, 61, 0
4, 226680, Note_on_c, 2, 67, 100
4, 226680, Note_on_c, 2, 73, 100
4, 226800, Note_on_c, 2, 73, 0
4, 226800, Note_on_c, 2, 67, 0
4, 226800, Note_on_c, 2, 66, 100
4, 226800, Note_on_c, 2, 74, 100
4, 226920, Note_on_c, 2, 74, 0
4, 226920, Note_on_c, 2, 66, 0
4, 227520, Note_on_c, 2, 66, 100
4, 227520, Note_on_c, 2, 69, 100
4, 228120, Note_on_c, 2, 69, 0
4, 228120, Note_on_c, 2, 66, 0
4, 228120, Note_on_c, 2, 67, 100
4, 228120, Note_on_c, 2, 71, 100
4, 228240, Note_on_c, 2, 71, 0
4, 228240, Note_on_c, 2, 67, 0
4, 228240, Note_on_c, 2, 64, 100
4, 228240, Note_on_c, 2, 67, 100
4, 228840, Note_on_c, 2, 67, 0
4, 228840, Note_on_c, 2, 64, 0
4, 228840, Note_on_c, 2, 66, 100
4, 228840, Note_on_c, 2, 69, 100
4, 228960, Note_on_c, 2, 69, 0
4, 228960, Note_on_c, 2, 66, 0
4, 228960, Note_on_c, 2, 62, 100
4, 228960, Note_on_c, 2, 66, 100
4, 229320, Note_on_c, 2, 66, 0
4, 229320, Note_on_c, 2, 62, 0
4, 229320, Note_on_c, 2, 67, 100
4, 229320, Note_on_c, 2, 64, 100
4, 229350, Note_on_c, 2, 64, 0
4, 229350, Note_on_c, 2, 67, 0
4, 229350, Note_on_c, 2, 66, 100
4, 229350, Note_on_c, 2, 62, 100
4, 229380, Note_on_c, 2, 62, 0
4, 229380, Note_on_c, 2, 66, 0
4, 229380, Note_on_c, 2, 64, 100
4, 229380, Note_on_c, 2, 61, 100
4, 229410, Note_on_c, 2, 61, 0
4, 229410, Note_on_c, 2, 64, 0
4, 229410, Note_on_c, 2, 66, 100
4, 229410, Note_on_c, 2, 62, 100
4, 229440, Note_on_c, 2, 62, 0
4, 229440, Note_on_c, 2, 66, 0
4, 229440, Note_on_c, 2, 66, 100
4, 229440, Note_on_c, 2, 69, 100
4, 229560, Note_on_c, 2, 69, 0
4, 229560, Note_on_c, 2, 66, 0
4, 229560, Note_on_c, 2, 64, 100
4, 229560, Note_on_c, 2, 67, 100
4, 229680, Note_on_c, 2, 67, 0
4, 229680, Note_on_c, 2, 64, 0
4, 229680, Note_on_c, 2, 62, 100
4, 229680, Note_on_c, 2, 66, 100
4, 230040, Note_on_c, 2, 66, 0
4, 230040, Note_on_c, 2, 62, 0
4, 230040, Note_on_c, 2, 61, 100
4, 230040, Note_on_c, 2, 64, 100
4, 230160, Note_on_c, 2, 64, 0
4, 230160, Note_on_c, 2, 61, 0
4, 230400, Note_on_c, 2, 66, 100
4, 230400, Note_on_c, 2, 69, 100
4, 230880, Note_on_c, 2, 69, 0
4, 230880, Note_on_c, 2, 66, 0
4, 230880, Note_on_c, 2, 69, 100
4, 230880, Note_on_c, 2, 73, 100
4, 231000, Note_on_c, 2, 73, 0
4, 231000, Note_on_c, 2, 69, 0
4, 231000, Note_on_c, 2, 67, 100
4, 231000, Note_on_c, 2, 71, 100
4, 231120, Note_on_c, 2, 71, 0
4, 231120, Note_on_c, 2, 67, 0
4, 231120, Note_on_c, 2, 66, 100
4, 231120, Note_on_c, 2, 69, 100
4, 231360, Note_on_c, 2, 69, 0
4, 231360, Note_on_c, 2, 66, 0
4, 231360, Note_on_c, 2, 64, 100
4, 231360, Note_on_c, 2, 67, 100
4, 231600, Note_on_c, 2, 67, 0
4, 231600, Note_on_c, 2, 64, 0
4, 231600, Note_on_c, 2, 67, 100
4, 231600, Note_on_c, 2, 71, 100
4, 231720, Note_on_c, 2, 71, 0
4, 231720, Note_on_c, 2, 67, 0
4, 231720, Note_on_c, 2, 66, 100
4, 231720, Note_on_c, 2, 69, 100
4, 231840, Note_on_c, 2, 69, 0
4, 231840, Note_on_c, 2, 66, 0
4, 231840, Note_on_c, 2, 64, 100
4, 231840, Note_on_c, 2, 67, 100
4, 231960, Note_on_c, 2, 67, 0
4, 231960, Note_on_c, 2, 64, 0
4, 231960, Note_on_c, 2, 62, 100
4, 231960, Note_on_c, 2, 66, 100
4, 232080, Note_on_c, 2, 66, 0
4, 232080, Note_on_c, 2, 62, 0
4, 232080, Note_on_c, 2, 69, 100
4, 232080, Note_on_c, 2, 66, 100
4, 232200, Note_on_c, 2, 66, 0
4, 232200, Note_on_c, 2, 69, 0
4, 232200, Note_on_c, 2, 66, 100
4, 232200, Note_on_c, 2, 74, 100
4, 232320, Note_on_c, 2, 74, 0
4, 232320, Note_on_c, 2, 66, 0
4, 232320, Note_on_c, 2, 69, 100
4, 232320, Note_on_c, 2, 66, 100
4, 232440, Note_on_c, 2, 66, 0
4, 232440, Note_on_c, 2, 69, 0
4, 232440, Note_on_c, 2, 62, 100
4, 232440, Note_on_c, 2, 66, 100
4, 232560, Note_on_c, 2, 66, 0
4, 232560, Note_on_c, 2, 62, 0
4, 232560, Note_on_c, 2, 61, 100
4, 232560, Note_on_c, 2, 64, 100
4, 233040, Note_on_c, 2, 64, 0
4, 233040, Note_on_c, 2, 61, 0
4, 233040, Note_on_c, 2, 69, 100
4, 233040, Note_on_c, 2, 66, 100
4, 233160, Note_on_c, 2, 66, 0
4, 233160, Note_on_c, 2, 69, 0
4, 233160, Note_on_c, 2, 62, 100
4, 233160, Note_on_c, 2, 66, 100
4, 233280, Note_on_c, 2, 66, 0
4, 233280, Note_on_c, 2, 62, 0
4, 233280, Note_on_c, 2, 61, 100
4, 233280, Note_on_c, 2, 64, 100
4, 233760, Note_on_c, 2, 64, 0
4, 233760, Note_on_c, 2, 61, 0
4, 233760, Note_on_c, 2, 69, 100
4, 233760, Note_on_c, 2, 66, 100
4, 233880, Note_on_c, 2, 66, 0
4, 233880, Note_on_c, 2, 69, 0
4, 233880, Note_on_c, 2, 62, 100
4, 233880, Note_on_c, 2, 66, 100
4, 234000, Note_on_c, 2, 66, 0
4, 234000, Note_on_c, 2, 62, 0
4, 234000, Note_on_c, 2, 61, 100
4, 234000, Note_on_c, 2, 64, 100
4, 234120, Note_on_c, 2, 64, 0
4, 234120, Note_on_c, 2, 61, 0
4, 234840, Note_on_c, 2, 69, 100
4, 234840, Note_on_c, 2, 71, 100
4, 235080, Note_on_c, 2, 71, 0
4, 235080, Note_on_c, 2, 69, 0
4, 235080, Note_on_c, 2, 71, 100
4, 235080, Note_on_c, 2, 69, 100
4, 235320, Note_on_c, 2, 69, 0
4, 235320, Note_on_c, 2, 71, 0
4, 235320, Note_on_c, 2, 71, 100
4, 235320, Note_on_c, 2, 69, 100
4, 235440, Note_on_c, 2, 69, 0
4, 235440, Note_on_c, 2, 71, 0
4, 235560, Note_on_c, 2, 70, 100
4, 235560, Note_on_c, 2, 73, 100
4, 235800, Note_on_c, 2, 73, 0
4, 235800, Note_on_c, 2, 70, 0
4, 235800, Note_on_c, 2, 70, 100
4, 235800, Note_on_c, 2, 73, 100
4, 236040, Note_on_c, 2, 73, 0
4, 236040, Note_on_c, 2, 70, 0
4, 236040, Note_on_c, 2, 73, 100
4, 236040, Note_on_c, 2, 70, 100
4, 236160, Note_on_c, 2, 70, 0
4, 236160, Note_on_c, 2, 73, 0
4, 236280, Note_on_c, 2, 73, 100
4, 236280, Note_on_c, 2, 76, 100
4, 236520, Note_on_c, 2, 76, 0
4, 236520, Note_on_c, 2, 73, 0
4, 236520, Note_on_c, 2, 73, 100
4, 236520, Note_on_c, 2, 76, 100
4, 236760, Note_on_c, 2, 76, 0
4, 236760, Note_on_c, 2, 73, 0
4, 236760, Note_on_c, 2, 73, 100
4, 236760, Note_on_c, 2, 76, 100
4, 236880, Note_on_c, 2, 76, 0
4, 236880, Note_on_c, 2, 73, 0
4, 236880, Note_on_c, 2, 74, 100
4, 236880, Note_on_c, 2, 78, 100
4, 237180, Note_on_c, 2, 78, 0
4, 237180, Note_on_c, 2, 74, 0
4, 237180, Note_on_c, 2, 73, 100
4, 237180, Note_on_c, 2, 76, 100
4, 237240, Note_on_c, 2, 76, 0
4, 237240, Note_on_c, 2, 73, 0
4, 237240, Note_on_c, 2, 74, 100
4, 237240, Note_on_c, 2, 78, 100
4, 237360, Note_on_c, 2, 78, 0
4, 237360, Note_on_c, 2, 74, 0
4, 237600, Note_on_c, 2, 74, 100
4, 237600, Note_on_c, 2, 78, 100
4, 237900, Note_on_c, 2, 78, 0
4, 237900, Note_on_c, 2, 74, 0
4, 237900, Note_on_c, 2, 73, 100
4, 237900, Note_on_c, 2, 76, 100
4, 237960, Note_on_c, 2, 76, 0
4, 237960, Note_on_c, 2, 73, 0
4, 237960, Note_on_c, 2, 74, 100
4, 237960, Note_on_c, 2, 78, 100
4, 238080, Note_on_c, 2, 78, 0
4, 238080, Note_on_c, 2, 74, 0
4, 238320, Note_on_c, 2, 74, 100
4, 238320, Note_on_c, 2, 78, 100
4, 238560, Note_on_c, 2, 78, 0
4, 238560, Note_on_c, 2, 74, 0
4, 238560, Note_on_c, 2, 73, 100
4, 238560, Note_on_c, 2, 76, 100
4, 238680, Note_on_c, 2, 76, 0
4, 238680, Note_on_c, 2, 73, 0
4, 238680, Note_on_c, 2, 74, 100
4, 238680, Note_on_c, 2, 78, 100
4, 238800, Note_on_c, 2, 78, 0
4, 238800, Note_on_c, 2, 74, 0
4, 238800, Note_on_c, 2, 79, 100
4, 238800, Note_on_c, 2, 76, 100
4, 238920, Note_on_c, 2, 76, 0
4, 238920, Note_on_c, 2, 79, 0
4, 238920, Note_on_c, 2, 78, 100
4, 238920, Note_on_c, 2, 74, 100
4, 239040, Note_on_c, 2, 74, 0
4, 239040, Note_on_c, 2, 78, 0
4, 239040, Note_on_c, 2, 73, 100
4, 239040, Note_on_c, 2, 76, 100
4, 239160, Note_on_c, 2, 76, 0
4, 239160, Note_on_c, 2, 73, 0
4, 239760, Note_on_c, 2, 73, 100
4, 239760, Note_on_c, 2, 76, 100
4, 240060, Note_on_c, 2, 76, 0
4, 240060, Note_on_c, 2, 73, 0
4, 240060, Note_on_c, 2, 72, 100
4, 240060, Note_on_c, 2, 75, 100
4, 240120, Note_on_c, 2, 75, 0
4, 240120, Note_on_c, 2, 72, 0
4, 240120, Note_on_c, 2, 73, 100
4, 240120, Note_on_c, 2, 76, 100
4, 240240, Note_on_c, 2, 76, 0
4, 240240, Note_on_c, 2, 73, 0
4, 240480, Note_on_c, 2, 73, 100
4, 240480, Note_on_c, 2, 76, 100
4, 240780, Note_on_c, 2, 76, 0
4, 240780, Note_on_c, 2, 73, 0
4, 240780, Note_on_c, 2, 75, 100
4, 240780, Note_on_c, 2, 72, 100
4, 240840, Note_on_c, 2, 72, 0
4, 240840, Note_on_c, 2, 75, 0
4, 240840, Note_on_c, 2, 73, 100
4, 240840, Note_on_c, 2, 76, 100
4, 240960, Note_on_c, 2, 76, 0
4, 240960, Note_on_c, 2, 73, 0
4, 241200, Note_on_c, 2, 73, 100
4, 241200, Note_on_c, 2, 76, 100
4, 241440, Note_on_c, 2, 76, 0
4, 241440, Note_on_c, 2, 73, 0
4, 241440, Note_on_c, 2, 74, 100
4, 241440, Note_on_c, 2, 78, 100
4, 241560, Note_on_c, 2, 78, 0
4, 241560, Note_on_c, 2, 74, 0
4, 241560, Note_on_c, 2, 81, 100
4, 241560, Note_on_c, 2, 78, 100
4, 241680, Note_on_c, 2, 78, 0
4, 241680, Note_on_c, 2, 81, 0
4, 241680, Note_on_c, 2, 79, 100
4, 241680, Note_on_c, 2, 76, 100
4, 241800, Note_on_c, 2, 76, 0
4, 241800, Note_on_c, 2, 79, 0
4, 241800, Note_on_c, 2, 73, 100
4, 241800, Note_on_c, 2, 76, 100
4, 241920, Note_on_c, 2, 76, 0
4, 241920, Note_on_c, 2, 73, 0
4, 241920, Note_on_c, 2, 74, 100
4, 242040, Note_on_c, 2, 74, 0
4, 242640, Note_on_c, 2, 66, 100
4, 242640, Note_on_c, 2, 69, 100
4, 243240, Note_on_c, 2, 69, 0
4, 243240, Note_on_c, 2, 66, 0
4, 243240, Note_on_c, 2, 67, 100
4, 243240, Note_on_c, 2, 71, 100
4, 243360, Note_on_c, 2, 71, 0
4, 243360, Note_on_c, 2, 67, 0
4, 243360, Note_on_c, 2, 64, 100
4, 243360, Note_on_c, 2, 67, 100
4, 243960, Note_on_c, 2, 67, 0
4, 243960, Note_on_c, 2, 64, 0
4, 243960, Note_on_c, 2, 66, 100
4, 243960, Note_on_c, 2, 69, 100
4, 244080, Note_on_c, 2, 69, 0
4, 244080, Note_on_c, 2, 66, 0
4, 244080, Note_on_c, 2, 62, 100
4, 244080, Note_on_c, 2, 66, 100
4, 244440, Note_on_c, 2, 66, 0
4, 244440, Note_on_c, 2, 62, 0
4, 244440, Note_on_c, 2, 67, 100
4, 244440, Note_on_c, 2, 64, 100
4, 244470, Note_on_c, 2, 64, 0
4, 244470, Note_on_c, 2, 67, 0
4, 244470, Note_on_c, 2, 66, 100
4, 244470, Note_on_c, 2, 62, 100
4, 244500, Note_on_c, 2, 62, 0
4, 244500, Note_on_c, 2, 66, 0
4, 244500, Note_on_c, 2, 64, 100
4, 244500, Note_on_c, 2, 61, 100
4, 244530, Note_on_c, 2, 61, 0
4, 244530, Note_on_c, 2, 64, 0
4, 244530, Note_on_c, 2, 66, 100
4, 244530, Note_on_c, 2, 62, 100
4, 244560, Note_on_c, 2, 62, 0
4, 244560, Note_on_c, 2, 66, 0
4, 244560, Note_on_c, 2, 66, 100
4, 244560, Note_on_c, 2, 69, 100
4, 244680, Note_on_c, 2, 69, 0
4, 244680, Note_on_c, 2, 66, 0
4, 244680, Note_on_c, 2, 64, 100
4, 244680, Note_on_c, 2, 67, 100
4, 244800, Note_on_c, 2, 67, 0
4, 244800, Note_on_c, 2, 64, 0
4, 244800, Note_on_c, 2, 62, 100
4, 244800, Note_on_c, 2, 66, 100
4, 245160, Note_on_c, 2, 66, 0
4, 245160, Note_on_c, 2, 62, 0
4, 245160, Note_on_c, 2, 61, 100
4, 245160, Note_on_c, 2, 64, 100
4, 245280, Note_on_c, 2, 64, 0
4, 245280, Note_on_c, 2, 61, 0
4, 245520, Note_on_c, 2, 66, 100
4, 245520, Note_on_c, 2, 69, 100
4, 246000, Note_on_c, 2, 69, 0
4, 246000, Note_on_c, 2, 66, 0
4, 246000, Note_on_c, 2, 69, 100
4, 246000, Note_on_c, 2, 73, 100
4, 246120, Note_on_c, 2, 73, 0
4, 246120, Note_on_c, 2, 69, 0
4, 246120, Note_on_c, 2, 67, 100
4, 246120, Note_on_c, 2, 71, 100
4, 246240, Note_on_c, 2, 71, 0
4, 246240, Note_on_c, 2, 67, 0
4, 246240, Note_on_c, 2, 66, 100
4, 246240, Note_on_c, 2, 69, 100
4, 246480, Note_on_c, 2, 69, 0
4, 246480, Note_on_c, 2, 66, 0
4, 246480, Note_on_c, 2, 64, 100
4, 246480, Note_on_c, 2, 67, 100
4, 246720, Note_on_c, 2, 67, 0
4, 246720, Note_on_c, 2, 64, 0
4, 246720, Note_on_c, 2, 67, 100
4, 246720, Note_on_c, 2, 71, 100
4, 246840, Note_on_c, 2, 71, 0
4, 246840, Note_on_c, 2, 67, 0
4, 246840, Note_on_c, 2, 66, 100
4, 246840, Note_on_c, 2, 69, 100
4, 246960, Note_on_c, 2, 69, 0
4, 246960, Note_on_c, 2, 66, 0
4, 246960, Note_on_c, 2, 64, 100
4, 246960, Note_on_c, 2, 67, 100
4, 247080, Note_on_c, 2, 67, 0
4, 247080, Note_on_c, 2, 64, 0
4, 247080, Note_on_c, 2, 62, 100
4, 247080, Note_on_c, 2, 66, 100
4, 247200, Note_on_c, 2, 66, 0
4, 247200, Note_on_c, 2, 62, 0
4, 247200, Note_on_c, 2, 69, 100
4, 247200, Note_on_c, 2, 66, 100
4, 247320, Note_on_c, 2, 66, 0
4, 247320, Note_on_c, 2, 69, 0
4, 247320, Note_on_c, 2, 66, 100
4, 247320, Note_on_c, 2, 74, 100
4, 247440, Note_on_c, 2, 74, 0
4, 247440, Note_on_c, 2, 66, 0
4, 247440, Note_on_c, 2, 69, 100
4, 247440, Note_on_c, 2, 66, 100
4, 247560, Note_on_c, 2, 66, 0
4, 247560, Note_on_c, 2, 69, 0
4, 247560, Note_on_c, 2, 62, 100
4, 247560, Note_on_c, 2, 66, 100
4, 247680, Note_on_c, 2, 66, 0
4, 247680, Note_on_c, 2, 62, 0
4, 247680, Note_on_c, 2, 61, 100
4, 247680, Note_on_c, 2, 64, 100
4, 248160, Note_on_c, 2, 64, 0
4, 248160, Note_on_c, 2, 61, 0
4, 248160, Note_on_c, 2, 69, 100
4, 248160, Note_on_c, 2, 66, 100
4, 248280, Note_on_c, 2, 66, 0
4, 248280, Note_on_c, 2, 69, 0
4, 248280, Note_on_c, 2, 62, 100
4, 248280, Note_on_c, 2, 66, 100
4, 248400, Note_on_c, 2, 66, 0
4, 248400, Note_on_c, 2, 62, 0
4, 248400, Note_on_c, 2, 61, 100
4, 248400, Note_on_c, 2, 64, 100
4, 248880, Note_on_c, 2, 64, 0
4, 248880, Note_on_c, 2, 61, 0
4, 248880, Note_on_c, 2, 69, 100
4, 248880, Note_on_c, 2, 66, 100
4, 249000, Note_on_c, 2, 66, 0
4, 249000, Note_on_c, 2, 69, 0
4, 249000, Note_on_c, 2, 62, 100
4, 249000, Note_on_c, 2, 66, 100
4, 249120, Note_on_c, 2, 66, 0
4, 249120, Note_on_c, 2, 62, 0
4, 249120, Note_on_c, 2, 61, 100
4, 249120, Note_on_c, 2, 64, 100
4, 249240, Note_on_c, 2, 64, 0
4, 249240, Note_on_c, 2, 61, 0
4, 249960, Note_on_c, 2, 69, 100
4, 249960, Note_on_c, 2, 71, 100
4, 250200, Note_on_c, 2, 71, 0
4, 250200, Note_on_c, 2, 69, 0
4, 250200, Note_on_c, 2, 71, 100
4, 250200, Note_on_c, 2, 69, 100
4, 250440, Note_on_c, 2, 69, 0
4, 250440, Note_on_c, 2, 71, 0
4, 250440, Note_on_c, 2, 71, 100
4, 250440, Note_on_c, 2, 69, 100
4, 250560, Note_on_c, 2, 69, 0
4, 250560, Note_on_c, 2, 71, 0
4, 250680, Note_on_c, 2, 70, 100
4, 250680, Note_on_c, 2, 73, 100
4, 250920, Note_on_c, 2, 73, 0
4, 250920, Note_on_c, 2, 70, 0
4, 250920, Note_on_c, 2, 70, 100
4, 250920, Note_on_c, 2, 73, 100
4, 251160, Note_on_c, 2, 73, 0
4, 251160, Note_on_c, 2, 70, 0
4, 251160, Note_on_c, 2, 73, 100
4, 251160, Note_on_c, 2, 70, 100
4, 251280, Note_on_c, 2, 70, 0
4, 251280, Note_on_c, 2, 73, 0
4, 251400, Note_on_c, 2, 73, 100
4, 251400, Note_on_c, 2, 76, 100
4, 251640, Note_on_c, 2, 76, 0
4, 251640, Note_on_c, 2, 73, 0
4, 251640, Note_on_c, 2, 73, 100
4, 251640, Note_on_c, 2, 76, 100
4, 251880, Note_on_c, 2, 76, 0
4, 251880, Note_on_c, 2, 73, 0
4, 251880, Note_on_c, 2, 73, 100
4, 251880, Note_on_c, 2, 76, 100
4, 252000, Note_on_c, 2, 76, 0
4, 252000, Note_on_c, 2, 73, 0
4, 252000, Note_on_c, 2, 74, 100
4, 252000, Note_on_c, 2, 78, 100
4, 252300, Note_on_c, 2, 78, 0
4, 252300, Note_on_c, 2, 74, 0
4, 252300, Note_on_c, 2, 73, 100
4, 252300, Note_on_c, 2, 76, 100
4, 252360, Note_on_c, 2, 76, 0
4, 252360, Note_on_c, 2, 73, 0
4, 252360, Note_on_c, 2, 74, 100
4, 252360, Note_on_c, 2, 78, 100
4, 252480, Note_on_c, 2, 78, 0
4, 252480, Note_on_c, 2, 74, 0
4, 252720, Note_on_c, 2, 74, 100
4, 252720, Note_on_c, 2, 78, 100
4, 253020, Note_on_c, 2, 78, 0
4, 253020, Note_on_c, 2, 74, 0
4, 253020, Note_on_c, 2, 73, 100
4, 253020, Note_on_c, 2, 76, 100
4, 253080, Note_on_c, 2, 76, 0
4, 253080, Note_on_c, 2, 73, 0
4, 253080, Note_on_c, 2, 74, 100
4, 253080, Note_on_c, 2, 78, 100
4, 253200, Note_on_c, 2, 78, 0
4, 253200, Note_on_c, 2, 74, 0
4, 253440, Note_on_c, 2, 74, 100
4, 253440, Note_on_c, 2, 78, 100
4, 253680, Note_on_c, 2, 78, 0
4, 253680, Note_on_c, 2, 74, 0
4, 253680, Note_on_c, 2, 73, 100
4, 253680, Note_on_c, 2, 76, 100
4, 253800, Note_on_c, 2, 76, 0
4, 253800, Note_on_c, 2, 73, 0
4, 253800, Note_on_c, 2, 74, 100
4, 253800, Note_on_c, 2, 78, 100
4, 253920, Note_on_c, 2, 78, 0
4, 253920, Note_on_c, 2, 74, 0
4, 253920, Note_on_c, 2, 79, 100
4, 253920, Note_on_c, 2, 76, 100
4, 254040, Note_on_c, 2, 76, 0
4, 254040, Note_on_c, 2, 79, 0
4, 254040, Note_on_c, 2, 78, 100
4, 254040, Note_on_c, 2, 74, 100
4, 254160, Note_on_c, 2, 74, 0
4, 254160, Note_on_c, 2, 78, 0
4, 254160, Note_on_c, 2, 73, 100
4, 254160, Note_on_c, 2, 76, 100
4, 254280, Note_on_c, 2, 76, 0
4, 254280, Note_on_c, 2, 73, 0
4, 254880, Note_on_c, 2, 73, 100
4, 254880, Note_on_c, 2, 76, 100
4, 255180, Note_on_c, 2, 76, 0
4, 255180, Note_on_c, 2, 73, 0
4, 255180, Note_on_c, 2, 72, 100
4, 255180, Note_on_c, 2, 75, 100
4, 255240, Note_on_c, 2, 75, 0
4, 255240, Note_on_c, 2, 72, 0
4, 255240, Note_on_c, 2, 73, 100
4, 255240, Note_on_c, 2, 76, 100
4, 255360, Note_on_c, 2, 76, 0
4, 255360, Note_on_c, 2, 73, 0
4, 255600, Note_on_c, 2, 73, 100
4, 255600, Note_on_c, 2, 76, 100
4, 255900, Note_on_c, 2, 76, 0
4, 255900, Note_on_c, 2, 73, 0
4, 255900, Note_on_c, 2, 75, 100
4, 255900, Note_on_c, 2, 72, 100
4, 255960, Note_on_c, 2, 72, 0
4, 255960, Note_on_c, 2, 75, 0
4, 255960, Note_on_c, 2, 73, 100
4, 255960, Note_on_c, 2, 76, 100
4, 256080, Note_on_c, 2, 76, 0
4, 256080, Note_on_c, 2, 73, 0
4, 256320, Note_on_c, 2, 73, 100
4, 256320, Note_on_c, 2, 76, 100
4, 256560, Note_on_c, 2, 76, 0
4, 256560, Note_on_c, 2, 73, 0
4, 256560, Note_on_c, 2, 74, 100
4, 256560, Note_on_c, 2, 78, 100
4, 256680, Note_on_c, 2, 78, 0
4, 256680, Note_on_c, 2, 74, 0
4, 256680, Note_on_c, 2, 81, 100
4, 256680, Note_on_c, 2, 78, 100
4, 256800, Note_on_c, 2, 78, 0
4, 256800, Note_on_c, 2, 81, 0
4, 256800, Note_on_c, 2, 79, 100
4, 256800, Note_on_c, 2, 76, 100
4, 256920, Note_on_c, 2, 76, 0
4, 256920, Note_on_c, 2, 79, 0
4, 256920, Note_on_c, 2, 73, 100
4, 256920, Note_on_c, 2, 76, 100
4, 257040, Note_on_c, 2, 76, 0
4, 257040, Note_on_c, 2, 73, 0
4, 257040, Note_on_c, 2, 74, 100
4, 257160, Note_on_c, 2, 74, 0
4, 262680, Note_on_c, 2, 69, 100
4, 262680, Note_on_c, 2, 77, 100
4, 262800, Note_on_c, 2, 77, 0
4, 262800, Note_on_c, 2, 69, 0
4, 262800, Note_on_c, 2, 77, 100
4, 262800, Note_on_c, 2, 69, 100
4, 262920, Note_on_c, 2, 69, 0
4, 262920, Note_on_c, 2, 77, 0
4, 263040, Note_on_c, 2, 69, 100
4, 263040, Note_on_c, 2, 77, 100
4, 263160, Note_on_c, 2, 77, 0
4, 263160, Note_on_c, 2, 69, 0
4, 263160, Note_on_c, 2, 77, 100
4, 263160, Note_on_c, 2, 69, 100
4, 263280, Note_on_c, 2, 69, 0
4, 263280, Note_on_c, 2, 77, 0
4, 263400, Note_on_c, 2, 69, 100
4, 263400, Note_on_c, 2, 77, 100
4, 263520, Note_on_c, 2, 77, 0
4, 263520, Note_on_c, 2, 69, 0
4, 263520, Note_on_c, 2, 77, 100
4, 263520, Note_on_c, 2, 69, 100
4, 263640, Note_on_c, 2, 69, 0
4, 263640, Note_on_c, 2, 77, 0
4, 268560, Note_on_c, 2, 71, 100
4, 268560, Note_on_c, 2, 74, 100
4, 268920, Note_on_c, 2, 74, 0
4, 268920, Note_on_c, 2, 71, 0
4, 268920, Note_on_c, 2, 69, 100
4, 268920, Note_on_c, 2, 73, 100
4, 269040, Note_on_c, 2, 73, 0
4, 269040, Note_on_c, 2, 69, 0
4, 269280, Note_on_c, 2, 71, 100
4, 269280, Note_on_c, 2, 74, 100
4, 269640, Note_on_c, 2, 74, 0
4, 269640, Note_on_c, 2, 71, 0
4, 269640, Note_on_c, 2, 69, 100
4, 269640, Note_on_c, 2, 73, 100
4, 269760, Note_on_c, 2, 73, 0
4, 269760, Note_on_c, 2, 69, 0
4, 270000, Note_on_c, 2, 71, 100
4, 270000, Note_on_c, 2, 74, 100
4, 270360, Note_on_c, 2, 74, 0
4, 270360, Note_on_c, 2, 71, 0
4, 270360, Note_on_c, 2, 69, 100
4, 270360, Note_on_c, 2, 73, 100
4, 270480, Note_on_c, 2, 73, 0
4, 270480, Note_on_c, 2, 69, 0
4, 270480, Note_on_c, 2, 76, 100
4, 270600, Note_on_c, 2, 76, 0
4, 270600, Note_on_c, 2, 73, 100
4, 270720, Note_on_c, 2, 73, 0
4, 270720, Note_on_c, 2, 69, 100
4, 270840, Note_on_c, 2, 69, 0
4, 270840, Note_on_c, 2, 64, 100
4, 270960, Note_on_c, 2, 64, 0
4, 270960, Note_on_c, 2, 61, 100
4, 271080, Note_on_c, 2, 61, 0
4, 271080, Note_on_c, 2, 57, 100
4, 271200, Note_on_c, 2, 57, 0
4, 272760, Note_on_c, 2, 73, 100
4, 272760, Note_on_c, 2, 76, 100
4, 272880, Note_on_c, 2, 76, 0
4, 272880, Note_on_c, 2, 73, 0
4, 272880, Note_on_c, 2, 74, 100
4, 272880, Note_on_c, 2, 78, 100
4, 273000, Note_on_c, 2, 78, 0
4, 273000, Note_on_c, 2, 74, 0
4, 273000, Note_on_c, 2, 74, 100
4, 273000, Note_on_c, 2, 78, 100
4, 273120, Note_on_c, 2, 78, 0
4, 273120, Note_on_c, 2, 74, 0
4, 273120, Note_on_c, 2, 76, 100
4, 273120, Note_on_c, 2, 73, 100
4, 273240, Note_on_c, 2, 73, 0
4, 273240, Note_on_c, 2, 76, 0
4, 273240, Note_on_c, 2, 80, 100
4, 273240, Note_on_c, 2, 71, 100
4, 273480, Note_on_c, 2, 71, 0
4, 273480, Note_on_c, 2, 80, 0
4, 273480, Note_on_c, 2, 69, 100
4, 273480, Note_on_c, 2, 81, 100
4, 273600, Note_on_c, 2, 81, 0
4, 273600, Note_on_c, 2, 69, 0
4, 273600, Note_on_c, 2, 74, 100
4, 273600, Note_on_c, 2, 78, 100
4, 273720, Note_on_c, 2, 78, 0
4, 273720, Note_on_c, 2, 74, 0
4, 273720, Note_on_c, 2, 74, 100
4, 273720, Note_on_c, 2, 78, 100
4, 273840, Note_on_c, 2, 78, 0
4, 273840, Note_on_c, 2, 74, 0
4, 273840, Note_on_c, 2, 73, 100
4, 273840, Note_on_c, 2, 76, 100
4, 273960, Note_on_c, 2, 76, 0
4, 273960, Note_on_c, 2, 73, 0
4, 273960, Note_on_c, 2, 80, 100
4, 273960, Note_on_c, 2, 71, 100
4, 274200, Note_on_c, 2, 71, 0
4, 274200, Note_on_c, 2, 80, 0
4, 274200, Note_on_c, 2, 69, 100
4, 274200, Note_on_c, 2, 81, 100
4, 274320, Note_on_c, 2, 81, 0
4, 274320, Note_on_c, 2, 69, 0
4, 274320, Note_on_c, 2, 80, 100
4, 274320, Note_on_c, 2, 71, 100
4, 274560, Note_on_c, 2, 71, 0
4, 274560, Note_on_c, 2, 80, 0
4, 274560, Note_on_c, 2, 69, 100
4, 274560, Note_on_c, 2, 81, 100
4, 274680, Note_on_c, 2, 81, 0
4, 274680, Note_on_c, 2, 69, 0
4, 274680, Note_on_c, 2, 80, 100
4, 274680, Note_on_c, 2, 71, 100
4, 274920, Note_on_c, 2, 71, 0
4, 274920, Note_on_c, 2, 80, 0
4, 274920, Note_on_c, 2, 69, 100
4, 274920, Note_on_c, 2, 81, 100
4, 275040, Note_on_c, 2, 81, 0
4, 275040, Note_on_c, 2, 69, 0
4, 275040, Note_on_c, 2, 80, 100
4, 275040, Note_on_c, 2, 71, 100
4, 275280, Note_on_c, 2, 71, 0
4, 275280, Note_on_c, 2, 80, 0
4, 275280, Note_on_c, 2, 69, 100
4, 275280, Note_on_c, 2, 81, 100
4, 275400, Note_on_c, 2, 81, 0
4, 275400, Note_on_c, 2, 69, 0
4, 275400, Note_on_c, 2, 80, 100
4, 275400, Note_on_c, 2, 71, 100
4, 275640, Note_on_c, 2, 71, 0
4, 275640, Note_on_c, 2, 80, 0
4, 275640, Note_on_c, 2, 69, 100
4, 275640, Note_on_c, 2, 81, 100
4, 275760, Note_on_c, 2, 81, 0
4, 275760, Note_on_c, 2, 69, 0
4, 278160, Note_on_c, 2, 74, 100
4, 278160, Note_on_c, 2, 77, 100
4, 278280, Note_on_c, 2, 77, 0
4, 278280, Note_on_c, 2, 74, 0
4, 278280, Note_on_c, 2, 74, 100
4, 278280, Note_on_c, 2, 77, 100
4, 278400, Note_on_c, 2, 77, 0
4, 278400, Note_on_c, 2, 74, 0
4, 294360, Note_on_c, 2, 77, 100
4, 294360, Note_on_c, 2, 69, 100
4, 294480, Note_on_c, 2, 69, 0
4, 294480, Note_on_c, 2, 77, 0
4, 294480, Note_on_c, 2, 69, 100
4, 294480, Note_on_c, 2, 77, 100
4, 294600, Note_on_c, 2, 77, 0
4, 294600, Note_on_c, 2, 69, 0
4, 294720, Note_on_c, 2, 69, 100
4, 294720, Note_on_c, 2, 77, 100
4, 294840, Note_on_c, 2, 77, 0
4, 294840, Note_on_c, 2, 69, 0
4, 294840, Note_on_c, 2, 69, 100
4, 294840, Note_on_c, 2, 77, 100
4, 294960, Note_on_c, 2, 77, 0
4, 294960, Note_on_c, 2, 69, 0
4, 295080, Note_on_c, 2, 69, 100
4, 295080, Note_on_c, 2, 77, 100
4, 295200, Note_on_c, 2, 77, 0
4, 295200, Note_on_c, 2, 69, 0
4, 295200, Note_on_c, 2, 65, 100
4, 295200, Note_on_c, 2, 77, 100
4, 296400, Note_on_c, 2, 77, 0
4, 296400, Note_on_c, 2, 65, 0
4, 296400, Note_on_c, 2, 67, 100
4, 296400, Note_on_c, 2, 79, 100
4, 296520, Note_on_c, 2, 79, 0
4, 296520, Note_on_c, 2, 67, 0
4, 296520, Note_on_c, 2, 67, 100
4, 296520, Note_on_c, 2, 79, 100
4, 296640, Note_on_c, 2, 79, 0
4, 296640, Note_on_c, 2, 67, 0
4, 296640, Note_on_c, 2, 67, 100
4, 296640, Note_on_c, 2, 79, 100
4, 297840, Note_on_c, 2, 79, 0
4, 297840, Note_on_c, 2, 67, 0
4, 297840, Note_on_c, 2, 69, 100
4, 297840, Note_on_c, 2, 81, 100
4, 297960, Note_on_c, 2, 81, 0
4, 297960, Note_on_c, 2, 69, 0
4, 297960, Note_on_c, 2, 69, 100
4, 297960, Note_on_c, 2, 81, 100
4, 298080, Note_on_c, 2, 81, 0
4, 298080, Note_on_c, 2, 69, 0
4, 304920, Note_on_c, 2, 64, 100
4, 304920, Note_on_c, 2, 67, 100
4, 305040, Note_on_c, 2, 67, 0
4, 305040, Note_on_c, 2, 64, 0
4, 305040, Note_on_c, 2, 64, 100
4, 305040, Note_on_c, 2, 67, 100
4, 305160, Note_on_c, 2, 67, 0
4, 305160, Note_on_c, 2, 64, 0
4, 305160, Note_on_c, 2, 64, 100
4, 305160, Note_on_c, 2, 67, 100
4, 305280, Note_on_c, 2, 67, 0
4, 305280, Note_on_c, 2, 64, 0
4, 305640, Note_on_c, 2, 64, 100
4, 305640, Note_on_c, 2, 67, 100
4, 305760, Note_on_c, 2, 67, 0
4, 305760, Note_on_c, 2, 64, 0
4, 305760, Note_on_c, 2, 64, 100
4, 305760, Note_on_c, 2, 67, 100
4, 305880, Note_on_c, 2, 67, 0
4, 305880, Note_on_c, 2, 64, 0
4, 305880, Note_on_c, 2, 64, 100
4, 305880, Note_on_c, 2, 67, 100
4, 306000, Note_on_c, 2, 67, 0
4, 306000, Note_on_c, 2, 64, 0
4, 306360, Note_on_c, 2, 64, 100
4, 306360, Note_on_c, 2, 67, 100
4, 306480, Note_on_c, 2, 67, 0
4, 306480, Note_on_c, 2, 64, 0
4, 306480, Note_on_c, 2, 64, 100
4, 306480, Note_on_c, 2, 67, 100
4, 306600, Note_on_c, 2, 67, 0
4, 306600, Note_on_c, 2, 64, 0
4, 306600, Note_on_c, 2, 64, 100
4, 306600, Note_on_c, 2, 67, 100
4, 306720, Note_on_c, 2, 67, 0
4, 306720, Note_on_c, 2, 64, 0
4, 307080, Note_on_c, 2, 64, 100
4, 307080, Note_on_c, 2, 67, 100
4, 307200, Note_on_c, 2, 67, 0
4, 307200, Note_on_c, 2, 64, 0
4, 307200, Note_on_c, 2, 64, 100
4, 307200, Note_on_c, 2, 67, 100
4, 307320, Note_on_c, 2, 67, 0
4, 307320, Note_on_c, 2, 64, 0
4, 307320, Note_on_c, 2, 64, 100
4, 307320, Note_on_c, 2, 67, 100
4, 307440, Note_on_c, 2, 67, 0
4, 307440, Note_on_c, 2, 64, 0
4, 307800, Note_on_c, 2, 69, 100
4, 307800, Note_on_c, 2, 77, 100
4, 307920, Note_on_c, 2, 77, 0
4, 307920, Note_on_c, 2, 69, 0
4, 307920, Note_on_c, 2, 69, 100
4, 307920, Note_on_c, 2, 77, 100
4, 308040, Note_on_c, 2, 77, 0
4, 308040, Note_on_c, 2, 69, 0
4, 308040, Note_on_c, 2, 69, 100
4, 308040, Note_on_c, 2, 77, 100
4, 308160, Note_on_c, 2, 77, 0
4, 308160, Note_on_c, 2, 69, 0
4, 308520, Note_on_c, 2, 69, 100
4, 308520, Note_on_c, 2, 77, 100
4, 308640, Note_on_c, 2, 77, 0
4, 308640, Note_on_c, 2, 69, 0
4, 308640, Note_on_c, 2, 69, 100
4, 308640, Note_on_c, 2, 77, 100
4, 308760, Note_on_c, 2, 77, 0
4, 308760, Note_on_c, 2, 69, 0
4, 308760, Note_on_c, 2, 69, 100
4, 308760, Note_on_c, 2, 77, 100
4, 308880, Note_on_c, 2, 77, 0
4, 308880, Note_on_c, 2, 69, 0
4, 309240, Note_on_c, 2, 69, 100
4, 309240, Note_on_c, 2, 77, 100
4, 309360, Note_on_c, 2, 77, 0
4, 309360, Note_on_c, 2, 69, 0
4, 309360, Note_on_c, 2, 69, 100
4, 309360, Note_on_c, 2, 77, 100
4, 309480, Note_on_c, 2, 77, 0
4, 309480, Note_on_c, 2, 69, 0
4, 309480, Note_on_c, 2, 69, 100
4, 309480, Note_on_c, 2, 77, 100
4, 309600, Note_on_c, 2, 77, 0
4, 309600, Note_on_c, 2, 69, 0
4, 309960, Note_on_c, 2, 69, 100
4, 309960, Note_on_c, 2, 77, 100
4, 310080, Note_on_c, 2, 77, 0
4, 310080, Note_on_c, 2, 69, 0
4, 310080, Note_on_c, 2, 69, 100
4, 310080, Note_on_c, 2, 77, 100
4, 310200, Note_on_c, 2, 77, 0
4, 310200, Note_on_c, 2, 69, 0
4, 310200, Note_on_c, 2, 69, 100
4, 310200, Note_on_c, 2, 77, 100
4, 310320, Note_on_c, 2, 77, 0
4, 310320, Note_on_c, 2, 69, 0
4, 310680, Note_on_c, 2, 69, 100
4, 310680, Note_on_c, 2, 77, 100
4, 310800, Note_on_c, 2, 77, 0
4, 310800, Note_on_c, 2, 69, 0
4, 310800, Note_on_c, 2, 69, 100
4, 310800, Note_on_c, 2, 77, 100
4, 310920, Note_on_c, 2, 77, 0
4, 310920, Note_on_c, 2, 69, 0
4, 310920, Note_on_c, 2, 69, 100
4, 310920, Note_on_c, 2, 77, 100
4, 311040, Note_on_c, 2, 77, 0
4, 311040, Note_on_c, 2, 69, 0
4, 311040, Note_on_c, 2, 69, 100
4, 311040, Note_on_c, 2, 77, 100
4, 311160, Note_on_c, 2, 77, 0
4, 311160, Note_on_c, 2, 69, 0
4, 311160, Note_on_c, 2, 69, 100
4, 311160, Note_on_c, 2, 77, 100
4, 311280, Note_on_c, 2, 77, 0
4, 311280, Note_on_c, 2, 69, 0
4, 311280, Note_on_c, 2, 69, 100
4, 311280, Note_on_c, 2, 77, 100
4, 311400, Note_on_c, 2, 77, 0
4, 311400, Note_on_c, 2, 69, 0
4, 311400, Note_on_c, 2, 69, 100
4, 311400, Note_on_c, 2, 77, 100
4, 311520, Note_on_c, 2, 77, 0
4, 311520, Note_on_c, 2, 69, 0
4, 313080, Note_on_c, 2, 65, 100
4, 313080, Note_on_c, 2, 77, 100
4, 313200, Note_on_c, 2, 77, 0
4, 313200, Note_on_c, 2, 65, 0
4, 313200, Note_on_c, 2, 81, 100
4, 313200, Note_on_c, 2, 69, 100
4, 313320, Note_on_c, 2, 69, 0
4, 313320, Note_on_c, 2, 81, 0
4, 313560, Note_on_c, 2, 81, 100
4, 313560, Note_on_c, 2, 69, 100
4, 313680, Note_on_c, 2, 69, 0
4, 313680, Note_on_c, 2, 81, 0
4, 313920, Note_on_c, 2, 81, 100
4, 313920, Note_on_c, 2, 69, 100
4, 314040, Note_on_c, 2, 69, 0
4, 314040, Note_on_c, 2, 81, 0
4, 314280, Note_on_c, 2, 81, 100
4, 314280, Note_on_c, 2, 69, 100
4, 314400, Note_on_c, 2, 69, 0
4, 314400, Note_on_c, 2, 81, 0
4, 314640, Note_on_c, 2, 81, 100
4, 314640, Note_on_c, 2, 69, 100
4, 314760, Note_on_c, 2, 69, 0
4, 314760, Note_on_c, 2, 81, 0
4, 316080, Note_on_c, 2, 74, 100
4, 316080, Note_on_c, 2, 65, 100
4, 316380, Note_on_c, 2, 65, 0
4, 316380, Note_on_c, 2, 74, 0
4, 316380, Note_on_c, 2, 72, 100
4, 316380, Note_on_c, 2, 64, 100
4, 316440, Note_on_c, 2, 64, 0
4, 316440, Note_on_c, 2, 72, 0
4, 316440, Note_on_c, 2, 74, 100
4, 316440, Note_on_c, 2, 65, 100
4, 316560, Note_on_c, 2, 65, 0
4, 316560, Note_on_c, 2, 74, 0
4, 316800, Note_on_c, 2, 74, 100
4, 316800, Note_on_c, 2, 65, 100
4, 317100, Note_on_c, 2, 65, 0
4, 317100, Note_on_c, 2, 74, 0
4, 317100, Note_on_c, 2, 72, 100
4, 317100, Note_on_c, 2, 64, 100
4, 317160, Note_on_c, 2, 64, 0
4, 317160, Note_on_c, 2, 72, 0
4, 317160, Note_on_c, 2, 74, 100
4, 317160, Note_on_c, 2, 65, 100
4, 317280, Note_on_c, 2, 65, 0
4, 317280, Note_on_c, 2, 74, 0
4, 318600, Note_on_c, 2, 67, 100
4, 318600, Note_on_c, 2, 76, 100
4, 318720, Note_on_c, 2, 76, 0
4, 318720, Note_on_c, 2, 67, 0
4, 318960, Note_on_c, 2, 77, 100
4, 318960, Note_on_c, 2, 69, 100
4, 319080, Note_on_c, 2, 69, 0
4, 319080, Note_on_c, 2, 77, 0
4, 319080, End_track
5, 0, Start_track
5, 0, MIDI_port, 0
5, 0, Title_t, "Bassoons"
5, 0, Program_c, 3, 70
5, 0, Control_c, 3, 7, 85
5, 0, Control_c, 3, 10, 75
5, 600, Note_on_c, 3, 41, 100
5, 600, Note_on_c, 3, 53, 100
5, 720, Note_on_c, 3, 53, 0
5, 720, Note_on_c, 3, 41, 0
5, 720, Note_on_c, 3, 53, 100
5, 720, Note_on_c, 3, 41, 100
5, 750, Note_on_c, 3, 53, 0
5, 750, Note_on_c, 3, 57, 100
5, 840, Note_on_c, 3, 57, 0
5, 840, Note_on_c, 3, 41, 0
5, 840, Note_on_c, 3, 53, 100
5, 900, Note_on_c, 3, 53, 0
5, 960, Note_on_c, 3, 53, 100
5, 960, Note_on_c, 3, 57, 100
5, 1080, Note_on_c, 3, 57, 0
5, 1080, Note_on_c, 3, 53, 0
5, 1080, Note_on_c, 3, 53, 100
5, 1080, Note_on_c, 3, 57, 100
5, 1110, Note_on_c, 3, 57, 0
5, 1110, Note_on_c, 3, 53, 0
5, 1110, Note_on_c, 3, 60, 100
5, 1110, Note_on_c, 3, 57, 100
5, 1200, Note_on_c, 3, 57, 0
5, 1200, Note_on_c, 3, 60, 0
5, 1200, Note_on_c, 3, 53, 100
5, 1200, Note_on_c, 3, 57, 100
5, 1260, Note_on_c, 3, 57, 0
5, 1260, Note_on_c, 3, 53, 0
5, 1320, Note_on_c, 3, 57, 100
5, 1320, Note_on_c, 3, 60, 100
5, 1440, Note_on_c, 3, 60, 0
5, 1440, Note_on_c, 3, 57, 0
5, 1440, Note_on_c, 3, 65, 100
5, 1440, Note_on_c, 3, 57, 100
5, 1560, Note_on_c, 3, 57, 0
5, 1560, Note_on_c, 3, 65, 0
5, 1560, Note_on_c, 3, 65, 100
5, 1560, Note_on_c, 3, 57, 100
5, 1680, Note_on_c, 3, 57, 0
5, 1680, Note_on_c, 3, 65, 0
5, 1680, Note_on_c, 3, 64, 100
5, 1680, Note_on_c, 3, 60, 100
5, 1800, Note_on_c, 3, 60, 0
5, 1800, Note_on_c, 3, 64, 0
5, 1800, Note_on_c, 3, 58, 100
5, 1800, Note_on_c, 3, 62, 100
5, 1920, Note_on_c, 3, 62, 0
5, 1920, Note_on_c, 3, 58, 0
5, 1920, Note_on_c, 3, 58, 100
5, 1920, Note_on_c, 3, 62, 100
5, 2040, Note_on_c, 3, 62, 0
5, 2040, Note_on_c, 3, 58, 0
5, 2040, Note_on_c, 3, 57, 100
5, 2040, Note_on_c, 3, 60, 100
5, 2160, Note_on_c, 3, 60, 0
5, 2160, Note_on_c, 3, 57, 0
5, 2160, Note_on_c, 3, 55, 100
5, 2160, Note_on_c, 3, 58, 100
5, 2280, Note_on_c, 3, 58, 0
5, 2280, Note_on_c, 3, 55, 0
5, 2280, Note_on_c, 3, 55, 100
5, 2280, Note_on_c, 3, 58, 100
5, 2400, Note_on_c, 3, 58, 0
5, 2400, Note_on_c, 3, 55, 0
5, 2400, Note_on_c, 3, 53, 100
5, 2400, Note_on_c, 3, 57, 100
5, 2520, Note_on_c, 3, 57, 0
5, 2520, Note_on_c, 3, 53, 0
5, 2520, Note_on_c, 3, 52, 100
5, 2520, Note_on_c, 3, 55, 100
5, 2880, Note_on_c, 3, 55, 0
5, 2880, Note_on_c, 3, 52, 0
5, 2880, Note_on_c, 3, 67, 100
5, 2880, Note_on_c, 3, 64, 100
5, 3000, Note_on_c, 3, 64, 0
5, 3000, Note_on_c, 3, 67, 0
5, 3000, Note_on_c, 3, 64, 100
5, 3000, Note_on_c, 3, 67, 100
5, 3120, Note_on_c, 3, 67, 0
5, 3120, Note_on_c, 3, 64, 0
5, 3120, Note_on_c, 3, 62, 100
5, 3120, Note_on_c, 3, 65, 100
5, 3240, Note_on_c, 3, 65, 0
5, 3240, Note_on_c, 3, 62, 0
5, 3240, Note_on_c, 3, 60, 100
5, 3240, Note_on_c, 3, 64, 100
5, 3360, Note_on_c, 3, 64, 0
5, 3360, Note_on_c, 3, 60, 0
5, 3360, Note_on_c, 3, 60, 100
5, 3360, Note_on_c, 3, 64, 100
5, 3480, Note_on_c, 3, 64, 0
5, 3480, Note_on_c, 3, 60, 0
5, 3480, Note_on_c, 3, 58, 100
5, 3480, Note_on_c, 3, 62, 100
5, 3600, Note_on_c, 3, 62, 0
5, 3600, Note_on_c, 3, 58, 0
5, 3600, Note_on_c, 3, 57, 100
5, 3600, Note_on_c, 3, 60, 100
5, 3720, Note_on_c, 3, 60, 0
5, 3720, Note_on_c, 3, 57, 0
5, 3720, Note_on_c, 3, 57, 100
5, 3720, Note_on_c, 3, 60, 100
5, 3840, Note_on_c, 3, 60, 0
5, 3840, Note_on_c, 3, 57, 0
5, 3840, Note_on_c, 3, 55, 100
5, 3840, Note_on_c, 3, 58, 100
5, 3960, Note_on_c, 3, 58, 0
5, 3960, Note_on_c, 3, 55, 0
5, 3960, Note_on_c, 3, 53, 100
5, 3960, Note_on_c, 3, 57, 100
5, 4320, Note_on_c, 3, 57, 0
5, 4320, Note_on_c, 3, 53, 0
5, 6120, Note_on_c, 3, 65, 100
5, 6120, Note_on_c, 3, 62, 100
5, 6360, Note_on_c, 3, 62, 0
5, 6360, Note_on_c, 3, 65, 0
5, 6360, Note_on_c, 3, 61, 100
5, 6360, Note_on_c, 3, 64, 100
5, 6480, Note_on_c, 3, 64, 0
5, 6480, Note_on_c, 3, 61, 0
5, 6480, Note_on_c, 3, 59, 100
5, 6480, Note_on_c, 3, 62, 100
5, 6840, Note_on_c, 3, 62, 0
5, 6840, Note_on_c, 3, 59, 0
5, 6840, Note_on_c, 3, 57, 100
5, 6840, Note_on_c, 3, 61, 100
5, 6960, Note_on_c, 3, 61, 0
5, 6960, Note_on_c, 3, 57, 0
5, 7200, Note_on_c, 3, 59, 100
5, 7200, Note_on_c, 3, 62, 100
5, 7560, Note_on_c, 3, 62, 0
5, 7560, Note_on_c, 3, 59, 0
5, 7560, Note_on_c, 3, 57, 100
5, 7560, Note_on_c, 3, 61, 100
5, 7680, Note_on_c, 3, 61, 0
5, 7680, Note_on_c, 3, 57, 0
5, 7920, Note_on_c, 3, 59, 100
5, 7920, Note_on_c, 3, 62, 100
5, 8280, Note_on_c, 3, 62, 0
5, 8280, Note_on_c, 3, 59, 0
5, 8280, Note_on_c, 3, 57, 100
5, 8280, Note_on_c, 3, 61, 100
5, 8400, Note_on_c, 3, 61, 0
5, 8400, Note_on_c, 3, 57, 0
5, 8400, Note_on_c, 3, 64, 100
5, 8520, Note_on_c, 3, 64, 0
5, 8520, Note_on_c, 3, 61, 100
5, 8640, Note_on_c, 3, 61, 0
5, 8640, Note_on_c, 3, 57, 100
5, 8760, Note_on_c, 3, 57, 0
5, 8760, Note_on_c, 3, 52, 100
5, 8880, Note_on_c, 3, 52, 0
5, 8880, Note_on_c, 3, 49, 100
5, 9000, Note_on_c, 3, 49, 0
5, 9000, Note_on_c, 3, 45, 100
5, 9120, Note_on_c, 3, 45, 0
5, 9240, Note_on_c, 3, 41, 100
5, 9240, Note_on_c, 3, 53, 100
5, 9360, Note_on_c, 3, 53, 0
5, 9360, Note_on_c, 3, 41, 0
5, 9360, Note_on_c, 3, 53, 100
5, 9360, Note_on_c, 3, 41, 100
5, 9390, Note_on_c, 3, 53, 0
5, 9390, Note_on_c, 3, 57, 100
5, 9480, Note_on_c, 3, 57, 0
5, 9480, Note_on_c, 3, 41, 0
5, 9480, Note_on_c, 3, 53, 100
5, 9540, Note_on_c, 3, 53, 0
5, 9600, Note_on_c, 3, 53, 100
5, 9600, Note_on_c, 3, 57, 100
5, 9720, Note_on_c, 3, 57, 0
5, 9720, Note_on_c, 3, 53, 0
5, 9720, Note_on_c, 3, 53, 100
5, 9720, Note_on_c, 3, 57, 100
5, 9750, Note_on_c, 3, 57, 0
5, 9750, Note_on_c, 3, 53, 0
5, 9750, Note_on_c, 3, 60, 100
5, 9750, Note_on_c, 3, 57, 100
5, 9840, Note_on_c, 3, 57, 0
5, 9840, Note_on_c, 3, 60, 0
5, 9840, Note_on_c, 3, 53, 100
5, 9840, Note_on_c, 3, 57, 100
5, 9900, Note_on_c, 3, 57, 0
5, 9900, Note_on_c, 3, 53, 0
5, 9960, Note_on_c, 3, 57, 100
5, 9960, Note_on_c, 3, 60, 100
5, 10080, Note_on_c, 3, 60, 0
5, 10080, Note_on_c, 3, 57, 0
5, 10080, Note_on_c, 3, 65, 100
5, 10080, Note_on_c, 3, 57, 100
5, 10200, Note_on_c, 3, 57, 0
5, 10200, Note_on_c, 3, 65, 0
5, 10200, Note_on_c, 3, 65, 100
5, 10200, Note_on_c, 3, 57, 100
5, 10320, Note_on_c, 3, 57, 0
5, 10320, Note_on_c, 3, 65, 0
5, 10320, Note_on_c, 3, 64, 100
5, 10320, Note_on_c, 3, 60, 100
5, 10440, Note_on_c, 3, 60, 0
5, 10440, Note_on_c, 3, 64, 0
5, 10440, Note_on_c, 3, 58, 100
5, 10440, Note_on_c, 3, 62, 100
5, 10560, Note_on_c, 3, 62, 0
5, 10560, Note_on_c, 3, 58, 0
5, 10560, Note_on_c, 3, 58, 100
5, 10560, Note_on_c, 3, 62, 100
5, 10680, Note_on_c, 3, 62, 0
5, 10680, Note_on_c, 3, 58, 0
5, 10680, Note_on_c, 3, 57, 100
5, 10680, Note_on_c, 3, 60, 100
5, 10800, Note_on_c, 3, 60, 0
5, 10800, Note_on_c, 3, 57, 0
5, 10800, Note_on_c, 3, 55, 100
5, 10800, Note_on_c, 3, 58, 100
5, 10920, Note_on_c, 3, 58, 0
5, 10920, Note_on_c, 3, 55, 0
5, 10920, Note_on_c, 3, 55, 100
5, 10920, Note_on_c, 3, 58, 100
5, 11040, Note_on_c, 3, 58, 0
5, 11040, Note_on_c, 3, 55, 0
5, 11040, Note_on_c, 3, 53, 100
5, 11040, Note_on_c, 3, 57, 100
5, 11160, Note_on_c, 3, 57, 0
5, 11160, Note_on_c, 3, 53, 0
5, 11160, Note_on_c, 3, 52, 100
5, 11160, Note_on_c, 3, 55, 100
5, 11520, Note_on_c, 3, 55, 0
5, 11520, Note_on_c, 3, 52, 0
5, 11520, Note_on_c, 3, 67, 100
5, 11520, Note_on_c, 3, 64, 100
5, 11640, Note_on_c, 3, 64, 0
5, 11640, Note_on_c, 3, 67, 0
5, 11640, Note_on_c, 3, 64, 100
5, 11640, Note_on_c, 3, 67, 100
5, 11760, Note_on_c, 3, 67, 0
5, 11760, Note_on_c, 3, 64, 0
5, 11760, Note_on_c, 3, 62, 100
5, 11760, Note_on_c, 3, 65, 100
5, 11880, Note_on_c, 3, 65, 0
5, 11880, Note_on_c, 3, 62, 0
5, 11880, Note_on_c, 3, 60, 100
5, 11880, Note_on_c, 3, 64, 100
5, 12000, Note_on_c, 3, 64, 0
5, 12000, Note_on_c, 3, 60, 0
5, 12000, Note_on_c, 3, 60, 100
5, 12000, Note_on_c, 3, 64, 100
5, 12120, Note_on_c, 3, 64, 0
5, 12120, Note_on_c, 3, 60, 0
5, 12120, Note_on_c, 3, 58, 100
5, 12120, Note_on_c, 3, 62, 100
5, 12240, Note_on_c, 3, 62, 0
5, 12240, Note_on_c, 3, 58, 0
5, 12240, Note_on_c, 3, 57, 100
5, 12240, Note_on_c, 3, 60, 100
5, 12360, Note_on_c, 3, 60, 0
5, 12360, Note_on_c, 3, 57, 0
5, 12360, Note_on_c, 3, 57, 100
5, 12360, Note_on_c, 3, 60, 100
5, 12480, Note_on_c, 3, 60, 0
5, 12480, Note_on_c, 3, 57, 0
5, 12480, Note_on_c, 3, 55, 100
5, 12480, Note_on_c, 3, 58, 100
5, 12600, Note_on_c, 3, 58, 0
5, 12600, Note_on_c, 3, 55, 0
5, 12600, Note_on_c, 3, 53, 100
5, 12600, Note_on_c, 3, 57, 100
5, 12960, Note_on_c, 3, 57, 0
5, 12960, Note_on_c, 3, 53, 0
5, 14760, Note_on_c, 3, 65, 100
5, 14760, Note_on_c, 3, 62, 100
5, 15000, Note_on_c, 3, 62, 0
5, 15000, Note_on_c, 3, 65, 0
5, 15000, Note_on_c, 3, 61, 100
5, 15000, Note_on_c, 3, 64, 100
5, 15120, Note_on_c, 3, 64, 0
5, 15120, Note_on_c, 3, 61, 0
5, 15120, Note_on_c, 3, 59, 100
5, 15120, Note_on_c, 3, 62, 100
5, 15480, Note_on_c, 3, 62, 0
5, 15480, Note_on_c, 3, 59, 0
5, 15480, Note_on_c, 3, 57, 100
5, 15480, Note_on_c, 3, 61, 100
5, 15600, Note_on_c, 3, 61, 0
5, 15600, Note_on_c, 3, 57, 0
5, 15840, Note_on_c, 3, 59, 100
5, 15840, Note_on_c, 3, 62, 100
5, 16200, Note_on_c, 3, 62, 0
5, 16200, Note_on_c, 3, 59, 0
5, 16200, Note_on_c, 3, 57, 100
5, 16200, Note_on_c, 3, 61, 100
5, 16320, Note_on_c, 3, 61, 0
5, 16320, Note_on_c, 3, 57, 0
5, 16560, Note_on_c, 3, 59, 100
5, 16560, Note_on_c, 3, 62, 100
5, 16920, Note_on_c, 3, 62, 0
5, 16920, Note_on_c, 3, 59, 0
5, 16920, Note_on_c, 3, 57, 100
5, 16920, Note_on_c, 3, 61, 100
5, 17040, Note_on_c, 3, 61, 0
5, 17040, Note_on_c, 3, 57, 0
5, 17040, Note_on_c, 3, 64, 100
5, 17160, Note_on_c, 3, 64, 0
5, 17160, Note_on_c, 3, 61, 100
5, 17280, Note_on_c, 3, 61, 0
5, 17280, Note_on_c, 3, 57, 100
5, 17400, Note_on_c, 3, 57, 0
5, 17400, Note_on_c, 3, 52, 100
5, 17520, Note_on_c, 3, 52, 0
5, 17520, Note_on_c, 3, 49, 100
5, 17640, Note_on_c, 3, 49, 0
5, 17640, Note_on_c, 3, 45, 100
5, 17760, Note_on_c, 3, 45, 0
5, 23760, Note_on_c, 3, 65, 100
5, 23760, Note_on_c, 3, 60, 100
5, 24000, Note_on_c, 3, 60, 0
5, 24000, Note_on_c, 3, 59, 100
5, 24120, Note_on_c, 3, 59, 0
5, 24120, Note_on_c, 3, 60, 100
5, 24360, Note_on_c, 3, 60, 0
5, 24360, Note_on_c, 3, 59, 100
5, 24480, Note_on_c, 3, 59, 0
5, 24480, Note_on_c, 3, 60, 100
5, 24720, Note_on_c, 3, 60, 0
5, 24720, Note_on_c, 3, 65, 0
5, 24720, Note_on_c, 3, 65, 100
5, 24720, Note_on_c, 3, 59, 100
5, 24840, Note_on_c, 3, 59, 0
5, 24840, Note_on_c, 3, 65, 0
5, 24840, Note_on_c, 3, 65, 100
5, 24840, Note_on_c, 3, 59, 100
5, 24960, Note_on_c, 3, 59, 0
5, 24960, Note_on_c, 3, 65, 0
5, 29520, Note_on_c, 3, 58, 100
5, 29520, Note_on_c, 3, 63, 100
5, 29760, Note_on_c, 3, 58, 0
5, 29760, Note_on_c, 3, 57, 100
5, 29880, Note_on_c, 3, 57, 0
5, 29880, Note_on_c, 3, 58, 100
5, 30120, Note_on_c, 3, 58, 0
5, 30120, Note_on_c, 3, 57, 100
5, 30240, Note_on_c, 3, 57, 0
5, 30240, Note_on_c, 3, 58, 100
5, 30480, Note_on_c, 3, 58, 0
5, 30480, Note_on_c, 3, 63, 0
5, 30480, Note_on_c, 3, 63, 100
5, 30480, Note_on_c, 3, 57, 100
5, 30600, Note_on_c, 3, 57, 0
5, 30600, Note_on_c, 3, 63, 0
5, 30600, Note_on_c, 3, 57, 100
5, 30600, Note_on_c, 3, 63, 100
5, 30720, Note_on_c, 3, 63, 0
5, 30720, Note_on_c, 3, 57, 0
5, 31920, Note_on_c, 3, 58, 100
5, 32040, Note_on_c, 3, 58, 0
5, 32040, Note_on_c, 3, 62, 100
5, 32160, Note_on_c, 3, 62, 0
5, 32160, Note_on_c, 3, 58, 100
5, 32220, Note_on_c, 3, 58, 0
5, 32280, Note_on_c, 3, 62, 100
5, 32400, Note_on_c, 3, 62, 0
5, 32400, Note_on_c, 3, 65, 100
5, 32520, Note_on_c, 3, 65, 0
5, 32520, Note_on_c, 3, 62, 100
5, 32580, Note_on_c, 3, 62, 0
5, 32640, Note_on_c, 3, 65, 100
5, 32760, Note_on_c, 3, 65, 0
5, 32760, Note_on_c, 3, 58, 100
5, 33960, Note_on_c, 3, 58, 0
5, 33960, Note_on_c, 3, 60, 100
5, 33960, Note_on_c, 3, 57, 100
5, 34080, Note_on_c, 3, 57, 0
5, 34080, Note_on_c, 3, 60, 0
5, 34080, Note_on_c, 3, 60, 100
5, 34080, Note_on_c, 3, 57, 100
5, 34200, Note_on_c, 3, 57, 0
5, 34200, Note_on_c, 3, 60, 0
5, 34200, Note_on_c, 3, 60, 100
5, 34200, Note_on_c, 3, 57, 100
5, 35400, Note_on_c, 3, 57, 0
5, 35400, Note_on_c, 3, 60, 0
5, 35400, Note_on_c, 3, 62, 100
5, 35400, Note_on_c, 3, 58, 100
5, 35520, Note_on_c, 3, 58, 0
5, 35520, Note_on_c, 3, 62, 0
5, 35520, Note_on_c, 3, 62, 100
5, 35520, Note_on_c, 3, 58, 100
5, 35640, Note_on_c, 3, 58, 0
5, 35640, Note_on_c, 3, 62, 0
5, 35640, Note_on_c, 3, 62, 100
5, 35640, Note_on_c, 3, 58, 100
5, 36840, Note_on_c, 3, 58, 0
5, 36840, Note_on_c, 3, 62, 0
5, 36840, Note_on_c, 3, 63, 100
5, 36840, Note_on_c, 3, 60, 100
5, 36960, Note_on_c, 3, 60, 0
5, 36960, Note_on_c, 3, 63, 0
5, 36960, Note_on_c, 3, 63, 100
5, 36960, Note_on_c, 3, 60, 100
5, 37080, Note_on_c, 3, 60, 0
5, 37080, Note_on_c, 3, 63, 0
5, 37080, Note_on_c, 3, 60, 100
5, 37080, Note_on_c, 3, 63, 100
5, 38280, Note_on_c, 3, 63, 0
5, 38280, Note_on_c, 3, 60, 0
5, 38280, Note_on_c, 3, 65, 100
5, 38280, Note_on_c, 3, 62, 100
5, 38400, Note_on_c, 3, 62, 0
5, 38400, Note_on_c, 3, 65, 0
5, 38400, Note_on_c, 3, 65, 100
5, 38400, Note_on_c, 3, 62, 100
5, 38520, Note_on_c, 3, 62, 0
5, 38520, Note_on_c, 3, 65, 0
5, 38520, Note_on_c, 3, 53, 100
5, 39720, Note_on_c, 3, 53, 0
5, 39720, Note_on_c, 3, 52, 100
5, 39720, Note_on_c, 3, 55, 100
5, 39840, Note_on_c, 3, 55, 0
5, 39840, Note_on_c, 3, 52, 0
5, 39840, Note_on_c, 3, 52, 100
5, 39840, Note_on_c, 3, 55, 100
5, 39960, Note_on_c, 3, 55, 0
5, 39960, Note_on_c, 3, 52, 0
5, 39960, Note_on_c, 3, 52, 100
5, 39960, Note_on_c, 3, 55, 100
5, 40920, Note_on_c, 3, 55, 0
5, 40920, Note_on_c, 3, 52, 0
5, 40920, Note_on_c, 3, 53, 100
5, 40920, Note_on_c, 3, 57, 100
5, 41040, Note_on_c, 3, 57, 0
5, 41040, Note_on_c, 3, 53, 0
5, 41040, Note_on_c, 3, 57, 100
5, 41160, Note_on_c, 3, 57, 0
5, 41160, Note_on_c, 3, 53, 100
5, 41220, Note_on_c, 3, 53, 0
5, 41280, Note_on_c, 3, 53, 100
5, 41280, Note_on_c, 3, 57, 100
5, 41400, Note_on_c, 3, 57, 0
5, 41400, Note_on_c, 3, 53, 0
5, 41400, Note_on_c, 3, 53, 100
5, 41400, Note_on_c, 3, 57, 100
5, 41430, Note_on_c, 3, 57, 0
5, 41430, Note_on_c, 3, 53, 0
5, 41430, Note_on_c, 3, 57, 100
5, 41430, Note_on_c, 3, 60, 100
5, 41520, Note_on_c, 3, 60, 0
5, 41520, Note_on_c, 3, 57, 0
5, 41520, Note_on_c, 3, 53, 100
5, 41520, Note_on_c, 3, 57, 100
5, 41580, Note_on_c, 3, 57, 0
5, 41580, Note_on_c, 3, 53, 0
5, 41640, Note_on_c, 3, 60, 100
5, 41640, Note_on_c, 3, 57, 100
5, 41760, Note_on_c, 3, 57, 0
5, 41760, Note_on_c, 3, 60, 0
5, 41760, Note_on_c, 3, 53, 100
5, 42960, Note_on_c, 3, 53, 0
5, 42960, Note_on_c, 3, 52, 100
5, 42960, Note_on_c, 3, 55, 100
5, 43080, Note_on_c, 3, 55, 0
5, 43080, Note_on_c, 3, 52, 0
5, 43080, Note_on_c, 3, 52, 100
5, 43080, Note_on_c, 3, 55, 100
5, 43200, Note_on_c, 3, 55, 0
5, 43200, Note_on_c, 3, 52, 0
5, 43200, Note_on_c, 3, 52, 100
5, 43200, Note_on_c, 3, 55, 100
5, 44400, Note_on_c, 3, 55, 0
5, 44400, Note_on_c, 3, 52, 0
5, 44400, Note_on_c, 3, 57, 100
5, 44400, Note_on_c, 3, 53, 100
5, 44520, Note_on_c, 3, 53, 0
5, 44520, Note_on_c, 3, 57, 0
5, 44520, Note_on_c, 3, 57, 100
5, 44520, Note_on_c, 3, 53, 100
5, 44640, Note_on_c, 3, 53, 0
5, 44640, Note_on_c, 3, 57, 0
5, 44640, Note_on_c, 3, 65, 100
5, 44760, Note_on_c, 3, 65, 0
5, 44760, Note_on_c, 3, 65, 100
5, 44880, Note_on_c, 3, 65, 0
5, 44880, Note_on_c, 3, 64, 100
5, 45000, Note_on_c, 3, 64, 0
5, 45000, Note_on_c, 3, 62, 100
5, 45120, Note_on_c, 3, 62, 0
5, 45120, Note_on_c, 3, 62, 100
5, 45240, Note_on_c, 3, 62, 0
5, 45240, Note_on_c, 3, 60, 100
5, 45360, Note_on_c, 3, 60, 0
5, 45360, Note_on_c, 3, 58, 100
5, 45480, Note_on_c, 3, 58, 0
5, 45480, Note_on_c, 3, 58, 100
5, 45600, Note_on_c, 3, 58, 0
5, 45600, Note_on_c, 3, 57, 100
5, 45720, Note_on_c, 3, 57, 0
5, 45720, Note_on_c, 3, 55, 100
5, 46080, Note_on_c, 3, 55, 0
5, 46080, Note_on_c, 3, 67, 100
5, 46080, Note_on_c, 3, 64, 100
5, 46200, Note_on_c, 3, 64, 0
5, 46200, Note_on_c, 3, 67, 0
5, 46200, Note_on_c, 3, 64, 100
5, 46200, Note_on_c, 3, 67, 100
5, 46320, Note_on_c, 3, 67, 0
5, 46320, Note_on_c, 3, 64, 0
5, 46320, Note_on_c, 3, 62, 100
5, 46320, Note_on_c, 3, 65, 100
5, 46440, Note_on_c, 3, 65, 0
5, 46440, Note_on_c, 3, 62, 0
5, 46440, Note_on_c, 3, 60, 100
5, 46440, Note_on_c, 3, 64, 100
5, 46560, Note_on_c, 3, 64, 0
5, 46560, Note_on_c, 3, 60, 0
5, 46560, Note_on_c, 3, 60, 100
5, 46560, Note_on_c, 3, 64, 100
5, 46680, Note_on_c, 3, 64, 0
5, 46680, Note_on_c, 3, 60, 0
5, 46680, Note_on_c, 3, 58, 100
5, 46680, Note_on_c, 3, 62, 100
5, 46800, Note_on_c, 3, 62, 0
5, 46800, Note_on_c, 3, 58, 0
5, 46800, Note_on_c, 3, 57, 100
5, 46800, Note_on_c, 3, 60, 100
5, 46920, Note_on_c, 3, 60, 0
5, 46920, Note_on_c, 3, 57, 0
5, 46920, Note_on_c, 3, 57, 100
5, 46920, Note_on_c, 3, 60, 100
5, 47040, Note_on_c, 3, 60, 0
5, 47040, Note_on_c, 3, 57, 0
5, 47040, Note_on_c, 3, 55, 100
5, 47040, Note_on_c, 3, 58, 100
5, 47160, Note_on_c, 3, 58, 0
5, 47160, Note_on_c, 3, 55, 0
5, 47160, Note_on_c, 3, 53, 100
5, 47160, Note_on_c, 3, 57, 100
5, 47520, Note_on_c, 3, 57, 0
5, 47520, Note_on_c, 3, 53, 0
5, 48240, Note_on_c, 3, 64, 100
5, 48240, Note_on_c, 3, 58, 100
5, 48360, Note_on_c, 3, 58, 0
5, 48360, Note_on_c, 3, 64, 0
5, 48360, Note_on_c, 3, 64, 100
5, 48360, Note_on_c, 3, 58, 100
5, 48480, Note_on_c, 3, 58, 0
5, 48480, Note_on_c, 3, 64, 0
5, 48480, Note_on_c, 3, 60, 100
5, 48480, Note_on_c, 3, 57, 100
5, 48600, Note_on_c, 3, 57, 0
5, 48600, Note_on_c, 3, 60, 0
5, 48600, Note_on_c, 3, 55, 100
5, 48600, Note_on_c, 3, 60, 100
5, 48840, Note_on_c, 3, 60, 0
5, 48840, Note_on_c, 3, 55, 0
5, 48840, Note_on_c, 3, 53, 100
5, 48840, Note_on_c, 3, 60, 100
5, 48960, Note_on_c, 3, 60, 0
5, 48960, Note_on_c, 3, 53, 0
5, 51480, Note_on_c, 3, 64, 100
5, 51480, Note_on_c, 3, 60, 100
5, 51600, Note_on_c, 3, 60, 0
5, 51600, Note_on_c, 3, 64, 0
5, 51600, Note_on_c, 3, 64, 100
5, 51600, Note_on_c, 3, 60, 100
5, 51720, Note_on_c, 3, 60, 0
5, 51720, Note_on_c, 3, 64, 0
5, 51720, Note_on_c, 3, 64, 100
5, 51720, Note_on_c, 3, 60, 100
5, 51840, Note_on_c, 3, 60, 0
5, 51840, Note_on_c, 3, 64, 0
5, 52200, Note_on_c, 3, 64, 100
5, 52200, Note_on_c, 3, 60, 100
5, 52320, Note_on_c, 3, 60, 0
5, 52320, Note_on_c, 3, 64, 0
5, 52320, Note_on_c, 3, 64, 100
5, 52320, Note_on_c, 3, 60, 100
5, 52440, Note_on_c, 3, 60, 0
5, 52440, Note_on_c, 3, 64, 0
5, 52440, Note_on_c, 3, 64, 100
5, 52440, Note_on_c, 3, 60, 100
5, 52560, Note_on_c, 3, 60, 0
5, 52560, Note_on_c, 3, 64, 0
5, 52920, Note_on_c, 3, 64, 100
5, 52920, Note_on_c, 3, 60, 100
5, 53040, Note_on_c, 3, 60, 0
5, 53040, Note_on_c, 3, 64, 0
5, 53040, Note_on_c, 3, 64, 100
5, 53040, Note_on_c, 3, 60, 100
5, 53160, Note_on_c, 3, 60, 0
5, 53160, Note_on_c, 3, 64, 0
5, 53160, Note_on_c, 3, 64, 100
5, 53160, Note_on_c, 3, 60, 100
5, 53280, Note_on_c, 3, 60, 0
5, 53280, Note_on_c, 3, 64, 0
5, 53640, Note_on_c, 3, 64, 100
5, 53640, Note_on_c, 3, 60, 100
5, 53760, Note_on_c, 3, 60, 0
5, 53760, Note_on_c, 3, 64, 0
5, 53760, Note_on_c, 3, 64, 100
5, 53760, Note_on_c, 3, 60, 100
5, 53880, Note_on_c, 3, 60, 0
5, 53880, Note_on_c, 3, 64, 0
5, 53880, Note_on_c, 3, 64, 100
5, 53880, Note_on_c, 3, 60, 100
5, 54000, Note_on_c, 3, 60, 0
5, 54000, Note_on_c, 3, 64, 0
5, 54000, Note_on_c, 3, 64, 100
5, 54030, Note_on_c, 3, 64, 0
5, 54030, Note_on_c, 3, 65, 100
5, 54060, Note_on_c, 3, 65, 0
5, 54060, Note_on_c, 3, 64, 100
5, 54090, Note_on_c, 3, 64, 0
5, 54090, Note_on_c, 3, 65, 100
5, 54120, Note_on_c, 3, 65, 0
5, 54120, Note_on_c, 3, 64, 100
5, 54150, Note_on_c, 3, 64, 0
5, 54150, Note_on_c, 3, 65, 100
5, 54180, Note_on_c, 3, 65, 0
5, 54180, Note_on_c, 3, 64, 100
5, 54210, Note_on_c, 3, 64, 0
5, 54210, Note_on_c, 3, 65, 100
5, 54240, Note_on_c, 3, 65, 0
5, 54240, Note_on_c, 3, 64, 100
5, 54270, Note_on_c, 3, 64, 0
5, 54270, Note_on_c, 3, 65, 100
5, 54300, Note_on_c, 3, 65, 0
5, 54300, Note_on_c, 3, 62, 100
5, 54330, Note_on_c, 3, 62, 0
5, 54330, Note_on_c, 3, 64, 100
5, 54360, Note_on_c, 3, 64, 0
5, 54360, Note_on_c, 3, 65, 100
5, 54360, Note_on_c, 3, 57, 100
5, 54480, Note_on_c, 3, 57, 0
5, 54480, Note_on_c, 3, 65, 0
5, 54480, Note_on_c, 3, 60, 100
5, 54480, Note_on_c, 3, 57, 100
5, 54600, Note_on_c, 3, 57, 0
5, 54600, Note_on_c, 3, 60, 0
5, 54600, Note_on_c, 3, 53, 100
5, 54600, Note_on_c, 3, 57, 100
5, 54720, Note_on_c, 3, 57, 0
5, 54720, Note_on_c, 3, 53, 0
5, 54720, Note_on_c, 3, 58, 100
5, 54750, Note_on_c, 3, 58, 0
5, 54750, Note_on_c, 3, 60, 100
5, 54780, Note_on_c, 3, 60, 0
5, 54780, Note_on_c, 3, 58, 100
5, 54810, Note_on_c, 3, 58, 0
5, 54810, Note_on_c, 3, 60, 100
5, 54840, Note_on_c, 3, 60, 0
5, 54840, Note_on_c, 3, 58, 100
5, 54870, Note_on_c, 3, 58, 0
5, 54870, Note_on_c, 3, 60, 100
5, 54900, Note_on_c, 3, 60, 0
5, 54900, Note_on_c, 3, 58, 100
5, 54930, Note_on_c, 3, 58, 0
5, 54930, Note_on_c, 3, 60, 100
5, 54960, Note_on_c, 3, 60, 0
5, 54960, Note_on_c, 3, 58, 100
5, 54990, Note_on_c, 3, 58, 0
5, 54990, Note_on_c, 3, 60, 100
5, 55020, Note_on_c, 3, 60, 0
5, 55020, Note_on_c, 3, 57, 100
5, 55050, Note_on_c, 3, 57, 0
5, 55050, Note_on_c, 3, 58, 100
5, 55080, Note_on_c, 3, 58, 0
5, 55080, Note_on_c, 3, 57, 100
5, 55080, Note_on_c, 3, 53, 100
5, 55200, Note_on_c, 3, 53, 0
5, 55200, Note_on_c, 3, 57, 0
5, 55200, Note_on_c, 3, 60, 100
5, 55200, Note_on_c, 3, 57, 100
5, 55320, Note_on_c, 3, 57, 0
5, 55320, Note_on_c, 3, 60, 0
5, 55320, Note_on_c, 3, 65, 100
5, 55320, Note_on_c, 3, 53, 100
5, 55440, Note_on_c, 3, 53, 0
5, 55440, Note_on_c, 3, 65, 0
5, 55440, Note_on_c, 3, 64, 100
5, 55470, Note_on_c, 3, 64, 0
5, 55470, Note_on_c, 3, 65, 100
5, 55500, Note_on_c, 3, 65, 0
5, 55500, Note_on_c, 3, 64, 100
5, 55530, Note_on_c, 3, 64, 0
5, 55530, Note_on_c, 3, 65, 100
5, 55560, Note_on_c, 3, 65, 0
5, 55560, Note_on_c, 3, 64, 100
5, 55590, Note_on_c, 3, 64, 0
5, 55590, Note_on_c, 3, 65, 100
5, 55620, Note_on_c, 3, 65, 0
5, 55620, Note_on_c, 3, 64, 100
5, 55650, Note_on_c, 3, 64, 0
5, 55650, Note_on_c, 3, 65, 100
5, 55680, Note_on_c, 3, 65, 0
5, 55680, Note_on_c, 3, 64, 100
5, 55710, Note_on_c, 3, 64, 0
5, 55710, Note_on_c, 3, 65, 100
5, 55740, Note_on_c, 3, 65, 0
5, 55740, Note_on_c, 3, 62, 100
5, 55770, Note_on_c, 3, 62, 0
5, 55770, Note_on_c, 3, 64, 100
5, 55800, Note_on_c, 3, 64, 0
5, 55800, Note_on_c, 3, 65, 100
5, 55800, Note_on_c, 3, 57, 100
5, 55920, Note_on_c, 3, 57, 0
5, 55920, Note_on_c, 3, 65, 0
5, 55920, Note_on_c, 3, 60, 100
5, 55920, Note_on_c, 3, 57, 100
5, 56040, Note_on_c, 3, 57, 0
5, 56040, Note_on_c, 3, 60, 0
5, 56040, Note_on_c, 3, 53, 100
5, 56040, Note_on_c, 3, 57, 100
5, 56160, Note_on_c, 3, 57, 0
5, 56160, Note_on_c, 3, 53, 0
5, 56160, Note_on_c, 3, 64, 100
5, 56190, Note_on_c, 3, 64, 0
5, 56190, Note_on_c, 3, 65, 100
5, 56220, Note_on_c, 3, 65, 0
5, 56220, Note_on_c, 3, 64, 100
5, 56250, Note_on_c, 3, 64, 0
5, 56250, Note_on_c, 3, 65, 100
5, 56280, Note_on_c, 3, 65, 0
5, 56280, Note_on_c, 3, 64, 100
5, 56310, Note_on_c, 3, 64, 0
5, 56310, Note_on_c, 3, 65, 100
5, 56340, Note_on_c, 3, 65, 0
5, 56340, Note_on_c, 3, 64, 100
5, 56370, Note_on_c, 3, 64, 0
5, 56370, Note_on_c, 3, 65, 100
5, 56400, Note_on_c, 3, 65, 0
5, 56400, Note_on_c, 3, 64, 100
5, 56430, Note_on_c, 3, 64, 0
5, 56430, Note_on_c, 3, 65, 100
5, 56460, Note_on_c, 3, 65, 0
5, 56460, Note_on_c, 3, 62, 100
5, 56490, Note_on_c, 3, 62, 0
5, 56490, Note_on_c, 3, 64, 100
5, 56520, Note_on_c, 3, 64, 0
5, 56520, Note_on_c, 3, 65, 100
5, 56520, Note_on_c, 3, 57, 100
5, 56640, Note_on_c, 3, 57, 0
5, 56640, Note_on_c, 3, 65, 0
5, 56640, Note_on_c, 3, 60, 100
5, 56640, Note_on_c, 3, 57, 100
5, 56760, Note_on_c, 3, 57, 0
5, 56760, Note_on_c, 3, 60, 0
5, 56760, Note_on_c, 3, 53, 100
5, 56760, Note_on_c, 3, 57, 100
5, 56880, Note_on_c, 3, 57, 0
5, 56880, Note_on_c, 3, 53, 0
5, 56880, Note_on_c, 3, 64, 100
5, 56910, Note_on_c, 3, 64, 0
5, 56910, Note_on_c, 3, 65, 100
5, 56940, Note_on_c, 3, 65, 0
5, 56940, Note_on_c, 3, 64, 100
5, 56970, Note_on_c, 3, 64, 0
5, 56970, Note_on_c, 3, 65, 100
5, 57000, Note_on_c, 3, 65, 0
5, 57000, Note_on_c, 3, 64, 100
5, 57030, Note_on_c, 3, 64, 0
5, 57030, Note_on_c, 3, 65, 100
5, 57060, Note_on_c, 3, 65, 0
5, 57060, Note_on_c, 3, 64, 100
5, 57090, Note_on_c, 3, 64, 0
5, 57090, Note_on_c, 3, 65, 100
5, 57120, Note_on_c, 3, 65, 0
5, 57120, Note_on_c, 3, 64, 100
5, 57150, Note_on_c, 3, 64, 0
5, 57150, Note_on_c, 3, 65, 100
5, 57180, Note_on_c, 3, 65, 0
5, 57180, Note_on_c, 3, 62, 100
5, 57210, Note_on_c, 3, 62, 0
5, 57210, Note_on_c, 3, 64, 100
5, 57240, Note_on_c, 3, 64, 0
5, 57240, Note_on_c, 3, 65, 100
5, 57240, Note_on_c, 3, 57, 100
5, 57360, Note_on_c, 3, 57, 0
5, 57360, Note_on_c, 3, 65, 0
5, 57360, Note_on_c, 3, 60, 100
5, 57480, Note_on_c, 3, 60, 0
5, 57480, Note_on_c, 3, 57, 100
5, 57600, Note_on_c, 3, 57, 0
5, 57600, Note_on_c, 3, 53, 100
5, 57720, Note_on_c, 3, 53, 0
5, 57720, Note_on_c, 3, 60, 100
5, 57840, Note_on_c, 3, 60, 0
5, 57840, Note_on_c, 3, 57, 100
5, 57960, Note_on_c, 3, 57, 0
5, 57960, Note_on_c, 3, 53, 100
5, 58080, Note_on_c, 3, 53, 0
5, 58080, Note_on_c, 3, 48, 100
5, 58200, Note_on_c, 3, 48, 0
5, 58200, Note_on_c, 3, 41, 100
5, 58320, Note_on_c, 3, 41, 0
5, 58320, Note_on_c, 3, 41, 100
5, 58350, Note_on_c, 3, 41, 0
5, 58350, Note_on_c, 3, 45, 100
5, 58440, Note_on_c, 3, 45, 0
5, 58440, Note_on_c, 3, 41, 100
5, 58500, Note_on_c, 3, 41, 0
5, 59640, Note_on_c, 3, 41, 100
5, 59640, Note_on_c, 3, 53, 100
5, 59760, Note_on_c, 3, 53, 0
5, 59760, Note_on_c, 3, 41, 0
5, 59760, Note_on_c, 3, 41, 100
5, 59760, Note_on_c, 3, 53, 100
5, 59790, Note_on_c, 3, 53, 0
5, 59790, Note_on_c, 3, 41, 0
5, 59790, Note_on_c, 3, 45, 100
5, 59790, Note_on_c, 3, 57, 100
5, 59880, Note_on_c, 3, 57, 0
5, 59880, Note_on_c, 3, 45, 0
5, 59880, Note_on_c, 3, 41, 100
5, 59880, Note_on_c, 3, 53, 100
5, 59940, Note_on_c, 3, 53, 0
5, 59940, Note_on_c, 3, 41, 0
5, 60000, Note_on_c, 3, 41, 100
5, 60000, Note_on_c, 3, 53, 100
5, 60120, Note_on_c, 3, 53, 0
5, 60120, Note_on_c, 3, 41, 0
5, 60120, Note_on_c, 3, 41, 100
5, 60120, Note_on_c, 3, 53, 100
5, 60150, Note_on_c, 3, 53, 0
5, 60150, Note_on_c, 3, 41, 0
5, 60150, Note_on_c, 3, 45, 100
5, 60150, Note_on_c, 3, 57, 100
5, 60240, Note_on_c, 3, 57, 0
5, 60240, Note_on_c, 3, 45, 0
5, 60240, Note_on_c, 3, 41, 100
5, 60240, Note_on_c, 3, 53, 100
5, 60360, Note_on_c, 3, 53, 0
5, 60360, Note_on_c, 3, 41, 0
5, 60360, Note_on_c, 3, 41, 100
5, 60360, Note_on_c, 3, 53, 100
5, 60480, Note_on_c, 3, 53, 0
5, 60480, Note_on_c, 3, 41, 0
5, 60480, Note_on_c, 3, 41, 100
5, 60480, Note_on_c, 3, 53, 100
5, 60510, Note_on_c, 3, 53, 0
5, 60510, Note_on_c, 3, 41, 0
5, 60510, Note_on_c, 3, 45, 100
5, 60510, Note_on_c, 3, 57, 100
5, 60600, Note_on_c, 3, 57, 0
5, 60600, Note_on_c, 3, 45, 0
5, 60600, Note_on_c, 3, 41, 100
5, 60600, Note_on_c, 3, 53, 100
5, 60720, Note_on_c, 3, 53, 0
5, 60720, Note_on_c, 3, 41, 0
5, 60720, Note_on_c, 3, 41, 100
5, 60720, Note_on_c, 3, 53, 100
5, 60840, Note_on_c, 3, 53, 0
5, 60840, Note_on_c, 3, 41, 0
5, 60840, Note_on_c, 3, 41, 100
5, 60840, Note_on_c, 3, 53, 100
5, 60870, Note_on_c, 3, 53, 0
5, 60870, Note_on_c, 3, 41, 0
5, 60870, Note_on_c, 3, 45, 100
5, 60870, Note_on_c, 3, 57, 100
5, 60960, Note_on_c, 3, 57, 0
5, 60960, Note_on_c, 3, 45, 0
5, 60960, Note_on_c, 3, 41, 100
5, 60960, Note_on_c, 3, 53, 100
5, 61080, Note_on_c, 3, 53, 0
5, 61080, Note_on_c, 3, 41, 0
5, 61080, Note_on_c, 3, 41, 100
5, 61080, Note_on_c, 3, 53, 100
5, 61200, Note_on_c, 3, 53, 0
5, 61200, Note_on_c, 3, 41, 0
5, 61200, Note_on_c, 3, 45, 100
5, 61200, Note_on_c, 3, 57, 100
5, 62520, Note_on_c, 3, 57, 0
5, 62520, Note_on_c, 3, 45, 0
5, 68400, Note_on_c, 3, 65, 100
5, 68400, Note_on_c, 3, 60, 100
5, 68640, Note_on_c, 3, 60, 0
5, 68640, Note_on_c, 3, 59, 100
5, 68760, Note_on_c, 3, 59, 0
5, 68760, Note_on_c, 3, 60, 100
5, 69000, Note_on_c, 3, 60, 0
5, 69000, Note_on_c, 3, 59, 100
5, 69120, Note_on_c, 3, 59, 0
5, 69120, Note_on_c, 3, 60, 100
5, 69360, Note_on_c, 3, 60, 0
5, 69360, Note_on_c, 3, 65, 0
5, 69360, Note_on_c, 3, 65, 100
5, 69360, Note_on_c, 3, 59, 100
5, 69480, Note_on_c, 3, 59, 0
5, 69480, Note_on_c, 3, 65, 0
5, 69480, Note_on_c, 3, 65, 100
5, 69480, Note_on_c, 3, 59, 100
5, 69600, Note_on_c, 3, 59, 0
5, 69600, Note_on_c, 3, 65, 0
5, 74160, Note_on_c, 3, 58, 100
5, 74160, Note_on_c, 3, 63, 100
5, 74400, Note_on_c, 3, 58, 0
5, 74400, Note_on_c, 3, 57, 100
5, 74520, Note_on_c, 3, 57, 0
5, 74520, Note_on_c, 3, 58, 100
5, 74760, Note_on_c, 3, 58, 0
5, 74760, Note_on_c, 3, 57, 100
5, 74880, Note_on_c, 3, 57, 0
5, 74880, Note_on_c, 3, 58, 100
5, 75120, Note_on_c, 3, 58, 0
5, 75120, Note_on_c, 3, 63, 0
5, 75120, Note_on_c, 3, 63, 100
5, 75120, Note_on_c, 3, 57, 100
5, 75240, Note_on_c, 3, 57, 0
5, 75240, Note_on_c, 3, 63, 0
5, 75240, Note_on_c, 3, 57, 100
5, 75240, Note_on_c, 3, 63, 100
5, 75360, Note_on_c, 3, 63, 0
5, 75360, Note_on_c, 3, 57, 0
5, 76560, Note_on_c, 3, 58, 100
5, 76680, Note_on_c, 3, 58, 0
5, 76680, Note_on_c, 3, 62, 100
5, 76800, Note_on_c, 3, 62, 0
5, 76800, Note_on_c, 3, 58, 100
5, 76860, Note_on_c, 3, 58, 0
5, 76920, Note_on_c, 3, 62, 100
5, 77040, Note_on_c, 3, 62, 0
5, 77040, Note_on_c, 3, 65, 100
5, 77160, Note_on_c, 3, 65, 0
5, 77160, Note_on_c, 3, 62, 100
5, 77220, Note_on_c, 3, 62, 0
5, 77280, Note_on_c, 3, 65, 100
5, 77400, Note_on_c, 3, 65, 0
5, 77400, Note_on_c, 3, 58, 100
5, 78600, Note_on_c, 3, 58, 0
5, 78600, Note_on_c, 3, 60, 100
5, 78600, Note_on_c, 3, 57, 100
5, 78720, Note_on_c, 3, 57, 0
5, 78720, Note_on_c, 3, 60, 0
5, 78720, Note_on_c, 3, 60, 100
5, 78720, Note_on_c, 3, 57, 100
5, 78840, Note_on_c, 3, 57, 0
5, 78840, Note_on_c, 3, 60, 0
5, 78840, Note_on_c, 3, 60, 100
5, 78840, Note_on_c, 3, 57, 100
5, 80040, Note_on_c, 3, 57, 0
5, 80040, Note_on_c, 3, 60, 0
5, 80040, Note_on_c, 3, 62, 100
5, 80040, Note_on_c, 3, 58, 100
5, 80160, Note_on_c, 3, 58, 0
5, 80160, Note_on_c, 3, 62, 0
5, 80160, Note_on_c, 3, 62, 100
5, 80160, Note_on_c, 3, 58, 100
5, 80280, Note_on_c, 3, 58, 0
5, 80280, Note_on_c, 3, 62, 0
5, 80280, Note_on_c, 3, 62, 100
5, 80280, Note_on_c, 3, 58, 100
5, 81480, Note_on_c, 3, 58, 0
5, 81480, Note_on_c, 3, 62, 0
5, 81480, Note_on_c, 3, 63, 100
5, 81480, Note_on_c, 3, 60, 100
5, 81600, Note_on_c, 3, 60, 0
5, 81600, Note_on_c, 3, 63, 0
5, 81600, Note_on_c, 3, 63, 100
5, 81600, Note_on_c, 3, 60, 100
5, 81720, Note_on_c, 3, 60, 0
5, 81720, Note_on_c, 3, 63, 0
5, 81720, Note_on_c, 3, 60, 100
5, 81720, Note_on_c, 3, 63, 100
5, 82920, Note_on_c, 3, 63, 0
5, 82920, Note_on_c, 3, 60, 0
5, 82920, Note_on_c, 3, 65, 100
5, 82920, Note_on_c, 3, 62, 100
5, 83040, Note_on_c, 3, 62, 0
5, 83040, Note_on_c, 3, 65, 0
5, 83040, Note_on_c, 3, 65, 100
5, 83040, Note_on_c, 3, 62, 100
5, 83160, Note_on_c, 3, 62, 0
5, 83160, Note_on_c, 3, 65, 0
5, 83160, Note_on_c, 3, 53, 100
5, 84360, Note_on_c, 3, 53, 0
5, 84360, Note_on_c, 3, 52, 100
5, 84360, Note_on_c, 3, 55, 100
5, 84480, Note_on_c, 3, 55, 0
5, 84480, Note_on_c, 3, 52, 0
5, 84480, Note_on_c, 3, 52, 100
5, 84480, Note_on_c, 3, 55, 100
5, 84600, Note_on_c, 3, 55, 0
5, 84600, Note_on_c, 3, 52, 0
5, 84600, Note_on_c, 3, 52, 100
5, 84600, Note_on_c, 3, 55, 100
5, 85560, Note_on_c, 3, 55, 0
5, 85560, Note_on_c, 3, 52, 0
5, 85560, Note_on_c, 3, 53, 100
5, 85560, Note_on_c, 3, 57, 100
5, 85680, Note_on_c, 3, 57, 0
5, 85680, Note_on_c, 3, 53, 0
5, 85680, Note_on_c, 3, 57, 100
5, 85800, Note_on_c, 3, 57, 0
5, 85800, Note_on_c, 3, 53, 100
5, 85860, Note_on_c, 3, 53, 0
5, 85920, Note_on_c, 3, 53, 100
5, 85920, Note_on_c, 3, 57, 100
5, 86040, Note_on_c, 3, 57, 0
5, 86040, Note_on_c, 3, 53, 0
5, 86040, Note_on_c, 3, 53, 100
5, 86040, Note_on_c, 3, 57, 100
5, 86070, Note_on_c, 3, 57, 0
5, 86070, Note_on_c, 3, 53, 0
5, 86070, Note_on_c, 3, 57, 100
5, 86070, Note_on_c, 3, 60, 100
5, 86160, Note_on_c, 3, 60, 0
5, 86160, Note_on_c, 3, 57, 0
5, 86160, Note_on_c, 3, 53, 100
5, 86160, Note_on_c, 3, 57, 100
5, 86220, Note_on_c, 3, 57, 0
5, 86220, Note_on_c, 3, 53, 0
5, 86280, Note_on_c, 3, 60, 100
5, 86280, Note_on_c, 3, 57, 100
5, 86400, Note_on_c, 3, 57, 0
5, 86400, Note_on_c, 3, 60, 0
5, 86400, Note_on_c, 3, 53, 100
5, 87600, Note_on_c, 3, 53, 0
5, 87600, Note_on_c, 3, 52, 100
5, 87600, Note_on_c, 3, 55, 100
5, 87720, Note_on_c, 3, 55, 0
5, 87720, Note_on_c, 3, 52, 0
5, 87720, Note_on_c, 3, 52, 100
5, 87720, Note_on_c, 3, 55, 100
5, 87840, Note_on_c, 3, 55, 0
5, 87840, Note_on_c, 3, 52, 0
5, 87840, Note_on_c, 3, 52, 100
5, 87840, Note_on_c, 3, 55, 100
5, 89040, Note_on_c, 3, 55, 0
5, 89040, Note_on_c, 3, 52, 0
5, 89040, Note_on_c, 3, 57, 100
5, 89040, Note_on_c, 3, 53, 100
5, 89160, Note_on_c, 3, 53, 0
5, 89160, Note_on_c, 3, 57, 0
5, 89160, Note_on_c, 3, 57, 100
5, 89160, Note_on_c, 3, 53, 100
5, 89280, Note_on_c, 3, 53, 0
5, 89280, Note_on_c, 3, 57, 0
5, 89280, Note_on_c, 3, 65, 100
5, 89400, Note_on_c, 3, 65, 0
5, 89400, Note_on_c, 3, 65, 100
5, 89520, Note_on_c, 3, 65, 0
5, 89520, Note_on_c, 3, 64, 100
5, 89640, Note_on_c, 3, 64, 0
5, 89640, Note_on_c, 3, 62, 100
5, 89760, Note_on_c, 3, 62, 0
5, 89760, Note_on_c, 3, 62, 100
5, 89880, Note_on_c, 3, 62, 0
5, 89880, Note_on_c, 3, 60, 100
5, 90000, Note_on_c, 3, 60, 0
5, 90000, Note_on_c, 3, 58, 100
5, 90120, Note_on_c, 3, 58, 0
5, 90120, Note_on_c, 3, 58, 100
5, 90240, Note_on_c, 3, 58, 0
5, 90240, Note_on_c, 3, 57, 100
5, 90360, Note_on_c, 3, 57, 0
5, 90360, Note_on_c, 3, 55, 100
5, 90720, Note_on_c, 3, 55, 0
5, 90720, Note_on_c, 3, 67, 100
5, 90720, Note_on_c, 3, 64, 100
5, 90840, Note_on_c, 3, 64, 0
5, 90840, Note_on_c, 3, 67, 0
5, 90840, Note_on_c, 3, 64, 100
5, 90840, Note_on_c, 3, 67, 100
5, 90960, Note_on_c, 3, 67, 0
5, 90960, Note_on_c, 3, 64, 0
5, 90960, Note_on_c, 3, 62, 100
5, 90960, Note_on_c, 3, 65, 100
5, 91080, Note_on_c, 3, 65, 0
5, 91080, Note_on_c, 3, 62, 0
5, 91080, Note_on_c, 3, 60, 100
5, 91080, Note_on_c, 3, 64, 100
5, 91200, Note_on_c, 3, 64, 0
5, 91200, Note_on_c, 3, 60, 0
5, 91200, Note_on_c, 3, 60, 100
5, 91200, Note_on_c, 3, 64, 100
5, 91320, Note_on_c, 3, 64, 0
5, 91320, Note_on_c, 3, 60, 0
5, 91320, Note_on_c, 3, 58, 100
5, 91320, Note_on_c, 3, 62, 100
5, 91440, Note_on_c, 3, 62, 0
5, 91440, Note_on_c, 3, 58, 0
5, 91440, Note_on_c, 3, 57, 100
5, 91440, Note_on_c, 3, 60, 100
5, 91560, Note_on_c, 3, 60, 0
5, 91560, Note_on_c, 3, 57, 0
5, 91560, Note_on_c, 3, 57, 100
5, 91560, Note_on_c, 3, 60, 100
5, 91680, Note_on_c, 3, 60, 0
5, 91680, Note_on_c, 3, 57, 0
5, 91680, Note_on_c, 3, 55, 100
5, 91680, Note_on_c, 3, 58, 100
5, 91800, Note_on_c, 3, 58, 0
5, 91800, Note_on_c, 3, 55, 0
5, 91800, Note_on_c, 3, 53, 100
5, 91800, Note_on_c, 3, 57, 100
5, 92160, Note_on_c, 3, 57, 0
5, 92160, Note_on_c, 3, 53, 0
5, 92880, Note_on_c, 3, 64, 100
5, 92880, Note_on_c, 3, 58, 100
5, 93000, Note_on_c, 3, 58, 0
5, 93000, Note_on_c, 3, 64, 0
5, 93000, Note_on_c, 3, 64, 100
5, 93000, Note_on_c, 3, 58, 100
5, 93120, Note_on_c, 3, 58, 0
5, 93120, Note_on_c, 3, 64, 0
5, 93120, Note_on_c, 3, 60, 100
5, 93120, Note_on_c, 3, 57, 100
5, 93240, Note_on_c, 3, 57, 0
5, 93240, Note_on_c, 3, 60, 0
5, 93240, Note_on_c, 3, 55, 100
5, 93240, Note_on_c, 3, 60, 100
5, 93480, Note_on_c, 3, 60, 0
5, 93480, Note_on_c, 3, 55, 0
5, 93480, Note_on_c, 3, 53, 100
5, 93480, Note_on_c, 3, 60, 100
5, 93600, Note_on_c, 3, 60, 0
5, 93600, Note_on_c, 3, 53, 0
5, 96120, Note_on_c, 3, 64, 100
5, 96120, Note_on_c, 3, 60, 100
5, 96240, Note_on_c, 3, 60, 0
5, 96240, Note_on_c, 3, 64, 0
5, 96240, Note_on_c, 3, 64, 100
5, 96240, Note_on_c, 3, 60, 100
5, 96360, Note_on_c, 3, 60, 0
5, 96360, Note_on_c, 3, 64, 0
5, 96360, Note_on_c, 3, 64, 100
5, 96360, Note_on_c, 3, 60, 100
5, 96480, Note_on_c, 3, 60, 0
5, 96480, Note_on_c, 3, 64, 0
5, 96840, Note_on_c, 3, 64, 100
5, 96840, Note_on_c, 3, 60, 100
5, 96960, Note_on_c, 3, 60, 0
5, 96960, Note_on_c, 3, 64, 0
5, 96960, Note_on_c, 3, 64, 100
5, 96960, Note_on_c, 3, 60, 100
5, 97080, Note_on_c, 3, 60, 0
5, 97080, Note_on_c, 3, 64, 0
5, 97080, Note_on_c, 3, 64, 100
5, 97080, Note_on_c, 3, 60, 100
5, 97200, Note_on_c, 3, 60, 0
5, 97200, Note_on_c, 3, 64, 0
5, 97560, Note_on_c, 3, 64, 100
5, 97560, Note_on_c, 3, 60, 100
5, 97680, Note_on_c, 3, 60, 0
5, 97680, Note_on_c, 3, 64, 0
5, 97680, Note_on_c, 3, 64, 100
5, 97680, Note_on_c, 3, 60, 100
5, 97800, Note_on_c, 3, 60, 0
5, 97800, Note_on_c, 3, 64, 0
5, 97800, Note_on_c, 3, 64, 100
5, 97800, Note_on_c, 3, 60, 100
5, 97920, Note_on_c, 3, 60, 0
5, 97920, Note_on_c, 3, 64, 0
5, 98280, Note_on_c, 3, 64, 100
5, 98280, Note_on_c, 3, 60, 100
5, 98400, Note_on_c, 3, 60, 0
5, 98400, Note_on_c, 3, 64, 0
5, 98400, Note_on_c, 3, 64, 100
5, 98400, Note_on_c, 3, 60, 100
5, 98520, Note_on_c, 3, 60, 0
5, 98520, Note_on_c, 3, 64, 0
5, 98520, Note_on_c, 3, 64, 100
5, 98520, Note_on_c, 3, 60, 100
5, 98640, Note_on_c, 3, 60, 0
5, 98640, Note_on_c, 3, 64, 0
5, 98640, Note_on_c, 3, 64, 100
5, 98670, Note_on_c, 3, 64, 0
5, 98670, Note_on_c, 3, 65, 100
5, 98700, Note_on_c, 3, 65, 0
5, 98700, Note_on_c, 3, 64, 100
5, 98730, Note_on_c, 3, 64, 0
5, 98730, Note_on_c, 3, 65, 100
5, 98760, Note_on_c, 3, 65, 0
5, 98760, Note_on_c, 3, 64, 100
5, 98790, Note_on_c, 3, 64, 0
5, 98790, Note_on_c, 3, 65, 100
5, 98820, Note_on_c, 3, 65, 0
5, 98820, Note_on_c, 3, 64, 100
5, 98850, Note_on_c, 3, 64, 0
5, 98850, Note_on_c, 3, 65, 100
5, 98880, Note_on_c, 3, 65, 0
5, 98880, Note_on_c, 3, 64, 100
5, 98910, Note_on_c, 3, 64, 0
5, 98910, Note_on_c, 3, 65, 100
5, 98940, Note_on_c, 3, 65, 0
5, 98940, Note_on_c, 3, 62, 100
5, 98970, Note_on_c, 3, 62, 0
5, 98970, Note_on_c, 3, 64, 100
5, 99000, Note_on_c, 3, 64, 0
5, 99000, Note_on_c, 3, 65, 100
5, 99000, Note_on_c, 3, 57, 100
5, 99120, Note_on_c, 3, 57, 0
5, 99120, Note_on_c, 3, 65, 0
5, 99120, Note_on_c, 3, 60, 100
5, 99120, Note_on_c, 3, 57, 100
5, 99240, Note_on_c, 3, 57, 0
5, 99240, Note_on_c, 3, 60, 0
5, 99240, Note_on_c, 3, 53, 100
5, 99240, Note_on_c, 3, 57, 100
5, 99360, Note_on_c, 3, 57, 0
5, 99360, Note_on_c, 3, 53, 0
5, 99360, Note_on_c, 3, 58, 100
5, 99390, Note_on_c, 3, 58, 0
5, 99390, Note_on_c, 3, 60, 100
5, 99420, Note_on_c, 3, 60, 0
5, 99420, Note_on_c, 3, 58, 100
5, 99450, Note_on_c, 3, 58, 0
5, 99450, Note_on_c, 3, 60, 100
5, 99480, Note_on_c, 3, 60, 0
5, 99480, Note_on_c, 3, 58, 100
5, 99510, Note_on_c, 3, 58, 0
5, 99510, Note_on_c, 3, 60, 100
5, 99540, Note_on_c, 3, 60, 0
5, 99540, Note_on_c, 3, 58, 100
5, 99570, Note_on_c, 3, 58, 0
5, 99570, Note_on_c, 3, 60, 100
5, 99600, Note_on_c, 3, 60, 0
5, 99600, Note_on_c, 3, 58, 100
5, 99630, Note_on_c, 3, 58, 0
5, 99630, Note_on_c, 3, 60, 100
5, 99660, Note_on_c, 3, 60, 0
5, 99660, Note_on_c, 3, 57, 100
5, 99690, Note_on_c, 3, 57, 0
5, 99690, Note_on_c, 3, 58, 100
5, 99720, Note_on_c, 3, 58, 0
5, 99720, Note_on_c, 3, 57, 100
5, 99720, Note_on_c, 3, 53, 100
5, 99840, Note_on_c, 3, 53, 0
5, 99840, Note_on_c, 3, 57, 0
5, 99840, Note_on_c, 3, 60, 100
5, 99840, Note_on_c, 3, 57, 100
5, 99960, Note_on_c, 3, 57, 0
5, 99960, Note_on_c, 3, 60, 0
5, 99960, Note_on_c, 3, 65, 100
5, 99960, Note_on_c, 3, 53, 100
5, 100080, Note_on_c, 3, 53, 0
5, 100080, Note_on_c, 3, 65, 0
5, 100080, Note_on_c, 3, 64, 100
5, 100110, Note_on_c, 3, 64, 0
5, 100110, Note_on_c, 3, 65, 100
5, 100140, Note_on_c, 3, 65, 0
5, 100140, Note_on_c, 3, 64, 100
5, 100170, Note_on_c, 3, 64, 0
5, 100170, Note_on_c, 3, 65, 100
5, 100200, Note_on_c, 3, 65, 0
5, 100200, Note_on_c, 3, 64, 100
5, 100230, Note_on_c, 3, 64, 0
5, 100230, Note_on_c, 3, 65, 100
5, 100260, Note_on_c, 3, 65, 0
5, 100260, Note_on_c, 3, 64, 100
5, 100290, Note_on_c, 3, 64, 0
5, 100290, Note_on_c, 3, 65, 100
5, 100320, Note_on_c, 3, 65, 0
5, 100320, Note_on_c, 3, 64, 100
5, 100350, Note_on_c, 3, 64, 0
5, 100350, Note_on_c, 3, 65, 100
5, 100380, Note_on_c, 3, 65, 0
5, 100380, Note_on_c, 3, 62, 100
5, 100410, Note_on_c, 3, 62, 0
5, 100410, Note_on_c, 3, 64, 100
5, 100440, Note_on_c, 3, 64, 0
5, 100440, Note_on_c, 3, 65, 100
5, 100440, Note_on_c, 3, 57, 100
5, 100560, Note_on_c, 3, 57, 0
5, 100560, Note_on_c, 3, 65, 0
5, 100560, Note_on_c, 3, 60, 100
5, 100560, Note_on_c, 3, 57, 100
5, 100680, Note_on_c, 3, 57, 0
5, 100680, Note_on_c, 3, 60, 0
5, 100680, Note_on_c, 3, 53, 100
5, 100680, Note_on_c, 3, 57, 100
5, 100800, Note_on_c, 3, 57, 0
5, 100800, Note_on_c, 3, 53, 0
5, 100800, Note_on_c, 3, 64, 100
5, 100830, Note_on_c, 3, 64, 0
5, 100830, Note_on_c, 3, 65, 100
5, 100860, Note_on_c, 3, 65, 0
5, 100860, Note_on_c, 3, 64, 100
5, 100890, Note_on_c, 3, 64, 0
5, 100890, Note_on_c, 3, 65, 100
5, 100920, Note_on_c, 3, 65, 0
5, 100920, Note_on_c, 3, 64, 100
5, 100950, Note_on_c, 3, 64, 0
5, 100950, Note_on_c, 3, 65, 100
5, 100980, Note_on_c, 3, 65, 0
5, 100980, Note_on_c, 3, 64, 100
5, 101010, Note_on_c, 3, 64, 0
5, 101010, Note_on_c, 3, 65, 100
5, 101040, Note_on_c, 3, 65, 0
5, 101040, Note_on_c, 3, 64, 100
5, 101070, Note_on_c, 3, 64, 0
5, 101070, Note_on_c, 3, 65, 100
5, 101100, Note_on_c, 3, 65, 0
5, 101100, Note_on_c, 3, 62, 100
5, 101130, Note_on_c, 3, 62, 0
5, 101130, Note_on_c, 3, 64, 100
5, 101160, Note_on_c, 3, 64, 0
5, 101160, Note_on_c, 3, 65, 100
5, 101160, Note_on_c, 3, 57, 100
5, 101280, Note_on_c, 3, 57, 0
5, 101280, Note_on_c, 3, 65, 0
5, 101280, Note_on_c, 3, 60, 100
5, 101280, Note_on_c, 3, 57, 100
5, 101400, Note_on_c, 3, 57, 0
5, 101400, Note_on_c, 3, 60, 0
5, 101400, Note_on_c, 3, 53, 100
5, 101400, Note_on_c, 3, 57, 100
5, 101520, Note_on_c, 3, 57, 0
5, 101520, Note_on_c, 3, 53, 0
5, 101520, Note_on_c, 3, 64, 100
5, 101550, Note_on_c, 3, 64, 0
5, 101550, Note_on_c, 3, 65, 100
5, 101580, Note_on_c, 3, 65, 0
5, 101580, Note_on_c, 3, 64, 100
5, 101610, Note_on_c, 3, 64, 0
5, 101610, Note_on_c, 3, 65, 100
5, 101640, Note_on_c, 3, 65, 0
5, 101640, Note_on_c, 3, 64, 100
5, 101670, Note_on_c, 3, 64, 0
5, 101670, Note_on_c, 3, 65, 100
5, 101700, Note_on_c, 3, 65, 0
5, 101700, Note_on_c, 3, 64, 100
5, 101730, Note_on_c, 3, 64, 0
5, 101730, Note_on_c, 3, 65, 100
5, 101760, Note_on_c, 3, 65, 0
5, 101760, Note_on_c, 3, 64, 100
5, 101790, Note_on_c, 3, 64, 0
5, 101790, Note_on_c, 3, 65, 100
5, 101820, Note_on_c, 3, 65, 0
5, 101820, Note_on_c, 3, 62, 100
5, 101850, Note_on_c, 3, 62, 0
5, 101850, Note_on_c, 3, 64, 100
5, 101880, Note_on_c, 3, 64, 0
5, 101880, Note_on_c, 3, 65, 100
5, 101880, Note_on_c, 3, 57, 100
5, 102000, Note_on_c, 3, 57, 0
5, 102000, Note_on_c, 3, 65, 0
5, 102000, Note_on_c, 3, 60, 100
5, 102120, Note_on_c, 3, 60, 0
5, 102120, Note_on_c, 3, 57, 100
5, 102240, Note_on_c, 3, 57, 0
5, 102240, Note_on_c, 3, 53, 100
5, 102360, Note_on_c, 3, 53, 0
5, 102360, Note_on_c, 3, 60, 100
5, 102480, Note_on_c, 3, 60, 0
5, 102480, Note_on_c, 3, 57, 100
5, 102600, Note_on_c, 3, 57, 0
5, 102600, Note_on_c, 3, 53, 100
5, 102720, Note_on_c, 3, 53, 0
5, 102720, Note_on_c, 3, 48, 100
5, 102840, Note_on_c, 3, 48, 0
5, 102840, Note_on_c, 3, 41, 100
5, 102960, Note_on_c, 3, 41, 0
5, 102960, Note_on_c, 3, 41, 100
5, 102990, Note_on_c, 3, 41, 0
5, 102990, Note_on_c, 3, 45, 100
5, 103080, Note_on_c, 3, 45, 0
5, 103080, Note_on_c, 3, 41, 100
5, 103140, Note_on_c, 3, 41, 0
5, 104280, Note_on_c, 3, 41, 100
5, 104280, Note_on_c, 3, 53, 100
5, 104400, Note_on_c, 3, 53, 0
5, 104400, Note_on_c, 3, 41, 0
5, 104400, Note_on_c, 3, 41, 100
5, 104400, Note_on_c, 3, 53, 100
5, 104430, Note_on_c, 3, 53, 0
5, 104430, Note_on_c, 3, 41, 0
5, 104430, Note_on_c, 3, 45, 100
5, 104430, Note_on_c, 3, 57, 100
5, 104520, Note_on_c, 3, 57, 0
5, 104520, Note_on_c, 3, 45, 0
5, 104520, Note_on_c, 3, 41, 100
5, 104520, Note_on_c, 3, 53, 100
5, 104580, Note_on_c, 3, 53, 0
5, 104580, Note_on_c, 3, 41, 0
5, 104640, Note_on_c, 3, 41, 100
5, 104640, Note_on_c, 3, 53, 100
5, 104760, Note_on_c, 3, 53, 0
5, 104760, Note_on_c, 3, 41, 0
5, 104760, Note_on_c, 3, 41, 100
5, 104760, Note_on_c, 3, 53, 100
5, 104790, Note_on_c, 3, 53, 0
5, 104790, Note_on_c, 3, 41, 0
5, 104790, Note_on_c, 3, 45, 100
5, 104790, Note_on_c, 3, 57, 100
5, 104880, Note_on_c, 3, 57, 0
5, 104880, Note_on_c, 3, 45, 0
5, 104880, Note_on_c, 3, 41, 100
5, 104880, Note_on_c, 3, 53, 100
5, 105000, Note_on_c, 3, 53, 0
5, 105000, Note_on_c, 3, 41, 0
5, 105000, Note_on_c, 3, 41, 100
5, 105000, Note_on_c, 3, 53, 100
5, 105120, Note_on_c, 3, 53, 0
5, 105120, Note_on_c, 3, 41, 0
5, 105120, Note_on_c, 3, 41, 100
5, 105120, Note_on_c, 3, 53, 100
5, 105150, Note_on_c, 3, 53, 0
5, 105150, Note_on_c, 3, 41, 0
5, 105150, Note_on_c, 3, 45, 100
5, 105150, Note_on_c, 3, 57, 100
5, 105240, Note_on_c, 3, 57, 0
5, 105240, Note_on_c, 3, 45, 0
5, 105240, Note_on_c, 3, 41, 100
5, 105240, Note_on_c, 3, 53, 100
5, 105360, Note_on_c, 3, 53, 0
5, 105360, Note_on_c, 3, 41, 0
5, 105360, Note_on_c, 3, 41, 100
5, 105360, Note_on_c, 3, 53, 100
5, 105480, Note_on_c, 3, 53, 0
5, 105480, Note_on_c, 3, 41, 0
5, 105480, Note_on_c, 3, 41, 100
5, 105480, Note_on_c, 3, 53, 100
5, 105510, Note_on_c, 3, 53, 0
5, 105510, Note_on_c, 3, 41, 0
5, 105510, Note_on_c, 3, 45, 100
5, 105510, Note_on_c, 3, 57, 100
5, 105600, Note_on_c, 3, 57, 0
5, 105600, Note_on_c, 3, 45, 0
5, 105600, Note_on_c, 3, 41, 100
5, 105600, Note_on_c, 3, 53, 100
5, 105720, Note_on_c, 3, 53, 0
5, 105720, Note_on_c, 3, 41, 0
5, 105720, Note_on_c, 3, 41, 100
5, 105720, Note_on_c, 3, 53, 100
5, 105840, Note_on_c, 3, 53, 0
5, 105840, Note_on_c, 3, 41, 0
5, 105840, Note_on_c, 3, 45, 100
5, 105840, Note_on_c, 3, 57, 100
5, 107280, Note_on_c, 3, 57, 0
5, 107280, Note_on_c, 3, 45, 0
5, 107280, Note_on_c, 3, 50, 100
5, 107280, Note_on_c, 3, 57, 100
5, 107580, Note_on_c, 3, 50, 0
5, 107580, Note_on_c, 3, 45, 100
5, 107640, Note_on_c, 3, 45, 0
5, 107640, Note_on_c, 3, 50, 100
5, 107760, Note_on_c, 3, 50, 0
5, 107760, Note_on_c, 3, 57, 0
5, 108000, Note_on_c, 3, 50, 100
5, 108000, Note_on_c, 3, 57, 100
5, 108300, Note_on_c, 3, 50, 0
5, 108300, Note_on_c, 3, 45, 100
5, 108360, Note_on_c, 3, 45, 0
5, 108360, Note_on_c, 3, 50, 100
5, 108480, Note_on_c, 3, 50, 0
5, 108480, Note_on_c, 3, 57, 0
5, 108720, Note_on_c, 3, 57, 100
5, 108720, Note_on_c, 3, 50, 100
5, 108960, Note_on_c, 3, 50, 0
5, 108960, Note_on_c, 3, 49, 100
5, 109080, Note_on_c, 3, 49, 0
5, 109080, Note_on_c, 3, 50, 100
5, 109200, Note_on_c, 3, 50, 0
5, 109200, Note_on_c, 3, 49, 100
5, 109320, Note_on_c, 3, 49, 0
5, 109320, Note_on_c, 3, 50, 100
5, 109440, Note_on_c, 3, 50, 0
5, 109440, Note_on_c, 3, 57, 0
5, 109440, Note_on_c, 3, 57, 100
5, 109440, Note_on_c, 3, 45, 100
5, 109560, Note_on_c, 3, 45, 0
5, 109560, Note_on_c, 3, 57, 0
5, 110160, Note_on_c, 3, 57, 100
5, 110160, Note_on_c, 3, 45, 100
5, 110640, Note_on_c, 3, 45, 0
5, 110640, Note_on_c, 3, 57, 0
5, 110880, Note_on_c, 3, 45, 100
5, 110880, Note_on_c, 3, 57, 100
5, 111360, Note_on_c, 3, 57, 0
5, 111360, Note_on_c, 3, 45, 0
5, 111600, Note_on_c, 3, 45, 100
5, 111600, Note_on_c, 3, 57, 100
5, 111720, Note_on_c, 3, 57, 0
5, 111720, Note_on_c, 3, 55, 100
5, 111840, Note_on_c, 3, 55, 0
5, 111840, Note_on_c, 3, 45, 0
5, 111840, Note_on_c, 3, 50, 100
5, 111840, Note_on_c, 3, 54, 100
5, 111960, Note_on_c, 3, 54, 0
5, 111960, Note_on_c, 3, 50, 0
5, 111960, Note_on_c, 3, 50, 100
5, 111960, Note_on_c, 3, 54, 100
5, 112080, Note_on_c, 3, 54, 0
5, 112080, Note_on_c, 3, 50, 0
5, 112080, Note_on_c, 3, 45, 100
5, 112080, Note_on_c, 3, 52, 100
5, 112200, Note_on_c, 3, 52, 0
5, 112200, Note_on_c, 3, 45, 0
5, 112200, Note_on_c, 3, 45, 100
5, 112200, Note_on_c, 3, 52, 100
5, 112320, Note_on_c, 3, 52, 0
5, 112320, Note_on_c, 3, 45, 0
5, 112320, Note_on_c, 3, 50, 100
5, 112320, Note_on_c, 3, 54, 100
5, 112440, Note_on_c, 3, 54, 0
5, 112440, Note_on_c, 3, 50, 0
5, 113040, Note_on_c, 3, 57, 100
5, 113040, Note_on_c, 3, 50, 100
5, 113340, Note_on_c, 3, 50, 0
5, 113340, Note_on_c, 3, 45, 100
5, 113400, Note_on_c, 3, 45, 0
5, 113400, Note_on_c, 3, 50, 100
5, 113520, Note_on_c, 3, 50, 0
5, 113520, Note_on_c, 3, 57, 0
5, 113760, Note_on_c, 3, 57, 100
5, 113760, Note_on_c, 3, 50, 100
5, 114060, Note_on_c, 3, 50, 0
5, 114060, Note_on_c, 3, 45, 100
5, 114120, Note_on_c, 3, 45, 0
5, 114120, Note_on_c, 3, 50, 100
5, 114240, Note_on_c, 3, 50, 0
5, 114240, Note_on_c, 3, 57, 0
5, 114480, Note_on_c, 3, 57, 100
5, 114480, Note_on_c, 3, 50, 100
5, 114720, Note_on_c, 3, 50, 0
5, 114720, Note_on_c, 3, 49, 100
5, 114840, Note_on_c, 3, 49, 0
5, 114840, Note_on_c, 3, 50, 100
5, 114960, Note_on_c, 3, 50, 0
5, 114960, Note_on_c, 3, 57, 0
5, 114960, Note_on_c, 3, 57, 100
5, 114960, Note_on_c, 3, 49, 100
5, 115080, Note_on_c, 3, 49, 0
5, 115080, Note_on_c, 3, 57, 0
5, 115080, Note_on_c, 3, 57, 100
5, 115080, Note_on_c, 3, 50, 100
5, 115200, Note_on_c, 3, 50, 0
5, 115200, Note_on_c, 3, 57, 0
5, 115200, Note_on_c, 3, 57, 100
5, 115200, Note_on_c, 3, 45, 100
5, 115320, Note_on_c, 3, 45, 0
5, 115320, Note_on_c, 3, 57, 0
5, 115920, Note_on_c, 3, 45, 100
5, 115920, Note_on_c, 3, 57, 100
5, 116400, Note_on_c, 3, 57, 0
5, 116400, Note_on_c, 3, 45, 0
5, 116640, Note_on_c, 3, 45, 100
5, 116640, Note_on_c, 3, 57, 100
5, 117120, Note_on_c, 3, 57, 0
5, 117120, Note_on_c, 3, 45, 0
5, 117360, Note_on_c, 3, 45, 100
5, 117360, Note_on_c, 3, 57, 100
5, 117480, Note_on_c, 3, 57, 0
5, 117480, Note_on_c, 3, 55, 100
5, 117600, Note_on_c, 3, 55, 0
5, 117600, Note_on_c, 3, 45, 0
5, 117600, Note_on_c, 3, 50, 100
5, 117600, Note_on_c, 3, 54, 100
5, 117720, Note_on_c, 3, 54, 0
5, 117720, Note_on_c, 3, 50, 0
5, 117720, Note_on_c, 3, 50, 100
5, 117720, Note_on_c, 3, 54, 100
5, 117840, Note_on_c, 3, 54, 0
5, 117840, Note_on_c, 3, 50, 0
5, 117840, Note_on_c, 3, 45, 100
5, 117840, Note_on_c, 3, 52, 100
5, 117960, Note_on_c, 3, 52, 0
5, 117960, Note_on_c, 3, 45, 0
5, 117960, Note_on_c, 3, 45, 100
5, 117960, Note_on_c, 3, 52, 100
5, 118080, Note_on_c, 3, 52, 0
5, 118080, Note_on_c, 3, 45, 0
5, 118080, Note_on_c, 3, 50, 100
5, 118080, Note_on_c, 3, 54, 100
5, 118200, Note_on_c, 3, 54, 0
5, 118200, Note_on_c, 3, 50, 0
5, 118800, Note_on_c, 3, 54, 100
5, 118800, Note_on_c, 3, 57, 100
5, 119400, Note_on_c, 3, 57, 0
5, 119400, Note_on_c, 3, 54, 0
5, 119400, Note_on_c, 3, 55, 100
5, 119400, Note_on_c, 3, 59, 100
5, 119520, Note_on_c, 3, 59, 0
5, 119520, Note_on_c, 3, 55, 0
5, 119520, Note_on_c, 3, 52, 100
5, 119520, Note_on_c, 3, 55, 100
5, 120120, Note_on_c, 3, 55, 0
5, 120120, Note_on_c, 3, 52, 0
5, 120120, Note_on_c, 3, 54, 100
5, 120120, Note_on_c, 3, 57, 100
5, 120240, Note_on_c, 3, 57, 0
5, 120240, Note_on_c, 3, 54, 0
5, 120240, Note_on_c, 3, 50, 100
5, 120240, Note_on_c, 3, 54, 100
5, 120600, Note_on_c, 3, 54, 0
5, 120600, Note_on_c, 3, 50, 0
5, 120600, Note_on_c, 3, 52, 100
5, 120600, Note_on_c, 3, 55, 100
5, 120630, Note_on_c, 3, 55, 0
5, 120630, Note_on_c, 3, 52, 0
5, 120630, Note_on_c, 3, 50, 100
5, 120630, Note_on_c, 3, 54, 100
5, 120660, Note_on_c, 3, 54, 0
5, 120660, Note_on_c, 3, 50, 0
5, 120660, Note_on_c, 3, 49, 100
5, 120660, Note_on_c, 3, 52, 100
5, 120690, Note_on_c, 3, 52, 0
5, 120690, Note_on_c, 3, 49, 0
5, 120690, Note_on_c, 3, 50, 100
5, 120690, Note_on_c, 3, 54, 100
5, 120720, Note_on_c, 3, 54, 0
5, 120720, Note_on_c, 3, 50, 0
5, 120720, Note_on_c, 3, 57, 100
5, 120720, Note_on_c, 3, 54, 100
5, 120840, Note_on_c, 3, 54, 0
5, 120840, Note_on_c, 3, 57, 0
5, 120840, Note_on_c, 3, 52, 100
5, 120840, Note_on_c, 3, 55, 100
5, 120960, Note_on_c, 3, 55, 0
5, 120960, Note_on_c, 3, 52, 0
5, 120960, Note_on_c, 3, 50, 100
5, 120960, Note_on_c, 3, 54, 100
5, 121320, Note_on_c, 3, 54, 0
5, 121320, Note_on_c, 3, 50, 0
5, 121320, Note_on_c, 3, 49, 100
5, 121320, Note_on_c, 3, 52, 100
5, 121440, Note_on_c, 3, 52, 0
5, 121440, Note_on_c, 3, 49, 0
5, 121680, Note_on_c, 3, 54, 100
5, 121680, Note_on_c, 3, 57, 100
5, 122160, Note_on_c, 3, 57, 0
5, 122160, Note_on_c, 3, 54, 0
5, 122160, Note_on_c, 3, 57, 100
5, 122160, Note_on_c, 3, 61, 100
5, 122280, Note_on_c, 3, 61, 0
5, 122280, Note_on_c, 3, 57, 0
5, 122280, Note_on_c, 3, 59, 100
5, 122280, Note_on_c, 3, 55, 100
5, 122400, Note_on_c, 3, 55, 0
5, 122400, Note_on_c, 3, 59, 0
5, 122400, Note_on_c, 3, 54, 100
5, 122400, Note_on_c, 3, 57, 100
5, 122640, Note_on_c, 3, 57, 0
5, 122640, Note_on_c, 3, 54, 0
5, 122640, Note_on_c, 3, 52, 100
5, 122640, Note_on_c, 3, 55, 100
5, 122880, Note_on_c, 3, 55, 0
5, 122880, Note_on_c, 3, 52, 0
5, 122880, Note_on_c, 3, 55, 100
5, 122880, Note_on_c, 3, 59, 100
5, 123000, Note_on_c, 3, 59, 0
5, 123000, Note_on_c, 3, 55, 0
5, 123000, Note_on_c, 3, 54, 100
5, 123000, Note_on_c, 3, 57, 100
5, 123120, Note_on_c, 3, 57, 0
5, 123120, Note_on_c, 3, 54, 0
5, 123120, Note_on_c, 3, 52, 100
5, 123120, Note_on_c, 3, 55, 100
5, 123240, Note_on_c, 3, 55, 0
5, 123240, Note_on_c, 3, 52, 0
5, 123240, Note_on_c, 3, 50, 100
5, 123240, Note_on_c, 3, 54, 100
5, 123360, Note_on_c, 3, 54, 0
5, 123360, Note_on_c, 3, 50, 0
5, 123360, Note_on_c, 3, 57, 100
5, 123360, Note_on_c, 3, 54, 100
5, 123480, Note_on_c, 3, 54, 0
5, 123480, Note_on_c, 3, 57, 0
5, 123480, Note_on_c, 3, 62, 100
5, 123480, Note_on_c, 3, 54, 100
5, 123600, Note_on_c, 3, 54, 0
5, 123600, Note_on_c, 3, 62, 0
5, 123600, Note_on_c, 3, 57, 100
5, 123600, Note_on_c, 3, 54, 100
5, 123720, Note_on_c, 3, 54, 0
5, 123720, Note_on_c, 3, 57, 0
5, 123720, Note_on_c, 3, 50, 100
5, 123720, Note_on_c, 3, 54, 100
5, 123840, Note_on_c, 3, 54, 0
5, 123840, Note_on_c, 3, 50, 0
5, 123840, Note_on_c, 3, 52, 100
5, 123840, Note_on_c, 3, 49, 100
5, 124320, Note_on_c, 3, 49, 0
5, 124320, Note_on_c, 3, 52, 0
5, 124320, Note_on_c, 3, 54, 100
5, 124320, Note_on_c, 3, 57, 100
5, 124440, Note_on_c, 3, 57, 0
5, 124440, Note_on_c, 3, 54, 0
5, 124440, Note_on_c, 3, 50, 100
5, 124440, Note_on_c, 3, 54, 100
5, 124560, Note_on_c, 3, 54, 0
5, 124560, Note_on_c, 3, 50, 0
5, 124560, Note_on_c, 3, 49, 100
5, 124560, Note_on_c, 3, 52, 100
5, 125040, Note_on_c, 3, 52, 0
5, 125040, Note_on_c, 3, 49, 0
5, 125040, Note_on_c, 3, 54, 100
5, 125040, Note_on_c, 3, 57, 100
5, 125160, Note_on_c, 3, 57, 0
5, 125160, Note_on_c, 3, 54, 0
5, 125160, Note_on_c, 3, 50, 100
5, 125160, Note_on_c, 3, 54, 100
5, 125280, Note_on_c, 3, 54, 0
5, 125280, Note_on_c, 3, 50, 0
5, 125280, Note_on_c, 3, 52, 100
5, 125280, Note_on_c, 3, 49, 100
5, 125400, Note_on_c, 3, 49, 0
5, 125400, Note_on_c, 3, 52, 0
5, 126120, Note_on_c, 3, 63, 100
5, 126120, Note_on_c, 3, 66, 100
5, 126360, Note_on_c, 3, 66, 0
5, 126360, Note_on_c, 3, 63, 0
5, 126360, Note_on_c, 3, 63, 100
5, 126360, Note_on_c, 3, 66, 100
5, 126600, Note_on_c, 3, 66, 0
5, 126600, Note_on_c, 3, 63, 0
5, 126600, Note_on_c, 3, 63, 100
5, 126600, Note_on_c, 3, 66, 100
5, 126720, Note_on_c, 3, 66, 0
5, 126720, Note_on_c, 3, 63, 0
5, 126840, Note_on_c, 3, 67, 100
5, 126840, Note_on_c, 3, 64, 100
5, 127080, Note_on_c, 3, 64, 0
5, 127080, Note_on_c, 3, 67, 0
5, 127080, Note_on_c, 3, 67, 100
5, 127080, Note_on_c, 3, 64, 100
5, 127320, Note_on_c, 3, 64, 0
5, 127320, Note_on_c, 3, 67, 0
5, 127320, Note_on_c, 3, 64, 100
5, 127320, Note_on_c, 3, 67, 100
5, 127440, Note_on_c, 3, 67, 0
5, 127440, Note_on_c, 3, 64, 0
5, 127560, Note_on_c, 3, 67, 100
5, 127560, Note_on_c, 3, 64, 100
5, 127800, Note_on_c, 3, 64, 0
5, 127800, Note_on_c, 3, 67, 0
5, 127800, Note_on_c, 3, 67, 100
5, 127800, Note_on_c, 3, 64, 100
5, 128040, Note_on_c, 3, 64, 0
5, 128040, Note_on_c, 3, 67, 0
5, 128040, Note_on_c, 3, 55, 100
5, 128040, Note_on_c, 3, 64, 100
5, 128160, Note_on_c, 3, 64, 0
5, 128160, Note_on_c, 3, 55, 0
5, 128160, Note_on_c, 3, 54, 100
5, 128160, Note_on_c, 3, 62, 100
5, 128460, Note_on_c, 3, 62, 0
5, 128460, Note_on_c, 3, 54, 0
5, 128460, Note_on_c, 3, 52, 100
5, 128460, Note_on_c, 3, 61, 100
5, 128520, Note_on_c, 3, 61, 0
5, 128520, Note_on_c, 3, 52, 0
5, 128520, Note_on_c, 3, 62, 100
5, 128520, Note_on_c, 3, 54, 100
5, 128640, Note_on_c, 3, 54, 0
5, 128640, Note_on_c, 3, 62, 0
5, 128880, Note_on_c, 3, 54, 100
5, 128880, Note_on_c, 3, 62, 100
5, 129180, Note_on_c, 3, 62, 0
5, 129180, Note_on_c, 3, 54, 0
5, 129180, Note_on_c, 3, 52, 100
5, 129180, Note_on_c, 3, 61, 100
5, 129240, Note_on_c, 3, 61, 0
5, 129240, Note_on_c, 3, 52, 0
5, 129240, Note_on_c, 3, 54, 100
5, 129240, Note_on_c, 3, 62, 100
5, 129360, Note_on_c, 3, 62, 0
5, 129360, Note_on_c, 3, 54, 0
5, 129600, Note_on_c, 3, 54, 100
5, 129600, Note_on_c, 3, 62, 100
5, 129840, Note_on_c, 3, 62, 0
5, 129840, Note_on_c, 3, 54, 0
5, 129840, Note_on_c, 3, 64, 100
5, 129840, Note_on_c, 3, 61, 100
5, 129960, Note_on_c, 3, 61, 0
5, 129960, Note_on_c, 3, 64, 0
5, 129960, Note_on_c, 3, 66, 100
5, 129960, Note_on_c, 3, 62, 100
5, 130080, Note_on_c, 3, 62, 0
5, 130080, Note_on_c, 3, 66, 0
5, 130080, Note_on_c, 3, 67, 100
5, 130080, Note_on_c, 3, 64, 100
5, 130200, Note_on_c, 3, 64, 0
5, 130200, Note_on_c, 3, 67, 0
5, 130200, Note_on_c, 3, 62, 100
5, 130200, Note_on_c, 3, 66, 100
5, 130320, Note_on_c, 3, 66, 0
5, 130320, Note_on_c, 3, 62, 0
5, 130320, Note_on_c, 3, 64, 100
5, 130320, Note_on_c, 3, 61, 100
5, 130440, Note_on_c, 3, 61, 0
5, 130440, Note_on_c, 3, 64, 0
5, 131040, Note_on_c, 3, 64, 100
5, 131340, Note_on_c, 3, 64, 0
5, 131340, Note_on_c, 3, 63, 100
5, 131400, Note_on_c, 3, 63, 0
5, 131400, Note_on_c, 3, 64, 100
5, 131520, Note_on_c, 3, 64, 0
5, 131760, Note_on_c, 3, 64, 100
5, 132060, Note_on_c, 3, 64, 0
5, 132060, Note_on_c, 3, 63, 100
5, 132120, Note_on_c, 3, 63, 0
5, 132120, Note_on_c, 3, 64, 100
5, 132240, Note_on_c, 3, 64, 0
5, 132480, Note_on_c, 3, 64, 100
5, 132720, Note_on_c, 3, 64, 0
5, 132720, Note_on_c, 3, 62, 100
5, 132840, Note_on_c, 3, 62, 0
5, 132840, Note_on_c, 3, 66, 100
5, 132960, Note_on_c, 3, 66, 0
5, 132960, Note_on_c, 3, 64, 100
5, 133080, Note_on_c, 3, 64, 0
5, 133080, Note_on_c, 3, 57, 100
5, 133200, Note_on_c, 3, 57, 0
5, 133200, Note_on_c, 3, 54, 100
5, 133320, Note_on_c, 3, 54, 0
5, 133920, Note_on_c, 3, 54, 100
5, 133920, Note_on_c, 3, 57, 100
5, 134520, Note_on_c, 3, 57, 0
5, 134520, Note_on_c, 3, 54, 0
5, 134520, Note_on_c, 3, 55, 100
5, 134520, Note_on_c, 3, 59, 100
5, 134640, Note_on_c, 3, 59, 0
5, 134640, Note_on_c, 3, 55, 0
5, 134640, Note_on_c, 3, 52, 100
5, 134640, Note_on_c, 3, 55, 100
5, 135240, Note_on_c, 3, 55, 0
5, 135240, Note_on_c, 3, 52, 0
5, 135240, Note_on_c, 3, 54, 100
5, 135240, Note_on_c, 3, 57, 100
5, 135360, Note_on_c, 3, 57, 0
5, 135360, Note_on_c, 3, 54, 0
5, 135360, Note_on_c, 3, 50, 100
5, 135360, Note_on_c, 3, 54, 100
5, 135720, Note_on_c, 3, 54, 0
5, 135720, Note_on_c, 3, 50, 0
5, 135720, Note_on_c, 3, 52, 100
5, 135720, Note_on_c, 3, 55, 100
5, 135750, Note_on_c, 3, 55, 0
5, 135750, Note_on_c, 3, 52, 0
5, 135750, Note_on_c, 3, 50, 100
5, 135750, Note_on_c, 3, 54, 100
5, 135780, Note_on_c, 3, 54, 0
5, 135780, Note_on_c, 3, 50, 0
5, 135780, Note_on_c, 3, 49, 100
5, 135780, Note_on_c, 3, 52, 100
5, 135810, Note_on_c, 3, 52, 0
5, 135810, Note_on_c, 3, 49, 0
5, 135810, Note_on_c, 3, 50, 100
5, 135810, Note_on_c, 3, 54, 100
5, 135840, Note_on_c, 3, 54, 0
5, 135840, Note_on_c, 3, 50, 0
5, 135840, Note_on_c, 3, 57, 100
5, 135840, Note_on_c, 3, 54, 100
5, 135960, Note_on_c, 3, 54, 0
5, 135960, Note_on_c, 3, 57, 0
5, 135960, Note_on_c, 3, 52, 100
5, 135960, Note_on_c, 3, 55, 100
5, 136080, Note_on_c, 3, 55, 0
5, 136080, Note_on_c, 3, 52, 0
5, 136080, Note_on_c, 3, 50, 100
5, 136080, Note_on_c, 3, 54, 100
5, 136440, Note_on_c, 3, 54, 0
5, 136440, Note_on_c, 3, 50, 0
5, 136440, Note_on_c, 3, 49, 100
5, 136440, Note_on_c, 3, 52, 100
5, 136560, Note_on_c, 3, 52, 0
5, 136560, Note_on_c, 3, 49, 0
5, 136800, Note_on_c, 3, 54, 100
5, 136800, Note_on_c, 3, 57, 100
5, 137280, Note_on_c, 3, 57, 0
5, 137280, Note_on_c, 3, 54, 0
5, 137280, Note_on_c, 3, 57, 100
5, 137280, Note_on_c, 3, 61, 100
5, 137400, Note_on_c, 3, 61, 0
5, 137400, Note_on_c, 3, 57, 0
5, 137400, Note_on_c, 3, 59, 100
5, 137400, Note_on_c, 3, 55, 100
5, 137520, Note_on_c, 3, 55, 0
5, 137520, Note_on_c, 3, 59, 0
5, 137520, Note_on_c, 3, 54, 100
5, 137520, Note_on_c, 3, 57, 100
5, 137760, Note_on_c, 3, 57, 0
5, 137760, Note_on_c, 3, 54, 0
5, 137760, Note_on_c, 3, 52, 100
5, 137760, Note_on_c, 3, 55, 100
5, 138000, Note_on_c, 3, 55, 0
5, 138000, Note_on_c, 3, 52, 0
5, 138000, Note_on_c, 3, 55, 100
5, 138000, Note_on_c, 3, 59, 100
5, 138120, Note_on_c, 3, 59, 0
5, 138120, Note_on_c, 3, 55, 0
5, 138120, Note_on_c, 3, 54, 100
5, 138120, Note_on_c, 3, 57, 100
5, 138240, Note_on_c, 3, 57, 0
5, 138240, Note_on_c, 3, 54, 0
5, 138240, Note_on_c, 3, 52, 100
5, 138240, Note_on_c, 3, 55, 100
5, 138360, Note_on_c, 3, 55, 0
5, 138360, Note_on_c, 3, 52, 0
5, 138360, Note_on_c, 3, 50, 100
5, 138360, Note_on_c, 3, 54, 100
5, 138480, Note_on_c, 3, 54, 0
5, 138480, Note_on_c, 3, 50, 0
5, 138480, Note_on_c, 3, 57, 100
5, 138480, Note_on_c, 3, 54, 100
5, 138600, Note_on_c, 3, 54, 0
5, 138600, Note_on_c, 3, 57, 0
5, 138600, Note_on_c, 3, 62, 100
5, 138600, Note_on_c, 3, 54, 100
5, 138720, Note_on_c, 3, 54, 0
5, 138720, Note_on_c, 3, 62, 0
5, 138720, Note_on_c, 3, 57, 100
5, 138720, Note_on_c, 3, 54, 100
5, 138840, Note_on_c, 3, 54, 0
5, 138840, Note_on_c, 3, 57, 0
5, 138840, Note_on_c, 3, 50, 100
5, 138840, Note_on_c, 3, 54, 100
5, 138960, Note_on_c, 3, 54, 0
5, 138960, Note_on_c, 3, 50, 0
5, 138960, Note_on_c, 3, 52, 100
5, 138960, Note_on_c, 3, 49, 100
5, 139440, Note_on_c, 3, 49, 0
5, 139440, Note_on_c, 3, 52, 0
5, 139440, Note_on_c, 3, 54, 100
5, 139440, Note_on_c, 3, 57, 100
5, 139560, Note_on_c, 3, 57, 0
5, 139560, Note_on_c, 3, 54, 0
5, 139560, Note_on_c, 3, 50, 100
5, 139560, Note_on_c, 3, 54, 100
5, 139680, Note_on_c, 3, 54, 0
5, 139680, Note_on_c, 3, 50, 0
5, 139680, Note_on_c, 3, 49, 100
5, 139680, Note_on_c, 3, 52, 100
5, 140160, Note_on_c, 3, 52, 0
5, 140160, Note_on_c, 3, 49, 0
5, 140160, Note_on_c, 3, 54, 100
5, 140160, Note_on_c, 3, 57, 100
5, 140280, Note_on_c, 3, 57, 0
5, 140280, Note_on_c, 3, 54, 0
5, 140280, Note_on_c, 3, 50, 100
5, 140280, Note_on_c, 3, 54, 100
5, 140400, Note_on_c, 3, 54, 0
5, 140400, Note_on_c, 3, 50, 0
5, 140400, Note_on_c, 3, 52, 100
5, 140400, Note_on_c, 3, 49, 100
5, 140520, Note_on_c, 3, 49, 0
5, 140520, Note_on_c, 3, 52, 0
5, 141240, Note_on_c, 3, 63, 100
5, 141240, Note_on_c, 3, 66, 100
5, 141480, Note_on_c, 3, 66, 0
5, 141480, Note_on_c, 3, 63, 0
5, 141480, Note_on_c, 3, 63, 100
5, 141480, Note_on_c, 3, 66, 100
5, 141720, Note_on_c, 3, 66, 0
5, 141720, Note_on_c, 3, 63, 0
5, 141720, Note_on_c, 3, 63, 100
5, 141720, Note_on_c, 3, 66, 100
5, 141840, Note_on_c, 3, 66, 0
5, 141840, Note_on_c, 3, 63, 0
5, 141960, Note_on_c, 3, 67, 100
5, 141960, Note_on_c, 3, 64, 100
5, 142200, Note_on_c, 3, 64, 0
5, 142200, Note_on_c, 3, 67, 0
5, 142200, Note_on_c, 3, 67, 100
5, 142200, Note_on_c, 3, 64, 100
5, 142440, Note_on_c, 3, 64, 0
5, 142440, Note_on_c, 3, 67, 0
5, 142440, Note_on_c, 3, 64, 100
5, 142440, Note_on_c, 3, 67, 100
5, 142560, Note_on_c, 3, 67, 0
5, 142560, Note_on_c, 3, 64, 0
5, 142680, Note_on_c, 3, 67, 100
5, 142680, Note_on_c, 3, 64, 100
5, 142920, Note_on_c, 3, 64, 0
5, 142920, Note_on_c, 3, 67, 0
5, 142920, Note_on_c, 3, 67, 100
5, 142920, Note_on_c, 3, 64, 100
5, 143160, Note_on_c, 3, 64, 0
5, 143160, Note_on_c, 3, 67, 0
5, 143160, Note_on_c, 3, 55, 100
5, 143160, Note_on_c, 3, 64, 100
5, 143280, Note_on_c, 3, 64, 0
5, 143280, Note_on_c, 3, 55, 0
5, 143280, Note_on_c, 3, 54, 100
5, 143280, Note_on_c, 3, 62, 100
5, 143580, Note_on_c, 3, 62, 0
5, 143580, Note_on_c, 3, 54, 0
5, 143580, Note_on_c, 3, 52, 100
5, 143580, Note_on_c, 3, 61, 100
5, 143640, Note_on_c, 3, 61, 0
5, 143640, Note_on_c, 3, 52, 0
5, 143640, Note_on_c, 3, 62, 100
5, 143640, Note_on_c, 3, 54, 100
5, 143760, Note_on_c, 3, 54, 0
5, 143760, Note_on_c, 3, 62, 0
5, 144000, Note_on_c, 3, 54, 100
5, 144000, Note_on_c, 3, 62, 100
5, 144300, Note_on_c, 3, 62, 0
5, 144300, Note_on_c, 3, 54, 0
5, 144300, Note_on_c, 3, 52, 100
5, 144300, Note_on_c, 3, 61, 100
5, 144360, Note_on_c, 3, 61, 0
5, 144360, Note_on_c, 3, 52, 0
5, 144360, Note_on_c, 3, 54, 100
5, 144360, Note_on_c, 3, 62, 100
5, 144480, Note_on_c, 3, 62, 0
5, 144480, Note_on_c, 3, 54, 0
5, 144720, Note_on_c, 3, 54, 100
5, 144720, Note_on_c, 3, 62, 100
5, 144960, Note_on_c, 3, 62, 0
5, 144960, Note_on_c, 3, 54, 0
5, 144960, Note_on_c, 3, 64, 100
5, 144960, Note_on_c, 3, 61, 100
5, 145080, Note_on_c, 3, 61, 0
5, 145080, Note_on_c, 3, 64, 0
5, 145080, Note_on_c, 3, 66, 100
5, 145080, Note_on_c, 3, 62, 100
5, 145200, Note_on_c, 3, 62, 0
5, 145200, Note_on_c, 3, 66, 0
5, 145200, Note_on_c, 3, 67, 100
5, 145200, Note_on_c, 3, 64, 100
5, 145320, Note_on_c, 3, 64, 0
5, 145320, Note_on_c, 3, 67, 0
5, 145320, Note_on_c, 3, 62, 100
5, 145320, Note_on_c, 3, 66, 100
5, 145440, Note_on_c, 3, 66, 0
5, 145440, Note_on_c, 3, 62, 0
5, 145440, Note_on_c, 3, 64, 100
5, 145440, Note_on_c, 3, 61, 100
5, 145560, Note_on_c, 3, 61, 0
5, 145560, Note_on_c, 3, 64, 0
5, 146160, Note_on_c, 3, 64, 100
5, 146460, Note_on_c, 3, 64, 0
5, 146460, Note_on_c, 3, 63, 100
5, 146520, Note_on_c, 3, 63, 0
5, 146520, Note_on_c, 3, 64, 100
5, 146640, Note_on_c, 3, 64, 0
5, 146880, Note_on_c, 3, 64, 100
5, 147180, Note_on_c, 3, 64, 0
5, 147180, Note_on_c, 3, 63, 100
5, 147240, Note_on_c, 3, 63, 0
5, 147240, Note_on_c, 3, 64, 100
5, 147360, Note_on_c, 3, 64, 0
5, 147600, Note_on_c, 3, 64, 100
5, 147840, Note_on_c, 3, 64, 0
5, 147840, Note_on_c, 3, 62, 100
5, 147960, Note_on_c, 3, 62, 0
5, 147960, Note_on_c, 3, 66, 100
5, 148080, Note_on_c, 3, 66, 0
5, 148080, Note_on_c, 3, 64, 100
5, 148200, Note_on_c, 3, 64, 0
5, 148200, Note_on_c, 3, 57, 100
5, 148320, Note_on_c, 3, 57, 0
5, 148320, Note_on_c, 3, 54, 100
5, 148440, Note_on_c, 3, 54, 0
5, 153960, Note_on_c, 3, 41, 100
5, 153960, Note_on_c, 3, 53, 100
5, 154080, Note_on_c, 3, 53, 0
5, 154080, Note_on_c, 3, 41, 0
5, 154080, Note_on_c, 3, 53, 100
5, 154080, Note_on_c, 3, 41, 100
5, 154110, Note_on_c, 3, 53, 0
5, 154110, Note_on_c, 3, 57, 100
5, 154200, Note_on_c, 3, 57, 0
5, 154200, Note_on_c, 3, 41, 0
5, 154200, Note_on_c, 3, 53, 100
5, 154260, Note_on_c, 3, 53, 0
5, 154320, Note_on_c, 3, 53, 100
5, 154320, Note_on_c, 3, 57, 100
5, 154440, Note_on_c, 3, 57, 0
5, 154440, Note_on_c, 3, 53, 0
5, 154440, Note_on_c, 3, 53, 100
5, 154440, Note_on_c, 3, 57, 100
5, 154470, Note_on_c, 3, 57, 0
5, 154470, Note_on_c, 3, 53, 0
5, 154470, Note_on_c, 3, 60, 100
5, 154470, Note_on_c, 3, 57, 100
5, 154560, Note_on_c, 3, 57, 0
5, 154560, Note_on_c, 3, 60, 0
5, 154560, Note_on_c, 3, 53, 100
5, 154560, Note_on_c, 3, 57, 100
5, 154620, Note_on_c, 3, 57, 0
5, 154620, Note_on_c, 3, 53, 0
5, 154680, Note_on_c, 3, 57, 100
5, 154680, Note_on_c, 3, 60, 100
5, 154800, Note_on_c, 3, 60, 0
5, 154800, Note_on_c, 3, 57, 0
5, 154800, Note_on_c, 3, 65, 100
5, 154800, Note_on_c, 3, 57, 100
5, 154920, Note_on_c, 3, 57, 0
5, 154920, Note_on_c, 3, 65, 0
5, 154920, Note_on_c, 3, 65, 100
5, 154920, Note_on_c, 3, 57, 100
5, 155040, Note_on_c, 3, 57, 0
5, 155040, Note_on_c, 3, 65, 0
5, 155040, Note_on_c, 3, 64, 100
5, 155040, Note_on_c, 3, 60, 100
5, 155160, Note_on_c, 3, 60, 0
5, 155160, Note_on_c, 3, 64, 0
5, 155160, Note_on_c, 3, 58, 100
5, 155160, Note_on_c, 3, 62, 100
5, 155280, Note_on_c, 3, 62, 0
5, 155280, Note_on_c, 3, 58, 0
5, 155280, Note_on_c, 3, 58, 100
5, 155280, Note_on_c, 3, 62, 100
5, 155400, Note_on_c, 3, 62, 0
5, 155400, Note_on_c, 3, 58, 0
5, 155400, Note_on_c, 3, 57, 100
5, 155400, Note_on_c, 3, 60, 100
5, 155520, Note_on_c, 3, 60, 0
5, 155520, Note_on_c, 3, 57, 0
5, 155520, Note_on_c, 3, 55, 100
5, 155520, Note_on_c, 3, 58, 100
5, 155640, Note_on_c, 3, 58, 0
5, 155640, Note_on_c, 3, 55, 0
5, 155640, Note_on_c, 3, 55, 100
5, 155640, Note_on_c, 3, 58, 100
5, 155760, Note_on_c, 3, 58, 0
5, 155760, Note_on_c, 3, 55, 0
5, 155760, Note_on_c, 3, 53, 100
5, 155760, Note_on_c, 3, 57, 100
5, 155880, Note_on_c, 3, 57, 0
5, 155880, Note_on_c, 3, 53, 0
5, 155880, Note_on_c, 3, 52, 100
5, 155880, Note_on_c, 3, 55, 100
5, 156240, Note_on_c, 3, 55, 0
5, 156240, Note_on_c, 3, 52, 0
5, 156240, Note_on_c, 3, 67, 100
5, 156240, Note_on_c, 3, 64, 100
5, 156360, Note_on_c, 3, 64, 0
5, 156360, Note_on_c, 3, 67, 0
5, 156360, Note_on_c, 3, 64, 100
5, 156360, Note_on_c, 3, 67, 100
5, 156480, Note_on_c, 3, 67, 0
5, 156480, Note_on_c, 3, 64, 0
5, 156480, Note_on_c, 3, 62, 100
5, 156480, Note_on_c, 3, 65, 100
5, 156600, Note_on_c, 3, 65, 0
5, 156600, Note_on_c, 3, 62, 0
5, 156600, Note_on_c, 3, 60, 100
5, 156600, Note_on_c, 3, 64, 100
5, 156720, Note_on_c, 3, 64, 0
5, 156720, Note_on_c, 3, 60, 0
5, 156720, Note_on_c, 3, 60, 100
5, 156720, Note_on_c, 3, 64, 100
5, 156840, Note_on_c, 3, 64, 0
5, 156840, Note_on_c, 3, 60, 0
5, 156840, Note_on_c, 3, 58, 100
5, 156840, Note_on_c, 3, 62, 100
5, 156960, Note_on_c, 3, 62, 0
5, 156960, Note_on_c, 3, 58, 0
5, 156960, Note_on_c, 3, 57, 100
5, 156960, Note_on_c, 3, 60, 100
5, 157080, Note_on_c, 3, 60, 0
5, 157080, Note_on_c, 3, 57, 0
5, 157080, Note_on_c, 3, 57, 100
5, 157080, Note_on_c, 3, 60, 100
5, 157200, Note_on_c, 3, 60, 0
5, 157200, Note_on_c, 3, 57, 0
5, 157200, Note_on_c, 3, 55, 100
5, 157200, Note_on_c, 3, 58, 100
5, 157320, Note_on_c, 3, 58, 0
5, 157320, Note_on_c, 3, 55, 0
5, 157320, Note_on_c, 3, 53, 100
5, 157320, Note_on_c, 3, 57, 100
5, 157680, Note_on_c, 3, 57, 0
5, 157680, Note_on_c, 3, 53, 0
5, 159480, Note_on_c, 3, 65, 100
5, 159480, Note_on_c, 3, 62, 100
5, 159720, Note_on_c, 3, 62, 0
5, 159720, Note_on_c, 3, 65, 0
5, 159720, Note_on_c, 3, 61, 100
5, 159720, Note_on_c, 3, 64, 100
5, 159840, Note_on_c, 3, 64, 0
5, 159840, Note_on_c, 3, 61, 0
5, 159840, Note_on_c, 3, 59, 100
5, 159840, Note_on_c, 3, 62, 100
5, 160200, Note_on_c, 3, 62, 0
5, 160200, Note_on_c, 3, 59, 0
5, 160200, Note_on_c, 3, 57, 100
5, 160200, Note_on_c, 3, 61, 100
5, 160320, Note_on_c, 3, 61, 0
5, 160320, Note_on_c, 3, 57, 0
5, 160560, Note_on_c, 3, 59, 100
5, 160560, Note_on_c, 3, 62, 100
5, 160920, Note_on_c, 3, 62, 0
5, 160920, Note_on_c, 3, 59, 0
5, 160920, Note_on_c, 3, 57, 100
5, 160920, Note_on_c, 3, 61, 100
5, 161040, Note_on_c, 3, 61, 0
5, 161040, Note_on_c, 3, 57, 0
5, 161280, Note_on_c, 3, 59, 100
5, 161280, Note_on_c, 3, 62, 100
5, 161640, Note_on_c, 3, 62, 0
5, 161640, Note_on_c, 3, 59, 0
5, 161640, Note_on_c, 3, 57, 100
5, 161640, Note_on_c, 3, 61, 100
5, 161760, Note_on_c, 3, 61, 0
5, 161760, Note_on_c, 3, 57, 0
5, 161760, Note_on_c, 3, 64, 100
5, 161880, Note_on_c, 3, 64, 0
5, 161880, Note_on_c, 3, 61, 100
5, 162000, Note_on_c, 3, 61, 0
5, 162000, Note_on_c, 3, 57, 100
5, 162120, Note_on_c, 3, 57, 0
5, 162120, Note_on_c, 3, 52, 100
5, 162240, Note_on_c, 3, 52, 0
5, 162240, Note_on_c, 3, 49, 100
5, 162360, Note_on_c, 3, 49, 0
5, 162360, Note_on_c, 3, 45, 100
5, 162480, Note_on_c, 3, 45, 0
5, 162600, Note_on_c, 3, 41, 100
5, 162600, Note_on_c, 3, 53, 100
5, 162720, Note_on_c, 3, 53, 0
5, 162720, Note_on_c, 3, 41, 0
5, 162720, Note_on_c, 3, 53, 100
5, 162720, Note_on_c, 3, 41, 100
5, 162750, Note_on_c, 3, 53, 0
5, 162750, Note_on_c, 3, 57, 100
5, 162840, Note_on_c, 3, 57, 0
5, 162840, Note_on_c, 3, 41, 0
5, 162840, Note_on_c, 3, 53, 100
5, 162900, Note_on_c, 3, 53, 0
5, 162960, Note_on_c, 3, 53, 100
5, 162960, Note_on_c, 3, 57, 100
5, 163080, Note_on_c, 3, 57, 0
5, 163080, Note_on_c, 3, 53, 0
5, 163080, Note_on_c, 3, 53, 100
5, 163080, Note_on_c, 3, 57, 100
5, 163110, Note_on_c, 3, 57, 0
5, 163110, Note_on_c, 3, 53, 0
5, 163110, Note_on_c, 3, 60, 100
5, 163110, Note_on_c, 3, 57, 100
5, 163200, Note_on_c, 3, 57, 0
5, 163200, Note_on_c, 3, 60, 0
5, 163200, Note_on_c, 3, 53, 100
5, 163200, Note_on_c, 3, 57, 100
5, 163260, Note_on_c, 3, 57, 0
5, 163260, Note_on_c, 3, 53, 0
5, 163320, Note_on_c, 3, 57, 100
5, 163320, Note_on_c, 3, 60, 100
5, 163440, Note_on_c, 3, 60, 0
5, 163440, Note_on_c, 3, 57, 0
5, 163440, Note_on_c, 3, 65, 100
5, 163440, Note_on_c, 3, 57, 100
5, 163560, Note_on_c, 3, 57, 0
5, 163560, Note_on_c, 3, 65, 0
5, 163560, Note_on_c, 3, 65, 100
5, 163560, Note_on_c, 3, 57, 100
5, 163680, Note_on_c, 3, 57, 0
5, 163680, Note_on_c, 3, 65, 0
5, 163680, Note_on_c, 3, 64, 100
5, 163680, Note_on_c, 3, 60, 100
5, 163800, Note_on_c, 3, 60, 0
5, 163800, Note_on_c, 3, 64, 0
5, 163800, Note_on_c, 3, 58, 100
5, 163800, Note_on_c, 3, 62, 100
5, 163920, Note_on_c, 3, 62, 0
5, 163920, Note_on_c, 3, 58, 0
5, 163920, Note_on_c, 3, 58, 100
5, 163920, Note_on_c, 3, 62, 100
5, 164040, Note_on_c, 3, 62, 0
5, 164040, Note_on_c, 3, 58, 0
5, 164040, Note_on_c, 3, 57, 100
5, 164040, Note_on_c, 3, 60, 100
5, 164160, Note_on_c, 3, 60, 0
5, 164160, Note_on_c, 3, 57, 0
5, 164160, Note_on_c, 3, 55, 100
5, 164160, Note_on_c, 3, 58, 100
5, 164280, Note_on_c, 3, 58, 0
5, 164280, Note_on_c, 3, 55, 0
5, 164280, Note_on_c, 3, 55, 100
5, 164280, Note_on_c, 3, 58, 100
5, 164400, Note_on_c, 3, 58, 0
5, 164400, Note_on_c, 3, 55, 0
5, 164400, Note_on_c, 3, 53, 100
5, 164400, Note_on_c, 3, 57, 100
5, 164520, Note_on_c, 3, 57, 0
5, 164520, Note_on_c, 3, 53, 0
5, 164520, Note_on_c, 3, 52, 100
5, 164520, Note_on_c, 3, 55, 100
5, 164880, Note_on_c, 3, 55, 0
5, 164880, Note_on_c, 3, 52, 0
5, 164880, Note_on_c, 3, 67, 100
5, 164880, Note_on_c, 3, 64, 100
5, 165000, Note_on_c, 3, 64, 0
5, 165000, Note_on_c, 3, 67, 0
5, 165000, Note_on_c, 3, 64, 100
5, 165000, Note_on_c, 3, 67, 100
5, 165120, Note_on_c, 3, 67, 0
5, 165120, Note_on_c, 3, 64, 0
5, 165120, Note_on_c, 3, 62, 100
5, 165120, Note_on_c, 3, 65, 100
5, 165240, Note_on_c, 3, 65, 0
5, 165240, Note_on_c, 3, 62, 0
5, 165240, Note_on_c, 3, 60, 100
5, 165240, Note_on_c, 3, 64, 100
5, 165360, Note_on_c, 3, 64, 0
5, 165360, Note_on_c, 3, 60, 0
5, 165360, Note_on_c, 3, 60, 100
5, 165360, Note_on_c, 3, 64, 100
5, 165480, Note_on_c, 3, 64, 0
5, 165480, Note_on_c, 3, 60, 0
5, 165480, Note_on_c, 3, 58, 100
5, 165480, Note_on_c, 3, 62, 100
5, 165600, Note_on_c, 3, 62, 0
5, 165600, Note_on_c, 3, 58, 0
5, 165600, Note_on_c, 3, 57, 100
5, 165600, Note_on_c, 3, 60, 100
5, 165720, Note_on_c, 3, 60, 0
5, 165720, Note_on_c, 3, 57, 0
5, 165720, Note_on_c, 3, 57, 100
5, 165720, Note_on_c, 3, 60, 100
5, 165840, Note_on_c, 3, 60, 0
5, 165840, Note_on_c, 3, 57, 0
5, 165840, Note_on_c, 3, 55, 100
5, 165840, Note_on_c, 3, 58, 100
5, 165960, Note_on_c, 3, 58, 0
5, 165960, Note_on_c, 3, 55, 0
5, 165960, Note_on_c, 3, 53, 100
5, 165960, Note_on_c, 3, 57, 100
5, 166320, Note_on_c, 3, 57, 0
5, 166320, Note_on_c, 3, 53, 0
5, 168120, Note_on_c, 3, 65, 100
5, 168120, Note_on_c, 3, 62, 100
5, 168360, Note_on_c, 3, 62, 0
5, 168360, Note_on_c, 3, 65, 0
5, 168360, Note_on_c, 3, 61, 100
5, 168360, Note_on_c, 3, 64, 100
5, 168480, Note_on_c, 3, 64, 0
5, 168480, Note_on_c, 3, 61, 0
5, 168480, Note_on_c, 3, 59, 100
5, 168480, Note_on_c, 3, 62, 100
5, 168840, Note_on_c, 3, 62, 0
5, 168840, Note_on_c, 3, 59, 0
5, 168840, Note_on_c, 3, 57, 100
5, 168840, Note_on_c, 3, 61, 100
5, 168960, Note_on_c, 3, 61, 0
5, 168960, Note_on_c, 3, 57, 0
5, 169200, Note_on_c, 3, 59, 100
5, 169200, Note_on_c, 3, 62, 100
5, 169560, Note_on_c, 3, 62, 0
5, 169560, Note_on_c, 3, 59, 0
5, 169560, Note_on_c, 3, 57, 100
5, 169560, Note_on_c, 3, 61, 100
5, 169680, Note_on_c, 3, 61, 0
5, 169680, Note_on_c, 3, 57, 0
5, 169920, Note_on_c, 3, 59, 100
5, 169920, Note_on_c, 3, 62, 100
5, 170280, Note_on_c, 3, 62, 0
5, 170280, Note_on_c, 3, 59, 0
5, 170280, Note_on_c, 3, 57, 100
5, 170280, Note_on_c, 3, 61, 100
5, 170400, Note_on_c, 3, 61, 0
5, 170400, Note_on_c, 3, 57, 0
5, 170400, Note_on_c, 3, 64, 100
5, 170520, Note_on_c, 3, 64, 0
5, 170520, Note_on_c, 3, 61, 100
5, 170640, Note_on_c, 3, 61, 0
5, 170640, Note_on_c, 3, 57, 100
5, 170760, Note_on_c, 3, 57, 0
5, 170760, Note_on_c, 3, 52, 100
5, 170880, Note_on_c, 3, 52, 0
5, 170880, Note_on_c, 3, 49, 100
5, 171000, Note_on_c, 3, 49, 0
5, 171000, Note_on_c, 3, 45, 100
5, 171120, Note_on_c, 3, 45, 0
5, 177120, Note_on_c, 3, 65, 100
5, 177120, Note_on_c, 3, 60, 100
5, 177360, Note_on_c, 3, 60, 0
5, 177360, Note_on_c, 3, 59, 100
5, 177480, Note_on_c, 3, 59, 0
5, 177480, Note_on_c, 3, 60, 100
5, 177720, Note_on_c, 3, 60, 0
5, 177720, Note_on_c, 3, 59, 100
5, 177840, Note_on_c, 3, 59, 0
5, 177840, Note_on_c, 3, 60, 100
5, 178080, Note_on_c, 3, 60, 0
5, 178080, Note_on_c, 3, 65, 0
5, 178080, Note_on_c, 3, 65, 100
5, 178080, Note_on_c, 3, 59, 100
5, 178200, Note_on_c, 3, 59, 0
5, 178200, Note_on_c, 3, 65, 0
5, 178200, Note_on_c, 3, 65, 100
5, 178200, Note_on_c, 3, 59, 100
5, 178320, Note_on_c, 3, 59, 0
5, 178320, Note_on_c, 3, 65, 0
5, 182880, Note_on_c, 3, 58, 100
5, 182880, Note_on_c, 3, 63, 100
5, 183120, Note_on_c, 3, 58, 0
5, 183120, Note_on_c, 3, 57, 100
5, 183240, Note_on_c, 3, 57, 0
5, 183240, Note_on_c, 3, 58, 100
5, 183480, Note_on_c, 3, 58, 0
5, 183480, Note_on_c, 3, 57, 100
5, 183600, Note_on_c, 3, 57, 0
5, 183600, Note_on_c, 3, 58, 100
5, 183840, Note_on_c, 3, 58, 0
5, 183840, Note_on_c, 3, 63, 0
5, 183840, Note_on_c, 3, 63, 100
5, 183840, Note_on_c, 3, 57, 100
5, 183960, Note_on_c, 3, 57, 0
5, 183960, Note_on_c, 3, 63, 0
5, 183960, Note_on_c, 3, 57, 100
5, 183960, Note_on_c, 3, 63, 100
5, 184080, Note_on_c, 3, 63, 0
5, 184080, Note_on_c, 3, 57, 0
5, 185280, Note_on_c, 3, 58, 100
5, 185400, Note_on_c, 3, 58, 0
5, 185400, Note_on_c, 3, 62, 100
5, 185520, Note_on_c, 3, 62, 0
5, 185520, Note_on_c, 3, 58, 100
5, 185580, Note_on_c, 3, 58, 0
5, 185640, Note_on_c, 3, 62, 100
5, 185760, Note_on_c, 3, 62, 0
5, 185760, Note_on_c, 3, 65, 100
5, 185880, Note_on_c, 3, 65, 0
5, 185880, Note_on_c, 3, 62, 100
5, 185940, Note_on_c, 3, 62, 0
5, 186000, Note_on_c, 3, 65, 100
5, 186120, Note_on_c, 3, 65, 0
5, 186120, Note_on_c, 3, 58, 100
5, 187320, Note_on_c, 3, 58, 0
5, 187320, Note_on_c, 3, 60, 100
5, 187320, Note_on_c, 3, 57, 100
5, 187440, Note_on_c, 3, 57, 0
5, 187440, Note_on_c, 3, 60, 0
5, 187440, Note_on_c, 3, 60, 100
5, 187440, Note_on_c, 3, 57, 100
5, 187560, Note_on_c, 3, 57, 0
5, 187560, Note_on_c, 3, 60, 0
5, 187560, Note_on_c, 3, 60, 100
5, 187560, Note_on_c, 3, 57, 100
5, 188760, Note_on_c, 3, 57, 0
5, 188760, Note_on_c, 3, 60, 0
5, 188760, Note_on_c, 3, 62, 100
5, 188760, Note_on_c, 3, 58, 100
5, 188880, Note_on_c, 3, 58, 0
5, 188880, Note_on_c, 3, 62, 0
5, 188880, Note_on_c, 3, 62, 100
5, 188880, Note_on_c, 3, 58, 100
5, 189000, Note_on_c, 3, 58, 0
5, 189000, Note_on_c, 3, 62, 0
5, 189000, Note_on_c, 3, 62, 100
5, 189000, Note_on_c, 3, 58, 100
5, 190200, Note_on_c, 3, 58, 0
5, 190200, Note_on_c, 3, 62, 0
5, 190200, Note_on_c, 3, 63, 100
5, 190200, Note_on_c, 3, 60, 100
5, 190320, Note_on_c, 3, 60, 0
5, 190320, Note_on_c, 3, 63, 0
5, 190320, Note_on_c, 3, 63, 100
5, 190320, Note_on_c, 3, 60, 100
5, 190440, Note_on_c, 3, 60, 0
5, 190440, Note_on_c, 3, 63, 0
5, 190440, Note_on_c, 3, 60, 100
5, 190440, Note_on_c, 3, 63, 100
5, 191640, Note_on_c, 3, 63, 0
5, 191640, Note_on_c, 3, 60, 0
5, 191640, Note_on_c, 3, 65, 100
5, 191640, Note_on_c, 3, 62, 100
5, 191760, Note_on_c, 3, 62, 0
5, 191760, Note_on_c, 3, 65, 0
5, 191760, Note_on_c, 3, 65, 100
5, 191760, Note_on_c, 3, 62, 100
5, 191880, Note_on_c, 3, 62, 0
5, 191880, Note_on_c, 3, 65, 0
5, 191880, Note_on_c, 3, 53, 100
5, 193080, Note_on_c, 3, 53, 0
5, 193080, Note_on_c, 3, 52, 100
5, 193080, Note_on_c, 3, 55, 100
5, 193200, Note_on_c, 3, 55, 0
5, 193200, Note_on_c, 3, 52, 0
5, 193200, Note_on_c, 3, 52, 100
5, 193200, Note_on_c, 3, 55, 100
5, 193320, Note_on_c, 3, 55, 0
5, 193320, Note_on_c, 3, 52, 0
5, 193320, Note_on_c, 3, 52, 100
5, 193320, Note_on_c, 3, 55, 100
5, 194280, Note_on_c, 3, 55, 0
5, 194280, Note_on_c, 3, 52, 0
5, 194280, Note_on_c, 3, 53, 100
5, 194280, Note_on_c, 3, 57, 100
5, 194400, Note_on_c, 3, 57, 0
5, 194400, Note_on_c, 3, 53, 0
5, 194400, Note_on_c, 3, 57, 100
5, 194520, Note_on_c, 3, 57, 0
5, 194520, Note_on_c, 3, 53, 100
5, 194580, Note_on_c, 3, 53, 0
5, 194640, Note_on_c, 3, 53, 100
5, 194640, Note_on_c, 3, 57, 100
5, 194760, Note_on_c, 3, 57, 0
5, 194760, Note_on_c, 3, 53, 0
5, 194760, Note_on_c, 3, 53, 100
5, 194760, Note_on_c, 3, 57, 100
5, 194790, Note_on_c, 3, 57, 0
5, 194790, Note_on_c, 3, 53, 0
5, 194790, Note_on_c, 3, 57, 100
5, 194790, Note_on_c, 3, 60, 100
5, 194880, Note_on_c, 3, 60, 0
5, 194880, Note_on_c, 3, 57, 0
5, 194880, Note_on_c, 3, 53, 100
5, 194880, Note_on_c, 3, 57, 100
5, 194940, Note_on_c, 3, 57, 0
5, 194940, Note_on_c, 3, 53, 0
5, 195000, Note_on_c, 3, 60, 100
5, 195000, Note_on_c, 3, 57, 100
5, 195120, Note_on_c, 3, 57, 0
5, 195120, Note_on_c, 3, 60, 0
5, 195120, Note_on_c, 3, 53, 100
5, 196320, Note_on_c, 3, 53, 0
5, 196320, Note_on_c, 3, 52, 100
5, 196320, Note_on_c, 3, 55, 100
5, 196440, Note_on_c, 3, 55, 0
5, 196440, Note_on_c, 3, 52, 0
5, 196440, Note_on_c, 3, 52, 100
5, 196440, Note_on_c, 3, 55, 100
5, 196560, Note_on_c, 3, 55, 0
5, 196560, Note_on_c, 3, 52, 0
5, 196560, Note_on_c, 3, 52, 100
5, 196560, Note_on_c, 3, 55, 100
5, 197760, Note_on_c, 3, 55, 0
5, 197760, Note_on_c, 3, 52, 0
5, 197760, Note_on_c, 3, 57, 100
5, 197760, Note_on_c, 3, 53, 100
5, 197880, Note_on_c, 3, 53, 0
5, 197880, Note_on_c, 3, 57, 0
5, 197880, Note_on_c, 3, 57, 100
5, 197880, Note_on_c, 3, 53, 100
5, 198000, Note_on_c, 3, 53, 0
5, 198000, Note_on_c, 3, 57, 0
5, 198000, Note_on_c, 3, 65, 100
5, 198120, Note_on_c, 3, 65, 0
5, 198120, Note_on_c, 3, 65, 100
5, 198240, Note_on_c, 3, 65, 0
5, 198240, Note_on_c, 3, 64, 100
5, 198360, Note_on_c, 3, 64, 0
5, 198360, Note_on_c, 3, 62, 100
5, 198480, Note_on_c, 3, 62, 0
5, 198480, Note_on_c, 3, 62, 100
5, 198600, Note_on_c, 3, 62, 0
5, 198600, Note_on_c, 3, 60, 100
5, 198720, Note_on_c, 3, 60, 0
5, 198720, Note_on_c, 3, 58, 100
5, 198840, Note_on_c, 3, 58, 0
5, 198840, Note_on_c, 3, 58, 100
5, 198960, Note_on_c, 3, 58, 0
5, 198960, Note_on_c, 3, 57, 100
5, 199080, Note_on_c, 3, 57, 0
5, 199080, Note_on_c, 3, 55, 100
5, 199440, Note_on_c, 3, 55, 0
5, 199440, Note_on_c, 3, 67, 100
5, 199440, Note_on_c, 3, 64, 100
5, 199560, Note_on_c, 3, 64, 0
5, 199560, Note_on_c, 3, 67, 0
5, 199560, Note_on_c, 3, 64, 100
5, 199560, Note_on_c, 3, 67, 100
5, 199680, Note_on_c, 3, 67, 0
5, 199680, Note_on_c, 3, 64, 0
5, 199680, Note_on_c, 3, 62, 100
5, 199680, Note_on_c, 3, 65, 100
5, 199800, Note_on_c, 3, 65, 0
5, 199800, Note_on_c, 3, 62, 0
5, 199800, Note_on_c, 3, 60, 100
5, 199800, Note_on_c, 3, 64, 100
5, 199920, Note_on_c, 3, 64, 0
5, 199920, Note_on_c, 3, 60, 0
5, 199920, Note_on_c, 3, 60, 100
5, 199920, Note_on_c, 3, 64, 100
5, 200040, Note_on_c, 3, 64, 0
5, 200040, Note_on_c, 3, 60, 0
5, 200040, Note_on_c, 3, 58, 100
5, 200040, Note_on_c, 3, 62, 100
5, 200160, Note_on_c, 3, 62, 0
5, 200160, Note_on_c, 3, 58, 0
5, 200160, Note_on_c, 3, 57, 100
5, 200160, Note_on_c, 3, 60, 100
5, 200280, Note_on_c, 3, 60, 0
5, 200280, Note_on_c, 3, 57, 0
5, 200280, Note_on_c, 3, 57, 100
5, 200280, Note_on_c, 3, 60, 100
5, 200400, Note_on_c, 3, 60, 0
5, 200400, Note_on_c, 3, 57, 0
5, 200400, Note_on_c, 3, 55, 100
5, 200400, Note_on_c, 3, 58, 100
5, 200520, Note_on_c, 3, 58, 0
5, 200520, Note_on_c, 3, 55, 0
5, 200520, Note_on_c, 3, 53, 100
5, 200520, Note_on_c, 3, 57, 100
5, 200880, Note_on_c, 3, 57, 0
5, 200880, Note_on_c, 3, 53, 0
5, 201600, Note_on_c, 3, 64, 100
5, 201600, Note_on_c, 3, 58, 100
5, 201720, Note_on_c, 3, 58, 0
5, 201720, Note_on_c, 3, 64, 0
5, 201720, Note_on_c, 3, 64, 100
5, 201720, Note_on_c, 3, 58, 100
5, 201840, Note_on_c, 3, 58, 0
5, 201840, Note_on_c, 3, 64, 0
5, 201840, Note_on_c, 3, 60, 100
5, 201840, Note_on_c, 3, 57, 100
5, 201960, Note_on_c, 3, 57, 0
5, 201960, Note_on_c, 3, 60, 0
5, 201960, Note_on_c, 3, 55, 100
5, 201960, Note_on_c, 3, 60, 100
5, 202200, Note_on_c, 3, 60, 0
5, 202200, Note_on_c, 3, 55, 0
5, 202200, Note_on_c, 3, 53, 100
5, 202200, Note_on_c, 3, 60, 100
5, 202320, Note_on_c, 3, 60, 0
5, 202320, Note_on_c, 3, 53, 0
5, 204840, Note_on_c, 3, 64, 100
5, 204840, Note_on_c, 3, 60, 100
5, 204960, Note_on_c, 3, 60, 0
5, 204960, Note_on_c, 3, 64, 0
5, 204960, Note_on_c, 3, 64, 100
5, 204960, Note_on_c, 3, 60, 100
5, 205080, Note_on_c, 3, 60, 0
5, 205080, Note_on_c, 3, 64, 0
5, 205080, Note_on_c, 3, 64, 100
5, 205080, Note_on_c, 3, 60, 100
5, 205200, Note_on_c, 3, 60, 0
5, 205200, Note_on_c, 3, 64, 0
5, 205560, Note_on_c, 3, 64, 100
5, 205560, Note_on_c, 3, 60, 100
5, 205680, Note_on_c, 3, 60, 0
5, 205680, Note_on_c, 3, 64, 0
5, 205680, Note_on_c, 3, 64, 100
5, 205680, Note_on_c, 3, 60, 100
5, 205800, Note_on_c, 3, 60, 0
5, 205800, Note_on_c, 3, 64, 0
5, 205800, Note_on_c, 3, 64, 100
5, 205800, Note_on_c, 3, 60, 100
5, 205920, Note_on_c, 3, 60, 0
5, 205920, Note_on_c, 3, 64, 0
5, 206280, Note_on_c, 3, 64, 100
5, 206280, Note_on_c, 3, 60, 100
5, 206400, Note_on_c, 3, 60, 0
5, 206400, Note_on_c, 3, 64, 0
5, 206400, Note_on_c, 3, 64, 100
5, 206400, Note_on_c, 3, 60, 100
5, 206520, Note_on_c, 3, 60, 0
5, 206520, Note_on_c, 3, 64, 0
5, 206520, Note_on_c, 3, 64, 100
5, 206520, Note_on_c, 3, 60, 100
5, 206640, Note_on_c, 3, 60, 0
5, 206640, Note_on_c, 3, 64, 0
5, 207000, Note_on_c, 3, 64, 100
5, 207000, Note_on_c, 3, 60, 100
5, 207120, Note_on_c, 3, 60, 0
5, 207120, Note_on_c, 3, 64, 0
5, 207120, Note_on_c, 3, 64, 100
5, 207120, Note_on_c, 3, 60, 100
5, 207240, Note_on_c, 3, 60, 0
5, 207240, Note_on_c, 3, 64, 0
5, 207240, Note_on_c, 3, 64, 100
5, 207240, Note_on_c, 3, 60, 100
5, 207360, Note_on_c, 3, 60, 0
5, 207360, Note_on_c, 3, 64, 0
5, 207360, Note_on_c, 3, 64, 100
5, 207390, Note_on_c, 3, 64, 0
5, 207390, Note_on_c, 3, 65, 100
5, 207420, Note_on_c, 3, 65, 0
5, 207420, Note_on_c, 3, 64, 100
5, 207450, Note_on_c, 3, 64, 0
5, 207450, Note_on_c, 3, 65, 100
5, 207480, Note_on_c, 3, 65, 0
5, 207480, Note_on_c, 3, 64, 100
5, 207510, Note_on_c, 3, 64, 0
5, 207510, Note_on_c, 3, 65, 100
5, 207540, Note_on_c, 3, 65, 0
5, 207540, Note_on_c, 3, 64, 100
5, 207570, Note_on_c, 3, 64, 0
5, 207570, Note_on_c, 3, 65, 100
5, 207600, Note_on_c, 3, 65, 0
5, 207600, Note_on_c, 3, 64, 100
5, 207630, Note_on_c, 3, 64, 0
5, 207630, Note_on_c, 3, 65, 100
5, 207660, Note_on_c, 3, 65, 0
5, 207660, Note_on_c, 3, 62, 100
5, 207690, Note_on_c, 3, 62, 0
5, 207690, Note_on_c, 3, 64, 100
5, 207720, Note_on_c, 3, 64, 0
5, 207720, Note_on_c, 3, 65, 100
5, 207720, Note_on_c, 3, 57, 100
5, 207840, Note_on_c, 3, 57, 0
5, 207840, Note_on_c, 3, 65, 0
5, 207840, Note_on_c, 3, 60, 100
5, 207840, Note_on_c, 3, 57, 100
5, 207960, Note_on_c, 3, 57, 0
5, 207960, Note_on_c, 3, 60, 0
5, 207960, Note_on_c, 3, 53, 100
5, 207960, Note_on_c, 3, 57, 100
5, 208080, Note_on_c, 3, 57, 0
5, 208080, Note_on_c, 3, 53, 0
5, 208080, Note_on_c, 3, 58, 100
5, 208110, Note_on_c, 3, 58, 0
5, 208110, Note_on_c, 3, 60, 100
5, 208140, Note_on_c, 3, 60, 0
5, 208140, Note_on_c, 3, 58, 100
5, 208170, Note_on_c, 3, 58, 0
5, 208170, Note_on_c, 3, 60, 100
5, 208200, Note_on_c, 3, 60, 0
5, 208200, Note_on_c, 3, 58, 100
5, 208230, Note_on_c, 3, 58, 0
5, 208230, Note_on_c, 3, 60, 100
5, 208260, Note_on_c, 3, 60, 0
5, 208260, Note_on_c, 3, 58, 100
5, 208290, Note_on_c, 3, 58, 0
5, 208290, Note_on_c, 3, 60, 100
5, 208320, Note_on_c, 3, 60, 0
5, 208320, Note_on_c, 3, 58, 100
5, 208350, Note_on_c, 3, 58, 0
5, 208350, Note_on_c, 3, 60, 100
5, 208380, Note_on_c, 3, 60, 0
5, 208380, Note_on_c, 3, 57, 100
5, 208410, Note_on_c, 3, 57, 0
5, 208410, Note_on_c, 3, 58, 100
5, 208440, Note_on_c, 3, 58, 0
5, 208440, Note_on_c, 3, 57, 100
5, 208440, Note_on_c, 3, 53, 100
5, 208560, Note_on_c, 3, 53, 0
5, 208560, Note_on_c, 3, 57, 0
5, 208560, Note_on_c, 3, 60, 100
5, 208560, Note_on_c, 3, 57, 100
5, 208680, Note_on_c, 3, 57, 0
5, 208680, Note_on_c, 3, 60, 0
5, 208680, Note_on_c, 3, 65, 100
5, 208680, Note_on_c, 3, 53, 100
5, 208800, Note_on_c, 3, 53, 0
5, 208800, Note_on_c, 3, 65, 0
5, 208800, Note_on_c, 3, 64, 100
5, 208830, Note_on_c, 3, 64, 0
5, 208830, Note_on_c, 3, 65, 100
5, 208860, Note_on_c, 3, 65, 0
5, 208860, Note_on_c, 3, 64, 100
5, 208890, Note_on_c, 3, 64, 0
5, 208890, Note_on_c, 3, 65, 100
5, 208920, Note_on_c, 3, 65, 0
5, 208920, Note_on_c, 3, 64, 100
5, 208950, Note_on_c, 3, 64, 0
5, 208950, Note_on_c, 3, 65, 100
5, 208980, Note_on_c, 3, 65, 0
5, 208980, Note_on_c, 3, 64, 100
5, 209010, Note_on_c, 3, 64, 0
5, 209010, Note_on_c, 3, 65, 100
5, 209040, Note_on_c, 3, 65, 0
5, 209040, Note_on_c, 3, 64, 100
5, 209070, Note_on_c, 3, 64, 0
5, 209070, Note_on_c, 3, 65, 100
5, 209100, Note_on_c, 3, 65, 0
5, 209100, Note_on_c, 3, 62, 100
5, 209130, Note_on_c, 3, 62, 0
5, 209130, Note_on_c, 3, 64, 100
5, 209160, Note_on_c, 3, 64, 0
5, 209160, Note_on_c, 3, 65, 100
5, 209160, Note_on_c, 3, 57, 100
5, 209280, Note_on_c, 3, 57, 0
5, 209280, Note_on_c, 3, 65, 0
5, 209280, Note_on_c, 3, 60, 100
5, 209280, Note_on_c, 3, 57, 100
5, 209400, Note_on_c, 3, 57, 0
5, 209400, Note_on_c, 3, 60, 0
5, 209400, Note_on_c, 3, 53, 100
5, 209400, Note_on_c, 3, 57, 100
5, 209520, Note_on_c, 3, 57, 0
5, 209520, Note_on_c, 3, 53, 0
5, 209520, Note_on_c, 3, 64, 100
5, 209550, Note_on_c, 3, 64, 0
5, 209550, Note_on_c, 3, 65, 100
5, 209580, Note_on_c, 3, 65, 0
5, 209580, Note_on_c, 3, 64, 100
5, 209610, Note_on_c, 3, 64, 0
5, 209610, Note_on_c, 3, 65, 100
5, 209640, Note_on_c, 3, 65, 0
5, 209640, Note_on_c, 3, 64, 100
5, 209670, Note_on_c, 3, 64, 0
5, 209670, Note_on_c, 3, 65, 100
5, 209700, Note_on_c, 3, 65, 0
5, 209700, Note_on_c, 3, 64, 100
5, 209730, Note_on_c, 3, 64, 0
5, 209730, Note_on_c, 3, 65, 100
5, 209760, Note_on_c, 3, 65, 0
5, 209760, Note_on_c, 3, 64, 100
5, 209790, Note_on_c, 3, 64, 0
5, 209790, Note_on_c, 3, 65, 100
5, 209820, Note_on_c, 3, 65, 0
5, 209820, Note_on_c, 3, 62, 100
5, 209850, Note_on_c, 3, 62, 0
5, 209850, Note_on_c, 3, 64, 100
5, 209880, Note_on_c, 3, 64, 0
5, 209880, Note_on_c, 3, 65, 100
5, 209880, Note_on_c, 3, 57, 100
5, 210000, Note_on_c, 3, 57, 0
5, 210000, Note_on_c, 3, 65, 0
5, 210000, Note_on_c, 3, 60, 100
5, 210000, Note_on_c, 3, 57, 100
5, 210120, Note_on_c, 3, 57, 0
5, 210120, Note_on_c, 3, 60, 0
5, 210120, Note_on_c, 3, 53, 100
5, 210120, Note_on_c, 3, 57, 100
5, 210240, Note_on_c, 3, 57, 0
5, 210240, Note_on_c, 3, 53, 0
5, 210240, Note_on_c, 3, 64, 100
5, 210270, Note_on_c, 3, 64, 0
5, 210270, Note_on_c, 3, 65, 100
5, 210300, Note_on_c, 3, 65, 0
5, 210300, Note_on_c, 3, 64, 100
5, 210330, Note_on_c, 3, 64, 0
5, 210330, Note_on_c, 3, 65, 100
5, 210360, Note_on_c, 3, 65, 0
5, 210360, Note_on_c, 3, 64, 100
5, 210390, Note_on_c, 3, 64, 0
5, 210390, Note_on_c, 3, 65, 100
5, 210420, Note_on_c, 3, 65, 0
5, 210420, Note_on_c, 3, 64, 100
5, 210450, Note_on_c, 3, 64, 0
5, 210450, Note_on_c, 3, 65, 100
5, 210480, Note_on_c, 3, 65, 0
5, 210480, Note_on_c, 3, 64, 100
5, 210510, Note_on_c, 3, 64, 0
5, 210510, Note_on_c, 3, 65, 100
5, 210540, Note_on_c, 3, 65, 0
5, 210540, Note_on_c, 3, 62, 100
5, 210570, Note_on_c, 3, 62, 0
5, 210570, Note_on_c, 3, 64, 100
5, 210600, Note_on_c, 3, 64, 0
5, 210600, Note_on_c, 3, 65, 100
5, 210600, Note_on_c, 3, 57, 100
5, 210720, Note_on_c, 3, 57, 0
5, 210720, Note_on_c, 3, 65, 0
5, 210720, Note_on_c, 3, 60, 100
5, 210840, Note_on_c, 3, 60, 0
5, 210840, Note_on_c, 3, 57, 100
5, 210960, Note_on_c, 3, 57, 0
5, 210960, Note_on_c, 3, 53, 100
5, 211080, Note_on_c, 3, 53, 0
5, 211080, Note_on_c, 3, 60, 100
5, 211200, Note_on_c, 3, 60, 0
5, 211200, Note_on_c, 3, 57, 100
5, 211320, Note_on_c, 3, 57, 0
5, 211320, Note_on_c, 3, 53, 100
5, 211440, Note_on_c, 3, 53, 0
5, 211440, Note_on_c, 3, 48, 100
5, 211560, Note_on_c, 3, 48, 0
5, 211560, Note_on_c, 3, 41, 100
5, 211680, Note_on_c, 3, 41, 0
5, 211680, Note_on_c, 3, 41, 100
5, 211710, Note_on_c, 3, 41, 0
5, 211710, Note_on_c, 3, 45, 100
5, 211800, Note_on_c, 3, 45, 0
5, 211800, Note_on_c, 3, 41, 100
5, 211860, Note_on_c, 3, 41, 0
5, 213000, Note_on_c, 3, 41, 100
5, 213000, Note_on_c, 3, 53, 100
5, 213120, Note_on_c, 3, 53, 0
5, 213120, Note_on_c, 3, 41, 0
5, 213120, Note_on_c, 3, 41, 100
5, 213120, Note_on_c, 3, 53, 100
5, 213150, Note_on_c, 3, 53, 0
5, 213150, Note_on_c, 3, 41, 0
5, 213150, Note_on_c, 3, 45, 100
5, 213150, Note_on_c, 3, 57, 100
5, 213240, Note_on_c, 3, 57, 0
5, 213240, Note_on_c, 3, 45, 0
5, 213240, Note_on_c, 3, 41, 100
5, 213240, Note_on_c, 3, 53, 100
5, 213300, Note_on_c, 3, 53, 0
5, 213300, Note_on_c, 3, 41, 0
5, 213360, Note_on_c, 3, 41, 100
5, 213360, Note_on_c, 3, 53, 100
5, 213480, Note_on_c, 3, 53, 0
5, 213480, Note_on_c, 3, 41, 0
5, 213480, Note_on_c, 3, 41, 100
5, 213480, Note_on_c, 3, 53, 100
5, 213510, Note_on_c, 3, 53, 0
5, 213510, Note_on_c, 3, 41, 0
5, 213510, Note_on_c, 3, 45, 100
5, 213510, Note_on_c, 3, 57, 100
5, 213600, Note_on_c, 3, 57, 0
5, 213600, Note_on_c, 3, 45, 0
5, 213600, Note_on_c, 3, 41, 100
5, 213600, Note_on_c, 3, 53, 100
5, 213720, Note_on_c, 3, 53, 0
5, 213720, Note_on_c, 3, 41, 0
5, 213720, Note_on_c, 3, 41, 100
5, 213720, Note_on_c, 3, 53, 100
5, 213840, Note_on_c, 3, 53, 0
5, 213840, Note_on_c, 3, 41, 0
5, 213840, Note_on_c, 3, 41, 100
5, 213840, Note_on_c, 3, 53, 100
5, 213870, Note_on_c, 3, 53, 0
5, 213870, Note_on_c, 3, 41, 0
5, 213870, Note_on_c, 3, 45, 100
5, 213870, Note_on_c, 3, 57, 100
5, 213960, Note_on_c, 3, 57, 0
5, 213960, Note_on_c, 3, 45, 0
5, 213960, Note_on_c, 3, 41, 100
5, 213960, Note_on_c, 3, 53, 100
5, 214080, Note_on_c, 3, 53, 0
5, 214080, Note_on_c, 3, 41, 0
5, 214080, Note_on_c, 3, 41, 100
5, 214080, Note_on_c, 3, 53, 100
5, 214200, Note_on_c, 3, 53, 0
5, 214200, Note_on_c, 3, 41, 0
5, 214200, Note_on_c, 3, 41, 100
5, 214200, Note_on_c, 3, 53, 100
5, 214230, Note_on_c, 3, 53, 0
5, 214230, Note_on_c, 3, 41, 0
5, 214230, Note_on_c, 3, 45, 100
5, 214230, Note_on_c, 3, 57, 100
5, 214320, Note_on_c, 3, 57, 0
5, 214320, Note_on_c, 3, 45, 0
5, 214320, Note_on_c, 3, 41, 100
5, 214320, Note_on_c, 3, 53, 100
5, 214440, Note_on_c, 3, 53, 0
5, 214440, Note_on_c, 3, 41, 0
5, 214440, Note_on_c, 3, 41, 100
5, 214440, Note_on_c, 3, 53, 100
5, 214560, Note_on_c, 3, 53, 0
5, 214560, Note_on_c, 3, 41, 0
5, 214560, Note_on_c, 3, 45, 100
5, 214560, Note_on_c, 3, 57, 100
5, 216000, Note_on_c, 3, 57, 0
5, 216000, Note_on_c, 3, 45, 0
5, 216000, Note_on_c, 3, 50, 100
5, 216000, Note_on_c, 3, 57, 100
5, 216300, Note_on_c, 3, 50, 0
5, 216300, Note_on_c, 3, 45, 100
5, 216360, Note_on_c, 3, 45, 0
5, 216360, Note_on_c, 3, 50, 100
5, 216480, Note_on_c, 3, 50, 0
5, 216480, Note_on_c, 3, 57, 0
5, 216720, Note_on_c, 3, 50, 100
5, 216720, Note_on_c, 3, 57, 100
5, 217020, Note_on_c, 3, 50, 0
5, 217020, Note_on_c, 3, 45, 100
5, 217080, Note_on_c, 3, 45, 0
5, 217080, Note_on_c, 3, 50, 100
5, 217200, Note_on_c, 3, 50, 0
5, 217200, Note_on_c, 3, 57, 0
5, 217440, Note_on_c, 3, 57, 100
5, 217440, Note_on_c, 3, 50, 100
5, 217680, Note_on_c, 3, 50, 0
5, 217680, Note_on_c, 3, 49, 100
5, 217800, Note_on_c, 3, 49, 0
5, 217800, Note_on_c, 3, 50, 100
5, 217920, Note_on_c, 3, 50, 0
5, 217920, Note_on_c, 3, 49, 100
5, 218040, Note_on_c, 3, 49, 0
5, 218040, Note_on_c, 3, 50, 100
5, 218160, Note_on_c, 3, 50, 0
5, 218160, Note_on_c, 3, 57, 0
5, 218160, Note_on_c, 3, 57, 100
5, 218160, Note_on_c, 3, 45, 100
5, 218280, Note_on_c, 3, 45, 0
5, 218280, Note_on_c, 3, 57, 0
5, 218880, Note_on_c, 3, 57, 100
5, 218880, Note_on_c, 3, 45, 100
5, 219360, Note_on_c, 3, 45, 0
5, 219360, Note_on_c, 3, 57, 0
5, 219600, Note_on_c, 3, 45, 100
5, 219600, Note_on_c, 3, 57, 100
5, 220080, Note_on_c, 3, 57, 0
5, 220080, Note_on_c, 3, 45, 0
5, 220320, Note_on_c, 3, 45, 100
5, 220320, Note_on_c, 3, 57, 100
5, 220440, Note_on_c, 3, 57, 0
5, 220440, Note_on_c, 3, 55, 100
5, 220560, Note_on_c, 3, 55, 0
5, 220560, Note_on_c, 3, 45, 0
5, 220560, Note_on_c, 3, 50, 100
5, 220560, Note_on_c, 3, 54, 100
5, 220680, Note_on_c, 3, 54, 0
5, 220680, Note_on_c, 3, 50, 0
5, 220680, Note_on_c, 3, 50, 100
5, 220680, Note_on_c, 3, 54, 100
5, 220800, Note_on_c, 3, 54, 0
5, 220800, Note_on_c, 3, 50, 0
5, 220800, Note_on_c, 3, 45, 100
5, 220800, Note_on_c, 3, 52, 100
5, 220920, Note_on_c, 3, 52, 0
5, 220920, Note_on_c, 3, 45, 0
5, 220920, Note_on_c, 3, 45, 100
5, 220920, Note_on_c, 3, 52, 100
5, 221040, Note_on_c, 3, 52, 0
5, 221040, Note_on_c, 3, 45, 0
5, 221040, Note_on_c, 3, 50, 100
5, 221040, Note_on_c, 3, 54, 100
5, 221160, Note_on_c, 3, 54, 0
5, 221160, Note_on_c, 3, 50, 0
5, 221760, Note_on_c, 3, 57, 100
5, 221760, Note_on_c, 3, 50, 100
5, 222060, Note_on_c, 3, 50, 0
5, 222060, Note_on_c, 3, 45, 100
5, 222120, Note_on_c, 3, 45, 0
5, 222120, Note_on_c, 3, 50, 100
5, 222240, Note_on_c, 3, 50, 0
5, 222240, Note_on_c, 3, 57, 0
5, 222480, Note_on_c, 3, 57, 100
5, 222480, Note_on_c, 3, 50, 100
5, 222780, Note_on_c, 3, 50, 0
5, 222780, Note_on_c, 3, 45, 100
5, 222840, Note_on_c, 3, 45, 0
5, 222840, Note_on_c, 3, 50, 100
5, 222960, Note_on_c, 3, 50, 0
5, 222960, Note_on_c, 3, 57, 0
5, 223200, Note_on_c, 3, 57, 100
5, 223200, Note_on_c, 3, 50, 100
5, 223440, Note_on_c, 3, 50, 0
5, 223440, Note_on_c, 3, 49, 100
5, 223560, Note_on_c, 3, 49, 0
5, 223560, Note_on_c, 3, 50, 100
5, 223680, Note_on_c, 3, 50, 0
5, 223680, Note_on_c, 3, 57, 0
5, 223680, Note_on_c, 3, 57, 100
5, 223680, Note_on_c, 3, 49, 100
5, 223800, Note_on_c, 3, 49, 0
5, 223800, Note_on_c, 3, 57, 0
5, 223800, Note_on_c, 3, 57, 100
5, 223800, Note_on_c, 3, 50, 100
5, 223920, Note_on_c, 3, 50, 0
5, 223920, Note_on_c, 3, 57, 0
5, 223920, Note_on_c, 3, 57, 100
5, 223920, Note_on_c, 3, 45, 100
5, 224040, Note_on_c, 3, 45, 0
5, 224040, Note_on_c, 3, 57, 0
5, 224640, Note_on_c, 3, 45, 100
5, 224640, Note_on_c, 3, 57, 100
5, 225120, Note_on_c, 3, 57, 0
5, 225120, Note_on_c, 3, 45, 0
5, 225360, Note_on_c, 3, 45, 100
5, 225360, Note_on_c, 3, 57, 100
5, 225840, Note_on_c, 3, 57, 0
5, 225840, Note_on_c, 3, 45, 0
5, 226080, Note_on_c, 3, 45, 100
5, 226080, Note_on_c, 3, 57, 100
5, 226200, Note_on_c, 3, 57, 0
5, 226200, Note_on_c, 3, 55, 100
5, 226320, Note_on_c, 3, 55, 0
5, 226320, Note_on_c, 3, 45, 0
5, 226320, Note_on_c, 3, 50, 100
5, 226320, Note_on_c, 3, 54, 100
5, 226440, Note_on_c, 3, 54, 0
5, 226440, Note_on_c, 3, 50, 0
5, 226440, Note_on_c, 3, 50, 100
5, 226440, Note_on_c, 3, 54, 100
5, 226560, Note_on_c, 3, 54, 0
5, 226560, Note_on_c, 3, 50, 0
5, 226560, Note_on_c, 3, 45, 100
5, 226560, Note_on_c, 3, 52, 100
5, 226680, Note_on_c, 3, 52, 0
5, 226680, Note_on_c, 3, 45, 0
5, 226680, Note_on_c, 3, 45, 100
5, 226680, Note_on_c, 3, 52, 100
5, 226800, Note_on_c, 3, 52, 0
5, 226800, Note_on_c, 3, 45, 0
5, 226800, Note_on_c, 3, 50, 100
5, 226800, Note_on_c, 3, 54, 100
5, 226920, Note_on_c, 3, 54, 0
5, 226920, Note_on_c, 3, 50, 0
5, 227520, Note_on_c, 3, 54, 100
5, 227520, Note_on_c, 3, 57, 100
5, 228120, Note_on_c, 3, 57, 0
5, 228120, Note_on_c, 3, 54, 0
5, 228120, Note_on_c, 3, 55, 100
5, 228120, Note_on_c, 3, 59, 100
5, 228240, Note_on_c, 3, 59, 0
5, 228240, Note_on_c, 3, 55, 0
5, 228240, Note_on_c, 3, 52, 100
5, 228240, Note_on_c, 3, 55, 100
5, 228840, Note_on_c, 3, 55, 0
5, 228840, Note_on_c, 3, 52, 0
5, 228840, Note_on_c, 3, 54, 100
5, 228840, Note_on_c, 3, 57, 100
5, 228960, Note_on_c, 3, 57, 0
5, 228960, Note_on_c, 3, 54, 0
5, 228960, Note_on_c, 3, 50, 100
5, 228960, Note_on_c, 3, 54, 100
5, 229320, Note_on_c, 3, 54, 0
5, 229320, Note_on_c, 3, 50, 0
5, 229320, Note_on_c, 3, 52, 100
5, 229320, Note_on_c, 3, 55, 100
5, 229350, Note_on_c, 3, 55, 0
5, 229350, Note_on_c, 3, 52, 0
5, 229350, Note_on_c, 3, 50, 100
5, 229350, Note_on_c, 3, 54, 100
5, 229380, Note_on_c, 3, 54, 0
5, 229380, Note_on_c, 3, 50, 0
5, 229380, Note_on_c, 3, 49, 100
5, 229380, Note_on_c, 3, 52, 100
5, 229410, Note_on_c, 3, 52, 0
5, 229410, Note_on_c, 3, 49, 0
5, 229410, Note_on_c, 3, 50, 100
5, 229410, Note_on_c, 3, 54, 100
5, 229440, Note_on_c, 3, 54, 0
5, 229440, Note_on_c, 3, 50, 0
5, 229440, Note_on_c, 3, 57, 100
5, 229440, Note_on_c, 3, 54, 100
5, 229560, Note_on_c, 3, 54, 0
5, 229560, Note_on_c, 3, 57, 0
5, 229560, Note_on_c, 3, 52, 100
5, 229560, Note_on_c, 3, 55, 100
5, 229680, Note_on_c, 3, 55, 0
5, 229680, Note_on_c, 3, 52, 0
5, 229680, Note_on_c, 3, 50, 100
5, 229680, Note_on_c, 3, 54, 100
5, 230040, Note_on_c, 3, 54, 0
5, 230040, Note_on_c, 3, 50, 0
5, 230040, Note_on_c, 3, 49, 100
5, 230040, Note_on_c, 3, 52, 100
5, 230160, Note_on_c, 3, 52, 0
5, 230160, Note_on_c, 3, 49, 0
5, 230400, Note_on_c, 3, 54, 100
5, 230400, Note_on_c, 3, 57, 100
5, 230880, Note_on_c, 3, 57, 0
5, 230880, Note_on_c, 3, 54, 0
5, 230880, Note_on_c, 3, 57, 100
5, 230880, Note_on_c, 3, 61, 100
5, 231000, Note_on_c, 3, 61, 0
5, 231000, Note_on_c, 3, 57, 0
5, 231000, Note_on_c, 3, 59, 100
5, 231000, Note_on_c, 3, 55, 100
5, 231120, Note_on_c, 3, 55, 0
5, 231120, Note_on_c, 3, 59, 0
5, 231120, Note_on_c, 3, 54, 100
5, 231120, Note_on_c, 3, 57, 100
5, 231360, Note_on_c, 3, 57, 0
5, 231360, Note_on_c, 3, 54, 0
5, 231360, Note_on_c, 3, 52, 100
5, 231360, Note_on_c, 3, 55, 100
5, 231600, Note_on_c, 3, 55, 0
5, 231600, Note_on_c, 3, 52, 0
5, 231600, Note_on_c, 3, 55, 100
5, 231600, Note_on_c, 3, 59, 100
5, 231720, Note_on_c, 3, 59, 0
5, 231720, Note_on_c, 3, 55, 0
5, 231720, Note_on_c, 3, 54, 100
5, 231720, Note_on_c, 3, 57, 100
5, 231840, Note_on_c, 3, 57, 0
5, 231840, Note_on_c, 3, 54, 0
5, 231840, Note_on_c, 3, 52, 100
5, 231840, Note_on_c, 3, 55, 100
5, 231960, Note_on_c, 3, 55, 0
5, 231960, Note_on_c, 3, 52, 0
5, 231960, Note_on_c, 3, 50, 100
5, 231960, Note_on_c, 3, 54, 100
5, 232080, Note_on_c, 3, 54, 0
5, 232080, Note_on_c, 3, 50, 0
5, 232080, Note_on_c, 3, 57, 100
5, 232080, Note_on_c, 3, 54, 100
5, 232200, Note_on_c, 3, 54, 0
5, 232200, Note_on_c, 3, 57, 0
5, 232200, Note_on_c, 3, 62, 100
5, 232200, Note_on_c, 3, 54, 100
5, 232320, Note_on_c, 3, 54, 0
5, 232320, Note_on_c, 3, 62, 0
5, 232320, Note_on_c, 3, 57, 100
5, 232320, Note_on_c, 3, 54, 100
5, 232440, Note_on_c, 3, 54, 0
5, 232440, Note_on_c, 3, 57, 0
5, 232440, Note_on_c, 3, 50, 100
5, 232440, Note_on_c, 3, 54, 100
5, 232560, Note_on_c, 3, 54, 0
5, 232560, Note_on_c, 3, 50, 0
5, 232560, Note_on_c, 3, 52, 100
5, 232560, Note_on_c, 3, 49, 100
5, 233040, Note_on_c, 3, 49, 0
5, 233040, Note_on_c, 3, 52, 0
5, 233040, Note_on_c, 3, 54, 100
5, 233040, Note_on_c, 3, 57, 100
5, 233160, Note_on_c, 3, 57, 0
5, 233160, Note_on_c, 3, 54, 0
5, 233160, Note_on_c, 3, 50, 100
5, 233160, Note_on_c, 3, 54, 100
5, 233280, Note_on_c, 3, 54, 0
5, 233280, Note_on_c, 3, 50, 0
5, 233280, Note_on_c, 3, 49, 100
5, 233280, Note_on_c, 3, 52, 100
5, 233760, Note_on_c, 3, 52, 0
5, 233760, Note_on_c, 3, 49, 0
5, 233760, Note_on_c, 3, 54, 100
5, 233760, Note_on_c, 3, 57, 100
5, 233880, Note_on_c, 3, 57, 0
5, 233880, Note_on_c, 3, 54, 0
5, 233880, Note_on_c, 3, 50, 100
5, 233880, Note_on_c, 3, 54, 100
5, 234000, Note_on_c, 3, 54, 0
5, 234000, Note_on_c, 3, 50, 0
5, 234000, Note_on_c, 3, 52, 100
5, 234000, Note_on_c, 3, 49, 100
5, 234120, Note_on_c, 3, 49, 0
5, 234120, Note_on_c, 3, 52, 0
5, 234840, Note_on_c, 3, 63, 100
5, 234840, Note_on_c, 3, 66, 100
5, 235080, Note_on_c, 3, 66, 0
5, 235080, Note_on_c, 3, 63, 0
5, 235080, Note_on_c, 3, 63, 100
5, 235080, Note_on_c, 3, 66, 100
5, 235320, Note_on_c, 3, 66, 0
5, 235320, Note_on_c, 3, 63, 0
5, 235320, Note_on_c, 3, 63, 100
5, 235320, Note_on_c, 3, 66, 100
5, 235440, Note_on_c, 3, 66, 0
5, 235440, Note_on_c, 3, 63, 0
5, 235560, Note_on_c, 3, 67, 100
5, 235560, Note_on_c, 3, 64, 100
5, 235800, Note_on_c, 3, 64, 0
5, 235800, Note_on_c, 3, 67, 0
5, 235800, Note_on_c, 3, 67, 100
5, 235800, Note_on_c, 3, 64, 100
5, 236040, Note_on_c, 3, 64, 0
5, 236040, Note_on_c, 3, 67, 0
5, 236040, Note_on_c, 3, 64, 100
5, 236040, Note_on_c, 3, 67, 100
5, 236160, Note_on_c, 3, 67, 0
5, 236160, Note_on_c, 3, 64, 0
5, 236280, Note_on_c, 3, 67, 100
5, 236280, Note_on_c, 3, 64, 100
5, 236520, Note_on_c, 3, 64, 0
5, 236520, Note_on_c, 3, 67, 0
5, 236520, Note_on_c, 3, 67, 100
5, 236520, Note_on_c, 3, 64, 100
5, 236760, Note_on_c, 3, 64, 0
5, 236760, Note_on_c, 3, 67, 0
5, 236760, Note_on_c, 3, 55, 100
5, 236760, Note_on_c, 3, 64, 100
5, 236880, Note_on_c, 3, 64, 0
5, 236880, Note_on_c, 3, 55, 0
5, 236880, Note_on_c, 3, 54, 100
5, 236880, Note_on_c, 3, 62, 100
5, 237180, Note_on_c, 3, 62, 0
5, 237180, Note_on_c, 3, 54, 0
5, 237180, Note_on_c, 3, 52, 100
5, 237180, Note_on_c, 3, 61, 100
5, 237240, Note_on_c, 3, 61, 0
5, 237240, Note_on_c, 3, 52, 0
5, 237240, Note_on_c, 3, 62, 100
5, 237240, Note_on_c, 3, 54, 100
5, 237360, Note_on_c, 3, 54, 0
5, 237360, Note_on_c, 3, 62, 0
5, 237600, Note_on_c, 3, 54, 100
5, 237600, Note_on_c, 3, 62, 100
5, 237900, Note_on_c, 3, 62, 0
5, 237900, Note_on_c, 3, 54, 0
5, 237900, Note_on_c, 3, 52, 100
5, 237900, Note_on_c, 3, 61, 100
5, 237960, Note_on_c, 3, 61, 0
5, 237960, Note_on_c, 3, 52, 0
5, 237960, Note_on_c, 3, 54, 100
5, 237960, Note_on_c, 3, 62, 100
5, 238080, Note_on_c, 3, 62, 0
5, 238080, Note_on_c, 3, 54, 0
5, 238320, Note_on_c, 3, 54, 100
5, 238320, Note_on_c, 3, 62, 100
5, 238560, Note_on_c, 3, 62, 0
5, 238560, Note_on_c, 3, 54, 0
5, 238560, Note_on_c, 3, 64, 100
5, 238560, Note_on_c, 3, 61, 100
5, 238680, Note_on_c, 3, 61, 0
5, 238680, Note_on_c, 3, 64, 0
5, 238680, Note_on_c, 3, 66, 100
5, 238680, Note_on_c, 3, 62, 100
5, 238800, Note_on_c, 3, 62, 0
5, 238800, Note_on_c, 3, 66, 0
5, 238800, Note_on_c, 3, 67, 100
5, 238800, Note_on_c, 3, 64, 100
5, 238920, Note_on_c, 3, 64, 0
5, 238920, Note_on_c, 3, 67, 0
5, 238920, Note_on_c, 3, 62, 100
5, 238920, Note_on_c, 3, 66, 100
5, 239040, Note_on_c, 3, 66, 0
5, 239040, Note_on_c, 3, 62, 0
5, 239040, Note_on_c, 3, 64, 100
5, 239040, Note_on_c, 3, 61, 100
5, 239160, Note_on_c, 3, 61, 0
5, 239160, Note_on_c, 3, 64, 0
5, 239760, Note_on_c, 3, 64, 100
5, 240060, Note_on_c, 3, 64, 0
5, 240060, Note_on_c, 3, 63, 100
5, 240120, Note_on_c, 3, 63, 0
5, 240120, Note_on_c, 3, 64, 100
5, 240240, Note_on_c, 3, 64, 0
5, 240480, Note_on_c, 3, 64, 100
5, 240780, Note_on_c, 3, 64, 0
5, 240780, Note_on_c, 3, 63, 100
5, 240840, Note_on_c, 3, 63, 0
5, 240840, Note_on_c, 3, 64, 100
5, 240960, Note_on_c, 3, 64, 0
5, 241200, Note_on_c, 3, 64, 100
5, 241440, Note_on_c, 3, 64, 0
5, 241440, Note_on_c, 3, 62, 100
5, 241560, Note_on_c, 3, 62, 0
5, 241560, Note_on_c, 3, 66, 100
5, 241680, Note_on_c, 3, 66, 0
5, 241680, Note_on_c, 3, 64, 100
5, 241800, Note_on_c, 3, 64, 0
5, 241800, Note_on_c, 3, 57, 100
5, 241920, Note_on_c, 3, 57, 0
5, 241920, Note_on_c, 3, 54, 100
5, 242040, Note_on_c, 3, 54, 0
5, 242640, Note_on_c, 3, 54, 100
5, 242640, Note_on_c, 3, 57, 100
5, 243240, Note_on_c, 3, 57, 0
5, 243240, Note_on_c, 3, 54, 0
5, 243240, Note_on_c, 3, 55, 100
5, 243240, Note_on_c, 3, 59, 100
5, 243360, Note_on_c, 3, 59, 0
5, 243360, Note_on_c, 3, 55, 0
5, 243360, Note_on_c, 3, 52, 100
5, 243360, Note_on_c, 3, 55, 100
5, 243960, Note_on_c, 3, 55, 0
5, 243960, Note_on_c, 3, 52, 0
5, 243960, Note_on_c, 3, 54, 100
5, 243960, Note_on_c, 3, 57, 100
5, 244080, Note_on_c, 3, 57, 0
5, 244080, Note_on_c, 3, 54, 0
5, 244080, Note_on_c, 3, 50, 100
5, 244080, Note_on_c, 3, 54, 100
5, 244440, Note_on_c, 3, 54, 0
5, 244440, Note_on_c, 3, 50, 0
5, 244440, Note_on_c, 3, 52, 100
5, 244440, Note_on_c, 3, 55, 100
5, 244470, Note_on_c, 3, 55, 0
5, 244470, Note_on_c, 3, 52, 0
5, 244470, Note_on_c, 3, 50, 100
5, 244470, Note_on_c, 3, 54, 100
5, 244500, Note_on_c, 3, 54, 0
5, 244500, Note_on_c, 3, 50, 0
5, 244500, Note_on_c, 3, 49, 100
5, 244500, Note_on_c, 3, 52, 100
5, 244530, Note_on_c, 3, 52, 0
5, 244530, Note_on_c, 3, 49, 0
5, 244530, Note_on_c, 3, 50, 100
5, 244530, Note_on_c, 3, 54, 100
5, 244560, Note_on_c, 3, 54, 0
5, 244560, Note_on_c, 3, 50, 0
5, 244560, Note_on_c, 3, 57, 100
5, 244560, Note_on_c, 3, 54, 100
5, 244680, Note_on_c, 3, 54, 0
5, 244680, Note_on_c, 3, 57, 0
5, 244680, Note_on_c, 3, 52, 100
5, 244680, Note_on_c, 3, 55, 100
5, 244800, Note_on_c, 3, 55, 0
5, 244800, Note_on_c, 3, 52, 0
5, 244800, Note_on_c, 3, 50, 100
5, 244800, Note_on_c, 3, 54, 100
5, 245160, Note_on_c, 3, 54, 0
5, 245160, Note_on_c, 3, 50, 0
5, 245160, Note_on_c, 3, 49, 100
5, 245160, Note_on_c, 3, 52, 100
5, 245280, Note_on_c, 3, 52, 0
5, 245280, Note_on_c, 3, 49, 0
5, 245520, Note_on_c, 3, 54, 100
5, 245520, Note_on_c, 3, 57, 100
5, 246000, Note_on_c, 3, 57, 0
5, 246000, Note_on_c, 3, 54, 0
5, 246000, Note_on_c, 3, 57, 100
5, 246000, Note_on_c, 3, 61, 100
5, 246120, Note_on_c, 3, 61, 0
5, 246120, Note_on_c, 3, 57, 0
5, 246120, Note_on_c, 3, 59, 100
5, 246120, Note_on_c, 3, 55, 100
5, 246240, Note_on_c, 3, 55, 0
5, 246240, Note_on_c, 3, 59, 0
5, 246240, Note_on_c, 3, 54, 100
5, 246240, Note_on_c, 3, 57, 100
5, 246480, Note_on_c, 3, 57, 0
5, 246480, Note_on_c, 3, 54, 0
5, 246480, Note_on_c, 3, 52, 100
5, 246480, Note_on_c, 3, 55, 100
5, 246720, Note_on_c, 3, 55, 0
5, 246720, Note_on_c, 3, 52, 0
5, 246720, Note_on_c, 3, 55, 100
5, 246720, Note_on_c, 3, 59, 100
5, 246840, Note_on_c, 3, 59, 0
5, 246840, Note_on_c, 3, 55, 0
5, 246840, Note_on_c, 3, 54, 100
5, 246840, Note_on_c, 3, 57, 100
5, 246960, Note_on_c, 3, 57, 0
5, 246960, Note_on_c, 3, 54, 0
5, 246960, Note_on_c, 3, 52, 100
5, 246960, Note_on_c, 3, 55, 100
5, 247080, Note_on_c, 3, 55, 0
5, 247080, Note_on_c, 3, 52, 0
5, 247080, Note_on_c, 3, 50, 100
5, 247080, Note_on_c, 3, 54, 100
5, 247200, Note_on_c, 3, 54, 0
5, 247200, Note_on_c, 3, 50, 0
5, 247200, Note_on_c, 3, 57, 100
5, 247200, Note_on_c, 3, 54, 100
5, 247320, Note_on_c, 3, 54, 0
5, 247320, Note_on_c, 3, 57, 0
5, 247320, Note_on_c, 3, 62, 100
5, 247320, Note_on_c, 3, 54, 100
5, 247440, Note_on_c, 3, 54, 0
5, 247440, Note_on_c, 3, 62, 0
5, 247440, Note_on_c, 3, 57, 100
5, 247440, Note_on_c, 3, 54, 100
5, 247560, Note_on_c, 3, 54, 0
5, 247560, Note_on_c, 3, 57, 0
5, 247560, Note_on_c, 3, 50, 100
5, 247560, Note_on_c, 3, 54, 100
5, 247680, Note_on_c, 3, 54, 0
5, 247680, Note_on_c, 3, 50, 0
5, 247680, Note_on_c, 3, 52, 100
5, 247680, Note_on_c, 3, 49, 100
5, 248160, Note_on_c, 3, 49, 0
5, 248160, Note_on_c, 3, 52, 0
5, 248160, Note_on_c, 3, 54, 100
5, 248160, Note_on_c, 3, 57, 100
5, 248280, Note_on_c, 3, 57, 0
5, 248280, Note_on_c, 3, 54, 0
5, 248280, Note_on_c, 3, 50, 100
5, 248280, Note_on_c, 3, 54, 100
5, 248400, Note_on_c, 3, 54, 0
5, 248400, Note_on_c, 3, 50, 0
5, 248400, Note_on_c, 3, 49, 100
5, 248400, Note_on_c, 3, 52, 100
5, 248880, Note_on_c, 3, 52, 0
5, 248880, Note_on_c, 3, 49, 0
5, 248880, Note_on_c, 3, 54, 100
5, 248880, Note_on_c, 3, 57, 100
5, 249000, Note_on_c, 3, 57, 0
5, 249000, Note_on_c, 3, 54, 0
5, 249000, Note_on_c, 3, 50, 100
5, 249000, Note_on_c, 3, 54, 100
5, 249120, Note_on_c, 3, 54, 0
5, 249120, Note_on_c, 3, 50, 0
5, 249120, Note_on_c, 3, 52, 100
5, 249120, Note_on_c, 3, 49, 100
5, 249240, Note_on_c, 3, 49, 0
5, 249240, Note_on_c, 3, 52, 0
5, 249960, Note_on_c, 3, 63, 100
5, 249960, Note_on_c, 3, 66, 100
5, 250200, Note_on_c, 3, 66, 0
5, 250200, Note_on_c, 3, 63, 0
5, 250200, Note_on_c, 3, 63, 100
5, 250200, Note_on_c, 3, 66, 100
5, 250440, Note_on_c, 3, 66, 0
5, 250440, Note_on_c, 3, 63, 0
5, 250440, Note_on_c, 3, 63, 100
5, 250440, Note_on_c, 3, 66, 100
5, 250560, Note_on_c, 3, 66, 0
5, 250560, Note_on_c, 3, 63, 0
5, 250680, Note_on_c, 3, 67, 100
5, 250680, Note_on_c, 3, 64, 100
5, 250920, Note_on_c, 3, 64, 0
5, 250920, Note_on_c, 3, 67, 0
5, 250920, Note_on_c, 3, 67, 100
5, 250920, Note_on_c, 3, 64, 100
5, 251160, Note_on_c, 3, 64, 0
5, 251160, Note_on_c, 3, 67, 0
5, 251160, Note_on_c, 3, 64, 100
5, 251160, Note_on_c, 3, 67, 100
5, 251280, Note_on_c, 3, 67, 0
5, 251280, Note_on_c, 3, 64, 0
5, 251400, Note_on_c, 3, 67, 100
5, 251400, Note_on_c, 3, 64, 100
5, 251640, Note_on_c, 3, 64, 0
5, 251640, Note_on_c, 3, 67, 0
5, 251640, Note_on_c, 3, 67, 100
5, 251640, Note_on_c, 3, 64, 100
5, 251880, Note_on_c, 3, 64, 0
5, 251880, Note_on_c, 3, 67, 0
5, 251880, Note_on_c, 3, 55, 100
5, 251880, Note_on_c, 3, 64, 100
5, 252000, Note_on_c, 3, 64, 0
5, 252000, Note_on_c, 3, 55, 0
5, 252000, Note_on_c, 3, 54, 100
5, 252000, Note_on_c, 3, 62, 100
5, 252300, Note_on_c, 3, 62, 0
5, 252300, Note_on_c, 3, 54, 0
5, 252300, Note_on_c, 3, 52, 100
5, 252300, Note_on_c, 3, 61, 100
5, 252360, Note_on_c, 3, 61, 0
5, 252360, Note_on_c, 3, 52, 0
5, 252360, Note_on_c, 3, 62, 100
5, 252360, Note_on_c, 3, 54, 100
5, 252480, Note_on_c, 3, 54, 0
5, 252480, Note_on_c, 3, 62, 0
5, 252720, Note_on_c, 3, 54, 100
5, 252720, Note_on_c, 3, 62, 100
5, 253020, Note_on_c, 3, 62, 0
5, 253020, Note_on_c, 3, 54, 0
5, 253020, Note_on_c, 3, 52, 100
5, 253020, Note_on_c, 3, 61, 100
5, 253080, Note_on_c, 3, 61, 0
5, 253080, Note_on_c, 3, 52, 0
5, 253080, Note_on_c, 3, 54, 100
5, 253080, Note_on_c, 3, 62, 100
5, 253200, Note_on_c, 3, 62, 0
5, 253200, Note_on_c, 3, 54, 0
5, 253440, Note_on_c, 3, 54, 100
5, 253440, Note_on_c, 3, 62, 100
5, 253680, Note_on_c, 3, 62, 0
5, 253680, Note_on_c, 3, 54, 0
5, 253680, Note_on_c, 3, 64, 100
5, 253680, Note_on_c, 3, 61, 100
5, 253800, Note_on_c, 3, 61, 0
5, 253800, Note_on_c, 3, 64, 0
5, 253800, Note_on_c, 3, 66, 100
5, 253800, Note_on_c, 3, 62, 100
5, 253920, Note_on_c, 3, 62, 0
5, 253920, Note_on_c, 3, 66, 0
5, 253920, Note_on_c, 3, 67, 100
5, 253920, Note_on_c, 3, 64, 100
5, 254040, Note_on_c, 3, 64, 0
5, 254040, Note_on_c, 3, 67, 0
5, 254040, Note_on_c, 3, 62, 100
5, 254040, Note_on_c, 3, 66, 100
5, 254160, Note_on_c, 3, 66, 0
5, 254160, Note_on_c, 3, 62, 0
5, 254160, Note_on_c, 3, 64, 100
5, 254160, Note_on_c, 3, 61, 100
5, 254280, Note_on_c, 3, 61, 0
5, 254280, Note_on_c, 3, 64, 0
5, 254880, Note_on_c, 3, 64, 100
5, 255180, Note_on_c, 3, 64, 0
5, 255180, Note_on_c, 3, 63, 100
5, 255240, Note_on_c, 3, 63, 0
5, 255240, Note_on_c, 3, 64, 100
5, 255360, Note_on_c, 3, 64, 0
5, 255600, Note_on_c, 3, 64, 100
5, 255900, Note_on_c, 3, 64, 0
5, 255900, Note_on_c, 3, 63, 100
5, 255960, Note_on_c, 3, 63, 0
5, 255960, Note_on_c, 3, 64, 100
5, 256080, Note_on_c, 3, 64, 0
5, 256320, Note_on_c, 3, 64, 100
5, 256560, Note_on_c, 3, 64, 0
5, 256560, Note_on_c, 3, 62, 100
5, 256680, Note_on_c, 3, 62, 0
5, 256680, Note_on_c, 3, 66, 100
5, 256800, Note_on_c, 3, 66, 0
5, 256800, Note_on_c, 3, 64, 100
5, 256920, Note_on_c, 3, 64, 0
5, 256920, Note_on_c, 3, 57, 100
5, 257040, Note_on_c, 3, 57, 0
5, 257040, Note_on_c, 3, 54, 100
5, 257160, Note_on_c, 3, 54, 0
5, 262680, Note_on_c, 3, 41, 100
5, 262680, Note_on_c, 3, 53, 100
5, 262800, Note_on_c, 3, 53, 0
5, 262800, Note_on_c, 3, 41, 0
5, 262800, Note_on_c, 3, 53, 100
5, 262800, Note_on_c, 3, 41, 100
5, 262830, Note_on_c, 3, 53, 0
5, 262830, Note_on_c, 3, 57, 100
5, 262920, Note_on_c, 3, 57, 0
5, 262920, Note_on_c, 3, 41, 0
5, 262920, Note_on_c, 3, 53, 100
5, 262980, Note_on_c, 3, 53, 0
5, 263040, Note_on_c, 3, 53, 100
5, 263040, Note_on_c, 3, 57, 100
5, 263160, Note_on_c, 3, 57, 0
5, 263160, Note_on_c, 3, 53, 0
5, 263160, Note_on_c, 3, 53, 100
5, 263160, Note_on_c, 3, 57, 100
5, 263190, Note_on_c, 3, 57, 0
5, 263190, Note_on_c, 3, 53, 0
5, 263190, Note_on_c, 3, 60, 100
5, 263190, Note_on_c, 3, 57, 100
5, 263280, Note_on_c, 3, 57, 0
5, 263280, Note_on_c, 3, 60, 0
5, 263280, Note_on_c, 3, 53, 100
5, 263280, Note_on_c, 3, 57, 100
5, 263340, Note_on_c, 3, 57, 0
5, 263340, Note_on_c, 3, 53, 0
5, 263400, Note_on_c, 3, 57, 100
5, 263400, Note_on_c, 3, 60, 100
5, 263520, Note_on_c, 3, 60, 0
5, 263520, Note_on_c, 3, 57, 0
5, 263520, Note_on_c, 3, 65, 100
5, 263520, Note_on_c, 3, 57, 100
5, 263640, Note_on_c, 3, 57, 0
5, 263640, Note_on_c, 3, 65, 0
5, 263640, Note_on_c, 3, 65, 100
5, 263640, Note_on_c, 3, 57, 100
5, 263760, Note_on_c, 3, 57, 0
5, 263760, Note_on_c, 3, 65, 0
5, 263760, Note_on_c, 3, 64, 100
5, 263760, Note_on_c, 3, 60, 100
5, 263880, Note_on_c, 3, 60, 0
5, 263880, Note_on_c, 3, 64, 0
5, 263880, Note_on_c, 3, 58, 100
5, 263880, Note_on_c, 3, 62, 100
5, 264000, Note_on_c, 3, 62, 0
5, 264000, Note_on_c, 3, 58, 0
5, 264000, Note_on_c, 3, 58, 100
5, 264000, Note_on_c, 3, 62, 100
5, 264120, Note_on_c, 3, 62, 0
5, 264120, Note_on_c, 3, 58, 0
5, 264120, Note_on_c, 3, 57, 100
5, 264120, Note_on_c, 3, 60, 100
5, 264240, Note_on_c, 3, 60, 0
5, 264240, Note_on_c, 3, 57, 0
5, 264240, Note_on_c, 3, 55, 100
5, 264240, Note_on_c, 3, 58, 100
5, 264360, Note_on_c, 3, 58, 0
5, 264360, Note_on_c, 3, 55, 0
5, 264360, Note_on_c, 3, 55, 100
5, 264360, Note_on_c, 3, 58, 100
5, 264480, Note_on_c, 3, 58, 0
5, 264480, Note_on_c, 3, 55, 0
5, 264480, Note_on_c, 3, 53, 100
5, 264480, Note_on_c, 3, 57, 100
5, 264600, Note_on_c, 3, 57, 0
5, 264600, Note_on_c, 3, 53, 0
5, 264600, Note_on_c, 3, 52, 100
5, 264600, Note_on_c, 3, 55, 100
5, 264960, Note_on_c, 3, 55, 0
5, 264960, Note_on_c, 3, 52, 0
5, 264960, Note_on_c, 3, 67, 100
5, 264960, Note_on_c, 3, 64, 100
5, 265080, Note_on_c, 3, 64, 0
5, 265080, Note_on_c, 3, 67, 0
5, 265080, Note_on_c, 3, 64, 100
5, 265080, Note_on_c, 3, 67, 100
5, 265200, Note_on_c, 3, 67, 0
5, 265200, Note_on_c, 3, 64, 0
5, 265200, Note_on_c, 3, 62, 100
5, 265200, Note_on_c, 3, 65, 100
5, 265320, Note_on_c, 3, 65, 0
5, 265320, Note_on_c, 3, 62, 0
5, 265320, Note_on_c, 3, 60, 100
5, 265320, Note_on_c, 3, 64, 100
5, 265440, Note_on_c, 3, 64, 0
5, 265440, Note_on_c, 3, 60, 0
5, 265440, Note_on_c, 3, 60, 100
5, 265440, Note_on_c, 3, 64, 100
5, 265560, Note_on_c, 3, 64, 0
5, 265560, Note_on_c, 3, 60, 0
5, 265560, Note_on_c, 3, 58, 100
5, 265560, Note_on_c, 3, 62, 100
5, 265680, Note_on_c, 3, 62, 0
5, 265680, Note_on_c, 3, 58, 0
5, 265680, Note_on_c, 3, 57, 100
5, 265680, Note_on_c, 3, 60, 100
5, 265800, Note_on_c, 3, 60, 0
5, 265800, Note_on_c, 3, 57, 0
5, 265800, Note_on_c, 3, 57, 100
5, 265800, Note_on_c, 3, 60, 100
5, 265920, Note_on_c, 3, 60, 0
5, 265920, Note_on_c, 3, 57, 0
5, 265920, Note_on_c, 3, 55, 100
5, 265920, Note_on_c, 3, 58, 100
5, 266040, Note_on_c, 3, 58, 0
5, 266040, Note_on_c, 3, 55, 0
5, 266040, Note_on_c, 3, 53, 100
5, 266040, Note_on_c, 3, 57, 100
5, 266400, Note_on_c, 3, 57, 0
5, 266400, Note_on_c, 3, 53, 0
5, 268200, Note_on_c, 3, 65, 100
5, 268200, Note_on_c, 3, 62, 100
5, 268440, Note_on_c, 3, 62, 0
5, 268440, Note_on_c, 3, 65, 0
5, 268440, Note_on_c, 3, 61, 100
5, 268440, Note_on_c, 3, 64, 100
5, 268560, Note_on_c, 3, 64, 0
5, 268560, Note_on_c, 3, 61, 0
5, 268560, Note_on_c, 3, 59, 100
5, 268560, Note_on_c, 3, 62, 100
5, 268920, Note_on_c, 3, 62, 0
5, 268920, Note_on_c, 3, 59, 0
5, 268920, Note_on_c, 3, 57, 100
5, 268920, Note_on_c, 3, 61, 100
5, 269040, Note_on_c, 3, 61, 0
5, 269040, Note_on_c, 3, 57, 0
5, 269280, Note_on_c, 3, 59, 100
5, 269280, Note_on_c, 3, 62, 100
5, 269640, Note_on_c, 3, 62, 0
5, 269640, Note_on_c, 3, 59, 0
5, 269640, Note_on_c, 3, 57, 100
5, 269640, Note_on_c, 3, 61, 100
5, 269760, Note_on_c, 3, 61, 0
5, 269760, Note_on_c, 3, 57, 0
5, 270000, Note_on_c, 3, 59, 100
5, 270000, Note_on_c, 3, 62, 100
5, 270360, Note_on_c, 3, 62, 0
5, 270360, Note_on_c, 3, 59, 0
5, 270360, Note_on_c, 3, 57, 100
5, 270360, Note_on_c, 3, 61, 100
5, 270480, Note_on_c, 3, 61, 0
5, 270480, Note_on_c, 3, 57, 0
5, 270480, Note_on_c, 3, 64, 100
5, 270600, Note_on_c, 3, 64, 0
5, 270600, Note_on_c, 3, 61, 100
5, 270720, Note_on_c, 3, 61, 0
5, 270720, Note_on_c, 3, 57, 100
5, 270840, Note_on_c, 3, 57, 0
5, 270840, Note_on_c, 3, 52, 100
5, 270960, Note_on_c, 3, 52, 0
5, 270960, Note_on_c, 3, 49, 100
5, 271080, Note_on_c, 3, 49, 0
5, 271080, Note_on_c, 3, 45, 100
5, 271200, Note_on_c, 3, 45, 0
5, 277200, Note_on_c, 3, 65, 100
5, 277200, Note_on_c, 3, 60, 100
5, 277440, Note_on_c, 3, 60, 0
5, 277440, Note_on_c, 3, 59, 100
5, 277560, Note_on_c, 3, 59, 0
5, 277560, Note_on_c, 3, 60, 100
5, 277800, Note_on_c, 3, 60, 0
5, 277800, Note_on_c, 3, 59, 100
5, 277920, Note_on_c, 3, 59, 0
5, 277920, Note_on_c, 3, 60, 100
5, 278160, Note_on_c, 3, 60, 0
5, 278160, Note_on_c, 3, 65, 0
5, 278160, Note_on_c, 3, 65, 100
5, 278160, Note_on_c, 3, 59, 100
5, 278280, Note_on_c, 3, 59, 0
5, 278280, Note_on_c, 3, 65, 0
5, 278280, Note_on_c, 3, 65, 100
5, 278280, Note_on_c, 3, 59, 100
5, 278400, Note_on_c, 3, 59, 0
5, 278400, Note_on_c, 3, 65, 0
5, 282960, Note_on_c, 3, 58, 100
5, 282960, Note_on_c, 3, 63, 100
5, 283200, Note_on_c, 3, 58, 0
5, 283200, Note_on_c, 3, 57, 100
5, 283320, Note_on_c, 3, 57, 0
5, 283320, Note_on_c, 3, 58, 100
5, 283560, Note_on_c, 3, 58, 0
5, 283560, Note_on_c, 3, 57, 100
5, 283680, Note_on_c, 3, 57, 0
5, 283680, Note_on_c, 3, 58, 100
5, 283920, Note_on_c, 3, 58, 0
5, 283920, Note_on_c, 3, 63, 0
5, 283920, Note_on_c, 3, 63, 100
5, 283920, Note_on_c, 3, 57, 100
5, 284040, Note_on_c, 3, 57, 0
5, 284040, Note_on_c, 3, 63, 0
5, 284040, Note_on_c, 3, 57, 100
5, 284040, Note_on_c, 3, 63, 100
5, 284160, Note_on_c, 3, 63, 0
5, 284160, Note_on_c, 3, 57, 0
5, 285360, Note_on_c, 3, 58, 100
5, 285480, Note_on_c, 3, 58, 0
5, 285480, Note_on_c, 3, 62, 100
5, 285600, Note_on_c, 3, 62, 0
5, 285600, Note_on_c, 3, 58, 100
5, 285660, Note_on_c, 3, 58, 0
5, 285720, Note_on_c, 3, 62, 100
5, 285840, Note_on_c, 3, 62, 0
5, 285840, Note_on_c, 3, 65, 100
5, 285960, Note_on_c, 3, 65, 0
5, 285960, Note_on_c, 3, 62, 100
5, 286020, Note_on_c, 3, 62, 0
5, 286080, Note_on_c, 3, 65, 100
5, 286200, Note_on_c, 3, 65, 0
5, 286200, Note_on_c, 3, 58, 100
5, 287400, Note_on_c, 3, 58, 0
5, 287400, Note_on_c, 3, 60, 100
5, 287400, Note_on_c, 3, 57, 100
5, 287520, Note_on_c, 3, 57, 0
5, 287520, Note_on_c, 3, 60, 0
5, 287520, Note_on_c, 3, 60, 100
5, 287520, Note_on_c, 3, 57, 100
5, 287640, Note_on_c, 3, 57, 0
5, 287640, Note_on_c, 3, 60, 0
5, 287640, Note_on_c, 3, 60, 100
5, 287640, Note_on_c, 3, 57, 100
5, 288840, Note_on_c, 3, 57, 0
5, 288840, Note_on_c, 3, 60, 0
5, 288840, Note_on_c, 3, 62, 100
5, 288840, Note_on_c, 3, 58, 100
5, 288960, Note_on_c, 3, 58, 0
5, 288960, Note_on_c, 3, 62, 0
5, 288960, Note_on_c, 3, 62, 100
5, 288960, Note_on_c, 3, 58, 100
5, 289080, Note_on_c, 3, 58, 0
5, 289080, Note_on_c, 3, 62, 0
5, 289080, Note_on_c, 3, 62, 100
5, 289080, Note_on_c, 3, 58, 100
5, 290280, Note_on_c, 3, 58, 0
5, 290280, Note_on_c, 3, 62, 0
5, 290280, Note_on_c, 3, 63, 100
5, 290280, Note_on_c, 3, 60, 100
5, 290400, Note_on_c, 3, 60, 0
5, 290400, Note_on_c, 3, 63, 0
5, 290400, Note_on_c, 3, 63, 100
5, 290400, Note_on_c, 3, 60, 100
5, 290520, Note_on_c, 3, 60, 0
5, 290520, Note_on_c, 3, 63, 0
5, 290520, Note_on_c, 3, 60, 100
5, 290520, Note_on_c, 3, 63, 100
5, 291720, Note_on_c, 3, 63, 0
5, 291720, Note_on_c, 3, 60, 0
5, 291720, Note_on_c, 3, 65, 100
5, 291720, Note_on_c, 3, 62, 100
5, 291840, Note_on_c, 3, 62, 0
5, 291840, Note_on_c, 3, 65, 0
5, 291840, Note_on_c, 3, 65, 100
5, 291840, Note_on_c, 3, 62, 100
5, 291960, Note_on_c, 3, 62, 0
5, 291960, Note_on_c, 3, 65, 0
5, 291960, Note_on_c, 3, 53, 100
5, 293160, Note_on_c, 3, 53, 0
5, 293160, Note_on_c, 3, 52, 100
5, 293160, Note_on_c, 3, 55, 100
5, 293280, Note_on_c, 3, 55, 0
5, 293280, Note_on_c, 3, 52, 0
5, 293280, Note_on_c, 3, 52, 100
5, 293280, Note_on_c, 3, 55, 100
5, 293400, Note_on_c, 3, 55, 0
5, 293400, Note_on_c, 3, 52, 0
5, 293400, Note_on_c, 3, 52, 100
5, 293400, Note_on_c, 3, 55, 100
5, 294360, Note_on_c, 3, 55, 0
5, 294360, Note_on_c, 3, 52, 0
5, 294360, Note_on_c, 3, 53, 100
5, 294360, Note_on_c, 3, 57, 100
5, 294480, Note_on_c, 3, 57, 0
5, 294480, Note_on_c, 3, 53, 0
5, 294480, Note_on_c, 3, 57, 100
5, 294600, Note_on_c, 3, 57, 0
5, 294600, Note_on_c, 3, 53, 100
5, 294660, Note_on_c, 3, 53, 0
5, 294720, Note_on_c, 3, 53, 100
5, 294720, Note_on_c, 3, 57, 100
5, 294840, Note_on_c, 3, 57, 0
5, 294840, Note_on_c, 3, 53, 0
5, 294840, Note_on_c, 3, 53, 100
5, 294840, Note_on_c, 3, 57, 100
5, 294870, Note_on_c, 3, 57, 0
5, 294870, Note_on_c, 3, 53, 0
5, 294870, Note_on_c, 3, 57, 100
5, 294870, Note_on_c, 3, 60, 100
5, 294960, Note_on_c, 3, 60, 0
5, 294960, Note_on_c, 3, 57, 0
5, 294960, Note_on_c, 3, 53, 100
5, 294960, Note_on_c, 3, 57, 100
5, 295020, Note_on_c, 3, 57, 0
5, 295020, Note_on_c, 3, 53, 0
5, 295080, Note_on_c, 3, 60, 100
5, 295080, Note_on_c, 3, 57, 100
5, 295200, Note_on_c, 3, 57, 0
5, 295200, Note_on_c, 3, 60, 0
5, 295200, Note_on_c, 3, 53, 100
5, 296400, Note_on_c, 3, 53, 0
5, 296400, Note_on_c, 3, 52, 100
5, 296400, Note_on_c, 3, 55, 100
5, 296520, Note_on_c, 3, 55, 0
5, 296520, Note_on_c, 3, 52, 0
5, 296520, Note_on_c, 3, 52, 100
5, 296520, Note_on_c, 3, 55, 100
5, 296640, Note_on_c, 3, 55, 0
5, 296640, Note_on_c, 3, 52, 0
5, 296640, Note_on_c, 3, 52, 100
5, 296640, Note_on_c, 3, 55, 100
5, 297840, Note_on_c, 3, 55, 0
5, 297840, Note_on_c, 3, 52, 0
5, 297840, Note_on_c, 3, 57, 100
5, 297840, Note_on_c, 3, 53, 100
5, 297960, Note_on_c, 3, 53, 0
5, 297960, Note_on_c, 3, 57, 0
5, 297960, Note_on_c, 3, 57, 100
5, 297960, Note_on_c, 3, 53, 100
5, 298080, Note_on_c, 3, 53, 0
5, 298080, Note_on_c, 3, 57, 0
5, 298080, Note_on_c, 3, 65, 100
5, 298200, Note_on_c, 3, 65, 0
5, 298200, Note_on_c, 3, 65, 100
5, 298320, Note_on_c, 3, 65, 0
5, 298320, Note_on_c, 3, 64, 100
5, 298440, Note_on_c, 3, 64, 0
5, 298440, Note_on_c, 3, 62, 100
5, 298560, Note_on_c, 3, 62, 0
5, 298560, Note_on_c, 3, 62, 100
5, 298680, Note_on_c, 3, 62, 0
5, 298680, Note_on_c, 3, 60, 100
5, 298800, Note_on_c, 3, 60, 0
5, 298800, Note_on_c, 3, 58, 100
5, 298920, Note_on_c, 3, 58, 0
5, 298920, Note_on_c, 3, 58, 100
5, 299040, Note_on_c, 3, 58, 0
5, 299040, Note_on_c, 3, 57, 100
5, 299160, Note_on_c, 3, 57, 0
5, 299160, Note_on_c, 3, 55, 100
5, 299520, Note_on_c, 3, 55, 0
5, 299520, Note_on_c, 3, 67, 100
5, 299520, Note_on_c, 3, 64, 100
5, 299640, Note_on_c, 3, 64, 0
5, 299640, Note_on_c, 3, 67, 0
5, 299640, Note_on_c, 3, 64, 100
5, 299640, Note_on_c, 3, 67, 100
5, 299760, Note_on_c, 3, 67, 0
5, 299760, Note_on_c, 3, 64, 0
5, 299760, Note_on_c, 3, 62, 100
5, 299760, Note_on_c, 3, 65, 100
5, 299880, Note_on_c, 3, 65, 0
5, 299880, Note_on_c, 3, 62, 0
5, 299880, Note_on_c, 3, 60, 100
5, 299880, Note_on_c, 3, 64, 100
5, 300000, Note_on_c, 3, 64, 0
5, 300000, Note_on_c, 3, 60, 0
5, 300000, Note_on_c, 3, 60, 100
5, 300000, Note_on_c, 3, 64, 100
5, 300120, Note_on_c, 3, 64, 0
5, 300120, Note_on_c, 3, 60, 0
5, 300120, Note_on_c, 3, 58, 100
5, 300120, Note_on_c, 3, 62, 100
5, 300240, Note_on_c, 3, 62, 0
5, 300240, Note_on_c, 3, 58, 0
5, 300240, Note_on_c, 3, 57, 100
5, 300240, Note_on_c, 3, 60, 100
5, 300360, Note_on_c, 3, 60, 0
5, 300360, Note_on_c, 3, 57, 0
5, 300360, Note_on_c, 3, 57, 100
5, 300360, Note_on_c, 3, 60, 100
5, 300480, Note_on_c, 3, 60, 0
5, 300480, Note_on_c, 3, 57, 0
5, 300480, Note_on_c, 3, 55, 100
5, 300480, Note_on_c, 3, 58, 100
5, 300600, Note_on_c, 3, 58, 0
5, 300600, Note_on_c, 3, 55, 0
5, 300600, Note_on_c, 3, 53, 100
5, 300600, Note_on_c, 3, 57, 100
5, 300960, Note_on_c, 3, 57, 0
5, 300960, Note_on_c, 3, 53, 0
5, 301680, Note_on_c, 3, 64, 100
5, 301680, Note_on_c, 3, 58, 100
5, 301800, Note_on_c, 3, 58, 0
5, 301800, Note_on_c, 3, 64, 0
5, 301800, Note_on_c, 3, 64, 100
5, 301800, Note_on_c, 3, 58, 100
5, 301920, Note_on_c, 3, 58, 0
5, 301920, Note_on_c, 3, 64, 0
5, 301920, Note_on_c, 3, 60, 100
5, 301920, Note_on_c, 3, 57, 100
5, 302040, Note_on_c, 3, 57, 0
5, 302040, Note_on_c, 3, 60, 0
5, 302040, Note_on_c, 3, 55, 100
5, 302040, Note_on_c, 3, 60, 100
5, 302280, Note_on_c, 3, 60, 0
5, 302280, Note_on_c, 3, 55, 0
5, 302280, Note_on_c, 3, 53, 100
5, 302280, Note_on_c, 3, 60, 100
5, 302400, Note_on_c, 3, 60, 0
5, 302400, Note_on_c, 3, 53, 0
5, 304920, Note_on_c, 3, 64, 100
5, 304920, Note_on_c, 3, 60, 100
5, 305040, Note_on_c, 3, 60, 0
5, 305040, Note_on_c, 3, 64, 0
5, 305040, Note_on_c, 3, 64, 100
5, 305040, Note_on_c, 3, 60, 100
5, 305160, Note_on_c, 3, 60, 0
5, 305160, Note_on_c, 3, 64, 0
5, 305160, Note_on_c, 3, 64, 100
5, 305160, Note_on_c, 3, 60, 100
5, 305280, Note_on_c, 3, 60, 0
5, 305280, Note_on_c, 3, 64, 0
5, 305640, Note_on_c, 3, 64, 100
5, 305640, Note_on_c, 3, 60, 100
5, 305760, Note_on_c, 3, 60, 0
5, 305760, Note_on_c, 3, 64, 0
5, 305760, Note_on_c, 3, 64, 100
5, 305760, Note_on_c, 3, 60, 100
5, 305880, Note_on_c, 3, 60, 0
5, 305880, Note_on_c, 3, 64, 0
5, 305880, Note_on_c, 3, 64, 100
5, 305880, Note_on_c, 3, 60, 100
5, 306000, Note_on_c, 3, 60, 0
5, 306000, Note_on_c, 3, 64, 0
5, 306360, Note_on_c, 3, 64, 100
5, 306360, Note_on_c, 3, 60, 100
5, 306480, Note_on_c, 3, 60, 0
5, 306480, Note_on_c, 3, 64, 0
5, 306480, Note_on_c, 3, 64, 100
5, 306480, Note_on_c, 3, 60, 100
5, 306600, Note_on_c, 3, 60, 0
5, 306600, Note_on_c, 3, 64, 0
5, 306600, Note_on_c, 3, 64, 100
5, 306600, Note_on_c, 3, 60, 100
5, 306720, Note_on_c, 3, 60, 0
5, 306720, Note_on_c, 3, 64, 0
5, 307080, Note_on_c, 3, 64, 100
5, 307080, Note_on_c, 3, 60, 100
5, 307200, Note_on_c, 3, 60, 0
5, 307200, Note_on_c, 3, 64, 0
5, 307200, Note_on_c, 3, 64, 100
5, 307200, Note_on_c, 3, 60, 100
5, 307320, Note_on_c, 3, 60, 0
5, 307320, Note_on_c, 3, 64, 0
5, 307320, Note_on_c, 3, 64, 100
5, 307320, Note_on_c, 3, 60, 100
5, 307440, Note_on_c, 3, 60, 0
5, 307440, Note_on_c, 3, 64, 0
5, 307440, Note_on_c, 3, 64, 100
5, 307470, Note_on_c, 3, 64, 0
5, 307470, Note_on_c, 3, 65, 100
5, 307500, Note_on_c, 3, 65, 0
5, 307500, Note_on_c, 3, 64, 100
5, 307530, Note_on_c, 3, 64, 0
5, 307530, Note_on_c, 3, 65, 100
5, 307560, Note_on_c, 3, 65, 0
5, 307560, Note_on_c, 3, 64, 100
5, 307590, Note_on_c, 3, 64, 0
5, 307590, Note_on_c, 3, 65, 100
5, 307620, Note_on_c, 3, 65, 0
5, 307620, Note_on_c, 3, 64, 100
5, 307650, Note_on_c, 3, 64, 0
5, 307650, Note_on_c, 3, 65, 100
5, 307680, Note_on_c, 3, 65, 0
5, 307680, Note_on_c, 3, 64, 100
5, 307710, Note_on_c, 3, 64, 0
5, 307710, Note_on_c, 3, 65, 100
5, 307740, Note_on_c, 3, 65, 0
5, 307740, Note_on_c, 3, 62, 100
5, 307770, Note_on_c, 3, 62, 0
5, 307770, Note_on_c, 3, 64, 100
5, 307800, Note_on_c, 3, 64, 0
5, 307800, Note_on_c, 3, 65, 100
5, 307800, Note_on_c, 3, 57, 100
5, 307920, Note_on_c, 3, 57, 0
5, 307920, Note_on_c, 3, 65, 0
5, 307920, Note_on_c, 3, 60, 100
5, 307920, Note_on_c, 3, 57, 100
5, 308040, Note_on_c, 3, 57, 0
5, 308040, Note_on_c, 3, 60, 0
5, 308040, Note_on_c, 3, 53, 100
5, 308040, Note_on_c, 3, 57, 100
5, 308160, Note_on_c, 3, 57, 0
5, 308160, Note_on_c, 3, 53, 0
5, 308160, Note_on_c, 3, 58, 100
5, 308190, Note_on_c, 3, 58, 0
5, 308190, Note_on_c, 3, 60, 100
5, 308220, Note_on_c, 3, 60, 0
5, 308220, Note_on_c, 3, 58, 100
5, 308250, Note_on_c, 3, 58, 0
5, 308250, Note_on_c, 3, 60, 100
5, 308280, Note_on_c, 3, 60, 0
5, 308280, Note_on_c, 3, 58, 100
5, 308310, Note_on_c, 3, 58, 0
5, 308310, Note_on_c, 3, 60, 100
5, 308340, Note_on_c, 3, 60, 0
5, 308340, Note_on_c, 3, 58, 100
5, 308370, Note_on_c, 3, 58, 0
5, 308370, Note_on_c, 3, 60, 100
5, 308400, Note_on_c, 3, 60, 0
5, 308400, Note_on_c, 3, 58, 100
5, 308430, Note_on_c, 3, 58, 0
5, 308430, Note_on_c, 3, 60, 100
5, 308460, Note_on_c, 3, 60, 0
5, 308460, Note_on_c, 3, 57, 100
5, 308490, Note_on_c, 3, 57, 0
5, 308490, Note_on_c, 3, 58, 100
5, 308520, Note_on_c, 3, 58, 0
5, 308520, Note_on_c, 3, 57, 100
5, 308520, Note_on_c, 3, 53, 100
5, 308640, Note_on_c, 3, 53, 0
5, 308640, Note_on_c, 3, 57, 0
5, 308640, Note_on_c, 3, 60, 100
5, 308640, Note_on_c, 3, 57, 100
5, 308760, Note_on_c, 3, 57, 0
5, 308760, Note_on_c, 3, 60, 0
5, 308760, Note_on_c, 3, 65, 100
5, 308760, Note_on_c, 3, 53, 100
5, 308880, Note_on_c, 3, 53, 0
5, 308880, Note_on_c, 3, 65, 0
5, 308880, Note_on_c, 3, 64, 100
5, 308910, Note_on_c, 3, 64, 0
5, 308910, Note_on_c, 3, 65, 100
5, 308940, Note_on_c, 3, 65, 0
5, 308940, Note_on_c, 3, 64, 100
5, 308970, Note_on_c, 3, 64, 0
5, 308970, Note_on_c, 3, 65, 100
5, 309000, Note_on_c, 3, 65, 0
5, 309000, Note_on_c, 3, 64, 100
5, 309030, Note_on_c, 3, 64, 0
5, 309030, Note_on_c, 3, 65, 100
5, 309060, Note_on_c, 3, 65, 0
5, 309060, Note_on_c, 3, 64, 100
5, 309090, Note_on_c, 3, 64, 0
5, 309090, Note_on_c, 3, 65, 100
5, 309120, Note_on_c, 3, 65, 0
5, 309120, Note_on_c, 3, 64, 100
5, 309150, Note_on_c, 3, 64, 0
5, 309150, Note_on_c, 3, 65, 100
5, 309180, Note_on_c, 3, 65, 0
5, 309180, Note_on_c, 3, 62, 100
5, 309210, Note_on_c, 3, 62, 0
5, 309210, Note_on_c, 3, 64, 100
5, 309240, Note_on_c, 3, 64, 0
5, 309240, Note_on_c, 3, 65, 100
5, 309240, Note_on_c, 3, 57, 100
5, 309360, Note_on_c, 3, 57, 0
5, 309360, Note_on_c, 3, 65, 0
5, 309360, Note_on_c, 3, 60, 100
5, 309360, Note_on_c, 3, 57, 100
5, 309480, Note_on_c, 3, 57, 0
5, 309480, Note_on_c, 3, 60, 0
5, 309480, Note_on_c, 3, 53, 100
5, 309480, Note_on_c, 3, 57, 100
5, 309600, Note_on_c, 3, 57, 0
5, 309600, Note_on_c, 3, 53, 0
5, 309600, Note_on_c, 3, 64, 100
5, 309630, Note_on_c, 3, 64, 0
5, 309630, Note_on_c, 3, 65, 100
5, 309660, Note_on_c, 3, 65, 0
5, 309660, Note_on_c, 3, 64, 100
5, 309690, Note_on_c, 3, 64, 0
5, 309690, Note_on_c, 3, 65, 100
5, 309720, Note_on_c, 3, 65, 0
5, 309720, Note_on_c, 3, 64, 100
5, 309750, Note_on_c, 3, 64, 0
5, 309750, Note_on_c, 3, 65, 100
5, 309780, Note_on_c, 3, 65, 0
5, 309780, Note_on_c, 3, 64, 100
5, 309810, Note_on_c, 3, 64, 0
5, 309810, Note_on_c, 3, 65, 100
5, 309840, Note_on_c, 3, 65, 0
5, 309840, Note_on_c, 3, 64, 100
5, 309870, Note_on_c, 3, 64, 0
5, 309870, Note_on_c, 3, 65, 100
5, 309900, Note_on_c, 3, 65, 0
5, 309900, Note_on_c, 3, 62, 100
5, 309930, Note_on_c, 3, 62, 0
5, 309930, Note_on_c, 3, 64, 100
5, 309960, Note_on_c, 3, 64, 0
5, 309960, Note_on_c, 3, 65, 100
5, 309960, Note_on_c, 3, 57, 100
5, 310080, Note_on_c, 3, 57, 0
5, 310080, Note_on_c, 3, 65, 0
5, 310080, Note_on_c, 3, 60, 100
5, 310080, Note_on_c, 3, 57, 100
5, 310200, Note_on_c, 3, 57, 0
5, 310200, Note_on_c, 3, 60, 0
5, 310200, Note_on_c, 3, 53, 100
5, 310200, Note_on_c, 3, 57, 100
5, 310320, Note_on_c, 3, 57, 0
5, 310320, Note_on_c, 3, 53, 0
5, 310320, Note_on_c, 3, 64, 100
5, 310350, Note_on_c, 3, 64, 0
5, 310350, Note_on_c, 3, 65, 100
5, 310380, Note_on_c, 3, 65, 0
5, 310380, Note_on_c, 3, 64, 100
5, 310410, Note_on_c, 3, 64, 0
5, 310410, Note_on_c, 3, 65, 100
5, 310440, Note_on_c, 3, 65, 0
5, 310440, Note_on_c, 3, 64, 100
5, 310470, Note_on_c, 3, 64, 0
5, 310470, Note_on_c, 3, 65, 100
5, 310500, Note_on_c, 3, 65, 0
5, 310500, Note_on_c, 3, 64, 100
5, 310530, Note_on_c, 3, 64, 0
5, 310530, Note_on_c, 3, 65, 100
5, 310560, Note_on_c, 3, 65, 0
5, 310560, Note_on_c, 3, 64, 100
5, 310590, Note_on_c, 3, 64, 0
5, 310590, Note_on_c, 3, 65, 100
5, 310620, Note_on_c, 3, 65, 0
5, 310620, Note_on_c, 3, 62, 100
5, 310650, Note_on_c, 3, 62, 0
5, 310650, Note_on_c, 3, 64, 100
5, 310680, Note_on_c, 3, 64, 0
5, 310680, Note_on_c, 3, 65, 100
5, 310680, Note_on_c, 3, 57, 100
5, 310800, Note_on_c, 3, 57, 0
5, 310800, Note_on_c, 3, 65, 0
5, 310800, Note_on_c, 3, 60, 100
5, 310920, Note_on_c, 3, 60, 0
5, 310920, Note_on_c, 3, 57, 100
5, 311040, Note_on_c, 3, 57, 0
5, 311040, Note_on_c, 3, 53, 100
5, 311160, Note_on_c, 3, 53, 0
5, 311160, Note_on_c, 3, 60, 100
5, 311280, Note_on_c, 3, 60, 0
5, 311280, Note_on_c, 3, 57, 100
5, 311400, Note_on_c, 3, 57, 0
5, 311400, Note_on_c, 3, 53, 100
5, 311520, Note_on_c, 3, 53, 0
5, 311520, Note_on_c, 3, 48, 100
5, 311640, Note_on_c, 3, 48, 0
5, 311640, Note_on_c, 3, 41, 100
5, 311760, Note_on_c, 3, 41, 0
5, 311760, Note_on_c, 3, 41, 100
5, 311790, Note_on_c, 3, 41, 0
5, 311790, Note_on_c, 3, 45, 100
5, 311880, Note_on_c, 3, 45, 0
5, 311880, Note_on_c, 3, 41, 100
5, 311940, Note_on_c, 3, 41, 0
5, 313080, Note_on_c, 3, 41, 100
5, 313080, Note_on_c, 3, 53, 100
5, 313200, Note_on_c, 3, 53, 0
5, 313200, Note_on_c, 3, 41, 0
5, 313200, Note_on_c, 3, 41, 100
5, 313200, Note_on_c, 3, 53, 100
5, 313230, Note_on_c, 3, 53, 0
5, 313230, Note_on_c, 3, 41, 0
5, 313230, Note_on_c, 3, 45, 100
5, 313230, Note_on_c, 3, 57, 100
5, 313320, Note_on_c, 3, 57, 0
5, 313320, Note_on_c, 3, 45, 0
5, 313320, Note_on_c, 3, 41, 100
5, 313320, Note_on_c, 3, 53, 100
5, 313380, Note_on_c, 3, 53, 0
5, 313380, Note_on_c, 3, 41, 0
5, 313440, Note_on_c, 3, 41, 100
5, 313440, Note_on_c, 3, 53, 100
5, 313560, Note_on_c, 3, 53, 0
5, 313560, Note_on_c, 3, 41, 0
5, 313560, Note_on_c, 3, 41, 100
5, 313560, Note_on_c, 3, 53, 100
5, 313590, Note_on_c, 3, 53, 0
5, 313590, Note_on_c, 3, 41, 0
5, 313590, Note_on_c, 3, 45, 100
5, 313590, Note_on_c, 3, 57, 100
5, 313680, Note_on_c, 3, 57, 0
5, 313680, Note_on_c, 3, 45, 0
5, 313680, Note_on_c, 3, 41, 100
5, 313680, Note_on_c, 3, 53, 100
5, 313800, Note_on_c, 3, 53, 0
5, 313800, Note_on_c, 3, 41, 0
5, 313800, Note_on_c, 3, 41, 100
5, 313800, Note_on_c, 3, 53, 100
5, 313920, Note_on_c, 3, 53, 0
5, 313920, Note_on_c, 3, 41, 0
5, 313920, Note_on_c, 3, 41, 100
5, 313920, Note_on_c, 3, 53, 100
5, 313950, Note_on_c, 3, 53, 0
5, 313950, Note_on_c, 3, 41, 0
5, 313950, Note_on_c, 3, 45, 100
5, 313950, Note_on_c, 3, 57, 100
5, 314040, Note_on_c, 3, 57, 0
5, 314040, Note_on_c, 3, 45, 0
5, 314040, Note_on_c, 3, 41, 100
5, 314040, Note_on_c, 3, 53, 100
5, 314160, Note_on_c, 3, 53, 0
5, 314160, Note_on_c, 3, 41, 0
5, 314160, Note_on_c, 3, 41, 100
5, 314160, Note_on_c, 3, 53, 100
5, 314280, Note_on_c, 3, 53, 0
5, 314280, Note_on_c, 3, 41, 0
5, 314280, Note_on_c, 3, 41, 100
5, 314280, Note_on_c, 3, 53, 100
5, 314310, Note_on_c, 3, 53, 0
5, 314310, Note_on_c, 3, 41, 0
5, 314310, Note_on_c, 3, 45, 100
5, 314310, Note_on_c, 3, 57, 100
5, 314400, Note_on_c, 3, 57, 0
5, 314400, Note_on_c, 3, 45, 0
5, 314400, Note_on_c, 3, 41, 100
5, 314400, Note_on_c, 3, 53, 100
5, 314520, Note_on_c, 3, 53, 0
5, 314520, Note_on_c, 3, 41, 0
5, 314520, Note_on_c, 3, 41, 100
5, 314520, Note_on_c, 3, 53, 100
5, 314640, Note_on_c, 3, 53, 0
5, 314640, Note_on_c, 3, 41, 0
5, 314640, Note_on_c, 3, 45, 100
5, 314640, Note_on_c, 3, 57, 100
5, 314760, Note_on_c, 3, 57, 0
5, 314760, Note_on_c, 3, 45, 0
5, 316080, Note_on_c, 3, 50, 100
5, 316080, Note_on_c, 3, 57, 100
5, 316380, Note_on_c, 3, 50, 0
5, 316380, Note_on_c, 3, 48, 100
5, 316440, Note_on_c, 3, 48, 0
5, 316440, Note_on_c, 3, 50, 100
5, 316560, Note_on_c, 3, 50, 0
5, 316560, Note_on_c, 3, 57, 0
5, 316800, Note_on_c, 3, 50, 100
5, 316800, Note_on_c, 3, 57, 100
5, 317100, Note_on_c, 3, 50, 0
5, 317100, Note_on_c, 3, 48, 100
5, 317160, Note_on_c, 3, 48, 0
5, 317160, Note_on_c, 3, 50, 100
5, 317280, Note_on_c, 3, 50, 0
5, 317280, Note_on_c, 3, 57, 0
5, 317520, Note_on_c, 3, 46, 100
5, 317520, Note_on_c, 3, 58, 100
5, 317640, Note_on_c, 3, 58, 0
5, 317640, Note_on_c, 3, 46, 0
5, 317880, Note_on_c, 3, 47, 100
5, 317880, Note_on_c, 3, 59, 100
5, 318000, Note_on_c, 3, 59, 0
5, 318000, Note_on_c, 3, 47, 0
5, 318240, Note_on_c, 3, 48, 100
5, 318240, Note_on_c, 3, 60, 100
5, 318360, Note_on_c, 3, 60, 0
5, 318360, Note_on_c, 3, 48, 0
5, 318600, Note_on_c, 3, 36, 100
5, 318600, Note_on_c, 3, 48, 100
5, 318720, Note_on_c, 3, 48, 0
5, 318720, Note_on_c, 3, 36, 0
5, 318960, Note_on_c, 3, 41, 100
5, 319080, Note_on_c, 3, 41, 0
5, 319080, End_track
6, 0, Start_track
6, 0, MIDI_port, 0
6, 0, Title_t, "Horns in D"
6, 0, Program_c, 4, 60
6, 0, Control_c, 4, 7, 115
6, 0, Control_c, 4, 10, 45
6, 600, Note_on_c, 4, 69, 100
6, 720, Note_on_c, 4, 69, 0
6, 720, Note_on_c, 4, 69, 100
6, 840, Note_on_c, 4, 69, 0
6, 960, Note_on_c, 4, 69, 100
6, 1080, Note_on_c, 4, 69, 0
6, 1080, Note_on_c, 4, 69, 100
6, 1200, Note_on_c, 4, 69, 0
6, 1320, Note_on_c, 4, 69, 100
6, 1440, Note_on_c, 4, 69, 0
6, 1440, Note_on_c, 4, 69, 100
6, 1560, Note_on_c, 4, 69, 0
6, 6480, Note_on_c, 4, 76, 100
6, 6840, Note_on_c, 4, 76, 0
6, 6840, Note_on_c, 4, 76, 100
6, 6960, Note_on_c, 4, 76, 0
6, 7200, Note_on_c, 4, 76, 100
6, 7560, Note_on_c, 4, 76, 0
6, 7560, Note_on_c, 4, 76, 100
6, 7680, Note_on_c, 4, 76, 0
6, 7920, Note_on_c, 4, 76, 100
6, 8280, Note_on_c, 4, 76, 0
6, 8280, Note_on_c, 4, 69, 100
6, 8280, Note_on_c, 4, 76, 100
6, 8400, Note_on_c, 4, 76, 0
6, 8400, Note_on_c, 4, 69, 0
6, 8400, Note_on_c, 4, 69, 100
6, 8400, Note_on_c, 4, 76, 100
6, 8520, Note_on_c, 4, 76, 0
6, 8520, Note_on_c, 4, 69, 0
6, 8520, Note_on_c, 4, 69, 100
6, 8520, Note_on_c, 4, 76, 100
6, 8640, Note_on_c, 4, 76, 0
6, 8640, Note_on_c, 4, 69, 0
6, 8640, Note_on_c, 4, 76, 100
6, 8640, Note_on_c, 4, 69, 100
6, 8760, Note_on_c, 4, 69, 0
6, 8760, Note_on_c, 4, 76, 0
6, 8760, Note_on_c, 4, 57, 100
6, 8760, Note_on_c, 4, 69, 100
6, 8880, Note_on_c, 4, 69, 0
6, 8880, Note_on_c, 4, 57, 0
6, 8880, Note_on_c, 4, 57, 100
6, 8880, Note_on_c, 4, 69, 100
6, 9000, Note_on_c, 4, 69, 0
6, 9000, Note_on_c, 4, 57, 0
6, 9000, Note_on_c, 4, 57, 100
6, 9000, Note_on_c, 4, 69, 100
6, 9120, Note_on_c, 4, 69, 0
6, 9120, Note_on_c, 4, 57, 0
6, 9240, Note_on_c, 4, 69, 100
6, 9360, Note_on_c, 4, 69, 0
6, 9360, Note_on_c, 4, 69, 100
6, 9480, Note_on_c, 4, 69, 0
6, 9600, Note_on_c, 4, 69, 100
6, 9720, Note_on_c, 4, 69, 0
6, 9720, Note_on_c, 4, 69, 100
6, 9840, Note_on_c, 4, 69, 0
6, 9960, Note_on_c, 4, 69, 100
6, 10080, Note_on_c, 4, 69, 0
6, 10080, Note_on_c, 4, 69, 100
6, 10200, Note_on_c, 4, 69, 0
6, 15120, Note_on_c, 4, 76, 100
6, 15480, Note_on_c, 4, 76, 0
6, 15480, Note_on_c, 4, 76, 100
6, 15600, Note_on_c, 4, 76, 0
6, 15840, Note_on_c, 4, 76, 100
6, 16200, Note_on_c, 4, 76, 0
6, 16200, Note_on_c, 4, 76, 100
6, 16320, Note_on_c, 4, 76, 0
6, 16560, Note_on_c, 4, 76, 100
6, 16920, Note_on_c, 4, 76, 0
6, 16920, Note_on_c, 4, 69, 100
6, 16920, Note_on_c, 4, 76, 100
6, 17040, Note_on_c, 4, 76, 0
6, 17040, Note_on_c, 4, 69, 0
6, 17040, Note_on_c, 4, 69, 100
6, 17040, Note_on_c, 4, 76, 100
6, 17160, Note_on_c, 4, 76, 0
6, 17160, Note_on_c, 4, 69, 0
6, 17160, Note_on_c, 4, 69, 100
6, 17160, Note_on_c, 4, 76, 100
6, 17280, Note_on_c, 4, 76, 0
6, 17280, Note_on_c, 4, 69, 0
6, 17280, Note_on_c, 4, 76, 100
6, 17280, Note_on_c, 4, 69, 100
6, 17400, Note_on_c, 4, 69, 0
6, 17400, Note_on_c, 4, 76, 0
6, 17400, Note_on_c, 4, 57, 100
6, 17400, Note_on_c, 4, 69, 100
6, 17520, Note_on_c, 4, 69, 0
6, 17520, Note_on_c, 4, 57, 0
6, 17520, Note_on_c, 4, 57, 100
6, 17520, Note_on_c, 4, 69, 100
6, 17640, Note_on_c, 4, 69, 0
6, 17640, Note_on_c, 4, 57, 0
6, 17640, Note_on_c, 4, 57, 100
6, 17640, Note_on_c, 4, 69, 100
6, 17760, Note_on_c, 4, 69, 0
6, 17760, Note_on_c, 4, 57, 0
6, 23760, Note_on_c, 4, 74, 100
6, 24720, Note_on_c, 4, 74, 0
6, 24720, Note_on_c, 4, 79, 100
6, 24840, Note_on_c, 4, 79, 0
6, 24840, Note_on_c, 4, 79, 100
6, 24960, Note_on_c, 4, 79, 0
6, 30480, Note_on_c, 4, 69, 100
6, 30600, Note_on_c, 4, 69, 0
6, 30600, Note_on_c, 4, 69, 100
6, 30720, Note_on_c, 4, 69, 0
6, 40920, Note_on_c, 4, 72, 100
6, 41040, Note_on_c, 4, 72, 0
6, 41040, Note_on_c, 4, 72, 100
6, 41160, Note_on_c, 4, 72, 0
6, 41280, Note_on_c, 4, 72, 100
6, 41400, Note_on_c, 4, 72, 0
6, 41400, Note_on_c, 4, 72, 100
6, 41520, Note_on_c, 4, 72, 0
6, 41640, Note_on_c, 4, 72, 100
6, 41760, Note_on_c, 4, 72, 0
6, 41760, Note_on_c, 4, 72, 100
6, 41880, Note_on_c, 4, 72, 0
6, 41880, Note_on_c, 4, 72, 100
6, 42000, Note_on_c, 4, 72, 0
6, 42000, Note_on_c, 4, 72, 100
6, 42120, Note_on_c, 4, 72, 0
6, 42120, Note_on_c, 4, 72, 100
6, 42240, Note_on_c, 4, 72, 0
6, 42240, Note_on_c, 4, 72, 100
6, 42360, Note_on_c, 4, 72, 0
6, 42360, Note_on_c, 4, 72, 100
6, 42480, Note_on_c, 4, 72, 0
6, 42480, Note_on_c, 4, 72, 100
6, 42600, Note_on_c, 4, 72, 0
6, 42600, Note_on_c, 4, 72, 100
6, 42720, Note_on_c, 4, 72, 0
6, 42720, Note_on_c, 4, 72, 100
6, 42840, Note_on_c, 4, 72, 0
6, 42840, Note_on_c, 4, 72, 100
6, 43200, Note_on_c, 4, 72, 0
6, 43200, Note_on_c, 4, 72, 100
6, 43320, Note_on_c, 4, 72, 0
6, 43320, Note_on_c, 4, 72, 100
6, 43440, Note_on_c, 4, 72, 0
6, 43440, Note_on_c, 4, 72, 100
6, 43560, Note_on_c, 4, 72, 0
6, 43560, Note_on_c, 4, 72, 100
6, 43680, Note_on_c, 4, 72, 0
6, 43680, Note_on_c, 4, 72, 100
6, 43800, Note_on_c, 4, 72, 0
6, 43800, Note_on_c, 4, 72, 100
6, 43920, Note_on_c, 4, 72, 0
6, 43920, Note_on_c, 4, 72, 100
6, 44040, Note_on_c, 4, 72, 0
6, 44040, Note_on_c, 4, 72, 100
6, 44160, Note_on_c, 4, 72, 0
6, 44160, Note_on_c, 4, 72, 100
6, 44280, Note_on_c, 4, 72, 0
6, 44280, Note_on_c, 4, 72, 100
6, 44640, Note_on_c, 4, 72, 0
6, 45360, Note_on_c, 4, 72, 100
6, 45480, Note_on_c, 4, 72, 0
6, 45480, Note_on_c, 4, 72, 100
6, 45600, Note_on_c, 4, 72, 0
6, 45600, Note_on_c, 4, 72, 100
6, 45720, Note_on_c, 4, 72, 0
6, 47160, Note_on_c, 4, 72, 100
6, 47280, Note_on_c, 4, 72, 0
6, 47280, Note_on_c, 4, 72, 100
6, 47400, Note_on_c, 4, 72, 0
6, 47400, Note_on_c, 4, 72, 100
6, 47520, Note_on_c, 4, 72, 0
6, 54360, Note_on_c, 4, 77, 100
6, 54480, Note_on_c, 4, 77, 0
6, 54480, Note_on_c, 4, 77, 100
6, 54600, Note_on_c, 4, 77, 0
6, 54600, Note_on_c, 4, 77, 100
6, 54720, Note_on_c, 4, 77, 0
6, 55080, Note_on_c, 4, 77, 100
6, 55200, Note_on_c, 4, 77, 0
6, 55200, Note_on_c, 4, 77, 100
6, 55320, Note_on_c, 4, 77, 0
6, 55320, Note_on_c, 4, 77, 100
6, 55440, Note_on_c, 4, 77, 0
6, 55800, Note_on_c, 4, 77, 100
6, 55920, Note_on_c, 4, 77, 0
6, 55920, Note_on_c, 4, 77, 100
6, 56040, Note_on_c, 4, 77, 0
6, 56040, Note_on_c, 4, 77, 100
6, 56160, Note_on_c, 4, 77, 0
6, 56520, Note_on_c, 4, 77, 100
6, 56640, Note_on_c, 4, 77, 0
6, 56640, Note_on_c, 4, 77, 100
6, 56760, Note_on_c, 4, 77, 0
6, 56760, Note_on_c, 4, 77, 100
6, 56880, Note_on_c, 4, 77, 0
6, 57240, Note_on_c, 4, 77, 100
6, 57360, Note_on_c, 4, 77, 0
6, 57360, Note_on_c, 4, 77, 100
6, 57480, Note_on_c, 4, 77, 0
6, 57480, Note_on_c, 4, 77, 100
6, 57600, Note_on_c, 4, 77, 0
6, 57600, Note_on_c, 4, 77, 100
6, 57720, Note_on_c, 4, 77, 0
6, 57720, Note_on_c, 4, 77, 100
6, 57840, Note_on_c, 4, 77, 0
6, 57840, Note_on_c, 4, 77, 100
6, 57960, Note_on_c, 4, 77, 0
6, 57960, Note_on_c, 4, 77, 100
6, 58080, Note_on_c, 4, 77, 0
6, 59640, Note_on_c, 4, 69, 100
6, 59760, Note_on_c, 4, 69, 0
6, 59760, Note_on_c, 4, 69, 100
6, 59880, Note_on_c, 4, 69, 0
6, 60000, Note_on_c, 4, 69, 100
6, 60120, Note_on_c, 4, 69, 0
6, 60120, Note_on_c, 4, 69, 100
6, 60240, Note_on_c, 4, 69, 0
6, 60360, Note_on_c, 4, 69, 100
6, 60480, Note_on_c, 4, 69, 0
6, 60480, Note_on_c, 4, 69, 100
6, 60600, Note_on_c, 4, 69, 0
6, 60720, Note_on_c, 4, 69, 100
6, 60840, Note_on_c, 4, 69, 0
6, 60840, Note_on_c, 4, 69, 100
6, 60960, Note_on_c, 4, 69, 0
6, 61080, Note_on_c, 4, 69, 100
6, 61200, Note_on_c, 4, 69, 0
6, 61200, Note_on_c, 4, 69, 100
6, 61320, Note_on_c, 4, 69, 0
6, 68400, Note_on_c, 4, 74, 100
6, 69360, Note_on_c, 4, 74, 0
6, 69360, Note_on_c, 4, 79, 100
6, 69480, Note_on_c, 4, 79, 0
6, 69480, Note_on_c, 4, 79, 100
6, 69600, Note_on_c, 4, 79, 0
6, 75120, Note_on_c, 4, 69, 100
6, 75240, Note_on_c, 4, 69, 0
6, 75240, Note_on_c, 4, 69, 100
6, 75360, Note_on_c, 4, 69, 0
6, 85560, Note_on_c, 4, 72, 100
6, 85680, Note_on_c, 4, 72, 0
6, 85680, Note_on_c, 4, 72, 100
6, 85800, Note_on_c, 4, 72, 0
6, 85920, Note_on_c, 4, 72, 100
6, 86040, Note_on_c, 4, 72, 0
6, 86040, Note_on_c, 4, 72, 100
6, 86160, Note_on_c, 4, 72, 0
6, 86280, Note_on_c, 4, 72, 100
6, 86400, Note_on_c, 4, 72, 0
6, 86400, Note_on_c, 4, 72, 100
6, 86520, Note_on_c, 4, 72, 0
6, 86520, Note_on_c, 4, 72, 100
6, 86640, Note_on_c, 4, 72, 0
6, 86640, Note_on_c, 4, 72, 100
6, 86760, Note_on_c, 4, 72, 0
6, 86760, Note_on_c, 4, 72, 100
6, 86880, Note_on_c, 4, 72, 0
6, 86880, Note_on_c, 4, 72, 100
6, 87000, Note_on_c, 4, 72, 0
6, 87000, Note_on_c, 4, 72, 100
6, 87120, Note_on_c, 4, 72, 0
6, 87120, Note_on_c, 4, 72, 100
6, 87240, Note_on_c, 4, 72, 0
6, 87240, Note_on_c, 4, 72, 100
6, 87360, Note_on_c, 4, 72, 0
6, 87360, Note_on_c, 4, 72, 100
6, 87480, Note_on_c, 4, 72, 0
6, 87480, Note_on_c, 4, 72, 100
6, 87840, Note_on_c, 4, 72, 0
6, 87840, Note_on_c, 4, 72, 100
6, 87960, Note_on_c, 4, 72, 0
6, 87960, Note_on_c, 4, 72, 100
6, 88080, Note_on_c, 4, 72, 0
6, 88080, Note_on_c, 4, 72, 100
6, 88200, Note_on_c, 4, 72, 0
6, 88200, Note_on_c, 4, 72, 100
6, 88320, Note_on_c, 4, 72, 0
6, 88320, Note_on_c, 4, 72, 100
6, 88440, Note_on_c, 4, 72, 0
6, 88440, Note_on_c, 4, 72, 100
6, 88560, Note_on_c, 4, 72, 0
6, 88560, Note_on_c, 4, 72, 100
6, 88680, Note_on_c, 4, 72, 0
6, 88680, Note_on_c, 4, 72, 100
6, 88800, Note_on_c, 4, 72, 0
6, 88800, Note_on_c, 4, 72, 100
6, 88920, Note_on_c, 4, 72, 0
6, 88920, Note_on_c, 4, 72, 100
6, 89280, Note_on_c, 4, 72, 0
6, 90000, Note_on_c, 4, 72, 100
6, 90120, Note_on_c, 4, 72, 0
6, 90120, Note_on_c, 4, 72, 100
6, 90240, Note_on_c, 4, 72, 0
6, 90240, Note_on_c, 4, 72, 100
6, 90360, Note_on_c, 4, 72, 0
6, 91800, Note_on_c, 4, 72, 100
6, 91920, Note_on_c, 4, 72, 0
6, 91920, Note_on_c, 4, 72, 100
6, 92040, Note_on_c, 4, 72, 0
6, 92040, Note_on_c, 4, 72, 100
6, 92160, Note_on_c, 4, 72, 0
6, 99000, Note_on_c, 4, 77, 100
6, 99120, Note_on_c, 4, 77, 0
6, 99120, Note_on_c, 4, 77, 100
6, 99240, Note_on_c, 4, 77, 0
6, 99240, Note_on_c, 4, 77, 100
6, 99360, Note_on_c, 4, 77, 0
6, 99720, Note_on_c, 4, 77, 100
6, 99840, Note_on_c, 4, 77, 0
6, 99840, Note_on_c, 4, 77, 100
6, 99960, Note_on_c, 4, 77, 0
6, 99960, Note_on_c, 4, 77, 100
6, 100080, Note_on_c, 4, 77, 0
6, 100440, Note_on_c, 4, 77, 100
6, 100560, Note_on_c, 4, 77, 0
6, 100560, Note_on_c, 4, 77, 100
6, 100680, Note_on_c, 4, 77, 0
6, 100680, Note_on_c, 4, 77, 100
6, 100800, Note_on_c, 4, 77, 0
6, 101160, Note_on_c, 4, 77, 100
6, 101280, Note_on_c, 4, 77, 0
6, 101280, Note_on_c, 4, 77, 100
6, 101400, Note_on_c, 4, 77, 0
6, 101400, Note_on_c, 4, 77, 100
6, 101520, Note_on_c, 4, 77, 0
6, 101880, Note_on_c, 4, 77, 100
6, 102000, Note_on_c, 4, 77, 0
6, 102000, Note_on_c, 4, 77, 100
6, 102120, Note_on_c, 4, 77, 0
6, 102120, Note_on_c, 4, 77, 100
6, 102240, Note_on_c, 4, 77, 0
6, 102240, Note_on_c, 4, 77, 100
6, 102360, Note_on_c, 4, 77, 0
6, 102360, Note_on_c, 4, 77, 100
6, 102480, Note_on_c, 4, 77, 0
6, 102480, Note_on_c, 4, 77, 100
6, 102600, Note_on_c, 4, 77, 0
6, 102600, Note_on_c, 4, 77, 100
6, 102720, Note_on_c, 4, 77, 0
6, 104280, Note_on_c, 4, 69, 100
6, 104400, Note_on_c, 4, 69, 0
6, 104400, Note_on_c, 4, 69, 100
6, 104520, Note_on_c, 4, 69, 0
6, 104640, Note_on_c, 4, 69, 100
6, 104760, Note_on_c, 4, 69, 0
6, 104760, Note_on_c, 4, 69, 100
6, 104880, Note_on_c, 4, 69, 0
6, 105000, Note_on_c, 4, 69, 100
6, 105120, Note_on_c, 4, 69, 0
6, 105120, Note_on_c, 4, 69, 100
6, 105240, Note_on_c, 4, 69, 0
6, 105360, Note_on_c, 4, 69, 100
6, 105480, Note_on_c, 4, 69, 0
6, 105480, Note_on_c, 4, 69, 100
6, 105600, Note_on_c, 4, 69, 0
6, 105720, Note_on_c, 4, 69, 100
6, 105840, Note_on_c, 4, 69, 0
6, 105840, Note_on_c, 4, 69, 100
6, 105960, Note_on_c, 4, 69, 0
6, 107280, Note_on_c, 4, 66, 100
6, 107280, Note_on_c, 4, 74, 100
6, 107580, Note_on_c, 4, 74, 0
6, 107580, Note_on_c, 4, 66, 0
6, 107580, Note_on_c, 4, 76, 100
6, 107580, Note_on_c, 4, 69, 100
6, 107640, Note_on_c, 4, 69, 0
6, 107640, Note_on_c, 4, 76, 0
6, 107640, Note_on_c, 4, 66, 100
6, 107640, Note_on_c, 4, 74, 100
6, 107760, Note_on_c, 4, 74, 0
6, 107760, Note_on_c, 4, 66, 0
6, 108000, Note_on_c, 4, 74, 100
6, 108000, Note_on_c, 4, 66, 100
6, 108300, Note_on_c, 4, 66, 0
6, 108300, Note_on_c, 4, 74, 0
6, 108300, Note_on_c, 4, 69, 100
6, 108300, Note_on_c, 4, 76, 100
6, 108360, Note_on_c, 4, 76, 0
6, 108360, Note_on_c, 4, 69, 0
6, 108360, Note_on_c, 4, 66, 100
6, 108360, Note_on_c, 4, 74, 100
6, 108480, Note_on_c, 4, 74, 0
6, 108480, Note_on_c, 4, 66, 0
6, 108720, Note_on_c, 4, 66, 100
6, 108720, Note_on_c, 4, 74, 100
6, 108960, Note_on_c, 4, 74, 0
6, 108960, Note_on_c, 4, 66, 0
6, 108960, Note_on_c, 4, 69, 100
6, 108960, Note_on_c, 4, 76, 100
6, 109080, Note_on_c, 4, 76, 0
6, 109080, Note_on_c, 4, 69, 0
6, 109080, Note_on_c, 4, 74, 100
6, 109080, Note_on_c, 4, 78, 100
6, 109200, Note_on_c, 4, 78, 0
6, 109200, Note_on_c, 4, 74, 0
6, 109200, Note_on_c, 4, 76, 100
6, 109200, Note_on_c, 4, 79, 100
6, 109320, Note_on_c, 4, 79, 0
6, 109320, Note_on_c, 4, 76, 0
6, 109320, Note_on_c, 4, 74, 100
6, 109320, Note_on_c, 4, 78, 100
6, 109440, Note_on_c, 4, 78, 0
6, 109440, Note_on_c, 4, 74, 0
6, 109440, Note_on_c, 4, 69, 100
6, 109440, Note_on_c, 4, 76, 100
6, 109560, Note_on_c, 4, 76, 0
6, 109560, Note_on_c, 4, 69, 0
6, 110160, Note_on_c, 4, 69, 100
6, 110160, Note_on_c, 4, 76, 100
6, 110460, Note_on_c, 4, 76, 0
6, 110460, Note_on_c, 4, 78, 100
6, 110520, Note_on_c, 4, 78, 0
6, 110520, Note_on_c, 4, 76, 100
6, 110640, Note_on_c, 4, 76, 0
6, 110640, Note_on_c, 4, 69, 0
6, 110880, Note_on_c, 4, 76, 100
6, 110880, Note_on_c, 4, 69, 100
6, 111180, Note_on_c, 4, 76, 0
6, 111180, Note_on_c, 4, 78, 100
6, 111240, Note_on_c, 4, 78, 0
6, 111240, Note_on_c, 4, 76, 100
6, 111360, Note_on_c, 4, 76, 0
6, 111360, Note_on_c, 4, 69, 0
6, 111600, Note_on_c, 4, 69, 100
6, 111600, Note_on_c, 4, 76, 100
6, 111840, Note_on_c, 4, 76, 0
6, 111840, Note_on_c, 4, 69, 0
6, 111840, Note_on_c, 4, 74, 100
6, 111840, Note_on_c, 4, 78, 100
6, 111960, Note_on_c, 4, 78, 0
6, 111960, Note_on_c, 4, 74, 0
6, 111960, Note_on_c, 4, 78, 100
6, 111960, Note_on_c, 4, 81, 100
6, 112080, Note_on_c, 4, 81, 0
6, 112080, Note_on_c, 4, 78, 0
6, 112080, Note_on_c, 4, 76, 100
6, 112080, Note_on_c, 4, 79, 100
6, 112200, Note_on_c, 4, 79, 0
6, 112200, Note_on_c, 4, 76, 0
6, 112200, Note_on_c, 4, 69, 100
6, 112200, Note_on_c, 4, 76, 100
6, 112320, Note_on_c, 4, 76, 0
6, 112320, Note_on_c, 4, 69, 0
6, 112320, Note_on_c, 4, 66, 100
6, 112320, Note_on_c, 4, 74, 100
6, 112440, Note_on_c, 4, 74, 0
6, 112440, Note_on_c, 4, 66, 0
6, 113040, Note_on_c, 4, 66, 100
6, 113040, Note_on_c, 4, 74, 100
6, 113340, Note_on_c, 4, 74, 0
6, 113340, Note_on_c, 4, 66, 0
6, 113340, Note_on_c, 4, 69, 100
6, 113340, Note_on_c, 4, 76, 100
6, 113400, Note_on_c, 4, 76, 0
6, 113400, Note_on_c, 4, 69, 0
6, 113400, Note_on_c, 4, 66, 100
6, 113400, Note_on_c, 4, 74, 100
6, 113520, Note_on_c, 4, 74, 0
6, 113520, Note_on_c, 4, 66, 0
6, 113760, Note_on_c, 4, 66, 100
6, 113760, Note_on_c, 4, 74, 100
6, 114060, Note_on_c, 4, 74, 0
6, 114060, Note_on_c, 4, 66, 0
6, 114060, Note_on_c, 4, 69, 100
6, 114060, Note_on_c, 4, 76, 100
6, 114120, Note_on_c, 4, 76, 0
6, 114120, Note_on_c, 4, 69, 0
6, 114120, Note_on_c, 4, 66, 100
6, 114120, Note_on_c, 4, 74, 100
6, 114240, Note_on_c, 4, 74, 0
6, 114240, Note_on_c, 4, 66, 0
6, 114480, Note_on_c, 4, 66, 100
6, 114480, Note_on_c, 4, 74, 100
6, 114720, Note_on_c, 4, 74, 0
6, 114720, Note_on_c, 4, 66, 0
6, 114720, Note_on_c, 4, 76, 100
6, 114720, Note_on_c, 4, 69, 100
6, 114840, Note_on_c, 4, 69, 0
6, 114840, Note_on_c, 4, 76, 0
6, 114840, Note_on_c, 4, 74, 100
6, 114840, Note_on_c, 4, 78, 100
6, 114960, Note_on_c, 4, 78, 0
6, 114960, Note_on_c, 4, 74, 0
6, 114960, Note_on_c, 4, 76, 100
6, 114960, Note_on_c, 4, 79, 100
6, 115080, Note_on_c, 4, 79, 0
6, 115080, Note_on_c, 4, 76, 0
6, 115080, Note_on_c, 4, 74, 100
6, 115080, Note_on_c, 4, 78, 100
6, 115200, Note_on_c, 4, 78, 0
6, 115200, Note_on_c, 4, 74, 0
6, 115200, Note_on_c, 4, 69, 100
6, 115200, Note_on_c, 4, 76, 100
6, 115320, Note_on_c, 4, 76, 0
6, 115320, Note_on_c, 4, 69, 0
6, 115920, Note_on_c, 4, 69, 100
6, 115920, Note_on_c, 4, 76, 100
6, 116220, Note_on_c, 4, 76, 0
6, 116220, Note_on_c, 4, 78, 100
6, 116280, Note_on_c, 4, 78, 0
6, 116280, Note_on_c, 4, 76, 100
6, 116400, Note_on_c, 4, 76, 0
6, 116400, Note_on_c, 4, 69, 0
6, 116640, Note_on_c, 4, 69, 100
6, 116640, Note_on_c, 4, 76, 100
6, 116940, Note_on_c, 4, 76, 0
6, 116940, Note_on_c, 4, 78, 100
6, 117000, Note_on_c, 4, 78, 0
6, 117000, Note_on_c, 4, 76, 100
6, 117120, Note_on_c, 4, 76, 0
6, 117120, Note_on_c, 4, 69, 0
6, 117360, Note_on_c, 4, 69, 100
6, 117360, Note_on_c, 4, 76, 100
6, 117600, Note_on_c, 4, 76, 0
6, 117600, Note_on_c, 4, 69, 0
6, 117600, Note_on_c, 4, 74, 100
6, 117600, Note_on_c, 4, 78, 100
6, 117720, Note_on_c, 4, 78, 0
6, 117720, Note_on_c, 4, 74, 0
6, 117720, Note_on_c, 4, 81, 100
6, 117720, Note_on_c, 4, 78, 100
6, 117840, Note_on_c, 4, 78, 0
6, 117840, Note_on_c, 4, 81, 0
6, 117840, Note_on_c, 4, 76, 100
6, 117840, Note_on_c, 4, 79, 100
6, 117960, Note_on_c, 4, 79, 0
6, 117960, Note_on_c, 4, 76, 0
6, 117960, Note_on_c, 4, 76, 100
6, 117960, Note_on_c, 4, 69, 100
6, 118080, Note_on_c, 4, 69, 0
6, 118080, Note_on_c, 4, 76, 0
6, 118080, Note_on_c, 4, 66, 100
6, 118080, Note_on_c, 4, 74, 100
6, 118200, Note_on_c, 4, 74, 0
6, 118200, Note_on_c, 4, 66, 0
6, 118800, Note_on_c, 4, 57, 100
6, 119100, Note_on_c, 4, 57, 0
6, 119100, Note_on_c, 4, 56, 100
6, 119160, Note_on_c, 4, 56, 0
6, 119160, Note_on_c, 4, 57, 100
6, 119280, Note_on_c, 4, 57, 0
6, 119520, Note_on_c, 4, 57, 100
6, 119820, Note_on_c, 4, 57, 0
6, 119820, Note_on_c, 4, 56, 100
6, 119880, Note_on_c, 4, 56, 0
6, 119880, Note_on_c, 4, 57, 100
6, 120000, Note_on_c, 4, 57, 0
6, 120240, Note_on_c, 4, 57, 100
6, 120540, Note_on_c, 4, 57, 0
6, 120540, Note_on_c, 4, 56, 100
6, 120600, Note_on_c, 4, 56, 0
6, 120600, Note_on_c, 4, 57, 100
6, 120720, Note_on_c, 4, 57, 0
6, 120960, Note_on_c, 4, 57, 100
6, 121260, Note_on_c, 4, 57, 0
6, 121260, Note_on_c, 4, 56, 100
6, 121320, Note_on_c, 4, 56, 0
6, 121320, Note_on_c, 4, 57, 100
6, 121440, Note_on_c, 4, 57, 0
6, 121680, Note_on_c, 4, 57, 100
6, 121980, Note_on_c, 4, 57, 0
6, 121980, Note_on_c, 4, 56, 100
6, 122040, Note_on_c, 4, 56, 0
6, 122040, Note_on_c, 4, 57, 100
6, 122160, Note_on_c, 4, 57, 0
6, 122400, Note_on_c, 4, 57, 100
6, 122700, Note_on_c, 4, 57, 0
6, 122700, Note_on_c, 4, 56, 100
6, 122760, Note_on_c, 4, 56, 0
6, 122760, Note_on_c, 4, 57, 100
6, 122880, Note_on_c, 4, 57, 0
6, 123120, Note_on_c, 4, 57, 100
6, 123420, Note_on_c, 4, 57, 0
6, 123420, Note_on_c, 4, 56, 100
6, 123480, Note_on_c, 4, 56, 0
6, 123480, Note_on_c, 4, 57, 100
6, 123600, Note_on_c, 4, 57, 0
6, 123840, Note_on_c, 4, 57, 100
6, 124140, Note_on_c, 4, 57, 0
6, 124140, Note_on_c, 4, 56, 100
6, 124200, Note_on_c, 4, 56, 0
6, 124200, Note_on_c, 4, 57, 100
6, 124320, Note_on_c, 4, 57, 0
6, 124560, Note_on_c, 4, 57, 100
6, 124860, Note_on_c, 4, 57, 0
6, 124860, Note_on_c, 4, 56, 100
6, 124920, Note_on_c, 4, 56, 0
6, 124920, Note_on_c, 4, 57, 100
6, 125040, Note_on_c, 4, 57, 0
6, 125280, Note_on_c, 4, 57, 100
6, 125400, Note_on_c, 4, 57, 0
6, 125400, Note_on_c, 4, 56, 100
6, 125520, Note_on_c, 4, 56, 0
6, 125520, Note_on_c, 4, 57, 100
6, 125580, Note_on_c, 4, 57, 0
6, 125640, Note_on_c, 4, 56, 100
6, 125760, Note_on_c, 4, 56, 0
6, 125760, Note_on_c, 4, 57, 100
6, 125820, Note_on_c, 4, 57, 0
6, 125880, Note_on_c, 4, 56, 100
6, 126000, Note_on_c, 4, 56, 0
6, 126000, Note_on_c, 4, 57, 100
6, 126060, Note_on_c, 4, 57, 0
6, 126120, Note_on_c, 4, 56, 100
6, 126240, Note_on_c, 4, 56, 0
6, 126240, Note_on_c, 4, 57, 100
6, 126300, Note_on_c, 4, 57, 0
6, 126360, Note_on_c, 4, 56, 100
6, 126480, Note_on_c, 4, 56, 0
6, 126480, Note_on_c, 4, 57, 100
6, 126540, Note_on_c, 4, 57, 0
6, 126600, Note_on_c, 4, 56, 100
6, 126720, Note_on_c, 4, 56, 0
6, 126720, Note_on_c, 4, 57, 100
6, 126780, Note_on_c, 4, 57, 0
6, 126840, Note_on_c, 4, 56, 100
6, 126960, Note_on_c, 4, 56, 0
6, 126960, Note_on_c, 4, 57, 100
6, 127020, Note_on_c, 4, 57, 0
6, 127080, Note_on_c, 4, 56, 100
6, 127200, Note_on_c, 4, 56, 0
6, 127200, Note_on_c, 4, 57, 100
6, 127260, Note_on_c, 4, 57, 0
6, 127320, Note_on_c, 4, 56, 100
6, 127440, Note_on_c, 4, 56, 0
6, 127440, Note_on_c, 4, 57, 100
6, 127500, Note_on_c, 4, 57, 0
6, 127560, Note_on_c, 4, 69, 100
6, 127560, Note_on_c, 4, 56, 100
6, 127680, Note_on_c, 4, 56, 0
6, 127680, Note_on_c, 4, 57, 100
6, 127740, Note_on_c, 4, 57, 0
6, 127800, Note_on_c, 4, 69, 0
6, 127800, Note_on_c, 4, 69, 100
6, 127800, Note_on_c, 4, 56, 100
6, 127920, Note_on_c, 4, 56, 0
6, 127920, Note_on_c, 4, 57, 100
6, 127980, Note_on_c, 4, 57, 0
6, 128040, Note_on_c, 4, 69, 0
6, 128040, Note_on_c, 4, 69, 100
6, 128040, Note_on_c, 4, 57, 100
6, 128160, Note_on_c, 4, 57, 0
6, 128160, Note_on_c, 4, 69, 0
6, 128160, Note_on_c, 4, 74, 100
6, 128160, Note_on_c, 4, 66, 100
6, 128460, Note_on_c, 4, 66, 0
6, 128460, Note_on_c, 4, 74, 0
6, 128460, Note_on_c, 4, 69, 100
6, 128460, Note_on_c, 4, 76, 100
6, 128520, Note_on_c, 4, 76, 0
6, 128520, Note_on_c, 4, 69, 0
6, 128520, Note_on_c, 4, 66, 100
6, 128520, Note_on_c, 4, 74, 100
6, 128640, Note_on_c, 4, 74, 0
6, 128640, Note_on_c, 4, 66, 0
6, 128880, Note_on_c, 4, 66, 100
6, 128880, Note_on_c, 4, 74, 100
6, 129180, Note_on_c, 4, 74, 0
6, 129180, Note_on_c, 4, 66, 0
6, 129180, Note_on_c, 4, 69, 100
6, 129180, Note_on_c, 4, 76, 100
6, 129240, Note_on_c, 4, 76, 0
6, 129240, Note_on_c, 4, 69, 0
6, 129240, Note_on_c, 4, 66, 100
6, 129240, Note_on_c, 4, 74, 100
6, 129360, Note_on_c, 4, 74, 0
6, 129360, Note_on_c, 4, 66, 0
6, 129600, Note_on_c, 4, 66, 100
6, 129600, Note_on_c, 4, 74, 100
6, 129840, Note_on_c, 4, 74, 0
6, 129840, Note_on_c, 4, 66, 0
6, 129840, Note_on_c, 4, 69, 100
6, 129840, Note_on_c, 4, 76, 100
6, 129960, Note_on_c, 4, 76, 0
6, 129960, Note_on_c, 4, 69, 0
6, 129960, Note_on_c, 4, 74, 100
6, 129960, Note_on_c, 4, 78, 100
6, 130080, Note_on_c, 4, 78, 0
6, 130080, Note_on_c, 4, 74, 0
6, 130080, Note_on_c, 4, 69, 100
6, 130080, Note_on_c, 4, 76, 100
6, 130200, Note_on_c, 4, 76, 0
6, 130200, Note_on_c, 4, 69, 0
6, 130200, Note_on_c, 4, 74, 100
6, 130200, Note_on_c, 4, 78, 100
6, 130320, Note_on_c, 4, 78, 0
6, 130320, Note_on_c, 4, 74, 0
6, 130320, Note_on_c, 4, 69, 100
6, 130320, Note_on_c, 4, 76, 100
6, 130440, Note_on_c, 4, 76, 0
6, 130440, Note_on_c, 4, 69, 0
6, 131040, Note_on_c, 4, 79, 100
6, 131340, Note_on_c, 4, 79, 0
6, 131340, Note_on_c, 4, 78, 100
6, 131400, Note_on_c, 4, 78, 0
6, 131400, Note_on_c, 4, 79, 100
6, 131520, Note_on_c, 4, 79, 0
6, 131760, Note_on_c, 4, 79, 100
6, 132060, Note_on_c, 4, 79, 0
6, 132060, Note_on_c, 4, 78, 100
6, 132120, Note_on_c, 4, 78, 0
6, 132120, Note_on_c, 4, 79, 100
6, 132240, Note_on_c, 4, 79, 0
6, 132480, Note_on_c, 4, 79, 100
6, 132720, Note_on_c, 4, 79, 0
6, 132720, Note_on_c, 4, 78, 100
6, 132840, Note_on_c, 4, 78, 0
6, 132840, Note_on_c, 4, 81, 100
6, 132960, Note_on_c, 4, 81, 0
6, 132960, Note_on_c, 4, 79, 100
6, 133080, Note_on_c, 4, 79, 0
6, 133080, Note_on_c, 4, 76, 100
6, 133200, Note_on_c, 4, 76, 0
6, 133200, Note_on_c, 4, 74, 100
6, 133320, Note_on_c, 4, 74, 0
6, 133560, Note_on_c, 4, 69, 100
6, 133560, Note_on_c, 4, 81, 100
6, 133680, Note_on_c, 4, 81, 0
6, 133680, Note_on_c, 4, 69, 0
6, 133680, Note_on_c, 4, 66, 100
6, 133680, Note_on_c, 4, 78, 100
6, 133800, Note_on_c, 4, 78, 0
6, 133800, Note_on_c, 4, 66, 0
6, 133800, Note_on_c, 4, 62, 100
6, 133800, Note_on_c, 4, 74, 100
6, 133920, Note_on_c, 4, 74, 0
6, 133920, Note_on_c, 4, 62, 0
6, 133920, Note_on_c, 4, 57, 100
6, 134220, Note_on_c, 4, 57, 0
6, 134220, Note_on_c, 4, 56, 100
6, 134280, Note_on_c, 4, 56, 0
6, 134280, Note_on_c, 4, 57, 100
6, 134400, Note_on_c, 4, 57, 0
6, 134640, Note_on_c, 4, 57, 100
6, 134940, Note_on_c, 4, 57, 0
6, 134940, Note_on_c, 4, 56, 100
6, 135000, Note_on_c, 4, 56, 0
6, 135000, Note_on_c, 4, 57, 100
6, 135120, Note_on_c, 4, 57, 0
6, 135360, Note_on_c, 4, 57, 100
6, 135660, Note_on_c, 4, 57, 0
6, 135660, Note_on_c, 4, 56, 100
6, 135720, Note_on_c, 4, 56, 0
6, 135720, Note_on_c, 4, 57, 100
6, 135840, Note_on_c, 4, 57, 0
6, 136080, Note_on_c, 4, 57, 100
6, 136380, Note_on_c, 4, 57, 0
6, 136380, Note_on_c, 4, 56, 100
6, 136440, Note_on_c, 4, 56, 0
6, 136440, Note_on_c, 4, 57, 100
6, 136560, Note_on_c, 4, 57, 0
6, 136800, Note_on_c, 4, 57, 100
6, 137100, Note_on_c, 4, 57, 0
6, 137100, Note_on_c, 4, 56, 100
6, 137160, Note_on_c, 4, 56, 0
6, 137160, Note_on_c, 4, 57, 100
6, 137280, Note_on_c, 4, 57, 0
6, 137520, Note_on_c, 4, 57, 100
6, 137820, Note_on_c, 4, 57, 0
6, 137820, Note_on_c, 4, 56, 100
6, 137880, Note_on_c, 4, 56, 0
6, 137880, Note_on_c, 4, 57, 100
6, 138000, Note_on_c, 4, 57, 0
6, 138240, Note_on_c, 4, 57, 100
6, 138540, Note_on_c, 4, 57, 0
6, 138540, Note_on_c, 4, 56, 100
6, 138600, Note_on_c, 4, 56, 0
6, 138600, Note_on_c, 4, 57, 100
6, 138720, Note_on_c, 4, 57, 0
6, 138960, Note_on_c, 4, 57, 100
6, 139260, Note_on_c, 4, 57, 0
6, 139260, Note_on_c, 4, 56, 100
6, 139320, Note_on_c, 4, 56, 0
6, 139320, Note_on_c, 4, 57, 100
6, 139440, Note_on_c, 4, 57, 0
6, 139680, Note_on_c, 4, 57, 100
6, 139980, Note_on_c, 4, 57, 0
6, 139980, Note_on_c, 4, 56, 100
6, 140040, Note_on_c, 4, 56, 0
6, 140040, Note_on_c, 4, 57, 100
6, 140160, Note_on_c, 4, 57, 0
6, 140400, Note_on_c, 4, 57, 100
6, 140520, Note_on_c, 4, 57, 0
6, 140520, Note_on_c, 4, 56, 100
6, 140640, Note_on_c, 4, 56, 0
6, 140640, Note_on_c, 4, 57, 100
6, 140700, Note_on_c, 4, 57, 0
6, 140760, Note_on_c, 4, 56, 100
6, 140880, Note_on_c, 4, 56, 0
6, 140880, Note_on_c, 4, 57, 100
6, 140940, Note_on_c, 4, 57, 0
6, 141000, Note_on_c, 4, 56, 100
6, 141120, Note_on_c, 4, 56, 0
6, 141120, Note_on_c, 4, 57, 100
6, 141180, Note_on_c, 4, 57, 0
6, 141240, Note_on_c, 4, 56, 100
6, 141360, Note_on_c, 4, 56, 0
6, 141360, Note_on_c, 4, 57, 100
6, 141420, Note_on_c, 4, 57, 0
6, 141480, Note_on_c, 4, 56, 100
6, 141600, Note_on_c, 4, 56, 0
6, 141600, Note_on_c, 4, 57, 100
6, 141660, Note_on_c, 4, 57, 0
6, 141720, Note_on_c, 4, 56, 100
6, 141840, Note_on_c, 4, 56, 0
6, 141840, Note_on_c, 4, 57, 100
6, 141900, Note_on_c, 4, 57, 0
6, 141960, Note_on_c, 4, 56, 100
6, 142080, Note_on_c, 4, 56, 0
6, 142080, Note_on_c, 4, 57, 100
6, 142140, Note_on_c, 4, 57, 0
6, 142200, Note_on_c, 4, 56, 100
6, 142320, Note_on_c, 4, 56, 0
6, 142320, Note_on_c, 4, 57, 100
6, 142380, Note_on_c, 4, 57, 0
6, 142440, Note_on_c, 4, 56, 100
6, 142560, Note_on_c, 4, 56, 0
6, 142560, Note_on_c, 4, 57, 100
6, 142620, Note_on_c, 4, 57, 0
6, 142680, Note_on_c, 4, 69, 100
6, 142680, Note_on_c, 4, 56, 100
6, 142800, Note_on_c, 4, 56, 0
6, 142800, Note_on_c, 4, 57, 100
6, 142860, Note_on_c, 4, 57, 0
6, 142920, Note_on_c, 4, 69, 0
6, 142920, Note_on_c, 4, 69, 100
6, 142920, Note_on_c, 4, 56, 100
6, 143040, Note_on_c, 4, 56, 0
6, 143040, Note_on_c, 4, 57, 100
6, 143100, Note_on_c, 4, 57, 0
6, 143160, Note_on_c, 4, 69, 0
6, 143160, Note_on_c, 4, 69, 100
6, 143160, Note_on_c, 4, 57, 100
6, 143280, Note_on_c, 4, 57, 0
6, 143280, Note_on_c, 4, 69, 0
6, 143280, Note_on_c, 4, 74, 100
6, 143280, Note_on_c, 4, 66, 100
6, 143580, Note_on_c, 4, 66, 0
6, 143580, Note_on_c, 4, 74, 0
6, 143580, Note_on_c, 4, 69, 100
6, 143580, Note_on_c, 4, 76, 100
6, 143640, Note_on_c, 4, 76, 0
6, 143640, Note_on_c, 4, 69, 0
6, 143640, Note_on_c, 4, 66, 100
6, 143640, Note_on_c, 4, 74, 100
6, 143760, Note_on_c, 4, 74, 0
6, 143760, Note_on_c, 4, 66, 0
6, 144000, Note_on_c, 4, 66, 100
6, 144000, Note_on_c, 4, 74, 100
6, 144300, Note_on_c, 4, 74, 0
6, 144300, Note_on_c, 4, 66, 0
6, 144300, Note_on_c, 4, 69, 100
6, 144300, Note_on_c, 4, 76, 100
6, 144360, Note_on_c, 4, 76, 0
6, 144360, Note_on_c, 4, 69, 0
6, 144360, Note_on_c, 4, 66, 100
6, 144360, Note_on_c, 4, 74, 100
6, 144480, Note_on_c, 4, 74, 0
6, 144480, Note_on_c, 4, 66, 0
6, 144720, Note_on_c, 4, 66, 100
6, 144720, Note_on_c, 4, 74, 100
6, 144960, Note_on_c, 4, 74, 0
6, 144960, Note_on_c, 4, 66, 0
6, 144960, Note_on_c, 4, 69, 100
6, 144960, Note_on_c, 4, 76, 100
6, 145080, Note_on_c, 4, 76, 0
6, 145080, Note_on_c, 4, 69, 0
6, 145080, Note_on_c, 4, 74, 100
6, 145080, Note_on_c, 4, 78, 100
6, 145200, Note_on_c, 4, 78, 0
6, 145200, Note_on_c, 4, 74, 0
6, 145200, Note_on_c, 4, 69, 100
6, 145200, Note_on_c, 4, 76, 100
6, 145320, Note_on_c, 4, 76, 0
6, 145320, Note_on_c, 4, 69, 0
6, 145320, Note_on_c, 4, 74, 100
6, 145320, Note_on_c, 4, 78, 100
6, 145440, Note_on_c, 4, 78, 0
6, 145440, Note_on_c, 4, 74, 0
6, 145440, Note_on_c, 4, 69, 100
6, 145440, Note_on_c, 4, 76, 100
6, 145560, Note_on_c, 4, 76, 0
6, 145560, Note_on_c, 4, 69, 0
6, 146160, Note_on_c, 4, 79, 100
6, 146460, Note_on_c, 4, 79, 0
6, 146460, Note_on_c, 4, 78, 100
6, 146520, Note_on_c, 4, 78, 0
6, 146520, Note_on_c, 4, 79, 100
6, 146640, Note_on_c, 4, 79, 0
6, 146880, Note_on_c, 4, 79, 100
6, 147180, Note_on_c, 4, 79, 0
6, 147180, Note_on_c, 4, 78, 100
6, 147240, Note_on_c, 4, 78, 0
6, 147240, Note_on_c, 4, 79, 100
6, 147360, Note_on_c, 4, 79, 0
6, 147600, Note_on_c, 4, 79, 100
6, 147840, Note_on_c, 4, 79, 0
6, 147840, Note_on_c, 4, 78, 100
6, 147960, Note_on_c, 4, 78, 0
6, 147960, Note_on_c, 4, 81, 100
6, 148080, Note_on_c, 4, 81, 0
6, 148080, Note_on_c, 4, 79, 100
6, 148200, Note_on_c, 4, 79, 0
6, 148200, Note_on_c, 4, 76, 100
6, 148320, Note_on_c, 4, 76, 0
6, 148320, Note_on_c, 4, 74, 100
6, 148440, Note_on_c, 4, 74, 0
6, 148680, Note_on_c, 4, 69, 100
6, 148680, Note_on_c, 4, 81, 100
6, 148800, Note_on_c, 4, 81, 0
6, 148800, Note_on_c, 4, 69, 0
6, 148800, Note_on_c, 4, 66, 100
6, 148800, Note_on_c, 4, 78, 100
6, 148920, Note_on_c, 4, 78, 0
6, 148920, Note_on_c, 4, 66, 0
6, 148920, Note_on_c, 4, 62, 100
6, 148920, Note_on_c, 4, 74, 100
6, 149040, Note_on_c, 4, 74, 0
6, 149040, Note_on_c, 4, 62, 0
6, 149040, Note_on_c, 4, 57, 100
6, 149040, Note_on_c, 4, 69, 100
6, 149160, Note_on_c, 4, 69, 0
6, 149340, Note_on_c, 4, 57, 0
6, 149340, Note_on_c, 4, 56, 100
6, 149400, Note_on_c, 4, 56, 0
6, 149400, Note_on_c, 4, 57, 100
6, 149520, Note_on_c, 4, 57, 0
6, 149760, Note_on_c, 4, 57, 100
6, 150060, Note_on_c, 4, 57, 0
6, 150060, Note_on_c, 4, 56, 100
6, 150120, Note_on_c, 4, 56, 0
6, 150120, Note_on_c, 4, 57, 100
6, 150240, Note_on_c, 4, 57, 0
6, 150480, Note_on_c, 4, 57, 100
6, 150780, Note_on_c, 4, 57, 0
6, 150780, Note_on_c, 4, 56, 100
6, 150840, Note_on_c, 4, 56, 0
6, 150840, Note_on_c, 4, 57, 100
6, 150960, Note_on_c, 4, 57, 0
6, 151200, Note_on_c, 4, 57, 100
6, 151500, Note_on_c, 4, 57, 0
6, 151500, Note_on_c, 4, 56, 100
6, 151560, Note_on_c, 4, 56, 0
6, 151560, Note_on_c, 4, 57, 100
6, 151680, Note_on_c, 4, 57, 0
6, 151920, Note_on_c, 4, 57, 100
6, 152220, Note_on_c, 4, 57, 0
6, 152220, Note_on_c, 4, 56, 100
6, 152280, Note_on_c, 4, 56, 0
6, 152280, Note_on_c, 4, 57, 100
6, 152400, Note_on_c, 4, 57, 0
6, 152640, Note_on_c, 4, 57, 100
6, 152940, Note_on_c, 4, 57, 0
6, 152940, Note_on_c, 4, 56, 100
6, 153000, Note_on_c, 4, 56, 0
6, 153000, Note_on_c, 4, 57, 100
6, 153120, Note_on_c, 4, 57, 0
6, 153960, Note_on_c, 4, 69, 100
6, 154080, Note_on_c, 4, 69, 0
6, 154080, Note_on_c, 4, 69, 100
6, 154200, Note_on_c, 4, 69, 0
6, 154320, Note_on_c, 4, 69, 100
6, 154440, Note_on_c, 4, 69, 0
6, 154440, Note_on_c, 4, 69, 100
6, 154560, Note_on_c, 4, 69, 0
6, 154680, Note_on_c, 4, 69, 100
6, 154800, Note_on_c, 4, 69, 0
6, 154800, Note_on_c, 4, 69, 100
6, 154920, Note_on_c, 4, 69, 0
6, 159840, Note_on_c, 4, 76, 100
6, 160200, Note_on_c, 4, 76, 0
6, 160200, Note_on_c, 4, 76, 100
6, 160320, Note_on_c, 4, 76, 0
6, 160560, Note_on_c, 4, 76, 100
6, 160920, Note_on_c, 4, 76, 0
6, 160920, Note_on_c, 4, 76, 100
6, 161040, Note_on_c, 4, 76, 0
6, 161280, Note_on_c, 4, 76, 100
6, 161640, Note_on_c, 4, 76, 0
6, 161640, Note_on_c, 4, 69, 100
6, 161640, Note_on_c, 4, 76, 100
6, 161760, Note_on_c, 4, 76, 0
6, 161760, Note_on_c, 4, 69, 0
6, 161760, Note_on_c, 4, 69, 100
6, 161760, Note_on_c, 4, 76, 100
6, 161880, Note_on_c, 4, 76, 0
6, 161880, Note_on_c, 4, 69, 0
6, 161880, Note_on_c, 4, 69, 100
6, 161880, Note_on_c, 4, 76, 100
6, 162000, Note_on_c, 4, 76, 0
6, 162000, Note_on_c, 4, 69, 0
6, 162000, Note_on_c, 4, 76, 100
6, 162000, Note_on_c, 4, 69, 100
6, 162120, Note_on_c, 4, 69, 0
6, 162120, Note_on_c, 4, 76, 0
6, 162120, Note_on_c, 4, 57, 100
6, 162120, Note_on_c, 4, 69, 100
6, 162240, Note_on_c, 4, 69, 0
6, 162240, Note_on_c, 4, 57, 0
6, 162240, Note_on_c, 4, 57, 100
6, 162240, Note_on_c, 4, 69, 100
6, 162360, Note_on_c, 4, 69, 0
6, 162360, Note_on_c, 4, 57, 0
6, 162360, Note_on_c, 4, 57, 100
6, 162360, Note_on_c, 4, 69, 100
6, 162480, Note_on_c, 4, 69, 0
6, 162480, Note_on_c, 4, 57, 0
6, 162600, Note_on_c, 4, 69, 100
6, 162720, Note_on_c, 4, 69, 0
6, 162720, Note_on_c, 4, 69, 100
6, 162840, Note_on_c, 4, 69, 0
6, 162960, Note_on_c, 4, 69, 100
6, 163080, Note_on_c, 4, 69, 0
6, 163080, Note_on_c, 4, 69, 100
6, 163200, Note_on_c, 4, 69, 0
6, 163320, Note_on_c, 4, 69, 100
6, 163440, Note_on_c, 4, 69, 0
6, 163440, Note_on_c, 4, 69, 100
6, 163560, Note_on_c, 4, 69, 0
6, 168480, Note_on_c, 4, 76, 100
6, 168840, Note_on_c, 4, 76, 0
6, 168840, Note_on_c, 4, 76, 100
6, 168960, Note_on_c, 4, 76, 0
6, 169200, Note_on_c, 4, 76, 100
6, 169560, Note_on_c, 4, 76, 0
6, 169560, Note_on_c, 4, 76, 100
6, 169680, Note_on_c, 4, 76, 0
6, 169920, Note_on_c, 4, 76, 100
6, 170280, Note_on_c, 4, 76, 0
6, 170280, Note_on_c, 4, 69, 100
6, 170280, Note_on_c, 4, 76, 100
6, 170400, Note_on_c, 4, 76, 0
6, 170400, Note_on_c, 4, 69, 0
6, 170400, Note_on_c, 4, 69, 100
6, 170400, Note_on_c, 4, 76, 100
6, 170520, Note_on_c, 4, 76, 0
6, 170520, Note_on_c, 4, 69, 0
6, 170520, Note_on_c, 4, 69, 100
6, 170520, Note_on_c, 4, 76, 100
6, 170640, Note_on_c, 4, 76, 0
6, 170640, Note_on_c, 4, 69, 0
6, 170640, Note_on_c, 4, 76, 100
6, 170640, Note_on_c, 4, 69, 100
6, 170760, Note_on_c, 4, 69, 0
6, 170760, Note_on_c, 4, 76, 0
6, 170760, Note_on_c, 4, 57, 100
6, 170760, Note_on_c, 4, 69, 100
6, 170880, Note_on_c, 4, 69, 0
6, 170880, Note_on_c, 4, 57, 0
6, 170880, Note_on_c, 4, 57, 100
6, 170880, Note_on_c, 4, 69, 100
6, 171000, Note_on_c, 4, 69, 0
6, 171000, Note_on_c, 4, 57, 0
6, 171000, Note_on_c, 4, 57, 100
6, 171000, Note_on_c, 4, 69, 100
6, 171120, Note_on_c, 4, 69, 0
6, 171120, Note_on_c, 4, 57, 0
6, 177120, Note_on_c, 4, 74, 100
6, 178080, Note_on_c, 4, 74, 0
6, 178080, Note_on_c, 4, 79, 100
6, 178200, Note_on_c, 4, 79, 0
6, 178200, Note_on_c, 4, 79, 100
6, 178320, Note_on_c, 4, 79, 0
6, 183840, Note_on_c, 4, 69, 100
6, 183960, Note_on_c, 4, 69, 0
6, 183960, Note_on_c, 4, 69, 100
6, 184080, Note_on_c, 4, 69, 0
6, 194280, Note_on_c, 4, 72, 100
6, 194400, Note_on_c, 4, 72, 0
6, 194400, Note_on_c, 4, 72, 100
6, 194520, Note_on_c, 4, 72, 0
6, 194640, Note_on_c, 4, 72, 100
6, 194760, Note_on_c, 4, 72, 0
6, 194760, Note_on_c, 4, 72, 100
6, 194880, Note_on_c, 4, 72, 0
6, 195000, Note_on_c, 4, 72, 100
6, 195120, Note_on_c, 4, 72, 0
6, 195120, Note_on_c, 4, 72, 100
6, 195240, Note_on_c, 4, 72, 0
6, 195240, Note_on_c, 4, 72, 100
6, 195360, Note_on_c, 4, 72, 0
6, 195360, Note_on_c, 4, 72, 100
6, 195480, Note_on_c, 4, 72, 0
6, 195480, Note_on_c, 4, 72, 100
6, 195600, Note_on_c, 4, 72, 0
6, 195600, Note_on_c, 4, 72, 100
6, 195720, Note_on_c, 4, 72, 0
6, 195720, Note_on_c, 4, 72, 100
6, 195840, Note_on_c, 4, 72, 0
6, 195840, Note_on_c, 4, 72, 100
6, 195960, Note_on_c, 4, 72, 0
6, 195960, Note_on_c, 4, 72, 100
6, 196080, Note_on_c, 4, 72, 0
6, 196080, Note_on_c, 4, 72, 100
6, 196200, Note_on_c, 4, 72, 0
6, 196200, Note_on_c, 4, 72, 100
6, 196560, Note_on_c, 4, 72, 0
6, 196560, Note_on_c, 4, 72, 100
6, 196680, Note_on_c, 4, 72, 0
6, 196680, Note_on_c, 4, 72, 100
6, 196800, Note_on_c, 4, 72, 0
6, 196800, Note_on_c, 4, 72, 100
6, 196920, Note_on_c, 4, 72, 0
6, 196920, Note_on_c, 4, 72, 100
6, 197040, Note_on_c, 4, 72, 0
6, 197040, Note_on_c, 4, 72, 100
6, 197160, Note_on_c, 4, 72, 0
6, 197160, Note_on_c, 4, 72, 100
6, 197280, Note_on_c, 4, 72, 0
6, 197280, Note_on_c, 4, 72, 100
6, 197400, Note_on_c, 4, 72, 0
6, 197400, Note_on_c, 4, 72, 100
6, 197520, Note_on_c, 4, 72, 0
6, 197520, Note_on_c, 4, 72, 100
6, 197640, Note_on_c, 4, 72, 0
6, 197640, Note_on_c, 4, 72, 100
6, 198000, Note_on_c, 4, 72, 0
6, 198720, Note_on_c, 4, 72, 100
6, 198840, Note_on_c, 4, 72, 0
6, 198840, Note_on_c, 4, 72, 100
6, 198960, Note_on_c, 4, 72, 0
6, 198960, Note_on_c, 4, 72, 100
6, 199080, Note_on_c, 4, 72, 0
6, 200520, Note_on_c, 4, 72, 100
6, 200640, Note_on_c, 4, 72, 0
6, 200640, Note_on_c, 4, 72, 100
6, 200760, Note_on_c, 4, 72, 0
6, 200760, Note_on_c, 4, 72, 100
6, 200880, Note_on_c, 4, 72, 0
6, 207720, Note_on_c, 4, 77, 100
6, 207840, Note_on_c, 4, 77, 0
6, 207840, Note_on_c, 4, 77, 100
6, 207960, Note_on_c, 4, 77, 0
6, 207960, Note_on_c, 4, 77, 100
6, 208080, Note_on_c, 4, 77, 0
6, 208440, Note_on_c, 4, 77, 100
6, 208560, Note_on_c, 4, 77, 0
6, 208560, Note_on_c, 4, 77, 100
6, 208680, Note_on_c, 4, 77, 0
6, 208680, Note_on_c, 4, 77, 100
6, 208800, Note_on_c, 4, 77, 0
6, 209160, Note_on_c, 4, 77, 100
6, 209280, Note_on_c, 4, 77, 0
6, 209280, Note_on_c, 4, 77, 100
6, 209400, Note_on_c, 4, 77, 0
6, 209400, Note_on_c, 4, 77, 100
6, 209520, Note_on_c, 4, 77, 0
6, 209880, Note_on_c, 4, 77, 100
6, 210000, Note_on_c, 4, 77, 0
6, 210000, Note_on_c, 4, 77, 100
6, 210120, Note_on_c, 4, 77, 0
6, 210120, Note_on_c, 4, 77, 100
6, 210240, Note_on_c, 4, 77, 0
6, 210600, Note_on_c, 4, 77, 100
6, 210720, Note_on_c, 4, 77, 0
6, 210720, Note_on_c, 4, 77, 100
6, 210840, Note_on_c, 4, 77, 0
6, 210840, Note_on_c, 4, 77, 100
6, 210960, Note_on_c, 4, 77, 0
6, 210960, Note_on_c, 4, 77, 100
6, 211080, Note_on_c, 4, 77, 0
6, 211080, Note_on_c, 4, 77, 100
6, 211200, Note_on_c, 4, 77, 0
6, 211200, Note_on_c, 4, 77, 100
6, 211320, Note_on_c, 4, 77, 0
6, 211320, Note_on_c, 4, 77, 100
6, 211440, Note_on_c, 4, 77, 0
6, 213000, Note_on_c, 4, 69, 100
6, 213120, Note_on_c, 4, 69, 0
6, 213120, Note_on_c, 4, 69, 100
6, 213240, Note_on_c, 4, 69, 0
6, 213360, Note_on_c, 4, 69, 100
6, 213480, Note_on_c, 4, 69, 0
6, 213480, Note_on_c, 4, 69, 100
6, 213600, Note_on_c, 4, 69, 0
6, 213720, Note_on_c, 4, 69, 100
6, 213840, Note_on_c, 4, 69, 0
6, 213840, Note_on_c, 4, 69, 100
6, 213960, Note_on_c, 4, 69, 0
6, 214080, Note_on_c, 4, 69, 100
6, 214200, Note_on_c, 4, 69, 0
6, 214200, Note_on_c, 4, 69, 100
6, 214320, Note_on_c, 4, 69, 0
6, 214440, Note_on_c, 4, 69, 100
6, 214560, Note_on_c, 4, 69, 0
6, 214560, Note_on_c, 4, 69, 100
6, 214680, Note_on_c, 4, 69, 0
6, 216000, Note_on_c, 4, 66, 100
6, 216000, Note_on_c, 4, 74, 100
6, 216300, Note_on_c, 4, 74, 0
6, 216300, Note_on_c, 4, 66, 0
6, 216300, Note_on_c, 4, 76, 100
6, 216300, Note_on_c, 4, 69, 100
6, 216360, Note_on_c, 4, 69, 0
6, 216360, Note_on_c, 4, 76, 0
6, 216360, Note_on_c, 4, 66, 100
6, 216360, Note_on_c, 4, 74, 100
6, 216480, Note_on_c, 4, 74, 0
6, 216480, Note_on_c, 4, 66, 0
6, 216720, Note_on_c, 4, 74, 100
6, 216720, Note_on_c, 4, 66, 100
6, 217020, Note_on_c, 4, 66, 0
6, 217020, Note_on_c, 4, 74, 0
6, 217020, Note_on_c, 4, 69, 100
6, 217020, Note_on_c, 4, 76, 100
6, 217080, Note_on_c, 4, 76, 0
6, 217080, Note_on_c, 4, 69, 0
6, 217080, Note_on_c, 4, 66, 100
6, 217080, Note_on_c, 4, 74, 100
6, 217200, Note_on_c, 4, 74, 0
6, 217200, Note_on_c, 4, 66, 0
6, 217440, Note_on_c, 4, 66, 100
6, 217440, Note_on_c, 4, 74, 100
6, 217680, Note_on_c, 4, 74, 0
6, 217680, Note_on_c, 4, 66, 0
6, 217680, Note_on_c, 4, 69, 100
6, 217680, Note_on_c, 4, 76, 100
6, 217800, Note_on_c, 4, 76, 0
6, 217800, Note_on_c, 4, 69, 0
6, 217800, Note_on_c, 4, 74, 100
6, 217800, Note_on_c, 4, 78, 100
6, 217920, Note_on_c, 4, 78, 0
6, 217920, Note_on_c, 4, 74, 0
6, 217920, Note_on_c, 4, 76, 100
6, 217920, Note_on_c, 4, 79, 100
6, 218040, Note_on_c, 4, 79, 0
6, 218040, Note_on_c, 4, 76, 0
6, 218040, Note_on_c, 4, 74, 100
6, 218040, Note_on_c, 4, 78, 100
6, 218160, Note_on_c, 4, 78, 0
6, 218160, Note_on_c, 4, 74, 0
6, 218160, Note_on_c, 4, 69, 100
6, 218160, Note_on_c, 4, 76, 100
6, 218280, Note_on_c, 4, 76, 0
6, 218280, Note_on_c, 4, 69, 0
6, 218880, Note_on_c, 4, 69, 100
6, 218880, Note_on_c, 4, 76, 100
6, 219180, Note_on_c, 4, 76, 0
6, 219180, Note_on_c, 4, 78, 100
6, 219240, Note_on_c, 4, 78, 0
6, 219240, Note_on_c, 4, 76, 100
6, 219360, Note_on_c, 4, 76, 0
6, 219360, Note_on_c, 4, 69, 0
6, 219600, Note_on_c, 4, 76, 100
6, 219600, Note_on_c, 4, 69, 100
6, 219900, Note_on_c, 4, 76, 0
6, 219900, Note_on_c, 4, 78, 100
6, 219960, Note_on_c, 4, 78, 0
6, 219960, Note_on_c, 4, 76, 100
6, 220080, Note_on_c, 4, 76, 0
6, 220080, Note_on_c, 4, 69, 0
6, 220320, Note_on_c, 4, 69, 100
6, 220320, Note_on_c, 4, 76, 100
6, 220560, Note_on_c, 4, 76, 0
6, 220560, Note_on_c, 4, 69, 0
6, 220560, Note_on_c, 4, 74, 100
6, 220560, Note_on_c, 4, 78, 100
6, 220680, Note_on_c, 4, 78, 0
6, 220680, Note_on_c, 4, 74, 0
6, 220680, Note_on_c, 4, 78, 100
6, 220680, Note_on_c, 4, 81, 100
6, 220800, Note_on_c, 4, 81, 0
6, 220800, Note_on_c, 4, 78, 0
6, 220800, Note_on_c, 4, 76, 100
6, 220800, Note_on_c, 4, 79, 100
6, 220920, Note_on_c, 4, 79, 0
6, 220920, Note_on_c, 4, 76, 0
6, 220920, Note_on_c, 4, 69, 100
6, 220920, Note_on_c, 4, 76, 100
6, 221040, Note_on_c, 4, 76, 0
6, 221040, Note_on_c, 4, 69, 0
6, 221040, Note_on_c, 4, 66, 100
6, 221040, Note_on_c, 4, 74, 100
6, 221160, Note_on_c, 4, 74, 0
6, 221160, Note_on_c, 4, 66, 0
6, 221760, Note_on_c, 4, 66, 100
6, 221760, Note_on_c, 4, 74, 100
6, 222060, Note_on_c, 4, 74, 0
6, 222060, Note_on_c, 4, 66, 0
6, 222060, Note_on_c, 4, 69, 100
6, 222060, Note_on_c, 4, 76, 100
6, 222120, Note_on_c, 4, 76, 0
6, 222120, Note_on_c, 4, 69, 0
6, 222120, Note_on_c, 4, 66, 100
6, 222120, Note_on_c, 4, 74, 100
6, 222240, Note_on_c, 4, 74, 0
6, 222240, Note_on_c, 4, 66, 0
6, 222480, Note_on_c, 4, 66, 100
6, 222480, Note_on_c, 4, 74, 100
6, 222780, Note_on_c, 4, 74, 0
6, 222780, Note_on_c, 4, 66, 0
6, 222780, Note_on_c, 4, 69, 100
6, 222780, Note_on_c, 4, 76, 100
6, 222840, Note_on_c, 4, 76, 0
6, 222840, Note_on_c, 4, 69, 0
6, 222840, Note_on_c, 4, 66, 100
6, 222840, Note_on_c, 4, 74, 100
6, 222960, Note_on_c, 4, 74, 0
6, 222960, Note_on_c, 4, 66, 0
6, 223200, Note_on_c, 4, 66, 100
6, 223200, Note_on_c, 4, 74, 100
6, 223440, Note_on_c, 4, 74, 0
6, 223440, Note_on_c, 4, 66, 0
6, 223440, Note_on_c, 4, 76, 100
6, 223440, Note_on_c, 4, 69, 100
6, 223560, Note_on_c, 4, 69, 0
6, 223560, Note_on_c, 4, 76, 0
6, 223560, Note_on_c, 4, 74, 100
6, 223560, Note_on_c, 4, 78, 100
6, 223680, Note_on_c, 4, 78, 0
6, 223680, Note_on_c, 4, 74, 0
6, 223680, Note_on_c, 4, 76, 100
6, 223680, Note_on_c, 4, 79, 100
6, 223800, Note_on_c, 4, 79, 0
6, 223800, Note_on_c, 4, 76, 0
6, 223800, Note_on_c, 4, 74, 100
6, 223800, Note_on_c, 4, 78, 100
6, 223920, Note_on_c, 4, 78, 0
6, 223920, Note_on_c, 4, 74, 0
6, 223920, Note_on_c, 4, 69, 100
6, 223920, Note_on_c, 4, 76, 100
6, 224040, Note_on_c, 4, 76, 0
6, 224040, Note_on_c, 4, 69, 0
6, 224640, Note_on_c, 4, 69, 100
6, 224640, Note_on_c, 4, 76, 100
6, 224940, Note_on_c, 4, 76, 0
6, 224940, Note_on_c, 4, 78, 100
6, 225000, Note_on_c, 4, 78, 0
6, 225000, Note_on_c, 4, 76, 100
6, 225120, Note_on_c, 4, 76, 0
6, 225120, Note_on_c, 4, 69, 0
6, 225360, Note_on_c, 4, 69, 100
6, 225360, Note_on_c, 4, 76, 100
6, 225660, Note_on_c, 4, 76, 0
6, 225660, Note_on_c, 4, 78, 100
6, 225720, Note_on_c, 4, 78, 0
6, 225720, Note_on_c, 4, 76, 100
6, 225840, Note_on_c, 4, 76, 0
6, 225840, Note_on_c, 4, 69, 0
6, 226080, Note_on_c, 4, 69, 100
6, 226080, Note_on_c, 4, 76, 100
6, 226320, Note_on_c, 4, 76, 0
6, 226320, Note_on_c, 4, 69, 0
6, 226320, Note_on_c, 4, 74, 100
6, 226320, Note_on_c, 4, 78, 100
6, 226440, Note_on_c, 4, 78, 0
6, 226440, Note_on_c, 4, 74, 0
6, 226440, Note_on_c, 4, 81, 100
6, 226440, Note_on_c, 4, 78, 100
6, 226560, Note_on_c, 4, 78, 0
6, 226560, Note_on_c, 4, 81, 0
6, 226560, Note_on_c, 4, 76, 100
6, 226560, Note_on_c, 4, 79, 100
6, 226680, Note_on_c, 4, 79, 0
6, 226680, Note_on_c, 4, 76, 0
6, 226680, Note_on_c, 4, 76, 100
6, 226680, Note_on_c, 4, 69, 100
6, 226800, Note_on_c, 4, 69, 0
6, 226800, Note_on_c, 4, 76, 0
6, 226800, Note_on_c, 4, 66, 100
6, 226800, Note_on_c, 4, 74, 100
6, 226920, Note_on_c, 4, 74, 0
6, 226920, Note_on_c, 4, 66, 0
6, 227520, Note_on_c, 4, 57, 100
6, 227820, Note_on_c, 4, 57, 0
6, 227820, Note_on_c, 4, 56, 100
6, 227880, Note_on_c, 4, 56, 0
6, 227880, Note_on_c, 4, 57, 100
6, 228000, Note_on_c, 4, 57, 0
6, 228240, Note_on_c, 4, 57, 100
6, 228540, Note_on_c, 4, 57, 0
6, 228540, Note_on_c, 4, 56, 100
6, 228600, Note_on_c, 4, 56, 0
6, 228600, Note_on_c, 4, 57, 100
6, 228720, Note_on_c, 4, 57, 0
6, 228960, Note_on_c, 4, 57, 100
6, 229260, Note_on_c, 4, 57, 0
6, 229260, Note_on_c, 4, 56, 100
6, 229320, Note_on_c, 4, 56, 0
6, 229320, Note_on_c, 4, 57, 100
6, 229440, Note_on_c, 4, 57, 0
6, 229680, Note_on_c, 4, 57, 100
6, 229980, Note_on_c, 4, 57, 0
6, 229980, Note_on_c, 4, 56, 100
6, 230040, Note_on_c, 4, 56, 0
6, 230040, Note_on_c, 4, 57, 100
6, 230160, Note_on_c, 4, 57, 0
6, 230400, Note_on_c, 4, 57, 100
6, 230700, Note_on_c, 4, 57, 0
6, 230700, Note_on_c, 4, 56, 100
6, 230760, Note_on_c, 4, 56, 0
6, 230760, Note_on_c, 4, 57, 100
6, 230880, Note_on_c, 4, 57, 0
6, 231120, Note_on_c, 4, 57, 100
6, 231420, Note_on_c, 4, 57, 0
6, 231420, Note_on_c, 4, 56, 100
6, 231480, Note_on_c, 4, 56, 0
6, 231480, Note_on_c, 4, 57, 100
6, 231600, Note_on_c, 4, 57, 0
6, 231840, Note_on_c, 4, 57, 100
6, 232140, Note_on_c, 4, 57, 0
6, 232140, Note_on_c, 4, 56, 100
6, 232200, Note_on_c, 4, 56, 0
6, 232200, Note_on_c, 4, 57, 100
6, 232320, Note_on_c, 4, 57, 0
6, 232560, Note_on_c, 4, 57, 100
6, 232860, Note_on_c, 4, 57, 0
6, 232860, Note_on_c, 4, 56, 100
6, 232920, Note_on_c, 4, 56, 0
6, 232920, Note_on_c, 4, 57, 100
6, 233040, Note_on_c, 4, 57, 0
6, 233280, Note_on_c, 4, 57, 100
6, 233580, Note_on_c, 4, 57, 0
6, 233580, Note_on_c, 4, 56, 100
6, 233640, Note_on_c, 4, 56, 0
6, 233640, Note_on_c, 4, 57, 100
6, 233760, Note_on_c, 4, 57, 0
6, 234000, Note_on_c, 4, 57, 100
6, 234120, Note_on_c, 4, 57, 0
6, 234120, Note_on_c, 4, 56, 100
6, 234240, Note_on_c, 4, 56, 0
6, 234240, Note_on_c, 4, 57, 100
6, 234300, Note_on_c, 4, 57, 0
6, 234360, Note_on_c, 4, 56, 100
6, 234480, Note_on_c, 4, 56, 0
6, 234480, Note_on_c, 4, 57, 100
6, 234540, Note_on_c, 4, 57, 0
6, 234600, Note_on_c, 4, 56, 100
6, 234720, Note_on_c, 4, 56, 0
6, 234720, Note_on_c, 4, 57, 100
6, 234780, Note_on_c, 4, 57, 0
6, 234840, Note_on_c, 4, 56, 100
6, 234960, Note_on_c, 4, 56, 0
6, 234960, Note_on_c, 4, 57, 100
6, 235020, Note_on_c, 4, 57, 0
6, 235080, Note_on_c, 4, 56, 100
6, 235200, Note_on_c, 4, 56, 0
6, 235200, Note_on_c, 4, 57, 100
6, 235260, Note_on_c, 4, 57, 0
6, 235320, Note_on_c, 4, 56, 100
6, 235440, Note_on_c, 4, 56, 0
6, 235440, Note_on_c, 4, 57, 100
6, 235500, Note_on_c, 4, 57, 0
6, 235560, Note_on_c, 4, 56, 100
6, 235680, Note_on_c, 4, 56, 0
6, 235680, Note_on_c, 4, 57, 100
6, 235740, Note_on_c, 4, 57, 0
6, 235800, Note_on_c, 4, 56, 100
6, 235920, Note_on_c, 4, 56, 0
6, 235920, Note_on_c, 4, 57, 100
6, 235980, Note_on_c, 4, 57, 0
6, 236040, Note_on_c, 4, 56, 100
6, 236160, Note_on_c, 4, 56, 0
6, 236160, Note_on_c, 4, 57, 100
6, 236220, Note_on_c, 4, 57, 0
6, 236280, Note_on_c, 4, 69, 100
6, 236280, Note_on_c, 4, 56, 100
6, 236400, Note_on_c, 4, 56, 0
6, 236400, Note_on_c, 4, 57, 100
6, 236460, Note_on_c, 4, 57, 0
6, 236520, Note_on_c, 4, 69, 0
6, 236520, Note_on_c, 4, 69, 100
6, 236520, Note_on_c, 4, 56, 100
6, 236640, Note_on_c, 4, 56, 0
6, 236640, Note_on_c, 4, 57, 100
6, 236700, Note_on_c, 4, 57, 0
6, 236760, Note_on_c, 4, 69, 0
6, 236760, Note_on_c, 4, 69, 100
6, 236760, Note_on_c, 4, 57, 100
6, 236880, Note_on_c, 4, 57, 0
6, 236880, Note_on_c, 4, 69, 0
6, 236880, Note_on_c, 4, 74, 100
6, 236880, Note_on_c, 4, 66, 100
6, 237180, Note_on_c, 4, 66, 0
6, 237180, Note_on_c, 4, 74, 0
6, 237180, Note_on_c, 4, 69, 100
6, 237180, Note_on_c, 4, 76, 100
6, 237240, Note_on_c, 4, 76, 0
6, 237240, Note_on_c, 4, 69, 0
6, 237240, Note_on_c, 4, 66, 100
6, 237240, Note_on_c, 4, 74, 100
6, 237360, Note_on_c, 4, 74, 0
6, 237360, Note_on_c, 4, 66, 0
6, 237600, Note_on_c, 4, 66, 100
6, 237600, Note_on_c, 4, 74, 100
6, 237900, Note_on_c, 4, 74, 0
6, 237900, Note_on_c, 4, 66, 0
6, 237900, Note_on_c, 4, 69, 100
6, 237900, Note_on_c, 4, 76, 100
6, 237960, Note_on_c, 4, 76, 0
6, 237960, Note_on_c, 4, 69, 0
6, 237960, Note_on_c, 4, 66, 100
6, 237960, Note_on_c, 4, 74, 100
6, 238080, Note_on_c, 4, 74, 0
6, 238080, Note_on_c, 4, 66, 0
6, 238320, Note_on_c, 4, 66, 100
6, 238320, Note_on_c, 4, 74, 100
6, 238560, Note_on_c, 4, 74, 0
6, 238560, Note_on_c, 4, 66, 0
6, 238560, Note_on_c, 4, 69, 100
6, 238560, Note_on_c, 4, 76, 100
6, 238680, Note_on_c, 4, 76, 0
6, 238680, Note_on_c, 4, 69, 0
6, 238680, Note_on_c, 4, 74, 100
6, 238680, Note_on_c, 4, 78, 100
6, 238800, Note_on_c, 4, 78, 0
6, 238800, Note_on_c, 4, 74, 0
6, 238800, Note_on_c, 4, 69, 100
6, 238800, Note_on_c, 4, 76, 100
6, 238920, Note_on_c, 4, 76, 0
6, 238920, Note_on_c, 4, 69, 0
6, 238920, Note_on_c, 4, 74, 100
6, 238920, Note_on_c, 4, 78, 100
6, 239040, Note_on_c, 4, 78, 0
6, 239040, Note_on_c, 4, 74, 0
6, 239040, Note_on_c, 4, 69, 100
6, 239040, Note_on_c, 4, 76, 100
6, 239160, Note_on_c, 4, 76, 0
6, 239160, Note_on_c, 4, 69, 0
6, 239760, Note_on_c, 4, 79, 100
6, 240060, Note_on_c, 4, 79, 0
6, 240060, Note_on_c, 4, 78, 100
6, 240120, Note_on_c, 4, 78, 0
6, 240120, Note_on_c, 4, 79, 100
6, 240240, Note_on_c, 4, 79, 0
6, 240480, Note_on_c, 4, 79, 100
6, 240780, Note_on_c, 4, 79, 0
6, 240780, Note_on_c, 4, 78, 100
6, 240840, Note_on_c, 4, 78, 0
6, 240840, Note_on_c, 4, 79, 100
6, 240960, Note_on_c, 4, 79, 0
6, 241200, Note_on_c, 4, 79, 100
6, 241440, Note_on_c, 4, 79, 0
6, 241440, Note_on_c, 4, 78, 100
6, 241560, Note_on_c, 4, 78, 0
6, 241560, Note_on_c, 4, 81, 100
6, 241680, Note_on_c, 4, 81, 0
6, 241680, Note_on_c, 4, 79, 100
6, 241800, Note_on_c, 4, 79, 0
6, 241800, Note_on_c, 4, 76, 100
6, 241920, Note_on_c, 4, 76, 0
6, 241920, Note_on_c, 4, 74, 100
6, 242040, Note_on_c, 4, 74, 0
6, 242280, Note_on_c, 4, 69, 100
6, 242280, Note_on_c, 4, 81, 100
6, 242400, Note_on_c, 4, 81, 0
6, 242400, Note_on_c, 4, 69, 0
6, 242400, Note_on_c, 4, 66, 100
6, 242400, Note_on_c, 4, 78, 100
6, 242520, Note_on_c, 4, 78, 0
6, 242520, Note_on_c, 4, 66, 0
6, 242520, Note_on_c, 4, 62, 100
6, 242520, Note_on_c, 4, 74, 100
6, 242640, Note_on_c, 4, 74, 0
6, 242640, Note_on_c, 4, 62, 0
6, 242640, Note_on_c, 4, 57, 100
6, 242940, Note_on_c, 4, 57, 0
6, 242940, Note_on_c, 4, 56, 100
6, 243000, Note_on_c, 4, 56, 0
6, 243000, Note_on_c, 4, 57, 100
6, 243120, Note_on_c, 4, 57, 0
6, 243360, Note_on_c, 4, 57, 100
6, 243660, Note_on_c, 4, 57, 0
6, 243660, Note_on_c, 4, 56, 100
6, 243720, Note_on_c, 4, 56, 0
6, 243720, Note_on_c, 4, 57, 100
6, 243840, Note_on_c, 4, 57, 0
6, 244080, Note_on_c, 4, 57, 100
6, 244380, Note_on_c, 4, 57, 0
6, 244380, Note_on_c, 4, 56, 100
6, 244440, Note_on_c, 4, 56, 0
6, 244440, Note_on_c, 4, 57, 100
6, 244560, Note_on_c, 4, 57, 0
6, 244800, Note_on_c, 4, 57, 100
6, 245100, Note_on_c, 4, 57, 0
6, 245100, Note_on_c, 4, 56, 100
6, 245160, Note_on_c, 4, 56, 0
6, 245160, Note_on_c, 4, 57, 100
6, 245280, Note_on_c, 4, 57, 0
6, 245520, Note_on_c, 4, 57, 100
6, 245820, Note_on_c, 4, 57, 0
6, 245820, Note_on_c, 4, 56, 100
6, 245880, Note_on_c, 4, 56, 0
6, 245880, Note_on_c, 4, 57, 100
6, 246000, Note_on_c, 4, 57, 0
6, 246240, Note_on_c, 4, 57, 100
6, 246540, Note_on_c, 4, 57, 0
6, 246540, Note_on_c, 4, 56, 100
6, 246600, Note_on_c, 4, 56, 0
6, 246600, Note_on_c, 4, 57, 100
6, 246720, Note_on_c, 4, 57, 0
6, 246960, Note_on_c, 4, 57, 100
6, 247260, Note_on_c, 4, 57, 0
6, 247260, Note_on_c, 4, 56, 100
6, 247320, Note_on_c, 4, 56, 0
6, 247320, Note_on_c, 4, 57, 100
6, 247440, Note_on_c, 4, 57, 0
6, 247680, Note_on_c, 4, 57, 100
6, 247980, Note_on_c, 4, 57, 0
6, 247980, Note_on_c, 4, 56, 100
6, 248040, Note_on_c, 4, 56, 0
6, 248040, Note_on_c, 4, 57, 100
6, 248160, Note_on_c, 4, 57, 0
6, 248400, Note_on_c, 4, 57, 100
6, 248700, Note_on_c, 4, 57, 0
6, 248700, Note_on_c, 4, 56, 100
6, 248760, Note_on_c, 4, 56, 0
6, 248760, Note_on_c, 4, 57, 100
6, 248880, Note_on_c, 4, 57, 0
6, 249120, Note_on_c, 4, 57, 100
6, 249240, Note_on_c, 4, 57, 0
6, 249240, Note_on_c, 4, 56, 100
6, 249360, Note_on_c, 4, 56, 0
6, 249360, Note_on_c, 4, 57, 100
6, 249420, Note_on_c, 4, 57, 0
6, 249480, Note_on_c, 4, 56, 100
6, 249600, Note_on_c, 4, 56, 0
6, 249600, Note_on_c, 4, 57, 100
6, 249660, Note_on_c, 4, 57, 0
6, 249720, Note_on_c, 4, 56, 100
6, 249840, Note_on_c, 4, 56, 0
6, 249840, Note_on_c, 4, 57, 100
6, 249900, Note_on_c, 4, 57, 0
6, 249960, Note_on_c, 4, 56, 100
6, 250080, Note_on_c, 4, 56, 0
6, 250080, Note_on_c, 4, 57, 100
6, 250140, Note_on_c, 4, 57, 0
6, 250200, Note_on_c, 4, 56, 100
6, 250320, Note_on_c, 4, 56, 0
6, 250320, Note_on_c, 4, 57, 100
6, 250380, Note_on_c, 4, 57, 0
6, 250440, Note_on_c, 4, 56, 100
6, 250560, Note_on_c, 4, 56, 0
6, 250560, Note_on_c, 4, 57, 100
6, 250620, Note_on_c, 4, 57, 0
6, 250680, Note_on_c, 4, 56, 100
6, 250800, Note_on_c, 4, 56, 0
6, 250800, Note_on_c, 4, 57, 100
6, 250860, Note_on_c, 4, 57, 0
6, 250920, Note_on_c, 4, 56, 100
6, 251040, Note_on_c, 4, 56, 0
6, 251040, Note_on_c, 4, 57, 100
6, 251100, Note_on_c, 4, 57, 0
6, 251160, Note_on_c, 4, 56, 100
6, 251280, Note_on_c, 4, 56, 0
6, 251280, Note_on_c, 4, 57, 100
6, 251340, Note_on_c, 4, 57, 0
6, 251400, Note_on_c, 4, 69, 100
6, 251400, Note_on_c, 4, 56, 100
6, 251520, Note_on_c, 4, 56, 0
6, 251520, Note_on_c, 4, 57, 100
6, 251580, Note_on_c, 4, 57, 0
6, 251640, Note_on_c, 4, 69, 0
6, 251640, Note_on_c, 4, 69, 100
6, 251640, Note_on_c, 4, 56, 100
6, 251760, Note_on_c, 4, 56, 0
6, 251760, Note_on_c, 4, 57, 100
6, 251820, Note_on_c, 4, 57, 0
6, 251880, Note_on_c, 4, 69, 0
6, 251880, Note_on_c, 4, 69, 100
6, 251880, Note_on_c, 4, 57, 100
6, 252000, Note_on_c, 4, 57, 0
6, 252000, Note_on_c, 4, 69, 0
6, 252000, Note_on_c, 4, 74, 100
6, 252000, Note_on_c, 4, 66, 100
6, 252300, Note_on_c, 4, 66, 0
6, 252300, Note_on_c, 4, 74, 0
6, 252300, Note_on_c, 4, 69, 100
6, 252300, Note_on_c, 4, 76, 100
6, 252360, Note_on_c, 4, 76, 0
6, 252360, Note_on_c, 4, 69, 0
6, 252360, Note_on_c, 4, 66, 100
6, 252360, Note_on_c, 4, 74, 100
6, 252480, Note_on_c, 4, 74, 0
6, 252480, Note_on_c, 4, 66, 0
6, 252720, Note_on_c, 4, 66, 100
6, 252720, Note_on_c, 4, 74, 100
6, 253020, Note_on_c, 4, 74, 0
6, 253020, Note_on_c, 4, 66, 0
6, 253020, Note_on_c, 4, 69, 100
6, 253020, Note_on_c, 4, 76, 100
6, 253080, Note_on_c, 4, 76, 0
6, 253080, Note_on_c, 4, 69, 0
6, 253080, Note_on_c, 4, 66, 100
6, 253080, Note_on_c, 4, 74, 100
6, 253200, Note_on_c, 4, 74, 0
6, 253200, Note_on_c, 4, 66, 0
6, 253440, Note_on_c, 4, 66, 100
6, 253440, Note_on_c, 4, 74, 100
6, 253680, Note_on_c, 4, 74, 0
6, 253680, Note_on_c, 4, 66, 0
6, 253680, Note_on_c, 4, 69, 100
6, 253680, Note_on_c, 4, 76, 100
6, 253800, Note_on_c, 4, 76, 0
6, 253800, Note_on_c, 4, 69, 0
6, 253800, Note_on_c, 4, 74, 100
6, 253800, Note_on_c, 4, 78, 100
6, 253920, Note_on_c, 4, 78, 0
6, 253920, Note_on_c, 4, 74, 0
6, 253920, Note_on_c, 4, 69, 100
6, 253920, Note_on_c, 4, 76, 100
6, 254040, Note_on_c, 4, 76, 0
6, 254040, Note_on_c, 4, 69, 0
6, 254040, Note_on_c, 4, 74, 100
6, 254040, Note_on_c, 4, 78, 100
6, 254160, Note_on_c, 4, 78, 0
6, 254160, Note_on_c, 4, 74, 0
6, 254160, Note_on_c, 4, 69, 100
6, 254160, Note_on_c, 4, 76, 100
6, 254280, Note_on_c, 4, 76, 0
6, 254280, Note_on_c, 4, 69, 0
6, 254880, Note_on_c, 4, 79, 100
6, 255180, Note_on_c, 4, 79, 0
6, 255180, Note_on_c, 4, 78, 100
6, 255240, Note_on_c, 4, 78, 0
6, 255240, Note_on_c, 4, 79, 100
6, 255360, Note_on_c, 4, 79, 0
6, 255600, Note_on_c, 4, 79, 100
6, 255900, Note_on_c, 4, 79, 0
6, 255900, Note_on_c, 4, 78, 100
6, 255960, Note_on_c, 4, 78, 0
6, 255960, Note_on_c, 4, 79, 100
6, 256080, Note_on_c, 4, 79, 0
6, 256320, Note_on_c, 4, 79, 100
6, 256560, Note_on_c, 4, 79, 0
6, 256560, Note_on_c, 4, 78, 100
6, 256680, Note_on_c, 4, 78, 0
6, 256680, Note_on_c, 4, 81, 100
6, 256800, Note_on_c, 4, 81, 0
6, 256800, Note_on_c, 4, 79, 100
6, 256920, Note_on_c, 4, 79, 0
6, 256920, Note_on_c, 4, 76, 100
6, 257040, Note_on_c, 4, 76, 0
6, 257040, Note_on_c, 4, 74, 100
6, 257160, Note_on_c, 4, 74, 0
6, 257400, Note_on_c, 4, 69, 100
6, 257400, Note_on_c, 4, 81, 100
6, 257520, Note_on_c, 4, 81, 0
6, 257520, Note_on_c, 4, 69, 0
6, 257520, Note_on_c, 4, 66, 100
6, 257520, Note_on_c, 4, 78, 100
6, 257640, Note_on_c, 4, 78, 0
6, 257640, Note_on_c, 4, 66, 0
6, 257640, Note_on_c, 4, 62, 100
6, 257640, Note_on_c, 4, 74, 100
6, 257760, Note_on_c, 4, 74, 0
6, 257760, Note_on_c, 4, 62, 0
6, 257760, Note_on_c, 4, 57, 100
6, 257760, Note_on_c, 4, 69, 100
6, 257880, Note_on_c, 4, 69, 0
6, 258060, Note_on_c, 4, 57, 0
6, 258060, Note_on_c, 4, 56, 100
6, 258120, Note_on_c, 4, 56, 0
6, 258120, Note_on_c, 4, 57, 100
6, 258240, Note_on_c, 4, 57, 0
6, 258480, Note_on_c, 4, 57, 100
6, 258780, Note_on_c, 4, 57, 0
6, 258780, Note_on_c, 4, 56, 100
6, 258840, Note_on_c, 4, 56, 0
6, 258840, Note_on_c, 4, 57, 100
6, 258960, Note_on_c, 4, 57, 0
6, 259200, Note_on_c, 4, 57, 100
6, 259500, Note_on_c, 4, 57, 0
6, 259500, Note_on_c, 4, 56, 100
6, 259560, Note_on_c, 4, 56, 0
6, 259560, Note_on_c, 4, 57, 100
6, 259680, Note_on_c, 4, 57, 0
6, 259920, Note_on_c, 4, 57, 100
6, 260220, Note_on_c, 4, 57, 0
6, 260220, Note_on_c, 4, 56, 100
6, 260280, Note_on_c, 4, 56, 0
6, 260280, Note_on_c, 4, 57, 100
6, 260400, Note_on_c, 4, 57, 0
6, 260640, Note_on_c, 4, 57, 100
6, 260940, Note_on_c, 4, 57, 0
6, 260940, Note_on_c, 4, 56, 100
6, 261000, Note_on_c, 4, 56, 0
6, 261000, Note_on_c, 4, 57, 100
6, 261120, Note_on_c, 4, 57, 0
6, 261360, Note_on_c, 4, 57, 100
6, 261660, Note_on_c, 4, 57, 0
6, 261660, Note_on_c, 4, 56, 100
6, 261720, Note_on_c, 4, 56, 0
6, 261720, Note_on_c, 4, 57, 100
6, 261840, Note_on_c, 4, 57, 0
6, 262680, Note_on_c, 4, 69, 100
6, 262800, Note_on_c, 4, 69, 0
6, 262800, Note_on_c, 4, 69, 100
6, 262920, Note_on_c, 4, 69, 0
6, 263040, Note_on_c, 4, 69, 100
6, 263160, Note_on_c, 4, 69, 0
6, 263160, Note_on_c, 4, 69, 100
6, 263280, Note_on_c, 4, 69, 0
6, 263400, Note_on_c, 4, 69, 100
6, 263520, Note_on_c, 4, 69, 0
6, 263520, Note_on_c, 4, 69, 100
6, 263640, Note_on_c, 4, 69, 0
6, 268560, Note_on_c, 4, 76, 100
6, 268920, Note_on_c, 4, 76, 0
6, 268920, Note_on_c, 4, 76, 100
6, 269040, Note_on_c, 4, 76, 0
6, 269280, Note_on_c, 4, 76, 100
6, 269640, Note_on_c, 4, 76, 0
6, 269640, Note_on_c, 4, 76, 100
6, 269760, Note_on_c, 4, 76, 0
6, 270000, Note_on_c, 4, 76, 100
6, 270360, Note_on_c, 4, 76, 0
6, 270360, Note_on_c, 4, 69, 100
6, 270360, Note_on_c, 4, 76, 100
6, 270480, Note_on_c, 4, 76, 0
6, 270480, Note_on_c, 4, 69, 0
6, 270480, Note_on_c, 4, 69, 100
6, 270480, Note_on_c, 4, 76, 100
6, 270600, Note_on_c, 4, 76, 0
6, 270600, Note_on_c, 4, 69, 0
6, 270600, Note_on_c, 4, 69, 100
6, 270600, Note_on_c, 4, 76, 100
6, 270720, Note_on_c, 4, 76, 0
6, 270720, Note_on_c, 4, 69, 0
6, 270720, Note_on_c, 4, 76, 100
6, 270720, Note_on_c, 4, 69, 100
6, 270840, Note_on_c, 4, 69, 0
6, 270840, Note_on_c, 4, 76, 0
6, 270840, Note_on_c, 4, 57, 100
6, 270840, Note_on_c, 4, 69, 100
6, 270960, Note_on_c, 4, 69, 0
6, 270960, Note_on_c, 4, 57, 0
6, 270960, Note_on_c, 4, 57, 100
6, 270960, Note_on_c, 4, 69, 100
6, 271080, Note_on_c, 4, 69, 0
6, 271080, Note_on_c, 4, 57, 0
6, 271080, Note_on_c, 4, 57, 100
6, 271080, Note_on_c, 4, 69, 100
6, 271200, Note_on_c, 4, 69, 0
6, 271200, Note_on_c, 4, 57, 0
6, 277200, Note_on_c, 4, 74, 100
6, 278160, Note_on_c, 4, 74, 0
6, 278160, Note_on_c, 4, 79, 100
6, 278280, Note_on_c, 4, 79, 0
6, 278280, Note_on_c, 4, 79, 100
6, 278400, Note_on_c, 4, 79, 0
6, 283920, Note_on_c, 4, 69, 100
6, 284040, Note_on_c, 4, 69, 0
6, 284040, Note_on_c, 4, 69, 100
6, 284160, Note_on_c, 4, 69, 0
6, 294360, Note_on_c, 4, 72, 100
6, 294480, Note_on_c, 4, 72, 0
6, 294480, Note_on_c, 4, 72, 100
6, 294600, Note_on_c, 4, 72, 0
6, 294720, Note_on_c, 4, 72, 100
6, 294840, Note_on_c, 4, 72, 0
6, 294840, Note_on_c, 4, 72, 100
6, 294960, Note_on_c, 4, 72, 0
6, 295080, Note_on_c, 4, 72, 100
6, 295200, Note_on_c, 4, 72, 0
6, 295200, Note_on_c, 4, 72, 100
6, 295320, Note_on_c, 4, 72, 0
6, 295320, Note_on_c, 4, 72, 100
6, 295440, Note_on_c, 4, 72, 0
6, 295440, Note_on_c, 4, 72, 100
6, 295560, Note_on_c, 4, 72, 0
6, 295560, Note_on_c, 4, 72, 100
6, 295680, Note_on_c, 4, 72, 0
6, 295680, Note_on_c, 4, 72, 100
6, 295800, Note_on_c, 4, 72, 0
6, 295800, Note_on_c, 4, 72, 100
6, 295920, Note_on_c, 4, 72, 0
6, 295920, Note_on_c, 4, 72, 100
6, 296040, Note_on_c, 4, 72, 0
6, 296040, Note_on_c, 4, 72, 100
6, 296160, Note_on_c, 4, 72, 0
6, 296160, Note_on_c, 4, 72, 100
6, 296280, Note_on_c, 4, 72, 0
6, 296280, Note_on_c, 4, 72, 100
6, 296640, Note_on_c, 4, 72, 0
6, 296640, Note_on_c, 4, 72, 100
6, 296760, Note_on_c, 4, 72, 0
6, 296760, Note_on_c, 4, 72, 100
6, 296880, Note_on_c, 4, 72, 0
6, 296880, Note_on_c, 4, 72, 100
6, 297000, Note_on_c, 4, 72, 0
6, 297000, Note_on_c, 4, 72, 100
6, 297120, Note_on_c, 4, 72, 0
6, 297120, Note_on_c, 4, 72, 100
6, 297240, Note_on_c, 4, 72, 0
6, 297240, Note_on_c, 4, 72, 100
6, 297360, Note_on_c, 4, 72, 0
6, 297360, Note_on_c, 4, 72, 100
6, 297480, Note_on_c, 4, 72, 0
6, 297480, Note_on_c, 4, 72, 100
6, 297600, Note_on_c, 4, 72, 0
6, 297600, Note_on_c, 4, 72, 100
6, 297720, Note_on_c, 4, 72, 0
6, 297720, Note_on_c, 4, 72, 100
6, 298080, Note_on_c, 4, 72, 0
6, 298800, Note_on_c, 4, 72, 100
6, 298920, Note_on_c, 4, 72, 0
6, 298920, Note_on_c, 4, 72, 100
6, 299040, Note_on_c, 4, 72, 0
6, 299040, Note_on_c, 4, 72, 100
6, 299160, Note_on_c, 4, 72, 0
6, 300600, Note_on_c, 4, 72, 100
6, 300720, Note_on_c, 4, 72, 0
6, 300720, Note_on_c, 4, 72, 100
6, 300840, Note_on_c, 4, 72, 0
6, 300840, Note_on_c, 4, 72, 100
6, 300960, Note_on_c, 4, 72, 0
6, 307800, Note_on_c, 4, 77, 100
6, 307920, Note_on_c, 4, 77, 0
6, 307920, Note_on_c, 4, 77, 100
6, 308040, Note_on_c, 4, 77, 0
6, 308040, Note_on_c, 4, 77, 100
6, 308160, Note_on_c, 4, 77, 0
6, 308520, Note_on_c, 4, 77, 100
6, 308640, Note_on_c, 4, 77, 0
6, 308640, Note_on_c, 4, 77, 100
6, 308760, Note_on_c, 4, 77, 0
6, 308760, Note_on_c, 4, 77, 100
6, 308880, Note_on_c, 4, 77, 0
6, 309240, Note_on_c, 4, 77, 100
6, 309360, Note_on_c, 4, 77, 0
6, 309360, Note_on_c, 4, 77, 100
6, 309480, Note_on_c, 4, 77, 0
6, 309480, Note_on_c, 4, 77, 100
6, 309600, Note_on_c, 4, 77, 0
6, 309960, Note_on_c, 4, 77, 100
6, 310080, Note_on_c, 4, 77, 0
6, 310080, Note_on_c, 4, 77, 100
6, 310200, Note_on_c, 4, 77, 0
6, 310200, Note_on_c, 4, 77, 100
6, 310320, Note_on_c, 4, 77, 0
6, 310680, Note_on_c, 4, 77, 100
6, 310800, Note_on_c, 4, 77, 0
6, 310800, Note_on_c, 4, 77, 100
6, 310920, Note_on_c, 4, 77, 0
6, 310920, Note_on_c, 4, 77, 100
6, 311040, Note_on_c, 4, 77, 0
6, 311040, Note_on_c, 4, 77, 100
6, 311160, Note_on_c, 4, 77, 0
6, 311160, Note_on_c, 4, 77, 100
6, 311280, Note_on_c, 4, 77, 0
6, 311280, Note_on_c, 4, 77, 100
6, 311400, Note_on_c, 4, 77, 0
6, 311400, Note_on_c, 4, 77, 100
6, 311520, Note_on_c, 4, 77, 0
6, 313080, Note_on_c, 4, 69, 100
6, 313200, Note_on_c, 4, 69, 0
6, 313200, Note_on_c, 4, 69, 100
6, 313320, Note_on_c, 4, 69, 0
6, 313440, Note_on_c, 4, 69, 100
6, 313560, Note_on_c, 4, 69, 0
6, 313560, Note_on_c, 4, 69, 100
6, 313680, Note_on_c, 4, 69, 0
6, 313800, Note_on_c, 4, 69, 100
6, 313920, Note_on_c, 4, 69, 0
6, 313920, Note_on_c, 4, 69, 100
6, 314040, Note_on_c, 4, 69, 0
6, 314160, Note_on_c, 4, 69, 100
6, 314280, Note_on_c, 4, 69, 0
6, 314280, Note_on_c, 4, 69, 100
6, 314400, Note_on_c, 4, 69, 0
6, 314520, Note_on_c, 4, 69, 100
6, 314640, Note_on_c, 4, 69, 0
6, 314640, Note_on_c, 4, 69, 100
6, 314760, Note_on_c, 4, 69, 0
6, 316080, Note_on_c, 4, 65, 100
6, 316080, Note_on_c, 4, 74, 100
6, 316380, Note_on_c, 4, 74, 0
6, 316380, Note_on_c, 4, 65, 0
6, 316380, Note_on_c, 4, 69, 100
6, 316380, Note_on_c, 4, 76, 100
6, 316440, Note_on_c, 4, 76, 0
6, 316440, Note_on_c, 4, 69, 0
6, 316440, Note_on_c, 4, 65, 100
6, 316440, Note_on_c, 4, 74, 100
6, 316560, Note_on_c, 4, 74, 0
6, 316560, Note_on_c, 4, 65, 0
6, 316800, Note_on_c, 4, 65, 100
6, 316800, Note_on_c, 4, 74, 100
6, 317100, Note_on_c, 4, 74, 0
6, 317100, Note_on_c, 4, 65, 0
6, 317100, Note_on_c, 4, 69, 100
6, 317100, Note_on_c, 4, 76, 100
6, 317160, Note_on_c, 4, 76, 0
6, 317160, Note_on_c, 4, 69, 0
6, 317160, Note_on_c, 4, 65, 100
6, 317160, Note_on_c, 4, 74, 100
6, 317280, Note_on_c, 4, 74, 0
6, 317280, Note_on_c, 4, 65, 0
6, 317520, Note_on_c, 4, 79, 100
6, 317640, Note_on_c, 4, 79, 0
6, 317880, Note_on_c, 4, 79, 100
6, 318000, Note_on_c, 4, 79, 0
6, 318240, Note_on_c, 4, 79, 100
6, 318360, Note_on_c, 4, 79, 0
6, 318600, Note_on_c, 4, 79, 100
6, 318720, Note_on_c, 4, 79, 0
6, 318960, Note_on_c, 4, 69, 100
6, 318960, Note_on_c, 4, 79, 100
6, 319080, Note_on_c, 4, 79, 0
6, 319080, Note_on_c, 4, 69, 0
6, 319080, End_track
7, 0, Start_track
7, 0, MIDI_port, 0
7, 0, Title_t, "Trumpets in D"
7, 0, Program_c, 5, 56
7, 0, Control_c, 5, 7, 105
7, 0, Control_c, 5, 10, 85
7, 600, Note_on_c, 5, 69, 100
7, 720, Note_on_c, 5, 69, 0
7, 720, Note_on_c, 5, 69, 100
7, 840, Note_on_c, 5, 69, 0
7, 960, Note_on_c, 5, 69, 100
7, 1080, Note_on_c, 5, 69, 0
7, 1080, Note_on_c, 5, 69, 100
7, 1200, Note_on_c, 5, 69, 0
7, 1320, Note_on_c, 5, 69, 100
7, 1440, Note_on_c, 5, 69, 0
7, 1440, Note_on_c, 5, 69, 100
7, 1560, Note_on_c, 5, 69, 0
7, 6480, Note_on_c, 5, 76, 100
7, 6840, Note_on_c, 5, 76, 0
7, 6840, Note_on_c, 5, 57, 100
7, 6840, Note_on_c, 5, 69, 100
7, 6960, Note_on_c, 5, 69, 0
7, 6960, Note_on_c, 5, 57, 0
7, 6960, Note_on_c, 5, 57, 100
7, 6960, Note_on_c, 5, 69, 100
7, 7080, Note_on_c, 5, 69, 0
7, 7080, Note_on_c, 5, 57, 0
7, 7080, Note_on_c, 5, 57, 100
7, 7080, Note_on_c, 5, 69, 100
7, 7200, Note_on_c, 5, 69, 0
7, 7200, Note_on_c, 5, 57, 0
7, 7200, Note_on_c, 5, 76, 100
7, 7560, Note_on_c, 5, 76, 0
7, 7560, Note_on_c, 5, 57, 100
7, 7560, Note_on_c, 5, 69, 100
7, 7680, Note_on_c, 5, 69, 0
7, 7680, Note_on_c, 5, 57, 0
7, 7680, Note_on_c, 5, 57, 100
7, 7680, Note_on_c, 5, 69, 100
7, 7800, Note_on_c, 5, 69, 0
7, 7800, Note_on_c, 5, 57, 0
7, 7800, Note_on_c, 5, 57, 100
7, 7800, Note_on_c, 5, 69, 100
7, 7920, Note_on_c, 5, 69, 0
7, 7920, Note_on_c, 5, 57, 0
7, 7920, Note_on_c, 5, 76, 100
7, 8280, Note_on_c, 5, 76, 0
7, 8280, Note_on_c, 5, 57, 100
7, 8280, Note_on_c, 5, 69, 100
7, 8400, Note_on_c, 5, 69, 0
7, 8400, Note_on_c, 5, 57, 0
7, 8400, Note_on_c, 5, 57, 100
7, 8400, Note_on_c, 5, 69, 100
7, 8520, Note_on_c, 5, 69, 0
7, 8520, Note_on_c, 5, 57, 0
7, 8520, Note_on_c, 5, 57, 100
7, 8520, Note_on_c, 5, 69, 100
7, 8640, Note_on_c, 5, 69, 0
7, 8640, Note_on_c, 5, 57, 0
7, 8640, Note_on_c, 5, 57, 100
7, 8640, Note_on_c, 5, 69, 100
7, 8760, Note_on_c, 5, 69, 0
7, 8760, Note_on_c, 5, 57, 0
7, 8760, Note_on_c, 5, 57, 100
7, 8760, Note_on_c, 5, 69, 100
7, 8880, Note_on_c, 5, 69, 0
7, 8880, Note_on_c, 5, 57, 0
7, 8880, Note_on_c, 5, 57, 100
7, 8880, Note_on_c, 5, 69, 100
7, 9000, Note_on_c, 5, 69, 0
7, 9000, Note_on_c, 5, 57, 0
7, 9000, Note_on_c, 5, 57, 100
7, 9000, Note_on_c, 5, 69, 100
7, 9120, Note_on_c, 5, 69, 0
7, 9120, Note_on_c, 5, 57, 0
7, 9240, Note_on_c, 5, 69, 100
7, 9360, Note_on_c, 5, 69, 0
7, 9360, Note_on_c, 5, 69, 100
7, 9480, Note_on_c, 5, 69, 0
7, 9600, Note_on_c, 5, 69, 100
7, 9720, Note_on_c, 5, 69, 0
7, 9720, Note_on_c, 5, 69, 100
7, 9840, Note_on_c, 5, 69, 0
7, 9960, Note_on_c, 5, 69, 100
7, 10080, Note_on_c, 5, 69, 0
7, 10080, Note_on_c, 5, 69, 100
7, 10200, Note_on_c, 5, 69, 0
7, 15120, Note_on_c, 5, 76, 100
7, 15480, Note_on_c, 5, 76, 0
7, 15480, Note_on_c, 5, 57, 100
7, 15480, Note_on_c, 5, 69, 100
7, 15600, Note_on_c, 5, 69, 0
7, 15600, Note_on_c, 5, 57, 0
7, 15600, Note_on_c, 5, 57, 100
7, 15600, Note_on_c, 5, 69, 100
7, 15720, Note_on_c, 5, 69, 0
7, 15720, Note_on_c, 5, 57, 0
7, 15720, Note_on_c, 5, 57, 100
7, 15720, Note_on_c, 5, 69, 100
7, 15840, Note_on_c, 5, 69, 0
7, 15840, Note_on_c, 5, 57, 0
7, 15840, Note_on_c, 5, 76, 100
7, 16200, Note_on_c, 5, 76, 0
7, 16200, Note_on_c, 5, 57, 100
7, 16200, Note_on_c, 5, 69, 100
7, 16320, Note_on_c, 5, 69, 0
7, 16320, Note_on_c, 5, 57, 0
7, 16320, Note_on_c, 5, 57, 100
7, 16320, Note_on_c, 5, 69, 100
7, 16440, Note_on_c, 5, 69, 0
7, 16440, Note_on_c, 5, 57, 0
7, 16440, Note_on_c, 5, 57, 100
7, 16440, Note_on_c, 5, 69, 100
7, 16560, Note_on_c, 5, 69, 0
7, 16560, Note_on_c, 5, 57, 0
7, 16560, Note_on_c, 5, 76, 100
7, 16920, Note_on_c, 5, 76, 0
7, 16920, Note_on_c, 5, 57, 100
7, 16920, Note_on_c, 5, 69, 100
7, 17040, Note_on_c, 5, 69, 0
7, 17040, Note_on_c, 5, 57, 0
7, 17040, Note_on_c, 5, 57, 100
7, 17040, Note_on_c, 5, 69, 100
7, 17160, Note_on_c, 5, 69, 0
7, 17160, Note_on_c, 5, 57, 0
7, 17160, Note_on_c, 5, 57, 100
7, 17160, Note_on_c, 5, 69, 100
7, 17280, Note_on_c, 5, 69, 0
7, 17280, Note_on_c, 5, 57, 0
7, 17280, Note_on_c, 5, 57, 100
7, 17280, Note_on_c, 5, 69, 100
7, 17400, Note_on_c, 5, 69, 0
7, 17400, Note_on_c, 5, 57, 0
7, 17400, Note_on_c, 5, 57, 100
7, 17400, Note_on_c, 5, 69, 100
7, 17520, Note_on_c, 5, 69, 0
7, 17520, Note_on_c, 5, 57, 0
7, 17520, Note_on_c, 5, 57, 100
7, 17520, Note_on_c, 5, 69, 100
7, 17640, Note_on_c, 5, 69, 0
7, 17640, Note_on_c, 5, 57, 0
7, 17640, Note_on_c, 5, 57, 100
7, 17640, Note_on_c, 5, 69, 100
7, 17760, Note_on_c, 5, 69, 0
7, 17760, Note_on_c, 5, 57, 0
7, 24720, Note_on_c, 5, 62, 100
7, 24720, Note_on_c, 5, 74, 100
7, 24840, Note_on_c, 5, 74, 0
7, 24840, Note_on_c, 5, 62, 0
7, 24840, Note_on_c, 5, 62, 100
7, 24840, Note_on_c, 5, 74, 100
7, 24960, Note_on_c, 5, 74, 0
7, 24960, Note_on_c, 5, 62, 0
7, 30480, Note_on_c, 5, 69, 100
7, 30600, Note_on_c, 5, 69, 0
7, 30600, Note_on_c, 5, 69, 100
7, 30720, Note_on_c, 5, 69, 0
7, 40920, Note_on_c, 5, 57, 100
7, 40920, Note_on_c, 5, 69, 100
7, 41040, Note_on_c, 5, 69, 0
7, 41040, Note_on_c, 5, 57, 0
7, 41040, Note_on_c, 5, 57, 100
7, 41040, Note_on_c, 5, 69, 100
7, 41160, Note_on_c, 5, 69, 0
7, 41160, Note_on_c, 5, 57, 0
7, 41280, Note_on_c, 5, 57, 100
7, 41280, Note_on_c, 5, 69, 100
7, 41400, Note_on_c, 5, 69, 0
7, 41400, Note_on_c, 5, 57, 0
7, 41400, Note_on_c, 5, 57, 100
7, 41400, Note_on_c, 5, 69, 100
7, 41520, Note_on_c, 5, 69, 0
7, 41520, Note_on_c, 5, 57, 0
7, 41640, Note_on_c, 5, 57, 100
7, 41640, Note_on_c, 5, 69, 100
7, 41760, Note_on_c, 5, 69, 0
7, 41760, Note_on_c, 5, 57, 0
7, 41760, Note_on_c, 5, 57, 100
7, 41760, Note_on_c, 5, 69, 100
7, 41880, Note_on_c, 5, 69, 0
7, 41880, Note_on_c, 5, 57, 0
7, 41880, Note_on_c, 5, 57, 100
7, 41880, Note_on_c, 5, 69, 100
7, 42000, Note_on_c, 5, 69, 0
7, 42000, Note_on_c, 5, 57, 0
7, 42000, Note_on_c, 5, 57, 100
7, 42000, Note_on_c, 5, 69, 100
7, 42120, Note_on_c, 5, 69, 0
7, 42120, Note_on_c, 5, 57, 0
7, 42120, Note_on_c, 5, 57, 100
7, 42120, Note_on_c, 5, 69, 100
7, 42240, Note_on_c, 5, 69, 0
7, 42240, Note_on_c, 5, 57, 0
7, 42240, Note_on_c, 5, 57, 100
7, 42240, Note_on_c, 5, 69, 100
7, 42360, Note_on_c, 5, 69, 0
7, 42360, Note_on_c, 5, 57, 0
7, 42360, Note_on_c, 5, 57, 100
7, 42360, Note_on_c, 5, 69, 100
7, 42480, Note_on_c, 5, 69, 0
7, 42480, Note_on_c, 5, 57, 0
7, 42480, Note_on_c, 5, 57, 100
7, 42480, Note_on_c, 5, 69, 100
7, 42600, Note_on_c, 5, 69, 0
7, 42600, Note_on_c, 5, 57, 0
7, 42600, Note_on_c, 5, 57, 100
7, 42600, Note_on_c, 5, 69, 100
7, 42720, Note_on_c, 5, 69, 0
7, 42720, Note_on_c, 5, 57, 0
7, 42720, Note_on_c, 5, 57, 100
7, 42720, Note_on_c, 5, 69, 100
7, 42840, Note_on_c, 5, 69, 0
7, 42840, Note_on_c, 5, 57, 0
7, 44280, Note_on_c, 5, 57, 100
7, 44280, Note_on_c, 5, 69, 100
7, 44400, Note_on_c, 5, 69, 0
7, 44400, Note_on_c, 5, 57, 0
7, 44400, Note_on_c, 5, 57, 100
7, 44400, Note_on_c, 5, 69, 100
7, 44520, Note_on_c, 5, 69, 0
7, 44520, Note_on_c, 5, 57, 0
7, 44520, Note_on_c, 5, 57, 100
7, 44520, Note_on_c, 5, 69, 100
7, 44640, Note_on_c, 5, 69, 0
7, 44640, Note_on_c, 5, 57, 0
7, 54360, Note_on_c, 5, 57, 100
7, 54360, Note_on_c, 5, 69, 100
7, 54480, Note_on_c, 5, 69, 0
7, 54480, Note_on_c, 5, 57, 0
7, 54480, Note_on_c, 5, 57, 100
7, 54480, Note_on_c, 5, 69, 100
7, 54600, Note_on_c, 5, 69, 0
7, 54600, Note_on_c, 5, 57, 0
7, 54600, Note_on_c, 5, 57, 100
7, 54600, Note_on_c, 5, 69, 100
7, 54720, Note_on_c, 5, 69, 0
7, 54720, Note_on_c, 5, 57, 0
7, 55080, Note_on_c, 5, 57, 100
7, 55080, Note_on_c, 5, 69, 100
7, 55200, Note_on_c, 5, 69, 0
7, 55200, Note_on_c, 5, 57, 0
7, 55200, Note_on_c, 5, 57, 100
7, 55200, Note_on_c, 5, 69, 100
7, 55320, Note_on_c, 5, 69, 0
7, 55320, Note_on_c, 5, 57, 0
7, 55320, Note_on_c, 5, 57, 100
7, 55320, Note_on_c, 5, 69, 100
7, 55440, Note_on_c, 5, 69, 0
7, 55440, Note_on_c, 5, 57, 0
7, 55800, Note_on_c, 5, 57, 100
7, 55800, Note_on_c, 5, 69, 100
7, 55920, Note_on_c, 5, 69, 0
7, 55920, Note_on_c, 5, 57, 0
7, 55920, Note_on_c, 5, 57, 100
7, 55920, Note_on_c, 5, 69, 100
7, 56040, Note_on_c, 5, 69, 0
7, 56040, Note_on_c, 5, 57, 0
7, 56040, Note_on_c, 5, 57, 100
7, 56040, Note_on_c, 5, 69, 100
7, 56160, Note_on_c, 5, 69, 0
7, 56160, Note_on_c, 5, 57, 0
7, 56520, Note_on_c, 5, 57, 100
7, 56520, Note_on_c, 5, 69, 100
7, 56640, Note_on_c, 5, 69, 0
7, 56640, Note_on_c, 5, 57, 0
7, 56640, Note_on_c, 5, 57, 100
7, 56640, Note_on_c, 5, 69, 100
7, 56760, Note_on_c, 5, 69, 0
7, 56760, Note_on_c, 5, 57, 0
7, 56760, Note_on_c, 5, 57, 100
7, 56760, Note_on_c, 5, 69, 100
7, 56880, Note_on_c, 5, 69, 0
7, 56880, Note_on_c, 5, 57, 0
7, 57240, Note_on_c, 5, 57, 100
7, 57240, Note_on_c, 5, 69, 100
7, 57360, Note_on_c, 5, 69, 0
7, 57360, Note_on_c, 5, 57, 0
7, 57360, Note_on_c, 5, 57, 100
7, 57360, Note_on_c, 5, 69, 100
7, 57480, Note_on_c, 5, 69, 0
7, 57480, Note_on_c, 5, 57, 0
7, 57480, Note_on_c, 5, 57, 100
7, 57480, Note_on_c, 5, 69, 100
7, 57600, Note_on_c, 5, 69, 0
7, 57600, Note_on_c, 5, 57, 0
7, 57600, Note_on_c, 5, 57, 100
7, 57600, Note_on_c, 5, 69, 100
7, 57720, Note_on_c, 5, 69, 0
7, 57720, Note_on_c, 5, 57, 0
7, 57720, Note_on_c, 5, 57, 100
7, 57720, Note_on_c, 5, 69, 100
7, 57840, Note_on_c, 5, 69, 0
7, 57840, Note_on_c, 5, 57, 0
7, 57840, Note_on_c, 5, 57, 100
7, 57840, Note_on_c, 5, 69, 100
7, 57960, Note_on_c, 5, 69, 0
7, 57960, Note_on_c, 5, 57, 0
7, 57960, Note_on_c, 5, 57, 100
7, 57960, Note_on_c, 5, 69, 100
7, 58080, Note_on_c, 5, 69, 0
7, 58080, Note_on_c, 5, 57, 0
7, 59640, Note_on_c, 5, 69, 100
7, 59760, Note_on_c, 5, 69, 0
7, 59760, Note_on_c, 5, 69, 100
7, 59880, Note_on_c, 5, 69, 0
7, 60000, Note_on_c, 5, 69, 100
7, 60120, Note_on_c, 5, 69, 0
7, 60120, Note_on_c, 5, 69, 100
7, 60240, Note_on_c, 5, 69, 0
7, 60360, Note_on_c, 5, 69, 100
7, 60480, Note_on_c, 5, 69, 0
7, 60480, Note_on_c, 5, 69, 100
7, 60600, Note_on_c, 5, 69, 0
7, 60720, Note_on_c, 5, 69, 100
7, 60840, Note_on_c, 5, 69, 0
7, 60840, Note_on_c, 5, 69, 100
7, 60960, Note_on_c, 5, 69, 0
7, 61080, Note_on_c, 5, 69, 100
7, 61200, Note_on_c, 5, 69, 0
7, 61200, Note_on_c, 5, 69, 100
7, 61320, Note_on_c, 5, 69, 0
7, 69360, Note_on_c, 5, 62, 100
7, 69360, Note_on_c, 5, 74, 100
7, 69480, Note_on_c, 5, 74, 0
7, 69480, Note_on_c, 5, 62, 0
7, 69480, Note_on_c, 5, 62, 100
7, 69480, Note_on_c, 5, 74, 100
7, 69600, Note_on_c, 5, 74, 0
7, 69600, Note_on_c, 5, 62, 0
7, 75120, Note_on_c, 5, 69, 100
7, 75240, Note_on_c, 5, 69, 0
7, 75240, Note_on_c, 5, 69, 100
7, 75360, Note_on_c, 5, 69, 0
7, 85560, Note_on_c, 5, 57, 100
7, 85560, Note_on_c, 5, 69, 100
7, 85680, Note_on_c, 5, 69, 0
7, 85680, Note_on_c, 5, 57, 0
7, 85680, Note_on_c, 5, 57, 100
7, 85680, Note_on_c, 5, 69, 100
7, 85800, Note_on_c, 5, 69, 0
7, 85800, Note_on_c, 5, 57, 0
7, 85920, Note_on_c, 5, 57, 100
7, 85920, Note_on_c, 5, 69, 100
7, 86040, Note_on_c, 5, 69, 0
7, 86040, Note_on_c, 5, 57, 0
7, 86040, Note_on_c, 5, 57, 100
7, 86040, Note_on_c, 5, 69, 100
7, 86160, Note_on_c, 5, 69, 0
7, 86160, Note_on_c, 5, 57, 0
7, 86280, Note_on_c, 5, 57, 100
7, 86280, Note_on_c, 5, 69, 100
7, 86400, Note_on_c, 5, 69, 0
7, 86400, Note_on_c, 5, 57, 0
7, 86400, Note_on_c, 5, 57, 100
7, 86400, Note_on_c, 5, 69, 100
7, 86520, Note_on_c, 5, 69, 0
7, 86520, Note_on_c, 5, 57, 0
7, 86520, Note_on_c, 5, 57, 100
7, 86520, Note_on_c, 5, 69, 100
7, 86640, Note_on_c, 5, 69, 0
7, 86640, Note_on_c, 5, 57, 0
7, 86640, Note_on_c, 5, 57, 100
7, 86640, Note_on_c, 5, 69, 100
7, 86760, Note_on_c, 5, 69, 0
7, 86760, Note_on_c, 5, 57, 0
7, 86760, Note_on_c, 5, 57, 100
7, 86760, Note_on_c, 5, 69, 100
7, 86880, Note_on_c, 5, 69, 0
7, 86880, Note_on_c, 5, 57, 0
7, 86880, Note_on_c, 5, 57, 100
7, 86880, Note_on_c, 5, 69, 100
7, 87000, Note_on_c, 5, 69, 0
7, 87000, Note_on_c, 5, 57, 0
7, 87000, Note_on_c, 5, 57, 100
7, 87000, Note_on_c, 5, 69, 100
7, 87120, Note_on_c, 5, 69, 0
7, 87120, Note_on_c, 5, 57, 0
7, 87120, Note_on_c, 5, 57, 100
7, 87120, Note_on_c, 5, 69, 100
7, 87240, Note_on_c, 5, 69, 0
7, 87240, Note_on_c, 5, 57, 0
7, 87240, Note_on_c, 5, 57, 100
7, 87240, Note_on_c, 5, 69, 100
7, 87360, Note_on_c, 5, 69, 0
7, 87360, Note_on_c, 5, 57, 0
7, 87360, Note_on_c, 5, 57, 100
7, 87360, Note_on_c, 5, 69, 100
7, 87480, Note_on_c, 5, 69, 0
7, 87480, Note_on_c, 5, 57, 0
7, 88920, Note_on_c, 5, 57, 100
7, 88920, Note_on_c, 5, 69, 100
7, 89040, Note_on_c, 5, 69, 0
7, 89040, Note_on_c, 5, 57, 0
7, 89040, Note_on_c, 5, 57, 100
7, 89040, Note_on_c, 5, 69, 100
7, 89160, Note_on_c, 5, 69, 0
7, 89160, Note_on_c, 5, 57, 0
7, 89160, Note_on_c, 5, 57, 100
7, 89160, Note_on_c, 5, 69, 100
7, 89280, Note_on_c, 5, 69, 0
7, 89280, Note_on_c, 5, 57, 0
7, 99000, Note_on_c, 5, 57, 100
7, 99000, Note_on_c, 5, 69, 100
7, 99120, Note_on_c, 5, 69, 0
7, 99120, Note_on_c, 5, 57, 0
7, 99120, Note_on_c, 5, 57, 100
7, 99120, Note_on_c, 5, 69, 100
7, 99240, Note_on_c, 5, 69, 0
7, 99240, Note_on_c, 5, 57, 0
7, 99240, Note_on_c, 5, 57, 100
7, 99240, Note_on_c, 5, 69, 100
7, 99360, Note_on_c, 5, 69, 0
7, 99360, Note_on_c, 5, 57, 0
7, 99720, Note_on_c, 5, 57, 100
7, 99720, Note_on_c, 5, 69, 100
7, 99840, Note_on_c, 5, 69, 0
7, 99840, Note_on_c, 5, 57, 0
7, 99840, Note_on_c, 5, 57, 100
7, 99840, Note_on_c, 5, 69, 100
7, 99960, Note_on_c, 5, 69, 0
7, 99960, Note_on_c, 5, 57, 0
7, 99960, Note_on_c, 5, 57, 100
7, 99960, Note_on_c, 5, 69, 100
7, 100080, Note_on_c, 5, 69, 0
7, 100080, Note_on_c, 5, 57, 0
7, 100440, Note_on_c, 5, 57, 100
7, 100440, Note_on_c, 5, 69, 100
7, 100560, Note_on_c, 5, 69, 0
7, 100560, Note_on_c, 5, 57, 0
7, 100560, Note_on_c, 5, 57, 100
7, 100560, Note_on_c, 5, 69, 100
7, 100680, Note_on_c, 5, 69, 0
7, 100680, Note_on_c, 5, 57, 0
7, 100680, Note_on_c, 5, 57, 100
7, 100680, Note_on_c, 5, 69, 100
7, 100800, Note_on_c, 5, 69, 0
7, 100800, Note_on_c, 5, 57, 0
7, 101160, Note_on_c, 5, 57, 100
7, 101160, Note_on_c, 5, 69, 100
7, 101280, Note_on_c, 5, 69, 0
7, 101280, Note_on_c, 5, 57, 0
7, 101280, Note_on_c, 5, 57, 100
7, 101280, Note_on_c, 5, 69, 100
7, 101400, Note_on_c, 5, 69, 0
7, 101400, Note_on_c, 5, 57, 0
7, 101400, Note_on_c, 5, 57, 100
7, 101400, Note_on_c, 5, 69, 100
7, 101520, Note_on_c, 5, 69, 0
7, 101520, Note_on_c, 5, 57, 0
7, 101880, Note_on_c, 5, 57, 100
7, 101880, Note_on_c, 5, 69, 100
7, 102000, Note_on_c, 5, 69, 0
7, 102000, Note_on_c, 5, 57, 0
7, 102000, Note_on_c, 5, 57, 100
7, 102000, Note_on_c, 5, 69, 100
7, 102120, Note_on_c, 5, 69, 0
7, 102120, Note_on_c, 5, 57, 0
7, 102120, Note_on_c, 5, 57, 100
7, 102120, Note_on_c, 5, 69, 100
7, 102240, Note_on_c, 5, 69, 0
7, 102240, Note_on_c, 5, 57, 0
7, 102240, Note_on_c, 5, 57, 100
7, 102240, Note_on_c, 5, 69, 100
7, 102360, Note_on_c, 5, 69, 0
7, 102360, Note_on_c, 5, 57, 0
7, 102360, Note_on_c, 5, 57, 100
7, 102360, Note_on_c, 5, 69, 100
7, 102480, Note_on_c, 5, 69, 0
7, 102480, Note_on_c, 5, 57, 0
7, 102480, Note_on_c, 5, 57, 100
7, 102480, Note_on_c, 5, 69, 100
7, 102600, Note_on_c, 5, 69, 0
7, 102600, Note_on_c, 5, 57, 0
7, 102600, Note_on_c, 5, 57, 100
7, 102600, Note_on_c, 5, 69, 100
7, 102720, Note_on_c, 5, 69, 0
7, 102720, Note_on_c, 5, 57, 0
7, 104280, Note_on_c, 5, 69, 100
7, 104400, Note_on_c, 5, 69, 0
7, 104400, Note_on_c, 5, 69, 100
7, 104520, Note_on_c, 5, 69, 0
7, 104640, Note_on_c, 5, 69, 100
7, 104760, Note_on_c, 5, 69, 0
7, 104760, Note_on_c, 5, 69, 100
7, 104880, Note_on_c, 5, 69, 0
7, 105000, Note_on_c, 5, 69, 100
7, 105120, Note_on_c, 5, 69, 0
7, 105120, Note_on_c, 5, 69, 100
7, 105240, Note_on_c, 5, 69, 0
7, 105360, Note_on_c, 5, 69, 100
7, 105480, Note_on_c, 5, 69, 0
7, 105480, Note_on_c, 5, 69, 100
7, 105600, Note_on_c, 5, 69, 0
7, 105720, Note_on_c, 5, 69, 100
7, 105840, Note_on_c, 5, 69, 0
7, 105840, Note_on_c, 5, 69, 100
7, 105960, Note_on_c, 5, 69, 0
7, 128160, Note_on_c, 5, 69, 100
7, 128160, Note_on_c, 5, 81, 100
7, 130620, Note_on_c, 5, 81, 0
7, 130620, Note_on_c, 5, 69, 0
7, 130620, Note_on_c, 5, 69, 100
7, 130620, Note_on_c, 5, 81, 100
7, 130680, Note_on_c, 5, 81, 0
7, 130680, Note_on_c, 5, 69, 0
7, 130680, Note_on_c, 5, 69, 100
7, 130680, Note_on_c, 5, 81, 100
7, 130980, Note_on_c, 5, 81, 0
7, 130980, Note_on_c, 5, 69, 0
7, 130980, Note_on_c, 5, 69, 100
7, 130980, Note_on_c, 5, 81, 100
7, 131040, Note_on_c, 5, 81, 0
7, 131040, Note_on_c, 5, 69, 0
7, 131040, Note_on_c, 5, 69, 100
7, 131040, Note_on_c, 5, 81, 100
7, 133320, Note_on_c, 5, 81, 0
7, 133320, Note_on_c, 5, 69, 0
7, 133320, Note_on_c, 5, 66, 100
7, 133320, Note_on_c, 5, 78, 100
7, 133440, Note_on_c, 5, 78, 0
7, 133440, Note_on_c, 5, 66, 0
7, 133440, Note_on_c, 5, 62, 100
7, 133440, Note_on_c, 5, 74, 100
7, 133560, Note_on_c, 5, 74, 0
7, 133560, Note_on_c, 5, 62, 0
7, 133560, Note_on_c, 5, 57, 100
7, 133560, Note_on_c, 5, 69, 100
7, 133680, Note_on_c, 5, 69, 0
7, 133680, Note_on_c, 5, 57, 0
7, 143280, Note_on_c, 5, 69, 100
7, 143280, Note_on_c, 5, 81, 100
7, 145740, Note_on_c, 5, 81, 0
7, 145740, Note_on_c, 5, 69, 0
7, 145740, Note_on_c, 5, 69, 100
7, 145740, Note_on_c, 5, 81, 100
7, 145800, Note_on_c, 5, 81, 0
7, 145800, Note_on_c, 5, 69, 0
7, 145800, Note_on_c, 5, 69, 100
7, 145800, Note_on_c, 5, 81, 100
7, 146100, Note_on_c, 5, 81, 0
7, 146100, Note_on_c, 5, 69, 0
7, 146100, Note_on_c, 5, 69, 100
7, 146100, Note_on_c, 5, 81, 100
7, 146160, Note_on_c, 5, 81, 0
7, 146160, Note_on_c, 5, 69, 0
7, 146160, Note_on_c, 5, 69, 100
7, 146160, Note_on_c, 5, 81, 100
7, 148440, Note_on_c, 5, 81, 0
7, 148440, Note_on_c, 5, 69, 0
7, 148440, Note_on_c, 5, 66, 100
7, 148440, Note_on_c, 5, 78, 100
7, 148560, Note_on_c, 5, 78, 0
7, 148560, Note_on_c, 5, 66, 0
7, 148560, Note_on_c, 5, 62, 100
7, 148560, Note_on_c, 5, 74, 100
7, 148680, Note_on_c, 5, 74, 0
7, 148680, Note_on_c, 5, 62, 0
7, 148680, Note_on_c, 5, 57, 100
7, 148680, Note_on_c, 5, 69, 100
7, 148800, Note_on_c, 5, 69, 0
7, 148800, Note_on_c, 5, 57, 0
7, 153960, Note_on_c, 5, 69, 100
7, 154080, Note_on_c, 5, 69, 0
7, 154080, Note_on_c, 5, 69, 100
7, 154200, Note_on_c, 5, 69, 0
7, 154320, Note_on_c, 5, 69, 100
7, 154440, Note_on_c, 5, 69, 0
7, 154440, Note_on_c, 5, 69, 100
7, 154560, Note_on_c, 5, 69, 0
7, 154680, Note_on_c, 5, 69, 100
7, 154800, Note_on_c, 5, 69, 0
7, 154800, Note_on_c, 5, 69, 100
7, 154920, Note_on_c, 5, 69, 0
7, 159840, Note_on_c, 5, 76, 100
7, 160200, Note_on_c, 5, 76, 0
7, 160200, Note_on_c, 5, 57, 100
7, 160200, Note_on_c, 5, 69, 100
7, 160320, Note_on_c, 5, 69, 0
7, 160320, Note_on_c, 5, 57, 0
7, 160320, Note_on_c, 5, 57, 100
7, 160320, Note_on_c, 5, 69, 100
7, 160440, Note_on_c, 5, 69, 0
7, 160440, Note_on_c, 5, 57, 0
7, 160440, Note_on_c, 5, 57, 100
7, 160440, Note_on_c, 5, 69, 100
7, 160560, Note_on_c, 5, 69, 0
7, 160560, Note_on_c, 5, 57, 0
7, 160560, Note_on_c, 5, 76, 100
7, 160920, Note_on_c, 5, 76, 0
7, 160920, Note_on_c, 5, 57, 100
7, 160920, Note_on_c, 5, 69, 100
7, 161040, Note_on_c, 5, 69, 0
7, 161040, Note_on_c, 5, 57, 0
7, 161040, Note_on_c, 5, 57, 100
7, 161040, Note_on_c, 5, 69, 100
7, 161160, Note_on_c, 5, 69, 0
7, 161160, Note_on_c, 5, 57, 0
7, 161160, Note_on_c, 5, 57, 100
7, 161160, Note_on_c, 5, 69, 100
7, 161280, Note_on_c, 5, 69, 0
7, 161280, Note_on_c, 5, 57, 0
7, 161280, Note_on_c, 5, 76, 100
7, 161640, Note_on_c, 5, 76, 0
7, 161640, Note_on_c, 5, 57, 100
7, 161640, Note_on_c, 5, 69, 100
7, 161760, Note_on_c, 5, 69, 0
7, 161760, Note_on_c, 5, 57, 0
7, 161760, Note_on_c, 5, 57, 100
7, 161760, Note_on_c, 5, 69, 100
7, 161880, Note_on_c, 5, 69, 0
7, 161880, Note_on_c, 5, 57, 0
7, 161880, Note_on_c, 5, 57, 100
7, 161880, Note_on_c, 5, 69, 100
7, 162000, Note_on_c, 5, 69, 0
7, 162000, Note_on_c, 5, 57, 0
7, 162000, Note_on_c, 5, 57, 100
7, 162000, Note_on_c, 5, 69, 100
7, 162120, Note_on_c, 5, 69, 0
7, 162120, Note_on_c, 5, 57, 0
7, 162120, Note_on_c, 5, 57, 100
7, 162120, Note_on_c, 5, 69, 100
7, 162240, Note_on_c, 5, 69, 0
7, 162240, Note_on_c, 5, 57, 0
7, 162240, Note_on_c, 5, 57, 100
7, 162240, Note_on_c, 5, 69, 100
7, 162360, Note_on_c, 5, 69, 0
7, 162360, Note_on_c, 5, 57, 0
7, 162360, Note_on_c, 5, 57, 100
7, 162360, Note_on_c, 5, 69, 100
7, 162480, Note_on_c, 5, 69, 0
7, 162480, Note_on_c, 5, 57, 0
7, 162600, Note_on_c, 5, 69, 100
7, 162720, Note_on_c, 5, 69, 0
7, 162720, Note_on_c, 5, 69, 100
7, 162840, Note_on_c, 5, 69, 0
7, 162960, Note_on_c, 5, 69, 100
7, 163080, Note_on_c, 5, 69, 0
7, 163080, Note_on_c, 5, 69, 100
7, 163200, Note_on_c, 5, 69, 0
7, 163320, Note_on_c, 5, 69, 100
7, 163440, Note_on_c, 5, 69, 0
7, 163440, Note_on_c, 5, 69, 100
7, 163560, Note_on_c, 5, 69, 0
7, 168480, Note_on_c, 5, 76, 100
7, 168840, Note_on_c, 5, 76, 0
7, 168840, Note_on_c, 5, 57, 100
7, 168840, Note_on_c, 5, 69, 100
7, 168960, Note_on_c, 5, 69, 0
7, 168960, Note_on_c, 5, 57, 0
7, 168960, Note_on_c, 5, 57, 100
7, 168960, Note_on_c, 5, 69, 100
7, 169080, Note_on_c, 5, 69, 0
7, 169080, Note_on_c, 5, 57, 0
7, 169080, Note_on_c, 5, 57, 100
7, 169080, Note_on_c, 5, 69, 100
7, 169200, Note_on_c, 5, 69, 0
7, 169200, Note_on_c, 5, 57, 0
7, 169200, Note_on_c, 5, 76, 100
7, 169560, Note_on_c, 5, 76, 0
7, 169560, Note_on_c, 5, 57, 100
7, 169560, Note_on_c, 5, 69, 100
7, 169680, Note_on_c, 5, 69, 0
7, 169680, Note_on_c, 5, 57, 0
7, 169680, Note_on_c, 5, 57, 100
7, 169680, Note_on_c, 5, 69, 100
7, 169800, Note_on_c, 5, 69, 0
7, 169800, Note_on_c, 5, 57, 0
7, 169800, Note_on_c, 5, 57, 100
7, 169800, Note_on_c, 5, 69, 100
7, 169920, Note_on_c, 5, 69, 0
7, 169920, Note_on_c, 5, 57, 0
7, 169920, Note_on_c, 5, 76, 100
7, 170280, Note_on_c, 5, 76, 0
7, 170280, Note_on_c, 5, 57, 100
7, 170280, Note_on_c, 5, 69, 100
7, 170400, Note_on_c, 5, 69, 0
7, 170400, Note_on_c, 5, 57, 0
7, 170400, Note_on_c, 5, 57, 100
7, 170400, Note_on_c, 5, 69, 100
7, 170520, Note_on_c, 5, 69, 0
7, 170520, Note_on_c, 5, 57, 0
7, 170520, Note_on_c, 5, 57, 100
7, 170520, Note_on_c, 5, 69, 100
7, 170640, Note_on_c, 5, 69, 0
7, 170640, Note_on_c, 5, 57, 0
7, 170640, Note_on_c, 5, 57, 100
7, 170640, Note_on_c, 5, 69, 100
7, 170760, Note_on_c, 5, 69, 0
7, 170760, Note_on_c, 5, 57, 0
7, 170760, Note_on_c, 5, 57, 100
7, 170760, Note_on_c, 5, 69, 100
7, 170880, Note_on_c, 5, 69, 0
7, 170880, Note_on_c, 5, 57, 0
7, 170880, Note_on_c, 5, 57, 100
7, 170880, Note_on_c, 5, 69, 100
7, 171000, Note_on_c, 5, 69, 0
7, 171000, Note_on_c, 5, 57, 0
7, 171000, Note_on_c, 5, 57, 100
7, 171000, Note_on_c, 5, 69, 100
7, 171120, Note_on_c, 5, 69, 0
7, 171120, Note_on_c, 5, 57, 0
7, 178080, Note_on_c, 5, 62, 100
7, 178080, Note_on_c, 5, 74, 100
7, 178200, Note_on_c, 5, 74, 0
7, 178200, Note_on_c, 5, 62, 0
7, 178200, Note_on_c, 5, 62, 100
7, 178200, Note_on_c, 5, 74, 100
7, 178320, Note_on_c, 5, 74, 0
7, 178320, Note_on_c, 5, 62, 0
7, 183840, Note_on_c, 5, 69, 100
7, 183960, Note_on_c, 5, 69, 0
7, 183960, Note_on_c, 5, 69, 100
7, 184080, Note_on_c, 5, 69, 0
7, 194280, Note_on_c, 5, 57, 100
7, 194280, Note_on_c, 5, 69, 100
7, 194400, Note_on_c, 5, 69, 0
7, 194400, Note_on_c, 5, 57, 0
7, 194400, Note_on_c, 5, 57, 100
7, 194400, Note_on_c, 5, 69, 100
7, 194520, Note_on_c, 5, 69, 0
7, 194520, Note_on_c, 5, 57, 0
7, 194640, Note_on_c, 5, 57, 100
7, 194640, Note_on_c, 5, 69, 100
7, 194760, Note_on_c, 5, 69, 0
7, 194760, Note_on_c, 5, 57, 0
7, 194760, Note_on_c, 5, 57, 100
7, 194760, Note_on_c, 5, 69, 100
7, 194880, Note_on_c, 5, 69, 0
7, 194880, Note_on_c, 5, 57, 0
7, 195000, Note_on_c, 5, 57, 100
7, 195000, Note_on_c, 5, 69, 100
7, 195120, Note_on_c, 5, 69, 0
7, 195120, Note_on_c, 5, 57, 0
7, 195120, Note_on_c, 5, 57, 100
7, 195120, Note_on_c, 5, 69, 100
7, 195240, Note_on_c, 5, 69, 0
7, 195240, Note_on_c, 5, 57, 0
7, 195240, Note_on_c, 5, 57, 100
7, 195240, Note_on_c, 5, 69, 100
7, 195360, Note_on_c, 5, 69, 0
7, 195360, Note_on_c, 5, 57, 0
7, 195360, Note_on_c, 5, 57, 100
7, 195360, Note_on_c, 5, 69, 100
7, 195480, Note_on_c, 5, 69, 0
7, 195480, Note_on_c, 5, 57, 0
7, 195480, Note_on_c, 5, 57, 100
7, 195480, Note_on_c, 5, 69, 100
7, 195600, Note_on_c, 5, 69, 0
7, 195600, Note_on_c, 5, 57, 0
7, 195600, Note_on_c, 5, 57, 100
7, 195600, Note_on_c, 5, 69, 100
7, 195720, Note_on_c, 5, 69, 0
7, 195720, Note_on_c, 5, 57, 0
7, 195720, Note_on_c, 5, 57, 100
7, 195720, Note_on_c, 5, 69, 100
7, 195840, Note_on_c, 5, 69, 0
7, 195840, Note_on_c, 5, 57, 0
7, 195840, Note_on_c, 5, 57, 100
7, 195840, Note_on_c, 5, 69, 100
7, 195960, Note_on_c, 5, 69, 0
7, 195960, Note_on_c, 5, 57, 0
7, 195960, Note_on_c, 5, 57, 100
7, 195960, Note_on_c, 5, 69, 100
7, 196080, Note_on_c, 5, 69, 0
7, 196080, Note_on_c, 5, 57, 0
7, 196080, Note_on_c, 5, 57, 100
7, 196080, Note_on_c, 5, 69, 100
7, 196200, Note_on_c, 5, 69, 0
7, 196200, Note_on_c, 5, 57, 0
7, 197640, Note_on_c, 5, 57, 100
7, 197640, Note_on_c, 5, 69, 100
7, 197760, Note_on_c, 5, 69, 0
7, 197760, Note_on_c, 5, 57, 0
7, 197760, Note_on_c, 5, 57, 100
7, 197760, Note_on_c, 5, 69, 100
7, 197880, Note_on_c, 5, 69, 0
7, 197880, Note_on_c, 5, 57, 0
7, 197880, Note_on_c, 5, 57, 100
7, 197880, Note_on_c, 5, 69, 100
7, 198000, Note_on_c, 5, 69, 0
7, 198000, Note_on_c, 5, 57, 0
7, 207720, Note_on_c, 5, 57, 100
7, 207720, Note_on_c, 5, 69, 100
7, 207840, Note_on_c, 5, 69, 0
7, 207840, Note_on_c, 5, 57, 0
7, 207840, Note_on_c, 5, 57, 100
7, 207840, Note_on_c, 5, 69, 100
7, 207960, Note_on_c, 5, 69, 0
7, 207960, Note_on_c, 5, 57, 0
7, 207960, Note_on_c, 5, 57, 100
7, 207960, Note_on_c, 5, 69, 100
7, 208080, Note_on_c, 5, 69, 0
7, 208080, Note_on_c, 5, 57, 0
7, 208440, Note_on_c, 5, 57, 100
7, 208440, Note_on_c, 5, 69, 100
7, 208560, Note_on_c, 5, 69, 0
7, 208560, Note_on_c, 5, 57, 0
7, 208560, Note_on_c, 5, 57, 100
7, 208560, Note_on_c, 5, 69, 100
7, 208680, Note_on_c, 5, 69, 0
7, 208680, Note_on_c, 5, 57, 0
7, 208680, Note_on_c, 5, 57, 100
7, 208680, Note_on_c, 5, 69, 100
7, 208800, Note_on_c, 5, 69, 0
7, 208800, Note_on_c, 5, 57, 0
7, 209160, Note_on_c, 5, 57, 100
7, 209160, Note_on_c, 5, 69, 100
7, 209280, Note_on_c, 5, 69, 0
7, 209280, Note_on_c, 5, 57, 0
7, 209280, Note_on_c, 5, 57, 100
7, 209280, Note_on_c, 5, 69, 100
7, 209400, Note_on_c, 5, 69, 0
7, 209400, Note_on_c, 5, 57, 0
7, 209400, Note_on_c, 5, 57, 100
7, 209400, Note_on_c, 5, 69, 100
7, 209520, Note_on_c, 5, 69, 0
7, 209520, Note_on_c, 5, 57, 0
7, 209880, Note_on_c, 5, 57, 100
7, 209880, Note_on_c, 5, 69, 100
7, 210000, Note_on_c, 5, 69, 0
7, 210000, Note_on_c, 5, 57, 0
7, 210000, Note_on_c, 5, 57, 100
7, 210000, Note_on_c, 5, 69, 100
7, 210120, Note_on_c, 5, 69, 0
7, 210120, Note_on_c, 5, 57, 0
7, 210120, Note_on_c, 5, 57, 100
7, 210120, Note_on_c, 5, 69, 100
7, 210240, Note_on_c, 5, 69, 0
7, 210240, Note_on_c, 5, 57, 0
7, 210600, Note_on_c, 5, 57, 100
7, 210600, Note_on_c, 5, 69, 100
7, 210720, Note_on_c, 5, 69, 0
7, 210720, Note_on_c, 5, 57, 0
7, 210720, Note_on_c, 5, 57, 100
7, 210720, Note_on_c, 5, 69, 100
7, 210840, Note_on_c, 5, 69, 0
7, 210840, Note_on_c, 5, 57, 0
7, 210840, Note_on_c, 5, 57, 100
7, 210840, Note_on_c, 5, 69, 100
7, 210960, Note_on_c, 5, 69, 0
7, 210960, Note_on_c, 5, 57, 0
7, 210960, Note_on_c, 5, 57, 100
7, 210960, Note_on_c, 5, 69, 100
7, 211080, Note_on_c, 5, 69, 0
7, 211080, Note_on_c, 5, 57, 0
7, 211080, Note_on_c, 5, 57, 100
7, 211080, Note_on_c, 5, 69, 100
7, 211200, Note_on_c, 5, 69, 0
7, 211200, Note_on_c, 5, 57, 0
7, 211200, Note_on_c, 5, 57, 100
7, 211200, Note_on_c, 5, 69, 100
7, 211320, Note_on_c, 5, 69, 0
7, 211320, Note_on_c, 5, 57, 0
7, 211320, Note_on_c, 5, 57, 100
7, 211320, Note_on_c, 5, 69, 100
7, 211440, Note_on_c, 5, 69, 0
7, 211440, Note_on_c, 5, 57, 0
7, 213000, Note_on_c, 5, 69, 100
7, 213120, Note_on_c, 5, 69, 0
7, 213120, Note_on_c, 5, 69, 100
7, 213240, Note_on_c, 5, 69, 0
7, 213360, Note_on_c, 5, 69, 100
7, 213480, Note_on_c, 5, 69, 0
7, 213480, Note_on_c, 5, 69, 100
7, 213600, Note_on_c, 5, 69, 0
7, 213720, Note_on_c, 5, 69, 100
7, 213840, Note_on_c, 5, 69, 0
7, 213840, Note_on_c, 5, 69, 100
7, 213960, Note_on_c, 5, 69, 0
7, 214080, Note_on_c, 5, 69, 100
7, 214200, Note_on_c, 5, 69, 0
7, 214200, Note_on_c, 5, 69, 100
7, 214320, Note_on_c, 5, 69, 0
7, 214440, Note_on_c, 5, 69, 100
7, 214560, Note_on_c, 5, 69, 0
7, 214560, Note_on_c, 5, 69, 100
7, 214680, Note_on_c, 5, 69, 0
7, 236880, Note_on_c, 5, 69, 100
7, 236880, Note_on_c, 5, 81, 100
7, 239340, Note_on_c, 5, 81, 0
7, 239340, Note_on_c, 5, 69, 0
7, 239340, Note_on_c, 5, 69, 100
7, 239340, Note_on_c, 5, 81, 100
7, 239400, Note_on_c, 5, 81, 0
7, 239400, Note_on_c, 5, 69, 0
7, 239400, Note_on_c, 5, 69, 100
7, 239400, Note_on_c, 5, 81, 100
7, 239700, Note_on_c, 5, 81, 0
7, 239700, Note_on_c, 5, 69, 0
7, 239700, Note_on_c, 5, 69, 100
7, 239700, Note_on_c, 5, 81, 100
7, 239760, Note_on_c, 5, 81, 0
7, 239760, Note_on_c, 5, 69, 0
7, 239760, Note_on_c, 5, 69, 100
7, 239760, Note_on_c, 5, 81, 100
7, 242040, Note_on_c, 5, 81, 0
7, 242040, Note_on_c, 5, 69, 0
7, 242040, Note_on_c, 5, 66, 100
7, 242040, Note_on_c, 5, 78, 100
7, 242160, Note_on_c, 5, 78, 0
7, 242160, Note_on_c, 5, 66, 0
7, 242160, Note_on_c, 5, 62, 100
7, 242160, Note_on_c, 5, 74, 100
7, 242280, Note_on_c, 5, 74, 0
7, 242280, Note_on_c, 5, 62, 0
7, 242280, Note_on_c, 5, 57, 100
7, 242280, Note_on_c, 5, 69, 100
7, 242400, Note_on_c, 5, 69, 0
7, 242400, Note_on_c, 5, 57, 0
7, 252000, Note_on_c, 5, 69, 100
7, 252000, Note_on_c, 5, 81, 100
7, 254460, Note_on_c, 5, 81, 0
7, 254460, Note_on_c, 5, 69, 0
7, 254460, Note_on_c, 5, 69, 100
7, 254460, Note_on_c, 5, 81, 100
7, 254520, Note_on_c, 5, 81, 0
7, 254520, Note_on_c, 5, 69, 0
7, 254520, Note_on_c, 5, 69, 100
7, 254520, Note_on_c, 5, 81, 100
7, 254820, Note_on_c, 5, 81, 0
7, 254820, Note_on_c, 5, 69, 0
7, 254820, Note_on_c, 5, 69, 100
7, 254820, Note_on_c, 5, 81, 100
7, 254880, Note_on_c, 5, 81, 0
7, 254880, Note_on_c, 5, 69, 0
7, 254880, Note_on_c, 5, 69, 100
7, 254880, Note_on_c, 5, 81, 100
7, 257160, Note_on_c, 5, 81, 0
7, 257160, Note_on_c, 5, 69, 0
7, 257160, Note_on_c, 5, 66, 100
7, 257160, Note_on_c, 5, 78, 100
7, 257280, Note_on_c, 5, 78, 0
7, 257280, Note_on_c, 5, 66, 0
7, 257280, Note_on_c, 5, 62, 100
7, 257280, Note_on_c, 5, 74, 100
7, 257400, Note_on_c, 5, 74, 0
7, 257400, Note_on_c, 5, 62, 0
7, 257400, Note_on_c, 5, 57, 100
7, 257400, Note_on_c, 5, 69, 100
7, 257520, Note_on_c, 5, 69, 0
7, 257520, Note_on_c, 5, 57, 0
7, 262680, Note_on_c, 5, 69, 100
7, 262800, Note_on_c, 5, 69, 0
7, 262800, Note_on_c, 5, 69, 100
7, 262920, Note_on_c, 5, 69, 0
7, 263040, Note_on_c, 5, 69, 100
7, 263160, Note_on_c, 5, 69, 0
7, 263160, Note_on_c, 5, 69, 100
7, 263280, Note_on_c, 5, 69, 0
7, 263400, Note_on_c, 5, 69, 100
7, 263520, Note_on_c, 5, 69, 0
7, 263520, Note_on_c, 5, 69, 100
7, 263640, Note_on_c, 5, 69, 0
7, 268560, Note_on_c, 5, 76, 100
7, 268920, Note_on_c, 5, 76, 0
7, 268920, Note_on_c, 5, 57, 100
7, 268920, Note_on_c, 5, 69, 100
7, 269040, Note_on_c, 5, 69, 0
7, 269040, Note_on_c, 5, 57, 0
7, 269040, Note_on_c, 5, 57, 100
7, 269040, Note_on_c, 5, 69, 100
7, 269160, Note_on_c, 5, 69, 0
7, 269160, Note_on_c, 5, 57, 0
7, 269160, Note_on_c, 5, 57, 100
7, 269160, Note_on_c, 5, 69, 100
7, 269280, Note_on_c, 5, 69, 0
7, 269280, Note_on_c, 5, 57, 0
7, 269280, Note_on_c, 5, 76, 100
7, 269640, Note_on_c, 5, 76, 0
7, 269640, Note_on_c, 5, 57, 100
7, 269640, Note_on_c, 5, 69, 100
7, 269760, Note_on_c, 5, 69, 0
7, 269760, Note_on_c, 5, 57, 0
7, 269760, Note_on_c, 5, 57, 100
7, 269760, Note_on_c, 5, 69, 100
7, 269880, Note_on_c, 5, 69, 0
7, 269880, Note_on_c, 5, 57, 0
7, 269880, Note_on_c, 5, 57, 100
7, 269880, Note_on_c, 5, 69, 100
7, 270000, Note_on_c, 5, 69, 0
7, 270000, Note_on_c, 5, 57, 0
7, 270000, Note_on_c, 5, 76, 100
7, 270360, Note_on_c, 5, 76, 0
7, 270360, Note_on_c, 5, 57, 100
7, 270360, Note_on_c, 5, 69, 100
7, 270480, Note_on_c, 5, 69, 0
7, 270480, Note_on_c, 5, 57, 0
7, 270480, Note_on_c, 5, 57, 100
7, 270480, Note_on_c, 5, 69, 100
7, 270600, Note_on_c, 5, 69, 0
7, 270600, Note_on_c, 5, 57, 0
7, 270600, Note_on_c, 5, 57, 100
7, 270600, Note_on_c, 5, 69, 100
7, 270720, Note_on_c, 5, 69, 0
7, 270720, Note_on_c, 5, 57, 0
7, 270720, Note_on_c, 5, 57, 100
7, 270720, Note_on_c, 5, 69, 100
7, 270840, Note_on_c, 5, 69, 0
7, 270840, Note_on_c, 5, 57, 0
7, 270840, Note_on_c, 5, 57, 100
7, 270840, Note_on_c, 5, 69, 100
7, 270960, Note_on_c, 5, 69, 0
7, 270960, Note_on_c, 5, 57, 0
7, 270960, Note_on_c, 5, 57, 100
7, 270960, Note_on_c, 5, 69, 100
7, 271080, Note_on_c, 5, 69, 0
7, 271080, Note_on_c, 5, 57, 0
7, 271080, Note_on_c, 5, 57, 100
7, 271080, Note_on_c, 5, 69, 100
7, 271200, Note_on_c, 5, 69, 0
7, 271200, Note_on_c, 5, 57, 0
7, 278160, Note_on_c, 5, 62, 100
7, 278160, Note_on_c, 5, 74, 100
7, 278280, Note_on_c, 5, 74, 0
7, 278280, Note_on_c, 5, 62, 0
7, 278280, Note_on_c, 5, 62, 100
7, 278280, Note_on_c, 5, 74, 100
7, 278400, Note_on_c, 5, 74, 0
7, 278400, Note_on_c, 5, 62, 0
7, 283920, Note_on_c, 5, 69, 100
7, 284040, Note_on_c, 5, 69, 0
7, 284040, Note_on_c, 5, 69, 100
7, 284160, Note_on_c, 5, 69, 0
7, 294360, Note_on_c, 5, 57, 100
7, 294360, Note_on_c, 5, 69, 100
7, 294480, Note_on_c, 5, 69, 0
7, 294480, Note_on_c, 5, 57, 0
7, 294480, Note_on_c, 5, 57, 100
7, 294480, Note_on_c, 5, 69, 100
7, 294600, Note_on_c, 5, 69, 0
7, 294600, Note_on_c, 5, 57, 0
7, 294720, Note_on_c, 5, 57, 100
7, 294720, Note_on_c, 5, 69, 100
7, 294840, Note_on_c, 5, 69, 0
7, 294840, Note_on_c, 5, 57, 0
7, 294840, Note_on_c, 5, 57, 100
7, 294840, Note_on_c, 5, 69, 100
7, 294960, Note_on_c, 5, 69, 0
7, 294960, Note_on_c, 5, 57, 0
7, 295080, Note_on_c, 5, 57, 100
7, 295080, Note_on_c, 5, 69, 100
7, 295200, Note_on_c, 5, 69, 0
7, 295200, Note_on_c, 5, 57, 0
7, 295200, Note_on_c, 5, 57, 100
7, 295200, Note_on_c, 5, 69, 100
7, 295320, Note_on_c, 5, 69, 0
7, 295320, Note_on_c, 5, 57, 0
7, 295320, Note_on_c, 5, 57, 100
7, 295320, Note_on_c, 5, 69, 100
7, 295440, Note_on_c, 5, 69, 0
7, 295440, Note_on_c, 5, 57, 0
7, 295440, Note_on_c, 5, 57, 100
7, 295440, Note_on_c, 5, 69, 100
7, 295560, Note_on_c, 5, 69, 0
7, 295560, Note_on_c, 5, 57, 0
7, 295560, Note_on_c, 5, 57, 100
7, 295560, Note_on_c, 5, 69, 100
7, 295680, Note_on_c, 5, 69, 0
7, 295680, Note_on_c, 5, 57, 0
7, 295680, Note_on_c, 5, 57, 100
7, 295680, Note_on_c, 5, 69, 100
7, 295800, Note_on_c, 5, 69, 0
7, 295800, Note_on_c, 5, 57, 0
7, 295800, Note_on_c, 5, 57, 100
7, 295800, Note_on_c, 5, 69, 100
7, 295920, Note_on_c, 5, 69, 0
7, 295920, Note_on_c, 5, 57, 0
7, 295920, Note_on_c, 5, 57, 100
7, 295920, Note_on_c, 5, 69, 100
7, 296040, Note_on_c, 5, 69, 0
7, 296040, Note_on_c, 5, 57, 0
7, 296040, Note_on_c, 5, 57, 100
7, 296040, Note_on_c, 5, 69, 100
7, 296160, Note_on_c, 5, 69, 0
7, 296160, Note_on_c, 5, 57, 0
7, 296160, Note_on_c, 5, 57, 100
7, 296160, Note_on_c, 5, 69, 100
7, 296280, Note_on_c, 5, 69, 0
7, 296280, Note_on_c, 5, 57, 0
7, 297720, Note_on_c, 5, 57, 100
7, 297720, Note_on_c, 5, 69, 100
7, 297840, Note_on_c, 5, 69, 0
7, 297840, Note_on_c, 5, 57, 0
7, 297840, Note_on_c, 5, 57, 100
7, 297840, Note_on_c, 5, 69, 100
7, 297960, Note_on_c, 5, 69, 0
7, 297960, Note_on_c, 5, 57, 0
7, 297960, Note_on_c, 5, 57, 100
7, 297960, Note_on_c, 5, 69, 100
7, 298080, Note_on_c, 5, 69, 0
7, 298080, Note_on_c, 5, 57, 0
7, 307800, Note_on_c, 5, 57, 100
7, 307800, Note_on_c, 5, 69, 100
7, 307920, Note_on_c, 5, 69, 0
7, 307920, Note_on_c, 5, 57, 0
7, 307920, Note_on_c, 5, 57, 100
7, 307920, Note_on_c, 5, 69, 100
7, 308040, Note_on_c, 5, 69, 0
7, 308040, Note_on_c, 5, 57, 0
7, 308040, Note_on_c, 5, 57, 100
7, 308040, Note_on_c, 5, 69, 100
7, 308160, Note_on_c, 5, 69, 0
7, 308160, Note_on_c, 5, 57, 0
7, 308520, Note_on_c, 5, 57, 100
7, 308520, Note_on_c, 5, 69, 100
7, 308640, Note_on_c, 5, 69, 0
7, 308640, Note_on_c, 5, 57, 0
7, 308640, Note_on_c, 5, 57, 100
7, 308640, Note_on_c, 5, 69, 100
7, 308760, Note_on_c, 5, 69, 0
7, 308760, Note_on_c, 5, 57, 0
7, 308760, Note_on_c, 5, 57, 100
7, 308760, Note_on_c, 5, 69, 100
7, 308880, Note_on_c, 5, 69, 0
7, 308880, Note_on_c, 5, 57, 0
7, 309240, Note_on_c, 5, 57, 100
7, 309240, Note_on_c, 5, 69, 100
7, 309360, Note_on_c, 5, 69, 0
7, 309360, Note_on_c, 5, 57, 0
7, 309360, Note_on_c, 5, 57, 100
7, 309360, Note_on_c, 5, 69, 100
7, 309480, Note_on_c, 5, 69, 0
7, 309480, Note_on_c, 5, 57, 0
7, 309480, Note_on_c, 5, 57, 100
7, 309480, Note_on_c, 5, 69, 100
7, 309600, Note_on_c, 5, 69, 0
7, 309600, Note_on_c, 5, 57, 0
7, 309960, Note_on_c, 5, 57, 100
7, 309960, Note_on_c, 5, 69, 100
7, 310080, Note_on_c, 5, 69, 0
7, 310080, Note_on_c, 5, 57, 0
7, 310080, Note_on_c, 5, 57, 100
7, 310080, Note_on_c, 5, 69, 100
7, 310200, Note_on_c, 5, 69, 0
7, 310200, Note_on_c, 5, 57, 0
7, 310200, Note_on_c, 5, 57, 100
7, 310200, Note_on_c, 5, 69, 100
7, 310320, Note_on_c, 5, 69, 0
7, 310320, Note_on_c, 5, 57, 0
7, 310680, Note_on_c, 5, 57, 100
7, 310680, Note_on_c, 5, 69, 100
7, 310800, Note_on_c, 5, 69, 0
7, 310800, Note_on_c, 5, 57, 0
7, 310800, Note_on_c, 5, 57, 100
7, 310800, Note_on_c, 5, 69, 100
7, 310920, Note_on_c, 5, 69, 0
7, 310920, Note_on_c, 5, 57, 0
7, 310920, Note_on_c, 5, 57, 100
7, 310920, Note_on_c, 5, 69, 100
7, 311040, Note_on_c, 5, 69, 0
7, 311040, Note_on_c, 5, 57, 0
7, 311040, Note_on_c, 5, 57, 100
7, 311040, Note_on_c, 5, 69, 100
7, 311160, Note_on_c, 5, 69, 0
7, 311160, Note_on_c, 5, 57, 0
7, 311160, Note_on_c, 5, 57, 100
7, 311160, Note_on_c, 5, 69, 100
7, 311280, Note_on_c, 5, 69, 0
7, 311280, Note_on_c, 5, 57, 0
7, 311280, Note_on_c, 5, 57, 100
7, 311280, Note_on_c, 5, 69, 100
7, 311400, Note_on_c, 5, 69, 0
7, 311400, Note_on_c, 5, 57, 0
7, 311400, Note_on_c, 5, 57, 100
7, 311400, Note_on_c, 5, 69, 100
7, 311520, Note_on_c, 5, 69, 0
7, 311520, Note_on_c, 5, 57, 0
7, 313080, Note_on_c, 5, 69, 100
7, 313200, Note_on_c, 5, 69, 0
7, 313200, Note_on_c, 5, 69, 100
7, 313320, Note_on_c, 5, 69, 0
7, 313440, Note_on_c, 5, 69, 100
7, 313560, Note_on_c, 5, 69, 0
7, 313560, Note_on_c, 5, 69, 100
7, 313680, Note_on_c, 5, 69, 0
7, 313800, Note_on_c, 5, 69, 100
7, 313920, Note_on_c, 5, 69, 0
7, 313920, Note_on_c, 5, 69, 100
7, 314040, Note_on_c, 5, 69, 0
7, 314160, Note_on_c, 5, 69, 100
7, 314280, Note_on_c, 5, 69, 0
7, 314280, Note_on_c, 5, 69, 100
7, 314400, Note_on_c, 5, 69, 0
7, 314520, Note_on_c, 5, 69, 100
7, 314640, Note_on_c, 5, 69, 0
7, 314640, Note_on_c, 5, 69, 100
7, 314760, Note_on_c, 5, 69, 0
7, 317520, Note_on_c, 5, 62, 100
7, 317520, Note_on_c, 5, 74, 100
7, 317640, Note_on_c, 5, 74, 0
7, 317640, Note_on_c, 5, 62, 0
7, 317880, Note_on_c, 5, 62, 100
7, 317880, Note_on_c, 5, 74, 100
7, 318000, Note_on_c, 5, 74, 0
7, 318000, Note_on_c, 5, 62, 0
7, 318600, Note_on_c, 5, 76, 100
7, 318720, Note_on_c, 5, 76, 0
7, 318960, Note_on_c, 5, 57, 100
7, 318960, Note_on_c, 5, 69, 100
7, 319080, Note_on_c, 5, 69, 0
7, 319080, Note_on_c, 5, 57, 0
7, 319080, End_track
8, 0, Start_track
8, 0, MIDI_port, 0
8, 0, Title_t, "Timpani in A E"
8, 0, Program_c, 6, 47
8, 0, Control_c, 6, 7, 110
8, 0, Control_c, 6, 10, 65
8, 600, Note_on_c, 6, 53, 100
8, 720, Note_on_c, 6, 53, 0
8, 720, Note_on_c, 6, 53, 100
8, 840, Note_on_c, 6, 53, 0
8, 960, Note_on_c, 6, 53, 100
8, 1080, Note_on_c, 6, 53, 0
8, 1080, Note_on_c, 6, 53, 100
8, 1200, Note_on_c, 6, 53, 0
8, 1320, Note_on_c, 6, 53, 100
8, 1440, Note_on_c, 6, 53, 0
8, 1440, Note_on_c, 6, 53, 100
8, 1560, Note_on_c, 6, 53, 0
8, 6840, Note_on_c, 6, 45, 100
8, 6960, Note_on_c, 6, 45, 0
8, 6960, Note_on_c, 6, 45, 100
8, 7080, Note_on_c, 6, 45, 0
8, 7080, Note_on_c, 6, 45, 100
8, 7200, Note_on_c, 6, 45, 0
8, 7560, Note_on_c, 6, 45, 100
8, 7680, Note_on_c, 6, 45, 0
8, 7680, Note_on_c, 6, 45, 100
8, 7800, Note_on_c, 6, 45, 0
8, 7800, Note_on_c, 6, 45, 100
8, 7920, Note_on_c, 6, 45, 0
8, 8280, Note_on_c, 6, 45, 100
8, 8400, Note_on_c, 6, 45, 0
8, 8400, Note_on_c, 6, 45, 100
8, 8520, Note_on_c, 6, 45, 0
8, 8520, Note_on_c, 6, 45, 100
8, 8640, Note_on_c, 6, 45, 0
8, 8640, Note_on_c, 6, 45, 100
8, 8760, Note_on_c, 6, 45, 0
8, 8760, Note_on_c, 6, 45, 100
8, 8880, Note_on_c, 6, 45, 0
8, 8880, Note_on_c, 6, 45, 100
8, 9000, Note_on_c, 6, 45, 0
8, 9000, Note_on_c, 6, 45, 100
8, 9120, Note_on_c, 6, 45, 0
8, 9240, Note_on_c, 6, 53, 100
8, 9360, Note_on_c, 6, 53, 0
8, 9360, Note_on_c, 6, 53, 100
8, 9480, Note_on_c, 6, 53, 0
8, 9600, Note_on_c, 6, 53, 100
8, 9720, Note_on_c, 6, 53, 0
8, 9720, Note_on_c, 6, 53, 100
8, 9840, Note_on_c, 6, 53, 0
8, 9960, Note_on_c, 6, 53, 100
8, 10080, Note_on_c, 6, 53, 0
8, 10080, Note_on_c, 6, 53, 100
8, 10200, Note_on_c, 6, 53, 0
8, 15480, Note_on_c, 6, 45, 100
8, 15600, Note_on_c, 6, 45, 0
8, 15600, Note_on_c, 6, 45, 100
8, 15720, Note_on_c, 6, 45, 0
8, 15720, Note_on_c, 6, 45, 100
8, 15840, Note_on_c, 6, 45, 0
8, 16200, Note_on_c, 6, 45, 100
8, 16320, Note_on_c, 6, 45, 0
8, 16320, Note_on_c, 6, 45, 100
8, 16440, Note_on_c, 6, 45, 0
8, 16440, Note_on_c, 6, 45, 100
8, 16560, Note_on_c, 6, 45, 0
8, 16920, Note_on_c, 6, 45, 100
8, 17040, Note_on_c, 6, 45, 0
8, 17040, Note_on_c, 6, 45, 100
8, 17160, Note_on_c, 6, 45, 0
8, 17160, Note_on_c, 6, 45, 100
8, 17280, Note_on_c, 6, 45, 0
8, 17280, Note_on_c, 6, 45, 100
8, 17400, Note_on_c, 6, 45, 0
8, 17400, Note_on_c, 6, 45, 100
8, 17520, Note_on_c, 6, 45, 0
8, 17520, Note_on_c, 6, 45, 100
8, 17640, Note_on_c, 6, 45, 0
8, 17640, Note_on_c, 6, 45, 100
8, 17760, Note_on_c, 6, 45, 0
8, 17880, Note_on_c, 6, 45, 100
8, 18000, Note_on_c, 6, 45, 0
8, 18000, Note_on_c, 6, 45, 100
8, 18120, Note_on_c, 6, 45, 0
8, 30480, Note_on_c, 6, 53, 100
8, 30600, Note_on_c, 6, 53, 0
8, 30600, Note_on_c, 6, 53, 100
8, 30720, Note_on_c, 6, 53, 0
8, 40920, Note_on_c, 6, 53, 100
8, 41040, Note_on_c, 6, 53, 0
8, 41040, Note_on_c, 6, 53, 100
8, 41160, Note_on_c, 6, 53, 0
8, 41280, Note_on_c, 6, 53, 100
8, 41400, Note_on_c, 6, 53, 0
8, 41400, Note_on_c, 6, 53, 100
8, 41520, Note_on_c, 6, 53, 0
8, 41640, Note_on_c, 6, 53, 100
8, 41760, Note_on_c, 6, 53, 0
8, 41760, Note_on_c, 6, 53, 100
8, 41880, Note_on_c, 6, 53, 0
8, 41880, Note_on_c, 6, 53, 100
8, 42000, Note_on_c, 6, 53, 0
8, 42000, Note_on_c, 6, 53, 100
8, 42120, Note_on_c, 6, 53, 0
8, 42120, Note_on_c, 6, 53, 100
8, 42240, Note_on_c, 6, 53, 0
8, 42240, Note_on_c, 6, 53, 100
8, 42360, Note_on_c, 6, 53, 0
8, 42360, Note_on_c, 6, 53, 100
8, 42480, Note_on_c, 6, 53, 0
8, 42480, Note_on_c, 6, 53, 100
8, 42600, Note_on_c, 6, 53, 0
8, 42600, Note_on_c, 6, 53, 100
8, 42720, Note_on_c, 6, 53, 0
8, 42720, Note_on_c, 6, 53, 100
8, 42840, Note_on_c, 6, 53, 0
8, 44280, Note_on_c, 6, 53, 100
8, 44400, Note_on_c, 6, 53, 0
8, 44400, Note_on_c, 6, 53, 100
8, 44520, Note_on_c, 6, 53, 0
8, 44520, Note_on_c, 6, 53, 100
8, 44640, Note_on_c, 6, 53, 0
8, 45360, Note_on_c, 6, 53, 100
8, 45480, Note_on_c, 6, 53, 0
8, 45480, Note_on_c, 6, 53, 100
8, 45600, Note_on_c, 6, 53, 0
8, 45600, Note_on_c, 6, 53, 100
8, 45720, Note_on_c, 6, 53, 0
8, 47160, Note_on_c, 6, 53, 100
8, 47280, Note_on_c, 6, 53, 0
8, 47280, Note_on_c, 6, 53, 100
8, 47400, Note_on_c, 6, 53, 0
8, 47400, Note_on_c, 6, 53, 100
8, 47520, Note_on_c, 6, 53, 0
8, 54360, Note_on_c, 6, 53, 100
8, 54480, Note_on_c, 6, 53, 0
8, 54480, Note_on_c, 6, 53, 100
8, 54600, Note_on_c, 6, 53, 0
8, 54600, Note_on_c, 6, 53, 100
8, 54720, Note_on_c, 6, 53, 0
8, 55080, Note_on_c, 6, 53, 100
8, 55200, Note_on_c, 6, 53, 0
8, 55200, Note_on_c, 6, 53, 100
8, 55320, Note_on_c, 6, 53, 0
8, 55320, Note_on_c, 6, 53, 100
8, 55440, Note_on_c, 6, 53, 0
8, 55800, Note_on_c, 6, 53, 100
8, 55920, Note_on_c, 6, 53, 0
8, 55920, Note_on_c, 6, 53, 100
8, 56040, Note_on_c, 6, 53, 0
8, 56040, Note_on_c, 6, 53, 100
8, 56160, Note_on_c, 6, 53, 0
8, 56520, Note_on_c, 6, 53, 100
8, 56640, Note_on_c, 6, 53, 0
8, 56640, Note_on_c, 6, 53, 100
8, 56760, Note_on_c, 6, 53, 0
8, 56760, Note_on_c, 6, 53, 100
8, 56880, Note_on_c, 6, 53, 0
8, 57240, Note_on_c, 6, 53, 100
8, 57360, Note_on_c, 6, 53, 0
8, 57360, Note_on_c, 6, 53, 100
8, 57480, Note_on_c, 6, 53, 0
8, 57480, Note_on_c, 6, 53, 100
8, 57600, Note_on_c, 6, 53, 0
8, 57600, Note_on_c, 6, 53, 100
8, 57720, Note_on_c, 6, 53, 0
8, 57720, Note_on_c, 6, 53, 100
8, 57840, Note_on_c, 6, 53, 0
8, 57840, Note_on_c, 6, 53, 100
8, 57960, Note_on_c, 6, 53, 0
8, 57960, Note_on_c, 6, 53, 100
8, 58080, Note_on_c, 6, 53, 0
8, 58200, Note_on_c, 6, 53, 100
8, 58320, Note_on_c, 6, 53, 0
8, 58320, Note_on_c, 6, 53, 100
8, 58440, Note_on_c, 6, 53, 0
8, 59640, Note_on_c, 6, 53, 100
8, 59760, Note_on_c, 6, 53, 0
8, 59760, Note_on_c, 6, 45, 100
8, 59880, Note_on_c, 6, 45, 0
8, 60000, Note_on_c, 6, 53, 100
8, 60120, Note_on_c, 6, 53, 0
8, 60120, Note_on_c, 6, 45, 100
8, 60240, Note_on_c, 6, 45, 0
8, 60360, Note_on_c, 6, 53, 100
8, 60480, Note_on_c, 6, 53, 0
8, 60480, Note_on_c, 6, 45, 100
8, 60600, Note_on_c, 6, 45, 0
8, 60720, Note_on_c, 6, 53, 100
8, 60840, Note_on_c, 6, 53, 0
8, 60840, Note_on_c, 6, 45, 100
8, 60960, Note_on_c, 6, 45, 0
8, 61080, Note_on_c, 6, 53, 100
8, 61200, Note_on_c, 6, 53, 0
8, 61200, Note_on_c, 6, 45, 100
8, 61320, Note_on_c, 6, 45, 0
8, 62520, Note_on_c, 6, 45, 100
8, 62640, Note_on_c, 6, 45, 0
8, 62640, Note_on_c, 6, 45, 100
8, 62760, Note_on_c, 6, 45, 0
8, 75120, Note_on_c, 6, 53, 100
8, 75240, Note_on_c, 6, 53, 0
8, 75240, Note_on_c, 6, 53, 100
8, 75360, Note_on_c, 6, 53, 0
8, 85560, Note_on_c, 6, 53, 100
8, 85680, Note_on_c, 6, 53, 0
8, 85680, Note_on_c, 6, 53, 100
8, 85800, Note_on_c, 6, 53, 0
8, 85920, Note_on_c, 6, 53, 100
8, 86040, Note_on_c, 6, 53, 0
8, 86040, Note_on_c, 6, 53, 100
8, 86160, Note_on_c, 6, 53, 0
8, 86280, Note_on_c, 6, 53, 100
8, 86400, Note_on_c, 6, 53, 0
8, 86400, Note_on_c, 6, 53, 100
8, 86520, Note_on_c, 6, 53, 0
8, 86520, Note_on_c, 6, 53, 100
8, 86640, Note_on_c, 6, 53, 0
8, 86640, Note_on_c, 6, 53, 100
8, 86760, Note_on_c, 6, 53, 0
8, 86760, Note_on_c, 6, 53, 100
8, 86880, Note_on_c, 6, 53, 0
8, 86880, Note_on_c, 6, 53, 100
8, 87000, Note_on_c, 6, 53, 0
8, 87000, Note_on_c, 6, 53, 100
8, 87120, Note_on_c, 6, 53, 0
8, 87120, Note_on_c, 6, 53, 100
8, 87240, Note_on_c, 6, 53, 0
8, 87240, Note_on_c, 6, 53, 100
8, 87360, Note_on_c, 6, 53, 0
8, 87360, Note_on_c, 6, 53, 100
8, 87480, Note_on_c, 6, 53, 0
8, 88920, Note_on_c, 6, 53, 100
8, 89040, Note_on_c, 6, 53, 0
8, 89040, Note_on_c, 6, 53, 100
8, 89160, Note_on_c, 6, 53, 0
8, 89160, Note_on_c, 6, 53, 100
8, 89280, Note_on_c, 6, 53, 0
8, 90000, Note_on_c, 6, 53, 100
8, 90120, Note_on_c, 6, 53, 0
8, 90120, Note_on_c, 6, 53, 100
8, 90240, Note_on_c, 6, 53, 0
8, 90240, Note_on_c, 6, 53, 100
8, 90360, Note_on_c, 6, 53, 0
8, 91800, Note_on_c, 6, 53, 100
8, 91920, Note_on_c, 6, 53, 0
8, 91920, Note_on_c, 6, 53, 100
8, 92040, Note_on_c, 6, 53, 0
8, 92040, Note_on_c, 6, 53, 100
8, 92160, Note_on_c, 6, 53, 0
8, 99000, Note_on_c, 6, 53, 100
8, 99120, Note_on_c, 6, 53, 0
8, 99120, Note_on_c, 6, 53, 100
8, 99240, Note_on_c, 6, 53, 0
8, 99240, Note_on_c, 6, 53, 100
8, 99360, Note_on_c, 6, 53, 0
8, 99720, Note_on_c, 6, 53, 100
8, 99840, Note_on_c, 6, 53, 0
8, 99840, Note_on_c, 6, 53, 100
8, 99960, Note_on_c, 6, 53, 0
8, 99960, Note_on_c, 6, 53, 100
8, 100080, Note_on_c, 6, 53, 0
8, 100440, Note_on_c, 6, 53, 100
8, 100560, Note_on_c, 6, 53, 0
8, 100560, Note_on_c, 6, 53, 100
8, 100680, Note_on_c, 6, 53, 0
8, 100680, Note_on_c, 6, 53, 100
8, 100800, Note_on_c, 6, 53, 0
8, 101160, Note_on_c, 6, 53, 100
8, 101280, Note_on_c, 6, 53, 0
8, 101280, Note_on_c, 6, 53, 100
8, 101400, Note_on_c, 6, 53, 0
8, 101400, Note_on_c, 6, 53, 100
8, 101520, Note_on_c, 6, 53, 0
8, 101880, Note_on_c, 6, 53, 100
8, 102000, Note_on_c, 6, 53, 0
8, 102000, Note_on_c, 6, 53, 100
8, 102120, Note_on_c, 6, 53, 0
8, 102120, Note_on_c, 6, 53, 100
8, 102240, Note_on_c, 6, 53, 0
8, 102240, Note_on_c, 6, 53, 100
8, 102360, Note_on_c, 6, 53, 0
8, 102360, Note_on_c, 6, 53, 100
8, 102480, Note_on_c, 6, 53, 0
8, 102480, Note_on_c, 6, 53, 100
8, 102600, Note_on_c, 6, 53, 0
8, 102600, Note_on_c, 6, 53, 100
8, 102720, Note_on_c, 6, 53, 0
8, 102840, Note_on_c, 6, 53, 100
8, 102960, Note_on_c, 6, 53, 0
8, 102960, Note_on_c, 6, 53, 100
8, 103080, Note_on_c, 6, 53, 0
8, 104280, Note_on_c, 6, 53, 100
8, 104400, Note_on_c, 6, 53, 0
8, 104400, Note_on_c, 6, 45, 100
8, 104520, Note_on_c, 6, 45, 0
8, 104640, Note_on_c, 6, 53, 100
8, 104760, Note_on_c, 6, 53, 0
8, 104760, Note_on_c, 6, 45, 100
8, 104880, Note_on_c, 6, 45, 0
8, 105000, Note_on_c, 6, 53, 100
8, 105120, Note_on_c, 6, 53, 0
8, 105120, Note_on_c, 6, 45, 100
8, 105240, Note_on_c, 6, 45, 0
8, 105360, Note_on_c, 6, 53, 100
8, 105480, Note_on_c, 6, 53, 0
8, 105480, Note_on_c, 6, 45, 100
8, 105600, Note_on_c, 6, 45, 0
8, 105720, Note_on_c, 6, 53, 100
8, 105840, Note_on_c, 6, 53, 0
8, 105840, Note_on_c, 6, 45, 100
8, 105960, Note_on_c, 6, 45, 0
8, 128160, Note_on_c, 6, 45, 100
8, 128190, Note_on_c, 6, 45, 0
8, 128190, Note_on_c, 6, 45, 100
8, 128220, Note_on_c, 6, 45, 0
8, 128220, Note_on_c, 6, 45, 100
8, 128250, Note_on_c, 6, 45, 0
8, 128250, Note_on_c, 6, 45, 100
8, 128280, Note_on_c, 6, 45, 0
8, 128280, Note_on_c, 6, 45, 100
8, 128310, Note_on_c, 6, 45, 0
8, 128310, Note_on_c, 6, 45, 100
8, 128340, Note_on_c, 6, 45, 0
8, 128340, Note_on_c, 6, 45, 100
8, 128370, Note_on_c, 6, 45, 0
8, 128370, Note_on_c, 6, 45, 100
8, 128400, Note_on_c, 6, 45, 0
8, 128400, Note_on_c, 6, 45, 100
8, 128430, Note_on_c, 6, 45, 0
8, 128430, Note_on_c, 6, 45, 100
8, 128460, Note_on_c, 6, 45, 0
8, 128460, Note_on_c, 6, 45, 100
8, 128490, Note_on_c, 6, 45, 0
8, 128490, Note_on_c, 6, 45, 100
8, 128520, Note_on_c, 6, 45, 0
8, 128520, Note_on_c, 6, 45, 100
8, 128550, Note_on_c, 6, 45, 0
8, 128550, Note_on_c, 6, 45, 100
8, 128580, Note_on_c, 6, 45, 0
8, 128580, Note_on_c, 6, 45, 100
8, 128610, Note_on_c, 6, 45, 0
8, 128610, Note_on_c, 6, 45, 100
8, 128640, Note_on_c, 6, 45, 0
8, 128640, Note_on_c, 6, 45, 100
8, 128670, Note_on_c, 6, 45, 0
8, 128670, Note_on_c, 6, 45, 100
8, 128700, Note_on_c, 6, 45, 0
8, 128700, Note_on_c, 6, 45, 100
8, 128730, Note_on_c, 6, 45, 0
8, 128730, Note_on_c, 6, 45, 100
8, 128760, Note_on_c, 6, 45, 0
8, 128760, Note_on_c, 6, 45, 100
8, 128790, Note_on_c, 6, 45, 0
8, 128790, Note_on_c, 6, 45, 100
8, 128820, Note_on_c, 6, 45, 0
8, 128820, Note_on_c, 6, 45, 100
8, 128850, Note_on_c, 6, 45, 0
8, 128850, Note_on_c, 6, 45, 100
8, 128880, Note_on_c, 6, 45, 0
8, 128880, Note_on_c, 6, 45, 100
8, 128910, Note_on_c, 6, 45, 0
8, 128910, Note_on_c, 6, 45, 100
8, 128940, Note_on_c, 6, 45, 0
8, 128940, Note_on_c, 6, 45, 100
8, 128970, Note_on_c, 6, 45, 0
8, 128970, Note_on_c, 6, 45, 100
8, 129000, Note_on_c, 6, 45, 0
8, 129000, Note_on_c, 6, 45, 100
8, 129030, Note_on_c, 6, 45, 0
8, 129030, Note_on_c, 6, 45, 100
8, 129060, Note_on_c, 6, 45, 0
8, 129060, Note_on_c, 6, 45, 100
8, 129090, Note_on_c, 6, 45, 0
8, 129090, Note_on_c, 6, 45, 100
8, 129120, Note_on_c, 6, 45, 0
8, 129120, Note_on_c, 6, 45, 100
8, 129150, Note_on_c, 6, 45, 0
8, 129150, Note_on_c, 6, 45, 100
8, 129180, Note_on_c, 6, 45, 0
8, 129180, Note_on_c, 6, 45, 100
8, 129210, Note_on_c, 6, 45, 0
8, 129210, Note_on_c, 6, 45, 100
8, 129240, Note_on_c, 6, 45, 0
8, 129240, Note_on_c, 6, 45, 100
8, 129270, Note_on_c, 6, 45, 0
8, 129270, Note_on_c, 6, 45, 100
8, 129300, Note_on_c, 6, 45, 0
8, 129300, Note_on_c, 6, 45, 100
8, 129330, Note_on_c, 6, 45, 0
8, 129330, Note_on_c, 6, 45, 100
8, 129360, Note_on_c, 6, 45, 0
8, 129360, Note_on_c, 6, 45, 100
8, 129390, Note_on_c, 6, 45, 0
8, 129390, Note_on_c, 6, 45, 100
8, 129420, Note_on_c, 6, 45, 0
8, 129420, Note_on_c, 6, 45, 100
8, 129450, Note_on_c, 6, 45, 0
8, 129450, Note_on_c, 6, 45, 100
8, 129480, Note_on_c, 6, 45, 0
8, 129480, Note_on_c, 6, 45, 100
8, 129510, Note_on_c, 6, 45, 0
8, 129510, Note_on_c, 6, 45, 100
8, 129540, Note_on_c, 6, 45, 0
8, 129540, Note_on_c, 6, 45, 100
8, 129570, Note_on_c, 6, 45, 0
8, 129570, Note_on_c, 6, 45, 100
8, 129600, Note_on_c, 6, 45, 0
8, 129600, Note_on_c, 6, 45, 100
8, 129630, Note_on_c, 6, 45, 0
8, 129630, Note_on_c, 6, 45, 100
8, 129660, Note_on_c, 6, 45, 0
8, 129660, Note_on_c, 6, 45, 100
8, 129690, Note_on_c, 6, 45, 0
8, 129690, Note_on_c, 6, 45, 100
8, 129720, Note_on_c, 6, 45, 0
8, 129720, Note_on_c, 6, 45, 100
8, 129750, Note_on_c, 6, 45, 0
8, 129750, Note_on_c, 6, 45, 100
8, 129780, Note_on_c, 6, 45, 0
8, 129780, Note_on_c, 6, 45, 100
8, 129810, Note_on_c, 6, 45, 0
8, 129810, Note_on_c, 6, 45, 100
8, 129840, Note_on_c, 6, 45, 0
8, 129840, Note_on_c, 6, 45, 100
8, 129870, Note_on_c, 6, 45, 0
8, 129870, Note_on_c, 6, 45, 100
8, 129900, Note_on_c, 6, 45, 0
8, 129900, Note_on_c, 6, 45, 100
8, 129930, Note_on_c, 6, 45, 0
8, 129930, Note_on_c, 6, 45, 100
8, 129960, Note_on_c, 6, 45, 0
8, 129960, Note_on_c, 6, 45, 100
8, 129990, Note_on_c, 6, 45, 0
8, 129990, Note_on_c, 6, 45, 100
8, 130020, Note_on_c, 6, 45, 0
8, 130020, Note_on_c, 6, 45, 100
8, 130050, Note_on_c, 6, 45, 0
8, 130050, Note_on_c, 6, 45, 100
8, 130080, Note_on_c, 6, 45, 0
8, 130080, Note_on_c, 6, 45, 100
8, 130110, Note_on_c, 6, 45, 0
8, 130110, Note_on_c, 6, 45, 100
8, 130140, Note_on_c, 6, 45, 0
8, 130140, Note_on_c, 6, 45, 100
8, 130170, Note_on_c, 6, 45, 0
8, 130170, Note_on_c, 6, 45, 100
8, 130200, Note_on_c, 6, 45, 0
8, 130200, Note_on_c, 6, 45, 100
8, 130230, Note_on_c, 6, 45, 0
8, 130230, Note_on_c, 6, 45, 100
8, 130260, Note_on_c, 6, 45, 0
8, 130260, Note_on_c, 6, 45, 100
8, 130290, Note_on_c, 6, 45, 0
8, 130290, Note_on_c, 6, 45, 100
8, 130320, Note_on_c, 6, 45, 0
8, 130320, Note_on_c, 6, 45, 100
8, 130350, Note_on_c, 6, 45, 0
8, 130350, Note_on_c, 6, 45, 100
8, 130380, Note_on_c, 6, 45, 0
8, 130380, Note_on_c, 6, 45, 100
8, 130410, Note_on_c, 6, 45, 0
8, 130410, Note_on_c, 6, 45, 100
8, 130440, Note_on_c, 6, 45, 0
8, 130440, Note_on_c, 6, 45, 100
8, 130470, Note_on_c, 6, 45, 0
8, 130470, Note_on_c, 6, 45, 100
8, 130500, Note_on_c, 6, 45, 0
8, 130500, Note_on_c, 6, 45, 100
8, 130530, Note_on_c, 6, 45, 0
8, 130530, Note_on_c, 6, 45, 100
8, 130560, Note_on_c, 6, 45, 0
8, 130560, Note_on_c, 6, 45, 100
8, 130590, Note_on_c, 6, 45, 0
8, 130590, Note_on_c, 6, 45, 100
8, 130620, Note_on_c, 6, 45, 0
8, 130620, Note_on_c, 6, 45, 100
8, 130680, Note_on_c, 6, 45, 0
8, 130680, Note_on_c, 6, 45, 100
8, 130710, Note_on_c, 6, 45, 0
8, 130710, Note_on_c, 6, 45, 100
8, 130740, Note_on_c, 6, 45, 0
8, 130740, Note_on_c, 6, 45, 100
8, 130770, Note_on_c, 6, 45, 0
8, 130770, Note_on_c, 6, 45, 100
8, 130800, Note_on_c, 6, 45, 0
8, 130800, Note_on_c, 6, 45, 100
8, 130830, Note_on_c, 6, 45, 0
8, 130830, Note_on_c, 6, 45, 100
8, 130860, Note_on_c, 6, 45, 0
8, 130860, Note_on_c, 6, 45, 100
8, 130890, Note_on_c, 6, 45, 0
8, 130890, Note_on_c, 6, 45, 100
8, 130920, Note_on_c, 6, 45, 0
8, 130920, Note_on_c, 6, 45, 100
8, 130950, Note_on_c, 6, 45, 0
8, 130950, Note_on_c, 6, 45, 100
8, 130980, Note_on_c, 6, 45, 0
8, 130980, Note_on_c, 6, 45, 100
8, 131040, Note_on_c, 6, 45, 0
8, 131040, Note_on_c, 6, 45, 100
8, 131070, Note_on_c, 6, 45, 0
8, 131070, Note_on_c, 6, 45, 100
8, 131100, Note_on_c, 6, 45, 0
8, 131100, Note_on_c, 6, 45, 100
8, 131130, Note_on_c, 6, 45, 0
8, 131130, Note_on_c, 6, 45, 100
8, 131160, Note_on_c, 6, 45, 0
8, 131160, Note_on_c, 6, 45, 100
8, 131190, Note_on_c, 6, 45, 0
8, 131190, Note_on_c, 6, 45, 100
8, 131220, Note_on_c, 6, 45, 0
8, 131220, Note_on_c, 6, 45, 100
8, 131250, Note_on_c, 6, 45, 0
8, 131250, Note_on_c, 6, 45, 100
8, 131280, Note_on_c, 6, 45, 0
8, 131280, Note_on_c, 6, 45, 100
8, 131310, Note_on_c, 6, 45, 0
8, 131310, Note_on_c, 6, 45, 100
8, 131340, Note_on_c, 6, 45, 0
8, 131340, Note_on_c, 6, 45, 100
8, 131370, Note_on_c, 6, 45, 0
8, 131370, Note_on_c, 6, 45, 100
8, 131400, Note_on_c, 6, 45, 0
8, 131400, Note_on_c, 6, 45, 100
8, 131430, Note_on_c, 6, 45, 0
8, 131430, Note_on_c, 6, 45, 100
8, 131460, Note_on_c, 6, 45, 0
8, 131460, Note_on_c, 6, 45, 100
8, 131490, Note_on_c, 6, 45, 0
8, 131490, Note_on_c, 6, 45, 100
8, 131520, Note_on_c, 6, 45, 0
8, 131520, Note_on_c, 6, 45, 100
8, 131550, Note_on_c, 6, 45, 0
8, 131550, Note_on_c, 6, 45, 100
8, 131580, Note_on_c, 6, 45, 0
8, 131580, Note_on_c, 6, 45, 100
8, 131610, Note_on_c, 6, 45, 0
8, 131610, Note_on_c, 6, 45, 100
8, 131640, Note_on_c, 6, 45, 0
8, 131640, Note_on_c, 6, 45, 100
8, 131670, Note_on_c, 6, 45, 0
8, 131670, Note_on_c, 6, 45, 100
8, 131700, Note_on_c, 6, 45, 0
8, 131700, Note_on_c, 6, 45, 100
8, 131730, Note_on_c, 6, 45, 0
8, 131730, Note_on_c, 6, 45, 100
8, 131760, Note_on_c, 6, 45, 0
8, 131760, Note_on_c, 6, 45, 100
8, 131790, Note_on_c, 6, 45, 0
8, 131790, Note_on_c, 6, 45, 100
8, 131820, Note_on_c, 6, 45, 0
8, 131820, Note_on_c, 6, 45, 100
8, 131850, Note_on_c, 6, 45, 0
8, 131850, Note_on_c, 6, 45, 100
8, 131880, Note_on_c, 6, 45, 0
8, 131880, Note_on_c, 6, 45, 100
8, 131910, Note_on_c, 6, 45, 0
8, 131910, Note_on_c, 6, 45, 100
8, 131940, Note_on_c, 6, 45, 0
8, 131940, Note_on_c, 6, 45, 100
8, 131970, Note_on_c, 6, 45, 0
8, 131970, Note_on_c, 6, 45, 100
8, 132000, Note_on_c, 6, 45, 0
8, 132000, Note_on_c, 6, 45, 100
8, 132030, Note_on_c, 6, 45, 0
8, 132030, Note_on_c, 6, 45, 100
8, 132060, Note_on_c, 6, 45, 0
8, 132060, Note_on_c, 6, 45, 100
8, 132090, Note_on_c, 6, 45, 0
8, 132090, Note_on_c, 6, 45, 100
8, 132120, Note_on_c, 6, 45, 0
8, 132120, Note_on_c, 6, 45, 100
8, 132150, Note_on_c, 6, 45, 0
8, 132150, Note_on_c, 6, 45, 100
8, 132180, Note_on_c, 6, 45, 0
8, 132180, Note_on_c, 6, 45, 100
8, 132210, Note_on_c, 6, 45, 0
8, 132210, Note_on_c, 6, 45, 100
8, 132240, Note_on_c, 6, 45, 0
8, 132240, Note_on_c, 6, 45, 100
8, 132270, Note_on_c, 6, 45, 0
8, 132270, Note_on_c, 6, 45, 100
8, 132300, Note_on_c, 6, 45, 0
8, 132300, Note_on_c, 6, 45, 100
8, 132330, Note_on_c, 6, 45, 0
8, 132330, Note_on_c, 6, 45, 100
8, 132360, Note_on_c, 6, 45, 0
8, 132360, Note_on_c, 6, 45, 100
8, 132390, Note_on_c, 6, 45, 0
8, 132390, Note_on_c, 6, 45, 100
8, 132420, Note_on_c, 6, 45, 0
8, 132420, Note_on_c, 6, 45, 100
8, 132450, Note_on_c, 6, 45, 0
8, 132450, Note_on_c, 6, 45, 100
8, 132480, Note_on_c, 6, 45, 0
8, 132480, Note_on_c, 6, 45, 100
8, 132510, Note_on_c, 6, 45, 0
8, 132510, Note_on_c, 6, 45, 100
8, 132540, Note_on_c, 6, 45, 0
8, 132540, Note_on_c, 6, 45, 100
8, 132570, Note_on_c, 6, 45, 0
8, 132570, Note_on_c, 6, 45, 100
8, 132600, Note_on_c, 6, 45, 0
8, 132600, Note_on_c, 6, 45, 100
8, 132630, Note_on_c, 6, 45, 0
8, 132630, Note_on_c, 6, 45, 100
8, 132660, Note_on_c, 6, 45, 0
8, 132660, Note_on_c, 6, 45, 100
8, 132690, Note_on_c, 6, 45, 0
8, 132690, Note_on_c, 6, 45, 100
8, 132720, Note_on_c, 6, 45, 0
8, 132720, Note_on_c, 6, 45, 100
8, 132750, Note_on_c, 6, 45, 0
8, 132750, Note_on_c, 6, 45, 100
8, 132780, Note_on_c, 6, 45, 0
8, 132780, Note_on_c, 6, 45, 100
8, 132810, Note_on_c, 6, 45, 0
8, 132810, Note_on_c, 6, 45, 100
8, 132840, Note_on_c, 6, 45, 0
8, 132840, Note_on_c, 6, 45, 100
8, 132870, Note_on_c, 6, 45, 0
8, 132870, Note_on_c, 6, 45, 100
8, 132900, Note_on_c, 6, 45, 0
8, 132900, Note_on_c, 6, 45, 100
8, 132930, Note_on_c, 6, 45, 0
8, 132930, Note_on_c, 6, 45, 100
8, 132960, Note_on_c, 6, 45, 0
8, 132960, Note_on_c, 6, 45, 100
8, 132990, Note_on_c, 6, 45, 0
8, 132990, Note_on_c, 6, 45, 100
8, 133020, Note_on_c, 6, 45, 0
8, 133020, Note_on_c, 6, 45, 100
8, 133050, Note_on_c, 6, 45, 0
8, 133050, Note_on_c, 6, 45, 100
8, 133080, Note_on_c, 6, 45, 0
8, 133080, Note_on_c, 6, 45, 100
8, 133110, Note_on_c, 6, 45, 0
8, 133110, Note_on_c, 6, 45, 100
8, 133140, Note_on_c, 6, 45, 0
8, 133140, Note_on_c, 6, 45, 100
8, 133170, Note_on_c, 6, 45, 0
8, 133170, Note_on_c, 6, 45, 100
8, 133200, Note_on_c, 6, 45, 0
8, 133200, Note_on_c, 6, 45, 100
8, 133320, Note_on_c, 6, 45, 0
8, 143280, Note_on_c, 6, 45, 100
8, 143310, Note_on_c, 6, 45, 0
8, 143310, Note_on_c, 6, 45, 100
8, 143340, Note_on_c, 6, 45, 0
8, 143340, Note_on_c, 6, 45, 100
8, 143370, Note_on_c, 6, 45, 0
8, 143370, Note_on_c, 6, 45, 100
8, 143400, Note_on_c, 6, 45, 0
8, 143400, Note_on_c, 6, 45, 100
8, 143430, Note_on_c, 6, 45, 0
8, 143430, Note_on_c, 6, 45, 100
8, 143460, Note_on_c, 6, 45, 0
8, 143460, Note_on_c, 6, 45, 100
8, 143490, Note_on_c, 6, 45, 0
8, 143490, Note_on_c, 6, 45, 100
8, 143520, Note_on_c, 6, 45, 0
8, 143520, Note_on_c, 6, 45, 100
8, 143550, Note_on_c, 6, 45, 0
8, 143550, Note_on_c, 6, 45, 100
8, 143580, Note_on_c, 6, 45, 0
8, 143580, Note_on_c, 6, 45, 100
8, 143610, Note_on_c, 6, 45, 0
8, 143610, Note_on_c, 6, 45, 100
8, 143640, Note_on_c, 6, 45, 0
8, 143640, Note_on_c, 6, 45, 100
8, 143670, Note_on_c, 6, 45, 0
8, 143670, Note_on_c, 6, 45, 100
8, 143700, Note_on_c, 6, 45, 0
8, 143700, Note_on_c, 6, 45, 100
8, 143730, Note_on_c, 6, 45, 0
8, 143730, Note_on_c, 6, 45, 100
8, 143760, Note_on_c, 6, 45, 0
8, 143760, Note_on_c, 6, 45, 100
8, 143790, Note_on_c, 6, 45, 0
8, 143790, Note_on_c, 6, 45, 100
8, 143820, Note_on_c, 6, 45, 0
8, 143820, Note_on_c, 6, 45, 100
8, 143850, Note_on_c, 6, 45, 0
8, 143850, Note_on_c, 6, 45, 100
8, 143880, Note_on_c, 6, 45, 0
8, 143880, Note_on_c, 6, 45, 100
8, 143910, Note_on_c, 6, 45, 0
8, 143910, Note_on_c, 6, 45, 100
8, 143940, Note_on_c, 6, 45, 0
8, 143940, Note_on_c, 6, 45, 100
8, 143970, Note_on_c, 6, 45, 0
8, 143970, Note_on_c, 6, 45, 100
8, 144000, Note_on_c, 6, 45, 0
8, 144000, Note_on_c, 6, 45, 100
8, 144030, Note_on_c, 6, 45, 0
8, 144030, Note_on_c, 6, 45, 100
8, 144060, Note_on_c, 6, 45, 0
8, 144060, Note_on_c, 6, 45, 100
8, 144090, Note_on_c, 6, 45, 0
8, 144090, Note_on_c, 6, 45, 100
8, 144120, Note_on_c, 6, 45, 0
8, 144120, Note_on_c, 6, 45, 100
8, 144150, Note_on_c, 6, 45, 0
8, 144150, Note_on_c, 6, 45, 100
8, 144180, Note_on_c, 6, 45, 0
8, 144180, Note_on_c, 6, 45, 100
8, 144210, Note_on_c, 6, 45, 0
8, 144210, Note_on_c, 6, 45, 100
8, 144240, Note_on_c, 6, 45, 0
8, 144240, Note_on_c, 6, 45, 100
8, 144270, Note_on_c, 6, 45, 0
8, 144270, Note_on_c, 6, 45, 100
8, 144300, Note_on_c, 6, 45, 0
8, 144300, Note_on_c, 6, 45, 100
8, 144330, Note_on_c, 6, 45, 0
8, 144330, Note_on_c, 6, 45, 100
8, 144360, Note_on_c, 6, 45, 0
8, 144360, Note_on_c, 6, 45, 100
8, 144390, Note_on_c, 6, 45, 0
8, 144390, Note_on_c, 6, 45, 100
8, 144420, Note_on_c, 6, 45, 0
8, 144420, Note_on_c, 6, 45, 100
8, 144450, Note_on_c, 6, 45, 0
8, 144450, Note_on_c, 6, 45, 100
8, 144480, Note_on_c, 6, 45, 0
8, 144480, Note_on_c, 6, 45, 100
8, 144510, Note_on_c, 6, 45, 0
8, 144510, Note_on_c, 6, 45, 100
8, 144540, Note_on_c, 6, 45, 0
8, 144540, Note_on_c, 6, 45, 100
8, 144570, Note_on_c, 6, 45, 0
8, 144570, Note_on_c, 6, 45, 100
8, 144600, Note_on_c, 6, 45, 0
8, 144600, Note_on_c, 6, 45, 100
8, 144630, Note_on_c, 6, 45, 0
8, 144630, Note_on_c, 6, 45, 100
8, 144660, Note_on_c, 6, 45, 0
8, 144660, Note_on_c, 6, 45, 100
8, 144690, Note_on_c, 6, 45, 0
8, 144690, Note_on_c, 6, 45, 100
8, 144720, Note_on_c, 6, 45, 0
8, 144720, Note_on_c, 6, 45, 100
8, 144750, Note_on_c, 6, 45, 0
8, 144750, Note_on_c, 6, 45, 100
8, 144780, Note_on_c, 6, 45, 0
8, 144780, Note_on_c, 6, 45, 100
8, 144810, Note_on_c, 6, 45, 0
8, 144810, Note_on_c, 6, 45, 100
8, 144840, Note_on_c, 6, 45, 0
8, 144840, Note_on_c, 6, 45, 100
8, 144870, Note_on_c, 6, 45, 0
8, 144870, Note_on_c, 6, 45, 100
8, 144900, Note_on_c, 6, 45, 0
8, 144900, Note_on_c, 6, 45, 100
8, 144930, Note_on_c, 6, 45, 0
8, 144930, Note_on_c, 6, 45, 100
8, 144960, Note_on_c, 6, 45, 0
8, 144960, Note_on_c, 6, 45, 100
8, 144990, Note_on_c, 6, 45, 0
8, 144990, Note_on_c, 6, 45, 100
8, 145020, Note_on_c, 6, 45, 0
8, 145020, Note_on_c, 6, 45, 100
8, 145050, Note_on_c, 6, 45, 0
8, 145050, Note_on_c, 6, 45, 100
8, 145080, Note_on_c, 6, 45, 0
8, 145080, Note_on_c, 6, 45, 100
8, 145110, Note_on_c, 6, 45, 0
8, 145110, Note_on_c, 6, 45, 100
8, 145140, Note_on_c, 6, 45, 0
8, 145140, Note_on_c, 6, 45, 100
8, 145170, Note_on_c, 6, 45, 0
8, 145170, Note_on_c, 6, 45, 100
8, 145200, Note_on_c, 6, 45, 0
8, 145200, Note_on_c, 6, 45, 100
8, 145230, Note_on_c, 6, 45, 0
8, 145230, Note_on_c, 6, 45, 100
8, 145260, Note_on_c, 6, 45, 0
8, 145260, Note_on_c, 6, 45, 100
8, 145290, Note_on_c, 6, 45, 0
8, 145290, Note_on_c, 6, 45, 100
8, 145320, Note_on_c, 6, 45, 0
8, 145320, Note_on_c, 6, 45, 100
8, 145350, Note_on_c, 6, 45, 0
8, 145350, Note_on_c, 6, 45, 100
8, 145380, Note_on_c, 6, 45, 0
8, 145380, Note_on_c, 6, 45, 100
8, 145410, Note_on_c, 6, 45, 0
8, 145410, Note_on_c, 6, 45, 100
8, 145440, Note_on_c, 6, 45, 0
8, 145440, Note_on_c, 6, 45, 100
8, 145470, Note_on_c, 6, 45, 0
8, 145470, Note_on_c, 6, 45, 100
8, 145500, Note_on_c, 6, 45, 0
8, 145500, Note_on_c, 6, 45, 100
8, 145530, Note_on_c, 6, 45, 0
8, 145530, Note_on_c, 6, 45, 100
8, 145560, Note_on_c, 6, 45, 0
8, 145560, Note_on_c, 6, 45, 100
8, 145590, Note_on_c, 6, 45, 0
8, 145590, Note_on_c, 6, 45, 100
8, 145620, Note_on_c, 6, 45, 0
8, 145620, Note_on_c, 6, 45, 100
8, 145650, Note_on_c, 6, 45, 0
8, 145650, Note_on_c, 6, 45, 100
8, 145680, Note_on_c, 6, 45, 0
8, 145680, Note_on_c, 6, 45, 100
8, 145710, Note_on_c, 6, 45, 0
8, 145710, Note_on_c, 6, 45, 100
8, 145740, Note_on_c, 6, 45, 0
8, 145740, Note_on_c, 6, 45, 100
8, 145800, Note_on_c, 6, 45, 0
8, 145800, Note_on_c, 6, 45, 100
8, 145830, Note_on_c, 6, 45, 0
8, 145830, Note_on_c, 6, 45, 100
8, 145860, Note_on_c, 6, 45, 0
8, 145860, Note_on_c, 6, 45, 100
8, 145890, Note_on_c, 6, 45, 0
8, 145890, Note_on_c, 6, 45, 100
8, 145920, Note_on_c, 6, 45, 0
8, 145920, Note_on_c, 6, 45, 100
8, 145950, Note_on_c, 6, 45, 0
8, 145950, Note_on_c, 6, 45, 100
8, 145980, Note_on_c, 6, 45, 0
8, 145980, Note_on_c, 6, 45, 100
8, 146010, Note_on_c, 6, 45, 0
8, 146010, Note_on_c, 6, 45, 100
8, 146040, Note_on_c, 6, 45, 0
8, 146040, Note_on_c, 6, 45, 100
8, 146070, Note_on_c, 6, 45, 0
8, 146070, Note_on_c, 6, 45, 100
8, 146100, Note_on_c, 6, 45, 0
8, 146100, Note_on_c, 6, 45, 100
8, 146160, Note_on_c, 6, 45, 0
8, 146160, Note_on_c, 6, 45, 100
8, 146190, Note_on_c, 6, 45, 0
8, 146190, Note_on_c, 6, 45, 100
8, 146220, Note_on_c, 6, 45, 0
8, 146220, Note_on_c, 6, 45, 100
8, 146250, Note_on_c, 6, 45, 0
8, 146250, Note_on_c, 6, 45, 100
8, 146280, Note_on_c, 6, 45, 0
8, 146280, Note_on_c, 6, 45, 100
8, 146310, Note_on_c, 6, 45, 0
8, 146310, Note_on_c, 6, 45, 100
8, 146340, Note_on_c, 6, 45, 0
8, 146340, Note_on_c, 6, 45, 100
8, 146370, Note_on_c, 6, 45, 0
8, 146370, Note_on_c, 6, 45, 100
8, 146400, Note_on_c, 6, 45, 0
8, 146400, Note_on_c, 6, 45, 100
8, 146430, Note_on_c, 6, 45, 0
8, 146430, Note_on_c, 6, 45, 100
8, 146460, Note_on_c, 6, 45, 0
8, 146460, Note_on_c, 6, 45, 100
8, 146490, Note_on_c, 6, 45, 0
8, 146490, Note_on_c, 6, 45, 100
8, 146520, Note_on_c, 6, 45, 0
8, 146520, Note_on_c, 6, 45, 100
8, 146550, Note_on_c, 6, 45, 0
8, 146550, Note_on_c, 6, 45, 100
8, 146580, Note_on_c, 6, 45, 0
8, 146580, Note_on_c, 6, 45, 100
8, 146610, Note_on_c, 6, 45, 0
8, 146610, Note_on_c, 6, 45, 100
8, 146640, Note_on_c, 6, 45, 0
8, 146640, Note_on_c, 6, 45, 100
8, 146670, Note_on_c, 6, 45, 0
8, 146670, Note_on_c, 6, 45, 100
8, 146700, Note_on_c, 6, 45, 0
8, 146700, Note_on_c, 6, 45, 100
8, 146730, Note_on_c, 6, 45, 0
8, 146730, Note_on_c, 6, 45, 100
8, 146760, Note_on_c, 6, 45, 0
8, 146760, Note_on_c, 6, 45, 100
8, 146790, Note_on_c, 6, 45, 0
8, 146790, Note_on_c, 6, 45, 100
8, 146820, Note_on_c, 6, 45, 0
8, 146820, Note_on_c, 6, 45, 100
8, 146850, Note_on_c, 6, 45, 0
8, 146850, Note_on_c, 6, 45, 100
8, 146880, Note_on_c, 6, 45, 0
8, 146880, Note_on_c, 6, 45, 100
8, 146910, Note_on_c, 6, 45, 0
8, 146910, Note_on_c, 6, 45, 100
8, 146940, Note_on_c, 6, 45, 0
8, 146940, Note_on_c, 6, 45, 100
8, 146970, Note_on_c, 6, 45, 0
8, 146970, Note_on_c, 6, 45, 100
8, 147000, Note_on_c, 6, 45, 0
8, 147000, Note_on_c, 6, 45, 100
8, 147030, Note_on_c, 6, 45, 0
8, 147030, Note_on_c, 6, 45, 100
8, 147060, Note_on_c, 6, 45, 0
8, 147060, Note_on_c, 6, 45, 100
8, 147090, Note_on_c, 6, 45, 0
8, 147090, Note_on_c, 6, 45, 100
8, 147120, Note_on_c, 6, 45, 0
8, 147120, Note_on_c, 6, 45, 100
8, 147150, Note_on_c, 6, 45, 0
8, 147150, Note_on_c, 6, 45, 100
8, 147180, Note_on_c, 6, 45, 0
8, 147180, Note_on_c, 6, 45, 100
8, 147210, Note_on_c, 6, 45, 0
8, 147210, Note_on_c, 6, 45, 100
8, 147240, Note_on_c, 6, 45, 0
8, 147240, Note_on_c, 6, 45, 100
8, 147270, Note_on_c, 6, 45, 0
8, 147270, Note_on_c, 6, 45, 100
8, 147300, Note_on_c, 6, 45, 0
8, 147300, Note_on_c, 6, 45, 100
8, 147330, Note_on_c, 6, 45, 0
8, 147330, Note_on_c, 6, 45, 100
8, 147360, Note_on_c, 6, 45, 0
8, 147360, Note_on_c, 6, 45, 100
8, 147390, Note_on_c, 6, 45, 0
8, 147390, Note_on_c, 6, 45, 100
8, 147420, Note_on_c, 6, 45, 0
8, 147420, Note_on_c, 6, 45, 100
8, 147450, Note_on_c, 6, 45, 0
8, 147450, Note_on_c, 6, 45, 100
8, 147480, Note_on_c, 6, 45, 0
8, 147480, Note_on_c, 6, 45, 100
8, 147510, Note_on_c, 6, 45, 0
8, 147510, Note_on_c, 6, 45, 100
8, 147540, Note_on_c, 6, 45, 0
8, 147540, Note_on_c, 6, 45, 100
8, 147570, Note_on_c, 6, 45, 0
8, 147570, Note_on_c, 6, 45, 100
8, 147600, Note_on_c, 6, 45, 0
8, 147600, Note_on_c, 6, 45, 100
8, 147630, Note_on_c, 6, 45, 0
8, 147630, Note_on_c, 6, 45, 100
8, 147660, Note_on_c, 6, 45, 0
8, 147660, Note_on_c, 6, 45, 100
8, 147690, Note_on_c, 6, 45, 0
8, 147690, Note_on_c, 6, 45, 100
8, 147720, Note_on_c, 6, 45, 0
8, 147720, Note_on_c, 6, 45, 100
8, 147750, Note_on_c, 6, 45, 0
8, 147750, Note_on_c, 6, 45, 100
8, 147780, Note_on_c, 6, 45, 0
8, 147780, Note_on_c, 6, 45, 100
8, 147810, Note_on_c, 6, 45, 0
8, 147810, Note_on_c, 6, 45, 100
8, 147840, Note_on_c, 6, 45, 0
8, 147840, Note_on_c, 6, 45, 100
8, 147870, Note_on_c, 6, 45, 0
8, 147870, Note_on_c, 6, 45, 100
8, 147900, Note_on_c, 6, 45, 0
8, 147900, Note_on_c, 6, 45, 100
8, 147930, Note_on_c, 6, 45, 0
8, 147930, Note_on_c, 6, 45, 100
8, 147960, Note_on_c, 6, 45, 0
8, 147960, Note_on_c, 6, 45, 100
8, 147990, Note_on_c, 6, 45, 0
8, 147990, Note_on_c, 6, 45, 100
8, 148020, Note_on_c, 6, 45, 0
8, 148020, Note_on_c, 6, 45, 100
8, 148050, Note_on_c, 6, 45, 0
8, 148050, Note_on_c, 6, 45, 100
8, 148080, Note_on_c, 6, 45, 0
8, 148080, Note_on_c, 6, 45, 100
8, 148110, Note_on_c, 6, 45, 0
8, 148110, Note_on_c, 6, 45, 100
8, 148140, Note_on_c, 6, 45, 0
8, 148140, Note_on_c, 6, 45, 100
8, 148170, Note_on_c, 6, 45, 0
8, 148170, Note_on_c, 6, 45, 100
8, 148200, Note_on_c, 6, 45, 0
8, 148200, Note_on_c, 6, 45, 100
8, 148230, Note_on_c, 6, 45, 0
8, 148230, Note_on_c, 6, 45, 100
8, 148260, Note_on_c, 6, 45, 0
8, 148260, Note_on_c, 6, 45, 100
8, 148290, Note_on_c, 6, 45, 0
8, 148290, Note_on_c, 6, 45, 100
8, 148320, Note_on_c, 6, 45, 0
8, 148320, Note_on_c, 6, 45, 100
8, 148440, Note_on_c, 6, 45, 0
8, 153960, Note_on_c, 6, 53, 100
8, 154080, Note_on_c, 6, 53, 0
8, 154080, Note_on_c, 6, 53, 100
8, 154200, Note_on_c, 6, 53, 0
8, 154320, Note_on_c, 6, 53, 100
8, 154440, Note_on_c, 6, 53, 0
8, 154440, Note_on_c, 6, 53, 100
8, 154560, Note_on_c, 6, 53, 0
8, 154680, Note_on_c, 6, 53, 100
8, 154800, Note_on_c, 6, 53, 0
8, 154800, Note_on_c, 6, 53, 100
8, 154920, Note_on_c, 6, 53, 0
8, 160200, Note_on_c, 6, 45, 100
8, 160320, Note_on_c, 6, 45, 0
8, 160320, Note_on_c, 6, 45, 100
8, 160440, Note_on_c, 6, 45, 0
8, 160440, Note_on_c, 6, 45, 100
8, 160560, Note_on_c, 6, 45, 0
8, 160920, Note_on_c, 6, 45, 100
8, 161040, Note_on_c, 6, 45, 0
8, 161040, Note_on_c, 6, 45, 100
8, 161160, Note_on_c, 6, 45, 0
8, 161160, Note_on_c, 6, 45, 100
8, 161280, Note_on_c, 6, 45, 0
8, 161640, Note_on_c, 6, 45, 100
8, 161760, Note_on_c, 6, 45, 0
8, 161760, Note_on_c, 6, 45, 100
8, 161880, Note_on_c, 6, 45, 0
8, 161880, Note_on_c, 6, 45, 100
8, 162000, Note_on_c, 6, 45, 0
8, 162000, Note_on_c, 6, 45, 100
8, 162120, Note_on_c, 6, 45, 0
8, 162120, Note_on_c, 6, 45, 100
8, 162240, Note_on_c, 6, 45, 0
8, 162240, Note_on_c, 6, 45, 100
8, 162360, Note_on_c, 6, 45, 0
8, 162360, Note_on_c, 6, 45, 100
8, 162480, Note_on_c, 6, 45, 0
8, 162600, Note_on_c, 6, 53, 100
8, 162720, Note_on_c, 6, 53, 0
8, 162720, Note_on_c, 6, 53, 100
8, 162840, Note_on_c, 6, 53, 0
8, 162960, Note_on_c, 6, 53, 100
8, 163080, Note_on_c, 6, 53, 0
8, 163080, Note_on_c, 6, 53, 100
8, 163200, Note_on_c, 6, 53, 0
8, 163320, Note_on_c, 6, 53, 100
8, 163440, Note_on_c, 6, 53, 0
8, 163440, Note_on_c, 6, 53, 100
8, 163560, Note_on_c, 6, 53, 0
8, 168840, Note_on_c, 6, 45, 100
8, 168960, Note_on_c, 6, 45, 0
8, 168960, Note_on_c, 6, 45, 100
8, 169080, Note_on_c, 6, 45, 0
8, 169080, Note_on_c, 6, 45, 100
8, 169200, Note_on_c, 6, 45, 0
8, 169560, Note_on_c, 6, 45, 100
8, 169680, Note_on_c, 6, 45, 0
8, 169680, Note_on_c, 6, 45, 100
8, 169800, Note_on_c, 6, 45, 0
8, 169800, Note_on_c, 6, 45, 100
8, 169920, Note_on_c, 6, 45, 0
8, 170280, Note_on_c, 6, 45, 100
8, 170400, Note_on_c, 6, 45, 0
8, 170400, Note_on_c, 6, 45, 100
8, 170520, Note_on_c, 6, 45, 0
8, 170520, Note_on_c, 6, 45, 100
8, 170640, Note_on_c, 6, 45, 0
8, 170640, Note_on_c, 6, 45, 100
8, 170760, Note_on_c, 6, 45, 0
8, 170760, Note_on_c, 6, 45, 100
8, 170880, Note_on_c, 6, 45, 0
8, 170880, Note_on_c, 6, 45, 100
8, 171000, Note_on_c, 6, 45, 0
8, 171000, Note_on_c, 6, 45, 100
8, 171120, Note_on_c, 6, 45, 0
8, 171240, Note_on_c, 6, 45, 100
8, 171360, Note_on_c, 6, 45, 0
8, 171360, Note_on_c, 6, 45, 100
8, 171480, Note_on_c, 6, 45, 0
8, 183840, Note_on_c, 6, 53, 100
8, 183960, Note_on_c, 6, 53, 0
8, 183960, Note_on_c, 6, 53, 100
8, 184080, Note_on_c, 6, 53, 0
8, 194280, Note_on_c, 6, 53, 100
8, 194400, Note_on_c, 6, 53, 0
8, 194400, Note_on_c, 6, 53, 100
8, 194520, Note_on_c, 6, 53, 0
8, 194640, Note_on_c, 6, 53, 100
8, 194760, Note_on_c, 6, 53, 0
8, 194760, Note_on_c, 6, 53, 100
8, 194880, Note_on_c, 6, 53, 0
8, 195000, Note_on_c, 6, 53, 100
8, 195120, Note_on_c, 6, 53, 0
8, 195120, Note_on_c, 6, 53, 100
8, 195240, Note_on_c, 6, 53, 0
8, 195240, Note_on_c, 6, 53, 100
8, 195360, Note_on_c, 6, 53, 0
8, 195360, Note_on_c, 6, 53, 100
8, 195480, Note_on_c, 6, 53, 0
8, 195480, Note_on_c, 6, 53, 100
8, 195600, Note_on_c, 6, 53, 0
8, 195600, Note_on_c, 6, 53, 100
8, 195720, Note_on_c, 6, 53, 0
8, 195720, Note_on_c, 6, 53, 100
8, 195840, Note_on_c, 6, 53, 0
8, 195840, Note_on_c, 6, 53, 100
8, 195960, Note_on_c, 6, 53, 0
8, 195960, Note_on_c, 6, 53, 100
8, 196080, Note_on_c, 6, 53, 0
8, 196080, Note_on_c, 6, 53, 100
8, 196200, Note_on_c, 6, 53, 0
8, 197640, Note_on_c, 6, 53, 100
8, 197760, Note_on_c, 6, 53, 0
8, 197760, Note_on_c, 6, 53, 100
8, 197880, Note_on_c, 6, 53, 0
8, 197880, Note_on_c, 6, 53, 100
8, 198000, Note_on_c, 6, 53, 0
8, 198720, Note_on_c, 6, 53, 100
8, 198840, Note_on_c, 6, 53, 0
8, 198840, Note_on_c, 6, 53, 100
8, 198960, Note_on_c, 6, 53, 0
8, 198960, Note_on_c, 6, 53, 100
8, 199080, Note_on_c, 6, 53, 0
8, 200520, Note_on_c, 6, 53, 100
8, 200640, Note_on_c, 6, 53, 0
8, 200640, Note_on_c, 6, 53, 100
8, 200760, Note_on_c, 6, 53, 0
8, 200760, Note_on_c, 6, 53, 100
8, 200880, Note_on_c, 6, 53, 0
8, 207720, Note_on_c, 6, 53, 100
8, 207840, Note_on_c, 6, 53, 0
8, 207840, Note_on_c, 6, 53, 100
8, 207960, Note_on_c, 6, 53, 0
8, 207960, Note_on_c, 6, 53, 100
8, 208080, Note_on_c, 6, 53, 0
8, 208440, Note_on_c, 6, 53, 100
8, 208560, Note_on_c, 6, 53, 0
8, 208560, Note_on_c, 6, 53, 100
8, 208680, Note_on_c, 6, 53, 0
8, 208680, Note_on_c, 6, 53, 100
8, 208800, Note_on_c, 6, 53, 0
8, 209160, Note_on_c, 6, 53, 100
8, 209280, Note_on_c, 6, 53, 0
8, 209280, Note_on_c, 6, 53, 100
8, 209400, Note_on_c, 6, 53, 0
8, 209400, Note_on_c, 6, 53, 100
8, 209520, Note_on_c, 6, 53, 0
8, 209880, Note_on_c, 6, 53, 100
8, 210000, Note_on_c, 6, 53, 0
8, 210000, Note_on_c, 6, 53, 100
8, 210120, Note_on_c, 6, 53, 0
8, 210120, Note_on_c, 6, 53, 100
8, 210240, Note_on_c, 6, 53, 0
8, 210600, Note_on_c, 6, 53, 100
8, 210720, Note_on_c, 6, 53, 0
8, 210720, Note_on_c, 6, 53, 100
8, 210840, Note_on_c, 6, 53, 0
8, 210840, Note_on_c, 6, 53, 100
8, 210960, Note_on_c, 6, 53, 0
8, 210960, Note_on_c, 6, 53, 100
8, 211080, Note_on_c, 6, 53, 0
8, 211080, Note_on_c, 6, 53, 100
8, 211200, Note_on_c, 6, 53, 0
8, 211200, Note_on_c, 6, 53, 100
8, 211320, Note_on_c, 6, 53, 0
8, 211320, Note_on_c, 6, 53, 100
8, 211440, Note_on_c, 6, 53, 0
8, 211560, Note_on_c, 6, 53, 100
8, 211680, Note_on_c, 6, 53, 0
8, 211680, Note_on_c, 6, 53, 100
8, 211800, Note_on_c, 6, 53, 0
8, 213000, Note_on_c, 6, 53, 100
8, 213120, Note_on_c, 6, 53, 0
8, 213120, Note_on_c, 6, 45, 100
8, 213240, Note_on_c, 6, 45, 0
8, 213360, Note_on_c, 6, 53, 100
8, 213480, Note_on_c, 6, 53, 0
8, 213480, Note_on_c, 6, 45, 100
8, 213600, Note_on_c, 6, 45, 0
8, 213720, Note_on_c, 6, 53, 100
8, 213840, Note_on_c, 6, 53, 0
8, 213840, Note_on_c, 6, 45, 100
8, 213960, Note_on_c, 6, 45, 0
8, 214080, Note_on_c, 6, 53, 100
8, 214200, Note_on_c, 6, 53, 0
8, 214200, Note_on_c, 6, 45, 100
8, 214320, Note_on_c, 6, 45, 0
8, 214440, Note_on_c, 6, 53, 100
8, 214560, Note_on_c, 6, 53, 0
8, 214560, Note_on_c, 6, 45, 100
8, 214680, Note_on_c, 6, 45, 0
8, 236880, Note_on_c, 6, 45, 100
8, 236910, Note_on_c, 6, 45, 0
8, 236910, Note_on_c, 6, 45, 100
8, 236940, Note_on_c, 6, 45, 0
8, 236940, Note_on_c, 6, 45, 100
8, 236970, Note_on_c, 6, 45, 0
8, 236970, Note_on_c, 6, 45, 100
8, 237000, Note_on_c, 6, 45, 0
8, 237000, Note_on_c, 6, 45, 100
8, 237030, Note_on_c, 6, 45, 0
8, 237030, Note_on_c, 6, 45, 100
8, 237060, Note_on_c, 6, 45, 0
8, 237060, Note_on_c, 6, 45, 100
8, 237090, Note_on_c, 6, 45, 0
8, 237090, Note_on_c, 6, 45, 100
8, 237120, Note_on_c, 6, 45, 0
8, 237120, Note_on_c, 6, 45, 100
8, 237150, Note_on_c, 6, 45, 0
8, 237150, Note_on_c, 6, 45, 100
8, 237180, Note_on_c, 6, 45, 0
8, 237180, Note_on_c, 6, 45, 100
8, 237210, Note_on_c, 6, 45, 0
8, 237210, Note_on_c, 6, 45, 100
8, 237240, Note_on_c, 6, 45, 0
8, 237240, Note_on_c, 6, 45, 100
8, 237270, Note_on_c, 6, 45, 0
8, 237270, Note_on_c, 6, 45, 100
8, 237300, Note_on_c, 6, 45, 0
8, 237300, Note_on_c, 6, 45, 100
8, 237330, Note_on_c, 6, 45, 0
8, 237330, Note_on_c, 6, 45, 100
8, 237360, Note_on_c, 6, 45, 0
8, 237360, Note_on_c, 6, 45, 100
8, 237390, Note_on_c, 6, 45, 0
8, 237390, Note_on_c, 6, 45, 100
8, 237420, Note_on_c, 6, 45, 0
8, 237420, Note_on_c, 6, 45, 100
8, 237450, Note_on_c, 6, 45, 0
8, 237450, Note_on_c, 6, 45, 100
8, 237480, Note_on_c, 6, 45, 0
8, 237480, Note_on_c, 6, 45, 100
8, 237510, Note_on_c, 6, 45, 0
8, 237510, Note_on_c, 6, 45, 100
8, 237540, Note_on_c, 6, 45, 0
8, 237540, Note_on_c, 6, 45, 100
8, 237570, Note_on_c, 6, 45, 0
8, 237570, Note_on_c, 6, 45, 100
8, 237600, Note_on_c, 6, 45, 0
8, 237600, Note_on_c, 6, 45, 100
8, 237630, Note_on_c, 6, 45, 0
8, 237630, Note_on_c, 6, 45, 100
8, 237660, Note_on_c, 6, 45, 0
8, 237660, Note_on_c, 6, 45, 100
8, 237690, Note_on_c, 6, 45, 0
8, 237690, Note_on_c, 6, 45, 100
8, 237720, Note_on_c, 6, 45, 0
8, 237720, Note_on_c, 6, 45, 100
8, 237750, Note_on_c, 6, 45, 0
8, 237750, Note_on_c, 6, 45, 100
8, 237780, Note_on_c, 6, 45, 0
8, 237780, Note_on_c, 6, 45, 100
8, 237810, Note_on_c, 6, 45, 0
8, 237810, Note_on_c, 6, 45, 100
8, 237840, Note_on_c, 6, 45, 0
8, 237840, Note_on_c, 6, 45, 100
8, 237870, Note_on_c, 6, 45, 0
8, 237870, Note_on_c, 6, 45, 100
8, 237900, Note_on_c, 6, 45, 0
8, 237900, Note_on_c, 6, 45, 100
8, 237930, Note_on_c, 6, 45, 0
8, 237930, Note_on_c, 6, 45, 100
8, 237960, Note_on_c, 6, 45, 0
8, 237960, Note_on_c, 6, 45, 100
8, 237990, Note_on_c, 6, 45, 0
8, 237990, Note_on_c, 6, 45, 100
8, 238020, Note_on_c, 6, 45, 0
8, 238020, Note_on_c, 6, 45, 100
8, 238050, Note_on_c, 6, 45, 0
8, 238050, Note_on_c, 6, 45, 100
8, 238080, Note_on_c, 6, 45, 0
8, 238080, Note_on_c, 6, 45, 100
8, 238110, Note_on_c, 6, 45, 0
8, 238110, Note_on_c, 6, 45, 100
8, 238140, Note_on_c, 6, 45, 0
8, 238140, Note_on_c, 6, 45, 100
8, 238170, Note_on_c, 6, 45, 0
8, 238170, Note_on_c, 6, 45, 100
8, 238200, Note_on_c, 6, 45, 0
8, 238200, Note_on_c, 6, 45, 100
8, 238230, Note_on_c, 6, 45, 0
8, 238230, Note_on_c, 6, 45, 100
8, 238260, Note_on_c, 6, 45, 0
8, 238260, Note_on_c, 6, 45, 100
8, 238290, Note_on_c, 6, 45, 0
8, 238290, Note_on_c, 6, 45, 100
8, 238320, Note_on_c, 6, 45, 0
8, 238320, Note_on_c, 6, 45, 100
8, 238350, Note_on_c, 6, 45, 0
8, 238350, Note_on_c, 6, 45, 100
8, 238380, Note_on_c, 6, 45, 0
8, 238380, Note_on_c, 6, 45, 100
8, 238410, Note_on_c, 6, 45, 0
8, 238410, Note_on_c, 6, 45, 100
8, 238440, Note_on_c, 6, 45, 0
8, 238440, Note_on_c, 6, 45, 100
8, 238470, Note_on_c, 6, 45, 0
8, 238470, Note_on_c, 6, 45, 100
8, 238500, Note_on_c, 6, 45, 0
8, 238500, Note_on_c, 6, 45, 100
8, 238530, Note_on_c, 6, 45, 0
8, 238530, Note_on_c, 6, 45, 100
8, 238560, Note_on_c, 6, 45, 0
8, 238560, Note_on_c, 6, 45, 100
8, 238590, Note_on_c, 6, 45, 0
8, 238590, Note_on_c, 6, 45, 100
8, 238620, Note_on_c, 6, 45, 0
8, 238620, Note_on_c, 6, 45, 100
8, 238650, Note_on_c, 6, 45, 0
8, 238650, Note_on_c, 6, 45, 100
8, 238680, Note_on_c, 6, 45, 0
8, 238680, Note_on_c, 6, 45, 100
8, 238710, Note_on_c, 6, 45, 0
8, 238710, Note_on_c, 6, 45, 100
8, 238740, Note_on_c, 6, 45, 0
8, 238740, Note_on_c, 6, 45, 100
8, 238770, Note_on_c, 6, 45, 0
8, 238770, Note_on_c, 6, 45, 100
8, 238800, Note_on_c, 6, 45, 0
8, 238800, Note_on_c, 6, 45, 100
8, 238830, Note_on_c, 6, 45, 0
8, 238830, Note_on_c, 6, 45, 100
8, 238860, Note_on_c, 6, 45, 0
8, 238860, Note_on_c, 6, 45, 100
8, 238890, Note_on_c, 6, 45, 0
8, 238890, Note_on_c, 6, 45, 100
8, 238920, Note_on_c, 6, 45, 0
8, 238920, Note_on_c, 6, 45, 100
8, 238950, Note_on_c, 6, 45, 0
8, 238950, Note_on_c, 6, 45, 100
8, 238980, Note_on_c, 6, 45, 0
8, 238980, Note_on_c, 6, 45, 100
8, 239010, Note_on_c, 6, 45, 0
8, 239010, Note_on_c, 6, 45, 100
8, 239040, Note_on_c, 6, 45, 0
8, 239040, Note_on_c, 6, 45, 100
8, 239070, Note_on_c, 6, 45, 0
8, 239070, Note_on_c, 6, 45, 100
8, 239100, Note_on_c, 6, 45, 0
8, 239100, Note_on_c, 6, 45, 100
8, 239130, Note_on_c, 6, 45, 0
8, 239130, Note_on_c, 6, 45, 100
8, 239160, Note_on_c, 6, 45, 0
8, 239160, Note_on_c, 6, 45, 100
8, 239190, Note_on_c, 6, 45, 0
8, 239190, Note_on_c, 6, 45, 100
8, 239220, Note_on_c, 6, 45, 0
8, 239220, Note_on_c, 6, 45, 100
8, 239250, Note_on_c, 6, 45, 0
8, 239250, Note_on_c, 6, 45, 100
8, 239280, Note_on_c, 6, 45, 0
8, 239280, Note_on_c, 6, 45, 100
8, 239310, Note_on_c, 6, 45, 0
8, 239310, Note_on_c, 6, 45, 100
8, 239340, Note_on_c, 6, 45, 0
8, 239340, Note_on_c, 6, 45, 100
8, 239400, Note_on_c, 6, 45, 0
8, 239400, Note_on_c, 6, 45, 100
8, 239430, Note_on_c, 6, 45, 0
8, 239430, Note_on_c, 6, 45, 100
8, 239460, Note_on_c, 6, 45, 0
8, 239460, Note_on_c, 6, 45, 100
8, 239490, Note_on_c, 6, 45, 0
8, 239490, Note_on_c, 6, 45, 100
8, 239520, Note_on_c, 6, 45, 0
8, 239520, Note_on_c, 6, 45, 100
8, 239550, Note_on_c, 6, 45, 0
8, 239550, Note_on_c, 6, 45, 100
8, 239580, Note_on_c, 6, 45, 0
8, 239580, Note_on_c, 6, 45, 100
8, 239610, Note_on_c, 6, 45, 0
8, 239610, Note_on_c, 6, 45, 100
8, 239640, Note_on_c, 6, 45, 0
8, 239640, Note_on_c, 6, 45, 100
8, 239670, Note_on_c, 6, 45, 0
8, 239670, Note_on_c, 6, 45, 100
8, 239700, Note_on_c, 6, 45, 0
8, 239700, Note_on_c, 6, 45, 100
8, 239760, Note_on_c, 6, 45, 0
8, 239760, Note_on_c, 6, 45, 100
8, 239790, Note_on_c, 6, 45, 0
8, 239790, Note_on_c, 6, 45, 100
8, 239820, Note_on_c, 6, 45, 0
8, 239820, Note_on_c, 6, 45, 100
8, 239850, Note_on_c, 6, 45, 0
8, 239850, Note_on_c, 6, 45, 100
8, 239880, Note_on_c, 6, 45, 0
8, 239880, Note_on_c, 6, 45, 100
8, 239910, Note_on_c, 6, 45, 0
8, 239910, Note_on_c, 6, 45, 100
8, 239940, Note_on_c, 6, 45, 0
8, 239940, Note_on_c, 6, 45, 100
8, 239970, Note_on_c, 6, 45, 0
8, 239970, Note_on_c, 6, 45, 100
8, 240000, Note_on_c, 6, 45, 0
8, 240000, Note_on_c, 6, 45, 100
8, 240030, Note_on_c, 6, 45, 0
8, 240030, Note_on_c, 6, 45, 100
8, 240060, Note_on_c, 6, 45, 0
8, 240060, Note_on_c, 6, 45, 100
8, 240090, Note_on_c, 6, 45, 0
8, 240090, Note_on_c, 6, 45, 100
8, 240120, Note_on_c, 6, 45, 0
8, 240120, Note_on_c, 6, 45, 100
8, 240150, Note_on_c, 6, 45, 0
8, 240150, Note_on_c, 6, 45, 100
8, 240180, Note_on_c, 6, 45, 0
8, 240180, Note_on_c, 6, 45, 100
8, 240210, Note_on_c, 6, 45, 0
8, 240210, Note_on_c, 6, 45, 100
8, 240240, Note_on_c, 6, 45, 0
8, 240240, Note_on_c, 6, 45, 100
8, 240270, Note_on_c, 6, 45, 0
8, 240270, Note_on_c, 6, 45, 100
8, 240300, Note_on_c, 6, 45, 0
8, 240300, Note_on_c, 6, 45, 100
8, 240330, Note_on_c, 6, 45, 0
8, 240330, Note_on_c, 6, 45, 100
8, 240360, Note_on_c, 6, 45, 0
8, 240360, Note_on_c, 6, 45, 100
8, 240390, Note_on_c, 6, 45, 0
8, 240390, Note_on_c, 6, 45, 100
8, 240420, Note_on_c, 6, 45, 0
8, 240420, Note_on_c, 6, 45, 100
8, 240450, Note_on_c, 6, 45, 0
8, 240450, Note_on_c, 6, 45, 100
8, 240480, Note_on_c, 6, 45, 0
8, 240480, Note_on_c, 6, 45, 100
8, 240510, Note_on_c, 6, 45, 0
8, 240510, Note_on_c, 6, 45, 100
8, 240540, Note_on_c, 6, 45, 0
8, 240540, Note_on_c, 6, 45, 100
8, 240570, Note_on_c, 6, 45, 0
8, 240570, Note_on_c, 6, 45, 100
8, 240600, Note_on_c, 6, 45, 0
8, 240600, Note_on_c, 6, 45, 100
8, 240630, Note_on_c, 6, 45, 0
8, 240630, Note_on_c, 6, 45, 100
8, 240660, Note_on_c, 6, 45, 0
8, 240660, Note_on_c, 6, 45, 100
8, 240690, Note_on_c, 6, 45, 0
8, 240690, Note_on_c, 6, 45, 100
8, 240720, Note_on_c, 6, 45, 0
8, 240720, Note_on_c, 6, 45, 100
8, 240750, Note_on_c, 6, 45, 0
8, 240750, Note_on_c, 6, 45, 100
8, 240780, Note_on_c, 6, 45, 0
8, 240780, Note_on_c, 6, 45, 100
8, 240810, Note_on_c, 6, 45, 0
8, 240810, Note_on_c, 6, 45, 100
8, 240840, Note_on_c, 6, 45, 0
8, 240840, Note_on_c, 6, 45, 100
8, 240870, Note_on_c, 6, 45, 0
8, 240870, Note_on_c, 6, 45, 100
8, 240900, Note_on_c, 6, 45, 0
8, 240900, Note_on_c, 6, 45, 100
8, 240930, Note_on_c, 6, 45, 0
8, 240930, Note_on_c, 6, 45, 100
8, 240960, Note_on_c, 6, 45, 0
8, 240960, Note_on_c, 6, 45, 100
8, 240990, Note_on_c, 6, 45, 0
8, 240990, Note_on_c, 6, 45, 100
8, 241020, Note_on_c, 6, 45, 0
8, 241020, Note_on_c, 6, 45, 100
8, 241050, Note_on_c, 6, 45, 0
8, 241050, Note_on_c, 6, 45, 100
8, 241080, Note_on_c, 6, 45, 0
8, 241080, Note_on_c, 6, 45, 100
8, 241110, Note_on_c, 6, 45, 0
8, 241110, Note_on_c, 6, 45, 100
8, 241140, Note_on_c, 6, 45, 0
8, 241140, Note_on_c, 6, 45, 100
8, 241170, Note_on_c, 6, 45, 0
8, 241170, Note_on_c, 6, 45, 100
8, 241200, Note_on_c, 6, 45, 0
8, 241200, Note_on_c, 6, 45, 100
8, 241230, Note_on_c, 6, 45, 0
8, 241230, Note_on_c, 6, 45, 100
8, 241260, Note_on_c, 6, 45, 0
8, 241260, Note_on_c, 6, 45, 100
8, 241290, Note_on_c, 6, 45, 0
8, 241290, Note_on_c, 6, 45, 100
8, 241320, Note_on_c, 6, 45, 0
8, 241320, Note_on_c, 6, 45, 100
8, 241350, Note_on_c, 6, 45, 0
8, 241350, Note_on_c, 6, 45, 100
8, 241380, Note_on_c, 6, 45, 0
8, 241380, Note_on_c, 6, 45, 100
8, 241410, Note_on_c, 6, 45, 0
8, 241410, Note_on_c, 6, 45, 100
8, 241440, Note_on_c, 6, 45, 0
8, 241440, Note_on_c, 6, 45, 100
8, 241470, Note_on_c, 6, 45, 0
8, 241470, Note_on_c, 6, 45, 100
8, 241500, Note_on_c, 6, 45, 0
8, 241500, Note_on_c, 6, 45, 100
8, 241530, Note_on_c, 6, 45, 0
8, 241530, Note_on_c, 6, 45, 100
8, 241560, Note_on_c, 6, 45, 0
8, 241560, Note_on_c, 6, 45, 100
8, 241590, Note_on_c, 6, 45, 0
8, 241590, Note_on_c, 6, 45, 100
8, 241620, Note_on_c, 6, 45, 0
8, 241620, Note_on_c, 6, 45, 100
8, 241650, Note_on_c, 6, 45, 0
8, 241650, Note_on_c, 6, 45, 100
8, 241680, Note_on_c, 6, 45, 0
8, 241680, Note_on_c, 6, 45, 100
8, 241710, Note_on_c, 6, 45, 0
8, 241710, Note_on_c, 6, 45, 100
8, 241740, Note_on_c, 6, 45, 0
8, 241740, Note_on_c, 6, 45, 100
8, 241770, Note_on_c, 6, 45, 0
8, 241770, Note_on_c, 6, 45, 100
8, 241800, Note_on_c, 6, 45, 0
8, 241800, Note_on_c, 6, 45, 100
8, 241830, Note_on_c, 6, 45, 0
8, 241830, Note_on_c, 6, 45, 100
8, 241860, Note_on_c, 6, 45, 0
8, 241860, Note_on_c, 6, 45, 100
8, 241890, Note_on_c, 6, 45, 0
8, 241890, Note_on_c, 6, 45, 100
8, 241920, Note_on_c, 6, 45, 0
8, 241920, Note_on_c, 6, 45, 100
8, 242040, Note_on_c, 6, 45, 0
8, 252000, Note_on_c, 6, 45, 100
8, 252030, Note_on_c, 6, 45, 0
8, 252030, Note_on_c, 6, 45, 100
8, 252060, Note_on_c, 6, 45, 0
8, 252060, Note_on_c, 6, 45, 100
8, 252090, Note_on_c, 6, 45, 0
8, 252090, Note_on_c, 6, 45, 100
8, 252120, Note_on_c, 6, 45, 0
8, 252120, Note_on_c, 6, 45, 100
8, 252150, Note_on_c, 6, 45, 0
8, 252150, Note_on_c, 6, 45, 100
8, 252180, Note_on_c, 6, 45, 0
8, 252180, Note_on_c, 6, 45, 100
8, 252210, Note_on_c, 6, 45, 0
8, 252210, Note_on_c, 6, 45, 100
8, 252240, Note_on_c, 6, 45, 0
8, 252240, Note_on_c, 6, 45, 100
8, 252270, Note_on_c, 6, 45, 0
8, 252270, Note_on_c, 6, 45, 100
8, 252300, Note_on_c, 6, 45, 0
8, 252300, Note_on_c, 6, 45, 100
8, 252330, Note_on_c, 6, 45, 0
8, 252330, Note_on_c, 6, 45, 100
8, 252360, Note_on_c, 6, 45, 0
8, 252360, Note_on_c, 6, 45, 100
8, 252390, Note_on_c, 6, 45, 0
8, 252390, Note_on_c, 6, 45, 100
8, 252420, Note_on_c, 6, 45, 0
8, 252420, Note_on_c, 6, 45, 100
8, 252450, Note_on_c, 6, 45, 0
8, 252450, Note_on_c, 6, 45, 100
8, 252480, Note_on_c, 6, 45, 0
8, 252480, Note_on_c, 6, 45, 100
8, 252510, Note_on_c, 6, 45, 0
8, 252510, Note_on_c, 6, 45, 100
8, 252540, Note_on_c, 6, 45, 0
8, 252540, Note_on_c, 6, 45, 100
8, 252570, Note_on_c, 6, 45, 0
8, 252570, Note_on_c, 6, 45, 100
8, 252600, Note_on_c, 6, 45, 0
8, 252600, Note_on_c, 6, 45, 100
8, 252630, Note_on_c, 6, 45, 0
8, 252630, Note_on_c, 6, 45, 100
8, 252660, Note_on_c, 6, 45, 0
8, 252660, Note_on_c, 6, 45, 100
8, 252690, Note_on_c, 6, 45, 0
8, 252690, Note_on_c, 6, 45, 100
8, 252720, Note_on_c, 6, 45, 0
8, 252720, Note_on_c, 6, 45, 100
8, 252750, Note_on_c, 6, 45, 0
8, 252750, Note_on_c, 6, 45, 100
8, 252780, Note_on_c, 6, 45, 0
8, 252780, Note_on_c, 6, 45, 100
8, 252810, Note_on_c, 6, 45, 0
8, 252810, Note_on_c, 6, 45, 100
8, 252840, Note_on_c, 6, 45, 0
8, 252840, Note_on_c, 6, 45, 100
8, 252870, Note_on_c, 6, 45, 0
8, 252870, Note_on_c, 6, 45, 100
8, 252900, Note_on_c, 6, 45, 0
8, 252900, Note_on_c, 6, 45, 100
8, 252930, Note_on_c, 6, 45, 0
8, 252930, Note_on_c, 6, 45, 100
8, 252960, Note_on_c, 6, 45, 0
8, 252960, Note_on_c, 6, 45, 100
8, 252990, Note_on_c, 6, 45, 0
8, 252990, Note_on_c, 6, 45, 100
8, 253020, Note_on_c, 6, 45, 0
8, 253020, Note_on_c, 6, 45, 100
8, 253050, Note_on_c, 6, 45, 0
8, 253050, Note_on_c, 6, 45, 100
8, 253080, Note_on_c, 6, 45, 0
8, 253080, Note_on_c, 6, 45, 100
8, 253110, Note_on_c, 6, 45, 0
8, 253110, Note_on_c, 6, 45, 100
8, 253140, Note_on_c, 6, 45, 0
8, 253140, Note_on_c, 6, 45, 100
8, 253170, Note_on_c, 6, 45, 0
8, 253170, Note_on_c, 6, 45, 100
8, 253200, Note_on_c, 6, 45, 0
8, 253200, Note_on_c, 6, 45, 100
8, 253230, Note_on_c, 6, 45, 0
8, 253230, Note_on_c, 6, 45, 100
8, 253260, Note_on_c, 6, 45, 0
8, 253260, Note_on_c, 6, 45, 100
8, 253290, Note_on_c, 6, 45, 0
8, 253290, Note_on_c, 6, 45, 100
8, 253320, Note_on_c, 6, 45, 0
8, 253320, Note_on_c, 6, 45, 100
8, 253350, Note_on_c, 6, 45, 0
8, 253350, Note_on_c, 6, 45, 100
8, 253380, Note_on_c, 6, 45, 0
8, 253380, Note_on_c, 6, 45, 100
8, 253410, Note_on_c, 6, 45, 0
8, 253410, Note_on_c, 6, 45, 100
8, 253440, Note_on_c, 6, 45, 0
8, 253440, Note_on_c, 6, 45, 100
8, 253470, Note_on_c, 6, 45, 0
8, 253470, Note_on_c, 6, 45, 100
8, 253500, Note_on_c, 6, 45, 0
8, 253500, Note_on_c, 6, 45, 100
8, 253530, Note_on_c, 6, 45, 0
8, 253530, Note_on_c, 6, 45, 100
8, 253560, Note_on_c, 6, 45, 0
8, 253560, Note_on_c, 6, 45, 100
8, 253590, Note_on_c, 6, 45, 0
8, 253590, Note_on_c, 6, 45, 100
8, 253620, Note_on_c, 6, 45, 0
8, 253620, Note_on_c, 6, 45, 100
8, 253650, Note_on_c, 6, 45, 0
8, 253650, Note_on_c, 6, 45, 100
8, 253680, Note_on_c, 6, 45, 0
8, 253680, Note_on_c, 6, 45, 100
8, 253710, Note_on_c, 6, 45, 0
8, 253710, Note_on_c, 6, 45, 100
8, 253740, Note_on_c, 6, 45, 0
8, 253740, Note_on_c, 6, 45, 100
8, 253770, Note_on_c, 6, 45, 0
8, 253770, Note_on_c, 6, 45, 100
8, 253800, Note_on_c, 6, 45, 0
8, 253800, Note_on_c, 6, 45, 100
8, 253830, Note_on_c, 6, 45, 0
8, 253830, Note_on_c, 6, 45, 100
8, 253860, Note_on_c, 6, 45, 0
8, 253860, Note_on_c, 6, 45, 100
8, 253890, Note_on_c, 6, 45, 0
8, 253890, Note_on_c, 6, 45, 100
8, 253920, Note_on_c, 6, 45, 0
8, 253920, Note_on_c, 6, 45, 100
8, 253950, Note_on_c, 6, 45, 0
8, 253950, Note_on_c, 6, 45, 100
8, 253980, Note_on_c, 6, 45, 0
8, 253980, Note_on_c, 6, 45, 100
8, 254010, Note_on_c, 6, 45, 0
8, 254010, Note_on_c, 6, 45, 100
8, 254040, Note_on_c, 6, 45, 0
8, 254040, Note_on_c, 6, 45, 100
8, 254070, Note_on_c, 6, 45, 0
8, 254070, Note_on_c, 6, 45, 100
8, 254100, Note_on_c, 6, 45, 0
8, 254100, Note_on_c, 6, 45, 100
8, 254130, Note_on_c, 6, 45, 0
8, 254130, Note_on_c, 6, 45, 100
8, 254160, Note_on_c, 6, 45, 0
8, 254160, Note_on_c, 6, 45, 100
8, 254190, Note_on_c, 6, 45, 0
8, 254190, Note_on_c, 6, 45, 100
8, 254220, Note_on_c, 6, 45, 0
8, 254220, Note_on_c, 6, 45, 100
8, 254250, Note_on_c, 6, 45, 0
8, 254250, Note_on_c, 6, 45, 100
8, 254280, Note_on_c, 6, 45, 0
8, 254280, Note_on_c, 6, 45, 100
8, 254310, Note_on_c, 6, 45, 0
8, 254310, Note_on_c, 6, 45, 100
8, 254340, Note_on_c, 6, 45, 0
8, 254340, Note_on_c, 6, 45, 100
8, 254370, Note_on_c, 6, 45, 0
8, 254370, Note_on_c, 6, 45, 100
8, 254400, Note_on_c, 6, 45, 0
8, 254400, Note_on_c, 6, 45, 100
8, 254430, Note_on_c, 6, 45, 0
8, 254430, Note_on_c, 6, 45, 100
8, 254460, Note_on_c, 6, 45, 0
8, 254460, Note_on_c, 6, 45, 100
8, 254520, Note_on_c, 6, 45, 0
8, 254520, Note_on_c, 6, 45, 100
8, 254550, Note_on_c, 6, 45, 0
8, 254550, Note_on_c, 6, 45, 100
8, 254580, Note_on_c, 6, 45, 0
8, 254580, Note_on_c, 6, 45, 100
8, 254610, Note_on_c, 6, 45, 0
8, 254610, Note_on_c, 6, 45, 100
8, 254640, Note_on_c, 6, 45, 0
8, 254640, Note_on_c, 6, 45, 100
8, 254670, Note_on_c, 6, 45, 0
8, 254670, Note_on_c, 6, 45, 100
8, 254700, Note_on_c, 6, 45, 0
8, 254700, Note_on_c, 6, 45, 100
8, 254730, Note_on_c, 6, 45, 0
8, 254730, Note_on_c, 6, 45, 100
8, 254760, Note_on_c, 6, 45, 0
8, 254760, Note_on_c, 6, 45, 100
8, 254790, Note_on_c, 6, 45, 0
8, 254790, Note_on_c, 6, 45, 100
8, 254820, Note_on_c, 6, 45, 0
8, 254820, Note_on_c, 6, 45, 100
8, 254880, Note_on_c, 6, 45, 0
8, 254880, Note_on_c, 6, 45, 100
8, 254910, Note_on_c, 6, 45, 0
8, 254910, Note_on_c, 6, 45, 100
8, 254940, Note_on_c, 6, 45, 0
8, 254940, Note_on_c, 6, 45, 100
8, 254970, Note_on_c, 6, 45, 0
8, 254970, Note_on_c, 6, 45, 100
8, 255000, Note_on_c, 6, 45, 0
8, 255000, Note_on_c, 6, 45, 100
8, 255030, Note_on_c, 6, 45, 0
8, 255030, Note_on_c, 6, 45, 100
8, 255060, Note_on_c, 6, 45, 0
8, 255060, Note_on_c, 6, 45, 100
8, 255090, Note_on_c, 6, 45, 0
8, 255090, Note_on_c, 6, 45, 100
8, 255120, Note_on_c, 6, 45, 0
8, 255120, Note_on_c, 6, 45, 100
8, 255150, Note_on_c, 6, 45, 0
8, 255150, Note_on_c, 6, 45, 100
8, 255180, Note_on_c, 6, 45, 0
8, 255180, Note_on_c, 6, 45, 100
8, 255210, Note_on_c, 6, 45, 0
8, 255210, Note_on_c, 6, 45, 100
8, 255240, Note_on_c, 6, 45, 0
8, 255240, Note_on_c, 6, 45, 100
8, 255270, Note_on_c, 6, 45, 0
8, 255270, Note_on_c, 6, 45, 100
8, 255300, Note_on_c, 6, 45, 0
8, 255300, Note_on_c, 6, 45, 100
8, 255330, Note_on_c, 6, 45, 0
8, 255330, Note_on_c, 6, 45, 100
8, 255360, Note_on_c, 6, 45, 0
8, 255360, Note_on_c, 6, 45, 100
8, 255390, Note_on_c, 6, 45, 0
8, 255390, Note_on_c, 6, 45, 100
8, 255420, Note_on_c, 6, 45, 0
8, 255420, Note_on_c, 6, 45, 100
8, 255450, Note_on_c, 6, 45, 0
8, 255450, Note_on_c, 6, 45, 100
8, 255480, Note_on_c, 6, 45, 0
8, 255480, Note_on_c, 6, 45, 100
8, 255510, Note_on_c, 6, 45, 0
8, 255510, Note_on_c, 6, 45, 100
8, 255540, Note_on_c, 6, 45, 0
8, 255540, Note_on_c, 6, 45, 100
8, 255570, Note_on_c, 6, 45, 0
8, 255570, Note_on_c, 6, 45, 100
8, 255600, Note_on_c, 6, 45, 0
8, 255600, Note_on_c, 6, 45, 100
8, 255630, Note_on_c, 6, 45, 0
8, 255630, Note_on_c, 6, 45, 100
8, 255660, Note_on_c, 6, 45, 0
8, 255660, Note_on_c, 6, 45, 100
8, 255690, Note_on_c, 6, 45, 0
8, 255690, Note_on_c, 6, 45, 100
8, 255720, Note_on_c, 6, 45, 0
8, 255720, Note_on_c, 6, 45, 100
8, 255750, Note_on_c, 6, 45, 0
8, 255750, Note_on_c, 6, 45, 100
8, 255780, Note_on_c, 6, 45, 0
8, 255780, Note_on_c, 6, 45, 100
8, 255810, Note_on_c, 6, 45, 0
8, 255810, Note_on_c, 6, 45, 100
8, 255840, Note_on_c, 6, 45, 0
8, 255840, Note_on_c, 6, 45, 100
8, 255870, Note_on_c, 6, 45, 0
8, 255870, Note_on_c, 6, 45, 100
8, 255900, Note_on_c, 6, 45, 0
8, 255900, Note_on_c, 6, 45, 100
8, 255930, Note_on_c, 6, 45, 0
8, 255930, Note_on_c, 6, 45, 100
8, 255960, Note_on_c, 6, 45, 0
8, 255960, Note_on_c, 6, 45, 100
8, 255990, Note_on_c, 6, 45, 0
8, 255990, Note_on_c, 6, 45, 100
8, 256020, Note_on_c, 6, 45, 0
8, 256020, Note_on_c, 6, 45, 100
8, 256050, Note_on_c, 6, 45, 0
8, 256050, Note_on_c, 6, 45, 100
8, 256080, Note_on_c, 6, 45, 0
8, 256080, Note_on_c, 6, 45, 100
8, 256110, Note_on_c, 6, 45, 0
8, 256110, Note_on_c, 6, 45, 100
8, 256140, Note_on_c, 6, 45, 0
8, 256140, Note_on_c, 6, 45, 100
8, 256170, Note_on_c, 6, 45, 0
8, 256170, Note_on_c, 6, 45, 100
8, 256200, Note_on_c, 6, 45, 0
8, 256200, Note_on_c, 6, 45, 100
8, 256230, Note_on_c, 6, 45, 0
8, 256230, Note_on_c, 6, 45, 100
8, 256260, Note_on_c, 6, 45, 0
8, 256260, Note_on_c, 6, 45, 100
8, 256290, Note_on_c, 6, 45, 0
8, 256290, Note_on_c, 6, 45, 100
8, 256320, Note_on_c, 6, 45, 0
8, 256320, Note_on_c, 6, 45, 100
8, 256350, Note_on_c, 6, 45, 0
8, 256350, Note_on_c, 6, 45, 100
8, 256380, Note_on_c, 6, 45, 0
8, 256380, Note_on_c, 6, 45, 100
8, 256410, Note_on_c, 6, 45, 0
8, 256410, Note_on_c, 6, 45, 100
8, 256440, Note_on_c, 6, 45, 0
8, 256440, Note_on_c, 6, 45, 100
8, 256470, Note_on_c, 6, 45, 0
8, 256470, Note_on_c, 6, 45, 100
8, 256500, Note_on_c, 6, 45, 0
8, 256500, Note_on_c, 6, 45, 100
8, 256530, Note_on_c, 6, 45, 0
8, 256530, Note_on_c, 6, 45, 100
8, 256560, Note_on_c, 6, 45, 0
8, 256560, Note_on_c, 6, 45, 100
8, 256590, Note_on_c, 6, 45, 0
8, 256590, Note_on_c, 6, 45, 100
8, 256620, Note_on_c, 6, 45, 0
8, 256620, Note_on_c, 6, 45, 100
8, 256650, Note_on_c, 6, 45, 0
8, 256650, Note_on_c, 6, 45, 100
8, 256680, Note_on_c, 6, 45, 0
8, 256680, Note_on_c, 6, 45, 100
8, 256710, Note_on_c, 6, 45, 0
8, 256710, Note_on_c, 6, 45, 100
8, 256740, Note_on_c, 6, 45, 0
8, 256740, Note_on_c, 6, 45, 100
8, 256770, Note_on_c, 6, 45, 0
8, 256770, Note_on_c, 6, 45, 100
8, 256800, Note_on_c, 6, 45, 0
8, 256800, Note_on_c, 6, 45, 100
8, 256830, Note_on_c, 6, 45, 0
8, 256830, Note_on_c, 6, 45, 100
8, 256860, Note_on_c, 6, 45, 0
8, 256860, Note_on_c, 6, 45, 100
8, 256890, Note_on_c, 6, 45, 0
8, 256890, Note_on_c, 6, 45, 100
8, 256920, Note_on_c, 6, 45, 0
8, 256920, Note_on_c, 6, 45, 100
8, 256950, Note_on_c, 6, 45, 0
8, 256950, Note_on_c, 6, 45, 100
8, 256980, Note_on_c, 6, 45, 0
8, 256980, Note_on_c, 6, 45, 100
8, 257010, Note_on_c, 6, 45, 0
8, 257010, Note_on_c, 6, 45, 100
8, 257040, Note_on_c, 6, 45, 0
8, 257040, Note_on_c, 6, 45, 100
8, 257160, Note_on_c, 6, 45, 0
8, 262680, Note_on_c, 6, 53, 100
8, 262800, Note_on_c, 6, 53, 0
8, 262800, Note_on_c, 6, 53, 100
8, 262920, Note_on_c, 6, 53, 0
8, 263040, Note_on_c, 6, 53, 100
8, 263160, Note_on_c, 6, 53, 0
8, 263160, Note_on_c, 6, 53, 100
8, 263280, Note_on_c, 6, 53, 0
8, 263400, Note_on_c, 6, 53, 100
8, 263520, Note_on_c, 6, 53, 0
8, 263520, Note_on_c, 6, 53, 100
8, 263640, Note_on_c, 6, 53, 0
8, 268920, Note_on_c, 6, 45, 100
8, 269040, Note_on_c, 6, 45, 0
8, 269040, Note_on_c, 6, 45, 100
8, 269160, Note_on_c, 6, 45, 0
8, 269160, Note_on_c, 6, 45, 100
8, 269280, Note_on_c, 6, 45, 0
8, 269640, Note_on_c, 6, 45, 100
8, 269760, Note_on_c, 6, 45, 0
8, 269760, Note_on_c, 6, 45, 100
8, 269880, Note_on_c, 6, 45, 0
8, 269880, Note_on_c, 6, 45, 100
8, 270000, Note_on_c, 6, 45, 0
8, 270360, Note_on_c, 6, 45, 100
8, 270480, Note_on_c, 6, 45, 0
8, 270480, Note_on_c, 6, 45, 100
8, 270600, Note_on_c, 6, 45, 0
8, 270600, Note_on_c, 6, 45, 100
8, 270720, Note_on_c, 6, 45, 0
8, 270720, Note_on_c, 6, 45, 100
8, 270840, Note_on_c, 6, 45, 0
8, 270840, Note_on_c, 6, 45, 100
8, 270960, Note_on_c, 6, 45, 0
8, 270960, Note_on_c, 6, 45, 100
8, 271080, Note_on_c, 6, 45, 0
8, 271080, Note_on_c, 6, 45, 100
8, 271200, Note_on_c, 6, 45, 0
8, 271320, Note_on_c, 6, 45, 100
8, 271440, Note_on_c, 6, 45, 0
8, 271440, Note_on_c, 6, 45, 100
8, 271560, Note_on_c, 6, 45, 0
8, 283920, Note_on_c, 6, 53, 100
8, 284040, Note_on_c, 6, 53, 0
8, 284040, Note_on_c, 6, 53, 100
8, 284160, Note_on_c, 6, 53, 0
8, 294360, Note_on_c, 6, 53, 100
8, 294480, Note_on_c, 6, 53, 0
8, 294480, Note_on_c, 6, 53, 100
8, 294600, Note_on_c, 6, 53, 0
8, 294720, Note_on_c, 6, 53, 100
8, 294840, Note_on_c, 6, 53, 0
8, 294840, Note_on_c, 6, 53, 100
8, 294960, Note_on_c, 6, 53, 0
8, 295080, Note_on_c, 6, 53, 100
8, 295200, Note_on_c, 6, 53, 0
8, 295200, Note_on_c, 6, 53, 100
8, 295320, Note_on_c, 6, 53, 0
8, 295320, Note_on_c, 6, 53, 100
8, 295440, Note_on_c, 6, 53, 0
8, 295440, Note_on_c, 6, 53, 100
8, 295560, Note_on_c, 6, 53, 0
8, 295560, Note_on_c, 6, 53, 100
8, 295680, Note_on_c, 6, 53, 0
8, 295680, Note_on_c, 6, 53, 100
8, 295800, Note_on_c, 6, 53, 0
8, 295800, Note_on_c, 6, 53, 100
8, 295920, Note_on_c, 6, 53, 0
8, 295920, Note_on_c, 6, 53, 100
8, 296040, Note_on_c, 6, 53, 0
8, 296040, Note_on_c, 6, 53, 100
8, 296160, Note_on_c, 6, 53, 0
8, 296160, Note_on_c, 6, 53, 100
8, 296280, Note_on_c, 6, 53, 0
8, 297720, Note_on_c, 6, 53, 100
8, 297840, Note_on_c, 6, 53, 0
8, 297840, Note_on_c, 6, 53, 100
8, 297960, Note_on_c, 6, 53, 0
8, 297960, Note_on_c, 6, 53, 100
8, 298080, Note_on_c, 6, 53, 0
8, 298800, Note_on_c, 6, 53, 100
8, 298920, Note_on_c, 6, 53, 0
8, 298920, Note_on_c, 6, 53, 100
8, 299040, Note_on_c, 6, 53, 0
8, 299040, Note_on_c, 6, 53, 100
8, 299160, Note_on_c, 6, 53, 0
8, 300600, Note_on_c, 6, 53, 100
8, 300720, Note_on_c, 6, 53, 0
8, 300720, Note_on_c, 6, 53, 100
8, 300840, Note_on_c, 6, 53, 0
8, 300840, Note_on_c, 6, 53, 100
8, 300960, Note_on_c, 6, 53, 0
8, 307800, Note_on_c, 6, 53, 100
8, 307920, Note_on_c, 6, 53, 0
8, 307920, Note_on_c, 6, 53, 100
8, 308040, Note_on_c, 6, 53, 0
8, 308040, Note_on_c, 6, 53, 100
8, 308160, Note_on_c, 6, 53, 0
8, 308520, Note_on_c, 6, 53, 100
8, 308640, Note_on_c, 6, 53, 0
8, 308640, Note_on_c, 6, 53, 100
8, 308760, Note_on_c, 6, 53, 0
8, 308760, Note_on_c, 6, 53, 100
8, 308880, Note_on_c, 6, 53, 0
8, 309240, Note_on_c, 6, 53, 100
8, 309360, Note_on_c, 6, 53, 0
8, 309360, Note_on_c, 6, 53, 100
8, 309480, Note_on_c, 6, 53, 0
8, 309480, Note_on_c, 6, 53, 100
8, 309600, Note_on_c, 6, 53, 0
8, 309960, Note_on_c, 6, 53, 100
8, 310080, Note_on_c, 6, 53, 0
8, 310080, Note_on_c, 6, 53, 100
8, 310200, Note_on_c, 6, 53, 0
8, 310200, Note_on_c, 6, 53, 100
8, 310320, Note_on_c, 6, 53, 0
8, 310680, Note_on_c, 6, 53, 100
8, 310800, Note_on_c, 6, 53, 0
8, 310800, Note_on_c, 6, 53, 100
8, 310920, Note_on_c, 6, 53, 0
8, 310920, Note_on_c, 6, 53, 100
8, 311040, Note_on_c, 6, 53, 0
8, 311040, Note_on_c, 6, 53, 100
8, 311160, Note_on_c, 6, 53, 0
8, 311160, Note_on_c, 6, 53, 100
8, 311280, Note_on_c, 6, 53, 0
8, 311280, Note_on_c, 6, 53, 100
8, 311400, Note_on_c, 6, 53, 0
8, 311400, Note_on_c, 6, 53, 100
8, 311520, Note_on_c, 6, 53, 0
8, 311640, Note_on_c, 6, 53, 100
8, 311760, Note_on_c, 6, 53, 0
8, 311760, Note_on_c, 6, 53, 100
8, 311880, Note_on_c, 6, 53, 0
8, 313080, Note_on_c, 6, 53, 100
8, 313200, Note_on_c, 6, 53, 0
8, 313200, Note_on_c, 6, 45, 100
8, 313320, Note_on_c, 6, 45, 0
8, 313440, Note_on_c, 6, 53, 100
8, 313560, Note_on_c, 6, 53, 0
8, 313560, Note_on_c, 6, 45, 100
8, 313680, Note_on_c, 6, 45, 0
8, 313800, Note_on_c, 6, 53, 100
8, 313920, Note_on_c, 6, 53, 0
8, 313920, Note_on_c, 6, 45, 100
8, 314040, Note_on_c, 6, 45, 0
8, 314160, Note_on_c, 6, 53, 100
8, 314280, Note_on_c, 6, 53, 0
8, 314280, Note_on_c, 6, 45, 100
8, 314400, Note_on_c, 6, 45, 0
8, 314520, Note_on_c, 6, 53, 100
8, 314640, Note_on_c, 6, 53, 0
8, 314640, Note_on_c, 6, 45, 100
8, 314760, Note_on_c, 6, 45, 0
8, 318960, Note_on_c, 6, 53, 100
8, 319080, Note_on_c, 6, 53, 0
8, 319080, End_track
9, 0, Start_track
9, 0, MIDI_port, 0
9, 0, Title_t, "1st Violins"
9, 0, Program_c, 7, 48
9, 0, Control_c, 7, 7, 127
9, 0, Control_c, 7, 10, 30
9, 600, Note_on_c, 7, 65, 100
9, 720, Note_on_c, 7, 65, 0
9, 720, Note_on_c, 7, 65, 100
9, 750, Note_on_c, 7, 65, 0
9, 750, Note_on_c, 7, 69, 100
9, 840, Note_on_c, 7, 69, 0
9, 840, Note_on_c, 7, 65, 100
9, 900, Note_on_c, 7, 65, 0
9, 960, Note_on_c, 7, 69, 100
9, 1080, Note_on_c, 7, 69, 0
9, 1080, Note_on_c, 7, 69, 100
9, 1110, Note_on_c, 7, 69, 0
9, 1110, Note_on_c, 7, 72, 100
9, 1200, Note_on_c, 7, 72, 0
9, 1200, Note_on_c, 7, 69, 100
9, 1260, Note_on_c, 7, 69, 0
9, 1320, Note_on_c, 7, 72, 100
9, 1440, Note_on_c, 7, 72, 0
9, 1440, Note_on_c, 7, 77, 100
9, 1560, Note_on_c, 7, 77, 0
9, 1560, Note_on_c, 7, 77, 100
9, 1680, Note_on_c, 7, 77, 0
9, 1680, Note_on_c, 7, 76, 100
9, 1800, Note_on_c, 7, 76, 0
9, 1800, Note_on_c, 7, 74, 100
9, 1920, Note_on_c, 7, 74, 0
9, 1920, Note_on_c, 7, 74, 100
9, 2040, Note_on_c, 7, 74, 0
9, 2040, Note_on_c, 7, 72, 100
9, 2160, Note_on_c, 7, 72, 0
9, 2160, Note_on_c, 7, 70, 100
9, 2280, Note_on_c, 7, 70, 0
9, 2280, Note_on_c, 7, 70, 100
9, 2400, Note_on_c, 7, 70, 0
9, 2400, Note_on_c, 7, 69, 100
9, 2520, Note_on_c, 7, 69, 0
9, 2520, Note_on_c, 7, 67, 100
9, 2880, Note_on_c, 7, 67, 0
9, 2880, Note_on_c, 7, 79, 100
9, 3000, Note_on_c, 7, 79, 0
9, 3000, Note_on_c, 7, 79, 100
9, 3120, Note_on_c, 7, 79, 0
9, 3120, Note_on_c, 7, 77, 100
9, 3240, Note_on_c, 7, 77, 0
9, 3240, Note_on_c, 7, 76, 100
9, 3360, Note_on_c, 7, 76, 0
9, 3360, Note_on_c, 7, 76, 100
9, 3480, Note_on_c, 7, 76, 0
9, 3480, Note_on_c, 7, 74, 100
9, 3600, Note_on_c, 7, 74, 0
9, 3600, Note_on_c, 7, 72, 100
9, 3720, Note_on_c, 7, 72, 0
9, 3720, Note_on_c, 7, 72, 100
9, 3840, Note_on_c, 7, 72, 0
9, 3840, Note_on_c, 7, 70, 100
9, 3960, Note_on_c, 7, 70, 0
9, 3960, Note_on_c, 7, 69, 100
9, 4320, Note_on_c, 7, 69, 0
9, 4320, Note_on_c, 7, 67, 100
9, 4440, Note_on_c, 7, 67, 0
9, 4440, Note_on_c, 7, 67, 100
9, 4560, Note_on_c, 7, 67, 0
9, 4560, Note_on_c, 7, 65, 100
9, 4680, Note_on_c, 7, 65, 0
9, 4680, Note_on_c, 7, 70, 100
9, 4920, Note_on_c, 7, 70, 0
9, 4920, Note_on_c, 7, 69, 100
9, 5040, Note_on_c, 7, 69, 0
9, 5040, Note_on_c, 7, 67, 100
9, 5160, Note_on_c, 7, 67, 0
9, 5160, Note_on_c, 7, 67, 100
9, 5280, Note_on_c, 7, 67, 0
9, 5280, Note_on_c, 7, 65, 100
9, 5400, Note_on_c, 7, 65, 0
9, 5400, Note_on_c, 7, 70, 100
9, 5640, Note_on_c, 7, 70, 0
9, 5640, Note_on_c, 7, 69, 100
9, 5760, Note_on_c, 7, 69, 0
9, 5760, Note_on_c, 7, 74, 100
9, 6000, Note_on_c, 7, 74, 0
9, 6000, Note_on_c, 7, 73, 100
9, 6120, Note_on_c, 7, 73, 0
9, 6120, Note_on_c, 7, 77, 100
9, 6360, Note_on_c, 7, 77, 0
9, 6360, Note_on_c, 7, 76, 100
9, 6480, Note_on_c, 7, 76, 0
9, 6480, Note_on_c, 7, 80, 100
9, 6510, Note_on_c, 7, 80, 0
9, 6510, Note_on_c, 7, 81, 100
9, 6540, Note_on_c, 7, 81, 0
9, 6540, Note_on_c, 7, 80, 100
9, 6570, Note_on_c, 7, 80, 0
9, 6570, Note_on_c, 7, 81, 100
9, 6600, Note_on_c, 7, 81, 0
9, 6600, Note_on_c, 7, 80, 100
9, 6630, Note_on_c, 7, 80, 0
9, 6630, Note_on_c, 7, 81, 100
9, 6660, Note_on_c, 7, 81, 0
9, 6660, Note_on_c, 7, 80, 100
9, 6690, Note_on_c, 7, 80, 0
9, 6690, Note_on_c, 7, 81, 100
9, 6720, Note_on_c, 7, 81, 0
9, 6720, Note_on_c, 7, 80, 100
9, 6750, Note_on_c, 7, 80, 0
9, 6750, Note_on_c, 7, 81, 100
9, 6780, Note_on_c, 7, 81, 0
9, 6780, Note_on_c, 7, 78, 100
9, 6810, Note_on_c, 7, 78, 0
9, 6810, Note_on_c, 7, 80, 100
9, 6840, Note_on_c, 7, 80, 0
9, 6840, Note_on_c, 7, 81, 100
9, 6960, Note_on_c, 7, 81, 0
9, 6960, Note_on_c, 7, 76, 100
9, 7080, Note_on_c, 7, 76, 0
9, 7080, Note_on_c, 7, 73, 100
9, 7200, Note_on_c, 7, 73, 0
9, 7200, Note_on_c, 7, 74, 100
9, 7230, Note_on_c, 7, 74, 0
9, 7230, Note_on_c, 7, 76, 100
9, 7260, Note_on_c, 7, 76, 0
9, 7260, Note_on_c, 7, 74, 100
9, 7290, Note_on_c, 7, 74, 0
9, 7290, Note_on_c, 7, 76, 100
9, 7320, Note_on_c, 7, 76, 0
9, 7320, Note_on_c, 7, 74, 100
9, 7350, Note_on_c, 7, 74, 0
9, 7350, Note_on_c, 7, 76, 100
9, 7380, Note_on_c, 7, 76, 0
9, 7380, Note_on_c, 7, 74, 100
9, 7410, Note_on_c, 7, 74, 0
9, 7410, Note_on_c, 7, 76, 100
9, 7440, Note_on_c, 7, 76, 0
9, 7440, Note_on_c, 7, 74, 100
9, 7470, Note_on_c, 7, 74, 0
9, 7470, Note_on_c, 7, 76, 100
9, 7500, Note_on_c, 7, 76, 0
9, 7500, Note_on_c, 7, 73, 100
9, 7530, Note_on_c, 7, 73, 0
9, 7530, Note_on_c, 7, 74, 100
9, 7560, Note_on_c, 7, 74, 0
9, 7560, Note_on_c, 7, 73, 100
9, 7680, Note_on_c, 7, 73, 0
9, 7680, Note_on_c, 7, 76, 100
9, 7800, Note_on_c, 7, 76, 0
9, 7800, Note_on_c, 7, 81, 100
9, 7920, Note_on_c, 7, 81, 0
9, 7920, Note_on_c, 7, 80, 100
9, 7950, Note_on_c, 7, 80, 0
9, 7950, Note_on_c, 7, 81, 100
9, 7980, Note_on_c, 7, 81, 0
9, 7980, Note_on_c, 7, 80, 100
9, 8010, Note_on_c, 7, 80, 0
9, 8010, Note_on_c, 7, 81, 100
9, 8040, Note_on_c, 7, 81, 0
9, 8040, Note_on_c, 7, 80, 100
9, 8070, Note_on_c, 7, 80, 0
9, 8070, Note_on_c, 7, 81, 100
9, 8100, Note_on_c, 7, 81, 0
9, 8100, Note_on_c, 7, 80, 100
9, 8130, Note_on_c, 7, 80, 0
9, 8130, Note_on_c, 7, 81, 100
9, 8160, Note_on_c, 7, 81, 0
9, 8160, Note_on_c, 7, 80, 100
9, 8190, Note_on_c, 7, 80, 0
9, 8190, Note_on_c, 7, 81, 100
9, 8220, Note_on_c, 7, 81, 0
9, 8220, Note_on_c, 7, 78, 100
9, 8250, Note_on_c, 7, 78, 0
9, 8250, Note_on_c, 7, 80, 100
9, 8280, Note_on_c, 7, 80, 0
9, 8280, Note_on_c, 7, 81, 100
9, 8400, Note_on_c, 7, 81, 0
9, 8400, Note_on_c, 7, 76, 100
9, 8520, Note_on_c, 7, 76, 0
9, 8520, Note_on_c, 7, 73, 100
9, 8640, Note_on_c, 7, 73, 0
9, 8640, Note_on_c, 7, 69, 100
9, 8760, Note_on_c, 7, 69, 0
9, 8760, Note_on_c, 7, 64, 100
9, 8880, Note_on_c, 7, 64, 0
9, 8880, Note_on_c, 7, 61, 100
9, 9000, Note_on_c, 7, 61, 0
9, 9000, Note_on_c, 7, 57, 100
9, 9120, Note_on_c, 7, 57, 0
9, 9240, Note_on_c, 7, 65, 100
9, 9360, Note_on_c, 7, 65, 0
9, 9360, Note_on_c, 7, 65, 100
9, 9390, Note_on_c, 7, 65, 0
9, 9390, Note_on_c, 7, 69, 100
9, 9480, Note_on_c, 7, 69, 0
9, 9480, Note_on_c, 7, 65, 100
9, 9540, Note_on_c, 7, 65, 0
9, 9600, Note_on_c, 7, 69, 100
9, 9720, Note_on_c, 7, 69, 0
9, 9720, Note_on_c, 7, 69, 100
9, 9750, Note_on_c, 7, 69, 0
9, 9750, Note_on_c, 7, 72, 100
9, 9840, Note_on_c, 7, 72, 0
9, 9840, Note_on_c, 7, 69, 100
9, 9900, Note_on_c, 7, 69, 0
9, 9960, Note_on_c, 7, 72, 100
9, 10080, Note_on_c, 7, 72, 0
9, 10080, Note_on_c, 7, 77, 100
9, 10200, Note_on_c, 7, 77, 0
9, 10200, Note_on_c, 7, 77, 100
9, 10320, Note_on_c, 7, 77, 0
9, 10320, Note_on_c, 7, 76, 100
9, 10440, Note_on_c, 7, 76, 0
9, 10440, Note_on_c, 7, 74, 100
9, 10560, Note_on_c, 7, 74, 0
9, 10560, Note_on_c, 7, 74, 100
9, 10680, Note_on_c, 7, 74, 0
9, 10680, Note_on_c, 7, 72, 100
9, 10800, Note_on_c, 7, 72, 0
9, 10800, Note_on_c, 7, 70, 100
9, 10920, Note_on_c, 7, 70, 0
9, 10920, Note_on_c, 7, 70, 100
9, 11040, Note_on_c, 7, 70, 0
9, 11040, Note_on_c, 7, 69, 100
9, 11160, Note_on_c, 7, 69, 0
9, 11160, Note_on_c, 7, 67, 100
9, 11520, Note_on_c, 7, 67, 0
9, 11520, Note_on_c, 7, 79, 100
9, 11640, Note_on_c, 7, 79, 0
9, 11640, Note_on_c, 7, 79, 100
9, 11760, Note_on_c, 7, 79, 0
9, 11760, Note_on_c, 7, 77, 100
9, 11880, Note_on_c, 7, 77, 0
9, 11880, Note_on_c, 7, 76, 100
9, 12000, Note_on_c, 7, 76, 0
9, 12000, Note_on_c, 7, 76, 100
9, 12120, Note_on_c, 7, 76, 0
9, 12120, Note_on_c, 7, 74, 100
9, 12240, Note_on_c, 7, 74, 0
9, 12240, Note_on_c, 7, 72, 100
9, 12360, Note_on_c, 7, 72, 0
9, 12360, Note_on_c, 7, 72, 100
9, 12480, Note_on_c, 7, 72, 0
9, 12480, Note_on_c, 7, 70, 100
9, 12600, Note_on_c, 7, 70, 0
9, 12600, Note_on_c, 7, 69, 100
9, 12960, Note_on_c, 7, 69, 0
9, 12960, Note_on_c, 7, 67, 100
9, 13080, Note_on_c, 7, 67, 0
9, 13080, Note_on_c, 7, 67, 100
9, 13200, Note_on_c, 7, 67, 0
9, 13200, Note_on_c, 7, 65, 100
9, 13320, Note_on_c, 7, 65, 0
9, 13320, Note_on_c, 7, 70, 100
9, 13560, Note_on_c, 7, 70, 0
9, 13560, Note_on_c, 7, 69, 100
9, 13680, Note_on_c, 7, 69, 0
9, 13680, Note_on_c, 7, 67, 100
9, 13800, Note_on_c, 7, 67, 0
9, 13800, Note_on_c, 7, 67, 100
9, 13920, Note_on_c, 7, 67, 0
9, 13920, Note_on_c, 7, 65, 100
9, 14040, Note_on_c, 7, 65, 0
9, 14040, Note_on_c, 7, 70, 100
9, 14280, Note_on_c, 7, 70, 0
9, 14280, Note_on_c, 7, 69, 100
9, 14400, Note_on_c, 7, 69, 0
9, 14400, Note_on_c, 7, 74, 100
9, 14640, Note_on_c, 7, 74, 0
9, 14640, Note_on_c, 7, 73, 100
9, 14760, Note_on_c, 7, 73, 0
9, 14760, Note_on_c, 7, 77, 100
9, 15000, Note_on_c, 7, 77, 0
9, 15000, Note_on_c, 7, 76, 100
9, 15120, Note_on_c, 7, 76, 0
9, 15120, Note_on_c, 7, 80, 100
9, 15150, Note_on_c, 7, 80, 0
9, 15150, Note_on_c, 7, 81, 100
9, 15180, Note_on_c, 7, 81, 0
9, 15180, Note_on_c, 7, 80, 100
9, 15210, Note_on_c, 7, 80, 0
9, 15210, Note_on_c, 7, 81, 100
9, 15240, Note_on_c, 7, 81, 0
9, 15240, Note_on_c, 7, 80, 100
9, 15270, Note_on_c, 7, 80, 0
9, 15270, Note_on_c, 7, 81, 100
9, 15300, Note_on_c, 7, 81, 0
9, 15300, Note_on_c, 7, 80, 100
9, 15330, Note_on_c, 7, 80, 0
9, 15330, Note_on_c, 7, 81, 100
9, 15360, Note_on_c, 7, 81, 0
9, 15360, Note_on_c, 7, 80, 100
9, 15390, Note_on_c, 7, 80, 0
9, 15390, Note_on_c, 7, 81, 100
9, 15420, Note_on_c, 7, 81, 0
9, 15420, Note_on_c, 7, 78, 100
9, 15450, Note_on_c, 7, 78, 0
9, 15450, Note_on_c, 7, 80, 100
9, 15480, Note_on_c, 7, 80, 0
9, 15480, Note_on_c, 7, 81, 100
9, 15600, Note_on_c, 7, 81, 0
9, 15600, Note_on_c, 7, 76, 100
9, 15720, Note_on_c, 7, 76, 0
9, 15720, Note_on_c, 7, 73, 100
9, 15840, Note_on_c, 7, 73, 0
9, 15840, Note_on_c, 7, 74, 100
9, 15870, Note_on_c, 7, 74, 0
9, 15870, Note_on_c, 7, 76, 100
9, 15900, Note_on_c, 7, 76, 0
9, 15900, Note_on_c, 7, 74, 100
9, 15930, Note_on_c, 7, 74, 0
9, 15930, Note_on_c, 7, 76, 100
9, 15960, Note_on_c, 7, 76, 0
9, 15960, Note_on_c, 7, 74, 100
9, 15990, Note_on_c, 7, 74, 0
9, 15990, Note_on_c, 7, 76, 100
9, 16020, Note_on_c, 7, 76, 0
9, 16020, Note_on_c, 7, 74, 100
9, 16050, Note_on_c, 7, 74, 0
9, 16050, Note_on_c, 7, 76, 100
9, 16080, Note_on_c, 7, 76, 0
9, 16080, Note_on_c, 7, 74, 100
9, 16110, Note_on_c, 7, 74, 0
9, 16110, Note_on_c, 7, 76, 100
9, 16140, Note_on_c, 7, 76, 0
9, 16140, Note_on_c, 7, 73, 100
9, 16170, Note_on_c, 7, 73, 0
9, 16170, Note_on_c, 7, 74, 100
9, 16200, Note_on_c, 7, 74, 0
9, 16200, Note_on_c, 7, 73, 100
9, 16320, Note_on_c, 7, 73, 0
9, 16320, Note_on_c, 7, 76, 100
9, 16440, Note_on_c, 7, 76, 0
9, 16440, Note_on_c, 7, 81, 100
9, 16560, Note_on_c, 7, 81, 0
9, 16560, Note_on_c, 7, 80, 100
9, 16590, Note_on_c, 7, 80, 0
9, 16590, Note_on_c, 7, 81, 100
9, 16620, Note_on_c, 7, 81, 0
9, 16620, Note_on_c, 7, 80, 100
9, 16650, Note_on_c, 7, 80, 0
9, 16650, Note_on_c, 7, 81, 100
9, 16680, Note_on_c, 7, 81, 0
9, 16680, Note_on_c, 7, 80, 100
9, 16710, Note_on_c, 7, 80, 0
9, 16710, Note_on_c, 7, 81, 100
9, 16740, Note_on_c, 7, 81, 0
9, 16740, Note_on_c, 7, 80, 100
9, 16770, Note_on_c, 7, 80, 0
9, 16770, Note_on_c, 7, 81, 100
9, 16800, Note_on_c, 7, 81, 0
9, 16800, Note_on_c, 7, 80, 100
9, 16830, Note_on_c, 7, 80, 0
9, 16830, Note_on_c, 7, 81, 100
9, 16860, Note_on_c, 7, 81, 0
9, 16860, Note_on_c, 7, 78, 100
9, 16890, Note_on_c, 7, 78, 0
9, 16890, Note_on_c, 7, 80, 100
9, 16920, Note_on_c, 7, 80, 0
9, 16920, Note_on_c, 7, 81, 100
9, 17040, Note_on_c, 7, 81, 0
9, 17040, Note_on_c, 7, 76, 100
9, 17160, Note_on_c, 7, 76, 0
9, 17160, Note_on_c, 7, 73, 100
9, 17280, Note_on_c, 7, 73, 0
9, 17280, Note_on_c, 7, 69, 100
9, 17400, Note_on_c, 7, 69, 0
9, 17400, Note_on_c, 7, 64, 100
9, 17520, Note_on_c, 7, 64, 0
9, 17520, Note_on_c, 7, 61, 100
9, 17640, Note_on_c, 7, 61, 0
9, 17640, Note_on_c, 7, 57, 100
9, 17760, Note_on_c, 7, 57, 0
9, 18960, Note_on_c, 7, 81, 100
9, 19080, Note_on_c, 7, 81, 0
9, 19080, Note_on_c, 7, 81, 100
9, 19110, Note_on_c, 7, 81, 0
9, 19110, Note_on_c, 7, 85, 100
9, 19200, Note_on_c, 7, 85, 0
9, 19200, Note_on_c, 7, 81, 100
9, 19260, Note_on_c, 7, 81, 0
9, 22320, Note_on_c, 7, 79, 100
9, 22560, Note_on_c, 7, 79, 0
9, 22560, Note_on_c, 7, 78, 100
9, 22680, Note_on_c, 7, 78, 0
9, 22680, Note_on_c, 7, 79, 100
9, 22920, Note_on_c, 7, 79, 0
9, 22920, Note_on_c, 7, 78, 100
9, 23040, Note_on_c, 7, 78, 0
9, 23040, Note_on_c, 7, 79, 100
9, 23280, Note_on_c, 7, 79, 0
9, 23280, Note_on_c, 7, 78, 100
9, 23400, Note_on_c, 7, 78, 0
9, 23400, Note_on_c, 7, 79, 100
9, 23640, Note_on_c, 7, 79, 0
9, 23640, Note_on_c, 7, 78, 100
9, 23760, Note_on_c, 7, 78, 0
9, 24720, Note_on_c, 7, 83, 100
9, 24840, Note_on_c, 7, 83, 0
9, 24840, Note_on_c, 7, 86, 100
9, 24960, Note_on_c, 7, 86, 0
9, 24960, Note_on_c, 7, 83, 100
9, 25020, Note_on_c, 7, 83, 0
9, 28080, Note_on_c, 7, 82, 100
9, 28320, Note_on_c, 7, 82, 0
9, 28320, Note_on_c, 7, 81, 100
9, 28440, Note_on_c, 7, 81, 0
9, 28440, Note_on_c, 7, 82, 100
9, 28680, Note_on_c, 7, 82, 0
9, 28680, Note_on_c, 7, 81, 100
9, 28800, Note_on_c, 7, 81, 0
9, 28800, Note_on_c, 7, 82, 100
9, 29040, Note_on_c, 7, 82, 0
9, 29040, Note_on_c, 7, 81, 100
9, 29160, Note_on_c, 7, 81, 0
9, 29160, Note_on_c, 7, 82, 100
9, 29400, Note_on_c, 7, 82, 0
9, 29400, Note_on_c, 7, 81, 100
9, 29520, Note_on_c, 7, 81, 0
9, 30480, Note_on_c, 7, 81, 100
9, 30600, Note_on_c, 7, 81, 0
9, 30600, Note_on_c, 7, 84, 100
9, 30720, Note_on_c, 7, 84, 0
9, 30720, Note_on_c, 7, 81, 100
9, 30780, Note_on_c, 7, 81, 0
9, 30840, Note_on_c, 7, 74, 100
9, 30960, Note_on_c, 7, 74, 0
9, 30960, Note_on_c, 7, 75, 100
9, 31080, Note_on_c, 7, 75, 0
9, 31080, Note_on_c, 7, 75, 100
9, 31200, Note_on_c, 7, 75, 0
9, 31200, Note_on_c, 7, 74, 100
9, 31320, Note_on_c, 7, 74, 0
9, 31320, Note_on_c, 7, 79, 100
9, 31560, Note_on_c, 7, 79, 0
9, 31560, Note_on_c, 7, 77, 100
9, 31680, Note_on_c, 7, 77, 0
9, 31680, Note_on_c, 7, 75, 100
9, 31800, Note_on_c, 7, 75, 0
9, 31800, Note_on_c, 7, 75, 100
9, 31920, Note_on_c, 7, 75, 0
9, 31920, Note_on_c, 7, 74, 100
9, 32040, Note_on_c, 7, 74, 0
9, 32040, Note_on_c, 7, 79, 100
9, 32280, Note_on_c, 7, 79, 0
9, 32280, Note_on_c, 7, 77, 100
9, 32400, Note_on_c, 7, 77, 0
9, 32400, Note_on_c, 7, 77, 100
9, 32520, Note_on_c, 7, 77, 0
9, 32760, Program_c, 7, 45
9, 32760, Note_on_c, 7, 62, 100
9, 32760, Note_on_c, 7, 70, 100
9, 32880, Note_on_c, 7, 70, 0
9, 32880, Note_on_c, 7, 62, 0
9, 33120, Note_on_c, 7, 62, 100
9, 33120, Note_on_c, 7, 70, 100
9, 33240, Note_on_c, 7, 70, 0
9, 33240, Note_on_c, 7, 62, 0
9, 33480, Note_on_c, 7, 62, 100
9, 33480, Note_on_c, 7, 70, 100
9, 33600, Note_on_c, 7, 70, 0
9, 33600, Note_on_c, 7, 62, 0
9, 33840, Note_on_c, 7, 65, 100
9, 33840, Note_on_c, 7, 72, 100
9, 33960, Note_on_c, 7, 72, 0
9, 33960, Note_on_c, 7, 65, 0
9, 34200, Note_on_c, 7, 65, 100
9, 34200, Note_on_c, 7, 72, 100
9, 34320, Note_on_c, 7, 72, 0
9, 34320, Note_on_c, 7, 65, 0
9, 34560, Note_on_c, 7, 65, 100
9, 34560, Note_on_c, 7, 72, 100
9, 34680, Note_on_c, 7, 72, 0
9, 34680, Note_on_c, 7, 65, 0
9, 34920, Note_on_c, 7, 65, 100
9, 34920, Note_on_c, 7, 72, 100
9, 35040, Note_on_c, 7, 72, 0
9, 35040, Note_on_c, 7, 65, 0
9, 35280, Note_on_c, 7, 65, 100
9, 35280, Note_on_c, 7, 72, 100
9, 35400, Note_on_c, 7, 72, 0
9, 35400, Note_on_c, 7, 65, 0
9, 35640, Program_c, 7, 48
9, 35640, Note_on_c, 7, 65, 100
9, 35760, Note_on_c, 7, 65, 0
9, 35760, Note_on_c, 7, 70, 100
9, 35880, Note_on_c, 7, 70, 0
9, 35880, Note_on_c, 7, 70, 100
9, 36000, Note_on_c, 7, 70, 0
9, 36000, Note_on_c, 7, 65, 100
9, 36120, Note_on_c, 7, 65, 0
9, 36120, Note_on_c, 7, 70, 100
9, 36240, Note_on_c, 7, 70, 0
9, 36240, Note_on_c, 7, 70, 100
9, 36360, Note_on_c, 7, 70, 0
9, 36360, Note_on_c, 7, 65, 100
9, 36480, Note_on_c, 7, 65, 0
9, 36480, Note_on_c, 7, 70, 100
9, 36600, Note_on_c, 7, 70, 0
9, 36600, Note_on_c, 7, 70, 100
9, 36720, Note_on_c, 7, 70, 0
9, 36720, Note_on_c, 7, 72, 100
9, 36840, Note_on_c, 7, 72, 0
9, 36840, Note_on_c, 7, 72, 100
9, 36960, Note_on_c, 7, 72, 0
9, 36960, Note_on_c, 7, 72, 100
9, 37080, Note_on_c, 7, 72, 0
9, 37080, Note_on_c, 7, 69, 100
9, 37200, Note_on_c, 7, 69, 0
9, 37200, Note_on_c, 7, 69, 100
9, 37320, Note_on_c, 7, 69, 0
9, 37320, Note_on_c, 7, 72, 100
9, 37440, Note_on_c, 7, 72, 0
9, 37440, Note_on_c, 7, 69, 100
9, 37560, Note_on_c, 7, 69, 0
9, 37560, Note_on_c, 7, 69, 100
9, 37680, Note_on_c, 7, 69, 0
9, 37680, Note_on_c, 7, 72, 100
9, 37800, Note_on_c, 7, 72, 0
9, 37800, Note_on_c, 7, 69, 100
9, 37920, Note_on_c, 7, 69, 0
9, 37920, Note_on_c, 7, 69, 100
9, 38040, Note_on_c, 7, 69, 0
9, 38040, Note_on_c, 7, 72, 100
9, 38160, Note_on_c, 7, 72, 0
9, 38160, Note_on_c, 7, 70, 100
9, 38280, Note_on_c, 7, 70, 0
9, 38280, Note_on_c, 7, 70, 100
9, 38400, Note_on_c, 7, 70, 0
9, 38400, Note_on_c, 7, 74, 100
9, 38520, Note_on_c, 7, 74, 0
9, 39960, Note_on_c, 7, 67, 100
9, 40080, Note_on_c, 7, 67, 0
9, 40080, Note_on_c, 7, 67, 100
9, 40200, Note_on_c, 7, 67, 0
9, 40200, Note_on_c, 7, 69, 100
9, 40320, Note_on_c, 7, 69, 0
9, 40320, Note_on_c, 7, 70, 100
9, 40440, Note_on_c, 7, 70, 0
9, 40440, Note_on_c, 7, 70, 100
9, 40560, Note_on_c, 7, 70, 0
9, 40560, Note_on_c, 7, 72, 100
9, 40680, Note_on_c, 7, 72, 0
9, 40680, Note_on_c, 7, 74, 100
9, 40800, Note_on_c, 7, 74, 0
9, 40800, Note_on_c, 7, 76, 100
9, 40920, Note_on_c, 7, 76, 0
9, 40920, Note_on_c, 7, 77, 100
9, 41040, Note_on_c, 7, 77, 0
9, 41040, Note_on_c, 7, 77, 100
9, 41070, Note_on_c, 7, 77, 0
9, 41070, Note_on_c, 7, 81, 100
9, 41160, Note_on_c, 7, 81, 0
9, 41160, Note_on_c, 7, 77, 100
9, 41220, Note_on_c, 7, 77, 0
9, 41280, Note_on_c, 7, 81, 100
9, 41400, Note_on_c, 7, 81, 0
9, 41400, Note_on_c, 7, 81, 100
9, 41430, Note_on_c, 7, 81, 0
9, 41430, Note_on_c, 7, 84, 100
9, 41520, Note_on_c, 7, 84, 0
9, 41520, Note_on_c, 7, 81, 100
9, 41580, Note_on_c, 7, 81, 0
9, 41640, Note_on_c, 7, 84, 100
9, 41760, Note_on_c, 7, 84, 0
9, 41760, Note_on_c, 7, 89, 100
9, 41880, Note_on_c, 7, 89, 0
9, 41880, Note_on_c, 7, 89, 100
9, 42000, Note_on_c, 7, 89, 0
9, 42000, Note_on_c, 7, 88, 100
9, 42120, Note_on_c, 7, 88, 0
9, 42120, Note_on_c, 7, 86, 100
9, 42240, Note_on_c, 7, 86, 0
9, 42240, Note_on_c, 7, 86, 100
9, 42360, Note_on_c, 7, 86, 0
9, 42360, Note_on_c, 7, 84, 100
9, 42480, Note_on_c, 7, 84, 0
9, 42480, Note_on_c, 7, 82, 100
9, 42600, Note_on_c, 7, 82, 0
9, 42600, Note_on_c, 7, 82, 100
9, 42720, Note_on_c, 7, 82, 0
9, 42720, Note_on_c, 7, 81, 100
9, 42840, Note_on_c, 7, 81, 0
9, 42840, Note_on_c, 7, 79, 100
9, 43200, Note_on_c, 7, 79, 0
9, 43200, Note_on_c, 7, 91, 100
9, 43320, Note_on_c, 7, 91, 0
9, 43320, Note_on_c, 7, 91, 100
9, 43440, Note_on_c, 7, 91, 0
9, 43440, Note_on_c, 7, 89, 100
9, 43560, Note_on_c, 7, 89, 0
9, 43560, Note_on_c, 7, 88, 100
9, 43680, Note_on_c, 7, 88, 0
9, 43680, Note_on_c, 7, 88, 100
9, 43800, Note_on_c, 7, 88, 0
9, 43800, Note_on_c, 7, 86, 100
9, 43920, Note_on_c, 7, 86, 0
9, 43920, Note_on_c, 7, 84, 100
9, 44040, Note_on_c, 7, 84, 0
9, 44040, Note_on_c, 7, 84, 100
9, 44160, Note_on_c, 7, 84, 0
9, 44160, Note_on_c, 7, 82, 100
9, 44280, Note_on_c, 7, 82, 0
9, 44280, Note_on_c, 7, 81, 100
9, 44640, Note_on_c, 7, 81, 0
9, 44640, Note_on_c, 7, 77, 100
9, 45840, Note_on_c, 7, 77, 0
9, 45840, Note_on_c, 7, 79, 100
9, 45960, Note_on_c, 7, 79, 0
9, 45960, Note_on_c, 7, 79, 100
9, 46080, Note_on_c, 7, 79, 0
9, 46080, Note_on_c, 7, 79, 100
9, 47280, Note_on_c, 7, 79, 0
9, 47280, Note_on_c, 7, 81, 100
9, 47400, Note_on_c, 7, 81, 0
9, 47400, Note_on_c, 7, 81, 100
9, 47520, Note_on_c, 7, 81, 0
9, 47520, Note_on_c, 7, 67, 100
9, 47640, Note_on_c, 7, 67, 0
9, 47640, Note_on_c, 7, 67, 100
9, 47760, Note_on_c, 7, 67, 0
9, 47760, Note_on_c, 7, 65, 100
9, 47880, Note_on_c, 7, 65, 0
9, 47880, Note_on_c, 7, 70, 100
9, 48120, Note_on_c, 7, 70, 0
9, 48120, Note_on_c, 7, 69, 100
9, 48240, Note_on_c, 7, 69, 0
9, 48960, Note_on_c, 7, 67, 100
9, 49080, Note_on_c, 7, 67, 0
9, 49080, Note_on_c, 7, 67, 100
9, 49200, Note_on_c, 7, 67, 0
9, 49200, Note_on_c, 7, 65, 100
9, 49320, Note_on_c, 7, 65, 0
9, 49320, Note_on_c, 7, 70, 100
9, 49560, Note_on_c, 7, 70, 0
9, 49560, Note_on_c, 7, 69, 100
9, 49680, Note_on_c, 7, 69, 0
9, 49680, Note_on_c, 7, 74, 100
9, 49920, Note_on_c, 7, 74, 0
9, 49920, Note_on_c, 7, 72, 100
9, 50040, Note_on_c, 7, 72, 0
9, 50040, Note_on_c, 7, 77, 100
9, 50280, Note_on_c, 7, 77, 0
9, 50280, Note_on_c, 7, 76, 100
9, 50400, Note_on_c, 7, 76, 0
9, 50400, Note_on_c, 7, 81, 100
9, 50640, Note_on_c, 7, 81, 0
9, 50640, Note_on_c, 7, 79, 100
9, 50760, Note_on_c, 7, 79, 0
9, 50760, Note_on_c, 7, 83, 100
9, 51000, Note_on_c, 7, 83, 0
9, 51000, Note_on_c, 7, 84, 100
9, 51120, Note_on_c, 7, 84, 0
9, 51120, Note_on_c, 7, 83, 100
9, 51150, Note_on_c, 7, 83, 0
9, 51150, Note_on_c, 7, 84, 100
9, 51180, Note_on_c, 7, 84, 0
9, 51180, Note_on_c, 7, 83, 100
9, 51210, Note_on_c, 7, 83, 0
9, 51210, Note_on_c, 7, 84, 100
9, 51240, Note_on_c, 7, 84, 0
9, 51240, Note_on_c, 7, 83, 100
9, 51270, Note_on_c, 7, 83, 0
9, 51270, Note_on_c, 7, 84, 100
9, 51300, Note_on_c, 7, 84, 0
9, 51300, Note_on_c, 7, 83, 100
9, 51330, Note_on_c, 7, 83, 0
9, 51330, Note_on_c, 7, 84, 100
9, 51360, Note_on_c, 7, 84, 0
9, 51360, Note_on_c, 7, 83, 100
9, 51390, Note_on_c, 7, 83, 0
9, 51390, Note_on_c, 7, 84, 100
9, 51420, Note_on_c, 7, 84, 0
9, 51420, Note_on_c, 7, 81, 100
9, 51450, Note_on_c, 7, 81, 0
9, 51450, Note_on_c, 7, 83, 100
9, 51480, Note_on_c, 7, 83, 0
9, 51480, Note_on_c, 7, 84, 100
9, 51600, Note_on_c, 7, 84, 0
9, 51600, Note_on_c, 7, 79, 100
9, 51720, Note_on_c, 7, 79, 0
9, 51720, Note_on_c, 7, 76, 100
9, 51840, Note_on_c, 7, 76, 0
9, 51840, Note_on_c, 7, 77, 100
9, 51870, Note_on_c, 7, 77, 0
9, 51870, Note_on_c, 7, 79, 100
9, 51900, Note_on_c, 7, 79, 0
9, 51900, Note_on_c, 7, 77, 100
9, 51930, Note_on_c, 7, 77, 0
9, 51930, Note_on_c, 7, 79, 100
9, 51960, Note_on_c, 7, 79, 0
9, 51960, Note_on_c, 7, 77, 100
9, 51990, Note_on_c, 7, 77, 0
9, 51990, Note_on_c, 7, 79, 100
9, 52020, Note_on_c, 7, 79, 0
9, 52020, Note_on_c, 7, 77, 100
9, 52050, Note_on_c, 7, 77, 0
9, 52050, Note_on_c, 7, 79, 100
9, 52080, Note_on_c, 7, 79, 0
9, 52080, Note_on_c, 7, 77, 100
9, 52110, Note_on_c, 7, 77, 0
9, 52110, Note_on_c, 7, 79, 100
9, 52140, Note_on_c, 7, 79, 0
9, 52140, Note_on_c, 7, 76, 100
9, 52170, Note_on_c, 7, 76, 0
9, 52170, Note_on_c, 7, 77, 100
9, 52200, Note_on_c, 7, 77, 0
9, 52200, Note_on_c, 7, 76, 100
9, 52320, Note_on_c, 7, 76, 0
9, 52320, Note_on_c, 7, 79, 100
9, 52440, Note_on_c, 7, 79, 0
9, 52440, Note_on_c, 7, 84, 100
9, 52560, Note_on_c, 7, 84, 0
9, 52560, Note_on_c, 7, 83, 100
9, 52590, Note_on_c, 7, 83, 0
9, 52590, Note_on_c, 7, 84, 100
9, 52620, Note_on_c, 7, 84, 0
9, 52620, Note_on_c, 7, 83, 100
9, 52650, Note_on_c, 7, 83, 0
9, 52650, Note_on_c, 7, 84, 100
9, 52680, Note_on_c, 7, 84, 0
9, 52680, Note_on_c, 7, 83, 100
9, 52710, Note_on_c, 7, 83, 0
9, 52710, Note_on_c, 7, 84, 100
9, 52740, Note_on_c, 7, 84, 0
9, 52740, Note_on_c, 7, 83, 100
9, 52770, Note_on_c, 7, 83, 0
9, 52770, Note_on_c, 7, 84, 100
9, 52800, Note_on_c, 7, 84, 0
9, 52800, Note_on_c, 7, 83, 100
9, 52830, Note_on_c, 7, 83, 0
9, 52830, Note_on_c, 7, 84, 100
9, 52860, Note_on_c, 7, 84, 0
9, 52860, Note_on_c, 7, 81, 100
9, 52890, Note_on_c, 7, 81, 0
9, 52890, Note_on_c, 7, 83, 100
9, 52920, Note_on_c, 7, 83, 0
9, 52920, Note_on_c, 7, 84, 100
9, 53040, Note_on_c, 7, 84, 0
9, 53040, Note_on_c, 7, 79, 100
9, 53160, Note_on_c, 7, 79, 0
9, 53160, Note_on_c, 7, 76, 100
9, 53280, Note_on_c, 7, 76, 0
9, 53280, Note_on_c, 7, 83, 100
9, 53310, Note_on_c, 7, 83, 0
9, 53310, Note_on_c, 7, 84, 100
9, 53340, Note_on_c, 7, 84, 0
9, 53340, Note_on_c, 7, 83, 100
9, 53370, Note_on_c, 7, 83, 0
9, 53370, Note_on_c, 7, 84, 100
9, 53400, Note_on_c, 7, 84, 0
9, 53400, Note_on_c, 7, 83, 100
9, 53430, Note_on_c, 7, 83, 0
9, 53430, Note_on_c, 7, 84, 100
9, 53460, Note_on_c, 7, 84, 0
9, 53460, Note_on_c, 7, 83, 100
9, 53490, Note_on_c, 7, 83, 0
9, 53490, Note_on_c, 7, 84, 100
9, 53520, Note_on_c, 7, 84, 0
9, 53520, Note_on_c, 7, 83, 100
9, 53550, Note_on_c, 7, 83, 0
9, 53550, Note_on_c, 7, 84, 100
9, 53580, Note_on_c, 7, 84, 0
9, 53580, Note_on_c, 7, 81, 100
9, 53610, Note_on_c, 7, 81, 0
9, 53610, Note_on_c, 7, 83, 100
9, 53640, Note_on_c, 7, 83, 0
9, 53640, Note_on_c, 7, 84, 100
9, 53760, Note_on_c, 7, 84, 0
9, 53760, Note_on_c, 7, 79, 100
9, 53880, Note_on_c, 7, 79, 0
9, 53880, Note_on_c, 7, 76, 100
9, 54000, Note_on_c, 7, 76, 0
9, 54000, Note_on_c, 7, 76, 100
9, 54030, Note_on_c, 7, 76, 0
9, 54030, Note_on_c, 7, 77, 100
9, 54060, Note_on_c, 7, 77, 0
9, 54060, Note_on_c, 7, 76, 100
9, 54090, Note_on_c, 7, 76, 0
9, 54090, Note_on_c, 7, 77, 100
9, 54120, Note_on_c, 7, 77, 0
9, 54120, Note_on_c, 7, 76, 100
9, 54150, Note_on_c, 7, 76, 0
9, 54150, Note_on_c, 7, 77, 100
9, 54180, Note_on_c, 7, 77, 0
9, 54180, Note_on_c, 7, 76, 100
9, 54210, Note_on_c, 7, 76, 0
9, 54210, Note_on_c, 7, 77, 100
9, 54240, Note_on_c, 7, 77, 0
9, 54240, Note_on_c, 7, 76, 100
9, 54270, Note_on_c, 7, 76, 0
9, 54270, Note_on_c, 7, 77, 100
9, 54300, Note_on_c, 7, 77, 0
9, 54300, Note_on_c, 7, 74, 100
9, 54330, Note_on_c, 7, 74, 0
9, 54330, Note_on_c, 7, 76, 100
9, 54360, Note_on_c, 7, 76, 0
9, 54360, Note_on_c, 7, 77, 100
9, 54480, Note_on_c, 7, 77, 0
9, 54480, Note_on_c, 7, 72, 100
9, 54600, Note_on_c, 7, 72, 0
9, 54600, Note_on_c, 7, 69, 100
9, 54720, Note_on_c, 7, 69, 0
9, 54720, Note_on_c, 7, 70, 100
9, 54750, Note_on_c, 7, 70, 0
9, 54750, Note_on_c, 7, 72, 100
9, 54780, Note_on_c, 7, 72, 0
9, 54780, Note_on_c, 7, 70, 100
9, 54810, Note_on_c, 7, 70, 0
9, 54810, Note_on_c, 7, 72, 100
9, 54840, Note_on_c, 7, 72, 0
9, 54840, Note_on_c, 7, 70, 100
9, 54870, Note_on_c, 7, 70, 0
9, 54870, Note_on_c, 7, 72, 100
9, 54900, Note_on_c, 7, 72, 0
9, 54900, Note_on_c, 7, 70, 100
9, 54930, Note_on_c, 7, 70, 0
9, 54930, Note_on_c, 7, 72, 100
9, 54960, Note_on_c, 7, 72, 0
9, 54960, Note_on_c, 7, 70, 100
9, 54990, Note_on_c, 7, 70, 0
9, 54990, Note_on_c, 7, 72, 100
9, 55020, Note_on_c, 7, 72, 0
9, 55020, Note_on_c, 7, 69, 100
9, 55050, Note_on_c, 7, 69, 0
9, 55050, Note_on_c, 7, 70, 100
9, 55080, Note_on_c, 7, 70, 0
9, 55080, Note_on_c, 7, 69, 100
9, 55200, Note_on_c, 7, 69, 0
9, 55200, Note_on_c, 7, 72, 100
9, 55320, Note_on_c, 7, 72, 0
9, 55320, Note_on_c, 7, 77, 100
9, 55440, Note_on_c, 7, 77, 0
9, 55440, Note_on_c, 7, 76, 100
9, 55470, Note_on_c, 7, 76, 0
9, 55470, Note_on_c, 7, 77, 100
9, 55500, Note_on_c, 7, 77, 0
9, 55500, Note_on_c, 7, 76, 100
9, 55530, Note_on_c, 7, 76, 0
9, 55530, Note_on_c, 7, 77, 100
9, 55560, Note_on_c, 7, 77, 0
9, 55560, Note_on_c, 7, 76, 100
9, 55590, Note_on_c, 7, 76, 0
9, 55590, Note_on_c, 7, 77, 100
9, 55620, Note_on_c, 7, 77, 0
9, 55620, Note_on_c, 7, 76, 100
9, 55650, Note_on_c, 7, 76, 0
9, 55650, Note_on_c, 7, 77, 100
9, 55680, Note_on_c, 7, 77, 0
9, 55680, Note_on_c, 7, 76, 100
9, 55710, Note_on_c, 7, 76, 0
9, 55710, Note_on_c, 7, 77, 100
9, 55740, Note_on_c, 7, 77, 0
9, 55740, Note_on_c, 7, 74, 100
9, 55770, Note_on_c, 7, 74, 0
9, 55770, Note_on_c, 7, 76, 100
9, 55800, Note_on_c, 7, 76, 0
9, 55800, Note_on_c, 7, 77, 100
9, 55920, Note_on_c, 7, 77, 0
9, 55920, Note_on_c, 7, 72, 100
9, 56040, Note_on_c, 7, 72, 0
9, 56040, Note_on_c, 7, 69, 100
9, 56160, Note_on_c, 7, 69, 0
9, 56160, Note_on_c, 7, 76, 100
9, 56190, Note_on_c, 7, 76, 0
9, 56190, Note_on_c, 7, 77, 100
9, 56220, Note_on_c, 7, 77, 0
9, 56220, Note_on_c, 7, 76, 100
9, 56250, Note_on_c, 7, 76, 0
9, 56250, Note_on_c, 7, 77, 100
9, 56280, Note_on_c, 7, 77, 0
9, 56280, Note_on_c, 7, 76, 100
9, 56310, Note_on_c, 7, 76, 0
9, 56310, Note_on_c, 7, 77, 100
9, 56340, Note_on_c, 7, 77, 0
9, 56340, Note_on_c, 7, 76, 100
9, 56370, Note_on_c, 7, 76, 0
9, 56370, Note_on_c, 7, 77, 100
9, 56400, Note_on_c, 7, 77, 0
9, 56400, Note_on_c, 7, 76, 100
9, 56430, Note_on_c, 7, 76, 0
9, 56430, Note_on_c, 7, 77, 100
9, 56460, Note_on_c, 7, 77, 0
9, 56460, Note_on_c, 7, 74, 100
9, 56490, Note_on_c, 7, 74, 0
9, 56490, Note_on_c, 7, 76, 100
9, 56520, Note_on_c, 7, 76, 0
9, 56520, Note_on_c, 7, 77, 100
9, 56640, Note_on_c, 7, 77, 0
9, 56640, Note_on_c, 7, 72, 100
9, 56760, Note_on_c, 7, 72, 0
9, 56760, Note_on_c, 7, 69, 100
9, 56880, Note_on_c, 7, 69, 0
9, 56880, Note_on_c, 7, 76, 100
9, 56910, Note_on_c, 7, 76, 0
9, 56910, Note_on_c, 7, 77, 100
9, 56940, Note_on_c, 7, 77, 0
9, 56940, Note_on_c, 7, 76, 100
9, 56970, Note_on_c, 7, 76, 0
9, 56970, Note_on_c, 7, 77, 100
9, 57000, Note_on_c, 7, 77, 0
9, 57000, Note_on_c, 7, 76, 100
9, 57030, Note_on_c, 7, 76, 0
9, 57030, Note_on_c, 7, 77, 100
9, 57060, Note_on_c, 7, 77, 0
9, 57060, Note_on_c, 7, 76, 100
9, 57090, Note_on_c, 7, 76, 0
9, 57090, Note_on_c, 7, 77, 100
9, 57120, Note_on_c, 7, 77, 0
9, 57120, Note_on_c, 7, 76, 100
9, 57150, Note_on_c, 7, 76, 0
9, 57150, Note_on_c, 7, 77, 100
9, 57180, Note_on_c, 7, 77, 0
9, 57180, Note_on_c, 7, 74, 100
9, 57210, Note_on_c, 7, 74, 0
9, 57210, Note_on_c, 7, 76, 100
9, 57240, Note_on_c, 7, 76, 0
9, 57240, Note_on_c, 7, 77, 100
9, 57360, Note_on_c, 7, 77, 0
9, 57360, Note_on_c, 7, 72, 100
9, 57480, Note_on_c, 7, 72, 0
9, 57480, Note_on_c, 7, 69, 100
9, 57600, Note_on_c, 7, 69, 0
9, 57600, Note_on_c, 7, 65, 100
9, 57720, Note_on_c, 7, 65, 0
9, 57720, Note_on_c, 7, 60, 100
9, 57840, Note_on_c, 7, 60, 0
9, 57840, Note_on_c, 7, 57, 100
9, 57960, Note_on_c, 7, 57, 0
9, 57960, Note_on_c, 7, 57, 100
9, 57960, Note_on_c, 7, 65, 100
9, 58080, Note_on_c, 7, 65, 0
9, 58080, Note_on_c, 7, 57, 0
9, 59280, Note_on_c, 7, 77, 100
9, 59400, Note_on_c, 7, 77, 0
9, 59400, Note_on_c, 7, 77, 100
9, 59430, Note_on_c, 7, 77, 0
9, 59430, Note_on_c, 7, 81, 100
9, 59520, Note_on_c, 7, 81, 0
9, 59520, Note_on_c, 7, 77, 100
9, 59580, Note_on_c, 7, 77, 0
9, 59640, Note_on_c, 7, 77, 100
9, 59760, Note_on_c, 7, 77, 0
9, 59760, Note_on_c, 7, 77, 100
9, 59790, Note_on_c, 7, 77, 0
9, 59790, Note_on_c, 7, 81, 100
9, 59880, Note_on_c, 7, 81, 0
9, 59880, Note_on_c, 7, 77, 100
9, 59940, Note_on_c, 7, 77, 0
9, 60000, Note_on_c, 7, 77, 100
9, 60120, Note_on_c, 7, 77, 0
9, 60120, Note_on_c, 7, 77, 100
9, 60150, Note_on_c, 7, 77, 0
9, 60150, Note_on_c, 7, 81, 100
9, 60240, Note_on_c, 7, 81, 0
9, 60240, Note_on_c, 7, 77, 100
9, 60360, Note_on_c, 7, 77, 0
9, 60360, Note_on_c, 7, 77, 100
9, 60480, Note_on_c, 7, 77, 0
9, 60480, Note_on_c, 7, 77, 100
9, 60510, Note_on_c, 7, 77, 0
9, 60510, Note_on_c, 7, 81, 100
9, 60600, Note_on_c, 7, 81, 0
9, 60600, Note_on_c, 7, 77, 100
9, 60720, Note_on_c, 7, 77, 0
9, 60720, Note_on_c, 7, 77, 100
9, 60840, Note_on_c, 7, 77, 0
9, 60840, Note_on_c, 7, 77, 100
9, 60870, Note_on_c, 7, 77, 0
9, 60870, Note_on_c, 7, 81, 100
9, 60960, Note_on_c, 7, 81, 0
9, 60960, Note_on_c, 7, 77, 100
9, 61080, Note_on_c, 7, 77, 0
9, 61080, Note_on_c, 7, 77, 100
9, 61200, Note_on_c, 7, 77, 0
9, 61200, Note_on_c, 7, 69, 100
9, 61200, Note_on_c, 7, 81, 100
9, 62520, Note_on_c, 7, 81, 0
9, 62520, Note_on_c, 7, 69, 0
9, 63600, Note_on_c, 7, 81, 100
9, 63720, Note_on_c, 7, 81, 0
9, 63720, Note_on_c, 7, 81, 100
9, 63750, Note_on_c, 7, 81, 0
9, 63750, Note_on_c, 7, 85, 100
9, 63840, Note_on_c, 7, 85, 0
9, 63840, Note_on_c, 7, 81, 100
9, 63900, Note_on_c, 7, 81, 0
9, 66960, Note_on_c, 7, 79, 100
9, 67200, Note_on_c, 7, 79, 0
9, 67200, Note_on_c, 7, 78, 100
9, 67320, Note_on_c, 7, 78, 0
9, 67320, Note_on_c, 7, 79, 100
9, 67560, Note_on_c, 7, 79, 0
9, 67560, Note_on_c, 7, 78, 100
9, 67680, Note_on_c, 7, 78, 0
9, 67680, Note_on_c, 7, 79, 100
9, 67920, Note_on_c, 7, 79, 0
9, 67920, Note_on_c, 7, 78, 100
9, 68040, Note_on_c, 7, 78, 0
9, 68040, Note_on_c, 7, 79, 100
9, 68280, Note_on_c, 7, 79, 0
9, 68280, Note_on_c, 7, 78, 100
9, 68400, Note_on_c, 7, 78, 0
9, 69360, Note_on_c, 7, 83, 100
9, 69480, Note_on_c, 7, 83, 0
9, 69480, Note_on_c, 7, 86, 100
9, 69600, Note_on_c, 7, 86, 0
9, 69600, Note_on_c, 7, 83, 100
9, 69660, Note_on_c, 7, 83, 0
9, 72720, Note_on_c, 7, 82, 100
9, 72960, Note_on_c, 7, 82, 0
9, 72960, Note_on_c, 7, 81, 100
9, 73080, Note_on_c, 7, 81, 0
9, 73080, Note_on_c, 7, 82, 100
9, 73320, Note_on_c, 7, 82, 0
9, 73320, Note_on_c, 7, 81, 100
9, 73440, Note_on_c, 7, 81, 0
9, 73440, Note_on_c, 7, 82, 100
9, 73680, Note_on_c, 7, 82, 0
9, 73680, Note_on_c, 7, 81, 100
9, 73800, Note_on_c, 7, 81, 0
9, 73800, Note_on_c, 7, 82, 100
9, 74040, Note_on_c, 7, 82, 0
9, 74040, Note_on_c, 7, 81, 100
9, 74160, Note_on_c, 7, 81, 0
9, 75120, Note_on_c, 7, 81, 100
9, 75240, Note_on_c, 7, 81, 0
9, 75240, Note_on_c, 7, 84, 100
9, 75360, Note_on_c, 7, 84, 0
9, 75360, Note_on_c, 7, 81, 100
9, 75420, Note_on_c, 7, 81, 0
9, 75480, Note_on_c, 7, 74, 100
9, 75600, Note_on_c, 7, 74, 0
9, 75600, Note_on_c, 7, 75, 100
9, 75720, Note_on_c, 7, 75, 0
9, 75720, Note_on_c, 7, 75, 100
9, 75840, Note_on_c, 7, 75, 0
9, 75840, Note_on_c, 7, 74, 100
9, 75960, Note_on_c, 7, 74, 0
9, 75960, Note_on_c, 7, 79, 100
9, 76200, Note_on_c, 7, 79, 0
9, 76200, Note_on_c, 7, 77, 100
9, 76320, Note_on_c, 7, 77, 0
9, 76320, Note_on_c, 7, 75, 100
9, 76440, Note_on_c, 7, 75, 0
9, 76440, Note_on_c, 7, 75, 100
9, 76560, Note_on_c, 7, 75, 0
9, 76560, Note_on_c, 7, 74, 100
9, 76680, Note_on_c, 7, 74, 0
9, 76680, Note_on_c, 7, 79, 100
9, 76920, Note_on_c, 7, 79, 0
9, 76920, Note_on_c, 7, 77, 100
9, 77040, Note_on_c, 7, 77, 0
9, 77040, Note_on_c, 7, 77, 100
9, 77160, Note_on_c, 7, 77, 0
9, 77400, Program_c, 7, 45
9, 77400, Note_on_c, 7, 62, 100
9, 77400, Note_on_c, 7, 70, 100
9, 77520, Note_on_c, 7, 70, 0
9, 77520, Note_on_c, 7, 62, 0
9, 77760, Note_on_c, 7, 62, 100
9, 77760, Note_on_c, 7, 70, 100
9, 77880, Note_on_c, 7, 70, 0
9, 77880, Note_on_c, 7, 62, 0
9, 78120, Note_on_c, 7, 62, 100
9, 78120, Note_on_c, 7, 70, 100
9, 78240, Note_on_c, 7, 70, 0
9, 78240, Note_on_c, 7, 62, 0
9, 78480, Note_on_c, 7, 65, 100
9, 78480, Note_on_c, 7, 72, 100
9, 78600, Note_on_c, 7, 72, 0
9, 78600, Note_on_c, 7, 65, 0
9, 78840, Note_on_c, 7, 65, 100
9, 78840, Note_on_c, 7, 72, 100
9, 78960, Note_on_c, 7, 72, 0
9, 78960, Note_on_c, 7, 65, 0
9, 79200, Note_on_c, 7, 65, 100
9, 79200, Note_on_c, 7, 72, 100
9, 79320, Note_on_c, 7, 72, 0
9, 79320, Note_on_c, 7, 65, 0
9, 79560, Note_on_c, 7, 65, 100
9, 79560, Note_on_c, 7, 72, 100
9, 79680, Note_on_c, 7, 72, 0
9, 79680, Note_on_c, 7, 65, 0
9, 79920, Note_on_c, 7, 65, 100
9, 79920, Note_on_c, 7, 72, 100
9, 80040, Note_on_c, 7, 72, 0
9, 80040, Note_on_c, 7, 65, 0
9, 80280, Program_c, 7, 48
9, 80280, Note_on_c, 7, 65, 100
9, 80400, Note_on_c, 7, 65, 0
9, 80400, Note_on_c, 7, 70, 100
9, 80520, Note_on_c, 7, 70, 0
9, 80520, Note_on_c, 7, 70, 100
9, 80640, Note_on_c, 7, 70, 0
9, 80640, Note_on_c, 7, 65, 100
9, 80760, Note_on_c, 7, 65, 0
9, 80760, Note_on_c, 7, 70, 100
9, 80880, Note_on_c, 7, 70, 0
9, 80880, Note_on_c, 7, 70, 100
9, 81000, Note_on_c, 7, 70, 0
9, 81000, Note_on_c, 7, 65, 100
9, 81120, Note_on_c, 7, 65, 0
9, 81120, Note_on_c, 7, 70, 100
9, 81240, Note_on_c, 7, 70, 0
9, 81240, Note_on_c, 7, 70, 100
9, 81360, Note_on_c, 7, 70, 0
9, 81360, Note_on_c, 7, 72, 100
9, 81480, Note_on_c, 7, 72, 0
9, 81480, Note_on_c, 7, 72, 100
9, 81600, Note_on_c, 7, 72, 0
9, 81600, Note_on_c, 7, 72, 100
9, 81720, Note_on_c, 7, 72, 0
9, 81720, Note_on_c, 7, 69, 100
9, 81840, Note_on_c, 7, 69, 0
9, 81840, Note_on_c, 7, 69, 100
9, 81960, Note_on_c, 7, 69, 0
9, 81960, Note_on_c, 7, 72, 100
9, 82080, Note_on_c, 7, 72, 0
9, 82080, Note_on_c, 7, 69, 100
9, 82200, Note_on_c, 7, 69, 0
9, 82200, Note_on_c, 7, 69, 100
9, 82320, Note_on_c, 7, 69, 0
9, 82320, Note_on_c, 7, 72, 100
9, 82440, Note_on_c, 7, 72, 0
9, 82440, Note_on_c, 7, 69, 100
9, 82560, Note_on_c, 7, 69, 0
9, 82560, Note_on_c, 7, 69, 100
9, 82680, Note_on_c, 7, 69, 0
9, 82680, Note_on_c, 7, 72, 100
9, 82800, Note_on_c, 7, 72, 0
9, 82800, Note_on_c, 7, 70, 100
9, 82920, Note_on_c, 7, 70, 0
9, 82920, Note_on_c, 7, 70, 100
9, 83040, Note_on_c, 7, 70, 0
9, 83040, Note_on_c, 7, 74, 100
9, 83160, Note_on_c, 7, 74, 0
9, 84600, Note_on_c, 7, 67, 100
9, 84720, Note_on_c, 7, 67, 0
9, 84720, Note_on_c, 7, 67, 100
9, 84840, Note_on_c, 7, 67, 0
9, 84840, Note_on_c, 7, 69, 100
9, 84960, Note_on_c, 7, 69, 0
9, 84960, Note_on_c, 7, 70, 100
9, 85080, Note_on_c, 7, 70, 0
9, 85080, Note_on_c, 7, 70, 100
9, 85200, Note_on_c, 7, 70, 0
9, 85200, Note_on_c, 7, 72, 100
9, 85320, Note_on_c, 7, 72, 0
9, 85320, Note_on_c, 7, 74, 100
9, 85440, Note_on_c, 7, 74, 0
9, 85440, Note_on_c, 7, 76, 100
9, 85560, Note_on_c, 7, 76, 0
9, 85560, Note_on_c, 7, 77, 100
9, 85680, Note_on_c, 7, 77, 0
9, 85680, Note_on_c, 7, 77, 100
9, 85710, Note_on_c, 7, 77, 0
9, 85710, Note_on_c, 7, 81, 100
9, 85800, Note_on_c, 7, 81, 0
9, 85800, Note_on_c, 7, 77, 100
9, 85860, Note_on_c, 7, 77, 0
9, 85920, Note_on_c, 7, 81, 100
9, 86040, Note_on_c, 7, 81, 0
9, 86040, Note_on_c, 7, 81, 100
9, 86070, Note_on_c, 7, 81, 0
9, 86070, Note_on_c, 7, 84, 100
9, 86160, Note_on_c, 7, 84, 0
9, 86160, Note_on_c, 7, 81, 100
9, 86220, Note_on_c, 7, 81, 0
9, 86280, Note_on_c, 7, 84, 100
9, 86400, Note_on_c, 7, 84, 0
9, 86400, Note_on_c, 7, 89, 100
9, 86520, Note_on_c, 7, 89, 0
9, 86520, Note_on_c, 7, 89, 100
9, 86640, Note_on_c, 7, 89, 0
9, 86640, Note_on_c, 7, 88, 100
9, 86760, Note_on_c, 7, 88, 0
9, 86760, Note_on_c, 7, 86, 100
9, 86880, Note_on_c, 7, 86, 0
9, 86880, Note_on_c, 7, 86, 100
9, 87000, Note_on_c, 7, 86, 0
9, 87000, Note_on_c, 7, 84, 100
9, 87120, Note_on_c, 7, 84, 0
9, 87120, Note_on_c, 7, 82, 100
9, 87240, Note_on_c, 7, 82, 0
9, 87240, Note_on_c, 7, 82, 100
9, 87360, Note_on_c, 7, 82, 0
9, 87360, Note_on_c, 7, 81, 100
9, 87480, Note_on_c, 7, 81, 0
9, 87480, Note_on_c, 7, 79, 100
9, 87840, Note_on_c, 7, 79, 0
9, 87840, Note_on_c, 7, 91, 100
9, 87960, Note_on_c, 7, 91, 0
9, 87960, Note_on_c, 7, 91, 100
9, 88080, Note_on_c, 7, 91, 0
9, 88080, Note_on_c, 7, 89, 100
9, 88200, Note_on_c, 7, 89, 0
9, 88200, Note_on_c, 7, 88, 100
9, 88320, Note_on_c, 7, 88, 0
9, 88320, Note_on_c, 7, 88, 100
9, 88440, Note_on_c, 7, 88, 0
9, 88440, Note_on_c, 7, 86, 100
9, 88560, Note_on_c, 7, 86, 0
9, 88560, Note_on_c, 7, 84, 100
9, 88680, Note_on_c, 7, 84, 0
9, 88680, Note_on_c, 7, 84, 100
9, 88800, Note_on_c, 7, 84, 0
9, 88800, Note_on_c, 7, 82, 100
9, 88920, Note_on_c, 7, 82, 0
9, 88920, Note_on_c, 7, 81, 100
9, 89280, Note_on_c, 7, 81, 0
9, 89280, Note_on_c, 7, 77, 100
9, 90480, Note_on_c, 7, 77, 0
9, 90480, Note_on_c, 7, 79, 100
9, 90600, Note_on_c, 7, 79, 0
9, 90600, Note_on_c, 7, 79, 100
9, 90720, Note_on_c, 7, 79, 0
9, 90720, Note_on_c, 7, 79, 100
9, 91920, Note_on_c, 7, 79, 0
9, 91920, Note_on_c, 7, 81, 100
9, 92040, Note_on_c, 7, 81, 0
9, 92040, Note_on_c, 7, 81, 100
9, 92160, Note_on_c, 7, 81, 0
9, 92160, Note_on_c, 7, 67, 100
9, 92280, Note_on_c, 7, 67, 0
9, 92280, Note_on_c, 7, 67, 100
9, 92400, Note_on_c, 7, 67, 0
9, 92400, Note_on_c, 7, 65, 100
9, 92520, Note_on_c, 7, 65, 0
9, 92520, Note_on_c, 7, 70, 100
9, 92760, Note_on_c, 7, 70, 0
9, 92760, Note_on_c, 7, 69, 100
9, 92880, Note_on_c, 7, 69, 0
9, 93600, Note_on_c, 7, 67, 100
9, 93720, Note_on_c, 7, 67, 0
9, 93720, Note_on_c, 7, 67, 100
9, 93840, Note_on_c, 7, 67, 0
9, 93840, Note_on_c, 7, 65, 100
9, 93960, Note_on_c, 7, 65, 0
9, 93960, Note_on_c, 7, 70, 100
9, 94200, Note_on_c, 7, 70, 0
9, 94200, Note_on_c, 7, 69, 100
9, 94320, Note_on_c, 7, 69, 0
9, 94320, Note_on_c, 7, 74, 100
9, 94560, Note_on_c, 7, 74, 0
9, 94560, Note_on_c, 7, 72, 100
9, 94680, Note_on_c, 7, 72, 0
9, 94680, Note_on_c, 7, 77, 100
9, 94920, Note_on_c, 7, 77, 0
9, 94920, Note_on_c, 7, 76, 100
9, 95040, Note_on_c, 7, 76, 0
9, 95040, Note_on_c, 7, 81, 100
9, 95280, Note_on_c, 7, 81, 0
9, 95280, Note_on_c, 7, 79, 100
9, 95400, Note_on_c, 7, 79, 0
9, 95400, Note_on_c, 7, 83, 100
9, 95640, Note_on_c, 7, 83, 0
9, 95640, Note_on_c, 7, 84, 100
9, 95760, Note_on_c, 7, 84, 0
9, 95760, Note_on_c, 7, 83, 100
9, 95790, Note_on_c, 7, 83, 0
9, 95790, Note_on_c, 7, 84, 100
9, 95820, Note_on_c, 7, 84, 0
9, 95820, Note_on_c, 7, 83, 100
9, 95850, Note_on_c, 7, 83, 0
9, 95850, Note_on_c, 7, 84, 100
9, 95880, Note_on_c, 7, 84, 0
9, 95880, Note_on_c, 7, 83, 100
9, 95910, Note_on_c, 7, 83, 0
9, 95910, Note_on_c, 7, 84, 100
9, 95940, Note_on_c, 7, 84, 0
9, 95940, Note_on_c, 7, 83, 100
9, 95970, Note_on_c, 7, 83, 0
9, 95970, Note_on_c, 7, 84, 100
9, 96000, Note_on_c, 7, 84, 0
9, 96000, Note_on_c, 7, 83, 100
9, 96030, Note_on_c, 7, 83, 0
9, 96030, Note_on_c, 7, 84, 100
9, 96060, Note_on_c, 7, 84, 0
9, 96060, Note_on_c, 7, 81, 100
9, 96090, Note_on_c, 7, 81, 0
9, 96090, Note_on_c, 7, 83, 100
9, 96120, Note_on_c, 7, 83, 0
9, 96120, Note_on_c, 7, 84, 100
9, 96240, Note_on_c, 7, 84, 0
9, 96240, Note_on_c, 7, 79, 100
9, 96360, Note_on_c, 7, 79, 0
9, 96360, Note_on_c, 7, 76, 100
9, 96480, Note_on_c, 7, 76, 0
9, 96480, Note_on_c, 7, 77, 100
9, 96510, Note_on_c, 7, 77, 0
9, 96510, Note_on_c, 7, 79, 100
9, 96540, Note_on_c, 7, 79, 0
9, 96540, Note_on_c, 7, 77, 100
9, 96570, Note_on_c, 7, 77, 0
9, 96570, Note_on_c, 7, 79, 100
9, 96600, Note_on_c, 7, 79, 0
9, 96600, Note_on_c, 7, 77, 100
9, 96630, Note_on_c, 7, 77, 0
9, 96630, Note_on_c, 7, 79, 100
9, 96660, Note_on_c, 7, 79, 0
9, 96660, Note_on_c, 7, 77, 100
9, 96690, Note_on_c, 7, 77, 0
9, 96690, Note_on_c, 7, 79, 100
9, 96720, Note_on_c, 7, 79, 0
9, 96720, Note_on_c, 7, 77, 100
9, 96750, Note_on_c, 7, 77, 0
9, 96750, Note_on_c, 7, 79, 100
9, 96780, Note_on_c, 7, 79, 0
9, 96780, Note_on_c, 7, 76, 100
9, 96810, Note_on_c, 7, 76, 0
9, 96810, Note_on_c, 7, 77, 100
9, 96840, Note_on_c, 7, 77, 0
9, 96840, Note_on_c, 7, 76, 100
9, 96960, Note_on_c, 7, 76, 0
9, 96960, Note_on_c, 7, 79, 100
9, 97080, Note_on_c, 7, 79, 0
9, 97080, Note_on_c, 7, 84, 100
9, 97200, Note_on_c, 7, 84, 0
9, 97200, Note_on_c, 7, 83, 100
9, 97230, Note_on_c, 7, 83, 0
9, 97230, Note_on_c, 7, 84, 100
9, 97260, Note_on_c, 7, 84, 0
9, 97260, Note_on_c, 7, 83, 100
9, 97290, Note_on_c, 7, 83, 0
9, 97290, Note_on_c, 7, 84, 100
9, 97320, Note_on_c, 7, 84, 0
9, 97320, Note_on_c, 7, 83, 100
9, 97350, Note_on_c, 7, 83, 0
9, 97350, Note_on_c, 7, 84, 100
9, 97380, Note_on_c, 7, 84, 0
9, 97380, Note_on_c, 7, 83, 100
9, 97410, Note_on_c, 7, 83, 0
9, 97410, Note_on_c, 7, 84, 100
9, 97440, Note_on_c, 7, 84, 0
9, 97440, Note_on_c, 7, 83, 100
9, 97470, Note_on_c, 7, 83, 0
9, 97470, Note_on_c, 7, 84, 100
9, 97500, Note_on_c, 7, 84, 0
9, 97500, Note_on_c, 7, 81, 100
9, 97530, Note_on_c, 7, 81, 0
9, 97530, Note_on_c, 7, 83, 100
9, 97560, Note_on_c, 7, 83, 0
9, 97560, Note_on_c, 7, 84, 100
9, 97680, Note_on_c, 7, 84, 0
9, 97680, Note_on_c, 7, 79, 100
9, 97800, Note_on_c, 7, 79, 0
9, 97800, Note_on_c, 7, 76, 100
9, 97920, Note_on_c, 7, 76, 0
9, 97920, Note_on_c, 7, 83, 100
9, 97950, Note_on_c, 7, 83, 0
9, 97950, Note_on_c, 7, 84, 100
9, 97980, Note_on_c, 7, 84, 0
9, 97980, Note_on_c, 7, 83, 100
9, 98010, Note_on_c, 7, 83, 0
9, 98010, Note_on_c, 7, 84, 100
9, 98040, Note_on_c, 7, 84, 0
9, 98040, Note_on_c, 7, 83, 100
9, 98070, Note_on_c, 7, 83, 0
9, 98070, Note_on_c, 7, 84, 100
9, 98100, Note_on_c, 7, 84, 0
9, 98100, Note_on_c, 7, 83, 100
9, 98130, Note_on_c, 7, 83, 0
9, 98130, Note_on_c, 7, 84, 100
9, 98160, Note_on_c, 7, 84, 0
9, 98160, Note_on_c, 7, 83, 100
9, 98190, Note_on_c, 7, 83, 0
9, 98190, Note_on_c, 7, 84, 100
9, 98220, Note_on_c, 7, 84, 0
9, 98220, Note_on_c, 7, 81, 100
9, 98250, Note_on_c, 7, 81, 0
9, 98250, Note_on_c, 7, 83, 100
9, 98280, Note_on_c, 7, 83, 0
9, 98280, Note_on_c, 7, 84, 100
9, 98400, Note_on_c, 7, 84, 0
9, 98400, Note_on_c, 7, 79, 100
9, 98520, Note_on_c, 7, 79, 0
9, 98520, Note_on_c, 7, 76, 100
9, 98640, Note_on_c, 7, 76, 0
9, 98640, Note_on_c, 7, 76, 100
9, 98670, Note_on_c, 7, 76, 0
9, 98670, Note_on_c, 7, 77, 100
9, 98700, Note_on_c, 7, 77, 0
9, 98700, Note_on_c, 7, 76, 100
9, 98730, Note_on_c, 7, 76, 0
9, 98730, Note_on_c, 7, 77, 100
9, 98760, Note_on_c, 7, 77, 0
9, 98760, Note_on_c, 7, 76, 100
9, 98790, Note_on_c, 7, 76, 0
9, 98790, Note_on_c, 7, 77, 100
9, 98820, Note_on_c, 7, 77, 0
9, 98820, Note_on_c, 7, 76, 100
9, 98850, Note_on_c, 7, 76, 0
9, 98850, Note_on_c, 7, 77, 100
9, 98880, Note_on_c, 7, 77, 0
9, 98880, Note_on_c, 7, 76, 100
9, 98910, Note_on_c, 7, 76, 0
9, 98910, Note_on_c, 7, 77, 100
9, 98940, Note_on_c, 7, 77, 0
9, 98940, Note_on_c, 7, 74, 100
9, 98970, Note_on_c, 7, 74, 0
9, 98970, Note_on_c, 7, 76, 100
9, 99000, Note_on_c, 7, 76, 0
9, 99000, Note_on_c, 7, 77, 100
9, 99120, Note_on_c, 7, 77, 0
9, 99120, Note_on_c, 7, 72, 100
9, 99240, Note_on_c, 7, 72, 0
9, 99240, Note_on_c, 7, 69, 100
9, 99360, Note_on_c, 7, 69, 0
9, 99360, Note_on_c, 7, 70, 100
9, 99390, Note_on_c, 7, 70, 0
9, 99390, Note_on_c, 7, 72, 100
9, 99420, Note_on_c, 7, 72, 0
9, 99420, Note_on_c, 7, 70, 100
9, 99450, Note_on_c, 7, 70, 0
9, 99450, Note_on_c, 7, 72, 100
9, 99480, Note_on_c, 7, 72, 0
9, 99480, Note_on_c, 7, 70, 100
9, 99510, Note_on_c, 7, 70, 0
9, 99510, Note_on_c, 7, 72, 100
9, 99540, Note_on_c, 7, 72, 0
9, 99540, Note_on_c, 7, 70, 100
9, 99570, Note_on_c, 7, 70, 0
9, 99570, Note_on_c, 7, 72, 100
9, 99600, Note_on_c, 7, 72, 0
9, 99600, Note_on_c, 7, 70, 100
9, 99630, Note_on_c, 7, 70, 0
9, 99630, Note_on_c, 7, 72, 100
9, 99660, Note_on_c, 7, 72, 0
9, 99660, Note_on_c, 7, 69, 100
9, 99690, Note_on_c, 7, 69, 0
9, 99690, Note_on_c, 7, 70, 100
9, 99720, Note_on_c, 7, 70, 0
9, 99720, Note_on_c, 7, 69, 100
9, 99840, Note_on_c, 7, 69, 0
9, 99840, Note_on_c, 7, 72, 100
9, 99960, Note_on_c, 7, 72, 0
9, 99960, Note_on_c, 7, 77, 100
9, 100080, Note_on_c, 7, 77, 0
9, 100080, Note_on_c, 7, 76, 100
9, 100110, Note_on_c, 7, 76, 0
9, 100110, Note_on_c, 7, 77, 100
9, 100140, Note_on_c, 7, 77, 0
9, 100140, Note_on_c, 7, 76, 100
9, 100170, Note_on_c, 7, 76, 0
9, 100170, Note_on_c, 7, 77, 100
9, 100200, Note_on_c, 7, 77, 0
9, 100200, Note_on_c, 7, 76, 100
9, 100230, Note_on_c, 7, 76, 0
9, 100230, Note_on_c, 7, 77, 100
9, 100260, Note_on_c, 7, 77, 0
9, 100260, Note_on_c, 7, 76, 100
9, 100290, Note_on_c, 7, 76, 0
9, 100290, Note_on_c, 7, 77, 100
9, 100320, Note_on_c, 7, 77, 0
9, 100320, Note_on_c, 7, 76, 100
9, 100350, Note_on_c, 7, 76, 0
9, 100350, Note_on_c, 7, 77, 100
9, 100380, Note_on_c, 7, 77, 0
9, 100380, Note_on_c, 7, 74, 100
9, 100410, Note_on_c, 7, 74, 0
9, 100410, Note_on_c, 7, 76, 100
9, 100440, Note_on_c, 7, 76, 0
9, 100440, Note_on_c, 7, 77, 100
9, 100560, Note_on_c, 7, 77, 0
9, 100560, Note_on_c, 7, 72, 100
9, 100680, Note_on_c, 7, 72, 0
9, 100680, Note_on_c, 7, 69, 100
9, 100800, Note_on_c, 7, 69, 0
9, 100800, Note_on_c, 7, 76, 100
9, 100830, Note_on_c, 7, 76, 0
9, 100830, Note_on_c, 7, 77, 100
9, 100860, Note_on_c, 7, 77, 0
9, 100860, Note_on_c, 7, 76, 100
9, 100890, Note_on_c, 7, 76, 0
9, 100890, Note_on_c, 7, 77, 100
9, 100920, Note_on_c, 7, 77, 0
9, 100920, Note_on_c, 7, 76, 100
9, 100950, Note_on_c, 7, 76, 0
9, 100950, Note_on_c, 7, 77, 100
9, 100980, Note_on_c, 7, 77, 0
9, 100980, Note_on_c, 7, 76, 100
9, 101010, Note_on_c, 7, 76, 0
9, 101010, Note_on_c, 7, 77, 100
9, 101040, Note_on_c, 7, 77, 0
9, 101040, Note_on_c, 7, 76, 100
9, 101070, Note_on_c, 7, 76, 0
9, 101070, Note_on_c, 7, 77, 100
9, 101100, Note_on_c, 7, 77, 0
9, 101100, Note_on_c, 7, 74, 100
9, 101130, Note_on_c, 7, 74, 0
9, 101130, Note_on_c, 7, 76, 100
9, 101160, Note_on_c, 7, 76, 0
9, 101160, Note_on_c, 7, 77, 100
9, 101280, Note_on_c, 7, 77, 0
9, 101280, Note_on_c, 7, 72, 100
9, 101400, Note_on_c, 7, 72, 0
9, 101400, Note_on_c, 7, 69, 100
9, 101520, Note_on_c, 7, 69, 0
9, 101520, Note_on_c, 7, 76, 100
9, 101550, Note_on_c, 7, 76, 0
9, 101550, Note_on_c, 7, 77, 100
9, 101580, Note_on_c, 7, 77, 0
9, 101580, Note_on_c, 7, 76, 100
9, 101610, Note_on_c, 7, 76, 0
9, 101610, Note_on_c, 7, 77, 100
9, 101640, Note_on_c, 7, 77, 0
9, 101640, Note_on_c, 7, 76, 100
9, 101670, Note_on_c, 7, 76, 0
9, 101670, Note_on_c, 7, 77, 100
9, 101700, Note_on_c, 7, 77, 0
9, 101700, Note_on_c, 7, 76, 100
9, 101730, Note_on_c, 7, 76, 0
9, 101730, Note_on_c, 7, 77, 100
9, 101760, Note_on_c, 7, 77, 0
9, 101760, Note_on_c, 7, 76, 100
9, 101790, Note_on_c, 7, 76, 0
9, 101790, Note_on_c, 7, 77, 100
9, 101820, Note_on_c, 7, 77, 0
9, 101820, Note_on_c, 7, 74, 100
9, 101850, Note_on_c, 7, 74, 0
9, 101850, Note_on_c, 7, 76, 100
9, 101880, Note_on_c, 7, 76, 0
9, 101880, Note_on_c, 7, 77, 100
9, 102000, Note_on_c, 7, 77, 0
9, 102000, Note_on_c, 7, 72, 100
9, 102120, Note_on_c, 7, 72, 0
9, 102120, Note_on_c, 7, 69, 100
9, 102240, Note_on_c, 7, 69, 0
9, 102240, Note_on_c, 7, 65, 100
9, 102360, Note_on_c, 7, 65, 0
9, 102360, Note_on_c, 7, 60, 100
9, 102480, Note_on_c, 7, 60, 0
9, 102480, Note_on_c, 7, 57, 100
9, 102600, Note_on_c, 7, 57, 0
9, 102600, Note_on_c, 7, 57, 100
9, 102600, Note_on_c, 7, 65, 100
9, 102720, Note_on_c, 7, 65, 0
9, 102720, Note_on_c, 7, 57, 0
9, 103920, Note_on_c, 7, 77, 100
9, 104040, Note_on_c, 7, 77, 0
9, 104040, Note_on_c, 7, 77, 100
9, 104070, Note_on_c, 7, 77, 0
9, 104070, Note_on_c, 7, 81, 100
9, 104160, Note_on_c, 7, 81, 0
9, 104160, Note_on_c, 7, 77, 100
9, 104220, Note_on_c, 7, 77, 0
9, 104280, Note_on_c, 7, 77, 100
9, 104400, Note_on_c, 7, 77, 0
9, 104400, Note_on_c, 7, 77, 100
9, 104430, Note_on_c, 7, 77, 0
9, 104430, Note_on_c, 7, 81, 100
9, 104520, Note_on_c, 7, 81, 0
9, 104520, Note_on_c, 7, 77, 100
9, 104580, Note_on_c, 7, 77, 0
9, 104640, Note_on_c, 7, 77, 100
9, 104760, Note_on_c, 7, 77, 0
9, 104760, Note_on_c, 7, 77, 100
9, 104790, Note_on_c, 7, 77, 0
9, 104790, Note_on_c, 7, 81, 100
9, 104880, Note_on_c, 7, 81, 0
9, 104880, Note_on_c, 7, 77, 100
9, 105000, Note_on_c, 7, 77, 0
9, 105000, Note_on_c, 7, 77, 100
9, 105120, Note_on_c, 7, 77, 0
9, 105120, Note_on_c, 7, 77, 100
9, 105150, Note_on_c, 7, 77, 0
9, 105150, Note_on_c, 7, 81, 100
9, 105240, Note_on_c, 7, 81, 0
9, 105240, Note_on_c, 7, 77, 100
9, 105360, Note_on_c, 7, 77, 0
9, 105360, Note_on_c, 7, 77, 100
9, 105480, Note_on_c, 7, 77, 0
9, 105480, Note_on_c, 7, 77, 100
9, 105510, Note_on_c, 7, 77, 0
9, 105510, Note_on_c, 7, 81, 100
9, 105600, Note_on_c, 7, 81, 0
9, 105600, Note_on_c, 7, 77, 100
9, 105720, Note_on_c, 7, 77, 0
9, 105720, Note_on_c, 7, 77, 100
9, 105840, Note_on_c, 7, 77, 0
9, 105840, Note_on_c, 7, 81, 100
9, 105840, Note_on_c, 7, 69, 100
9, 107280, Note_on_c, 7, 69, 0
9, 109740, Note_on_c, 7, 81, 0
9, 109740, Note_on_c, 7, 80, 100
9, 109800, Note_on_c, 7, 80, 0
9, 109800, Note_on_c, 7, 81, 100
9, 110100, Note_on_c, 7, 81, 0
9, 110100, Note_on_c, 7, 80, 100
9, 110160, Note_on_c, 7, 80, 0
9, 110160, Note_on_c, 7, 81, 100
9, 112560, Note_on_c, 7, 81, 0
9, 112560, Note_on_c, 7, 78, 100
9, 112680, Note_on_c, 7, 78, 0
9, 112680, Note_on_c, 7, 81, 100
9, 112800, Note_on_c, 7, 81, 0
9, 112800, Note_on_c, 7, 79, 100
9, 112920, Note_on_c, 7, 79, 0
9, 112920, Note_on_c, 7, 76, 100
9, 112980, Note_on_c, 7, 76, 0
9, 112980, Note_on_c, 7, 81, 100
9, 113040, Note_on_c, 7, 81, 0
9, 113040, Note_on_c, 7, 81, 100
9, 115440, Note_on_c, 7, 81, 0
9, 115440, Note_on_c, 7, 81, 100
9, 115500, Note_on_c, 7, 81, 0
9, 115500, Note_on_c, 7, 80, 100
9, 115560, Note_on_c, 7, 80, 0
9, 115560, Note_on_c, 7, 81, 100
9, 115860, Note_on_c, 7, 81, 0
9, 115860, Note_on_c, 7, 80, 100
9, 115920, Note_on_c, 7, 80, 0
9, 115920, Note_on_c, 7, 81, 100
9, 118320, Note_on_c, 7, 81, 0
9, 118320, Note_on_c, 7, 78, 100
9, 118440, Note_on_c, 7, 78, 0
9, 118440, Note_on_c, 7, 81, 100
9, 118560, Note_on_c, 7, 81, 0
9, 118560, Note_on_c, 7, 78, 100
9, 118680, Note_on_c, 7, 78, 0
9, 118680, Note_on_c, 7, 74, 100
9, 118740, Note_on_c, 7, 74, 0
9, 118740, Note_on_c, 7, 81, 100
9, 118800, Note_on_c, 7, 81, 0
9, 118800, Note_on_c, 7, 81, 100
9, 121260, Note_on_c, 7, 81, 0
9, 121260, Note_on_c, 7, 80, 100
9, 121320, Note_on_c, 7, 80, 0
9, 121320, Note_on_c, 7, 81, 100
9, 121620, Note_on_c, 7, 81, 0
9, 121620, Note_on_c, 7, 80, 100
9, 121680, Note_on_c, 7, 80, 0
9, 121680, Note_on_c, 7, 81, 100
9, 124500, Note_on_c, 7, 81, 0
9, 124500, Note_on_c, 7, 80, 100
9, 124560, Note_on_c, 7, 80, 0
9, 124560, Note_on_c, 7, 81, 100
9, 125220, Note_on_c, 7, 81, 0
9, 125220, Note_on_c, 7, 80, 100
9, 125280, Note_on_c, 7, 80, 0
9, 125280, Note_on_c, 7, 81, 100
9, 127560, Note_on_c, 7, 81, 0
9, 127560, Note_on_c, 7, 85, 100
9, 127800, Note_on_c, 7, 85, 0
9, 127800, Note_on_c, 7, 85, 100
9, 128040, Note_on_c, 7, 85, 0
9, 128040, Note_on_c, 7, 85, 100
9, 128160, Note_on_c, 7, 85, 0
9, 128160, Note_on_c, 7, 74, 100
9, 128160, Note_on_c, 7, 86, 100
9, 128460, Note_on_c, 7, 86, 0
9, 128460, Note_on_c, 7, 74, 0
9, 128460, Note_on_c, 7, 85, 100
9, 128520, Note_on_c, 7, 85, 0
9, 128520, Note_on_c, 7, 74, 100
9, 128520, Note_on_c, 7, 86, 100
9, 128640, Note_on_c, 7, 86, 0
9, 128640, Note_on_c, 7, 74, 0
9, 128880, Note_on_c, 7, 74, 100
9, 128880, Note_on_c, 7, 86, 100
9, 129180, Note_on_c, 7, 86, 0
9, 129180, Note_on_c, 7, 74, 0
9, 129180, Note_on_c, 7, 85, 100
9, 129240, Note_on_c, 7, 85, 0
9, 129240, Note_on_c, 7, 86, 100
9, 129240, Note_on_c, 7, 74, 100
9, 129360, Note_on_c, 7, 74, 0
9, 129360, Note_on_c, 7, 86, 0
9, 129600, Note_on_c, 7, 86, 100
9, 129720, Note_on_c, 7, 86, 0
9, 129720, Note_on_c, 7, 74, 100
9, 129840, Note_on_c, 7, 74, 0
9, 129840, Note_on_c, 7, 76, 100
9, 129960, Note_on_c, 7, 76, 0
9, 129960, Note_on_c, 7, 78, 100
9, 130080, Note_on_c, 7, 78, 0
9, 130080, Note_on_c, 7, 79, 100
9, 130200, Note_on_c, 7, 79, 0
9, 130200, Note_on_c, 7, 78, 100
9, 130320, Note_on_c, 7, 78, 0
9, 130320, Note_on_c, 7, 57, 100
9, 130320, Note_on_c, 7, 69, 100
9, 130320, Note_on_c, 7, 76, 100
9, 130440, Note_on_c, 7, 76, 0
9, 130440, Note_on_c, 7, 69, 0
9, 130440, Note_on_c, 7, 57, 0
9, 131040, Note_on_c, 7, 88, 100
9, 131040, Note_on_c, 7, 76, 100
9, 131340, Note_on_c, 7, 76, 0
9, 131340, Note_on_c, 7, 88, 0
9, 131340, Note_on_c, 7, 87, 100
9, 131400, Note_on_c, 7, 87, 0
9, 131400, Note_on_c, 7, 76, 100
9, 131400, Note_on_c, 7, 88, 100
9, 131520, Note_on_c, 7, 88, 0
9, 131520, Note_on_c, 7, 76, 0
9, 131760, Note_on_c, 7, 88, 100
9, 131760, Note_on_c, 7, 76, 100
9, 132060, Note_on_c, 7, 76, 0
9, 132060, Note_on_c, 7, 88, 0
9, 132060, Note_on_c, 7, 87, 100
9, 132120, Note_on_c, 7, 87, 0
9, 132120, Note_on_c, 7, 88, 100
9, 132120, Note_on_c, 7, 76, 100
9, 132240, Note_on_c, 7, 76, 0
9, 132240, Note_on_c, 7, 88, 0
9, 132480, Note_on_c, 7, 88, 100
9, 132600, Note_on_c, 7, 88, 0
9, 132600, Note_on_c, 7, 76, 100
9, 132720, Note_on_c, 7, 76, 0
9, 132720, Note_on_c, 7, 78, 100
9, 132840, Note_on_c, 7, 78, 0
9, 132840, Note_on_c, 7, 81, 100
9, 132960, Note_on_c, 7, 81, 0
9, 132960, Note_on_c, 7, 79, 100
9, 133080, Note_on_c, 7, 79, 0
9, 133080, Note_on_c, 7, 67, 100
9, 133080, Note_on_c, 7, 76, 100
9, 133200, Note_on_c, 7, 76, 0
9, 133200, Note_on_c, 7, 67, 0
9, 133200, Note_on_c, 7, 74, 100
9, 133200, Note_on_c, 7, 66, 100
9, 133320, Note_on_c, 7, 66, 0
9, 133320, Note_on_c, 7, 74, 0
9, 133920, Note_on_c, 7, 81, 100
9, 136380, Note_on_c, 7, 81, 0
9, 136380, Note_on_c, 7, 80, 100
9, 136440, Note_on_c, 7, 80, 0
9, 136440, Note_on_c, 7, 81, 100
9, 136740, Note_on_c, 7, 81, 0
9, 136740, Note_on_c, 7, 80, 100
9, 136800, Note_on_c, 7, 80, 0
9, 136800, Note_on_c, 7, 81, 100
9, 139620, Note_on_c, 7, 81, 0
9, 139620, Note_on_c, 7, 80, 100
9, 139680, Note_on_c, 7, 80, 0
9, 139680, Note_on_c, 7, 81, 100
9, 140340, Note_on_c, 7, 81, 0
9, 140340, Note_on_c, 7, 80, 100
9, 140400, Note_on_c, 7, 80, 0
9, 140400, Note_on_c, 7, 81, 100
9, 142680, Note_on_c, 7, 81, 0
9, 142680, Note_on_c, 7, 85, 100
9, 142920, Note_on_c, 7, 85, 0
9, 142920, Note_on_c, 7, 85, 100
9, 143160, Note_on_c, 7, 85, 0
9, 143160, Note_on_c, 7, 85, 100
9, 143280, Note_on_c, 7, 85, 0
9, 143280, Note_on_c, 7, 74, 100
9, 143280, Note_on_c, 7, 86, 100
9, 143580, Note_on_c, 7, 86, 0
9, 143580, Note_on_c, 7, 74, 0
9, 143580, Note_on_c, 7, 85, 100
9, 143640, Note_on_c, 7, 85, 0
9, 143640, Note_on_c, 7, 74, 100
9, 143640, Note_on_c, 7, 86, 100
9, 143760, Note_on_c, 7, 86, 0
9, 143760, Note_on_c, 7, 74, 0
9, 144000, Note_on_c, 7, 74, 100
9, 144000, Note_on_c, 7, 86, 100
9, 144300, Note_on_c, 7, 86, 0
9, 144300, Note_on_c, 7, 74, 0
9, 144300, Note_on_c, 7, 85, 100
9, 144360, Note_on_c, 7, 85, 0
9, 144360, Note_on_c, 7, 86, 100
9, 144360, Note_on_c, 7, 74, 100
9, 144480, Note_on_c, 7, 74, 0
9, 144480, Note_on_c, 7, 86, 0
9, 144720, Note_on_c, 7, 86, 100
9, 144840, Note_on_c, 7, 86, 0
9, 144840, Note_on_c, 7, 74, 100
9, 144960, Note_on_c, 7, 74, 0
9, 144960, Note_on_c, 7, 76, 100
9, 145080, Note_on_c, 7, 76, 0
9, 145080, Note_on_c, 7, 78, 100
9, 145200, Note_on_c, 7, 78, 0
9, 145200, Note_on_c, 7, 79, 100
9, 145320, Note_on_c, 7, 79, 0
9, 145320, Note_on_c, 7, 78, 100
9, 145440, Note_on_c, 7, 78, 0
9, 145440, Note_on_c, 7, 57, 100
9, 145440, Note_on_c, 7, 69, 100
9, 145440, Note_on_c, 7, 76, 100
9, 145560, Note_on_c, 7, 76, 0
9, 145560, Note_on_c, 7, 69, 0
9, 145560, Note_on_c, 7, 57, 0
9, 146160, Note_on_c, 7, 88, 100
9, 146160, Note_on_c, 7, 76, 100
9, 146460, Note_on_c, 7, 76, 0
9, 146460, Note_on_c, 7, 88, 0
9, 146460, Note_on_c, 7, 87, 100
9, 146520, Note_on_c, 7, 87, 0
9, 146520, Note_on_c, 7, 76, 100
9, 146520, Note_on_c, 7, 88, 100
9, 146640, Note_on_c, 7, 88, 0
9, 146640, Note_on_c, 7, 76, 0
9, 146880, Note_on_c, 7, 88, 100
9, 146880, Note_on_c, 7, 76, 100
9, 147180, Note_on_c, 7, 76, 0
9, 147180, Note_on_c, 7, 88, 0
9, 147180, Note_on_c, 7, 87, 100
9, 147240, Note_on_c, 7, 87, 0
9, 147240, Note_on_c, 7, 88, 100
9, 147240, Note_on_c, 7, 76, 100
9, 147360, Note_on_c, 7, 76, 0
9, 147360, Note_on_c, 7, 88, 0
9, 147600, Note_on_c, 7, 88, 100
9, 147720, Note_on_c, 7, 88, 0
9, 147720, Note_on_c, 7, 76, 100
9, 147840, Note_on_c, 7, 76, 0
9, 147840, Note_on_c, 7, 78, 100
9, 147960, Note_on_c, 7, 78, 0
9, 147960, Note_on_c, 7, 81, 100
9, 148080, Note_on_c, 7, 81, 0
9, 148080, Note_on_c, 7, 79, 100
9, 148200, Note_on_c, 7, 79, 0
9, 148200, Note_on_c, 7, 67, 100
9, 148200, Note_on_c, 7, 76, 100
9, 148320, Note_on_c, 7, 76, 0
9, 148320, Note_on_c, 7, 67, 0
9, 148320, Note_on_c, 7, 74, 100
9, 148320, Note_on_c, 7, 66, 100
9, 148440, Note_on_c, 7, 66, 0
9, 148440, Note_on_c, 7, 74, 0
9, 149040, Note_on_c, 7, 66, 100
9, 149760, Note_on_c, 7, 66, 0
9, 149760, Note_on_c, 7, 67, 100
9, 150480, Note_on_c, 7, 67, 0
9, 150480, Note_on_c, 7, 66, 100
9, 151200, Note_on_c, 7, 66, 0
9, 151200, Note_on_c, 7, 64, 100
9, 151920, Note_on_c, 7, 64, 0
9, 151920, Note_on_c, 7, 66, 100
9, 152640, Note_on_c, 7, 66, 0
9, 152640, Note_on_c, 7, 67, 100
9, 153360, Note_on_c, 7, 67, 0
9, 153360, Note_on_c, 7, 67, 100
9, 153960, Note_on_c, 7, 67, 0
9, 153960, Note_on_c, 7, 65, 100
9, 154080, Note_on_c, 7, 65, 0
9, 154080, Note_on_c, 7, 65, 100
9, 154110, Note_on_c, 7, 65, 0
9, 154110, Note_on_c, 7, 69, 100
9, 154200, Note_on_c, 7, 69, 0
9, 154200, Note_on_c, 7, 65, 100
9, 154260, Note_on_c, 7, 65, 0
9, 154320, Note_on_c, 7, 69, 100
9, 154440, Note_on_c, 7, 69, 0
9, 154440, Note_on_c, 7, 69, 100
9, 154470, Note_on_c, 7, 69, 0
9, 154470, Note_on_c, 7, 72, 100
9, 154560, Note_on_c, 7, 72, 0
9, 154560, Note_on_c, 7, 69, 100
9, 154620, Note_on_c, 7, 69, 0
9, 154680, Note_on_c, 7, 72, 100
9, 154800, Note_on_c, 7, 72, 0
9, 154800, Note_on_c, 7, 77, 100
9, 154920, Note_on_c, 7, 77, 0
9, 154920, Note_on_c, 7, 77, 100
9, 155040, Note_on_c, 7, 77, 0
9, 155040, Note_on_c, 7, 76, 100
9, 155160, Note_on_c, 7, 76, 0
9, 155160, Note_on_c, 7, 74, 100
9, 155280, Note_on_c, 7, 74, 0
9, 155280, Note_on_c, 7, 74, 100
9, 155400, Note_on_c, 7, 74, 0
9, 155400, Note_on_c, 7, 72, 100
9, 155520, Note_on_c, 7, 72, 0
9, 155520, Note_on_c, 7, 70, 100
9, 155640, Note_on_c, 7, 70, 0
9, 155640, Note_on_c, 7, 70, 100
9, 155760, Note_on_c, 7, 70, 0
9, 155760, Note_on_c, 7, 69, 100
9, 155880, Note_on_c, 7, 69, 0
9, 155880, Note_on_c, 7, 67, 100
9, 156240, Note_on_c, 7, 67, 0
9, 156240, Note_on_c, 7, 79, 100
9, 156360, Note_on_c, 7, 79, 0
9, 156360, Note_on_c, 7, 79, 100
9, 156480, Note_on_c, 7, 79, 0
9, 156480, Note_on_c, 7, 77, 100
9, 156600, Note_on_c, 7, 77, 0
9, 156600, Note_on_c, 7, 76, 100
9, 156720, Note_on_c, 7, 76, 0
9, 156720, Note_on_c, 7, 76, 100
9, 156840, Note_on_c, 7, 76, 0
9, 156840, Note_on_c, 7, 74, 100
9, 156960, Note_on_c, 7, 74, 0
9, 156960, Note_on_c, 7, 72, 100
9, 157080, Note_on_c, 7, 72, 0
9, 157080, Note_on_c, 7, 72, 100
9, 157200, Note_on_c, 7, 72, 0
9, 157200, Note_on_c, 7, 70, 100
9, 157320, Note_on_c, 7, 70, 0
9, 157320, Note_on_c, 7, 69, 100
9, 157680, Note_on_c, 7, 69, 0
9, 157680, Note_on_c, 7, 67, 100
9, 157800, Note_on_c, 7, 67, 0
9, 157800, Note_on_c, 7, 67, 100
9, 157920, Note_on_c, 7, 67, 0
9, 157920, Note_on_c, 7, 65, 100
9, 158040, Note_on_c, 7, 65, 0
9, 158040, Note_on_c, 7, 70, 100
9, 158280, Note_on_c, 7, 70, 0
9, 158280, Note_on_c, 7, 69, 100
9, 158400, Note_on_c, 7, 69, 0
9, 158400, Note_on_c, 7, 67, 100
9, 158520, Note_on_c, 7, 67, 0
9, 158520, Note_on_c, 7, 67, 100
9, 158640, Note_on_c, 7, 67, 0
9, 158640, Note_on_c, 7, 65, 100
9, 158760, Note_on_c, 7, 65, 0
9, 158760, Note_on_c, 7, 70, 100
9, 159000, Note_on_c, 7, 70, 0
9, 159000, Note_on_c, 7, 69, 100
9, 159120, Note_on_c, 7, 69, 0
9, 159120, Note_on_c, 7, 74, 100
9, 159360, Note_on_c, 7, 74, 0
9, 159360, Note_on_c, 7, 73, 100
9, 159480, Note_on_c, 7, 73, 0
9, 159480, Note_on_c, 7, 77, 100
9, 159720, Note_on_c, 7, 77, 0
9, 159720, Note_on_c, 7, 76, 100
9, 159840, Note_on_c, 7, 76, 0
9, 159840, Note_on_c, 7, 80, 100
9, 159870, Note_on_c, 7, 80, 0
9, 159870, Note_on_c, 7, 81, 100
9, 159900, Note_on_c, 7, 81, 0
9, 159900, Note_on_c, 7, 80, 100
9, 159930, Note_on_c, 7, 80, 0
9, 159930, Note_on_c, 7, 81, 100
9, 159960, Note_on_c, 7, 81, 0
9, 159960, Note_on_c, 7, 80, 100
9, 159990, Note_on_c, 7, 80, 0
9, 159990, Note_on_c, 7, 81, 100
9, 160020, Note_on_c, 7, 81, 0
9, 160020, Note_on_c, 7, 80, 100
9, 160050, Note_on_c, 7, 80, 0
9, 160050, Note_on_c, 7, 81, 100
9, 160080, Note_on_c, 7, 81, 0
9, 160080, Note_on_c, 7, 80, 100
9, 160110, Note_on_c, 7, 80, 0
9, 160110, Note_on_c, 7, 81, 100
9, 160140, Note_on_c, 7, 81, 0
9, 160140, Note_on_c, 7, 78, 100
9, 160170, Note_on_c, 7, 78, 0
9, 160170, Note_on_c, 7, 80, 100
9, 160200, Note_on_c, 7, 80, 0
9, 160200, Note_on_c, 7, 81, 100
9, 160320, Note_on_c, 7, 81, 0
9, 160320, Note_on_c, 7, 76, 100
9, 160440, Note_on_c, 7, 76, 0
9, 160440, Note_on_c, 7, 73, 100
9, 160560, Note_on_c, 7, 73, 0
9, 160560, Note_on_c, 7, 74, 100
9, 160590, Note_on_c, 7, 74, 0
9, 160590, Note_on_c, 7, 76, 100
9, 160620, Note_on_c, 7, 76, 0
9, 160620, Note_on_c, 7, 74, 100
9, 160650, Note_on_c, 7, 74, 0
9, 160650, Note_on_c, 7, 76, 100
9, 160680, Note_on_c, 7, 76, 0
9, 160680, Note_on_c, 7, 74, 100
9, 160710, Note_on_c, 7, 74, 0
9, 160710, Note_on_c, 7, 76, 100
9, 160740, Note_on_c, 7, 76, 0
9, 160740, Note_on_c, 7, 74, 100
9, 160770, Note_on_c, 7, 74, 0
9, 160770, Note_on_c, 7, 76, 100
9, 160800, Note_on_c, 7, 76, 0
9, 160800, Note_on_c, 7, 74, 100
9, 160830, Note_on_c, 7, 74, 0
9, 160830, Note_on_c, 7, 76, 100
9, 160860, Note_on_c, 7, 76, 0
9, 160860, Note_on_c, 7, 73, 100
9, 160890, Note_on_c, 7, 73, 0
9, 160890, Note_on_c, 7, 74, 100
9, 160920, Note_on_c, 7, 74, 0
9, 160920, Note_on_c, 7, 73, 100
9, 161040, Note_on_c, 7, 73, 0
9, 161040, Note_on_c, 7, 76, 100
9, 161160, Note_on_c, 7, 76, 0
9, 161160, Note_on_c, 7, 81, 100
9, 161280, Note_on_c, 7, 81, 0
9, 161280, Note_on_c, 7, 80, 100
9, 161310, Note_on_c, 7, 80, 0
9, 161310, Note_on_c, 7, 81, 100
9, 161340, Note_on_c, 7, 81, 0
9, 161340, Note_on_c, 7, 80, 100
9, 161370, Note_on_c, 7, 80, 0
9, 161370, Note_on_c, 7, 81, 100
9, 161400, Note_on_c, 7, 81, 0
9, 161400, Note_on_c, 7, 80, 100
9, 161430, Note_on_c, 7, 80, 0
9, 161430, Note_on_c, 7, 81, 100
9, 161460, Note_on_c, 7, 81, 0
9, 161460, Note_on_c, 7, 80, 100
9, 161490, Note_on_c, 7, 80, 0
9, 161490, Note_on_c, 7, 81, 100
9, 161520, Note_on_c, 7, 81, 0
9, 161520, Note_on_c, 7, 80, 100
9, 161550, Note_on_c, 7, 80, 0
9, 161550, Note_on_c, 7, 81, 100
9, 161580, Note_on_c, 7, 81, 0
9, 161580, Note_on_c, 7, 78, 100
9, 161610, Note_on_c, 7, 78, 0
9, 161610, Note_on_c, 7, 80, 100
9, 161640, Note_on_c, 7, 80, 0
9, 161640, Note_on_c, 7, 81, 100
9, 161760, Note_on_c, 7, 81, 0
9, 161760, Note_on_c, 7, 76, 100
9, 161880, Note_on_c, 7, 76, 0
9, 161880, Note_on_c, 7, 73, 100
9, 162000, Note_on_c, 7, 73, 0
9, 162000, Note_on_c, 7, 69, 100
9, 162120, Note_on_c, 7, 69, 0
9, 162120, Note_on_c, 7, 64, 100
9, 162240, Note_on_c, 7, 64, 0
9, 162240, Note_on_c, 7, 61, 100
9, 162360, Note_on_c, 7, 61, 0
9, 162360, Note_on_c, 7, 57, 100
9, 162480, Note_on_c, 7, 57, 0
9, 162600, Note_on_c, 7, 65, 100
9, 162720, Note_on_c, 7, 65, 0
9, 162720, Note_on_c, 7, 65, 100
9, 162750, Note_on_c, 7, 65, 0
9, 162750, Note_on_c, 7, 69, 100
9, 162840, Note_on_c, 7, 69, 0
9, 162840, Note_on_c, 7, 65, 100
9, 162900, Note_on_c, 7, 65, 0
9, 162960, Note_on_c, 7, 69, 100
9, 163080, Note_on_c, 7, 69, 0
9, 163080, Note_on_c, 7, 69, 100
9, 163110, Note_on_c, 7, 69, 0
9, 163110, Note_on_c, 7, 72, 100
9, 163200, Note_on_c, 7, 72, 0
9, 163200, Note_on_c, 7, 69, 100
9, 163260, Note_on_c, 7, 69, 0
9, 163320, Note_on_c, 7, 72, 100
9, 163440, Note_on_c, 7, 72, 0
9, 163440, Note_on_c, 7, 77, 100
9, 163560, Note_on_c, 7, 77, 0
9, 163560, Note_on_c, 7, 77, 100
9, 163680, Note_on_c, 7, 77, 0
9, 163680, Note_on_c, 7, 76, 100
9, 163800, Note_on_c, 7, 76, 0
9, 163800, Note_on_c, 7, 74, 100
9, 163920, Note_on_c, 7, 74, 0
9, 163920, Note_on_c, 7, 74, 100
9, 164040, Note_on_c, 7, 74, 0
9, 164040, Note_on_c, 7, 72, 100
9, 164160, Note_on_c, 7, 72, 0
9, 164160, Note_on_c, 7, 70, 100
9, 164280, Note_on_c, 7, 70, 0
9, 164280, Note_on_c, 7, 70, 100
9, 164400, Note_on_c, 7, 70, 0
9, 164400, Note_on_c, 7, 69, 100
9, 164520, Note_on_c, 7, 69, 0
9, 164520, Note_on_c, 7, 67, 100
9, 164880, Note_on_c, 7, 67, 0
9, 164880, Note_on_c, 7, 79, 100
9, 165000, Note_on_c, 7, 79, 0
9, 165000, Note_on_c, 7, 79, 100
9, 165120, Note_on_c, 7, 79, 0
9, 165120, Note_on_c, 7, 77, 100
9, 165240, Note_on_c, 7, 77, 0
9, 165240, Note_on_c, 7, 76, 100
9, 165360, Note_on_c, 7, 76, 0
9, 165360, Note_on_c, 7, 76, 100
9, 165480, Note_on_c, 7, 76, 0
9, 165480, Note_on_c, 7, 74, 100
9, 165600, Note_on_c, 7, 74, 0
9, 165600, Note_on_c, 7, 72, 100
9, 165720, Note_on_c, 7, 72, 0
9, 165720, Note_on_c, 7, 72, 100
9, 165840, Note_on_c, 7, 72, 0
9, 165840, Note_on_c, 7, 70, 100
9, 165960, Note_on_c, 7, 70, 0
9, 165960, Note_on_c, 7, 69, 100
9, 166320, Note_on_c, 7, 69, 0
9, 166320, Note_on_c, 7, 67, 100
9, 166440, Note_on_c, 7, 67, 0
9, 166440, Note_on_c, 7, 67, 100
9, 166560, Note_on_c, 7, 67, 0
9, 166560, Note_on_c, 7, 65, 100
9, 166680, Note_on_c, 7, 65, 0
9, 166680, Note_on_c, 7, 70, 100
9, 166920, Note_on_c, 7, 70, 0
9, 166920, Note_on_c, 7, 69, 100
9, 167040, Note_on_c, 7, 69, 0
9, 167040, Note_on_c, 7, 67, 100
9, 167160, Note_on_c, 7, 67, 0
9, 167160, Note_on_c, 7, 67, 100
9, 167280, Note_on_c, 7, 67, 0
9, 167280, Note_on_c, 7, 65, 100
9, 167400, Note_on_c, 7, 65, 0
9, 167400, Note_on_c, 7, 70, 100
9, 167640, Note_on_c, 7, 70, 0
9, 167640, Note_on_c, 7, 69, 100
9, 167760, Note_on_c, 7, 69, 0
9, 167760, Note_on_c, 7, 74, 100
9, 168000, Note_on_c, 7, 74, 0
9, 168000, Note_on_c, 7, 73, 100
9, 168120, Note_on_c, 7, 73, 0
9, 168120, Note_on_c, 7, 77, 100
9, 168360, Note_on_c, 7, 77, 0
9, 168360, Note_on_c, 7, 76, 100
9, 168480, Note_on_c, 7, 76, 0
9, 168480, Note_on_c, 7, 80, 100
9, 168510, Note_on_c, 7, 80, 0
9, 168510, Note_on_c, 7, 81, 100
9, 168540, Note_on_c, 7, 81, 0
9, 168540, Note_on_c, 7, 80, 100
9, 168570, Note_on_c, 7, 80, 0
9, 168570, Note_on_c, 7, 81, 100
9, 168600, Note_on_c, 7, 81, 0
9, 168600, Note_on_c, 7, 80, 100
9, 168630, Note_on_c, 7, 80, 0
9, 168630, Note_on_c, 7, 81, 100
9, 168660, Note_on_c, 7, 81, 0
9, 168660, Note_on_c, 7, 80, 100
9, 168690, Note_on_c, 7, 80, 0
9, 168690, Note_on_c, 7, 81, 100
9, 168720, Note_on_c, 7, 81, 0
9, 168720, Note_on_c, 7, 80, 100
9, 168750, Note_on_c, 7, 80, 0
9, 168750, Note_on_c, 7, 81, 100
9, 168780, Note_on_c, 7, 81, 0
9, 168780, Note_on_c, 7, 78, 100
9, 168810, Note_on_c, 7, 78, 0
9, 168810, Note_on_c, 7, 80, 100
9, 168840, Note_on_c, 7, 80, 0
9, 168840, Note_on_c, 7, 81, 100
9, 168960, Note_on_c, 7, 81, 0
9, 168960, Note_on_c, 7, 76, 100
9, 169080, Note_on_c, 7, 76, 0
9, 169080, Note_on_c, 7, 73, 100
9, 169200, Note_on_c, 7, 73, 0
9, 169200, Note_on_c, 7, 74, 100
9, 169230, Note_on_c, 7, 74, 0
9, 169230, Note_on_c, 7, 76, 100
9, 169260, Note_on_c, 7, 76, 0
9, 169260, Note_on_c, 7, 74, 100
9, 169290, Note_on_c, 7, 74, 0
9, 169290, Note_on_c, 7, 76, 100
9, 169320, Note_on_c, 7, 76, 0
9, 169320, Note_on_c, 7, 74, 100
9, 169350, Note_on_c, 7, 74, 0
9, 169350, Note_on_c, 7, 76, 100
9, 169380, Note_on_c, 7, 76, 0
9, 169380, Note_on_c, 7, 74, 100
9, 169410, Note_on_c, 7, 74, 0
9, 169410, Note_on_c, 7, 76, 100
9, 169440, Note_on_c, 7, 76, 0
9, 169440, Note_on_c, 7, 74, 100
9, 169470, Note_on_c, 7, 74, 0
9, 169470, Note_on_c, 7, 76, 100
9, 169500, Note_on_c, 7, 76, 0
9, 169500, Note_on_c, 7, 73, 100
9, 169530, Note_on_c, 7, 73, 0
9, 169530, Note_on_c, 7, 74, 100
9, 169560, Note_on_c, 7, 74, 0
9, 169560, Note_on_c, 7, 73, 100
9, 169680, Note_on_c, 7, 73, 0
9, 169680, Note_on_c, 7, 76, 100
9, 169800, Note_on_c, 7, 76, 0
9, 169800, Note_on_c, 7, 81, 100
9, 169920, Note_on_c, 7, 81, 0
9, 169920, Note_on_c, 7, 80, 100
9, 169950, Note_on_c, 7, 80, 0
9, 169950, Note_on_c, 7, 81, 100
9, 169980, Note_on_c, 7, 81, 0
9, 169980, Note_on_c, 7, 80, 100
9, 170010, Note_on_c, 7, 80, 0
9, 170010, Note_on_c, 7, 81, 100
9, 170040, Note_on_c, 7, 81, 0
9, 170040, Note_on_c, 7, 80, 100
9, 170070, Note_on_c, 7, 80, 0
9, 170070, Note_on_c, 7, 81, 100
9, 170100, Note_on_c, 7, 81, 0
9, 170100, Note_on_c, 7, 80, 100
9, 170130, Note_on_c, 7, 80, 0
9, 170130, Note_on_c, 7, 81, 100
9, 170160, Note_on_c, 7, 81, 0
9, 170160, Note_on_c, 7, 80, 100
9, 170190, Note_on_c, 7, 80, 0
9, 170190, Note_on_c, 7, 81, 100
9, 170220, Note_on_c, 7, 81, 0
9, 170220, Note_on_c, 7, 78, 100
9, 170250, Note_on_c, 7, 78, 0
9, 170250, Note_on_c, 7, 80, 100
9, 170280, Note_on_c, 7, 80, 0
9, 170280, Note_on_c, 7, 81, 100
9, 170400, Note_on_c, 7, 81, 0
9, 170400, Note_on_c, 7, 76, 100
9, 170520, Note_on_c, 7, 76, 0
9, 170520, Note_on_c, 7, 73, 100
9, 170640, Note_on_c, 7, 73, 0
9, 170640, Note_on_c, 7, 69, 100
9, 170760, Note_on_c, 7, 69, 0
9, 170760, Note_on_c, 7, 64, 100
9, 170880, Note_on_c, 7, 64, 0
9, 170880, Note_on_c, 7, 61, 100
9, 171000, Note_on_c, 7, 61, 0
9, 171000, Note_on_c, 7, 57, 100
9, 171120, Note_on_c, 7, 57, 0
9, 172320, Note_on_c, 7, 81, 100
9, 172440, Note_on_c, 7, 81, 0
9, 172440, Note_on_c, 7, 81, 100
9, 172470, Note_on_c, 7, 81, 0
9, 172470, Note_on_c, 7, 85, 100
9, 172560, Note_on_c, 7, 85, 0
9, 172560, Note_on_c, 7, 81, 100
9, 172620, Note_on_c, 7, 81, 0
9, 175680, Note_on_c, 7, 79, 100
9, 175920, Note_on_c, 7, 79, 0
9, 175920, Note_on_c, 7, 78, 100
9, 176040, Note_on_c, 7, 78, 0
9, 176040, Note_on_c, 7, 79, 100
9, 176280, Note_on_c, 7, 79, 0
9, 176280, Note_on_c, 7, 78, 100
9, 176400, Note_on_c, 7, 78, 0
9, 176400, Note_on_c, 7, 79, 100
9, 176640, Note_on_c, 7, 79, 0
9, 176640, Note_on_c, 7, 78, 100
9, 176760, Note_on_c, 7, 78, 0
9, 176760, Note_on_c, 7, 79, 100
9, 177000, Note_on_c, 7, 79, 0
9, 177000, Note_on_c, 7, 78, 100
9, 177120, Note_on_c, 7, 78, 0
9, 178080, Note_on_c, 7, 83, 100
9, 178200, Note_on_c, 7, 83, 0
9, 178200, Note_on_c, 7, 86, 100
9, 178320, Note_on_c, 7, 86, 0
9, 178320, Note_on_c, 7, 83, 100
9, 178380, Note_on_c, 7, 83, 0
9, 181440, Note_on_c, 7, 82, 100
9, 181680, Note_on_c, 7, 82, 0
9, 181680, Note_on_c, 7, 81, 100
9, 181800, Note_on_c, 7, 81, 0
9, 181800, Note_on_c, 7, 82, 100
9, 182040, Note_on_c, 7, 82, 0
9, 182040, Note_on_c, 7, 81, 100
9, 182160, Note_on_c, 7, 81, 0
9, 182160, Note_on_c, 7, 82, 100
9, 182400, Note_on_c, 7, 82, 0
9, 182400, Note_on_c, 7, 81, 100
9, 182520, Note_on_c, 7, 81, 0
9, 182520, Note_on_c, 7, 82, 100
9, 182760, Note_on_c, 7, 82, 0
9, 182760, Note_on_c, 7, 81, 100
9, 182880, Note_on_c, 7, 81, 0
9, 183840, Note_on_c, 7, 81, 100
9, 183960, Note_on_c, 7, 81, 0
9, 183960, Note_on_c, 7, 84, 100
9, 184080, Note_on_c, 7, 84, 0
9, 184080, Note_on_c, 7, 81, 100
9, 184140, Note_on_c, 7, 81, 0
9, 184200, Note_on_c, 7, 74, 100
9, 184320, Note_on_c, 7, 74, 0
9, 184320, Note_on_c, 7, 75, 100
9, 184440, Note_on_c, 7, 75, 0
9, 184440, Note_on_c, 7, 75, 100
9, 184560, Note_on_c, 7, 75, 0
9, 184560, Note_on_c, 7, 74, 100
9, 184680, Note_on_c, 7, 74, 0
9, 184680, Note_on_c, 7, 79, 100
9, 184920, Note_on_c, 7, 79, 0
9, 184920, Note_on_c, 7, 77, 100
9, 185040, Note_on_c, 7, 77, 0
9, 185040, Note_on_c, 7, 75, 100
9, 185160, Note_on_c, 7, 75, 0
9, 185160, Note_on_c, 7, 75, 100
9, 185280, Note_on_c, 7, 75, 0
9, 185280, Note_on_c, 7, 74, 100
9, 185400, Note_on_c, 7, 74, 0
9, 185400, Note_on_c, 7, 79, 100
9, 185640, Note_on_c, 7, 79, 0
9, 185640, Note_on_c, 7, 77, 100
9, 185760, Note_on_c, 7, 77, 0
9, 185760, Note_on_c, 7, 77, 100
9, 185880, Note_on_c, 7, 77, 0
9, 186120, Program_c, 7, 45
9, 186120, Note_on_c, 7, 62, 100
9, 186120, Note_on_c, 7, 70, 100
9, 186240, Note_on_c, 7, 70, 0
9, 186240, Note_on_c, 7, 62, 0
9, 186480, Note_on_c, 7, 62, 100
9, 186480, Note_on_c, 7, 70, 100
9, 186600, Note_on_c, 7, 70, 0
9, 186600, Note_on_c, 7, 62, 0
9, 186840, Note_on_c, 7, 62, 100
9, 186840, Note_on_c, 7, 70, 100
9, 186960, Note_on_c, 7, 70, 0
9, 186960, Note_on_c, 7, 62, 0
9, 187200, Note_on_c, 7, 65, 100
9, 187200, Note_on_c, 7, 72, 100
9, 187320, Note_on_c, 7, 72, 0
9, 187320, Note_on_c, 7, 65, 0
9, 187560, Note_on_c, 7, 65, 100
9, 187560, Note_on_c, 7, 72, 100
9, 187680, Note_on_c, 7, 72, 0
9, 187680, Note_on_c, 7, 65, 0
9, 187920, Note_on_c, 7, 65, 100
9, 187920, Note_on_c, 7, 72, 100
9, 188040, Note_on_c, 7, 72, 0
9, 188040, Note_on_c, 7, 65, 0
9, 188280, Note_on_c, 7, 65, 100
9, 188280, Note_on_c, 7, 72, 100
9, 188400, Note_on_c, 7, 72, 0
9, 188400, Note_on_c, 7, 65, 0
9, 188640, Note_on_c, 7, 65, 100
9, 188640, Note_on_c, 7, 72, 100
9, 188760, Note_on_c, 7, 72, 0
9, 188760, Note_on_c, 7, 65, 0
9, 189000, Program_c, 7, 48
9, 189000, Note_on_c, 7, 65, 100
9, 189120, Note_on_c, 7, 65, 0
9, 189120, Note_on_c, 7, 70, 100
9, 189240, Note_on_c, 7, 70, 0
9, 189240, Note_on_c, 7, 70, 100
9, 189360, Note_on_c, 7, 70, 0
9, 189360, Note_on_c, 7, 65, 100
9, 189480, Note_on_c, 7, 65, 0
9, 189480, Note_on_c, 7, 70, 100
9, 189600, Note_on_c, 7, 70, 0
9, 189600, Note_on_c, 7, 70, 100
9, 189720, Note_on_c, 7, 70, 0
9, 189720, Note_on_c, 7, 65, 100
9, 189840, Note_on_c, 7, 65, 0
9, 189840, Note_on_c, 7, 70, 100
9, 189960, Note_on_c, 7, 70, 0
9, 189960, Note_on_c, 7, 70, 100
9, 190080, Note_on_c, 7, 70, 0
9, 190080, Note_on_c, 7, 72, 100
9, 190200, Note_on_c, 7, 72, 0
9, 190200, Note_on_c, 7, 72, 100
9, 190320, Note_on_c, 7, 72, 0
9, 190320, Note_on_c, 7, 72, 100
9, 190440, Note_on_c, 7, 72, 0
9, 190440, Note_on_c, 7, 69, 100
9, 190560, Note_on_c, 7, 69, 0
9, 190560, Note_on_c, 7, 69, 100
9, 190680, Note_on_c, 7, 69, 0
9, 190680, Note_on_c, 7, 72, 100
9, 190800, Note_on_c, 7, 72, 0
9, 190800, Note_on_c, 7, 69, 100
9, 190920, Note_on_c, 7, 69, 0
9, 190920, Note_on_c, 7, 69, 100
9, 191040, Note_on_c, 7, 69, 0
9, 191040, Note_on_c, 7, 72, 100
9, 191160, Note_on_c, 7, 72, 0
9, 191160, Note_on_c, 7, 69, 100
9, 191280, Note_on_c, 7, 69, 0
9, 191280, Note_on_c, 7, 69, 100
9, 191400, Note_on_c, 7, 69, 0
9, 191400, Note_on_c, 7, 72, 100
9, 191520, Note_on_c, 7, 72, 0
9, 191520, Note_on_c, 7, 70, 100
9, 191640, Note_on_c, 7, 70, 0
9, 191640, Note_on_c, 7, 70, 100
9, 191760, Note_on_c, 7, 70, 0
9, 191760, Note_on_c, 7, 74, 100
9, 191880, Note_on_c, 7, 74, 0
9, 193320, Note_on_c, 7, 67, 100
9, 193440, Note_on_c, 7, 67, 0
9, 193440, Note_on_c, 7, 67, 100
9, 193560, Note_on_c, 7, 67, 0
9, 193560, Note_on_c, 7, 69, 100
9, 193680, Note_on_c, 7, 69, 0
9, 193680, Note_on_c, 7, 70, 100
9, 193800, Note_on_c, 7, 70, 0
9, 193800, Note_on_c, 7, 70, 100
9, 193920, Note_on_c, 7, 70, 0
9, 193920, Note_on_c, 7, 72, 100
9, 194040, Note_on_c, 7, 72, 0
9, 194040, Note_on_c, 7, 74, 100
9, 194160, Note_on_c, 7, 74, 0
9, 194160, Note_on_c, 7, 76, 100
9, 194280, Note_on_c, 7, 76, 0
9, 194280, Note_on_c, 7, 77, 100
9, 194400, Note_on_c, 7, 77, 0
9, 194400, Note_on_c, 7, 77, 100
9, 194430, Note_on_c, 7, 77, 0
9, 194430, Note_on_c, 7, 81, 100
9, 194520, Note_on_c, 7, 81, 0
9, 194520, Note_on_c, 7, 77, 100
9, 194580, Note_on_c, 7, 77, 0
9, 194640, Note_on_c, 7, 81, 100
9, 194760, Note_on_c, 7, 81, 0
9, 194760, Note_on_c, 7, 81, 100
9, 194790, Note_on_c, 7, 81, 0
9, 194790, Note_on_c, 7, 84, 100
9, 194880, Note_on_c, 7, 84, 0
9, 194880, Note_on_c, 7, 81, 100
9, 194940, Note_on_c, 7, 81, 0
9, 195000, Note_on_c, 7, 84, 100
9, 195120, Note_on_c, 7, 84, 0
9, 195120, Note_on_c, 7, 89, 100
9, 195240, Note_on_c, 7, 89, 0
9, 195240, Note_on_c, 7, 89, 100
9, 195360, Note_on_c, 7, 89, 0
9, 195360, Note_on_c, 7, 88, 100
9, 195480, Note_on_c, 7, 88, 0
9, 195480, Note_on_c, 7, 86, 100
9, 195600, Note_on_c, 7, 86, 0
9, 195600, Note_on_c, 7, 86, 100
9, 195720, Note_on_c, 7, 86, 0
9, 195720, Note_on_c, 7, 84, 100
9, 195840, Note_on_c, 7, 84, 0
9, 195840, Note_on_c, 7, 82, 100
9, 195960, Note_on_c, 7, 82, 0
9, 195960, Note_on_c, 7, 82, 100
9, 196080, Note_on_c, 7, 82, 0
9, 196080, Note_on_c, 7, 81, 100
9, 196200, Note_on_c, 7, 81, 0
9, 196200, Note_on_c, 7, 79, 100
9, 196560, Note_on_c, 7, 79, 0
9, 196560, Note_on_c, 7, 91, 100
9, 196680, Note_on_c, 7, 91, 0
9, 196680, Note_on_c, 7, 91, 100
9, 196800, Note_on_c, 7, 91, 0
9, 196800, Note_on_c, 7, 89, 100
9, 196920, Note_on_c, 7, 89, 0
9, 196920, Note_on_c, 7, 88, 100
9, 197040, Note_on_c, 7, 88, 0
9, 197040, Note_on_c, 7, 88, 100
9, 197160, Note_on_c, 7, 88, 0
9, 197160, Note_on_c, 7, 86, 100
9, 197280, Note_on_c, 7, 86, 0
9, 197280, Note_on_c, 7, 84, 100
9, 197400, Note_on_c, 7, 84, 0
9, 197400, Note_on_c, 7, 84, 100
9, 197520, Note_on_c, 7, 84, 0
9, 197520, Note_on_c, 7, 82, 100
9, 197640, Note_on_c, 7, 82, 0
9, 197640, Note_on_c, 7, 81, 100
9, 198000, Note_on_c, 7, 81, 0
9, 198000, Note_on_c, 7, 77, 100
9, 199200, Note_on_c, 7, 77, 0
9, 199200, Note_on_c, 7, 79, 100
9, 199320, Note_on_c, 7, 79, 0
9, 199320, Note_on_c, 7, 79, 100
9, 199440, Note_on_c, 7, 79, 0
9, 199440, Note_on_c, 7, 79, 100
9, 200640, Note_on_c, 7, 79, 0
9, 200640, Note_on_c, 7, 81, 100
9, 200760, Note_on_c, 7, 81, 0
9, 200760, Note_on_c, 7, 81, 100
9, 200880, Note_on_c, 7, 81, 0
9, 200880, Note_on_c, 7, 67, 100
9, 201000, Note_on_c, 7, 67, 0
9, 201000, Note_on_c, 7, 67, 100
9, 201120, Note_on_c, 7, 67, 0
9, 201120, Note_on_c, 7, 65, 100
9, 201240, Note_on_c, 7, 65, 0
9, 201240, Note_on_c, 7, 70, 100
9, 201480, Note_on_c, 7, 70, 0
9, 201480, Note_on_c, 7, 69, 100
9, 201600, Note_on_c, 7, 69, 0
9, 202320, Note_on_c, 7, 67, 100
9, 202440, Note_on_c, 7, 67, 0
9, 202440, Note_on_c, 7, 67, 100
9, 202560, Note_on_c, 7, 67, 0
9, 202560, Note_on_c, 7, 65, 100
9, 202680, Note_on_c, 7, 65, 0
9, 202680, Note_on_c, 7, 70, 100
9, 202920, Note_on_c, 7, 70, 0
9, 202920, Note_on_c, 7, 69, 100
9, 203040, Note_on_c, 7, 69, 0
9, 203040, Note_on_c, 7, 74, 100
9, 203280, Note_on_c, 7, 74, 0
9, 203280, Note_on_c, 7, 72, 100
9, 203400, Note_on_c, 7, 72, 0
9, 203400, Note_on_c, 7, 77, 100
9, 203640, Note_on_c, 7, 77, 0
9, 203640, Note_on_c, 7, 76, 100
9, 203760, Note_on_c, 7, 76, 0
9, 203760, Note_on_c, 7, 81, 100
9, 204000, Note_on_c, 7, 81, 0
9, 204000, Note_on_c, 7, 79, 100
9, 204120, Note_on_c, 7, 79, 0
9, 204120, Note_on_c, 7, 83, 100
9, 204360, Note_on_c, 7, 83, 0
9, 204360, Note_on_c, 7, 84, 100
9, 204480, Note_on_c, 7, 84, 0
9, 204480, Note_on_c, 7, 83, 100
9, 204510, Note_on_c, 7, 83, 0
9, 204510, Note_on_c, 7, 84, 100
9, 204540, Note_on_c, 7, 84, 0
9, 204540, Note_on_c, 7, 83, 100
9, 204570, Note_on_c, 7, 83, 0
9, 204570, Note_on_c, 7, 84, 100
9, 204600, Note_on_c, 7, 84, 0
9, 204600, Note_on_c, 7, 83, 100
9, 204630, Note_on_c, 7, 83, 0
9, 204630, Note_on_c, 7, 84, 100
9, 204660, Note_on_c, 7, 84, 0
9, 204660, Note_on_c, 7, 83, 100
9, 204690, Note_on_c, 7, 83, 0
9, 204690, Note_on_c, 7, 84, 100
9, 204720, Note_on_c, 7, 84, 0
9, 204720, Note_on_c, 7, 83, 100
9, 204750, Note_on_c, 7, 83, 0
9, 204750, Note_on_c, 7, 84, 100
9, 204780, Note_on_c, 7, 84, 0
9, 204780, Note_on_c, 7, 81, 100
9, 204810, Note_on_c, 7, 81, 0
9, 204810, Note_on_c, 7, 83, 100
9, 204840, Note_on_c, 7, 83, 0
9, 204840, Note_on_c, 7, 84, 100
9, 204960, Note_on_c, 7, 84, 0
9, 204960, Note_on_c, 7, 79, 100
9, 205080, Note_on_c, 7, 79, 0
9, 205080, Note_on_c, 7, 76, 100
9, 205200, Note_on_c, 7, 76, 0
9, 205200, Note_on_c, 7, 77, 100
9, 205230, Note_on_c, 7, 77, 0
9, 205230, Note_on_c, 7, 79, 100
9, 205260, Note_on_c, 7, 79, 0
9, 205260, Note_on_c, 7, 77, 100
9, 205290, Note_on_c, 7, 77, 0
9, 205290, Note_on_c, 7, 79, 100
9, 205320, Note_on_c, 7, 79, 0
9, 205320, Note_on_c, 7, 77, 100
9, 205350, Note_on_c, 7, 77, 0
9, 205350, Note_on_c, 7, 79, 100
9, 205380, Note_on_c, 7, 79, 0
9, 205380, Note_on_c, 7, 77, 100
9, 205410, Note_on_c, 7, 77, 0
9, 205410, Note_on_c, 7, 79, 100
9, 205440, Note_on_c, 7, 79, 0
9, 205440, Note_on_c, 7, 77, 100
9, 205470, Note_on_c, 7, 77, 0
9, 205470, Note_on_c, 7, 79, 100
9, 205500, Note_on_c, 7, 79, 0
9, 205500, Note_on_c, 7, 76, 100
9, 205530, Note_on_c, 7, 76, 0
9, 205530, Note_on_c, 7, 77, 100
9, 205560, Note_on_c, 7, 77, 0
9, 205560, Note_on_c, 7, 76, 100
9, 205680, Note_on_c, 7, 76, 0
9, 205680, Note_on_c, 7, 79, 100
9, 205800, Note_on_c, 7, 79, 0
9, 205800, Note_on_c, 7, 84, 100
9, 205920, Note_on_c, 7, 84, 0
9, 205920, Note_on_c, 7, 83, 100
9, 205950, Note_on_c, 7, 83, 0
9, 205950, Note_on_c, 7, 84, 100
9, 205980, Note_on_c, 7, 84, 0
9, 205980, Note_on_c, 7, 83, 100
9, 206010, Note_on_c, 7, 83, 0
9, 206010, Note_on_c, 7, 84, 100
9, 206040, Note_on_c, 7, 84, 0
9, 206040, Note_on_c, 7, 83, 100
9, 206070, Note_on_c, 7, 83, 0
9, 206070, Note_on_c, 7, 84, 100
9, 206100, Note_on_c, 7, 84, 0
9, 206100, Note_on_c, 7, 83, 100
9, 206130, Note_on_c, 7, 83, 0
9, 206130, Note_on_c, 7, 84, 100
9, 206160, Note_on_c, 7, 84, 0
9, 206160, Note_on_c, 7, 83, 100
9, 206190, Note_on_c, 7, 83, 0
9, 206190, Note_on_c, 7, 84, 100
9, 206220, Note_on_c, 7, 84, 0
9, 206220, Note_on_c, 7, 81, 100
9, 206250, Note_on_c, 7, 81, 0
9, 206250, Note_on_c, 7, 83, 100
9, 206280, Note_on_c, 7, 83, 0
9, 206280, Note_on_c, 7, 84, 100
9, 206400, Note_on_c, 7, 84, 0
9, 206400, Note_on_c, 7, 79, 100
9, 206520, Note_on_c, 7, 79, 0
9, 206520, Note_on_c, 7, 76, 100
9, 206640, Note_on_c, 7, 76, 0
9, 206640, Note_on_c, 7, 83, 100
9, 206670, Note_on_c, 7, 83, 0
9, 206670, Note_on_c, 7, 84, 100
9, 206700, Note_on_c, 7, 84, 0
9, 206700, Note_on_c, 7, 83, 100
9, 206730, Note_on_c, 7, 83, 0
9, 206730, Note_on_c, 7, 84, 100
9, 206760, Note_on_c, 7, 84, 0
9, 206760, Note_on_c, 7, 83, 100
9, 206790, Note_on_c, 7, 83, 0
9, 206790, Note_on_c, 7, 84, 100
9, 206820, Note_on_c, 7, 84, 0
9, 206820, Note_on_c, 7, 83, 100
9, 206850, Note_on_c, 7, 83, 0
9, 206850, Note_on_c, 7, 84, 100
9, 206880, Note_on_c, 7, 84, 0
9, 206880, Note_on_c, 7, 83, 100
9, 206910, Note_on_c, 7, 83, 0
9, 206910, Note_on_c, 7, 84, 100
9, 206940, Note_on_c, 7, 84, 0
9, 206940, Note_on_c, 7, 81, 100
9, 206970, Note_on_c, 7, 81, 0
9, 206970, Note_on_c, 7, 83, 100
9, 207000, Note_on_c, 7, 83, 0
9, 207000, Note_on_c, 7, 84, 100
9, 207120, Note_on_c, 7, 84, 0
9, 207120, Note_on_c, 7, 79, 100
9, 207240, Note_on_c, 7, 79, 0
9, 207240, Note_on_c, 7, 76, 100
9, 207360, Note_on_c, 7, 76, 0
9, 207360, Note_on_c, 7, 76, 100
9, 207390, Note_on_c, 7, 76, 0
9, 207390, Note_on_c, 7, 77, 100
9, 207420, Note_on_c, 7, 77, 0
9, 207420, Note_on_c, 7, 76, 100
9, 207450, Note_on_c, 7, 76, 0
9, 207450, Note_on_c, 7, 77, 100
9, 207480, Note_on_c, 7, 77, 0
9, 207480, Note_on_c, 7, 76, 100
9, 207510, Note_on_c, 7, 76, 0
9, 207510, Note_on_c, 7, 77, 100
9, 207540, Note_on_c, 7, 77, 0
9, 207540, Note_on_c, 7, 76, 100
9, 207570, Note_on_c, 7, 76, 0
9, 207570, Note_on_c, 7, 77, 100
9, 207600, Note_on_c, 7, 77, 0
9, 207600, Note_on_c, 7, 76, 100
9, 207630, Note_on_c, 7, 76, 0
9, 207630, Note_on_c, 7, 77, 100
9, 207660, Note_on_c, 7, 77, 0
9, 207660, Note_on_c, 7, 74, 100
9, 207690, Note_on_c, 7, 74, 0
9, 207690, Note_on_c, 7, 76, 100
9, 207720, Note_on_c, 7, 76, 0
9, 207720, Note_on_c, 7, 77, 100
9, 207840, Note_on_c, 7, 77, 0
9, 207840, Note_on_c, 7, 72, 100
9, 207960, Note_on_c, 7, 72, 0
9, 207960, Note_on_c, 7, 69, 100
9, 208080, Note_on_c, 7, 69, 0
9, 208080, Note_on_c, 7, 70, 100
9, 208110, Note_on_c, 7, 70, 0
9, 208110, Note_on_c, 7, 72, 100
9, 208140, Note_on_c, 7, 72, 0
9, 208140, Note_on_c, 7, 70, 100
9, 208170, Note_on_c, 7, 70, 0
9, 208170, Note_on_c, 7, 72, 100
9, 208200, Note_on_c, 7, 72, 0
9, 208200, Note_on_c, 7, 70, 100
9, 208230, Note_on_c, 7, 70, 0
9, 208230, Note_on_c, 7, 72, 100
9, 208260, Note_on_c, 7, 72, 0
9, 208260, Note_on_c, 7, 70, 100
9, 208290, Note_on_c, 7, 70, 0
9, 208290, Note_on_c, 7, 72, 100
9, 208320, Note_on_c, 7, 72, 0
9, 208320, Note_on_c, 7, 70, 100
9, 208350, Note_on_c, 7, 70, 0
9, 208350, Note_on_c, 7, 72, 100
9, 208380, Note_on_c, 7, 72, 0
9, 208380, Note_on_c, 7, 69, 100
9, 208410, Note_on_c, 7, 69, 0
9, 208410, Note_on_c, 7, 70, 100
9, 208440, Note_on_c, 7, 70, 0
9, 208440, Note_on_c, 7, 69, 100
9, 208560, Note_on_c, 7, 69, 0
9, 208560, Note_on_c, 7, 72, 100
9, 208680, Note_on_c, 7, 72, 0
9, 208680, Note_on_c, 7, 77, 100
9, 208800, Note_on_c, 7, 77, 0
9, 208800, Note_on_c, 7, 76, 100
9, 208830, Note_on_c, 7, 76, 0
9, 208830, Note_on_c, 7, 77, 100
9, 208860, Note_on_c, 7, 77, 0
9, 208860, Note_on_c, 7, 76, 100
9, 208890, Note_on_c, 7, 76, 0
9, 208890, Note_on_c, 7, 77, 100
9, 208920, Note_on_c, 7, 77, 0
9, 208920, Note_on_c, 7, 76, 100
9, 208950, Note_on_c, 7, 76, 0
9, 208950, Note_on_c, 7, 77, 100
9, 208980, Note_on_c, 7, 77, 0
9, 208980, Note_on_c, 7, 76, 100
9, 209010, Note_on_c, 7, 76, 0
9, 209010, Note_on_c, 7, 77, 100
9, 209040, Note_on_c, 7, 77, 0
9, 209040, Note_on_c, 7, 76, 100
9, 209070, Note_on_c, 7, 76, 0
9, 209070, Note_on_c, 7, 77, 100
9, 209100, Note_on_c, 7, 77, 0
9, 209100, Note_on_c, 7, 74, 100
9, 209130, Note_on_c, 7, 74, 0
9, 209130, Note_on_c, 7, 76, 100
9, 209160, Note_on_c, 7, 76, 0
9, 209160, Note_on_c, 7, 77, 100
9, 209280, Note_on_c, 7, 77, 0
9, 209280, Note_on_c, 7, 72, 100
9, 209400, Note_on_c, 7, 72, 0
9, 209400, Note_on_c, 7, 69, 100
9, 209520, Note_on_c, 7, 69, 0
9, 209520, Note_on_c, 7, 76, 100
9, 209550, Note_on_c, 7, 76, 0
9, 209550, Note_on_c, 7, 77, 100
9, 209580, Note_on_c, 7, 77, 0
9, 209580, Note_on_c, 7, 76, 100
9, 209610, Note_on_c, 7, 76, 0
9, 209610, Note_on_c, 7, 77, 100
9, 209640, Note_on_c, 7, 77, 0
9, 209640, Note_on_c, 7, 76, 100
9, 209670, Note_on_c, 7, 76, 0
9, 209670, Note_on_c, 7, 77, 100
9, 209700, Note_on_c, 7, 77, 0
9, 209700, Note_on_c, 7, 76, 100
9, 209730, Note_on_c, 7, 76, 0
9, 209730, Note_on_c, 7, 77, 100
9, 209760, Note_on_c, 7, 77, 0
9, 209760, Note_on_c, 7, 76, 100
9, 209790, Note_on_c, 7, 76, 0
9, 209790, Note_on_c, 7, 77, 100
9, 209820, Note_on_c, 7, 77, 0
9, 209820, Note_on_c, 7, 74, 100
9, 209850, Note_on_c, 7, 74, 0
9, 209850, Note_on_c, 7, 76, 100
9, 209880, Note_on_c, 7, 76, 0
9, 209880, Note_on_c, 7, 77, 100
9, 210000, Note_on_c, 7, 77, 0
9, 210000, Note_on_c, 7, 72, 100
9, 210120, Note_on_c, 7, 72, 0
9, 210120, Note_on_c, 7, 69, 100
9, 210240, Note_on_c, 7, 69, 0
9, 210240, Note_on_c, 7, 76, 100
9, 210270, Note_on_c, 7, 76, 0
9, 210270, Note_on_c, 7, 77, 100
9, 210300, Note_on_c, 7, 77, 0
9, 210300, Note_on_c, 7, 76, 100
9, 210330, Note_on_c, 7, 76, 0
9, 210330, Note_on_c, 7, 77, 100
9, 210360, Note_on_c, 7, 77, 0
9, 210360, Note_on_c, 7, 76, 100
9, 210390, Note_on_c, 7, 76, 0
9, 210390, Note_on_c, 7, 77, 100
9, 210420, Note_on_c, 7, 77, 0
9, 210420, Note_on_c, 7, 76, 100
9, 210450, Note_on_c, 7, 76, 0
9, 210450, Note_on_c, 7, 77, 100
9, 210480, Note_on_c, 7, 77, 0
9, 210480, Note_on_c, 7, 76, 100
9, 210510, Note_on_c, 7, 76, 0
9, 210510, Note_on_c, 7, 77, 100
9, 210540, Note_on_c, 7, 77, 0
9, 210540, Note_on_c, 7, 74, 100
9, 210570, Note_on_c, 7, 74, 0
9, 210570, Note_on_c, 7, 76, 100
9, 210600, Note_on_c, 7, 76, 0
9, 210600, Note_on_c, 7, 77, 100
9, 210720, Note_on_c, 7, 77, 0
9, 210720, Note_on_c, 7, 72, 100
9, 210840, Note_on_c, 7, 72, 0
9, 210840, Note_on_c, 7, 69, 100
9, 210960, Note_on_c, 7, 69, 0
9, 210960, Note_on_c, 7, 65, 100
9, 211080, Note_on_c, 7, 65, 0
9, 211080, Note_on_c, 7, 60, 100
9, 211200, Note_on_c, 7, 60, 0
9, 211200, Note_on_c, 7, 57, 100
9, 211320, Note_on_c, 7, 57, 0
9, 211320, Note_on_c, 7, 57, 100
9, 211320, Note_on_c, 7, 65, 100
9, 211440, Note_on_c, 7, 65, 0
9, 211440, Note_on_c, 7, 57, 0
9, 212640, Note_on_c, 7, 77, 100
9, 212760, Note_on_c, 7, 77, 0
9, 212760, Note_on_c, 7, 77, 100
9, 212790, Note_on_c, 7, 77, 0
9, 212790, Note_on_c, 7, 81, 100
9, 212880, Note_on_c, 7, 81, 0
9, 212880, Note_on_c, 7, 77, 100
9, 212940, Note_on_c, 7, 77, 0
9, 213000, Note_on_c, 7, 77, 100
9, 213120, Note_on_c, 7, 77, 0
9, 213120, Note_on_c, 7, 77, 100
9, 213150, Note_on_c, 7, 77, 0
9, 213150, Note_on_c, 7, 81, 100
9, 213240, Note_on_c, 7, 81, 0
9, 213240, Note_on_c, 7, 77, 100
9, 213300, Note_on_c, 7, 77, 0
9, 213360, Note_on_c, 7, 77, 100
9, 213480, Note_on_c, 7, 77, 0
9, 213480, Note_on_c, 7, 77, 100
9, 213510, Note_on_c, 7, 77, 0
9, 213510, Note_on_c, 7, 81, 100
9, 213600, Note_on_c, 7, 81, 0
9, 213600, Note_on_c, 7, 77, 100
9, 213720, Note_on_c, 7, 77, 0
9, 213720, Note_on_c, 7, 77, 100
9, 213840, Note_on_c, 7, 77, 0
9, 213840, Note_on_c, 7, 77, 100
9, 213870, Note_on_c, 7, 77, 0
9, 213870, Note_on_c, 7, 81, 100
9, 213960, Note_on_c, 7, 81, 0
9, 213960, Note_on_c, 7, 77, 100
9, 214080, Note_on_c, 7, 77, 0
9, 214080, Note_on_c, 7, 77, 100
9, 214200, Note_on_c, 7, 77, 0
9, 214200, Note_on_c, 7, 77, 100
9, 214230, Note_on_c, 7, 77, 0
9, 214230, Note_on_c, 7, 81, 100
9, 214320, Note_on_c, 7, 81, 0
9, 214320, Note_on_c, 7, 77, 100
9, 214440, Note_on_c, 7, 77, 0
9, 214440, Note_on_c, 7, 77, 100
9, 214560, Note_on_c, 7, 77, 0
9, 214560, Note_on_c, 7, 81, 100
9, 214560, Note_on_c, 7, 69, 100
9, 216000, Note_on_c, 7, 69, 0
9, 218460, Note_on_c, 7, 81, 0
9, 218460, Note_on_c, 7, 80, 100
9, 218520, Note_on_c, 7, 80, 0
9, 218520, Note_on_c, 7, 81, 100
9, 218820, Note_on_c, 7, 81, 0
9, 218820, Note_on_c, 7, 80, 100
9, 218880, Note_on_c, 7, 80, 0
9, 218880, Note_on_c, 7, 81, 100
9, 221280, Note_on_c, 7, 81, 0
9, 221280, Note_on_c, 7, 78, 100
9, 221400, Note_on_c, 7, 78, 0
9, 221400, Note_on_c, 7, 81, 100
9, 221520, Note_on_c, 7, 81, 0
9, 221520, Note_on_c, 7, 79, 100
9, 221640, Note_on_c, 7, 79, 0
9, 221640, Note_on_c, 7, 76, 100
9, 221700, Note_on_c, 7, 76, 0
9, 221700, Note_on_c, 7, 81, 100
9, 221760, Note_on_c, 7, 81, 0
9, 221760, Note_on_c, 7, 81, 100
9, 224160, Note_on_c, 7, 81, 0
9, 224160, Note_on_c, 7, 81, 100
9, 224220, Note_on_c, 7, 81, 0
9, 224220, Note_on_c, 7, 80, 100
9, 224280, Note_on_c, 7, 80, 0
9, 224280, Note_on_c, 7, 81, 100
9, 224580, Note_on_c, 7, 81, 0
9, 224580, Note_on_c, 7, 80, 100
9, 224640, Note_on_c, 7, 80, 0
9, 224640, Note_on_c, 7, 81, 100
9, 227040, Note_on_c, 7, 81, 0
9, 227040, Note_on_c, 7, 78, 100
9, 227160, Note_on_c, 7, 78, 0
9, 227160, Note_on_c, 7, 81, 100
9, 227280, Note_on_c, 7, 81, 0
9, 227280, Note_on_c, 7, 78, 100
9, 227400, Note_on_c, 7, 78, 0
9, 227400, Note_on_c, 7, 74, 100
9, 227460, Note_on_c, 7, 74, 0
9, 227460, Note_on_c, 7, 81, 100
9, 227520, Note_on_c, 7, 81, 0
9, 227520, Note_on_c, 7, 81, 100
9, 229980, Note_on_c, 7, 81, 0
9, 229980, Note_on_c, 7, 80, 100
9, 230040, Note_on_c, 7, 80, 0
9, 230040, Note_on_c, 7, 81, 100
9, 230340, Note_on_c, 7, 81, 0
9, 230340, Note_on_c, 7, 80, 100
9, 230400, Note_on_c, 7, 80, 0
9, 230400, Note_on_c, 7, 81, 100
9, 233220, Note_on_c, 7, 81, 0
9, 233220, Note_on_c, 7, 80, 100
9, 233280, Note_on_c, 7, 80, 0
9, 233280, Note_on_c, 7, 81, 100
9, 233940, Note_on_c, 7, 81, 0
9, 233940, Note_on_c, 7, 80, 100
9, 234000, Note_on_c, 7, 80, 0
9, 234000, Note_on_c, 7, 81, 100
9, 236280, Note_on_c, 7, 81, 0
9, 236280, Note_on_c, 7, 85, 100
9, 236520, Note_on_c, 7, 85, 0
9, 236520, Note_on_c, 7, 85, 100
9, 236760, Note_on_c, 7, 85, 0
9, 236760, Note_on_c, 7, 85, 100
9, 236880, Note_on_c, 7, 85, 0
9, 236880, Note_on_c, 7, 74, 100
9, 236880, Note_on_c, 7, 86, 100
9, 237180, Note_on_c, 7, 86, 0
9, 237180, Note_on_c, 7, 74, 0
9, 237180, Note_on_c, 7, 85, 100
9, 237240, Note_on_c, 7, 85, 0
9, 237240, Note_on_c, 7, 74, 100
9, 237240, Note_on_c, 7, 86, 100
9, 237360, Note_on_c, 7, 86, 0
9, 237360, Note_on_c, 7, 74, 0
9, 237600, Note_on_c, 7, 74, 100
9, 237600, Note_on_c, 7, 86, 100
9, 237900, Note_on_c, 7, 86, 0
9, 237900, Note_on_c, 7, 74, 0
9, 237900, Note_on_c, 7, 85, 100
9, 237960, Note_on_c, 7, 85, 0
9, 237960, Note_on_c, 7, 86, 100
9, 237960, Note_on_c, 7, 74, 100
9, 238080, Note_on_c, 7, 74, 0
9, 238080, Note_on_c, 7, 86, 0
9, 238320, Note_on_c, 7, 86, 100
9, 238440, Note_on_c, 7, 86, 0
9, 238440, Note_on_c, 7, 74, 100
9, 238560, Note_on_c, 7, 74, 0
9, 238560, Note_on_c, 7, 76, 100
9, 238680, Note_on_c, 7, 76, 0
9, 238680, Note_on_c, 7, 78, 100
9, 238800, Note_on_c, 7, 78, 0
9, 238800, Note_on_c, 7, 79, 100
9, 238920, Note_on_c, 7, 79, 0
9, 238920, Note_on_c, 7, 78, 100
9, 239040, Note_on_c, 7, 78, 0
9, 239040, Note_on_c, 7, 57, 100
9, 239040, Note_on_c, 7, 69, 100
9, 239040, Note_on_c, 7, 76, 100
9, 239160, Note_on_c, 7, 76, 0
9, 239160, Note_on_c, 7, 69, 0
9, 239160, Note_on_c, 7, 57, 0
9, 239760, Note_on_c, 7, 88, 100
9, 239760, Note_on_c, 7, 76, 100
9, 240060, Note_on_c, 7, 76, 0
9, 240060, Note_on_c, 7, 88, 0
9, 240060, Note_on_c, 7, 87, 100
9, 240120, Note_on_c, 7, 87, 0
9, 240120, Note_on_c, 7, 76, 100
9, 240120, Note_on_c, 7, 88, 100
9, 240240, Note_on_c, 7, 88, 0
9, 240240, Note_on_c, 7, 76, 0
9, 240480, Note_on_c, 7, 88, 100
9, 240480, Note_on_c, 7, 76, 100
9, 240780, Note_on_c, 7, 76, 0
9, 240780, Note_on_c, 7, 88, 0
9, 240780, Note_on_c, 7, 87, 100
9, 240840, Note_on_c, 7, 87, 0
9, 240840, Note_on_c, 7, 88, 100
9, 240840, Note_on_c, 7, 76, 100
9, 240960, Note_on_c, 7, 76, 0
9, 240960, Note_on_c, 7, 88, 0
9, 241200, Note_on_c, 7, 88, 100
9, 241320, Note_on_c, 7, 88, 0
9, 241320, Note_on_c, 7, 76, 100
9, 241440, Note_on_c, 7, 76, 0
9, 241440, Note_on_c, 7, 78, 100
9, 241560, Note_on_c, 7, 78, 0
9, 241560, Note_on_c, 7, 81, 100
9, 241680, Note_on_c, 7, 81, 0
9, 241680, Note_on_c, 7, 79, 100
9, 241800, Note_on_c, 7, 79, 0
9, 241800, Note_on_c, 7, 67, 100
9, 241800, Note_on_c, 7, 76, 100
9, 241920, Note_on_c, 7, 76, 0
9, 241920, Note_on_c, 7, 67, 0
9, 241920, Note_on_c, 7, 74, 100
9, 241920, Note_on_c, 7, 66, 100
9, 242040, Note_on_c, 7, 66, 0
9, 242040, Note_on_c, 7, 74, 0
9, 242640, Note_on_c, 7, 81, 100
9, 245100, Note_on_c, 7, 81, 0
9, 245100, Note_on_c, 7, 80, 100
9, 245160, Note_on_c, 7, 80, 0
9, 245160, Note_on_c, 7, 81, 100
9, 245460, Note_on_c, 7, 81, 0
9, 245460, Note_on_c, 7, 80, 100
9, 245520, Note_on_c, 7, 80, 0
9, 245520, Note_on_c, 7, 81, 100
9, 248340, Note_on_c, 7, 81, 0
9, 248340, Note_on_c, 7, 80, 100
9, 248400, Note_on_c, 7, 80, 0
9, 248400, Note_on_c, 7, 81, 100
9, 249060, Note_on_c, 7, 81, 0
9, 249060, Note_on_c, 7, 80, 100
9, 249120, Note_on_c, 7, 80, 0
9, 249120, Note_on_c, 7, 81, 100
9, 251400, Note_on_c, 7, 81, 0
9, 251400, Note_on_c, 7, 85, 100
9, 251640, Note_on_c, 7, 85, 0
9, 251640, Note_on_c, 7, 85, 100
9, 251880, Note_on_c, 7, 85, 0
9, 251880, Note_on_c, 7, 85, 100
9, 252000, Note_on_c, 7, 85, 0
9, 252000, Note_on_c, 7, 74, 100
9, 252000, Note_on_c, 7, 86, 100
9, 252300, Note_on_c, 7, 86, 0
9, 252300, Note_on_c, 7, 74, 0
9, 252300, Note_on_c, 7, 85, 100
9, 252360, Note_on_c, 7, 85, 0
9, 252360, Note_on_c, 7, 74, 100
9, 252360, Note_on_c, 7, 86, 100
9, 252480, Note_on_c, 7, 86, 0
9, 252480, Note_on_c, 7, 74, 0
9, 252720, Note_on_c, 7, 74, 100
9, 252720, Note_on_c, 7, 86, 100
9, 253020, Note_on_c, 7, 86, 0
9, 253020, Note_on_c, 7, 74, 0
9, 253020, Note_on_c, 7, 85, 100
9, 253080, Note_on_c, 7, 85, 0
9, 253080, Note_on_c, 7, 86, 100
9, 253080, Note_on_c, 7, 74, 100
9, 253200, Note_on_c, 7, 74, 0
9, 253200, Note_on_c, 7, 86, 0
9, 253440, Note_on_c, 7, 86, 100
9, 253560, Note_on_c, 7, 86, 0
9, 253560, Note_on_c, 7, 74, 100
9, 253680, Note_on_c, 7, 74, 0
9, 253680, Note_on_c, 7, 76, 100
9, 253800, Note_on_c, 7, 76, 0
9, 253800, Note_on_c, 7, 78, 100
9, 253920, Note_on_c, 7, 78, 0
9, 253920, Note_on_c, 7, 79, 100
9, 254040, Note_on_c, 7, 79, 0
9, 254040, Note_on_c, 7, 78, 100
9, 254160, Note_on_c, 7, 78, 0
9, 254160, Note_on_c, 7, 57, 100
9, 254160, Note_on_c, 7, 69, 100
9, 254160, Note_on_c, 7, 76, 100
9, 254280, Note_on_c, 7, 76, 0
9, 254280, Note_on_c, 7, 69, 0
9, 254280, Note_on_c, 7, 57, 0
9, 254880, Note_on_c, 7, 88, 100
9, 254880, Note_on_c, 7, 76, 100
9, 255180, Note_on_c, 7, 76, 0
9, 255180, Note_on_c, 7, 88, 0
9, 255180, Note_on_c, 7, 87, 100
9, 255240, Note_on_c, 7, 87, 0
9, 255240, Note_on_c, 7, 76, 100
9, 255240, Note_on_c, 7, 88, 100
9, 255360, Note_on_c, 7, 88, 0
9, 255360, Note_on_c, 7, 76, 0
9, 255600, Note_on_c, 7, 88, 100
9, 255600, Note_on_c, 7, 76, 100
9, 255900, Note_on_c, 7, 76, 0
9, 255900, Note_on_c, 7, 88, 0
9, 255900, Note_on_c, 7, 87, 100
9, 255960, Note_on_c, 7, 87, 0
9, 255960, Note_on_c, 7, 88, 100
9, 255960, Note_on_c, 7, 76, 100
9, 256080, Note_on_c, 7, 76, 0
9, 256080, Note_on_c, 7, 88, 0
9, 256320, Note_on_c, 7, 88, 100
9, 256440, Note_on_c, 7, 88, 0
9, 256440, Note_on_c, 7, 76, 100
9, 256560, Note_on_c, 7, 76, 0
9, 256560, Note_on_c, 7, 78, 100
9, 256680, Note_on_c, 7, 78, 0
9, 256680, Note_on_c, 7, 81, 100
9, 256800, Note_on_c, 7, 81, 0
9, 256800, Note_on_c, 7, 79, 100
9, 256920, Note_on_c, 7, 79, 0
9, 256920, Note_on_c, 7, 67, 100
9, 256920, Note_on_c, 7, 76, 100
9, 257040, Note_on_c, 7, 76, 0
9, 257040, Note_on_c, 7, 67, 0
9, 257040, Note_on_c, 7, 74, 100
9, 257040, Note_on_c, 7, 66, 100
9, 257160, Note_on_c, 7, 66, 0
9, 257160, Note_on_c, 7, 74, 0
9, 257760, Note_on_c, 7, 66, 100
9, 258480, Note_on_c, 7, 66, 0
9, 258480, Note_on_c, 7, 67, 100
9, 259200, Note_on_c, 7, 67, 0
9, 259200, Note_on_c, 7, 66, 100
9, 259920, Note_on_c, 7, 66, 0
9, 259920, Note_on_c, 7, 64, 100
9, 260640, Note_on_c, 7, 64, 0
9, 260640, Note_on_c, 7, 66, 100
9, 261360, Note_on_c, 7, 66, 0
9, 261360, Note_on_c, 7, 67, 100
9, 262080, Note_on_c, 7, 67, 0
9, 262080, Note_on_c, 7, 67, 100
9, 262680, Note_on_c, 7, 67, 0
9, 262680, Note_on_c, 7, 65, 100
9, 262800, Note_on_c, 7, 65, 0
9, 262800, Note_on_c, 7, 65, 100
9, 262830, Note_on_c, 7, 65, 0
9, 262830, Note_on_c, 7, 69, 100
9, 262920, Note_on_c, 7, 69, 0
9, 262920, Note_on_c, 7, 65, 100
9, 262980, Note_on_c, 7, 65, 0
9, 263040, Note_on_c, 7, 69, 100
9, 263160, Note_on_c, 7, 69, 0
9, 263160, Note_on_c, 7, 69, 100
9, 263190, Note_on_c, 7, 69, 0
9, 263190, Note_on_c, 7, 72, 100
9, 263280, Note_on_c, 7, 72, 0
9, 263280, Note_on_c, 7, 69, 100
9, 263340, Note_on_c, 7, 69, 0
9, 263400, Note_on_c, 7, 72, 100
9, 263520, Note_on_c, 7, 72, 0
9, 263520, Note_on_c, 7, 77, 100
9, 263640, Note_on_c, 7, 77, 0
9, 263640, Note_on_c, 7, 77, 100
9, 263760, Note_on_c, 7, 77, 0
9, 263760, Note_on_c, 7, 76, 100
9, 263880, Note_on_c, 7, 76, 0
9, 263880, Note_on_c, 7, 74, 100
9, 264000, Note_on_c, 7, 74, 0
9, 264000, Note_on_c, 7, 74, 100
9, 264120, Note_on_c, 7, 74, 0
9, 264120, Note_on_c, 7, 72, 100
9, 264240, Note_on_c, 7, 72, 0
9, 264240, Note_on_c, 7, 70, 100
9, 264360, Note_on_c, 7, 70, 0
9, 264360, Note_on_c, 7, 70, 100
9, 264480, Note_on_c, 7, 70, 0
9, 264480, Note_on_c, 7, 69, 100
9, 264600, Note_on_c, 7, 69, 0
9, 264600, Note_on_c, 7, 67, 100
9, 264960, Note_on_c, 7, 67, 0
9, 264960, Note_on_c, 7, 79, 100
9, 265080, Note_on_c, 7, 79, 0
9, 265080, Note_on_c, 7, 79, 100
9, 265200, Note_on_c, 7, 79, 0
9, 265200, Note_on_c, 7, 77, 100
9, 265320, Note_on_c, 7, 77, 0
9, 265320, Note_on_c, 7, 76, 100
9, 265440, Note_on_c, 7, 76, 0
9, 265440, Note_on_c, 7, 76, 100
9, 265560, Note_on_c, 7, 76, 0
9, 265560, Note_on_c, 7, 74, 100
9, 265680, Note_on_c, 7, 74, 0
9, 265680, Note_on_c, 7, 72, 100
9, 265800, Note_on_c, 7, 72, 0
9, 265800, Note_on_c, 7, 72, 100
9, 265920, Note_on_c, 7, 72, 0
9, 265920, Note_on_c, 7, 70, 100
9, 266040, Note_on_c, 7, 70, 0
9, 266040, Note_on_c, 7, 69, 100
9, 266400, Note_on_c, 7, 69, 0
9, 266400, Note_on_c, 7, 67, 100
9, 266520, Note_on_c, 7, 67, 0
9, 266520, Note_on_c, 7, 67, 100
9, 266640, Note_on_c, 7, 67, 0
9, 266640, Note_on_c, 7, 65, 100
9, 266760, Note_on_c, 7, 65, 0
9, 266760, Note_on_c, 7, 70, 100
9, 267000, Note_on_c, 7, 70, 0
9, 267000, Note_on_c, 7, 69, 100
9, 267120, Note_on_c, 7, 69, 0
9, 267120, Note_on_c, 7, 67, 100
9, 267240, Note_on_c, 7, 67, 0
9, 267240, Note_on_c, 7, 67, 100
9, 267360, Note_on_c, 7, 67, 0
9, 267360, Note_on_c, 7, 65, 100
9, 267480, Note_on_c, 7, 65, 0
9, 267480, Note_on_c, 7, 70, 100
9, 267720, Note_on_c, 7, 70, 0
9, 267720, Note_on_c, 7, 69, 100
9, 267840, Note_on_c, 7, 69, 0
9, 267840, Note_on_c, 7, 74, 100
9, 268080, Note_on_c, 7, 74, 0
9, 268080, Note_on_c, 7, 73, 100
9, 268200, Note_on_c, 7, 73, 0
9, 268200, Note_on_c, 7, 77, 100
9, 268440, Note_on_c, 7, 77, 0
9, 268440, Note_on_c, 7, 76, 100
9, 268560, Note_on_c, 7, 76, 0
9, 268560, Note_on_c, 7, 80, 100
9, 268590, Note_on_c, 7, 80, 0
9, 268590, Note_on_c, 7, 81, 100
9, 268620, Note_on_c, 7, 81, 0
9, 268620, Note_on_c, 7, 80, 100
9, 268650, Note_on_c, 7, 80, 0
9, 268650, Note_on_c, 7, 81, 100
9, 268680, Note_on_c, 7, 81, 0
9, 268680, Note_on_c, 7, 80, 100
9, 268710, Note_on_c, 7, 80, 0
9, 268710, Note_on_c, 7, 81, 100
9, 268740, Note_on_c, 7, 81, 0
9, 268740, Note_on_c, 7, 80, 100
9, 268770, Note_on_c, 7, 80, 0
9, 268770, Note_on_c, 7, 81, 100
9, 268800, Note_on_c, 7, 81, 0
9, 268800, Note_on_c, 7, 80, 100
9, 268830, Note_on_c, 7, 80, 0
9, 268830, Note_on_c, 7, 81, 100
9, 268860, Note_on_c, 7, 81, 0
9, 268860, Note_on_c, 7, 78, 100
9, 268890, Note_on_c, 7, 78, 0
9, 268890, Note_on_c, 7, 80, 100
9, 268920, Note_on_c, 7, 80, 0
9, 268920, Note_on_c, 7, 81, 100
9, 269040, Note_on_c, 7, 81, 0
9, 269040, Note_on_c, 7, 76, 100
9, 269160, Note_on_c, 7, 76, 0
9, 269160, Note_on_c, 7, 73, 100
9, 269280, Note_on_c, 7, 73, 0
9, 269280, Note_on_c, 7, 74, 100
9, 269310, Note_on_c, 7, 74, 0
9, 269310, Note_on_c, 7, 76, 100
9, 269340, Note_on_c, 7, 76, 0
9, 269340, Note_on_c, 7, 74, 100
9, 269370, Note_on_c, 7, 74, 0
9, 269370, Note_on_c, 7, 76, 100
9, 269400, Note_on_c, 7, 76, 0
9, 269400, Note_on_c, 7, 74, 100
9, 269430, Note_on_c, 7, 74, 0
9, 269430, Note_on_c, 7, 76, 100
9, 269460, Note_on_c, 7, 76, 0
9, 269460, Note_on_c, 7, 74, 100
9, 269490, Note_on_c, 7, 74, 0
9, 269490, Note_on_c, 7, 76, 100
9, 269520, Note_on_c, 7, 76, 0
9, 269520, Note_on_c, 7, 74, 100
9, 269550, Note_on_c, 7, 74, 0
9, 269550, Note_on_c, 7, 76, 100
9, 269580, Note_on_c, 7, 76, 0
9, 269580, Note_on_c, 7, 73, 100
9, 269610, Note_on_c, 7, 73, 0
9, 269610, Note_on_c, 7, 74, 100
9, 269640, Note_on_c, 7, 74, 0
9, 269640, Note_on_c, 7, 73, 100
9, 269760, Note_on_c, 7, 73, 0
9, 269760, Note_on_c, 7, 76, 100
9, 269880, Note_on_c, 7, 76, 0
9, 269880, Note_on_c, 7, 81, 100
9, 270000, Note_on_c, 7, 81, 0
9, 270000, Note_on_c, 7, 80, 100
9, 270030, Note_on_c, 7, 80, 0
9, 270030, Note_on_c, 7, 81, 100
9, 270060, Note_on_c, 7, 81, 0
9, 270060, Note_on_c, 7, 80, 100
9, 270090, Note_on_c, 7, 80, 0
9, 270090, Note_on_c, 7, 81, 100
9, 270120, Note_on_c, 7, 81, 0
9, 270120, Note_on_c, 7, 80, 100
9, 270150, Note_on_c, 7, 80, 0
9, 270150, Note_on_c, 7, 81, 100
9, 270180, Note_on_c, 7, 81, 0
9, 270180, Note_on_c, 7, 80, 100
9, 270210, Note_on_c, 7, 80, 0
9, 270210, Note_on_c, 7, 81, 100
9, 270240, Note_on_c, 7, 81, 0
9, 270240, Note_on_c, 7, 80, 100
9, 270270, Note_on_c, 7, 80, 0
9, 270270, Note_on_c, 7, 81, 100
9, 270300, Note_on_c, 7, 81, 0
9, 270300, Note_on_c, 7, 78, 100
9, 270330, Note_on_c, 7, 78, 0
9, 270330, Note_on_c, 7, 80, 100
9, 270360, Note_on_c, 7, 80, 0
9, 270360, Note_on_c, 7, 81, 100
9, 270480, Note_on_c, 7, 81, 0
9, 270480, Note_on_c, 7, 76, 100
9, 270600, Note_on_c, 7, 76, 0
9, 270600, Note_on_c, 7, 73, 100
9, 270720, Note_on_c, 7, 73, 0
9, 270720, Note_on_c, 7, 69, 100
9, 270840, Note_on_c, 7, 69, 0
9, 270840, Note_on_c, 7, 64, 100
9, 270960, Note_on_c, 7, 64, 0
9, 270960, Note_on_c, 7, 61, 100
9, 271080, Note_on_c, 7, 61, 0
9, 271080, Note_on_c, 7, 57, 100
9, 271200, Note_on_c, 7, 57, 0
9, 272400, Note_on_c, 7, 81, 100
9, 272520, Note_on_c, 7, 81, 0
9, 272520, Note_on_c, 7, 81, 100
9, 272550, Note_on_c, 7, 81, 0
9, 272550, Note_on_c, 7, 85, 100
9, 272640, Note_on_c, 7, 85, 0
9, 272640, Note_on_c, 7, 81, 100
9, 272700, Note_on_c, 7, 81, 0
9, 275760, Note_on_c, 7, 79, 100
9, 276000, Note_on_c, 7, 79, 0
9, 276000, Note_on_c, 7, 78, 100
9, 276120, Note_on_c, 7, 78, 0
9, 276120, Note_on_c, 7, 79, 100
9, 276360, Note_on_c, 7, 79, 0
9, 276360, Note_on_c, 7, 78, 100
9, 276480, Note_on_c, 7, 78, 0
9, 276480, Note_on_c, 7, 79, 100
9, 276720, Note_on_c, 7, 79, 0
9, 276720, Note_on_c, 7, 78, 100
9, 276840, Note_on_c, 7, 78, 0
9, 276840, Note_on_c, 7, 79, 100
9, 277080, Note_on_c, 7, 79, 0
9, 277080, Note_on_c, 7, 78, 100
9, 277200, Note_on_c, 7, 78, 0
9, 278160, Note_on_c, 7, 83, 100
9, 278280, Note_on_c, 7, 83, 0
9, 278280, Note_on_c, 7, 86, 100
9, 278400, Note_on_c, 7, 86, 0
9, 278400, Note_on_c, 7, 83, 100
9, 278460, Note_on_c, 7, 83, 0
9, 281520, Note_on_c, 7, 82, 100
9, 281760, Note_on_c, 7, 82, 0
9, 281760, Note_on_c, 7, 81, 100
9, 281880, Note_on_c, 7, 81, 0
9, 281880, Note_on_c, 7, 82, 100
9, 282120, Note_on_c, 7, 82, 0
9, 282120, Note_on_c, 7, 81, 100
9, 282240, Note_on_c, 7, 81, 0
9, 282240, Note_on_c, 7, 82, 100
9, 282480, Note_on_c, 7, 82, 0
9, 282480, Note_on_c, 7, 81, 100
9, 282600, Note_on_c, 7, 81, 0
9, 282600, Note_on_c, 7, 82, 100
9, 282840, Note_on_c, 7, 82, 0
9, 282840, Note_on_c, 7, 81, 100
9, 282960, Note_on_c, 7, 81, 0
9, 283920, Note_on_c, 7, 81, 100
9, 284040, Note_on_c, 7, 81, 0
9, 284040, Note_on_c, 7, 84, 100
9, 284160, Note_on_c, 7, 84, 0
9, 284160, Note_on_c, 7, 81, 100
9, 284220, Note_on_c, 7, 81, 0
9, 284280, Note_on_c, 7, 74, 100
9, 284400, Note_on_c, 7, 74, 0
9, 284400, Note_on_c, 7, 75, 100
9, 284520, Note_on_c, 7, 75, 0
9, 284520, Note_on_c, 7, 75, 100
9, 284640, Note_on_c, 7, 75, 0
9, 284640, Note_on_c, 7, 74, 100
9, 284760, Note_on_c, 7, 74, 0
9, 284760, Note_on_c, 7, 79, 100
9, 285000, Note_on_c, 7, 79, 0
9, 285000, Note_on_c, 7, 77, 100
9, 285120, Note_on_c, 7, 77, 0
9, 285120, Note_on_c, 7, 75, 100
9, 285240, Note_on_c, 7, 75, 0
9, 285240, Note_on_c, 7, 75, 100
9, 285360, Note_on_c, 7, 75, 0
9, 285360, Note_on_c, 7, 74, 100
9, 285480, Note_on_c, 7, 74, 0
9, 285480, Note_on_c, 7, 79, 100
9, 285720, Note_on_c, 7, 79, 0
9, 285720, Note_on_c, 7, 77, 100
9, 285840, Note_on_c, 7, 77, 0
9, 285840, Note_on_c, 7, 77, 100
9, 285960, Note_on_c, 7, 77, 0
9, 286200, Program_c, 7, 45
9, 286200, Note_on_c, 7, 62, 100
9, 286200, Note_on_c, 7, 70, 100
9, 286320, Note_on_c, 7, 70, 0
9, 286320, Note_on_c, 7, 62, 0
9, 286560, Note_on_c, 7, 62, 100
9, 286560, Note_on_c, 7, 70, 100
9, 286680, Note_on_c, 7, 70, 0
9, 286680, Note_on_c, 7, 62, 0
9, 286920, Note_on_c, 7, 62, 100
9, 286920, Note_on_c, 7, 70, 100
9, 287040, Note_on_c, 7, 70, 0
9, 287040, Note_on_c, 7, 62, 0
9, 287280, Note_on_c, 7, 65, 100
9, 287280, Note_on_c, 7, 72, 100
9, 287400, Note_on_c, 7, 72, 0
9, 287400, Note_on_c, 7, 65, 0
9, 287640, Note_on_c, 7, 65, 100
9, 287640, Note_on_c, 7, 72, 100
9, 287760, Note_on_c, 7, 72, 0
9, 287760, Note_on_c, 7, 65, 0
9, 288000, Note_on_c, 7, 65, 100
9, 288000, Note_on_c, 7, 72, 100
9, 288120, Note_on_c, 7, 72, 0
9, 288120, Note_on_c, 7, 65, 0
9, 288360, Note_on_c, 7, 65, 100
9, 288360, Note_on_c, 7, 72, 100
9, 288480, Note_on_c, 7, 72, 0
9, 288480, Note_on_c, 7, 65, 0
9, 288720, Note_on_c, 7, 65, 100
9, 288720, Note_on_c, 7, 72, 100
9, 288840, Note_on_c, 7, 72, 0
9, 288840, Note_on_c, 7, 65, 0
9, 289080, Program_c, 7, 48
9, 289080, Note_on_c, 7, 65, 100
9, 289200, Note_on_c, 7, 65, 0
9, 289200, Note_on_c, 7, 70, 100
9, 289320, Note_on_c, 7, 70, 0
9, 289320, Note_on_c, 7, 70, 100
9, 289440, Note_on_c, 7, 70, 0
9, 289440, Note_on_c, 7, 65, 100
9, 289560, Note_on_c, 7, 65, 0
9, 289560, Note_on_c, 7, 70, 100
9, 289680, Note_on_c, 7, 70, 0
9, 289680, Note_on_c, 7, 70, 100
9, 289800, Note_on_c, 7, 70, 0
9, 289800, Note_on_c, 7, 65, 100
9, 289920, Note_on_c, 7, 65, 0
9, 289920, Note_on_c, 7, 70, 100
9, 290040, Note_on_c, 7, 70, 0
9, 290040, Note_on_c, 7, 70, 100
9, 290160, Note_on_c, 7, 70, 0
9, 290160, Note_on_c, 7, 72, 100
9, 290280, Note_on_c, 7, 72, 0
9, 290280, Note_on_c, 7, 72, 100
9, 290400, Note_on_c, 7, 72, 0
9, 290400, Note_on_c, 7, 72, 100
9, 290520, Note_on_c, 7, 72, 0
9, 290520, Note_on_c, 7, 69, 100
9, 290640, Note_on_c, 7, 69, 0
9, 290640, Note_on_c, 7, 69, 100
9, 290760, Note_on_c, 7, 69, 0
9, 290760, Note_on_c, 7, 72, 100
9, 290880, Note_on_c, 7, 72, 0
9, 290880, Note_on_c, 7, 69, 100
9, 291000, Note_on_c, 7, 69, 0
9, 291000, Note_on_c, 7, 69, 100
9, 291120, Note_on_c, 7, 69, 0
9, 291120, Note_on_c, 7, 72, 100
9, 291240, Note_on_c, 7, 72, 0
9, 291240, Note_on_c, 7, 69, 100
9, 291360, Note_on_c, 7, 69, 0
9, 291360, Note_on_c, 7, 69, 100
9, 291480, Note_on_c, 7, 69, 0
9, 291480, Note_on_c, 7, 72, 100
9, 291600, Note_on_c, 7, 72, 0
9, 291600, Note_on_c, 7, 70, 100
9, 291720, Note_on_c, 7, 70, 0
9, 291720, Note_on_c, 7, 70, 100
9, 291840, Note_on_c, 7, 70, 0
9, 291840, Note_on_c, 7, 74, 100
9, 291960, Note_on_c, 7, 74, 0
9, 293400, Note_on_c, 7, 67, 100
9, 293520, Note_on_c, 7, 67, 0
9, 293520, Note_on_c, 7, 67, 100
9, 293640, Note_on_c, 7, 67, 0
9, 293640, Note_on_c, 7, 69, 100
9, 293760, Note_on_c, 7, 69, 0
9, 293760, Note_on_c, 7, 70, 100
9, 293880, Note_on_c, 7, 70, 0
9, 293880, Note_on_c, 7, 70, 100
9, 294000, Note_on_c, 7, 70, 0
9, 294000, Note_on_c, 7, 72, 100
9, 294120, Note_on_c, 7, 72, 0
9, 294120, Note_on_c, 7, 74, 100
9, 294240, Note_on_c, 7, 74, 0
9, 294240, Note_on_c, 7, 76, 100
9, 294360, Note_on_c, 7, 76, 0
9, 294360, Note_on_c, 7, 77, 100
9, 294480, Note_on_c, 7, 77, 0
9, 294480, Note_on_c, 7, 77, 100
9, 294510, Note_on_c, 7, 77, 0
9, 294510, Note_on_c, 7, 81, 100
9, 294600, Note_on_c, 7, 81, 0
9, 294600, Note_on_c, 7, 77, 100
9, 294660, Note_on_c, 7, 77, 0
9, 294720, Note_on_c, 7, 81, 100
9, 294840, Note_on_c, 7, 81, 0
9, 294840, Note_on_c, 7, 81, 100
9, 294870, Note_on_c, 7, 81, 0
9, 294870, Note_on_c, 7, 84, 100
9, 294960, Note_on_c, 7, 84, 0
9, 294960, Note_on_c, 7, 81, 100
9, 295020, Note_on_c, 7, 81, 0
9, 295080, Note_on_c, 7, 84, 100
9, 295200, Note_on_c, 7, 84, 0
9, 295200, Note_on_c, 7, 89, 100
9, 295320, Note_on_c, 7, 89, 0
9, 295320, Note_on_c, 7, 89, 100
9, 295440, Note_on_c, 7, 89, 0
9, 295440, Note_on_c, 7, 88, 100
9, 295560, Note_on_c, 7, 88, 0
9, 295560, Note_on_c, 7, 86, 100
9, 295680, Note_on_c, 7, 86, 0
9, 295680, Note_on_c, 7, 86, 100
9, 295800, Note_on_c, 7, 86, 0
9, 295800, Note_on_c, 7, 84, 100
9, 295920, Note_on_c, 7, 84, 0
9, 295920, Note_on_c, 7, 82, 100
9, 296040, Note_on_c, 7, 82, 0
9, 296040, Note_on_c, 7, 82, 100
9, 296160, Note_on_c, 7, 82, 0
9, 296160, Note_on_c, 7, 81, 100
9, 296280, Note_on_c, 7, 81, 0
9, 296280, Note_on_c, 7, 79, 100
9, 296640, Note_on_c, 7, 79, 0
9, 296640, Note_on_c, 7, 91, 100
9, 296760, Note_on_c, 7, 91, 0
9, 296760, Note_on_c, 7, 91, 100
9, 296880, Note_on_c, 7, 91, 0
9, 296880, Note_on_c, 7, 89, 100
9, 297000, Note_on_c, 7, 89, 0
9, 297000, Note_on_c, 7, 88, 100
9, 297120, Note_on_c, 7, 88, 0
9, 297120, Note_on_c, 7, 88, 100
9, 297240, Note_on_c, 7, 88, 0
9, 297240, Note_on_c, 7, 86, 100
9, 297360, Note_on_c, 7, 86, 0
9, 297360, Note_on_c, 7, 84, 100
9, 297480, Note_on_c, 7, 84, 0
9, 297480, Note_on_c, 7, 84, 100
9, 297600, Note_on_c, 7, 84, 0
9, 297600, Note_on_c, 7, 82, 100
9, 297720, Note_on_c, 7, 82, 0
9, 297720, Note_on_c, 7, 81, 100
9, 298080, Note_on_c, 7, 81, 0
9, 298080, Note_on_c, 7, 77, 100
9, 299280, Note_on_c, 7, 77, 0
9, 299280, Note_on_c, 7, 79, 100
9, 299400, Note_on_c, 7, 79, 0
9, 299400, Note_on_c, 7, 79, 100
9, 299520, Note_on_c, 7, 79, 0
9, 299520, Note_on_c, 7, 79, 100
9, 300720, Note_on_c, 7, 79, 0
9, 300720, Note_on_c, 7, 81, 100
9, 300840, Note_on_c, 7, 81, 0
9, 300840, Note_on_c, 7, 81, 100
9, 300960, Note_on_c, 7, 81, 0
9, 300960, Note_on_c, 7, 67, 100
9, 301080, Note_on_c, 7, 67, 0
9, 301080, Note_on_c, 7, 67, 100
9, 301200, Note_on_c, 7, 67, 0
9, 301200, Note_on_c, 7, 65, 100
9, 301320, Note_on_c, 7, 65, 0
9, 301320, Note_on_c, 7, 70, 100
9, 301560, Note_on_c, 7, 70, 0
9, 301560, Note_on_c, 7, 69, 100
9, 301680, Note_on_c, 7, 69, 0
9, 302400, Note_on_c, 7, 67, 100
9, 302520, Note_on_c, 7, 67, 0
9, 302520, Note_on_c, 7, 67, 100
9, 302640, Note_on_c, 7, 67, 0
9, 302640, Note_on_c, 7, 65, 100
9, 302760, Note_on_c, 7, 65, 0
9, 302760, Note_on_c, 7, 70, 100
9, 303000, Note_on_c, 7, 70, 0
9, 303000, Note_on_c, 7, 69, 100
9, 303120, Note_on_c, 7, 69, 0
9, 303120, Note_on_c, 7, 74, 100
9, 303360, Note_on_c, 7, 74, 0
9, 303360, Note_on_c, 7, 72, 100
9, 303480, Note_on_c, 7, 72, 0
9, 303480, Note_on_c, 7, 77, 100
9, 303720, Note_on_c, 7, 77, 0
9, 303720, Note_on_c, 7, 76, 100
9, 303840, Note_on_c, 7, 76, 0
9, 303840, Note_on_c, 7, 81, 100
9, 304080, Note_on_c, 7, 81, 0
9, 304080, Note_on_c, 7, 79, 100
9, 304200, Note_on_c, 7, 79, 0
9, 304200, Note_on_c, 7, 83, 100
9, 304440, Note_on_c, 7, 83, 0
9, 304440, Note_on_c, 7, 84, 100
9, 304560, Note_on_c, 7, 84, 0
9, 304560, Note_on_c, 7, 83, 100
9, 304590, Note_on_c, 7, 83, 0
9, 304590, Note_on_c, 7, 84, 100
9, 304620, Note_on_c, 7, 84, 0
9, 304620, Note_on_c, 7, 83, 100
9, 304650, Note_on_c, 7, 83, 0
9, 304650, Note_on_c, 7, 84, 100
9, 304680, Note_on_c, 7, 84, 0
9, 304680, Note_on_c, 7, 83, 100
9, 304710, Note_on_c, 7, 83, 0
9, 304710, Note_on_c, 7, 84, 100
9, 304740, Note_on_c, 7, 84, 0
9, 304740, Note_on_c, 7, 83, 100
9, 304770, Note_on_c, 7, 83, 0
9, 304770, Note_on_c, 7, 84, 100
9, 304800, Note_on_c, 7, 84, 0
9, 304800, Note_on_c, 7, 83, 100
9, 304830, Note_on_c, 7, 83, 0
9, 304830, Note_on_c, 7, 84, 100
9, 304860, Note_on_c, 7, 84, 0
9, 304860, Note_on_c, 7, 81, 100
9, 304890, Note_on_c, 7, 81, 0
9, 304890, Note_on_c, 7, 83, 100
9, 304920, Note_on_c, 7, 83, 0
9, 304920, Note_on_c, 7, 84, 100
9, 305040, Note_on_c, 7, 84, 0
9, 305040, Note_on_c, 7, 79, 100
9, 305160, Note_on_c, 7, 79, 0
9, 305160, Note_on_c, 7, 76, 100
9, 305280, Note_on_c, 7, 76, 0
9, 305280, Note_on_c, 7, 77, 100
9, 305310, Note_on_c, 7, 77, 0
9, 305310, Note_on_c, 7, 79, 100
9, 305340, Note_on_c, 7, 79, 0
9, 305340, Note_on_c, 7, 77, 100
9, 305370, Note_on_c, 7, 77, 0
9, 305370, Note_on_c, 7, 79, 100
9, 305400, Note_on_c, 7, 79, 0
9, 305400, Note_on_c, 7, 77, 100
9, 305430, Note_on_c, 7, 77, 0
9, 305430, Note_on_c, 7, 79, 100
9, 305460, Note_on_c, 7, 79, 0
9, 305460, Note_on_c, 7, 77, 100
9, 305490, Note_on_c, 7, 77, 0
9, 305490, Note_on_c, 7, 79, 100
9, 305520, Note_on_c, 7, 79, 0
9, 305520, Note_on_c, 7, 77, 100
9, 305550, Note_on_c, 7, 77, 0
9, 305550, Note_on_c, 7, 79, 100
9, 305580, Note_on_c, 7, 79, 0
9, 305580, Note_on_c, 7, 76, 100
9, 305610, Note_on_c, 7, 76, 0
9, 305610, Note_on_c, 7, 77, 100
9, 305640, Note_on_c, 7, 77, 0
9, 305640, Note_on_c, 7, 76, 100
9, 305760, Note_on_c, 7, 76, 0
9, 305760, Note_on_c, 7, 79, 100
9, 305880, Note_on_c, 7, 79, 0
9, 305880, Note_on_c, 7, 84, 100
9, 306000, Note_on_c, 7, 84, 0
9, 306000, Note_on_c, 7, 83, 100
9, 306030, Note_on_c, 7, 83, 0
9, 306030, Note_on_c, 7, 84, 100
9, 306060, Note_on_c, 7, 84, 0
9, 306060, Note_on_c, 7, 83, 100
9, 306090, Note_on_c, 7, 83, 0
9, 306090, Note_on_c, 7, 84, 100
9, 306120, Note_on_c, 7, 84, 0
9, 306120, Note_on_c, 7, 83, 100
9, 306150, Note_on_c, 7, 83, 0
9, 306150, Note_on_c, 7, 84, 100
9, 306180, Note_on_c, 7, 84, 0
9, 306180, Note_on_c, 7, 83, 100
9, 306210, Note_on_c, 7, 83, 0
9, 306210, Note_on_c, 7, 84, 100
9, 306240, Note_on_c, 7, 84, 0
9, 306240, Note_on_c, 7, 83, 100
9, 306270, Note_on_c, 7, 83, 0
9, 306270, Note_on_c, 7, 84, 100
9, 306300, Note_on_c, 7, 84, 0
9, 306300, Note_on_c, 7, 81, 100
9, 306330, Note_on_c, 7, 81, 0
9, 306330, Note_on_c, 7, 83, 100
9, 306360, Note_on_c, 7, 83, 0
9, 306360, Note_on_c, 7, 84, 100
9, 306480, Note_on_c, 7, 84, 0
9, 306480, Note_on_c, 7, 79, 100
9, 306600, Note_on_c, 7, 79, 0
9, 306600, Note_on_c, 7, 76, 100
9, 306720, Note_on_c, 7, 76, 0
9, 306720, Note_on_c, 7, 83, 100
9, 306750, Note_on_c, 7, 83, 0
9, 306750, Note_on_c, 7, 84, 100
9, 306780, Note_on_c, 7, 84, 0
9, 306780, Note_on_c, 7, 83, 100
9, 306810, Note_on_c, 7, 83, 0
9, 306810, Note_on_c, 7, 84, 100
9, 306840, Note_on_c, 7, 84, 0
9, 306840, Note_on_c, 7, 83, 100
9, 306870, Note_on_c, 7, 83, 0
9, 306870, Note_on_c, 7, 84, 100
9, 306900, Note_on_c, 7, 84, 0
9, 306900, Note_on_c, 7, 83, 100
9, 306930, Note_on_c, 7, 83, 0
9, 306930, Note_on_c, 7, 84, 100
9, 306960, Note_on_c, 7, 84, 0
9, 306960, Note_on_c, 7, 83, 100
9, 306990, Note_on_c, 7, 83, 0
9, 306990, Note_on_c, 7, 84, 100
9, 307020, Note_on_c, 7, 84, 0
9, 307020, Note_on_c, 7, 81, 100
9, 307050, Note_on_c, 7, 81, 0
9, 307050, Note_on_c, 7, 83, 100
9, 307080, Note_on_c, 7, 83, 0
9, 307080, Note_on_c, 7, 84, 100
9, 307200, Note_on_c, 7, 84, 0
9, 307200, Note_on_c, 7, 79, 100
9, 307320, Note_on_c, 7, 79, 0
9, 307320, Note_on_c, 7, 76, 100
9, 307440, Note_on_c, 7, 76, 0
9, 307440, Note_on_c, 7, 76, 100
9, 307470, Note_on_c, 7, 76, 0
9, 307470, Note_on_c, 7, 77, 100
9, 307500, Note_on_c, 7, 77, 0
9, 307500, Note_on_c, 7, 76, 100
9, 307530, Note_on_c, 7, 76, 0
9, 307530, Note_on_c, 7, 77, 100
9, 307560, Note_on_c, 7, 77, 0
9, 307560, Note_on_c, 7, 76, 100
9, 307590, Note_on_c, 7, 76, 0
9, 307590, Note_on_c, 7, 77, 100
9, 307620, Note_on_c, 7, 77, 0
9, 307620, Note_on_c, 7, 76, 100
9, 307650, Note_on_c, 7, 76, 0
9, 307650, Note_on_c, 7, 77, 100
9, 307680, Note_on_c, 7, 77, 0
9, 307680, Note_on_c, 7, 76, 100
9, 307710, Note_on_c, 7, 76, 0
9, 307710, Note_on_c, 7, 77, 100
9, 307740, Note_on_c, 7, 77, 0
9, 307740, Note_on_c, 7, 74, 100
9, 307770, Note_on_c, 7, 74, 0
9, 307770, Note_on_c, 7, 76, 100
9, 307800, Note_on_c, 7, 76, 0
9, 307800, Note_on_c, 7, 77, 100
9, 307920, Note_on_c, 7, 77, 0
9, 307920, Note_on_c, 7, 72, 100
9, 308040, Note_on_c, 7, 72, 0
9, 308040, Note_on_c, 7, 69, 100
9, 308160, Note_on_c, 7, 69, 0
9, 308160, Note_on_c, 7, 70, 100
9, 308190, Note_on_c, 7, 70, 0
9, 308190, Note_on_c, 7, 72, 100
9, 308220, Note_on_c, 7, 72, 0
9, 308220, Note_on_c, 7, 70, 100
9, 308250, Note_on_c, 7, 70, 0
9, 308250, Note_on_c, 7, 72, 100
9, 308280, Note_on_c, 7, 72, 0
9, 308280, Note_on_c, 7, 70, 100
9, 308310, Note_on_c, 7, 70, 0
9, 308310, Note_on_c, 7, 72, 100
9, 308340, Note_on_c, 7, 72, 0
9, 308340, Note_on_c, 7, 70, 100
9, 308370, Note_on_c, 7, 70, 0
9, 308370, Note_on_c, 7, 72, 100
9, 308400, Note_on_c, 7, 72, 0
9, 308400, Note_on_c, 7, 70, 100
9, 308430, Note_on_c, 7, 70, 0
9, 308430, Note_on_c, 7, 72, 100
9, 308460, Note_on_c, 7, 72, 0
9, 308460, Note_on_c, 7, 69, 100
9, 308490, Note_on_c, 7, 69, 0
9, 308490, Note_on_c, 7, 70, 100
9, 308520, Note_on_c, 7, 70, 0
9, 308520, Note_on_c, 7, 69, 100
9, 308640, Note_on_c, 7, 69, 0
9, 308640, Note_on_c, 7, 72, 100
9, 308760, Note_on_c, 7, 72, 0
9, 308760, Note_on_c, 7, 77, 100
9, 308880, Note_on_c, 7, 77, 0
9, 308880, Note_on_c, 7, 76, 100
9, 308910, Note_on_c, 7, 76, 0
9, 308910, Note_on_c, 7, 77, 100
9, 308940, Note_on_c, 7, 77, 0
9, 308940, Note_on_c, 7, 76, 100
9, 308970, Note_on_c, 7, 76, 0
9, 308970, Note_on_c, 7, 77, 100
9, 309000, Note_on_c, 7, 77, 0
9, 309000, Note_on_c, 7, 76, 100
9, 309030, Note_on_c, 7, 76, 0
9, 309030, Note_on_c, 7, 77, 100
9, 309060, Note_on_c, 7, 77, 0
9, 309060, Note_on_c, 7, 76, 100
9, 309090, Note_on_c, 7, 76, 0
9, 309090, Note_on_c, 7, 77, 100
9, 309120, Note_on_c, 7, 77, 0
9, 309120, Note_on_c, 7, 76, 100
9, 309150, Note_on_c, 7, 76, 0
9, 309150, Note_on_c, 7, 77, 100
9, 309180, Note_on_c, 7, 77, 0
9, 309180, Note_on_c, 7, 74, 100
9, 309210, Note_on_c, 7, 74, 0
9, 309210, Note_on_c, 7, 76, 100
9, 309240, Note_on_c, 7, 76, 0
9, 309240, Note_on_c, 7, 77, 100
9, 309360, Note_on_c, 7, 77, 0
9, 309360, Note_on_c, 7, 72, 100
9, 309480, Note_on_c, 7, 72, 0
9, 309480, Note_on_c, 7, 69, 100
9, 309600, Note_on_c, 7, 69, 0
9, 309600, Note_on_c, 7, 76, 100
9, 309630, Note_on_c, 7, 76, 0
9, 309630, Note_on_c, 7, 77, 100
9, 309660, Note_on_c, 7, 77, 0
9, 309660, Note_on_c, 7, 76, 100
9, 309690, Note_on_c, 7, 76, 0
9, 309690, Note_on_c, 7, 77, 100
9, 309720, Note_on_c, 7, 77, 0
9, 309720, Note_on_c, 7, 76, 100
9, 309750, Note_on_c, 7, 76, 0
9, 309750, Note_on_c, 7, 77, 100
9, 309780, Note_on_c, 7, 77, 0
9, 309780, Note_on_c, 7, 76, 100
9, 309810, Note_on_c, 7, 76, 0
9, 309810, Note_on_c, 7, 77, 100
9, 309840, Note_on_c, 7, 77, 0
9, 309840, Note_on_c, 7, 76, 100
9, 309870, Note_on_c, 7, 76, 0
9, 309870, Note_on_c, 7, 77, 100
9, 309900, Note_on_c, 7, 77, 0
9, 309900, Note_on_c, 7, 74, 100
9, 309930, Note_on_c, 7, 74, 0
9, 309930, Note_on_c, 7, 76, 100
9, 309960, Note_on_c, 7, 76, 0
9, 309960, Note_on_c, 7, 77, 100
9, 310080, Note_on_c, 7, 77, 0
9, 310080, Note_on_c, 7, 72, 100
9, 310200, Note_on_c, 7, 72, 0
9, 310200, Note_on_c, 7, 69, 100
9, 310320, Note_on_c, 7, 69, 0
9, 310320, Note_on_c, 7, 76, 100
9, 310350, Note_on_c, 7, 76, 0
9, 310350, Note_on_c, 7, 77, 100
9, 310380, Note_on_c, 7, 77, 0
9, 310380, Note_on_c, 7, 76, 100
9, 310410, Note_on_c, 7, 76, 0
9, 310410, Note_on_c, 7, 77, 100
9, 310440, Note_on_c, 7, 77, 0
9, 310440, Note_on_c, 7, 76, 100
9, 310470, Note_on_c, 7, 76, 0
9, 310470, Note_on_c, 7, 77, 100
9, 310500, Note_on_c, 7, 77, 0
9, 310500, Note_on_c, 7, 76, 100
9, 310530, Note_on_c, 7, 76, 0
9, 310530, Note_on_c, 7, 77, 100
9, 310560, Note_on_c, 7, 77, 0
9, 310560, Note_on_c, 7, 76, 100
9, 310590, Note_on_c, 7, 76, 0
9, 310590, Note_on_c, 7, 77, 100
9, 310620, Note_on_c, 7, 77, 0
9, 310620, Note_on_c, 7, 74, 100
9, 310650, Note_on_c, 7, 74, 0
9, 310650, Note_on_c, 7, 76, 100
9, 310680, Note_on_c, 7, 76, 0
9, 310680, Note_on_c, 7, 77, 100
9, 310800, Note_on_c, 7, 77, 0
9, 310800, Note_on_c, 7, 72, 100
9, 310920, Note_on_c, 7, 72, 0
9, 310920, Note_on_c, 7, 69, 100
9, 311040, Note_on_c, 7, 69, 0
9, 311040, Note_on_c, 7, 65, 100
9, 311160, Note_on_c, 7, 65, 0
9, 311160, Note_on_c, 7, 60, 100
9, 311280, Note_on_c, 7, 60, 0
9, 311280, Note_on_c, 7, 57, 100
9, 311400, Note_on_c, 7, 57, 0
9, 311400, Note_on_c, 7, 57, 100
9, 311400, Note_on_c, 7, 65, 100
9, 311520, Note_on_c, 7, 65, 0
9, 311520, Note_on_c, 7, 57, 0
9, 312720, Note_on_c, 7, 77, 100
9, 312840, Note_on_c, 7, 77, 0
9, 312840, Note_on_c, 7, 77, 100
9, 312870, Note_on_c, 7, 77, 0
9, 312870, Note_on_c, 7, 81, 100
9, 312960, Note_on_c, 7, 81, 0
9, 312960, Note_on_c, 7, 77, 100
9, 313020, Note_on_c, 7, 77, 0
9, 313080, Note_on_c, 7, 77, 100
9, 313200, Note_on_c, 7, 77, 0
9, 313200, Note_on_c, 7, 77, 100
9, 313230, Note_on_c, 7, 77, 0
9, 313230, Note_on_c, 7, 81, 100
9, 313320, Note_on_c, 7, 81, 0
9, 313320, Note_on_c, 7, 77, 100
9, 313380, Note_on_c, 7, 77, 0
9, 313440, Note_on_c, 7, 77, 100
9, 313560, Note_on_c, 7, 77, 0
9, 313560, Note_on_c, 7, 77, 100
9, 313590, Note_on_c, 7, 77, 0
9, 313590, Note_on_c, 7, 81, 100
9, 313680, Note_on_c, 7, 81, 0
9, 313680, Note_on_c, 7, 77, 100
9, 313800, Note_on_c, 7, 77, 0
9, 313800, Note_on_c, 7, 77, 100
9, 313920, Note_on_c, 7, 77, 0
9, 313920, Note_on_c, 7, 77, 100
9, 313950, Note_on_c, 7, 77, 0
9, 313950, Note_on_c, 7, 81, 100
9, 314040, Note_on_c, 7, 81, 0
9, 314040, Note_on_c, 7, 77, 100
9, 314160, Note_on_c, 7, 77, 0
9, 314160, Note_on_c, 7, 77, 100
9, 314280, Note_on_c, 7, 77, 0
9, 314280, Note_on_c, 7, 77, 100
9, 314310, Note_on_c, 7, 77, 0
9, 314310, Note_on_c, 7, 81, 100
9, 314400, Note_on_c, 7, 81, 0
9, 314400, Note_on_c, 7, 77, 100
9, 314520, Note_on_c, 7, 77, 0
9, 314520, Note_on_c, 7, 77, 100
9, 314640, Note_on_c, 7, 77, 0
9, 314640, Note_on_c, 7, 81, 100
9, 317520, Note_on_c, 7, 81, 0
9, 317520, Note_on_c, 7, 82, 100
9, 317640, Note_on_c, 7, 82, 0
9, 317880, Note_on_c, 7, 83, 100
9, 318000, Note_on_c, 7, 83, 0
9, 318240, Note_on_c, 7, 84, 100
9, 318360, Note_on_c, 7, 84, 0
9, 318600, Note_on_c, 7, 70, 100
9, 318600, Note_on_c, 7, 76, 100
9, 318720, Note_on_c, 7, 76, 0
9, 318720, Note_on_c, 7, 70, 0
9, 318960, Note_on_c, 7, 69, 100
9, 318960, Note_on_c, 7, 77, 100
9, 319080, Note_on_c, 7, 77, 0
9, 319080, Note_on_c, 7, 69, 0
9, 319080, End_track
10, 0, Start_track
10, 0, MIDI_port, 0
10, 0, Title_t, "2nd Violins"
10, 0, Program_c, 8, 48
10, 0, Control_c, 8, 7, 100
10, 0, Control_c, 8, 10, 50
10, 600, Note_on_c, 8, 65, 100
10, 720, Note_on_c, 8, 65, 0
10, 720, Note_on_c, 8, 65, 100
10, 750, Note_on_c, 8, 65, 0
10, 750, Note_on_c, 8, 69, 100
10, 840, Note_on_c, 8, 69, 0
10, 840, Note_on_c, 8, 65, 100
10, 900, Note_on_c, 8, 65, 0
10, 960, Note_on_c, 8, 65, 100
10, 1080, Note_on_c, 8, 65, 0
10, 1080, Note_on_c, 8, 65, 100
10, 1110, Note_on_c, 8, 65, 0
10, 1110, Note_on_c, 8, 69, 100
10, 1200, Note_on_c, 8, 69, 0
10, 1200, Note_on_c, 8, 65, 100
10, 1260, Note_on_c, 8, 65, 0
10, 1320, Note_on_c, 8, 69, 100
10, 1440, Note_on_c, 8, 69, 0
10, 1440, Note_on_c, 8, 69, 100
10, 1560, Note_on_c, 8, 69, 0
10, 1560, Note_on_c, 8, 69, 100
10, 1680, Note_on_c, 8, 69, 0
10, 1680, Note_on_c, 8, 72, 100
10, 1800, Note_on_c, 8, 72, 0
10, 1800, Note_on_c, 8, 70, 100
10, 1920, Note_on_c, 8, 70, 0
10, 1920, Note_on_c, 8, 70, 100
10, 2040, Note_on_c, 8, 70, 0
10, 2040, Note_on_c, 8, 69, 100
10, 2160, Note_on_c, 8, 69, 0
10, 2160, Note_on_c, 8, 67, 100
10, 2280, Note_on_c, 8, 67, 0
10, 2280, Note_on_c, 8, 67, 100
10, 2400, Note_on_c, 8, 67, 0
10, 2400, Note_on_c, 8, 65, 100
10, 2520, Note_on_c, 8, 65, 0
10, 2520, Note_on_c, 8, 64, 100
10, 2880, Note_on_c, 8, 64, 0
10, 2880, Note_on_c, 8, 76, 100
10, 3000, Note_on_c, 8, 76, 0
10, 3000, Note_on_c, 8, 76, 100
10, 3120, Note_on_c, 8, 76, 0
10, 3120, Note_on_c, 8, 74, 100
10, 3240, Note_on_c, 8, 74, 0
10, 3240, Note_on_c, 8, 72, 100
10, 3360, Note_on_c, 8, 72, 0
10, 3360, Note_on_c, 8, 72, 100
10, 3480, Note_on_c, 8, 72, 0
10, 3480, Note_on_c, 8, 70, 100
10, 3600, Note_on_c, 8, 70, 0
10, 3600, Note_on_c, 8, 69, 100
10, 3720, Note_on_c, 8, 69, 0
10, 3720, Note_on_c, 8, 69, 100
10, 3840, Note_on_c, 8, 69, 0
10, 3840, Note_on_c, 8, 67, 100
10, 3960, Note_on_c, 8, 67, 0
10, 3960, Note_on_c, 8, 65, 100
10, 4320, Note_on_c, 8, 65, 0
10, 4320, Note_on_c, 8, 64, 100
10, 4440, Note_on_c, 8, 64, 0
10, 4440, Note_on_c, 8, 64, 100
10, 4560, Note_on_c, 8, 64, 0
10, 4560, Note_on_c, 8, 65, 100
10, 4680, Note_on_c, 8, 65, 0
10, 4680, Note_on_c, 8, 64, 100
10, 4920, Note_on_c, 8, 64, 0
10, 4920, Note_on_c, 8, 65, 100
10, 5040, Note_on_c, 8, 65, 0
10, 5040, Note_on_c, 8, 64, 100
10, 5160, Note_on_c, 8, 64, 0
10, 5160, Note_on_c, 8, 64, 100
10, 5280, Note_on_c, 8, 64, 0
10, 5280, Note_on_c, 8, 65, 100
10, 5400, Note_on_c, 8, 65, 0
10, 5400, Note_on_c, 8, 64, 100
10, 5640, Note_on_c, 8, 64, 0
10, 5640, Note_on_c, 8, 65, 100
10, 5760, Note_on_c, 8, 65, 0
10, 5760, Note_on_c, 8, 68, 100
10, 6000, Note_on_c, 8, 68, 0
10, 6000, Note_on_c, 8, 69, 100
10, 6120, Note_on_c, 8, 69, 0
10, 6120, Note_on_c, 8, 59, 100
10, 6360, Note_on_c, 8, 59, 0
10, 6360, Note_on_c, 8, 61, 100
10, 6480, Note_on_c, 8, 61, 0
10, 6480, Note_on_c, 8, 68, 100
10, 6600, Note_on_c, 8, 68, 0
10, 6600, Note_on_c, 8, 71, 100
10, 6720, Note_on_c, 8, 71, 0
10, 6720, Note_on_c, 8, 71, 100
10, 6840, Note_on_c, 8, 71, 0
10, 6840, Note_on_c, 8, 69, 100
10, 6960, Note_on_c, 8, 69, 0
10, 6960, Note_on_c, 8, 73, 100
10, 7080, Note_on_c, 8, 73, 0
10, 7080, Note_on_c, 8, 73, 100
10, 7200, Note_on_c, 8, 73, 0
10, 7200, Note_on_c, 8, 71, 100
10, 7320, Note_on_c, 8, 71, 0
10, 7320, Note_on_c, 8, 64, 100
10, 7440, Note_on_c, 8, 64, 0
10, 7440, Note_on_c, 8, 71, 100
10, 7560, Note_on_c, 8, 71, 0
10, 7560, Note_on_c, 8, 69, 100
10, 7680, Note_on_c, 8, 69, 0
10, 7680, Note_on_c, 8, 73, 100
10, 7800, Note_on_c, 8, 73, 0
10, 7800, Note_on_c, 8, 73, 100
10, 7920, Note_on_c, 8, 73, 0
10, 7920, Note_on_c, 8, 68, 100
10, 8040, Note_on_c, 8, 68, 0
10, 8040, Note_on_c, 8, 71, 100
10, 8160, Note_on_c, 8, 71, 0
10, 8160, Note_on_c, 8, 71, 100
10, 8280, Note_on_c, 8, 71, 0
10, 8280, Note_on_c, 8, 69, 100
10, 8400, Note_on_c, 8, 69, 0
10, 8400, Note_on_c, 8, 76, 100
10, 8520, Note_on_c, 8, 76, 0
10, 8520, Note_on_c, 8, 73, 100
10, 8640, Note_on_c, 8, 73, 0
10, 8640, Note_on_c, 8, 69, 100
10, 8760, Note_on_c, 8, 69, 0
10, 8760, Note_on_c, 8, 64, 100
10, 8880, Note_on_c, 8, 64, 0
10, 8880, Note_on_c, 8, 61, 100
10, 9000, Note_on_c, 8, 61, 0
10, 9000, Note_on_c, 8, 57, 100
10, 9120, Note_on_c, 8, 57, 0
10, 9240, Note_on_c, 8, 65, 100
10, 9360, Note_on_c, 8, 65, 0
10, 9360, Note_on_c, 8, 65, 100
10, 9390, Note_on_c, 8, 65, 0
10, 9390, Note_on_c, 8, 69, 100
10, 9480, Note_on_c, 8, 69, 0
10, 9480, Note_on_c, 8, 65, 100
10, 9540, Note_on_c, 8, 65, 0
10, 9600, Note_on_c, 8, 65, 100
10, 9720, Note_on_c, 8, 65, 0
10, 9720, Note_on_c, 8, 65, 100
10, 9750, Note_on_c, 8, 65, 0
10, 9750, Note_on_c, 8, 69, 100
10, 9840, Note_on_c, 8, 69, 0
10, 9840, Note_on_c, 8, 65, 100
10, 9900, Note_on_c, 8, 65, 0
10, 9960, Note_on_c, 8, 69, 100
10, 10080, Note_on_c, 8, 69, 0
10, 10080, Note_on_c, 8, 69, 100
10, 10200, Note_on_c, 8, 69, 0
10, 10200, Note_on_c, 8, 69, 100
10, 10320, Note_on_c, 8, 69, 0
10, 10320, Note_on_c, 8, 72, 100
10, 10440, Note_on_c, 8, 72, 0
10, 10440, Note_on_c, 8, 70, 100
10, 10560, Note_on_c, 8, 70, 0
10, 10560, Note_on_c, 8, 70, 100
10, 10680, Note_on_c, 8, 70, 0
10, 10680, Note_on_c, 8, 69, 100
10, 10800, Note_on_c, 8, 69, 0
10, 10800, Note_on_c, 8, 67, 100
10, 10920, Note_on_c, 8, 67, 0
10, 10920, Note_on_c, 8, 67, 100
10, 11040, Note_on_c, 8, 67, 0
10, 11040, Note_on_c, 8, 65, 100
10, 11160, Note_on_c, 8, 65, 0
10, 11160, Note_on_c, 8, 64, 100
10, 11520, Note_on_c, 8, 64, 0
10, 11520, Note_on_c, 8, 76, 100
10, 11640, Note_on_c, 8, 76, 0
10, 11640, Note_on_c, 8, 76, 100
10, 11760, Note_on_c, 8, 76, 0
10, 11760, Note_on_c, 8, 74, 100
10, 11880, Note_on_c, 8, 74, 0
10, 11880, Note_on_c, 8, 72, 100
10, 12000, Note_on_c, 8, 72, 0
10, 12000, Note_on_c, 8, 72, 100
10, 12120, Note_on_c, 8, 72, 0
10, 12120, Note_on_c, 8, 70, 100
10, 12240, Note_on_c, 8, 70, 0
10, 12240, Note_on_c, 8, 69, 100
10, 12360, Note_on_c, 8, 69, 0
10, 12360, Note_on_c, 8, 69, 100
10, 12480, Note_on_c, 8, 69, 0
10, 12480, Note_on_c, 8, 67, 100
10, 12600, Note_on_c, 8, 67, 0
10, 12600, Note_on_c, 8, 65, 100
10, 12960, Note_on_c, 8, 65, 0
10, 12960, Note_on_c, 8, 64, 100
10, 13080, Note_on_c, 8, 64, 0
10, 13080, Note_on_c, 8, 64, 100
10, 13200, Note_on_c, 8, 64, 0
10, 13200, Note_on_c, 8, 65, 100
10, 13320, Note_on_c, 8, 65, 0
10, 13320, Note_on_c, 8, 64, 100
10, 13560, Note_on_c, 8, 64, 0
10, 13560, Note_on_c, 8, 65, 100
10, 13680, Note_on_c, 8, 65, 0
10, 13680, Note_on_c, 8, 64, 100
10, 13800, Note_on_c, 8, 64, 0
10, 13800, Note_on_c, 8, 64, 100
10, 13920, Note_on_c, 8, 64, 0
10, 13920, Note_on_c, 8, 65, 100
10, 14040, Note_on_c, 8, 65, 0
10, 14040, Note_on_c, 8, 64, 100
10, 14280, Note_on_c, 8, 64, 0
10, 14280, Note_on_c, 8, 65, 100
10, 14400, Note_on_c, 8, 65, 0
10, 14400, Note_on_c, 8, 68, 100
10, 14640, Note_on_c, 8, 68, 0
10, 14640, Note_on_c, 8, 69, 100
10, 14760, Note_on_c, 8, 69, 0
10, 14760, Note_on_c, 8, 59, 100
10, 15000, Note_on_c, 8, 59, 0
10, 15000, Note_on_c, 8, 61, 100
10, 15120, Note_on_c, 8, 61, 0
10, 15120, Note_on_c, 8, 68, 100
10, 15240, Note_on_c, 8, 68, 0
10, 15240, Note_on_c, 8, 71, 100
10, 15360, Note_on_c, 8, 71, 0
10, 15360, Note_on_c, 8, 71, 100
10, 15480, Note_on_c, 8, 71, 0
10, 15480, Note_on_c, 8, 69, 100
10, 15600, Note_on_c, 8, 69, 0
10, 15600, Note_on_c, 8, 73, 100
10, 15720, Note_on_c, 8, 73, 0
10, 15720, Note_on_c, 8, 73, 100
10, 15840, Note_on_c, 8, 73, 0
10, 15840, Note_on_c, 8, 71, 100
10, 15960, Note_on_c, 8, 71, 0
10, 15960, Note_on_c, 8, 64, 100
10, 16080, Note_on_c, 8, 64, 0
10, 16080, Note_on_c, 8, 71, 100
10, 16200, Note_on_c, 8, 71, 0
10, 16200, Note_on_c, 8, 69, 100
10, 16320, Note_on_c, 8, 69, 0
10, 16320, Note_on_c, 8, 73, 100
10, 16440, Note_on_c, 8, 73, 0
10, 16440, Note_on_c, 8, 73, 100
10, 16560, Note_on_c, 8, 73, 0
10, 16560, Note_on_c, 8, 68, 100
10, 16680, Note_on_c, 8, 68, 0
10, 16680, Note_on_c, 8, 71, 100
10, 16800, Note_on_c, 8, 71, 0
10, 16800, Note_on_c, 8, 71, 100
10, 16920, Note_on_c, 8, 71, 0
10, 16920, Note_on_c, 8, 69, 100
10, 17040, Note_on_c, 8, 69, 0
10, 17040, Note_on_c, 8, 76, 100
10, 17160, Note_on_c, 8, 76, 0
10, 17160, Note_on_c, 8, 73, 100
10, 17280, Note_on_c, 8, 73, 0
10, 17280, Note_on_c, 8, 69, 100
10, 17400, Note_on_c, 8, 69, 0
10, 17400, Note_on_c, 8, 64, 100
10, 17520, Note_on_c, 8, 64, 0
10, 17520, Note_on_c, 8, 61, 100
10, 17640, Note_on_c, 8, 61, 0
10, 17640, Note_on_c, 8, 57, 100
10, 17760, Note_on_c, 8, 57, 0
10, 18600, Note_on_c, 8, 69, 100
10, 18720, Note_on_c, 8, 69, 0
10, 18720, Note_on_c, 8, 69, 100
10, 18750, Note_on_c, 8, 69, 0
10, 18750, Note_on_c, 8, 73, 100
10, 18840, Note_on_c, 8, 73, 0
10, 18840, Note_on_c, 8, 69, 100
10, 18900, Note_on_c, 8, 69, 0
10, 22320, Note_on_c, 8, 73, 100
10, 22560, Note_on_c, 8, 73, 0
10, 22560, Note_on_c, 8, 74, 100
10, 22680, Note_on_c, 8, 74, 0
10, 22680, Note_on_c, 8, 73, 100
10, 22920, Note_on_c, 8, 73, 0
10, 22920, Note_on_c, 8, 74, 100
10, 23040, Note_on_c, 8, 74, 0
10, 23040, Note_on_c, 8, 73, 100
10, 23280, Note_on_c, 8, 73, 0
10, 23280, Note_on_c, 8, 74, 100
10, 23400, Note_on_c, 8, 74, 0
10, 23400, Note_on_c, 8, 73, 100
10, 23640, Note_on_c, 8, 73, 0
10, 23640, Note_on_c, 8, 74, 100
10, 23760, Note_on_c, 8, 74, 0
10, 24720, Note_on_c, 8, 71, 100
10, 24840, Note_on_c, 8, 71, 0
10, 24840, Note_on_c, 8, 74, 100
10, 24960, Note_on_c, 8, 74, 0
10, 24960, Note_on_c, 8, 71, 100
10, 25020, Note_on_c, 8, 71, 0
10, 28080, Note_on_c, 8, 76, 100
10, 28320, Note_on_c, 8, 76, 0
10, 28320, Note_on_c, 8, 77, 100
10, 28440, Note_on_c, 8, 77, 0
10, 28440, Note_on_c, 8, 76, 100
10, 28680, Note_on_c, 8, 76, 0
10, 28680, Note_on_c, 8, 77, 100
10, 28800, Note_on_c, 8, 77, 0
10, 28800, Note_on_c, 8, 76, 100
10, 29040, Note_on_c, 8, 76, 0
10, 29040, Note_on_c, 8, 77, 100
10, 29160, Note_on_c, 8, 77, 0
10, 29160, Note_on_c, 8, 76, 100
10, 29400, Note_on_c, 8, 76, 0
10, 29400, Note_on_c, 8, 77, 100
10, 29520, Note_on_c, 8, 77, 0
10, 30480, Note_on_c, 8, 69, 100
10, 30600, Note_on_c, 8, 69, 0
10, 30600, Note_on_c, 8, 72, 100
10, 30720, Note_on_c, 8, 72, 0
10, 30720, Note_on_c, 8, 69, 100
10, 30780, Note_on_c, 8, 69, 0
10, 30840, Note_on_c, 8, 70, 100
10, 30960, Note_on_c, 8, 70, 0
10, 30960, Note_on_c, 8, 70, 100
10, 31080, Note_on_c, 8, 70, 0
10, 31080, Note_on_c, 8, 70, 100
10, 31200, Note_on_c, 8, 70, 0
10, 31200, Note_on_c, 8, 70, 100
10, 31320, Note_on_c, 8, 70, 0
10, 31320, Note_on_c, 8, 70, 100
10, 31560, Note_on_c, 8, 70, 0
10, 31560, Note_on_c, 8, 70, 100
10, 31680, Note_on_c, 8, 70, 0
10, 31680, Note_on_c, 8, 70, 100
10, 31800, Note_on_c, 8, 70, 0
10, 31800, Note_on_c, 8, 70, 100
10, 31920, Note_on_c, 8, 70, 0
10, 31920, Note_on_c, 8, 70, 100
10, 32040, Note_on_c, 8, 70, 0
10, 32040, Note_on_c, 8, 70, 100
10, 32280, Note_on_c, 8, 70, 0
10, 32280, Note_on_c, 8, 70, 100
10, 32400, Note_on_c, 8, 70, 0
10, 32400, Note_on_c, 8, 62, 100
10, 32520, Note_on_c, 8, 62, 0
10, 32520, Note_on_c, 8, 65, 100
10, 32640, Note_on_c, 8, 65, 0
10, 32640, Note_on_c, 8, 65, 100
10, 32760, Note_on_c, 8, 65, 0
10, 32760, Note_on_c, 8, 62, 100
10, 32880, Note_on_c, 8, 62, 0
10, 32880, Note_on_c, 8, 65, 100
10, 33000, Note_on_c, 8, 65, 0
10, 33000, Note_on_c, 8, 65, 100
10, 33120, Note_on_c, 8, 65, 0
10, 33120, Note_on_c, 8, 62, 100
10, 33240, Note_on_c, 8, 62, 0
10, 33240, Note_on_c, 8, 65, 100
10, 33360, Note_on_c, 8, 65, 0
10, 33360, Note_on_c, 8, 65, 100
10, 33480, Note_on_c, 8, 65, 0
10, 33480, Note_on_c, 8, 62, 100
10, 33600, Note_on_c, 8, 62, 0
10, 33600, Note_on_c, 8, 65, 100
10, 33720, Note_on_c, 8, 65, 0
10, 33720, Note_on_c, 8, 65, 100
10, 33840, Note_on_c, 8, 65, 0
10, 33840, Note_on_c, 8, 60, 100
10, 33960, Note_on_c, 8, 60, 0
10, 33960, Note_on_c, 8, 60, 100
10, 34080, Note_on_c, 8, 60, 0
10, 34080, Note_on_c, 8, 65, 100
10, 34200, Note_on_c, 8, 65, 0
10, 34200, Note_on_c, 8, 60, 100
10, 34320, Note_on_c, 8, 60, 0
10, 34320, Note_on_c, 8, 60, 100
10, 34440, Note_on_c, 8, 60, 0
10, 34440, Note_on_c, 8, 65, 100
10, 34560, Note_on_c, 8, 65, 0
10, 34560, Note_on_c, 8, 60, 100
10, 34680, Note_on_c, 8, 60, 0
10, 34680, Note_on_c, 8, 60, 100
10, 34800, Note_on_c, 8, 60, 0
10, 34800, Note_on_c, 8, 65, 100
10, 34920, Note_on_c, 8, 65, 0
10, 34920, Note_on_c, 8, 60, 100
10, 35040, Note_on_c, 8, 60, 0
10, 35040, Note_on_c, 8, 60, 100
10, 35160, Note_on_c, 8, 60, 0
10, 35160, Note_on_c, 8, 65, 100
10, 35280, Note_on_c, 8, 65, 0
10, 35280, Note_on_c, 8, 65, 100
10, 35400, Note_on_c, 8, 65, 0
10, 35400, Note_on_c, 8, 65, 100
10, 35520, Note_on_c, 8, 65, 0
10, 35520, Note_on_c, 8, 65, 100
10, 35640, Note_on_c, 8, 65, 0
10, 35640, Note_on_c, 8, 62, 100
10, 35760, Note_on_c, 8, 62, 0
10, 35760, Note_on_c, 8, 62, 100
10, 35880, Note_on_c, 8, 62, 0
10, 35880, Note_on_c, 8, 65, 100
10, 36000, Note_on_c, 8, 65, 0
10, 36000, Note_on_c, 8, 62, 100
10, 36120, Note_on_c, 8, 62, 0
10, 36120, Note_on_c, 8, 62, 100
10, 36240, Note_on_c, 8, 62, 0
10, 36240, Note_on_c, 8, 65, 100
10, 36360, Note_on_c, 8, 65, 0
10, 36360, Note_on_c, 8, 62, 100
10, 36480, Note_on_c, 8, 62, 0
10, 36480, Note_on_c, 8, 62, 100
10, 36600, Note_on_c, 8, 62, 0
10, 36600, Note_on_c, 8, 65, 100
10, 36720, Note_on_c, 8, 65, 0
10, 36720, Note_on_c, 8, 65, 100
10, 36840, Note_on_c, 8, 65, 0
10, 36840, Note_on_c, 8, 65, 100
10, 36960, Note_on_c, 8, 65, 0
10, 36960, Note_on_c, 8, 65, 100
10, 37080, Note_on_c, 8, 65, 0
10, 37080, Note_on_c, 8, 65, 100
10, 37200, Note_on_c, 8, 65, 0
10, 37200, Note_on_c, 8, 65, 100
10, 37320, Note_on_c, 8, 65, 0
10, 37320, Note_on_c, 8, 69, 100
10, 37440, Note_on_c, 8, 69, 0
10, 37440, Note_on_c, 8, 65, 100
10, 37560, Note_on_c, 8, 65, 0
10, 37560, Note_on_c, 8, 65, 100
10, 37680, Note_on_c, 8, 65, 0
10, 37680, Note_on_c, 8, 69, 100
10, 37800, Note_on_c, 8, 69, 0
10, 37800, Note_on_c, 8, 65, 100
10, 37920, Note_on_c, 8, 65, 0
10, 37920, Note_on_c, 8, 65, 100
10, 38040, Note_on_c, 8, 65, 0
10, 38040, Note_on_c, 8, 69, 100
10, 38160, Note_on_c, 8, 69, 0
10, 38160, Note_on_c, 8, 65, 100
10, 38280, Note_on_c, 8, 65, 0
10, 38280, Note_on_c, 8, 65, 100
10, 38400, Note_on_c, 8, 65, 0
10, 38400, Note_on_c, 8, 70, 100
10, 38520, Note_on_c, 8, 70, 0
10, 39240, Note_on_c, 8, 67, 100
10, 39360, Note_on_c, 8, 67, 0
10, 39360, Note_on_c, 8, 67, 100
10, 39480, Note_on_c, 8, 67, 0
10, 39480, Note_on_c, 8, 65, 100
10, 39600, Note_on_c, 8, 65, 0
10, 39600, Note_on_c, 8, 64, 100
10, 39720, Note_on_c, 8, 64, 0
10, 39720, Note_on_c, 8, 64, 100
10, 39840, Note_on_c, 8, 64, 0
10, 39840, Note_on_c, 8, 62, 100
10, 39960, Note_on_c, 8, 62, 0
10, 39960, Note_on_c, 8, 60, 100
10, 40080, Note_on_c, 8, 60, 0
10, 40080, Note_on_c, 8, 60, 100
10, 40200, Note_on_c, 8, 60, 0
10, 40200, Note_on_c, 8, 58, 100
10, 40320, Note_on_c, 8, 58, 0
10, 40320, Note_on_c, 8, 57, 100
10, 40440, Note_on_c, 8, 57, 0
10, 40440, Note_on_c, 8, 57, 100
10, 40560, Note_on_c, 8, 57, 0
10, 40560, Note_on_c, 8, 55, 100
10, 40680, Note_on_c, 8, 55, 0
10, 40680, Note_on_c, 8, 65, 100
10, 40800, Note_on_c, 8, 65, 0
10, 40800, Note_on_c, 8, 64, 100
10, 40920, Note_on_c, 8, 64, 0
10, 40920, Note_on_c, 8, 65, 100
10, 41040, Note_on_c, 8, 65, 0
10, 41040, Note_on_c, 8, 65, 100
10, 41070, Note_on_c, 8, 65, 0
10, 41070, Note_on_c, 8, 69, 100
10, 41160, Note_on_c, 8, 69, 0
10, 41160, Note_on_c, 8, 65, 100
10, 41220, Note_on_c, 8, 65, 0
10, 41280, Note_on_c, 8, 69, 100
10, 41400, Note_on_c, 8, 69, 0
10, 41400, Note_on_c, 8, 69, 100
10, 41430, Note_on_c, 8, 69, 0
10, 41430, Note_on_c, 8, 72, 100
10, 41520, Note_on_c, 8, 72, 0
10, 41520, Note_on_c, 8, 69, 100
10, 41580, Note_on_c, 8, 69, 0
10, 41640, Note_on_c, 8, 72, 100
10, 41760, Note_on_c, 8, 72, 0
10, 41760, Note_on_c, 8, 77, 100
10, 41880, Note_on_c, 8, 77, 0
10, 41880, Note_on_c, 8, 77, 100
10, 42000, Note_on_c, 8, 77, 0
10, 42000, Note_on_c, 8, 76, 100
10, 42120, Note_on_c, 8, 76, 0
10, 42120, Note_on_c, 8, 74, 100
10, 42240, Note_on_c, 8, 74, 0
10, 42240, Note_on_c, 8, 74, 100
10, 42360, Note_on_c, 8, 74, 0
10, 42360, Note_on_c, 8, 72, 100
10, 42480, Note_on_c, 8, 72, 0
10, 42480, Note_on_c, 8, 70, 100
10, 42600, Note_on_c, 8, 70, 0
10, 42600, Note_on_c, 8, 70, 100
10, 42720, Note_on_c, 8, 70, 0
10, 42720, Note_on_c, 8, 69, 100
10, 42840, Note_on_c, 8, 69, 0
10, 42840, Note_on_c, 8, 67, 100
10, 43200, Note_on_c, 8, 67, 0
10, 43200, Note_on_c, 8, 79, 100
10, 43320, Note_on_c, 8, 79, 0
10, 43320, Note_on_c, 8, 79, 100
10, 43440, Note_on_c, 8, 79, 0
10, 43440, Note_on_c, 8, 77, 100
10, 43560, Note_on_c, 8, 77, 0
10, 43560, Note_on_c, 8, 76, 100
10, 43680, Note_on_c, 8, 76, 0
10, 43680, Note_on_c, 8, 76, 100
10, 43800, Note_on_c, 8, 76, 0
10, 43800, Note_on_c, 8, 74, 100
10, 43920, Note_on_c, 8, 74, 0
10, 43920, Note_on_c, 8, 72, 100
10, 44040, Note_on_c, 8, 72, 0
10, 44040, Note_on_c, 8, 72, 100
10, 44160, Note_on_c, 8, 72, 0
10, 44160, Note_on_c, 8, 70, 100
10, 44280, Note_on_c, 8, 70, 0
10, 44280, Note_on_c, 8, 69, 100
10, 44640, Note_on_c, 8, 69, 0
10, 44640, Note_on_c, 8, 69, 100
10, 45840, Note_on_c, 8, 69, 0
10, 45840, Note_on_c, 8, 72, 100
10, 45960, Note_on_c, 8, 72, 0
10, 45960, Note_on_c, 8, 72, 100
10, 46080, Note_on_c, 8, 72, 0
10, 46080, Note_on_c, 8, 72, 100
10, 47280, Note_on_c, 8, 72, 0
10, 47280, Note_on_c, 8, 77, 100
10, 47400, Note_on_c, 8, 77, 0
10, 47400, Note_on_c, 8, 77, 100
10, 47520, Note_on_c, 8, 77, 0
10, 47520, Note_on_c, 8, 64, 100
10, 47640, Note_on_c, 8, 64, 0
10, 47640, Note_on_c, 8, 64, 100
10, 47760, Note_on_c, 8, 64, 0
10, 47760, Note_on_c, 8, 65, 100
10, 47880, Note_on_c, 8, 65, 0
10, 47880, Note_on_c, 8, 64, 100
10, 48120, Note_on_c, 8, 64, 0
10, 48120, Note_on_c, 8, 65, 100
10, 48240, Note_on_c, 8, 65, 0
10, 48960, Note_on_c, 8, 64, 100
10, 49080, Note_on_c, 8, 64, 0
10, 49080, Note_on_c, 8, 64, 100
10, 49200, Note_on_c, 8, 64, 0
10, 49200, Note_on_c, 8, 65, 100
10, 49320, Note_on_c, 8, 65, 0
10, 49320, Note_on_c, 8, 64, 100
10, 49560, Note_on_c, 8, 64, 0
10, 49560, Note_on_c, 8, 65, 100
10, 49680, Note_on_c, 8, 65, 0
10, 49680, Note_on_c, 8, 65, 100
10, 49920, Note_on_c, 8, 65, 0
10, 49920, Note_on_c, 8, 65, 100
10, 50040, Note_on_c, 8, 65, 0
10, 50040, Note_on_c, 8, 71, 100
10, 50280, Note_on_c, 8, 71, 0
10, 50280, Note_on_c, 8, 72, 100
10, 50400, Note_on_c, 8, 72, 0
10, 50400, Note_on_c, 8, 72, 100
10, 50640, Note_on_c, 8, 72, 0
10, 50640, Note_on_c, 8, 72, 100
10, 50760, Note_on_c, 8, 72, 0
10, 50760, Note_on_c, 8, 77, 100
10, 51000, Note_on_c, 8, 77, 0
10, 51000, Note_on_c, 8, 76, 100
10, 51120, Note_on_c, 8, 76, 0
10, 51120, Note_on_c, 8, 65, 100
10, 51240, Note_on_c, 8, 65, 0
10, 51240, Note_on_c, 8, 65, 100
10, 51360, Note_on_c, 8, 65, 0
10, 51360, Note_on_c, 8, 67, 100
10, 51480, Note_on_c, 8, 67, 0
10, 51480, Note_on_c, 8, 64, 100
10, 51600, Note_on_c, 8, 64, 0
10, 51600, Note_on_c, 8, 64, 100
10, 51720, Note_on_c, 8, 64, 0
10, 51720, Note_on_c, 8, 65, 100
10, 51840, Note_on_c, 8, 65, 0
10, 51840, Note_on_c, 8, 62, 100
10, 51960, Note_on_c, 8, 62, 0
10, 51960, Note_on_c, 8, 62, 100
10, 52080, Note_on_c, 8, 62, 0
10, 52080, Note_on_c, 8, 67, 100
10, 52200, Note_on_c, 8, 67, 0
10, 52200, Note_on_c, 8, 64, 100
10, 52320, Note_on_c, 8, 64, 0
10, 52320, Note_on_c, 8, 64, 100
10, 52440, Note_on_c, 8, 64, 0
10, 52440, Note_on_c, 8, 67, 100
10, 52560, Note_on_c, 8, 67, 0
10, 52560, Note_on_c, 8, 65, 100
10, 52680, Note_on_c, 8, 65, 0
10, 52680, Note_on_c, 8, 65, 100
10, 52800, Note_on_c, 8, 65, 0
10, 52800, Note_on_c, 8, 67, 100
10, 52920, Note_on_c, 8, 67, 0
10, 52920, Note_on_c, 8, 64, 100
10, 53040, Note_on_c, 8, 64, 0
10, 53040, Note_on_c, 8, 67, 100
10, 53160, Note_on_c, 8, 67, 0
10, 53160, Note_on_c, 8, 67, 100
10, 53280, Note_on_c, 8, 67, 0
10, 53280, Note_on_c, 8, 65, 100
10, 53400, Note_on_c, 8, 65, 0
10, 53400, Note_on_c, 8, 65, 100
10, 53520, Note_on_c, 8, 65, 0
10, 53520, Note_on_c, 8, 67, 100
10, 53640, Note_on_c, 8, 67, 0
10, 53640, Note_on_c, 8, 64, 100
10, 53760, Note_on_c, 8, 64, 0
10, 53760, Note_on_c, 8, 64, 100
10, 53880, Note_on_c, 8, 64, 0
10, 53880, Note_on_c, 8, 67, 100
10, 54000, Note_on_c, 8, 67, 0
10, 54000, Note_on_c, 8, 67, 100
10, 54030, Note_on_c, 8, 67, 0
10, 54030, Note_on_c, 8, 69, 100
10, 54060, Note_on_c, 8, 69, 0
10, 54060, Note_on_c, 8, 67, 100
10, 54090, Note_on_c, 8, 67, 0
10, 54090, Note_on_c, 8, 69, 100
10, 54120, Note_on_c, 8, 69, 0
10, 54120, Note_on_c, 8, 67, 100
10, 54150, Note_on_c, 8, 67, 0
10, 54150, Note_on_c, 8, 69, 100
10, 54180, Note_on_c, 8, 69, 0
10, 54180, Note_on_c, 8, 67, 100
10, 54210, Note_on_c, 8, 67, 0
10, 54210, Note_on_c, 8, 69, 100
10, 54240, Note_on_c, 8, 69, 0
10, 54240, Note_on_c, 8, 67, 100
10, 54270, Note_on_c, 8, 67, 0
10, 54270, Note_on_c, 8, 69, 100
10, 54300, Note_on_c, 8, 69, 0
10, 54300, Note_on_c, 8, 65, 100
10, 54330, Note_on_c, 8, 65, 0
10, 54330, Note_on_c, 8, 67, 100
10, 54360, Note_on_c, 8, 67, 0
10, 54360, Note_on_c, 8, 65, 100
10, 54480, Note_on_c, 8, 65, 0
10, 54480, Note_on_c, 8, 69, 100
10, 54600, Note_on_c, 8, 69, 0
10, 54600, Note_on_c, 8, 65, 100
10, 54720, Note_on_c, 8, 65, 0
10, 54720, Note_on_c, 8, 67, 100
10, 54750, Note_on_c, 8, 67, 0
10, 54750, Note_on_c, 8, 69, 100
10, 54780, Note_on_c, 8, 69, 0
10, 54780, Note_on_c, 8, 67, 100
10, 54810, Note_on_c, 8, 67, 0
10, 54810, Note_on_c, 8, 69, 100
10, 54840, Note_on_c, 8, 69, 0
10, 54840, Note_on_c, 8, 67, 100
10, 54870, Note_on_c, 8, 67, 0
10, 54870, Note_on_c, 8, 69, 100
10, 54900, Note_on_c, 8, 69, 0
10, 54900, Note_on_c, 8, 67, 100
10, 54930, Note_on_c, 8, 67, 0
10, 54930, Note_on_c, 8, 69, 100
10, 54960, Note_on_c, 8, 69, 0
10, 54960, Note_on_c, 8, 67, 100
10, 54990, Note_on_c, 8, 67, 0
10, 54990, Note_on_c, 8, 69, 100
10, 55020, Note_on_c, 8, 69, 0
10, 55020, Note_on_c, 8, 65, 100
10, 55050, Note_on_c, 8, 65, 0
10, 55050, Note_on_c, 8, 67, 100
10, 55080, Note_on_c, 8, 67, 0
10, 55080, Note_on_c, 8, 65, 100
10, 55200, Note_on_c, 8, 65, 0
10, 55200, Note_on_c, 8, 69, 100
10, 55320, Note_on_c, 8, 69, 0
10, 55320, Note_on_c, 8, 65, 100
10, 55440, Note_on_c, 8, 65, 0
10, 55440, Note_on_c, 8, 67, 100
10, 55470, Note_on_c, 8, 67, 0
10, 55470, Note_on_c, 8, 69, 100
10, 55500, Note_on_c, 8, 69, 0
10, 55500, Note_on_c, 8, 67, 100
10, 55530, Note_on_c, 8, 67, 0
10, 55530, Note_on_c, 8, 69, 100
10, 55560, Note_on_c, 8, 69, 0
10, 55560, Note_on_c, 8, 67, 100
10, 55590, Note_on_c, 8, 67, 0
10, 55590, Note_on_c, 8, 69, 100
10, 55620, Note_on_c, 8, 69, 0
10, 55620, Note_on_c, 8, 67, 100
10, 55650, Note_on_c, 8, 67, 0
10, 55650, Note_on_c, 8, 69, 100
10, 55680, Note_on_c, 8, 69, 0
10, 55680, Note_on_c, 8, 67, 100
10, 55710, Note_on_c, 8, 67, 0
10, 55710, Note_on_c, 8, 69, 100
10, 55740, Note_on_c, 8, 69, 0
10, 55740, Note_on_c, 8, 65, 100
10, 55770, Note_on_c, 8, 65, 0
10, 55770, Note_on_c, 8, 67, 100
10, 55800, Note_on_c, 8, 67, 0
10, 55800, Note_on_c, 8, 65, 100
10, 55920, Note_on_c, 8, 65, 0
10, 55920, Note_on_c, 8, 69, 100
10, 56040, Note_on_c, 8, 69, 0
10, 56040, Note_on_c, 8, 65, 100
10, 56160, Note_on_c, 8, 65, 0
10, 56160, Note_on_c, 8, 67, 100
10, 56190, Note_on_c, 8, 67, 0
10, 56190, Note_on_c, 8, 69, 100
10, 56220, Note_on_c, 8, 69, 0
10, 56220, Note_on_c, 8, 67, 100
10, 56250, Note_on_c, 8, 67, 0
10, 56250, Note_on_c, 8, 69, 100
10, 56280, Note_on_c, 8, 69, 0
10, 56280, Note_on_c, 8, 67, 100
10, 56310, Note_on_c, 8, 67, 0
10, 56310, Note_on_c, 8, 69, 100
10, 56340, Note_on_c, 8, 69, 0
10, 56340, Note_on_c, 8, 67, 100
10, 56370, Note_on_c, 8, 67, 0
10, 56370, Note_on_c, 8, 69, 100
10, 56400, Note_on_c, 8, 69, 0
10, 56400, Note_on_c, 8, 67, 100
10, 56430, Note_on_c, 8, 67, 0
10, 56430, Note_on_c, 8, 69, 100
10, 56460, Note_on_c, 8, 69, 0
10, 56460, Note_on_c, 8, 65, 100
10, 56490, Note_on_c, 8, 65, 0
10, 56490, Note_on_c, 8, 67, 100
10, 56520, Note_on_c, 8, 67, 0
10, 56520, Note_on_c, 8, 65, 100
10, 56640, Note_on_c, 8, 65, 0
10, 56640, Note_on_c, 8, 69, 100
10, 56760, Note_on_c, 8, 69, 0
10, 56760, Note_on_c, 8, 65, 100
10, 56880, Note_on_c, 8, 65, 0
10, 56880, Note_on_c, 8, 67, 100
10, 56910, Note_on_c, 8, 67, 0
10, 56910, Note_on_c, 8, 69, 100
10, 56940, Note_on_c, 8, 69, 0
10, 56940, Note_on_c, 8, 67, 100
10, 56970, Note_on_c, 8, 67, 0
10, 56970, Note_on_c, 8, 69, 100
10, 57000, Note_on_c, 8, 69, 0
10, 57000, Note_on_c, 8, 67, 100
10, 57030, Note_on_c, 8, 67, 0
10, 57030, Note_on_c, 8, 69, 100
10, 57060, Note_on_c, 8, 69, 0
10, 57060, Note_on_c, 8, 67, 100
10, 57090, Note_on_c, 8, 67, 0
10, 57090, Note_on_c, 8, 69, 100
10, 57120, Note_on_c, 8, 69, 0
10, 57120, Note_on_c, 8, 67, 100
10, 57150, Note_on_c, 8, 67, 0
10, 57150, Note_on_c, 8, 69, 100
10, 57180, Note_on_c, 8, 69, 0
10, 57180, Note_on_c, 8, 65, 100
10, 57210, Note_on_c, 8, 65, 0
10, 57210, Note_on_c, 8, 67, 100
10, 57240, Note_on_c, 8, 67, 0
10, 57240, Note_on_c, 8, 65, 100
10, 57360, Note_on_c, 8, 65, 0
10, 57360, Note_on_c, 8, 72, 100
10, 57480, Note_on_c, 8, 72, 0
10, 57480, Note_on_c, 8, 69, 100
10, 57600, Note_on_c, 8, 69, 0
10, 57600, Note_on_c, 8, 65, 100
10, 57720, Note_on_c, 8, 65, 0
10, 57720, Note_on_c, 8, 60, 100
10, 57840, Note_on_c, 8, 60, 0
10, 57840, Note_on_c, 8, 57, 100
10, 57960, Note_on_c, 8, 57, 0
10, 57960, Note_on_c, 8, 65, 100
10, 57960, Note_on_c, 8, 57, 100
10, 58080, Note_on_c, 8, 57, 0
10, 58080, Note_on_c, 8, 65, 0
10, 58920, Note_on_c, 8, 65, 100
10, 59040, Note_on_c, 8, 65, 0
10, 59040, Note_on_c, 8, 65, 100
10, 59070, Note_on_c, 8, 65, 0
10, 59070, Note_on_c, 8, 69, 100
10, 59160, Note_on_c, 8, 69, 0
10, 59160, Note_on_c, 8, 65, 100
10, 59220, Note_on_c, 8, 65, 0
10, 59280, Note_on_c, 8, 65, 100
10, 59400, Note_on_c, 8, 65, 0
10, 59400, Note_on_c, 8, 65, 100
10, 59430, Note_on_c, 8, 65, 0
10, 59430, Note_on_c, 8, 69, 100
10, 59520, Note_on_c, 8, 69, 0
10, 59520, Note_on_c, 8, 65, 100
10, 59580, Note_on_c, 8, 65, 0
10, 59640, Note_on_c, 8, 65, 100
10, 59760, Note_on_c, 8, 65, 0
10, 59760, Note_on_c, 8, 65, 100
10, 59790, Note_on_c, 8, 65, 0
10, 59790, Note_on_c, 8, 69, 100
10, 59880, Note_on_c, 8, 69, 0
10, 59880, Note_on_c, 8, 65, 100
10, 59940, Note_on_c, 8, 65, 0
10, 60000, Note_on_c, 8, 65, 100
10, 60120, Note_on_c, 8, 65, 0
10, 60120, Note_on_c, 8, 65, 100
10, 60150, Note_on_c, 8, 65, 0
10, 60150, Note_on_c, 8, 69, 100
10, 60240, Note_on_c, 8, 69, 0
10, 60240, Note_on_c, 8, 65, 100
10, 60360, Note_on_c, 8, 65, 0
10, 60360, Note_on_c, 8, 65, 100
10, 60480, Note_on_c, 8, 65, 0
10, 60480, Note_on_c, 8, 65, 100
10, 60510, Note_on_c, 8, 65, 0
10, 60510, Note_on_c, 8, 69, 100
10, 60600, Note_on_c, 8, 69, 0
10, 60600, Note_on_c, 8, 65, 100
10, 60720, Note_on_c, 8, 65, 0
10, 60720, Note_on_c, 8, 65, 100
10, 60840, Note_on_c, 8, 65, 0
10, 60840, Note_on_c, 8, 65, 100
10, 60870, Note_on_c, 8, 65, 0
10, 60870, Note_on_c, 8, 69, 100
10, 60960, Note_on_c, 8, 69, 0
10, 60960, Note_on_c, 8, 65, 100
10, 61080, Note_on_c, 8, 65, 0
10, 61080, Note_on_c, 8, 65, 100
10, 61200, Note_on_c, 8, 65, 0
10, 61200, Note_on_c, 8, 69, 100
10, 61200, Note_on_c, 8, 81, 100
10, 62520, Note_on_c, 8, 81, 0
10, 62520, Note_on_c, 8, 69, 0
10, 63240, Note_on_c, 8, 69, 100
10, 63360, Note_on_c, 8, 69, 0
10, 63360, Note_on_c, 8, 69, 100
10, 63390, Note_on_c, 8, 69, 0
10, 63390, Note_on_c, 8, 73, 100
10, 63480, Note_on_c, 8, 73, 0
10, 63480, Note_on_c, 8, 69, 100
10, 63540, Note_on_c, 8, 69, 0
10, 66960, Note_on_c, 8, 73, 100
10, 67200, Note_on_c, 8, 73, 0
10, 67200, Note_on_c, 8, 74, 100
10, 67320, Note_on_c, 8, 74, 0
10, 67320, Note_on_c, 8, 73, 100
10, 67560, Note_on_c, 8, 73, 0
10, 67560, Note_on_c, 8, 74, 100
10, 67680, Note_on_c, 8, 74, 0
10, 67680, Note_on_c, 8, 73, 100
10, 67920, Note_on_c, 8, 73, 0
10, 67920, Note_on_c, 8, 74, 100
10, 68040, Note_on_c, 8, 74, 0
10, 68040, Note_on_c, 8, 73, 100
10, 68280, Note_on_c, 8, 73, 0
10, 68280, Note_on_c, 8, 74, 100
10, 68400, Note_on_c, 8, 74, 0
10, 69360, Note_on_c, 8, 71, 100
10, 69480, Note_on_c, 8, 71, 0
10, 69480, Note_on_c, 8, 74, 100
10, 69600, Note_on_c, 8, 74, 0
10, 69600, Note_on_c, 8, 71, 100
10, 69660, Note_on_c, 8, 71, 0
10, 72720, Note_on_c, 8, 76, 100
10, 72960, Note_on_c, 8, 76, 0
10, 72960, Note_on_c, 8, 77, 100
10, 73080, Note_on_c, 8, 77, 0
10, 73080, Note_on_c, 8, 76, 100
10, 73320, Note_on_c, 8, 76, 0
10, 73320, Note_on_c, 8, 77, 100
10, 73440, Note_on_c, 8, 77, 0
10, 73440, Note_on_c, 8, 76, 100
10, 73680, Note_on_c, 8, 76, 0
10, 73680, Note_on_c, 8, 77, 100
10, 73800, Note_on_c, 8, 77, 0
10, 73800, Note_on_c, 8, 76, 100
10, 74040, Note_on_c, 8, 76, 0
10, 74040, Note_on_c, 8, 77, 100
10, 74160, Note_on_c, 8, 77, 0
10, 75120, Note_on_c, 8, 69, 100
10, 75240, Note_on_c, 8, 69, 0
10, 75240, Note_on_c, 8, 72, 100
10, 75360, Note_on_c, 8, 72, 0
10, 75360, Note_on_c, 8, 69, 100
10, 75420, Note_on_c, 8, 69, 0
10, 75480, Note_on_c, 8, 70, 100
10, 75600, Note_on_c, 8, 70, 0
10, 75600, Note_on_c, 8, 70, 100
10, 75720, Note_on_c, 8, 70, 0
10, 75720, Note_on_c, 8, 70, 100
10, 75840, Note_on_c, 8, 70, 0
10, 75840, Note_on_c, 8, 70, 100
10, 75960, Note_on_c, 8, 70, 0
10, 75960, Note_on_c, 8, 70, 100
10, 76200, Note_on_c, 8, 70, 0
10, 76200, Note_on_c, 8, 70, 100
10, 76320, Note_on_c, 8, 70, 0
10, 76320, Note_on_c, 8, 70, 100
10, 76440, Note_on_c, 8, 70, 0
10, 76440, Note_on_c, 8, 70, 100
10, 76560, Note_on_c, 8, 70, 0
10, 76560, Note_on_c, 8, 70, 100
10, 76680, Note_on_c, 8, 70, 0
10, 76680, Note_on_c, 8, 70, 100
10, 76920, Note_on_c, 8, 70, 0
10, 76920, Note_on_c, 8, 70, 100
10, 77040, Note_on_c, 8, 70, 0
10, 77040, Note_on_c, 8, 62, 100
10, 77160, Note_on_c, 8, 62, 0
10, 77160, Note_on_c, 8, 65, 100
10, 77280, Note_on_c, 8, 65, 0
10, 77280, Note_on_c, 8, 65, 100
10, 77400, Note_on_c, 8, 65, 0
10, 77400, Note_on_c, 8, 62, 100
10, 77520, Note_on_c, 8, 62, 0
10, 77520, Note_on_c, 8, 65, 100
10, 77640, Note_on_c, 8, 65, 0
10, 77640, Note_on_c, 8, 65, 100
10, 77760, Note_on_c, 8, 65, 0
10, 77760, Note_on_c, 8, 62, 100
10, 77880, Note_on_c, 8, 62, 0
10, 77880, Note_on_c, 8, 65, 100
10, 78000, Note_on_c, 8, 65, 0
10, 78000, Note_on_c, 8, 65, 100
10, 78120, Note_on_c, 8, 65, 0
10, 78120, Note_on_c, 8, 62, 100
10, 78240, Note_on_c, 8, 62, 0
10, 78240, Note_on_c, 8, 65, 100
10, 78360, Note_on_c, 8, 65, 0
10, 78360, Note_on_c, 8, 65, 100
10, 78480, Note_on_c, 8, 65, 0
10, 78480, Note_on_c, 8, 60, 100
10, 78600, Note_on_c, 8, 60, 0
10, 78600, Note_on_c, 8, 60, 100
10, 78720, Note_on_c, 8, 60, 0
10, 78720, Note_on_c, 8, 65, 100
10, 78840, Note_on_c, 8, 65, 0
10, 78840, Note_on_c, 8, 60, 100
10, 78960, Note_on_c, 8, 60, 0
10, 78960, Note_on_c, 8, 60, 100
10, 79080, Note_on_c, 8, 60, 0
10, 79080, Note_on_c, 8, 65, 100
10, 79200, Note_on_c, 8, 65, 0
10, 79200, Note_on_c, 8, 60, 100
10, 79320, Note_on_c, 8, 60, 0
10, 79320, Note_on_c, 8, 60, 100
10, 79440, Note_on_c, 8, 60, 0
10, 79440, Note_on_c, 8, 65, 100
10, 79560, Note_on_c, 8, 65, 0
10, 79560, Note_on_c, 8, 60, 100
10, 79680, Note_on_c, 8, 60, 0
10, 79680, Note_on_c, 8, 60, 100
10, 79800, Note_on_c, 8, 60, 0
10, 79800, Note_on_c, 8, 65, 100
10, 79920, Note_on_c, 8, 65, 0
10, 79920, Note_on_c, 8, 65, 100
10, 80040, Note_on_c, 8, 65, 0
10, 80040, Note_on_c, 8, 65, 100
10, 80160, Note_on_c, 8, 65, 0
10, 80160, Note_on_c, 8, 65, 100
10, 80280, Note_on_c, 8, 65, 0
10, 80280, Note_on_c, 8, 62, 100
10, 80400, Note_on_c, 8, 62, 0
10, 80400, Note_on_c, 8, 62, 100
10, 80520, Note_on_c, 8, 62, 0
10, 80520, Note_on_c, 8, 65, 100
10, 80640, Note_on_c, 8, 65, 0
10, 80640, Note_on_c, 8, 62, 100
10, 80760, Note_on_c, 8, 62, 0
10, 80760, Note_on_c, 8, 62, 100
10, 80880, Note_on_c, 8, 62, 0
10, 80880, Note_on_c, 8, 65, 100
10, 81000, Note_on_c, 8, 65, 0
10, 81000, Note_on_c, 8, 62, 100
10, 81120, Note_on_c, 8, 62, 0
10, 81120, Note_on_c, 8, 62, 100
10, 81240, Note_on_c, 8, 62, 0
10, 81240, Note_on_c, 8, 65, 100
10, 81360, Note_on_c, 8, 65, 0
10, 81360, Note_on_c, 8, 65, 100
10, 81480, Note_on_c, 8, 65, 0
10, 81480, Note_on_c, 8, 65, 100
10, 81600, Note_on_c, 8, 65, 0
10, 81600, Note_on_c, 8, 65, 100
10, 81720, Note_on_c, 8, 65, 0
10, 81720, Note_on_c, 8, 65, 100
10, 81840, Note_on_c, 8, 65, 0
10, 81840, Note_on_c, 8, 65, 100
10, 81960, Note_on_c, 8, 65, 0
10, 81960, Note_on_c, 8, 69, 100
10, 82080, Note_on_c, 8, 69, 0
10, 82080, Note_on_c, 8, 65, 100
10, 82200, Note_on_c, 8, 65, 0
10, 82200, Note_on_c, 8, 65, 100
10, 82320, Note_on_c, 8, 65, 0
10, 82320, Note_on_c, 8, 69, 100
10, 82440, Note_on_c, 8, 69, 0
10, 82440, Note_on_c, 8, 65, 100
10, 82560, Note_on_c, 8, 65, 0
10, 82560, Note_on_c, 8, 65, 100
10, 82680, Note_on_c, 8, 65, 0
10, 82680, Note_on_c, 8, 69, 100
10, 82800, Note_on_c, 8, 69, 0
10, 82800, Note_on_c, 8, 65, 100
10, 82920, Note_on_c, 8, 65, 0
10, 82920, Note_on_c, 8, 65, 100
10, 83040, Note_on_c, 8, 65, 0
10, 83040, Note_on_c, 8, 70, 100
10, 83160, Note_on_c, 8, 70, 0
10, 83880, Note_on_c, 8, 67, 100
10, 84000, Note_on_c, 8, 67, 0
10, 84000, Note_on_c, 8, 67, 100
10, 84120, Note_on_c, 8, 67, 0
10, 84120, Note_on_c, 8, 65, 100
10, 84240, Note_on_c, 8, 65, 0
10, 84240, Note_on_c, 8, 64, 100
10, 84360, Note_on_c, 8, 64, 0
10, 84360, Note_on_c, 8, 64, 100
10, 84480, Note_on_c, 8, 64, 0
10, 84480, Note_on_c, 8, 62, 100
10, 84600, Note_on_c, 8, 62, 0
10, 84600, Note_on_c, 8, 60, 100
10, 84720, Note_on_c, 8, 60, 0
10, 84720, Note_on_c, 8, 60, 100
10, 84840, Note_on_c, 8, 60, 0
10, 84840, Note_on_c, 8, 58, 100
10, 84960, Note_on_c, 8, 58, 0
10, 84960, Note_on_c, 8, 57, 100
10, 85080, Note_on_c, 8, 57, 0
10, 85080, Note_on_c, 8, 57, 100
10, 85200, Note_on_c, 8, 57, 0
10, 85200, Note_on_c, 8, 55, 100
10, 85320, Note_on_c, 8, 55, 0
10, 85320, Note_on_c, 8, 65, 100
10, 85440, Note_on_c, 8, 65, 0
10, 85440, Note_on_c, 8, 64, 100
10, 85560, Note_on_c, 8, 64, 0
10, 85560, Note_on_c, 8, 65, 100
10, 85680, Note_on_c, 8, 65, 0
10, 85680, Note_on_c, 8, 65, 100
10, 85710, Note_on_c, 8, 65, 0
10, 85710, Note_on_c, 8, 69, 100
10, 85800, Note_on_c, 8, 69, 0
10, 85800, Note_on_c, 8, 65, 100
10, 85860, Note_on_c, 8, 65, 0
10, 85920, Note_on_c, 8, 69, 100
10, 86040, Note_on_c, 8, 69, 0
10, 86040, Note_on_c, 8, 69, 100
10, 86070, Note_on_c, 8, 69, 0
10, 86070, Note_on_c, 8, 72, 100
10, 86160, Note_on_c, 8, 72, 0
10, 86160, Note_on_c, 8, 69, 100
10, 86220, Note_on_c, 8, 69, 0
10, 86280, Note_on_c, 8, 72, 100
10, 86400, Note_on_c, 8, 72, 0
10, 86400, Note_on_c, 8, 77, 100
10, 86520, Note_on_c, 8, 77, 0
10, 86520, Note_on_c, 8, 77, 100
10, 86640, Note_on_c, 8, 77, 0
10, 86640, Note_on_c, 8, 76, 100
10, 86760, Note_on_c, 8, 76, 0
10, 86760, Note_on_c, 8, 74, 100
10, 86880, Note_on_c, 8, 74, 0
10, 86880, Note_on_c, 8, 74, 100
10, 87000, Note_on_c, 8, 74, 0
10, 87000, Note_on_c, 8, 72, 100
10, 87120, Note_on_c, 8, 72, 0
10, 87120, Note_on_c, 8, 70, 100
10, 87240, Note_on_c, 8, 70, 0
10, 87240, Note_on_c, 8, 70, 100
10, 87360, Note_on_c, 8, 70, 0
10, 87360, Note_on_c, 8, 69, 100
10, 87480, Note_on_c, 8, 69, 0
10, 87480, Note_on_c, 8, 67, 100
10, 87840, Note_on_c, 8, 67, 0
10, 87840, Note_on_c, 8, 79, 100
10, 87960, Note_on_c, 8, 79, 0
10, 87960, Note_on_c, 8, 79, 100
10, 88080, Note_on_c, 8, 79, 0
10, 88080, Note_on_c, 8, 77, 100
10, 88200, Note_on_c, 8, 77, 0
10, 88200, Note_on_c, 8, 76, 100
10, 88320, Note_on_c, 8, 76, 0
10, 88320, Note_on_c, 8, 76, 100
10, 88440, Note_on_c, 8, 76, 0
10, 88440, Note_on_c, 8, 74, 100
10, 88560, Note_on_c, 8, 74, 0
10, 88560, Note_on_c, 8, 72, 100
10, 88680, Note_on_c, 8, 72, 0
10, 88680, Note_on_c, 8, 72, 100
10, 88800, Note_on_c, 8, 72, 0
10, 88800, Note_on_c, 8, 70, 100
10, 88920, Note_on_c, 8, 70, 0
10, 88920, Note_on_c, 8, 69, 100
10, 89280, Note_on_c, 8, 69, 0
10, 89280, Note_on_c, 8, 69, 100
10, 90480, Note_on_c, 8, 69, 0
10, 90480, Note_on_c, 8, 72, 100
10, 90600, Note_on_c, 8, 72, 0
10, 90600, Note_on_c, 8, 72, 100
10, 90720, Note_on_c, 8, 72, 0
10, 90720, Note_on_c, 8, 72, 100
10, 91920, Note_on_c, 8, 72, 0
10, 91920, Note_on_c, 8, 77, 100
10, 92040, Note_on_c, 8, 77, 0
10, 92040, Note_on_c, 8, 77, 100
10, 92160, Note_on_c, 8, 77, 0
10, 92160, Note_on_c, 8, 64, 100
10, 92280, Note_on_c, 8, 64, 0
10, 92280, Note_on_c, 8, 64, 100
10, 92400, Note_on_c, 8, 64, 0
10, 92400, Note_on_c, 8, 65, 100
10, 92520, Note_on_c, 8, 65, 0
10, 92520, Note_on_c, 8, 64, 100
10, 92760, Note_on_c, 8, 64, 0
10, 92760, Note_on_c, 8, 65, 100
10, 92880, Note_on_c, 8, 65, 0
10, 93600, Note_on_c, 8, 64, 100
10, 93720, Note_on_c, 8, 64, 0
10, 93720, Note_on_c, 8, 64, 100
10, 93840, Note_on_c, 8, 64, 0
10, 93840, Note_on_c, 8, 65, 100
10, 93960, Note_on_c, 8, 65, 0
10, 93960, Note_on_c, 8, 64, 100
10, 94200, Note_on_c, 8, 64, 0
10, 94200, Note_on_c, 8, 65, 100
10, 94320, Note_on_c, 8, 65, 0
10, 94320, Note_on_c, 8, 65, 100
10, 94560, Note_on_c, 8, 65, 0
10, 94560, Note_on_c, 8, 65, 100
10, 94680, Note_on_c, 8, 65, 0
10, 94680, Note_on_c, 8, 71, 100
10, 94920, Note_on_c, 8, 71, 0
10, 94920, Note_on_c, 8, 72, 100
10, 95040, Note_on_c, 8, 72, 0
10, 95040, Note_on_c, 8, 72, 100
10, 95280, Note_on_c, 8, 72, 0
10, 95280, Note_on_c, 8, 72, 100
10, 95400, Note_on_c, 8, 72, 0
10, 95400, Note_on_c, 8, 77, 100
10, 95640, Note_on_c, 8, 77, 0
10, 95640, Note_on_c, 8, 76, 100
10, 95760, Note_on_c, 8, 76, 0
10, 95760, Note_on_c, 8, 65, 100
10, 95880, Note_on_c, 8, 65, 0
10, 95880, Note_on_c, 8, 65, 100
10, 96000, Note_on_c, 8, 65, 0
10, 96000, Note_on_c, 8, 67, 100
10, 96120, Note_on_c, 8, 67, 0
10, 96120, Note_on_c, 8, 64, 100
10, 96240, Note_on_c, 8, 64, 0
10, 96240, Note_on_c, 8, 64, 100
10, 96360, Note_on_c, 8, 64, 0
10, 96360, Note_on_c, 8, 65, 100
10, 96480, Note_on_c, 8, 65, 0
10, 96480, Note_on_c, 8, 62, 100
10, 96600, Note_on_c, 8, 62, 0
10, 96600, Note_on_c, 8, 62, 100
10, 96720, Note_on_c, 8, 62, 0
10, 96720, Note_on_c, 8, 67, 100
10, 96840, Note_on_c, 8, 67, 0
10, 96840, Note_on_c, 8, 64, 100
10, 96960, Note_on_c, 8, 64, 0
10, 96960, Note_on_c, 8, 64, 100
10, 97080, Note_on_c, 8, 64, 0
10, 97080, Note_on_c, 8, 67, 100
10, 97200, Note_on_c, 8, 67, 0
10, 97200, Note_on_c, 8, 65, 100
10, 97320, Note_on_c, 8, 65, 0
10, 97320, Note_on_c, 8, 65, 100
10, 97440, Note_on_c, 8, 65, 0
10, 97440, Note_on_c, 8, 67, 100
10, 97560, Note_on_c, 8, 67, 0
10, 97560, Note_on_c, 8, 64, 100
10, 97680, Note_on_c, 8, 64, 0
10, 97680, Note_on_c, 8, 67, 100
10, 97800, Note_on_c, 8, 67, 0
10, 97800, Note_on_c, 8, 67, 100
10, 97920, Note_on_c, 8, 67, 0
10, 97920, Note_on_c, 8, 65, 100
10, 98040, Note_on_c, 8, 65, 0
10, 98040, Note_on_c, 8, 65, 100
10, 98160, Note_on_c, 8, 65, 0
10, 98160, Note_on_c, 8, 67, 100
10, 98280, Note_on_c, 8, 67, 0
10, 98280, Note_on_c, 8, 64, 100
10, 98400, Note_on_c, 8, 64, 0
10, 98400, Note_on_c, 8, 64, 100
10, 98520, Note_on_c, 8, 64, 0
10, 98520, Note_on_c, 8, 67, 100
10, 98640, Note_on_c, 8, 67, 0
10, 98640, Note_on_c, 8, 67, 100
10, 98670, Note_on_c, 8, 67, 0
10, 98670, Note_on_c, 8, 69, 100
10, 98700, Note_on_c, 8, 69, 0
10, 98700, Note_on_c, 8, 67, 100
10, 98730, Note_on_c, 8, 67, 0
10, 98730, Note_on_c, 8, 69, 100
10, 98760, Note_on_c, 8, 69, 0
10, 98760, Note_on_c, 8, 67, 100
10, 98790, Note_on_c, 8, 67, 0
10, 98790, Note_on_c, 8, 69, 100
10, 98820, Note_on_c, 8, 69, 0
10, 98820, Note_on_c, 8, 67, 100
10, 98850, Note_on_c, 8, 67, 0
10, 98850, Note_on_c, 8, 69, 100
10, 98880, Note_on_c, 8, 69, 0
10, 98880, Note_on_c, 8, 67, 100
10, 98910, Note_on_c, 8, 67, 0
10, 98910, Note_on_c, 8, 69, 100
10, 98940, Note_on_c, 8, 69, 0
10, 98940, Note_on_c, 8, 65, 100
10, 98970, Note_on_c, 8, 65, 0
10, 98970, Note_on_c, 8, 67, 100
10, 99000, Note_on_c, 8, 67, 0
10, 99000, Note_on_c, 8, 65, 100
10, 99120, Note_on_c, 8, 65, 0
10, 99120, Note_on_c, 8, 69, 100
10, 99240, Note_on_c, 8, 69, 0
10, 99240, Note_on_c, 8, 65, 100
10, 99360, Note_on_c, 8, 65, 0
10, 99360, Note_on_c, 8, 67, 100
10, 99390, Note_on_c, 8, 67, 0
10, 99390, Note_on_c, 8, 69, 100
10, 99420, Note_on_c, 8, 69, 0
10, 99420, Note_on_c, 8, 67, 100
10, 99450, Note_on_c, 8, 67, 0
10, 99450, Note_on_c, 8, 69, 100
10, 99480, Note_on_c, 8, 69, 0
10, 99480, Note_on_c, 8, 67, 100
10, 99510, Note_on_c, 8, 67, 0
10, 99510, Note_on_c, 8, 69, 100
10, 99540, Note_on_c, 8, 69, 0
10, 99540, Note_on_c, 8, 67, 100
10, 99570, Note_on_c, 8, 67, 0
10, 99570, Note_on_c, 8, 69, 100
10, 99600, Note_on_c, 8, 69, 0
10, 99600, Note_on_c, 8, 67, 100
10, 99630, Note_on_c, 8, 67, 0
10, 99630, Note_on_c, 8, 69, 100
10, 99660, Note_on_c, 8, 69, 0
10, 99660, Note_on_c, 8, 65, 100
10, 99690, Note_on_c, 8, 65, 0
10, 99690, Note_on_c, 8, 67, 100
10, 99720, Note_on_c, 8, 67, 0
10, 99720, Note_on_c, 8, 65, 100
10, 99840, Note_on_c, 8, 65, 0
10, 99840, Note_on_c, 8, 69, 100
10, 99960, Note_on_c, 8, 69, 0
10, 99960, Note_on_c, 8, 65, 100
10, 100080, Note_on_c, 8, 65, 0
10, 100080, Note_on_c, 8, 67, 100
10, 100110, Note_on_c, 8, 67, 0
10, 100110, Note_on_c, 8, 69, 100
10, 100140, Note_on_c, 8, 69, 0
10, 100140, Note_on_c, 8, 67, 100
10, 100170, Note_on_c, 8, 67, 0
10, 100170, Note_on_c, 8, 69, 100
10, 100200, Note_on_c, 8, 69, 0
10, 100200, Note_on_c, 8, 67, 100
10, 100230, Note_on_c, 8, 67, 0
10, 100230, Note_on_c, 8, 69, 100
10, 100260, Note_on_c, 8, 69, 0
10, 100260, Note_on_c, 8, 67, 100
10, 100290, Note_on_c, 8, 67, 0
10, 100290, Note_on_c, 8, 69, 100
10, 100320, Note_on_c, 8, 69, 0
10, 100320, Note_on_c, 8, 67, 100
10, 100350, Note_on_c, 8, 67, 0
10, 100350, Note_on_c, 8, 69, 100
10, 100380, Note_on_c, 8, 69, 0
10, 100380, Note_on_c, 8, 65, 100
10, 100410, Note_on_c, 8, 65, 0
10, 100410, Note_on_c, 8, 67, 100
10, 100440, Note_on_c, 8, 67, 0
10, 100440, Note_on_c, 8, 65, 100
10, 100560, Note_on_c, 8, 65, 0
10, 100560, Note_on_c, 8, 69, 100
10, 100680, Note_on_c, 8, 69, 0
10, 100680, Note_on_c, 8, 65, 100
10, 100800, Note_on_c, 8, 65, 0
10, 100800, Note_on_c, 8, 67, 100
10, 100830, Note_on_c, 8, 67, 0
10, 100830, Note_on_c, 8, 69, 100
10, 100860, Note_on_c, 8, 69, 0
10, 100860, Note_on_c, 8, 67, 100
10, 100890, Note_on_c, 8, 67, 0
10, 100890, Note_on_c, 8, 69, 100
10, 100920, Note_on_c, 8, 69, 0
10, 100920, Note_on_c, 8, 67, 100
10, 100950, Note_on_c, 8, 67, 0
10, 100950, Note_on_c, 8, 69, 100
10, 100980, Note_on_c, 8, 69, 0
10, 100980, Note_on_c, 8, 67, 100
10, 101010, Note_on_c, 8, 67, 0
10, 101010, Note_on_c, 8, 69, 100
10, 101040, Note_on_c, 8, 69, 0
10, 101040, Note_on_c, 8, 67, 100
10, 101070, Note_on_c, 8, 67, 0
10, 101070, Note_on_c, 8, 69, 100
10, 101100, Note_on_c, 8, 69, 0
10, 101100, Note_on_c, 8, 65, 100
10, 101130, Note_on_c, 8, 65, 0
10, 101130, Note_on_c, 8, 67, 100
10, 101160, Note_on_c, 8, 67, 0
10, 101160, Note_on_c, 8, 65, 100
10, 101280, Note_on_c, 8, 65, 0
10, 101280, Note_on_c, 8, 69, 100
10, 101400, Note_on_c, 8, 69, 0
10, 101400, Note_on_c, 8, 65, 100
10, 101520, Note_on_c, 8, 65, 0
10, 101520, Note_on_c, 8, 67, 100
10, 101550, Note_on_c, 8, 67, 0
10, 101550, Note_on_c, 8, 69, 100
10, 101580, Note_on_c, 8, 69, 0
10, 101580, Note_on_c, 8, 67, 100
10, 101610, Note_on_c, 8, 67, 0
10, 101610, Note_on_c, 8, 69, 100
10, 101640, Note_on_c, 8, 69, 0
10, 101640, Note_on_c, 8, 67, 100
10, 101670, Note_on_c, 8, 67, 0
10, 101670, Note_on_c, 8, 69, 100
10, 101700, Note_on_c, 8, 69, 0
10, 101700, Note_on_c, 8, 67, 100
10, 101730, Note_on_c, 8, 67, 0
10, 101730, Note_on_c, 8, 69, 100
10, 101760, Note_on_c, 8, 69, 0
10, 101760, Note_on_c, 8, 67, 100
10, 101790, Note_on_c, 8, 67, 0
10, 101790, Note_on_c, 8, 69, 100
10, 101820, Note_on_c, 8, 69, 0
10, 101820, Note_on_c, 8, 65, 100
10, 101850, Note_on_c, 8, 65, 0
10, 101850, Note_on_c, 8, 67, 100
10, 101880, Note_on_c, 8, 67, 0
10, 101880, Note_on_c, 8, 65, 100
10, 102000, Note_on_c, 8, 65, 0
10, 102000, Note_on_c, 8, 72, 100
10, 102120, Note_on_c, 8, 72, 0
10, 102120, Note_on_c, 8, 69, 100
10, 102240, Note_on_c, 8, 69, 0
10, 102240, Note_on_c, 8, 65, 100
10, 102360, Note_on_c, 8, 65, 0
10, 102360, Note_on_c, 8, 60, 100
10, 102480, Note_on_c, 8, 60, 0
10, 102480, Note_on_c, 8, 57, 100
10, 102600, Note_on_c, 8, 57, 0
10, 102600, Note_on_c, 8, 65, 100
10, 102600, Note_on_c, 8, 57, 100
10, 102720, Note_on_c, 8, 57, 0
10, 102720, Note_on_c, 8, 65, 0
10, 103560, Note_on_c, 8, 65, 100
10, 103680, Note_on_c, 8, 65, 0
10, 103680, Note_on_c, 8, 65, 100
10, 103710, Note_on_c, 8, 65, 0
10, 103710, Note_on_c, 8, 69, 100
10, 103800, Note_on_c, 8, 69, 0
10, 103800, Note_on_c, 8, 65, 100
10, 103860, Note_on_c, 8, 65, 0
10, 103920, Note_on_c, 8, 65, 100
10, 104040, Note_on_c, 8, 65, 0
10, 104040, Note_on_c, 8, 65, 100
10, 104070, Note_on_c, 8, 65, 0
10, 104070, Note_on_c, 8, 69, 100
10, 104160, Note_on_c, 8, 69, 0
10, 104160, Note_on_c, 8, 65, 100
10, 104220, Note_on_c, 8, 65, 0
10, 104280, Note_on_c, 8, 65, 100
10, 104400, Note_on_c, 8, 65, 0
10, 104400, Note_on_c, 8, 65, 100
10, 104430, Note_on_c, 8, 65, 0
10, 104430, Note_on_c, 8, 69, 100
10, 104520, Note_on_c, 8, 69, 0
10, 104520, Note_on_c, 8, 65, 100
10, 104580, Note_on_c, 8, 65, 0
10, 104640, Note_on_c, 8, 65, 100
10, 104760, Note_on_c, 8, 65, 0
10, 104760, Note_on_c, 8, 65, 100
10, 104790, Note_on_c, 8, 65, 0
10, 104790, Note_on_c, 8, 69, 100
10, 104880, Note_on_c, 8, 69, 0
10, 104880, Note_on_c, 8, 65, 100
10, 105000, Note_on_c, 8, 65, 0
10, 105000, Note_on_c, 8, 65, 100
10, 105120, Note_on_c, 8, 65, 0
10, 105120, Note_on_c, 8, 65, 100
10, 105150, Note_on_c, 8, 65, 0
10, 105150, Note_on_c, 8, 69, 100
10, 105240, Note_on_c, 8, 69, 0
10, 105240, Note_on_c, 8, 65, 100
10, 105360, Note_on_c, 8, 65, 0
10, 105360, Note_on_c, 8, 65, 100
10, 105480, Note_on_c, 8, 65, 0
10, 105480, Note_on_c, 8, 65, 100
10, 105510, Note_on_c, 8, 65, 0
10, 105510, Note_on_c, 8, 69, 100
10, 105600, Note_on_c, 8, 69, 0
10, 105600, Note_on_c, 8, 65, 100
10, 105720, Note_on_c, 8, 65, 0
10, 105720, Note_on_c, 8, 65, 100
10, 105840, Note_on_c, 8, 65, 0
10, 105840, Note_on_c, 8, 69, 100
10, 105840, Note_on_c, 8, 81, 100
10, 107280, Note_on_c, 8, 81, 0
10, 107280, Note_on_c, 8, 69, 0
10, 107280, Note_on_c, 8, 69, 100
10, 109740, Note_on_c, 8, 69, 0
10, 109740, Note_on_c, 8, 68, 100
10, 109800, Note_on_c, 8, 68, 0
10, 109800, Note_on_c, 8, 69, 100
10, 110100, Note_on_c, 8, 69, 0
10, 110100, Note_on_c, 8, 68, 100
10, 110160, Note_on_c, 8, 68, 0
10, 110160, Note_on_c, 8, 69, 100
10, 112560, Note_on_c, 8, 69, 0
10, 112560, Note_on_c, 8, 66, 100
10, 112680, Note_on_c, 8, 66, 0
10, 112680, Note_on_c, 8, 69, 100
10, 112800, Note_on_c, 8, 69, 0
10, 112800, Note_on_c, 8, 67, 100
10, 112920, Note_on_c, 8, 67, 0
10, 112920, Note_on_c, 8, 64, 100
10, 112980, Note_on_c, 8, 64, 0
10, 112980, Note_on_c, 8, 69, 100
10, 113040, Note_on_c, 8, 69, 0
10, 113040, Note_on_c, 8, 69, 100
10, 115440, Note_on_c, 8, 69, 0
10, 115440, Note_on_c, 8, 69, 100
10, 115500, Note_on_c, 8, 69, 0
10, 115500, Note_on_c, 8, 68, 100
10, 115560, Note_on_c, 8, 68, 0
10, 115560, Note_on_c, 8, 69, 100
10, 115860, Note_on_c, 8, 69, 0
10, 115860, Note_on_c, 8, 68, 100
10, 115920, Note_on_c, 8, 68, 0
10, 115920, Note_on_c, 8, 69, 100
10, 118320, Note_on_c, 8, 69, 0
10, 118320, Note_on_c, 8, 66, 100
10, 118440, Note_on_c, 8, 66, 0
10, 118440, Note_on_c, 8, 69, 100
10, 118560, Note_on_c, 8, 69, 0
10, 118560, Note_on_c, 8, 66, 100
10, 118680, Note_on_c, 8, 66, 0
10, 118680, Note_on_c, 8, 62, 100
10, 118740, Note_on_c, 8, 62, 0
10, 118740, Note_on_c, 8, 69, 100
10, 118800, Note_on_c, 8, 69, 0
10, 118800, Note_on_c, 8, 69, 100
10, 121260, Note_on_c, 8, 69, 0
10, 121260, Note_on_c, 8, 68, 100
10, 121320, Note_on_c, 8, 68, 0
10, 121320, Note_on_c, 8, 69, 100
10, 121620, Note_on_c, 8, 69, 0
10, 121620, Note_on_c, 8, 68, 100
10, 121680, Note_on_c, 8, 68, 0
10, 121680, Note_on_c, 8, 69, 100
10, 124500, Note_on_c, 8, 69, 0
10, 124500, Note_on_c, 8, 68, 100
10, 124560, Note_on_c, 8, 68, 0
10, 124560, Note_on_c, 8, 69, 100
10, 125220, Note_on_c, 8, 69, 0
10, 125220, Note_on_c, 8, 68, 100
10, 125280, Note_on_c, 8, 68, 0
10, 125280, Note_on_c, 8, 69, 100
10, 127560, Note_on_c, 8, 69, 0
10, 127560, Note_on_c, 8, 73, 100
10, 127800, Note_on_c, 8, 73, 0
10, 127800, Note_on_c, 8, 73, 100
10, 128040, Note_on_c, 8, 73, 0
10, 128040, Note_on_c, 8, 85, 100
10, 128160, Note_on_c, 8, 85, 0
10, 128160, Note_on_c, 8, 74, 100
10, 128160, Note_on_c, 8, 86, 100
10, 128460, Note_on_c, 8, 86, 0
10, 128460, Note_on_c, 8, 74, 0
10, 128460, Note_on_c, 8, 85, 100
10, 128520, Note_on_c, 8, 85, 0
10, 128520, Note_on_c, 8, 74, 100
10, 128520, Note_on_c, 8, 86, 100
10, 128640, Note_on_c, 8, 86, 0
10, 128640, Note_on_c, 8, 74, 0
10, 128880, Note_on_c, 8, 74, 100
10, 128880, Note_on_c, 8, 86, 100
10, 129180, Note_on_c, 8, 86, 0
10, 129180, Note_on_c, 8, 74, 0
10, 129180, Note_on_c, 8, 85, 100
10, 129240, Note_on_c, 8, 85, 0
10, 129240, Note_on_c, 8, 86, 100
10, 129240, Note_on_c, 8, 74, 100
10, 129360, Note_on_c, 8, 74, 0
10, 129360, Note_on_c, 8, 86, 0
10, 129600, Note_on_c, 8, 86, 100
10, 129720, Note_on_c, 8, 86, 0
10, 129720, Note_on_c, 8, 74, 100
10, 129840, Note_on_c, 8, 74, 0
10, 129840, Note_on_c, 8, 73, 100
10, 129960, Note_on_c, 8, 73, 0
10, 129960, Note_on_c, 8, 74, 100
10, 130080, Note_on_c, 8, 74, 0
10, 130080, Note_on_c, 8, 64, 100
10, 130080, Note_on_c, 8, 73, 100
10, 130200, Note_on_c, 8, 73, 0
10, 130200, Note_on_c, 8, 64, 0
10, 130200, Note_on_c, 8, 66, 100
10, 130200, Note_on_c, 8, 74, 100
10, 130320, Note_on_c, 8, 74, 0
10, 130320, Note_on_c, 8, 66, 0
10, 130320, Note_on_c, 8, 64, 100
10, 130320, Note_on_c, 8, 73, 100
10, 130440, Note_on_c, 8, 73, 0
10, 130440, Note_on_c, 8, 64, 0
10, 131040, Note_on_c, 8, 76, 100
10, 131340, Note_on_c, 8, 76, 0
10, 131340, Note_on_c, 8, 75, 100
10, 131400, Note_on_c, 8, 75, 0
10, 131400, Note_on_c, 8, 76, 100
10, 131520, Note_on_c, 8, 76, 0
10, 131760, Note_on_c, 8, 76, 100
10, 132060, Note_on_c, 8, 76, 0
10, 132060, Note_on_c, 8, 75, 100
10, 132120, Note_on_c, 8, 75, 0
10, 132120, Note_on_c, 8, 76, 100
10, 132240, Note_on_c, 8, 76, 0
10, 132480, Note_on_c, 8, 76, 100
10, 132600, Note_on_c, 8, 76, 0
10, 132600, Note_on_c, 8, 73, 100
10, 132720, Note_on_c, 8, 73, 0
10, 132720, Note_on_c, 8, 74, 100
10, 132840, Note_on_c, 8, 74, 0
10, 132840, Note_on_c, 8, 71, 100
10, 132960, Note_on_c, 8, 71, 0
10, 132960, Note_on_c, 8, 73, 100
10, 133080, Note_on_c, 8, 73, 0
10, 133080, Note_on_c, 8, 67, 100
10, 133080, Note_on_c, 8, 76, 100
10, 133200, Note_on_c, 8, 76, 0
10, 133200, Note_on_c, 8, 67, 0
10, 133200, Note_on_c, 8, 66, 100
10, 133200, Note_on_c, 8, 57, 100
10, 133320, Note_on_c, 8, 57, 0
10, 133320, Note_on_c, 8, 66, 0
10, 133920, Note_on_c, 8, 69, 100
10, 136380, Note_on_c, 8, 69, 0
10, 136380, Note_on_c, 8, 68, 100
10, 136440, Note_on_c, 8, 68, 0
10, 136440, Note_on_c, 8, 69, 100
10, 136740, Note_on_c, 8, 69, 0
10, 136740, Note_on_c, 8, 68, 100
10, 136800, Note_on_c, 8, 68, 0
10, 136800, Note_on_c, 8, 69, 100
10, 139620, Note_on_c, 8, 69, 0
10, 139620, Note_on_c, 8, 68, 100
10, 139680, Note_on_c, 8, 68, 0
10, 139680, Note_on_c, 8, 69, 100
10, 140340, Note_on_c, 8, 69, 0
10, 140340, Note_on_c, 8, 68, 100
10, 140400, Note_on_c, 8, 68, 0
10, 140400, Note_on_c, 8, 69, 100
10, 142680, Note_on_c, 8, 69, 0
10, 142680, Note_on_c, 8, 73, 100
10, 142920, Note_on_c, 8, 73, 0
10, 142920, Note_on_c, 8, 73, 100
10, 143160, Note_on_c, 8, 73, 0
10, 143160, Note_on_c, 8, 85, 100
10, 143280, Note_on_c, 8, 85, 0
10, 143280, Note_on_c, 8, 74, 100
10, 143280, Note_on_c, 8, 86, 100
10, 143580, Note_on_c, 8, 86, 0
10, 143580, Note_on_c, 8, 74, 0
10, 143580, Note_on_c, 8, 85, 100
10, 143640, Note_on_c, 8, 85, 0
10, 143640, Note_on_c, 8, 74, 100
10, 143640, Note_on_c, 8, 86, 100
10, 143760, Note_on_c, 8, 86, 0
10, 143760, Note_on_c, 8, 74, 0
10, 144000, Note_on_c, 8, 74, 100
10, 144000, Note_on_c, 8, 86, 100
10, 144300, Note_on_c, 8, 86, 0
10, 144300, Note_on_c, 8, 74, 0
10, 144300, Note_on_c, 8, 85, 100
10, 144360, Note_on_c, 8, 85, 0
10, 144360, Note_on_c, 8, 86, 100
10, 144360, Note_on_c, 8, 74, 100
10, 144480, Note_on_c, 8, 74, 0
10, 144480, Note_on_c, 8, 86, 0
10, 144720, Note_on_c, 8, 86, 100
10, 144840, Note_on_c, 8, 86, 0
10, 144840, Note_on_c, 8, 74, 100
10, 144960, Note_on_c, 8, 74, 0
10, 144960, Note_on_c, 8, 73, 100
10, 145080, Note_on_c, 8, 73, 0
10, 145080, Note_on_c, 8, 74, 100
10, 145200, Note_on_c, 8, 74, 0
10, 145200, Note_on_c, 8, 64, 100
10, 145200, Note_on_c, 8, 73, 100
10, 145320, Note_on_c, 8, 73, 0
10, 145320, Note_on_c, 8, 64, 0
10, 145320, Note_on_c, 8, 66, 100
10, 145320, Note_on_c, 8, 74, 100
10, 145440, Note_on_c, 8, 74, 0
10, 145440, Note_on_c, 8, 66, 0
10, 145440, Note_on_c, 8, 64, 100
10, 145440, Note_on_c, 8, 73, 100
10, 145560, Note_on_c, 8, 73, 0
10, 145560, Note_on_c, 8, 64, 0
10, 146160, Note_on_c, 8, 76, 100
10, 146460, Note_on_c, 8, 76, 0
10, 146460, Note_on_c, 8, 75, 100
10, 146520, Note_on_c, 8, 75, 0
10, 146520, Note_on_c, 8, 76, 100
10, 146640, Note_on_c, 8, 76, 0
10, 146880, Note_on_c, 8, 76, 100
10, 147180, Note_on_c, 8, 76, 0
10, 147180, Note_on_c, 8, 75, 100
10, 147240, Note_on_c, 8, 75, 0
10, 147240, Note_on_c, 8, 76, 100
10, 147360, Note_on_c, 8, 76, 0
10, 147600, Note_on_c, 8, 76, 100
10, 147720, Note_on_c, 8, 76, 0
10, 147720, Note_on_c, 8, 73, 100
10, 147840, Note_on_c, 8, 73, 0
10, 147840, Note_on_c, 8, 74, 100
10, 147960, Note_on_c, 8, 74, 0
10, 147960, Note_on_c, 8, 71, 100
10, 148080, Note_on_c, 8, 71, 0
10, 148080, Note_on_c, 8, 73, 100
10, 148200, Note_on_c, 8, 73, 0
10, 148200, Note_on_c, 8, 67, 100
10, 148200, Note_on_c, 8, 76, 100
10, 148320, Note_on_c, 8, 76, 0
10, 148320, Note_on_c, 8, 67, 0
10, 148320, Note_on_c, 8, 66, 100
10, 148320, Note_on_c, 8, 57, 100
10, 148440, Note_on_c, 8, 57, 0
10, 148440, Note_on_c, 8, 66, 0
10, 149040, Note_on_c, 8, 62, 100
10, 149760, Note_on_c, 8, 62, 0
10, 149760, Note_on_c, 8, 64, 100
10, 150480, Note_on_c, 8, 64, 0
10, 150480, Note_on_c, 8, 62, 100
10, 151200, Note_on_c, 8, 62, 0
10, 151200, Note_on_c, 8, 61, 100
10, 151920, Note_on_c, 8, 61, 0
10, 151920, Note_on_c, 8, 62, 100
10, 152640, Note_on_c, 8, 62, 0
10, 152640, Note_on_c, 8, 64, 100
10, 153360, Note_on_c, 8, 64, 0
10, 153360, Note_on_c, 8, 64, 100
10, 153960, Note_on_c, 8, 64, 0
10, 153960, Note_on_c, 8, 65, 100
10, 154080, Note_on_c, 8, 65, 0
10, 154080, Note_on_c, 8, 65, 100
10, 154110, Note_on_c, 8, 65, 0
10, 154110, Note_on_c, 8, 69, 100
10, 154200, Note_on_c, 8, 69, 0
10, 154200, Note_on_c, 8, 65, 100
10, 154260, Note_on_c, 8, 65, 0
10, 154320, Note_on_c, 8, 65, 100
10, 154440, Note_on_c, 8, 65, 0
10, 154440, Note_on_c, 8, 65, 100
10, 154470, Note_on_c, 8, 65, 0
10, 154470, Note_on_c, 8, 69, 100
10, 154560, Note_on_c, 8, 69, 0
10, 154560, Note_on_c, 8, 65, 100
10, 154620, Note_on_c, 8, 65, 0
10, 154680, Note_on_c, 8, 69, 100
10, 154800, Note_on_c, 8, 69, 0
10, 154800, Note_on_c, 8, 69, 100
10, 154920, Note_on_c, 8, 69, 0
10, 154920, Note_on_c, 8, 69, 100
10, 155040, Note_on_c, 8, 69, 0
10, 155040, Note_on_c, 8, 72, 100
10, 155160, Note_on_c, 8, 72, 0
10, 155160, Note_on_c, 8, 70, 100
10, 155280, Note_on_c, 8, 70, 0
10, 155280, Note_on_c, 8, 70, 100
10, 155400, Note_on_c, 8, 70, 0
10, 155400, Note_on_c, 8, 69, 100
10, 155520, Note_on_c, 8, 69, 0
10, 155520, Note_on_c, 8, 67, 100
10, 155640, Note_on_c, 8, 67, 0
10, 155640, Note_on_c, 8, 67, 100
10, 155760, Note_on_c, 8, 67, 0
10, 155760, Note_on_c, 8, 65, 100
10, 155880, Note_on_c, 8, 65, 0
10, 155880, Note_on_c, 8, 64, 100
10, 156240, Note_on_c, 8, 64, 0
10, 156240, Note_on_c, 8, 76, 100
10, 156360, Note_on_c, 8, 76, 0
10, 156360, Note_on_c, 8, 76, 100
10, 156480, Note_on_c, 8, 76, 0
10, 156480, Note_on_c, 8, 74, 100
10, 156600, Note_on_c, 8, 74, 0
10, 156600, Note_on_c, 8, 72, 100
10, 156720, Note_on_c, 8, 72, 0
10, 156720, Note_on_c, 8, 72, 100
10, 156840, Note_on_c, 8, 72, 0
10, 156840, Note_on_c, 8, 70, 100
10, 156960, Note_on_c, 8, 70, 0
10, 156960, Note_on_c, 8, 69, 100
10, 157080, Note_on_c, 8, 69, 0
10, 157080, Note_on_c, 8, 69, 100
10, 157200, Note_on_c, 8, 69, 0
10, 157200, Note_on_c, 8, 67, 100
10, 157320, Note_on_c, 8, 67, 0
10, 157320, Note_on_c, 8, 65, 100
10, 157680, Note_on_c, 8, 65, 0
10, 157680, Note_on_c, 8, 64, 100
10, 157800, Note_on_c, 8, 64, 0
10, 157800, Note_on_c, 8, 64, 100
10, 157920, Note_on_c, 8, 64, 0
10, 157920, Note_on_c, 8, 65, 100
10, 158040, Note_on_c, 8, 65, 0
10, 158040, Note_on_c, 8, 64, 100
10, 158280, Note_on_c, 8, 64, 0
10, 158280, Note_on_c, 8, 65, 100
10, 158400, Note_on_c, 8, 65, 0
10, 158400, Note_on_c, 8, 64, 100
10, 158520, Note_on_c, 8, 64, 0
10, 158520, Note_on_c, 8, 64, 100
10, 158640, Note_on_c, 8, 64, 0
10, 158640, Note_on_c, 8, 65, 100
10, 158760, Note_on_c, 8, 65, 0
10, 158760, Note_on_c, 8, 64, 100
10, 159000, Note_on_c, 8, 64, 0
10, 159000, Note_on_c, 8, 65, 100
10, 159120, Note_on_c, 8, 65, 0
10, 159120, Note_on_c, 8, 68, 100
10, 159360, Note_on_c, 8, 68, 0
10, 159360, Note_on_c, 8, 69, 100
10, 159480, Note_on_c, 8, 69, 0
10, 159480, Note_on_c, 8, 59, 100
10, 159720, Note_on_c, 8, 59, 0
10, 159720, Note_on_c, 8, 61, 100
10, 159840, Note_on_c, 8, 61, 0
10, 159840, Note_on_c, 8, 68, 100
10, 159960, Note_on_c, 8, 68, 0
10, 159960, Note_on_c, 8, 71, 100
10, 160080, Note_on_c, 8, 71, 0
10, 160080, Note_on_c, 8, 71, 100
10, 160200, Note_on_c, 8, 71, 0
10, 160200, Note_on_c, 8, 69, 100
10, 160320, Note_on_c, 8, 69, 0
10, 160320, Note_on_c, 8, 73, 100
10, 160440, Note_on_c, 8, 73, 0
10, 160440, Note_on_c, 8, 73, 100
10, 160560, Note_on_c, 8, 73, 0
10, 160560, Note_on_c, 8, 71, 100
10, 160680, Note_on_c, 8, 71, 0
10, 160680, Note_on_c, 8, 64, 100
10, 160800, Note_on_c, 8, 64, 0
10, 160800, Note_on_c, 8, 71, 100
10, 160920, Note_on_c, 8, 71, 0
10, 160920, Note_on_c, 8, 69, 100
10, 161040, Note_on_c, 8, 69, 0
10, 161040, Note_on_c, 8, 73, 100
10, 161160, Note_on_c, 8, 73, 0
10, 161160, Note_on_c, 8, 73, 100
10, 161280, Note_on_c, 8, 73, 0
10, 161280, Note_on_c, 8, 68, 100
10, 161400, Note_on_c, 8, 68, 0
10, 161400, Note_on_c, 8, 71, 100
10, 161520, Note_on_c, 8, 71, 0
10, 161520, Note_on_c, 8, 71, 100
10, 161640, Note_on_c, 8, 71, 0
10, 161640, Note_on_c, 8, 69, 100
10, 161760, Note_on_c, 8, 69, 0
10, 161760, Note_on_c, 8, 76, 100
10, 161880, Note_on_c, 8, 76, 0
10, 161880, Note_on_c, 8, 73, 100
10, 162000, Note_on_c, 8, 73, 0
10, 162000, Note_on_c, 8, 69, 100
10, 162120, Note_on_c, 8, 69, 0
10, 162120, Note_on_c, 8, 64, 100
10, 162240, Note_on_c, 8, 64, 0
10, 162240, Note_on_c, 8, 61, 100
10, 162360, Note_on_c, 8, 61, 0
10, 162360, Note_on_c, 8, 57, 100
10, 162480, Note_on_c, 8, 57, 0
10, 162600, Note_on_c, 8, 65, 100
10, 162720, Note_on_c, 8, 65, 0
10, 162720, Note_on_c, 8, 65, 100
10, 162750, Note_on_c, 8, 65, 0
10, 162750, Note_on_c, 8, 69, 100
10, 162840, Note_on_c, 8, 69, 0
10, 162840, Note_on_c, 8, 65, 100
10, 162900, Note_on_c, 8, 65, 0
10, 162960, Note_on_c, 8, 65, 100
10, 163080, Note_on_c, 8, 65, 0
10, 163080, Note_on_c, 8, 65, 100
10, 163110, Note_on_c, 8, 65, 0
10, 163110, Note_on_c, 8, 69, 100
10, 163200, Note_on_c, 8, 69, 0
10, 163200, Note_on_c, 8, 65, 100
10, 163260, Note_on_c, 8, 65, 0
10, 163320, Note_on_c, 8, 69, 100
10, 163440, Note_on_c, 8, 69, 0
10, 163440, Note_on_c, 8, 69, 100
10, 163560, Note_on_c, 8, 69, 0
10, 163560, Note_on_c, 8, 69, 100
10, 163680, Note_on_c, 8, 69, 0
10, 163680, Note_on_c, 8, 72, 100
10, 163800, Note_on_c, 8, 72, 0
10, 163800, Note_on_c, 8, 70, 100
10, 163920, Note_on_c, 8, 70, 0
10, 163920, Note_on_c, 8, 70, 100
10, 164040, Note_on_c, 8, 70, 0
10, 164040, Note_on_c, 8, 69, 100
10, 164160, Note_on_c, 8, 69, 0
10, 164160, Note_on_c, 8, 67, 100
10, 164280, Note_on_c, 8, 67, 0
10, 164280, Note_on_c, 8, 67, 100
10, 164400, Note_on_c, 8, 67, 0
10, 164400, Note_on_c, 8, 65, 100
10, 164520, Note_on_c, 8, 65, 0
10, 164520, Note_on_c, 8, 64, 100
10, 164880, Note_on_c, 8, 64, 0
10, 164880, Note_on_c, 8, 76, 100
10, 165000, Note_on_c, 8, 76, 0
10, 165000, Note_on_c, 8, 76, 100
10, 165120, Note_on_c, 8, 76, 0
10, 165120, Note_on_c, 8, 74, 100
10, 165240, Note_on_c, 8, 74, 0
10, 165240, Note_on_c, 8, 72, 100
10, 165360, Note_on_c, 8, 72, 0
10, 165360, Note_on_c, 8, 72, 100
10, 165480, Note_on_c, 8, 72, 0
10, 165480, Note_on_c, 8, 70, 100
10, 165600, Note_on_c, 8, 70, 0
10, 165600, Note_on_c, 8, 69, 100
10, 165720, Note_on_c, 8, 69, 0
10, 165720, Note_on_c, 8, 69, 100
10, 165840, Note_on_c, 8, 69, 0
10, 165840, Note_on_c, 8, 67, 100
10, 165960, Note_on_c, 8, 67, 0
10, 165960, Note_on_c, 8, 65, 100
10, 166320, Note_on_c, 8, 65, 0
10, 166320, Note_on_c, 8, 64, 100
10, 166440, Note_on_c, 8, 64, 0
10, 166440, Note_on_c, 8, 64, 100
10, 166560, Note_on_c, 8, 64, 0
10, 166560, Note_on_c, 8, 65, 100
10, 166680, Note_on_c, 8, 65, 0
10, 166680, Note_on_c, 8, 64, 100
10, 166920, Note_on_c, 8, 64, 0
10, 166920, Note_on_c, 8, 65, 100
10, 167040, Note_on_c, 8, 65, 0
10, 167040, Note_on_c, 8, 64, 100
10, 167160, Note_on_c, 8, 64, 0
10, 167160, Note_on_c, 8, 64, 100
10, 167280, Note_on_c, 8, 64, 0
10, 167280, Note_on_c, 8, 65, 100
10, 167400, Note_on_c, 8, 65, 0
10, 167400, Note_on_c, 8, 64, 100
10, 167640, Note_on_c, 8, 64, 0
10, 167640, Note_on_c, 8, 65, 100
10, 167760, Note_on_c, 8, 65, 0
10, 167760, Note_on_c, 8, 68, 100
10, 168000, Note_on_c, 8, 68, 0
10, 168000, Note_on_c, 8, 69, 100
10, 168120, Note_on_c, 8, 69, 0
10, 168120, Note_on_c, 8, 59, 100
10, 168360, Note_on_c, 8, 59, 0
10, 168360, Note_on_c, 8, 61, 100
10, 168480, Note_on_c, 8, 61, 0
10, 168480, Note_on_c, 8, 68, 100
10, 168600, Note_on_c, 8, 68, 0
10, 168600, Note_on_c, 8, 71, 100
10, 168720, Note_on_c, 8, 71, 0
10, 168720, Note_on_c, 8, 71, 100
10, 168840, Note_on_c, 8, 71, 0
10, 168840, Note_on_c, 8, 69, 100
10, 168960, Note_on_c, 8, 69, 0
10, 168960, Note_on_c, 8, 73, 100
10, 169080, Note_on_c, 8, 73, 0
10, 169080, Note_on_c, 8, 73, 100
10, 169200, Note_on_c, 8, 73, 0
10, 169200, Note_on_c, 8, 71, 100
10, 169320, Note_on_c, 8, 71, 0
10, 169320, Note_on_c, 8, 64, 100
10, 169440, Note_on_c, 8, 64, 0
10, 169440, Note_on_c, 8, 71, 100
10, 169560, Note_on_c, 8, 71, 0
10, 169560, Note_on_c, 8, 69, 100
10, 169680, Note_on_c, 8, 69, 0
10, 169680, Note_on_c, 8, 73, 100
10, 169800, Note_on_c, 8, 73, 0
10, 169800, Note_on_c, 8, 73, 100
10, 169920, Note_on_c, 8, 73, 0
10, 169920, Note_on_c, 8, 68, 100
10, 170040, Note_on_c, 8, 68, 0
10, 170040, Note_on_c, 8, 71, 100
10, 170160, Note_on_c, 8, 71, 0
10, 170160, Note_on_c, 8, 71, 100
10, 170280, Note_on_c, 8, 71, 0
10, 170280, Note_on_c, 8, 69, 100
10, 170400, Note_on_c, 8, 69, 0
10, 170400, Note_on_c, 8, 76, 100
10, 170520, Note_on_c, 8, 76, 0
10, 170520, Note_on_c, 8, 73, 100
10, 170640, Note_on_c, 8, 73, 0
10, 170640, Note_on_c, 8, 69, 100
10, 170760, Note_on_c, 8, 69, 0
10, 170760, Note_on_c, 8, 64, 100
10, 170880, Note_on_c, 8, 64, 0
10, 170880, Note_on_c, 8, 61, 100
10, 171000, Note_on_c, 8, 61, 0
10, 171000, Note_on_c, 8, 57, 100
10, 171120, Note_on_c, 8, 57, 0
10, 171960, Note_on_c, 8, 69, 100
10, 172080, Note_on_c, 8, 69, 0
10, 172080, Note_on_c, 8, 69, 100
10, 172110, Note_on_c, 8, 69, 0
10, 172110, Note_on_c, 8, 73, 100
10, 172200, Note_on_c, 8, 73, 0
10, 172200, Note_on_c, 8, 69, 100
10, 172260, Note_on_c, 8, 69, 0
10, 175680, Note_on_c, 8, 73, 100
10, 175920, Note_on_c, 8, 73, 0
10, 175920, Note_on_c, 8, 74, 100
10, 176040, Note_on_c, 8, 74, 0
10, 176040, Note_on_c, 8, 73, 100
10, 176280, Note_on_c, 8, 73, 0
10, 176280, Note_on_c, 8, 74, 100
10, 176400, Note_on_c, 8, 74, 0
10, 176400, Note_on_c, 8, 73, 100
10, 176640, Note_on_c, 8, 73, 0
10, 176640, Note_on_c, 8, 74, 100
10, 176760, Note_on_c, 8, 74, 0
10, 176760, Note_on_c, 8, 73, 100
10, 177000, Note_on_c, 8, 73, 0
10, 177000, Note_on_c, 8, 74, 100
10, 177120, Note_on_c, 8, 74, 0
10, 178080, Note_on_c, 8, 71, 100
10, 178200, Note_on_c, 8, 71, 0
10, 178200, Note_on_c, 8, 74, 100
10, 178320, Note_on_c, 8, 74, 0
10, 178320, Note_on_c, 8, 71, 100
10, 178380, Note_on_c, 8, 71, 0
10, 181440, Note_on_c, 8, 76, 100
10, 181680, Note_on_c, 8, 76, 0
10, 181680, Note_on_c, 8, 77, 100
10, 181800, Note_on_c, 8, 77, 0
10, 181800, Note_on_c, 8, 76, 100
10, 182040, Note_on_c, 8, 76, 0
10, 182040, Note_on_c, 8, 77, 100
10, 182160, Note_on_c, 8, 77, 0
10, 182160, Note_on_c, 8, 76, 100
10, 182400, Note_on_c, 8, 76, 0
10, 182400, Note_on_c, 8, 77, 100
10, 182520, Note_on_c, 8, 77, 0
10, 182520, Note_on_c, 8, 76, 100
10, 182760, Note_on_c, 8, 76, 0
10, 182760, Note_on_c, 8, 77, 100
10, 182880, Note_on_c, 8, 77, 0
10, 183840, Note_on_c, 8, 69, 100
10, 183960, Note_on_c, 8, 69, 0
10, 183960, Note_on_c, 8, 72, 100
10, 184080, Note_on_c, 8, 72, 0
10, 184080, Note_on_c, 8, 69, 100
10, 184140, Note_on_c, 8, 69, 0
10, 184200, Note_on_c, 8, 70, 100
10, 184320, Note_on_c, 8, 70, 0
10, 184320, Note_on_c, 8, 70, 100
10, 184440, Note_on_c, 8, 70, 0
10, 184440, Note_on_c, 8, 70, 100
10, 184560, Note_on_c, 8, 70, 0
10, 184560, Note_on_c, 8, 70, 100
10, 184680, Note_on_c, 8, 70, 0
10, 184680, Note_on_c, 8, 70, 100
10, 184920, Note_on_c, 8, 70, 0
10, 184920, Note_on_c, 8, 70, 100
10, 185040, Note_on_c, 8, 70, 0
10, 185040, Note_on_c, 8, 70, 100
10, 185160, Note_on_c, 8, 70, 0
10, 185160, Note_on_c, 8, 70, 100
10, 185280, Note_on_c, 8, 70, 0
10, 185280, Note_on_c, 8, 70, 100
10, 185400, Note_on_c, 8, 70, 0
10, 185400, Note_on_c, 8, 70, 100
10, 185640, Note_on_c, 8, 70, 0
10, 185640, Note_on_c, 8, 70, 100
10, 185760, Note_on_c, 8, 70, 0
10, 185760, Note_on_c, 8, 62, 100
10, 185880, Note_on_c, 8, 62, 0
10, 185880, Note_on_c, 8, 65, 100
10, 186000, Note_on_c, 8, 65, 0
10, 186000, Note_on_c, 8, 65, 100
10, 186120, Note_on_c, 8, 65, 0
10, 186120, Note_on_c, 8, 62, 100
10, 186240, Note_on_c, 8, 62, 0
10, 186240, Note_on_c, 8, 65, 100
10, 186360, Note_on_c, 8, 65, 0
10, 186360, Note_on_c, 8, 65, 100
10, 186480, Note_on_c, 8, 65, 0
10, 186480, Note_on_c, 8, 62, 100
10, 186600, Note_on_c, 8, 62, 0
10, 186600, Note_on_c, 8, 65, 100
10, 186720, Note_on_c, 8, 65, 0
10, 186720, Note_on_c, 8, 65, 100
10, 186840, Note_on_c, 8, 65, 0
10, 186840, Note_on_c, 8, 62, 100
10, 186960, Note_on_c, 8, 62, 0
10, 186960, Note_on_c, 8, 65, 100
10, 187080, Note_on_c, 8, 65, 0
10, 187080, Note_on_c, 8, 65, 100
10, 187200, Note_on_c, 8, 65, 0
10, 187200, Note_on_c, 8, 60, 100
10, 187320, Note_on_c, 8, 60, 0
10, 187320, Note_on_c, 8, 60, 100
10, 187440, Note_on_c, 8, 60, 0
10, 187440, Note_on_c, 8, 65, 100
10, 187560, Note_on_c, 8, 65, 0
10, 187560, Note_on_c, 8, 60, 100
10, 187680, Note_on_c, 8, 60, 0
10, 187680, Note_on_c, 8, 60, 100
10, 187800, Note_on_c, 8, 60, 0
10, 187800, Note_on_c, 8, 65, 100
10, 187920, Note_on_c, 8, 65, 0
10, 187920, Note_on_c, 8, 60, 100
10, 188040, Note_on_c, 8, 60, 0
10, 188040, Note_on_c, 8, 60, 100
10, 188160, Note_on_c, 8, 60, 0
10, 188160, Note_on_c, 8, 65, 100
10, 188280, Note_on_c, 8, 65, 0
10, 188280, Note_on_c, 8, 60, 100
10, 188400, Note_on_c, 8, 60, 0
10, 188400, Note_on_c, 8, 60, 100
10, 188520, Note_on_c, 8, 60, 0
10, 188520, Note_on_c, 8, 65, 100
10, 188640, Note_on_c, 8, 65, 0
10, 188640, Note_on_c, 8, 65, 100
10, 188760, Note_on_c, 8, 65, 0
10, 188760, Note_on_c, 8, 65, 100
10, 188880, Note_on_c, 8, 65, 0
10, 188880, Note_on_c, 8, 65, 100
10, 189000, Note_on_c, 8, 65, 0
10, 189000, Note_on_c, 8, 62, 100
10, 189120, Note_on_c, 8, 62, 0
10, 189120, Note_on_c, 8, 62, 100
10, 189240, Note_on_c, 8, 62, 0
10, 189240, Note_on_c, 8, 65, 100
10, 189360, Note_on_c, 8, 65, 0
10, 189360, Note_on_c, 8, 62, 100
10, 189480, Note_on_c, 8, 62, 0
10, 189480, Note_on_c, 8, 62, 100
10, 189600, Note_on_c, 8, 62, 0
10, 189600, Note_on_c, 8, 65, 100
10, 189720, Note_on_c, 8, 65, 0
10, 189720, Note_on_c, 8, 62, 100
10, 189840, Note_on_c, 8, 62, 0
10, 189840, Note_on_c, 8, 62, 100
10, 189960, Note_on_c, 8, 62, 0
10, 189960, Note_on_c, 8, 65, 100
10, 190080, Note_on_c, 8, 65, 0
10, 190080, Note_on_c, 8, 65, 100
10, 190200, Note_on_c, 8, 65, 0
10, 190200, Note_on_c, 8, 65, 100
10, 190320, Note_on_c, 8, 65, 0
10, 190320, Note_on_c, 8, 65, 100
10, 190440, Note_on_c, 8, 65, 0
10, 190440, Note_on_c, 8, 65, 100
10, 190560, Note_on_c, 8, 65, 0
10, 190560, Note_on_c, 8, 65, 100
10, 190680, Note_on_c, 8, 65, 0
10, 190680, Note_on_c, 8, 69, 100
10, 190800, Note_on_c, 8, 69, 0
10, 190800, Note_on_c, 8, 65, 100
10, 190920, Note_on_c, 8, 65, 0
10, 190920, Note_on_c, 8, 65, 100
10, 191040, Note_on_c, 8, 65, 0
10, 191040, Note_on_c, 8, 69, 100
10, 191160, Note_on_c, 8, 69, 0
10, 191160, Note_on_c, 8, 65, 100
10, 191280, Note_on_c, 8, 65, 0
10, 191280, Note_on_c, 8, 65, 100
10, 191400, Note_on_c, 8, 65, 0
10, 191400, Note_on_c, 8, 69, 100
10, 191520, Note_on_c, 8, 69, 0
10, 191520, Note_on_c, 8, 65, 100
10, 191640, Note_on_c, 8, 65, 0
10, 191640, Note_on_c, 8, 65, 100
10, 191760, Note_on_c, 8, 65, 0
10, 191760, Note_on_c, 8, 70, 100
10, 191880, Note_on_c, 8, 70, 0
10, 192600, Note_on_c, 8, 67, 100
10, 192720, Note_on_c, 8, 67, 0
10, 192720, Note_on_c, 8, 67, 100
10, 192840, Note_on_c, 8, 67, 0
10, 192840, Note_on_c, 8, 65, 100
10, 192960, Note_on_c, 8, 65, 0
10, 192960, Note_on_c, 8, 64, 100
10, 193080, Note_on_c, 8, 64, 0
10, 193080, Note_on_c, 8, 64, 100
10, 193200, Note_on_c, 8, 64, 0
10, 193200, Note_on_c, 8, 62, 100
10, 193320, Note_on_c, 8, 62, 0
10, 193320, Note_on_c, 8, 60, 100
10, 193440, Note_on_c, 8, 60, 0
10, 193440, Note_on_c, 8, 60, 100
10, 193560, Note_on_c, 8, 60, 0
10, 193560, Note_on_c, 8, 58, 100
10, 193680, Note_on_c, 8, 58, 0
10, 193680, Note_on_c, 8, 57, 100
10, 193800, Note_on_c, 8, 57, 0
10, 193800, Note_on_c, 8, 57, 100
10, 193920, Note_on_c, 8, 57, 0
10, 193920, Note_on_c, 8, 55, 100
10, 194040, Note_on_c, 8, 55, 0
10, 194040, Note_on_c, 8, 65, 100
10, 194160, Note_on_c, 8, 65, 0
10, 194160, Note_on_c, 8, 64, 100
10, 194280, Note_on_c, 8, 64, 0
10, 194280, Note_on_c, 8, 65, 100
10, 194400, Note_on_c, 8, 65, 0
10, 194400, Note_on_c, 8, 65, 100
10, 194430, Note_on_c, 8, 65, 0
10, 194430, Note_on_c, 8, 69, 100
10, 194520, Note_on_c, 8, 69, 0
10, 194520, Note_on_c, 8, 65, 100
10, 194580, Note_on_c, 8, 65, 0
10, 194640, Note_on_c, 8, 69, 100
10, 194760, Note_on_c, 8, 69, 0
10, 194760, Note_on_c, 8, 69, 100
10, 194790, Note_on_c, 8, 69, 0
10, 194790, Note_on_c, 8, 72, 100
10, 194880, Note_on_c, 8, 72, 0
10, 194880, Note_on_c, 8, 69, 100
10, 194940, Note_on_c, 8, 69, 0
10, 195000, Note_on_c, 8, 72, 100
10, 195120, Note_on_c, 8, 72, 0
10, 195120, Note_on_c, 8, 77, 100
10, 195240, Note_on_c, 8, 77, 0
10, 195240, Note_on_c, 8, 77, 100
10, 195360, Note_on_c, 8, 77, 0
10, 195360, Note_on_c, 8, 76, 100
10, 195480, Note_on_c, 8, 76, 0
10, 195480, Note_on_c, 8, 74, 100
10, 195600, Note_on_c, 8, 74, 0
10, 195600, Note_on_c, 8, 74, 100
10, 195720, Note_on_c, 8, 74, 0
10, 195720, Note_on_c, 8, 72, 100
10, 195840, Note_on_c, 8, 72, 0
10, 195840, Note_on_c, 8, 70, 100
10, 195960, Note_on_c, 8, 70, 0
10, 195960, Note_on_c, 8, 70, 100
10, 196080, Note_on_c, 8, 70, 0
10, 196080, Note_on_c, 8, 69, 100
10, 196200, Note_on_c, 8, 69, 0
10, 196200, Note_on_c, 8, 67, 100
10, 196560, Note_on_c, 8, 67, 0
10, 196560, Note_on_c, 8, 79, 100
10, 196680, Note_on_c, 8, 79, 0
10, 196680, Note_on_c, 8, 79, 100
10, 196800, Note_on_c, 8, 79, 0
10, 196800, Note_on_c, 8, 77, 100
10, 196920, Note_on_c, 8, 77, 0
10, 196920, Note_on_c, 8, 76, 100
10, 197040, Note_on_c, 8, 76, 0
10, 197040, Note_on_c, 8, 76, 100
10, 197160, Note_on_c, 8, 76, 0
10, 197160, Note_on_c, 8, 74, 100
10, 197280, Note_on_c, 8, 74, 0
10, 197280, Note_on_c, 8, 72, 100
10, 197400, Note_on_c, 8, 72, 0
10, 197400, Note_on_c, 8, 72, 100
10, 197520, Note_on_c, 8, 72, 0
10, 197520, Note_on_c, 8, 70, 100
10, 197640, Note_on_c, 8, 70, 0
10, 197640, Note_on_c, 8, 69, 100
10, 198000, Note_on_c, 8, 69, 0
10, 198000, Note_on_c, 8, 69, 100
10, 199200, Note_on_c, 8, 69, 0
10, 199200, Note_on_c, 8, 72, 100
10, 199320, Note_on_c, 8, 72, 0
10, 199320, Note_on_c, 8, 72, 100
10, 199440, Note_on_c, 8, 72, 0
10, 199440, Note_on_c, 8, 72, 100
10, 200640, Note_on_c, 8, 72, 0
10, 200640, Note_on_c, 8, 77, 100
10, 200760, Note_on_c, 8, 77, 0
10, 200760, Note_on_c, 8, 77, 100
10, 200880, Note_on_c, 8, 77, 0
10, 200880, Note_on_c, 8, 64, 100
10, 201000, Note_on_c, 8, 64, 0
10, 201000, Note_on_c, 8, 64, 100
10, 201120, Note_on_c, 8, 64, 0
10, 201120, Note_on_c, 8, 65, 100
10, 201240, Note_on_c, 8, 65, 0
10, 201240, Note_on_c, 8, 64, 100
10, 201480, Note_on_c, 8, 64, 0
10, 201480, Note_on_c, 8, 65, 100
10, 201600, Note_on_c, 8, 65, 0
10, 202320, Note_on_c, 8, 64, 100
10, 202440, Note_on_c, 8, 64, 0
10, 202440, Note_on_c, 8, 64, 100
10, 202560, Note_on_c, 8, 64, 0
10, 202560, Note_on_c, 8, 65, 100
10, 202680, Note_on_c, 8, 65, 0
10, 202680, Note_on_c, 8, 64, 100
10, 202920, Note_on_c, 8, 64, 0
10, 202920, Note_on_c, 8, 65, 100
10, 203040, Note_on_c, 8, 65, 0
10, 203040, Note_on_c, 8, 65, 100
10, 203280, Note_on_c, 8, 65, 0
10, 203280, Note_on_c, 8, 65, 100
10, 203400, Note_on_c, 8, 65, 0
10, 203400, Note_on_c, 8, 71, 100
10, 203640, Note_on_c, 8, 71, 0
10, 203640, Note_on_c, 8, 72, 100
10, 203760, Note_on_c, 8, 72, 0
10, 203760, Note_on_c, 8, 72, 100
10, 204000, Note_on_c, 8, 72, 0
10, 204000, Note_on_c, 8, 72, 100
10, 204120, Note_on_c, 8, 72, 0
10, 204120, Note_on_c, 8, 77, 100
10, 204360, Note_on_c, 8, 77, 0
10, 204360, Note_on_c, 8, 76, 100
10, 204480, Note_on_c, 8, 76, 0
10, 204480, Note_on_c, 8, 65, 100
10, 204600, Note_on_c, 8, 65, 0
10, 204600, Note_on_c, 8, 65, 100
10, 204720, Note_on_c, 8, 65, 0
10, 204720, Note_on_c, 8, 67, 100
10, 204840, Note_on_c, 8, 67, 0
10, 204840, Note_on_c, 8, 64, 100
10, 204960, Note_on_c, 8, 64, 0
10, 204960, Note_on_c, 8, 64, 100
10, 205080, Note_on_c, 8, 64, 0
10, 205080, Note_on_c, 8, 65, 100
10, 205200, Note_on_c, 8, 65, 0
10, 205200, Note_on_c, 8, 62, 100
10, 205320, Note_on_c, 8, 62, 0
10, 205320, Note_on_c, 8, 62, 100
10, 205440, Note_on_c, 8, 62, 0
10, 205440, Note_on_c, 8, 67, 100
10, 205560, Note_on_c, 8, 67, 0
10, 205560, Note_on_c, 8, 64, 100
10, 205680, Note_on_c, 8, 64, 0
10, 205680, Note_on_c, 8, 64, 100
10, 205800, Note_on_c, 8, 64, 0
10, 205800, Note_on_c, 8, 67, 100
10, 205920, Note_on_c, 8, 67, 0
10, 205920, Note_on_c, 8, 65, 100
10, 206040, Note_on_c, 8, 65, 0
10, 206040, Note_on_c, 8, 65, 100
10, 206160, Note_on_c, 8, 65, 0
10, 206160, Note_on_c, 8, 67, 100
10, 206280, Note_on_c, 8, 67, 0
10, 206280, Note_on_c, 8, 64, 100
10, 206400, Note_on_c, 8, 64, 0
10, 206400, Note_on_c, 8, 67, 100
10, 206520, Note_on_c, 8, 67, 0
10, 206520, Note_on_c, 8, 67, 100
10, 206640, Note_on_c, 8, 67, 0
10, 206640, Note_on_c, 8, 65, 100
10, 206760, Note_on_c, 8, 65, 0
10, 206760, Note_on_c, 8, 65, 100
10, 206880, Note_on_c, 8, 65, 0
10, 206880, Note_on_c, 8, 67, 100
10, 207000, Note_on_c, 8, 67, 0
10, 207000, Note_on_c, 8, 64, 100
10, 207120, Note_on_c, 8, 64, 0
10, 207120, Note_on_c, 8, 64, 100
10, 207240, Note_on_c, 8, 64, 0
10, 207240, Note_on_c, 8, 67, 100
10, 207360, Note_on_c, 8, 67, 0
10, 207360, Note_on_c, 8, 67, 100
10, 207390, Note_on_c, 8, 67, 0
10, 207390, Note_on_c, 8, 69, 100
10, 207420, Note_on_c, 8, 69, 0
10, 207420, Note_on_c, 8, 67, 100
10, 207450, Note_on_c, 8, 67, 0
10, 207450, Note_on_c, 8, 69, 100
10, 207480, Note_on_c, 8, 69, 0
10, 207480, Note_on_c, 8, 67, 100
10, 207510, Note_on_c, 8, 67, 0
10, 207510, Note_on_c, 8, 69, 100
10, 207540, Note_on_c, 8, 69, 0
10, 207540, Note_on_c, 8, 67, 100
10, 207570, Note_on_c, 8, 67, 0
10, 207570, Note_on_c, 8, 69, 100
10, 207600, Note_on_c, 8, 69, 0
10, 207600, Note_on_c, 8, 67, 100
10, 207630, Note_on_c, 8, 67, 0
10, 207630, Note_on_c, 8, 69, 100
10, 207660, Note_on_c, 8, 69, 0
10, 207660, Note_on_c, 8, 65, 100
10, 207690, Note_on_c, 8, 65, 0
10, 207690, Note_on_c, 8, 67, 100
10, 207720, Note_on_c, 8, 67, 0
10, 207720, Note_on_c, 8, 65, 100
10, 207840, Note_on_c, 8, 65, 0
10, 207840, Note_on_c, 8, 69, 100
10, 207960, Note_on_c, 8, 69, 0
10, 207960, Note_on_c, 8, 65, 100
10, 208080, Note_on_c, 8, 65, 0
10, 208080, Note_on_c, 8, 67, 100
10, 208110, Note_on_c, 8, 67, 0
10, 208110, Note_on_c, 8, 69, 100
10, 208140, Note_on_c, 8, 69, 0
10, 208140, Note_on_c, 8, 67, 100
10, 208170, Note_on_c, 8, 67, 0
10, 208170, Note_on_c, 8, 69, 100
10, 208200, Note_on_c, 8, 69, 0
10, 208200, Note_on_c, 8, 67, 100
10, 208230, Note_on_c, 8, 67, 0
10, 208230, Note_on_c, 8, 69, 100
10, 208260, Note_on_c, 8, 69, 0
10, 208260, Note_on_c, 8, 67, 100
10, 208290, Note_on_c, 8, 67, 0
10, 208290, Note_on_c, 8, 69, 100
10, 208320, Note_on_c, 8, 69, 0
10, 208320, Note_on_c, 8, 67, 100
10, 208350, Note_on_c, 8, 67, 0
10, 208350, Note_on_c, 8, 69, 100
10, 208380, Note_on_c, 8, 69, 0
10, 208380, Note_on_c, 8, 65, 100
10, 208410, Note_on_c, 8, 65, 0
10, 208410, Note_on_c, 8, 67, 100
10, 208440, Note_on_c, 8, 67, 0
10, 208440, Note_on_c, 8, 65, 100
10, 208560, Note_on_c, 8, 65, 0
10, 208560, Note_on_c, 8, 69, 100
10, 208680, Note_on_c, 8, 69, 0
10, 208680, Note_on_c, 8, 65, 100
10, 208800, Note_on_c, 8, 65, 0
10, 208800, Note_on_c, 8, 67, 100
10, 208830, Note_on_c, 8, 67, 0
10, 208830, Note_on_c, 8, 69, 100
10, 208860, Note_on_c, 8, 69, 0
10, 208860, Note_on_c, 8, 67, 100
10, 208890, Note_on_c, 8, 67, 0
10, 208890, Note_on_c, 8, 69, 100
10, 208920, Note_on_c, 8, 69, 0
10, 208920, Note_on_c, 8, 67, 100
10, 208950, Note_on_c, 8, 67, 0
10, 208950, Note_on_c, 8, 69, 100
10, 208980, Note_on_c, 8, 69, 0
10, 208980, Note_on_c, 8, 67, 100
10, 209010, Note_on_c, 8, 67, 0
10, 209010, Note_on_c, 8, 69, 100
10, 209040, Note_on_c, 8, 69, 0
10, 209040, Note_on_c, 8, 67, 100
10, 209070, Note_on_c, 8, 67, 0
10, 209070, Note_on_c, 8, 69, 100
10, 209100, Note_on_c, 8, 69, 0
10, 209100, Note_on_c, 8, 65, 100
10, 209130, Note_on_c, 8, 65, 0
10, 209130, Note_on_c, 8, 67, 100
10, 209160, Note_on_c, 8, 67, 0
10, 209160, Note_on_c, 8, 65, 100
10, 209280, Note_on_c, 8, 65, 0
10, 209280, Note_on_c, 8, 69, 100
10, 209400, Note_on_c, 8, 69, 0
10, 209400, Note_on_c, 8, 65, 100
10, 209520, Note_on_c, 8, 65, 0
10, 209520, Note_on_c, 8, 67, 100
10, 209550, Note_on_c, 8, 67, 0
10, 209550, Note_on_c, 8, 69, 100
10, 209580, Note_on_c, 8, 69, 0
10, 209580, Note_on_c, 8, 67, 100
10, 209610, Note_on_c, 8, 67, 0
10, 209610, Note_on_c, 8, 69, 100
10, 209640, Note_on_c, 8, 69, 0
10, 209640, Note_on_c, 8, 67, 100
10, 209670, Note_on_c, 8, 67, 0
10, 209670, Note_on_c, 8, 69, 100
10, 209700, Note_on_c, 8, 69, 0
10, 209700, Note_on_c, 8, 67, 100
10, 209730, Note_on_c, 8, 67, 0
10, 209730, Note_on_c, 8, 69, 100
10, 209760, Note_on_c, 8, 69, 0
10, 209760, Note_on_c, 8, 67, 100
10, 209790, Note_on_c, 8, 67, 0
10, 209790, Note_on_c, 8, 69, 100
10, 209820, Note_on_c, 8, 69, 0
10, 209820, Note_on_c, 8, 65, 100
10, 209850, Note_on_c, 8, 65, 0
10, 209850, Note_on_c, 8, 67, 100
10, 209880, Note_on_c, 8, 67, 0
10, 209880, Note_on_c, 8, 65, 100
10, 210000, Note_on_c, 8, 65, 0
10, 210000, Note_on_c, 8, 69, 100
10, 210120, Note_on_c, 8, 69, 0
10, 210120, Note_on_c, 8, 65, 100
10, 210240, Note_on_c, 8, 65, 0
10, 210240, Note_on_c, 8, 67, 100
10, 210270, Note_on_c, 8, 67, 0
10, 210270, Note_on_c, 8, 69, 100
10, 210300, Note_on_c, 8, 69, 0
10, 210300, Note_on_c, 8, 67, 100
10, 210330, Note_on_c, 8, 67, 0
10, 210330, Note_on_c, 8, 69, 100
10, 210360, Note_on_c, 8, 69, 0
10, 210360, Note_on_c, 8, 67, 100
10, 210390, Note_on_c, 8, 67, 0
10, 210390, Note_on_c, 8, 69, 100
10, 210420, Note_on_c, 8, 69, 0
10, 210420, Note_on_c, 8, 67, 100
10, 210450, Note_on_c, 8, 67, 0
10, 210450, Note_on_c, 8, 69, 100
10, 210480, Note_on_c, 8, 69, 0
10, 210480, Note_on_c, 8, 67, 100
10, 210510, Note_on_c, 8, 67, 0
10, 210510, Note_on_c, 8, 69, 100
10, 210540, Note_on_c, 8, 69, 0
10, 210540, Note_on_c, 8, 65, 100
10, 210570, Note_on_c, 8, 65, 0
10, 210570, Note_on_c, 8, 67, 100
10, 210600, Note_on_c, 8, 67, 0
10, 210600, Note_on_c, 8, 65, 100
10, 210720, Note_on_c, 8, 65, 0
10, 210720, Note_on_c, 8, 72, 100
10, 210840, Note_on_c, 8, 72, 0
10, 210840, Note_on_c, 8, 69, 100
10, 210960, Note_on_c, 8, 69, 0
10, 210960, Note_on_c, 8, 65, 100
10, 211080, Note_on_c, 8, 65, 0
10, 211080, Note_on_c, 8, 60, 100
10, 211200, Note_on_c, 8, 60, 0
10, 211200, Note_on_c, 8, 57, 100
10, 211320, Note_on_c, 8, 57, 0
10, 211320, Note_on_c, 8, 65, 100
10, 211320, Note_on_c, 8, 57, 100
10, 211440, Note_on_c, 8, 57, 0
10, 211440, Note_on_c, 8, 65, 0
10, 212280, Note_on_c, 8, 65, 100
10, 212400, Note_on_c, 8, 65, 0
10, 212400, Note_on_c, 8, 65, 100
10, 212430, Note_on_c, 8, 65, 0
10, 212430, Note_on_c, 8, 69, 100
10, 212520, Note_on_c, 8, 69, 0
10, 212520, Note_on_c, 8, 65, 100
10, 212580, Note_on_c, 8, 65, 0
10, 212640, Note_on_c, 8, 65, 100
10, 212760, Note_on_c, 8, 65, 0
10, 212760, Note_on_c, 8, 65, 100
10, 212790, Note_on_c, 8, 65, 0
10, 212790, Note_on_c, 8, 69, 100
10, 212880, Note_on_c, 8, 69, 0
10, 212880, Note_on_c, 8, 65, 100
10, 212940, Note_on_c, 8, 65, 0
10, 213000, Note_on_c, 8, 65, 100
10, 213120, Note_on_c, 8, 65, 0
10, 213120, Note_on_c, 8, 65, 100
10, 213150, Note_on_c, 8, 65, 0
10, 213150, Note_on_c, 8, 69, 100
10, 213240, Note_on_c, 8, 69, 0
10, 213240, Note_on_c, 8, 65, 100
10, 213300, Note_on_c, 8, 65, 0
10, 213360, Note_on_c, 8, 65, 100
10, 213480, Note_on_c, 8, 65, 0
10, 213480, Note_on_c, 8, 65, 100
10, 213510, Note_on_c, 8, 65, 0
10, 213510, Note_on_c, 8, 69, 100
10, 213600, Note_on_c, 8, 69, 0
10, 213600, Note_on_c, 8, 65, 100
10, 213720, Note_on_c, 8, 65, 0
10, 213720, Note_on_c, 8, 65, 100
10, 213840, Note_on_c, 8, 65, 0
10, 213840, Note_on_c, 8, 65, 100
10, 213870, Note_on_c, 8, 65, 0
10, 213870, Note_on_c, 8, 69, 100
10, 213960, Note_on_c, 8, 69, 0
10, 213960, Note_on_c, 8, 65, 100
10, 214080, Note_on_c, 8, 65, 0
10, 214080, Note_on_c, 8, 65, 100
10, 214200, Note_on_c, 8, 65, 0
10, 214200, Note_on_c, 8, 65, 100
10, 214230, Note_on_c, 8, 65, 0
10, 214230, Note_on_c, 8, 69, 100
10, 214320, Note_on_c, 8, 69, 0
10, 214320, Note_on_c, 8, 65, 100
10, 214440, Note_on_c, 8, 65, 0
10, 214440, Note_on_c, 8, 65, 100
10, 214560, Note_on_c, 8, 65, 0
10, 214560, Note_on_c, 8, 69, 100
10, 214560, Note_on_c, 8, 81, 100
10, 216000, Note_on_c, 8, 81, 0
10, 216000, Note_on_c, 8, 69, 0
10, 216000, Note_on_c, 8, 69, 100
10, 218460, Note_on_c, 8, 69, 0
10, 218460, Note_on_c, 8, 68, 100
10, 218520, Note_on_c, 8, 68, 0
10, 218520, Note_on_c, 8, 69, 100
10, 218820, Note_on_c, 8, 69, 0
10, 218820, Note_on_c, 8, 68, 100
10, 218880, Note_on_c, 8, 68, 0
10, 218880, Note_on_c, 8, 69, 100
10, 221280, Note_on_c, 8, 69, 0
10, 221280, Note_on_c, 8, 66, 100
10, 221400, Note_on_c, 8, 66, 0
10, 221400, Note_on_c, 8, 69, 100
10, 221520, Note_on_c, 8, 69, 0
10, 221520, Note_on_c, 8, 67, 100
10, 221640, Note_on_c, 8, 67, 0
10, 221640, Note_on_c, 8, 64, 100
10, 221700, Note_on_c, 8, 64, 0
10, 221700, Note_on_c, 8, 69, 100
10, 221760, Note_on_c, 8, 69, 0
10, 221760, Note_on_c, 8, 69, 100
10, 224160, Note_on_c, 8, 69, 0
10, 224160, Note_on_c, 8, 69, 100
10, 224220, Note_on_c, 8, 69, 0
10, 224220, Note_on_c, 8, 68, 100
10, 224280, Note_on_c, 8, 68, 0
10, 224280, Note_on_c, 8, 69, 100
10, 224580, Note_on_c, 8, 69, 0
10, 224580, Note_on_c, 8, 68, 100
10, 224640, Note_on_c, 8, 68, 0
10, 224640, Note_on_c, 8, 69, 100
10, 227040, Note_on_c, 8, 69, 0
10, 227040, Note_on_c, 8, 66, 100
10, 227160, Note_on_c, 8, 66, 0
10, 227160, Note_on_c, 8, 69, 100
10, 227280, Note_on_c, 8, 69, 0
10, 227280, Note_on_c, 8, 66, 100
10, 227400, Note_on_c, 8, 66, 0
10, 227400, Note_on_c, 8, 62, 100
10, 227460, Note_on_c, 8, 62, 0
10, 227460, Note_on_c, 8, 69, 100
10, 227520, Note_on_c, 8, 69, 0
10, 227520, Note_on_c, 8, 69, 100
10, 229980, Note_on_c, 8, 69, 0
10, 229980, Note_on_c, 8, 68, 100
10, 230040, Note_on_c, 8, 68, 0
10, 230040, Note_on_c, 8, 69, 100
10, 230340, Note_on_c, 8, 69, 0
10, 230340, Note_on_c, 8, 68, 100
10, 230400, Note_on_c, 8, 68, 0
10, 230400, Note_on_c, 8, 69, 100
10, 233220, Note_on_c, 8, 69, 0
10, 233220, Note_on_c, 8, 68, 100
10, 233280, Note_on_c, 8, 68, 0
10, 233280, Note_on_c, 8, 69, 100
10, 233940, Note_on_c, 8, 69, 0
10, 233940, Note_on_c, 8, 68, 100
10, 234000, Note_on_c, 8, 68, 0
10, 234000, Note_on_c, 8, 69, 100
10, 236280, Note_on_c, 8, 69, 0
10, 236280, Note_on_c, 8, 73, 100
10, 236520, Note_on_c, 8, 73, 0
10, 236520, Note_on_c, 8, 73, 100
10, 236760, Note_on_c, 8, 73, 0
10, 236760, Note_on_c, 8, 85, 100
10, 236880, Note_on_c, 8, 85, 0
10, 236880, Note_on_c, 8, 74, 100
10, 236880, Note_on_c, 8, 86, 100
10, 237180, Note_on_c, 8, 86, 0
10, 237180, Note_on_c, 8, 74, 0
10, 237180, Note_on_c, 8, 85, 100
10, 237240, Note_on_c, 8, 85, 0
10, 237240, Note_on_c, 8, 74, 100
10, 237240, Note_on_c, 8, 86, 100
10, 237360, Note_on_c, 8, 86, 0
10, 237360, Note_on_c, 8, 74, 0
10, 237600, Note_on_c, 8, 74, 100
10, 237600, Note_on_c, 8, 86, 100
10, 237900, Note_on_c, 8, 86, 0
10, 237900, Note_on_c, 8, 74, 0
10, 237900, Note_on_c, 8, 85, 100
10, 237960, Note_on_c, 8, 85, 0
10, 237960, Note_on_c, 8, 86, 100
10, 237960, Note_on_c, 8, 74, 100
10, 238080, Note_on_c, 8, 74, 0
10, 238080, Note_on_c, 8, 86, 0
10, 238320, Note_on_c, 8, 86, 100
10, 238440, Note_on_c, 8, 86, 0
10, 238440, Note_on_c, 8, 74, 100
10, 238560, Note_on_c, 8, 74, 0
10, 238560, Note_on_c, 8, 73, 100
10, 238680, Note_on_c, 8, 73, 0
10, 238680, Note_on_c, 8, 74, 100
10, 238800, Note_on_c, 8, 74, 0
10, 238800, Note_on_c, 8, 64, 100
10, 238800, Note_on_c, 8, 73, 100
10, 238920, Note_on_c, 8, 73, 0
10, 238920, Note_on_c, 8, 64, 0
10, 238920, Note_on_c, 8, 66, 100
10, 238920, Note_on_c, 8, 74, 100
10, 239040, Note_on_c, 8, 74, 0
10, 239040, Note_on_c, 8, 66, 0
10, 239040, Note_on_c, 8, 64, 100
10, 239040, Note_on_c, 8, 73, 100
10, 239160, Note_on_c, 8, 73, 0
10, 239160, Note_on_c, 8, 64, 0
10, 239760, Note_on_c, 8, 76, 100
10, 240060, Note_on_c, 8, 76, 0
10, 240060, Note_on_c, 8, 75, 100
10, 240120, Note_on_c, 8, 75, 0
10, 240120, Note_on_c, 8, 76, 100
10, 240240, Note_on_c, 8, 76, 0
10, 240480, Note_on_c, 8, 76, 100
10, 240780, Note_on_c, 8, 76, 0
10, 240780, Note_on_c, 8, 75, 100
10, 240840, Note_on_c, 8, 75, 0
10, 240840, Note_on_c, 8, 76, 100
10, 240960, Note_on_c, 8, 76, 0
10, 241200, Note_on_c, 8, 76, 100
10, 241320, Note_on_c, 8, 76, 0
10, 241320, Note_on_c, 8, 73, 100
10, 241440, Note_on_c, 8, 73, 0
10, 241440, Note_on_c, 8, 74, 100
10, 241560, Note_on_c, 8, 74, 0
10, 241560, Note_on_c, 8, 71, 100
10, 241680, Note_on_c, 8, 71, 0
10, 241680, Note_on_c, 8, 73, 100
10, 241800, Note_on_c, 8, 73, 0
10, 241800, Note_on_c, 8, 67, 100
10, 241800, Note_on_c, 8, 76, 100
10, 241920, Note_on_c, 8, 76, 0
10, 241920, Note_on_c, 8, 67, 0
10, 241920, Note_on_c, 8, 66, 100
10, 241920, Note_on_c, 8, 57, 100
10, 242040, Note_on_c, 8, 57, 0
10, 242040, Note_on_c, 8, 66, 0
10, 242640, Note_on_c, 8, 69, 100
10, 245100, Note_on_c, 8, 69, 0
10, 245100, Note_on_c, 8, 68, 100
10, 245160, Note_on_c, 8, 68, 0
10, 245160, Note_on_c, 8, 69, 100
10, 245460, Note_on_c, 8, 69, 0
10, 245460, Note_on_c, 8, 68, 100
10, 245520, Note_on_c, 8, 68, 0
10, 245520, Note_on_c, 8, 69, 100
10, 248340, Note_on_c, 8, 69, 0
10, 248340, Note_on_c, 8, 68, 100
10, 248400, Note_on_c, 8, 68, 0
10, 248400, Note_on_c, 8, 69, 100
10, 249060, Note_on_c, 8, 69, 0
10, 249060, Note_on_c, 8, 68, 100
10, 249120, Note_on_c, 8, 68, 0
10, 249120, Note_on_c, 8, 69, 100
10, 251400, Note_on_c, 8, 69, 0
10, 251400, Note_on_c, 8, 73, 100
10, 251640, Note_on_c, 8, 73, 0
10, 251640, Note_on_c, 8, 73, 100
10, 251880, Note_on_c, 8, 73, 0
10, 251880, Note_on_c, 8, 85, 100
10, 252000, Note_on_c, 8, 85, 0
10, 252000, Note_on_c, 8, 74, 100
10, 252000, Note_on_c, 8, 86, 100
10, 252300, Note_on_c, 8, 86, 0
10, 252300, Note_on_c, 8, 74, 0
10, 252300, Note_on_c, 8, 85, 100
10, 252360, Note_on_c, 8, 85, 0
10, 252360, Note_on_c, 8, 74, 100
10, 252360, Note_on_c, 8, 86, 100
10, 252480, Note_on_c, 8, 86, 0
10, 252480, Note_on_c, 8, 74, 0
10, 252720, Note_on_c, 8, 74, 100
10, 252720, Note_on_c, 8, 86, 100
10, 253020, Note_on_c, 8, 86, 0
10, 253020, Note_on_c, 8, 74, 0
10, 253020, Note_on_c, 8, 85, 100
10, 253080, Note_on_c, 8, 85, 0
10, 253080, Note_on_c, 8, 86, 100
10, 253080, Note_on_c, 8, 74, 100
10, 253200, Note_on_c, 8, 74, 0
10, 253200, Note_on_c, 8, 86, 0
10, 253440, Note_on_c, 8, 86, 100
10, 253560, Note_on_c, 8, 86, 0
10, 253560, Note_on_c, 8, 74, 100
10, 253680, Note_on_c, 8, 74, 0
10, 253680, Note_on_c, 8, 73, 100
10, 253800, Note_on_c, 8, 73, 0
10, 253800, Note_on_c, 8, 74, 100
10, 253920, Note_on_c, 8, 74, 0
10, 253920, Note_on_c, 8, 64, 100
10, 253920, Note_on_c, 8, 73, 100
10, 254040, Note_on_c, 8, 73, 0
10, 254040, Note_on_c, 8, 64, 0
10, 254040, Note_on_c, 8, 66, 100
10, 254040, Note_on_c, 8, 74, 100
10, 254160, Note_on_c, 8, 74, 0
10, 254160, Note_on_c, 8, 66, 0
10, 254160, Note_on_c, 8, 64, 100
10, 254160, Note_on_c, 8, 73, 100
10, 254280, Note_on_c, 8, 73, 0
10, 254280, Note_on_c, 8, 64, 0
10, 254880, Note_on_c, 8, 76, 100
10, 255180, Note_on_c, 8, 76, 0
10, 255180, Note_on_c, 8, 75, 100
10, 255240, Note_on_c, 8, 75, 0
10, 255240, Note_on_c, 8, 76, 100
10, 255360, Note_on_c, 8, 76, 0
10, 255600, Note_on_c, 8, 76, 100
10, 255900, Note_on_c, 8, 76, 0
10, 255900, Note_on_c, 8, 75, 100
10, 255960, Note_on_c, 8, 75, 0
10, 255960, Note_on_c, 8, 76, 100
10, 256080, Note_on_c, 8, 76, 0
10, 256320, Note_on_c, 8, 76, 100
10, 256440, Note_on_c, 8, 76, 0
10, 256440, Note_on_c, 8, 73, 100
10, 256560, Note_on_c, 8, 73, 0
10, 256560, Note_on_c, 8, 74, 100
10, 256680, Note_on_c, 8, 74, 0
10, 256680, Note_on_c, 8, 71, 100
10, 256800, Note_on_c, 8, 71, 0
10, 256800, Note_on_c, 8, 73, 100
10, 256920, Note_on_c, 8, 73, 0
10, 256920, Note_on_c, 8, 67, 100
10, 256920, Note_on_c, 8, 76, 100
10, 257040, Note_on_c, 8, 76, 0
10, 257040, Note_on_c, 8, 67, 0
10, 257040, Note_on_c, 8, 66, 100
10, 257040, Note_on_c, 8, 57, 100
10, 257160, Note_on_c, 8, 57, 0
10, 257160, Note_on_c, 8, 66, 0
10, 257760, Note_on_c, 8, 62, 100
10, 258480, Note_on_c, 8, 62, 0
10, 258480, Note_on_c, 8, 64, 100
10, 259200, Note_on_c, 8, 64, 0
10, 259200, Note_on_c, 8, 62, 100
10, 259920, Note_on_c, 8, 62, 0
10, 259920, Note_on_c, 8, 61, 100
10, 260640, Note_on_c, 8, 61, 0
10, 260640, Note_on_c, 8, 62, 100
10, 261360, Note_on_c, 8, 62, 0
10, 261360, Note_on_c, 8, 64, 100
10, 262080, Note_on_c, 8, 64, 0
10, 262080, Note_on_c, 8, 64, 100
10, 262680, Note_on_c, 8, 64, 0
10, 262680, Note_on_c, 8, 65, 100
10, 262800, Note_on_c, 8, 65, 0
10, 262800, Note_on_c, 8, 65, 100
10, 262830, Note_on_c, 8, 65, 0
10, 262830, Note_on_c, 8, 69, 100
10, 262920, Note_on_c, 8, 69, 0
10, 262920, Note_on_c, 8, 65, 100
10, 262980, Note_on_c, 8, 65, 0
10, 263040, Note_on_c, 8, 65, 100
10, 263160, Note_on_c, 8, 65, 0
10, 263160, Note_on_c, 8, 65, 100
10, 263190, Note_on_c, 8, 65, 0
10, 263190, Note_on_c, 8, 69, 100
10, 263280, Note_on_c, 8, 69, 0
10, 263280, Note_on_c, 8, 65, 100
10, 263340, Note_on_c, 8, 65, 0
10, 263400, Note_on_c, 8, 69, 100
10, 263520, Note_on_c, 8, 69, 0
10, 263520, Note_on_c, 8, 69, 100
10, 263640, Note_on_c, 8, 69, 0
10, 263640, Note_on_c, 8, 69, 100
10, 263760, Note_on_c, 8, 69, 0
10, 263760, Note_on_c, 8, 72, 100
10, 263880, Note_on_c, 8, 72, 0
10, 263880, Note_on_c, 8, 70, 100
10, 264000, Note_on_c, 8, 70, 0
10, 264000, Note_on_c, 8, 70, 100
10, 264120, Note_on_c, 8, 70, 0
10, 264120, Note_on_c, 8, 69, 100
10, 264240, Note_on_c, 8, 69, 0
10, 264240, Note_on_c, 8, 67, 100
10, 264360, Note_on_c, 8, 67, 0
10, 264360, Note_on_c, 8, 67, 100
10, 264480, Note_on_c, 8, 67, 0
10, 264480, Note_on_c, 8, 65, 100
10, 264600, Note_on_c, 8, 65, 0
10, 264600, Note_on_c, 8, 64, 100
10, 264960, Note_on_c, 8, 64, 0
10, 264960, Note_on_c, 8, 76, 100
10, 265080, Note_on_c, 8, 76, 0
10, 265080, Note_on_c, 8, 76, 100
10, 265200, Note_on_c, 8, 76, 0
10, 265200, Note_on_c, 8, 74, 100
10, 265320, Note_on_c, 8, 74, 0
10, 265320, Note_on_c, 8, 72, 100
10, 265440, Note_on_c, 8, 72, 0
10, 265440, Note_on_c, 8, 72, 100
10, 265560, Note_on_c, 8, 72, 0
10, 265560, Note_on_c, 8, 70, 100
10, 265680, Note_on_c, 8, 70, 0
10, 265680, Note_on_c, 8, 69, 100
10, 265800, Note_on_c, 8, 69, 0
10, 265800, Note_on_c, 8, 69, 100
10, 265920, Note_on_c, 8, 69, 0
10, 265920, Note_on_c, 8, 67, 100
10, 266040, Note_on_c, 8, 67, 0
10, 266040, Note_on_c, 8, 65, 100
10, 266400, Note_on_c, 8, 65, 0
10, 266400, Note_on_c, 8, 64, 100
10, 266520, Note_on_c, 8, 64, 0
10, 266520, Note_on_c, 8, 64, 100
10, 266640, Note_on_c, 8, 64, 0
10, 266640, Note_on_c, 8, 65, 100
10, 266760, Note_on_c, 8, 65, 0
10, 266760, Note_on_c, 8, 64, 100
10, 267000, Note_on_c, 8, 64, 0
10, 267000, Note_on_c, 8, 65, 100
10, 267120, Note_on_c, 8, 65, 0
10, 267120, Note_on_c, 8, 64, 100
10, 267240, Note_on_c, 8, 64, 0
10, 267240, Note_on_c, 8, 64, 100
10, 267360, Note_on_c, 8, 64, 0
10, 267360, Note_on_c, 8, 65, 100
10, 267480, Note_on_c, 8, 65, 0
10, 267480, Note_on_c, 8, 64, 100
10, 267720, Note_on_c, 8, 64, 0
10, 267720, Note_on_c, 8, 65, 100
10, 267840, Note_on_c, 8, 65, 0
10, 267840, Note_on_c, 8, 68, 100
10, 268080, Note_on_c, 8, 68, 0
10, 268080, Note_on_c, 8, 69, 100
10, 268200, Note_on_c, 8, 69, 0
10, 268200, Note_on_c, 8, 59, 100
10, 268440, Note_on_c, 8, 59, 0
10, 268440, Note_on_c, 8, 61, 100
10, 268560, Note_on_c, 8, 61, 0
10, 268560, Note_on_c, 8, 68, 100
10, 268680, Note_on_c, 8, 68, 0
10, 268680, Note_on_c, 8, 71, 100
10, 268800, Note_on_c, 8, 71, 0
10, 268800, Note_on_c, 8, 71, 100
10, 268920, Note_on_c, 8, 71, 0
10, 268920, Note_on_c, 8, 69, 100
10, 269040, Note_on_c, 8, 69, 0
10, 269040, Note_on_c, 8, 73, 100
10, 269160, Note_on_c, 8, 73, 0
10, 269160, Note_on_c, 8, 73, 100
10, 269280, Note_on_c, 8, 73, 0
10, 269280, Note_on_c, 8, 71, 100
10, 269400, Note_on_c, 8, 71, 0
10, 269400, Note_on_c, 8, 64, 100
10, 269520, Note_on_c, 8, 64, 0
10, 269520, Note_on_c, 8, 71, 100
10, 269640, Note_on_c, 8, 71, 0
10, 269640, Note_on_c, 8, 69, 100
10, 269760, Note_on_c, 8, 69, 0
10, 269760, Note_on_c, 8, 73, 100
10, 269880, Note_on_c, 8, 73, 0
10, 269880, Note_on_c, 8, 73, 100
10, 270000, Note_on_c, 8, 73, 0
10, 270000, Note_on_c, 8, 68, 100
10, 270120, Note_on_c, 8, 68, 0
10, 270120, Note_on_c, 8, 71, 100
10, 270240, Note_on_c, 8, 71, 0
10, 270240, Note_on_c, 8, 71, 100
10, 270360, Note_on_c, 8, 71, 0
10, 270360, Note_on_c, 8, 69, 100
10, 270480, Note_on_c, 8, 69, 0
10, 270480, Note_on_c, 8, 76, 100
10, 270600, Note_on_c, 8, 76, 0
10, 270600, Note_on_c, 8, 73, 100
10, 270720, Note_on_c, 8, 73, 0
10, 270720, Note_on_c, 8, 69, 100
10, 270840, Note_on_c, 8, 69, 0
10, 270840, Note_on_c, 8, 64, 100
10, 270960, Note_on_c, 8, 64, 0
10, 270960, Note_on_c, 8, 61, 100
10, 271080, Note_on_c, 8, 61, 0
10, 271080, Note_on_c, 8, 57, 100
10, 271200, Note_on_c, 8, 57, 0
10, 272040, Note_on_c, 8, 69, 100
10, 272160, Note_on_c, 8, 69, 0
10, 272160, Note_on_c, 8, 69, 100
10, 272190, Note_on_c, 8, 69, 0
10, 272190, Note_on_c, 8, 73, 100
10, 272280, Note_on_c, 8, 73, 0
10, 272280, Note_on_c, 8, 69, 100
10, 272340, Note_on_c, 8, 69, 0
10, 275760, Note_on_c, 8, 73, 100
10, 276000, Note_on_c, 8, 73, 0
10, 276000, Note_on_c, 8, 74, 100
10, 276120, Note_on_c, 8, 74, 0
10, 276120, Note_on_c, 8, 73, 100
10, 276360, Note_on_c, 8, 73, 0
10, 276360, Note_on_c, 8, 74, 100
10, 276480, Note_on_c, 8, 74, 0
10, 276480, Note_on_c, 8, 73, 100
10, 276720, Note_on_c, 8, 73, 0
10, 276720, Note_on_c, 8, 74, 100
10, 276840, Note_on_c, 8, 74, 0
10, 276840, Note_on_c, 8, 73, 100
10, 277080, Note_on_c, 8, 73, 0
10, 277080, Note_on_c, 8, 74, 100
10, 277200, Note_on_c, 8, 74, 0
10, 278160, Note_on_c, 8, 71, 100
10, 278280, Note_on_c, 8, 71, 0
10, 278280, Note_on_c, 8, 74, 100
10, 278400, Note_on_c, 8, 74, 0
10, 278400, Note_on_c, 8, 71, 100
10, 278460, Note_on_c, 8, 71, 0
10, 281520, Note_on_c, 8, 76, 100
10, 281760, Note_on_c, 8, 76, 0
10, 281760, Note_on_c, 8, 77, 100
10, 281880, Note_on_c, 8, 77, 0
10, 281880, Note_on_c, 8, 76, 100
10, 282120, Note_on_c, 8, 76, 0
10, 282120, Note_on_c, 8, 77, 100
10, 282240, Note_on_c, 8, 77, 0
10, 282240, Note_on_c, 8, 76, 100
10, 282480, Note_on_c, 8, 76, 0
10, 282480, Note_on_c, 8, 77, 100
10, 282600, Note_on_c, 8, 77, 0
10, 282600, Note_on_c, 8, 76, 100
10, 282840, Note_on_c, 8, 76, 0
10, 282840, Note_on_c, 8, 77, 100
10, 282960, Note_on_c, 8, 77, 0
10, 283920, Note_on_c, 8, 69, 100
10, 284040, Note_on_c, 8, 69, 0
10, 284040, Note_on_c, 8, 72, 100
10, 284160, Note_on_c, 8, 72, 0
10, 284160, Note_on_c, 8, 69, 100
10, 284220, Note_on_c, 8, 69, 0
10, 284280, Note_on_c, 8, 70, 100
10, 284400, Note_on_c, 8, 70, 0
10, 284400, Note_on_c, 8, 70, 100
10, 284520, Note_on_c, 8, 70, 0
10, 284520, Note_on_c, 8, 70, 100
10, 284640, Note_on_c, 8, 70, 0
10, 284640, Note_on_c, 8, 70, 100
10, 284760, Note_on_c, 8, 70, 0
10, 284760, Note_on_c, 8, 70, 100
10, 285000, Note_on_c, 8, 70, 0
10, 285000, Note_on_c, 8, 70, 100
10, 285120, Note_on_c, 8, 70, 0
10, 285120, Note_on_c, 8, 70, 100
10, 285240, Note_on_c, 8, 70, 0
10, 285240, Note_on_c, 8, 70, 100
10, 285360, Note_on_c, 8, 70, 0
10, 285360, Note_on_c, 8, 70, 100
10, 285480, Note_on_c, 8, 70, 0
10, 285480, Note_on_c, 8, 70, 100
10, 285720, Note_on_c, 8, 70, 0
10, 285720, Note_on_c, 8, 70, 100
10, 285840, Note_on_c, 8, 70, 0
10, 285840, Note_on_c, 8, 62, 100
10, 285960, Note_on_c, 8, 62, 0
10, 285960, Note_on_c, 8, 65, 100
10, 286080, Note_on_c, 8, 65, 0
10, 286080, Note_on_c, 8, 65, 100
10, 286200, Note_on_c, 8, 65, 0
10, 286200, Note_on_c, 8, 62, 100
10, 286320, Note_on_c, 8, 62, 0
10, 286320, Note_on_c, 8, 65, 100
10, 286440, Note_on_c, 8, 65, 0
10, 286440, Note_on_c, 8, 65, 100
10, 286560, Note_on_c, 8, 65, 0
10, 286560, Note_on_c, 8, 62, 100
10, 286680, Note_on_c, 8, 62, 0
10, 286680, Note_on_c, 8, 65, 100
10, 286800, Note_on_c, 8, 65, 0
10, 286800, Note_on_c, 8, 65, 100
10, 286920, Note_on_c, 8, 65, 0
10, 286920, Note_on_c, 8, 62, 100
10, 287040, Note_on_c, 8, 62, 0
10, 287040, Note_on_c, 8, 65, 100
10, 287160, Note_on_c, 8, 65, 0
10, 287160, Note_on_c, 8, 65, 100
10, 287280, Note_on_c, 8, 65, 0
10, 287280, Note_on_c, 8, 60, 100
10, 287400, Note_on_c, 8, 60, 0
10, 287400, Note_on_c, 8, 60, 100
10, 287520, Note_on_c, 8, 60, 0
10, 287520, Note_on_c, 8, 65, 100
10, 287640, Note_on_c, 8, 65, 0
10, 287640, Note_on_c, 8, 60, 100
10, 287760, Note_on_c, 8, 60, 0
10, 287760, Note_on_c, 8, 60, 100
10, 287880, Note_on_c, 8, 60, 0
10, 287880, Note_on_c, 8, 65, 100
10, 288000, Note_on_c, 8, 65, 0
10, 288000, Note_on_c, 8, 60, 100
10, 288120, Note_on_c, 8, 60, 0
10, 288120, Note_on_c, 8, 60, 100
10, 288240, Note_on_c, 8, 60, 0
10, 288240, Note_on_c, 8, 65, 100
10, 288360, Note_on_c, 8, 65, 0
10, 288360, Note_on_c, 8, 60, 100
10, 288480, Note_on_c, 8, 60, 0
10, 288480, Note_on_c, 8, 60, 100
10, 288600, Note_on_c, 8, 60, 0
10, 288600, Note_on_c, 8, 65, 100
10, 288720, Note_on_c, 8, 65, 0
10, 288720, Note_on_c, 8, 65, 100
10, 288840, Note_on_c, 8, 65, 0
10, 288840, Note_on_c, 8, 65, 100
10, 288960, Note_on_c, 8, 65, 0
10, 288960, Note_on_c, 8, 65, 100
10, 289080, Note_on_c, 8, 65, 0
10, 289080, Note_on_c, 8, 62, 100
10, 289200, Note_on_c, 8, 62, 0
10, 289200, Note_on_c, 8, 62, 100
10, 289320, Note_on_c, 8, 62, 0
10, 289320, Note_on_c, 8, 65, 100
10, 289440, Note_on_c, 8, 65, 0
10, 289440, Note_on_c, 8, 62, 100
10, 289560, Note_on_c, 8, 62, 0
10, 289560, Note_on_c, 8, 62, 100
10, 289680, Note_on_c, 8, 62, 0
10, 289680, Note_on_c, 8, 65, 100
10, 289800, Note_on_c, 8, 65, 0
10, 289800, Note_on_c, 8, 62, 100
10, 289920, Note_on_c, 8, 62, 0
10, 289920, Note_on_c, 8, 62, 100
10, 290040, Note_on_c, 8, 62, 0
10, 290040, Note_on_c, 8, 65, 100
10, 290160, Note_on_c, 8, 65, 0
10, 290160, Note_on_c, 8, 65, 100
10, 290280, Note_on_c, 8, 65, 0
10, 290280, Note_on_c, 8, 65, 100
10, 290400, Note_on_c, 8, 65, 0
10, 290400, Note_on_c, 8, 65, 100
10, 290520, Note_on_c, 8, 65, 0
10, 290520, Note_on_c, 8, 65, 100
10, 290640, Note_on_c, 8, 65, 0
10, 290640, Note_on_c, 8, 65, 100
10, 290760, Note_on_c, 8, 65, 0
10, 290760, Note_on_c, 8, 69, 100
10, 290880, Note_on_c, 8, 69, 0
10, 290880, Note_on_c, 8, 65, 100
10, 291000, Note_on_c, 8, 65, 0
10, 291000, Note_on_c, 8, 65, 100
10, 291120, Note_on_c, 8, 65, 0
10, 291120, Note_on_c, 8, 69, 100
10, 291240, Note_on_c, 8, 69, 0
10, 291240, Note_on_c, 8, 65, 100
10, 291360, Note_on_c, 8, 65, 0
10, 291360, Note_on_c, 8, 65, 100
10, 291480, Note_on_c, 8, 65, 0
10, 291480, Note_on_c, 8, 69, 100
10, 291600, Note_on_c, 8, 69, 0
10, 291600, Note_on_c, 8, 65, 100
10, 291720, Note_on_c, 8, 65, 0
10, 291720, Note_on_c, 8, 65, 100
10, 291840, Note_on_c, 8, 65, 0
10, 291840, Note_on_c, 8, 70, 100
10, 291960, Note_on_c, 8, 70, 0
10, 292680, Note_on_c, 8, 67, 100
10, 292800, Note_on_c, 8, 67, 0
10, 292800, Note_on_c, 8, 67, 100
10, 292920, Note_on_c, 8, 67, 0
10, 292920, Note_on_c, 8, 65, 100
10, 293040, Note_on_c, 8, 65, 0
10, 293040, Note_on_c, 8, 64, 100
10, 293160, Note_on_c, 8, 64, 0
10, 293160, Note_on_c, 8, 64, 100
10, 293280, Note_on_c, 8, 64, 0
10, 293280, Note_on_c, 8, 62, 100
10, 293400, Note_on_c, 8, 62, 0
10, 293400, Note_on_c, 8, 60, 100
10, 293520, Note_on_c, 8, 60, 0
10, 293520, Note_on_c, 8, 60, 100
10, 293640, Note_on_c, 8, 60, 0
10, 293640, Note_on_c, 8, 58, 100
10, 293760, Note_on_c, 8, 58, 0
10, 293760, Note_on_c, 8, 57, 100
10, 293880, Note_on_c, 8, 57, 0
10, 293880, Note_on_c, 8, 57, 100
10, 294000, Note_on_c, 8, 57, 0
10, 294000, Note_on_c, 8, 55, 100
10, 294120, Note_on_c, 8, 55, 0
10, 294120, Note_on_c, 8, 65, 100
10, 294240, Note_on_c, 8, 65, 0
10, 294240, Note_on_c, 8, 64, 100
10, 294360, Note_on_c, 8, 64, 0
10, 294360, Note_on_c, 8, 65, 100
10, 294480, Note_on_c, 8, 65, 0
10, 294480, Note_on_c, 8, 65, 100
10, 294510, Note_on_c, 8, 65, 0
10, 294510, Note_on_c, 8, 69, 100
10, 294600, Note_on_c, 8, 69, 0
10, 294600, Note_on_c, 8, 65, 100
10, 294660, Note_on_c, 8, 65, 0
10, 294720, Note_on_c, 8, 69, 100
10, 294840, Note_on_c, 8, 69, 0
10, 294840, Note_on_c, 8, 69, 100
10, 294870, Note_on_c, 8, 69, 0
10, 294870, Note_on_c, 8, 72, 100
10, 294960, Note_on_c, 8, 72, 0
10, 294960, Note_on_c, 8, 69, 100
10, 295020, Note_on_c, 8, 69, 0
10, 295080, Note_on_c, 8, 72, 100
10, 295200, Note_on_c, 8, 72, 0
10, 295200, Note_on_c, 8, 77, 100
10, 295320, Note_on_c, 8, 77, 0
10, 295320, Note_on_c, 8, 77, 100
10, 295440, Note_on_c, 8, 77, 0
10, 295440, Note_on_c, 8, 76, 100
10, 295560, Note_on_c, 8, 76, 0
10, 295560, Note_on_c, 8, 74, 100
10, 295680, Note_on_c, 8, 74, 0
10, 295680, Note_on_c, 8, 74, 100
10, 295800, Note_on_c, 8, 74, 0
10, 295800, Note_on_c, 8, 72, 100
10, 295920, Note_on_c, 8, 72, 0
10, 295920, Note_on_c, 8, 70, 100
10, 296040, Note_on_c, 8, 70, 0
10, 296040, Note_on_c, 8, 70, 100
10, 296160, Note_on_c, 8, 70, 0
10, 296160, Note_on_c, 8, 69, 100
10, 296280, Note_on_c, 8, 69, 0
10, 296280, Note_on_c, 8, 67, 100
10, 296640, Note_on_c, 8, 67, 0
10, 296640, Note_on_c, 8, 79, 100
10, 296760, Note_on_c, 8, 79, 0
10, 296760, Note_on_c, 8, 79, 100
10, 296880, Note_on_c, 8, 79, 0
10, 296880, Note_on_c, 8, 77, 100
10, 297000, Note_on_c, 8, 77, 0
10, 297000, Note_on_c, 8, 76, 100
10, 297120, Note_on_c, 8, 76, 0
10, 297120, Note_on_c, 8, 76, 100
10, 297240, Note_on_c, 8, 76, 0
10, 297240, Note_on_c, 8, 74, 100
10, 297360, Note_on_c, 8, 74, 0
10, 297360, Note_on_c, 8, 72, 100
10, 297480, Note_on_c, 8, 72, 0
10, 297480, Note_on_c, 8, 72, 100
10, 297600, Note_on_c, 8, 72, 0
10, 297600, Note_on_c, 8, 70, 100
10, 297720, Note_on_c, 8, 70, 0
10, 297720, Note_on_c, 8, 69, 100
10, 298080, Note_on_c, 8, 69, 0
10, 298080, Note_on_c, 8, 69, 100
10, 299280, Note_on_c, 8, 69, 0
10, 299280, Note_on_c, 8, 72, 100
10, 299400, Note_on_c, 8, 72, 0
10, 299400, Note_on_c, 8, 72, 100
10, 299520, Note_on_c, 8, 72, 0
10, 299520, Note_on_c, 8, 72, 100
10, 300720, Note_on_c, 8, 72, 0
10, 300720, Note_on_c, 8, 77, 100
10, 300840, Note_on_c, 8, 77, 0
10, 300840, Note_on_c, 8, 77, 100
10, 300960, Note_on_c, 8, 77, 0
10, 300960, Note_on_c, 8, 64, 100
10, 301080, Note_on_c, 8, 64, 0
10, 301080, Note_on_c, 8, 64, 100
10, 301200, Note_on_c, 8, 64, 0
10, 301200, Note_on_c, 8, 65, 100
10, 301320, Note_on_c, 8, 65, 0
10, 301320, Note_on_c, 8, 64, 100
10, 301560, Note_on_c, 8, 64, 0
10, 301560, Note_on_c, 8, 65, 100
10, 301680, Note_on_c, 8, 65, 0
10, 302400, Note_on_c, 8, 64, 100
10, 302520, Note_on_c, 8, 64, 0
10, 302520, Note_on_c, 8, 64, 100
10, 302640, Note_on_c, 8, 64, 0
10, 302640, Note_on_c, 8, 65, 100
10, 302760, Note_on_c, 8, 65, 0
10, 302760, Note_on_c, 8, 64, 100
10, 303000, Note_on_c, 8, 64, 0
10, 303000, Note_on_c, 8, 65, 100
10, 303120, Note_on_c, 8, 65, 0
10, 303120, Note_on_c, 8, 65, 100
10, 303360, Note_on_c, 8, 65, 0
10, 303360, Note_on_c, 8, 65, 100
10, 303480, Note_on_c, 8, 65, 0
10, 303480, Note_on_c, 8, 71, 100
10, 303720, Note_on_c, 8, 71, 0
10, 303720, Note_on_c, 8, 72, 100
10, 303840, Note_on_c, 8, 72, 0
10, 303840, Note_on_c, 8, 72, 100
10, 304080, Note_on_c, 8, 72, 0
10, 304080, Note_on_c, 8, 72, 100
10, 304200, Note_on_c, 8, 72, 0
10, 304200, Note_on_c, 8, 77, 100
10, 304440, Note_on_c, 8, 77, 0
10, 304440, Note_on_c, 8, 76, 100
10, 304560, Note_on_c, 8, 76, 0
10, 304560, Note_on_c, 8, 65, 100
10, 304680, Note_on_c, 8, 65, 0
10, 304680, Note_on_c, 8, 65, 100
10, 304800, Note_on_c, 8, 65, 0
10, 304800, Note_on_c, 8, 67, 100
10, 304920, Note_on_c, 8, 67, 0
10, 304920, Note_on_c, 8, 64, 100
10, 305040, Note_on_c, 8, 64, 0
10, 305040, Note_on_c, 8, 64, 100
10, 305160, Note_on_c, 8, 64, 0
10, 305160, Note_on_c, 8, 65, 100
10, 305280, Note_on_c, 8, 65, 0
10, 305280, Note_on_c, 8, 62, 100
10, 305400, Note_on_c, 8, 62, 0
10, 305400, Note_on_c, 8, 62, 100
10, 305520, Note_on_c, 8, 62, 0
10, 305520, Note_on_c, 8, 67, 100
10, 305640, Note_on_c, 8, 67, 0
10, 305640, Note_on_c, 8, 64, 100
10, 305760, Note_on_c, 8, 64, 0
10, 305760, Note_on_c, 8, 64, 100
10, 305880, Note_on_c, 8, 64, 0
10, 305880, Note_on_c, 8, 67, 100
10, 306000, Note_on_c, 8, 67, 0
10, 306000, Note_on_c, 8, 65, 100
10, 306120, Note_on_c, 8, 65, 0
10, 306120, Note_on_c, 8, 65, 100
10, 306240, Note_on_c, 8, 65, 0
10, 306240, Note_on_c, 8, 67, 100
10, 306360, Note_on_c, 8, 67, 0
10, 306360, Note_on_c, 8, 64, 100
10, 306480, Note_on_c, 8, 64, 0
10, 306480, Note_on_c, 8, 67, 100
10, 306600, Note_on_c, 8, 67, 0
10, 306600, Note_on_c, 8, 67, 100
10, 306720, Note_on_c, 8, 67, 0
10, 306720, Note_on_c, 8, 65, 100
10, 306840, Note_on_c, 8, 65, 0
10, 306840, Note_on_c, 8, 65, 100
10, 306960, Note_on_c, 8, 65, 0
10, 306960, Note_on_c, 8, 67, 100
10, 307080, Note_on_c, 8, 67, 0
10, 307080, Note_on_c, 8, 64, 100
10, 307200, Note_on_c, 8, 64, 0
10, 307200, Note_on_c, 8, 64, 100
10, 307320, Note_on_c, 8, 64, 0
10, 307320, Note_on_c, 8, 67, 100
10, 307440, Note_on_c, 8, 67, 0
10, 307440, Note_on_c, 8, 67, 100
10, 307470, Note_on_c, 8, 67, 0
10, 307470, Note_on_c, 8, 69, 100
10, 307500, Note_on_c, 8, 69, 0
10, 307500, Note_on_c, 8, 67, 100
10, 307530, Note_on_c, 8, 67, 0
10, 307530, Note_on_c, 8, 69, 100
10, 307560, Note_on_c, 8, 69, 0
10, 307560, Note_on_c, 8, 67, 100
10, 307590, Note_on_c, 8, 67, 0
10, 307590, Note_on_c, 8, 69, 100
10, 307620, Note_on_c, 8, 69, 0
10, 307620, Note_on_c, 8, 67, 100
10, 307650, Note_on_c, 8, 67, 0
10, 307650, Note_on_c, 8, 69, 100
10, 307680, Note_on_c, 8, 69, 0
10, 307680, Note_on_c, 8, 67, 100
10, 307710, Note_on_c, 8, 67, 0
10, 307710, Note_on_c, 8, 69, 100
10, 307740, Note_on_c, 8, 69, 0
10, 307740, Note_on_c, 8, 65, 100
10, 307770, Note_on_c, 8, 65, 0
10, 307770, Note_on_c, 8, 67, 100
10, 307800, Note_on_c, 8, 67, 0
10, 307800, Note_on_c, 8, 65, 100
10, 307920, Note_on_c, 8, 65, 0
10, 307920, Note_on_c, 8, 69, 100
10, 308040, Note_on_c, 8, 69, 0
10, 308040, Note_on_c, 8, 65, 100
10, 308160, Note_on_c, 8, 65, 0
10, 308160, Note_on_c, 8, 67, 100
10, 308190, Note_on_c, 8, 67, 0
10, 308190, Note_on_c, 8, 69, 100
10, 308220, Note_on_c, 8, 69, 0
10, 308220, Note_on_c, 8, 67, 100
10, 308250, Note_on_c, 8, 67, 0
10, 308250, Note_on_c, 8, 69, 100
10, 308280, Note_on_c, 8, 69, 0
10, 308280, Note_on_c, 8, 67, 100
10, 308310, Note_on_c, 8, 67, 0
10, 308310, Note_on_c, 8, 69, 100
10, 308340, Note_on_c, 8, 69, 0
10, 308340, Note_on_c, 8, 67, 100
10, 308370, Note_on_c, 8, 67, 0
10, 308370, Note_on_c, 8, 69, 100
10, 308400, Note_on_c, 8, 69, 0
10, 308400, Note_on_c, 8, 67, 100
10, 308430, Note_on_c, 8, 67, 0
10, 308430, Note_on_c, 8, 69, 100
10, 308460, Note_on_c, 8, 69, 0
10, 308460, Note_on_c, 8, 65, 100
10, 308490, Note_on_c, 8, 65, 0
10, 308490, Note_on_c, 8, 67, 100
10, 308520, Note_on_c, 8, 67, 0
10, 308520, Note_on_c, 8, 65, 100
10, 308640, Note_on_c, 8, 65, 0
10, 308640, Note_on_c, 8, 69, 100
10, 308760, Note_on_c, 8, 69, 0
10, 308760, Note_on_c, 8, 65, 100
10, 308880, Note_on_c, 8, 65, 0
10, 308880, Note_on_c, 8, 67, 100
10, 308910, Note_on_c, 8, 67, 0
10, 308910, Note_on_c, 8, 69, 100
10, 308940, Note_on_c, 8, 69, 0
10, 308940, Note_on_c, 8, 67, 100
10, 308970, Note_on_c, 8, 67, 0
10, 308970, Note_on_c, 8, 69, 100
10, 309000, Note_on_c, 8, 69, 0
10, 309000, Note_on_c, 8, 67, 100
10, 309030, Note_on_c, 8, 67, 0
10, 309030, Note_on_c, 8, 69, 100
10, 309060, Note_on_c, 8, 69, 0
10, 309060, Note_on_c, 8, 67, 100
10, 309090, Note_on_c, 8, 67, 0
10, 309090, Note_on_c, 8, 69, 100
10, 309120, Note_on_c, 8, 69, 0
10, 309120, Note_on_c, 8, 67, 100
10, 309150, Note_on_c, 8, 67, 0
10, 309150, Note_on_c, 8, 69, 100
10, 309180, Note_on_c, 8, 69, 0
10, 309180, Note_on_c, 8, 65, 100
10, 309210, Note_on_c, 8, 65, 0
10, 309210, Note_on_c, 8, 67, 100
10, 309240, Note_on_c, 8, 67, 0
10, 309240, Note_on_c, 8, 65, 100
10, 309360, Note_on_c, 8, 65, 0
10, 309360, Note_on_c, 8, 69, 100
10, 309480, Note_on_c, 8, 69, 0
10, 309480, Note_on_c, 8, 65, 100
10, 309600, Note_on_c, 8, 65, 0
10, 309600, Note_on_c, 8, 67, 100
10, 309630, Note_on_c, 8, 67, 0
10, 309630, Note_on_c, 8, 69, 100
10, 309660, Note_on_c, 8, 69, 0
10, 309660, Note_on_c, 8, 67, 100
10, 309690, Note_on_c, 8, 67, 0
10, 309690, Note_on_c, 8, 69, 100
10, 309720, Note_on_c, 8, 69, 0
10, 309720, Note_on_c, 8, 67, 100
10, 309750, Note_on_c, 8, 67, 0
10, 309750, Note_on_c, 8, 69, 100
10, 309780, Note_on_c, 8, 69, 0
10, 309780, Note_on_c, 8, 67, 100
10, 309810, Note_on_c, 8, 67, 0
10, 309810, Note_on_c, 8, 69, 100
10, 309840, Note_on_c, 8, 69, 0
10, 309840, Note_on_c, 8, 67, 100
10, 309870, Note_on_c, 8, 67, 0
10, 309870, Note_on_c, 8, 69, 100
10, 309900, Note_on_c, 8, 69, 0
10, 309900, Note_on_c, 8, 65, 100
10, 309930, Note_on_c, 8, 65, 0
10, 309930, Note_on_c, 8, 67, 100
10, 309960, Note_on_c, 8, 67, 0
10, 309960, Note_on_c, 8, 65, 100
10, 310080, Note_on_c, 8, 65, 0
10, 310080, Note_on_c, 8, 69, 100
10, 310200, Note_on_c, 8, 69, 0
10, 310200, Note_on_c, 8, 65, 100
10, 310320, Note_on_c, 8, 65, 0
10, 310320, Note_on_c, 8, 67, 100
10, 310350, Note_on_c, 8, 67, 0
10, 310350, Note_on_c, 8, 69, 100
10, 310380, Note_on_c, 8, 69, 0
10, 310380, Note_on_c, 8, 67, 100
10, 310410, Note_on_c, 8, 67, 0
10, 310410, Note_on_c, 8, 69, 100
10, 310440, Note_on_c, 8, 69, 0
10, 310440, Note_on_c, 8, 67, 100
10, 310470, Note_on_c, 8, 67, 0
10, 310470, Note_on_c, 8, 69, 100
10, 310500, Note_on_c, 8, 69, 0
10, 310500, Note_on_c, 8, 67, 100
10, 310530, Note_on_c, 8, 67, 0
10, 310530, Note_on_c, 8, 69, 100
10, 310560, Note_on_c, 8, 69, 0
10, 310560, Note_on_c, 8, 67, 100
10, 310590, Note_on_c, 8, 67, 0
10, 310590, Note_on_c, 8, 69, 100
10, 310620, Note_on_c, 8, 69, 0
10, 310620, Note_on_c, 8, 65, 100
10, 310650, Note_on_c, 8, 65, 0
10, 310650, Note_on_c, 8, 67, 100
10, 310680, Note_on_c, 8, 67, 0
10, 310680, Note_on_c, 8, 65, 100
10, 310800, Note_on_c, 8, 65, 0
10, 310800, Note_on_c, 8, 72, 100
10, 310920, Note_on_c, 8, 72, 0
10, 310920, Note_on_c, 8, 69, 100
10, 311040, Note_on_c, 8, 69, 0
10, 311040, Note_on_c, 8, 65, 100
10, 311160, Note_on_c, 8, 65, 0
10, 311160, Note_on_c, 8, 60, 100
10, 311280, Note_on_c, 8, 60, 0
10, 311280, Note_on_c, 8, 57, 100
10, 311400, Note_on_c, 8, 57, 0
10, 311400, Note_on_c, 8, 65, 100
10, 311400, Note_on_c, 8, 57, 100
10, 311520, Note_on_c, 8, 57, 0
10, 311520, Note_on_c, 8, 65, 0
10, 312360, Note_on_c, 8, 65, 100
10, 312480, Note_on_c, 8, 65, 0
10, 312480, Note_on_c, 8, 65, 100
10, 312510, Note_on_c, 8, 65, 0
10, 312510, Note_on_c, 8, 69, 100
10, 312600, Note_on_c, 8, 69, 0
10, 312600, Note_on_c, 8, 65, 100
10, 312660, Note_on_c, 8, 65, 0
10, 312720, Note_on_c, 8, 65, 100
10, 312840, Note_on_c, 8, 65, 0
10, 312840, Note_on_c, 8, 65, 100
10, 312870, Note_on_c, 8, 65, 0
10, 312870, Note_on_c, 8, 69, 100
10, 312960, Note_on_c, 8, 69, 0
10, 312960, Note_on_c, 8, 65, 100
10, 313020, Note_on_c, 8, 65, 0
10, 313080, Note_on_c, 8, 65, 100
10, 313200, Note_on_c, 8, 65, 0
10, 313200, Note_on_c, 8, 65, 100
10, 313230, Note_on_c, 8, 65, 0
10, 313230, Note_on_c, 8, 69, 100
10, 313320, Note_on_c, 8, 69, 0
10, 313320, Note_on_c, 8, 65, 100
10, 313380, Note_on_c, 8, 65, 0
10, 313440, Note_on_c, 8, 65, 100
10, 313560, Note_on_c, 8, 65, 0
10, 313560, Note_on_c, 8, 65, 100
10, 313590, Note_on_c, 8, 65, 0
10, 313590, Note_on_c, 8, 69, 100
10, 313680, Note_on_c, 8, 69, 0
10, 313680, Note_on_c, 8, 65, 100
10, 313800, Note_on_c, 8, 65, 0
10, 313800, Note_on_c, 8, 65, 100
10, 313920, Note_on_c, 8, 65, 0
10, 313920, Note_on_c, 8, 65, 100
10, 313950, Note_on_c, 8, 65, 0
10, 313950, Note_on_c, 8, 69, 100
10, 314040, Note_on_c, 8, 69, 0
10, 314040, Note_on_c, 8, 65, 100
10, 314160, Note_on_c, 8, 65, 0
10, 314160, Note_on_c, 8, 65, 100
10, 314280, Note_on_c, 8, 65, 0
10, 314280, Note_on_c, 8, 65, 100
10, 314310, Note_on_c, 8, 65, 0
10, 314310, Note_on_c, 8, 69, 100
10, 314400, Note_on_c, 8, 69, 0
10, 314400, Note_on_c, 8, 65, 100
10, 314520, Note_on_c, 8, 65, 0
10, 314520, Note_on_c, 8, 65, 100
10, 314640, Note_on_c, 8, 65, 0
10, 314640, Note_on_c, 8, 69, 100
10, 317520, Note_on_c, 8, 69, 0
10, 317520, Note_on_c, 8, 70, 100
10, 317640, Note_on_c, 8, 70, 0
10, 317880, Note_on_c, 8, 71, 100
10, 318000, Note_on_c, 8, 71, 0
10, 318240, Note_on_c, 8, 72, 100
10, 318360, Note_on_c, 8, 72, 0
10, 318600, Note_on_c, 8, 67, 100
10, 318600, Note_on_c, 8, 70, 100
10, 318720, Note_on_c, 8, 70, 0
10, 318720, Note_on_c, 8, 67, 0
10, 318960, Note_on_c, 8, 65, 100
10, 318960, Note_on_c, 8, 69, 100
10, 319080, Note_on_c, 8, 69, 0
10, 319080, Note_on_c, 8, 65, 0
10, 319080, End_track
11, 0, Start_track
11, 0, MIDI_port, 0
11, 0, Title_t, "Violas"
11, 0, Program_c, 10, 48
11, 0, Control_c, 10, 7, 100
11, 0, Control_c, 10, 10, 80
11, 600, Note_on_c, 10, 53, 100
11, 720, Note_on_c, 10, 53, 0
11, 720, Note_on_c, 10, 53, 100
11, 750, Note_on_c, 10, 53, 0
11, 750, Note_on_c, 10, 57, 100
11, 840, Note_on_c, 10, 57, 0
11, 840, Note_on_c, 10, 53, 100
11, 900, Note_on_c, 10, 53, 0
11, 960, Note_on_c, 10, 53, 100
11, 960, Note_on_c, 10, 57, 100
11, 1080, Note_on_c, 10, 57, 0
11, 1080, Note_on_c, 10, 53, 0
11, 1080, Note_on_c, 10, 57, 100
11, 1080, Note_on_c, 10, 53, 100
11, 1110, Note_on_c, 10, 53, 0
11, 1110, Note_on_c, 10, 57, 0
11, 1110, Note_on_c, 10, 57, 100
11, 1110, Note_on_c, 10, 60, 100
11, 1200, Note_on_c, 10, 60, 0
11, 1200, Note_on_c, 10, 57, 0
11, 1200, Note_on_c, 10, 53, 100
11, 1200, Note_on_c, 10, 57, 100
11, 1260, Note_on_c, 10, 57, 0
11, 1260, Note_on_c, 10, 53, 0
11, 1320, Note_on_c, 10, 60, 100
11, 1320, Note_on_c, 10, 57, 100
11, 1440, Note_on_c, 10, 57, 0
11, 1440, Note_on_c, 10, 60, 0
11, 1440, Note_on_c, 10, 53, 100
11, 1440, Note_on_c, 10, 57, 100
11, 1560, Note_on_c, 10, 57, 0
11, 1560, Note_on_c, 10, 53, 0
11, 1560, Note_on_c, 10, 53, 100
11, 1560, Note_on_c, 10, 57, 100
11, 1680, Note_on_c, 10, 57, 0
11, 1680, Note_on_c, 10, 53, 0
11, 1680, Note_on_c, 10, 60, 100
11, 1680, Note_on_c, 10, 57, 100
11, 1800, Note_on_c, 10, 57, 0
11, 1800, Note_on_c, 10, 60, 0
11, 1800, Note_on_c, 10, 53, 100
11, 1800, Note_on_c, 10, 57, 100
11, 1920, Note_on_c, 10, 57, 0
11, 1920, Note_on_c, 10, 53, 0
11, 1920, Note_on_c, 10, 53, 100
11, 1920, Note_on_c, 10, 57, 100
11, 2040, Note_on_c, 10, 57, 0
11, 2040, Note_on_c, 10, 53, 0
11, 2040, Note_on_c, 10, 60, 100
11, 2040, Note_on_c, 10, 57, 100
11, 2160, Note_on_c, 10, 57, 0
11, 2160, Note_on_c, 10, 60, 0
11, 2160, Note_on_c, 10, 53, 100
11, 2160, Note_on_c, 10, 57, 100
11, 2280, Note_on_c, 10, 57, 0
11, 2280, Note_on_c, 10, 53, 0
11, 2280, Note_on_c, 10, 53, 100
11, 2280, Note_on_c, 10, 57, 100
11, 2400, Note_on_c, 10, 57, 0
11, 2400, Note_on_c, 10, 53, 0
11, 2400, Note_on_c, 10, 57, 100
11, 2400, Note_on_c, 10, 60, 100
11, 2520, Note_on_c, 10, 60, 0
11, 2520, Note_on_c, 10, 57, 0
11, 2520, Note_on_c, 10, 48, 100
11, 2520, Note_on_c, 10, 55, 100
11, 2640, Note_on_c, 10, 55, 0
11, 2640, Note_on_c, 10, 48, 0
11, 2640, Note_on_c, 10, 48, 100
11, 2640, Note_on_c, 10, 55, 100
11, 2760, Note_on_c, 10, 55, 0
11, 2760, Note_on_c, 10, 48, 0
11, 2760, Note_on_c, 10, 48, 100
11, 2760, Note_on_c, 10, 60, 100
11, 2880, Note_on_c, 10, 60, 0
11, 2880, Note_on_c, 10, 48, 0
11, 2880, Note_on_c, 10, 55, 100
11, 2880, Note_on_c, 10, 48, 100
11, 3000, Note_on_c, 10, 48, 0
11, 3000, Note_on_c, 10, 55, 0
11, 3000, Note_on_c, 10, 55, 100
11, 3000, Note_on_c, 10, 48, 100
11, 3120, Note_on_c, 10, 48, 0
11, 3120, Note_on_c, 10, 55, 0
11, 3120, Note_on_c, 10, 60, 100
11, 3120, Note_on_c, 10, 48, 100
11, 3240, Note_on_c, 10, 48, 0
11, 3240, Note_on_c, 10, 60, 0
11, 3240, Note_on_c, 10, 55, 100
11, 3240, Note_on_c, 10, 48, 100
11, 3360, Note_on_c, 10, 48, 0
11, 3360, Note_on_c, 10, 55, 0
11, 3360, Note_on_c, 10, 55, 100
11, 3360, Note_on_c, 10, 48, 100
11, 3480, Note_on_c, 10, 48, 0
11, 3480, Note_on_c, 10, 55, 0
11, 3480, Note_on_c, 10, 60, 100
11, 3480, Note_on_c, 10, 48, 100
11, 3600, Note_on_c, 10, 48, 0
11, 3600, Note_on_c, 10, 60, 0
11, 3600, Note_on_c, 10, 48, 100
11, 3600, Note_on_c, 10, 55, 100
11, 3720, Note_on_c, 10, 55, 0
11, 3720, Note_on_c, 10, 48, 0
11, 3720, Note_on_c, 10, 48, 100
11, 3720, Note_on_c, 10, 55, 100
11, 3840, Note_on_c, 10, 55, 0
11, 3840, Note_on_c, 10, 48, 0
11, 3840, Note_on_c, 10, 48, 100
11, 3840, Note_on_c, 10, 60, 100
11, 3960, Note_on_c, 10, 60, 0
11, 3960, Note_on_c, 10, 48, 0
11, 3960, Note_on_c, 10, 57, 100
11, 3960, Note_on_c, 10, 53, 100
11, 4080, Note_on_c, 10, 53, 0
11, 4080, Note_on_c, 10, 57, 0
11, 4080, Note_on_c, 10, 57, 100
11, 4080, Note_on_c, 10, 53, 100
11, 4200, Note_on_c, 10, 53, 0
11, 4200, Note_on_c, 10, 57, 0
11, 4200, Note_on_c, 10, 60, 100
11, 4200, Note_on_c, 10, 57, 100
11, 4320, Note_on_c, 10, 57, 0
11, 4320, Note_on_c, 10, 60, 0
11, 4320, Note_on_c, 10, 48, 100
11, 4440, Note_on_c, 10, 48, 0
11, 4440, Note_on_c, 10, 60, 100
11, 4560, Note_on_c, 10, 60, 0
11, 4560, Note_on_c, 10, 60, 100
11, 4680, Note_on_c, 10, 60, 0
11, 4680, Note_on_c, 10, 60, 100
11, 4920, Note_on_c, 10, 60, 0
11, 4920, Note_on_c, 10, 60, 100
11, 5040, Note_on_c, 10, 60, 0
11, 5040, Note_on_c, 10, 48, 100
11, 5160, Note_on_c, 10, 48, 0
11, 5160, Note_on_c, 10, 60, 100
11, 5280, Note_on_c, 10, 60, 0
11, 5280, Note_on_c, 10, 60, 100
11, 5400, Note_on_c, 10, 60, 0
11, 5400, Note_on_c, 10, 60, 100
11, 5640, Note_on_c, 10, 60, 0
11, 5640, Note_on_c, 10, 60, 100
11, 5760, Note_on_c, 10, 60, 0
11, 5760, Note_on_c, 10, 62, 100
11, 6000, Note_on_c, 10, 62, 0
11, 6000, Note_on_c, 10, 64, 100
11, 6120, Note_on_c, 10, 64, 0
11, 6120, Note_on_c, 10, 68, 100
11, 6360, Note_on_c, 10, 68, 0
11, 6360, Note_on_c, 10, 69, 100
11, 6480, Note_on_c, 10, 69, 0
11, 6480, Note_on_c, 10, 59, 100
11, 6480, Note_on_c, 10, 62, 100
11, 6600, Note_on_c, 10, 62, 0
11, 6600, Note_on_c, 10, 59, 0
11, 6600, Note_on_c, 10, 64, 100
11, 6600, Note_on_c, 10, 62, 100
11, 6720, Note_on_c, 10, 62, 0
11, 6720, Note_on_c, 10, 64, 0
11, 6720, Note_on_c, 10, 64, 100
11, 6720, Note_on_c, 10, 62, 100
11, 6840, Note_on_c, 10, 62, 0
11, 6840, Note_on_c, 10, 64, 0
11, 6840, Note_on_c, 10, 57, 100
11, 6840, Note_on_c, 10, 61, 100
11, 6960, Note_on_c, 10, 61, 0
11, 6960, Note_on_c, 10, 57, 0
11, 6960, Note_on_c, 10, 64, 100
11, 6960, Note_on_c, 10, 61, 100
11, 7080, Note_on_c, 10, 61, 0
11, 7080, Note_on_c, 10, 64, 0
11, 7080, Note_on_c, 10, 64, 100
11, 7080, Note_on_c, 10, 61, 100
11, 7200, Note_on_c, 10, 61, 0
11, 7200, Note_on_c, 10, 64, 0
11, 7200, Note_on_c, 10, 56, 100
11, 7200, Note_on_c, 10, 59, 100
11, 7320, Note_on_c, 10, 59, 0
11, 7320, Note_on_c, 10, 56, 0
11, 7320, Note_on_c, 10, 64, 100
11, 7320, Note_on_c, 10, 59, 100
11, 7440, Note_on_c, 10, 59, 0
11, 7440, Note_on_c, 10, 64, 0
11, 7440, Note_on_c, 10, 64, 100
11, 7440, Note_on_c, 10, 59, 100
11, 7560, Note_on_c, 10, 59, 0
11, 7560, Note_on_c, 10, 64, 0
11, 7560, Note_on_c, 10, 57, 100
11, 7560, Note_on_c, 10, 61, 100
11, 7680, Note_on_c, 10, 61, 0
11, 7680, Note_on_c, 10, 57, 0
11, 7680, Note_on_c, 10, 64, 100
11, 7680, Note_on_c, 10, 61, 100
11, 7800, Note_on_c, 10, 61, 0
11, 7800, Note_on_c, 10, 64, 0
11, 7800, Note_on_c, 10, 64, 100
11, 7800, Note_on_c, 10, 61, 100
11, 7920, Note_on_c, 10, 61, 0
11, 7920, Note_on_c, 10, 64, 0
11, 7920, Note_on_c, 10, 59, 100
11, 7920, Note_on_c, 10, 62, 100
11, 8040, Note_on_c, 10, 62, 0
11, 8040, Note_on_c, 10, 59, 0
11, 8040, Note_on_c, 10, 64, 100
11, 8040, Note_on_c, 10, 62, 100
11, 8160, Note_on_c, 10, 62, 0
11, 8160, Note_on_c, 10, 64, 0
11, 8160, Note_on_c, 10, 64, 100
11, 8160, Note_on_c, 10, 62, 100
11, 8280, Note_on_c, 10, 62, 0
11, 8280, Note_on_c, 10, 64, 0
11, 8280, Note_on_c, 10, 61, 100
11, 8280, Note_on_c, 10, 57, 100
11, 8400, Note_on_c, 10, 57, 0
11, 8400, Note_on_c, 10, 61, 0
11, 8400, Note_on_c, 10, 76, 100
11, 8520, Note_on_c, 10, 76, 0
11, 8520, Note_on_c, 10, 73, 100
11, 8640, Note_on_c, 10, 73, 0
11, 8640, Note_on_c, 10, 69, 100
11, 8760, Note_on_c, 10, 69, 0
11, 8760, Note_on_c, 10, 64, 100
11, 8880, Note_on_c, 10, 64, 0
11, 8880, Note_on_c, 10, 61, 100
11, 9000, Note_on_c, 10, 61, 0
11, 9000, Note_on_c, 10, 57, 100
11, 9120, Note_on_c, 10, 57, 0
11, 9240, Note_on_c, 10, 53, 100
11, 9360, Note_on_c, 10, 53, 0
11, 9360, Note_on_c, 10, 53, 100
11, 9390, Note_on_c, 10, 53, 0
11, 9390, Note_on_c, 10, 57, 100
11, 9480, Note_on_c, 10, 57, 0
11, 9480, Note_on_c, 10, 53, 100
11, 9540, Note_on_c, 10, 53, 0
11, 9600, Note_on_c, 10, 53, 100
11, 9600, Note_on_c, 10, 57, 100
11, 9720, Note_on_c, 10, 57, 0
11, 9720, Note_on_c, 10, 53, 0
11, 9720, Note_on_c, 10, 57, 100
11, 9720, Note_on_c, 10, 53, 100
11, 9750, Note_on_c, 10, 53, 0
11, 9750, Note_on_c, 10, 57, 0
11, 9750, Note_on_c, 10, 57, 100
11, 9750, Note_on_c, 10, 60, 100
11, 9840, Note_on_c, 10, 60, 0
11, 9840, Note_on_c, 10, 57, 0
11, 9840, Note_on_c, 10, 53, 100
11, 9840, Note_on_c, 10, 57, 100
11, 9900, Note_on_c, 10, 57, 0
11, 9900, Note_on_c, 10, 53, 0
11, 9960, Note_on_c, 10, 60, 100
11, 9960, Note_on_c, 10, 57, 100
11, 10080, Note_on_c, 10, 57, 0
11, 10080, Note_on_c, 10, 60, 0
11, 10080, Note_on_c, 10, 53, 100
11, 10080, Note_on_c, 10, 57, 100
11, 10200, Note_on_c, 10, 57, 0
11, 10200, Note_on_c, 10, 53, 0
11, 10200, Note_on_c, 10, 53, 100
11, 10200, Note_on_c, 10, 57, 100
11, 10320, Note_on_c, 10, 57, 0
11, 10320, Note_on_c, 10, 53, 0
11, 10320, Note_on_c, 10, 60, 100
11, 10320, Note_on_c, 10, 57, 100
11, 10440, Note_on_c, 10, 57, 0
11, 10440, Note_on_c, 10, 60, 0
11, 10440, Note_on_c, 10, 53, 100
11, 10440, Note_on_c, 10, 57, 100
11, 10560, Note_on_c, 10, 57, 0
11, 10560, Note_on_c, 10, 53, 0
11, 10560, Note_on_c, 10, 53, 100
11, 10560, Note_on_c, 10, 57, 100
11, 10680, Note_on_c, 10, 57, 0
11, 10680, Note_on_c, 10, 53, 0
11, 10680, Note_on_c, 10, 60, 100
11, 10680, Note_on_c, 10, 57, 100
11, 10800, Note_on_c, 10, 57, 0
11, 10800, Note_on_c, 10, 60, 0
11, 10800, Note_on_c, 10, 53, 100
11, 10800, Note_on_c, 10, 57, 100
11, 10920, Note_on_c, 10, 57, 0
11, 10920, Note_on_c, 10, 53, 0
11, 10920, Note_on_c, 10, 53, 100
11, 10920, Note_on_c, 10, 57, 100
11, 11040, Note_on_c, 10, 57, 0
11, 11040, Note_on_c, 10, 53, 0
11, 11040, Note_on_c, 10, 57, 100
11, 11040, Note_on_c, 10, 60, 100
11, 11160, Note_on_c, 10, 60, 0
11, 11160, Note_on_c, 10, 57, 0
11, 11160, Note_on_c, 10, 48, 100
11, 11160, Note_on_c, 10, 55, 100
11, 11280, Note_on_c, 10, 55, 0
11, 11280, Note_on_c, 10, 48, 0
11, 11280, Note_on_c, 10, 48, 100
11, 11280, Note_on_c, 10, 55, 100
11, 11400, Note_on_c, 10, 55, 0
11, 11400, Note_on_c, 10, 48, 0
11, 11400, Note_on_c, 10, 48, 100
11, 11400, Note_on_c, 10, 60, 100
11, 11520, Note_on_c, 10, 60, 0
11, 11520, Note_on_c, 10, 48, 0
11, 11520, Note_on_c, 10, 55, 100
11, 11520, Note_on_c, 10, 48, 100
11, 11640, Note_on_c, 10, 48, 0
11, 11640, Note_on_c, 10, 55, 0
11, 11640, Note_on_c, 10, 55, 100
11, 11640, Note_on_c, 10, 48, 100
11, 11760, Note_on_c, 10, 48, 0
11, 11760, Note_on_c, 10, 55, 0
11, 11760, Note_on_c, 10, 60, 100
11, 11760, Note_on_c, 10, 48, 100
11, 11880, Note_on_c, 10, 48, 0
11, 11880, Note_on_c, 10, 60, 0
11, 11880, Note_on_c, 10, 55, 100
11, 11880, Note_on_c, 10, 48, 100
11, 12000, Note_on_c, 10, 48, 0
11, 12000, Note_on_c, 10, 55, 0
11, 12000, Note_on_c, 10, 55, 100
11, 12000, Note_on_c, 10, 48, 100
11, 12120, Note_on_c, 10, 48, 0
11, 12120, Note_on_c, 10, 55, 0
11, 12120, Note_on_c, 10, 60, 100
11, 12120, Note_on_c, 10, 48, 100
11, 12240, Note_on_c, 10, 48, 0
11, 12240, Note_on_c, 10, 60, 0
11, 12240, Note_on_c, 10, 48, 100
11, 12240, Note_on_c, 10, 55, 100
11, 12360, Note_on_c, 10, 55, 0
11, 12360, Note_on_c, 10, 48, 0
11, 12360, Note_on_c, 10, 48, 100
11, 12360, Note_on_c, 10, 55, 100
11, 12480, Note_on_c, 10, 55, 0
11, 12480, Note_on_c, 10, 48, 0
11, 12480, Note_on_c, 10, 48, 100
11, 12480, Note_on_c, 10, 60, 100
11, 12600, Note_on_c, 10, 60, 0
11, 12600, Note_on_c, 10, 48, 0
11, 12600, Note_on_c, 10, 57, 100
11, 12600, Note_on_c, 10, 53, 100
11, 12720, Note_on_c, 10, 53, 0
11, 12720, Note_on_c, 10, 57, 0
11, 12720, Note_on_c, 10, 57, 100
11, 12720, Note_on_c, 10, 53, 100
11, 12840, Note_on_c, 10, 53, 0
11, 12840, Note_on_c, 10, 57, 0
11, 12840, Note_on_c, 10, 60, 100
11, 12840, Note_on_c, 10, 57, 100
11, 12960, Note_on_c, 10, 57, 0
11, 12960, Note_on_c, 10, 60, 0
11, 12960, Note_on_c, 10, 48, 100
11, 13080, Note_on_c, 10, 48, 0
11, 13080, Note_on_c, 10, 60, 100
11, 13200, Note_on_c, 10, 60, 0
11, 13200, Note_on_c, 10, 60, 100
11, 13320, Note_on_c, 10, 60, 0
11, 13320, Note_on_c, 10, 60, 100
11, 13560, Note_on_c, 10, 60, 0
11, 13560, Note_on_c, 10, 60, 100
11, 13680, Note_on_c, 10, 60, 0
11, 13680, Note_on_c, 10, 48, 100
11, 13800, Note_on_c, 10, 48, 0
11, 13800, Note_on_c, 10, 60, 100
11, 13920, Note_on_c, 10, 60, 0
11, 13920, Note_on_c, 10, 60, 100
11, 14040, Note_on_c, 10, 60, 0
11, 14040, Note_on_c, 10, 60, 100
11, 14280, Note_on_c, 10, 60, 0
11, 14280, Note_on_c, 10, 60, 100
11, 14400, Note_on_c, 10, 60, 0
11, 14400, Note_on_c, 10, 62, 100
11, 14640, Note_on_c, 10, 62, 0
11, 14640, Note_on_c, 10, 64, 100
11, 14760, Note_on_c, 10, 64, 0
11, 14760, Note_on_c, 10, 68, 100
11, 15000, Note_on_c, 10, 68, 0
11, 15000, Note_on_c, 10, 69, 100
11, 15120, Note_on_c, 10, 69, 0
11, 15120, Note_on_c, 10, 59, 100
11, 15120, Note_on_c, 10, 62, 100
11, 15240, Note_on_c, 10, 62, 0
11, 15240, Note_on_c, 10, 59, 0
11, 15240, Note_on_c, 10, 64, 100
11, 15240, Note_on_c, 10, 62, 100
11, 15360, Note_on_c, 10, 62, 0
11, 15360, Note_on_c, 10, 64, 0
11, 15360, Note_on_c, 10, 64, 100
11, 15360, Note_on_c, 10, 62, 100
11, 15480, Note_on_c, 10, 62, 0
11, 15480, Note_on_c, 10, 64, 0
11, 15480, Note_on_c, 10, 57, 100
11, 15480, Note_on_c, 10, 61, 100
11, 15600, Note_on_c, 10, 61, 0
11, 15600, Note_on_c, 10, 57, 0
11, 15600, Note_on_c, 10, 64, 100
11, 15600, Note_on_c, 10, 61, 100
11, 15720, Note_on_c, 10, 61, 0
11, 15720, Note_on_c, 10, 64, 0
11, 15720, Note_on_c, 10, 64, 100
11, 15720, Note_on_c, 10, 61, 100
11, 15840, Note_on_c, 10, 61, 0
11, 15840, Note_on_c, 10, 64, 0
11, 15840, Note_on_c, 10, 56, 100
11, 15840, Note_on_c, 10, 59, 100
11, 15960, Note_on_c, 10, 59, 0
11, 15960, Note_on_c, 10, 56, 0
11, 15960, Note_on_c, 10, 64, 100
11, 15960, Note_on_c, 10, 59, 100
11, 16080, Note_on_c, 10, 59, 0
11, 16080, Note_on_c, 10, 64, 0
11, 16080, Note_on_c, 10, 64, 100
11, 16080, Note_on_c, 10, 59, 100
11, 16200, Note_on_c, 10, 59, 0
11, 16200, Note_on_c, 10, 64, 0
11, 16200, Note_on_c, 10, 57, 100
11, 16200, Note_on_c, 10, 61, 100
11, 16320, Note_on_c, 10, 61, 0
11, 16320, Note_on_c, 10, 57, 0
11, 16320, Note_on_c, 10, 64, 100
11, 16320, Note_on_c, 10, 61, 100
11, 16440, Note_on_c, 10, 61, 0
11, 16440, Note_on_c, 10, 64, 0
11, 16440, Note_on_c, 10, 64, 100
11, 16440, Note_on_c, 10, 61, 100
11, 16560, Note_on_c, 10, 61, 0
11, 16560, Note_on_c, 10, 64, 0
11, 16560, Note_on_c, 10, 59, 100
11, 16560, Note_on_c, 10, 62, 100
11, 16680, Note_on_c, 10, 62, 0
11, 16680, Note_on_c, 10, 59, 0
11, 16680, Note_on_c, 10, 64, 100
11, 16680, Note_on_c, 10, 62, 100
11, 16800, Note_on_c, 10, 62, 0
11, 16800, Note_on_c, 10, 64, 0
11, 16800, Note_on_c, 10, 64, 100
11, 16800, Note_on_c, 10, 62, 100
11, 16920, Note_on_c, 10, 62, 0
11, 16920, Note_on_c, 10, 64, 0
11, 16920, Note_on_c, 10, 61, 100
11, 16920, Note_on_c, 10, 57, 100
11, 17040, Note_on_c, 10, 57, 0
11, 17040, Note_on_c, 10, 61, 0
11, 17040, Note_on_c, 10, 76, 100
11, 17160, Note_on_c, 10, 76, 0
11, 17160, Note_on_c, 10, 73, 100
11, 17280, Note_on_c, 10, 73, 0
11, 17280, Note_on_c, 10, 69, 100
11, 17400, Note_on_c, 10, 69, 0
11, 17400, Note_on_c, 10, 64, 100
11, 17520, Note_on_c, 10, 64, 0
11, 17520, Note_on_c, 10, 61, 100
11, 17640, Note_on_c, 10, 61, 0
11, 17640, Note_on_c, 10, 57, 100
11, 17760, Note_on_c, 10, 57, 0
11, 18240, Note_on_c, 10, 57, 100
11, 18360, Note_on_c, 10, 57, 0
11, 18360, Note_on_c, 10, 57, 100
11, 18390, Note_on_c, 10, 57, 0
11, 18390, Note_on_c, 10, 61, 100
11, 18480, Note_on_c, 10, 61, 0
11, 18480, Note_on_c, 10, 57, 100
11, 18540, Note_on_c, 10, 57, 0
11, 22320, Note_on_c, 10, 64, 100
11, 22560, Note_on_c, 10, 64, 0
11, 22560, Note_on_c, 10, 62, 100
11, 22680, Note_on_c, 10, 62, 0
11, 22680, Note_on_c, 10, 64, 100
11, 22920, Note_on_c, 10, 64, 0
11, 22920, Note_on_c, 10, 62, 100
11, 23040, Note_on_c, 10, 62, 0
11, 23040, Note_on_c, 10, 64, 100
11, 23280, Note_on_c, 10, 64, 0
11, 23280, Note_on_c, 10, 62, 100
11, 23400, Note_on_c, 10, 62, 0
11, 23400, Note_on_c, 10, 64, 100
11, 23640, Note_on_c, 10, 64, 0
11, 23640, Note_on_c, 10, 62, 100
11, 23760, Note_on_c, 10, 62, 0
11, 24720, Note_on_c, 10, 62, 100
11, 24840, Note_on_c, 10, 62, 0
11, 24840, Note_on_c, 10, 65, 100
11, 24960, Note_on_c, 10, 65, 0
11, 24960, Note_on_c, 10, 62, 100
11, 25020, Note_on_c, 10, 62, 0
11, 28080, Note_on_c, 10, 67, 100
11, 28320, Note_on_c, 10, 67, 0
11, 28320, Note_on_c, 10, 65, 100
11, 28440, Note_on_c, 10, 65, 0
11, 28440, Note_on_c, 10, 67, 100
11, 28680, Note_on_c, 10, 67, 0
11, 28680, Note_on_c, 10, 65, 100
11, 28800, Note_on_c, 10, 65, 0
11, 28800, Note_on_c, 10, 67, 100
11, 29040, Note_on_c, 10, 67, 0
11, 29040, Note_on_c, 10, 65, 100
11, 29160, Note_on_c, 10, 65, 0
11, 29160, Note_on_c, 10, 67, 100
11, 29400, Note_on_c, 10, 67, 0
11, 29400, Note_on_c, 10, 65, 100
11, 29520, Note_on_c, 10, 65, 0
11, 29520, Note_on_c, 10, 60, 100
11, 30480, Note_on_c, 10, 60, 0
11, 30480, Note_on_c, 10, 60, 100
11, 30600, Note_on_c, 10, 60, 0
11, 30600, Note_on_c, 10, 63, 100
11, 30720, Note_on_c, 10, 63, 0
11, 30720, Note_on_c, 10, 60, 100
11, 30780, Note_on_c, 10, 60, 0
11, 30840, Note_on_c, 10, 65, 100
11, 30960, Note_on_c, 10, 65, 0
11, 30960, Note_on_c, 10, 67, 100
11, 31080, Note_on_c, 10, 67, 0
11, 31080, Note_on_c, 10, 67, 100
11, 31200, Note_on_c, 10, 67, 0
11, 31200, Note_on_c, 10, 65, 100
11, 31320, Note_on_c, 10, 65, 0
11, 31320, Note_on_c, 10, 63, 100
11, 31560, Note_on_c, 10, 63, 0
11, 31560, Note_on_c, 10, 62, 100
11, 31680, Note_on_c, 10, 62, 0
11, 31680, Note_on_c, 10, 67, 100
11, 31800, Note_on_c, 10, 67, 0
11, 31800, Note_on_c, 10, 67, 100
11, 31920, Note_on_c, 10, 67, 0
11, 31920, Note_on_c, 10, 65, 100
11, 32040, Note_on_c, 10, 65, 0
11, 32040, Note_on_c, 10, 65, 100
11, 32160, Note_on_c, 10, 65, 0
11, 32160, Note_on_c, 10, 62, 100
11, 32220, Note_on_c, 10, 62, 0
11, 32280, Note_on_c, 10, 65, 100
11, 32400, Note_on_c, 10, 65, 0
11, 32400, Note_on_c, 10, 58, 100
11, 32520, Note_on_c, 10, 58, 0
11, 32520, Note_on_c, 10, 62, 100
11, 32640, Note_on_c, 10, 62, 0
11, 32640, Note_on_c, 10, 62, 100
11, 32760, Note_on_c, 10, 62, 0
11, 32760, Note_on_c, 10, 58, 100
11, 32880, Note_on_c, 10, 58, 0
11, 32880, Note_on_c, 10, 62, 100
11, 33000, Note_on_c, 10, 62, 0
11, 33000, Note_on_c, 10, 62, 100
11, 33120, Note_on_c, 10, 62, 0
11, 33120, Note_on_c, 10, 58, 100
11, 33240, Note_on_c, 10, 58, 0
11, 33240, Note_on_c, 10, 62, 100
11, 33360, Note_on_c, 10, 62, 0
11, 33360, Note_on_c, 10, 62, 100
11, 33480, Note_on_c, 10, 62, 0
11, 33480, Note_on_c, 10, 58, 100
11, 33600, Note_on_c, 10, 58, 0
11, 33600, Note_on_c, 10, 62, 100
11, 33720, Note_on_c, 10, 62, 0
11, 33720, Note_on_c, 10, 62, 100
11, 33840, Note_on_c, 10, 62, 0
11, 33840, Note_on_c, 10, 53, 100
11, 33960, Note_on_c, 10, 53, 0
11, 33960, Note_on_c, 10, 53, 100
11, 34080, Note_on_c, 10, 53, 0
11, 34080, Note_on_c, 10, 60, 100
11, 34200, Note_on_c, 10, 60, 0
11, 34200, Note_on_c, 10, 53, 100
11, 34320, Note_on_c, 10, 53, 0
11, 34320, Note_on_c, 10, 53, 100
11, 34440, Note_on_c, 10, 53, 0
11, 34440, Note_on_c, 10, 60, 100
11, 34560, Note_on_c, 10, 60, 0
11, 34560, Note_on_c, 10, 53, 100
11, 34680, Note_on_c, 10, 53, 0
11, 34680, Note_on_c, 10, 53, 100
11, 34800, Note_on_c, 10, 53, 0
11, 34800, Note_on_c, 10, 60, 100
11, 34920, Note_on_c, 10, 60, 0
11, 34920, Note_on_c, 10, 53, 100
11, 35040, Note_on_c, 10, 53, 0
11, 35040, Note_on_c, 10, 53, 100
11, 35160, Note_on_c, 10, 53, 0
11, 35160, Note_on_c, 10, 60, 100
11, 35280, Note_on_c, 10, 60, 0
11, 35280, Note_on_c, 10, 53, 100
11, 35400, Note_on_c, 10, 53, 0
11, 35400, Note_on_c, 10, 53, 100
11, 35520, Note_on_c, 10, 53, 0
11, 35520, Note_on_c, 10, 53, 100
11, 35640, Note_on_c, 10, 53, 0
11, 35640, Note_on_c, 10, 50, 100
11, 35640, Note_on_c, 10, 53, 100
11, 35760, Note_on_c, 10, 53, 0
11, 35760, Note_on_c, 10, 50, 0
11, 35760, Note_on_c, 10, 50, 100
11, 35760, Note_on_c, 10, 53, 100
11, 35880, Note_on_c, 10, 53, 0
11, 35880, Note_on_c, 10, 50, 0
11, 35880, Note_on_c, 10, 58, 100
11, 35880, Note_on_c, 10, 53, 100
11, 36000, Note_on_c, 10, 53, 0
11, 36000, Note_on_c, 10, 58, 0
11, 36000, Note_on_c, 10, 50, 100
11, 36000, Note_on_c, 10, 53, 100
11, 36120, Note_on_c, 10, 53, 0
11, 36120, Note_on_c, 10, 50, 0
11, 36120, Note_on_c, 10, 50, 100
11, 36120, Note_on_c, 10, 53, 100
11, 36240, Note_on_c, 10, 53, 0
11, 36240, Note_on_c, 10, 50, 0
11, 36240, Note_on_c, 10, 53, 100
11, 36240, Note_on_c, 10, 58, 100
11, 36360, Note_on_c, 10, 58, 0
11, 36360, Note_on_c, 10, 53, 0
11, 36360, Note_on_c, 10, 50, 100
11, 36360, Note_on_c, 10, 53, 100
11, 36480, Note_on_c, 10, 53, 0
11, 36480, Note_on_c, 10, 50, 0
11, 36480, Note_on_c, 10, 50, 100
11, 36480, Note_on_c, 10, 53, 100
11, 36600, Note_on_c, 10, 53, 0
11, 36600, Note_on_c, 10, 50, 0
11, 36600, Note_on_c, 10, 53, 100
11, 36600, Note_on_c, 10, 58, 100
11, 36720, Note_on_c, 10, 58, 0
11, 36720, Note_on_c, 10, 53, 0
11, 36720, Note_on_c, 10, 53, 100
11, 36720, Note_on_c, 10, 60, 100
11, 36840, Note_on_c, 10, 60, 0
11, 36840, Note_on_c, 10, 53, 0
11, 36840, Note_on_c, 10, 53, 100
11, 36840, Note_on_c, 10, 60, 100
11, 36960, Note_on_c, 10, 60, 0
11, 36960, Note_on_c, 10, 53, 0
11, 36960, Note_on_c, 10, 53, 100
11, 36960, Note_on_c, 10, 60, 100
11, 37080, Note_on_c, 10, 60, 0
11, 37080, Note_on_c, 10, 53, 0
11, 37080, Note_on_c, 10, 53, 100
11, 37080, Note_on_c, 10, 57, 100
11, 37200, Note_on_c, 10, 57, 0
11, 37200, Note_on_c, 10, 53, 0
11, 37200, Note_on_c, 10, 53, 100
11, 37200, Note_on_c, 10, 57, 100
11, 37320, Note_on_c, 10, 57, 0
11, 37320, Note_on_c, 10, 53, 0
11, 37320, Note_on_c, 10, 60, 100
11, 37320, Note_on_c, 10, 57, 100
11, 37440, Note_on_c, 10, 57, 0
11, 37440, Note_on_c, 10, 60, 0
11, 37440, Note_on_c, 10, 53, 100
11, 37440, Note_on_c, 10, 57, 100
11, 37560, Note_on_c, 10, 57, 0
11, 37560, Note_on_c, 10, 53, 0
11, 37560, Note_on_c, 10, 53, 100
11, 37560, Note_on_c, 10, 57, 100
11, 37680, Note_on_c, 10, 57, 0
11, 37680, Note_on_c, 10, 53, 0
11, 37680, Note_on_c, 10, 60, 100
11, 37680, Note_on_c, 10, 57, 100
11, 37800, Note_on_c, 10, 57, 0
11, 37800, Note_on_c, 10, 60, 0
11, 37800, Note_on_c, 10, 53, 100
11, 37800, Note_on_c, 10, 57, 100
11, 37920, Note_on_c, 10, 57, 0
11, 37920, Note_on_c, 10, 53, 0
11, 37920, Note_on_c, 10, 53, 100
11, 37920, Note_on_c, 10, 57, 100
11, 38040, Note_on_c, 10, 57, 0
11, 38040, Note_on_c, 10, 53, 0
11, 38040, Note_on_c, 10, 60, 100
11, 38040, Note_on_c, 10, 57, 100
11, 38160, Note_on_c, 10, 57, 0
11, 38160, Note_on_c, 10, 60, 0
11, 38160, Note_on_c, 10, 53, 100
11, 38160, Note_on_c, 10, 58, 100
11, 38280, Note_on_c, 10, 58, 0
11, 38280, Note_on_c, 10, 53, 0
11, 38280, Note_on_c, 10, 53, 100
11, 38280, Note_on_c, 10, 58, 100
11, 38400, Note_on_c, 10, 58, 0
11, 38400, Note_on_c, 10, 53, 0
11, 38400, Note_on_c, 10, 58, 100
11, 38400, Note_on_c, 10, 62, 100
11, 38520, Note_on_c, 10, 62, 0
11, 38520, Note_on_c, 10, 58, 0
11, 38880, Note_on_c, 10, 65, 100
11, 39000, Note_on_c, 10, 65, 0
11, 39000, Note_on_c, 10, 65, 100
11, 39120, Note_on_c, 10, 65, 0
11, 39120, Note_on_c, 10, 64, 100
11, 39240, Note_on_c, 10, 64, 0
11, 39240, Note_on_c, 10, 62, 100
11, 39360, Note_on_c, 10, 62, 0
11, 39360, Note_on_c, 10, 62, 100
11, 39480, Note_on_c, 10, 62, 0
11, 39480, Note_on_c, 10, 60, 100
11, 39600, Note_on_c, 10, 60, 0
11, 39600, Note_on_c, 10, 58, 100
11, 39720, Note_on_c, 10, 58, 0
11, 39720, Note_on_c, 10, 58, 100
11, 39840, Note_on_c, 10, 58, 0
11, 39840, Note_on_c, 10, 57, 100
11, 39960, Note_on_c, 10, 57, 0
11, 39960, Note_on_c, 10, 55, 100
11, 40080, Note_on_c, 10, 55, 0
11, 40080, Note_on_c, 10, 55, 100
11, 40200, Note_on_c, 10, 55, 0
11, 40200, Note_on_c, 10, 53, 100
11, 40320, Note_on_c, 10, 53, 0
11, 40320, Note_on_c, 10, 52, 100
11, 40440, Note_on_c, 10, 52, 0
11, 40440, Note_on_c, 10, 52, 100
11, 40560, Note_on_c, 10, 52, 0
11, 40560, Note_on_c, 10, 50, 100
11, 40680, Note_on_c, 10, 50, 0
11, 40680, Note_on_c, 10, 48, 100
11, 40800, Note_on_c, 10, 48, 0
11, 40800, Note_on_c, 10, 58, 100
11, 40920, Note_on_c, 10, 58, 0
11, 40920, Note_on_c, 10, 57, 100
11, 41040, Note_on_c, 10, 57, 0
11, 41040, Note_on_c, 10, 57, 100
11, 41160, Note_on_c, 10, 57, 0
11, 41160, Note_on_c, 10, 53, 100
11, 41220, Note_on_c, 10, 53, 0
11, 41280, Note_on_c, 10, 57, 100
11, 41400, Note_on_c, 10, 57, 0
11, 41400, Note_on_c, 10, 57, 100
11, 41430, Note_on_c, 10, 57, 0
11, 41430, Note_on_c, 10, 60, 100
11, 41430, Note_on_c, 10, 57, 100
11, 41520, Note_on_c, 10, 57, 0
11, 41520, Note_on_c, 10, 60, 0
11, 41520, Note_on_c, 10, 53, 100
11, 41520, Note_on_c, 10, 57, 100
11, 41580, Note_on_c, 10, 57, 0
11, 41580, Note_on_c, 10, 53, 0
11, 41640, Note_on_c, 10, 60, 100
11, 41640, Note_on_c, 10, 57, 100
11, 41760, Note_on_c, 10, 57, 0
11, 41760, Note_on_c, 10, 60, 0
11, 41760, Note_on_c, 10, 53, 100
11, 42960, Note_on_c, 10, 53, 0
11, 42960, Note_on_c, 10, 52, 100
11, 43080, Note_on_c, 10, 52, 0
11, 43080, Note_on_c, 10, 52, 100
11, 43200, Note_on_c, 10, 52, 0
11, 43200, Note_on_c, 10, 52, 100
11, 44400, Note_on_c, 10, 52, 0
11, 44400, Note_on_c, 10, 53, 100
11, 44520, Note_on_c, 10, 53, 0
11, 44520, Note_on_c, 10, 53, 100
11, 44640, Note_on_c, 10, 53, 0
11, 44640, Note_on_c, 10, 57, 100
11, 44640, Note_on_c, 10, 65, 100
11, 45840, Note_on_c, 10, 65, 0
11, 45840, Note_on_c, 10, 57, 0
11, 45840, Note_on_c, 10, 60, 100
11, 45840, Note_on_c, 10, 67, 100
11, 45960, Note_on_c, 10, 67, 0
11, 45960, Note_on_c, 10, 60, 0
11, 45960, Note_on_c, 10, 60, 100
11, 45960, Note_on_c, 10, 67, 100
11, 46080, Note_on_c, 10, 67, 0
11, 46080, Note_on_c, 10, 60, 0
11, 46080, Note_on_c, 10, 60, 100
11, 46080, Note_on_c, 10, 67, 100
11, 47280, Note_on_c, 10, 67, 0
11, 47280, Note_on_c, 10, 60, 0
11, 47280, Note_on_c, 10, 65, 100
11, 47280, Note_on_c, 10, 69, 100
11, 47400, Note_on_c, 10, 69, 0
11, 47400, Note_on_c, 10, 65, 0
11, 47400, Note_on_c, 10, 65, 100
11, 47400, Note_on_c, 10, 69, 100
11, 47520, Note_on_c, 10, 69, 0
11, 47520, Note_on_c, 10, 65, 0
11, 47520, Note_on_c, 10, 60, 100
11, 47640, Note_on_c, 10, 60, 0
11, 47640, Note_on_c, 10, 60, 100
11, 47760, Note_on_c, 10, 60, 0
11, 47760, Note_on_c, 10, 60, 100
11, 47880, Note_on_c, 10, 60, 0
11, 47880, Note_on_c, 10, 60, 100
11, 48120, Note_on_c, 10, 60, 0
11, 48120, Note_on_c, 10, 60, 100
11, 48240, Note_on_c, 10, 60, 0
11, 48960, Note_on_c, 10, 60, 100
11, 49080, Note_on_c, 10, 60, 0
11, 49080, Note_on_c, 10, 60, 100
11, 49200, Note_on_c, 10, 60, 0
11, 49200, Note_on_c, 10, 60, 100
11, 49320, Note_on_c, 10, 60, 0
11, 49320, Note_on_c, 10, 60, 100
11, 49560, Note_on_c, 10, 60, 0
11, 49560, Note_on_c, 10, 60, 100
11, 49680, Note_on_c, 10, 60, 0
11, 49680, Note_on_c, 10, 58, 100
11, 49920, Note_on_c, 10, 58, 0
11, 49920, Note_on_c, 10, 65, 100
11, 50040, Note_on_c, 10, 65, 0
11, 50040, Note_on_c, 10, 53, 100
11, 50280, Note_on_c, 10, 53, 0
11, 50280, Note_on_c, 10, 60, 100
11, 50400, Note_on_c, 10, 60, 0
11, 50400, Note_on_c, 10, 60, 100
11, 50640, Note_on_c, 10, 60, 0
11, 50640, Note_on_c, 10, 67, 100
11, 50760, Note_on_c, 10, 67, 0
11, 50760, Note_on_c, 10, 67, 100
11, 51000, Note_on_c, 10, 67, 0
11, 51000, Note_on_c, 10, 67, 100
11, 51120, Note_on_c, 10, 67, 0
11, 51120, Note_on_c, 10, 62, 100
11, 51240, Note_on_c, 10, 62, 0
11, 51240, Note_on_c, 10, 62, 100
11, 51360, Note_on_c, 10, 62, 0
11, 51360, Note_on_c, 10, 65, 100
11, 51480, Note_on_c, 10, 65, 0
11, 51480, Note_on_c, 10, 60, 100
11, 51600, Note_on_c, 10, 60, 0
11, 51600, Note_on_c, 10, 60, 100
11, 51720, Note_on_c, 10, 60, 0
11, 51720, Note_on_c, 10, 64, 100
11, 51840, Note_on_c, 10, 64, 0
11, 51840, Note_on_c, 10, 59, 100
11, 51960, Note_on_c, 10, 59, 0
11, 51960, Note_on_c, 10, 59, 100
11, 52080, Note_on_c, 10, 59, 0
11, 52080, Note_on_c, 10, 62, 100
11, 52200, Note_on_c, 10, 62, 0
11, 52200, Note_on_c, 10, 60, 100
11, 52320, Note_on_c, 10, 60, 0
11, 52320, Note_on_c, 10, 60, 100
11, 52440, Note_on_c, 10, 60, 0
11, 52440, Note_on_c, 10, 64, 100
11, 52560, Note_on_c, 10, 64, 0
11, 52560, Note_on_c, 10, 62, 100
11, 52680, Note_on_c, 10, 62, 0
11, 52680, Note_on_c, 10, 62, 100
11, 52800, Note_on_c, 10, 62, 0
11, 52800, Note_on_c, 10, 65, 100
11, 52920, Note_on_c, 10, 65, 0
11, 52920, Note_on_c, 10, 60, 100
11, 53040, Note_on_c, 10, 60, 0
11, 53040, Note_on_c, 10, 64, 100
11, 53160, Note_on_c, 10, 64, 0
11, 53160, Note_on_c, 10, 64, 100
11, 53280, Note_on_c, 10, 64, 0
11, 53280, Note_on_c, 10, 62, 100
11, 53400, Note_on_c, 10, 62, 0
11, 53400, Note_on_c, 10, 62, 100
11, 53520, Note_on_c, 10, 62, 0
11, 53520, Note_on_c, 10, 65, 100
11, 53640, Note_on_c, 10, 65, 0
11, 53640, Note_on_c, 10, 60, 100
11, 53760, Note_on_c, 10, 60, 0
11, 53760, Note_on_c, 10, 60, 100
11, 53880, Note_on_c, 10, 60, 0
11, 53880, Note_on_c, 10, 64, 100
11, 54000, Note_on_c, 10, 64, 0
11, 54000, Note_on_c, 10, 58, 100
11, 54030, Note_on_c, 10, 58, 0
11, 54030, Note_on_c, 10, 60, 100
11, 54060, Note_on_c, 10, 60, 0
11, 54060, Note_on_c, 10, 58, 100
11, 54090, Note_on_c, 10, 58, 0
11, 54090, Note_on_c, 10, 60, 100
11, 54120, Note_on_c, 10, 60, 0
11, 54120, Note_on_c, 10, 58, 100
11, 54150, Note_on_c, 10, 58, 0
11, 54150, Note_on_c, 10, 60, 100
11, 54180, Note_on_c, 10, 60, 0
11, 54180, Note_on_c, 10, 58, 100
11, 54210, Note_on_c, 10, 58, 0
11, 54210, Note_on_c, 10, 60, 100
11, 54240, Note_on_c, 10, 60, 0
11, 54240, Note_on_c, 10, 58, 100
11, 54270, Note_on_c, 10, 58, 0
11, 54270, Note_on_c, 10, 60, 100
11, 54300, Note_on_c, 10, 60, 0
11, 54300, Note_on_c, 10, 57, 100
11, 54330, Note_on_c, 10, 57, 0
11, 54330, Note_on_c, 10, 58, 100
11, 54360, Note_on_c, 10, 58, 0
11, 54360, Note_on_c, 10, 57, 100
11, 54480, Note_on_c, 10, 57, 0
11, 54480, Note_on_c, 10, 60, 100
11, 54480, Note_on_c, 10, 57, 100
11, 54600, Note_on_c, 10, 57, 0
11, 54600, Note_on_c, 10, 60, 0
11, 54600, Note_on_c, 10, 53, 100
11, 54600, Note_on_c, 10, 57, 100
11, 54720, Note_on_c, 10, 57, 0
11, 54720, Note_on_c, 10, 53, 0
11, 54720, Note_on_c, 10, 58, 100
11, 54750, Note_on_c, 10, 58, 0
11, 54750, Note_on_c, 10, 60, 100
11, 54780, Note_on_c, 10, 60, 0
11, 54780, Note_on_c, 10, 58, 100
11, 54810, Note_on_c, 10, 58, 0
11, 54810, Note_on_c, 10, 60, 100
11, 54840, Note_on_c, 10, 60, 0
11, 54840, Note_on_c, 10, 58, 100
11, 54870, Note_on_c, 10, 58, 0
11, 54870, Note_on_c, 10, 60, 100
11, 54900, Note_on_c, 10, 60, 0
11, 54900, Note_on_c, 10, 58, 100
11, 54930, Note_on_c, 10, 58, 0
11, 54930, Note_on_c, 10, 60, 100
11, 54960, Note_on_c, 10, 60, 0
11, 54960, Note_on_c, 10, 58, 100
11, 54990, Note_on_c, 10, 58, 0
11, 54990, Note_on_c, 10, 60, 100
11, 55020, Note_on_c, 10, 60, 0
11, 55020, Note_on_c, 10, 57, 100
11, 55050, Note_on_c, 10, 57, 0
11, 55050, Note_on_c, 10, 58, 100
11, 55080, Note_on_c, 10, 58, 0
11, 55080, Note_on_c, 10, 53, 100
11, 55080, Note_on_c, 10, 57, 100
11, 55200, Note_on_c, 10, 57, 0
11, 55200, Note_on_c, 10, 53, 0
11, 55200, Note_on_c, 10, 60, 100
11, 55200, Note_on_c, 10, 57, 100
11, 55320, Note_on_c, 10, 57, 0
11, 55320, Note_on_c, 10, 60, 0
11, 55320, Note_on_c, 10, 53, 100
11, 55320, Note_on_c, 10, 57, 100
11, 55440, Note_on_c, 10, 57, 0
11, 55440, Note_on_c, 10, 53, 0
11, 55440, Note_on_c, 10, 58, 100
11, 55470, Note_on_c, 10, 58, 0
11, 55470, Note_on_c, 10, 60, 100
11, 55500, Note_on_c, 10, 60, 0
11, 55500, Note_on_c, 10, 58, 100
11, 55530, Note_on_c, 10, 58, 0
11, 55530, Note_on_c, 10, 60, 100
11, 55560, Note_on_c, 10, 60, 0
11, 55560, Note_on_c, 10, 58, 100
11, 55590, Note_on_c, 10, 58, 0
11, 55590, Note_on_c, 10, 60, 100
11, 55620, Note_on_c, 10, 60, 0
11, 55620, Note_on_c, 10, 58, 100
11, 55650, Note_on_c, 10, 58, 0
11, 55650, Note_on_c, 10, 60, 100
11, 55680, Note_on_c, 10, 60, 0
11, 55680, Note_on_c, 10, 58, 100
11, 55710, Note_on_c, 10, 58, 0
11, 55710, Note_on_c, 10, 60, 100
11, 55740, Note_on_c, 10, 60, 0
11, 55740, Note_on_c, 10, 57, 100
11, 55770, Note_on_c, 10, 57, 0
11, 55770, Note_on_c, 10, 58, 100
11, 55800, Note_on_c, 10, 58, 0
11, 55800, Note_on_c, 10, 57, 100
11, 55920, Note_on_c, 10, 57, 0
11, 55920, Note_on_c, 10, 60, 100
11, 55920, Note_on_c, 10, 57, 100
11, 56040, Note_on_c, 10, 57, 0
11, 56040, Note_on_c, 10, 60, 0
11, 56040, Note_on_c, 10, 53, 100
11, 56040, Note_on_c, 10, 57, 100
11, 56160, Note_on_c, 10, 57, 0
11, 56160, Note_on_c, 10, 53, 0
11, 56160, Note_on_c, 10, 58, 100
11, 56190, Note_on_c, 10, 58, 0
11, 56190, Note_on_c, 10, 60, 100
11, 56220, Note_on_c, 10, 60, 0
11, 56220, Note_on_c, 10, 58, 100
11, 56250, Note_on_c, 10, 58, 0
11, 56250, Note_on_c, 10, 60, 100
11, 56280, Note_on_c, 10, 60, 0
11, 56280, Note_on_c, 10, 58, 100
11, 56310, Note_on_c, 10, 58, 0
11, 56310, Note_on_c, 10, 60, 100
11, 56340, Note_on_c, 10, 60, 0
11, 56340, Note_on_c, 10, 58, 100
11, 56370, Note_on_c, 10, 58, 0
11, 56370, Note_on_c, 10, 60, 100
11, 56400, Note_on_c, 10, 60, 0
11, 56400, Note_on_c, 10, 58, 100
11, 56430, Note_on_c, 10, 58, 0
11, 56430, Note_on_c, 10, 60, 100
11, 56460, Note_on_c, 10, 60, 0
11, 56460, Note_on_c, 10, 57, 100
11, 56490, Note_on_c, 10, 57, 0
11, 56490, Note_on_c, 10, 58, 100
11, 56520, Note_on_c, 10, 58, 0
11, 56520, Note_on_c, 10, 57, 100
11, 56640, Note_on_c, 10, 57, 0
11, 56640, Note_on_c, 10, 60, 100
11, 56640, Note_on_c, 10, 57, 100
11, 56760, Note_on_c, 10, 57, 0
11, 56760, Note_on_c, 10, 60, 0
11, 56760, Note_on_c, 10, 53, 100
11, 56760, Note_on_c, 10, 57, 100
11, 56880, Note_on_c, 10, 57, 0
11, 56880, Note_on_c, 10, 53, 0
11, 56880, Note_on_c, 10, 58, 100
11, 56910, Note_on_c, 10, 58, 0
11, 56910, Note_on_c, 10, 60, 100
11, 56940, Note_on_c, 10, 60, 0
11, 56940, Note_on_c, 10, 58, 100
11, 56970, Note_on_c, 10, 58, 0
11, 56970, Note_on_c, 10, 60, 100
11, 57000, Note_on_c, 10, 60, 0
11, 57000, Note_on_c, 10, 58, 100
11, 57030, Note_on_c, 10, 58, 0
11, 57030, Note_on_c, 10, 60, 100
11, 57060, Note_on_c, 10, 60, 0
11, 57060, Note_on_c, 10, 58, 100
11, 57090, Note_on_c, 10, 58, 0
11, 57090, Note_on_c, 10, 60, 100
11, 57120, Note_on_c, 10, 60, 0
11, 57120, Note_on_c, 10, 58, 100
11, 57150, Note_on_c, 10, 58, 0
11, 57150, Note_on_c, 10, 60, 100
11, 57180, Note_on_c, 10, 60, 0
11, 57180, Note_on_c, 10, 57, 100
11, 57210, Note_on_c, 10, 57, 0
11, 57210, Note_on_c, 10, 58, 100
11, 57240, Note_on_c, 10, 58, 0
11, 57240, Note_on_c, 10, 57, 100
11, 57360, Note_on_c, 10, 57, 0
11, 57360, Note_on_c, 10, 72, 100
11, 57480, Note_on_c, 10, 72, 0
11, 57480, Note_on_c, 10, 69, 100
11, 57600, Note_on_c, 10, 69, 0
11, 57600, Note_on_c, 10, 65, 100
11, 57720, Note_on_c, 10, 65, 0
11, 57720, Note_on_c, 10, 60, 100
11, 57840, Note_on_c, 10, 60, 0
11, 57840, Note_on_c, 10, 57, 100
11, 57960, Note_on_c, 10, 57, 0
11, 57960, Note_on_c, 10, 53, 100
11, 58080, Note_on_c, 10, 53, 0
11, 58560, Note_on_c, 10, 53, 100
11, 58680, Note_on_c, 10, 53, 0
11, 58680, Note_on_c, 10, 53, 100
11, 58710, Note_on_c, 10, 53, 0
11, 58710, Note_on_c, 10, 57, 100
11, 58800, Note_on_c, 10, 57, 0
11, 58800, Note_on_c, 10, 53, 100
11, 58860, Note_on_c, 10, 53, 0
11, 59640, Note_on_c, 10, 53, 100
11, 59760, Note_on_c, 10, 53, 0
11, 59760, Note_on_c, 10, 53, 100
11, 59790, Note_on_c, 10, 53, 0
11, 59790, Note_on_c, 10, 57, 100
11, 59880, Note_on_c, 10, 57, 0
11, 59880, Note_on_c, 10, 53, 100
11, 59940, Note_on_c, 10, 53, 0
11, 60000, Note_on_c, 10, 53, 100
11, 60120, Note_on_c, 10, 53, 0
11, 60120, Note_on_c, 10, 53, 100
11, 60150, Note_on_c, 10, 53, 0
11, 60150, Note_on_c, 10, 57, 100
11, 60240, Note_on_c, 10, 57, 0
11, 60240, Note_on_c, 10, 53, 100
11, 60360, Note_on_c, 10, 53, 0
11, 60360, Note_on_c, 10, 53, 100
11, 60480, Note_on_c, 10, 53, 0
11, 60480, Note_on_c, 10, 53, 100
11, 60510, Note_on_c, 10, 53, 0
11, 60510, Note_on_c, 10, 57, 100
11, 60600, Note_on_c, 10, 57, 0
11, 60600, Note_on_c, 10, 53, 100
11, 60720, Note_on_c, 10, 53, 0
11, 60720, Note_on_c, 10, 53, 100
11, 60840, Note_on_c, 10, 53, 0
11, 60840, Note_on_c, 10, 53, 100
11, 60870, Note_on_c, 10, 53, 0
11, 60870, Note_on_c, 10, 57, 100
11, 60960, Note_on_c, 10, 57, 0
11, 60960, Note_on_c, 10, 53, 100
11, 61080, Note_on_c, 10, 53, 0
11, 61080, Note_on_c, 10, 53, 100
11, 61200, Note_on_c, 10, 53, 0
11, 61200, Note_on_c, 10, 57, 100
11, 62520, Note_on_c, 10, 57, 0
11, 62880, Note_on_c, 10, 57, 100
11, 63000, Note_on_c, 10, 57, 0
11, 63000, Note_on_c, 10, 57, 100
11, 63030, Note_on_c, 10, 57, 0
11, 63030, Note_on_c, 10, 61, 100
11, 63120, Note_on_c, 10, 61, 0
11, 63120, Note_on_c, 10, 57, 100
11, 63180, Note_on_c, 10, 57, 0
11, 66960, Note_on_c, 10, 64, 100
11, 67200, Note_on_c, 10, 64, 0
11, 67200, Note_on_c, 10, 62, 100
11, 67320, Note_on_c, 10, 62, 0
11, 67320, Note_on_c, 10, 64, 100
11, 67560, Note_on_c, 10, 64, 0
11, 67560, Note_on_c, 10, 62, 100
11, 67680, Note_on_c, 10, 62, 0
11, 67680, Note_on_c, 10, 64, 100
11, 67920, Note_on_c, 10, 64, 0
11, 67920, Note_on_c, 10, 62, 100
11, 68040, Note_on_c, 10, 62, 0
11, 68040, Note_on_c, 10, 64, 100
11, 68280, Note_on_c, 10, 64, 0
11, 68280, Note_on_c, 10, 62, 100
11, 68400, Note_on_c, 10, 62, 0
11, 69360, Note_on_c, 10, 62, 100
11, 69480, Note_on_c, 10, 62, 0
11, 69480, Note_on_c, 10, 65, 100
11, 69600, Note_on_c, 10, 65, 0
11, 69600, Note_on_c, 10, 62, 100
11, 69660, Note_on_c, 10, 62, 0
11, 72720, Note_on_c, 10, 67, 100
11, 72960, Note_on_c, 10, 67, 0
11, 72960, Note_on_c, 10, 65, 100
11, 73080, Note_on_c, 10, 65, 0
11, 73080, Note_on_c, 10, 67, 100
11, 73320, Note_on_c, 10, 67, 0
11, 73320, Note_on_c, 10, 65, 100
11, 73440, Note_on_c, 10, 65, 0
11, 73440, Note_on_c, 10, 67, 100
11, 73680, Note_on_c, 10, 67, 0
11, 73680, Note_on_c, 10, 65, 100
11, 73800, Note_on_c, 10, 65, 0
11, 73800, Note_on_c, 10, 67, 100
11, 74040, Note_on_c, 10, 67, 0
11, 74040, Note_on_c, 10, 65, 100
11, 74160, Note_on_c, 10, 65, 0
11, 74160, Note_on_c, 10, 60, 100
11, 75120, Note_on_c, 10, 60, 0
11, 75120, Note_on_c, 10, 60, 100
11, 75240, Note_on_c, 10, 60, 0
11, 75240, Note_on_c, 10, 63, 100
11, 75360, Note_on_c, 10, 63, 0
11, 75360, Note_on_c, 10, 60, 100
11, 75420, Note_on_c, 10, 60, 0
11, 75480, Note_on_c, 10, 65, 100
11, 75600, Note_on_c, 10, 65, 0
11, 75600, Note_on_c, 10, 67, 100
11, 75720, Note_on_c, 10, 67, 0
11, 75720, Note_on_c, 10, 67, 100
11, 75840, Note_on_c, 10, 67, 0
11, 75840, Note_on_c, 10, 65, 100
11, 75960, Note_on_c, 10, 65, 0
11, 75960, Note_on_c, 10, 63, 100
11, 76200, Note_on_c, 10, 63, 0
11, 76200, Note_on_c, 10, 62, 100
11, 76320, Note_on_c, 10, 62, 0
11, 76320, Note_on_c, 10, 67, 100
11, 76440, Note_on_c, 10, 67, 0
11, 76440, Note_on_c, 10, 67, 100
11, 76560, Note_on_c, 10, 67, 0
11, 76560, Note_on_c, 10, 65, 100
11, 76680, Note_on_c, 10, 65, 0
11, 76680, Note_on_c, 10, 65, 100
11, 76800, Note_on_c, 10, 65, 0
11, 76800, Note_on_c, 10, 62, 100
11, 76860, Note_on_c, 10, 62, 0
11, 76920, Note_on_c, 10, 65, 100
11, 77040, Note_on_c, 10, 65, 0
11, 77040, Note_on_c, 10, 58, 100
11, 77160, Note_on_c, 10, 58, 0
11, 77160, Note_on_c, 10, 62, 100
11, 77280, Note_on_c, 10, 62, 0
11, 77280, Note_on_c, 10, 62, 100
11, 77400, Note_on_c, 10, 62, 0
11, 77400, Note_on_c, 10, 58, 100
11, 77520, Note_on_c, 10, 58, 0
11, 77520, Note_on_c, 10, 62, 100
11, 77640, Note_on_c, 10, 62, 0
11, 77640, Note_on_c, 10, 62, 100
11, 77760, Note_on_c, 10, 62, 0
11, 77760, Note_on_c, 10, 58, 100
11, 77880, Note_on_c, 10, 58, 0
11, 77880, Note_on_c, 10, 62, 100
11, 78000, Note_on_c, 10, 62, 0
11, 78000, Note_on_c, 10, 62, 100
11, 78120, Note_on_c, 10, 62, 0
11, 78120, Note_on_c, 10, 58, 100
11, 78240, Note_on_c, 10, 58, 0
11, 78240, Note_on_c, 10, 62, 100
11, 78360, Note_on_c, 10, 62, 0
11, 78360, Note_on_c, 10, 62, 100
11, 78480, Note_on_c, 10, 62, 0
11, 78480, Note_on_c, 10, 53, 100
11, 78600, Note_on_c, 10, 53, 0
11, 78600, Note_on_c, 10, 53, 100
11, 78720, Note_on_c, 10, 53, 0
11, 78720, Note_on_c, 10, 60, 100
11, 78840, Note_on_c, 10, 60, 0
11, 78840, Note_on_c, 10, 53, 100
11, 78960, Note_on_c, 10, 53, 0
11, 78960, Note_on_c, 10, 53, 100
11, 79080, Note_on_c, 10, 53, 0
11, 79080, Note_on_c, 10, 60, 100
11, 79200, Note_on_c, 10, 60, 0
11, 79200, Note_on_c, 10, 53, 100
11, 79320, Note_on_c, 10, 53, 0
11, 79320, Note_on_c, 10, 53, 100
11, 79440, Note_on_c, 10, 53, 0
11, 79440, Note_on_c, 10, 60, 100
11, 79560, Note_on_c, 10, 60, 0
11, 79560, Note_on_c, 10, 53, 100
11, 79680, Note_on_c, 10, 53, 0
11, 79680, Note_on_c, 10, 53, 100
11, 79800, Note_on_c, 10, 53, 0
11, 79800, Note_on_c, 10, 60, 100
11, 79920, Note_on_c, 10, 60, 0
11, 79920, Note_on_c, 10, 53, 100
11, 80040, Note_on_c, 10, 53, 0
11, 80040, Note_on_c, 10, 53, 100
11, 80160, Note_on_c, 10, 53, 0
11, 80160, Note_on_c, 10, 53, 100
11, 80280, Note_on_c, 10, 53, 0
11, 80280, Note_on_c, 10, 50, 100
11, 80280, Note_on_c, 10, 53, 100
11, 80400, Note_on_c, 10, 53, 0
11, 80400, Note_on_c, 10, 50, 0
11, 80400, Note_on_c, 10, 50, 100
11, 80400, Note_on_c, 10, 53, 100
11, 80520, Note_on_c, 10, 53, 0
11, 80520, Note_on_c, 10, 50, 0
11, 80520, Note_on_c, 10, 58, 100
11, 80520, Note_on_c, 10, 53, 100
11, 80640, Note_on_c, 10, 53, 0
11, 80640, Note_on_c, 10, 58, 0
11, 80640, Note_on_c, 10, 50, 100
11, 80640, Note_on_c, 10, 53, 100
11, 80760, Note_on_c, 10, 53, 0
11, 80760, Note_on_c, 10, 50, 0
11, 80760, Note_on_c, 10, 50, 100
11, 80760, Note_on_c, 10, 53, 100
11, 80880, Note_on_c, 10, 53, 0
11, 80880, Note_on_c, 10, 50, 0
11, 80880, Note_on_c, 10, 53, 100
11, 80880, Note_on_c, 10, 58, 100
11, 81000, Note_on_c, 10, 58, 0
11, 81000, Note_on_c, 10, 53, 0
11, 81000, Note_on_c, 10, 50, 100
11, 81000, Note_on_c, 10, 53, 100
11, 81120, Note_on_c, 10, 53, 0
11, 81120, Note_on_c, 10, 50, 0
11, 81120, Note_on_c, 10, 50, 100
11, 81120, Note_on_c, 10, 53, 100
11, 81240, Note_on_c, 10, 53, 0
11, 81240, Note_on_c, 10, 50, 0
11, 81240, Note_on_c, 10, 53, 100
11, 81240, Note_on_c, 10, 58, 100
11, 81360, Note_on_c, 10, 58, 0
11, 81360, Note_on_c, 10, 53, 0
11, 81360, Note_on_c, 10, 53, 100
11, 81360, Note_on_c, 10, 60, 100
11, 81480, Note_on_c, 10, 60, 0
11, 81480, Note_on_c, 10, 53, 0
11, 81480, Note_on_c, 10, 53, 100
11, 81480, Note_on_c, 10, 60, 100
11, 81600, Note_on_c, 10, 60, 0
11, 81600, Note_on_c, 10, 53, 0
11, 81600, Note_on_c, 10, 53, 100
11, 81600, Note_on_c, 10, 60, 100
11, 81720, Note_on_c, 10, 60, 0
11, 81720, Note_on_c, 10, 53, 0
11, 81720, Note_on_c, 10, 53, 100
11, 81720, Note_on_c, 10, 57, 100
11, 81840, Note_on_c, 10, 57, 0
11, 81840, Note_on_c, 10, 53, 0
11, 81840, Note_on_c, 10, 53, 100
11, 81840, Note_on_c, 10, 57, 100
11, 81960, Note_on_c, 10, 57, 0
11, 81960, Note_on_c, 10, 53, 0
11, 81960, Note_on_c, 10, 60, 100
11, 81960, Note_on_c, 10, 57, 100
11, 82080, Note_on_c, 10, 57, 0
11, 82080, Note_on_c, 10, 60, 0
11, 82080, Note_on_c, 10, 53, 100
11, 82080, Note_on_c, 10, 57, 100
11, 82200, Note_on_c, 10, 57, 0
11, 82200, Note_on_c, 10, 53, 0
11, 82200, Note_on_c, 10, 53, 100
11, 82200, Note_on_c, 10, 57, 100
11, 82320, Note_on_c, 10, 57, 0
11, 82320, Note_on_c, 10, 53, 0
11, 82320, Note_on_c, 10, 60, 100
11, 82320, Note_on_c, 10, 57, 100
11, 82440, Note_on_c, 10, 57, 0
11, 82440, Note_on_c, 10, 60, 0
11, 82440, Note_on_c, 10, 53, 100
11, 82440, Note_on_c, 10, 57, 100
11, 82560, Note_on_c, 10, 57, 0
11, 82560, Note_on_c, 10, 53, 0
11, 82560, Note_on_c, 10, 53, 100
11, 82560, Note_on_c, 10, 57, 100
11, 82680, Note_on_c, 10, 57, 0
11, 82680, Note_on_c, 10, 53, 0
11, 82680, Note_on_c, 10, 60, 100
11, 82680, Note_on_c, 10, 57, 100
11, 82800, Note_on_c, 10, 57, 0
11, 82800, Note_on_c, 10, 60, 0
11, 82800, Note_on_c, 10, 53, 100
11, 82800, Note_on_c, 10, 58, 100
11, 82920, Note_on_c, 10, 58, 0
11, 82920, Note_on_c, 10, 53, 0
11, 82920, Note_on_c, 10, 53, 100
11, 82920, Note_on_c, 10, 58, 100
11, 83040, Note_on_c, 10, 58, 0
11, 83040, Note_on_c, 10, 53, 0
11, 83040, Note_on_c, 10, 58, 100
11, 83040, Note_on_c, 10, 62, 100
11, 83160, Note_on_c, 10, 62, 0
11, 83160, Note_on_c, 10, 58, 0
11, 83520, Note_on_c, 10, 65, 100
11, 83640, Note_on_c, 10, 65, 0
11, 83640, Note_on_c, 10, 65, 100
11, 83760, Note_on_c, 10, 65, 0
11, 83760, Note_on_c, 10, 64, 100
11, 83880, Note_on_c, 10, 64, 0
11, 83880, Note_on_c, 10, 62, 100
11, 84000, Note_on_c, 10, 62, 0
11, 84000, Note_on_c, 10, 62, 100
11, 84120, Note_on_c, 10, 62, 0
11, 84120, Note_on_c, 10, 60, 100
11, 84240, Note_on_c, 10, 60, 0
11, 84240, Note_on_c, 10, 58, 100
11, 84360, Note_on_c, 10, 58, 0
11, 84360, Note_on_c, 10, 58, 100
11, 84480, Note_on_c, 10, 58, 0
11, 84480, Note_on_c, 10, 57, 100
11, 84600, Note_on_c, 10, 57, 0
11, 84600, Note_on_c, 10, 55, 100
11, 84720, Note_on_c, 10, 55, 0
11, 84720, Note_on_c, 10, 55, 100
11, 84840, Note_on_c, 10, 55, 0
11, 84840, Note_on_c, 10, 53, 100
11, 84960, Note_on_c, 10, 53, 0
11, 84960, Note_on_c, 10, 52, 100
11, 85080, Note_on_c, 10, 52, 0
11, 85080, Note_on_c, 10, 52, 100
11, 85200, Note_on_c, 10, 52, 0
11, 85200, Note_on_c, 10, 50, 100
11, 85320, Note_on_c, 10, 50, 0
11, 85320, Note_on_c, 10, 48, 100
11, 85440, Note_on_c, 10, 48, 0
11, 85440, Note_on_c, 10, 58, 100
11, 85560, Note_on_c, 10, 58, 0
11, 85560, Note_on_c, 10, 57, 100
11, 85680, Note_on_c, 10, 57, 0
11, 85680, Note_on_c, 10, 57, 100
11, 85800, Note_on_c, 10, 57, 0
11, 85800, Note_on_c, 10, 53, 100
11, 85860, Note_on_c, 10, 53, 0
11, 85920, Note_on_c, 10, 57, 100
11, 86040, Note_on_c, 10, 57, 0
11, 86040, Note_on_c, 10, 57, 100
11, 86070, Note_on_c, 10, 57, 0
11, 86070, Note_on_c, 10, 60, 100
11, 86070, Note_on_c, 10, 57, 100
11, 86160, Note_on_c, 10, 57, 0
11, 86160, Note_on_c, 10, 60, 0
11, 86160, Note_on_c, 10, 53, 100
11, 86160, Note_on_c, 10, 57, 100
11, 86220, Note_on_c, 10, 57, 0
11, 86220, Note_on_c, 10, 53, 0
11, 86280, Note_on_c, 10, 60, 100
11, 86280, Note_on_c, 10, 57, 100
11, 86400, Note_on_c, 10, 57, 0
11, 86400, Note_on_c, 10, 60, 0
11, 86400, Note_on_c, 10, 53, 100
11, 87600, Note_on_c, 10, 53, 0
11, 87600, Note_on_c, 10, 52, 100
11, 87720, Note_on_c, 10, 52, 0
11, 87720, Note_on_c, 10, 52, 100
11, 87840, Note_on_c, 10, 52, 0
11, 87840, Note_on_c, 10, 52, 100
11, 89040, Note_on_c, 10, 52, 0
11, 89040, Note_on_c, 10, 53, 100
11, 89160, Note_on_c, 10, 53, 0
11, 89160, Note_on_c, 10, 53, 100
11, 89280, Note_on_c, 10, 53, 0
11, 89280, Note_on_c, 10, 57, 100
11, 89280, Note_on_c, 10, 65, 100
11, 90480, Note_on_c, 10, 65, 0
11, 90480, Note_on_c, 10, 57, 0
11, 90480, Note_on_c, 10, 60, 100
11, 90480, Note_on_c, 10, 67, 100
11, 90600, Note_on_c, 10, 67, 0
11, 90600, Note_on_c, 10, 60, 0
11, 90600, Note_on_c, 10, 60, 100
11, 90600, Note_on_c, 10, 67, 100
11, 90720, Note_on_c, 10, 67, 0
11, 90720, Note_on_c, 10, 60, 0
11, 90720, Note_on_c, 10, 60, 100
11, 90720, Note_on_c, 10, 67, 100
11, 91920, Note_on_c, 10, 67, 0
11, 91920, Note_on_c, 10, 60, 0
11, 91920, Note_on_c, 10, 65, 100
11, 91920, Note_on_c, 10, 69, 100
11, 92040, Note_on_c, 10, 69, 0
11, 92040, Note_on_c, 10, 65, 0
11, 92040, Note_on_c, 10, 65, 100
11, 92040, Note_on_c, 10, 69, 100
11, 92160, Note_on_c, 10, 69, 0
11, 92160, Note_on_c, 10, 65, 0
11, 92160, Note_on_c, 10, 60, 100
11, 92280, Note_on_c, 10, 60, 0
11, 92280, Note_on_c, 10, 60, 100
11, 92400, Note_on_c, 10, 60, 0
11, 92400, Note_on_c, 10, 60, 100
11, 92520, Note_on_c, 10, 60, 0
11, 92520, Note_on_c, 10, 60, 100
11, 92760, Note_on_c, 10, 60, 0
11, 92760, Note_on_c, 10, 60, 100
11, 92880, Note_on_c, 10, 60, 0
11, 93600, Note_on_c, 10, 60, 100
11, 93720, Note_on_c, 10, 60, 0
11, 93720, Note_on_c, 10, 60, 100
11, 93840, Note_on_c, 10, 60, 0
11, 93840, Note_on_c, 10, 60, 100
11, 93960, Note_on_c, 10, 60, 0
11, 93960, Note_on_c, 10, 60, 100
11, 94200, Note_on_c, 10, 60, 0
11, 94200, Note_on_c, 10, 60, 100
11, 94320, Note_on_c, 10, 60, 0
11, 94320, Note_on_c, 10, 58, 100
11, 94560, Note_on_c, 10, 58, 0
11, 94560, Note_on_c, 10, 65, 100
11, 94680, Note_on_c, 10, 65, 0
11, 94680, Note_on_c, 10, 53, 100
11, 94920, Note_on_c, 10, 53, 0
11, 94920, Note_on_c, 10, 60, 100
11, 95040, Note_on_c, 10, 60, 0
11, 95040, Note_on_c, 10, 60, 100
11, 95280, Note_on_c, 10, 60, 0
11, 95280, Note_on_c, 10, 67, 100
11, 95400, Note_on_c, 10, 67, 0
11, 95400, Note_on_c, 10, 67, 100
11, 95640, Note_on_c, 10, 67, 0
11, 95640, Note_on_c, 10, 67, 100
11, 95760, Note_on_c, 10, 67, 0
11, 95760, Note_on_c, 10, 62, 100
11, 95880, Note_on_c, 10, 62, 0
11, 95880, Note_on_c, 10, 62, 100
11, 96000, Note_on_c, 10, 62, 0
11, 96000, Note_on_c, 10, 65, 100
11, 96120, Note_on_c, 10, 65, 0
11, 96120, Note_on_c, 10, 60, 100
11, 96240, Note_on_c, 10, 60, 0
11, 96240, Note_on_c, 10, 60, 100
11, 96360, Note_on_c, 10, 60, 0
11, 96360, Note_on_c, 10, 64, 100
11, 96480, Note_on_c, 10, 64, 0
11, 96480, Note_on_c, 10, 59, 100
11, 96600, Note_on_c, 10, 59, 0
11, 96600, Note_on_c, 10, 59, 100
11, 96720, Note_on_c, 10, 59, 0
11, 96720, Note_on_c, 10, 62, 100
11, 96840, Note_on_c, 10, 62, 0
11, 96840, Note_on_c, 10, 60, 100
11, 96960, Note_on_c, 10, 60, 0
11, 96960, Note_on_c, 10, 60, 100
11, 97080, Note_on_c, 10, 60, 0
11, 97080, Note_on_c, 10, 64, 100
11, 97200, Note_on_c, 10, 64, 0
11, 97200, Note_on_c, 10, 62, 100
11, 97320, Note_on_c, 10, 62, 0
11, 97320, Note_on_c, 10, 62, 100
11, 97440, Note_on_c, 10, 62, 0
11, 97440, Note_on_c, 10, 65, 100
11, 97560, Note_on_c, 10, 65, 0
11, 97560, Note_on_c, 10, 60, 100
11, 97680, Note_on_c, 10, 60, 0
11, 97680, Note_on_c, 10, 64, 100
11, 97800, Note_on_c, 10, 64, 0
11, 97800, Note_on_c, 10, 64, 100
11, 97920, Note_on_c, 10, 64, 0
11, 97920, Note_on_c, 10, 62, 100
11, 98040, Note_on_c, 10, 62, 0
11, 98040, Note_on_c, 10, 62, 100
11, 98160, Note_on_c, 10, 62, 0
11, 98160, Note_on_c, 10, 65, 100
11, 98280, Note_on_c, 10, 65, 0
11, 98280, Note_on_c, 10, 60, 100
11, 98400, Note_on_c, 10, 60, 0
11, 98400, Note_on_c, 10, 60, 100
11, 98520, Note_on_c, 10, 60, 0
11, 98520, Note_on_c, 10, 64, 100
11, 98640, Note_on_c, 10, 64, 0
11, 98640, Note_on_c, 10, 58, 100
11, 98670, Note_on_c, 10, 58, 0
11, 98670, Note_on_c, 10, 60, 100
11, 98700, Note_on_c, 10, 60, 0
11, 98700, Note_on_c, 10, 58, 100
11, 98730, Note_on_c, 10, 58, 0
11, 98730, Note_on_c, 10, 60, 100
11, 98760, Note_on_c, 10, 60, 0
11, 98760, Note_on_c, 10, 58, 100
11, 98790, Note_on_c, 10, 58, 0
11, 98790, Note_on_c, 10, 60, 100
11, 98820, Note_on_c, 10, 60, 0
11, 98820, Note_on_c, 10, 58, 100
11, 98850, Note_on_c, 10, 58, 0
11, 98850, Note_on_c, 10, 60, 100
11, 98880, Note_on_c, 10, 60, 0
11, 98880, Note_on_c, 10, 58, 100
11, 98910, Note_on_c, 10, 58, 0
11, 98910, Note_on_c, 10, 60, 100
11, 98940, Note_on_c, 10, 60, 0
11, 98940, Note_on_c, 10, 57, 100
11, 98970, Note_on_c, 10, 57, 0
11, 98970, Note_on_c, 10, 58, 100
11, 99000, Note_on_c, 10, 58, 0
11, 99000, Note_on_c, 10, 57, 100
11, 99120, Note_on_c, 10, 57, 0
11, 99120, Note_on_c, 10, 60, 100
11, 99120, Note_on_c, 10, 57, 100
11, 99240, Note_on_c, 10, 57, 0
11, 99240, Note_on_c, 10, 60, 0
11, 99240, Note_on_c, 10, 53, 100
11, 99240, Note_on_c, 10, 57, 100
11, 99360, Note_on_c, 10, 57, 0
11, 99360, Note_on_c, 10, 53, 0
11, 99360, Note_on_c, 10, 58, 100
11, 99390, Note_on_c, 10, 58, 0
11, 99390, Note_on_c, 10, 60, 100
11, 99420, Note_on_c, 10, 60, 0
11, 99420, Note_on_c, 10, 58, 100
11, 99450, Note_on_c, 10, 58, 0
11, 99450, Note_on_c, 10, 60, 100
11, 99480, Note_on_c, 10, 60, 0
11, 99480, Note_on_c, 10, 58, 100
11, 99510, Note_on_c, 10, 58, 0
11, 99510, Note_on_c, 10, 60, 100
11, 99540, Note_on_c, 10, 60, 0
11, 99540, Note_on_c, 10, 58, 100
11, 99570, Note_on_c, 10, 58, 0
11, 99570, Note_on_c, 10, 60, 100
11, 99600, Note_on_c, 10, 60, 0
11, 99600, Note_on_c, 10, 58, 100
11, 99630, Note_on_c, 10, 58, 0
11, 99630, Note_on_c, 10, 60, 100
11, 99660, Note_on_c, 10, 60, 0
11, 99660, Note_on_c, 10, 57, 100
11, 99690, Note_on_c, 10, 57, 0
11, 99690, Note_on_c, 10, 58, 100
11, 99720, Note_on_c, 10, 58, 0
11, 99720, Note_on_c, 10, 53, 100
11, 99720, Note_on_c, 10, 57, 100
11, 99840, Note_on_c, 10, 57, 0
11, 99840, Note_on_c, 10, 53, 0
11, 99840, Note_on_c, 10, 60, 100
11, 99840, Note_on_c, 10, 57, 100
11, 99960, Note_on_c, 10, 57, 0
11, 99960, Note_on_c, 10, 60, 0
11, 99960, Note_on_c, 10, 53, 100
11, 99960, Note_on_c, 10, 57, 100
11, 100080, Note_on_c, 10, 57, 0
11, 100080, Note_on_c, 10, 53, 0
11, 100080, Note_on_c, 10, 58, 100
11, 100110, Note_on_c, 10, 58, 0
11, 100110, Note_on_c, 10, 60, 100
11, 100140, Note_on_c, 10, 60, 0
11, 100140, Note_on_c, 10, 58, 100
11, 100170, Note_on_c, 10, 58, 0
11, 100170, Note_on_c, 10, 60, 100
11, 100200, Note_on_c, 10, 60, 0
11, 100200, Note_on_c, 10, 58, 100
11, 100230, Note_on_c, 10, 58, 0
11, 100230, Note_on_c, 10, 60, 100
11, 100260, Note_on_c, 10, 60, 0
11, 100260, Note_on_c, 10, 58, 100
11, 100290, Note_on_c, 10, 58, 0
11, 100290, Note_on_c, 10, 60, 100
11, 100320, Note_on_c, 10, 60, 0
11, 100320, Note_on_c, 10, 58, 100
11, 100350, Note_on_c, 10, 58, 0
11, 100350, Note_on_c, 10, 60, 100
11, 100380, Note_on_c, 10, 60, 0
11, 100380, Note_on_c, 10, 57, 100
11, 100410, Note_on_c, 10, 57, 0
11, 100410, Note_on_c, 10, 58, 100
11, 100440, Note_on_c, 10, 58, 0
11, 100440, Note_on_c, 10, 57, 100
11, 100560, Note_on_c, 10, 57, 0
11, 100560, Note_on_c, 10, 60, 100
11, 100560, Note_on_c, 10, 57, 100
11, 100680, Note_on_c, 10, 57, 0
11, 100680, Note_on_c, 10, 60, 0
11, 100680, Note_on_c, 10, 53, 100
11, 100680, Note_on_c, 10, 57, 100
11, 100800, Note_on_c, 10, 57, 0
11, 100800, Note_on_c, 10, 53, 0
11, 100800, Note_on_c, 10, 58, 100
11, 100830, Note_on_c, 10, 58, 0
11, 100830, Note_on_c, 10, 60, 100
11, 100860, Note_on_c, 10, 60, 0
11, 100860, Note_on_c, 10, 58, 100
11, 100890, Note_on_c, 10, 58, 0
11, 100890, Note_on_c, 10, 60, 100
11, 100920, Note_on_c, 10, 60, 0
11, 100920, Note_on_c, 10, 58, 100
11, 100950, Note_on_c, 10, 58, 0
11, 100950, Note_on_c, 10, 60, 100
11, 100980, Note_on_c, 10, 60, 0
11, 100980, Note_on_c, 10, 58, 100
11, 101010, Note_on_c, 10, 58, 0
11, 101010, Note_on_c, 10, 60, 100
11, 101040, Note_on_c, 10, 60, 0
11, 101040, Note_on_c, 10, 58, 100
11, 101070, Note_on_c, 10, 58, 0
11, 101070, Note_on_c, 10, 60, 100
11, 101100, Note_on_c, 10, 60, 0
11, 101100, Note_on_c, 10, 57, 100
11, 101130, Note_on_c, 10, 57, 0
11, 101130, Note_on_c, 10, 58, 100
11, 101160, Note_on_c, 10, 58, 0
11, 101160, Note_on_c, 10, 57, 100
11, 101280, Note_on_c, 10, 57, 0
11, 101280, Note_on_c, 10, 60, 100
11, 101280, Note_on_c, 10, 57, 100
11, 101400, Note_on_c, 10, 57, 0
11, 101400, Note_on_c, 10, 60, 0
11, 101400, Note_on_c, 10, 53, 100
11, 101400, Note_on_c, 10, 57, 100
11, 101520, Note_on_c, 10, 57, 0
11, 101520, Note_on_c, 10, 53, 0
11, 101520, Note_on_c, 10, 58, 100
11, 101550, Note_on_c, 10, 58, 0
11, 101550, Note_on_c, 10, 60, 100
11, 101580, Note_on_c, 10, 60, 0
11, 101580, Note_on_c, 10, 58, 100
11, 101610, Note_on_c, 10, 58, 0
11, 101610, Note_on_c, 10, 60, 100
11, 101640, Note_on_c, 10, 60, 0
11, 101640, Note_on_c, 10, 58, 100
11, 101670, Note_on_c, 10, 58, 0
11, 101670, Note_on_c, 10, 60, 100
11, 101700, Note_on_c, 10, 60, 0
11, 101700, Note_on_c, 10, 58, 100
11, 101730, Note_on_c, 10, 58, 0
11, 101730, Note_on_c, 10, 60, 100
11, 101760, Note_on_c, 10, 60, 0
11, 101760, Note_on_c, 10, 58, 100
11, 101790, Note_on_c, 10, 58, 0
11, 101790, Note_on_c, 10, 60, 100
11, 101820, Note_on_c, 10, 60, 0
11, 101820, Note_on_c, 10, 57, 100
11, 101850, Note_on_c, 10, 57, 0
11, 101850, Note_on_c, 10, 58, 100
11, 101880, Note_on_c, 10, 58, 0
11, 101880, Note_on_c, 10, 57, 100
11, 102000, Note_on_c, 10, 57, 0
11, 102000, Note_on_c, 10, 72, 100
11, 102120, Note_on_c, 10, 72, 0
11, 102120, Note_on_c, 10, 69, 100
11, 102240, Note_on_c, 10, 69, 0
11, 102240, Note_on_c, 10, 65, 100
11, 102360, Note_on_c, 10, 65, 0
11, 102360, Note_on_c, 10, 60, 100
11, 102480, Note_on_c, 10, 60, 0
11, 102480, Note_on_c, 10, 57, 100
11, 102600, Note_on_c, 10, 57, 0
11, 102600, Note_on_c, 10, 53, 100
11, 102720, Note_on_c, 10, 53, 0
11, 103200, Note_on_c, 10, 53, 100
11, 103320, Note_on_c, 10, 53, 0
11, 103320, Note_on_c, 10, 53, 100
11, 103350, Note_on_c, 10, 53, 0
11, 103350, Note_on_c, 10, 57, 100
11, 103440, Note_on_c, 10, 57, 0
11, 103440, Note_on_c, 10, 53, 100
11, 103500, Note_on_c, 10, 53, 0
11, 104280, Note_on_c, 10, 53, 100
11, 104400, Note_on_c, 10, 53, 0
11, 104400, Note_on_c, 10, 53, 100
11, 104430, Note_on_c, 10, 53, 0
11, 104430, Note_on_c, 10, 57, 100
11, 104520, Note_on_c, 10, 57, 0
11, 104520, Note_on_c, 10, 53, 100
11, 104580, Note_on_c, 10, 53, 0
11, 104640, Note_on_c, 10, 53, 100
11, 104760, Note_on_c, 10, 53, 0
11, 104760, Note_on_c, 10, 53, 100
11, 104790, Note_on_c, 10, 53, 0
11, 104790, Note_on_c, 10, 57, 100
11, 104880, Note_on_c, 10, 57, 0
11, 104880, Note_on_c, 10, 53, 100
11, 105000, Note_on_c, 10, 53, 0
11, 105000, Note_on_c, 10, 53, 100
11, 105120, Note_on_c, 10, 53, 0
11, 105120, Note_on_c, 10, 53, 100
11, 105150, Note_on_c, 10, 53, 0
11, 105150, Note_on_c, 10, 57, 100
11, 105240, Note_on_c, 10, 57, 0
11, 105240, Note_on_c, 10, 53, 100
11, 105360, Note_on_c, 10, 53, 0
11, 105360, Note_on_c, 10, 53, 100
11, 105480, Note_on_c, 10, 53, 0
11, 105480, Note_on_c, 10, 53, 100
11, 105510, Note_on_c, 10, 53, 0
11, 105510, Note_on_c, 10, 57, 100
11, 105600, Note_on_c, 10, 57, 0
11, 105600, Note_on_c, 10, 53, 100
11, 105720, Note_on_c, 10, 53, 0
11, 105720, Note_on_c, 10, 53, 100
11, 105840, Note_on_c, 10, 53, 0
11, 105840, Note_on_c, 10, 57, 100
11, 107280, Note_on_c, 10, 57, 0
11, 107280, Note_on_c, 10, 50, 100
11, 107400, Note_on_c, 10, 50, 0
11, 127560, Note_on_c, 10, 57, 100
11, 127800, Note_on_c, 10, 57, 0
11, 127800, Note_on_c, 10, 57, 100
11, 128040, Note_on_c, 10, 57, 0
11, 128040, Note_on_c, 10, 57, 100
11, 128160, Note_on_c, 10, 57, 0
11, 128160, Note_on_c, 10, 54, 100
11, 128460, Note_on_c, 10, 54, 0
11, 128460, Note_on_c, 10, 55, 100
11, 128520, Note_on_c, 10, 55, 0
11, 128520, Note_on_c, 10, 54, 100
11, 128640, Note_on_c, 10, 54, 0
11, 128880, Note_on_c, 10, 54, 100
11, 129180, Note_on_c, 10, 54, 0
11, 129180, Note_on_c, 10, 55, 100
11, 129240, Note_on_c, 10, 55, 0
11, 129240, Note_on_c, 10, 54, 100
11, 129360, Note_on_c, 10, 54, 0
11, 129600, Note_on_c, 10, 54, 100
11, 129840, Note_on_c, 10, 54, 0
11, 129840, Note_on_c, 10, 57, 100
11, 129960, Note_on_c, 10, 57, 0
11, 129960, Note_on_c, 10, 62, 100
11, 130080, Note_on_c, 10, 62, 0
11, 130080, Note_on_c, 10, 57, 100
11, 130200, Note_on_c, 10, 57, 0
11, 130200, Note_on_c, 10, 62, 100
11, 130320, Note_on_c, 10, 62, 0
11, 130320, Note_on_c, 10, 57, 100
11, 130440, Note_on_c, 10, 57, 0
11, 131040, Note_on_c, 10, 55, 100
11, 131340, Note_on_c, 10, 55, 0
11, 131340, Note_on_c, 10, 54, 100
11, 131400, Note_on_c, 10, 54, 0
11, 131400, Note_on_c, 10, 55, 100
11, 131520, Note_on_c, 10, 55, 0
11, 131760, Note_on_c, 10, 55, 100
11, 132060, Note_on_c, 10, 55, 0
11, 132060, Note_on_c, 10, 54, 100
11, 132120, Note_on_c, 10, 54, 0
11, 132120, Note_on_c, 10, 55, 100
11, 132240, Note_on_c, 10, 55, 0
11, 132480, Note_on_c, 10, 55, 100
11, 132720, Note_on_c, 10, 55, 0
11, 132720, Note_on_c, 10, 54, 100
11, 132840, Note_on_c, 10, 54, 0
11, 132840, Note_on_c, 10, 52, 100
11, 132960, Note_on_c, 10, 52, 0
11, 132960, Note_on_c, 10, 57, 100
11, 133080, Note_on_c, 10, 57, 0
11, 133080, Note_on_c, 10, 57, 100
11, 133200, Note_on_c, 10, 57, 0
11, 133200, Note_on_c, 10, 50, 100
11, 133200, Note_on_c, 10, 62, 100
11, 133320, Note_on_c, 10, 62, 0
11, 133320, Note_on_c, 10, 50, 0
11, 142680, Note_on_c, 10, 57, 100
11, 142920, Note_on_c, 10, 57, 0
11, 142920, Note_on_c, 10, 57, 100
11, 143160, Note_on_c, 10, 57, 0
11, 143160, Note_on_c, 10, 57, 100
11, 143280, Note_on_c, 10, 57, 0
11, 143280, Note_on_c, 10, 54, 100
11, 143580, Note_on_c, 10, 54, 0
11, 143580, Note_on_c, 10, 55, 100
11, 143640, Note_on_c, 10, 55, 0
11, 143640, Note_on_c, 10, 54, 100
11, 143760, Note_on_c, 10, 54, 0
11, 144000, Note_on_c, 10, 54, 100
11, 144300, Note_on_c, 10, 54, 0
11, 144300, Note_on_c, 10, 55, 100
11, 144360, Note_on_c, 10, 55, 0
11, 144360, Note_on_c, 10, 54, 100
11, 144480, Note_on_c, 10, 54, 0
11, 144720, Note_on_c, 10, 54, 100
11, 144960, Note_on_c, 10, 54, 0
11, 144960, Note_on_c, 10, 57, 100
11, 145080, Note_on_c, 10, 57, 0
11, 145080, Note_on_c, 10, 62, 100
11, 145200, Note_on_c, 10, 62, 0
11, 145200, Note_on_c, 10, 57, 100
11, 145320, Note_on_c, 10, 57, 0
11, 145320, Note_on_c, 10, 62, 100
11, 145440, Note_on_c, 10, 62, 0
11, 145440, Note_on_c, 10, 57, 100
11, 145560, Note_on_c, 10, 57, 0
11, 146160, Note_on_c, 10, 55, 100
11, 146460, Note_on_c, 10, 55, 0
11, 146460, Note_on_c, 10, 54, 100
11, 146520, Note_on_c, 10, 54, 0
11, 146520, Note_on_c, 10, 55, 100
11, 146640, Note_on_c, 10, 55, 0
11, 146880, Note_on_c, 10, 55, 100
11, 147180, Note_on_c, 10, 55, 0
11, 147180, Note_on_c, 10, 54, 100
11, 147240, Note_on_c, 10, 54, 0
11, 147240, Note_on_c, 10, 55, 100
11, 147360, Note_on_c, 10, 55, 0
11, 147600, Note_on_c, 10, 55, 100
11, 147840, Note_on_c, 10, 55, 0
11, 147840, Note_on_c, 10, 54, 100
11, 147960, Note_on_c, 10, 54, 0
11, 147960, Note_on_c, 10, 52, 100
11, 148080, Note_on_c, 10, 52, 0
11, 148080, Note_on_c, 10, 57, 100
11, 148200, Note_on_c, 10, 57, 0
11, 148200, Note_on_c, 10, 57, 100
11, 148320, Note_on_c, 10, 57, 0
11, 148320, Note_on_c, 10, 50, 100
11, 148320, Note_on_c, 10, 62, 100
11, 148440, Note_on_c, 10, 62, 0
11, 148440, Note_on_c, 10, 50, 0
11, 149040, Note_on_c, 10, 57, 100
11, 153360, Note_on_c, 10, 57, 0
11, 153360, Note_on_c, 10, 58, 100
11, 153960, Note_on_c, 10, 58, 0
11, 153960, Note_on_c, 10, 53, 100
11, 154080, Note_on_c, 10, 53, 0
11, 154080, Note_on_c, 10, 53, 100
11, 154110, Note_on_c, 10, 53, 0
11, 154110, Note_on_c, 10, 57, 100
11, 154200, Note_on_c, 10, 57, 0
11, 154200, Note_on_c, 10, 53, 100
11, 154260, Note_on_c, 10, 53, 0
11, 154320, Note_on_c, 10, 53, 100
11, 154320, Note_on_c, 10, 57, 100
11, 154440, Note_on_c, 10, 57, 0
11, 154440, Note_on_c, 10, 53, 0
11, 154440, Note_on_c, 10, 57, 100
11, 154440, Note_on_c, 10, 53, 100
11, 154470, Note_on_c, 10, 53, 0
11, 154470, Note_on_c, 10, 57, 0
11, 154470, Note_on_c, 10, 57, 100
11, 154470, Note_on_c, 10, 60, 100
11, 154560, Note_on_c, 10, 60, 0
11, 154560, Note_on_c, 10, 57, 0
11, 154560, Note_on_c, 10, 53, 100
11, 154560, Note_on_c, 10, 57, 100
11, 154620, Note_on_c, 10, 57, 0
11, 154620, Note_on_c, 10, 53, 0
11, 154680, Note_on_c, 10, 60, 100
11, 154680, Note_on_c, 10, 57, 100
11, 154800, Note_on_c, 10, 57, 0
11, 154800, Note_on_c, 10, 60, 0
11, 154800, Note_on_c, 10, 53, 100
11, 154800, Note_on_c, 10, 57, 100
11, 154920, Note_on_c, 10, 57, 0
11, 154920, Note_on_c, 10, 53, 0
11, 154920, Note_on_c, 10, 53, 100
11, 154920, Note_on_c, 10, 57, 100
11, 155040, Note_on_c, 10, 57, 0
11, 155040, Note_on_c, 10, 53, 0
11, 155040, Note_on_c, 10, 60, 100
11, 155040, Note_on_c, 10, 57, 100
11, 155160, Note_on_c, 10, 57, 0
11, 155160, Note_on_c, 10, 60, 0
11, 155160, Note_on_c, 10, 53, 100
11, 155160, Note_on_c, 10, 57, 100
11, 155280, Note_on_c, 10, 57, 0
11, 155280, Note_on_c, 10, 53, 0
11, 155280, Note_on_c, 10, 53, 100
11, 155280, Note_on_c, 10, 57, 100
11, 155400, Note_on_c, 10, 57, 0
11, 155400, Note_on_c, 10, 53, 0
11, 155400, Note_on_c, 10, 60, 100
11, 155400, Note_on_c, 10, 57, 100
11, 155520, Note_on_c, 10, 57, 0
11, 155520, Note_on_c, 10, 60, 0
11, 155520, Note_on_c, 10, 53, 100
11, 155520, Note_on_c, 10, 57, 100
11, 155640, Note_on_c, 10, 57, 0
11, 155640, Note_on_c, 10, 53, 0
11, 155640, Note_on_c, 10, 53, 100
11, 155640, Note_on_c, 10, 57, 100
11, 155760, Note_on_c, 10, 57, 0
11, 155760, Note_on_c, 10, 53, 0
11, 155760, Note_on_c, 10, 57, 100
11, 155760, Note_on_c, 10, 60, 100
11, 155880, Note_on_c, 10, 60, 0
11, 155880, Note_on_c, 10, 57, 0
11, 155880, Note_on_c, 10, 48, 100
11, 155880, Note_on_c, 10, 55, 100
11, 156000, Note_on_c, 10, 55, 0
11, 156000, Note_on_c, 10, 48, 0
11, 156000, Note_on_c, 10, 48, 100
11, 156000, Note_on_c, 10, 55, 100
11, 156120, Note_on_c, 10, 55, 0
11, 156120, Note_on_c, 10, 48, 0
11, 156120, Note_on_c, 10, 48, 100
11, 156120, Note_on_c, 10, 60, 100
11, 156240, Note_on_c, 10, 60, 0
11, 156240, Note_on_c, 10, 48, 0
11, 156240, Note_on_c, 10, 55, 100
11, 156240, Note_on_c, 10, 48, 100
11, 156360, Note_on_c, 10, 48, 0
11, 156360, Note_on_c, 10, 55, 0
11, 156360, Note_on_c, 10, 55, 100
11, 156360, Note_on_c, 10, 48, 100
11, 156480, Note_on_c, 10, 48, 0
11, 156480, Note_on_c, 10, 55, 0
11, 156480, Note_on_c, 10, 60, 100
11, 156480, Note_on_c, 10, 48, 100
11, 156600, Note_on_c, 10, 48, 0
11, 156600, Note_on_c, 10, 60, 0
11, 156600, Note_on_c, 10, 55, 100
11, 156600, Note_on_c, 10, 48, 100
11, 156720, Note_on_c, 10, 48, 0
11, 156720, Note_on_c, 10, 55, 0
11, 156720, Note_on_c, 10, 55, 100
11, 156720, Note_on_c, 10, 48, 100
11, 156840, Note_on_c, 10, 48, 0
11, 156840, Note_on_c, 10, 55, 0
11, 156840, Note_on_c, 10, 60, 100
11, 156840, Note_on_c, 10, 48, 100
11, 156960, Note_on_c, 10, 48, 0
11, 156960, Note_on_c, 10, 60, 0
11, 156960, Note_on_c, 10, 48, 100
11, 156960, Note_on_c, 10, 55, 100
11, 157080, Note_on_c, 10, 55, 0
11, 157080, Note_on_c, 10, 48, 0
11, 157080, Note_on_c, 10, 48, 100
11, 157080, Note_on_c, 10, 55, 100
11, 157200, Note_on_c, 10, 55, 0
11, 157200, Note_on_c, 10, 48, 0
11, 157200, Note_on_c, 10, 48, 100
11, 157200, Note_on_c, 10, 60, 100
11, 157320, Note_on_c, 10, 60, 0
11, 157320, Note_on_c, 10, 48, 0
11, 157320, Note_on_c, 10, 57, 100
11, 157320, Note_on_c, 10, 53, 100
11, 157440, Note_on_c, 10, 53, 0
11, 157440, Note_on_c, 10, 57, 0
11, 157440, Note_on_c, 10, 57, 100
11, 157440, Note_on_c, 10, 53, 100
11, 157560, Note_on_c, 10, 53, 0
11, 157560, Note_on_c, 10, 57, 0
11, 157560, Note_on_c, 10, 60, 100
11, 157560, Note_on_c, 10, 57, 100
11, 157680, Note_on_c, 10, 57, 0
11, 157680, Note_on_c, 10, 60, 0
11, 157680, Note_on_c, 10, 48, 100
11, 157800, Note_on_c, 10, 48, 0
11, 157800, Note_on_c, 10, 60, 100
11, 157920, Note_on_c, 10, 60, 0
11, 157920, Note_on_c, 10, 60, 100
11, 158040, Note_on_c, 10, 60, 0
11, 158040, Note_on_c, 10, 60, 100
11, 158280, Note_on_c, 10, 60, 0
11, 158280, Note_on_c, 10, 60, 100
11, 158400, Note_on_c, 10, 60, 0
11, 158400, Note_on_c, 10, 48, 100
11, 158520, Note_on_c, 10, 48, 0
11, 158520, Note_on_c, 10, 60, 100
11, 158640, Note_on_c, 10, 60, 0
11, 158640, Note_on_c, 10, 60, 100
11, 158760, Note_on_c, 10, 60, 0
11, 158760, Note_on_c, 10, 60, 100
11, 159000, Note_on_c, 10, 60, 0
11, 159000, Note_on_c, 10, 60, 100
11, 159120, Note_on_c, 10, 60, 0
11, 159120, Note_on_c, 10, 62, 100
11, 159360, Note_on_c, 10, 62, 0
11, 159360, Note_on_c, 10, 64, 100
11, 159480, Note_on_c, 10, 64, 0
11, 159480, Note_on_c, 10, 68, 100
11, 159720, Note_on_c, 10, 68, 0
11, 159720, Note_on_c, 10, 69, 100
11, 159840, Note_on_c, 10, 69, 0
11, 159840, Note_on_c, 10, 59, 100
11, 159840, Note_on_c, 10, 62, 100
11, 159960, Note_on_c, 10, 62, 0
11, 159960, Note_on_c, 10, 59, 0
11, 159960, Note_on_c, 10, 64, 100
11, 159960, Note_on_c, 10, 62, 100
11, 160080, Note_on_c, 10, 62, 0
11, 160080, Note_on_c, 10, 64, 0
11, 160080, Note_on_c, 10, 64, 100
11, 160080, Note_on_c, 10, 62, 100
11, 160200, Note_on_c, 10, 62, 0
11, 160200, Note_on_c, 10, 64, 0
11, 160200, Note_on_c, 10, 57, 100
11, 160200, Note_on_c, 10, 61, 100
11, 160320, Note_on_c, 10, 61, 0
11, 160320, Note_on_c, 10, 57, 0
11, 160320, Note_on_c, 10, 64, 100
11, 160320, Note_on_c, 10, 61, 100
11, 160440, Note_on_c, 10, 61, 0
11, 160440, Note_on_c, 10, 64, 0
11, 160440, Note_on_c, 10, 64, 100
11, 160440, Note_on_c, 10, 61, 100
11, 160560, Note_on_c, 10, 61, 0
11, 160560, Note_on_c, 10, 64, 0
11, 160560, Note_on_c, 10, 56, 100
11, 160560, Note_on_c, 10, 59, 100
11, 160680, Note_on_c, 10, 59, 0
11, 160680, Note_on_c, 10, 56, 0
11, 160680, Note_on_c, 10, 64, 100
11, 160680, Note_on_c, 10, 59, 100
11, 160800, Note_on_c, 10, 59, 0
11, 160800, Note_on_c, 10, 64, 0
11, 160800, Note_on_c, 10, 64, 100
11, 160800, Note_on_c, 10, 59, 100
11, 160920, Note_on_c, 10, 59, 0
11, 160920, Note_on_c, 10, 64, 0
11, 160920, Note_on_c, 10, 57, 100
11, 160920, Note_on_c, 10, 61, 100
11, 161040, Note_on_c, 10, 61, 0
11, 161040, Note_on_c, 10, 57, 0
11, 161040, Note_on_c, 10, 64, 100
11, 161040, Note_on_c, 10, 61, 100
11, 161160, Note_on_c, 10, 61, 0
11, 161160, Note_on_c, 10, 64, 0
11, 161160, Note_on_c, 10, 64, 100
11, 161160, Note_on_c, 10, 61, 100
11, 161280, Note_on_c, 10, 61, 0
11, 161280, Note_on_c, 10, 64, 0
11, 161280, Note_on_c, 10, 59, 100
11, 161280, Note_on_c, 10, 62, 100
11, 161400, Note_on_c, 10, 62, 0
11, 161400, Note_on_c, 10, 59, 0
11, 161400, Note_on_c, 10, 64, 100
11, 161400, Note_on_c, 10, 62, 100
11, 161520, Note_on_c, 10, 62, 0
11, 161520, Note_on_c, 10, 64, 0
11, 161520, Note_on_c, 10, 64, 100
11, 161520, Note_on_c, 10, 62, 100
11, 161640, Note_on_c, 10, 62, 0
11, 161640, Note_on_c, 10, 64, 0
11, 161640, Note_on_c, 10, 61, 100
11, 161640, Note_on_c, 10, 57, 100
11, 161760, Note_on_c, 10, 57, 0
11, 161760, Note_on_c, 10, 61, 0
11, 161760, Note_on_c, 10, 76, 100
11, 161880, Note_on_c, 10, 76, 0
11, 161880, Note_on_c, 10, 73, 100
11, 162000, Note_on_c, 10, 73, 0
11, 162000, Note_on_c, 10, 69, 100
11, 162120, Note_on_c, 10, 69, 0
11, 162120, Note_on_c, 10, 64, 100
11, 162240, Note_on_c, 10, 64, 0
11, 162240, Note_on_c, 10, 61, 100
11, 162360, Note_on_c, 10, 61, 0
11, 162360, Note_on_c, 10, 57, 100
11, 162480, Note_on_c, 10, 57, 0
11, 162600, Note_on_c, 10, 53, 100
11, 162720, Note_on_c, 10, 53, 0
11, 162720, Note_on_c, 10, 53, 100
11, 162750, Note_on_c, 10, 53, 0
11, 162750, Note_on_c, 10, 57, 100
11, 162840, Note_on_c, 10, 57, 0
11, 162840, Note_on_c, 10, 53, 100
11, 162900, Note_on_c, 10, 53, 0
11, 162960, Note_on_c, 10, 53, 100
11, 162960, Note_on_c, 10, 57, 100
11, 163080, Note_on_c, 10, 57, 0
11, 163080, Note_on_c, 10, 53, 0
11, 163080, Note_on_c, 10, 57, 100
11, 163080, Note_on_c, 10, 53, 100
11, 163110, Note_on_c, 10, 53, 0
11, 163110, Note_on_c, 10, 57, 0
11, 163110, Note_on_c, 10, 57, 100
11, 163110, Note_on_c, 10, 60, 100
11, 163200, Note_on_c, 10, 60, 0
11, 163200, Note_on_c, 10, 57, 0
11, 163200, Note_on_c, 10, 53, 100
11, 163200, Note_on_c, 10, 57, 100
11, 163260, Note_on_c, 10, 57, 0
11, 163260, Note_on_c, 10, 53, 0
11, 163320, Note_on_c, 10, 60, 100
11, 163320, Note_on_c, 10, 57, 100
11, 163440, Note_on_c, 10, 57, 0
11, 163440, Note_on_c, 10, 60, 0
11, 163440, Note_on_c, 10, 53, 100
11, 163440, Note_on_c, 10, 57, 100
11, 163560, Note_on_c, 10, 57, 0
11, 163560, Note_on_c, 10, 53, 0
11, 163560, Note_on_c, 10, 53, 100
11, 163560, Note_on_c, 10, 57, 100
11, 163680, Note_on_c, 10, 57, 0
11, 163680, Note_on_c, 10, 53, 0
11, 163680, Note_on_c, 10, 60, 100
11, 163680, Note_on_c, 10, 57, 100
11, 163800, Note_on_c, 10, 57, 0
11, 163800, Note_on_c, 10, 60, 0
11, 163800, Note_on_c, 10, 53, 100
11, 163800, Note_on_c, 10, 57, 100
11, 163920, Note_on_c, 10, 57, 0
11, 163920, Note_on_c, 10, 53, 0
11, 163920, Note_on_c, 10, 53, 100
11, 163920, Note_on_c, 10, 57, 100
11, 164040, Note_on_c, 10, 57, 0
11, 164040, Note_on_c, 10, 53, 0
11, 164040, Note_on_c, 10, 60, 100
11, 164040, Note_on_c, 10, 57, 100
11, 164160, Note_on_c, 10, 57, 0
11, 164160, Note_on_c, 10, 60, 0
11, 164160, Note_on_c, 10, 53, 100
11, 164160, Note_on_c, 10, 57, 100
11, 164280, Note_on_c, 10, 57, 0
11, 164280, Note_on_c, 10, 53, 0
11, 164280, Note_on_c, 10, 53, 100
11, 164280, Note_on_c, 10, 57, 100
11, 164400, Note_on_c, 10, 57, 0
11, 164400, Note_on_c, 10, 53, 0
11, 164400, Note_on_c, 10, 57, 100
11, 164400, Note_on_c, 10, 60, 100
11, 164520, Note_on_c, 10, 60, 0
11, 164520, Note_on_c, 10, 57, 0
11, 164520, Note_on_c, 10, 48, 100
11, 164520, Note_on_c, 10, 55, 100
11, 164640, Note_on_c, 10, 55, 0
11, 164640, Note_on_c, 10, 48, 0
11, 164640, Note_on_c, 10, 48, 100
11, 164640, Note_on_c, 10, 55, 100
11, 164760, Note_on_c, 10, 55, 0
11, 164760, Note_on_c, 10, 48, 0
11, 164760, Note_on_c, 10, 48, 100
11, 164760, Note_on_c, 10, 60, 100
11, 164880, Note_on_c, 10, 60, 0
11, 164880, Note_on_c, 10, 48, 0
11, 164880, Note_on_c, 10, 55, 100
11, 164880, Note_on_c, 10, 48, 100
11, 165000, Note_on_c, 10, 48, 0
11, 165000, Note_on_c, 10, 55, 0
11, 165000, Note_on_c, 10, 55, 100
11, 165000, Note_on_c, 10, 48, 100
11, 165120, Note_on_c, 10, 48, 0
11, 165120, Note_on_c, 10, 55, 0
11, 165120, Note_on_c, 10, 60, 100
11, 165120, Note_on_c, 10, 48, 100
11, 165240, Note_on_c, 10, 48, 0
11, 165240, Note_on_c, 10, 60, 0
11, 165240, Note_on_c, 10, 55, 100
11, 165240, Note_on_c, 10, 48, 100
11, 165360, Note_on_c, 10, 48, 0
11, 165360, Note_on_c, 10, 55, 0
11, 165360, Note_on_c, 10, 55, 100
11, 165360, Note_on_c, 10, 48, 100
11, 165480, Note_on_c, 10, 48, 0
11, 165480, Note_on_c, 10, 55, 0
11, 165480, Note_on_c, 10, 60, 100
11, 165480, Note_on_c, 10, 48, 100
11, 165600, Note_on_c, 10, 48, 0
11, 165600, Note_on_c, 10, 60, 0
11, 165600, Note_on_c, 10, 48, 100
11, 165600, Note_on_c, 10, 55, 100
11, 165720, Note_on_c, 10, 55, 0
11, 165720, Note_on_c, 10, 48, 0
11, 165720, Note_on_c, 10, 48, 100
11, 165720, Note_on_c, 10, 55, 100
11, 165840, Note_on_c, 10, 55, 0
11, 165840, Note_on_c, 10, 48, 0
11, 165840, Note_on_c, 10, 48, 100
11, 165840, Note_on_c, 10, 60, 100
11, 165960, Note_on_c, 10, 60, 0
11, 165960, Note_on_c, 10, 48, 0
11, 165960, Note_on_c, 10, 57, 100
11, 165960, Note_on_c, 10, 53, 100
11, 166080, Note_on_c, 10, 53, 0
11, 166080, Note_on_c, 10, 57, 0
11, 166080, Note_on_c, 10, 57, 100
11, 166080, Note_on_c, 10, 53, 100
11, 166200, Note_on_c, 10, 53, 0
11, 166200, Note_on_c, 10, 57, 0
11, 166200, Note_on_c, 10, 60, 100
11, 166200, Note_on_c, 10, 57, 100
11, 166320, Note_on_c, 10, 57, 0
11, 166320, Note_on_c, 10, 60, 0
11, 166320, Note_on_c, 10, 48, 100
11, 166440, Note_on_c, 10, 48, 0
11, 166440, Note_on_c, 10, 60, 100
11, 166560, Note_on_c, 10, 60, 0
11, 166560, Note_on_c, 10, 60, 100
11, 166680, Note_on_c, 10, 60, 0
11, 166680, Note_on_c, 10, 60, 100
11, 166920, Note_on_c, 10, 60, 0
11, 166920, Note_on_c, 10, 60, 100
11, 167040, Note_on_c, 10, 60, 0
11, 167040, Note_on_c, 10, 48, 100
11, 167160, Note_on_c, 10, 48, 0
11, 167160, Note_on_c, 10, 60, 100
11, 167280, Note_on_c, 10, 60, 0
11, 167280, Note_on_c, 10, 60, 100
11, 167400, Note_on_c, 10, 60, 0
11, 167400, Note_on_c, 10, 60, 100
11, 167640, Note_on_c, 10, 60, 0
11, 167640, Note_on_c, 10, 60, 100
11, 167760, Note_on_c, 10, 60, 0
11, 167760, Note_on_c, 10, 62, 100
11, 168000, Note_on_c, 10, 62, 0
11, 168000, Note_on_c, 10, 64, 100
11, 168120, Note_on_c, 10, 64, 0
11, 168120, Note_on_c, 10, 68, 100
11, 168360, Note_on_c, 10, 68, 0
11, 168360, Note_on_c, 10, 69, 100
11, 168480, Note_on_c, 10, 69, 0
11, 168480, Note_on_c, 10, 59, 100
11, 168480, Note_on_c, 10, 62, 100
11, 168600, Note_on_c, 10, 62, 0
11, 168600, Note_on_c, 10, 59, 0
11, 168600, Note_on_c, 10, 64, 100
11, 168600, Note_on_c, 10, 62, 100
11, 168720, Note_on_c, 10, 62, 0
11, 168720, Note_on_c, 10, 64, 0
11, 168720, Note_on_c, 10, 64, 100
11, 168720, Note_on_c, 10, 62, 100
11, 168840, Note_on_c, 10, 62, 0
11, 168840, Note_on_c, 10, 64, 0
11, 168840, Note_on_c, 10, 57, 100
11, 168840, Note_on_c, 10, 61, 100
11, 168960, Note_on_c, 10, 61, 0
11, 168960, Note_on_c, 10, 57, 0
11, 168960, Note_on_c, 10, 64, 100
11, 168960, Note_on_c, 10, 61, 100
11, 169080, Note_on_c, 10, 61, 0
11, 169080, Note_on_c, 10, 64, 0
11, 169080, Note_on_c, 10, 64, 100
11, 169080, Note_on_c, 10, 61, 100
11, 169200, Note_on_c, 10, 61, 0
11, 169200, Note_on_c, 10, 64, 0
11, 169200, Note_on_c, 10, 56, 100
11, 169200, Note_on_c, 10, 59, 100
11, 169320, Note_on_c, 10, 59, 0
11, 169320, Note_on_c, 10, 56, 0
11, 169320, Note_on_c, 10, 64, 100
11, 169320, Note_on_c, 10, 59, 100
11, 169440, Note_on_c, 10, 59, 0
11, 169440, Note_on_c, 10, 64, 0
11, 169440, Note_on_c, 10, 64, 100
11, 169440, Note_on_c, 10, 59, 100
11, 169560, Note_on_c, 10, 59, 0
11, 169560, Note_on_c, 10, 64, 0
11, 169560, Note_on_c, 10, 57, 100
11, 169560, Note_on_c, 10, 61, 100
11, 169680, Note_on_c, 10, 61, 0
11, 169680, Note_on_c, 10, 57, 0
11, 169680, Note_on_c, 10, 64, 100
11, 169680, Note_on_c, 10, 61, 100
11, 169800, Note_on_c, 10, 61, 0
11, 169800, Note_on_c, 10, 64, 0
11, 169800, Note_on_c, 10, 64, 100
11, 169800, Note_on_c, 10, 61, 100
11, 169920, Note_on_c, 10, 61, 0
11, 169920, Note_on_c, 10, 64, 0
11, 169920, Note_on_c, 10, 59, 100
11, 169920, Note_on_c, 10, 62, 100
11, 170040, Note_on_c, 10, 62, 0
11, 170040, Note_on_c, 10, 59, 0
11, 170040, Note_on_c, 10, 64, 100
11, 170040, Note_on_c, 10, 62, 100
11, 170160, Note_on_c, 10, 62, 0
11, 170160, Note_on_c, 10, 64, 0
11, 170160, Note_on_c, 10, 64, 100
11, 170160, Note_on_c, 10, 62, 100
11, 170280, Note_on_c, 10, 62, 0
11, 170280, Note_on_c, 10, 64, 0
11, 170280, Note_on_c, 10, 61, 100
11, 170280, Note_on_c, 10, 57, 100
11, 170400, Note_on_c, 10, 57, 0
11, 170400, Note_on_c, 10, 61, 0
11, 170400, Note_on_c, 10, 76, 100
11, 170520, Note_on_c, 10, 76, 0
11, 170520, Note_on_c, 10, 73, 100
11, 170640, Note_on_c, 10, 73, 0
11, 170640, Note_on_c, 10, 69, 100
11, 170760, Note_on_c, 10, 69, 0
11, 170760, Note_on_c, 10, 64, 100
11, 170880, Note_on_c, 10, 64, 0
11, 170880, Note_on_c, 10, 61, 100
11, 171000, Note_on_c, 10, 61, 0
11, 171000, Note_on_c, 10, 57, 100
11, 171120, Note_on_c, 10, 57, 0
11, 171600, Note_on_c, 10, 57, 100
11, 171720, Note_on_c, 10, 57, 0
11, 171720, Note_on_c, 10, 57, 100
11, 171750, Note_on_c, 10, 57, 0
11, 171750, Note_on_c, 10, 61, 100
11, 171840, Note_on_c, 10, 61, 0
11, 171840, Note_on_c, 10, 57, 100
11, 171900, Note_on_c, 10, 57, 0
11, 175680, Note_on_c, 10, 64, 100
11, 175920, Note_on_c, 10, 64, 0
11, 175920, Note_on_c, 10, 62, 100
11, 176040, Note_on_c, 10, 62, 0
11, 176040, Note_on_c, 10, 64, 100
11, 176280, Note_on_c, 10, 64, 0
11, 176280, Note_on_c, 10, 62, 100
11, 176400, Note_on_c, 10, 62, 0
11, 176400, Note_on_c, 10, 64, 100
11, 176640, Note_on_c, 10, 64, 0
11, 176640, Note_on_c, 10, 62, 100
11, 176760, Note_on_c, 10, 62, 0
11, 176760, Note_on_c, 10, 64, 100
11, 177000, Note_on_c, 10, 64, 0
11, 177000, Note_on_c, 10, 62, 100
11, 177120, Note_on_c, 10, 62, 0
11, 178080, Note_on_c, 10, 62, 100
11, 178200, Note_on_c, 10, 62, 0
11, 178200, Note_on_c, 10, 65, 100
11, 178320, Note_on_c, 10, 65, 0
11, 178320, Note_on_c, 10, 62, 100
11, 178380, Note_on_c, 10, 62, 0
11, 181440, Note_on_c, 10, 67, 100
11, 181680, Note_on_c, 10, 67, 0
11, 181680, Note_on_c, 10, 65, 100
11, 181800, Note_on_c, 10, 65, 0
11, 181800, Note_on_c, 10, 67, 100
11, 182040, Note_on_c, 10, 67, 0
11, 182040, Note_on_c, 10, 65, 100
11, 182160, Note_on_c, 10, 65, 0
11, 182160, Note_on_c, 10, 67, 100
11, 182400, Note_on_c, 10, 67, 0
11, 182400, Note_on_c, 10, 65, 100
11, 182520, Note_on_c, 10, 65, 0
11, 182520, Note_on_c, 10, 67, 100
11, 182760, Note_on_c, 10, 67, 0
11, 182760, Note_on_c, 10, 65, 100
11, 182880, Note_on_c, 10, 65, 0
11, 182880, Note_on_c, 10, 60, 100
11, 183840, Note_on_c, 10, 60, 0
11, 183840, Note_on_c, 10, 60, 100
11, 183960, Note_on_c, 10, 60, 0
11, 183960, Note_on_c, 10, 63, 100
11, 184080, Note_on_c, 10, 63, 0
11, 184080, Note_on_c, 10, 60, 100
11, 184140, Note_on_c, 10, 60, 0
11, 184200, Note_on_c, 10, 65, 100
11, 184320, Note_on_c, 10, 65, 0
11, 184320, Note_on_c, 10, 67, 100
11, 184440, Note_on_c, 10, 67, 0
11, 184440, Note_on_c, 10, 67, 100
11, 184560, Note_on_c, 10, 67, 0
11, 184560, Note_on_c, 10, 65, 100
11, 184680, Note_on_c, 10, 65, 0
11, 184680, Note_on_c, 10, 63, 100
11, 184920, Note_on_c, 10, 63, 0
11, 184920, Note_on_c, 10, 62, 100
11, 185040, Note_on_c, 10, 62, 0
11, 185040, Note_on_c, 10, 67, 100
11, 185160, Note_on_c, 10, 67, 0
11, 185160, Note_on_c, 10, 67, 100
11, 185280, Note_on_c, 10, 67, 0
11, 185280, Note_on_c, 10, 65, 100
11, 185400, Note_on_c, 10, 65, 0
11, 185400, Note_on_c, 10, 65, 100
11, 185520, Note_on_c, 10, 65, 0
11, 185520, Note_on_c, 10, 62, 100
11, 185580, Note_on_c, 10, 62, 0
11, 185640, Note_on_c, 10, 65, 100
11, 185760, Note_on_c, 10, 65, 0
11, 185760, Note_on_c, 10, 58, 100
11, 185880, Note_on_c, 10, 58, 0
11, 185880, Note_on_c, 10, 62, 100
11, 186000, Note_on_c, 10, 62, 0
11, 186000, Note_on_c, 10, 62, 100
11, 186120, Note_on_c, 10, 62, 0
11, 186120, Note_on_c, 10, 58, 100
11, 186240, Note_on_c, 10, 58, 0
11, 186240, Note_on_c, 10, 62, 100
11, 186360, Note_on_c, 10, 62, 0
11, 186360, Note_on_c, 10, 62, 100
11, 186480, Note_on_c, 10, 62, 0
11, 186480, Note_on_c, 10, 58, 100
11, 186600, Note_on_c, 10, 58, 0
11, 186600, Note_on_c, 10, 62, 100
11, 186720, Note_on_c, 10, 62, 0
11, 186720, Note_on_c, 10, 62, 100
11, 186840, Note_on_c, 10, 62, 0
11, 186840, Note_on_c, 10, 58, 100
11, 186960, Note_on_c, 10, 58, 0
11, 186960, Note_on_c, 10, 62, 100
11, 187080, Note_on_c, 10, 62, 0
11, 187080, Note_on_c, 10, 62, 100
11, 187200, Note_on_c, 10, 62, 0
11, 187200, Note_on_c, 10, 53, 100
11, 187320, Note_on_c, 10, 53, 0
11, 187320, Note_on_c, 10, 53, 100
11, 187440, Note_on_c, 10, 53, 0
11, 187440, Note_on_c, 10, 60, 100
11, 187560, Note_on_c, 10, 60, 0
11, 187560, Note_on_c, 10, 53, 100
11, 187680, Note_on_c, 10, 53, 0
11, 187680, Note_on_c, 10, 53, 100
11, 187800, Note_on_c, 10, 53, 0
11, 187800, Note_on_c, 10, 60, 100
11, 187920, Note_on_c, 10, 60, 0
11, 187920, Note_on_c, 10, 53, 100
11, 188040, Note_on_c, 10, 53, 0
11, 188040, Note_on_c, 10, 53, 100
11, 188160, Note_on_c, 10, 53, 0
11, 188160, Note_on_c, 10, 60, 100
11, 188280, Note_on_c, 10, 60, 0
11, 188280, Note_on_c, 10, 53, 100
11, 188400, Note_on_c, 10, 53, 0
11, 188400, Note_on_c, 10, 53, 100
11, 188520, Note_on_c, 10, 53, 0
11, 188520, Note_on_c, 10, 60, 100
11, 188640, Note_on_c, 10, 60, 0
11, 188640, Note_on_c, 10, 53, 100
11, 188760, Note_on_c, 10, 53, 0
11, 188760, Note_on_c, 10, 53, 100
11, 188880, Note_on_c, 10, 53, 0
11, 188880, Note_on_c, 10, 53, 100
11, 189000, Note_on_c, 10, 53, 0
11, 189000, Note_on_c, 10, 50, 100
11, 189000, Note_on_c, 10, 53, 100
11, 189120, Note_on_c, 10, 53, 0
11, 189120, Note_on_c, 10, 50, 0
11, 189120, Note_on_c, 10, 50, 100
11, 189120, Note_on_c, 10, 53, 100
11, 189240, Note_on_c, 10, 53, 0
11, 189240, Note_on_c, 10, 50, 0
11, 189240, Note_on_c, 10, 58, 100
11, 189240, Note_on_c, 10, 53, 100
11, 189360, Note_on_c, 10, 53, 0
11, 189360, Note_on_c, 10, 58, 0
11, 189360, Note_on_c, 10, 50, 100
11, 189360, Note_on_c, 10, 53, 100
11, 189480, Note_on_c, 10, 53, 0
11, 189480, Note_on_c, 10, 50, 0
11, 189480, Note_on_c, 10, 50, 100
11, 189480, Note_on_c, 10, 53, 100
11, 189600, Note_on_c, 10, 53, 0
11, 189600, Note_on_c, 10, 50, 0
11, 189600, Note_on_c, 10, 53, 100
11, 189600, Note_on_c, 10, 58, 100
11, 189720, Note_on_c, 10, 58, 0
11, 189720, Note_on_c, 10, 53, 0
11, 189720, Note_on_c, 10, 50, 100
11, 189720, Note_on_c, 10, 53, 100
11, 189840, Note_on_c, 10, 53, 0
11, 189840, Note_on_c, 10, 50, 0
11, 189840, Note_on_c, 10, 50, 100
11, 189840, Note_on_c, 10, 53, 100
11, 189960, Note_on_c, 10, 53, 0
11, 189960, Note_on_c, 10, 50, 0
11, 189960, Note_on_c, 10, 53, 100
11, 189960, Note_on_c, 10, 58, 100
11, 190080, Note_on_c, 10, 58, 0
11, 190080, Note_on_c, 10, 53, 0
11, 190080, Note_on_c, 10, 53, 100
11, 190080, Note_on_c, 10, 60, 100
11, 190200, Note_on_c, 10, 60, 0
11, 190200, Note_on_c, 10, 53, 0
11, 190200, Note_on_c, 10, 53, 100
11, 190200, Note_on_c, 10, 60, 100
11, 190320, Note_on_c, 10, 60, 0
11, 190320, Note_on_c, 10, 53, 0
11, 190320, Note_on_c, 10, 53, 100
11, 190320, Note_on_c, 10, 60, 100
11, 190440, Note_on_c, 10, 60, 0
11, 190440, Note_on_c, 10, 53, 0
11, 190440, Note_on_c, 10, 53, 100
11, 190440, Note_on_c, 10, 57, 100
11, 190560, Note_on_c, 10, 57, 0
11, 190560, Note_on_c, 10, 53, 0
11, 190560, Note_on_c, 10, 53, 100
11, 190560, Note_on_c, 10, 57, 100
11, 190680, Note_on_c, 10, 57, 0
11, 190680, Note_on_c, 10, 53, 0
11, 190680, Note_on_c, 10, 60, 100
11, 190680, Note_on_c, 10, 57, 100
11, 190800, Note_on_c, 10, 57, 0
11, 190800, Note_on_c, 10, 60, 0
11, 190800, Note_on_c, 10, 53, 100
11, 190800, Note_on_c, 10, 57, 100
11, 190920, Note_on_c, 10, 57, 0
11, 190920, Note_on_c, 10, 53, 0
11, 190920, Note_on_c, 10, 53, 100
11, 190920, Note_on_c, 10, 57, 100
11, 191040, Note_on_c, 10, 57, 0
11, 191040, Note_on_c, 10, 53, 0
11, 191040, Note_on_c, 10, 60, 100
11, 191040, Note_on_c, 10, 57, 100
11, 191160, Note_on_c, 10, 57, 0
11, 191160, Note_on_c, 10, 60, 0
11, 191160, Note_on_c, 10, 53, 100
11, 191160, Note_on_c, 10, 57, 100
11, 191280, Note_on_c, 10, 57, 0
11, 191280, Note_on_c, 10, 53, 0
11, 191280, Note_on_c, 10, 53, 100
11, 191280, Note_on_c, 10, 57, 100
11, 191400, Note_on_c, 10, 57, 0
11, 191400, Note_on_c, 10, 53, 0
11, 191400, Note_on_c, 10, 60, 100
11, 191400, Note_on_c, 10, 57, 100
11, 191520, Note_on_c, 10, 57, 0
11, 191520, Note_on_c, 10, 60, 0
11, 191520, Note_on_c, 10, 53, 100
11, 191520, Note_on_c, 10, 58, 100
11, 191640, Note_on_c, 10, 58, 0
11, 191640, Note_on_c, 10, 53, 0
11, 191640, Note_on_c, 10, 53, 100
11, 191640, Note_on_c, 10, 58, 100
11, 191760, Note_on_c, 10, 58, 0
11, 191760, Note_on_c, 10, 53, 0
11, 191760, Note_on_c, 10, 58, 100
11, 191760, Note_on_c, 10, 62, 100
11, 191880, Note_on_c, 10, 62, 0
11, 191880, Note_on_c, 10, 58, 0
11, 192240, Note_on_c, 10, 65, 100
11, 192360, Note_on_c, 10, 65, 0
11, 192360, Note_on_c, 10, 65, 100
11, 192480, Note_on_c, 10, 65, 0
11, 192480, Note_on_c, 10, 64, 100
11, 192600, Note_on_c, 10, 64, 0
11, 192600, Note_on_c, 10, 62, 100
11, 192720, Note_on_c, 10, 62, 0
11, 192720, Note_on_c, 10, 62, 100
11, 192840, Note_on_c, 10, 62, 0
11, 192840, Note_on_c, 10, 60, 100
11, 192960, Note_on_c, 10, 60, 0
11, 192960, Note_on_c, 10, 58, 100
11, 193080, Note_on_c, 10, 58, 0
11, 193080, Note_on_c, 10, 58, 100
11, 193200, Note_on_c, 10, 58, 0
11, 193200, Note_on_c, 10, 57, 100
11, 193320, Note_on_c, 10, 57, 0
11, 193320, Note_on_c, 10, 55, 100
11, 193440, Note_on_c, 10, 55, 0
11, 193440, Note_on_c, 10, 55, 100
11, 193560, Note_on_c, 10, 55, 0
11, 193560, Note_on_c, 10, 53, 100
11, 193680, Note_on_c, 10, 53, 0
11, 193680, Note_on_c, 10, 52, 100
11, 193800, Note_on_c, 10, 52, 0
11, 193800, Note_on_c, 10, 52, 100
11, 193920, Note_on_c, 10, 52, 0
11, 193920, Note_on_c, 10, 50, 100
11, 194040, Note_on_c, 10, 50, 0
11, 194040, Note_on_c, 10, 48, 100
11, 194160, Note_on_c, 10, 48, 0
11, 194160, Note_on_c, 10, 58, 100
11, 194280, Note_on_c, 10, 58, 0
11, 194280, Note_on_c, 10, 57, 100
11, 194400, Note_on_c, 10, 57, 0
11, 194400, Note_on_c, 10, 57, 100
11, 194520, Note_on_c, 10, 57, 0
11, 194520, Note_on_c, 10, 53, 100
11, 194580, Note_on_c, 10, 53, 0
11, 194640, Note_on_c, 10, 57, 100
11, 194760, Note_on_c, 10, 57, 0
11, 194760, Note_on_c, 10, 57, 100
11, 194790, Note_on_c, 10, 57, 0
11, 194790, Note_on_c, 10, 60, 100
11, 194790, Note_on_c, 10, 57, 100
11, 194880, Note_on_c, 10, 57, 0
11, 194880, Note_on_c, 10, 60, 0
11, 194880, Note_on_c, 10, 53, 100
11, 194880, Note_on_c, 10, 57, 100
11, 194940, Note_on_c, 10, 57, 0
11, 194940, Note_on_c, 10, 53, 0
11, 195000, Note_on_c, 10, 60, 100
11, 195000, Note_on_c, 10, 57, 100
11, 195120, Note_on_c, 10, 57, 0
11, 195120, Note_on_c, 10, 60, 0
11, 195120, Note_on_c, 10, 53, 100
11, 196320, Note_on_c, 10, 53, 0
11, 196320, Note_on_c, 10, 52, 100
11, 196440, Note_on_c, 10, 52, 0
11, 196440, Note_on_c, 10, 52, 100
11, 196560, Note_on_c, 10, 52, 0
11, 196560, Note_on_c, 10, 52, 100
11, 197760, Note_on_c, 10, 52, 0
11, 197760, Note_on_c, 10, 53, 100
11, 197880, Note_on_c, 10, 53, 0
11, 197880, Note_on_c, 10, 53, 100
11, 198000, Note_on_c, 10, 53, 0
11, 198000, Note_on_c, 10, 57, 100
11, 198000, Note_on_c, 10, 65, 100
11, 199200, Note_on_c, 10, 65, 0
11, 199200, Note_on_c, 10, 57, 0
11, 199200, Note_on_c, 10, 60, 100
11, 199200, Note_on_c, 10, 67, 100
11, 199320, Note_on_c, 10, 67, 0
11, 199320, Note_on_c, 10, 60, 0
11, 199320, Note_on_c, 10, 60, 100
11, 199320, Note_on_c, 10, 67, 100
11, 199440, Note_on_c, 10, 67, 0
11, 199440, Note_on_c, 10, 60, 0
11, 199440, Note_on_c, 10, 60, 100
11, 199440, Note_on_c, 10, 67, 100
11, 200640, Note_on_c, 10, 67, 0
11, 200640, Note_on_c, 10, 60, 0
11, 200640, Note_on_c, 10, 65, 100
11, 200640, Note_on_c, 10, 69, 100
11, 200760, Note_on_c, 10, 69, 0
11, 200760, Note_on_c, 10, 65, 0
11, 200760, Note_on_c, 10, 65, 100
11, 200760, Note_on_c, 10, 69, 100
11, 200880, Note_on_c, 10, 69, 0
11, 200880, Note_on_c, 10, 65, 0
11, 200880, Note_on_c, 10, 60, 100
11, 201000, Note_on_c, 10, 60, 0
11, 201000, Note_on_c, 10, 60, 100
11, 201120, Note_on_c, 10, 60, 0
11, 201120, Note_on_c, 10, 60, 100
11, 201240, Note_on_c, 10, 60, 0
11, 201240, Note_on_c, 10, 60, 100
11, 201480, Note_on_c, 10, 60, 0
11, 201480, Note_on_c, 10, 60, 100
11, 201600, Note_on_c, 10, 60, 0
11, 202320, Note_on_c, 10, 60, 100
11, 202440, Note_on_c, 10, 60, 0
11, 202440, Note_on_c, 10, 60, 100
11, 202560, Note_on_c, 10, 60, 0
11, 202560, Note_on_c, 10, 60, 100
11, 202680, Note_on_c, 10, 60, 0
11, 202680, Note_on_c, 10, 60, 100
11, 202920, Note_on_c, 10, 60, 0
11, 202920, Note_on_c, 10, 60, 100
11, 203040, Note_on_c, 10, 60, 0
11, 203040, Note_on_c, 10, 58, 100
11, 203280, Note_on_c, 10, 58, 0
11, 203280, Note_on_c, 10, 65, 100
11, 203400, Note_on_c, 10, 65, 0
11, 203400, Note_on_c, 10, 53, 100
11, 203640, Note_on_c, 10, 53, 0
11, 203640, Note_on_c, 10, 60, 100
11, 203760, Note_on_c, 10, 60, 0
11, 203760, Note_on_c, 10, 60, 100
11, 204000, Note_on_c, 10, 60, 0
11, 204000, Note_on_c, 10, 67, 100
11, 204120, Note_on_c, 10, 67, 0
11, 204120, Note_on_c, 10, 67, 100
11, 204360, Note_on_c, 10, 67, 0
11, 204360, Note_on_c, 10, 67, 100
11, 204480, Note_on_c, 10, 67, 0
11, 204480, Note_on_c, 10, 62, 100
11, 204600, Note_on_c, 10, 62, 0
11, 204600, Note_on_c, 10, 62, 100
11, 204720, Note_on_c, 10, 62, 0
11, 204720, Note_on_c, 10, 65, 100
11, 204840, Note_on_c, 10, 65, 0
11, 204840, Note_on_c, 10, 60, 100
11, 204960, Note_on_c, 10, 60, 0
11, 204960, Note_on_c, 10, 60, 100
11, 205080, Note_on_c, 10, 60, 0
11, 205080, Note_on_c, 10, 64, 100
11, 205200, Note_on_c, 10, 64, 0
11, 205200, Note_on_c, 10, 59, 100
11, 205320, Note_on_c, 10, 59, 0
11, 205320, Note_on_c, 10, 59, 100
11, 205440, Note_on_c, 10, 59, 0
11, 205440, Note_on_c, 10, 62, 100
11, 205560, Note_on_c, 10, 62, 0
11, 205560, Note_on_c, 10, 60, 100
11, 205680, Note_on_c, 10, 60, 0
11, 205680, Note_on_c, 10, 60, 100
11, 205800, Note_on_c, 10, 60, 0
11, 205800, Note_on_c, 10, 64, 100
11, 205920, Note_on_c, 10, 64, 0
11, 205920, Note_on_c, 10, 62, 100
11, 206040, Note_on_c, 10, 62, 0
11, 206040, Note_on_c, 10, 62, 100
11, 206160, Note_on_c, 10, 62, 0
11, 206160, Note_on_c, 10, 65, 100
11, 206280, Note_on_c, 10, 65, 0
11, 206280, Note_on_c, 10, 60, 100
11, 206400, Note_on_c, 10, 60, 0
11, 206400, Note_on_c, 10, 64, 100
11, 206520, Note_on_c, 10, 64, 0
11, 206520, Note_on_c, 10, 64, 100
11, 206640, Note_on_c, 10, 64, 0
11, 206640, Note_on_c, 10, 62, 100
11, 206760, Note_on_c, 10, 62, 0
11, 206760, Note_on_c, 10, 62, 100
11, 206880, Note_on_c, 10, 62, 0
11, 206880, Note_on_c, 10, 65, 100
11, 207000, Note_on_c, 10, 65, 0
11, 207000, Note_on_c, 10, 60, 100
11, 207120, Note_on_c, 10, 60, 0
11, 207120, Note_on_c, 10, 60, 100
11, 207240, Note_on_c, 10, 60, 0
11, 207240, Note_on_c, 10, 64, 100
11, 207360, Note_on_c, 10, 64, 0
11, 207360, Note_on_c, 10, 58, 100
11, 207390, Note_on_c, 10, 58, 0
11, 207390, Note_on_c, 10, 60, 100
11, 207420, Note_on_c, 10, 60, 0
11, 207420, Note_on_c, 10, 58, 100
11, 207450, Note_on_c, 10, 58, 0
11, 207450, Note_on_c, 10, 60, 100
11, 207480, Note_on_c, 10, 60, 0
11, 207480, Note_on_c, 10, 58, 100
11, 207510, Note_on_c, 10, 58, 0
11, 207510, Note_on_c, 10, 60, 100
11, 207540, Note_on_c, 10, 60, 0
11, 207540, Note_on_c, 10, 58, 100
11, 207570, Note_on_c, 10, 58, 0
11, 207570, Note_on_c, 10, 60, 100
11, 207600, Note_on_c, 10, 60, 0
11, 207600, Note_on_c, 10, 58, 100
11, 207630, Note_on_c, 10, 58, 0
11, 207630, Note_on_c, 10, 60, 100
11, 207660, Note_on_c, 10, 60, 0
11, 207660, Note_on_c, 10, 57, 100
11, 207690, Note_on_c, 10, 57, 0
11, 207690, Note_on_c, 10, 58, 100
11, 207720, Note_on_c, 10, 58, 0
11, 207720, Note_on_c, 10, 57, 100
11, 207840, Note_on_c, 10, 57, 0
11, 207840, Note_on_c, 10, 60, 100
11, 207840, Note_on_c, 10, 57, 100
11, 207960, Note_on_c, 10, 57, 0
11, 207960, Note_on_c, 10, 60, 0
11, 207960, Note_on_c, 10, 53, 100
11, 207960, Note_on_c, 10, 57, 100
11, 208080, Note_on_c, 10, 57, 0
11, 208080, Note_on_c, 10, 53, 0
11, 208080, Note_on_c, 10, 58, 100
11, 208110, Note_on_c, 10, 58, 0
11, 208110, Note_on_c, 10, 60, 100
11, 208140, Note_on_c, 10, 60, 0
11, 208140, Note_on_c, 10, 58, 100
11, 208170, Note_on_c, 10, 58, 0
11, 208170, Note_on_c, 10, 60, 100
11, 208200, Note_on_c, 10, 60, 0
11, 208200, Note_on_c, 10, 58, 100
11, 208230, Note_on_c, 10, 58, 0
11, 208230, Note_on_c, 10, 60, 100
11, 208260, Note_on_c, 10, 60, 0
11, 208260, Note_on_c, 10, 58, 100
11, 208290, Note_on_c, 10, 58, 0
11, 208290, Note_on_c, 10, 60, 100
11, 208320, Note_on_c, 10, 60, 0
11, 208320, Note_on_c, 10, 58, 100
11, 208350, Note_on_c, 10, 58, 0
11, 208350, Note_on_c, 10, 60, 100
11, 208380, Note_on_c, 10, 60, 0
11, 208380, Note_on_c, 10, 57, 100
11, 208410, Note_on_c, 10, 57, 0
11, 208410, Note_on_c, 10, 58, 100
11, 208440, Note_on_c, 10, 58, 0
11, 208440, Note_on_c, 10, 53, 100
11, 208440, Note_on_c, 10, 57, 100
11, 208560, Note_on_c, 10, 57, 0
11, 208560, Note_on_c, 10, 53, 0
11, 208560, Note_on_c, 10, 60, 100
11, 208560, Note_on_c, 10, 57, 100
11, 208680, Note_on_c, 10, 57, 0
11, 208680, Note_on_c, 10, 60, 0
11, 208680, Note_on_c, 10, 53, 100
11, 208680, Note_on_c, 10, 57, 100
11, 208800, Note_on_c, 10, 57, 0
11, 208800, Note_on_c, 10, 53, 0
11, 208800, Note_on_c, 10, 58, 100
11, 208830, Note_on_c, 10, 58, 0
11, 208830, Note_on_c, 10, 60, 100
11, 208860, Note_on_c, 10, 60, 0
11, 208860, Note_on_c, 10, 58, 100
11, 208890, Note_on_c, 10, 58, 0
11, 208890, Note_on_c, 10, 60, 100
11, 208920, Note_on_c, 10, 60, 0
11, 208920, Note_on_c, 10, 58, 100
11, 208950, Note_on_c, 10, 58, 0
11, 208950, Note_on_c, 10, 60, 100
11, 208980, Note_on_c, 10, 60, 0
11, 208980, Note_on_c, 10, 58, 100
11, 209010, Note_on_c, 10, 58, 0
11, 209010, Note_on_c, 10, 60, 100
11, 209040, Note_on_c, 10, 60, 0
11, 209040, Note_on_c, 10, 58, 100
11, 209070, Note_on_c, 10, 58, 0
11, 209070, Note_on_c, 10, 60, 100
11, 209100, Note_on_c, 10, 60, 0
11, 209100, Note_on_c, 10, 57, 100
11, 209130, Note_on_c, 10, 57, 0
11, 209130, Note_on_c, 10, 58, 100
11, 209160, Note_on_c, 10, 58, 0
11, 209160, Note_on_c, 10, 57, 100
11, 209280, Note_on_c, 10, 57, 0
11, 209280, Note_on_c, 10, 60, 100
11, 209280, Note_on_c, 10, 57, 100
11, 209400, Note_on_c, 10, 57, 0
11, 209400, Note_on_c, 10, 60, 0
11, 209400, Note_on_c, 10, 53, 100
11, 209400, Note_on_c, 10, 57, 100
11, 209520, Note_on_c, 10, 57, 0
11, 209520, Note_on_c, 10, 53, 0
11, 209520, Note_on_c, 10, 58, 100
11, 209550, Note_on_c, 10, 58, 0
11, 209550, Note_on_c, 10, 60, 100
11, 209580, Note_on_c, 10, 60, 0
11, 209580, Note_on_c, 10, 58, 100
11, 209610, Note_on_c, 10, 58, 0
11, 209610, Note_on_c, 10, 60, 100
11, 209640, Note_on_c, 10, 60, 0
11, 209640, Note_on_c, 10, 58, 100
11, 209670, Note_on_c, 10, 58, 0
11, 209670, Note_on_c, 10, 60, 100
11, 209700, Note_on_c, 10, 60, 0
11, 209700, Note_on_c, 10, 58, 100
11, 209730, Note_on_c, 10, 58, 0
11, 209730, Note_on_c, 10, 60, 100
11, 209760, Note_on_c, 10, 60, 0
11, 209760, Note_on_c, 10, 58, 100
11, 209790, Note_on_c, 10, 58, 0
11, 209790, Note_on_c, 10, 60, 100
11, 209820, Note_on_c, 10, 60, 0
11, 209820, Note_on_c, 10, 57, 100
11, 209850, Note_on_c, 10, 57, 0
11, 209850, Note_on_c, 10, 58, 100
11, 209880, Note_on_c, 10, 58, 0
11, 209880, Note_on_c, 10, 57, 100
11, 210000, Note_on_c, 10, 57, 0
11, 210000, Note_on_c, 10, 60, 100
11, 210000, Note_on_c, 10, 57, 100
11, 210120, Note_on_c, 10, 57, 0
11, 210120, Note_on_c, 10, 60, 0
11, 210120, Note_on_c, 10, 53, 100
11, 210120, Note_on_c, 10, 57, 100
11, 210240, Note_on_c, 10, 57, 0
11, 210240, Note_on_c, 10, 53, 0
11, 210240, Note_on_c, 10, 58, 100
11, 210270, Note_on_c, 10, 58, 0
11, 210270, Note_on_c, 10, 60, 100
11, 210300, Note_on_c, 10, 60, 0
11, 210300, Note_on_c, 10, 58, 100
11, 210330, Note_on_c, 10, 58, 0
11, 210330, Note_on_c, 10, 60, 100
11, 210360, Note_on_c, 10, 60, 0
11, 210360, Note_on_c, 10, 58, 100
11, 210390, Note_on_c, 10, 58, 0
11, 210390, Note_on_c, 10, 60, 100
11, 210420, Note_on_c, 10, 60, 0
11, 210420, Note_on_c, 10, 58, 100
11, 210450, Note_on_c, 10, 58, 0
11, 210450, Note_on_c, 10, 60, 100
11, 210480, Note_on_c, 10, 60, 0
11, 210480, Note_on_c, 10, 58, 100
11, 210510, Note_on_c, 10, 58, 0
11, 210510, Note_on_c, 10, 60, 100
11, 210540, Note_on_c, 10, 60, 0
11, 210540, Note_on_c, 10, 57, 100
11, 210570, Note_on_c, 10, 57, 0
11, 210570, Note_on_c, 10, 58, 100
11, 210600, Note_on_c, 10, 58, 0
11, 210600, Note_on_c, 10, 57, 100
11, 210720, Note_on_c, 10, 57, 0
11, 210720, Note_on_c, 10, 72, 100
11, 210840, Note_on_c, 10, 72, 0
11, 210840, Note_on_c, 10, 69, 100
11, 210960, Note_on_c, 10, 69, 0
11, 210960, Note_on_c, 10, 65, 100
11, 211080, Note_on_c, 10, 65, 0
11, 211080, Note_on_c, 10, 60, 100
11, 211200, Note_on_c, 10, 60, 0
11, 211200, Note_on_c, 10, 57, 100
11, 211320, Note_on_c, 10, 57, 0
11, 211320, Note_on_c, 10, 53, 100
11, 211440, Note_on_c, 10, 53, 0
11, 211920, Note_on_c, 10, 53, 100
11, 212040, Note_on_c, 10, 53, 0
11, 212040, Note_on_c, 10, 53, 100
11, 212070, Note_on_c, 10, 53, 0
11, 212070, Note_on_c, 10, 57, 100
11, 212160, Note_on_c, 10, 57, 0
11, 212160, Note_on_c, 10, 53, 100
11, 212220, Note_on_c, 10, 53, 0
11, 213000, Note_on_c, 10, 53, 100
11, 213120, Note_on_c, 10, 53, 0
11, 213120, Note_on_c, 10, 53, 100
11, 213150, Note_on_c, 10, 53, 0
11, 213150, Note_on_c, 10, 57, 100
11, 213240, Note_on_c, 10, 57, 0
11, 213240, Note_on_c, 10, 53, 100
11, 213300, Note_on_c, 10, 53, 0
11, 213360, Note_on_c, 10, 53, 100
11, 213480, Note_on_c, 10, 53, 0
11, 213480, Note_on_c, 10, 53, 100
11, 213510, Note_on_c, 10, 53, 0
11, 213510, Note_on_c, 10, 57, 100
11, 213600, Note_on_c, 10, 57, 0
11, 213600, Note_on_c, 10, 53, 100
11, 213720, Note_on_c, 10, 53, 0
11, 213720, Note_on_c, 10, 53, 100
11, 213840, Note_on_c, 10, 53, 0
11, 213840, Note_on_c, 10, 53, 100
11, 213870, Note_on_c, 10, 53, 0
11, 213870, Note_on_c, 10, 57, 100
11, 213960, Note_on_c, 10, 57, 0
11, 213960, Note_on_c, 10, 53, 100
11, 214080, Note_on_c, 10, 53, 0
11, 214080, Note_on_c, 10, 53, 100
11, 214200, Note_on_c, 10, 53, 0
11, 214200, Note_on_c, 10, 53, 100
11, 214230, Note_on_c, 10, 53, 0
11, 214230, Note_on_c, 10, 57, 100
11, 214320, Note_on_c, 10, 57, 0
11, 214320, Note_on_c, 10, 53, 100
11, 214440, Note_on_c, 10, 53, 0
11, 214440, Note_on_c, 10, 53, 100
11, 214560, Note_on_c, 10, 53, 0
11, 214560, Note_on_c, 10, 57, 100
11, 216000, Note_on_c, 10, 57, 0
11, 216000, Note_on_c, 10, 50, 100
11, 216120, Note_on_c, 10, 50, 0
11, 236280, Note_on_c, 10, 57, 100
11, 236520, Note_on_c, 10, 57, 0
11, 236520, Note_on_c, 10, 57, 100
11, 236760, Note_on_c, 10, 57, 0
11, 236760, Note_on_c, 10, 57, 100
11, 236880, Note_on_c, 10, 57, 0
11, 236880, Note_on_c, 10, 54, 100
11, 237180, Note_on_c, 10, 54, 0
11, 237180, Note_on_c, 10, 55, 100
11, 237240, Note_on_c, 10, 55, 0
11, 237240, Note_on_c, 10, 54, 100
11, 237360, Note_on_c, 10, 54, 0
11, 237600, Note_on_c, 10, 54, 100
11, 237900, Note_on_c, 10, 54, 0
11, 237900, Note_on_c, 10, 55, 100
11, 237960, Note_on_c, 10, 55, 0
11, 237960, Note_on_c, 10, 54, 100
11, 238080, Note_on_c, 10, 54, 0
11, 238320, Note_on_c, 10, 54, 100
11, 238560, Note_on_c, 10, 54, 0
11, 238560, Note_on_c, 10, 57, 100
11, 238680, Note_on_c, 10, 57, 0
11, 238680, Note_on_c, 10, 62, 100
11, 238800, Note_on_c, 10, 62, 0
11, 238800, Note_on_c, 10, 57, 100
11, 238920, Note_on_c, 10, 57, 0
11, 238920, Note_on_c, 10, 62, 100
11, 239040, Note_on_c, 10, 62, 0
11, 239040, Note_on_c, 10, 57, 100
11, 239160, Note_on_c, 10, 57, 0
11, 239760, Note_on_c, 10, 55, 100
11, 240060, Note_on_c, 10, 55, 0
11, 240060, Note_on_c, 10, 54, 100
11, 240120, Note_on_c, 10, 54, 0
11, 240120, Note_on_c, 10, 55, 100
11, 240240, Note_on_c, 10, 55, 0
11, 240480, Note_on_c, 10, 55, 100
11, 240780, Note_on_c, 10, 55, 0
11, 240780, Note_on_c, 10, 54, 100
11, 240840, Note_on_c, 10, 54, 0
11, 240840, Note_on_c, 10, 55, 100
11, 240960, Note_on_c, 10, 55, 0
11, 241200, Note_on_c, 10, 55, 100
11, 241440, Note_on_c, 10, 55, 0
11, 241440, Note_on_c, 10, 54, 100
11, 241560, Note_on_c, 10, 54, 0
11, 241560, Note_on_c, 10, 52, 100
11, 241680, Note_on_c, 10, 52, 0
11, 241680, Note_on_c, 10, 57, 100
11, 241800, Note_on_c, 10, 57, 0
11, 241800, Note_on_c, 10, 57, 100
11, 241920, Note_on_c, 10, 57, 0
11, 241920, Note_on_c, 10, 50, 100
11, 241920, Note_on_c, 10, 62, 100
11, 242040, Note_on_c, 10, 62, 0
11, 242040, Note_on_c, 10, 50, 0
11, 251400, Note_on_c, 10, 57, 100
11, 251640, Note_on_c, 10, 57, 0
11, 251640, Note_on_c, 10, 57, 100
11, 251880, Note_on_c, 10, 57, 0
11, 251880, Note_on_c, 10, 57, 100
11, 252000, Note_on_c, 10, 57, 0
11, 252000, Note_on_c, 10, 54, 100
11, 252300, Note_on_c, 10, 54, 0
11, 252300, Note_on_c, 10, 55, 100
11, 252360, Note_on_c, 10, 55, 0
11, 252360, Note_on_c, 10, 54, 100
11, 252480, Note_on_c, 10, 54, 0
11, 252720, Note_on_c, 10, 54, 100
11, 253020, Note_on_c, 10, 54, 0
11, 253020, Note_on_c, 10, 55, 100
11, 253080, Note_on_c, 10, 55, 0
11, 253080, Note_on_c, 10, 54, 100
11, 253200, Note_on_c, 10, 54, 0
11, 253440, Note_on_c, 10, 54, 100
11, 253680, Note_on_c, 10, 54, 0
11, 253680, Note_on_c, 10, 57, 100
11, 253800, Note_on_c, 10, 57, 0
11, 253800, Note_on_c, 10, 62, 100
11, 253920, Note_on_c, 10, 62, 0
11, 253920, Note_on_c, 10, 57, 100
11, 254040, Note_on_c, 10, 57, 0
11, 254040, Note_on_c, 10, 62, 100
11, 254160, Note_on_c, 10, 62, 0
11, 254160, Note_on_c, 10, 57, 100
11, 254280, Note_on_c, 10, 57, 0
11, 254880, Note_on_c, 10, 55, 100
11, 255180, Note_on_c, 10, 55, 0
11, 255180, Note_on_c, 10, 54, 100
11, 255240, Note_on_c, 10, 54, 0
11, 255240, Note_on_c, 10, 55, 100
11, 255360, Note_on_c, 10, 55, 0
11, 255600, Note_on_c, 10, 55, 100
11, 255900, Note_on_c, 10, 55, 0
11, 255900, Note_on_c, 10, 54, 100
11, 255960, Note_on_c, 10, 54, 0
11, 255960, Note_on_c, 10, 55, 100
11, 256080, Note_on_c, 10, 55, 0
11, 256320, Note_on_c, 10, 55, 100
11, 256560, Note_on_c, 10, 55, 0
11, 256560, Note_on_c, 10, 54, 100
11, 256680, Note_on_c, 10, 54, 0
11, 256680, Note_on_c, 10, 52, 100
11, 256800, Note_on_c, 10, 52, 0
11, 256800, Note_on_c, 10, 57, 100
11, 256920, Note_on_c, 10, 57, 0
11, 256920, Note_on_c, 10, 57, 100
11, 257040, Note_on_c, 10, 57, 0
11, 257040, Note_on_c, 10, 50, 100
11, 257040, Note_on_c, 10, 62, 100
11, 257160, Note_on_c, 10, 62, 0
11, 257160, Note_on_c, 10, 50, 0
11, 257760, Note_on_c, 10, 57, 100
11, 262080, Note_on_c, 10, 57, 0
11, 262080, Note_on_c, 10, 58, 100
11, 262680, Note_on_c, 10, 58, 0
11, 262680, Note_on_c, 10, 53, 100
11, 262800, Note_on_c, 10, 53, 0
11, 262800, Note_on_c, 10, 53, 100
11, 262830, Note_on_c, 10, 53, 0
11, 262830, Note_on_c, 10, 57, 100
11, 262920, Note_on_c, 10, 57, 0
11, 262920, Note_on_c, 10, 53, 100
11, 262980, Note_on_c, 10, 53, 0
11, 263040, Note_on_c, 10, 53, 100
11, 263040, Note_on_c, 10, 57, 100
11, 263160, Note_on_c, 10, 57, 0
11, 263160, Note_on_c, 10, 53, 0
11, 263160, Note_on_c, 10, 57, 100
11, 263160, Note_on_c, 10, 53, 100
11, 263190, Note_on_c, 10, 53, 0
11, 263190, Note_on_c, 10, 57, 0
11, 263190, Note_on_c, 10, 57, 100
11, 263190, Note_on_c, 10, 60, 100
11, 263280, Note_on_c, 10, 60, 0
11, 263280, Note_on_c, 10, 57, 0
11, 263280, Note_on_c, 10, 53, 100
11, 263280, Note_on_c, 10, 57, 100
11, 263340, Note_on_c, 10, 57, 0
11, 263340, Note_on_c, 10, 53, 0
11, 263400, Note_on_c, 10, 60, 100
11, 263400, Note_on_c, 10, 57, 100
11, 263520, Note_on_c, 10, 57, 0
11, 263520, Note_on_c, 10, 60, 0
11, 263520, Note_on_c, 10, 53, 100
11, 263520, Note_on_c, 10, 57, 100
11, 263640, Note_on_c, 10, 57, 0
11, 263640, Note_on_c, 10, 53, 0
11, 263640, Note_on_c, 10, 53, 100
11, 263640, Note_on_c, 10, 57, 100
11, 263760, Note_on_c, 10, 57, 0
11, 263760, Note_on_c, 10, 53, 0
11, 263760, Note_on_c, 10, 60, 100
11, 263760, Note_on_c, 10, 57, 100
11, 263880, Note_on_c, 10, 57, 0
11, 263880, Note_on_c, 10, 60, 0
11, 263880, Note_on_c, 10, 53, 100
11, 263880, Note_on_c, 10, 57, 100
11, 264000, Note_on_c, 10, 57, 0
11, 264000, Note_on_c, 10, 53, 0
11, 264000, Note_on_c, 10, 53, 100
11, 264000, Note_on_c, 10, 57, 100
11, 264120, Note_on_c, 10, 57, 0
11, 264120, Note_on_c, 10, 53, 0
11, 264120, Note_on_c, 10, 60, 100
11, 264120, Note_on_c, 10, 57, 100
11, 264240, Note_on_c, 10, 57, 0
11, 264240, Note_on_c, 10, 60, 0
11, 264240, Note_on_c, 10, 53, 100
11, 264240, Note_on_c, 10, 57, 100
11, 264360, Note_on_c, 10, 57, 0
11, 264360, Note_on_c, 10, 53, 0
11, 264360, Note_on_c, 10, 53, 100
11, 264360, Note_on_c, 10, 57, 100
11, 264480, Note_on_c, 10, 57, 0
11, 264480, Note_on_c, 10, 53, 0
11, 264480, Note_on_c, 10, 57, 100
11, 264480, Note_on_c, 10, 60, 100
11, 264600, Note_on_c, 10, 60, 0
11, 264600, Note_on_c, 10, 57, 0
11, 264600, Note_on_c, 10, 48, 100
11, 264600, Note_on_c, 10, 55, 100
11, 264720, Note_on_c, 10, 55, 0
11, 264720, Note_on_c, 10, 48, 0
11, 264720, Note_on_c, 10, 48, 100
11, 264720, Note_on_c, 10, 55, 100
11, 264840, Note_on_c, 10, 55, 0
11, 264840, Note_on_c, 10, 48, 0
11, 264840, Note_on_c, 10, 48, 100
11, 264840, Note_on_c, 10, 60, 100
11, 264960, Note_on_c, 10, 60, 0
11, 264960, Note_on_c, 10, 48, 0
11, 264960, Note_on_c, 10, 55, 100
11, 264960, Note_on_c, 10, 48, 100
11, 265080, Note_on_c, 10, 48, 0
11, 265080, Note_on_c, 10, 55, 0
11, 265080, Note_on_c, 10, 55, 100
11, 265080, Note_on_c, 10, 48, 100
11, 265200, Note_on_c, 10, 48, 0
11, 265200, Note_on_c, 10, 55, 0
11, 265200, Note_on_c, 10, 60, 100
11, 265200, Note_on_c, 10, 48, 100
11, 265320, Note_on_c, 10, 48, 0
11, 265320, Note_on_c, 10, 60, 0
11, 265320, Note_on_c, 10, 55, 100
11, 265320, Note_on_c, 10, 48, 100
11, 265440, Note_on_c, 10, 48, 0
11, 265440, Note_on_c, 10, 55, 0
11, 265440, Note_on_c, 10, 55, 100
11, 265440, Note_on_c, 10, 48, 100
11, 265560, Note_on_c, 10, 48, 0
11, 265560, Note_on_c, 10, 55, 0
11, 265560, Note_on_c, 10, 60, 100
11, 265560, Note_on_c, 10, 48, 100
11, 265680, Note_on_c, 10, 48, 0
11, 265680, Note_on_c, 10, 60, 0
11, 265680, Note_on_c, 10, 48, 100
11, 265680, Note_on_c, 10, 55, 100
11, 265800, Note_on_c, 10, 55, 0
11, 265800, Note_on_c, 10, 48, 0
11, 265800, Note_on_c, 10, 48, 100
11, 265800, Note_on_c, 10, 55, 100
11, 265920, Note_on_c, 10, 55, 0
11, 265920, Note_on_c, 10, 48, 0
11, 265920, Note_on_c, 10, 48, 100
11, 265920, Note_on_c, 10, 60, 100
11, 266040, Note_on_c, 10, 60, 0
11, 266040, Note_on_c, 10, 48, 0
11, 266040, Note_on_c, 10, 57, 100
11, 266040, Note_on_c, 10, 53, 100
11, 266160, Note_on_c, 10, 53, 0
11, 266160, Note_on_c, 10, 57, 0
11, 266160, Note_on_c, 10, 57, 100
11, 266160, Note_on_c, 10, 53, 100
11, 266280, Note_on_c, 10, 53, 0
11, 266280, Note_on_c, 10, 57, 0
11, 266280, Note_on_c, 10, 60, 100
11, 266280, Note_on_c, 10, 57, 100
11, 266400, Note_on_c, 10, 57, 0
11, 266400, Note_on_c, 10, 60, 0
11, 266400, Note_on_c, 10, 48, 100
11, 266520, Note_on_c, 10, 48, 0
11, 266520, Note_on_c, 10, 60, 100
11, 266640, Note_on_c, 10, 60, 0
11, 266640, Note_on_c, 10, 60, 100
11, 266760, Note_on_c, 10, 60, 0
11, 266760, Note_on_c, 10, 60, 100
11, 267000, Note_on_c, 10, 60, 0
11, 267000, Note_on_c, 10, 60, 100
11, 267120, Note_on_c, 10, 60, 0
11, 267120, Note_on_c, 10, 48, 100
11, 267240, Note_on_c, 10, 48, 0
11, 267240, Note_on_c, 10, 60, 100
11, 267360, Note_on_c, 10, 60, 0
11, 267360, Note_on_c, 10, 60, 100
11, 267480, Note_on_c, 10, 60, 0
11, 267480, Note_on_c, 10, 60, 100
11, 267720, Note_on_c, 10, 60, 0
11, 267720, Note_on_c, 10, 60, 100
11, 267840, Note_on_c, 10, 60, 0
11, 267840, Note_on_c, 10, 62, 100
11, 268080, Note_on_c, 10, 62, 0
11, 268080, Note_on_c, 10, 64, 100
11, 268200, Note_on_c, 10, 64, 0
11, 268200, Note_on_c, 10, 68, 100
11, 268440, Note_on_c, 10, 68, 0
11, 268440, Note_on_c, 10, 69, 100
11, 268560, Note_on_c, 10, 69, 0
11, 268560, Note_on_c, 10, 59, 100
11, 268560, Note_on_c, 10, 62, 100
11, 268680, Note_on_c, 10, 62, 0
11, 268680, Note_on_c, 10, 59, 0
11, 268680, Note_on_c, 10, 64, 100
11, 268680, Note_on_c, 10, 62, 100
11, 268800, Note_on_c, 10, 62, 0
11, 268800, Note_on_c, 10, 64, 0
11, 268800, Note_on_c, 10, 64, 100
11, 268800, Note_on_c, 10, 62, 100
11, 268920, Note_on_c, 10, 62, 0
11, 268920, Note_on_c, 10, 64, 0
11, 268920, Note_on_c, 10, 57, 100
11, 268920, Note_on_c, 10, 61, 100
11, 269040, Note_on_c, 10, 61, 0
11, 269040, Note_on_c, 10, 57, 0
11, 269040, Note_on_c, 10, 64, 100
11, 269040, Note_on_c, 10, 61, 100
11, 269160, Note_on_c, 10, 61, 0
11, 269160, Note_on_c, 10, 64, 0
11, 269160, Note_on_c, 10, 64, 100
11, 269160, Note_on_c, 10, 61, 100
11, 269280, Note_on_c, 10, 61, 0
11, 269280, Note_on_c, 10, 64, 0
11, 269280, Note_on_c, 10, 56, 100
11, 269280, Note_on_c, 10, 59, 100
11, 269400, Note_on_c, 10, 59, 0
11, 269400, Note_on_c, 10, 56, 0
11, 269400, Note_on_c, 10, 64, 100
11, 269400, Note_on_c, 10, 59, 100
11, 269520, Note_on_c, 10, 59, 0
11, 269520, Note_on_c, 10, 64, 0
11, 269520, Note_on_c, 10, 64, 100
11, 269520, Note_on_c, 10, 59, 100
11, 269640, Note_on_c, 10, 59, 0
11, 269640, Note_on_c, 10, 64, 0
11, 269640, Note_on_c, 10, 57, 100
11, 269640, Note_on_c, 10, 61, 100
11, 269760, Note_on_c, 10, 61, 0
11, 269760, Note_on_c, 10, 57, 0
11, 269760, Note_on_c, 10, 64, 100
11, 269760, Note_on_c, 10, 61, 100
11, 269880, Note_on_c, 10, 61, 0
11, 269880, Note_on_c, 10, 64, 0
11, 269880, Note_on_c, 10, 64, 100
11, 269880, Note_on_c, 10, 61, 100
11, 270000, Note_on_c, 10, 61, 0
11, 270000, Note_on_c, 10, 64, 0
11, 270000, Note_on_c, 10, 59, 100
11, 270000, Note_on_c, 10, 62, 100
11, 270120, Note_on_c, 10, 62, 0
11, 270120, Note_on_c, 10, 59, 0
11, 270120, Note_on_c, 10, 64, 100
11, 270120, Note_on_c, 10, 62, 100
11, 270240, Note_on_c, 10, 62, 0
11, 270240, Note_on_c, 10, 64, 0
11, 270240, Note_on_c, 10, 64, 100
11, 270240, Note_on_c, 10, 62, 100
11, 270360, Note_on_c, 10, 62, 0
11, 270360, Note_on_c, 10, 64, 0
11, 270360, Note_on_c, 10, 61, 100
11, 270360, Note_on_c, 10, 57, 100
11, 270480, Note_on_c, 10, 57, 0
11, 270480, Note_on_c, 10, 61, 0
11, 270480, Note_on_c, 10, 76, 100
11, 270600, Note_on_c, 10, 76, 0
11, 270600, Note_on_c, 10, 73, 100
11, 270720, Note_on_c, 10, 73, 0
11, 270720, Note_on_c, 10, 69, 100
11, 270840, Note_on_c, 10, 69, 0
11, 270840, Note_on_c, 10, 64, 100
11, 270960, Note_on_c, 10, 64, 0
11, 270960, Note_on_c, 10, 61, 100
11, 271080, Note_on_c, 10, 61, 0
11, 271080, Note_on_c, 10, 57, 100
11, 271200, Note_on_c, 10, 57, 0
11, 271680, Note_on_c, 10, 57, 100
11, 271800, Note_on_c, 10, 57, 0
11, 271800, Note_on_c, 10, 57, 100
11, 271830, Note_on_c, 10, 57, 0
11, 271830, Note_on_c, 10, 61, 100
11, 271920, Note_on_c, 10, 61, 0
11, 271920, Note_on_c, 10, 57, 100
11, 271980, Note_on_c, 10, 57, 0
11, 275760, Note_on_c, 10, 64, 100
11, 276000, Note_on_c, 10, 64, 0
11, 276000, Note_on_c, 10, 62, 100
11, 276120, Note_on_c, 10, 62, 0
11, 276120, Note_on_c, 10, 64, 100
11, 276360, Note_on_c, 10, 64, 0
11, 276360, Note_on_c, 10, 62, 100
11, 276480, Note_on_c, 10, 62, 0
11, 276480, Note_on_c, 10, 64, 100
11, 276720, Note_on_c, 10, 64, 0
11, 276720, Note_on_c, 10, 62, 100
11, 276840, Note_on_c, 10, 62, 0
11, 276840, Note_on_c, 10, 64, 100
11, 277080, Note_on_c, 10, 64, 0
11, 277080, Note_on_c, 10, 62, 100
11, 277200, Note_on_c, 10, 62, 0
11, 278160, Note_on_c, 10, 62, 100
11, 278280, Note_on_c, 10, 62, 0
11, 278280, Note_on_c, 10, 65, 100
11, 278400, Note_on_c, 10, 65, 0
11, 278400, Note_on_c, 10, 62, 100
11, 278460, Note_on_c, 10, 62, 0
11, 281520, Note_on_c, 10, 67, 100
11, 281760, Note_on_c, 10, 67, 0
11, 281760, Note_on_c, 10, 65, 100
11, 281880, Note_on_c, 10, 65, 0
11, 281880, Note_on_c, 10, 67, 100
11, 282120, Note_on_c, 10, 67, 0
11, 282120, Note_on_c, 10, 65, 100
11, 282240, Note_on_c, 10, 65, 0
11, 282240, Note_on_c, 10, 67, 100
11, 282480, Note_on_c, 10, 67, 0
11, 282480, Note_on_c, 10, 65, 100
11, 282600, Note_on_c, 10, 65, 0
11, 282600, Note_on_c, 10, 67, 100
11, 282840, Note_on_c, 10, 67, 0
11, 282840, Note_on_c, 10, 65, 100
11, 282960, Note_on_c, 10, 65, 0
11, 282960, Note_on_c, 10, 60, 100
11, 283920, Note_on_c, 10, 60, 0
11, 283920, Note_on_c, 10, 60, 100
11, 284040, Note_on_c, 10, 60, 0
11, 284040, Note_on_c, 10, 63, 100
11, 284160, Note_on_c, 10, 63, 0
11, 284160, Note_on_c, 10, 60, 100
11, 284220, Note_on_c, 10, 60, 0
11, 284280, Note_on_c, 10, 65, 100
11, 284400, Note_on_c, 10, 65, 0
11, 284400, Note_on_c, 10, 67, 100
11, 284520, Note_on_c, 10, 67, 0
11, 284520, Note_on_c, 10, 67, 100
11, 284640, Note_on_c, 10, 67, 0
11, 284640, Note_on_c, 10, 65, 100
11, 284760, Note_on_c, 10, 65, 0
11, 284760, Note_on_c, 10, 63, 100
11, 285000, Note_on_c, 10, 63, 0
11, 285000, Note_on_c, 10, 62, 100
11, 285120, Note_on_c, 10, 62, 0
11, 285120, Note_on_c, 10, 67, 100
11, 285240, Note_on_c, 10, 67, 0
11, 285240, Note_on_c, 10, 67, 100
11, 285360, Note_on_c, 10, 67, 0
11, 285360, Note_on_c, 10, 65, 100
11, 285480, Note_on_c, 10, 65, 0
11, 285480, Note_on_c, 10, 65, 100
11, 285600, Note_on_c, 10, 65, 0
11, 285600, Note_on_c, 10, 62, 100
11, 285660, Note_on_c, 10, 62, 0
11, 285720, Note_on_c, 10, 65, 100
11, 285840, Note_on_c, 10, 65, 0
11, 285840, Note_on_c, 10, 58, 100
11, 285960, Note_on_c, 10, 58, 0
11, 285960, Note_on_c, 10, 62, 100
11, 286080, Note_on_c, 10, 62, 0
11, 286080, Note_on_c, 10, 62, 100
11, 286200, Note_on_c, 10, 62, 0
11, 286200, Note_on_c, 10, 58, 100
11, 286320, Note_on_c, 10, 58, 0
11, 286320, Note_on_c, 10, 62, 100
11, 286440, Note_on_c, 10, 62, 0
11, 286440, Note_on_c, 10, 62, 100
11, 286560, Note_on_c, 10, 62, 0
11, 286560, Note_on_c, 10, 58, 100
11, 286680, Note_on_c, 10, 58, 0
11, 286680, Note_on_c, 10, 62, 100
11, 286800, Note_on_c, 10, 62, 0
11, 286800, Note_on_c, 10, 62, 100
11, 286920, Note_on_c, 10, 62, 0
11, 286920, Note_on_c, 10, 58, 100
11, 287040, Note_on_c, 10, 58, 0
11, 287040, Note_on_c, 10, 62, 100
11, 287160, Note_on_c, 10, 62, 0
11, 287160, Note_on_c, 10, 62, 100
11, 287280, Note_on_c, 10, 62, 0
11, 287280, Note_on_c, 10, 53, 100
11, 287400, Note_on_c, 10, 53, 0
11, 287400, Note_on_c, 10, 53, 100
11, 287520, Note_on_c, 10, 53, 0
11, 287520, Note_on_c, 10, 60, 100
11, 287640, Note_on_c, 10, 60, 0
11, 287640, Note_on_c, 10, 53, 100
11, 287760, Note_on_c, 10, 53, 0
11, 287760, Note_on_c, 10, 53, 100
11, 287880, Note_on_c, 10, 53, 0
11, 287880, Note_on_c, 10, 60, 100
11, 288000, Note_on_c, 10, 60, 0
11, 288000, Note_on_c, 10, 53, 100
11, 288120, Note_on_c, 10, 53, 0
11, 288120, Note_on_c, 10, 53, 100
11, 288240, Note_on_c, 10, 53, 0
11, 288240, Note_on_c, 10, 60, 100
11, 288360, Note_on_c, 10, 60, 0
11, 288360, Note_on_c, 10, 53, 100
11, 288480, Note_on_c, 10, 53, 0
11, 288480, Note_on_c, 10, 53, 100
11, 288600, Note_on_c, 10, 53, 0
11, 288600, Note_on_c, 10, 60, 100
11, 288720, Note_on_c, 10, 60, 0
11, 288720, Note_on_c, 10, 53, 100
11, 288840, Note_on_c, 10, 53, 0
11, 288840, Note_on_c, 10, 53, 100
11, 288960, Note_on_c, 10, 53, 0
11, 288960, Note_on_c, 10, 53, 100
11, 289080, Note_on_c, 10, 53, 0
11, 289080, Note_on_c, 10, 50, 100
11, 289080, Note_on_c, 10, 53, 100
11, 289200, Note_on_c, 10, 53, 0
11, 289200, Note_on_c, 10, 50, 0
11, 289200, Note_on_c, 10, 50, 100
11, 289200, Note_on_c, 10, 53, 100
11, 289320, Note_on_c, 10, 53, 0
11, 289320, Note_on_c, 10, 50, 0
11, 289320, Note_on_c, 10, 58, 100
11, 289320, Note_on_c, 10, 53, 100
11, 289440, Note_on_c, 10, 53, 0
11, 289440, Note_on_c, 10, 58, 0
11, 289440, Note_on_c, 10, 50, 100
11, 289440, Note_on_c, 10, 53, 100
11, 289560, Note_on_c, 10, 53, 0
11, 289560, Note_on_c, 10, 50, 0
11, 289560, Note_on_c, 10, 50, 100
11, 289560, Note_on_c, 10, 53, 100
11, 289680, Note_on_c, 10, 53, 0
11, 289680, Note_on_c, 10, 50, 0
11, 289680, Note_on_c, 10, 53, 100
11, 289680, Note_on_c, 10, 58, 100
11, 289800, Note_on_c, 10, 58, 0
11, 289800, Note_on_c, 10, 53, 0
11, 289800, Note_on_c, 10, 50, 100
11, 289800, Note_on_c, 10, 53, 100
11, 289920, Note_on_c, 10, 53, 0
11, 289920, Note_on_c, 10, 50, 0
11, 289920, Note_on_c, 10, 50, 100
11, 289920, Note_on_c, 10, 53, 100
11, 290040, Note_on_c, 10, 53, 0
11, 290040, Note_on_c, 10, 50, 0
11, 290040, Note_on_c, 10, 53, 100
11, 290040, Note_on_c, 10, 58, 100
11, 290160, Note_on_c, 10, 58, 0
11, 290160, Note_on_c, 10, 53, 0
11, 290160, Note_on_c, 10, 53, 100
11, 290160, Note_on_c, 10, 60, 100
11, 290280, Note_on_c, 10, 60, 0
11, 290280, Note_on_c, 10, 53, 0
11, 290280, Note_on_c, 10, 53, 100
11, 290280, Note_on_c, 10, 60, 100
11, 290400, Note_on_c, 10, 60, 0
11, 290400, Note_on_c, 10, 53, 0
11, 290400, Note_on_c, 10, 53, 100
11, 290400, Note_on_c, 10, 60, 100
11, 290520, Note_on_c, 10, 60, 0
11, 290520, Note_on_c, 10, 53, 0
11, 290520, Note_on_c, 10, 53, 100
11, 290520, Note_on_c, 10, 57, 100
11, 290640, Note_on_c, 10, 57, 0
11, 290640, Note_on_c, 10, 53, 0
11, 290640, Note_on_c, 10, 53, 100
11, 290640, Note_on_c, 10, 57, 100
11, 290760, Note_on_c, 10, 57, 0
11, 290760, Note_on_c, 10, 53, 0
11, 290760, Note_on_c, 10, 60, 100
11, 290760, Note_on_c, 10, 57, 100
11, 290880, Note_on_c, 10, 57, 0
11, 290880, Note_on_c, 10, 60, 0
11, 290880, Note_on_c, 10, 53, 100
11, 290880, Note_on_c, 10, 57, 100
11, 291000, Note_on_c, 10, 57, 0
11, 291000, Note_on_c, 10, 53, 0
11, 291000, Note_on_c, 10, 53, 100
11, 291000, Note_on_c, 10, 57, 100
11, 291120, Note_on_c, 10, 57, 0
11, 291120, Note_on_c, 10, 53, 0
11, 291120, Note_on_c, 10, 60, 100
11, 291120, Note_on_c, 10, 57, 100
11, 291240, Note_on_c, 10, 57, 0
11, 291240, Note_on_c, 10, 60, 0
11, 291240, Note_on_c, 10, 53, 100
11, 291240, Note_on_c, 10, 57, 100
11, 291360, Note_on_c, 10, 57, 0
11, 291360, Note_on_c, 10, 53, 0
11, 291360, Note_on_c, 10, 53, 100
11, 291360, Note_on_c, 10, 57, 100
11, 291480, Note_on_c, 10, 57, 0
11, 291480, Note_on_c, 10, 53, 0
11, 291480, Note_on_c, 10, 60, 100
11, 291480, Note_on_c, 10, 57, 100
11, 291600, Note_on_c, 10, 57, 0
11, 291600, Note_on_c, 10, 60, 0
11, 291600, Note_on_c, 10, 53, 100
11, 291600, Note_on_c, 10, 58, 100
11, 291720, Note_on_c, 10, 58, 0
11, 291720, Note_on_c, 10, 53, 0
11, 291720, Note_on_c, 10, 53, 100
11, 291720, Note_on_c, 10, 58, 100
11, 291840, Note_on_c, 10, 58, 0
11, 291840, Note_on_c, 10, 53, 0
11, 291840, Note_on_c, 10, 58, 100
11, 291840, Note_on_c, 10, 62, 100
11, 291960, Note_on_c, 10, 62, 0
11, 291960, Note_on_c, 10, 58, 0
11, 292320, Note_on_c, 10, 65, 100
11, 292440, Note_on_c, 10, 65, 0
11, 292440, Note_on_c, 10, 65, 100
11, 292560, Note_on_c, 10, 65, 0
11, 292560, Note_on_c, 10, 64, 100
11, 292680, Note_on_c, 10, 64, 0
11, 292680, Note_on_c, 10, 62, 100
11, 292800, Note_on_c, 10, 62, 0
11, 292800, Note_on_c, 10, 62, 100
11, 292920, Note_on_c, 10, 62, 0
11, 292920, Note_on_c, 10, 60, 100
11, 293040, Note_on_c, 10, 60, 0
11, 293040, Note_on_c, 10, 58, 100
11, 293160, Note_on_c, 10, 58, 0
11, 293160, Note_on_c, 10, 58, 100
11, 293280, Note_on_c, 10, 58, 0
11, 293280, Note_on_c, 10, 57, 100
11, 293400, Note_on_c, 10, 57, 0
11, 293400, Note_on_c, 10, 55, 100
11, 293520, Note_on_c, 10, 55, 0
11, 293520, Note_on_c, 10, 55, 100
11, 293640, Note_on_c, 10, 55, 0
11, 293640, Note_on_c, 10, 53, 100
11, 293760, Note_on_c, 10, 53, 0
11, 293760, Note_on_c, 10, 52, 100
11, 293880, Note_on_c, 10, 52, 0
11, 293880, Note_on_c, 10, 52, 100
11, 294000, Note_on_c, 10, 52, 0
11, 294000, Note_on_c, 10, 50, 100
11, 294120, Note_on_c, 10, 50, 0
11, 294120, Note_on_c, 10, 48, 100
11, 294240, Note_on_c, 10, 48, 0
11, 294240, Note_on_c, 10, 58, 100
11, 294360, Note_on_c, 10, 58, 0
11, 294360, Note_on_c, 10, 57, 100
11, 294480, Note_on_c, 10, 57, 0
11, 294480, Note_on_c, 10, 57, 100
11, 294600, Note_on_c, 10, 57, 0
11, 294600, Note_on_c, 10, 53, 100
11, 294660, Note_on_c, 10, 53, 0
11, 294720, Note_on_c, 10, 57, 100
11, 294840, Note_on_c, 10, 57, 0
11, 294840, Note_on_c, 10, 57, 100
11, 294870, Note_on_c, 10, 57, 0
11, 294870, Note_on_c, 10, 60, 100
11, 294870, Note_on_c, 10, 57, 100
11, 294960, Note_on_c, 10, 57, 0
11, 294960, Note_on_c, 10, 60, 0
11, 294960, Note_on_c, 10, 53, 100
11, 294960, Note_on_c, 10, 57, 100
11, 295020, Note_on_c, 10, 57, 0
11, 295020, Note_on_c, 10, 53, 0
11, 295080, Note_on_c, 10, 60, 100
11, 295080, Note_on_c, 10, 57, 100
11, 295200, Note_on_c, 10, 57, 0
11, 295200, Note_on_c, 10, 60, 0
11, 295200, Note_on_c, 10, 53, 100
11, 296400, Note_on_c, 10, 53, 0
11, 296400, Note_on_c, 10, 52, 100
11, 296520, Note_on_c, 10, 52, 0
11, 296520, Note_on_c, 10, 52, 100
11, 296640, Note_on_c, 10, 52, 0
11, 296640, Note_on_c, 10, 52, 100
11, 297840, Note_on_c, 10, 52, 0
11, 297840, Note_on_c, 10, 53, 100
11, 297960, Note_on_c, 10, 53, 0
11, 297960, Note_on_c, 10, 53, 100
11, 298080, Note_on_c, 10, 53, 0
11, 298080, Note_on_c, 10, 57, 100
11, 298080, Note_on_c, 10, 65, 100
11, 299280, Note_on_c, 10, 65, 0
11, 299280, Note_on_c, 10, 57, 0
11, 299280, Note_on_c, 10, 60, 100
11, 299280, Note_on_c, 10, 67, 100
11, 299400, Note_on_c, 10, 67, 0
11, 299400, Note_on_c, 10, 60, 0
11, 299400, Note_on_c, 10, 60, 100
11, 299400, Note_on_c, 10, 67, 100
11, 299520, Note_on_c, 10, 67, 0
11, 299520, Note_on_c, 10, 60, 0
11, 299520, Note_on_c, 10, 60, 100
11, 299520, Note_on_c, 10, 67, 100
11, 300720, Note_on_c, 10, 67, 0
11, 300720, Note_on_c, 10, 60, 0
11, 300720, Note_on_c, 10, 65, 100
11, 300720, Note_on_c, 10, 69, 100
11, 300840, Note_on_c, 10, 69, 0
11, 300840, Note_on_c, 10, 65, 0
11, 300840, Note_on_c, 10, 65, 100
11, 300840, Note_on_c, 10, 69, 100
11, 300960, Note_on_c, 10, 69, 0
11, 300960, Note_on_c, 10, 65, 0
11, 300960, Note_on_c, 10, 60, 100
11, 301080, Note_on_c, 10, 60, 0
11, 301080, Note_on_c, 10, 60, 100
11, 301200, Note_on_c, 10, 60, 0
11, 301200, Note_on_c, 10, 60, 100
11, 301320, Note_on_c, 10, 60, 0
11, 301320, Note_on_c, 10, 60, 100
11, 301560, Note_on_c, 10, 60, 0
11, 301560, Note_on_c, 10, 60, 100
11, 301680, Note_on_c, 10, 60, 0
11, 302400, Note_on_c, 10, 60, 100
11, 302520, Note_on_c, 10, 60, 0
11, 302520, Note_on_c, 10, 60, 100
11, 302640, Note_on_c, 10, 60, 0
11, 302640, Note_on_c, 10, 60, 100
11, 302760, Note_on_c, 10, 60, 0
11, 302760, Note_on_c, 10, 60, 100
11, 303000, Note_on_c, 10, 60, 0
11, 303000, Note_on_c, 10, 60, 100
11, 303120, Note_on_c, 10, 60, 0
11, 303120, Note_on_c, 10, 58, 100
11, 303360, Note_on_c, 10, 58, 0
11, 303360, Note_on_c, 10, 65, 100
11, 303480, Note_on_c, 10, 65, 0
11, 303480, Note_on_c, 10, 53, 100
11, 303720, Note_on_c, 10, 53, 0
11, 303720, Note_on_c, 10, 60, 100
11, 303840, Note_on_c, 10, 60, 0
11, 303840, Note_on_c, 10, 60, 100
11, 304080, Note_on_c, 10, 60, 0
11, 304080, Note_on_c, 10, 67, 100
11, 304200, Note_on_c, 10, 67, 0
11, 304200, Note_on_c, 10, 67, 100
11, 304440, Note_on_c, 10, 67, 0
11, 304440, Note_on_c, 10, 67, 100
11, 304560, Note_on_c, 10, 67, 0
11, 304560, Note_on_c, 10, 62, 100
11, 304680, Note_on_c, 10, 62, 0
11, 304680, Note_on_c, 10, 62, 100
11, 304800, Note_on_c, 10, 62, 0
11, 304800, Note_on_c, 10, 65, 100
11, 304920, Note_on_c, 10, 65, 0
11, 304920, Note_on_c, 10, 60, 100
11, 305040, Note_on_c, 10, 60, 0
11, 305040, Note_on_c, 10, 60, 100
11, 305160, Note_on_c, 10, 60, 0
11, 305160, Note_on_c, 10, 64, 100
11, 305280, Note_on_c, 10, 64, 0
11, 305280, Note_on_c, 10, 59, 100
11, 305400, Note_on_c, 10, 59, 0
11, 305400, Note_on_c, 10, 59, 100
11, 305520, Note_on_c, 10, 59, 0
11, 305520, Note_on_c, 10, 62, 100
11, 305640, Note_on_c, 10, 62, 0
11, 305640, Note_on_c, 10, 60, 100
11, 305760, Note_on_c, 10, 60, 0
11, 305760, Note_on_c, 10, 60, 100
11, 305880, Note_on_c, 10, 60, 0
11, 305880, Note_on_c, 10, 64, 100
11, 306000, Note_on_c, 10, 64, 0
11, 306000, Note_on_c, 10, 62, 100
11, 306120, Note_on_c, 10, 62, 0
11, 306120, Note_on_c, 10, 62, 100
11, 306240, Note_on_c, 10, 62, 0
11, 306240, Note_on_c, 10, 65, 100
11, 306360, Note_on_c, 10, 65, 0
11, 306360, Note_on_c, 10, 60, 100
11, 306480, Note_on_c, 10, 60, 0
11, 306480, Note_on_c, 10, 64, 100
11, 306600, Note_on_c, 10, 64, 0
11, 306600, Note_on_c, 10, 64, 100
11, 306720, Note_on_c, 10, 64, 0
11, 306720, Note_on_c, 10, 62, 100
11, 306840, Note_on_c, 10, 62, 0
11, 306840, Note_on_c, 10, 62, 100
11, 306960, Note_on_c, 10, 62, 0
11, 306960, Note_on_c, 10, 65, 100
11, 307080, Note_on_c, 10, 65, 0
11, 307080, Note_on_c, 10, 60, 100
11, 307200, Note_on_c, 10, 60, 0
11, 307200, Note_on_c, 10, 60, 100
11, 307320, Note_on_c, 10, 60, 0
11, 307320, Note_on_c, 10, 64, 100
11, 307440, Note_on_c, 10, 64, 0
11, 307440, Note_on_c, 10, 58, 100
11, 307470, Note_on_c, 10, 58, 0
11, 307470, Note_on_c, 10, 60, 100
11, 307500, Note_on_c, 10, 60, 0
11, 307500, Note_on_c, 10, 58, 100
11, 307530, Note_on_c, 10, 58, 0
11, 307530, Note_on_c, 10, 60, 100
11, 307560, Note_on_c, 10, 60, 0
11, 307560, Note_on_c, 10, 58, 100
11, 307590, Note_on_c, 10, 58, 0
11, 307590, Note_on_c, 10, 60, 100
11, 307620, Note_on_c, 10, 60, 0
11, 307620, Note_on_c, 10, 58, 100
11, 307650, Note_on_c, 10, 58, 0
11, 307650, Note_on_c, 10, 60, 100
11, 307680, Note_on_c, 10, 60, 0
11, 307680, Note_on_c, 10, 58, 100
11, 307710, Note_on_c, 10, 58, 0
11, 307710, Note_on_c, 10, 60, 100
11, 307740, Note_on_c, 10, 60, 0
11, 307740, Note_on_c, 10, 57, 100
11, 307770, Note_on_c, 10, 57, 0
11, 307770, Note_on_c, 10, 58, 100
11, 307800, Note_on_c, 10, 58, 0
11, 307800, Note_on_c, 10, 57, 100
11, 307920, Note_on_c, 10, 57, 0
11, 307920, Note_on_c, 10, 60, 100
11, 307920, Note_on_c, 10, 57, 100
11, 308040, Note_on_c, 10, 57, 0
11, 308040, Note_on_c, 10, 60, 0
11, 308040, Note_on_c, 10, 53, 100
11, 308040, Note_on_c, 10, 57, 100
11, 308160, Note_on_c, 10, 57, 0
11, 308160, Note_on_c, 10, 53, 0
11, 308160, Note_on_c, 10, 58, 100
11, 308190, Note_on_c, 10, 58, 0
11, 308190, Note_on_c, 10, 60, 100
11, 308220, Note_on_c, 10, 60, 0
11, 308220, Note_on_c, 10, 58, 100
11, 308250, Note_on_c, 10, 58, 0
11, 308250, Note_on_c, 10, 60, 100
11, 308280, Note_on_c, 10, 60, 0
11, 308280, Note_on_c, 10, 58, 100
11, 308310, Note_on_c, 10, 58, 0
11, 308310, Note_on_c, 10, 60, 100
11, 308340, Note_on_c, 10, 60, 0
11, 308340, Note_on_c, 10, 58, 100
11, 308370, Note_on_c, 10, 58, 0
11, 308370, Note_on_c, 10, 60, 100
11, 308400, Note_on_c, 10, 60, 0
11, 308400, Note_on_c, 10, 58, 100
11, 308430, Note_on_c, 10, 58, 0
11, 308430, Note_on_c, 10, 60, 100
11, 308460, Note_on_c, 10, 60, 0
11, 308460, Note_on_c, 10, 57, 100
11, 308490, Note_on_c, 10, 57, 0
11, 308490, Note_on_c, 10, 58, 100
11, 308520, Note_on_c, 10, 58, 0
11, 308520, Note_on_c, 10, 53, 100
11, 308520, Note_on_c, 10, 57, 100
11, 308640, Note_on_c, 10, 57, 0
11, 308640, Note_on_c, 10, 53, 0
11, 308640, Note_on_c, 10, 60, 100
11, 308640, Note_on_c, 10, 57, 100
11, 308760, Note_on_c, 10, 57, 0
11, 308760, Note_on_c, 10, 60, 0
11, 308760, Note_on_c, 10, 53, 100
11, 308760, Note_on_c, 10, 57, 100
11, 308880, Note_on_c, 10, 57, 0
11, 308880, Note_on_c, 10, 53, 0
11, 308880, Note_on_c, 10, 58, 100
11, 308910, Note_on_c, 10, 58, 0
11, 308910, Note_on_c, 10, 60, 100
11, 308940, Note_on_c, 10, 60, 0
11, 308940, Note_on_c, 10, 58, 100
11, 308970, Note_on_c, 10, 58, 0
11, 308970, Note_on_c, 10, 60, 100
11, 309000, Note_on_c, 10, 60, 0
11, 309000, Note_on_c, 10, 58, 100
11, 309030, Note_on_c, 10, 58, 0
11, 309030, Note_on_c, 10, 60, 100
11, 309060, Note_on_c, 10, 60, 0
11, 309060, Note_on_c, 10, 58, 100
11, 309090, Note_on_c, 10, 58, 0
11, 309090, Note_on_c, 10, 60, 100
11, 309120, Note_on_c, 10, 60, 0
11, 309120, Note_on_c, 10, 58, 100
11, 309150, Note_on_c, 10, 58, 0
11, 309150, Note_on_c, 10, 60, 100
11, 309180, Note_on_c, 10, 60, 0
11, 309180, Note_on_c, 10, 57, 100
11, 309210, Note_on_c, 10, 57, 0
11, 309210, Note_on_c, 10, 58, 100
11, 309240, Note_on_c, 10, 58, 0
11, 309240, Note_on_c, 10, 57, 100
11, 309360, Note_on_c, 10, 57, 0
11, 309360, Note_on_c, 10, 60, 100
11, 309360, Note_on_c, 10, 57, 100
11, 309480, Note_on_c, 10, 57, 0
11, 309480, Note_on_c, 10, 60, 0
11, 309480, Note_on_c, 10, 53, 100
11, 309480, Note_on_c, 10, 57, 100
11, 309600, Note_on_c, 10, 57, 0
11, 309600, Note_on_c, 10, 53, 0
11, 309600, Note_on_c, 10, 58, 100
11, 309630, Note_on_c, 10, 58, 0
11, 309630, Note_on_c, 10, 60, 100
11, 309660, Note_on_c, 10, 60, 0
11, 309660, Note_on_c, 10, 58, 100
11, 309690, Note_on_c, 10, 58, 0
11, 309690, Note_on_c, 10, 60, 100
11, 309720, Note_on_c, 10, 60, 0
11, 309720, Note_on_c, 10, 58, 100
11, 309750, Note_on_c, 10, 58, 0
11, 309750, Note_on_c, 10, 60, 100
11, 309780, Note_on_c, 10, 60, 0
11, 309780, Note_on_c, 10, 58, 100
11, 309810, Note_on_c, 10, 58, 0
11, 309810, Note_on_c, 10, 60, 100
11, 309840, Note_on_c, 10, 60, 0
11, 309840, Note_on_c, 10, 58, 100
11, 309870, Note_on_c, 10, 58, 0
11, 309870, Note_on_c, 10, 60, 100
11, 309900, Note_on_c, 10, 60, 0
11, 309900, Note_on_c, 10, 57, 100
11, 309930, Note_on_c, 10, 57, 0
11, 309930, Note_on_c, 10, 58, 100
11, 309960, Note_on_c, 10, 58, 0
11, 309960, Note_on_c, 10, 57, 100
11, 310080, Note_on_c, 10, 57, 0
11, 310080, Note_on_c, 10, 60, 100
11, 310080, Note_on_c, 10, 57, 100
11, 310200, Note_on_c, 10, 57, 0
11, 310200, Note_on_c, 10, 60, 0
11, 310200, Note_on_c, 10, 53, 100
11, 310200, Note_on_c, 10, 57, 100
11, 310320, Note_on_c, 10, 57, 0
11, 310320, Note_on_c, 10, 53, 0
11, 310320, Note_on_c, 10, 58, 100
11, 310350, Note_on_c, 10, 58, 0
11, 310350, Note_on_c, 10, 60, 100
11, 310380, Note_on_c, 10, 60, 0
11, 310380, Note_on_c, 10, 58, 100
11, 310410, Note_on_c, 10, 58, 0
11, 310410, Note_on_c, 10, 60, 100
11, 310440, Note_on_c, 10, 60, 0
11, 310440, Note_on_c, 10, 58, 100
11, 310470, Note_on_c, 10, 58, 0
11, 310470, Note_on_c, 10, 60, 100
11, 310500, Note_on_c, 10, 60, 0
11, 310500, Note_on_c, 10, 58, 100
11, 310530, Note_on_c, 10, 58, 0
11, 310530, Note_on_c, 10, 60, 100
11, 310560, Note_on_c, 10, 60, 0
11, 310560, Note_on_c, 10, 58, 100
11, 310590, Note_on_c, 10, 58, 0
11, 310590, Note_on_c, 10, 60, 100
11, 310620, Note_on_c, 10, 60, 0
11, 310620, Note_on_c, 10, 57, 100
11, 310650, Note_on_c, 10, 57, 0
11, 310650, Note_on_c, 10, 58, 100
11, 310680, Note_on_c, 10, 58, 0
11, 310680, Note_on_c, 10, 57, 100
11, 310800, Note_on_c, 10, 57, 0
11, 310800, Note_on_c, 10, 72, 100
11, 310920, Note_on_c, 10, 72, 0
11, 310920, Note_on_c, 10, 69, 100
11, 311040, Note_on_c, 10, 69, 0
11, 311040, Note_on_c, 10, 65, 100
11, 311160, Note_on_c, 10, 65, 0
11, 311160, Note_on_c, 10, 60, 100
11, 311280, Note_on_c, 10, 60, 0
11, 311280, Note_on_c, 10, 57, 100
11, 311400, Note_on_c, 10, 57, 0
11, 311400, Note_on_c, 10, 53, 100
11, 311520, Note_on_c, 10, 53, 0
11, 312000, Note_on_c, 10, 53, 100
11, 312120, Note_on_c, 10, 53, 0
11, 312120, Note_on_c, 10, 53, 100
11, 312150, Note_on_c, 10, 53, 0
11, 312150, Note_on_c, 10, 57, 100
11, 312240, Note_on_c, 10, 57, 0
11, 312240, Note_on_c, 10, 53, 100
11, 312300, Note_on_c, 10, 53, 0
11, 313080, Note_on_c, 10, 53, 100
11, 313200, Note_on_c, 10, 53, 0
11, 313200, Note_on_c, 10, 53, 100
11, 313230, Note_on_c, 10, 53, 0
11, 313230, Note_on_c, 10, 57, 100
11, 313320, Note_on_c, 10, 57, 0
11, 313320, Note_on_c, 10, 53, 100
11, 313380, Note_on_c, 10, 53, 0
11, 313440, Note_on_c, 10, 53, 100
11, 313560, Note_on_c, 10, 53, 0
11, 313560, Note_on_c, 10, 53, 100
11, 313590, Note_on_c, 10, 53, 0
11, 313590, Note_on_c, 10, 57, 100
11, 313680, Note_on_c, 10, 57, 0
11, 313680, Note_on_c, 10, 53, 100
11, 313800, Note_on_c, 10, 53, 0
11, 313800, Note_on_c, 10, 53, 100
11, 313920, Note_on_c, 10, 53, 0
11, 313920, Note_on_c, 10, 53, 100
11, 313950, Note_on_c, 10, 53, 0
11, 313950, Note_on_c, 10, 57, 100
11, 314040, Note_on_c, 10, 57, 0
11, 314040, Note_on_c, 10, 53, 100
11, 314160, Note_on_c, 10, 53, 0
11, 314160, Note_on_c, 10, 53, 100
11, 314280, Note_on_c, 10, 53, 0
11, 314280, Note_on_c, 10, 53, 100
11, 314310, Note_on_c, 10, 53, 0
11, 314310, Note_on_c, 10, 57, 100
11, 314400, Note_on_c, 10, 57, 0
11, 314400, Note_on_c, 10, 53, 100
11, 314520, Note_on_c, 10, 53, 0
11, 314520, Note_on_c, 10, 53, 100
11, 314640, Note_on_c, 10, 53, 0
11, 314640, Note_on_c, 10, 57, 100
11, 317520, Note_on_c, 10, 57, 0
11, 317520, Note_on_c, 10, 58, 100
11, 317640, Note_on_c, 10, 58, 0
11, 317880, Note_on_c, 10, 59, 100
11, 318000, Note_on_c, 10, 59, 0
11, 318240, Note_on_c, 10, 60, 100
11, 318360, Note_on_c, 10, 60, 0
11, 318600, Note_on_c, 10, 64, 100
11, 318600, Note_on_c, 10, 55, 100
11, 318720, Note_on_c, 10, 55, 0
11, 318720, Note_on_c, 10, 64, 0
11, 318960, Note_on_c, 10, 57, 100
11, 318960, Note_on_c, 10, 65, 100
11, 319080, Note_on_c, 10, 65, 0
11, 319080, Note_on_c, 10, 57, 0
11, 319080, End_track
12, 0, Start_track
12, 0, MIDI_port, 0
12, 0, Title_t, "Cellos/Basses"
12, 0, Program_c, 11, 48
12, 0, Control_c, 11, 7, 110
12, 0, Control_c, 11, 10, 100
12, 600, Note_on_c, 11, 41, 100
12, 720, Note_on_c, 11, 41, 0
12, 720, Note_on_c, 11, 41, 100
12, 840, Note_on_c, 11, 41, 0
12, 960, Note_on_c, 11, 41, 100
12, 1080, Note_on_c, 11, 41, 0
12, 1080, Note_on_c, 11, 41, 100
12, 1200, Note_on_c, 11, 41, 0
12, 1320, Note_on_c, 11, 41, 100
12, 1440, Note_on_c, 11, 41, 0
12, 1440, Note_on_c, 11, 41, 100
12, 1560, Note_on_c, 11, 41, 0
12, 1800, Note_on_c, 11, 53, 100
12, 1920, Note_on_c, 11, 53, 0
12, 2160, Note_on_c, 11, 53, 100
12, 2280, Note_on_c, 11, 53, 0
12, 2520, Note_on_c, 11, 48, 100
12, 2640, Note_on_c, 11, 48, 0
12, 2880, Note_on_c, 11, 48, 100
12, 3000, Note_on_c, 11, 48, 0
12, 3240, Note_on_c, 11, 48, 100
12, 3360, Note_on_c, 11, 48, 0
12, 3600, Note_on_c, 11, 48, 100
12, 3720, Note_on_c, 11, 48, 0
12, 3960, Note_on_c, 11, 53, 100
12, 4080, Note_on_c, 11, 53, 0
12, 4320, Note_on_c, 11, 58, 100
12, 4440, Note_on_c, 11, 58, 0
12, 4440, Note_on_c, 11, 58, 100
12, 4560, Note_on_c, 11, 58, 0
12, 4560, Note_on_c, 11, 57, 100
12, 4680, Note_on_c, 11, 57, 0
12, 4680, Note_on_c, 11, 55, 100
12, 4920, Note_on_c, 11, 55, 0
12, 4920, Note_on_c, 11, 53, 100
12, 5040, Note_on_c, 11, 53, 0
12, 5040, Note_on_c, 11, 58, 100
12, 5160, Note_on_c, 11, 58, 0
12, 5160, Note_on_c, 11, 58, 100
12, 5280, Note_on_c, 11, 58, 0
12, 5280, Note_on_c, 11, 57, 100
12, 5400, Note_on_c, 11, 57, 0
12, 5400, Note_on_c, 11, 55, 100
12, 5640, Note_on_c, 11, 55, 0
12, 5640, Note_on_c, 11, 53, 100
12, 5760, Note_on_c, 11, 53, 0
12, 5760, Note_on_c, 11, 58, 100
12, 6000, Note_on_c, 11, 58, 0
12, 6000, Note_on_c, 11, 57, 100
12, 6120, Note_on_c, 11, 57, 0
12, 6120, Note_on_c, 11, 62, 100
12, 6360, Note_on_c, 11, 62, 0
12, 6360, Note_on_c, 11, 61, 100
12, 6480, Note_on_c, 11, 61, 0
12, 6480, Note_on_c, 11, 48, 100
12, 6600, Note_on_c, 11, 48, 0
12, 6600, Note_on_c, 11, 64, 100
12, 6720, Note_on_c, 11, 64, 0
12, 6720, Note_on_c, 11, 64, 100
12, 6840, Note_on_c, 11, 64, 0
12, 6840, Note_on_c, 11, 57, 100
12, 6960, Note_on_c, 11, 57, 0
12, 7200, Note_on_c, 11, 52, 100
12, 7320, Note_on_c, 11, 52, 0
12, 7320, Note_on_c, 11, 64, 100
12, 7440, Note_on_c, 11, 64, 0
12, 7440, Note_on_c, 11, 64, 100
12, 7560, Note_on_c, 11, 64, 0
12, 7560, Note_on_c, 11, 57, 100
12, 7680, Note_on_c, 11, 57, 0
12, 7920, Note_on_c, 11, 52, 100
12, 8040, Note_on_c, 11, 52, 0
12, 8040, Note_on_c, 11, 64, 100
12, 8160, Note_on_c, 11, 64, 0
12, 8160, Note_on_c, 11, 64, 100
12, 8280, Note_on_c, 11, 64, 0
12, 8280, Note_on_c, 11, 57, 100
12, 8400, Note_on_c, 11, 57, 0
12, 8400, Note_on_c, 11, 64, 100
12, 8520, Note_on_c, 11, 64, 0
12, 8520, Note_on_c, 11, 61, 100
12, 8640, Note_on_c, 11, 61, 0
12, 8640, Note_on_c, 11, 57, 100
12, 8760, Note_on_c, 11, 57, 0
12, 8760, Note_on_c, 11, 52, 100
12, 8880, Note_on_c, 11, 52, 0
12, 8880, Note_on_c, 11, 49, 100
12, 9000, Note_on_c, 11, 49, 0
12, 9000, Note_on_c, 11, 45, 100
12, 9120, Note_on_c, 11, 45, 0
12, 9240, Note_on_c, 11, 41, 100
12, 9360, Note_on_c, 11, 41, 0
12, 9360, Note_on_c, 11, 41, 100
12, 9480, Note_on_c, 11, 41, 0
12, 9600, Note_on_c, 11, 41, 100
12, 9720, Note_on_c, 11, 41, 0
12, 9720, Note_on_c, 11, 41, 100
12, 9840, Note_on_c, 11, 41, 0
12, 9960, Note_on_c, 11, 41, 100
12, 10080, Note_on_c, 11, 41, 0
12, 10080, Note_on_c, 11, 41, 100
12, 10200, Note_on_c, 11, 41, 0
12, 10440, Note_on_c, 11, 53, 100
12, 10560, Note_on_c, 11, 53, 0
12, 10800, Note_on_c, 11, 53, 100
12, 10920, Note_on_c, 11, 53, 0
12, 11160, Note_on_c, 11, 48, 100
12, 11280, Note_on_c, 11, 48, 0
12, 11520, Note_on_c, 11, 48, 100
12, 11640, Note_on_c, 11, 48, 0
12, 11880, Note_on_c, 11, 48, 100
12, 12000, Note_on_c, 11, 48, 0
12, 12240, Note_on_c, 11, 48, 100
12, 12360, Note_on_c, 11, 48, 0
12, 12600, Note_on_c, 11, 53, 100
12, 12720, Note_on_c, 11, 53, 0
12, 12960, Note_on_c, 11, 58, 100
12, 13080, Note_on_c, 11, 58, 0
12, 13080, Note_on_c, 11, 58, 100
12, 13200, Note_on_c, 11, 58, 0
12, 13200, Note_on_c, 11, 57, 100
12, 13320, Note_on_c, 11, 57, 0
12, 13320, Note_on_c, 11, 55, 100
12, 13560, Note_on_c, 11, 55, 0
12, 13560, Note_on_c, 11, 53, 100
12, 13680, Note_on_c, 11, 53, 0
12, 13680, Note_on_c, 11, 58, 100
12, 13800, Note_on_c, 11, 58, 0
12, 13800, Note_on_c, 11, 58, 100
12, 13920, Note_on_c, 11, 58, 0
12, 13920, Note_on_c, 11, 57, 100
12, 14040, Note_on_c, 11, 57, 0
12, 14040, Note_on_c, 11, 55, 100
12, 14280, Note_on_c, 11, 55, 0
12, 14280, Note_on_c, 11, 53, 100
12, 14400, Note_on_c, 11, 53, 0
12, 14400, Note_on_c, 11, 58, 100
12, 14640, Note_on_c, 11, 58, 0
12, 14640, Note_on_c, 11, 57, 100
12, 14760, Note_on_c, 11, 57, 0
12, 14760, Note_on_c, 11, 62, 100
12, 15000, Note_on_c, 11, 62, 0
12, 15000, Note_on_c, 11, 61, 100
12, 15120, Note_on_c, 11, 61, 0
12, 15120, Note_on_c, 11, 48, 100
12, 15240, Note_on_c, 11, 48, 0
12, 15240, Note_on_c, 11, 64, 100
12, 15360, Note_on_c, 11, 64, 0
12, 15360, Note_on_c, 11, 64, 100
12, 15480, Note_on_c, 11, 64, 0
12, 15480, Note_on_c, 11, 57, 100
12, 15600, Note_on_c, 11, 57, 0
12, 15840, Note_on_c, 11, 52, 100
12, 15960, Note_on_c, 11, 52, 0
12, 15960, Note_on_c, 11, 64, 100
12, 16080, Note_on_c, 11, 64, 0
12, 16080, Note_on_c, 11, 64, 100
12, 16200, Note_on_c, 11, 64, 0
12, 16200, Note_on_c, 11, 57, 100
12, 16320, Note_on_c, 11, 57, 0
12, 16560, Note_on_c, 11, 52, 100
12, 16680, Note_on_c, 11, 52, 0
12, 16680, Note_on_c, 11, 64, 100
12, 16800, Note_on_c, 11, 64, 0
12, 16800, Note_on_c, 11, 64, 100
12, 16920, Note_on_c, 11, 64, 0
12, 16920, Note_on_c, 11, 57, 100
12, 17040, Note_on_c, 11, 57, 0
12, 17040, Note_on_c, 11, 64, 100
12, 17160, Note_on_c, 11, 64, 0
12, 17160, Note_on_c, 11, 61, 100
12, 17280, Note_on_c, 11, 61, 0
12, 17280, Note_on_c, 11, 57, 100
12, 17400, Note_on_c, 11, 57, 0
12, 17400, Note_on_c, 11, 52, 100
12, 17520, Note_on_c, 11, 52, 0
12, 17520, Note_on_c, 11, 49, 100
12, 17640, Note_on_c, 11, 49, 0
12, 17640, Note_on_c, 11, 45, 100
12, 17760, Note_on_c, 11, 45, 0
12, 17880, Note_on_c, 11, 45, 100
12, 18000, Note_on_c, 11, 45, 0
12, 18000, Note_on_c, 11, 45, 100
12, 18030, Note_on_c, 11, 45, 0
12, 18030, Note_on_c, 11, 49, 100
12, 18120, Note_on_c, 11, 49, 0
12, 18120, Note_on_c, 11, 45, 100
12, 18180, Note_on_c, 11, 45, 0
12, 23760, Note_on_c, 11, 44, 100
12, 24000, Note_on_c, 11, 44, 0
12, 24000, Note_on_c, 11, 43, 100
12, 24120, Note_on_c, 11, 43, 0
12, 24120, Note_on_c, 11, 44, 100
12, 24360, Note_on_c, 11, 44, 0
12, 24360, Note_on_c, 11, 43, 100
12, 24480, Note_on_c, 11, 43, 0
12, 24480, Note_on_c, 11, 44, 100
12, 24720, Note_on_c, 11, 44, 0
12, 24720, Note_on_c, 11, 43, 100
12, 24840, Note_on_c, 11, 43, 0
12, 24840, Note_on_c, 11, 43, 100
12, 24960, Note_on_c, 11, 43, 0
12, 29520, Note_on_c, 11, 42, 100
12, 29760, Note_on_c, 11, 42, 0
12, 29760, Note_on_c, 11, 41, 100
12, 29880, Note_on_c, 11, 41, 0
12, 29880, Note_on_c, 11, 42, 100
12, 30120, Note_on_c, 11, 42, 0
12, 30120, Note_on_c, 11, 41, 100
12, 30240, Note_on_c, 11, 41, 0
12, 30240, Note_on_c, 11, 42, 100
12, 30480, Note_on_c, 11, 42, 0
12, 30480, Note_on_c, 11, 41, 100
12, 30600, Note_on_c, 11, 41, 0
12, 30600, Note_on_c, 11, 41, 100
12, 30720, Note_on_c, 11, 41, 0
12, 32400, Program_c, 11, 45
12, 32400, Note_on_c, 11, 46, 100
12, 32520, Note_on_c, 11, 46, 0
12, 32760, Note_on_c, 11, 58, 100
12, 32880, Note_on_c, 11, 58, 0
12, 33120, Note_on_c, 11, 58, 100
12, 33240, Note_on_c, 11, 58, 0
12, 33480, Note_on_c, 11, 58, 100
12, 33600, Note_on_c, 11, 58, 0
12, 33840, Note_on_c, 11, 53, 100
12, 33960, Note_on_c, 11, 53, 0
12, 34200, Note_on_c, 11, 53, 100
12, 34320, Note_on_c, 11, 53, 0
12, 34560, Note_on_c, 11, 53, 100
12, 34680, Note_on_c, 11, 53, 0
12, 34920, Note_on_c, 11, 53, 100
12, 35040, Note_on_c, 11, 53, 0
12, 35280, Note_on_c, 11, 46, 100
12, 35400, Note_on_c, 11, 46, 0
12, 35640, Note_on_c, 11, 58, 100
12, 35760, Note_on_c, 11, 58, 0
12, 36000, Note_on_c, 11, 58, 100
12, 36120, Note_on_c, 11, 58, 0
12, 36360, Note_on_c, 11, 58, 100
12, 36480, Note_on_c, 11, 58, 0
12, 36720, Note_on_c, 11, 53, 100
12, 36840, Note_on_c, 11, 53, 0
12, 37080, Note_on_c, 11, 53, 100
12, 37200, Note_on_c, 11, 53, 0
12, 37440, Note_on_c, 11, 53, 100
12, 37560, Note_on_c, 11, 53, 0
12, 37800, Note_on_c, 11, 53, 100
12, 37920, Note_on_c, 11, 53, 0
12, 38160, Note_on_c, 11, 46, 100
12, 38280, Note_on_c, 11, 46, 0
12, 38520, Program_c, 11, 48
12, 38520, Note_on_c, 11, 65, 100
12, 38640, Note_on_c, 11, 65, 0
12, 38640, Note_on_c, 11, 65, 100
12, 38760, Note_on_c, 11, 65, 0
12, 38760, Note_on_c, 11, 64, 100
12, 38880, Note_on_c, 11, 64, 0
12, 38880, Note_on_c, 11, 62, 100
12, 39000, Note_on_c, 11, 62, 0
12, 39000, Note_on_c, 11, 62, 100
12, 39120, Note_on_c, 11, 62, 0
12, 39120, Note_on_c, 11, 60, 100
12, 39240, Note_on_c, 11, 60, 0
12, 39240, Note_on_c, 11, 58, 100
12, 39360, Note_on_c, 11, 58, 0
12, 39360, Note_on_c, 11, 58, 100
12, 39480, Note_on_c, 11, 58, 0
12, 39480, Note_on_c, 11, 57, 100
12, 39600, Note_on_c, 11, 57, 0
12, 39600, Note_on_c, 11, 55, 100
12, 39720, Note_on_c, 11, 55, 0
12, 39720, Note_on_c, 11, 55, 100
12, 39840, Note_on_c, 11, 55, 0
12, 39840, Note_on_c, 11, 53, 100
12, 39960, Note_on_c, 11, 53, 0
12, 39960, Note_on_c, 11, 52, 100
12, 40080, Note_on_c, 11, 52, 0
12, 40080, Note_on_c, 11, 52, 100
12, 40200, Note_on_c, 11, 52, 0
12, 40200, Note_on_c, 11, 50, 100
12, 40320, Note_on_c, 11, 50, 0
12, 40320, Note_on_c, 11, 48, 100
12, 40440, Note_on_c, 11, 48, 0
12, 40440, Note_on_c, 11, 48, 100
12, 40560, Note_on_c, 11, 48, 0
12, 40560, Note_on_c, 11, 46, 100
12, 40680, Note_on_c, 11, 46, 0
12, 40680, Note_on_c, 11, 45, 100
12, 40800, Note_on_c, 11, 45, 0
12, 40800, Note_on_c, 11, 43, 100
12, 40920, Note_on_c, 11, 43, 0
12, 40920, Note_on_c, 11, 41, 100
12, 41040, Note_on_c, 11, 41, 0
12, 41040, Note_on_c, 11, 41, 100
12, 41160, Note_on_c, 11, 41, 0
12, 41280, Note_on_c, 11, 41, 100
12, 41400, Note_on_c, 11, 41, 0
12, 41400, Note_on_c, 11, 41, 100
12, 41520, Note_on_c, 11, 41, 0
12, 41640, Note_on_c, 11, 41, 100
12, 41760, Note_on_c, 11, 41, 0
12, 41760, Note_on_c, 11, 41, 100
12, 42960, Note_on_c, 11, 41, 0
12, 42960, Note_on_c, 11, 40, 100
12, 43080, Note_on_c, 11, 40, 0
12, 43080, Note_on_c, 11, 40, 100
12, 43200, Note_on_c, 11, 40, 0
12, 43200, Note_on_c, 11, 40, 100
12, 44400, Note_on_c, 11, 40, 0
12, 44400, Note_on_c, 11, 41, 100
12, 44520, Note_on_c, 11, 41, 0
12, 44520, Note_on_c, 11, 41, 100
12, 44640, Note_on_c, 11, 41, 0
12, 44640, Note_on_c, 11, 53, 100
12, 44760, Note_on_c, 11, 53, 0
12, 45000, Program_c, 11, 45
12, 45000, Note_on_c, 11, 53, 100
12, 45120, Note_on_c, 11, 53, 0
12, 45360, Note_on_c, 11, 53, 100
12, 45480, Note_on_c, 11, 53, 0
12, 45720, Note_on_c, 11, 48, 100
12, 45840, Note_on_c, 11, 48, 0
12, 46080, Program_c, 11, 48
12, 46080, Note_on_c, 11, 48, 100
12, 46080, Note_on_c, 11, 55, 100
12, 47280, Note_on_c, 11, 55, 0
12, 47280, Note_on_c, 11, 48, 0
12, 47280, Note_on_c, 11, 53, 100
12, 47280, Note_on_c, 11, 57, 100
12, 47400, Note_on_c, 11, 57, 0
12, 47400, Note_on_c, 11, 53, 0
12, 47400, Note_on_c, 11, 53, 100
12, 47400, Note_on_c, 11, 57, 100
12, 47520, Note_on_c, 11, 57, 0
12, 47520, Note_on_c, 11, 53, 0
12, 47520, Note_on_c, 11, 58, 100
12, 47640, Note_on_c, 11, 58, 0
12, 47640, Note_on_c, 11, 58, 100
12, 47760, Note_on_c, 11, 58, 0
12, 47760, Note_on_c, 11, 57, 100
12, 47880, Note_on_c, 11, 57, 0
12, 47880, Note_on_c, 11, 55, 100
12, 48120, Note_on_c, 11, 55, 0
12, 48120, Note_on_c, 11, 53, 100
12, 48240, Note_on_c, 11, 53, 0
12, 48960, Note_on_c, 11, 58, 100
12, 49080, Note_on_c, 11, 58, 0
12, 49080, Note_on_c, 11, 58, 100
12, 49200, Note_on_c, 11, 58, 0
12, 49200, Note_on_c, 11, 57, 100
12, 49320, Note_on_c, 11, 57, 0
12, 49320, Note_on_c, 11, 55, 100
12, 49560, Note_on_c, 11, 55, 0
12, 49560, Note_on_c, 11, 53, 100
12, 49680, Note_on_c, 11, 53, 0
12, 49680, Note_on_c, 11, 58, 100
12, 49920, Note_on_c, 11, 58, 0
12, 49920, Note_on_c, 11, 57, 100
12, 50040, Note_on_c, 11, 57, 0
12, 50040, Note_on_c, 11, 62, 100
12, 50280, Note_on_c, 11, 62, 0
12, 50280, Note_on_c, 11, 60, 100
12, 50400, Note_on_c, 11, 60, 0
12, 50400, Note_on_c, 11, 65, 100
12, 50640, Note_on_c, 11, 65, 0
12, 50640, Note_on_c, 11, 64, 100
12, 50760, Note_on_c, 11, 64, 0
12, 50760, Note_on_c, 11, 62, 100
12, 51000, Note_on_c, 11, 62, 0
12, 51000, Note_on_c, 11, 60, 100
12, 51120, Note_on_c, 11, 60, 0
12, 51120, Note_on_c, 11, 55, 100
12, 51240, Note_on_c, 11, 55, 0
12, 51240, Note_on_c, 11, 67, 100
12, 51360, Note_on_c, 11, 67, 0
12, 51360, Note_on_c, 11, 67, 100
12, 51480, Note_on_c, 11, 67, 0
12, 51480, Note_on_c, 11, 60, 100
12, 51600, Note_on_c, 11, 60, 0
12, 51840, Note_on_c, 11, 55, 100
12, 51960, Note_on_c, 11, 55, 0
12, 51960, Note_on_c, 11, 67, 100
12, 52080, Note_on_c, 11, 67, 0
12, 52080, Note_on_c, 11, 67, 100
12, 52200, Note_on_c, 11, 67, 0
12, 52200, Note_on_c, 11, 60, 100
12, 52320, Note_on_c, 11, 60, 0
12, 52560, Note_on_c, 11, 55, 100
12, 52680, Note_on_c, 11, 55, 0
12, 52680, Note_on_c, 11, 55, 100
12, 52800, Note_on_c, 11, 55, 0
12, 52800, Note_on_c, 11, 67, 100
12, 52920, Note_on_c, 11, 67, 0
12, 52920, Note_on_c, 11, 60, 100
12, 53040, Note_on_c, 11, 60, 0
12, 53280, Note_on_c, 11, 55, 100
12, 53400, Note_on_c, 11, 55, 0
12, 53400, Note_on_c, 11, 67, 100
12, 53520, Note_on_c, 11, 67, 0
12, 53520, Note_on_c, 11, 67, 100
12, 53640, Note_on_c, 11, 67, 0
12, 53640, Note_on_c, 11, 60, 100
12, 53760, Note_on_c, 11, 60, 0
12, 54000, Note_on_c, 11, 48, 100
12, 54120, Note_on_c, 11, 48, 0
12, 54120, Note_on_c, 11, 60, 100
12, 54240, Note_on_c, 11, 60, 0
12, 54240, Note_on_c, 11, 60, 100
12, 54360, Note_on_c, 11, 60, 0
12, 54360, Note_on_c, 11, 41, 100
12, 54480, Note_on_c, 11, 41, 0
12, 54480, Note_on_c, 11, 53, 100
12, 54600, Note_on_c, 11, 53, 0
12, 54600, Note_on_c, 11, 53, 100
12, 54720, Note_on_c, 11, 53, 0
12, 54720, Note_on_c, 11, 48, 100
12, 54840, Note_on_c, 11, 48, 0
12, 54840, Note_on_c, 11, 60, 100
12, 54960, Note_on_c, 11, 60, 0
12, 54960, Note_on_c, 11, 60, 100
12, 55080, Note_on_c, 11, 60, 0
12, 55080, Note_on_c, 11, 41, 100
12, 55200, Note_on_c, 11, 41, 0
12, 55200, Note_on_c, 11, 53, 100
12, 55320, Note_on_c, 11, 53, 0
12, 55320, Note_on_c, 11, 53, 100
12, 55440, Note_on_c, 11, 53, 0
12, 55440, Note_on_c, 11, 48, 100
12, 55560, Note_on_c, 11, 48, 0
12, 55560, Note_on_c, 11, 60, 100
12, 55680, Note_on_c, 11, 60, 0
12, 55680, Note_on_c, 11, 60, 100
12, 55800, Note_on_c, 11, 60, 0
12, 55800, Note_on_c, 11, 41, 100
12, 55920, Note_on_c, 11, 41, 0
12, 55920, Note_on_c, 11, 53, 100
12, 56040, Note_on_c, 11, 53, 0
12, 56040, Note_on_c, 11, 53, 100
12, 56160, Note_on_c, 11, 53, 0
12, 56160, Note_on_c, 11, 48, 100
12, 56280, Note_on_c, 11, 48, 0
12, 56280, Note_on_c, 11, 60, 100
12, 56400, Note_on_c, 11, 60, 0
12, 56400, Note_on_c, 11, 60, 100
12, 56520, Note_on_c, 11, 60, 0
12, 56520, Note_on_c, 11, 41, 100
12, 56640, Note_on_c, 11, 41, 0
12, 56640, Note_on_c, 11, 53, 100
12, 56760, Note_on_c, 11, 53, 0
12, 56760, Note_on_c, 11, 53, 100
12, 56880, Note_on_c, 11, 53, 0
12, 56880, Note_on_c, 11, 48, 100
12, 57000, Note_on_c, 11, 48, 0
12, 57000, Note_on_c, 11, 60, 100
12, 57120, Note_on_c, 11, 60, 0
12, 57120, Note_on_c, 11, 60, 100
12, 57240, Note_on_c, 11, 60, 0
12, 57240, Note_on_c, 11, 53, 100
12, 57360, Note_on_c, 11, 53, 0
12, 57360, Note_on_c, 11, 60, 100
12, 57480, Note_on_c, 11, 60, 0
12, 57480, Note_on_c, 11, 57, 100
12, 57600, Note_on_c, 11, 57, 0
12, 57600, Note_on_c, 11, 53, 100
12, 57720, Note_on_c, 11, 53, 0
12, 57720, Note_on_c, 11, 60, 100
12, 57840, Note_on_c, 11, 60, 0
12, 57840, Note_on_c, 11, 57, 100
12, 57960, Note_on_c, 11, 57, 0
12, 57960, Note_on_c, 11, 53, 100
12, 58080, Note_on_c, 11, 53, 0
12, 58080, Note_on_c, 11, 48, 100
12, 58200, Note_on_c, 11, 48, 0
12, 58200, Note_on_c, 11, 41, 100
12, 58320, Note_on_c, 11, 41, 0
12, 58320, Note_on_c, 11, 41, 100
12, 58350, Note_on_c, 11, 41, 0
12, 58350, Note_on_c, 11, 45, 100
12, 58440, Note_on_c, 11, 45, 0
12, 58440, Note_on_c, 11, 41, 100
12, 58500, Note_on_c, 11, 41, 0
12, 59640, Note_on_c, 11, 41, 100
12, 59760, Note_on_c, 11, 41, 0
12, 59760, Note_on_c, 11, 41, 100
12, 59790, Note_on_c, 11, 41, 0
12, 59790, Note_on_c, 11, 45, 100
12, 59880, Note_on_c, 11, 45, 0
12, 59880, Note_on_c, 11, 41, 100
12, 59940, Note_on_c, 11, 41, 0
12, 60000, Note_on_c, 11, 41, 100
12, 60120, Note_on_c, 11, 41, 0
12, 60120, Note_on_c, 11, 41, 100
12, 60150, Note_on_c, 11, 41, 0
12, 60150, Note_on_c, 11, 45, 100
12, 60240, Note_on_c, 11, 45, 0
12, 60240, Note_on_c, 11, 41, 100
12, 60360, Note_on_c, 11, 41, 0
12, 60360, Note_on_c, 11, 41, 100
12, 60480, Note_on_c, 11, 41, 0
12, 60480, Note_on_c, 11, 41, 100
12, 60510, Note_on_c, 11, 41, 0
12, 60510, Note_on_c, 11, 45, 100
12, 60600, Note_on_c, 11, 45, 0
12, 60600, Note_on_c, 11, 41, 100
12, 60720, Note_on_c, 11, 41, 0
12, 60720, Note_on_c, 11, 41, 100
12, 60840, Note_on_c, 11, 41, 0
12, 60840, Note_on_c, 11, 41, 100
12, 60870, Note_on_c, 11, 41, 0
12, 60870, Note_on_c, 11, 45, 100
12, 60960, Note_on_c, 11, 45, 0
12, 60960, Note_on_c, 11, 41, 100
12, 61080, Note_on_c, 11, 41, 0
12, 61080, Note_on_c, 11, 41, 100
12, 61200, Note_on_c, 11, 41, 0
12, 61200, Note_on_c, 11, 45, 100
12, 62520, Note_on_c, 11, 45, 0
12, 62520, Note_on_c, 11, 45, 100
12, 62640, Note_on_c, 11, 45, 0
12, 62640, Note_on_c, 11, 45, 100
12, 62670, Note_on_c, 11, 45, 0
12, 62670, Note_on_c, 11, 49, 100
12, 62760, Note_on_c, 11, 49, 0
12, 62760, Note_on_c, 11, 45, 100
12, 62820, Note_on_c, 11, 45, 0
12, 68400, Note_on_c, 11, 44, 100
12, 68640, Note_on_c, 11, 44, 0
12, 68640, Note_on_c, 11, 43, 100
12, 68760, Note_on_c, 11, 43, 0
12, 68760, Note_on_c, 11, 44, 100
12, 69000, Note_on_c, 11, 44, 0
12, 69000, Note_on_c, 11, 43, 100
12, 69120, Note_on_c, 11, 43, 0
12, 69120, Note_on_c, 11, 44, 100
12, 69360, Note_on_c, 11, 44, 0
12, 69360, Note_on_c, 11, 43, 100
12, 69480, Note_on_c, 11, 43, 0
12, 69480, Note_on_c, 11, 43, 100
12, 69600, Note_on_c, 11, 43, 0
12, 74160, Note_on_c, 11, 42, 100
12, 74400, Note_on_c, 11, 42, 0
12, 74400, Note_on_c, 11, 41, 100
12, 74520, Note_on_c, 11, 41, 0
12, 74520, Note_on_c, 11, 42, 100
12, 74760, Note_on_c, 11, 42, 0
12, 74760, Note_on_c, 11, 41, 100
12, 74880, Note_on_c, 11, 41, 0
12, 74880, Note_on_c, 11, 42, 100
12, 75120, Note_on_c, 11, 42, 0
12, 75120, Note_on_c, 11, 41, 100
12, 75240, Note_on_c, 11, 41, 0
12, 75240, Note_on_c, 11, 41, 100
12, 75360, Note_on_c, 11, 41, 0
12, 77040, Program_c, 11, 45
12, 77040, Note_on_c, 11, 46, 100
12, 77160, Note_on_c, 11, 46, 0
12, 77400, Note_on_c, 11, 58, 100
12, 77520, Note_on_c, 11, 58, 0
12, 77760, Note_on_c, 11, 58, 100
12, 77880, Note_on_c, 11, 58, 0
12, 78120, Note_on_c, 11, 58, 100
12, 78240, Note_on_c, 11, 58, 0
12, 78480, Note_on_c, 11, 53, 100
12, 78600, Note_on_c, 11, 53, 0
12, 78840, Note_on_c, 11, 53, 100
12, 78960, Note_on_c, 11, 53, 0
12, 79200, Note_on_c, 11, 53, 100
12, 79320, Note_on_c, 11, 53, 0
12, 79560, Note_on_c, 11, 53, 100
12, 79680, Note_on_c, 11, 53, 0
12, 79920, Note_on_c, 11, 46, 100
12, 80040, Note_on_c, 11, 46, 0
12, 80280, Note_on_c, 11, 58, 100
12, 80400, Note_on_c, 11, 58, 0
12, 80640, Note_on_c, 11, 58, 100
12, 80760, Note_on_c, 11, 58, 0
12, 81000, Note_on_c, 11, 58, 100
12, 81120, Note_on_c, 11, 58, 0
12, 81360, Note_on_c, 11, 53, 100
12, 81480, Note_on_c, 11, 53, 0
12, 81720, Note_on_c, 11, 53, 100
12, 81840, Note_on_c, 11, 53, 0
12, 82080, Note_on_c, 11, 53, 100
12, 82200, Note_on_c, 11, 53, 0
12, 82440, Note_on_c, 11, 53, 100
12, 82560, Note_on_c, 11, 53, 0
12, 82800, Note_on_c, 11, 46, 100
12, 82920, Note_on_c, 11, 46, 0
12, 83160, Program_c, 11, 48
12, 83160, Note_on_c, 11, 65, 100
12, 83280, Note_on_c, 11, 65, 0
12, 83280, Note_on_c, 11, 65, 100
12, 83400, Note_on_c, 11, 65, 0
12, 83400, Note_on_c, 11, 64, 100
12, 83520, Note_on_c, 11, 64, 0
12, 83520, Note_on_c, 11, 62, 100
12, 83640, Note_on_c, 11, 62, 0
12, 83640, Note_on_c, 11, 62, 100
12, 83760, Note_on_c, 11, 62, 0
12, 83760, Note_on_c, 11, 60, 100
12, 83880, Note_on_c, 11, 60, 0
12, 83880, Note_on_c, 11, 58, 100
12, 84000, Note_on_c, 11, 58, 0
12, 84000, Note_on_c, 11, 58, 100
12, 84120, Note_on_c, 11, 58, 0
12, 84120, Note_on_c, 11, 57, 100
12, 84240, Note_on_c, 11, 57, 0
12, 84240, Note_on_c, 11, 55, 100
12, 84360, Note_on_c, 11, 55, 0
12, 84360, Note_on_c, 11, 55, 100
12, 84480, Note_on_c, 11, 55, 0
12, 84480, Note_on_c, 11, 53, 100
12, 84600, Note_on_c, 11, 53, 0
12, 84600, Note_on_c, 11, 52, 100
12, 84720, Note_on_c, 11, 52, 0
12, 84720, Note_on_c, 11, 52, 100
12, 84840, Note_on_c, 11, 52, 0
12, 84840, Note_on_c, 11, 50, 100
12, 84960, Note_on_c, 11, 50, 0
12, 84960, Note_on_c, 11, 48, 100
12, 85080, Note_on_c, 11, 48, 0
12, 85080, Note_on_c, 11, 48, 100
12, 85200, Note_on_c, 11, 48, 0
12, 85200, Note_on_c, 11, 46, 100
12, 85320, Note_on_c, 11, 46, 0
12, 85320, Note_on_c, 11, 45, 100
12, 85440, Note_on_c, 11, 45, 0
12, 85440, Note_on_c, 11, 43, 100
12, 85560, Note_on_c, 11, 43, 0
12, 85560, Note_on_c, 11, 41, 100
12, 85680, Note_on_c, 11, 41, 0
12, 85680, Note_on_c, 11, 41, 100
12, 85800, Note_on_c, 11, 41, 0
12, 85920, Note_on_c, 11, 41, 100
12, 86040, Note_on_c, 11, 41, 0
12, 86040, Note_on_c, 11, 41, 100
12, 86160, Note_on_c, 11, 41, 0
12, 86280, Note_on_c, 11, 41, 100
12, 86400, Note_on_c, 11, 41, 0
12, 86400, Note_on_c, 11, 41, 100
12, 87600, Note_on_c, 11, 41, 0
12, 87600, Note_on_c, 11, 40, 100
12, 87720, Note_on_c, 11, 40, 0
12, 87720, Note_on_c, 11, 40, 100
12, 87840, Note_on_c, 11, 40, 0
12, 87840, Note_on_c, 11, 40, 100
12, 89040, Note_on_c, 11, 40, 0
12, 89040, Note_on_c, 11, 41, 100
12, 89160, Note_on_c, 11, 41, 0
12, 89160, Note_on_c, 11, 41, 100
12, 89280, Note_on_c, 11, 41, 0
12, 89280, Note_on_c, 11, 53, 100
12, 89400, Note_on_c, 11, 53, 0
12, 89640, Program_c, 11, 45
12, 89640, Note_on_c, 11, 53, 100
12, 89760, Note_on_c, 11, 53, 0
12, 90000, Note_on_c, 11, 53, 100
12, 90120, Note_on_c, 11, 53, 0
12, 90360, Note_on_c, 11, 48, 100
12, 90480, Note_on_c, 11, 48, 0
12, 90720, Program_c, 11, 48
12, 90720, Note_on_c, 11, 48, 100
12, 90720, Note_on_c, 11, 55, 100
12, 91920, Note_on_c, 11, 55, 0
12, 91920, Note_on_c, 11, 48, 0
12, 91920, Note_on_c, 11, 53, 100
12, 91920, Note_on_c, 11, 57, 100
12, 92040, Note_on_c, 11, 57, 0
12, 92040, Note_on_c, 11, 53, 0
12, 92040, Note_on_c, 11, 53, 100
12, 92040, Note_on_c, 11, 57, 100
12, 92160, Note_on_c, 11, 57, 0
12, 92160, Note_on_c, 11, 53, 0
12, 92160, Note_on_c, 11, 58, 100
12, 92280, Note_on_c, 11, 58, 0
12, 92280, Note_on_c, 11, 58, 100
12, 92400, Note_on_c, 11, 58, 0
12, 92400, Note_on_c, 11, 57, 100
12, 92520, Note_on_c, 11, 57, 0
12, 92520, Note_on_c, 11, 55, 100
12, 92760, Note_on_c, 11, 55, 0
12, 92760, Note_on_c, 11, 53, 100
12, 92880, Note_on_c, 11, 53, 0
12, 93600, Note_on_c, 11, 58, 100
12, 93720, Note_on_c, 11, 58, 0
12, 93720, Note_on_c, 11, 58, 100
12, 93840, Note_on_c, 11, 58, 0
12, 93840, Note_on_c, 11, 57, 100
12, 93960, Note_on_c, 11, 57, 0
12, 93960, Note_on_c, 11, 55, 100
12, 94200, Note_on_c, 11, 55, 0
12, 94200, Note_on_c, 11, 53, 100
12, 94320, Note_on_c, 11, 53, 0
12, 94320, Note_on_c, 11, 58, 100
12, 94560, Note_on_c, 11, 58, 0
12, 94560, Note_on_c, 11, 57, 100
12, 94680, Note_on_c, 11, 57, 0
12, 94680, Note_on_c, 11, 62, 100
12, 94920, Note_on_c, 11, 62, 0
12, 94920, Note_on_c, 11, 60, 100
12, 95040, Note_on_c, 11, 60, 0
12, 95040, Note_on_c, 11, 65, 100
12, 95280, Note_on_c, 11, 65, 0
12, 95280, Note_on_c, 11, 64, 100
12, 95400, Note_on_c, 11, 64, 0
12, 95400, Note_on_c, 11, 62, 100
12, 95640, Note_on_c, 11, 62, 0
12, 95640, Note_on_c, 11, 60, 100
12, 95760, Note_on_c, 11, 60, 0
12, 95760, Note_on_c, 11, 55, 100
12, 95880, Note_on_c, 11, 55, 0
12, 95880, Note_on_c, 11, 67, 100
12, 96000, Note_on_c, 11, 67, 0
12, 96000, Note_on_c, 11, 67, 100
12, 96120, Note_on_c, 11, 67, 0
12, 96120, Note_on_c, 11, 60, 100
12, 96240, Note_on_c, 11, 60, 0
12, 96480, Note_on_c, 11, 55, 100
12, 96600, Note_on_c, 11, 55, 0
12, 96600, Note_on_c, 11, 67, 100
12, 96720, Note_on_c, 11, 67, 0
12, 96720, Note_on_c, 11, 67, 100
12, 96840, Note_on_c, 11, 67, 0
12, 96840, Note_on_c, 11, 60, 100
12, 96960, Note_on_c, 11, 60, 0
12, 97200, Note_on_c, 11, 55, 100
12, 97320, Note_on_c, 11, 55, 0
12, 97320, Note_on_c, 11, 55, 100
12, 97440, Note_on_c, 11, 55, 0
12, 97440, Note_on_c, 11, 67, 100
12, 97560, Note_on_c, 11, 67, 0
12, 97560, Note_on_c, 11, 60, 100
12, 97680, Note_on_c, 11, 60, 0
12, 97920, Note_on_c, 11, 55, 100
12, 98040, Note_on_c, 11, 55, 0
12, 98040, Note_on_c, 11, 67, 100
12, 98160, Note_on_c, 11, 67, 0
12, 98160, Note_on_c, 11, 67, 100
12, 98280, Note_on_c, 11, 67, 0
12, 98280, Note_on_c, 11, 60, 100
12, 98400, Note_on_c, 11, 60, 0
12, 98640, Note_on_c, 11, 48, 100
12, 98760, Note_on_c, 11, 48, 0
12, 98760, Note_on_c, 11, 60, 100
12, 98880, Note_on_c, 11, 60, 0
12, 98880, Note_on_c, 11, 60, 100
12, 99000, Note_on_c, 11, 60, 0
12, 99000, Note_on_c, 11, 41, 100
12, 99120, Note_on_c, 11, 41, 0
12, 99120, Note_on_c, 11, 53, 100
12, 99240, Note_on_c, 11, 53, 0
12, 99240, Note_on_c, 11, 53, 100
12, 99360, Note_on_c, 11, 53, 0
12, 99360, Note_on_c, 11, 48, 100
12, 99480, Note_on_c, 11, 48, 0
12, 99480, Note_on_c, 11, 60, 100
12, 99600, Note_on_c, 11, 60, 0
12, 99600, Note_on_c, 11, 60, 100
12, 99720, Note_on_c, 11, 60, 0
12, 99720, Note_on_c, 11, 41, 100
12, 99840, Note_on_c, 11, 41, 0
12, 99840, Note_on_c, 11, 53, 100
12, 99960, Note_on_c, 11, 53, 0
12, 99960, Note_on_c, 11, 53, 100
12, 100080, Note_on_c, 11, 53, 0
12, 100080, Note_on_c, 11, 48, 100
12, 100200, Note_on_c, 11, 48, 0
12, 100200, Note_on_c, 11, 60, 100
12, 100320, Note_on_c, 11, 60, 0
12, 100320, Note_on_c, 11, 60, 100
12, 100440, Note_on_c, 11, 60, 0
12, 100440, Note_on_c, 11, 41, 100
12, 100560, Note_on_c, 11, 41, 0
12, 100560, Note_on_c, 11, 53, 100
12, 100680, Note_on_c, 11, 53, 0
12, 100680, Note_on_c, 11, 53, 100
12, 100800, Note_on_c, 11, 53, 0
12, 100800, Note_on_c, 11, 48, 100
12, 100920, Note_on_c, 11, 48, 0
12, 100920, Note_on_c, 11, 60, 100
12, 101040, Note_on_c, 11, 60, 0
12, 101040, Note_on_c, 11, 60, 100
12, 101160, Note_on_c, 11, 60, 0
12, 101160, Note_on_c, 11, 41, 100
12, 101280, Note_on_c, 11, 41, 0
12, 101280, Note_on_c, 11, 53, 100
12, 101400, Note_on_c, 11, 53, 0
12, 101400, Note_on_c, 11, 53, 100
12, 101520, Note_on_c, 11, 53, 0
12, 101520, Note_on_c, 11, 48, 100
12, 101640, Note_on_c, 11, 48, 0
12, 101640, Note_on_c, 11, 60, 100
12, 101760, Note_on_c, 11, 60, 0
12, 101760, Note_on_c, 11, 60, 100
12, 101880, Note_on_c, 11, 60, 0
12, 101880, Note_on_c, 11, 53, 100
12, 102000, Note_on_c, 11, 53, 0
12, 102000, Note_on_c, 11, 60, 100
12, 102120, Note_on_c, 11, 60, 0
12, 102120, Note_on_c, 11, 57, 100
12, 102240, Note_on_c, 11, 57, 0
12, 102240, Note_on_c, 11, 53, 100
12, 102360, Note_on_c, 11, 53, 0
12, 102360, Note_on_c, 11, 60, 100
12, 102480, Note_on_c, 11, 60, 0
12, 102480, Note_on_c, 11, 57, 100
12, 102600, Note_on_c, 11, 57, 0
12, 102600, Note_on_c, 11, 53, 100
12, 102720, Note_on_c, 11, 53, 0
12, 102720, Note_on_c, 11, 48, 100
12, 102840, Note_on_c, 11, 48, 0
12, 102840, Note_on_c, 11, 41, 100
12, 102960, Note_on_c, 11, 41, 0
12, 102960, Note_on_c, 11, 41, 100
12, 102990, Note_on_c, 11, 41, 0
12, 102990, Note_on_c, 11, 45, 100
12, 103080, Note_on_c, 11, 45, 0
12, 103080, Note_on_c, 11, 41, 100
12, 103140, Note_on_c, 11, 41, 0
12, 104280, Note_on_c, 11, 41, 100
12, 104400, Note_on_c, 11, 41, 0
12, 104400, Note_on_c, 11, 41, 100
12, 104430, Note_on_c, 11, 41, 0
12, 104430, Note_on_c, 11, 45, 100
12, 104520, Note_on_c, 11, 45, 0
12, 104520, Note_on_c, 11, 41, 100
12, 104580, Note_on_c, 11, 41, 0
12, 104640, Note_on_c, 11, 41, 100
12, 104760, Note_on_c, 11, 41, 0
12, 104760, Note_on_c, 11, 41, 100
12, 104790, Note_on_c, 11, 41, 0
12, 104790, Note_on_c, 11, 45, 100
12, 104880, Note_on_c, 11, 45, 0
12, 104880, Note_on_c, 11, 41, 100
12, 105000, Note_on_c, 11, 41, 0
12, 105000, Note_on_c, 11, 41, 100
12, 105120, Note_on_c, 11, 41, 0
12, 105120, Note_on_c, 11, 41, 100
12, 105150, Note_on_c, 11, 41, 0
12, 105150, Note_on_c, 11, 45, 100
12, 105240, Note_on_c, 11, 45, 0
12, 105240, Note_on_c, 11, 41, 100
12, 105360, Note_on_c, 11, 41, 0
12, 105360, Note_on_c, 11, 41, 100
12, 105480, Note_on_c, 11, 41, 0
12, 105480, Note_on_c, 11, 41, 100
12, 105510, Note_on_c, 11, 41, 0
12, 105510, Note_on_c, 11, 45, 100
12, 105600, Note_on_c, 11, 45, 0
12, 105600, Note_on_c, 11, 41, 100
12, 105720, Note_on_c, 11, 41, 0
12, 105720, Note_on_c, 11, 41, 100
12, 105840, Note_on_c, 11, 41, 0
12, 105840, Note_on_c, 11, 45, 100
12, 107280, Note_on_c, 11, 45, 0
12, 107280, Note_on_c, 11, 50, 100
12, 107400, Note_on_c, 11, 50, 0
12, 127560, Note_on_c, 11, 45, 100
12, 127800, Note_on_c, 11, 45, 0
12, 127800, Note_on_c, 11, 45, 100
12, 128040, Note_on_c, 11, 45, 0
12, 128040, Note_on_c, 11, 45, 100
12, 128160, Note_on_c, 11, 45, 0
12, 128160, Note_on_c, 11, 50, 100
12, 128460, Note_on_c, 11, 50, 0
12, 128460, Note_on_c, 11, 45, 100
12, 128520, Note_on_c, 11, 45, 0
12, 128520, Note_on_c, 11, 50, 100
12, 128640, Note_on_c, 11, 50, 0
12, 128880, Note_on_c, 11, 50, 100
12, 129180, Note_on_c, 11, 50, 0
12, 129180, Note_on_c, 11, 45, 100
12, 129240, Note_on_c, 11, 45, 0
12, 129240, Note_on_c, 11, 50, 100
12, 129360, Note_on_c, 11, 50, 0
12, 129600, Note_on_c, 11, 50, 100
12, 129840, Note_on_c, 11, 50, 0
12, 129840, Note_on_c, 11, 45, 100
12, 129960, Note_on_c, 11, 45, 0
12, 129960, Note_on_c, 11, 50, 100
12, 130080, Note_on_c, 11, 50, 0
12, 130080, Note_on_c, 11, 45, 100
12, 130200, Note_on_c, 11, 45, 0
12, 130200, Note_on_c, 11, 50, 100
12, 130320, Note_on_c, 11, 50, 0
12, 130320, Note_on_c, 11, 45, 100
12, 130440, Note_on_c, 11, 45, 0
12, 131040, Note_on_c, 11, 45, 100
12, 131520, Note_on_c, 11, 45, 0
12, 131760, Note_on_c, 11, 45, 100
12, 132240, Note_on_c, 11, 45, 0
12, 132480, Note_on_c, 11, 45, 100
12, 132720, Note_on_c, 11, 45, 0
12, 132720, Note_on_c, 11, 50, 100
12, 132840, Note_on_c, 11, 50, 0
12, 132840, Note_on_c, 11, 45, 100
12, 132960, Note_on_c, 11, 45, 0
12, 132960, Note_on_c, 11, 57, 100
12, 133080, Note_on_c, 11, 57, 0
12, 133080, Note_on_c, 11, 45, 100
12, 133200, Note_on_c, 11, 45, 0
12, 133200, Note_on_c, 11, 50, 100
12, 133320, Note_on_c, 11, 50, 0
12, 142680, Note_on_c, 11, 45, 100
12, 142920, Note_on_c, 11, 45, 0
12, 142920, Note_on_c, 11, 45, 100
12, 143160, Note_on_c, 11, 45, 0
12, 143160, Note_on_c, 11, 45, 100
12, 143280, Note_on_c, 11, 45, 0
12, 143280, Note_on_c, 11, 50, 100
12, 143580, Note_on_c, 11, 50, 0
12, 143580, Note_on_c, 11, 45, 100
12, 143640, Note_on_c, 11, 45, 0
12, 143640, Note_on_c, 11, 50, 100
12, 143760, Note_on_c, 11, 50, 0
12, 144000, Note_on_c, 11, 50, 100
12, 144300, Note_on_c, 11, 50, 0
12, 144300, Note_on_c, 11, 45, 100
12, 144360, Note_on_c, 11, 45, 0
12, 144360, Note_on_c, 11, 50, 100
12, 144480, Note_on_c, 11, 50, 0
12, 144720, Note_on_c, 11, 50, 100
12, 144960, Note_on_c, 11, 50, 0
12, 144960, Note_on_c, 11, 45, 100
12, 145080, Note_on_c, 11, 45, 0
12, 145080, Note_on_c, 11, 50, 100
12, 145200, Note_on_c, 11, 50, 0
12, 145200, Note_on_c, 11, 45, 100
12, 145320, Note_on_c, 11, 45, 0
12, 145320, Note_on_c, 11, 50, 100
12, 145440, Note_on_c, 11, 50, 0
12, 145440, Note_on_c, 11, 45, 100
12, 145560, Note_on_c, 11, 45, 0
12, 146160, Note_on_c, 11, 45, 100
12, 146640, Note_on_c, 11, 45, 0
12, 146880, Note_on_c, 11, 45, 100
12, 147360, Note_on_c, 11, 45, 0
12, 147600, Note_on_c, 11, 45, 100
12, 147840, Note_on_c, 11, 45, 0
12, 147840, Note_on_c, 11, 50, 100
12, 147960, Note_on_c, 11, 50, 0
12, 147960, Note_on_c, 11, 45, 100
12, 148080, Note_on_c, 11, 45, 0
12, 148080, Note_on_c, 11, 57, 100
12, 148200, Note_on_c, 11, 57, 0
12, 148200, Note_on_c, 11, 45, 100
12, 148320, Note_on_c, 11, 45, 0
12, 148320, Note_on_c, 11, 50, 100
12, 148440, Note_on_c, 11, 50, 0
12, 149040, Note_on_c, 11, 50, 100
12, 149760, Note_on_c, 11, 50, 0
12, 149760, Note_on_c, 11, 49, 100
12, 150480, Note_on_c, 11, 49, 0
12, 150480, Note_on_c, 11, 50, 100
12, 151200, Note_on_c, 11, 50, 0
12, 151200, Note_on_c, 11, 45, 100
12, 151920, Note_on_c, 11, 45, 0
12, 151920, Note_on_c, 11, 50, 100
12, 152640, Note_on_c, 11, 50, 0
12, 152640, Note_on_c, 11, 49, 100
12, 153360, Note_on_c, 11, 49, 0
12, 153360, Note_on_c, 11, 48, 100
12, 153660, Note_on_c, 11, 48, 0
12, 153660, Note_on_c, 11, 47, 100
12, 153720, Note_on_c, 11, 47, 0
12, 153720, Note_on_c, 11, 48, 100
12, 153840, Note_on_c, 11, 48, 0
12, 153960, Note_on_c, 11, 41, 100
12, 154080, Note_on_c, 11, 41, 0
12, 154080, Note_on_c, 11, 41, 100
12, 154200, Note_on_c, 11, 41, 0
12, 154320, Note_on_c, 11, 41, 100
12, 154440, Note_on_c, 11, 41, 0
12, 154440, Note_on_c, 11, 41, 100
12, 154560, Note_on_c, 11, 41, 0
12, 154680, Note_on_c, 11, 41, 100
12, 154800, Note_on_c, 11, 41, 0
12, 154800, Note_on_c, 11, 41, 100
12, 154920, Note_on_c, 11, 41, 0
12, 155160, Note_on_c, 11, 53, 100
12, 155280, Note_on_c, 11, 53, 0
12, 155520, Note_on_c, 11, 53, 100
12, 155640, Note_on_c, 11, 53, 0
12, 155880, Note_on_c, 11, 48, 100
12, 156000, Note_on_c, 11, 48, 0
12, 156240, Note_on_c, 11, 48, 100
12, 156360, Note_on_c, 11, 48, 0
12, 156600, Note_on_c, 11, 48, 100
12, 156720, Note_on_c, 11, 48, 0
12, 156960, Note_on_c, 11, 48, 100
12, 157080, Note_on_c, 11, 48, 0
12, 157320, Note_on_c, 11, 53, 100
12, 157440, Note_on_c, 11, 53, 0
12, 157680, Note_on_c, 11, 58, 100
12, 157800, Note_on_c, 11, 58, 0
12, 157800, Note_on_c, 11, 58, 100
12, 157920, Note_on_c, 11, 58, 0
12, 157920, Note_on_c, 11, 57, 100
12, 158040, Note_on_c, 11, 57, 0
12, 158040, Note_on_c, 11, 55, 100
12, 158280, Note_on_c, 11, 55, 0
12, 158280, Note_on_c, 11, 53, 100
12, 158400, Note_on_c, 11, 53, 0
12, 158400, Note_on_c, 11, 58, 100
12, 158520, Note_on_c, 11, 58, 0
12, 158520, Note_on_c, 11, 58, 100
12, 158640, Note_on_c, 11, 58, 0
12, 158640, Note_on_c, 11, 57, 100
12, 158760, Note_on_c, 11, 57, 0
12, 158760, Note_on_c, 11, 55, 100
12, 159000, Note_on_c, 11, 55, 0
12, 159000, Note_on_c, 11, 53, 100
12, 159120, Note_on_c, 11, 53, 0
12, 159120, Note_on_c, 11, 58, 100
12, 159360, Note_on_c, 11, 58, 0
12, 159360, Note_on_c, 11, 57, 100
12, 159480, Note_on_c, 11, 57, 0
12, 159480, Note_on_c, 11, 62, 100
12, 159720, Note_on_c, 11, 62, 0
12, 159720, Note_on_c, 11, 61, 100
12, 159840, Note_on_c, 11, 61, 0
12, 159840, Note_on_c, 11, 48, 100
12, 159960, Note_on_c, 11, 48, 0
12, 159960, Note_on_c, 11, 64, 100
12, 160080, Note_on_c, 11, 64, 0
12, 160080, Note_on_c, 11, 64, 100
12, 160200, Note_on_c, 11, 64, 0
12, 160200, Note_on_c, 11, 57, 100
12, 160320, Note_on_c, 11, 57, 0
12, 160560, Note_on_c, 11, 52, 100
12, 160680, Note_on_c, 11, 52, 0
12, 160680, Note_on_c, 11, 64, 100
12, 160800, Note_on_c, 11, 64, 0
12, 160800, Note_on_c, 11, 64, 100
12, 160920, Note_on_c, 11, 64, 0
12, 160920, Note_on_c, 11, 57, 100
12, 161040, Note_on_c, 11, 57, 0
12, 161280, Note_on_c, 11, 52, 100
12, 161400, Note_on_c, 11, 52, 0
12, 161400, Note_on_c, 11, 64, 100
12, 161520, Note_on_c, 11, 64, 0
12, 161520, Note_on_c, 11, 64, 100
12, 161640, Note_on_c, 11, 64, 0
12, 161640, Note_on_c, 11, 57, 100
12, 161760, Note_on_c, 11, 57, 0
12, 161760, Note_on_c, 11, 64, 100
12, 161880, Note_on_c, 11, 64, 0
12, 161880, Note_on_c, 11, 61, 100
12, 162000, Note_on_c, 11, 61, 0
12, 162000, Note_on_c, 11, 57, 100
12, 162120, Note_on_c, 11, 57, 0
12, 162120, Note_on_c, 11, 52, 100
12, 162240, Note_on_c, 11, 52, 0
12, 162240, Note_on_c, 11, 49, 100
12, 162360, Note_on_c, 11, 49, 0
12, 162360, Note_on_c, 11, 45, 100
12, 162480, Note_on_c, 11, 45, 0
12, 162600, Note_on_c, 11, 41, 100
12, 162720, Note_on_c, 11, 41, 0
12, 162720, Note_on_c, 11, 41, 100
12, 162840, Note_on_c, 11, 41, 0
12, 162960, Note_on_c, 11, 41, 100
12, 163080, Note_on_c, 11, 41, 0
12, 163080, Note_on_c, 11, 41, 100
12, 163200, Note_on_c, 11, 41, 0
12, 163320, Note_on_c, 11, 41, 100
12, 163440, Note_on_c, 11, 41, 0
12, 163440, Note_on_c, 11, 41, 100
12, 163560, Note_on_c, 11, 41, 0
12, 163800, Note_on_c, 11, 53, 100
12, 163920, Note_on_c, 11, 53, 0
12, 164160, Note_on_c, 11, 53, 100
12, 164280, Note_on_c, 11, 53, 0
12, 164520, Note_on_c, 11, 48, 100
12, 164640, Note_on_c, 11, 48, 0
12, 164880, Note_on_c, 11, 48, 100
12, 165000, Note_on_c, 11, 48, 0
12, 165240, Note_on_c, 11, 48, 100
12, 165360, Note_on_c, 11, 48, 0
12, 165600, Note_on_c, 11, 48, 100
12, 165720, Note_on_c, 11, 48, 0
12, 165960, Note_on_c, 11, 53, 100
12, 166080, Note_on_c, 11, 53, 0
12, 166320, Note_on_c, 11, 58, 100
12, 166440, Note_on_c, 11, 58, 0
12, 166440, Note_on_c, 11, 58, 100
12, 166560, Note_on_c, 11, 58, 0
12, 166560, Note_on_c, 11, 57, 100
12, 166680, Note_on_c, 11, 57, 0
12, 166680, Note_on_c, 11, 55, 100
12, 166920, Note_on_c, 11, 55, 0
12, 166920, Note_on_c, 11, 53, 100
12, 167040, Note_on_c, 11, 53, 0
12, 167040, Note_on_c, 11, 58, 100
12, 167160, Note_on_c, 11, 58, 0
12, 167160, Note_on_c, 11, 58, 100
12, 167280, Note_on_c, 11, 58, 0
12, 167280, Note_on_c, 11, 57, 100
12, 167400, Note_on_c, 11, 57, 0
12, 167400, Note_on_c, 11, 55, 100
12, 167640, Note_on_c, 11, 55, 0
12, 167640, Note_on_c, 11, 53, 100
12, 167760, Note_on_c, 11, 53, 0
12, 167760, Note_on_c, 11, 58, 100
12, 168000, Note_on_c, 11, 58, 0
12, 168000, Note_on_c, 11, 57, 100
12, 168120, Note_on_c, 11, 57, 0
12, 168120, Note_on_c, 11, 62, 100
12, 168360, Note_on_c, 11, 62, 0
12, 168360, Note_on_c, 11, 61, 100
12, 168480, Note_on_c, 11, 61, 0
12, 168480, Note_on_c, 11, 48, 100
12, 168600, Note_on_c, 11, 48, 0
12, 168600, Note_on_c, 11, 64, 100
12, 168720, Note_on_c, 11, 64, 0
12, 168720, Note_on_c, 11, 64, 100
12, 168840, Note_on_c, 11, 64, 0
12, 168840, Note_on_c, 11, 57, 100
12, 168960, Note_on_c, 11, 57, 0
12, 169200, Note_on_c, 11, 52, 100
12, 169320, Note_on_c, 11, 52, 0
12, 169320, Note_on_c, 11, 64, 100
12, 169440, Note_on_c, 11, 64, 0
12, 169440, Note_on_c, 11, 64, 100
12, 169560, Note_on_c, 11, 64, 0
12, 169560, Note_on_c, 11, 57, 100
12, 169680, Note_on_c, 11, 57, 0
12, 169920, Note_on_c, 11, 52, 100
12, 170040, Note_on_c, 11, 52, 0
12, 170040, Note_on_c, 11, 64, 100
12, 170160, Note_on_c, 11, 64, 0
12, 170160, Note_on_c, 11, 64, 100
12, 170280, Note_on_c, 11, 64, 0
12, 170280, Note_on_c, 11, 57, 100
12, 170400, Note_on_c, 11, 57, 0
12, 170400, Note_on_c, 11, 64, 100
12, 170520, Note_on_c, 11, 64, 0
12, 170520, Note_on_c, 11, 61, 100
12, 170640, Note_on_c, 11, 61, 0
12, 170640, Note_on_c, 11, 57, 100
12, 170760, Note_on_c, 11, 57, 0
12, 170760, Note_on_c, 11, 52, 100
12, 170880, Note_on_c, 11, 52, 0
12, 170880, Note_on_c, 11, 49, 100
12, 171000, Note_on_c, 11, 49, 0
12, 171000, Note_on_c, 11, 45, 100
12, 171120, Note_on_c, 11, 45, 0
12, 171240, Note_on_c, 11, 45, 100
12, 171360, Note_on_c, 11, 45, 0
12, 171360, Note_on_c, 11, 45, 100
12, 171390, Note_on_c, 11, 45, 0
12, 171390, Note_on_c, 11, 49, 100
12, 171480, Note_on_c, 11, 49, 0
12, 171480, Note_on_c, 11, 45, 100
12, 171540, Note_on_c, 11, 45, 0
12, 177120, Note_on_c, 11, 44, 100
12, 177360, Note_on_c, 11, 44, 0
12, 177360, Note_on_c, 11, 43, 100
12, 177480, Note_on_c, 11, 43, 0
12, 177480, Note_on_c, 11, 44, 100
12, 177720, Note_on_c, 11, 44, 0
12, 177720, Note_on_c, 11, 43, 100
12, 177840, Note_on_c, 11, 43, 0
12, 177840, Note_on_c, 11, 44, 100
12, 178080, Note_on_c, 11, 44, 0
12, 178080, Note_on_c, 11, 43, 100
12, 178200, Note_on_c, 11, 43, 0
12, 178200, Note_on_c, 11, 43, 100
12, 178320, Note_on_c, 11, 43, 0
12, 182880, Note_on_c, 11, 42, 100
12, 183120, Note_on_c, 11, 42, 0
12, 183120, Note_on_c, 11, 41, 100
12, 183240, Note_on_c, 11, 41, 0
12, 183240, Note_on_c, 11, 42, 100
12, 183480, Note_on_c, 11, 42, 0
12, 183480, Note_on_c, 11, 41, 100
12, 183600, Note_on_c, 11, 41, 0
12, 183600, Note_on_c, 11, 42, 100
12, 183840, Note_on_c, 11, 42, 0
12, 183840, Note_on_c, 11, 41, 100
12, 183960, Note_on_c, 11, 41, 0
12, 183960, Note_on_c, 11, 41, 100
12, 184080, Note_on_c, 11, 41, 0
12, 185760, Program_c, 11, 45
12, 185760, Note_on_c, 11, 46, 100
12, 185880, Note_on_c, 11, 46, 0
12, 186120, Note_on_c, 11, 58, 100
12, 186240, Note_on_c, 11, 58, 0
12, 186480, Note_on_c, 11, 58, 100
12, 186600, Note_on_c, 11, 58, 0
12, 186840, Note_on_c, 11, 58, 100
12, 186960, Note_on_c, 11, 58, 0
12, 187200, Note_on_c, 11, 53, 100
12, 187320, Note_on_c, 11, 53, 0
12, 187560, Note_on_c, 11, 53, 100
12, 187680, Note_on_c, 11, 53, 0
12, 187920, Note_on_c, 11, 53, 100
12, 188040, Note_on_c, 11, 53, 0
12, 188280, Note_on_c, 11, 53, 100
12, 188400, Note_on_c, 11, 53, 0
12, 188640, Note_on_c, 11, 46, 100
12, 188760, Note_on_c, 11, 46, 0
12, 189000, Note_on_c, 11, 58, 100
12, 189120, Note_on_c, 11, 58, 0
12, 189360, Note_on_c, 11, 58, 100
12, 189480, Note_on_c, 11, 58, 0
12, 189720, Note_on_c, 11, 58, 100
12, 189840, Note_on_c, 11, 58, 0
12, 190080, Note_on_c, 11, 53, 100
12, 190200, Note_on_c, 11, 53, 0
12, 190440, Note_on_c, 11, 53, 100
12, 190560, Note_on_c, 11, 53, 0
12, 190800, Note_on_c, 11, 53, 100
12, 190920, Note_on_c, 11, 53, 0
12, 191160, Note_on_c, 11, 53, 100
12, 191280, Note_on_c, 11, 53, 0
12, 191520, Note_on_c, 11, 46, 100
12, 191640, Note_on_c, 11, 46, 0
12, 191880, Program_c, 11, 48
12, 191880, Note_on_c, 11, 65, 100
12, 192000, Note_on_c, 11, 65, 0
12, 192000, Note_on_c, 11, 65, 100
12, 192120, Note_on_c, 11, 65, 0
12, 192120, Note_on_c, 11, 64, 100
12, 192240, Note_on_c, 11, 64, 0
12, 192240, Note_on_c, 11, 62, 100
12, 192360, Note_on_c, 11, 62, 0
12, 192360, Note_on_c, 11, 62, 100
12, 192480, Note_on_c, 11, 62, 0
12, 192480, Note_on_c, 11, 60, 100
12, 192600, Note_on_c, 11, 60, 0
12, 192600, Note_on_c, 11, 58, 100
12, 192720, Note_on_c, 11, 58, 0
12, 192720, Note_on_c, 11, 58, 100
12, 192840, Note_on_c, 11, 58, 0
12, 192840, Note_on_c, 11, 57, 100
12, 192960, Note_on_c, 11, 57, 0
12, 192960, Note_on_c, 11, 55, 100
12, 193080, Note_on_c, 11, 55, 0
12, 193080, Note_on_c, 11, 55, 100
12, 193200, Note_on_c, 11, 55, 0
12, 193200, Note_on_c, 11, 53, 100
12, 193320, Note_on_c, 11, 53, 0
12, 193320, Note_on_c, 11, 52, 100
12, 193440, Note_on_c, 11, 52, 0
12, 193440, Note_on_c, 11, 52, 100
12, 193560, Note_on_c, 11, 52, 0
12, 193560, Note_on_c, 11, 50, 100
12, 193680, Note_on_c, 11, 50, 0
12, 193680, Note_on_c, 11, 48, 100
12, 193800, Note_on_c, 11, 48, 0
12, 193800, Note_on_c, 11, 48, 100
12, 193920, Note_on_c, 11, 48, 0
12, 193920, Note_on_c, 11, 46, 100
12, 194040, Note_on_c, 11, 46, 0
12, 194040, Note_on_c, 11, 45, 100
12, 194160, Note_on_c, 11, 45, 0
12, 194160, Note_on_c, 11, 43, 100
12, 194280, Note_on_c, 11, 43, 0
12, 194280, Note_on_c, 11, 41, 100
12, 194400, Note_on_c, 11, 41, 0
12, 194400, Note_on_c, 11, 41, 100
12, 194520, Note_on_c, 11, 41, 0
12, 194640, Note_on_c, 11, 41, 100
12, 194760, Note_on_c, 11, 41, 0
12, 194760, Note_on_c, 11, 41, 100
12, 194880, Note_on_c, 11, 41, 0
12, 195000, Note_on_c, 11, 41, 100
12, 195120, Note_on_c, 11, 41, 0
12, 195120, Note_on_c, 11, 41, 100
12, 196320, Note_on_c, 11, 41, 0
12, 196320, Note_on_c, 11, 40, 100
12, 196440, Note_on_c, 11, 40, 0
12, 196440, Note_on_c, 11, 40, 100
12, 196560, Note_on_c, 11, 40, 0
12, 196560, Note_on_c, 11, 40, 100
12, 197760, Note_on_c, 11, 40, 0
12, 197760, Note_on_c, 11, 41, 100
12, 197880, Note_on_c, 11, 41, 0
12, 197880, Note_on_c, 11, 41, 100
12, 198000, Note_on_c, 11, 41, 0
12, 198000, Note_on_c, 11, 53, 100
12, 198120, Note_on_c, 11, 53, 0
12, 198360, Program_c, 11, 45
12, 198360, Note_on_c, 11, 53, 100
12, 198480, Note_on_c, 11, 53, 0
12, 198720, Note_on_c, 11, 53, 100
12, 198840, Note_on_c, 11, 53, 0
12, 199080, Note_on_c, 11, 48, 100
12, 199200, Note_on_c, 11, 48, 0
12, 199440, Program_c, 11, 48
12, 199440, Note_on_c, 11, 48, 100
12, 199440, Note_on_c, 11, 55, 100
12, 200640, Note_on_c, 11, 55, 0
12, 200640, Note_on_c, 11, 48, 0
12, 200640, Note_on_c, 11, 53, 100
12, 200640, Note_on_c, 11, 57, 100
12, 200760, Note_on_c, 11, 57, 0
12, 200760, Note_on_c, 11, 53, 0
12, 200760, Note_on_c, 11, 53, 100
12, 200760, Note_on_c, 11, 57, 100
12, 200880, Note_on_c, 11, 57, 0
12, 200880, Note_on_c, 11, 53, 0
12, 200880, Note_on_c, 11, 58, 100
12, 201000, Note_on_c, 11, 58, 0
12, 201000, Note_on_c, 11, 58, 100
12, 201120, Note_on_c, 11, 58, 0
12, 201120, Note_on_c, 11, 57, 100
12, 201240, Note_on_c, 11, 57, 0
12, 201240, Note_on_c, 11, 55, 100
12, 201480, Note_on_c, 11, 55, 0
12, 201480, Note_on_c, 11, 53, 100
12, 201600, Note_on_c, 11, 53, 0
12, 202320, Note_on_c, 11, 58, 100
12, 202440, Note_on_c, 11, 58, 0
12, 202440, Note_on_c, 11, 58, 100
12, 202560, Note_on_c, 11, 58, 0
12, 202560, Note_on_c, 11, 57, 100
12, 202680, Note_on_c, 11, 57, 0
12, 202680, Note_on_c, 11, 55, 100
12, 202920, Note_on_c, 11, 55, 0
12, 202920, Note_on_c, 11, 53, 100
12, 203040, Note_on_c, 11, 53, 0
12, 203040, Note_on_c, 11, 58, 100
12, 203280, Note_on_c, 11, 58, 0
12, 203280, Note_on_c, 11, 57, 100
12, 203400, Note_on_c, 11, 57, 0
12, 203400, Note_on_c, 11, 62, 100
12, 203640, Note_on_c, 11, 62, 0
12, 203640, Note_on_c, 11, 60, 100
12, 203760, Note_on_c, 11, 60, 0
12, 203760, Note_on_c, 11, 65, 100
12, 204000, Note_on_c, 11, 65, 0
12, 204000, Note_on_c, 11, 64, 100
12, 204120, Note_on_c, 11, 64, 0
12, 204120, Note_on_c, 11, 62, 100
12, 204360, Note_on_c, 11, 62, 0
12, 204360, Note_on_c, 11, 60, 100
12, 204480, Note_on_c, 11, 60, 0
12, 204480, Note_on_c, 11, 55, 100
12, 204600, Note_on_c, 11, 55, 0
12, 204600, Note_on_c, 11, 67, 100
12, 204720, Note_on_c, 11, 67, 0
12, 204720, Note_on_c, 11, 67, 100
12, 204840, Note_on_c, 11, 67, 0
12, 204840, Note_on_c, 11, 60, 100
12, 204960, Note_on_c, 11, 60, 0
12, 205200, Note_on_c, 11, 55, 100
12, 205320, Note_on_c, 11, 55, 0
12, 205320, Note_on_c, 11, 67, 100
12, 205440, Note_on_c, 11, 67, 0
12, 205440, Note_on_c, 11, 67, 100
12, 205560, Note_on_c, 11, 67, 0
12, 205560, Note_on_c, 11, 60, 100
12, 205680, Note_on_c, 11, 60, 0
12, 205920, Note_on_c, 11, 55, 100
12, 206040, Note_on_c, 11, 55, 0
12, 206040, Note_on_c, 11, 55, 100
12, 206160, Note_on_c, 11, 55, 0
12, 206160, Note_on_c, 11, 67, 100
12, 206280, Note_on_c, 11, 67, 0
12, 206280, Note_on_c, 11, 60, 100
12, 206400, Note_on_c, 11, 60, 0
12, 206640, Note_on_c, 11, 55, 100
12, 206760, Note_on_c, 11, 55, 0
12, 206760, Note_on_c, 11, 67, 100
12, 206880, Note_on_c, 11, 67, 0
12, 206880, Note_on_c, 11, 67, 100
12, 207000, Note_on_c, 11, 67, 0
12, 207000, Note_on_c, 11, 60, 100
12, 207120, Note_on_c, 11, 60, 0
12, 207360, Note_on_c, 11, 48, 100
12, 207480, Note_on_c, 11, 48, 0
12, 207480, Note_on_c, 11, 60, 100
12, 207600, Note_on_c, 11, 60, 0
12, 207600, Note_on_c, 11, 60, 100
12, 207720, Note_on_c, 11, 60, 0
12, 207720, Note_on_c, 11, 41, 100
12, 207840, Note_on_c, 11, 41, 0
12, 207840, Note_on_c, 11, 53, 100
12, 207960, Note_on_c, 11, 53, 0
12, 207960, Note_on_c, 11, 53, 100
12, 208080, Note_on_c, 11, 53, 0
12, 208080, Note_on_c, 11, 48, 100
12, 208200, Note_on_c, 11, 48, 0
12, 208200, Note_on_c, 11, 60, 100
12, 208320, Note_on_c, 11, 60, 0
12, 208320, Note_on_c, 11, 60, 100
12, 208440, Note_on_c, 11, 60, 0
12, 208440, Note_on_c, 11, 41, 100
12, 208560, Note_on_c, 11, 41, 0
12, 208560, Note_on_c, 11, 53, 100
12, 208680, Note_on_c, 11, 53, 0
12, 208680, Note_on_c, 11, 53, 100
12, 208800, Note_on_c, 11, 53, 0
12, 208800, Note_on_c, 11, 48, 100
12, 208920, Note_on_c, 11, 48, 0
12, 208920, Note_on_c, 11, 60, 100
12, 209040, Note_on_c, 11, 60, 0
12, 209040, Note_on_c, 11, 60, 100
12, 209160, Note_on_c, 11, 60, 0
12, 209160, Note_on_c, 11, 41, 100
12, 209280, Note_on_c, 11, 41, 0
12, 209280, Note_on_c, 11, 53, 100
12, 209400, Note_on_c, 11, 53, 0
12, 209400, Note_on_c, 11, 53, 100
12, 209520, Note_on_c, 11, 53, 0
12, 209520, Note_on_c, 11, 48, 100
12, 209640, Note_on_c, 11, 48, 0
12, 209640, Note_on_c, 11, 60, 100
12, 209760, Note_on_c, 11, 60, 0
12, 209760, Note_on_c, 11, 60, 100
12, 209880, Note_on_c, 11, 60, 0
12, 209880, Note_on_c, 11, 41, 100
12, 210000, Note_on_c, 11, 41, 0
12, 210000, Note_on_c, 11, 53, 100
12, 210120, Note_on_c, 11, 53, 0
12, 210120, Note_on_c, 11, 53, 100
12, 210240, Note_on_c, 11, 53, 0
12, 210240, Note_on_c, 11, 48, 100
12, 210360, Note_on_c, 11, 48, 0
12, 210360, Note_on_c, 11, 60, 100
12, 210480, Note_on_c, 11, 60, 0
12, 210480, Note_on_c, 11, 60, 100
12, 210600, Note_on_c, 11, 60, 0
12, 210600, Note_on_c, 11, 53, 100
12, 210720, Note_on_c, 11, 53, 0
12, 210720, Note_on_c, 11, 60, 100
12, 210840, Note_on_c, 11, 60, 0
12, 210840, Note_on_c, 11, 57, 100
12, 210960, Note_on_c, 11, 57, 0
12, 210960, Note_on_c, 11, 53, 100
12, 211080, Note_on_c, 11, 53, 0
12, 211080, Note_on_c, 11, 60, 100
12, 211200, Note_on_c, 11, 60, 0
12, 211200, Note_on_c, 11, 57, 100
12, 211320, Note_on_c, 11, 57, 0
12, 211320, Note_on_c, 11, 53, 100
12, 211440, Note_on_c, 11, 53, 0
12, 211440, Note_on_c, 11, 48, 100
12, 211560, Note_on_c, 11, 48, 0
12, 211560, Note_on_c, 11, 41, 100
12, 211680, Note_on_c, 11, 41, 0
12, 211680, Note_on_c, 11, 41, 100
12, 211710, Note_on_c, 11, 41, 0
12, 211710, Note_on_c, 11, 45, 100
12, 211800, Note_on_c, 11, 45, 0
12, 211800, Note_on_c, 11, 41, 100
12, 211860, Note_on_c, 11, 41, 0
12, 213000, Note_on_c, 11, 41, 100
12, 213120, Note_on_c, 11, 41, 0
12, 213120, Note_on_c, 11, 41, 100
12, 213150, Note_on_c, 11, 41, 0
12, 213150, Note_on_c, 11, 45, 100
12, 213240, Note_on_c, 11, 45, 0
12, 213240, Note_on_c, 11, 41, 100
12, 213300, Note_on_c, 11, 41, 0
12, 213360, Note_on_c, 11, 41, 100
12, 213480, Note_on_c, 11, 41, 0
12, 213480, Note_on_c, 11, 41, 100
12, 213510, Note_on_c, 11, 41, 0
12, 213510, Note_on_c, 11, 45, 100
12, 213600, Note_on_c, 11, 45, 0
12, 213600, Note_on_c, 11, 41, 100
12, 213720, Note_on_c, 11, 41, 0
12, 213720, Note_on_c, 11, 41, 100
12, 213840, Note_on_c, 11, 41, 0
12, 213840, Note_on_c, 11, 41, 100
12, 213870, Note_on_c, 11, 41, 0
12, 213870, Note_on_c, 11, 45, 100
12, 213960, Note_on_c, 11, 45, 0
12, 213960, Note_on_c, 11, 41, 100
12, 214080, Note_on_c, 11, 41, 0
12, 214080, Note_on_c, 11, 41, 100
12, 214200, Note_on_c, 11, 41, 0
12, 214200, Note_on_c, 11, 41, 100
12, 214230, Note_on_c, 11, 41, 0
12, 214230, Note_on_c, 11, 45, 100
12, 214320, Note_on_c, 11, 45, 0
12, 214320, Note_on_c, 11, 41, 100
12, 214440, Note_on_c, 11, 41, 0
12, 214440, Note_on_c, 11, 41, 100
12, 214560, Note_on_c, 11, 41, 0
12, 214560, Note_on_c, 11, 45, 100
12, 216000, Note_on_c, 11, 45, 0
12, 216000, Note_on_c, 11, 50, 100
12, 216120, Note_on_c, 11, 50, 0
12, 236280, Note_on_c, 11, 45, 100
12, 236520, Note_on_c, 11, 45, 0
12, 236520, Note_on_c, 11, 45, 100
12, 236760, Note_on_c, 11, 45, 0
12, 236760, Note_on_c, 11, 45, 100
12, 236880, Note_on_c, 11, 45, 0
12, 236880, Note_on_c, 11, 50, 100
12, 237180, Note_on_c, 11, 50, 0
12, 237180, Note_on_c, 11, 45, 100
12, 237240, Note_on_c, 11, 45, 0
12, 237240, Note_on_c, 11, 50, 100
12, 237360, Note_on_c, 11, 50, 0
12, 237600, Note_on_c, 11, 50, 100
12, 237900, Note_on_c, 11, 50, 0
12, 237900, Note_on_c, 11, 45, 100
12, 237960, Note_on_c, 11, 45, 0
12, 237960, Note_on_c, 11, 50, 100
12, 238080, Note_on_c, 11, 50, 0
12, 238320, Note_on_c, 11, 50, 100
12, 238560, Note_on_c, 11, 50, 0
12, 238560, Note_on_c, 11, 45, 100
12, 238680, Note_on_c, 11, 45, 0
12, 238680, Note_on_c, 11, 50, 100
12, 238800, Note_on_c, 11, 50, 0
12, 238800, Note_on_c, 11, 45, 100
12, 238920, Note_on_c, 11, 45, 0
12, 238920, Note_on_c, 11, 50, 100
12, 239040, Note_on_c, 11, 50, 0
12, 239040, Note_on_c, 11, 45, 100
12, 239160, Note_on_c, 11, 45, 0
12, 239760, Note_on_c, 11, 45, 100
12, 240240, Note_on_c, 11, 45, 0
12, 240480, Note_on_c, 11, 45, 100
12, 240960, Note_on_c, 11, 45, 0
12, 241200, Note_on_c, 11, 45, 100
12, 241440, Note_on_c, 11, 45, 0
12, 241440, Note_on_c, 11, 50, 100
12, 241560, Note_on_c, 11, 50, 0
12, 241560, Note_on_c, 11, 45, 100
12, 241680, Note_on_c, 11, 45, 0
12, 241680, Note_on_c, 11, 57, 100
12, 241800, Note_on_c, 11, 57, 0
12, 241800, Note_on_c, 11, 45, 100
12, 241920, Note_on_c, 11, 45, 0
12, 241920, Note_on_c, 11, 50, 100
12, 242040, Note_on_c, 11, 50, 0
12, 251400, Note_on_c, 11, 45, 100
12, 251640, Note_on_c, 11, 45, 0
12, 251640, Note_on_c, 11, 45, 100
12, 251880, Note_on_c, 11, 45, 0
12, 251880, Note_on_c, 11, 45, 100
12, 252000, Note_on_c, 11, 45, 0
12, 252000, Note_on_c, 11, 50, 100
12, 252300, Note_on_c, 11, 50, 0
12, 252300, Note_on_c, 11, 45, 100
12, 252360, Note_on_c, 11, 45, 0
12, 252360, Note_on_c, 11, 50, 100
12, 252480, Note_on_c, 11, 50, 0
12, 252720, Note_on_c, 11, 50, 100
12, 253020, Note_on_c, 11, 50, 0
12, 253020, Note_on_c, 11, 45, 100
12, 253080, Note_on_c, 11, 45, 0
12, 253080, Note_on_c, 11, 50, 100
12, 253200, Note_on_c, 11, 50, 0
12, 253440, Note_on_c, 11, 50, 100
12, 253680, Note_on_c, 11, 50, 0
12, 253680, Note_on_c, 11, 45, 100
12, 253800, Note_on_c, 11, 45, 0
12, 253800, Note_on_c, 11, 50, 100
12, 253920, Note_on_c, 11, 50, 0
12, 253920, Note_on_c, 11, 45, 100
12, 254040, Note_on_c, 11, 45, 0
12, 254040, Note_on_c, 11, 50, 100
12, 254160, Note_on_c, 11, 50, 0
12, 254160, Note_on_c, 11, 45, 100
12, 254280, Note_on_c, 11, 45, 0
12, 254880, Note_on_c, 11, 45, 100
12, 255360, Note_on_c, 11, 45, 0
12, 255600, Note_on_c, 11, 45, 100
12, 256080, Note_on_c, 11, 45, 0
12, 256320, Note_on_c, 11, 45, 100
12, 256560, Note_on_c, 11, 45, 0
12, 256560, Note_on_c, 11, 50, 100
12, 256680, Note_on_c, 11, 50, 0
12, 256680, Note_on_c, 11, 45, 100
12, 256800, Note_on_c, 11, 45, 0
12, 256800, Note_on_c, 11, 57, 100
12, 256920, Note_on_c, 11, 57, 0
12, 256920, Note_on_c, 11, 45, 100
12, 257040, Note_on_c, 11, 45, 0
12, 257040, Note_on_c, 11, 50, 100
12, 257160, Note_on_c, 11, 50, 0
12, 257760, Note_on_c, 11, 50, 100
12, 258480, Note_on_c, 11, 50, 0
12, 258480, Note_on_c, 11, 49, 100
12, 259200, Note_on_c, 11, 49, 0
12, 259200, Note_on_c, 11, 50, 100
12, 259920, Note_on_c, 11, 50, 0
12, 259920, Note_on_c, 11, 45, 100
12, 260640, Note_on_c, 11, 45, 0
12, 260640, Note_on_c, 11, 50, 100
12, 261360, Note_on_c, 11, 50, 0
12, 261360, Note_on_c, 11, 49, 100
12, 262080, Note_on_c, 11, 49, 0
12, 262080, Note_on_c, 11, 48, 100
12, 262380, Note_on_c, 11, 48, 0
12, 262380, Note_on_c, 11, 47, 100
12, 262440, Note_on_c, 11, 47, 0
12, 262440, Note_on_c, 11, 48, 100
12, 262560, Note_on_c, 11, 48, 0
12, 262680, Note_on_c, 11, 41, 100
12, 262800, Note_on_c, 11, 41, 0
12, 262800, Note_on_c, 11, 41, 100
12, 262920, Note_on_c, 11, 41, 0
12, 263040, Note_on_c, 11, 41, 100
12, 263160, Note_on_c, 11, 41, 0
12, 263160, Note_on_c, 11, 41, 100
12, 263280, Note_on_c, 11, 41, 0
12, 263400, Note_on_c, 11, 41, 100
12, 263520, Note_on_c, 11, 41, 0
12, 263520, Note_on_c, 11, 41, 100
12, 263640, Note_on_c, 11, 41, 0
12, 263880, Note_on_c, 11, 53, 100
12, 264000, Note_on_c, 11, 53, 0
12, 264240, Note_on_c, 11, 53, 100
12, 264360, Note_on_c, 11, 53, 0
12, 264600, Note_on_c, 11, 48, 100
12, 264720, Note_on_c, 11, 48, 0
12, 264960, Note_on_c, 11, 48, 100
12, 265080, Note_on_c, 11, 48, 0
12, 265320, Note_on_c, 11, 48, 100
12, 265440, Note_on_c, 11, 48, 0
12, 265680, Note_on_c, 11, 48, 100
12, 265800, Note_on_c, 11, 48, 0
12, 266040, Note_on_c, 11, 53, 100
12, 266160, Note_on_c, 11, 53, 0
12, 266400, Note_on_c, 11, 58, 100
12, 266520, Note_on_c, 11, 58, 0
12, 266520, Note_on_c, 11, 58, 100
12, 266640, Note_on_c, 11, 58, 0
12, 266640, Note_on_c, 11, 57, 100
12, 266760, Note_on_c, 11, 57, 0
12, 266760, Note_on_c, 11, 55, 100
12, 267000, Note_on_c, 11, 55, 0
12, 267000, Note_on_c, 11, 53, 100
12, 267120, Note_on_c, 11, 53, 0
12, 267120, Note_on_c, 11, 58, 100
12, 267240, Note_on_c, 11, 58, 0
12, 267240, Note_on_c, 11, 58, 100
12, 267360, Note_on_c, 11, 58, 0
12, 267360, Note_on_c, 11, 57, 100
12, 267480, Note_on_c, 11, 57, 0
12, 267480, Note_on_c, 11, 55, 100
12, 267720, Note_on_c, 11, 55, 0
12, 267720, Note_on_c, 11, 53, 100
12, 267840, Note_on_c, 11, 53, 0
12, 267840, Note_on_c, 11, 58, 100
12, 268080, Note_on_c, 11, 58, 0
12, 268080, Note_on_c, 11, 57, 100
12, 268200, Note_on_c, 11, 57, 0
12, 268200, Note_on_c, 11, 62, 100
12, 268440, Note_on_c, 11, 62, 0
12, 268440, Note_on_c, 11, 61, 100
12, 268560, Note_on_c, 11, 61, 0
12, 268560, Note_on_c, 11, 48, 100
12, 268680, Note_on_c, 11, 48, 0
12, 268680, Note_on_c, 11, 64, 100
12, 268800, Note_on_c, 11, 64, 0
12, 268800, Note_on_c, 11, 64, 100
12, 268920, Note_on_c, 11, 64, 0
12, 268920, Note_on_c, 11, 57, 100
12, 269040, Note_on_c, 11, 57, 0
12, 269280, Note_on_c, 11, 52, 100
12, 269400, Note_on_c, 11, 52, 0
12, 269400, Note_on_c, 11, 64, 100
12, 269520, Note_on_c, 11, 64, 0
12, 269520, Note_on_c, 11, 64, 100
12, 269640, Note_on_c, 11, 64, 0
12, 269640, Note_on_c, 11, 57, 100
12, 269760, Note_on_c, 11, 57, 0
12, 270000, Note_on_c, 11, 52, 100
12, 270120, Note_on_c, 11, 52, 0
12, 270120, Note_on_c, 11, 64, 100
12, 270240, Note_on_c, 11, 64, 0
12, 270240, Note_on_c, 11, 64, 100
12, 270360, Note_on_c, 11, 64, 0
12, 270360, Note_on_c, 11, 57, 100
12, 270480, Note_on_c, 11, 57, 0
12, 270480, Note_on_c, 11, 64, 100
12, 270600, Note_on_c, 11, 64, 0
12, 270600, Note_on_c, 11, 61, 100
12, 270720, Note_on_c, 11, 61, 0
12, 270720, Note_on_c, 11, 57, 100
12, 270840, Note_on_c, 11, 57, 0
12, 270840, Note_on_c, 11, 52, 100
12, 270960, Note_on_c, 11, 52, 0
12, 270960, Note_on_c, 11, 49, 100
12, 271080, Note_on_c, 11, 49, 0
12, 271080, Note_on_c, 11, 45, 100
12, 271200, Note_on_c, 11, 45, 0
12, 271320, Note_on_c, 11, 45, 100
12, 271440, Note_on_c, 11, 45, 0
12, 271440, Note_on_c, 11, 45, 100
12, 271470, Note_on_c, 11, 45, 0
12, 271470, Note_on_c, 11, 49, 100
12, 271560, Note_on_c, 11, 49, 0
12, 271560, Note_on_c, 11, 45, 100
12, 271620, Note_on_c, 11, 45, 0
12, 277200, Note_on_c, 11, 44, 100
12, 277440, Note_on_c, 11, 44, 0
12, 277440, Note_on_c, 11, 43, 100
12, 277560, Note_on_c, 11, 43, 0
12, 277560, Note_on_c, 11, 44, 100
12, 277800, Note_on_c, 11, 44, 0
12, 277800, Note_on_c, 11, 43, 100
12, 277920, Note_on_c, 11, 43, 0
12, 277920, Note_on_c, 11, 44, 100
12, 278160, Note_on_c, 11, 44, 0
12, 278160, Note_on_c, 11, 43, 100
12, 278280, Note_on_c, 11, 43, 0
12, 278280, Note_on_c, 11, 43, 100
12, 278400, Note_on_c, 11, 43, 0
12, 282960, Note_on_c, 11, 42, 100
12, 283200, Note_on_c, 11, 42, 0
12, 283200, Note_on_c, 11, 41, 100
12, 283320, Note_on_c, 11, 41, 0
12, 283320, Note_on_c, 11, 42, 100
12, 283560, Note_on_c, 11, 42, 0
12, 283560, Note_on_c, 11, 41, 100
12, 283680, Note_on_c, 11, 41, 0
12, 283680, Note_on_c, 11, 42, 100
12, 283920, Note_on_c, 11, 42, 0
12, 283920, Note_on_c, 11, 41, 100
12, 284040, Note_on_c, 11, 41, 0
12, 284040, Note_on_c, 11, 41, 100
12, 284160, Note_on_c, 11, 41, 0
12, 285840, Program_c, 11, 45
12, 285840, Note_on_c, 11, 46, 100
12, 285960, Note_on_c, 11, 46, 0
12, 286200, Note_on_c, 11, 58, 100
12, 286320, Note_on_c, 11, 58, 0
12, 286560, Note_on_c, 11, 58, 100
12, 286680, Note_on_c, 11, 58, 0
12, 286920, Note_on_c, 11, 58, 100
12, 287040, Note_on_c, 11, 58, 0
12, 287280, Note_on_c, 11, 53, 100
12, 287400, Note_on_c, 11, 53, 0
12, 287640, Note_on_c, 11, 53, 100
12, 287760, Note_on_c, 11, 53, 0
12, 288000, Note_on_c, 11, 53, 100
12, 288120, Note_on_c, 11, 53, 0
12, 288360, Note_on_c, 11, 53, 100
12, 288480, Note_on_c, 11, 53, 0
12, 288720, Note_on_c, 11, 46, 100
12, 288840, Note_on_c, 11, 46, 0
12, 289080, Note_on_c, 11, 58, 100
12, 289200, Note_on_c, 11, 58, 0
12, 289440, Note_on_c, 11, 58, 100
12, 289560, Note_on_c, 11, 58, 0
12, 289800, Note_on_c, 11, 58, 100
12, 289920, Note_on_c, 11, 58, 0
12, 290160, Note_on_c, 11, 53, 100
12, 290280, Note_on_c, 11, 53, 0
12, 290520, Note_on_c, 11, 53, 100
12, 290640, Note_on_c, 11, 53, 0
12, 290880, Note_on_c, 11, 53, 100
12, 291000, Note_on_c, 11, 53, 0
12, 291240, Note_on_c, 11, 53, 100
12, 291360, Note_on_c, 11, 53, 0
12, 291600, Note_on_c, 11, 46, 100
12, 291720, Note_on_c, 11, 46, 0
12, 291960, Program_c, 11, 48
12, 291960, Note_on_c, 11, 65, 100
12, 292080, Note_on_c, 11, 65, 0
12, 292080, Note_on_c, 11, 65, 100
12, 292200, Note_on_c, 11, 65, 0
12, 292200, Note_on_c, 11, 64, 100
12, 292320, Note_on_c, 11, 64, 0
12, 292320, Note_on_c, 11, 62, 100
12, 292440, Note_on_c, 11, 62, 0
12, 292440, Note_on_c, 11, 62, 100
12, 292560, Note_on_c, 11, 62, 0
12, 292560, Note_on_c, 11, 60, 100
12, 292680, Note_on_c, 11, 60, 0
12, 292680, Note_on_c, 11, 58, 100
12, 292800, Note_on_c, 11, 58, 0
12, 292800, Note_on_c, 11, 58, 100
12, 292920, Note_on_c, 11, 58, 0
12, 292920, Note_on_c, 11, 57, 100
12, 293040, Note_on_c, 11, 57, 0
12, 293040, Note_on_c, 11, 55, 100
12, 293160, Note_on_c, 11, 55, 0
12, 293160, Note_on_c, 11, 55, 100
12, 293280, Note_on_c, 11, 55, 0
12, 293280, Note_on_c, 11, 53, 100
12, 293400, Note_on_c, 11, 53, 0
12, 293400, Note_on_c, 11, 52, 100
12, 293520, Note_on_c, 11, 52, 0
12, 293520, Note_on_c, 11, 52, 100
12, 293640, Note_on_c, 11, 52, 0
12, 293640, Note_on_c, 11, 50, 100
12, 293760, Note_on_c, 11, 50, 0
12, 293760, Note_on_c, 11, 48, 100
12, 293880, Note_on_c, 11, 48, 0
12, 293880, Note_on_c, 11, 48, 100
12, 294000, Note_on_c, 11, 48, 0
12, 294000, Note_on_c, 11, 46, 100
12, 294120, Note_on_c, 11, 46, 0
12, 294120, Note_on_c, 11, 45, 100
12, 294240, Note_on_c, 11, 45, 0
12, 294240, Note_on_c, 11, 43, 100
12, 294360, Note_on_c, 11, 43, 0
12, 294360, Note_on_c, 11, 41, 100
12, 294480, Note_on_c, 11, 41, 0
12, 294480, Note_on_c, 11, 41, 100
12, 294600, Note_on_c, 11, 41, 0
12, 294720, Note_on_c, 11, 41, 100
12, 294840, Note_on_c, 11, 41, 0
12, 294840, Note_on_c, 11, 41, 100
12, 294960, Note_on_c, 11, 41, 0
12, 295080, Note_on_c, 11, 41, 100
12, 295200, Note_on_c, 11, 41, 0
12, 295200, Note_on_c, 11, 41, 100
12, 296400, Note_on_c, 11, 41, 0
12, 296400, Note_on_c, 11, 40, 100
12, 296520, Note_on_c, 11, 40, 0
12, 296520, Note_on_c, 11, 40, 100
12, 296640, Note_on_c, 11, 40, 0
12, 296640, Note_on_c, 11, 40, 100
12, 297840, Note_on_c, 11, 40, 0
12, 297840, Note_on_c, 11, 41, 100
12, 297960, Note_on_c, 11, 41, 0
12, 297960, Note_on_c, 11, 41, 100
12, 298080, Note_on_c, 11, 41, 0
12, 298080, Note_on_c, 11, 53, 100
12, 298200, Note_on_c, 11, 53, 0
12, 298440, Program_c, 11, 45
12, 298440, Note_on_c, 11, 53, 100
12, 298560, Note_on_c, 11, 53, 0
12, 298800, Note_on_c, 11, 53, 100
12, 298920, Note_on_c, 11, 53, 0
12, 299160, Note_on_c, 11, 48, 100
12, 299280, Note_on_c, 11, 48, 0
12, 299520, Program_c, 11, 48
12, 299520, Note_on_c, 11, 48, 100
12, 299520, Note_on_c, 11, 55, 100
12, 300720, Note_on_c, 11, 55, 0
12, 300720, Note_on_c, 11, 48, 0
12, 300720, Note_on_c, 11, 53, 100
12, 300720, Note_on_c, 11, 57, 100
12, 300840, Note_on_c, 11, 57, 0
12, 300840, Note_on_c, 11, 53, 0
12, 300840, Note_on_c, 11, 53, 100
12, 300840, Note_on_c, 11, 57, 100
12, 300960, Note_on_c, 11, 57, 0
12, 300960, Note_on_c, 11, 53, 0
12, 300960, Note_on_c, 11, 58, 100
12, 301080, Note_on_c, 11, 58, 0
12, 301080, Note_on_c, 11, 58, 100
12, 301200, Note_on_c, 11, 58, 0
12, 301200, Note_on_c, 11, 57, 100
12, 301320, Note_on_c, 11, 57, 0
12, 301320, Note_on_c, 11, 55, 100
12, 301560, Note_on_c, 11, 55, 0
12, 301560, Note_on_c, 11, 53, 100
12, 301680, Note_on_c, 11, 53, 0
12, 302400, Note_on_c, 11, 58, 100
12, 302520, Note_on_c, 11, 58, 0
12, 302520, Note_on_c, 11, 58, 100
12, 302640, Note_on_c, 11, 58, 0
12, 302640, Note_on_c, 11, 57, 100
12, 302760, Note_on_c, 11, 57, 0
12, 302760, Note_on_c, 11, 55, 100
12, 303000, Note_on_c, 11, 55, 0
12, 303000, Note_on_c, 11, 53, 100
12, 303120, Note_on_c, 11, 53, 0
12, 303120, Note_on_c, 11, 58, 100
12, 303360, Note_on_c, 11, 58, 0
12, 303360, Note_on_c, 11, 57, 100
12, 303480, Note_on_c, 11, 57, 0
12, 303480, Note_on_c, 11, 62, 100
12, 303720, Note_on_c, 11, 62, 0
12, 303720, Note_on_c, 11, 60, 100
12, 303840, Note_on_c, 11, 60, 0
12, 303840, Note_on_c, 11, 65, 100
12, 304080, Note_on_c, 11, 65, 0
12, 304080, Note_on_c, 11, 64, 100
12, 304200, Note_on_c, 11, 64, 0
12, 304200, Note_on_c, 11, 62, 100
12, 304440, Note_on_c, 11, 62, 0
12, 304440, Note_on_c, 11, 60, 100
12, 304560, Note_on_c, 11, 60, 0
12, 304560, Note_on_c, 11, 55, 100
12, 304680, Note_on_c, 11, 55, 0
12, 304680, Note_on_c, 11, 67, 100
12, 304800, Note_on_c, 11, 67, 0
12, 304800, Note_on_c, 11, 67, 100
12, 304920, Note_on_c, 11, 67, 0
12, 304920, Note_on_c, 11, 60, 100
12, 305040, Note_on_c, 11, 60, 0
12, 305280, Note_on_c, 11, 55, 100
12, 305400, Note_on_c, 11, 55, 0
12, 305400, Note_on_c, 11, 67, 100
12, 305520, Note_on_c, 11, 67, 0
12, 305520, Note_on_c, 11, 67, 100
12, 305640, Note_on_c, 11, 67, 0
12, 305640, Note_on_c, 11, 60, 100
12, 305760, Note_on_c, 11, 60, 0
12, 306000, Note_on_c, 11, 55, 100
12, 306120, Note_on_c, 11, 55, 0
12, 306120, Note_on_c, 11, 55, 100
12, 306240, Note_on_c, 11, 55, 0
12, 306240, Note_on_c, 11, 67, 100
12, 306360, Note_on_c, 11, 67, 0
12, 306360, Note_on_c, 11, 60, 100
12, 306480, Note_on_c, 11, 60, 0
12, 306720, Note_on_c, 11, 55, 100
12, 306840, Note_on_c, 11, 55, 0
12, 306840, Note_on_c, 11, 67, 100
12, 306960, Note_on_c, 11, 67, 0
12, 306960, Note_on_c, 11, 67, 100
12, 307080, Note_on_c, 11, 67, 0
12, 307080, Note_on_c, 11, 60, 100
12, 307200, Note_on_c, 11, 60, 0
12, 307440, Note_on_c, 11, 48, 100
12, 307560, Note_on_c, 11, 48, 0
12, 307560, Note_on_c, 11, 60, 100
12, 307680, Note_on_c, 11, 60, 0
12, 307680, Note_on_c, 11, 60, 100
12, 307800, Note_on_c, 11, 60, 0
12, 307800, Note_on_c, 11, 41, 100
12, 307920, Note_on_c, 11, 41, 0
12, 307920, Note_on_c, 11, 53, 100
12, 308040, Note_on_c, 11, 53, 0
12, 308040, Note_on_c, 11, 53, 100
12, 308160, Note_on_c, 11, 53, 0
12, 308160, Note_on_c, 11, 48, 100
12, 308280, Note_on_c, 11, 48, 0
12, 308280, Note_on_c, 11, 60, 100
12, 308400, Note_on_c, 11, 60, 0
12, 308400, Note_on_c, 11, 60, 100
12, 308520, Note_on_c, 11, 60, 0
12, 308520, Note_on_c, 11, 41, 100
12, 308640, Note_on_c, 11, 41, 0
12, 308640, Note_on_c, 11, 53, 100
12, 308760, Note_on_c, 11, 53, 0
12, 308760, Note_on_c, 11, 53, 100
12, 308880, Note_on_c, 11, 53, 0
12, 308880, Note_on_c, 11, 48, 100
12, 309000, Note_on_c, 11, 48, 0
12, 309000, Note_on_c, 11, 60, 100
12, 309120, Note_on_c, 11, 60, 0
12, 309120, Note_on_c, 11, 60, 100
12, 309240, Note_on_c, 11, 60, 0
12, 309240, Note_on_c, 11, 41, 100
12, 309360, Note_on_c, 11, 41, 0
12, 309360, Note_on_c, 11, 53, 100
12, 309480, Note_on_c, 11, 53, 0
12, 309480, Note_on_c, 11, 53, 100
12, 309600, Note_on_c, 11, 53, 0
12, 309600, Note_on_c, 11, 48, 100
12, 309720, Note_on_c, 11, 48, 0
12, 309720, Note_on_c, 11, 60, 100
12, 309840, Note_on_c, 11, 60, 0
12, 309840, Note_on_c, 11, 60, 100
12, 309960, Note_on_c, 11, 60, 0
12, 309960, Note_on_c, 11, 41, 100
12, 310080, Note_on_c, 11, 41, 0
12, 310080, Note_on_c, 11, 53, 100
12, 310200, Note_on_c, 11, 53, 0
12, 310200, Note_on_c, 11, 53, 100
12, 310320, Note_on_c, 11, 53, 0
12, 310320, Note_on_c, 11, 48, 100
12, 310440, Note_on_c, 11, 48, 0
12, 310440, Note_on_c, 11, 60, 100
12, 310560, Note_on_c, 11, 60, 0
12, 310560, Note_on_c, 11, 60, 100
12, 310680, Note_on_c, 11, 60, 0
12, 310680, Note_on_c, 11, 53, 100
12, 310800, Note_on_c, 11, 53, 0
12, 310800, Note_on_c, 11, 60, 100
12, 310920, Note_on_c, 11, 60, 0
12, 310920, Note_on_c, 11, 57, 100
12, 311040, Note_on_c, 11, 57, 0
12, 311040, Note_on_c, 11, 53, 100
12, 311160, Note_on_c, 11, 53, 0
12, 311160, Note_on_c, 11, 60, 100
12, 311280, Note_on_c, 11, 60, 0
12, 311280, Note_on_c, 11, 57, 100
12, 311400, Note_on_c, 11, 57, 0
12, 311400, Note_on_c, 11, 53, 100
12, 311520, Note_on_c, 11, 53, 0
12, 311520, Note_on_c, 11, 48, 100
12, 311640, Note_on_c, 11, 48, 0
12, 311640, Note_on_c, 11, 41, 100
12, 311760, Note_on_c, 11, 41, 0
12, 311760, Note_on_c, 11, 41, 100
12, 311790, Note_on_c, 11, 41, 0
12, 311790, Note_on_c, 11, 45, 100
12, 311880, Note_on_c, 11, 45, 0
12, 311880, Note_on_c, 11, 41, 100
12, 311940, Note_on_c, 11, 41, 0
12, 313080, Note_on_c, 11, 41, 100
12, 313200, Note_on_c, 11, 41, 0
12, 313200, Note_on_c, 11, 41, 100
12, 313230, Note_on_c, 11, 41, 0
12, 313230, Note_on_c, 11, 45, 100
12, 313320, Note_on_c, 11, 45, 0
12, 313320, Note_on_c, 11, 41, 100
12, 313380, Note_on_c, 11, 41, 0
12, 313440, Note_on_c, 11, 41, 100
12, 313560, Note_on_c, 11, 41, 0
12, 313560, Note_on_c, 11, 41, 100
12, 313590, Note_on_c, 11, 41, 0
12, 313590, Note_on_c, 11, 45, 100
12, 313680, Note_on_c, 11, 45, 0
12, 313680, Note_on_c, 11, 41, 100
12, 313800, Note_on_c, 11, 41, 0
12, 313800, Note_on_c, 11, 41, 100
12, 313920, Note_on_c, 11, 41, 0
12, 313920, Note_on_c, 11, 41, 100
12, 313950, Note_on_c, 11, 41, 0
12, 313950, Note_on_c, 11, 45, 100
12, 314040, Note_on_c, 11, 45, 0
12, 314040, Note_on_c, 11, 41, 100
12, 314160, Note_on_c, 11, 41, 0
12, 314160, Note_on_c, 11, 41, 100
12, 314280, Note_on_c, 11, 41, 0
12, 314280, Note_on_c, 11, 41, 100
12, 314310, Note_on_c, 11, 41, 0
12, 314310, Note_on_c, 11, 45, 100
12, 314400, Note_on_c, 11, 45, 0
12, 314400, Note_on_c, 11, 41, 100
12, 314520, Note_on_c, 11, 41, 0
12, 314520, Note_on_c, 11, 41, 100
12, 314640, Note_on_c, 11, 41, 0
12, 314640, Note_on_c, 11, 45, 100
12, 317520, Note_on_c, 11, 45, 0
12, 317520, Note_on_c, 11, 46, 100
12, 317640, Note_on_c, 11, 46, 0
12, 317880, Note_on_c, 11, 47, 100
12, 318000, Note_on_c, 11, 47, 0
12, 318240, Note_on_c, 11, 48, 100
12, 318360, Note_on_c, 11, 48, 0
12, 318600, Note_on_c, 11, 48, 100
12, 318720, Note_on_c, 11, 48, 0
12, 318960, Note_on_c, 11, 41, 100
12, 319080, Note_on_c, 11, 41, 0
12, 319080, End_track
0, 0, End_of_file