0, 0, Header, 1, 3, 192
1, 0, Start_track
1, 0, Title_t, "Sechs Variationen "
1, 0, Text_t, "By Ludwig Van Beethoven"
1, 0, Copyright_t, "Copyright \251July 2001 by Reginald Steven Ritchie"
1, 0, Copyright_t, "All Rights Reserved Reginald Steven Ritchie"
1, 0, Text_t, "Generated by NoteWorthy Composer"
1, 0, Tempo, 545454
1, 0, Tempo, 545454
1, 0, Key_signature, 1, "major"
1, 0, Time_signature, 6, 3, 24, 8
1, 46080, Key_signature, -2, "major"
1, 57600, Key_signature, 1, "major"
1, 57600, End_track
2, 0, Start_track
2, 0, MIDI_port, 0
2, 0, Title_t, "Copyright 2001 Reg"
2, 0, Program_c, 0, 0
2, 0, Control_c, 0, 7, 127
2, 0, Control_c, 0, 10, 110
2, 0, Program_c, 0, 0
2, 0, Control_c, 0, 7, 127
2, 0, Control_c, 0, 10, 110
2, 0, Control_c, 0, 91, 87
2, 0, Control_c, 0, 93, 86
2, 0, Note_on_c, 0, 74, 60
2, 96, Note_on_c, 0, 74, 0
2, 96, Note_on_c, 0, 71, 60
2, 256, Note_on_c, 0, 71, 0
2, 288, Note_on_c, 0, 71, 60
2, 384, Note_on_c, 0, 71, 0
2, 384, Note_on_c, 0, 69, 60
2, 544, Note_on_c, 0, 69, 0
2, 576, Note_on_c, 0, 69, 60
2, 672, Note_on_c, 0, 69, 0
2, 672, Note_on_c, 0, 67, 60
2, 832, Note_on_c, 0, 67, 0
2, 864, Note_on_c, 0, 67, 60
2, 896, Note_on_c, 0, 67, 0
2, 1152, Note_on_c, 0, 74, 60
2, 1246, Note_on_c, 0, 74, 0
2, 1248, Note_on_c, 0, 74, 60
2, 1440, Note_on_c, 0, 74, 0
2, 1440, Note_on_c, 0, 67, 60
2, 1536, Note_on_c, 0, 67, 0
2, 1536, Note_on_c, 0, 76, 60
2, 1696, Note_on_c, 0, 76, 0
2, 1728, Note_on_c, 0, 76, 60
2, 1822, Note_on_c, 0, 76, 0
2, 1824, Note_on_c, 0, 69, 60
2, 2080, Note_on_c, 0, 69, 0
2, 2304, Note_on_c, 0, 69, 60
2, 2400, Note_on_c, 0, 69, 0
2, 2400, Note_on_c, 0, 71, 60
2, 2560, Note_on_c, 0, 71, 0
2, 2592, Note_on_c, 0, 71, 60
2, 2686, Note_on_c, 0, 71, 0
2, 2688, Note_on_c, 0, 74, 60
2, 2712, Note_on_c, 0, 74, 0
2, 2712, Note_on_c, 0, 72, 60
2, 2782, Note_on_c, 0, 72, 0
2, 2784, Note_on_c, 0, 71, 60
2, 2878, Note_on_c, 0, 71, 0
2, 2880, Note_on_c, 0, 72, 60
2, 2974, Note_on_c, 0, 72, 0
2, 2976, Note_on_c, 0, 74, 60
2, 3232, Note_on_c, 0, 74, 0
2, 3264, Note_on_c, 0, 76, 60
2, 3424, Note_on_c, 0, 76, 0
2, 3456, Note_on_c, 0, 76, 60
2, 3488, Note_on_c, 0, 76, 0
2, 3552, Note_on_c, 0, 76, 60
2, 3576, Note_on_c, 0, 76, 0
2, 3576, Note_on_c, 0, 67, 60
2, 3742, Note_on_c, 0, 67, 0
2, 3744, Note_on_c, 0, 67, 60
2, 3776, Note_on_c, 0, 67, 0
2, 3840, Note_on_c, 0, 71, 60
2, 3864, Note_on_c, 0, 71, 0
2, 3864, Note_on_c, 0, 69, 60
2, 3934, Note_on_c, 0, 69, 0
2, 3936, Note_on_c, 0, 67, 60
2, 4030, Note_on_c, 0, 67, 0
2, 4032, Note_on_c, 0, 69, 60
2, 4126, Note_on_c, 0, 69, 0
2, 4128, Note_on_c, 0, 67, 60
2, 4288, Note_on_c, 0, 67, 0
2, 4608, Note_on_c, 0, 74, 60
2, 4704, Note_on_c, 0, 74, 0
2, 4704, Note_on_c, 0, 68, 60
2, 4864, Note_on_c, 0, 68, 0
2, 4896, Note_on_c, 0, 68, 60
2, 4990, Note_on_c, 0, 68, 0
2, 4992, Note_on_c, 0, 76, 60
2, 5152, Note_on_c, 0, 76, 0
2, 5184, Note_on_c, 0, 74, 60
2, 5278, Note_on_c, 0, 74, 0
2, 5280, Note_on_c, 0, 74, 60
2, 5304, Note_on_c, 0, 74, 0
2, 5304, Note_on_c, 0, 72, 60
2, 5422, Note_on_c, 0, 72, 0
2, 5424, Note_on_c, 0, 72, 60
2, 5456, Note_on_c, 0, 72, 0
2, 5472, Note_on_c, 0, 72, 60
2, 5504, Note_on_c, 0, 72, 0
2, 5760, Note_on_c, 0, 72, 60
2, 5856, Note_on_c, 0, 72, 0
2, 5856, Note_on_c, 0, 66, 60
2, 6016, Note_on_c, 0, 66, 0
2, 6048, Note_on_c, 0, 66, 60
2, 6144, Note_on_c, 0, 66, 0
2, 6144, Note_on_c, 0, 74, 60
2, 6304, Note_on_c, 0, 74, 0
2, 6336, Note_on_c, 0, 72, 60
2, 6368, Note_on_c, 0, 72, 0
2, 6432, Note_on_c, 0, 72, 60
2, 6456, Note_on_c, 0, 72, 0
2, 6456, Note_on_c, 0, 71, 60
2, 6574, Note_on_c, 0, 71, 0
2, 6576, Note_on_c, 0, 71, 60
2, 6608, Note_on_c, 0, 71, 0
2, 6624, Note_on_c, 0, 71, 60
2, 6656, Note_on_c, 0, 71, 0
2, 6912, Note_on_c, 0, 67, 66
2, 7006, Note_on_c, 0, 67, 0
2, 7008, Note_on_c, 0, 73, 69
2, 7168, Note_on_c, 0, 73, 0
2, 7200, Note_on_c, 0, 73, 76
2, 7294, Note_on_c, 0, 73, 0
2, 7296, Note_on_c, 0, 74, 80
2, 7318, Note_on_c, 0, 74, 0
2, 7320, Note_on_c, 0, 73, 80
2, 7392, Note_on_c, 0, 73, 0
2, 7392, Note_on_c, 0, 71, 84
2, 7488, Note_on_c, 0, 71, 0
2, 7488, Note_on_c, 0, 73, 88
2, 7582, Note_on_c, 0, 73, 0
2, 7584, Note_on_c, 0, 66, 92
2, 7584, Note_on_c, 0, 69, 92
2, 7584, Note_on_c, 0, 74, 92
2, 7888, Note_on_c, 0, 66, 0
2, 7888, Note_on_c, 0, 69, 0
2, 7888, Note_on_c, 0, 74, 0
2, 8112, Note_on_c, 0, 74, 45
2, 8206, Note_on_c, 0, 74, 0
2, 8208, Note_on_c, 0, 74, 45
2, 8232, Note_on_c, 0, 74, 0
2, 8232, Note_on_c, 0, 72, 45
2, 8398, Note_on_c, 0, 72, 0
2, 8400, Note_on_c, 0, 72, 45
2, 8432, Note_on_c, 0, 72, 0
2, 8496, Note_on_c, 0, 72, 45
2, 8520, Note_on_c, 0, 72, 0
2, 8520, Note_on_c, 0, 71, 45
2, 8686, Note_on_c, 0, 71, 0
2, 8688, Note_on_c, 0, 71, 45
2, 8720, Note_on_c, 0, 71, 0
2, 8784, Note_on_c, 0, 69, 45
2, 9040, Note_on_c, 0, 69, 0
2, 9072, Note_on_c, 0, 69, 45
2, 9232, Note_on_c, 0, 69, 0
2, 9264, Note_on_c, 0, 69, 45
2, 9360, Note_on_c, 0, 69, 0
2, 9360, Note_on_c, 0, 71, 45
2, 9520, Note_on_c, 0, 71, 0
2, 9552, Note_on_c, 0, 71, 45
2, 9646, Note_on_c, 0, 71, 0
2, 9648, Note_on_c, 0, 74, 45
2, 9672, Note_on_c, 0, 74, 0
2, 9672, Note_on_c, 0, 72, 45
2, 9742, Note_on_c, 0, 72, 0
2, 9744, Note_on_c, 0, 71, 45
2, 9838, Note_on_c, 0, 71, 0
2, 9840, Note_on_c, 0, 72, 45
2, 9934, Note_on_c, 0, 72, 0
2, 9936, Note_on_c, 0, 74, 45
2, 10096, Note_on_c, 0, 74, 0
2, 10416, Note_on_c, 0, 76, 45
2, 10448, Note_on_c, 0, 76, 0
2, 10512, Note_on_c, 0, 76, 45
2, 10536, Note_on_c, 0, 76, 0
2, 10536, Note_on_c, 0, 67, 45
2, 10702, Note_on_c, 0, 67, 0
2, 10704, Note_on_c, 0, 67, 45
2, 10736, Note_on_c, 0, 67, 0
2, 10800, Note_on_c, 0, 71, 45
2, 10824, Note_on_c, 0, 71, 0
2, 10824, Note_on_c, 0, 69, 45
2, 10894, Note_on_c, 0, 69, 0
2, 10896, Note_on_c, 0, 67, 45
2, 10990, Note_on_c, 0, 67, 0
2, 10992, Note_on_c, 0, 69, 45
2, 11086, Note_on_c, 0, 69, 0
2, 11088, Note_on_c, 0, 67, 45
2, 11248, Note_on_c, 0, 67, 0
2, 11568, Note_on_c, 0, 74, 45
2, 11600, Note_on_c, 0, 74, 0
2, 11664, Note_on_c, 0, 71, 45
2, 11710, Note_on_c, 0, 71, 0
2, 11712, Note_on_c, 0, 70, 45
2, 11758, Note_on_c, 0, 70, 0
2, 11760, Note_on_c, 0, 71, 45
2, 11806, Note_on_c, 0, 71, 0
2, 11808, Note_on_c, 0, 74, 45
2, 11854, Note_on_c, 0, 74, 0
2, 11856, Note_on_c, 0, 67, 45
2, 11902, Note_on_c, 0, 67, 0
2, 11904, Note_on_c, 0, 71, 45
2, 11950, Note_on_c, 0, 71, 0
2, 11952, Note_on_c, 0, 69, 45
2, 11998, Note_on_c, 0, 69, 0
2, 12000, Note_on_c, 0, 68, 45
2, 12046, Note_on_c, 0, 68, 0
2, 12048, Note_on_c, 0, 69, 45
2, 12094, Note_on_c, 0, 69, 0
2, 12096, Note_on_c, 0, 72, 45
2, 12142, Note_on_c, 0, 72, 0
2, 12144, Note_on_c, 0, 66, 45
2, 12190, Note_on_c, 0, 66, 0
2, 12192, Note_on_c, 0, 69, 45
2, 12238, Note_on_c, 0, 69, 0
2, 12240, Note_on_c, 0, 67, 45
2, 12286, Note_on_c, 0, 67, 0
2, 12288, Note_on_c, 0, 62, 45
2, 12334, Note_on_c, 0, 62, 0
2, 12336, Note_on_c, 0, 64, 45
2, 12382, Note_on_c, 0, 64, 0
2, 12384, Note_on_c, 0, 66, 45
2, 12430, Note_on_c, 0, 66, 0
2, 12432, Note_on_c, 0, 67, 45
2, 12478, Note_on_c, 0, 67, 0
2, 12480, Note_on_c, 0, 69, 45
2, 12526, Note_on_c, 0, 69, 0
2, 12528, Note_on_c, 0, 71, 45
2, 12574, Note_on_c, 0, 71, 0
2, 12576, Note_on_c, 0, 72, 45
2, 12622, Note_on_c, 0, 72, 0
2, 12624, Note_on_c, 0, 74, 45
2, 12670, Note_on_c, 0, 74, 0
2, 12672, Note_on_c, 0, 76, 45
2, 12718, Note_on_c, 0, 76, 0
2, 12720, Note_on_c, 0, 78, 45
2, 12766, Note_on_c, 0, 78, 0
2, 12768, Note_on_c, 0, 79, 45
2, 12814, Note_on_c, 0, 79, 0
2, 12816, Note_on_c, 0, 81, 45
2, 12862, Note_on_c, 0, 81, 0
2, 12864, Note_on_c, 0, 79, 45
2, 12910, Note_on_c, 0, 79, 0
2, 12912, Note_on_c, 0, 83, 45
2, 12958, Note_on_c, 0, 83, 0
2, 12960, Note_on_c, 0, 79, 45
2, 13006, Note_on_c, 0, 79, 0
2, 13008, Note_on_c, 0, 78, 45
2, 13054, Note_on_c, 0, 78, 0
2, 13056, Note_on_c, 0, 76, 45
2, 13102, Note_on_c, 0, 76, 0
2, 13104, Note_on_c, 0, 75, 45
2, 13150, Note_on_c, 0, 75, 0
2, 13152, Note_on_c, 0, 76, 45
2, 13198, Note_on_c, 0, 76, 0
2, 13200, Note_on_c, 0, 79, 45
2, 13246, Note_on_c, 0, 79, 0
2, 13248, Note_on_c, 0, 76, 45
2, 13294, Note_on_c, 0, 76, 0
2, 13296, Note_on_c, 0, 74, 45
2, 13342, Note_on_c, 0, 74, 0
2, 13344, Note_on_c, 0, 72, 45
2, 13390, Note_on_c, 0, 72, 0
2, 13392, Note_on_c, 0, 71, 45
2, 13438, Note_on_c, 0, 71, 0
2, 13440, Note_on_c, 0, 72, 45
2, 13486, Note_on_c, 0, 72, 0
2, 13488, Note_on_c, 0, 74, 45
2, 13534, Note_on_c, 0, 74, 0
2, 13536, Note_on_c, 0, 73, 45
2, 13582, Note_on_c, 0, 73, 0
2, 13584, Note_on_c, 0, 76, 45
2, 13630, Note_on_c, 0, 76, 0
2, 13632, Note_on_c, 0, 74, 45
2, 13678, Note_on_c, 0, 74, 0
2, 13680, Note_on_c, 0, 69, 45
2, 13840, Note_on_c, 0, 69, 0
2, 13872, Note_on_c, 0, 70, 45
2, 13904, Note_on_c, 0, 70, 0
2, 13968, Note_on_c, 0, 71, 45
2, 14014, Note_on_c, 0, 71, 0
2, 14016, Note_on_c, 0, 70, 45
2, 14062, Note_on_c, 0, 70, 0
2, 14064, Note_on_c, 0, 71, 45
2, 14110, Note_on_c, 0, 71, 0
2, 14112, Note_on_c, 0, 67, 45
2, 14158, Note_on_c, 0, 67, 0
2, 14160, Note_on_c, 0, 69, 45
2, 14206, Note_on_c, 0, 69, 0
2, 14208, Note_on_c, 0, 71, 45
2, 14254, Note_on_c, 0, 71, 0
2, 14256, Note_on_c, 0, 72, 45
2, 14302, Note_on_c, 0, 72, 0
2, 14304, Note_on_c, 0, 71, 45
2, 14350, Note_on_c, 0, 71, 0
2, 14352, Note_on_c, 0, 72, 45
2, 14398, Note_on_c, 0, 72, 0
2, 14400, Note_on_c, 0, 69, 45
2, 14446, Note_on_c, 0, 69, 0
2, 14448, Note_on_c, 0, 71, 45
2, 14494, Note_on_c, 0, 71, 0
2, 14496, Note_on_c, 0, 72, 45
2, 14542, Note_on_c, 0, 72, 0
2, 14544, Note_on_c, 0, 74, 45
2, 14590, Note_on_c, 0, 74, 0
2, 14592, Note_on_c, 0, 73, 45
2, 14638, Note_on_c, 0, 73, 0
2, 14640, Note_on_c, 0, 74, 45
2, 14686, Note_on_c, 0, 74, 0
2, 14688, Note_on_c, 0, 71, 45
2, 14734, Note_on_c, 0, 71, 0
2, 14736, Note_on_c, 0, 72, 45
2, 14782, Note_on_c, 0, 72, 0
2, 14784, Note_on_c, 0, 74, 45
2, 14830, Note_on_c, 0, 74, 0
2, 14832, Note_on_c, 0, 76, 45
2, 14878, Note_on_c, 0, 76, 0
2, 14880, Note_on_c, 0, 78, 45
2, 14926, Note_on_c, 0, 78, 0
2, 14928, Note_on_c, 0, 79, 45
2, 14974, Note_on_c, 0, 79, 0
2, 14976, Note_on_c, 0, 75, 45
2, 15022, Note_on_c, 0, 75, 0
2, 15024, Note_on_c, 0, 76, 45
2, 15070, Note_on_c, 0, 76, 0
2, 15072, Note_on_c, 0, 72, 45
2, 15118, Note_on_c, 0, 72, 0
2, 15120, Note_on_c, 0, 71, 45
2, 15166, Note_on_c, 0, 71, 0
2, 15168, Note_on_c, 0, 72, 45
2, 15214, Note_on_c, 0, 72, 0
2, 15216, Note_on_c, 0, 73, 45
2, 15262, Note_on_c, 0, 73, 0
2, 15264, Note_on_c, 0, 74, 45
2, 15310, Note_on_c, 0, 74, 0
2, 15312, Note_on_c, 0, 71, 45
2, 15358, Note_on_c, 0, 71, 0
2, 15360, Note_on_c, 0, 67, 45
2, 15406, Note_on_c, 0, 67, 0
2, 15408, Note_on_c, 0, 62, 45
2, 15454, Note_on_c, 0, 62, 0
2, 15456, Note_on_c, 0, 66, 45
2, 15502, Note_on_c, 0, 66, 0
2, 15504, Note_on_c, 0, 69, 45
2, 15550, Note_on_c, 0, 69, 0
2, 15552, Note_on_c, 0, 72, 45
2, 15598, Note_on_c, 0, 72, 0
2, 15600, Note_on_c, 0, 69, 45
2, 15646, Note_on_c, 0, 69, 0
2, 15648, Note_on_c, 0, 66, 45
2, 15694, Note_on_c, 0, 66, 0
2, 15696, Note_on_c, 0, 69, 45
2, 15790, Note_on_c, 0, 69, 0
2, 15792, Note_on_c, 0, 68, 45
2, 15838, Note_on_c, 0, 68, 0
2, 15840, Note_on_c, 0, 69, 45
2, 15886, Note_on_c, 0, 69, 0
2, 15888, Note_on_c, 0, 71, 45
2, 15934, Note_on_c, 0, 71, 0
2, 15936, Note_on_c, 0, 69, 45
2, 15982, Note_on_c, 0, 69, 0
2, 15984, Note_on_c, 0, 67, 45
2, 16144, Note_on_c, 0, 67, 0
2, 16176, Note_on_c, 0, 74, 45
2, 16222, Note_on_c, 0, 74, 0
2, 16224, Note_on_c, 0, 71, 45
2, 16270, Note_on_c, 0, 71, 0
2, 16464, Note_on_c, 0, 68, 45
2, 16512, Note_on_c, 0, 68, 0
2, 16512, Note_on_c, 0, 71, 45
2, 16560, Note_on_c, 0, 71, 0
2, 16560, Note_on_c, 0, 76, 45
2, 16608, Note_on_c, 0, 76, 0
2, 16608, Note_on_c, 0, 80, 45
2, 16656, Note_on_c, 0, 80, 0
2, 16656, Note_on_c, 0, 83, 45
2, 16704, Note_on_c, 0, 83, 0
2, 16704, Note_on_c, 0, 80, 45
2, 16752, Note_on_c, 0, 80, 0
2, 16752, Note_on_c, 0, 76, 45
2, 16800, Note_on_c, 0, 76, 0
2, 16800, Note_on_c, 0, 74, 45
2, 16848, Note_on_c, 0, 74, 0
2, 16848, Note_on_c, 0, 72, 45
2, 16896, Note_on_c, 0, 72, 0
2, 16896, Note_on_c, 0, 74, 45
2, 16944, Note_on_c, 0, 74, 0
2, 16944, Note_on_c, 0, 76, 45
2, 16992, Note_on_c, 0, 76, 0
2, 16992, Note_on_c, 0, 74, 45
2, 17040, Note_on_c, 0, 74, 0
2, 17040, Note_on_c, 0, 72, 45
2, 17088, Note_on_c, 0, 72, 0
2, 17088, Note_on_c, 0, 71, 45
2, 17136, Note_on_c, 0, 71, 0
2, 17136, Note_on_c, 0, 69, 45
2, 17184, Note_on_c, 0, 69, 0
2, 17184, Note_on_c, 0, 71, 45
2, 17232, Note_on_c, 0, 71, 0
2, 17232, Note_on_c, 0, 72, 45
2, 17280, Note_on_c, 0, 72, 0
2, 17280, Note_on_c, 0, 71, 45
2, 17328, Note_on_c, 0, 71, 0
2, 17328, Note_on_c, 0, 69, 45
2, 17376, Note_on_c, 0, 69, 0
2, 17376, Note_on_c, 0, 67, 45
2, 17424, Note_on_c, 0, 67, 0
2, 17424, Note_on_c, 0, 66, 45
2, 17470, Note_on_c, 0, 66, 0
2, 17472, Note_on_c, 0, 62, 45
2, 17520, Note_on_c, 0, 62, 0
2, 17520, Note_on_c, 0, 66, 45
2, 17568, Note_on_c, 0, 66, 0
2, 17568, Note_on_c, 0, 69, 45
2, 17616, Note_on_c, 0, 69, 0
2, 17616, Note_on_c, 0, 74, 45
2, 17664, Note_on_c, 0, 74, 0
2, 17664, Note_on_c, 0, 78, 45
2, 17712, Note_on_c, 0, 78, 0
2, 17712, Note_on_c, 0, 81, 45
2, 17760, Note_on_c, 0, 81, 0
2, 17760, Note_on_c, 0, 79, 45
2, 17808, Note_on_c, 0, 79, 0
2, 17808, Note_on_c, 0, 78, 45
2, 17856, Note_on_c, 0, 78, 0
2, 17856, Note_on_c, 0, 76, 45
2, 17904, Note_on_c, 0, 76, 0
2, 17904, Note_on_c, 0, 74, 45
2, 17952, Note_on_c, 0, 74, 0
2, 17952, Note_on_c, 0, 72, 45
2, 18000, Note_on_c, 0, 72, 0
2, 18000, Note_on_c, 0, 71, 45
2, 18046, Note_on_c, 0, 71, 0
2, 18048, Note_on_c, 0, 72, 45
2, 18096, Note_on_c, 0, 72, 0
2, 18096, Note_on_c, 0, 74, 45
2, 18144, Note_on_c, 0, 74, 0
2, 18144, Note_on_c, 0, 72, 45
2, 18192, Note_on_c, 0, 72, 0
2, 18192, Note_on_c, 0, 71, 45
2, 18240, Note_on_c, 0, 71, 0
2, 18240, Note_on_c, 0, 69, 45
2, 18288, Note_on_c, 0, 69, 0
2, 18288, Note_on_c, 0, 67, 45
2, 18336, Note_on_c, 0, 67, 0
2, 18336, Note_on_c, 0, 69, 45
2, 18384, Note_on_c, 0, 69, 0
2, 18384, Note_on_c, 0, 70, 45
2, 18432, Note_on_c, 0, 70, 0
2, 18432, Note_on_c, 0, 71, 45
2, 18480, Note_on_c, 0, 71, 0
2, 18480, Note_on_c, 0, 72, 45
2, 18528, Note_on_c, 0, 72, 0
2, 18528, Note_on_c, 0, 73, 45
2, 18574, Note_on_c, 0, 73, 0
2, 18576, Note_on_c, 0, 74, 45
2, 18622, Note_on_c, 0, 74, 0
2, 18624, Note_on_c, 0, 75, 45
2, 18670, Note_on_c, 0, 75, 0
2, 18672, Note_on_c, 0, 76, 45
2, 18718, Note_on_c, 0, 76, 0
2, 18720, Note_on_c, 0, 77, 45
2, 18766, Note_on_c, 0, 77, 0
2, 18768, Note_on_c, 0, 78, 45
2, 18814, Note_on_c, 0, 78, 0
2, 18816, Note_on_c, 0, 79, 45
2, 18862, Note_on_c, 0, 79, 0
2, 18864, Note_on_c, 0, 81, 45
2, 18910, Note_on_c, 0, 81, 0
2, 18912, Note_on_c, 0, 79, 45
2, 18958, Note_on_c, 0, 79, 0
2, 18960, Note_on_c, 0, 78, 45
2, 19006, Note_on_c, 0, 78, 0
2, 19008, Note_on_c, 0, 76, 45
2, 19054, Note_on_c, 0, 76, 0
2, 19056, Note_on_c, 0, 74, 45
2, 19102, Note_on_c, 0, 74, 0
2, 19104, Note_on_c, 0, 73, 45
2, 19150, Note_on_c, 0, 73, 0
2, 19152, Note_on_c, 0, 76, 45
2, 19176, Note_on_c, 0, 76, 0
2, 19176, Note_on_c, 0, 74, 45
2, 19342, Note_on_c, 0, 74, 0
2, 19344, Note_on_c, 0, 73, 45
2, 19390, Note_on_c, 0, 73, 0
2, 19392, Note_on_c, 0, 74, 45
2, 19438, Note_on_c, 0, 74, 0
2, 19440, Note_on_c, 0, 73, 45
2, 19486, Note_on_c, 0, 73, 0
2, 19488, Note_on_c, 0, 74, 45
2, 19534, Note_on_c, 0, 74, 0
2, 19536, Note_on_c, 0, 73, 45
2, 19582, Note_on_c, 0, 73, 0
2, 19584, Note_on_c, 0, 74, 45
2, 19630, Note_on_c, 0, 74, 0
2, 19632, Note_on_c, 0, 76, 45
2, 19678, Note_on_c, 0, 76, 0
2, 19680, Note_on_c, 0, 74, 45
2, 19726, Note_on_c, 0, 74, 0
2, 19728, Note_on_c, 0, 72, 45
2, 19776, Note_on_c, 0, 72, 0
2, 19776, Note_on_c, 0, 71, 45
2, 19824, Note_on_c, 0, 71, 0
2, 19824, Note_on_c, 0, 69, 45
2, 19872, Note_on_c, 0, 69, 0
2, 19872, Note_on_c, 0, 74, 45
2, 19920, Note_on_c, 0, 74, 0
2, 19920, Note_on_c, 0, 73, 45
2, 19968, Note_on_c, 0, 73, 0
2, 19968, Note_on_c, 0, 74, 45
2, 20016, Note_on_c, 0, 74, 0
2, 20016, Note_on_c, 0, 71, 45
2, 20064, Note_on_c, 0, 71, 0
2, 20064, Note_on_c, 0, 69, 45
2, 20112, Note_on_c, 0, 69, 0
2, 20112, Note_on_c, 0, 67, 45
2, 20160, Note_on_c, 0, 67, 0
2, 20160, Note_on_c, 0, 74, 45
2, 20208, Note_on_c, 0, 74, 0
2, 20208, Note_on_c, 0, 73, 45
2, 20256, Note_on_c, 0, 73, 0
2, 20256, Note_on_c, 0, 74, 45
2, 20304, Note_on_c, 0, 74, 0
2, 20304, Note_on_c, 0, 69, 45
2, 20352, Note_on_c, 0, 69, 0
2, 20352, Note_on_c, 0, 67, 45
2, 20400, Note_on_c, 0, 67, 0
2, 20400, Note_on_c, 0, 66, 45
2, 20448, Note_on_c, 0, 66, 0
2, 20448, Note_on_c, 0, 74, 45
2, 20496, Note_on_c, 0, 74, 0
2, 20496, Note_on_c, 0, 73, 45
2, 20544, Note_on_c, 0, 73, 0
2, 20544, Note_on_c, 0, 74, 45
2, 20592, Note_on_c, 0, 74, 0
2, 20592, Note_on_c, 0, 62, 45
2, 20640, Note_on_c, 0, 62, 0
2, 20640, Note_on_c, 0, 74, 45
2, 20688, Note_on_c, 0, 74, 0
2, 20688, Note_on_c, 0, 66, 45
2, 20736, Note_on_c, 0, 66, 0
2, 20736, Note_on_c, 0, 74, 45
2, 20784, Note_on_c, 0, 74, 0
2, 20784, Note_on_c, 0, 69, 45
2, 20832, Note_on_c, 0, 69, 0
2, 20832, Note_on_c, 0, 74, 45
2, 20878, Note_on_c, 0, 74, 0
2, 20880, Note_on_c, 0, 71, 45
2, 20926, Note_on_c, 0, 71, 0
2, 20928, Note_on_c, 0, 70, 45
2, 20974, Note_on_c, 0, 70, 0
2, 20976, Note_on_c, 0, 71, 45
2, 21022, Note_on_c, 0, 71, 0
2, 21024, Note_on_c, 0, 67, 45
2, 21070, Note_on_c, 0, 67, 0
2, 21072, Note_on_c, 0, 69, 45
2, 21118, Note_on_c, 0, 69, 0
2, 21120, Note_on_c, 0, 71, 45
2, 21166, Note_on_c, 0, 71, 0
2, 21168, Note_on_c, 0, 72, 45
2, 21214, Note_on_c, 0, 72, 0
2, 21216, Note_on_c, 0, 71, 45
2, 21262, Note_on_c, 0, 71, 0
2, 21264, Note_on_c, 0, 72, 45
2, 21310, Note_on_c, 0, 72, 0
2, 21312, Note_on_c, 0, 69, 45
2, 21358, Note_on_c, 0, 69, 0
2, 21360, Note_on_c, 0, 71, 45
2, 21406, Note_on_c, 0, 71, 0
2, 21408, Note_on_c, 0, 72, 45
2, 21454, Note_on_c, 0, 72, 0
2, 21456, Note_on_c, 0, 74, 45
2, 21502, Note_on_c, 0, 74, 0
2, 21504, Note_on_c, 0, 73, 45
2, 21550, Note_on_c, 0, 73, 0
2, 21552, Note_on_c, 0, 74, 45
2, 21598, Note_on_c, 0, 74, 0
2, 21600, Note_on_c, 0, 71, 45
2, 21646, Note_on_c, 0, 71, 0
2, 21648, Note_on_c, 0, 72, 45
2, 21694, Note_on_c, 0, 72, 0
2, 21696, Note_on_c, 0, 74, 45
2, 21742, Note_on_c, 0, 74, 0
2, 21744, Note_on_c, 0, 76, 45
2, 21790, Note_on_c, 0, 76, 0
2, 21792, Note_on_c, 0, 78, 45
2, 21838, Note_on_c, 0, 78, 0
2, 21840, Note_on_c, 0, 79, 45
2, 21886, Note_on_c, 0, 79, 0
2, 21888, Note_on_c, 0, 75, 45
2, 21934, Note_on_c, 0, 75, 0
2, 21936, Note_on_c, 0, 76, 45
2, 21982, Note_on_c, 0, 76, 0
2, 21984, Note_on_c, 0, 72, 45
2, 22030, Note_on_c, 0, 72, 0
2, 22032, Note_on_c, 0, 71, 45
2, 22078, Note_on_c, 0, 71, 0
2, 22080, Note_on_c, 0, 72, 45
2, 22126, Note_on_c, 0, 72, 0
2, 22128, Note_on_c, 0, 73, 45
2, 22174, Note_on_c, 0, 73, 0
2, 22176, Note_on_c, 0, 74, 45
2, 22222, Note_on_c, 0, 74, 0
2, 22224, Note_on_c, 0, 71, 45
2, 22270, Note_on_c, 0, 71, 0
2, 22272, Note_on_c, 0, 67, 45
2, 22318, Note_on_c, 0, 67, 0
2, 22320, Note_on_c, 0, 62, 45
2, 22366, Note_on_c, 0, 62, 0
2, 22368, Note_on_c, 0, 66, 45
2, 22414, Note_on_c, 0, 66, 0
2, 22416, Note_on_c, 0, 69, 45
2, 22462, Note_on_c, 0, 69, 0
2, 22464, Note_on_c, 0, 72, 45
2, 22510, Note_on_c, 0, 72, 0
2, 22512, Note_on_c, 0, 69, 45
2, 22558, Note_on_c, 0, 69, 0
2, 22560, Note_on_c, 0, 66, 45
2, 22606, Note_on_c, 0, 66, 0
2, 22608, Note_on_c, 0, 69, 45
2, 22702, Note_on_c, 0, 69, 0
2, 22704, Note_on_c, 0, 68, 45
2, 22750, Note_on_c, 0, 68, 0
2, 22752, Note_on_c, 0, 69, 45
2, 22798, Note_on_c, 0, 69, 0
2, 22800, Note_on_c, 0, 71, 45
2, 22846, Note_on_c, 0, 71, 0
2, 22848, Note_on_c, 0, 69, 45
2, 22894, Note_on_c, 0, 69, 0
2, 22896, Note_on_c, 0, 67, 45
2, 23056, Note_on_c, 0, 67, 0
2, 23088, Note_on_c, 0, 74, 45
2, 23120, Note_on_c, 0, 74, 0
2, 23184, Note_on_c, 0, 83, 45
2, 23376, Note_on_c, 0, 83, 0
2, 23376, Note_on_c, 0, 74, 45
2, 23408, Note_on_c, 0, 74, 0
2, 23472, Note_on_c, 0, 81, 45
2, 23664, Note_on_c, 0, 81, 0
2, 23664, Note_on_c, 0, 72, 45
2, 23696, Note_on_c, 0, 72, 0
2, 23760, Note_on_c, 0, 71, 45
2, 23760, Note_on_c, 0, 79, 45
2, 23920, Note_on_c, 0, 71, 0
2, 23920, Note_on_c, 0, 79, 0
2, 24240, Note_on_c, 0, 67, 45
2, 24272, Note_on_c, 0, 67, 0
2, 24336, Note_on_c, 0, 74, 45
2, 24528, Note_on_c, 0, 74, 0
2, 24528, Note_on_c, 0, 67, 45
2, 24560, Note_on_c, 0, 67, 0
2, 24624, Note_on_c, 0, 76, 45
2, 24816, Note_on_c, 0, 76, 0
2, 24816, Note_on_c, 0, 67, 45
2, 24848, Note_on_c, 0, 67, 0
2, 24912, Note_on_c, 0, 66, 45
2, 24912, Note_on_c, 0, 69, 45
2, 25072, Note_on_c, 0, 66, 0
2, 25072, Note_on_c, 0, 69, 0
2, 25200, Note_on_c, 0, 81, 45
2, 25246, Note_on_c, 0, 81, 0
2, 25248, Note_on_c, 0, 79, 45
2, 25294, Note_on_c, 0, 79, 0
2, 25296, Note_on_c, 0, 78, 45
2, 25342, Note_on_c, 0, 78, 0
2, 25344, Note_on_c, 0, 76, 45
2, 25390, Note_on_c, 0, 76, 0
2, 25392, Note_on_c, 0, 74, 45
2, 25438, Note_on_c, 0, 74, 0
2, 25440, Note_on_c, 0, 72, 45
2, 25486, Note_on_c, 0, 72, 0
2, 25488, Note_on_c, 0, 71, 45
2, 25680, Note_on_c, 0, 71, 0
2, 25680, Note_on_c, 0, 62, 45
2, 25774, Note_on_c, 0, 62, 0
2, 25776, Note_on_c, 0, 72, 45
2, 25968, Note_on_c, 0, 72, 0
2, 25968, Note_on_c, 0, 62, 45
2, 26062, Note_on_c, 0, 62, 0
2, 26064, Note_on_c, 0, 74, 45
2, 26256, Note_on_c, 0, 74, 0
2, 26256, Note_on_c, 0, 67, 45
2, 26350, Note_on_c, 0, 67, 0
2, 26352, Note_on_c, 0, 76, 45
2, 26544, Note_on_c, 0, 76, 0
2, 26544, Note_on_c, 0, 67, 45
2, 26638, Note_on_c, 0, 67, 0
2, 26640, Note_on_c, 0, 67, 45
2, 26640, Note_on_c, 0, 71, 45
2, 26800, Note_on_c, 0, 67, 0
2, 26800, Note_on_c, 0, 71, 0
2, 26928, Note_on_c, 0, 69, 45
2, 26928, Note_on_c, 0, 78, 45
2, 27088, Note_on_c, 0, 69, 0
2, 27088, Note_on_c, 0, 78, 0
2, 27216, Note_on_c, 0, 71, 45
2, 27216, Note_on_c, 0, 79, 45
2, 27376, Note_on_c, 0, 71, 0
2, 27376, Note_on_c, 0, 79, 0
2, 27600, Note_on_c, 0, 86, 45
2, 27646, Note_on_c, 0, 86, 0
2, 27648, Note_on_c, 0, 84, 45
2, 27694, Note_on_c, 0, 84, 0
2, 27696, Note_on_c, 0, 83, 45
2, 27742, Note_on_c, 0, 83, 0
2, 27744, Note_on_c, 0, 81, 45
2, 27790, Note_on_c, 0, 81, 0
2, 27792, Note_on_c, 0, 80, 45
2, 27952, Note_on_c, 0, 80, 0
2, 28176, Note_on_c, 0, 71, 45
2, 28176, Note_on_c, 0, 80, 45
2, 28208, Note_on_c, 0, 71, 0
2, 28208, Note_on_c, 0, 80, 0
2, 28272, Note_on_c, 0, 71, 45
2, 28272, Note_on_c, 0, 80, 45
2, 28304, Note_on_c, 0, 71, 0
2, 28304, Note_on_c, 0, 80, 0
2, 28368, Note_on_c, 0, 72, 45
2, 28368, Note_on_c, 0, 81, 45
2, 28400, Note_on_c, 0, 72, 0
2, 28400, Note_on_c, 0, 81, 0
2, 28464, Note_on_c, 0, 72, 45
2, 28464, Note_on_c, 0, 81, 45
2, 28496, Note_on_c, 0, 72, 0
2, 28496, Note_on_c, 0, 81, 0
2, 28560, Note_on_c, 0, 74, 45
2, 28560, Note_on_c, 0, 83, 45
2, 28592, Note_on_c, 0, 74, 0
2, 28592, Note_on_c, 0, 83, 0
2, 28656, Note_on_c, 0, 76, 45
2, 28656, Note_on_c, 0, 84, 45
2, 28702, Note_on_c, 0, 76, 0
2, 28702, Note_on_c, 0, 84, 0
2, 28704, Note_on_c, 0, 86, 45
2, 28750, Note_on_c, 0, 86, 0
2, 28752, Note_on_c, 0, 84, 45
2, 28798, Note_on_c, 0, 84, 0
2, 28800, Note_on_c, 0, 83, 45
2, 28846, Note_on_c, 0, 83, 0
2, 28848, Note_on_c, 0, 81, 45
2, 28894, Note_on_c, 0, 81, 0
2, 28896, Note_on_c, 0, 79, 45
2, 28942, Note_on_c, 0, 79, 0
2, 28944, Note_on_c, 0, 78, 45
2, 29104, Note_on_c, 0, 78, 0
2, 29328, Note_on_c, 0, 69, 45
2, 29328, Note_on_c, 0, 78, 45
2, 29360, Note_on_c, 0, 69, 0
2, 29360, Note_on_c, 0, 78, 0
2, 29424, Note_on_c, 0, 69, 45
2, 29424, Note_on_c, 0, 78, 45
2, 29456, Note_on_c, 0, 69, 0
2, 29456, Note_on_c, 0, 78, 0
2, 29520, Note_on_c, 0, 71, 45
2, 29520, Note_on_c, 0, 79, 45
2, 29552, Note_on_c, 0, 71, 0
2, 29552, Note_on_c, 0, 79, 0
2, 29616, Note_on_c, 0, 71, 45
2, 29616, Note_on_c, 0, 79, 45
2, 29648, Note_on_c, 0, 71, 0
2, 29648, Note_on_c, 0, 79, 0
2, 29712, Note_on_c, 0, 72, 45
2, 29712, Note_on_c, 0, 81, 45
2, 29744, Note_on_c, 0, 72, 0
2, 29744, Note_on_c, 0, 81, 0
2, 29808, Note_on_c, 0, 74, 45
2, 29808, Note_on_c, 0, 83, 45
2, 29968, Note_on_c, 0, 74, 0
2, 29968, Note_on_c, 0, 83, 0
2, 30096, Note_on_c, 0, 79, 45
2, 30096, Note_on_c, 0, 83, 45
2, 30256, Note_on_c, 0, 79, 0
2, 30256, Note_on_c, 0, 83, 0
2, 30384, Note_on_c, 0, 76, 60
2, 30384, Note_on_c, 0, 79, 60
2, 30384, Note_on_c, 0, 88, 60
2, 30544, Note_on_c, 0, 76, 0
2, 30544, Note_on_c, 0, 79, 0
2, 30544, Note_on_c, 0, 88, 0
2, 30672, Note_on_c, 0, 74, 75
2, 30672, Note_on_c, 0, 78, 75
2, 30672, Note_on_c, 0, 81, 75
2, 30960, Note_on_c, 0, 74, 0
2, 30960, Note_on_c, 0, 78, 0
2, 30960, Note_on_c, 0, 81, 0
2, 30960, Note_on_c, 0, 74, 75
2, 30960, Note_on_c, 0, 78, 75
2, 30960, Note_on_c, 0, 81, 75
2, 31120, Note_on_c, 0, 74, 0
2, 31120, Note_on_c, 0, 78, 0
2, 31120, Note_on_c, 0, 81, 0
2, 31152, Note_on_c, 0, 62, 45
2, 31248, Note_on_c, 0, 62, 0
2, 31248, Note_on_c, 0, 69, 45
2, 31248, Note_on_c, 0, 72, 45
2, 31408, Note_on_c, 0, 69, 0
2, 31408, Note_on_c, 0, 72, 0
2, 31440, Note_on_c, 0, 62, 45
2, 31536, Note_on_c, 0, 62, 0
2, 31536, Note_on_c, 0, 67, 45
2, 31536, Note_on_c, 0, 71, 45
2, 31696, Note_on_c, 0, 67, 0
2, 31696, Note_on_c, 0, 71, 0
2, 31728, Note_on_c, 0, 62, 45
2, 31824, Note_on_c, 0, 62, 0
2, 31824, Note_on_c, 0, 66, 45
2, 31824, Note_on_c, 0, 69, 45
2, 31984, Note_on_c, 0, 66, 0
2, 31984, Note_on_c, 0, 69, 0
2, 32112, Note_on_c, 0, 81, 45
2, 32158, Note_on_c, 0, 81, 0
2, 32160, Note_on_c, 0, 79, 45
2, 32206, Note_on_c, 0, 79, 0
2, 32208, Note_on_c, 0, 78, 45
2, 32254, Note_on_c, 0, 78, 0
2, 32256, Note_on_c, 0, 76, 45
2, 32302, Note_on_c, 0, 76, 0
2, 32304, Note_on_c, 0, 74, 45
2, 32350, Note_on_c, 0, 74, 0
2, 32352, Note_on_c, 0, 72, 45
2, 32398, Note_on_c, 0, 72, 0
2, 32400, Note_on_c, 0, 71, 45
2, 32592, Note_on_c, 0, 71, 0
2, 32592, Note_on_c, 0, 62, 45
2, 32686, Note_on_c, 0, 62, 0
2, 32688, Note_on_c, 0, 72, 45
2, 32880, Note_on_c, 0, 72, 0
2, 32880, Note_on_c, 0, 62, 45
2, 32974, Note_on_c, 0, 62, 0
2, 32976, Note_on_c, 0, 74, 45
2, 33168, Note_on_c, 0, 74, 0
2, 33168, Note_on_c, 0, 67, 45
2, 33262, Note_on_c, 0, 67, 0
2, 33264, Note_on_c, 0, 76, 45
2, 33456, Note_on_c, 0, 76, 0
2, 33456, Note_on_c, 0, 67, 45
2, 33550, Note_on_c, 0, 67, 0
2, 33552, Note_on_c, 0, 67, 45
2, 33552, Note_on_c, 0, 71, 45
2, 33712, Note_on_c, 0, 67, 0
2, 33712, Note_on_c, 0, 71, 0
2, 33840, Note_on_c, 0, 69, 45
2, 33840, Note_on_c, 0, 78, 45
2, 34000, Note_on_c, 0, 69, 0
2, 34000, Note_on_c, 0, 78, 0
2, 34128, Note_on_c, 0, 71, 45
2, 34128, Note_on_c, 0, 79, 45
2, 34288, Note_on_c, 0, 71, 0
2, 34288, Note_on_c, 0, 79, 0
2, 34608, Note_on_c, 0, 62, 45
2, 34702, Note_on_c, 0, 62, 0
2, 34752, Note_on_c, 0, 59, 45
2, 34798, Note_on_c, 0, 59, 0
2, 34800, Note_on_c, 0, 62, 45
2, 34846, Note_on_c, 0, 62, 0
2, 34848, Note_on_c, 0, 67, 45
2, 34894, Note_on_c, 0, 67, 0
2, 34896, Note_on_c, 0, 71, 45
2, 34928, Note_on_c, 0, 71, 0
2, 35040, Note_on_c, 0, 57, 45
2, 35086, Note_on_c, 0, 57, 0
2, 35088, Note_on_c, 0, 60, 45
2, 35134, Note_on_c, 0, 60, 0
2, 35136, Note_on_c, 0, 66, 45
2, 35182, Note_on_c, 0, 66, 0
2, 35184, Note_on_c, 0, 69, 45
2, 35216, Note_on_c, 0, 69, 0
2, 35280, Note_on_c, 0, 59, 45
2, 35280, Note_on_c, 0, 67, 45
2, 35440, Note_on_c, 0, 59, 0
2, 35440, Note_on_c, 0, 67, 0
2, 35568, Note_on_c, 0, 74, 45
2, 35662, Note_on_c, 0, 74, 0
2, 35664, Note_on_c, 0, 71, 45
2, 35758, Note_on_c, 0, 71, 0
2, 35760, Note_on_c, 0, 67, 45
2, 35854, Note_on_c, 0, 67, 0
2, 35904, Note_on_c, 0, 62, 45
2, 35950, Note_on_c, 0, 62, 0
2, 35952, Note_on_c, 0, 67, 45
2, 35998, Note_on_c, 0, 67, 0
2, 36000, Note_on_c, 0, 71, 45
2, 36046, Note_on_c, 0, 71, 0
2, 36048, Note_on_c, 0, 74, 45
2, 36080, Note_on_c, 0, 74, 0
2, 36192, Note_on_c, 0, 64, 45
2, 36238, Note_on_c, 0, 64, 0
2, 36240, Note_on_c, 0, 67, 45
2, 36286, Note_on_c, 0, 67, 0
2, 36288, Note_on_c, 0, 72, 45
2, 36334, Note_on_c, 0, 72, 0
2, 36336, Note_on_c, 0, 76, 45
2, 36368, Note_on_c, 0, 76, 0
2, 36432, Note_on_c, 0, 62, 45
2, 36432, Note_on_c, 0, 66, 45
2, 36432, Note_on_c, 0, 69, 45
2, 36592, Note_on_c, 0, 62, 0
2, 36592, Note_on_c, 0, 66, 0
2, 36592, Note_on_c, 0, 69, 0
2, 36720, Note_on_c, 0, 81, 45
2, 36816, Note_on_c, 0, 81, 0
2, 36816, Note_on_c, 0, 78, 45
2, 36912, Note_on_c, 0, 78, 0
2, 36912, Note_on_c, 0, 72, 45
2, 37006, Note_on_c, 0, 72, 0
2, 37056, Note_on_c, 0, 59, 45
2, 37102, Note_on_c, 0, 59, 0
2, 37104, Note_on_c, 0, 62, 45
2, 37150, Note_on_c, 0, 62, 0
2, 37152, Note_on_c, 0, 67, 45
2, 37198, Note_on_c, 0, 67, 0
2, 37200, Note_on_c, 0, 71, 63
2, 37232, Note_on_c, 0, 71, 0
2, 37296, Note_on_c, 0, 72, 45
2, 37456, Note_on_c, 0, 72, 0
2, 37632, Note_on_c, 0, 62, 45
2, 37678, Note_on_c, 0, 62, 0
2, 37680, Note_on_c, 0, 67, 45
2, 37726, Note_on_c, 0, 67, 0
2, 37728, Note_on_c, 0, 71, 45
2, 37774, Note_on_c, 0, 71, 0
2, 37776, Note_on_c, 0, 74, 63
2, 37808, Note_on_c, 0, 74, 0
2, 37872, Note_on_c, 0, 76, 45
2, 38032, Note_on_c, 0, 76, 0
2, 38208, Note_on_c, 0, 55, 45
2, 38254, Note_on_c, 0, 55, 0
2, 38256, Note_on_c, 0, 59, 45
2, 38302, Note_on_c, 0, 59, 0
2, 38304, Note_on_c, 0, 62, 45
2, 38350, Note_on_c, 0, 62, 0
2, 38352, Note_on_c, 0, 67, 45
2, 38384, Note_on_c, 0, 67, 0
2, 38496, Note_on_c, 0, 57, 45
2, 38542, Note_on_c, 0, 57, 0
2, 38544, Note_on_c, 0, 60, 45
2, 38590, Note_on_c, 0, 60, 0
2, 38592, Note_on_c, 0, 62, 45
2, 38638, Note_on_c, 0, 62, 0
2, 38640, Note_on_c, 0, 66, 45
2, 38672, Note_on_c, 0, 66, 0
2, 38736, Note_on_c, 0, 60, 45
2, 38736, Note_on_c, 0, 66, 45
2, 38736, Note_on_c, 0, 69, 45
2, 39024, Note_on_c, 0, 60, 0
2, 39024, Note_on_c, 0, 66, 0
2, 39024, Note_on_c, 0, 69, 0
2, 39024, Note_on_c, 0, 59, 45
2, 39024, Note_on_c, 0, 62, 45
2, 39024, Note_on_c, 0, 67, 45
2, 39184, Note_on_c, 0, 59, 0
2, 39184, Note_on_c, 0, 62, 0
2, 39184, Note_on_c, 0, 67, 0
2, 39360, Note_on_c, 0, 64, 45
2, 39406, Note_on_c, 0, 64, 0
2, 39408, Note_on_c, 0, 68, 45
2, 39454, Note_on_c, 0, 68, 0
2, 39456, Note_on_c, 0, 71, 45
2, 39502, Note_on_c, 0, 71, 0
2, 39504, Note_on_c, 0, 76, 45
2, 39536, Note_on_c, 0, 76, 0
2, 39648, Note_on_c, 0, 76, 45
2, 39694, Note_on_c, 0, 76, 0
2, 39696, Note_on_c, 0, 80, 45
2, 39742, Note_on_c, 0, 80, 0
2, 39744, Note_on_c, 0, 83, 45
2, 39790, Note_on_c, 0, 83, 0
2, 39792, Note_on_c, 0, 88, 45
2, 39824, Note_on_c, 0, 88, 0
2, 39936, Note_on_c, 0, 76, 45
2, 39982, Note_on_c, 0, 76, 0
2, 39984, Note_on_c, 0, 81, 45
2, 40030, Note_on_c, 0, 81, 0
2, 40032, Note_on_c, 0, 84, 45
2, 40078, Note_on_c, 0, 84, 0
2, 40080, Note_on_c, 0, 88, 45
2, 40112, Note_on_c, 0, 88, 0
2, 40176, Note_on_c, 0, 76, 45
2, 40176, Note_on_c, 0, 81, 45
2, 40176, Note_on_c, 0, 84, 45
2, 40176, Note_on_c, 0, 88, 45
2, 40336, Note_on_c, 0, 76, 0
2, 40336, Note_on_c, 0, 81, 0
2, 40336, Note_on_c, 0, 84, 0
2, 40336, Note_on_c, 0, 88, 0
2, 40512, Note_on_c, 0, 62, 45
2, 40558, Note_on_c, 0, 62, 0
2, 40560, Note_on_c, 0, 66, 45
2, 40606, Note_on_c, 0, 66, 0
2, 40608, Note_on_c, 0, 69, 45
2, 40654, Note_on_c, 0, 69, 0
2, 40656, Note_on_c, 0, 74, 45
2, 40688, Note_on_c, 0, 74, 0
2, 40800, Note_on_c, 0, 74, 45
2, 40846, Note_on_c, 0, 74, 0
2, 40848, Note_on_c, 0, 78, 45
2, 40894, Note_on_c, 0, 78, 0
2, 40896, Note_on_c, 0, 81, 45
2, 40942, Note_on_c, 0, 81, 0
2, 40944, Note_on_c, 0, 86, 45
2, 40976, Note_on_c, 0, 86, 0
2, 41088, Note_on_c, 0, 74, 45
2, 41134, Note_on_c, 0, 74, 0
2, 41136, Note_on_c, 0, 79, 45
2, 41182, Note_on_c, 0, 79, 0
2, 41184, Note_on_c, 0, 83, 45
2, 41230, Note_on_c, 0, 83, 0
2, 41232, Note_on_c, 0, 86, 45
2, 41264, Note_on_c, 0, 86, 0
2, 41328, Note_on_c, 0, 74, 45
2, 41328, Note_on_c, 0, 79, 45
2, 41328, Note_on_c, 0, 83, 45
2, 41328, Note_on_c, 0, 86, 45
2, 41488, Note_on_c, 0, 74, 0
2, 41488, Note_on_c, 0, 79, 0
2, 41488, Note_on_c, 0, 83, 0
2, 41488, Note_on_c, 0, 86, 0
2, 41664, Note_on_c, 0, 55, 45
2, 41710, Note_on_c, 0, 55, 0
2, 41712, Note_on_c, 0, 61, 45
2, 41758, Note_on_c, 0, 61, 0
2, 41760, Note_on_c, 0, 64, 45
2, 41806, Note_on_c, 0, 64, 0
2, 41808, Note_on_c, 0, 67, 45
2, 41840, Note_on_c, 0, 67, 0
2, 41952, Note_on_c, 0, 67, 45
2, 41998, Note_on_c, 0, 67, 0
2, 42000, Note_on_c, 0, 73, 45
2, 42046, Note_on_c, 0, 73, 0
2, 42048, Note_on_c, 0, 76, 45
2, 42094, Note_on_c, 0, 76, 0
2, 42096, Note_on_c, 0, 79, 45
2, 42128, Note_on_c, 0, 79, 0
2, 42240, Note_on_c, 0, 78, 45
2, 42286, Note_on_c, 0, 78, 0
2, 42288, Note_on_c, 0, 79, 45
2, 42334, Note_on_c, 0, 79, 0
2, 42336, Note_on_c, 0, 81, 45
2, 42382, Note_on_c, 0, 81, 0
2, 42384, Note_on_c, 0, 78, 45
2, 42430, Note_on_c, 0, 78, 0
2, 42432, Note_on_c, 0, 74, 45
2, 42592, Note_on_c, 0, 74, 0
2, 42624, Note_on_c, 0, 74, 45
2, 42718, Note_on_c, 0, 74, 0
2, 42720, Note_on_c, 0, 69, 45
2, 42720, Note_on_c, 0, 72, 45
2, 42720, Note_on_c, 0, 74, 45
2, 42880, Note_on_c, 0, 69, 0
2, 42880, Note_on_c, 0, 72, 0
2, 42880, Note_on_c, 0, 74, 0
2, 43008, Note_on_c, 0, 67, 45
2, 43008, Note_on_c, 0, 71, 45
2, 43008, Note_on_c, 0, 74, 45
2, 43168, Note_on_c, 0, 67, 0
2, 43168, Note_on_c, 0, 71, 0
2, 43168, Note_on_c, 0, 74, 0
2, 43296, Note_on_c, 0, 66, 45
2, 43296, Note_on_c, 0, 69, 45
2, 43296, Note_on_c, 0, 74, 45
2, 43456, Note_on_c, 0, 66, 0
2, 43456, Note_on_c, 0, 69, 0
2, 43456, Note_on_c, 0, 74, 0
2, 43632, Note_on_c, 0, 62, 45
2, 43678, Note_on_c, 0, 62, 0
2, 43680, Note_on_c, 0, 66, 45
2, 43726, Note_on_c, 0, 66, 0
2, 43728, Note_on_c, 0, 69, 45
2, 43774, Note_on_c, 0, 69, 0
2, 43776, Note_on_c, 0, 74, 45
2, 43808, Note_on_c, 0, 74, 0
2, 43872, Note_on_c, 0, 62, 45
2, 43872, Note_on_c, 0, 67, 45
2, 43872, Note_on_c, 0, 71, 45
2, 44032, Note_on_c, 0, 62, 0
2, 44032, Note_on_c, 0, 67, 0
2, 44032, Note_on_c, 0, 71, 0
2, 44208, Note_on_c, 0, 60, 45
2, 44254, Note_on_c, 0, 60, 0
2, 44256, Note_on_c, 0, 66, 45
2, 44302, Note_on_c, 0, 66, 0
2, 44304, Note_on_c, 0, 69, 63
2, 44350, Note_on_c, 0, 69, 0
2, 44352, Note_on_c, 0, 72, 63
2, 44384, Note_on_c, 0, 72, 0
2, 44448, Note_on_c, 0, 62, 45
2, 44448, Note_on_c, 0, 67, 45
2, 44448, Note_on_c, 0, 74, 45
2, 44608, Note_on_c, 0, 62, 0
2, 44608, Note_on_c, 0, 67, 0
2, 44608, Note_on_c, 0, 74, 0
2, 44784, Note_on_c, 0, 64, 45
2, 44830, Note_on_c, 0, 64, 0
2, 44832, Note_on_c, 0, 67, 45
2, 44878, Note_on_c, 0, 67, 0
2, 44880, Note_on_c, 0, 72, 63
2, 44926, Note_on_c, 0, 72, 0
2, 44928, Note_on_c, 0, 76, 63
2, 44960, Note_on_c, 0, 76, 0
2, 45072, Note_on_c, 0, 55, 45
2, 45118, Note_on_c, 0, 55, 0
2, 45120, Note_on_c, 0, 59, 45
2, 45166, Note_on_c, 0, 59, 0
2, 45168, Note_on_c, 0, 62, 45
2, 45214, Note_on_c, 0, 62, 0
2, 45216, Note_on_c, 0, 67, 45
2, 45248, Note_on_c, 0, 67, 0
2, 45360, Note_on_c, 0, 57, 45
2, 45406, Note_on_c, 0, 57, 0
2, 45408, Note_on_c, 0, 60, 45
2, 45454, Note_on_c, 0, 60, 0
2, 45456, Note_on_c, 0, 62, 45
2, 45502, Note_on_c, 0, 62, 0
2, 45504, Note_on_c, 0, 66, 45
2, 45536, Note_on_c, 0, 66, 0
2, 45600, Note_on_c, 0, 60, 45
2, 45600, Note_on_c, 0, 66, 45
2, 45600, Note_on_c, 0, 69, 45
2, 45888, Note_on_c, 0, 60, 0
2, 45888, Note_on_c, 0, 66, 0
2, 45888, Note_on_c, 0, 69, 0
2, 45888, Note_on_c, 0, 59, 45
2, 45888, Note_on_c, 0, 62, 45
2, 45888, Note_on_c, 0, 67, 45
2, 46048, Note_on_c, 0, 59, 0
2, 46048, Note_on_c, 0, 62, 0
2, 46048, Note_on_c, 0, 67, 0
2, 46080, Note_on_c, 0, 74, 45
2, 46174, Note_on_c, 0, 74, 0
2, 46176, Note_on_c, 0, 67, 45
2, 46176, Note_on_c, 0, 74, 45
2, 46270, Note_on_c, 0, 74, 0
2, 46272, Note_on_c, 0, 72, 45
2, 46366, Note_on_c, 0, 72, 0
2, 46368, Note_on_c, 0, 70, 45
2, 46432, Note_on_c, 0, 67, 0
2, 46462, Note_on_c, 0, 70, 0
2, 46464, Note_on_c, 0, 66, 45
2, 46464, Note_on_c, 0, 70, 45
2, 46558, Note_on_c, 0, 70, 0
2, 46560, Note_on_c, 0, 70, 45
2, 46654, Note_on_c, 0, 70, 0
2, 46656, Note_on_c, 0, 69, 45
2, 46720, Note_on_c, 0, 66, 0
2, 46750, Note_on_c, 0, 69, 0
2, 46752, Note_on_c, 0, 62, 45
2, 46752, Note_on_c, 0, 69, 45
2, 46846, Note_on_c, 0, 69, 0
2, 46848, Note_on_c, 0, 69, 45
2, 46912, Note_on_c, 0, 62, 0
2, 46942, Note_on_c, 0, 69, 0
2, 46944, Note_on_c, 0, 67, 45
2, 47038, Note_on_c, 0, 67, 0
2, 47040, Note_on_c, 0, 66, 45
2, 47134, Note_on_c, 0, 66, 0
2, 47136, Note_on_c, 0, 67, 45
2, 47230, Note_on_c, 0, 67, 0
2, 47232, Note_on_c, 0, 70, 45
2, 47326, Note_on_c, 0, 70, 0
2, 47328, Note_on_c, 0, 74, 45
2, 47422, Note_on_c, 0, 74, 0
2, 47424, Note_on_c, 0, 73, 45
2, 47518, Note_on_c, 0, 73, 0
2, 47520, Note_on_c, 0, 74, 45
2, 47614, Note_on_c, 0, 74, 0
2, 47712, Note_on_c, 0, 77, 45
2, 47806, Note_on_c, 0, 77, 0
2, 47808, Note_on_c, 0, 75, 45
2, 47840, Note_on_c, 0, 75, 0
2, 48000, Note_on_c, 0, 68, 45
2, 48094, Note_on_c, 0, 68, 0
2, 48096, Note_on_c, 0, 69, 45
2, 48190, Note_on_c, 0, 69, 0
2, 48192, Note_on_c, 0, 70, 45
2, 48286, Note_on_c, 0, 70, 0
2, 48288, Note_on_c, 0, 71, 45
2, 48382, Note_on_c, 0, 71, 0
2, 48384, Note_on_c, 0, 72, 45
2, 48416, Note_on_c, 0, 72, 0
2, 48480, Note_on_c, 0, 65, 92
2, 48480, Note_on_c, 0, 68, 92
2, 48576, Note_on_c, 0, 72, 45
2, 48672, Note_on_c, 0, 72, 0
2, 48672, Note_on_c, 0, 71, 45
2, 48704, Note_on_c, 0, 71, 0
2, 48736, Note_on_c, 0, 65, 0
2, 48736, Note_on_c, 0, 68, 0
2, 48768, Note_on_c, 0, 67, 45
2, 48864, Note_on_c, 0, 74, 46
2, 48960, Note_on_c, 0, 74, 0
2, 48960, Note_on_c, 0, 72, 47
2, 48992, Note_on_c, 0, 72, 0
2, 49024, Note_on_c, 0, 67, 0
2, 49056, Note_on_c, 0, 67, 48
2, 49152, Note_on_c, 0, 75, 50
2, 49248, Note_on_c, 0, 75, 0
2, 49248, Note_on_c, 0, 74, 52
2, 49280, Note_on_c, 0, 74, 0
2, 49312, Note_on_c, 0, 67, 0
2, 49344, Note_on_c, 0, 67, 54
2, 49440, Note_on_c, 0, 77, 56
2, 49536, Note_on_c, 0, 77, 0
2, 49536, Note_on_c, 0, 75, 58
2, 49568, Note_on_c, 0, 75, 0
2, 49600, Note_on_c, 0, 67, 0
2, 49728, Note_on_c, 0, 75, 60
2, 49824, Note_on_c, 0, 75, 0
2, 49824, Note_on_c, 0, 67, 60
2, 49856, Note_on_c, 0, 67, 0
2, 50016, Note_on_c, 0, 67, 60
2, 50112, Note_on_c, 0, 67, 0
2, 50112, Note_on_c, 0, 66, 60
2, 50144, Note_on_c, 0, 66, 0
2, 50208, Note_on_c, 0, 60, 60
2, 50208, Note_on_c, 0, 69, 60
2, 50496, Note_on_c, 0, 60, 0
2, 50496, Note_on_c, 0, 69, 0
2, 50496, Note_on_c, 0, 58, 60
2, 50496, Note_on_c, 0, 67, 60
2, 50656, Note_on_c, 0, 58, 0
2, 50656, Note_on_c, 0, 67, 0
2, 50688, Note_on_c, 0, 74, 60
2, 50782, Note_on_c, 0, 74, 0
2, 50784, Note_on_c, 0, 72, 60
2, 50880, Note_on_c, 0, 72, 0
2, 50880, Note_on_c, 0, 71, 60
2, 50976, Note_on_c, 0, 71, 0
2, 50976, Note_on_c, 0, 68, 60
2, 51072, Note_on_c, 0, 68, 0
2, 51072, Note_on_c, 0, 67, 60
2, 51168, Note_on_c, 0, 67, 0
2, 51168, Note_on_c, 0, 80, 60
2, 51264, Note_on_c, 0, 80, 0
2, 51264, Note_on_c, 0, 79, 60
2, 51360, Note_on_c, 0, 79, 0
2, 51360, Note_on_c, 0, 77, 84
2, 51552, Note_on_c, 0, 77, 0
2, 51552, Note_on_c, 0, 75, 60
2, 51584, Note_on_c, 0, 75, 0
2, 51840, Note_on_c, 0, 75, 60
2, 51936, Note_on_c, 0, 75, 0
2, 51936, Note_on_c, 0, 70, 60
2, 52032, Note_on_c, 0, 70, 0
2, 52032, Note_on_c, 0, 69, 60
2, 52128, Note_on_c, 0, 69, 0
2, 52128, Note_on_c, 0, 67, 60
2, 52224, Note_on_c, 0, 67, 0
2, 52224, Note_on_c, 0, 66, 60
2, 52320, Note_on_c, 0, 66, 0
2, 52320, Note_on_c, 0, 75, 60
2, 52416, Note_on_c, 0, 75, 0
2, 52416, Note_on_c, 0, 74, 60
2, 52512, Note_on_c, 0, 74, 0
2, 52512, Note_on_c, 0, 72, 84
2, 52704, Note_on_c, 0, 72, 0
2, 52704, Note_on_c, 0, 70, 60
2, 52798, Note_on_c, 0, 70, 0
2, 52992, Note_on_c, 0, 67, 60
2, 52992, Note_on_c, 0, 74, 60
2, 53086, Note_on_c, 0, 67, 0
2, 53086, Note_on_c, 0, 74, 0
2, 53088, Note_on_c, 0, 67, 60
2, 53088, Note_on_c, 0, 74, 60
2, 53248, Note_on_c, 0, 67, 0
2, 53248, Note_on_c, 0, 74, 0
2, 53280, Note_on_c, 0, 67, 70
2, 53280, Note_on_c, 0, 73, 70
2, 53374, Note_on_c, 0, 67, 0
2, 53374, Note_on_c, 0, 73, 0
2, 53376, Note_on_c, 0, 67, 75
2, 53376, Note_on_c, 0, 79, 75
2, 53536, Note_on_c, 0, 67, 0
2, 53536, Note_on_c, 0, 79, 0
2, 53568, Note_on_c, 0, 67, 86
2, 53568, Note_on_c, 0, 73, 86
2, 53662, Note_on_c, 0, 67, 0
2, 53662, Note_on_c, 0, 73, 0
2, 53664, Note_on_c, 0, 67, 92
2, 53664, Note_on_c, 0, 73, 92
2, 53920, Note_on_c, 0, 67, 0
2, 53920, Note_on_c, 0, 73, 0
2, 53952, Note_on_c, 0, 74, 60
2, 53974, Note_on_c, 0, 74, 0
2, 53976, Note_on_c, 0, 73, 60
2, 53998, Note_on_c, 0, 73, 0
2, 54000, Note_on_c, 0, 71, 60
2, 54022, Note_on_c, 0, 71, 0
2, 54024, Note_on_c, 0, 73, 60
2, 54046, Note_on_c, 0, 73, 0
2, 54048, Note_on_c, 0, 75, 60
2, 54070, Note_on_c, 0, 75, 0
2, 54072, Note_on_c, 0, 74, 60
2, 54094, Note_on_c, 0, 74, 0
2, 54096, Note_on_c, 0, 66, 60
2, 54096, Note_on_c, 0, 74, 60
2, 54142, Note_on_c, 0, 66, 0
2, 54142, Note_on_c, 0, 74, 0
2, 54144, Note_on_c, 0, 74, 60
2, 54238, Note_on_c, 0, 74, 0
2, 54240, Note_on_c, 0, 69, 60
2, 54240, Note_on_c, 0, 72, 60
2, 54400, Note_on_c, 0, 69, 0
2, 54400, Note_on_c, 0, 72, 0
2, 54432, Note_on_c, 0, 69, 60
2, 54432, Note_on_c, 0, 72, 60
2, 54528, Note_on_c, 0, 69, 0
2, 54528, Note_on_c, 0, 72, 0
2, 54528, Note_on_c, 0, 67, 60
2, 54528, Note_on_c, 0, 70, 60
2, 54688, Note_on_c, 0, 67, 0
2, 54688, Note_on_c, 0, 70, 0
2, 54720, Note_on_c, 0, 67, 60
2, 54720, Note_on_c, 0, 70, 60
2, 54816, Note_on_c, 0, 67, 0
2, 54816, Note_on_c, 0, 70, 0
2, 54816, Note_on_c, 0, 66, 60
2, 54816, Note_on_c, 0, 69, 60
2, 55072, Note_on_c, 0, 66, 0
2, 55072, Note_on_c, 0, 69, 0
2, 55104, Note_on_c, 0, 66, 60
2, 55104, Note_on_c, 0, 69, 60
2, 55264, Note_on_c, 0, 66, 0
2, 55264, Note_on_c, 0, 69, 0
2, 55296, Note_on_c, 0, 72, 60
2, 55392, Note_on_c, 0, 72, 0
2, 55392, Note_on_c, 0, 65, 45
2, 55392, Note_on_c, 0, 68, 45
2, 55392, Note_on_c, 0, 72, 45
2, 55486, Note_on_c, 0, 72, 0
2, 55488, Note_on_c, 0, 72, 45
2, 55584, Note_on_c, 0, 72, 0
2, 55584, Note_on_c, 0, 71, 45
2, 55616, Note_on_c, 0, 71, 0
2, 55648, Note_on_c, 0, 65, 0
2, 55648, Note_on_c, 0, 68, 0
2, 55680, Note_on_c, 0, 67, 45
2, 55776, Note_on_c, 0, 74, 45
2, 55872, Note_on_c, 0, 74, 0
2, 55872, Note_on_c, 0, 72, 45
2, 55904, Note_on_c, 0, 72, 0
2, 55936, Note_on_c, 0, 67, 0
2, 55968, Note_on_c, 0, 67, 45
2, 56064, Note_on_c, 0, 75, 45
2, 56160, Note_on_c, 0, 75, 0
2, 56160, Note_on_c, 0, 74, 45
2, 56192, Note_on_c, 0, 74, 0
2, 56224, Note_on_c, 0, 67, 0
2, 56256, Note_on_c, 0, 67, 45
2, 56352, Note_on_c, 0, 77, 45
2, 56448, Note_on_c, 0, 77, 0
2, 56448, Note_on_c, 0, 75, 45
2, 56480, Note_on_c, 0, 75, 0
2, 56512, Note_on_c, 0, 67, 0
2, 56640, Note_on_c, 0, 75, 45
2, 56736, Note_on_c, 0, 75, 0
2, 56736, Note_on_c, 0, 67, 45
2, 56830, Note_on_c, 0, 67, 0
2, 56928, Note_on_c, 0, 67, 45
2, 57024, Note_on_c, 0, 67, 0
2, 57024, Note_on_c, 0, 66, 45
2, 57118, Note_on_c, 0, 66, 0
2, 57120, Note_on_c, 0, 60, 45
2, 57120, Note_on_c, 0, 69, 45
2, 57408, Note_on_c, 0, 60, 0
2, 57408, Note_on_c, 0, 69, 0
2, 57408, Note_on_c, 0, 58, 45
2, 57408, Note_on_c, 0, 67, 45
2, 57568, Note_on_c, 0, 58, 0
2, 57568, Note_on_c, 0, 67, 0
2, 57728, Note_on_c, 0, 86, 45
2, 57758, Note_on_c, 0, 86, 0
2, 57760, Note_on_c, 0, 84, 45
2, 57790, Note_on_c, 0, 84, 0
2, 57792, Note_on_c, 0, 83, 45
2, 57822, Note_on_c, 0, 83, 0
2, 57824, Note_on_c, 0, 82, 45
2, 57854, Note_on_c, 0, 82, 0
2, 57856, Note_on_c, 0, 81, 45
2, 57886, Note_on_c, 0, 81, 0
2, 57888, Note_on_c, 0, 79, 45
2, 57920, Note_on_c, 0, 79, 0
2, 58016, Note_on_c, 0, 84, 45
2, 58046, Note_on_c, 0, 84, 0
2, 58048, Note_on_c, 0, 83, 45
2, 58078, Note_on_c, 0, 83, 0
2, 58080, Note_on_c, 0, 81, 45
2, 58110, Note_on_c, 0, 81, 0
2, 58112, Note_on_c, 0, 80, 45
2, 58142, Note_on_c, 0, 80, 0
2, 58144, Note_on_c, 0, 79, 45
2, 58174, Note_on_c, 0, 79, 0
2, 58176, Note_on_c, 0, 78, 45
2, 58208, Note_on_c, 0, 78, 0
2, 58304, Note_on_c, 0, 83, 45
2, 58334, Note_on_c, 0, 83, 0
2, 58336, Note_on_c, 0, 81, 45
2, 58366, Note_on_c, 0, 81, 0
2, 58368, Note_on_c, 0, 79, 45
2, 58398, Note_on_c, 0, 79, 0
2, 58400, Note_on_c, 0, 78, 45
2, 58430, Note_on_c, 0, 78, 0
2, 58432, Note_on_c, 0, 76, 45
2, 58462, Note_on_c, 0, 76, 0
2, 58464, Note_on_c, 0, 74, 45
2, 58494, Note_on_c, 0, 74, 0
2, 58496, Note_on_c, 0, 72, 45
2, 58526, Note_on_c, 0, 72, 0
2, 58528, Note_on_c, 0, 71, 45
2, 58558, Note_on_c, 0, 71, 0
2, 58560, Note_on_c, 0, 69, 45
2, 58590, Note_on_c, 0, 69, 0
2, 58592, Note_on_c, 0, 67, 45
2, 58622, Note_on_c, 0, 67, 0
2, 58624, Note_on_c, 0, 66, 45
2, 58654, Note_on_c, 0, 66, 0
2, 58656, Note_on_c, 0, 67, 45
2, 58686, Note_on_c, 0, 67, 0
2, 58688, Note_on_c, 0, 71, 45
2, 58718, Note_on_c, 0, 71, 0
2, 58720, Note_on_c, 0, 74, 45
2, 58750, Note_on_c, 0, 74, 0
2, 58752, Note_on_c, 0, 78, 45
2, 58784, Note_on_c, 0, 78, 0
2, 58880, Note_on_c, 0, 79, 45
2, 58912, Note_on_c, 0, 79, 0
2, 58912, Note_on_c, 0, 81, 45
2, 58944, Note_on_c, 0, 81, 0
2, 58944, Note_on_c, 0, 83, 45
2, 58976, Note_on_c, 0, 83, 0
2, 58976, Note_on_c, 0, 84, 45
2, 59008, Note_on_c, 0, 84, 0
2, 59008, Note_on_c, 0, 85, 45
2, 59040, Note_on_c, 0, 85, 0
2, 59040, Note_on_c, 0, 86, 45
2, 59072, Note_on_c, 0, 86, 0
2, 59168, Note_on_c, 0, 81, 45
2, 59200, Note_on_c, 0, 81, 0
2, 59200, Note_on_c, 0, 83, 45
2, 59232, Note_on_c, 0, 83, 0
2, 59232, Note_on_c, 0, 84, 45
2, 59264, Note_on_c, 0, 84, 0
2, 59264, Note_on_c, 0, 86, 45
2, 59296, Note_on_c, 0, 86, 0
2, 59296, Note_on_c, 0, 87, 45
2, 59328, Note_on_c, 0, 87, 0
2, 59328, Note_on_c, 0, 88, 45
2, 59360, Note_on_c, 0, 88, 0
2, 59456, Note_on_c, 0, 81, 45
2, 59486, Note_on_c, 0, 81, 0
2, 59488, Note_on_c, 0, 79, 45
2, 59518, Note_on_c, 0, 79, 0
2, 59520, Note_on_c, 0, 78, 45
2, 59550, Note_on_c, 0, 78, 0
2, 59552, Note_on_c, 0, 76, 45
2, 59582, Note_on_c, 0, 76, 0
2, 59584, Note_on_c, 0, 74, 45
2, 59614, Note_on_c, 0, 74, 0
2, 59616, Note_on_c, 0, 73, 45
2, 59646, Note_on_c, 0, 73, 0
2, 59648, Note_on_c, 0, 71, 45
2, 59678, Note_on_c, 0, 71, 0
2, 59680, Note_on_c, 0, 69, 45
2, 59710, Note_on_c, 0, 69, 0
2, 59712, Note_on_c, 0, 67, 45
2, 59742, Note_on_c, 0, 67, 0
2, 59744, Note_on_c, 0, 66, 45
2, 59774, Note_on_c, 0, 66, 0
2, 59776, Note_on_c, 0, 64, 45
2, 59806, Note_on_c, 0, 64, 0
2, 59808, Note_on_c, 0, 62, 45
2, 59902, Note_on_c, 0, 62, 0
2, 60096, Note_on_c, 0, 79, 45
2, 60126, Note_on_c, 0, 79, 0
2, 60128, Note_on_c, 0, 81, 45
2, 60158, Note_on_c, 0, 81, 0
2, 60160, Note_on_c, 0, 78, 45
2, 60190, Note_on_c, 0, 78, 0
2, 60192, Note_on_c, 0, 79, 45
2, 60224, Note_on_c, 0, 79, 0
2, 60384, Note_on_c, 0, 79, 45
2, 60414, Note_on_c, 0, 79, 0
2, 60416, Note_on_c, 0, 81, 45
2, 60446, Note_on_c, 0, 81, 0
2, 60448, Note_on_c, 0, 78, 45
2, 60478, Note_on_c, 0, 78, 0
2, 60480, Note_on_c, 0, 79, 45
2, 60512, Note_on_c, 0, 79, 0
2, 60672, Note_on_c, 0, 79, 45
2, 60702, Note_on_c, 0, 79, 0
2, 60704, Note_on_c, 0, 81, 45
2, 60734, Note_on_c, 0, 81, 0
2, 60736, Note_on_c, 0, 78, 45
2, 60766, Note_on_c, 0, 78, 0
2, 60768, Note_on_c, 0, 79, 45
2, 60800, Note_on_c, 0, 79, 0
2, 60960, Note_on_c, 0, 79, 45
2, 60990, Note_on_c, 0, 79, 0
2, 60992, Note_on_c, 0, 81, 45
2, 61022, Note_on_c, 0, 81, 0
2, 61024, Note_on_c, 0, 78, 45
2, 61054, Note_on_c, 0, 78, 0
2, 61056, Note_on_c, 0, 79, 45
2, 61086, Note_on_c, 0, 79, 0
2, 61088, Note_on_c, 0, 81, 45
2, 61118, Note_on_c, 0, 81, 0
2, 61120, Note_on_c, 0, 78, 45
2, 61150, Note_on_c, 0, 78, 0
2, 61152, Note_on_c, 0, 79, 45
2, 61182, Note_on_c, 0, 79, 0
2, 61184, Note_on_c, 0, 86, 45
2, 61214, Note_on_c, 0, 86, 0
2, 61216, Note_on_c, 0, 84, 45
2, 61246, Note_on_c, 0, 84, 0
2, 61248, Note_on_c, 0, 83, 45
2, 61278, Note_on_c, 0, 83, 0
2, 61280, Note_on_c, 0, 81, 45
2, 61310, Note_on_c, 0, 81, 0
2, 61312, Note_on_c, 0, 79, 45
2, 61342, Note_on_c, 0, 79, 0
2, 61344, Note_on_c, 0, 78, 45
2, 61374, Note_on_c, 0, 78, 0
2, 61376, Note_on_c, 0, 76, 45
2, 61406, Note_on_c, 0, 76, 0
2, 61408, Note_on_c, 0, 74, 45
2, 61438, Note_on_c, 0, 74, 0
2, 61440, Note_on_c, 0, 72, 45
2, 61470, Note_on_c, 0, 72, 0
2, 61472, Note_on_c, 0, 71, 45
2, 61502, Note_on_c, 0, 71, 0
2, 61504, Note_on_c, 0, 69, 45
2, 61534, Note_on_c, 0, 69, 0
2, 61536, Note_on_c, 0, 67, 45
2, 61566, Note_on_c, 0, 67, 0
2, 61568, Note_on_c, 0, 66, 45
2, 61598, Note_on_c, 0, 66, 0
2, 61600, Note_on_c, 0, 69, 45
2, 61630, Note_on_c, 0, 69, 0
2, 61632, Note_on_c, 0, 72, 45
2, 61662, Note_on_c, 0, 72, 0
2, 61664, Note_on_c, 0, 69, 45
2, 61694, Note_on_c, 0, 69, 0
2, 61696, Note_on_c, 0, 66, 45
2, 61726, Note_on_c, 0, 66, 0
2, 61728, Note_on_c, 0, 69, 45
2, 61984, Note_on_c, 0, 69, 0
2, 62016, Note_on_c, 0, 67, 45
2, 62176, Note_on_c, 0, 67, 0
2, 62336, Note_on_c, 0, 76, 45
2, 62366, Note_on_c, 0, 76, 0
2, 62368, Note_on_c, 0, 78, 45
2, 62398, Note_on_c, 0, 78, 0
2, 62400, Note_on_c, 0, 80, 45
2, 62430, Note_on_c, 0, 80, 0
2, 62432, Note_on_c, 0, 81, 45
2, 62462, Note_on_c, 0, 81, 0
2, 62464, Note_on_c, 0, 82, 45
2, 62494, Note_on_c, 0, 82, 0
2, 62496, Note_on_c, 0, 83, 45
2, 62528, Note_on_c, 0, 83, 0
2, 62688, Note_on_c, 0, 88, 45
2, 62720, Note_on_c, 0, 88, 0
2, 62784, Note_on_c, 0, 88, 45
2, 62816, Note_on_c, 0, 88, 0
2, 62880, Note_on_c, 0, 88, 45
2, 62910, Note_on_c, 0, 88, 0
2, 62912, Note_on_c, 0, 86, 45
2, 62942, Note_on_c, 0, 86, 0
2, 62944, Note_on_c, 0, 85, 45
2, 62974, Note_on_c, 0, 85, 0
2, 62976, Note_on_c, 0, 85, 45
2, 63006, Note_on_c, 0, 85, 0
2, 63008, Note_on_c, 0, 83, 45
2, 63038, Note_on_c, 0, 83, 0
2, 63040, Note_on_c, 0, 82, 45
2, 63070, Note_on_c, 0, 82, 0
2, 63072, Note_on_c, 0, 81, 45
2, 63104, Note_on_c, 0, 81, 0
2, 63360, Note_on_c, 0, 81, 45
2, 63392, Note_on_c, 0, 81, 0
2, 63488, Note_on_c, 0, 74, 45
2, 63518, Note_on_c, 0, 74, 0
2, 63520, Note_on_c, 0, 76, 45
2, 63550, Note_on_c, 0, 76, 0
2, 63552, Note_on_c, 0, 78, 45
2, 63582, Note_on_c, 0, 78, 0
2, 63584, Note_on_c, 0, 79, 45
2, 63614, Note_on_c, 0, 79, 0
2, 63616, Note_on_c, 0, 80, 45
2, 63646, Note_on_c, 0, 80, 0
2, 63648, Note_on_c, 0, 81, 45
2, 63680, Note_on_c, 0, 81, 0
2, 63840, Note_on_c, 0, 86, 45
2, 63872, Note_on_c, 0, 86, 0
2, 63936, Note_on_c, 0, 86, 45
2, 63968, Note_on_c, 0, 86, 0
2, 64032, Note_on_c, 0, 86, 45
2, 64062, Note_on_c, 0, 86, 0
2, 64064, Note_on_c, 0, 85, 45
2, 64094, Note_on_c, 0, 85, 0
2, 64096, Note_on_c, 0, 84, 45
2, 64126, Note_on_c, 0, 84, 0
2, 64128, Note_on_c, 0, 83, 45
2, 64158, Note_on_c, 0, 83, 0
2, 64160, Note_on_c, 0, 82, 45
2, 64190, Note_on_c, 0, 82, 0
2, 64192, Note_on_c, 0, 81, 45
2, 64222, Note_on_c, 0, 81, 0
2, 64224, Note_on_c, 0, 79, 45
2, 64256, Note_on_c, 0, 79, 0
2, 64416, Note_on_c, 0, 79, 45
2, 64448, Note_on_c, 0, 79, 0
2, 64512, Note_on_c, 0, 79, 45
2, 64544, Note_on_c, 0, 79, 0
2, 64608, Note_on_c, 0, 79, 45
2, 64638, Note_on_c, 0, 79, 0
2, 64640, Note_on_c, 0, 78, 45
2, 64670, Note_on_c, 0, 78, 0
2, 64672, Note_on_c, 0, 76, 45
2, 64702, Note_on_c, 0, 76, 0
2, 64704, Note_on_c, 0, 74, 45
2, 64734, Note_on_c, 0, 74, 0
2, 64736, Note_on_c, 0, 73, 45
2, 64766, Note_on_c, 0, 73, 0
2, 64768, Note_on_c, 0, 71, 45
2, 64798, Note_on_c, 0, 71, 0
2, 64800, Note_on_c, 0, 69, 45
2, 64830, Note_on_c, 0, 69, 0
2, 64832, Note_on_c, 0, 67, 45
2, 64862, Note_on_c, 0, 67, 0
2, 64864, Note_on_c, 0, 66, 45
2, 64894, Note_on_c, 0, 66, 0
2, 64896, Note_on_c, 0, 64, 45
2, 64926, Note_on_c, 0, 64, 0
2, 64928, Note_on_c, 0, 62, 45
2, 64958, Note_on_c, 0, 62, 0
2, 64960, Note_on_c, 0, 61, 45
2, 64990, Note_on_c, 0, 61, 0
2, 64992, Note_on_c, 0, 67, 45
2, 65022, Note_on_c, 0, 67, 0
2, 65024, Note_on_c, 0, 64, 45
2, 65054, Note_on_c, 0, 64, 0
2, 65056, Note_on_c, 0, 61, 45
2, 65086, Note_on_c, 0, 61, 0
2, 65088, Note_on_c, 0, 67, 45
2, 65118, Note_on_c, 0, 67, 0
2, 65120, Note_on_c, 0, 64, 45
2, 65150, Note_on_c, 0, 64, 0
2, 65152, Note_on_c, 0, 61, 45
2, 65182, Note_on_c, 0, 61, 0
2, 65184, Note_on_c, 0, 64, 45
2, 65440, Note_on_c, 0, 64, 0
2, 65472, Note_on_c, 0, 66, 45
2, 65494, Note_on_c, 0, 66, 0
2, 65496, Note_on_c, 0, 64, 45
2, 65518, Note_on_c, 0, 64, 0
2, 65520, Note_on_c, 0, 62, 45
2, 65566, Note_on_c, 0, 62, 0
2, 65856, Note_on_c, 0, 74, 45
2, 65888, Note_on_c, 0, 74, 0
2, 65888, Note_on_c, 0, 76, 45
2, 65920, Note_on_c, 0, 76, 0
2, 65920, Note_on_c, 0, 73, 45
2, 65952, Note_on_c, 0, 73, 0
2, 65952, Note_on_c, 0, 74, 45
2, 65984, Note_on_c, 0, 74, 0
2, 66144, Note_on_c, 0, 74, 45
2, 66176, Note_on_c, 0, 74, 0
2, 66176, Note_on_c, 0, 76, 45
2, 66208, Note_on_c, 0, 76, 0
2, 66208, Note_on_c, 0, 73, 45
2, 66240, Note_on_c, 0, 73, 0
2, 66240, Note_on_c, 0, 74, 45
2, 66272, Note_on_c, 0, 74, 0
2, 66432, Note_on_c, 0, 86, 30
2, 66462, Note_on_c, 0, 86, 0
2, 66464, Note_on_c, 0, 88, 30
2, 66494, Note_on_c, 0, 88, 0
2, 66496, Note_on_c, 0, 85, 30
2, 66526, Note_on_c, 0, 85, 0
2, 66528, Note_on_c, 0, 86, 30
2, 66558, Note_on_c, 0, 86, 0
2, 66560, Note_on_c, 0, 88, 30
2, 66590, Note_on_c, 0, 88, 0
2, 66592, Note_on_c, 0, 85, 30
2, 66622, Note_on_c, 0, 85, 0
2, 66624, Note_on_c, 0, 86, 30
2, 66784, Note_on_c, 0, 86, 0
2, 67008, Note_on_c, 0, 79, 30
2, 67038, Note_on_c, 0, 79, 0
2, 67040, Note_on_c, 0, 81, 30
2, 67070, Note_on_c, 0, 81, 0
2, 67072, Note_on_c, 0, 78, 30
2, 67102, Note_on_c, 0, 78, 0
2, 67104, Note_on_c, 0, 79, 30
2, 67136, Note_on_c, 0, 79, 0
2, 67296, Note_on_c, 0, 79, 30
2, 67326, Note_on_c, 0, 79, 0
2, 67328, Note_on_c, 0, 81, 30
2, 67358, Note_on_c, 0, 81, 0
2, 67360, Note_on_c, 0, 78, 30
2, 67390, Note_on_c, 0, 78, 0
2, 67392, Note_on_c, 0, 79, 30
2, 67424, Note_on_c, 0, 79, 0
2, 67584, Note_on_c, 0, 79, 30
2, 67614, Note_on_c, 0, 79, 0
2, 67616, Note_on_c, 0, 81, 30
2, 67646, Note_on_c, 0, 81, 0
2, 67648, Note_on_c, 0, 78, 30
2, 67678, Note_on_c, 0, 78, 0
2, 67680, Note_on_c, 0, 79, 30
2, 67710, Note_on_c, 0, 79, 0
2, 67712, Note_on_c, 0, 81, 30
2, 67742, Note_on_c, 0, 81, 0
2, 67744, Note_on_c, 0, 78, 30
2, 67774, Note_on_c, 0, 78, 0
2, 67776, Note_on_c, 0, 79, 30
2, 67806, Note_on_c, 0, 79, 0
2, 67808, Note_on_c, 0, 81, 30
2, 67838, Note_on_c, 0, 81, 0
2, 67840, Note_on_c, 0, 78, 30
2, 67870, Note_on_c, 0, 78, 0
2, 67872, Note_on_c, 0, 79, 30
2, 67902, Note_on_c, 0, 79, 0
2, 67904, Note_on_c, 0, 81, 32
2, 67934, Note_on_c, 0, 81, 0
2, 67936, Note_on_c, 0, 78, 34
2, 67966, Note_on_c, 0, 78, 0
2, 67968, Note_on_c, 0, 79, 36
2, 67998, Note_on_c, 0, 79, 0
2, 68000, Note_on_c, 0, 81, 39
2, 68030, Note_on_c, 0, 81, 0
2, 68032, Note_on_c, 0, 78, 42
2, 68062, Note_on_c, 0, 78, 0
2, 68064, Note_on_c, 0, 79, 45
2, 68094, Note_on_c, 0, 79, 0
2, 68096, Note_on_c, 0, 78, 45
2, 68126, Note_on_c, 0, 78, 0
2, 68128, Note_on_c, 0, 76, 45
2, 68158, Note_on_c, 0, 76, 0
2, 68160, Note_on_c, 0, 74, 45
2, 68190, Note_on_c, 0, 74, 0
2, 68192, Note_on_c, 0, 72, 45
2, 68222, Note_on_c, 0, 72, 0
2, 68224, Note_on_c, 0, 71, 45
2, 68254, Note_on_c, 0, 71, 0
2, 68256, Note_on_c, 0, 69, 45
2, 68286, Note_on_c, 0, 69, 0
2, 68288, Note_on_c, 0, 67, 45
2, 68318, Note_on_c, 0, 67, 0
2, 68320, Note_on_c, 0, 66, 45
2, 68350, Note_on_c, 0, 66, 0
2, 68352, Note_on_c, 0, 64, 45
2, 68382, Note_on_c, 0, 64, 0
2, 68384, Note_on_c, 0, 62, 45
2, 68414, Note_on_c, 0, 62, 0
2, 68416, Note_on_c, 0, 61, 45
2, 68446, Note_on_c, 0, 61, 0
2, 68448, Note_on_c, 0, 62, 45
2, 68478, Note_on_c, 0, 62, 0
2, 68480, Note_on_c, 0, 66, 45
2, 68510, Note_on_c, 0, 66, 0
2, 68512, Note_on_c, 0, 69, 45
2, 68542, Note_on_c, 0, 69, 0
2, 68544, Note_on_c, 0, 72, 45
2, 68574, Note_on_c, 0, 72, 0
2, 68576, Note_on_c, 0, 69, 45
2, 68606, Note_on_c, 0, 69, 0
2, 68608, Note_on_c, 0, 66, 45
2, 68638, Note_on_c, 0, 66, 0
2, 68640, Note_on_c, 0, 69, 45
2, 68896, Note_on_c, 0, 69, 0
2, 68928, Note_on_c, 0, 67, 54
2, 69088, Note_on_c, 0, 67, 0
2, 69120, Note_on_c, 0, 74, 60
2, 69166, Note_on_c, 0, 74, 0
2, 69168, Note_on_c, 0, 62, 60
2, 69214, Note_on_c, 0, 62, 0
2, 69216, Note_on_c, 0, 71, 60
2, 69264, Note_on_c, 0, 71, 0
2, 69264, Note_on_c, 0, 62, 60
2, 69312, Note_on_c, 0, 62, 0
2, 69312, Note_on_c, 0, 72, 60
2, 69360, Note_on_c, 0, 72, 0
2, 69360, Note_on_c, 0, 62, 60
2, 69408, Note_on_c, 0, 62, 0
2, 69408, Note_on_c, 0, 71, 60
2, 69456, Note_on_c, 0, 71, 0
2, 69456, Note_on_c, 0, 62, 60
2, 69504, Note_on_c, 0, 62, 0
2, 69504, Note_on_c, 0, 69, 60
2, 69552, Note_on_c, 0, 69, 0
2, 69552, Note_on_c, 0, 60, 60
2, 69600, Note_on_c, 0, 60, 0
2, 69600, Note_on_c, 0, 71, 60
2, 69648, Note_on_c, 0, 71, 0
2, 69648, Note_on_c, 0, 60, 60
2, 69696, Note_on_c, 0, 60, 0
2, 69696, Note_on_c, 0, 69, 60
2, 69744, Note_on_c, 0, 69, 0
2, 69744, Note_on_c, 0, 60, 60
2, 69792, Note_on_c, 0, 60, 0
2, 69792, Note_on_c, 0, 67, 60
2, 69840, Note_on_c, 0, 67, 0
2, 69840, Note_on_c, 0, 59, 60
2, 69888, Note_on_c, 0, 59, 0
2, 69888, Note_on_c, 0, 66, 60
2, 69936, Note_on_c, 0, 66, 0
2, 69936, Note_on_c, 0, 59, 60
2, 69984, Note_on_c, 0, 59, 0
2, 69984, Note_on_c, 0, 67, 60
2, 70032, Note_on_c, 0, 67, 0
2, 70032, Note_on_c, 0, 59, 60
2, 70080, Note_on_c, 0, 59, 0
2, 70080, Note_on_c, 0, 62, 60
2, 70128, Note_on_c, 0, 62, 0
2, 70128, Note_on_c, 0, 59, 60
2, 70176, Note_on_c, 0, 59, 0
2, 70176, Note_on_c, 0, 67, 60
2, 70224, Note_on_c, 0, 67, 0
2, 70224, Note_on_c, 0, 59, 60
2, 70272, Note_on_c, 0, 59, 0
2, 70272, Note_on_c, 0, 71, 60
2, 70320, Note_on_c, 0, 71, 0
2, 70320, Note_on_c, 0, 59, 60
2, 70366, Note_on_c, 0, 59, 0
2, 70368, Note_on_c, 0, 74, 60
2, 70414, Note_on_c, 0, 74, 0
2, 70416, Note_on_c, 0, 62, 60
2, 70462, Note_on_c, 0, 62, 0
2, 70464, Note_on_c, 0, 73, 60
2, 70510, Note_on_c, 0, 73, 0
2, 70512, Note_on_c, 0, 62, 60
2, 70558, Note_on_c, 0, 62, 0
2, 70560, Note_on_c, 0, 74, 60
2, 70606, Note_on_c, 0, 74, 0
2, 70608, Note_on_c, 0, 62, 60
2, 70654, Note_on_c, 0, 62, 0
2, 70656, Note_on_c, 0, 76, 60
2, 70702, Note_on_c, 0, 76, 0
2, 70704, Note_on_c, 0, 64, 60
2, 70750, Note_on_c, 0, 64, 0
2, 70752, Note_on_c, 0, 75, 60
2, 70798, Note_on_c, 0, 75, 0
2, 70800, Note_on_c, 0, 64, 60
2, 70846, Note_on_c, 0, 64, 0
2, 70848, Note_on_c, 0, 76, 60
2, 70894, Note_on_c, 0, 76, 0
2, 70896, Note_on_c, 0, 64, 60
2, 70942, Note_on_c, 0, 64, 0
2, 70944, Note_on_c, 0, 69, 60
2, 70992, Note_on_c, 0, 69, 0
2, 70992, Note_on_c, 0, 62, 60
2, 71040, Note_on_c, 0, 62, 0
2, 71040, Note_on_c, 0, 68, 60
2, 71088, Note_on_c, 0, 68, 0
2, 71088, Note_on_c, 0, 62, 60
2, 71136, Note_on_c, 0, 62, 0
2, 71136, Note_on_c, 0, 69, 60
2, 71184, Note_on_c, 0, 69, 0
2, 71184, Note_on_c, 0, 62, 60
2, 71232, Note_on_c, 0, 62, 0
2, 71232, Note_on_c, 0, 69, 60
2, 71280, Note_on_c, 0, 69, 0
2, 71280, Note_on_c, 0, 62, 60
2, 71328, Note_on_c, 0, 62, 0
2, 71328, Note_on_c, 0, 69, 60
2, 71376, Note_on_c, 0, 69, 0
2, 71376, Note_on_c, 0, 62, 60
2, 71424, Note_on_c, 0, 62, 0
2, 71424, Note_on_c, 0, 69, 60
2, 71472, Note_on_c, 0, 69, 0
2, 71472, Note_on_c, 0, 62, 60
2, 71520, Note_on_c, 0, 62, 0
2, 71520, Note_on_c, 0, 71, 60
2, 71568, Note_on_c, 0, 71, 0
2, 71568, Note_on_c, 0, 62, 60
2, 71616, Note_on_c, 0, 62, 0
2, 71616, Note_on_c, 0, 70, 60
2, 71664, Note_on_c, 0, 70, 0
2, 71664, Note_on_c, 0, 62, 60
2, 71712, Note_on_c, 0, 62, 0
2, 71712, Note_on_c, 0, 71, 60
2, 71760, Note_on_c, 0, 71, 0
2, 71760, Note_on_c, 0, 62, 60
2, 71808, Note_on_c, 0, 62, 0
2, 71808, Note_on_c, 0, 72, 60
2, 71856, Note_on_c, 0, 72, 0
2, 71856, Note_on_c, 0, 62, 60
2, 71904, Note_on_c, 0, 62, 0
2, 71904, Note_on_c, 0, 71, 60
2, 71952, Note_on_c, 0, 71, 0
2, 71952, Note_on_c, 0, 62, 60
2, 72000, Note_on_c, 0, 62, 0
2, 72000, Note_on_c, 0, 72, 60
2, 72048, Note_on_c, 0, 72, 0
2, 72048, Note_on_c, 0, 62, 60
2, 72096, Note_on_c, 0, 62, 0
2, 72096, Note_on_c, 0, 74, 60
2, 72144, Note_on_c, 0, 74, 0
2, 72144, Note_on_c, 0, 62, 60
2, 72192, Note_on_c, 0, 62, 0
2, 72192, Note_on_c, 0, 73, 60
2, 72240, Note_on_c, 0, 73, 0
2, 72240, Note_on_c, 0, 62, 60
2, 72288, Note_on_c, 0, 62, 0
2, 72288, Note_on_c, 0, 74, 60
2, 72336, Note_on_c, 0, 74, 0
2, 72336, Note_on_c, 0, 62, 60
2, 72384, Note_on_c, 0, 62, 0
2, 72384, Note_on_c, 0, 76, 60
2, 72432, Note_on_c, 0, 76, 0
2, 72432, Note_on_c, 0, 64, 60
2, 72480, Note_on_c, 0, 64, 0
2, 72480, Note_on_c, 0, 75, 60
2, 72528, Note_on_c, 0, 75, 0
2, 72528, Note_on_c, 0, 64, 60
2, 72576, Note_on_c, 0, 64, 0
2, 72576, Note_on_c, 0, 76, 60
2, 72624, Note_on_c, 0, 76, 0
2, 72624, Note_on_c, 0, 64, 60
2, 72670, Note_on_c, 0, 64, 0
2, 72672, Note_on_c, 0, 76, 45
2, 72720, Note_on_c, 0, 76, 0
2, 72720, Note_on_c, 0, 62, 45
2, 72768, Note_on_c, 0, 62, 0
2, 72768, Note_on_c, 0, 67, 45
2, 72816, Note_on_c, 0, 67, 0
2, 72816, Note_on_c, 0, 62, 45
2, 72864, Note_on_c, 0, 62, 0
2, 72864, Note_on_c, 0, 67, 45
2, 72912, Note_on_c, 0, 67, 0
2, 72912, Note_on_c, 0, 62, 45
2, 72960, Note_on_c, 0, 62, 0
2, 72960, Note_on_c, 0, 67, 45
2, 73008, Note_on_c, 0, 67, 0
2, 73008, Note_on_c, 0, 62, 45
2, 73056, Note_on_c, 0, 62, 0
2, 73056, Note_on_c, 0, 71, 45
2, 73104, Note_on_c, 0, 71, 0
2, 73104, Note_on_c, 0, 62, 45
2, 73152, Note_on_c, 0, 62, 0
2, 73152, Note_on_c, 0, 69, 45
2, 73200, Note_on_c, 0, 69, 0
2, 73200, Note_on_c, 0, 62, 45
2, 73248, Note_on_c, 0, 62, 0
2, 73248, Note_on_c, 0, 67, 45
2, 73296, Note_on_c, 0, 67, 0
2, 73296, Note_on_c, 0, 62, 45
2, 73344, Note_on_c, 0, 62, 0
2, 73344, Note_on_c, 0, 61, 45
2, 73392, Note_on_c, 0, 61, 0
2, 73392, Note_on_c, 0, 62, 45
2, 73440, Note_on_c, 0, 62, 0
2, 73440, Note_on_c, 0, 61, 45
2, 73488, Note_on_c, 0, 61, 0
2, 73488, Note_on_c, 0, 62, 45
2, 73536, Note_on_c, 0, 62, 0
2, 73536, Note_on_c, 0, 61, 45
2, 73584, Note_on_c, 0, 61, 0
2, 73584, Note_on_c, 0, 62, 45
2, 73632, Note_on_c, 0, 62, 0
2, 73632, Note_on_c, 0, 61, 45
2, 73680, Note_on_c, 0, 61, 0
2, 73680, Note_on_c, 0, 62, 45
2, 73728, Note_on_c, 0, 62, 0
2, 73728, Note_on_c, 0, 74, 45
2, 73776, Note_on_c, 0, 74, 0
2, 73776, Note_on_c, 0, 62, 45
2, 73822, Note_on_c, 0, 62, 0
2, 73824, Note_on_c, 0, 74, 45
2, 73872, Note_on_c, 0, 74, 0
2, 73872, Note_on_c, 0, 64, 45
2, 73920, Note_on_c, 0, 64, 0
2, 73920, Note_on_c, 0, 77, 45
2, 73968, Note_on_c, 0, 77, 0
2, 73968, Note_on_c, 0, 64, 45
2, 74016, Note_on_c, 0, 64, 0
2, 74016, Note_on_c, 0, 76, 45
2, 74064, Note_on_c, 0, 76, 0
2, 74064, Note_on_c, 0, 64, 45
2, 74112, Note_on_c, 0, 64, 0
2, 74112, Note_on_c, 0, 74, 45
2, 74160, Note_on_c, 0, 74, 0
2, 74160, Note_on_c, 0, 64, 45
2, 74208, Note_on_c, 0, 64, 0
2, 74208, Note_on_c, 0, 72, 45
2, 74256, Note_on_c, 0, 72, 0
2, 74256, Note_on_c, 0, 64, 45
2, 74304, Note_on_c, 0, 64, 0
2, 74304, Note_on_c, 0, 71, 45
2, 74352, Note_on_c, 0, 71, 0
2, 74352, Note_on_c, 0, 64, 45
2, 74400, Note_on_c, 0, 64, 0
2, 74400, Note_on_c, 0, 74, 45
2, 74448, Note_on_c, 0, 74, 0
2, 74448, Note_on_c, 0, 64, 45
2, 74496, Note_on_c, 0, 64, 0
2, 74496, Note_on_c, 0, 72, 45
2, 74544, Note_on_c, 0, 72, 0
2, 74544, Note_on_c, 0, 64, 45
2, 74592, Note_on_c, 0, 64, 0
2, 74592, Note_on_c, 0, 72, 45
2, 74640, Note_on_c, 0, 72, 0
2, 74640, Note_on_c, 0, 64, 45
2, 74688, Note_on_c, 0, 64, 0
2, 74688, Note_on_c, 0, 72, 45
2, 74736, Note_on_c, 0, 72, 0
2, 74736, Note_on_c, 0, 64, 45
2, 74784, Note_on_c, 0, 64, 0
2, 74784, Note_on_c, 0, 71, 45
2, 74832, Note_on_c, 0, 71, 0
2, 74832, Note_on_c, 0, 64, 45
2, 74880, Note_on_c, 0, 64, 0
2, 74880, Note_on_c, 0, 72, 45
2, 74928, Note_on_c, 0, 72, 0
2, 74928, Note_on_c, 0, 64, 45
2, 74974, Note_on_c, 0, 64, 0
2, 74976, Note_on_c, 0, 72, 45
2, 75024, Note_on_c, 0, 72, 0
2, 75024, Note_on_c, 0, 66, 45
2, 75072, Note_on_c, 0, 66, 0
2, 75072, Note_on_c, 0, 76, 45
2, 75120, Note_on_c, 0, 76, 0
2, 75120, Note_on_c, 0, 66, 45
2, 75168, Note_on_c, 0, 66, 0
2, 75168, Note_on_c, 0, 74, 45
2, 75216, Note_on_c, 0, 74, 0
2, 75216, Note_on_c, 0, 66, 45
2, 75264, Note_on_c, 0, 66, 0
2, 75264, Note_on_c, 0, 72, 45
2, 75312, Note_on_c, 0, 72, 0
2, 75312, Note_on_c, 0, 66, 45
2, 75360, Note_on_c, 0, 66, 0
2, 75360, Note_on_c, 0, 71, 45
2, 75408, Note_on_c, 0, 71, 0
2, 75408, Note_on_c, 0, 66, 45
2, 75456, Note_on_c, 0, 66, 0
2, 75456, Note_on_c, 0, 69, 45
2, 75504, Note_on_c, 0, 69, 0
2, 75504, Note_on_c, 0, 66, 45
2, 75552, Note_on_c, 0, 66, 0
2, 75552, Note_on_c, 0, 72, 45
2, 75600, Note_on_c, 0, 72, 0
2, 75600, Note_on_c, 0, 67, 45
2, 75648, Note_on_c, 0, 67, 0
2, 75648, Note_on_c, 0, 71, 45
2, 75696, Note_on_c, 0, 71, 0
2, 75696, Note_on_c, 0, 67, 45
2, 75744, Note_on_c, 0, 67, 0
2, 75744, Note_on_c, 0, 71, 45
2, 75792, Note_on_c, 0, 71, 0
2, 75792, Note_on_c, 0, 67, 45
2, 75840, Note_on_c, 0, 67, 0
2, 75840, Note_on_c, 0, 71, 45
2, 75888, Note_on_c, 0, 71, 0
2, 75888, Note_on_c, 0, 67, 45
2, 75936, Note_on_c, 0, 67, 0
2, 75936, Note_on_c, 0, 70, 45
2, 75984, Note_on_c, 0, 70, 0
2, 75984, Note_on_c, 0, 67, 45
2, 76030, Note_on_c, 0, 67, 0
2, 76032, Note_on_c, 0, 71, 45
2, 76080, Note_on_c, 0, 71, 0
2, 76080, Note_on_c, 0, 67, 45
2, 76126, Note_on_c, 0, 67, 0
2, 76128, Note_on_c, 0, 73, 45
2, 76176, Note_on_c, 0, 73, 0
2, 76176, Note_on_c, 0, 67, 45
2, 76224, Note_on_c, 0, 67, 0
2, 76224, Note_on_c, 0, 79, 45
2, 76272, Note_on_c, 0, 79, 0
2, 76272, Note_on_c, 0, 67, 45
2, 76320, Note_on_c, 0, 67, 0
2, 76320, Note_on_c, 0, 78, 45
2, 76368, Note_on_c, 0, 78, 0
2, 76368, Note_on_c, 0, 67, 45
2, 76416, Note_on_c, 0, 67, 0
2, 76416, Note_on_c, 0, 76, 45
2, 76464, Note_on_c, 0, 76, 0
2, 76464, Note_on_c, 0, 67, 45
2, 76512, Note_on_c, 0, 67, 0
2, 76512, Note_on_c, 0, 74, 46
2, 76560, Note_on_c, 0, 74, 0
2, 76560, Note_on_c, 0, 67, 47
2, 76608, Note_on_c, 0, 67, 0
2, 76608, Note_on_c, 0, 73, 48
2, 76656, Note_on_c, 0, 73, 0
2, 76656, Note_on_c, 0, 67, 49
2, 76702, Note_on_c, 0, 67, 0
2, 76704, Note_on_c, 0, 66, 50
2, 76704, Note_on_c, 0, 74, 50
2, 76960, Note_on_c, 0, 66, 0
2, 76960, Note_on_c, 0, 74, 0
2, 77184, Note_on_c, 0, 74, 60
2, 77232, Note_on_c, 0, 74, 0
2, 77232, Note_on_c, 0, 62, 60
2, 77280, Note_on_c, 0, 62, 0
2, 77280, Note_on_c, 0, 69, 60
2, 77280, Note_on_c, 0, 72, 60
2, 77314, Note_on_c, 0, 69, 0
2, 77314, Note_on_c, 0, 72, 0
2, 77328, Note_on_c, 0, 62, 60
2, 77376, Note_on_c, 0, 62, 0
2, 77376, Note_on_c, 0, 61, 60
2, 77424, Note_on_c, 0, 61, 0
2, 77424, Note_on_c, 0, 62, 60
2, 77472, Note_on_c, 0, 62, 0
2, 77472, Note_on_c, 0, 69, 60
2, 77472, Note_on_c, 0, 73, 60
2, 77506, Note_on_c, 0, 69, 0
2, 77506, Note_on_c, 0, 73, 0
2, 77520, Note_on_c, 0, 62, 60
2, 77554, Note_on_c, 0, 62, 0
2, 77568, Note_on_c, 0, 67, 60
2, 77568, Note_on_c, 0, 71, 60
2, 77602, Note_on_c, 0, 67, 0
2, 77602, Note_on_c, 0, 71, 0
2, 77616, Note_on_c, 0, 62, 60
2, 77664, Note_on_c, 0, 62, 0
2, 77664, Note_on_c, 0, 61, 60
2, 77712, Note_on_c, 0, 61, 0
2, 77712, Note_on_c, 0, 62, 60
2, 77760, Note_on_c, 0, 62, 0
2, 77760, Note_on_c, 0, 67, 60
2, 77760, Note_on_c, 0, 71, 60
2, 77794, Note_on_c, 0, 67, 0
2, 77794, Note_on_c, 0, 71, 0
2, 77808, Note_on_c, 0, 62, 60
2, 77854, Note_on_c, 0, 62, 0
2, 77856, Note_on_c, 0, 66, 60
2, 77856, Note_on_c, 0, 69, 60
2, 77890, Note_on_c, 0, 66, 0
2, 77890, Note_on_c, 0, 69, 0
2, 77904, Note_on_c, 0, 62, 60
2, 77952, Note_on_c, 0, 62, 0
2, 77952, Note_on_c, 0, 61, 60
2, 78000, Note_on_c, 0, 61, 0
2, 78000, Note_on_c, 0, 62, 60
2, 78048, Note_on_c, 0, 62, 0
2, 78048, Note_on_c, 0, 61, 60
2, 78096, Note_on_c, 0, 61, 0
2, 78096, Note_on_c, 0, 62, 60
2, 78144, Note_on_c, 0, 62, 0
2, 78144, Note_on_c, 0, 66, 60
2, 78192, Note_on_c, 0, 66, 0
2, 78192, Note_on_c, 0, 62, 60
2, 78240, Note_on_c, 0, 62, 0
2, 78240, Note_on_c, 0, 67, 60
2, 78288, Note_on_c, 0, 67, 0
2, 78288, Note_on_c, 0, 62, 60
2, 78336, Note_on_c, 0, 62, 0
2, 78336, Note_on_c, 0, 66, 60
2, 78336, Note_on_c, 0, 69, 60
2, 78384, Note_on_c, 0, 66, 0
2, 78384, Note_on_c, 0, 69, 0
2, 78384, Note_on_c, 0, 62, 60
2, 78432, Note_on_c, 0, 62, 0
2, 78432, Note_on_c, 0, 71, 60
2, 78480, Note_on_c, 0, 71, 0
2, 78480, Note_on_c, 0, 62, 60
2, 78528, Note_on_c, 0, 62, 0
2, 78528, Note_on_c, 0, 70, 60
2, 78576, Note_on_c, 0, 70, 0
2, 78576, Note_on_c, 0, 62, 60
2, 78624, Note_on_c, 0, 62, 0
2, 78624, Note_on_c, 0, 71, 60
2, 78672, Note_on_c, 0, 71, 0
2, 78672, Note_on_c, 0, 62, 60
2, 78720, Note_on_c, 0, 62, 0
2, 78720, Note_on_c, 0, 72, 60
2, 78768, Note_on_c, 0, 72, 0
2, 78768, Note_on_c, 0, 62, 60
2, 78816, Note_on_c, 0, 62, 0
2, 78816, Note_on_c, 0, 71, 60
2, 78864, Note_on_c, 0, 71, 0
2, 78864, Note_on_c, 0, 62, 60
2, 78912, Note_on_c, 0, 62, 0
2, 78912, Note_on_c, 0, 72, 60
2, 78960, Note_on_c, 0, 72, 0
2, 78960, Note_on_c, 0, 62, 60
2, 79008, Note_on_c, 0, 62, 0
2, 79008, Note_on_c, 0, 74, 60
2, 79056, Note_on_c, 0, 74, 0
2, 79056, Note_on_c, 0, 62, 60
2, 79104, Note_on_c, 0, 62, 0
2, 79104, Note_on_c, 0, 73, 60
2, 79152, Note_on_c, 0, 73, 0
2, 79152, Note_on_c, 0, 62, 60
2, 79200, Note_on_c, 0, 62, 0
2, 79200, Note_on_c, 0, 74, 60
2, 79248, Note_on_c, 0, 74, 0
2, 79248, Note_on_c, 0, 62, 60
2, 79296, Note_on_c, 0, 62, 0
2, 79296, Note_on_c, 0, 76, 60
2, 79344, Note_on_c, 0, 76, 0
2, 79344, Note_on_c, 0, 64, 60
2, 79392, Note_on_c, 0, 64, 0
2, 79392, Note_on_c, 0, 75, 60
2, 79440, Note_on_c, 0, 75, 0
2, 79440, Note_on_c, 0, 64, 60
2, 79488, Note_on_c, 0, 64, 0
2, 79488, Note_on_c, 0, 76, 60
2, 79536, Note_on_c, 0, 76, 0
2, 79536, Note_on_c, 0, 64, 60
2, 79582, Note_on_c, 0, 64, 0
2, 79584, Note_on_c, 0, 76, 84
2, 79630, Note_on_c, 0, 76, 0
2, 79632, Note_on_c, 0, 62, 84
2, 79678, Note_on_c, 0, 62, 0
2, 79680, Note_on_c, 0, 67, 60
2, 79726, Note_on_c, 0, 67, 0
2, 79728, Note_on_c, 0, 62, 60
2, 79774, Note_on_c, 0, 62, 0
2, 79776, Note_on_c, 0, 67, 60
2, 79822, Note_on_c, 0, 67, 0
2, 79824, Note_on_c, 0, 62, 60
2, 79870, Note_on_c, 0, 62, 0
2, 79872, Note_on_c, 0, 67, 60
2, 79918, Note_on_c, 0, 67, 0
2, 79920, Note_on_c, 0, 62, 60
2, 79966, Note_on_c, 0, 62, 0
2, 79968, Note_on_c, 0, 71, 60
2, 80014, Note_on_c, 0, 71, 0
2, 80016, Note_on_c, 0, 62, 60
2, 80062, Note_on_c, 0, 62, 0
2, 80064, Note_on_c, 0, 69, 60
2, 80110, Note_on_c, 0, 69, 0
2, 80112, Note_on_c, 0, 62, 60
2, 80158, Note_on_c, 0, 62, 0
2, 80160, Note_on_c, 0, 67, 60
2, 80206, Note_on_c, 0, 67, 0
2, 80208, Note_on_c, 0, 62, 60
2, 80254, Note_on_c, 0, 62, 0
2, 80256, Note_on_c, 0, 59, 60
2, 80302, Note_on_c, 0, 59, 0
2, 80304, Note_on_c, 0, 62, 60
2, 80350, Note_on_c, 0, 62, 0
2, 80352, Note_on_c, 0, 59, 60
2, 80398, Note_on_c, 0, 59, 0
2, 80400, Note_on_c, 0, 55, 60
2, 80446, Note_on_c, 0, 55, 0
2, 80448, Note_on_c, 0, 54, 60
2, 80494, Note_on_c, 0, 54, 0
2, 80496, Note_on_c, 0, 57, 60
2, 80542, Note_on_c, 0, 57, 0
2, 80544, Note_on_c, 0, 62, 60
2, 80590, Note_on_c, 0, 62, 0
2, 80592, Note_on_c, 0, 57, 60
2, 80638, Note_on_c, 0, 57, 0
2, 80640, Note_on_c, 0, 54, 60
2, 80686, Note_on_c, 0, 54, 0
2, 80688, Note_on_c, 0, 57, 60
2, 80734, Note_on_c, 0, 57, 0
2, 80736, Note_on_c, 0, 55, 60
2, 80782, Note_on_c, 0, 55, 0
2, 80784, Note_on_c, 0, 59, 60
2, 80830, Note_on_c, 0, 59, 0
2, 80832, Note_on_c, 0, 62, 60
2, 80878, Note_on_c, 0, 62, 0
2, 80880, Note_on_c, 0, 59, 60
2, 80926, Note_on_c, 0, 59, 0
2, 80928, Note_on_c, 0, 55, 60
2, 80974, Note_on_c, 0, 55, 0
2, 80976, Note_on_c, 0, 59, 60
2, 81022, Note_on_c, 0, 59, 0
2, 81024, Note_on_c, 0, 54, 60
2, 81070, Note_on_c, 0, 54, 0
2, 81072, Note_on_c, 0, 60, 60
2, 81118, Note_on_c, 0, 60, 0
2, 81120, Note_on_c, 0, 62, 60
2, 81166, Note_on_c, 0, 62, 0
2, 81168, Note_on_c, 0, 60, 60
2, 81214, Note_on_c, 0, 60, 0
2, 81216, Note_on_c, 0, 54, 60
2, 81262, Note_on_c, 0, 54, 0
2, 81264, Note_on_c, 0, 60, 60
2, 81310, Note_on_c, 0, 60, 0
2, 81312, Note_on_c, 0, 55, 60
2, 81358, Note_on_c, 0, 55, 0
2, 81360, Note_on_c, 0, 59, 60
2, 81406, Note_on_c, 0, 59, 0
2, 81408, Note_on_c, 0, 62, 60
2, 81454, Note_on_c, 0, 62, 0
2, 81456, Note_on_c, 0, 59, 60
2, 81502, Note_on_c, 0, 59, 0
2, 81504, Note_on_c, 0, 55, 60
2, 81550, Note_on_c, 0, 55, 0
2, 81552, Note_on_c, 0, 59, 60
2, 81598, Note_on_c, 0, 59, 0
2, 81600, Note_on_c, 0, 54, 60
2, 81646, Note_on_c, 0, 54, 0
2, 81648, Note_on_c, 0, 57, 60
2, 81694, Note_on_c, 0, 57, 0
2, 81696, Note_on_c, 0, 62, 60
2, 81742, Note_on_c, 0, 62, 0
2, 81744, Note_on_c, 0, 57, 60
2, 81790, Note_on_c, 0, 57, 0
2, 81792, Note_on_c, 0, 86, 60
2, 81888, Note_on_c, 0, 86, 0
2, 81888, Note_on_c, 0, 83, 60
2, 82048, Note_on_c, 0, 83, 0
2, 82080, Note_on_c, 0, 83, 60
2, 82176, Note_on_c, 0, 83, 0
2, 82176, Note_on_c, 0, 81, 60
2, 82336, Note_on_c, 0, 81, 0
2, 82368, Note_on_c, 0, 81, 60
2, 82464, Note_on_c, 0, 81, 0
2, 82464, Note_on_c, 0, 79, 60
2, 82624, Note_on_c, 0, 79, 0
2, 83040, Note_on_c, 0, 55, 60
2, 83086, Note_on_c, 0, 55, 0
2, 83088, Note_on_c, 0, 59, 60
2, 83134, Note_on_c, 0, 59, 0
2, 83136, Note_on_c, 0, 62, 60
2, 83182, Note_on_c, 0, 62, 0
2, 83184, Note_on_c, 0, 59, 60
2, 83230, Note_on_c, 0, 59, 0
2, 83232, Note_on_c, 0, 55, 60
2, 83278, Note_on_c, 0, 55, 0
2, 83280, Note_on_c, 0, 59, 60
2, 83326, Note_on_c, 0, 59, 0
2, 83328, Note_on_c, 0, 54, 60
2, 83374, Note_on_c, 0, 54, 0
2, 83376, Note_on_c, 0, 60, 60
2, 83422, Note_on_c, 0, 60, 0
2, 83424, Note_on_c, 0, 62, 60
2, 83470, Note_on_c, 0, 62, 0
2, 83472, Note_on_c, 0, 60, 60
2, 83518, Note_on_c, 0, 60, 0
2, 83520, Note_on_c, 0, 54, 60
2, 83566, Note_on_c, 0, 54, 0
2, 83568, Note_on_c, 0, 60, 60
2, 83614, Note_on_c, 0, 60, 0
2, 83616, Note_on_c, 0, 55, 60
2, 83662, Note_on_c, 0, 55, 0
2, 83664, Note_on_c, 0, 59, 60
2, 83710, Note_on_c, 0, 59, 0
2, 83712, Note_on_c, 0, 62, 60
2, 83758, Note_on_c, 0, 62, 0
2, 83760, Note_on_c, 0, 59, 60
2, 83806, Note_on_c, 0, 59, 0
2, 83808, Note_on_c, 0, 55, 60
2, 83854, Note_on_c, 0, 55, 0
2, 83856, Note_on_c, 0, 59, 60
2, 83902, Note_on_c, 0, 59, 0
2, 83904, Note_on_c, 0, 54, 60
2, 83950, Note_on_c, 0, 54, 0
2, 83952, Note_on_c, 0, 57, 60
2, 83998, Note_on_c, 0, 57, 0
2, 84000, Note_on_c, 0, 85, 60
2, 84046, Note_on_c, 0, 85, 0
2, 84048, Note_on_c, 0, 86, 60
2, 84094, Note_on_c, 0, 86, 0
2, 84096, Note_on_c, 0, 85, 60
2, 84142, Note_on_c, 0, 85, 0
2, 84144, Note_on_c, 0, 86, 60
2, 84190, Note_on_c, 0, 86, 0
2, 84192, Note_on_c, 0, 83, 60
2, 84286, Note_on_c, 0, 83, 0
2, 84288, Note_on_c, 0, 85, 60
2, 84334, Note_on_c, 0, 85, 0
2, 84336, Note_on_c, 0, 86, 60
2, 84382, Note_on_c, 0, 86, 0
2, 84384, Note_on_c, 0, 85, 60
2, 84430, Note_on_c, 0, 85, 0
2, 84432, Note_on_c, 0, 86, 60
2, 84478, Note_on_c, 0, 86, 0
2, 84480, Note_on_c, 0, 81, 60
2, 84574, Note_on_c, 0, 81, 0
2, 84576, Note_on_c, 0, 85, 60
2, 84622, Note_on_c, 0, 85, 0
2, 84624, Note_on_c, 0, 86, 60
2, 84670, Note_on_c, 0, 86, 0
2, 84672, Note_on_c, 0, 85, 60
2, 84718, Note_on_c, 0, 85, 0
2, 84720, Note_on_c, 0, 86, 60
2, 84766, Note_on_c, 0, 86, 0
2, 84768, Note_on_c, 0, 80, 60
2, 84928, Note_on_c, 0, 80, 0
2, 85344, Note_on_c, 0, 59, 60
2, 85392, Note_on_c, 0, 59, 0
2, 85392, Note_on_c, 0, 62, 60
2, 85440, Note_on_c, 0, 62, 0
2, 85440, Note_on_c, 0, 64, 60
2, 85488, Note_on_c, 0, 64, 0
2, 85488, Note_on_c, 0, 62, 60
2, 85536, Note_on_c, 0, 62, 0
2, 85536, Note_on_c, 0, 59, 60
2, 85584, Note_on_c, 0, 59, 0
2, 85584, Note_on_c, 0, 62, 60
2, 85632, Note_on_c, 0, 62, 0
2, 85632, Note_on_c, 0, 59, 60
2, 85680, Note_on_c, 0, 59, 0
2, 85680, Note_on_c, 0, 64, 60
2, 85728, Note_on_c, 0, 64, 0
2, 85728, Note_on_c, 0, 68, 60
2, 85776, Note_on_c, 0, 68, 0
2, 85776, Note_on_c, 0, 64, 60
2, 85824, Note_on_c, 0, 64, 0
2, 85824, Note_on_c, 0, 59, 60
2, 85872, Note_on_c, 0, 59, 0
2, 85872, Note_on_c, 0, 64, 60
2, 85920, Note_on_c, 0, 64, 0
2, 85920, Note_on_c, 0, 57, 60
2, 85968, Note_on_c, 0, 57, 0
2, 85968, Note_on_c, 0, 64, 60
2, 86016, Note_on_c, 0, 64, 0
2, 86016, Note_on_c, 0, 69, 60
2, 86064, Note_on_c, 0, 69, 0
2, 86064, Note_on_c, 0, 64, 60
2, 86112, Note_on_c, 0, 64, 0
2, 86112, Note_on_c, 0, 57, 60
2, 86160, Note_on_c, 0, 57, 0
2, 86160, Note_on_c, 0, 64, 60
2, 86208, Note_on_c, 0, 64, 0
2, 86208, Note_on_c, 0, 64, 60
2, 86256, Note_on_c, 0, 64, 0
2, 86256, Note_on_c, 0, 67, 60
2, 86304, Note_on_c, 0, 67, 0
2, 86304, Note_on_c, 0, 70, 60
2, 86352, Note_on_c, 0, 70, 0
2, 86352, Note_on_c, 0, 67, 60
2, 86400, Note_on_c, 0, 67, 0
2, 86400, Note_on_c, 0, 64, 60
2, 86448, Note_on_c, 0, 64, 0
2, 86448, Note_on_c, 0, 67, 60
2, 86494, Note_on_c, 0, 67, 0
2, 86496, Note_on_c, 0, 62, 60
2, 86542, Note_on_c, 0, 62, 0
2, 86544, Note_on_c, 0, 67, 60
2, 86590, Note_on_c, 0, 67, 0
2, 86592, Note_on_c, 0, 71, 60
2, 86638, Note_on_c, 0, 71, 0
2, 86640, Note_on_c, 0, 67, 60
2, 86686, Note_on_c, 0, 67, 0
2, 86688, Note_on_c, 0, 62, 60
2, 86734, Note_on_c, 0, 62, 0
2, 86736, Note_on_c, 0, 67, 60
2, 86782, Note_on_c, 0, 67, 0
2, 86784, Note_on_c, 0, 62, 60
2, 86830, Note_on_c, 0, 62, 0
2, 86832, Note_on_c, 0, 66, 60
2, 86878, Note_on_c, 0, 66, 0
2, 86880, Note_on_c, 0, 72, 60
2, 86926, Note_on_c, 0, 72, 0
2, 86928, Note_on_c, 0, 66, 60
2, 86974, Note_on_c, 0, 66, 0
2, 86976, Note_on_c, 0, 62, 60
2, 87022, Note_on_c, 0, 62, 0
2, 87024, Note_on_c, 0, 66, 60
2, 87070, Note_on_c, 0, 66, 0
2, 87072, Note_on_c, 0, 62, 60
2, 87072, Note_on_c, 0, 67, 60
2, 87072, Note_on_c, 0, 71, 60
2, 87232, Note_on_c, 0, 62, 0
2, 87232, Note_on_c, 0, 67, 0
2, 87232, Note_on_c, 0, 71, 0
2, 87552, Note_on_c, 0, 74, 60
2, 87552, Note_on_c, 0, 86, 60
2, 87648, Note_on_c, 0, 74, 0
2, 87648, Note_on_c, 0, 86, 0
2, 87648, Note_on_c, 0, 68, 60
2, 87648, Note_on_c, 0, 80, 60
2, 87808, Note_on_c, 0, 68, 0
2, 87808, Note_on_c, 0, 80, 0
2, 87840, Note_on_c, 0, 68, 60
2, 87840, Note_on_c, 0, 80, 60
2, 87936, Note_on_c, 0, 68, 0
2, 87936, Note_on_c, 0, 80, 0
2, 87936, Note_on_c, 0, 76, 60
2, 87936, Note_on_c, 0, 88, 60
2, 88096, Note_on_c, 0, 76, 0
2, 88096, Note_on_c, 0, 88, 0
2, 88128, Note_on_c, 0, 76, 60
2, 88128, Note_on_c, 0, 88, 60
2, 88224, Note_on_c, 0, 76, 0
2, 88224, Note_on_c, 0, 88, 0
2, 88224, Note_on_c, 0, 69, 60
2, 88224, Note_on_c, 0, 81, 60
2, 88480, Note_on_c, 0, 69, 0
2, 88480, Note_on_c, 0, 81, 0
2, 88512, Note_on_c, 0, 70, 60
2, 88512, Note_on_c, 0, 82, 60
2, 88800, Note_on_c, 0, 70, 0
2, 88800, Note_on_c, 0, 82, 0
2, 88800, Note_on_c, 0, 71, 60
2, 88800, Note_on_c, 0, 83, 60
2, 89056, Note_on_c, 0, 71, 0
2, 89056, Note_on_c, 0, 83, 0
2, 89088, Note_on_c, 0, 72, 84
2, 89088, Note_on_c, 0, 84, 84
2, 89280, Note_on_c, 0, 72, 0
2, 89280, Note_on_c, 0, 84, 0
2, 89280, Note_on_c, 0, 69, 63
2, 89280, Note_on_c, 0, 81, 63
2, 89374, Note_on_c, 0, 69, 0
2, 89374, Note_on_c, 0, 81, 0
2, 89376, Note_on_c, 0, 67, 65
2, 89376, Note_on_c, 0, 79, 65
2, 89536, Note_on_c, 0, 67, 0
2, 89536, Note_on_c, 0, 79, 0
2, 89856, Note_on_c, 0, 67, 75
2, 89950, Note_on_c, 0, 67, 0
2, 89952, Note_on_c, 0, 64, 75
2, 90144, Note_on_c, 0, 64, 0
2, 90144, Note_on_c, 0, 67, 105
2, 90176, Note_on_c, 0, 67, 0
2, 90240, Note_on_c, 0, 62, 75
2, 90432, Note_on_c, 0, 62, 0
2, 90432, Note_on_c, 0, 67, 105
2, 90464, Note_on_c, 0, 67, 0
2, 90528, Note_on_c, 0, 60, 75
2, 90576, Note_on_c, 0, 60, 0
2, 91008, Note_on_c, 0, 74, 75
2, 91040, Note_on_c, 0, 74, 0
2, 91104, Note_on_c, 0, 71, 75
2, 91296, Note_on_c, 0, 71, 0
2, 91296, Note_on_c, 0, 74, 105
2, 91328, Note_on_c, 0, 74, 0
2, 91392, Note_on_c, 0, 69, 75
2, 91584, Note_on_c, 0, 69, 0
2, 91584, Note_on_c, 0, 74, 105
2, 91616, Note_on_c, 0, 74, 0
2, 91680, Note_on_c, 0, 67, 75
2, 91840, Note_on_c, 0, 67, 0
2, 92064, Note_on_c, 0, 81, 60
2, 92112, Note_on_c, 0, 81, 0
2, 92112, Note_on_c, 0, 79, 60
2, 92160, Note_on_c, 0, 79, 0
2, 92160, Note_on_c, 0, 81, 60
2, 92208, Note_on_c, 0, 81, 0
2, 92208, Note_on_c, 0, 79, 60
2, 92256, Note_on_c, 0, 79, 0
2, 92256, Note_on_c, 0, 76, 60
2, 92288, Note_on_c, 0, 76, 0
2, 92352, Note_on_c, 0, 81, 60
2, 92400, Note_on_c, 0, 81, 0
2, 92400, Note_on_c, 0, 79, 60
2, 92448, Note_on_c, 0, 79, 0
2, 92448, Note_on_c, 0, 81, 60
2, 92496, Note_on_c, 0, 81, 0
2, 92496, Note_on_c, 0, 79, 60
2, 92544, Note_on_c, 0, 79, 0
2, 92544, Note_on_c, 0, 74, 60
2, 92576, Note_on_c, 0, 74, 0
2, 92640, Note_on_c, 0, 81, 60
2, 92688, Note_on_c, 0, 81, 0
2, 92688, Note_on_c, 0, 79, 60
2, 92736, Note_on_c, 0, 79, 0
2, 92736, Note_on_c, 0, 81, 60
2, 92784, Note_on_c, 0, 81, 0
2, 92784, Note_on_c, 0, 79, 60
2, 92832, Note_on_c, 0, 79, 0
2, 92832, Note_on_c, 0, 72, 60
2, 92992, Note_on_c, 0, 72, 0
2, 93216, Note_on_c, 0, 88, 60
2, 93264, Note_on_c, 0, 88, 0
2, 93264, Note_on_c, 0, 86, 60
2, 93312, Note_on_c, 0, 86, 0
2, 93312, Note_on_c, 0, 88, 60
2, 93360, Note_on_c, 0, 88, 0
2, 93360, Note_on_c, 0, 86, 60
2, 93408, Note_on_c, 0, 86, 0
2, 93408, Note_on_c, 0, 79, 60
2, 93440, Note_on_c, 0, 79, 0
2, 93504, Note_on_c, 0, 88, 60
2, 93552, Note_on_c, 0, 88, 0
2, 93552, Note_on_c, 0, 86, 60
2, 93600, Note_on_c, 0, 86, 0
2, 93600, Note_on_c, 0, 88, 60
2, 93648, Note_on_c, 0, 88, 0
2, 93648, Note_on_c, 0, 86, 60
2, 93696, Note_on_c, 0, 86, 0
2, 93696, Note_on_c, 0, 81, 60
2, 93728, Note_on_c, 0, 81, 0
2, 93792, Note_on_c, 0, 88, 60
2, 93840, Note_on_c, 0, 88, 0
2, 93840, Note_on_c, 0, 86, 60
2, 93888, Note_on_c, 0, 86, 0
2, 93888, Note_on_c, 0, 88, 60
2, 93936, Note_on_c, 0, 88, 0
2, 93936, Note_on_c, 0, 86, 60
2, 93984, Note_on_c, 0, 86, 0
2, 93984, Note_on_c, 0, 79, 60
2, 94144, Note_on_c, 0, 79, 0
2, 94368, Note_on_c, 0, 76, 60
2, 94416, Note_on_c, 0, 76, 0
2, 94416, Note_on_c, 0, 74, 60
2, 94464, Note_on_c, 0, 74, 0
2, 94464, Note_on_c, 0, 76, 60
2, 94512, Note_on_c, 0, 76, 0
2, 94512, Note_on_c, 0, 74, 60
2, 94560, Note_on_c, 0, 74, 0
2, 94560, Note_on_c, 0, 67, 60
2, 94720, Note_on_c, 0, 67, 0
2, 94944, Note_on_c, 0, 64, 60
2, 94992, Note_on_c, 0, 64, 0
2, 94992, Note_on_c, 0, 62, 60
2, 95040, Note_on_c, 0, 62, 0
2, 95040, Note_on_c, 0, 64, 60
2, 95088, Note_on_c, 0, 64, 0
2, 95088, Note_on_c, 0, 62, 60
2, 95136, Note_on_c, 0, 62, 0
2, 95136, Note_on_c, 0, 59, 60
2, 95296, Note_on_c, 0, 59, 0
2, 95424, Note_on_c, 0, 59, 60
2, 95424, Note_on_c, 0, 67, 60
2, 95584, Note_on_c, 0, 59, 0
2, 95584, Note_on_c, 0, 67, 0
2, 95712, Note_on_c, 0, 59, 60
2, 95712, Note_on_c, 0, 67, 60
2, 95872, Note_on_c, 0, 59, 0
2, 95872, Note_on_c, 0, 67, 0
2, 95872, End_track
3, 0, Start_track
3, 0, MIDI_port, 0
3, 0, Title_t, "Reginald Steven Ritchie"
3, 0, Program_c, 1, 0
3, 0, Control_c, 1, 7, 127
3, 0, Control_c, 1, 10, 9
3, 0, Program_c, 1, 0
3, 0, Control_c, 1, 7, 127
3, 0, Control_c, 1, 10, 9
3, 0, Control_c, 1, 91, 87
3, 0, Control_c, 1, 93, 86
3, 96, Note_on_c, 1, 55, 30
3, 192, Note_on_c, 1, 55, 0
3, 192, Note_on_c, 1, 59, 30
3, 288, Note_on_c, 1, 59, 0
3, 288, Note_on_c, 1, 62, 30
3, 384, Note_on_c, 1, 62, 0
3, 384, Note_on_c, 1, 50, 30
3, 480, Note_on_c, 1, 50, 0
3, 480, Note_on_c, 1, 54, 30
3, 576, Note_on_c, 1, 54, 0
3, 576, Note_on_c, 1, 60, 30
3, 672, Note_on_c, 1, 60, 0
3, 672, Note_on_c, 1, 55, 30
3, 768, Note_on_c, 1, 55, 0
3, 768, Note_on_c, 1, 59, 30
3, 864, Note_on_c, 1, 59, 0
3, 864, Note_on_c, 1, 62, 30
3, 960, Note_on_c, 1, 62, 0
3, 960, Note_on_c, 1, 59, 30
3, 1056, Note_on_c, 1, 59, 0
3, 1056, Note_on_c, 1, 55, 30
3, 1152, Note_on_c, 1, 55, 0
3, 1152, Note_on_c, 1, 50, 30
3, 1248, Note_on_c, 1, 50, 0
3, 1248, Note_on_c, 1, 47, 30
3, 1344, Note_on_c, 1, 47, 0
3, 1344, Note_on_c, 1, 50, 30
3, 1440, Note_on_c, 1, 50, 0
3, 1440, Note_on_c, 1, 55, 30
3, 1536, Note_on_c, 1, 55, 0
3, 1536, Note_on_c, 1, 48, 30
3, 1632, Note_on_c, 1, 48, 0
3, 1632, Note_on_c, 1, 52, 30
3, 1728, Note_on_c, 1, 52, 0
3, 1728, Note_on_c, 1, 57, 30
3, 1824, Note_on_c, 1, 57, 0
3, 1824, Note_on_c, 1, 50, 30
3, 1920, Note_on_c, 1, 50, 0
3, 1920, Note_on_c, 1, 54, 30
3, 2016, Note_on_c, 1, 54, 0
3, 2016, Note_on_c, 1, 57, 30
3, 2112, Note_on_c, 1, 57, 0
3, 2112, Note_on_c, 1, 50, 30
3, 2208, Note_on_c, 1, 50, 0
3, 2208, Note_on_c, 1, 54, 30
3, 2304, Note_on_c, 1, 54, 0
3, 2304, Note_on_c, 1, 57, 30
3, 2400, Note_on_c, 1, 57, 0
3, 2400, Note_on_c, 1, 55, 30
3, 2494, Note_on_c, 1, 55, 0
3, 2496, Note_on_c, 1, 59, 30
3, 2590, Note_on_c, 1, 59, 0
3, 2592, Note_on_c, 1, 62, 30
3, 2686, Note_on_c, 1, 62, 0
3, 2688, Note_on_c, 1, 55, 30
3, 2782, Note_on_c, 1, 55, 0
3, 2784, Note_on_c, 1, 57, 30
3, 2878, Note_on_c, 1, 57, 0
3, 2880, Note_on_c, 1, 60, 30
3, 2974, Note_on_c, 1, 60, 0
3, 2976, Note_on_c, 1, 55, 30
3, 3070, Note_on_c, 1, 55, 0
3, 3072, Note_on_c, 1, 59, 30
3, 3166, Note_on_c, 1, 59, 0
3, 3168, Note_on_c, 1, 62, 30
3, 3262, Note_on_c, 1, 62, 0
3, 3264, Note_on_c, 1, 48, 30
3, 3358, Note_on_c, 1, 48, 0
3, 3360, Note_on_c, 1, 52, 30
3, 3454, Note_on_c, 1, 52, 0
3, 3456, Note_on_c, 1, 57, 30
3, 3550, Note_on_c, 1, 57, 0
3, 3552, Note_on_c, 1, 50, 30
3, 3646, Note_on_c, 1, 50, 0
3, 3648, Note_on_c, 1, 55, 30
3, 3742, Note_on_c, 1, 55, 0
3, 3744, Note_on_c, 1, 59, 30
3, 3838, Note_on_c, 1, 59, 0
3, 3840, Note_on_c, 1, 50, 30
3, 3934, Note_on_c, 1, 50, 0
3, 3936, Note_on_c, 1, 54, 30
3, 4030, Note_on_c, 1, 54, 0
3, 4032, Note_on_c, 1, 60, 30
3, 4126, Note_on_c, 1, 60, 0
3, 4128, Note_on_c, 1, 55, 30
3, 4222, Note_on_c, 1, 55, 0
3, 4224, Note_on_c, 1, 59, 30
3, 4318, Note_on_c, 1, 59, 0
3, 4320, Note_on_c, 1, 62, 30
3, 4414, Note_on_c, 1, 62, 0
3, 4416, Note_on_c, 1, 55, 30
3, 4576, Note_on_c, 1, 55, 0
3, 4704, Note_on_c, 1, 52, 30
3, 4800, Note_on_c, 1, 52, 0
3, 4800, Note_on_c, 1, 59, 30
3, 4896, Note_on_c, 1, 59, 0
3, 4896, Note_on_c, 1, 62, 30
3, 4992, Note_on_c, 1, 62, 0
3, 4992, Note_on_c, 1, 52, 30
3, 5088, Note_on_c, 1, 52, 0
3, 5088, Note_on_c, 1, 59, 30
3, 5184, Note_on_c, 1, 59, 0
3, 5184, Note_on_c, 1, 62, 30
3, 5280, Note_on_c, 1, 62, 0
3, 5280, Note_on_c, 1, 52, 30
3, 5376, Note_on_c, 1, 52, 0
3, 5376, Note_on_c, 1, 57, 30
3, 5472, Note_on_c, 1, 57, 0
3, 5472, Note_on_c, 1, 60, 30
3, 5568, Note_on_c, 1, 60, 0
3, 5568, Note_on_c, 1, 52, 30
3, 5664, Note_on_c, 1, 52, 0
3, 5664, Note_on_c, 1, 57, 30
3, 5760, Note_on_c, 1, 57, 0
3, 5760, Note_on_c, 1, 60, 30
3, 5856, Note_on_c, 1, 60, 0
3, 5856, Note_on_c, 1, 50, 30
3, 5952, Note_on_c, 1, 50, 0
3, 5952, Note_on_c, 1, 57, 30
3, 6048, Note_on_c, 1, 57, 0
3, 6048, Note_on_c, 1, 60, 30
3, 6144, Note_on_c, 1, 60, 0
3, 6144, Note_on_c, 1, 50, 30
3, 6240, Note_on_c, 1, 50, 0
3, 6240, Note_on_c, 1, 57, 30
3, 6336, Note_on_c, 1, 57, 0
3, 6336, Note_on_c, 1, 60, 30
3, 6432, Note_on_c, 1, 60, 0
3, 6432, Note_on_c, 1, 50, 30
3, 6528, Note_on_c, 1, 50, 0
3, 6528, Note_on_c, 1, 55, 30
3, 6624, Note_on_c, 1, 55, 0
3, 6624, Note_on_c, 1, 59, 30
3, 6720, Note_on_c, 1, 59, 0
3, 6720, Note_on_c, 1, 50, 30
3, 6816, Note_on_c, 1, 50, 0
3, 6816, Note_on_c, 1, 55, 36
3, 6912, Note_on_c, 1, 55, 0
3, 6912, Note_on_c, 1, 59, 43
3, 7008, Note_on_c, 1, 59, 0
3, 7008, Note_on_c, 1, 52, 50
3, 7104, Note_on_c, 1, 52, 0
3, 7104, Note_on_c, 1, 55, 57
3, 7200, Note_on_c, 1, 55, 0
3, 7200, Note_on_c, 1, 57, 64
3, 7296, Note_on_c, 1, 57, 0
3, 7296, Note_on_c, 1, 52, 71
3, 7392, Note_on_c, 1, 52, 0
3, 7392, Note_on_c, 1, 55, 78
3, 7488, Note_on_c, 1, 55, 0
3, 7488, Note_on_c, 1, 57, 85
3, 7582, Note_on_c, 1, 57, 0
3, 7584, Note_on_c, 1, 50, 92
3, 7584, Note_on_c, 1, 54, 92
3, 7584, Note_on_c, 1, 57, 92
3, 7584, Note_on_c, 1, 62, 92
3, 7888, Note_on_c, 1, 50, 0
3, 7888, Note_on_c, 1, 54, 0
3, 7888, Note_on_c, 1, 57, 0
3, 7888, Note_on_c, 1, 62, 0
3, 8208, Note_on_c, 1, 50, 30
3, 8304, Note_on_c, 1, 50, 0
3, 8304, Note_on_c, 1, 54, 30
3, 8400, Note_on_c, 1, 54, 0
3, 8400, Note_on_c, 1, 57, 30
3, 8496, Note_on_c, 1, 57, 0
3, 8496, Note_on_c, 1, 50, 30
3, 8592, Note_on_c, 1, 50, 0
3, 8592, Note_on_c, 1, 55, 30
3, 8688, Note_on_c, 1, 55, 0
3, 8688, Note_on_c, 1, 59, 30
3, 8784, Note_on_c, 1, 59, 0
3, 8784, Note_on_c, 1, 50, 30
3, 8880, Note_on_c, 1, 50, 0
3, 8880, Note_on_c, 1, 54, 30
3, 8976, Note_on_c, 1, 54, 0
3, 8976, Note_on_c, 1, 57, 30
3, 9072, Note_on_c, 1, 57, 0
3, 9072, Note_on_c, 1, 50, 30
3, 9168, Note_on_c, 1, 50, 0
3, 9168, Note_on_c, 1, 54, 30
3, 9264, Note_on_c, 1, 54, 0
3, 9264, Note_on_c, 1, 57, 30
3, 9358, Note_on_c, 1, 57, 0
3, 9360, Note_on_c, 1, 55, 30
3, 9454, Note_on_c, 1, 55, 0
3, 9456, Note_on_c, 1, 59, 30
3, 9550, Note_on_c, 1, 59, 0
3, 9552, Note_on_c, 1, 62, 30
3, 9646, Note_on_c, 1, 62, 0
3, 9648, Note_on_c, 1, 55, 30
3, 9742, Note_on_c, 1, 55, 0
3, 9744, Note_on_c, 1, 57, 30
3, 9838, Note_on_c, 1, 57, 0
3, 9840, Note_on_c, 1, 60, 30
3, 9934, Note_on_c, 1, 60, 0
3, 9936, Note_on_c, 1, 55, 30
3, 10030, Note_on_c, 1, 55, 0
3, 10032, Note_on_c, 1, 59, 30
3, 10126, Note_on_c, 1, 59, 0
3, 10128, Note_on_c, 1, 62, 30
3, 10222, Note_on_c, 1, 62, 0
3, 10224, Note_on_c, 1, 48, 30
3, 10318, Note_on_c, 1, 48, 0
3, 10320, Note_on_c, 1, 52, 30
3, 10414, Note_on_c, 1, 52, 0
3, 10416, Note_on_c, 1, 57, 30
3, 10510, Note_on_c, 1, 57, 0
3, 10512, Note_on_c, 1, 50, 30
3, 10606, Note_on_c, 1, 50, 0
3, 10608, Note_on_c, 1, 55, 30
3, 10702, Note_on_c, 1, 55, 0
3, 10704, Note_on_c, 1, 59, 30
3, 10798, Note_on_c, 1, 59, 0
3, 10800, Note_on_c, 1, 50, 30
3, 10894, Note_on_c, 1, 50, 0
3, 10896, Note_on_c, 1, 54, 30
3, 10990, Note_on_c, 1, 54, 0
3, 10992, Note_on_c, 1, 60, 30
3, 11086, Note_on_c, 1, 60, 0
3, 11088, Note_on_c, 1, 55, 30
3, 11182, Note_on_c, 1, 55, 0
3, 11184, Note_on_c, 1, 59, 30
3, 11278, Note_on_c, 1, 59, 0
3, 11280, Note_on_c, 1, 62, 30
3, 11374, Note_on_c, 1, 62, 0
3, 11376, Note_on_c, 1, 55, 30
3, 11536, Note_on_c, 1, 55, 0
3, 11664, Note_on_c, 1, 55, 45
3, 11664, Note_on_c, 1, 62, 45
3, 11920, Note_on_c, 1, 55, 0
3, 11920, Note_on_c, 1, 62, 0
3, 11952, Note_on_c, 1, 55, 45
3, 11952, Note_on_c, 1, 60, 45
3, 12208, Note_on_c, 1, 55, 0
3, 12208, Note_on_c, 1, 60, 0
3, 12240, Note_on_c, 1, 55, 45
3, 12240, Note_on_c, 1, 59, 45
3, 12400, Note_on_c, 1, 55, 0
3, 12400, Note_on_c, 1, 59, 0
3, 12816, Note_on_c, 1, 59, 45
3, 12816, Note_on_c, 1, 67, 45
3, 13072, Note_on_c, 1, 59, 0
3, 13072, Note_on_c, 1, 67, 0
3, 13104, Note_on_c, 1, 60, 45
3, 13104, Note_on_c, 1, 67, 45
3, 13360, Note_on_c, 1, 60, 0
3, 13360, Note_on_c, 1, 67, 0
3, 13392, Note_on_c, 1, 62, 45
3, 13392, Note_on_c, 1, 67, 45
3, 13648, Note_on_c, 1, 62, 0
3, 13648, Note_on_c, 1, 67, 0
3, 13680, Note_on_c, 1, 62, 45
3, 13680, Note_on_c, 1, 66, 45
3, 13936, Note_on_c, 1, 62, 0
3, 13936, Note_on_c, 1, 66, 0
3, 13968, Note_on_c, 1, 55, 45
3, 14160, Note_on_c, 1, 55, 0
3, 14160, Note_on_c, 1, 62, 84
3, 14254, Note_on_c, 1, 62, 0
3, 14256, Note_on_c, 1, 57, 45
3, 14448, Note_on_c, 1, 57, 0
3, 14448, Note_on_c, 1, 62, 84
3, 14542, Note_on_c, 1, 62, 0
3, 14544, Note_on_c, 1, 59, 45
3, 14640, Note_on_c, 1, 59, 0
3, 14640, Note_on_c, 1, 67, 84
3, 14800, Note_on_c, 1, 67, 0
3, 14832, Note_on_c, 1, 60, 45
3, 14928, Note_on_c, 1, 60, 0
3, 14928, Note_on_c, 1, 67, 84
3, 15088, Note_on_c, 1, 67, 0
3, 15120, Note_on_c, 1, 62, 60
3, 15216, Note_on_c, 1, 62, 0
3, 15216, Note_on_c, 1, 67, 60
3, 15310, Note_on_c, 1, 67, 0
3, 15408, Note_on_c, 1, 50, 60
3, 15408, Note_on_c, 1, 60, 60
3, 15664, Note_on_c, 1, 50, 0
3, 15664, Note_on_c, 1, 60, 0
3, 15696, Note_on_c, 1, 55, 60
3, 15696, Note_on_c, 1, 60, 60
3, 15984, Note_on_c, 1, 55, 0
3, 15984, Note_on_c, 1, 60, 0
3, 15984, Note_on_c, 1, 55, 60
3, 15984, Note_on_c, 1, 59, 60
3, 16144, Note_on_c, 1, 55, 0
3, 16144, Note_on_c, 1, 59, 0
3, 16272, Note_on_c, 1, 52, 60
3, 16318, Note_on_c, 1, 52, 0
3, 16320, Note_on_c, 1, 56, 60
3, 16366, Note_on_c, 1, 56, 0
3, 16368, Note_on_c, 1, 59, 60
3, 16414, Note_on_c, 1, 59, 0
3, 16416, Note_on_c, 1, 64, 60
3, 16462, Note_on_c, 1, 64, 0
3, 16560, Note_on_c, 1, 56, 60
3, 16560, Note_on_c, 1, 64, 60
3, 16720, Note_on_c, 1, 56, 0
3, 16720, Note_on_c, 1, 64, 0
3, 16848, Note_on_c, 1, 57, 60
3, 16848, Note_on_c, 1, 64, 60
3, 17008, Note_on_c, 1, 57, 0
3, 17008, Note_on_c, 1, 64, 0
3, 17424, Note_on_c, 1, 50, 60
3, 17424, Note_on_c, 1, 62, 60
3, 17584, Note_on_c, 1, 50, 0
3, 17584, Note_on_c, 1, 62, 0
3, 17712, Note_on_c, 1, 54, 60
3, 17712, Note_on_c, 1, 62, 60
3, 17872, Note_on_c, 1, 54, 0
3, 17872, Note_on_c, 1, 62, 0
3, 18000, Note_on_c, 1, 55, 60
3, 18000, Note_on_c, 1, 62, 60
3, 18160, Note_on_c, 1, 55, 0
3, 18160, Note_on_c, 1, 62, 0
3, 18576, Note_on_c, 1, 52, 60
3, 18576, Note_on_c, 1, 55, 60
3, 18576, Note_on_c, 1, 57, 60
3, 19104, Note_on_c, 1, 52, 0
3, 19104, Note_on_c, 1, 55, 0
3, 19104, Note_on_c, 1, 57, 0
3, 19152, Note_on_c, 1, 50, 60
3, 19152, Note_on_c, 1, 54, 60
3, 19152, Note_on_c, 1, 57, 60
3, 19312, Note_on_c, 1, 50, 0
3, 19312, Note_on_c, 1, 54, 0
3, 19312, Note_on_c, 1, 57, 0
3, 19728, Note_on_c, 1, 54, 45
3, 19824, Note_on_c, 1, 54, 0
3, 19824, Note_on_c, 1, 62, 63
3, 19984, Note_on_c, 1, 62, 0
3, 20016, Note_on_c, 1, 55, 45
3, 20112, Note_on_c, 1, 55, 0
3, 20112, Note_on_c, 1, 62, 63
3, 20272, Note_on_c, 1, 62, 0
3, 20304, Note_on_c, 1, 50, 45
3, 20398, Note_on_c, 1, 50, 0
3, 20400, Note_on_c, 1, 62, 63
3, 20560, Note_on_c, 1, 62, 0
3, 20880, Note_on_c, 1, 55, 45
3, 20976, Note_on_c, 1, 55, 0
3, 20976, Note_on_c, 1, 62, 84
3, 21136, Note_on_c, 1, 62, 0
3, 21168, Note_on_c, 1, 57, 45
3, 21264, Note_on_c, 1, 57, 0
3, 21264, Note_on_c, 1, 62, 84
3, 21424, Note_on_c, 1, 62, 0
3, 21456, Note_on_c, 1, 59, 45
3, 21552, Note_on_c, 1, 59, 0
3, 21552, Note_on_c, 1, 67, 84
3, 21712, Note_on_c, 1, 67, 0
3, 21744, Note_on_c, 1, 60, 45
3, 21840, Note_on_c, 1, 60, 0
3, 21840, Note_on_c, 1, 67, 84
3, 22000, Note_on_c, 1, 67, 0
3, 22032, Note_on_c, 1, 62, 60
3, 22128, Note_on_c, 1, 62, 0
3, 22128, Note_on_c, 1, 67, 60
3, 22222, Note_on_c, 1, 67, 0
3, 22320, Note_on_c, 1, 50, 60
3, 22320, Note_on_c, 1, 60, 60
3, 22576, Note_on_c, 1, 50, 0
3, 22576, Note_on_c, 1, 60, 0
3, 22608, Note_on_c, 1, 55, 60
3, 22608, Note_on_c, 1, 60, 60
3, 22896, Note_on_c, 1, 55, 0
3, 22896, Note_on_c, 1, 60, 0
3, 22896, Note_on_c, 1, 55, 53
3, 22896, Note_on_c, 1, 59, 53
3, 23056, Note_on_c, 1, 55, 0
3, 23056, Note_on_c, 1, 59, 0
3, 23184, Note_on_c, 1, 43, 45
3, 23232, Note_on_c, 1, 43, 0
3, 23232, Note_on_c, 1, 45, 45
3, 23280, Note_on_c, 1, 45, 0
3, 23280, Note_on_c, 1, 47, 45
3, 23328, Note_on_c, 1, 47, 0
3, 23328, Note_on_c, 1, 48, 45
3, 23376, Note_on_c, 1, 48, 0
3, 23376, Note_on_c, 1, 50, 45
3, 23424, Note_on_c, 1, 50, 0
3, 23424, Note_on_c, 1, 52, 45
3, 23472, Note_on_c, 1, 52, 0
3, 23472, Note_on_c, 1, 54, 45
3, 23520, Note_on_c, 1, 54, 0
3, 23520, Note_on_c, 1, 55, 45
3, 23568, Note_on_c, 1, 55, 0
3, 23568, Note_on_c, 1, 57, 45
3, 23616, Note_on_c, 1, 57, 0
3, 23616, Note_on_c, 1, 50, 45
3, 23664, Note_on_c, 1, 50, 0
3, 23664, Note_on_c, 1, 52, 45
3, 23712, Note_on_c, 1, 52, 0
3, 23712, Note_on_c, 1, 54, 45
3, 23760, Note_on_c, 1, 54, 0
3, 23760, Note_on_c, 1, 55, 45
3, 23808, Note_on_c, 1, 55, 0
3, 23808, Note_on_c, 1, 57, 45
3, 23856, Note_on_c, 1, 57, 0
3, 23856, Note_on_c, 1, 59, 45
3, 23904, Note_on_c, 1, 59, 0
3, 23904, Note_on_c, 1, 60, 45
3, 23952, Note_on_c, 1, 60, 0
3, 23952, Note_on_c, 1, 62, 45
3, 24000, Note_on_c, 1, 62, 0
3, 24000, Note_on_c, 1, 64, 45
3, 24048, Note_on_c, 1, 64, 0
3, 24048, Note_on_c, 1, 66, 45
3, 24096, Note_on_c, 1, 66, 0
3, 24096, Note_on_c, 1, 67, 45
3, 24144, Note_on_c, 1, 67, 0
3, 24144, Note_on_c, 1, 66, 45
3, 24192, Note_on_c, 1, 66, 0
3, 24192, Note_on_c, 1, 64, 45
3, 24240, Note_on_c, 1, 64, 0
3, 24240, Note_on_c, 1, 62, 45
3, 24288, Note_on_c, 1, 62, 0
3, 24288, Note_on_c, 1, 60, 45
3, 24336, Note_on_c, 1, 60, 0
3, 24336, Note_on_c, 1, 59, 45
3, 24384, Note_on_c, 1, 59, 0
3, 24384, Note_on_c, 1, 57, 45
3, 24432, Note_on_c, 1, 57, 0
3, 24432, Note_on_c, 1, 59, 45
3, 24480, Note_on_c, 1, 59, 0
3, 24480, Note_on_c, 1, 55, 45
3, 24528, Note_on_c, 1, 55, 0
3, 24528, Note_on_c, 1, 57, 45
3, 24576, Note_on_c, 1, 57, 0
3, 24576, Note_on_c, 1, 59, 45
3, 24624, Note_on_c, 1, 59, 0
3, 24624, Note_on_c, 1, 60, 45
3, 24672, Note_on_c, 1, 60, 0
3, 24672, Note_on_c, 1, 59, 45
3, 24720, Note_on_c, 1, 59, 0
3, 24720, Note_on_c, 1, 60, 45
3, 24768, Note_on_c, 1, 60, 0
3, 24768, Note_on_c, 1, 57, 45
3, 24816, Note_on_c, 1, 57, 0
3, 24816, Note_on_c, 1, 59, 45
3, 24864, Note_on_c, 1, 59, 0
3, 24864, Note_on_c, 1, 61, 45
3, 24912, Note_on_c, 1, 61, 0
3, 24912, Note_on_c, 1, 62, 45
3, 24960, Note_on_c, 1, 62, 0
3, 24960, Note_on_c, 1, 61, 45
3, 25008, Note_on_c, 1, 61, 0
3, 25008, Note_on_c, 1, 62, 45
3, 25056, Note_on_c, 1, 62, 0
3, 25056, Note_on_c, 1, 57, 45
3, 25104, Note_on_c, 1, 57, 0
3, 25104, Note_on_c, 1, 54, 45
3, 25152, Note_on_c, 1, 54, 0
3, 25152, Note_on_c, 1, 57, 45
3, 25200, Note_on_c, 1, 57, 0
3, 25200, Note_on_c, 1, 50, 45
3, 25360, Note_on_c, 1, 50, 0
3, 25488, Note_on_c, 1, 55, 45
3, 25536, Note_on_c, 1, 55, 0
3, 25536, Note_on_c, 1, 54, 45
3, 25584, Note_on_c, 1, 54, 0
3, 25584, Note_on_c, 1, 55, 45
3, 25632, Note_on_c, 1, 55, 0
3, 25632, Note_on_c, 1, 50, 45
3, 25680, Note_on_c, 1, 50, 0
3, 25680, Note_on_c, 1, 54, 45
3, 25728, Note_on_c, 1, 54, 0
3, 25728, Note_on_c, 1, 55, 45
3, 25776, Note_on_c, 1, 55, 0
3, 25776, Note_on_c, 1, 57, 45
3, 25824, Note_on_c, 1, 57, 0
3, 25824, Note_on_c, 1, 56, 45
3, 25872, Note_on_c, 1, 56, 0
3, 25872, Note_on_c, 1, 57, 45
3, 25920, Note_on_c, 1, 57, 0
3, 25920, Note_on_c, 1, 50, 45
3, 25968, Note_on_c, 1, 50, 0
3, 25968, Note_on_c, 1, 56, 45
3, 26016, Note_on_c, 1, 56, 0
3, 26016, Note_on_c, 1, 57, 45
3, 26064, Note_on_c, 1, 57, 0
3, 26064, Note_on_c, 1, 59, 45
3, 26112, Note_on_c, 1, 59, 0
3, 26112, Note_on_c, 1, 57, 45
3, 26160, Note_on_c, 1, 57, 0
3, 26160, Note_on_c, 1, 59, 45
3, 26208, Note_on_c, 1, 59, 0
3, 26208, Note_on_c, 1, 55, 45
3, 26256, Note_on_c, 1, 55, 0
3, 26256, Note_on_c, 1, 57, 45
3, 26304, Note_on_c, 1, 57, 0
3, 26304, Note_on_c, 1, 59, 45
3, 26352, Note_on_c, 1, 59, 0
3, 26352, Note_on_c, 1, 60, 45
3, 26400, Note_on_c, 1, 60, 0
3, 26400, Note_on_c, 1, 59, 45
3, 26448, Note_on_c, 1, 59, 0
3, 26448, Note_on_c, 1, 60, 45
3, 26496, Note_on_c, 1, 60, 0
3, 26496, Note_on_c, 1, 57, 45
3, 26544, Note_on_c, 1, 57, 0
3, 26544, Note_on_c, 1, 59, 45
3, 26592, Note_on_c, 1, 59, 0
3, 26592, Note_on_c, 1, 61, 45
3, 26640, Note_on_c, 1, 61, 0
3, 26640, Note_on_c, 1, 62, 45
3, 26688, Note_on_c, 1, 62, 0
3, 26688, Note_on_c, 1, 61, 45
3, 26736, Note_on_c, 1, 61, 0
3, 26736, Note_on_c, 1, 62, 45
3, 26784, Note_on_c, 1, 62, 0
3, 26784, Note_on_c, 1, 61, 45
3, 26832, Note_on_c, 1, 61, 0
3, 26832, Note_on_c, 1, 62, 45
3, 26880, Note_on_c, 1, 62, 0
3, 26880, Note_on_c, 1, 61, 45
3, 26928, Note_on_c, 1, 61, 0
3, 26928, Note_on_c, 1, 62, 45
3, 26976, Note_on_c, 1, 62, 0
3, 26976, Note_on_c, 1, 64, 45
3, 27024, Note_on_c, 1, 64, 0
3, 27024, Note_on_c, 1, 62, 45
3, 27072, Note_on_c, 1, 62, 0
3, 27072, Note_on_c, 1, 60, 45
3, 27120, Note_on_c, 1, 60, 0
3, 27120, Note_on_c, 1, 59, 45
3, 27168, Note_on_c, 1, 59, 0
3, 27168, Note_on_c, 1, 57, 45
3, 27214, Note_on_c, 1, 57, 0
3, 27216, Note_on_c, 1, 55, 45
3, 27262, Note_on_c, 1, 55, 0
3, 27264, Note_on_c, 1, 54, 45
3, 27310, Note_on_c, 1, 54, 0
3, 27312, Note_on_c, 1, 55, 45
3, 27358, Note_on_c, 1, 55, 0
3, 27360, Note_on_c, 1, 50, 45
3, 27406, Note_on_c, 1, 50, 0
3, 27408, Note_on_c, 1, 47, 45
3, 27454, Note_on_c, 1, 47, 0
3, 27456, Note_on_c, 1, 50, 45
3, 27502, Note_on_c, 1, 50, 0
3, 27504, Note_on_c, 1, 43, 45
3, 27664, Note_on_c, 1, 43, 0
3, 27792, Note_on_c, 1, 52, 45
3, 27838, Note_on_c, 1, 52, 0
3, 27840, Note_on_c, 1, 56, 45
3, 27886, Note_on_c, 1, 56, 0
3, 27888, Note_on_c, 1, 59, 45
3, 27934, Note_on_c, 1, 59, 0
3, 27936, Note_on_c, 1, 64, 45
3, 27982, Note_on_c, 1, 64, 0
3, 27984, Note_on_c, 1, 63, 45
3, 28030, Note_on_c, 1, 63, 0
3, 28032, Note_on_c, 1, 64, 45
3, 28078, Note_on_c, 1, 64, 0
3, 28080, Note_on_c, 1, 63, 45
3, 28126, Note_on_c, 1, 63, 0
3, 28128, Note_on_c, 1, 64, 45
3, 28174, Note_on_c, 1, 64, 0
3, 28176, Note_on_c, 1, 65, 45
3, 28222, Note_on_c, 1, 65, 0
3, 28224, Note_on_c, 1, 64, 45
3, 28270, Note_on_c, 1, 64, 0
3, 28272, Note_on_c, 1, 62, 45
3, 28318, Note_on_c, 1, 62, 0
3, 28320, Note_on_c, 1, 64, 45
3, 28366, Note_on_c, 1, 64, 0
3, 28368, Note_on_c, 1, 60, 45
3, 28414, Note_on_c, 1, 60, 0
3, 28416, Note_on_c, 1, 64, 45
3, 28462, Note_on_c, 1, 64, 0
3, 28464, Note_on_c, 1, 60, 45
3, 28510, Note_on_c, 1, 60, 0
3, 28512, Note_on_c, 1, 64, 45
3, 28558, Note_on_c, 1, 64, 0
3, 28560, Note_on_c, 1, 59, 45
3, 28606, Note_on_c, 1, 59, 0
3, 28608, Note_on_c, 1, 64, 45
3, 28654, Note_on_c, 1, 64, 0
3, 28656, Note_on_c, 1, 57, 45
3, 28816, Note_on_c, 1, 57, 0
3, 28944, Note_on_c, 1, 50, 45
3, 28992, Note_on_c, 1, 50, 0
3, 28992, Note_on_c, 1, 54, 45
3, 29040, Note_on_c, 1, 54, 0
3, 29040, Note_on_c, 1, 57, 45
3, 29088, Note_on_c, 1, 57, 0
3, 29088, Note_on_c, 1, 62, 45
3, 29136, Note_on_c, 1, 62, 0
3, 29136, Note_on_c, 1, 61, 45
3, 29184, Note_on_c, 1, 61, 0
3, 29184, Note_on_c, 1, 62, 45
3, 29232, Note_on_c, 1, 62, 0
3, 29232, Note_on_c, 1, 61, 45
3, 29280, Note_on_c, 1, 61, 0
3, 29280, Note_on_c, 1, 62, 45
3, 29328, Note_on_c, 1, 62, 0
3, 29328, Note_on_c, 1, 64, 45
3, 29376, Note_on_c, 1, 64, 0
3, 29376, Note_on_c, 1, 62, 45
3, 29424, Note_on_c, 1, 62, 0
3, 29424, Note_on_c, 1, 60, 45
3, 29472, Note_on_c, 1, 60, 0
3, 29472, Note_on_c, 1, 62, 45
3, 29520, Note_on_c, 1, 62, 0
3, 29520, Note_on_c, 1, 59, 45
3, 29568, Note_on_c, 1, 59, 0
3, 29568, Note_on_c, 1, 62, 45
3, 29616, Note_on_c, 1, 62, 0
3, 29616, Note_on_c, 1, 59, 45
3, 29664, Note_on_c, 1, 59, 0
3, 29664, Note_on_c, 1, 62, 45
3, 29712, Note_on_c, 1, 62, 0
3, 29712, Note_on_c, 1, 57, 45
3, 29760, Note_on_c, 1, 57, 0
3, 29760, Note_on_c, 1, 62, 45
3, 29808, Note_on_c, 1, 62, 0
3, 29808, Note_on_c, 1, 55, 45
3, 29856, Note_on_c, 1, 55, 0
3, 29856, Note_on_c, 1, 57, 45
3, 29904, Note_on_c, 1, 57, 0
3, 29904, Note_on_c, 1, 59, 45
3, 29952, Note_on_c, 1, 59, 0
3, 29952, Note_on_c, 1, 57, 45
3, 30000, Note_on_c, 1, 57, 0
3, 30000, Note_on_c, 1, 55, 45
3, 30048, Note_on_c, 1, 55, 0
3, 30048, Note_on_c, 1, 54, 45
3, 30096, Note_on_c, 1, 54, 0
3, 30096, Note_on_c, 1, 52, 45
3, 30144, Note_on_c, 1, 52, 0
3, 30144, Note_on_c, 1, 54, 47
3, 30192, Note_on_c, 1, 54, 0
3, 30192, Note_on_c, 1, 55, 49
3, 30240, Note_on_c, 1, 55, 0
3, 30240, Note_on_c, 1, 54, 51
3, 30288, Note_on_c, 1, 54, 0
3, 30288, Note_on_c, 1, 52, 53
3, 30336, Note_on_c, 1, 52, 0
3, 30336, Note_on_c, 1, 50, 55
3, 30384, Note_on_c, 1, 50, 0
3, 30384, Note_on_c, 1, 49, 57
3, 30432, Note_on_c, 1, 49, 0
3, 30432, Note_on_c, 1, 47, 60
3, 30480, Note_on_c, 1, 47, 0
3, 30480, Note_on_c, 1, 49, 63
3, 30528, Note_on_c, 1, 49, 0
3, 30528, Note_on_c, 1, 45, 66
3, 30576, Note_on_c, 1, 45, 0
3, 30576, Note_on_c, 1, 47, 69
3, 30624, Note_on_c, 1, 47, 0
3, 30624, Note_on_c, 1, 49, 72
3, 30672, Note_on_c, 1, 49, 0
3, 30672, Note_on_c, 1, 50, 75
3, 30720, Note_on_c, 1, 50, 0
3, 30720, Note_on_c, 1, 49, 75
3, 30768, Note_on_c, 1, 49, 0
3, 30768, Note_on_c, 1, 50, 75
3, 30816, Note_on_c, 1, 50, 0
3, 30816, Note_on_c, 1, 49, 75
3, 30864, Note_on_c, 1, 49, 0
3, 30864, Note_on_c, 1, 50, 75
3, 30912, Note_on_c, 1, 50, 0
3, 30912, Note_on_c, 1, 49, 75
3, 30958, Note_on_c, 1, 49, 0
3, 31248, Note_on_c, 1, 54, 45
3, 31296, Note_on_c, 1, 54, 0
3, 31296, Note_on_c, 1, 52, 45
3, 31344, Note_on_c, 1, 52, 0
3, 31344, Note_on_c, 1, 54, 45
3, 31392, Note_on_c, 1, 54, 0
3, 31392, Note_on_c, 1, 50, 45
3, 31440, Note_on_c, 1, 50, 0
3, 31440, Note_on_c, 1, 52, 45
3, 31488, Note_on_c, 1, 52, 0
3, 31488, Note_on_c, 1, 54, 45
3, 31536, Note_on_c, 1, 54, 0
3, 31536, Note_on_c, 1, 55, 45
3, 31584, Note_on_c, 1, 55, 0
3, 31584, Note_on_c, 1, 54, 45
3, 31632, Note_on_c, 1, 54, 0
3, 31632, Note_on_c, 1, 55, 45
3, 31680, Note_on_c, 1, 55, 0
3, 31680, Note_on_c, 1, 50, 45
3, 31728, Note_on_c, 1, 50, 0
3, 31728, Note_on_c, 1, 54, 45
3, 31776, Note_on_c, 1, 54, 0
3, 31776, Note_on_c, 1, 55, 45
3, 31824, Note_on_c, 1, 55, 0
3, 31824, Note_on_c, 1, 57, 45
3, 31872, Note_on_c, 1, 57, 0
3, 31872, Note_on_c, 1, 56, 45
3, 31920, Note_on_c, 1, 56, 0
3, 31920, Note_on_c, 1, 57, 45
3, 31968, Note_on_c, 1, 57, 0
3, 31968, Note_on_c, 1, 50, 45
3, 32016, Note_on_c, 1, 50, 0
3, 32016, Note_on_c, 1, 54, 45
3, 32064, Note_on_c, 1, 54, 0
3, 32064, Note_on_c, 1, 57, 45
3, 32112, Note_on_c, 1, 57, 0
3, 32112, Note_on_c, 1, 62, 45
3, 32272, Note_on_c, 1, 62, 0
3, 32400, Note_on_c, 1, 55, 45
3, 32446, Note_on_c, 1, 55, 0
3, 32448, Note_on_c, 1, 54, 45
3, 32494, Note_on_c, 1, 54, 0
3, 32496, Note_on_c, 1, 55, 45
3, 32542, Note_on_c, 1, 55, 0
3, 32544, Note_on_c, 1, 50, 45
3, 32590, Note_on_c, 1, 50, 0
3, 32592, Note_on_c, 1, 54, 45
3, 32638, Note_on_c, 1, 54, 0
3, 32640, Note_on_c, 1, 55, 45
3, 32686, Note_on_c, 1, 55, 0
3, 32688, Note_on_c, 1, 57, 45
3, 32734, Note_on_c, 1, 57, 0
3, 32736, Note_on_c, 1, 56, 45
3, 32782, Note_on_c, 1, 56, 0
3, 32784, Note_on_c, 1, 57, 45
3, 32830, Note_on_c, 1, 57, 0
3, 32832, Note_on_c, 1, 50, 45
3, 32878, Note_on_c, 1, 50, 0
3, 32880, Note_on_c, 1, 56, 45
3, 32926, Note_on_c, 1, 56, 0
3, 32928, Note_on_c, 1, 57, 45
3, 32974, Note_on_c, 1, 57, 0
3, 32976, Note_on_c, 1, 59, 45
3, 33022, Note_on_c, 1, 59, 0
3, 33024, Note_on_c, 1, 57, 45
3, 33070, Note_on_c, 1, 57, 0
3, 33072, Note_on_c, 1, 59, 45
3, 33118, Note_on_c, 1, 59, 0
3, 33120, Note_on_c, 1, 55, 45
3, 33166, Note_on_c, 1, 55, 0
3, 33168, Note_on_c, 1, 57, 45
3, 33214, Note_on_c, 1, 57, 0
3, 33216, Note_on_c, 1, 59, 45
3, 33262, Note_on_c, 1, 59, 0
3, 33264, Note_on_c, 1, 60, 45
3, 33310, Note_on_c, 1, 60, 0
3, 33312, Note_on_c, 1, 59, 45
3, 33358, Note_on_c, 1, 59, 0
3, 33360, Note_on_c, 1, 60, 45
3, 33406, Note_on_c, 1, 60, 0
3, 33408, Note_on_c, 1, 57, 45
3, 33454, Note_on_c, 1, 57, 0
3, 33456, Note_on_c, 1, 59, 45
3, 33502, Note_on_c, 1, 59, 0
3, 33504, Note_on_c, 1, 61, 45
3, 33550, Note_on_c, 1, 61, 0
3, 33552, Note_on_c, 1, 62, 45
3, 33598, Note_on_c, 1, 62, 0
3, 33600, Note_on_c, 1, 61, 45
3, 33646, Note_on_c, 1, 61, 0
3, 33648, Note_on_c, 1, 62, 45
3, 33694, Note_on_c, 1, 62, 0
3, 33696, Note_on_c, 1, 61, 45
3, 33742, Note_on_c, 1, 61, 0
3, 33744, Note_on_c, 1, 62, 45
3, 33790, Note_on_c, 1, 62, 0
3, 33792, Note_on_c, 1, 61, 45
3, 33838, Note_on_c, 1, 61, 0
3, 33840, Note_on_c, 1, 62, 45
3, 33886, Note_on_c, 1, 62, 0
3, 33888, Note_on_c, 1, 64, 45
3, 33934, Note_on_c, 1, 64, 0
3, 33936, Note_on_c, 1, 62, 45
3, 33982, Note_on_c, 1, 62, 0
3, 33984, Note_on_c, 1, 60, 45
3, 34030, Note_on_c, 1, 60, 0
3, 34032, Note_on_c, 1, 59, 45
3, 34078, Note_on_c, 1, 59, 0
3, 34080, Note_on_c, 1, 57, 45
3, 34126, Note_on_c, 1, 57, 0
3, 34128, Note_on_c, 1, 55, 45
3, 34174, Note_on_c, 1, 55, 0
3, 34176, Note_on_c, 1, 54, 45
3, 34222, Note_on_c, 1, 54, 0
3, 34224, Note_on_c, 1, 55, 45
3, 34270, Note_on_c, 1, 55, 0
3, 34272, Note_on_c, 1, 50, 45
3, 34318, Note_on_c, 1, 50, 0
3, 34320, Note_on_c, 1, 47, 45
3, 34366, Note_on_c, 1, 47, 0
3, 34368, Note_on_c, 1, 50, 45
3, 34414, Note_on_c, 1, 50, 0
3, 34416, Note_on_c, 1, 43, 45
3, 34576, Note_on_c, 1, 43, 0
3, 34704, Note_on_c, 1, 55, 45
3, 34864, Note_on_c, 1, 55, 0
3, 34992, Note_on_c, 1, 50, 45
3, 35152, Note_on_c, 1, 50, 0
3, 35328, Note_on_c, 1, 31, 45
3, 35376, Note_on_c, 1, 31, 0
3, 35376, Note_on_c, 1, 35, 45
3, 35424, Note_on_c, 1, 35, 0
3, 35424, Note_on_c, 1, 38, 45
3, 35472, Note_on_c, 1, 38, 0
3, 35472, Note_on_c, 1, 43, 45
3, 35504, Note_on_c, 1, 43, 0
3, 35616, Note_on_c, 1, 43, 45
3, 35664, Note_on_c, 1, 43, 0
3, 35664, Note_on_c, 1, 47, 45
3, 35712, Note_on_c, 1, 47, 0
3, 35712, Note_on_c, 1, 50, 45
3, 35760, Note_on_c, 1, 50, 0
3, 35760, Note_on_c, 1, 55, 45
3, 35792, Note_on_c, 1, 55, 0
3, 35856, Note_on_c, 1, 55, 45
3, 35856, Note_on_c, 1, 59, 45
3, 36016, Note_on_c, 1, 55, 0
3, 36016, Note_on_c, 1, 59, 0
3, 36144, Note_on_c, 1, 48, 45
3, 36144, Note_on_c, 1, 60, 45
3, 36304, Note_on_c, 1, 48, 0
3, 36304, Note_on_c, 1, 60, 0
3, 36480, Note_on_c, 1, 38, 45
3, 36528, Note_on_c, 1, 38, 0
3, 36528, Note_on_c, 1, 42, 45
3, 36576, Note_on_c, 1, 42, 0
3, 36576, Note_on_c, 1, 45, 45
3, 36624, Note_on_c, 1, 45, 0
3, 36624, Note_on_c, 1, 50, 45
3, 36656, Note_on_c, 1, 50, 0
3, 36768, Note_on_c, 1, 50, 45
3, 36816, Note_on_c, 1, 50, 0
3, 36816, Note_on_c, 1, 54, 45
3, 36864, Note_on_c, 1, 54, 0
3, 36864, Note_on_c, 1, 57, 45
3, 36912, Note_on_c, 1, 57, 0
3, 36912, Note_on_c, 1, 62, 45
3, 36944, Note_on_c, 1, 62, 0
3, 37008, Note_on_c, 1, 55, 45
3, 37168, Note_on_c, 1, 55, 0
3, 37344, Note_on_c, 1, 45, 45
3, 37390, Note_on_c, 1, 45, 0
3, 37392, Note_on_c, 1, 48, 45
3, 37438, Note_on_c, 1, 48, 0
3, 37440, Note_on_c, 1, 54, 45
3, 37486, Note_on_c, 1, 54, 0
3, 37488, Note_on_c, 1, 57, 63
3, 37582, Note_on_c, 1, 57, 0
3, 37584, Note_on_c, 1, 47, 45
3, 37744, Note_on_c, 1, 47, 0
3, 37920, Note_on_c, 1, 48, 45
3, 37966, Note_on_c, 1, 48, 0
3, 37968, Note_on_c, 1, 52, 45
3, 38014, Note_on_c, 1, 52, 0
3, 38016, Note_on_c, 1, 57, 45
3, 38062, Note_on_c, 1, 57, 0
3, 38064, Note_on_c, 1, 60, 63
3, 38096, Note_on_c, 1, 60, 0
3, 38160, Note_on_c, 1, 50, 45
3, 38320, Note_on_c, 1, 50, 0
3, 38448, Note_on_c, 1, 38, 45
3, 38608, Note_on_c, 1, 38, 0
3, 38784, Note_on_c, 1, 43, 45
3, 38830, Note_on_c, 1, 43, 0
3, 38832, Note_on_c, 1, 47, 45
3, 38878, Note_on_c, 1, 47, 0
3, 38880, Note_on_c, 1, 50, 45
3, 38926, Note_on_c, 1, 50, 0
3, 38928, Note_on_c, 1, 55, 45
3, 38960, Note_on_c, 1, 55, 0
3, 39024, Note_on_c, 1, 43, 45
3, 39184, Note_on_c, 1, 43, 0
3, 39216, Note_on_c, 1, 62, 45
3, 39248, Note_on_c, 1, 62, 0
3, 39312, Note_on_c, 1, 56, 45
3, 39472, Note_on_c, 1, 56, 0
3, 39600, Note_on_c, 1, 62, 45
3, 39760, Note_on_c, 1, 62, 0
3, 39888, Note_on_c, 1, 60, 45
3, 40048, Note_on_c, 1, 60, 0
3, 40224, Note_on_c, 1, 45, 45
3, 40272, Note_on_c, 1, 45, 0
3, 40272, Note_on_c, 1, 48, 45
3, 40320, Note_on_c, 1, 48, 0
3, 40320, Note_on_c, 1, 52, 45
3, 40368, Note_on_c, 1, 52, 0
3, 40368, Note_on_c, 1, 57, 45
3, 40400, Note_on_c, 1, 57, 0
3, 40464, Note_on_c, 1, 54, 45
3, 40624, Note_on_c, 1, 54, 0
3, 40752, Note_on_c, 1, 60, 45
3, 40912, Note_on_c, 1, 60, 0
3, 41040, Note_on_c, 1, 59, 45
3, 41200, Note_on_c, 1, 59, 0
3, 41376, Note_on_c, 1, 43, 45
3, 41424, Note_on_c, 1, 43, 0
3, 41424, Note_on_c, 1, 47, 45
3, 41472, Note_on_c, 1, 47, 0
3, 41472, Note_on_c, 1, 50, 45
3, 41520, Note_on_c, 1, 50, 0
3, 41520, Note_on_c, 1, 55, 45
3, 41552, Note_on_c, 1, 55, 0
3, 41616, Note_on_c, 1, 52, 45
3, 41776, Note_on_c, 1, 52, 0
3, 41904, Note_on_c, 1, 52, 45
3, 42064, Note_on_c, 1, 52, 0
3, 42192, Note_on_c, 1, 50, 45
3, 42352, Note_on_c, 1, 50, 0
3, 42768, Note_on_c, 1, 42, 45
3, 42814, Note_on_c, 1, 42, 0
3, 42816, Note_on_c, 1, 45, 45
3, 42862, Note_on_c, 1, 45, 0
3, 42864, Note_on_c, 1, 48, 45
3, 42910, Note_on_c, 1, 48, 0
3, 42912, Note_on_c, 1, 54, 45
3, 42944, Note_on_c, 1, 54, 0
3, 43056, Note_on_c, 1, 43, 45
3, 43102, Note_on_c, 1, 43, 0
3, 43104, Note_on_c, 1, 47, 45
3, 43150, Note_on_c, 1, 47, 0
3, 43152, Note_on_c, 1, 50, 45
3, 43198, Note_on_c, 1, 50, 0
3, 43200, Note_on_c, 1, 55, 45
3, 43232, Note_on_c, 1, 55, 0
3, 43344, Note_on_c, 1, 38, 45
3, 43390, Note_on_c, 1, 38, 0
3, 43392, Note_on_c, 1, 42, 45
3, 43438, Note_on_c, 1, 42, 0
3, 43440, Note_on_c, 1, 45, 45
3, 43486, Note_on_c, 1, 45, 0
3, 43488, Note_on_c, 1, 50, 45
3, 43520, Note_on_c, 1, 50, 0
3, 43584, Note_on_c, 1, 50, 45
3, 43744, Note_on_c, 1, 50, 0
3, 43920, Note_on_c, 1, 43, 45
3, 43966, Note_on_c, 1, 43, 0
3, 43968, Note_on_c, 1, 47, 45
3, 44014, Note_on_c, 1, 47, 0
3, 44016, Note_on_c, 1, 50, 45
3, 44062, Note_on_c, 1, 50, 0
3, 44064, Note_on_c, 1, 55, 63
3, 44096, Note_on_c, 1, 55, 0
3, 44160, Note_on_c, 1, 45, 45
3, 44320, Note_on_c, 1, 45, 0
3, 44496, Note_on_c, 1, 47, 45
3, 44542, Note_on_c, 1, 47, 0
3, 44544, Note_on_c, 1, 50, 45
3, 44590, Note_on_c, 1, 50, 0
3, 44592, Note_on_c, 1, 55, 45
3, 44638, Note_on_c, 1, 55, 0
3, 44640, Note_on_c, 1, 59, 63
3, 44672, Note_on_c, 1, 59, 0
3, 44736, Note_on_c, 1, 48, 45
3, 44896, Note_on_c, 1, 48, 0
3, 45024, Note_on_c, 1, 50, 45
3, 45184, Note_on_c, 1, 50, 0
3, 45312, Note_on_c, 1, 38, 45
3, 45472, Note_on_c, 1, 38, 0
3, 45648, Note_on_c, 1, 43, 45
3, 45694, Note_on_c, 1, 43, 0
3, 45696, Note_on_c, 1, 47, 45
3, 45742, Note_on_c, 1, 47, 0
3, 45744, Note_on_c, 1, 50, 45
3, 45790, Note_on_c, 1, 50, 0
3, 45792, Note_on_c, 1, 55, 45
3, 45824, Note_on_c, 1, 55, 0
3, 45888, Note_on_c, 1, 43, 45
3, 46048, Note_on_c, 1, 43, 0
3, 46176, Note_on_c, 1, 55, 45
3, 46176, Note_on_c, 1, 58, 45
3, 46432, Note_on_c, 1, 55, 0
3, 46432, Note_on_c, 1, 58, 0
3, 46464, Note_on_c, 1, 50, 45
3, 46464, Note_on_c, 1, 60, 45
3, 46720, Note_on_c, 1, 50, 0
3, 46720, Note_on_c, 1, 60, 0
3, 46752, Note_on_c, 1, 55, 45
3, 46752, Note_on_c, 1, 58, 45
3, 46912, Note_on_c, 1, 55, 0
3, 46912, Note_on_c, 1, 58, 0
3, 47328, Note_on_c, 1, 58, 45
3, 47328, Note_on_c, 1, 67, 45
3, 47616, Note_on_c, 1, 58, 0
3, 47616, Note_on_c, 1, 67, 0
3, 47616, Note_on_c, 1, 60, 45
3, 47616, Note_on_c, 1, 67, 45
3, 47904, Note_on_c, 1, 60, 0
3, 47904, Note_on_c, 1, 67, 0
3, 47904, Note_on_c, 1, 62, 45
3, 47904, Note_on_c, 1, 66, 45
3, 48064, Note_on_c, 1, 62, 0
3, 48064, Note_on_c, 1, 66, 0
3, 48480, Note_on_c, 1, 55, 75
3, 48480, Note_on_c, 1, 62, 75
3, 48768, Note_on_c, 1, 62, 0
3, 48768, Note_on_c, 1, 63, 45
3, 49008, Note_on_c, 1, 55, 0
3, 49056, Note_on_c, 1, 63, 0
3, 49056, Note_on_c, 1, 55, 45
3, 49056, Note_on_c, 1, 59, 45
3, 49344, Note_on_c, 1, 55, 0
3, 49344, Note_on_c, 1, 59, 0
3, 49344, Note_on_c, 1, 48, 45
3, 49344, Note_on_c, 1, 60, 45
3, 49600, Note_on_c, 1, 48, 0
3, 49600, Note_on_c, 1, 60, 0
3, 49632, Note_on_c, 1, 50, 60
3, 49632, Note_on_c, 1, 58, 60
3, 49632, Note_on_c, 1, 62, 60
3, 49888, Note_on_c, 1, 50, 0
3, 49888, Note_on_c, 1, 58, 0
3, 49888, Note_on_c, 1, 62, 0
3, 49920, Note_on_c, 1, 50, 60
3, 49920, Note_on_c, 1, 57, 60
3, 49920, Note_on_c, 1, 60, 60
3, 50176, Note_on_c, 1, 50, 0
3, 50176, Note_on_c, 1, 57, 0
3, 50176, Note_on_c, 1, 60, 0
3, 50208, Note_on_c, 1, 43, 60
3, 50208, Note_on_c, 1, 43, 60
3, 50302, Note_on_c, 1, 43, 0
3, 50304, Note_on_c, 1, 50, 60
3, 50398, Note_on_c, 1, 50, 0
3, 50400, Note_on_c, 1, 54, 60
3, 50464, Note_on_c, 1, 43, 0
3, 50494, Note_on_c, 1, 54, 0
3, 50496, Note_on_c, 1, 43, 60
3, 50496, Note_on_c, 1, 55, 60
3, 50656, Note_on_c, 1, 43, 0
3, 50656, Note_on_c, 1, 55, 0
3, 50784, Note_on_c, 1, 62, 60
3, 50784, Note_on_c, 1, 65, 60
3, 50944, Note_on_c, 1, 62, 0
3, 50944, Note_on_c, 1, 65, 0
3, 51264, Note_on_c, 1, 47, 60
3, 51360, Note_on_c, 1, 47, 0
3, 51360, Note_on_c, 1, 48, 60
3, 51456, Note_on_c, 1, 48, 0
3, 51456, Note_on_c, 1, 51, 60
3, 51552, Note_on_c, 1, 51, 0
3, 51552, Note_on_c, 1, 55, 60
3, 51648, Note_on_c, 1, 55, 0
3, 51648, Note_on_c, 1, 60, 60
3, 51744, Note_on_c, 1, 60, 0
3, 51744, Note_on_c, 1, 62, 60
3, 51840, Note_on_c, 1, 62, 0
3, 51840, Note_on_c, 1, 63, 60
3, 51934, Note_on_c, 1, 63, 0
3, 51936, Note_on_c, 1, 63, 60
3, 52096, Note_on_c, 1, 63, 0
3, 52416, Note_on_c, 1, 42, 60
3, 52512, Note_on_c, 1, 42, 0
3, 52512, Note_on_c, 1, 43, 60
3, 52608, Note_on_c, 1, 43, 0
3, 52608, Note_on_c, 1, 46, 60
3, 52704, Note_on_c, 1, 46, 0
3, 52704, Note_on_c, 1, 50, 60
3, 52800, Note_on_c, 1, 50, 0
3, 52800, Note_on_c, 1, 55, 60
3, 52896, Note_on_c, 1, 55, 0
3, 52896, Note_on_c, 1, 57, 60
3, 52992, Note_on_c, 1, 57, 0
3, 52992, Note_on_c, 1, 58, 60
3, 53086, Note_on_c, 1, 58, 0
3, 53088, Note_on_c, 1, 51, 60
3, 53088, Note_on_c, 1, 58, 60
3, 53248, Note_on_c, 1, 51, 0
3, 53248, Note_on_c, 1, 58, 0
3, 53280, Note_on_c, 1, 51, 70
3, 53280, Note_on_c, 1, 58, 70
3, 53374, Note_on_c, 1, 51, 0
3, 53374, Note_on_c, 1, 58, 0
3, 53376, Note_on_c, 1, 51, 75
3, 53376, Note_on_c, 1, 58, 75
3, 53536, Note_on_c, 1, 51, 0
3, 53536, Note_on_c, 1, 58, 0
3, 53568, Note_on_c, 1, 51, 86
3, 53568, Note_on_c, 1, 58, 86
3, 53662, Note_on_c, 1, 51, 0
3, 53662, Note_on_c, 1, 58, 0
3, 53664, Note_on_c, 1, 50, 92
3, 53664, Note_on_c, 1, 58, 92
3, 53736, Note_on_c, 1, 50, 0
3, 53736, Note_on_c, 1, 58, 0
3, 53952, Note_on_c, 1, 50, 60
3, 53952, Note_on_c, 1, 57, 60
3, 54112, Note_on_c, 1, 50, 0
3, 54112, Note_on_c, 1, 57, 0
3, 54240, Note_on_c, 1, 54, 60
3, 54336, Note_on_c, 1, 63, 60
3, 54432, Note_on_c, 1, 63, 0
3, 54432, Note_on_c, 1, 62, 60
3, 54496, Note_on_c, 1, 54, 0
3, 54526, Note_on_c, 1, 62, 0
3, 54528, Note_on_c, 1, 55, 60
3, 54624, Note_on_c, 1, 63, 60
3, 54720, Note_on_c, 1, 63, 0
3, 54720, Note_on_c, 1, 62, 60
3, 54784, Note_on_c, 1, 55, 0
3, 54814, Note_on_c, 1, 62, 0
3, 54816, Note_on_c, 1, 50, 60
3, 54848, Note_on_c, 1, 50, 0
3, 54912, Note_on_c, 1, 63, 60
3, 55008, Note_on_c, 1, 63, 0
3, 55008, Note_on_c, 1, 62, 60
3, 55104, Note_on_c, 1, 62, 0
3, 55104, Note_on_c, 1, 61, 60
3, 55200, Note_on_c, 1, 61, 0
3, 55200, Note_on_c, 1, 62, 60
3, 55294, Note_on_c, 1, 62, 0
3, 55392, Note_on_c, 1, 55, 45
3, 55392, Note_on_c, 1, 62, 45
3, 55680, Note_on_c, 1, 62, 0
3, 55680, Note_on_c, 1, 63, 45
3, 55920, Note_on_c, 1, 55, 0
3, 55968, Note_on_c, 1, 63, 0
3, 55968, Note_on_c, 1, 55, 45
3, 55968, Note_on_c, 1, 59, 45
3, 56256, Note_on_c, 1, 55, 0
3, 56256, Note_on_c, 1, 59, 0
3, 56256, Note_on_c, 1, 48, 45
3, 56256, Note_on_c, 1, 60, 45
3, 56512, Note_on_c, 1, 48, 0
3, 56512, Note_on_c, 1, 60, 0
3, 56544, Note_on_c, 1, 50, 45
3, 56544, Note_on_c, 1, 58, 45
3, 56544, Note_on_c, 1, 62, 45
3, 56832, Note_on_c, 1, 50, 0
3, 56832, Note_on_c, 1, 58, 0
3, 56832, Note_on_c, 1, 62, 0
3, 56832, Note_on_c, 1, 50, 45
3, 56832, Note_on_c, 1, 57, 45
3, 56832, Note_on_c, 1, 60, 45
3, 57088, Note_on_c, 1, 50, 0
3, 57088, Note_on_c, 1, 57, 0
3, 57088, Note_on_c, 1, 60, 0
3, 57120, Note_on_c, 1, 43, 45
3, 57120, Note_on_c, 1, 43, 45
3, 57216, Note_on_c, 1, 43, 0
3, 57216, Note_on_c, 1, 50, 45
3, 57312, Note_on_c, 1, 50, 0
3, 57312, Note_on_c, 1, 54, 45
3, 57376, Note_on_c, 1, 43, 0
3, 57408, Note_on_c, 1, 54, 0
3, 57408, Note_on_c, 1, 43, 45
3, 57408, Note_on_c, 1, 55, 45
3, 57568, Note_on_c, 1, 43, 0
3, 57568, Note_on_c, 1, 55, 0
3, 57600, Note_on_c, 1, 71, 45
3, 57600, Note_on_c, 1, 74, 45
3, 57632, Note_on_c, 1, 71, 0
3, 57632, Note_on_c, 1, 74, 0
3, 57696, Note_on_c, 1, 67, 45
3, 57696, Note_on_c, 1, 71, 45
3, 57744, Note_on_c, 1, 67, 0
3, 57744, Note_on_c, 1, 71, 0
3, 57888, Note_on_c, 1, 67, 45
3, 57888, Note_on_c, 1, 71, 45
3, 57920, Note_on_c, 1, 67, 0
3, 57920, Note_on_c, 1, 71, 0
3, 57984, Note_on_c, 1, 62, 45
3, 57984, Note_on_c, 1, 69, 45
3, 58032, Note_on_c, 1, 62, 0
3, 58032, Note_on_c, 1, 69, 0
3, 58176, Note_on_c, 1, 62, 45
3, 58176, Note_on_c, 1, 69, 45
3, 58208, Note_on_c, 1, 62, 0
3, 58208, Note_on_c, 1, 69, 0
3, 58272, Note_on_c, 1, 59, 45
3, 58272, Note_on_c, 1, 67, 45
3, 58432, Note_on_c, 1, 59, 0
3, 58432, Note_on_c, 1, 67, 0
3, 58848, Note_on_c, 1, 71, 45
3, 58848, Note_on_c, 1, 74, 45
3, 58896, Note_on_c, 1, 71, 0
3, 58896, Note_on_c, 1, 74, 0
3, 59040, Note_on_c, 1, 71, 45
3, 59040, Note_on_c, 1, 74, 45
3, 59072, Note_on_c, 1, 71, 0
3, 59072, Note_on_c, 1, 74, 0
3, 59136, Note_on_c, 1, 72, 45
3, 59136, Note_on_c, 1, 76, 45
3, 59184, Note_on_c, 1, 72, 0
3, 59184, Note_on_c, 1, 76, 0
3, 59328, Note_on_c, 1, 72, 45
3, 59328, Note_on_c, 1, 76, 45
3, 59360, Note_on_c, 1, 72, 0
3, 59360, Note_on_c, 1, 76, 0
3, 59424, Note_on_c, 1, 62, 45
3, 59424, Note_on_c, 1, 69, 45
3, 59584, Note_on_c, 1, 62, 0
3, 59584, Note_on_c, 1, 69, 0
3, 59904, Note_on_c, 1, 62, 45
3, 59904, Note_on_c, 1, 69, 45
3, 59936, Note_on_c, 1, 62, 0
3, 59936, Note_on_c, 1, 69, 0
3, 60000, Note_on_c, 1, 67, 45
3, 60000, Note_on_c, 1, 71, 45
3, 60160, Note_on_c, 1, 67, 0
3, 60160, Note_on_c, 1, 71, 0
3, 60192, Note_on_c, 1, 67, 45
3, 60192, Note_on_c, 1, 71, 45
3, 60224, Note_on_c, 1, 67, 0
3, 60224, Note_on_c, 1, 71, 0
3, 60288, Note_on_c, 1, 69, 45
3, 60288, Note_on_c, 1, 72, 45
3, 60448, Note_on_c, 1, 69, 0
3, 60448, Note_on_c, 1, 72, 0
3, 60480, Note_on_c, 1, 69, 45
3, 60480, Note_on_c, 1, 72, 45
3, 60512, Note_on_c, 1, 69, 0
3, 60512, Note_on_c, 1, 72, 0
3, 60576, Note_on_c, 1, 71, 45
3, 60576, Note_on_c, 1, 74, 45
3, 60736, Note_on_c, 1, 71, 0
3, 60736, Note_on_c, 1, 74, 0
3, 60768, Note_on_c, 1, 71, 45
3, 60768, Note_on_c, 1, 74, 45
3, 60800, Note_on_c, 1, 71, 0
3, 60800, Note_on_c, 1, 74, 0
3, 60864, Note_on_c, 1, 72, 45
3, 60864, Note_on_c, 1, 76, 45
3, 61024, Note_on_c, 1, 72, 0
3, 61024, Note_on_c, 1, 76, 0
3, 61152, Note_on_c, 1, 50, 45
3, 61152, Note_on_c, 1, 55, 45
3, 61152, Note_on_c, 1, 59, 45
3, 61408, Note_on_c, 1, 50, 0
3, 61408, Note_on_c, 1, 55, 0
3, 61408, Note_on_c, 1, 59, 0
3, 61440, Note_on_c, 1, 50, 45
3, 61440, Note_on_c, 1, 57, 45
3, 61440, Note_on_c, 1, 60, 45
3, 61696, Note_on_c, 1, 50, 0
3, 61696, Note_on_c, 1, 57, 0
3, 61696, Note_on_c, 1, 60, 0
3, 61728, Note_on_c, 1, 55, 45
3, 61728, Note_on_c, 1, 60, 45
3, 62016, Note_on_c, 1, 55, 0
3, 62016, Note_on_c, 1, 60, 0
3, 62016, Note_on_c, 1, 55, 45
3, 62016, Note_on_c, 1, 59, 45
3, 62176, Note_on_c, 1, 55, 0
3, 62176, Note_on_c, 1, 59, 0
3, 62208, Note_on_c, 1, 74, 45
3, 62240, Note_on_c, 1, 74, 0
3, 62304, Note_on_c, 1, 68, 45
3, 62352, Note_on_c, 1, 68, 0
3, 62496, Note_on_c, 1, 68, 45
3, 62528, Note_on_c, 1, 68, 0
3, 62592, Note_on_c, 1, 68, 45
3, 62592, Note_on_c, 1, 74, 45
3, 62640, Note_on_c, 1, 68, 0
3, 62640, Note_on_c, 1, 74, 0
3, 62784, Note_on_c, 1, 68, 45
3, 62784, Note_on_c, 1, 74, 45
3, 62816, Note_on_c, 1, 68, 0
3, 62816, Note_on_c, 1, 74, 0
3, 62880, Note_on_c, 1, 69, 45
3, 62880, Note_on_c, 1, 72, 45
3, 62928, Note_on_c, 1, 69, 0
3, 62928, Note_on_c, 1, 72, 0
3, 63168, Note_on_c, 1, 72, 45
3, 63262, Note_on_c, 1, 72, 0
3, 63264, Note_on_c, 1, 69, 45
3, 63358, Note_on_c, 1, 69, 0
3, 63360, Note_on_c, 1, 67, 45
3, 63454, Note_on_c, 1, 67, 0
3, 63456, Note_on_c, 1, 66, 45
3, 63616, Note_on_c, 1, 66, 0
3, 63648, Note_on_c, 1, 66, 45
3, 63680, Note_on_c, 1, 66, 0
3, 63744, Note_on_c, 1, 66, 45
3, 63744, Note_on_c, 1, 72, 45
3, 63792, Note_on_c, 1, 66, 0
3, 63792, Note_on_c, 1, 72, 0
3, 63936, Note_on_c, 1, 66, 45
3, 63936, Note_on_c, 1, 72, 45
3, 63968, Note_on_c, 1, 66, 0
3, 63968, Note_on_c, 1, 72, 0
3, 64032, Note_on_c, 1, 67, 45
3, 64032, Note_on_c, 1, 71, 45
3, 64080, Note_on_c, 1, 67, 0
3, 64080, Note_on_c, 1, 71, 0
3, 64320, Note_on_c, 1, 55, 45
3, 64416, Note_on_c, 1, 55, 0
3, 64416, Note_on_c, 1, 52, 45
3, 64512, Note_on_c, 1, 52, 0
3, 64512, Note_on_c, 1, 50, 45
3, 64606, Note_on_c, 1, 50, 0
3, 64608, Note_on_c, 1, 49, 45
3, 64768, Note_on_c, 1, 49, 0
3, 64896, Note_on_c, 1, 45, 45
3, 64896, Note_on_c, 1, 52, 45
3, 64896, Note_on_c, 1, 55, 45
3, 65152, Note_on_c, 1, 45, 0
3, 65152, Note_on_c, 1, 52, 0
3, 65152, Note_on_c, 1, 55, 0
3, 65184, Note_on_c, 1, 50, 45
3, 65184, Note_on_c, 1, 55, 45
3, 65440, Note_on_c, 1, 50, 0
3, 65440, Note_on_c, 1, 55, 0
3, 65472, Note_on_c, 1, 50, 45
3, 65472, Note_on_c, 1, 54, 45
3, 65566, Note_on_c, 1, 50, 0
3, 65566, Note_on_c, 1, 54, 0
3, 65664, Note_on_c, 1, 62, 45
3, 65696, Note_on_c, 1, 62, 0
3, 65760, Note_on_c, 1, 69, 45
3, 65760, Note_on_c, 1, 72, 45
3, 65808, Note_on_c, 1, 69, 0
3, 65808, Note_on_c, 1, 72, 0
3, 65952, Note_on_c, 1, 69, 45
3, 65952, Note_on_c, 1, 72, 45
3, 66046, Note_on_c, 1, 69, 0
3, 66046, Note_on_c, 1, 72, 0
3, 66048, Note_on_c, 1, 67, 45
3, 66048, Note_on_c, 1, 71, 45
3, 66208, Note_on_c, 1, 67, 0
3, 66208, Note_on_c, 1, 71, 0
3, 66240, Note_on_c, 1, 67, 45
3, 66240, Note_on_c, 1, 71, 45
3, 66334, Note_on_c, 1, 67, 0
3, 66334, Note_on_c, 1, 71, 0
3, 66336, Note_on_c, 1, 66, 30
3, 66336, Note_on_c, 1, 69, 30
3, 66384, Note_on_c, 1, 66, 0
3, 66384, Note_on_c, 1, 69, 0
3, 66816, Note_on_c, 1, 66, 30
3, 66816, Note_on_c, 1, 69, 30
3, 66848, Note_on_c, 1, 66, 0
3, 66848, Note_on_c, 1, 69, 0
3, 66912, Note_on_c, 1, 67, 30
3, 66912, Note_on_c, 1, 71, 30
3, 66960, Note_on_c, 1, 67, 0
3, 66960, Note_on_c, 1, 71, 0
3, 67104, Note_on_c, 1, 67, 30
3, 67104, Note_on_c, 1, 71, 30
3, 67136, Note_on_c, 1, 67, 0
3, 67136, Note_on_c, 1, 71, 0
3, 67200, Note_on_c, 1, 69, 30
3, 67200, Note_on_c, 1, 72, 30
3, 67248, Note_on_c, 1, 69, 0
3, 67248, Note_on_c, 1, 72, 0
3, 67392, Note_on_c, 1, 69, 30
3, 67392, Note_on_c, 1, 72, 30
3, 67424, Note_on_c, 1, 69, 0
3, 67424, Note_on_c, 1, 72, 0
3, 67488, Note_on_c, 1, 71, 30
3, 67488, Note_on_c, 1, 74, 30
3, 67536, Note_on_c, 1, 71, 0
3, 67536, Note_on_c, 1, 74, 0
3, 67680, Note_on_c, 1, 71, 30
3, 67680, Note_on_c, 1, 74, 30
3, 67712, Note_on_c, 1, 71, 0
3, 67712, Note_on_c, 1, 74, 0
3, 67776, Note_on_c, 1, 72, 30
3, 67776, Note_on_c, 1, 76, 30
3, 67936, Note_on_c, 1, 72, 0
3, 67936, Note_on_c, 1, 76, 0
3, 68064, Note_on_c, 1, 50, 45
3, 68064, Note_on_c, 1, 55, 45
3, 68064, Note_on_c, 1, 59, 45
3, 68320, Note_on_c, 1, 50, 0
3, 68320, Note_on_c, 1, 55, 0
3, 68320, Note_on_c, 1, 59, 0
3, 68352, Note_on_c, 1, 50, 45
3, 68352, Note_on_c, 1, 57, 45
3, 68352, Note_on_c, 1, 60, 45
3, 68608, Note_on_c, 1, 50, 0
3, 68608, Note_on_c, 1, 57, 0
3, 68608, Note_on_c, 1, 60, 0
3, 68640, Note_on_c, 1, 55, 45
3, 68640, Note_on_c, 1, 60, 45
3, 68928, Note_on_c, 1, 55, 0
3, 68928, Note_on_c, 1, 60, 0
3, 68928, Note_on_c, 1, 55, 52
3, 68928, Note_on_c, 1, 59, 52
3, 69088, Note_on_c, 1, 55, 0
3, 69088, Note_on_c, 1, 59, 0
3, 69216, Note_on_c, 1, 43, 60
3, 69264, Note_on_c, 1, 43, 0
3, 69264, Note_on_c, 1, 55, 60
3, 69312, Note_on_c, 1, 55, 0
3, 69312, Note_on_c, 1, 50, 60
3, 69360, Note_on_c, 1, 50, 0
3, 69360, Note_on_c, 1, 55, 60
3, 69408, Note_on_c, 1, 55, 0
3, 69408, Note_on_c, 1, 43, 60
3, 69456, Note_on_c, 1, 43, 0
3, 69456, Note_on_c, 1, 55, 60
3, 69504, Note_on_c, 1, 55, 0
3, 69504, Note_on_c, 1, 43, 60
3, 69552, Note_on_c, 1, 43, 0
3, 69552, Note_on_c, 1, 54, 60
3, 69600, Note_on_c, 1, 54, 0
3, 69600, Note_on_c, 1, 50, 60
3, 69648, Note_on_c, 1, 50, 0
3, 69648, Note_on_c, 1, 54, 60
3, 69696, Note_on_c, 1, 54, 0
3, 69696, Note_on_c, 1, 43, 60
3, 69744, Note_on_c, 1, 43, 0
3, 69744, Note_on_c, 1, 54, 60
3, 69792, Note_on_c, 1, 54, 0
3, 69792, Note_on_c, 1, 43, 60
3, 69840, Note_on_c, 1, 43, 0
3, 69840, Note_on_c, 1, 55, 60
3, 69888, Note_on_c, 1, 55, 0
3, 69888, Note_on_c, 1, 50, 60
3, 69936, Note_on_c, 1, 50, 0
3, 69936, Note_on_c, 1, 55, 60
3, 69984, Note_on_c, 1, 55, 0
3, 69984, Note_on_c, 1, 43, 60
3, 70032, Note_on_c, 1, 43, 0
3, 70032, Note_on_c, 1, 55, 60
3, 70080, Note_on_c, 1, 55, 0
3, 70080, Note_on_c, 1, 43, 60
3, 70128, Note_on_c, 1, 43, 0
3, 70128, Note_on_c, 1, 55, 60
3, 70176, Note_on_c, 1, 55, 0
3, 70176, Note_on_c, 1, 50, 60
3, 70224, Note_on_c, 1, 50, 0
3, 70224, Note_on_c, 1, 55, 60
3, 70272, Note_on_c, 1, 55, 0
3, 70272, Note_on_c, 1, 43, 60
3, 70320, Note_on_c, 1, 43, 0
3, 70320, Note_on_c, 1, 55, 60
3, 70366, Note_on_c, 1, 55, 0
3, 70368, Note_on_c, 1, 47, 60
3, 70416, Note_on_c, 1, 47, 0
3, 70416, Note_on_c, 1, 59, 60
3, 70464, Note_on_c, 1, 59, 0
3, 70464, Note_on_c, 1, 55, 60
3, 70512, Note_on_c, 1, 55, 0
3, 70512, Note_on_c, 1, 59, 60
3, 70560, Note_on_c, 1, 59, 0
3, 70560, Note_on_c, 1, 47, 60
3, 70608, Note_on_c, 1, 47, 0
3, 70608, Note_on_c, 1, 59, 60
3, 70656, Note_on_c, 1, 59, 0
3, 70656, Note_on_c, 1, 48, 60
3, 70704, Note_on_c, 1, 48, 0
3, 70704, Note_on_c, 1, 60, 60
3, 70752, Note_on_c, 1, 60, 0
3, 70752, Note_on_c, 1, 55, 60
3, 70800, Note_on_c, 1, 55, 0
3, 70800, Note_on_c, 1, 60, 60
3, 70848, Note_on_c, 1, 60, 0
3, 70848, Note_on_c, 1, 48, 60
3, 70896, Note_on_c, 1, 48, 0
3, 70896, Note_on_c, 1, 60, 60
3, 70944, Note_on_c, 1, 60, 0
3, 70944, Note_on_c, 1, 50, 60
3, 70992, Note_on_c, 1, 50, 0
3, 70992, Note_on_c, 1, 59, 60
3, 71040, Note_on_c, 1, 59, 0
3, 71040, Note_on_c, 1, 54, 60
3, 71088, Note_on_c, 1, 54, 0
3, 71088, Note_on_c, 1, 57, 60
3, 71136, Note_on_c, 1, 57, 0
3, 71136, Note_on_c, 1, 54, 60
3, 71184, Note_on_c, 1, 54, 0
3, 71184, Note_on_c, 1, 57, 60
3, 71232, Note_on_c, 1, 57, 0
3, 71232, Note_on_c, 1, 50, 60
3, 71280, Note_on_c, 1, 50, 0
3, 71280, Note_on_c, 1, 57, 60
3, 71328, Note_on_c, 1, 57, 0
3, 71328, Note_on_c, 1, 54, 60
3, 71376, Note_on_c, 1, 54, 0
3, 71376, Note_on_c, 1, 57, 60
3, 71424, Note_on_c, 1, 57, 0
3, 71424, Note_on_c, 1, 50, 60
3, 71472, Note_on_c, 1, 50, 0
3, 71472, Note_on_c, 1, 57, 60
3, 71518, Note_on_c, 1, 57, 0
3, 71520, Note_on_c, 1, 43, 60
3, 71566, Note_on_c, 1, 43, 0
3, 71568, Note_on_c, 1, 55, 60
3, 71616, Note_on_c, 1, 55, 0
3, 71616, Note_on_c, 1, 50, 60
3, 71664, Note_on_c, 1, 50, 0
3, 71664, Note_on_c, 1, 55, 60
3, 71712, Note_on_c, 1, 55, 0
3, 71712, Note_on_c, 1, 43, 60
3, 71760, Note_on_c, 1, 43, 0
3, 71760, Note_on_c, 1, 55, 60
3, 71808, Note_on_c, 1, 55, 0
3, 71808, Note_on_c, 1, 45, 60
3, 71856, Note_on_c, 1, 45, 0
3, 71856, Note_on_c, 1, 57, 60
3, 71904, Note_on_c, 1, 57, 0
3, 71904, Note_on_c, 1, 50, 60
3, 71952, Note_on_c, 1, 50, 0
3, 71952, Note_on_c, 1, 57, 60
3, 72000, Note_on_c, 1, 57, 0
3, 72000, Note_on_c, 1, 45, 60
3, 72048, Note_on_c, 1, 45, 0
3, 72048, Note_on_c, 1, 57, 60
3, 72096, Note_on_c, 1, 57, 0
3, 72096, Note_on_c, 1, 47, 60
3, 72144, Note_on_c, 1, 47, 0
3, 72144, Note_on_c, 1, 59, 60
3, 72192, Note_on_c, 1, 59, 0
3, 72192, Note_on_c, 1, 55, 60
3, 72240, Note_on_c, 1, 55, 0
3, 72240, Note_on_c, 1, 59, 60
3, 72288, Note_on_c, 1, 59, 0
3, 72288, Note_on_c, 1, 47, 60
3, 72336, Note_on_c, 1, 47, 0
3, 72336, Note_on_c, 1, 59, 60
3, 72384, Note_on_c, 1, 59, 0
3, 72384, Note_on_c, 1, 48, 60
3, 72432, Note_on_c, 1, 48, 0
3, 72432, Note_on_c, 1, 60, 60
3, 72480, Note_on_c, 1, 60, 0
3, 72480, Note_on_c, 1, 55, 60
3, 72528, Note_on_c, 1, 55, 0
3, 72528, Note_on_c, 1, 60, 60
3, 72576, Note_on_c, 1, 60, 0
3, 72576, Note_on_c, 1, 48, 60
3, 72624, Note_on_c, 1, 48, 0
3, 72624, Note_on_c, 1, 60, 60
3, 72670, Note_on_c, 1, 60, 0
3, 72672, Note_on_c, 1, 50, 45
3, 72720, Note_on_c, 1, 50, 0
3, 72720, Note_on_c, 1, 59, 45
3, 72768, Note_on_c, 1, 59, 0
3, 72768, Note_on_c, 1, 55, 45
3, 72816, Note_on_c, 1, 55, 0
3, 72816, Note_on_c, 1, 59, 45
3, 72864, Note_on_c, 1, 59, 0
3, 72864, Note_on_c, 1, 50, 45
3, 72912, Note_on_c, 1, 50, 0
3, 72912, Note_on_c, 1, 59, 45
3, 72960, Note_on_c, 1, 59, 0
3, 72960, Note_on_c, 1, 50, 45
3, 73008, Note_on_c, 1, 50, 0
3, 73008, Note_on_c, 1, 60, 45
3, 73056, Note_on_c, 1, 60, 0
3, 73056, Note_on_c, 1, 54, 45
3, 73104, Note_on_c, 1, 54, 0
3, 73104, Note_on_c, 1, 60, 45
3, 73152, Note_on_c, 1, 60, 0
3, 73152, Note_on_c, 1, 50, 45
3, 73200, Note_on_c, 1, 50, 0
3, 73200, Note_on_c, 1, 60, 45
3, 73248, Note_on_c, 1, 60, 0
3, 73248, Note_on_c, 1, 43, 45
3, 73296, Note_on_c, 1, 43, 0
3, 73296, Note_on_c, 1, 55, 45
3, 73344, Note_on_c, 1, 55, 0
3, 73344, Note_on_c, 1, 47, 45
3, 73392, Note_on_c, 1, 47, 0
3, 73392, Note_on_c, 1, 55, 45
3, 73440, Note_on_c, 1, 55, 0
3, 73440, Note_on_c, 1, 50, 45
3, 73488, Note_on_c, 1, 50, 0
3, 73488, Note_on_c, 1, 55, 45
3, 73536, Note_on_c, 1, 55, 0
3, 73536, Note_on_c, 1, 43, 45
3, 73584, Note_on_c, 1, 43, 0
3, 73584, Note_on_c, 1, 55, 45
3, 73632, Note_on_c, 1, 55, 0
3, 73632, Note_on_c, 1, 47, 45
3, 73680, Note_on_c, 1, 47, 0
3, 73680, Note_on_c, 1, 55, 45
3, 73728, Note_on_c, 1, 55, 0
3, 73728, Note_on_c, 1, 50, 45
3, 73776, Note_on_c, 1, 50, 0
3, 73776, Note_on_c, 1, 55, 45
3, 73822, Note_on_c, 1, 55, 0
3, 73824, Note_on_c, 1, 44, 45
3, 73872, Note_on_c, 1, 44, 0
3, 73872, Note_on_c, 1, 52, 45
3, 73920, Note_on_c, 1, 52, 0
3, 73920, Note_on_c, 1, 47, 45
3, 73968, Note_on_c, 1, 47, 0
3, 73968, Note_on_c, 1, 52, 45
3, 74016, Note_on_c, 1, 52, 0
3, 74016, Note_on_c, 1, 50, 45
3, 74064, Note_on_c, 1, 50, 0
3, 74064, Note_on_c, 1, 52, 45
3, 74112, Note_on_c, 1, 52, 0
3, 74112, Note_on_c, 1, 44, 45
3, 74160, Note_on_c, 1, 44, 0
3, 74160, Note_on_c, 1, 52, 45
3, 74208, Note_on_c, 1, 52, 0
3, 74208, Note_on_c, 1, 47, 45
3, 74256, Note_on_c, 1, 47, 0
3, 74256, Note_on_c, 1, 52, 45
3, 74304, Note_on_c, 1, 52, 0
3, 74304, Note_on_c, 1, 50, 45
3, 74352, Note_on_c, 1, 50, 0
3, 74352, Note_on_c, 1, 52, 45
3, 74400, Note_on_c, 1, 52, 0
3, 74400, Note_on_c, 1, 45, 45
3, 74448, Note_on_c, 1, 45, 0
3, 74448, Note_on_c, 1, 57, 45
3, 74496, Note_on_c, 1, 57, 0
3, 74496, Note_on_c, 1, 48, 45
3, 74544, Note_on_c, 1, 48, 0
3, 74544, Note_on_c, 1, 57, 45
3, 74592, Note_on_c, 1, 57, 0
3, 74592, Note_on_c, 1, 52, 45
3, 74640, Note_on_c, 1, 52, 0
3, 74640, Note_on_c, 1, 57, 45
3, 74688, Note_on_c, 1, 57, 0
3, 74688, Note_on_c, 1, 45, 45
3, 74736, Note_on_c, 1, 45, 0
3, 74736, Note_on_c, 1, 57, 45
3, 74784, Note_on_c, 1, 57, 0
3, 74784, Note_on_c, 1, 48, 45
3, 74832, Note_on_c, 1, 48, 0
3, 74832, Note_on_c, 1, 57, 45
3, 74880, Note_on_c, 1, 57, 0
3, 74880, Note_on_c, 1, 52, 45
3, 74928, Note_on_c, 1, 52, 0
3, 74928, Note_on_c, 1, 57, 45
3, 74974, Note_on_c, 1, 57, 0
3, 74976, Note_on_c, 1, 50, 45
3, 75024, Note_on_c, 1, 50, 0
3, 75024, Note_on_c, 1, 60, 45
3, 75072, Note_on_c, 1, 60, 0
3, 75072, Note_on_c, 1, 54, 45
3, 75120, Note_on_c, 1, 54, 0
3, 75120, Note_on_c, 1, 60, 45
3, 75168, Note_on_c, 1, 60, 0
3, 75168, Note_on_c, 1, 57, 45
3, 75216, Note_on_c, 1, 57, 0
3, 75216, Note_on_c, 1, 60, 45
3, 75264, Note_on_c, 1, 60, 0
3, 75264, Note_on_c, 1, 50, 45
3, 75312, Note_on_c, 1, 50, 0
3, 75312, Note_on_c, 1, 60, 45
3, 75360, Note_on_c, 1, 60, 0
3, 75360, Note_on_c, 1, 54, 45
3, 75408, Note_on_c, 1, 54, 0
3, 75408, Note_on_c, 1, 60, 45
3, 75456, Note_on_c, 1, 60, 0
3, 75456, Note_on_c, 1, 57, 45
3, 75504, Note_on_c, 1, 57, 0
3, 75504, Note_on_c, 1, 60, 45
3, 75552, Note_on_c, 1, 60, 0
3, 75552, Note_on_c, 1, 43, 45
3, 75600, Note_on_c, 1, 43, 0
3, 75600, Note_on_c, 1, 55, 45
3, 75648, Note_on_c, 1, 55, 0
3, 75648, Note_on_c, 1, 47, 45
3, 75696, Note_on_c, 1, 47, 0
3, 75696, Note_on_c, 1, 55, 45
3, 75744, Note_on_c, 1, 55, 0
3, 75744, Note_on_c, 1, 50, 45
3, 75792, Note_on_c, 1, 50, 0
3, 75792, Note_on_c, 1, 55, 45
3, 75840, Note_on_c, 1, 55, 0
3, 75840, Note_on_c, 1, 43, 45
3, 75888, Note_on_c, 1, 43, 0
3, 75888, Note_on_c, 1, 55, 45
3, 75936, Note_on_c, 1, 55, 0
3, 75936, Note_on_c, 1, 47, 45
3, 75984, Note_on_c, 1, 47, 0
3, 75984, Note_on_c, 1, 55, 45
3, 76032, Note_on_c, 1, 55, 0
3, 76032, Note_on_c, 1, 50, 45
3, 76080, Note_on_c, 1, 50, 0
3, 76080, Note_on_c, 1, 55, 45
3, 76126, Note_on_c, 1, 55, 0
3, 76128, Note_on_c, 1, 52, 45
3, 76174, Note_on_c, 1, 52, 0
3, 76176, Note_on_c, 1, 61, 45
3, 76222, Note_on_c, 1, 61, 0
3, 76224, Note_on_c, 1, 55, 45
3, 76270, Note_on_c, 1, 55, 0
3, 76272, Note_on_c, 1, 61, 45
3, 76318, Note_on_c, 1, 61, 0
3, 76320, Note_on_c, 1, 57, 45
3, 76366, Note_on_c, 1, 57, 0
3, 76368, Note_on_c, 1, 61, 45
3, 76414, Note_on_c, 1, 61, 0
3, 76416, Note_on_c, 1, 52, 45
3, 76462, Note_on_c, 1, 52, 0
3, 76464, Note_on_c, 1, 61, 45
3, 76510, Note_on_c, 1, 61, 0
3, 76512, Note_on_c, 1, 55, 45
3, 76558, Note_on_c, 1, 55, 0
3, 76560, Note_on_c, 1, 61, 45
3, 76606, Note_on_c, 1, 61, 0
3, 76608, Note_on_c, 1, 57, 46
3, 76654, Note_on_c, 1, 57, 0
3, 76656, Note_on_c, 1, 61, 47
3, 76702, Note_on_c, 1, 61, 0
3, 76704, Note_on_c, 1, 50, 48
3, 76704, Note_on_c, 1, 54, 48
3, 76704, Note_on_c, 1, 57, 48
3, 76704, Note_on_c, 1, 62, 48
3, 76960, Note_on_c, 1, 50, 0
3, 76960, Note_on_c, 1, 54, 0
3, 76960, Note_on_c, 1, 57, 0
3, 76960, Note_on_c, 1, 62, 0
3, 77280, Note_on_c, 1, 42, 60
3, 77328, Note_on_c, 1, 42, 0
3, 77328, Note_on_c, 1, 50, 60
3, 77376, Note_on_c, 1, 50, 0
3, 77376, Note_on_c, 1, 49, 60
3, 77424, Note_on_c, 1, 49, 0
3, 77424, Note_on_c, 1, 50, 60
3, 77472, Note_on_c, 1, 50, 0
3, 77472, Note_on_c, 1, 42, 60
3, 77520, Note_on_c, 1, 42, 0
3, 77520, Note_on_c, 1, 50, 60
3, 77568, Note_on_c, 1, 50, 0
3, 77568, Note_on_c, 1, 43, 60
3, 77616, Note_on_c, 1, 43, 0
3, 77616, Note_on_c, 1, 50, 60
3, 77664, Note_on_c, 1, 50, 0
3, 77664, Note_on_c, 1, 49, 60
3, 77712, Note_on_c, 1, 49, 0
3, 77712, Note_on_c, 1, 50, 60
3, 77760, Note_on_c, 1, 50, 0
3, 77760, Note_on_c, 1, 43, 60
3, 77808, Note_on_c, 1, 43, 0
3, 77808, Note_on_c, 1, 50, 60
3, 77854, Note_on_c, 1, 50, 0
3, 77856, Note_on_c, 1, 38, 60
3, 77902, Note_on_c, 1, 38, 0
3, 77904, Note_on_c, 1, 50, 60
3, 77950, Note_on_c, 1, 50, 0
3, 77952, Note_on_c, 1, 49, 60
3, 77998, Note_on_c, 1, 49, 0
3, 78000, Note_on_c, 1, 50, 60
3, 78046, Note_on_c, 1, 50, 0
3, 78048, Note_on_c, 1, 49, 60
3, 78094, Note_on_c, 1, 49, 0
3, 78096, Note_on_c, 1, 50, 60
3, 78142, Note_on_c, 1, 50, 0
3, 78144, Note_on_c, 1, 48, 60
3, 78190, Note_on_c, 1, 48, 0
3, 78192, Note_on_c, 1, 50, 60
3, 78238, Note_on_c, 1, 50, 0
3, 78240, Note_on_c, 1, 47, 60
3, 78286, Note_on_c, 1, 47, 0
3, 78288, Note_on_c, 1, 50, 60
3, 78334, Note_on_c, 1, 50, 0
3, 78336, Note_on_c, 1, 45, 60
3, 78382, Note_on_c, 1, 45, 0
3, 78384, Note_on_c, 1, 50, 60
3, 78430, Note_on_c, 1, 50, 0
3, 78432, Note_on_c, 1, 43, 60
3, 78478, Note_on_c, 1, 43, 0
3, 78480, Note_on_c, 1, 55, 60
3, 78526, Note_on_c, 1, 55, 0
3, 78528, Note_on_c, 1, 50, 60
3, 78574, Note_on_c, 1, 50, 0
3, 78576, Note_on_c, 1, 55, 60
3, 78622, Note_on_c, 1, 55, 0
3, 78624, Note_on_c, 1, 43, 60
3, 78670, Note_on_c, 1, 43, 0
3, 78672, Note_on_c, 1, 55, 60
3, 78718, Note_on_c, 1, 55, 0
3, 78720, Note_on_c, 1, 45, 60
3, 78766, Note_on_c, 1, 45, 0
3, 78768, Note_on_c, 1, 57, 60
3, 78814, Note_on_c, 1, 57, 0
3, 78816, Note_on_c, 1, 50, 60
3, 78862, Note_on_c, 1, 50, 0
3, 78864, Note_on_c, 1, 57, 60
3, 78910, Note_on_c, 1, 57, 0
3, 78912, Note_on_c, 1, 45, 60
3, 78958, Note_on_c, 1, 45, 0
3, 78960, Note_on_c, 1, 57, 60
3, 79006, Note_on_c, 1, 57, 0
3, 79008, Note_on_c, 1, 47, 60
3, 79054, Note_on_c, 1, 47, 0
3, 79056, Note_on_c, 1, 59, 60
3, 79102, Note_on_c, 1, 59, 0
3, 79104, Note_on_c, 1, 55, 60
3, 79150, Note_on_c, 1, 55, 0
3, 79152, Note_on_c, 1, 59, 60
3, 79198, Note_on_c, 1, 59, 0
3, 79200, Note_on_c, 1, 47, 60
3, 79246, Note_on_c, 1, 47, 0
3, 79248, Note_on_c, 1, 59, 60
3, 79294, Note_on_c, 1, 59, 0
3, 79296, Note_on_c, 1, 48, 60
3, 79342, Note_on_c, 1, 48, 0
3, 79344, Note_on_c, 1, 60, 60
3, 79390, Note_on_c, 1, 60, 0
3, 79392, Note_on_c, 1, 55, 60
3, 79438, Note_on_c, 1, 55, 0
3, 79440, Note_on_c, 1, 60, 60
3, 79486, Note_on_c, 1, 60, 0
3, 79488, Note_on_c, 1, 48, 60
3, 79534, Note_on_c, 1, 48, 0
3, 79536, Note_on_c, 1, 60, 60
3, 79582, Note_on_c, 1, 60, 0
3, 79584, Note_on_c, 1, 50, 84
3, 79630, Note_on_c, 1, 50, 0
3, 79632, Note_on_c, 1, 59, 84
3, 79678, Note_on_c, 1, 59, 0
3, 79680, Note_on_c, 1, 55, 60
3, 79726, Note_on_c, 1, 55, 0
3, 79728, Note_on_c, 1, 59, 60
3, 79774, Note_on_c, 1, 59, 0
3, 79776, Note_on_c, 1, 50, 60
3, 79822, Note_on_c, 1, 50, 0
3, 79824, Note_on_c, 1, 59, 60
3, 79870, Note_on_c, 1, 59, 0
3, 79872, Note_on_c, 1, 50, 60
3, 79918, Note_on_c, 1, 50, 0
3, 79920, Note_on_c, 1, 60, 60
3, 79966, Note_on_c, 1, 60, 0
3, 79968, Note_on_c, 1, 54, 60
3, 80014, Note_on_c, 1, 54, 0
3, 80016, Note_on_c, 1, 60, 60
3, 80062, Note_on_c, 1, 60, 0
3, 80064, Note_on_c, 1, 50, 60
3, 80110, Note_on_c, 1, 50, 0
3, 80112, Note_on_c, 1, 60, 60
3, 80158, Note_on_c, 1, 60, 0
3, 80160, Note_on_c, 1, 55, 60
3, 80320, Note_on_c, 1, 55, 0
3, 80640, Note_on_c, 1, 50, 60
3, 80736, Note_on_c, 1, 50, 0
3, 80736, Note_on_c, 1, 47, 60
3, 80896, Note_on_c, 1, 47, 0
3, 80928, Note_on_c, 1, 47, 60
3, 81024, Note_on_c, 1, 47, 0
3, 81024, Note_on_c, 1, 45, 60
3, 81184, Note_on_c, 1, 45, 0
3, 81216, Note_on_c, 1, 43, 60
3, 81312, Note_on_c, 1, 43, 0
3, 81312, Note_on_c, 1, 43, 60
3, 81472, Note_on_c, 1, 43, 0
3, 81792, Note_on_c, 1, 54, 60
3, 81838, Note_on_c, 1, 54, 0
3, 81840, Note_on_c, 1, 57, 60
3, 81886, Note_on_c, 1, 57, 0
3, 81888, Note_on_c, 1, 55, 60
3, 81934, Note_on_c, 1, 55, 0
3, 81936, Note_on_c, 1, 59, 60
3, 81982, Note_on_c, 1, 59, 0
3, 81984, Note_on_c, 1, 62, 60
3, 82030, Note_on_c, 1, 62, 0
3, 82032, Note_on_c, 1, 59, 60
3, 82078, Note_on_c, 1, 59, 0
3, 82080, Note_on_c, 1, 55, 60
3, 82126, Note_on_c, 1, 55, 0
3, 82128, Note_on_c, 1, 59, 60
3, 82174, Note_on_c, 1, 59, 0
3, 82176, Note_on_c, 1, 60, 60
3, 82222, Note_on_c, 1, 60, 0
3, 82224, Note_on_c, 1, 62, 60
3, 82270, Note_on_c, 1, 62, 0
3, 82272, Note_on_c, 1, 66, 60
3, 82318, Note_on_c, 1, 66, 0
3, 82320, Note_on_c, 1, 62, 60
3, 82366, Note_on_c, 1, 62, 0
3, 82368, Note_on_c, 1, 60, 60
3, 82414, Note_on_c, 1, 60, 0
3, 82416, Note_on_c, 1, 62, 60
3, 82462, Note_on_c, 1, 62, 0
3, 82464, Note_on_c, 1, 59, 60
3, 82510, Note_on_c, 1, 59, 0
3, 82512, Note_on_c, 1, 62, 60
3, 82558, Note_on_c, 1, 62, 0
3, 82560, Note_on_c, 1, 67, 60
3, 82606, Note_on_c, 1, 67, 0
3, 82608, Note_on_c, 1, 62, 60
3, 82654, Note_on_c, 1, 62, 0
3, 82656, Note_on_c, 1, 59, 60
3, 82702, Note_on_c, 1, 59, 0
3, 82704, Note_on_c, 1, 55, 60
3, 82750, Note_on_c, 1, 55, 0
3, 82752, Note_on_c, 1, 54, 60
3, 82798, Note_on_c, 1, 54, 0
3, 82800, Note_on_c, 1, 57, 60
3, 82846, Note_on_c, 1, 57, 0
3, 82848, Note_on_c, 1, 49, 60
3, 82848, Note_on_c, 1, 62, 60
3, 82894, Note_on_c, 1, 49, 0
3, 82894, Note_on_c, 1, 62, 0
3, 82896, Note_on_c, 1, 50, 60
3, 82896, Note_on_c, 1, 57, 60
3, 82942, Note_on_c, 1, 50, 0
3, 82942, Note_on_c, 1, 57, 0
3, 82944, Note_on_c, 1, 49, 60
3, 82944, Note_on_c, 1, 54, 60
3, 82990, Note_on_c, 1, 49, 0
3, 82990, Note_on_c, 1, 54, 0
3, 82992, Note_on_c, 1, 50, 60
3, 82992, Note_on_c, 1, 57, 60
3, 83038, Note_on_c, 1, 50, 0
3, 83038, Note_on_c, 1, 57, 0
3, 83040, Note_on_c, 1, 47, 60
3, 83134, Note_on_c, 1, 47, 0
3, 83136, Note_on_c, 1, 49, 60
3, 83182, Note_on_c, 1, 49, 0
3, 83184, Note_on_c, 1, 50, 60
3, 83230, Note_on_c, 1, 50, 0
3, 83232, Note_on_c, 1, 49, 60
3, 83278, Note_on_c, 1, 49, 0
3, 83280, Note_on_c, 1, 50, 60
3, 83326, Note_on_c, 1, 50, 0
3, 83328, Note_on_c, 1, 45, 60
3, 83422, Note_on_c, 1, 45, 0
3, 83424, Note_on_c, 1, 49, 60
3, 83470, Note_on_c, 1, 49, 0
3, 83472, Note_on_c, 1, 50, 60
3, 83518, Note_on_c, 1, 50, 0
3, 83520, Note_on_c, 1, 49, 60
3, 83566, Note_on_c, 1, 49, 0
3, 83568, Note_on_c, 1, 50, 60
3, 83614, Note_on_c, 1, 50, 0
3, 83616, Note_on_c, 1, 43, 60
3, 83776, Note_on_c, 1, 43, 0
3, 84000, Note_on_c, 1, 62, 60
3, 84046, Note_on_c, 1, 62, 0
3, 84048, Note_on_c, 1, 57, 60
3, 84094, Note_on_c, 1, 57, 0
3, 84096, Note_on_c, 1, 54, 60
3, 84142, Note_on_c, 1, 54, 0
3, 84144, Note_on_c, 1, 57, 60
3, 84190, Note_on_c, 1, 57, 0
3, 84192, Note_on_c, 1, 55, 60
3, 84238, Note_on_c, 1, 55, 0
3, 84240, Note_on_c, 1, 59, 60
3, 84286, Note_on_c, 1, 59, 0
3, 84288, Note_on_c, 1, 62, 60
3, 84334, Note_on_c, 1, 62, 0
3, 84336, Note_on_c, 1, 59, 60
3, 84382, Note_on_c, 1, 59, 0
3, 84384, Note_on_c, 1, 55, 60
3, 84430, Note_on_c, 1, 55, 0
3, 84432, Note_on_c, 1, 59, 60
3, 84478, Note_on_c, 1, 59, 0
3, 84480, Note_on_c, 1, 60, 60
3, 84526, Note_on_c, 1, 60, 0
3, 84528, Note_on_c, 1, 62, 60
3, 84574, Note_on_c, 1, 62, 0
3, 84576, Note_on_c, 1, 66, 60
3, 84622, Note_on_c, 1, 66, 0
3, 84624, Note_on_c, 1, 62, 60
3, 84670, Note_on_c, 1, 62, 0
3, 84672, Note_on_c, 1, 60, 60
3, 84718, Note_on_c, 1, 60, 0
3, 84720, Note_on_c, 1, 62, 60
3, 84766, Note_on_c, 1, 62, 0
3, 84768, Note_on_c, 1, 59, 60
3, 84814, Note_on_c, 1, 59, 0
3, 84816, Note_on_c, 1, 62, 60
3, 84862, Note_on_c, 1, 62, 0
3, 84864, Note_on_c, 1, 65, 60
3, 84910, Note_on_c, 1, 65, 0
3, 84912, Note_on_c, 1, 62, 60
3, 84958, Note_on_c, 1, 62, 0
3, 84960, Note_on_c, 1, 59, 60
3, 85006, Note_on_c, 1, 59, 0
3, 85008, Note_on_c, 1, 62, 60
3, 85054, Note_on_c, 1, 62, 0
3, 85056, Note_on_c, 1, 59, 60
3, 85102, Note_on_c, 1, 59, 0
3, 85104, Note_on_c, 1, 62, 60
3, 85150, Note_on_c, 1, 62, 0
3, 85152, Note_on_c, 1, 65, 60
3, 85198, Note_on_c, 1, 65, 0
3, 85200, Note_on_c, 1, 62, 60
3, 85246, Note_on_c, 1, 62, 0
3, 85248, Note_on_c, 1, 38, 60
3, 85248, Note_on_c, 1, 50, 60
3, 85248, Note_on_c, 1, 59, 60
3, 85294, Note_on_c, 1, 59, 0
3, 85296, Note_on_c, 1, 62, 60
3, 85342, Note_on_c, 1, 38, 0
3, 85342, Note_on_c, 1, 50, 0
3, 85342, Note_on_c, 1, 62, 0
3, 85344, Note_on_c, 1, 32, 60
3, 85344, Note_on_c, 1, 44, 60
3, 85504, Note_on_c, 1, 32, 0
3, 85504, Note_on_c, 1, 44, 0
3, 85536, Note_on_c, 1, 32, 60
3, 85536, Note_on_c, 1, 44, 60
3, 85632, Note_on_c, 1, 32, 0
3, 85632, Note_on_c, 1, 44, 0
3, 85632, Note_on_c, 1, 38, 60
3, 85632, Note_on_c, 1, 50, 60
3, 85792, Note_on_c, 1, 38, 0
3, 85792, Note_on_c, 1, 50, 0
3, 85824, Note_on_c, 1, 38, 60
3, 85824, Note_on_c, 1, 50, 60
3, 85920, Note_on_c, 1, 38, 0
3, 85920, Note_on_c, 1, 50, 0
3, 85920, Note_on_c, 1, 36, 60
3, 85920, Note_on_c, 1, 48, 60
3, 86176, Note_on_c, 1, 36, 0
3, 86176, Note_on_c, 1, 48, 0
3, 86208, Note_on_c, 1, 37, 60
3, 86208, Note_on_c, 1, 49, 60
3, 86464, Note_on_c, 1, 37, 0
3, 86464, Note_on_c, 1, 49, 0
3, 86496, Note_on_c, 1, 38, 60
3, 86496, Note_on_c, 1, 50, 60
3, 86752, Note_on_c, 1, 38, 0
3, 86752, Note_on_c, 1, 50, 0
3, 86784, Note_on_c, 1, 38, 60
3, 87040, Note_on_c, 1, 38, 0
3, 87072, Note_on_c, 1, 43, 60
3, 87118, Note_on_c, 1, 43, 0
3, 87120, Note_on_c, 1, 50, 60
3, 87166, Note_on_c, 1, 50, 0
3, 87168, Note_on_c, 1, 55, 60
3, 87214, Note_on_c, 1, 55, 0
3, 87216, Note_on_c, 1, 50, 60
3, 87262, Note_on_c, 1, 50, 0
3, 87264, Note_on_c, 1, 43, 60
3, 87310, Note_on_c, 1, 43, 0
3, 87312, Note_on_c, 1, 50, 60
3, 87358, Note_on_c, 1, 50, 0
3, 87360, Note_on_c, 1, 47, 60
3, 87406, Note_on_c, 1, 47, 0
3, 87408, Note_on_c, 1, 50, 60
3, 87454, Note_on_c, 1, 50, 0
3, 87456, Note_on_c, 1, 55, 60
3, 87502, Note_on_c, 1, 55, 0
3, 87504, Note_on_c, 1, 50, 60
3, 87550, Note_on_c, 1, 50, 0
3, 87552, Note_on_c, 1, 47, 60
3, 87598, Note_on_c, 1, 47, 0
3, 87600, Note_on_c, 1, 50, 60
3, 87646, Note_on_c, 1, 50, 0
3, 87648, Note_on_c, 1, 47, 60
3, 87694, Note_on_c, 1, 47, 0
3, 87696, Note_on_c, 1, 50, 60
3, 87742, Note_on_c, 1, 50, 0
3, 87744, Note_on_c, 1, 56, 60
3, 87790, Note_on_c, 1, 56, 0
3, 87792, Note_on_c, 1, 50, 60
3, 87838, Note_on_c, 1, 50, 0
3, 87840, Note_on_c, 1, 47, 60
3, 87886, Note_on_c, 1, 47, 0
3, 87888, Note_on_c, 1, 50, 60
3, 87934, Note_on_c, 1, 50, 0
3, 87936, Note_on_c, 1, 47, 60
3, 87982, Note_on_c, 1, 47, 0
3, 87984, Note_on_c, 1, 50, 60
3, 88030, Note_on_c, 1, 50, 0
3, 88032, Note_on_c, 1, 56, 60
3, 88078, Note_on_c, 1, 56, 0
3, 88080, Note_on_c, 1, 50, 60
3, 88126, Note_on_c, 1, 50, 0
3, 88128, Note_on_c, 1, 47, 60
3, 88174, Note_on_c, 1, 47, 0
3, 88176, Note_on_c, 1, 50, 60
3, 88222, Note_on_c, 1, 50, 0
3, 88224, Note_on_c, 1, 48, 60
3, 88270, Note_on_c, 1, 48, 0
3, 88272, Note_on_c, 1, 52, 60
3, 88318, Note_on_c, 1, 52, 0
3, 88320, Note_on_c, 1, 57, 60
3, 88366, Note_on_c, 1, 57, 0
3, 88368, Note_on_c, 1, 52, 60
3, 88414, Note_on_c, 1, 52, 0
3, 88416, Note_on_c, 1, 48, 60
3, 88462, Note_on_c, 1, 48, 0
3, 88464, Note_on_c, 1, 52, 60
3, 88510, Note_on_c, 1, 52, 0
3, 88512, Note_on_c, 1, 49, 60
3, 88558, Note_on_c, 1, 49, 0
3, 88560, Note_on_c, 1, 55, 60
3, 88606, Note_on_c, 1, 55, 0
3, 88608, Note_on_c, 1, 58, 60
3, 88654, Note_on_c, 1, 58, 0
3, 88656, Note_on_c, 1, 55, 60
3, 88702, Note_on_c, 1, 55, 0
3, 88704, Note_on_c, 1, 49, 60
3, 88750, Note_on_c, 1, 49, 0
3, 88752, Note_on_c, 1, 55, 60
3, 88798, Note_on_c, 1, 55, 0
3, 88800, Note_on_c, 1, 50, 60
3, 88846, Note_on_c, 1, 50, 0
3, 88848, Note_on_c, 1, 55, 60
3, 88894, Note_on_c, 1, 55, 0
3, 88896, Note_on_c, 1, 59, 60
3, 88942, Note_on_c, 1, 59, 0
3, 88944, Note_on_c, 1, 55, 60
3, 88990, Note_on_c, 1, 55, 0
3, 88992, Note_on_c, 1, 50, 60
3, 89038, Note_on_c, 1, 50, 0
3, 89040, Note_on_c, 1, 55, 60
3, 89086, Note_on_c, 1, 55, 0
3, 89088, Note_on_c, 1, 50, 60
3, 89134, Note_on_c, 1, 50, 0
3, 89136, Note_on_c, 1, 54, 60
3, 89182, Note_on_c, 1, 54, 0
3, 89184, Note_on_c, 1, 60, 60
3, 89230, Note_on_c, 1, 60, 0
3, 89232, Note_on_c, 1, 54, 60
3, 89278, Note_on_c, 1, 54, 0
3, 89280, Note_on_c, 1, 50, 60
3, 89326, Note_on_c, 1, 50, 0
3, 89328, Note_on_c, 1, 54, 60
3, 89374, Note_on_c, 1, 54, 0
3, 89376, Note_on_c, 1, 43, 60
3, 89422, Note_on_c, 1, 43, 0
3, 89424, Note_on_c, 1, 47, 60
3, 89470, Note_on_c, 1, 47, 0
3, 89472, Note_on_c, 1, 55, 60
3, 89518, Note_on_c, 1, 55, 0
3, 89520, Note_on_c, 1, 47, 60
3, 89566, Note_on_c, 1, 47, 0
3, 89568, Note_on_c, 1, 55, 60
3, 89614, Note_on_c, 1, 55, 0
3, 89616, Note_on_c, 1, 47, 60
3, 89662, Note_on_c, 1, 47, 0
3, 89664, Note_on_c, 1, 43, 60
3, 89710, Note_on_c, 1, 43, 0
3, 89712, Note_on_c, 1, 47, 60
3, 89758, Note_on_c, 1, 47, 0
3, 89760, Note_on_c, 1, 53, 60
3, 89806, Note_on_c, 1, 53, 0
3, 89808, Note_on_c, 1, 47, 60
3, 89854, Note_on_c, 1, 47, 0
3, 89856, Note_on_c, 1, 53, 60
3, 89902, Note_on_c, 1, 53, 0
3, 89904, Note_on_c, 1, 47, 60
3, 89950, Note_on_c, 1, 47, 0
3, 89952, Note_on_c, 1, 43, 60
3, 89998, Note_on_c, 1, 43, 0
3, 90000, Note_on_c, 1, 48, 60
3, 90046, Note_on_c, 1, 48, 0
3, 90048, Note_on_c, 1, 52, 60
3, 90094, Note_on_c, 1, 52, 0
3, 90096, Note_on_c, 1, 48, 60
3, 90142, Note_on_c, 1, 48, 0
3, 90144, Note_on_c, 1, 52, 60
3, 90190, Note_on_c, 1, 52, 0
3, 90192, Note_on_c, 1, 48, 60
3, 90238, Note_on_c, 1, 48, 0
3, 90240, Note_on_c, 1, 43, 60
3, 90286, Note_on_c, 1, 43, 0
3, 90288, Note_on_c, 1, 47, 60
3, 90334, Note_on_c, 1, 47, 0
3, 90336, Note_on_c, 1, 53, 60
3, 90382, Note_on_c, 1, 53, 0
3, 90384, Note_on_c, 1, 47, 60
3, 90430, Note_on_c, 1, 47, 0
3, 90432, Note_on_c, 1, 53, 60
3, 90478, Note_on_c, 1, 53, 0
3, 90480, Note_on_c, 1, 47, 60
3, 90526, Note_on_c, 1, 47, 0
3, 90528, Note_on_c, 1, 43, 60
3, 90574, Note_on_c, 1, 43, 0
3, 90576, Note_on_c, 1, 48, 60
3, 90622, Note_on_c, 1, 48, 0
3, 90624, Note_on_c, 1, 52, 60
3, 90670, Note_on_c, 1, 52, 0
3, 90672, Note_on_c, 1, 48, 60
3, 90718, Note_on_c, 1, 48, 0
3, 90720, Note_on_c, 1, 52, 60
3, 90766, Note_on_c, 1, 52, 0
3, 90768, Note_on_c, 1, 48, 60
3, 90814, Note_on_c, 1, 48, 0
3, 90816, Note_on_c, 1, 43, 60
3, 90862, Note_on_c, 1, 43, 0
3, 90864, Note_on_c, 1, 45, 60
3, 90910, Note_on_c, 1, 45, 0
3, 90912, Note_on_c, 1, 54, 60
3, 90958, Note_on_c, 1, 54, 0
3, 90960, Note_on_c, 1, 45, 60
3, 91006, Note_on_c, 1, 45, 0
3, 91008, Note_on_c, 1, 54, 60
3, 91054, Note_on_c, 1, 54, 0
3, 91056, Note_on_c, 1, 45, 60
3, 91102, Note_on_c, 1, 45, 0
3, 91104, Note_on_c, 1, 43, 60
3, 91150, Note_on_c, 1, 43, 0
3, 91152, Note_on_c, 1, 47, 60
3, 91198, Note_on_c, 1, 47, 0
3, 91200, Note_on_c, 1, 55, 60
3, 91246, Note_on_c, 1, 55, 0
3, 91248, Note_on_c, 1, 47, 60
3, 91294, Note_on_c, 1, 47, 0
3, 91296, Note_on_c, 1, 55, 60
3, 91342, Note_on_c, 1, 55, 0
3, 91344, Note_on_c, 1, 47, 60
3, 91390, Note_on_c, 1, 47, 0
3, 91392, Note_on_c, 1, 43, 60
3, 91438, Note_on_c, 1, 43, 0
3, 91440, Note_on_c, 1, 48, 60
3, 91486, Note_on_c, 1, 48, 0
3, 91488, Note_on_c, 1, 54, 60
3, 91534, Note_on_c, 1, 54, 0
3, 91536, Note_on_c, 1, 48, 60
3, 91582, Note_on_c, 1, 48, 0
3, 91584, Note_on_c, 1, 54, 60
3, 91630, Note_on_c, 1, 54, 0
3, 91632, Note_on_c, 1, 48, 60
3, 91678, Note_on_c, 1, 48, 0
3, 91680, Note_on_c, 1, 43, 60
3, 91726, Note_on_c, 1, 43, 0
3, 91728, Note_on_c, 1, 47, 60
3, 91774, Note_on_c, 1, 47, 0
3, 91776, Note_on_c, 1, 55, 60
3, 91822, Note_on_c, 1, 55, 0
3, 91824, Note_on_c, 1, 47, 60
3, 91870, Note_on_c, 1, 47, 0
3, 91872, Note_on_c, 1, 55, 60
3, 91918, Note_on_c, 1, 55, 0
3, 91920, Note_on_c, 1, 47, 60
3, 91966, Note_on_c, 1, 47, 0
3, 91968, Note_on_c, 1, 43, 45
3, 92014, Note_on_c, 1, 43, 0
3, 92016, Note_on_c, 1, 47, 45
3, 92062, Note_on_c, 1, 47, 0
3, 92064, Note_on_c, 1, 53, 45
3, 92110, Note_on_c, 1, 53, 0
3, 92112, Note_on_c, 1, 47, 45
3, 92158, Note_on_c, 1, 47, 0
3, 92160, Note_on_c, 1, 53, 45
3, 92206, Note_on_c, 1, 53, 0
3, 92208, Note_on_c, 1, 47, 45
3, 92254, Note_on_c, 1, 47, 0
3, 92256, Note_on_c, 1, 43, 45
3, 92302, Note_on_c, 1, 43, 0
3, 92304, Note_on_c, 1, 48, 45
3, 92350, Note_on_c, 1, 48, 0
3, 92352, Note_on_c, 1, 52, 45
3, 92398, Note_on_c, 1, 52, 0
3, 92400, Note_on_c, 1, 48, 45
3, 92446, Note_on_c, 1, 48, 0
3, 92448, Note_on_c, 1, 52, 45
3, 92494, Note_on_c, 1, 52, 0
3, 92496, Note_on_c, 1, 48, 45
3, 92542, Note_on_c, 1, 48, 0
3, 92544, Note_on_c, 1, 43, 45
3, 92590, Note_on_c, 1, 43, 0
3, 92592, Note_on_c, 1, 47, 45
3, 92638, Note_on_c, 1, 47, 0
3, 92640, Note_on_c, 1, 53, 45
3, 92686, Note_on_c, 1, 53, 0
3, 92688, Note_on_c, 1, 47, 45
3, 92734, Note_on_c, 1, 47, 0
3, 92736, Note_on_c, 1, 53, 45
3, 92782, Note_on_c, 1, 53, 0
3, 92784, Note_on_c, 1, 47, 45
3, 92830, Note_on_c, 1, 47, 0
3, 92832, Note_on_c, 1, 43, 45
3, 92878, Note_on_c, 1, 43, 0
3, 92880, Note_on_c, 1, 48, 45
3, 92926, Note_on_c, 1, 48, 0
3, 92928, Note_on_c, 1, 52, 45
3, 92974, Note_on_c, 1, 52, 0
3, 92976, Note_on_c, 1, 48, 45
3, 93022, Note_on_c, 1, 48, 0
3, 93024, Note_on_c, 1, 52, 45
3, 93070, Note_on_c, 1, 52, 0
3, 93072, Note_on_c, 1, 48, 45
3, 93118, Note_on_c, 1, 48, 0
3, 93120, Note_on_c, 1, 43, 45
3, 93166, Note_on_c, 1, 43, 0
3, 93168, Note_on_c, 1, 45, 45
3, 93214, Note_on_c, 1, 45, 0
3, 93216, Note_on_c, 1, 54, 45
3, 93262, Note_on_c, 1, 54, 0
3, 93264, Note_on_c, 1, 45, 45
3, 93310, Note_on_c, 1, 45, 0
3, 93312, Note_on_c, 1, 54, 45
3, 93358, Note_on_c, 1, 54, 0
3, 93360, Note_on_c, 1, 45, 45
3, 93406, Note_on_c, 1, 45, 0
3, 93408, Note_on_c, 1, 43, 45
3, 93454, Note_on_c, 1, 43, 0
3, 93456, Note_on_c, 1, 47, 45
3, 93502, Note_on_c, 1, 47, 0
3, 93504, Note_on_c, 1, 55, 45
3, 93550, Note_on_c, 1, 55, 0
3, 93552, Note_on_c, 1, 47, 45
3, 93598, Note_on_c, 1, 47, 0
3, 93600, Note_on_c, 1, 55, 45
3, 93646, Note_on_c, 1, 55, 0
3, 93648, Note_on_c, 1, 47, 45
3, 93694, Note_on_c, 1, 47, 0
3, 93696, Note_on_c, 1, 43, 45
3, 93742, Note_on_c, 1, 43, 0
3, 93744, Note_on_c, 1, 48, 45
3, 93790, Note_on_c, 1, 48, 0
3, 93792, Note_on_c, 1, 54, 45
3, 93838, Note_on_c, 1, 54, 0
3, 93840, Note_on_c, 1, 48, 45
3, 93886, Note_on_c, 1, 48, 0
3, 93888, Note_on_c, 1, 54, 45
3, 93934, Note_on_c, 1, 54, 0
3, 93936, Note_on_c, 1, 48, 45
3, 93982, Note_on_c, 1, 48, 0
3, 93984, Note_on_c, 1, 43, 45
3, 94030, Note_on_c, 1, 43, 0
3, 94032, Note_on_c, 1, 47, 45
3, 94078, Note_on_c, 1, 47, 0
3, 94080, Note_on_c, 1, 55, 45
3, 94126, Note_on_c, 1, 55, 0
3, 94128, Note_on_c, 1, 47, 45
3, 94174, Note_on_c, 1, 47, 0
3, 94176, Note_on_c, 1, 55, 45
3, 94222, Note_on_c, 1, 55, 0
3, 94224, Note_on_c, 1, 47, 45
3, 94270, Note_on_c, 1, 47, 0
3, 94272, Note_on_c, 1, 43, 45
3, 94318, Note_on_c, 1, 43, 0
3, 94320, Note_on_c, 1, 48, 45
3, 94366, Note_on_c, 1, 48, 0
3, 94368, Note_on_c, 1, 54, 45
3, 94414, Note_on_c, 1, 54, 0
3, 94416, Note_on_c, 1, 48, 45
3, 94462, Note_on_c, 1, 48, 0
3, 94464, Note_on_c, 1, 54, 45
3, 94510, Note_on_c, 1, 54, 0
3, 94512, Note_on_c, 1, 48, 45
3, 94558, Note_on_c, 1, 48, 0
3, 94560, Note_on_c, 1, 43, 45
3, 94606, Note_on_c, 1, 43, 0
3, 94608, Note_on_c, 1, 47, 45
3, 94654, Note_on_c, 1, 47, 0
3, 94656, Note_on_c, 1, 55, 45
3, 94702, Note_on_c, 1, 55, 0
3, 94704, Note_on_c, 1, 47, 45
3, 94750, Note_on_c, 1, 47, 0
3, 94752, Note_on_c, 1, 55, 45
3, 94798, Note_on_c, 1, 55, 0
3, 94800, Note_on_c, 1, 47, 45
3, 94846, Note_on_c, 1, 47, 0
3, 94848, Note_on_c, 1, 43, 45
3, 94894, Note_on_c, 1, 43, 0
3, 94896, Note_on_c, 1, 48, 45
3, 94942, Note_on_c, 1, 48, 0
3, 94944, Note_on_c, 1, 54, 45
3, 94990, Note_on_c, 1, 54, 0
3, 94992, Note_on_c, 1, 48, 45
3, 95038, Note_on_c, 1, 48, 0
3, 95040, Note_on_c, 1, 54, 45
3, 95086, Note_on_c, 1, 54, 0
3, 95088, Note_on_c, 1, 48, 45
3, 95134, Note_on_c, 1, 48, 0
3, 95136, Note_on_c, 1, 43, 45
3, 95182, Note_on_c, 1, 43, 0
3, 95184, Note_on_c, 1, 47, 45
3, 95230, Note_on_c, 1, 47, 0
3, 95232, Note_on_c, 1, 50, 45
3, 95278, Note_on_c, 1, 50, 0
3, 95280, Note_on_c, 1, 55, 45
3, 95326, Note_on_c, 1, 55, 0
3, 95328, Note_on_c, 1, 50, 45
3, 95374, Note_on_c, 1, 50, 0
3, 95376, Note_on_c, 1, 47, 45
3, 95422, Note_on_c, 1, 47, 0
3, 95424, Note_on_c, 1, 43, 45
3, 95470, Note_on_c, 1, 43, 0
3, 95472, Note_on_c, 1, 47, 45
3, 95518, Note_on_c, 1, 47, 0
3, 95520, Note_on_c, 1, 50, 45
3, 95566, Note_on_c, 1, 50, 0
3, 95568, Note_on_c, 1, 55, 45
3, 95614, Note_on_c, 1, 55, 0
3, 95616, Note_on_c, 1, 50, 45
3, 95662, Note_on_c, 1, 50, 0
3, 95664, Note_on_c, 1, 47, 45
3, 95710, Note_on_c, 1, 47, 0
3, 95712, Note_on_c, 1, 43, 45
3, 95872, Note_on_c, 1, 43, 0
3, 95872, End_track
0, 0, End_of_file