0, 0, Header, 1, 19, 480
1, 0, Start_track
1, 0, Title_t, "untitled"
1, 0, Time_signature, 6, 2, 24, 8
1, 0, Key_signature, 0, "major"
1, 0, Tempo, 250000
1, 5760, Time_signature, 4, 3, 12, 8
1, 5760, Tempo, 1090909
1, 12480, Tempo, 1333333
1, 13440, Time_signature, 2, 3, 12, 8
1, 13440, Tempo, 1090909
1, 13920, Time_signature, 4, 3, 12, 8
1, 13920, Tempo, 937500
1, 20640, Time_signature, 6, 3, 12, 8
1, 22080, Time_signature, 4, 3, 12, 8
1, 22080, Tempo, 1090909
1, 28800, Time_signature, 6, 3, 12, 8
1, 30240, Time_signature, 4, 3, 12, 8
1, 30240, Tempo, 983607
1, 41760, Time_signature, 3, 3, 12, 8
1, 42480, Time_signature, 1, 3, 12, 8
1, 42480, Tempo, 1153846
1, 42720, Time_signature, 5, 3, 12, 8
1, 42720, Tempo, 1200000
1, 43920, Time_signature, 4, 3, 12, 8
1, 43920, Tempo, 1538462
1, 45840, Time_signature, 2, 2, 24, 8
1, 45840, Tempo, 312500
1, 56400, Tempo, 326087
1, 57360, Tempo, 312500
1, 114960, Tempo, 327869
1, 115920, Tempo, 375000
1, 118800, Tempo, 312500
1, 195600, Tempo, 340909
1, 197520, Tempo, 909091
1, 198480, Time_signature, 5, 3, 12, 8
1, 199680, Time_signature, 2, 2, 24, 8
1, 200640, Time_signature, 5, 3, 12, 8
1, 201840, Time_signature, 2, 2, 24, 8
1, 202800, Time_signature, 5, 3, 12, 8
1, 204000, Time_signature, 2, 2, 24, 8
1, 204000, Tempo, 750000
1, 209760, Time_signature, 2, 3, 12, 8
1, 209760, Tempo, 937500
1, 210240, Time_signature, 4, 3, 12, 8
1, 235200, Time_signature, 1, 3, 12, 8
1, 235200, Tempo, 1071429
1, 235440, Tempo, 1153846
1, 235680, Tempo, 1276596
1, 235920, Tempo, 1395349
1, 236160, Time_signature, 4, 3, 12, 8
1, 236160, Tempo, 789474
1, 237120, Tempo, 1034483
1, 238080, Time_signature, 2, 2, 24, 8
1, 238080, Tempo, 312500
1, 248640, Tempo, 326087
1, 249600, Tempo, 312500
1, 307200, Time_signature, 4, 3, 12, 8
1, 308160, Tempo, 428571
1, 309120, Tempo, 361446
1, 311040, Tempo, 312500
1, 337928, Tempo, 365854
1, 338392, Tempo, 333204
1, 338396, Tempo, 333389
1, 338400, Tempo, 333537
1, 338436, Tempo, 333352
1, 338496, Tempo, 333167
1, 338576, Tempo, 332982
1, 338624, Tempo, 332797
1, 338668, Tempo, 332613
1, 338720, Tempo, 332428
1, 338796, Tempo, 332613
1, 338808, Tempo, 332428
1, 338812, Tempo, 332613
1, 338816, Tempo, 332797
1, 338832, Tempo, 332613
1, 338836, Tempo, 332797
1, 338852, Tempo, 332982
1, 338860, Tempo, 332797
1, 338872, Tempo, 312663
1, 338880, Tempo, 312826
1, 338904, Tempo, 312663
1, 338948, Tempo, 312826
1, 338952, Tempo, 312663
1, 339048, Tempo, 312826
1, 339068, Tempo, 312663
1, 339088, Tempo, 312826
1, 339100, Tempo, 312989
1, 339104, Tempo, 312826
1, 339128, Tempo, 312989
1, 339132, Tempo, 312826
1, 339136, Tempo, 312989
1, 339160, Tempo, 313152
1, 339168, Tempo, 312989
1, 339300, Tempo, 312826
1, 339332, Tempo, 312663
1, 339368, Tempo, 312500
1, 339396, Tempo, 312337
1, 385920, Time_signature, 2, 3, 12, 8
1, 385920, Tempo, 326087
1, 386400, Tempo, 361446
1, 386880, Tempo, 405405
1, 387360, Tempo, 461538
1, 387840, Time_signature, 8, 3, 12, 8
1, 387840, Tempo, 750000
1, 389760, Tempo, 1000000
1, 391680, Time_signature, 4, 3, 12, 8
1, 391680, Tempo, 1153846
1, 395520, Time_signature, 2, 2, 24, 8
1, 395520, Tempo, 454545
1, 396480, Tempo, 375000
1, 397440, Tempo, 340909
1, 398400, Tempo, 312500
1, 399360, Tempo, 288462
1, 400320, Tempo, 267857
1, 401280, Tempo, 258732
1, 401312, Tempo, 258621
1, 401364, Tempo, 258509
1, 401412, Tempo, 258398
1, 401464, Tempo, 258287
1, 401488, Tempo, 258398
1, 401492, Tempo, 258509
1, 401500, Tempo, 258398
1, 401516, Tempo, 258621
1, 401540, Tempo, 258509
1, 458864, Tempo, 264317
1, 458868, Tempo, 264901
1, 458872, Tempo, 275862
1, 458880, Tempo, 275989
1, 458884, Tempo, 262238
1, 458888, Tempo, 274348
1, 458892, Tempo, 274600
1, 458896, Tempo, 273224
1, 458904, Tempo, 271493
1, 458908, Tempo, 272232
1, 458912, Tempo, 272356
1, 458916, Tempo, 270027
1, 475200, Time_signature, 5, 3, 12, 8
1, 476400, Time_signature, 2, 2, 24, 8
1, 479280, Time_signature, 5, 3, 12, 8
1, 480480, Time_signature, 2, 2, 24, 8
1, 493920, Time_signature, 9, 4, 6, 8
1, 497160, Time_signature, 5, 3, 12, 8
1, 498360, Time_signature, 2, 2, 24, 8
1, 498360, End_track
2, 0, Start_track
2, 0, Title_t, "Flutes              "
2, 0, Program_c, 0, 73
2, 0, Control_c, 0, 7, 90
2, 0, Control_c, 0, 10, 69
2, 2880, Control_c, 0, 91, 100
2, 11520, Note_on_c, 0, 84, 41
2, 11520, Note_on_c, 0, 72, 43
2, 13200, Note_on_c, 0, 72, 0
2, 13200, Note_on_c, 0, 84, 0
2, 13880, Note_on_c, 0, 82, 56
2, 13920, Note_on_c, 0, 82, 0
2, 13920, Note_on_c, 0, 80, 59
2, 14040, Note_on_c, 0, 80, 0
2, 14040, Note_on_c, 0, 79, 58
2, 14160, Note_on_c, 0, 80, 50
2, 14174, Note_on_c, 0, 79, 0
2, 14624, Note_on_c, 0, 80, 0
2, 14840, Note_on_c, 0, 82, 56
2, 14872, Note_on_c, 0, 82, 0
2, 14880, Note_on_c, 0, 80, 62
2, 15000, Note_on_c, 0, 80, 0
2, 15000, Note_on_c, 0, 79, 56
2, 15120, Note_on_c, 0, 80, 61
2, 15142, Note_on_c, 0, 79, 0
2, 15416, Note_on_c, 0, 80, 0
2, 15480, Note_on_c, 0, 75, 61
2, 15530, Note_on_c, 0, 75, 0
2, 15600, Note_on_c, 0, 77, 64
2, 15660, Note_on_c, 0, 77, 0
2, 15720, Note_on_c, 0, 79, 70
2, 15766, Note_on_c, 0, 79, 0
2, 15840, Note_on_c, 0, 80, 75
2, 15886, Note_on_c, 0, 80, 0
2, 15960, Note_on_c, 0, 82, 66
2, 16006, Note_on_c, 0, 82, 0
2, 16080, Note_on_c, 0, 84, 60
2, 16132, Note_on_c, 0, 84, 0
2, 16200, Note_on_c, 0, 85, 60
2, 16250, Note_on_c, 0, 85, 0
2, 16320, Note_on_c, 0, 87, 58
2, 16560, Note_on_c, 0, 87, 0
2, 16560, Note_on_c, 0, 85, 62
2, 16680, Note_on_c, 0, 85, 0
2, 16680, Note_on_c, 0, 84, 59
2, 16770, Note_on_c, 0, 84, 0
2, 16800, Note_on_c, 0, 84, 66
2, 17040, Note_on_c, 0, 85, 41
2, 17066, Note_on_c, 0, 84, 0
2, 17610, Note_on_c, 0, 85, 0
2, 17760, Note_on_c, 0, 85, 67
2, 17880, Note_on_c, 0, 84, 52
2, 17884, Note_on_c, 0, 85, 0
2, 18000, Note_on_c, 0, 82, 67
2, 18014, Note_on_c, 0, 84, 0
2, 18114, Note_on_c, 0, 82, 0
2, 18180, Note_on_c, 0, 84, 56
2, 18240, Note_on_c, 0, 84, 0
2, 18240, Note_on_c, 0, 82, 64
2, 18360, Note_on_c, 0, 80, 58
2, 18384, Note_on_c, 0, 82, 0
2, 18480, Note_on_c, 0, 82, 53
2, 18482, Note_on_c, 0, 80, 0
2, 18682, Note_on_c, 0, 82, 0
2, 18720, Note_on_c, 0, 84, 68
2, 18836, Note_on_c, 0, 84, 0
2, 18840, Note_on_c, 0, 82, 56
2, 18960, Note_on_c, 0, 80, 50
2, 18984, Note_on_c, 0, 82, 0
2, 19380, Note_on_c, 0, 80, 0
2, 19440, Note_on_c, 0, 80, 61
2, 19920, Note_on_c, 0, 79, 61
2, 19924, Note_on_c, 0, 80, 0
2, 20040, Note_on_c, 0, 80, 56
2, 20056, Note_on_c, 0, 79, 0
2, 20160, Note_on_c, 0, 82, 61
2, 20206, Note_on_c, 0, 80, 0
2, 20266, Note_on_c, 0, 82, 0
2, 20280, Note_on_c, 0, 75, 67
2, 20330, Note_on_c, 0, 75, 0
2, 20400, Note_on_c, 0, 77, 42
2, 20460, Note_on_c, 0, 77, 0
2, 20520, Note_on_c, 0, 79, 77
2, 20566, Note_on_c, 0, 79, 0
2, 20640, Note_on_c, 0, 79, 65
2, 20880, Note_on_c, 0, 80, 40
2, 20914, Note_on_c, 0, 79, 0
2, 21396, Note_on_c, 0, 80, 0
2, 27840, Note_on_c, 0, 89, 54
2, 27840, Note_on_c, 0, 92, 57
2, 29520, Note_on_c, 0, 92, 0
2, 29520, Note_on_c, 0, 89, 0
2, 37200, Note_on_c, 0, 86, 38
2, 37320, Note_on_c, 0, 87, 52
2, 37334, Note_on_c, 0, 86, 0
2, 37440, Note_on_c, 0, 89, 62
2, 37466, Note_on_c, 0, 87, 0
2, 37560, Note_on_c, 0, 87, 54
2, 37584, Note_on_c, 0, 89, 0
2, 37680, Note_on_c, 0, 86, 32
2, 37700, Note_on_c, 0, 87, 0
2, 37796, Note_on_c, 0, 86, 0
2, 40080, Note_on_c, 0, 82, 37
2, 40080, Note_on_c, 0, 86, 43
2, 40200, Note_on_c, 0, 87, 46
2, 40200, Note_on_c, 0, 84, 42
2, 40204, Note_on_c, 0, 86, 0
2, 40226, Note_on_c, 0, 82, 0
2, 40314, Note_on_c, 0, 84, 0
2, 40320, Note_on_c, 0, 89, 51
2, 40320, Note_on_c, 0, 86, 44
2, 40322, Note_on_c, 0, 87, 0
2, 40426, Note_on_c, 0, 86, 0
2, 40432, Note_on_c, 0, 89, 0
2, 40560, Note_on_c, 0, 89, 49
2, 40560, Note_on_c, 0, 86, 42
2, 40660, Note_on_c, 0, 86, 0
2, 40680, Note_on_c, 0, 87, 45
2, 40680, Note_on_c, 0, 91, 44
2, 40692, Note_on_c, 0, 89, 0
2, 40792, Note_on_c, 0, 87, 0
2, 40800, Note_on_c, 0, 89, 49
2, 40800, Note_on_c, 0, 92, 41
2, 40806, Note_on_c, 0, 91, 0
2, 40926, Note_on_c, 0, 92, 0
2, 40926, Note_on_c, 0, 89, 0
2, 42000, Note_on_c, 0, 86, 38
2, 42120, Note_on_c, 0, 87, 41
2, 42136, Note_on_c, 0, 86, 0
2, 42240, Note_on_c, 0, 89, 43
2, 42262, Note_on_c, 0, 87, 0
2, 42360, Note_on_c, 0, 87, 44
2, 42376, Note_on_c, 0, 89, 0
2, 42480, Note_on_c, 0, 86, 46
2, 42502, Note_on_c, 0, 87, 0
2, 42594, Note_on_c, 0, 86, 0
2, 43920, Control_c, 0, 7, 40
2, 44880, Note_on_c, 0, 90, 90
2, 45770, Note_on_c, 0, 90, 0
2, 45840, Note_on_c, 0, 91, 77
2, 45840, Note_on_c, 0, 82, 77
2, 45930, Note_on_c, 0, 82, 0
2, 45930, Note_on_c, 0, 91, 0
2, 46080, Control_c, 0, 7, 90
2, 46080, Note_on_c, 0, 91, 77
2, 46080, Note_on_c, 0, 82, 77
2, 46430, Note_on_c, 0, 82, 0
2, 46446, Note_on_c, 0, 91, 0
2, 46560, Note_on_c, 0, 87, 77
2, 46560, Note_on_c, 0, 82, 77
2, 46620, Note_on_c, 0, 87, 0
2, 46626, Note_on_c, 0, 82, 0
2, 46800, Note_on_c, 0, 82, 58
2, 47680, Note_on_c, 0, 82, 0
2, 47760, Note_on_c, 0, 91, 77
2, 47760, Note_on_c, 0, 82, 77
2, 47850, Note_on_c, 0, 82, 0
2, 47850, Note_on_c, 0, 91, 0
2, 48000, Note_on_c, 0, 91, 77
2, 48000, Note_on_c, 0, 82, 77
2, 48300, Note_on_c, 0, 82, 0
2, 48300, Note_on_c, 0, 91, 0
2, 48480, Note_on_c, 0, 87, 77
2, 48480, Note_on_c, 0, 82, 77
2, 48556, Note_on_c, 0, 87, 0
2, 48560, Note_on_c, 0, 82, 0
2, 48720, Note_on_c, 0, 82, 71
2, 49390, Note_on_c, 0, 82, 0
2, 49560, Note_on_c, 0, 87, 95
2, 49618, Note_on_c, 0, 87, 0
2, 49620, Note_on_c, 0, 89, 95
2, 49678, Note_on_c, 0, 89, 0
2, 49680, Note_on_c, 0, 91, 71
2, 49680, Note_on_c, 0, 82, 71
2, 50030, Note_on_c, 0, 82, 0
2, 50030, Note_on_c, 0, 91, 0
2, 50160, Note_on_c, 0, 87, 71
2, 50160, Note_on_c, 0, 82, 71
2, 50234, Note_on_c, 0, 82, 0
2, 50250, Note_on_c, 0, 87, 0
2, 50400, Note_on_c, 0, 86, 71
2, 50400, Note_on_c, 0, 82, 71
2, 50484, Note_on_c, 0, 86, 0
2, 50490, Note_on_c, 0, 82, 0
2, 50640, Note_on_c, 0, 84, 71
2, 51024, Note_on_c, 0, 84, 0
2, 51120, Note_on_c, 0, 84, 71
2, 51228, Note_on_c, 0, 84, 0
2, 51360, Note_on_c, 0, 84, 71
2, 51468, Note_on_c, 0, 84, 0
2, 51600, Note_on_c, 0, 86, 71
2, 52032, Note_on_c, 0, 86, 0
2, 52080, Note_on_c, 0, 86, 71
2, 52080, Note_on_c, 0, 82, 71
2, 52188, Note_on_c, 0, 82, 0
2, 52188, Note_on_c, 0, 86, 0
2, 52320, Note_on_c, 0, 86, 71
2, 52320, Note_on_c, 0, 82, 71
2, 52428, Note_on_c, 0, 82, 0
2, 52428, Note_on_c, 0, 86, 0
2, 52560, Note_on_c, 0, 87, 71
2, 52560, Note_on_c, 0, 82, 71
2, 52668, Note_on_c, 0, 82, 0
2, 52668, Note_on_c, 0, 87, 0
2, 53400, Note_on_c, 0, 87, 67
2, 53460, Note_on_c, 0, 87, 0
2, 53460, Note_on_c, 0, 89, 67
2, 53520, Note_on_c, 0, 89, 0
2, 53520, Note_on_c, 0, 82, 54
2, 53520, Note_on_c, 0, 91, 54
2, 53864, Note_on_c, 0, 91, 0
2, 53866, Note_on_c, 0, 82, 0
2, 54000, Note_on_c, 0, 82, 54
2, 54000, Note_on_c, 0, 87, 54
2, 54062, Note_on_c, 0, 82, 0
2, 54086, Note_on_c, 0, 87, 0
2, 54240, Note_on_c, 0, 82, 54
2, 54240, Note_on_c, 0, 87, 54
2, 54300, Note_on_c, 0, 87, 0
2, 54300, Note_on_c, 0, 82, 0
2, 54480, Note_on_c, 0, 82, 54
2, 54480, Note_on_c, 0, 86, 54
2, 54840, Note_on_c, 0, 86, 0
2, 54840, Note_on_c, 0, 82, 0
2, 54960, Note_on_c, 0, 89, 54
2, 54960, Note_on_c, 0, 86, 54
2, 55020, Note_on_c, 0, 89, 0
2, 55026, Note_on_c, 0, 86, 0
2, 55200, Note_on_c, 0, 86, 54
2, 55200, Note_on_c, 0, 89, 54
2, 55260, Note_on_c, 0, 89, 0
2, 55260, Note_on_c, 0, 86, 0
2, 55440, Note_on_c, 0, 89, 54
2, 55440, Note_on_c, 0, 86, 54
2, 55680, Note_on_c, 0, 86, 0
2, 55680, Note_on_c, 0, 87, 54
2, 55680, Note_on_c, 0, 84, 54
2, 55696, Note_on_c, 0, 89, 0
2, 55750, Note_on_c, 0, 84, 0
2, 55766, Note_on_c, 0, 87, 0
2, 55920, Note_on_c, 0, 77, 54
2, 55920, Note_on_c, 0, 84, 54
2, 55984, Note_on_c, 0, 77, 0
2, 56000, Note_on_c, 0, 84, 0
2, 56160, Note_on_c, 0, 81, 54
2, 56160, Note_on_c, 0, 77, 54
2, 56224, Note_on_c, 0, 81, 0
2, 56232, Note_on_c, 0, 77, 0
2, 56400, Note_on_c, 0, 77, 54
2, 56400, Note_on_c, 0, 82, 54
2, 56720, Note_on_c, 0, 77, 0
2, 56752, Note_on_c, 0, 82, 0
2, 65040, Note_on_c, 0, 79, 64
2, 65512, Note_on_c, 0, 79, 0
2, 65520, Note_on_c, 0, 82, 51
2, 66000, Note_on_c, 0, 80, 56
2, 66026, Note_on_c, 0, 82, 0
2, 66460, Note_on_c, 0, 80, 0
2, 66480, Note_on_c, 0, 77, 60
2, 66960, Note_on_c, 0, 79, 64
2, 66982, Note_on_c, 0, 77, 0
2, 67410, Note_on_c, 0, 79, 0
2, 67440, Note_on_c, 0, 75, 49
2, 67890, Note_on_c, 0, 75, 0
2, 67920, Note_on_c, 0, 77, 69
2, 68370, Note_on_c, 0, 77, 0
2, 68400, Note_on_c, 0, 70, 60
2, 68850, Note_on_c, 0, 70, 0
2, 68880, Note_on_c, 0, 79, 63
2, 68880, Note_on_c, 0, 67, 42
2, 69360, Note_on_c, 0, 67, 0
2, 69360, Note_on_c, 0, 82, 61
2, 69360, Note_on_c, 0, 70, 54
2, 69372, Note_on_c, 0, 79, 0
2, 69840, Note_on_c, 0, 80, 64
2, 69840, Note_on_c, 0, 68, 54
2, 69844, Note_on_c, 0, 82, 0
2, 69856, Note_on_c, 0, 70, 0
2, 70290, Note_on_c, 0, 80, 0
2, 70290, Note_on_c, 0, 68, 0
2, 70320, Note_on_c, 0, 65, 48
2, 70320, Note_on_c, 0, 77, 60
2, 70722, Note_on_c, 0, 65, 0
2, 70800, Note_on_c, 0, 79, 68
2, 70800, Note_on_c, 0, 67, 62
2, 70822, Note_on_c, 0, 77, 0
2, 71262, Note_on_c, 0, 67, 0
2, 71280, Note_on_c, 0, 82, 66
2, 71280, Note_on_c, 0, 70, 49
2, 71292, Note_on_c, 0, 79, 0
2, 71652, Note_on_c, 0, 70, 0
2, 71760, Note_on_c, 0, 84, 80
2, 71760, Note_on_c, 0, 72, 52
2, 71772, Note_on_c, 0, 82, 0
2, 72094, Note_on_c, 0, 72, 0
2, 72192, Note_on_c, 0, 84, 0
2, 72240, Note_on_c, 0, 68, 67
2, 72240, Note_on_c, 0, 80, 85
2, 72552, Note_on_c, 0, 68, 0
2, 72720, Note_on_c, 0, 82, 70
2, 72720, Note_on_c, 0, 70, 54
2, 72730, Note_on_c, 0, 80, 0
2, 73170, Note_on_c, 0, 70, 0
2, 73170, Note_on_c, 0, 82, 0
2, 73200, Note_on_c, 0, 86, 71
2, 73200, Note_on_c, 0, 74, 55
2, 73650, Note_on_c, 0, 74, 0
2, 73650, Note_on_c, 0, 86, 0
2, 73680, Note_on_c, 0, 87, 87
2, 73680, Note_on_c, 0, 75, 54
2, 74020, Note_on_c, 0, 75, 0
2, 74064, Note_on_c, 0, 87, 0
2, 74160, Note_on_c, 0, 72, 66
2, 74160, Note_on_c, 0, 84, 66
2, 74512, Note_on_c, 0, 72, 0
2, 74544, Note_on_c, 0, 84, 0
2, 74640, Note_on_c, 0, 86, 80
2, 74640, Note_on_c, 0, 74, 57
2, 74924, Note_on_c, 0, 74, 0
2, 75110, Note_on_c, 0, 86, 0
2, 75120, Note_on_c, 0, 77, 57
2, 75120, Note_on_c, 0, 89, 64
2, 75564, Note_on_c, 0, 77, 0
2, 75600, Note_on_c, 0, 91, 80
2, 75600, Note_on_c, 0, 79, 75
2, 75634, Note_on_c, 0, 89, 0
2, 76080, Note_on_c, 0, 79, 0
2, 76080, Note_on_c, 0, 87, 72
2, 76080, Note_on_c, 0, 75, 67
2, 76114, Note_on_c, 0, 91, 0
2, 76480, Note_on_c, 0, 87, 0
2, 76490, Note_on_c, 0, 75, 0
2, 76560, Note_on_c, 0, 79, 66
2, 76560, Note_on_c, 0, 91, 72
2, 77040, Note_on_c, 0, 91, 0
2, 77040, Note_on_c, 0, 76, 58
2, 77040, Note_on_c, 0, 88, 64
2, 77066, Note_on_c, 0, 79, 0
2, 77372, Note_on_c, 0, 76, 0
2, 77380, Note_on_c, 0, 88, 0
2, 77520, Note_on_c, 0, 92, 84
2, 77520, Note_on_c, 0, 80, 71
2, 78000, Note_on_c, 0, 92, 0
2, 78000, Note_on_c, 0, 89, 51
2, 78000, Note_on_c, 0, 77, 60
2, 78034, Note_on_c, 0, 80, 0
2, 78250, Note_on_c, 0, 89, 0
2, 78262, Note_on_c, 0, 77, 0
2, 78480, Note_on_c, 0, 89, 66
2, 78480, Note_on_c, 0, 77, 78
2, 78936, Note_on_c, 0, 89, 0
2, 78960, Note_on_c, 0, 86, 47
2, 78960, Note_on_c, 0, 74, 57
2, 78976, Note_on_c, 0, 77, 0
2, 79194, Note_on_c, 0, 86, 0
2, 79230, Note_on_c, 0, 74, 0
2, 79440, Note_on_c, 0, 80, 64
2, 79440, Note_on_c, 0, 92, 61
2, 79910, Note_on_c, 0, 80, 0
2, 79920, Note_on_c, 0, 92, 0
2, 79920, Note_on_c, 0, 89, 63
2, 79920, Note_on_c, 0, 77, 68
2, 80052, Note_on_c, 0, 89, 0
2, 80060, Note_on_c, 0, 77, 0
2, 80400, Note_on_c, 0, 89, 72
2, 80400, Note_on_c, 0, 77, 68
2, 80850, Note_on_c, 0, 77, 0
2, 80850, Note_on_c, 0, 89, 0
2, 80880, Note_on_c, 0, 74, 68
2, 80880, Note_on_c, 0, 86, 64
2, 80974, Note_on_c, 0, 74, 0
2, 81060, Note_on_c, 0, 86, 0
2, 81360, Note_on_c, 0, 92, 71
2, 81360, Note_on_c, 0, 80, 67
2, 81394, Note_on_c, 0, 80, 0
2, 81396, Note_on_c, 0, 92, 0
2, 81600, Note_on_c, 0, 92, 71
2, 81600, Note_on_c, 0, 86, 67
2, 81890, Note_on_c, 0, 86, 0
2, 81910, Note_on_c, 0, 92, 0
2, 82080, Note_on_c, 0, 86, 64
2, 82080, Note_on_c, 0, 92, 65
2, 82352, Note_on_c, 0, 86, 0
2, 82362, Note_on_c, 0, 92, 0
2, 82560, Note_on_c, 0, 86, 66
2, 82560, Note_on_c, 0, 92, 72
2, 82880, Note_on_c, 0, 86, 0
2, 82886, Note_on_c, 0, 92, 0
2, 83040, Note_on_c, 0, 86, 69
2, 83040, Note_on_c, 0, 92, 71
2, 83320, Note_on_c, 0, 86, 0
2, 83334, Note_on_c, 0, 92, 0
2, 83520, Note_on_c, 0, 86, 72
2, 83520, Note_on_c, 0, 92, 79
2, 83804, Note_on_c, 0, 86, 0
2, 83812, Note_on_c, 0, 92, 0
2, 84000, Note_on_c, 0, 86, 73
2, 84000, Note_on_c, 0, 92, 81
2, 84282, Note_on_c, 0, 86, 0
2, 84290, Note_on_c, 0, 92, 0
2, 84480, Note_on_c, 0, 86, 73
2, 84480, Note_on_c, 0, 92, 82
2, 84814, Note_on_c, 0, 92, 0
2, 84816, Note_on_c, 0, 86, 0
2, 84960, Note_on_c, 0, 86, 72
2, 84960, Note_on_c, 0, 92, 82
2, 85036, Note_on_c, 0, 86, 0
2, 85052, Note_on_c, 0, 92, 0
2, 85200, Note_on_c, 0, 93, 59
2, 85200, Note_on_c, 0, 91, 74
2, 85200, Note_on_c, 0, 87, 104
2, 85232, Note_on_c, 0, 93, 0
2, 85244, Note_on_c, 0, 87, 0
2, 85260, Note_on_c, 0, 91, 0
2, 85440, Note_on_c, 0, 82, 78
2, 85440, Note_on_c, 0, 91, 86
2, 85726, Note_on_c, 0, 82, 0
2, 85770, Note_on_c, 0, 91, 0
2, 85920, Note_on_c, 0, 82, 57
2, 85970, Note_on_c, 0, 82, 0
2, 86160, Note_on_c, 0, 82, 87
2, 86160, Note_on_c, 0, 79, 65
2, 86892, Note_on_c, 0, 82, 0
2, 86936, Note_on_c, 0, 79, 0
2, 87120, Note_on_c, 0, 91, 77
2, 87120, Note_on_c, 0, 87, 71
2, 87190, Note_on_c, 0, 87, 0
2, 87200, Note_on_c, 0, 91, 0
2, 87360, Note_on_c, 0, 82, 91
2, 87360, Note_on_c, 0, 91, 85
2, 87642, Note_on_c, 0, 82, 0
2, 87670, Note_on_c, 0, 91, 0
2, 87840, Note_on_c, 0, 87, 81
2, 87840, Note_on_c, 0, 82, 78
2, 87912, Note_on_c, 0, 82, 0
2, 87912, Note_on_c, 0, 87, 0
2, 88080, Note_on_c, 0, 82, 81
2, 88080, Note_on_c, 0, 79, 61
2, 88714, Note_on_c, 0, 82, 0
2, 88762, Note_on_c, 0, 79, 0
2, 88920, Note_on_c, 0, 87, 42
2, 88920, Note_on_c, 0, 79, 38
2, 88978, Note_on_c, 0, 79, 0
2, 88978, Note_on_c, 0, 87, 0
2, 88980, Note_on_c, 0, 89, 44
2, 88980, Note_on_c, 0, 80, 54
2, 89038, Note_on_c, 0, 80, 0
2, 89038, Note_on_c, 0, 89, 0
2, 89040, Note_on_c, 0, 91, 68
2, 89040, Note_on_c, 0, 82, 68
2, 89490, Note_on_c, 0, 82, 0
2, 89490, Note_on_c, 0, 91, 0
2, 89520, Note_on_c, 0, 82, 65
2, 89520, Note_on_c, 0, 87, 70
2, 89590, Note_on_c, 0, 82, 0
2, 89620, Note_on_c, 0, 87, 0
2, 89760, Note_on_c, 0, 86, 56
2, 89760, Note_on_c, 0, 82, 50
2, 89826, Note_on_c, 0, 82, 0
2, 89844, Note_on_c, 0, 86, 0
2, 90000, Note_on_c, 0, 84, 60
2, 90000, Note_on_c, 0, 80, 62
2, 90294, Note_on_c, 0, 80, 0
2, 90314, Note_on_c, 0, 84, 0
2, 90480, Note_on_c, 0, 80, 67
2, 90480, Note_on_c, 0, 84, 65
2, 90554, Note_on_c, 0, 80, 0
2, 90564, Note_on_c, 0, 84, 0
2, 90720, Note_on_c, 0, 84, 65
2, 90720, Note_on_c, 0, 80, 63
2, 90794, Note_on_c, 0, 80, 0
2, 90816, Note_on_c, 0, 84, 0
2, 90960, Note_on_c, 0, 86, 68
2, 90960, Note_on_c, 0, 82, 70
2, 91262, Note_on_c, 0, 82, 0
2, 91266, Note_on_c, 0, 86, 0
2, 91440, Note_on_c, 0, 82, 55
2, 91440, Note_on_c, 0, 86, 59
2, 91516, Note_on_c, 0, 82, 0
2, 91532, Note_on_c, 0, 86, 0
2, 91680, Note_on_c, 0, 86, 65
2, 91680, Note_on_c, 0, 82, 64
2, 91754, Note_on_c, 0, 82, 0
2, 91780, Note_on_c, 0, 86, 0
2, 91920, Note_on_c, 0, 87, 80
2, 91920, Note_on_c, 0, 82, 68
2, 92090, Note_on_c, 0, 82, 0
2, 92124, Note_on_c, 0, 87, 0
2, 92760, Note_on_c, 0, 79, 38
2, 92760, Note_on_c, 0, 87, 42
2, 92818, Note_on_c, 0, 87, 0
2, 92818, Note_on_c, 0, 79, 0
2, 92820, Note_on_c, 0, 89, 44
2, 92820, Note_on_c, 0, 80, 54
2, 92878, Note_on_c, 0, 80, 0
2, 92878, Note_on_c, 0, 89, 0
2, 92880, Note_on_c, 0, 91, 68
2, 92880, Note_on_c, 0, 82, 68
2, 93330, Note_on_c, 0, 82, 0
2, 93330, Note_on_c, 0, 91, 0
2, 93360, Note_on_c, 0, 82, 65
2, 93360, Note_on_c, 0, 87, 70
2, 93430, Note_on_c, 0, 82, 0
2, 93460, Note_on_c, 0, 87, 0
2, 93600, Note_on_c, 0, 82, 50
2, 93600, Note_on_c, 0, 86, 56
2, 93666, Note_on_c, 0, 82, 0
2, 93684, Note_on_c, 0, 86, 0
2, 93840, Note_on_c, 0, 84, 60
2, 93840, Note_on_c, 0, 80, 62
2, 94134, Note_on_c, 0, 80, 0
2, 94154, Note_on_c, 0, 84, 0
2, 94320, Note_on_c, 0, 80, 67
2, 94320, Note_on_c, 0, 84, 65
2, 94394, Note_on_c, 0, 80, 0
2, 94404, Note_on_c, 0, 84, 0
2, 94560, Note_on_c, 0, 84, 65
2, 94560, Note_on_c, 0, 80, 63
2, 94634, Note_on_c, 0, 80, 0
2, 94656, Note_on_c, 0, 84, 0
2, 94800, Note_on_c, 0, 92, 59
2, 94800, Note_on_c, 0, 89, 56
2, 95100, Note_on_c, 0, 89, 0
2, 95112, Note_on_c, 0, 92, 0
2, 95280, Note_on_c, 0, 89, 50
2, 95280, Note_on_c, 0, 92, 53
2, 95356, Note_on_c, 0, 89, 0
2, 95370, Note_on_c, 0, 92, 0
2, 95520, Note_on_c, 0, 92, 46
2, 95520, Note_on_c, 0, 89, 47
2, 95602, Note_on_c, 0, 89, 0
2, 95606, Note_on_c, 0, 92, 0
2, 95760, Note_on_c, 0, 75, 85
2, 95760, Note_on_c, 0, 87, 85
2, 98160, Note_on_c, 0, 87, 0
2, 98160, Note_on_c, 0, 75, 0
2, 98160, Note_on_c, 0, 88, 39
2, 98160, Note_on_c, 0, 76, 50
2, 98640, Note_on_c, 0, 76, 0
2, 98640, Note_on_c, 0, 88, 0
2, 98640, Note_on_c, 0, 77, 42
2, 98640, Note_on_c, 0, 89, 47
2, 99120, Note_on_c, 0, 89, 0
2, 99120, Note_on_c, 0, 77, 0
2, 99600, Note_on_c, 0, 77, 85
2, 99600, Note_on_c, 0, 89, 85
2, 102000, Note_on_c, 0, 89, 0
2, 102000, Note_on_c, 0, 77, 0
2, 102000, Note_on_c, 0, 78, 85
2, 102000, Note_on_c, 0, 90, 85
2, 102480, Note_on_c, 0, 90, 0
2, 102480, Note_on_c, 0, 78, 0
2, 102480, Note_on_c, 0, 91, 47
2, 102480, Note_on_c, 0, 79, 42
2, 102960, Note_on_c, 0, 79, 0
2, 102960, Note_on_c, 0, 91, 0
2, 103440, Note_on_c, 0, 91, 60
2, 103440, Note_on_c, 0, 79, 52
2, 104340, Note_on_c, 0, 79, 0
2, 104340, Note_on_c, 0, 91, 0
2, 104400, Note_on_c, 0, 87, 87
2, 104400, Note_on_c, 0, 75, 73
2, 105300, Note_on_c, 0, 75, 0
2, 105300, Note_on_c, 0, 87, 0
2, 105360, Note_on_c, 0, 72, 65
2, 105360, Note_on_c, 0, 84, 68
2, 106122, Note_on_c, 0, 72, 0
2, 106180, Note_on_c, 0, 84, 0
2, 106320, Note_on_c, 0, 81, 71
2, 107124, Note_on_c, 0, 81, 0
2, 107280, Note_on_c, 0, 82, 67
2, 107546, Note_on_c, 0, 82, 0
2, 107760, Note_on_c, 0, 86, 59
2, 107760, Note_on_c, 0, 89, 55
2, 107980, Note_on_c, 0, 86, 0
2, 108032, Note_on_c, 0, 89, 0
2, 108240, Note_on_c, 0, 91, 60
2, 108240, Note_on_c, 0, 87, 64
2, 108386, Note_on_c, 0, 87, 0
2, 108442, Note_on_c, 0, 91, 0
2, 108720, Note_on_c, 0, 91, 64
2, 108720, Note_on_c, 0, 87, 64
2, 108992, Note_on_c, 0, 91, 0
2, 109002, Note_on_c, 0, 87, 0
2, 109200, Note_on_c, 0, 86, 65
2, 109200, Note_on_c, 0, 89, 63
2, 109266, Note_on_c, 0, 86, 0
2, 109280, Note_on_c, 0, 89, 0
2, 109440, Note_on_c, 0, 82, 101
2, 109504, Note_on_c, 0, 82, 0
2, 109680, Note_on_c, 0, 82, 95
2, 109746, Note_on_c, 0, 82, 0
2, 109920, Note_on_c, 0, 82, 101
2, 110000, Note_on_c, 0, 82, 0
2, 110160, Note_on_c, 0, 84, 102
2, 110396, Note_on_c, 0, 84, 0
2, 110400, Note_on_c, 0, 82, 82
2, 110490, Note_on_c, 0, 82, 0
2, 110640, Note_on_c, 0, 79, 75
2, 110734, Note_on_c, 0, 79, 0
2, 110880, Note_on_c, 0, 75, 97
2, 110950, Note_on_c, 0, 75, 0
2, 111120, Note_on_c, 0, 70, 93
2, 111250, Note_on_c, 0, 70, 0
2, 111600, Note_on_c, 0, 86, 55
2, 111600, Note_on_c, 0, 89, 58
2, 111804, Note_on_c, 0, 86, 0
2, 111840, Note_on_c, 0, 89, 0
2, 112080, Note_on_c, 0, 91, 57
2, 112080, Note_on_c, 0, 87, 62
2, 112256, Note_on_c, 0, 87, 0
2, 112286, Note_on_c, 0, 91, 0
2, 112560, Note_on_c, 0, 91, 61
2, 112560, Note_on_c, 0, 87, 67
2, 113010, Note_on_c, 0, 87, 0
2, 113010, Note_on_c, 0, 91, 0
2, 113040, Note_on_c, 0, 89, 80
2, 113040, Note_on_c, 0, 86, 80
2, 113280, Note_on_c, 0, 86, 0
2, 113280, Note_on_c, 0, 89, 0
2, 113520, Note_on_c, 0, 82, 97
2, 113592, Note_on_c, 0, 82, 0
2, 113760, Note_on_c, 0, 82, 99
2, 113986, Note_on_c, 0, 82, 0
2, 114000, Note_on_c, 0, 84, 85
2, 114226, Note_on_c, 0, 84, 0
2, 114240, Note_on_c, 0, 82, 78
2, 114466, Note_on_c, 0, 82, 0
2, 114480, Note_on_c, 0, 79, 66
2, 114706, Note_on_c, 0, 79, 0
2, 114720, Note_on_c, 0, 75, 67
2, 114946, Note_on_c, 0, 75, 0
2, 114960, Note_on_c, 0, 70, 80
2, 115344, Note_on_c, 0, 70, 0
2, 115440, Note_on_c, 0, 86, 37
2, 116328, Control_c, 0, 7, 98
2, 116336, Control_c, 0, 7, 98
2, 116344, Control_c, 0, 7, 98
2, 116352, Control_c, 0, 7, 98
2, 116360, Control_c, 0, 7, 98
2, 116368, Control_c, 0, 7, 98
2, 116376, Control_c, 0, 7, 98
2, 116384, Control_c, 0, 7, 98
2, 116392, Control_c, 0, 7, 98
2, 116400, Control_c, 0, 7, 97
2, 116408, Control_c, 0, 7, 96
2, 116416, Control_c, 0, 7, 95
2, 116424, Control_c, 0, 7, 94
2, 116432, Control_c, 0, 7, 93
2, 116440, Control_c, 0, 7, 93
2, 116448, Control_c, 0, 7, 93
2, 116456, Control_c, 0, 7, 93
2, 116464, Control_c, 0, 7, 93
2, 116472, Control_c, 0, 7, 92
2, 116480, Control_c, 0, 7, 91
2, 116488, Control_c, 0, 7, 90
2, 116496, Control_c, 0, 7, 90
2, 116504, Control_c, 0, 7, 90
2, 116512, Control_c, 0, 7, 90
2, 116520, Control_c, 0, 7, 90
2, 116528, Control_c, 0, 7, 90
2, 116536, Control_c, 0, 7, 91
2, 116544, Control_c, 0, 7, 89
2, 116552, Control_c, 0, 7, 89
2, 116560, Control_c, 0, 7, 89
2, 116568, Control_c, 0, 7, 89
2, 116576, Control_c, 0, 7, 89
2, 116584, Control_c, 0, 7, 89
2, 116592, Control_c, 0, 7, 88
2, 116600, Control_c, 0, 7, 87
2, 116608, Control_c, 0, 7, 87
2, 116616, Control_c, 0, 7, 87
2, 116624, Control_c, 0, 7, 87
2, 116632, Control_c, 0, 7, 87
2, 116640, Control_c, 0, 7, 87
2, 116648, Control_c, 0, 7, 86
2, 116656, Control_c, 0, 7, 86
2, 116664, Control_c, 0, 7, 85
2, 116672, Control_c, 0, 7, 85
2, 116680, Control_c, 0, 7, 85
2, 116688, Control_c, 0, 7, 85
2, 116696, Control_c, 0, 7, 85
2, 116704, Control_c, 0, 7, 83
2, 116712, Control_c, 0, 7, 82
2, 116720, Control_c, 0, 7, 83
2, 116728, Control_c, 0, 7, 81
2, 116736, Control_c, 0, 7, 81
2, 116744, Control_c, 0, 7, 81
2, 116752, Control_c, 0, 7, 81
2, 116760, Control_c, 0, 7, 81
2, 116768, Control_c, 0, 7, 80
2, 116776, Control_c, 0, 7, 79
2, 116784, Control_c, 0, 7, 74
2, 116792, Control_c, 0, 7, 74
2, 116800, Control_c, 0, 7, 74
2, 116808, Control_c, 0, 7, 74
2, 116816, Control_c, 0, 7, 74
2, 116824, Control_c, 0, 7, 75
2, 116832, Control_c, 0, 7, 74
2, 116840, Control_c, 0, 7, 73
2, 116848, Control_c, 0, 7, 74
2, 116856, Control_c, 0, 7, 74
2, 116864, Control_c, 0, 7, 73
2, 116872, Control_c, 0, 7, 74
2, 116880, Control_c, 0, 7, 69
2, 116888, Control_c, 0, 7, 69
2, 116896, Control_c, 0, 7, 69
2, 116904, Control_c, 0, 7, 69
2, 116912, Control_c, 0, 7, 69
2, 116920, Control_c, 0, 7, 68
2, 116928, Control_c, 0, 7, 68
2, 116936, Control_c, 0, 7, 68
2, 116944, Control_c, 0, 7, 68
2, 116952, Control_c, 0, 7, 68
2, 116960, Control_c, 0, 7, 67
2, 116968, Control_c, 0, 7, 67
2, 116976, Control_c, 0, 7, 67
2, 116984, Control_c, 0, 7, 67
2, 116992, Control_c, 0, 7, 67
2, 117000, Control_c, 0, 7, 67
2, 117008, Control_c, 0, 7, 67
2, 117016, Control_c, 0, 7, 67
2, 117024, Control_c, 0, 7, 67
2, 117032, Control_c, 0, 7, 68
2, 117040, Control_c, 0, 7, 63
2, 117048, Control_c, 0, 7, 63
2, 117056, Control_c, 0, 7, 63
2, 117064, Control_c, 0, 7, 63
2, 117072, Control_c, 0, 7, 63
2, 117080, Control_c, 0, 7, 63
2, 117088, Control_c, 0, 7, 63
2, 117096, Control_c, 0, 7, 63
2, 117104, Control_c, 0, 7, 63
2, 117112, Control_c, 0, 7, 63
2, 117120, Control_c, 0, 7, 63
2, 117128, Control_c, 0, 7, 63
2, 117136, Control_c, 0, 7, 63
2, 117144, Control_c, 0, 7, 63
2, 117152, Control_c, 0, 7, 63
2, 117160, Control_c, 0, 7, 63
2, 117168, Control_c, 0, 7, 62
2, 117176, Control_c, 0, 7, 61
2, 117184, Control_c, 0, 7, 60
2, 117192, Control_c, 0, 7, 60
2, 117200, Control_c, 0, 7, 60
2, 117208, Control_c, 0, 7, 60
2, 117216, Control_c, 0, 7, 60
2, 117224, Control_c, 0, 7, 59
2, 117232, Control_c, 0, 7, 59
2, 117240, Control_c, 0, 7, 59
2, 117248, Control_c, 0, 7, 59
2, 117256, Control_c, 0, 7, 59
2, 117264, Control_c, 0, 7, 59
2, 117272, Control_c, 0, 7, 59
2, 117280, Control_c, 0, 7, 58
2, 117288, Control_c, 0, 7, 58
2, 117296, Control_c, 0, 7, 58
2, 117304, Control_c, 0, 7, 58
2, 117312, Control_c, 0, 7, 58
2, 117320, Control_c, 0, 7, 58
2, 117328, Control_c, 0, 7, 58
2, 117336, Control_c, 0, 7, 58
2, 117344, Control_c, 0, 7, 58
2, 117352, Control_c, 0, 7, 57
2, 117360, Control_c, 0, 7, 57
2, 117368, Control_c, 0, 7, 57
2, 117376, Control_c, 0, 7, 57
2, 117384, Control_c, 0, 7, 57
2, 117392, Control_c, 0, 7, 56
2, 117400, Control_c, 0, 7, 55
2, 117408, Control_c, 0, 7, 53
2, 117416, Control_c, 0, 7, 53
2, 117424, Control_c, 0, 7, 53
2, 117432, Control_c, 0, 7, 53
2, 117440, Control_c, 0, 7, 53
2, 117448, Control_c, 0, 7, 53
2, 117456, Control_c, 0, 7, 53
2, 117464, Control_c, 0, 7, 50
2, 117472, Control_c, 0, 7, 50
2, 117480, Control_c, 0, 7, 49
2, 117488, Control_c, 0, 7, 49
2, 117496, Control_c, 0, 7, 49
2, 117504, Control_c, 0, 7, 49
2, 117512, Control_c, 0, 7, 49
2, 117520, Control_c, 0, 7, 49
2, 117528, Control_c, 0, 7, 49
2, 117536, Control_c, 0, 7, 49
2, 117544, Control_c, 0, 7, 49
2, 117552, Control_c, 0, 7, 49
2, 117560, Control_c, 0, 7, 48
2, 117568, Control_c, 0, 7, 48
2, 117576, Control_c, 0, 7, 48
2, 117584, Control_c, 0, 7, 48
2, 117592, Control_c, 0, 7, 48
2, 117600, Control_c, 0, 7, 48
2, 117608, Control_c, 0, 7, 48
2, 117616, Control_c, 0, 7, 48
2, 117624, Control_c, 0, 7, 48
2, 117632, Control_c, 0, 7, 48
2, 117640, Control_c, 0, 7, 47
2, 117648, Control_c, 0, 7, 47
2, 117656, Control_c, 0, 7, 47
2, 117664, Control_c, 0, 7, 47
2, 117672, Control_c, 0, 7, 47
2, 117680, Control_c, 0, 7, 48
2, 117688, Control_c, 0, 7, 48
2, 117696, Control_c, 0, 7, 48
2, 117704, Control_c, 0, 7, 48
2, 117712, Control_c, 0, 7, 48
2, 117720, Control_c, 0, 7, 48
2, 117728, Control_c, 0, 7, 47
2, 117736, Control_c, 0, 7, 46
2, 117744, Control_c, 0, 7, 45
2, 117752, Control_c, 0, 7, 44
2, 117760, Control_c, 0, 7, 43
2, 117768, Control_c, 0, 7, 42
2, 117776, Control_c, 0, 7, 42
2, 117784, Control_c, 0, 7, 42
2, 117792, Control_c, 0, 7, 42
2, 117800, Control_c, 0, 7, 42
2, 117808, Control_c, 0, 7, 42
2, 117816, Control_c, 0, 7, 41
2, 117824, Control_c, 0, 7, 41
2, 117832, Control_c, 0, 7, 41
2, 117840, Control_c, 0, 7, 36
2, 117848, Control_c, 0, 7, 35
2, 117856, Control_c, 0, 7, 36
2, 117864, Control_c, 0, 7, 36
2, 117872, Control_c, 0, 7, 36
2, 117880, Control_c, 0, 7, 36
2, 117888, Control_c, 0, 7, 36
2, 117896, Control_c, 0, 7, 36
2, 117904, Control_c, 0, 7, 36
2, 117912, Control_c, 0, 7, 35
2, 117920, Control_c, 0, 7, 35
2, 117928, Control_c, 0, 7, 35
2, 117936, Control_c, 0, 7, 35
2, 117944, Control_c, 0, 7, 35
2, 117952, Control_c, 0, 7, 35
2, 117960, Control_c, 0, 7, 34
2, 117968, Control_c, 0, 7, 35
2, 117976, Control_c, 0, 7, 33
2, 117984, Control_c, 0, 7, 33
2, 117992, Control_c, 0, 7, 33
2, 118000, Control_c, 0, 7, 33
2, 118008, Control_c, 0, 7, 33
2, 118016, Control_c, 0, 7, 33
2, 118024, Control_c, 0, 7, 33
2, 118032, Control_c, 0, 7, 33
2, 118040, Control_c, 0, 7, 33
2, 118048, Control_c, 0, 7, 33
2, 118056, Control_c, 0, 7, 33
2, 118064, Control_c, 0, 7, 33
2, 118072, Control_c, 0, 7, 33
2, 118080, Control_c, 0, 7, 33
2, 118088, Control_c, 0, 7, 33
2, 118096, Control_c, 0, 7, 32
2, 118104, Control_c, 0, 7, 31
2, 118112, Control_c, 0, 7, 30
2, 118120, Control_c, 0, 7, 29
2, 118128, Control_c, 0, 7, 28
2, 118136, Control_c, 0, 7, 28
2, 118144, Control_c, 0, 7, 28
2, 118152, Control_c, 0, 7, 28
2, 118160, Control_c, 0, 7, 28
2, 118168, Control_c, 0, 7, 28
2, 118176, Control_c, 0, 7, 28
2, 118184, Control_c, 0, 7, 28
2, 118192, Control_c, 0, 7, 28
2, 118200, Control_c, 0, 7, 28
2, 118208, Control_c, 0, 7, 28
2, 118216, Control_c, 0, 7, 28
2, 118224, Control_c, 0, 7, 28
2, 118232, Control_c, 0, 7, 28
2, 118240, Control_c, 0, 7, 27
2, 118248, Control_c, 0, 7, 26
2, 118256, Control_c, 0, 7, 25
2, 118264, Control_c, 0, 7, 24
2, 118272, Control_c, 0, 7, 23
2, 118280, Control_c, 0, 7, 22
2, 118288, Control_c, 0, 7, 23
2, 118296, Control_c, 0, 7, 21
2, 118304, Control_c, 0, 7, 21
2, 118312, Control_c, 0, 7, 21
2, 118320, Control_c, 0, 7, 21
2, 118328, Control_c, 0, 7, 21
2, 118336, Control_c, 0, 7, 21
2, 118344, Control_c, 0, 7, 21
2, 118352, Control_c, 0, 7, 21
2, 118360, Control_c, 0, 7, 21
2, 118368, Control_c, 0, 7, 21
2, 118376, Control_c, 0, 7, 21
2, 118384, Control_c, 0, 7, 22
2, 118392, Control_c, 0, 7, 17
2, 118400, Control_c, 0, 7, 17
2, 118408, Control_c, 0, 7, 16
2, 118416, Control_c, 0, 7, 15
2, 118424, Control_c, 0, 7, 15
2, 118432, Control_c, 0, 7, 15
2, 118440, Control_c, 0, 7, 16
2, 118448, Control_c, 0, 7, 16
2, 118456, Control_c, 0, 7, 16
2, 118464, Control_c, 0, 7, 16
2, 118472, Control_c, 0, 7, 16
2, 118480, Control_c, 0, 7, 16
2, 118488, Control_c, 0, 7, 15
2, 118496, Control_c, 0, 7, 15
2, 118504, Control_c, 0, 7, 15
2, 118512, Control_c, 0, 7, 15
2, 118520, Control_c, 0, 7, 15
2, 118528, Control_c, 0, 7, 14
2, 118536, Control_c, 0, 7, 14
2, 118544, Control_c, 0, 7, 15
2, 118552, Control_c, 0, 7, 15
2, 118560, Control_c, 0, 7, 15
2, 118568, Control_c, 0, 7, 15
2, 118576, Control_c, 0, 7, 15
2, 118584, Control_c, 0, 7, 13
2, 118592, Control_c, 0, 7, 13
2, 118600, Control_c, 0, 7, 11
2, 118608, Control_c, 0, 7, 11
2, 118616, Control_c, 0, 7, 11
2, 118624, Control_c, 0, 7, 10
2, 118632, Control_c, 0, 7, 10
2, 118640, Control_c, 0, 7, 8
2, 118648, Control_c, 0, 7, 8
2, 118656, Control_c, 0, 7, 8
2, 118664, Control_c, 0, 7, 8
2, 118672, Control_c, 0, 7, 8
2, 118676, Note_on_c, 0, 86, 0
2, 118680, Control_c, 0, 7, 8
2, 118688, Control_c, 0, 7, 7
2, 118696, Control_c, 0, 7, 7
2, 118704, Control_c, 0, 7, 7
2, 118712, Control_c, 0, 7, 7
2, 118720, Control_c, 0, 7, 8
2, 118728, Control_c, 0, 7, 8
2, 118736, Control_c, 0, 7, 6
2, 118744, Control_c, 0, 7, 6
2, 118752, Control_c, 0, 7, 6
2, 118760, Control_c, 0, 7, 6
2, 118768, Control_c, 0, 7, 6
2, 118776, Control_c, 0, 7, 5
2, 118784, Control_c, 0, 7, 5
2, 118792, Control_c, 0, 7, 4
2, 118800, Control_c, 0, 7, 4
2, 118800, Note_on_c, 0, 86, 58
2, 118800, Note_on_c, 0, 82, 58
2, 118808, Control_c, 0, 7, 4
2, 118816, Control_c, 0, 7, 4
2, 118824, Control_c, 0, 7, 4
2, 118832, Control_c, 0, 7, 4
2, 118840, Control_c, 0, 7, 3
2, 118848, Control_c, 0, 7, 2
2, 118856, Control_c, 0, 7, 1
2, 118864, Control_c, 0, 7, 1
2, 118872, Control_c, 0, 7, 0
2, 118880, Control_c, 0, 7, 0
2, 118888, Control_c, 0, 7, 0
2, 118896, Control_c, 0, 7, 0
2, 118904, Control_c, 0, 7, 0
2, 118912, Control_c, 0, 7, 0
2, 118920, Control_c, 0, 7, 0
2, 118928, Control_c, 0, 7, 0
2, 118936, Control_c, 0, 7, 0
2, 118944, Control_c, 0, 7, 1
2, 118952, Control_c, 0, 7, 3
2, 118960, Control_c, 0, 7, 4
2, 118968, Control_c, 0, 7, 5
2, 118976, Control_c, 0, 7, 6
2, 118984, Control_c, 0, 7, 13
2, 118992, Control_c, 0, 7, 20
2, 119000, Control_c, 0, 7, 25
2, 119008, Control_c, 0, 7, 38
2, 119016, Control_c, 0, 7, 40
2, 119024, Control_c, 0, 7, 40
2, 119032, Control_c, 0, 7, 40
2, 119040, Note_on_c, 0, 82, 0
2, 119040, Control_c, 0, 7, 40
2, 119040, Note_on_c, 0, 87, 55
2, 119040, Note_on_c, 0, 84, 44
2, 119048, Control_c, 0, 7, 40
2, 119054, Note_on_c, 0, 86, 0
2, 119056, Control_c, 0, 7, 71
2, 119064, Control_c, 0, 7, 72
2, 119072, Control_c, 0, 7, 73
2, 119080, Control_c, 0, 7, 74
2, 119088, Control_c, 0, 7, 82
2, 119096, Control_c, 0, 7, 83
2, 119104, Control_c, 0, 7, 86
2, 119112, Control_c, 0, 7, 86
2, 119120, Control_c, 0, 7, 86
2, 119128, Control_c, 0, 7, 86
2, 119130, Note_on_c, 0, 84, 0
2, 119136, Control_c, 0, 7, 89
2, 119144, Control_c, 0, 7, 95
2, 119150, Note_on_c, 0, 87, 0
2, 119152, Control_c, 0, 7, 97
2, 119160, Control_c, 0, 7, 97
2, 119168, Control_c, 0, 7, 97
2, 119176, Control_c, 0, 7, 97
2, 119184, Control_c, 0, 7, 100
2, 119192, Control_c, 0, 7, 100
2, 119200, Control_c, 0, 7, 101
2, 119280, Note_on_c, 0, 89, 53
2, 119280, Note_on_c, 0, 86, 59
2, 119356, Note_on_c, 0, 86, 0
2, 119360, Note_on_c, 0, 89, 0
2, 119520, Note_on_c, 0, 89, 55
2, 119520, Note_on_c, 0, 86, 59
2, 119590, Note_on_c, 0, 86, 0
2, 119602, Note_on_c, 0, 89, 0
2, 119760, Note_on_c, 0, 89, 58
2, 119760, Note_on_c, 0, 86, 59
2, 120000, Note_on_c, 0, 86, 0
2, 120000, Note_on_c, 0, 87, 48
2, 120000, Note_on_c, 0, 84, 48
2, 120030, Note_on_c, 0, 89, 0
2, 120240, Note_on_c, 0, 84, 0
2, 120240, Note_on_c, 0, 87, 0
2, 120240, Note_on_c, 0, 86, 56
2, 120240, Note_on_c, 0, 82, 56
2, 120480, Note_on_c, 0, 84, 51
2, 120480, Note_on_c, 0, 81, 47
2, 120504, Note_on_c, 0, 82, 0
2, 120516, Note_on_c, 0, 86, 0
2, 120690, Note_on_c, 0, 84, 0
2, 120690, Note_on_c, 0, 81, 0
2, 120720, Note_on_c, 0, 82, 61
2, 120720, Note_on_c, 0, 79, 58
2, 120960, Note_on_c, 0, 84, 61
2, 120960, Note_on_c, 0, 81, 51
2, 120990, Note_on_c, 0, 79, 0
2, 120990, Note_on_c, 0, 82, 0
2, 121110, Note_on_c, 0, 81, 0
2, 121116, Note_on_c, 0, 84, 0
2, 121200, Note_on_c, 0, 86, 56
2, 121200, Note_on_c, 0, 82, 53
2, 121260, Note_on_c, 0, 82, 0
2, 121266, Note_on_c, 0, 86, 0
2, 121440, Note_on_c, 0, 86, 60
2, 121440, Note_on_c, 0, 82, 59
2, 121500, Note_on_c, 0, 82, 0
2, 121506, Note_on_c, 0, 86, 0
2, 121680, Note_on_c, 0, 86, 64
2, 121680, Note_on_c, 0, 82, 68
2, 121920, Note_on_c, 0, 82, 0
2, 121920, Note_on_c, 0, 86, 0
2, 121920, Note_on_c, 0, 84, 54
2, 121920, Note_on_c, 0, 81, 48
2, 122160, Note_on_c, 0, 82, 50
2, 122160, Note_on_c, 0, 79, 50
2, 122190, Note_on_c, 0, 81, 0
2, 122190, Note_on_c, 0, 84, 0
2, 122400, Note_on_c, 0, 82, 0
2, 122400, Note_on_c, 0, 81, 50
2, 122400, Note_on_c, 0, 77, 25
2, 122430, Note_on_c, 0, 79, 0
2, 122610, Note_on_c, 0, 77, 0
2, 122610, Note_on_c, 0, 81, 0
2, 122640, Note_on_c, 0, 79, 39
2, 122640, Note_on_c, 0, 75, 39
2, 122880, Note_on_c, 0, 79, 0
2, 122880, Note_on_c, 0, 81, 45
2, 122880, Note_on_c, 0, 77, 45
2, 122910, Note_on_c, 0, 75, 0
2, 123120, Note_on_c, 0, 82, 50
2, 123120, Note_on_c, 0, 79, 50
2, 123150, Note_on_c, 0, 77, 0
2, 123150, Note_on_c, 0, 81, 0
2, 123360, Note_on_c, 0, 82, 0
2, 123360, Note_on_c, 0, 79, 0
2, 123360, Note_on_c, 0, 84, 55
2, 123360, Note_on_c, 0, 81, 55
2, 123600, Note_on_c, 0, 86, 60
2, 123600, Note_on_c, 0, 82, 60
2, 123630, Note_on_c, 0, 81, 0
2, 123630, Note_on_c, 0, 84, 0
2, 123840, Note_on_c, 0, 87, 65
2, 123840, Note_on_c, 0, 84, 65
2, 123862, Note_on_c, 0, 86, 0
2, 123870, Note_on_c, 0, 82, 0
2, 124080, Note_on_c, 0, 89, 70
2, 124080, Note_on_c, 0, 86, 70
2, 124110, Note_on_c, 0, 87, 0
2, 124110, Note_on_c, 0, 84, 0
2, 124320, Note_on_c, 0, 91, 75
2, 124320, Note_on_c, 0, 87, 75
2, 124350, Note_on_c, 0, 89, 0
2, 124350, Note_on_c, 0, 86, 0
2, 124470, Note_on_c, 0, 91, 0
2, 124470, Note_on_c, 0, 87, 0
2, 124560, Note_on_c, 0, 91, 48
2, 124560, Note_on_c, 0, 87, 47
2, 124800, Note_on_c, 0, 89, 41
2, 124800, Note_on_c, 0, 86, 42
2, 124830, Note_on_c, 0, 87, 0
2, 124830, Note_on_c, 0, 91, 0
2, 124904, Note_on_c, 0, 86, 0
2, 124920, Note_on_c, 0, 89, 0
2, 125040, Note_on_c, 0, 87, 57
2, 125040, Note_on_c, 0, 84, 42
2, 125130, Note_on_c, 0, 84, 0
2, 125130, Note_on_c, 0, 87, 0
2, 125280, Note_on_c, 0, 86, 47
2, 125280, Note_on_c, 0, 82, 59
2, 125360, Note_on_c, 0, 82, 0
2, 125366, Note_on_c, 0, 86, 0
2, 125520, Note_on_c, 0, 84, 35
2, 125520, Note_on_c, 0, 81, 30
2, 125746, Note_on_c, 0, 81, 0
2, 125746, Note_on_c, 0, 84, 0
2, 138000, Note_on_c, 0, 75, 49
2, 138000, Note_on_c, 0, 79, 49
2, 138240, Note_on_c, 0, 79, 0
2, 138240, Note_on_c, 0, 75, 0
2, 138240, Note_on_c, 0, 81, 54
2, 138240, Note_on_c, 0, 77, 54
2, 138480, Note_on_c, 0, 77, 0
2, 138480, Note_on_c, 0, 81, 0
2, 138480, Note_on_c, 0, 79, 59
2, 138480, Note_on_c, 0, 82, 59
2, 138720, Note_on_c, 0, 82, 0
2, 138720, Note_on_c, 0, 79, 0
2, 138720, Note_on_c, 0, 84, 65
2, 138720, Note_on_c, 0, 81, 65
2, 138960, Note_on_c, 0, 81, 0
2, 138960, Note_on_c, 0, 84, 0
2, 138960, Note_on_c, 0, 86, 70
2, 138960, Note_on_c, 0, 82, 70
2, 139200, Note_on_c, 0, 82, 0
2, 139200, Note_on_c, 0, 86, 0
2, 139200, Note_on_c, 0, 87, 75
2, 139200, Note_on_c, 0, 84, 75
2, 139440, Note_on_c, 0, 84, 0
2, 139440, Note_on_c, 0, 87, 0
2, 139440, Note_on_c, 0, 86, 81
2, 139440, Note_on_c, 0, 89, 81
2, 139680, Note_on_c, 0, 89, 0
2, 139680, Note_on_c, 0, 86, 0
2, 139680, Note_on_c, 0, 91, 86
2, 139680, Note_on_c, 0, 87, 86
2, 139824, Note_on_c, 0, 91, 0
2, 139842, Note_on_c, 0, 87, 0
2, 139920, Note_on_c, 0, 87, 59
2, 139920, Note_on_c, 0, 91, 60
2, 140140, Note_on_c, 0, 91, 0
2, 140160, Note_on_c, 0, 86, 54
2, 140160, Note_on_c, 0, 89, 50
2, 140190, Note_on_c, 0, 87, 0
2, 140242, Note_on_c, 0, 89, 0
2, 140244, Note_on_c, 0, 86, 0
2, 140400, Note_on_c, 0, 87, 51
2, 140400, Note_on_c, 0, 84, 50
2, 140472, Note_on_c, 0, 84, 0
2, 140476, Note_on_c, 0, 87, 0
2, 140640, Note_on_c, 0, 82, 41
2, 140640, Note_on_c, 0, 86, 51
2, 140706, Note_on_c, 0, 82, 0
2, 140724, Note_on_c, 0, 86, 0
2, 140880, Note_on_c, 0, 84, 41
2, 140880, Note_on_c, 0, 81, 35
2, 141050, Note_on_c, 0, 81, 0
2, 141060, Note_on_c, 0, 84, 0
2, 141840, Note_on_c, 0, 82, 90
2, 142626, Note_on_c, 0, 82, 0
2, 142800, Note_on_c, 0, 89, 65
2, 143592, Note_on_c, 0, 89, 0
2, 143760, Note_on_c, 0, 91, 74
2, 144582, Note_on_c, 0, 91, 0
2, 144720, Note_on_c, 0, 86, 63
2, 145486, Note_on_c, 0, 86, 0
2, 146160, Note_on_c, 0, 79, 66
2, 146234, Note_on_c, 0, 79, 0
2, 146400, Note_on_c, 0, 79, 65
2, 146472, Note_on_c, 0, 79, 0
2, 146640, Note_on_c, 0, 79, 60
2, 146710, Note_on_c, 0, 79, 0
2, 146880, Note_on_c, 0, 81, 66
2, 146956, Note_on_c, 0, 81, 0
2, 147120, Note_on_c, 0, 82, 62
2, 147184, Note_on_c, 0, 82, 0
2, 147360, Note_on_c, 0, 84, 65
2, 147430, Note_on_c, 0, 84, 0
2, 147600, Note_on_c, 0, 86, 46
2, 147970, Note_on_c, 0, 86, 0
2, 150000, Note_on_c, 0, 79, 83
2, 150074, Note_on_c, 0, 79, 0
2, 150240, Note_on_c, 0, 81, 81
2, 150312, Note_on_c, 0, 81, 0
2, 150480, Note_on_c, 0, 82, 75
2, 150550, Note_on_c, 0, 82, 0
2, 150720, Note_on_c, 0, 84, 83
2, 150796, Note_on_c, 0, 84, 0
2, 150960, Note_on_c, 0, 86, 78
2, 151024, Note_on_c, 0, 86, 0
2, 151200, Note_on_c, 0, 87, 81
2, 151270, Note_on_c, 0, 87, 0
2, 151440, Note_on_c, 0, 81, 58
2, 151810, Note_on_c, 0, 81, 0
2, 155280, Note_on_c, 0, 89, 39
2, 155664, Note_on_c, 0, 89, 0
2, 155760, Note_on_c, 0, 89, 49
2, 157584, Note_on_c, 0, 89, 0
2, 157680, Note_on_c, 0, 89, 49
2, 158064, Note_on_c, 0, 89, 0
2, 158160, Note_on_c, 0, 89, 49
2, 159504, Note_on_c, 0, 89, 0
2, 159600, Note_on_c, 0, 89, 39
2, 159984, Note_on_c, 0, 89, 0
2, 160080, Note_on_c, 0, 89, 39
2, 161424, Note_on_c, 0, 89, 0
2, 161520, Note_on_c, 0, 89, 83
2, 162000, Note_on_c, 0, 89, 0
2, 162000, Note_on_c, 0, 87, 70
2, 162480, Note_on_c, 0, 87, 0
2, 162480, Note_on_c, 0, 86, 65
2, 162960, Note_on_c, 0, 86, 0
2, 162960, Note_on_c, 0, 84, 58
2, 163440, Note_on_c, 0, 84, 0
2, 163440, Note_on_c, 0, 82, 58
2, 163920, Note_on_c, 0, 82, 0
2, 163920, Note_on_c, 0, 81, 61
2, 164400, Note_on_c, 0, 81, 0
2, 164400, Note_on_c, 0, 82, 54
2, 164734, Note_on_c, 0, 82, 0
2, 164880, Note_on_c, 0, 84, 76
2, 165360, Note_on_c, 0, 84, 0
2, 165360, Note_on_c, 0, 82, 76
2, 165840, Note_on_c, 0, 82, 0
2, 165840, Note_on_c, 0, 81, 67
2, 165840, Note_on_c, 0, 93, 67
2, 166320, Note_on_c, 0, 93, 0
2, 166320, Note_on_c, 0, 81, 0
2, 166320, Note_on_c, 0, 91, 62
2, 166320, Note_on_c, 0, 79, 62
2, 166800, Note_on_c, 0, 79, 0
2, 166800, Note_on_c, 0, 91, 0
2, 166800, Note_on_c, 0, 77, 65
2, 166800, Note_on_c, 0, 89, 65
2, 167280, Note_on_c, 0, 89, 0
2, 167280, Note_on_c, 0, 77, 0
2, 167280, Note_on_c, 0, 87, 61
2, 167760, Note_on_c, 0, 87, 0
2, 167760, Note_on_c, 0, 86, 62
2, 168240, Note_on_c, 0, 86, 0
2, 168240, Note_on_c, 0, 84, 69
2, 168720, Note_on_c, 0, 82, 66
2, 168732, Note_on_c, 0, 84, 0
2, 169200, Note_on_c, 0, 82, 0
2, 169200, Note_on_c, 0, 86, 70
2, 169680, Note_on_c, 0, 86, 0
2, 169680, Note_on_c, 0, 89, 50
2, 170160, Note_on_c, 0, 89, 0
2, 170160, Note_on_c, 0, 82, 62
2, 170640, Note_on_c, 0, 82, 0
2, 170640, Note_on_c, 0, 86, 62
2, 171120, Note_on_c, 0, 86, 0
2, 171120, Note_on_c, 0, 89, 73
2, 171554, Note_on_c, 0, 89, 0
2, 171600, Note_on_c, 0, 89, 81
2, 171916, Note_on_c, 0, 89, 0
2, 172080, Note_on_c, 0, 89, 70
2, 172482, Note_on_c, 0, 89, 0
2, 172944, Note_on_c, 0, 89, 64
2, 172945, Note_on_c, 0, 89, 0
2, 173040, Note_on_c, 0, 89, 83
2, 173520, Note_on_c, 0, 89, 0
2, 173520, Note_on_c, 0, 87, 70
2, 174000, Note_on_c, 0, 87, 0
2, 174000, Note_on_c, 0, 86, 65
2, 174480, Note_on_c, 0, 86, 0
2, 174480, Note_on_c, 0, 84, 58
2, 174960, Note_on_c, 0, 84, 0
2, 174960, Note_on_c, 0, 82, 58
2, 175440, Note_on_c, 0, 82, 0
2, 175440, Note_on_c, 0, 81, 61
2, 175920, Note_on_c, 0, 81, 0
2, 175920, Note_on_c, 0, 82, 54
2, 176254, Note_on_c, 0, 82, 0
2, 176400, Note_on_c, 0, 84, 76
2, 176880, Note_on_c, 0, 84, 0
2, 176880, Note_on_c, 0, 82, 76
2, 177360, Note_on_c, 0, 82, 0
2, 177360, Note_on_c, 0, 81, 67
2, 177360, Note_on_c, 0, 93, 67
2, 177840, Note_on_c, 0, 93, 0
2, 177840, Note_on_c, 0, 81, 0
2, 177840, Note_on_c, 0, 79, 62
2, 177840, Note_on_c, 0, 91, 62
2, 178320, Note_on_c, 0, 91, 0
2, 178320, Note_on_c, 0, 79, 0
2, 178320, Note_on_c, 0, 77, 65
2, 178320, Note_on_c, 0, 89, 65
2, 178800, Note_on_c, 0, 89, 0
2, 178800, Note_on_c, 0, 77, 0
2, 178800, Note_on_c, 0, 87, 61
2, 179280, Note_on_c, 0, 87, 0
2, 179280, Note_on_c, 0, 86, 62
2, 179760, Note_on_c, 0, 86, 0
2, 179760, Note_on_c, 0, 84, 69
2, 180240, Note_on_c, 0, 82, 66
2, 180252, Note_on_c, 0, 84, 0
2, 180720, Note_on_c, 0, 82, 0
2, 180720, Note_on_c, 0, 86, 70
2, 181200, Note_on_c, 0, 86, 0
2, 181200, Note_on_c, 0, 89, 50
2, 181680, Note_on_c, 0, 89, 0
2, 181680, Note_on_c, 0, 82, 62
2, 182160, Note_on_c, 0, 82, 0
2, 182160, Note_on_c, 0, 86, 62
2, 182640, Note_on_c, 0, 86, 0
2, 182640, Note_on_c, 0, 89, 73
2, 183074, Note_on_c, 0, 89, 0
2, 183120, Note_on_c, 0, 89, 81
2, 183436, Note_on_c, 0, 89, 0
2, 183600, Note_on_c, 0, 89, 70
2, 184002, Note_on_c, 0, 89, 0
2, 184080, Note_on_c, 0, 86, 53
2, 184080, Note_on_c, 0, 89, 56
2, 184234, Note_on_c, 0, 89, 0
2, 184240, Note_on_c, 0, 86, 0
2, 184560, Note_on_c, 0, 86, 51
2, 184560, Note_on_c, 0, 89, 72
2, 185040, Note_on_c, 0, 89, 0
2, 185040, Note_on_c, 0, 86, 0
2, 185040, Note_on_c, 0, 87, 53
2, 185040, Note_on_c, 0, 89, 51
2, 185256, Note_on_c, 0, 87, 0
2, 185280, Note_on_c, 0, 89, 0
2, 185520, Note_on_c, 0, 87, 60
2, 185520, Note_on_c, 0, 89, 82
2, 186000, Note_on_c, 0, 89, 0
2, 186000, Note_on_c, 0, 87, 0
2, 186000, Note_on_c, 0, 86, 60
2, 186000, Note_on_c, 0, 89, 55
2, 186040, Note_on_c, 0, 86, 0
2, 186190, Note_on_c, 0, 89, 0
2, 186480, Note_on_c, 0, 86, 60
2, 186480, Note_on_c, 0, 89, 80
2, 186960, Note_on_c, 0, 89, 0
2, 186960, Note_on_c, 0, 86, 0
2, 186960, Note_on_c, 0, 89, 52
2, 186960, Note_on_c, 0, 84, 44
2, 187184, Note_on_c, 0, 84, 0
2, 187190, Note_on_c, 0, 89, 0
2, 187440, Note_on_c, 0, 89, 74
2, 187440, Note_on_c, 0, 84, 49
2, 187920, Note_on_c, 0, 89, 0
2, 187920, Note_on_c, 0, 89, 46
2, 187920, Note_on_c, 0, 86, 53
2, 187932, Note_on_c, 0, 84, 0
2, 188156, Note_on_c, 0, 86, 0
2, 188190, Note_on_c, 0, 89, 0
2, 188400, Note_on_c, 0, 86, 56
2, 188400, Note_on_c, 0, 89, 78
2, 188854, Note_on_c, 0, 86, 0
2, 188880, Note_on_c, 0, 89, 0
2, 188880, Note_on_c, 0, 89, 56
2, 188880, Note_on_c, 0, 87, 58
2, 189080, Note_on_c, 0, 87, 0
2, 189090, Note_on_c, 0, 89, 0
2, 189360, Note_on_c, 0, 89, 82
2, 189360, Note_on_c, 0, 87, 60
2, 189840, Note_on_c, 0, 87, 0
2, 189840, Note_on_c, 0, 89, 0
2, 189840, Note_on_c, 0, 89, 62
2, 189840, Note_on_c, 0, 86, 47
2, 189992, Note_on_c, 0, 89, 0
2, 190050, Note_on_c, 0, 86, 0
2, 190320, Note_on_c, 0, 89, 75
2, 190320, Note_on_c, 0, 86, 54
2, 190800, Note_on_c, 0, 86, 0
2, 190800, Note_on_c, 0, 89, 60
2, 190800, Note_on_c, 0, 84, 55
2, 190802, Note_on_c, 0, 89, 0
2, 190934, Note_on_c, 0, 89, 0
2, 190956, Note_on_c, 0, 84, 0
2, 191280, Note_on_c, 0, 89, 70
2, 191280, Note_on_c, 0, 84, 50
2, 191720, Note_on_c, 0, 84, 0
2, 191760, Note_on_c, 0, 89, 0
2, 191760, Note_on_c, 0, 86, 68
2, 191760, Note_on_c, 0, 82, 66
2, 191824, Note_on_c, 0, 82, 0
2, 191844, Note_on_c, 0, 86, 0
2, 192000, Note_on_c, 0, 82, 72
2, 192000, Note_on_c, 0, 86, 73
2, 192302, Note_on_c, 0, 86, 0
2, 192302, Note_on_c, 0, 82, 0
2, 192480, Note_on_c, 0, 86, 68
2, 192480, Note_on_c, 0, 82, 66
2, 192792, Note_on_c, 0, 86, 0
2, 192802, Note_on_c, 0, 82, 0
2, 192960, Note_on_c, 0, 86, 73
2, 192960, Note_on_c, 0, 82, 72
2, 193262, Note_on_c, 0, 82, 0
2, 193262, Note_on_c, 0, 86, 0
2, 193440, Note_on_c, 0, 82, 66
2, 193440, Note_on_c, 0, 86, 68
2, 193752, Note_on_c, 0, 86, 0
2, 193762, Note_on_c, 0, 82, 0
2, 193920, Note_on_c, 0, 86, 73
2, 193920, Note_on_c, 0, 82, 72
2, 194222, Note_on_c, 0, 82, 0
2, 194222, Note_on_c, 0, 86, 0
2, 194400, Note_on_c, 0, 86, 68
2, 194400, Note_on_c, 0, 82, 66
2, 194712, Note_on_c, 0, 86, 0
2, 194722, Note_on_c, 0, 82, 0
2, 194880, Note_on_c, 0, 86, 73
2, 194880, Note_on_c, 0, 82, 72
2, 195182, Note_on_c, 0, 82, 0
2, 195182, Note_on_c, 0, 86, 0
2, 195360, Note_on_c, 0, 86, 68
2, 195360, Note_on_c, 0, 82, 66
2, 195672, Note_on_c, 0, 86, 0
2, 195682, Note_on_c, 0, 82, 0
2, 196080, Note_on_c, 0, 82, 55
2, 196080, Note_on_c, 0, 70, 51
2, 196294, Note_on_c, 0, 70, 0
2, 196312, Note_on_c, 0, 82, 0
2, 196560, Note_on_c, 0, 82, 57
2, 196560, Note_on_c, 0, 70, 52
2, 196736, Note_on_c, 0, 70, 0
2, 196760, Note_on_c, 0, 82, 0
2, 197040, Note_on_c, 0, 82, 56
2, 197040, Note_on_c, 0, 70, 55
2, 197214, Note_on_c, 0, 70, 0
2, 197240, Note_on_c, 0, 82, 0
2, 197520, Note_on_c, 0, 82, 64
2, 197520, Note_on_c, 0, 70, 62
2, 197790, Note_on_c, 0, 70, 0
2, 197804, Note_on_c, 0, 82, 0
2, 203981, Control_c, 0, 7, 105
2, 204000, Note_on_c, 0, 91, 71
2, 204000, Note_on_c, 0, 79, 71
2, 204021, Control_c, 0, 7, 104
2, 204061, Control_c, 0, 7, 103
2, 204101, Control_c, 0, 7, 102
2, 204129, Control_c, 0, 7, 101
2, 204169, Control_c, 0, 7, 100
2, 204209, Control_c, 0, 7, 99
2, 204249, Control_c, 0, 7, 98
2, 204277, Control_c, 0, 7, 97
2, 204317, Control_c, 0, 7, 96
2, 204357, Control_c, 0, 7, 95
2, 204397, Control_c, 0, 7, 94
2, 204421, Control_c, 0, 7, 93
2, 204461, Control_c, 0, 7, 92
2, 204501, Control_c, 0, 7, 91
2, 204541, Control_c, 0, 7, 90
2, 204569, Control_c, 0, 7, 89
2, 204609, Control_c, 0, 7, 88
2, 204649, Control_c, 0, 7, 87
2, 204689, Control_c, 0, 7, 86
2, 204717, Control_c, 0, 7, 85
2, 204757, Control_c, 0, 7, 84
2, 204797, Control_c, 0, 7, 83
2, 204837, Control_c, 0, 7, 82
2, 204861, Control_c, 0, 7, 81
2, 204901, Control_c, 0, 7, 80
2, 204941, Control_c, 0, 7, 79
2, 204981, Control_c, 0, 7, 78
2, 205009, Control_c, 0, 7, 77
2, 205049, Control_c, 0, 7, 76
2, 205089, Control_c, 0, 7, 75
2, 205129, Control_c, 0, 7, 74
2, 205157, Control_c, 0, 7, 73
2, 205197, Control_c, 0, 7, 72
2, 205237, Control_c, 0, 7, 71
2, 205261, Control_c, 0, 7, 70
2, 205301, Control_c, 0, 7, 69
2, 205341, Control_c, 0, 7, 68
2, 205381, Control_c, 0, 7, 67
2, 205409, Control_c, 0, 7, 66
2, 205449, Control_c, 0, 7, 65
2, 205489, Control_c, 0, 7, 64
2, 205529, Control_c, 0, 7, 63
2, 205557, Control_c, 0, 7, 62
2, 205597, Control_c, 0, 7, 61
2, 205637, Control_c, 0, 7, 60
2, 205677, Control_c, 0, 7, 59
2, 205701, Control_c, 0, 7, 58
2, 205741, Control_c, 0, 7, 57
2, 205781, Control_c, 0, 7, 56
2, 205821, Control_c, 0, 7, 55
2, 205849, Control_c, 0, 7, 54
2, 205889, Control_c, 0, 7, 53
2, 205929, Control_c, 0, 7, 52
2, 205969, Control_c, 0, 7, 51
2, 205997, Control_c, 0, 7, 50
2, 206037, Control_c, 0, 7, 49
2, 206077, Control_c, 0, 7, 48
2, 206117, Control_c, 0, 7, 47
2, 206141, Control_c, 0, 7, 46
2, 206181, Control_c, 0, 7, 45
2, 206221, Control_c, 0, 7, 44
2, 206261, Control_c, 0, 7, 43
2, 206289, Control_c, 0, 7, 42
2, 206329, Control_c, 0, 7, 41
2, 206369, Control_c, 0, 7, 40
2, 206409, Control_c, 0, 7, 39
2, 206437, Control_c, 0, 7, 38
2, 206477, Control_c, 0, 7, 37
2, 206517, Control_c, 0, 7, 36
2, 206541, Control_c, 0, 7, 35
2, 206581, Control_c, 0, 7, 34
2, 206621, Control_c, 0, 7, 33
2, 206661, Control_c, 0, 7, 32
2, 206689, Control_c, 0, 7, 31
2, 206729, Control_c, 0, 7, 30
2, 206769, Control_c, 0, 7, 29
2, 206809, Control_c, 0, 7, 28
2, 206837, Control_c, 0, 7, 27
2, 206877, Control_c, 0, 7, 26
2, 206917, Control_c, 0, 7, 25
2, 206957, Control_c, 0, 7, 24
2, 206981, Control_c, 0, 7, 23
2, 207021, Control_c, 0, 7, 22
2, 207061, Control_c, 0, 7, 21
2, 207101, Control_c, 0, 7, 20
2, 207129, Control_c, 0, 7, 19
2, 207169, Control_c, 0, 7, 18
2, 207209, Control_c, 0, 7, 17
2, 207249, Control_c, 0, 7, 16
2, 207277, Control_c, 0, 7, 15
2, 207317, Control_c, 0, 7, 14
2, 207357, Control_c, 0, 7, 13
2, 207397, Control_c, 0, 7, 12
2, 207421, Control_c, 0, 7, 11
2, 207461, Control_c, 0, 7, 10
2, 207501, Control_c, 0, 7, 9
2, 207541, Control_c, 0, 7, 8
2, 207569, Control_c, 0, 7, 7
2, 207609, Control_c, 0, 7, 6
2, 207649, Control_c, 0, 7, 5
2, 207689, Control_c, 0, 7, 4
2, 207717, Control_c, 0, 7, 3
2, 207757, Control_c, 0, 7, 2
2, 207780, Note_on_c, 0, 79, 0
2, 207780, Note_on_c, 0, 91, 0
2, 207797, Control_c, 0, 7, 1
2, 207821, Control_c, 0, 7, 0
2, 207837, Control_c, 0, 7, 0
2, 207849, Control_c, 0, 7, 33
2, 207861, Control_c, 0, 7, 68
2, 207877, Control_c, 0, 7, 103
2, 217920, Note_on_c, 0, 84, 67
2, 218040, Note_on_c, 0, 82, 52
2, 218044, Note_on_c, 0, 84, 0
2, 218160, Note_on_c, 0, 82, 0
2, 218160, Note_on_c, 0, 81, 67
2, 218360, Note_on_c, 0, 81, 0
2, 218360, Note_on_c, 0, 82, 56
2, 218400, Note_on_c, 0, 82, 0
2, 218400, Note_on_c, 0, 81, 64
2, 218520, Note_on_c, 0, 79, 58
2, 218544, Note_on_c, 0, 81, 0
2, 218640, Note_on_c, 0, 81, 53
2, 218642, Note_on_c, 0, 79, 0
2, 218842, Note_on_c, 0, 81, 0
2, 218880, Note_on_c, 0, 82, 68
2, 218996, Note_on_c, 0, 82, 0
2, 219000, Note_on_c, 0, 81, 56
2, 219120, Note_on_c, 0, 81, 0
2, 219120, Note_on_c, 0, 79, 50
2, 219360, Note_on_c, 0, 79, 0
2, 219360, Note_on_c, 0, 79, 50
2, 219540, Note_on_c, 0, 79, 0
2, 219840, Note_on_c, 0, 68, 48
2, 219956, Note_on_c, 0, 68, 0
2, 219960, Note_on_c, 0, 67, 48
2, 220076, Note_on_c, 0, 67, 0
2, 220080, Note_on_c, 0, 65, 48
2, 220196, Note_on_c, 0, 65, 0
2, 220280, Note_on_c, 0, 67, 48
2, 220318, Note_on_c, 0, 67, 0
2, 220320, Note_on_c, 0, 65, 48
2, 220436, Note_on_c, 0, 65, 0
2, 220440, Note_on_c, 0, 63, 48
2, 220556, Note_on_c, 0, 63, 0
2, 220560, Note_on_c, 0, 65, 48
2, 220792, Note_on_c, 0, 65, 0
2, 220800, Note_on_c, 0, 67, 48
2, 220916, Note_on_c, 0, 67, 0
2, 220920, Note_on_c, 0, 65, 48
2, 221036, Note_on_c, 0, 65, 0
2, 221040, Note_on_c, 0, 63, 48
2, 221400, Note_on_c, 0, 63, 0
2, 221520, Note_on_c, 0, 63, 48
2, 221992, Note_on_c, 0, 63, 0
2, 222000, Note_on_c, 0, 62, 48
2, 222116, Note_on_c, 0, 62, 0
2, 222120, Note_on_c, 0, 63, 48
2, 222236, Note_on_c, 0, 63, 0
2, 222240, Note_on_c, 0, 65, 48
2, 222356, Note_on_c, 0, 65, 0
2, 222360, Note_on_c, 0, 58, 41
2, 222408, Note_on_c, 0, 58, 0
2, 222480, Note_on_c, 0, 60, 41
2, 222528, Note_on_c, 0, 60, 0
2, 222600, Note_on_c, 0, 62, 41
2, 222648, Note_on_c, 0, 62, 0
2, 222720, Note_on_c, 0, 63, 48
2, 222768, Note_on_c, 0, 63, 0
2, 222840, Note_on_c, 0, 65, 48
2, 222888, Note_on_c, 0, 65, 0
2, 222960, Note_on_c, 0, 67, 48
2, 223008, Note_on_c, 0, 67, 0
2, 223080, Note_on_c, 0, 68, 48
2, 223128, Note_on_c, 0, 68, 0
2, 223200, Note_on_c, 0, 70, 48
2, 223248, Note_on_c, 0, 70, 0
2, 223320, Note_on_c, 0, 70, 48
2, 223368, Note_on_c, 0, 70, 0
2, 223440, Note_on_c, 0, 70, 48
2, 223488, Note_on_c, 0, 70, 0
2, 223560, Note_on_c, 0, 70, 48
2, 223608, Note_on_c, 0, 70, 0
2, 231120, Note_on_c, 0, 80, 80
2, 231168, Note_on_c, 0, 80, 0
2, 231240, Note_on_c, 0, 79, 80
2, 231288, Note_on_c, 0, 79, 0
2, 231360, Note_on_c, 0, 77, 80
2, 231408, Note_on_c, 0, 77, 0
2, 231480, Note_on_c, 0, 75, 80
2, 231528, Note_on_c, 0, 75, 0
2, 231600, Note_on_c, 0, 77, 80
2, 231648, Note_on_c, 0, 77, 0
2, 231720, Note_on_c, 0, 75, 80
2, 231768, Note_on_c, 0, 75, 0
2, 231840, Note_on_c, 0, 74, 80
2, 231888, Note_on_c, 0, 74, 0
2, 231960, Note_on_c, 0, 75, 80
2, 232008, Note_on_c, 0, 75, 0
2, 232080, Note_on_c, 0, 77, 80
2, 232128, Note_on_c, 0, 77, 0
2, 232200, Note_on_c, 0, 79, 80
2, 232248, Note_on_c, 0, 79, 0
2, 232320, Note_on_c, 0, 80, 80
2, 232368, Note_on_c, 0, 80, 0
2, 232440, Note_on_c, 0, 82, 80
2, 232488, Note_on_c, 0, 82, 0
2, 232560, Note_on_c, 0, 84, 80
2, 232608, Note_on_c, 0, 84, 0
2, 232680, Note_on_c, 0, 86, 80
2, 232728, Note_on_c, 0, 86, 0
2, 232800, Note_on_c, 0, 87, 80
2, 232848, Note_on_c, 0, 87, 0
2, 232920, Note_on_c, 0, 89, 80
2, 232968, Note_on_c, 0, 89, 0
2, 233040, Note_on_c, 0, 91, 80
2, 233088, Note_on_c, 0, 91, 0
2, 233160, Note_on_c, 0, 91, 80
2, 233160, Note_on_c, 0, 79, 80
2, 233208, Note_on_c, 0, 79, 0
2, 233208, Note_on_c, 0, 91, 0
2, 233280, Note_on_c, 0, 92, 56
2, 233280, Note_on_c, 0, 80, 56
2, 233328, Note_on_c, 0, 80, 0
2, 233328, Note_on_c, 0, 92, 0
2, 233400, Note_on_c, 0, 89, 56
2, 233400, Note_on_c, 0, 86, 56
2, 233448, Note_on_c, 0, 86, 0
2, 233448, Note_on_c, 0, 89, 0
2, 233520, Note_on_c, 0, 89, 56
2, 233520, Note_on_c, 0, 86, 56
2, 233568, Note_on_c, 0, 86, 0
2, 233568, Note_on_c, 0, 89, 0
2, 233640, Note_on_c, 0, 89, 56
2, 233640, Note_on_c, 0, 86, 56
2, 233688, Note_on_c, 0, 86, 0
2, 233688, Note_on_c, 0, 89, 0
2, 233760, Note_on_c, 0, 89, 56
2, 233760, Note_on_c, 0, 86, 56
2, 233808, Note_on_c, 0, 86, 0
2, 233808, Note_on_c, 0, 89, 0
2, 233880, Note_on_c, 0, 89, 56
2, 233880, Note_on_c, 0, 86, 56
2, 233928, Note_on_c, 0, 86, 0
2, 233928, Note_on_c, 0, 89, 0
2, 234000, Note_on_c, 0, 89, 56
2, 234000, Note_on_c, 0, 86, 56
2, 234048, Note_on_c, 0, 86, 0
2, 234048, Note_on_c, 0, 89, 0
2, 234120, Note_on_c, 0, 89, 56
2, 234120, Note_on_c, 0, 89, 56
2, 234120, Note_on_c, 0, 86, 56
2, 234168, Note_on_c, 0, 86, 0
2, 234168, Note_on_c, 0, 89, 0
2, 234168, Note_on_c, 0, 89, 0
2, 234240, Note_on_c, 0, 90, 70
2, 234240, Note_on_c, 0, 86, 70
2, 234288, Note_on_c, 0, 86, 0
2, 234288, Note_on_c, 0, 90, 0
2, 234360, Note_on_c, 0, 90, 70
2, 234360, Note_on_c, 0, 86, 70
2, 234408, Note_on_c, 0, 86, 0
2, 234408, Note_on_c, 0, 90, 0
2, 234480, Note_on_c, 0, 90, 70
2, 234480, Note_on_c, 0, 86, 70
2, 234528, Note_on_c, 0, 86, 0
2, 234528, Note_on_c, 0, 90, 0
2, 234600, Note_on_c, 0, 90, 70
2, 234600, Note_on_c, 0, 90, 70
2, 234600, Note_on_c, 0, 86, 70
2, 234648, Note_on_c, 0, 86, 0
2, 234648, Note_on_c, 0, 90, 0
2, 234648, Note_on_c, 0, 90, 0
2, 234720, Note_on_c, 0, 90, 70
2, 234720, Note_on_c, 0, 86, 70
2, 234768, Note_on_c, 0, 86, 0
2, 234768, Note_on_c, 0, 90, 0
2, 234840, Note_on_c, 0, 90, 70
2, 234840, Note_on_c, 0, 86, 70
2, 234888, Note_on_c, 0, 86, 0
2, 234888, Note_on_c, 0, 90, 0
2, 234960, Note_on_c, 0, 90, 70
2, 234960, Note_on_c, 0, 86, 70
2, 235008, Note_on_c, 0, 86, 0
2, 235008, Note_on_c, 0, 90, 0
2, 235080, Note_on_c, 0, 90, 70
2, 235080, Note_on_c, 0, 90, 70
2, 235080, Note_on_c, 0, 86, 70
2, 235128, Note_on_c, 0, 86, 0
2, 235128, Note_on_c, 0, 90, 0
2, 235128, Note_on_c, 0, 90, 0
2, 235200, Note_on_c, 0, 90, 60
2, 235296, Note_on_c, 0, 90, 0
2, 235320, Note_on_c, 0, 90, 56
2, 235416, Note_on_c, 0, 90, 0
2, 235440, Note_on_c, 0, 90, 51
2, 235536, Note_on_c, 0, 90, 0
2, 235560, Note_on_c, 0, 90, 47
2, 235656, Note_on_c, 0, 90, 0
2, 235680, Note_on_c, 0, 90, 42
2, 235776, Note_on_c, 0, 90, 0
2, 235800, Note_on_c, 0, 90, 38
2, 235896, Note_on_c, 0, 90, 0
2, 235920, Note_on_c, 0, 90, 34
2, 236016, Note_on_c, 0, 90, 0
2, 236040, Control_c, 0, 7, 38
2, 236040, Note_on_c, 0, 90, 80
2, 236048, Control_c, 0, 7, 38
2, 236056, Control_c, 0, 7, 38
2, 236064, Control_c, 0, 7, 38
2, 236072, Control_c, 0, 7, 38
2, 236080, Control_c, 0, 7, 38
2, 236088, Control_c, 0, 7, 38
2, 236096, Control_c, 0, 7, 38
2, 236104, Control_c, 0, 7, 38
2, 236112, Control_c, 0, 7, 38
2, 236120, Control_c, 0, 7, 38
2, 236128, Control_c, 0, 7, 38
2, 236136, Control_c, 0, 7, 38
2, 236144, Control_c, 0, 7, 39
2, 236152, Control_c, 0, 7, 39
2, 236160, Control_c, 0, 7, 39
2, 236168, Control_c, 0, 7, 39
2, 236176, Control_c, 0, 7, 39
2, 236184, Control_c, 0, 7, 39
2, 236192, Control_c, 0, 7, 40
2, 236200, Control_c, 0, 7, 40
2, 236208, Control_c, 0, 7, 39
2, 236216, Control_c, 0, 7, 38
2, 236224, Control_c, 0, 7, 38
2, 236232, Control_c, 0, 7, 38
2, 236240, Control_c, 0, 7, 37
2, 236248, Control_c, 0, 7, 37
2, 236256, Control_c, 0, 7, 37
2, 236264, Control_c, 0, 7, 37
2, 236272, Control_c, 0, 7, 37
2, 236280, Control_c, 0, 7, 38
2, 236288, Control_c, 0, 7, 38
2, 236296, Control_c, 0, 7, 38
2, 236304, Control_c, 0, 7, 38
2, 236312, Control_c, 0, 7, 38
2, 236320, Control_c, 0, 7, 37
2, 236328, Control_c, 0, 7, 37
2, 236336, Control_c, 0, 7, 37
2, 236344, Control_c, 0, 7, 37
2, 236352, Control_c, 0, 7, 37
2, 236360, Control_c, 0, 7, 37
2, 236368, Control_c, 0, 7, 37
2, 236376, Control_c, 0, 7, 37
2, 236384, Control_c, 0, 7, 37
2, 236392, Control_c, 0, 7, 37
2, 236400, Control_c, 0, 7, 38
2, 236408, Control_c, 0, 7, 38
2, 236416, Control_c, 0, 7, 38
2, 236424, Control_c, 0, 7, 38
2, 236432, Control_c, 0, 7, 38
2, 236440, Control_c, 0, 7, 38
2, 236448, Control_c, 0, 7, 38
2, 236456, Control_c, 0, 7, 38
2, 236464, Control_c, 0, 7, 39
2, 236472, Control_c, 0, 7, 39
2, 236480, Control_c, 0, 7, 39
2, 236488, Control_c, 0, 7, 39
2, 236496, Control_c, 0, 7, 39
2, 236504, Control_c, 0, 7, 39
2, 236512, Control_c, 0, 7, 39
2, 236520, Control_c, 0, 7, 39
2, 236528, Control_c, 0, 7, 39
2, 236536, Control_c, 0, 7, 39
2, 236544, Control_c, 0, 7, 39
2, 236552, Control_c, 0, 7, 39
2, 236560, Control_c, 0, 7, 39
2, 236568, Control_c, 0, 7, 40
2, 236576, Control_c, 0, 7, 40
2, 236584, Control_c, 0, 7, 40
2, 236592, Control_c, 0, 7, 40
2, 236600, Control_c, 0, 7, 40
2, 236608, Control_c, 0, 7, 40
2, 236616, Control_c, 0, 7, 40
2, 236624, Control_c, 0, 7, 40
2, 236632, Control_c, 0, 7, 40
2, 236640, Control_c, 0, 7, 41
2, 236648, Control_c, 0, 7, 41
2, 236656, Control_c, 0, 7, 41
2, 236664, Control_c, 0, 7, 41
2, 236672, Control_c, 0, 7, 41
2, 236680, Control_c, 0, 7, 41
2, 236688, Control_c, 0, 7, 41
2, 236696, Control_c, 0, 7, 41
2, 236704, Control_c, 0, 7, 41
2, 236712, Control_c, 0, 7, 41
2, 236720, Control_c, 0, 7, 42
2, 236728, Control_c, 0, 7, 42
2, 236736, Control_c, 0, 7, 42
2, 236744, Control_c, 0, 7, 42
2, 236752, Control_c, 0, 7, 42
2, 236760, Control_c, 0, 7, 42
2, 236768, Control_c, 0, 7, 43
2, 236776, Control_c, 0, 7, 43
2, 236784, Control_c, 0, 7, 44
2, 236792, Control_c, 0, 7, 45
2, 236800, Control_c, 0, 7, 45
2, 236808, Control_c, 0, 7, 45
2, 236816, Control_c, 0, 7, 45
2, 236824, Control_c, 0, 7, 45
2, 236832, Control_c, 0, 7, 45
2, 236840, Control_c, 0, 7, 46
2, 236848, Control_c, 0, 7, 46
2, 236856, Control_c, 0, 7, 46
2, 236864, Control_c, 0, 7, 46
2, 236872, Control_c, 0, 7, 46
2, 236880, Control_c, 0, 7, 46
2, 236888, Control_c, 0, 7, 46
2, 236896, Control_c, 0, 7, 46
2, 236904, Control_c, 0, 7, 46
2, 236912, Control_c, 0, 7, 46
2, 236920, Control_c, 0, 7, 46
2, 236928, Control_c, 0, 7, 46
2, 236936, Control_c, 0, 7, 55
2, 236944, Control_c, 0, 7, 55
2, 236952, Control_c, 0, 7, 55
2, 236960, Control_c, 0, 7, 55
2, 236968, Control_c, 0, 7, 55
2, 236976, Control_c, 0, 7, 55
2, 236984, Control_c, 0, 7, 55
2, 236992, Control_c, 0, 7, 55
2, 237000, Control_c, 0, 7, 55
2, 237008, Control_c, 0, 7, 55
2, 237016, Control_c, 0, 7, 55
2, 237024, Control_c, 0, 7, 55
2, 237032, Control_c, 0, 7, 56
2, 237040, Control_c, 0, 7, 57
2, 237048, Control_c, 0, 7, 58
2, 237056, Control_c, 0, 7, 58
2, 237064, Control_c, 0, 7, 59
2, 237072, Control_c, 0, 7, 60
2, 237080, Control_c, 0, 7, 61
2, 237088, Control_c, 0, 7, 62
2, 237096, Control_c, 0, 7, 63
2, 237104, Control_c, 0, 7, 64
2, 237112, Control_c, 0, 7, 65
2, 237120, Control_c, 0, 7, 66
2, 237128, Control_c, 0, 7, 67
2, 237136, Control_c, 0, 7, 67
2, 237144, Control_c, 0, 7, 67
2, 237152, Control_c, 0, 7, 67
2, 237160, Control_c, 0, 7, 67
2, 237168, Control_c, 0, 7, 67
2, 237176, Control_c, 0, 7, 68
2, 237184, Control_c, 0, 7, 68
2, 237192, Control_c, 0, 7, 68
2, 237200, Control_c, 0, 7, 69
2, 237208, Control_c, 0, 7, 69
2, 237216, Control_c, 0, 7, 69
2, 237224, Control_c, 0, 7, 69
2, 237232, Control_c, 0, 7, 69
2, 237240, Control_c, 0, 7, 70
2, 237248, Control_c, 0, 7, 72
2, 237256, Control_c, 0, 7, 72
2, 237264, Control_c, 0, 7, 72
2, 237272, Control_c, 0, 7, 72
2, 237280, Control_c, 0, 7, 72
2, 237288, Control_c, 0, 7, 72
2, 237296, Control_c, 0, 7, 72
2, 237304, Control_c, 0, 7, 73
2, 237312, Control_c, 0, 7, 74
2, 237320, Control_c, 0, 7, 75
2, 237328, Control_c, 0, 7, 76
2, 237336, Control_c, 0, 7, 77
2, 237344, Control_c, 0, 7, 78
2, 237352, Control_c, 0, 7, 78
2, 237360, Control_c, 0, 7, 78
2, 237368, Control_c, 0, 7, 78
2, 237376, Control_c, 0, 7, 78
2, 237384, Control_c, 0, 7, 78
2, 237392, Control_c, 0, 7, 78
2, 237400, Control_c, 0, 7, 80
2, 237408, Control_c, 0, 7, 81
2, 237416, Control_c, 0, 7, 81
2, 237424, Control_c, 0, 7, 81
2, 237432, Control_c, 0, 7, 81
2, 237440, Control_c, 0, 7, 81
2, 237448, Control_c, 0, 7, 81
2, 237456, Control_c, 0, 7, 81
2, 237464, Control_c, 0, 7, 82
2, 237472, Control_c, 0, 7, 83
2, 237480, Control_c, 0, 7, 84
2, 237488, Control_c, 0, 7, 89
2, 237496, Control_c, 0, 7, 89
2, 237504, Control_c, 0, 7, 89
2, 237512, Control_c, 0, 7, 89
2, 237520, Control_c, 0, 7, 89
2, 237528, Control_c, 0, 7, 89
2, 237536, Control_c, 0, 7, 89
2, 237544, Control_c, 0, 7, 94
2, 237552, Control_c, 0, 7, 94
2, 237560, Control_c, 0, 7, 94
2, 237568, Control_c, 0, 7, 94
2, 237576, Control_c, 0, 7, 94
2, 237584, Control_c, 0, 7, 95
2, 237592, Control_c, 0, 7, 100
2, 237600, Control_c, 0, 7, 100
2, 237608, Control_c, 0, 7, 100
2, 237616, Control_c, 0, 7, 101
2, 237624, Control_c, 0, 7, 101
2, 237632, Control_c, 0, 7, 101
2, 237640, Control_c, 0, 7, 102
2, 237648, Control_c, 0, 7, 103
2, 237656, Control_c, 0, 7, 103
2, 237664, Control_c, 0, 7, 103
2, 237672, Control_c, 0, 7, 103
2, 237680, Control_c, 0, 7, 103
2, 237688, Control_c, 0, 7, 103
2, 237696, Control_c, 0, 7, 104
2, 237704, Control_c, 0, 7, 105
2, 237712, Control_c, 0, 7, 105
2, 237720, Control_c, 0, 7, 105
2, 237728, Control_c, 0, 7, 105
2, 237736, Control_c, 0, 7, 105
2, 237744, Control_c, 0, 7, 105
2, 237752, Control_c, 0, 7, 105
2, 237760, Control_c, 0, 7, 105
2, 238080, Note_on_c, 0, 91, 77
2, 238080, Note_on_c, 0, 82, 77
2, 238082, Note_on_c, 0, 90, 0
2, 238170, Note_on_c, 0, 82, 0
2, 238170, Note_on_c, 0, 91, 0
2, 238320, Control_c, 0, 7, 90
2, 238320, Note_on_c, 0, 91, 77
2, 238320, Note_on_c, 0, 82, 77
2, 238670, Note_on_c, 0, 82, 0
2, 238686, Note_on_c, 0, 91, 0
2, 238800, Note_on_c, 0, 87, 77
2, 238800, Note_on_c, 0, 82, 77
2, 238860, Note_on_c, 0, 87, 0
2, 238866, Note_on_c, 0, 82, 0
2, 239040, Note_on_c, 0, 82, 58
2, 239920, Note_on_c, 0, 82, 0
2, 240000, Note_on_c, 0, 91, 77
2, 240000, Note_on_c, 0, 82, 77
2, 240090, Note_on_c, 0, 82, 0
2, 240090, Note_on_c, 0, 91, 0
2, 240240, Note_on_c, 0, 91, 77
2, 240240, Note_on_c, 0, 82, 77
2, 240540, Note_on_c, 0, 82, 0
2, 240540, Note_on_c, 0, 91, 0
2, 240720, Note_on_c, 0, 87, 77
2, 240720, Note_on_c, 0, 82, 77
2, 240796, Note_on_c, 0, 87, 0
2, 240800, Note_on_c, 0, 82, 0
2, 240960, Note_on_c, 0, 82, 71
2, 241630, Note_on_c, 0, 82, 0
2, 241800, Note_on_c, 0, 87, 95
2, 241858, Note_on_c, 0, 87, 0
2, 241860, Note_on_c, 0, 89, 95
2, 241918, Note_on_c, 0, 89, 0
2, 241920, Note_on_c, 0, 91, 71
2, 241920, Note_on_c, 0, 82, 71
2, 242270, Note_on_c, 0, 82, 0
2, 242270, Note_on_c, 0, 91, 0
2, 242400, Note_on_c, 0, 87, 71
2, 242400, Note_on_c, 0, 82, 71
2, 242474, Note_on_c, 0, 82, 0
2, 242490, Note_on_c, 0, 87, 0
2, 242640, Note_on_c, 0, 86, 71
2, 242640, Note_on_c, 0, 82, 71
2, 242724, Note_on_c, 0, 86, 0
2, 242730, Note_on_c, 0, 82, 0
2, 242880, Note_on_c, 0, 84, 71
2, 243264, Note_on_c, 0, 84, 0
2, 243360, Note_on_c, 0, 84, 71
2, 243468, Note_on_c, 0, 84, 0
2, 243600, Note_on_c, 0, 84, 71
2, 243708, Note_on_c, 0, 84, 0
2, 243840, Note_on_c, 0, 86, 71
2, 244272, Note_on_c, 0, 86, 0
2, 244320, Note_on_c, 0, 86, 71
2, 244320, Note_on_c, 0, 82, 71
2, 244428, Note_on_c, 0, 82, 0
2, 244428, Note_on_c, 0, 86, 0
2, 244560, Note_on_c, 0, 86, 71
2, 244560, Note_on_c, 0, 82, 71
2, 244668, Note_on_c, 0, 82, 0
2, 244668, Note_on_c, 0, 86, 0
2, 244800, Note_on_c, 0, 87, 71
2, 244800, Note_on_c, 0, 82, 71
2, 244908, Note_on_c, 0, 82, 0
2, 244908, Note_on_c, 0, 87, 0
2, 245640, Note_on_c, 0, 87, 67
2, 245700, Note_on_c, 0, 87, 0
2, 245700, Note_on_c, 0, 89, 67
2, 245760, Note_on_c, 0, 89, 0
2, 245760, Note_on_c, 0, 91, 54
2, 245760, Note_on_c, 0, 82, 54
2, 246104, Note_on_c, 0, 91, 0
2, 246106, Note_on_c, 0, 82, 0
2, 246240, Note_on_c, 0, 87, 54
2, 246240, Note_on_c, 0, 82, 54
2, 246302, Note_on_c, 0, 82, 0
2, 246326, Note_on_c, 0, 87, 0
2, 246480, Note_on_c, 0, 87, 54
2, 246480, Note_on_c, 0, 82, 54
2, 246540, Note_on_c, 0, 82, 0
2, 246540, Note_on_c, 0, 87, 0
2, 246720, Note_on_c, 0, 86, 54
2, 246720, Note_on_c, 0, 82, 54
2, 247080, Note_on_c, 0, 82, 0
2, 247080, Note_on_c, 0, 86, 0
2, 247200, Note_on_c, 0, 89, 54
2, 247200, Note_on_c, 0, 86, 54
2, 247260, Note_on_c, 0, 89, 0
2, 247266, Note_on_c, 0, 86, 0
2, 247440, Note_on_c, 0, 89, 54
2, 247440, Note_on_c, 0, 86, 54
2, 247500, Note_on_c, 0, 86, 0
2, 247500, Note_on_c, 0, 89, 0
2, 247680, Note_on_c, 0, 89, 54
2, 247680, Note_on_c, 0, 86, 54
2, 247920, Note_on_c, 0, 86, 0
2, 247920, Note_on_c, 0, 87, 54
2, 247920, Note_on_c, 0, 84, 54
2, 247936, Note_on_c, 0, 89, 0
2, 247990, Note_on_c, 0, 84, 0
2, 248006, Note_on_c, 0, 87, 0
2, 248160, Note_on_c, 0, 84, 54
2, 248160, Note_on_c, 0, 77, 54
2, 248224, Note_on_c, 0, 77, 0
2, 248240, Note_on_c, 0, 84, 0
2, 248400, Note_on_c, 0, 81, 54
2, 248400, Note_on_c, 0, 77, 54
2, 248464, Note_on_c, 0, 81, 0
2, 248472, Note_on_c, 0, 77, 0
2, 248640, Note_on_c, 0, 82, 54
2, 248640, Note_on_c, 0, 77, 54
2, 248960, Note_on_c, 0, 77, 0
2, 248992, Note_on_c, 0, 82, 0
2, 257280, Note_on_c, 0, 79, 64
2, 257752, Note_on_c, 0, 79, 0
2, 257760, Note_on_c, 0, 82, 51
2, 258240, Note_on_c, 0, 80, 56
2, 258266, Note_on_c, 0, 82, 0
2, 258700, Note_on_c, 0, 80, 0
2, 258720, Note_on_c, 0, 77, 60
2, 259200, Note_on_c, 0, 79, 64
2, 259222, Note_on_c, 0, 77, 0
2, 259650, Note_on_c, 0, 79, 0
2, 259680, Note_on_c, 0, 75, 49
2, 260130, Note_on_c, 0, 75, 0
2, 260160, Note_on_c, 0, 77, 69
2, 260610, Note_on_c, 0, 77, 0
2, 260640, Note_on_c, 0, 70, 60
2, 261090, Note_on_c, 0, 70, 0
2, 261120, Note_on_c, 0, 79, 63
2, 261120, Note_on_c, 0, 67, 42
2, 261600, Note_on_c, 0, 67, 0
2, 261600, Note_on_c, 0, 82, 61
2, 261600, Note_on_c, 0, 70, 54
2, 261612, Note_on_c, 0, 79, 0
2, 262080, Note_on_c, 0, 80, 64
2, 262080, Note_on_c, 0, 68, 54
2, 262084, Note_on_c, 0, 82, 0
2, 262096, Note_on_c, 0, 70, 0
2, 262530, Note_on_c, 0, 80, 0
2, 262530, Note_on_c, 0, 68, 0
2, 262560, Note_on_c, 0, 77, 60
2, 262560, Note_on_c, 0, 65, 48
2, 262962, Note_on_c, 0, 65, 0
2, 263040, Note_on_c, 0, 79, 68
2, 263040, Note_on_c, 0, 67, 62
2, 263062, Note_on_c, 0, 77, 0
2, 263502, Note_on_c, 0, 67, 0
2, 263520, Note_on_c, 0, 82, 66
2, 263520, Note_on_c, 0, 70, 49
2, 263532, Note_on_c, 0, 79, 0
2, 263892, Note_on_c, 0, 70, 0
2, 264000, Note_on_c, 0, 84, 80
2, 264000, Note_on_c, 0, 72, 52
2, 264012, Note_on_c, 0, 82, 0
2, 264334, Note_on_c, 0, 72, 0
2, 264432, Note_on_c, 0, 84, 0
2, 264480, Note_on_c, 0, 80, 85
2, 264480, Note_on_c, 0, 68, 67
2, 264792, Note_on_c, 0, 68, 0
2, 264960, Note_on_c, 0, 82, 70
2, 264960, Note_on_c, 0, 70, 54
2, 264970, Note_on_c, 0, 80, 0
2, 265410, Note_on_c, 0, 70, 0
2, 265410, Note_on_c, 0, 82, 0
2, 265440, Note_on_c, 0, 86, 71
2, 265440, Note_on_c, 0, 74, 55
2, 265890, Note_on_c, 0, 74, 0
2, 265890, Note_on_c, 0, 86, 0
2, 265920, Note_on_c, 0, 87, 87
2, 265920, Note_on_c, 0, 75, 54
2, 266260, Note_on_c, 0, 75, 0
2, 266304, Note_on_c, 0, 87, 0
2, 266400, Note_on_c, 0, 72, 66
2, 266400, Note_on_c, 0, 84, 66
2, 266752, Note_on_c, 0, 72, 0
2, 266784, Note_on_c, 0, 84, 0
2, 266880, Note_on_c, 0, 86, 80
2, 266880, Note_on_c, 0, 74, 57
2, 267164, Note_on_c, 0, 74, 0
2, 267350, Note_on_c, 0, 86, 0
2, 267360, Note_on_c, 0, 77, 57
2, 267360, Note_on_c, 0, 89, 64
2, 267804, Note_on_c, 0, 77, 0
2, 267840, Note_on_c, 0, 91, 80
2, 267840, Note_on_c, 0, 79, 75
2, 267874, Note_on_c, 0, 89, 0
2, 268320, Note_on_c, 0, 79, 0
2, 268320, Note_on_c, 0, 87, 72
2, 268320, Note_on_c, 0, 75, 67
2, 268354, Note_on_c, 0, 91, 0
2, 268720, Note_on_c, 0, 87, 0
2, 268730, Note_on_c, 0, 75, 0
2, 268800, Note_on_c, 0, 79, 66
2, 268800, Note_on_c, 0, 91, 72
2, 269280, Note_on_c, 0, 91, 0
2, 269280, Note_on_c, 0, 76, 58
2, 269280, Note_on_c, 0, 88, 64
2, 269306, Note_on_c, 0, 79, 0
2, 269612, Note_on_c, 0, 76, 0
2, 269620, Note_on_c, 0, 88, 0
2, 269760, Note_on_c, 0, 92, 84
2, 269760, Note_on_c, 0, 80, 71
2, 270240, Note_on_c, 0, 92, 0
2, 270240, Note_on_c, 0, 89, 51
2, 270240, Note_on_c, 0, 77, 60
2, 270274, Note_on_c, 0, 80, 0
2, 270490, Note_on_c, 0, 89, 0
2, 270502, Note_on_c, 0, 77, 0
2, 270720, Note_on_c, 0, 89, 66
2, 270720, Note_on_c, 0, 77, 78
2, 271176, Note_on_c, 0, 89, 0
2, 271200, Note_on_c, 0, 86, 47
2, 271200, Note_on_c, 0, 74, 57
2, 271216, Note_on_c, 0, 77, 0
2, 271434, Note_on_c, 0, 86, 0
2, 271470, Note_on_c, 0, 74, 0
2, 271680, Note_on_c, 0, 80, 64
2, 271680, Note_on_c, 0, 92, 61
2, 272150, Note_on_c, 0, 80, 0
2, 272160, Note_on_c, 0, 92, 0
2, 272160, Note_on_c, 0, 89, 63
2, 272160, Note_on_c, 0, 77, 68
2, 272292, Note_on_c, 0, 89, 0
2, 272300, Note_on_c, 0, 77, 0
2, 272640, Note_on_c, 0, 89, 72
2, 272640, Note_on_c, 0, 77, 68
2, 273090, Note_on_c, 0, 77, 0
2, 273090, Note_on_c, 0, 89, 0
2, 273120, Note_on_c, 0, 74, 68
2, 273120, Note_on_c, 0, 86, 64
2, 273214, Note_on_c, 0, 74, 0
2, 273300, Note_on_c, 0, 86, 0
2, 273600, Note_on_c, 0, 92, 71
2, 273600, Note_on_c, 0, 80, 67
2, 273634, Note_on_c, 0, 80, 0
2, 273636, Note_on_c, 0, 92, 0
2, 273840, Note_on_c, 0, 92, 71
2, 273840, Note_on_c, 0, 86, 67
2, 274130, Note_on_c, 0, 86, 0
2, 274150, Note_on_c, 0, 92, 0
2, 274320, Note_on_c, 0, 86, 64
2, 274320, Note_on_c, 0, 92, 65
2, 274592, Note_on_c, 0, 86, 0
2, 274602, Note_on_c, 0, 92, 0
2, 274800, Note_on_c, 0, 86, 66
2, 274800, Note_on_c, 0, 92, 72
2, 275120, Note_on_c, 0, 86, 0
2, 275126, Note_on_c, 0, 92, 0
2, 275280, Note_on_c, 0, 86, 69
2, 275280, Note_on_c, 0, 92, 71
2, 275560, Note_on_c, 0, 86, 0
2, 275574, Note_on_c, 0, 92, 0
2, 275760, Note_on_c, 0, 86, 72
2, 275760, Note_on_c, 0, 92, 79
2, 276044, Note_on_c, 0, 86, 0
2, 276052, Note_on_c, 0, 92, 0
2, 276240, Note_on_c, 0, 86, 73
2, 276240, Note_on_c, 0, 92, 81
2, 276522, Note_on_c, 0, 86, 0
2, 276530, Note_on_c, 0, 92, 0
2, 276720, Note_on_c, 0, 86, 73
2, 276720, Note_on_c, 0, 92, 82
2, 277054, Note_on_c, 0, 92, 0
2, 277056, Note_on_c, 0, 86, 0
2, 277200, Note_on_c, 0, 86, 72
2, 277200, Note_on_c, 0, 92, 82
2, 277276, Note_on_c, 0, 86, 0
2, 277292, Note_on_c, 0, 92, 0
2, 277440, Note_on_c, 0, 93, 59
2, 277440, Note_on_c, 0, 91, 74
2, 277440, Note_on_c, 0, 87, 104
2, 277472, Note_on_c, 0, 93, 0
2, 277484, Note_on_c, 0, 87, 0
2, 277500, Note_on_c, 0, 91, 0
2, 277680, Note_on_c, 0, 82, 78
2, 277680, Note_on_c, 0, 91, 86
2, 277966, Note_on_c, 0, 82, 0
2, 278010, Note_on_c, 0, 91, 0
2, 278160, Note_on_c, 0, 82, 57
2, 278210, Note_on_c, 0, 82, 0
2, 278400, Note_on_c, 0, 82, 87
2, 278400, Note_on_c, 0, 79, 65
2, 279132, Note_on_c, 0, 82, 0
2, 279176, Note_on_c, 0, 79, 0
2, 279360, Note_on_c, 0, 91, 77
2, 279360, Note_on_c, 0, 87, 71
2, 279430, Note_on_c, 0, 87, 0
2, 279440, Note_on_c, 0, 91, 0
2, 279600, Note_on_c, 0, 82, 91
2, 279600, Note_on_c, 0, 91, 85
2, 279882, Note_on_c, 0, 82, 0
2, 279910, Note_on_c, 0, 91, 0
2, 280080, Note_on_c, 0, 87, 81
2, 280080, Note_on_c, 0, 82, 78
2, 280152, Note_on_c, 0, 82, 0
2, 280152, Note_on_c, 0, 87, 0
2, 280320, Note_on_c, 0, 82, 81
2, 280320, Note_on_c, 0, 79, 61
2, 280954, Note_on_c, 0, 82, 0
2, 281002, Note_on_c, 0, 79, 0
2, 281160, Note_on_c, 0, 87, 42
2, 281160, Note_on_c, 0, 79, 38
2, 281218, Note_on_c, 0, 79, 0
2, 281218, Note_on_c, 0, 87, 0
2, 281220, Note_on_c, 0, 89, 44
2, 281220, Note_on_c, 0, 80, 54
2, 281278, Note_on_c, 0, 80, 0
2, 281278, Note_on_c, 0, 89, 0
2, 281280, Note_on_c, 0, 91, 68
2, 281280, Note_on_c, 0, 82, 68
2, 281730, Note_on_c, 0, 82, 0
2, 281730, Note_on_c, 0, 91, 0
2, 281760, Note_on_c, 0, 82, 65
2, 281760, Note_on_c, 0, 87, 70
2, 281830, Note_on_c, 0, 82, 0
2, 281860, Note_on_c, 0, 87, 0
2, 282000, Note_on_c, 0, 86, 56
2, 282000, Note_on_c, 0, 82, 50
2, 282066, Note_on_c, 0, 82, 0
2, 282084, Note_on_c, 0, 86, 0
2, 282240, Note_on_c, 0, 84, 60
2, 282240, Note_on_c, 0, 80, 62
2, 282534, Note_on_c, 0, 80, 0
2, 282554, Note_on_c, 0, 84, 0
2, 282720, Note_on_c, 0, 80, 67
2, 282720, Note_on_c, 0, 84, 65
2, 282794, Note_on_c, 0, 80, 0
2, 282804, Note_on_c, 0, 84, 0
2, 282960, Note_on_c, 0, 84, 65
2, 282960, Note_on_c, 0, 80, 63
2, 283034, Note_on_c, 0, 80, 0
2, 283056, Note_on_c, 0, 84, 0
2, 283200, Note_on_c, 0, 86, 68
2, 283200, Note_on_c, 0, 82, 70
2, 283502, Note_on_c, 0, 82, 0
2, 283506, Note_on_c, 0, 86, 0
2, 283680, Note_on_c, 0, 82, 55
2, 283680, Note_on_c, 0, 86, 59
2, 283756, Note_on_c, 0, 82, 0
2, 283772, Note_on_c, 0, 86, 0
2, 283920, Note_on_c, 0, 86, 65
2, 283920, Note_on_c, 0, 82, 64
2, 283994, Note_on_c, 0, 82, 0
2, 284020, Note_on_c, 0, 86, 0
2, 284160, Note_on_c, 0, 87, 80
2, 284160, Note_on_c, 0, 82, 68
2, 284330, Note_on_c, 0, 82, 0
2, 284364, Note_on_c, 0, 87, 0
2, 285000, Note_on_c, 0, 87, 42
2, 285000, Note_on_c, 0, 79, 38
2, 285058, Note_on_c, 0, 79, 0
2, 285058, Note_on_c, 0, 87, 0
2, 285060, Note_on_c, 0, 89, 44
2, 285060, Note_on_c, 0, 80, 54
2, 285118, Note_on_c, 0, 80, 0
2, 285118, Note_on_c, 0, 89, 0
2, 285120, Note_on_c, 0, 91, 68
2, 285120, Note_on_c, 0, 82, 68
2, 285570, Note_on_c, 0, 82, 0
2, 285570, Note_on_c, 0, 91, 0
2, 285600, Note_on_c, 0, 87, 70
2, 285600, Note_on_c, 0, 82, 65
2, 285670, Note_on_c, 0, 82, 0
2, 285700, Note_on_c, 0, 87, 0
2, 285840, Note_on_c, 0, 86, 56
2, 285840, Note_on_c, 0, 82, 50
2, 285906, Note_on_c, 0, 82, 0
2, 285924, Note_on_c, 0, 86, 0
2, 286080, Note_on_c, 0, 84, 60
2, 286080, Note_on_c, 0, 80, 62
2, 286374, Note_on_c, 0, 80, 0
2, 286394, Note_on_c, 0, 84, 0
2, 286560, Note_on_c, 0, 84, 65
2, 286560, Note_on_c, 0, 80, 67
2, 286634, Note_on_c, 0, 80, 0
2, 286644, Note_on_c, 0, 84, 0
2, 286800, Note_on_c, 0, 84, 65
2, 286800, Note_on_c, 0, 80, 63
2, 286874, Note_on_c, 0, 80, 0
2, 286896, Note_on_c, 0, 84, 0
2, 287040, Note_on_c, 0, 92, 59
2, 287040, Note_on_c, 0, 89, 56
2, 287340, Note_on_c, 0, 89, 0
2, 287352, Note_on_c, 0, 92, 0
2, 287520, Note_on_c, 0, 92, 53
2, 287520, Note_on_c, 0, 89, 50
2, 287596, Note_on_c, 0, 89, 0
2, 287610, Note_on_c, 0, 92, 0
2, 287760, Note_on_c, 0, 92, 46
2, 287760, Note_on_c, 0, 89, 47
2, 287842, Note_on_c, 0, 89, 0
2, 287846, Note_on_c, 0, 92, 0
2, 288000, Note_on_c, 0, 87, 85
2, 288000, Note_on_c, 0, 75, 85
2, 290400, Note_on_c, 0, 75, 0
2, 290400, Note_on_c, 0, 87, 0
2, 290400, Note_on_c, 0, 88, 39
2, 290400, Note_on_c, 0, 76, 50
2, 290880, Note_on_c, 0, 76, 0
2, 290880, Note_on_c, 0, 88, 0
2, 290880, Note_on_c, 0, 89, 47
2, 290880, Note_on_c, 0, 77, 42
2, 291360, Note_on_c, 0, 77, 0
2, 291360, Note_on_c, 0, 89, 0
2, 291840, Note_on_c, 0, 89, 85
2, 291840, Note_on_c, 0, 77, 85
2, 294240, Note_on_c, 0, 77, 0
2, 294240, Note_on_c, 0, 89, 0
2, 294240, Note_on_c, 0, 90, 85
2, 294240, Note_on_c, 0, 78, 85
2, 294720, Note_on_c, 0, 78, 0
2, 294720, Note_on_c, 0, 90, 0
2, 294720, Note_on_c, 0, 91, 47
2, 294720, Note_on_c, 0, 79, 42
2, 295200, Note_on_c, 0, 79, 0
2, 295200, Note_on_c, 0, 91, 0
2, 295680, Note_on_c, 0, 91, 60
2, 295680, Note_on_c, 0, 79, 52
2, 296580, Note_on_c, 0, 79, 0
2, 296580, Note_on_c, 0, 91, 0
2, 296640, Note_on_c, 0, 87, 87
2, 296640, Note_on_c, 0, 75, 73
2, 297540, Note_on_c, 0, 75, 0
2, 297540, Note_on_c, 0, 87, 0
2, 297600, Note_on_c, 0, 84, 68
2, 297600, Note_on_c, 0, 72, 65
2, 298362, Note_on_c, 0, 72, 0
2, 298420, Note_on_c, 0, 84, 0
2, 298560, Note_on_c, 0, 81, 71
2, 299364, Note_on_c, 0, 81, 0
2, 299520, Note_on_c, 0, 82, 67
2, 299786, Note_on_c, 0, 82, 0
2, 300000, Note_on_c, 0, 89, 55
2, 300000, Note_on_c, 0, 86, 59
2, 300220, Note_on_c, 0, 86, 0
2, 300272, Note_on_c, 0, 89, 0
2, 300480, Note_on_c, 0, 91, 60
2, 300480, Note_on_c, 0, 87, 64
2, 300626, Note_on_c, 0, 87, 0
2, 300682, Note_on_c, 0, 91, 0
2, 300960, Note_on_c, 0, 91, 64
2, 300960, Note_on_c, 0, 87, 64
2, 301232, Note_on_c, 0, 91, 0
2, 301242, Note_on_c, 0, 87, 0
2, 301440, Note_on_c, 0, 89, 63
2, 301440, Note_on_c, 0, 86, 65
2, 301506, Note_on_c, 0, 86, 0
2, 301520, Note_on_c, 0, 89, 0
2, 301680, Note_on_c, 0, 82, 101
2, 301744, Note_on_c, 0, 82, 0
2, 301920, Note_on_c, 0, 82, 95
2, 301986, Note_on_c, 0, 82, 0
2, 302160, Note_on_c, 0, 82, 101
2, 302240, Note_on_c, 0, 82, 0
2, 302400, Note_on_c, 0, 84, 102
2, 302636, Note_on_c, 0, 84, 0
2, 302640, Note_on_c, 0, 82, 82
2, 302730, Note_on_c, 0, 82, 0
2, 302880, Note_on_c, 0, 79, 75
2, 302974, Note_on_c, 0, 79, 0
2, 303120, Note_on_c, 0, 75, 97
2, 303190, Note_on_c, 0, 75, 0
2, 303360, Note_on_c, 0, 70, 93
2, 303490, Note_on_c, 0, 70, 0
2, 303840, Note_on_c, 0, 89, 58
2, 303840, Note_on_c, 0, 86, 55
2, 304044, Note_on_c, 0, 86, 0
2, 304080, Note_on_c, 0, 89, 0
2, 304320, Note_on_c, 0, 91, 57
2, 304320, Note_on_c, 0, 87, 62
2, 304496, Note_on_c, 0, 87, 0
2, 304526, Note_on_c, 0, 91, 0
2, 304800, Note_on_c, 0, 91, 61
2, 304800, Note_on_c, 0, 87, 67
2, 305250, Note_on_c, 0, 87, 0
2, 305250, Note_on_c, 0, 91, 0
2, 305280, Note_on_c, 0, 89, 80
2, 305280, Note_on_c, 0, 86, 80
2, 305520, Note_on_c, 0, 86, 0
2, 305520, Note_on_c, 0, 89, 0
2, 305760, Note_on_c, 0, 82, 97
2, 305832, Note_on_c, 0, 82, 0
2, 306000, Note_on_c, 0, 82, 99
2, 306226, Note_on_c, 0, 82, 0
2, 306240, Note_on_c, 0, 84, 85
2, 306466, Note_on_c, 0, 84, 0
2, 306480, Note_on_c, 0, 82, 78
2, 306706, Note_on_c, 0, 82, 0
2, 306720, Note_on_c, 0, 79, 66
2, 306946, Note_on_c, 0, 79, 0
2, 306960, Note_on_c, 0, 75, 67
2, 307186, Note_on_c, 0, 75, 0
2, 307200, Note_on_c, 0, 70, 80
2, 307584, Note_on_c, 0, 70, 0
2, 307648, Control_c, 0, 7, 102
2, 307656, Control_c, 0, 7, 102
2, 307664, Control_c, 0, 7, 102
2, 307672, Control_c, 0, 7, 102
2, 307680, Control_c, 0, 7, 102
2, 307680, Note_on_c, 0, 91, 33
2, 307680, Note_on_c, 0, 79, 33
2, 307688, Control_c, 0, 7, 102
2, 307696, Control_c, 0, 7, 102
2, 307704, Control_c, 0, 7, 102
2, 307712, Control_c, 0, 7, 102
2, 307720, Control_c, 0, 7, 102
2, 307728, Control_c, 0, 7, 102
2, 307736, Control_c, 0, 7, 102
2, 307744, Control_c, 0, 7, 102
2, 307752, Control_c, 0, 7, 102
2, 307760, Control_c, 0, 7, 102
2, 307768, Control_c, 0, 7, 102
2, 307776, Control_c, 0, 7, 102
2, 307784, Control_c, 0, 7, 102
2, 307792, Control_c, 0, 7, 102
2, 307800, Control_c, 0, 7, 102
2, 307808, Control_c, 0, 7, 102
2, 307816, Control_c, 0, 7, 101
2, 307824, Control_c, 0, 7, 101
2, 307832, Control_c, 0, 7, 101
2, 307840, Control_c, 0, 7, 101
2, 307848, Control_c, 0, 7, 101
2, 307856, Control_c, 0, 7, 101
2, 307864, Control_c, 0, 7, 101
2, 307872, Control_c, 0, 7, 101
2, 307880, Control_c, 0, 7, 101
2, 307888, Control_c, 0, 7, 101
2, 307896, Control_c, 0, 7, 100
2, 307904, Control_c, 0, 7, 99
2, 307912, Control_c, 0, 7, 99
2, 307920, Control_c, 0, 7, 99
2, 307928, Control_c, 0, 7, 99
2, 307936, Control_c, 0, 7, 99
2, 307944, Control_c, 0, 7, 98
2, 307952, Control_c, 0, 7, 98
2, 307960, Control_c, 0, 7, 98
2, 307968, Control_c, 0, 7, 98
2, 307976, Control_c, 0, 7, 98
2, 307984, Control_c, 0, 7, 97
2, 307992, Control_c, 0, 7, 97
2, 308000, Control_c, 0, 7, 97
2, 308008, Control_c, 0, 7, 97
2, 308016, Control_c, 0, 7, 97
2, 308024, Control_c, 0, 7, 97
2, 308032, Control_c, 0, 7, 96
2, 308040, Control_c, 0, 7, 96
2, 308048, Control_c, 0, 7, 96
2, 308056, Control_c, 0, 7, 96
2, 308064, Control_c, 0, 7, 96
2, 308072, Control_c, 0, 7, 97
2, 308080, Control_c, 0, 7, 97
2, 308088, Control_c, 0, 7, 96
2, 308096, Control_c, 0, 7, 96
2, 308104, Control_c, 0, 7, 95
2, 308112, Control_c, 0, 7, 95
2, 308120, Control_c, 0, 7, 94
2, 308128, Control_c, 0, 7, 94
2, 308136, Control_c, 0, 7, 93
2, 308144, Control_c, 0, 7, 92
2, 308152, Control_c, 0, 7, 92
2, 308160, Control_c, 0, 7, 92
2, 308168, Control_c, 0, 7, 92
2, 308176, Control_c, 0, 7, 92
2, 308184, Control_c, 0, 7, 92
2, 308192, Control_c, 0, 7, 92
2, 308200, Control_c, 0, 7, 92
2, 308208, Control_c, 0, 7, 92
2, 308216, Control_c, 0, 7, 93
2, 308224, Control_c, 0, 7, 92
2, 308232, Control_c, 0, 7, 92
2, 308240, Control_c, 0, 7, 92
2, 308248, Control_c, 0, 7, 92
2, 308256, Control_c, 0, 7, 92
2, 308264, Control_c, 0, 7, 92
2, 308272, Control_c, 0, 7, 91
2, 308280, Control_c, 0, 7, 86
2, 308288, Control_c, 0, 7, 87
2, 308296, Control_c, 0, 7, 87
2, 308304, Control_c, 0, 7, 87
2, 308312, Control_c, 0, 7, 87
2, 308320, Control_c, 0, 7, 87
2, 308328, Control_c, 0, 7, 86
2, 308336, Control_c, 0, 7, 85
2, 308344, Control_c, 0, 7, 80
2, 308352, Control_c, 0, 7, 80
2, 308360, Control_c, 0, 7, 80
2, 308368, Control_c, 0, 7, 80
2, 308376, Control_c, 0, 7, 80
2, 308384, Control_c, 0, 7, 80
2, 308392, Control_c, 0, 7, 80
2, 308400, Control_c, 0, 7, 80
2, 308408, Control_c, 0, 7, 80
2, 308416, Control_c, 0, 7, 81
2, 308424, Control_c, 0, 7, 80
2, 308432, Control_c, 0, 7, 79
2, 308440, Control_c, 0, 7, 79
2, 308448, Control_c, 0, 7, 79
2, 308456, Control_c, 0, 7, 79
2, 308464, Control_c, 0, 7, 79
2, 308472, Control_c, 0, 7, 79
2, 308480, Control_c, 0, 7, 78
2, 308488, Control_c, 0, 7, 78
2, 308496, Control_c, 0, 7, 77
2, 308504, Control_c, 0, 7, 77
2, 308512, Control_c, 0, 7, 77
2, 308520, Control_c, 0, 7, 77
2, 308528, Control_c, 0, 7, 77
2, 308536, Control_c, 0, 7, 76
2, 308544, Control_c, 0, 7, 76
2, 308552, Control_c, 0, 7, 76
2, 308560, Control_c, 0, 7, 76
2, 308568, Control_c, 0, 7, 76
2, 308576, Control_c, 0, 7, 74
2, 308584, Control_c, 0, 7, 74
2, 308592, Control_c, 0, 7, 74
2, 308600, Control_c, 0, 7, 73
2, 308608, Control_c, 0, 7, 73
2, 308616, Control_c, 0, 7, 73
2, 308624, Control_c, 0, 7, 72
2, 308632, Control_c, 0, 7, 72
2, 308640, Control_c, 0, 7, 72
2, 308648, Control_c, 0, 7, 71
2, 308656, Control_c, 0, 7, 71
2, 308664, Control_c, 0, 7, 71
2, 308672, Control_c, 0, 7, 70
2, 308680, Control_c, 0, 7, 70
2, 308688, Control_c, 0, 7, 70
2, 308696, Control_c, 0, 7, 69
2, 308704, Control_c, 0, 7, 69
2, 308712, Control_c, 0, 7, 68
2, 308720, Control_c, 0, 7, 68
2, 308728, Control_c, 0, 7, 68
2, 308736, Control_c, 0, 7, 68
2, 308744, Control_c, 0, 7, 68
2, 308752, Control_c, 0, 7, 68
2, 308760, Control_c, 0, 7, 68
2, 308768, Control_c, 0, 7, 68
2, 308776, Control_c, 0, 7, 68
2, 308784, Control_c, 0, 7, 68
2, 308792, Control_c, 0, 7, 67
2, 308800, Control_c, 0, 7, 67
2, 308808, Control_c, 0, 7, 67
2, 308816, Control_c, 0, 7, 67
2, 308824, Control_c, 0, 7, 67
2, 308832, Control_c, 0, 7, 67
2, 308840, Control_c, 0, 7, 67
2, 308848, Control_c, 0, 7, 67
2, 308856, Control_c, 0, 7, 67
2, 308864, Control_c, 0, 7, 67
2, 308872, Control_c, 0, 7, 67
2, 308880, Control_c, 0, 7, 67
2, 308888, Control_c, 0, 7, 67
2, 308896, Control_c, 0, 7, 67
2, 308904, Control_c, 0, 7, 67
2, 308912, Control_c, 0, 7, 67
2, 308920, Control_c, 0, 7, 67
2, 308928, Control_c, 0, 7, 67
2, 308936, Control_c, 0, 7, 67
2, 308944, Control_c, 0, 7, 66
2, 308952, Control_c, 0, 7, 66
2, 308960, Control_c, 0, 7, 66
2, 308968, Control_c, 0, 7, 66
2, 308976, Control_c, 0, 7, 66
2, 308984, Control_c, 0, 7, 66
2, 308992, Control_c, 0, 7, 66
2, 309000, Control_c, 0, 7, 65
2, 309008, Control_c, 0, 7, 65
2, 309016, Control_c, 0, 7, 65
2, 309024, Control_c, 0, 7, 65
2, 309032, Control_c, 0, 7, 65
2, 309040, Control_c, 0, 7, 64
2, 309048, Control_c, 0, 7, 64
2, 309056, Control_c, 0, 7, 64
2, 309064, Control_c, 0, 7, 64
2, 309072, Control_c, 0, 7, 64
2, 309080, Control_c, 0, 7, 63
2, 309088, Control_c, 0, 7, 61
2, 309096, Control_c, 0, 7, 61
2, 309104, Control_c, 0, 7, 61
2, 309112, Control_c, 0, 7, 61
2, 309120, Control_c, 0, 7, 61
2, 309128, Control_c, 0, 7, 60
2, 309136, Control_c, 0, 7, 60
2, 309144, Control_c, 0, 7, 60
2, 309152, Control_c, 0, 7, 60
2, 309160, Control_c, 0, 7, 60
2, 309168, Control_c, 0, 7, 60
2, 309176, Control_c, 0, 7, 59
2, 309184, Control_c, 0, 7, 58
2, 309192, Control_c, 0, 7, 57
2, 309200, Control_c, 0, 7, 56
2, 309208, Control_c, 0, 7, 55
2, 309216, Control_c, 0, 7, 55
2, 309224, Control_c, 0, 7, 56
2, 309232, Control_c, 0, 7, 56
2, 309240, Control_c, 0, 7, 56
2, 309248, Control_c, 0, 7, 56
2, 309256, Control_c, 0, 7, 55
2, 309264, Control_c, 0, 7, 55
2, 309272, Control_c, 0, 7, 55
2, 309280, Control_c, 0, 7, 54
2, 309288, Control_c, 0, 7, 54
2, 309296, Control_c, 0, 7, 54
2, 309304, Control_c, 0, 7, 53
2, 309312, Control_c, 0, 7, 53
2, 309320, Control_c, 0, 7, 53
2, 309328, Control_c, 0, 7, 52
2, 309336, Control_c, 0, 7, 52
2, 309344, Control_c, 0, 7, 51
2, 309352, Control_c, 0, 7, 51
2, 309360, Control_c, 0, 7, 51
2, 309368, Control_c, 0, 7, 51
2, 309376, Control_c, 0, 7, 51
2, 309384, Control_c, 0, 7, 51
2, 309392, Control_c, 0, 7, 51
2, 309400, Control_c, 0, 7, 51
2, 309408, Control_c, 0, 7, 51
2, 309416, Control_c, 0, 7, 51
2, 309424, Control_c, 0, 7, 51
2, 309432, Control_c, 0, 7, 51
2, 309440, Control_c, 0, 7, 51
2, 309448, Control_c, 0, 7, 51
2, 309456, Control_c, 0, 7, 52
2, 309464, Control_c, 0, 7, 52
2, 309472, Control_c, 0, 7, 52
2, 309480, Control_c, 0, 7, 52
2, 309488, Control_c, 0, 7, 52
2, 309496, Control_c, 0, 7, 51
2, 309504, Control_c, 0, 7, 51
2, 309512, Control_c, 0, 7, 51
2, 309520, Control_c, 0, 7, 51
2, 309528, Control_c, 0, 7, 51
2, 309536, Control_c, 0, 7, 51
2, 309544, Control_c, 0, 7, 51
2, 309552, Control_c, 0, 7, 51
2, 309560, Control_c, 0, 7, 51
2, 309568, Control_c, 0, 7, 51
2, 309576, Control_c, 0, 7, 46
2, 309584, Control_c, 0, 7, 46
2, 309592, Control_c, 0, 7, 46
2, 309600, Control_c, 0, 7, 46
2, 309608, Control_c, 0, 7, 46
2, 309616, Control_c, 0, 7, 45
2, 309624, Control_c, 0, 7, 45
2, 309632, Control_c, 0, 7, 45
2, 309640, Control_c, 0, 7, 45
2, 309648, Control_c, 0, 7, 45
2, 309656, Control_c, 0, 7, 44
2, 309664, Control_c, 0, 7, 45
2, 309672, Control_c, 0, 7, 45
2, 309680, Control_c, 0, 7, 45
2, 309688, Control_c, 0, 7, 45
2, 309696, Control_c, 0, 7, 45
2, 309704, Control_c, 0, 7, 45
2, 309712, Control_c, 0, 7, 45
2, 309720, Control_c, 0, 7, 45
2, 309728, Control_c, 0, 7, 45
2, 309736, Control_c, 0, 7, 45
2, 309744, Control_c, 0, 7, 44
2, 309752, Control_c, 0, 7, 43
2, 309760, Control_c, 0, 7, 42
2, 309768, Control_c, 0, 7, 42
2, 309776, Control_c, 0, 7, 42
2, 309784, Control_c, 0, 7, 42
2, 309792, Control_c, 0, 7, 42
2, 309800, Control_c, 0, 7, 42
2, 309808, Control_c, 0, 7, 41
2, 309816, Control_c, 0, 7, 39
2, 309824, Control_c, 0, 7, 39
2, 309832, Control_c, 0, 7, 39
2, 309840, Control_c, 0, 7, 39
2, 309848, Control_c, 0, 7, 39
2, 309856, Control_c, 0, 7, 39
2, 309864, Control_c, 0, 7, 38
2, 309872, Control_c, 0, 7, 39
2, 309880, Control_c, 0, 7, 39
2, 309888, Control_c, 0, 7, 39
2, 309896, Control_c, 0, 7, 39
2, 309904, Control_c, 0, 7, 39
2, 309912, Control_c, 0, 7, 39
2, 309920, Control_c, 0, 7, 39
2, 309928, Control_c, 0, 7, 39
2, 309936, Control_c, 0, 7, 39
2, 309944, Control_c, 0, 7, 39
2, 309952, Control_c, 0, 7, 39
2, 309960, Control_c, 0, 7, 40
2, 309968, Control_c, 0, 7, 40
2, 309976, Control_c, 0, 7, 39
2, 309984, Control_c, 0, 7, 38
2, 309992, Control_c, 0, 7, 37
2, 310000, Control_c, 0, 7, 37
2, 310008, Control_c, 0, 7, 37
2, 310016, Control_c, 0, 7, 37
2, 310024, Control_c, 0, 7, 37
2, 310032, Control_c, 0, 7, 35
2, 310040, Control_c, 0, 7, 35
2, 310048, Control_c, 0, 7, 35
2, 310056, Control_c, 0, 7, 35
2, 310064, Control_c, 0, 7, 35
2, 310072, Control_c, 0, 7, 35
2, 310080, Control_c, 0, 7, 35
2, 310088, Control_c, 0, 7, 35
2, 310096, Control_c, 0, 7, 35
2, 310104, Control_c, 0, 7, 35
2, 310112, Control_c, 0, 7, 35
2, 310120, Control_c, 0, 7, 34
2, 310128, Control_c, 0, 7, 34
2, 310136, Control_c, 0, 7, 34
2, 310144, Control_c, 0, 7, 34
2, 310152, Control_c, 0, 7, 34
2, 310160, Control_c, 0, 7, 33
2, 310168, Control_c, 0, 7, 33
2, 310176, Control_c, 0, 7, 34
2, 310184, Control_c, 0, 7, 33
2, 310192, Control_c, 0, 7, 33
2, 310200, Control_c, 0, 7, 33
2, 310208, Control_c, 0, 7, 33
2, 310216, Control_c, 0, 7, 33
2, 310224, Control_c, 0, 7, 33
2, 310232, Control_c, 0, 7, 33
2, 310240, Control_c, 0, 7, 33
2, 310248, Control_c, 0, 7, 33
2, 310256, Control_c, 0, 7, 31
2, 310264, Control_c, 0, 7, 30
2, 310272, Control_c, 0, 7, 30
2, 310280, Control_c, 0, 7, 29
2, 310288, Control_c, 0, 7, 29
2, 310296, Control_c, 0, 7, 29
2, 310304, Control_c, 0, 7, 29
2, 310312, Control_c, 0, 7, 29
2, 310320, Control_c, 0, 7, 27
2, 310328, Control_c, 0, 7, 27
2, 310336, Control_c, 0, 7, 25
2, 310344, Control_c, 0, 7, 25
2, 310352, Control_c, 0, 7, 25
2, 310360, Control_c, 0, 7, 25
2, 310368, Control_c, 0, 7, 25
2, 310376, Control_c, 0, 7, 26
2, 310384, Control_c, 0, 7, 26
2, 310392, Control_c, 0, 7, 26
2, 310400, Control_c, 0, 7, 26
2, 310408, Control_c, 0, 7, 26
2, 310416, Control_c, 0, 7, 26
2, 310424, Control_c, 0, 7, 26
2, 310432, Control_c, 0, 7, 26
2, 310440, Control_c, 0, 7, 26
2, 310448, Control_c, 0, 7, 26
2, 310456, Control_c, 0, 7, 26
2, 310464, Control_c, 0, 7, 26
2, 310472, Control_c, 0, 7, 26
2, 310480, Control_c, 0, 7, 26
2, 310488, Control_c, 0, 7, 26
2, 310496, Control_c, 0, 7, 26
2, 310504, Control_c, 0, 7, 26
2, 310512, Control_c, 0, 7, 25
2, 310520, Control_c, 0, 7, 25
2, 310528, Control_c, 0, 7, 25
2, 310536, Control_c, 0, 7, 25
2, 310544, Control_c, 0, 7, 26
2, 310552, Control_c, 0, 7, 26
2, 310560, Control_c, 0, 7, 26
2, 310568, Control_c, 0, 7, 26
2, 310576, Control_c, 0, 7, 26
2, 310584, Control_c, 0, 7, 26
2, 310592, Control_c, 0, 7, 24
2, 310600, Control_c, 0, 7, 24
2, 310608, Control_c, 0, 7, 24
2, 310616, Control_c, 0, 7, 24
2, 310624, Control_c, 0, 7, 24
2, 310632, Control_c, 0, 7, 25
2, 310640, Control_c, 0, 7, 25
2, 310648, Control_c, 0, 7, 25
2, 310656, Control_c, 0, 7, 25
2, 310664, Control_c, 0, 7, 25
2, 310672, Control_c, 0, 7, 26
2, 310680, Control_c, 0, 7, 25
2, 310688, Control_c, 0, 7, 24
2, 310696, Control_c, 0, 7, 24
2, 310704, Control_c, 0, 7, 24
2, 310712, Control_c, 0, 7, 24
2, 310720, Control_c, 0, 7, 24
2, 310728, Control_c, 0, 7, 24
2, 310736, Control_c, 0, 7, 24
2, 310744, Control_c, 0, 7, 24
2, 310752, Control_c, 0, 7, 25
2, 310760, Control_c, 0, 7, 25
2, 310768, Control_c, 0, 7, 25
2, 310776, Control_c, 0, 7, 25
2, 310784, Control_c, 0, 7, 25
2, 310792, Control_c, 0, 7, 25
2, 310800, Control_c, 0, 7, 25
2, 310808, Control_c, 0, 7, 25
2, 310816, Control_c, 0, 7, 25
2, 310824, Control_c, 0, 7, 26
2, 310832, Control_c, 0, 7, 26
2, 310840, Control_c, 0, 7, 26
2, 310848, Control_c, 0, 7, 26
2, 310856, Control_c, 0, 7, 26
2, 310864, Control_c, 0, 7, 26
2, 310872, Control_c, 0, 7, 24
2, 310880, Control_c, 0, 7, 24
2, 310888, Control_c, 0, 7, 24
2, 310896, Control_c, 0, 7, 24
2, 310904, Control_c, 0, 7, 24
2, 310912, Control_c, 0, 7, 24
2, 310916, Note_on_c, 0, 79, 0
2, 310916, Note_on_c, 0, 91, 0
2, 310920, Control_c, 0, 7, 24
2, 310928, Control_c, 0, 7, 25
2, 310936, Control_c, 0, 7, 24
2, 310944, Control_c, 0, 7, 23
2, 310952, Control_c, 0, 7, 40
2, 310960, Control_c, 0, 7, 41
2, 310968, Control_c, 0, 7, 42
2, 310976, Control_c, 0, 7, 69
2, 310984, Control_c, 0, 7, 69
2, 310992, Control_c, 0, 7, 78
2, 311000, Control_c, 0, 7, 99
2, 311008, Control_c, 0, 7, 100
2, 311040, Note_on_c, 0, 79, 58
2, 311040, Note_on_c, 0, 75, 58
2, 311280, Note_on_c, 0, 75, 0
2, 311280, Note_on_c, 0, 80, 55
2, 311280, Note_on_c, 0, 77, 44
2, 311294, Note_on_c, 0, 79, 0
2, 311370, Note_on_c, 0, 77, 0
2, 311390, Note_on_c, 0, 80, 0
2, 311520, Note_on_c, 0, 82, 53
2, 311520, Note_on_c, 0, 79, 59
2, 311596, Note_on_c, 0, 79, 0
2, 311600, Note_on_c, 0, 82, 0
2, 311760, Note_on_c, 0, 82, 55
2, 311760, Note_on_c, 0, 79, 59
2, 311830, Note_on_c, 0, 79, 0
2, 311842, Note_on_c, 0, 82, 0
2, 312000, Note_on_c, 0, 82, 58
2, 312000, Note_on_c, 0, 79, 59
2, 312240, Note_on_c, 0, 79, 0
2, 312240, Note_on_c, 0, 80, 48
2, 312240, Note_on_c, 0, 77, 48
2, 312270, Note_on_c, 0, 82, 0
2, 312480, Note_on_c, 0, 77, 0
2, 312480, Note_on_c, 0, 80, 0
2, 312480, Note_on_c, 0, 79, 56
2, 312480, Note_on_c, 0, 75, 56
2, 312720, Note_on_c, 0, 77, 51
2, 312720, Note_on_c, 0, 74, 47
2, 312744, Note_on_c, 0, 75, 0
2, 312756, Note_on_c, 0, 79, 0
2, 312930, Note_on_c, 0, 77, 0
2, 312930, Note_on_c, 0, 74, 0
2, 312960, Note_on_c, 0, 75, 61
2, 312960, Note_on_c, 0, 72, 58
2, 313200, Note_on_c, 0, 77, 61
2, 313200, Note_on_c, 0, 74, 51
2, 313230, Note_on_c, 0, 72, 0
2, 313230, Note_on_c, 0, 75, 0
2, 313350, Note_on_c, 0, 74, 0
2, 313356, Note_on_c, 0, 77, 0
2, 313440, Note_on_c, 0, 79, 56
2, 313440, Note_on_c, 0, 75, 53
2, 313500, Note_on_c, 0, 75, 0
2, 313506, Note_on_c, 0, 79, 0
2, 313680, Note_on_c, 0, 79, 60
2, 313680, Note_on_c, 0, 75, 59
2, 313740, Note_on_c, 0, 75, 0
2, 313746, Note_on_c, 0, 79, 0
2, 313920, Note_on_c, 0, 79, 64
2, 313920, Note_on_c, 0, 75, 68
2, 314160, Note_on_c, 0, 75, 0
2, 314160, Note_on_c, 0, 79, 0
2, 314160, Note_on_c, 0, 77, 54
2, 314160, Note_on_c, 0, 74, 48
2, 314400, Note_on_c, 0, 75, 50
2, 314400, Note_on_c, 0, 72, 50
2, 314430, Note_on_c, 0, 74, 0
2, 314430, Note_on_c, 0, 77, 0
2, 314640, Note_on_c, 0, 75, 0
2, 314640, Note_on_c, 0, 74, 50
2, 314640, Note_on_c, 0, 70, 25
2, 314670, Note_on_c, 0, 72, 0
2, 314850, Note_on_c, 0, 70, 0
2, 314850, Note_on_c, 0, 74, 0
2, 314880, Note_on_c, 0, 72, 39
2, 314880, Note_on_c, 0, 68, 39
2, 315120, Note_on_c, 0, 72, 0
2, 315120, Note_on_c, 0, 74, 45
2, 315120, Note_on_c, 0, 70, 45
2, 315150, Note_on_c, 0, 68, 0
2, 315360, Note_on_c, 0, 75, 50
2, 315360, Note_on_c, 0, 72, 50
2, 315390, Note_on_c, 0, 70, 0
2, 315390, Note_on_c, 0, 74, 0
2, 315600, Note_on_c, 0, 75, 0
2, 315600, Note_on_c, 0, 72, 0
2, 315600, Note_on_c, 0, 77, 55
2, 315600, Note_on_c, 0, 74, 55
2, 315840, Note_on_c, 0, 79, 60
2, 315840, Note_on_c, 0, 75, 60
2, 315870, Note_on_c, 0, 74, 0
2, 315870, Note_on_c, 0, 77, 0
2, 316080, Note_on_c, 0, 80, 65
2, 316080, Note_on_c, 0, 77, 65
2, 316102, Note_on_c, 0, 79, 0
2, 316110, Note_on_c, 0, 75, 0
2, 316320, Note_on_c, 0, 82, 70
2, 316320, Note_on_c, 0, 79, 70
2, 316350, Note_on_c, 0, 80, 0
2, 316350, Note_on_c, 0, 77, 0
2, 316560, Note_on_c, 0, 84, 75
2, 316560, Note_on_c, 0, 80, 75
2, 316590, Note_on_c, 0, 82, 0
2, 316590, Note_on_c, 0, 79, 0
2, 316710, Note_on_c, 0, 84, 0
2, 316710, Note_on_c, 0, 80, 0
2, 316800, Note_on_c, 0, 84, 48
2, 316800, Note_on_c, 0, 80, 47
2, 317040, Note_on_c, 0, 82, 41
2, 317040, Note_on_c, 0, 79, 42
2, 317070, Note_on_c, 0, 80, 0
2, 317070, Note_on_c, 0, 84, 0
2, 317144, Note_on_c, 0, 79, 0
2, 317160, Note_on_c, 0, 82, 0
2, 317280, Note_on_c, 0, 80, 57
2, 317280, Note_on_c, 0, 77, 42
2, 317370, Note_on_c, 0, 77, 0
2, 317370, Note_on_c, 0, 80, 0
2, 317520, Note_on_c, 0, 79, 47
2, 317520, Note_on_c, 0, 75, 59
2, 317600, Note_on_c, 0, 75, 0
2, 317606, Note_on_c, 0, 79, 0
2, 317760, Note_on_c, 0, 77, 35
2, 317760, Note_on_c, 0, 74, 30
2, 317986, Note_on_c, 0, 74, 0
2, 317986, Note_on_c, 0, 77, 0
2, 334080, Note_on_c, 0, 87, 63
2, 334080, Note_on_c, 0, 75, 63
2, 334866, Note_on_c, 0, 75, 0
2, 334866, Note_on_c, 0, 87, 0
2, 335040, Note_on_c, 0, 70, 46
2, 335040, Note_on_c, 0, 82, 46
2, 335832, Note_on_c, 0, 82, 0
2, 335832, Note_on_c, 0, 70, 0
2, 336000, Note_on_c, 0, 84, 52
2, 336000, Note_on_c, 0, 72, 52
2, 336822, Note_on_c, 0, 72, 0
2, 336822, Note_on_c, 0, 84, 0
2, 336960, Note_on_c, 0, 79, 44
2, 336960, Note_on_c, 0, 91, 44
2, 337726, Note_on_c, 0, 91, 0
2, 337726, Note_on_c, 0, 79, 0
2, 338400, Note_on_c, 0, 84, 66
2, 338474, Note_on_c, 0, 84, 0
2, 338640, Note_on_c, 0, 84, 65
2, 338712, Note_on_c, 0, 84, 0
2, 338880, Note_on_c, 0, 84, 60
2, 338950, Note_on_c, 0, 84, 0
2, 339120, Note_on_c, 0, 86, 66
2, 339196, Note_on_c, 0, 86, 0
2, 339360, Note_on_c, 0, 87, 62
2, 339424, Note_on_c, 0, 87, 0
2, 339600, Note_on_c, 0, 89, 65
2, 339670, Note_on_c, 0, 89, 0
2, 339840, Note_on_c, 0, 91, 46
2, 340210, Note_on_c, 0, 91, 0
2, 346080, Note_on_c, 0, 84, 74
2, 346154, Note_on_c, 0, 84, 0
2, 346320, Note_on_c, 0, 86, 73
2, 346392, Note_on_c, 0, 86, 0
2, 346560, Note_on_c, 0, 87, 67
2, 346630, Note_on_c, 0, 87, 0
2, 346800, Note_on_c, 0, 87, 74
2, 346876, Note_on_c, 0, 87, 0
2, 347040, Note_on_c, 0, 87, 70
2, 347104, Note_on_c, 0, 87, 0
2, 347280, Note_on_c, 0, 89, 73
2, 347350, Note_on_c, 0, 89, 0
2, 347520, Note_on_c, 0, 82, 80
2, 347904, Note_on_c, 0, 82, 0
2, 348000, Note_on_c, 0, 86, 80
2, 348096, Note_on_c, 0, 86, 0
2, 348240, Note_on_c, 0, 87, 80
2, 348336, Note_on_c, 0, 87, 0
2, 348480, Note_on_c, 0, 89, 80
2, 348864, Note_on_c, 0, 89, 0
2, 349920, Note_on_c, 0, 87, 80
2, 350016, Note_on_c, 0, 87, 0
2, 350160, Note_on_c, 0, 89, 80
2, 350256, Note_on_c, 0, 89, 0
2, 350400, Note_on_c, 0, 91, 80
2, 350784, Note_on_c, 0, 91, 0
2, 351840, Note_on_c, 0, 86, 80
2, 351936, Note_on_c, 0, 86, 0
2, 352080, Note_on_c, 0, 87, 80
2, 352176, Note_on_c, 0, 87, 0
2, 352320, Note_on_c, 0, 89, 80
2, 352416, Note_on_c, 0, 89, 0
2, 352560, Note_on_c, 0, 91, 80
2, 352656, Note_on_c, 0, 91, 0
2, 352800, Note_on_c, 0, 92, 80
2, 352896, Note_on_c, 0, 92, 0
2, 353040, Note_on_c, 0, 89, 80
2, 353136, Note_on_c, 0, 89, 0
2, 353280, Note_on_c, 0, 82, 39
2, 353664, Note_on_c, 0, 82, 0
2, 353760, Note_on_c, 0, 82, 83
2, 354240, Note_on_c, 0, 82, 0
2, 354240, Note_on_c, 0, 92, 70
2, 354240, Note_on_c, 0, 80, 70
2, 354720, Note_on_c, 0, 80, 0
2, 354720, Note_on_c, 0, 92, 0
2, 354720, Note_on_c, 0, 91, 65
2, 354720, Note_on_c, 0, 79, 65
2, 355200, Note_on_c, 0, 79, 0
2, 355200, Note_on_c, 0, 91, 0
2, 355200, Note_on_c, 0, 77, 58
2, 355680, Note_on_c, 0, 77, 0
2, 355680, Note_on_c, 0, 75, 58
2, 356160, Note_on_c, 0, 75, 0
2, 356160, Note_on_c, 0, 74, 61
2, 356640, Note_on_c, 0, 74, 0
2, 356640, Note_on_c, 0, 75, 54
2, 356974, Note_on_c, 0, 75, 0
2, 357120, Note_on_c, 0, 77, 76
2, 357600, Note_on_c, 0, 77, 0
2, 357600, Note_on_c, 0, 75, 76
2, 358080, Note_on_c, 0, 75, 0
2, 358080, Note_on_c, 0, 74, 67
2, 358080, Note_on_c, 0, 86, 67
2, 358560, Note_on_c, 0, 86, 0
2, 358560, Note_on_c, 0, 74, 0
2, 358560, Note_on_c, 0, 72, 62
2, 358560, Note_on_c, 0, 84, 62
2, 359040, Note_on_c, 0, 84, 0
2, 359040, Note_on_c, 0, 72, 0
2, 359040, Note_on_c, 0, 70, 65
2, 359040, Note_on_c, 0, 82, 65
2, 359520, Note_on_c, 0, 82, 0
2, 359520, Note_on_c, 0, 70, 0
2, 359520, Note_on_c, 0, 80, 61
2, 360000, Note_on_c, 0, 80, 0
2, 360000, Note_on_c, 0, 79, 62
2, 360480, Note_on_c, 0, 79, 0
2, 360480, Note_on_c, 0, 77, 69
2, 360960, Note_on_c, 0, 75, 66
2, 360972, Note_on_c, 0, 77, 0
2, 361440, Note_on_c, 0, 75, 0
2, 361440, Note_on_c, 0, 79, 70
2, 361920, Note_on_c, 0, 79, 0
2, 361920, Note_on_c, 0, 82, 50
2, 362400, Note_on_c, 0, 82, 0
2, 362400, Note_on_c, 0, 75, 62
2, 362880, Note_on_c, 0, 75, 0
2, 362880, Note_on_c, 0, 79, 62
2, 363360, Note_on_c, 0, 79, 0
2, 363360, Note_on_c, 0, 82, 73
2, 363794, Note_on_c, 0, 82, 0
2, 363840, Note_on_c, 0, 82, 81
2, 364156, Note_on_c, 0, 82, 0
2, 364320, Note_on_c, 0, 82, 70
2, 364722, Note_on_c, 0, 82, 0
2, 365184, Note_on_c, 0, 89, 64
2, 365185, Note_on_c, 0, 89, 0
2, 365280, Note_on_c, 0, 82, 83
2, 365760, Note_on_c, 0, 82, 0
2, 365760, Note_on_c, 0, 80, 70
2, 366240, Note_on_c, 0, 80, 0
2, 366240, Note_on_c, 0, 79, 65
2, 366720, Note_on_c, 0, 79, 0
2, 366720, Note_on_c, 0, 77, 58
2, 367200, Note_on_c, 0, 77, 0
2, 367200, Note_on_c, 0, 75, 58
2, 367680, Note_on_c, 0, 75, 0
2, 367680, Note_on_c, 0, 74, 61
2, 368160, Note_on_c, 0, 74, 0
2, 368160, Note_on_c, 0, 75, 54
2, 368494, Note_on_c, 0, 75, 0
2, 368640, Note_on_c, 0, 77, 76
2, 369120, Note_on_c, 0, 77, 0
2, 369120, Note_on_c, 0, 75, 76
2, 369600, Note_on_c, 0, 75, 0
2, 369600, Note_on_c, 0, 86, 67
2, 369600, Note_on_c, 0, 74, 67
2, 370080, Note_on_c, 0, 74, 0
2, 370080, Note_on_c, 0, 86, 0
2, 370080, Note_on_c, 0, 84, 62
2, 370080, Note_on_c, 0, 72, 62
2, 370560, Note_on_c, 0, 72, 0
2, 370560, Note_on_c, 0, 84, 0
2, 370560, Note_on_c, 0, 70, 65
2, 370560, Note_on_c, 0, 82, 65
2, 371040, Note_on_c, 0, 82, 0
2, 371040, Note_on_c, 0, 70, 0
2, 371040, Note_on_c, 0, 80, 61
2, 371520, Note_on_c, 0, 80, 0
2, 371520, Note_on_c, 0, 79, 62
2, 372000, Note_on_c, 0, 79, 0
2, 372000, Note_on_c, 0, 77, 69
2, 372480, Note_on_c, 0, 77, 76
2, 372480, Note_on_c, 0, 89, 76
2, 372492, Note_on_c, 0, 77, 0
2, 372960, Note_on_c, 0, 89, 0
2, 372960, Note_on_c, 0, 77, 0
2, 372960, Note_on_c, 0, 75, 76
2, 372960, Note_on_c, 0, 87, 76
2, 373440, Note_on_c, 0, 87, 0
2, 373440, Note_on_c, 0, 75, 0
2, 373440, Note_on_c, 0, 73, 67
2, 373440, Note_on_c, 0, 85, 67
2, 373920, Note_on_c, 0, 85, 0
2, 373920, Note_on_c, 0, 73, 0
2, 373920, Note_on_c, 0, 72, 62
2, 373920, Note_on_c, 0, 84, 62
2, 374400, Note_on_c, 0, 84, 0
2, 374400, Note_on_c, 0, 72, 0
2, 374400, Note_on_c, 0, 82, 65
2, 374400, Note_on_c, 0, 70, 65
2, 374880, Note_on_c, 0, 70, 0
2, 374880, Note_on_c, 0, 82, 0
2, 374880, Note_on_c, 0, 80, 61
2, 375360, Note_on_c, 0, 80, 0
2, 375360, Note_on_c, 0, 79, 62
2, 375792, Note_on_c, 0, 79, 0
2, 375840, Note_on_c, 0, 87, 69
2, 376320, Note_on_c, 0, 77, 116
2, 376320, Note_on_c, 0, 89, 76
2, 376332, Note_on_c, 0, 87, 0
2, 376800, Note_on_c, 0, 89, 0
2, 376800, Note_on_c, 0, 77, 0
2, 376800, Note_on_c, 0, 75, 76
2, 376800, Note_on_c, 0, 87, 76
2, 377280, Note_on_c, 0, 87, 0
2, 377280, Note_on_c, 0, 75, 0
2, 377280, Note_on_c, 0, 73, 67
2, 377280, Note_on_c, 0, 85, 67
2, 377760, Note_on_c, 0, 85, 0
2, 377760, Note_on_c, 0, 73, 0
2, 377760, Note_on_c, 0, 72, 62
2, 377760, Note_on_c, 0, 84, 62
2, 378240, Note_on_c, 0, 84, 0
2, 378240, Note_on_c, 0, 72, 0
2, 378240, Note_on_c, 0, 82, 65
2, 378240, Note_on_c, 0, 70, 65
2, 378720, Note_on_c, 0, 70, 0
2, 378720, Note_on_c, 0, 82, 0
2, 378720, Note_on_c, 0, 81, 61
2, 379200, Note_on_c, 0, 81, 0
2, 379200, Note_on_c, 0, 88, 62
2, 379200, Note_on_c, 0, 76, 62
2, 379632, Note_on_c, 0, 76, 0
2, 379632, Note_on_c, 0, 88, 0
2, 379680, Note_on_c, 0, 77, 69
2, 379680, Note_on_c, 0, 89, 69
2, 380160, Note_on_c, 0, 79, 116
2, 380160, Note_on_c, 0, 91, 76
2, 380172, Note_on_c, 0, 89, 0
2, 380172, Note_on_c, 0, 77, 0
2, 380640, Note_on_c, 0, 79, 0
2, 380640, Note_on_c, 0, 91, 0
2, 380640, Note_on_c, 0, 77, 76
2, 380640, Note_on_c, 0, 89, 76
2, 381120, Note_on_c, 0, 89, 0
2, 381120, Note_on_c, 0, 77, 0
2, 381120, Note_on_c, 0, 87, 67
2, 381120, Note_on_c, 0, 75, 67
2, 381600, Note_on_c, 0, 75, 0
2, 381600, Note_on_c, 0, 87, 0
2, 381600, Note_on_c, 0, 74, 62
2, 381600, Note_on_c, 0, 86, 62
2, 382080, Note_on_c, 0, 86, 0
2, 382080, Note_on_c, 0, 74, 0
2, 382080, Note_on_c, 0, 72, 65
2, 382080, Note_on_c, 0, 84, 65
2, 382560, Note_on_c, 0, 84, 0
2, 382560, Note_on_c, 0, 72, 0
2, 382560, Note_on_c, 0, 82, 61
2, 383040, Note_on_c, 0, 82, 0
2, 383040, Note_on_c, 0, 86, 62
2, 383040, Note_on_c, 0, 74, 62
2, 383472, Note_on_c, 0, 74, 0
2, 383472, Note_on_c, 0, 86, 0
2, 383520, Note_on_c, 0, 86, 69
2, 383520, Note_on_c, 0, 77, 69
2, 383520, Note_on_c, 0, 89, 69
2, 384000, Note_on_c, 0, 92, 80
2, 384000, Note_on_c, 0, 89, 80
2, 384012, Note_on_c, 0, 89, 0
2, 384012, Note_on_c, 0, 86, 0
2, 384012, Note_on_c, 0, 77, 0
2, 384384, Note_on_c, 0, 92, 0
2, 384384, Note_on_c, 0, 89, 0
2, 384480, Note_on_c, 0, 89, 80
2, 384480, Note_on_c, 0, 92, 80
2, 384864, Note_on_c, 0, 92, 0
2, 384864, Note_on_c, 0, 89, 0
2, 384960, Note_on_c, 0, 92, 80
2, 384960, Note_on_c, 0, 89, 80
2, 385200, Note_on_c, 0, 89, 0
2, 385200, Note_on_c, 0, 92, 0
2, 385440, Note_on_c, 0, 89, 80
2, 385440, Note_on_c, 0, 92, 80
2, 385680, Note_on_c, 0, 92, 0
2, 385680, Note_on_c, 0, 89, 0
2, 385920, Note_on_c, 0, 89, 80
2, 385920, Note_on_c, 0, 92, 80
2, 386160, Note_on_c, 0, 92, 0
2, 386160, Note_on_c, 0, 89, 0
2, 386400, Note_on_c, 0, 89, 80
2, 386400, Note_on_c, 0, 92, 80
2, 386640, Note_on_c, 0, 92, 0
2, 386640, Note_on_c, 0, 89, 0
2, 386880, Note_on_c, 0, 89, 80
2, 386880, Note_on_c, 0, 92, 80
2, 387120, Note_on_c, 0, 92, 0
2, 387120, Note_on_c, 0, 89, 0
2, 387360, Note_on_c, 0, 89, 80
2, 387360, Note_on_c, 0, 92, 80
2, 387600, Note_on_c, 0, 92, 0
2, 387600, Note_on_c, 0, 89, 0
2, 387840, Note_on_c, 0, 89, 80
2, 387840, Note_on_c, 0, 92, 80
2, 389760, Note_on_c, 0, 92, 0
2, 389760, Note_on_c, 0, 89, 0
2, 406080, Note_on_c, 0, 89, 75
2, 407040, Note_on_c, 0, 89, 0
2, 407040, Note_on_c, 0, 87, 75
2, 407520, Note_on_c, 0, 87, 0
2, 407520, Note_on_c, 0, 84, 75
2, 408000, Note_on_c, 0, 84, 0
2, 408000, Note_on_c, 0, 91, 75
2, 408960, Note_on_c, 0, 79, 75
2, 409860, Note_on_c, 0, 79, 0
2, 409920, Note_on_c, 0, 79, 75
2, 410370, Note_on_c, 0, 79, 0
2, 410370, Note_on_c, 0, 91, 0
2, 410400, Note_on_c, 0, 86, 84
2, 410400, Note_on_c, 0, 83, 84
2, 410496, Note_on_c, 0, 83, 0
2, 410496, Note_on_c, 0, 86, 0
2, 410640, Note_on_c, 0, 83, 84
2, 410640, Note_on_c, 0, 86, 84
2, 410736, Note_on_c, 0, 86, 0
2, 410736, Note_on_c, 0, 83, 0
2, 410880, Note_on_c, 0, 84, 84
2, 410880, Note_on_c, 0, 88, 84
2, 411120, Note_on_c, 0, 88, 0
2, 411120, Note_on_c, 0, 84, 0
2, 411120, Note_on_c, 0, 89, 84
2, 411120, Note_on_c, 0, 86, 84
2, 411216, Note_on_c, 0, 86, 0
2, 411216, Note_on_c, 0, 89, 0
2, 411360, Note_on_c, 0, 91, 84
2, 411360, Note_on_c, 0, 88, 84
2, 411456, Note_on_c, 0, 88, 0
2, 411456, Note_on_c, 0, 91, 0
2, 411600, Note_on_c, 0, 88, 84
2, 411600, Note_on_c, 0, 91, 84
2, 411696, Note_on_c, 0, 91, 0
2, 411696, Note_on_c, 0, 88, 0
2, 411840, Note_on_c, 0, 91, 84
2, 411840, Note_on_c, 0, 88, 84
2, 412080, Note_on_c, 0, 88, 0
2, 412080, Note_on_c, 0, 91, 0
2, 412080, Note_on_c, 0, 89, 84
2, 412080, Note_on_c, 0, 86, 84
2, 412320, Note_on_c, 0, 86, 0
2, 412320, Note_on_c, 0, 89, 0
2, 412320, Note_on_c, 0, 88, 84
2, 412320, Note_on_c, 0, 84, 84
2, 412560, Note_on_c, 0, 84, 0
2, 412560, Note_on_c, 0, 88, 0
2, 412560, Note_on_c, 0, 83, 84
2, 412560, Note_on_c, 0, 86, 84
2, 412656, Note_on_c, 0, 86, 0
2, 412656, Note_on_c, 0, 83, 0
2, 412800, Note_on_c, 0, 84, 84
2, 412800, Note_on_c, 0, 88, 84
2, 413040, Note_on_c, 0, 88, 0
2, 413040, Note_on_c, 0, 84, 0
2, 413040, Note_on_c, 0, 86, 84
2, 413040, Note_on_c, 0, 89, 84
2, 413136, Note_on_c, 0, 89, 0
2, 413136, Note_on_c, 0, 86, 0
2, 413280, Note_on_c, 0, 88, 84
2, 413280, Note_on_c, 0, 91, 84
2, 413376, Note_on_c, 0, 91, 0
2, 413376, Note_on_c, 0, 88, 0
2, 413520, Note_on_c, 0, 91, 84
2, 413520, Note_on_c, 0, 88, 84
2, 413616, Note_on_c, 0, 88, 0
2, 413616, Note_on_c, 0, 91, 0
2, 413760, Note_on_c, 0, 91, 84
2, 413760, Note_on_c, 0, 88, 84
2, 414000, Note_on_c, 0, 88, 0
2, 414000, Note_on_c, 0, 91, 0
2, 414000, Note_on_c, 0, 89, 84
2, 414000, Note_on_c, 0, 86, 84
2, 414240, Note_on_c, 0, 86, 0
2, 414240, Note_on_c, 0, 89, 0
2, 414240, Note_on_c, 0, 88, 84
2, 414240, Note_on_c, 0, 84, 84
2, 414480, Note_on_c, 0, 84, 0
2, 414480, Note_on_c, 0, 88, 0
2, 414480, Note_on_c, 0, 83, 84
2, 414480, Note_on_c, 0, 86, 84
2, 414576, Note_on_c, 0, 86, 0
2, 414576, Note_on_c, 0, 83, 0
2, 414720, Note_on_c, 0, 84, 84
2, 414720, Note_on_c, 0, 88, 84
2, 414960, Note_on_c, 0, 88, 0
2, 414960, Note_on_c, 0, 84, 0
2, 414960, Note_on_c, 0, 89, 84
2, 414960, Note_on_c, 0, 86, 84
2, 415056, Note_on_c, 0, 86, 0
2, 415056, Note_on_c, 0, 89, 0
2, 415200, Note_on_c, 0, 88, 84
2, 415200, Note_on_c, 0, 91, 84
2, 415296, Note_on_c, 0, 91, 0
2, 415296, Note_on_c, 0, 88, 0
2, 415440, Note_on_c, 0, 91, 84
2, 415440, Note_on_c, 0, 88, 84
2, 415536, Note_on_c, 0, 88, 0
2, 415536, Note_on_c, 0, 91, 0
2, 415680, Note_on_c, 0, 88, 84
2, 415680, Note_on_c, 0, 91, 84
2, 415920, Note_on_c, 0, 91, 0
2, 415920, Note_on_c, 0, 88, 0
2, 415920, Note_on_c, 0, 86, 84
2, 415920, Note_on_c, 0, 89, 84
2, 416160, Note_on_c, 0, 89, 0
2, 416160, Note_on_c, 0, 86, 0
2, 416160, Note_on_c, 0, 88, 84
2, 416160, Note_on_c, 0, 84, 84
2, 416400, Note_on_c, 0, 84, 0
2, 416400, Note_on_c, 0, 88, 0
2, 416400, Note_on_c, 0, 86, 84
2, 416400, Note_on_c, 0, 83, 84
2, 416496, Note_on_c, 0, 83, 0
2, 416496, Note_on_c, 0, 86, 0
2, 416640, Note_on_c, 0, 84, 84
2, 416640, Note_on_c, 0, 88, 84
2, 417090, Note_on_c, 0, 88, 0
2, 417090, Note_on_c, 0, 84, 0
2, 417120, Note_on_c, 0, 87, 70
2, 418560, Note_on_c, 0, 87, 0
2, 418560, Note_on_c, 0, 82, 80
2, 419970, Note_on_c, 0, 82, 0
2, 420000, Note_on_c, 0, 77, 84
2, 420000, Note_on_c, 0, 86, 84
2, 420096, Note_on_c, 0, 86, 0
2, 420096, Note_on_c, 0, 77, 0
2, 420240, Note_on_c, 0, 86, 84
2, 420240, Note_on_c, 0, 77, 84
2, 420336, Note_on_c, 0, 77, 0
2, 420336, Note_on_c, 0, 86, 0
2, 420480, Note_on_c, 0, 79, 84
2, 420480, Note_on_c, 0, 87, 84
2, 420720, Note_on_c, 0, 87, 0
2, 420720, Note_on_c, 0, 79, 0
2, 420720, Note_on_c, 0, 89, 84
2, 420720, Note_on_c, 0, 80, 84
2, 420816, Note_on_c, 0, 80, 0
2, 420816, Note_on_c, 0, 89, 0
2, 420960, Note_on_c, 0, 82, 84
2, 420960, Note_on_c, 0, 91, 84
2, 421056, Note_on_c, 0, 91, 0
2, 421056, Note_on_c, 0, 82, 0
2, 421200, Note_on_c, 0, 91, 84
2, 421200, Note_on_c, 0, 82, 84
2, 421296, Note_on_c, 0, 82, 0
2, 421296, Note_on_c, 0, 91, 0
2, 421440, Note_on_c, 0, 91, 84
2, 421440, Note_on_c, 0, 82, 84
2, 421680, Note_on_c, 0, 82, 0
2, 421680, Note_on_c, 0, 91, 0
2, 421680, Note_on_c, 0, 80, 84
2, 421680, Note_on_c, 0, 89, 84
2, 421920, Note_on_c, 0, 89, 0
2, 421920, Note_on_c, 0, 80, 0
2, 421920, Note_on_c, 0, 79, 84
2, 421920, Note_on_c, 0, 87, 84
2, 422160, Note_on_c, 0, 87, 0
2, 422160, Note_on_c, 0, 79, 0
2, 422160, Note_on_c, 0, 86, 84
2, 422160, Note_on_c, 0, 77, 84
2, 422256, Note_on_c, 0, 77, 0
2, 422256, Note_on_c, 0, 86, 0
2, 422400, Note_on_c, 0, 87, 84
2, 422400, Note_on_c, 0, 79, 84
2, 422640, Note_on_c, 0, 79, 0
2, 422640, Note_on_c, 0, 87, 0
2, 422640, Note_on_c, 0, 89, 84
2, 422640, Note_on_c, 0, 80, 84
2, 422736, Note_on_c, 0, 80, 0
2, 422736, Note_on_c, 0, 89, 0
2, 422880, Note_on_c, 0, 91, 84
2, 422880, Note_on_c, 0, 82, 84
2, 422976, Note_on_c, 0, 82, 0
2, 422976, Note_on_c, 0, 91, 0
2, 423120, Note_on_c, 0, 91, 84
2, 423120, Note_on_c, 0, 82, 84
2, 423216, Note_on_c, 0, 82, 0
2, 423216, Note_on_c, 0, 91, 0
2, 423360, Note_on_c, 0, 91, 84
2, 423360, Note_on_c, 0, 82, 84
2, 423600, Note_on_c, 0, 82, 0
2, 423600, Note_on_c, 0, 91, 0
2, 423600, Note_on_c, 0, 80, 84
2, 423600, Note_on_c, 0, 89, 84
2, 423840, Note_on_c, 0, 89, 0
2, 423840, Note_on_c, 0, 80, 0
2, 423840, Note_on_c, 0, 79, 84
2, 423840, Note_on_c, 0, 87, 84
2, 424080, Note_on_c, 0, 87, 0
2, 424080, Note_on_c, 0, 79, 0
2, 424080, Note_on_c, 0, 77, 84
2, 424080, Note_on_c, 0, 86, 84
2, 424176, Note_on_c, 0, 86, 0
2, 424176, Note_on_c, 0, 77, 0
2, 424320, Note_on_c, 0, 87, 84
2, 424320, Note_on_c, 0, 79, 84
2, 424560, Note_on_c, 0, 79, 0
2, 424560, Note_on_c, 0, 87, 0
2, 424560, Note_on_c, 0, 89, 84
2, 424560, Note_on_c, 0, 80, 84
2, 424656, Note_on_c, 0, 80, 0
2, 424656, Note_on_c, 0, 89, 0
2, 424800, Note_on_c, 0, 91, 84
2, 424800, Note_on_c, 0, 82, 84
2, 424896, Note_on_c, 0, 82, 0
2, 424896, Note_on_c, 0, 91, 0
2, 425040, Note_on_c, 0, 91, 84
2, 425040, Note_on_c, 0, 82, 84
2, 425136, Note_on_c, 0, 82, 0
2, 425136, Note_on_c, 0, 91, 0
2, 425280, Note_on_c, 0, 91, 84
2, 425280, Note_on_c, 0, 82, 84
2, 425520, Note_on_c, 0, 82, 0
2, 425520, Note_on_c, 0, 91, 0
2, 425520, Note_on_c, 0, 80, 84
2, 425520, Note_on_c, 0, 89, 84
2, 425760, Note_on_c, 0, 89, 0
2, 425760, Note_on_c, 0, 80, 0
2, 425760, Note_on_c, 0, 79, 84
2, 425760, Note_on_c, 0, 87, 84
2, 426000, Note_on_c, 0, 87, 0
2, 426000, Note_on_c, 0, 79, 0
2, 426000, Note_on_c, 0, 77, 84
2, 426000, Note_on_c, 0, 86, 84
2, 426096, Note_on_c, 0, 86, 0
2, 426096, Note_on_c, 0, 77, 0
2, 426240, Note_on_c, 0, 87, 84
2, 426240, Note_on_c, 0, 79, 84
2, 426480, Note_on_c, 0, 79, 0
2, 426480, Note_on_c, 0, 87, 0
2, 426480, Note_on_c, 0, 89, 84
2, 426480, Note_on_c, 0, 80, 84
2, 426576, Note_on_c, 0, 80, 0
2, 426576, Note_on_c, 0, 89, 0
2, 426720, Note_on_c, 0, 91, 84
2, 426720, Note_on_c, 0, 82, 84
2, 426816, Note_on_c, 0, 82, 0
2, 426816, Note_on_c, 0, 91, 0
2, 426960, Note_on_c, 0, 91, 84
2, 426960, Note_on_c, 0, 82, 84
2, 427056, Note_on_c, 0, 82, 0
2, 427056, Note_on_c, 0, 91, 0
2, 427200, Note_on_c, 0, 91, 84
2, 427200, Note_on_c, 0, 82, 84
2, 427440, Note_on_c, 0, 82, 0
2, 427440, Note_on_c, 0, 91, 0
2, 427440, Note_on_c, 0, 80, 84
2, 427440, Note_on_c, 0, 89, 84
2, 427680, Note_on_c, 0, 89, 0
2, 427680, Note_on_c, 0, 80, 0
2, 427680, Note_on_c, 0, 79, 84
2, 427680, Note_on_c, 0, 87, 84
2, 427920, Note_on_c, 0, 87, 0
2, 427920, Note_on_c, 0, 79, 0
2, 427920, Note_on_c, 0, 77, 84
2, 427920, Note_on_c, 0, 86, 84
2, 428016, Note_on_c, 0, 86, 0
2, 428016, Note_on_c, 0, 77, 0
2, 428160, Note_on_c, 0, 87, 56
2, 428160, Note_on_c, 0, 79, 56
2, 428386, Note_on_c, 0, 79, 0
2, 428386, Note_on_c, 0, 87, 0
2, 429120, Note_on_c, 0, 87, 52
2, 429120, Note_on_c, 0, 91, 52
2, 429240, Note_on_c, 0, 91, 0
2, 429240, Note_on_c, 0, 87, 0
2, 429360, Note_on_c, 0, 87, 52
2, 429360, Note_on_c, 0, 91, 52
2, 429720, Note_on_c, 0, 91, 0
2, 429720, Note_on_c, 0, 87, 0
2, 429840, Note_on_c, 0, 91, 52
2, 429840, Note_on_c, 0, 87, 52
2, 429960, Note_on_c, 0, 87, 0
2, 429960, Note_on_c, 0, 91, 0
2, 430080, Note_on_c, 0, 92, 56
2, 430080, Note_on_c, 0, 84, 56
2, 430306, Note_on_c, 0, 84, 0
2, 430306, Note_on_c, 0, 92, 0
2, 431040, Note_on_c, 0, 92, 56
2, 431040, Note_on_c, 0, 84, 56
2, 431266, Note_on_c, 0, 84, 0
2, 431266, Note_on_c, 0, 92, 0
2, 431280, Note_on_c, 0, 84, 56
2, 431280, Note_on_c, 0, 92, 56
2, 431746, Note_on_c, 0, 92, 0
2, 431746, Note_on_c, 0, 84, 0
2, 431760, Note_on_c, 0, 84, 56
2, 431760, Note_on_c, 0, 92, 56
2, 431986, Note_on_c, 0, 92, 0
2, 431986, Note_on_c, 0, 84, 0
2, 432000, Note_on_c, 0, 84, 56
2, 432000, Note_on_c, 0, 93, 56
2, 432226, Note_on_c, 0, 93, 0
2, 432226, Note_on_c, 0, 84, 0
2, 432240, Note_on_c, 0, 93, 56
2, 432240, Note_on_c, 0, 84, 56
2, 432466, Note_on_c, 0, 84, 0
2, 432466, Note_on_c, 0, 93, 0
2, 432480, Note_on_c, 0, 84, 56
2, 432480, Note_on_c, 0, 93, 56
2, 432706, Note_on_c, 0, 93, 0
2, 432706, Note_on_c, 0, 84, 0
2, 432960, Note_on_c, 0, 84, 56
2, 432960, Note_on_c, 0, 93, 56
2, 433186, Note_on_c, 0, 93, 0
2, 433186, Note_on_c, 0, 84, 0
2, 433200, Note_on_c, 0, 84, 56
2, 433200, Note_on_c, 0, 93, 56
2, 433426, Note_on_c, 0, 93, 0
2, 433426, Note_on_c, 0, 84, 0
2, 433440, Note_on_c, 0, 84, 56
2, 433440, Note_on_c, 0, 93, 56
2, 433666, Note_on_c, 0, 93, 0
2, 433666, Note_on_c, 0, 84, 0
2, 433920, Note_on_c, 0, 87, 56
2, 433920, Note_on_c, 0, 91, 56
2, 434146, Note_on_c, 0, 91, 0
2, 434146, Note_on_c, 0, 87, 0
2, 434160, Note_on_c, 0, 91, 56
2, 434160, Note_on_c, 0, 87, 56
2, 434386, Note_on_c, 0, 87, 0
2, 434386, Note_on_c, 0, 91, 0
2, 434400, Note_on_c, 0, 91, 56
2, 434400, Note_on_c, 0, 87, 56
2, 434626, Note_on_c, 0, 87, 0
2, 434626, Note_on_c, 0, 91, 0
2, 434880, Note_on_c, 0, 86, 56
2, 434880, Note_on_c, 0, 89, 56
2, 435106, Note_on_c, 0, 89, 0
2, 435106, Note_on_c, 0, 86, 0
2, 435120, Note_on_c, 0, 86, 56
2, 435120, Note_on_c, 0, 89, 56
2, 435346, Note_on_c, 0, 89, 0
2, 435346, Note_on_c, 0, 86, 0
2, 435360, Note_on_c, 0, 89, 56
2, 435360, Note_on_c, 0, 86, 56
2, 435586, Note_on_c, 0, 86, 0
2, 435586, Note_on_c, 0, 89, 0
2, 435840, Note_on_c, 0, 79, 56
2, 435840, Note_on_c, 0, 87, 56
2, 436066, Note_on_c, 0, 87, 0
2, 436066, Note_on_c, 0, 79, 0
2, 436800, Note_on_c, 0, 87, 52
2, 436800, Note_on_c, 0, 91, 52
2, 436920, Note_on_c, 0, 91, 0
2, 436920, Note_on_c, 0, 87, 0
2, 437040, Note_on_c, 0, 87, 52
2, 437040, Note_on_c, 0, 91, 52
2, 437400, Note_on_c, 0, 91, 0
2, 437400, Note_on_c, 0, 87, 0
2, 437520, Note_on_c, 0, 91, 52
2, 437520, Note_on_c, 0, 87, 52
2, 437640, Note_on_c, 0, 87, 0
2, 437640, Note_on_c, 0, 91, 0
2, 437760, Note_on_c, 0, 92, 56
2, 437760, Note_on_c, 0, 84, 56
2, 437986, Note_on_c, 0, 84, 0
2, 437986, Note_on_c, 0, 92, 0
2, 438720, Note_on_c, 0, 92, 56
2, 438720, Note_on_c, 0, 84, 56
2, 438946, Note_on_c, 0, 84, 0
2, 438946, Note_on_c, 0, 92, 0
2, 438960, Note_on_c, 0, 84, 56
2, 438960, Note_on_c, 0, 92, 56
2, 439426, Note_on_c, 0, 92, 0
2, 439426, Note_on_c, 0, 84, 0
2, 439440, Note_on_c, 0, 84, 56
2, 439440, Note_on_c, 0, 92, 56
2, 439666, Note_on_c, 0, 92, 0
2, 439666, Note_on_c, 0, 84, 0
2, 439680, Note_on_c, 0, 84, 56
2, 439680, Note_on_c, 0, 93, 56
2, 439906, Note_on_c, 0, 93, 0
2, 439906, Note_on_c, 0, 84, 0
2, 439920, Note_on_c, 0, 93, 56
2, 439920, Note_on_c, 0, 84, 56
2, 440146, Note_on_c, 0, 84, 0
2, 440146, Note_on_c, 0, 93, 0
2, 440160, Note_on_c, 0, 84, 56
2, 440160, Note_on_c, 0, 93, 56
2, 440386, Note_on_c, 0, 93, 0
2, 440386, Note_on_c, 0, 84, 0
2, 440640, Note_on_c, 0, 84, 56
2, 440640, Note_on_c, 0, 93, 56
2, 440866, Note_on_c, 0, 93, 0
2, 440866, Note_on_c, 0, 84, 0
2, 440880, Note_on_c, 0, 84, 56
2, 440880, Note_on_c, 0, 93, 56
2, 441106, Note_on_c, 0, 93, 0
2, 441106, Note_on_c, 0, 84, 0
2, 441120, Note_on_c, 0, 84, 56
2, 441120, Note_on_c, 0, 93, 56
2, 441346, Note_on_c, 0, 93, 0
2, 441346, Note_on_c, 0, 84, 0
2, 441600, Note_on_c, 0, 87, 56
2, 441600, Note_on_c, 0, 91, 56
2, 441826, Note_on_c, 0, 91, 0
2, 441826, Note_on_c, 0, 87, 0
2, 441840, Note_on_c, 0, 91, 56
2, 441840, Note_on_c, 0, 87, 56
2, 442066, Note_on_c, 0, 87, 0
2, 442066, Note_on_c, 0, 91, 0
2, 442080, Note_on_c, 0, 91, 56
2, 442080, Note_on_c, 0, 87, 56
2, 442306, Note_on_c, 0, 87, 0
2, 442306, Note_on_c, 0, 91, 0
2, 442560, Note_on_c, 0, 86, 56
2, 442560, Note_on_c, 0, 89, 56
2, 442786, Note_on_c, 0, 89, 0
2, 442786, Note_on_c, 0, 86, 0
2, 442800, Note_on_c, 0, 86, 56
2, 442800, Note_on_c, 0, 89, 56
2, 443026, Note_on_c, 0, 89, 0
2, 443026, Note_on_c, 0, 86, 0
2, 443040, Note_on_c, 0, 89, 56
2, 443040, Note_on_c, 0, 86, 56
2, 443266, Note_on_c, 0, 86, 0
2, 443266, Note_on_c, 0, 89, 0
2, 443520, Note_on_c, 0, 87, 80
2, 443520, Note_on_c, 0, 91, 80
2, 443520, Note_on_c, 0, 79, 120
2, 443712, Note_on_c, 0, 79, 0
2, 443760, Note_on_c, 0, 91, 120
2, 444144, Note_on_c, 0, 91, 0
2, 444240, Note_on_c, 0, 87, 120
2, 444432, Note_on_c, 0, 87, 0
2, 444480, Note_on_c, 0, 82, 120
2, 444672, Note_on_c, 0, 82, 0
2, 444720, Note_on_c, 0, 79, 120
2, 445104, Note_on_c, 0, 79, 0
2, 445200, Note_on_c, 0, 75, 120
2, 445392, Note_on_c, 0, 75, 0
2, 445440, Note_on_c, 0, 70, 120
2, 445632, Note_on_c, 0, 70, 0
2, 445680, Note_on_c, 0, 67, 120
2, 446064, Note_on_c, 0, 67, 0
2, 446160, Note_on_c, 0, 63, 120
2, 446352, Note_on_c, 0, 63, 0
2, 446400, Note_on_c, 0, 87, 0
2, 446400, Note_on_c, 0, 91, 0
2, 446400, Note_on_c, 0, 58, 120
2, 446400, Note_on_c, 0, 92, 100
2, 446400, Note_on_c, 0, 89, 80
2, 446592, Note_on_c, 0, 58, 0
2, 446640, Note_on_c, 0, 80, 127
2, 446880, Note_on_c, 0, 89, 0
2, 446880, Note_on_c, 0, 92, 0
2, 446880, Note_on_c, 0, 89, 80
2, 446880, Note_on_c, 0, 86, 80
2, 447024, Note_on_c, 0, 80, 0
2, 447120, Note_on_c, 0, 77, 120
2, 447312, Note_on_c, 0, 77, 0
2, 447360, Note_on_c, 0, 86, 0
2, 447360, Note_on_c, 0, 89, 0
2, 447360, Note_on_c, 0, 87, 80
2, 447360, Note_on_c, 0, 91, 80
2, 447360, Note_on_c, 0, 79, 120
2, 447552, Note_on_c, 0, 79, 0
2, 447600, Note_on_c, 0, 91, 120
2, 447984, Note_on_c, 0, 91, 0
2, 448080, Note_on_c, 0, 87, 120
2, 448272, Note_on_c, 0, 87, 0
2, 448320, Note_on_c, 0, 82, 120
2, 448512, Note_on_c, 0, 82, 0
2, 448560, Note_on_c, 0, 79, 120
2, 448944, Note_on_c, 0, 79, 0
2, 449040, Note_on_c, 0, 75, 120
2, 449232, Note_on_c, 0, 75, 0
2, 449280, Note_on_c, 0, 70, 120
2, 449472, Note_on_c, 0, 70, 0
2, 449520, Note_on_c, 0, 67, 120
2, 449904, Note_on_c, 0, 67, 0
2, 450000, Note_on_c, 0, 63, 120
2, 450192, Note_on_c, 0, 63, 0
2, 450240, Note_on_c, 0, 87, 0
2, 450240, Note_on_c, 0, 91, 0
2, 450240, Note_on_c, 0, 89, 80
2, 450240, Note_on_c, 0, 92, 100
2, 450240, Note_on_c, 0, 58, 120
2, 450432, Note_on_c, 0, 58, 0
2, 450480, Note_on_c, 0, 80, 127
2, 450720, Note_on_c, 0, 92, 0
2, 450720, Note_on_c, 0, 89, 0
2, 450720, Note_on_c, 0, 89, 80
2, 450720, Note_on_c, 0, 86, 80
2, 450864, Note_on_c, 0, 80, 0
2, 450960, Note_on_c, 0, 77, 120
2, 451152, Note_on_c, 0, 77, 0
2, 451200, Note_on_c, 0, 86, 0
2, 451200, Note_on_c, 0, 89, 0
2, 451200, Note_on_c, 0, 87, 80
2, 451200, Note_on_c, 0, 91, 80
2, 451200, Note_on_c, 0, 79, 120
2, 451392, Note_on_c, 0, 79, 0
2, 451440, Note_on_c, 0, 91, 120
2, 451824, Note_on_c, 0, 91, 0
2, 451920, Note_on_c, 0, 87, 120
2, 452112, Note_on_c, 0, 87, 0
2, 452160, Note_on_c, 0, 82, 120
2, 452352, Note_on_c, 0, 82, 0
2, 452400, Note_on_c, 0, 79, 120
2, 452784, Note_on_c, 0, 79, 0
2, 452880, Note_on_c, 0, 75, 120
2, 453072, Note_on_c, 0, 75, 0
2, 453120, Note_on_c, 0, 70, 120
2, 453312, Note_on_c, 0, 70, 0
2, 453360, Note_on_c, 0, 67, 120
2, 453744, Note_on_c, 0, 67, 0
2, 453840, Note_on_c, 0, 63, 120
2, 454032, Note_on_c, 0, 63, 0
2, 454080, Note_on_c, 0, 87, 0
2, 454080, Note_on_c, 0, 91, 0
2, 454080, Note_on_c, 0, 89, 80
2, 454080, Note_on_c, 0, 92, 100
2, 454080, Note_on_c, 0, 58, 120
2, 454272, Note_on_c, 0, 58, 0
2, 454320, Note_on_c, 0, 80, 127
2, 454560, Note_on_c, 0, 92, 0
2, 454560, Note_on_c, 0, 89, 0
2, 454560, Note_on_c, 0, 89, 80
2, 454560, Note_on_c, 0, 86, 80
2, 454704, Note_on_c, 0, 80, 0
2, 454800, Note_on_c, 0, 77, 120
2, 454992, Note_on_c, 0, 77, 0
2, 455040, Note_on_c, 0, 86, 0
2, 455040, Note_on_c, 0, 89, 0
2, 455040, Note_on_c, 0, 87, 80
2, 455040, Note_on_c, 0, 91, 80
2, 455040, Note_on_c, 0, 79, 120
2, 455232, Note_on_c, 0, 79, 0
2, 455280, Note_on_c, 0, 91, 120
2, 455664, Note_on_c, 0, 91, 0
2, 455760, Note_on_c, 0, 87, 120
2, 455952, Note_on_c, 0, 87, 0
2, 456000, Note_on_c, 0, 82, 120
2, 456192, Note_on_c, 0, 82, 0
2, 456240, Note_on_c, 0, 79, 120
2, 456624, Note_on_c, 0, 79, 0
2, 456720, Note_on_c, 0, 75, 120
2, 456912, Note_on_c, 0, 75, 0
2, 456960, Note_on_c, 0, 70, 120
2, 457152, Note_on_c, 0, 70, 0
2, 457200, Note_on_c, 0, 67, 120
2, 457584, Note_on_c, 0, 67, 0
2, 457680, Note_on_c, 0, 63, 120
2, 457872, Note_on_c, 0, 63, 0
2, 457920, Note_on_c, 0, 87, 0
2, 457920, Note_on_c, 0, 91, 0
2, 457920, Note_on_c, 0, 89, 80
2, 457920, Note_on_c, 0, 92, 100
2, 457920, Note_on_c, 0, 58, 120
2, 458112, Note_on_c, 0, 58, 0
2, 458160, Note_on_c, 0, 80, 127
2, 458400, Note_on_c, 0, 92, 0
2, 458400, Note_on_c, 0, 89, 0
2, 458400, Note_on_c, 0, 89, 80
2, 458400, Note_on_c, 0, 86, 80
2, 458544, Note_on_c, 0, 80, 0
2, 458640, Note_on_c, 0, 77, 120
2, 458832, Note_on_c, 0, 77, 0
2, 458880, Note_on_c, 0, 86, 0
2, 458880, Note_on_c, 0, 89, 0
2, 458880, Note_on_c, 0, 79, 56
2, 458880, Note_on_c, 0, 87, 56
2, 459264, Note_on_c, 0, 87, 0
2, 459264, Note_on_c, 0, 79, 0
2, 460800, Note_on_c, 0, 75, 64
2, 460992, Note_on_c, 0, 75, 0
2, 461280, Note_on_c, 0, 79, 64
2, 461472, Note_on_c, 0, 79, 0
2, 461760, Note_on_c, 0, 82, 64
2, 461952, Note_on_c, 0, 82, 0
2, 462240, Note_on_c, 0, 87, 64
2, 462432, Note_on_c, 0, 87, 0
2, 462720, Note_on_c, 0, 91, 77
2, 462912, Note_on_c, 0, 91, 0
2, 463200, Note_on_c, 0, 87, 77
2, 463392, Note_on_c, 0, 87, 0
2, 463680, Note_on_c, 0, 82, 77
2, 463872, Note_on_c, 0, 82, 0
2, 464160, Note_on_c, 0, 79, 77
2, 464352, Note_on_c, 0, 79, 0
2, 464640, Note_on_c, 0, 75, 77
2, 464832, Note_on_c, 0, 75, 0
2, 465120, Note_on_c, 0, 79, 77
2, 465312, Note_on_c, 0, 79, 0
2, 465600, Note_on_c, 0, 82, 77
2, 465792, Note_on_c, 0, 82, 0
2, 466080, Note_on_c, 0, 87, 77
2, 466272, Note_on_c, 0, 87, 0
2, 466560, Note_on_c, 0, 91, 92
2, 466752, Note_on_c, 0, 91, 0
2, 467040, Note_on_c, 0, 87, 92
2, 467232, Note_on_c, 0, 87, 0
2, 467520, Note_on_c, 0, 82, 92
2, 467712, Note_on_c, 0, 82, 0
2, 468000, Note_on_c, 0, 79, 92
2, 468192, Note_on_c, 0, 79, 0
2, 468480, Note_on_c, 0, 75, 92
2, 468672, Note_on_c, 0, 75, 0
2, 468960, Note_on_c, 0, 79, 92
2, 469152, Note_on_c, 0, 79, 0
2, 469440, Note_on_c, 0, 82, 92
2, 469632, Note_on_c, 0, 82, 0
2, 469920, Note_on_c, 0, 87, 92
2, 470112, Note_on_c, 0, 87, 0
2, 470400, Note_on_c, 0, 79, 110
2, 470592, Note_on_c, 0, 79, 0
2, 470880, Note_on_c, 0, 82, 110
2, 471072, Note_on_c, 0, 82, 0
2, 471360, Note_on_c, 0, 87, 110
2, 471552, Note_on_c, 0, 87, 0
2, 471840, Note_on_c, 0, 91, 110
2, 472032, Note_on_c, 0, 91, 0
2, 472320, Note_on_c, 0, 79, 110
2, 472512, Note_on_c, 0, 79, 0
2, 472800, Note_on_c, 0, 82, 110
2, 472992, Note_on_c, 0, 82, 0
2, 473280, Note_on_c, 0, 87, 110
2, 473472, Note_on_c, 0, 87, 0
2, 473760, Note_on_c, 0, 91, 110
2, 473952, Note_on_c, 0, 91, 0
2, 474240, Note_on_c, 0, 92, 80
2, 474240, Note_on_c, 0, 89, 80
2, 474432, Note_on_c, 0, 89, 0
2, 474432, Note_on_c, 0, 92, 0
2, 474480, Note_on_c, 0, 92, 80
2, 474480, Note_on_c, 0, 89, 80
2, 474864, Note_on_c, 0, 89, 0
2, 474864, Note_on_c, 0, 92, 0
2, 474960, Note_on_c, 0, 89, 80
2, 474960, Note_on_c, 0, 92, 80
2, 475152, Note_on_c, 0, 92, 0
2, 475152, Note_on_c, 0, 89, 0
2, 475200, Note_on_c, 0, 89, 80
2, 475200, Note_on_c, 0, 92, 80
2, 475968, Note_on_c, 0, 92, 0
2, 475968, Note_on_c, 0, 89, 0
2, 478320, Note_on_c, 0, 92, 80
2, 478320, Note_on_c, 0, 89, 80
2, 478512, Note_on_c, 0, 89, 0
2, 478512, Note_on_c, 0, 92, 0
2, 478560, Note_on_c, 0, 92, 80
2, 478560, Note_on_c, 0, 89, 80
2, 478944, Note_on_c, 0, 89, 0
2, 478944, Note_on_c, 0, 92, 0
2, 479040, Note_on_c, 0, 89, 80
2, 479040, Note_on_c, 0, 92, 80
2, 479232, Note_on_c, 0, 92, 0
2, 479232, Note_on_c, 0, 89, 0
2, 479280, Note_on_c, 0, 89, 80
2, 479280, Note_on_c, 0, 92, 80
2, 480048, Note_on_c, 0, 92, 0
2, 480048, Note_on_c, 0, 89, 0
2, 482400, Note_on_c, 0, 92, 76
2, 482400, Note_on_c, 0, 89, 56
2, 482592, Note_on_c, 0, 89, 0
2, 482592, Note_on_c, 0, 92, 0
2, 482640, Note_on_c, 0, 92, 56
2, 482640, Note_on_c, 0, 89, 56
2, 482832, Note_on_c, 0, 89, 0
2, 482832, Note_on_c, 0, 92, 0
2, 482880, Note_on_c, 0, 89, 56
2, 482880, Note_on_c, 0, 92, 56
2, 483072, Note_on_c, 0, 92, 0
2, 483072, Note_on_c, 0, 89, 0
2, 483120, Note_on_c, 0, 92, 56
2, 483120, Note_on_c, 0, 89, 56
2, 483312, Note_on_c, 0, 89, 0
2, 483312, Note_on_c, 0, 92, 0
2, 483360, Note_on_c, 0, 92, 76
2, 483360, Note_on_c, 0, 89, 56
2, 483552, Note_on_c, 0, 89, 0
2, 483552, Note_on_c, 0, 92, 0
2, 483600, Note_on_c, 0, 89, 56
2, 483600, Note_on_c, 0, 92, 56
2, 483792, Note_on_c, 0, 92, 0
2, 483792, Note_on_c, 0, 89, 0
2, 483840, Note_on_c, 0, 92, 56
2, 483840, Note_on_c, 0, 89, 56
2, 484032, Note_on_c, 0, 89, 0
2, 484032, Note_on_c, 0, 92, 0
2, 484080, Note_on_c, 0, 92, 56
2, 484080, Note_on_c, 0, 89, 56
2, 484272, Note_on_c, 0, 89, 0
2, 484272, Note_on_c, 0, 92, 0
2, 484320, Note_on_c, 0, 92, 76
2, 484320, Note_on_c, 0, 89, 56
2, 484512, Note_on_c, 0, 89, 0
2, 484512, Note_on_c, 0, 92, 0
2, 484560, Note_on_c, 0, 89, 56
2, 484560, Note_on_c, 0, 92, 56
2, 484752, Note_on_c, 0, 92, 0
2, 484752, Note_on_c, 0, 89, 0
2, 484800, Note_on_c, 0, 92, 56
2, 484800, Note_on_c, 0, 89, 56
2, 484992, Note_on_c, 0, 89, 0
2, 484992, Note_on_c, 0, 92, 0
2, 485040, Note_on_c, 0, 92, 56
2, 485040, Note_on_c, 0, 89, 56
2, 485232, Note_on_c, 0, 89, 0
2, 485232, Note_on_c, 0, 92, 0
2, 485280, Note_on_c, 0, 92, 76
2, 485280, Note_on_c, 0, 89, 56
2, 485472, Note_on_c, 0, 89, 0
2, 485472, Note_on_c, 0, 92, 0
2, 485520, Note_on_c, 0, 89, 56
2, 485520, Note_on_c, 0, 92, 56
2, 485712, Note_on_c, 0, 92, 0
2, 485712, Note_on_c, 0, 89, 0
2, 485760, Note_on_c, 0, 92, 56
2, 485760, Note_on_c, 0, 89, 56
2, 485952, Note_on_c, 0, 89, 0
2, 485952, Note_on_c, 0, 92, 0
2, 486000, Note_on_c, 0, 92, 56
2, 486000, Note_on_c, 0, 89, 56
2, 486192, Note_on_c, 0, 89, 0
2, 486192, Note_on_c, 0, 92, 0
2, 486240, Note_on_c, 0, 87, 56
2, 486240, Note_on_c, 0, 91, 56
2, 486384, Note_on_c, 0, 91, 0
2, 486384, Note_on_c, 0, 87, 0
2, 486720, Note_on_c, 0, 91, 56
2, 486720, Note_on_c, 0, 87, 56
2, 486864, Note_on_c, 0, 87, 0
2, 486864, Note_on_c, 0, 91, 0
2, 487200, Note_on_c, 0, 87, 56
2, 487200, Note_on_c, 0, 91, 56
2, 487344, Note_on_c, 0, 91, 0
2, 487344, Note_on_c, 0, 87, 0
2, 487680, Note_on_c, 0, 91, 56
2, 487680, Note_on_c, 0, 87, 56
2, 487824, Note_on_c, 0, 87, 0
2, 487824, Note_on_c, 0, 91, 0
2, 488160, Note_on_c, 0, 87, 56
2, 488160, Note_on_c, 0, 91, 56
2, 488304, Note_on_c, 0, 91, 0
2, 488304, Note_on_c, 0, 87, 0
2, 488640, Note_on_c, 0, 87, 56
2, 488640, Note_on_c, 0, 91, 56
2, 488784, Note_on_c, 0, 91, 0
2, 488784, Note_on_c, 0, 87, 0
2, 489120, Note_on_c, 0, 87, 56
2, 489120, Note_on_c, 0, 91, 56
2, 489264, Note_on_c, 0, 91, 0
2, 489264, Note_on_c, 0, 87, 0
2, 489600, Note_on_c, 0, 87, 56
2, 489600, Note_on_c, 0, 91, 56
2, 489744, Note_on_c, 0, 91, 0
2, 489744, Note_on_c, 0, 87, 0
2, 490080, Note_on_c, 0, 91, 56
2, 490080, Note_on_c, 0, 87, 56
2, 490224, Note_on_c, 0, 87, 0
2, 490224, Note_on_c, 0, 91, 0
2, 492000, Note_on_c, 0, 91, 56
2, 492000, Note_on_c, 0, 87, 56
2, 492144, Note_on_c, 0, 87, 0
2, 492144, Note_on_c, 0, 91, 0
2, 493920, Note_on_c, 0, 87, 56
2, 494064, Note_on_c, 0, 87, 0
2, 495000, Note_on_c, 0, 87, 56
2, 495144, Note_on_c, 0, 87, 0
2, 496080, Note_on_c, 0, 87, 56
2, 496224, Note_on_c, 0, 87, 0
2, 497160, Note_on_c, 0, 87, 56
2, 497304, Note_on_c, 0, 87, 0
2, 498360, Note_on_c, 0, 87, 56
2, 498504, Note_on_c, 0, 87, 0
2, 501240, Control_c, 0, 123, 127
2, 502200, Control_c, 0, 121, 127
2, 503160, Note_on_c, 0, 39, 1
2, 503640, Note_on_c, 0, 39, 0
2, 503640, End_track
3, 0, Start_track
3, 0, Title_t, "Oboes               "
3, 0, Program_c, 1, 68
3, 0, Control_c, 1, 7, 90
3, 0, Control_c, 1, 10, 66
3, 2880, Control_c, 1, 91, 100
3, 11520, Note_on_c, 1, 84, 41
3, 11520, Note_on_c, 1, 72, 43
3, 13200, Note_on_c, 1, 72, 0
3, 13200, Note_on_c, 1, 84, 0
3, 14160, Note_on_c, 1, 75, 50
3, 14200, Note_on_c, 1, 75, 0
3, 14400, Note_on_c, 1, 75, 54
3, 14436, Note_on_c, 1, 75, 0
3, 14640, Note_on_c, 1, 75, 54
3, 14676, Note_on_c, 1, 75, 0
3, 15120, Note_on_c, 1, 75, 50
3, 15160, Note_on_c, 1, 75, 0
3, 15360, Note_on_c, 1, 75, 54
3, 15396, Note_on_c, 1, 75, 0
3, 15600, Note_on_c, 1, 75, 54
3, 15636, Note_on_c, 1, 75, 0
3, 16080, Note_on_c, 1, 75, 56
3, 16126, Note_on_c, 1, 75, 0
3, 16320, Note_on_c, 1, 75, 54
3, 16354, Note_on_c, 1, 75, 0
3, 16560, Note_on_c, 1, 75, 57
3, 16600, Note_on_c, 1, 75, 0
3, 17040, Note_on_c, 1, 75, 58
3, 17084, Note_on_c, 1, 75, 0
3, 17280, Note_on_c, 1, 75, 60
3, 17320, Note_on_c, 1, 75, 0
3, 17520, Note_on_c, 1, 75, 56
3, 17560, Note_on_c, 1, 75, 0
3, 18000, Note_on_c, 1, 75, 60
3, 18044, Note_on_c, 1, 75, 0
3, 18240, Note_on_c, 1, 75, 59
3, 18280, Note_on_c, 1, 75, 0
3, 18480, Note_on_c, 1, 75, 65
3, 18534, Note_on_c, 1, 75, 0
3, 18960, Note_on_c, 1, 75, 63
3, 19002, Note_on_c, 1, 75, 0
3, 19200, Note_on_c, 1, 75, 66
3, 19240, Note_on_c, 1, 75, 0
3, 19440, Note_on_c, 1, 75, 65
3, 19490, Note_on_c, 1, 75, 0
3, 19920, Note_on_c, 1, 75, 59
3, 19964, Note_on_c, 1, 75, 0
3, 20160, Note_on_c, 1, 75, 57
3, 20200, Note_on_c, 1, 75, 0
3, 20400, Note_on_c, 1, 75, 59
3, 20440, Note_on_c, 1, 75, 0
3, 20880, Note_on_c, 1, 75, 46
3, 20926, Note_on_c, 1, 75, 0
3, 21120, Note_on_c, 1, 72, 56
3, 21166, Note_on_c, 1, 72, 0
3, 23980, Control_c, 1, 7, 100
3, 24000, Note_on_c, 1, 72, 75
3, 24008, Control_c, 1, 7, 101
3, 24260, Control_c, 1, 7, 100
3, 24276, Control_c, 1, 7, 99
3, 24356, Control_c, 1, 7, 100
3, 24488, Control_c, 1, 7, 99
3, 24648, Control_c, 1, 7, 98
3, 24716, Control_c, 1, 7, 99
3, 24728, Control_c, 1, 7, 94
3, 24756, Control_c, 1, 7, 89
3, 24836, Control_c, 1, 7, 84
3, 24848, Control_c, 1, 7, 85
3, 24860, Control_c, 1, 7, 84
3, 24876, Control_c, 1, 7, 82
3, 24900, Control_c, 1, 7, 81
3, 24916, Control_c, 1, 7, 80
3, 24980, Control_c, 1, 7, 79
3, 24996, Control_c, 1, 7, 78
3, 25008, Control_c, 1, 7, 76
3, 25088, Control_c, 1, 7, 74
3, 25116, Control_c, 1, 7, 73
3, 25140, Control_c, 1, 7, 71
3, 25168, Control_c, 1, 7, 70
3, 25180, Control_c, 1, 7, 69
3, 25196, Control_c, 1, 7, 70
3, 25208, Control_c, 1, 7, 69
3, 25220, Control_c, 1, 7, 68
3, 25236, Control_c, 1, 7, 67
3, 25300, Control_c, 1, 7, 66
3, 25328, Control_c, 1, 7, 65
3, 25340, Control_c, 1, 7, 64
3, 25408, Control_c, 1, 7, 63
3, 25420, Control_c, 1, 7, 58
3, 25436, Control_c, 1, 7, 57
3, 25568, Control_c, 1, 7, 52
3, 25580, Control_c, 1, 7, 51
3, 25648, Control_c, 1, 7, 45
3, 25660, Control_c, 1, 7, 46
3, 25676, Control_c, 1, 7, 44
3, 25756, Control_c, 1, 7, 38
3, 25768, Control_c, 1, 7, 32
3, 25780, Control_c, 1, 7, 31
3, 25782, Note_on_c, 1, 72, 0
3, 25900, Control_c, 1, 7, 30
3, 25916, Control_c, 1, 7, 29
3, 25928, Control_c, 1, 7, 26
3, 25940, Control_c, 1, 7, 25
3, 25968, Control_c, 1, 7, 23
3, 25980, Control_c, 1, 7, 22
3, 25996, Control_c, 1, 7, 20
3, 26008, Control_c, 1, 7, 18
3, 26020, Control_c, 1, 7, 13
3, 26036, Control_c, 1, 7, 8
3, 26076, Control_c, 1, 7, 7
3, 26100, Control_c, 1, 7, 5
3, 26116, Control_c, 1, 7, 4
3, 26128, Control_c, 1, 7, 3
3, 26156, Control_c, 1, 7, 10
3, 26168, Control_c, 1, 7, 11
3, 26180, Control_c, 1, 7, 16
3, 26196, Control_c, 1, 7, 26
3, 26208, Control_c, 1, 7, 35
3, 26220, Control_c, 1, 7, 40
3, 26236, Control_c, 1, 7, 45
3, 26248, Control_c, 1, 7, 50
3, 26260, Control_c, 1, 7, 59
3, 26288, Control_c, 1, 7, 64
3, 26340, Control_c, 1, 7, 74
3, 26356, Control_c, 1, 7, 75
3, 26368, Control_c, 1, 7, 80
3, 26396, Control_c, 1, 7, 82
3, 26408, Control_c, 1, 7, 85
3, 26436, Control_c, 1, 7, 88
3, 26448, Control_c, 1, 7, 91
3, 26460, Control_c, 1, 7, 89
3, 26516, Control_c, 1, 7, 97
3, 26528, Control_c, 1, 7, 100
3, 26540, Control_c, 1, 7, 103
3, 26556, Control_c, 1, 7, 106
3, 26608, Control_c, 1, 7, 104
3, 27840, Note_on_c, 1, 80, 46
3, 27840, Note_on_c, 1, 77, 53
3, 29520, Note_on_c, 1, 77, 0
3, 29520, Note_on_c, 1, 80, 0
3, 30480, Note_on_c, 1, 68, 55
3, 30520, Note_on_c, 1, 68, 0
3, 30720, Note_on_c, 1, 68, 61
3, 30762, Note_on_c, 1, 68, 0
3, 30960, Note_on_c, 1, 70, 60
3, 31002, Note_on_c, 1, 70, 0
3, 31440, Note_on_c, 1, 67, 60
3, 31490, Note_on_c, 1, 67, 0
3, 31680, Note_on_c, 1, 67, 60
3, 31730, Note_on_c, 1, 67, 0
3, 31920, Note_on_c, 1, 70, 56
3, 31962, Note_on_c, 1, 70, 0
3, 32400, Note_on_c, 1, 68, 60
3, 32440, Note_on_c, 1, 68, 0
3, 32640, Note_on_c, 1, 68, 64
3, 32682, Note_on_c, 1, 68, 0
3, 32880, Note_on_c, 1, 70, 58
3, 32916, Note_on_c, 1, 70, 0
3, 33360, Note_on_c, 1, 67, 63
3, 33410, Note_on_c, 1, 67, 0
3, 33600, Note_on_c, 1, 58, 63
3, 33634, Note_on_c, 1, 58, 0
3, 33840, Note_on_c, 1, 77, 61
3, 33960, Note_on_c, 1, 78, 47
3, 33976, Note_on_c, 1, 77, 0
3, 34080, Note_on_c, 1, 78, 0
3, 34080, Note_on_c, 1, 80, 56
3, 34200, Note_on_c, 1, 78, 58
3, 34226, Note_on_c, 1, 80, 0
3, 34320, Note_on_c, 1, 78, 0
3, 34320, Note_on_c, 1, 77, 70
3, 34434, Note_on_c, 1, 77, 0
3, 34520, Note_on_c, 1, 78, 59
3, 34560, Note_on_c, 1, 78, 0
3, 34560, Note_on_c, 1, 77, 59
3, 34680, Note_on_c, 1, 75, 48
3, 34702, Note_on_c, 1, 77, 0
3, 34800, Note_on_c, 1, 75, 0
3, 34800, Note_on_c, 1, 77, 63
3, 34992, Note_on_c, 1, 77, 0
3, 35040, Note_on_c, 1, 78, 57
3, 35160, Note_on_c, 1, 77, 61
3, 35252, Note_on_c, 1, 78, 0
3, 35280, Note_on_c, 1, 75, 54
3, 35312, Note_on_c, 1, 77, 0
3, 35470, Note_on_c, 1, 75, 0
3, 35520, Note_on_c, 1, 75, 43
3, 35716, Note_on_c, 1, 75, 0
3, 37200, Note_on_c, 1, 74, 41
3, 37320, Note_on_c, 1, 75, 40
3, 37346, Note_on_c, 1, 74, 0
3, 37440, Note_on_c, 1, 77, 71
3, 37490, Note_on_c, 1, 75, 0
3, 37560, Note_on_c, 1, 75, 51
3, 37596, Note_on_c, 1, 77, 0
3, 37680, Note_on_c, 1, 74, 30
3, 37702, Note_on_c, 1, 75, 0
3, 37794, Note_on_c, 1, 74, 0
3, 40080, Note_on_c, 1, 70, 35
3, 40080, Note_on_c, 1, 74, 43
3, 40200, Note_on_c, 1, 75, 51
3, 40200, Note_on_c, 1, 72, 45
3, 40226, Note_on_c, 1, 74, 0
3, 40242, Note_on_c, 1, 70, 0
3, 40310, Note_on_c, 1, 72, 0
3, 40320, Note_on_c, 1, 77, 57
3, 40320, Note_on_c, 1, 74, 46
3, 40326, Note_on_c, 1, 75, 0
3, 40426, Note_on_c, 1, 77, 0
3, 40432, Note_on_c, 1, 74, 0
3, 40560, Note_on_c, 1, 77, 38
3, 40560, Note_on_c, 1, 74, 41
3, 40680, Note_on_c, 1, 75, 14
3, 40680, Note_on_c, 1, 79, 54
3, 40696, Note_on_c, 1, 77, 0
3, 40704, Note_on_c, 1, 74, 0
3, 40786, Note_on_c, 1, 75, 0
3, 40800, Note_on_c, 1, 80, 45
3, 40800, Note_on_c, 1, 77, 52
3, 40822, Note_on_c, 1, 79, 0
3, 40950, Note_on_c, 1, 77, 0
3, 40972, Note_on_c, 1, 80, 0
3, 42000, Note_on_c, 1, 77, 43
3, 42120, Note_on_c, 1, 79, 51
3, 42140, Note_on_c, 1, 77, 0
3, 42240, Note_on_c, 1, 80, 53
3, 42276, Note_on_c, 1, 79, 0
3, 42360, Note_on_c, 1, 79, 50
3, 42396, Note_on_c, 1, 80, 0
3, 42480, Note_on_c, 1, 77, 33
3, 42486, Note_on_c, 1, 79, 0
3, 42606, Note_on_c, 1, 77, 0
3, 43920, Control_c, 1, 7, 40
3, 44648, Control_c, 1, 7, 38
3, 44656, Control_c, 1, 7, 39
3, 44664, Control_c, 1, 7, 39
3, 44672, Control_c, 1, 7, 39
3, 44680, Control_c, 1, 7, 39
3, 44688, Control_c, 1, 7, 41
3, 44696, Control_c, 1, 7, 41
3, 44704, Control_c, 1, 7, 42
3, 44712, Control_c, 1, 7, 42
3, 44720, Control_c, 1, 7, 43
3, 44728, Control_c, 1, 7, 43
3, 44736, Control_c, 1, 7, 44
3, 44744, Control_c, 1, 7, 44
3, 44752, Control_c, 1, 7, 45
3, 44760, Control_c, 1, 7, 48
3, 44768, Control_c, 1, 7, 48
3, 44776, Control_c, 1, 7, 48
3, 44784, Control_c, 1, 7, 48
3, 44792, Control_c, 1, 7, 48
3, 44800, Control_c, 1, 7, 49
3, 44808, Control_c, 1, 7, 49
3, 44816, Control_c, 1, 7, 50
3, 44824, Control_c, 1, 7, 51
3, 44832, Control_c, 1, 7, 53
3, 44840, Control_c, 1, 7, 53
3, 44848, Control_c, 1, 7, 53
3, 44856, Control_c, 1, 7, 53
3, 44864, Control_c, 1, 7, 53
3, 44872, Control_c, 1, 7, 54
3, 44880, Control_c, 1, 7, 54
3, 44880, Note_on_c, 1, 78, 58
3, 44888, Control_c, 1, 7, 55
3, 44896, Control_c, 1, 7, 57
3, 44904, Control_c, 1, 7, 57
3, 44912, Control_c, 1, 7, 59
3, 44920, Control_c, 1, 7, 59
3, 44928, Control_c, 1, 7, 59
3, 44936, Control_c, 1, 7, 59
3, 44944, Control_c, 1, 7, 59
3, 44952, Control_c, 1, 7, 59
3, 44960, Control_c, 1, 7, 68
3, 44968, Control_c, 1, 7, 68
3, 44976, Control_c, 1, 7, 73
3, 44984, Control_c, 1, 7, 73
3, 44992, Control_c, 1, 7, 74
3, 45000, Control_c, 1, 7, 75
3, 45008, Control_c, 1, 7, 81
3, 45016, Control_c, 1, 7, 81
3, 45024, Control_c, 1, 7, 81
3, 45032, Control_c, 1, 7, 81
3, 45040, Control_c, 1, 7, 81
3, 45048, Control_c, 1, 7, 81
3, 45056, Control_c, 1, 7, 86
3, 45064, Control_c, 1, 7, 86
3, 45072, Control_c, 1, 7, 86
3, 45080, Control_c, 1, 7, 86
3, 45088, Control_c, 1, 7, 91
3, 45096, Control_c, 1, 7, 91
3, 45104, Control_c, 1, 7, 91
3, 45112, Control_c, 1, 7, 91
3, 45120, Control_c, 1, 7, 91
3, 45128, Control_c, 1, 7, 91
3, 45136, Control_c, 1, 7, 91
3, 45144, Control_c, 1, 7, 91
3, 45152, Control_c, 1, 7, 91
3, 45160, Control_c, 1, 7, 92
3, 45168, Control_c, 1, 7, 92
3, 45176, Control_c, 1, 7, 97
3, 45184, Control_c, 1, 7, 103
3, 45192, Control_c, 1, 7, 103
3, 45200, Control_c, 1, 7, 103
3, 45208, Control_c, 1, 7, 103
3, 45216, Control_c, 1, 7, 103
3, 45224, Control_c, 1, 7, 103
3, 45232, Control_c, 1, 7, 103
3, 45240, Control_c, 1, 7, 103
3, 45248, Control_c, 1, 7, 103
3, 45256, Control_c, 1, 7, 104
3, 45264, Control_c, 1, 7, 105
3, 45272, Control_c, 1, 7, 106
3, 45280, Control_c, 1, 7, 107
3, 45288, Control_c, 1, 7, 108
3, 45296, Control_c, 1, 7, 110
3, 45304, Control_c, 1, 7, 110
3, 45312, Control_c, 1, 7, 111
3, 45320, Control_c, 1, 7, 111
3, 45328, Control_c, 1, 7, 112
3, 45336, Control_c, 1, 7, 112
3, 45344, Control_c, 1, 7, 112
3, 45352, Control_c, 1, 7, 112
3, 45360, Control_c, 1, 7, 113
3, 45368, Control_c, 1, 7, 113
3, 45376, Control_c, 1, 7, 113
3, 45384, Control_c, 1, 7, 113
3, 45392, Control_c, 1, 7, 113
3, 45400, Control_c, 1, 7, 115
3, 45408, Control_c, 1, 7, 116
3, 45416, Control_c, 1, 7, 117
3, 45424, Control_c, 1, 7, 117
3, 45432, Control_c, 1, 7, 118
3, 45440, Control_c, 1, 7, 118
3, 45448, Control_c, 1, 7, 120
3, 45456, Control_c, 1, 7, 120
3, 45464, Control_c, 1, 7, 120
3, 45472, Control_c, 1, 7, 120
3, 45480, Control_c, 1, 7, 125
3, 45488, Control_c, 1, 7, 125
3, 45496, Control_c, 1, 7, 125
3, 45504, Control_c, 1, 7, 127
3, 45512, Control_c, 1, 7, 127
3, 45520, Control_c, 1, 7, 127
3, 45528, Control_c, 1, 7, 127
3, 45536, Control_c, 1, 7, 127
3, 45544, Control_c, 1, 7, 127
3, 45552, Control_c, 1, 7, 127
3, 45560, Control_c, 1, 7, 127
3, 45568, Control_c, 1, 7, 127
3, 45576, Control_c, 1, 7, 127
3, 45584, Control_c, 1, 7, 127
3, 45592, Control_c, 1, 7, 127
3, 45600, Control_c, 1, 7, 127
3, 45608, Control_c, 1, 7, 127
3, 45616, Control_c, 1, 7, 127
3, 45624, Control_c, 1, 7, 127
3, 45632, Control_c, 1, 7, 127
3, 45640, Control_c, 1, 7, 127
3, 45648, Control_c, 1, 7, 127
3, 45656, Control_c, 1, 7, 127
3, 45664, Control_c, 1, 7, 127
3, 45672, Control_c, 1, 7, 127
3, 45680, Control_c, 1, 7, 127
3, 45688, Control_c, 1, 7, 127
3, 45696, Control_c, 1, 7, 127
3, 45704, Control_c, 1, 7, 127
3, 45712, Control_c, 1, 7, 124
3, 45720, Control_c, 1, 7, 122
3, 45728, Control_c, 1, 7, 120
3, 45736, Control_c, 1, 7, 118
3, 45744, Control_c, 1, 7, 118
3, 45752, Control_c, 1, 7, 118
3, 45760, Control_c, 1, 7, 115
3, 45768, Control_c, 1, 7, 115
3, 45776, Control_c, 1, 7, 113
3, 45784, Control_c, 1, 7, 113
3, 45792, Control_c, 1, 7, 112
3, 45796, Note_on_c, 1, 78, 0
3, 45800, Control_c, 1, 7, 112
3, 45808, Control_c, 1, 7, 113
3, 45816, Control_c, 1, 7, 113
3, 45824, Control_c, 1, 7, 113
3, 45832, Control_c, 1, 7, 112
3, 45840, Control_c, 1, 7, 111
3, 45840, Note_on_c, 1, 79, 48
3, 45960, Note_on_c, 1, 79, 0
3, 46080, Control_c, 1, 7, 90
3, 46080, Note_on_c, 1, 82, 59
3, 46080, Note_on_c, 1, 79, 55
3, 46546, Note_on_c, 1, 79, 0
3, 46546, Note_on_c, 1, 82, 0
3, 46560, Note_on_c, 1, 82, 56
3, 46560, Note_on_c, 1, 79, 52
3, 46644, Note_on_c, 1, 79, 0
3, 46646, Note_on_c, 1, 82, 0
3, 46800, Note_on_c, 1, 82, 46
3, 46800, Note_on_c, 1, 79, 43
3, 47486, Note_on_c, 1, 79, 0
3, 47490, Note_on_c, 1, 82, 0
3, 47760, Note_on_c, 1, 82, 68
3, 47760, Note_on_c, 1, 79, 61
3, 47804, Note_on_c, 1, 82, 0
3, 47816, Note_on_c, 1, 79, 0
3, 48000, Note_on_c, 1, 82, 61
3, 48000, Note_on_c, 1, 79, 57
3, 48302, Note_on_c, 1, 79, 0
3, 48310, Note_on_c, 1, 82, 0
3, 48480, Note_on_c, 1, 82, 61
3, 48480, Note_on_c, 1, 79, 56
3, 48566, Note_on_c, 1, 79, 0
3, 48572, Note_on_c, 1, 82, 0
3, 48720, Note_on_c, 1, 82, 48
3, 48720, Note_on_c, 1, 79, 43
3, 49470, Note_on_c, 1, 79, 0
3, 49472, Note_on_c, 1, 82, 0
3, 49680, Note_on_c, 1, 82, 78
3, 49680, Note_on_c, 1, 79, 66
3, 50000, Note_on_c, 1, 79, 0
3, 50000, Note_on_c, 1, 82, 0
3, 50160, Note_on_c, 1, 82, 61
3, 50160, Note_on_c, 1, 79, 54
3, 50234, Note_on_c, 1, 79, 0
3, 50236, Note_on_c, 1, 82, 0
3, 50400, Note_on_c, 1, 82, 61
3, 50400, Note_on_c, 1, 79, 53
3, 50476, Note_on_c, 1, 82, 0
3, 50490, Note_on_c, 1, 79, 0
3, 50640, Note_on_c, 1, 84, 66
3, 50640, Note_on_c, 1, 80, 63
3, 51024, Note_on_c, 1, 80, 0
3, 51024, Note_on_c, 1, 84, 0
3, 51120, Note_on_c, 1, 84, 60
3, 51120, Note_on_c, 1, 80, 56
3, 51228, Note_on_c, 1, 80, 0
3, 51228, Note_on_c, 1, 84, 0
3, 51360, Note_on_c, 1, 84, 55
3, 51360, Note_on_c, 1, 80, 53
3, 51468, Note_on_c, 1, 80, 0
3, 51468, Note_on_c, 1, 84, 0
3, 51600, Note_on_c, 1, 80, 64
3, 51600, Note_on_c, 1, 77, 59
3, 52032, Note_on_c, 1, 77, 0
3, 52032, Note_on_c, 1, 80, 0
3, 52080, Note_on_c, 1, 80, 53
3, 52080, Note_on_c, 1, 77, 51
3, 52188, Note_on_c, 1, 77, 0
3, 52188, Note_on_c, 1, 80, 0
3, 52320, Note_on_c, 1, 77, 53
3, 52320, Note_on_c, 1, 80, 59
3, 52428, Note_on_c, 1, 80, 0
3, 52428, Note_on_c, 1, 77, 0
3, 52560, Note_on_c, 1, 79, 63
3, 52560, Note_on_c, 1, 75, 67
3, 52668, Note_on_c, 1, 75, 0
3, 52668, Note_on_c, 1, 79, 0
3, 53520, Note_on_c, 1, 79, 38
3, 53520, Note_on_c, 1, 70, 28
3, 53796, Note_on_c, 1, 70, 0
3, 53824, Note_on_c, 1, 79, 0
3, 54000, Note_on_c, 1, 70, 32
3, 54000, Note_on_c, 1, 79, 36
3, 54066, Note_on_c, 1, 70, 0
3, 54084, Note_on_c, 1, 79, 0
3, 54240, Note_on_c, 1, 70, 35
3, 54240, Note_on_c, 1, 79, 39
3, 54286, Note_on_c, 1, 70, 0
3, 54324, Note_on_c, 1, 79, 0
3, 54480, Note_on_c, 1, 77, 25
3, 54480, Note_on_c, 1, 82, 31
3, 54750, Note_on_c, 1, 82, 0
3, 54772, Note_on_c, 1, 77, 0
3, 54960, Note_on_c, 1, 74, 40
3, 54960, Note_on_c, 1, 77, 41
3, 55036, Note_on_c, 1, 74, 0
3, 55042, Note_on_c, 1, 77, 0
3, 55200, Note_on_c, 1, 77, 44
3, 55200, Note_on_c, 1, 74, 38
3, 55262, Note_on_c, 1, 77, 0
3, 55286, Note_on_c, 1, 74, 0
3, 55440, Note_on_c, 1, 74, 41
3, 55440, Note_on_c, 1, 77, 44
3, 55560, Note_on_c, 1, 74, 0
3, 55680, Note_on_c, 1, 72, 36
3, 55680, Note_on_c, 1, 75, 47
3, 55682, Note_on_c, 1, 77, 0
3, 55726, Note_on_c, 1, 72, 0
3, 55756, Note_on_c, 1, 75, 0
3, 55920, Note_on_c, 1, 75, 44
3, 55920, Note_on_c, 1, 84, 44
3, 55970, Note_on_c, 1, 75, 0
3, 55986, Note_on_c, 1, 84, 0
3, 56160, Note_on_c, 1, 72, 41
3, 56160, Note_on_c, 1, 81, 47
3, 56224, Note_on_c, 1, 72, 0
3, 56234, Note_on_c, 1, 81, 0
3, 56400, Note_on_c, 1, 74, 29
3, 56400, Note_on_c, 1, 82, 41
3, 56400, Note_on_c, 1, 70, 41
3, 56500, Note_on_c, 1, 74, 0
3, 65144, Note_on_c, 1, 82, 0
3, 65150, Note_on_c, 1, 70, 0
3, 65280, Note_on_c, 1, 82, 73
3, 65280, Note_on_c, 1, 70, 70
3, 65572, Note_on_c, 1, 70, 0
3, 65586, Note_on_c, 1, 82, 0
3, 65760, Note_on_c, 1, 70, 59
3, 65760, Note_on_c, 1, 82, 61
3, 66060, Note_on_c, 1, 70, 0
3, 66064, Note_on_c, 1, 82, 0
3, 66240, Note_on_c, 1, 70, 58
3, 66240, Note_on_c, 1, 82, 61
3, 66522, Note_on_c, 1, 70, 0
3, 66526, Note_on_c, 1, 82, 0
3, 66720, Note_on_c, 1, 70, 55
3, 66720, Note_on_c, 1, 82, 62
3, 66962, Note_on_c, 1, 70, 0
3, 66966, Note_on_c, 1, 82, 0
3, 67200, Note_on_c, 1, 70, 54
3, 67200, Note_on_c, 1, 82, 54
3, 67476, Note_on_c, 1, 70, 0
3, 67482, Note_on_c, 1, 82, 0
3, 67680, Note_on_c, 1, 70, 53
3, 67680, Note_on_c, 1, 82, 57
3, 67932, Note_on_c, 1, 70, 0
3, 67934, Note_on_c, 1, 82, 0
3, 68160, Note_on_c, 1, 70, 61
3, 68160, Note_on_c, 1, 82, 66
3, 68434, Note_on_c, 1, 70, 0
3, 68452, Note_on_c, 1, 82, 0
3, 68640, Note_on_c, 1, 82, 61
3, 68640, Note_on_c, 1, 70, 57
3, 68882, Note_on_c, 1, 70, 0
3, 68902, Note_on_c, 1, 82, 0
3, 69120, Note_on_c, 1, 70, 54
3, 69120, Note_on_c, 1, 82, 61
3, 69376, Note_on_c, 1, 70, 0
3, 69404, Note_on_c, 1, 82, 0
3, 69600, Note_on_c, 1, 82, 67
3, 69600, Note_on_c, 1, 70, 61
3, 69860, Note_on_c, 1, 70, 0
3, 69872, Note_on_c, 1, 82, 0
3, 70080, Note_on_c, 1, 70, 64
3, 70080, Note_on_c, 1, 82, 65
3, 70332, Note_on_c, 1, 70, 0
3, 70356, Note_on_c, 1, 82, 0
3, 70560, Note_on_c, 1, 82, 71
3, 70560, Note_on_c, 1, 70, 64
3, 70802, Note_on_c, 1, 70, 0
3, 70806, Note_on_c, 1, 82, 0
3, 71040, Note_on_c, 1, 70, 60
3, 71040, Note_on_c, 1, 82, 66
3, 71272, Note_on_c, 1, 70, 0
3, 71290, Note_on_c, 1, 82, 0
3, 71520, Note_on_c, 1, 82, 61
3, 71520, Note_on_c, 1, 70, 60
3, 71762, Note_on_c, 1, 82, 0
3, 71770, Note_on_c, 1, 70, 0
3, 72000, Note_on_c, 1, 70, 57
3, 72000, Note_on_c, 1, 82, 59
3, 72220, Note_on_c, 1, 70, 0
3, 72240, Note_on_c, 1, 82, 0
3, 72480, Note_on_c, 1, 82, 56
3, 72480, Note_on_c, 1, 70, 54
3, 72732, Note_on_c, 1, 70, 0
3, 72750, Note_on_c, 1, 82, 0
3, 72960, Note_on_c, 1, 70, 56
3, 72960, Note_on_c, 1, 82, 59
3, 73242, Note_on_c, 1, 70, 0
3, 73266, Note_on_c, 1, 82, 0
3, 73440, Note_on_c, 1, 70, 48
3, 73440, Note_on_c, 1, 82, 58
3, 73712, Note_on_c, 1, 70, 0
3, 73714, Note_on_c, 1, 82, 0
3, 73920, Note_on_c, 1, 70, 61
3, 73920, Note_on_c, 1, 82, 64
3, 74156, Note_on_c, 1, 70, 0
3, 74180, Note_on_c, 1, 82, 0
3, 74400, Note_on_c, 1, 70, 56
3, 74400, Note_on_c, 1, 82, 65
3, 74646, Note_on_c, 1, 70, 0
3, 74652, Note_on_c, 1, 82, 0
3, 74880, Note_on_c, 1, 70, 51
3, 74880, Note_on_c, 1, 82, 54
3, 75136, Note_on_c, 1, 70, 0
3, 75152, Note_on_c, 1, 82, 0
3, 75360, Note_on_c, 1, 82, 56
3, 75360, Note_on_c, 1, 70, 50
3, 75616, Note_on_c, 1, 70, 0
3, 75632, Note_on_c, 1, 82, 0
3, 75840, Note_on_c, 1, 82, 53
3, 75840, Note_on_c, 1, 70, 48
3, 76076, Note_on_c, 1, 70, 0
3, 76092, Note_on_c, 1, 82, 0
3, 76320, Note_on_c, 1, 82, 63
3, 76320, Note_on_c, 1, 70, 55
3, 76552, Note_on_c, 1, 70, 0
3, 76572, Note_on_c, 1, 82, 0
3, 76800, Note_on_c, 1, 70, 51
3, 76800, Note_on_c, 1, 82, 58
3, 77046, Note_on_c, 1, 70, 0
3, 77056, Note_on_c, 1, 82, 0
3, 77280, Note_on_c, 1, 82, 65
3, 77280, Note_on_c, 1, 70, 60
3, 77536, Note_on_c, 1, 70, 0
3, 77540, Note_on_c, 1, 82, 0
3, 77760, Note_on_c, 1, 70, 56
3, 77760, Note_on_c, 1, 82, 61
3, 77986, Note_on_c, 1, 70, 0
3, 78006, Note_on_c, 1, 82, 0
3, 78240, Note_on_c, 1, 82, 51
3, 78240, Note_on_c, 1, 70, 46
3, 78450, Note_on_c, 1, 70, 0
3, 78466, Note_on_c, 1, 82, 0
3, 78720, Note_on_c, 1, 70, 51
3, 78720, Note_on_c, 1, 82, 56
3, 78960, Note_on_c, 1, 70, 0
3, 78976, Note_on_c, 1, 82, 0
3, 79200, Note_on_c, 1, 82, 51
3, 79200, Note_on_c, 1, 70, 46
3, 79440, Note_on_c, 1, 70, 0
3, 79442, Note_on_c, 1, 82, 0
3, 79680, Note_on_c, 1, 70, 53
3, 79680, Note_on_c, 1, 82, 61
3, 79900, Note_on_c, 1, 70, 0
3, 79932, Note_on_c, 1, 82, 0
3, 80160, Note_on_c, 1, 82, 63
3, 80160, Note_on_c, 1, 70, 56
3, 80394, Note_on_c, 1, 70, 0
3, 80406, Note_on_c, 1, 82, 0
3, 80640, Note_on_c, 1, 70, 53
3, 80640, Note_on_c, 1, 82, 62
3, 80860, Note_on_c, 1, 70, 0
3, 80892, Note_on_c, 1, 82, 0
3, 81120, Note_on_c, 1, 70, 56
3, 81120, Note_on_c, 1, 82, 72
3, 81190, Note_on_c, 1, 70, 0
3, 81240, Note_on_c, 1, 80, 61
3, 81360, Note_on_c, 1, 77, 75
3, 81366, Note_on_c, 1, 82, 0
3, 81384, Note_on_c, 1, 80, 0
3, 81394, Note_on_c, 1, 77, 0
3, 81600, Note_on_c, 1, 80, 82
3, 81600, Note_on_c, 1, 77, 73
3, 81860, Note_on_c, 1, 77, 0
3, 81862, Note_on_c, 1, 80, 0
3, 82080, Note_on_c, 1, 80, 66
3, 82080, Note_on_c, 1, 77, 62
3, 82146, Note_on_c, 1, 77, 0
3, 82150, Note_on_c, 1, 80, 0
3, 82560, Note_on_c, 1, 80, 57
3, 82560, Note_on_c, 1, 77, 55
3, 82782, Note_on_c, 1, 80, 0
3, 82786, Note_on_c, 1, 77, 0
3, 83040, Note_on_c, 1, 80, 54
3, 83040, Note_on_c, 1, 77, 57
3, 83340, Note_on_c, 1, 80, 0
3, 83344, Note_on_c, 1, 77, 0
3, 83520, Note_on_c, 1, 77, 62
3, 83520, Note_on_c, 1, 80, 61
3, 83786, Note_on_c, 1, 77, 0
3, 83790, Note_on_c, 1, 80, 0
3, 84000, Note_on_c, 1, 80, 57
3, 84000, Note_on_c, 1, 77, 60
3, 84292, Note_on_c, 1, 80, 0
3, 84300, Note_on_c, 1, 77, 0
3, 84480, Note_on_c, 1, 77, 68
3, 84480, Note_on_c, 1, 80, 67
3, 84726, Note_on_c, 1, 77, 0
3, 84732, Note_on_c, 1, 80, 0
3, 84960, Note_on_c, 1, 77, 57
3, 84960, Note_on_c, 1, 80, 58
3, 85036, Note_on_c, 1, 80, 0
3, 85042, Note_on_c, 1, 77, 0
3, 85200, Note_on_c, 1, 79, 68
3, 85200, Note_on_c, 1, 75, 75
3, 85260, Note_on_c, 1, 79, 0
3, 85262, Note_on_c, 1, 75, 0
3, 85440, Note_on_c, 1, 75, 44
3, 85440, Note_on_c, 1, 79, 68
3, 85440, Note_on_c, 1, 82, 72
3, 85510, Note_on_c, 1, 75, 0
3, 85706, Note_on_c, 1, 79, 0
3, 85740, Note_on_c, 1, 82, 0
3, 85920, Note_on_c, 1, 75, 66
3, 85920, Note_on_c, 1, 79, 73
3, 85984, Note_on_c, 1, 75, 0
3, 86020, Note_on_c, 1, 79, 0
3, 86160, Note_on_c, 1, 82, 67
3, 86160, Note_on_c, 1, 79, 66
3, 86950, Note_on_c, 1, 82, 0
3, 86956, Note_on_c, 1, 79, 0
3, 87120, Note_on_c, 1, 79, 76
3, 87120, Note_on_c, 1, 82, 84
3, 87180, Note_on_c, 1, 79, 0
3, 87202, Note_on_c, 1, 82, 0
3, 87360, Note_on_c, 1, 82, 71
3, 87360, Note_on_c, 1, 79, 73
3, 87650, Note_on_c, 1, 82, 0
3, 87660, Note_on_c, 1, 79, 0
3, 87840, Note_on_c, 1, 75, 64
3, 87840, Note_on_c, 1, 79, 71
3, 87914, Note_on_c, 1, 75, 0
3, 87936, Note_on_c, 1, 79, 0
3, 88080, Note_on_c, 1, 82, 75
3, 88080, Note_on_c, 1, 79, 73
3, 88752, Note_on_c, 1, 79, 0
3, 88772, Note_on_c, 1, 82, 0
3, 88920, Note_on_c, 1, 79, 73
3, 88978, Note_on_c, 1, 79, 0
3, 88980, Note_on_c, 1, 80, 73
3, 89038, Note_on_c, 1, 80, 0
3, 89040, Note_on_c, 1, 79, 66
3, 89040, Note_on_c, 1, 82, 85
3, 89490, Note_on_c, 1, 82, 0
3, 89490, Note_on_c, 1, 79, 0
3, 89520, Note_on_c, 1, 79, 68
3, 89520, Note_on_c, 1, 82, 79
3, 89590, Note_on_c, 1, 79, 0
3, 89594, Note_on_c, 1, 82, 0
3, 89760, Note_on_c, 1, 79, 68
3, 89760, Note_on_c, 1, 82, 79
3, 89830, Note_on_c, 1, 79, 0
3, 89834, Note_on_c, 1, 82, 0
3, 90000, Note_on_c, 1, 84, 83
3, 90000, Note_on_c, 1, 80, 78
3, 90284, Note_on_c, 1, 80, 0
3, 90306, Note_on_c, 1, 84, 0
3, 90480, Note_on_c, 1, 80, 67
3, 90480, Note_on_c, 1, 84, 76
3, 90542, Note_on_c, 1, 80, 0
3, 90576, Note_on_c, 1, 84, 0
3, 90720, Note_on_c, 1, 84, 73
3, 90720, Note_on_c, 1, 80, 71
3, 90786, Note_on_c, 1, 80, 0
3, 90810, Note_on_c, 1, 84, 0
3, 90960, Note_on_c, 1, 80, 79
3, 90960, Note_on_c, 1, 77, 68
3, 91410, Note_on_c, 1, 77, 0
3, 91410, Note_on_c, 1, 80, 0
3, 91440, Note_on_c, 1, 77, 70
3, 91440, Note_on_c, 1, 80, 75
3, 91514, Note_on_c, 1, 80, 0
3, 91514, Note_on_c, 1, 77, 0
3, 91680, Note_on_c, 1, 80, 79
3, 91680, Note_on_c, 1, 77, 69
3, 91750, Note_on_c, 1, 77, 0
3, 91754, Note_on_c, 1, 80, 0
3, 91920, Note_on_c, 1, 79, 80
3, 91920, Note_on_c, 1, 75, 89
3, 91990, Note_on_c, 1, 75, 0
3, 92024, Note_on_c, 1, 79, 0
3, 92760, Note_on_c, 1, 79, 73
3, 92818, Note_on_c, 1, 79, 0
3, 92820, Note_on_c, 1, 80, 73
3, 92878, Note_on_c, 1, 80, 0
3, 92880, Note_on_c, 1, 82, 85
3, 92880, Note_on_c, 1, 79, 66
3, 93330, Note_on_c, 1, 79, 0
3, 93330, Note_on_c, 1, 82, 0
3, 93360, Note_on_c, 1, 79, 68
3, 93360, Note_on_c, 1, 82, 79
3, 93430, Note_on_c, 1, 79, 0
3, 93434, Note_on_c, 1, 82, 0
3, 93600, Note_on_c, 1, 82, 79
3, 93600, Note_on_c, 1, 79, 68
3, 93670, Note_on_c, 1, 79, 0
3, 93674, Note_on_c, 1, 82, 0
3, 93840, Note_on_c, 1, 84, 83
3, 93840, Note_on_c, 1, 80, 78
3, 94124, Note_on_c, 1, 80, 0
3, 94146, Note_on_c, 1, 84, 0
3, 94320, Note_on_c, 1, 80, 67
3, 94320, Note_on_c, 1, 84, 76
3, 94382, Note_on_c, 1, 80, 0
3, 94416, Note_on_c, 1, 84, 0
3, 94560, Note_on_c, 1, 84, 73
3, 94560, Note_on_c, 1, 80, 71
3, 94626, Note_on_c, 1, 80, 0
3, 94650, Note_on_c, 1, 84, 0
3, 94800, Note_on_c, 1, 77, 64
3, 94800, Note_on_c, 1, 80, 78
3, 95076, Note_on_c, 1, 80, 0
3, 95080, Note_on_c, 1, 77, 0
3, 95280, Note_on_c, 1, 80, 77
3, 95280, Note_on_c, 1, 77, 70
3, 95350, Note_on_c, 1, 77, 0
3, 95350, Note_on_c, 1, 80, 0
3, 95520, Note_on_c, 1, 77, 69
3, 95520, Note_on_c, 1, 80, 77
3, 95594, Note_on_c, 1, 80, 0
3, 95596, Note_on_c, 1, 77, 0
3, 95760, Note_on_c, 1, 63, 61
3, 95760, Note_on_c, 1, 75, 79
3, 98160, Note_on_c, 1, 75, 0
3, 98160, Note_on_c, 1, 63, 0
3, 98160, Note_on_c, 1, 64, 50
3, 98160, Note_on_c, 1, 76, 39
3, 98640, Note_on_c, 1, 76, 0
3, 98640, Note_on_c, 1, 64, 0
3, 98640, Note_on_c, 1, 65, 52
3, 98640, Note_on_c, 1, 77, 38
3, 99120, Note_on_c, 1, 77, 0
3, 99120, Note_on_c, 1, 65, 0
3, 99600, Note_on_c, 1, 77, 79
3, 99600, Note_on_c, 1, 65, 61
3, 102000, Note_on_c, 1, 65, 0
3, 102000, Note_on_c, 1, 77, 0
3, 102000, Note_on_c, 1, 78, 79
3, 102000, Note_on_c, 1, 66, 61
3, 102480, Note_on_c, 1, 66, 0
3, 102480, Note_on_c, 1, 78, 0
3, 102480, Note_on_c, 1, 67, 52
3, 102480, Note_on_c, 1, 79, 38
3, 102960, Note_on_c, 1, 79, 0
3, 102960, Note_on_c, 1, 67, 0
3, 103440, Note_on_c, 1, 79, 66
3, 104290, Note_on_c, 1, 79, 0
3, 104400, Note_on_c, 1, 75, 59
3, 105200, Note_on_c, 1, 75, 0
3, 105360, Note_on_c, 1, 72, 55
3, 106116, Note_on_c, 1, 72, 0
3, 106320, Note_on_c, 1, 69, 53
3, 106320, Note_on_c, 1, 81, 62
3, 107220, Note_on_c, 1, 81, 0
3, 107220, Note_on_c, 1, 69, 0
3, 107280, Note_on_c, 1, 70, 56
3, 107280, Note_on_c, 1, 82, 68
3, 107472, Note_on_c, 1, 70, 0
3, 107504, Note_on_c, 1, 82, 0
3, 107760, Note_on_c, 1, 74, 53
3, 107760, Note_on_c, 1, 77, 58
3, 107976, Note_on_c, 1, 74, 0
3, 108000, Note_on_c, 1, 77, 0
3, 108240, Note_on_c, 1, 75, 64
3, 108240, Note_on_c, 1, 79, 63
3, 108420, Note_on_c, 1, 75, 0
3, 108426, Note_on_c, 1, 79, 0
3, 108720, Note_on_c, 1, 75, 61
3, 108720, Note_on_c, 1, 79, 60
3, 108946, Note_on_c, 1, 75, 0
3, 108986, Note_on_c, 1, 79, 0
3, 109200, Note_on_c, 1, 74, 47
3, 109200, Note_on_c, 1, 77, 60
3, 109306, Note_on_c, 1, 74, 0
3, 109316, Note_on_c, 1, 77, 0
3, 109440, Note_on_c, 1, 82, 99
3, 109520, Note_on_c, 1, 82, 0
3, 109680, Note_on_c, 1, 82, 89
3, 109750, Note_on_c, 1, 82, 0
3, 109920, Note_on_c, 1, 82, 78
3, 110002, Note_on_c, 1, 82, 0
3, 110160, Note_on_c, 1, 84, 70
3, 110400, Note_on_c, 1, 82, 87
3, 110406, Note_on_c, 1, 84, 0
3, 110492, Note_on_c, 1, 82, 0
3, 110640, Note_on_c, 1, 79, 72
3, 110716, Note_on_c, 1, 79, 0
3, 110880, Note_on_c, 1, 75, 99
3, 110956, Note_on_c, 1, 75, 0
3, 111120, Note_on_c, 1, 70, 95
3, 111230, Note_on_c, 1, 70, 0
3, 111600, Note_on_c, 1, 74, 43
3, 111600, Note_on_c, 1, 77, 55
3, 111826, Note_on_c, 1, 77, 0
3, 111826, Note_on_c, 1, 74, 0
3, 112080, Note_on_c, 1, 79, 60
3, 112080, Note_on_c, 1, 75, 64
3, 112270, Note_on_c, 1, 75, 0
3, 112276, Note_on_c, 1, 79, 0
3, 112560, Note_on_c, 1, 79, 63
3, 112560, Note_on_c, 1, 75, 62
3, 112822, Note_on_c, 1, 79, 0
3, 112830, Note_on_c, 1, 75, 0
3, 113040, Note_on_c, 1, 77, 59
3, 113040, Note_on_c, 1, 74, 51
3, 113084, Note_on_c, 1, 74, 0
3, 113084, Note_on_c, 1, 77, 0
3, 113280, Note_on_c, 1, 82, 104
3, 113354, Note_on_c, 1, 82, 0
3, 113520, Note_on_c, 1, 82, 97
3, 113596, Note_on_c, 1, 82, 0
3, 113760, Note_on_c, 1, 82, 84
3, 113850, Note_on_c, 1, 82, 0
3, 114000, Note_on_c, 1, 84, 81
3, 114222, Note_on_c, 1, 84, 0
3, 114240, Note_on_c, 1, 82, 85
3, 114336, Note_on_c, 1, 82, 0
3, 114480, Note_on_c, 1, 79, 53
3, 114556, Note_on_c, 1, 79, 0
3, 114720, Note_on_c, 1, 75, 80
3, 114912, Note_on_c, 1, 75, 0
3, 114960, Note_on_c, 1, 70, 91
3, 115056, Note_on_c, 1, 70, 0
3, 115440, Note_on_c, 1, 86, 42
3, 115440, Note_on_c, 1, 74, 42
3, 115488, Control_c, 1, 7, 100
3, 115496, Control_c, 1, 7, 99
3, 115504, Control_c, 1, 7, 99
3, 115512, Control_c, 1, 7, 99
3, 115520, Control_c, 1, 7, 99
3, 115528, Control_c, 1, 7, 99
3, 115536, Control_c, 1, 7, 99
3, 115544, Control_c, 1, 7, 99
3, 115552, Control_c, 1, 7, 99
3, 115560, Control_c, 1, 7, 99
3, 115568, Control_c, 1, 7, 99
3, 115576, Control_c, 1, 7, 99
3, 115584, Control_c, 1, 7, 99
3, 115592, Control_c, 1, 7, 99
3, 115600, Control_c, 1, 7, 99
3, 115608, Control_c, 1, 7, 99
3, 115616, Control_c, 1, 7, 99
3, 115624, Control_c, 1, 7, 99
3, 115632, Control_c, 1, 7, 99
3, 115640, Control_c, 1, 7, 99
3, 115648, Control_c, 1, 7, 99
3, 115656, Control_c, 1, 7, 98
3, 115664, Control_c, 1, 7, 98
3, 115672, Control_c, 1, 7, 98
3, 115680, Control_c, 1, 7, 98
3, 115688, Control_c, 1, 7, 98
3, 115696, Control_c, 1, 7, 98
3, 115704, Control_c, 1, 7, 98
3, 115712, Control_c, 1, 7, 98
3, 115720, Control_c, 1, 7, 98
3, 115728, Control_c, 1, 7, 99
3, 115736, Control_c, 1, 7, 99
3, 115744, Control_c, 1, 7, 99
3, 115752, Control_c, 1, 7, 99
3, 115760, Control_c, 1, 7, 99
3, 115768, Control_c, 1, 7, 99
3, 115776, Control_c, 1, 7, 99
3, 115784, Control_c, 1, 7, 99
3, 115792, Control_c, 1, 7, 99
3, 115800, Control_c, 1, 7, 99
3, 115808, Control_c, 1, 7, 99
3, 115816, Control_c, 1, 7, 99
3, 115824, Control_c, 1, 7, 99
3, 115832, Control_c, 1, 7, 99
3, 115840, Control_c, 1, 7, 100
3, 115848, Control_c, 1, 7, 99
3, 115856, Control_c, 1, 7, 99
3, 115864, Control_c, 1, 7, 99
3, 115872, Control_c, 1, 7, 99
3, 115880, Control_c, 1, 7, 99
3, 115888, Control_c, 1, 7, 99
3, 115896, Control_c, 1, 7, 99
3, 115904, Control_c, 1, 7, 99
3, 115912, Control_c, 1, 7, 99
3, 115920, Control_c, 1, 7, 99
3, 115928, Control_c, 1, 7, 99
3, 115936, Control_c, 1, 7, 99
3, 115944, Control_c, 1, 7, 99
3, 115952, Control_c, 1, 7, 99
3, 115960, Control_c, 1, 7, 99
3, 115968, Control_c, 1, 7, 99
3, 115976, Control_c, 1, 7, 100
3, 115984, Control_c, 1, 7, 99
3, 115992, Control_c, 1, 7, 98
3, 116000, Control_c, 1, 7, 98
3, 116008, Control_c, 1, 7, 98
3, 116016, Control_c, 1, 7, 98
3, 116024, Control_c, 1, 7, 98
3, 116032, Control_c, 1, 7, 98
3, 116040, Control_c, 1, 7, 98
3, 116048, Control_c, 1, 7, 98
3, 116056, Control_c, 1, 7, 98
3, 116064, Control_c, 1, 7, 98
3, 116072, Control_c, 1, 7, 98
3, 116080, Control_c, 1, 7, 98
3, 116088, Control_c, 1, 7, 98
3, 116096, Control_c, 1, 7, 98
3, 116104, Control_c, 1, 7, 98
3, 116112, Control_c, 1, 7, 97
3, 116120, Control_c, 1, 7, 97
3, 116128, Control_c, 1, 7, 97
3, 116136, Control_c, 1, 7, 97
3, 116144, Control_c, 1, 7, 97
3, 116152, Control_c, 1, 7, 96
3, 116160, Control_c, 1, 7, 96
3, 116168, Control_c, 1, 7, 96
3, 116176, Control_c, 1, 7, 96
3, 116184, Control_c, 1, 7, 96
3, 116192, Control_c, 1, 7, 96
3, 116200, Control_c, 1, 7, 96
3, 116208, Control_c, 1, 7, 91
3, 116216, Control_c, 1, 7, 91
3, 116224, Control_c, 1, 7, 91
3, 116232, Control_c, 1, 7, 91
3, 116240, Control_c, 1, 7, 91
3, 116248, Control_c, 1, 7, 91
3, 116256, Control_c, 1, 7, 91
3, 116264, Control_c, 1, 7, 91
3, 116272, Control_c, 1, 7, 91
3, 116280, Control_c, 1, 7, 91
3, 116288, Control_c, 1, 7, 92
3, 116296, Control_c, 1, 7, 91
3, 116304, Control_c, 1, 7, 91
3, 116312, Control_c, 1, 7, 91
3, 116320, Control_c, 1, 7, 91
3, 116328, Control_c, 1, 7, 91
3, 116336, Control_c, 1, 7, 90
3, 116344, Control_c, 1, 7, 90
3, 116352, Control_c, 1, 7, 90
3, 116360, Control_c, 1, 7, 90
3, 116368, Control_c, 1, 7, 90
3, 116376, Control_c, 1, 7, 90
3, 116384, Control_c, 1, 7, 90
3, 116392, Control_c, 1, 7, 90
3, 116400, Control_c, 1, 7, 90
3, 116408, Control_c, 1, 7, 90
3, 116416, Control_c, 1, 7, 90
3, 116424, Control_c, 1, 7, 90
3, 116432, Control_c, 1, 7, 90
3, 116440, Control_c, 1, 7, 90
3, 116448, Control_c, 1, 7, 90
3, 116456, Control_c, 1, 7, 90
3, 116464, Control_c, 1, 7, 90
3, 116472, Control_c, 1, 7, 89
3, 116480, Control_c, 1, 7, 88
3, 116488, Control_c, 1, 7, 88
3, 116496, Control_c, 1, 7, 88
3, 116504, Control_c, 1, 7, 88
3, 116512, Control_c, 1, 7, 88
3, 116520, Control_c, 1, 7, 88
3, 116528, Control_c, 1, 7, 88
3, 116536, Control_c, 1, 7, 88
3, 116544, Control_c, 1, 7, 88
3, 116552, Control_c, 1, 7, 88
3, 116560, Control_c, 1, 7, 88
3, 116568, Control_c, 1, 7, 88
3, 116576, Control_c, 1, 7, 88
3, 116584, Control_c, 1, 7, 88
3, 116592, Control_c, 1, 7, 88
3, 116600, Control_c, 1, 7, 86
3, 116608, Control_c, 1, 7, 86
3, 116616, Control_c, 1, 7, 86
3, 116624, Control_c, 1, 7, 86
3, 116632, Control_c, 1, 7, 86
3, 116640, Control_c, 1, 7, 86
3, 116648, Control_c, 1, 7, 86
3, 116656, Control_c, 1, 7, 86
3, 116664, Control_c, 1, 7, 86
3, 116672, Control_c, 1, 7, 86
3, 116680, Control_c, 1, 7, 86
3, 116688, Control_c, 1, 7, 86
3, 116696, Control_c, 1, 7, 86
3, 116704, Control_c, 1, 7, 86
3, 116712, Control_c, 1, 7, 86
3, 116720, Control_c, 1, 7, 86
3, 116728, Control_c, 1, 7, 86
3, 116736, Control_c, 1, 7, 86
3, 116744, Control_c, 1, 7, 86
3, 116752, Control_c, 1, 7, 86
3, 116760, Control_c, 1, 7, 86
3, 116768, Control_c, 1, 7, 86
3, 116776, Control_c, 1, 7, 86
3, 116784, Control_c, 1, 7, 86
3, 116792, Control_c, 1, 7, 86
3, 116800, Control_c, 1, 7, 86
3, 116808, Control_c, 1, 7, 86
3, 116816, Control_c, 1, 7, 86
3, 116824, Control_c, 1, 7, 86
3, 116832, Control_c, 1, 7, 86
3, 116840, Control_c, 1, 7, 86
3, 116848, Control_c, 1, 7, 86
3, 116856, Control_c, 1, 7, 86
3, 116864, Control_c, 1, 7, 86
3, 116872, Control_c, 1, 7, 86
3, 116880, Control_c, 1, 7, 86
3, 116888, Control_c, 1, 7, 86
3, 116896, Control_c, 1, 7, 86
3, 116904, Control_c, 1, 7, 86
3, 116912, Control_c, 1, 7, 86
3, 116920, Control_c, 1, 7, 86
3, 116928, Control_c, 1, 7, 86
3, 116936, Control_c, 1, 7, 86
3, 116944, Control_c, 1, 7, 87
3, 116952, Control_c, 1, 7, 87
3, 116960, Control_c, 1, 7, 87
3, 116968, Control_c, 1, 7, 87
3, 116976, Control_c, 1, 7, 87
3, 116984, Control_c, 1, 7, 87
3, 116992, Control_c, 1, 7, 87
3, 117000, Control_c, 1, 7, 87
3, 117008, Control_c, 1, 7, 87
3, 117016, Control_c, 1, 7, 87
3, 117024, Control_c, 1, 7, 85
3, 117032, Control_c, 1, 7, 85
3, 117040, Control_c, 1, 7, 83
3, 117048, Control_c, 1, 7, 83
3, 117056, Control_c, 1, 7, 83
3, 117064, Control_c, 1, 7, 83
3, 117072, Control_c, 1, 7, 83
3, 117080, Control_c, 1, 7, 84
3, 117088, Control_c, 1, 7, 83
3, 117096, Control_c, 1, 7, 82
3, 117104, Control_c, 1, 7, 81
3, 117112, Control_c, 1, 7, 80
3, 117120, Control_c, 1, 7, 79
3, 117128, Control_c, 1, 7, 78
3, 117136, Control_c, 1, 7, 78
3, 117144, Control_c, 1, 7, 78
3, 117152, Control_c, 1, 7, 78
3, 117160, Control_c, 1, 7, 78
3, 117168, Control_c, 1, 7, 77
3, 117176, Control_c, 1, 7, 76
3, 117184, Control_c, 1, 7, 75
3, 117192, Control_c, 1, 7, 75
3, 117200, Control_c, 1, 7, 75
3, 117208, Control_c, 1, 7, 75
3, 117216, Control_c, 1, 7, 75
3, 117224, Control_c, 1, 7, 75
3, 117232, Control_c, 1, 7, 75
3, 117240, Control_c, 1, 7, 75
3, 117248, Control_c, 1, 7, 75
3, 117256, Control_c, 1, 7, 75
3, 117264, Control_c, 1, 7, 75
3, 117272, Control_c, 1, 7, 74
3, 117280, Control_c, 1, 7, 75
3, 117288, Control_c, 1, 7, 75
3, 117296, Control_c, 1, 7, 74
3, 117304, Control_c, 1, 7, 73
3, 117312, Control_c, 1, 7, 72
3, 117320, Control_c, 1, 7, 71
3, 117328, Control_c, 1, 7, 70
3, 117336, Control_c, 1, 7, 70
3, 117344, Control_c, 1, 7, 69
3, 117352, Control_c, 1, 7, 69
3, 117360, Control_c, 1, 7, 68
3, 117368, Control_c, 1, 7, 68
3, 117376, Control_c, 1, 7, 68
3, 117384, Control_c, 1, 7, 68
3, 117392, Control_c, 1, 7, 68
3, 117400, Control_c, 1, 7, 67
3, 117408, Control_c, 1, 7, 67
3, 117416, Control_c, 1, 7, 66
3, 117424, Control_c, 1, 7, 66
3, 117432, Control_c, 1, 7, 66
3, 117440, Control_c, 1, 7, 66
3, 117448, Control_c, 1, 7, 66
3, 117456, Control_c, 1, 7, 66
3, 117464, Control_c, 1, 7, 66
3, 117472, Control_c, 1, 7, 66
3, 117480, Control_c, 1, 7, 66
3, 117488, Control_c, 1, 7, 66
3, 117496, Control_c, 1, 7, 66
3, 117504, Control_c, 1, 7, 66
3, 117512, Control_c, 1, 7, 66
3, 117520, Control_c, 1, 7, 66
3, 117528, Control_c, 1, 7, 66
3, 117536, Control_c, 1, 7, 66
3, 117544, Control_c, 1, 7, 66
3, 117552, Control_c, 1, 7, 66
3, 117560, Control_c, 1, 7, 66
3, 117568, Control_c, 1, 7, 66
3, 117576, Control_c, 1, 7, 66
3, 117584, Control_c, 1, 7, 66
3, 117592, Control_c, 1, 7, 66
3, 117600, Control_c, 1, 7, 66
3, 117608, Control_c, 1, 7, 66
3, 117616, Control_c, 1, 7, 66
3, 117624, Control_c, 1, 7, 66
3, 117632, Control_c, 1, 7, 66
3, 117640, Control_c, 1, 7, 65
3, 117648, Control_c, 1, 7, 65
3, 117656, Control_c, 1, 7, 65
3, 117664, Control_c, 1, 7, 65
3, 117672, Control_c, 1, 7, 65
3, 117680, Control_c, 1, 7, 64
3, 117688, Control_c, 1, 7, 63
3, 117696, Control_c, 1, 7, 58
3, 117704, Control_c, 1, 7, 58
3, 117712, Control_c, 1, 7, 58
3, 117720, Control_c, 1, 7, 58
3, 117728, Control_c, 1, 7, 58
3, 117736, Control_c, 1, 7, 58
3, 117744, Control_c, 1, 7, 58
3, 117752, Control_c, 1, 7, 58
3, 117760, Control_c, 1, 7, 58
3, 117768, Control_c, 1, 7, 56
3, 117776, Control_c, 1, 7, 55
3, 117784, Control_c, 1, 7, 54
3, 117792, Control_c, 1, 7, 54
3, 117800, Control_c, 1, 7, 53
3, 117808, Control_c, 1, 7, 53
3, 117816, Control_c, 1, 7, 53
3, 117824, Control_c, 1, 7, 53
3, 117832, Control_c, 1, 7, 53
3, 117840, Control_c, 1, 7, 53
3, 117848, Control_c, 1, 7, 53
3, 117856, Control_c, 1, 7, 53
3, 117864, Control_c, 1, 7, 53
3, 117872, Control_c, 1, 7, 53
3, 117880, Control_c, 1, 7, 52
3, 117888, Control_c, 1, 7, 50
3, 117896, Control_c, 1, 7, 50
3, 117904, Control_c, 1, 7, 50
3, 117912, Control_c, 1, 7, 50
3, 117920, Control_c, 1, 7, 50
3, 117928, Control_c, 1, 7, 50
3, 117936, Control_c, 1, 7, 50
3, 117944, Control_c, 1, 7, 50
3, 117952, Control_c, 1, 7, 50
3, 117960, Control_c, 1, 7, 48
3, 117968, Control_c, 1, 7, 48
3, 117976, Control_c, 1, 7, 48
3, 117984, Control_c, 1, 7, 48
3, 117992, Control_c, 1, 7, 48
3, 118000, Control_c, 1, 7, 47
3, 118008, Control_c, 1, 7, 48
3, 118016, Control_c, 1, 7, 48
3, 118024, Control_c, 1, 7, 48
3, 118032, Control_c, 1, 7, 48
3, 118040, Control_c, 1, 7, 48
3, 118048, Control_c, 1, 7, 46
3, 118056, Control_c, 1, 7, 46
3, 118064, Control_c, 1, 7, 46
3, 118072, Control_c, 1, 7, 46
3, 118080, Control_c, 1, 7, 46
3, 118088, Control_c, 1, 7, 45
3, 118096, Control_c, 1, 7, 44
3, 118104, Control_c, 1, 7, 39
3, 118112, Control_c, 1, 7, 39
3, 118120, Control_c, 1, 7, 39
3, 118128, Control_c, 1, 7, 39
3, 118136, Control_c, 1, 7, 39
3, 118144, Control_c, 1, 7, 39
3, 118152, Control_c, 1, 7, 39
3, 118160, Control_c, 1, 7, 39
3, 118168, Control_c, 1, 7, 39
3, 118176, Control_c, 1, 7, 39
3, 118184, Control_c, 1, 7, 39
3, 118192, Control_c, 1, 7, 39
3, 118200, Control_c, 1, 7, 38
3, 118208, Control_c, 1, 7, 39
3, 118216, Control_c, 1, 7, 38
3, 118224, Control_c, 1, 7, 36
3, 118232, Control_c, 1, 7, 36
3, 118240, Control_c, 1, 7, 36
3, 118248, Control_c, 1, 7, 36
3, 118256, Control_c, 1, 7, 36
3, 118264, Control_c, 1, 7, 35
3, 118272, Control_c, 1, 7, 35
3, 118280, Control_c, 1, 7, 30
3, 118288, Control_c, 1, 7, 30
3, 118296, Control_c, 1, 7, 30
3, 118304, Control_c, 1, 7, 30
3, 118312, Control_c, 1, 7, 30
3, 118320, Control_c, 1, 7, 31
3, 118328, Control_c, 1, 7, 31
3, 118336, Control_c, 1, 7, 31
3, 118344, Control_c, 1, 7, 31
3, 118352, Control_c, 1, 7, 31
3, 118360, Control_c, 1, 7, 31
3, 118368, Control_c, 1, 7, 31
3, 118376, Control_c, 1, 7, 30
3, 118384, Control_c, 1, 7, 30
3, 118392, Control_c, 1, 7, 30
3, 118400, Control_c, 1, 7, 30
3, 118408, Control_c, 1, 7, 30
3, 118416, Control_c, 1, 7, 30
3, 118424, Control_c, 1, 7, 29
3, 118432, Control_c, 1, 7, 29
3, 118440, Control_c, 1, 7, 29
3, 118448, Control_c, 1, 7, 29
3, 118456, Control_c, 1, 7, 29
3, 118464, Control_c, 1, 7, 28
3, 118472, Control_c, 1, 7, 27
3, 118480, Control_c, 1, 7, 27
3, 118488, Control_c, 1, 7, 27
3, 118496, Control_c, 1, 7, 27
3, 118504, Control_c, 1, 7, 27
3, 118512, Control_c, 1, 7, 27
3, 118520, Control_c, 1, 7, 27
3, 118528, Control_c, 1, 7, 27
3, 118536, Control_c, 1, 7, 26
3, 118544, Control_c, 1, 7, 26
3, 118552, Control_c, 1, 7, 26
3, 118560, Control_c, 1, 7, 26
3, 118568, Control_c, 1, 7, 26
3, 118576, Control_c, 1, 7, 25
3, 118584, Control_c, 1, 7, 25
3, 118592, Control_c, 1, 7, 26
3, 118600, Control_c, 1, 7, 25
3, 118608, Control_c, 1, 7, 25
3, 118616, Control_c, 1, 7, 25
3, 118624, Control_c, 1, 7, 25
3, 118632, Control_c, 1, 7, 25
3, 118640, Control_c, 1, 7, 23
3, 118648, Control_c, 1, 7, 22
3, 118656, Control_c, 1, 7, 22
3, 118664, Control_c, 1, 7, 22
3, 118672, Control_c, 1, 7, 21
3, 118676, Note_on_c, 1, 74, 0
3, 118676, Note_on_c, 1, 86, 0
3, 118680, Control_c, 1, 7, 21
3, 118688, Control_c, 1, 7, 20
3, 118696, Control_c, 1, 7, 20
3, 118704, Control_c, 1, 7, 20
3, 118712, Control_c, 1, 7, 20
3, 118720, Control_c, 1, 7, 20
3, 118728, Control_c, 1, 7, 19
3, 118736, Control_c, 1, 7, 19
3, 118744, Control_c, 1, 7, 20
3, 118752, Control_c, 1, 7, 18
3, 118760, Control_c, 1, 7, 18
3, 118768, Control_c, 1, 7, 18
3, 118776, Control_c, 1, 7, 16
3, 118784, Control_c, 1, 7, 16
3, 118792, Control_c, 1, 7, 16
3, 118800, Control_c, 1, 7, 17
3, 118808, Control_c, 1, 7, 17
3, 118816, Control_c, 1, 7, 18
3, 118824, Control_c, 1, 7, 18
3, 118832, Control_c, 1, 7, 18
3, 118840, Control_c, 1, 7, 18
3, 118848, Control_c, 1, 7, 22
3, 118856, Control_c, 1, 7, 58
3, 118864, Control_c, 1, 7, 69
3, 118872, Control_c, 1, 7, 69
3, 118880, Control_c, 1, 7, 69
3, 118888, Control_c, 1, 7, 69
3, 118896, Control_c, 1, 7, 72
3, 118904, Control_c, 1, 7, 74
3, 118912, Control_c, 1, 7, 76
3, 118920, Control_c, 1, 7, 85
3, 118928, Control_c, 1, 7, 94
3, 118936, Control_c, 1, 7, 94
3, 118944, Control_c, 1, 7, 94
3, 118952, Control_c, 1, 7, 94
3, 118960, Control_c, 1, 7, 97
3, 118968, Control_c, 1, 7, 99
3, 118976, Control_c, 1, 7, 101
3, 138000, Note_on_c, 1, 67, 49
3, 138000, Note_on_c, 1, 63, 49
3, 138240, Note_on_c, 1, 63, 0
3, 138240, Note_on_c, 1, 67, 0
3, 138240, Note_on_c, 1, 65, 54
3, 138240, Note_on_c, 1, 69, 54
3, 138480, Note_on_c, 1, 69, 0
3, 138480, Note_on_c, 1, 65, 0
3, 138480, Note_on_c, 1, 67, 59
3, 138480, Note_on_c, 1, 70, 59
3, 138720, Note_on_c, 1, 70, 0
3, 138720, Note_on_c, 1, 67, 0
3, 138720, Note_on_c, 1, 72, 65
3, 138720, Note_on_c, 1, 69, 65
3, 138960, Note_on_c, 1, 69, 0
3, 138960, Note_on_c, 1, 72, 0
3, 138960, Note_on_c, 1, 70, 70
3, 138960, Note_on_c, 1, 74, 70
3, 139200, Note_on_c, 1, 74, 0
3, 139200, Note_on_c, 1, 70, 0
3, 139200, Note_on_c, 1, 72, 75
3, 139200, Note_on_c, 1, 75, 75
3, 139440, Note_on_c, 1, 75, 0
3, 139440, Note_on_c, 1, 72, 0
3, 139440, Note_on_c, 1, 74, 81
3, 139440, Note_on_c, 1, 77, 81
3, 139680, Note_on_c, 1, 77, 0
3, 139680, Note_on_c, 1, 74, 0
3, 139680, Note_on_c, 1, 75, 86
3, 139680, Note_on_c, 1, 79, 86
3, 139824, Note_on_c, 1, 79, 0
3, 139842, Note_on_c, 1, 75, 0
3, 139920, Note_on_c, 1, 79, 60
3, 139920, Note_on_c, 1, 75, 59
3, 140140, Note_on_c, 1, 79, 0
3, 140160, Note_on_c, 1, 77, 50
3, 140160, Note_on_c, 1, 74, 54
3, 140190, Note_on_c, 1, 75, 0
3, 140242, Note_on_c, 1, 77, 0
3, 140244, Note_on_c, 1, 74, 0
3, 140400, Note_on_c, 1, 75, 51
3, 140400, Note_on_c, 1, 72, 50
3, 140472, Note_on_c, 1, 72, 0
3, 140476, Note_on_c, 1, 75, 0
3, 140640, Note_on_c, 1, 74, 51
3, 140640, Note_on_c, 1, 70, 41
3, 140706, Note_on_c, 1, 70, 0
3, 140724, Note_on_c, 1, 74, 0
3, 140880, Note_on_c, 1, 69, 35
3, 140880, Note_on_c, 1, 72, 41
3, 141050, Note_on_c, 1, 69, 0
3, 141060, Note_on_c, 1, 72, 0
3, 141840, Note_on_c, 1, 82, 90
3, 142626, Note_on_c, 1, 82, 0
3, 142800, Note_on_c, 1, 77, 65
3, 143592, Note_on_c, 1, 77, 0
3, 143760, Note_on_c, 1, 79, 74
3, 144582, Note_on_c, 1, 79, 0
3, 144720, Note_on_c, 1, 74, 63
3, 145486, Note_on_c, 1, 74, 0
3, 147600, Note_on_c, 1, 74, 39
3, 147984, Note_on_c, 1, 74, 0
3, 148080, Note_on_c, 1, 74, 39
3, 149904, Note_on_c, 1, 74, 0
3, 150000, Note_on_c, 1, 74, 39
3, 151824, Note_on_c, 1, 74, 0
3, 151920, Note_on_c, 1, 74, 39
3, 153744, Note_on_c, 1, 74, 0
3, 161040, Note_on_c, 1, 77, 80
3, 161424, Note_on_c, 1, 77, 0
3, 161520, Note_on_c, 1, 77, 83
3, 162000, Note_on_c, 1, 77, 0
3, 162000, Note_on_c, 1, 75, 70
3, 162480, Note_on_c, 1, 75, 0
3, 162480, Note_on_c, 1, 74, 65
3, 162960, Note_on_c, 1, 74, 0
3, 162960, Note_on_c, 1, 72, 58
3, 163440, Note_on_c, 1, 72, 0
3, 163440, Note_on_c, 1, 70, 58
3, 163920, Note_on_c, 1, 70, 0
3, 163920, Note_on_c, 1, 69, 61
3, 164400, Note_on_c, 1, 69, 0
3, 164400, Note_on_c, 1, 70, 54
3, 164734, Note_on_c, 1, 70, 0
3, 164880, Note_on_c, 1, 72, 76
3, 165360, Note_on_c, 1, 72, 0
3, 165360, Note_on_c, 1, 70, 76
3, 165840, Note_on_c, 1, 70, 0
3, 165840, Note_on_c, 1, 69, 67
3, 165840, Note_on_c, 1, 81, 67
3, 166320, Note_on_c, 1, 81, 0
3, 166320, Note_on_c, 1, 69, 0
3, 166320, Note_on_c, 1, 79, 62
3, 166320, Note_on_c, 1, 67, 62
3, 166800, Note_on_c, 1, 67, 0
3, 166800, Note_on_c, 1, 79, 0
3, 166800, Note_on_c, 1, 65, 65
3, 166800, Note_on_c, 1, 77, 65
3, 167280, Note_on_c, 1, 77, 0
3, 167280, Note_on_c, 1, 65, 0
3, 167280, Note_on_c, 1, 75, 61
3, 167280, Note_on_c, 1, 63, 61
3, 167760, Note_on_c, 1, 63, 0
3, 167760, Note_on_c, 1, 75, 0
3, 167760, Note_on_c, 1, 62, 62
3, 167760, Note_on_c, 1, 74, 62
3, 168240, Note_on_c, 1, 74, 0
3, 168240, Note_on_c, 1, 62, 0
3, 168240, Note_on_c, 1, 72, 69
3, 168240, Note_on_c, 1, 60, 69
3, 168720, Note_on_c, 1, 70, 66
3, 168720, Note_on_c, 1, 58, 66
3, 168732, Note_on_c, 1, 60, 0
3, 168732, Note_on_c, 1, 72, 0
3, 169200, Note_on_c, 1, 70, 0
3, 169200, Note_on_c, 1, 58, 0
3, 169200, Note_on_c, 1, 74, 70
3, 169200, Note_on_c, 1, 62, 70
3, 169680, Note_on_c, 1, 62, 0
3, 169680, Note_on_c, 1, 74, 0
3, 169680, Note_on_c, 1, 77, 50
3, 169680, Note_on_c, 1, 65, 50
3, 170160, Note_on_c, 1, 65, 0
3, 170160, Note_on_c, 1, 77, 0
3, 170160, Note_on_c, 1, 70, 62
3, 170640, Note_on_c, 1, 70, 0
3, 170640, Note_on_c, 1, 74, 62
3, 171120, Note_on_c, 1, 74, 0
3, 171120, Note_on_c, 1, 77, 73
3, 171554, Note_on_c, 1, 77, 0
3, 171600, Note_on_c, 1, 77, 81
3, 171916, Note_on_c, 1, 77, 0
3, 172080, Note_on_c, 1, 77, 70
3, 172482, Note_on_c, 1, 77, 0
3, 172560, Note_on_c, 1, 77, 80
3, 172944, Note_on_c, 1, 77, 0
3, 173040, Note_on_c, 1, 77, 83
3, 173520, Note_on_c, 1, 77, 0
3, 173520, Note_on_c, 1, 75, 70
3, 174000, Note_on_c, 1, 75, 0
3, 174000, Note_on_c, 1, 74, 65
3, 174480, Note_on_c, 1, 74, 0
3, 174480, Note_on_c, 1, 72, 58
3, 174960, Note_on_c, 1, 72, 0
3, 174960, Note_on_c, 1, 70, 58
3, 175440, Note_on_c, 1, 70, 0
3, 175440, Note_on_c, 1, 69, 61
3, 175920, Note_on_c, 1, 69, 0
3, 175920, Note_on_c, 1, 70, 54
3, 176254, Note_on_c, 1, 70, 0
3, 176400, Note_on_c, 1, 72, 76
3, 176880, Note_on_c, 1, 72, 0
3, 176880, Note_on_c, 1, 70, 76
3, 177360, Note_on_c, 1, 70, 0
3, 177360, Note_on_c, 1, 69, 67
3, 177360, Note_on_c, 1, 81, 67
3, 177840, Note_on_c, 1, 81, 0
3, 177840, Note_on_c, 1, 69, 0
3, 177840, Note_on_c, 1, 67, 62
3, 177840, Note_on_c, 1, 79, 62
3, 178320, Note_on_c, 1, 79, 0
3, 178320, Note_on_c, 1, 67, 0
3, 178320, Note_on_c, 1, 65, 65
3, 178320, Note_on_c, 1, 77, 65
3, 178800, Note_on_c, 1, 77, 0
3, 178800, Note_on_c, 1, 65, 0
3, 178800, Note_on_c, 1, 63, 61
3, 178800, Note_on_c, 1, 75, 61
3, 179280, Note_on_c, 1, 75, 0
3, 179280, Note_on_c, 1, 63, 0
3, 179280, Note_on_c, 1, 62, 62
3, 179280, Note_on_c, 1, 74, 62
3, 179760, Note_on_c, 1, 74, 0
3, 179760, Note_on_c, 1, 62, 0
3, 179760, Note_on_c, 1, 72, 69
3, 179760, Note_on_c, 1, 60, 69
3, 180240, Note_on_c, 1, 58, 66
3, 180240, Note_on_c, 1, 70, 66
3, 180252, Note_on_c, 1, 60, 0
3, 180252, Note_on_c, 1, 72, 0
3, 180720, Note_on_c, 1, 58, 0
3, 180720, Note_on_c, 1, 70, 0
3, 180720, Note_on_c, 1, 74, 70
3, 180720, Note_on_c, 1, 62, 70
3, 181200, Note_on_c, 1, 62, 0
3, 181200, Note_on_c, 1, 74, 0
3, 181200, Note_on_c, 1, 65, 50
3, 181200, Note_on_c, 1, 77, 50
3, 181680, Note_on_c, 1, 77, 0
3, 181680, Note_on_c, 1, 65, 0
3, 181680, Note_on_c, 1, 70, 62
3, 182160, Note_on_c, 1, 70, 0
3, 182160, Note_on_c, 1, 74, 62
3, 182640, Note_on_c, 1, 74, 0
3, 182640, Note_on_c, 1, 77, 73
3, 183074, Note_on_c, 1, 77, 0
3, 183120, Note_on_c, 1, 77, 81
3, 183436, Note_on_c, 1, 77, 0
3, 183600, Note_on_c, 1, 77, 70
3, 184002, Note_on_c, 1, 77, 0
3, 184080, Note_on_c, 1, 78, 53
3, 184080, Note_on_c, 1, 82, 56
3, 184234, Note_on_c, 1, 82, 0
3, 184240, Note_on_c, 1, 78, 0
3, 184560, Note_on_c, 1, 78, 51
3, 184560, Note_on_c, 1, 82, 72
3, 185040, Note_on_c, 1, 82, 0
3, 185040, Note_on_c, 1, 78, 0
3, 185040, Note_on_c, 1, 77, 53
3, 185040, Note_on_c, 1, 84, 51
3, 185256, Note_on_c, 1, 77, 0
3, 185280, Note_on_c, 1, 84, 0
3, 185520, Note_on_c, 1, 77, 60
3, 185520, Note_on_c, 1, 84, 82
3, 186000, Note_on_c, 1, 84, 0
3, 186000, Note_on_c, 1, 77, 0
3, 186000, Note_on_c, 1, 77, 60
3, 186000, Note_on_c, 1, 82, 55
3, 186040, Note_on_c, 1, 77, 0
3, 186190, Note_on_c, 1, 82, 0
3, 186480, Note_on_c, 1, 77, 60
3, 186480, Note_on_c, 1, 82, 80
3, 186960, Note_on_c, 1, 82, 0
3, 186960, Note_on_c, 1, 77, 0
3, 186960, Note_on_c, 1, 81, 52
3, 186960, Note_on_c, 1, 77, 44
3, 187184, Note_on_c, 1, 77, 0
3, 187190, Note_on_c, 1, 81, 0
3, 187440, Note_on_c, 1, 81, 74
3, 187440, Note_on_c, 1, 77, 49
3, 187920, Note_on_c, 1, 81, 0
3, 187920, Note_on_c, 1, 77, 53
3, 187920, Note_on_c, 1, 82, 46
3, 187932, Note_on_c, 1, 77, 0
3, 188156, Note_on_c, 1, 77, 0
3, 188190, Note_on_c, 1, 82, 0
3, 188400, Note_on_c, 1, 77, 56
3, 188400, Note_on_c, 1, 82, 78
3, 188854, Note_on_c, 1, 77, 0
3, 188880, Note_on_c, 1, 82, 0
3, 188880, Note_on_c, 1, 84, 56
3, 188880, Note_on_c, 1, 77, 58
3, 189080, Note_on_c, 1, 77, 0
3, 189090, Note_on_c, 1, 84, 0
3, 189360, Note_on_c, 1, 84, 82
3, 189360, Note_on_c, 1, 77, 60
3, 189840, Note_on_c, 1, 77, 0
3, 189840, Note_on_c, 1, 84, 0
3, 189840, Note_on_c, 1, 77, 47
3, 189840, Note_on_c, 1, 82, 62
3, 189992, Note_on_c, 1, 82, 0
3, 190050, Note_on_c, 1, 77, 0
3, 190320, Note_on_c, 1, 82, 75
3, 190320, Note_on_c, 1, 77, 54
3, 190800, Note_on_c, 1, 77, 0
3, 190800, Note_on_c, 1, 77, 55
3, 190800, Note_on_c, 1, 81, 60
3, 190802, Note_on_c, 1, 82, 0
3, 190934, Note_on_c, 1, 81, 0
3, 190956, Note_on_c, 1, 77, 0
3, 191280, Note_on_c, 1, 81, 70
3, 191280, Note_on_c, 1, 77, 50
3, 191720, Note_on_c, 1, 77, 0
3, 191760, Note_on_c, 1, 81, 0
3, 191760, Note_on_c, 1, 82, 66
3, 191760, Note_on_c, 1, 74, 68
3, 191824, Note_on_c, 1, 82, 0
3, 191844, Note_on_c, 1, 74, 0
3, 192000, Note_on_c, 1, 74, 73
3, 192000, Note_on_c, 1, 82, 72
3, 192302, Note_on_c, 1, 82, 0
3, 192302, Note_on_c, 1, 74, 0
3, 192480, Note_on_c, 1, 74, 68
3, 192480, Note_on_c, 1, 82, 66
3, 192792, Note_on_c, 1, 74, 0
3, 192802, Note_on_c, 1, 82, 0
3, 192960, Note_on_c, 1, 82, 72
3, 192960, Note_on_c, 1, 74, 73
3, 193262, Note_on_c, 1, 74, 0
3, 193262, Note_on_c, 1, 82, 0
3, 193440, Note_on_c, 1, 74, 68
3, 193440, Note_on_c, 1, 82, 66
3, 193752, Note_on_c, 1, 74, 0
3, 193762, Note_on_c, 1, 82, 0
3, 193920, Note_on_c, 1, 82, 72
3, 193920, Note_on_c, 1, 74, 73
3, 194222, Note_on_c, 1, 74, 0
3, 194222, Note_on_c, 1, 82, 0
3, 194400, Note_on_c, 1, 82, 66
3, 194400, Note_on_c, 1, 74, 68
3, 194712, Note_on_c, 1, 74, 0
3, 194722, Note_on_c, 1, 82, 0
3, 194880, Note_on_c, 1, 82, 72
3, 194880, Note_on_c, 1, 74, 73
3, 195182, Note_on_c, 1, 74, 0
3, 195182, Note_on_c, 1, 82, 0
3, 195360, Note_on_c, 1, 82, 66
3, 195360, Note_on_c, 1, 74, 68
3, 195672, Note_on_c, 1, 74, 0
3, 195682, Note_on_c, 1, 82, 0
3, 196080, Note_on_c, 1, 82, 55
3, 196080, Note_on_c, 1, 70, 51
3, 196294, Note_on_c, 1, 70, 0
3, 196312, Note_on_c, 1, 82, 0
3, 196560, Note_on_c, 1, 82, 57
3, 196560, Note_on_c, 1, 70, 52
3, 196736, Note_on_c, 1, 70, 0
3, 196760, Note_on_c, 1, 82, 0
3, 197040, Note_on_c, 1, 82, 56
3, 197040, Note_on_c, 1, 70, 55
3, 197214, Note_on_c, 1, 70, 0
3, 197240, Note_on_c, 1, 82, 0
3, 197520, Note_on_c, 1, 82, 64
3, 197520, Note_on_c, 1, 70, 62
3, 197790, Note_on_c, 1, 70, 0
3, 197804, Note_on_c, 1, 82, 0
3, 201840, Note_on_c, 1, 84, 71
3, 201840, Note_on_c, 1, 72, 71
3, 203606, Note_on_c, 1, 72, 0
3, 203606, Note_on_c, 1, 84, 0
3, 204000, Note_on_c, 1, 79, 71
3, 204000, Note_on_c, 1, 67, 71
3, 204009, Control_c, 1, 7, 102
3, 204049, Control_c, 1, 7, 101
3, 204089, Control_c, 1, 7, 100
3, 204129, Control_c, 1, 7, 99
3, 204169, Control_c, 1, 7, 98
3, 204209, Control_c, 1, 7, 97
3, 204237, Control_c, 1, 7, 96
3, 204277, Control_c, 1, 7, 95
3, 204317, Control_c, 1, 7, 94
3, 204357, Control_c, 1, 7, 93
3, 204397, Control_c, 1, 7, 92
3, 204437, Control_c, 1, 7, 91
3, 204461, Control_c, 1, 7, 90
3, 204501, Control_c, 1, 7, 89
3, 204541, Control_c, 1, 7, 88
3, 204581, Control_c, 1, 7, 87
3, 204621, Control_c, 1, 7, 86
3, 204661, Control_c, 1, 7, 85
3, 204689, Control_c, 1, 7, 84
3, 204729, Control_c, 1, 7, 83
3, 204769, Control_c, 1, 7, 82
3, 204809, Control_c, 1, 7, 81
3, 204849, Control_c, 1, 7, 80
3, 204889, Control_c, 1, 7, 79
3, 204917, Control_c, 1, 7, 78
3, 204957, Control_c, 1, 7, 77
3, 204997, Control_c, 1, 7, 76
3, 205037, Control_c, 1, 7, 75
3, 205077, Control_c, 1, 7, 74
3, 205117, Control_c, 1, 7, 73
3, 205141, Control_c, 1, 7, 72
3, 205181, Control_c, 1, 7, 71
3, 205221, Control_c, 1, 7, 70
3, 205261, Control_c, 1, 7, 69
3, 205301, Control_c, 1, 7, 68
3, 205341, Control_c, 1, 7, 67
3, 205369, Control_c, 1, 7, 66
3, 205409, Control_c, 1, 7, 65
3, 205449, Control_c, 1, 7, 64
3, 205489, Control_c, 1, 7, 63
3, 205529, Control_c, 1, 7, 62
3, 205569, Control_c, 1, 7, 61
3, 205597, Control_c, 1, 7, 60
3, 205637, Control_c, 1, 7, 59
3, 205677, Control_c, 1, 7, 58
3, 205717, Control_c, 1, 7, 57
3, 205757, Control_c, 1, 7, 56
3, 205797, Control_c, 1, 7, 55
3, 205821, Control_c, 1, 7, 54
3, 205861, Control_c, 1, 7, 53
3, 205901, Control_c, 1, 7, 52
3, 205941, Control_c, 1, 7, 51
3, 205981, Control_c, 1, 7, 50
3, 206021, Control_c, 1, 7, 49
3, 206049, Control_c, 1, 7, 48
3, 206089, Control_c, 1, 7, 47
3, 206129, Control_c, 1, 7, 46
3, 206169, Control_c, 1, 7, 45
3, 206209, Control_c, 1, 7, 44
3, 206249, Control_c, 1, 7, 43
3, 206277, Control_c, 1, 7, 42
3, 206317, Control_c, 1, 7, 41
3, 206357, Control_c, 1, 7, 40
3, 206397, Control_c, 1, 7, 39
3, 206437, Control_c, 1, 7, 38
3, 206477, Control_c, 1, 7, 37
3, 206501, Control_c, 1, 7, 36
3, 206541, Control_c, 1, 7, 35
3, 206581, Control_c, 1, 7, 34
3, 206621, Control_c, 1, 7, 33
3, 206661, Control_c, 1, 7, 32
3, 206701, Control_c, 1, 7, 31
3, 206729, Control_c, 1, 7, 30
3, 206769, Control_c, 1, 7, 29
3, 206809, Control_c, 1, 7, 28
3, 206849, Control_c, 1, 7, 27
3, 206889, Control_c, 1, 7, 26
3, 206929, Control_c, 1, 7, 25
3, 206957, Control_c, 1, 7, 24
3, 206997, Control_c, 1, 7, 23
3, 207037, Control_c, 1, 7, 22
3, 207077, Control_c, 1, 7, 21
3, 207117, Control_c, 1, 7, 20
3, 207157, Control_c, 1, 7, 19
3, 207181, Control_c, 1, 7, 18
3, 207221, Control_c, 1, 7, 17
3, 207261, Control_c, 1, 7, 16
3, 207301, Control_c, 1, 7, 15
3, 207341, Control_c, 1, 7, 14
3, 207381, Control_c, 1, 7, 13
3, 207409, Control_c, 1, 7, 12
3, 207449, Control_c, 1, 7, 11
3, 207489, Control_c, 1, 7, 10
3, 207529, Control_c, 1, 7, 9
3, 207569, Control_c, 1, 7, 8
3, 207609, Control_c, 1, 7, 7
3, 207637, Control_c, 1, 7, 6
3, 207677, Control_c, 1, 7, 5
3, 207717, Control_c, 1, 7, 4
3, 207757, Control_c, 1, 7, 3
3, 207780, Note_on_c, 1, 67, 0
3, 207780, Note_on_c, 1, 79, 0
3, 207797, Control_c, 1, 7, 2
3, 207821, Control_c, 1, 7, 0
3, 207837, Control_c, 1, 7, 51
3, 207849, Control_c, 1, 7, 102
3, 210200, Note_on_c, 1, 81, 56
3, 210240, Note_on_c, 1, 81, 0
3, 210240, Note_on_c, 1, 79, 59
3, 210360, Note_on_c, 1, 79, 0
3, 210360, Note_on_c, 1, 78, 58
3, 210480, Note_on_c, 1, 78, 0
3, 210480, Note_on_c, 1, 79, 40
3, 210480, Note_on_c, 1, 74, 50
3, 210520, Note_on_c, 1, 74, 0
3, 210720, Note_on_c, 1, 74, 54
3, 210756, Note_on_c, 1, 74, 0
3, 210944, Note_on_c, 1, 79, 0
3, 210960, Note_on_c, 1, 74, 54
3, 210996, Note_on_c, 1, 74, 0
3, 211160, Note_on_c, 1, 81, 56
3, 211192, Note_on_c, 1, 81, 0
3, 211200, Note_on_c, 1, 79, 62
3, 211320, Note_on_c, 1, 79, 0
3, 211320, Note_on_c, 1, 78, 56
3, 211440, Note_on_c, 1, 78, 0
3, 211440, Note_on_c, 1, 79, 45
3, 211440, Note_on_c, 1, 74, 50
3, 211480, Note_on_c, 1, 74, 0
3, 211680, Note_on_c, 1, 74, 54
3, 211716, Note_on_c, 1, 74, 0
3, 211736, Note_on_c, 1, 79, 0
3, 211800, Note_on_c, 1, 74, 52
3, 211850, Note_on_c, 1, 74, 0
3, 211920, Note_on_c, 1, 76, 54
3, 211920, Note_on_c, 1, 74, 54
3, 211956, Note_on_c, 1, 74, 0
3, 211980, Note_on_c, 1, 76, 0
3, 212040, Note_on_c, 1, 78, 60
3, 212086, Note_on_c, 1, 78, 0
3, 212160, Note_on_c, 1, 79, 75
3, 212206, Note_on_c, 1, 79, 0
3, 212280, Note_on_c, 1, 81, 66
3, 212326, Note_on_c, 1, 81, 0
3, 212400, Note_on_c, 1, 83, 60
3, 212400, Note_on_c, 1, 74, 56
3, 212446, Note_on_c, 1, 74, 0
3, 212452, Note_on_c, 1, 83, 0
3, 212520, Note_on_c, 1, 84, 60
3, 212570, Note_on_c, 1, 84, 0
3, 212640, Note_on_c, 1, 86, 58
3, 212640, Note_on_c, 1, 74, 54
3, 212674, Note_on_c, 1, 74, 0
3, 212880, Note_on_c, 1, 86, 0
3, 212880, Note_on_c, 1, 84, 62
3, 212880, Note_on_c, 1, 74, 57
3, 212920, Note_on_c, 1, 74, 0
3, 213000, Note_on_c, 1, 84, 0
3, 213000, Note_on_c, 1, 83, 50
3, 213090, Note_on_c, 1, 83, 0
3, 213120, Note_on_c, 1, 83, 66
3, 213360, Note_on_c, 1, 84, 41
3, 213360, Note_on_c, 1, 74, 58
3, 213386, Note_on_c, 1, 83, 0
3, 213404, Note_on_c, 1, 74, 0
3, 213600, Note_on_c, 1, 74, 60
3, 213640, Note_on_c, 1, 74, 0
3, 213840, Note_on_c, 1, 74, 56
3, 213880, Note_on_c, 1, 74, 0
3, 213930, Note_on_c, 1, 84, 0
3, 214080, Note_on_c, 1, 84, 67
3, 214200, Note_on_c, 1, 83, 52
3, 214204, Note_on_c, 1, 84, 0
3, 214320, Note_on_c, 1, 83, 0
3, 214320, Note_on_c, 1, 81, 67
3, 214320, Note_on_c, 1, 74, 60
3, 214364, Note_on_c, 1, 74, 0
3, 214440, Note_on_c, 1, 81, 0
3, 214520, Note_on_c, 1, 83, 56
3, 214560, Note_on_c, 1, 83, 0
3, 214560, Note_on_c, 1, 81, 64
3, 214560, Note_on_c, 1, 74, 59
3, 214600, Note_on_c, 1, 74, 0
3, 214680, Note_on_c, 1, 79, 58
3, 214704, Note_on_c, 1, 81, 0
3, 214800, Note_on_c, 1, 81, 53
3, 214800, Note_on_c, 1, 74, 65
3, 214802, Note_on_c, 1, 79, 0
3, 214854, Note_on_c, 1, 74, 0
3, 215002, Note_on_c, 1, 81, 0
3, 215040, Note_on_c, 1, 83, 68
3, 215156, Note_on_c, 1, 83, 0
3, 215160, Note_on_c, 1, 81, 56
3, 215280, Note_on_c, 1, 79, 50
3, 215280, Note_on_c, 1, 74, 63
3, 215304, Note_on_c, 1, 81, 0
3, 215322, Note_on_c, 1, 74, 0
3, 215520, Note_on_c, 1, 74, 66
3, 215560, Note_on_c, 1, 74, 0
3, 215700, Note_on_c, 1, 79, 0
3, 215760, Note_on_c, 1, 79, 61
3, 215760, Note_on_c, 1, 74, 65
3, 215810, Note_on_c, 1, 74, 0
3, 216240, Note_on_c, 1, 78, 61
3, 216240, Note_on_c, 1, 74, 59
3, 216244, Note_on_c, 1, 79, 0
3, 216284, Note_on_c, 1, 74, 0
3, 216360, Note_on_c, 1, 79, 56
3, 216376, Note_on_c, 1, 78, 0
3, 216480, Note_on_c, 1, 81, 61
3, 216480, Note_on_c, 1, 74, 57
3, 216520, Note_on_c, 1, 74, 0
3, 216526, Note_on_c, 1, 79, 0
3, 216586, Note_on_c, 1, 81, 0
3, 216600, Note_on_c, 1, 74, 84
3, 216650, Note_on_c, 1, 74, 0
3, 216720, Note_on_c, 1, 76, 53
3, 216720, Note_on_c, 1, 74, 59
3, 216760, Note_on_c, 1, 74, 0
3, 216780, Note_on_c, 1, 76, 0
3, 216840, Note_on_c, 1, 78, 77
3, 216886, Note_on_c, 1, 78, 0
3, 216960, Note_on_c, 1, 79, 65
3, 217014, Note_on_c, 1, 79, 0
3, 217080, Note_on_c, 1, 81, 62
3, 217134, Note_on_c, 1, 81, 0
3, 217200, Note_on_c, 1, 82, 58
3, 217200, Note_on_c, 1, 74, 46
3, 217246, Note_on_c, 1, 74, 0
3, 217254, Note_on_c, 1, 82, 0
3, 217320, Note_on_c, 1, 84, 54
3, 217374, Note_on_c, 1, 84, 0
3, 217440, Note_on_c, 1, 86, 50
3, 217440, Note_on_c, 1, 74, 56
3, 217486, Note_on_c, 1, 74, 0
3, 217494, Note_on_c, 1, 86, 0
3, 217560, Note_on_c, 1, 86, 46
3, 217614, Note_on_c, 1, 86, 0
3, 217680, Note_on_c, 1, 86, 42
3, 217680, Note_on_c, 1, 74, 56
3, 217726, Note_on_c, 1, 74, 0
3, 217734, Note_on_c, 1, 86, 0
3, 217800, Note_on_c, 1, 86, 38
3, 217854, Note_on_c, 1, 86, 0
3, 217920, Note_on_c, 1, 86, 32
3, 217920, Note_on_c, 1, 74, 32
3, 219948, Note_on_c, 1, 74, 0
3, 219948, Note_on_c, 1, 86, 0
3, 220080, Note_on_c, 1, 74, 32
3, 220188, Note_on_c, 1, 74, 0
3, 221040, Note_on_c, 1, 70, 32
3, 221040, Note_on_c, 1, 75, 32
3, 221148, Note_on_c, 1, 75, 0
3, 221148, Note_on_c, 1, 70, 0
3, 222000, Note_on_c, 1, 77, 32
3, 222000, Note_on_c, 1, 74, 32
3, 222108, Note_on_c, 1, 74, 0
3, 222108, Note_on_c, 1, 77, 0
3, 222960, Note_on_c, 1, 79, 32
3, 222960, Note_on_c, 1, 75, 32
3, 223068, Note_on_c, 1, 75, 0
3, 223068, Note_on_c, 1, 79, 0
3, 228240, Note_on_c, 1, 82, 30
3, 228240, Note_on_c, 1, 70, 30
3, 228336, Note_on_c, 1, 70, 0
3, 228336, Note_on_c, 1, 82, 0
3, 228480, Note_on_c, 1, 70, 30
3, 228480, Note_on_c, 1, 82, 30
3, 228576, Note_on_c, 1, 82, 0
3, 228576, Note_on_c, 1, 70, 0
3, 228720, Note_on_c, 1, 82, 30
3, 228720, Note_on_c, 1, 70, 30
3, 228816, Note_on_c, 1, 70, 0
3, 228816, Note_on_c, 1, 82, 0
3, 228960, Note_on_c, 1, 70, 30
3, 228960, Note_on_c, 1, 82, 30
3, 229056, Note_on_c, 1, 82, 0
3, 229056, Note_on_c, 1, 70, 0
3, 229200, Note_on_c, 1, 70, 30
3, 229200, Note_on_c, 1, 82, 30
3, 229296, Note_on_c, 1, 82, 0
3, 229296, Note_on_c, 1, 70, 0
3, 229440, Note_on_c, 1, 70, 46
3, 229440, Note_on_c, 1, 82, 46
3, 229536, Note_on_c, 1, 82, 0
3, 229536, Note_on_c, 1, 70, 0
3, 229680, Note_on_c, 1, 82, 46
3, 229680, Note_on_c, 1, 70, 46
3, 229776, Note_on_c, 1, 70, 0
3, 229776, Note_on_c, 1, 82, 0
3, 229920, Note_on_c, 1, 82, 53
3, 229920, Note_on_c, 1, 70, 53
3, 230016, Note_on_c, 1, 70, 0
3, 230016, Note_on_c, 1, 82, 0
3, 230160, Note_on_c, 1, 82, 53
3, 230160, Note_on_c, 1, 70, 53
3, 230208, Note_on_c, 1, 70, 0
3, 230208, Note_on_c, 1, 82, 0
3, 230280, Note_on_c, 1, 70, 53
3, 230280, Note_on_c, 1, 82, 53
3, 230328, Note_on_c, 1, 82, 0
3, 230328, Note_on_c, 1, 70, 0
3, 230400, Note_on_c, 1, 82, 56
3, 230400, Note_on_c, 1, 70, 56
3, 230448, Note_on_c, 1, 70, 0
3, 230448, Note_on_c, 1, 82, 0
3, 230520, Note_on_c, 1, 70, 56
3, 230520, Note_on_c, 1, 82, 56
3, 230568, Note_on_c, 1, 82, 0
3, 230568, Note_on_c, 1, 70, 0
3, 230640, Note_on_c, 1, 70, 56
3, 230640, Note_on_c, 1, 82, 56
3, 230688, Note_on_c, 1, 82, 0
3, 230688, Note_on_c, 1, 70, 0
3, 230760, Note_on_c, 1, 70, 56
3, 230760, Note_on_c, 1, 82, 56
3, 230808, Note_on_c, 1, 82, 0
3, 230808, Note_on_c, 1, 70, 0
3, 230880, Note_on_c, 1, 70, 56
3, 230880, Note_on_c, 1, 82, 56
3, 230928, Note_on_c, 1, 82, 0
3, 230928, Note_on_c, 1, 70, 0
3, 231000, Note_on_c, 1, 70, 56
3, 231000, Note_on_c, 1, 82, 56
3, 231048, Note_on_c, 1, 82, 0
3, 231048, Note_on_c, 1, 70, 0
3, 231120, Note_on_c, 1, 82, 56
3, 231120, Note_on_c, 1, 70, 56
3, 231168, Note_on_c, 1, 70, 0
3, 231168, Note_on_c, 1, 82, 0
3, 231240, Note_on_c, 1, 70, 56
3, 231240, Note_on_c, 1, 82, 56
3, 231288, Note_on_c, 1, 82, 0
3, 231288, Note_on_c, 1, 70, 0
3, 231360, Note_on_c, 1, 82, 56
3, 231360, Note_on_c, 1, 70, 56
3, 231408, Note_on_c, 1, 70, 0
3, 231408, Note_on_c, 1, 82, 0
3, 231480, Note_on_c, 1, 70, 56
3, 231480, Note_on_c, 1, 82, 56
3, 231528, Note_on_c, 1, 82, 0
3, 231528, Note_on_c, 1, 70, 0
3, 231600, Note_on_c, 1, 70, 56
3, 231600, Note_on_c, 1, 82, 56
3, 231648, Note_on_c, 1, 82, 0
3, 231648, Note_on_c, 1, 70, 0
3, 231720, Note_on_c, 1, 82, 56
3, 231720, Note_on_c, 1, 70, 56
3, 231768, Note_on_c, 1, 70, 0
3, 231768, Note_on_c, 1, 82, 0
3, 231840, Note_on_c, 1, 70, 56
3, 231840, Note_on_c, 1, 82, 56
3, 231888, Note_on_c, 1, 82, 0
3, 231888, Note_on_c, 1, 70, 0
3, 231960, Note_on_c, 1, 82, 56
3, 231960, Note_on_c, 1, 70, 56
3, 232008, Note_on_c, 1, 70, 0
3, 232008, Note_on_c, 1, 82, 0
3, 232080, Note_on_c, 1, 82, 56
3, 232080, Note_on_c, 1, 70, 56
3, 232128, Note_on_c, 1, 70, 0
3, 232128, Note_on_c, 1, 82, 0
3, 232200, Note_on_c, 1, 70, 56
3, 232200, Note_on_c, 1, 82, 56
3, 232248, Note_on_c, 1, 82, 0
3, 232248, Note_on_c, 1, 70, 0
3, 232320, Note_on_c, 1, 82, 56
3, 232320, Note_on_c, 1, 70, 56
3, 232368, Note_on_c, 1, 70, 0
3, 232368, Note_on_c, 1, 82, 0
3, 232440, Note_on_c, 1, 82, 56
3, 232440, Note_on_c, 1, 70, 56
3, 232488, Note_on_c, 1, 70, 0
3, 232488, Note_on_c, 1, 82, 0
3, 232560, Note_on_c, 1, 82, 56
3, 232560, Note_on_c, 1, 70, 56
3, 232608, Note_on_c, 1, 70, 0
3, 232608, Note_on_c, 1, 82, 0
3, 232680, Note_on_c, 1, 82, 56
3, 232680, Note_on_c, 1, 70, 56
3, 232728, Note_on_c, 1, 70, 0
3, 232728, Note_on_c, 1, 82, 0
3, 232800, Note_on_c, 1, 82, 56
3, 232800, Note_on_c, 1, 70, 56
3, 232848, Note_on_c, 1, 70, 0
3, 232848, Note_on_c, 1, 82, 0
3, 232920, Note_on_c, 1, 82, 56
3, 232920, Note_on_c, 1, 70, 56
3, 232968, Note_on_c, 1, 70, 0
3, 232968, Note_on_c, 1, 82, 0
3, 233040, Note_on_c, 1, 82, 56
3, 233040, Note_on_c, 1, 70, 56
3, 233088, Note_on_c, 1, 70, 0
3, 233088, Note_on_c, 1, 82, 0
3, 233160, Note_on_c, 1, 82, 56
3, 233160, Note_on_c, 1, 70, 56
3, 233208, Note_on_c, 1, 70, 0
3, 233208, Note_on_c, 1, 82, 0
3, 233280, Note_on_c, 1, 82, 56
3, 233280, Note_on_c, 1, 70, 56
3, 233328, Note_on_c, 1, 70, 0
3, 233328, Note_on_c, 1, 82, 0
3, 233400, Note_on_c, 1, 82, 56
3, 233400, Note_on_c, 1, 70, 56
3, 233448, Note_on_c, 1, 70, 0
3, 233448, Note_on_c, 1, 82, 0
3, 233520, Note_on_c, 1, 82, 56
3, 233520, Note_on_c, 1, 70, 56
3, 233568, Note_on_c, 1, 70, 0
3, 233568, Note_on_c, 1, 82, 0
3, 233640, Note_on_c, 1, 82, 56
3, 233640, Note_on_c, 1, 70, 56
3, 233688, Note_on_c, 1, 70, 0
3, 233688, Note_on_c, 1, 82, 0
3, 233760, Note_on_c, 1, 82, 56
3, 233760, Note_on_c, 1, 70, 56
3, 233808, Note_on_c, 1, 70, 0
3, 233808, Note_on_c, 1, 82, 0
3, 233880, Note_on_c, 1, 82, 56
3, 233880, Note_on_c, 1, 70, 56
3, 233928, Note_on_c, 1, 70, 0
3, 233928, Note_on_c, 1, 82, 0
3, 234000, Note_on_c, 1, 82, 56
3, 234000, Note_on_c, 1, 70, 56
3, 234048, Note_on_c, 1, 70, 0
3, 234048, Note_on_c, 1, 82, 0
3, 234120, Note_on_c, 1, 82, 56
3, 234120, Note_on_c, 1, 70, 56
3, 234168, Note_on_c, 1, 70, 0
3, 234168, Note_on_c, 1, 82, 0
3, 234240, Note_on_c, 1, 82, 70
3, 234240, Note_on_c, 1, 70, 70
3, 234288, Note_on_c, 1, 70, 0
3, 234288, Note_on_c, 1, 82, 0
3, 234360, Note_on_c, 1, 82, 70
3, 234360, Note_on_c, 1, 70, 70
3, 234408, Note_on_c, 1, 70, 0
3, 234408, Note_on_c, 1, 82, 0
3, 234480, Note_on_c, 1, 82, 70
3, 234480, Note_on_c, 1, 70, 70
3, 234528, Note_on_c, 1, 70, 0
3, 234528, Note_on_c, 1, 82, 0
3, 234600, Note_on_c, 1, 82, 70
3, 234600, Note_on_c, 1, 70, 70
3, 234648, Note_on_c, 1, 70, 0
3, 234648, Note_on_c, 1, 82, 0
3, 234720, Note_on_c, 1, 82, 70
3, 234720, Note_on_c, 1, 70, 70
3, 234768, Note_on_c, 1, 70, 0
3, 234768, Note_on_c, 1, 82, 0
3, 234840, Note_on_c, 1, 82, 70
3, 234840, Note_on_c, 1, 70, 70
3, 234888, Note_on_c, 1, 70, 0
3, 234888, Note_on_c, 1, 82, 0
3, 234960, Note_on_c, 1, 82, 70
3, 234960, Note_on_c, 1, 70, 70
3, 235008, Note_on_c, 1, 70, 0
3, 235008, Note_on_c, 1, 82, 0
3, 235080, Note_on_c, 1, 82, 70
3, 235080, Note_on_c, 1, 70, 70
3, 235128, Note_on_c, 1, 70, 0
3, 235128, Note_on_c, 1, 82, 0
3, 235200, Note_on_c, 1, 82, 60
3, 235296, Note_on_c, 1, 82, 0
3, 235320, Note_on_c, 1, 82, 56
3, 235416, Note_on_c, 1, 82, 0
3, 235440, Note_on_c, 1, 82, 51
3, 235536, Note_on_c, 1, 82, 0
3, 235560, Note_on_c, 1, 82, 47
3, 235656, Note_on_c, 1, 82, 0
3, 235680, Note_on_c, 1, 82, 42
3, 235776, Note_on_c, 1, 82, 0
3, 235800, Note_on_c, 1, 82, 38
3, 235896, Note_on_c, 1, 82, 0
3, 235920, Control_c, 1, 7, 36
3, 235920, Note_on_c, 1, 82, 34
3, 235928, Control_c, 1, 7, 37
3, 235936, Control_c, 1, 7, 37
3, 235944, Control_c, 1, 7, 37
3, 235952, Control_c, 1, 7, 37
3, 235960, Control_c, 1, 7, 37
3, 235968, Control_c, 1, 7, 37
3, 235976, Control_c, 1, 7, 37
3, 235984, Control_c, 1, 7, 37
3, 235992, Control_c, 1, 7, 37
3, 236000, Control_c, 1, 7, 37
3, 236008, Control_c, 1, 7, 37
3, 236016, Note_on_c, 1, 82, 0
3, 236016, Control_c, 1, 7, 37
3, 236024, Control_c, 1, 7, 37
3, 236032, Control_c, 1, 7, 37
3, 236040, Control_c, 1, 7, 37
3, 236040, Note_on_c, 1, 82, 80
3, 236048, Control_c, 1, 7, 37
3, 236056, Control_c, 1, 7, 37
3, 236064, Control_c, 1, 7, 37
3, 236072, Control_c, 1, 7, 37
3, 236080, Control_c, 1, 7, 36
3, 236088, Control_c, 1, 7, 38
3, 236096, Control_c, 1, 7, 38
3, 236104, Control_c, 1, 7, 38
3, 236112, Control_c, 1, 7, 38
3, 236120, Control_c, 1, 7, 38
3, 236128, Control_c, 1, 7, 38
3, 236136, Control_c, 1, 7, 38
3, 236144, Control_c, 1, 7, 37
3, 236152, Control_c, 1, 7, 37
3, 236160, Control_c, 1, 7, 37
3, 236168, Control_c, 1, 7, 37
3, 236176, Control_c, 1, 7, 37
3, 236184, Control_c, 1, 7, 37
3, 236192, Control_c, 1, 7, 38
3, 236200, Control_c, 1, 7, 38
3, 236208, Control_c, 1, 7, 38
3, 236216, Control_c, 1, 7, 38
3, 236224, Control_c, 1, 7, 38
3, 236232, Control_c, 1, 7, 38
3, 236240, Control_c, 1, 7, 38
3, 236248, Control_c, 1, 7, 36
3, 236256, Control_c, 1, 7, 37
3, 236264, Control_c, 1, 7, 37
3, 236272, Control_c, 1, 7, 37
3, 236280, Control_c, 1, 7, 37
3, 236288, Control_c, 1, 7, 37
3, 236296, Control_c, 1, 7, 37
3, 236304, Control_c, 1, 7, 38
3, 236312, Control_c, 1, 7, 38
3, 236320, Control_c, 1, 7, 37
3, 236328, Control_c, 1, 7, 37
3, 236336, Control_c, 1, 7, 37
3, 236344, Control_c, 1, 7, 37
3, 236352, Control_c, 1, 7, 36
3, 236360, Control_c, 1, 7, 37
3, 236368, Control_c, 1, 7, 37
3, 236376, Control_c, 1, 7, 39
3, 236384, Control_c, 1, 7, 39
3, 236392, Control_c, 1, 7, 39
3, 236400, Control_c, 1, 7, 39
3, 236408, Control_c, 1, 7, 39
3, 236416, Control_c, 1, 7, 39
3, 236424, Control_c, 1, 7, 40
3, 236432, Control_c, 1, 7, 40
3, 236440, Control_c, 1, 7, 40
3, 236448, Control_c, 1, 7, 40
3, 236456, Control_c, 1, 7, 40
3, 236464, Control_c, 1, 7, 40
3, 236472, Control_c, 1, 7, 40
3, 236480, Control_c, 1, 7, 39
3, 236488, Control_c, 1, 7, 38
3, 236496, Control_c, 1, 7, 39
3, 236504, Control_c, 1, 7, 38
3, 236512, Control_c, 1, 7, 38
3, 236520, Control_c, 1, 7, 38
3, 236528, Control_c, 1, 7, 38
3, 236536, Control_c, 1, 7, 38
3, 236544, Control_c, 1, 7, 38
3, 236552, Control_c, 1, 7, 38
3, 236560, Control_c, 1, 7, 38
3, 236568, Control_c, 1, 7, 39
3, 236576, Control_c, 1, 7, 39
3, 236584, Control_c, 1, 7, 39
3, 236592, Control_c, 1, 7, 39
3, 236600, Control_c, 1, 7, 39
3, 236608, Control_c, 1, 7, 38
3, 236616, Control_c, 1, 7, 38
3, 236624, Control_c, 1, 7, 38
3, 236632, Control_c, 1, 7, 38
3, 236640, Control_c, 1, 7, 38
3, 236648, Control_c, 1, 7, 39
3, 236656, Control_c, 1, 7, 39
3, 236664, Control_c, 1, 7, 39
3, 236672, Control_c, 1, 7, 39
3, 236680, Control_c, 1, 7, 39
3, 236688, Control_c, 1, 7, 39
3, 236696, Control_c, 1, 7, 39
3, 236704, Control_c, 1, 7, 39
3, 236712, Control_c, 1, 7, 39
3, 236720, Control_c, 1, 7, 39
3, 236728, Control_c, 1, 7, 39
3, 236736, Control_c, 1, 7, 39
3, 236744, Control_c, 1, 7, 39
3, 236752, Control_c, 1, 7, 39
3, 236760, Control_c, 1, 7, 39
3, 236768, Control_c, 1, 7, 39
3, 236776, Control_c, 1, 7, 39
3, 236784, Control_c, 1, 7, 40
3, 236792, Control_c, 1, 7, 40
3, 236800, Control_c, 1, 7, 40
3, 236808, Control_c, 1, 7, 40
3, 236816, Control_c, 1, 7, 40
3, 236824, Control_c, 1, 7, 41
3, 236832, Control_c, 1, 7, 41
3, 236840, Control_c, 1, 7, 41
3, 236848, Control_c, 1, 7, 41
3, 236856, Control_c, 1, 7, 41
3, 236864, Control_c, 1, 7, 41
3, 236872, Control_c, 1, 7, 41
3, 236880, Control_c, 1, 7, 41
3, 236888, Control_c, 1, 7, 41
3, 236896, Control_c, 1, 7, 41
3, 236904, Control_c, 1, 7, 41
3, 236912, Control_c, 1, 7, 41
3, 236920, Control_c, 1, 7, 41
3, 236928, Control_c, 1, 7, 42
3, 236936, Control_c, 1, 7, 42
3, 236944, Control_c, 1, 7, 42
3, 236952, Control_c, 1, 7, 42
3, 236960, Control_c, 1, 7, 42
3, 236968, Control_c, 1, 7, 42
3, 236976, Control_c, 1, 7, 42
3, 236984, Control_c, 1, 7, 42
3, 236992, Control_c, 1, 7, 43
3, 237000, Control_c, 1, 7, 43
3, 237008, Control_c, 1, 7, 43
3, 237016, Control_c, 1, 7, 43
3, 237024, Control_c, 1, 7, 43
3, 237032, Control_c, 1, 7, 43
3, 237040, Control_c, 1, 7, 43
3, 237048, Control_c, 1, 7, 44
3, 237056, Control_c, 1, 7, 44
3, 237064, Control_c, 1, 7, 44
3, 237072, Control_c, 1, 7, 44
3, 237080, Control_c, 1, 7, 44
3, 237088, Control_c, 1, 7, 44
3, 237096, Control_c, 1, 7, 45
3, 237104, Control_c, 1, 7, 45
3, 237112, Control_c, 1, 7, 45
3, 237120, Control_c, 1, 7, 45
3, 237128, Control_c, 1, 7, 45
3, 237136, Control_c, 1, 7, 45
3, 237144, Control_c, 1, 7, 46
3, 237152, Control_c, 1, 7, 46
3, 237160, Control_c, 1, 7, 46
3, 237168, Control_c, 1, 7, 46
3, 237176, Control_c, 1, 7, 46
3, 237184, Control_c, 1, 7, 46
3, 237192, Control_c, 1, 7, 47
3, 237200, Control_c, 1, 7, 47
3, 237208, Control_c, 1, 7, 47
3, 237216, Control_c, 1, 7, 48
3, 237224, Control_c, 1, 7, 48
3, 237232, Control_c, 1, 7, 48
3, 237240, Control_c, 1, 7, 49
3, 237248, Control_c, 1, 7, 49
3, 237256, Control_c, 1, 7, 49
3, 237264, Control_c, 1, 7, 49
3, 237272, Control_c, 1, 7, 49
3, 237280, Control_c, 1, 7, 49
3, 237288, Control_c, 1, 7, 50
3, 237296, Control_c, 1, 7, 50
3, 237304, Control_c, 1, 7, 51
3, 237312, Control_c, 1, 7, 52
3, 237320, Control_c, 1, 7, 53
3, 237328, Control_c, 1, 7, 54
3, 237336, Control_c, 1, 7, 55
3, 237344, Control_c, 1, 7, 56
3, 237352, Control_c, 1, 7, 56
3, 237360, Control_c, 1, 7, 56
3, 237368, Control_c, 1, 7, 56
3, 237376, Control_c, 1, 7, 56
3, 237384, Control_c, 1, 7, 56
3, 237392, Control_c, 1, 7, 57
3, 237400, Control_c, 1, 7, 57
3, 237408, Control_c, 1, 7, 58
3, 237416, Control_c, 1, 7, 58
3, 237424, Control_c, 1, 7, 59
3, 237432, Control_c, 1, 7, 60
3, 237440, Control_c, 1, 7, 60
3, 237448, Control_c, 1, 7, 61
3, 237456, Control_c, 1, 7, 62
3, 237464, Control_c, 1, 7, 62
3, 237472, Control_c, 1, 7, 63
3, 237480, Control_c, 1, 7, 64
3, 237488, Control_c, 1, 7, 64
3, 237496, Control_c, 1, 7, 65
3, 237504, Control_c, 1, 7, 66
3, 237512, Control_c, 1, 7, 66
3, 237520, Control_c, 1, 7, 66
3, 237528, Control_c, 1, 7, 66
3, 237536, Control_c, 1, 7, 66
3, 237544, Control_c, 1, 7, 66
3, 237552, Control_c, 1, 7, 66
3, 237560, Control_c, 1, 7, 66
3, 237568, Control_c, 1, 7, 66
3, 237576, Control_c, 1, 7, 66
3, 237584, Control_c, 1, 7, 66
3, 237592, Control_c, 1, 7, 66
3, 237600, Control_c, 1, 7, 66
3, 237608, Control_c, 1, 7, 66
3, 237616, Control_c, 1, 7, 67
3, 237624, Control_c, 1, 7, 74
3, 237632, Control_c, 1, 7, 74
3, 237640, Control_c, 1, 7, 75
3, 237648, Control_c, 1, 7, 75
3, 237656, Control_c, 1, 7, 75
3, 237664, Control_c, 1, 7, 75
3, 237672, Control_c, 1, 7, 75
3, 237680, Control_c, 1, 7, 75
3, 237688, Control_c, 1, 7, 75
3, 237696, Control_c, 1, 7, 76
3, 237704, Control_c, 1, 7, 77
3, 237712, Control_c, 1, 7, 78
3, 237720, Control_c, 1, 7, 79
3, 237728, Control_c, 1, 7, 80
3, 237736, Control_c, 1, 7, 81
3, 237744, Control_c, 1, 7, 82
3, 237752, Control_c, 1, 7, 83
3, 237760, Control_c, 1, 7, 84
3, 237768, Control_c, 1, 7, 84
3, 237776, Control_c, 1, 7, 84
3, 237784, Control_c, 1, 7, 84
3, 237792, Control_c, 1, 7, 84
3, 237800, Control_c, 1, 7, 84
3, 237808, Control_c, 1, 7, 93
3, 237816, Control_c, 1, 7, 94
3, 237824, Control_c, 1, 7, 95
3, 237832, Control_c, 1, 7, 96
3, 237840, Control_c, 1, 7, 97
3, 237848, Control_c, 1, 7, 99
3, 237856, Control_c, 1, 7, 100
3, 237864, Control_c, 1, 7, 101
3, 237872, Control_c, 1, 7, 102
3, 237880, Control_c, 1, 7, 104
3, 237888, Control_c, 1, 7, 105
3, 237896, Control_c, 1, 7, 105
3, 237904, Control_c, 1, 7, 105
3, 237912, Control_c, 1, 7, 106
3, 237920, Control_c, 1, 7, 106
3, 237928, Control_c, 1, 7, 107
3, 237936, Control_c, 1, 7, 110
3, 237944, Control_c, 1, 7, 111
3, 237952, Control_c, 1, 7, 111
3, 237960, Control_c, 1, 7, 111
3, 237968, Control_c, 1, 7, 111
3, 237976, Control_c, 1, 7, 111
3, 237984, Control_c, 1, 7, 112
3, 237992, Control_c, 1, 7, 112
3, 238000, Control_c, 1, 7, 114
3, 238008, Control_c, 1, 7, 114
3, 238016, Control_c, 1, 7, 114
3, 238024, Control_c, 1, 7, 114
3, 238032, Control_c, 1, 7, 114
3, 238040, Control_c, 1, 7, 116
3, 238048, Control_c, 1, 7, 117
3, 238056, Control_c, 1, 7, 117
3, 238064, Control_c, 1, 7, 120
3, 238072, Control_c, 1, 7, 120
3, 238080, Note_on_c, 1, 79, 48
3, 238080, Control_c, 1, 7, 120
3, 238082, Note_on_c, 1, 82, 0
3, 238088, Control_c, 1, 7, 120
3, 238096, Control_c, 1, 7, 120
3, 238104, Control_c, 1, 7, 121
3, 238112, Control_c, 1, 7, 121
3, 238120, Control_c, 1, 7, 121
3, 238128, Control_c, 1, 7, 121
3, 238136, Control_c, 1, 7, 121
3, 238144, Control_c, 1, 7, 122
3, 238152, Control_c, 1, 7, 124
3, 238160, Control_c, 1, 7, 124
3, 238168, Control_c, 1, 7, 125
3, 238176, Control_c, 1, 7, 125
3, 238184, Control_c, 1, 7, 124
3, 238192, Control_c, 1, 7, 121
3, 238200, Note_on_c, 1, 79, 0
3, 238200, Control_c, 1, 7, 121
3, 238208, Control_c, 1, 7, 117
3, 238216, Control_c, 1, 7, 114
3, 238224, Control_c, 1, 7, 113
3, 238232, Control_c, 1, 7, 112
3, 238240, Control_c, 1, 7, 107
3, 238248, Control_c, 1, 7, 107
3, 238256, Control_c, 1, 7, 105
3, 238264, Control_c, 1, 7, 103
3, 238272, Control_c, 1, 7, 103
3, 238320, Note_on_c, 1, 82, 59
3, 238320, Note_on_c, 1, 79, 55
3, 238786, Note_on_c, 1, 79, 0
3, 238786, Note_on_c, 1, 82, 0
3, 238800, Note_on_c, 1, 82, 56
3, 238800, Note_on_c, 1, 79, 52
3, 238884, Note_on_c, 1, 79, 0
3, 238886, Note_on_c, 1, 82, 0
3, 239040, Note_on_c, 1, 82, 46
3, 239040, Note_on_c, 1, 79, 43
3, 239726, Note_on_c, 1, 79, 0
3, 239730, Note_on_c, 1, 82, 0
3, 240000, Note_on_c, 1, 82, 68
3, 240000, Note_on_c, 1, 79, 61
3, 240044, Note_on_c, 1, 82, 0
3, 240056, Note_on_c, 1, 79, 0
3, 240240, Note_on_c, 1, 82, 61
3, 240240, Note_on_c, 1, 79, 57
3, 240542, Note_on_c, 1, 79, 0
3, 240550, Note_on_c, 1, 82, 0
3, 240720, Note_on_c, 1, 82, 61
3, 240720, Note_on_c, 1, 79, 56
3, 240806, Note_on_c, 1, 79, 0
3, 240812, Note_on_c, 1, 82, 0
3, 240960, Note_on_c, 1, 82, 48
3, 240960, Note_on_c, 1, 79, 43
3, 241710, Note_on_c, 1, 79, 0
3, 241712, Note_on_c, 1, 82, 0
3, 241920, Note_on_c, 1, 82, 78
3, 241920, Note_on_c, 1, 79, 66
3, 242240, Note_on_c, 1, 79, 0
3, 242240, Note_on_c, 1, 82, 0
3, 242400, Note_on_c, 1, 82, 61
3, 242400, Note_on_c, 1, 79, 54
3, 242474, Note_on_c, 1, 79, 0
3, 242476, Note_on_c, 1, 82, 0
3, 242640, Note_on_c, 1, 82, 61
3, 242640, Note_on_c, 1, 79, 53
3, 242716, Note_on_c, 1, 82, 0
3, 242730, Note_on_c, 1, 79, 0
3, 242880, Note_on_c, 1, 84, 66
3, 242880, Note_on_c, 1, 80, 63
3, 243264, Note_on_c, 1, 80, 0
3, 243264, Note_on_c, 1, 84, 0
3, 243360, Note_on_c, 1, 84, 60
3, 243360, Note_on_c, 1, 80, 56
3, 243468, Note_on_c, 1, 80, 0
3, 243468, Note_on_c, 1, 84, 0
3, 243600, Note_on_c, 1, 84, 55
3, 243600, Note_on_c, 1, 80, 53
3, 243708, Note_on_c, 1, 80, 0
3, 243708, Note_on_c, 1, 84, 0
3, 243840, Note_on_c, 1, 80, 64
3, 243840, Note_on_c, 1, 77, 59
3, 244272, Note_on_c, 1, 77, 0
3, 244272, Note_on_c, 1, 80, 0
3, 244320, Note_on_c, 1, 80, 53
3, 244320, Note_on_c, 1, 77, 51
3, 244428, Note_on_c, 1, 77, 0
3, 244428, Note_on_c, 1, 80, 0
3, 244560, Note_on_c, 1, 80, 59
3, 244560, Note_on_c, 1, 77, 53
3, 244668, Note_on_c, 1, 77, 0
3, 244668, Note_on_c, 1, 80, 0
3, 244800, Note_on_c, 1, 79, 63
3, 244800, Note_on_c, 1, 75, 67
3, 244908, Note_on_c, 1, 75, 0
3, 244908, Note_on_c, 1, 79, 0
3, 245760, Note_on_c, 1, 79, 38
3, 245760, Note_on_c, 1, 70, 28
3, 246036, Note_on_c, 1, 70, 0
3, 246064, Note_on_c, 1, 79, 0
3, 246240, Note_on_c, 1, 79, 36
3, 246240, Note_on_c, 1, 70, 32
3, 246306, Note_on_c, 1, 70, 0
3, 246324, Note_on_c, 1, 79, 0
3, 246480, Note_on_c, 1, 79, 39
3, 246480, Note_on_c, 1, 70, 35
3, 246526, Note_on_c, 1, 70, 0
3, 246564, Note_on_c, 1, 79, 0
3, 246720, Note_on_c, 1, 77, 25
3, 246720, Note_on_c, 1, 82, 31
3, 246990, Note_on_c, 1, 82, 0
3, 247012, Note_on_c, 1, 77, 0
3, 247200, Note_on_c, 1, 74, 40
3, 247200, Note_on_c, 1, 77, 41
3, 247276, Note_on_c, 1, 74, 0
3, 247282, Note_on_c, 1, 77, 0
3, 247440, Note_on_c, 1, 77, 44
3, 247440, Note_on_c, 1, 74, 38
3, 247502, Note_on_c, 1, 77, 0
3, 247526, Note_on_c, 1, 74, 0
3, 247680, Note_on_c, 1, 74, 41
3, 247680, Note_on_c, 1, 77, 44
3, 247800, Note_on_c, 1, 74, 0
3, 247920, Note_on_c, 1, 72, 36
3, 247920, Note_on_c, 1, 75, 47
3, 247922, Note_on_c, 1, 77, 0
3, 247966, Note_on_c, 1, 72, 0
3, 247996, Note_on_c, 1, 75, 0
3, 248160, Note_on_c, 1, 75, 44
3, 248160, Note_on_c, 1, 84, 44
3, 248210, Note_on_c, 1, 75, 0
3, 248226, Note_on_c, 1, 84, 0
3, 248400, Note_on_c, 1, 72, 41
3, 248400, Note_on_c, 1, 81, 47
3, 248464, Note_on_c, 1, 72, 0
3, 248474, Note_on_c, 1, 81, 0
3, 248640, Note_on_c, 1, 74, 29
3, 248640, Note_on_c, 1, 82, 41
3, 248640, Note_on_c, 1, 70, 41
3, 248740, Note_on_c, 1, 74, 0
3, 257384, Note_on_c, 1, 82, 0
3, 257390, Note_on_c, 1, 70, 0
3, 257520, Note_on_c, 1, 82, 73
3, 257520, Note_on_c, 1, 70, 70
3, 257812, Note_on_c, 1, 70, 0
3, 257826, Note_on_c, 1, 82, 0
3, 258000, Note_on_c, 1, 70, 59
3, 258000, Note_on_c, 1, 82, 61
3, 258300, Note_on_c, 1, 70, 0
3, 258304, Note_on_c, 1, 82, 0
3, 258480, Note_on_c, 1, 70, 58
3, 258480, Note_on_c, 1, 82, 61
3, 258762, Note_on_c, 1, 70, 0
3, 258766, Note_on_c, 1, 82, 0
3, 258960, Note_on_c, 1, 70, 55
3, 258960, Note_on_c, 1, 82, 62
3, 259202, Note_on_c, 1, 70, 0
3, 259206, Note_on_c, 1, 82, 0
3, 259440, Note_on_c, 1, 70, 54
3, 259440, Note_on_c, 1, 82, 54
3, 259716, Note_on_c, 1, 70, 0
3, 259722, Note_on_c, 1, 82, 0
3, 259920, Note_on_c, 1, 70, 53
3, 259920, Note_on_c, 1, 82, 57
3, 260172, Note_on_c, 1, 70, 0
3, 260174, Note_on_c, 1, 82, 0
3, 260400, Note_on_c, 1, 70, 61
3, 260400, Note_on_c, 1, 82, 66
3, 260674, Note_on_c, 1, 70, 0
3, 260692, Note_on_c, 1, 82, 0
3, 260880, Note_on_c, 1, 82, 61
3, 260880, Note_on_c, 1, 70, 57
3, 261122, Note_on_c, 1, 70, 0
3, 261142, Note_on_c, 1, 82, 0
3, 261360, Note_on_c, 1, 70, 54
3, 261360, Note_on_c, 1, 82, 61
3, 261616, Note_on_c, 1, 70, 0
3, 261644, Note_on_c, 1, 82, 0
3, 261840, Note_on_c, 1, 82, 67
3, 261840, Note_on_c, 1, 70, 61
3, 262100, Note_on_c, 1, 70, 0
3, 262112, Note_on_c, 1, 82, 0
3, 262320, Note_on_c, 1, 70, 64
3, 262320, Note_on_c, 1, 82, 65
3, 262572, Note_on_c, 1, 70, 0
3, 262596, Note_on_c, 1, 82, 0
3, 262800, Note_on_c, 1, 82, 71
3, 262800, Note_on_c, 1, 70, 64
3, 263042, Note_on_c, 1, 70, 0
3, 263046, Note_on_c, 1, 82, 0
3, 263280, Note_on_c, 1, 70, 60
3, 263280, Note_on_c, 1, 82, 66
3, 263512, Note_on_c, 1, 70, 0
3, 263530, Note_on_c, 1, 82, 0
3, 263760, Note_on_c, 1, 82, 61
3, 263760, Note_on_c, 1, 70, 60
3, 264002, Note_on_c, 1, 82, 0
3, 264010, Note_on_c, 1, 70, 0
3, 264240, Note_on_c, 1, 70, 57
3, 264240, Note_on_c, 1, 82, 59
3, 264460, Note_on_c, 1, 70, 0
3, 264480, Note_on_c, 1, 82, 0
3, 264720, Note_on_c, 1, 82, 56
3, 264720, Note_on_c, 1, 70, 54
3, 264972, Note_on_c, 1, 70, 0
3, 264990, Note_on_c, 1, 82, 0
3, 265200, Note_on_c, 1, 70, 56
3, 265200, Note_on_c, 1, 82, 59
3, 265482, Note_on_c, 1, 70, 0
3, 265506, Note_on_c, 1, 82, 0
3, 265680, Note_on_c, 1, 70, 48
3, 265680, Note_on_c, 1, 82, 58
3, 265952, Note_on_c, 1, 70, 0
3, 265954, Note_on_c, 1, 82, 0
3, 266160, Note_on_c, 1, 70, 61
3, 266160, Note_on_c, 1, 82, 64
3, 266396, Note_on_c, 1, 70, 0
3, 266420, Note_on_c, 1, 82, 0
3, 266640, Note_on_c, 1, 70, 56
3, 266640, Note_on_c, 1, 82, 65
3, 266886, Note_on_c, 1, 70, 0
3, 266892, Note_on_c, 1, 82, 0
3, 267120, Note_on_c, 1, 70, 51
3, 267120, Note_on_c, 1, 82, 54
3, 267376, Note_on_c, 1, 70, 0
3, 267392, Note_on_c, 1, 82, 0
3, 267600, Note_on_c, 1, 82, 56
3, 267600, Note_on_c, 1, 70, 50
3, 267856, Note_on_c, 1, 70, 0
3, 267872, Note_on_c, 1, 82, 0
3, 268080, Note_on_c, 1, 82, 53
3, 268080, Note_on_c, 1, 70, 48
3, 268316, Note_on_c, 1, 70, 0
3, 268332, Note_on_c, 1, 82, 0
3, 268560, Note_on_c, 1, 82, 63
3, 268560, Note_on_c, 1, 70, 55
3, 268792, Note_on_c, 1, 70, 0
3, 268812, Note_on_c, 1, 82, 0
3, 269040, Note_on_c, 1, 70, 51
3, 269040, Note_on_c, 1, 82, 58
3, 269286, Note_on_c, 1, 70, 0
3, 269296, Note_on_c, 1, 82, 0
3, 269520, Note_on_c, 1, 82, 65
3, 269520, Note_on_c, 1, 70, 60
3, 269776, Note_on_c, 1, 70, 0
3, 269780, Note_on_c, 1, 82, 0
3, 270000, Note_on_c, 1, 70, 56
3, 270000, Note_on_c, 1, 82, 61
3, 270226, Note_on_c, 1, 70, 0
3, 270246, Note_on_c, 1, 82, 0
3, 270480, Note_on_c, 1, 82, 51
3, 270480, Note_on_c, 1, 70, 46
3, 270690, Note_on_c, 1, 70, 0
3, 270706, Note_on_c, 1, 82, 0
3, 270960, Note_on_c, 1, 70, 51
3, 270960, Note_on_c, 1, 82, 56
3, 271200, Note_on_c, 1, 70, 0
3, 271216, Note_on_c, 1, 82, 0
3, 271440, Note_on_c, 1, 82, 51
3, 271440, Note_on_c, 1, 70, 46
3, 271680, Note_on_c, 1, 70, 0
3, 271682, Note_on_c, 1, 82, 0
3, 271920, Note_on_c, 1, 70, 53
3, 271920, Note_on_c, 1, 82, 61
3, 272140, Note_on_c, 1, 70, 0
3, 272172, Note_on_c, 1, 82, 0
3, 272400, Note_on_c, 1, 82, 63
3, 272400, Note_on_c, 1, 70, 56
3, 272634, Note_on_c, 1, 70, 0
3, 272646, Note_on_c, 1, 82, 0
3, 272880, Note_on_c, 1, 70, 53
3, 272880, Note_on_c, 1, 82, 62
3, 273100, Note_on_c, 1, 70, 0
3, 273132, Note_on_c, 1, 82, 0
3, 273360, Note_on_c, 1, 70, 56
3, 273360, Note_on_c, 1, 82, 72
3, 273430, Note_on_c, 1, 70, 0
3, 273480, Note_on_c, 1, 80, 61
3, 273600, Note_on_c, 1, 77, 75
3, 273606, Note_on_c, 1, 82, 0
3, 273624, Note_on_c, 1, 80, 0
3, 273634, Note_on_c, 1, 77, 0
3, 273840, Note_on_c, 1, 80, 82
3, 273840, Note_on_c, 1, 77, 73
3, 274100, Note_on_c, 1, 77, 0
3, 274102, Note_on_c, 1, 80, 0
3, 274320, Note_on_c, 1, 80, 66
3, 274320, Note_on_c, 1, 77, 62
3, 274386, Note_on_c, 1, 77, 0
3, 274390, Note_on_c, 1, 80, 0
3, 274800, Note_on_c, 1, 80, 57
3, 274800, Note_on_c, 1, 77, 55
3, 275022, Note_on_c, 1, 80, 0
3, 275026, Note_on_c, 1, 77, 0
3, 275280, Note_on_c, 1, 80, 54
3, 275280, Note_on_c, 1, 77, 57
3, 275580, Note_on_c, 1, 80, 0
3, 275584, Note_on_c, 1, 77, 0
3, 275760, Note_on_c, 1, 77, 62
3, 275760, Note_on_c, 1, 80, 61
3, 276026, Note_on_c, 1, 77, 0
3, 276030, Note_on_c, 1, 80, 0
3, 276240, Note_on_c, 1, 80, 57
3, 276240, Note_on_c, 1, 77, 60
3, 276532, Note_on_c, 1, 80, 0
3, 276540, Note_on_c, 1, 77, 0
3, 276720, Note_on_c, 1, 77, 68
3, 276720, Note_on_c, 1, 80, 67
3, 276966, Note_on_c, 1, 77, 0
3, 276972, Note_on_c, 1, 80, 0
3, 277200, Note_on_c, 1, 77, 57
3, 277200, Note_on_c, 1, 80, 58
3, 277276, Note_on_c, 1, 80, 0
3, 277282, Note_on_c, 1, 77, 0
3, 277440, Note_on_c, 1, 79, 68
3, 277440, Note_on_c, 1, 75, 75
3, 277500, Note_on_c, 1, 79, 0
3, 277502, Note_on_c, 1, 75, 0
3, 277680, Note_on_c, 1, 75, 44
3, 277680, Note_on_c, 1, 79, 68
3, 277680, Note_on_c, 1, 82, 72
3, 277750, Note_on_c, 1, 75, 0
3, 277946, Note_on_c, 1, 79, 0
3, 277980, Note_on_c, 1, 82, 0
3, 278160, Note_on_c, 1, 75, 66
3, 278160, Note_on_c, 1, 79, 73
3, 278224, Note_on_c, 1, 75, 0
3, 278260, Note_on_c, 1, 79, 0
3, 278400, Note_on_c, 1, 82, 67
3, 278400, Note_on_c, 1, 79, 66
3, 279190, Note_on_c, 1, 82, 0
3, 279196, Note_on_c, 1, 79, 0
3, 279360, Note_on_c, 1, 79, 76
3, 279360, Note_on_c, 1, 82, 84
3, 279420, Note_on_c, 1, 79, 0
3, 279442, Note_on_c, 1, 82, 0
3, 279600, Note_on_c, 1, 82, 71
3, 279600, Note_on_c, 1, 79, 73
3, 279890, Note_on_c, 1, 82, 0
3, 279900, Note_on_c, 1, 79, 0
3, 280080, Note_on_c, 1, 75, 64
3, 280080, Note_on_c, 1, 79, 71
3, 280154, Note_on_c, 1, 75, 0
3, 280176, Note_on_c, 1, 79, 0
3, 280320, Note_on_c, 1, 82, 75
3, 280320, Note_on_c, 1, 79, 73
3, 280992, Note_on_c, 1, 79, 0
3, 281012, Note_on_c, 1, 82, 0
3, 281160, Note_on_c, 1, 79, 73
3, 281218, Note_on_c, 1, 79, 0
3, 281220, Note_on_c, 1, 80, 73
3, 281278, Note_on_c, 1, 80, 0
3, 281280, Note_on_c, 1, 79, 66
3, 281280, Note_on_c, 1, 82, 85
3, 281730, Note_on_c, 1, 82, 0
3, 281730, Note_on_c, 1, 79, 0
3, 281760, Note_on_c, 1, 79, 68
3, 281760, Note_on_c, 1, 82, 79
3, 281830, Note_on_c, 1, 79, 0
3, 281834, Note_on_c, 1, 82, 0
3, 282000, Note_on_c, 1, 79, 68
3, 282000, Note_on_c, 1, 82, 79
3, 282070, Note_on_c, 1, 79, 0
3, 282074, Note_on_c, 1, 82, 0
3, 282240, Note_on_c, 1, 84, 83
3, 282240, Note_on_c, 1, 80, 78
3, 282524, Note_on_c, 1, 80, 0
3, 282546, Note_on_c, 1, 84, 0
3, 282720, Note_on_c, 1, 80, 67
3, 282720, Note_on_c, 1, 84, 76
3, 282782, Note_on_c, 1, 80, 0
3, 282816, Note_on_c, 1, 84, 0
3, 282960, Note_on_c, 1, 84, 73
3, 282960, Note_on_c, 1, 80, 71
3, 283026, Note_on_c, 1, 80, 0
3, 283050, Note_on_c, 1, 84, 0
3, 283200, Note_on_c, 1, 80, 79
3, 283200, Note_on_c, 1, 77, 68
3, 283650, Note_on_c, 1, 77, 0
3, 283650, Note_on_c, 1, 80, 0
3, 283680, Note_on_c, 1, 77, 70
3, 283680, Note_on_c, 1, 80, 75
3, 283754, Note_on_c, 1, 80, 0
3, 283754, Note_on_c, 1, 77, 0
3, 283920, Note_on_c, 1, 80, 79
3, 283920, Note_on_c, 1, 77, 69
3, 283990, Note_on_c, 1, 77, 0
3, 283994, Note_on_c, 1, 80, 0
3, 284160, Note_on_c, 1, 79, 80
3, 284160, Note_on_c, 1, 75, 89
3, 284230, Note_on_c, 1, 75, 0
3, 284264, Note_on_c, 1, 79, 0
3, 285000, Note_on_c, 1, 79, 73
3, 285058, Note_on_c, 1, 79, 0
3, 285060, Note_on_c, 1, 80, 73
3, 285118, Note_on_c, 1, 80, 0
3, 285120, Note_on_c, 1, 82, 85
3, 285120, Note_on_c, 1, 79, 66
3, 285570, Note_on_c, 1, 79, 0
3, 285570, Note_on_c, 1, 82, 0
3, 285600, Note_on_c, 1, 79, 68
3, 285600, Note_on_c, 1, 82, 79
3, 285670, Note_on_c, 1, 79, 0
3, 285674, Note_on_c, 1, 82, 0
3, 285840, Note_on_c, 1, 82, 79
3, 285840, Note_on_c, 1, 79, 68
3, 285910, Note_on_c, 1, 79, 0
3, 285914, Note_on_c, 1, 82, 0
3, 286080, Note_on_c, 1, 84, 83
3, 286080, Note_on_c, 1, 80, 78
3, 286364, Note_on_c, 1, 80, 0
3, 286386, Note_on_c, 1, 84, 0
3, 286560, Note_on_c, 1, 80, 67
3, 286560, Note_on_c, 1, 84, 76
3, 286622, Note_on_c, 1, 80, 0
3, 286656, Note_on_c, 1, 84, 0
3, 286800, Note_on_c, 1, 84, 73
3, 286800, Note_on_c, 1, 80, 71
3, 286866, Note_on_c, 1, 80, 0
3, 286890, Note_on_c, 1, 84, 0
3, 287040, Note_on_c, 1, 77, 64
3, 287040, Note_on_c, 1, 80, 78
3, 287316, Note_on_c, 1, 80, 0
3, 287320, Note_on_c, 1, 77, 0
3, 287520, Note_on_c, 1, 80, 77
3, 287520, Note_on_c, 1, 77, 70
3, 287590, Note_on_c, 1, 77, 0
3, 287590, Note_on_c, 1, 80, 0
3, 287760, Note_on_c, 1, 77, 69
3, 287760, Note_on_c, 1, 80, 77
3, 287834, Note_on_c, 1, 80, 0
3, 287836, Note_on_c, 1, 77, 0
3, 288000, Note_on_c, 1, 63, 61
3, 288000, Note_on_c, 1, 75, 79
3, 290400, Note_on_c, 1, 75, 0
3, 290400, Note_on_c, 1, 63, 0
3, 290400, Note_on_c, 1, 64, 50
3, 290400, Note_on_c, 1, 76, 39
3, 290880, Note_on_c, 1, 76, 0
3, 290880, Note_on_c, 1, 64, 0
3, 290880, Note_on_c, 1, 65, 52
3, 290880, Note_on_c, 1, 77, 38
3, 291360, Note_on_c, 1, 77, 0
3, 291360, Note_on_c, 1, 65, 0
3, 291840, Note_on_c, 1, 77, 79
3, 291840, Note_on_c, 1, 65, 61
3, 294240, Note_on_c, 1, 65, 0
3, 294240, Note_on_c, 1, 77, 0
3, 294240, Note_on_c, 1, 78, 79
3, 294240, Note_on_c, 1, 66, 61
3, 294720, Note_on_c, 1, 66, 0
3, 294720, Note_on_c, 1, 78, 0
3, 294720, Note_on_c, 1, 67, 52
3, 294720, Note_on_c, 1, 79, 38
3, 295200, Note_on_c, 1, 79, 0
3, 295200, Note_on_c, 1, 67, 0
3, 295680, Note_on_c, 1, 79, 66
3, 296530, Note_on_c, 1, 79, 0
3, 296640, Note_on_c, 1, 75, 59
3, 297440, Note_on_c, 1, 75, 0
3, 297600, Note_on_c, 1, 72, 55
3, 298356, Note_on_c, 1, 72, 0
3, 298560, Note_on_c, 1, 69, 53
3, 298560, Note_on_c, 1, 81, 62
3, 299460, Note_on_c, 1, 81, 0
3, 299460, Note_on_c, 1, 69, 0
3, 299520, Note_on_c, 1, 70, 56
3, 299520, Note_on_c, 1, 82, 68
3, 299712, Note_on_c, 1, 70, 0
3, 299744, Note_on_c, 1, 82, 0
3, 300000, Note_on_c, 1, 74, 53
3, 300000, Note_on_c, 1, 77, 58
3, 300216, Note_on_c, 1, 74, 0
3, 300240, Note_on_c, 1, 77, 0
3, 300480, Note_on_c, 1, 75, 64
3, 300480, Note_on_c, 1, 79, 63
3, 300660, Note_on_c, 1, 75, 0
3, 300666, Note_on_c, 1, 79, 0
3, 300960, Note_on_c, 1, 75, 61
3, 300960, Note_on_c, 1, 79, 60
3, 301186, Note_on_c, 1, 75, 0
3, 301226, Note_on_c, 1, 79, 0
3, 301440, Note_on_c, 1, 74, 47
3, 301440, Note_on_c, 1, 77, 60
3, 301546, Note_on_c, 1, 74, 0
3, 301556, Note_on_c, 1, 77, 0
3, 301680, Note_on_c, 1, 82, 99
3, 301760, Note_on_c, 1, 82, 0
3, 301920, Note_on_c, 1, 82, 89
3, 301990, Note_on_c, 1, 82, 0
3, 302160, Note_on_c, 1, 82, 78
3, 302242, Note_on_c, 1, 82, 0
3, 302400, Note_on_c, 1, 84, 70
3, 302640, Note_on_c, 1, 82, 87
3, 302646, Note_on_c, 1, 84, 0
3, 302732, Note_on_c, 1, 82, 0
3, 302880, Note_on_c, 1, 79, 72
3, 302956, Note_on_c, 1, 79, 0
3, 303120, Note_on_c, 1, 75, 99
3, 303196, Note_on_c, 1, 75, 0
3, 303360, Note_on_c, 1, 70, 95
3, 303470, Note_on_c, 1, 70, 0
3, 303840, Note_on_c, 1, 74, 43
3, 303840, Note_on_c, 1, 77, 55
3, 304066, Note_on_c, 1, 77, 0
3, 304066, Note_on_c, 1, 74, 0
3, 304320, Note_on_c, 1, 75, 64
3, 304320, Note_on_c, 1, 79, 60
3, 304510, Note_on_c, 1, 75, 0
3, 304516, Note_on_c, 1, 79, 0
3, 304800, Note_on_c, 1, 75, 62
3, 304800, Note_on_c, 1, 79, 63
3, 305062, Note_on_c, 1, 79, 0
3, 305070, Note_on_c, 1, 75, 0
3, 305280, Note_on_c, 1, 74, 51
3, 305280, Note_on_c, 1, 77, 59
3, 305324, Note_on_c, 1, 77, 0
3, 305324, Note_on_c, 1, 74, 0
3, 305520, Note_on_c, 1, 82, 104
3, 305594, Note_on_c, 1, 82, 0
3, 305760, Note_on_c, 1, 82, 97
3, 305836, Note_on_c, 1, 82, 0
3, 306000, Note_on_c, 1, 82, 84
3, 306090, Note_on_c, 1, 82, 0
3, 306240, Note_on_c, 1, 84, 81
3, 306462, Note_on_c, 1, 84, 0
3, 306480, Note_on_c, 1, 82, 85
3, 306576, Note_on_c, 1, 82, 0
3, 306720, Note_on_c, 1, 79, 53
3, 306796, Note_on_c, 1, 79, 0
3, 306960, Note_on_c, 1, 75, 80
3, 307152, Note_on_c, 1, 75, 0
3, 307200, Note_on_c, 1, 70, 91
3, 307296, Note_on_c, 1, 70, 0
3, 307664, Control_c, 1, 7, 102
3, 307672, Control_c, 1, 7, 102
3, 307680, Note_on_c, 1, 79, 38
3, 307680, Control_c, 1, 7, 102
3, 307680, Note_on_c, 1, 67, 37
3, 307688, Control_c, 1, 7, 102
3, 307696, Control_c, 1, 7, 102
3, 307704, Control_c, 1, 7, 102
3, 307712, Control_c, 1, 7, 102
3, 307720, Control_c, 1, 7, 102
3, 307728, Control_c, 1, 7, 102
3, 307736, Control_c, 1, 7, 102
3, 307744, Control_c, 1, 7, 102
3, 307752, Control_c, 1, 7, 102
3, 307760, Control_c, 1, 7, 102
3, 307768, Control_c, 1, 7, 102
3, 307776, Control_c, 1, 7, 102
3, 307784, Control_c, 1, 7, 102
3, 307792, Control_c, 1, 7, 102
3, 307800, Control_c, 1, 7, 102
3, 307808, Control_c, 1, 7, 102
3, 307816, Control_c, 1, 7, 102
3, 307824, Control_c, 1, 7, 101
3, 307832, Control_c, 1, 7, 101
3, 307840, Control_c, 1, 7, 101
3, 307848, Control_c, 1, 7, 101
3, 307856, Control_c, 1, 7, 101
3, 307864, Control_c, 1, 7, 101
3, 307872, Control_c, 1, 7, 101
3, 307880, Control_c, 1, 7, 101
3, 307888, Control_c, 1, 7, 101
3, 307896, Control_c, 1, 7, 101
3, 307904, Control_c, 1, 7, 100
3, 307912, Control_c, 1, 7, 99
3, 307920, Control_c, 1, 7, 99
3, 307928, Control_c, 1, 7, 99
3, 307936, Control_c, 1, 7, 99
3, 307944, Control_c, 1, 7, 99
3, 307952, Control_c, 1, 7, 98
3, 307960, Control_c, 1, 7, 98
3, 307968, Control_c, 1, 7, 98
3, 307976, Control_c, 1, 7, 98
3, 307984, Control_c, 1, 7, 98
3, 307992, Control_c, 1, 7, 97
3, 308000, Control_c, 1, 7, 97
3, 308008, Control_c, 1, 7, 97
3, 308016, Control_c, 1, 7, 97
3, 308024, Control_c, 1, 7, 97
3, 308032, Control_c, 1, 7, 97
3, 308040, Control_c, 1, 7, 96
3, 308048, Control_c, 1, 7, 96
3, 308056, Control_c, 1, 7, 96
3, 308064, Control_c, 1, 7, 96
3, 308072, Control_c, 1, 7, 96
3, 308080, Control_c, 1, 7, 97
3, 308088, Control_c, 1, 7, 97
3, 308096, Control_c, 1, 7, 96
3, 308104, Control_c, 1, 7, 96
3, 308112, Control_c, 1, 7, 95
3, 308120, Control_c, 1, 7, 95
3, 308128, Control_c, 1, 7, 94
3, 308136, Control_c, 1, 7, 94
3, 308144, Control_c, 1, 7, 93
3, 308152, Control_c, 1, 7, 92
3, 308160, Control_c, 1, 7, 92
3, 308168, Control_c, 1, 7, 92
3, 308176, Control_c, 1, 7, 92
3, 308184, Control_c, 1, 7, 92
3, 308192, Control_c, 1, 7, 92
3, 308200, Control_c, 1, 7, 92
3, 308208, Control_c, 1, 7, 92
3, 308216, Control_c, 1, 7, 92
3, 308224, Control_c, 1, 7, 93
3, 308232, Control_c, 1, 7, 92
3, 308240, Control_c, 1, 7, 92
3, 308248, Control_c, 1, 7, 92
3, 308256, Control_c, 1, 7, 92
3, 308264, Control_c, 1, 7, 92
3, 308272, Control_c, 1, 7, 92
3, 308280, Control_c, 1, 7, 91
3, 308288, Control_c, 1, 7, 86
3, 308296, Control_c, 1, 7, 87
3, 308304, Control_c, 1, 7, 87
3, 308312, Control_c, 1, 7, 87
3, 308320, Control_c, 1, 7, 87
3, 308328, Control_c, 1, 7, 87
3, 308336, Control_c, 1, 7, 86
3, 308344, Control_c, 1, 7, 85
3, 308352, Control_c, 1, 7, 80
3, 308360, Control_c, 1, 7, 80
3, 308368, Control_c, 1, 7, 80
3, 308376, Control_c, 1, 7, 80
3, 308384, Control_c, 1, 7, 80
3, 308392, Control_c, 1, 7, 80
3, 308400, Control_c, 1, 7, 80
3, 308408, Control_c, 1, 7, 80
3, 308416, Control_c, 1, 7, 80
3, 308424, Control_c, 1, 7, 81
3, 308432, Control_c, 1, 7, 80
3, 308440, Control_c, 1, 7, 79
3, 308448, Control_c, 1, 7, 79
3, 308456, Control_c, 1, 7, 79
3, 308464, Control_c, 1, 7, 79
3, 308472, Control_c, 1, 7, 79
3, 308480, Control_c, 1, 7, 79
3, 308488, Control_c, 1, 7, 78
3, 308496, Control_c, 1, 7, 78
3, 308504, Control_c, 1, 7, 77
3, 308512, Control_c, 1, 7, 77
3, 308520, Control_c, 1, 7, 77
3, 308528, Control_c, 1, 7, 77
3, 308536, Control_c, 1, 7, 77
3, 308544, Control_c, 1, 7, 76
3, 308552, Control_c, 1, 7, 76
3, 308560, Control_c, 1, 7, 76
3, 308568, Control_c, 1, 7, 76
3, 308576, Control_c, 1, 7, 76
3, 308584, Control_c, 1, 7, 74
3, 308592, Control_c, 1, 7, 74
3, 308600, Control_c, 1, 7, 74
3, 308608, Control_c, 1, 7, 73
3, 308616, Control_c, 1, 7, 73
3, 308624, Control_c, 1, 7, 73
3, 308632, Control_c, 1, 7, 72
3, 308640, Control_c, 1, 7, 72
3, 308648, Control_c, 1, 7, 72
3, 308656, Control_c, 1, 7, 71
3, 308664, Control_c, 1, 7, 71
3, 308672, Control_c, 1, 7, 71
3, 308680, Control_c, 1, 7, 70
3, 308688, Control_c, 1, 7, 70
3, 308696, Control_c, 1, 7, 70
3, 308704, Control_c, 1, 7, 69
3, 308712, Control_c, 1, 7, 69
3, 308720, Control_c, 1, 7, 68
3, 308728, Control_c, 1, 7, 68
3, 308736, Control_c, 1, 7, 68
3, 308744, Control_c, 1, 7, 68
3, 308752, Control_c, 1, 7, 68
3, 308760, Control_c, 1, 7, 68
3, 308768, Control_c, 1, 7, 68
3, 308776, Control_c, 1, 7, 68
3, 308784, Control_c, 1, 7, 68
3, 308792, Control_c, 1, 7, 68
3, 308800, Control_c, 1, 7, 67
3, 308808, Control_c, 1, 7, 67
3, 308816, Control_c, 1, 7, 67
3, 308824, Control_c, 1, 7, 67
3, 308832, Control_c, 1, 7, 67
3, 308840, Control_c, 1, 7, 67
3, 308848, Control_c, 1, 7, 67
3, 308856, Control_c, 1, 7, 67
3, 308864, Control_c, 1, 7, 67
3, 308872, Control_c, 1, 7, 67
3, 308880, Control_c, 1, 7, 67
3, 308888, Control_c, 1, 7, 67
3, 308896, Control_c, 1, 7, 67
3, 308904, Control_c, 1, 7, 67
3, 308912, Control_c, 1, 7, 67
3, 308920, Control_c, 1, 7, 67
3, 308928, Control_c, 1, 7, 67
3, 308936, Control_c, 1, 7, 67
3, 308944, Control_c, 1, 7, 67
3, 308952, Control_c, 1, 7, 66
3, 308960, Control_c, 1, 7, 66
3, 308968, Control_c, 1, 7, 66
3, 308976, Control_c, 1, 7, 66
3, 308984, Control_c, 1, 7, 66
3, 308992, Control_c, 1, 7, 66
3, 309000, Control_c, 1, 7, 66
3, 309008, Control_c, 1, 7, 65
3, 309016, Control_c, 1, 7, 65
3, 309024, Control_c, 1, 7, 65
3, 309032, Control_c, 1, 7, 65
3, 309040, Control_c, 1, 7, 65
3, 309048, Control_c, 1, 7, 64
3, 309056, Control_c, 1, 7, 64
3, 309064, Control_c, 1, 7, 64
3, 309072, Control_c, 1, 7, 64
3, 309080, Control_c, 1, 7, 64
3, 309088, Control_c, 1, 7, 63
3, 309096, Control_c, 1, 7, 61
3, 309104, Control_c, 1, 7, 61
3, 309112, Control_c, 1, 7, 61
3, 309120, Control_c, 1, 7, 61
3, 309128, Control_c, 1, 7, 61
3, 309136, Control_c, 1, 7, 60
3, 309144, Control_c, 1, 7, 60
3, 309152, Control_c, 1, 7, 60
3, 309160, Control_c, 1, 7, 60
3, 309168, Control_c, 1, 7, 60
3, 309176, Control_c, 1, 7, 60
3, 309184, Control_c, 1, 7, 59
3, 309192, Control_c, 1, 7, 58
3, 309200, Control_c, 1, 7, 57
3, 309208, Control_c, 1, 7, 56
3, 309216, Control_c, 1, 7, 55
3, 309224, Control_c, 1, 7, 55
3, 309232, Control_c, 1, 7, 56
3, 309240, Control_c, 1, 7, 56
3, 309248, Control_c, 1, 7, 56
3, 309256, Control_c, 1, 7, 56
3, 309264, Control_c, 1, 7, 55
3, 309272, Control_c, 1, 7, 55
3, 309280, Control_c, 1, 7, 55
3, 309288, Control_c, 1, 7, 54
3, 309296, Control_c, 1, 7, 54
3, 309304, Control_c, 1, 7, 54
3, 309312, Control_c, 1, 7, 53
3, 309320, Control_c, 1, 7, 53
3, 309328, Control_c, 1, 7, 53
3, 309336, Control_c, 1, 7, 52
3, 309344, Control_c, 1, 7, 52
3, 309352, Control_c, 1, 7, 51
3, 309360, Control_c, 1, 7, 51
3, 309368, Control_c, 1, 7, 51
3, 309376, Control_c, 1, 7, 51
3, 309384, Control_c, 1, 7, 51
3, 309392, Control_c, 1, 7, 51
3, 309400, Control_c, 1, 7, 51
3, 309408, Control_c, 1, 7, 51
3, 309416, Control_c, 1, 7, 51
3, 309424, Control_c, 1, 7, 51
3, 309432, Control_c, 1, 7, 51
3, 309440, Control_c, 1, 7, 51
3, 309448, Control_c, 1, 7, 51
3, 309456, Control_c, 1, 7, 51
3, 309464, Control_c, 1, 7, 52
3, 309472, Control_c, 1, 7, 52
3, 309480, Control_c, 1, 7, 52
3, 309488, Control_c, 1, 7, 52
3, 309496, Control_c, 1, 7, 52
3, 309504, Control_c, 1, 7, 51
3, 309512, Control_c, 1, 7, 51
3, 309520, Control_c, 1, 7, 51
3, 309528, Control_c, 1, 7, 51
3, 309536, Control_c, 1, 7, 51
3, 309544, Control_c, 1, 7, 51
3, 309552, Control_c, 1, 7, 51
3, 309560, Control_c, 1, 7, 51
3, 309568, Control_c, 1, 7, 51
3, 309576, Control_c, 1, 7, 51
3, 309584, Control_c, 1, 7, 46
3, 309592, Control_c, 1, 7, 46
3, 309600, Control_c, 1, 7, 46
3, 309608, Control_c, 1, 7, 46
3, 309616, Control_c, 1, 7, 46
3, 309624, Control_c, 1, 7, 45
3, 309632, Control_c, 1, 7, 45
3, 309640, Control_c, 1, 7, 45
3, 309648, Control_c, 1, 7, 45
3, 309656, Control_c, 1, 7, 45
3, 309664, Control_c, 1, 7, 44
3, 309672, Control_c, 1, 7, 45
3, 309680, Control_c, 1, 7, 45
3, 309688, Control_c, 1, 7, 45
3, 309696, Control_c, 1, 7, 45
3, 309704, Control_c, 1, 7, 45
3, 309712, Control_c, 1, 7, 45
3, 309720, Control_c, 1, 7, 45
3, 309728, Control_c, 1, 7, 45
3, 309736, Control_c, 1, 7, 45
3, 309744, Control_c, 1, 7, 45
3, 309752, Control_c, 1, 7, 44
3, 309760, Control_c, 1, 7, 43
3, 309768, Control_c, 1, 7, 42
3, 309776, Control_c, 1, 7, 42
3, 309784, Control_c, 1, 7, 42
3, 309792, Control_c, 1, 7, 42
3, 309800, Control_c, 1, 7, 42
3, 309808, Control_c, 1, 7, 42
3, 309816, Control_c, 1, 7, 41
3, 309824, Control_c, 1, 7, 39
3, 309832, Control_c, 1, 7, 39
3, 309840, Control_c, 1, 7, 39
3, 309848, Control_c, 1, 7, 39
3, 309856, Control_c, 1, 7, 39
3, 309864, Control_c, 1, 7, 39
3, 309872, Control_c, 1, 7, 38
3, 309880, Control_c, 1, 7, 39
3, 309888, Control_c, 1, 7, 39
3, 309896, Control_c, 1, 7, 39
3, 309904, Control_c, 1, 7, 39
3, 309912, Control_c, 1, 7, 39
3, 309920, Control_c, 1, 7, 39
3, 309928, Control_c, 1, 7, 39
3, 309936, Control_c, 1, 7, 39
3, 309944, Control_c, 1, 7, 39
3, 309952, Control_c, 1, 7, 39
3, 309960, Control_c, 1, 7, 39
3, 309968, Control_c, 1, 7, 40
3, 309976, Control_c, 1, 7, 40
3, 309984, Control_c, 1, 7, 39
3, 309992, Control_c, 1, 7, 38
3, 310000, Control_c, 1, 7, 37
3, 310008, Control_c, 1, 7, 37
3, 310016, Control_c, 1, 7, 37
3, 310024, Control_c, 1, 7, 37
3, 310032, Control_c, 1, 7, 37
3, 310040, Control_c, 1, 7, 35
3, 310048, Control_c, 1, 7, 35
3, 310056, Control_c, 1, 7, 35
3, 310064, Control_c, 1, 7, 35
3, 310072, Control_c, 1, 7, 35
3, 310080, Control_c, 1, 7, 35
3, 310088, Control_c, 1, 7, 35
3, 310096, Control_c, 1, 7, 35
3, 310104, Control_c, 1, 7, 35
3, 310112, Control_c, 1, 7, 35
3, 310120, Control_c, 1, 7, 35
3, 310128, Control_c, 1, 7, 34
3, 310136, Control_c, 1, 7, 34
3, 310144, Control_c, 1, 7, 34
3, 310152, Control_c, 1, 7, 34
3, 310160, Control_c, 1, 7, 34
3, 310168, Control_c, 1, 7, 33
3, 310176, Control_c, 1, 7, 33
3, 310184, Control_c, 1, 7, 34
3, 310192, Control_c, 1, 7, 33
3, 310200, Control_c, 1, 7, 33
3, 310208, Control_c, 1, 7, 33
3, 310216, Control_c, 1, 7, 33
3, 310224, Control_c, 1, 7, 33
3, 310232, Control_c, 1, 7, 33
3, 310240, Control_c, 1, 7, 33
3, 310248, Control_c, 1, 7, 33
3, 310256, Control_c, 1, 7, 33
3, 310264, Control_c, 1, 7, 31
3, 310272, Control_c, 1, 7, 30
3, 310280, Control_c, 1, 7, 30
3, 310288, Control_c, 1, 7, 29
3, 310296, Control_c, 1, 7, 29
3, 310304, Control_c, 1, 7, 29
3, 310312, Control_c, 1, 7, 29
3, 310320, Control_c, 1, 7, 29
3, 310328, Control_c, 1, 7, 27
3, 310336, Control_c, 1, 7, 27
3, 310344, Control_c, 1, 7, 25
3, 310352, Control_c, 1, 7, 25
3, 310360, Control_c, 1, 7, 25
3, 310368, Control_c, 1, 7, 25
3, 310376, Control_c, 1, 7, 25
3, 310384, Control_c, 1, 7, 26
3, 310392, Control_c, 1, 7, 26
3, 310400, Control_c, 1, 7, 26
3, 310408, Control_c, 1, 7, 26
3, 310416, Control_c, 1, 7, 26
3, 310424, Control_c, 1, 7, 26
3, 310432, Control_c, 1, 7, 26
3, 310440, Control_c, 1, 7, 26
3, 310448, Control_c, 1, 7, 26
3, 310456, Control_c, 1, 7, 26
3, 310464, Control_c, 1, 7, 26
3, 310472, Control_c, 1, 7, 26
3, 310480, Control_c, 1, 7, 26
3, 310488, Control_c, 1, 7, 26
3, 310496, Control_c, 1, 7, 26
3, 310504, Control_c, 1, 7, 26
3, 310512, Control_c, 1, 7, 26
3, 310520, Control_c, 1, 7, 25
3, 310528, Control_c, 1, 7, 25
3, 310536, Control_c, 1, 7, 25
3, 310544, Control_c, 1, 7, 25
3, 310552, Control_c, 1, 7, 26
3, 310560, Control_c, 1, 7, 26
3, 310568, Control_c, 1, 7, 26
3, 310576, Control_c, 1, 7, 26
3, 310584, Control_c, 1, 7, 26
3, 310592, Control_c, 1, 7, 26
3, 310600, Control_c, 1, 7, 24
3, 310608, Control_c, 1, 7, 24
3, 310616, Control_c, 1, 7, 24
3, 310624, Control_c, 1, 7, 24
3, 310632, Control_c, 1, 7, 24
3, 310640, Control_c, 1, 7, 25
3, 310648, Control_c, 1, 7, 25
3, 310656, Control_c, 1, 7, 25
3, 310664, Control_c, 1, 7, 25
3, 310672, Control_c, 1, 7, 25
3, 310680, Control_c, 1, 7, 26
3, 310688, Control_c, 1, 7, 25
3, 310696, Control_c, 1, 7, 24
3, 310704, Control_c, 1, 7, 24
3, 310712, Control_c, 1, 7, 24
3, 310720, Control_c, 1, 7, 24
3, 310728, Control_c, 1, 7, 24
3, 310736, Control_c, 1, 7, 24
3, 310744, Control_c, 1, 7, 24
3, 310752, Control_c, 1, 7, 24
3, 310760, Control_c, 1, 7, 25
3, 310768, Control_c, 1, 7, 25
3, 310776, Control_c, 1, 7, 25
3, 310784, Control_c, 1, 7, 25
3, 310792, Control_c, 1, 7, 25
3, 310800, Control_c, 1, 7, 25
3, 310808, Control_c, 1, 7, 25
3, 310816, Control_c, 1, 7, 25
3, 310824, Control_c, 1, 7, 25
3, 310832, Control_c, 1, 7, 26
3, 310840, Control_c, 1, 7, 26
3, 310848, Control_c, 1, 7, 26
3, 310856, Control_c, 1, 7, 26
3, 310864, Control_c, 1, 7, 26
3, 310872, Control_c, 1, 7, 26
3, 310880, Control_c, 1, 7, 24
3, 310888, Control_c, 1, 7, 24
3, 310896, Control_c, 1, 7, 24
3, 310904, Control_c, 1, 7, 24
3, 310912, Control_c, 1, 7, 24
3, 310916, Note_on_c, 1, 67, 0
3, 310916, Note_on_c, 1, 79, 0
3, 310920, Control_c, 1, 7, 24
3, 310928, Control_c, 1, 7, 24
3, 310936, Control_c, 1, 7, 25
3, 310944, Control_c, 1, 7, 24
3, 310952, Control_c, 1, 7, 23
3, 310960, Control_c, 1, 7, 40
3, 310968, Control_c, 1, 7, 41
3, 310976, Control_c, 1, 7, 42
3, 310984, Control_c, 1, 7, 69
3, 310992, Control_c, 1, 7, 69
3, 311000, Control_c, 1, 7, 78
3, 311008, Control_c, 1, 7, 99
3, 311016, Control_c, 1, 7, 100
3, 318720, Note_on_c, 1, 75, 33
3, 318720, Note_on_c, 1, 79, 46
3, 318954, Note_on_c, 1, 75, 0
3, 318960, Note_on_c, 1, 77, 35
3, 318960, Note_on_c, 1, 80, 33
3, 318990, Note_on_c, 1, 79, 0
3, 319056, Note_on_c, 1, 77, 0
3, 319086, Note_on_c, 1, 80, 0
3, 319200, Note_on_c, 1, 79, 45
3, 319200, Note_on_c, 1, 82, 42
3, 319266, Note_on_c, 1, 82, 0
3, 319272, Note_on_c, 1, 79, 0
3, 319440, Note_on_c, 1, 82, 42
3, 319440, Note_on_c, 1, 79, 46
3, 319504, Note_on_c, 1, 82, 0
3, 319510, Note_on_c, 1, 79, 0
3, 319680, Note_on_c, 1, 79, 48
3, 319680, Note_on_c, 1, 82, 49
3, 319920, Note_on_c, 1, 82, 0
3, 319920, Note_on_c, 1, 79, 0
3, 319920, Note_on_c, 1, 80, 45
3, 319920, Note_on_c, 1, 77, 34
3, 320160, Note_on_c, 1, 77, 0
3, 320160, Note_on_c, 1, 80, 0
3, 320160, Note_on_c, 1, 79, 43
3, 320160, Note_on_c, 1, 75, 35
3, 320400, Note_on_c, 1, 75, 0
3, 320400, Note_on_c, 1, 79, 0
3, 320400, Note_on_c, 1, 77, 41
3, 320400, Note_on_c, 1, 74, 32
3, 320640, Note_on_c, 1, 74, 0
3, 320640, Note_on_c, 1, 77, 0
3, 320640, Note_on_c, 1, 72, 40
3, 320640, Note_on_c, 1, 75, 39
3, 320880, Note_on_c, 1, 75, 0
3, 320880, Note_on_c, 1, 72, 0
3, 320880, Note_on_c, 1, 74, 38
3, 320880, Note_on_c, 1, 77, 42
3, 321120, Note_on_c, 1, 77, 0
3, 321120, Note_on_c, 1, 74, 0
3, 321120, Note_on_c, 1, 79, 47
3, 321120, Note_on_c, 1, 75, 40
3, 321180, Note_on_c, 1, 75, 0
3, 321192, Note_on_c, 1, 79, 0
3, 321360, Note_on_c, 1, 79, 42
3, 321360, Note_on_c, 1, 75, 38
3, 321412, Note_on_c, 1, 79, 0
3, 321432, Note_on_c, 1, 75, 0
3, 321600, Note_on_c, 1, 79, 57
3, 321600, Note_on_c, 1, 75, 54
3, 321840, Note_on_c, 1, 77, 39
3, 321840, Note_on_c, 1, 74, 34
3, 321850, Note_on_c, 1, 79, 0
3, 321852, Note_on_c, 1, 75, 0
3, 322080, Note_on_c, 1, 77, 0
3, 322080, Note_on_c, 1, 74, 0
3, 322080, Note_on_c, 1, 72, 38
3, 322080, Note_on_c, 1, 75, 40
3, 322320, Note_on_c, 1, 75, 0
3, 322320, Note_on_c, 1, 72, 0
3, 322320, Note_on_c, 1, 70, 37
3, 322320, Note_on_c, 1, 74, 36
3, 322560, Note_on_c, 1, 74, 0
3, 322560, Note_on_c, 1, 70, 0
3, 322560, Note_on_c, 1, 72, 39
3, 322560, Note_on_c, 1, 68, 39
3, 322800, Note_on_c, 1, 68, 0
3, 322800, Note_on_c, 1, 72, 0
3, 322800, Note_on_c, 1, 74, 44
3, 322800, Note_on_c, 1, 70, 44
3, 323040, Note_on_c, 1, 70, 0
3, 323040, Note_on_c, 1, 74, 0
3, 323040, Note_on_c, 1, 72, 50
3, 323040, Note_on_c, 1, 75, 50
3, 323280, Note_on_c, 1, 75, 0
3, 323280, Note_on_c, 1, 72, 0
3, 323280, Note_on_c, 1, 77, 55
3, 323280, Note_on_c, 1, 74, 55
3, 323520, Note_on_c, 1, 74, 0
3, 323520, Note_on_c, 1, 77, 0
3, 323520, Note_on_c, 1, 75, 60
3, 323520, Note_on_c, 1, 79, 60
3, 323760, Note_on_c, 1, 79, 0
3, 323760, Note_on_c, 1, 75, 0
3, 323760, Note_on_c, 1, 77, 65
3, 323760, Note_on_c, 1, 80, 65
3, 324000, Note_on_c, 1, 80, 0
3, 324000, Note_on_c, 1, 77, 0
3, 324000, Note_on_c, 1, 79, 70
3, 324000, Note_on_c, 1, 82, 70
3, 324240, Note_on_c, 1, 82, 0
3, 324240, Note_on_c, 1, 79, 0
3, 324240, Note_on_c, 1, 84, 76
3, 324240, Note_on_c, 1, 80, 76
3, 324382, Note_on_c, 1, 80, 0
3, 324390, Note_on_c, 1, 84, 0
3, 324480, Note_on_c, 1, 84, 48
3, 324480, Note_on_c, 1, 80, 50
3, 324696, Note_on_c, 1, 84, 0
3, 324720, Note_on_c, 1, 82, 36
3, 324720, Note_on_c, 1, 79, 41
3, 324750, Note_on_c, 1, 80, 0
3, 324810, Note_on_c, 1, 82, 0
3, 324820, Note_on_c, 1, 79, 0
3, 324960, Note_on_c, 1, 80, 44
3, 324960, Note_on_c, 1, 77, 41
3, 325042, Note_on_c, 1, 80, 0
3, 325056, Note_on_c, 1, 77, 0
3, 325200, Note_on_c, 1, 79, 39
3, 325200, Note_on_c, 1, 75, 30
3, 325282, Note_on_c, 1, 75, 0
3, 325292, Note_on_c, 1, 79, 0
3, 325440, Note_on_c, 1, 74, 30
3, 325440, Note_on_c, 1, 77, 35
3, 325642, Note_on_c, 1, 74, 0
3, 325660, Note_on_c, 1, 77, 0
3, 334080, Note_on_c, 1, 75, 81
3, 334080, Note_on_c, 1, 79, 88
3, 334292, Note_on_c, 1, 75, 0
3, 334320, Note_on_c, 1, 77, 79
3, 334320, Note_on_c, 1, 80, 76
3, 334346, Note_on_c, 1, 79, 0
3, 334404, Note_on_c, 1, 77, 0
3, 334410, Note_on_c, 1, 80, 0
3, 334560, Note_on_c, 1, 79, 84
3, 334560, Note_on_c, 1, 82, 88
3, 334640, Note_on_c, 1, 79, 0
3, 334642, Note_on_c, 1, 82, 0
3, 334800, Note_on_c, 1, 82, 84
3, 334800, Note_on_c, 1, 79, 84
3, 334876, Note_on_c, 1, 79, 0
3, 334882, Note_on_c, 1, 82, 0
3, 335040, Note_on_c, 1, 79, 89
3, 335040, Note_on_c, 1, 82, 89
3, 335280, Note_on_c, 1, 82, 0
3, 335280, Note_on_c, 1, 79, 0
3, 335280, Note_on_c, 1, 77, 81
3, 335280, Note_on_c, 1, 80, 79
3, 335520, Note_on_c, 1, 80, 0
3, 335520, Note_on_c, 1, 77, 0
3, 335520, Note_on_c, 1, 79, 88
3, 335520, Note_on_c, 1, 75, 79
3, 335760, Note_on_c, 1, 75, 0
3, 335760, Note_on_c, 1, 79, 0
3, 335760, Note_on_c, 1, 77, 88
3, 335760, Note_on_c, 1, 74, 75
3, 336000, Note_on_c, 1, 74, 0
3, 336000, Note_on_c, 1, 77, 0
3, 336000, Note_on_c, 1, 72, 74
3, 336822, Note_on_c, 1, 72, 0
3, 336960, Note_on_c, 1, 67, 63
3, 337726, Note_on_c, 1, 67, 0
3, 338400, Note_on_c, 1, 72, 66
3, 338474, Note_on_c, 1, 72, 0
3, 338640, Note_on_c, 1, 72, 65
3, 338712, Note_on_c, 1, 72, 0
3, 338880, Note_on_c, 1, 72, 60
3, 338950, Note_on_c, 1, 72, 0
3, 339120, Note_on_c, 1, 74, 66
3, 339196, Note_on_c, 1, 74, 0
3, 339360, Note_on_c, 1, 75, 62
3, 339424, Note_on_c, 1, 75, 0
3, 339600, Note_on_c, 1, 77, 65
3, 339670, Note_on_c, 1, 77, 0
3, 339840, Note_on_c, 1, 79, 46
3, 340210, Note_on_c, 1, 79, 0
3, 342240, Note_on_c, 1, 72, 66
3, 342314, Note_on_c, 1, 72, 0
3, 342480, Note_on_c, 1, 74, 65
3, 342552, Note_on_c, 1, 74, 0
3, 342720, Note_on_c, 1, 75, 60
3, 342790, Note_on_c, 1, 75, 0
3, 342960, Note_on_c, 1, 77, 66
3, 343036, Note_on_c, 1, 77, 0
3, 343200, Note_on_c, 1, 79, 62
3, 343264, Note_on_c, 1, 79, 0
3, 343440, Note_on_c, 1, 80, 65
3, 343510, Note_on_c, 1, 80, 0
3, 343680, Note_on_c, 1, 79, 46
3, 344050, Note_on_c, 1, 79, 0
3, 346080, Note_on_c, 1, 79, 56
3, 347040, Note_on_c, 1, 79, 0
3, 347040, Note_on_c, 1, 81, 56
3, 347520, Note_on_c, 1, 81, 0
3, 347520, Note_on_c, 1, 82, 39
3, 347904, Note_on_c, 1, 82, 0
3, 348000, Note_on_c, 1, 82, 49
3, 349824, Note_on_c, 1, 82, 0
3, 349920, Note_on_c, 1, 82, 55
3, 351744, Note_on_c, 1, 82, 0
3, 351840, Note_on_c, 1, 82, 55
3, 353664, Note_on_c, 1, 82, 0
3, 353760, Note_on_c, 1, 82, 83
3, 354240, Note_on_c, 1, 82, 0
3, 354240, Note_on_c, 1, 80, 70
3, 354720, Note_on_c, 1, 80, 0
3, 354720, Note_on_c, 1, 79, 65
3, 355200, Note_on_c, 1, 79, 0
3, 355200, Note_on_c, 1, 65, 58
3, 355680, Note_on_c, 1, 65, 0
3, 355680, Note_on_c, 1, 63, 58
3, 356160, Note_on_c, 1, 63, 0
3, 356160, Note_on_c, 1, 62, 61
3, 356640, Note_on_c, 1, 62, 0
3, 356640, Note_on_c, 1, 63, 54
3, 356974, Note_on_c, 1, 63, 0
3, 357120, Note_on_c, 1, 65, 76
3, 357600, Note_on_c, 1, 65, 0
3, 357600, Note_on_c, 1, 63, 76
3, 358080, Note_on_c, 1, 63, 0
3, 358080, Note_on_c, 1, 62, 67
3, 358080, Note_on_c, 1, 74, 67
3, 358560, Note_on_c, 1, 74, 0
3, 358560, Note_on_c, 1, 62, 0
3, 358560, Note_on_c, 1, 60, 62
3, 358560, Note_on_c, 1, 72, 62
3, 359040, Note_on_c, 1, 72, 0
3, 359040, Note_on_c, 1, 60, 0
3, 359040, Note_on_c, 1, 58, 65
3, 359040, Note_on_c, 1, 70, 65
3, 359520, Note_on_c, 1, 70, 0
3, 359520, Note_on_c, 1, 58, 0
3, 359520, Note_on_c, 1, 68, 61
3, 359520, Note_on_c, 1, 56, 61
3, 360000, Note_on_c, 1, 56, 0
3, 360000, Note_on_c, 1, 68, 0
3, 360000, Note_on_c, 1, 55, 62
3, 360000, Note_on_c, 1, 67, 62
3, 360480, Note_on_c, 1, 67, 0
3, 360480, Note_on_c, 1, 55, 0
3, 360480, Note_on_c, 1, 53, 69
3, 360480, Note_on_c, 1, 65, 69
3, 360960, Note_on_c, 1, 63, 66
3, 360960, Note_on_c, 1, 51, 66
3, 360972, Note_on_c, 1, 65, 0
3, 360972, Note_on_c, 1, 53, 0
3, 361440, Note_on_c, 1, 63, 0
3, 361440, Note_on_c, 1, 51, 0
3, 361440, Note_on_c, 1, 67, 70
3, 361440, Note_on_c, 1, 55, 70
3, 361920, Note_on_c, 1, 55, 0
3, 361920, Note_on_c, 1, 67, 0
3, 361920, Note_on_c, 1, 70, 50
3, 361920, Note_on_c, 1, 58, 50
3, 362400, Note_on_c, 1, 58, 0
3, 362400, Note_on_c, 1, 70, 0
3, 362400, Note_on_c, 1, 63, 62
3, 362880, Note_on_c, 1, 63, 0
3, 362880, Note_on_c, 1, 67, 62
3, 363360, Note_on_c, 1, 67, 0
3, 363360, Note_on_c, 1, 70, 73
3, 363794, Note_on_c, 1, 70, 0
3, 363840, Note_on_c, 1, 70, 81
3, 364156, Note_on_c, 1, 70, 0
3, 364320, Note_on_c, 1, 70, 70
3, 364722, Note_on_c, 1, 70, 0
3, 364800, Note_on_c, 1, 70, 80
3, 365184, Note_on_c, 1, 70, 0
3, 365280, Note_on_c, 1, 70, 83
3, 365760, Note_on_c, 1, 70, 0
3, 365760, Note_on_c, 1, 68, 70
3, 366240, Note_on_c, 1, 68, 0
3, 366240, Note_on_c, 1, 67, 65
3, 366720, Note_on_c, 1, 67, 0
3, 366720, Note_on_c, 1, 65, 58
3, 367200, Note_on_c, 1, 65, 0
3, 367200, Note_on_c, 1, 63, 58
3, 367680, Note_on_c, 1, 63, 0
3, 367680, Note_on_c, 1, 62, 61
3, 368160, Note_on_c, 1, 62, 0
3, 368160, Note_on_c, 1, 63, 54
3, 368494, Note_on_c, 1, 63, 0
3, 368640, Note_on_c, 1, 65, 76
3, 369120, Note_on_c, 1, 65, 0
3, 369120, Note_on_c, 1, 63, 76
3, 369600, Note_on_c, 1, 63, 0
3, 369600, Note_on_c, 1, 74, 67
3, 369600, Note_on_c, 1, 62, 67
3, 370080, Note_on_c, 1, 62, 0
3, 370080, Note_on_c, 1, 74, 0
3, 370080, Note_on_c, 1, 60, 62
3, 370080, Note_on_c, 1, 72, 62
3, 370560, Note_on_c, 1, 72, 0
3, 370560, Note_on_c, 1, 60, 0
3, 370560, Note_on_c, 1, 82, 65
3, 370560, Note_on_c, 1, 70, 65
3, 371040, Note_on_c, 1, 70, 0
3, 371040, Note_on_c, 1, 82, 0
3, 371040, Note_on_c, 1, 68, 61
3, 371040, Note_on_c, 1, 80, 61
3, 371520, Note_on_c, 1, 80, 0
3, 371520, Note_on_c, 1, 68, 0
3, 371520, Note_on_c, 1, 67, 62
3, 371520, Note_on_c, 1, 79, 62
3, 372000, Note_on_c, 1, 79, 0
3, 372000, Note_on_c, 1, 67, 0
3, 372000, Note_on_c, 1, 65, 69
3, 372000, Note_on_c, 1, 77, 69
3, 372480, Note_on_c, 1, 65, 76
3, 372480, Note_on_c, 1, 77, 76
3, 372492, Note_on_c, 1, 77, 0
3, 372492, Note_on_c, 1, 65, 0
3, 372960, Note_on_c, 1, 65, 0
3, 372960, Note_on_c, 1, 77, 0
3, 372960, Note_on_c, 1, 75, 76
3, 372960, Note_on_c, 1, 63, 76
3, 373440, Note_on_c, 1, 63, 0
3, 373440, Note_on_c, 1, 75, 0
3, 373440, Note_on_c, 1, 61, 67
3, 373440, Note_on_c, 1, 73, 67
3, 373920, Note_on_c, 1, 73, 0
3, 373920, Note_on_c, 1, 61, 0
3, 373920, Note_on_c, 1, 60, 62
3, 373920, Note_on_c, 1, 72, 62
3, 374400, Note_on_c, 1, 72, 0
3, 374400, Note_on_c, 1, 60, 0
3, 374400, Note_on_c, 1, 70, 65
3, 374400, Note_on_c, 1, 82, 65
3, 374880, Note_on_c, 1, 82, 0
3, 374880, Note_on_c, 1, 70, 0
3, 374880, Note_on_c, 1, 68, 61
3, 374880, Note_on_c, 1, 80, 61
3, 375360, Note_on_c, 1, 80, 0
3, 375360, Note_on_c, 1, 68, 0
3, 375360, Note_on_c, 1, 67, 62
3, 375360, Note_on_c, 1, 79, 62
3, 375792, Note_on_c, 1, 79, 0
3, 375792, Note_on_c, 1, 67, 0
3, 375840, Note_on_c, 1, 75, 69
3, 375840, Note_on_c, 1, 63, 69
3, 376320, Note_on_c, 1, 77, 116
3, 376320, Note_on_c, 1, 65, 76
3, 376332, Note_on_c, 1, 63, 0
3, 376332, Note_on_c, 1, 75, 0
3, 376800, Note_on_c, 1, 77, 0
3, 376800, Note_on_c, 1, 65, 0
3, 376800, Note_on_c, 1, 63, 76
3, 376800, Note_on_c, 1, 75, 76
3, 377280, Note_on_c, 1, 75, 0
3, 377280, Note_on_c, 1, 63, 0
3, 377280, Note_on_c, 1, 61, 67
3, 377280, Note_on_c, 1, 73, 67
3, 377760, Note_on_c, 1, 73, 0
3, 377760, Note_on_c, 1, 61, 0
3, 377760, Note_on_c, 1, 72, 62
3, 377760, Note_on_c, 1, 60, 62
3, 378240, Note_on_c, 1, 60, 0
3, 378240, Note_on_c, 1, 72, 0
3, 378240, Note_on_c, 1, 82, 65
3, 378240, Note_on_c, 1, 70, 65
3, 378720, Note_on_c, 1, 70, 0
3, 378720, Note_on_c, 1, 82, 0
3, 378720, Note_on_c, 1, 69, 61
3, 378720, Note_on_c, 1, 81, 61
3, 379200, Note_on_c, 1, 81, 0
3, 379200, Note_on_c, 1, 69, 0
3, 379200, Note_on_c, 1, 64, 62
3, 379200, Note_on_c, 1, 76, 62
3, 379632, Note_on_c, 1, 76, 0
3, 379632, Note_on_c, 1, 64, 0
3, 379680, Note_on_c, 1, 77, 69
3, 379680, Note_on_c, 1, 65, 69
3, 380160, Note_on_c, 1, 79, 116
3, 380160, Note_on_c, 1, 67, 76
3, 380172, Note_on_c, 1, 65, 0
3, 380172, Note_on_c, 1, 77, 0
3, 380640, Note_on_c, 1, 79, 0
3, 380640, Note_on_c, 1, 67, 0
3, 380640, Note_on_c, 1, 65, 76
3, 380640, Note_on_c, 1, 77, 76
3, 381120, Note_on_c, 1, 77, 0
3, 381120, Note_on_c, 1, 65, 0
3, 381120, Note_on_c, 1, 75, 67
3, 381120, Note_on_c, 1, 63, 67
3, 381600, Note_on_c, 1, 63, 0
3, 381600, Note_on_c, 1, 75, 0
3, 381600, Note_on_c, 1, 74, 62
3, 381600, Note_on_c, 1, 62, 62
3, 382080, Note_on_c, 1, 62, 0
3, 382080, Note_on_c, 1, 74, 0
3, 382080, Note_on_c, 1, 84, 65
3, 382080, Note_on_c, 1, 72, 65
3, 382560, Note_on_c, 1, 72, 0
3, 382560, Note_on_c, 1, 84, 0
3, 382560, Note_on_c, 1, 70, 61
3, 382560, Note_on_c, 1, 82, 61
3, 383040, Note_on_c, 1, 82, 0
3, 383040, Note_on_c, 1, 70, 0
3, 383040, Note_on_c, 1, 62, 62
3, 383040, Note_on_c, 1, 74, 62
3, 383472, Note_on_c, 1, 74, 0
3, 383472, Note_on_c, 1, 62, 0
3, 383520, Note_on_c, 1, 77, 69
3, 383520, Note_on_c, 1, 65, 69
3, 383520, Note_on_c, 1, 74, 69
3, 384000, Note_on_c, 1, 80, 80
3, 384000, Note_on_c, 1, 77, 80
3, 384012, Note_on_c, 1, 74, 0
3, 384012, Note_on_c, 1, 77, 0
3, 384012, Note_on_c, 1, 65, 0
3, 384384, Note_on_c, 1, 80, 0
3, 384384, Note_on_c, 1, 77, 0
3, 384480, Note_on_c, 1, 82, 80
3, 384480, Note_on_c, 1, 77, 80
3, 384864, Note_on_c, 1, 77, 0
3, 384864, Note_on_c, 1, 82, 0
3, 384960, Note_on_c, 1, 86, 80
3, 384960, Note_on_c, 1, 82, 80
3, 385200, Note_on_c, 1, 82, 0
3, 385200, Note_on_c, 1, 86, 0
3, 385440, Note_on_c, 1, 86, 80
3, 385440, Note_on_c, 1, 82, 80
3, 385680, Note_on_c, 1, 82, 0
3, 385680, Note_on_c, 1, 86, 0
3, 385920, Note_on_c, 1, 86, 80
3, 385920, Note_on_c, 1, 82, 80
3, 386160, Note_on_c, 1, 82, 0
3, 386160, Note_on_c, 1, 86, 0
3, 386400, Note_on_c, 1, 86, 80
3, 386400, Note_on_c, 1, 82, 80
3, 386640, Note_on_c, 1, 82, 0
3, 386640, Note_on_c, 1, 86, 0
3, 386880, Note_on_c, 1, 86, 80
3, 386880, Note_on_c, 1, 82, 80
3, 387120, Note_on_c, 1, 82, 0
3, 387120, Note_on_c, 1, 86, 0
3, 387360, Note_on_c, 1, 82, 80
3, 387360, Note_on_c, 1, 86, 80
3, 387600, Note_on_c, 1, 86, 0
3, 387600, Note_on_c, 1, 82, 0
3, 387840, Note_on_c, 1, 86, 80
3, 387840, Note_on_c, 1, 82, 80
3, 389760, Note_on_c, 1, 82, 0
3, 389760, Note_on_c, 1, 86, 0
3, 404160, Note_on_c, 1, 82, 60
3, 404928, Note_on_c, 1, 82, 0
3, 405120, Note_on_c, 1, 80, 60
3, 405888, Note_on_c, 1, 80, 0
3, 406080, Note_on_c, 1, 77, 75
3, 407040, Note_on_c, 1, 77, 0
3, 407040, Note_on_c, 1, 75, 75
3, 407520, Note_on_c, 1, 75, 0
3, 407520, Note_on_c, 1, 72, 75
3, 408000, Note_on_c, 1, 72, 0
3, 408000, Note_on_c, 1, 79, 75
3, 410370, Note_on_c, 1, 79, 0
3, 410400, Note_on_c, 1, 74, 84
3, 410400, Note_on_c, 1, 71, 84
3, 410496, Note_on_c, 1, 71, 0
3, 410496, Note_on_c, 1, 74, 0
3, 410640, Note_on_c, 1, 74, 84
3, 410640, Note_on_c, 1, 71, 84
3, 410736, Note_on_c, 1, 71, 0
3, 410736, Note_on_c, 1, 74, 0
3, 410880, Note_on_c, 1, 72, 84
3, 410880, Note_on_c, 1, 76, 84
3, 411120, Note_on_c, 1, 76, 0
3, 411120, Note_on_c, 1, 72, 0
3, 411120, Note_on_c, 1, 74, 84
3, 411120, Note_on_c, 1, 77, 84
3, 411216, Note_on_c, 1, 77, 0
3, 411216, Note_on_c, 1, 74, 0
3, 411360, Note_on_c, 1, 79, 84
3, 411360, Note_on_c, 1, 76, 84
3, 411456, Note_on_c, 1, 76, 0
3, 411456, Note_on_c, 1, 79, 0
3, 411600, Note_on_c, 1, 79, 84
3, 411600, Note_on_c, 1, 76, 84
3, 411696, Note_on_c, 1, 76, 0
3, 411696, Note_on_c, 1, 79, 0
3, 411840, Note_on_c, 1, 76, 84
3, 411840, Note_on_c, 1, 79, 84
3, 412080, Note_on_c, 1, 79, 0
3, 412080, Note_on_c, 1, 76, 0
3, 412080, Note_on_c, 1, 77, 84
3, 412080, Note_on_c, 1, 74, 84
3, 412320, Note_on_c, 1, 74, 0
3, 412320, Note_on_c, 1, 77, 0
3, 412320, Note_on_c, 1, 76, 84
3, 412320, Note_on_c, 1, 72, 84
3, 412560, Note_on_c, 1, 72, 0
3, 412560, Note_on_c, 1, 76, 0
3, 412560, Note_on_c, 1, 74, 84
3, 412560, Note_on_c, 1, 71, 84
3, 412656, Note_on_c, 1, 71, 0
3, 412656, Note_on_c, 1, 74, 0
3, 412800, Note_on_c, 1, 72, 84
3, 412800, Note_on_c, 1, 76, 84
3, 413040, Note_on_c, 1, 76, 0
3, 413040, Note_on_c, 1, 72, 0
3, 413040, Note_on_c, 1, 77, 84
3, 413040, Note_on_c, 1, 74, 84
3, 413136, Note_on_c, 1, 74, 0
3, 413136, Note_on_c, 1, 77, 0
3, 413280, Note_on_c, 1, 79, 84
3, 413280, Note_on_c, 1, 76, 84
3, 413376, Note_on_c, 1, 76, 0
3, 413376, Note_on_c, 1, 79, 0
3, 413520, Note_on_c, 1, 76, 84
3, 413520, Note_on_c, 1, 79, 84
3, 413616, Note_on_c, 1, 79, 0
3, 413616, Note_on_c, 1, 76, 0
3, 413760, Note_on_c, 1, 76, 84
3, 413760, Note_on_c, 1, 79, 84
3, 414000, Note_on_c, 1, 79, 0
3, 414000, Note_on_c, 1, 76, 0
3, 414000, Note_on_c, 1, 74, 84
3, 414000, Note_on_c, 1, 77, 84
3, 414240, Note_on_c, 1, 77, 0
3, 414240, Note_on_c, 1, 74, 0
3, 414240, Note_on_c, 1, 72, 84
3, 414240, Note_on_c, 1, 76, 84
3, 414480, Note_on_c, 1, 76, 0
3, 414480, Note_on_c, 1, 72, 0
3, 414480, Note_on_c, 1, 71, 84
3, 414480, Note_on_c, 1, 74, 84
3, 414576, Note_on_c, 1, 74, 0
3, 414576, Note_on_c, 1, 71, 0
3, 414720, Note_on_c, 1, 72, 84
3, 414720, Note_on_c, 1, 76, 84
3, 414960, Note_on_c, 1, 76, 0
3, 414960, Note_on_c, 1, 72, 0
3, 414960, Note_on_c, 1, 74, 84
3, 414960, Note_on_c, 1, 77, 84
3, 415056, Note_on_c, 1, 77, 0
3, 415056, Note_on_c, 1, 74, 0
3, 415200, Note_on_c, 1, 79, 84
3, 415200, Note_on_c, 1, 76, 84
3, 415296, Note_on_c, 1, 76, 0
3, 415296, Note_on_c, 1, 79, 0
3, 415440, Note_on_c, 1, 79, 84
3, 415440, Note_on_c, 1, 76, 84
3, 415536, Note_on_c, 1, 76, 0
3, 415536, Note_on_c, 1, 79, 0
3, 415680, Note_on_c, 1, 79, 84
3, 415680, Note_on_c, 1, 76, 84
3, 415920, Note_on_c, 1, 76, 0
3, 415920, Note_on_c, 1, 79, 0
3, 415920, Note_on_c, 1, 74, 84
3, 415920, Note_on_c, 1, 77, 84
3, 416160, Note_on_c, 1, 77, 0
3, 416160, Note_on_c, 1, 74, 0
3, 416160, Note_on_c, 1, 72, 84
3, 416160, Note_on_c, 1, 76, 84
3, 416400, Note_on_c, 1, 76, 0
3, 416400, Note_on_c, 1, 72, 0
3, 416400, Note_on_c, 1, 71, 84
3, 416400, Note_on_c, 1, 74, 84
3, 416496, Note_on_c, 1, 74, 0
3, 416496, Note_on_c, 1, 71, 0
3, 416640, Note_on_c, 1, 76, 84
3, 416640, Note_on_c, 1, 72, 84
3, 417090, Note_on_c, 1, 72, 0
3, 417090, Note_on_c, 1, 76, 0
3, 417120, Note_on_c, 1, 79, 100
3, 418080, Note_on_c, 1, 79, 0
3, 418080, Note_on_c, 1, 81, 100
3, 418560, Note_on_c, 1, 81, 0
3, 418560, Note_on_c, 1, 82, 80
3, 419970, Note_on_c, 1, 82, 0
3, 420000, Note_on_c, 1, 74, 84
3, 420000, Note_on_c, 1, 77, 84
3, 420096, Note_on_c, 1, 77, 0
3, 420096, Note_on_c, 1, 74, 0
3, 420240, Note_on_c, 1, 74, 84
3, 420240, Note_on_c, 1, 77, 84
3, 420336, Note_on_c, 1, 77, 0
3, 420336, Note_on_c, 1, 74, 0
3, 420480, Note_on_c, 1, 75, 84
3, 420480, Note_on_c, 1, 79, 84
3, 420720, Note_on_c, 1, 79, 0
3, 420720, Note_on_c, 1, 75, 0
3, 420720, Note_on_c, 1, 80, 84
3, 420720, Note_on_c, 1, 77, 84
3, 420816, Note_on_c, 1, 77, 0
3, 420816, Note_on_c, 1, 80, 0
3, 420960, Note_on_c, 1, 82, 84
3, 420960, Note_on_c, 1, 79, 84
3, 421056, Note_on_c, 1, 79, 0
3, 421056, Note_on_c, 1, 82, 0
3, 421200, Note_on_c, 1, 82, 84
3, 421200, Note_on_c, 1, 79, 84
3, 421296, Note_on_c, 1, 79, 0
3, 421296, Note_on_c, 1, 82, 0
3, 421440, Note_on_c, 1, 79, 84
3, 421440, Note_on_c, 1, 82, 84
3, 421680, Note_on_c, 1, 82, 0
3, 421680, Note_on_c, 1, 79, 0
3, 421680, Note_on_c, 1, 80, 84
3, 421680, Note_on_c, 1, 77, 84
3, 421920, Note_on_c, 1, 77, 0
3, 421920, Note_on_c, 1, 80, 0
3, 421920, Note_on_c, 1, 75, 84
3, 421920, Note_on_c, 1, 79, 84
3, 422160, Note_on_c, 1, 79, 0
3, 422160, Note_on_c, 1, 75, 0
3, 422160, Note_on_c, 1, 74, 84
3, 422160, Note_on_c, 1, 77, 84
3, 422256, Note_on_c, 1, 77, 0
3, 422256, Note_on_c, 1, 74, 0
3, 422400, Note_on_c, 1, 79, 84
3, 422400, Note_on_c, 1, 75, 84
3, 422640, Note_on_c, 1, 75, 0
3, 422640, Note_on_c, 1, 79, 0
3, 422640, Note_on_c, 1, 77, 84
3, 422640, Note_on_c, 1, 80, 84
3, 422736, Note_on_c, 1, 80, 0
3, 422736, Note_on_c, 1, 77, 0
3, 422880, Note_on_c, 1, 82, 84
3, 422880, Note_on_c, 1, 79, 84
3, 422976, Note_on_c, 1, 79, 0
3, 422976, Note_on_c, 1, 82, 0
3, 423120, Note_on_c, 1, 79, 84
3, 423120, Note_on_c, 1, 82, 84
3, 423216, Note_on_c, 1, 82, 0
3, 423216, Note_on_c, 1, 79, 0
3, 423360, Note_on_c, 1, 82, 84
3, 423360, Note_on_c, 1, 79, 84
3, 423600, Note_on_c, 1, 79, 0
3, 423600, Note_on_c, 1, 82, 0
3, 423600, Note_on_c, 1, 80, 84
3, 423600, Note_on_c, 1, 77, 84
3, 423840, Note_on_c, 1, 77, 0
3, 423840, Note_on_c, 1, 80, 0
3, 423840, Note_on_c, 1, 75, 84
3, 423840, Note_on_c, 1, 79, 84
3, 424080, Note_on_c, 1, 79, 0
3, 424080, Note_on_c, 1, 75, 0
3, 424080, Note_on_c, 1, 77, 84
3, 424080, Note_on_c, 1, 74, 84
3, 424176, Note_on_c, 1, 74, 0
3, 424176, Note_on_c, 1, 77, 0
3, 424320, Note_on_c, 1, 79, 84
3, 424320, Note_on_c, 1, 75, 84
3, 424560, Note_on_c, 1, 75, 0
3, 424560, Note_on_c, 1, 79, 0
3, 424560, Note_on_c, 1, 77, 84
3, 424560, Note_on_c, 1, 80, 84
3, 424656, Note_on_c, 1, 80, 0
3, 424656, Note_on_c, 1, 77, 0
3, 424800, Note_on_c, 1, 82, 84
3, 424800, Note_on_c, 1, 79, 84
3, 424896, Note_on_c, 1, 79, 0
3, 424896, Note_on_c, 1, 82, 0
3, 425040, Note_on_c, 1, 79, 84
3, 425040, Note_on_c, 1, 82, 84
3, 425136, Note_on_c, 1, 82, 0
3, 425136, Note_on_c, 1, 79, 0
3, 425280, Note_on_c, 1, 82, 84
3, 425280, Note_on_c, 1, 79, 84
3, 425520, Note_on_c, 1, 79, 0
3, 425520, Note_on_c, 1, 82, 0
3, 425520, Note_on_c, 1, 80, 84
3, 425520, Note_on_c, 1, 77, 84
3, 425760, Note_on_c, 1, 77, 0
3, 425760, Note_on_c, 1, 80, 0
3, 425760, Note_on_c, 1, 75, 84
3, 425760, Note_on_c, 1, 79, 84
3, 426000, Note_on_c, 1, 79, 0
3, 426000, Note_on_c, 1, 75, 0
3, 426000, Note_on_c, 1, 77, 84
3, 426000, Note_on_c, 1, 74, 84
3, 426096, Note_on_c, 1, 74, 0
3, 426096, Note_on_c, 1, 77, 0
3, 426240, Note_on_c, 1, 79, 84
3, 426240, Note_on_c, 1, 75, 84
3, 426480, Note_on_c, 1, 75, 0
3, 426480, Note_on_c, 1, 79, 0
3, 426480, Note_on_c, 1, 77, 84
3, 426480, Note_on_c, 1, 80, 84
3, 426576, Note_on_c, 1, 80, 0
3, 426576, Note_on_c, 1, 77, 0
3, 426720, Note_on_c, 1, 82, 84
3, 426720, Note_on_c, 1, 79, 84
3, 426816, Note_on_c, 1, 79, 0
3, 426816, Note_on_c, 1, 82, 0
3, 426960, Note_on_c, 1, 79, 84
3, 426960, Note_on_c, 1, 82, 84
3, 427056, Note_on_c, 1, 82, 0
3, 427056, Note_on_c, 1, 79, 0
3, 427200, Note_on_c, 1, 82, 84
3, 427200, Note_on_c, 1, 79, 84
3, 427440, Note_on_c, 1, 79, 0
3, 427440, Note_on_c, 1, 82, 0
3, 427440, Note_on_c, 1, 80, 84
3, 427440, Note_on_c, 1, 77, 84
3, 427680, Note_on_c, 1, 77, 0
3, 427680, Note_on_c, 1, 80, 0
3, 427680, Note_on_c, 1, 75, 84
3, 427680, Note_on_c, 1, 79, 84
3, 427920, Note_on_c, 1, 79, 0
3, 427920, Note_on_c, 1, 75, 0
3, 427920, Note_on_c, 1, 77, 84
3, 427920, Note_on_c, 1, 74, 84
3, 428016, Note_on_c, 1, 74, 0
3, 428016, Note_on_c, 1, 77, 0
3, 428160, Note_on_c, 1, 79, 56
3, 428160, Note_on_c, 1, 75, 56
3, 428386, Note_on_c, 1, 75, 0
3, 428386, Note_on_c, 1, 79, 0
3, 429120, Note_on_c, 1, 82, 52
3, 429120, Note_on_c, 1, 79, 52
3, 429240, Note_on_c, 1, 79, 0
3, 429240, Note_on_c, 1, 82, 0
3, 429360, Note_on_c, 1, 82, 52
3, 429360, Note_on_c, 1, 79, 52
3, 429720, Note_on_c, 1, 79, 0
3, 429720, Note_on_c, 1, 82, 0
3, 429840, Note_on_c, 1, 82, 52
3, 429840, Note_on_c, 1, 79, 52
3, 429960, Note_on_c, 1, 79, 0
3, 429960, Note_on_c, 1, 82, 0
3, 430080, Note_on_c, 1, 80, 56
3, 430080, Note_on_c, 1, 84, 56
3, 430306, Note_on_c, 1, 84, 0
3, 430306, Note_on_c, 1, 80, 0
3, 431040, Note_on_c, 1, 84, 56
3, 431040, Note_on_c, 1, 80, 56
3, 431266, Note_on_c, 1, 80, 0
3, 431266, Note_on_c, 1, 84, 0
3, 431280, Note_on_c, 1, 84, 56
3, 431280, Note_on_c, 1, 80, 56
3, 431746, Note_on_c, 1, 80, 0
3, 431746, Note_on_c, 1, 84, 0
3, 431760, Note_on_c, 1, 80, 56
3, 431760, Note_on_c, 1, 84, 56
3, 431986, Note_on_c, 1, 84, 0
3, 431986, Note_on_c, 1, 80, 0
3, 432000, Note_on_c, 1, 84, 56
3, 432000, Note_on_c, 1, 81, 56
3, 432226, Note_on_c, 1, 81, 0
3, 432226, Note_on_c, 1, 84, 0
3, 432240, Note_on_c, 1, 84, 56
3, 432240, Note_on_c, 1, 81, 56
3, 432466, Note_on_c, 1, 81, 0
3, 432466, Note_on_c, 1, 84, 0
3, 432480, Note_on_c, 1, 84, 56
3, 432480, Note_on_c, 1, 81, 56
3, 432706, Note_on_c, 1, 81, 0
3, 432706, Note_on_c, 1, 84, 0
3, 432960, Note_on_c, 1, 84, 56
3, 432960, Note_on_c, 1, 81, 56
3, 433186, Note_on_c, 1, 81, 0
3, 433186, Note_on_c, 1, 84, 0
3, 433200, Note_on_c, 1, 84, 56
3, 433200, Note_on_c, 1, 81, 56
3, 433426, Note_on_c, 1, 81, 0
3, 433426, Note_on_c, 1, 84, 0
3, 433440, Note_on_c, 1, 84, 56
3, 433440, Note_on_c, 1, 81, 56
3, 433666, Note_on_c, 1, 81, 0
3, 433666, Note_on_c, 1, 84, 0
3, 433920, Note_on_c, 1, 82, 56
3, 433920, Note_on_c, 1, 79, 56
3, 434146, Note_on_c, 1, 79, 0
3, 434146, Note_on_c, 1, 82, 0
3, 434160, Note_on_c, 1, 79, 56
3, 434160, Note_on_c, 1, 82, 56
3, 434386, Note_on_c, 1, 82, 0
3, 434386, Note_on_c, 1, 79, 0
3, 434400, Note_on_c, 1, 82, 56
3, 434400, Note_on_c, 1, 79, 56
3, 434626, Note_on_c, 1, 79, 0
3, 434626, Note_on_c, 1, 82, 0
3, 434880, Note_on_c, 1, 77, 56
3, 434880, Note_on_c, 1, 82, 56
3, 435106, Note_on_c, 1, 82, 0
3, 435106, Note_on_c, 1, 77, 0
3, 435120, Note_on_c, 1, 82, 56
3, 435120, Note_on_c, 1, 77, 56
3, 435346, Note_on_c, 1, 77, 0
3, 435346, Note_on_c, 1, 82, 0
3, 435360, Note_on_c, 1, 77, 56
3, 435360, Note_on_c, 1, 82, 56
3, 435586, Note_on_c, 1, 82, 0
3, 435586, Note_on_c, 1, 77, 0
3, 435840, Note_on_c, 1, 75, 56
3, 435840, Note_on_c, 1, 79, 56
3, 436066, Note_on_c, 1, 79, 0
3, 436066, Note_on_c, 1, 75, 0
3, 436800, Note_on_c, 1, 82, 52
3, 436800, Note_on_c, 1, 79, 52
3, 436920, Note_on_c, 1, 79, 0
3, 436920, Note_on_c, 1, 82, 0
3, 437040, Note_on_c, 1, 82, 52
3, 437040, Note_on_c, 1, 79, 52
3, 437400, Note_on_c, 1, 79, 0
3, 437400, Note_on_c, 1, 82, 0
3, 437520, Note_on_c, 1, 82, 52
3, 437520, Note_on_c, 1, 79, 52
3, 437640, Note_on_c, 1, 79, 0
3, 437640, Note_on_c, 1, 82, 0
3, 437760, Note_on_c, 1, 80, 56
3, 437760, Note_on_c, 1, 84, 56
3, 437986, Note_on_c, 1, 84, 0
3, 437986, Note_on_c, 1, 80, 0
3, 438720, Note_on_c, 1, 84, 56
3, 438720, Note_on_c, 1, 80, 56
3, 438946, Note_on_c, 1, 80, 0
3, 438946, Note_on_c, 1, 84, 0
3, 438960, Note_on_c, 1, 84, 56
3, 438960, Note_on_c, 1, 80, 56
3, 439426, Note_on_c, 1, 80, 0
3, 439426, Note_on_c, 1, 84, 0
3, 439440, Note_on_c, 1, 80, 56
3, 439440, Note_on_c, 1, 84, 56
3, 439666, Note_on_c, 1, 84, 0
3, 439666, Note_on_c, 1, 80, 0
3, 439680, Note_on_c, 1, 84, 56
3, 439680, Note_on_c, 1, 81, 56
3, 439906, Note_on_c, 1, 81, 0
3, 439906, Note_on_c, 1, 84, 0
3, 439920, Note_on_c, 1, 84, 56
3, 439920, Note_on_c, 1, 81, 56
3, 440146, Note_on_c, 1, 81, 0
3, 440146, Note_on_c, 1, 84, 0
3, 440160, Note_on_c, 1, 84, 56
3, 440160, Note_on_c, 1, 81, 56
3, 440386, Note_on_c, 1, 81, 0
3, 440386, Note_on_c, 1, 84, 0
3, 440640, Note_on_c, 1, 84, 56
3, 440640, Note_on_c, 1, 81, 56
3, 440866, Note_on_c, 1, 81, 0
3, 440866, Note_on_c, 1, 84, 0
3, 440880, Note_on_c, 1, 84, 56
3, 440880, Note_on_c, 1, 81, 56
3, 441106, Note_on_c, 1, 81, 0
3, 441106, Note_on_c, 1, 84, 0
3, 441120, Note_on_c, 1, 84, 56
3, 441120, Note_on_c, 1, 81, 56
3, 441346, Note_on_c, 1, 81, 0
3, 441346, Note_on_c, 1, 84, 0
3, 441600, Note_on_c, 1, 82, 56
3, 441600, Note_on_c, 1, 79, 56
3, 441826, Note_on_c, 1, 79, 0
3, 441826, Note_on_c, 1, 82, 0
3, 441840, Note_on_c, 1, 79, 56
3, 441840, Note_on_c, 1, 82, 56
3, 442066, Note_on_c, 1, 82, 0
3, 442066, Note_on_c, 1, 79, 0
3, 442080, Note_on_c, 1, 82, 56
3, 442080, Note_on_c, 1, 79, 56
3, 442306, Note_on_c, 1, 79, 0
3, 442306, Note_on_c, 1, 82, 0
3, 442560, Note_on_c, 1, 77, 56
3, 442560, Note_on_c, 1, 82, 56
3, 442786, Note_on_c, 1, 82, 0
3, 442786, Note_on_c, 1, 77, 0
3, 442800, Note_on_c, 1, 82, 56
3, 442800, Note_on_c, 1, 77, 56
3, 443026, Note_on_c, 1, 77, 0
3, 443026, Note_on_c, 1, 82, 0
3, 443040, Note_on_c, 1, 77, 56
3, 443040, Note_on_c, 1, 82, 56
3, 443266, Note_on_c, 1, 82, 0
3, 443266, Note_on_c, 1, 77, 0
3, 443520, Note_on_c, 1, 75, 80
3, 443520, Note_on_c, 1, 79, 80
3, 446400, Note_on_c, 1, 79, 0
3, 446400, Note_on_c, 1, 75, 0
3, 446400, Note_on_c, 1, 77, 80
3, 446400, Note_on_c, 1, 80, 100
3, 446880, Note_on_c, 1, 80, 0
3, 446880, Note_on_c, 1, 77, 0
3, 446880, Note_on_c, 1, 74, 80
3, 446880, Note_on_c, 1, 77, 80
3, 447360, Note_on_c, 1, 77, 0
3, 447360, Note_on_c, 1, 74, 0
3, 447360, Note_on_c, 1, 75, 80
3, 447360, Note_on_c, 1, 79, 80
3, 450240, Note_on_c, 1, 79, 0
3, 450240, Note_on_c, 1, 75, 0
3, 450240, Note_on_c, 1, 80, 100
3, 450240, Note_on_c, 1, 77, 80
3, 450720, Note_on_c, 1, 77, 0
3, 450720, Note_on_c, 1, 80, 0
3, 450720, Note_on_c, 1, 77, 80
3, 450720, Note_on_c, 1, 74, 80
3, 451200, Note_on_c, 1, 74, 0
3, 451200, Note_on_c, 1, 77, 0
3, 451200, Note_on_c, 1, 75, 80
3, 451200, Note_on_c, 1, 79, 80
3, 454080, Note_on_c, 1, 79, 0
3, 454080, Note_on_c, 1, 75, 0
3, 454080, Note_on_c, 1, 80, 100
3, 454080, Note_on_c, 1, 77, 80
3, 454560, Note_on_c, 1, 77, 0
3, 454560, Note_on_c, 1, 80, 0
3, 454560, Note_on_c, 1, 77, 80
3, 454560, Note_on_c, 1, 74, 80
3, 455040, Note_on_c, 1, 74, 0
3, 455040, Note_on_c, 1, 77, 0
3, 455040, Note_on_c, 1, 75, 80
3, 455040, Note_on_c, 1, 79, 80
3, 457920, Note_on_c, 1, 79, 0
3, 457920, Note_on_c, 1, 75, 0
3, 457920, Note_on_c, 1, 80, 100
3, 457920, Note_on_c, 1, 77, 80
3, 458400, Note_on_c, 1, 77, 0
3, 458400, Note_on_c, 1, 80, 0
3, 458400, Note_on_c, 1, 77, 80
3, 458400, Note_on_c, 1, 74, 80
3, 458880, Note_on_c, 1, 74, 0
3, 458880, Note_on_c, 1, 77, 0
3, 458880, Note_on_c, 1, 75, 56
3, 458880, Note_on_c, 1, 67, 56
3, 459264, Note_on_c, 1, 67, 0
3, 459264, Note_on_c, 1, 75, 0
3, 460800, Note_on_c, 1, 63, 80
3, 460992, Note_on_c, 1, 63, 0
3, 461280, Note_on_c, 1, 67, 80
3, 461472, Note_on_c, 1, 67, 0
3, 461760, Note_on_c, 1, 70, 80
3, 461952, Note_on_c, 1, 70, 0
3, 462240, Note_on_c, 1, 75, 80
3, 462432, Note_on_c, 1, 75, 0
3, 462720, Note_on_c, 1, 79, 96
3, 462912, Note_on_c, 1, 79, 0
3, 463200, Note_on_c, 1, 75, 96
3, 463392, Note_on_c, 1, 75, 0
3, 463680, Note_on_c, 1, 70, 96
3, 463872, Note_on_c, 1, 70, 0
3, 464160, Note_on_c, 1, 67, 96
3, 464352, Note_on_c, 1, 67, 0
3, 464640, Note_on_c, 1, 63, 96
3, 464832, Note_on_c, 1, 63, 0
3, 465120, Note_on_c, 1, 67, 96
3, 465312, Note_on_c, 1, 67, 0
3, 465600, Note_on_c, 1, 70, 96
3, 465792, Note_on_c, 1, 70, 0
3, 466080, Note_on_c, 1, 75, 96
3, 466272, Note_on_c, 1, 75, 0
3, 466560, Note_on_c, 1, 79, 115
3, 466752, Note_on_c, 1, 79, 0
3, 467040, Note_on_c, 1, 75, 115
3, 467232, Note_on_c, 1, 75, 0
3, 467520, Note_on_c, 1, 70, 115
3, 467712, Note_on_c, 1, 70, 0
3, 468000, Note_on_c, 1, 67, 115
3, 468192, Note_on_c, 1, 67, 0
3, 468480, Note_on_c, 1, 63, 115
3, 468672, Note_on_c, 1, 63, 0
3, 468960, Note_on_c, 1, 67, 115
3, 469152, Note_on_c, 1, 67, 0
3, 469440, Note_on_c, 1, 70, 115
3, 469632, Note_on_c, 1, 70, 0
3, 469920, Note_on_c, 1, 75, 115
3, 470112, Note_on_c, 1, 75, 0
3, 470400, Note_on_c, 1, 79, 127
3, 470592, Note_on_c, 1, 79, 0
3, 470880, Note_on_c, 1, 82, 127
3, 471072, Note_on_c, 1, 82, 0
3, 471360, Note_on_c, 1, 75, 127
3, 471552, Note_on_c, 1, 75, 0
3, 471840, Note_on_c, 1, 79, 127
3, 472032, Note_on_c, 1, 79, 0
3, 472320, Note_on_c, 1, 79, 127
3, 472512, Note_on_c, 1, 79, 0
3, 472800, Note_on_c, 1, 82, 127
3, 472800, Note_on_c, 1, 79, 127
3, 472992, Note_on_c, 1, 79, 0
3, 472992, Note_on_c, 1, 82, 0
3, 473280, Note_on_c, 1, 82, 127
3, 473280, Note_on_c, 1, 79, 127
3, 473472, Note_on_c, 1, 79, 0
3, 473472, Note_on_c, 1, 82, 0
3, 473760, Note_on_c, 1, 82, 127
3, 473760, Note_on_c, 1, 79, 127
3, 473952, Note_on_c, 1, 79, 0
3, 473952, Note_on_c, 1, 82, 0
3, 474240, Note_on_c, 1, 77, 80
3, 474240, Note_on_c, 1, 86, 80
3, 474432, Note_on_c, 1, 86, 0
3, 474432, Note_on_c, 1, 77, 0
3, 474480, Note_on_c, 1, 77, 80
3, 474480, Note_on_c, 1, 86, 80
3, 474864, Note_on_c, 1, 86, 0
3, 474864, Note_on_c, 1, 77, 0
3, 474960, Note_on_c, 1, 77, 80
3, 474960, Note_on_c, 1, 86, 80
3, 475152, Note_on_c, 1, 86, 0
3, 475152, Note_on_c, 1, 77, 0
3, 475200, Note_on_c, 1, 77, 80
3, 475200, Note_on_c, 1, 86, 80
3, 475968, Note_on_c, 1, 86, 0
3, 475968, Note_on_c, 1, 77, 0
3, 478320, Note_on_c, 1, 77, 80
3, 478320, Note_on_c, 1, 86, 80
3, 478512, Note_on_c, 1, 86, 0
3, 478512, Note_on_c, 1, 77, 0
3, 478560, Note_on_c, 1, 77, 80
3, 478560, Note_on_c, 1, 86, 80
3, 478944, Note_on_c, 1, 86, 0
3, 478944, Note_on_c, 1, 77, 0
3, 479040, Note_on_c, 1, 77, 80
3, 479040, Note_on_c, 1, 86, 80
3, 479232, Note_on_c, 1, 86, 0
3, 479232, Note_on_c, 1, 77, 0
3, 479280, Note_on_c, 1, 77, 80
3, 479280, Note_on_c, 1, 86, 80
3, 480048, Note_on_c, 1, 86, 0
3, 480048, Note_on_c, 1, 77, 0
3, 482400, Note_on_c, 1, 86, 76
3, 482400, Note_on_c, 1, 77, 56
3, 482592, Note_on_c, 1, 77, 0
3, 482592, Note_on_c, 1, 86, 0
3, 482640, Note_on_c, 1, 77, 56
3, 482640, Note_on_c, 1, 86, 56
3, 482832, Note_on_c, 1, 86, 0
3, 482832, Note_on_c, 1, 77, 0
3, 482880, Note_on_c, 1, 86, 56
3, 482880, Note_on_c, 1, 77, 56
3, 483072, Note_on_c, 1, 77, 0
3, 483072, Note_on_c, 1, 86, 0
3, 483120, Note_on_c, 1, 86, 56
3, 483120, Note_on_c, 1, 77, 56
3, 483312, Note_on_c, 1, 77, 0
3, 483312, Note_on_c, 1, 86, 0
3, 483360, Note_on_c, 1, 86, 76
3, 483360, Note_on_c, 1, 77, 56
3, 483552, Note_on_c, 1, 77, 0
3, 483552, Note_on_c, 1, 86, 0
3, 483600, Note_on_c, 1, 86, 56
3, 483600, Note_on_c, 1, 77, 56
3, 483792, Note_on_c, 1, 77, 0
3, 483792, Note_on_c, 1, 86, 0
3, 483840, Note_on_c, 1, 86, 56
3, 483840, Note_on_c, 1, 77, 56
3, 484032, Note_on_c, 1, 77, 0
3, 484032, Note_on_c, 1, 86, 0
3, 484080, Note_on_c, 1, 77, 56
3, 484080, Note_on_c, 1, 86, 56
3, 484272, Note_on_c, 1, 86, 0
3, 484272, Note_on_c, 1, 77, 0
3, 484320, Note_on_c, 1, 86, 76
3, 484320, Note_on_c, 1, 77, 56
3, 484512, Note_on_c, 1, 77, 0
3, 484512, Note_on_c, 1, 86, 0
3, 484560, Note_on_c, 1, 86, 56
3, 484560, Note_on_c, 1, 77, 56
3, 484752, Note_on_c, 1, 77, 0
3, 484752, Note_on_c, 1, 86, 0
3, 484800, Note_on_c, 1, 86, 56
3, 484800, Note_on_c, 1, 77, 56
3, 484992, Note_on_c, 1, 77, 0
3, 484992, Note_on_c, 1, 86, 0
3, 485040, Note_on_c, 1, 77, 56
3, 485040, Note_on_c, 1, 86, 56
3, 485232, Note_on_c, 1, 86, 0
3, 485232, Note_on_c, 1, 77, 0
3, 485280, Note_on_c, 1, 86, 76
3, 485280, Note_on_c, 1, 77, 56
3, 485472, Note_on_c, 1, 77, 0
3, 485472, Note_on_c, 1, 86, 0
3, 485520, Note_on_c, 1, 86, 56
3, 485520, Note_on_c, 1, 77, 56
3, 485712, Note_on_c, 1, 77, 0
3, 485712, Note_on_c, 1, 86, 0
3, 485760, Note_on_c, 1, 86, 56
3, 485760, Note_on_c, 1, 77, 56
3, 485952, Note_on_c, 1, 77, 0
3, 485952, Note_on_c, 1, 86, 0
3, 486000, Note_on_c, 1, 77, 56
3, 486000, Note_on_c, 1, 86, 56
3, 486192, Note_on_c, 1, 86, 0
3, 486192, Note_on_c, 1, 77, 0
3, 486240, Note_on_c, 1, 82, 56
3, 486240, Note_on_c, 1, 79, 56
3, 486384, Note_on_c, 1, 79, 0
3, 486384, Note_on_c, 1, 82, 0
3, 486720, Note_on_c, 1, 79, 56
3, 486720, Note_on_c, 1, 82, 56
3, 486864, Note_on_c, 1, 82, 0
3, 486864, Note_on_c, 1, 79, 0
3, 487200, Note_on_c, 1, 82, 56
3, 487200, Note_on_c, 1, 79, 56
3, 487344, Note_on_c, 1, 79, 0
3, 487344, Note_on_c, 1, 82, 0
3, 487680, Note_on_c, 1, 79, 56
3, 487680, Note_on_c, 1, 82, 56
3, 487824, Note_on_c, 1, 82, 0
3, 487824, Note_on_c, 1, 79, 0
3, 488160, Note_on_c, 1, 82, 56
3, 488160, Note_on_c, 1, 79, 56
3, 488304, Note_on_c, 1, 79, 0
3, 488304, Note_on_c, 1, 82, 0
3, 488640, Note_on_c, 1, 79, 56
3, 488640, Note_on_c, 1, 82, 56
3, 488784, Note_on_c, 1, 82, 0
3, 488784, Note_on_c, 1, 79, 0
3, 489120, Note_on_c, 1, 82, 56
3, 489120, Note_on_c, 1, 79, 56
3, 489264, Note_on_c, 1, 79, 0
3, 489264, Note_on_c, 1, 82, 0
3, 489600, Note_on_c, 1, 79, 56
3, 489600, Note_on_c, 1, 82, 56
3, 489744, Note_on_c, 1, 82, 0
3, 489744, Note_on_c, 1, 79, 0
3, 490080, Note_on_c, 1, 79, 56
3, 490080, Note_on_c, 1, 82, 56
3, 490224, Note_on_c, 1, 82, 0
3, 490224, Note_on_c, 1, 79, 0
3, 492000, Note_on_c, 1, 79, 56
3, 492000, Note_on_c, 1, 82, 56
3, 492144, Note_on_c, 1, 82, 0
3, 492144, Note_on_c, 1, 79, 0
3, 493920, Note_on_c, 1, 67, 56
3, 493920, Note_on_c, 1, 75, 56
3, 494064, Note_on_c, 1, 75, 0
3, 494064, Note_on_c, 1, 67, 0
3, 495000, Note_on_c, 1, 79, 56
3, 495000, Note_on_c, 1, 75, 56
3, 495144, Note_on_c, 1, 75, 0
3, 495144, Note_on_c, 1, 79, 0
3, 496080, Note_on_c, 1, 67, 56
3, 496080, Note_on_c, 1, 75, 56
3, 496224, Note_on_c, 1, 75, 0
3, 496224, Note_on_c, 1, 67, 0
3, 497160, Note_on_c, 1, 75, 56
3, 497160, Note_on_c, 1, 79, 56
3, 497304, Note_on_c, 1, 79, 0
3, 497304, Note_on_c, 1, 75, 0
3, 498360, Note_on_c, 1, 75, 56
3, 498360, Note_on_c, 1, 67, 56
3, 498504, Note_on_c, 1, 67, 0
3, 498504, Note_on_c, 1, 75, 0
3, 498504, End_track
4, 0, Start_track
4, 0, Title_t, "Clarinets           "
4, 0, Program_c, 2, 71
4, 0, Control_c, 2, 7, 90
4, 0, Control_c, 2, 10, 66
4, 2880, Control_c, 2, 91, 100
4, 11520, Note_on_c, 2, 72, 43
4, 13200, Note_on_c, 2, 72, 0
4, 14160, Note_on_c, 2, 72, 26
4, 14210, Note_on_c, 2, 72, 0
4, 14400, Note_on_c, 2, 72, 26
4, 14446, Note_on_c, 2, 72, 0
4, 14640, Note_on_c, 2, 72, 27
4, 14684, Note_on_c, 2, 72, 0
4, 15120, Note_on_c, 2, 72, 26
4, 15154, Note_on_c, 2, 72, 0
4, 15360, Note_on_c, 2, 72, 26
4, 15402, Note_on_c, 2, 72, 0
4, 15600, Note_on_c, 2, 72, 29
4, 15642, Note_on_c, 2, 72, 0
4, 16080, Note_on_c, 2, 72, 26
4, 16124, Note_on_c, 2, 72, 0
4, 16320, Note_on_c, 2, 72, 28
4, 16364, Note_on_c, 2, 72, 0
4, 16560, Note_on_c, 2, 72, 29
4, 16606, Note_on_c, 2, 72, 0
4, 17040, Note_on_c, 2, 73, 25
4, 17084, Note_on_c, 2, 73, 0
4, 17280, Note_on_c, 2, 73, 26
4, 17316, Note_on_c, 2, 73, 0
4, 17520, Note_on_c, 2, 73, 27
4, 17560, Note_on_c, 2, 73, 0
4, 18000, Note_on_c, 2, 73, 26
4, 18042, Note_on_c, 2, 73, 0
4, 18240, Note_on_c, 2, 73, 26
4, 18280, Note_on_c, 2, 73, 0
4, 18480, Note_on_c, 2, 73, 26
4, 18516, Note_on_c, 2, 73, 0
4, 18960, Note_on_c, 2, 72, 27
4, 19002, Note_on_c, 2, 72, 0
4, 19200, Note_on_c, 2, 72, 26
4, 19242, Note_on_c, 2, 72, 0
4, 19440, Note_on_c, 2, 72, 26
4, 19480, Note_on_c, 2, 72, 0
4, 19920, Note_on_c, 2, 73, 25
4, 19956, Note_on_c, 2, 73, 0
4, 20160, Note_on_c, 2, 73, 26
4, 20200, Note_on_c, 2, 73, 0
4, 20400, Note_on_c, 2, 73, 25
4, 20436, Note_on_c, 2, 73, 0
4, 20880, Note_on_c, 2, 72, 27
4, 20922, Note_on_c, 2, 72, 0
4, 21120, Note_on_c, 2, 72, 27
4, 21156, Note_on_c, 2, 72, 0
4, 27840, Note_on_c, 2, 68, 31
4, 27840, Note_on_c, 2, 77, 48
4, 29520, Note_on_c, 2, 77, 0
4, 29520, Note_on_c, 2, 68, 0
4, 30240, Note_on_c, 2, 80, 59
4, 30360, Note_on_c, 2, 80, 0
4, 30360, Note_on_c, 2, 79, 60
4, 30480, Note_on_c, 2, 79, 0
4, 30480, Note_on_c, 2, 77, 60
4, 30624, Note_on_c, 2, 77, 0
4, 30690, Note_on_c, 2, 79, 60
4, 30720, Note_on_c, 2, 79, 0
4, 30720, Note_on_c, 2, 77, 60
4, 30840, Note_on_c, 2, 77, 0
4, 30840, Note_on_c, 2, 75, 60
4, 30960, Note_on_c, 2, 75, 0
4, 30960, Note_on_c, 2, 77, 60
4, 31104, Note_on_c, 2, 77, 0
4, 31200, Note_on_c, 2, 79, 51
4, 31316, Note_on_c, 2, 79, 0
4, 31320, Note_on_c, 2, 77, 47
4, 31440, Note_on_c, 2, 75, 43
4, 31466, Note_on_c, 2, 77, 0
4, 31754, Note_on_c, 2, 75, 0
4, 31920, Note_on_c, 2, 75, 56
4, 32400, Note_on_c, 2, 74, 49
4, 32402, Note_on_c, 2, 75, 0
4, 32520, Note_on_c, 2, 75, 49
4, 32552, Note_on_c, 2, 74, 0
4, 32640, Note_on_c, 2, 77, 51
4, 32666, Note_on_c, 2, 75, 0
4, 32760, Note_on_c, 2, 70, 47
4, 32780, Note_on_c, 2, 77, 0
4, 32820, Note_on_c, 2, 70, 0
4, 32880, Note_on_c, 2, 72, 55
4, 32920, Note_on_c, 2, 72, 0
4, 33000, Note_on_c, 2, 74, 55
4, 33036, Note_on_c, 2, 74, 0
4, 33120, Note_on_c, 2, 75, 53
4, 33152, Note_on_c, 2, 75, 0
4, 33240, Note_on_c, 2, 77, 53
4, 33272, Note_on_c, 2, 77, 0
4, 33360, Note_on_c, 2, 79, 54
4, 33390, Note_on_c, 2, 79, 0
4, 33480, Note_on_c, 2, 80, 54
4, 33516, Note_on_c, 2, 80, 0
4, 33600, Note_on_c, 2, 82, 53
4, 33636, Note_on_c, 2, 82, 0
4, 33720, Note_on_c, 2, 82, 53
4, 33756, Note_on_c, 2, 82, 0
4, 33840, Note_on_c, 2, 82, 42
4, 33876, Note_on_c, 2, 82, 0
4, 33960, Note_on_c, 2, 82, 39
4, 34002, Note_on_c, 2, 82, 0
4, 34080, Note_on_c, 2, 82, 37
4, 35766, Note_on_c, 2, 82, 0
4, 38160, Note_on_c, 2, 74, 45
4, 38160, Note_on_c, 2, 70, 41
4, 38270, Note_on_c, 2, 70, 0
4, 38280, Note_on_c, 2, 72, 44
4, 38280, Note_on_c, 2, 75, 40
4, 38312, Note_on_c, 2, 74, 0
4, 38390, Note_on_c, 2, 72, 0
4, 38400, Note_on_c, 2, 77, 48
4, 38400, Note_on_c, 2, 74, 45
4, 38426, Note_on_c, 2, 75, 0
4, 38472, Note_on_c, 2, 74, 0
4, 38476, Note_on_c, 2, 77, 0
4, 38640, Note_on_c, 2, 77, 41
4, 38640, Note_on_c, 2, 74, 40
4, 38746, Note_on_c, 2, 74, 0
4, 38760, Note_on_c, 2, 75, 51
4, 38760, Note_on_c, 2, 79, 42
4, 38864, Note_on_c, 2, 77, 0
4, 38880, Note_on_c, 2, 77, 27
4, 38880, Note_on_c, 2, 80, 50
4, 38882, Note_on_c, 2, 75, 0
4, 38896, Note_on_c, 2, 79, 0
4, 38980, Note_on_c, 2, 80, 0
4, 38990, Note_on_c, 2, 77, 0
4, 41520, Note_on_c, 2, 77, 41
4, 41520, Note_on_c, 2, 74, 35
4, 41622, Note_on_c, 2, 74, 0
4, 41640, Note_on_c, 2, 75, 40
4, 41640, Note_on_c, 2, 79, 38
4, 41654, Note_on_c, 2, 77, 0
4, 41760, Note_on_c, 2, 77, 39
4, 41760, Note_on_c, 2, 80, 37
4, 41762, Note_on_c, 2, 75, 0
4, 41792, Note_on_c, 2, 79, 0
4, 41870, Note_on_c, 2, 80, 0
4, 41880, Note_on_c, 2, 75, 40
4, 41880, Note_on_c, 2, 79, 36
4, 41912, Note_on_c, 2, 77, 0
4, 41990, Note_on_c, 2, 79, 0
4, 42000, Note_on_c, 2, 77, 39
4, 42000, Note_on_c, 2, 74, 30
4, 42010, Note_on_c, 2, 75, 0
4, 42090, Note_on_c, 2, 74, 0
4, 42094, Note_on_c, 2, 77, 0
4, 45840, Note_on_c, 2, 70, 60
4, 45840, Note_on_c, 2, 79, 60
4, 45882, Note_on_c, 2, 79, 0
4, 45882, Note_on_c, 2, 70, 0
4, 46080, Note_on_c, 2, 79, 60
4, 46080, Note_on_c, 2, 70, 55
4, 46402, Note_on_c, 2, 79, 0
4, 46406, Note_on_c, 2, 70, 0
4, 46560, Note_on_c, 2, 67, 68
4, 46560, Note_on_c, 2, 75, 64
4, 46634, Note_on_c, 2, 75, 0
4, 46636, Note_on_c, 2, 67, 0
4, 46800, Note_on_c, 2, 70, 65
4, 47510, Note_on_c, 2, 70, 0
4, 47760, Note_on_c, 2, 79, 46
4, 47760, Note_on_c, 2, 70, 60
4, 47842, Note_on_c, 2, 70, 0
4, 47842, Note_on_c, 2, 79, 0
4, 48000, Note_on_c, 2, 70, 56
4, 48000, Note_on_c, 2, 79, 56
4, 48450, Note_on_c, 2, 79, 0
4, 48450, Note_on_c, 2, 70, 0
4, 48480, Note_on_c, 2, 67, 55
4, 48480, Note_on_c, 2, 75, 56
4, 48556, Note_on_c, 2, 75, 0
4, 48562, Note_on_c, 2, 67, 0
4, 48720, Note_on_c, 2, 70, 63
4, 49244, Note_on_c, 2, 70, 0
4, 49560, Note_on_c, 2, 67, 37
4, 49560, Note_on_c, 2, 75, 47
4, 49618, Note_on_c, 2, 75, 0
4, 49618, Note_on_c, 2, 67, 0
4, 49620, Note_on_c, 2, 68, 80
4, 49620, Note_on_c, 2, 77, 80
4, 49668, Note_on_c, 2, 77, 0
4, 49668, Note_on_c, 2, 68, 0
4, 49680, Note_on_c, 2, 70, 61
4, 49680, Note_on_c, 2, 79, 65
4, 50000, Note_on_c, 2, 79, 0
4, 50002, Note_on_c, 2, 70, 0
4, 50160, Note_on_c, 2, 75, 53
4, 50160, Note_on_c, 2, 67, 52
4, 50242, Note_on_c, 2, 67, 0
4, 50242, Note_on_c, 2, 75, 0
4, 50400, Note_on_c, 2, 74, 59
4, 50400, Note_on_c, 2, 67, 51
4, 50474, Note_on_c, 2, 74, 0
4, 50482, Note_on_c, 2, 67, 0
4, 50640, Note_on_c, 2, 72, 65
4, 50640, Note_on_c, 2, 68, 64
4, 51024, Note_on_c, 2, 68, 0
4, 51024, Note_on_c, 2, 72, 0
4, 51120, Note_on_c, 2, 68, 50
4, 51120, Note_on_c, 2, 72, 61
4, 51228, Note_on_c, 2, 72, 0
4, 51228, Note_on_c, 2, 68, 0
4, 51360, Note_on_c, 2, 68, 55
4, 51360, Note_on_c, 2, 72, 62
4, 51468, Note_on_c, 2, 72, 0
4, 51468, Note_on_c, 2, 68, 0
4, 51600, Note_on_c, 2, 74, 71
4, 51600, Note_on_c, 2, 65, 53
4, 52032, Note_on_c, 2, 65, 0
4, 52032, Note_on_c, 2, 74, 0
4, 52080, Note_on_c, 2, 65, 44
4, 52080, Note_on_c, 2, 74, 58
4, 52188, Note_on_c, 2, 74, 0
4, 52188, Note_on_c, 2, 65, 0
4, 52320, Note_on_c, 2, 65, 49
4, 52320, Note_on_c, 2, 74, 59
4, 52428, Note_on_c, 2, 74, 0
4, 52428, Note_on_c, 2, 65, 0
4, 52560, Note_on_c, 2, 67, 45
4, 52560, Note_on_c, 2, 75, 65
4, 52668, Note_on_c, 2, 75, 0
4, 52668, Note_on_c, 2, 67, 0
4, 53400, Note_on_c, 2, 75, 56
4, 53400, Note_on_c, 2, 67, 56
4, 53460, Note_on_c, 2, 67, 0
4, 53460, Note_on_c, 2, 75, 0
4, 53460, Note_on_c, 2, 68, 56
4, 53460, Note_on_c, 2, 77, 56
4, 53520, Note_on_c, 2, 77, 0
4, 53520, Note_on_c, 2, 68, 0
4, 53520, Note_on_c, 2, 70, 44
4, 53520, Note_on_c, 2, 79, 45
4, 53810, Note_on_c, 2, 79, 0
4, 53826, Note_on_c, 2, 70, 0
4, 54000, Note_on_c, 2, 67, 42
4, 54000, Note_on_c, 2, 75, 41
4, 54070, Note_on_c, 2, 75, 0
4, 54070, Note_on_c, 2, 67, 0
4, 54240, Note_on_c, 2, 75, 38
4, 54240, Note_on_c, 2, 67, 33
4, 54292, Note_on_c, 2, 75, 0
4, 54304, Note_on_c, 2, 67, 0
4, 54480, Note_on_c, 2, 65, 40
4, 54480, Note_on_c, 2, 74, 44
4, 54796, Note_on_c, 2, 65, 0
4, 54804, Note_on_c, 2, 74, 0
4, 54960, Note_on_c, 2, 65, 28
4, 54960, Note_on_c, 2, 74, 41
4, 55010, Note_on_c, 2, 65, 0
4, 55042, Note_on_c, 2, 74, 0
4, 65040, Note_on_c, 2, 67, 34
4, 65520, Note_on_c, 2, 70, 52
4, 65534, Note_on_c, 2, 67, 0
4, 66000, Note_on_c, 2, 68, 54
4, 66040, Note_on_c, 2, 70, 0
4, 66480, Note_on_c, 2, 65, 45
4, 66500, Note_on_c, 2, 68, 0
4, 66960, Note_on_c, 2, 67, 56
4, 66974, Note_on_c, 2, 65, 0
4, 67424, Note_on_c, 2, 67, 0
4, 67440, Note_on_c, 2, 63, 59
4, 67920, Note_on_c, 2, 65, 66
4, 67930, Note_on_c, 2, 63, 0
4, 68400, Note_on_c, 2, 58, 50
4, 68402, Note_on_c, 2, 65, 0
4, 68776, Note_on_c, 2, 58, 0
4, 68880, Note_on_c, 2, 67, 65
4, 69360, Note_on_c, 2, 67, 0
4, 69360, Note_on_c, 2, 70, 64
4, 69840, Note_on_c, 2, 68, 60
4, 69850, Note_on_c, 2, 70, 0
4, 70320, Note_on_c, 2, 65, 53
4, 70324, Note_on_c, 2, 68, 0
4, 70800, Note_on_c, 2, 67, 64
4, 70814, Note_on_c, 2, 65, 0
4, 71280, Note_on_c, 2, 70, 59
4, 71310, Note_on_c, 2, 67, 0
4, 71760, Note_on_c, 2, 72, 73
4, 71802, Note_on_c, 2, 70, 0
4, 72240, Note_on_c, 2, 68, 62
4, 72266, Note_on_c, 2, 72, 0
4, 72720, Note_on_c, 2, 70, 58
4, 72752, Note_on_c, 2, 68, 0
4, 73200, Note_on_c, 2, 74, 62
4, 73206, Note_on_c, 2, 70, 0
4, 73680, Note_on_c, 2, 75, 70
4, 73710, Note_on_c, 2, 74, 0
4, 74160, Note_on_c, 2, 72, 64
4, 74182, Note_on_c, 2, 75, 0
4, 74640, Note_on_c, 2, 74, 70
4, 74670, Note_on_c, 2, 72, 0
4, 75120, Note_on_c, 2, 77, 97
4, 75126, Note_on_c, 2, 74, 0
4, 75600, Note_on_c, 2, 79, 86
4, 75652, Note_on_c, 2, 77, 0
4, 76080, Note_on_c, 2, 75, 79
4, 76106, Note_on_c, 2, 79, 0
4, 76560, Note_on_c, 2, 79, 83
4, 76590, Note_on_c, 2, 75, 0
4, 77022, Note_on_c, 2, 79, 0
4, 77040, Note_on_c, 2, 76, 67
4, 77436, Note_on_c, 2, 76, 0
4, 77520, Note_on_c, 2, 77, 81
4, 77520, Note_on_c, 2, 80, 84
4, 77952, Note_on_c, 2, 77, 0
4, 78000, Note_on_c, 2, 68, 68
4, 78000, Note_on_c, 2, 77, 81
4, 78076, Note_on_c, 2, 80, 0
4, 78150, Note_on_c, 2, 68, 0
4, 78152, Note_on_c, 2, 77, 0
4, 78480, Note_on_c, 2, 68, 67
4, 78480, Note_on_c, 2, 77, 80
4, 78960, Note_on_c, 2, 74, 62
4, 78960, Note_on_c, 2, 65, 55
4, 79006, Note_on_c, 2, 68, 0
4, 79032, Note_on_c, 2, 77, 0
4, 79214, Note_on_c, 2, 74, 0
4, 79256, Note_on_c, 2, 65, 0
4, 79440, Note_on_c, 2, 77, 86
4, 79440, Note_on_c, 2, 80, 85
4, 79834, Note_on_c, 2, 77, 0
4, 79920, Note_on_c, 2, 68, 67
4, 79920, Note_on_c, 2, 77, 83
4, 79974, Note_on_c, 2, 80, 0
4, 80074, Note_on_c, 2, 68, 0
4, 80076, Note_on_c, 2, 77, 0
4, 80400, Note_on_c, 2, 77, 91
4, 80400, Note_on_c, 2, 68, 66
4, 80864, Note_on_c, 2, 68, 0
4, 80880, Note_on_c, 2, 65, 65
4, 80880, Note_on_c, 2, 74, 65
4, 80890, Note_on_c, 2, 77, 0
4, 81164, Note_on_c, 2, 65, 0
4, 81170, Note_on_c, 2, 74, 0
4, 81240, Note_on_c, 2, 80, 85
4, 81240, Note_on_c, 2, 74, 74
4, 81314, Note_on_c, 2, 74, 0
4, 81364, Note_on_c, 2, 80, 0
4, 81600, Note_on_c, 2, 74, 76
4, 81600, Note_on_c, 2, 80, 84
4, 81924, Note_on_c, 2, 80, 0
4, 81926, Note_on_c, 2, 74, 0
4, 82080, Note_on_c, 2, 74, 78
4, 82080, Note_on_c, 2, 80, 84
4, 82390, Note_on_c, 2, 74, 0
4, 82396, Note_on_c, 2, 80, 0
4, 82560, Note_on_c, 2, 74, 78
4, 82560, Note_on_c, 2, 80, 81
4, 82860, Note_on_c, 2, 74, 0
4, 82876, Note_on_c, 2, 80, 0
4, 83040, Note_on_c, 2, 80, 84
4, 83040, Note_on_c, 2, 74, 77
4, 83364, Note_on_c, 2, 74, 0
4, 83364, Note_on_c, 2, 80, 0
4, 83520, Note_on_c, 2, 80, 95
4, 83520, Note_on_c, 2, 74, 81
4, 83830, Note_on_c, 2, 80, 0
4, 83846, Note_on_c, 2, 74, 0
4, 84000, Note_on_c, 2, 74, 78
4, 84000, Note_on_c, 2, 80, 93
4, 84344, Note_on_c, 2, 80, 0
4, 84360, Note_on_c, 2, 74, 0
4, 84480, Note_on_c, 2, 74, 78
4, 84480, Note_on_c, 2, 80, 91
4, 84774, Note_on_c, 2, 74, 0
4, 84786, Note_on_c, 2, 80, 0
4, 84960, Note_on_c, 2, 74, 73
4, 84960, Note_on_c, 2, 80, 81
4, 85052, Note_on_c, 2, 80, 0
4, 85060, Note_on_c, 2, 74, 0
4, 85200, Note_on_c, 2, 79, 87
4, 85200, Note_on_c, 2, 75, 91
4, 85262, Note_on_c, 2, 75, 0
4, 85284, Note_on_c, 2, 79, 0
4, 85440, Note_on_c, 2, 70, 80
4, 85440, Note_on_c, 2, 79, 85
4, 85704, Note_on_c, 2, 79, 0
4, 85704, Note_on_c, 2, 70, 0
4, 85920, Note_on_c, 2, 67, 86
4, 85920, Note_on_c, 2, 75, 88
4, 85996, Note_on_c, 2, 75, 0
4, 86000, Note_on_c, 2, 67, 0
4, 86160, Note_on_c, 2, 70, 91
4, 86160, Note_on_c, 2, 67, 79
4, 86990, Note_on_c, 2, 70, 0
4, 86994, Note_on_c, 2, 67, 0
4, 87120, Note_on_c, 2, 70, 85
4, 87120, Note_on_c, 2, 79, 86
4, 87194, Note_on_c, 2, 70, 0
4, 87214, Note_on_c, 2, 79, 0
4, 87360, Note_on_c, 2, 70, 90
4, 87360, Note_on_c, 2, 79, 85
4, 87640, Note_on_c, 2, 79, 0
4, 87654, Note_on_c, 2, 70, 0
4, 87840, Note_on_c, 2, 75, 77
4, 87840, Note_on_c, 2, 67, 80
4, 87930, Note_on_c, 2, 67, 0
4, 87934, Note_on_c, 2, 75, 0
4, 88080, Note_on_c, 2, 70, 94
4, 88080, Note_on_c, 2, 67, 70
4, 88576, Note_on_c, 2, 67, 0
4, 88614, Note_on_c, 2, 70, 0
4, 88920, Note_on_c, 2, 75, 75
4, 88978, Note_on_c, 2, 75, 0
4, 88980, Note_on_c, 2, 77, 75
4, 89038, Note_on_c, 2, 77, 0
4, 89040, Note_on_c, 2, 75, 67
4, 89040, Note_on_c, 2, 79, 67
4, 89490, Note_on_c, 2, 79, 0
4, 89490, Note_on_c, 2, 75, 0
4, 89520, Note_on_c, 2, 70, 54
4, 89520, Note_on_c, 2, 75, 75
4, 89746, Note_on_c, 2, 75, 0
4, 89746, Note_on_c, 2, 70, 0
4, 89760, Note_on_c, 2, 74, 75
4, 89760, Note_on_c, 2, 67, 61
4, 89986, Note_on_c, 2, 67, 0
4, 89986, Note_on_c, 2, 74, 0
4, 90000, Note_on_c, 2, 72, 94
4, 90000, Note_on_c, 2, 68, 68
4, 90290, Note_on_c, 2, 68, 0
4, 90290, Note_on_c, 2, 72, 0
4, 90480, Note_on_c, 2, 72, 90
4, 90480, Note_on_c, 2, 68, 67
4, 90564, Note_on_c, 2, 72, 0
4, 90574, Note_on_c, 2, 68, 0
4, 90720, Note_on_c, 2, 68, 61
4, 90720, Note_on_c, 2, 72, 80
4, 90802, Note_on_c, 2, 72, 0
4, 90836, Note_on_c, 2, 68, 0
4, 90960, Note_on_c, 2, 65, 51
4, 90960, Note_on_c, 2, 74, 94
4, 91266, Note_on_c, 2, 74, 0
4, 91290, Note_on_c, 2, 65, 0
4, 91440, Note_on_c, 2, 65, 62
4, 91440, Note_on_c, 2, 74, 87
4, 91522, Note_on_c, 2, 65, 0
4, 91532, Note_on_c, 2, 74, 0
4, 91680, Note_on_c, 2, 74, 83
4, 91680, Note_on_c, 2, 65, 65
4, 91782, Note_on_c, 2, 74, 0
4, 91786, Note_on_c, 2, 65, 0
4, 91920, Note_on_c, 2, 75, 94
4, 91920, Note_on_c, 2, 67, 76
4, 92240, Note_on_c, 2, 75, 0
4, 92250, Note_on_c, 2, 67, 0
4, 92760, Note_on_c, 2, 75, 75
4, 92818, Note_on_c, 2, 75, 0
4, 92820, Note_on_c, 2, 77, 75
4, 92878, Note_on_c, 2, 77, 0
4, 92880, Note_on_c, 2, 75, 67
4, 92880, Note_on_c, 2, 79, 67
4, 93330, Note_on_c, 2, 79, 0
4, 93330, Note_on_c, 2, 75, 0
4, 93360, Note_on_c, 2, 70, 54
4, 93360, Note_on_c, 2, 75, 75
4, 93586, Note_on_c, 2, 75, 0
4, 93586, Note_on_c, 2, 70, 0
4, 93600, Note_on_c, 2, 74, 75
4, 93600, Note_on_c, 2, 67, 61
4, 93826, Note_on_c, 2, 67, 0
4, 93826, Note_on_c, 2, 74, 0
4, 93840, Note_on_c, 2, 68, 68
4, 93840, Note_on_c, 2, 72, 94
4, 94130, Note_on_c, 2, 72, 0
4, 94130, Note_on_c, 2, 68, 0
4, 94320, Note_on_c, 2, 72, 90
4, 94320, Note_on_c, 2, 68, 67
4, 94404, Note_on_c, 2, 72, 0
4, 94414, Note_on_c, 2, 68, 0
4, 94560, Note_on_c, 2, 68, 61
4, 94560, Note_on_c, 2, 72, 80
4, 94642, Note_on_c, 2, 72, 0
4, 94676, Note_on_c, 2, 68, 0
4, 94800, Note_on_c, 2, 65, 65
4, 94800, Note_on_c, 2, 74, 85
4, 95114, Note_on_c, 2, 74, 0
4, 95176, Note_on_c, 2, 65, 0
4, 95280, Note_on_c, 2, 74, 81
4, 95280, Note_on_c, 2, 65, 61
4, 95366, Note_on_c, 2, 74, 0
4, 95384, Note_on_c, 2, 65, 0
4, 95520, Note_on_c, 2, 74, 79
4, 95520, Note_on_c, 2, 65, 61
4, 95614, Note_on_c, 2, 74, 0
4, 95632, Note_on_c, 2, 65, 0
4, 95760, Note_on_c, 2, 75, 39
4, 95760, Note_on_c, 2, 63, 50
4, 98160, Note_on_c, 2, 63, 0
4, 98160, Note_on_c, 2, 75, 0
4, 98160, Note_on_c, 2, 64, 50
4, 98160, Note_on_c, 2, 76, 39
4, 98640, Note_on_c, 2, 76, 0
4, 98640, Note_on_c, 2, 64, 0
4, 98640, Note_on_c, 2, 65, 51
4, 98640, Note_on_c, 2, 77, 42
4, 99120, Note_on_c, 2, 77, 0
4, 99120, Note_on_c, 2, 65, 0
4, 99600, Note_on_c, 2, 77, 39
4, 99600, Note_on_c, 2, 65, 50
4, 102000, Note_on_c, 2, 65, 0
4, 102000, Note_on_c, 2, 77, 0
4, 102000, Note_on_c, 2, 78, 39
4, 102000, Note_on_c, 2, 66, 50
4, 102480, Note_on_c, 2, 66, 0
4, 102480, Note_on_c, 2, 78, 0
4, 102480, Note_on_c, 2, 67, 51
4, 102480, Note_on_c, 2, 79, 42
4, 102960, Note_on_c, 2, 79, 0
4, 102960, Note_on_c, 2, 67, 0
4, 103440, Note_on_c, 2, 77, 58
4, 104340, Note_on_c, 2, 77, 0
4, 104400, Note_on_c, 2, 75, 49
4, 105234, Note_on_c, 2, 75, 0
4, 105360, Note_on_c, 2, 72, 53
4, 105360, Note_on_c, 2, 60, 53
4, 106100, Note_on_c, 2, 60, 0
4, 106146, Note_on_c, 2, 72, 0
4, 106320, Note_on_c, 2, 69, 56
4, 106320, Note_on_c, 2, 57, 45
4, 107124, Note_on_c, 2, 57, 0
4, 107136, Note_on_c, 2, 69, 0
4, 107280, Note_on_c, 2, 70, 61
4, 107280, Note_on_c, 2, 58, 51
4, 107600, Note_on_c, 2, 58, 0
4, 107626, Note_on_c, 2, 70, 0
4, 107760, Note_on_c, 2, 65, 55
4, 107760, Note_on_c, 2, 74, 54
4, 108056, Note_on_c, 2, 65, 0
4, 108104, Note_on_c, 2, 74, 0
4, 108240, Note_on_c, 2, 75, 62
4, 108240, Note_on_c, 2, 67, 55
4, 108490, Note_on_c, 2, 67, 0
4, 108496, Note_on_c, 2, 75, 0
4, 108720, Note_on_c, 2, 67, 56
4, 108720, Note_on_c, 2, 75, 60
4, 108936, Note_on_c, 2, 67, 0
4, 109006, Note_on_c, 2, 75, 0
4, 109200, Note_on_c, 2, 65, 53
4, 109200, Note_on_c, 2, 74, 56
4, 109376, Note_on_c, 2, 65, 0
4, 109386, Note_on_c, 2, 74, 0
4, 109680, Note_on_c, 2, 74, 51
4, 109680, Note_on_c, 2, 77, 62
4, 109914, Note_on_c, 2, 74, 0
4, 109966, Note_on_c, 2, 77, 0
4, 110160, Note_on_c, 2, 75, 64
4, 110160, Note_on_c, 2, 67, 52
4, 110344, Note_on_c, 2, 75, 0
4, 110376, Note_on_c, 2, 67, 0
4, 110640, Note_on_c, 2, 75, 68
4, 110640, Note_on_c, 2, 79, 66
4, 110842, Note_on_c, 2, 75, 0
4, 110874, Note_on_c, 2, 79, 0
4, 111120, Note_on_c, 2, 77, 68
4, 111120, Note_on_c, 2, 74, 70
4, 111270, Note_on_c, 2, 77, 0
4, 111274, Note_on_c, 2, 74, 0
4, 111600, Note_on_c, 2, 74, 53
4, 111600, Note_on_c, 2, 65, 49
4, 111826, Note_on_c, 2, 65, 0
4, 111826, Note_on_c, 2, 74, 0
4, 112080, Note_on_c, 2, 75, 59
4, 112080, Note_on_c, 2, 67, 50
4, 112352, Note_on_c, 2, 67, 0
4, 112362, Note_on_c, 2, 75, 0
4, 112560, Note_on_c, 2, 75, 53
4, 112560, Note_on_c, 2, 67, 51
4, 112832, Note_on_c, 2, 67, 0
4, 112910, Note_on_c, 2, 75, 0
4, 113040, Note_on_c, 2, 62, 51
4, 113040, Note_on_c, 2, 74, 62
4, 113086, Note_on_c, 2, 62, 0
4, 113090, Note_on_c, 2, 74, 0
4, 113280, Note_on_c, 2, 82, 88
4, 113280, Note_on_c, 2, 70, 97
4, 113354, Note_on_c, 2, 82, 0
4, 113360, Note_on_c, 2, 70, 0
4, 113520, Note_on_c, 2, 82, 94
4, 113520, Note_on_c, 2, 70, 72
4, 113594, Note_on_c, 2, 70, 0
4, 113594, Note_on_c, 2, 82, 0
4, 113760, Note_on_c, 2, 82, 80
4, 113760, Note_on_c, 2, 70, 77
4, 113836, Note_on_c, 2, 82, 0
4, 113840, Note_on_c, 2, 70, 0
4, 114000, Note_on_c, 2, 72, 70
4, 114000, Note_on_c, 2, 84, 90
4, 114186, Note_on_c, 2, 72, 0
4, 114224, Note_on_c, 2, 84, 0
4, 114240, Note_on_c, 2, 70, 70
4, 114240, Note_on_c, 2, 82, 70
4, 114324, Note_on_c, 2, 82, 0
4, 114334, Note_on_c, 2, 70, 0
4, 114480, Note_on_c, 2, 67, 75
4, 114480, Note_on_c, 2, 79, 79
4, 114556, Note_on_c, 2, 79, 0
4, 114562, Note_on_c, 2, 67, 0
4, 114720, Note_on_c, 2, 75, 64
4, 114720, Note_on_c, 2, 63, 72
4, 114792, Note_on_c, 2, 75, 0
4, 114796, Note_on_c, 2, 63, 0
4, 114960, Note_on_c, 2, 58, 70
4, 114960, Note_on_c, 2, 70, 94
4, 115156, Note_on_c, 2, 58, 0
4, 115174, Note_on_c, 2, 70, 0
4, 118800, Note_on_c, 2, 74, 49
4, 118800, Note_on_c, 2, 70, 47
4, 119040, Note_on_c, 2, 70, 0
4, 119040, Note_on_c, 2, 74, 0
4, 119040, Note_on_c, 2, 75, 49
4, 119040, Note_on_c, 2, 72, 47
4, 119280, Note_on_c, 2, 77, 55
4, 119280, Note_on_c, 2, 74, 51
4, 119296, Note_on_c, 2, 75, 0
4, 119310, Note_on_c, 2, 72, 0
4, 119370, Note_on_c, 2, 74, 0
4, 119374, Note_on_c, 2, 77, 0
4, 119520, Note_on_c, 2, 77, 53
4, 119520, Note_on_c, 2, 74, 53
4, 119594, Note_on_c, 2, 74, 0
4, 119596, Note_on_c, 2, 77, 0
4, 119760, Note_on_c, 2, 77, 50
4, 119760, Note_on_c, 2, 74, 55
4, 120000, Note_on_c, 2, 74, 0
4, 120000, Note_on_c, 2, 77, 0
4, 120000, Note_on_c, 2, 75, 47
4, 120000, Note_on_c, 2, 72, 46
4, 120240, Note_on_c, 2, 72, 0
4, 120240, Note_on_c, 2, 74, 59
4, 120240, Note_on_c, 2, 70, 46
4, 120244, Note_on_c, 2, 75, 0
4, 120480, Note_on_c, 2, 72, 59
4, 120480, Note_on_c, 2, 69, 59
4, 120510, Note_on_c, 2, 70, 0
4, 120510, Note_on_c, 2, 74, 0
4, 120720, Note_on_c, 2, 70, 61
4, 120720, Note_on_c, 2, 67, 56
4, 120750, Note_on_c, 2, 72, 0
4, 120770, Note_on_c, 2, 69, 0
4, 120960, Note_on_c, 2, 72, 57
4, 120960, Note_on_c, 2, 69, 56
4, 120990, Note_on_c, 2, 70, 0
4, 120990, Note_on_c, 2, 67, 0
4, 121200, Note_on_c, 2, 72, 0
4, 121200, Note_on_c, 2, 69, 0
4, 121200, Note_on_c, 2, 74, 52
4, 121200, Note_on_c, 2, 70, 56
4, 121276, Note_on_c, 2, 70, 0
4, 121290, Note_on_c, 2, 74, 0
4, 121440, Note_on_c, 2, 74, 51
4, 121440, Note_on_c, 2, 70, 51
4, 121506, Note_on_c, 2, 70, 0
4, 121516, Note_on_c, 2, 74, 0
4, 121680, Note_on_c, 2, 74, 60
4, 121680, Note_on_c, 2, 70, 60
4, 121920, Note_on_c, 2, 72, 53
4, 121920, Note_on_c, 2, 69, 49
4, 121950, Note_on_c, 2, 70, 0
4, 121950, Note_on_c, 2, 74, 0
4, 122160, Note_on_c, 2, 69, 0
4, 122160, Note_on_c, 2, 70, 52
4, 122160, Note_on_c, 2, 67, 45
4, 122214, Note_on_c, 2, 72, 0
4, 122400, Note_on_c, 2, 67, 0
4, 122400, Note_on_c, 2, 70, 0
4, 122400, Note_on_c, 2, 69, 69
4, 122400, Note_on_c, 2, 65, 53
4, 122640, Note_on_c, 2, 67, 39
4, 122640, Note_on_c, 2, 63, 39
4, 122650, Note_on_c, 2, 69, 0
4, 122682, Note_on_c, 2, 65, 0
4, 122876, Note_on_c, 2, 63, 0
4, 122880, Note_on_c, 2, 67, 0
4, 122880, Note_on_c, 2, 69, 45
4, 122880, Note_on_c, 2, 65, 45
4, 123076, Note_on_c, 2, 65, 0
4, 123120, Note_on_c, 2, 70, 50
4, 123120, Note_on_c, 2, 67, 50
4, 123136, Note_on_c, 2, 69, 0
4, 123360, Note_on_c, 2, 72, 55
4, 123360, Note_on_c, 2, 69, 55
4, 123376, Note_on_c, 2, 67, 0
4, 123396, Note_on_c, 2, 70, 0
4, 123564, Note_on_c, 2, 69, 0
4, 123600, Note_on_c, 2, 74, 60
4, 123600, Note_on_c, 2, 70, 60
4, 123602, Note_on_c, 2, 72, 0
4, 123840, Note_on_c, 2, 75, 65
4, 123840, Note_on_c, 2, 72, 65
4, 123884, Note_on_c, 2, 74, 0
4, 123890, Note_on_c, 2, 70, 0
4, 124080, Note_on_c, 2, 75, 0
4, 124080, Note_on_c, 2, 77, 70
4, 124080, Note_on_c, 2, 74, 70
4, 124110, Note_on_c, 2, 72, 0
4, 124320, Note_on_c, 2, 79, 75
4, 124320, Note_on_c, 2, 75, 75
4, 124350, Note_on_c, 2, 74, 0
4, 124350, Note_on_c, 2, 77, 0
4, 124486, Note_on_c, 2, 75, 0
4, 124500, Note_on_c, 2, 79, 0
4, 124560, Note_on_c, 2, 79, 39
4, 124560, Note_on_c, 2, 75, 46
4, 124800, Note_on_c, 2, 77, 41
4, 124800, Note_on_c, 2, 74, 40
4, 124830, Note_on_c, 2, 75, 0
4, 124830, Note_on_c, 2, 79, 0
4, 124916, Note_on_c, 2, 74, 0
4, 124940, Note_on_c, 2, 77, 0
4, 125040, Note_on_c, 2, 75, 43
4, 125040, Note_on_c, 2, 72, 40
4, 125132, Note_on_c, 2, 75, 0
4, 125140, Note_on_c, 2, 72, 0
4, 125280, Note_on_c, 2, 74, 39
4, 125280, Note_on_c, 2, 70, 35
4, 125354, Note_on_c, 2, 74, 0
4, 125364, Note_on_c, 2, 70, 0
4, 125520, Note_on_c, 2, 69, 26
4, 125520, Note_on_c, 2, 72, 30
4, 125784, Note_on_c, 2, 69, 0
4, 125800, Note_on_c, 2, 72, 0
4, 126480, Note_on_c, 2, 70, 41
4, 126480, Note_on_c, 2, 74, 45
4, 126692, Note_on_c, 2, 70, 0
4, 126720, Note_on_c, 2, 72, 40
4, 126720, Note_on_c, 2, 75, 38
4, 126746, Note_on_c, 2, 74, 0
4, 126804, Note_on_c, 2, 72, 0
4, 126810, Note_on_c, 2, 75, 0
4, 126960, Note_on_c, 2, 74, 42
4, 126960, Note_on_c, 2, 77, 44
4, 127040, Note_on_c, 2, 74, 0
4, 127042, Note_on_c, 2, 77, 0
4, 127200, Note_on_c, 2, 74, 42
4, 127200, Note_on_c, 2, 77, 42
4, 127276, Note_on_c, 2, 74, 0
4, 127282, Note_on_c, 2, 77, 0
4, 127440, Note_on_c, 2, 74, 47
4, 127440, Note_on_c, 2, 77, 48
4, 127680, Note_on_c, 2, 77, 0
4, 127680, Note_on_c, 2, 74, 0
4, 127680, Note_on_c, 2, 72, 41
4, 127680, Note_on_c, 2, 75, 40
4, 127920, Note_on_c, 2, 75, 0
4, 127920, Note_on_c, 2, 72, 0
4, 127920, Note_on_c, 2, 74, 44
4, 127920, Note_on_c, 2, 70, 40
4, 128160, Note_on_c, 2, 70, 0
4, 128160, Note_on_c, 2, 74, 0
4, 128160, Note_on_c, 2, 72, 45
4, 128160, Note_on_c, 2, 69, 38
4, 128400, Note_on_c, 2, 69, 0
4, 128400, Note_on_c, 2, 72, 0
4, 128400, Note_on_c, 2, 70, 47
4, 128400, Note_on_c, 2, 67, 38
4, 128640, Note_on_c, 2, 67, 0
4, 128640, Note_on_c, 2, 70, 0
4, 128640, Note_on_c, 2, 72, 45
4, 128640, Note_on_c, 2, 69, 39
4, 128880, Note_on_c, 2, 69, 0
4, 128880, Note_on_c, 2, 72, 0
4, 128880, Note_on_c, 2, 70, 40
4, 128880, Note_on_c, 2, 74, 42
4, 128946, Note_on_c, 2, 70, 0
4, 128966, Note_on_c, 2, 74, 0
4, 129120, Note_on_c, 2, 74, 42
4, 129120, Note_on_c, 2, 70, 44
4, 129194, Note_on_c, 2, 70, 0
4, 129194, Note_on_c, 2, 74, 0
4, 129360, Note_on_c, 2, 74, 48
4, 129360, Note_on_c, 2, 70, 44
4, 129600, Note_on_c, 2, 69, 38
4, 129600, Note_on_c, 2, 72, 38
4, 129650, Note_on_c, 2, 74, 0
4, 129656, Note_on_c, 2, 70, 0
4, 129840, Note_on_c, 2, 69, 0
4, 129840, Note_on_c, 2, 72, 0
4, 129840, Note_on_c, 2, 70, 38
4, 129840, Note_on_c, 2, 67, 35
4, 130080, Note_on_c, 2, 67, 0
4, 130080, Note_on_c, 2, 70, 0
4, 130080, Note_on_c, 2, 69, 42
4, 130080, Note_on_c, 2, 65, 35
4, 130320, Note_on_c, 2, 65, 0
4, 130320, Note_on_c, 2, 69, 0
4, 130320, Note_on_c, 2, 67, 39
4, 130320, Note_on_c, 2, 63, 39
4, 130560, Note_on_c, 2, 63, 0
4, 130560, Note_on_c, 2, 67, 0
4, 130560, Note_on_c, 2, 65, 44
4, 130560, Note_on_c, 2, 69, 44
4, 130800, Note_on_c, 2, 69, 0
4, 130800, Note_on_c, 2, 65, 0
4, 130800, Note_on_c, 2, 70, 50
4, 130800, Note_on_c, 2, 67, 50
4, 131040, Note_on_c, 2, 67, 0
4, 131040, Note_on_c, 2, 70, 0
4, 131040, Note_on_c, 2, 72, 55
4, 131040, Note_on_c, 2, 69, 55
4, 131280, Note_on_c, 2, 69, 0
4, 131280, Note_on_c, 2, 72, 0
4, 131280, Note_on_c, 2, 70, 60
4, 131280, Note_on_c, 2, 74, 60
4, 131520, Note_on_c, 2, 74, 0
4, 131520, Note_on_c, 2, 70, 0
4, 131520, Note_on_c, 2, 72, 65
4, 131520, Note_on_c, 2, 75, 65
4, 131760, Note_on_c, 2, 75, 0
4, 131760, Note_on_c, 2, 72, 0
4, 131760, Note_on_c, 2, 74, 70
4, 131760, Note_on_c, 2, 77, 70
4, 132000, Note_on_c, 2, 77, 0
4, 132000, Note_on_c, 2, 74, 0
4, 132000, Note_on_c, 2, 75, 76
4, 132000, Note_on_c, 2, 79, 76
4, 132142, Note_on_c, 2, 75, 0
4, 132150, Note_on_c, 2, 79, 0
4, 132240, Note_on_c, 2, 79, 48
4, 132240, Note_on_c, 2, 75, 50
4, 132456, Note_on_c, 2, 79, 0
4, 132480, Note_on_c, 2, 77, 36
4, 132480, Note_on_c, 2, 74, 41
4, 132510, Note_on_c, 2, 75, 0
4, 132570, Note_on_c, 2, 77, 0
4, 132580, Note_on_c, 2, 74, 0
4, 132720, Note_on_c, 2, 75, 44
4, 132720, Note_on_c, 2, 72, 41
4, 132802, Note_on_c, 2, 75, 0
4, 132816, Note_on_c, 2, 72, 0
4, 132960, Note_on_c, 2, 70, 30
4, 132960, Note_on_c, 2, 74, 39
4, 133042, Note_on_c, 2, 70, 0
4, 133052, Note_on_c, 2, 74, 0
4, 133200, Note_on_c, 2, 69, 30
4, 133200, Note_on_c, 2, 72, 35
4, 133402, Note_on_c, 2, 69, 0
4, 133420, Note_on_c, 2, 72, 0
4, 138000, Note_on_c, 2, 67, 49
4, 138000, Note_on_c, 2, 63, 49
4, 138240, Note_on_c, 2, 63, 0
4, 138240, Note_on_c, 2, 67, 0
4, 138240, Note_on_c, 2, 65, 54
4, 138240, Note_on_c, 2, 69, 54
4, 138480, Note_on_c, 2, 69, 0
4, 138480, Note_on_c, 2, 65, 0
4, 138480, Note_on_c, 2, 67, 59
4, 138480, Note_on_c, 2, 70, 59
4, 138720, Note_on_c, 2, 70, 0
4, 138720, Note_on_c, 2, 67, 0
4, 138720, Note_on_c, 2, 72, 65
4, 138720, Note_on_c, 2, 69, 65
4, 138960, Note_on_c, 2, 69, 0
4, 138960, Note_on_c, 2, 72, 0
4, 138960, Note_on_c, 2, 70, 70
4, 138960, Note_on_c, 2, 74, 70
4, 139200, Note_on_c, 2, 74, 0
4, 139200, Note_on_c, 2, 70, 0
4, 139200, Note_on_c, 2, 72, 75
4, 139200, Note_on_c, 2, 75, 75
4, 139440, Note_on_c, 2, 75, 0
4, 139440, Note_on_c, 2, 72, 0
4, 139440, Note_on_c, 2, 77, 81
4, 139440, Note_on_c, 2, 74, 81
4, 139680, Note_on_c, 2, 74, 0
4, 139680, Note_on_c, 2, 77, 0
4, 139680, Note_on_c, 2, 75, 86
4, 139680, Note_on_c, 2, 79, 86
4, 139824, Note_on_c, 2, 79, 0
4, 139842, Note_on_c, 2, 75, 0
4, 139920, Note_on_c, 2, 79, 60
4, 139920, Note_on_c, 2, 75, 59
4, 140140, Note_on_c, 2, 79, 0
4, 140160, Note_on_c, 2, 77, 50
4, 140160, Note_on_c, 2, 74, 54
4, 140190, Note_on_c, 2, 75, 0
4, 140242, Note_on_c, 2, 77, 0
4, 140244, Note_on_c, 2, 74, 0
4, 140400, Note_on_c, 2, 72, 50
4, 140400, Note_on_c, 2, 75, 51
4, 140472, Note_on_c, 2, 72, 0
4, 140476, Note_on_c, 2, 75, 0
4, 140640, Note_on_c, 2, 74, 51
4, 140640, Note_on_c, 2, 70, 41
4, 140706, Note_on_c, 2, 70, 0
4, 140724, Note_on_c, 2, 74, 0
4, 140880, Note_on_c, 2, 69, 35
4, 140880, Note_on_c, 2, 72, 41
4, 141050, Note_on_c, 2, 69, 0
4, 141060, Note_on_c, 2, 72, 0
4, 141840, Note_on_c, 2, 70, 120
4, 142626, Note_on_c, 2, 70, 0
4, 142800, Note_on_c, 2, 65, 86
4, 143592, Note_on_c, 2, 65, 0
4, 143760, Note_on_c, 2, 67, 98
4, 144582, Note_on_c, 2, 67, 0
4, 144720, Note_on_c, 2, 62, 84
4, 145486, Note_on_c, 2, 62, 0
4, 146160, Note_on_c, 2, 67, 66
4, 146234, Note_on_c, 2, 67, 0
4, 146400, Note_on_c, 2, 67, 65
4, 146472, Note_on_c, 2, 67, 0
4, 146640, Note_on_c, 2, 67, 60
4, 146710, Note_on_c, 2, 67, 0
4, 146880, Note_on_c, 2, 69, 66
4, 146956, Note_on_c, 2, 69, 0
4, 147120, Note_on_c, 2, 70, 62
4, 147184, Note_on_c, 2, 70, 0
4, 147360, Note_on_c, 2, 72, 65
4, 147430, Note_on_c, 2, 72, 0
4, 147600, Note_on_c, 2, 74, 46
4, 147970, Note_on_c, 2, 74, 0
4, 153840, Note_on_c, 2, 58, 38
4, 153840, Note_on_c, 2, 70, 50
4, 155060, Note_on_c, 2, 58, 0
4, 155080, Note_on_c, 2, 70, 0
4, 155280, Note_on_c, 2, 77, 71
4, 155280, Note_on_c, 2, 65, 66
4, 155562, Note_on_c, 2, 77, 0
4, 155564, Note_on_c, 2, 65, 0
4, 155760, Note_on_c, 2, 77, 63
4, 155760, Note_on_c, 2, 65, 74
4, 157490, Note_on_c, 2, 65, 0
4, 157490, Note_on_c, 2, 77, 0
4, 157680, Note_on_c, 2, 65, 78
4, 157680, Note_on_c, 2, 77, 85
4, 159600, Note_on_c, 2, 77, 0
4, 159600, Note_on_c, 2, 65, 0
4, 159600, Note_on_c, 2, 65, 62
4, 159600, Note_on_c, 2, 77, 68
4, 161350, Note_on_c, 2, 65, 0
4, 161362, Note_on_c, 2, 77, 0
4, 161520, Note_on_c, 2, 77, 83
4, 162000, Note_on_c, 2, 77, 0
4, 162000, Note_on_c, 2, 75, 70
4, 162480, Note_on_c, 2, 75, 0
4, 162480, Note_on_c, 2, 74, 65
4, 162960, Note_on_c, 2, 74, 0
4, 162960, Note_on_c, 2, 72, 58
4, 163440, Note_on_c, 2, 72, 0
4, 163440, Note_on_c, 2, 70, 58
4, 163920, Note_on_c, 2, 70, 0
4, 163920, Note_on_c, 2, 69, 61
4, 164400, Note_on_c, 2, 69, 0
4, 164400, Note_on_c, 2, 70, 54
4, 164734, Note_on_c, 2, 70, 0
4, 164880, Note_on_c, 2, 72, 76
4, 165360, Note_on_c, 2, 72, 0
4, 165360, Note_on_c, 2, 70, 76
4, 165840, Note_on_c, 2, 70, 0
4, 165840, Note_on_c, 2, 69, 67
4, 166320, Note_on_c, 2, 69, 0
4, 166320, Note_on_c, 2, 67, 62
4, 166800, Note_on_c, 2, 67, 0
4, 166800, Note_on_c, 2, 65, 65
4, 167280, Note_on_c, 2, 65, 0
4, 167280, Note_on_c, 2, 63, 61
4, 167760, Note_on_c, 2, 63, 0
4, 167760, Note_on_c, 2, 62, 62
4, 168240, Note_on_c, 2, 62, 0
4, 168240, Note_on_c, 2, 60, 69
4, 168720, Note_on_c, 2, 58, 66
4, 168732, Note_on_c, 2, 60, 0
4, 169200, Note_on_c, 2, 58, 0
4, 169200, Note_on_c, 2, 62, 70
4, 169680, Note_on_c, 2, 62, 0
4, 169680, Note_on_c, 2, 65, 50
4, 170160, Note_on_c, 2, 65, 0
4, 170160, Note_on_c, 2, 70, 62
4, 170640, Note_on_c, 2, 70, 0
4, 170640, Note_on_c, 2, 74, 62
4, 171120, Note_on_c, 2, 74, 0
4, 171120, Note_on_c, 2, 77, 73
4, 171554, Note_on_c, 2, 77, 0
4, 171600, Note_on_c, 2, 77, 81
4, 171916, Note_on_c, 2, 77, 0
4, 172080, Note_on_c, 2, 77, 70
4, 172482, Note_on_c, 2, 77, 0
4, 172560, Note_on_c, 2, 77, 70
4, 172822, Note_on_c, 2, 77, 0
4, 173040, Note_on_c, 2, 77, 66
4, 173520, Note_on_c, 2, 77, 0
4, 173520, Note_on_c, 2, 75, 68
4, 174000, Note_on_c, 2, 75, 0
4, 174000, Note_on_c, 2, 74, 68
4, 174480, Note_on_c, 2, 74, 0
4, 174480, Note_on_c, 2, 72, 68
4, 174960, Note_on_c, 2, 70, 57
4, 174994, Note_on_c, 2, 72, 0
4, 175440, Note_on_c, 2, 70, 0
4, 175440, Note_on_c, 2, 69, 64
4, 175920, Note_on_c, 2, 69, 0
4, 175920, Note_on_c, 2, 70, 64
4, 176310, Note_on_c, 2, 70, 0
4, 176400, Note_on_c, 2, 72, 70
4, 176880, Note_on_c, 2, 72, 0
4, 176880, Note_on_c, 2, 70, 66
4, 177360, Note_on_c, 2, 69, 68
4, 177400, Note_on_c, 2, 70, 0
4, 177840, Note_on_c, 2, 67, 64
4, 177896, Note_on_c, 2, 69, 0
4, 178320, Note_on_c, 2, 67, 0
4, 178320, Note_on_c, 2, 65, 62
4, 178800, Note_on_c, 2, 63, 64
4, 178850, Note_on_c, 2, 65, 0
4, 179280, Note_on_c, 2, 63, 0
4, 179280, Note_on_c, 2, 62, 64
4, 179760, Note_on_c, 2, 60, 69
4, 179800, Note_on_c, 2, 62, 0
4, 180230, Note_on_c, 2, 60, 0
4, 180240, Note_on_c, 2, 58, 69
4, 180720, Note_on_c, 2, 62, 68
4, 180766, Note_on_c, 2, 58, 0
4, 181200, Note_on_c, 2, 65, 53
4, 181224, Note_on_c, 2, 62, 0
4, 181680, Note_on_c, 2, 65, 0
4, 181680, Note_on_c, 2, 70, 55
4, 182160, Note_on_c, 2, 74, 65
4, 182204, Note_on_c, 2, 70, 0
4, 182640, Note_on_c, 2, 77, 65
4, 182690, Note_on_c, 2, 74, 0
4, 183042, Note_on_c, 2, 77, 0
4, 183120, Note_on_c, 2, 77, 70
4, 183460, Note_on_c, 2, 77, 0
4, 183600, Note_on_c, 2, 77, 68
4, 184026, Note_on_c, 2, 77, 0
4, 184080, Note_on_c, 2, 70, 53
4, 184080, Note_on_c, 2, 74, 56
4, 184234, Note_on_c, 2, 74, 0
4, 184240, Note_on_c, 2, 70, 0
4, 184560, Note_on_c, 2, 70, 51
4, 184560, Note_on_c, 2, 74, 72
4, 185040, Note_on_c, 2, 74, 0
4, 185040, Note_on_c, 2, 70, 0
4, 185040, Note_on_c, 2, 72, 53
4, 185040, Note_on_c, 2, 75, 51
4, 185256, Note_on_c, 2, 72, 0
4, 185280, Note_on_c, 2, 75, 0
4, 185520, Note_on_c, 2, 72, 60
4, 185520, Note_on_c, 2, 75, 82
4, 186000, Note_on_c, 2, 75, 0
4, 186000, Note_on_c, 2, 72, 0
4, 186000, Note_on_c, 2, 70, 60
4, 186000, Note_on_c, 2, 74, 55
4, 186040, Note_on_c, 2, 70, 0
4, 186190, Note_on_c, 2, 74, 0
4, 186480, Note_on_c, 2, 70, 60
4, 186480, Note_on_c, 2, 74, 80
4, 186960, Note_on_c, 2, 74, 0
4, 186960, Note_on_c, 2, 70, 0
4, 186960, Note_on_c, 2, 72, 52
4, 186960, Note_on_c, 2, 69, 44
4, 187184, Note_on_c, 2, 69, 0
4, 187190, Note_on_c, 2, 72, 0
4, 187440, Note_on_c, 2, 72, 74
4, 187440, Note_on_c, 2, 69, 49
4, 187920, Note_on_c, 2, 72, 0
4, 187920, Note_on_c, 2, 70, 53
4, 187920, Note_on_c, 2, 74, 46
4, 187932, Note_on_c, 2, 69, 0
4, 188156, Note_on_c, 2, 70, 0
4, 188190, Note_on_c, 2, 74, 0
4, 188400, Note_on_c, 2, 70, 56
4, 188400, Note_on_c, 2, 74, 78
4, 188854, Note_on_c, 2, 70, 0
4, 188880, Note_on_c, 2, 74, 0
4, 188880, Note_on_c, 2, 75, 56
4, 188880, Note_on_c, 2, 72, 58
4, 189080, Note_on_c, 2, 72, 0
4, 189090, Note_on_c, 2, 75, 0
4, 189360, Note_on_c, 2, 75, 82
4, 189360, Note_on_c, 2, 72, 60
4, 189840, Note_on_c, 2, 72, 0
4, 189840, Note_on_c, 2, 75, 0
4, 189840, Note_on_c, 2, 70, 47
4, 189840, Note_on_c, 2, 74, 62
4, 189992, Note_on_c, 2, 74, 0
4, 190050, Note_on_c, 2, 70, 0
4, 190320, Note_on_c, 2, 74, 75
4, 190320, Note_on_c, 2, 70, 54
4, 190800, Note_on_c, 2, 70, 0
4, 190800, Note_on_c, 2, 69, 55
4, 190800, Note_on_c, 2, 72, 60
4, 190802, Note_on_c, 2, 74, 0
4, 190934, Note_on_c, 2, 72, 0
4, 190956, Note_on_c, 2, 69, 0
4, 191280, Note_on_c, 2, 72, 70
4, 191280, Note_on_c, 2, 69, 50
4, 191720, Note_on_c, 2, 69, 0
4, 191760, Note_on_c, 2, 72, 0
4, 191760, Note_on_c, 2, 74, 68
4, 191760, Note_on_c, 2, 70, 66
4, 191824, Note_on_c, 2, 70, 0
4, 191844, Note_on_c, 2, 74, 0
4, 192000, Note_on_c, 2, 74, 73
4, 192000, Note_on_c, 2, 70, 72
4, 192302, Note_on_c, 2, 70, 0
4, 192302, Note_on_c, 2, 74, 0
4, 192480, Note_on_c, 2, 74, 68
4, 192480, Note_on_c, 2, 70, 66
4, 192792, Note_on_c, 2, 74, 0
4, 192802, Note_on_c, 2, 70, 0
4, 192960, Note_on_c, 2, 70, 68
4, 192960, Note_on_c, 2, 74, 69
4, 193290, Note_on_c, 2, 70, 0
4, 193302, Note_on_c, 2, 74, 0
4, 193440, Note_on_c, 2, 70, 64
4, 193440, Note_on_c, 2, 74, 69
4, 193772, Note_on_c, 2, 70, 0
4, 193776, Note_on_c, 2, 74, 0
4, 193920, Note_on_c, 2, 74, 68
4, 193920, Note_on_c, 2, 70, 64
4, 194230, Note_on_c, 2, 70, 0
4, 194242, Note_on_c, 2, 74, 0
4, 194400, Note_on_c, 2, 74, 70
4, 194400, Note_on_c, 2, 70, 66
4, 194732, Note_on_c, 2, 70, 0
4, 194770, Note_on_c, 2, 74, 0
4, 194880, Note_on_c, 2, 74, 66
4, 194880, Note_on_c, 2, 70, 64
4, 195194, Note_on_c, 2, 74, 0
4, 195204, Note_on_c, 2, 70, 0
4, 195360, Note_on_c, 2, 74, 68
4, 195360, Note_on_c, 2, 70, 65
4, 195752, Note_on_c, 2, 74, 0
4, 195760, Note_on_c, 2, 70, 0
4, 196080, Note_on_c, 2, 82, 78
4, 196080, Note_on_c, 2, 70, 73
4, 196294, Note_on_c, 2, 70, 0
4, 196312, Note_on_c, 2, 82, 0
4, 196560, Note_on_c, 2, 82, 81
4, 196560, Note_on_c, 2, 70, 74
4, 196736, Note_on_c, 2, 70, 0
4, 196760, Note_on_c, 2, 82, 0
4, 197040, Note_on_c, 2, 82, 80
4, 197040, Note_on_c, 2, 70, 79
4, 197214, Note_on_c, 2, 70, 0
4, 197240, Note_on_c, 2, 82, 0
4, 197520, Note_on_c, 2, 82, 92
4, 197520, Note_on_c, 2, 70, 88
4, 197790, Note_on_c, 2, 70, 0
4, 197804, Note_on_c, 2, 82, 0
4, 204000, Note_on_c, 2, 67, 71
4, 204000, Note_on_c, 2, 55, 71
4, 204004, Control_c, 2, 7, 106
4, 204044, Control_c, 2, 7, 105
4, 204084, Control_c, 2, 7, 104
4, 204124, Control_c, 2, 7, 103
4, 204164, Control_c, 2, 7, 102
4, 204192, Control_c, 2, 7, 101
4, 204232, Control_c, 2, 7, 100
4, 204272, Control_c, 2, 7, 99
4, 204312, Control_c, 2, 7, 98
4, 204340, Control_c, 2, 7, 97
4, 204380, Control_c, 2, 7, 96
4, 204420, Control_c, 2, 7, 95
4, 204460, Control_c, 2, 7, 94
4, 204484, Control_c, 2, 7, 93
4, 204524, Control_c, 2, 7, 92
4, 204564, Control_c, 2, 7, 91
4, 204604, Control_c, 2, 7, 90
4, 204632, Control_c, 2, 7, 89
4, 204672, Control_c, 2, 7, 88
4, 204712, Control_c, 2, 7, 87
4, 204752, Control_c, 2, 7, 86
4, 204780, Control_c, 2, 7, 85
4, 204820, Control_c, 2, 7, 84
4, 204860, Control_c, 2, 7, 83
4, 204900, Control_c, 2, 7, 82
4, 204940, Control_c, 2, 7, 81
4, 204964, Control_c, 2, 7, 80
4, 205004, Control_c, 2, 7, 79
4, 205044, Control_c, 2, 7, 78
4, 205084, Control_c, 2, 7, 77
4, 205112, Control_c, 2, 7, 76
4, 205152, Control_c, 2, 7, 75
4, 205192, Control_c, 2, 7, 74
4, 205232, Control_c, 2, 7, 73
4, 205260, Control_c, 2, 7, 72
4, 205300, Control_c, 2, 7, 71
4, 205340, Control_c, 2, 7, 70
4, 205380, Control_c, 2, 7, 69
4, 205404, Control_c, 2, 7, 68
4, 205444, Control_c, 2, 7, 67
4, 205484, Control_c, 2, 7, 66
4, 205524, Control_c, 2, 7, 65
4, 205552, Control_c, 2, 7, 64
4, 205592, Control_c, 2, 7, 63
4, 205632, Control_c, 2, 7, 62
4, 205672, Control_c, 2, 7, 61
4, 205712, Control_c, 2, 7, 60
4, 205740, Control_c, 2, 7, 59
4, 205780, Control_c, 2, 7, 58
4, 205820, Control_c, 2, 7, 57
4, 205860, Control_c, 2, 7, 56
4, 205884, Control_c, 2, 7, 55
4, 205924, Control_c, 2, 7, 54
4, 205964, Control_c, 2, 7, 53
4, 206004, Control_c, 2, 7, 52
4, 206032, Control_c, 2, 7, 51
4, 206072, Control_c, 2, 7, 50
4, 206112, Control_c, 2, 7, 49
4, 206152, Control_c, 2, 7, 48
4, 206180, Control_c, 2, 7, 47
4, 206220, Control_c, 2, 7, 46
4, 206260, Control_c, 2, 7, 45
4, 206300, Control_c, 2, 7, 44
4, 206324, Control_c, 2, 7, 43
4, 206364, Control_c, 2, 7, 42
4, 206404, Control_c, 2, 7, 41
4, 206444, Control_c, 2, 7, 40
4, 206484, Control_c, 2, 7, 39
4, 206512, Control_c, 2, 7, 38
4, 206552, Control_c, 2, 7, 37
4, 206592, Control_c, 2, 7, 36
4, 206632, Control_c, 2, 7, 35
4, 206660, Control_c, 2, 7, 34
4, 206700, Control_c, 2, 7, 33
4, 206740, Control_c, 2, 7, 32
4, 206780, Control_c, 2, 7, 31
4, 206804, Control_c, 2, 7, 30
4, 206844, Control_c, 2, 7, 29
4, 206884, Control_c, 2, 7, 28
4, 206924, Control_c, 2, 7, 27
4, 206952, Control_c, 2, 7, 26
4, 206992, Control_c, 2, 7, 25
4, 207032, Control_c, 2, 7, 24
4, 207072, Control_c, 2, 7, 23
4, 207100, Control_c, 2, 7, 22
4, 207140, Control_c, 2, 7, 21
4, 207180, Control_c, 2, 7, 20
4, 207220, Control_c, 2, 7, 19
4, 207260, Control_c, 2, 7, 18
4, 207284, Control_c, 2, 7, 17
4, 207324, Control_c, 2, 7, 16
4, 207364, Control_c, 2, 7, 15
4, 207404, Control_c, 2, 7, 14
4, 207432, Control_c, 2, 7, 13
4, 207472, Control_c, 2, 7, 12
4, 207512, Control_c, 2, 7, 11
4, 207552, Control_c, 2, 7, 10
4, 207580, Control_c, 2, 7, 9
4, 207620, Control_c, 2, 7, 8
4, 207660, Control_c, 2, 7, 7
4, 207700, Control_c, 2, 7, 6
4, 207724, Control_c, 2, 7, 5
4, 207764, Control_c, 2, 7, 4
4, 207780, Note_on_c, 2, 55, 0
4, 207780, Note_on_c, 2, 67, 0
4, 207804, Control_c, 2, 7, 3
4, 207844, Control_c, 2, 7, 2
4, 207872, Control_c, 2, 7, 1
4, 207884, Control_c, 2, 7, 20
4, 207900, Control_c, 2, 7, 40
4, 207912, Control_c, 2, 7, 59
4, 207924, Control_c, 2, 7, 79
4, 207940, Control_c, 2, 7, 99
4, 217920, Note_on_c, 2, 72, 40
4, 218040, Note_on_c, 2, 70, 31
4, 218044, Note_on_c, 2, 72, 0
4, 218160, Note_on_c, 2, 70, 0
4, 218160, Note_on_c, 2, 69, 40
4, 218360, Note_on_c, 2, 69, 0
4, 218360, Note_on_c, 2, 70, 34
4, 218400, Note_on_c, 2, 70, 0
4, 218400, Note_on_c, 2, 69, 38
4, 218520, Note_on_c, 2, 67, 35
4, 218544, Note_on_c, 2, 69, 0
4, 218640, Note_on_c, 2, 69, 32
4, 218642, Note_on_c, 2, 67, 0
4, 218842, Note_on_c, 2, 69, 0
4, 218880, Note_on_c, 2, 70, 41
4, 218996, Note_on_c, 2, 70, 0
4, 219000, Note_on_c, 2, 69, 34
4, 219120, Note_on_c, 2, 69, 0
4, 219120, Note_on_c, 2, 67, 30
4, 219360, Note_on_c, 2, 67, 0
4, 219360, Note_on_c, 2, 67, 30
4, 219540, Note_on_c, 2, 67, 0
4, 220080, Note_on_c, 2, 65, 32
4, 220080, Note_on_c, 2, 68, 32
4, 220200, Note_on_c, 2, 68, 0
4, 220200, Note_on_c, 2, 65, 0
4, 221040, Note_on_c, 2, 67, 32
4, 221040, Note_on_c, 2, 63, 32
4, 221160, Note_on_c, 2, 63, 0
4, 221160, Note_on_c, 2, 67, 0
4, 222000, Note_on_c, 2, 68, 32
4, 222000, Note_on_c, 2, 65, 32
4, 222120, Note_on_c, 2, 65, 0
4, 222120, Note_on_c, 2, 68, 0
4, 222960, Note_on_c, 2, 67, 32
4, 222960, Note_on_c, 2, 63, 32
4, 223080, Note_on_c, 2, 63, 0
4, 223080, Note_on_c, 2, 67, 0
4, 231120, Note_on_c, 2, 68, 56
4, 231120, Note_on_c, 2, 80, 56
4, 231168, Note_on_c, 2, 80, 0
4, 231168, Note_on_c, 2, 68, 0
4, 231240, Note_on_c, 2, 67, 56
4, 231240, Note_on_c, 2, 79, 56
4, 231288, Note_on_c, 2, 79, 0
4, 231288, Note_on_c, 2, 67, 0
4, 231360, Note_on_c, 2, 65, 56
4, 231360, Note_on_c, 2, 77, 56
4, 231408, Note_on_c, 2, 77, 0
4, 231408, Note_on_c, 2, 65, 0
4, 231480, Note_on_c, 2, 63, 56
4, 231480, Note_on_c, 2, 75, 56
4, 231528, Note_on_c, 2, 75, 0
4, 231528, Note_on_c, 2, 63, 0
4, 231600, Note_on_c, 2, 65, 56
4, 231600, Note_on_c, 2, 77, 56
4, 231648, Note_on_c, 2, 77, 0
4, 231648, Note_on_c, 2, 65, 0
4, 231720, Note_on_c, 2, 63, 56
4, 231720, Note_on_c, 2, 75, 56
4, 231768, Note_on_c, 2, 75, 0
4, 231768, Note_on_c, 2, 63, 0
4, 231840, Note_on_c, 2, 62, 56
4, 231840, Note_on_c, 2, 74, 56
4, 231888, Note_on_c, 2, 74, 0
4, 231888, Note_on_c, 2, 62, 0
4, 231960, Note_on_c, 2, 63, 56
4, 231960, Note_on_c, 2, 75, 56
4, 232008, Note_on_c, 2, 75, 0
4, 232008, Note_on_c, 2, 63, 0
4, 232080, Note_on_c, 2, 65, 56
4, 232080, Note_on_c, 2, 77, 56
4, 232128, Note_on_c, 2, 77, 0
4, 232128, Note_on_c, 2, 65, 0
4, 232200, Note_on_c, 2, 67, 56
4, 232200, Note_on_c, 2, 79, 56
4, 232248, Note_on_c, 2, 79, 0
4, 232248, Note_on_c, 2, 67, 0
4, 232320, Note_on_c, 2, 68, 56
4, 232320, Note_on_c, 2, 80, 56
4, 232368, Note_on_c, 2, 80, 0
4, 232368, Note_on_c, 2, 68, 0
4, 232440, Note_on_c, 2, 70, 56
4, 232488, Note_on_c, 2, 70, 0
4, 232560, Note_on_c, 2, 72, 56
4, 232608, Note_on_c, 2, 72, 0
4, 232680, Note_on_c, 2, 74, 56
4, 232728, Note_on_c, 2, 74, 0
4, 232800, Note_on_c, 2, 75, 56
4, 232848, Note_on_c, 2, 75, 0
4, 232920, Note_on_c, 2, 77, 56
4, 232968, Note_on_c, 2, 77, 0
4, 233040, Note_on_c, 2, 79, 56
4, 233088, Note_on_c, 2, 79, 0
4, 233160, Note_on_c, 2, 67, 56
4, 233160, Note_on_c, 2, 79, 56
4, 233208, Note_on_c, 2, 79, 0
4, 233208, Note_on_c, 2, 67, 0
4, 233280, Note_on_c, 2, 68, 56
4, 233280, Note_on_c, 2, 80, 56
4, 233376, Note_on_c, 2, 80, 0
4, 233376, Note_on_c, 2, 68, 0
4, 233400, Note_on_c, 2, 74, 56
4, 233400, Note_on_c, 2, 77, 56
4, 233496, Note_on_c, 2, 77, 0
4, 233496, Note_on_c, 2, 74, 0
4, 233520, Note_on_c, 2, 77, 56
4, 233520, Note_on_c, 2, 74, 56
4, 233616, Note_on_c, 2, 74, 0
4, 233616, Note_on_c, 2, 77, 0
4, 233640, Note_on_c, 2, 74, 56
4, 233640, Note_on_c, 2, 77, 56
4, 233736, Note_on_c, 2, 77, 0
4, 233736, Note_on_c, 2, 74, 0
4, 233760, Note_on_c, 2, 77, 56
4, 233760, Note_on_c, 2, 74, 56
4, 233856, Note_on_c, 2, 74, 0
4, 233856, Note_on_c, 2, 77, 0
4, 233880, Note_on_c, 2, 77, 56
4, 233880, Note_on_c, 2, 74, 56
4, 233976, Note_on_c, 2, 74, 0
4, 233976, Note_on_c, 2, 77, 0
4, 234000, Note_on_c, 2, 77, 56
4, 234000, Note_on_c, 2, 74, 56
4, 234096, Note_on_c, 2, 74, 0
4, 234096, Note_on_c, 2, 77, 0
4, 234120, Note_on_c, 2, 77, 56
4, 234120, Note_on_c, 2, 77, 56
4, 234120, Note_on_c, 2, 74, 56
4, 234216, Note_on_c, 2, 74, 0
4, 234216, Note_on_c, 2, 77, 0
4, 234216, Note_on_c, 2, 77, 0
4, 234240, Note_on_c, 2, 74, 70
4, 234240, Note_on_c, 2, 78, 70
4, 234336, Note_on_c, 2, 78, 0
4, 234336, Note_on_c, 2, 74, 0
4, 234360, Note_on_c, 2, 74, 70
4, 234360, Note_on_c, 2, 78, 70
4, 234456, Note_on_c, 2, 78, 0
4, 234456, Note_on_c, 2, 74, 0
4, 234480, Note_on_c, 2, 78, 70
4, 234480, Note_on_c, 2, 74, 70
4, 234576, Note_on_c, 2, 74, 0
4, 234576, Note_on_c, 2, 78, 0
4, 234600, Note_on_c, 2, 78, 70
4, 234600, Note_on_c, 2, 74, 70
4, 234600, Note_on_c, 2, 78, 70
4, 234696, Note_on_c, 2, 78, 0
4, 234696, Note_on_c, 2, 74, 0
4, 234696, Note_on_c, 2, 78, 0
4, 234720, Note_on_c, 2, 74, 70
4, 234720, Note_on_c, 2, 78, 70
4, 234816, Note_on_c, 2, 78, 0
4, 234816, Note_on_c, 2, 74, 0
4, 234840, Note_on_c, 2, 78, 70
4, 234840, Note_on_c, 2, 74, 70
4, 234936, Note_on_c, 2, 74, 0
4, 234936, Note_on_c, 2, 78, 0
4, 234960, Note_on_c, 2, 74, 70
4, 234960, Note_on_c, 2, 78, 70
4, 235056, Note_on_c, 2, 78, 0
4, 235056, Note_on_c, 2, 74, 0
4, 235080, Note_on_c, 2, 78, 70
4, 235080, Note_on_c, 2, 78, 70
4, 235080, Note_on_c, 2, 74, 70
4, 235176, Note_on_c, 2, 74, 0
4, 235176, Note_on_c, 2, 78, 0
4, 235176, Note_on_c, 2, 78, 0
4, 235200, Note_on_c, 2, 78, 60
4, 235200, Note_on_c, 2, 74, 60
4, 235296, Note_on_c, 2, 74, 0
4, 235296, Note_on_c, 2, 78, 0
4, 235320, Note_on_c, 2, 78, 56
4, 235320, Note_on_c, 2, 74, 56
4, 235416, Note_on_c, 2, 74, 0
4, 235416, Note_on_c, 2, 78, 0
4, 235440, Note_on_c, 2, 78, 51
4, 235440, Note_on_c, 2, 74, 51
4, 235536, Note_on_c, 2, 74, 0
4, 235536, Note_on_c, 2, 78, 0
4, 235560, Note_on_c, 2, 78, 47
4, 235560, Note_on_c, 2, 74, 47
4, 235656, Note_on_c, 2, 74, 0
4, 235656, Note_on_c, 2, 78, 0
4, 235680, Note_on_c, 2, 78, 42
4, 235680, Note_on_c, 2, 74, 42
4, 235776, Note_on_c, 2, 74, 0
4, 235776, Note_on_c, 2, 78, 0
4, 235800, Note_on_c, 2, 78, 38
4, 235800, Note_on_c, 2, 74, 38
4, 235896, Note_on_c, 2, 74, 0
4, 235896, Note_on_c, 2, 78, 0
4, 235920, Note_on_c, 2, 78, 34
4, 235920, Note_on_c, 2, 74, 34
4, 236016, Note_on_c, 2, 74, 0
4, 236016, Note_on_c, 2, 78, 0
4, 236040, Note_on_c, 2, 78, 29
4, 236040, Note_on_c, 2, 74, 29
4, 236184, Control_c, 2, 7, 39
4, 236192, Control_c, 2, 7, 38
4, 236200, Control_c, 2, 7, 38
4, 236208, Control_c, 2, 7, 38
4, 236216, Control_c, 2, 7, 38
4, 236224, Control_c, 2, 7, 39
4, 236232, Control_c, 2, 7, 39
4, 236240, Control_c, 2, 7, 39
4, 236248, Control_c, 2, 7, 39
4, 236256, Control_c, 2, 7, 38
4, 236264, Control_c, 2, 7, 38
4, 236272, Control_c, 2, 7, 38
4, 236280, Control_c, 2, 7, 38
4, 236288, Control_c, 2, 7, 38
4, 236296, Control_c, 2, 7, 38
4, 236304, Control_c, 2, 7, 38
4, 236312, Control_c, 2, 7, 38
4, 236320, Control_c, 2, 7, 39
4, 236328, Control_c, 2, 7, 39
4, 236336, Control_c, 2, 7, 39
4, 236344, Control_c, 2, 7, 39
4, 236352, Control_c, 2, 7, 39
4, 236360, Control_c, 2, 7, 39
4, 236368, Control_c, 2, 7, 39
4, 236376, Control_c, 2, 7, 39
4, 236384, Control_c, 2, 7, 39
4, 236392, Control_c, 2, 7, 39
4, 236400, Control_c, 2, 7, 39
4, 236408, Control_c, 2, 7, 39
4, 236416, Control_c, 2, 7, 39
4, 236424, Control_c, 2, 7, 40
4, 236432, Control_c, 2, 7, 40
4, 236440, Control_c, 2, 7, 40
4, 236448, Control_c, 2, 7, 40
4, 236456, Control_c, 2, 7, 40
4, 236464, Control_c, 2, 7, 40
4, 236472, Control_c, 2, 7, 40
4, 236480, Control_c, 2, 7, 39
4, 236488, Control_c, 2, 7, 38
4, 236496, Control_c, 2, 7, 39
4, 236504, Control_c, 2, 7, 38
4, 236512, Control_c, 2, 7, 38
4, 236520, Control_c, 2, 7, 38
4, 236528, Control_c, 2, 7, 38
4, 236536, Control_c, 2, 7, 38
4, 236544, Control_c, 2, 7, 38
4, 236552, Control_c, 2, 7, 38
4, 236560, Control_c, 2, 7, 38
4, 236568, Control_c, 2, 7, 39
4, 236576, Control_c, 2, 7, 39
4, 236584, Control_c, 2, 7, 39
4, 236592, Control_c, 2, 7, 39
4, 236600, Control_c, 2, 7, 39
4, 236608, Control_c, 2, 7, 38
4, 236616, Control_c, 2, 7, 38
4, 236624, Control_c, 2, 7, 38
4, 236632, Control_c, 2, 7, 38
4, 236640, Control_c, 2, 7, 38
4, 236648, Control_c, 2, 7, 39
4, 236656, Control_c, 2, 7, 39
4, 236664, Control_c, 2, 7, 39
4, 236672, Control_c, 2, 7, 39
4, 236680, Control_c, 2, 7, 39
4, 236688, Control_c, 2, 7, 39
4, 236696, Control_c, 2, 7, 39
4, 236704, Control_c, 2, 7, 39
4, 236712, Control_c, 2, 7, 39
4, 236720, Control_c, 2, 7, 39
4, 236728, Control_c, 2, 7, 39
4, 236736, Control_c, 2, 7, 39
4, 236744, Control_c, 2, 7, 39
4, 236752, Control_c, 2, 7, 39
4, 236760, Control_c, 2, 7, 39
4, 236768, Control_c, 2, 7, 39
4, 236776, Control_c, 2, 7, 39
4, 236784, Control_c, 2, 7, 40
4, 236792, Control_c, 2, 7, 40
4, 236800, Control_c, 2, 7, 40
4, 236808, Control_c, 2, 7, 40
4, 236816, Control_c, 2, 7, 40
4, 236824, Control_c, 2, 7, 41
4, 236832, Control_c, 2, 7, 41
4, 236840, Control_c, 2, 7, 41
4, 236848, Control_c, 2, 7, 41
4, 236856, Control_c, 2, 7, 41
4, 236864, Control_c, 2, 7, 41
4, 236872, Control_c, 2, 7, 41
4, 236880, Control_c, 2, 7, 41
4, 236888, Control_c, 2, 7, 41
4, 236896, Control_c, 2, 7, 41
4, 236904, Control_c, 2, 7, 41
4, 236912, Control_c, 2, 7, 41
4, 236920, Control_c, 2, 7, 41
4, 236928, Control_c, 2, 7, 42
4, 236936, Control_c, 2, 7, 42
4, 236944, Control_c, 2, 7, 42
4, 236952, Control_c, 2, 7, 42
4, 236960, Control_c, 2, 7, 42
4, 236968, Control_c, 2, 7, 42
4, 236976, Control_c, 2, 7, 42
4, 236984, Control_c, 2, 7, 42
4, 236992, Control_c, 2, 7, 43
4, 237000, Control_c, 2, 7, 43
4, 237008, Control_c, 2, 7, 43
4, 237016, Control_c, 2, 7, 43
4, 237024, Control_c, 2, 7, 43
4, 237032, Control_c, 2, 7, 43
4, 237040, Control_c, 2, 7, 43
4, 237048, Control_c, 2, 7, 44
4, 237056, Control_c, 2, 7, 44
4, 237064, Control_c, 2, 7, 44
4, 237072, Control_c, 2, 7, 44
4, 237080, Control_c, 2, 7, 44
4, 237088, Control_c, 2, 7, 44
4, 237096, Control_c, 2, 7, 45
4, 237104, Control_c, 2, 7, 45
4, 237112, Control_c, 2, 7, 45
4, 237120, Control_c, 2, 7, 45
4, 237128, Control_c, 2, 7, 45
4, 237136, Control_c, 2, 7, 45
4, 237144, Control_c, 2, 7, 46
4, 237152, Control_c, 2, 7, 46
4, 237160, Control_c, 2, 7, 46
4, 237168, Control_c, 2, 7, 46
4, 237176, Control_c, 2, 7, 46
4, 237184, Control_c, 2, 7, 46
4, 237192, Control_c, 2, 7, 47
4, 237200, Control_c, 2, 7, 47
4, 237208, Control_c, 2, 7, 47
4, 237216, Control_c, 2, 7, 48
4, 237224, Control_c, 2, 7, 48
4, 237232, Control_c, 2, 7, 48
4, 237240, Control_c, 2, 7, 49
4, 237248, Control_c, 2, 7, 49
4, 237256, Control_c, 2, 7, 49
4, 237264, Control_c, 2, 7, 49
4, 237272, Control_c, 2, 7, 49
4, 237280, Control_c, 2, 7, 49
4, 237288, Control_c, 2, 7, 50
4, 237296, Control_c, 2, 7, 50
4, 237304, Control_c, 2, 7, 51
4, 237312, Control_c, 2, 7, 52
4, 237320, Control_c, 2, 7, 53
4, 237328, Control_c, 2, 7, 54
4, 237336, Control_c, 2, 7, 55
4, 237344, Control_c, 2, 7, 56
4, 237352, Control_c, 2, 7, 56
4, 237360, Control_c, 2, 7, 56
4, 237368, Control_c, 2, 7, 56
4, 237376, Control_c, 2, 7, 56
4, 237384, Control_c, 2, 7, 56
4, 237392, Control_c, 2, 7, 57
4, 237400, Control_c, 2, 7, 57
4, 237408, Control_c, 2, 7, 58
4, 237416, Control_c, 2, 7, 58
4, 237424, Control_c, 2, 7, 59
4, 237432, Control_c, 2, 7, 60
4, 237440, Control_c, 2, 7, 60
4, 237448, Control_c, 2, 7, 61
4, 237456, Control_c, 2, 7, 62
4, 237464, Control_c, 2, 7, 62
4, 237472, Control_c, 2, 7, 63
4, 237480, Control_c, 2, 7, 64
4, 237488, Control_c, 2, 7, 64
4, 237496, Control_c, 2, 7, 65
4, 237504, Control_c, 2, 7, 66
4, 237512, Control_c, 2, 7, 66
4, 237520, Control_c, 2, 7, 66
4, 237528, Control_c, 2, 7, 66
4, 237536, Control_c, 2, 7, 66
4, 237544, Control_c, 2, 7, 66
4, 237552, Control_c, 2, 7, 66
4, 237560, Control_c, 2, 7, 66
4, 237568, Control_c, 2, 7, 66
4, 237576, Control_c, 2, 7, 66
4, 237584, Control_c, 2, 7, 66
4, 237592, Control_c, 2, 7, 66
4, 237600, Control_c, 2, 7, 66
4, 237608, Control_c, 2, 7, 66
4, 237616, Control_c, 2, 7, 67
4, 237624, Control_c, 2, 7, 74
4, 237632, Control_c, 2, 7, 74
4, 237640, Control_c, 2, 7, 75
4, 237648, Control_c, 2, 7, 75
4, 237656, Control_c, 2, 7, 75
4, 237664, Control_c, 2, 7, 75
4, 237672, Control_c, 2, 7, 75
4, 237680, Control_c, 2, 7, 75
4, 237688, Control_c, 2, 7, 75
4, 237696, Control_c, 2, 7, 76
4, 237704, Control_c, 2, 7, 77
4, 237712, Control_c, 2, 7, 78
4, 237720, Control_c, 2, 7, 79
4, 237728, Control_c, 2, 7, 80
4, 237736, Control_c, 2, 7, 81
4, 237744, Control_c, 2, 7, 82
4, 237752, Control_c, 2, 7, 83
4, 237760, Control_c, 2, 7, 84
4, 237768, Control_c, 2, 7, 84
4, 237776, Control_c, 2, 7, 84
4, 237784, Control_c, 2, 7, 84
4, 237792, Control_c, 2, 7, 84
4, 237800, Control_c, 2, 7, 84
4, 237808, Control_c, 2, 7, 93
4, 237816, Control_c, 2, 7, 94
4, 237824, Control_c, 2, 7, 95
4, 237832, Control_c, 2, 7, 96
4, 237840, Control_c, 2, 7, 97
4, 237848, Control_c, 2, 7, 99
4, 237856, Control_c, 2, 7, 100
4, 237864, Control_c, 2, 7, 101
4, 237872, Control_c, 2, 7, 102
4, 237880, Control_c, 2, 7, 104
4, 237888, Control_c, 2, 7, 105
4, 237896, Control_c, 2, 7, 105
4, 237904, Control_c, 2, 7, 105
4, 237912, Control_c, 2, 7, 106
4, 237920, Control_c, 2, 7, 106
4, 237928, Control_c, 2, 7, 107
4, 237936, Control_c, 2, 7, 110
4, 237944, Control_c, 2, 7, 111
4, 237952, Control_c, 2, 7, 111
4, 237960, Control_c, 2, 7, 111
4, 237968, Control_c, 2, 7, 111
4, 237976, Control_c, 2, 7, 111
4, 237984, Control_c, 2, 7, 112
4, 237992, Control_c, 2, 7, 112
4, 238000, Control_c, 2, 7, 114
4, 238008, Control_c, 2, 7, 114
4, 238016, Control_c, 2, 7, 114
4, 238024, Control_c, 2, 7, 114
4, 238032, Control_c, 2, 7, 114
4, 238040, Control_c, 2, 7, 116
4, 238048, Control_c, 2, 7, 117
4, 238056, Control_c, 2, 7, 117
4, 238064, Control_c, 2, 7, 120
4, 238072, Control_c, 2, 7, 120
4, 238080, Note_on_c, 2, 74, 0
4, 238080, Note_on_c, 2, 78, 0
4, 238080, Note_on_c, 2, 79, 60
4, 238080, Control_c, 2, 7, 120
4, 238080, Note_on_c, 2, 70, 60
4, 238088, Control_c, 2, 7, 120
4, 238096, Control_c, 2, 7, 120
4, 238104, Control_c, 2, 7, 121
4, 238112, Control_c, 2, 7, 121
4, 238120, Control_c, 2, 7, 121
4, 238122, Note_on_c, 2, 70, 0
4, 238122, Note_on_c, 2, 79, 0
4, 238128, Control_c, 2, 7, 121
4, 238136, Control_c, 2, 7, 121
4, 238144, Control_c, 2, 7, 122
4, 238152, Control_c, 2, 7, 124
4, 238160, Control_c, 2, 7, 124
4, 238168, Control_c, 2, 7, 125
4, 238176, Control_c, 2, 7, 125
4, 238184, Control_c, 2, 7, 124
4, 238192, Control_c, 2, 7, 121
4, 238200, Control_c, 2, 7, 121
4, 238208, Control_c, 2, 7, 117
4, 238216, Control_c, 2, 7, 114
4, 238224, Control_c, 2, 7, 113
4, 238232, Control_c, 2, 7, 112
4, 238240, Control_c, 2, 7, 107
4, 238248, Control_c, 2, 7, 107
4, 238256, Control_c, 2, 7, 105
4, 238264, Control_c, 2, 7, 103
4, 238272, Control_c, 2, 7, 103
4, 238320, Note_on_c, 2, 79, 60
4, 238320, Note_on_c, 2, 70, 55
4, 238642, Note_on_c, 2, 79, 0
4, 238646, Note_on_c, 2, 70, 0
4, 238800, Note_on_c, 2, 75, 64
4, 238800, Note_on_c, 2, 67, 68
4, 238874, Note_on_c, 2, 75, 0
4, 238876, Note_on_c, 2, 67, 0
4, 239040, Note_on_c, 2, 70, 65
4, 239750, Note_on_c, 2, 70, 0
4, 240000, Note_on_c, 2, 79, 46
4, 240000, Note_on_c, 2, 70, 60
4, 240082, Note_on_c, 2, 70, 0
4, 240082, Note_on_c, 2, 79, 0
4, 240240, Note_on_c, 2, 79, 56
4, 240240, Note_on_c, 2, 70, 56
4, 240690, Note_on_c, 2, 70, 0
4, 240690, Note_on_c, 2, 79, 0
4, 240720, Note_on_c, 2, 75, 56
4, 240720, Note_on_c, 2, 67, 55
4, 240796, Note_on_c, 2, 75, 0
4, 240802, Note_on_c, 2, 67, 0
4, 240960, Note_on_c, 2, 70, 63
4, 241484, Note_on_c, 2, 70, 0
4, 241800, Note_on_c, 2, 75, 47
4, 241800, Note_on_c, 2, 67, 37
4, 241858, Note_on_c, 2, 67, 0
4, 241858, Note_on_c, 2, 75, 0
4, 241860, Note_on_c, 2, 77, 80
4, 241860, Note_on_c, 2, 68, 80
4, 241908, Note_on_c, 2, 68, 0
4, 241908, Note_on_c, 2, 77, 0
4, 241920, Note_on_c, 2, 79, 65
4, 241920, Note_on_c, 2, 70, 61
4, 242240, Note_on_c, 2, 79, 0
4, 242242, Note_on_c, 2, 70, 0
4, 242400, Note_on_c, 2, 75, 53
4, 242400, Note_on_c, 2, 67, 52
4, 242482, Note_on_c, 2, 67, 0
4, 242482, Note_on_c, 2, 75, 0
4, 242640, Note_on_c, 2, 74, 59
4, 242640, Note_on_c, 2, 67, 51
4, 242714, Note_on_c, 2, 74, 0
4, 242722, Note_on_c, 2, 67, 0
4, 242880, Note_on_c, 2, 72, 65
4, 242880, Note_on_c, 2, 68, 64
4, 243264, Note_on_c, 2, 68, 0
4, 243264, Note_on_c, 2, 72, 0
4, 243360, Note_on_c, 2, 72, 61
4, 243360, Note_on_c, 2, 68, 50
4, 243468, Note_on_c, 2, 68, 0
4, 243468, Note_on_c, 2, 72, 0
4, 243600, Note_on_c, 2, 72, 62
4, 243600, Note_on_c, 2, 68, 55
4, 243708, Note_on_c, 2, 68, 0
4, 243708, Note_on_c, 2, 72, 0
4, 243840, Note_on_c, 2, 74, 71
4, 243840, Note_on_c, 2, 65, 53
4, 244272, Note_on_c, 2, 65, 0
4, 244272, Note_on_c, 2, 74, 0
4, 244320, Note_on_c, 2, 65, 44
4, 244320, Note_on_c, 2, 74, 58
4, 244428, Note_on_c, 2, 74, 0
4, 244428, Note_on_c, 2, 65, 0
4, 244560, Note_on_c, 2, 65, 49
4, 244560, Note_on_c, 2, 74, 59
4, 244668, Note_on_c, 2, 74, 0
4, 244668, Note_on_c, 2, 65, 0
4, 244800, Note_on_c, 2, 67, 45
4, 244800, Note_on_c, 2, 75, 65
4, 244908, Note_on_c, 2, 75, 0
4, 244908, Note_on_c, 2, 67, 0
4, 245640, Note_on_c, 2, 75, 56
4, 245640, Note_on_c, 2, 67, 56
4, 245700, Note_on_c, 2, 67, 0
4, 245700, Note_on_c, 2, 75, 0
4, 245700, Note_on_c, 2, 68, 56
4, 245700, Note_on_c, 2, 77, 56
4, 245760, Note_on_c, 2, 77, 0
4, 245760, Note_on_c, 2, 68, 0
4, 245760, Note_on_c, 2, 70, 44
4, 245760, Note_on_c, 2, 79, 45
4, 246050, Note_on_c, 2, 79, 0
4, 246066, Note_on_c, 2, 70, 0
4, 246240, Note_on_c, 2, 67, 42
4, 246240, Note_on_c, 2, 75, 41
4, 246310, Note_on_c, 2, 75, 0
4, 246310, Note_on_c, 2, 67, 0
4, 246480, Note_on_c, 2, 75, 38
4, 246480, Note_on_c, 2, 67, 33
4, 246532, Note_on_c, 2, 75, 0
4, 246544, Note_on_c, 2, 67, 0
4, 246720, Note_on_c, 2, 65, 40
4, 246720, Note_on_c, 2, 74, 44
4, 247036, Note_on_c, 2, 65, 0
4, 247044, Note_on_c, 2, 74, 0
4, 247200, Note_on_c, 2, 65, 28
4, 247200, Note_on_c, 2, 74, 41
4, 247250, Note_on_c, 2, 65, 0
4, 247282, Note_on_c, 2, 74, 0
4, 257280, Note_on_c, 2, 67, 34
4, 257760, Note_on_c, 2, 70, 52
4, 257774, Note_on_c, 2, 67, 0
4, 258240, Note_on_c, 2, 68, 54
4, 258280, Note_on_c, 2, 70, 0
4, 258720, Note_on_c, 2, 65, 45
4, 258740, Note_on_c, 2, 68, 0
4, 259200, Note_on_c, 2, 67, 56
4, 259214, Note_on_c, 2, 65, 0
4, 259664, Note_on_c, 2, 67, 0
4, 259680, Note_on_c, 2, 63, 59
4, 260160, Note_on_c, 2, 65, 66
4, 260170, Note_on_c, 2, 63, 0
4, 260640, Note_on_c, 2, 58, 50
4, 260642, Note_on_c, 2, 65, 0
4, 261016, Note_on_c, 2, 58, 0
4, 261120, Note_on_c, 2, 67, 65
4, 261600, Note_on_c, 2, 67, 0
4, 261600, Note_on_c, 2, 70, 64
4, 262080, Note_on_c, 2, 68, 60
4, 262090, Note_on_c, 2, 70, 0
4, 262560, Note_on_c, 2, 65, 53
4, 262564, Note_on_c, 2, 68, 0
4, 263040, Note_on_c, 2, 67, 64
4, 263054, Note_on_c, 2, 65, 0
4, 263520, Note_on_c, 2, 70, 59
4, 263550, Note_on_c, 2, 67, 0
4, 264000, Note_on_c, 2, 72, 73
4, 264042, Note_on_c, 2, 70, 0
4, 264480, Note_on_c, 2, 68, 62
4, 264506, Note_on_c, 2, 72, 0
4, 264960, Note_on_c, 2, 70, 58
4, 264992, Note_on_c, 2, 68, 0
4, 265440, Note_on_c, 2, 74, 62
4, 265446, Note_on_c, 2, 70, 0
4, 265920, Note_on_c, 2, 75, 70
4, 265950, Note_on_c, 2, 74, 0
4, 266400, Note_on_c, 2, 72, 64
4, 266422, Note_on_c, 2, 75, 0
4, 266880, Note_on_c, 2, 74, 70
4, 266910, Note_on_c, 2, 72, 0
4, 267360, Note_on_c, 2, 77, 97
4, 267366, Note_on_c, 2, 74, 0
4, 267840, Note_on_c, 2, 79, 86
4, 267892, Note_on_c, 2, 77, 0
4, 268320, Note_on_c, 2, 75, 79
4, 268346, Note_on_c, 2, 79, 0
4, 268800, Note_on_c, 2, 79, 83
4, 268830, Note_on_c, 2, 75, 0
4, 269262, Note_on_c, 2, 79, 0
4, 269280, Note_on_c, 2, 76, 67
4, 269676, Note_on_c, 2, 76, 0
4, 269760, Note_on_c, 2, 77, 81
4, 269760, Note_on_c, 2, 80, 84
4, 270192, Note_on_c, 2, 77, 0
4, 270240, Note_on_c, 2, 68, 68
4, 270240, Note_on_c, 2, 77, 81
4, 270316, Note_on_c, 2, 80, 0
4, 270390, Note_on_c, 2, 68, 0
4, 270392, Note_on_c, 2, 77, 0
4, 270720, Note_on_c, 2, 68, 67
4, 270720, Note_on_c, 2, 77, 80
4, 271200, Note_on_c, 2, 74, 62
4, 271200, Note_on_c, 2, 65, 55
4, 271246, Note_on_c, 2, 68, 0
4, 271272, Note_on_c, 2, 77, 0
4, 271454, Note_on_c, 2, 74, 0
4, 271496, Note_on_c, 2, 65, 0
4, 271680, Note_on_c, 2, 77, 86
4, 271680, Note_on_c, 2, 80, 85
4, 272074, Note_on_c, 2, 77, 0
4, 272160, Note_on_c, 2, 68, 67
4, 272160, Note_on_c, 2, 77, 83
4, 272214, Note_on_c, 2, 80, 0
4, 272314, Note_on_c, 2, 68, 0
4, 272316, Note_on_c, 2, 77, 0
4, 272640, Note_on_c, 2, 77, 91
4, 272640, Note_on_c, 2, 68, 66
4, 273104, Note_on_c, 2, 68, 0
4, 273120, Note_on_c, 2, 65, 65
4, 273120, Note_on_c, 2, 74, 65
4, 273130, Note_on_c, 2, 77, 0
4, 273404, Note_on_c, 2, 65, 0
4, 273410, Note_on_c, 2, 74, 0
4, 273480, Note_on_c, 2, 80, 85
4, 273480, Note_on_c, 2, 74, 74
4, 273554, Note_on_c, 2, 74, 0
4, 273604, Note_on_c, 2, 80, 0
4, 273840, Note_on_c, 2, 74, 76
4, 273840, Note_on_c, 2, 80, 84
4, 274164, Note_on_c, 2, 80, 0
4, 274166, Note_on_c, 2, 74, 0
4, 274320, Note_on_c, 2, 74, 78
4, 274320, Note_on_c, 2, 80, 84
4, 274630, Note_on_c, 2, 74, 0
4, 274636, Note_on_c, 2, 80, 0
4, 274800, Note_on_c, 2, 74, 78
4, 274800, Note_on_c, 2, 80, 81
4, 275100, Note_on_c, 2, 74, 0
4, 275116, Note_on_c, 2, 80, 0
4, 275280, Note_on_c, 2, 80, 84
4, 275280, Note_on_c, 2, 74, 77
4, 275604, Note_on_c, 2, 74, 0
4, 275604, Note_on_c, 2, 80, 0
4, 275760, Note_on_c, 2, 80, 95
4, 275760, Note_on_c, 2, 74, 81
4, 276070, Note_on_c, 2, 80, 0
4, 276086, Note_on_c, 2, 74, 0
4, 276240, Note_on_c, 2, 74, 78
4, 276240, Note_on_c, 2, 80, 93
4, 276584, Note_on_c, 2, 80, 0
4, 276600, Note_on_c, 2, 74, 0
4, 276720, Note_on_c, 2, 74, 78
4, 276720, Note_on_c, 2, 80, 91
4, 277014, Note_on_c, 2, 74, 0
4, 277026, Note_on_c, 2, 80, 0
4, 277200, Note_on_c, 2, 74, 73
4, 277200, Note_on_c, 2, 80, 81
4, 277292, Note_on_c, 2, 80, 0
4, 277300, Note_on_c, 2, 74, 0
4, 277440, Note_on_c, 2, 79, 87
4, 277440, Note_on_c, 2, 75, 91
4, 277502, Note_on_c, 2, 75, 0
4, 277524, Note_on_c, 2, 79, 0
4, 277680, Note_on_c, 2, 70, 80
4, 277680, Note_on_c, 2, 79, 85
4, 277944, Note_on_c, 2, 79, 0
4, 277944, Note_on_c, 2, 70, 0
4, 278160, Note_on_c, 2, 67, 86
4, 278160, Note_on_c, 2, 75, 88
4, 278236, Note_on_c, 2, 75, 0
4, 278240, Note_on_c, 2, 67, 0
4, 278400, Note_on_c, 2, 70, 91
4, 278400, Note_on_c, 2, 67, 79
4, 279230, Note_on_c, 2, 70, 0
4, 279234, Note_on_c, 2, 67, 0
4, 279360, Note_on_c, 2, 70, 85
4, 279360, Note_on_c, 2, 79, 86
4, 279434, Note_on_c, 2, 70, 0
4, 279454, Note_on_c, 2, 79, 0
4, 279600, Note_on_c, 2, 70, 90
4, 279600, Note_on_c, 2, 79, 85
4, 279880, Note_on_c, 2, 79, 0
4, 279894, Note_on_c, 2, 70, 0
4, 280080, Note_on_c, 2, 75, 77
4, 280080, Note_on_c, 2, 67, 80
4, 280170, Note_on_c, 2, 67, 0
4, 280174, Note_on_c, 2, 75, 0
4, 280320, Note_on_c, 2, 70, 94
4, 280320, Note_on_c, 2, 67, 70
4, 280816, Note_on_c, 2, 67, 0
4, 280854, Note_on_c, 2, 70, 0
4, 281160, Note_on_c, 2, 75, 75
4, 281218, Note_on_c, 2, 75, 0
4, 281220, Note_on_c, 2, 77, 75
4, 281278, Note_on_c, 2, 77, 0
4, 281280, Note_on_c, 2, 75, 67
4, 281280, Note_on_c, 2, 79, 67
4, 281730, Note_on_c, 2, 79, 0
4, 281730, Note_on_c, 2, 75, 0
4, 281760, Note_on_c, 2, 70, 54
4, 281760, Note_on_c, 2, 75, 75
4, 281986, Note_on_c, 2, 75, 0
4, 281986, Note_on_c, 2, 70, 0
4, 282000, Note_on_c, 2, 74, 75
4, 282000, Note_on_c, 2, 67, 61
4, 282226, Note_on_c, 2, 67, 0
4, 282226, Note_on_c, 2, 74, 0
4, 282240, Note_on_c, 2, 72, 94
4, 282240, Note_on_c, 2, 68, 68
4, 282530, Note_on_c, 2, 68, 0
4, 282530, Note_on_c, 2, 72, 0
4, 282720, Note_on_c, 2, 72, 90
4, 282720, Note_on_c, 2, 68, 67
4, 282804, Note_on_c, 2, 72, 0
4, 282814, Note_on_c, 2, 68, 0
4, 282960, Note_on_c, 2, 68, 61
4, 282960, Note_on_c, 2, 72, 80
4, 283042, Note_on_c, 2, 72, 0
4, 283076, Note_on_c, 2, 68, 0
4, 283200, Note_on_c, 2, 65, 51
4, 283200, Note_on_c, 2, 74, 94
4, 283506, Note_on_c, 2, 74, 0
4, 283530, Note_on_c, 2, 65, 0
4, 283680, Note_on_c, 2, 65, 62
4, 283680, Note_on_c, 2, 74, 87
4, 283762, Note_on_c, 2, 65, 0
4, 283772, Note_on_c, 2, 74, 0
4, 283920, Note_on_c, 2, 74, 83
4, 283920, Note_on_c, 2, 65, 65
4, 284022, Note_on_c, 2, 74, 0
4, 284026, Note_on_c, 2, 65, 0
4, 284160, Note_on_c, 2, 75, 94
4, 284160, Note_on_c, 2, 67, 76
4, 284480, Note_on_c, 2, 75, 0
4, 284490, Note_on_c, 2, 67, 0
4, 285000, Note_on_c, 2, 75, 75
4, 285058, Note_on_c, 2, 75, 0
4, 285060, Note_on_c, 2, 77, 75
4, 285118, Note_on_c, 2, 77, 0
4, 285120, Note_on_c, 2, 75, 67
4, 285120, Note_on_c, 2, 79, 67
4, 285570, Note_on_c, 2, 79, 0
4, 285570, Note_on_c, 2, 75, 0
4, 285600, Note_on_c, 2, 70, 54
4, 285600, Note_on_c, 2, 75, 75
4, 285826, Note_on_c, 2, 75, 0
4, 285826, Note_on_c, 2, 70, 0
4, 285840, Note_on_c, 2, 74, 75
4, 285840, Note_on_c, 2, 67, 61
4, 286066, Note_on_c, 2, 67, 0
4, 286066, Note_on_c, 2, 74, 0
4, 286080, Note_on_c, 2, 68, 68
4, 286080, Note_on_c, 2, 72, 94
4, 286370, Note_on_c, 2, 72, 0
4, 286370, Note_on_c, 2, 68, 0
4, 286560, Note_on_c, 2, 72, 90
4, 286560, Note_on_c, 2, 68, 67
4, 286644, Note_on_c, 2, 72, 0
4, 286654, Note_on_c, 2, 68, 0
4, 286800, Note_on_c, 2, 68, 61
4, 286800, Note_on_c, 2, 72, 80
4, 286882, Note_on_c, 2, 72, 0
4, 286916, Note_on_c, 2, 68, 0
4, 287040, Note_on_c, 2, 65, 65
4, 287040, Note_on_c, 2, 74, 85
4, 287354, Note_on_c, 2, 74, 0
4, 287416, Note_on_c, 2, 65, 0
4, 287520, Note_on_c, 2, 74, 81
4, 287520, Note_on_c, 2, 65, 61
4, 287606, Note_on_c, 2, 74, 0
4, 287624, Note_on_c, 2, 65, 0
4, 287760, Note_on_c, 2, 74, 79
4, 287760, Note_on_c, 2, 65, 61
4, 287854, Note_on_c, 2, 74, 0
4, 287872, Note_on_c, 2, 65, 0
4, 288000, Note_on_c, 2, 75, 39
4, 288000, Note_on_c, 2, 63, 50
4, 290400, Note_on_c, 2, 63, 0
4, 290400, Note_on_c, 2, 75, 0
4, 290400, Note_on_c, 2, 64, 50
4, 290400, Note_on_c, 2, 76, 39
4, 290880, Note_on_c, 2, 76, 0
4, 290880, Note_on_c, 2, 64, 0
4, 290880, Note_on_c, 2, 65, 51
4, 290880, Note_on_c, 2, 77, 42
4, 291360, Note_on_c, 2, 77, 0
4, 291360, Note_on_c, 2, 65, 0
4, 291840, Note_on_c, 2, 77, 39
4, 291840, Note_on_c, 2, 65, 50
4, 294240, Note_on_c, 2, 65, 0
4, 294240, Note_on_c, 2, 77, 0
4, 294240, Note_on_c, 2, 78, 39
4, 294240, Note_on_c, 2, 66, 50
4, 294720, Note_on_c, 2, 66, 0
4, 294720, Note_on_c, 2, 78, 0
4, 294720, Note_on_c, 2, 67, 51
4, 294720, Note_on_c, 2, 79, 42
4, 295200, Note_on_c, 2, 79, 0
4, 295200, Note_on_c, 2, 67, 0
4, 295680, Note_on_c, 2, 77, 58
4, 296580, Note_on_c, 2, 77, 0
4, 296640, Note_on_c, 2, 75, 49
4, 297474, Note_on_c, 2, 75, 0
4, 297600, Note_on_c, 2, 72, 53
4, 297600, Note_on_c, 2, 60, 53
4, 298340, Note_on_c, 2, 60, 0
4, 298386, Note_on_c, 2, 72, 0
4, 298560, Note_on_c, 2, 69, 56
4, 298560, Note_on_c, 2, 57, 45
4, 299364, Note_on_c, 2, 57, 0
4, 299376, Note_on_c, 2, 69, 0
4, 299520, Note_on_c, 2, 70, 61
4, 299520, Note_on_c, 2, 58, 51
4, 299840, Note_on_c, 2, 58, 0
4, 299866, Note_on_c, 2, 70, 0
4, 300000, Note_on_c, 2, 65, 55
4, 300000, Note_on_c, 2, 74, 54
4, 300296, Note_on_c, 2, 65, 0
4, 300344, Note_on_c, 2, 74, 0
4, 300480, Note_on_c, 2, 75, 62
4, 300480, Note_on_c, 2, 67, 55
4, 300730, Note_on_c, 2, 67, 0
4, 300736, Note_on_c, 2, 75, 0
4, 300960, Note_on_c, 2, 67, 56
4, 300960, Note_on_c, 2, 75, 60
4, 301176, Note_on_c, 2, 67, 0
4, 301246, Note_on_c, 2, 75, 0
4, 301440, Note_on_c, 2, 65, 53
4, 301440, Note_on_c, 2, 74, 56
4, 301616, Note_on_c, 2, 65, 0
4, 301626, Note_on_c, 2, 74, 0
4, 301920, Note_on_c, 2, 74, 51
4, 301920, Note_on_c, 2, 77, 62
4, 302154, Note_on_c, 2, 74, 0
4, 302206, Note_on_c, 2, 77, 0
4, 302400, Note_on_c, 2, 75, 64
4, 302400, Note_on_c, 2, 67, 52
4, 302584, Note_on_c, 2, 75, 0
4, 302616, Note_on_c, 2, 67, 0
4, 302880, Note_on_c, 2, 75, 68
4, 302880, Note_on_c, 2, 79, 66
4, 303082, Note_on_c, 2, 75, 0
4, 303114, Note_on_c, 2, 79, 0
4, 303360, Note_on_c, 2, 77, 68
4, 303360, Note_on_c, 2, 74, 70
4, 303510, Note_on_c, 2, 77, 0
4, 303514, Note_on_c, 2, 74, 0
4, 303840, Note_on_c, 2, 74, 53
4, 303840, Note_on_c, 2, 65, 49
4, 304066, Note_on_c, 2, 65, 0
4, 304066, Note_on_c, 2, 74, 0
4, 304320, Note_on_c, 2, 75, 59
4, 304320, Note_on_c, 2, 67, 50
4, 304592, Note_on_c, 2, 67, 0
4, 304602, Note_on_c, 2, 75, 0
4, 304800, Note_on_c, 2, 75, 53
4, 304800, Note_on_c, 2, 67, 51
4, 305072, Note_on_c, 2, 67, 0
4, 305150, Note_on_c, 2, 75, 0
4, 305280, Note_on_c, 2, 62, 51
4, 305280, Note_on_c, 2, 74, 62
4, 305326, Note_on_c, 2, 62, 0
4, 305330, Note_on_c, 2, 74, 0
4, 305520, Note_on_c, 2, 82, 88
4, 305520, Note_on_c, 2, 70, 97
4, 305594, Note_on_c, 2, 82, 0
4, 305600, Note_on_c, 2, 70, 0
4, 305760, Note_on_c, 2, 82, 94
4, 305760, Note_on_c, 2, 70, 72
4, 305834, Note_on_c, 2, 70, 0
4, 305834, Note_on_c, 2, 82, 0
4, 306000, Note_on_c, 2, 82, 80
4, 306000, Note_on_c, 2, 70, 77
4, 306076, Note_on_c, 2, 82, 0
4, 306080, Note_on_c, 2, 70, 0
4, 306240, Note_on_c, 2, 84, 90
4, 306240, Note_on_c, 2, 72, 70
4, 306426, Note_on_c, 2, 72, 0
4, 306464, Note_on_c, 2, 84, 0
4, 306480, Note_on_c, 2, 82, 70
4, 306480, Note_on_c, 2, 70, 70
4, 306564, Note_on_c, 2, 82, 0
4, 306574, Note_on_c, 2, 70, 0
4, 306720, Note_on_c, 2, 79, 79
4, 306720, Note_on_c, 2, 67, 75
4, 306796, Note_on_c, 2, 79, 0
4, 306802, Note_on_c, 2, 67, 0
4, 306960, Note_on_c, 2, 75, 64
4, 306960, Note_on_c, 2, 63, 72
4, 307032, Note_on_c, 2, 75, 0
4, 307036, Note_on_c, 2, 63, 0
4, 307200, Note_on_c, 2, 70, 94
4, 307200, Note_on_c, 2, 58, 70
4, 307396, Note_on_c, 2, 58, 0
4, 307414, Note_on_c, 2, 70, 0
4, 307672, Control_c, 2, 7, 102
4, 307680, Note_on_c, 2, 79, 38
4, 307680, Control_c, 2, 7, 102
4, 307680, Note_on_c, 2, 67, 37
4, 307688, Control_c, 2, 7, 102
4, 307696, Control_c, 2, 7, 102
4, 307704, Control_c, 2, 7, 102
4, 307712, Control_c, 2, 7, 102
4, 307720, Control_c, 2, 7, 102
4, 307728, Control_c, 2, 7, 102
4, 307736, Control_c, 2, 7, 102
4, 307744, Control_c, 2, 7, 102
4, 307752, Control_c, 2, 7, 102
4, 307760, Control_c, 2, 7, 102
4, 307768, Control_c, 2, 7, 102
4, 307776, Control_c, 2, 7, 102
4, 307784, Control_c, 2, 7, 102
4, 307792, Control_c, 2, 7, 102
4, 307800, Control_c, 2, 7, 102
4, 307808, Control_c, 2, 7, 102
4, 307816, Control_c, 2, 7, 102
4, 307824, Control_c, 2, 7, 102
4, 307832, Control_c, 2, 7, 101
4, 307840, Control_c, 2, 7, 101
4, 307848, Control_c, 2, 7, 101
4, 307856, Control_c, 2, 7, 101
4, 307864, Control_c, 2, 7, 101
4, 307872, Control_c, 2, 7, 101
4, 307880, Control_c, 2, 7, 101
4, 307888, Control_c, 2, 7, 101
4, 307896, Control_c, 2, 7, 101
4, 307904, Control_c, 2, 7, 101
4, 307912, Control_c, 2, 7, 100
4, 307920, Control_c, 2, 7, 99
4, 307928, Control_c, 2, 7, 99
4, 307936, Control_c, 2, 7, 99
4, 307944, Control_c, 2, 7, 99
4, 307952, Control_c, 2, 7, 99
4, 307960, Control_c, 2, 7, 98
4, 307968, Control_c, 2, 7, 98
4, 307976, Control_c, 2, 7, 98
4, 307984, Control_c, 2, 7, 98
4, 307992, Control_c, 2, 7, 98
4, 308000, Control_c, 2, 7, 97
4, 308008, Control_c, 2, 7, 97
4, 308016, Control_c, 2, 7, 97
4, 308024, Control_c, 2, 7, 97
4, 308032, Control_c, 2, 7, 97
4, 308040, Control_c, 2, 7, 97
4, 308048, Control_c, 2, 7, 96
4, 308056, Control_c, 2, 7, 96
4, 308064, Control_c, 2, 7, 96
4, 308072, Control_c, 2, 7, 96
4, 308080, Control_c, 2, 7, 96
4, 308088, Control_c, 2, 7, 97
4, 308096, Control_c, 2, 7, 97
4, 308104, Control_c, 2, 7, 96
4, 308112, Control_c, 2, 7, 96
4, 308120, Control_c, 2, 7, 95
4, 308128, Control_c, 2, 7, 95
4, 308136, Control_c, 2, 7, 94
4, 308144, Control_c, 2, 7, 94
4, 308152, Control_c, 2, 7, 93
4, 308160, Control_c, 2, 7, 92
4, 308168, Control_c, 2, 7, 92
4, 308176, Control_c, 2, 7, 92
4, 308184, Control_c, 2, 7, 92
4, 308192, Control_c, 2, 7, 92
4, 308200, Control_c, 2, 7, 92
4, 308208, Control_c, 2, 7, 92
4, 308216, Control_c, 2, 7, 92
4, 308224, Control_c, 2, 7, 92
4, 308232, Control_c, 2, 7, 93
4, 308240, Control_c, 2, 7, 92
4, 308248, Control_c, 2, 7, 92
4, 308256, Control_c, 2, 7, 92
4, 308264, Control_c, 2, 7, 92
4, 308272, Control_c, 2, 7, 92
4, 308280, Control_c, 2, 7, 92
4, 308288, Control_c, 2, 7, 91
4, 308296, Control_c, 2, 7, 86
4, 308304, Control_c, 2, 7, 87
4, 308312, Control_c, 2, 7, 87
4, 308320, Control_c, 2, 7, 87
4, 308328, Control_c, 2, 7, 87
4, 308336, Control_c, 2, 7, 87
4, 308344, Control_c, 2, 7, 86
4, 308352, Control_c, 2, 7, 85
4, 308360, Control_c, 2, 7, 80
4, 308368, Control_c, 2, 7, 80
4, 308376, Control_c, 2, 7, 80
4, 308384, Control_c, 2, 7, 80
4, 308392, Control_c, 2, 7, 80
4, 308400, Control_c, 2, 7, 80
4, 308408, Control_c, 2, 7, 80
4, 308416, Control_c, 2, 7, 80
4, 308424, Control_c, 2, 7, 80
4, 308432, Control_c, 2, 7, 81
4, 308440, Control_c, 2, 7, 80
4, 308448, Control_c, 2, 7, 79
4, 308456, Control_c, 2, 7, 79
4, 308464, Control_c, 2, 7, 79
4, 308472, Control_c, 2, 7, 79
4, 308480, Control_c, 2, 7, 79
4, 308488, Control_c, 2, 7, 79
4, 308496, Control_c, 2, 7, 78
4, 308504, Control_c, 2, 7, 78
4, 308512, Control_c, 2, 7, 77
4, 308520, Control_c, 2, 7, 77
4, 308528, Control_c, 2, 7, 77
4, 308536, Control_c, 2, 7, 77
4, 308544, Control_c, 2, 7, 77
4, 308552, Control_c, 2, 7, 76
4, 308560, Control_c, 2, 7, 76
4, 308568, Control_c, 2, 7, 76
4, 308576, Control_c, 2, 7, 76
4, 308584, Control_c, 2, 7, 76
4, 308592, Control_c, 2, 7, 74
4, 308600, Control_c, 2, 7, 74
4, 308608, Control_c, 2, 7, 74
4, 308616, Control_c, 2, 7, 73
4, 308624, Control_c, 2, 7, 73
4, 308632, Control_c, 2, 7, 73
4, 308640, Control_c, 2, 7, 72
4, 308648, Control_c, 2, 7, 72
4, 308656, Control_c, 2, 7, 72
4, 308664, Control_c, 2, 7, 71
4, 308672, Control_c, 2, 7, 71
4, 308680, Control_c, 2, 7, 71
4, 308688, Control_c, 2, 7, 70
4, 308696, Control_c, 2, 7, 70
4, 308704, Control_c, 2, 7, 70
4, 308712, Control_c, 2, 7, 69
4, 308720, Control_c, 2, 7, 69
4, 308728, Control_c, 2, 7, 68
4, 308736, Control_c, 2, 7, 68
4, 308744, Control_c, 2, 7, 68
4, 308752, Control_c, 2, 7, 68
4, 308760, Control_c, 2, 7, 68
4, 308768, Control_c, 2, 7, 68
4, 308776, Control_c, 2, 7, 68
4, 308784, Control_c, 2, 7, 68
4, 308792, Control_c, 2, 7, 68
4, 308800, Control_c, 2, 7, 68
4, 308808, Control_c, 2, 7, 67
4, 308816, Control_c, 2, 7, 67
4, 308824, Control_c, 2, 7, 67
4, 308832, Control_c, 2, 7, 67
4, 308840, Control_c, 2, 7, 67
4, 308848, Control_c, 2, 7, 67
4, 308856, Control_c, 2, 7, 67
4, 308864, Control_c, 2, 7, 67
4, 308872, Control_c, 2, 7, 67
4, 308880, Control_c, 2, 7, 67
4, 308888, Control_c, 2, 7, 67
4, 308896, Control_c, 2, 7, 67
4, 308904, Control_c, 2, 7, 67
4, 308912, Control_c, 2, 7, 67
4, 308920, Control_c, 2, 7, 67
4, 308928, Control_c, 2, 7, 67
4, 308936, Control_c, 2, 7, 67
4, 308944, Control_c, 2, 7, 67
4, 308952, Control_c, 2, 7, 67
4, 308960, Control_c, 2, 7, 66
4, 308968, Control_c, 2, 7, 66
4, 308976, Control_c, 2, 7, 66
4, 308984, Control_c, 2, 7, 66
4, 308992, Control_c, 2, 7, 66
4, 309000, Control_c, 2, 7, 66
4, 309008, Control_c, 2, 7, 66
4, 309016, Control_c, 2, 7, 65
4, 309024, Control_c, 2, 7, 65
4, 309032, Control_c, 2, 7, 65
4, 309040, Control_c, 2, 7, 65
4, 309048, Control_c, 2, 7, 65
4, 309056, Control_c, 2, 7, 64
4, 309064, Control_c, 2, 7, 64
4, 309072, Control_c, 2, 7, 64
4, 309080, Control_c, 2, 7, 64
4, 309088, Control_c, 2, 7, 64
4, 309096, Control_c, 2, 7, 63
4, 309104, Control_c, 2, 7, 61
4, 309112, Control_c, 2, 7, 61
4, 309120, Control_c, 2, 7, 61
4, 309128, Control_c, 2, 7, 61
4, 309136, Control_c, 2, 7, 61
4, 309144, Control_c, 2, 7, 60
4, 309152, Control_c, 2, 7, 60
4, 309160, Control_c, 2, 7, 60
4, 309168, Control_c, 2, 7, 60
4, 309176, Control_c, 2, 7, 60
4, 309184, Control_c, 2, 7, 60
4, 309192, Control_c, 2, 7, 59
4, 309200, Control_c, 2, 7, 58
4, 309208, Control_c, 2, 7, 57
4, 309216, Control_c, 2, 7, 56
4, 309224, Control_c, 2, 7, 55
4, 309232, Control_c, 2, 7, 55
4, 309240, Control_c, 2, 7, 56
4, 309248, Control_c, 2, 7, 56
4, 309256, Control_c, 2, 7, 56
4, 309264, Control_c, 2, 7, 56
4, 309272, Control_c, 2, 7, 55
4, 309280, Control_c, 2, 7, 55
4, 309288, Control_c, 2, 7, 55
4, 309296, Control_c, 2, 7, 54
4, 309304, Control_c, 2, 7, 54
4, 309312, Control_c, 2, 7, 54
4, 309320, Control_c, 2, 7, 53
4, 309328, Control_c, 2, 7, 53
4, 309336, Control_c, 2, 7, 53
4, 309344, Control_c, 2, 7, 52
4, 309352, Control_c, 2, 7, 52
4, 309360, Control_c, 2, 7, 51
4, 309368, Control_c, 2, 7, 51
4, 309376, Control_c, 2, 7, 51
4, 309384, Control_c, 2, 7, 51
4, 309392, Control_c, 2, 7, 51
4, 309400, Control_c, 2, 7, 51
4, 309408, Control_c, 2, 7, 51
4, 309416, Control_c, 2, 7, 51
4, 309424, Control_c, 2, 7, 51
4, 309432, Control_c, 2, 7, 51
4, 309440, Control_c, 2, 7, 51
4, 309448, Control_c, 2, 7, 51
4, 309456, Control_c, 2, 7, 51
4, 309464, Control_c, 2, 7, 51
4, 309472, Control_c, 2, 7, 52
4, 309480, Control_c, 2, 7, 52
4, 309488, Control_c, 2, 7, 52
4, 309496, Control_c, 2, 7, 52
4, 309504, Control_c, 2, 7, 52
4, 309512, Control_c, 2, 7, 51
4, 309520, Control_c, 2, 7, 51
4, 309528, Control_c, 2, 7, 51
4, 309536, Control_c, 2, 7, 51
4, 309544, Control_c, 2, 7, 51
4, 309552, Control_c, 2, 7, 51
4, 309560, Control_c, 2, 7, 51
4, 309568, Control_c, 2, 7, 51
4, 309576, Control_c, 2, 7, 51
4, 309584, Control_c, 2, 7, 51
4, 309592, Control_c, 2, 7, 46
4, 309600, Control_c, 2, 7, 46
4, 309608, Control_c, 2, 7, 46
4, 309616, Control_c, 2, 7, 46
4, 309624, Control_c, 2, 7, 46
4, 309632, Control_c, 2, 7, 45
4, 309640, Control_c, 2, 7, 45
4, 309648, Control_c, 2, 7, 45
4, 309656, Control_c, 2, 7, 45
4, 309664, Control_c, 2, 7, 45
4, 309672, Control_c, 2, 7, 44
4, 309680, Control_c, 2, 7, 45
4, 309688, Control_c, 2, 7, 45
4, 309696, Control_c, 2, 7, 45
4, 309704, Control_c, 2, 7, 45
4, 309712, Control_c, 2, 7, 45
4, 309720, Control_c, 2, 7, 45
4, 309728, Control_c, 2, 7, 45
4, 309736, Control_c, 2, 7, 45
4, 309744, Control_c, 2, 7, 45
4, 309752, Control_c, 2, 7, 45
4, 309760, Control_c, 2, 7, 44
4, 309768, Control_c, 2, 7, 43
4, 309776, Control_c, 2, 7, 42
4, 309784, Control_c, 2, 7, 42
4, 309792, Control_c, 2, 7, 42
4, 309800, Control_c, 2, 7, 42
4, 309808, Control_c, 2, 7, 42
4, 309816, Control_c, 2, 7, 42
4, 309824, Control_c, 2, 7, 41
4, 309832, Control_c, 2, 7, 39
4, 309840, Control_c, 2, 7, 39
4, 309848, Control_c, 2, 7, 39
4, 309856, Control_c, 2, 7, 39
4, 309864, Control_c, 2, 7, 39
4, 309872, Control_c, 2, 7, 39
4, 309880, Control_c, 2, 7, 38
4, 309888, Control_c, 2, 7, 39
4, 309896, Control_c, 2, 7, 39
4, 309904, Control_c, 2, 7, 39
4, 309912, Control_c, 2, 7, 39
4, 309920, Control_c, 2, 7, 39
4, 309928, Control_c, 2, 7, 39
4, 309936, Control_c, 2, 7, 39
4, 309944, Control_c, 2, 7, 39
4, 309952, Control_c, 2, 7, 39
4, 309960, Control_c, 2, 7, 39
4, 309968, Control_c, 2, 7, 39
4, 309976, Control_c, 2, 7, 40
4, 309984, Control_c, 2, 7, 40
4, 309992, Control_c, 2, 7, 39
4, 310000, Control_c, 2, 7, 38
4, 310008, Control_c, 2, 7, 37
4, 310016, Control_c, 2, 7, 37
4, 310024, Control_c, 2, 7, 37
4, 310032, Control_c, 2, 7, 37
4, 310040, Control_c, 2, 7, 37
4, 310048, Control_c, 2, 7, 35
4, 310056, Control_c, 2, 7, 35
4, 310064, Control_c, 2, 7, 35
4, 310072, Control_c, 2, 7, 35
4, 310080, Control_c, 2, 7, 35
4, 310088, Control_c, 2, 7, 35
4, 310096, Control_c, 2, 7, 35
4, 310104, Control_c, 2, 7, 35
4, 310112, Control_c, 2, 7, 35
4, 310120, Control_c, 2, 7, 35
4, 310128, Control_c, 2, 7, 35
4, 310136, Control_c, 2, 7, 34
4, 310144, Control_c, 2, 7, 34
4, 310152, Control_c, 2, 7, 34
4, 310160, Control_c, 2, 7, 34
4, 310168, Control_c, 2, 7, 34
4, 310176, Control_c, 2, 7, 33
4, 310184, Control_c, 2, 7, 33
4, 310192, Control_c, 2, 7, 34
4, 310200, Control_c, 2, 7, 33
4, 310208, Control_c, 2, 7, 33
4, 310216, Control_c, 2, 7, 33
4, 310224, Control_c, 2, 7, 33
4, 310232, Control_c, 2, 7, 33
4, 310240, Control_c, 2, 7, 33
4, 310248, Control_c, 2, 7, 33
4, 310256, Control_c, 2, 7, 33
4, 310264, Control_c, 2, 7, 33
4, 310272, Control_c, 2, 7, 31
4, 310280, Control_c, 2, 7, 30
4, 310288, Control_c, 2, 7, 30
4, 310296, Control_c, 2, 7, 29
4, 310304, Control_c, 2, 7, 29
4, 310312, Control_c, 2, 7, 29
4, 310320, Control_c, 2, 7, 29
4, 310328, Control_c, 2, 7, 29
4, 310336, Control_c, 2, 7, 27
4, 310344, Control_c, 2, 7, 27
4, 310352, Control_c, 2, 7, 25
4, 310360, Control_c, 2, 7, 25
4, 310368, Control_c, 2, 7, 25
4, 310376, Control_c, 2, 7, 25
4, 310384, Control_c, 2, 7, 25
4, 310392, Control_c, 2, 7, 26
4, 310400, Control_c, 2, 7, 26
4, 310408, Control_c, 2, 7, 26
4, 310416, Control_c, 2, 7, 26
4, 310424, Control_c, 2, 7, 26
4, 310432, Control_c, 2, 7, 26
4, 310440, Control_c, 2, 7, 26
4, 310448, Control_c, 2, 7, 26
4, 310456, Control_c, 2, 7, 26
4, 310464, Control_c, 2, 7, 26
4, 310472, Control_c, 2, 7, 26
4, 310480, Control_c, 2, 7, 26
4, 310488, Control_c, 2, 7, 26
4, 310496, Control_c, 2, 7, 26
4, 310504, Control_c, 2, 7, 26
4, 310512, Control_c, 2, 7, 26
4, 310520, Control_c, 2, 7, 26
4, 310528, Control_c, 2, 7, 25
4, 310536, Control_c, 2, 7, 25
4, 310544, Control_c, 2, 7, 25
4, 310552, Control_c, 2, 7, 25
4, 310560, Control_c, 2, 7, 26
4, 310568, Control_c, 2, 7, 26
4, 310576, Control_c, 2, 7, 26
4, 310584, Control_c, 2, 7, 26
4, 310592, Control_c, 2, 7, 26
4, 310600, Control_c, 2, 7, 26
4, 310608, Control_c, 2, 7, 24
4, 310616, Control_c, 2, 7, 24
4, 310624, Control_c, 2, 7, 24
4, 310632, Control_c, 2, 7, 24
4, 310640, Control_c, 2, 7, 24
4, 310648, Control_c, 2, 7, 25
4, 310656, Control_c, 2, 7, 25
4, 310664, Control_c, 2, 7, 25
4, 310672, Control_c, 2, 7, 25
4, 310680, Control_c, 2, 7, 25
4, 310688, Control_c, 2, 7, 26
4, 310696, Control_c, 2, 7, 25
4, 310704, Control_c, 2, 7, 24
4, 310712, Control_c, 2, 7, 24
4, 310720, Control_c, 2, 7, 24
4, 310728, Control_c, 2, 7, 24
4, 310736, Control_c, 2, 7, 24
4, 310744, Control_c, 2, 7, 24
4, 310752, Control_c, 2, 7, 24
4, 310760, Control_c, 2, 7, 24
4, 310768, Control_c, 2, 7, 25
4, 310776, Control_c, 2, 7, 25
4, 310784, Control_c, 2, 7, 25
4, 310792, Control_c, 2, 7, 25
4, 310800, Control_c, 2, 7, 25
4, 310808, Control_c, 2, 7, 25
4, 310816, Control_c, 2, 7, 25
4, 310824, Control_c, 2, 7, 25
4, 310832, Control_c, 2, 7, 25
4, 310840, Control_c, 2, 7, 26
4, 310848, Control_c, 2, 7, 26
4, 310856, Control_c, 2, 7, 26
4, 310864, Control_c, 2, 7, 26
4, 310872, Control_c, 2, 7, 26
4, 310880, Control_c, 2, 7, 26
4, 310888, Control_c, 2, 7, 24
4, 310896, Control_c, 2, 7, 24
4, 310904, Control_c, 2, 7, 24
4, 310912, Control_c, 2, 7, 24
4, 310916, Note_on_c, 2, 67, 0
4, 310916, Note_on_c, 2, 79, 0
4, 310920, Control_c, 2, 7, 24
4, 310928, Control_c, 2, 7, 24
4, 310936, Control_c, 2, 7, 24
4, 310944, Control_c, 2, 7, 25
4, 310952, Control_c, 2, 7, 24
4, 310960, Control_c, 2, 7, 23
4, 310968, Control_c, 2, 7, 40
4, 310976, Control_c, 2, 7, 41
4, 310984, Control_c, 2, 7, 42
4, 310992, Control_c, 2, 7, 69
4, 311000, Control_c, 2, 7, 69
4, 311008, Control_c, 2, 7, 78
4, 311016, Control_c, 2, 7, 99
4, 311024, Control_c, 2, 7, 100
4, 311040, Note_on_c, 2, 75, 46
4, 311836, Note_on_c, 2, 75, 0
4, 312000, Note_on_c, 2, 70, 39
4, 312840, Note_on_c, 2, 70, 0
4, 312960, Note_on_c, 2, 72, 42
4, 313728, Note_on_c, 2, 72, 0
4, 313920, Note_on_c, 2, 67, 42
4, 314688, Note_on_c, 2, 67, 0
4, 314880, Note_on_c, 2, 68, 39
4, 315360, Note_on_c, 2, 68, 0
4, 315360, Note_on_c, 2, 67, 39
4, 315840, Note_on_c, 2, 67, 0
4, 315840, Note_on_c, 2, 65, 36
4, 316320, Note_on_c, 2, 65, 0
4, 316320, Note_on_c, 2, 63, 30
4, 316800, Note_on_c, 2, 63, 0
4, 316800, Note_on_c, 2, 62, 45
4, 317170, Note_on_c, 2, 62, 0
4, 317280, Note_on_c, 2, 63, 50
4, 317562, Note_on_c, 2, 63, 0
4, 317760, Note_on_c, 2, 70, 41
4, 318040, Note_on_c, 2, 70, 0
4, 318720, Note_on_c, 2, 67, 46
4, 318720, Note_on_c, 2, 63, 33
4, 318954, Note_on_c, 2, 63, 0
4, 318960, Note_on_c, 2, 68, 33
4, 318960, Note_on_c, 2, 65, 35
4, 318990, Note_on_c, 2, 67, 0
4, 319056, Note_on_c, 2, 65, 0
4, 319086, Note_on_c, 2, 68, 0
4, 319200, Note_on_c, 2, 70, 42
4, 319200, Note_on_c, 2, 67, 45
4, 319266, Note_on_c, 2, 70, 0
4, 319272, Note_on_c, 2, 67, 0
4, 319440, Note_on_c, 2, 70, 42
4, 319440, Note_on_c, 2, 67, 46
4, 319504, Note_on_c, 2, 70, 0
4, 319510, Note_on_c, 2, 67, 0
4, 319680, Note_on_c, 2, 70, 49
4, 319680, Note_on_c, 2, 67, 48
4, 319920, Note_on_c, 2, 67, 0
4, 319920, Note_on_c, 2, 70, 0
4, 319920, Note_on_c, 2, 68, 45
4, 319920, Note_on_c, 2, 65, 34
4, 320160, Note_on_c, 2, 65, 0
4, 320160, Note_on_c, 2, 68, 0
4, 320160, Note_on_c, 2, 67, 43
4, 320160, Note_on_c, 2, 63, 35
4, 320400, Note_on_c, 2, 63, 0
4, 320400, Note_on_c, 2, 67, 0
4, 320400, Note_on_c, 2, 65, 41
4, 320400, Note_on_c, 2, 62, 32
4, 320640, Note_on_c, 2, 62, 0
4, 320640, Note_on_c, 2, 65, 0
4, 320640, Note_on_c, 2, 63, 39
4, 320640, Note_on_c, 2, 60, 40
4, 320880, Note_on_c, 2, 60, 0
4, 320880, Note_on_c, 2, 63, 0
4, 320880, Note_on_c, 2, 65, 42
4, 320880, Note_on_c, 2, 62, 38
4, 321120, Note_on_c, 2, 62, 0
4, 321120, Note_on_c, 2, 65, 0
4, 321120, Note_on_c, 2, 67, 47
4, 321120, Note_on_c, 2, 63, 40
4, 321180, Note_on_c, 2, 63, 0
4, 321192, Note_on_c, 2, 67, 0
4, 321360, Note_on_c, 2, 67, 42
4, 321360, Note_on_c, 2, 63, 38
4, 321412, Note_on_c, 2, 67, 0
4, 321432, Note_on_c, 2, 63, 0
4, 321600, Note_on_c, 2, 67, 57
4, 321600, Note_on_c, 2, 63, 54
4, 321840, Note_on_c, 2, 65, 39
4, 321840, Note_on_c, 2, 62, 34
4, 321850, Note_on_c, 2, 67, 0
4, 321852, Note_on_c, 2, 63, 0
4, 322080, Note_on_c, 2, 65, 0
4, 322080, Note_on_c, 2, 62, 0
4, 322080, Note_on_c, 2, 63, 40
4, 322080, Note_on_c, 2, 60, 38
4, 322320, Note_on_c, 2, 60, 0
4, 322320, Note_on_c, 2, 63, 0
4, 322320, Note_on_c, 2, 62, 36
4, 322320, Note_on_c, 2, 58, 37
4, 322560, Note_on_c, 2, 58, 0
4, 322560, Note_on_c, 2, 62, 0
4, 322560, Note_on_c, 2, 60, 39
4, 322560, Note_on_c, 2, 56, 39
4, 322800, Note_on_c, 2, 56, 0
4, 322800, Note_on_c, 2, 60, 0
4, 322800, Note_on_c, 2, 62, 44
4, 322800, Note_on_c, 2, 58, 44
4, 323040, Note_on_c, 2, 58, 0
4, 323040, Note_on_c, 2, 62, 0
4, 323040, Note_on_c, 2, 63, 50
4, 323040, Note_on_c, 2, 60, 50
4, 323280, Note_on_c, 2, 60, 0
4, 323280, Note_on_c, 2, 63, 0
4, 323280, Note_on_c, 2, 65, 55
4, 323280, Note_on_c, 2, 62, 55
4, 323520, Note_on_c, 2, 62, 0
4, 323520, Note_on_c, 2, 65, 0
4, 323520, Note_on_c, 2, 67, 60
4, 323520, Note_on_c, 2, 63, 60
4, 323760, Note_on_c, 2, 63, 0
4, 323760, Note_on_c, 2, 67, 0
4, 323760, Note_on_c, 2, 68, 65
4, 323760, Note_on_c, 2, 65, 65
4, 324000, Note_on_c, 2, 65, 0
4, 324000, Note_on_c, 2, 68, 0
4, 324000, Note_on_c, 2, 70, 70
4, 324000, Note_on_c, 2, 67, 70
4, 324240, Note_on_c, 2, 67, 0
4, 324240, Note_on_c, 2, 70, 0
4, 324240, Note_on_c, 2, 72, 76
4, 324240, Note_on_c, 2, 68, 76
4, 324382, Note_on_c, 2, 68, 0
4, 324390, Note_on_c, 2, 72, 0
4, 324480, Note_on_c, 2, 72, 48
4, 324480, Note_on_c, 2, 68, 50
4, 324696, Note_on_c, 2, 72, 0
4, 324720, Note_on_c, 2, 70, 36
4, 324720, Note_on_c, 2, 67, 41
4, 324750, Note_on_c, 2, 68, 0
4, 324810, Note_on_c, 2, 70, 0
4, 324820, Note_on_c, 2, 67, 0
4, 324960, Note_on_c, 2, 68, 44
4, 324960, Note_on_c, 2, 65, 41
4, 325042, Note_on_c, 2, 68, 0
4, 325056, Note_on_c, 2, 65, 0
4, 325200, Note_on_c, 2, 67, 39
4, 325200, Note_on_c, 2, 63, 30
4, 325282, Note_on_c, 2, 63, 0
4, 325292, Note_on_c, 2, 67, 0
4, 325440, Note_on_c, 2, 65, 35
4, 325440, Note_on_c, 2, 62, 30
4, 325642, Note_on_c, 2, 62, 0
4, 325660, Note_on_c, 2, 65, 0
4, 334080, Note_on_c, 2, 75, 84
4, 334866, Note_on_c, 2, 75, 0
4, 335040, Note_on_c, 2, 82, 60
4, 335040, Note_on_c, 2, 70, 60
4, 335832, Note_on_c, 2, 70, 0
4, 335832, Note_on_c, 2, 82, 0
4, 336000, Note_on_c, 2, 84, 69
4, 336000, Note_on_c, 2, 72, 69
4, 336822, Note_on_c, 2, 72, 0
4, 336822, Note_on_c, 2, 84, 0
4, 336960, Note_on_c, 2, 79, 59
4, 336960, Note_on_c, 2, 67, 59
4, 337726, Note_on_c, 2, 67, 0
4, 337726, Note_on_c, 2, 79, 0
4, 346080, Note_on_c, 2, 67, 56
4, 347040, Note_on_c, 2, 67, 0
4, 347040, Note_on_c, 2, 69, 56
4, 347520, Note_on_c, 2, 69, 0
4, 347520, Note_on_c, 2, 70, 71
4, 347520, Note_on_c, 2, 58, 66
4, 347802, Note_on_c, 2, 70, 0
4, 347804, Note_on_c, 2, 58, 0
4, 348000, Note_on_c, 2, 70, 63
4, 348000, Note_on_c, 2, 58, 74
4, 349730, Note_on_c, 2, 58, 0
4, 349730, Note_on_c, 2, 70, 0
4, 349920, Note_on_c, 2, 70, 95
4, 349920, Note_on_c, 2, 58, 87
4, 351840, Note_on_c, 2, 58, 0
4, 351840, Note_on_c, 2, 70, 0
4, 351840, Note_on_c, 2, 70, 95
4, 351840, Note_on_c, 2, 58, 87
4, 353590, Note_on_c, 2, 58, 0
4, 353602, Note_on_c, 2, 70, 0
4, 353760, Note_on_c, 2, 70, 83
4, 354240, Note_on_c, 2, 70, 0
4, 354240, Note_on_c, 2, 68, 70
4, 354720, Note_on_c, 2, 68, 0
4, 354720, Note_on_c, 2, 67, 65
4, 355200, Note_on_c, 2, 67, 0
4, 355200, Note_on_c, 2, 65, 58
4, 355680, Note_on_c, 2, 65, 0
4, 355680, Note_on_c, 2, 63, 58
4, 356160, Note_on_c, 2, 63, 0
4, 356160, Note_on_c, 2, 62, 61
4, 356640, Note_on_c, 2, 62, 0
4, 356640, Note_on_c, 2, 63, 54
4, 356974, Note_on_c, 2, 63, 0
4, 357120, Note_on_c, 2, 65, 76
4, 357600, Note_on_c, 2, 65, 0
4, 357600, Note_on_c, 2, 63, 76
4, 358080, Note_on_c, 2, 63, 0
4, 358080, Note_on_c, 2, 62, 67
4, 358560, Note_on_c, 2, 62, 0
4, 358560, Note_on_c, 2, 60, 62
4, 359040, Note_on_c, 2, 60, 0
4, 359040, Note_on_c, 2, 58, 65
4, 359520, Note_on_c, 2, 58, 0
4, 359520, Note_on_c, 2, 56, 61
4, 360000, Note_on_c, 2, 56, 0
4, 360000, Note_on_c, 2, 55, 62
4, 360480, Note_on_c, 2, 55, 0
4, 360480, Note_on_c, 2, 53, 69
4, 360960, Note_on_c, 2, 51, 66
4, 360972, Note_on_c, 2, 53, 0
4, 361440, Note_on_c, 2, 51, 0
4, 361440, Note_on_c, 2, 55, 70
4, 361920, Note_on_c, 2, 55, 0
4, 361920, Note_on_c, 2, 58, 50
4, 362400, Note_on_c, 2, 58, 0
4, 362400, Note_on_c, 2, 63, 62
4, 362880, Note_on_c, 2, 63, 0
4, 362880, Note_on_c, 2, 67, 62
4, 363360, Note_on_c, 2, 67, 0
4, 363360, Note_on_c, 2, 70, 73
4, 363794, Note_on_c, 2, 70, 0
4, 363840, Note_on_c, 2, 70, 81
4, 364156, Note_on_c, 2, 70, 0
4, 364320, Note_on_c, 2, 70, 70
4, 364722, Note_on_c, 2, 70, 0
4, 364800, Note_on_c, 2, 70, 70
4, 365062, Note_on_c, 2, 70, 0
4, 365280, Note_on_c, 2, 70, 66
4, 365760, Note_on_c, 2, 70, 0
4, 365760, Note_on_c, 2, 68, 68
4, 366240, Note_on_c, 2, 68, 0
4, 366240, Note_on_c, 2, 67, 68
4, 366720, Note_on_c, 2, 67, 0
4, 366720, Note_on_c, 2, 65, 68
4, 367200, Note_on_c, 2, 63, 57
4, 367234, Note_on_c, 2, 65, 0
4, 367680, Note_on_c, 2, 63, 0
4, 367680, Note_on_c, 2, 62, 64
4, 368160, Note_on_c, 2, 62, 0
4, 368160, Note_on_c, 2, 63, 64
4, 368550, Note_on_c, 2, 63, 0
4, 368640, Note_on_c, 2, 65, 70
4, 369120, Note_on_c, 2, 65, 0
4, 369120, Note_on_c, 2, 63, 66
4, 369600, Note_on_c, 2, 62, 68
4, 369640, Note_on_c, 2, 63, 0
4, 370080, Note_on_c, 2, 60, 64
4, 370136, Note_on_c, 2, 62, 0
4, 370560, Note_on_c, 2, 60, 0
4, 370560, Note_on_c, 2, 70, 62
4, 371040, Note_on_c, 2, 68, 64
4, 371090, Note_on_c, 2, 70, 0
4, 371520, Note_on_c, 2, 68, 0
4, 371520, Note_on_c, 2, 67, 64
4, 372000, Note_on_c, 2, 65, 69
4, 372040, Note_on_c, 2, 67, 0
4, 372470, Note_on_c, 2, 65, 0
4, 372480, Note_on_c, 2, 77, 76
4, 372480, Note_on_c, 2, 65, 76
4, 372960, Note_on_c, 2, 65, 0
4, 372960, Note_on_c, 2, 77, 0
4, 372960, Note_on_c, 2, 63, 76
4, 372960, Note_on_c, 2, 75, 76
4, 373440, Note_on_c, 2, 75, 0
4, 373440, Note_on_c, 2, 63, 0
4, 373440, Note_on_c, 2, 73, 67
4, 373440, Note_on_c, 2, 61, 67
4, 373920, Note_on_c, 2, 61, 0
4, 373920, Note_on_c, 2, 73, 0
4, 373920, Note_on_c, 2, 72, 62
4, 373920, Note_on_c, 2, 60, 62
4, 374400, Note_on_c, 2, 60, 0
4, 374400, Note_on_c, 2, 72, 0
4, 374400, Note_on_c, 2, 58, 65
4, 374400, Note_on_c, 2, 70, 65
4, 374880, Note_on_c, 2, 70, 0
4, 374880, Note_on_c, 2, 58, 0
4, 374880, Note_on_c, 2, 68, 61
4, 374880, Note_on_c, 2, 56, 61
4, 375360, Note_on_c, 2, 56, 0
4, 375360, Note_on_c, 2, 68, 0
4, 375360, Note_on_c, 2, 55, 62
4, 375360, Note_on_c, 2, 67, 62
4, 375792, Note_on_c, 2, 67, 0
4, 375792, Note_on_c, 2, 55, 0
4, 375840, Note_on_c, 2, 63, 69
4, 375840, Note_on_c, 2, 75, 69
4, 376320, Note_on_c, 2, 77, 116
4, 376320, Note_on_c, 2, 65, 76
4, 376332, Note_on_c, 2, 75, 0
4, 376332, Note_on_c, 2, 63, 0
4, 376800, Note_on_c, 2, 77, 0
4, 376800, Note_on_c, 2, 65, 0
4, 376800, Note_on_c, 2, 75, 76
4, 376800, Note_on_c, 2, 63, 76
4, 377280, Note_on_c, 2, 63, 0
4, 377280, Note_on_c, 2, 75, 0
4, 377280, Note_on_c, 2, 73, 67
4, 377280, Note_on_c, 2, 61, 67
4, 377760, Note_on_c, 2, 61, 0
4, 377760, Note_on_c, 2, 73, 0
4, 377760, Note_on_c, 2, 60, 62
4, 377760, Note_on_c, 2, 72, 62
4, 378240, Note_on_c, 2, 72, 0
4, 378240, Note_on_c, 2, 60, 0
4, 378240, Note_on_c, 2, 58, 65
4, 378240, Note_on_c, 2, 70, 65
4, 378720, Note_on_c, 2, 70, 0
4, 378720, Note_on_c, 2, 58, 0
4, 378720, Note_on_c, 2, 69, 61
4, 378720, Note_on_c, 2, 57, 61
4, 379200, Note_on_c, 2, 57, 0
4, 379200, Note_on_c, 2, 69, 0
4, 379200, Note_on_c, 2, 64, 62
4, 379200, Note_on_c, 2, 76, 62
4, 379632, Note_on_c, 2, 76, 0
4, 379632, Note_on_c, 2, 64, 0
4, 379680, Note_on_c, 2, 65, 69
4, 379680, Note_on_c, 2, 77, 69
4, 380160, Note_on_c, 2, 79, 116
4, 380160, Note_on_c, 2, 67, 76
4, 380172, Note_on_c, 2, 77, 0
4, 380172, Note_on_c, 2, 65, 0
4, 380640, Note_on_c, 2, 79, 0
4, 380640, Note_on_c, 2, 67, 0
4, 380640, Note_on_c, 2, 77, 76
4, 380640, Note_on_c, 2, 65, 76
4, 381120, Note_on_c, 2, 65, 0
4, 381120, Note_on_c, 2, 77, 0
4, 381120, Note_on_c, 2, 63, 67
4, 381120, Note_on_c, 2, 75, 67
4, 381600, Note_on_c, 2, 75, 0
4, 381600, Note_on_c, 2, 63, 0
4, 381600, Note_on_c, 2, 62, 62
4, 381600, Note_on_c, 2, 74, 62
4, 382080, Note_on_c, 2, 74, 0
4, 382080, Note_on_c, 2, 62, 0
4, 382080, Note_on_c, 2, 72, 65
4, 382080, Note_on_c, 2, 60, 65
4, 382560, Note_on_c, 2, 60, 0
4, 382560, Note_on_c, 2, 72, 0
4, 382560, Note_on_c, 2, 70, 61
4, 382560, Note_on_c, 2, 58, 61
4, 383040, Note_on_c, 2, 58, 0
4, 383040, Note_on_c, 2, 70, 0
4, 383040, Note_on_c, 2, 74, 62
4, 383040, Note_on_c, 2, 62, 62
4, 383472, Note_on_c, 2, 62, 0
4, 383472, Note_on_c, 2, 74, 0
4, 383520, Note_on_c, 2, 62, 69
4, 383520, Note_on_c, 2, 74, 69
4, 383520, Note_on_c, 2, 65, 69
4, 383520, Note_on_c, 2, 77, 69
4, 384000, Note_on_c, 2, 65, 80
4, 384000, Note_on_c, 2, 68, 80
4, 384012, Note_on_c, 2, 77, 0
4, 384012, Note_on_c, 2, 65, 0
4, 384012, Note_on_c, 2, 62, 0
4, 384012, Note_on_c, 2, 74, 0
4, 384384, Note_on_c, 2, 68, 0
4, 384384, Note_on_c, 2, 65, 0
4, 384480, Note_on_c, 2, 65, 80
4, 384480, Note_on_c, 2, 70, 80
4, 384864, Note_on_c, 2, 70, 0
4, 384864, Note_on_c, 2, 65, 0
4, 384960, Note_on_c, 2, 70, 80
4, 384960, Note_on_c, 2, 74, 80
4, 385200, Note_on_c, 2, 74, 0
4, 385200, Note_on_c, 2, 70, 0
4, 385440, Note_on_c, 2, 77, 80
4, 385440, Note_on_c, 2, 74, 80
4, 385680, Note_on_c, 2, 74, 0
4, 385680, Note_on_c, 2, 77, 0
4, 385920, Note_on_c, 2, 74, 80
4, 385920, Note_on_c, 2, 77, 80
4, 386160, Note_on_c, 2, 77, 0
4, 386160, Note_on_c, 2, 74, 0
4, 386400, Note_on_c, 2, 74, 80
4, 386400, Note_on_c, 2, 77, 80
4, 386640, Note_on_c, 2, 77, 0
4, 386640, Note_on_c, 2, 74, 0
4, 386880, Note_on_c, 2, 74, 80
4, 386880, Note_on_c, 2, 77, 80
4, 387120, Note_on_c, 2, 77, 0
4, 387120, Note_on_c, 2, 74, 0
4, 387360, Note_on_c, 2, 77, 80
4, 387360, Note_on_c, 2, 74, 80
4, 387600, Note_on_c, 2, 74, 0
4, 387600, Note_on_c, 2, 77, 0
4, 387840, Note_on_c, 2, 77, 80
4, 387840, Note_on_c, 2, 74, 80
4, 389760, Note_on_c, 2, 74, 0
4, 389760, Note_on_c, 2, 77, 0
4, 391680, Note_on_c, 2, 80, 54
4, 391800, Note_on_c, 2, 79, 42
4, 391804, Note_on_c, 2, 80, 0
4, 391920, Note_on_c, 2, 79, 0
4, 391920, Note_on_c, 2, 77, 54
4, 392100, Note_on_c, 2, 77, 0
4, 392130, Note_on_c, 2, 79, 45
4, 392160, Note_on_c, 2, 79, 0
4, 392160, Note_on_c, 2, 77, 51
4, 392280, Note_on_c, 2, 75, 46
4, 392304, Note_on_c, 2, 77, 0
4, 392400, Note_on_c, 2, 77, 42
4, 392402, Note_on_c, 2, 75, 0
4, 392602, Note_on_c, 2, 77, 0
4, 392640, Note_on_c, 2, 79, 46
4, 392756, Note_on_c, 2, 79, 0
4, 392760, Note_on_c, 2, 77, 38
4, 392880, Note_on_c, 2, 77, 0
4, 392880, Note_on_c, 2, 75, 34
4, 393096, Note_on_c, 2, 75, 0
4, 393120, Note_on_c, 2, 75, 27
4, 393300, Note_on_c, 2, 75, 0
4, 404160, Note_on_c, 2, 70, 60
4, 404928, Note_on_c, 2, 70, 0
4, 405120, Note_on_c, 2, 68, 60
4, 405888, Note_on_c, 2, 68, 0
4, 408960, Note_on_c, 2, 79, 80
4, 410304, Note_on_c, 2, 79, 0
4, 417120, Note_on_c, 2, 67, 100
4, 418080, Note_on_c, 2, 67, 0
4, 418080, Note_on_c, 2, 69, 100
4, 418560, Note_on_c, 2, 69, 0
4, 418560, Note_on_c, 2, 70, 80
4, 419970, Note_on_c, 2, 70, 0
4, 420000, Note_on_c, 2, 77, 84
4, 420000, Note_on_c, 2, 74, 84
4, 420096, Note_on_c, 2, 74, 0
4, 420096, Note_on_c, 2, 77, 0
4, 420240, Note_on_c, 2, 77, 84
4, 420240, Note_on_c, 2, 74, 84
4, 420336, Note_on_c, 2, 74, 0
4, 420336, Note_on_c, 2, 77, 0
4, 420480, Note_on_c, 2, 75, 84
4, 420480, Note_on_c, 2, 79, 84
4, 420720, Note_on_c, 2, 79, 0
4, 420720, Note_on_c, 2, 75, 0
4, 420720, Note_on_c, 2, 77, 84
4, 420720, Note_on_c, 2, 80, 84
4, 420816, Note_on_c, 2, 80, 0
4, 420816, Note_on_c, 2, 77, 0
4, 420960, Note_on_c, 2, 82, 84
4, 420960, Note_on_c, 2, 79, 84
4, 421056, Note_on_c, 2, 79, 0
4, 421056, Note_on_c, 2, 82, 0
4, 421200, Note_on_c, 2, 79, 84
4, 421200, Note_on_c, 2, 82, 84
4, 421296, Note_on_c, 2, 82, 0
4, 421296, Note_on_c, 2, 79, 0
4, 421440, Note_on_c, 2, 79, 84
4, 421440, Note_on_c, 2, 82, 84
4, 421680, Note_on_c, 2, 82, 0
4, 421680, Note_on_c, 2, 79, 0
4, 421680, Note_on_c, 2, 80, 84
4, 421680, Note_on_c, 2, 77, 84
4, 421920, Note_on_c, 2, 77, 0
4, 421920, Note_on_c, 2, 80, 0
4, 421920, Note_on_c, 2, 75, 84
4, 421920, Note_on_c, 2, 79, 84
4, 422160, Note_on_c, 2, 79, 0
4, 422160, Note_on_c, 2, 75, 0
4, 422160, Note_on_c, 2, 77, 84
4, 422160, Note_on_c, 2, 74, 84
4, 422256, Note_on_c, 2, 74, 0
4, 422256, Note_on_c, 2, 77, 0
4, 422400, Note_on_c, 2, 79, 84
4, 422400, Note_on_c, 2, 75, 84
4, 422640, Note_on_c, 2, 75, 0
4, 422640, Note_on_c, 2, 79, 0
4, 422640, Note_on_c, 2, 77, 84
4, 422640, Note_on_c, 2, 80, 84
4, 422736, Note_on_c, 2, 80, 0
4, 422736, Note_on_c, 2, 77, 0
4, 422880, Note_on_c, 2, 79, 84
4, 422880, Note_on_c, 2, 82, 84
4, 422976, Note_on_c, 2, 82, 0
4, 422976, Note_on_c, 2, 79, 0
4, 423120, Note_on_c, 2, 79, 84
4, 423120, Note_on_c, 2, 82, 84
4, 423216, Note_on_c, 2, 82, 0
4, 423216, Note_on_c, 2, 79, 0
4, 423360, Note_on_c, 2, 82, 84
4, 423360, Note_on_c, 2, 79, 84
4, 423600, Note_on_c, 2, 79, 0
4, 423600, Note_on_c, 2, 82, 0
4, 423600, Note_on_c, 2, 77, 84
4, 423600, Note_on_c, 2, 80, 84
4, 423840, Note_on_c, 2, 80, 0
4, 423840, Note_on_c, 2, 77, 0
4, 423840, Note_on_c, 2, 75, 84
4, 423840, Note_on_c, 2, 79, 84
4, 424080, Note_on_c, 2, 79, 0
4, 424080, Note_on_c, 2, 75, 0
4, 424080, Note_on_c, 2, 74, 84
4, 424080, Note_on_c, 2, 77, 84
4, 424176, Note_on_c, 2, 77, 0
4, 424176, Note_on_c, 2, 74, 0
4, 424320, Note_on_c, 2, 79, 84
4, 424320, Note_on_c, 2, 75, 84
4, 424560, Note_on_c, 2, 75, 0
4, 424560, Note_on_c, 2, 79, 0
4, 424560, Note_on_c, 2, 77, 84
4, 424560, Note_on_c, 2, 80, 84
4, 424656, Note_on_c, 2, 80, 0
4, 424656, Note_on_c, 2, 77, 0
4, 424800, Note_on_c, 2, 79, 84
4, 424800, Note_on_c, 2, 82, 84
4, 424896, Note_on_c, 2, 82, 0
4, 424896, Note_on_c, 2, 79, 0
4, 425040, Note_on_c, 2, 79, 84
4, 425040, Note_on_c, 2, 82, 84
4, 425136, Note_on_c, 2, 82, 0
4, 425136, Note_on_c, 2, 79, 0
4, 425280, Note_on_c, 2, 82, 84
4, 425280, Note_on_c, 2, 79, 84
4, 425520, Note_on_c, 2, 79, 0
4, 425520, Note_on_c, 2, 82, 0
4, 425520, Note_on_c, 2, 77, 84
4, 425520, Note_on_c, 2, 80, 84
4, 425760, Note_on_c, 2, 80, 0
4, 425760, Note_on_c, 2, 77, 0
4, 425760, Note_on_c, 2, 75, 84
4, 425760, Note_on_c, 2, 79, 84
4, 426000, Note_on_c, 2, 79, 0
4, 426000, Note_on_c, 2, 75, 0
4, 426000, Note_on_c, 2, 74, 84
4, 426000, Note_on_c, 2, 77, 84
4, 426096, Note_on_c, 2, 77, 0
4, 426096, Note_on_c, 2, 74, 0
4, 426240, Note_on_c, 2, 79, 84
4, 426240, Note_on_c, 2, 75, 84
4, 426480, Note_on_c, 2, 75, 0
4, 426480, Note_on_c, 2, 79, 0
4, 426480, Note_on_c, 2, 77, 84
4, 426480, Note_on_c, 2, 80, 84
4, 426576, Note_on_c, 2, 80, 0
4, 426576, Note_on_c, 2, 77, 0
4, 426720, Note_on_c, 2, 79, 84
4, 426720, Note_on_c, 2, 82, 84
4, 426816, Note_on_c, 2, 82, 0
4, 426816, Note_on_c, 2, 79, 0
4, 426960, Note_on_c, 2, 79, 84
4, 426960, Note_on_c, 2, 82, 84
4, 427056, Note_on_c, 2, 82, 0
4, 427056, Note_on_c, 2, 79, 0
4, 427200, Note_on_c, 2, 82, 84
4, 427200, Note_on_c, 2, 79, 84
4, 427440, Note_on_c, 2, 79, 0
4, 427440, Note_on_c, 2, 82, 0
4, 427440, Note_on_c, 2, 77, 84
4, 427440, Note_on_c, 2, 80, 84
4, 427680, Note_on_c, 2, 80, 0
4, 427680, Note_on_c, 2, 77, 0
4, 427680, Note_on_c, 2, 75, 84
4, 427680, Note_on_c, 2, 79, 84
4, 427920, Note_on_c, 2, 79, 0
4, 427920, Note_on_c, 2, 75, 0
4, 427920, Note_on_c, 2, 74, 84
4, 427920, Note_on_c, 2, 77, 84
4, 428016, Note_on_c, 2, 77, 0
4, 428016, Note_on_c, 2, 74, 0
4, 428160, Note_on_c, 2, 75, 56
4, 428160, Note_on_c, 2, 79, 56
4, 428386, Note_on_c, 2, 79, 0
4, 428386, Note_on_c, 2, 75, 0
4, 429120, Note_on_c, 2, 67, 52
4, 429120, Note_on_c, 2, 70, 52
4, 429240, Note_on_c, 2, 70, 0
4, 429240, Note_on_c, 2, 67, 0
4, 429360, Note_on_c, 2, 67, 52
4, 429360, Note_on_c, 2, 70, 52
4, 429720, Note_on_c, 2, 70, 0
4, 429720, Note_on_c, 2, 67, 0
4, 429840, Note_on_c, 2, 70, 52
4, 429840, Note_on_c, 2, 67, 52
4, 429960, Note_on_c, 2, 67, 0
4, 429960, Note_on_c, 2, 70, 0
4, 430080, Note_on_c, 2, 75, 56
4, 430080, Note_on_c, 2, 72, 56
4, 430306, Note_on_c, 2, 72, 0
4, 430306, Note_on_c, 2, 75, 0
4, 431040, Note_on_c, 2, 72, 56
4, 431040, Note_on_c, 2, 68, 56
4, 431266, Note_on_c, 2, 68, 0
4, 431266, Note_on_c, 2, 72, 0
4, 431280, Note_on_c, 2, 72, 56
4, 431280, Note_on_c, 2, 68, 56
4, 431746, Note_on_c, 2, 68, 0
4, 431746, Note_on_c, 2, 72, 0
4, 431760, Note_on_c, 2, 68, 56
4, 431760, Note_on_c, 2, 72, 56
4, 431986, Note_on_c, 2, 72, 0
4, 431986, Note_on_c, 2, 68, 0
4, 432000, Note_on_c, 2, 72, 56
4, 432000, Note_on_c, 2, 69, 56
4, 432226, Note_on_c, 2, 69, 0
4, 432226, Note_on_c, 2, 72, 0
4, 432240, Note_on_c, 2, 69, 56
4, 432240, Note_on_c, 2, 72, 56
4, 432466, Note_on_c, 2, 72, 0
4, 432466, Note_on_c, 2, 69, 0
4, 432480, Note_on_c, 2, 69, 56
4, 432480, Note_on_c, 2, 72, 56
4, 432706, Note_on_c, 2, 72, 0
4, 432706, Note_on_c, 2, 69, 0
4, 432960, Note_on_c, 2, 72, 56
4, 432960, Note_on_c, 2, 69, 56
4, 433186, Note_on_c, 2, 69, 0
4, 433186, Note_on_c, 2, 72, 0
4, 433200, Note_on_c, 2, 69, 56
4, 433200, Note_on_c, 2, 72, 56
4, 433426, Note_on_c, 2, 72, 0
4, 433426, Note_on_c, 2, 69, 0
4, 433440, Note_on_c, 2, 69, 56
4, 433440, Note_on_c, 2, 72, 56
4, 433666, Note_on_c, 2, 72, 0
4, 433666, Note_on_c, 2, 69, 0
4, 433920, Note_on_c, 2, 75, 56
4, 433920, Note_on_c, 2, 67, 56
4, 434146, Note_on_c, 2, 67, 0
4, 434146, Note_on_c, 2, 75, 0
4, 434160, Note_on_c, 2, 75, 56
4, 434160, Note_on_c, 2, 67, 56
4, 434386, Note_on_c, 2, 67, 0
4, 434386, Note_on_c, 2, 75, 0
4, 434400, Note_on_c, 2, 75, 56
4, 434400, Note_on_c, 2, 67, 56
4, 434626, Note_on_c, 2, 67, 0
4, 434626, Note_on_c, 2, 75, 0
4, 434880, Note_on_c, 2, 74, 56
4, 434880, Note_on_c, 2, 65, 56
4, 435106, Note_on_c, 2, 65, 0
4, 435106, Note_on_c, 2, 74, 0
4, 435120, Note_on_c, 2, 74, 56
4, 435120, Note_on_c, 2, 65, 56
4, 435346, Note_on_c, 2, 65, 0
4, 435346, Note_on_c, 2, 74, 0
4, 435360, Note_on_c, 2, 65, 56
4, 435360, Note_on_c, 2, 74, 56
4, 435586, Note_on_c, 2, 74, 0
4, 435586, Note_on_c, 2, 65, 0
4, 435840, Note_on_c, 2, 79, 56
4, 435840, Note_on_c, 2, 75, 56
4, 436066, Note_on_c, 2, 75, 0
4, 436066, Note_on_c, 2, 79, 0
4, 436800, Note_on_c, 2, 67, 52
4, 436800, Note_on_c, 2, 70, 52
4, 436920, Note_on_c, 2, 70, 0
4, 436920, Note_on_c, 2, 67, 0
4, 437040, Note_on_c, 2, 67, 52
4, 437040, Note_on_c, 2, 70, 52
4, 437400, Note_on_c, 2, 70, 0
4, 437400, Note_on_c, 2, 67, 0
4, 437520, Note_on_c, 2, 70, 52
4, 437520, Note_on_c, 2, 67, 52
4, 437640, Note_on_c, 2, 67, 0
4, 437640, Note_on_c, 2, 70, 0
4, 437760, Note_on_c, 2, 75, 56
4, 437760, Note_on_c, 2, 72, 56
4, 437986, Note_on_c, 2, 72, 0
4, 437986, Note_on_c, 2, 75, 0
4, 438720, Note_on_c, 2, 72, 56
4, 438720, Note_on_c, 2, 68, 56
4, 438946, Note_on_c, 2, 68, 0
4, 438946, Note_on_c, 2, 72, 0
4, 438960, Note_on_c, 2, 72, 56
4, 438960, Note_on_c, 2, 68, 56
4, 439426, Note_on_c, 2, 68, 0
4, 439426, Note_on_c, 2, 72, 0
4, 439440, Note_on_c, 2, 68, 56
4, 439440, Note_on_c, 2, 72, 56
4, 439666, Note_on_c, 2, 72, 0
4, 439666, Note_on_c, 2, 68, 0
4, 439680, Note_on_c, 2, 72, 56
4, 439680, Note_on_c, 2, 69, 56
4, 439906, Note_on_c, 2, 69, 0
4, 439906, Note_on_c, 2, 72, 0
4, 439920, Note_on_c, 2, 69, 56
4, 439920, Note_on_c, 2, 72, 56
4, 440146, Note_on_c, 2, 72, 0
4, 440146, Note_on_c, 2, 69, 0
4, 440160, Note_on_c, 2, 69, 56
4, 440160, Note_on_c, 2, 72, 56
4, 440386, Note_on_c, 2, 72, 0
4, 440386, Note_on_c, 2, 69, 0
4, 440640, Note_on_c, 2, 72, 56
4, 440640, Note_on_c, 2, 69, 56
4, 440866, Note_on_c, 2, 69, 0
4, 440866, Note_on_c, 2, 72, 0
4, 440880, Note_on_c, 2, 69, 56
4, 440880, Note_on_c, 2, 72, 56
4, 441106, Note_on_c, 2, 72, 0
4, 441106, Note_on_c, 2, 69, 0
4, 441120, Note_on_c, 2, 69, 56
4, 441120, Note_on_c, 2, 72, 56
4, 441346, Note_on_c, 2, 72, 0
4, 441346, Note_on_c, 2, 69, 0
4, 441600, Note_on_c, 2, 75, 56
4, 441600, Note_on_c, 2, 67, 56
4, 441826, Note_on_c, 2, 67, 0
4, 441826, Note_on_c, 2, 75, 0
4, 441840, Note_on_c, 2, 75, 56
4, 441840, Note_on_c, 2, 67, 56
4, 442066, Note_on_c, 2, 67, 0
4, 442066, Note_on_c, 2, 75, 0
4, 442080, Note_on_c, 2, 75, 56
4, 442080, Note_on_c, 2, 67, 56
4, 442306, Note_on_c, 2, 67, 0
4, 442306, Note_on_c, 2, 75, 0
4, 442560, Note_on_c, 2, 74, 56
4, 442560, Note_on_c, 2, 65, 56
4, 442786, Note_on_c, 2, 65, 0
4, 442786, Note_on_c, 2, 74, 0
4, 442800, Note_on_c, 2, 74, 56
4, 442800, Note_on_c, 2, 65, 56
4, 443026, Note_on_c, 2, 65, 0
4, 443026, Note_on_c, 2, 74, 0
4, 443040, Note_on_c, 2, 65, 56
4, 443040, Note_on_c, 2, 74, 56
4, 443266, Note_on_c, 2, 74, 0
4, 443266, Note_on_c, 2, 65, 0
4, 443520, Note_on_c, 2, 63, 80
4, 443520, Note_on_c, 2, 67, 80
4, 446400, Note_on_c, 2, 67, 0
4, 446400, Note_on_c, 2, 63, 0
4, 446400, Note_on_c, 2, 68, 100
4, 446400, Note_on_c, 2, 65, 80
4, 446880, Note_on_c, 2, 65, 0
4, 446880, Note_on_c, 2, 68, 0
4, 446880, Note_on_c, 2, 62, 80
4, 446880, Note_on_c, 2, 65, 80
4, 447360, Note_on_c, 2, 65, 0
4, 447360, Note_on_c, 2, 62, 0
4, 447360, Note_on_c, 2, 63, 80
4, 447360, Note_on_c, 2, 67, 80
4, 450240, Note_on_c, 2, 67, 0
4, 450240, Note_on_c, 2, 63, 0
4, 450240, Note_on_c, 2, 65, 80
4, 450240, Note_on_c, 2, 68, 100
4, 450720, Note_on_c, 2, 68, 0
4, 450720, Note_on_c, 2, 65, 0
4, 450720, Note_on_c, 2, 65, 80
4, 450720, Note_on_c, 2, 62, 80
4, 451200, Note_on_c, 2, 62, 0
4, 451200, Note_on_c, 2, 65, 0
4, 451200, Note_on_c, 2, 63, 80
4, 451200, Note_on_c, 2, 67, 80
4, 454080, Note_on_c, 2, 67, 0
4, 454080, Note_on_c, 2, 63, 0
4, 454080, Note_on_c, 2, 65, 80
4, 454080, Note_on_c, 2, 68, 100
4, 454560, Note_on_c, 2, 68, 0
4, 454560, Note_on_c, 2, 65, 0
4, 454560, Note_on_c, 2, 65, 80
4, 454560, Note_on_c, 2, 62, 80
4, 455040, Note_on_c, 2, 62, 0
4, 455040, Note_on_c, 2, 65, 0
4, 455040, Note_on_c, 2, 63, 80
4, 455040, Note_on_c, 2, 67, 80
4, 457920, Note_on_c, 2, 67, 0
4, 457920, Note_on_c, 2, 63, 0
4, 457920, Note_on_c, 2, 65, 80
4, 457920, Note_on_c, 2, 68, 100
4, 458400, Note_on_c, 2, 68, 0
4, 458400, Note_on_c, 2, 65, 0
4, 458400, Note_on_c, 2, 65, 80
4, 458400, Note_on_c, 2, 62, 80
4, 458880, Note_on_c, 2, 62, 0
4, 458880, Note_on_c, 2, 65, 0
4, 458880, Note_on_c, 2, 75, 56
4, 458880, Note_on_c, 2, 67, 56
4, 459264, Note_on_c, 2, 67, 0
4, 459264, Note_on_c, 2, 75, 0
4, 460800, Note_on_c, 2, 63, 80
4, 460992, Note_on_c, 2, 63, 0
4, 461280, Note_on_c, 2, 67, 80
4, 461472, Note_on_c, 2, 67, 0
4, 461760, Note_on_c, 2, 70, 80
4, 461952, Note_on_c, 2, 70, 0
4, 462240, Note_on_c, 2, 75, 80
4, 462432, Note_on_c, 2, 75, 0
4, 462720, Note_on_c, 2, 79, 96
4, 462912, Note_on_c, 2, 79, 0
4, 463200, Note_on_c, 2, 75, 96
4, 463392, Note_on_c, 2, 75, 0
4, 463680, Note_on_c, 2, 70, 96
4, 463872, Note_on_c, 2, 70, 0
4, 464160, Note_on_c, 2, 67, 96
4, 464352, Note_on_c, 2, 67, 0
4, 464640, Note_on_c, 2, 63, 96
4, 464832, Note_on_c, 2, 63, 0
4, 465120, Note_on_c, 2, 67, 96
4, 465312, Note_on_c, 2, 67, 0
4, 465600, Note_on_c, 2, 70, 96
4, 465792, Note_on_c, 2, 70, 0
4, 466080, Note_on_c, 2, 75, 96
4, 466272, Note_on_c, 2, 75, 0
4, 466560, Note_on_c, 2, 79, 115
4, 466752, Note_on_c, 2, 79, 0
4, 467040, Note_on_c, 2, 75, 115
4, 467232, Note_on_c, 2, 75, 0
4, 467520, Note_on_c, 2, 70, 115
4, 467712, Note_on_c, 2, 70, 0
4, 468000, Note_on_c, 2, 67, 115
4, 468192, Note_on_c, 2, 67, 0
4, 468480, Note_on_c, 2, 63, 115
4, 468672, Note_on_c, 2, 63, 0
4, 468960, Note_on_c, 2, 67, 115
4, 469152, Note_on_c, 2, 67, 0
4, 469440, Note_on_c, 2, 70, 115
4, 469632, Note_on_c, 2, 70, 0
4, 469920, Note_on_c, 2, 75, 115
4, 470112, Note_on_c, 2, 75, 0
4, 470400, Note_on_c, 2, 67, 127
4, 470592, Note_on_c, 2, 67, 0
4, 470880, Note_on_c, 2, 70, 127
4, 471072, Note_on_c, 2, 70, 0
4, 471360, Note_on_c, 2, 75, 127
4, 471552, Note_on_c, 2, 75, 0
4, 471840, Note_on_c, 2, 79, 127
4, 472032, Note_on_c, 2, 79, 0
4, 472320, Note_on_c, 2, 70, 127
4, 472320, Note_on_c, 2, 67, 127
4, 472512, Note_on_c, 2, 67, 0
4, 472512, Note_on_c, 2, 70, 0
4, 472800, Note_on_c, 2, 75, 127
4, 472800, Note_on_c, 2, 70, 127
4, 472992, Note_on_c, 2, 70, 0
4, 472992, Note_on_c, 2, 75, 0
4, 473280, Note_on_c, 2, 79, 127
4, 473280, Note_on_c, 2, 75, 127
4, 473472, Note_on_c, 2, 75, 0
4, 473472, Note_on_c, 2, 79, 0
4, 473760, Note_on_c, 2, 79, 127
4, 473760, Note_on_c, 2, 75, 127
4, 473952, Note_on_c, 2, 75, 0
4, 473952, Note_on_c, 2, 79, 0
4, 474240, Note_on_c, 2, 77, 80
4, 474240, Note_on_c, 2, 80, 80
4, 474432, Note_on_c, 2, 80, 0
4, 474432, Note_on_c, 2, 77, 0
4, 474480, Note_on_c, 2, 77, 80
4, 474480, Note_on_c, 2, 80, 80
4, 474864, Note_on_c, 2, 80, 0
4, 474864, Note_on_c, 2, 77, 0
4, 474960, Note_on_c, 2, 77, 80
4, 474960, Note_on_c, 2, 80, 80
4, 475152, Note_on_c, 2, 80, 0
4, 475152, Note_on_c, 2, 77, 0
4, 475200, Note_on_c, 2, 77, 80
4, 475200, Note_on_c, 2, 80, 80
4, 475968, Note_on_c, 2, 80, 0
4, 475968, Note_on_c, 2, 77, 0
4, 476400, Note_on_c, 2, 70, 56
4, 476400, Note_on_c, 2, 79, 56
4, 476496, Note_on_c, 2, 79, 0
4, 476496, Note_on_c, 2, 70, 0
4, 476640, Note_on_c, 2, 79, 56
4, 476640, Note_on_c, 2, 70, 56
4, 477024, Note_on_c, 2, 70, 0
4, 477024, Note_on_c, 2, 79, 0
4, 477120, Note_on_c, 2, 75, 56
4, 477120, Note_on_c, 2, 67, 56
4, 477216, Note_on_c, 2, 67, 0
4, 477216, Note_on_c, 2, 75, 0
4, 477360, Note_on_c, 2, 67, 56
4, 477360, Note_on_c, 2, 70, 56
4, 478128, Note_on_c, 2, 70, 0
4, 478128, Note_on_c, 2, 67, 0
4, 478320, Note_on_c, 2, 77, 80
4, 478320, Note_on_c, 2, 80, 80
4, 478512, Note_on_c, 2, 80, 0
4, 478512, Note_on_c, 2, 77, 0
4, 478560, Note_on_c, 2, 77, 80
4, 478560, Note_on_c, 2, 80, 80
4, 478944, Note_on_c, 2, 80, 0
4, 478944, Note_on_c, 2, 77, 0
4, 479040, Note_on_c, 2, 77, 80
4, 479040, Note_on_c, 2, 80, 80
4, 479232, Note_on_c, 2, 80, 0
4, 479232, Note_on_c, 2, 77, 0
4, 479280, Note_on_c, 2, 77, 80
4, 479280, Note_on_c, 2, 80, 80
4, 480048, Note_on_c, 2, 80, 0
4, 480048, Note_on_c, 2, 77, 0
4, 480480, Note_on_c, 2, 70, 56
4, 480480, Note_on_c, 2, 79, 56
4, 480576, Note_on_c, 2, 79, 0
4, 480576, Note_on_c, 2, 70, 0
4, 480720, Note_on_c, 2, 79, 56
4, 480720, Note_on_c, 2, 70, 56
4, 481104, Note_on_c, 2, 70, 0
4, 481104, Note_on_c, 2, 79, 0
4, 481200, Note_on_c, 2, 75, 56
4, 481200, Note_on_c, 2, 67, 56
4, 481296, Note_on_c, 2, 67, 0
4, 481296, Note_on_c, 2, 75, 0
4, 481440, Note_on_c, 2, 67, 56
4, 481440, Note_on_c, 2, 70, 56
4, 482208, Note_on_c, 2, 70, 0
4, 482208, Note_on_c, 2, 67, 0
4, 482400, Note_on_c, 2, 80, 76
4, 482400, Note_on_c, 2, 77, 56
4, 482592, Note_on_c, 2, 77, 0
4, 482592, Note_on_c, 2, 80, 0
4, 482640, Note_on_c, 2, 77, 56
4, 482640, Note_on_c, 2, 80, 56
4, 482832, Note_on_c, 2, 80, 0
4, 482832, Note_on_c, 2, 77, 0
4, 482880, Note_on_c, 2, 77, 56
4, 482880, Note_on_c, 2, 80, 56
4, 483072, Note_on_c, 2, 80, 0
4, 483072, Note_on_c, 2, 77, 0
4, 483120, Note_on_c, 2, 74, 56
4, 483120, Note_on_c, 2, 77, 56
4, 483312, Note_on_c, 2, 77, 0
4, 483312, Note_on_c, 2, 74, 0
4, 483360, Note_on_c, 2, 80, 76
4, 483360, Note_on_c, 2, 77, 56
4, 483552, Note_on_c, 2, 77, 0
4, 483552, Note_on_c, 2, 80, 0
4, 483600, Note_on_c, 2, 80, 56
4, 483600, Note_on_c, 2, 77, 56
4, 483792, Note_on_c, 2, 77, 0
4, 483792, Note_on_c, 2, 80, 0
4, 483840, Note_on_c, 2, 80, 56
4, 483840, Note_on_c, 2, 77, 56
4, 484032, Note_on_c, 2, 77, 0
4, 484032, Note_on_c, 2, 80, 0
4, 484080, Note_on_c, 2, 77, 56
4, 484080, Note_on_c, 2, 74, 56
4, 484272, Note_on_c, 2, 74, 0
4, 484272, Note_on_c, 2, 77, 0
4, 484320, Note_on_c, 2, 80, 76
4, 484320, Note_on_c, 2, 77, 56
4, 484512, Note_on_c, 2, 77, 0
4, 484512, Note_on_c, 2, 80, 0
4, 484560, Note_on_c, 2, 80, 56
4, 484560, Note_on_c, 2, 77, 56
4, 484752, Note_on_c, 2, 77, 0
4, 484752, Note_on_c, 2, 80, 0
4, 484800, Note_on_c, 2, 80, 56
4, 484800, Note_on_c, 2, 77, 56
4, 484992, Note_on_c, 2, 77, 0
4, 484992, Note_on_c, 2, 80, 0
4, 485040, Note_on_c, 2, 77, 56
4, 485040, Note_on_c, 2, 74, 56
4, 485232, Note_on_c, 2, 74, 0
4, 485232, Note_on_c, 2, 77, 0
4, 485280, Note_on_c, 2, 80, 76
4, 485280, Note_on_c, 2, 77, 56
4, 485472, Note_on_c, 2, 77, 0
4, 485472, Note_on_c, 2, 80, 0
4, 485520, Note_on_c, 2, 80, 56
4, 485520, Note_on_c, 2, 77, 56
4, 485712, Note_on_c, 2, 77, 0
4, 485712, Note_on_c, 2, 80, 0
4, 485760, Note_on_c, 2, 80, 56
4, 485760, Note_on_c, 2, 77, 56
4, 485952, Note_on_c, 2, 77, 0
4, 485952, Note_on_c, 2, 80, 0
4, 486000, Note_on_c, 2, 77, 56
4, 486000, Note_on_c, 2, 74, 56
4, 486192, Note_on_c, 2, 74, 0
4, 486192, Note_on_c, 2, 77, 0
4, 486240, Note_on_c, 2, 75, 56
4, 486240, Note_on_c, 2, 79, 56
4, 486384, Note_on_c, 2, 79, 0
4, 486384, Note_on_c, 2, 75, 0
4, 486720, Note_on_c, 2, 79, 56
4, 486720, Note_on_c, 2, 75, 56
4, 486864, Note_on_c, 2, 75, 0
4, 486864, Note_on_c, 2, 79, 0
4, 487200, Note_on_c, 2, 75, 56
4, 487200, Note_on_c, 2, 79, 56
4, 487344, Note_on_c, 2, 79, 0
4, 487344, Note_on_c, 2, 75, 0
4, 487680, Note_on_c, 2, 75, 56
4, 487680, Note_on_c, 2, 79, 56
4, 487824, Note_on_c, 2, 79, 0
4, 487824, Note_on_c, 2, 75, 0
4, 488160, Note_on_c, 2, 75, 56
4, 488160, Note_on_c, 2, 79, 56
4, 488304, Note_on_c, 2, 79, 0
4, 488304, Note_on_c, 2, 75, 0
4, 488640, Note_on_c, 2, 79, 56
4, 488640, Note_on_c, 2, 75, 56
4, 488784, Note_on_c, 2, 75, 0
4, 488784, Note_on_c, 2, 79, 0
4, 489120, Note_on_c, 2, 75, 56
4, 489120, Note_on_c, 2, 79, 56
4, 489264, Note_on_c, 2, 79, 0
4, 489264, Note_on_c, 2, 75, 0
4, 489600, Note_on_c, 2, 79, 56
4, 489600, Note_on_c, 2, 75, 56
4, 489744, Note_on_c, 2, 75, 0
4, 489744, Note_on_c, 2, 79, 0
4, 490080, Note_on_c, 2, 79, 56
4, 490080, Note_on_c, 2, 75, 56
4, 490224, Note_on_c, 2, 75, 0
4, 490224, Note_on_c, 2, 79, 0
4, 492000, Note_on_c, 2, 79, 56
4, 492000, Note_on_c, 2, 75, 56
4, 492144, Note_on_c, 2, 75, 0
4, 492144, Note_on_c, 2, 79, 0
4, 493920, Note_on_c, 2, 67, 56
4, 493920, Note_on_c, 2, 75, 56
4, 494064, Note_on_c, 2, 75, 0
4, 494064, Note_on_c, 2, 67, 0
4, 495000, Note_on_c, 2, 67, 56
4, 495000, Note_on_c, 2, 75, 56
4, 495144, Note_on_c, 2, 75, 0
4, 495144, Note_on_c, 2, 67, 0
4, 496080, Note_on_c, 2, 67, 56
4, 496080, Note_on_c, 2, 75, 56
4, 496224, Note_on_c, 2, 75, 0
4, 496224, Note_on_c, 2, 67, 0
4, 497160, Note_on_c, 2, 75, 56
4, 497160, Note_on_c, 2, 67, 56
4, 497304, Note_on_c, 2, 67, 0
4, 497304, Note_on_c, 2, 75, 0
4, 498360, Note_on_c, 2, 75, 56
4, 498360, Note_on_c, 2, 67, 56
4, 498504, Note_on_c, 2, 67, 0
4, 498504, Note_on_c, 2, 75, 0
4, 498504, End_track
5, 0, Start_track
5, 0, Title_t, "Bassoons            "
5, 0, Program_c, 3, 70
5, 0, Control_c, 3, 7, 90
5, 0, Control_c, 3, 10, 54
5, 2880, Control_c, 3, 91, 100
5, 9600, Note_on_c, 3, 41, 65
5, 9600, Note_on_c, 3, 53, 68
5, 11372, Note_on_c, 3, 41, 0
5, 11374, Note_on_c, 3, 53, 0
5, 11520, Note_on_c, 3, 36, 71
5, 11520, Note_on_c, 3, 48, 66
5, 13214, Note_on_c, 3, 36, 0
5, 13216, Note_on_c, 3, 48, 0
5, 13920, Note_on_c, 3, 60, 32
5, 13920, Note_on_c, 3, 56, 22
5, 13934, Note_on_c, 3, 56, 0
5, 13934, Note_on_c, 3, 60, 0
5, 14160, Note_on_c, 3, 63, 29
5, 14160, Note_on_c, 3, 60, 31
5, 14196, Note_on_c, 3, 60, 0
5, 14196, Note_on_c, 3, 63, 0
5, 14400, Note_on_c, 3, 60, 32
5, 14400, Note_on_c, 3, 63, 27
5, 14422, Note_on_c, 3, 60, 0
5, 14430, Note_on_c, 3, 63, 0
5, 14640, Note_on_c, 3, 56, 23
5, 14640, Note_on_c, 3, 60, 31
5, 14670, Note_on_c, 3, 56, 0
5, 14674, Note_on_c, 3, 60, 0
5, 14880, Note_on_c, 3, 56, 22
5, 14880, Note_on_c, 3, 60, 32
5, 14894, Note_on_c, 3, 60, 0
5, 14894, Note_on_c, 3, 56, 0
5, 15120, Note_on_c, 3, 60, 31
5, 15120, Note_on_c, 3, 63, 29
5, 15156, Note_on_c, 3, 63, 0
5, 15156, Note_on_c, 3, 60, 0
5, 15360, Note_on_c, 3, 60, 32
5, 15360, Note_on_c, 3, 63, 27
5, 15382, Note_on_c, 3, 60, 0
5, 15390, Note_on_c, 3, 63, 0
5, 15600, Note_on_c, 3, 56, 23
5, 15600, Note_on_c, 3, 60, 31
5, 15630, Note_on_c, 3, 56, 0
5, 15634, Note_on_c, 3, 60, 0
5, 15840, Note_on_c, 3, 60, 29
5, 15840, Note_on_c, 3, 56, 22
5, 15874, Note_on_c, 3, 56, 0
5, 15876, Note_on_c, 3, 60, 0
5, 16080, Note_on_c, 3, 60, 33
5, 16080, Note_on_c, 3, 63, 26
5, 16116, Note_on_c, 3, 60, 0
5, 16120, Note_on_c, 3, 63, 0
5, 16320, Note_on_c, 3, 60, 33
5, 16320, Note_on_c, 3, 63, 28
5, 16350, Note_on_c, 3, 60, 0
5, 16354, Note_on_c, 3, 63, 0
5, 16560, Note_on_c, 3, 60, 33
5, 16560, Note_on_c, 3, 56, 22
5, 16594, Note_on_c, 3, 60, 0
5, 16596, Note_on_c, 3, 56, 0
5, 16800, Note_on_c, 3, 58, 24
5, 16800, Note_on_c, 3, 55, 19
5, 16830, Note_on_c, 3, 55, 0
5, 16840, Note_on_c, 3, 58, 0
5, 17040, Note_on_c, 3, 63, 30
5, 17040, Note_on_c, 3, 58, 25
5, 17072, Note_on_c, 3, 58, 0
5, 17080, Note_on_c, 3, 63, 0
5, 17280, Note_on_c, 3, 58, 25
5, 17280, Note_on_c, 3, 63, 33
5, 17314, Note_on_c, 3, 58, 0
5, 17320, Note_on_c, 3, 63, 0
5, 17520, Note_on_c, 3, 55, 23
5, 17520, Note_on_c, 3, 58, 21
5, 17552, Note_on_c, 3, 55, 0
5, 17564, Note_on_c, 3, 58, 0
5, 17760, Note_on_c, 3, 58, 24
5, 17760, Note_on_c, 3, 55, 24
5, 17794, Note_on_c, 3, 55, 0
5, 17802, Note_on_c, 3, 58, 0
5, 18000, Note_on_c, 3, 63, 29
5, 18000, Note_on_c, 3, 58, 25
5, 18040, Note_on_c, 3, 58, 0
5, 18042, Note_on_c, 3, 63, 0
5, 18240, Note_on_c, 3, 58, 25
5, 18240, Note_on_c, 3, 63, 31
5, 18274, Note_on_c, 3, 58, 0
5, 18276, Note_on_c, 3, 63, 0
5, 18480, Note_on_c, 3, 55, 26
5, 18480, Note_on_c, 3, 58, 22
5, 18512, Note_on_c, 3, 55, 0
5, 18524, Note_on_c, 3, 58, 0
5, 18720, Note_on_c, 3, 56, 25
5, 18720, Note_on_c, 3, 60, 23
5, 18750, Note_on_c, 3, 60, 0
5, 18756, Note_on_c, 3, 56, 0
5, 18960, Note_on_c, 3, 63, 29
5, 18960, Note_on_c, 3, 60, 33
5, 18992, Note_on_c, 3, 60, 0
5, 19000, Note_on_c, 3, 63, 0
5, 19200, Note_on_c, 3, 60, 29
5, 19200, Note_on_c, 3, 63, 30
5, 19222, Note_on_c, 3, 60, 0
5, 19236, Note_on_c, 3, 63, 0
5, 19440, Note_on_c, 3, 60, 36
5, 19440, Note_on_c, 3, 56, 25
5, 19472, Note_on_c, 3, 60, 0
5, 19474, Note_on_c, 3, 56, 0
5, 19680, Note_on_c, 3, 51, 27
5, 19680, Note_on_c, 3, 58, 27
5, 19714, Note_on_c, 3, 58, 0
5, 19720, Note_on_c, 3, 51, 0
5, 19920, Note_on_c, 3, 58, 29
5, 19920, Note_on_c, 3, 63, 31
5, 19956, Note_on_c, 3, 63, 0
5, 19956, Note_on_c, 3, 58, 0
5, 20160, Note_on_c, 3, 63, 34
5, 20160, Note_on_c, 3, 58, 32
5, 20192, Note_on_c, 3, 63, 0
5, 20194, Note_on_c, 3, 58, 0
5, 20400, Note_on_c, 3, 51, 29
5, 20400, Note_on_c, 3, 58, 27
5, 20434, Note_on_c, 3, 51, 0
5, 20436, Note_on_c, 3, 58, 0
5, 20640, Note_on_c, 3, 56, 23
5, 20640, Note_on_c, 3, 60, 35
5, 20676, Note_on_c, 3, 60, 0
5, 20684, Note_on_c, 3, 56, 0
5, 20880, Note_on_c, 3, 63, 32
5, 20880, Note_on_c, 3, 60, 29
5, 20900, Note_on_c, 3, 60, 0
5, 20916, Note_on_c, 3, 63, 0
5, 21120, Note_on_c, 3, 60, 34
5, 21120, Note_on_c, 3, 63, 31
5, 21152, Note_on_c, 3, 60, 0
5, 21156, Note_on_c, 3, 63, 0
5, 21360, Note_on_c, 3, 60, 35
5, 21360, Note_on_c, 3, 56, 24
5, 21394, Note_on_c, 3, 60, 0
5, 21402, Note_on_c, 3, 56, 0
5, 23992, Control_c, 3, 7, 104
5, 24000, Note_on_c, 3, 60, 68
5, 24008, Control_c, 3, 7, 105
5, 24020, Control_c, 3, 7, 104
5, 24128, Control_c, 3, 7, 105
5, 24140, Control_c, 3, 7, 104
5, 24248, Control_c, 3, 7, 105
5, 24368, Control_c, 3, 7, 104
5, 24392, Control_c, 3, 7, 103
5, 24460, Control_c, 3, 7, 99
5, 24500, Control_c, 3, 7, 94
5, 24632, Control_c, 3, 7, 92
5, 24700, Control_c, 3, 7, 91
5, 24712, Control_c, 3, 7, 90
5, 24728, Control_c, 3, 7, 89
5, 24808, Control_c, 3, 7, 88
5, 24872, Control_c, 3, 7, 87
5, 24940, Control_c, 3, 7, 85
5, 25088, Control_c, 3, 7, 80
5, 25112, Control_c, 3, 7, 78
5, 25140, Control_c, 3, 7, 77
5, 25152, Control_c, 3, 7, 76
5, 25168, Control_c, 3, 7, 75
5, 25208, Control_c, 3, 7, 73
5, 25232, Control_c, 3, 7, 72
5, 25260, Control_c, 3, 7, 66
5, 25340, Control_c, 3, 7, 60
5, 25408, Control_c, 3, 7, 59
5, 25448, Control_c, 3, 7, 54
5, 25512, Control_c, 3, 7, 52
5, 25540, Control_c, 3, 7, 49
5, 25620, Control_c, 3, 7, 47
5, 25632, Control_c, 3, 7, 46
5, 25648, Control_c, 3, 7, 45
5, 25660, Control_c, 3, 7, 46
5, 25672, Control_c, 3, 7, 40
5, 25700, Control_c, 3, 7, 39
5, 25712, Control_c, 3, 7, 33
5, 25780, Control_c, 3, 7, 32
5, 25792, Control_c, 3, 7, 31
5, 25820, Control_c, 3, 7, 30
5, 25826, Note_on_c, 3, 60, 0
5, 25888, Control_c, 3, 7, 29
5, 25900, Control_c, 3, 7, 27
5, 25912, Control_c, 3, 7, 25
5, 25992, Control_c, 3, 7, 24
5, 26020, Control_c, 3, 7, 22
5, 26060, Control_c, 3, 7, 27
5, 26072, Control_c, 3, 7, 28
5, 26128, Control_c, 3, 7, 29
5, 26140, Control_c, 3, 7, 28
5, 26192, Control_c, 3, 7, 30
5, 26208, Control_c, 3, 7, 35
5, 26220, Control_c, 3, 7, 36
5, 26288, Control_c, 3, 7, 41
5, 26300, Control_c, 3, 7, 43
5, 26312, Control_c, 3, 7, 48
5, 26420, Control_c, 3, 7, 54
5, 26432, Control_c, 3, 7, 59
5, 26448, Control_c, 3, 7, 78
5, 26460, Control_c, 3, 7, 86
5, 26472, Control_c, 3, 7, 85
5, 26528, Control_c, 3, 7, 89
5, 26540, Control_c, 3, 7, 95
5, 26552, Control_c, 3, 7, 91
5, 26608, Control_c, 3, 7, 99
5, 26620, Control_c, 3, 7, 104
5, 27840, Note_on_c, 3, 53, 71
5, 27840, Note_on_c, 3, 56, 79
5, 29520, Note_on_c, 3, 56, 0
5, 29520, Note_on_c, 3, 53, 0
5, 30240, Note_on_c, 3, 53, 40
5, 30240, Note_on_c, 3, 50, 32
5, 30284, Note_on_c, 3, 50, 0
5, 30296, Note_on_c, 3, 53, 0
5, 30480, Note_on_c, 3, 58, 33
5, 30480, Note_on_c, 3, 53, 37
5, 30502, Note_on_c, 3, 53, 0
5, 30520, Note_on_c, 3, 58, 0
5, 30720, Note_on_c, 3, 53, 37
5, 30720, Note_on_c, 3, 58, 32
5, 30754, Note_on_c, 3, 53, 0
5, 30764, Note_on_c, 3, 58, 0
5, 30960, Note_on_c, 3, 53, 38
5, 30960, Note_on_c, 3, 50, 36
5, 31002, Note_on_c, 3, 53, 0
5, 31006, Note_on_c, 3, 50, 0
5, 31200, Note_on_c, 3, 55, 37
5, 31200, Note_on_c, 3, 51, 38
5, 31230, Note_on_c, 3, 51, 0
5, 31234, Note_on_c, 3, 55, 0
5, 31440, Note_on_c, 3, 58, 32
5, 31440, Note_on_c, 3, 55, 38
5, 31480, Note_on_c, 3, 55, 0
5, 31484, Note_on_c, 3, 58, 0
5, 31680, Note_on_c, 3, 55, 36
5, 31680, Note_on_c, 3, 58, 32
5, 31720, Note_on_c, 3, 55, 0
5, 31730, Note_on_c, 3, 58, 0
5, 31920, Note_on_c, 3, 55, 32
5, 31920, Note_on_c, 3, 51, 35
5, 31950, Note_on_c, 3, 55, 0
5, 31960, Note_on_c, 3, 51, 0
5, 32160, Note_on_c, 3, 53, 37
5, 32160, Note_on_c, 3, 56, 29
5, 32204, Note_on_c, 3, 56, 0
5, 32212, Note_on_c, 3, 53, 0
5, 32400, Note_on_c, 3, 56, 30
5, 32400, Note_on_c, 3, 58, 32
5, 32434, Note_on_c, 3, 56, 0
5, 32446, Note_on_c, 3, 58, 0
5, 32640, Note_on_c, 3, 56, 32
5, 32640, Note_on_c, 3, 58, 35
5, 32676, Note_on_c, 3, 56, 0
5, 32690, Note_on_c, 3, 58, 0
5, 32880, Note_on_c, 3, 56, 32
5, 32880, Note_on_c, 3, 53, 34
5, 32922, Note_on_c, 3, 56, 0
5, 32924, Note_on_c, 3, 53, 0
5, 33120, Note_on_c, 3, 55, 36
5, 33120, Note_on_c, 3, 51, 34
5, 33160, Note_on_c, 3, 51, 0
5, 33164, Note_on_c, 3, 55, 0
5, 33360, Note_on_c, 3, 58, 25
5, 33360, Note_on_c, 3, 55, 41
5, 33394, Note_on_c, 3, 55, 0
5, 33422, Note_on_c, 3, 58, 0
5, 33600, Note_on_c, 3, 58, 34
5, 33644, Note_on_c, 3, 58, 0
5, 33840, Note_on_c, 3, 51, 35
5, 33840, Note_on_c, 3, 54, 38
5, 33874, Note_on_c, 3, 51, 0
5, 33886, Note_on_c, 3, 54, 0
5, 34080, Note_on_c, 3, 50, 30
5, 34080, Note_on_c, 3, 53, 37
5, 34120, Note_on_c, 3, 53, 0
5, 34120, Note_on_c, 3, 50, 0
5, 34320, Note_on_c, 3, 53, 37
5, 34320, Note_on_c, 3, 58, 33
5, 34352, Note_on_c, 3, 53, 0
5, 34356, Note_on_c, 3, 58, 0
5, 34560, Note_on_c, 3, 53, 40
5, 34560, Note_on_c, 3, 58, 32
5, 34594, Note_on_c, 3, 53, 0
5, 34600, Note_on_c, 3, 58, 0
5, 34800, Note_on_c, 3, 53, 40
5, 34800, Note_on_c, 3, 50, 23
5, 34832, Note_on_c, 3, 50, 0
5, 34842, Note_on_c, 3, 53, 0
5, 35040, Note_on_c, 3, 54, 37
5, 35040, Note_on_c, 3, 51, 38
5, 35072, Note_on_c, 3, 51, 0
5, 35076, Note_on_c, 3, 54, 0
5, 35280, Note_on_c, 3, 58, 37
5, 35280, Note_on_c, 3, 54, 34
5, 35304, Note_on_c, 3, 54, 0
5, 35332, Note_on_c, 3, 58, 0
5, 35520, Note_on_c, 3, 54, 37
5, 35520, Note_on_c, 3, 58, 34
5, 35560, Note_on_c, 3, 58, 0
5, 35560, Note_on_c, 3, 54, 0
5, 35760, Note_on_c, 3, 46, 29
5, 35760, Note_on_c, 3, 58, 37
5, 35794, Note_on_c, 3, 46, 0
5, 35796, Note_on_c, 3, 58, 0
5, 36000, Note_on_c, 3, 58, 38
5, 36000, Note_on_c, 3, 46, 31
5, 36034, Note_on_c, 3, 46, 0
5, 36044, Note_on_c, 3, 58, 0
5, 36240, Note_on_c, 3, 58, 34
5, 36240, Note_on_c, 3, 46, 28
5, 36276, Note_on_c, 3, 46, 0
5, 36286, Note_on_c, 3, 58, 0
5, 36480, Note_on_c, 3, 58, 34
5, 36480, Note_on_c, 3, 46, 26
5, 36516, Note_on_c, 3, 46, 0
5, 36524, Note_on_c, 3, 58, 0
5, 36720, Note_on_c, 3, 58, 31
5, 36720, Note_on_c, 3, 46, 26
5, 36754, Note_on_c, 3, 46, 0
5, 36760, Note_on_c, 3, 58, 0
5, 36960, Note_on_c, 3, 58, 35
5, 36960, Note_on_c, 3, 46, 28
5, 36996, Note_on_c, 3, 46, 0
5, 37004, Note_on_c, 3, 58, 0
5, 37200, Note_on_c, 3, 58, 32
5, 37200, Note_on_c, 3, 46, 29
5, 37242, Note_on_c, 3, 46, 0
5, 37252, Note_on_c, 3, 58, 0
5, 37440, Note_on_c, 3, 58, 37
5, 37440, Note_on_c, 3, 46, 30
5, 37476, Note_on_c, 3, 46, 0
5, 37484, Note_on_c, 3, 58, 0
5, 37680, Note_on_c, 3, 46, 29
5, 37680, Note_on_c, 3, 58, 42
5, 37706, Note_on_c, 3, 46, 0
5, 37726, Note_on_c, 3, 58, 0
5, 37920, Note_on_c, 3, 58, 40
5, 37920, Note_on_c, 3, 46, 32
5, 37954, Note_on_c, 3, 46, 0
5, 37964, Note_on_c, 3, 58, 0
5, 38160, Note_on_c, 3, 58, 40
5, 38160, Note_on_c, 3, 46, 30
5, 38192, Note_on_c, 3, 46, 0
5, 38204, Note_on_c, 3, 58, 0
5, 38400, Note_on_c, 3, 46, 28
5, 38400, Note_on_c, 3, 58, 38
5, 38436, Note_on_c, 3, 46, 0
5, 38446, Note_on_c, 3, 58, 0
5, 38640, Note_on_c, 3, 46, 29
5, 38640, Note_on_c, 3, 58, 39
5, 38672, Note_on_c, 3, 46, 0
5, 38680, Note_on_c, 3, 58, 0
5, 38880, Note_on_c, 3, 58, 60
5, 38880, Note_on_c, 3, 46, 47
5, 38894, Note_on_c, 3, 46, 0
5, 38896, Note_on_c, 3, 58, 0
5, 39120, Note_on_c, 3, 46, 44
5, 39120, Note_on_c, 3, 58, 59
5, 39152, Note_on_c, 3, 46, 0
5, 39160, Note_on_c, 3, 58, 0
5, 39360, Note_on_c, 3, 58, 56
5, 39400, Note_on_c, 3, 58, 0
5, 39600, Note_on_c, 3, 58, 61
5, 39600, Note_on_c, 3, 46, 48
5, 39636, Note_on_c, 3, 46, 0
5, 39646, Note_on_c, 3, 58, 0
5, 39840, Note_on_c, 3, 58, 63
5, 39840, Note_on_c, 3, 46, 57
5, 39872, Note_on_c, 3, 46, 0
5, 39880, Note_on_c, 3, 58, 0
5, 40080, Note_on_c, 3, 58, 51
5, 40080, Note_on_c, 3, 46, 47
5, 40116, Note_on_c, 3, 46, 0
5, 40130, Note_on_c, 3, 58, 0
5, 40320, Note_on_c, 3, 46, 50
5, 40320, Note_on_c, 3, 58, 61
5, 40356, Note_on_c, 3, 46, 0
5, 40364, Note_on_c, 3, 58, 0
5, 40560, Note_on_c, 3, 46, 46
5, 40560, Note_on_c, 3, 58, 54
5, 40596, Note_on_c, 3, 46, 0
5, 40610, Note_on_c, 3, 58, 0
5, 40800, Note_on_c, 3, 58, 67
5, 40800, Note_on_c, 3, 46, 50
5, 40846, Note_on_c, 3, 58, 0
5, 40850, Note_on_c, 3, 46, 0
5, 41040, Note_on_c, 3, 58, 50
5, 41040, Note_on_c, 3, 46, 53
5, 41080, Note_on_c, 3, 58, 0
5, 41082, Note_on_c, 3, 46, 0
5, 41280, Note_on_c, 3, 58, 61
5, 41280, Note_on_c, 3, 46, 55
5, 41326, Note_on_c, 3, 46, 0
5, 41326, Note_on_c, 3, 58, 0
5, 41520, Note_on_c, 3, 53, 49
5, 41520, Note_on_c, 3, 46, 38
5, 41640, Note_on_c, 3, 51, 38
5, 41640, Note_on_c, 3, 55, 42
5, 41646, Note_on_c, 3, 53, 0
5, 41672, Note_on_c, 3, 46, 0
5, 41760, Note_on_c, 3, 56, 46
5, 41760, Note_on_c, 3, 53, 50
5, 41772, Note_on_c, 3, 51, 0
5, 41772, Note_on_c, 3, 55, 0
5, 41880, Note_on_c, 3, 51, 39
5, 41880, Note_on_c, 3, 55, 36
5, 41894, Note_on_c, 3, 53, 0
5, 41914, Note_on_c, 3, 56, 0
5, 42000, Note_on_c, 3, 46, 22
5, 42004, Note_on_c, 3, 55, 0
5, 42030, Note_on_c, 3, 51, 0
5, 42120, Note_on_c, 3, 53, 5
5, 42132, Note_on_c, 3, 46, 0
5, 42150, Note_on_c, 3, 53, 0
5, 43920, Note_on_c, 3, 66, 82
5, 43920, Control_c, 3, 7, 40
5, 43928, Control_c, 3, 7, 38
5, 43936, Control_c, 3, 7, 38
5, 43944, Control_c, 3, 7, 38
5, 43952, Control_c, 3, 7, 37
5, 43960, Control_c, 3, 7, 37
5, 43968, Control_c, 3, 7, 38
5, 43976, Control_c, 3, 7, 38
5, 43984, Control_c, 3, 7, 38
5, 43992, Control_c, 3, 7, 38
5, 44000, Control_c, 3, 7, 38
5, 44008, Control_c, 3, 7, 38
5, 44016, Control_c, 3, 7, 38
5, 44024, Control_c, 3, 7, 38
5, 44032, Control_c, 3, 7, 39
5, 44040, Control_c, 3, 7, 39
5, 44048, Control_c, 3, 7, 39
5, 44056, Control_c, 3, 7, 39
5, 44064, Control_c, 3, 7, 39
5, 44072, Control_c, 3, 7, 39
5, 44080, Control_c, 3, 7, 39
5, 44088, Control_c, 3, 7, 39
5, 44096, Control_c, 3, 7, 39
5, 44104, Control_c, 3, 7, 40
5, 44112, Control_c, 3, 7, 40
5, 44120, Control_c, 3, 7, 40
5, 44128, Control_c, 3, 7, 40
5, 44136, Control_c, 3, 7, 40
5, 44144, Control_c, 3, 7, 40
5, 44152, Control_c, 3, 7, 40
5, 44160, Control_c, 3, 7, 41
5, 44168, Control_c, 3, 7, 42
5, 44176, Control_c, 3, 7, 42
5, 44184, Control_c, 3, 7, 42
5, 44192, Control_c, 3, 7, 42
5, 44200, Control_c, 3, 7, 42
5, 44208, Control_c, 3, 7, 42
5, 44216, Control_c, 3, 7, 42
5, 44224, Control_c, 3, 7, 42
5, 44232, Control_c, 3, 7, 42
5, 44240, Control_c, 3, 7, 42
5, 44248, Control_c, 3, 7, 42
5, 44256, Control_c, 3, 7, 42
5, 44264, Control_c, 3, 7, 42
5, 44272, Control_c, 3, 7, 42
5, 44280, Control_c, 3, 7, 42
5, 44288, Control_c, 3, 7, 43
5, 44296, Control_c, 3, 7, 43
5, 44304, Control_c, 3, 7, 43
5, 44312, Control_c, 3, 7, 43
5, 44320, Control_c, 3, 7, 43
5, 44328, Control_c, 3, 7, 45
5, 44336, Control_c, 3, 7, 45
5, 44344, Control_c, 3, 7, 45
5, 44352, Control_c, 3, 7, 45
5, 44360, Control_c, 3, 7, 45
5, 44368, Control_c, 3, 7, 45
5, 44376, Control_c, 3, 7, 45
5, 44384, Control_c, 3, 7, 46
5, 44392, Control_c, 3, 7, 46
5, 44400, Control_c, 3, 7, 46
5, 44408, Control_c, 3, 7, 47
5, 44416, Control_c, 3, 7, 47
5, 44424, Control_c, 3, 7, 47
5, 44432, Control_c, 3, 7, 48
5, 44440, Control_c, 3, 7, 48
5, 44448, Control_c, 3, 7, 48
5, 44456, Control_c, 3, 7, 49
5, 44464, Control_c, 3, 7, 49
5, 44472, Control_c, 3, 7, 49
5, 44480, Control_c, 3, 7, 50
5, 44488, Control_c, 3, 7, 50
5, 44496, Control_c, 3, 7, 51
5, 44504, Control_c, 3, 7, 51
5, 44512, Control_c, 3, 7, 51
5, 44520, Control_c, 3, 7, 51
5, 44528, Control_c, 3, 7, 51
5, 44536, Control_c, 3, 7, 52
5, 44544, Control_c, 3, 7, 52
5, 44552, Control_c, 3, 7, 52
5, 44560, Control_c, 3, 7, 52
5, 44568, Control_c, 3, 7, 52
5, 44576, Control_c, 3, 7, 52
5, 44584, Control_c, 3, 7, 52
5, 44592, Control_c, 3, 7, 53
5, 44600, Control_c, 3, 7, 53
5, 44608, Control_c, 3, 7, 59
5, 44616, Control_c, 3, 7, 60
5, 44624, Control_c, 3, 7, 60
5, 44632, Control_c, 3, 7, 60
5, 44640, Control_c, 3, 7, 60
5, 44648, Control_c, 3, 7, 60
5, 44656, Control_c, 3, 7, 60
5, 44664, Control_c, 3, 7, 60
5, 44672, Control_c, 3, 7, 60
5, 44680, Control_c, 3, 7, 60
5, 44688, Control_c, 3, 7, 60
5, 44696, Control_c, 3, 7, 60
5, 44704, Control_c, 3, 7, 60
5, 44712, Control_c, 3, 7, 60
5, 44720, Control_c, 3, 7, 60
5, 44728, Control_c, 3, 7, 60
5, 44736, Control_c, 3, 7, 61
5, 44744, Control_c, 3, 7, 61
5, 44752, Control_c, 3, 7, 62
5, 44760, Control_c, 3, 7, 62
5, 44768, Control_c, 3, 7, 62
5, 44776, Control_c, 3, 7, 62
5, 44784, Control_c, 3, 7, 62
5, 44792, Control_c, 3, 7, 62
5, 44800, Control_c, 3, 7, 63
5, 44808, Control_c, 3, 7, 64
5, 44816, Control_c, 3, 7, 65
5, 44824, Control_c, 3, 7, 66
5, 44832, Control_c, 3, 7, 67
5, 44840, Control_c, 3, 7, 67
5, 44848, Control_c, 3, 7, 67
5, 44856, Control_c, 3, 7, 67
5, 44864, Control_c, 3, 7, 67
5, 44872, Control_c, 3, 7, 67
5, 44880, Control_c, 3, 7, 72
5, 44880, Note_on_c, 3, 62, 60
5, 44888, Control_c, 3, 7, 72
5, 44896, Control_c, 3, 7, 72
5, 44904, Control_c, 3, 7, 72
5, 44912, Control_c, 3, 7, 72
5, 44920, Control_c, 3, 7, 73
5, 44928, Control_c, 3, 7, 73
5, 44936, Control_c, 3, 7, 73
5, 44944, Control_c, 3, 7, 73
5, 44952, Control_c, 3, 7, 73
5, 44960, Control_c, 3, 7, 73
5, 44968, Control_c, 3, 7, 73
5, 44976, Control_c, 3, 7, 73
5, 44984, Control_c, 3, 7, 73
5, 44992, Control_c, 3, 7, 73
5, 45000, Control_c, 3, 7, 73
5, 45008, Control_c, 3, 7, 74
5, 45016, Control_c, 3, 7, 75
5, 45024, Control_c, 3, 7, 75
5, 45032, Control_c, 3, 7, 75
5, 45040, Control_c, 3, 7, 75
5, 45048, Control_c, 3, 7, 75
5, 45056, Control_c, 3, 7, 76
5, 45064, Control_c, 3, 7, 76
5, 45072, Control_c, 3, 7, 81
5, 45080, Control_c, 3, 7, 81
5, 45088, Control_c, 3, 7, 81
5, 45096, Control_c, 3, 7, 81
5, 45104, Control_c, 3, 7, 81
5, 45112, Control_c, 3, 7, 81
5, 45120, Control_c, 3, 7, 82
5, 45128, Control_c, 3, 7, 83
5, 45136, Control_c, 3, 7, 84
5, 45144, Control_c, 3, 7, 85
5, 45152, Control_c, 3, 7, 86
5, 45160, Control_c, 3, 7, 87
5, 45168, Control_c, 3, 7, 87
5, 45176, Control_c, 3, 7, 87
5, 45184, Control_c, 3, 7, 87
5, 45192, Control_c, 3, 7, 87
5, 45200, Control_c, 3, 7, 87
5, 45208, Control_c, 3, 7, 87
5, 45216, Control_c, 3, 7, 88
5, 45224, Control_c, 3, 7, 90
5, 45232, Control_c, 3, 7, 92
5, 45240, Control_c, 3, 7, 94
5, 45248, Control_c, 3, 7, 96
5, 45256, Control_c, 3, 7, 96
5, 45264, Control_c, 3, 7, 96
5, 45272, Control_c, 3, 7, 96
5, 45280, Control_c, 3, 7, 96
5, 45288, Control_c, 3, 7, 96
5, 45296, Control_c, 3, 7, 96
5, 45304, Control_c, 3, 7, 96
5, 45312, Control_c, 3, 7, 96
5, 45320, Control_c, 3, 7, 96
5, 45328, Control_c, 3, 7, 97
5, 45336, Control_c, 3, 7, 98
5, 45344, Control_c, 3, 7, 98
5, 45352, Control_c, 3, 7, 98
5, 45360, Control_c, 3, 7, 98
5, 45368, Control_c, 3, 7, 98
5, 45376, Control_c, 3, 7, 98
5, 45384, Control_c, 3, 7, 98
5, 45392, Control_c, 3, 7, 98
5, 45400, Control_c, 3, 7, 98
5, 45408, Control_c, 3, 7, 98
5, 45416, Control_c, 3, 7, 98
5, 45424, Control_c, 3, 7, 98
5, 45432, Control_c, 3, 7, 98
5, 45440, Control_c, 3, 7, 103
5, 45448, Control_c, 3, 7, 103
5, 45456, Control_c, 3, 7, 103
5, 45464, Control_c, 3, 7, 103
5, 45472, Control_c, 3, 7, 103
5, 45480, Control_c, 3, 7, 103
5, 45488, Control_c, 3, 7, 104
5, 45496, Control_c, 3, 7, 105
5, 45504, Control_c, 3, 7, 105
5, 45512, Control_c, 3, 7, 105
5, 45520, Control_c, 3, 7, 105
5, 45528, Control_c, 3, 7, 105
5, 45536, Control_c, 3, 7, 106
5, 45544, Control_c, 3, 7, 106
5, 45552, Control_c, 3, 7, 106
5, 45560, Control_c, 3, 7, 106
5, 45568, Control_c, 3, 7, 106
5, 45576, Control_c, 3, 7, 106
5, 45584, Control_c, 3, 7, 107
5, 45592, Control_c, 3, 7, 107
5, 45600, Control_c, 3, 7, 107
5, 45608, Control_c, 3, 7, 107
5, 45616, Control_c, 3, 7, 107
5, 45624, Control_c, 3, 7, 107
5, 45632, Control_c, 3, 7, 107
5, 45640, Control_c, 3, 7, 107
5, 45648, Control_c, 3, 7, 107
5, 45656, Control_c, 3, 7, 107
5, 45664, Control_c, 3, 7, 108
5, 45672, Control_c, 3, 7, 108
5, 45680, Control_c, 3, 7, 109
5, 45688, Control_c, 3, 7, 109
5, 45696, Control_c, 3, 7, 109
5, 45704, Control_c, 3, 7, 109
5, 45712, Control_c, 3, 7, 109
5, 45720, Control_c, 3, 7, 109
5, 45728, Control_c, 3, 7, 109
5, 45736, Control_c, 3, 7, 110
5, 45744, Control_c, 3, 7, 110
5, 45752, Control_c, 3, 7, 110
5, 45760, Control_c, 3, 7, 110
5, 45764, Note_on_c, 3, 62, 0
5, 45768, Control_c, 3, 7, 110
5, 45776, Control_c, 3, 7, 110
5, 45784, Note_on_c, 3, 66, 0
5, 45784, Control_c, 3, 7, 111
5, 45792, Control_c, 3, 7, 110
5, 45800, Control_c, 3, 7, 110
5, 45808, Control_c, 3, 7, 110
5, 45816, Control_c, 3, 7, 110
5, 45824, Control_c, 3, 7, 110
5, 45840, Note_on_c, 3, 67, 63
5, 45840, Note_on_c, 3, 58, 56
5, 45884, Note_on_c, 3, 58, 0
5, 45892, Note_on_c, 3, 67, 0
5, 46080, Control_c, 3, 7, 90
5, 46080, Note_on_c, 3, 67, 65
5, 46080, Note_on_c, 3, 58, 56
5, 46380, Note_on_c, 3, 67, 0
5, 46406, Note_on_c, 3, 58, 0
5, 46560, Note_on_c, 3, 63, 65
5, 46560, Note_on_c, 3, 55, 41
5, 46640, Note_on_c, 3, 55, 0
5, 46650, Note_on_c, 3, 63, 0
5, 46800, Note_on_c, 3, 58, 55
5, 46800, Note_on_c, 3, 55, 47
5, 47492, Note_on_c, 3, 58, 0
5, 47516, Note_on_c, 3, 55, 0
5, 47760, Note_on_c, 3, 67, 65
5, 47760, Note_on_c, 3, 58, 58
5, 47794, Note_on_c, 3, 58, 0
5, 47804, Note_on_c, 3, 67, 0
5, 48000, Note_on_c, 3, 67, 62
5, 48000, Note_on_c, 3, 58, 56
5, 48300, Note_on_c, 3, 58, 0
5, 48300, Note_on_c, 3, 67, 0
5, 48480, Note_on_c, 3, 63, 59
5, 48480, Note_on_c, 3, 55, 46
5, 48564, Note_on_c, 3, 55, 0
5, 48572, Note_on_c, 3, 63, 0
5, 48720, Note_on_c, 3, 58, 56
5, 48720, Note_on_c, 3, 55, 45
5, 49274, Note_on_c, 3, 55, 0
5, 49286, Note_on_c, 3, 58, 0
5, 49560, Note_on_c, 3, 63, 58
5, 49560, Note_on_c, 3, 55, 37
5, 49618, Note_on_c, 3, 55, 0
5, 49618, Note_on_c, 3, 63, 0
5, 49620, Note_on_c, 3, 65, 80
5, 49620, Note_on_c, 3, 56, 80
5, 49668, Note_on_c, 3, 56, 0
5, 49668, Note_on_c, 3, 65, 0
5, 49680, Note_on_c, 3, 67, 64
5, 49680, Note_on_c, 3, 58, 50
5, 49992, Note_on_c, 3, 67, 0
5, 50010, Note_on_c, 3, 58, 0
5, 50160, Note_on_c, 3, 63, 70
5, 50160, Note_on_c, 3, 55, 53
5, 50230, Note_on_c, 3, 63, 0
5, 50264, Note_on_c, 3, 55, 0
5, 50400, Note_on_c, 3, 62, 53
5, 50400, Note_on_c, 3, 55, 50
5, 50482, Note_on_c, 3, 62, 0
5, 50494, Note_on_c, 3, 55, 0
5, 50640, Note_on_c, 3, 60, 68
5, 50640, Note_on_c, 3, 56, 59
5, 51024, Note_on_c, 3, 56, 0
5, 51024, Note_on_c, 3, 60, 0
5, 51120, Note_on_c, 3, 60, 60
5, 51120, Note_on_c, 3, 56, 53
5, 51228, Note_on_c, 3, 56, 0
5, 51228, Note_on_c, 3, 60, 0
5, 51360, Note_on_c, 3, 60, 65
5, 51360, Note_on_c, 3, 56, 58
5, 51468, Note_on_c, 3, 56, 0
5, 51468, Note_on_c, 3, 60, 0
5, 51600, Note_on_c, 3, 62, 73
5, 51600, Note_on_c, 3, 53, 55
5, 52032, Note_on_c, 3, 53, 0
5, 52032, Note_on_c, 3, 62, 0
5, 52080, Note_on_c, 3, 62, 65
5, 52080, Note_on_c, 3, 53, 49
5, 52188, Note_on_c, 3, 53, 0
5, 52188, Note_on_c, 3, 62, 0
5, 52320, Note_on_c, 3, 62, 61
5, 52320, Note_on_c, 3, 53, 47
5, 52428, Note_on_c, 3, 53, 0
5, 52428, Note_on_c, 3, 62, 0
5, 52560, Note_on_c, 3, 63, 76
5, 52560, Note_on_c, 3, 55, 59
5, 52668, Note_on_c, 3, 55, 0
5, 52668, Note_on_c, 3, 63, 0
5, 53400, Note_on_c, 3, 63, 56
5, 53400, Note_on_c, 3, 55, 56
5, 53460, Note_on_c, 3, 55, 0
5, 53460, Note_on_c, 3, 63, 0
5, 53460, Note_on_c, 3, 65, 56
5, 53460, Note_on_c, 3, 56, 56
5, 53520, Note_on_c, 3, 56, 0
5, 53520, Note_on_c, 3, 65, 0
5, 53520, Note_on_c, 3, 63, 47
5, 53520, Note_on_c, 3, 51, 38
5, 53732, Note_on_c, 3, 63, 0
5, 53760, Note_on_c, 3, 51, 0
5, 54000, Note_on_c, 3, 63, 45
5, 54000, Note_on_c, 3, 51, 35
5, 54062, Note_on_c, 3, 63, 0
5, 54082, Note_on_c, 3, 51, 0
5, 54240, Note_on_c, 3, 63, 44
5, 54240, Note_on_c, 3, 51, 38
5, 54300, Note_on_c, 3, 51, 0
5, 54300, Note_on_c, 3, 63, 0
5, 54480, Note_on_c, 3, 62, 48
5, 54480, Note_on_c, 3, 53, 36
5, 54722, Note_on_c, 3, 62, 0
5, 54750, Note_on_c, 3, 53, 0
5, 54960, Note_on_c, 3, 62, 46
5, 54960, Note_on_c, 3, 53, 35
5, 55034, Note_on_c, 3, 62, 0
5, 55040, Note_on_c, 3, 53, 0
5, 55200, Note_on_c, 3, 62, 42
5, 55200, Note_on_c, 3, 53, 32
5, 55264, Note_on_c, 3, 62, 0
5, 55274, Note_on_c, 3, 53, 0
5, 55440, Note_on_c, 3, 65, 48
5, 55440, Note_on_c, 3, 53, 37
5, 55640, Note_on_c, 3, 65, 0
5, 55680, Note_on_c, 3, 63, 57
5, 55712, Note_on_c, 3, 53, 0
5, 55766, Note_on_c, 3, 63, 0
5, 55920, Note_on_c, 3, 60, 48
5, 55920, Note_on_c, 3, 53, 37
5, 55980, Note_on_c, 3, 60, 0
5, 56002, Note_on_c, 3, 53, 0
5, 56160, Note_on_c, 3, 57, 31
5, 56160, Note_on_c, 3, 53, 39
5, 56214, Note_on_c, 3, 57, 0
5, 56230, Note_on_c, 3, 53, 0
5, 56400, Note_on_c, 3, 58, 33
5, 56400, Note_on_c, 3, 46, 33
5, 61140, Note_on_c, 3, 46, 0
5, 61140, Note_on_c, 3, 58, 0
5, 61200, Note_on_c, 3, 55, 39
5, 61200, Note_on_c, 3, 51, 38
5, 61614, Note_on_c, 3, 55, 0
5, 61632, Note_on_c, 3, 51, 0
5, 61680, Note_on_c, 3, 58, 36
5, 61680, Note_on_c, 3, 55, 25
5, 62130, Note_on_c, 3, 58, 0
5, 62160, Note_on_c, 3, 56, 32
5, 62160, Note_on_c, 3, 53, 33
5, 62176, Note_on_c, 3, 55, 0
5, 62520, Note_on_c, 3, 53, 0
5, 62640, Note_on_c, 3, 56, 0
5, 62640, Note_on_c, 3, 53, 34
5, 62640, Note_on_c, 3, 46, 29
5, 63002, Note_on_c, 3, 53, 0
5, 63120, Note_on_c, 3, 55, 35
5, 63120, Note_on_c, 3, 51, 36
5, 63136, Note_on_c, 3, 46, 0
5, 63436, Note_on_c, 3, 51, 0
5, 63600, Note_on_c, 3, 51, 33
5, 63600, Note_on_c, 3, 43, 26
5, 63612, Note_on_c, 3, 55, 0
5, 63910, Note_on_c, 3, 43, 0
5, 64080, Note_on_c, 3, 53, 34
5, 64080, Note_on_c, 3, 46, 29
5, 64102, Note_on_c, 3, 51, 0
5, 64410, Note_on_c, 3, 46, 0
5, 64520, Note_on_c, 3, 53, 0
5, 64560, Note_on_c, 3, 46, 46
5, 64852, Note_on_c, 3, 46, 0
5, 65040, Note_on_c, 3, 55, 52
5, 65520, Note_on_c, 3, 58, 65
5, 65546, Note_on_c, 3, 55, 0
5, 66000, Note_on_c, 3, 58, 0
5, 66000, Note_on_c, 3, 56, 52
5, 66480, Note_on_c, 3, 53, 65
5, 66506, Note_on_c, 3, 56, 0
5, 66960, Note_on_c, 3, 53, 0
5, 66960, Note_on_c, 3, 55, 68
5, 67440, Note_on_c, 3, 51, 67
5, 67450, Note_on_c, 3, 55, 0
5, 67920, Note_on_c, 3, 53, 55
5, 67932, Note_on_c, 3, 51, 0
5, 68400, Note_on_c, 3, 46, 39
5, 68410, Note_on_c, 3, 53, 0
5, 68850, Note_on_c, 3, 46, 0
5, 68880, Note_on_c, 3, 55, 63
5, 69330, Note_on_c, 3, 55, 0
5, 69360, Note_on_c, 3, 58, 49
5, 69810, Note_on_c, 3, 58, 0
5, 69840, Note_on_c, 3, 56, 50
5, 70294, Note_on_c, 3, 56, 0
5, 70320, Note_on_c, 3, 53, 58
5, 70800, Note_on_c, 3, 55, 61
5, 70836, Note_on_c, 3, 53, 0
5, 71280, Note_on_c, 3, 58, 58
5, 71302, Note_on_c, 3, 55, 0
5, 71760, Note_on_c, 3, 60, 60
5, 71774, Note_on_c, 3, 58, 0
5, 72240, Note_on_c, 3, 56, 56
5, 72242, Note_on_c, 3, 60, 0
5, 72720, Note_on_c, 3, 58, 56
5, 72722, Note_on_c, 3, 56, 0
5, 73200, Note_on_c, 3, 62, 61
5, 73256, Note_on_c, 3, 58, 0
5, 73656, Note_on_c, 3, 62, 0
5, 73680, Note_on_c, 3, 63, 67
5, 74160, Note_on_c, 3, 60, 68
5, 74160, Note_on_c, 3, 44, 70
5, 74200, Note_on_c, 3, 63, 0
5, 74284, Note_on_c, 3, 44, 0
5, 74640, Note_on_c, 3, 62, 75
5, 74640, Note_on_c, 3, 46, 61
5, 74644, Note_on_c, 3, 60, 0
5, 74694, Note_on_c, 3, 46, 0
5, 75120, Note_on_c, 3, 65, 47
5, 75120, Note_on_c, 3, 50, 68
5, 75122, Note_on_c, 3, 62, 0
5, 75246, Note_on_c, 3, 50, 0
5, 75600, Note_on_c, 3, 67, 51
5, 75600, Note_on_c, 3, 51, 68
5, 75642, Note_on_c, 3, 65, 0
5, 75654, Note_on_c, 3, 51, 0
5, 75960, Note_on_c, 3, 63, 67
5, 75960, Note_on_c, 3, 46, 63
5, 76056, Note_on_c, 3, 67, 0
5, 76062, Note_on_c, 3, 46, 0
5, 76464, Note_on_c, 3, 63, 0
5, 76560, Note_on_c, 3, 67, 66
5, 76560, Note_on_c, 3, 52, 67
5, 76646, Note_on_c, 3, 52, 0
5, 76994, Note_on_c, 3, 67, 0
5, 77040, Note_on_c, 3, 64, 56
5, 77040, Note_on_c, 3, 46, 56
5, 77122, Note_on_c, 3, 46, 0
5, 77400, Note_on_c, 3, 68, 62
5, 77456, Note_on_c, 3, 64, 0
5, 77520, Note_on_c, 3, 53, 55
5, 77604, Note_on_c, 3, 53, 0
5, 78000, Note_on_c, 3, 65, 73
5, 78000, Note_on_c, 3, 46, 56
5, 78060, Note_on_c, 3, 68, 0
5, 78084, Note_on_c, 3, 46, 0
5, 78386, Note_on_c, 3, 65, 0
5, 78480, Note_on_c, 3, 65, 69
5, 78480, Note_on_c, 3, 53, 68
5, 78612, Note_on_c, 3, 53, 0
5, 78960, Note_on_c, 3, 62, 67
5, 78960, Note_on_c, 3, 46, 58
5, 78986, Note_on_c, 3, 65, 0
5, 79062, Note_on_c, 3, 46, 0
5, 79266, Note_on_c, 3, 62, 0
5, 79440, Note_on_c, 3, 68, 61
5, 79440, Note_on_c, 3, 53, 57
5, 79540, Note_on_c, 3, 53, 0
5, 79920, Note_on_c, 3, 65, 70
5, 79920, Note_on_c, 3, 46, 50
5, 79970, Note_on_c, 3, 68, 0
5, 79996, Note_on_c, 3, 46, 0
5, 80260, Note_on_c, 3, 65, 0
5, 80400, Note_on_c, 3, 65, 69
5, 80400, Note_on_c, 3, 58, 42
5, 80484, Note_on_c, 3, 58, 0
5, 80760, Note_on_c, 3, 46, 63
5, 80822, Note_on_c, 3, 65, 0
5, 80866, Note_on_c, 3, 46, 0
5, 80880, Note_on_c, 3, 62, 65
5, 81166, Note_on_c, 3, 62, 0
5, 81240, Note_on_c, 3, 65, 71
5, 81240, Note_on_c, 3, 62, 73
5, 81304, Note_on_c, 3, 65, 0
5, 81320, Note_on_c, 3, 62, 0
5, 81600, Note_on_c, 3, 65, 68
5, 81600, Note_on_c, 3, 62, 68
5, 82050, Note_on_c, 3, 62, 0
5, 82050, Note_on_c, 3, 65, 0
5, 82080, Note_on_c, 3, 65, 65
5, 82080, Note_on_c, 3, 62, 64
5, 82350, Note_on_c, 3, 65, 0
5, 82352, Note_on_c, 3, 62, 0
5, 82560, Note_on_c, 3, 65, 67
5, 82560, Note_on_c, 3, 62, 66
5, 82870, Note_on_c, 3, 62, 0
5, 82874, Note_on_c, 3, 65, 0
5, 83040, Note_on_c, 3, 65, 72
5, 83040, Note_on_c, 3, 62, 71
5, 83324, Note_on_c, 3, 62, 0
5, 83326, Note_on_c, 3, 65, 0
5, 83520, Note_on_c, 3, 65, 75
5, 83520, Note_on_c, 3, 62, 72
5, 83844, Note_on_c, 3, 62, 0
5, 83844, Note_on_c, 3, 65, 0
5, 84000, Note_on_c, 3, 65, 72
5, 84000, Note_on_c, 3, 62, 73
5, 84320, Note_on_c, 3, 65, 0
5, 84322, Note_on_c, 3, 62, 0
5, 84480, Note_on_c, 3, 65, 73
5, 84480, Note_on_c, 3, 62, 70
5, 84774, Note_on_c, 3, 65, 0
5, 84776, Note_on_c, 3, 62, 0
5, 84960, Note_on_c, 3, 65, 72
5, 84960, Note_on_c, 3, 62, 74
5, 85056, Note_on_c, 3, 65, 0
5, 85072, Note_on_c, 3, 62, 0
5, 85200, Note_on_c, 3, 67, 77
5, 85200, Note_on_c, 3, 63, 93
5, 85276, Note_on_c, 3, 67, 0
5, 85286, Note_on_c, 3, 63, 0
5, 85440, Note_on_c, 3, 63, 119
5, 85440, Note_on_c, 3, 55, 70
5, 85560, Note_on_c, 3, 67, 66
5, 85690, Note_on_c, 3, 63, 0
5, 85724, Note_on_c, 3, 55, 0
5, 85820, Note_on_c, 3, 67, 0
5, 85920, Note_on_c, 3, 63, 95
5, 85920, Note_on_c, 3, 58, 89
5, 85994, Note_on_c, 3, 58, 0
5, 86006, Note_on_c, 3, 63, 0
5, 86160, Note_on_c, 3, 58, 77
5, 86160, Note_on_c, 3, 55, 65
5, 86910, Note_on_c, 3, 58, 0
5, 86946, Note_on_c, 3, 55, 0
5, 87120, Note_on_c, 3, 67, 86
5, 87120, Note_on_c, 3, 63, 87
5, 87196, Note_on_c, 3, 67, 0
5, 87202, Note_on_c, 3, 63, 0
5, 87360, Note_on_c, 3, 67, 86
5, 87360, Note_on_c, 3, 58, 81
5, 87644, Note_on_c, 3, 67, 0
5, 87650, Note_on_c, 3, 58, 0
5, 87840, Note_on_c, 3, 63, 79
5, 87840, Note_on_c, 3, 55, 64
5, 87920, Note_on_c, 3, 55, 0
5, 87922, Note_on_c, 3, 63, 0
5, 88080, Note_on_c, 3, 58, 63
5, 88080, Note_on_c, 3, 55, 64
5, 88530, Note_on_c, 3, 55, 0
5, 88530, Note_on_c, 3, 58, 0
5, 88920, Note_on_c, 3, 63, 80
5, 88920, Note_on_c, 3, 55, 80
5, 88968, Note_on_c, 3, 55, 0
5, 88968, Note_on_c, 3, 63, 0
5, 88980, Note_on_c, 3, 65, 80
5, 88980, Note_on_c, 3, 56, 80
5, 89028, Note_on_c, 3, 56, 0
5, 89028, Note_on_c, 3, 65, 0
5, 89040, Note_on_c, 3, 58, 93
5, 89040, Note_on_c, 3, 67, 84
5, 89342, Note_on_c, 3, 58, 0
5, 89352, Note_on_c, 3, 67, 0
5, 89520, Note_on_c, 3, 63, 81
5, 89520, Note_on_c, 3, 55, 70
5, 89580, Note_on_c, 3, 63, 0
5, 89610, Note_on_c, 3, 55, 0
5, 89760, Note_on_c, 3, 55, 74
5, 89760, Note_on_c, 3, 62, 73
5, 89844, Note_on_c, 3, 62, 0
5, 89844, Note_on_c, 3, 55, 0
5, 90000, Note_on_c, 3, 60, 84
5, 90000, Note_on_c, 3, 56, 82
5, 90450, Note_on_c, 3, 56, 0
5, 90450, Note_on_c, 3, 60, 0
5, 90480, Note_on_c, 3, 56, 80
5, 90480, Note_on_c, 3, 60, 80
5, 90672, Note_on_c, 3, 60, 0
5, 90672, Note_on_c, 3, 56, 0
5, 90720, Note_on_c, 3, 56, 80
5, 90720, Note_on_c, 3, 60, 80
5, 90912, Note_on_c, 3, 60, 0
5, 90912, Note_on_c, 3, 56, 0
5, 90960, Note_on_c, 3, 62, 90
5, 90960, Note_on_c, 3, 53, 81
5, 91260, Note_on_c, 3, 62, 0
5, 91264, Note_on_c, 3, 53, 0
5, 91440, Note_on_c, 3, 62, 90
5, 91440, Note_on_c, 3, 53, 77
5, 91520, Note_on_c, 3, 62, 0
5, 91530, Note_on_c, 3, 53, 0
5, 91680, Note_on_c, 3, 53, 73
5, 91680, Note_on_c, 3, 62, 90
5, 91762, Note_on_c, 3, 62, 0
5, 91772, Note_on_c, 3, 53, 0
5, 91920, Note_on_c, 3, 55, 73
5, 91920, Note_on_c, 3, 63, 99
5, 92202, Note_on_c, 3, 63, 0
5, 92232, Note_on_c, 3, 55, 0
5, 92760, Note_on_c, 3, 63, 80
5, 92760, Note_on_c, 3, 55, 80
5, 92808, Note_on_c, 3, 55, 0
5, 92808, Note_on_c, 3, 63, 0
5, 92820, Note_on_c, 3, 65, 80
5, 92820, Note_on_c, 3, 56, 80
5, 92868, Note_on_c, 3, 56, 0
5, 92868, Note_on_c, 3, 65, 0
5, 92880, Note_on_c, 3, 58, 93
5, 92880, Note_on_c, 3, 67, 84
5, 93182, Note_on_c, 3, 58, 0
5, 93192, Note_on_c, 3, 67, 0
5, 93360, Note_on_c, 3, 63, 81
5, 93360, Note_on_c, 3, 55, 70
5, 93420, Note_on_c, 3, 63, 0
5, 93450, Note_on_c, 3, 55, 0
5, 93600, Note_on_c, 3, 55, 74
5, 93600, Note_on_c, 3, 62, 73
5, 93684, Note_on_c, 3, 62, 0
5, 93684, Note_on_c, 3, 55, 0
5, 93840, Note_on_c, 3, 56, 82
5, 93840, Note_on_c, 3, 60, 84
5, 94290, Note_on_c, 3, 60, 0
5, 94290, Note_on_c, 3, 56, 0
5, 94320, Note_on_c, 3, 56, 80
5, 94320, Note_on_c, 3, 60, 80
5, 94512, Note_on_c, 3, 60, 0
5, 94512, Note_on_c, 3, 56, 0
5, 94560, Note_on_c, 3, 56, 80
5, 94560, Note_on_c, 3, 60, 80
5, 94752, Note_on_c, 3, 60, 0
5, 94752, Note_on_c, 3, 56, 0
5, 95280, Note_on_c, 3, 62, 77
5, 95280, Note_on_c, 3, 53, 66
5, 95370, Note_on_c, 3, 62, 0
5, 95380, Note_on_c, 3, 53, 0
5, 95520, Note_on_c, 3, 53, 67
5, 95520, Note_on_c, 3, 62, 77
5, 95612, Note_on_c, 3, 62, 0
5, 95620, Note_on_c, 3, 53, 0
5, 95760, Note_on_c, 3, 63, 76
5, 98160, Note_on_c, 3, 63, 0
5, 98160, Note_on_c, 3, 64, 76
5, 98640, Note_on_c, 3, 64, 0
5, 98640, Note_on_c, 3, 65, 55
5, 99120, Note_on_c, 3, 65, 0
5, 99600, Note_on_c, 3, 65, 76
5, 102000, Note_on_c, 3, 65, 0
5, 102000, Note_on_c, 3, 66, 76
5, 102480, Note_on_c, 3, 66, 0
5, 102480, Note_on_c, 3, 67, 55
5, 102960, Note_on_c, 3, 67, 0
5, 103440, Note_on_c, 3, 55, 55
5, 103440, Note_on_c, 3, 67, 61
5, 104292, Note_on_c, 3, 55, 0
5, 104330, Note_on_c, 3, 67, 0
5, 104400, Note_on_c, 3, 63, 59
5, 104400, Note_on_c, 3, 51, 59
5, 105184, Note_on_c, 3, 63, 0
5, 105216, Note_on_c, 3, 51, 0
5, 105360, Note_on_c, 3, 48, 35
5, 105360, Note_on_c, 3, 60, 60
5, 106140, Note_on_c, 3, 60, 0
5, 106202, Note_on_c, 3, 48, 0
5, 106320, Note_on_c, 3, 57, 53
5, 106320, Note_on_c, 3, 45, 49
5, 107084, Note_on_c, 3, 45, 0
5, 107102, Note_on_c, 3, 57, 0
5, 107280, Note_on_c, 3, 58, 56
5, 107280, Note_on_c, 3, 46, 56
5, 107674, Note_on_c, 3, 46, 0
5, 107674, Note_on_c, 3, 58, 0
5, 109440, Note_on_c, 3, 58, 71
5, 109516, Note_on_c, 3, 58, 0
5, 109680, Note_on_c, 3, 58, 73
5, 109754, Note_on_c, 3, 58, 0
5, 109920, Note_on_c, 3, 58, 72
5, 110002, Note_on_c, 3, 58, 0
5, 110160, Note_on_c, 3, 60, 98
5, 110396, Note_on_c, 3, 60, 0
5, 110400, Note_on_c, 3, 58, 84
5, 110484, Note_on_c, 3, 58, 0
5, 110640, Note_on_c, 3, 55, 66
5, 110734, Note_on_c, 3, 55, 0
5, 110880, Note_on_c, 3, 51, 97
5, 110952, Note_on_c, 3, 51, 0
5, 111120, Note_on_c, 3, 46, 87
5, 111360, Note_on_c, 3, 46, 0
5, 111600, Note_on_c, 3, 46, 74
5, 111876, Note_on_c, 3, 46, 0
5, 112080, Note_on_c, 3, 51, 83
5, 112360, Note_on_c, 3, 51, 0
5, 112560, Note_on_c, 3, 51, 87
5, 112852, Note_on_c, 3, 51, 0
5, 113040, Note_on_c, 3, 46, 70
5, 113090, Note_on_c, 3, 46, 0
5, 113280, Note_on_c, 3, 58, 110
5, 113354, Note_on_c, 3, 58, 0
5, 113520, Note_on_c, 3, 58, 93
5, 113746, Note_on_c, 3, 58, 0
5, 113760, Note_on_c, 3, 58, 93
5, 113986, Note_on_c, 3, 58, 0
5, 114000, Note_on_c, 3, 60, 92
5, 114226, Note_on_c, 3, 60, 0
5, 114240, Note_on_c, 3, 58, 95
5, 114466, Note_on_c, 3, 58, 0
5, 114480, Note_on_c, 3, 55, 64
5, 114706, Note_on_c, 3, 55, 0
5, 114720, Note_on_c, 3, 51, 101
5, 114784, Note_on_c, 3, 51, 0
5, 114960, Note_on_c, 3, 46, 101
5, 115082, Note_on_c, 3, 46, 0
5, 115360, Control_c, 3, 7, 100
5, 115368, Control_c, 3, 7, 100
5, 115376, Control_c, 3, 7, 100
5, 115384, Control_c, 3, 7, 100
5, 115392, Control_c, 3, 7, 100
5, 115400, Control_c, 3, 7, 100
5, 115408, Control_c, 3, 7, 100
5, 115416, Control_c, 3, 7, 100
5, 115424, Control_c, 3, 7, 101
5, 115432, Control_c, 3, 7, 101
5, 115440, Control_c, 3, 7, 101
5, 115440, Note_on_c, 3, 62, 40
5, 115440, Note_on_c, 3, 50, 40
5, 115448, Control_c, 3, 7, 101
5, 115456, Control_c, 3, 7, 101
5, 115464, Control_c, 3, 7, 100
5, 115472, Control_c, 3, 7, 100
5, 115480, Control_c, 3, 7, 100
5, 115488, Control_c, 3, 7, 100
5, 115496, Control_c, 3, 7, 100
5, 115504, Control_c, 3, 7, 100
5, 115512, Control_c, 3, 7, 100
5, 115520, Control_c, 3, 7, 100
5, 115528, Control_c, 3, 7, 99
5, 115536, Control_c, 3, 7, 99
5, 115544, Control_c, 3, 7, 98
5, 115552, Control_c, 3, 7, 98
5, 115560, Control_c, 3, 7, 98
5, 115568, Control_c, 3, 7, 98
5, 115576, Control_c, 3, 7, 98
5, 115584, Control_c, 3, 7, 99
5, 115592, Control_c, 3, 7, 99
5, 115600, Control_c, 3, 7, 99
5, 115608, Control_c, 3, 7, 99
5, 115616, Control_c, 3, 7, 99
5, 115624, Control_c, 3, 7, 99
5, 115632, Control_c, 3, 7, 99
5, 115640, Control_c, 3, 7, 99
5, 115648, Control_c, 3, 7, 99
5, 115656, Control_c, 3, 7, 100
5, 115664, Control_c, 3, 7, 100
5, 115672, Control_c, 3, 7, 100
5, 115680, Control_c, 3, 7, 100
5, 115688, Control_c, 3, 7, 100
5, 115696, Control_c, 3, 7, 98
5, 115704, Control_c, 3, 7, 98
5, 115712, Control_c, 3, 7, 97
5, 115720, Control_c, 3, 7, 97
5, 115728, Control_c, 3, 7, 97
5, 115736, Control_c, 3, 7, 97
5, 115744, Control_c, 3, 7, 97
5, 115752, Control_c, 3, 7, 97
5, 115760, Control_c, 3, 7, 97
5, 115768, Control_c, 3, 7, 96
5, 115776, Control_c, 3, 7, 96
5, 115784, Control_c, 3, 7, 96
5, 115792, Control_c, 3, 7, 96
5, 115800, Control_c, 3, 7, 96
5, 115808, Control_c, 3, 7, 96
5, 115816, Control_c, 3, 7, 96
5, 115824, Control_c, 3, 7, 96
5, 115832, Control_c, 3, 7, 96
5, 115840, Control_c, 3, 7, 95
5, 115848, Control_c, 3, 7, 95
5, 115856, Control_c, 3, 7, 96
5, 115864, Control_c, 3, 7, 96
5, 115872, Control_c, 3, 7, 95
5, 115880, Control_c, 3, 7, 94
5, 115888, Control_c, 3, 7, 94
5, 115896, Control_c, 3, 7, 94
5, 115904, Control_c, 3, 7, 94
5, 115912, Control_c, 3, 7, 94
5, 115920, Control_c, 3, 7, 94
5, 115928, Control_c, 3, 7, 93
5, 115936, Control_c, 3, 7, 93
5, 115944, Control_c, 3, 7, 93
5, 115952, Control_c, 3, 7, 93
5, 115960, Control_c, 3, 7, 93
5, 115968, Control_c, 3, 7, 93
5, 115976, Control_c, 3, 7, 93
5, 115984, Control_c, 3, 7, 93
5, 115992, Control_c, 3, 7, 93
5, 116000, Control_c, 3, 7, 93
5, 116008, Control_c, 3, 7, 93
5, 116016, Control_c, 3, 7, 92
5, 116024, Control_c, 3, 7, 91
5, 116032, Control_c, 3, 7, 92
5, 116040, Control_c, 3, 7, 92
5, 116048, Control_c, 3, 7, 92
5, 116056, Control_c, 3, 7, 92
5, 116064, Control_c, 3, 7, 91
5, 116072, Control_c, 3, 7, 91
5, 116080, Control_c, 3, 7, 91
5, 116088, Control_c, 3, 7, 91
5, 116096, Control_c, 3, 7, 91
5, 116104, Control_c, 3, 7, 90
5, 116112, Control_c, 3, 7, 91
5, 116120, Control_c, 3, 7, 89
5, 116128, Control_c, 3, 7, 89
5, 116136, Control_c, 3, 7, 89
5, 116144, Control_c, 3, 7, 88
5, 116152, Control_c, 3, 7, 88
5, 116160, Control_c, 3, 7, 88
5, 116168, Control_c, 3, 7, 88
5, 116176, Control_c, 3, 7, 88
5, 116184, Control_c, 3, 7, 88
5, 116192, Control_c, 3, 7, 88
5, 116200, Control_c, 3, 7, 88
5, 116208, Control_c, 3, 7, 88
5, 116216, Control_c, 3, 7, 89
5, 116224, Control_c, 3, 7, 89
5, 116232, Control_c, 3, 7, 89
5, 116240, Control_c, 3, 7, 89
5, 116248, Control_c, 3, 7, 89
5, 116256, Control_c, 3, 7, 89
5, 116264, Control_c, 3, 7, 89
5, 116272, Control_c, 3, 7, 89
5, 116280, Control_c, 3, 7, 89
5, 116288, Control_c, 3, 7, 89
5, 116296, Control_c, 3, 7, 89
5, 116304, Control_c, 3, 7, 89
5, 116312, Control_c, 3, 7, 89
5, 116320, Control_c, 3, 7, 89
5, 116328, Control_c, 3, 7, 88
5, 116336, Control_c, 3, 7, 88
5, 116344, Control_c, 3, 7, 88
5, 116352, Control_c, 3, 7, 88
5, 116360, Control_c, 3, 7, 88
5, 116368, Control_c, 3, 7, 89
5, 116376, Control_c, 3, 7, 89
5, 116384, Control_c, 3, 7, 89
5, 116392, Control_c, 3, 7, 89
5, 116400, Control_c, 3, 7, 89
5, 116408, Control_c, 3, 7, 88
5, 116416, Control_c, 3, 7, 87
5, 116424, Control_c, 3, 7, 86
5, 116432, Control_c, 3, 7, 86
5, 116440, Control_c, 3, 7, 86
5, 116448, Control_c, 3, 7, 86
5, 116456, Control_c, 3, 7, 86
5, 116464, Control_c, 3, 7, 86
5, 116472, Control_c, 3, 7, 86
5, 116480, Control_c, 3, 7, 86
5, 116488, Control_c, 3, 7, 86
5, 116496, Control_c, 3, 7, 86
5, 116504, Control_c, 3, 7, 85
5, 116512, Control_c, 3, 7, 84
5, 116520, Control_c, 3, 7, 83
5, 116528, Control_c, 3, 7, 82
5, 116536, Control_c, 3, 7, 81
5, 116544, Control_c, 3, 7, 81
5, 116552, Control_c, 3, 7, 81
5, 116560, Control_c, 3, 7, 81
5, 116568, Control_c, 3, 7, 81
5, 116576, Control_c, 3, 7, 81
5, 116584, Control_c, 3, 7, 81
5, 116592, Control_c, 3, 7, 81
5, 116600, Control_c, 3, 7, 81
5, 116608, Control_c, 3, 7, 80
5, 116616, Control_c, 3, 7, 80
5, 116624, Control_c, 3, 7, 80
5, 116632, Control_c, 3, 7, 80
5, 116640, Control_c, 3, 7, 80
5, 116648, Control_c, 3, 7, 80
5, 116656, Control_c, 3, 7, 80
5, 116664, Control_c, 3, 7, 80
5, 116672, Control_c, 3, 7, 80
5, 116680, Control_c, 3, 7, 80
5, 116688, Control_c, 3, 7, 80
5, 116696, Control_c, 3, 7, 80
5, 116704, Control_c, 3, 7, 80
5, 116712, Control_c, 3, 7, 80
5, 116720, Control_c, 3, 7, 80
5, 116728, Control_c, 3, 7, 80
5, 116736, Control_c, 3, 7, 80
5, 116744, Control_c, 3, 7, 80
5, 116752, Control_c, 3, 7, 80
5, 116760, Control_c, 3, 7, 80
5, 116768, Control_c, 3, 7, 80
5, 116776, Control_c, 3, 7, 80
5, 116784, Control_c, 3, 7, 80
5, 116792, Control_c, 3, 7, 80
5, 116800, Control_c, 3, 7, 80
5, 116808, Control_c, 3, 7, 80
5, 116816, Control_c, 3, 7, 80
5, 116824, Control_c, 3, 7, 80
5, 116832, Control_c, 3, 7, 80
5, 116840, Control_c, 3, 7, 80
5, 116848, Control_c, 3, 7, 80
5, 116856, Control_c, 3, 7, 80
5, 116864, Control_c, 3, 7, 80
5, 116872, Control_c, 3, 7, 80
5, 116880, Control_c, 3, 7, 80
5, 116888, Control_c, 3, 7, 80
5, 116896, Control_c, 3, 7, 80
5, 116904, Control_c, 3, 7, 80
5, 116912, Control_c, 3, 7, 80
5, 116920, Control_c, 3, 7, 80
5, 116928, Control_c, 3, 7, 80
5, 116936, Control_c, 3, 7, 80
5, 116944, Control_c, 3, 7, 80
5, 116952, Control_c, 3, 7, 80
5, 116960, Control_c, 3, 7, 80
5, 116968, Control_c, 3, 7, 80
5, 116976, Control_c, 3, 7, 80
5, 116984, Control_c, 3, 7, 79
5, 116992, Control_c, 3, 7, 79
5, 117000, Control_c, 3, 7, 78
5, 117008, Control_c, 3, 7, 78
5, 117016, Control_c, 3, 7, 77
5, 117024, Control_c, 3, 7, 77
5, 117032, Control_c, 3, 7, 76
5, 117040, Control_c, 3, 7, 76
5, 117048, Control_c, 3, 7, 75
5, 117056, Control_c, 3, 7, 74
5, 117064, Control_c, 3, 7, 74
5, 117072, Control_c, 3, 7, 74
5, 117080, Control_c, 3, 7, 74
5, 117088, Control_c, 3, 7, 74
5, 117096, Control_c, 3, 7, 74
5, 117104, Control_c, 3, 7, 69
5, 117112, Control_c, 3, 7, 69
5, 117120, Control_c, 3, 7, 69
5, 117128, Control_c, 3, 7, 69
5, 117136, Control_c, 3, 7, 69
5, 117144, Control_c, 3, 7, 69
5, 117152, Control_c, 3, 7, 67
5, 117160, Control_c, 3, 7, 67
5, 117168, Control_c, 3, 7, 67
5, 117176, Control_c, 3, 7, 67
5, 117184, Control_c, 3, 7, 67
5, 117192, Control_c, 3, 7, 68
5, 117200, Control_c, 3, 7, 68
5, 117208, Control_c, 3, 7, 68
5, 117216, Control_c, 3, 7, 68
5, 117224, Control_c, 3, 7, 68
5, 117232, Control_c, 3, 7, 68
5, 117240, Control_c, 3, 7, 68
5, 117248, Control_c, 3, 7, 68
5, 117256, Control_c, 3, 7, 68
5, 117264, Control_c, 3, 7, 68
5, 117272, Control_c, 3, 7, 68
5, 117280, Control_c, 3, 7, 68
5, 117288, Control_c, 3, 7, 68
5, 117296, Control_c, 3, 7, 68
5, 117304, Control_c, 3, 7, 67
5, 117312, Control_c, 3, 7, 67
5, 117320, Control_c, 3, 7, 67
5, 117328, Control_c, 3, 7, 67
5, 117336, Control_c, 3, 7, 67
5, 117344, Control_c, 3, 7, 66
5, 117352, Control_c, 3, 7, 66
5, 117360, Control_c, 3, 7, 66
5, 117368, Control_c, 3, 7, 66
5, 117376, Control_c, 3, 7, 66
5, 117384, Control_c, 3, 7, 65
5, 117392, Control_c, 3, 7, 65
5, 117400, Control_c, 3, 7, 65
5, 117408, Control_c, 3, 7, 65
5, 117416, Control_c, 3, 7, 65
5, 117424, Control_c, 3, 7, 65
5, 117432, Control_c, 3, 7, 64
5, 117440, Control_c, 3, 7, 59
5, 117448, Control_c, 3, 7, 59
5, 117456, Control_c, 3, 7, 59
5, 117464, Control_c, 3, 7, 59
5, 117472, Control_c, 3, 7, 59
5, 117480, Control_c, 3, 7, 59
5, 117488, Control_c, 3, 7, 59
5, 117496, Control_c, 3, 7, 59
5, 117504, Control_c, 3, 7, 59
5, 117512, Control_c, 3, 7, 60
5, 117520, Control_c, 3, 7, 60
5, 117528, Control_c, 3, 7, 60
5, 117536, Control_c, 3, 7, 60
5, 117544, Control_c, 3, 7, 60
5, 117552, Control_c, 3, 7, 60
5, 117560, Control_c, 3, 7, 60
5, 117568, Control_c, 3, 7, 60
5, 117576, Control_c, 3, 7, 60
5, 117584, Control_c, 3, 7, 59
5, 117592, Control_c, 3, 7, 60
5, 117600, Control_c, 3, 7, 60
5, 117608, Control_c, 3, 7, 59
5, 117616, Control_c, 3, 7, 59
5, 117624, Control_c, 3, 7, 59
5, 117632, Control_c, 3, 7, 59
5, 117640, Control_c, 3, 7, 59
5, 117648, Control_c, 3, 7, 57
5, 117656, Control_c, 3, 7, 56
5, 117664, Control_c, 3, 7, 51
5, 117672, Control_c, 3, 7, 51
5, 117680, Control_c, 3, 7, 51
5, 117688, Control_c, 3, 7, 51
5, 117696, Control_c, 3, 7, 51
5, 117704, Control_c, 3, 7, 51
5, 117712, Control_c, 3, 7, 51
5, 117720, Control_c, 3, 7, 51
5, 117728, Control_c, 3, 7, 51
5, 117736, Control_c, 3, 7, 50
5, 117744, Control_c, 3, 7, 49
5, 117752, Control_c, 3, 7, 48
5, 117760, Control_c, 3, 7, 48
5, 117768, Control_c, 3, 7, 48
5, 117776, Control_c, 3, 7, 48
5, 117784, Control_c, 3, 7, 48
5, 117792, Control_c, 3, 7, 47
5, 117800, Control_c, 3, 7, 48
5, 117808, Control_c, 3, 7, 47
5, 117816, Control_c, 3, 7, 47
5, 117824, Control_c, 3, 7, 47
5, 117832, Control_c, 3, 7, 47
5, 117840, Control_c, 3, 7, 47
5, 117848, Control_c, 3, 7, 47
5, 117856, Control_c, 3, 7, 46
5, 117864, Control_c, 3, 7, 46
5, 117872, Control_c, 3, 7, 46
5, 117880, Control_c, 3, 7, 46
5, 117888, Control_c, 3, 7, 46
5, 117896, Control_c, 3, 7, 46
5, 117904, Control_c, 3, 7, 46
5, 117912, Control_c, 3, 7, 46
5, 117920, Control_c, 3, 7, 46
5, 117928, Control_c, 3, 7, 46
5, 117936, Control_c, 3, 7, 46
5, 117944, Control_c, 3, 7, 46
5, 117952, Control_c, 3, 7, 46
5, 117960, Control_c, 3, 7, 46
5, 117968, Control_c, 3, 7, 46
5, 117976, Control_c, 3, 7, 46
5, 117984, Control_c, 3, 7, 46
5, 117992, Control_c, 3, 7, 46
5, 118000, Control_c, 3, 7, 46
5, 118008, Control_c, 3, 7, 46
5, 118016, Control_c, 3, 7, 46
5, 118024, Control_c, 3, 7, 46
5, 118032, Control_c, 3, 7, 46
5, 118040, Control_c, 3, 7, 46
5, 118048, Control_c, 3, 7, 45
5, 118056, Control_c, 3, 7, 44
5, 118064, Control_c, 3, 7, 42
5, 118072, Control_c, 3, 7, 42
5, 118080, Control_c, 3, 7, 42
5, 118088, Control_c, 3, 7, 42
5, 118096, Control_c, 3, 7, 42
5, 118104, Control_c, 3, 7, 42
5, 118112, Control_c, 3, 7, 41
5, 118120, Control_c, 3, 7, 41
5, 118128, Control_c, 3, 7, 39
5, 118136, Control_c, 3, 7, 39
5, 118144, Control_c, 3, 7, 39
5, 118152, Control_c, 3, 7, 39
5, 118160, Control_c, 3, 7, 39
5, 118168, Control_c, 3, 7, 39
5, 118176, Control_c, 3, 7, 39
5, 118184, Control_c, 3, 7, 39
5, 118192, Control_c, 3, 7, 39
5, 118200, Control_c, 3, 7, 39
5, 118208, Control_c, 3, 7, 39
5, 118216, Control_c, 3, 7, 39
5, 118224, Control_c, 3, 7, 39
5, 118232, Control_c, 3, 7, 40
5, 118240, Control_c, 3, 7, 40
5, 118248, Control_c, 3, 7, 39
5, 118256, Control_c, 3, 7, 37
5, 118264, Control_c, 3, 7, 36
5, 118272, Control_c, 3, 7, 36
5, 118280, Control_c, 3, 7, 35
5, 118288, Control_c, 3, 7, 35
5, 118296, Control_c, 3, 7, 35
5, 118304, Control_c, 3, 7, 35
5, 118312, Control_c, 3, 7, 35
5, 118320, Control_c, 3, 7, 34
5, 118328, Control_c, 3, 7, 34
5, 118336, Control_c, 3, 7, 33
5, 118344, Control_c, 3, 7, 33
5, 118352, Control_c, 3, 7, 33
5, 118360, Control_c, 3, 7, 33
5, 118368, Control_c, 3, 7, 33
5, 118376, Control_c, 3, 7, 33
5, 118384, Control_c, 3, 7, 34
5, 118392, Control_c, 3, 7, 29
5, 118400, Control_c, 3, 7, 29
5, 118408, Control_c, 3, 7, 29
5, 118416, Control_c, 3, 7, 28
5, 118424, Control_c, 3, 7, 28
5, 118432, Control_c, 3, 7, 28
5, 118440, Control_c, 3, 7, 28
5, 118448, Control_c, 3, 7, 28
5, 118456, Control_c, 3, 7, 27
5, 118464, Control_c, 3, 7, 28
5, 118472, Control_c, 3, 7, 27
5, 118480, Control_c, 3, 7, 26
5, 118488, Control_c, 3, 7, 25
5, 118496, Control_c, 3, 7, 25
5, 118504, Control_c, 3, 7, 25
5, 118512, Control_c, 3, 7, 25
5, 118520, Control_c, 3, 7, 25
5, 118528, Control_c, 3, 7, 22
5, 118536, Control_c, 3, 7, 23
5, 118544, Control_c, 3, 7, 23
5, 118552, Control_c, 3, 7, 21
5, 118560, Control_c, 3, 7, 21
5, 118568, Control_c, 3, 7, 20
5, 118576, Control_c, 3, 7, 19
5, 118584, Control_c, 3, 7, 18
5, 118592, Control_c, 3, 7, 18
5, 118600, Control_c, 3, 7, 18
5, 118608, Control_c, 3, 7, 18
5, 118616, Control_c, 3, 7, 18
5, 118624, Control_c, 3, 7, 17
5, 118632, Control_c, 3, 7, 17
5, 118640, Control_c, 3, 7, 17
5, 118648, Control_c, 3, 7, 17
5, 118656, Control_c, 3, 7, 17
5, 118664, Control_c, 3, 7, 16
5, 118672, Control_c, 3, 7, 15
5, 118680, Control_c, 3, 7, 14
5, 118688, Control_c, 3, 7, 14
5, 118696, Control_c, 3, 7, 10
5, 118704, Control_c, 3, 7, 9
5, 118712, Control_c, 3, 7, 8
5, 118720, Control_c, 3, 7, 8
5, 118728, Control_c, 3, 7, 8
5, 118736, Control_c, 3, 7, 3
5, 118744, Control_c, 3, 7, 2
5, 118752, Control_c, 3, 7, 3
5, 118760, Control_c, 3, 7, 1
5, 118768, Control_c, 3, 7, 0
5, 118776, Control_c, 3, 7, 0
5, 118782, Note_on_c, 3, 50, 0
5, 118782, Note_on_c, 3, 62, 0
5, 118784, Control_c, 3, 7, 0
5, 118792, Control_c, 3, 7, 0
5, 118800, Control_c, 3, 7, 0
5, 118808, Control_c, 3, 7, 0
5, 118816, Control_c, 3, 7, 0
5, 118824, Control_c, 3, 7, 0
5, 118832, Control_c, 3, 7, 0
5, 118840, Control_c, 3, 7, 0
5, 118848, Control_c, 3, 7, 0
5, 118856, Control_c, 3, 7, 0
5, 118864, Control_c, 3, 7, 0
5, 118872, Control_c, 3, 7, 0
5, 118880, Control_c, 3, 7, 0
5, 118888, Control_c, 3, 7, 0
5, 118896, Control_c, 3, 7, 0
5, 118904, Control_c, 3, 7, 0
5, 118912, Control_c, 3, 7, 0
5, 118920, Control_c, 3, 7, 0
5, 118928, Control_c, 3, 7, 0
5, 118936, Control_c, 3, 7, 0
5, 118944, Control_c, 3, 7, 0
5, 118952, Control_c, 3, 7, 0
5, 118960, Control_c, 3, 7, 0
5, 118968, Control_c, 3, 7, 0
5, 118976, Control_c, 3, 7, 0
5, 118984, Control_c, 3, 7, 0
5, 118992, Control_c, 3, 7, 0
5, 119000, Control_c, 3, 7, 0
5, 119008, Control_c, 3, 7, 0
5, 119016, Control_c, 3, 7, 0
5, 119024, Control_c, 3, 7, 0
5, 119032, Control_c, 3, 7, 0
5, 119040, Control_c, 3, 7, 0
5, 119048, Control_c, 3, 7, 7
5, 119056, Control_c, 3, 7, 7
5, 119064, Control_c, 3, 7, 7
5, 119072, Control_c, 3, 7, 7
5, 119080, Control_c, 3, 7, 7
5, 119088, Control_c, 3, 7, 8
5, 119096, Control_c, 3, 7, 13
5, 119104, Control_c, 3, 7, 13
5, 119112, Control_c, 3, 7, 16
5, 119120, Control_c, 3, 7, 28
5, 119128, Control_c, 3, 7, 29
5, 119136, Control_c, 3, 7, 40
5, 119144, Control_c, 3, 7, 45
5, 119152, Control_c, 3, 7, 45
5, 119160, Control_c, 3, 7, 50
5, 119168, Control_c, 3, 7, 57
5, 119176, Control_c, 3, 7, 57
5, 119184, Control_c, 3, 7, 57
5, 119192, Control_c, 3, 7, 57
5, 119200, Control_c, 3, 7, 57
5, 119208, Control_c, 3, 7, 61
5, 119216, Control_c, 3, 7, 64
5, 119224, Control_c, 3, 7, 65
5, 119232, Control_c, 3, 7, 66
5, 119240, Control_c, 3, 7, 67
5, 119248, Control_c, 3, 7, 68
5, 119256, Control_c, 3, 7, 69
5, 119264, Control_c, 3, 7, 76
5, 119272, Control_c, 3, 7, 76
5, 119280, Control_c, 3, 7, 76
5, 119288, Control_c, 3, 7, 76
5, 119296, Control_c, 3, 7, 76
5, 119304, Control_c, 3, 7, 85
5, 119312, Control_c, 3, 7, 88
5, 119320, Control_c, 3, 7, 89
5, 119328, Control_c, 3, 7, 90
5, 119336, Control_c, 3, 7, 91
5, 119344, Control_c, 3, 7, 100
5, 119352, Control_c, 3, 7, 102
5, 119360, Control_c, 3, 7, 102
5, 119368, Control_c, 3, 7, 102
5, 119376, Control_c, 3, 7, 102
5, 119384, Control_c, 3, 7, 102
5, 120720, Note_on_c, 3, 67, 60
5, 121488, Note_on_c, 3, 67, 0
5, 121680, Note_on_c, 3, 62, 60
5, 122448, Note_on_c, 3, 62, 0
5, 122640, Note_on_c, 3, 63, 56
5, 123120, Note_on_c, 3, 63, 0
5, 123120, Note_on_c, 3, 62, 55
5, 123600, Note_on_c, 3, 62, 0
5, 123600, Note_on_c, 3, 60, 51
5, 124080, Note_on_c, 3, 60, 0
5, 124080, Note_on_c, 3, 58, 43
5, 124560, Note_on_c, 3, 58, 0
5, 124560, Note_on_c, 3, 57, 45
5, 124930, Note_on_c, 3, 57, 0
5, 125040, Note_on_c, 3, 58, 50
5, 125322, Note_on_c, 3, 58, 0
5, 125520, Note_on_c, 3, 65, 41
5, 125800, Note_on_c, 3, 65, 0
5, 126000, Note_on_c, 3, 53, 38
5, 126112, Note_on_c, 3, 53, 0
5, 126480, Note_on_c, 3, 62, 46
5, 126480, Note_on_c, 3, 58, 33
5, 126714, Note_on_c, 3, 58, 0
5, 126720, Note_on_c, 3, 63, 33
5, 126720, Note_on_c, 3, 60, 35
5, 126750, Note_on_c, 3, 62, 0
5, 126816, Note_on_c, 3, 60, 0
5, 126846, Note_on_c, 3, 63, 0
5, 126960, Note_on_c, 3, 65, 42
5, 126960, Note_on_c, 3, 62, 45
5, 127026, Note_on_c, 3, 65, 0
5, 127032, Note_on_c, 3, 62, 0
5, 127200, Note_on_c, 3, 65, 42
5, 127200, Note_on_c, 3, 62, 46
5, 127264, Note_on_c, 3, 65, 0
5, 127270, Note_on_c, 3, 62, 0
5, 127440, Note_on_c, 3, 65, 49
5, 127440, Note_on_c, 3, 62, 48
5, 127680, Note_on_c, 3, 62, 0
5, 127680, Note_on_c, 3, 65, 0
5, 127680, Note_on_c, 3, 63, 45
5, 127680, Note_on_c, 3, 60, 34
5, 127920, Note_on_c, 3, 60, 0
5, 127920, Note_on_c, 3, 63, 0
5, 127920, Note_on_c, 3, 62, 43
5, 127920, Note_on_c, 3, 58, 35
5, 128160, Note_on_c, 3, 58, 0
5, 128160, Note_on_c, 3, 62, 0
5, 128160, Note_on_c, 3, 60, 41
5, 128160, Note_on_c, 3, 57, 32
5, 128400, Note_on_c, 3, 57, 0
5, 128400, Note_on_c, 3, 60, 0
5, 128400, Note_on_c, 3, 58, 39
5, 128400, Note_on_c, 3, 55, 40
5, 128640, Note_on_c, 3, 55, 0
5, 128640, Note_on_c, 3, 58, 0
5, 128640, Note_on_c, 3, 60, 42
5, 128640, Note_on_c, 3, 57, 38
5, 128880, Note_on_c, 3, 57, 0
5, 128880, Note_on_c, 3, 60, 0
5, 128880, Note_on_c, 3, 62, 47
5, 128880, Note_on_c, 3, 58, 40
5, 128940, Note_on_c, 3, 58, 0
5, 128952, Note_on_c, 3, 62, 0
5, 129120, Note_on_c, 3, 62, 42
5, 129120, Note_on_c, 3, 58, 38
5, 129172, Note_on_c, 3, 62, 0
5, 129192, Note_on_c, 3, 58, 0
5, 129360, Note_on_c, 3, 62, 57
5, 129360, Note_on_c, 3, 58, 54
5, 129600, Note_on_c, 3, 60, 39
5, 129600, Note_on_c, 3, 57, 34
5, 129610, Note_on_c, 3, 62, 0
5, 129612, Note_on_c, 3, 58, 0
5, 129840, Note_on_c, 3, 60, 0
5, 129840, Note_on_c, 3, 57, 0
5, 129840, Note_on_c, 3, 58, 40
5, 129840, Note_on_c, 3, 55, 38
5, 130080, Note_on_c, 3, 55, 0
5, 130080, Note_on_c, 3, 58, 0
5, 130080, Note_on_c, 3, 57, 36
5, 130080, Note_on_c, 3, 53, 37
5, 130320, Note_on_c, 3, 53, 0
5, 130320, Note_on_c, 3, 57, 0
5, 130320, Note_on_c, 3, 55, 39
5, 130320, Note_on_c, 3, 51, 39
5, 130560, Note_on_c, 3, 51, 0
5, 130560, Note_on_c, 3, 55, 0
5, 130560, Note_on_c, 3, 57, 44
5, 130560, Note_on_c, 3, 53, 44
5, 130800, Note_on_c, 3, 53, 0
5, 130800, Note_on_c, 3, 57, 0
5, 130800, Note_on_c, 3, 58, 50
5, 130800, Note_on_c, 3, 55, 50
5, 131040, Note_on_c, 3, 55, 0
5, 131040, Note_on_c, 3, 58, 0
5, 131040, Note_on_c, 3, 60, 55
5, 131040, Note_on_c, 3, 57, 55
5, 131280, Note_on_c, 3, 57, 0
5, 131280, Note_on_c, 3, 60, 0
5, 131280, Note_on_c, 3, 62, 60
5, 131280, Note_on_c, 3, 58, 60
5, 131520, Note_on_c, 3, 58, 0
5, 131520, Note_on_c, 3, 62, 0
5, 131520, Note_on_c, 3, 63, 65
5, 131520, Note_on_c, 3, 60, 65
5, 131760, Note_on_c, 3, 60, 0
5, 131760, Note_on_c, 3, 63, 0
5, 131760, Note_on_c, 3, 65, 70
5, 131760, Note_on_c, 3, 62, 70
5, 132000, Note_on_c, 3, 62, 0
5, 132000, Note_on_c, 3, 65, 0
5, 132000, Note_on_c, 3, 67, 76
5, 132000, Note_on_c, 3, 63, 76
5, 132094, Note_on_c, 3, 63, 0
5, 132140, Note_on_c, 3, 67, 0
5, 132240, Note_on_c, 3, 67, 42
5, 132240, Note_on_c, 3, 63, 43
5, 132432, Note_on_c, 3, 67, 0
5, 132464, Note_on_c, 3, 63, 0
5, 132480, Note_on_c, 3, 65, 44
5, 132480, Note_on_c, 3, 62, 44
5, 132594, Note_on_c, 3, 62, 0
5, 132594, Note_on_c, 3, 65, 0
5, 132720, Note_on_c, 3, 63, 54
5, 132720, Note_on_c, 3, 60, 31
5, 132804, Note_on_c, 3, 60, 0
5, 132804, Note_on_c, 3, 63, 0
5, 132960, Note_on_c, 3, 62, 45
5, 132960, Note_on_c, 3, 58, 42
5, 133036, Note_on_c, 3, 58, 0
5, 133046, Note_on_c, 3, 62, 0
5, 133200, Note_on_c, 3, 60, 32
5, 133200, Note_on_c, 3, 57, 28
5, 133506, Note_on_c, 3, 57, 0
5, 133532, Note_on_c, 3, 60, 0
5, 138000, Note_on_c, 3, 55, 49
5, 138000, Note_on_c, 3, 51, 49
5, 138240, Note_on_c, 3, 51, 0
5, 138240, Note_on_c, 3, 55, 0
5, 138240, Note_on_c, 3, 57, 54
5, 138240, Note_on_c, 3, 53, 54
5, 138480, Note_on_c, 3, 53, 0
5, 138480, Note_on_c, 3, 57, 0
5, 138480, Note_on_c, 3, 58, 59
5, 138480, Note_on_c, 3, 55, 59
5, 138720, Note_on_c, 3, 55, 0
5, 138720, Note_on_c, 3, 58, 0
5, 138720, Note_on_c, 3, 60, 65
5, 138720, Note_on_c, 3, 57, 65
5, 138960, Note_on_c, 3, 57, 0
5, 138960, Note_on_c, 3, 60, 0
5, 138960, Note_on_c, 3, 62, 70
5, 138960, Note_on_c, 3, 58, 70
5, 139200, Note_on_c, 3, 58, 0
5, 139200, Note_on_c, 3, 62, 0
5, 139200, Note_on_c, 3, 63, 75
5, 139200, Note_on_c, 3, 60, 75
5, 139440, Note_on_c, 3, 60, 0
5, 139440, Note_on_c, 3, 63, 0
5, 139440, Note_on_c, 3, 65, 81
5, 139440, Note_on_c, 3, 62, 81
5, 139680, Note_on_c, 3, 62, 0
5, 139680, Note_on_c, 3, 65, 0
5, 139680, Note_on_c, 3, 67, 86
5, 139680, Note_on_c, 3, 63, 86
5, 139832, Note_on_c, 3, 63, 0
5, 139840, Note_on_c, 3, 67, 0
5, 139920, Note_on_c, 3, 67, 58
5, 139920, Note_on_c, 3, 63, 58
5, 140122, Note_on_c, 3, 67, 0
5, 140152, Note_on_c, 3, 63, 0
5, 140160, Note_on_c, 3, 65, 50
5, 140160, Note_on_c, 3, 62, 56
5, 140236, Note_on_c, 3, 65, 0
5, 140244, Note_on_c, 3, 62, 0
5, 140400, Note_on_c, 3, 63, 70
5, 140400, Note_on_c, 3, 60, 50
5, 140476, Note_on_c, 3, 63, 0
5, 140486, Note_on_c, 3, 60, 0
5, 140640, Note_on_c, 3, 62, 54
5, 140640, Note_on_c, 3, 58, 63
5, 140706, Note_on_c, 3, 58, 0
5, 140726, Note_on_c, 3, 62, 0
5, 140880, Note_on_c, 3, 60, 45
5, 140880, Note_on_c, 3, 57, 38
5, 141072, Note_on_c, 3, 57, 0
5, 141082, Note_on_c, 3, 60, 0
5, 141840, Note_on_c, 3, 58, 113
5, 142642, Note_on_c, 3, 58, 0
5, 142800, Note_on_c, 3, 53, 80
5, 143584, Note_on_c, 3, 53, 0
5, 143760, Note_on_c, 3, 67, 95
5, 143760, Note_on_c, 3, 55, 86
5, 144660, Note_on_c, 3, 55, 0
5, 144660, Note_on_c, 3, 67, 0
5, 144720, Note_on_c, 3, 62, 104
5, 144720, Note_on_c, 3, 50, 92
5, 145620, Note_on_c, 3, 50, 0
5, 145620, Note_on_c, 3, 62, 0
5, 148080, Note_on_c, 3, 54, 84
5, 148156, Note_on_c, 3, 54, 0
5, 148320, Note_on_c, 3, 55, 66
5, 148420, Note_on_c, 3, 55, 0
5, 148560, Note_on_c, 3, 57, 100
5, 148640, Note_on_c, 3, 57, 0
5, 148800, Note_on_c, 3, 58, 83
5, 148850, Note_on_c, 3, 58, 0
5, 149040, Note_on_c, 3, 60, 85
5, 149116, Note_on_c, 3, 60, 0
5, 149280, Note_on_c, 3, 62, 106
5, 149354, Note_on_c, 3, 62, 0
5, 149520, Note_on_c, 3, 55, 70
5, 149854, Note_on_c, 3, 55, 0
5, 151920, Note_on_c, 3, 54, 64
5, 152000, Note_on_c, 3, 54, 0
5, 152160, Note_on_c, 3, 55, 72
5, 152264, Note_on_c, 3, 55, 0
5, 152400, Note_on_c, 3, 57, 68
5, 152484, Note_on_c, 3, 57, 0
5, 152640, Note_on_c, 3, 58, 71
5, 152706, Note_on_c, 3, 58, 0
5, 152880, Note_on_c, 3, 60, 76
5, 152970, Note_on_c, 3, 60, 0
5, 153120, Note_on_c, 3, 62, 66
5, 153184, Note_on_c, 3, 62, 0
5, 153360, Note_on_c, 3, 55, 64
5, 153762, Note_on_c, 3, 55, 0
5, 155280, Note_on_c, 3, 65, 56
5, 155280, Note_on_c, 3, 53, 47
5, 155500, Note_on_c, 3, 53, 0
5, 155502, Note_on_c, 3, 65, 0
5, 155760, Note_on_c, 3, 65, 76
5, 155760, Note_on_c, 3, 53, 68
5, 157552, Note_on_c, 3, 53, 0
5, 157560, Note_on_c, 3, 65, 0
5, 157680, Note_on_c, 3, 65, 94
5, 157680, Note_on_c, 3, 53, 81
5, 159600, Note_on_c, 3, 53, 0
5, 159600, Note_on_c, 3, 65, 0
5, 159600, Note_on_c, 3, 65, 80
5, 159600, Note_on_c, 3, 53, 80
5, 160980, Note_on_c, 3, 53, 0
5, 160980, Note_on_c, 3, 65, 0
5, 161040, Note_on_c, 3, 46, 82
5, 161490, Note_on_c, 3, 46, 0
5, 161520, Note_on_c, 3, 50, 80
5, 161760, Note_on_c, 3, 50, 0
5, 161760, Note_on_c, 3, 51, 80
5, 162000, Note_on_c, 3, 51, 0
5, 162000, Note_on_c, 3, 53, 80
5, 162480, Note_on_c, 3, 53, 0
5, 162480, Note_on_c, 3, 55, 80
5, 162960, Note_on_c, 3, 55, 0
5, 162960, Note_on_c, 3, 57, 80
5, 163440, Note_on_c, 3, 57, 0
5, 163440, Note_on_c, 3, 58, 80
5, 163920, Note_on_c, 3, 58, 0
5, 163920, Note_on_c, 3, 60, 80
5, 164400, Note_on_c, 3, 60, 0
5, 164400, Note_on_c, 3, 62, 80
5, 164784, Note_on_c, 3, 62, 0
5, 164880, Note_on_c, 3, 51, 63
5, 165360, Note_on_c, 3, 53, 61
5, 165372, Note_on_c, 3, 51, 0
5, 165840, Note_on_c, 3, 53, 0
5, 165840, Note_on_c, 3, 55, 61
5, 166320, Note_on_c, 3, 55, 0
5, 166320, Note_on_c, 3, 57, 48
5, 166704, Note_on_c, 3, 57, 0
5, 166800, Note_on_c, 3, 58, 60
5, 167280, Note_on_c, 3, 58, 0
5, 167280, Note_on_c, 3, 60, 59
5, 167760, Note_on_c, 3, 60, 0
5, 167760, Note_on_c, 3, 62, 73
5, 168240, Note_on_c, 3, 62, 0
5, 168240, Note_on_c, 3, 63, 68
5, 168590, Note_on_c, 3, 63, 0
5, 168720, Note_on_c, 3, 65, 72
5, 169200, Note_on_c, 3, 62, 79
5, 169204, Note_on_c, 3, 65, 0
5, 169680, Note_on_c, 3, 62, 0
5, 169680, Note_on_c, 3, 58, 61
5, 170160, Note_on_c, 3, 62, 74
5, 170176, Note_on_c, 3, 58, 0
5, 170404, Note_on_c, 3, 62, 0
5, 170640, Note_on_c, 3, 53, 68
5, 171120, Note_on_c, 3, 58, 67
5, 171154, Note_on_c, 3, 53, 0
5, 171600, Note_on_c, 3, 51, 67
5, 171612, Note_on_c, 3, 58, 0
5, 172080, Note_on_c, 3, 57, 67
5, 172134, Note_on_c, 3, 51, 0
5, 172534, Note_on_c, 3, 57, 0
5, 172560, Note_on_c, 3, 50, 77
5, 172792, Note_on_c, 3, 50, 0
5, 173040, Note_on_c, 3, 50, 76
5, 173262, Note_on_c, 3, 50, 0
5, 173280, Note_on_c, 3, 51, 73
5, 173520, Note_on_c, 3, 51, 0
5, 173520, Note_on_c, 3, 53, 66
5, 174000, Note_on_c, 3, 55, 54
5, 174012, Note_on_c, 3, 53, 0
5, 174480, Note_on_c, 3, 55, 0
5, 174480, Note_on_c, 3, 57, 70
5, 174960, Note_on_c, 3, 57, 0
5, 174960, Note_on_c, 3, 58, 65
5, 175440, Note_on_c, 3, 60, 44
5, 175472, Note_on_c, 3, 58, 0
5, 175920, Note_on_c, 3, 62, 60
5, 175954, Note_on_c, 3, 60, 0
5, 176184, Note_on_c, 3, 62, 0
5, 176400, Note_on_c, 3, 51, 81
5, 176880, Note_on_c, 3, 53, 60
5, 176904, Note_on_c, 3, 51, 0
5, 177360, Note_on_c, 3, 55, 54
5, 177366, Note_on_c, 3, 53, 0
5, 177840, Note_on_c, 3, 57, 50
5, 177882, Note_on_c, 3, 55, 0
5, 178320, Note_on_c, 3, 58, 46
5, 178376, Note_on_c, 3, 57, 0
5, 178800, Note_on_c, 3, 58, 0
5, 178800, Note_on_c, 3, 60, 57
5, 179280, Note_on_c, 3, 60, 0
5, 179280, Note_on_c, 3, 62, 70
5, 179760, Note_on_c, 3, 62, 0
5, 179760, Note_on_c, 3, 63, 59
5, 180210, Note_on_c, 3, 63, 0
5, 180240, Note_on_c, 3, 65, 72
5, 180712, Note_on_c, 3, 65, 0
5, 180720, Note_on_c, 3, 62, 68
5, 181200, Note_on_c, 3, 58, 54
5, 181236, Note_on_c, 3, 62, 0
5, 181662, Note_on_c, 3, 58, 0
5, 181680, Note_on_c, 3, 53, 51
5, 182160, Note_on_c, 3, 41, 73
5, 182210, Note_on_c, 3, 53, 0
5, 182640, Note_on_c, 3, 53, 66
5, 182674, Note_on_c, 3, 41, 0
5, 183120, Note_on_c, 3, 41, 76
5, 183156, Note_on_c, 3, 53, 0
5, 183600, Note_on_c, 3, 41, 0
5, 183600, Note_on_c, 3, 53, 72
5, 183990, Note_on_c, 3, 53, 0
5, 184080, Note_on_c, 3, 58, 61
5, 184080, Note_on_c, 3, 62, 85
5, 184236, Note_on_c, 3, 58, 0
5, 184280, Note_on_c, 3, 62, 0
5, 184560, Note_on_c, 3, 62, 95
5, 184560, Note_on_c, 3, 58, 52
5, 185040, Note_on_c, 3, 62, 0
5, 185040, Note_on_c, 3, 60, 61
5, 185040, Note_on_c, 3, 63, 71
5, 185050, Note_on_c, 3, 58, 0
5, 185230, Note_on_c, 3, 63, 0
5, 185242, Note_on_c, 3, 60, 0
5, 185520, Note_on_c, 3, 63, 105
5, 185520, Note_on_c, 3, 60, 64
5, 185972, Note_on_c, 3, 63, 0
5, 186000, Note_on_c, 3, 60, 0
5, 186000, Note_on_c, 3, 58, 58
5, 186000, Note_on_c, 3, 62, 60
5, 186162, Note_on_c, 3, 58, 0
5, 186174, Note_on_c, 3, 62, 0
5, 186480, Note_on_c, 3, 62, 93
5, 186480, Note_on_c, 3, 58, 58
5, 186960, Note_on_c, 3, 60, 68
5, 186960, Note_on_c, 3, 57, 51
5, 186964, Note_on_c, 3, 62, 0
5, 186972, Note_on_c, 3, 58, 0
5, 187102, Note_on_c, 3, 60, 0
5, 187124, Note_on_c, 3, 57, 0
5, 187440, Note_on_c, 3, 60, 94
5, 187440, Note_on_c, 3, 57, 63
5, 187912, Note_on_c, 3, 57, 0
5, 187920, Note_on_c, 3, 60, 0
5, 187920, Note_on_c, 3, 62, 73
5, 187920, Note_on_c, 3, 58, 53
5, 188080, Note_on_c, 3, 58, 0
5, 188100, Note_on_c, 3, 62, 0
5, 188400, Note_on_c, 3, 62, 99
5, 188400, Note_on_c, 3, 58, 60
5, 188880, Note_on_c, 3, 58, 0
5, 188880, Note_on_c, 3, 62, 0
5, 188880, Note_on_c, 3, 63, 77
5, 188880, Note_on_c, 3, 60, 60
5, 189044, Note_on_c, 3, 63, 0
5, 189070, Note_on_c, 3, 60, 0
5, 189360, Note_on_c, 3, 63, 99
5, 189360, Note_on_c, 3, 60, 58
5, 189790, Note_on_c, 3, 63, 0
5, 189840, Note_on_c, 3, 60, 0
5, 189840, Note_on_c, 3, 62, 74
5, 189840, Note_on_c, 3, 58, 67
5, 189980, Note_on_c, 3, 58, 0
5, 190004, Note_on_c, 3, 62, 0
5, 190320, Note_on_c, 3, 62, 85
5, 190320, Note_on_c, 3, 58, 55
5, 190800, Note_on_c, 3, 58, 0
5, 190800, Note_on_c, 3, 62, 0
5, 190800, Note_on_c, 3, 60, 74
5, 190800, Note_on_c, 3, 57, 55
5, 190840, Note_on_c, 3, 57, 0
5, 190904, Note_on_c, 3, 60, 0
5, 191280, Note_on_c, 3, 60, 89
5, 191280, Note_on_c, 3, 57, 54
5, 191760, Note_on_c, 3, 57, 0
5, 191760, Note_on_c, 3, 60, 0
5, 191760, Note_on_c, 3, 62, 68
5, 191760, Note_on_c, 3, 58, 48
5, 191760, Note_on_c, 3, 57, 54
5, 191786, Note_on_c, 3, 57, 0
5, 191840, Note_on_c, 3, 58, 0
5, 191852, Note_on_c, 3, 62, 0
5, 192000, Note_on_c, 3, 62, 76
5, 192000, Note_on_c, 3, 58, 58
5, 192320, Note_on_c, 3, 58, 0
5, 192330, Note_on_c, 3, 62, 0
5, 192480, Note_on_c, 3, 62, 85
5, 192480, Note_on_c, 3, 58, 64
5, 192786, Note_on_c, 3, 58, 0
5, 192804, Note_on_c, 3, 62, 0
5, 192960, Note_on_c, 3, 62, 78
5, 192960, Note_on_c, 3, 58, 57
5, 193222, Note_on_c, 3, 58, 0
5, 193254, Note_on_c, 3, 62, 0
5, 193440, Note_on_c, 3, 62, 74
5, 193440, Note_on_c, 3, 58, 56
5, 193742, Note_on_c, 3, 58, 0
5, 193760, Note_on_c, 3, 62, 0
5, 193920, Note_on_c, 3, 62, 74
5, 193920, Note_on_c, 3, 58, 56
5, 194224, Note_on_c, 3, 58, 0
5, 194250, Note_on_c, 3, 62, 0
5, 194400, Note_on_c, 3, 62, 80
5, 194400, Note_on_c, 3, 58, 61
5, 194710, Note_on_c, 3, 58, 0
5, 194742, Note_on_c, 3, 62, 0
5, 194880, Note_on_c, 3, 62, 84
5, 194880, Note_on_c, 3, 58, 67
5, 195170, Note_on_c, 3, 58, 0
5, 195190, Note_on_c, 3, 62, 0
5, 195360, Note_on_c, 3, 62, 75
5, 195360, Note_on_c, 3, 58, 56
5, 195692, Note_on_c, 3, 58, 0
5, 195716, Note_on_c, 3, 62, 0
5, 196080, Note_on_c, 3, 46, 78
5, 196314, Note_on_c, 3, 46, 0
5, 196560, Note_on_c, 3, 46, 97
5, 196792, Note_on_c, 3, 46, 0
5, 197040, Note_on_c, 3, 46, 104
5, 197270, Note_on_c, 3, 46, 0
5, 197520, Note_on_c, 3, 46, 99
5, 197944, Note_on_c, 3, 46, 0
5, 203988, Control_c, 3, 7, 101
5, 204000, Note_on_c, 3, 55, 71
5, 204000, Note_on_c, 3, 43, 71
5, 204028, Control_c, 3, 7, 100
5, 204068, Control_c, 3, 7, 99
5, 204108, Control_c, 3, 7, 98
5, 204148, Control_c, 3, 7, 97
5, 204188, Control_c, 3, 7, 96
5, 204228, Control_c, 3, 7, 95
5, 204268, Control_c, 3, 7, 94
5, 204296, Control_c, 3, 7, 93
5, 204336, Control_c, 3, 7, 92
5, 204376, Control_c, 3, 7, 91
5, 204416, Control_c, 3, 7, 90
5, 204456, Control_c, 3, 7, 89
5, 204496, Control_c, 3, 7, 88
5, 204536, Control_c, 3, 7, 87
5, 204564, Control_c, 3, 7, 86
5, 204604, Control_c, 3, 7, 85
5, 204644, Control_c, 3, 7, 84
5, 204684, Control_c, 3, 7, 83
5, 204724, Control_c, 3, 7, 82
5, 204764, Control_c, 3, 7, 81
5, 204804, Control_c, 3, 7, 80
5, 204828, Control_c, 3, 7, 79
5, 204868, Control_c, 3, 7, 78
5, 204908, Control_c, 3, 7, 77
5, 204948, Control_c, 3, 7, 76
5, 204988, Control_c, 3, 7, 75
5, 205028, Control_c, 3, 7, 74
5, 205068, Control_c, 3, 7, 73
5, 205096, Control_c, 3, 7, 72
5, 205136, Control_c, 3, 7, 71
5, 205176, Control_c, 3, 7, 70
5, 205216, Control_c, 3, 7, 69
5, 205256, Control_c, 3, 7, 68
5, 205296, Control_c, 3, 7, 67
5, 205336, Control_c, 3, 7, 66
5, 205376, Control_c, 3, 7, 65
5, 205404, Control_c, 3, 7, 64
5, 205444, Control_c, 3, 7, 63
5, 205484, Control_c, 3, 7, 62
5, 205524, Control_c, 3, 7, 61
5, 205564, Control_c, 3, 7, 60
5, 205604, Control_c, 3, 7, 59
5, 205644, Control_c, 3, 7, 58
5, 205668, Control_c, 3, 7, 57
5, 205708, Control_c, 3, 7, 56
5, 205748, Control_c, 3, 7, 55
5, 205788, Control_c, 3, 7, 54
5, 205828, Control_c, 3, 7, 53
5, 205868, Control_c, 3, 7, 52
5, 205908, Control_c, 3, 7, 51
5, 205936, Control_c, 3, 7, 50
5, 205976, Control_c, 3, 7, 49
5, 206016, Control_c, 3, 7, 48
5, 206056, Control_c, 3, 7, 47
5, 206096, Control_c, 3, 7, 46
5, 206136, Control_c, 3, 7, 45
5, 206176, Control_c, 3, 7, 44
5, 206204, Control_c, 3, 7, 43
5, 206244, Control_c, 3, 7, 42
5, 206284, Control_c, 3, 7, 41
5, 206324, Control_c, 3, 7, 40
5, 206364, Control_c, 3, 7, 39
5, 206404, Control_c, 3, 7, 38
5, 206444, Control_c, 3, 7, 37
5, 206468, Control_c, 3, 7, 36
5, 206508, Control_c, 3, 7, 35
5, 206548, Control_c, 3, 7, 34
5, 206588, Control_c, 3, 7, 33
5, 206628, Control_c, 3, 7, 32
5, 206668, Control_c, 3, 7, 31
5, 206708, Control_c, 3, 7, 30
5, 206748, Control_c, 3, 7, 29
5, 206776, Control_c, 3, 7, 28
5, 206816, Control_c, 3, 7, 27
5, 206856, Control_c, 3, 7, 26
5, 206896, Control_c, 3, 7, 25
5, 206936, Control_c, 3, 7, 24
5, 206976, Control_c, 3, 7, 23
5, 207016, Control_c, 3, 7, 22
5, 207044, Control_c, 3, 7, 21
5, 207084, Control_c, 3, 7, 20
5, 207124, Control_c, 3, 7, 19
5, 207164, Control_c, 3, 7, 18
5, 207204, Control_c, 3, 7, 17
5, 207244, Control_c, 3, 7, 16
5, 207284, Control_c, 3, 7, 15
5, 207308, Control_c, 3, 7, 14
5, 207348, Control_c, 3, 7, 13
5, 207388, Control_c, 3, 7, 12
5, 207428, Control_c, 3, 7, 11
5, 207468, Control_c, 3, 7, 10
5, 207508, Control_c, 3, 7, 9
5, 207548, Control_c, 3, 7, 8
5, 207576, Control_c, 3, 7, 7
5, 207616, Control_c, 3, 7, 6
5, 207656, Control_c, 3, 7, 5
5, 207696, Control_c, 3, 7, 4
5, 207736, Control_c, 3, 7, 3
5, 207776, Control_c, 3, 7, 2
5, 207780, Note_on_c, 3, 43, 0
5, 207780, Note_on_c, 3, 55, 0
5, 207816, Control_c, 3, 7, 1
5, 207844, Control_c, 3, 7, 0
5, 207856, Control_c, 3, 7, 7
5, 207868, Control_c, 3, 7, 14
5, 207884, Control_c, 3, 7, 21
5, 207896, Control_c, 3, 7, 28
5, 207908, Control_c, 3, 7, 35
5, 207924, Control_c, 3, 7, 42
5, 207936, Control_c, 3, 7, 50
5, 207948, Control_c, 3, 7, 57
5, 207964, Control_c, 3, 7, 64
5, 207976, Control_c, 3, 7, 71
5, 207988, Control_c, 3, 7, 78
5, 208004, Control_c, 3, 7, 85
5, 208016, Control_c, 3, 7, 92
5, 208028, Control_c, 3, 7, 100
5, 210240, Note_on_c, 3, 55, 22
5, 210240, Note_on_c, 3, 59, 32
5, 210254, Note_on_c, 3, 59, 0
5, 210254, Note_on_c, 3, 55, 0
5, 210480, Note_on_c, 3, 59, 31
5, 210480, Note_on_c, 3, 62, 29
5, 210516, Note_on_c, 3, 62, 0
5, 210516, Note_on_c, 3, 59, 0
5, 210720, Note_on_c, 3, 59, 32
5, 210720, Note_on_c, 3, 62, 27
5, 210742, Note_on_c, 3, 59, 0
5, 210750, Note_on_c, 3, 62, 0
5, 210960, Note_on_c, 3, 59, 31
5, 210960, Note_on_c, 3, 55, 23
5, 210990, Note_on_c, 3, 55, 0
5, 210994, Note_on_c, 3, 59, 0
5, 211200, Note_on_c, 3, 59, 32
5, 211200, Note_on_c, 3, 55, 22
5, 211214, Note_on_c, 3, 55, 0
5, 211214, Note_on_c, 3, 59, 0
5, 211440, Note_on_c, 3, 59, 31
5, 211440, Note_on_c, 3, 62, 29
5, 211476, Note_on_c, 3, 62, 0
5, 211476, Note_on_c, 3, 59, 0
5, 211680, Note_on_c, 3, 59, 32
5, 211680, Note_on_c, 3, 62, 27
5, 211702, Note_on_c, 3, 59, 0
5, 211710, Note_on_c, 3, 62, 0
5, 211920, Note_on_c, 3, 55, 23
5, 211920, Note_on_c, 3, 59, 31
5, 211950, Note_on_c, 3, 55, 0
5, 211954, Note_on_c, 3, 59, 0
5, 212160, Note_on_c, 3, 55, 22
5, 212160, Note_on_c, 3, 59, 29
5, 212194, Note_on_c, 3, 55, 0
5, 212196, Note_on_c, 3, 59, 0
5, 212400, Note_on_c, 3, 62, 26
5, 212400, Note_on_c, 3, 59, 33
5, 212436, Note_on_c, 3, 59, 0
5, 212440, Note_on_c, 3, 62, 0
5, 212640, Note_on_c, 3, 59, 33
5, 212640, Note_on_c, 3, 62, 28
5, 212670, Note_on_c, 3, 59, 0
5, 212674, Note_on_c, 3, 62, 0
5, 212880, Note_on_c, 3, 55, 22
5, 212880, Note_on_c, 3, 59, 33
5, 212914, Note_on_c, 3, 59, 0
5, 212916, Note_on_c, 3, 55, 0
5, 213120, Note_on_c, 3, 57, 24
5, 213120, Note_on_c, 3, 54, 19
5, 213150, Note_on_c, 3, 54, 0
5, 213160, Note_on_c, 3, 57, 0
5, 213360, Note_on_c, 3, 62, 30
5, 213360, Note_on_c, 3, 57, 25
5, 213392, Note_on_c, 3, 57, 0
5, 213400, Note_on_c, 3, 62, 0
5, 213600, Note_on_c, 3, 57, 25
5, 213600, Note_on_c, 3, 62, 33
5, 213634, Note_on_c, 3, 57, 0
5, 213640, Note_on_c, 3, 62, 0
5, 213840, Note_on_c, 3, 54, 23
5, 213840, Note_on_c, 3, 57, 21
5, 213872, Note_on_c, 3, 54, 0
5, 213884, Note_on_c, 3, 57, 0
5, 214080, Note_on_c, 3, 54, 24
5, 214080, Note_on_c, 3, 57, 24
5, 214114, Note_on_c, 3, 54, 0
5, 214122, Note_on_c, 3, 57, 0
5, 214320, Note_on_c, 3, 62, 29
5, 214320, Note_on_c, 3, 57, 25
5, 214360, Note_on_c, 3, 57, 0
5, 214362, Note_on_c, 3, 62, 0
5, 214560, Note_on_c, 3, 62, 31
5, 214560, Note_on_c, 3, 57, 25
5, 214594, Note_on_c, 3, 57, 0
5, 214596, Note_on_c, 3, 62, 0
5, 214800, Note_on_c, 3, 57, 22
5, 214800, Note_on_c, 3, 54, 26
5, 214832, Note_on_c, 3, 54, 0
5, 214844, Note_on_c, 3, 57, 0
5, 215040, Note_on_c, 3, 59, 23
5, 215040, Note_on_c, 3, 55, 25
5, 215070, Note_on_c, 3, 59, 0
5, 215076, Note_on_c, 3, 55, 0
5, 215280, Note_on_c, 3, 62, 29
5, 215280, Note_on_c, 3, 59, 33
5, 215312, Note_on_c, 3, 59, 0
5, 215320, Note_on_c, 3, 62, 0
5, 215520, Note_on_c, 3, 59, 29
5, 215520, Note_on_c, 3, 62, 30
5, 215542, Note_on_c, 3, 59, 0
5, 215556, Note_on_c, 3, 62, 0
5, 215760, Note_on_c, 3, 59, 36
5, 215760, Note_on_c, 3, 55, 25
5, 215792, Note_on_c, 3, 59, 0
5, 215794, Note_on_c, 3, 55, 0
5, 216000, Note_on_c, 3, 57, 27
5, 216000, Note_on_c, 3, 50, 27
5, 216034, Note_on_c, 3, 57, 0
5, 216040, Note_on_c, 3, 50, 0
5, 216240, Note_on_c, 3, 62, 31
5, 216240, Note_on_c, 3, 57, 29
5, 216276, Note_on_c, 3, 57, 0
5, 216276, Note_on_c, 3, 62, 0
5, 216480, Note_on_c, 3, 62, 34
5, 216480, Note_on_c, 3, 57, 32
5, 216512, Note_on_c, 3, 62, 0
5, 216514, Note_on_c, 3, 57, 0
5, 216720, Note_on_c, 3, 50, 29
5, 216720, Note_on_c, 3, 57, 27
5, 216754, Note_on_c, 3, 50, 0
5, 216756, Note_on_c, 3, 57, 0
5, 216960, Note_on_c, 3, 55, 23
5, 216960, Note_on_c, 3, 58, 35
5, 216996, Note_on_c, 3, 58, 0
5, 217004, Note_on_c, 3, 55, 0
5, 217200, Note_on_c, 3, 58, 29
5, 217200, Note_on_c, 3, 62, 32
5, 217220, Note_on_c, 3, 58, 0
5, 217236, Note_on_c, 3, 62, 0
5, 217440, Note_on_c, 3, 58, 34
5, 217440, Note_on_c, 3, 62, 31
5, 217472, Note_on_c, 3, 58, 0
5, 217476, Note_on_c, 3, 62, 0
5, 217680, Note_on_c, 3, 55, 24
5, 217680, Note_on_c, 3, 58, 35
5, 217714, Note_on_c, 3, 58, 0
5, 217722, Note_on_c, 3, 55, 0
5, 217920, Note_on_c, 3, 54, 27
5, 217920, Note_on_c, 3, 57, 27
5, 217954, Note_on_c, 3, 57, 0
5, 217960, Note_on_c, 3, 54, 0
5, 218160, Note_on_c, 3, 57, 29
5, 218160, Note_on_c, 3, 62, 31
5, 218196, Note_on_c, 3, 62, 0
5, 218196, Note_on_c, 3, 57, 0
5, 218400, Note_on_c, 3, 57, 32
5, 218400, Note_on_c, 3, 62, 34
5, 218432, Note_on_c, 3, 62, 0
5, 218434, Note_on_c, 3, 57, 0
5, 218640, Note_on_c, 3, 54, 29
5, 218640, Note_on_c, 3, 57, 27
5, 218674, Note_on_c, 3, 54, 0
5, 218676, Note_on_c, 3, 57, 0
5, 218880, Note_on_c, 3, 55, 23
5, 218880, Note_on_c, 3, 58, 35
5, 218916, Note_on_c, 3, 58, 0
5, 218924, Note_on_c, 3, 55, 0
5, 219120, Note_on_c, 3, 62, 40
5, 219120, Note_on_c, 3, 58, 36
5, 219140, Note_on_c, 3, 58, 0
5, 219156, Note_on_c, 3, 62, 0
5, 219360, Note_on_c, 3, 62, 49
5, 219360, Note_on_c, 3, 58, 54
5, 219392, Note_on_c, 3, 58, 0
5, 219396, Note_on_c, 3, 62, 0
5, 219600, Note_on_c, 3, 62, 48
5, 219600, Note_on_c, 3, 58, 69
5, 219634, Note_on_c, 3, 58, 0
5, 219642, Note_on_c, 3, 62, 0
5, 222960, Note_on_c, 3, 58, 40
5, 222960, Note_on_c, 3, 46, 40
5, 223032, Note_on_c, 3, 46, 0
5, 223032, Note_on_c, 3, 58, 0
5, 223200, Note_on_c, 3, 46, 40
5, 223200, Note_on_c, 3, 58, 40
5, 223272, Note_on_c, 3, 58, 0
5, 223272, Note_on_c, 3, 46, 0
5, 223440, Note_on_c, 3, 46, 40
5, 223440, Note_on_c, 3, 58, 40
5, 223512, Note_on_c, 3, 58, 0
5, 223512, Note_on_c, 3, 46, 0
5, 223680, Note_on_c, 3, 58, 40
5, 223680, Note_on_c, 3, 46, 40
5, 223752, Note_on_c, 3, 46, 0
5, 223752, Note_on_c, 3, 58, 0
5, 223920, Note_on_c, 3, 46, 40
5, 223920, Note_on_c, 3, 58, 40
5, 223992, Note_on_c, 3, 58, 0
5, 223992, Note_on_c, 3, 46, 0
5, 224160, Note_on_c, 3, 58, 40
5, 224160, Note_on_c, 3, 46, 40
5, 224232, Note_on_c, 3, 46, 0
5, 224232, Note_on_c, 3, 58, 0
5, 224400, Note_on_c, 3, 58, 40
5, 224400, Note_on_c, 3, 46, 40
5, 224472, Note_on_c, 3, 46, 0
5, 224472, Note_on_c, 3, 58, 0
5, 224640, Note_on_c, 3, 58, 40
5, 224640, Note_on_c, 3, 46, 40
5, 224712, Note_on_c, 3, 46, 0
5, 224712, Note_on_c, 3, 58, 0
5, 224880, Note_on_c, 3, 58, 40
5, 224880, Note_on_c, 3, 46, 40
5, 224952, Note_on_c, 3, 46, 0
5, 224952, Note_on_c, 3, 58, 0
5, 225120, Note_on_c, 3, 46, 40
5, 225120, Note_on_c, 3, 58, 40
5, 225192, Note_on_c, 3, 58, 0
5, 225192, Note_on_c, 3, 46, 0
5, 225360, Note_on_c, 3, 58, 40
5, 225360, Note_on_c, 3, 46, 40
5, 225432, Note_on_c, 3, 46, 0
5, 225432, Note_on_c, 3, 58, 0
5, 225600, Note_on_c, 3, 46, 40
5, 225600, Note_on_c, 3, 58, 40
5, 225672, Note_on_c, 3, 58, 0
5, 225672, Note_on_c, 3, 46, 0
5, 225840, Note_on_c, 3, 58, 40
5, 225840, Note_on_c, 3, 46, 40
5, 225912, Note_on_c, 3, 46, 0
5, 225912, Note_on_c, 3, 58, 0
5, 226080, Note_on_c, 3, 58, 40
5, 226080, Note_on_c, 3, 46, 40
5, 226152, Note_on_c, 3, 46, 0
5, 226152, Note_on_c, 3, 58, 0
5, 226320, Note_on_c, 3, 46, 40
5, 226320, Note_on_c, 3, 58, 40
5, 226392, Note_on_c, 3, 58, 0
5, 226392, Note_on_c, 3, 46, 0
5, 226560, Note_on_c, 3, 46, 40
5, 226560, Note_on_c, 3, 58, 40
5, 226632, Note_on_c, 3, 58, 0
5, 226632, Note_on_c, 3, 46, 0
5, 226800, Note_on_c, 3, 58, 40
5, 226800, Note_on_c, 3, 46, 40
5, 226872, Note_on_c, 3, 46, 0
5, 226872, Note_on_c, 3, 58, 0
5, 227040, Note_on_c, 3, 58, 40
5, 227040, Note_on_c, 3, 46, 40
5, 227112, Note_on_c, 3, 46, 0
5, 227112, Note_on_c, 3, 58, 0
5, 227280, Note_on_c, 3, 46, 40
5, 227280, Note_on_c, 3, 58, 40
5, 227352, Note_on_c, 3, 58, 0
5, 227352, Note_on_c, 3, 46, 0
5, 227520, Note_on_c, 3, 58, 40
5, 227520, Note_on_c, 3, 46, 40
5, 227592, Note_on_c, 3, 46, 0
5, 227592, Note_on_c, 3, 58, 0
5, 227760, Note_on_c, 3, 58, 40
5, 227760, Note_on_c, 3, 46, 40
5, 227832, Note_on_c, 3, 46, 0
5, 227832, Note_on_c, 3, 58, 0
5, 228000, Note_on_c, 3, 58, 40
5, 228000, Note_on_c, 3, 46, 40
5, 228072, Note_on_c, 3, 46, 0
5, 228072, Note_on_c, 3, 58, 0
5, 228240, Note_on_c, 3, 58, 40
5, 228240, Note_on_c, 3, 46, 40
5, 228312, Note_on_c, 3, 46, 0
5, 228312, Note_on_c, 3, 58, 0
5, 228480, Note_on_c, 3, 58, 40
5, 228480, Note_on_c, 3, 46, 40
5, 228552, Note_on_c, 3, 46, 0
5, 228552, Note_on_c, 3, 58, 0
5, 228720, Note_on_c, 3, 58, 40
5, 228720, Note_on_c, 3, 46, 40
5, 228792, Note_on_c, 3, 46, 0
5, 228792, Note_on_c, 3, 58, 0
5, 228960, Note_on_c, 3, 58, 40
5, 228960, Note_on_c, 3, 46, 40
5, 229032, Note_on_c, 3, 46, 0
5, 229032, Note_on_c, 3, 58, 0
5, 229200, Note_on_c, 3, 46, 40
5, 229200, Note_on_c, 3, 58, 40
5, 229272, Note_on_c, 3, 58, 0
5, 229272, Note_on_c, 3, 46, 0
5, 229440, Note_on_c, 3, 46, 40
5, 229440, Note_on_c, 3, 58, 40
5, 229512, Note_on_c, 3, 58, 0
5, 229512, Note_on_c, 3, 46, 0
5, 229680, Note_on_c, 3, 58, 40
5, 229680, Note_on_c, 3, 46, 40
5, 229752, Note_on_c, 3, 46, 0
5, 229752, Note_on_c, 3, 58, 0
5, 229920, Note_on_c, 3, 58, 40
5, 229920, Note_on_c, 3, 46, 40
5, 229992, Note_on_c, 3, 46, 0
5, 229992, Note_on_c, 3, 58, 0
5, 230160, Note_on_c, 3, 46, 46
5, 230160, Note_on_c, 3, 58, 46
5, 230232, Note_on_c, 3, 58, 0
5, 230232, Note_on_c, 3, 46, 0
5, 230400, Note_on_c, 3, 46, 48
5, 230400, Note_on_c, 3, 58, 48
5, 230448, Note_on_c, 3, 58, 0
5, 230448, Note_on_c, 3, 46, 0
5, 230520, Note_on_c, 3, 58, 51
5, 230520, Note_on_c, 3, 46, 51
5, 230568, Note_on_c, 3, 46, 0
5, 230568, Note_on_c, 3, 58, 0
5, 230640, Note_on_c, 3, 46, 53
5, 230640, Note_on_c, 3, 58, 53
5, 230688, Note_on_c, 3, 58, 0
5, 230688, Note_on_c, 3, 46, 0
5, 230760, Note_on_c, 3, 58, 56
5, 230760, Note_on_c, 3, 46, 56
5, 230808, Note_on_c, 3, 46, 0
5, 230808, Note_on_c, 3, 58, 0
5, 230880, Note_on_c, 3, 46, 48
5, 230880, Note_on_c, 3, 58, 48
5, 230928, Note_on_c, 3, 58, 0
5, 230928, Note_on_c, 3, 46, 0
5, 231000, Note_on_c, 3, 46, 51
5, 231000, Note_on_c, 3, 58, 51
5, 231048, Note_on_c, 3, 58, 0
5, 231048, Note_on_c, 3, 46, 0
5, 231120, Note_on_c, 3, 46, 53
5, 231120, Note_on_c, 3, 58, 53
5, 231168, Note_on_c, 3, 58, 0
5, 231168, Note_on_c, 3, 46, 0
5, 231240, Note_on_c, 3, 46, 56
5, 231240, Note_on_c, 3, 58, 56
5, 231288, Note_on_c, 3, 58, 0
5, 231288, Note_on_c, 3, 46, 0
5, 231360, Note_on_c, 3, 58, 59
5, 231360, Note_on_c, 3, 46, 59
5, 231408, Note_on_c, 3, 46, 0
5, 231408, Note_on_c, 3, 58, 0
5, 231480, Note_on_c, 3, 46, 61
5, 231480, Note_on_c, 3, 58, 61
5, 231528, Note_on_c, 3, 58, 0
5, 231528, Note_on_c, 3, 46, 0
5, 231600, Note_on_c, 3, 46, 64
5, 231600, Note_on_c, 3, 58, 64
5, 231648, Note_on_c, 3, 58, 0
5, 231648, Note_on_c, 3, 46, 0
5, 231720, Note_on_c, 3, 58, 67
5, 231720, Note_on_c, 3, 46, 67
5, 231768, Note_on_c, 3, 46, 0
5, 231768, Note_on_c, 3, 58, 0
5, 231840, Note_on_c, 3, 46, 48
5, 231840, Note_on_c, 3, 58, 48
5, 231888, Note_on_c, 3, 58, 0
5, 231888, Note_on_c, 3, 46, 0
5, 231960, Note_on_c, 3, 46, 51
5, 231960, Note_on_c, 3, 58, 51
5, 232008, Note_on_c, 3, 58, 0
5, 232008, Note_on_c, 3, 46, 0
5, 232080, Note_on_c, 3, 46, 53
5, 232080, Note_on_c, 3, 58, 53
5, 232128, Note_on_c, 3, 58, 0
5, 232128, Note_on_c, 3, 46, 0
5, 232200, Note_on_c, 3, 46, 56
5, 232200, Note_on_c, 3, 58, 56
5, 232248, Note_on_c, 3, 58, 0
5, 232248, Note_on_c, 3, 46, 0
5, 232320, Note_on_c, 3, 46, 69
5, 232320, Note_on_c, 3, 58, 69
5, 232368, Note_on_c, 3, 58, 0
5, 232368, Note_on_c, 3, 46, 0
5, 232440, Note_on_c, 3, 58, 72
5, 232440, Note_on_c, 3, 46, 72
5, 232488, Note_on_c, 3, 46, 0
5, 232488, Note_on_c, 3, 58, 0
5, 232560, Note_on_c, 3, 46, 75
5, 232560, Note_on_c, 3, 58, 75
5, 232608, Note_on_c, 3, 58, 0
5, 232608, Note_on_c, 3, 46, 0
5, 232680, Note_on_c, 3, 58, 77
5, 232680, Note_on_c, 3, 46, 77
5, 232728, Note_on_c, 3, 46, 0
5, 232728, Note_on_c, 3, 58, 0
5, 232800, Note_on_c, 3, 46, 48
5, 232800, Note_on_c, 3, 58, 48
5, 232848, Note_on_c, 3, 58, 0
5, 232848, Note_on_c, 3, 46, 0
5, 232920, Note_on_c, 3, 46, 51
5, 232920, Note_on_c, 3, 58, 51
5, 232968, Note_on_c, 3, 58, 0
5, 232968, Note_on_c, 3, 46, 0
5, 233040, Note_on_c, 3, 58, 53
5, 233040, Note_on_c, 3, 46, 53
5, 233088, Note_on_c, 3, 46, 0
5, 233088, Note_on_c, 3, 58, 0
5, 233160, Note_on_c, 3, 46, 56
5, 233160, Note_on_c, 3, 58, 56
5, 233208, Note_on_c, 3, 58, 0
5, 233208, Note_on_c, 3, 46, 0
5, 233280, Note_on_c, 3, 46, 80
5, 233280, Note_on_c, 3, 58, 80
5, 233328, Note_on_c, 3, 58, 0
5, 233328, Note_on_c, 3, 46, 0
5, 233400, Note_on_c, 3, 65, 83
5, 233400, Note_on_c, 3, 62, 83
5, 233448, Note_on_c, 3, 62, 0
5, 233448, Note_on_c, 3, 65, 0
5, 233520, Note_on_c, 3, 62, 85
5, 233520, Note_on_c, 3, 65, 85
5, 233568, Note_on_c, 3, 65, 0
5, 233568, Note_on_c, 3, 62, 0
5, 233640, Note_on_c, 3, 65, 88
5, 233640, Note_on_c, 3, 62, 88
5, 233688, Note_on_c, 3, 62, 0
5, 233688, Note_on_c, 3, 65, 0
5, 233760, Note_on_c, 3, 62, 48
5, 233760, Note_on_c, 3, 65, 48
5, 233808, Note_on_c, 3, 65, 0
5, 233808, Note_on_c, 3, 62, 0
5, 233880, Note_on_c, 3, 65, 51
5, 233880, Note_on_c, 3, 62, 51
5, 233928, Note_on_c, 3, 62, 0
5, 233928, Note_on_c, 3, 65, 0
5, 234000, Note_on_c, 3, 65, 53
5, 234000, Note_on_c, 3, 62, 53
5, 234048, Note_on_c, 3, 62, 0
5, 234048, Note_on_c, 3, 65, 0
5, 234120, Note_on_c, 3, 62, 56
5, 234120, Note_on_c, 3, 65, 56
5, 234168, Note_on_c, 3, 65, 0
5, 234168, Note_on_c, 3, 62, 0
5, 234240, Note_on_c, 3, 62, 60
5, 234240, Note_on_c, 3, 66, 60
5, 234288, Note_on_c, 3, 66, 0
5, 234288, Note_on_c, 3, 62, 0
5, 234360, Note_on_c, 3, 66, 64
5, 234360, Note_on_c, 3, 62, 64
5, 234408, Note_on_c, 3, 62, 0
5, 234408, Note_on_c, 3, 66, 0
5, 234480, Note_on_c, 3, 62, 66
5, 234480, Note_on_c, 3, 66, 66
5, 234528, Note_on_c, 3, 66, 0
5, 234528, Note_on_c, 3, 62, 0
5, 234600, Note_on_c, 3, 62, 70
5, 234600, Note_on_c, 3, 66, 70
5, 234648, Note_on_c, 3, 66, 0
5, 234648, Note_on_c, 3, 62, 0
5, 234720, Note_on_c, 3, 62, 60
5, 234720, Note_on_c, 3, 66, 60
5, 234768, Note_on_c, 3, 66, 0
5, 234768, Note_on_c, 3, 62, 0
5, 234840, Note_on_c, 3, 66, 64
5, 234840, Note_on_c, 3, 62, 64
5, 234888, Note_on_c, 3, 62, 0
5, 234888, Note_on_c, 3, 66, 0
5, 234960, Note_on_c, 3, 66, 66
5, 234960, Note_on_c, 3, 62, 66
5, 235008, Note_on_c, 3, 62, 0
5, 235008, Note_on_c, 3, 66, 0
5, 235080, Note_on_c, 3, 62, 70
5, 235080, Note_on_c, 3, 66, 70
5, 235128, Note_on_c, 3, 66, 0
5, 235128, Note_on_c, 3, 62, 0
5, 235200, Note_on_c, 3, 62, 45
5, 235200, Note_on_c, 3, 66, 45
5, 235296, Note_on_c, 3, 66, 0
5, 235296, Note_on_c, 3, 62, 0
5, 235320, Note_on_c, 3, 66, 42
5, 235320, Note_on_c, 3, 62, 42
5, 235416, Note_on_c, 3, 62, 0
5, 235416, Note_on_c, 3, 66, 0
5, 235440, Note_on_c, 3, 62, 38
5, 235440, Note_on_c, 3, 66, 38
5, 235536, Note_on_c, 3, 66, 0
5, 235536, Note_on_c, 3, 62, 0
5, 235560, Note_on_c, 3, 66, 35
5, 235560, Note_on_c, 3, 62, 35
5, 235656, Note_on_c, 3, 62, 0
5, 235656, Note_on_c, 3, 66, 0
5, 235680, Note_on_c, 3, 66, 32
5, 235680, Note_on_c, 3, 62, 32
5, 235776, Note_on_c, 3, 62, 0
5, 235776, Note_on_c, 3, 66, 0
5, 235800, Note_on_c, 3, 66, 29
5, 235800, Note_on_c, 3, 62, 29
5, 235896, Note_on_c, 3, 62, 0
5, 235896, Note_on_c, 3, 66, 0
5, 235920, Note_on_c, 3, 66, 26
5, 235920, Note_on_c, 3, 62, 26
5, 236016, Note_on_c, 3, 62, 0
5, 236016, Note_on_c, 3, 66, 0
5, 236040, Note_on_c, 3, 66, 22
5, 236040, Note_on_c, 3, 62, 22
5, 236064, Control_c, 3, 7, 39
5, 236072, Control_c, 3, 7, 38
5, 236080, Control_c, 3, 7, 38
5, 236088, Control_c, 3, 7, 38
5, 236096, Control_c, 3, 7, 38
5, 236104, Control_c, 3, 7, 39
5, 236112, Control_c, 3, 7, 39
5, 236120, Control_c, 3, 7, 39
5, 236128, Control_c, 3, 7, 39
5, 236136, Control_c, 3, 7, 38
5, 236144, Control_c, 3, 7, 38
5, 236152, Control_c, 3, 7, 38
5, 236160, Control_c, 3, 7, 38
5, 236168, Control_c, 3, 7, 38
5, 236176, Control_c, 3, 7, 38
5, 236184, Control_c, 3, 7, 38
5, 236192, Control_c, 3, 7, 38
5, 236200, Control_c, 3, 7, 39
5, 236208, Control_c, 3, 7, 39
5, 236216, Control_c, 3, 7, 39
5, 236224, Control_c, 3, 7, 39
5, 236232, Control_c, 3, 7, 39
5, 236240, Control_c, 3, 7, 39
5, 236248, Control_c, 3, 7, 39
5, 236256, Control_c, 3, 7, 39
5, 236264, Control_c, 3, 7, 39
5, 236272, Control_c, 3, 7, 39
5, 236280, Control_c, 3, 7, 39
5, 236288, Control_c, 3, 7, 39
5, 236296, Control_c, 3, 7, 39
5, 236304, Control_c, 3, 7, 40
5, 236312, Control_c, 3, 7, 40
5, 236320, Control_c, 3, 7, 40
5, 236328, Control_c, 3, 7, 40
5, 236336, Control_c, 3, 7, 40
5, 236344, Control_c, 3, 7, 40
5, 236352, Control_c, 3, 7, 40
5, 236360, Control_c, 3, 7, 39
5, 236368, Control_c, 3, 7, 38
5, 236376, Control_c, 3, 7, 39
5, 236384, Control_c, 3, 7, 38
5, 236392, Control_c, 3, 7, 38
5, 236400, Control_c, 3, 7, 38
5, 236408, Control_c, 3, 7, 38
5, 236416, Control_c, 3, 7, 38
5, 236424, Control_c, 3, 7, 38
5, 236432, Control_c, 3, 7, 38
5, 236440, Control_c, 3, 7, 38
5, 236448, Control_c, 3, 7, 39
5, 236456, Control_c, 3, 7, 39
5, 236464, Control_c, 3, 7, 39
5, 236472, Control_c, 3, 7, 39
5, 236480, Control_c, 3, 7, 39
5, 236488, Control_c, 3, 7, 38
5, 236496, Control_c, 3, 7, 38
5, 236504, Control_c, 3, 7, 38
5, 236512, Control_c, 3, 7, 38
5, 236520, Control_c, 3, 7, 38
5, 236528, Control_c, 3, 7, 39
5, 236536, Control_c, 3, 7, 39
5, 236544, Control_c, 3, 7, 39
5, 236552, Control_c, 3, 7, 39
5, 236560, Control_c, 3, 7, 39
5, 236568, Control_c, 3, 7, 39
5, 236576, Control_c, 3, 7, 39
5, 236584, Control_c, 3, 7, 39
5, 236592, Control_c, 3, 7, 39
5, 236600, Control_c, 3, 7, 39
5, 236608, Control_c, 3, 7, 39
5, 236616, Control_c, 3, 7, 39
5, 236624, Control_c, 3, 7, 39
5, 236632, Control_c, 3, 7, 39
5, 236640, Control_c, 3, 7, 39
5, 236648, Control_c, 3, 7, 39
5, 236656, Control_c, 3, 7, 39
5, 236664, Control_c, 3, 7, 40
5, 236672, Control_c, 3, 7, 40
5, 236680, Control_c, 3, 7, 40
5, 236688, Control_c, 3, 7, 40
5, 236696, Control_c, 3, 7, 40
5, 236704, Control_c, 3, 7, 41
5, 236712, Control_c, 3, 7, 41
5, 236720, Control_c, 3, 7, 41
5, 236728, Control_c, 3, 7, 41
5, 236736, Control_c, 3, 7, 41
5, 236744, Control_c, 3, 7, 41
5, 236752, Control_c, 3, 7, 41
5, 236760, Control_c, 3, 7, 41
5, 236768, Control_c, 3, 7, 41
5, 236776, Control_c, 3, 7, 41
5, 236784, Control_c, 3, 7, 41
5, 236792, Control_c, 3, 7, 41
5, 236800, Control_c, 3, 7, 41
5, 236808, Control_c, 3, 7, 42
5, 236816, Control_c, 3, 7, 42
5, 236824, Control_c, 3, 7, 42
5, 236832, Control_c, 3, 7, 42
5, 236840, Control_c, 3, 7, 42
5, 236848, Control_c, 3, 7, 42
5, 236856, Control_c, 3, 7, 42
5, 236864, Control_c, 3, 7, 42
5, 236872, Control_c, 3, 7, 43
5, 236880, Control_c, 3, 7, 43
5, 236888, Control_c, 3, 7, 43
5, 236896, Control_c, 3, 7, 43
5, 236904, Control_c, 3, 7, 43
5, 236912, Control_c, 3, 7, 43
5, 236920, Control_c, 3, 7, 43
5, 236928, Control_c, 3, 7, 44
5, 236936, Control_c, 3, 7, 44
5, 236944, Control_c, 3, 7, 44
5, 236952, Control_c, 3, 7, 44
5, 236960, Control_c, 3, 7, 44
5, 236968, Control_c, 3, 7, 44
5, 236976, Control_c, 3, 7, 45
5, 236984, Control_c, 3, 7, 45
5, 236992, Control_c, 3, 7, 45
5, 237000, Control_c, 3, 7, 45
5, 237008, Control_c, 3, 7, 45
5, 237016, Control_c, 3, 7, 45
5, 237024, Control_c, 3, 7, 46
5, 237032, Control_c, 3, 7, 46
5, 237040, Control_c, 3, 7, 46
5, 237048, Control_c, 3, 7, 46
5, 237056, Control_c, 3, 7, 46
5, 237064, Control_c, 3, 7, 46
5, 237072, Control_c, 3, 7, 47
5, 237080, Control_c, 3, 7, 47
5, 237088, Control_c, 3, 7, 47
5, 237096, Control_c, 3, 7, 48
5, 237104, Control_c, 3, 7, 48
5, 237112, Control_c, 3, 7, 48
5, 237120, Control_c, 3, 7, 49
5, 237128, Control_c, 3, 7, 49
5, 237136, Control_c, 3, 7, 49
5, 237144, Control_c, 3, 7, 49
5, 237152, Control_c, 3, 7, 49
5, 237160, Control_c, 3, 7, 49
5, 237168, Control_c, 3, 7, 50
5, 237176, Control_c, 3, 7, 50
5, 237184, Control_c, 3, 7, 51
5, 237192, Control_c, 3, 7, 52
5, 237200, Control_c, 3, 7, 53
5, 237208, Control_c, 3, 7, 54
5, 237216, Control_c, 3, 7, 55
5, 237224, Control_c, 3, 7, 56
5, 237232, Control_c, 3, 7, 56
5, 237240, Control_c, 3, 7, 56
5, 237248, Control_c, 3, 7, 56
5, 237256, Control_c, 3, 7, 56
5, 237264, Control_c, 3, 7, 56
5, 237272, Control_c, 3, 7, 57
5, 237280, Control_c, 3, 7, 57
5, 237288, Control_c, 3, 7, 58
5, 237296, Control_c, 3, 7, 58
5, 237304, Control_c, 3, 7, 59
5, 237312, Control_c, 3, 7, 60
5, 237320, Control_c, 3, 7, 60
5, 237328, Control_c, 3, 7, 61
5, 237336, Control_c, 3, 7, 62
5, 237344, Control_c, 3, 7, 62
5, 237352, Control_c, 3, 7, 63
5, 237360, Control_c, 3, 7, 64
5, 237368, Control_c, 3, 7, 64
5, 237376, Control_c, 3, 7, 65
5, 237384, Control_c, 3, 7, 66
5, 237392, Control_c, 3, 7, 66
5, 237400, Control_c, 3, 7, 66
5, 237408, Control_c, 3, 7, 66
5, 237416, Control_c, 3, 7, 66
5, 237424, Control_c, 3, 7, 66
5, 237432, Control_c, 3, 7, 66
5, 237440, Control_c, 3, 7, 66
5, 237448, Control_c, 3, 7, 66
5, 237456, Control_c, 3, 7, 66
5, 237464, Control_c, 3, 7, 66
5, 237472, Control_c, 3, 7, 66
5, 237480, Control_c, 3, 7, 66
5, 237488, Control_c, 3, 7, 66
5, 237496, Control_c, 3, 7, 67
5, 237504, Control_c, 3, 7, 74
5, 237512, Control_c, 3, 7, 74
5, 237520, Control_c, 3, 7, 75
5, 237528, Control_c, 3, 7, 75
5, 237536, Control_c, 3, 7, 75
5, 237544, Control_c, 3, 7, 75
5, 237552, Control_c, 3, 7, 75
5, 237560, Control_c, 3, 7, 75
5, 237568, Control_c, 3, 7, 75
5, 237576, Control_c, 3, 7, 76
5, 237584, Control_c, 3, 7, 77
5, 237592, Control_c, 3, 7, 78
5, 237600, Control_c, 3, 7, 79
5, 237608, Control_c, 3, 7, 80
5, 237616, Control_c, 3, 7, 81
5, 237624, Control_c, 3, 7, 82
5, 237632, Control_c, 3, 7, 83
5, 237640, Control_c, 3, 7, 84
5, 237648, Control_c, 3, 7, 84
5, 237656, Control_c, 3, 7, 84
5, 237664, Control_c, 3, 7, 84
5, 237672, Control_c, 3, 7, 84
5, 237680, Control_c, 3, 7, 84
5, 237688, Control_c, 3, 7, 93
5, 237696, Control_c, 3, 7, 94
5, 237704, Control_c, 3, 7, 95
5, 237712, Control_c, 3, 7, 96
5, 237720, Control_c, 3, 7, 97
5, 237728, Control_c, 3, 7, 99
5, 237736, Control_c, 3, 7, 100
5, 237744, Control_c, 3, 7, 101
5, 237752, Control_c, 3, 7, 102
5, 237760, Control_c, 3, 7, 104
5, 237768, Control_c, 3, 7, 105
5, 237776, Control_c, 3, 7, 105
5, 237784, Control_c, 3, 7, 105
5, 237792, Control_c, 3, 7, 106
5, 237800, Control_c, 3, 7, 106
5, 237808, Control_c, 3, 7, 107
5, 237816, Control_c, 3, 7, 110
5, 237824, Control_c, 3, 7, 111
5, 237832, Control_c, 3, 7, 111
5, 237840, Control_c, 3, 7, 111
5, 237848, Control_c, 3, 7, 111
5, 237856, Control_c, 3, 7, 111
5, 237864, Control_c, 3, 7, 112
5, 237872, Control_c, 3, 7, 112
5, 237880, Control_c, 3, 7, 114
5, 237888, Control_c, 3, 7, 114
5, 237896, Control_c, 3, 7, 114
5, 237904, Control_c, 3, 7, 114
5, 237912, Control_c, 3, 7, 114
5, 237920, Control_c, 3, 7, 116
5, 237928, Control_c, 3, 7, 117
5, 237936, Control_c, 3, 7, 117
5, 237944, Control_c, 3, 7, 120
5, 237952, Control_c, 3, 7, 120
5, 237960, Control_c, 3, 7, 120
5, 237968, Control_c, 3, 7, 120
5, 237976, Control_c, 3, 7, 120
5, 237984, Control_c, 3, 7, 121
5, 237992, Control_c, 3, 7, 121
5, 238000, Control_c, 3, 7, 121
5, 238008, Control_c, 3, 7, 121
5, 238016, Control_c, 3, 7, 121
5, 238024, Control_c, 3, 7, 122
5, 238032, Control_c, 3, 7, 124
5, 238040, Control_c, 3, 7, 124
5, 238048, Control_c, 3, 7, 125
5, 238056, Control_c, 3, 7, 125
5, 238064, Control_c, 3, 7, 124
5, 238072, Control_c, 3, 7, 121
5, 238080, Note_on_c, 3, 62, 0
5, 238080, Note_on_c, 3, 66, 0
5, 238080, Note_on_c, 3, 67, 63
5, 238080, Control_c, 3, 7, 121
5, 238080, Note_on_c, 3, 58, 56
5, 238088, Control_c, 3, 7, 117
5, 238096, Control_c, 3, 7, 114
5, 238104, Control_c, 3, 7, 113
5, 238112, Control_c, 3, 7, 112
5, 238120, Control_c, 3, 7, 107
5, 238124, Note_on_c, 3, 58, 0
5, 238128, Control_c, 3, 7, 107
5, 238132, Note_on_c, 3, 67, 0
5, 238136, Control_c, 3, 7, 105
5, 238144, Control_c, 3, 7, 103
5, 238152, Control_c, 3, 7, 103
5, 238320, Control_c, 3, 7, 90
5, 238320, Note_on_c, 3, 67, 65
5, 238320, Note_on_c, 3, 58, 56
5, 238620, Note_on_c, 3, 67, 0
5, 238646, Note_on_c, 3, 58, 0
5, 238800, Note_on_c, 3, 63, 65
5, 238800, Note_on_c, 3, 55, 41
5, 238880, Note_on_c, 3, 55, 0
5, 238890, Note_on_c, 3, 63, 0
5, 239040, Note_on_c, 3, 58, 55
5, 239040, Note_on_c, 3, 55, 47
5, 239732, Note_on_c, 3, 58, 0
5, 239756, Note_on_c, 3, 55, 0
5, 240000, Note_on_c, 3, 67, 65
5, 240000, Note_on_c, 3, 58, 58
5, 240034, Note_on_c, 3, 58, 0
5, 240044, Note_on_c, 3, 67, 0
5, 240240, Note_on_c, 3, 67, 62
5, 240240, Note_on_c, 3, 58, 56
5, 240540, Note_on_c, 3, 58, 0
5, 240540, Note_on_c, 3, 67, 0
5, 240720, Note_on_c, 3, 63, 59
5, 240720, Note_on_c, 3, 55, 46
5, 240804, Note_on_c, 3, 55, 0
5, 240812, Note_on_c, 3, 63, 0
5, 240960, Note_on_c, 3, 58, 56
5, 240960, Note_on_c, 3, 55, 45
5, 241514, Note_on_c, 3, 55, 0
5, 241526, Note_on_c, 3, 58, 0
5, 241800, Note_on_c, 3, 63, 58
5, 241800, Note_on_c, 3, 55, 37
5, 241858, Note_on_c, 3, 55, 0
5, 241858, Note_on_c, 3, 63, 0
5, 241860, Note_on_c, 3, 65, 80
5, 241860, Note_on_c, 3, 56, 80
5, 241908, Note_on_c, 3, 56, 0
5, 241908, Note_on_c, 3, 65, 0
5, 241920, Note_on_c, 3, 67, 64
5, 241920, Note_on_c, 3, 58, 50
5, 242232, Note_on_c, 3, 67, 0
5, 242250, Note_on_c, 3, 58, 0
5, 242400, Note_on_c, 3, 63, 70
5, 242400, Note_on_c, 3, 55, 53
5, 242470, Note_on_c, 3, 63, 0
5, 242504, Note_on_c, 3, 55, 0
5, 242640, Note_on_c, 3, 62, 53
5, 242640, Note_on_c, 3, 55, 50
5, 242722, Note_on_c, 3, 62, 0
5, 242734, Note_on_c, 3, 55, 0
5, 242880, Note_on_c, 3, 60, 68
5, 242880, Note_on_c, 3, 56, 59
5, 243264, Note_on_c, 3, 56, 0
5, 243264, Note_on_c, 3, 60, 0
5, 243360, Note_on_c, 3, 60, 60
5, 243360, Note_on_c, 3, 56, 53
5, 243468, Note_on_c, 3, 56, 0
5, 243468, Note_on_c, 3, 60, 0
5, 243600, Note_on_c, 3, 60, 65
5, 243600, Note_on_c, 3, 56, 58
5, 243708, Note_on_c, 3, 56, 0
5, 243708, Note_on_c, 3, 60, 0
5, 243840, Note_on_c, 3, 62, 73
5, 243840, Note_on_c, 3, 53, 55
5, 244272, Note_on_c, 3, 53, 0
5, 244272, Note_on_c, 3, 62, 0
5, 244320, Note_on_c, 3, 53, 49
5, 244320, Note_on_c, 3, 62, 65
5, 244428, Note_on_c, 3, 62, 0
5, 244428, Note_on_c, 3, 53, 0
5, 244560, Note_on_c, 3, 53, 47
5, 244560, Note_on_c, 3, 62, 61
5, 244668, Note_on_c, 3, 62, 0
5, 244668, Note_on_c, 3, 53, 0
5, 244800, Note_on_c, 3, 63, 76
5, 244800, Note_on_c, 3, 55, 59
5, 244908, Note_on_c, 3, 55, 0
5, 244908, Note_on_c, 3, 63, 0
5, 245640, Note_on_c, 3, 63, 56
5, 245640, Note_on_c, 3, 55, 56
5, 245700, Note_on_c, 3, 55, 0
5, 245700, Note_on_c, 3, 63, 0
5, 245700, Note_on_c, 3, 65, 56
5, 245700, Note_on_c, 3, 56, 56
5, 245760, Note_on_c, 3, 56, 0
5, 245760, Note_on_c, 3, 65, 0
5, 245760, Note_on_c, 3, 63, 47
5, 245760, Note_on_c, 3, 51, 38
5, 245972, Note_on_c, 3, 63, 0
5, 246000, Note_on_c, 3, 51, 0
5, 246240, Note_on_c, 3, 63, 45
5, 246240, Note_on_c, 3, 51, 35
5, 246302, Note_on_c, 3, 63, 0
5, 246322, Note_on_c, 3, 51, 0
5, 246480, Note_on_c, 3, 51, 38
5, 246480, Note_on_c, 3, 63, 44
5, 246540, Note_on_c, 3, 63, 0
5, 246540, Note_on_c, 3, 51, 0
5, 246720, Note_on_c, 3, 62, 48
5, 246720, Note_on_c, 3, 53, 36
5, 246962, Note_on_c, 3, 62, 0
5, 246990, Note_on_c, 3, 53, 0
5, 247200, Note_on_c, 3, 62, 46
5, 247200, Note_on_c, 3, 53, 35
5, 247274, Note_on_c, 3, 62, 0
5, 247280, Note_on_c, 3, 53, 0
5, 247440, Note_on_c, 3, 62, 42
5, 247440, Note_on_c, 3, 53, 32
5, 247504, Note_on_c, 3, 62, 0
5, 247514, Note_on_c, 3, 53, 0
5, 247680, Note_on_c, 3, 65, 48
5, 247680, Note_on_c, 3, 53, 37
5, 247880, Note_on_c, 3, 65, 0
5, 247920, Note_on_c, 3, 63, 57
5, 247952, Note_on_c, 3, 53, 0
5, 248006, Note_on_c, 3, 63, 0
5, 248160, Note_on_c, 3, 60, 48
5, 248160, Note_on_c, 3, 53, 37
5, 248220, Note_on_c, 3, 60, 0
5, 248242, Note_on_c, 3, 53, 0
5, 248400, Note_on_c, 3, 57, 31
5, 248400, Note_on_c, 3, 53, 39
5, 248454, Note_on_c, 3, 57, 0
5, 248470, Note_on_c, 3, 53, 0
5, 248640, Note_on_c, 3, 46, 33
5, 248640, Note_on_c, 3, 58, 33
5, 253380, Note_on_c, 3, 58, 0
5, 253380, Note_on_c, 3, 46, 0
5, 253440, Note_on_c, 3, 51, 38
5, 253440, Note_on_c, 3, 55, 39
5, 253854, Note_on_c, 3, 55, 0
5, 253872, Note_on_c, 3, 51, 0
5, 253920, Note_on_c, 3, 58, 36
5, 253920, Note_on_c, 3, 55, 25
5, 254370, Note_on_c, 3, 58, 0
5, 254400, Note_on_c, 3, 56, 32
5, 254400, Note_on_c, 3, 53, 33
5, 254416, Note_on_c, 3, 55, 0
5, 254760, Note_on_c, 3, 53, 0
5, 254880, Note_on_c, 3, 56, 0
5, 254880, Note_on_c, 3, 53, 34
5, 254880, Note_on_c, 3, 46, 29
5, 255242, Note_on_c, 3, 53, 0
5, 255360, Note_on_c, 3, 55, 35
5, 255360, Note_on_c, 3, 51, 36
5, 255376, Note_on_c, 3, 46, 0
5, 255676, Note_on_c, 3, 51, 0
5, 255840, Note_on_c, 3, 43, 26
5, 255840, Note_on_c, 3, 51, 33
5, 255852, Note_on_c, 3, 55, 0
5, 256150, Note_on_c, 3, 43, 0
5, 256320, Note_on_c, 3, 46, 29
5, 256320, Note_on_c, 3, 53, 34
5, 256342, Note_on_c, 3, 51, 0
5, 256650, Note_on_c, 3, 46, 0
5, 256760, Note_on_c, 3, 53, 0
5, 256800, Note_on_c, 3, 46, 46
5, 257092, Note_on_c, 3, 46, 0
5, 257280, Note_on_c, 3, 55, 52
5, 257760, Note_on_c, 3, 58, 65
5, 257786, Note_on_c, 3, 55, 0
5, 258240, Note_on_c, 3, 58, 0
5, 258240, Note_on_c, 3, 56, 52
5, 258720, Note_on_c, 3, 53, 65
5, 258746, Note_on_c, 3, 56, 0
5, 259200, Note_on_c, 3, 53, 0
5, 259200, Note_on_c, 3, 55, 68
5, 259680, Note_on_c, 3, 51, 67
5, 259690, Note_on_c, 3, 55, 0
5, 260160, Note_on_c, 3, 53, 55
5, 260172, Note_on_c, 3, 51, 0
5, 260640, Note_on_c, 3, 46, 39
5, 260650, Note_on_c, 3, 53, 0
5, 261090, Note_on_c, 3, 46, 0
5, 261120, Note_on_c, 3, 55, 63
5, 261570, Note_on_c, 3, 55, 0
5, 261600, Note_on_c, 3, 58, 49
5, 262050, Note_on_c, 3, 58, 0
5, 262080, Note_on_c, 3, 56, 50
5, 262534, Note_on_c, 3, 56, 0
5, 262560, Note_on_c, 3, 53, 58
5, 263040, Note_on_c, 3, 55, 61
5, 263076, Note_on_c, 3, 53, 0
5, 263520, Note_on_c, 3, 58, 58
5, 263542, Note_on_c, 3, 55, 0
5, 264000, Note_on_c, 3, 60, 60
5, 264014, Note_on_c, 3, 58, 0
5, 264480, Note_on_c, 3, 56, 56
5, 264482, Note_on_c, 3, 60, 0
5, 264960, Note_on_c, 3, 58, 56
5, 264962, Note_on_c, 3, 56, 0
5, 265440, Note_on_c, 3, 62, 61
5, 265496, Note_on_c, 3, 58, 0
5, 265896, Note_on_c, 3, 62, 0
5, 265920, Note_on_c, 3, 63, 67
5, 266400, Note_on_c, 3, 44, 70
5, 266400, Note_on_c, 3, 60, 68
5, 266440, Note_on_c, 3, 63, 0
5, 266524, Note_on_c, 3, 44, 0
5, 266880, Note_on_c, 3, 62, 75
5, 266880, Note_on_c, 3, 46, 61
5, 266884, Note_on_c, 3, 60, 0
5, 266934, Note_on_c, 3, 46, 0
5, 267360, Note_on_c, 3, 65, 47
5, 267360, Note_on_c, 3, 50, 68
5, 267362, Note_on_c, 3, 62, 0
5, 267486, Note_on_c, 3, 50, 0
5, 267840, Note_on_c, 3, 51, 68
5, 267840, Note_on_c, 3, 67, 51
5, 267882, Note_on_c, 3, 65, 0
5, 267894, Note_on_c, 3, 51, 0
5, 268200, Note_on_c, 3, 46, 63
5, 268200, Note_on_c, 3, 63, 67
5, 268296, Note_on_c, 3, 67, 0
5, 268302, Note_on_c, 3, 46, 0
5, 268704, Note_on_c, 3, 63, 0
5, 268800, Note_on_c, 3, 52, 67
5, 268800, Note_on_c, 3, 67, 66
5, 268886, Note_on_c, 3, 52, 0
5, 269234, Note_on_c, 3, 67, 0
5, 269280, Note_on_c, 3, 64, 56
5, 269280, Note_on_c, 3, 46, 56
5, 269362, Note_on_c, 3, 46, 0
5, 269640, Note_on_c, 3, 68, 62
5, 269696, Note_on_c, 3, 64, 0
5, 269760, Note_on_c, 3, 53, 55
5, 269844, Note_on_c, 3, 53, 0
5, 270240, Note_on_c, 3, 65, 73
5, 270240, Note_on_c, 3, 46, 56
5, 270300, Note_on_c, 3, 68, 0
5, 270324, Note_on_c, 3, 46, 0
5, 270626, Note_on_c, 3, 65, 0
5, 270720, Note_on_c, 3, 53, 68
5, 270720, Note_on_c, 3, 65, 69
5, 270852, Note_on_c, 3, 53, 0
5, 271200, Note_on_c, 3, 62, 67
5, 271200, Note_on_c, 3, 46, 58
5, 271226, Note_on_c, 3, 65, 0
5, 271302, Note_on_c, 3, 46, 0
5, 271506, Note_on_c, 3, 62, 0
5, 271680, Note_on_c, 3, 53, 57
5, 271680, Note_on_c, 3, 68, 61
5, 271780, Note_on_c, 3, 53, 0
5, 272160, Note_on_c, 3, 65, 70
5, 272160, Note_on_c, 3, 46, 50
5, 272210, Note_on_c, 3, 68, 0
5, 272236, Note_on_c, 3, 46, 0
5, 272500, Note_on_c, 3, 65, 0
5, 272640, Note_on_c, 3, 65, 69
5, 272640, Note_on_c, 3, 58, 42
5, 272724, Note_on_c, 3, 58, 0
5, 273000, Note_on_c, 3, 46, 63
5, 273062, Note_on_c, 3, 65, 0
5, 273106, Note_on_c, 3, 46, 0
5, 273120, Note_on_c, 3, 62, 65
5, 273406, Note_on_c, 3, 62, 0
5, 273480, Note_on_c, 3, 62, 73
5, 273480, Note_on_c, 3, 65, 71
5, 273544, Note_on_c, 3, 65, 0
5, 273560, Note_on_c, 3, 62, 0
5, 273840, Note_on_c, 3, 62, 68
5, 273840, Note_on_c, 3, 65, 68
5, 274290, Note_on_c, 3, 65, 0
5, 274290, Note_on_c, 3, 62, 0
5, 274320, Note_on_c, 3, 65, 65
5, 274320, Note_on_c, 3, 62, 64
5, 274590, Note_on_c, 3, 65, 0
5, 274592, Note_on_c, 3, 62, 0
5, 274800, Note_on_c, 3, 62, 66
5, 274800, Note_on_c, 3, 65, 67
5, 275110, Note_on_c, 3, 62, 0
5, 275114, Note_on_c, 3, 65, 0
5, 275280, Note_on_c, 3, 62, 71
5, 275280, Note_on_c, 3, 65, 72
5, 275564, Note_on_c, 3, 62, 0
5, 275566, Note_on_c, 3, 65, 0
5, 275760, Note_on_c, 3, 65, 75
5, 275760, Note_on_c, 3, 62, 72
5, 276084, Note_on_c, 3, 62, 0
5, 276084, Note_on_c, 3, 65, 0
5, 276240, Note_on_c, 3, 65, 72
5, 276240, Note_on_c, 3, 62, 73
5, 276560, Note_on_c, 3, 65, 0
5, 276562, Note_on_c, 3, 62, 0
5, 276720, Note_on_c, 3, 65, 73
5, 276720, Note_on_c, 3, 62, 70
5, 277014, Note_on_c, 3, 65, 0
5, 277016, Note_on_c, 3, 62, 0
5, 277200, Note_on_c, 3, 65, 72
5, 277200, Note_on_c, 3, 62, 74
5, 277296, Note_on_c, 3, 65, 0
5, 277312, Note_on_c, 3, 62, 0
5, 277440, Note_on_c, 3, 67, 77
5, 277440, Note_on_c, 3, 63, 93
5, 277516, Note_on_c, 3, 67, 0
5, 277526, Note_on_c, 3, 63, 0
5, 277680, Note_on_c, 3, 63, 119
5, 277680, Note_on_c, 3, 55, 70
5, 277800, Note_on_c, 3, 67, 66
5, 277930, Note_on_c, 3, 63, 0
5, 277964, Note_on_c, 3, 55, 0
5, 278060, Note_on_c, 3, 67, 0
5, 278160, Note_on_c, 3, 58, 89
5, 278160, Note_on_c, 3, 63, 95
5, 278234, Note_on_c, 3, 58, 0
5, 278246, Note_on_c, 3, 63, 0
5, 278400, Note_on_c, 3, 58, 77
5, 278400, Note_on_c, 3, 55, 65
5, 279150, Note_on_c, 3, 58, 0
5, 279186, Note_on_c, 3, 55, 0
5, 279360, Note_on_c, 3, 67, 86
5, 279360, Note_on_c, 3, 63, 87
5, 279436, Note_on_c, 3, 67, 0
5, 279442, Note_on_c, 3, 63, 0
5, 279600, Note_on_c, 3, 67, 86
5, 279600, Note_on_c, 3, 58, 81
5, 279884, Note_on_c, 3, 67, 0
5, 279890, Note_on_c, 3, 58, 0
5, 280080, Note_on_c, 3, 63, 79
5, 280080, Note_on_c, 3, 55, 64
5, 280160, Note_on_c, 3, 55, 0
5, 280162, Note_on_c, 3, 63, 0
5, 280320, Note_on_c, 3, 58, 63
5, 280320, Note_on_c, 3, 55, 64
5, 280770, Note_on_c, 3, 55, 0
5, 280770, Note_on_c, 3, 58, 0
5, 281160, Note_on_c, 3, 55, 80
5, 281160, Note_on_c, 3, 63, 80
5, 281208, Note_on_c, 3, 63, 0
5, 281208, Note_on_c, 3, 55, 0
5, 281220, Note_on_c, 3, 56, 80
5, 281220, Note_on_c, 3, 65, 80
5, 281268, Note_on_c, 3, 65, 0
5, 281268, Note_on_c, 3, 56, 0
5, 281280, Note_on_c, 3, 58, 93
5, 281280, Note_on_c, 3, 67, 84
5, 281582, Note_on_c, 3, 58, 0
5, 281592, Note_on_c, 3, 67, 0
5, 281760, Note_on_c, 3, 63, 81
5, 281760, Note_on_c, 3, 55, 70
5, 281820, Note_on_c, 3, 63, 0
5, 281850, Note_on_c, 3, 55, 0
5, 282000, Note_on_c, 3, 55, 74
5, 282000, Note_on_c, 3, 62, 73
5, 282084, Note_on_c, 3, 62, 0
5, 282084, Note_on_c, 3, 55, 0
5, 282240, Note_on_c, 3, 60, 84
5, 282240, Note_on_c, 3, 56, 82
5, 282690, Note_on_c, 3, 56, 0
5, 282690, Note_on_c, 3, 60, 0
5, 282720, Note_on_c, 3, 56, 80
5, 282720, Note_on_c, 3, 60, 80
5, 282912, Note_on_c, 3, 60, 0
5, 282912, Note_on_c, 3, 56, 0
5, 282960, Note_on_c, 3, 56, 80
5, 282960, Note_on_c, 3, 60, 80
5, 283152, Note_on_c, 3, 60, 0
5, 283152, Note_on_c, 3, 56, 0
5, 283200, Note_on_c, 3, 62, 90
5, 283200, Note_on_c, 3, 53, 81
5, 283500, Note_on_c, 3, 62, 0
5, 283504, Note_on_c, 3, 53, 0
5, 283680, Note_on_c, 3, 62, 90
5, 283680, Note_on_c, 3, 53, 77
5, 283760, Note_on_c, 3, 62, 0
5, 283770, Note_on_c, 3, 53, 0
5, 283920, Note_on_c, 3, 53, 73
5, 283920, Note_on_c, 3, 62, 90
5, 284002, Note_on_c, 3, 62, 0
5, 284012, Note_on_c, 3, 53, 0
5, 284160, Note_on_c, 3, 55, 73
5, 284160, Note_on_c, 3, 63, 99
5, 284442, Note_on_c, 3, 63, 0
5, 284472, Note_on_c, 3, 55, 0
5, 285000, Note_on_c, 3, 63, 80
5, 285000, Note_on_c, 3, 55, 80
5, 285048, Note_on_c, 3, 55, 0
5, 285048, Note_on_c, 3, 63, 0
5, 285060, Note_on_c, 3, 65, 80
5, 285060, Note_on_c, 3, 56, 80
5, 285108, Note_on_c, 3, 56, 0
5, 285108, Note_on_c, 3, 65, 0
5, 285120, Note_on_c, 3, 58, 93
5, 285120, Note_on_c, 3, 67, 84
5, 285422, Note_on_c, 3, 58, 0
5, 285432, Note_on_c, 3, 67, 0
5, 285600, Note_on_c, 3, 63, 81
5, 285600, Note_on_c, 3, 55, 70
5, 285660, Note_on_c, 3, 63, 0
5, 285690, Note_on_c, 3, 55, 0
5, 285840, Note_on_c, 3, 55, 74
5, 285840, Note_on_c, 3, 62, 73
5, 285924, Note_on_c, 3, 62, 0
5, 285924, Note_on_c, 3, 55, 0
5, 286080, Note_on_c, 3, 56, 82
5, 286080, Note_on_c, 3, 60, 84
5, 286530, Note_on_c, 3, 60, 0
5, 286530, Note_on_c, 3, 56, 0
5, 286560, Note_on_c, 3, 56, 80
5, 286560, Note_on_c, 3, 60, 80
5, 286752, Note_on_c, 3, 60, 0
5, 286752, Note_on_c, 3, 56, 0
5, 286800, Note_on_c, 3, 56, 80
5, 286800, Note_on_c, 3, 60, 80
5, 286992, Note_on_c, 3, 60, 0
5, 286992, Note_on_c, 3, 56, 0
5, 287520, Note_on_c, 3, 62, 77
5, 287520, Note_on_c, 3, 53, 66
5, 287610, Note_on_c, 3, 62, 0
5, 287620, Note_on_c, 3, 53, 0
5, 287760, Note_on_c, 3, 53, 67
5, 287760, Note_on_c, 3, 62, 77
5, 287852, Note_on_c, 3, 62, 0
5, 287860, Note_on_c, 3, 53, 0
5, 288000, Note_on_c, 3, 63, 76
5, 290400, Note_on_c, 3, 63, 0
5, 290400, Note_on_c, 3, 64, 76
5, 290880, Note_on_c, 3, 64, 0
5, 290880, Note_on_c, 3, 65, 55
5, 291360, Note_on_c, 3, 65, 0
5, 291840, Note_on_c, 3, 65, 76
5, 294240, Note_on_c, 3, 65, 0
5, 294240, Note_on_c, 3, 66, 76
5, 294720, Note_on_c, 3, 66, 0
5, 294720, Note_on_c, 3, 67, 55
5, 295200, Note_on_c, 3, 67, 0
5, 295680, Note_on_c, 3, 55, 55
5, 295680, Note_on_c, 3, 67, 61
5, 296532, Note_on_c, 3, 55, 0
5, 296570, Note_on_c, 3, 67, 0
5, 296640, Note_on_c, 3, 63, 59
5, 296640, Note_on_c, 3, 51, 59
5, 297424, Note_on_c, 3, 63, 0
5, 297456, Note_on_c, 3, 51, 0
5, 297600, Note_on_c, 3, 48, 35
5, 297600, Note_on_c, 3, 60, 60
5, 298380, Note_on_c, 3, 60, 0
5, 298442, Note_on_c, 3, 48, 0
5, 298560, Note_on_c, 3, 57, 53
5, 298560, Note_on_c, 3, 45, 49
5, 299324, Note_on_c, 3, 45, 0
5, 299342, Note_on_c, 3, 57, 0
5, 299520, Note_on_c, 3, 58, 56
5, 299520, Note_on_c, 3, 46, 56
5, 299914, Note_on_c, 3, 46, 0
5, 299914, Note_on_c, 3, 58, 0
5, 301680, Note_on_c, 3, 58, 71
5, 301756, Note_on_c, 3, 58, 0
5, 301920, Note_on_c, 3, 58, 73
5, 301994, Note_on_c, 3, 58, 0
5, 302160, Note_on_c, 3, 58, 72
5, 302242, Note_on_c, 3, 58, 0
5, 302400, Note_on_c, 3, 60, 98
5, 302636, Note_on_c, 3, 60, 0
5, 302640, Note_on_c, 3, 58, 84
5, 302724, Note_on_c, 3, 58, 0
5, 302880, Note_on_c, 3, 55, 66
5, 302974, Note_on_c, 3, 55, 0
5, 303120, Note_on_c, 3, 51, 97
5, 303192, Note_on_c, 3, 51, 0
5, 303360, Note_on_c, 3, 46, 87
5, 303600, Note_on_c, 3, 46, 0
5, 303840, Note_on_c, 3, 46, 74
5, 304116, Note_on_c, 3, 46, 0
5, 304320, Note_on_c, 3, 51, 83
5, 304600, Note_on_c, 3, 51, 0
5, 304800, Note_on_c, 3, 51, 87
5, 305092, Note_on_c, 3, 51, 0
5, 305280, Note_on_c, 3, 46, 70
5, 305330, Note_on_c, 3, 46, 0
5, 305520, Note_on_c, 3, 58, 110
5, 305594, Note_on_c, 3, 58, 0
5, 305760, Note_on_c, 3, 58, 93
5, 305986, Note_on_c, 3, 58, 0
5, 306000, Note_on_c, 3, 58, 93
5, 306226, Note_on_c, 3, 58, 0
5, 306240, Note_on_c, 3, 60, 92
5, 306466, Note_on_c, 3, 60, 0
5, 306480, Note_on_c, 3, 58, 95
5, 306706, Note_on_c, 3, 58, 0
5, 306720, Note_on_c, 3, 55, 64
5, 306946, Note_on_c, 3, 55, 0
5, 306960, Note_on_c, 3, 51, 101
5, 307024, Note_on_c, 3, 51, 0
5, 307200, Note_on_c, 3, 46, 101
5, 307322, Note_on_c, 3, 46, 0
5, 318720, Note_on_c, 3, 51, 33
5, 318720, Note_on_c, 3, 55, 46
5, 318954, Note_on_c, 3, 51, 0
5, 318960, Note_on_c, 3, 53, 35
5, 318960, Note_on_c, 3, 56, 33
5, 318990, Note_on_c, 3, 55, 0
5, 319056, Note_on_c, 3, 53, 0
5, 319086, Note_on_c, 3, 56, 0
5, 319200, Note_on_c, 3, 55, 45
5, 319200, Note_on_c, 3, 58, 42
5, 319266, Note_on_c, 3, 58, 0
5, 319272, Note_on_c, 3, 55, 0
5, 319440, Note_on_c, 3, 58, 42
5, 319440, Note_on_c, 3, 55, 46
5, 319504, Note_on_c, 3, 58, 0
5, 319510, Note_on_c, 3, 55, 0
5, 319680, Note_on_c, 3, 55, 48
5, 319680, Note_on_c, 3, 58, 49
5, 319920, Note_on_c, 3, 58, 0
5, 319920, Note_on_c, 3, 55, 0
5, 319920, Note_on_c, 3, 56, 45
5, 319920, Note_on_c, 3, 53, 34
5, 320160, Note_on_c, 3, 53, 0
5, 320160, Note_on_c, 3, 56, 0
5, 320160, Note_on_c, 3, 55, 43
5, 320160, Note_on_c, 3, 51, 35
5, 320400, Note_on_c, 3, 51, 0
5, 320400, Note_on_c, 3, 55, 0
5, 320400, Note_on_c, 3, 53, 41
5, 320400, Note_on_c, 3, 50, 32
5, 320640, Note_on_c, 3, 50, 0
5, 320640, Note_on_c, 3, 53, 0
5, 320640, Note_on_c, 3, 48, 40
5, 320640, Note_on_c, 3, 51, 39
5, 320880, Note_on_c, 3, 51, 0
5, 320880, Note_on_c, 3, 48, 0
5, 320880, Note_on_c, 3, 50, 38
5, 320880, Note_on_c, 3, 53, 42
5, 321120, Note_on_c, 3, 53, 0
5, 321120, Note_on_c, 3, 50, 0
5, 321120, Note_on_c, 3, 55, 47
5, 321120, Note_on_c, 3, 51, 40
5, 321180, Note_on_c, 3, 51, 0
5, 321192, Note_on_c, 3, 55, 0
5, 321360, Note_on_c, 3, 55, 42
5, 321360, Note_on_c, 3, 51, 38
5, 321412, Note_on_c, 3, 55, 0
5, 321432, Note_on_c, 3, 51, 0
5, 321600, Note_on_c, 3, 55, 57
5, 321600, Note_on_c, 3, 51, 54
5, 321840, Note_on_c, 3, 53, 39
5, 321840, Note_on_c, 3, 50, 34
5, 321850, Note_on_c, 3, 55, 0
5, 321852, Note_on_c, 3, 51, 0
5, 322080, Note_on_c, 3, 53, 0
5, 322080, Note_on_c, 3, 50, 0
5, 322080, Note_on_c, 3, 48, 38
5, 322080, Note_on_c, 3, 51, 40
5, 322320, Note_on_c, 3, 51, 0
5, 322320, Note_on_c, 3, 48, 0
5, 322320, Note_on_c, 3, 46, 37
5, 322320, Note_on_c, 3, 50, 36
5, 322560, Note_on_c, 3, 50, 0
5, 322560, Note_on_c, 3, 46, 0
5, 322560, Note_on_c, 3, 44, 39
5, 322560, Note_on_c, 3, 48, 39
5, 322800, Note_on_c, 3, 48, 0
5, 322800, Note_on_c, 3, 44, 0
5, 322800, Note_on_c, 3, 50, 44
5, 322800, Note_on_c, 3, 46, 44
5, 323040, Note_on_c, 3, 46, 0
5, 323040, Note_on_c, 3, 50, 0
5, 323040, Note_on_c, 3, 48, 50
5, 323040, Note_on_c, 3, 51, 50
5, 323280, Note_on_c, 3, 51, 0
5, 323280, Note_on_c, 3, 48, 0
5, 323280, Note_on_c, 3, 50, 55
5, 323280, Note_on_c, 3, 53, 55
5, 323520, Note_on_c, 3, 53, 0
5, 323520, Note_on_c, 3, 50, 0
5, 323520, Note_on_c, 3, 51, 60
5, 323520, Note_on_c, 3, 55, 60
5, 323760, Note_on_c, 3, 55, 0
5, 323760, Note_on_c, 3, 51, 0
5, 323760, Note_on_c, 3, 56, 65
5, 323760, Note_on_c, 3, 53, 65
5, 324000, Note_on_c, 3, 53, 0
5, 324000, Note_on_c, 3, 56, 0
5, 324000, Note_on_c, 3, 58, 70
5, 324000, Note_on_c, 3, 55, 70
5, 324240, Note_on_c, 3, 55, 0
5, 324240, Note_on_c, 3, 58, 0
5, 324240, Note_on_c, 3, 56, 76
5, 324240, Note_on_c, 3, 60, 76
5, 324334, Note_on_c, 3, 56, 0
5, 324380, Note_on_c, 3, 60, 0
5, 324480, Note_on_c, 3, 56, 43
5, 324480, Note_on_c, 3, 60, 42
5, 324672, Note_on_c, 3, 60, 0
5, 324704, Note_on_c, 3, 56, 0
5, 324720, Note_on_c, 3, 55, 44
5, 324720, Note_on_c, 3, 58, 44
5, 324834, Note_on_c, 3, 58, 0
5, 324834, Note_on_c, 3, 55, 0
5, 324960, Note_on_c, 3, 56, 54
5, 324960, Note_on_c, 3, 53, 31
5, 325044, Note_on_c, 3, 53, 0
5, 325044, Note_on_c, 3, 56, 0
5, 325200, Note_on_c, 3, 51, 42
5, 325200, Note_on_c, 3, 55, 45
5, 325276, Note_on_c, 3, 51, 0
5, 325286, Note_on_c, 3, 55, 0
5, 325440, Note_on_c, 3, 53, 32
5, 325440, Note_on_c, 3, 50, 28
5, 325746, Note_on_c, 3, 50, 0
5, 325772, Note_on_c, 3, 53, 0
5, 334080, Note_on_c, 3, 63, 113
5, 334882, Note_on_c, 3, 63, 0
5, 335040, Note_on_c, 3, 58, 80
5, 335824, Note_on_c, 3, 58, 0
5, 336000, Note_on_c, 3, 51, 127
5, 336000, Note_on_c, 3, 48, 107
5, 336240, Note_on_c, 3, 48, 0
5, 336240, Note_on_c, 3, 51, 0
5, 336240, Note_on_c, 3, 50, 111
5, 336240, Note_on_c, 3, 53, 126
5, 336480, Note_on_c, 3, 53, 0
5, 336480, Note_on_c, 3, 50, 0
5, 336480, Note_on_c, 3, 55, 120
5, 336480, Note_on_c, 3, 51, 113
5, 336546, Note_on_c, 3, 51, 0
5, 336566, Note_on_c, 3, 55, 0
5, 336720, Note_on_c, 3, 55, 120
5, 336720, Note_on_c, 3, 51, 125
5, 336794, Note_on_c, 3, 51, 0
5, 336794, Note_on_c, 3, 55, 0
5, 336960, Note_on_c, 3, 55, 127
5, 336960, Note_on_c, 3, 51, 125
5, 337200, Note_on_c, 3, 53, 107
5, 337200, Note_on_c, 3, 50, 107
5, 337250, Note_on_c, 3, 55, 0
5, 337256, Note_on_c, 3, 51, 0
5, 337440, Note_on_c, 3, 53, 0
5, 337440, Note_on_c, 3, 50, 0
5, 337440, Note_on_c, 3, 48, 99
5, 337440, Note_on_c, 3, 51, 108
5, 337680, Note_on_c, 3, 51, 0
5, 337680, Note_on_c, 3, 48, 0
5, 337680, Note_on_c, 3, 46, 99
5, 337680, Note_on_c, 3, 50, 117
5, 337920, Note_on_c, 3, 50, 0
5, 337920, Note_on_c, 3, 46, 0
5, 338400, Note_on_c, 3, 60, 66
5, 338474, Note_on_c, 3, 60, 0
5, 338640, Note_on_c, 3, 60, 65
5, 338712, Note_on_c, 3, 60, 0
5, 338880, Note_on_c, 3, 60, 60
5, 338950, Note_on_c, 3, 60, 0
5, 339120, Note_on_c, 3, 62, 66
5, 339196, Note_on_c, 3, 62, 0
5, 339360, Note_on_c, 3, 63, 62
5, 339424, Note_on_c, 3, 63, 0
5, 339600, Note_on_c, 3, 65, 65
5, 339670, Note_on_c, 3, 65, 0
5, 339840, Note_on_c, 3, 67, 56
5, 340320, Note_on_c, 3, 67, 0
5, 340320, Note_on_c, 3, 59, 67
5, 340396, Note_on_c, 3, 59, 0
5, 340560, Note_on_c, 3, 60, 53
5, 340660, Note_on_c, 3, 60, 0
5, 340800, Note_on_c, 3, 62, 80
5, 340880, Note_on_c, 3, 62, 0
5, 341040, Note_on_c, 3, 63, 66
5, 341090, Note_on_c, 3, 63, 0
5, 341280, Note_on_c, 3, 65, 68
5, 341356, Note_on_c, 3, 65, 0
5, 341520, Note_on_c, 3, 67, 85
5, 341594, Note_on_c, 3, 67, 0
5, 341760, Note_on_c, 3, 60, 56
5, 342094, Note_on_c, 3, 60, 0
5, 344160, Note_on_c, 3, 59, 64
5, 344240, Note_on_c, 3, 59, 0
5, 344400, Note_on_c, 3, 60, 72
5, 344504, Note_on_c, 3, 60, 0
5, 344640, Note_on_c, 3, 62, 68
5, 344724, Note_on_c, 3, 62, 0
5, 344880, Note_on_c, 3, 63, 71
5, 344946, Note_on_c, 3, 63, 0
5, 345120, Note_on_c, 3, 65, 76
5, 345210, Note_on_c, 3, 65, 0
5, 345360, Note_on_c, 3, 67, 66
5, 345424, Note_on_c, 3, 67, 0
5, 345600, Note_on_c, 3, 60, 90
5, 346002, Note_on_c, 3, 60, 0
5, 346080, Note_on_c, 3, 55, 56
5, 347040, Note_on_c, 3, 55, 0
5, 347040, Note_on_c, 3, 57, 56
5, 347520, Note_on_c, 3, 57, 0
5, 347520, Note_on_c, 3, 46, 47
5, 347520, Note_on_c, 3, 58, 56
5, 347740, Note_on_c, 3, 46, 0
5, 347742, Note_on_c, 3, 58, 0
5, 348000, Note_on_c, 3, 58, 76
5, 348000, Note_on_c, 3, 46, 68
5, 349792, Note_on_c, 3, 46, 0
5, 349800, Note_on_c, 3, 58, 0
5, 349920, Note_on_c, 3, 46, 91
5, 349920, Note_on_c, 3, 58, 105
5, 351840, Note_on_c, 3, 58, 0
5, 351840, Note_on_c, 3, 46, 0
5, 351840, Note_on_c, 3, 58, 112
5, 351840, Note_on_c, 3, 46, 112
5, 353220, Note_on_c, 3, 46, 0
5, 353220, Note_on_c, 3, 58, 0
5, 353280, Note_on_c, 3, 39, 82
5, 353730, Note_on_c, 3, 39, 0
5, 353760, Note_on_c, 3, 43, 80
5, 354000, Note_on_c, 3, 43, 0
5, 354000, Note_on_c, 3, 44, 80
5, 354240, Note_on_c, 3, 44, 0
5, 354240, Note_on_c, 3, 46, 80
5, 354720, Note_on_c, 3, 46, 0
5, 354720, Note_on_c, 3, 48, 80
5, 355200, Note_on_c, 3, 48, 0
5, 355200, Note_on_c, 3, 50, 80
5, 355680, Note_on_c, 3, 50, 0
5, 355680, Note_on_c, 3, 51, 80
5, 356160, Note_on_c, 3, 51, 0
5, 356160, Note_on_c, 3, 53, 80
5, 356640, Note_on_c, 3, 53, 0
5, 356640, Note_on_c, 3, 55, 80
5, 357024, Note_on_c, 3, 55, 0
5, 357120, Note_on_c, 3, 44, 63
5, 357600, Note_on_c, 3, 46, 61
5, 357612, Note_on_c, 3, 44, 0
5, 358080, Note_on_c, 3, 46, 0
5, 358080, Note_on_c, 3, 48, 61
5, 358560, Note_on_c, 3, 48, 0
5, 358560, Note_on_c, 3, 50, 48
5, 358944, Note_on_c, 3, 50, 0
5, 359040, Note_on_c, 3, 51, 60
5, 359520, Note_on_c, 3, 51, 0
5, 359520, Note_on_c, 3, 53, 59
5, 360000, Note_on_c, 3, 53, 0
5, 360000, Note_on_c, 3, 55, 73
5, 360480, Note_on_c, 3, 55, 0
5, 360480, Note_on_c, 3, 56, 68
5, 360830, Note_on_c, 3, 56, 0
5, 360960, Note_on_c, 3, 58, 72
5, 361440, Note_on_c, 3, 55, 79
5, 361444, Note_on_c, 3, 58, 0
5, 361920, Note_on_c, 3, 55, 0
5, 361920, Note_on_c, 3, 51, 61
5, 362400, Note_on_c, 3, 55, 74
5, 362416, Note_on_c, 3, 51, 0
5, 362644, Note_on_c, 3, 55, 0
5, 362880, Note_on_c, 3, 46, 68
5, 363360, Note_on_c, 3, 51, 67
5, 363394, Note_on_c, 3, 46, 0
5, 363840, Note_on_c, 3, 44, 67
5, 363852, Note_on_c, 3, 51, 0
5, 364320, Note_on_c, 3, 50, 67
5, 364374, Note_on_c, 3, 44, 0
5, 364774, Note_on_c, 3, 50, 0
5, 364800, Note_on_c, 3, 43, 77
5, 365032, Note_on_c, 3, 43, 0
5, 365280, Note_on_c, 3, 43, 76
5, 365502, Note_on_c, 3, 43, 0
5, 365520, Note_on_c, 3, 44, 73
5, 365760, Note_on_c, 3, 44, 0
5, 365760, Note_on_c, 3, 46, 66
5, 366240, Note_on_c, 3, 48, 54
5, 366252, Note_on_c, 3, 46, 0
5, 366720, Note_on_c, 3, 48, 0
5, 366720, Note_on_c, 3, 50, 70
5, 367200, Note_on_c, 3, 50, 0
5, 367200, Note_on_c, 3, 51, 65
5, 367680, Note_on_c, 3, 53, 44
5, 367712, Note_on_c, 3, 51, 0
5, 368160, Note_on_c, 3, 55, 60
5, 368194, Note_on_c, 3, 53, 0
5, 368424, Note_on_c, 3, 55, 0
5, 368640, Note_on_c, 3, 44, 81
5, 369120, Note_on_c, 3, 46, 60
5, 369144, Note_on_c, 3, 44, 0
5, 369600, Note_on_c, 3, 48, 54
5, 369606, Note_on_c, 3, 46, 0
5, 370080, Note_on_c, 3, 50, 50
5, 370122, Note_on_c, 3, 48, 0
5, 370560, Note_on_c, 3, 51, 46
5, 370616, Note_on_c, 3, 50, 0
5, 371040, Note_on_c, 3, 51, 0
5, 371040, Note_on_c, 3, 53, 57
5, 371520, Note_on_c, 3, 53, 0
5, 371520, Note_on_c, 3, 55, 70
5, 372000, Note_on_c, 3, 55, 0
5, 372000, Note_on_c, 3, 56, 59
5, 372450, Note_on_c, 3, 56, 0
5, 372480, Note_on_c, 3, 46, 81
5, 372960, Note_on_c, 3, 46, 0
5, 372960, Note_on_c, 3, 48, 60
5, 373440, Note_on_c, 3, 48, 0
5, 373440, Note_on_c, 3, 49, 54
5, 373920, Note_on_c, 3, 49, 0
5, 373920, Note_on_c, 3, 51, 50
5, 374400, Note_on_c, 3, 51, 0
5, 374400, Note_on_c, 3, 53, 46
5, 374880, Note_on_c, 3, 53, 0
5, 374880, Note_on_c, 3, 55, 57
5, 375120, Note_on_c, 3, 55, 0
5, 375120, Note_on_c, 3, 56, 57
5, 375360, Note_on_c, 3, 56, 0
5, 375360, Note_on_c, 3, 58, 70
5, 375840, Note_on_c, 3, 58, 0
5, 375840, Note_on_c, 3, 46, 59
5, 376290, Note_on_c, 3, 46, 0
5, 376320, Note_on_c, 3, 48, 46
5, 376800, Note_on_c, 3, 48, 0
5, 376800, Note_on_c, 3, 49, 57
5, 377280, Note_on_c, 3, 49, 0
5, 377280, Note_on_c, 3, 51, 70
5, 377760, Note_on_c, 3, 51, 0
5, 377760, Note_on_c, 3, 53, 59
5, 378210, Note_on_c, 3, 53, 0
5, 378240, Note_on_c, 3, 55, 46
5, 378720, Note_on_c, 3, 55, 0
5, 378720, Note_on_c, 3, 57, 57
5, 378960, Note_on_c, 3, 57, 0
5, 378960, Note_on_c, 3, 58, 57
5, 379200, Note_on_c, 3, 58, 0
5, 379200, Note_on_c, 3, 60, 70
5, 379680, Note_on_c, 3, 60, 0
5, 379680, Note_on_c, 3, 48, 59
5, 380130, Note_on_c, 3, 48, 0
5, 380160, Note_on_c, 3, 50, 58
5, 380640, Note_on_c, 3, 50, 0
5, 380640, Note_on_c, 3, 51, 71
5, 381120, Note_on_c, 3, 51, 0
5, 381120, Note_on_c, 3, 53, 88
5, 381600, Note_on_c, 3, 53, 0
5, 381600, Note_on_c, 3, 55, 74
5, 382050, Note_on_c, 3, 55, 0
5, 382080, Note_on_c, 3, 56, 58
5, 382560, Note_on_c, 3, 56, 0
5, 382560, Note_on_c, 3, 58, 71
5, 382800, Note_on_c, 3, 58, 0
5, 382800, Note_on_c, 3, 60, 71
5, 383040, Note_on_c, 3, 60, 0
5, 383040, Note_on_c, 3, 62, 88
5, 383520, Note_on_c, 3, 62, 0
5, 383520, Note_on_c, 3, 50, 74
5, 383970, Note_on_c, 3, 50, 0
5, 384000, Note_on_c, 3, 56, 88
5, 384480, Note_on_c, 3, 56, 0
5, 384480, Note_on_c, 3, 53, 74
5, 384930, Note_on_c, 3, 53, 0
5, 384960, Note_on_c, 3, 50, 88
5, 385440, Note_on_c, 3, 50, 0
5, 385440, Note_on_c, 3, 46, 74
5, 385890, Note_on_c, 3, 46, 0
5, 385920, Note_on_c, 3, 46, 74
5, 386370, Note_on_c, 3, 46, 0
5, 386400, Note_on_c, 3, 46, 74
5, 386850, Note_on_c, 3, 46, 0
5, 386880, Note_on_c, 3, 46, 74
5, 387330, Note_on_c, 3, 46, 0
5, 387360, Note_on_c, 3, 46, 74
5, 387810, Note_on_c, 3, 46, 0
5, 387840, Note_on_c, 3, 46, 74
5, 389760, Note_on_c, 3, 46, 0
5, 391680, Note_on_c, 3, 50, 24
5, 391680, Note_on_c, 3, 46, 24
5, 391714, Note_on_c, 3, 46, 0
5, 391722, Note_on_c, 3, 50, 0
5, 391920, Note_on_c, 3, 53, 29
5, 391920, Note_on_c, 3, 50, 25
5, 391960, Note_on_c, 3, 50, 0
5, 391962, Note_on_c, 3, 53, 0
5, 392160, Note_on_c, 3, 50, 25
5, 392160, Note_on_c, 3, 53, 31
5, 392194, Note_on_c, 3, 50, 0
5, 392196, Note_on_c, 3, 53, 0
5, 392400, Note_on_c, 3, 50, 22
5, 392400, Note_on_c, 3, 46, 26
5, 392432, Note_on_c, 3, 46, 0
5, 392444, Note_on_c, 3, 50, 0
5, 392640, Note_on_c, 3, 46, 25
5, 392640, Note_on_c, 3, 51, 23
5, 392670, Note_on_c, 3, 51, 0
5, 392676, Note_on_c, 3, 46, 0
5, 392880, Note_on_c, 3, 55, 29
5, 392880, Note_on_c, 3, 51, 33
5, 392912, Note_on_c, 3, 51, 0
5, 392920, Note_on_c, 3, 55, 0
5, 393120, Note_on_c, 3, 51, 29
5, 393120, Note_on_c, 3, 55, 30
5, 393142, Note_on_c, 3, 51, 0
5, 393156, Note_on_c, 3, 55, 0
5, 407040, Note_on_c, 3, 63, 75
5, 407520, Note_on_c, 3, 63, 0
5, 407520, Note_on_c, 3, 60, 75
5, 408000, Note_on_c, 3, 60, 0
5, 408000, Note_on_c, 3, 55, 75
5, 408000, Note_on_c, 3, 67, 75
5, 410370, Note_on_c, 3, 67, 0
5, 410370, Note_on_c, 3, 55, 0
5, 410400, Note_on_c, 3, 83, 84
5, 410400, Note_on_c, 3, 59, 84
5, 410496, Note_on_c, 3, 59, 0
5, 410496, Note_on_c, 3, 83, 0
5, 410640, Note_on_c, 3, 59, 84
5, 410640, Note_on_c, 3, 83, 84
5, 410736, Note_on_c, 3, 83, 0
5, 410736, Note_on_c, 3, 59, 0
5, 410880, Note_on_c, 3, 60, 84
5, 410880, Note_on_c, 3, 64, 84
5, 411120, Note_on_c, 3, 64, 0
5, 411120, Note_on_c, 3, 60, 0
5, 411120, Note_on_c, 3, 65, 84
5, 411120, Note_on_c, 3, 62, 84
5, 411216, Note_on_c, 3, 62, 0
5, 411216, Note_on_c, 3, 65, 0
5, 411360, Note_on_c, 3, 67, 84
5, 411360, Note_on_c, 3, 64, 84
5, 411456, Note_on_c, 3, 64, 0
5, 411456, Note_on_c, 3, 67, 0
5, 411600, Note_on_c, 3, 67, 84
5, 411600, Note_on_c, 3, 64, 84
5, 411696, Note_on_c, 3, 64, 0
5, 411696, Note_on_c, 3, 67, 0
5, 411840, Note_on_c, 3, 64, 84
5, 411840, Note_on_c, 3, 67, 84
5, 412080, Note_on_c, 3, 67, 0
5, 412080, Note_on_c, 3, 64, 0
5, 412080, Note_on_c, 3, 62, 84
5, 412080, Note_on_c, 3, 65, 84
5, 412320, Note_on_c, 3, 65, 0
5, 412320, Note_on_c, 3, 62, 0
5, 412320, Note_on_c, 3, 64, 84
5, 412320, Note_on_c, 3, 60, 84
5, 412560, Note_on_c, 3, 60, 0
5, 412560, Note_on_c, 3, 64, 0
5, 412560, Note_on_c, 3, 59, 84
5, 412560, Note_on_c, 3, 62, 84
5, 412656, Note_on_c, 3, 62, 0
5, 412656, Note_on_c, 3, 59, 0
5, 412800, Note_on_c, 3, 64, 84
5, 412800, Note_on_c, 3, 60, 84
5, 413040, Note_on_c, 3, 60, 0
5, 413040, Note_on_c, 3, 64, 0
5, 413040, Note_on_c, 3, 65, 84
5, 413040, Note_on_c, 3, 62, 84
5, 413136, Note_on_c, 3, 62, 0
5, 413136, Note_on_c, 3, 65, 0
5, 413280, Note_on_c, 3, 64, 84
5, 413280, Note_on_c, 3, 67, 84
5, 413376, Note_on_c, 3, 67, 0
5, 413376, Note_on_c, 3, 64, 0
5, 413520, Note_on_c, 3, 64, 84
5, 413520, Note_on_c, 3, 67, 84
5, 413616, Note_on_c, 3, 67, 0
5, 413616, Note_on_c, 3, 64, 0
5, 413760, Note_on_c, 3, 67, 84
5, 413760, Note_on_c, 3, 64, 84
5, 414000, Note_on_c, 3, 64, 0
5, 414000, Note_on_c, 3, 67, 0
5, 414000, Note_on_c, 3, 65, 84
5, 414000, Note_on_c, 3, 62, 84
5, 414240, Note_on_c, 3, 62, 0
5, 414240, Note_on_c, 3, 65, 0
5, 414240, Note_on_c, 3, 64, 84
5, 414240, Note_on_c, 3, 60, 84
5, 414480, Note_on_c, 3, 60, 0
5, 414480, Note_on_c, 3, 64, 0
5, 414480, Note_on_c, 3, 59, 84
5, 414480, Note_on_c, 3, 62, 84
5, 414576, Note_on_c, 3, 62, 0
5, 414576, Note_on_c, 3, 59, 0
5, 414720, Note_on_c, 3, 60, 84
5, 414720, Note_on_c, 3, 64, 84
5, 414960, Note_on_c, 3, 64, 0
5, 414960, Note_on_c, 3, 60, 0
5, 414960, Note_on_c, 3, 62, 84
5, 414960, Note_on_c, 3, 65, 84
5, 415056, Note_on_c, 3, 65, 0
5, 415056, Note_on_c, 3, 62, 0
5, 415200, Note_on_c, 3, 64, 84
5, 415200, Note_on_c, 3, 67, 84
5, 415296, Note_on_c, 3, 67, 0
5, 415296, Note_on_c, 3, 64, 0
5, 415440, Note_on_c, 3, 64, 84
5, 415440, Note_on_c, 3, 67, 84
5, 415536, Note_on_c, 3, 67, 0
5, 415536, Note_on_c, 3, 64, 0
5, 415680, Note_on_c, 3, 64, 84
5, 415680, Note_on_c, 3, 67, 84
5, 415920, Note_on_c, 3, 67, 0
5, 415920, Note_on_c, 3, 64, 0
5, 415920, Note_on_c, 3, 62, 84
5, 415920, Note_on_c, 3, 65, 84
5, 416160, Note_on_c, 3, 65, 0
5, 416160, Note_on_c, 3, 62, 0
5, 416160, Note_on_c, 3, 64, 84
5, 416160, Note_on_c, 3, 60, 84
5, 416400, Note_on_c, 3, 60, 0
5, 416400, Note_on_c, 3, 64, 0
5, 416400, Note_on_c, 3, 62, 84
5, 416400, Note_on_c, 3, 59, 84
5, 416496, Note_on_c, 3, 59, 0
5, 416496, Note_on_c, 3, 62, 0
5, 416640, Note_on_c, 3, 64, 84
5, 416640, Note_on_c, 3, 60, 84
5, 417090, Note_on_c, 3, 60, 0
5, 417090, Note_on_c, 3, 64, 0
5, 417120, Note_on_c, 3, 55, 100
5, 418080, Note_on_c, 3, 55, 0
5, 418080, Note_on_c, 3, 57, 100
5, 418560, Note_on_c, 3, 57, 0
5, 418560, Note_on_c, 3, 58, 80
5, 419970, Note_on_c, 3, 58, 0
5, 420000, Note_on_c, 3, 53, 84
5, 420000, Note_on_c, 3, 62, 84
5, 420096, Note_on_c, 3, 62, 0
5, 420096, Note_on_c, 3, 53, 0
5, 420240, Note_on_c, 3, 53, 84
5, 420240, Note_on_c, 3, 62, 84
5, 420336, Note_on_c, 3, 62, 0
5, 420336, Note_on_c, 3, 53, 0
5, 420480, Note_on_c, 3, 63, 84
5, 420480, Note_on_c, 3, 55, 84
5, 420720, Note_on_c, 3, 55, 0
5, 420720, Note_on_c, 3, 63, 0
5, 420720, Note_on_c, 3, 56, 84
5, 420720, Note_on_c, 3, 65, 84
5, 420816, Note_on_c, 3, 65, 0
5, 420816, Note_on_c, 3, 56, 0
5, 420960, Note_on_c, 3, 67, 84
5, 420960, Note_on_c, 3, 58, 84
5, 421056, Note_on_c, 3, 58, 0
5, 421056, Note_on_c, 3, 67, 0
5, 421200, Note_on_c, 3, 58, 84
5, 421200, Note_on_c, 3, 67, 84
5, 421296, Note_on_c, 3, 67, 0
5, 421296, Note_on_c, 3, 58, 0
5, 421440, Note_on_c, 3, 67, 84
5, 421440, Note_on_c, 3, 58, 84
5, 421680, Note_on_c, 3, 58, 0
5, 421680, Note_on_c, 3, 67, 0
5, 421680, Note_on_c, 3, 56, 84
5, 421680, Note_on_c, 3, 65, 84
5, 421920, Note_on_c, 3, 65, 0
5, 421920, Note_on_c, 3, 56, 0
5, 421920, Note_on_c, 3, 55, 84
5, 421920, Note_on_c, 3, 63, 84
5, 422160, Note_on_c, 3, 63, 0
5, 422160, Note_on_c, 3, 55, 0
5, 422160, Note_on_c, 3, 62, 84
5, 422160, Note_on_c, 3, 53, 84
5, 422256, Note_on_c, 3, 53, 0
5, 422256, Note_on_c, 3, 62, 0
5, 422400, Note_on_c, 3, 55, 84
5, 422400, Note_on_c, 3, 63, 84
5, 422640, Note_on_c, 3, 63, 0
5, 422640, Note_on_c, 3, 55, 0
5, 422640, Note_on_c, 3, 65, 84
5, 422640, Note_on_c, 3, 56, 84
5, 422736, Note_on_c, 3, 56, 0
5, 422736, Note_on_c, 3, 65, 0
5, 422880, Note_on_c, 3, 58, 84
5, 422880, Note_on_c, 3, 67, 84
5, 422976, Note_on_c, 3, 67, 0
5, 422976, Note_on_c, 3, 58, 0
5, 423120, Note_on_c, 3, 58, 84
5, 423120, Note_on_c, 3, 67, 84
5, 423216, Note_on_c, 3, 67, 0
5, 423216, Note_on_c, 3, 58, 0
5, 423360, Note_on_c, 3, 67, 84
5, 423360, Note_on_c, 3, 58, 84
5, 423600, Note_on_c, 3, 58, 0
5, 423600, Note_on_c, 3, 67, 0
5, 423600, Note_on_c, 3, 56, 84
5, 423600, Note_on_c, 3, 65, 84
5, 423840, Note_on_c, 3, 65, 0
5, 423840, Note_on_c, 3, 56, 0
5, 423840, Note_on_c, 3, 55, 84
5, 423840, Note_on_c, 3, 63, 84
5, 424080, Note_on_c, 3, 63, 0
5, 424080, Note_on_c, 3, 55, 0
5, 424080, Note_on_c, 3, 53, 84
5, 424080, Note_on_c, 3, 62, 84
5, 424176, Note_on_c, 3, 62, 0
5, 424176, Note_on_c, 3, 53, 0
5, 424320, Note_on_c, 3, 55, 84
5, 424320, Note_on_c, 3, 63, 84
5, 424560, Note_on_c, 3, 63, 0
5, 424560, Note_on_c, 3, 55, 0
5, 424560, Note_on_c, 3, 65, 84
5, 424560, Note_on_c, 3, 56, 84
5, 424656, Note_on_c, 3, 56, 0
5, 424656, Note_on_c, 3, 65, 0
5, 424800, Note_on_c, 3, 58, 84
5, 424800, Note_on_c, 3, 67, 84
5, 424896, Note_on_c, 3, 67, 0
5, 424896, Note_on_c, 3, 58, 0
5, 425040, Note_on_c, 3, 58, 84
5, 425040, Note_on_c, 3, 67, 84
5, 425136, Note_on_c, 3, 67, 0
5, 425136, Note_on_c, 3, 58, 0
5, 425280, Note_on_c, 3, 67, 84
5, 425280, Note_on_c, 3, 58, 84
5, 425520, Note_on_c, 3, 58, 0
5, 425520, Note_on_c, 3, 67, 0
5, 425520, Note_on_c, 3, 56, 84
5, 425520, Note_on_c, 3, 65, 84
5, 425760, Note_on_c, 3, 65, 0
5, 425760, Note_on_c, 3, 56, 0
5, 425760, Note_on_c, 3, 55, 84
5, 425760, Note_on_c, 3, 63, 84
5, 426000, Note_on_c, 3, 63, 0
5, 426000, Note_on_c, 3, 55, 0
5, 426000, Note_on_c, 3, 53, 84
5, 426000, Note_on_c, 3, 62, 84
5, 426096, Note_on_c, 3, 62, 0
5, 426096, Note_on_c, 3, 53, 0
5, 426240, Note_on_c, 3, 55, 84
5, 426240, Note_on_c, 3, 63, 84
5, 426480, Note_on_c, 3, 63, 0
5, 426480, Note_on_c, 3, 55, 0
5, 426480, Note_on_c, 3, 65, 84
5, 426480, Note_on_c, 3, 56, 84
5, 426576, Note_on_c, 3, 56, 0
5, 426576, Note_on_c, 3, 65, 0
5, 426720, Note_on_c, 3, 58, 84
5, 426720, Note_on_c, 3, 67, 84
5, 426816, Note_on_c, 3, 67, 0
5, 426816, Note_on_c, 3, 58, 0
5, 426960, Note_on_c, 3, 58, 84
5, 426960, Note_on_c, 3, 67, 84
5, 427056, Note_on_c, 3, 67, 0
5, 427056, Note_on_c, 3, 58, 0
5, 427200, Note_on_c, 3, 67, 84
5, 427200, Note_on_c, 3, 58, 84
5, 427440, Note_on_c, 3, 58, 0
5, 427440, Note_on_c, 3, 67, 0
5, 427440, Note_on_c, 3, 56, 84
5, 427440, Note_on_c, 3, 65, 84
5, 427680, Note_on_c, 3, 65, 0
5, 427680, Note_on_c, 3, 56, 0
5, 427680, Note_on_c, 3, 55, 84
5, 427680, Note_on_c, 3, 63, 84
5, 427920, Note_on_c, 3, 63, 0
5, 427920, Note_on_c, 3, 55, 0
5, 427920, Note_on_c, 3, 53, 84
5, 427920, Note_on_c, 3, 62, 84
5, 428016, Note_on_c, 3, 62, 0
5, 428016, Note_on_c, 3, 53, 0
5, 428160, Note_on_c, 3, 55, 56
5, 428160, Note_on_c, 3, 63, 56
5, 428386, Note_on_c, 3, 63, 0
5, 428386, Note_on_c, 3, 55, 0
5, 429120, Note_on_c, 3, 55, 52
5, 429120, Note_on_c, 3, 58, 52
5, 429240, Note_on_c, 3, 58, 0
5, 429240, Note_on_c, 3, 55, 0
5, 429360, Note_on_c, 3, 55, 52
5, 429360, Note_on_c, 3, 58, 52
5, 429720, Note_on_c, 3, 58, 0
5, 429720, Note_on_c, 3, 55, 0
5, 429840, Note_on_c, 3, 58, 52
5, 429840, Note_on_c, 3, 55, 52
5, 429960, Note_on_c, 3, 55, 0
5, 429960, Note_on_c, 3, 58, 0
5, 430080, Note_on_c, 3, 56, 56
5, 430080, Note_on_c, 3, 60, 56
5, 430306, Note_on_c, 3, 60, 0
5, 430306, Note_on_c, 3, 56, 0
5, 431040, Note_on_c, 3, 56, 56
5, 431040, Note_on_c, 3, 60, 56
5, 431266, Note_on_c, 3, 60, 0
5, 431266, Note_on_c, 3, 56, 0
5, 431280, Note_on_c, 3, 56, 56
5, 431280, Note_on_c, 3, 60, 56
5, 431746, Note_on_c, 3, 60, 0
5, 431746, Note_on_c, 3, 56, 0
5, 431760, Note_on_c, 3, 60, 56
5, 431760, Note_on_c, 3, 56, 56
5, 431986, Note_on_c, 3, 56, 0
5, 431986, Note_on_c, 3, 60, 0
5, 432000, Note_on_c, 3, 57, 56
5, 432000, Note_on_c, 3, 60, 56
5, 432226, Note_on_c, 3, 60, 0
5, 432226, Note_on_c, 3, 57, 0
5, 432240, Note_on_c, 3, 57, 56
5, 432240, Note_on_c, 3, 60, 56
5, 432466, Note_on_c, 3, 60, 0
5, 432466, Note_on_c, 3, 57, 0
5, 432480, Note_on_c, 3, 60, 56
5, 432480, Note_on_c, 3, 57, 56
5, 432706, Note_on_c, 3, 57, 0
5, 432706, Note_on_c, 3, 60, 0
5, 432960, Note_on_c, 3, 57, 56
5, 432960, Note_on_c, 3, 60, 56
5, 433186, Note_on_c, 3, 60, 0
5, 433186, Note_on_c, 3, 57, 0
5, 433200, Note_on_c, 3, 57, 56
5, 433200, Note_on_c, 3, 60, 56
5, 433426, Note_on_c, 3, 60, 0
5, 433426, Note_on_c, 3, 57, 0
5, 433440, Note_on_c, 3, 60, 56
5, 433440, Note_on_c, 3, 57, 56
5, 433666, Note_on_c, 3, 57, 0
5, 433666, Note_on_c, 3, 60, 0
5, 433920, Note_on_c, 3, 46, 56
5, 433920, Note_on_c, 3, 55, 56
5, 434146, Note_on_c, 3, 55, 0
5, 434146, Note_on_c, 3, 46, 0
5, 434160, Note_on_c, 3, 55, 56
5, 434160, Note_on_c, 3, 46, 56
5, 434386, Note_on_c, 3, 46, 0
5, 434386, Note_on_c, 3, 55, 0
5, 434400, Note_on_c, 3, 55, 56
5, 434400, Note_on_c, 3, 46, 56
5, 434626, Note_on_c, 3, 46, 0
5, 434626, Note_on_c, 3, 55, 0
5, 434880, Note_on_c, 3, 53, 56
5, 434880, Note_on_c, 3, 46, 56
5, 435106, Note_on_c, 3, 46, 0
5, 435106, Note_on_c, 3, 53, 0
5, 435120, Note_on_c, 3, 53, 56
5, 435120, Note_on_c, 3, 46, 56
5, 435346, Note_on_c, 3, 46, 0
5, 435346, Note_on_c, 3, 53, 0
5, 435360, Note_on_c, 3, 46, 56
5, 435360, Note_on_c, 3, 53, 56
5, 435586, Note_on_c, 3, 53, 0
5, 435586, Note_on_c, 3, 46, 0
5, 435840, Note_on_c, 3, 63, 56
5, 435840, Note_on_c, 3, 55, 56
5, 436066, Note_on_c, 3, 55, 0
5, 436066, Note_on_c, 3, 63, 0
5, 436800, Note_on_c, 3, 55, 52
5, 436800, Note_on_c, 3, 58, 52
5, 436920, Note_on_c, 3, 58, 0
5, 436920, Note_on_c, 3, 55, 0
5, 437040, Note_on_c, 3, 55, 52
5, 437040, Note_on_c, 3, 58, 52
5, 437400, Note_on_c, 3, 58, 0
5, 437400, Note_on_c, 3, 55, 0
5, 437520, Note_on_c, 3, 58, 52
5, 437520, Note_on_c, 3, 55, 52
5, 437640, Note_on_c, 3, 55, 0
5, 437640, Note_on_c, 3, 58, 0
5, 437760, Note_on_c, 3, 56, 56
5, 437760, Note_on_c, 3, 60, 56
5, 437986, Note_on_c, 3, 60, 0
5, 437986, Note_on_c, 3, 56, 0
5, 438720, Note_on_c, 3, 56, 56
5, 438720, Note_on_c, 3, 60, 56
5, 438946, Note_on_c, 3, 60, 0
5, 438946, Note_on_c, 3, 56, 0
5, 438960, Note_on_c, 3, 56, 56
5, 438960, Note_on_c, 3, 60, 56
5, 439426, Note_on_c, 3, 60, 0
5, 439426, Note_on_c, 3, 56, 0
5, 439440, Note_on_c, 3, 60, 56
5, 439440, Note_on_c, 3, 56, 56
5, 439666, Note_on_c, 3, 56, 0
5, 439666, Note_on_c, 3, 60, 0
5, 439680, Note_on_c, 3, 57, 56
5, 439680, Note_on_c, 3, 60, 56
5, 439906, Note_on_c, 3, 60, 0
5, 439906, Note_on_c, 3, 57, 0
5, 439920, Note_on_c, 3, 57, 56
5, 439920, Note_on_c, 3, 60, 56
5, 440146, Note_on_c, 3, 60, 0
5, 440146, Note_on_c, 3, 57, 0
5, 440160, Note_on_c, 3, 60, 56
5, 440160, Note_on_c, 3, 57, 56
5, 440386, Note_on_c, 3, 57, 0
5, 440386, Note_on_c, 3, 60, 0
5, 440640, Note_on_c, 3, 57, 56
5, 440640, Note_on_c, 3, 60, 56
5, 440866, Note_on_c, 3, 60, 0
5, 440866, Note_on_c, 3, 57, 0
5, 440880, Note_on_c, 3, 57, 56
5, 440880, Note_on_c, 3, 60, 56
5, 441106, Note_on_c, 3, 60, 0
5, 441106, Note_on_c, 3, 57, 0
5, 441120, Note_on_c, 3, 60, 56
5, 441120, Note_on_c, 3, 57, 56
5, 441346, Note_on_c, 3, 57, 0
5, 441346, Note_on_c, 3, 60, 0
5, 441600, Note_on_c, 3, 46, 56
5, 441600, Note_on_c, 3, 55, 56
5, 441826, Note_on_c, 3, 55, 0
5, 441826, Note_on_c, 3, 46, 0
5, 441840, Note_on_c, 3, 55, 56
5, 441840, Note_on_c, 3, 46, 56
5, 442066, Note_on_c, 3, 46, 0
5, 442066, Note_on_c, 3, 55, 0
5, 442080, Note_on_c, 3, 55, 56
5, 442080, Note_on_c, 3, 46, 56
5, 442306, Note_on_c, 3, 46, 0
5, 442306, Note_on_c, 3, 55, 0
5, 442560, Note_on_c, 3, 53, 56
5, 442560, Note_on_c, 3, 46, 56
5, 442786, Note_on_c, 3, 46, 0
5, 442786, Note_on_c, 3, 53, 0
5, 442800, Note_on_c, 3, 53, 56
5, 442800, Note_on_c, 3, 46, 56
5, 443026, Note_on_c, 3, 46, 0
5, 443026, Note_on_c, 3, 53, 0
5, 443040, Note_on_c, 3, 46, 56
5, 443040, Note_on_c, 3, 53, 56
5, 443266, Note_on_c, 3, 53, 0
5, 443266, Note_on_c, 3, 46, 0
5, 443520, Note_on_c, 3, 51, 80
5, 443520, Note_on_c, 3, 55, 80
5, 446400, Note_on_c, 3, 55, 0
5, 446400, Note_on_c, 3, 51, 0
5, 446400, Note_on_c, 3, 56, 100
5, 446400, Note_on_c, 3, 53, 80
5, 446880, Note_on_c, 3, 53, 0
5, 446880, Note_on_c, 3, 56, 0
5, 446880, Note_on_c, 3, 53, 80
5, 446880, Note_on_c, 3, 50, 80
5, 447360, Note_on_c, 3, 50, 0
5, 447360, Note_on_c, 3, 53, 0
5, 447360, Note_on_c, 3, 51, 80
5, 447360, Note_on_c, 3, 55, 80
5, 450240, Note_on_c, 3, 55, 0
5, 450240, Note_on_c, 3, 51, 0
5, 450240, Note_on_c, 3, 53, 80
5, 450240, Note_on_c, 3, 56, 100
5, 450720, Note_on_c, 3, 56, 0
5, 450720, Note_on_c, 3, 53, 0
5, 450720, Note_on_c, 3, 50, 80
5, 450720, Note_on_c, 3, 53, 80
5, 451200, Note_on_c, 3, 53, 0
5, 451200, Note_on_c, 3, 50, 0
5, 451200, Note_on_c, 3, 51, 80
5, 451200, Note_on_c, 3, 55, 80
5, 454080, Note_on_c, 3, 55, 0
5, 454080, Note_on_c, 3, 51, 0
5, 454080, Note_on_c, 3, 53, 80
5, 454080, Note_on_c, 3, 56, 100
5, 454560, Note_on_c, 3, 56, 0
5, 454560, Note_on_c, 3, 53, 0
5, 454560, Note_on_c, 3, 50, 80
5, 454560, Note_on_c, 3, 53, 80
5, 455040, Note_on_c, 3, 53, 0
5, 455040, Note_on_c, 3, 50, 0
5, 455040, Note_on_c, 3, 51, 80
5, 455040, Note_on_c, 3, 55, 80
5, 457920, Note_on_c, 3, 55, 0
5, 457920, Note_on_c, 3, 51, 0
5, 457920, Note_on_c, 3, 53, 80
5, 457920, Note_on_c, 3, 56, 100
5, 458400, Note_on_c, 3, 56, 0
5, 458400, Note_on_c, 3, 53, 0
5, 458400, Note_on_c, 3, 50, 80
5, 458400, Note_on_c, 3, 53, 80
5, 458880, Note_on_c, 3, 53, 0
5, 458880, Note_on_c, 3, 50, 0
5, 458880, Note_on_c, 3, 51, 80
5, 459264, Note_on_c, 3, 51, 0
5, 460800, Note_on_c, 3, 51, 80
5, 460992, Note_on_c, 3, 51, 0
5, 461280, Note_on_c, 3, 55, 80
5, 461472, Note_on_c, 3, 55, 0
5, 461760, Note_on_c, 3, 58, 80
5, 461952, Note_on_c, 3, 58, 0
5, 462240, Note_on_c, 3, 63, 80
5, 462432, Note_on_c, 3, 63, 0
5, 462720, Note_on_c, 3, 67, 96
5, 462912, Note_on_c, 3, 67, 0
5, 463200, Note_on_c, 3, 63, 96
5, 463392, Note_on_c, 3, 63, 0
5, 463680, Note_on_c, 3, 58, 96
5, 463872, Note_on_c, 3, 58, 0
5, 464160, Note_on_c, 3, 55, 96
5, 464352, Note_on_c, 3, 55, 0
5, 464640, Note_on_c, 3, 51, 96
5, 464832, Note_on_c, 3, 51, 0
5, 465120, Note_on_c, 3, 55, 96
5, 465312, Note_on_c, 3, 55, 0
5, 465600, Note_on_c, 3, 58, 96
5, 465792, Note_on_c, 3, 58, 0
5, 466080, Note_on_c, 3, 63, 96
5, 466272, Note_on_c, 3, 63, 0
5, 466560, Note_on_c, 3, 67, 115
5, 466752, Note_on_c, 3, 67, 0
5, 467040, Note_on_c, 3, 63, 115
5, 467232, Note_on_c, 3, 63, 0
5, 467520, Note_on_c, 3, 58, 115
5, 467712, Note_on_c, 3, 58, 0
5, 468000, Note_on_c, 3, 55, 115
5, 468192, Note_on_c, 3, 55, 0
5, 468480, Note_on_c, 3, 51, 115
5, 468672, Note_on_c, 3, 51, 0
5, 468960, Note_on_c, 3, 55, 115
5, 469152, Note_on_c, 3, 55, 0
5, 469440, Note_on_c, 3, 58, 115
5, 469632, Note_on_c, 3, 58, 0
5, 469920, Note_on_c, 3, 63, 115
5, 470112, Note_on_c, 3, 63, 0
5, 470400, Note_on_c, 3, 55, 127
5, 470592, Note_on_c, 3, 55, 0
5, 470880, Note_on_c, 3, 58, 127
5, 471072, Note_on_c, 3, 58, 0
5, 471360, Note_on_c, 3, 63, 127
5, 471552, Note_on_c, 3, 63, 0
5, 471840, Note_on_c, 3, 67, 127
5, 472032, Note_on_c, 3, 67, 0
5, 472320, Note_on_c, 3, 58, 127
5, 472320, Note_on_c, 3, 55, 127
5, 472512, Note_on_c, 3, 55, 0
5, 472512, Note_on_c, 3, 58, 0
5, 472800, Note_on_c, 3, 63, 127
5, 472800, Note_on_c, 3, 58, 127
5, 472992, Note_on_c, 3, 58, 0
5, 472992, Note_on_c, 3, 63, 0
5, 473280, Note_on_c, 3, 67, 127
5, 473280, Note_on_c, 3, 63, 127
5, 473472, Note_on_c, 3, 63, 0
5, 473472, Note_on_c, 3, 67, 0
5, 473760, Note_on_c, 3, 63, 127
5, 473760, Note_on_c, 3, 67, 127
5, 473952, Note_on_c, 3, 67, 0
5, 473952, Note_on_c, 3, 63, 0
5, 474240, Note_on_c, 3, 68, 80
5, 474240, Note_on_c, 3, 65, 80
5, 474432, Note_on_c, 3, 65, 0
5, 474432, Note_on_c, 3, 68, 0
5, 474480, Note_on_c, 3, 46, 80
5, 474480, Note_on_c, 3, 58, 80
5, 474864, Note_on_c, 3, 58, 0
5, 474864, Note_on_c, 3, 46, 0
5, 474960, Note_on_c, 3, 58, 80
5, 474960, Note_on_c, 3, 46, 80
5, 475152, Note_on_c, 3, 46, 0
5, 475152, Note_on_c, 3, 58, 0
5, 475200, Note_on_c, 3, 58, 80
5, 475200, Note_on_c, 3, 46, 80
5, 475968, Note_on_c, 3, 46, 0
5, 475968, Note_on_c, 3, 58, 0
5, 476400, Note_on_c, 3, 58, 56
5, 476400, Note_on_c, 3, 67, 56
5, 476496, Note_on_c, 3, 67, 0
5, 476496, Note_on_c, 3, 58, 0
5, 476640, Note_on_c, 3, 67, 56
5, 476640, Note_on_c, 3, 58, 56
5, 477024, Note_on_c, 3, 58, 0
5, 477024, Note_on_c, 3, 67, 0
5, 477120, Note_on_c, 3, 55, 56
5, 477120, Note_on_c, 3, 63, 56
5, 477216, Note_on_c, 3, 63, 0
5, 477216, Note_on_c, 3, 55, 0
5, 477360, Note_on_c, 3, 55, 56
5, 477360, Note_on_c, 3, 58, 56
5, 478128, Note_on_c, 3, 58, 0
5, 478128, Note_on_c, 3, 55, 0
5, 478320, Note_on_c, 3, 68, 80
5, 478320, Note_on_c, 3, 65, 80
5, 478512, Note_on_c, 3, 65, 0
5, 478512, Note_on_c, 3, 68, 0
5, 478560, Note_on_c, 3, 46, 80
5, 478560, Note_on_c, 3, 58, 80
5, 478944, Note_on_c, 3, 58, 0
5, 478944, Note_on_c, 3, 46, 0
5, 479040, Note_on_c, 3, 58, 80
5, 479040, Note_on_c, 3, 46, 80
5, 479232, Note_on_c, 3, 46, 0
5, 479232, Note_on_c, 3, 58, 0
5, 479280, Note_on_c, 3, 58, 80
5, 479280, Note_on_c, 3, 46, 80
5, 480048, Note_on_c, 3, 46, 0
5, 480048, Note_on_c, 3, 58, 0
5, 480480, Note_on_c, 3, 58, 56
5, 480480, Note_on_c, 3, 67, 56
5, 480576, Note_on_c, 3, 67, 0
5, 480576, Note_on_c, 3, 58, 0
5, 480720, Note_on_c, 3, 67, 56
5, 480720, Note_on_c, 3, 58, 56
5, 481104, Note_on_c, 3, 58, 0
5, 481104, Note_on_c, 3, 67, 0
5, 481200, Note_on_c, 3, 55, 56
5, 481200, Note_on_c, 3, 63, 56
5, 481296, Note_on_c, 3, 63, 0
5, 481296, Note_on_c, 3, 55, 0
5, 481440, Note_on_c, 3, 55, 56
5, 481440, Note_on_c, 3, 58, 56
5, 482208, Note_on_c, 3, 58, 0
5, 482208, Note_on_c, 3, 55, 0
5, 482400, Note_on_c, 3, 46, 120
5, 482508, Note_on_c, 3, 46, 0
5, 482640, Note_on_c, 3, 46, 80
5, 482748, Note_on_c, 3, 46, 0
5, 482880, Note_on_c, 3, 46, 80
5, 482988, Note_on_c, 3, 46, 0
5, 483120, Note_on_c, 3, 46, 80
5, 483228, Note_on_c, 3, 46, 0
5, 483360, Note_on_c, 3, 46, 120
5, 483468, Note_on_c, 3, 46, 0
5, 483600, Note_on_c, 3, 46, 80
5, 483708, Note_on_c, 3, 46, 0
5, 483840, Note_on_c, 3, 46, 80
5, 483948, Note_on_c, 3, 46, 0
5, 484080, Note_on_c, 3, 46, 80
5, 484188, Note_on_c, 3, 46, 0
5, 484320, Note_on_c, 3, 46, 120
5, 484428, Note_on_c, 3, 46, 0
5, 484560, Note_on_c, 3, 46, 80
5, 484668, Note_on_c, 3, 46, 0
5, 484800, Note_on_c, 3, 46, 80
5, 484908, Note_on_c, 3, 46, 0
5, 485040, Note_on_c, 3, 46, 80
5, 485148, Note_on_c, 3, 46, 0
5, 485280, Note_on_c, 3, 46, 120
5, 485388, Note_on_c, 3, 46, 0
5, 485520, Note_on_c, 3, 46, 80
5, 485628, Note_on_c, 3, 46, 0
5, 485760, Note_on_c, 3, 46, 80
5, 485868, Note_on_c, 3, 46, 0
5, 486000, Note_on_c, 3, 46, 80
5, 486108, Note_on_c, 3, 46, 0
5, 486240, Note_on_c, 3, 51, 127
5, 486384, Note_on_c, 3, 51, 0
5, 486720, Note_on_c, 3, 51, 127
5, 486864, Note_on_c, 3, 51, 0
5, 487200, Note_on_c, 3, 51, 127
5, 487344, Note_on_c, 3, 51, 0
5, 487680, Note_on_c, 3, 51, 127
5, 487824, Note_on_c, 3, 51, 0
5, 488160, Note_on_c, 3, 51, 127
5, 488304, Note_on_c, 3, 51, 0
5, 488640, Note_on_c, 3, 51, 127
5, 488784, Note_on_c, 3, 51, 0
5, 489120, Note_on_c, 3, 51, 127
5, 489264, Note_on_c, 3, 51, 0
5, 489600, Note_on_c, 3, 51, 127
5, 489744, Note_on_c, 3, 51, 0
5, 490080, Note_on_c, 3, 51, 127
5, 490224, Note_on_c, 3, 51, 0
5, 492000, Note_on_c, 3, 51, 127
5, 492144, Note_on_c, 3, 51, 0
5, 493920, Note_on_c, 3, 51, 127
5, 494064, Note_on_c, 3, 51, 0
5, 495000, Note_on_c, 3, 51, 127
5, 495144, Note_on_c, 3, 51, 0
5, 496080, Note_on_c, 3, 51, 127
5, 496224, Note_on_c, 3, 51, 0
5, 497160, Note_on_c, 3, 51, 127
5, 497304, Note_on_c, 3, 51, 0
5, 498360, Note_on_c, 3, 51, 127
5, 498504, Note_on_c, 3, 51, 0
5, 498504, End_track
6, 0, Start_track
6, 0, Title_t, "Contrabassoon       "
6, 0, Program_c, 4, 70
6, 0, Control_c, 4, 7, 90
6, 0, Control_c, 4, 10, 59
6, 2880, Control_c, 4, 91, 100
6, 9600, Note_on_c, 4, 41, 68
6, 11374, Note_on_c, 4, 41, 0
6, 11520, Note_on_c, 4, 36, 66
6, 13216, Note_on_c, 4, 36, 0
6, 25920, Note_on_c, 4, 43, 51
6, 27634, Note_on_c, 4, 43, 0
6, 27840, Note_on_c, 4, 38, 80
6, 29542, Note_on_c, 4, 38, 0
6, 65040, Note_on_c, 4, 39, 87
6, 65162, Note_on_c, 4, 39, 0
6, 65520, Note_on_c, 4, 43, 64
6, 65662, Note_on_c, 4, 43, 0
6, 66000, Note_on_c, 4, 41, 59
6, 66140, Note_on_c, 4, 41, 0
6, 66480, Note_on_c, 4, 34, 64
6, 66600, Note_on_c, 4, 34, 0
6, 66960, Note_on_c, 4, 39, 74
6, 67090, Note_on_c, 4, 39, 0
6, 67440, Note_on_c, 4, 43, 65
6, 67550, Note_on_c, 4, 43, 0
6, 67920, Note_on_c, 4, 46, 67
6, 68004, Note_on_c, 4, 46, 0
6, 68400, Note_on_c, 4, 34, 67
6, 68500, Note_on_c, 4, 34, 0
6, 68880, Note_on_c, 4, 39, 75
6, 69004, Note_on_c, 4, 39, 0
6, 69360, Note_on_c, 4, 43, 55
6, 69534, Note_on_c, 4, 43, 0
6, 69840, Note_on_c, 4, 41, 61
6, 69982, Note_on_c, 4, 41, 0
6, 70320, Note_on_c, 4, 34, 61
6, 70460, Note_on_c, 4, 34, 0
6, 70800, Note_on_c, 4, 39, 41
6, 70940, Note_on_c, 4, 39, 0
6, 71280, Note_on_c, 4, 43, 50
6, 71430, Note_on_c, 4, 43, 0
6, 71760, Note_on_c, 4, 44, 45
6, 71900, Note_on_c, 4, 44, 0
6, 72240, Note_on_c, 4, 41, 69
6, 72356, Note_on_c, 4, 41, 0
6, 72720, Note_on_c, 4, 43, 66
6, 72860, Note_on_c, 4, 43, 0
6, 73200, Note_on_c, 4, 46, 61
6, 73316, Note_on_c, 4, 46, 0
6, 73680, Note_on_c, 4, 48, 68
6, 73804, Note_on_c, 4, 48, 0
6, 74160, Note_on_c, 4, 32, 67
6, 74282, Note_on_c, 4, 32, 0
6, 74640, Note_on_c, 4, 34, 59
6, 74750, Note_on_c, 4, 34, 0
6, 75120, Note_on_c, 4, 38, 80
6, 75250, Note_on_c, 4, 38, 0
6, 75600, Note_on_c, 4, 39, 75
6, 75722, Note_on_c, 4, 39, 0
6, 76080, Note_on_c, 4, 34, 65
6, 76196, Note_on_c, 4, 34, 0
6, 76560, Note_on_c, 4, 40, 68
6, 76696, Note_on_c, 4, 40, 0
6, 77040, Note_on_c, 4, 34, 67
6, 77160, Note_on_c, 4, 34, 0
6, 77520, Note_on_c, 4, 41, 66
6, 77652, Note_on_c, 4, 41, 0
6, 78000, Note_on_c, 4, 34, 68
6, 78082, Note_on_c, 4, 34, 0
6, 78480, Note_on_c, 4, 44, 54
6, 78610, Note_on_c, 4, 44, 0
6, 78960, Note_on_c, 4, 34, 64
6, 79060, Note_on_c, 4, 34, 0
6, 79440, Note_on_c, 4, 46, 50
6, 79572, Note_on_c, 4, 46, 0
6, 79920, Note_on_c, 4, 34, 61
6, 80016, Note_on_c, 4, 34, 0
6, 80400, Note_on_c, 4, 50, 80
6, 80532, Note_on_c, 4, 50, 0
6, 80880, Note_on_c, 4, 34, 75
6, 80996, Note_on_c, 4, 34, 0
6, 81360, Note_on_c, 4, 53, 77
6, 81454, Note_on_c, 4, 53, 0
6, 81600, Note_on_c, 4, 34, 73
6, 81702, Note_on_c, 4, 34, 0
6, 81840, Note_on_c, 4, 34, 73
6, 81916, Note_on_c, 4, 34, 0
6, 82080, Note_on_c, 4, 34, 66
6, 82152, Note_on_c, 4, 34, 0
6, 82320, Note_on_c, 4, 34, 71
6, 82416, Note_on_c, 4, 34, 0
6, 82560, Note_on_c, 4, 34, 67
6, 82652, Note_on_c, 4, 34, 0
6, 82800, Note_on_c, 4, 34, 67
6, 82884, Note_on_c, 4, 34, 0
6, 83040, Note_on_c, 4, 34, 67
6, 83120, Note_on_c, 4, 34, 0
6, 83280, Note_on_c, 4, 34, 58
6, 83362, Note_on_c, 4, 34, 0
6, 83520, Note_on_c, 4, 34, 67
6, 83616, Note_on_c, 4, 34, 0
6, 83760, Note_on_c, 4, 34, 67
6, 83846, Note_on_c, 4, 34, 0
6, 84000, Note_on_c, 4, 34, 63
6, 84080, Note_on_c, 4, 34, 0
6, 84240, Note_on_c, 4, 34, 62
6, 84324, Note_on_c, 4, 34, 0
6, 84480, Note_on_c, 4, 34, 64
6, 84556, Note_on_c, 4, 34, 0
6, 84720, Note_on_c, 4, 34, 61
6, 84790, Note_on_c, 4, 34, 0
6, 84960, Note_on_c, 4, 34, 62
6, 85030, Note_on_c, 4, 34, 0
6, 85200, Note_on_c, 4, 39, 68
6, 85310, Note_on_c, 4, 39, 0
6, 85440, Note_on_c, 4, 39, 73
6, 85536, Note_on_c, 4, 39, 0
6, 85680, Note_on_c, 4, 39, 77
6, 85782, Note_on_c, 4, 39, 0
6, 85920, Note_on_c, 4, 39, 77
6, 86022, Note_on_c, 4, 39, 0
6, 86160, Note_on_c, 4, 39, 78
6, 86256, Note_on_c, 4, 39, 0
6, 86400, Note_on_c, 4, 39, 71
6, 86490, Note_on_c, 4, 39, 0
6, 86640, Note_on_c, 4, 39, 67
6, 86760, Note_on_c, 4, 39, 0
6, 86880, Note_on_c, 4, 39, 72
6, 86966, Note_on_c, 4, 39, 0
6, 87120, Note_on_c, 4, 39, 65
6, 87206, Note_on_c, 4, 39, 0
6, 87360, Note_on_c, 4, 39, 78
6, 87450, Note_on_c, 4, 39, 0
6, 87600, Note_on_c, 4, 39, 67
6, 87674, Note_on_c, 4, 39, 0
6, 87840, Note_on_c, 4, 39, 55
6, 87926, Note_on_c, 4, 39, 0
6, 88080, Note_on_c, 4, 39, 64
6, 88172, Note_on_c, 4, 39, 0
6, 88320, Note_on_c, 4, 39, 59
6, 88394, Note_on_c, 4, 39, 0
6, 88560, Note_on_c, 4, 39, 63
6, 88630, Note_on_c, 4, 39, 0
6, 88800, Note_on_c, 4, 39, 58
6, 88870, Note_on_c, 4, 39, 0
6, 89040, Note_on_c, 4, 39, 127
6, 89132, Note_on_c, 4, 39, 0
6, 89280, Note_on_c, 4, 39, 67
6, 89354, Note_on_c, 4, 39, 0
6, 89520, Note_on_c, 4, 39, 67
6, 89602, Note_on_c, 4, 39, 0
6, 89760, Note_on_c, 4, 39, 65
6, 89832, Note_on_c, 4, 39, 0
6, 90000, Note_on_c, 4, 39, 127
6, 90092, Note_on_c, 4, 39, 0
6, 90240, Note_on_c, 4, 39, 70
6, 90316, Note_on_c, 4, 39, 0
6, 90480, Note_on_c, 4, 39, 61
6, 90554, Note_on_c, 4, 39, 0
6, 90720, Note_on_c, 4, 39, 60
6, 90800, Note_on_c, 4, 39, 0
6, 90960, Note_on_c, 4, 39, 127
6, 91070, Note_on_c, 4, 39, 0
6, 91200, Note_on_c, 4, 39, 62
6, 91280, Note_on_c, 4, 39, 0
6, 91440, Note_on_c, 4, 39, 57
6, 91520, Note_on_c, 4, 39, 0
6, 91680, Note_on_c, 4, 39, 58
6, 91754, Note_on_c, 4, 39, 0
6, 91920, Note_on_c, 4, 39, 57
6, 91992, Note_on_c, 4, 39, 0
6, 92160, Note_on_c, 4, 39, 58
6, 92236, Note_on_c, 4, 39, 0
6, 92400, Note_on_c, 4, 39, 61
6, 92480, Note_on_c, 4, 39, 0
6, 92640, Note_on_c, 4, 39, 63
6, 92712, Note_on_c, 4, 39, 0
6, 92880, Note_on_c, 4, 39, 127
6, 93014, Note_on_c, 4, 39, 0
6, 93120, Note_on_c, 4, 39, 58
6, 93202, Note_on_c, 4, 39, 0
6, 93360, Note_on_c, 4, 39, 61
6, 93432, Note_on_c, 4, 39, 0
6, 93600, Note_on_c, 4, 39, 68
6, 93680, Note_on_c, 4, 39, 0
6, 93840, Note_on_c, 4, 39, 110
6, 93962, Note_on_c, 4, 39, 0
6, 94080, Note_on_c, 4, 39, 61
6, 94162, Note_on_c, 4, 39, 0
6, 94320, Note_on_c, 4, 39, 58
6, 94400, Note_on_c, 4, 39, 0
6, 94560, Note_on_c, 4, 39, 61
6, 94642, Note_on_c, 4, 39, 0
6, 94800, Note_on_c, 4, 39, 97
6, 94912, Note_on_c, 4, 39, 0
6, 95040, Note_on_c, 4, 39, 67
6, 95124, Note_on_c, 4, 39, 0
6, 95280, Note_on_c, 4, 39, 74
6, 95366, Note_on_c, 4, 39, 0
6, 95520, Note_on_c, 4, 39, 85
6, 95614, Note_on_c, 4, 39, 0
6, 95760, Note_on_c, 4, 39, 107
6, 95920, Note_on_c, 4, 39, 0
6, 96240, Note_on_c, 4, 43, 68
6, 96374, Note_on_c, 4, 43, 0
6, 96720, Note_on_c, 4, 36, 77
6, 96872, Note_on_c, 4, 36, 0
6, 97200, Note_on_c, 4, 39, 79
6, 97314, Note_on_c, 4, 39, 0
6, 97680, Note_on_c, 4, 32, 84
6, 97780, Note_on_c, 4, 32, 0
6, 98160, Note_on_c, 4, 36, 66
6, 98300, Note_on_c, 4, 36, 0
6, 98640, Note_on_c, 4, 29, 80
6, 98904, Note_on_c, 4, 29, 0
6, 99600, Note_on_c, 4, 41, 80
6, 99756, Note_on_c, 4, 41, 0
6, 100080, Note_on_c, 4, 44, 75
6, 100166, Note_on_c, 4, 44, 0
6, 100560, Note_on_c, 4, 38, 88
6, 100646, Note_on_c, 4, 38, 0
6, 101040, Note_on_c, 4, 41, 64
6, 101196, Note_on_c, 4, 41, 0
6, 101520, Note_on_c, 4, 34, 67
6, 101644, Note_on_c, 4, 34, 0
6, 102000, Note_on_c, 4, 38, 76
6, 102114, Note_on_c, 4, 38, 0
6, 102480, Note_on_c, 4, 31, 80
6, 102732, Note_on_c, 4, 31, 0
6, 103440, Note_on_c, 4, 43, 78
6, 103562, Note_on_c, 4, 43, 0
6, 103920, Note_on_c, 4, 46, 79
6, 104022, Note_on_c, 4, 46, 0
6, 104400, Note_on_c, 4, 39, 87
6, 104536, Note_on_c, 4, 39, 0
6, 104880, Note_on_c, 4, 43, 67
6, 105016, Note_on_c, 4, 43, 0
6, 105360, Note_on_c, 4, 36, 68
6, 105512, Note_on_c, 4, 36, 0
6, 105840, Note_on_c, 4, 39, 84
6, 105976, Note_on_c, 4, 39, 0
6, 106320, Note_on_c, 4, 33, 73
6, 106446, Note_on_c, 4, 33, 0
6, 106800, Note_on_c, 4, 36, 70
6, 106922, Note_on_c, 4, 36, 0
6, 107280, Note_on_c, 4, 34, 58
6, 107426, Note_on_c, 4, 34, 0
6, 107760, Note_on_c, 4, 34, 61
6, 107912, Note_on_c, 4, 34, 0
6, 108240, Note_on_c, 4, 39, 73
6, 108396, Note_on_c, 4, 39, 0
6, 108720, Note_on_c, 4, 39, 70
6, 108870, Note_on_c, 4, 39, 0
6, 109200, Note_on_c, 4, 34, 65
6, 109396, Note_on_c, 4, 34, 0
6, 109440, Note_on_c, 4, 46, 95
6, 109522, Note_on_c, 4, 46, 0
6, 109680, Note_on_c, 4, 46, 89
6, 109760, Note_on_c, 4, 46, 0
6, 109920, Note_on_c, 4, 46, 82
6, 110016, Note_on_c, 4, 46, 0
6, 110160, Note_on_c, 4, 48, 95
6, 110400, Note_on_c, 4, 46, 107
6, 110404, Note_on_c, 4, 48, 0
6, 110496, Note_on_c, 4, 46, 0
6, 110640, Note_on_c, 4, 43, 72
6, 110746, Note_on_c, 4, 43, 0
6, 110880, Note_on_c, 4, 39, 95
6, 110986, Note_on_c, 4, 39, 0
6, 111120, Note_on_c, 4, 34, 85
6, 111396, Note_on_c, 4, 34, 0
6, 111600, Note_on_c, 4, 34, 64
6, 111834, Note_on_c, 4, 34, 0
6, 112080, Note_on_c, 4, 39, 78
6, 112292, Note_on_c, 4, 39, 0
6, 112560, Note_on_c, 4, 39, 74
6, 112770, Note_on_c, 4, 39, 0
6, 113040, Note_on_c, 4, 34, 68
6, 113206, Note_on_c, 4, 34, 0
6, 113280, Note_on_c, 4, 46, 62
6, 113362, Note_on_c, 4, 46, 0
6, 113520, Note_on_c, 4, 46, 75
6, 113586, Note_on_c, 4, 46, 0
6, 113760, Note_on_c, 4, 46, 79
6, 113846, Note_on_c, 4, 46, 0
6, 114000, Note_on_c, 4, 48, 86
6, 114234, Note_on_c, 4, 48, 0
6, 114240, Note_on_c, 4, 46, 79
6, 114336, Note_on_c, 4, 46, 0
6, 114480, Note_on_c, 4, 43, 78
6, 114586, Note_on_c, 4, 43, 0
6, 114720, Note_on_c, 4, 39, 99
6, 114830, Note_on_c, 4, 39, 0
6, 114960, Note_on_c, 4, 34, 84
6, 115204, Note_on_c, 4, 34, 0
6, 134160, Note_on_c, 4, 46, 67
6, 135014, Note_on_c, 4, 46, 0
6, 135120, Note_on_c, 4, 41, 58
6, 135936, Note_on_c, 4, 41, 0
6, 136080, Note_on_c, 4, 43, 54
6, 136944, Note_on_c, 4, 43, 0
6, 137040, Note_on_c, 4, 38, 54
6, 137914, Note_on_c, 4, 38, 0
6, 138000, Note_on_c, 4, 39, 70
6, 138134, Note_on_c, 4, 39, 0
6, 138480, Note_on_c, 4, 38, 65
6, 138610, Note_on_c, 4, 38, 0
6, 138960, Note_on_c, 4, 36, 53
6, 139086, Note_on_c, 4, 36, 0
6, 139440, Note_on_c, 4, 34, 61
6, 139572, Note_on_c, 4, 34, 0
6, 139920, Note_on_c, 4, 33, 58
6, 140040, Note_on_c, 4, 33, 0
6, 140400, Note_on_c, 4, 34, 54
6, 140500, Note_on_c, 4, 34, 0
6, 140880, Note_on_c, 4, 41, 36
6, 141004, Note_on_c, 4, 41, 0
6, 141360, Note_on_c, 4, 29, 40
6, 141460, Note_on_c, 4, 29, 0
6, 141840, Note_on_c, 4, 34, 95
6, 141944, Note_on_c, 4, 34, 0
6, 142320, Note_on_c, 4, 46, 72
6, 142452, Note_on_c, 4, 46, 0
6, 142800, Note_on_c, 4, 41, 68
6, 142926, Note_on_c, 4, 41, 0
6, 143280, Note_on_c, 4, 29, 59
6, 143416, Note_on_c, 4, 29, 0
6, 143760, Note_on_c, 4, 31, 91
6, 143892, Note_on_c, 4, 31, 0
6, 144240, Note_on_c, 4, 43, 64
6, 144330, Note_on_c, 4, 43, 0
6, 144720, Note_on_c, 4, 38, 87
6, 144840, Note_on_c, 4, 38, 0
6, 145200, Note_on_c, 4, 26, 87
6, 145332, Note_on_c, 4, 26, 0
6, 145680, Note_on_c, 4, 27, 71
6, 145974, Note_on_c, 4, 27, 0
6, 153360, Note_on_c, 4, 31, 53
6, 153464, Note_on_c, 4, 31, 0
6, 153600, Note_on_c, 4, 34, 62
6, 153684, Note_on_c, 4, 34, 0
6, 153840, Note_on_c, 4, 39, 80
6, 153934, Note_on_c, 4, 39, 0
6, 154080, Note_on_c, 4, 38, 63
6, 154190, Note_on_c, 4, 38, 0
6, 154320, Note_on_c, 4, 36, 60
6, 154426, Note_on_c, 4, 36, 0
6, 154560, Note_on_c, 4, 34, 68
6, 154652, Note_on_c, 4, 34, 0
6, 154800, Note_on_c, 4, 33, 57
6, 154910, Note_on_c, 4, 33, 0
6, 155040, Note_on_c, 4, 31, 56
6, 155132, Note_on_c, 4, 31, 0
6, 155280, Note_on_c, 4, 33, 51
6, 155394, Note_on_c, 4, 33, 0
6, 155520, Note_on_c, 4, 36, 53
6, 155626, Note_on_c, 4, 36, 0
6, 155760, Note_on_c, 4, 41, 50
6, 155876, Note_on_c, 4, 41, 0
6, 156000, Note_on_c, 4, 39, 68
6, 156106, Note_on_c, 4, 39, 0
6, 156240, Note_on_c, 4, 38, 59
6, 156356, Note_on_c, 4, 38, 0
6, 156480, Note_on_c, 4, 36, 63
6, 156600, Note_on_c, 4, 36, 0
6, 156720, Note_on_c, 4, 34, 68
6, 156820, Note_on_c, 4, 34, 0
6, 156960, Note_on_c, 4, 33, 61
6, 157082, Note_on_c, 4, 33, 0
6, 157200, Note_on_c, 4, 34, 68
6, 157292, Note_on_c, 4, 34, 0
6, 157440, Note_on_c, 4, 38, 66
6, 157534, Note_on_c, 4, 38, 0
6, 157680, Note_on_c, 4, 43, 52
6, 157786, Note_on_c, 4, 43, 0
6, 157920, Note_on_c, 4, 41, 48
6, 158020, Note_on_c, 4, 41, 0
6, 158160, Note_on_c, 4, 39, 89
6, 158244, Note_on_c, 4, 39, 0
6, 158400, Note_on_c, 4, 38, 57
6, 158512, Note_on_c, 4, 38, 0
6, 158640, Note_on_c, 4, 36, 78
6, 158746, Note_on_c, 4, 36, 0
6, 158880, Note_on_c, 4, 34, 85
6, 158974, Note_on_c, 4, 34, 0
6, 159120, Note_on_c, 4, 33, 80
6, 159234, Note_on_c, 4, 33, 0
6, 159360, Note_on_c, 4, 36, 73
6, 159452, Note_on_c, 4, 36, 0
6, 159600, Note_on_c, 4, 41, 73
6, 159720, Note_on_c, 4, 41, 0
6, 159840, Note_on_c, 4, 39, 99
6, 159936, Note_on_c, 4, 39, 0
6, 160080, Note_on_c, 4, 38, 79
6, 160196, Note_on_c, 4, 38, 0
6, 160320, Note_on_c, 4, 36, 73
6, 160422, Note_on_c, 4, 36, 0
6, 160560, Note_on_c, 4, 34, 91
6, 160652, Note_on_c, 4, 34, 0
6, 160800, Note_on_c, 4, 33, 80
6, 160924, Note_on_c, 4, 33, 0
6, 161040, Note_on_c, 4, 34, 104
6, 161224, Note_on_c, 4, 34, 0
6, 161520, Note_on_c, 4, 38, 110
6, 161672, Note_on_c, 4, 38, 0
6, 162480, Note_on_c, 4, 38, 91
6, 162616, Note_on_c, 4, 38, 0
6, 163440, Note_on_c, 4, 38, 95
6, 163590, Note_on_c, 4, 38, 0
6, 164400, Note_on_c, 4, 38, 86
6, 164544, Note_on_c, 4, 38, 0
6, 165360, Note_on_c, 4, 39, 116
6, 165492, Note_on_c, 4, 39, 0
6, 166320, Note_on_c, 4, 39, 116
6, 166426, Note_on_c, 4, 39, 0
6, 167280, Note_on_c, 4, 39, 116
6, 167396, Note_on_c, 4, 39, 0
6, 167760, Note_on_c, 4, 29, 68
6, 167870, Note_on_c, 4, 29, 0
6, 168240, Note_on_c, 4, 41, 73
6, 168376, Note_on_c, 4, 41, 0
6, 168720, Note_on_c, 4, 41, 75
6, 168854, Note_on_c, 4, 41, 0
6, 169200, Note_on_c, 4, 41, 79
6, 169344, Note_on_c, 4, 41, 0
6, 169680, Note_on_c, 4, 41, 78
6, 169822, Note_on_c, 4, 41, 0
6, 170160, Note_on_c, 4, 41, 73
6, 170310, Note_on_c, 4, 41, 0
6, 170640, Note_on_c, 4, 39, 67
6, 170782, Note_on_c, 4, 39, 0
6, 171120, Note_on_c, 4, 39, 82
6, 171262, Note_on_c, 4, 39, 0
6, 171600, Note_on_c, 4, 38, 88
6, 171720, Note_on_c, 4, 38, 0
6, 172080, Note_on_c, 4, 38, 127
6, 172240, Note_on_c, 4, 38, 0
6, 173040, Note_on_c, 4, 38, 98
6, 173170, Note_on_c, 4, 38, 0
6, 174000, Note_on_c, 4, 38, 110
6, 174136, Note_on_c, 4, 38, 0
6, 174960, Note_on_c, 4, 38, 98
6, 175100, Note_on_c, 4, 38, 0
6, 175920, Note_on_c, 4, 39, 91
6, 176066, Note_on_c, 4, 39, 0
6, 176880, Note_on_c, 4, 39, 93
6, 177016, Note_on_c, 4, 39, 0
6, 177840, Note_on_c, 4, 39, 101
6, 177962, Note_on_c, 4, 39, 0
6, 178800, Note_on_c, 4, 39, 99
6, 178910, Note_on_c, 4, 39, 0
6, 179280, Note_on_c, 4, 29, 80
6, 179406, Note_on_c, 4, 29, 0
6, 179760, Note_on_c, 4, 41, 73
6, 179912, Note_on_c, 4, 41, 0
6, 180240, Note_on_c, 4, 41, 72
6, 180380, Note_on_c, 4, 41, 0
6, 180720, Note_on_c, 4, 41, 70
6, 180866, Note_on_c, 4, 41, 0
6, 181200, Note_on_c, 4, 41, 73
6, 181340, Note_on_c, 4, 41, 0
6, 181680, Note_on_c, 4, 41, 78
6, 181812, Note_on_c, 4, 41, 0
6, 182160, Note_on_c, 4, 41, 73
6, 182302, Note_on_c, 4, 41, 0
6, 182640, Note_on_c, 4, 41, 80
6, 182796, Note_on_c, 4, 41, 0
6, 183120, Note_on_c, 4, 34, 97
6, 183246, Note_on_c, 4, 34, 0
6, 183600, Note_on_c, 4, 41, 73
6, 183730, Note_on_c, 4, 41, 0
6, 184080, Note_on_c, 4, 33, 76
6, 184212, Note_on_c, 4, 33, 0
6, 184560, Note_on_c, 4, 41, 72
6, 184694, Note_on_c, 4, 41, 0
6, 185040, Note_on_c, 4, 34, 91
6, 185162, Note_on_c, 4, 34, 0
6, 185520, Note_on_c, 4, 41, 68
6, 185656, Note_on_c, 4, 41, 0
6, 186000, Note_on_c, 4, 29, 71
6, 186134, Note_on_c, 4, 29, 0
6, 186480, Note_on_c, 4, 41, 65
6, 186626, Note_on_c, 4, 41, 0
6, 186960, Note_on_c, 4, 34, 82
6, 187096, Note_on_c, 4, 34, 0
6, 187440, Note_on_c, 4, 41, 72
6, 187586, Note_on_c, 4, 41, 0
6, 187920, Note_on_c, 4, 33, 74
6, 188070, Note_on_c, 4, 33, 0
6, 188400, Note_on_c, 4, 41, 69
6, 188540, Note_on_c, 4, 41, 0
6, 188880, Note_on_c, 4, 34, 95
6, 189012, Note_on_c, 4, 34, 0
6, 189360, Note_on_c, 4, 41, 77
6, 189516, Note_on_c, 4, 41, 0
6, 189840, Note_on_c, 4, 29, 73
6, 189970, Note_on_c, 4, 29, 0
6, 190320, Note_on_c, 4, 41, 73
6, 190434, Note_on_c, 4, 41, 0
6, 190800, Note_on_c, 4, 34, 82
6, 190906, Note_on_c, 4, 34, 0
6, 191280, Note_on_c, 4, 46, 72
6, 191430, Note_on_c, 4, 46, 0
6, 191760, Note_on_c, 4, 41, 85
6, 191900, Note_on_c, 4, 41, 0
6, 192240, Note_on_c, 4, 38, 95
6, 192372, Note_on_c, 4, 38, 0
6, 192720, Note_on_c, 4, 34, 67
6, 192886, Note_on_c, 4, 34, 0
6, 193200, Note_on_c, 4, 38, 94
6, 193322, Note_on_c, 4, 38, 0
6, 193680, Note_on_c, 4, 34, 72
6, 193816, Note_on_c, 4, 34, 0
6, 194160, Note_on_c, 4, 38, 94
6, 194284, Note_on_c, 4, 38, 0
6, 194640, Note_on_c, 4, 34, 78
6, 194784, Note_on_c, 4, 34, 0
6, 195120, Note_on_c, 4, 34, 87
6, 195382, Note_on_c, 4, 34, 0
6, 195600, Note_on_c, 4, 34, 87
6, 195784, Note_on_c, 4, 34, 0
6, 196080, Note_on_c, 4, 34, 93
6, 196236, Note_on_c, 4, 34, 0
6, 196560, Note_on_c, 4, 34, 95
6, 196804, Note_on_c, 4, 34, 0
6, 201840, Note_on_c, 4, 36, 71
6, 203606, Note_on_c, 4, 36, 0
6, 203976, Control_c, 4, 7, 101
6, 204000, Note_on_c, 4, 31, 108
6, 204016, Control_c, 4, 7, 100
6, 204056, Control_c, 4, 7, 99
6, 204096, Control_c, 4, 7, 98
6, 204136, Control_c, 4, 7, 97
6, 204176, Control_c, 4, 7, 96
6, 204216, Control_c, 4, 7, 95
6, 204256, Control_c, 4, 7, 94
6, 204296, Control_c, 4, 7, 93
6, 204336, Control_c, 4, 7, 92
6, 204364, Control_c, 4, 7, 91
6, 204404, Control_c, 4, 7, 90
6, 204444, Control_c, 4, 7, 89
6, 204484, Control_c, 4, 7, 88
6, 204524, Control_c, 4, 7, 87
6, 204564, Control_c, 4, 7, 86
6, 204604, Control_c, 4, 7, 85
6, 204644, Control_c, 4, 7, 84
6, 204684, Control_c, 4, 7, 83
6, 204724, Control_c, 4, 7, 82
6, 204748, Control_c, 4, 7, 81
6, 204788, Control_c, 4, 7, 80
6, 204828, Control_c, 4, 7, 79
6, 204868, Control_c, 4, 7, 78
6, 204908, Control_c, 4, 7, 77
6, 204948, Control_c, 4, 7, 76
6, 204988, Control_c, 4, 7, 75
6, 205028, Control_c, 4, 7, 74
6, 205068, Control_c, 4, 7, 73
6, 205108, Control_c, 4, 7, 72
6, 205136, Control_c, 4, 7, 71
6, 205176, Control_c, 4, 7, 70
6, 205216, Control_c, 4, 7, 69
6, 205256, Control_c, 4, 7, 68
6, 205296, Control_c, 4, 7, 67
6, 205336, Control_c, 4, 7, 66
6, 205376, Control_c, 4, 7, 65
6, 205416, Control_c, 4, 7, 64
6, 205456, Control_c, 4, 7, 63
6, 205496, Control_c, 4, 7, 62
6, 205524, Control_c, 4, 7, 61
6, 205564, Control_c, 4, 7, 60
6, 205604, Control_c, 4, 7, 59
6, 205644, Control_c, 4, 7, 58
6, 205684, Control_c, 4, 7, 57
6, 205724, Control_c, 4, 7, 56
6, 205764, Control_c, 4, 7, 55
6, 205804, Control_c, 4, 7, 54
6, 205844, Control_c, 4, 7, 53
6, 205884, Control_c, 4, 7, 52
6, 205908, Control_c, 4, 7, 51
6, 205948, Control_c, 4, 7, 50
6, 205988, Control_c, 4, 7, 49
6, 206028, Control_c, 4, 7, 48
6, 206068, Control_c, 4, 7, 47
6, 206108, Control_c, 4, 7, 46
6, 206148, Control_c, 4, 7, 45
6, 206188, Control_c, 4, 7, 44
6, 206228, Control_c, 4, 7, 43
6, 206268, Control_c, 4, 7, 42
6, 206296, Control_c, 4, 7, 41
6, 206336, Control_c, 4, 7, 40
6, 206376, Control_c, 4, 7, 39
6, 206416, Control_c, 4, 7, 38
6, 206456, Control_c, 4, 7, 37
6, 206496, Control_c, 4, 7, 36
6, 206536, Control_c, 4, 7, 35
6, 206576, Control_c, 4, 7, 34
6, 206616, Control_c, 4, 7, 33
6, 206656, Control_c, 4, 7, 32
6, 206684, Control_c, 4, 7, 31
6, 206724, Control_c, 4, 7, 30
6, 206764, Control_c, 4, 7, 29
6, 206804, Control_c, 4, 7, 28
6, 206844, Control_c, 4, 7, 27
6, 206884, Control_c, 4, 7, 26
6, 206924, Control_c, 4, 7, 25
6, 206964, Control_c, 4, 7, 24
6, 207004, Control_c, 4, 7, 23
6, 207044, Control_c, 4, 7, 22
6, 207068, Control_c, 4, 7, 21
6, 207108, Control_c, 4, 7, 20
6, 207148, Control_c, 4, 7, 19
6, 207188, Control_c, 4, 7, 18
6, 207228, Control_c, 4, 7, 17
6, 207268, Control_c, 4, 7, 16
6, 207308, Control_c, 4, 7, 15
6, 207348, Control_c, 4, 7, 14
6, 207388, Control_c, 4, 7, 13
6, 207428, Control_c, 4, 7, 12
6, 207456, Control_c, 4, 7, 11
6, 207496, Control_c, 4, 7, 10
6, 207536, Control_c, 4, 7, 9
6, 207576, Control_c, 4, 7, 8
6, 207616, Control_c, 4, 7, 7
6, 207656, Control_c, 4, 7, 6
6, 207696, Control_c, 4, 7, 5
6, 207736, Control_c, 4, 7, 4
6, 207776, Control_c, 4, 7, 3
6, 207780, Note_on_c, 4, 31, 0
6, 207816, Control_c, 4, 7, 2
6, 207844, Control_c, 4, 7, 1
6, 207856, Control_c, 4, 7, 1
6, 207868, Control_c, 4, 7, 34
6, 207884, Control_c, 4, 7, 67
6, 207896, Control_c, 4, 7, 100
6, 223440, Note_on_c, 4, 29, 48
6, 223476, Note_on_c, 4, 29, 0
6, 223560, Note_on_c, 4, 30, 48
6, 223596, Note_on_c, 4, 30, 0
6, 223680, Note_on_c, 4, 32, 48
6, 223716, Note_on_c, 4, 32, 0
6, 223800, Note_on_c, 4, 30, 48
6, 223836, Note_on_c, 4, 30, 0
6, 223920, Note_on_c, 4, 29, 48
6, 223956, Note_on_c, 4, 29, 0
6, 224400, Note_on_c, 4, 27, 48
6, 224436, Note_on_c, 4, 27, 0
6, 224520, Note_on_c, 4, 29, 48
6, 224556, Note_on_c, 4, 29, 0
6, 224640, Note_on_c, 4, 30, 48
6, 224676, Note_on_c, 4, 30, 0
6, 224760, Note_on_c, 4, 29, 48
6, 224796, Note_on_c, 4, 29, 0
6, 224880, Note_on_c, 4, 27, 48
6, 224916, Note_on_c, 4, 27, 0
6, 225360, Note_on_c, 4, 29, 48
6, 225396, Note_on_c, 4, 29, 0
6, 225480, Note_on_c, 4, 30, 48
6, 225516, Note_on_c, 4, 30, 0
6, 225600, Note_on_c, 4, 32, 48
6, 225636, Note_on_c, 4, 32, 0
6, 225720, Note_on_c, 4, 30, 48
6, 225756, Note_on_c, 4, 30, 0
6, 225840, Note_on_c, 4, 29, 48
6, 225876, Note_on_c, 4, 29, 0
6, 226320, Note_on_c, 4, 41, 48
6, 226356, Note_on_c, 4, 41, 0
6, 226440, Note_on_c, 4, 42, 48
6, 226476, Note_on_c, 4, 42, 0
6, 226560, Note_on_c, 4, 44, 48
6, 226596, Note_on_c, 4, 44, 0
6, 226680, Note_on_c, 4, 42, 48
6, 226716, Note_on_c, 4, 42, 0
6, 226800, Note_on_c, 4, 41, 48
6, 226836, Note_on_c, 4, 41, 0
6, 227040, Note_on_c, 4, 41, 48
6, 227076, Note_on_c, 4, 41, 0
6, 227160, Note_on_c, 4, 39, 48
6, 227196, Note_on_c, 4, 39, 0
6, 227280, Note_on_c, 4, 38, 48
6, 227316, Note_on_c, 4, 38, 0
6, 227520, Note_on_c, 4, 38, 48
6, 227556, Note_on_c, 4, 38, 0
6, 227640, Note_on_c, 4, 36, 48
6, 227676, Note_on_c, 4, 36, 0
6, 227760, Note_on_c, 4, 34, 48
6, 227796, Note_on_c, 4, 34, 0
6, 228240, Note_on_c, 4, 41, 48
6, 228276, Note_on_c, 4, 41, 0
6, 228360, Note_on_c, 4, 43, 48
6, 228396, Note_on_c, 4, 43, 0
6, 228480, Note_on_c, 4, 44, 45
6, 228516, Note_on_c, 4, 44, 0
6, 228600, Note_on_c, 4, 43, 46
6, 228636, Note_on_c, 4, 43, 0
6, 228720, Note_on_c, 4, 41, 47
6, 228756, Note_on_c, 4, 41, 0
6, 228960, Note_on_c, 4, 41, 50
6, 228996, Note_on_c, 4, 41, 0
6, 229080, Note_on_c, 4, 39, 51
6, 229116, Note_on_c, 4, 39, 0
6, 229200, Note_on_c, 4, 38, 52
6, 229236, Note_on_c, 4, 38, 0
6, 229440, Note_on_c, 4, 38, 54
6, 229476, Note_on_c, 4, 38, 0
6, 229560, Note_on_c, 4, 36, 55
6, 229596, Note_on_c, 4, 36, 0
6, 229680, Note_on_c, 4, 34, 56
6, 229716, Note_on_c, 4, 34, 0
6, 230160, Note_on_c, 4, 41, 61
6, 230196, Note_on_c, 4, 41, 0
6, 230280, Note_on_c, 4, 43, 62
6, 230316, Note_on_c, 4, 43, 0
6, 230400, Note_on_c, 4, 44, 63
6, 230436, Note_on_c, 4, 44, 0
6, 230520, Note_on_c, 4, 43, 64
6, 230556, Note_on_c, 4, 43, 0
6, 230640, Note_on_c, 4, 44, 66
6, 230676, Note_on_c, 4, 44, 0
6, 230760, Note_on_c, 4, 43, 67
6, 230796, Note_on_c, 4, 43, 0
6, 230880, Note_on_c, 4, 41, 68
6, 230916, Note_on_c, 4, 41, 0
6, 231000, Note_on_c, 4, 39, 69
6, 231036, Note_on_c, 4, 39, 0
6, 231120, Note_on_c, 4, 41, 70
6, 231156, Note_on_c, 4, 41, 0
6, 231240, Note_on_c, 4, 39, 71
6, 231276, Note_on_c, 4, 39, 0
6, 231360, Note_on_c, 4, 38, 73
6, 231396, Note_on_c, 4, 38, 0
6, 231480, Note_on_c, 4, 36, 74
6, 231516, Note_on_c, 4, 36, 0
6, 231600, Note_on_c, 4, 38, 75
6, 231636, Note_on_c, 4, 38, 0
6, 231720, Note_on_c, 4, 36, 76
6, 231756, Note_on_c, 4, 36, 0
6, 231840, Note_on_c, 4, 34, 77
6, 231876, Note_on_c, 4, 34, 0
6, 231960, Note_on_c, 4, 36, 78
6, 231996, Note_on_c, 4, 36, 0
6, 232080, Note_on_c, 4, 38, 79
6, 232116, Note_on_c, 4, 38, 0
6, 232200, Note_on_c, 4, 39, 81
6, 232236, Note_on_c, 4, 39, 0
6, 232320, Note_on_c, 4, 41, 82
6, 232356, Note_on_c, 4, 41, 0
6, 232440, Note_on_c, 4, 43, 83
6, 232476, Note_on_c, 4, 43, 0
6, 232560, Note_on_c, 4, 44, 84
6, 232596, Note_on_c, 4, 44, 0
6, 232680, Note_on_c, 4, 46, 85
6, 232716, Note_on_c, 4, 46, 0
6, 232800, Note_on_c, 4, 48, 86
6, 232836, Note_on_c, 4, 48, 0
6, 232920, Note_on_c, 4, 50, 87
6, 232956, Note_on_c, 4, 50, 0
6, 233040, Note_on_c, 4, 51, 89
6, 233076, Note_on_c, 4, 51, 0
6, 233160, Note_on_c, 4, 52, 90
6, 233196, Note_on_c, 4, 52, 0
6, 233280, Note_on_c, 4, 53, 127
6, 233316, Note_on_c, 4, 53, 0
6, 233400, Note_on_c, 4, 46, 127
6, 233436, Note_on_c, 4, 46, 0
6, 233520, Note_on_c, 4, 50, 127
6, 233556, Note_on_c, 4, 50, 0
6, 233640, Note_on_c, 4, 46, 127
6, 233676, Note_on_c, 4, 46, 0
6, 233760, Note_on_c, 4, 50, 127
6, 233796, Note_on_c, 4, 50, 0
6, 233880, Note_on_c, 4, 46, 127
6, 233916, Note_on_c, 4, 46, 0
6, 234000, Note_on_c, 4, 50, 127
6, 234036, Note_on_c, 4, 50, 0
6, 234120, Note_on_c, 4, 46, 127
6, 234156, Note_on_c, 4, 46, 0
6, 234240, Note_on_c, 4, 50, 127
6, 234276, Note_on_c, 4, 50, 0
6, 234360, Note_on_c, 4, 34, 127
6, 234396, Note_on_c, 4, 34, 0
6, 234480, Note_on_c, 4, 38, 127
6, 234516, Note_on_c, 4, 38, 0
6, 234600, Note_on_c, 4, 34, 127
6, 234636, Note_on_c, 4, 34, 0
6, 234720, Note_on_c, 4, 38, 127
6, 234756, Note_on_c, 4, 38, 0
6, 234840, Note_on_c, 4, 34, 127
6, 234876, Note_on_c, 4, 34, 0
6, 234960, Note_on_c, 4, 38, 127
6, 234996, Note_on_c, 4, 38, 0
6, 235080, Note_on_c, 4, 34, 127
6, 235116, Note_on_c, 4, 34, 0
6, 257280, Note_on_c, 4, 39, 87
6, 257402, Note_on_c, 4, 39, 0
6, 257760, Note_on_c, 4, 43, 64
6, 257902, Note_on_c, 4, 43, 0
6, 258240, Note_on_c, 4, 41, 59
6, 258380, Note_on_c, 4, 41, 0
6, 258720, Note_on_c, 4, 34, 64
6, 258840, Note_on_c, 4, 34, 0
6, 259200, Note_on_c, 4, 39, 74
6, 259330, Note_on_c, 4, 39, 0
6, 259680, Note_on_c, 4, 43, 65
6, 259790, Note_on_c, 4, 43, 0
6, 260160, Note_on_c, 4, 46, 67
6, 260244, Note_on_c, 4, 46, 0
6, 260640, Note_on_c, 4, 34, 67
6, 260740, Note_on_c, 4, 34, 0
6, 261120, Note_on_c, 4, 39, 75
6, 261244, Note_on_c, 4, 39, 0
6, 261600, Note_on_c, 4, 43, 55
6, 261774, Note_on_c, 4, 43, 0
6, 262080, Note_on_c, 4, 41, 61
6, 262222, Note_on_c, 4, 41, 0
6, 262560, Note_on_c, 4, 34, 61
6, 262700, Note_on_c, 4, 34, 0
6, 263040, Note_on_c, 4, 39, 41
6, 263180, Note_on_c, 4, 39, 0
6, 263520, Note_on_c, 4, 43, 50
6, 263670, Note_on_c, 4, 43, 0
6, 264000, Note_on_c, 4, 44, 45
6, 264140, Note_on_c, 4, 44, 0
6, 264480, Note_on_c, 4, 41, 69
6, 264596, Note_on_c, 4, 41, 0
6, 264960, Note_on_c, 4, 43, 66
6, 265100, Note_on_c, 4, 43, 0
6, 265440, Note_on_c, 4, 46, 61
6, 265556, Note_on_c, 4, 46, 0
6, 265920, Note_on_c, 4, 48, 68
6, 266044, Note_on_c, 4, 48, 0
6, 266400, Note_on_c, 4, 32, 67
6, 266522, Note_on_c, 4, 32, 0
6, 266880, Note_on_c, 4, 34, 59
6, 266990, Note_on_c, 4, 34, 0
6, 267360, Note_on_c, 4, 38, 80
6, 267490, Note_on_c, 4, 38, 0
6, 267840, Note_on_c, 4, 39, 75
6, 267962, Note_on_c, 4, 39, 0
6, 268320, Note_on_c, 4, 34, 65
6, 268436, Note_on_c, 4, 34, 0
6, 268800, Note_on_c, 4, 40, 68
6, 268936, Note_on_c, 4, 40, 0
6, 269280, Note_on_c, 4, 34, 67
6, 269400, Note_on_c, 4, 34, 0
6, 269760, Note_on_c, 4, 41, 66
6, 269892, Note_on_c, 4, 41, 0
6, 270240, Note_on_c, 4, 34, 68
6, 270322, Note_on_c, 4, 34, 0
6, 270720, Note_on_c, 4, 44, 54
6, 270850, Note_on_c, 4, 44, 0
6, 271200, Note_on_c, 4, 34, 64
6, 271300, Note_on_c, 4, 34, 0
6, 271680, Note_on_c, 4, 46, 50
6, 271812, Note_on_c, 4, 46, 0
6, 272160, Note_on_c, 4, 34, 61
6, 272256, Note_on_c, 4, 34, 0
6, 272640, Note_on_c, 4, 50, 80
6, 272772, Note_on_c, 4, 50, 0
6, 273120, Note_on_c, 4, 34, 75
6, 273236, Note_on_c, 4, 34, 0
6, 273600, Note_on_c, 4, 53, 77
6, 273694, Note_on_c, 4, 53, 0
6, 273840, Note_on_c, 4, 34, 73
6, 273942, Note_on_c, 4, 34, 0
6, 274080, Note_on_c, 4, 34, 73
6, 274156, Note_on_c, 4, 34, 0
6, 274320, Note_on_c, 4, 34, 66
6, 274392, Note_on_c, 4, 34, 0
6, 274560, Note_on_c, 4, 34, 71
6, 274656, Note_on_c, 4, 34, 0
6, 274800, Note_on_c, 4, 34, 67
6, 274892, Note_on_c, 4, 34, 0
6, 275040, Note_on_c, 4, 34, 67
6, 275124, Note_on_c, 4, 34, 0
6, 275280, Note_on_c, 4, 34, 67
6, 275360, Note_on_c, 4, 34, 0
6, 275520, Note_on_c, 4, 34, 58
6, 275602, Note_on_c, 4, 34, 0
6, 275760, Note_on_c, 4, 34, 67
6, 275856, Note_on_c, 4, 34, 0
6, 276000, Note_on_c, 4, 34, 67
6, 276086, Note_on_c, 4, 34, 0
6, 276240, Note_on_c, 4, 34, 63
6, 276320, Note_on_c, 4, 34, 0
6, 276480, Note_on_c, 4, 34, 62
6, 276564, Note_on_c, 4, 34, 0
6, 276720, Note_on_c, 4, 34, 64
6, 276796, Note_on_c, 4, 34, 0
6, 276960, Note_on_c, 4, 34, 61
6, 277030, Note_on_c, 4, 34, 0
6, 277200, Note_on_c, 4, 34, 62
6, 277270, Note_on_c, 4, 34, 0
6, 277440, Note_on_c, 4, 39, 68
6, 277550, Note_on_c, 4, 39, 0
6, 277680, Note_on_c, 4, 39, 73
6, 277776, Note_on_c, 4, 39, 0
6, 277920, Note_on_c, 4, 39, 77
6, 278022, Note_on_c, 4, 39, 0
6, 278160, Note_on_c, 4, 39, 77
6, 278262, Note_on_c, 4, 39, 0
6, 278400, Note_on_c, 4, 39, 78
6, 278496, Note_on_c, 4, 39, 0
6, 278640, Note_on_c, 4, 39, 71
6, 278730, Note_on_c, 4, 39, 0
6, 278880, Note_on_c, 4, 39, 67
6, 279000, Note_on_c, 4, 39, 0
6, 279120, Note_on_c, 4, 39, 72
6, 279206, Note_on_c, 4, 39, 0
6, 279360, Note_on_c, 4, 39, 65
6, 279446, Note_on_c, 4, 39, 0
6, 279600, Note_on_c, 4, 39, 78
6, 279690, Note_on_c, 4, 39, 0
6, 279840, Note_on_c, 4, 39, 67
6, 279914, Note_on_c, 4, 39, 0
6, 280080, Note_on_c, 4, 39, 55
6, 280166, Note_on_c, 4, 39, 0
6, 280320, Note_on_c, 4, 39, 64
6, 280412, Note_on_c, 4, 39, 0
6, 280560, Note_on_c, 4, 39, 59
6, 280634, Note_on_c, 4, 39, 0
6, 280800, Note_on_c, 4, 39, 63
6, 280870, Note_on_c, 4, 39, 0
6, 281040, Note_on_c, 4, 39, 58
6, 281110, Note_on_c, 4, 39, 0
6, 281280, Note_on_c, 4, 39, 127
6, 281372, Note_on_c, 4, 39, 0
6, 281520, Note_on_c, 4, 39, 67
6, 281594, Note_on_c, 4, 39, 0
6, 281760, Note_on_c, 4, 39, 67
6, 281842, Note_on_c, 4, 39, 0
6, 282000, Note_on_c, 4, 39, 65
6, 282072, Note_on_c, 4, 39, 0
6, 282240, Note_on_c, 4, 39, 127
6, 282332, Note_on_c, 4, 39, 0
6, 282480, Note_on_c, 4, 39, 70
6, 282556, Note_on_c, 4, 39, 0
6, 282720, Note_on_c, 4, 39, 61
6, 282794, Note_on_c, 4, 39, 0
6, 282960, Note_on_c, 4, 39, 60
6, 283040, Note_on_c, 4, 39, 0
6, 283200, Note_on_c, 4, 39, 127
6, 283310, Note_on_c, 4, 39, 0
6, 283440, Note_on_c, 4, 39, 62
6, 283520, Note_on_c, 4, 39, 0
6, 283680, Note_on_c, 4, 39, 57
6, 283760, Note_on_c, 4, 39, 0
6, 283920, Note_on_c, 4, 39, 58
6, 283994, Note_on_c, 4, 39, 0
6, 284160, Note_on_c, 4, 39, 57
6, 284232, Note_on_c, 4, 39, 0
6, 284400, Note_on_c, 4, 39, 58
6, 284476, Note_on_c, 4, 39, 0
6, 284640, Note_on_c, 4, 39, 61
6, 284720, Note_on_c, 4, 39, 0
6, 284880, Note_on_c, 4, 39, 63
6, 284952, Note_on_c, 4, 39, 0
6, 285120, Note_on_c, 4, 39, 127
6, 285254, Note_on_c, 4, 39, 0
6, 285360, Note_on_c, 4, 39, 58
6, 285442, Note_on_c, 4, 39, 0
6, 285600, Note_on_c, 4, 39, 61
6, 285672, Note_on_c, 4, 39, 0
6, 285840, Note_on_c, 4, 39, 68
6, 285920, Note_on_c, 4, 39, 0
6, 286080, Note_on_c, 4, 39, 110
6, 286202, Note_on_c, 4, 39, 0
6, 286320, Note_on_c, 4, 39, 61
6, 286402, Note_on_c, 4, 39, 0
6, 286560, Note_on_c, 4, 39, 58
6, 286640, Note_on_c, 4, 39, 0
6, 286800, Note_on_c, 4, 39, 61
6, 286882, Note_on_c, 4, 39, 0
6, 287040, Note_on_c, 4, 39, 97
6, 287152, Note_on_c, 4, 39, 0
6, 287280, Note_on_c, 4, 39, 67
6, 287364, Note_on_c, 4, 39, 0
6, 287520, Note_on_c, 4, 39, 74
6, 287606, Note_on_c, 4, 39, 0
6, 287760, Note_on_c, 4, 39, 85
6, 287854, Note_on_c, 4, 39, 0
6, 288000, Note_on_c, 4, 39, 107
6, 288160, Note_on_c, 4, 39, 0
6, 288480, Note_on_c, 4, 43, 68
6, 288614, Note_on_c, 4, 43, 0
6, 288960, Note_on_c, 4, 36, 77
6, 289112, Note_on_c, 4, 36, 0
6, 289440, Note_on_c, 4, 39, 79
6, 289554, Note_on_c, 4, 39, 0
6, 289920, Note_on_c, 4, 32, 84
6, 290020, Note_on_c, 4, 32, 0
6, 290400, Note_on_c, 4, 36, 66
6, 290540, Note_on_c, 4, 36, 0
6, 290880, Note_on_c, 4, 29, 80
6, 291144, Note_on_c, 4, 29, 0
6, 291840, Note_on_c, 4, 41, 80
6, 291996, Note_on_c, 4, 41, 0
6, 292320, Note_on_c, 4, 44, 75
6, 292406, Note_on_c, 4, 44, 0
6, 292800, Note_on_c, 4, 38, 88
6, 292886, Note_on_c, 4, 38, 0
6, 293280, Note_on_c, 4, 41, 64
6, 293436, Note_on_c, 4, 41, 0
6, 293760, Note_on_c, 4, 34, 67
6, 293884, Note_on_c, 4, 34, 0
6, 294240, Note_on_c, 4, 38, 76
6, 294354, Note_on_c, 4, 38, 0
6, 294720, Note_on_c, 4, 31, 80
6, 294972, Note_on_c, 4, 31, 0
6, 295680, Note_on_c, 4, 43, 78
6, 295802, Note_on_c, 4, 43, 0
6, 296160, Note_on_c, 4, 46, 79
6, 296262, Note_on_c, 4, 46, 0
6, 296640, Note_on_c, 4, 39, 87
6, 296776, Note_on_c, 4, 39, 0
6, 297120, Note_on_c, 4, 43, 67
6, 297256, Note_on_c, 4, 43, 0
6, 297600, Note_on_c, 4, 36, 68
6, 297752, Note_on_c, 4, 36, 0
6, 298080, Note_on_c, 4, 39, 84
6, 298216, Note_on_c, 4, 39, 0
6, 298560, Note_on_c, 4, 33, 73
6, 298686, Note_on_c, 4, 33, 0
6, 299040, Note_on_c, 4, 36, 70
6, 299162, Note_on_c, 4, 36, 0
6, 299520, Note_on_c, 4, 34, 58
6, 299666, Note_on_c, 4, 34, 0
6, 300000, Note_on_c, 4, 34, 61
6, 300152, Note_on_c, 4, 34, 0
6, 300480, Note_on_c, 4, 39, 73
6, 300636, Note_on_c, 4, 39, 0
6, 300960, Note_on_c, 4, 39, 70
6, 301110, Note_on_c, 4, 39, 0
6, 301440, Note_on_c, 4, 34, 65
6, 301636, Note_on_c, 4, 34, 0
6, 301680, Note_on_c, 4, 46, 95
6, 301762, Note_on_c, 4, 46, 0
6, 301920, Note_on_c, 4, 46, 89
6, 302000, Note_on_c, 4, 46, 0
6, 302160, Note_on_c, 4, 46, 82
6, 302256, Note_on_c, 4, 46, 0
6, 302400, Note_on_c, 4, 48, 95
6, 302640, Note_on_c, 4, 46, 107
6, 302644, Note_on_c, 4, 48, 0
6, 302736, Note_on_c, 4, 46, 0
6, 302880, Note_on_c, 4, 43, 72
6, 302986, Note_on_c, 4, 43, 0
6, 303120, Note_on_c, 4, 39, 95
6, 303226, Note_on_c, 4, 39, 0
6, 303360, Note_on_c, 4, 34, 85
6, 303636, Note_on_c, 4, 34, 0
6, 303840, Note_on_c, 4, 34, 64
6, 304074, Note_on_c, 4, 34, 0
6, 304320, Note_on_c, 4, 39, 78
6, 304532, Note_on_c, 4, 39, 0
6, 304800, Note_on_c, 4, 39, 74
6, 305010, Note_on_c, 4, 39, 0
6, 305280, Note_on_c, 4, 34, 68
6, 305446, Note_on_c, 4, 34, 0
6, 305520, Note_on_c, 4, 46, 62
6, 305602, Note_on_c, 4, 46, 0
6, 305760, Note_on_c, 4, 46, 75
6, 305826, Note_on_c, 4, 46, 0
6, 306000, Note_on_c, 4, 46, 79
6, 306086, Note_on_c, 4, 46, 0
6, 306240, Note_on_c, 4, 48, 86
6, 306474, Note_on_c, 4, 48, 0
6, 306480, Note_on_c, 4, 46, 79
6, 306576, Note_on_c, 4, 46, 0
6, 306720, Note_on_c, 4, 43, 78
6, 306826, Note_on_c, 4, 43, 0
6, 306960, Note_on_c, 4, 39, 99
6, 307070, Note_on_c, 4, 39, 0
6, 307200, Note_on_c, 4, 34, 84
6, 307444, Note_on_c, 4, 34, 0
6, 326400, Note_on_c, 4, 51, 67
6, 327254, Note_on_c, 4, 51, 0
6, 327360, Note_on_c, 4, 46, 58
6, 328176, Note_on_c, 4, 46, 0
6, 328320, Note_on_c, 4, 48, 54
6, 329184, Note_on_c, 4, 48, 0
6, 329280, Note_on_c, 4, 43, 54
6, 330154, Note_on_c, 4, 43, 0
6, 330240, Note_on_c, 4, 44, 70
6, 330374, Note_on_c, 4, 44, 0
6, 330720, Note_on_c, 4, 43, 65
6, 330850, Note_on_c, 4, 43, 0
6, 331200, Note_on_c, 4, 41, 53
6, 331326, Note_on_c, 4, 41, 0
6, 331680, Note_on_c, 4, 39, 61
6, 331812, Note_on_c, 4, 39, 0
6, 332160, Note_on_c, 4, 26, 58
6, 332280, Note_on_c, 4, 26, 0
6, 332640, Note_on_c, 4, 27, 54
6, 332740, Note_on_c, 4, 27, 0
6, 333120, Note_on_c, 4, 34, 36
6, 333244, Note_on_c, 4, 34, 0
6, 333600, Note_on_c, 4, 22, 40
6, 333700, Note_on_c, 4, 22, 0
6, 334080, Note_on_c, 4, 27, 95
6, 334184, Note_on_c, 4, 27, 0
6, 334560, Note_on_c, 4, 39, 72
6, 334692, Note_on_c, 4, 39, 0
6, 335040, Note_on_c, 4, 34, 68
6, 335166, Note_on_c, 4, 34, 0
6, 335520, Note_on_c, 4, 22, 59
6, 335656, Note_on_c, 4, 22, 0
6, 336000, Note_on_c, 4, 24, 91
6, 336132, Note_on_c, 4, 24, 0
6, 336480, Note_on_c, 4, 36, 64
6, 336570, Note_on_c, 4, 36, 0
6, 336960, Note_on_c, 4, 31, 87
6, 337080, Note_on_c, 4, 31, 0
6, 337440, Note_on_c, 4, 19, 87
6, 337572, Note_on_c, 4, 19, 0
6, 337920, Note_on_c, 4, 20, 71
6, 338214, Note_on_c, 4, 20, 0
6, 345600, Note_on_c, 4, 36, 53
6, 345704, Note_on_c, 4, 36, 0
6, 345840, Note_on_c, 4, 39, 62
6, 345924, Note_on_c, 4, 39, 0
6, 346080, Note_on_c, 4, 44, 80
6, 346174, Note_on_c, 4, 44, 0
6, 346320, Note_on_c, 4, 43, 63
6, 346430, Note_on_c, 4, 43, 0
6, 346560, Note_on_c, 4, 41, 60
6, 346666, Note_on_c, 4, 41, 0
6, 346800, Note_on_c, 4, 39, 68
6, 346892, Note_on_c, 4, 39, 0
6, 347040, Note_on_c, 4, 38, 57
6, 347150, Note_on_c, 4, 38, 0
6, 347280, Note_on_c, 4, 36, 56
6, 347372, Note_on_c, 4, 36, 0
6, 347520, Note_on_c, 4, 38, 51
6, 347634, Note_on_c, 4, 38, 0
6, 347760, Note_on_c, 4, 41, 53
6, 347866, Note_on_c, 4, 41, 0
6, 348000, Note_on_c, 4, 46, 50
6, 348116, Note_on_c, 4, 46, 0
6, 348240, Note_on_c, 4, 44, 68
6, 348346, Note_on_c, 4, 44, 0
6, 348480, Note_on_c, 4, 43, 59
6, 348596, Note_on_c, 4, 43, 0
6, 348720, Note_on_c, 4, 41, 63
6, 348840, Note_on_c, 4, 41, 0
6, 348960, Note_on_c, 4, 39, 68
6, 349060, Note_on_c, 4, 39, 0
6, 349200, Note_on_c, 4, 38, 61
6, 349322, Note_on_c, 4, 38, 0
6, 349440, Note_on_c, 4, 39, 68
6, 349532, Note_on_c, 4, 39, 0
6, 349680, Note_on_c, 4, 43, 66
6, 349774, Note_on_c, 4, 43, 0
6, 349920, Note_on_c, 4, 48, 52
6, 350026, Note_on_c, 4, 48, 0
6, 350160, Note_on_c, 4, 46, 48
6, 350260, Note_on_c, 4, 46, 0
6, 350400, Note_on_c, 4, 44, 89
6, 350484, Note_on_c, 4, 44, 0
6, 350640, Note_on_c, 4, 43, 57
6, 350752, Note_on_c, 4, 43, 0
6, 350880, Note_on_c, 4, 41, 78
6, 350986, Note_on_c, 4, 41, 0
6, 351120, Note_on_c, 4, 39, 85
6, 351214, Note_on_c, 4, 39, 0
6, 351360, Note_on_c, 4, 38, 80
6, 351474, Note_on_c, 4, 38, 0
6, 351600, Note_on_c, 4, 41, 73
6, 351692, Note_on_c, 4, 41, 0
6, 351840, Note_on_c, 4, 46, 73
6, 351960, Note_on_c, 4, 46, 0
6, 352080, Note_on_c, 4, 44, 99
6, 352176, Note_on_c, 4, 44, 0
6, 352320, Note_on_c, 4, 43, 79
6, 352436, Note_on_c, 4, 43, 0
6, 352560, Note_on_c, 4, 41, 73
6, 352662, Note_on_c, 4, 41, 0
6, 352800, Note_on_c, 4, 39, 91
6, 352892, Note_on_c, 4, 39, 0
6, 353040, Note_on_c, 4, 38, 80
6, 353164, Note_on_c, 4, 38, 0
6, 353280, Note_on_c, 4, 39, 104
6, 353464, Note_on_c, 4, 39, 0
6, 353760, Note_on_c, 4, 31, 110
6, 353912, Note_on_c, 4, 31, 0
6, 354720, Note_on_c, 4, 31, 91
6, 354856, Note_on_c, 4, 31, 0
6, 355680, Note_on_c, 4, 31, 95
6, 355830, Note_on_c, 4, 31, 0
6, 356640, Note_on_c, 4, 31, 86
6, 356784, Note_on_c, 4, 31, 0
6, 357600, Note_on_c, 4, 32, 116
6, 357732, Note_on_c, 4, 32, 0
6, 358560, Note_on_c, 4, 32, 116
6, 358666, Note_on_c, 4, 32, 0
6, 359520, Note_on_c, 4, 32, 116
6, 359636, Note_on_c, 4, 32, 0
6, 360480, Note_on_c, 4, 32, 73
6, 360616, Note_on_c, 4, 32, 0
6, 360960, Note_on_c, 4, 34, 75
6, 361094, Note_on_c, 4, 34, 0
6, 361440, Note_on_c, 4, 34, 79
6, 361584, Note_on_c, 4, 34, 0
6, 361920, Note_on_c, 4, 34, 78
6, 362062, Note_on_c, 4, 34, 0
6, 362400, Note_on_c, 4, 34, 73
6, 362550, Note_on_c, 4, 34, 0
6, 362880, Note_on_c, 4, 32, 67
6, 363022, Note_on_c, 4, 32, 0
6, 363360, Note_on_c, 4, 32, 82
6, 363502, Note_on_c, 4, 32, 0
6, 363840, Note_on_c, 4, 31, 88
6, 363960, Note_on_c, 4, 31, 0
6, 364320, Note_on_c, 4, 31, 127
6, 364480, Note_on_c, 4, 31, 0
6, 365280, Note_on_c, 4, 31, 98
6, 365410, Note_on_c, 4, 31, 0
6, 366240, Note_on_c, 4, 31, 110
6, 366376, Note_on_c, 4, 31, 0
6, 367200, Note_on_c, 4, 31, 98
6, 367340, Note_on_c, 4, 31, 0
6, 368160, Note_on_c, 4, 32, 91
6, 368306, Note_on_c, 4, 32, 0
6, 369120, Note_on_c, 4, 32, 93
6, 369256, Note_on_c, 4, 32, 0
6, 370080, Note_on_c, 4, 32, 101
6, 370202, Note_on_c, 4, 32, 0
6, 371040, Note_on_c, 4, 32, 99
6, 371150, Note_on_c, 4, 32, 0
6, 372000, Note_on_c, 4, 32, 73
6, 372152, Note_on_c, 4, 32, 0
6, 372960, Note_on_c, 4, 34, 99
6, 373070, Note_on_c, 4, 34, 0
6, 373920, Note_on_c, 4, 34, 73
6, 374072, Note_on_c, 4, 34, 0
6, 374880, Note_on_c, 4, 34, 99
6, 374990, Note_on_c, 4, 34, 0
6, 375840, Note_on_c, 4, 34, 73
6, 375992, Note_on_c, 4, 34, 0
6, 376800, Note_on_c, 4, 36, 95
6, 376922, Note_on_c, 4, 36, 0
6, 377760, Note_on_c, 4, 36, 95
6, 377870, Note_on_c, 4, 36, 0
6, 378720, Note_on_c, 4, 36, 95
6, 378842, Note_on_c, 4, 36, 0
6, 379680, Note_on_c, 4, 36, 95
6, 379790, Note_on_c, 4, 36, 0
6, 380640, Note_on_c, 4, 38, 95
6, 380762, Note_on_c, 4, 38, 0
6, 381600, Note_on_c, 4, 38, 95
6, 381710, Note_on_c, 4, 38, 0
6, 382560, Note_on_c, 4, 38, 95
6, 382682, Note_on_c, 4, 38, 0
6, 383520, Note_on_c, 4, 38, 95
6, 383630, Note_on_c, 4, 38, 0
6, 384480, Note_on_c, 4, 38, 95
6, 384590, Note_on_c, 4, 38, 0
6, 385440, Note_on_c, 4, 38, 95
6, 385550, Note_on_c, 4, 38, 0
6, 385920, Note_on_c, 4, 38, 95
6, 386030, Note_on_c, 4, 38, 0
6, 386400, Note_on_c, 4, 38, 95
6, 386510, Note_on_c, 4, 38, 0
6, 386880, Note_on_c, 4, 38, 95
6, 386990, Note_on_c, 4, 38, 0
6, 387360, Note_on_c, 4, 38, 95
6, 387470, Note_on_c, 4, 38, 0
6, 387840, Note_on_c, 4, 38, 95
6, 389760, Note_on_c, 4, 38, 0
6, 408960, Note_on_c, 4, 43, 105
6, 409056, Note_on_c, 4, 43, 0
6, 409200, Note_on_c, 4, 43, 108
6, 409296, Note_on_c, 4, 43, 0
6, 409440, Note_on_c, 4, 43, 105
6, 409536, Note_on_c, 4, 43, 0
6, 409680, Note_on_c, 4, 43, 108
6, 409776, Note_on_c, 4, 43, 0
6, 409920, Note_on_c, 4, 43, 105
6, 410016, Note_on_c, 4, 43, 0
6, 410160, Note_on_c, 4, 43, 108
6, 410256, Note_on_c, 4, 43, 0
6, 410400, Note_on_c, 4, 31, 105
6, 410496, Note_on_c, 4, 31, 0
6, 410640, Note_on_c, 4, 31, 108
6, 410736, Note_on_c, 4, 31, 0
6, 410880, Note_on_c, 4, 36, 80
6, 411648, Note_on_c, 4, 36, 0
6, 411840, Note_on_c, 4, 36, 80
6, 412290, Note_on_c, 4, 36, 0
6, 412320, Note_on_c, 4, 31, 80
6, 412416, Note_on_c, 4, 31, 0
6, 412560, Note_on_c, 4, 31, 80
6, 412656, Note_on_c, 4, 31, 0
6, 412800, Note_on_c, 4, 36, 80
6, 414210, Note_on_c, 4, 36, 0
6, 414240, Note_on_c, 4, 31, 80
6, 414336, Note_on_c, 4, 31, 0
6, 414480, Note_on_c, 4, 31, 80
6, 414576, Note_on_c, 4, 31, 0
6, 414720, Note_on_c, 4, 36, 80
6, 416130, Note_on_c, 4, 36, 0
6, 416160, Note_on_c, 4, 31, 80
6, 416256, Note_on_c, 4, 31, 0
6, 416400, Note_on_c, 4, 31, 80
6, 416496, Note_on_c, 4, 31, 0
6, 416640, Note_on_c, 4, 36, 80
6, 416736, Note_on_c, 4, 36, 0
6, 416880, Note_on_c, 4, 36, 80
6, 416976, Note_on_c, 4, 36, 0
6, 417120, Note_on_c, 4, 36, 80
6, 417216, Note_on_c, 4, 36, 0
6, 417360, Note_on_c, 4, 36, 80
6, 417456, Note_on_c, 4, 36, 0
6, 417600, Note_on_c, 4, 36, 80
6, 417696, Note_on_c, 4, 36, 0
6, 417840, Note_on_c, 4, 36, 80
6, 417936, Note_on_c, 4, 36, 0
6, 418080, Note_on_c, 4, 36, 80
6, 418176, Note_on_c, 4, 36, 0
6, 418320, Note_on_c, 4, 36, 80
6, 418416, Note_on_c, 4, 36, 0
6, 418560, Note_on_c, 4, 34, 80
6, 419970, Note_on_c, 4, 34, 0
6, 420000, Note_on_c, 4, 34, 105
6, 420096, Note_on_c, 4, 34, 0
6, 420240, Note_on_c, 4, 34, 108
6, 420336, Note_on_c, 4, 34, 0
6, 420480, Note_on_c, 4, 39, 80
6, 421890, Note_on_c, 4, 39, 0
6, 421920, Note_on_c, 4, 34, 80
6, 422016, Note_on_c, 4, 34, 0
6, 422160, Note_on_c, 4, 34, 80
6, 422256, Note_on_c, 4, 34, 0
6, 422400, Note_on_c, 4, 39, 80
6, 423810, Note_on_c, 4, 39, 0
6, 423840, Note_on_c, 4, 34, 80
6, 423936, Note_on_c, 4, 34, 0
6, 424080, Note_on_c, 4, 34, 80
6, 424176, Note_on_c, 4, 34, 0
6, 424320, Note_on_c, 4, 39, 80
6, 425730, Note_on_c, 4, 39, 0
6, 425760, Note_on_c, 4, 34, 80
6, 425856, Note_on_c, 4, 34, 0
6, 426000, Note_on_c, 4, 34, 80
6, 426096, Note_on_c, 4, 34, 0
6, 426240, Note_on_c, 4, 39, 80
6, 427650, Note_on_c, 4, 39, 0
6, 427680, Note_on_c, 4, 34, 80
6, 427776, Note_on_c, 4, 34, 0
6, 427920, Note_on_c, 4, 34, 80
6, 428016, Note_on_c, 4, 34, 0
6, 428160, Note_on_c, 4, 39, 99
6, 428264, Note_on_c, 4, 39, 0
6, 428400, Note_on_c, 4, 39, 99
6, 428724, Note_on_c, 4, 39, 0
6, 428880, Note_on_c, 4, 39, 99
6, 428964, Note_on_c, 4, 39, 0
6, 429120, Note_on_c, 4, 39, 99
6, 429934, Note_on_c, 4, 39, 0
6, 430080, Note_on_c, 4, 32, 99
6, 430184, Note_on_c, 4, 32, 0
6, 430320, Note_on_c, 4, 32, 99
6, 430644, Note_on_c, 4, 32, 0
6, 430800, Note_on_c, 4, 32, 99
6, 430884, Note_on_c, 4, 32, 0
6, 431040, Note_on_c, 4, 32, 99
6, 431854, Note_on_c, 4, 32, 0
6, 432000, Note_on_c, 4, 29, 99
6, 432240, Note_on_c, 4, 29, 0
6, 432240, Note_on_c, 4, 29, 99
6, 432360, Note_on_c, 4, 29, 0
6, 432480, Note_on_c, 4, 29, 99
6, 432840, Note_on_c, 4, 29, 0
6, 432960, Note_on_c, 4, 29, 99
6, 433200, Note_on_c, 4, 29, 0
6, 433200, Note_on_c, 4, 29, 99
6, 433320, Note_on_c, 4, 29, 0
6, 433440, Note_on_c, 4, 29, 99
6, 433800, Note_on_c, 4, 29, 0
6, 433920, Note_on_c, 4, 34, 99
6, 434160, Note_on_c, 4, 34, 0
6, 434160, Note_on_c, 4, 34, 99
6, 434280, Note_on_c, 4, 34, 0
6, 434400, Note_on_c, 4, 34, 99
6, 434760, Note_on_c, 4, 34, 0
6, 434880, Note_on_c, 4, 34, 99
6, 435120, Note_on_c, 4, 34, 0
6, 435120, Note_on_c, 4, 34, 99
6, 435240, Note_on_c, 4, 34, 0
6, 435360, Note_on_c, 4, 34, 99
6, 435720, Note_on_c, 4, 34, 0
6, 435840, Note_on_c, 4, 39, 99
6, 435944, Note_on_c, 4, 39, 0
6, 436080, Note_on_c, 4, 39, 99
6, 436404, Note_on_c, 4, 39, 0
6, 436560, Note_on_c, 4, 39, 99
6, 436644, Note_on_c, 4, 39, 0
6, 436800, Note_on_c, 4, 39, 99
6, 437614, Note_on_c, 4, 39, 0
6, 437760, Note_on_c, 4, 32, 99
6, 437864, Note_on_c, 4, 32, 0
6, 438000, Note_on_c, 4, 32, 99
6, 438324, Note_on_c, 4, 32, 0
6, 438480, Note_on_c, 4, 32, 99
6, 438564, Note_on_c, 4, 32, 0
6, 438720, Note_on_c, 4, 32, 99
6, 439534, Note_on_c, 4, 32, 0
6, 439680, Note_on_c, 4, 29, 99
6, 439920, Note_on_c, 4, 29, 0
6, 439920, Note_on_c, 4, 29, 99
6, 440040, Note_on_c, 4, 29, 0
6, 440160, Note_on_c, 4, 29, 99
6, 440520, Note_on_c, 4, 29, 0
6, 440640, Note_on_c, 4, 29, 99
6, 440880, Note_on_c, 4, 29, 0
6, 440880, Note_on_c, 4, 29, 99
6, 441000, Note_on_c, 4, 29, 0
6, 441120, Note_on_c, 4, 29, 99
6, 441480, Note_on_c, 4, 29, 0
6, 441600, Note_on_c, 4, 34, 99
6, 441840, Note_on_c, 4, 34, 0
6, 441840, Note_on_c, 4, 34, 99
6, 441960, Note_on_c, 4, 34, 0
6, 442080, Note_on_c, 4, 34, 99
6, 442440, Note_on_c, 4, 34, 0
6, 442560, Note_on_c, 4, 34, 99
6, 442800, Note_on_c, 4, 34, 0
6, 442800, Note_on_c, 4, 34, 99
6, 442920, Note_on_c, 4, 34, 0
6, 443040, Note_on_c, 4, 34, 99
6, 443400, Note_on_c, 4, 34, 0
6, 443520, Note_on_c, 4, 39, 127
6, 443712, Note_on_c, 4, 39, 0
6, 444000, Note_on_c, 4, 46, 127
6, 444192, Note_on_c, 4, 46, 0
6, 444480, Note_on_c, 4, 43, 127
6, 444672, Note_on_c, 4, 43, 0
6, 444960, Note_on_c, 4, 46, 127
6, 445152, Note_on_c, 4, 46, 0
6, 445440, Note_on_c, 4, 39, 127
6, 445632, Note_on_c, 4, 39, 0
6, 445920, Note_on_c, 4, 46, 127
6, 446112, Note_on_c, 4, 46, 0
6, 446400, Note_on_c, 4, 34, 127
6, 446592, Note_on_c, 4, 34, 0
6, 446880, Note_on_c, 4, 46, 127
6, 447072, Note_on_c, 4, 46, 0
6, 447360, Note_on_c, 4, 39, 127
6, 447552, Note_on_c, 4, 39, 0
6, 447840, Note_on_c, 4, 46, 127
6, 448032, Note_on_c, 4, 46, 0
6, 448320, Note_on_c, 4, 43, 127
6, 448512, Note_on_c, 4, 43, 0
6, 448800, Note_on_c, 4, 46, 127
6, 448992, Note_on_c, 4, 46, 0
6, 449280, Note_on_c, 4, 39, 127
6, 449472, Note_on_c, 4, 39, 0
6, 449760, Note_on_c, 4, 46, 127
6, 449952, Note_on_c, 4, 46, 0
6, 450240, Note_on_c, 4, 34, 127
6, 450432, Note_on_c, 4, 34, 0
6, 450720, Note_on_c, 4, 46, 127
6, 450912, Note_on_c, 4, 46, 0
6, 451200, Note_on_c, 4, 39, 127
6, 451392, Note_on_c, 4, 39, 0
6, 451680, Note_on_c, 4, 46, 127
6, 451872, Note_on_c, 4, 46, 0
6, 452160, Note_on_c, 4, 43, 127
6, 452352, Note_on_c, 4, 43, 0
6, 452640, Note_on_c, 4, 46, 127
6, 452832, Note_on_c, 4, 46, 0
6, 453120, Note_on_c, 4, 39, 127
6, 453312, Note_on_c, 4, 39, 0
6, 453600, Note_on_c, 4, 46, 127
6, 453792, Note_on_c, 4, 46, 0
6, 454080, Note_on_c, 4, 34, 127
6, 454272, Note_on_c, 4, 34, 0
6, 454560, Note_on_c, 4, 46, 127
6, 454752, Note_on_c, 4, 46, 0
6, 455040, Note_on_c, 4, 39, 127
6, 455232, Note_on_c, 4, 39, 0
6, 455520, Note_on_c, 4, 46, 127
6, 455712, Note_on_c, 4, 46, 0
6, 456000, Note_on_c, 4, 43, 127
6, 456192, Note_on_c, 4, 43, 0
6, 456480, Note_on_c, 4, 46, 127
6, 456672, Note_on_c, 4, 46, 0
6, 456960, Note_on_c, 4, 39, 127
6, 457152, Note_on_c, 4, 39, 0
6, 457440, Note_on_c, 4, 46, 127
6, 457632, Note_on_c, 4, 46, 0
6, 457920, Note_on_c, 4, 34, 127
6, 458112, Note_on_c, 4, 34, 0
6, 458400, Note_on_c, 4, 46, 127
6, 458592, Note_on_c, 4, 46, 0
6, 458880, Note_on_c, 4, 39, 80
6, 459072, Note_on_c, 4, 39, 0
6, 459360, Note_on_c, 4, 43, 80
6, 459552, Note_on_c, 4, 43, 0
6, 459840, Note_on_c, 4, 46, 80
6, 460032, Note_on_c, 4, 46, 0
6, 460320, Note_on_c, 4, 51, 80
6, 460512, Note_on_c, 4, 51, 0
6, 460800, Note_on_c, 4, 55, 80
6, 460992, Note_on_c, 4, 55, 0
6, 461280, Note_on_c, 4, 51, 80
6, 461472, Note_on_c, 4, 51, 0
6, 461760, Note_on_c, 4, 46, 80
6, 461952, Note_on_c, 4, 46, 0
6, 462240, Note_on_c, 4, 43, 80
6, 462432, Note_on_c, 4, 43, 0
6, 462720, Note_on_c, 4, 39, 96
6, 462912, Note_on_c, 4, 39, 0
6, 463200, Note_on_c, 4, 43, 96
6, 463392, Note_on_c, 4, 43, 0
6, 463680, Note_on_c, 4, 46, 96
6, 463872, Note_on_c, 4, 46, 0
6, 464160, Note_on_c, 4, 51, 96
6, 464352, Note_on_c, 4, 51, 0
6, 464640, Note_on_c, 4, 55, 96
6, 464832, Note_on_c, 4, 55, 0
6, 465120, Note_on_c, 4, 51, 96
6, 465312, Note_on_c, 4, 51, 0
6, 465600, Note_on_c, 4, 46, 96
6, 465792, Note_on_c, 4, 46, 0
6, 466080, Note_on_c, 4, 43, 96
6, 466272, Note_on_c, 4, 43, 0
6, 466560, Note_on_c, 4, 39, 115
6, 466752, Note_on_c, 4, 39, 0
6, 467040, Note_on_c, 4, 43, 115
6, 467232, Note_on_c, 4, 43, 0
6, 467520, Note_on_c, 4, 46, 115
6, 467712, Note_on_c, 4, 46, 0
6, 468000, Note_on_c, 4, 51, 115
6, 468192, Note_on_c, 4, 51, 0
6, 468480, Note_on_c, 4, 55, 115
6, 468672, Note_on_c, 4, 55, 0
6, 468960, Note_on_c, 4, 51, 115
6, 469152, Note_on_c, 4, 51, 0
6, 469440, Note_on_c, 4, 46, 115
6, 469632, Note_on_c, 4, 46, 0
6, 469920, Note_on_c, 4, 43, 115
6, 470112, Note_on_c, 4, 43, 0
6, 470400, Note_on_c, 4, 46, 127
6, 470592, Note_on_c, 4, 46, 0
6, 470880, Note_on_c, 4, 43, 127
6, 471072, Note_on_c, 4, 43, 0
6, 471360, Note_on_c, 4, 39, 127
6, 471552, Note_on_c, 4, 39, 0
6, 471840, Note_on_c, 4, 34, 127
6, 472032, Note_on_c, 4, 34, 0
6, 472320, Note_on_c, 4, 39, 127
6, 472512, Note_on_c, 4, 39, 0
6, 472800, Note_on_c, 4, 34, 127
6, 472992, Note_on_c, 4, 34, 0
6, 473280, Note_on_c, 4, 31, 127
6, 473472, Note_on_c, 4, 31, 0
6, 473760, Note_on_c, 4, 27, 127
6, 473952, Note_on_c, 4, 27, 0
6, 474240, Note_on_c, 4, 34, 127
6, 474344, Note_on_c, 4, 34, 0
6, 474480, Note_on_c, 4, 34, 127
6, 474804, Note_on_c, 4, 34, 0
6, 474960, Note_on_c, 4, 34, 127
6, 475044, Note_on_c, 4, 34, 0
6, 475200, Note_on_c, 4, 34, 127
6, 476014, Note_on_c, 4, 34, 0
6, 478320, Note_on_c, 4, 34, 127
6, 478424, Note_on_c, 4, 34, 0
6, 478560, Note_on_c, 4, 34, 127
6, 478884, Note_on_c, 4, 34, 0
6, 479040, Note_on_c, 4, 34, 127
6, 479124, Note_on_c, 4, 34, 0
6, 479280, Note_on_c, 4, 34, 127
6, 480094, Note_on_c, 4, 34, 0
6, 482400, Note_on_c, 4, 34, 120
6, 482508, Note_on_c, 4, 34, 0
6, 482640, Note_on_c, 4, 34, 80
6, 482748, Note_on_c, 4, 34, 0
6, 482880, Note_on_c, 4, 34, 80
6, 482988, Note_on_c, 4, 34, 0
6, 483120, Note_on_c, 4, 34, 80
6, 483228, Note_on_c, 4, 34, 0
6, 483360, Note_on_c, 4, 34, 120
6, 483468, Note_on_c, 4, 34, 0
6, 483600, Note_on_c, 4, 34, 80
6, 483708, Note_on_c, 4, 34, 0
6, 483840, Note_on_c, 4, 34, 80
6, 483948, Note_on_c, 4, 34, 0
6, 484080, Note_on_c, 4, 34, 80
6, 484188, Note_on_c, 4, 34, 0
6, 484320, Note_on_c, 4, 34, 120
6, 484428, Note_on_c, 4, 34, 0
6, 484560, Note_on_c, 4, 34, 80
6, 484668, Note_on_c, 4, 34, 0
6, 484800, Note_on_c, 4, 34, 80
6, 484908, Note_on_c, 4, 34, 0
6, 485040, Note_on_c, 4, 34, 80
6, 485148, Note_on_c, 4, 34, 0
6, 485280, Note_on_c, 4, 34, 120
6, 485388, Note_on_c, 4, 34, 0
6, 485520, Note_on_c, 4, 34, 80
6, 485628, Note_on_c, 4, 34, 0
6, 485760, Note_on_c, 4, 34, 80
6, 485868, Note_on_c, 4, 34, 0
6, 486000, Note_on_c, 4, 34, 80
6, 486108, Note_on_c, 4, 34, 0
6, 486240, Note_on_c, 4, 39, 127
6, 486384, Note_on_c, 4, 39, 0
6, 486720, Note_on_c, 4, 39, 127
6, 486864, Note_on_c, 4, 39, 0
6, 487200, Note_on_c, 4, 39, 127
6, 487344, Note_on_c, 4, 39, 0
6, 487680, Note_on_c, 4, 39, 127
6, 487824, Note_on_c, 4, 39, 0
6, 488160, Note_on_c, 4, 39, 127
6, 488304, Note_on_c, 4, 39, 0
6, 488640, Note_on_c, 4, 39, 127
6, 488784, Note_on_c, 4, 39, 0
6, 489120, Note_on_c, 4, 39, 127
6, 489264, Note_on_c, 4, 39, 0
6, 489600, Note_on_c, 4, 39, 127
6, 489744, Note_on_c, 4, 39, 0
6, 490080, Note_on_c, 4, 39, 127
6, 490224, Note_on_c, 4, 39, 0
6, 492000, Note_on_c, 4, 39, 127
6, 492144, Note_on_c, 4, 39, 0
6, 493920, Note_on_c, 4, 39, 127
6, 494064, Note_on_c, 4, 39, 0
6, 495000, Note_on_c, 4, 39, 127
6, 495144, Note_on_c, 4, 39, 0
6, 496080, Note_on_c, 4, 39, 127
6, 496224, Note_on_c, 4, 39, 0
6, 497160, Note_on_c, 4, 39, 127
6, 497304, Note_on_c, 4, 39, 0
6, 498360, Note_on_c, 4, 39, 127
6, 498504, Note_on_c, 4, 39, 0
6, 498504, End_track
7, 0, Start_track
7, 0, Title_t, "Horns in Eb"
7, 0, Program_c, 5, 60
7, 0, Control_c, 5, 7, 90
7, 0, Control_c, 5, 10, 45
7, 2880, Control_c, 5, 91, 100
7, 7680, Note_on_c, 5, 70, 65
7, 7680, Note_on_c, 5, 58, 57
7, 7688, Control_c, 5, 7, 119
7, 7696, Control_c, 5, 7, 119
7, 7704, Control_c, 5, 7, 120
7, 7712, Control_c, 5, 7, 120
7, 7720, Control_c, 5, 7, 119
7, 7728, Control_c, 5, 7, 119
7, 7736, Control_c, 5, 7, 119
7, 7744, Control_c, 5, 7, 118
7, 7752, Control_c, 5, 7, 118
7, 7760, Control_c, 5, 7, 118
7, 7768, Control_c, 5, 7, 118
7, 7776, Control_c, 5, 7, 118
7, 7784, Control_c, 5, 7, 118
7, 7792, Control_c, 5, 7, 118
7, 7800, Control_c, 5, 7, 118
7, 7808, Control_c, 5, 7, 118
7, 7816, Control_c, 5, 7, 118
7, 7824, Control_c, 5, 7, 117
7, 7832, Control_c, 5, 7, 116
7, 7840, Control_c, 5, 7, 116
7, 7848, Control_c, 5, 7, 116
7, 7856, Control_c, 5, 7, 116
7, 7864, Control_c, 5, 7, 116
7, 7872, Control_c, 5, 7, 116
7, 7880, Control_c, 5, 7, 115
7, 7888, Control_c, 5, 7, 114
7, 7896, Control_c, 5, 7, 113
7, 7904, Control_c, 5, 7, 113
7, 7912, Control_c, 5, 7, 113
7, 7920, Control_c, 5, 7, 111
7, 7928, Control_c, 5, 7, 111
7, 7936, Control_c, 5, 7, 111
7, 7944, Control_c, 5, 7, 111
7, 7952, Control_c, 5, 7, 111
7, 7960, Control_c, 5, 7, 111
7, 7968, Control_c, 5, 7, 111
7, 7976, Control_c, 5, 7, 111
7, 7984, Control_c, 5, 7, 111
7, 7992, Control_c, 5, 7, 111
7, 8000, Control_c, 5, 7, 110
7, 8008, Control_c, 5, 7, 110
7, 8016, Control_c, 5, 7, 109
7, 8024, Control_c, 5, 7, 109
7, 8032, Control_c, 5, 7, 109
7, 8040, Control_c, 5, 7, 109
7, 8048, Control_c, 5, 7, 109
7, 8056, Control_c, 5, 7, 108
7, 8064, Control_c, 5, 7, 108
7, 8072, Control_c, 5, 7, 107
7, 8080, Control_c, 5, 7, 107
7, 8088, Control_c, 5, 7, 102
7, 8096, Control_c, 5, 7, 102
7, 8104, Control_c, 5, 7, 101
7, 8112, Control_c, 5, 7, 101
7, 8120, Control_c, 5, 7, 101
7, 8128, Control_c, 5, 7, 101
7, 8136, Control_c, 5, 7, 101
7, 8144, Control_c, 5, 7, 101
7, 8152, Control_c, 5, 7, 101
7, 8160, Control_c, 5, 7, 99
7, 8168, Control_c, 5, 7, 98
7, 8176, Control_c, 5, 7, 98
7, 8184, Control_c, 5, 7, 98
7, 8192, Control_c, 5, 7, 98
7, 8200, Control_c, 5, 7, 98
7, 8208, Control_c, 5, 7, 97
7, 8216, Control_c, 5, 7, 98
7, 8224, Control_c, 5, 7, 97
7, 8232, Control_c, 5, 7, 96
7, 8240, Control_c, 5, 7, 95
7, 8248, Control_c, 5, 7, 94
7, 8256, Control_c, 5, 7, 93
7, 8264, Control_c, 5, 7, 93
7, 8272, Control_c, 5, 7, 93
7, 8280, Control_c, 5, 7, 93
7, 8288, Control_c, 5, 7, 93
7, 8296, Control_c, 5, 7, 93
7, 8304, Control_c, 5, 7, 93
7, 8312, Control_c, 5, 7, 88
7, 8320, Control_c, 5, 7, 88
7, 8328, Control_c, 5, 7, 88
7, 8336, Control_c, 5, 7, 88
7, 8344, Control_c, 5, 7, 88
7, 8352, Control_c, 5, 7, 88
7, 8360, Control_c, 5, 7, 87
7, 8368, Control_c, 5, 7, 87
7, 8376, Control_c, 5, 7, 87
7, 8384, Control_c, 5, 7, 86
7, 8392, Control_c, 5, 7, 87
7, 8400, Control_c, 5, 7, 86
7, 8408, Control_c, 5, 7, 86
7, 8416, Control_c, 5, 7, 86
7, 8424, Control_c, 5, 7, 86
7, 8432, Control_c, 5, 7, 86
7, 8440, Control_c, 5, 7, 86
7, 8448, Control_c, 5, 7, 86
7, 8456, Control_c, 5, 7, 86
7, 8464, Control_c, 5, 7, 86
7, 8472, Control_c, 5, 7, 86
7, 8480, Control_c, 5, 7, 86
7, 8488, Control_c, 5, 7, 86
7, 8496, Control_c, 5, 7, 86
7, 8504, Control_c, 5, 7, 85
7, 8512, Control_c, 5, 7, 85
7, 8520, Control_c, 5, 7, 85
7, 8528, Control_c, 5, 7, 85
7, 8536, Control_c, 5, 7, 85
7, 8544, Control_c, 5, 7, 85
7, 8552, Control_c, 5, 7, 85
7, 8560, Control_c, 5, 7, 85
7, 8568, Control_c, 5, 7, 85
7, 8576, Control_c, 5, 7, 85
7, 8584, Control_c, 5, 7, 85
7, 8592, Control_c, 5, 7, 86
7, 8600, Control_c, 5, 7, 85
7, 8608, Control_c, 5, 7, 85
7, 8616, Control_c, 5, 7, 85
7, 8624, Control_c, 5, 7, 85
7, 8632, Control_c, 5, 7, 85
7, 8640, Control_c, 5, 7, 85
7, 8648, Control_c, 5, 7, 84
7, 8656, Control_c, 5, 7, 84
7, 8664, Control_c, 5, 7, 84
7, 8672, Control_c, 5, 7, 84
7, 8680, Control_c, 5, 7, 84
7, 8688, Control_c, 5, 7, 84
7, 8696, Control_c, 5, 7, 85
7, 8704, Control_c, 5, 7, 85
7, 8712, Control_c, 5, 7, 85
7, 8720, Control_c, 5, 7, 85
7, 8728, Control_c, 5, 7, 84
7, 8736, Control_c, 5, 7, 83
7, 8744, Control_c, 5, 7, 84
7, 8752, Control_c, 5, 7, 84
7, 8760, Control_c, 5, 7, 84
7, 8768, Control_c, 5, 7, 84
7, 8776, Control_c, 5, 7, 84
7, 8784, Control_c, 5, 7, 84
7, 8792, Control_c, 5, 7, 84
7, 8800, Control_c, 5, 7, 84
7, 8808, Control_c, 5, 7, 84
7, 8816, Control_c, 5, 7, 85
7, 8824, Control_c, 5, 7, 85
7, 8832, Control_c, 5, 7, 84
7, 8840, Control_c, 5, 7, 84
7, 8848, Control_c, 5, 7, 84
7, 8856, Control_c, 5, 7, 84
7, 8864, Control_c, 5, 7, 84
7, 8872, Control_c, 5, 7, 84
7, 8880, Control_c, 5, 7, 84
7, 8888, Control_c, 5, 7, 84
7, 8896, Control_c, 5, 7, 84
7, 8904, Control_c, 5, 7, 84
7, 8912, Control_c, 5, 7, 84
7, 8920, Control_c, 5, 7, 84
7, 8928, Control_c, 5, 7, 84
7, 8936, Control_c, 5, 7, 84
7, 8944, Control_c, 5, 7, 84
7, 8952, Control_c, 5, 7, 84
7, 8960, Control_c, 5, 7, 84
7, 8968, Control_c, 5, 7, 84
7, 8976, Control_c, 5, 7, 84
7, 8984, Control_c, 5, 7, 84
7, 8992, Control_c, 5, 7, 84
7, 9000, Control_c, 5, 7, 83
7, 9008, Control_c, 5, 7, 83
7, 9016, Control_c, 5, 7, 83
7, 9024, Control_c, 5, 7, 83
7, 9032, Control_c, 5, 7, 83
7, 9040, Control_c, 5, 7, 83
7, 9048, Control_c, 5, 7, 83
7, 9056, Control_c, 5, 7, 83
7, 9064, Control_c, 5, 7, 83
7, 9072, Control_c, 5, 7, 83
7, 9080, Control_c, 5, 7, 82
7, 9088, Control_c, 5, 7, 83
7, 9096, Control_c, 5, 7, 83
7, 9104, Control_c, 5, 7, 83
7, 9112, Control_c, 5, 7, 83
7, 9120, Control_c, 5, 7, 83
7, 9128, Control_c, 5, 7, 82
7, 9136, Control_c, 5, 7, 81
7, 9144, Control_c, 5, 7, 80
7, 9152, Control_c, 5, 7, 80
7, 9160, Control_c, 5, 7, 78
7, 9168, Control_c, 5, 7, 78
7, 9176, Control_c, 5, 7, 78
7, 9184, Control_c, 5, 7, 78
7, 9192, Control_c, 5, 7, 78
7, 9200, Control_c, 5, 7, 77
7, 9208, Control_c, 5, 7, 77
7, 9216, Control_c, 5, 7, 77
7, 9224, Control_c, 5, 7, 75
7, 9232, Control_c, 5, 7, 75
7, 9240, Control_c, 5, 7, 69
7, 9248, Control_c, 5, 7, 69
7, 9256, Control_c, 5, 7, 69
7, 9264, Control_c, 5, 7, 69
7, 9272, Control_c, 5, 7, 69
7, 9280, Control_c, 5, 7, 69
7, 9288, Control_c, 5, 7, 68
7, 9296, Control_c, 5, 7, 62
7, 9304, Control_c, 5, 7, 62
7, 9312, Control_c, 5, 7, 62
7, 9320, Control_c, 5, 7, 62
7, 9328, Control_c, 5, 7, 62
7, 9336, Control_c, 5, 7, 60
7, 9344, Control_c, 5, 7, 60
7, 9352, Control_c, 5, 7, 60
7, 9360, Control_c, 5, 7, 60
7, 9368, Control_c, 5, 7, 60
7, 9376, Control_c, 5, 7, 58
7, 9380, Note_on_c, 5, 58, 0
7, 9382, Note_on_c, 5, 70, 0
7, 9384, Control_c, 5, 7, 56
7, 9392, Control_c, 5, 7, 53
7, 9400, Control_c, 5, 7, 52
7, 10120, Control_c, 5, 7, 54
7, 10128, Control_c, 5, 7, 54
7, 10136, Control_c, 5, 7, 54
7, 10144, Control_c, 5, 7, 54
7, 10152, Control_c, 5, 7, 57
7, 10160, Control_c, 5, 7, 62
7, 10168, Control_c, 5, 7, 67
7, 10176, Control_c, 5, 7, 67
7, 10184, Control_c, 5, 7, 84
7, 10192, Control_c, 5, 7, 94
7, 10200, Control_c, 5, 7, 95
7, 10208, Control_c, 5, 7, 96
7, 10216, Control_c, 5, 7, 101
7, 10224, Control_c, 5, 7, 102
7, 10232, Control_c, 5, 7, 103
7, 10240, Control_c, 5, 7, 102
7, 10248, Control_c, 5, 7, 103
7, 14160, Note_on_c, 5, 63, 41
7, 14204, Note_on_c, 5, 63, 0
7, 14400, Note_on_c, 5, 63, 41
7, 14450, Note_on_c, 5, 63, 0
7, 14640, Note_on_c, 5, 51, 33
7, 14696, Note_on_c, 5, 51, 0
7, 15120, Note_on_c, 5, 63, 40
7, 15170, Note_on_c, 5, 63, 0
7, 15360, Note_on_c, 5, 63, 43
7, 15414, Note_on_c, 5, 63, 0
7, 15600, Note_on_c, 5, 51, 35
7, 15652, Note_on_c, 5, 51, 0
7, 16080, Note_on_c, 5, 63, 41
7, 16132, Note_on_c, 5, 63, 0
7, 16320, Note_on_c, 5, 63, 42
7, 16374, Note_on_c, 5, 63, 0
7, 16560, Note_on_c, 5, 51, 33
7, 16614, Note_on_c, 5, 51, 0
7, 17040, Note_on_c, 5, 63, 40
7, 17090, Note_on_c, 5, 63, 0
7, 17280, Note_on_c, 5, 63, 42
7, 17334, Note_on_c, 5, 63, 0
7, 17520, Note_on_c, 5, 51, 35
7, 17572, Note_on_c, 5, 51, 0
7, 18000, Note_on_c, 5, 63, 41
7, 18046, Note_on_c, 5, 63, 0
7, 18240, Note_on_c, 5, 63, 43
7, 18294, Note_on_c, 5, 63, 0
7, 18480, Note_on_c, 5, 51, 35
7, 18532, Note_on_c, 5, 51, 0
7, 18960, Note_on_c, 5, 63, 40
7, 19014, Note_on_c, 5, 63, 0
7, 19200, Note_on_c, 5, 63, 42
7, 19254, Note_on_c, 5, 63, 0
7, 19440, Note_on_c, 5, 51, 34
7, 19494, Note_on_c, 5, 51, 0
7, 19920, Note_on_c, 5, 63, 40
7, 19974, Note_on_c, 5, 63, 0
7, 20160, Note_on_c, 5, 63, 42
7, 20220, Note_on_c, 5, 63, 0
7, 20400, Note_on_c, 5, 51, 31
7, 20452, Note_on_c, 5, 51, 0
7, 20880, Note_on_c, 5, 63, 40
7, 20926, Note_on_c, 5, 63, 0
7, 21120, Note_on_c, 5, 51, 33
7, 21144, Control_c, 5, 7, 104
7, 21164, Note_on_c, 5, 51, 0
7, 22080, Control_c, 5, 7, 117
7, 22080, Note_on_c, 5, 65, 98
7, 22088, Control_c, 5, 7, 117
7, 22096, Control_c, 5, 7, 112
7, 22104, Control_c, 5, 7, 112
7, 22112, Control_c, 5, 7, 109
7, 22120, Control_c, 5, 7, 109
7, 22128, Control_c, 5, 7, 108
7, 22136, Control_c, 5, 7, 108
7, 22144, Control_c, 5, 7, 108
7, 22152, Control_c, 5, 7, 108
7, 22160, Control_c, 5, 7, 108
7, 22168, Control_c, 5, 7, 108
7, 22176, Control_c, 5, 7, 108
7, 22184, Control_c, 5, 7, 108
7, 22192, Control_c, 5, 7, 108
7, 22200, Control_c, 5, 7, 104
7, 22208, Control_c, 5, 7, 103
7, 22216, Control_c, 5, 7, 103
7, 22224, Control_c, 5, 7, 102
7, 22232, Control_c, 5, 7, 102
7, 22240, Control_c, 5, 7, 102
7, 22248, Control_c, 5, 7, 102
7, 22256, Control_c, 5, 7, 102
7, 22264, Control_c, 5, 7, 100
7, 22272, Control_c, 5, 7, 100
7, 22280, Control_c, 5, 7, 100
7, 22288, Control_c, 5, 7, 100
7, 22296, Control_c, 5, 7, 100
7, 22304, Control_c, 5, 7, 100
7, 22312, Control_c, 5, 7, 100
7, 22320, Control_c, 5, 7, 100
7, 22328, Control_c, 5, 7, 100
7, 22336, Control_c, 5, 7, 100
7, 22344, Control_c, 5, 7, 100
7, 22352, Control_c, 5, 7, 101
7, 22360, Control_c, 5, 7, 101
7, 22368, Control_c, 5, 7, 101
7, 22376, Control_c, 5, 7, 101
7, 22384, Control_c, 5, 7, 101
7, 22392, Control_c, 5, 7, 101
7, 22400, Control_c, 5, 7, 101
7, 22408, Control_c, 5, 7, 101
7, 22416, Control_c, 5, 7, 100
7, 22424, Control_c, 5, 7, 100
7, 22432, Control_c, 5, 7, 100
7, 22440, Control_c, 5, 7, 100
7, 22448, Control_c, 5, 7, 100
7, 22456, Control_c, 5, 7, 100
7, 22464, Control_c, 5, 7, 100
7, 22472, Control_c, 5, 7, 100
7, 22480, Control_c, 5, 7, 100
7, 22488, Control_c, 5, 7, 100
7, 22496, Control_c, 5, 7, 100
7, 22504, Control_c, 5, 7, 100
7, 22512, Control_c, 5, 7, 99
7, 22520, Control_c, 5, 7, 100
7, 22528, Control_c, 5, 7, 100
7, 22536, Control_c, 5, 7, 100
7, 22544, Control_c, 5, 7, 99
7, 22552, Control_c, 5, 7, 99
7, 22560, Control_c, 5, 7, 99
7, 22568, Control_c, 5, 7, 99
7, 22576, Control_c, 5, 7, 99
7, 22584, Control_c, 5, 7, 99
7, 22592, Control_c, 5, 7, 99
7, 22600, Control_c, 5, 7, 99
7, 22608, Control_c, 5, 7, 99
7, 22616, Control_c, 5, 7, 99
7, 22624, Control_c, 5, 7, 99
7, 22632, Control_c, 5, 7, 99
7, 22640, Control_c, 5, 7, 99
7, 22648, Control_c, 5, 7, 99
7, 22656, Control_c, 5, 7, 100
7, 22664, Control_c, 5, 7, 100
7, 22672, Control_c, 5, 7, 100
7, 22680, Control_c, 5, 7, 99
7, 22688, Control_c, 5, 7, 99
7, 22696, Control_c, 5, 7, 99
7, 22704, Control_c, 5, 7, 99
7, 22712, Control_c, 5, 7, 99
7, 22720, Control_c, 5, 7, 99
7, 22728, Control_c, 5, 7, 99
7, 22736, Control_c, 5, 7, 99
7, 22744, Control_c, 5, 7, 99
7, 22752, Control_c, 5, 7, 99
7, 22760, Control_c, 5, 7, 100
7, 22768, Control_c, 5, 7, 101
7, 22776, Control_c, 5, 7, 102
7, 22784, Control_c, 5, 7, 103
7, 22792, Control_c, 5, 7, 103
7, 22800, Control_c, 5, 7, 103
7, 22808, Control_c, 5, 7, 103
7, 22816, Control_c, 5, 7, 103
7, 22824, Control_c, 5, 7, 103
7, 22832, Control_c, 5, 7, 103
7, 22840, Control_c, 5, 7, 103
7, 22848, Control_c, 5, 7, 103
7, 22856, Control_c, 5, 7, 103
7, 22864, Control_c, 5, 7, 103
7, 22872, Control_c, 5, 7, 103
7, 22880, Control_c, 5, 7, 102
7, 22888, Control_c, 5, 7, 102
7, 22896, Control_c, 5, 7, 102
7, 22904, Control_c, 5, 7, 102
7, 22912, Control_c, 5, 7, 102
7, 22920, Control_c, 5, 7, 102
7, 22928, Control_c, 5, 7, 102
7, 22936, Control_c, 5, 7, 102
7, 22944, Control_c, 5, 7, 102
7, 22952, Control_c, 5, 7, 102
7, 22960, Control_c, 5, 7, 102
7, 22968, Control_c, 5, 7, 102
7, 22976, Control_c, 5, 7, 102
7, 22984, Control_c, 5, 7, 102
7, 22992, Control_c, 5, 7, 102
7, 23000, Control_c, 5, 7, 102
7, 23008, Control_c, 5, 7, 102
7, 23016, Control_c, 5, 7, 102
7, 23024, Control_c, 5, 7, 102
7, 23032, Control_c, 5, 7, 102
7, 23040, Control_c, 5, 7, 100
7, 23048, Control_c, 5, 7, 101
7, 23056, Control_c, 5, 7, 101
7, 23064, Control_c, 5, 7, 101
7, 23072, Control_c, 5, 7, 101
7, 23080, Control_c, 5, 7, 101
7, 23088, Control_c, 5, 7, 101
7, 23096, Control_c, 5, 7, 101
7, 23104, Control_c, 5, 7, 100
7, 23112, Control_c, 5, 7, 100
7, 23120, Control_c, 5, 7, 101
7, 23128, Control_c, 5, 7, 100
7, 23136, Control_c, 5, 7, 95
7, 23144, Control_c, 5, 7, 95
7, 23152, Control_c, 5, 7, 94
7, 23160, Control_c, 5, 7, 94
7, 23168, Control_c, 5, 7, 94
7, 23176, Control_c, 5, 7, 94
7, 23184, Control_c, 5, 7, 94
7, 23192, Control_c, 5, 7, 93
7, 23200, Control_c, 5, 7, 93
7, 23208, Control_c, 5, 7, 93
7, 23216, Control_c, 5, 7, 93
7, 23224, Control_c, 5, 7, 93
7, 23232, Control_c, 5, 7, 94
7, 23240, Control_c, 5, 7, 94
7, 23248, Control_c, 5, 7, 94
7, 23256, Control_c, 5, 7, 94
7, 23264, Control_c, 5, 7, 94
7, 23272, Control_c, 5, 7, 92
7, 23280, Control_c, 5, 7, 92
7, 23288, Control_c, 5, 7, 92
7, 23296, Control_c, 5, 7, 92
7, 23304, Control_c, 5, 7, 92
7, 23312, Control_c, 5, 7, 92
7, 23320, Control_c, 5, 7, 93
7, 23328, Control_c, 5, 7, 91
7, 23336, Control_c, 5, 7, 91
7, 23344, Control_c, 5, 7, 91
7, 23352, Control_c, 5, 7, 91
7, 23360, Control_c, 5, 7, 91
7, 23368, Control_c, 5, 7, 91
7, 23376, Control_c, 5, 7, 90
7, 23384, Control_c, 5, 7, 89
7, 23392, Control_c, 5, 7, 88
7, 23400, Control_c, 5, 7, 87
7, 23408, Control_c, 5, 7, 86
7, 23416, Control_c, 5, 7, 87
7, 23424, Control_c, 5, 7, 86
7, 23432, Control_c, 5, 7, 85
7, 23440, Control_c, 5, 7, 85
7, 23448, Control_c, 5, 7, 85
7, 23456, Control_c, 5, 7, 85
7, 23464, Control_c, 5, 7, 85
7, 23472, Control_c, 5, 7, 84
7, 23480, Control_c, 5, 7, 83
7, 23488, Control_c, 5, 7, 81
7, 23496, Control_c, 5, 7, 82
7, 23504, Control_c, 5, 7, 81
7, 23512, Control_c, 5, 7, 80
7, 23520, Control_c, 5, 7, 79
7, 23528, Control_c, 5, 7, 78
7, 23536, Control_c, 5, 7, 77
7, 23544, Control_c, 5, 7, 76
7, 23552, Control_c, 5, 7, 75
7, 23560, Control_c, 5, 7, 74
7, 23568, Control_c, 5, 7, 73
7, 23576, Control_c, 5, 7, 72
7, 23584, Control_c, 5, 7, 72
7, 23592, Control_c, 5, 7, 66
7, 23600, Control_c, 5, 7, 67
7, 23608, Control_c, 5, 7, 66
7, 23616, Control_c, 5, 7, 65
7, 23624, Control_c, 5, 7, 65
7, 23632, Control_c, 5, 7, 65
7, 23640, Control_c, 5, 7, 65
7, 23648, Control_c, 5, 7, 65
7, 23656, Control_c, 5, 7, 63
7, 23664, Control_c, 5, 7, 63
7, 23672, Control_c, 5, 7, 63
7, 23680, Control_c, 5, 7, 63
7, 23688, Control_c, 5, 7, 63
7, 23696, Control_c, 5, 7, 57
7, 23704, Control_c, 5, 7, 57
7, 23712, Control_c, 5, 7, 57
7, 23720, Control_c, 5, 7, 57
7, 23728, Control_c, 5, 7, 57
7, 23736, Control_c, 5, 7, 57
7, 23744, Control_c, 5, 7, 57
7, 23752, Control_c, 5, 7, 56
7, 23760, Control_c, 5, 7, 54
7, 23768, Control_c, 5, 7, 54
7, 23776, Control_c, 5, 7, 52
7, 23784, Control_c, 5, 7, 51
7, 23792, Control_c, 5, 7, 51
7, 23800, Control_c, 5, 7, 50
7, 23808, Control_c, 5, 7, 46
7, 23816, Control_c, 5, 7, 40
7, 23822, Note_on_c, 5, 65, 0
7, 23824, Control_c, 5, 7, 34
7, 23832, Control_c, 5, 7, 32
7, 23840, Control_c, 5, 7, 32
7, 23848, Control_c, 5, 7, 30
7, 23856, Control_c, 5, 7, 29
7, 23864, Control_c, 5, 7, 27
7, 23872, Control_c, 5, 7, 27
7, 23880, Control_c, 5, 7, 27
7, 23888, Control_c, 5, 7, 27
7, 23896, Control_c, 5, 7, 27
7, 23904, Control_c, 5, 7, 27
7, 23912, Control_c, 5, 7, 27
7, 23920, Control_c, 5, 7, 27
7, 23928, Control_c, 5, 7, 27
7, 23936, Control_c, 5, 7, 40
7, 23944, Control_c, 5, 7, 40
7, 23952, Control_c, 5, 7, 92
7, 23960, Control_c, 5, 7, 95
7, 23968, Control_c, 5, 7, 103
7, 27840, Note_on_c, 5, 65, 114
7, 27840, Note_on_c, 5, 58, 108
7, 29520, Note_on_c, 5, 58, 0
7, 29520, Note_on_c, 5, 65, 0
7, 30480, Note_on_c, 5, 70, 38
7, 30534, Note_on_c, 5, 70, 0
7, 30720, Note_on_c, 5, 70, 41
7, 30772, Note_on_c, 5, 70, 0
7, 30960, Note_on_c, 5, 58, 36
7, 31014, Note_on_c, 5, 58, 0
7, 31440, Note_on_c, 5, 70, 40
7, 31490, Note_on_c, 5, 70, 0
7, 31680, Note_on_c, 5, 70, 43
7, 31734, Note_on_c, 5, 70, 0
7, 31920, Note_on_c, 5, 58, 32
7, 31972, Note_on_c, 5, 58, 0
7, 32400, Note_on_c, 5, 70, 44
7, 32444, Note_on_c, 5, 70, 0
7, 32640, Note_on_c, 5, 70, 44
7, 32686, Note_on_c, 5, 70, 0
7, 32880, Note_on_c, 5, 58, 35
7, 32920, Note_on_c, 5, 58, 0
7, 33360, Note_on_c, 5, 70, 46
7, 33414, Note_on_c, 5, 70, 0
7, 33600, Note_on_c, 5, 70, 44
7, 33646, Note_on_c, 5, 70, 0
7, 33840, Note_on_c, 5, 65, 30
7, 33840, Note_on_c, 5, 58, 38
7, 33886, Note_on_c, 5, 58, 0
7, 33960, Note_on_c, 5, 66, 38
7, 33982, Note_on_c, 5, 65, 0
7, 34080, Note_on_c, 5, 68, 49
7, 34100, Note_on_c, 5, 66, 0
7, 34200, Note_on_c, 5, 66, 44
7, 34226, Note_on_c, 5, 68, 0
7, 34320, Note_on_c, 5, 65, 43
7, 34326, Note_on_c, 5, 66, 0
7, 34434, Note_on_c, 5, 65, 0
7, 34520, Note_on_c, 5, 65, 42
7, 34560, Note_on_c, 5, 65, 0
7, 34560, Note_on_c, 5, 65, 42
7, 34680, Note_on_c, 5, 63, 44
7, 34700, Note_on_c, 5, 65, 0
7, 34800, Note_on_c, 5, 65, 43
7, 34806, Note_on_c, 5, 63, 0
7, 35004, Note_on_c, 5, 65, 0
7, 35040, Note_on_c, 5, 66, 44
7, 35160, Note_on_c, 5, 65, 43
7, 35170, Note_on_c, 5, 66, 0
7, 35280, Note_on_c, 5, 63, 41
7, 35312, Note_on_c, 5, 65, 0
7, 35460, Note_on_c, 5, 63, 0
7, 35520, Note_on_c, 5, 63, 35
7, 35692, Note_on_c, 5, 63, 0
7, 39120, Note_on_c, 5, 65, 36
7, 39120, Note_on_c, 5, 58, 33
7, 39240, Note_on_c, 5, 67, 36
7, 39240, Note_on_c, 5, 63, 34
7, 39256, Note_on_c, 5, 65, 0
7, 39282, Note_on_c, 5, 58, 0
7, 39360, Note_on_c, 5, 68, 42
7, 39360, Note_on_c, 5, 65, 38
7, 39380, Note_on_c, 5, 63, 0
7, 39392, Note_on_c, 5, 67, 0
7, 39480, Note_on_c, 5, 67, 39
7, 39480, Note_on_c, 5, 63, 31
7, 39490, Note_on_c, 5, 65, 0
7, 39512, Note_on_c, 5, 68, 0
7, 39586, Note_on_c, 5, 67, 0
7, 39586, Note_on_c, 5, 63, 0
7, 39600, Note_on_c, 5, 65, 38
7, 39600, Note_on_c, 5, 58, 39
7, 39716, Note_on_c, 5, 58, 0
7, 39734, Note_on_c, 5, 65, 0
7, 41040, Note_on_c, 5, 65, 38
7, 41040, Note_on_c, 5, 58, 36
7, 41150, Note_on_c, 5, 65, 0
7, 41160, Note_on_c, 5, 67, 40
7, 41160, Note_on_c, 5, 63, 28
7, 41190, Note_on_c, 5, 58, 0
7, 41256, Note_on_c, 5, 67, 0
7, 41274, Note_on_c, 5, 63, 0
7, 41280, Note_on_c, 5, 68, 42
7, 41280, Note_on_c, 5, 65, 40
7, 41400, Note_on_c, 5, 67, 37
7, 41400, Note_on_c, 5, 63, 33
7, 41412, Note_on_c, 5, 65, 0
7, 41430, Note_on_c, 5, 68, 0
7, 41520, Note_on_c, 5, 65, 32
7, 41520, Note_on_c, 5, 58, 38
7, 41526, Note_on_c, 5, 67, 0
7, 41532, Note_on_c, 5, 63, 0
7, 41662, Note_on_c, 5, 58, 0
7, 41682, Note_on_c, 5, 65, 0
7, 42480, Note_on_c, 5, 65, 58
7, 42480, Note_on_c, 5, 58, 53
7, 42600, Note_on_c, 5, 67, 59
7, 42600, Note_on_c, 5, 63, 55
7, 42604, Note_on_c, 5, 65, 0
7, 42614, Note_on_c, 5, 58, 0
7, 42694, Note_on_c, 5, 67, 0
7, 42704, Control_c, 5, 7, 117
7, 42712, Control_c, 5, 7, 116
7, 42720, Control_c, 5, 7, 114
7, 42720, Note_on_c, 5, 68, 67
7, 42720, Note_on_c, 5, 65, 62
7, 42722, Note_on_c, 5, 63, 0
7, 42728, Control_c, 5, 7, 114
7, 42736, Control_c, 5, 7, 114
7, 42744, Control_c, 5, 7, 114
7, 42752, Control_c, 5, 7, 114
7, 42760, Control_c, 5, 7, 114
7, 42768, Control_c, 5, 7, 113
7, 42776, Control_c, 5, 7, 112
7, 42784, Control_c, 5, 7, 110
7, 42792, Control_c, 5, 7, 110
7, 42800, Control_c, 5, 7, 108
7, 42808, Control_c, 5, 7, 108
7, 42816, Control_c, 5, 7, 107
7, 42824, Control_c, 5, 7, 107
7, 42832, Control_c, 5, 7, 107
7, 42840, Control_c, 5, 7, 102
7, 42848, Control_c, 5, 7, 101
7, 42856, Control_c, 5, 7, 100
7, 42864, Control_c, 5, 7, 100
7, 42872, Control_c, 5, 7, 100
7, 42880, Control_c, 5, 7, 100
7, 42888, Control_c, 5, 7, 100
7, 42896, Control_c, 5, 7, 101
7, 42904, Control_c, 5, 7, 101
7, 42912, Control_c, 5, 7, 100
7, 42920, Control_c, 5, 7, 100
7, 42928, Control_c, 5, 7, 100
7, 42936, Control_c, 5, 7, 100
7, 42944, Control_c, 5, 7, 100
7, 42952, Control_c, 5, 7, 99
7, 42960, Control_c, 5, 7, 99
7, 42968, Control_c, 5, 7, 99
7, 42976, Control_c, 5, 7, 99
7, 42984, Control_c, 5, 7, 99
7, 42992, Control_c, 5, 7, 100
7, 43000, Control_c, 5, 7, 100
7, 43008, Control_c, 5, 7, 100
7, 43016, Control_c, 5, 7, 100
7, 43024, Control_c, 5, 7, 100
7, 43032, Control_c, 5, 7, 100
7, 43040, Control_c, 5, 7, 100
7, 43048, Control_c, 5, 7, 100
7, 43056, Control_c, 5, 7, 100
7, 43064, Control_c, 5, 7, 101
7, 43072, Control_c, 5, 7, 101
7, 43080, Control_c, 5, 7, 101
7, 43088, Control_c, 5, 7, 101
7, 43096, Control_c, 5, 7, 101
7, 43104, Control_c, 5, 7, 101
7, 43112, Control_c, 5, 7, 100
7, 43120, Control_c, 5, 7, 101
7, 43128, Control_c, 5, 7, 101
7, 43136, Control_c, 5, 7, 101
7, 43144, Control_c, 5, 7, 101
7, 43152, Control_c, 5, 7, 101
7, 43160, Control_c, 5, 7, 101
7, 43168, Control_c, 5, 7, 100
7, 43176, Control_c, 5, 7, 100
7, 43184, Control_c, 5, 7, 100
7, 43192, Control_c, 5, 7, 100
7, 43200, Control_c, 5, 7, 100
7, 43208, Control_c, 5, 7, 100
7, 43216, Control_c, 5, 7, 101
7, 43224, Control_c, 5, 7, 101
7, 43232, Control_c, 5, 7, 96
7, 43240, Control_c, 5, 7, 96
7, 43248, Control_c, 5, 7, 96
7, 43256, Control_c, 5, 7, 96
7, 43264, Control_c, 5, 7, 96
7, 43272, Control_c, 5, 7, 96
7, 43280, Control_c, 5, 7, 96
7, 43288, Control_c, 5, 7, 96
7, 43296, Control_c, 5, 7, 96
7, 43304, Control_c, 5, 7, 96
7, 43312, Control_c, 5, 7, 96
7, 43320, Control_c, 5, 7, 96
7, 43328, Control_c, 5, 7, 97
7, 43336, Control_c, 5, 7, 96
7, 43344, Control_c, 5, 7, 91
7, 43352, Control_c, 5, 7, 90
7, 43360, Control_c, 5, 7, 89
7, 43368, Control_c, 5, 7, 88
7, 43376, Control_c, 5, 7, 87
7, 43384, Control_c, 5, 7, 86
7, 43392, Control_c, 5, 7, 85
7, 43400, Control_c, 5, 7, 85
7, 43408, Control_c, 5, 7, 80
7, 43416, Control_c, 5, 7, 80
7, 43424, Control_c, 5, 7, 79
7, 43432, Control_c, 5, 7, 78
7, 43440, Control_c, 5, 7, 73
7, 43448, Control_c, 5, 7, 70
7, 43456, Control_c, 5, 7, 68
7, 43464, Control_c, 5, 7, 68
7, 43472, Control_c, 5, 7, 66
7, 43480, Control_c, 5, 7, 64
7, 43488, Control_c, 5, 7, 64
7, 43496, Control_c, 5, 7, 58
7, 43504, Control_c, 5, 7, 58
7, 43512, Control_c, 5, 7, 58
7, 43520, Control_c, 5, 7, 58
7, 43528, Control_c, 5, 7, 58
7, 43536, Control_c, 5, 7, 59
7, 43544, Control_c, 5, 7, 58
7, 43552, Control_c, 5, 7, 56
7, 43560, Control_c, 5, 7, 54
7, 43568, Control_c, 5, 7, 54
7, 43576, Control_c, 5, 7, 54
7, 43584, Control_c, 5, 7, 54
7, 43592, Control_c, 5, 7, 54
7, 43600, Control_c, 5, 7, 53
7, 43608, Control_c, 5, 7, 53
7, 43616, Control_c, 5, 7, 48
7, 43624, Control_c, 5, 7, 43
7, 43632, Control_c, 5, 7, 43
7, 43640, Control_c, 5, 7, 43
7, 43648, Control_c, 5, 7, 43
7, 43656, Control_c, 5, 7, 43
7, 43660, Note_on_c, 5, 65, 0
7, 43660, Note_on_c, 5, 68, 0
7, 43664, Control_c, 5, 7, 43
7, 43672, Control_c, 5, 7, 41
7, 43680, Control_c, 5, 7, 39
7, 43688, Control_c, 5, 7, 37
7, 43696, Control_c, 5, 7, 38
7, 43704, Control_c, 5, 7, 37
7, 43712, Control_c, 5, 7, 37
7, 43720, Control_c, 5, 7, 36
7, 43728, Control_c, 5, 7, 35
7, 43736, Control_c, 5, 7, 35
7, 43744, Control_c, 5, 7, 34
7, 43752, Control_c, 5, 7, 34
7, 43760, Control_c, 5, 7, 35
7, 43768, Control_c, 5, 7, 96
7, 43776, Control_c, 5, 7, 103
7, 43784, Control_c, 5, 7, 103
7, 43792, Control_c, 5, 7, 103
7, 43800, Control_c, 5, 7, 103
7, 43808, Control_c, 5, 7, 104
7, 43816, Control_c, 5, 7, 104
7, 43824, Control_c, 5, 7, 104
7, 43832, Control_c, 5, 7, 103
7, 43840, Control_c, 5, 7, 102
7, 43848, Control_c, 5, 7, 102
7, 43856, Control_c, 5, 7, 103
7, 43864, Control_c, 5, 7, 103
7, 43872, Control_c, 5, 7, 103
7, 43880, Control_c, 5, 7, 103
7, 43888, Control_c, 5, 7, 102
7, 43896, Control_c, 5, 7, 102
7, 43904, Control_c, 5, 7, 102
7, 43912, Control_c, 5, 7, 103
7, 43920, Control_c, 5, 7, 102
7, 44712, Control_c, 5, 7, 25
7, 44720, Control_c, 5, 7, 26
7, 44728, Control_c, 5, 7, 26
7, 44736, Control_c, 5, 7, 26
7, 44744, Control_c, 5, 7, 35
7, 44752, Control_c, 5, 7, 35
7, 44760, Control_c, 5, 7, 36
7, 44768, Control_c, 5, 7, 37
7, 44776, Control_c, 5, 7, 37
7, 44784, Control_c, 5, 7, 38
7, 44792, Control_c, 5, 7, 39
7, 44800, Control_c, 5, 7, 40
7, 44808, Control_c, 5, 7, 41
7, 44816, Control_c, 5, 7, 42
7, 44824, Control_c, 5, 7, 41
7, 44832, Control_c, 5, 7, 41
7, 44840, Control_c, 5, 7, 46
7, 44848, Control_c, 5, 7, 46
7, 44856, Control_c, 5, 7, 46
7, 44864, Control_c, 5, 7, 46
7, 44872, Control_c, 5, 7, 46
7, 44880, Control_c, 5, 7, 47
7, 44880, Note_on_c, 5, 58, 106
7, 44880, Note_on_c, 5, 46, 100
7, 44888, Control_c, 5, 7, 47
7, 44896, Control_c, 5, 7, 47
7, 44904, Control_c, 5, 7, 47
7, 44912, Control_c, 5, 7, 47
7, 44920, Control_c, 5, 7, 47
7, 44928, Control_c, 5, 7, 49
7, 44936, Control_c, 5, 7, 54
7, 44944, Control_c, 5, 7, 54
7, 44952, Control_c, 5, 7, 54
7, 44960, Control_c, 5, 7, 54
7, 44968, Control_c, 5, 7, 54
7, 44976, Control_c, 5, 7, 55
7, 44984, Control_c, 5, 7, 55
7, 44992, Control_c, 5, 7, 56
7, 45000, Control_c, 5, 7, 57
7, 45008, Control_c, 5, 7, 58
7, 45016, Control_c, 5, 7, 59
7, 45024, Control_c, 5, 7, 60
7, 45032, Control_c, 5, 7, 61
7, 45040, Control_c, 5, 7, 67
7, 45048, Control_c, 5, 7, 67
7, 45056, Control_c, 5, 7, 67
7, 45064, Control_c, 5, 7, 67
7, 45072, Control_c, 5, 7, 67
7, 45080, Control_c, 5, 7, 74
7, 45088, Control_c, 5, 7, 75
7, 45096, Control_c, 5, 7, 75
7, 45104, Control_c, 5, 7, 75
7, 45112, Control_c, 5, 7, 75
7, 45120, Control_c, 5, 7, 75
7, 45128, Control_c, 5, 7, 76
7, 45136, Control_c, 5, 7, 76
7, 45144, Control_c, 5, 7, 76
7, 45152, Control_c, 5, 7, 76
7, 45160, Control_c, 5, 7, 76
7, 45168, Control_c, 5, 7, 76
7, 45176, Control_c, 5, 7, 76
7, 45184, Control_c, 5, 7, 80
7, 45192, Control_c, 5, 7, 89
7, 45200, Control_c, 5, 7, 89
7, 45208, Control_c, 5, 7, 89
7, 45216, Control_c, 5, 7, 89
7, 45224, Control_c, 5, 7, 89
7, 45232, Control_c, 5, 7, 89
7, 45240, Control_c, 5, 7, 89
7, 45248, Control_c, 5, 7, 89
7, 45256, Control_c, 5, 7, 89
7, 45264, Control_c, 5, 7, 90
7, 45272, Control_c, 5, 7, 91
7, 45280, Control_c, 5, 7, 91
7, 45288, Control_c, 5, 7, 92
7, 45296, Control_c, 5, 7, 94
7, 45304, Control_c, 5, 7, 96
7, 45312, Control_c, 5, 7, 98
7, 45320, Control_c, 5, 7, 100
7, 45328, Control_c, 5, 7, 100
7, 45336, Control_c, 5, 7, 100
7, 45344, Control_c, 5, 7, 100
7, 45352, Control_c, 5, 7, 100
7, 45360, Control_c, 5, 7, 101
7, 45368, Control_c, 5, 7, 102
7, 45376, Control_c, 5, 7, 103
7, 45384, Control_c, 5, 7, 104
7, 45392, Control_c, 5, 7, 104
7, 45400, Control_c, 5, 7, 104
7, 45408, Control_c, 5, 7, 104
7, 45416, Control_c, 5, 7, 109
7, 45424, Control_c, 5, 7, 109
7, 45432, Control_c, 5, 7, 110
7, 45440, Control_c, 5, 7, 110
7, 45448, Control_c, 5, 7, 110
7, 45456, Control_c, 5, 7, 110
7, 45464, Control_c, 5, 7, 115
7, 45472, Control_c, 5, 7, 115
7, 45480, Control_c, 5, 7, 115
7, 45488, Control_c, 5, 7, 115
7, 45496, Control_c, 5, 7, 115
7, 45504, Control_c, 5, 7, 116
7, 45512, Control_c, 5, 7, 116
7, 45520, Control_c, 5, 7, 116
7, 45528, Control_c, 5, 7, 116
7, 45536, Control_c, 5, 7, 116
7, 45544, Control_c, 5, 7, 116
7, 45552, Control_c, 5, 7, 116
7, 45560, Control_c, 5, 7, 116
7, 45568, Control_c, 5, 7, 118
7, 45576, Control_c, 5, 7, 118
7, 45584, Control_c, 5, 7, 119
7, 45592, Control_c, 5, 7, 119
7, 45600, Control_c, 5, 7, 119
7, 45608, Control_c, 5, 7, 119
7, 45616, Control_c, 5, 7, 119
7, 45624, Control_c, 5, 7, 119
7, 45632, Control_c, 5, 7, 120
7, 45640, Control_c, 5, 7, 120
7, 45648, Control_c, 5, 7, 120
7, 45656, Control_c, 5, 7, 120
7, 45664, Control_c, 5, 7, 121
7, 45672, Control_c, 5, 7, 122
7, 45680, Control_c, 5, 7, 122
7, 45688, Control_c, 5, 7, 122
7, 45696, Control_c, 5, 7, 122
7, 45704, Control_c, 5, 7, 122
7, 45712, Control_c, 5, 7, 123
7, 45720, Note_on_c, 5, 46, 0
7, 45720, Control_c, 5, 7, 124
7, 45724, Note_on_c, 5, 58, 0
7, 45728, Control_c, 5, 7, 124
7, 45736, Control_c, 5, 7, 124
7, 45744, Control_c, 5, 7, 127
7, 45752, Control_c, 5, 7, 127
7, 45760, Control_c, 5, 7, 127
7, 45768, Control_c, 5, 7, 127
7, 45776, Control_c, 5, 7, 127
7, 45784, Control_c, 5, 7, 127
7, 45792, Control_c, 5, 7, 127
7, 45800, Control_c, 5, 7, 127
7, 45808, Control_c, 5, 7, 127
7, 45816, Control_c, 5, 7, 127
7, 45824, Control_c, 5, 7, 127
7, 45832, Control_c, 5, 7, 127
7, 45840, Control_c, 5, 7, 127
7, 45840, Note_on_c, 5, 63, 56
7, 45840, Note_on_c, 5, 51, 50
7, 45848, Control_c, 5, 7, 123
7, 45856, Control_c, 5, 7, 117
7, 45864, Control_c, 5, 7, 112
7, 45872, Control_c, 5, 7, 112
7, 45880, Control_c, 5, 7, 110
7, 45888, Control_c, 5, 7, 108
7, 45890, Note_on_c, 5, 51, 0
7, 45896, Control_c, 5, 7, 108
7, 45902, Note_on_c, 5, 63, 0
7, 45904, Control_c, 5, 7, 106
7, 45912, Control_c, 5, 7, 107
7, 45920, Control_c, 5, 7, 105
7, 45928, Control_c, 5, 7, 105
7, 45936, Control_c, 5, 7, 103
7, 46080, Note_on_c, 5, 63, 60
7, 46080, Note_on_c, 5, 51, 62
7, 46390, Note_on_c, 5, 51, 0
7, 46394, Note_on_c, 5, 63, 0
7, 46560, Note_on_c, 5, 63, 61
7, 46560, Note_on_c, 5, 51, 53
7, 46652, Note_on_c, 5, 63, 0
7, 46656, Note_on_c, 5, 51, 0
7, 46800, Note_on_c, 5, 63, 63
7, 46800, Note_on_c, 5, 51, 59
7, 47490, Note_on_c, 5, 51, 0
7, 47494, Note_on_c, 5, 63, 0
7, 47760, Note_on_c, 5, 63, 66
7, 47760, Note_on_c, 5, 51, 59
7, 47832, Note_on_c, 5, 51, 0
7, 47836, Note_on_c, 5, 63, 0
7, 48000, Note_on_c, 5, 63, 66
7, 48000, Note_on_c, 5, 51, 68
7, 48282, Note_on_c, 5, 51, 0
7, 48290, Note_on_c, 5, 63, 0
7, 48480, Note_on_c, 5, 63, 64
7, 48480, Note_on_c, 5, 51, 56
7, 48570, Note_on_c, 5, 51, 0
7, 48574, Note_on_c, 5, 63, 0
7, 48720, Note_on_c, 5, 63, 66
7, 48720, Note_on_c, 5, 51, 64
7, 49446, Note_on_c, 5, 51, 0
7, 49446, Note_on_c, 5, 63, 0
7, 49680, Note_on_c, 5, 63, 73
7, 49680, Note_on_c, 5, 51, 68
7, 49984, Note_on_c, 5, 51, 0
7, 49986, Note_on_c, 5, 63, 0
7, 50160, Note_on_c, 5, 63, 60
7, 50160, Note_on_c, 5, 51, 60
7, 50244, Note_on_c, 5, 51, 0
7, 50244, Note_on_c, 5, 63, 0
7, 50400, Note_on_c, 5, 63, 60
7, 50400, Note_on_c, 5, 51, 58
7, 50484, Note_on_c, 5, 51, 0
7, 50484, Note_on_c, 5, 63, 0
7, 50640, Note_on_c, 5, 63, 71
7, 50640, Note_on_c, 5, 51, 68
7, 51090, Note_on_c, 5, 51, 0
7, 51090, Note_on_c, 5, 63, 0
7, 51120, Note_on_c, 5, 63, 61
7, 51120, Note_on_c, 5, 51, 59
7, 51204, Note_on_c, 5, 51, 0
7, 51204, Note_on_c, 5, 63, 0
7, 51360, Note_on_c, 5, 63, 55
7, 51360, Note_on_c, 5, 51, 55
7, 51444, Note_on_c, 5, 51, 0
7, 51444, Note_on_c, 5, 63, 0
7, 51600, Note_on_c, 5, 58, 66
7, 51600, Note_on_c, 5, 51, 63
7, 51854, Note_on_c, 5, 58, 0
7, 51860, Note_on_c, 5, 51, 0
7, 52080, Note_on_c, 5, 58, 68
7, 52080, Note_on_c, 5, 51, 55
7, 52164, Note_on_c, 5, 51, 0
7, 52164, Note_on_c, 5, 58, 0
7, 52320, Note_on_c, 5, 58, 64
7, 52320, Note_on_c, 5, 51, 54
7, 52404, Note_on_c, 5, 51, 0
7, 52404, Note_on_c, 5, 58, 0
7, 52560, Note_on_c, 5, 63, 59
7, 52560, Note_on_c, 5, 51, 50
7, 52670, Note_on_c, 5, 51, 0
7, 52704, Note_on_c, 5, 63, 0
7, 53520, Note_on_c, 5, 67, 50
7, 53520, Note_on_c, 5, 58, 47
7, 53796, Note_on_c, 5, 67, 0
7, 53854, Note_on_c, 5, 58, 0
7, 54000, Note_on_c, 5, 63, 39
7, 54000, Note_on_c, 5, 55, 38
7, 54080, Note_on_c, 5, 63, 0
7, 54084, Note_on_c, 5, 55, 0
7, 54240, Note_on_c, 5, 63, 36
7, 54240, Note_on_c, 5, 55, 35
7, 54320, Note_on_c, 5, 55, 0
7, 54320, Note_on_c, 5, 63, 0
7, 54480, Note_on_c, 5, 58, 52
7, 54776, Note_on_c, 5, 58, 0
7, 54960, Note_on_c, 5, 65, 40
7, 55032, Note_on_c, 5, 65, 0
7, 55200, Note_on_c, 5, 65, 51
7, 55284, Note_on_c, 5, 65, 0
7, 55440, Note_on_c, 5, 65, 51
7, 55690, Note_on_c, 5, 65, 0
7, 55920, Note_on_c, 5, 65, 50
7, 56000, Note_on_c, 5, 65, 0
7, 56160, Note_on_c, 5, 65, 50
7, 56252, Note_on_c, 5, 65, 0
7, 56400, Note_on_c, 5, 58, 46
7, 56616, Note_on_c, 5, 58, 0
7, 57360, Note_on_c, 5, 63, 42
7, 57360, Note_on_c, 5, 67, 46
7, 57840, Note_on_c, 5, 70, 38
7, 57856, Note_on_c, 5, 63, 0
7, 58242, Note_on_c, 5, 70, 0
7, 58300, Note_on_c, 5, 67, 0
7, 58320, Note_on_c, 5, 65, 43
7, 58320, Note_on_c, 5, 68, 42
7, 58722, Note_on_c, 5, 65, 0
7, 58800, Note_on_c, 5, 65, 44
7, 58800, Note_on_c, 5, 58, 40
7, 58846, Note_on_c, 5, 68, 0
7, 59232, Note_on_c, 5, 58, 0
7, 59280, Note_on_c, 5, 63, 50
7, 59280, Note_on_c, 5, 67, 45
7, 59296, Note_on_c, 5, 65, 0
7, 59706, Note_on_c, 5, 63, 0
7, 59760, Note_on_c, 5, 63, 45
7, 59760, Note_on_c, 5, 55, 40
7, 59766, Note_on_c, 5, 67, 0
7, 60052, Note_on_c, 5, 55, 0
7, 60240, Note_on_c, 5, 58, 39
7, 60240, Note_on_c, 5, 65, 44
7, 60274, Note_on_c, 5, 63, 0
7, 60602, Note_on_c, 5, 58, 0
7, 60680, Note_on_c, 5, 65, 0
7, 60720, Note_on_c, 5, 58, 48
7, 61150, Note_on_c, 5, 58, 0
7, 61200, Note_on_c, 5, 67, 52
7, 61200, Note_on_c, 5, 63, 50
7, 61614, Note_on_c, 5, 67, 0
7, 61632, Note_on_c, 5, 63, 0
7, 61680, Note_on_c, 5, 70, 48
7, 61680, Note_on_c, 5, 67, 33
7, 62130, Note_on_c, 5, 70, 0
7, 62160, Note_on_c, 5, 65, 44
7, 62160, Note_on_c, 5, 68, 42
7, 62176, Note_on_c, 5, 67, 0
7, 62520, Note_on_c, 5, 65, 0
7, 62640, Note_on_c, 5, 68, 0
7, 62640, Note_on_c, 5, 65, 45
7, 62640, Note_on_c, 5, 58, 38
7, 63002, Note_on_c, 5, 65, 0
7, 63120, Note_on_c, 5, 63, 48
7, 63120, Note_on_c, 5, 67, 47
7, 63136, Note_on_c, 5, 58, 0
7, 63436, Note_on_c, 5, 63, 0
7, 63600, Note_on_c, 5, 55, 35
7, 63600, Note_on_c, 5, 63, 44
7, 63612, Note_on_c, 5, 67, 0
7, 63910, Note_on_c, 5, 55, 0
7, 64080, Note_on_c, 5, 58, 38
7, 64080, Note_on_c, 5, 65, 45
7, 64102, Note_on_c, 5, 63, 0
7, 64410, Note_on_c, 5, 58, 0
7, 64520, Note_on_c, 5, 65, 0
7, 64560, Note_on_c, 5, 58, 46
7, 64852, Note_on_c, 5, 58, 0
7, 65040, Note_on_c, 5, 58, 87
7, 65040, Note_on_c, 5, 46, 75
7, 65100, Note_on_c, 5, 46, 0
7, 65102, Note_on_c, 5, 58, 0
7, 65280, Note_on_c, 5, 46, 66
7, 65280, Note_on_c, 5, 58, 73
7, 65566, Note_on_c, 5, 58, 0
7, 65582, Note_on_c, 5, 46, 0
7, 65760, Note_on_c, 5, 58, 73
7, 65760, Note_on_c, 5, 46, 66
7, 66036, Note_on_c, 5, 58, 0
7, 66044, Note_on_c, 5, 46, 0
7, 66240, Note_on_c, 5, 58, 70
7, 66240, Note_on_c, 5, 46, 65
7, 66512, Note_on_c, 5, 46, 0
7, 66520, Note_on_c, 5, 58, 0
7, 66720, Note_on_c, 5, 58, 68
7, 66720, Note_on_c, 5, 46, 61
7, 66966, Note_on_c, 5, 46, 0
7, 66972, Note_on_c, 5, 58, 0
7, 67200, Note_on_c, 5, 46, 61
7, 67200, Note_on_c, 5, 58, 70
7, 67454, Note_on_c, 5, 46, 0
7, 67456, Note_on_c, 5, 58, 0
7, 67680, Note_on_c, 5, 46, 64
7, 67680, Note_on_c, 5, 58, 71
7, 67936, Note_on_c, 5, 58, 0
7, 67942, Note_on_c, 5, 46, 0
7, 68160, Note_on_c, 5, 58, 71
7, 68160, Note_on_c, 5, 46, 63
7, 68402, Note_on_c, 5, 46, 0
7, 68412, Note_on_c, 5, 58, 0
7, 68640, Note_on_c, 5, 46, 55
7, 68640, Note_on_c, 5, 58, 65
7, 68876, Note_on_c, 5, 46, 0
7, 68896, Note_on_c, 5, 58, 0
7, 69120, Note_on_c, 5, 58, 61
7, 69120, Note_on_c, 5, 46, 59
7, 69570, Note_on_c, 5, 46, 0
7, 69570, Note_on_c, 5, 58, 0
7, 69600, Note_on_c, 5, 46, 55
7, 69600, Note_on_c, 5, 58, 56
7, 69826, Note_on_c, 5, 58, 0
7, 69826, Note_on_c, 5, 46, 0
7, 70080, Note_on_c, 5, 58, 64
7, 70080, Note_on_c, 5, 46, 53
7, 70342, Note_on_c, 5, 58, 0
7, 70344, Note_on_c, 5, 46, 0
7, 70560, Note_on_c, 5, 58, 68
7, 70560, Note_on_c, 5, 46, 61
7, 70814, Note_on_c, 5, 58, 0
7, 70816, Note_on_c, 5, 46, 0
7, 71040, Note_on_c, 5, 58, 74
7, 71040, Note_on_c, 5, 46, 62
7, 71284, Note_on_c, 5, 46, 0
7, 71300, Note_on_c, 5, 58, 0
7, 71520, Note_on_c, 5, 58, 80
7, 71520, Note_on_c, 5, 46, 73
7, 71762, Note_on_c, 5, 46, 0
7, 71762, Note_on_c, 5, 58, 0
7, 72000, Note_on_c, 5, 58, 92
7, 72000, Note_on_c, 5, 46, 86
7, 72260, Note_on_c, 5, 58, 0
7, 72264, Note_on_c, 5, 46, 0
7, 72480, Note_on_c, 5, 58, 94
7, 72480, Note_on_c, 5, 46, 90
7, 72722, Note_on_c, 5, 58, 0
7, 72736, Note_on_c, 5, 46, 0
7, 72960, Note_on_c, 5, 46, 95
7, 72960, Note_on_c, 5, 58, 102
7, 73212, Note_on_c, 5, 46, 0
7, 73214, Note_on_c, 5, 58, 0
7, 73440, Note_on_c, 5, 58, 98
7, 73440, Note_on_c, 5, 46, 98
7, 73696, Note_on_c, 5, 46, 0
7, 73700, Note_on_c, 5, 58, 0
7, 73920, Note_on_c, 5, 58, 100
7, 73920, Note_on_c, 5, 46, 97
7, 74132, Note_on_c, 5, 58, 0
7, 74136, Note_on_c, 5, 46, 0
7, 74400, Note_on_c, 5, 46, 87
7, 74400, Note_on_c, 5, 58, 94
7, 74620, Note_on_c, 5, 58, 0
7, 74630, Note_on_c, 5, 46, 0
7, 74880, Note_on_c, 5, 58, 94
7, 74880, Note_on_c, 5, 46, 86
7, 75330, Note_on_c, 5, 46, 0
7, 75330, Note_on_c, 5, 58, 0
7, 75360, Note_on_c, 5, 58, 94
7, 75360, Note_on_c, 5, 46, 90
7, 75586, Note_on_c, 5, 46, 0
7, 75586, Note_on_c, 5, 58, 0
7, 75840, Note_on_c, 5, 46, 94
7, 75840, Note_on_c, 5, 58, 98
7, 76066, Note_on_c, 5, 58, 0
7, 76066, Note_on_c, 5, 46, 0
7, 76320, Note_on_c, 5, 46, 94
7, 76320, Note_on_c, 5, 58, 100
7, 76550, Note_on_c, 5, 58, 0
7, 76552, Note_on_c, 5, 46, 0
7, 76800, Note_on_c, 5, 58, 90
7, 76800, Note_on_c, 5, 46, 88
7, 77032, Note_on_c, 5, 46, 0
7, 77032, Note_on_c, 5, 58, 0
7, 77280, Note_on_c, 5, 58, 98
7, 77280, Note_on_c, 5, 46, 94
7, 77500, Note_on_c, 5, 58, 0
7, 77506, Note_on_c, 5, 46, 0
7, 77760, Note_on_c, 5, 58, 94
7, 77760, Note_on_c, 5, 46, 91
7, 77962, Note_on_c, 5, 46, 0
7, 77962, Note_on_c, 5, 58, 0
7, 78240, Note_on_c, 5, 46, 90
7, 78240, Note_on_c, 5, 58, 95
7, 78442, Note_on_c, 5, 58, 0
7, 78446, Note_on_c, 5, 46, 0
7, 78720, Note_on_c, 5, 58, 98
7, 78720, Note_on_c, 5, 46, 92
7, 78936, Note_on_c, 5, 58, 0
7, 78942, Note_on_c, 5, 46, 0
7, 79200, Note_on_c, 5, 58, 95
7, 79200, Note_on_c, 5, 46, 88
7, 79384, Note_on_c, 5, 46, 0
7, 79384, Note_on_c, 5, 58, 0
7, 79680, Note_on_c, 5, 58, 94
7, 79680, Note_on_c, 5, 46, 87
7, 79896, Note_on_c, 5, 58, 0
7, 79902, Note_on_c, 5, 46, 0
7, 80160, Note_on_c, 5, 46, 81
7, 80160, Note_on_c, 5, 58, 95
7, 80396, Note_on_c, 5, 58, 0
7, 80404, Note_on_c, 5, 46, 0
7, 80640, Note_on_c, 5, 58, 95
7, 80640, Note_on_c, 5, 46, 90
7, 80900, Note_on_c, 5, 46, 0
7, 80902, Note_on_c, 5, 58, 0
7, 81000, Note_on_c, 5, 46, 78
7, 81056, Note_on_c, 5, 46, 0
7, 81120, Note_on_c, 5, 58, 90
7, 81194, Note_on_c, 5, 58, 0
7, 81240, Note_on_c, 5, 65, 95
7, 81240, Note_on_c, 5, 58, 74
7, 81240, Note_on_c, 5, 56, 67
7, 81274, Note_on_c, 5, 58, 0
7, 81300, Note_on_c, 5, 65, 0
7, 81302, Note_on_c, 5, 56, 0
7, 81600, Note_on_c, 5, 58, 90
7, 81600, Note_on_c, 5, 65, 85
7, 81890, Note_on_c, 5, 58, 0
7, 81906, Note_on_c, 5, 65, 0
7, 81960, Note_on_c, 5, 65, 81
7, 81960, Note_on_c, 5, 58, 80
7, 82340, Note_on_c, 5, 58, 0
7, 82350, Note_on_c, 5, 65, 0
7, 82560, Note_on_c, 5, 58, 68
7, 82560, Note_on_c, 5, 65, 88
7, 82870, Note_on_c, 5, 58, 0
7, 82880, Note_on_c, 5, 65, 0
7, 83040, Note_on_c, 5, 58, 81
7, 83040, Note_on_c, 5, 65, 87
7, 83320, Note_on_c, 5, 58, 0
7, 83330, Note_on_c, 5, 65, 0
7, 83520, Note_on_c, 5, 58, 88
7, 83520, Note_on_c, 5, 65, 90
7, 83832, Note_on_c, 5, 58, 0
7, 83852, Note_on_c, 5, 65, 0
7, 84000, Note_on_c, 5, 58, 83
7, 84000, Note_on_c, 5, 65, 87
7, 84320, Note_on_c, 5, 58, 0
7, 84326, Note_on_c, 5, 65, 0
7, 84480, Note_on_c, 5, 65, 92
7, 84480, Note_on_c, 5, 58, 86
7, 84800, Note_on_c, 5, 58, 0
7, 84812, Note_on_c, 5, 65, 0
7, 84960, Note_on_c, 5, 58, 83
7, 84960, Note_on_c, 5, 65, 90
7, 85032, Note_on_c, 5, 58, 0
7, 85042, Note_on_c, 5, 65, 0
7, 85200, Note_on_c, 5, 67, 71
7, 85200, Note_on_c, 5, 58, 71
7, 85274, Note_on_c, 5, 58, 0
7, 85274, Note_on_c, 5, 67, 0
7, 85440, Note_on_c, 5, 67, 85
7, 85440, Note_on_c, 5, 58, 75
7, 85720, Note_on_c, 5, 58, 0
7, 85742, Note_on_c, 5, 67, 0
7, 85920, Note_on_c, 5, 63, 72
7, 85920, Note_on_c, 5, 55, 65
7, 86010, Note_on_c, 5, 63, 0
7, 86012, Note_on_c, 5, 55, 0
7, 86160, Note_on_c, 5, 55, 60
7, 86160, Note_on_c, 5, 58, 59
7, 87060, Note_on_c, 5, 58, 0
7, 87060, Note_on_c, 5, 55, 0
7, 87120, Note_on_c, 5, 67, 71
7, 87120, Note_on_c, 5, 58, 71
7, 87194, Note_on_c, 5, 58, 0
7, 87194, Note_on_c, 5, 67, 0
7, 87360, Note_on_c, 5, 67, 85
7, 87360, Note_on_c, 5, 58, 75
7, 87640, Note_on_c, 5, 58, 0
7, 87662, Note_on_c, 5, 67, 0
7, 87840, Note_on_c, 5, 63, 72
7, 87840, Note_on_c, 5, 55, 65
7, 87930, Note_on_c, 5, 63, 0
7, 87932, Note_on_c, 5, 55, 0
7, 88080, Note_on_c, 5, 58, 81
7, 88080, Note_on_c, 5, 55, 73
7, 88820, Note_on_c, 5, 58, 0
7, 88832, Note_on_c, 5, 55, 0
7, 89040, Note_on_c, 5, 58, 90
7, 89040, Note_on_c, 5, 67, 87
7, 89316, Note_on_c, 5, 67, 0
7, 89372, Note_on_c, 5, 58, 0
7, 89520, Note_on_c, 5, 51, 57
7, 89520, Note_on_c, 5, 63, 88
7, 89590, Note_on_c, 5, 51, 0
7, 89602, Note_on_c, 5, 63, 0
7, 89760, Note_on_c, 5, 51, 73
7, 89760, Note_on_c, 5, 63, 74
7, 89836, Note_on_c, 5, 51, 0
7, 89840, Note_on_c, 5, 63, 0
7, 90000, Note_on_c, 5, 63, 92
7, 90000, Note_on_c, 5, 51, 88
7, 90276, Note_on_c, 5, 51, 0
7, 90290, Note_on_c, 5, 63, 0
7, 90480, Note_on_c, 5, 51, 80
7, 90480, Note_on_c, 5, 63, 80
7, 90566, Note_on_c, 5, 51, 0
7, 90576, Note_on_c, 5, 63, 0
7, 90720, Note_on_c, 5, 51, 80
7, 90720, Note_on_c, 5, 63, 80
7, 90804, Note_on_c, 5, 51, 0
7, 90814, Note_on_c, 5, 63, 0
7, 90960, Note_on_c, 5, 51, 88
7, 90960, Note_on_c, 5, 63, 92
7, 91236, Note_on_c, 5, 51, 0
7, 91250, Note_on_c, 5, 63, 0
7, 91440, Note_on_c, 5, 63, 80
7, 91440, Note_on_c, 5, 51, 80
7, 91526, Note_on_c, 5, 51, 0
7, 91536, Note_on_c, 5, 63, 0
7, 91680, Note_on_c, 5, 63, 80
7, 91680, Note_on_c, 5, 51, 80
7, 91764, Note_on_c, 5, 51, 0
7, 91774, Note_on_c, 5, 63, 0
7, 91920, Note_on_c, 5, 51, 97
7, 91920, Note_on_c, 5, 63, 92
7, 92096, Note_on_c, 5, 63, 0
7, 92100, Note_on_c, 5, 51, 0
7, 92880, Note_on_c, 5, 63, 97
7, 92880, Note_on_c, 5, 51, 104
7, 93156, Note_on_c, 5, 51, 0
7, 93166, Note_on_c, 5, 63, 0
7, 93360, Note_on_c, 5, 51, 80
7, 93360, Note_on_c, 5, 63, 80
7, 93442, Note_on_c, 5, 51, 0
7, 93444, Note_on_c, 5, 63, 0
7, 93600, Note_on_c, 5, 63, 77
7, 93600, Note_on_c, 5, 51, 79
7, 93682, Note_on_c, 5, 51, 0
7, 93682, Note_on_c, 5, 63, 0
7, 93840, Note_on_c, 5, 51, 90
7, 93840, Note_on_c, 5, 63, 92
7, 94290, Note_on_c, 5, 63, 0
7, 94290, Note_on_c, 5, 51, 0
7, 94320, Note_on_c, 5, 63, 84
7, 94320, Note_on_c, 5, 51, 81
7, 94546, Note_on_c, 5, 51, 0
7, 94546, Note_on_c, 5, 63, 0
7, 94560, Note_on_c, 5, 63, 79
7, 94560, Note_on_c, 5, 51, 79
7, 94786, Note_on_c, 5, 51, 0
7, 94786, Note_on_c, 5, 63, 0
7, 94800, Note_on_c, 5, 51, 94
7, 94800, Note_on_c, 5, 63, 94
7, 95250, Note_on_c, 5, 63, 0
7, 95250, Note_on_c, 5, 51, 0
7, 95280, Note_on_c, 5, 51, 80
7, 95280, Note_on_c, 5, 63, 80
7, 95506, Note_on_c, 5, 63, 0
7, 95506, Note_on_c, 5, 51, 0
7, 95520, Note_on_c, 5, 51, 79
7, 95520, Note_on_c, 5, 63, 83
7, 95746, Note_on_c, 5, 63, 0
7, 95746, Note_on_c, 5, 51, 0
7, 95760, Note_on_c, 5, 51, 98
7, 95760, Note_on_c, 5, 63, 97
7, 97620, Note_on_c, 5, 63, 0
7, 97620, Note_on_c, 5, 51, 0
7, 99600, Note_on_c, 5, 65, 80
7, 102034, Note_on_c, 5, 65, 0
7, 103440, Note_on_c, 5, 67, 73
7, 103440, Note_on_c, 5, 55, 79
7, 104182, Note_on_c, 5, 55, 0
7, 104182, Note_on_c, 5, 67, 0
7, 104400, Note_on_c, 5, 51, 88
7, 104400, Note_on_c, 5, 63, 95
7, 105092, Note_on_c, 5, 51, 0
7, 105094, Note_on_c, 5, 63, 0
7, 105360, Note_on_c, 5, 51, 90
7, 105360, Note_on_c, 5, 63, 100
7, 106176, Note_on_c, 5, 51, 0
7, 106190, Note_on_c, 5, 63, 0
7, 106320, Note_on_c, 5, 63, 87
7, 106320, Note_on_c, 5, 51, 88
7, 106980, Note_on_c, 5, 63, 0
7, 107006, Note_on_c, 5, 51, 0
7, 107280, Note_on_c, 5, 46, 66
7, 107280, Note_on_c, 5, 58, 58
7, 107506, Note_on_c, 5, 58, 0
7, 107506, Note_on_c, 5, 46, 0
7, 107760, Note_on_c, 5, 58, 58
7, 107760, Note_on_c, 5, 65, 66
7, 107986, Note_on_c, 5, 65, 0
7, 107986, Note_on_c, 5, 58, 0
7, 108240, Note_on_c, 5, 63, 71
7, 108240, Note_on_c, 5, 67, 71
7, 108464, Note_on_c, 5, 63, 0
7, 108486, Note_on_c, 5, 67, 0
7, 108720, Note_on_c, 5, 63, 78
7, 108720, Note_on_c, 5, 67, 74
7, 108946, Note_on_c, 5, 67, 0
7, 108946, Note_on_c, 5, 63, 0
7, 109200, Note_on_c, 5, 65, 71
7, 109200, Note_on_c, 5, 58, 65
7, 109402, Note_on_c, 5, 65, 0
7, 109410, Note_on_c, 5, 58, 0
7, 109680, Note_on_c, 5, 65, 95
7, 109680, Note_on_c, 5, 58, 88
7, 109850, Note_on_c, 5, 58, 0
7, 109884, Note_on_c, 5, 65, 0
7, 110160, Note_on_c, 5, 63, 81
7, 110160, Note_on_c, 5, 55, 81
7, 110312, Note_on_c, 5, 55, 0
7, 110312, Note_on_c, 5, 63, 0
7, 110640, Note_on_c, 5, 67, 88
7, 110640, Note_on_c, 5, 63, 91
7, 110844, Note_on_c, 5, 63, 0
7, 110896, Note_on_c, 5, 67, 0
7, 111120, Note_on_c, 5, 58, 75
7, 111120, Note_on_c, 5, 65, 74
7, 111264, Note_on_c, 5, 58, 0
7, 111290, Note_on_c, 5, 65, 0
7, 111600, Note_on_c, 5, 65, 68
7, 111600, Note_on_c, 5, 58, 65
7, 111810, Note_on_c, 5, 58, 0
7, 111832, Note_on_c, 5, 65, 0
7, 112080, Note_on_c, 5, 63, 62
7, 112080, Note_on_c, 5, 67, 63
7, 112290, Note_on_c, 5, 63, 0
7, 112330, Note_on_c, 5, 67, 0
7, 112560, Note_on_c, 5, 67, 68
7, 112560, Note_on_c, 5, 63, 66
7, 112806, Note_on_c, 5, 63, 0
7, 112834, Note_on_c, 5, 67, 0
7, 113040, Note_on_c, 5, 58, 60
7, 113040, Note_on_c, 5, 65, 62
7, 113226, Note_on_c, 5, 58, 0
7, 113240, Note_on_c, 5, 65, 0
7, 113520, Note_on_c, 5, 65, 85
7, 113520, Note_on_c, 5, 58, 80
7, 113652, Note_on_c, 5, 58, 0
7, 113702, Note_on_c, 5, 65, 0
7, 114000, Note_on_c, 5, 63, 72
7, 114000, Note_on_c, 5, 55, 65
7, 114154, Note_on_c, 5, 63, 0
7, 114170, Note_on_c, 5, 55, 0
7, 114480, Note_on_c, 5, 67, 90
7, 114544, Note_on_c, 5, 67, 0
7, 114960, Note_on_c, 5, 58, 70
7, 114960, Note_on_c, 5, 70, 79
7, 115122, Note_on_c, 5, 58, 0
7, 115134, Note_on_c, 5, 70, 0
7, 118800, Note_on_c, 5, 70, 65
7, 119596, Note_on_c, 5, 70, 0
7, 119760, Note_on_c, 5, 65, 55
7, 120600, Note_on_c, 5, 65, 0
7, 120720, Note_on_c, 5, 67, 49
7, 121170, Note_on_c, 5, 67, 0
7, 131760, Note_on_c, 5, 65, 40
7, 132002, Note_on_c, 5, 65, 0
7, 132240, Note_on_c, 5, 65, 44
7, 132460, Note_on_c, 5, 65, 0
7, 132720, Note_on_c, 5, 65, 41
7, 132924, Note_on_c, 5, 65, 0
7, 133200, Note_on_c, 5, 65, 35
7, 133446, Note_on_c, 5, 65, 0
7, 139440, Note_on_c, 5, 65, 65
7, 139712, Note_on_c, 5, 65, 0
7, 139920, Note_on_c, 5, 65, 68
7, 140174, Note_on_c, 5, 65, 0
7, 140400, Note_on_c, 5, 65, 65
7, 140622, Note_on_c, 5, 65, 0
7, 140880, Note_on_c, 5, 65, 51
7, 141156, Note_on_c, 5, 65, 0
7, 141840, Note_on_c, 5, 70, 98
7, 141840, Note_on_c, 5, 58, 95
7, 142676, Note_on_c, 5, 58, 0
7, 142700, Note_on_c, 5, 70, 0
7, 142800, Note_on_c, 5, 65, 106
7, 143622, Note_on_c, 5, 65, 0
7, 143760, Note_on_c, 5, 67, 106
7, 144546, Note_on_c, 5, 67, 0
7, 153840, Note_on_c, 5, 46, 36
7, 153840, Note_on_c, 5, 58, 26
7, 155100, Note_on_c, 5, 46, 0
7, 155146, Note_on_c, 5, 58, 0
7, 155280, Note_on_c, 5, 65, 62
7, 155582, Note_on_c, 5, 65, 0
7, 159600, Note_on_c, 5, 65, 81
7, 160980, Note_on_c, 5, 65, 0
7, 161040, Note_on_c, 5, 46, 97
7, 161040, Note_on_c, 5, 58, 85
7, 161140, Note_on_c, 5, 58, 0
7, 161140, Note_on_c, 5, 46, 0
7, 161520, Note_on_c, 5, 58, 118
7, 161520, Note_on_c, 5, 46, 91
7, 161626, Note_on_c, 5, 58, 0
7, 161632, Note_on_c, 5, 46, 0
7, 162480, Note_on_c, 5, 58, 110
7, 162480, Note_on_c, 5, 46, 88
7, 162594, Note_on_c, 5, 46, 0
7, 162610, Note_on_c, 5, 58, 0
7, 163440, Note_on_c, 5, 58, 86
7, 163440, Note_on_c, 5, 46, 81
7, 163552, Note_on_c, 5, 46, 0
7, 163562, Note_on_c, 5, 58, 0
7, 164400, Note_on_c, 5, 46, 87
7, 164400, Note_on_c, 5, 58, 92
7, 164526, Note_on_c, 5, 46, 0
7, 164540, Note_on_c, 5, 58, 0
7, 165360, Note_on_c, 5, 58, 92
7, 165360, Note_on_c, 5, 46, 87
7, 165474, Note_on_c, 5, 46, 0
7, 165486, Note_on_c, 5, 58, 0
7, 166320, Note_on_c, 5, 46, 90
7, 166320, Note_on_c, 5, 58, 94
7, 166426, Note_on_c, 5, 46, 0
7, 166444, Note_on_c, 5, 58, 0
7, 167280, Note_on_c, 5, 46, 79
7, 167280, Note_on_c, 5, 58, 88
7, 167394, Note_on_c, 5, 46, 0
7, 167404, Note_on_c, 5, 58, 0
7, 168240, Note_on_c, 5, 46, 80
7, 168240, Note_on_c, 5, 58, 88
7, 168342, Note_on_c, 5, 46, 0
7, 168356, Note_on_c, 5, 58, 0
7, 168720, Note_on_c, 5, 58, 83
7, 168720, Note_on_c, 5, 46, 68
7, 168822, Note_on_c, 5, 46, 0
7, 168846, Note_on_c, 5, 58, 0
7, 169200, Note_on_c, 5, 65, 83
7, 169200, Note_on_c, 5, 58, 70
7, 169304, Note_on_c, 5, 65, 0
7, 169310, Note_on_c, 5, 58, 0
7, 169680, Note_on_c, 5, 65, 84
7, 169680, Note_on_c, 5, 58, 79
7, 169792, Note_on_c, 5, 58, 0
7, 169794, Note_on_c, 5, 65, 0
7, 170160, Note_on_c, 5, 65, 84
7, 170160, Note_on_c, 5, 58, 80
7, 170270, Note_on_c, 5, 58, 0
7, 170272, Note_on_c, 5, 65, 0
7, 170640, Note_on_c, 5, 65, 88
7, 170640, Note_on_c, 5, 58, 84
7, 170756, Note_on_c, 5, 58, 0
7, 170776, Note_on_c, 5, 65, 0
7, 171120, Note_on_c, 5, 65, 104
7, 171380, Note_on_c, 5, 65, 0
7, 171600, Note_on_c, 5, 63, 92
7, 171600, Note_on_c, 5, 65, 97
7, 171786, Note_on_c, 5, 65, 0
7, 171790, Note_on_c, 5, 63, 0
7, 172080, Note_on_c, 5, 63, 91
7, 172080, Note_on_c, 5, 51, 87
7, 172244, Note_on_c, 5, 51, 0
7, 172252, Note_on_c, 5, 63, 0
7, 172560, Note_on_c, 5, 58, 90
7, 172560, Note_on_c, 5, 46, 80
7, 172674, Note_on_c, 5, 46, 0
7, 172692, Note_on_c, 5, 58, 0
7, 173040, Note_on_c, 5, 46, 83
7, 173040, Note_on_c, 5, 58, 91
7, 173142, Note_on_c, 5, 46, 0
7, 173154, Note_on_c, 5, 58, 0
7, 174000, Note_on_c, 5, 58, 95
7, 174000, Note_on_c, 5, 46, 95
7, 174106, Note_on_c, 5, 46, 0
7, 174120, Note_on_c, 5, 58, 0
7, 174960, Note_on_c, 5, 58, 85
7, 174960, Note_on_c, 5, 46, 71
7, 175104, Note_on_c, 5, 46, 0
7, 175120, Note_on_c, 5, 58, 0
7, 175920, Note_on_c, 5, 58, 90
7, 175920, Note_on_c, 5, 46, 80
7, 176034, Note_on_c, 5, 46, 0
7, 176056, Note_on_c, 5, 58, 0
7, 176880, Note_on_c, 5, 46, 84
7, 176880, Note_on_c, 5, 58, 86
7, 177004, Note_on_c, 5, 46, 0
7, 177020, Note_on_c, 5, 58, 0
7, 177840, Note_on_c, 5, 46, 73
7, 177840, Note_on_c, 5, 58, 86
7, 177982, Note_on_c, 5, 46, 0
7, 177992, Note_on_c, 5, 58, 0
7, 178800, Note_on_c, 5, 58, 87
7, 178800, Note_on_c, 5, 46, 74
7, 178916, Note_on_c, 5, 46, 0
7, 178934, Note_on_c, 5, 58, 0
7, 179760, Note_on_c, 5, 58, 80
7, 179760, Note_on_c, 5, 46, 66
7, 179876, Note_on_c, 5, 46, 0
7, 179892, Note_on_c, 5, 58, 0
7, 180720, Note_on_c, 5, 46, 65
7, 180720, Note_on_c, 5, 58, 74
7, 180826, Note_on_c, 5, 46, 0
7, 180834, Note_on_c, 5, 58, 0
7, 181200, Note_on_c, 5, 58, 84
7, 181312, Note_on_c, 5, 58, 0
7, 181680, Note_on_c, 5, 65, 85
7, 181786, Note_on_c, 5, 65, 0
7, 182160, Note_on_c, 5, 58, 54
7, 182160, Note_on_c, 5, 65, 70
7, 182270, Note_on_c, 5, 65, 0
7, 182276, Note_on_c, 5, 58, 0
7, 182640, Note_on_c, 5, 58, 68
7, 182640, Note_on_c, 5, 65, 78
7, 182740, Note_on_c, 5, 58, 0
7, 182790, Note_on_c, 5, 65, 0
7, 183120, Note_on_c, 5, 65, 85
7, 183282, Note_on_c, 5, 65, 0
7, 183600, Note_on_c, 5, 65, 85
7, 183716, Note_on_c, 5, 65, 0
7, 184080, Note_on_c, 5, 58, 98
7, 184080, Note_on_c, 5, 46, 80
7, 184154, Note_on_c, 5, 58, 0
7, 184164, Note_on_c, 5, 46, 0
7, 184560, Note_on_c, 5, 58, 98
7, 184560, Note_on_c, 5, 46, 83
7, 184660, Note_on_c, 5, 46, 0
7, 184670, Note_on_c, 5, 58, 0
7, 185520, Note_on_c, 5, 65, 95
7, 185640, Note_on_c, 5, 65, 0
7, 186000, Note_on_c, 5, 58, 92
7, 186000, Note_on_c, 5, 46, 85
7, 186096, Note_on_c, 5, 46, 0
7, 186096, Note_on_c, 5, 58, 0
7, 186480, Note_on_c, 5, 46, 83
7, 186480, Note_on_c, 5, 58, 92
7, 186580, Note_on_c, 5, 46, 0
7, 186590, Note_on_c, 5, 58, 0
7, 187440, Note_on_c, 5, 65, 80
7, 187562, Note_on_c, 5, 65, 0
7, 187920, Note_on_c, 5, 46, 86
7, 187920, Note_on_c, 5, 58, 91
7, 188014, Note_on_c, 5, 46, 0
7, 188022, Note_on_c, 5, 58, 0
7, 188400, Note_on_c, 5, 46, 80
7, 188400, Note_on_c, 5, 58, 94
7, 188494, Note_on_c, 5, 46, 0
7, 188512, Note_on_c, 5, 58, 0
7, 189360, Note_on_c, 5, 65, 100
7, 189472, Note_on_c, 5, 65, 0
7, 189840, Note_on_c, 5, 58, 97
7, 189840, Note_on_c, 5, 46, 76
7, 189932, Note_on_c, 5, 58, 0
7, 189936, Note_on_c, 5, 46, 0
7, 190320, Note_on_c, 5, 46, 80
7, 190320, Note_on_c, 5, 58, 97
7, 190410, Note_on_c, 5, 46, 0
7, 190426, Note_on_c, 5, 58, 0
7, 191280, Note_on_c, 5, 65, 100
7, 191396, Note_on_c, 5, 65, 0
7, 191760, Note_on_c, 5, 58, 77
7, 191760, Note_on_c, 5, 70, 94
7, 191822, Note_on_c, 5, 58, 0
7, 191842, Note_on_c, 5, 70, 0
7, 192000, Note_on_c, 5, 58, 79
7, 192000, Note_on_c, 5, 70, 92
7, 192254, Note_on_c, 5, 70, 0
7, 192260, Note_on_c, 5, 58, 0
7, 192480, Note_on_c, 5, 70, 87
7, 192480, Note_on_c, 5, 58, 80
7, 192810, Note_on_c, 5, 70, 0
7, 192842, Note_on_c, 5, 58, 0
7, 192960, Note_on_c, 5, 65, 78
7, 192960, Note_on_c, 5, 58, 66
7, 193232, Note_on_c, 5, 58, 0
7, 193262, Note_on_c, 5, 65, 0
7, 193440, Note_on_c, 5, 65, 80
7, 193440, Note_on_c, 5, 58, 70
7, 193670, Note_on_c, 5, 58, 0
7, 193676, Note_on_c, 5, 65, 0
7, 193920, Note_on_c, 5, 46, 73
7, 193920, Note_on_c, 5, 58, 94
7, 194370, Note_on_c, 5, 58, 0
7, 194370, Note_on_c, 5, 46, 0
7, 194400, Note_on_c, 5, 58, 88
7, 194400, Note_on_c, 5, 46, 77
7, 194880, Note_on_c, 5, 46, 0
7, 194880, Note_on_c, 5, 58, 0
7, 194880, Note_on_c, 5, 58, 84
7, 194880, Note_on_c, 5, 46, 73
7, 195330, Note_on_c, 5, 46, 0
7, 195330, Note_on_c, 5, 58, 0
7, 195360, Note_on_c, 5, 58, 80
7, 195360, Note_on_c, 5, 46, 66
7, 195600, Note_on_c, 5, 58, 79
7, 195600, Note_on_c, 5, 46, 65
7, 195630, Note_on_c, 5, 58, 0
7, 195634, Note_on_c, 5, 46, 0
7, 196050, Note_on_c, 5, 58, 0
7, 196050, Note_on_c, 5, 46, 0
7, 196080, Note_on_c, 5, 58, 80
7, 196080, Note_on_c, 5, 46, 80
7, 196464, Note_on_c, 5, 46, 0
7, 196464, Note_on_c, 5, 58, 0
7, 196560, Note_on_c, 5, 58, 87
7, 196560, Note_on_c, 5, 46, 86
7, 196756, Note_on_c, 5, 58, 0
7, 196760, Note_on_c, 5, 46, 0
7, 197040, Note_on_c, 5, 58, 95
7, 197040, Note_on_c, 5, 46, 90
7, 197152, Note_on_c, 5, 46, 0
7, 197196, Note_on_c, 5, 58, 0
7, 197520, Note_on_c, 5, 70, 112
7, 197528, Control_c, 5, 7, 119
7, 197536, Control_c, 5, 7, 119
7, 197544, Control_c, 5, 7, 119
7, 197552, Control_c, 5, 7, 119
7, 197560, Control_c, 5, 7, 119
7, 197568, Control_c, 5, 7, 120
7, 197576, Control_c, 5, 7, 120
7, 197584, Control_c, 5, 7, 120
7, 197592, Control_c, 5, 7, 118
7, 197600, Control_c, 5, 7, 118
7, 197608, Control_c, 5, 7, 116
7, 197616, Control_c, 5, 7, 117
7, 197624, Control_c, 5, 7, 117
7, 197632, Control_c, 5, 7, 115
7, 197640, Control_c, 5, 7, 115
7, 197648, Control_c, 5, 7, 113
7, 197656, Control_c, 5, 7, 113
7, 197664, Control_c, 5, 7, 108
7, 197672, Control_c, 5, 7, 108
7, 197680, Control_c, 5, 7, 108
7, 197688, Control_c, 5, 7, 108
7, 197696, Control_c, 5, 7, 108
7, 197704, Control_c, 5, 7, 108
7, 197712, Control_c, 5, 7, 107
7, 197720, Control_c, 5, 7, 105
7, 197728, Control_c, 5, 7, 106
7, 197736, Control_c, 5, 7, 106
7, 197744, Control_c, 5, 7, 106
7, 197752, Control_c, 5, 7, 105
7, 197760, Control_c, 5, 7, 105
7, 197768, Control_c, 5, 7, 103
7, 197776, Control_c, 5, 7, 104
7, 197784, Control_c, 5, 7, 103
7, 197792, Control_c, 5, 7, 103
7, 197800, Control_c, 5, 7, 103
7, 197808, Control_c, 5, 7, 103
7, 197816, Control_c, 5, 7, 103
7, 197824, Control_c, 5, 7, 104
7, 197832, Control_c, 5, 7, 104
7, 197840, Control_c, 5, 7, 103
7, 197848, Control_c, 5, 7, 103
7, 197856, Control_c, 5, 7, 103
7, 197864, Control_c, 5, 7, 103
7, 197872, Control_c, 5, 7, 103
7, 197880, Control_c, 5, 7, 103
7, 197888, Control_c, 5, 7, 103
7, 197896, Control_c, 5, 7, 103
7, 197904, Control_c, 5, 7, 104
7, 197912, Control_c, 5, 7, 103
7, 197920, Control_c, 5, 7, 103
7, 197928, Control_c, 5, 7, 103
7, 197936, Control_c, 5, 7, 103
7, 197944, Control_c, 5, 7, 103
7, 197952, Control_c, 5, 7, 103
7, 197960, Control_c, 5, 7, 103
7, 197968, Control_c, 5, 7, 103
7, 197976, Control_c, 5, 7, 103
7, 197984, Control_c, 5, 7, 103
7, 197992, Control_c, 5, 7, 103
7, 198000, Control_c, 5, 7, 103
7, 198008, Control_c, 5, 7, 104
7, 198016, Control_c, 5, 7, 104
7, 198024, Control_c, 5, 7, 103
7, 198032, Control_c, 5, 7, 103
7, 198040, Control_c, 5, 7, 103
7, 198048, Control_c, 5, 7, 103
7, 198056, Control_c, 5, 7, 103
7, 198064, Control_c, 5, 7, 102
7, 198072, Control_c, 5, 7, 101
7, 198080, Control_c, 5, 7, 101
7, 198088, Control_c, 5, 7, 101
7, 198096, Control_c, 5, 7, 101
7, 198104, Control_c, 5, 7, 101
7, 198112, Control_c, 5, 7, 101
7, 198120, Control_c, 5, 7, 101
7, 198128, Control_c, 5, 7, 101
7, 198136, Control_c, 5, 7, 101
7, 198144, Control_c, 5, 7, 101
7, 198152, Control_c, 5, 7, 101
7, 198160, Control_c, 5, 7, 101
7, 198168, Control_c, 5, 7, 101
7, 198176, Control_c, 5, 7, 102
7, 198184, Control_c, 5, 7, 102
7, 198192, Control_c, 5, 7, 102
7, 198200, Control_c, 5, 7, 102
7, 198208, Control_c, 5, 7, 102
7, 198216, Control_c, 5, 7, 102
7, 198224, Control_c, 5, 7, 102
7, 198232, Control_c, 5, 7, 102
7, 198240, Control_c, 5, 7, 102
7, 198248, Control_c, 5, 7, 102
7, 198256, Control_c, 5, 7, 103
7, 198264, Control_c, 5, 7, 103
7, 198272, Control_c, 5, 7, 103
7, 198280, Control_c, 5, 7, 103
7, 198288, Control_c, 5, 7, 103
7, 198296, Control_c, 5, 7, 103
7, 198304, Control_c, 5, 7, 103
7, 198312, Control_c, 5, 7, 103
7, 198320, Control_c, 5, 7, 102
7, 198328, Control_c, 5, 7, 102
7, 198336, Control_c, 5, 7, 102
7, 198344, Control_c, 5, 7, 102
7, 198352, Control_c, 5, 7, 102
7, 198360, Control_c, 5, 7, 102
7, 198368, Control_c, 5, 7, 102
7, 198376, Control_c, 5, 7, 102
7, 198384, Control_c, 5, 7, 102
7, 198392, Control_c, 5, 7, 102
7, 198400, Control_c, 5, 7, 103
7, 198408, Control_c, 5, 7, 103
7, 198416, Control_c, 5, 7, 103
7, 198424, Control_c, 5, 7, 101
7, 198432, Control_c, 5, 7, 101
7, 198440, Control_c, 5, 7, 100
7, 198448, Control_c, 5, 7, 100
7, 198456, Control_c, 5, 7, 100
7, 198464, Control_c, 5, 7, 100
7, 198472, Control_c, 5, 7, 100
7, 198480, Control_c, 5, 7, 99
7, 198488, Control_c, 5, 7, 98
7, 198496, Control_c, 5, 7, 98
7, 198504, Control_c, 5, 7, 98
7, 198512, Control_c, 5, 7, 98
7, 198520, Control_c, 5, 7, 98
7, 198528, Control_c, 5, 7, 98
7, 198536, Control_c, 5, 7, 98
7, 198544, Control_c, 5, 7, 98
7, 198552, Control_c, 5, 7, 98
7, 198560, Control_c, 5, 7, 98
7, 198568, Control_c, 5, 7, 98
7, 198576, Control_c, 5, 7, 98
7, 198584, Control_c, 5, 7, 98
7, 198592, Control_c, 5, 7, 98
7, 198600, Control_c, 5, 7, 98
7, 198608, Control_c, 5, 7, 99
7, 198616, Control_c, 5, 7, 98
7, 198624, Control_c, 5, 7, 97
7, 198632, Control_c, 5, 7, 97
7, 198640, Control_c, 5, 7, 97
7, 198648, Control_c, 5, 7, 97
7, 198656, Control_c, 5, 7, 97
7, 198664, Control_c, 5, 7, 97
7, 198672, Control_c, 5, 7, 97
7, 198680, Control_c, 5, 7, 97
7, 198688, Control_c, 5, 7, 97
7, 198696, Control_c, 5, 7, 97
7, 198704, Control_c, 5, 7, 96
7, 198712, Control_c, 5, 7, 96
7, 198720, Control_c, 5, 7, 96
7, 198728, Control_c, 5, 7, 96
7, 198736, Control_c, 5, 7, 96
7, 198744, Control_c, 5, 7, 96
7, 198752, Control_c, 5, 7, 95
7, 198760, Control_c, 5, 7, 94
7, 198768, Control_c, 5, 7, 93
7, 198776, Control_c, 5, 7, 92
7, 198784, Control_c, 5, 7, 91
7, 198792, Control_c, 5, 7, 90
7, 198800, Control_c, 5, 7, 90
7, 198808, Control_c, 5, 7, 90
7, 198816, Control_c, 5, 7, 90
7, 198824, Control_c, 5, 7, 90
7, 198832, Control_c, 5, 7, 89
7, 198840, Control_c, 5, 7, 88
7, 198848, Control_c, 5, 7, 87
7, 198856, Control_c, 5, 7, 86
7, 198864, Control_c, 5, 7, 86
7, 198872, Control_c, 5, 7, 86
7, 198880, Control_c, 5, 7, 86
7, 198888, Control_c, 5, 7, 86
7, 198896, Control_c, 5, 7, 86
7, 198904, Control_c, 5, 7, 81
7, 198912, Control_c, 5, 7, 80
7, 198920, Control_c, 5, 7, 80
7, 198928, Control_c, 5, 7, 80
7, 198936, Control_c, 5, 7, 80
7, 198944, Control_c, 5, 7, 80
7, 198952, Control_c, 5, 7, 79
7, 198960, Control_c, 5, 7, 78
7, 198968, Control_c, 5, 7, 77
7, 198976, Control_c, 5, 7, 72
7, 198984, Control_c, 5, 7, 72
7, 198992, Control_c, 5, 7, 72
7, 199000, Control_c, 5, 7, 72
7, 199008, Control_c, 5, 7, 72
7, 199016, Control_c, 5, 7, 72
7, 199024, Control_c, 5, 7, 72
7, 199032, Control_c, 5, 7, 72
7, 199040, Control_c, 5, 7, 72
7, 199048, Control_c, 5, 7, 71
7, 199056, Control_c, 5, 7, 66
7, 199064, Control_c, 5, 7, 65
7, 199072, Control_c, 5, 7, 65
7, 199080, Control_c, 5, 7, 65
7, 199088, Control_c, 5, 7, 65
7, 199096, Control_c, 5, 7, 65
7, 199104, Control_c, 5, 7, 63
7, 199112, Control_c, 5, 7, 55
7, 199120, Control_c, 5, 7, 51
7, 199128, Control_c, 5, 7, 51
7, 199136, Control_c, 5, 7, 49
7, 199144, Control_c, 5, 7, 49
7, 199152, Control_c, 5, 7, 49
7, 199160, Control_c, 5, 7, 49
7, 199168, Control_c, 5, 7, 49
7, 199176, Control_c, 5, 7, 44
7, 199184, Control_c, 5, 7, 41
7, 199192, Control_c, 5, 7, 36
7, 199200, Control_c, 5, 7, 36
7, 199208, Control_c, 5, 7, 35
7, 199216, Control_c, 5, 7, 35
7, 199224, Control_c, 5, 7, 32
7, 199232, Control_c, 5, 7, 32
7, 199240, Control_c, 5, 7, 32
7, 199248, Control_c, 5, 7, 32
7, 199256, Control_c, 5, 7, 32
7, 199264, Control_c, 5, 7, 31
7, 199272, Control_c, 5, 7, 31
7, 199280, Control_c, 5, 7, 31
7, 199288, Control_c, 5, 7, 30
7, 199296, Control_c, 5, 7, 30
7, 199304, Control_c, 5, 7, 28
7, 199312, Control_c, 5, 7, 28
7, 199320, Control_c, 5, 7, 26
7, 199328, Control_c, 5, 7, 23
7, 199336, Control_c, 5, 7, 22
7, 199344, Control_c, 5, 7, 22
7, 199352, Control_c, 5, 7, 22
7, 199360, Control_c, 5, 7, 20
7, 199368, Control_c, 5, 7, 19
7, 199376, Control_c, 5, 7, 17
7, 199384, Control_c, 5, 7, 17
7, 199392, Control_c, 5, 7, 17
7, 199400, Control_c, 5, 7, 17
7, 199408, Control_c, 5, 7, 17
7, 199416, Control_c, 5, 7, 18
7, 199424, Control_c, 5, 7, 17
7, 199432, Control_c, 5, 7, 16
7, 199440, Control_c, 5, 7, 14
7, 199446, Note_on_c, 5, 70, 0
7, 199448, Control_c, 5, 7, 14
7, 199456, Control_c, 5, 7, 12
7, 199464, Control_c, 5, 7, 12
7, 199472, Control_c, 5, 7, 12
7, 199480, Control_c, 5, 7, 12
7, 199488, Control_c, 5, 7, 12
7, 199496, Control_c, 5, 7, 12
7, 199504, Control_c, 5, 7, 12
7, 199512, Control_c, 5, 7, 12
7, 199520, Control_c, 5, 7, 14
7, 199528, Control_c, 5, 7, 14
7, 199536, Control_c, 5, 7, 21
7, 199544, Control_c, 5, 7, 23
7, 199552, Control_c, 5, 7, 33
7, 199560, Control_c, 5, 7, 34
7, 199568, Control_c, 5, 7, 56
7, 199576, Control_c, 5, 7, 58
7, 199584, Control_c, 5, 7, 58
7, 199592, Control_c, 5, 7, 58
7, 199600, Control_c, 5, 7, 83
7, 199608, Control_c, 5, 7, 83
7, 199616, Control_c, 5, 7, 88
7, 199624, Control_c, 5, 7, 88
7, 199632, Control_c, 5, 7, 88
7, 199640, Control_c, 5, 7, 100
7, 199648, Control_c, 5, 7, 100
7, 199656, Control_c, 5, 7, 100
7, 199664, Control_c, 5, 7, 119
7, 199672, Control_c, 5, 7, 119
7, 199680, Control_c, 5, 7, 119
7, 199680, Note_on_c, 5, 65, 94
7, 199688, Control_c, 5, 7, 119
7, 199696, Control_c, 5, 7, 119
7, 199704, Control_c, 5, 7, 119
7, 199712, Control_c, 5, 7, 120
7, 199720, Control_c, 5, 7, 119
7, 199728, Control_c, 5, 7, 118
7, 199736, Control_c, 5, 7, 117
7, 199744, Control_c, 5, 7, 116
7, 199752, Control_c, 5, 7, 116
7, 199760, Control_c, 5, 7, 115
7, 199768, Control_c, 5, 7, 115
7, 199776, Control_c, 5, 7, 114
7, 199784, Control_c, 5, 7, 114
7, 199792, Control_c, 5, 7, 114
7, 199800, Control_c, 5, 7, 113
7, 199808, Control_c, 5, 7, 113
7, 199816, Control_c, 5, 7, 114
7, 199824, Control_c, 5, 7, 113
7, 199832, Control_c, 5, 7, 112
7, 199840, Control_c, 5, 7, 111
7, 199848, Control_c, 5, 7, 110
7, 199856, Control_c, 5, 7, 109
7, 199864, Control_c, 5, 7, 108
7, 199872, Control_c, 5, 7, 107
7, 199880, Control_c, 5, 7, 107
7, 199888, Control_c, 5, 7, 107
7, 199896, Control_c, 5, 7, 107
7, 199904, Control_c, 5, 7, 107
7, 199912, Control_c, 5, 7, 107
7, 199920, Control_c, 5, 7, 107
7, 199928, Control_c, 5, 7, 107
7, 199936, Control_c, 5, 7, 107
7, 199944, Control_c, 5, 7, 107
7, 199952, Control_c, 5, 7, 106
7, 199960, Control_c, 5, 7, 106
7, 199968, Control_c, 5, 7, 106
7, 199976, Control_c, 5, 7, 106
7, 199984, Control_c, 5, 7, 106
7, 199992, Control_c, 5, 7, 106
7, 200000, Control_c, 5, 7, 105
7, 200008, Control_c, 5, 7, 104
7, 200016, Control_c, 5, 7, 104
7, 200024, Control_c, 5, 7, 104
7, 200032, Control_c, 5, 7, 104
7, 200040, Control_c, 5, 7, 104
7, 200048, Control_c, 5, 7, 105
7, 200056, Control_c, 5, 7, 105
7, 200064, Control_c, 5, 7, 105
7, 200072, Control_c, 5, 7, 105
7, 200080, Control_c, 5, 7, 105
7, 200088, Control_c, 5, 7, 105
7, 200096, Control_c, 5, 7, 105
7, 200104, Control_c, 5, 7, 105
7, 200112, Control_c, 5, 7, 104
7, 200120, Control_c, 5, 7, 105
7, 200128, Control_c, 5, 7, 104
7, 200136, Control_c, 5, 7, 104
7, 200144, Control_c, 5, 7, 104
7, 200152, Control_c, 5, 7, 103
7, 200160, Control_c, 5, 7, 102
7, 200168, Control_c, 5, 7, 103
7, 200176, Control_c, 5, 7, 102
7, 200184, Control_c, 5, 7, 101
7, 200192, Control_c, 5, 7, 100
7, 200200, Control_c, 5, 7, 100
7, 200208, Control_c, 5, 7, 100
7, 200216, Control_c, 5, 7, 100
7, 200224, Control_c, 5, 7, 100
7, 200232, Control_c, 5, 7, 100
7, 200240, Control_c, 5, 7, 101
7, 200248, Control_c, 5, 7, 101
7, 200256, Control_c, 5, 7, 101
7, 200264, Control_c, 5, 7, 101
7, 200272, Control_c, 5, 7, 101
7, 200280, Control_c, 5, 7, 101
7, 200288, Control_c, 5, 7, 100
7, 200296, Control_c, 5, 7, 100
7, 200304, Control_c, 5, 7, 100
7, 200312, Control_c, 5, 7, 100
7, 200320, Control_c, 5, 7, 101
7, 200328, Control_c, 5, 7, 100
7, 200336, Control_c, 5, 7, 99
7, 200344, Control_c, 5, 7, 99
7, 200352, Control_c, 5, 7, 99
7, 200360, Control_c, 5, 7, 99
7, 200368, Control_c, 5, 7, 99
7, 200376, Control_c, 5, 7, 99
7, 200384, Control_c, 5, 7, 99
7, 200392, Control_c, 5, 7, 99
7, 200400, Control_c, 5, 7, 99
7, 200408, Control_c, 5, 7, 99
7, 200416, Control_c, 5, 7, 99
7, 200424, Control_c, 5, 7, 99
7, 200432, Control_c, 5, 7, 99
7, 200440, Control_c, 5, 7, 99
7, 200448, Control_c, 5, 7, 99
7, 200456, Control_c, 5, 7, 98
7, 200464, Control_c, 5, 7, 98
7, 200472, Control_c, 5, 7, 99
7, 200480, Control_c, 5, 7, 99
7, 200488, Control_c, 5, 7, 99
7, 200496, Control_c, 5, 7, 99
7, 200504, Control_c, 5, 7, 99
7, 200512, Control_c, 5, 7, 99
7, 200520, Control_c, 5, 7, 99
7, 200528, Control_c, 5, 7, 99
7, 200536, Control_c, 5, 7, 99
7, 200544, Control_c, 5, 7, 99
7, 200552, Control_c, 5, 7, 100
7, 200560, Control_c, 5, 7, 99
7, 200568, Control_c, 5, 7, 98
7, 200576, Control_c, 5, 7, 98
7, 200584, Control_c, 5, 7, 98
7, 200592, Control_c, 5, 7, 98
7, 200600, Control_c, 5, 7, 98
7, 200608, Control_c, 5, 7, 98
7, 200616, Control_c, 5, 7, 97
7, 200624, Control_c, 5, 7, 98
7, 200632, Control_c, 5, 7, 98
7, 200640, Control_c, 5, 7, 98
7, 200648, Control_c, 5, 7, 98
7, 200656, Control_c, 5, 7, 98
7, 200664, Control_c, 5, 7, 98
7, 200672, Control_c, 5, 7, 98
7, 200680, Control_c, 5, 7, 97
7, 200688, Control_c, 5, 7, 97
7, 200696, Control_c, 5, 7, 97
7, 200704, Control_c, 5, 7, 97
7, 200712, Control_c, 5, 7, 97
7, 200720, Control_c, 5, 7, 97
7, 200728, Control_c, 5, 7, 97
7, 200736, Control_c, 5, 7, 96
7, 200744, Control_c, 5, 7, 96
7, 200752, Control_c, 5, 7, 94
7, 200760, Control_c, 5, 7, 89
7, 200768, Control_c, 5, 7, 84
7, 200776, Control_c, 5, 7, 74
7, 200784, Control_c, 5, 7, 80
7, 200792, Control_c, 5, 7, 80
7, 200800, Control_c, 5, 7, 80
7, 200808, Control_c, 5, 7, 80
7, 200816, Control_c, 5, 7, 80
7, 200824, Control_c, 5, 7, 80
7, 200832, Control_c, 5, 7, 79
7, 200840, Control_c, 5, 7, 79
7, 200848, Control_c, 5, 7, 77
7, 200856, Control_c, 5, 7, 77
7, 200864, Control_c, 5, 7, 77
7, 200872, Control_c, 5, 7, 77
7, 200880, Control_c, 5, 7, 77
7, 200888, Control_c, 5, 7, 76
7, 200896, Control_c, 5, 7, 76
7, 200904, Control_c, 5, 7, 74
7, 200912, Control_c, 5, 7, 74
7, 200920, Control_c, 5, 7, 73
7, 200928, Control_c, 5, 7, 72
7, 200936, Control_c, 5, 7, 72
7, 200944, Control_c, 5, 7, 70
7, 200952, Control_c, 5, 7, 70
7, 200960, Control_c, 5, 7, 70
7, 200968, Control_c, 5, 7, 70
7, 200976, Control_c, 5, 7, 70
7, 200984, Control_c, 5, 7, 68
7, 200992, Control_c, 5, 7, 67
7, 201000, Control_c, 5, 7, 67
7, 201008, Control_c, 5, 7, 62
7, 201016, Control_c, 5, 7, 62
7, 201024, Control_c, 5, 7, 62
7, 201032, Control_c, 5, 7, 62
7, 201040, Control_c, 5, 7, 62
7, 201048, Control_c, 5, 7, 62
7, 201056, Control_c, 5, 7, 61
7, 201064, Control_c, 5, 7, 56
7, 201072, Control_c, 5, 7, 56
7, 201080, Control_c, 5, 7, 56
7, 201088, Control_c, 5, 7, 56
7, 201096, Control_c, 5, 7, 56
7, 201104, Control_c, 5, 7, 55
7, 201112, Control_c, 5, 7, 54
7, 201120, Control_c, 5, 7, 47
7, 201128, Control_c, 5, 7, 45
7, 201136, Control_c, 5, 7, 37
7, 201144, Control_c, 5, 7, 32
7, 201152, Control_c, 5, 7, 32
7, 201160, Control_c, 5, 7, 30
7, 201168, Control_c, 5, 7, 28
7, 201176, Control_c, 5, 7, 29
7, 201184, Control_c, 5, 7, 29
7, 201192, Control_c, 5, 7, 28
7, 201200, Control_c, 5, 7, 28
7, 201208, Control_c, 5, 7, 27
7, 201216, Control_c, 5, 7, 27
7, 201224, Control_c, 5, 7, 26
7, 201232, Control_c, 5, 7, 26
7, 201240, Control_c, 5, 7, 25
7, 201248, Control_c, 5, 7, 23
7, 201256, Control_c, 5, 7, 22
7, 201264, Control_c, 5, 7, 17
7, 201272, Control_c, 5, 7, 17
7, 201280, Control_c, 5, 7, 17
7, 201288, Control_c, 5, 7, 17
7, 201296, Control_c, 5, 7, 17
7, 201304, Control_c, 5, 7, 17
7, 201312, Control_c, 5, 7, 16
7, 201320, Control_c, 5, 7, 16
7, 201328, Control_c, 5, 7, 15
7, 201336, Control_c, 5, 7, 14
7, 201344, Control_c, 5, 7, 14
7, 201352, Control_c, 5, 7, 12
7, 201360, Control_c, 5, 7, 13
7, 201368, Control_c, 5, 7, 13
7, 201376, Control_c, 5, 7, 11
7, 201384, Control_c, 5, 7, 10
7, 201392, Control_c, 5, 7, 10
7, 201400, Control_c, 5, 7, 9
7, 201408, Control_c, 5, 7, 9
7, 201410, Note_on_c, 5, 65, 0
7, 201416, Control_c, 5, 7, 9
7, 201424, Control_c, 5, 7, 8
7, 201432, Control_c, 5, 7, 8
7, 201440, Control_c, 5, 7, 8
7, 201448, Control_c, 5, 7, 8
7, 201456, Control_c, 5, 7, 8
7, 201464, Control_c, 5, 7, 8
7, 201472, Control_c, 5, 7, 8
7, 201480, Control_c, 5, 7, 8
7, 201488, Control_c, 5, 7, 8
7, 201496, Control_c, 5, 7, 8
7, 201504, Control_c, 5, 7, 8
7, 201512, Control_c, 5, 7, 8
7, 201520, Control_c, 5, 7, 8
7, 201528, Control_c, 5, 7, 7
7, 201536, Control_c, 5, 7, 7
7, 201544, Control_c, 5, 7, 7
7, 201552, Control_c, 5, 7, 7
7, 201560, Control_c, 5, 7, 34
7, 201568, Control_c, 5, 7, 35
7, 201576, Control_c, 5, 7, 36
7, 201584, Control_c, 5, 7, 37
7, 201592, Control_c, 5, 7, 96
7, 201840, Control_c, 5, 7, 97
7, 201848, Control_c, 5, 7, 100
7, 201856, Control_c, 5, 7, 100
7, 201864, Control_c, 5, 7, 100
7, 201872, Control_c, 5, 7, 100
7, 201880, Control_c, 5, 7, 100
7, 201888, Control_c, 5, 7, 100
7, 201896, Control_c, 5, 7, 101
7, 210480, Note_on_c, 5, 62, 41
7, 210524, Note_on_c, 5, 62, 0
7, 210720, Note_on_c, 5, 62, 41
7, 210770, Note_on_c, 5, 62, 0
7, 210960, Note_on_c, 5, 62, 33
7, 211016, Note_on_c, 5, 62, 0
7, 211440, Note_on_c, 5, 62, 40
7, 211490, Note_on_c, 5, 62, 0
7, 211680, Note_on_c, 5, 62, 43
7, 211734, Note_on_c, 5, 62, 0
7, 211920, Note_on_c, 5, 62, 35
7, 211972, Note_on_c, 5, 62, 0
7, 212400, Note_on_c, 5, 62, 41
7, 212452, Note_on_c, 5, 62, 0
7, 212640, Note_on_c, 5, 62, 42
7, 212694, Note_on_c, 5, 62, 0
7, 212880, Note_on_c, 5, 62, 33
7, 212934, Note_on_c, 5, 62, 0
7, 213360, Note_on_c, 5, 62, 40
7, 213410, Note_on_c, 5, 62, 0
7, 213600, Note_on_c, 5, 62, 42
7, 213654, Note_on_c, 5, 62, 0
7, 213840, Note_on_c, 5, 62, 35
7, 213892, Note_on_c, 5, 62, 0
7, 217920, Control_c, 5, 7, 40
7, 218704, Control_c, 5, 7, 51
7, 218732, Control_c, 5, 7, 52
7, 218744, Control_c, 5, 7, 53
7, 218760, Control_c, 5, 7, 54
7, 218772, Control_c, 5, 7, 55
7, 218784, Control_c, 5, 7, 56
7, 218800, Control_c, 5, 7, 57
7, 218812, Control_c, 5, 7, 58
7, 218824, Control_c, 5, 7, 59
7, 218840, Control_c, 5, 7, 60
7, 218852, Control_c, 5, 7, 61
7, 218880, Control_c, 5, 7, 62
7, 218880, Note_on_c, 5, 67, 67
7, 218892, Control_c, 5, 7, 63
7, 218904, Control_c, 5, 7, 64
7, 218920, Control_c, 5, 7, 65
7, 218932, Control_c, 5, 7, 66
7, 218944, Control_c, 5, 7, 67
7, 218960, Control_c, 5, 7, 68
7, 218972, Control_c, 5, 7, 69
7, 218984, Control_c, 5, 7, 70
7, 219000, Control_c, 5, 7, 71
7, 219012, Control_c, 5, 7, 72
7, 219040, Control_c, 5, 7, 73
7, 219052, Control_c, 5, 7, 74
7, 219064, Control_c, 5, 7, 75
7, 219080, Control_c, 5, 7, 76
7, 219092, Control_c, 5, 7, 77
7, 219104, Control_c, 5, 7, 78
7, 219120, Control_c, 5, 7, 79
7, 219132, Control_c, 5, 7, 80
7, 219144, Control_c, 5, 7, 81
7, 219160, Control_c, 5, 7, 82
7, 219172, Control_c, 5, 7, 83
7, 219200, Control_c, 5, 7, 84
7, 219212, Control_c, 5, 7, 85
7, 219224, Control_c, 5, 7, 86
7, 219240, Control_c, 5, 7, 87
7, 219252, Control_c, 5, 7, 88
7, 219264, Control_c, 5, 7, 89
7, 219280, Control_c, 5, 7, 90
7, 219292, Control_c, 5, 7, 91
7, 219304, Control_c, 5, 7, 92
7, 219320, Control_c, 5, 7, 93
7, 219332, Control_c, 5, 7, 94
7, 219360, Control_c, 5, 7, 95
7, 219372, Control_c, 5, 7, 96
7, 219384, Control_c, 5, 7, 97
7, 219400, Control_c, 5, 7, 98
7, 219412, Control_c, 5, 7, 99
7, 219424, Control_c, 5, 7, 100
7, 219440, Control_c, 5, 7, 101
7, 219452, Control_c, 5, 7, 102
7, 219464, Control_c, 5, 7, 103
7, 219480, Control_c, 5, 7, 104
7, 219492, Control_c, 5, 7, 105
7, 219520, Control_c, 5, 7, 106
7, 219532, Control_c, 5, 7, 107
7, 219544, Control_c, 5, 7, 108
7, 219560, Control_c, 5, 7, 109
7, 219572, Control_c, 5, 7, 110
7, 219584, Control_c, 5, 7, 111
7, 219600, Control_c, 5, 7, 112
7, 219612, Control_c, 5, 7, 113
7, 219624, Control_c, 5, 7, 114
7, 219640, Control_c, 5, 7, 115
7, 219652, Control_c, 5, 7, 116
7, 219680, Control_c, 5, 7, 117
7, 219692, Control_c, 5, 7, 118
7, 219704, Control_c, 5, 7, 119
7, 219720, Control_c, 5, 7, 120
7, 219732, Control_c, 5, 7, 121
7, 219744, Control_c, 5, 7, 122
7, 219760, Control_c, 5, 7, 123
7, 219772, Control_c, 5, 7, 124
7, 219784, Control_c, 5, 7, 125
7, 219792, Note_on_c, 5, 67, 0
7, 219800, Control_c, 5, 7, 126
7, 219812, Control_c, 5, 7, 126
7, 219824, Control_c, 5, 7, 123
7, 219840, Control_c, 5, 7, 127
7, 219840, Note_on_c, 5, 68, 48
7, 219852, Control_c, 5, 7, 122
7, 219864, Control_c, 5, 7, 116
7, 219880, Control_c, 5, 7, 111
7, 219892, Control_c, 5, 7, 105
7, 219904, Control_c, 5, 7, 100
7, 219920, Control_c, 5, 7, 94
7, 219932, Control_c, 5, 7, 89
7, 219944, Control_c, 5, 7, 83
7, 219956, Note_on_c, 5, 68, 0
7, 219960, Note_on_c, 5, 67, 48
7, 220076, Note_on_c, 5, 67, 0
7, 220080, Note_on_c, 5, 65, 48
7, 220196, Note_on_c, 5, 65, 0
7, 220280, Note_on_c, 5, 67, 48
7, 220318, Note_on_c, 5, 67, 0
7, 220320, Note_on_c, 5, 65, 48
7, 220436, Note_on_c, 5, 65, 0
7, 220440, Note_on_c, 5, 63, 48
7, 220556, Note_on_c, 5, 63, 0
7, 220560, Note_on_c, 5, 65, 48
7, 220792, Note_on_c, 5, 65, 0
7, 220800, Note_on_c, 5, 67, 48
7, 220916, Note_on_c, 5, 67, 0
7, 220920, Note_on_c, 5, 65, 48
7, 221036, Note_on_c, 5, 65, 0
7, 221040, Note_on_c, 5, 63, 48
7, 221400, Note_on_c, 5, 63, 0
7, 221520, Note_on_c, 5, 63, 48
7, 221992, Note_on_c, 5, 63, 0
7, 222000, Note_on_c, 5, 62, 48
7, 222116, Note_on_c, 5, 62, 0
7, 222120, Note_on_c, 5, 63, 48
7, 222236, Note_on_c, 5, 63, 0
7, 222240, Note_on_c, 5, 65, 48
7, 222356, Note_on_c, 5, 65, 0
7, 222360, Note_on_c, 5, 58, 41
7, 222408, Note_on_c, 5, 58, 0
7, 222480, Note_on_c, 5, 60, 41
7, 222528, Note_on_c, 5, 60, 0
7, 222600, Note_on_c, 5, 62, 41
7, 222648, Note_on_c, 5, 62, 0
7, 222720, Note_on_c, 5, 63, 64
7, 222768, Note_on_c, 5, 63, 0
7, 222840, Note_on_c, 5, 65, 60
7, 222888, Note_on_c, 5, 65, 0
7, 222960, Note_on_c, 5, 67, 57
7, 223008, Note_on_c, 5, 67, 0
7, 223080, Note_on_c, 5, 68, 53
7, 223128, Note_on_c, 5, 68, 0
7, 223200, Note_on_c, 5, 70, 49
7, 223248, Note_on_c, 5, 70, 0
7, 223320, Note_on_c, 5, 70, 46
7, 223368, Note_on_c, 5, 70, 0
7, 223440, Note_on_c, 5, 70, 42
7, 223488, Note_on_c, 5, 70, 0
7, 223560, Note_on_c, 5, 70, 39
7, 223608, Note_on_c, 5, 70, 0
7, 223680, Note_on_c, 5, 70, 40
7, 224712, Note_on_c, 5, 70, 0
7, 224762, Control_c, 5, 7, 88
7, 224774, Control_c, 5, 7, 90
7, 224790, Control_c, 5, 7, 93
7, 224802, Control_c, 5, 7, 95
7, 224814, Control_c, 5, 7, 98
7, 224830, Control_c, 5, 7, 100
7, 224842, Control_c, 5, 7, 103
7, 224854, Control_c, 5, 7, 105
7, 224870, Control_c, 5, 7, 108
7, 224880, Note_on_c, 5, 70, 25
7, 224880, Note_on_c, 5, 58, 25
7, 224952, Note_on_c, 5, 58, 0
7, 224952, Note_on_c, 5, 70, 0
7, 225120, Note_on_c, 5, 70, 25
7, 225120, Note_on_c, 5, 58, 25
7, 225192, Note_on_c, 5, 58, 0
7, 225192, Note_on_c, 5, 70, 0
7, 225360, Note_on_c, 5, 70, 25
7, 225360, Note_on_c, 5, 58, 25
7, 225432, Note_on_c, 5, 58, 0
7, 225432, Note_on_c, 5, 70, 0
7, 225600, Note_on_c, 5, 70, 25
7, 225600, Note_on_c, 5, 58, 25
7, 225672, Note_on_c, 5, 58, 0
7, 225672, Note_on_c, 5, 70, 0
7, 225840, Note_on_c, 5, 70, 25
7, 225840, Note_on_c, 5, 58, 25
7, 225912, Note_on_c, 5, 58, 0
7, 225912, Note_on_c, 5, 70, 0
7, 226080, Note_on_c, 5, 70, 25
7, 226080, Note_on_c, 5, 58, 25
7, 226152, Note_on_c, 5, 58, 0
7, 226152, Note_on_c, 5, 70, 0
7, 226320, Note_on_c, 5, 70, 25
7, 226320, Note_on_c, 5, 58, 25
7, 226392, Note_on_c, 5, 58, 0
7, 226392, Note_on_c, 5, 70, 0
7, 226560, Note_on_c, 5, 70, 25
7, 226560, Note_on_c, 5, 58, 25
7, 226632, Note_on_c, 5, 58, 0
7, 226632, Note_on_c, 5, 70, 0
7, 226800, Note_on_c, 5, 70, 25
7, 226800, Note_on_c, 5, 58, 25
7, 226872, Note_on_c, 5, 58, 0
7, 226872, Note_on_c, 5, 70, 0
7, 227040, Note_on_c, 5, 70, 25
7, 227040, Note_on_c, 5, 58, 25
7, 227112, Note_on_c, 5, 58, 0
7, 227112, Note_on_c, 5, 70, 0
7, 227280, Note_on_c, 5, 70, 25
7, 227280, Note_on_c, 5, 58, 25
7, 227352, Note_on_c, 5, 58, 0
7, 227352, Note_on_c, 5, 70, 0
7, 227520, Note_on_c, 5, 70, 25
7, 227520, Note_on_c, 5, 58, 25
7, 227592, Note_on_c, 5, 58, 0
7, 227592, Note_on_c, 5, 70, 0
7, 227760, Note_on_c, 5, 70, 25
7, 227760, Note_on_c, 5, 58, 25
7, 227832, Note_on_c, 5, 58, 0
7, 227832, Note_on_c, 5, 70, 0
7, 228000, Note_on_c, 5, 70, 25
7, 228000, Note_on_c, 5, 58, 25
7, 228072, Note_on_c, 5, 58, 0
7, 228072, Note_on_c, 5, 70, 0
7, 228240, Note_on_c, 5, 70, 25
7, 228240, Note_on_c, 5, 58, 25
7, 228312, Note_on_c, 5, 58, 0
7, 228312, Note_on_c, 5, 70, 0
7, 228480, Note_on_c, 5, 70, 25
7, 228480, Note_on_c, 5, 58, 25
7, 228552, Note_on_c, 5, 58, 0
7, 228552, Note_on_c, 5, 70, 0
7, 228720, Note_on_c, 5, 70, 25
7, 228720, Note_on_c, 5, 58, 25
7, 228792, Note_on_c, 5, 58, 0
7, 228792, Note_on_c, 5, 70, 0
7, 228960, Note_on_c, 5, 70, 25
7, 228960, Note_on_c, 5, 58, 25
7, 229032, Note_on_c, 5, 58, 0
7, 229032, Note_on_c, 5, 70, 0
7, 229200, Note_on_c, 5, 70, 25
7, 229200, Note_on_c, 5, 58, 25
7, 229272, Note_on_c, 5, 58, 0
7, 229272, Note_on_c, 5, 70, 0
7, 229440, Note_on_c, 5, 70, 25
7, 229440, Note_on_c, 5, 58, 25
7, 229512, Note_on_c, 5, 58, 0
7, 229512, Note_on_c, 5, 70, 0
7, 229680, Note_on_c, 5, 70, 25
7, 229680, Note_on_c, 5, 58, 25
7, 229752, Note_on_c, 5, 58, 0
7, 229752, Note_on_c, 5, 70, 0
7, 229920, Note_on_c, 5, 70, 25
7, 229920, Note_on_c, 5, 58, 25
7, 229992, Note_on_c, 5, 58, 0
7, 229992, Note_on_c, 5, 70, 0
7, 230160, Note_on_c, 5, 70, 30
7, 230160, Note_on_c, 5, 58, 30
7, 230232, Note_on_c, 5, 58, 0
7, 230232, Note_on_c, 5, 70, 0
7, 230400, Note_on_c, 5, 70, 34
7, 230400, Note_on_c, 5, 58, 34
7, 230448, Note_on_c, 5, 58, 0
7, 230448, Note_on_c, 5, 70, 0
7, 230520, Note_on_c, 5, 70, 38
7, 230520, Note_on_c, 5, 58, 38
7, 230568, Note_on_c, 5, 58, 0
7, 230568, Note_on_c, 5, 70, 0
7, 230640, Note_on_c, 5, 70, 41
7, 230640, Note_on_c, 5, 58, 41
7, 230688, Note_on_c, 5, 58, 0
7, 230688, Note_on_c, 5, 70, 0
7, 230760, Note_on_c, 5, 70, 45
7, 230760, Note_on_c, 5, 58, 45
7, 230808, Note_on_c, 5, 58, 0
7, 230808, Note_on_c, 5, 70, 0
7, 230880, Note_on_c, 5, 70, 34
7, 230880, Note_on_c, 5, 58, 34
7, 230928, Note_on_c, 5, 58, 0
7, 230928, Note_on_c, 5, 70, 0
7, 231000, Note_on_c, 5, 70, 38
7, 231000, Note_on_c, 5, 58, 38
7, 231048, Note_on_c, 5, 58, 0
7, 231048, Note_on_c, 5, 70, 0
7, 231120, Note_on_c, 5, 70, 41
7, 231120, Note_on_c, 5, 58, 41
7, 231168, Note_on_c, 5, 58, 0
7, 231168, Note_on_c, 5, 70, 0
7, 231240, Note_on_c, 5, 70, 45
7, 231240, Note_on_c, 5, 58, 45
7, 231288, Note_on_c, 5, 58, 0
7, 231288, Note_on_c, 5, 70, 0
7, 231360, Note_on_c, 5, 70, 39
7, 231360, Note_on_c, 5, 58, 39
7, 231408, Note_on_c, 5, 58, 0
7, 231408, Note_on_c, 5, 70, 0
7, 231480, Note_on_c, 5, 70, 44
7, 231480, Note_on_c, 5, 58, 44
7, 231528, Note_on_c, 5, 58, 0
7, 231528, Note_on_c, 5, 70, 0
7, 231600, Note_on_c, 5, 70, 47
7, 231600, Note_on_c, 5, 58, 47
7, 231648, Note_on_c, 5, 58, 0
7, 231648, Note_on_c, 5, 70, 0
7, 231720, Note_on_c, 5, 70, 52
7, 231720, Note_on_c, 5, 58, 52
7, 231768, Note_on_c, 5, 58, 0
7, 231768, Note_on_c, 5, 70, 0
7, 231840, Note_on_c, 5, 70, 39
7, 231840, Note_on_c, 5, 58, 39
7, 231888, Note_on_c, 5, 58, 0
7, 231888, Note_on_c, 5, 70, 0
7, 231960, Note_on_c, 5, 70, 44
7, 231960, Note_on_c, 5, 58, 44
7, 232008, Note_on_c, 5, 58, 0
7, 232008, Note_on_c, 5, 70, 0
7, 232080, Note_on_c, 5, 70, 47
7, 232080, Note_on_c, 5, 58, 47
7, 232128, Note_on_c, 5, 58, 0
7, 232128, Note_on_c, 5, 70, 0
7, 232200, Note_on_c, 5, 70, 52
7, 232200, Note_on_c, 5, 58, 52
7, 232248, Note_on_c, 5, 58, 0
7, 232248, Note_on_c, 5, 70, 0
7, 232320, Note_on_c, 5, 70, 45
7, 232320, Note_on_c, 5, 58, 45
7, 232368, Note_on_c, 5, 58, 0
7, 232368, Note_on_c, 5, 70, 0
7, 232440, Note_on_c, 5, 70, 51
7, 232440, Note_on_c, 5, 58, 51
7, 232488, Note_on_c, 5, 58, 0
7, 232488, Note_on_c, 5, 70, 0
7, 232560, Note_on_c, 5, 70, 54
7, 232560, Note_on_c, 5, 58, 54
7, 232608, Note_on_c, 5, 58, 0
7, 232608, Note_on_c, 5, 70, 0
7, 232680, Note_on_c, 5, 70, 60
7, 232680, Note_on_c, 5, 58, 60
7, 232728, Note_on_c, 5, 58, 0
7, 232728, Note_on_c, 5, 70, 0
7, 232800, Note_on_c, 5, 70, 45
7, 232800, Note_on_c, 5, 58, 45
7, 232848, Note_on_c, 5, 58, 0
7, 232848, Note_on_c, 5, 70, 0
7, 232920, Note_on_c, 5, 70, 51
7, 232920, Note_on_c, 5, 58, 51
7, 232968, Note_on_c, 5, 58, 0
7, 232968, Note_on_c, 5, 70, 0
7, 233040, Note_on_c, 5, 70, 54
7, 233040, Note_on_c, 5, 58, 54
7, 233088, Note_on_c, 5, 58, 0
7, 233088, Note_on_c, 5, 70, 0
7, 233160, Note_on_c, 5, 70, 60
7, 233160, Note_on_c, 5, 58, 60
7, 233208, Note_on_c, 5, 58, 0
7, 233208, Note_on_c, 5, 70, 0
7, 233280, Note_on_c, 5, 70, 52
7, 233280, Note_on_c, 5, 58, 52
7, 233328, Note_on_c, 5, 58, 0
7, 233328, Note_on_c, 5, 70, 0
7, 233400, Note_on_c, 5, 58, 59
7, 233400, Note_on_c, 5, 46, 59
7, 233448, Note_on_c, 5, 46, 0
7, 233448, Note_on_c, 5, 58, 0
7, 233520, Note_on_c, 5, 58, 62
7, 233520, Note_on_c, 5, 46, 62
7, 233568, Note_on_c, 5, 46, 0
7, 233568, Note_on_c, 5, 58, 0
7, 233640, Note_on_c, 5, 58, 69
7, 233640, Note_on_c, 5, 46, 69
7, 233688, Note_on_c, 5, 46, 0
7, 233688, Note_on_c, 5, 58, 0
7, 233760, Note_on_c, 5, 58, 88
7, 233760, Note_on_c, 5, 46, 88
7, 233808, Note_on_c, 5, 46, 0
7, 233808, Note_on_c, 5, 58, 0
7, 233880, Note_on_c, 5, 58, 100
7, 233880, Note_on_c, 5, 46, 100
7, 233928, Note_on_c, 5, 46, 0
7, 233928, Note_on_c, 5, 58, 0
7, 234000, Note_on_c, 5, 58, 105
7, 234000, Note_on_c, 5, 46, 105
7, 234048, Note_on_c, 5, 46, 0
7, 234048, Note_on_c, 5, 58, 0
7, 234120, Note_on_c, 5, 58, 117
7, 234120, Note_on_c, 5, 46, 117
7, 234168, Note_on_c, 5, 46, 0
7, 234168, Note_on_c, 5, 58, 0
7, 234240, Note_on_c, 5, 58, 75
7, 234240, Note_on_c, 5, 46, 75
7, 234288, Note_on_c, 5, 46, 0
7, 234288, Note_on_c, 5, 58, 0
7, 234360, Note_on_c, 5, 58, 85
7, 234360, Note_on_c, 5, 46, 85
7, 234408, Note_on_c, 5, 46, 0
7, 234408, Note_on_c, 5, 58, 0
7, 234480, Note_on_c, 5, 58, 89
7, 234480, Note_on_c, 5, 46, 89
7, 234528, Note_on_c, 5, 46, 0
7, 234528, Note_on_c, 5, 58, 0
7, 234600, Note_on_c, 5, 58, 99
7, 234600, Note_on_c, 5, 46, 99
7, 234648, Note_on_c, 5, 46, 0
7, 234648, Note_on_c, 5, 58, 0
7, 234720, Note_on_c, 5, 58, 98
7, 234720, Note_on_c, 5, 46, 98
7, 234768, Note_on_c, 5, 46, 0
7, 234768, Note_on_c, 5, 58, 0
7, 234840, Note_on_c, 5, 58, 85
7, 234840, Note_on_c, 5, 46, 85
7, 234888, Note_on_c, 5, 46, 0
7, 234888, Note_on_c, 5, 58, 0
7, 234960, Note_on_c, 5, 58, 89
7, 234960, Note_on_c, 5, 46, 89
7, 235008, Note_on_c, 5, 46, 0
7, 235008, Note_on_c, 5, 58, 0
7, 235080, Note_on_c, 5, 58, 99
7, 235080, Note_on_c, 5, 46, 99
7, 235128, Note_on_c, 5, 46, 0
7, 235128, Note_on_c, 5, 58, 0
7, 235200, Note_on_c, 5, 58, 45
7, 235200, Note_on_c, 5, 46, 45
7, 235296, Note_on_c, 5, 46, 0
7, 235296, Note_on_c, 5, 58, 0
7, 235320, Note_on_c, 5, 58, 42
7, 235320, Note_on_c, 5, 46, 42
7, 235416, Note_on_c, 5, 46, 0
7, 235416, Note_on_c, 5, 58, 0
7, 235440, Note_on_c, 5, 58, 38
7, 235440, Note_on_c, 5, 46, 38
7, 235536, Note_on_c, 5, 46, 0
7, 235536, Note_on_c, 5, 58, 0
7, 235560, Note_on_c, 5, 58, 35
7, 235560, Note_on_c, 5, 46, 35
7, 235656, Note_on_c, 5, 46, 0
7, 235656, Note_on_c, 5, 58, 0
7, 235680, Note_on_c, 5, 58, 32
7, 235680, Note_on_c, 5, 46, 32
7, 235776, Note_on_c, 5, 46, 0
7, 235776, Note_on_c, 5, 58, 0
7, 235800, Channel_aftertouch_c, 5, 0
7, 235800, Note_on_c, 5, 58, 29
7, 235800, Note_on_c, 5, 46, 29
7, 235896, Note_on_c, 5, 46, 0
7, 235896, Note_on_c, 5, 58, 0
7, 235920, Note_on_c, 5, 58, 26
7, 235920, Note_on_c, 5, 46, 26
7, 236016, Note_on_c, 5, 46, 0
7, 236016, Note_on_c, 5, 58, 0
7, 236040, Control_c, 5, 7, 39
7, 236040, Note_on_c, 5, 58, 80
7, 236040, Note_on_c, 5, 46, 80
7, 236048, Control_c, 5, 7, 38
7, 236056, Control_c, 5, 7, 38
7, 236064, Control_c, 5, 7, 38
7, 236072, Control_c, 5, 7, 38
7, 236080, Control_c, 5, 7, 39
7, 236088, Control_c, 5, 7, 39
7, 236096, Control_c, 5, 7, 39
7, 236104, Control_c, 5, 7, 39
7, 236112, Control_c, 5, 7, 38
7, 236120, Control_c, 5, 7, 38
7, 236128, Control_c, 5, 7, 38
7, 236136, Control_c, 5, 7, 38
7, 236144, Control_c, 5, 7, 38
7, 236152, Control_c, 5, 7, 38
7, 236160, Control_c, 5, 7, 38
7, 236168, Control_c, 5, 7, 38
7, 236176, Control_c, 5, 7, 39
7, 236184, Control_c, 5, 7, 39
7, 236192, Control_c, 5, 7, 39
7, 236200, Control_c, 5, 7, 39
7, 236208, Control_c, 5, 7, 39
7, 236216, Control_c, 5, 7, 39
7, 236224, Control_c, 5, 7, 39
7, 236232, Control_c, 5, 7, 39
7, 236240, Control_c, 5, 7, 39
7, 236248, Control_c, 5, 7, 39
7, 236256, Control_c, 5, 7, 39
7, 236264, Control_c, 5, 7, 39
7, 236272, Control_c, 5, 7, 39
7, 236280, Control_c, 5, 7, 40
7, 236288, Control_c, 5, 7, 40
7, 236296, Control_c, 5, 7, 40
7, 236304, Control_c, 5, 7, 40
7, 236312, Control_c, 5, 7, 40
7, 236320, Control_c, 5, 7, 40
7, 236328, Control_c, 5, 7, 40
7, 236336, Control_c, 5, 7, 39
7, 236344, Control_c, 5, 7, 38
7, 236352, Control_c, 5, 7, 39
7, 236360, Control_c, 5, 7, 38
7, 236368, Control_c, 5, 7, 38
7, 236376, Control_c, 5, 7, 38
7, 236384, Control_c, 5, 7, 38
7, 236392, Control_c, 5, 7, 38
7, 236400, Control_c, 5, 7, 38
7, 236408, Control_c, 5, 7, 38
7, 236416, Control_c, 5, 7, 38
7, 236424, Control_c, 5, 7, 39
7, 236432, Control_c, 5, 7, 39
7, 236440, Control_c, 5, 7, 39
7, 236448, Control_c, 5, 7, 39
7, 236456, Control_c, 5, 7, 39
7, 236464, Control_c, 5, 7, 38
7, 236472, Control_c, 5, 7, 38
7, 236480, Control_c, 5, 7, 38
7, 236488, Control_c, 5, 7, 38
7, 236496, Control_c, 5, 7, 38
7, 236504, Control_c, 5, 7, 39
7, 236512, Control_c, 5, 7, 39
7, 236520, Control_c, 5, 7, 39
7, 236528, Control_c, 5, 7, 39
7, 236536, Control_c, 5, 7, 39
7, 236544, Control_c, 5, 7, 39
7, 236552, Control_c, 5, 7, 39
7, 236560, Control_c, 5, 7, 39
7, 236568, Control_c, 5, 7, 39
7, 236576, Control_c, 5, 7, 39
7, 236584, Control_c, 5, 7, 39
7, 236592, Control_c, 5, 7, 39
7, 236600, Control_c, 5, 7, 39
7, 236608, Control_c, 5, 7, 39
7, 236616, Control_c, 5, 7, 39
7, 236624, Control_c, 5, 7, 39
7, 236632, Control_c, 5, 7, 39
7, 236640, Control_c, 5, 7, 40
7, 236648, Control_c, 5, 7, 40
7, 236656, Control_c, 5, 7, 40
7, 236664, Control_c, 5, 7, 40
7, 236672, Control_c, 5, 7, 40
7, 236680, Control_c, 5, 7, 41
7, 236688, Control_c, 5, 7, 41
7, 236696, Control_c, 5, 7, 41
7, 236704, Control_c, 5, 7, 41
7, 236712, Control_c, 5, 7, 41
7, 236720, Control_c, 5, 7, 41
7, 236728, Control_c, 5, 7, 41
7, 236736, Control_c, 5, 7, 41
7, 236744, Control_c, 5, 7, 41
7, 236752, Control_c, 5, 7, 41
7, 236760, Control_c, 5, 7, 41
7, 236768, Control_c, 5, 7, 41
7, 236776, Control_c, 5, 7, 41
7, 236784, Control_c, 5, 7, 42
7, 236792, Control_c, 5, 7, 42
7, 236800, Control_c, 5, 7, 42
7, 236808, Control_c, 5, 7, 42
7, 236816, Control_c, 5, 7, 42
7, 236824, Control_c, 5, 7, 42
7, 236832, Control_c, 5, 7, 42
7, 236840, Control_c, 5, 7, 42
7, 236848, Control_c, 5, 7, 43
7, 236856, Control_c, 5, 7, 43
7, 236864, Control_c, 5, 7, 43
7, 236872, Control_c, 5, 7, 43
7, 236880, Control_c, 5, 7, 43
7, 236888, Control_c, 5, 7, 43
7, 236896, Control_c, 5, 7, 43
7, 236904, Control_c, 5, 7, 44
7, 236912, Control_c, 5, 7, 44
7, 236920, Control_c, 5, 7, 44
7, 236928, Control_c, 5, 7, 44
7, 236936, Control_c, 5, 7, 44
7, 236944, Control_c, 5, 7, 44
7, 236952, Control_c, 5, 7, 45
7, 236960, Control_c, 5, 7, 45
7, 236968, Control_c, 5, 7, 45
7, 236976, Control_c, 5, 7, 45
7, 236984, Control_c, 5, 7, 45
7, 236992, Control_c, 5, 7, 45
7, 237000, Control_c, 5, 7, 46
7, 237008, Control_c, 5, 7, 46
7, 237016, Control_c, 5, 7, 46
7, 237024, Control_c, 5, 7, 46
7, 237032, Control_c, 5, 7, 46
7, 237040, Control_c, 5, 7, 46
7, 237048, Control_c, 5, 7, 47
7, 237056, Control_c, 5, 7, 47
7, 237064, Control_c, 5, 7, 47
7, 237072, Control_c, 5, 7, 48
7, 237080, Control_c, 5, 7, 48
7, 237088, Control_c, 5, 7, 48
7, 237096, Control_c, 5, 7, 49
7, 237104, Control_c, 5, 7, 49
7, 237112, Control_c, 5, 7, 49
7, 237120, Control_c, 5, 7, 49
7, 237128, Control_c, 5, 7, 49
7, 237136, Control_c, 5, 7, 49
7, 237144, Control_c, 5, 7, 50
7, 237152, Control_c, 5, 7, 50
7, 237160, Control_c, 5, 7, 51
7, 237168, Control_c, 5, 7, 52
7, 237176, Control_c, 5, 7, 53
7, 237184, Control_c, 5, 7, 54
7, 237192, Control_c, 5, 7, 55
7, 237200, Control_c, 5, 7, 56
7, 237208, Control_c, 5, 7, 56
7, 237216, Control_c, 5, 7, 56
7, 237224, Control_c, 5, 7, 56
7, 237232, Control_c, 5, 7, 56
7, 237240, Control_c, 5, 7, 56
7, 237248, Control_c, 5, 7, 57
7, 237256, Control_c, 5, 7, 57
7, 237264, Control_c, 5, 7, 58
7, 237272, Control_c, 5, 7, 58
7, 237280, Control_c, 5, 7, 59
7, 237288, Control_c, 5, 7, 60
7, 237296, Control_c, 5, 7, 60
7, 237304, Control_c, 5, 7, 61
7, 237312, Control_c, 5, 7, 62
7, 237320, Control_c, 5, 7, 62
7, 237328, Control_c, 5, 7, 63
7, 237336, Control_c, 5, 7, 64
7, 237344, Control_c, 5, 7, 64
7, 237352, Control_c, 5, 7, 65
7, 237360, Control_c, 5, 7, 66
7, 237368, Control_c, 5, 7, 66
7, 237376, Control_c, 5, 7, 66
7, 237384, Control_c, 5, 7, 66
7, 237392, Control_c, 5, 7, 66
7, 237400, Control_c, 5, 7, 66
7, 237408, Control_c, 5, 7, 66
7, 237416, Control_c, 5, 7, 66
7, 237424, Control_c, 5, 7, 66
7, 237432, Control_c, 5, 7, 66
7, 237440, Control_c, 5, 7, 66
7, 237448, Control_c, 5, 7, 66
7, 237456, Control_c, 5, 7, 66
7, 237464, Control_c, 5, 7, 66
7, 237472, Control_c, 5, 7, 67
7, 237480, Control_c, 5, 7, 74
7, 237488, Control_c, 5, 7, 74
7, 237496, Control_c, 5, 7, 75
7, 237504, Control_c, 5, 7, 75
7, 237512, Control_c, 5, 7, 75
7, 237520, Control_c, 5, 7, 75
7, 237528, Control_c, 5, 7, 75
7, 237536, Control_c, 5, 7, 75
7, 237544, Control_c, 5, 7, 75
7, 237552, Control_c, 5, 7, 76
7, 237560, Control_c, 5, 7, 77
7, 237568, Control_c, 5, 7, 78
7, 237576, Control_c, 5, 7, 79
7, 237584, Control_c, 5, 7, 80
7, 237592, Control_c, 5, 7, 81
7, 237600, Control_c, 5, 7, 82
7, 237608, Control_c, 5, 7, 83
7, 237616, Control_c, 5, 7, 84
7, 237624, Control_c, 5, 7, 84
7, 237632, Control_c, 5, 7, 84
7, 237640, Control_c, 5, 7, 84
7, 237648, Control_c, 5, 7, 84
7, 237656, Control_c, 5, 7, 84
7, 237664, Control_c, 5, 7, 93
7, 237672, Control_c, 5, 7, 94
7, 237680, Control_c, 5, 7, 95
7, 237688, Control_c, 5, 7, 96
7, 237696, Control_c, 5, 7, 97
7, 237704, Control_c, 5, 7, 99
7, 237712, Control_c, 5, 7, 100
7, 237720, Control_c, 5, 7, 101
7, 237728, Control_c, 5, 7, 102
7, 237736, Control_c, 5, 7, 104
7, 237744, Control_c, 5, 7, 105
7, 237752, Control_c, 5, 7, 105
7, 237760, Control_c, 5, 7, 105
7, 237768, Control_c, 5, 7, 106
7, 237776, Control_c, 5, 7, 106
7, 237784, Control_c, 5, 7, 107
7, 237792, Control_c, 5, 7, 110
7, 237800, Control_c, 5, 7, 111
7, 237808, Control_c, 5, 7, 111
7, 237816, Control_c, 5, 7, 111
7, 237824, Control_c, 5, 7, 111
7, 237832, Control_c, 5, 7, 111
7, 237840, Control_c, 5, 7, 112
7, 237848, Control_c, 5, 7, 112
7, 237856, Control_c, 5, 7, 114
7, 237864, Control_c, 5, 7, 114
7, 237872, Control_c, 5, 7, 114
7, 237880, Control_c, 5, 7, 114
7, 237888, Control_c, 5, 7, 114
7, 237896, Control_c, 5, 7, 116
7, 237904, Control_c, 5, 7, 117
7, 237912, Control_c, 5, 7, 117
7, 237920, Control_c, 5, 7, 120
7, 237928, Control_c, 5, 7, 120
7, 237936, Control_c, 5, 7, 120
7, 237944, Control_c, 5, 7, 120
7, 237952, Control_c, 5, 7, 120
7, 237960, Control_c, 5, 7, 121
7, 237968, Control_c, 5, 7, 121
7, 237976, Control_c, 5, 7, 121
7, 237984, Control_c, 5, 7, 121
7, 237992, Control_c, 5, 7, 121
7, 238000, Control_c, 5, 7, 122
7, 238008, Control_c, 5, 7, 124
7, 238016, Control_c, 5, 7, 124
7, 238024, Control_c, 5, 7, 125
7, 238032, Control_c, 5, 7, 125
7, 238040, Control_c, 5, 7, 124
7, 238048, Control_c, 5, 7, 121
7, 238056, Control_c, 5, 7, 121
7, 238064, Control_c, 5, 7, 117
7, 238072, Control_c, 5, 7, 114
7, 238080, Control_c, 5, 7, 113
7, 238080, Note_on_c, 5, 63, 56
7, 238080, Note_on_c, 5, 51, 50
7, 238082, Note_on_c, 5, 46, 0
7, 238082, Note_on_c, 5, 58, 0
7, 238088, Control_c, 5, 7, 112
7, 238096, Control_c, 5, 7, 107
7, 238104, Control_c, 5, 7, 107
7, 238112, Control_c, 5, 7, 105
7, 238120, Control_c, 5, 7, 103
7, 238128, Control_c, 5, 7, 103
7, 238130, Note_on_c, 5, 51, 0
7, 238142, Note_on_c, 5, 63, 0
7, 238320, Note_on_c, 5, 63, 60
7, 238320, Note_on_c, 5, 51, 62
7, 238630, Note_on_c, 5, 51, 0
7, 238634, Note_on_c, 5, 63, 0
7, 238800, Note_on_c, 5, 63, 61
7, 238800, Note_on_c, 5, 51, 53
7, 238892, Note_on_c, 5, 63, 0
7, 238896, Note_on_c, 5, 51, 0
7, 239040, Note_on_c, 5, 63, 63
7, 239040, Note_on_c, 5, 51, 59
7, 239730, Note_on_c, 5, 51, 0
7, 239734, Note_on_c, 5, 63, 0
7, 240000, Note_on_c, 5, 63, 66
7, 240000, Note_on_c, 5, 51, 59
7, 240072, Note_on_c, 5, 51, 0
7, 240076, Note_on_c, 5, 63, 0
7, 240240, Note_on_c, 5, 63, 66
7, 240240, Note_on_c, 5, 51, 68
7, 240522, Note_on_c, 5, 51, 0
7, 240530, Note_on_c, 5, 63, 0
7, 240720, Note_on_c, 5, 63, 64
7, 240720, Note_on_c, 5, 51, 56
7, 240810, Note_on_c, 5, 51, 0
7, 240814, Note_on_c, 5, 63, 0
7, 240960, Note_on_c, 5, 63, 66
7, 240960, Note_on_c, 5, 51, 64
7, 241686, Note_on_c, 5, 51, 0
7, 241686, Note_on_c, 5, 63, 0
7, 241920, Note_on_c, 5, 63, 73
7, 241920, Note_on_c, 5, 51, 68
7, 242224, Note_on_c, 5, 51, 0
7, 242226, Note_on_c, 5, 63, 0
7, 242400, Note_on_c, 5, 63, 60
7, 242400, Note_on_c, 5, 51, 60
7, 242484, Note_on_c, 5, 51, 0
7, 242484, Note_on_c, 5, 63, 0
7, 242640, Note_on_c, 5, 63, 60
7, 242640, Note_on_c, 5, 51, 58
7, 242724, Note_on_c, 5, 51, 0
7, 242724, Note_on_c, 5, 63, 0
7, 242880, Note_on_c, 5, 63, 71
7, 242880, Note_on_c, 5, 51, 68
7, 243330, Note_on_c, 5, 51, 0
7, 243330, Note_on_c, 5, 63, 0
7, 243360, Note_on_c, 5, 63, 61
7, 243360, Note_on_c, 5, 51, 59
7, 243444, Note_on_c, 5, 51, 0
7, 243444, Note_on_c, 5, 63, 0
7, 243600, Note_on_c, 5, 63, 55
7, 243600, Note_on_c, 5, 51, 55
7, 243684, Note_on_c, 5, 51, 0
7, 243684, Note_on_c, 5, 63, 0
7, 243840, Note_on_c, 5, 58, 66
7, 243840, Note_on_c, 5, 51, 63
7, 244094, Note_on_c, 5, 58, 0
7, 244100, Note_on_c, 5, 51, 0
7, 244320, Note_on_c, 5, 58, 68
7, 244320, Note_on_c, 5, 51, 55
7, 244404, Note_on_c, 5, 51, 0
7, 244404, Note_on_c, 5, 58, 0
7, 244560, Note_on_c, 5, 58, 64
7, 244560, Note_on_c, 5, 51, 54
7, 244644, Note_on_c, 5, 51, 0
7, 244644, Note_on_c, 5, 58, 0
7, 244800, Note_on_c, 5, 63, 59
7, 244800, Note_on_c, 5, 51, 50
7, 244910, Note_on_c, 5, 51, 0
7, 244944, Note_on_c, 5, 63, 0
7, 245760, Note_on_c, 5, 67, 50
7, 245760, Note_on_c, 5, 58, 47
7, 246036, Note_on_c, 5, 67, 0
7, 246094, Note_on_c, 5, 58, 0
7, 246240, Note_on_c, 5, 63, 39
7, 246240, Note_on_c, 5, 55, 38
7, 246320, Note_on_c, 5, 63, 0
7, 246324, Note_on_c, 5, 55, 0
7, 246480, Note_on_c, 5, 63, 36
7, 246480, Note_on_c, 5, 55, 35
7, 246560, Note_on_c, 5, 55, 0
7, 246560, Note_on_c, 5, 63, 0
7, 246720, Note_on_c, 5, 58, 52
7, 247016, Note_on_c, 5, 58, 0
7, 247200, Note_on_c, 5, 65, 40
7, 247272, Note_on_c, 5, 65, 0
7, 247440, Note_on_c, 5, 65, 51
7, 247524, Note_on_c, 5, 65, 0
7, 247680, Note_on_c, 5, 65, 51
7, 247930, Note_on_c, 5, 65, 0
7, 248160, Note_on_c, 5, 65, 50
7, 248240, Note_on_c, 5, 65, 0
7, 248400, Note_on_c, 5, 65, 50
7, 248492, Note_on_c, 5, 65, 0
7, 248640, Note_on_c, 5, 58, 46
7, 248856, Note_on_c, 5, 58, 0
7, 249600, Note_on_c, 5, 63, 42
7, 249600, Note_on_c, 5, 67, 46
7, 250080, Note_on_c, 5, 70, 38
7, 250096, Note_on_c, 5, 63, 0
7, 250482, Note_on_c, 5, 70, 0
7, 250540, Note_on_c, 5, 67, 0
7, 250560, Note_on_c, 5, 65, 43
7, 250560, Note_on_c, 5, 68, 42
7, 250962, Note_on_c, 5, 65, 0
7, 251040, Note_on_c, 5, 65, 44
7, 251040, Note_on_c, 5, 58, 40
7, 251086, Note_on_c, 5, 68, 0
7, 251472, Note_on_c, 5, 58, 0
7, 251520, Note_on_c, 5, 63, 50
7, 251520, Note_on_c, 5, 67, 45
7, 251536, Note_on_c, 5, 65, 0
7, 251946, Note_on_c, 5, 63, 0
7, 252000, Note_on_c, 5, 63, 45
7, 252000, Note_on_c, 5, 55, 40
7, 252006, Note_on_c, 5, 67, 0
7, 252292, Note_on_c, 5, 55, 0
7, 252480, Note_on_c, 5, 58, 39
7, 252480, Note_on_c, 5, 65, 44
7, 252514, Note_on_c, 5, 63, 0
7, 252842, Note_on_c, 5, 58, 0
7, 252920, Note_on_c, 5, 65, 0
7, 252960, Note_on_c, 5, 58, 48
7, 253390, Note_on_c, 5, 58, 0
7, 253440, Note_on_c, 5, 67, 52
7, 253440, Note_on_c, 5, 63, 50
7, 253854, Note_on_c, 5, 67, 0
7, 253872, Note_on_c, 5, 63, 0
7, 253920, Note_on_c, 5, 70, 48
7, 253920, Note_on_c, 5, 67, 33
7, 254370, Note_on_c, 5, 70, 0
7, 254400, Note_on_c, 5, 65, 44
7, 254400, Note_on_c, 5, 68, 42
7, 254416, Note_on_c, 5, 67, 0
7, 254760, Note_on_c, 5, 65, 0
7, 254880, Note_on_c, 5, 68, 0
7, 254880, Note_on_c, 5, 65, 45
7, 254880, Note_on_c, 5, 58, 38
7, 255242, Note_on_c, 5, 65, 0
7, 255360, Note_on_c, 5, 63, 48
7, 255360, Note_on_c, 5, 67, 47
7, 255376, Note_on_c, 5, 58, 0
7, 255676, Note_on_c, 5, 63, 0
7, 255840, Note_on_c, 5, 55, 35
7, 255840, Note_on_c, 5, 63, 44
7, 255852, Note_on_c, 5, 67, 0
7, 256150, Note_on_c, 5, 55, 0
7, 256320, Note_on_c, 5, 58, 38
7, 256320, Note_on_c, 5, 65, 45
7, 256342, Note_on_c, 5, 63, 0
7, 256650, Note_on_c, 5, 58, 0
7, 256760, Note_on_c, 5, 65, 0
7, 256800, Note_on_c, 5, 58, 46
7, 257092, Note_on_c, 5, 58, 0
7, 257280, Note_on_c, 5, 58, 87
7, 257280, Note_on_c, 5, 46, 75
7, 257340, Note_on_c, 5, 46, 0
7, 257342, Note_on_c, 5, 58, 0
7, 257520, Note_on_c, 5, 46, 66
7, 257520, Note_on_c, 5, 58, 73
7, 257806, Note_on_c, 5, 58, 0
7, 257822, Note_on_c, 5, 46, 0
7, 258000, Note_on_c, 5, 58, 73
7, 258000, Note_on_c, 5, 46, 66
7, 258276, Note_on_c, 5, 58, 0
7, 258284, Note_on_c, 5, 46, 0
7, 258480, Note_on_c, 5, 58, 70
7, 258480, Note_on_c, 5, 46, 65
7, 258752, Note_on_c, 5, 46, 0
7, 258760, Note_on_c, 5, 58, 0
7, 258960, Note_on_c, 5, 58, 68
7, 258960, Note_on_c, 5, 46, 61
7, 259206, Note_on_c, 5, 46, 0
7, 259212, Note_on_c, 5, 58, 0
7, 259440, Note_on_c, 5, 46, 61
7, 259440, Note_on_c, 5, 58, 70
7, 259694, Note_on_c, 5, 46, 0
7, 259696, Note_on_c, 5, 58, 0
7, 259920, Note_on_c, 5, 46, 64
7, 259920, Note_on_c, 5, 58, 71
7, 260176, Note_on_c, 5, 58, 0
7, 260182, Note_on_c, 5, 46, 0
7, 260400, Note_on_c, 5, 58, 71
7, 260400, Note_on_c, 5, 46, 63
7, 260642, Note_on_c, 5, 46, 0
7, 260652, Note_on_c, 5, 58, 0
7, 260880, Note_on_c, 5, 46, 55
7, 260880, Note_on_c, 5, 58, 65
7, 261116, Note_on_c, 5, 46, 0
7, 261136, Note_on_c, 5, 58, 0
7, 261360, Note_on_c, 5, 58, 61
7, 261360, Note_on_c, 5, 46, 59
7, 261810, Note_on_c, 5, 46, 0
7, 261810, Note_on_c, 5, 58, 0
7, 261840, Note_on_c, 5, 46, 55
7, 261840, Note_on_c, 5, 58, 56
7, 262066, Note_on_c, 5, 58, 0
7, 262066, Note_on_c, 5, 46, 0
7, 262320, Note_on_c, 5, 58, 64
7, 262320, Note_on_c, 5, 46, 53
7, 262582, Note_on_c, 5, 58, 0
7, 262584, Note_on_c, 5, 46, 0
7, 262800, Note_on_c, 5, 58, 68
7, 262800, Note_on_c, 5, 46, 61
7, 263054, Note_on_c, 5, 58, 0
7, 263056, Note_on_c, 5, 46, 0
7, 263280, Note_on_c, 5, 58, 74
7, 263280, Note_on_c, 5, 46, 62
7, 263524, Note_on_c, 5, 46, 0
7, 263540, Note_on_c, 5, 58, 0
7, 263760, Note_on_c, 5, 58, 80
7, 263760, Note_on_c, 5, 46, 73
7, 264002, Note_on_c, 5, 46, 0
7, 264002, Note_on_c, 5, 58, 0
7, 264240, Note_on_c, 5, 58, 92
7, 264240, Note_on_c, 5, 46, 86
7, 264500, Note_on_c, 5, 58, 0
7, 264504, Note_on_c, 5, 46, 0
7, 264720, Note_on_c, 5, 58, 94
7, 264720, Note_on_c, 5, 46, 90
7, 264962, Note_on_c, 5, 58, 0
7, 264976, Note_on_c, 5, 46, 0
7, 265200, Note_on_c, 5, 46, 95
7, 265200, Note_on_c, 5, 58, 102
7, 265452, Note_on_c, 5, 46, 0
7, 265454, Note_on_c, 5, 58, 0
7, 265680, Note_on_c, 5, 58, 98
7, 265680, Note_on_c, 5, 46, 98
7, 265936, Note_on_c, 5, 46, 0
7, 265940, Note_on_c, 5, 58, 0
7, 266160, Note_on_c, 5, 58, 100
7, 266160, Note_on_c, 5, 46, 97
7, 266372, Note_on_c, 5, 58, 0
7, 266376, Note_on_c, 5, 46, 0
7, 266640, Note_on_c, 5, 46, 87
7, 266640, Note_on_c, 5, 58, 94
7, 266860, Note_on_c, 5, 58, 0
7, 266870, Note_on_c, 5, 46, 0
7, 267120, Note_on_c, 5, 58, 94
7, 267120, Note_on_c, 5, 46, 86
7, 267570, Note_on_c, 5, 46, 0
7, 267570, Note_on_c, 5, 58, 0
7, 267600, Note_on_c, 5, 58, 94
7, 267600, Note_on_c, 5, 46, 90
7, 267826, Note_on_c, 5, 46, 0
7, 267826, Note_on_c, 5, 58, 0
7, 268080, Note_on_c, 5, 46, 94
7, 268080, Note_on_c, 5, 58, 98
7, 268306, Note_on_c, 5, 58, 0
7, 268306, Note_on_c, 5, 46, 0
7, 268560, Note_on_c, 5, 46, 94
7, 268560, Note_on_c, 5, 58, 100
7, 268790, Note_on_c, 5, 58, 0
7, 268792, Note_on_c, 5, 46, 0
7, 269040, Note_on_c, 5, 58, 90
7, 269040, Note_on_c, 5, 46, 88
7, 269272, Note_on_c, 5, 46, 0
7, 269272, Note_on_c, 5, 58, 0
7, 269520, Note_on_c, 5, 58, 98
7, 269520, Note_on_c, 5, 46, 94
7, 269740, Note_on_c, 5, 58, 0
7, 269746, Note_on_c, 5, 46, 0
7, 270000, Note_on_c, 5, 58, 94
7, 270000, Note_on_c, 5, 46, 91
7, 270202, Note_on_c, 5, 46, 0
7, 270202, Note_on_c, 5, 58, 0
7, 270480, Note_on_c, 5, 46, 90
7, 270480, Note_on_c, 5, 58, 95
7, 270682, Note_on_c, 5, 58, 0
7, 270686, Note_on_c, 5, 46, 0
7, 270960, Note_on_c, 5, 58, 98
7, 270960, Note_on_c, 5, 46, 92
7, 271176, Note_on_c, 5, 58, 0
7, 271182, Note_on_c, 5, 46, 0
7, 271440, Note_on_c, 5, 58, 95
7, 271440, Note_on_c, 5, 46, 88
7, 271624, Note_on_c, 5, 46, 0
7, 271624, Note_on_c, 5, 58, 0
7, 271920, Note_on_c, 5, 58, 94
7, 271920, Note_on_c, 5, 46, 87
7, 272136, Note_on_c, 5, 58, 0
7, 272142, Note_on_c, 5, 46, 0
7, 272400, Note_on_c, 5, 46, 81
7, 272400, Note_on_c, 5, 58, 95
7, 272636, Note_on_c, 5, 58, 0
7, 272644, Note_on_c, 5, 46, 0
7, 272880, Note_on_c, 5, 58, 95
7, 272880, Note_on_c, 5, 46, 90
7, 273140, Note_on_c, 5, 46, 0
7, 273142, Note_on_c, 5, 58, 0
7, 273240, Note_on_c, 5, 46, 78
7, 273296, Note_on_c, 5, 46, 0
7, 273360, Note_on_c, 5, 58, 90
7, 273434, Note_on_c, 5, 58, 0
7, 273480, Note_on_c, 5, 65, 95
7, 273480, Note_on_c, 5, 58, 74
7, 273480, Note_on_c, 5, 56, 67
7, 273514, Note_on_c, 5, 58, 0
7, 273540, Note_on_c, 5, 65, 0
7, 273542, Note_on_c, 5, 56, 0
7, 273840, Note_on_c, 5, 58, 90
7, 273840, Note_on_c, 5, 65, 85
7, 274130, Note_on_c, 5, 58, 0
7, 274146, Note_on_c, 5, 65, 0
7, 274200, Note_on_c, 5, 65, 81
7, 274200, Note_on_c, 5, 58, 80
7, 274580, Note_on_c, 5, 58, 0
7, 274590, Note_on_c, 5, 65, 0
7, 274800, Note_on_c, 5, 58, 68
7, 274800, Note_on_c, 5, 65, 88
7, 275110, Note_on_c, 5, 58, 0
7, 275120, Note_on_c, 5, 65, 0
7, 275280, Note_on_c, 5, 58, 81
7, 275280, Note_on_c, 5, 65, 87
7, 275560, Note_on_c, 5, 58, 0
7, 275570, Note_on_c, 5, 65, 0
7, 275760, Note_on_c, 5, 58, 88
7, 275760, Note_on_c, 5, 65, 90
7, 276072, Note_on_c, 5, 58, 0
7, 276092, Note_on_c, 5, 65, 0
7, 276240, Note_on_c, 5, 58, 83
7, 276240, Note_on_c, 5, 65, 87
7, 276560, Note_on_c, 5, 58, 0
7, 276566, Note_on_c, 5, 65, 0
7, 276720, Note_on_c, 5, 65, 92
7, 276720, Note_on_c, 5, 58, 86
7, 277040, Note_on_c, 5, 58, 0
7, 277052, Note_on_c, 5, 65, 0
7, 277200, Note_on_c, 5, 58, 83
7, 277200, Note_on_c, 5, 65, 90
7, 277272, Note_on_c, 5, 58, 0
7, 277282, Note_on_c, 5, 65, 0
7, 277440, Note_on_c, 5, 67, 71
7, 277440, Note_on_c, 5, 58, 71
7, 277514, Note_on_c, 5, 58, 0
7, 277514, Note_on_c, 5, 67, 0
7, 277680, Note_on_c, 5, 67, 85
7, 277680, Note_on_c, 5, 58, 75
7, 277960, Note_on_c, 5, 58, 0
7, 277982, Note_on_c, 5, 67, 0
7, 278160, Note_on_c, 5, 63, 72
7, 278160, Note_on_c, 5, 55, 65
7, 278250, Note_on_c, 5, 63, 0
7, 278252, Note_on_c, 5, 55, 0
7, 278400, Note_on_c, 5, 55, 60
7, 278400, Note_on_c, 5, 58, 59
7, 279300, Note_on_c, 5, 58, 0
7, 279300, Note_on_c, 5, 55, 0
7, 279360, Note_on_c, 5, 67, 71
7, 279360, Note_on_c, 5, 58, 71
7, 279434, Note_on_c, 5, 58, 0
7, 279434, Note_on_c, 5, 67, 0
7, 279600, Note_on_c, 5, 67, 85
7, 279600, Note_on_c, 5, 58, 75
7, 279880, Note_on_c, 5, 58, 0
7, 279902, Note_on_c, 5, 67, 0
7, 280080, Note_on_c, 5, 63, 72
7, 280080, Note_on_c, 5, 55, 65
7, 280170, Note_on_c, 5, 63, 0
7, 280172, Note_on_c, 5, 55, 0
7, 280320, Note_on_c, 5, 58, 81
7, 280320, Note_on_c, 5, 55, 73
7, 281060, Note_on_c, 5, 58, 0
7, 281072, Note_on_c, 5, 55, 0
7, 281280, Note_on_c, 5, 58, 90
7, 281280, Note_on_c, 5, 67, 87
7, 281556, Note_on_c, 5, 67, 0
7, 281612, Note_on_c, 5, 58, 0
7, 281760, Note_on_c, 5, 51, 57
7, 281760, Note_on_c, 5, 63, 88
7, 281830, Note_on_c, 5, 51, 0
7, 281842, Note_on_c, 5, 63, 0
7, 282000, Note_on_c, 5, 51, 73
7, 282000, Note_on_c, 5, 63, 74
7, 282076, Note_on_c, 5, 51, 0
7, 282080, Note_on_c, 5, 63, 0
7, 282240, Note_on_c, 5, 63, 92
7, 282240, Note_on_c, 5, 51, 88
7, 282516, Note_on_c, 5, 51, 0
7, 282530, Note_on_c, 5, 63, 0
7, 282720, Note_on_c, 5, 51, 80
7, 282720, Note_on_c, 5, 63, 80
7, 282806, Note_on_c, 5, 51, 0
7, 282816, Note_on_c, 5, 63, 0
7, 282960, Note_on_c, 5, 51, 80
7, 282960, Note_on_c, 5, 63, 80
7, 283044, Note_on_c, 5, 51, 0
7, 283054, Note_on_c, 5, 63, 0
7, 283200, Note_on_c, 5, 51, 88
7, 283200, Note_on_c, 5, 63, 92
7, 283476, Note_on_c, 5, 51, 0
7, 283490, Note_on_c, 5, 63, 0
7, 283680, Note_on_c, 5, 63, 80
7, 283680, Note_on_c, 5, 51, 80
7, 283766, Note_on_c, 5, 51, 0
7, 283776, Note_on_c, 5, 63, 0
7, 283920, Note_on_c, 5, 63, 80
7, 283920, Note_on_c, 5, 51, 80
7, 284004, Note_on_c, 5, 51, 0
7, 284014, Note_on_c, 5, 63, 0
7, 284160, Note_on_c, 5, 51, 97
7, 284160, Note_on_c, 5, 63, 92
7, 284336, Note_on_c, 5, 63, 0
7, 284340, Note_on_c, 5, 51, 0
7, 285120, Note_on_c, 5, 63, 97
7, 285120, Note_on_c, 5, 51, 104
7, 285396, Note_on_c, 5, 51, 0
7, 285406, Note_on_c, 5, 63, 0
7, 285600, Note_on_c, 5, 51, 80
7, 285600, Note_on_c, 5, 63, 80
7, 285682, Note_on_c, 5, 51, 0
7, 285684, Note_on_c, 5, 63, 0
7, 285840, Note_on_c, 5, 63, 77
7, 285840, Note_on_c, 5, 51, 79
7, 285922, Note_on_c, 5, 51, 0
7, 285922, Note_on_c, 5, 63, 0
7, 286080, Note_on_c, 5, 51, 90
7, 286080, Note_on_c, 5, 63, 92
7, 286530, Note_on_c, 5, 63, 0
7, 286530, Note_on_c, 5, 51, 0
7, 286560, Note_on_c, 5, 63, 84
7, 286560, Note_on_c, 5, 51, 81
7, 286786, Note_on_c, 5, 51, 0
7, 286786, Note_on_c, 5, 63, 0
7, 286800, Note_on_c, 5, 63, 79
7, 286800, Note_on_c, 5, 51, 79
7, 287026, Note_on_c, 5, 51, 0
7, 287026, Note_on_c, 5, 63, 0
7, 287040, Note_on_c, 5, 51, 94
7, 287040, Note_on_c, 5, 63, 94
7, 287490, Note_on_c, 5, 63, 0
7, 287490, Note_on_c, 5, 51, 0
7, 287520, Note_on_c, 5, 51, 80
7, 287520, Note_on_c, 5, 63, 80
7, 287746, Note_on_c, 5, 63, 0
7, 287746, Note_on_c, 5, 51, 0
7, 287760, Note_on_c, 5, 51, 79
7, 287760, Note_on_c, 5, 63, 83
7, 287986, Note_on_c, 5, 63, 0
7, 287986, Note_on_c, 5, 51, 0
7, 288000, Note_on_c, 5, 51, 98
7, 288000, Note_on_c, 5, 63, 97
7, 289860, Note_on_c, 5, 63, 0
7, 289860, Note_on_c, 5, 51, 0
7, 291840, Note_on_c, 5, 65, 80
7, 294274, Note_on_c, 5, 65, 0
7, 295680, Note_on_c, 5, 67, 73
7, 295680, Note_on_c, 5, 55, 79
7, 296422, Note_on_c, 5, 55, 0
7, 296422, Note_on_c, 5, 67, 0
7, 296640, Note_on_c, 5, 51, 88
7, 296640, Note_on_c, 5, 63, 95
7, 297332, Note_on_c, 5, 51, 0
7, 297334, Note_on_c, 5, 63, 0
7, 297600, Note_on_c, 5, 51, 90
7, 297600, Note_on_c, 5, 63, 100
7, 298416, Note_on_c, 5, 51, 0
7, 298430, Note_on_c, 5, 63, 0
7, 298560, Note_on_c, 5, 63, 87
7, 298560, Note_on_c, 5, 51, 88
7, 299220, Note_on_c, 5, 63, 0
7, 299246, Note_on_c, 5, 51, 0
7, 299520, Note_on_c, 5, 46, 66
7, 299520, Note_on_c, 5, 58, 58
7, 299746, Note_on_c, 5, 58, 0
7, 299746, Note_on_c, 5, 46, 0
7, 300000, Note_on_c, 5, 58, 58
7, 300000, Note_on_c, 5, 65, 66
7, 300226, Note_on_c, 5, 65, 0
7, 300226, Note_on_c, 5, 58, 0
7, 300480, Note_on_c, 5, 63, 71
7, 300480, Note_on_c, 5, 67, 71
7, 300704, Note_on_c, 5, 63, 0
7, 300726, Note_on_c, 5, 67, 0
7, 300960, Note_on_c, 5, 63, 78
7, 300960, Note_on_c, 5, 67, 74
7, 301186, Note_on_c, 5, 67, 0
7, 301186, Note_on_c, 5, 63, 0
7, 301440, Note_on_c, 5, 65, 71
7, 301440, Note_on_c, 5, 58, 65
7, 301642, Note_on_c, 5, 65, 0
7, 301650, Note_on_c, 5, 58, 0
7, 301920, Note_on_c, 5, 65, 95
7, 301920, Note_on_c, 5, 58, 88
7, 302090, Note_on_c, 5, 58, 0
7, 302124, Note_on_c, 5, 65, 0
7, 302400, Note_on_c, 5, 63, 81
7, 302400, Note_on_c, 5, 55, 81
7, 302552, Note_on_c, 5, 55, 0
7, 302552, Note_on_c, 5, 63, 0
7, 302880, Note_on_c, 5, 67, 88
7, 302880, Note_on_c, 5, 63, 91
7, 303084, Note_on_c, 5, 63, 0
7, 303136, Note_on_c, 5, 67, 0
7, 303360, Note_on_c, 5, 58, 75
7, 303360, Note_on_c, 5, 65, 74
7, 303504, Note_on_c, 5, 58, 0
7, 303530, Note_on_c, 5, 65, 0
7, 303840, Note_on_c, 5, 65, 68
7, 303840, Note_on_c, 5, 58, 65
7, 304050, Note_on_c, 5, 58, 0
7, 304072, Note_on_c, 5, 65, 0
7, 304320, Note_on_c, 5, 63, 62
7, 304320, Note_on_c, 5, 67, 63
7, 304530, Note_on_c, 5, 63, 0
7, 304570, Note_on_c, 5, 67, 0
7, 304800, Note_on_c, 5, 67, 68
7, 304800, Note_on_c, 5, 63, 66
7, 305046, Note_on_c, 5, 63, 0
7, 305074, Note_on_c, 5, 67, 0
7, 305280, Note_on_c, 5, 58, 60
7, 305280, Note_on_c, 5, 65, 62
7, 305466, Note_on_c, 5, 58, 0
7, 305480, Note_on_c, 5, 65, 0
7, 305760, Note_on_c, 5, 65, 85
7, 305760, Note_on_c, 5, 58, 80
7, 305892, Note_on_c, 5, 58, 0
7, 305942, Note_on_c, 5, 65, 0
7, 306240, Note_on_c, 5, 63, 72
7, 306240, Note_on_c, 5, 55, 65
7, 306394, Note_on_c, 5, 63, 0
7, 306410, Note_on_c, 5, 55, 0
7, 306720, Note_on_c, 5, 67, 90
7, 306784, Note_on_c, 5, 67, 0
7, 307200, Note_on_c, 5, 58, 70
7, 307200, Note_on_c, 5, 70, 79
7, 307362, Note_on_c, 5, 58, 0
7, 307374, Note_on_c, 5, 70, 0
7, 307680, Note_on_c, 5, 55, 37
7, 307680, Note_on_c, 5, 67, 38
7, 310916, Note_on_c, 5, 67, 0
7, 310916, Note_on_c, 5, 55, 0
7, 324000, Note_on_c, 5, 58, 53
7, 324242, Note_on_c, 5, 58, 0
7, 324480, Note_on_c, 5, 58, 46
7, 324700, Note_on_c, 5, 58, 0
7, 324960, Note_on_c, 5, 58, 43
7, 325164, Note_on_c, 5, 58, 0
7, 325440, Note_on_c, 5, 58, 37
7, 325686, Note_on_c, 5, 58, 0
7, 331680, Note_on_c, 5, 58, 65
7, 331952, Note_on_c, 5, 58, 0
7, 332160, Note_on_c, 5, 58, 68
7, 332414, Note_on_c, 5, 58, 0
7, 332640, Note_on_c, 5, 58, 65
7, 332862, Note_on_c, 5, 58, 0
7, 333120, Note_on_c, 5, 58, 51
7, 333396, Note_on_c, 5, 58, 0
7, 334080, Note_on_c, 5, 67, 88
7, 334080, Note_on_c, 5, 63, 81
7, 334292, Note_on_c, 5, 63, 0
7, 334320, Note_on_c, 5, 68, 76
7, 334320, Note_on_c, 5, 65, 79
7, 334346, Note_on_c, 5, 67, 0
7, 334404, Note_on_c, 5, 65, 0
7, 334410, Note_on_c, 5, 68, 0
7, 334560, Note_on_c, 5, 70, 88
7, 334560, Note_on_c, 5, 67, 84
7, 334640, Note_on_c, 5, 67, 0
7, 334642, Note_on_c, 5, 70, 0
7, 334800, Note_on_c, 5, 67, 84
7, 334800, Note_on_c, 5, 70, 84
7, 334876, Note_on_c, 5, 67, 0
7, 334882, Note_on_c, 5, 70, 0
7, 335040, Note_on_c, 5, 70, 89
7, 335040, Note_on_c, 5, 67, 89
7, 335280, Note_on_c, 5, 67, 0
7, 335280, Note_on_c, 5, 70, 0
7, 335280, Note_on_c, 5, 65, 81
7, 335280, Note_on_c, 5, 68, 79
7, 335520, Note_on_c, 5, 68, 0
7, 335520, Note_on_c, 5, 65, 0
7, 335520, Note_on_c, 5, 63, 79
7, 335520, Note_on_c, 5, 67, 88
7, 335760, Note_on_c, 5, 67, 0
7, 335760, Note_on_c, 5, 63, 0
7, 335760, Note_on_c, 5, 65, 88
7, 335760, Note_on_c, 5, 62, 75
7, 336000, Note_on_c, 5, 62, 0
7, 336000, Note_on_c, 5, 65, 0
7, 336000, Note_on_c, 5, 60, 106
7, 336786, Note_on_c, 5, 60, 0
7, 346080, Note_on_c, 5, 51, 26
7, 346080, Note_on_c, 5, 39, 36
7, 347340, Note_on_c, 5, 39, 0
7, 347386, Note_on_c, 5, 51, 0
7, 347520, Note_on_c, 5, 58, 62
7, 347822, Note_on_c, 5, 58, 0
7, 351840, Note_on_c, 5, 58, 81
7, 353220, Note_on_c, 5, 58, 0
7, 353280, Note_on_c, 5, 51, 85
7, 353280, Note_on_c, 5, 58, 97
7, 353380, Note_on_c, 5, 58, 0
7, 353380, Note_on_c, 5, 51, 0
7, 353760, Note_on_c, 5, 63, 91
7, 353760, Note_on_c, 5, 51, 118
7, 353866, Note_on_c, 5, 51, 0
7, 353872, Note_on_c, 5, 63, 0
7, 354720, Note_on_c, 5, 63, 88
7, 354720, Note_on_c, 5, 51, 110
7, 354834, Note_on_c, 5, 63, 0
7, 354850, Note_on_c, 5, 51, 0
7, 355680, Note_on_c, 5, 63, 88
7, 355680, Note_on_c, 5, 51, 110
7, 355794, Note_on_c, 5, 63, 0
7, 355810, Note_on_c, 5, 51, 0
7, 356640, Note_on_c, 5, 63, 88
7, 356640, Note_on_c, 5, 51, 110
7, 356754, Note_on_c, 5, 63, 0
7, 356770, Note_on_c, 5, 51, 0
7, 357600, Note_on_c, 5, 63, 88
7, 357600, Note_on_c, 5, 51, 110
7, 357714, Note_on_c, 5, 63, 0
7, 357730, Note_on_c, 5, 51, 0
7, 358560, Note_on_c, 5, 63, 88
7, 358560, Note_on_c, 5, 51, 110
7, 358674, Note_on_c, 5, 63, 0
7, 358690, Note_on_c, 5, 51, 0
7, 359520, Note_on_c, 5, 63, 88
7, 359520, Note_on_c, 5, 51, 110
7, 359634, Note_on_c, 5, 63, 0
7, 359650, Note_on_c, 5, 51, 0
7, 360480, Note_on_c, 5, 63, 88
7, 360480, Note_on_c, 5, 51, 110
7, 360594, Note_on_c, 5, 63, 0
7, 360610, Note_on_c, 5, 51, 0
7, 360960, Note_on_c, 5, 55, 68
7, 360960, Note_on_c, 5, 63, 83
7, 361062, Note_on_c, 5, 55, 0
7, 361086, Note_on_c, 5, 63, 0
7, 361440, Note_on_c, 5, 63, 105
7, 361440, Note_on_c, 5, 67, 125
7, 361544, Note_on_c, 5, 67, 0
7, 361550, Note_on_c, 5, 63, 0
7, 361920, Note_on_c, 5, 63, 119
7, 361920, Note_on_c, 5, 67, 126
7, 362032, Note_on_c, 5, 63, 0
7, 362034, Note_on_c, 5, 67, 0
7, 362400, Note_on_c, 5, 63, 120
7, 362400, Note_on_c, 5, 67, 126
7, 362510, Note_on_c, 5, 63, 0
7, 362512, Note_on_c, 5, 67, 0
7, 362880, Note_on_c, 5, 63, 126
7, 362880, Note_on_c, 5, 67, 127
7, 362996, Note_on_c, 5, 63, 0
7, 363016, Note_on_c, 5, 67, 0
7, 363360, Note_on_c, 5, 63, 127
7, 363360, Note_on_c, 5, 67, 127
7, 363620, Note_on_c, 5, 67, 0
7, 363620, Note_on_c, 5, 63, 0
7, 363840, Note_on_c, 5, 58, 127
7, 363840, Note_on_c, 5, 65, 127
7, 364026, Note_on_c, 5, 65, 0
7, 364030, Note_on_c, 5, 58, 0
7, 364320, Note_on_c, 5, 58, 127
7, 364320, Note_on_c, 5, 65, 127
7, 364484, Note_on_c, 5, 58, 0
7, 364492, Note_on_c, 5, 65, 0
7, 364800, Note_on_c, 5, 63, 90
7, 364800, Note_on_c, 5, 55, 80
7, 364914, Note_on_c, 5, 55, 0
7, 364932, Note_on_c, 5, 63, 0
7, 365280, Note_on_c, 5, 63, 91
7, 365280, Note_on_c, 5, 51, 83
7, 365382, Note_on_c, 5, 51, 0
7, 365394, Note_on_c, 5, 63, 0
7, 366240, Note_on_c, 5, 51, 95
7, 366240, Note_on_c, 5, 63, 95
7, 366346, Note_on_c, 5, 51, 0
7, 366360, Note_on_c, 5, 63, 0
7, 367200, Note_on_c, 5, 51, 71
7, 367200, Note_on_c, 5, 63, 85
7, 367344, Note_on_c, 5, 51, 0
7, 367360, Note_on_c, 5, 63, 0
7, 368160, Note_on_c, 5, 63, 90
7, 368160, Note_on_c, 5, 51, 80
7, 368274, Note_on_c, 5, 51, 0
7, 368296, Note_on_c, 5, 63, 0
7, 369120, Note_on_c, 5, 51, 86
7, 369120, Note_on_c, 5, 39, 84
7, 369244, Note_on_c, 5, 39, 0
7, 369260, Note_on_c, 5, 51, 0
7, 370080, Note_on_c, 5, 39, 73
7, 370080, Note_on_c, 5, 51, 86
7, 370222, Note_on_c, 5, 39, 0
7, 370232, Note_on_c, 5, 51, 0
7, 371040, Note_on_c, 5, 51, 74
7, 371040, Note_on_c, 5, 63, 87
7, 371156, Note_on_c, 5, 51, 0
7, 371174, Note_on_c, 5, 63, 0
7, 372000, Note_on_c, 5, 63, 80
7, 372000, Note_on_c, 5, 51, 66
7, 372116, Note_on_c, 5, 51, 0
7, 372132, Note_on_c, 5, 63, 0
7, 372960, Note_on_c, 5, 63, 87
7, 372960, Note_on_c, 5, 51, 74
7, 373076, Note_on_c, 5, 51, 0
7, 373094, Note_on_c, 5, 63, 0
7, 373920, Note_on_c, 5, 51, 66
7, 373920, Note_on_c, 5, 63, 80
7, 374036, Note_on_c, 5, 51, 0
7, 374052, Note_on_c, 5, 63, 0
7, 374880, Note_on_c, 5, 63, 87
7, 374880, Note_on_c, 5, 51, 74
7, 374996, Note_on_c, 5, 51, 0
7, 375014, Note_on_c, 5, 63, 0
7, 375840, Note_on_c, 5, 51, 66
7, 375840, Note_on_c, 5, 63, 80
7, 375956, Note_on_c, 5, 51, 0
7, 375972, Note_on_c, 5, 63, 0
7, 376800, Note_on_c, 5, 51, 74
7, 376800, Note_on_c, 5, 63, 87
7, 376916, Note_on_c, 5, 51, 0
7, 376934, Note_on_c, 5, 63, 0
7, 377760, Note_on_c, 5, 63, 80
7, 377760, Note_on_c, 5, 51, 66
7, 377876, Note_on_c, 5, 51, 0
7, 377892, Note_on_c, 5, 63, 0
7, 378720, Note_on_c, 5, 63, 87
7, 378720, Note_on_c, 5, 51, 74
7, 378836, Note_on_c, 5, 51, 0
7, 378854, Note_on_c, 5, 63, 0
7, 379680, Note_on_c, 5, 63, 80
7, 379680, Note_on_c, 5, 51, 66
7, 379796, Note_on_c, 5, 51, 0
7, 379812, Note_on_c, 5, 63, 0
7, 380640, Note_on_c, 5, 58, 87
7, 380640, Note_on_c, 5, 46, 74
7, 380756, Note_on_c, 5, 46, 0
7, 380774, Note_on_c, 5, 58, 0
7, 381600, Note_on_c, 5, 46, 66
7, 381600, Note_on_c, 5, 58, 80
7, 381716, Note_on_c, 5, 46, 0
7, 381732, Note_on_c, 5, 58, 0
7, 382560, Note_on_c, 5, 46, 74
7, 382560, Note_on_c, 5, 58, 87
7, 382676, Note_on_c, 5, 46, 0
7, 382694, Note_on_c, 5, 58, 0
7, 383520, Note_on_c, 5, 58, 80
7, 383520, Note_on_c, 5, 46, 66
7, 383636, Note_on_c, 5, 46, 0
7, 383652, Note_on_c, 5, 58, 0
7, 384480, Note_on_c, 5, 58, 80
7, 384480, Note_on_c, 5, 65, 66
7, 384596, Note_on_c, 5, 65, 0
7, 384612, Note_on_c, 5, 58, 0
7, 385440, Note_on_c, 5, 58, 80
7, 385440, Note_on_c, 5, 65, 66
7, 385556, Note_on_c, 5, 65, 0
7, 385572, Note_on_c, 5, 58, 0
7, 385920, Note_on_c, 5, 58, 80
7, 385920, Note_on_c, 5, 65, 66
7, 386036, Note_on_c, 5, 65, 0
7, 386052, Note_on_c, 5, 58, 0
7, 386400, Note_on_c, 5, 58, 80
7, 386400, Note_on_c, 5, 65, 66
7, 386516, Note_on_c, 5, 65, 0
7, 386532, Note_on_c, 5, 58, 0
7, 386880, Note_on_c, 5, 58, 80
7, 386880, Note_on_c, 5, 65, 66
7, 386996, Note_on_c, 5, 65, 0
7, 387012, Note_on_c, 5, 58, 0
7, 387360, Note_on_c, 5, 58, 80
7, 387360, Note_on_c, 5, 65, 66
7, 387476, Note_on_c, 5, 65, 0
7, 387492, Note_on_c, 5, 58, 0
7, 387840, Note_on_c, 5, 58, 80
7, 387840, Note_on_c, 5, 65, 66
7, 389760, Note_on_c, 5, 65, 0
7, 389760, Note_on_c, 5, 58, 0
7, 391920, Note_on_c, 5, 58, 41
7, 391966, Note_on_c, 5, 58, 0
7, 392160, Note_on_c, 5, 58, 43
7, 392214, Note_on_c, 5, 58, 0
7, 392400, Note_on_c, 5, 46, 35
7, 392452, Note_on_c, 5, 46, 0
7, 392880, Note_on_c, 5, 58, 40
7, 392934, Note_on_c, 5, 58, 0
7, 393120, Note_on_c, 5, 58, 34
7, 393174, Note_on_c, 5, 58, 0
7, 393360, Note_on_c, 5, 58, 32
7, 393360, Note_on_c, 5, 65, 34
7, 393470, Note_on_c, 5, 65, 0
7, 393480, Note_on_c, 5, 67, 36
7, 393480, Note_on_c, 5, 63, 25
7, 393510, Note_on_c, 5, 58, 0
7, 393576, Note_on_c, 5, 67, 0
7, 393594, Note_on_c, 5, 63, 0
7, 393600, Note_on_c, 5, 65, 35
7, 393600, Note_on_c, 5, 68, 37
7, 393720, Note_on_c, 5, 67, 33
7, 393720, Note_on_c, 5, 63, 29
7, 393732, Note_on_c, 5, 65, 0
7, 393750, Note_on_c, 5, 68, 0
7, 393840, Note_on_c, 5, 58, 34
7, 393840, Note_on_c, 5, 65, 29
7, 393846, Note_on_c, 5, 67, 0
7, 393852, Note_on_c, 5, 63, 0
7, 393982, Note_on_c, 5, 58, 0
7, 394002, Note_on_c, 5, 65, 0
7, 394080, Note_on_c, 5, 58, 34
7, 394080, Note_on_c, 5, 65, 29
7, 394222, Note_on_c, 5, 58, 0
7, 394242, Note_on_c, 5, 65, 0
7, 410400, Note_on_c, 5, 55, 120
7, 410400, Note_on_c, 5, 62, 120
7, 410496, Note_on_c, 5, 62, 0
7, 410496, Note_on_c, 5, 55, 0
7, 410640, Note_on_c, 5, 55, 120
7, 410640, Note_on_c, 5, 62, 120
7, 410736, Note_on_c, 5, 62, 0
7, 410736, Note_on_c, 5, 55, 0
7, 410880, Note_on_c, 5, 60, 120
7, 410880, Note_on_c, 5, 64, 120
7, 411120, Note_on_c, 5, 64, 0
7, 411120, Note_on_c, 5, 60, 0
7, 411120, Note_on_c, 5, 62, 120
7, 411120, Note_on_c, 5, 65, 120
7, 411216, Note_on_c, 5, 65, 0
7, 411216, Note_on_c, 5, 62, 0
7, 411360, Note_on_c, 5, 64, 120
7, 411360, Note_on_c, 5, 67, 120
7, 411456, Note_on_c, 5, 67, 0
7, 411456, Note_on_c, 5, 64, 0
7, 411600, Note_on_c, 5, 64, 120
7, 411600, Note_on_c, 5, 67, 120
7, 411696, Note_on_c, 5, 67, 0
7, 411696, Note_on_c, 5, 64, 0
7, 411840, Note_on_c, 5, 64, 120
7, 411840, Note_on_c, 5, 67, 120
7, 412080, Note_on_c, 5, 67, 0
7, 412080, Note_on_c, 5, 64, 0
7, 412080, Note_on_c, 5, 65, 120
7, 412080, Note_on_c, 5, 62, 120
7, 412320, Note_on_c, 5, 62, 0
7, 412320, Note_on_c, 5, 65, 0
7, 412320, Note_on_c, 5, 60, 120
7, 412320, Note_on_c, 5, 64, 120
7, 412560, Note_on_c, 5, 64, 0
7, 412560, Note_on_c, 5, 60, 0
7, 412560, Note_on_c, 5, 55, 120
7, 412560, Note_on_c, 5, 62, 120
7, 412656, Note_on_c, 5, 62, 0
7, 412656, Note_on_c, 5, 55, 0
7, 412800, Note_on_c, 5, 64, 120
7, 412800, Note_on_c, 5, 60, 120
7, 413040, Note_on_c, 5, 60, 0
7, 413040, Note_on_c, 5, 64, 0
7, 413040, Note_on_c, 5, 62, 120
7, 413040, Note_on_c, 5, 65, 120
7, 413136, Note_on_c, 5, 65, 0
7, 413136, Note_on_c, 5, 62, 0
7, 413280, Note_on_c, 5, 64, 120
7, 413280, Note_on_c, 5, 67, 120
7, 413376, Note_on_c, 5, 67, 0
7, 413376, Note_on_c, 5, 64, 0
7, 413520, Note_on_c, 5, 67, 120
7, 413520, Note_on_c, 5, 64, 120
7, 413616, Note_on_c, 5, 64, 0
7, 413616, Note_on_c, 5, 67, 0
7, 413760, Note_on_c, 5, 67, 120
7, 413760, Note_on_c, 5, 64, 120
7, 414000, Note_on_c, 5, 64, 0
7, 414000, Note_on_c, 5, 67, 0
7, 414000, Note_on_c, 5, 65, 120
7, 414000, Note_on_c, 5, 62, 120
7, 414240, Note_on_c, 5, 62, 0
7, 414240, Note_on_c, 5, 65, 0
7, 414240, Note_on_c, 5, 64, 120
7, 414240, Note_on_c, 5, 60, 120
7, 414480, Note_on_c, 5, 60, 0
7, 414480, Note_on_c, 5, 64, 0
7, 414480, Note_on_c, 5, 62, 120
7, 414480, Note_on_c, 5, 55, 120
7, 414576, Note_on_c, 5, 55, 0
7, 414576, Note_on_c, 5, 62, 0
7, 414720, Note_on_c, 5, 60, 120
7, 414720, Note_on_c, 5, 64, 120
7, 414960, Note_on_c, 5, 64, 0
7, 414960, Note_on_c, 5, 60, 0
7, 414960, Note_on_c, 5, 62, 120
7, 414960, Note_on_c, 5, 65, 120
7, 415056, Note_on_c, 5, 65, 0
7, 415056, Note_on_c, 5, 62, 0
7, 415200, Note_on_c, 5, 67, 120
7, 415200, Note_on_c, 5, 64, 120
7, 415296, Note_on_c, 5, 64, 0
7, 415296, Note_on_c, 5, 67, 0
7, 415440, Note_on_c, 5, 64, 120
7, 415440, Note_on_c, 5, 67, 120
7, 415536, Note_on_c, 5, 67, 0
7, 415536, Note_on_c, 5, 64, 0
7, 415680, Note_on_c, 5, 64, 120
7, 415680, Note_on_c, 5, 67, 120
7, 415920, Note_on_c, 5, 67, 0
7, 415920, Note_on_c, 5, 64, 0
7, 415920, Note_on_c, 5, 65, 120
7, 415920, Note_on_c, 5, 62, 120
7, 416160, Note_on_c, 5, 62, 0
7, 416160, Note_on_c, 5, 65, 0
7, 416160, Note_on_c, 5, 64, 120
7, 416160, Note_on_c, 5, 60, 120
7, 416400, Note_on_c, 5, 60, 0
7, 416400, Note_on_c, 5, 64, 0
7, 416400, Note_on_c, 5, 55, 120
7, 416400, Note_on_c, 5, 62, 120
7, 416496, Note_on_c, 5, 62, 0
7, 416496, Note_on_c, 5, 55, 0
7, 416640, Note_on_c, 5, 64, 120
7, 416640, Note_on_c, 5, 60, 120
7, 417090, Note_on_c, 5, 60, 0
7, 417090, Note_on_c, 5, 64, 0
7, 417120, Note_on_c, 5, 48, 120
7, 417120, Note_on_c, 5, 60, 120
7, 418500, Note_on_c, 5, 60, 0
7, 418500, Note_on_c, 5, 48, 0
7, 418560, Note_on_c, 5, 62, 120
7, 418944, Note_on_c, 5, 62, 0
7, 420000, Note_on_c, 5, 65, 127
7, 420000, Note_on_c, 5, 58, 127
7, 420096, Note_on_c, 5, 58, 0
7, 420096, Note_on_c, 5, 65, 0
7, 420240, Note_on_c, 5, 58, 127
7, 420240, Note_on_c, 5, 65, 127
7, 420336, Note_on_c, 5, 65, 0
7, 420336, Note_on_c, 5, 58, 0
7, 420480, Note_on_c, 5, 63, 127
7, 420480, Note_on_c, 5, 67, 127
7, 420720, Note_on_c, 5, 67, 0
7, 420720, Note_on_c, 5, 63, 0
7, 420720, Note_on_c, 5, 65, 127
7, 420720, Note_on_c, 5, 68, 127
7, 420816, Note_on_c, 5, 68, 0
7, 420816, Note_on_c, 5, 65, 0
7, 420960, Note_on_c, 5, 67, 127
7, 420960, Note_on_c, 5, 70, 127
7, 421056, Note_on_c, 5, 70, 0
7, 421056, Note_on_c, 5, 67, 0
7, 421200, Note_on_c, 5, 70, 127
7, 421200, Note_on_c, 5, 67, 127
7, 421296, Note_on_c, 5, 67, 0
7, 421296, Note_on_c, 5, 70, 0
7, 421440, Note_on_c, 5, 67, 127
7, 421440, Note_on_c, 5, 70, 127
7, 421680, Note_on_c, 5, 70, 0
7, 421680, Note_on_c, 5, 67, 0
7, 421680, Note_on_c, 5, 68, 127
7, 421680, Note_on_c, 5, 65, 127
7, 421920, Note_on_c, 5, 65, 0
7, 421920, Note_on_c, 5, 68, 0
7, 421920, Note_on_c, 5, 63, 127
7, 421920, Note_on_c, 5, 67, 127
7, 422160, Note_on_c, 5, 67, 0
7, 422160, Note_on_c, 5, 63, 0
7, 422160, Note_on_c, 5, 58, 127
7, 422160, Note_on_c, 5, 65, 127
7, 422256, Note_on_c, 5, 65, 0
7, 422256, Note_on_c, 5, 58, 0
7, 422400, Note_on_c, 5, 63, 127
7, 422400, Note_on_c, 5, 67, 127
7, 422640, Note_on_c, 5, 67, 0
7, 422640, Note_on_c, 5, 63, 0
7, 422640, Note_on_c, 5, 65, 127
7, 422640, Note_on_c, 5, 68, 127
7, 422736, Note_on_c, 5, 68, 0
7, 422736, Note_on_c, 5, 65, 0
7, 422880, Note_on_c, 5, 67, 127
7, 422880, Note_on_c, 5, 70, 127
7, 422976, Note_on_c, 5, 70, 0
7, 422976, Note_on_c, 5, 67, 0
7, 423120, Note_on_c, 5, 67, 127
7, 423120, Note_on_c, 5, 70, 127
7, 423216, Note_on_c, 5, 70, 0
7, 423216, Note_on_c, 5, 67, 0
7, 423360, Note_on_c, 5, 70, 127
7, 423360, Note_on_c, 5, 67, 127
7, 423600, Note_on_c, 5, 67, 0
7, 423600, Note_on_c, 5, 70, 0
7, 423600, Note_on_c, 5, 65, 127
7, 423600, Note_on_c, 5, 68, 127
7, 423840, Note_on_c, 5, 68, 0
7, 423840, Note_on_c, 5, 65, 0
7, 423840, Note_on_c, 5, 63, 127
7, 423840, Note_on_c, 5, 67, 127
7, 424080, Note_on_c, 5, 67, 0
7, 424080, Note_on_c, 5, 63, 0
7, 424080, Note_on_c, 5, 65, 127
7, 424080, Note_on_c, 5, 58, 127
7, 424176, Note_on_c, 5, 58, 0
7, 424176, Note_on_c, 5, 65, 0
7, 424320, Note_on_c, 5, 63, 127
7, 424320, Note_on_c, 5, 67, 127
7, 424560, Note_on_c, 5, 67, 0
7, 424560, Note_on_c, 5, 63, 0
7, 424560, Note_on_c, 5, 65, 127
7, 424560, Note_on_c, 5, 68, 127
7, 424656, Note_on_c, 5, 68, 0
7, 424656, Note_on_c, 5, 65, 0
7, 424800, Note_on_c, 5, 67, 127
7, 424800, Note_on_c, 5, 70, 127
7, 424896, Note_on_c, 5, 70, 0
7, 424896, Note_on_c, 5, 67, 0
7, 425040, Note_on_c, 5, 67, 127
7, 425040, Note_on_c, 5, 70, 127
7, 425136, Note_on_c, 5, 70, 0
7, 425136, Note_on_c, 5, 67, 0
7, 425280, Note_on_c, 5, 70, 127
7, 425280, Note_on_c, 5, 67, 127
7, 425520, Note_on_c, 5, 67, 0
7, 425520, Note_on_c, 5, 70, 0
7, 425520, Note_on_c, 5, 65, 127
7, 425520, Note_on_c, 5, 68, 127
7, 425760, Note_on_c, 5, 68, 0
7, 425760, Note_on_c, 5, 65, 0
7, 425760, Note_on_c, 5, 63, 127
7, 425760, Note_on_c, 5, 67, 127
7, 426000, Note_on_c, 5, 67, 0
7, 426000, Note_on_c, 5, 63, 0
7, 426000, Note_on_c, 5, 65, 127
7, 426000, Note_on_c, 5, 58, 127
7, 426096, Note_on_c, 5, 58, 0
7, 426096, Note_on_c, 5, 65, 0
7, 426240, Note_on_c, 5, 63, 127
7, 426240, Note_on_c, 5, 67, 127
7, 426480, Note_on_c, 5, 67, 0
7, 426480, Note_on_c, 5, 63, 0
7, 426480, Note_on_c, 5, 65, 127
7, 426480, Note_on_c, 5, 68, 127
7, 426576, Note_on_c, 5, 68, 0
7, 426576, Note_on_c, 5, 65, 0
7, 426720, Note_on_c, 5, 67, 127
7, 426720, Note_on_c, 5, 70, 127
7, 426816, Note_on_c, 5, 70, 0
7, 426816, Note_on_c, 5, 67, 0
7, 426960, Note_on_c, 5, 67, 127
7, 426960, Note_on_c, 5, 70, 127
7, 427056, Note_on_c, 5, 70, 0
7, 427056, Note_on_c, 5, 67, 0
7, 427200, Note_on_c, 5, 70, 127
7, 427200, Note_on_c, 5, 67, 127
7, 427440, Note_on_c, 5, 67, 0
7, 427440, Note_on_c, 5, 70, 0
7, 427440, Note_on_c, 5, 65, 127
7, 427440, Note_on_c, 5, 68, 127
7, 427680, Note_on_c, 5, 68, 0
7, 427680, Note_on_c, 5, 65, 0
7, 427680, Note_on_c, 5, 63, 127
7, 427680, Note_on_c, 5, 67, 127
7, 427920, Note_on_c, 5, 67, 0
7, 427920, Note_on_c, 5, 63, 0
7, 427920, Note_on_c, 5, 65, 127
7, 427920, Note_on_c, 5, 58, 127
7, 428016, Note_on_c, 5, 58, 0
7, 428016, Note_on_c, 5, 65, 0
7, 428160, Note_on_c, 5, 63, 99
7, 428160, Note_on_c, 5, 67, 99
7, 428386, Note_on_c, 5, 67, 0
7, 428386, Note_on_c, 5, 63, 0
7, 429120, Note_on_c, 5, 51, 52
7, 429120, Note_on_c, 5, 63, 52
7, 429240, Note_on_c, 5, 63, 0
7, 429240, Note_on_c, 5, 51, 0
7, 429360, Note_on_c, 5, 51, 52
7, 429360, Note_on_c, 5, 63, 52
7, 429720, Note_on_c, 5, 63, 0
7, 429720, Note_on_c, 5, 51, 0
7, 429840, Note_on_c, 5, 51, 52
7, 429840, Note_on_c, 5, 63, 52
7, 429960, Note_on_c, 5, 63, 0
7, 429960, Note_on_c, 5, 51, 0
7, 430080, Note_on_c, 5, 63, 99
7, 430080, Note_on_c, 5, 51, 99
7, 430306, Note_on_c, 5, 51, 0
7, 430306, Note_on_c, 5, 63, 0
7, 431040, Note_on_c, 5, 63, 52
7, 431040, Note_on_c, 5, 51, 52
7, 431160, Note_on_c, 5, 51, 0
7, 431160, Note_on_c, 5, 63, 0
7, 431280, Note_on_c, 5, 63, 52
7, 431280, Note_on_c, 5, 51, 52
7, 431640, Note_on_c, 5, 51, 0
7, 431640, Note_on_c, 5, 63, 0
7, 431760, Note_on_c, 5, 51, 52
7, 431760, Note_on_c, 5, 63, 52
7, 431880, Note_on_c, 5, 63, 0
7, 431880, Note_on_c, 5, 51, 0
7, 432000, Note_on_c, 5, 65, 52
7, 432000, Note_on_c, 5, 63, 52
7, 432120, Note_on_c, 5, 63, 0
7, 432120, Note_on_c, 5, 65, 0
7, 432240, Note_on_c, 5, 65, 52
7, 432240, Note_on_c, 5, 63, 52
7, 432360, Note_on_c, 5, 63, 0
7, 432360, Note_on_c, 5, 65, 0
7, 432480, Note_on_c, 5, 65, 52
7, 432480, Note_on_c, 5, 63, 52
7, 432600, Note_on_c, 5, 63, 0
7, 432600, Note_on_c, 5, 65, 0
7, 432960, Note_on_c, 5, 65, 52
7, 432960, Note_on_c, 5, 63, 52
7, 433080, Note_on_c, 5, 63, 0
7, 433080, Note_on_c, 5, 65, 0
7, 433200, Note_on_c, 5, 65, 52
7, 433200, Note_on_c, 5, 63, 52
7, 433320, Note_on_c, 5, 63, 0
7, 433320, Note_on_c, 5, 65, 0
7, 433440, Note_on_c, 5, 65, 52
7, 433440, Note_on_c, 5, 63, 52
7, 433560, Note_on_c, 5, 63, 0
7, 433560, Note_on_c, 5, 65, 0
7, 433920, Note_on_c, 5, 67, 52
7, 433920, Note_on_c, 5, 63, 52
7, 434040, Note_on_c, 5, 63, 0
7, 434040, Note_on_c, 5, 67, 0
7, 434160, Note_on_c, 5, 67, 52
7, 434160, Note_on_c, 5, 63, 52
7, 434280, Note_on_c, 5, 63, 0
7, 434280, Note_on_c, 5, 67, 0
7, 434400, Note_on_c, 5, 67, 52
7, 434400, Note_on_c, 5, 63, 52
7, 434520, Note_on_c, 5, 63, 0
7, 434520, Note_on_c, 5, 67, 0
7, 434880, Note_on_c, 5, 65, 52
7, 434880, Note_on_c, 5, 58, 52
7, 435000, Note_on_c, 5, 58, 0
7, 435000, Note_on_c, 5, 65, 0
7, 435120, Note_on_c, 5, 58, 52
7, 435120, Note_on_c, 5, 65, 52
7, 435240, Note_on_c, 5, 65, 0
7, 435240, Note_on_c, 5, 58, 0
7, 435360, Note_on_c, 5, 58, 52
7, 435360, Note_on_c, 5, 65, 52
7, 435480, Note_on_c, 5, 65, 0
7, 435480, Note_on_c, 5, 58, 0
7, 435840, Note_on_c, 5, 67, 99
7, 435840, Note_on_c, 5, 63, 99
7, 436066, Note_on_c, 5, 63, 0
7, 436066, Note_on_c, 5, 67, 0
7, 436800, Note_on_c, 5, 51, 52
7, 436800, Note_on_c, 5, 63, 52
7, 436920, Note_on_c, 5, 63, 0
7, 436920, Note_on_c, 5, 51, 0
7, 437040, Note_on_c, 5, 51, 52
7, 437040, Note_on_c, 5, 63, 52
7, 437400, Note_on_c, 5, 63, 0
7, 437400, Note_on_c, 5, 51, 0
7, 437520, Note_on_c, 5, 51, 52
7, 437520, Note_on_c, 5, 63, 52
7, 437640, Note_on_c, 5, 63, 0
7, 437640, Note_on_c, 5, 51, 0
7, 437760, Note_on_c, 5, 63, 99
7, 437760, Note_on_c, 5, 51, 99
7, 437986, Note_on_c, 5, 51, 0
7, 437986, Note_on_c, 5, 63, 0
7, 438720, Note_on_c, 5, 63, 52
7, 438720, Note_on_c, 5, 51, 52
7, 438840, Note_on_c, 5, 51, 0
7, 438840, Note_on_c, 5, 63, 0
7, 438960, Note_on_c, 5, 63, 52
7, 438960, Note_on_c, 5, 51, 52
7, 439320, Note_on_c, 5, 51, 0
7, 439320, Note_on_c, 5, 63, 0
7, 439440, Note_on_c, 5, 51, 52
7, 439440, Note_on_c, 5, 63, 52
7, 439560, Note_on_c, 5, 63, 0
7, 439560, Note_on_c, 5, 51, 0
7, 439680, Note_on_c, 5, 65, 52
7, 439680, Note_on_c, 5, 63, 52
7, 439800, Note_on_c, 5, 63, 0
7, 439800, Note_on_c, 5, 65, 0
7, 439920, Note_on_c, 5, 65, 52
7, 439920, Note_on_c, 5, 63, 52
7, 440040, Note_on_c, 5, 63, 0
7, 440040, Note_on_c, 5, 65, 0
7, 440160, Note_on_c, 5, 65, 52
7, 440160, Note_on_c, 5, 63, 52
7, 440280, Note_on_c, 5, 63, 0
7, 440280, Note_on_c, 5, 65, 0
7, 440640, Note_on_c, 5, 65, 52
7, 440640, Note_on_c, 5, 63, 52
7, 440760, Note_on_c, 5, 63, 0
7, 440760, Note_on_c, 5, 65, 0
7, 440880, Note_on_c, 5, 65, 52
7, 440880, Note_on_c, 5, 63, 52
7, 441000, Note_on_c, 5, 63, 0
7, 441000, Note_on_c, 5, 65, 0
7, 441120, Note_on_c, 5, 65, 52
7, 441120, Note_on_c, 5, 63, 52
7, 441240, Note_on_c, 5, 63, 0
7, 441240, Note_on_c, 5, 65, 0
7, 441600, Note_on_c, 5, 67, 52
7, 441600, Note_on_c, 5, 63, 52
7, 441720, Note_on_c, 5, 63, 0
7, 441720, Note_on_c, 5, 67, 0
7, 441840, Note_on_c, 5, 67, 52
7, 441840, Note_on_c, 5, 63, 52
7, 441960, Note_on_c, 5, 63, 0
7, 441960, Note_on_c, 5, 67, 0
7, 442080, Note_on_c, 5, 67, 52
7, 442080, Note_on_c, 5, 63, 52
7, 442200, Note_on_c, 5, 63, 0
7, 442200, Note_on_c, 5, 67, 0
7, 442560, Note_on_c, 5, 65, 52
7, 442560, Note_on_c, 5, 58, 52
7, 442680, Note_on_c, 5, 58, 0
7, 442680, Note_on_c, 5, 65, 0
7, 442800, Note_on_c, 5, 58, 52
7, 442800, Note_on_c, 5, 65, 52
7, 442920, Note_on_c, 5, 65, 0
7, 442920, Note_on_c, 5, 58, 0
7, 443040, Note_on_c, 5, 58, 52
7, 443040, Note_on_c, 5, 65, 52
7, 443160, Note_on_c, 5, 65, 0
7, 443160, Note_on_c, 5, 58, 0
7, 443520, Note_on_c, 5, 63, 80
7, 443520, Note_on_c, 5, 67, 80
7, 446400, Note_on_c, 5, 67, 0
7, 446400, Note_on_c, 5, 63, 0
7, 446400, Note_on_c, 5, 68, 100
7, 446400, Note_on_c, 5, 65, 80
7, 446880, Note_on_c, 5, 65, 0
7, 446880, Note_on_c, 5, 68, 0
7, 446880, Note_on_c, 5, 65, 80
7, 446880, Note_on_c, 5, 58, 80
7, 447360, Note_on_c, 5, 58, 0
7, 447360, Note_on_c, 5, 65, 0
7, 447360, Note_on_c, 5, 63, 80
7, 447360, Note_on_c, 5, 67, 80
7, 450240, Note_on_c, 5, 67, 0
7, 450240, Note_on_c, 5, 63, 0
7, 450240, Note_on_c, 5, 68, 100
7, 450240, Note_on_c, 5, 65, 80
7, 450720, Note_on_c, 5, 65, 0
7, 450720, Note_on_c, 5, 68, 0
7, 450720, Note_on_c, 5, 58, 80
7, 450720, Note_on_c, 5, 65, 80
7, 451200, Note_on_c, 5, 65, 0
7, 451200, Note_on_c, 5, 58, 0
7, 451200, Note_on_c, 5, 63, 80
7, 451200, Note_on_c, 5, 67, 80
7, 454080, Note_on_c, 5, 67, 0
7, 454080, Note_on_c, 5, 63, 0
7, 454080, Note_on_c, 5, 68, 100
7, 454080, Note_on_c, 5, 65, 80
7, 454560, Note_on_c, 5, 65, 0
7, 454560, Note_on_c, 5, 68, 0
7, 454560, Note_on_c, 5, 58, 80
7, 454560, Note_on_c, 5, 65, 80
7, 455040, Note_on_c, 5, 65, 0
7, 455040, Note_on_c, 5, 58, 0
7, 455040, Note_on_c, 5, 63, 80
7, 455040, Note_on_c, 5, 67, 80
7, 457920, Note_on_c, 5, 67, 0
7, 457920, Note_on_c, 5, 63, 0
7, 457920, Note_on_c, 5, 68, 100
7, 457920, Note_on_c, 5, 65, 80
7, 458400, Note_on_c, 5, 65, 0
7, 458400, Note_on_c, 5, 68, 0
7, 458400, Note_on_c, 5, 58, 80
7, 458400, Note_on_c, 5, 65, 80
7, 458880, Note_on_c, 5, 65, 0
7, 458880, Note_on_c, 5, 58, 0
7, 458880, Note_on_c, 5, 63, 80
7, 458880, Note_on_c, 5, 55, 80
7, 459264, Note_on_c, 5, 55, 0
7, 459264, Note_on_c, 5, 63, 0
7, 460800, Note_on_c, 5, 51, 80
7, 460992, Note_on_c, 5, 51, 0
7, 461280, Note_on_c, 5, 55, 80
7, 461472, Note_on_c, 5, 55, 0
7, 461760, Note_on_c, 5, 58, 80
7, 461952, Note_on_c, 5, 58, 0
7, 462240, Note_on_c, 5, 63, 80
7, 462432, Note_on_c, 5, 63, 0
7, 462720, Note_on_c, 5, 67, 96
7, 462912, Note_on_c, 5, 67, 0
7, 463200, Note_on_c, 5, 63, 96
7, 463392, Note_on_c, 5, 63, 0
7, 463680, Note_on_c, 5, 58, 96
7, 463872, Note_on_c, 5, 58, 0
7, 464160, Note_on_c, 5, 55, 96
7, 464352, Note_on_c, 5, 55, 0
7, 464640, Note_on_c, 5, 51, 96
7, 464832, Note_on_c, 5, 51, 0
7, 465120, Note_on_c, 5, 55, 96
7, 465312, Note_on_c, 5, 55, 0
7, 465600, Note_on_c, 5, 58, 96
7, 465792, Note_on_c, 5, 58, 0
7, 466080, Note_on_c, 5, 63, 96
7, 466272, Note_on_c, 5, 63, 0
7, 466560, Note_on_c, 5, 67, 115
7, 466752, Note_on_c, 5, 67, 0
7, 467040, Note_on_c, 5, 63, 115
7, 467232, Note_on_c, 5, 63, 0
7, 467520, Note_on_c, 5, 58, 115
7, 467712, Note_on_c, 5, 58, 0
7, 468000, Note_on_c, 5, 55, 115
7, 468192, Note_on_c, 5, 55, 0
7, 468480, Note_on_c, 5, 51, 115
7, 468672, Note_on_c, 5, 51, 0
7, 468960, Note_on_c, 5, 55, 115
7, 469152, Note_on_c, 5, 55, 0
7, 469440, Note_on_c, 5, 58, 115
7, 469632, Note_on_c, 5, 58, 0
7, 469920, Note_on_c, 5, 63, 115
7, 470112, Note_on_c, 5, 63, 0
7, 470400, Note_on_c, 5, 55, 127
7, 470592, Note_on_c, 5, 55, 0
7, 470880, Note_on_c, 5, 58, 127
7, 471072, Note_on_c, 5, 58, 0
7, 471360, Note_on_c, 5, 63, 127
7, 471552, Note_on_c, 5, 63, 0
7, 471840, Note_on_c, 5, 67, 127
7, 472032, Note_on_c, 5, 67, 0
7, 472320, Note_on_c, 5, 51, 127
7, 472320, Note_on_c, 5, 63, 127
7, 472512, Note_on_c, 5, 63, 0
7, 472512, Note_on_c, 5, 51, 0
7, 472800, Note_on_c, 5, 70, 127
7, 472800, Note_on_c, 5, 58, 127
7, 472992, Note_on_c, 5, 58, 0
7, 472992, Note_on_c, 5, 70, 0
7, 473280, Note_on_c, 5, 67, 127
7, 473280, Note_on_c, 5, 55, 127
7, 473472, Note_on_c, 5, 55, 0
7, 473472, Note_on_c, 5, 67, 0
7, 473760, Note_on_c, 5, 51, 127
7, 473760, Note_on_c, 5, 63, 127
7, 473952, Note_on_c, 5, 63, 0
7, 473952, Note_on_c, 5, 51, 0
7, 474240, Note_on_c, 5, 58, 80
7, 474240, Note_on_c, 5, 65, 80
7, 474336, Note_on_c, 5, 65, 0
7, 474336, Note_on_c, 5, 58, 0
7, 474480, Note_on_c, 5, 65, 80
7, 474480, Note_on_c, 5, 58, 80
7, 474864, Note_on_c, 5, 58, 0
7, 474864, Note_on_c, 5, 65, 0
7, 474960, Note_on_c, 5, 65, 80
7, 474960, Note_on_c, 5, 58, 80
7, 475056, Note_on_c, 5, 58, 0
7, 475056, Note_on_c, 5, 65, 0
7, 475200, Note_on_c, 5, 65, 80
7, 475200, Note_on_c, 5, 58, 80
7, 475968, Note_on_c, 5, 58, 0
7, 475968, Note_on_c, 5, 65, 0
7, 476400, Note_on_c, 5, 51, 64
7, 476400, Note_on_c, 5, 63, 64
7, 476496, Note_on_c, 5, 63, 0
7, 476496, Note_on_c, 5, 51, 0
7, 476640, Note_on_c, 5, 51, 64
7, 476640, Note_on_c, 5, 63, 64
7, 477024, Note_on_c, 5, 63, 0
7, 477024, Note_on_c, 5, 51, 0
7, 477120, Note_on_c, 5, 51, 64
7, 477120, Note_on_c, 5, 63, 64
7, 477216, Note_on_c, 5, 63, 0
7, 477216, Note_on_c, 5, 51, 0
7, 477360, Note_on_c, 5, 51, 64
7, 477360, Note_on_c, 5, 63, 64
7, 478128, Note_on_c, 5, 63, 0
7, 478128, Note_on_c, 5, 51, 0
7, 478320, Note_on_c, 5, 65, 80
7, 478320, Note_on_c, 5, 58, 80
7, 478416, Note_on_c, 5, 58, 0
7, 478416, Note_on_c, 5, 65, 0
7, 478560, Note_on_c, 5, 65, 80
7, 478560, Note_on_c, 5, 58, 80
7, 478944, Note_on_c, 5, 58, 0
7, 478944, Note_on_c, 5, 65, 0
7, 479040, Note_on_c, 5, 58, 80
7, 479040, Note_on_c, 5, 65, 80
7, 479136, Note_on_c, 5, 65, 0
7, 479136, Note_on_c, 5, 58, 0
7, 479280, Note_on_c, 5, 58, 80
7, 479280, Note_on_c, 5, 65, 80
7, 480048, Note_on_c, 5, 65, 0
7, 480048, Note_on_c, 5, 58, 0
7, 480480, Note_on_c, 5, 51, 64
7, 480480, Note_on_c, 5, 63, 64
7, 480576, Note_on_c, 5, 63, 0
7, 480576, Note_on_c, 5, 51, 0
7, 480720, Note_on_c, 5, 51, 64
7, 480720, Note_on_c, 5, 63, 64
7, 481104, Note_on_c, 5, 63, 0
7, 481104, Note_on_c, 5, 51, 0
7, 481200, Note_on_c, 5, 51, 64
7, 481200, Note_on_c, 5, 63, 64
7, 481296, Note_on_c, 5, 63, 0
7, 481296, Note_on_c, 5, 51, 0
7, 481440, Note_on_c, 5, 51, 64
7, 481440, Note_on_c, 5, 63, 64
7, 482208, Note_on_c, 5, 63, 0
7, 482208, Note_on_c, 5, 51, 0
7, 482400, Note_on_c, 5, 65, 120
7, 482400, Note_on_c, 5, 58, 80
7, 482508, Note_on_c, 5, 58, 0
7, 482508, Note_on_c, 5, 65, 0
7, 482640, Note_on_c, 5, 65, 80
7, 482640, Note_on_c, 5, 58, 80
7, 482748, Note_on_c, 5, 58, 0
7, 482748, Note_on_c, 5, 65, 0
7, 482880, Note_on_c, 5, 65, 80
7, 482880, Note_on_c, 5, 58, 80
7, 482988, Note_on_c, 5, 58, 0
7, 482988, Note_on_c, 5, 65, 0
7, 483120, Note_on_c, 5, 58, 80
7, 483120, Note_on_c, 5, 65, 80
7, 483228, Note_on_c, 5, 65, 0
7, 483228, Note_on_c, 5, 58, 0
7, 483360, Note_on_c, 5, 58, 80
7, 483360, Note_on_c, 5, 65, 120
7, 483468, Note_on_c, 5, 65, 0
7, 483468, Note_on_c, 5, 58, 0
7, 483600, Note_on_c, 5, 65, 80
7, 483600, Note_on_c, 5, 58, 80
7, 483708, Note_on_c, 5, 58, 0
7, 483708, Note_on_c, 5, 65, 0
7, 483840, Note_on_c, 5, 65, 80
7, 483840, Note_on_c, 5, 58, 80
7, 483948, Note_on_c, 5, 58, 0
7, 483948, Note_on_c, 5, 65, 0
7, 484080, Note_on_c, 5, 65, 80
7, 484080, Note_on_c, 5, 58, 80
7, 484188, Note_on_c, 5, 58, 0
7, 484188, Note_on_c, 5, 65, 0
7, 484320, Note_on_c, 5, 58, 80
7, 484320, Note_on_c, 5, 65, 120
7, 484428, Note_on_c, 5, 65, 0
7, 484428, Note_on_c, 5, 58, 0
7, 484560, Note_on_c, 5, 65, 80
7, 484560, Note_on_c, 5, 58, 80
7, 484668, Note_on_c, 5, 58, 0
7, 484668, Note_on_c, 5, 65, 0
7, 484800, Note_on_c, 5, 65, 80
7, 484800, Note_on_c, 5, 58, 80
7, 484908, Note_on_c, 5, 58, 0
7, 484908, Note_on_c, 5, 65, 0
7, 485040, Note_on_c, 5, 65, 80
7, 485040, Note_on_c, 5, 58, 80
7, 485148, Note_on_c, 5, 58, 0
7, 485148, Note_on_c, 5, 65, 0
7, 485280, Note_on_c, 5, 58, 80
7, 485280, Note_on_c, 5, 65, 120
7, 485388, Note_on_c, 5, 65, 0
7, 485388, Note_on_c, 5, 58, 0
7, 485520, Note_on_c, 5, 65, 80
7, 485520, Note_on_c, 5, 58, 80
7, 485628, Note_on_c, 5, 58, 0
7, 485628, Note_on_c, 5, 65, 0
7, 485760, Note_on_c, 5, 65, 80
7, 485760, Note_on_c, 5, 58, 80
7, 485868, Note_on_c, 5, 58, 0
7, 485868, Note_on_c, 5, 65, 0
7, 486000, Note_on_c, 5, 65, 80
7, 486000, Note_on_c, 5, 58, 80
7, 486108, Note_on_c, 5, 58, 0
7, 486108, Note_on_c, 5, 65, 0
7, 486240, Note_on_c, 5, 63, 127
7, 486240, Note_on_c, 5, 55, 127
7, 486384, Note_on_c, 5, 55, 0
7, 486384, Note_on_c, 5, 63, 0
7, 486720, Note_on_c, 5, 55, 127
7, 486720, Note_on_c, 5, 63, 127
7, 486864, Note_on_c, 5, 63, 0
7, 486864, Note_on_c, 5, 55, 0
7, 487200, Note_on_c, 5, 63, 127
7, 487200, Note_on_c, 5, 55, 127
7, 487344, Note_on_c, 5, 55, 0
7, 487344, Note_on_c, 5, 63, 0
7, 487680, Note_on_c, 5, 63, 127
7, 487680, Note_on_c, 5, 55, 127
7, 487824, Note_on_c, 5, 55, 0
7, 487824, Note_on_c, 5, 63, 0
7, 488160, Note_on_c, 5, 55, 127
7, 488160, Note_on_c, 5, 63, 127
7, 488304, Note_on_c, 5, 63, 0
7, 488304, Note_on_c, 5, 55, 0
7, 488640, Note_on_c, 5, 63, 127
7, 488640, Note_on_c, 5, 55, 127
7, 488784, Note_on_c, 5, 55, 0
7, 488784, Note_on_c, 5, 63, 0
7, 489120, Note_on_c, 5, 55, 127
7, 489120, Note_on_c, 5, 63, 127
7, 489264, Note_on_c, 5, 63, 0
7, 489264, Note_on_c, 5, 55, 0
7, 489600, Note_on_c, 5, 63, 127
7, 489600, Note_on_c, 5, 55, 127
7, 489744, Note_on_c, 5, 55, 0
7, 489744, Note_on_c, 5, 63, 0
7, 490080, Note_on_c, 5, 63, 127
7, 490080, Note_on_c, 5, 55, 127
7, 490224, Note_on_c, 5, 55, 0
7, 490224, Note_on_c, 5, 63, 0
7, 492000, Note_on_c, 5, 63, 127
7, 492000, Note_on_c, 5, 55, 127
7, 492144, Note_on_c, 5, 55, 0
7, 492144, Note_on_c, 5, 63, 0
7, 493920, Note_on_c, 5, 63, 127
7, 493920, Note_on_c, 5, 55, 127
7, 494064, Note_on_c, 5, 55, 0
7, 494064, Note_on_c, 5, 63, 0
7, 495000, Note_on_c, 5, 63, 127
7, 495000, Note_on_c, 5, 55, 127
7, 495144, Note_on_c, 5, 55, 0
7, 495144, Note_on_c, 5, 63, 0
7, 496080, Note_on_c, 5, 63, 127
7, 496080, Note_on_c, 5, 55, 127
7, 496224, Note_on_c, 5, 55, 0
7, 496224, Note_on_c, 5, 63, 0
7, 497160, Note_on_c, 5, 55, 127
7, 497160, Note_on_c, 5, 63, 127
7, 497304, Note_on_c, 5, 63, 0
7, 497304, Note_on_c, 5, 55, 0
7, 498360, Note_on_c, 5, 55, 127
7, 498360, Note_on_c, 5, 63, 127
7, 498504, Note_on_c, 5, 63, 0
7, 498504, Note_on_c, 5, 55, 0
7, 498504, End_track
8, 0, Start_track
8, 0, Title_t, "Horns in C"
8, 0, Program_c, 5, 60
8, 0, Control_c, 5, 7, 90
8, 0, Control_c, 5, 10, 20
8, 2880, Control_c, 5, 91, 100
8, 8640, Control_c, 5, 10, 20
8, 11520, Note_on_c, 5, 60, 63
8, 11520, Note_on_c, 5, 48, 60
8, 13204, Note_on_c, 5, 48, 0
8, 13204, Note_on_c, 5, 60, 0
8, 23992, Control_c, 5, 7, 123
8, 24000, Note_on_c, 5, 60, 56
8, 24000, Note_on_c, 5, 48, 56
8, 24032, Control_c, 5, 7, 124
8, 24100, Control_c, 5, 7, 119
8, 24124, Control_c, 5, 7, 117
8, 24152, Control_c, 5, 7, 115
8, 24180, Control_c, 5, 7, 114
8, 24260, Control_c, 5, 7, 109
8, 24284, Control_c, 5, 7, 108
8, 24404, Control_c, 5, 7, 107
8, 24472, Control_c, 5, 7, 108
8, 24484, Control_c, 5, 7, 107
8, 24500, Control_c, 5, 7, 106
8, 24540, Control_c, 5, 7, 107
8, 24552, Control_c, 5, 7, 106
8, 24660, Control_c, 5, 7, 107
8, 24712, Control_c, 5, 7, 106
8, 24724, Control_c, 5, 7, 105
8, 24764, Control_c, 5, 7, 106
8, 24884, Control_c, 5, 7, 107
8, 24952, Control_c, 5, 7, 108
8, 24964, Control_c, 5, 7, 107
8, 24992, Control_c, 5, 7, 106
8, 25084, Control_c, 5, 7, 105
8, 25152, Control_c, 5, 7, 103
8, 25232, Control_c, 5, 7, 98
8, 25300, Control_c, 5, 7, 96
8, 25312, Control_c, 5, 7, 95
8, 25324, Control_c, 5, 7, 94
8, 25340, Control_c, 5, 7, 93
8, 25404, Control_c, 5, 7, 88
8, 25420, Control_c, 5, 7, 87
8, 25500, Control_c, 5, 7, 82
8, 25512, Control_c, 5, 7, 80
8, 25540, Control_c, 5, 7, 74
8, 25604, Control_c, 5, 7, 73
8, 25620, Control_c, 5, 7, 70
8, 25632, Control_c, 5, 7, 68
8, 25644, Control_c, 5, 7, 66
8, 25660, Control_c, 5, 7, 57
8, 25700, Control_c, 5, 7, 55
8, 25710, Note_on_c, 5, 48, 0
8, 25710, Note_on_c, 5, 60, 0
8, 25724, Control_c, 5, 7, 54
8, 25752, Control_c, 5, 7, 49
8, 25872, Control_c, 5, 7, 44
8, 25940, Control_c, 5, 7, 43
8, 25952, Control_c, 5, 7, 38
8, 26032, Control_c, 5, 7, 36
8, 26112, Control_c, 5, 7, 35
8, 26180, Control_c, 5, 7, 30
8, 26204, Control_c, 5, 7, 24
8, 26284, Control_c, 5, 7, 19
8, 26352, Control_c, 5, 7, 17
8, 26380, Control_c, 5, 7, 12
8, 26392, Control_c, 5, 7, 13
8, 26404, Control_c, 5, 7, 12
8, 26420, Control_c, 5, 7, 9
8, 26484, Control_c, 5, 7, 10
8, 26564, Control_c, 5, 7, 15
8, 26620, Control_c, 5, 7, 16
8, 26632, Control_c, 5, 7, 21
8, 26752, Control_c, 5, 7, 26
8, 26764, Control_c, 5, 7, 27
8, 26780, Control_c, 5, 7, 28
8, 26792, Control_c, 5, 7, 38
8, 26804, Control_c, 5, 7, 46
8, 26820, Control_c, 5, 7, 44
8, 26872, Control_c, 5, 7, 52
8, 26884, Control_c, 5, 7, 58
8, 26952, Control_c, 5, 7, 71
8, 26964, Control_c, 5, 7, 77
8, 27032, Control_c, 5, 7, 81
8, 27044, Control_c, 5, 7, 87
8, 27084, Control_c, 5, 7, 97
8, 27100, Control_c, 5, 7, 104
8, 27112, Control_c, 5, 7, 102
8, 27840, Note_on_c, 5, 74, 64
8, 29520, Note_on_c, 5, 74, 0
8, 34320, Note_on_c, 5, 70, 37
8, 34374, Note_on_c, 5, 70, 0
8, 34560, Note_on_c, 5, 70, 37
8, 34612, Note_on_c, 5, 70, 0
8, 34800, Note_on_c, 5, 58, 32
8, 34862, Note_on_c, 5, 58, 0
8, 35280, Note_on_c, 5, 70, 37
8, 35332, Note_on_c, 5, 70, 0
8, 35520, Note_on_c, 5, 70, 40
8, 35564, Note_on_c, 5, 70, 0
8, 35760, Note_on_c, 5, 58, 32
8, 35814, Note_on_c, 5, 58, 0
8, 43920, Control_c, 5, 7, 40
8, 45840, Note_on_c, 5, 55, 49
8, 45840, Note_on_c, 5, 67, 50
8, 45894, Note_on_c, 5, 55, 0
8, 45902, Note_on_c, 5, 67, 0
8, 46080, Control_c, 5, 7, 90
8, 46080, Note_on_c, 5, 67, 63
8, 46080, Note_on_c, 5, 55, 61
8, 46352, Note_on_c, 5, 55, 0
8, 46366, Note_on_c, 5, 67, 0
8, 46560, Note_on_c, 5, 67, 63
8, 46560, Note_on_c, 5, 55, 60
8, 46652, Note_on_c, 5, 55, 0
8, 46662, Note_on_c, 5, 67, 0
8, 46800, Note_on_c, 5, 55, 68
8, 46800, Note_on_c, 5, 67, 65
8, 47522, Note_on_c, 5, 55, 0
8, 47534, Note_on_c, 5, 67, 0
8, 47760, Note_on_c, 5, 55, 65
8, 47760, Note_on_c, 5, 67, 68
8, 47830, Note_on_c, 5, 55, 0
8, 47844, Note_on_c, 5, 67, 0
8, 48000, Note_on_c, 5, 67, 71
8, 48000, Note_on_c, 5, 55, 73
8, 48274, Note_on_c, 5, 55, 0
8, 48290, Note_on_c, 5, 67, 0
8, 48480, Note_on_c, 5, 67, 65
8, 48480, Note_on_c, 5, 55, 65
8, 48572, Note_on_c, 5, 55, 0
8, 48582, Note_on_c, 5, 67, 0
8, 48720, Note_on_c, 5, 55, 65
8, 48720, Note_on_c, 5, 67, 68
8, 49452, Note_on_c, 5, 55, 0
8, 49454, Note_on_c, 5, 67, 0
8, 49680, Note_on_c, 5, 55, 68
8, 49680, Note_on_c, 5, 67, 64
8, 49966, Note_on_c, 5, 55, 0
8, 49972, Note_on_c, 5, 67, 0
8, 50160, Note_on_c, 5, 55, 54
8, 50160, Note_on_c, 5, 67, 66
8, 50244, Note_on_c, 5, 67, 0
8, 50244, Note_on_c, 5, 55, 0
8, 50400, Note_on_c, 5, 67, 66
8, 50400, Note_on_c, 5, 55, 66
8, 50484, Note_on_c, 5, 55, 0
8, 50484, Note_on_c, 5, 67, 0
8, 50640, Note_on_c, 5, 60, 69
8, 51090, Note_on_c, 5, 60, 0
8, 51120, Note_on_c, 5, 60, 66
8, 51204, Note_on_c, 5, 60, 0
8, 51360, Note_on_c, 5, 60, 65
8, 51444, Note_on_c, 5, 60, 0
8, 51600, Note_on_c, 5, 62, 47
8, 51600, Note_on_c, 5, 65, 62
8, 52050, Note_on_c, 5, 65, 0
8, 52050, Note_on_c, 5, 62, 0
8, 52080, Note_on_c, 5, 65, 66
8, 52080, Note_on_c, 5, 62, 64
8, 52164, Note_on_c, 5, 62, 0
8, 52164, Note_on_c, 5, 65, 0
8, 52320, Note_on_c, 5, 65, 68
8, 52320, Note_on_c, 5, 62, 60
8, 52404, Note_on_c, 5, 62, 0
8, 52404, Note_on_c, 5, 65, 0
8, 52560, Note_on_c, 5, 55, 57
8, 52560, Note_on_c, 5, 67, 66
8, 52694, Note_on_c, 5, 55, 0
8, 52700, Note_on_c, 5, 67, 0
8, 85200, Note_on_c, 5, 55, 95
8, 85200, Note_on_c, 5, 67, 92
8, 85274, Note_on_c, 5, 55, 0
8, 85284, Note_on_c, 5, 67, 0
8, 85440, Note_on_c, 5, 55, 102
8, 85440, Note_on_c, 5, 67, 95
8, 85684, Note_on_c, 5, 55, 0
8, 85696, Note_on_c, 5, 67, 0
8, 85920, Note_on_c, 5, 67, 90
8, 85920, Note_on_c, 5, 55, 83
8, 86002, Note_on_c, 5, 67, 0
8, 86006, Note_on_c, 5, 55, 0
8, 86160, Note_on_c, 5, 67, 100
8, 86160, Note_on_c, 5, 55, 94
8, 86922, Note_on_c, 5, 67, 0
8, 86924, Note_on_c, 5, 55, 0
8, 87120, Note_on_c, 5, 55, 92
8, 87120, Note_on_c, 5, 67, 94
8, 87200, Note_on_c, 5, 55, 0
8, 87202, Note_on_c, 5, 67, 0
8, 87360, Note_on_c, 5, 67, 97
8, 87360, Note_on_c, 5, 55, 94
8, 87630, Note_on_c, 5, 55, 0
8, 87640, Note_on_c, 5, 67, 0
8, 87840, Note_on_c, 5, 55, 81
8, 87840, Note_on_c, 5, 67, 92
8, 87930, Note_on_c, 5, 67, 0
8, 87930, Note_on_c, 5, 55, 0
8, 88080, Note_on_c, 5, 67, 102
8, 88080, Note_on_c, 5, 55, 98
8, 88816, Note_on_c, 5, 67, 0
8, 88826, Note_on_c, 5, 55, 0
8, 89040, Note_on_c, 5, 55, 106
8, 89040, Note_on_c, 5, 67, 106
8, 89354, Note_on_c, 5, 67, 0
8, 89360, Note_on_c, 5, 55, 0
8, 89520, Note_on_c, 5, 67, 73
8, 89520, Note_on_c, 5, 55, 66
8, 89590, Note_on_c, 5, 67, 0
8, 89602, Note_on_c, 5, 55, 0
8, 89760, Note_on_c, 5, 67, 80
8, 89760, Note_on_c, 5, 55, 73
8, 89844, Note_on_c, 5, 55, 0
8, 89850, Note_on_c, 5, 67, 0
8, 90000, Note_on_c, 5, 60, 112
8, 90264, Note_on_c, 5, 60, 0
8, 90480, Note_on_c, 5, 60, 94
8, 90572, Note_on_c, 5, 60, 0
8, 90720, Note_on_c, 5, 60, 92
8, 90816, Note_on_c, 5, 60, 0
8, 90960, Note_on_c, 5, 62, 112
8, 91224, Note_on_c, 5, 62, 0
8, 91440, Note_on_c, 5, 62, 94
8, 91532, Note_on_c, 5, 62, 0
8, 91680, Note_on_c, 5, 62, 92
8, 91776, Note_on_c, 5, 62, 0
8, 91920, Note_on_c, 5, 67, 90
8, 91920, Note_on_c, 5, 55, 86
8, 92006, Note_on_c, 5, 55, 0
8, 92010, Note_on_c, 5, 67, 0
8, 92880, Note_on_c, 5, 55, 106
8, 92880, Note_on_c, 5, 67, 108
8, 93142, Note_on_c, 5, 55, 0
8, 93150, Note_on_c, 5, 67, 0
8, 93360, Note_on_c, 5, 67, 76
8, 93360, Note_on_c, 5, 55, 78
8, 93442, Note_on_c, 5, 67, 0
8, 93444, Note_on_c, 5, 55, 0
8, 93600, Note_on_c, 5, 67, 91
8, 93600, Note_on_c, 5, 55, 83
8, 93686, Note_on_c, 5, 55, 0
8, 93694, Note_on_c, 5, 67, 0
8, 93840, Note_on_c, 5, 60, 100
8, 94290, Note_on_c, 5, 60, 0
8, 94320, Note_on_c, 5, 60, 95
8, 94546, Note_on_c, 5, 60, 0
8, 94560, Note_on_c, 5, 60, 95
8, 94786, Note_on_c, 5, 60, 0
8, 94800, Note_on_c, 5, 62, 104
8, 95250, Note_on_c, 5, 62, 0
8, 95280, Note_on_c, 5, 62, 91
8, 95506, Note_on_c, 5, 62, 0
8, 95520, Note_on_c, 5, 62, 88
8, 95746, Note_on_c, 5, 62, 0
8, 95760, Note_on_c, 5, 55, 81
8, 95760, Note_on_c, 5, 67, 92
8, 95940, Note_on_c, 5, 67, 0
8, 95940, Note_on_c, 5, 55, 0
8, 99600, Note_on_c, 5, 65, 91
8, 99864, Note_on_c, 5, 65, 0
8, 103440, Note_on_c, 5, 67, 108
8, 103716, Note_on_c, 5, 67, 0
8, 105360, Note_on_c, 5, 48, 104
8, 105360, Note_on_c, 5, 60, 100
8, 105656, Note_on_c, 5, 48, 0
8, 105670, Note_on_c, 5, 60, 0
8, 144720, Note_on_c, 5, 62, 106
8, 145506, Note_on_c, 5, 62, 0
8, 145680, Note_on_c, 5, 67, 40
8, 145680, Note_on_c, 5, 55, 40
8, 147408, Note_on_c, 5, 55, 0
8, 147408, Note_on_c, 5, 67, 0
8, 147600, Note_on_c, 5, 62, 39
8, 147984, Note_on_c, 5, 62, 0
8, 148080, Note_on_c, 5, 62, 39
8, 149904, Note_on_c, 5, 62, 0
8, 150000, Note_on_c, 5, 62, 39
8, 151824, Note_on_c, 5, 62, 0
8, 151920, Note_on_c, 5, 62, 39
8, 153744, Note_on_c, 5, 62, 0
8, 161520, Note_on_c, 5, 65, 94
8, 161760, Note_on_c, 5, 65, 0
8, 162480, Note_on_c, 5, 65, 94
8, 162720, Note_on_c, 5, 65, 0
8, 163440, Note_on_c, 5, 65, 94
8, 163680, Note_on_c, 5, 65, 0
8, 164400, Note_on_c, 5, 65, 94
8, 164640, Note_on_c, 5, 65, 0
8, 165360, Note_on_c, 5, 67, 94
8, 165600, Note_on_c, 5, 67, 0
8, 166320, Note_on_c, 5, 67, 94
8, 166560, Note_on_c, 5, 67, 0
8, 167280, Note_on_c, 5, 67, 94
8, 167520, Note_on_c, 5, 67, 0
8, 168240, Note_on_c, 5, 67, 94
8, 168480, Note_on_c, 5, 67, 0
8, 168720, Note_on_c, 5, 62, 94
8, 168960, Note_on_c, 5, 62, 0
8, 169200, Note_on_c, 5, 62, 94
8, 169440, Note_on_c, 5, 62, 0
8, 169680, Note_on_c, 5, 62, 94
8, 169920, Note_on_c, 5, 62, 0
8, 170160, Note_on_c, 5, 62, 94
8, 170400, Note_on_c, 5, 62, 0
8, 170640, Note_on_c, 5, 62, 94
8, 170880, Note_on_c, 5, 62, 0
8, 171120, Note_on_c, 5, 62, 94
8, 171360, Note_on_c, 5, 62, 0
8, 171600, Note_on_c, 5, 60, 94
8, 171840, Note_on_c, 5, 60, 0
8, 172080, Note_on_c, 5, 60, 94
8, 172320, Note_on_c, 5, 60, 0
8, 173040, Note_on_c, 5, 65, 94
8, 173280, Note_on_c, 5, 65, 0
8, 174000, Note_on_c, 5, 65, 94
8, 174240, Note_on_c, 5, 65, 0
8, 174960, Note_on_c, 5, 65, 94
8, 175200, Note_on_c, 5, 65, 0
8, 175920, Note_on_c, 5, 65, 94
8, 176160, Note_on_c, 5, 65, 0
8, 176880, Note_on_c, 5, 67, 94
8, 177120, Note_on_c, 5, 67, 0
8, 177840, Note_on_c, 5, 67, 94
8, 178080, Note_on_c, 5, 67, 0
8, 178800, Note_on_c, 5, 67, 94
8, 179040, Note_on_c, 5, 67, 0
8, 179760, Note_on_c, 5, 67, 94
8, 180000, Note_on_c, 5, 67, 0
8, 180720, Note_on_c, 5, 65, 94
8, 180960, Note_on_c, 5, 65, 0
8, 181680, Note_on_c, 5, 65, 94
8, 181920, Note_on_c, 5, 65, 0
8, 182640, Note_on_c, 5, 65, 94
8, 182880, Note_on_c, 5, 65, 0
8, 183600, Note_on_c, 5, 65, 94
8, 183840, Note_on_c, 5, 65, 0
8, 184080, Note_on_c, 5, 65, 94
8, 184320, Note_on_c, 5, 65, 0
8, 184560, Note_on_c, 5, 65, 94
8, 185280, Note_on_c, 5, 65, 0
8, 185520, Note_on_c, 5, 65, 94
8, 186240, Note_on_c, 5, 65, 0
8, 186480, Note_on_c, 5, 65, 94
8, 187200, Note_on_c, 5, 65, 0
8, 187440, Note_on_c, 5, 65, 94
8, 188160, Note_on_c, 5, 65, 0
8, 188400, Note_on_c, 5, 65, 94
8, 189120, Note_on_c, 5, 65, 0
8, 189360, Note_on_c, 5, 65, 94
8, 190080, Note_on_c, 5, 65, 0
8, 190320, Note_on_c, 5, 65, 94
8, 191040, Note_on_c, 5, 65, 0
8, 191280, Note_on_c, 5, 65, 94
8, 191520, Note_on_c, 5, 65, 0
8, 203984, Control_c, 5, 7, 104
8, 204000, Note_on_c, 5, 67, 71
8, 204000, Note_on_c, 5, 55, 71
8, 204024, Control_c, 5, 7, 103
8, 204064, Control_c, 5, 7, 102
8, 204104, Control_c, 5, 7, 101
8, 204144, Control_c, 5, 7, 100
8, 204184, Control_c, 5, 7, 99
8, 204212, Control_c, 5, 7, 98
8, 204252, Control_c, 5, 7, 97
8, 204292, Control_c, 5, 7, 96
8, 204332, Control_c, 5, 7, 95
8, 204372, Control_c, 5, 7, 94
8, 204400, Control_c, 5, 7, 93
8, 204440, Control_c, 5, 7, 92
8, 204480, Control_c, 5, 7, 91
8, 204520, Control_c, 5, 7, 90
8, 204560, Control_c, 5, 7, 89
8, 204584, Control_c, 5, 7, 88
8, 204624, Control_c, 5, 7, 87
8, 204664, Control_c, 5, 7, 86
8, 204704, Control_c, 5, 7, 85
8, 204744, Control_c, 5, 7, 84
8, 204772, Control_c, 5, 7, 83
8, 204812, Control_c, 5, 7, 82
8, 204852, Control_c, 5, 7, 81
8, 204892, Control_c, 5, 7, 80
8, 204932, Control_c, 5, 7, 79
8, 204960, Control_c, 5, 7, 78
8, 205000, Control_c, 5, 7, 77
8, 205040, Control_c, 5, 7, 76
8, 205080, Control_c, 5, 7, 75
8, 205120, Control_c, 5, 7, 74
8, 205160, Control_c, 5, 7, 73
8, 205184, Control_c, 5, 7, 72
8, 205224, Control_c, 5, 7, 71
8, 205264, Control_c, 5, 7, 70
8, 205304, Control_c, 5, 7, 69
8, 205344, Control_c, 5, 7, 68
8, 205372, Control_c, 5, 7, 67
8, 205412, Control_c, 5, 7, 66
8, 205452, Control_c, 5, 7, 65
8, 205492, Control_c, 5, 7, 64
8, 205532, Control_c, 5, 7, 63
8, 205560, Control_c, 5, 7, 62
8, 205600, Control_c, 5, 7, 61
8, 205640, Control_c, 5, 7, 60
8, 205680, Control_c, 5, 7, 59
8, 205720, Control_c, 5, 7, 58
8, 205744, Control_c, 5, 7, 57
8, 205784, Control_c, 5, 7, 56
8, 205824, Control_c, 5, 7, 55
8, 205864, Control_c, 5, 7, 54
8, 205904, Control_c, 5, 7, 53
8, 205932, Control_c, 5, 7, 52
8, 205972, Control_c, 5, 7, 51
8, 206012, Control_c, 5, 7, 50
8, 206052, Control_c, 5, 7, 49
8, 206092, Control_c, 5, 7, 48
8, 206132, Control_c, 5, 7, 47
8, 206160, Control_c, 5, 7, 46
8, 206200, Control_c, 5, 7, 45
8, 206240, Control_c, 5, 7, 44
8, 206280, Control_c, 5, 7, 43
8, 206320, Control_c, 5, 7, 42
8, 206344, Control_c, 5, 7, 41
8, 206384, Control_c, 5, 7, 40
8, 206424, Control_c, 5, 7, 39
8, 206464, Control_c, 5, 7, 38
8, 206504, Control_c, 5, 7, 37
8, 206532, Control_c, 5, 7, 36
8, 206572, Control_c, 5, 7, 35
8, 206612, Control_c, 5, 7, 34
8, 206652, Control_c, 5, 7, 33
8, 206692, Control_c, 5, 7, 32
8, 206720, Control_c, 5, 7, 31
8, 206760, Control_c, 5, 7, 30
8, 206800, Control_c, 5, 7, 29
8, 206840, Control_c, 5, 7, 28
8, 206880, Control_c, 5, 7, 27
8, 206904, Control_c, 5, 7, 26
8, 206944, Control_c, 5, 7, 25
8, 206984, Control_c, 5, 7, 24
8, 207024, Control_c, 5, 7, 23
8, 207064, Control_c, 5, 7, 22
8, 207104, Control_c, 5, 7, 21
8, 207132, Control_c, 5, 7, 20
8, 207172, Control_c, 5, 7, 19
8, 207212, Control_c, 5, 7, 18
8, 207252, Control_c, 5, 7, 17
8, 207292, Control_c, 5, 7, 16
8, 207320, Control_c, 5, 7, 15
8, 207360, Control_c, 5, 7, 14
8, 207400, Control_c, 5, 7, 13
8, 207440, Control_c, 5, 7, 12
8, 207480, Control_c, 5, 7, 11
8, 207504, Control_c, 5, 7, 10
8, 207544, Control_c, 5, 7, 9
8, 207584, Control_c, 5, 7, 8
8, 207624, Control_c, 5, 7, 7
8, 207664, Control_c, 5, 7, 6
8, 207692, Control_c, 5, 7, 5
8, 207732, Control_c, 5, 7, 4
8, 207772, Control_c, 5, 7, 3
8, 207780, Note_on_c, 5, 55, 0
8, 207780, Note_on_c, 5, 67, 0
8, 207812, Control_c, 5, 7, 2
8, 207852, Control_c, 5, 7, 1
8, 207880, Control_c, 5, 7, 0
8, 207892, Control_c, 5, 7, 18
8, 207904, Control_c, 5, 7, 39
8, 207920, Control_c, 5, 7, 60
8, 207932, Control_c, 5, 7, 81
8, 207944, Control_c, 5, 7, 103
8, 214320, Note_on_c, 5, 62, 41
8, 214366, Note_on_c, 5, 62, 0
8, 214560, Note_on_c, 5, 62, 43
8, 214614, Note_on_c, 5, 62, 0
8, 214800, Note_on_c, 5, 62, 35
8, 214852, Note_on_c, 5, 62, 0
8, 215280, Note_on_c, 5, 62, 40
8, 215334, Note_on_c, 5, 62, 0
8, 215520, Note_on_c, 5, 62, 42
8, 215574, Note_on_c, 5, 62, 0
8, 215760, Note_on_c, 5, 62, 34
8, 215814, Note_on_c, 5, 62, 0
8, 216240, Note_on_c, 5, 62, 40
8, 216294, Note_on_c, 5, 62, 0
8, 216480, Note_on_c, 5, 62, 42
8, 216540, Note_on_c, 5, 62, 0
8, 216720, Note_on_c, 5, 62, 31
8, 216772, Note_on_c, 5, 62, 0
8, 217200, Note_on_c, 5, 62, 34
8, 217246, Note_on_c, 5, 62, 0
8, 217440, Note_on_c, 5, 62, 28
8, 217484, Note_on_c, 5, 62, 0
8, 217680, Note_on_c, 5, 62, 28
8, 217724, Note_on_c, 5, 62, 0
8, 218160, Note_on_c, 5, 62, 40
8, 218214, Note_on_c, 5, 62, 0
8, 218400, Note_on_c, 5, 62, 42
8, 218460, Note_on_c, 5, 62, 0
8, 218640, Note_on_c, 5, 62, 31
8, 218692, Note_on_c, 5, 62, 0
8, 219120, Note_on_c, 5, 62, 43
8, 219166, Note_on_c, 5, 62, 0
8, 219360, Note_on_c, 5, 62, 44
8, 219404, Note_on_c, 5, 62, 0
8, 219600, Note_on_c, 5, 62, 55
8, 219644, Note_on_c, 5, 62, 0
8, 233040, Note_on_c, 5, 67, 106
8, 233040, Note_on_c, 5, 55, 106
8, 233088, Note_on_c, 5, 55, 0
8, 233088, Note_on_c, 5, 67, 0
8, 233160, Note_on_c, 5, 55, 109
8, 233160, Note_on_c, 5, 67, 109
8, 233208, Note_on_c, 5, 67, 0
8, 233208, Note_on_c, 5, 55, 0
8, 233280, Note_on_c, 5, 65, 122
8, 233280, Note_on_c, 5, 58, 122
8, 233328, Note_on_c, 5, 58, 0
8, 233328, Note_on_c, 5, 65, 0
8, 233400, Note_on_c, 5, 62, 125
8, 233400, Note_on_c, 5, 65, 125
8, 233448, Note_on_c, 5, 65, 0
8, 233448, Note_on_c, 5, 62, 0
8, 233520, Note_on_c, 5, 65, 127
8, 233520, Note_on_c, 5, 62, 127
8, 233568, Note_on_c, 5, 62, 0
8, 233568, Note_on_c, 5, 65, 0
8, 233640, Note_on_c, 5, 65, 127
8, 233640, Note_on_c, 5, 62, 127
8, 233688, Note_on_c, 5, 62, 0
8, 233688, Note_on_c, 5, 65, 0
8, 233760, Note_on_c, 5, 65, 122
8, 233760, Note_on_c, 5, 62, 122
8, 233808, Note_on_c, 5, 62, 0
8, 233808, Note_on_c, 5, 65, 0
8, 233880, Note_on_c, 5, 65, 127
8, 233880, Note_on_c, 5, 62, 127
8, 233928, Note_on_c, 5, 62, 0
8, 233928, Note_on_c, 5, 65, 0
8, 234000, Note_on_c, 5, 62, 127
8, 234000, Note_on_c, 5, 65, 127
8, 234048, Note_on_c, 5, 65, 0
8, 234048, Note_on_c, 5, 62, 0
8, 234120, Note_on_c, 5, 62, 127
8, 234120, Note_on_c, 5, 65, 127
8, 234168, Note_on_c, 5, 65, 0
8, 234168, Note_on_c, 5, 62, 0
8, 234240, Note_on_c, 5, 62, 104
8, 234240, Note_on_c, 5, 66, 104
8, 234288, Note_on_c, 5, 66, 0
8, 234288, Note_on_c, 5, 62, 0
8, 234360, Note_on_c, 5, 62, 113
8, 234360, Note_on_c, 5, 66, 113
8, 234408, Note_on_c, 5, 66, 0
8, 234408, Note_on_c, 5, 62, 0
8, 234480, Note_on_c, 5, 66, 116
8, 234480, Note_on_c, 5, 62, 116
8, 234528, Note_on_c, 5, 62, 0
8, 234528, Note_on_c, 5, 66, 0
8, 234600, Note_on_c, 5, 62, 123
8, 234600, Note_on_c, 5, 66, 123
8, 234648, Note_on_c, 5, 66, 0
8, 234648, Note_on_c, 5, 62, 0
8, 234720, Note_on_c, 5, 66, 127
8, 234720, Note_on_c, 5, 62, 127
8, 234768, Note_on_c, 5, 62, 0
8, 234768, Note_on_c, 5, 66, 0
8, 234840, Note_on_c, 5, 62, 127
8, 234840, Note_on_c, 5, 66, 127
8, 234888, Note_on_c, 5, 66, 0
8, 234888, Note_on_c, 5, 62, 0
8, 234960, Note_on_c, 5, 62, 116
8, 234960, Note_on_c, 5, 66, 116
8, 235008, Note_on_c, 5, 66, 0
8, 235008, Note_on_c, 5, 62, 0
8, 235080, Note_on_c, 5, 62, 123
8, 235080, Note_on_c, 5, 66, 123
8, 235128, Note_on_c, 5, 66, 0
8, 235128, Note_on_c, 5, 62, 0
8, 238080, Note_on_c, 5, 55, 49
8, 238080, Note_on_c, 5, 67, 50
8, 238134, Note_on_c, 5, 55, 0
8, 238142, Note_on_c, 5, 67, 0
8, 238320, Control_c, 5, 7, 90
8, 238320, Note_on_c, 5, 67, 63
8, 238320, Note_on_c, 5, 55, 61
8, 238592, Note_on_c, 5, 55, 0
8, 238606, Note_on_c, 5, 67, 0
8, 238800, Note_on_c, 5, 67, 63
8, 238800, Note_on_c, 5, 55, 60
8, 238892, Note_on_c, 5, 55, 0
8, 238902, Note_on_c, 5, 67, 0
8, 239040, Note_on_c, 5, 55, 68
8, 239040, Note_on_c, 5, 67, 65
8, 239762, Note_on_c, 5, 55, 0
8, 239774, Note_on_c, 5, 67, 0
8, 240000, Note_on_c, 5, 55, 65
8, 240000, Note_on_c, 5, 67, 68
8, 240070, Note_on_c, 5, 55, 0
8, 240084, Note_on_c, 5, 67, 0
8, 240240, Note_on_c, 5, 67, 71
8, 240240, Note_on_c, 5, 55, 73
8, 240514, Note_on_c, 5, 55, 0
8, 240530, Note_on_c, 5, 67, 0
8, 240720, Note_on_c, 5, 67, 65
8, 240720, Note_on_c, 5, 55, 65
8, 240812, Note_on_c, 5, 55, 0
8, 240822, Note_on_c, 5, 67, 0
8, 240960, Note_on_c, 5, 55, 65
8, 240960, Note_on_c, 5, 67, 68
8, 241692, Note_on_c, 5, 55, 0
8, 241694, Note_on_c, 5, 67, 0
8, 241920, Note_on_c, 5, 55, 68
8, 241920, Note_on_c, 5, 67, 64
8, 242206, Note_on_c, 5, 55, 0
8, 242212, Note_on_c, 5, 67, 0
8, 242400, Note_on_c, 5, 55, 54
8, 242400, Note_on_c, 5, 67, 66
8, 242484, Note_on_c, 5, 67, 0
8, 242484, Note_on_c, 5, 55, 0
8, 242640, Note_on_c, 5, 67, 66
8, 242640, Note_on_c, 5, 55, 66
8, 242724, Note_on_c, 5, 55, 0
8, 242724, Note_on_c, 5, 67, 0
8, 242880, Note_on_c, 5, 60, 69
8, 243330, Note_on_c, 5, 60, 0
8, 243360, Note_on_c, 5, 60, 66
8, 243444, Note_on_c, 5, 60, 0
8, 243600, Note_on_c, 5, 60, 65
8, 243684, Note_on_c, 5, 60, 0
8, 243840, Note_on_c, 5, 62, 47
8, 243840, Note_on_c, 5, 65, 62
8, 244290, Note_on_c, 5, 65, 0
8, 244290, Note_on_c, 5, 62, 0
8, 244320, Note_on_c, 5, 65, 66
8, 244320, Note_on_c, 5, 62, 64
8, 244404, Note_on_c, 5, 62, 0
8, 244404, Note_on_c, 5, 65, 0
8, 244560, Note_on_c, 5, 65, 68
8, 244560, Note_on_c, 5, 62, 60
8, 244644, Note_on_c, 5, 62, 0
8, 244644, Note_on_c, 5, 65, 0
8, 244800, Note_on_c, 5, 55, 57
8, 244800, Note_on_c, 5, 67, 66
8, 244934, Note_on_c, 5, 55, 0
8, 244940, Note_on_c, 5, 67, 0
8, 277440, Note_on_c, 5, 55, 95
8, 277440, Note_on_c, 5, 67, 92
8, 277514, Note_on_c, 5, 55, 0
8, 277524, Note_on_c, 5, 67, 0
8, 277680, Note_on_c, 5, 55, 102
8, 277680, Note_on_c, 5, 67, 95
8, 277924, Note_on_c, 5, 55, 0
8, 277936, Note_on_c, 5, 67, 0
8, 278160, Note_on_c, 5, 67, 90
8, 278160, Note_on_c, 5, 55, 83
8, 278242, Note_on_c, 5, 67, 0
8, 278246, Note_on_c, 5, 55, 0
8, 278400, Note_on_c, 5, 67, 100
8, 278400, Note_on_c, 5, 55, 94
8, 279162, Note_on_c, 5, 67, 0
8, 279164, Note_on_c, 5, 55, 0
8, 279360, Note_on_c, 5, 55, 92
8, 279360, Note_on_c, 5, 67, 94
8, 279440, Note_on_c, 5, 55, 0
8, 279442, Note_on_c, 5, 67, 0
8, 279600, Note_on_c, 5, 67, 97
8, 279600, Note_on_c, 5, 55, 94
8, 279870, Note_on_c, 5, 55, 0
8, 279880, Note_on_c, 5, 67, 0
8, 280080, Note_on_c, 5, 55, 81
8, 280080, Note_on_c, 5, 67, 92
8, 280170, Note_on_c, 5, 67, 0
8, 280170, Note_on_c, 5, 55, 0
8, 280320, Note_on_c, 5, 67, 102
8, 280320, Note_on_c, 5, 55, 98
8, 281056, Note_on_c, 5, 67, 0
8, 281066, Note_on_c, 5, 55, 0
8, 281280, Note_on_c, 5, 55, 106
8, 281280, Note_on_c, 5, 67, 106
8, 281594, Note_on_c, 5, 67, 0
8, 281600, Note_on_c, 5, 55, 0
8, 281760, Note_on_c, 5, 67, 73
8, 281760, Note_on_c, 5, 55, 66
8, 281830, Note_on_c, 5, 67, 0
8, 281842, Note_on_c, 5, 55, 0
8, 282000, Note_on_c, 5, 67, 80
8, 282000, Note_on_c, 5, 55, 73
8, 282084, Note_on_c, 5, 55, 0
8, 282090, Note_on_c, 5, 67, 0
8, 282240, Note_on_c, 5, 60, 112
8, 282504, Note_on_c, 5, 60, 0
8, 282720, Note_on_c, 5, 60, 94
8, 282812, Note_on_c, 5, 60, 0
8, 282960, Note_on_c, 5, 60, 92
8, 283056, Note_on_c, 5, 60, 0
8, 283200, Note_on_c, 5, 62, 112
8, 283464, Note_on_c, 5, 62, 0
8, 283680, Note_on_c, 5, 62, 94
8, 283772, Note_on_c, 5, 62, 0
8, 283920, Note_on_c, 5, 62, 92
8, 284016, Note_on_c, 5, 62, 0
8, 284160, Note_on_c, 5, 67, 90
8, 284160, Note_on_c, 5, 55, 86
8, 284246, Note_on_c, 5, 55, 0
8, 284250, Note_on_c, 5, 67, 0
8, 285120, Note_on_c, 5, 55, 106
8, 285120, Note_on_c, 5, 67, 108
8, 285382, Note_on_c, 5, 55, 0
8, 285390, Note_on_c, 5, 67, 0
8, 285600, Note_on_c, 5, 67, 76
8, 285600, Note_on_c, 5, 55, 78
8, 285682, Note_on_c, 5, 67, 0
8, 285684, Note_on_c, 5, 55, 0
8, 285840, Note_on_c, 5, 67, 91
8, 285840, Note_on_c, 5, 55, 83
8, 285926, Note_on_c, 5, 55, 0
8, 285934, Note_on_c, 5, 67, 0
8, 286080, Note_on_c, 5, 60, 100
8, 286530, Note_on_c, 5, 60, 0
8, 286560, Note_on_c, 5, 60, 95
8, 286786, Note_on_c, 5, 60, 0
8, 286800, Note_on_c, 5, 60, 95
8, 287026, Note_on_c, 5, 60, 0
8, 287040, Note_on_c, 5, 62, 104
8, 287490, Note_on_c, 5, 62, 0
8, 287520, Note_on_c, 5, 62, 91
8, 287746, Note_on_c, 5, 62, 0
8, 287760, Note_on_c, 5, 62, 88
8, 287986, Note_on_c, 5, 62, 0
8, 288000, Note_on_c, 5, 55, 81
8, 288000, Note_on_c, 5, 67, 92
8, 288180, Note_on_c, 5, 67, 0
8, 288180, Note_on_c, 5, 55, 0
8, 291840, Note_on_c, 5, 65, 91
8, 292104, Note_on_c, 5, 65, 0
8, 295680, Note_on_c, 5, 67, 108
8, 295956, Note_on_c, 5, 67, 0
8, 297600, Note_on_c, 5, 48, 104
8, 297600, Note_on_c, 5, 60, 100
8, 297896, Note_on_c, 5, 48, 0
8, 297910, Note_on_c, 5, 60, 0
8, 336960, Note_on_c, 5, 55, 106
8, 337746, Note_on_c, 5, 55, 0
8, 337920, Note_on_c, 5, 48, 40
8, 337920, Note_on_c, 5, 60, 40
8, 339648, Note_on_c, 5, 60, 0
8, 339648, Note_on_c, 5, 48, 0
8, 339840, Note_on_c, 5, 67, 39
8, 339840, Note_on_c, 5, 55, 39
8, 340224, Note_on_c, 5, 55, 0
8, 340224, Note_on_c, 5, 67, 0
8, 340320, Note_on_c, 5, 55, 39
8, 340320, Note_on_c, 5, 67, 39
8, 342144, Note_on_c, 5, 67, 0
8, 342144, Note_on_c, 5, 55, 0
8, 342240, Note_on_c, 5, 55, 39
8, 342240, Note_on_c, 5, 67, 39
8, 343488, Note_on_c, 5, 67, 0
8, 344064, Note_on_c, 5, 55, 0
8, 344160, Note_on_c, 5, 55, 39
8, 345984, Note_on_c, 5, 55, 0
8, 353760, Note_on_c, 5, 55, 74
8, 353760, Note_on_c, 5, 67, 94
8, 354000, Note_on_c, 5, 67, 0
8, 354000, Note_on_c, 5, 55, 0
8, 354720, Note_on_c, 5, 55, 74
8, 354720, Note_on_c, 5, 67, 94
8, 354960, Note_on_c, 5, 67, 0
8, 354960, Note_on_c, 5, 55, 0
8, 355680, Note_on_c, 5, 67, 94
8, 355680, Note_on_c, 5, 55, 74
8, 355920, Note_on_c, 5, 55, 0
8, 355920, Note_on_c, 5, 67, 0
8, 356640, Note_on_c, 5, 67, 94
8, 356640, Note_on_c, 5, 55, 74
8, 356880, Note_on_c, 5, 55, 0
8, 356880, Note_on_c, 5, 67, 0
8, 357600, Note_on_c, 5, 60, 94
8, 357600, Note_on_c, 5, 48, 74
8, 357840, Note_on_c, 5, 48, 0
8, 357840, Note_on_c, 5, 60, 0
8, 358560, Note_on_c, 5, 60, 94
8, 358560, Note_on_c, 5, 48, 74
8, 358800, Note_on_c, 5, 48, 0
8, 358800, Note_on_c, 5, 60, 0
8, 359520, Note_on_c, 5, 60, 94
8, 359520, Note_on_c, 5, 48, 74
8, 359760, Note_on_c, 5, 48, 0
8, 359760, Note_on_c, 5, 60, 0
8, 360480, Note_on_c, 5, 60, 94
8, 360480, Note_on_c, 5, 48, 74
8, 360720, Note_on_c, 5, 48, 0
8, 360720, Note_on_c, 5, 60, 0
8, 360960, Note_on_c, 5, 55, 94
8, 361200, Note_on_c, 5, 55, 0
8, 365280, Note_on_c, 5, 55, 74
8, 365280, Note_on_c, 5, 67, 94
8, 365520, Note_on_c, 5, 67, 0
8, 365520, Note_on_c, 5, 55, 0
8, 366240, Note_on_c, 5, 55, 74
8, 366240, Note_on_c, 5, 67, 94
8, 366480, Note_on_c, 5, 67, 0
8, 366480, Note_on_c, 5, 55, 0
8, 367200, Note_on_c, 5, 55, 74
8, 367200, Note_on_c, 5, 67, 94
8, 367440, Note_on_c, 5, 67, 0
8, 367440, Note_on_c, 5, 55, 0
8, 368160, Note_on_c, 5, 67, 94
8, 368160, Note_on_c, 5, 55, 74
8, 368400, Note_on_c, 5, 55, 0
8, 368400, Note_on_c, 5, 67, 0
8, 369120, Note_on_c, 5, 60, 94
8, 369360, Note_on_c, 5, 60, 0
8, 370080, Note_on_c, 5, 60, 94
8, 370320, Note_on_c, 5, 60, 0
8, 371040, Note_on_c, 5, 60, 94
8, 371280, Note_on_c, 5, 60, 0
8, 372000, Note_on_c, 5, 60, 94
8, 372240, Note_on_c, 5, 60, 0
8, 376800, Note_on_c, 5, 60, 87
8, 376800, Note_on_c, 5, 48, 74
8, 376916, Note_on_c, 5, 48, 0
8, 376934, Note_on_c, 5, 60, 0
8, 377760, Note_on_c, 5, 48, 66
8, 377760, Note_on_c, 5, 60, 80
8, 377876, Note_on_c, 5, 48, 0
8, 377892, Note_on_c, 5, 60, 0
8, 378720, Note_on_c, 5, 60, 87
8, 378720, Note_on_c, 5, 48, 74
8, 378836, Note_on_c, 5, 48, 0
8, 378854, Note_on_c, 5, 60, 0
8, 379680, Note_on_c, 5, 48, 66
8, 379680, Note_on_c, 5, 60, 80
8, 379796, Note_on_c, 5, 48, 0
8, 379812, Note_on_c, 5, 60, 0
8, 380640, Note_on_c, 5, 65, 87
8, 380640, Note_on_c, 5, 53, 74
8, 380756, Note_on_c, 5, 53, 0
8, 380774, Note_on_c, 5, 65, 0
8, 381600, Note_on_c, 5, 53, 66
8, 381600, Note_on_c, 5, 65, 80
8, 381716, Note_on_c, 5, 53, 0
8, 381732, Note_on_c, 5, 65, 0
8, 382560, Note_on_c, 5, 65, 87
8, 382560, Note_on_c, 5, 53, 74
8, 382676, Note_on_c, 5, 53, 0
8, 382694, Note_on_c, 5, 65, 0
8, 383520, Note_on_c, 5, 65, 80
8, 383520, Note_on_c, 5, 53, 66
8, 383636, Note_on_c, 5, 53, 0
8, 383652, Note_on_c, 5, 65, 0
8, 384480, Note_on_c, 5, 50, 66
8, 384480, Note_on_c, 5, 62, 80
8, 384596, Note_on_c, 5, 50, 0
8, 384612, Note_on_c, 5, 62, 0
8, 385440, Note_on_c, 5, 50, 66
8, 385440, Note_on_c, 5, 62, 80
8, 385556, Note_on_c, 5, 50, 0
8, 385572, Note_on_c, 5, 62, 0
8, 385920, Note_on_c, 5, 50, 66
8, 385920, Note_on_c, 5, 62, 80
8, 386036, Note_on_c, 5, 50, 0
8, 386052, Note_on_c, 5, 62, 0
8, 386400, Note_on_c, 5, 62, 80
8, 386400, Note_on_c, 5, 50, 66
8, 386516, Note_on_c, 5, 50, 0
8, 386532, Note_on_c, 5, 62, 0
8, 386880, Note_on_c, 5, 62, 80
8, 386880, Note_on_c, 5, 50, 66
8, 386996, Note_on_c, 5, 50, 0
8, 387012, Note_on_c, 5, 62, 0
8, 387360, Note_on_c, 5, 62, 80
8, 387360, Note_on_c, 5, 50, 66
8, 387476, Note_on_c, 5, 50, 0
8, 387492, Note_on_c, 5, 62, 0
8, 387840, Note_on_c, 5, 50, 66
8, 387840, Note_on_c, 5, 62, 80
8, 389760, Note_on_c, 5, 62, 0
8, 389760, Note_on_c, 5, 50, 0
8, 406080, Note_on_c, 5, 65, 75
8, 406848, Note_on_c, 5, 65, 0
8, 407040, Note_on_c, 5, 60, 75
8, 407424, Note_on_c, 5, 60, 0
8, 407520, Note_on_c, 5, 60, 75
8, 407904, Note_on_c, 5, 60, 0
8, 408000, Note_on_c, 5, 55, 75
8, 408000, Note_on_c, 5, 67, 75
8, 410370, Note_on_c, 5, 67, 0
8, 410370, Note_on_c, 5, 55, 0
8, 417120, Note_on_c, 5, 51, 120
8, 417120, Note_on_c, 5, 63, 120
8, 418500, Note_on_c, 5, 63, 0
8, 418500, Note_on_c, 5, 51, 0
8, 418560, Note_on_c, 5, 58, 120
8, 418560, Note_on_c, 5, 46, 120
8, 419970, Note_on_c, 5, 46, 0
8, 419970, Note_on_c, 5, 58, 0
8, 431040, Note_on_c, 5, 60, 52
8, 431040, Note_on_c, 5, 48, 52
8, 431160, Note_on_c, 5, 48, 0
8, 431160, Note_on_c, 5, 60, 0
8, 431280, Note_on_c, 5, 48, 52
8, 431280, Note_on_c, 5, 60, 52
8, 431640, Note_on_c, 5, 60, 0
8, 431640, Note_on_c, 5, 48, 0
8, 431760, Note_on_c, 5, 48, 52
8, 431760, Note_on_c, 5, 60, 52
8, 431880, Note_on_c, 5, 60, 0
8, 431880, Note_on_c, 5, 48, 0
8, 432000, Note_on_c, 5, 60, 52
8, 432120, Note_on_c, 5, 60, 0
8, 432240, Note_on_c, 5, 60, 52
8, 432360, Note_on_c, 5, 60, 0
8, 432480, Note_on_c, 5, 60, 52
8, 432600, Note_on_c, 5, 60, 0
8, 432960, Note_on_c, 5, 60, 52
8, 433080, Note_on_c, 5, 60, 0
8, 433200, Note_on_c, 5, 60, 52
8, 433320, Note_on_c, 5, 60, 0
8, 433440, Note_on_c, 5, 60, 52
8, 433560, Note_on_c, 5, 60, 0
8, 433920, Note_on_c, 5, 67, 52
8, 434040, Note_on_c, 5, 67, 0
8, 434160, Note_on_c, 5, 67, 52
8, 434280, Note_on_c, 5, 67, 0
8, 434400, Note_on_c, 5, 67, 52
8, 434520, Note_on_c, 5, 67, 0
8, 434880, Note_on_c, 5, 62, 52
8, 435000, Note_on_c, 5, 62, 0
8, 435120, Note_on_c, 5, 62, 52
8, 435240, Note_on_c, 5, 62, 0
8, 435360, Note_on_c, 5, 62, 52
8, 435480, Note_on_c, 5, 62, 0
8, 438720, Note_on_c, 5, 48, 52
8, 438720, Note_on_c, 5, 60, 52
8, 438840, Note_on_c, 5, 60, 0
8, 438840, Note_on_c, 5, 48, 0
8, 438960, Note_on_c, 5, 48, 52
8, 438960, Note_on_c, 5, 60, 52
8, 439320, Note_on_c, 5, 60, 0
8, 439320, Note_on_c, 5, 48, 0
8, 439440, Note_on_c, 5, 48, 52
8, 439440, Note_on_c, 5, 60, 52
8, 439560, Note_on_c, 5, 60, 0
8, 439560, Note_on_c, 5, 48, 0
8, 439680, Note_on_c, 5, 60, 52
8, 439800, Note_on_c, 5, 60, 0
8, 439920, Note_on_c, 5, 60, 52
8, 440040, Note_on_c, 5, 60, 0
8, 440160, Note_on_c, 5, 60, 52
8, 440280, Note_on_c, 5, 60, 0
8, 440640, Note_on_c, 5, 60, 52
8, 440760, Note_on_c, 5, 60, 0
8, 440880, Note_on_c, 5, 60, 52
8, 441000, Note_on_c, 5, 60, 0
8, 441120, Note_on_c, 5, 60, 52
8, 441240, Note_on_c, 5, 60, 0
8, 441600, Note_on_c, 5, 67, 52
8, 441720, Note_on_c, 5, 67, 0
8, 441840, Note_on_c, 5, 67, 52
8, 441960, Note_on_c, 5, 67, 0
8, 442080, Note_on_c, 5, 67, 52
8, 442200, Note_on_c, 5, 67, 0
8, 442560, Note_on_c, 5, 62, 52
8, 442680, Note_on_c, 5, 62, 0
8, 442800, Note_on_c, 5, 62, 52
8, 442920, Note_on_c, 5, 62, 0
8, 443040, Note_on_c, 5, 62, 52
8, 443160, Note_on_c, 5, 62, 0
8, 472800, Note_on_c, 5, 67, 127
8, 472992, Note_on_c, 5, 67, 0
8, 473280, Note_on_c, 5, 67, 127
8, 473472, Note_on_c, 5, 67, 0
8, 473760, Note_on_c, 5, 67, 127
8, 473952, Note_on_c, 5, 67, 0
8, 474240, Note_on_c, 5, 62, 80
8, 474336, Note_on_c, 5, 62, 0
8, 474480, Note_on_c, 5, 62, 80
8, 474864, Note_on_c, 5, 62, 0
8, 474960, Note_on_c, 5, 62, 80
8, 475056, Note_on_c, 5, 62, 0
8, 475200, Note_on_c, 5, 62, 80
8, 475968, Note_on_c, 5, 62, 0
8, 478320, Note_on_c, 5, 62, 80
8, 478416, Note_on_c, 5, 62, 0
8, 478560, Note_on_c, 5, 62, 80
8, 478944, Note_on_c, 5, 62, 0
8, 479040, Note_on_c, 5, 62, 80
8, 479136, Note_on_c, 5, 62, 0
8, 479280, Note_on_c, 5, 62, 80
8, 480048, Note_on_c, 5, 62, 0
8, 482400, Note_on_c, 5, 62, 120
8, 482508, Note_on_c, 5, 62, 0
8, 482640, Note_on_c, 5, 62, 80
8, 482748, Note_on_c, 5, 62, 0
8, 482880, Note_on_c, 5, 62, 80
8, 482988, Note_on_c, 5, 62, 0
8, 483120, Note_on_c, 5, 62, 80
8, 483228, Note_on_c, 5, 62, 0
8, 483360, Note_on_c, 5, 62, 120
8, 483468, Note_on_c, 5, 62, 0
8, 483600, Note_on_c, 5, 62, 80
8, 483708, Note_on_c, 5, 62, 0
8, 483840, Note_on_c, 5, 62, 80
8, 483948, Note_on_c, 5, 62, 0
8, 484080, Note_on_c, 5, 62, 80
8, 484188, Note_on_c, 5, 62, 0
8, 484320, Note_on_c, 5, 62, 120
8, 484428, Note_on_c, 5, 62, 0
8, 484560, Note_on_c, 5, 62, 80
8, 484668, Note_on_c, 5, 62, 0
8, 484800, Note_on_c, 5, 62, 80
8, 484908, Note_on_c, 5, 62, 0
8, 485040, Note_on_c, 5, 62, 80
8, 485148, Note_on_c, 5, 62, 0
8, 485280, Note_on_c, 5, 62, 120
8, 485388, Note_on_c, 5, 62, 0
8, 485520, Note_on_c, 5, 62, 80
8, 485628, Note_on_c, 5, 62, 0
8, 485760, Note_on_c, 5, 62, 80
8, 485868, Note_on_c, 5, 62, 0
8, 486000, Note_on_c, 5, 62, 80
8, 486108, Note_on_c, 5, 62, 0
8, 486240, Note_on_c, 5, 67, 127
8, 486384, Note_on_c, 5, 67, 0
8, 486720, Note_on_c, 5, 67, 127
8, 486864, Note_on_c, 5, 67, 0
8, 487200, Note_on_c, 5, 67, 127
8, 487344, Note_on_c, 5, 67, 0
8, 487680, Note_on_c, 5, 67, 127
8, 487824, Note_on_c, 5, 67, 0
8, 488160, Note_on_c, 5, 67, 127
8, 488304, Note_on_c, 5, 67, 0
8, 488640, Note_on_c, 5, 67, 127
8, 488784, Note_on_c, 5, 67, 0
8, 489120, Note_on_c, 5, 67, 127
8, 489264, Note_on_c, 5, 67, 0
8, 489600, Note_on_c, 5, 67, 127
8, 489744, Note_on_c, 5, 67, 0
8, 490080, Note_on_c, 5, 67, 127
8, 490224, Note_on_c, 5, 67, 0
8, 492000, Note_on_c, 5, 67, 127
8, 492144, Note_on_c, 5, 67, 0
8, 493920, Note_on_c, 5, 67, 127
8, 494064, Note_on_c, 5, 67, 0
8, 495000, Note_on_c, 5, 67, 127
8, 495144, Note_on_c, 5, 67, 0
8, 496080, Note_on_c, 5, 67, 127
8, 496224, Note_on_c, 5, 67, 0
8, 497160, Note_on_c, 5, 67, 127
8, 497304, Note_on_c, 5, 67, 0
8, 498360, Note_on_c, 5, 67, 127
8, 498504, Note_on_c, 5, 67, 0
8, 498504, End_track
9, 0, Start_track
9, 0, Title_t, "Trumpets in Eb"
9, 0, Program_c, 6, 57
9, 0, Control_c, 6, 7, 90
9, 0, Control_c, 6, 10, 90
9, 3840, Control_c, 6, 10, 110
9, 3840, Control_c, 6, 91, 100
9, 5760, Note_on_c, 6, 75, 68
9, 5760, Note_on_c, 6, 63, 61
9, 5768, Control_c, 6, 7, 118
9, 5776, Control_c, 6, 7, 118
9, 5784, Control_c, 6, 7, 118
9, 5792, Control_c, 6, 7, 117
9, 5800, Control_c, 6, 7, 117
9, 5808, Control_c, 6, 7, 117
9, 5816, Control_c, 6, 7, 116
9, 5824, Control_c, 6, 7, 115
9, 5832, Control_c, 6, 7, 115
9, 5840, Control_c, 6, 7, 115
9, 5848, Control_c, 6, 7, 115
9, 5856, Control_c, 6, 7, 115
9, 5864, Control_c, 6, 7, 114
9, 5872, Control_c, 6, 7, 114
9, 5880, Control_c, 6, 7, 114
9, 5888, Control_c, 6, 7, 114
9, 5896, Control_c, 6, 7, 114
9, 5904, Control_c, 6, 7, 114
9, 5912, Control_c, 6, 7, 113
9, 5920, Control_c, 6, 7, 113
9, 5928, Control_c, 6, 7, 113
9, 5936, Control_c, 6, 7, 113
9, 5944, Control_c, 6, 7, 113
9, 5952, Control_c, 6, 7, 113
9, 5960, Control_c, 6, 7, 113
9, 5968, Control_c, 6, 7, 114
9, 5976, Control_c, 6, 7, 114
9, 5984, Control_c, 6, 7, 112
9, 5992, Control_c, 6, 7, 112
9, 6000, Control_c, 6, 7, 112
9, 6008, Control_c, 6, 7, 112
9, 6016, Control_c, 6, 7, 112
9, 6024, Control_c, 6, 7, 112
9, 6032, Control_c, 6, 7, 113
9, 6040, Control_c, 6, 7, 111
9, 6048, Control_c, 6, 7, 111
9, 6056, Control_c, 6, 7, 111
9, 6064, Control_c, 6, 7, 111
9, 6072, Control_c, 6, 7, 111
9, 6080, Control_c, 6, 7, 111
9, 6088, Control_c, 6, 7, 111
9, 6096, Control_c, 6, 7, 111
9, 6104, Control_c, 6, 7, 111
9, 6112, Control_c, 6, 7, 111
9, 6120, Control_c, 6, 7, 111
9, 6128, Control_c, 6, 7, 112
9, 6136, Control_c, 6, 7, 112
9, 6144, Control_c, 6, 7, 111
9, 6152, Control_c, 6, 7, 110
9, 6160, Control_c, 6, 7, 110
9, 6168, Control_c, 6, 7, 110
9, 6176, Control_c, 6, 7, 110
9, 6184, Control_c, 6, 7, 110
9, 6192, Control_c, 6, 7, 110
9, 6200, Control_c, 6, 7, 111
9, 6208, Control_c, 6, 7, 111
9, 6216, Control_c, 6, 7, 110
9, 6224, Control_c, 6, 7, 110
9, 6232, Control_c, 6, 7, 110
9, 6240, Control_c, 6, 7, 110
9, 6248, Control_c, 6, 7, 110
9, 6256, Control_c, 6, 7, 109
9, 6264, Control_c, 6, 7, 107
9, 6272, Control_c, 6, 7, 105
9, 6280, Control_c, 6, 7, 106
9, 6288, Control_c, 6, 7, 105
9, 6296, Control_c, 6, 7, 104
9, 6304, Control_c, 6, 7, 104
9, 6312, Control_c, 6, 7, 101
9, 6320, Control_c, 6, 7, 101
9, 6328, Control_c, 6, 7, 101
9, 6336, Control_c, 6, 7, 101
9, 6344, Control_c, 6, 7, 101
9, 6352, Control_c, 6, 7, 99
9, 6360, Control_c, 6, 7, 99
9, 6368, Control_c, 6, 7, 99
9, 6376, Control_c, 6, 7, 97
9, 6384, Control_c, 6, 7, 97
9, 6392, Control_c, 6, 7, 97
9, 6400, Control_c, 6, 7, 97
9, 6408, Control_c, 6, 7, 97
9, 6416, Control_c, 6, 7, 97
9, 6424, Control_c, 6, 7, 92
9, 6432, Control_c, 6, 7, 92
9, 6440, Control_c, 6, 7, 92
9, 6448, Control_c, 6, 7, 92
9, 6456, Control_c, 6, 7, 92
9, 6464, Control_c, 6, 7, 92
9, 6472, Control_c, 6, 7, 93
9, 6480, Control_c, 6, 7, 93
9, 6488, Control_c, 6, 7, 92
9, 6496, Control_c, 6, 7, 92
9, 6504, Control_c, 6, 7, 91
9, 6512, Control_c, 6, 7, 91
9, 6520, Control_c, 6, 7, 91
9, 6528, Control_c, 6, 7, 91
9, 6536, Control_c, 6, 7, 91
9, 6544, Control_c, 6, 7, 92
9, 6552, Control_c, 6, 7, 92
9, 6560, Control_c, 6, 7, 92
9, 6568, Control_c, 6, 7, 92
9, 6576, Control_c, 6, 7, 92
9, 6584, Control_c, 6, 7, 92
9, 6592, Control_c, 6, 7, 92
9, 6600, Control_c, 6, 7, 92
9, 6608, Control_c, 6, 7, 92
9, 6616, Control_c, 6, 7, 93
9, 6624, Control_c, 6, 7, 93
9, 6632, Control_c, 6, 7, 93
9, 6640, Control_c, 6, 7, 93
9, 6648, Control_c, 6, 7, 93
9, 6656, Control_c, 6, 7, 93
9, 6664, Control_c, 6, 7, 94
9, 6672, Control_c, 6, 7, 94
9, 6680, Control_c, 6, 7, 94
9, 6688, Control_c, 6, 7, 94
9, 6696, Control_c, 6, 7, 94
9, 6704, Control_c, 6, 7, 94
9, 6712, Control_c, 6, 7, 94
9, 6720, Control_c, 6, 7, 94
9, 6728, Control_c, 6, 7, 94
9, 6736, Control_c, 6, 7, 94
9, 6744, Control_c, 6, 7, 95
9, 6752, Control_c, 6, 7, 94
9, 6760, Control_c, 6, 7, 94
9, 6768, Control_c, 6, 7, 94
9, 6776, Control_c, 6, 7, 94
9, 6784, Control_c, 6, 7, 94
9, 6792, Control_c, 6, 7, 94
9, 6800, Control_c, 6, 7, 93
9, 6808, Control_c, 6, 7, 93
9, 6816, Control_c, 6, 7, 93
9, 6824, Control_c, 6, 7, 93
9, 6832, Control_c, 6, 7, 93
9, 6840, Control_c, 6, 7, 93
9, 6848, Control_c, 6, 7, 94
9, 6856, Control_c, 6, 7, 94
9, 6864, Control_c, 6, 7, 94
9, 6872, Control_c, 6, 7, 94
9, 6880, Control_c, 6, 7, 93
9, 6888, Control_c, 6, 7, 93
9, 6896, Control_c, 6, 7, 93
9, 6904, Control_c, 6, 7, 93
9, 6912, Control_c, 6, 7, 93
9, 6920, Control_c, 6, 7, 94
9, 6928, Control_c, 6, 7, 94
9, 6936, Control_c, 6, 7, 94
9, 6944, Control_c, 6, 7, 94
9, 6952, Control_c, 6, 7, 94
9, 6960, Control_c, 6, 7, 94
9, 6968, Control_c, 6, 7, 93
9, 6976, Control_c, 6, 7, 93
9, 6984, Control_c, 6, 7, 94
9, 6992, Control_c, 6, 7, 94
9, 7000, Control_c, 6, 7, 94
9, 7008, Control_c, 6, 7, 93
9, 7016, Control_c, 6, 7, 93
9, 7024, Control_c, 6, 7, 93
9, 7032, Control_c, 6, 7, 93
9, 7040, Control_c, 6, 7, 93
9, 7048, Control_c, 6, 7, 93
9, 7056, Control_c, 6, 7, 93
9, 7064, Control_c, 6, 7, 93
9, 7072, Control_c, 6, 7, 93
9, 7080, Control_c, 6, 7, 93
9, 7088, Control_c, 6, 7, 93
9, 7096, Control_c, 6, 7, 93
9, 7104, Control_c, 6, 7, 93
9, 7112, Control_c, 6, 7, 93
9, 7120, Control_c, 6, 7, 93
9, 7128, Control_c, 6, 7, 93
9, 7136, Control_c, 6, 7, 91
9, 7144, Control_c, 6, 7, 90
9, 7152, Control_c, 6, 7, 89
9, 7160, Control_c, 6, 7, 89
9, 7168, Control_c, 6, 7, 88
9, 7176, Control_c, 6, 7, 88
9, 7184, Control_c, 6, 7, 86
9, 7192, Control_c, 6, 7, 85
9, 7200, Control_c, 6, 7, 85
9, 7208, Control_c, 6, 7, 85
9, 7216, Control_c, 6, 7, 85
9, 7224, Control_c, 6, 7, 85
9, 7232, Control_c, 6, 7, 83
9, 7240, Control_c, 6, 7, 82
9, 7248, Control_c, 6, 7, 82
9, 7256, Control_c, 6, 7, 81
9, 7264, Control_c, 6, 7, 81
9, 7272, Control_c, 6, 7, 81
9, 7280, Control_c, 6, 7, 81
9, 7288, Control_c, 6, 7, 81
9, 7296, Control_c, 6, 7, 78
9, 7304, Control_c, 6, 7, 77
9, 7312, Control_c, 6, 7, 76
9, 7320, Control_c, 6, 7, 75
9, 7328, Control_c, 6, 7, 74
9, 7336, Control_c, 6, 7, 73
9, 7344, Control_c, 6, 7, 71
9, 7352, Control_c, 6, 7, 71
9, 7360, Control_c, 6, 7, 71
9, 7368, Control_c, 6, 7, 71
9, 7376, Control_c, 6, 7, 71
9, 7384, Control_c, 6, 7, 71
9, 7392, Control_c, 6, 7, 66
9, 7400, Control_c, 6, 7, 65
9, 7408, Control_c, 6, 7, 64
9, 7416, Control_c, 6, 7, 64
9, 7424, Control_c, 6, 7, 60
9, 7432, Control_c, 6, 7, 60
9, 7440, Control_c, 6, 7, 58
9, 7448, Control_c, 6, 7, 58
9, 7456, Control_c, 6, 7, 58
9, 7464, Control_c, 6, 7, 58
9, 7472, Control_c, 6, 7, 58
9, 7480, Control_c, 6, 7, 58
9, 7488, Control_c, 6, 7, 58
9, 7496, Control_c, 6, 7, 58
9, 7504, Note_on_c, 6, 63, 0
9, 7504, Control_c, 6, 7, 58
9, 7506, Note_on_c, 6, 75, 0
9, 7512, Control_c, 6, 7, 55
9, 7520, Control_c, 6, 7, 54
9, 7528, Control_c, 6, 7, 53
9, 7536, Control_c, 6, 7, 54
9, 7544, Control_c, 6, 7, 49
9, 7552, Control_c, 6, 7, 49
9, 7560, Control_c, 6, 7, 48
9, 8304, Control_c, 6, 7, 0
9, 8312, Control_c, 6, 7, 0
9, 8320, Control_c, 6, 7, 0
9, 8328, Control_c, 6, 7, 0
9, 8336, Control_c, 6, 7, 1
9, 8344, Control_c, 6, 7, 1
9, 8352, Control_c, 6, 7, 1
9, 8360, Control_c, 6, 7, 1
9, 8368, Control_c, 6, 7, 1
9, 8376, Control_c, 6, 7, 2
9, 8384, Control_c, 6, 7, 7
9, 8392, Control_c, 6, 7, 8
9, 8400, Control_c, 6, 7, 9
9, 8408, Control_c, 6, 7, 10
9, 8416, Control_c, 6, 7, 11
9, 8424, Control_c, 6, 7, 12
9, 8432, Control_c, 6, 7, 13
9, 8440, Control_c, 6, 7, 90
9, 8448, Control_c, 6, 7, 90
9, 8456, Control_c, 6, 7, 90
9, 8464, Control_c, 6, 7, 90
9, 8472, Control_c, 6, 7, 92
9, 8480, Control_c, 6, 7, 92
9, 8488, Control_c, 6, 7, 92
9, 8496, Control_c, 6, 7, 92
9, 8504, Control_c, 6, 7, 92
9, 8512, Control_c, 6, 7, 93
9, 8520, Control_c, 6, 7, 93
9, 8528, Control_c, 6, 7, 98
9, 8536, Control_c, 6, 7, 99
9, 8544, Control_c, 6, 7, 99
9, 8552, Control_c, 6, 7, 100
9, 8560, Control_c, 6, 7, 100
9, 8568, Control_c, 6, 7, 100
9, 8576, Control_c, 6, 7, 100
9, 8584, Control_c, 6, 7, 100
9, 8592, Control_c, 6, 7, 100
9, 8600, Control_c, 6, 7, 100
9, 8608, Control_c, 6, 7, 101
9, 8616, Control_c, 6, 7, 101
9, 8624, Control_c, 6, 7, 103
9, 8632, Control_c, 6, 7, 103
9, 22080, Note_on_c, 6, 77, 51
9, 22088, Control_c, 6, 7, 118
9, 22096, Control_c, 6, 7, 118
9, 22104, Control_c, 6, 7, 117
9, 22112, Control_c, 6, 7, 116
9, 22120, Control_c, 6, 7, 115
9, 22128, Control_c, 6, 7, 114
9, 22136, Control_c, 6, 7, 112
9, 22144, Control_c, 6, 7, 112
9, 22152, Control_c, 6, 7, 112
9, 22160, Control_c, 6, 7, 112
9, 22168, Control_c, 6, 7, 112
9, 22176, Control_c, 6, 7, 109
9, 22184, Control_c, 6, 7, 108
9, 22192, Control_c, 6, 7, 108
9, 22200, Control_c, 6, 7, 103
9, 22208, Control_c, 6, 7, 103
9, 22216, Control_c, 6, 7, 103
9, 22224, Control_c, 6, 7, 103
9, 22232, Control_c, 6, 7, 103
9, 22240, Control_c, 6, 7, 102
9, 22248, Control_c, 6, 7, 101
9, 22256, Control_c, 6, 7, 97
9, 22264, Control_c, 6, 7, 97
9, 22272, Control_c, 6, 7, 96
9, 22280, Control_c, 6, 7, 96
9, 22288, Control_c, 6, 7, 96
9, 22296, Control_c, 6, 7, 96
9, 22304, Control_c, 6, 7, 96
9, 22312, Control_c, 6, 7, 95
9, 22320, Control_c, 6, 7, 93
9, 22328, Control_c, 6, 7, 93
9, 22336, Control_c, 6, 7, 93
9, 22344, Control_c, 6, 7, 93
9, 22352, Control_c, 6, 7, 93
9, 22360, Control_c, 6, 7, 93
9, 22368, Control_c, 6, 7, 93
9, 22376, Control_c, 6, 7, 93
9, 22384, Control_c, 6, 7, 93
9, 22392, Control_c, 6, 7, 93
9, 22400, Control_c, 6, 7, 93
9, 22408, Control_c, 6, 7, 93
9, 22416, Control_c, 6, 7, 93
9, 22424, Control_c, 6, 7, 93
9, 22432, Control_c, 6, 7, 93
9, 22440, Control_c, 6, 7, 92
9, 22448, Control_c, 6, 7, 92
9, 22456, Control_c, 6, 7, 93
9, 22464, Control_c, 6, 7, 93
9, 22472, Control_c, 6, 7, 93
9, 22480, Control_c, 6, 7, 93
9, 22488, Control_c, 6, 7, 93
9, 22496, Control_c, 6, 7, 93
9, 22504, Control_c, 6, 7, 93
9, 22512, Control_c, 6, 7, 93
9, 22520, Control_c, 6, 7, 93
9, 22528, Control_c, 6, 7, 94
9, 22536, Control_c, 6, 7, 94
9, 22544, Control_c, 6, 7, 94
9, 22552, Control_c, 6, 7, 89
9, 22560, Control_c, 6, 7, 89
9, 22568, Control_c, 6, 7, 89
9, 22576, Control_c, 6, 7, 89
9, 22584, Control_c, 6, 7, 89
9, 22592, Control_c, 6, 7, 89
9, 22600, Control_c, 6, 7, 89
9, 22608, Control_c, 6, 7, 89
9, 22616, Control_c, 6, 7, 89
9, 22624, Control_c, 6, 7, 89
9, 22632, Control_c, 6, 7, 89
9, 22640, Control_c, 6, 7, 90
9, 22648, Control_c, 6, 7, 89
9, 22656, Control_c, 6, 7, 89
9, 22664, Control_c, 6, 7, 88
9, 22672, Control_c, 6, 7, 88
9, 22680, Control_c, 6, 7, 87
9, 22688, Control_c, 6, 7, 87
9, 22696, Control_c, 6, 7, 87
9, 22704, Control_c, 6, 7, 87
9, 22712, Control_c, 6, 7, 87
9, 22720, Control_c, 6, 7, 87
9, 22728, Control_c, 6, 7, 87
9, 22736, Control_c, 6, 7, 87
9, 22744, Control_c, 6, 7, 87
9, 22752, Control_c, 6, 7, 87
9, 22760, Control_c, 6, 7, 87
9, 22768, Control_c, 6, 7, 87
9, 22776, Control_c, 6, 7, 87
9, 22784, Control_c, 6, 7, 87
9, 22792, Control_c, 6, 7, 87
9, 22800, Control_c, 6, 7, 87
9, 22808, Control_c, 6, 7, 87
9, 22816, Control_c, 6, 7, 88
9, 22824, Control_c, 6, 7, 88
9, 22832, Control_c, 6, 7, 88
9, 22840, Control_c, 6, 7, 88
9, 22848, Control_c, 6, 7, 94
9, 22856, Control_c, 6, 7, 94
9, 22864, Control_c, 6, 7, 94
9, 22872, Control_c, 6, 7, 93
9, 22880, Control_c, 6, 7, 93
9, 22888, Control_c, 6, 7, 93
9, 22896, Control_c, 6, 7, 93
9, 22904, Control_c, 6, 7, 93
9, 22912, Control_c, 6, 7, 93
9, 22920, Control_c, 6, 7, 93
9, 22928, Control_c, 6, 7, 94
9, 22936, Control_c, 6, 7, 94
9, 22944, Control_c, 6, 7, 94
9, 22952, Control_c, 6, 7, 94
9, 22960, Control_c, 6, 7, 94
9, 22968, Control_c, 6, 7, 94
9, 22976, Control_c, 6, 7, 94
9, 22984, Control_c, 6, 7, 94
9, 22992, Control_c, 6, 7, 94
9, 23000, Control_c, 6, 7, 94
9, 23008, Control_c, 6, 7, 94
9, 23016, Control_c, 6, 7, 94
9, 23024, Control_c, 6, 7, 94
9, 23032, Control_c, 6, 7, 94
9, 23040, Control_c, 6, 7, 94
9, 23048, Control_c, 6, 7, 94
9, 23056, Control_c, 6, 7, 94
9, 23064, Control_c, 6, 7, 94
9, 23072, Control_c, 6, 7, 94
9, 23080, Control_c, 6, 7, 94
9, 23088, Control_c, 6, 7, 93
9, 23096, Control_c, 6, 7, 93
9, 23104, Control_c, 6, 7, 93
9, 23112, Control_c, 6, 7, 93
9, 23120, Control_c, 6, 7, 93
9, 23128, Control_c, 6, 7, 94
9, 23136, Control_c, 6, 7, 94
9, 23144, Control_c, 6, 7, 93
9, 23152, Control_c, 6, 7, 93
9, 23160, Control_c, 6, 7, 93
9, 23168, Control_c, 6, 7, 93
9, 23176, Control_c, 6, 7, 93
9, 23184, Control_c, 6, 7, 93
9, 23192, Control_c, 6, 7, 93
9, 23200, Control_c, 6, 7, 93
9, 23208, Control_c, 6, 7, 93
9, 23216, Control_c, 6, 7, 93
9, 23224, Control_c, 6, 7, 93
9, 23232, Control_c, 6, 7, 93
9, 23240, Control_c, 6, 7, 93
9, 23248, Control_c, 6, 7, 93
9, 23256, Control_c, 6, 7, 93
9, 23264, Control_c, 6, 7, 93
9, 23272, Control_c, 6, 7, 93
9, 23280, Control_c, 6, 7, 93
9, 23288, Control_c, 6, 7, 92
9, 23296, Control_c, 6, 7, 92
9, 23304, Control_c, 6, 7, 92
9, 23312, Control_c, 6, 7, 92
9, 23320, Control_c, 6, 7, 92
9, 23328, Control_c, 6, 7, 92
9, 23336, Control_c, 6, 7, 92
9, 23344, Control_c, 6, 7, 91
9, 23352, Control_c, 6, 7, 91
9, 23360, Control_c, 6, 7, 91
9, 23368, Control_c, 6, 7, 91
9, 23376, Control_c, 6, 7, 91
9, 23384, Control_c, 6, 7, 92
9, 23392, Control_c, 6, 7, 92
9, 23400, Control_c, 6, 7, 92
9, 23408, Control_c, 6, 7, 92
9, 23416, Control_c, 6, 7, 92
9, 23424, Control_c, 6, 7, 90
9, 23432, Control_c, 6, 7, 89
9, 23440, Control_c, 6, 7, 89
9, 23448, Control_c, 6, 7, 87
9, 23456, Control_c, 6, 7, 87
9, 23464, Control_c, 6, 7, 87
9, 23472, Control_c, 6, 7, 87
9, 23480, Control_c, 6, 7, 87
9, 23488, Control_c, 6, 7, 87
9, 23496, Control_c, 6, 7, 86
9, 23504, Control_c, 6, 7, 84
9, 23512, Control_c, 6, 7, 84
9, 23520, Control_c, 6, 7, 84
9, 23528, Control_c, 6, 7, 84
9, 23536, Control_c, 6, 7, 84
9, 23544, Control_c, 6, 7, 84
9, 23552, Control_c, 6, 7, 79
9, 23560, Control_c, 6, 7, 79
9, 23568, Control_c, 6, 7, 79
9, 23576, Control_c, 6, 7, 79
9, 23584, Control_c, 6, 7, 79
9, 23592, Control_c, 6, 7, 78
9, 23600, Control_c, 6, 7, 78
9, 23608, Control_c, 6, 7, 75
9, 23616, Control_c, 6, 7, 75
9, 23624, Control_c, 6, 7, 74
9, 23632, Control_c, 6, 7, 69
9, 23640, Control_c, 6, 7, 70
9, 23648, Control_c, 6, 7, 68
9, 23656, Control_c, 6, 7, 68
9, 23664, Control_c, 6, 7, 63
9, 23672, Control_c, 6, 7, 54
9, 23680, Control_c, 6, 7, 52
9, 23688, Control_c, 6, 7, 52
9, 23696, Control_c, 6, 7, 52
9, 23704, Control_c, 6, 7, 52
9, 23712, Control_c, 6, 7, 52
9, 23720, Control_c, 6, 7, 51
9, 23728, Control_c, 6, 7, 51
9, 23736, Control_c, 6, 7, 48
9, 23744, Control_c, 6, 7, 45
9, 23752, Control_c, 6, 7, 45
9, 23760, Control_c, 6, 7, 44
9, 23790, Note_on_c, 6, 77, 0
9, 24384, Control_c, 6, 7, 0
9, 24392, Control_c, 6, 7, 1
9, 24400, Control_c, 6, 7, 6
9, 24408, Control_c, 6, 7, 7
9, 24416, Control_c, 6, 7, 9
9, 24424, Control_c, 6, 7, 11
9, 24432, Control_c, 6, 7, 22
9, 24440, Control_c, 6, 7, 30
9, 24448, Control_c, 6, 7, 30
9, 24456, Control_c, 6, 7, 30
9, 24464, Control_c, 6, 7, 30
9, 24472, Control_c, 6, 7, 30
9, 24480, Control_c, 6, 7, 36
9, 24488, Control_c, 6, 7, 42
9, 24496, Control_c, 6, 7, 43
9, 24504, Control_c, 6, 7, 44
9, 24512, Control_c, 6, 7, 45
9, 24520, Control_c, 6, 7, 46
9, 24528, Control_c, 6, 7, 54
9, 24536, Control_c, 6, 7, 56
9, 24544, Control_c, 6, 7, 56
9, 24552, Control_c, 6, 7, 56
9, 24560, Control_c, 6, 7, 56
9, 24568, Control_c, 6, 7, 56
9, 24576, Control_c, 6, 7, 62
9, 24584, Control_c, 6, 7, 72
9, 24592, Control_c, 6, 7, 73
9, 24600, Control_c, 6, 7, 74
9, 24608, Control_c, 6, 7, 75
9, 24616, Control_c, 6, 7, 82
9, 24624, Control_c, 6, 7, 83
9, 24632, Control_c, 6, 7, 90
9, 24640, Control_c, 6, 7, 97
9, 24648, Control_c, 6, 7, 104
9, 24656, Control_c, 6, 7, 104
9, 27840, Note_on_c, 6, 70, 85
9, 27840, Note_on_c, 6, 58, 81
9, 29520, Note_on_c, 6, 58, 0
9, 29520, Note_on_c, 6, 70, 0
9, 81360, Note_on_c, 6, 70, 80
9, 81360, Note_on_c, 6, 77, 80
9, 85008, Note_on_c, 6, 77, 0
9, 85008, Note_on_c, 6, 70, 0
9, 85200, Note_on_c, 6, 75, 92
9, 85200, Note_on_c, 6, 63, 95
9, 85274, Note_on_c, 6, 63, 0
9, 85284, Note_on_c, 6, 75, 0
9, 85440, Note_on_c, 6, 75, 95
9, 85440, Note_on_c, 6, 63, 102
9, 85684, Note_on_c, 6, 63, 0
9, 85696, Note_on_c, 6, 75, 0
9, 85920, Note_on_c, 6, 63, 83
9, 85920, Note_on_c, 6, 75, 90
9, 86002, Note_on_c, 6, 75, 0
9, 86006, Note_on_c, 6, 63, 0
9, 86160, Note_on_c, 6, 75, 100
9, 86160, Note_on_c, 6, 63, 94
9, 86922, Note_on_c, 6, 75, 0
9, 86924, Note_on_c, 6, 63, 0
9, 87120, Note_on_c, 6, 63, 92
9, 87120, Note_on_c, 6, 75, 94
9, 87200, Note_on_c, 6, 63, 0
9, 87202, Note_on_c, 6, 75, 0
9, 87360, Note_on_c, 6, 63, 94
9, 87360, Note_on_c, 6, 75, 97
9, 87630, Note_on_c, 6, 63, 0
9, 87640, Note_on_c, 6, 75, 0
9, 87840, Note_on_c, 6, 63, 81
9, 87840, Note_on_c, 6, 75, 92
9, 87930, Note_on_c, 6, 75, 0
9, 87930, Note_on_c, 6, 63, 0
9, 88080, Note_on_c, 6, 75, 102
9, 88080, Note_on_c, 6, 63, 98
9, 88816, Note_on_c, 6, 75, 0
9, 88826, Note_on_c, 6, 63, 0
9, 89040, Note_on_c, 6, 75, 106
9, 89040, Note_on_c, 6, 63, 106
9, 89354, Note_on_c, 6, 75, 0
9, 89360, Note_on_c, 6, 63, 0
9, 89520, Note_on_c, 6, 75, 73
9, 89520, Note_on_c, 6, 63, 66
9, 89590, Note_on_c, 6, 75, 0
9, 89602, Note_on_c, 6, 63, 0
9, 89760, Note_on_c, 6, 75, 80
9, 89760, Note_on_c, 6, 63, 73
9, 89844, Note_on_c, 6, 63, 0
9, 89850, Note_on_c, 6, 75, 0
9, 90000, Note_on_c, 6, 75, 106
9, 90000, Note_on_c, 6, 63, 106
9, 90314, Note_on_c, 6, 75, 0
9, 90320, Note_on_c, 6, 63, 0
9, 90480, Note_on_c, 6, 75, 73
9, 90480, Note_on_c, 6, 63, 66
9, 90550, Note_on_c, 6, 75, 0
9, 90562, Note_on_c, 6, 63, 0
9, 90720, Note_on_c, 6, 75, 80
9, 90720, Note_on_c, 6, 63, 73
9, 90804, Note_on_c, 6, 63, 0
9, 90810, Note_on_c, 6, 75, 0
9, 90960, Note_on_c, 6, 75, 106
9, 90960, Note_on_c, 6, 63, 106
9, 91274, Note_on_c, 6, 75, 0
9, 91280, Note_on_c, 6, 63, 0
9, 91440, Note_on_c, 6, 75, 73
9, 91440, Note_on_c, 6, 63, 66
9, 91510, Note_on_c, 6, 75, 0
9, 91522, Note_on_c, 6, 63, 0
9, 91680, Note_on_c, 6, 75, 80
9, 91680, Note_on_c, 6, 63, 73
9, 91764, Note_on_c, 6, 63, 0
9, 91770, Note_on_c, 6, 75, 0
9, 91920, Note_on_c, 6, 75, 106
9, 91920, Note_on_c, 6, 63, 106
9, 92234, Note_on_c, 6, 75, 0
9, 92240, Note_on_c, 6, 63, 0
9, 92880, Note_on_c, 6, 75, 106
9, 92880, Note_on_c, 6, 63, 106
9, 93194, Note_on_c, 6, 75, 0
9, 93200, Note_on_c, 6, 63, 0
9, 93360, Note_on_c, 6, 75, 73
9, 93360, Note_on_c, 6, 63, 66
9, 93430, Note_on_c, 6, 75, 0
9, 93442, Note_on_c, 6, 63, 0
9, 93600, Note_on_c, 6, 75, 80
9, 93600, Note_on_c, 6, 63, 73
9, 93684, Note_on_c, 6, 63, 0
9, 93690, Note_on_c, 6, 75, 0
9, 93840, Note_on_c, 6, 75, 106
9, 93840, Note_on_c, 6, 63, 106
9, 94154, Note_on_c, 6, 75, 0
9, 94160, Note_on_c, 6, 63, 0
9, 94320, Note_on_c, 6, 75, 73
9, 94320, Note_on_c, 6, 63, 66
9, 94390, Note_on_c, 6, 75, 0
9, 94402, Note_on_c, 6, 63, 0
9, 94560, Note_on_c, 6, 75, 80
9, 94560, Note_on_c, 6, 63, 73
9, 94644, Note_on_c, 6, 63, 0
9, 94650, Note_on_c, 6, 75, 0
9, 94800, Note_on_c, 6, 75, 106
9, 94800, Note_on_c, 6, 63, 106
9, 95114, Note_on_c, 6, 75, 0
9, 95120, Note_on_c, 6, 63, 0
9, 95280, Note_on_c, 6, 75, 73
9, 95280, Note_on_c, 6, 63, 66
9, 95350, Note_on_c, 6, 75, 0
9, 95362, Note_on_c, 6, 63, 0
9, 95520, Note_on_c, 6, 75, 80
9, 95520, Note_on_c, 6, 63, 73
9, 95604, Note_on_c, 6, 63, 0
9, 95610, Note_on_c, 6, 75, 0
9, 95760, Note_on_c, 6, 75, 106
9, 95760, Note_on_c, 6, 63, 106
9, 96074, Note_on_c, 6, 75, 0
9, 96080, Note_on_c, 6, 63, 0
9, 96720, Note_on_c, 6, 75, 106
9, 96720, Note_on_c, 6, 63, 106
9, 97034, Note_on_c, 6, 75, 0
9, 97040, Note_on_c, 6, 63, 0
9, 100560, Note_on_c, 6, 70, 106
9, 100560, Note_on_c, 6, 58, 106
9, 100874, Note_on_c, 6, 70, 0
9, 100880, Note_on_c, 6, 58, 0
9, 101520, Note_on_c, 6, 70, 106
9, 101520, Note_on_c, 6, 58, 106
9, 101834, Note_on_c, 6, 70, 0
9, 101840, Note_on_c, 6, 58, 0
9, 104400, Note_on_c, 6, 75, 106
9, 104400, Note_on_c, 6, 63, 106
9, 104714, Note_on_c, 6, 75, 0
9, 104720, Note_on_c, 6, 63, 0
9, 105360, Note_on_c, 6, 75, 106
9, 105360, Note_on_c, 6, 63, 106
9, 105674, Note_on_c, 6, 75, 0
9, 105680, Note_on_c, 6, 63, 0
9, 106320, Note_on_c, 6, 75, 106
9, 106320, Note_on_c, 6, 63, 106
9, 106634, Note_on_c, 6, 75, 0
9, 106640, Note_on_c, 6, 63, 0
9, 107280, Note_on_c, 6, 58, 80
9, 107280, Note_on_c, 6, 70, 80
9, 107594, Note_on_c, 6, 70, 0
9, 107600, Note_on_c, 6, 58, 0
9, 107760, Note_on_c, 6, 58, 80
9, 107760, Note_on_c, 6, 70, 80
9, 108074, Note_on_c, 6, 70, 0
9, 108080, Note_on_c, 6, 58, 0
9, 108240, Note_on_c, 6, 63, 80
9, 108240, Note_on_c, 6, 75, 80
9, 108554, Note_on_c, 6, 75, 0
9, 108560, Note_on_c, 6, 63, 0
9, 108720, Note_on_c, 6, 63, 80
9, 108720, Note_on_c, 6, 75, 80
9, 109034, Note_on_c, 6, 75, 0
9, 109040, Note_on_c, 6, 63, 0
9, 109200, Note_on_c, 6, 58, 80
9, 109200, Note_on_c, 6, 70, 80
9, 109514, Note_on_c, 6, 70, 0
9, 109520, Note_on_c, 6, 58, 0
9, 109680, Note_on_c, 6, 58, 80
9, 109680, Note_on_c, 6, 70, 80
9, 109994, Note_on_c, 6, 70, 0
9, 110000, Note_on_c, 6, 58, 0
9, 110160, Note_on_c, 6, 58, 80
9, 110160, Note_on_c, 6, 70, 80
9, 110474, Note_on_c, 6, 70, 0
9, 110480, Note_on_c, 6, 58, 0
9, 110640, Note_on_c, 6, 58, 80
9, 110640, Note_on_c, 6, 70, 80
9, 110954, Note_on_c, 6, 70, 0
9, 110960, Note_on_c, 6, 58, 0
9, 111120, Note_on_c, 6, 58, 80
9, 111120, Note_on_c, 6, 70, 80
9, 111434, Note_on_c, 6, 70, 0
9, 111440, Note_on_c, 6, 58, 0
9, 111600, Note_on_c, 6, 58, 80
9, 111600, Note_on_c, 6, 70, 80
9, 111914, Note_on_c, 6, 70, 0
9, 111920, Note_on_c, 6, 58, 0
9, 112080, Note_on_c, 6, 63, 80
9, 112080, Note_on_c, 6, 75, 80
9, 112394, Note_on_c, 6, 75, 0
9, 112400, Note_on_c, 6, 63, 0
9, 112560, Note_on_c, 6, 63, 80
9, 112560, Note_on_c, 6, 75, 80
9, 112874, Note_on_c, 6, 75, 0
9, 112880, Note_on_c, 6, 63, 0
9, 113040, Note_on_c, 6, 58, 80
9, 113040, Note_on_c, 6, 70, 80
9, 113354, Note_on_c, 6, 70, 0
9, 113360, Note_on_c, 6, 58, 0
9, 113520, Note_on_c, 6, 58, 80
9, 113520, Note_on_c, 6, 70, 80
9, 113834, Note_on_c, 6, 70, 0
9, 113840, Note_on_c, 6, 58, 0
9, 114000, Note_on_c, 6, 58, 80
9, 114000, Note_on_c, 6, 70, 80
9, 114314, Note_on_c, 6, 70, 0
9, 114320, Note_on_c, 6, 58, 0
9, 114480, Note_on_c, 6, 58, 80
9, 114480, Note_on_c, 6, 70, 80
9, 114794, Note_on_c, 6, 70, 0
9, 114800, Note_on_c, 6, 58, 0
9, 114960, Note_on_c, 6, 58, 80
9, 114960, Note_on_c, 6, 70, 80
9, 115274, Note_on_c, 6, 70, 0
9, 115280, Note_on_c, 6, 58, 0
9, 139440, Note_on_c, 6, 77, 52
9, 139712, Note_on_c, 6, 77, 0
9, 139920, Note_on_c, 6, 77, 54
9, 140174, Note_on_c, 6, 77, 0
9, 140400, Note_on_c, 6, 77, 52
9, 140622, Note_on_c, 6, 77, 0
9, 140880, Note_on_c, 6, 77, 41
9, 141156, Note_on_c, 6, 77, 0
9, 161040, Note_on_c, 6, 58, 60
9, 161040, Note_on_c, 6, 70, 60
9, 161424, Note_on_c, 6, 70, 0
9, 161424, Note_on_c, 6, 58, 0
9, 161520, Note_on_c, 6, 77, 80
9, 161520, Note_on_c, 6, 70, 60
9, 161760, Note_on_c, 6, 70, 0
9, 161760, Note_on_c, 6, 77, 0
9, 162480, Note_on_c, 6, 77, 80
9, 162480, Note_on_c, 6, 70, 60
9, 162720, Note_on_c, 6, 70, 0
9, 162720, Note_on_c, 6, 77, 0
9, 163440, Note_on_c, 6, 77, 80
9, 163440, Note_on_c, 6, 70, 60
9, 163680, Note_on_c, 6, 70, 0
9, 163680, Note_on_c, 6, 77, 0
9, 164400, Note_on_c, 6, 77, 80
9, 164400, Note_on_c, 6, 70, 60
9, 164640, Note_on_c, 6, 70, 0
9, 164640, Note_on_c, 6, 77, 0
9, 165360, Note_on_c, 6, 79, 80
9, 165360, Note_on_c, 6, 70, 60
9, 165600, Note_on_c, 6, 70, 0
9, 165600, Note_on_c, 6, 79, 0
9, 166320, Note_on_c, 6, 79, 80
9, 166320, Note_on_c, 6, 70, 60
9, 166560, Note_on_c, 6, 70, 0
9, 166560, Note_on_c, 6, 79, 0
9, 167280, Note_on_c, 6, 79, 80
9, 167280, Note_on_c, 6, 70, 60
9, 167520, Note_on_c, 6, 70, 0
9, 167520, Note_on_c, 6, 79, 0
9, 168240, Note_on_c, 6, 79, 80
9, 168240, Note_on_c, 6, 70, 60
9, 168480, Note_on_c, 6, 70, 0
9, 168480, Note_on_c, 6, 79, 0
9, 168720, Note_on_c, 6, 70, 60
9, 168720, Note_on_c, 6, 77, 80
9, 168960, Note_on_c, 6, 77, 0
9, 168960, Note_on_c, 6, 70, 0
9, 169200, Note_on_c, 6, 77, 62
9, 169440, Note_on_c, 6, 77, 0
9, 169680, Note_on_c, 6, 77, 62
9, 169920, Note_on_c, 6, 77, 0
9, 170160, Note_on_c, 6, 77, 62
9, 170400, Note_on_c, 6, 77, 0
9, 170640, Note_on_c, 6, 77, 62
9, 170880, Note_on_c, 6, 77, 0
9, 171120, Note_on_c, 6, 77, 62
9, 171360, Note_on_c, 6, 77, 0
9, 171600, Note_on_c, 6, 77, 62
9, 171840, Note_on_c, 6, 77, 0
9, 172080, Note_on_c, 6, 77, 62
9, 172320, Note_on_c, 6, 77, 0
9, 172560, Note_on_c, 6, 58, 60
9, 172560, Note_on_c, 6, 70, 60
9, 172944, Note_on_c, 6, 70, 0
9, 172944, Note_on_c, 6, 58, 0
9, 173040, Note_on_c, 6, 77, 80
9, 173040, Note_on_c, 6, 70, 60
9, 173280, Note_on_c, 6, 70, 0
9, 173280, Note_on_c, 6, 77, 0
9, 174000, Note_on_c, 6, 77, 80
9, 174000, Note_on_c, 6, 70, 60
9, 174240, Note_on_c, 6, 70, 0
9, 174240, Note_on_c, 6, 77, 0
9, 174960, Note_on_c, 6, 77, 80
9, 174960, Note_on_c, 6, 70, 60
9, 175200, Note_on_c, 6, 70, 0
9, 175200, Note_on_c, 6, 77, 0
9, 175920, Note_on_c, 6, 77, 80
9, 175920, Note_on_c, 6, 70, 60
9, 176160, Note_on_c, 6, 70, 0
9, 176160, Note_on_c, 6, 77, 0
9, 176880, Note_on_c, 6, 79, 80
9, 176880, Note_on_c, 6, 70, 60
9, 177120, Note_on_c, 6, 70, 0
9, 177120, Note_on_c, 6, 79, 0
9, 177840, Note_on_c, 6, 79, 80
9, 177840, Note_on_c, 6, 70, 60
9, 178080, Note_on_c, 6, 70, 0
9, 178080, Note_on_c, 6, 79, 0
9, 178800, Note_on_c, 6, 79, 80
9, 178800, Note_on_c, 6, 70, 60
9, 179040, Note_on_c, 6, 70, 0
9, 179040, Note_on_c, 6, 79, 0
9, 179760, Note_on_c, 6, 79, 80
9, 179760, Note_on_c, 6, 70, 60
9, 180000, Note_on_c, 6, 70, 0
9, 180000, Note_on_c, 6, 79, 0
9, 180240, Note_on_c, 6, 70, 60
9, 180240, Note_on_c, 6, 77, 80
9, 180480, Note_on_c, 6, 77, 0
9, 180480, Note_on_c, 6, 70, 0
9, 180720, Note_on_c, 6, 77, 62
9, 180960, Note_on_c, 6, 77, 0
9, 181200, Note_on_c, 6, 77, 62
9, 181440, Note_on_c, 6, 77, 0
9, 181680, Note_on_c, 6, 77, 62
9, 181920, Note_on_c, 6, 77, 0
9, 182160, Note_on_c, 6, 77, 62
9, 182400, Note_on_c, 6, 77, 0
9, 182640, Note_on_c, 6, 77, 62
9, 182880, Note_on_c, 6, 77, 0
9, 183120, Note_on_c, 6, 77, 62
9, 183360, Note_on_c, 6, 77, 0
9, 183600, Note_on_c, 6, 77, 62
9, 183840, Note_on_c, 6, 77, 0
9, 184080, Note_on_c, 6, 70, 60
9, 184080, Note_on_c, 6, 58, 80
9, 184320, Note_on_c, 6, 58, 0
9, 184320, Note_on_c, 6, 70, 0
9, 186000, Note_on_c, 6, 70, 60
9, 186000, Note_on_c, 6, 58, 80
9, 186240, Note_on_c, 6, 58, 0
9, 186240, Note_on_c, 6, 70, 0
9, 186960, Note_on_c, 6, 77, 80
9, 187344, Note_on_c, 6, 77, 0
9, 187440, Note_on_c, 6, 77, 80
9, 187560, Note_on_c, 6, 77, 0
9, 187680, Note_on_c, 6, 77, 80
9, 187800, Note_on_c, 6, 77, 0
9, 187920, Note_on_c, 6, 70, 60
9, 187920, Note_on_c, 6, 58, 80
9, 188160, Note_on_c, 6, 58, 0
9, 188160, Note_on_c, 6, 70, 0
9, 189840, Note_on_c, 6, 70, 60
9, 189840, Note_on_c, 6, 58, 80
9, 190080, Note_on_c, 6, 58, 0
9, 190080, Note_on_c, 6, 70, 0
9, 190800, Note_on_c, 6, 77, 80
9, 191184, Note_on_c, 6, 77, 0
9, 191280, Note_on_c, 6, 77, 80
9, 191400, Note_on_c, 6, 77, 0
9, 191520, Note_on_c, 6, 77, 80
9, 191640, Note_on_c, 6, 77, 0
9, 191760, Note_on_c, 6, 70, 60
9, 191760, Note_on_c, 6, 58, 80
9, 192000, Note_on_c, 6, 58, 0
9, 192000, Note_on_c, 6, 70, 0
9, 192720, Note_on_c, 6, 70, 60
9, 192720, Note_on_c, 6, 58, 80
9, 192960, Note_on_c, 6, 58, 0
9, 192960, Note_on_c, 6, 70, 0
9, 193680, Note_on_c, 6, 58, 80
9, 193680, Note_on_c, 6, 70, 60
9, 193920, Note_on_c, 6, 70, 0
9, 193920, Note_on_c, 6, 58, 0
9, 194640, Note_on_c, 6, 70, 60
9, 194640, Note_on_c, 6, 58, 80
9, 194880, Note_on_c, 6, 58, 0
9, 194880, Note_on_c, 6, 70, 0
9, 195600, Note_on_c, 6, 70, 60
9, 195600, Note_on_c, 6, 58, 80
9, 195840, Note_on_c, 6, 58, 0
9, 195840, Note_on_c, 6, 70, 0
9, 196080, Note_on_c, 6, 70, 60
9, 196080, Note_on_c, 6, 58, 80
9, 196320, Note_on_c, 6, 58, 0
9, 196320, Note_on_c, 6, 70, 0
9, 196560, Note_on_c, 6, 70, 60
9, 196560, Note_on_c, 6, 58, 80
9, 196800, Note_on_c, 6, 58, 0
9, 196800, Note_on_c, 6, 70, 0
9, 197040, Note_on_c, 6, 70, 60
9, 197040, Note_on_c, 6, 58, 80
9, 197280, Note_on_c, 6, 58, 0
9, 197280, Note_on_c, 6, 70, 0
9, 197520, Note_on_c, 6, 70, 60
9, 197520, Note_on_c, 6, 58, 80
9, 197760, Note_on_c, 6, 58, 0
9, 197760, Note_on_c, 6, 70, 0
9, 199680, Control_c, 6, 7, 100
9, 199680, Note_on_c, 6, 77, 45
9, 199688, Control_c, 6, 7, 100
9, 199696, Control_c, 6, 7, 119
9, 199704, Control_c, 6, 7, 119
9, 199712, Control_c, 6, 7, 119
9, 199720, Control_c, 6, 7, 119
9, 199728, Control_c, 6, 7, 119
9, 199736, Control_c, 6, 7, 119
9, 199744, Control_c, 6, 7, 119
9, 199752, Control_c, 6, 7, 119
9, 199760, Control_c, 6, 7, 119
9, 199768, Control_c, 6, 7, 120
9, 199776, Control_c, 6, 7, 120
9, 199784, Control_c, 6, 7, 120
9, 199792, Control_c, 6, 7, 120
9, 199800, Control_c, 6, 7, 120
9, 199808, Control_c, 6, 7, 120
9, 199816, Control_c, 6, 7, 120
9, 199824, Control_c, 6, 7, 120
9, 199832, Control_c, 6, 7, 120
9, 199840, Control_c, 6, 7, 120
9, 199848, Control_c, 6, 7, 120
9, 199856, Control_c, 6, 7, 120
9, 199864, Control_c, 6, 7, 121
9, 199872, Control_c, 6, 7, 121
9, 199880, Control_c, 6, 7, 121
9, 199888, Control_c, 6, 7, 121
9, 199896, Control_c, 6, 7, 121
9, 199904, Control_c, 6, 7, 121
9, 199912, Control_c, 6, 7, 121
9, 199920, Control_c, 6, 7, 121
9, 199928, Control_c, 6, 7, 119
9, 199936, Control_c, 6, 7, 119
9, 199944, Control_c, 6, 7, 117
9, 199952, Control_c, 6, 7, 117
9, 199960, Control_c, 6, 7, 117
9, 199968, Control_c, 6, 7, 117
9, 199976, Control_c, 6, 7, 117
9, 199984, Control_c, 6, 7, 117
9, 199992, Control_c, 6, 7, 116
9, 200000, Control_c, 6, 7, 116
9, 200008, Control_c, 6, 7, 114
9, 200016, Control_c, 6, 7, 114
9, 200024, Control_c, 6, 7, 114
9, 200032, Control_c, 6, 7, 114
9, 200040, Control_c, 6, 7, 114
9, 200048, Control_c, 6, 7, 114
9, 200056, Control_c, 6, 7, 114
9, 200064, Control_c, 6, 7, 115
9, 200072, Control_c, 6, 7, 115
9, 200080, Control_c, 6, 7, 113
9, 200088, Control_c, 6, 7, 113
9, 200096, Control_c, 6, 7, 112
9, 200104, Control_c, 6, 7, 112
9, 200112, Control_c, 6, 7, 112
9, 200120, Control_c, 6, 7, 112
9, 200128, Control_c, 6, 7, 112
9, 200136, Control_c, 6, 7, 111
9, 200144, Control_c, 6, 7, 112
9, 200152, Control_c, 6, 7, 112
9, 200160, Control_c, 6, 7, 111
9, 200168, Control_c, 6, 7, 110
9, 200176, Control_c, 6, 7, 109
9, 200184, Control_c, 6, 7, 108
9, 200192, Control_c, 6, 7, 107
9, 200200, Control_c, 6, 7, 107
9, 200208, Control_c, 6, 7, 107
9, 200216, Control_c, 6, 7, 106
9, 200224, Control_c, 6, 7, 106
9, 200232, Control_c, 6, 7, 106
9, 200240, Control_c, 6, 7, 106
9, 200248, Control_c, 6, 7, 106
9, 200256, Control_c, 6, 7, 106
9, 200264, Control_c, 6, 7, 106
9, 200272, Control_c, 6, 7, 105
9, 200280, Control_c, 6, 7, 105
9, 200288, Control_c, 6, 7, 105
9, 200296, Control_c, 6, 7, 105
9, 200304, Control_c, 6, 7, 105
9, 200312, Control_c, 6, 7, 104
9, 200320, Control_c, 6, 7, 105
9, 200328, Control_c, 6, 7, 105
9, 200336, Control_c, 6, 7, 105
9, 200344, Control_c, 6, 7, 105
9, 200352, Control_c, 6, 7, 105
9, 200360, Control_c, 6, 7, 105
9, 200368, Control_c, 6, 7, 106
9, 200376, Control_c, 6, 7, 106
9, 200384, Control_c, 6, 7, 106
9, 200392, Control_c, 6, 7, 106
9, 200400, Control_c, 6, 7, 106
9, 200408, Control_c, 6, 7, 105
9, 200416, Control_c, 6, 7, 105
9, 200424, Control_c, 6, 7, 106
9, 200432, Control_c, 6, 7, 106
9, 200440, Control_c, 6, 7, 106
9, 200448, Control_c, 6, 7, 106
9, 200456, Control_c, 6, 7, 106
9, 200464, Control_c, 6, 7, 106
9, 200472, Control_c, 6, 7, 105
9, 200480, Control_c, 6, 7, 105
9, 200488, Control_c, 6, 7, 105
9, 200496, Control_c, 6, 7, 105
9, 200504, Control_c, 6, 7, 105
9, 200512, Control_c, 6, 7, 105
9, 200520, Control_c, 6, 7, 106
9, 200528, Control_c, 6, 7, 106
9, 200536, Control_c, 6, 7, 106
9, 200544, Control_c, 6, 7, 106
9, 200552, Control_c, 6, 7, 106
9, 200560, Control_c, 6, 7, 106
9, 200568, Control_c, 6, 7, 106
9, 200576, Control_c, 6, 7, 106
9, 200584, Control_c, 6, 7, 106
9, 200592, Control_c, 6, 7, 105
9, 200600, Control_c, 6, 7, 105
9, 200608, Control_c, 6, 7, 105
9, 200616, Control_c, 6, 7, 105
9, 200624, Control_c, 6, 7, 105
9, 200632, Control_c, 6, 7, 105
9, 200640, Control_c, 6, 7, 104
9, 200648, Control_c, 6, 7, 104
9, 200656, Control_c, 6, 7, 103
9, 200664, Control_c, 6, 7, 103
9, 200672, Control_c, 6, 7, 104
9, 200680, Control_c, 6, 7, 103
9, 200688, Control_c, 6, 7, 102
9, 200696, Control_c, 6, 7, 102
9, 200704, Control_c, 6, 7, 102
9, 200712, Control_c, 6, 7, 102
9, 200720, Control_c, 6, 7, 102
9, 200728, Control_c, 6, 7, 102
9, 200736, Control_c, 6, 7, 102
9, 200744, Control_c, 6, 7, 102
9, 200752, Control_c, 6, 7, 102
9, 200760, Control_c, 6, 7, 102
9, 200768, Control_c, 6, 7, 102
9, 200776, Control_c, 6, 7, 102
9, 200784, Control_c, 6, 7, 102
9, 200792, Control_c, 6, 7, 102
9, 200800, Control_c, 6, 7, 102
9, 200808, Control_c, 6, 7, 101
9, 200816, Control_c, 6, 7, 101
9, 200824, Control_c, 6, 7, 99
9, 200832, Control_c, 6, 7, 99
9, 200840, Control_c, 6, 7, 99
9, 200848, Control_c, 6, 7, 99
9, 200856, Control_c, 6, 7, 99
9, 200864, Control_c, 6, 7, 99
9, 200872, Control_c, 6, 7, 98
9, 200880, Control_c, 6, 7, 98
9, 200888, Control_c, 6, 7, 98
9, 200896, Control_c, 6, 7, 98
9, 200904, Control_c, 6, 7, 98
9, 200912, Control_c, 6, 7, 98
9, 200920, Control_c, 6, 7, 98
9, 200928, Control_c, 6, 7, 97
9, 200936, Control_c, 6, 7, 96
9, 200944, Control_c, 6, 7, 94
9, 200952, Control_c, 6, 7, 95
9, 200960, Control_c, 6, 7, 94
9, 200968, Control_c, 6, 7, 93
9, 200976, Control_c, 6, 7, 92
9, 200984, Control_c, 6, 7, 91
9, 200992, Control_c, 6, 7, 90
9, 201000, Control_c, 6, 7, 90
9, 201008, Control_c, 6, 7, 84
9, 201016, Control_c, 6, 7, 84
9, 201024, Control_c, 6, 7, 84
9, 201032, Control_c, 6, 7, 84
9, 201040, Control_c, 6, 7, 84
9, 201048, Control_c, 6, 7, 83
9, 201056, Control_c, 6, 7, 82
9, 201064, Control_c, 6, 7, 78
9, 201072, Control_c, 6, 7, 73
9, 201080, Control_c, 6, 7, 73
9, 201088, Control_c, 6, 7, 73
9, 201096, Control_c, 6, 7, 73
9, 201104, Control_c, 6, 7, 73
9, 201112, Control_c, 6, 7, 73
9, 201120, Control_c, 6, 7, 71
9, 201128, Control_c, 6, 7, 66
9, 201136, Control_c, 6, 7, 64
9, 201144, Control_c, 6, 7, 64
9, 201152, Control_c, 6, 7, 64
9, 201160, Control_c, 6, 7, 64
9, 201168, Control_c, 6, 7, 64
9, 201176, Control_c, 6, 7, 63
9, 201184, Control_c, 6, 7, 61
9, 201192, Control_c, 6, 7, 61
9, 201200, Control_c, 6, 7, 56
9, 201208, Control_c, 6, 7, 56
9, 201216, Control_c, 6, 7, 55
9, 201224, Control_c, 6, 7, 53
9, 201232, Control_c, 6, 7, 52
9, 201240, Control_c, 6, 7, 49
9, 201248, Control_c, 6, 7, 49
9, 201256, Control_c, 6, 7, 48
9, 201264, Control_c, 6, 7, 44
9, 201272, Control_c, 6, 7, 44
9, 201280, Control_c, 6, 7, 44
9, 201288, Control_c, 6, 7, 39
9, 201296, Control_c, 6, 7, 39
9, 201304, Control_c, 6, 7, 38
9, 201312, Control_c, 6, 7, 37
9, 201320, Control_c, 6, 7, 35
9, 201328, Control_c, 6, 7, 36
9, 201336, Control_c, 6, 7, 34
9, 201344, Control_c, 6, 7, 34
9, 201352, Control_c, 6, 7, 34
9, 201360, Control_c, 6, 7, 32
9, 201368, Control_c, 6, 7, 32
9, 201376, Control_c, 6, 7, 32
9, 201384, Control_c, 6, 7, 32
9, 201392, Control_c, 6, 7, 32
9, 201400, Control_c, 6, 7, 32
9, 201408, Note_on_c, 6, 77, 0
9, 201408, Control_c, 6, 7, 33
9, 201416, Control_c, 6, 7, 32
9, 201424, Control_c, 6, 7, 32
9, 201432, Control_c, 6, 7, 32
9, 201440, Control_c, 6, 7, 32
9, 201448, Control_c, 6, 7, 33
9, 201456, Control_c, 6, 7, 33
9, 201464, Control_c, 6, 7, 33
9, 201472, Control_c, 6, 7, 33
9, 201480, Control_c, 6, 7, 32
9, 201488, Control_c, 6, 7, 31
9, 201496, Control_c, 6, 7, 31
9, 201504, Control_c, 6, 7, 31
9, 201512, Control_c, 6, 7, 31
9, 201520, Control_c, 6, 7, 30
9, 201528, Control_c, 6, 7, 30
9, 201536, Control_c, 6, 7, 30
9, 201544, Control_c, 6, 7, 30
9, 201552, Control_c, 6, 7, 30
9, 201560, Control_c, 6, 7, 30
9, 201568, Control_c, 6, 7, 31
9, 201576, Control_c, 6, 7, 31
9, 201584, Control_c, 6, 7, 31
9, 201592, Control_c, 6, 7, 31
9, 201600, Control_c, 6, 7, 31
9, 201608, Control_c, 6, 7, 31
9, 201616, Control_c, 6, 7, 31
9, 201624, Control_c, 6, 7, 31
9, 201632, Control_c, 6, 7, 31
9, 201640, Control_c, 6, 7, 31
9, 201648, Control_c, 6, 7, 31
9, 201656, Control_c, 6, 7, 31
9, 201664, Control_c, 6, 7, 31
9, 201672, Control_c, 6, 7, 31
9, 201680, Control_c, 6, 7, 31
9, 201688, Control_c, 6, 7, 31
9, 201696, Control_c, 6, 7, 31
9, 201704, Control_c, 6, 7, 31
9, 201712, Control_c, 6, 7, 31
9, 201720, Control_c, 6, 7, 31
9, 201728, Control_c, 6, 7, 31
9, 201736, Control_c, 6, 7, 31
9, 201744, Control_c, 6, 7, 31
9, 201752, Control_c, 6, 7, 31
9, 201760, Control_c, 6, 7, 32
9, 201768, Control_c, 6, 7, 34
9, 201776, Control_c, 6, 7, 35
9, 201784, Control_c, 6, 7, 36
9, 201792, Control_c, 6, 7, 37
9, 201800, Control_c, 6, 7, 38
9, 201808, Control_c, 6, 7, 44
9, 201816, Control_c, 6, 7, 60
9, 201824, Control_c, 6, 7, 61
9, 201832, Control_c, 6, 7, 62
9, 201840, Control_c, 6, 7, 63
9, 201848, Control_c, 6, 7, 86
9, 201856, Control_c, 6, 7, 92
9, 201864, Control_c, 6, 7, 96
9, 201872, Control_c, 6, 7, 104
9, 201880, Control_c, 6, 7, 100
9, 203993, Control_c, 6, 7, 102
9, 204000, Note_on_c, 6, 79, 71
9, 204000, Note_on_c, 6, 67, 71
9, 204033, Control_c, 6, 7, 101
9, 204073, Control_c, 6, 7, 100
9, 204113, Control_c, 6, 7, 99
9, 204153, Control_c, 6, 7, 98
9, 204193, Control_c, 6, 7, 97
9, 204233, Control_c, 6, 7, 96
9, 204273, Control_c, 6, 7, 95
9, 204301, Control_c, 6, 7, 94
9, 204341, Control_c, 6, 7, 93
9, 204381, Control_c, 6, 7, 92
9, 204421, Control_c, 6, 7, 91
9, 204461, Control_c, 6, 7, 90
9, 204501, Control_c, 6, 7, 89
9, 204541, Control_c, 6, 7, 88
9, 204565, Control_c, 6, 7, 87
9, 204605, Control_c, 6, 7, 86
9, 204645, Control_c, 6, 7, 85
9, 204685, Control_c, 6, 7, 84
9, 204725, Control_c, 6, 7, 83
9, 204765, Control_c, 6, 7, 82
9, 204805, Control_c, 6, 7, 81
9, 204833, Control_c, 6, 7, 80
9, 204873, Control_c, 6, 7, 79
9, 204913, Control_c, 6, 7, 78
9, 204953, Control_c, 6, 7, 77
9, 204993, Control_c, 6, 7, 76
9, 205033, Control_c, 6, 7, 75
9, 205073, Control_c, 6, 7, 74
9, 205113, Control_c, 6, 7, 73
9, 205141, Control_c, 6, 7, 72
9, 205181, Control_c, 6, 7, 71
9, 205221, Control_c, 6, 7, 70
9, 205261, Control_c, 6, 7, 69
9, 205301, Control_c, 6, 7, 68
9, 205341, Control_c, 6, 7, 67
9, 205381, Control_c, 6, 7, 66
9, 205405, Control_c, 6, 7, 65
9, 205445, Control_c, 6, 7, 64
9, 205485, Control_c, 6, 7, 63
9, 205525, Control_c, 6, 7, 62
9, 205565, Control_c, 6, 7, 61
9, 205605, Control_c, 6, 7, 60
9, 205645, Control_c, 6, 7, 59
9, 205673, Control_c, 6, 7, 58
9, 205713, Control_c, 6, 7, 57
9, 205753, Control_c, 6, 7, 56
9, 205793, Control_c, 6, 7, 55
9, 205833, Control_c, 6, 7, 54
9, 205873, Control_c, 6, 7, 53
9, 205913, Control_c, 6, 7, 52
9, 205941, Control_c, 6, 7, 51
9, 205981, Control_c, 6, 7, 50
9, 206021, Control_c, 6, 7, 49
9, 206061, Control_c, 6, 7, 48
9, 206101, Control_c, 6, 7, 47
9, 206141, Control_c, 6, 7, 46
9, 206181, Control_c, 6, 7, 45
9, 206221, Control_c, 6, 7, 44
9, 206245, Control_c, 6, 7, 43
9, 206285, Control_c, 6, 7, 42
9, 206325, Control_c, 6, 7, 41
9, 206365, Control_c, 6, 7, 40
9, 206405, Control_c, 6, 7, 39
9, 206445, Control_c, 6, 7, 38
9, 206485, Control_c, 6, 7, 37
9, 206513, Control_c, 6, 7, 36
9, 206553, Control_c, 6, 7, 35
9, 206593, Control_c, 6, 7, 34
9, 206633, Control_c, 6, 7, 33
9, 206673, Control_c, 6, 7, 32
9, 206713, Control_c, 6, 7, 31
9, 206753, Control_c, 6, 7, 30
9, 206781, Control_c, 6, 7, 29
9, 206821, Control_c, 6, 7, 28
9, 206861, Control_c, 6, 7, 27
9, 206901, Control_c, 6, 7, 26
9, 206941, Control_c, 6, 7, 25
9, 206981, Control_c, 6, 7, 24
9, 207021, Control_c, 6, 7, 23
9, 207061, Control_c, 6, 7, 22
9, 207085, Control_c, 6, 7, 21
9, 207125, Control_c, 6, 7, 20
9, 207165, Control_c, 6, 7, 19
9, 207205, Control_c, 6, 7, 18
9, 207245, Control_c, 6, 7, 17
9, 207285, Control_c, 6, 7, 16
9, 207325, Control_c, 6, 7, 15
9, 207353, Control_c, 6, 7, 14
9, 207393, Control_c, 6, 7, 13
9, 207433, Control_c, 6, 7, 12
9, 207473, Control_c, 6, 7, 11
9, 207513, Control_c, 6, 7, 10
9, 207553, Control_c, 6, 7, 9
9, 207593, Control_c, 6, 7, 8
9, 207621, Control_c, 6, 7, 7
9, 207661, Control_c, 6, 7, 6
9, 207701, Control_c, 6, 7, 5
9, 207741, Control_c, 6, 7, 4
9, 207780, Note_on_c, 6, 67, 0
9, 207780, Note_on_c, 6, 79, 0
9, 207781, Control_c, 6, 7, 3
9, 207821, Control_c, 6, 7, 2
9, 207861, Control_c, 6, 7, 1
9, 207885, Control_c, 6, 7, 0
9, 207901, Control_c, 6, 7, 101
9, 228240, Note_on_c, 6, 70, 40
9, 228240, Note_on_c, 6, 58, 40
9, 228336, Note_on_c, 6, 58, 0
9, 228336, Note_on_c, 6, 70, 0
9, 228480, Note_on_c, 6, 70, 40
9, 228480, Note_on_c, 6, 58, 40
9, 228576, Note_on_c, 6, 58, 0
9, 228576, Note_on_c, 6, 70, 0
9, 228720, Note_on_c, 6, 70, 40
9, 228720, Note_on_c, 6, 58, 40
9, 228816, Note_on_c, 6, 58, 0
9, 228816, Note_on_c, 6, 70, 0
9, 228960, Note_on_c, 6, 58, 40
9, 228960, Note_on_c, 6, 70, 40
9, 229056, Note_on_c, 6, 70, 0
9, 229056, Note_on_c, 6, 58, 0
9, 229200, Note_on_c, 6, 70, 40
9, 229200, Note_on_c, 6, 58, 40
9, 229296, Note_on_c, 6, 58, 0
9, 229296, Note_on_c, 6, 70, 0
9, 229440, Note_on_c, 6, 70, 46
9, 229440, Note_on_c, 6, 58, 46
9, 229536, Note_on_c, 6, 58, 0
9, 229536, Note_on_c, 6, 70, 0
9, 229680, Note_on_c, 6, 70, 46
9, 229680, Note_on_c, 6, 58, 46
9, 229776, Note_on_c, 6, 58, 0
9, 229776, Note_on_c, 6, 70, 0
9, 229920, Note_on_c, 6, 58, 53
9, 229920, Note_on_c, 6, 70, 53
9, 230016, Note_on_c, 6, 70, 0
9, 230016, Note_on_c, 6, 58, 0
9, 230160, Note_on_c, 6, 58, 53
9, 230160, Note_on_c, 6, 70, 53
9, 230208, Note_on_c, 6, 70, 0
9, 230208, Note_on_c, 6, 58, 0
9, 230280, Note_on_c, 6, 70, 53
9, 230280, Note_on_c, 6, 58, 53
9, 230328, Note_on_c, 6, 58, 0
9, 230328, Note_on_c, 6, 70, 0
9, 230400, Note_on_c, 6, 58, 48
9, 230400, Note_on_c, 6, 70, 48
9, 230448, Note_on_c, 6, 70, 0
9, 230448, Note_on_c, 6, 58, 0
9, 230520, Note_on_c, 6, 70, 51
9, 230520, Note_on_c, 6, 58, 51
9, 230568, Note_on_c, 6, 58, 0
9, 230568, Note_on_c, 6, 70, 0
9, 230640, Note_on_c, 6, 70, 53
9, 230640, Note_on_c, 6, 58, 53
9, 230688, Note_on_c, 6, 58, 0
9, 230688, Note_on_c, 6, 70, 0
9, 230760, Note_on_c, 6, 70, 56
9, 230760, Note_on_c, 6, 58, 56
9, 230808, Note_on_c, 6, 58, 0
9, 230808, Note_on_c, 6, 70, 0
9, 230880, Note_on_c, 6, 58, 48
9, 230880, Note_on_c, 6, 70, 48
9, 230928, Note_on_c, 6, 70, 0
9, 230928, Note_on_c, 6, 58, 0
9, 231000, Note_on_c, 6, 70, 51
9, 231000, Note_on_c, 6, 58, 51
9, 231048, Note_on_c, 6, 58, 0
9, 231048, Note_on_c, 6, 70, 0
9, 231120, Note_on_c, 6, 58, 53
9, 231120, Note_on_c, 6, 70, 53
9, 231168, Note_on_c, 6, 70, 0
9, 231168, Note_on_c, 6, 58, 0
9, 231240, Note_on_c, 6, 58, 56
9, 231240, Note_on_c, 6, 70, 56
9, 231288, Note_on_c, 6, 70, 0
9, 231288, Note_on_c, 6, 58, 0
9, 231360, Note_on_c, 6, 70, 55
9, 231360, Note_on_c, 6, 58, 55
9, 231408, Note_on_c, 6, 58, 0
9, 231408, Note_on_c, 6, 70, 0
9, 231480, Note_on_c, 6, 70, 59
9, 231480, Note_on_c, 6, 58, 59
9, 231528, Note_on_c, 6, 58, 0
9, 231528, Note_on_c, 6, 70, 0
9, 231600, Note_on_c, 6, 58, 61
9, 231600, Note_on_c, 6, 70, 61
9, 231648, Note_on_c, 6, 70, 0
9, 231648, Note_on_c, 6, 58, 0
9, 231720, Note_on_c, 6, 58, 64
9, 231720, Note_on_c, 6, 70, 64
9, 231768, Note_on_c, 6, 70, 0
9, 231768, Note_on_c, 6, 58, 0
9, 231840, Note_on_c, 6, 70, 55
9, 231840, Note_on_c, 6, 58, 55
9, 231888, Note_on_c, 6, 58, 0
9, 231888, Note_on_c, 6, 70, 0
9, 231960, Note_on_c, 6, 58, 59
9, 231960, Note_on_c, 6, 70, 59
9, 232008, Note_on_c, 6, 70, 0
9, 232008, Note_on_c, 6, 58, 0
9, 232080, Note_on_c, 6, 58, 61
9, 232080, Note_on_c, 6, 70, 61
9, 232128, Note_on_c, 6, 70, 0
9, 232128, Note_on_c, 6, 58, 0
9, 232200, Note_on_c, 6, 70, 64
9, 232200, Note_on_c, 6, 58, 64
9, 232248, Note_on_c, 6, 58, 0
9, 232248, Note_on_c, 6, 70, 0
9, 232320, Note_on_c, 6, 58, 63
9, 232320, Note_on_c, 6, 70, 63
9, 232368, Note_on_c, 6, 70, 0
9, 232368, Note_on_c, 6, 58, 0
9, 232440, Note_on_c, 6, 58, 68
9, 232440, Note_on_c, 6, 70, 68
9, 232488, Note_on_c, 6, 70, 0
9, 232488, Note_on_c, 6, 58, 0
9, 232560, Note_on_c, 6, 70, 70
9, 232560, Note_on_c, 6, 58, 70
9, 232608, Note_on_c, 6, 58, 0
9, 232608, Note_on_c, 6, 70, 0
9, 232680, Note_on_c, 6, 58, 74
9, 232680, Note_on_c, 6, 70, 74
9, 232728, Note_on_c, 6, 70, 0
9, 232728, Note_on_c, 6, 58, 0
9, 232800, Note_on_c, 6, 58, 63
9, 232800, Note_on_c, 6, 70, 63
9, 232848, Note_on_c, 6, 70, 0
9, 232848, Note_on_c, 6, 58, 0
9, 232920, Note_on_c, 6, 70, 68
9, 232920, Note_on_c, 6, 58, 68
9, 232968, Note_on_c, 6, 58, 0
9, 232968, Note_on_c, 6, 70, 0
9, 233040, Note_on_c, 6, 70, 70
9, 233040, Note_on_c, 6, 58, 70
9, 233088, Note_on_c, 6, 58, 0
9, 233088, Note_on_c, 6, 70, 0
9, 233160, Note_on_c, 6, 70, 74
9, 233160, Note_on_c, 6, 58, 74
9, 233208, Note_on_c, 6, 58, 0
9, 233208, Note_on_c, 6, 70, 0
9, 233280, Note_on_c, 6, 58, 72
9, 233280, Note_on_c, 6, 70, 72
9, 233328, Note_on_c, 6, 70, 0
9, 233328, Note_on_c, 6, 58, 0
9, 233400, Note_on_c, 6, 70, 78
9, 233400, Note_on_c, 6, 58, 78
9, 233448, Note_on_c, 6, 58, 0
9, 233448, Note_on_c, 6, 70, 0
9, 233520, Note_on_c, 6, 70, 81
9, 233520, Note_on_c, 6, 58, 81
9, 233568, Note_on_c, 6, 58, 0
9, 233568, Note_on_c, 6, 70, 0
9, 233640, Note_on_c, 6, 58, 85
9, 233640, Note_on_c, 6, 70, 85
9, 233688, Note_on_c, 6, 70, 0
9, 233688, Note_on_c, 6, 58, 0
9, 233760, Note_on_c, 6, 70, 72
9, 233760, Note_on_c, 6, 58, 72
9, 233808, Note_on_c, 6, 58, 0
9, 233808, Note_on_c, 6, 70, 0
9, 233880, Note_on_c, 6, 58, 78
9, 233880, Note_on_c, 6, 70, 78
9, 233928, Note_on_c, 6, 70, 0
9, 233928, Note_on_c, 6, 58, 0
9, 234000, Note_on_c, 6, 58, 81
9, 234000, Note_on_c, 6, 70, 81
9, 234048, Note_on_c, 6, 70, 0
9, 234048, Note_on_c, 6, 58, 0
9, 234120, Note_on_c, 6, 70, 85
9, 234120, Note_on_c, 6, 58, 85
9, 234168, Note_on_c, 6, 58, 0
9, 234168, Note_on_c, 6, 70, 0
9, 234240, Note_on_c, 6, 58, 83
9, 234240, Note_on_c, 6, 70, 104
9, 234288, Note_on_c, 6, 70, 0
9, 234288, Note_on_c, 6, 58, 0
9, 234360, Note_on_c, 6, 70, 113
9, 234360, Note_on_c, 6, 58, 90
9, 234408, Note_on_c, 6, 58, 0
9, 234408, Note_on_c, 6, 70, 0
9, 234480, Note_on_c, 6, 70, 116
9, 234480, Note_on_c, 6, 58, 93
9, 234528, Note_on_c, 6, 58, 0
9, 234528, Note_on_c, 6, 70, 0
9, 234600, Note_on_c, 6, 58, 98
9, 234600, Note_on_c, 6, 70, 123
9, 234648, Note_on_c, 6, 70, 0
9, 234648, Note_on_c, 6, 58, 0
9, 234720, Note_on_c, 6, 70, 104
9, 234720, Note_on_c, 6, 58, 83
9, 234768, Note_on_c, 6, 58, 0
9, 234768, Note_on_c, 6, 70, 0
9, 234840, Note_on_c, 6, 58, 90
9, 234840, Note_on_c, 6, 70, 113
9, 234888, Note_on_c, 6, 70, 0
9, 234888, Note_on_c, 6, 58, 0
9, 234960, Note_on_c, 6, 58, 93
9, 234960, Note_on_c, 6, 70, 116
9, 235008, Note_on_c, 6, 70, 0
9, 235008, Note_on_c, 6, 58, 0
9, 235080, Note_on_c, 6, 70, 123
9, 235080, Note_on_c, 6, 58, 98
9, 235128, Note_on_c, 6, 58, 0
9, 235128, Note_on_c, 6, 70, 0
9, 273600, Note_on_c, 6, 70, 80
9, 273600, Note_on_c, 6, 77, 80
9, 277248, Note_on_c, 6, 77, 0
9, 277248, Note_on_c, 6, 70, 0
9, 277440, Note_on_c, 6, 75, 92
9, 277440, Note_on_c, 6, 63, 95
9, 277514, Note_on_c, 6, 63, 0
9, 277524, Note_on_c, 6, 75, 0
9, 277680, Note_on_c, 6, 75, 95
9, 277680, Note_on_c, 6, 63, 102
9, 277924, Note_on_c, 6, 63, 0
9, 277936, Note_on_c, 6, 75, 0
9, 278160, Note_on_c, 6, 63, 83
9, 278160, Note_on_c, 6, 75, 90
9, 278242, Note_on_c, 6, 75, 0
9, 278246, Note_on_c, 6, 63, 0
9, 278400, Note_on_c, 6, 75, 100
9, 278400, Note_on_c, 6, 63, 94
9, 279162, Note_on_c, 6, 75, 0
9, 279164, Note_on_c, 6, 63, 0
9, 279360, Note_on_c, 6, 63, 92
9, 279360, Note_on_c, 6, 75, 94
9, 279440, Note_on_c, 6, 63, 0
9, 279442, Note_on_c, 6, 75, 0
9, 279600, Note_on_c, 6, 63, 94
9, 279600, Note_on_c, 6, 75, 97
9, 279870, Note_on_c, 6, 63, 0
9, 279880, Note_on_c, 6, 75, 0
9, 280080, Note_on_c, 6, 63, 81
9, 280080, Note_on_c, 6, 75, 92
9, 280170, Note_on_c, 6, 75, 0
9, 280170, Note_on_c, 6, 63, 0
9, 280320, Note_on_c, 6, 75, 102
9, 280320, Note_on_c, 6, 63, 98
9, 281056, Note_on_c, 6, 75, 0
9, 281066, Note_on_c, 6, 63, 0
9, 281280, Note_on_c, 6, 75, 106
9, 281280, Note_on_c, 6, 63, 106
9, 281594, Note_on_c, 6, 75, 0
9, 281600, Note_on_c, 6, 63, 0
9, 281760, Note_on_c, 6, 75, 73
9, 281760, Note_on_c, 6, 63, 66
9, 281830, Note_on_c, 6, 75, 0
9, 281842, Note_on_c, 6, 63, 0
9, 282000, Note_on_c, 6, 75, 80
9, 282000, Note_on_c, 6, 63, 73
9, 282084, Note_on_c, 6, 63, 0
9, 282090, Note_on_c, 6, 75, 0
9, 282240, Note_on_c, 6, 75, 106
9, 282240, Note_on_c, 6, 63, 106
9, 282554, Note_on_c, 6, 75, 0
9, 282560, Note_on_c, 6, 63, 0
9, 282720, Note_on_c, 6, 75, 73
9, 282720, Note_on_c, 6, 63, 66
9, 282790, Note_on_c, 6, 75, 0
9, 282802, Note_on_c, 6, 63, 0
9, 282960, Note_on_c, 6, 75, 80
9, 282960, Note_on_c, 6, 63, 73
9, 283044, Note_on_c, 6, 63, 0
9, 283050, Note_on_c, 6, 75, 0
9, 283200, Note_on_c, 6, 75, 106
9, 283200, Note_on_c, 6, 63, 106
9, 283514, Note_on_c, 6, 75, 0
9, 283520, Note_on_c, 6, 63, 0
9, 283680, Note_on_c, 6, 75, 73
9, 283680, Note_on_c, 6, 63, 66
9, 283750, Note_on_c, 6, 75, 0
9, 283762, Note_on_c, 6, 63, 0
9, 283920, Note_on_c, 6, 75, 80
9, 283920, Note_on_c, 6, 63, 73
9, 284004, Note_on_c, 6, 63, 0
9, 284010, Note_on_c, 6, 75, 0
9, 284160, Note_on_c, 6, 75, 106
9, 284160, Note_on_c, 6, 63, 106
9, 284474, Note_on_c, 6, 75, 0
9, 284480, Note_on_c, 6, 63, 0
9, 285120, Note_on_c, 6, 75, 106
9, 285120, Note_on_c, 6, 63, 106
9, 285434, Note_on_c, 6, 75, 0
9, 285440, Note_on_c, 6, 63, 0
9, 285600, Note_on_c, 6, 75, 73
9, 285600, Note_on_c, 6, 63, 66
9, 285670, Note_on_c, 6, 75, 0
9, 285682, Note_on_c, 6, 63, 0
9, 285840, Note_on_c, 6, 75, 80
9, 285840, Note_on_c, 6, 63, 73
9, 285924, Note_on_c, 6, 63, 0
9, 285930, Note_on_c, 6, 75, 0
9, 286080, Note_on_c, 6, 75, 106
9, 286080, Note_on_c, 6, 63, 106
9, 286394, Note_on_c, 6, 75, 0
9, 286400, Note_on_c, 6, 63, 0
9, 286560, Note_on_c, 6, 75, 73
9, 286560, Note_on_c, 6, 63, 66
9, 286630, Note_on_c, 6, 75, 0
9, 286642, Note_on_c, 6, 63, 0
9, 286800, Note_on_c, 6, 75, 80
9, 286800, Note_on_c, 6, 63, 73
9, 286884, Note_on_c, 6, 63, 0
9, 286890, Note_on_c, 6, 75, 0
9, 287040, Note_on_c, 6, 75, 106
9, 287040, Note_on_c, 6, 63, 106
9, 287354, Note_on_c, 6, 75, 0
9, 287360, Note_on_c, 6, 63, 0
9, 287520, Note_on_c, 6, 75, 73
9, 287520, Note_on_c, 6, 63, 66
9, 287590, Note_on_c, 6, 75, 0
9, 287602, Note_on_c, 6, 63, 0
9, 287760, Note_on_c, 6, 75, 80
9, 287760, Note_on_c, 6, 63, 73
9, 287844, Note_on_c, 6, 63, 0
9, 287850, Note_on_c, 6, 75, 0
9, 288000, Note_on_c, 6, 75, 106
9, 288000, Note_on_c, 6, 63, 106
9, 288314, Note_on_c, 6, 75, 0
9, 288320, Note_on_c, 6, 63, 0
9, 288960, Note_on_c, 6, 75, 106
9, 288960, Note_on_c, 6, 63, 106
9, 289274, Note_on_c, 6, 75, 0
9, 289280, Note_on_c, 6, 63, 0
9, 292800, Note_on_c, 6, 70, 106
9, 292800, Note_on_c, 6, 58, 106
9, 293114, Note_on_c, 6, 70, 0
9, 293120, Note_on_c, 6, 58, 0
9, 293760, Note_on_c, 6, 70, 106
9, 293760, Note_on_c, 6, 58, 106
9, 294074, Note_on_c, 6, 70, 0
9, 294080, Note_on_c, 6, 58, 0
9, 296640, Note_on_c, 6, 75, 106
9, 296640, Note_on_c, 6, 63, 106
9, 296954, Note_on_c, 6, 75, 0
9, 296960, Note_on_c, 6, 63, 0
9, 297600, Note_on_c, 6, 75, 106
9, 297600, Note_on_c, 6, 63, 106
9, 297914, Note_on_c, 6, 75, 0
9, 297920, Note_on_c, 6, 63, 0
9, 298560, Note_on_c, 6, 75, 106
9, 298560, Note_on_c, 6, 63, 106
9, 298874, Note_on_c, 6, 75, 0
9, 298880, Note_on_c, 6, 63, 0
9, 299520, Note_on_c, 6, 58, 80
9, 299520, Note_on_c, 6, 70, 80
9, 299834, Note_on_c, 6, 70, 0
9, 299840, Note_on_c, 6, 58, 0
9, 300000, Note_on_c, 6, 58, 80
9, 300000, Note_on_c, 6, 70, 80
9, 300314, Note_on_c, 6, 70, 0
9, 300320, Note_on_c, 6, 58, 0
9, 300480, Note_on_c, 6, 63, 80
9, 300480, Note_on_c, 6, 75, 80
9, 300794, Note_on_c, 6, 75, 0
9, 300800, Note_on_c, 6, 63, 0
9, 300960, Note_on_c, 6, 63, 80
9, 300960, Note_on_c, 6, 75, 80
9, 301274, Note_on_c, 6, 75, 0
9, 301280, Note_on_c, 6, 63, 0
9, 301440, Note_on_c, 6, 58, 80
9, 301440, Note_on_c, 6, 70, 80
9, 301754, Note_on_c, 6, 70, 0
9, 301760, Note_on_c, 6, 58, 0
9, 301920, Note_on_c, 6, 58, 80
9, 301920, Note_on_c, 6, 70, 80
9, 302234, Note_on_c, 6, 70, 0
9, 302240, Note_on_c, 6, 58, 0
9, 302400, Note_on_c, 6, 58, 80
9, 302400, Note_on_c, 6, 70, 80
9, 302714, Note_on_c, 6, 70, 0
9, 302720, Note_on_c, 6, 58, 0
9, 302880, Note_on_c, 6, 58, 80
9, 302880, Note_on_c, 6, 70, 80
9, 303194, Note_on_c, 6, 70, 0
9, 303200, Note_on_c, 6, 58, 0
9, 303360, Note_on_c, 6, 58, 80
9, 303360, Note_on_c, 6, 70, 80
9, 303674, Note_on_c, 6, 70, 0
9, 303680, Note_on_c, 6, 58, 0
9, 303840, Note_on_c, 6, 58, 80
9, 303840, Note_on_c, 6, 70, 80
9, 304154, Note_on_c, 6, 70, 0
9, 304160, Note_on_c, 6, 58, 0
9, 304320, Note_on_c, 6, 63, 80
9, 304320, Note_on_c, 6, 75, 80
9, 304634, Note_on_c, 6, 75, 0
9, 304640, Note_on_c, 6, 63, 0
9, 304800, Note_on_c, 6, 63, 80
9, 304800, Note_on_c, 6, 75, 80
9, 305114, Note_on_c, 6, 75, 0
9, 305120, Note_on_c, 6, 63, 0
9, 305280, Note_on_c, 6, 58, 80
9, 305280, Note_on_c, 6, 70, 80
9, 305594, Note_on_c, 6, 70, 0
9, 305600, Note_on_c, 6, 58, 0
9, 305760, Note_on_c, 6, 58, 80
9, 305760, Note_on_c, 6, 70, 80
9, 306074, Note_on_c, 6, 70, 0
9, 306080, Note_on_c, 6, 58, 0
9, 306240, Note_on_c, 6, 58, 80
9, 306240, Note_on_c, 6, 70, 80
9, 306554, Note_on_c, 6, 70, 0
9, 306560, Note_on_c, 6, 58, 0
9, 306720, Note_on_c, 6, 58, 80
9, 306720, Note_on_c, 6, 70, 80
9, 307034, Note_on_c, 6, 70, 0
9, 307040, Note_on_c, 6, 58, 0
9, 307200, Note_on_c, 6, 70, 80
9, 307200, Note_on_c, 6, 58, 80
9, 307514, Note_on_c, 6, 70, 0
9, 307520, Note_on_c, 6, 58, 0
9, 331680, Note_on_c, 6, 70, 52
9, 331680, Note_on_c, 6, 58, 52
9, 331952, Note_on_c, 6, 58, 0
9, 331952, Note_on_c, 6, 70, 0
9, 332160, Note_on_c, 6, 70, 54
9, 332414, Note_on_c, 6, 70, 0
9, 332640, Note_on_c, 6, 70, 52
9, 332862, Note_on_c, 6, 70, 0
9, 333120, Note_on_c, 6, 70, 41
9, 333396, Note_on_c, 6, 70, 0
9, 334080, Note_on_c, 6, 63, 56
9, 334080, Note_on_c, 6, 75, 56
9, 334848, Note_on_c, 6, 75, 0
9, 334848, Note_on_c, 6, 63, 0
9, 335040, Note_on_c, 6, 70, 56
9, 335040, Note_on_c, 6, 58, 56
9, 335808, Note_on_c, 6, 58, 0
9, 335808, Note_on_c, 6, 70, 0
9, 336960, Note_on_c, 6, 67, 56
9, 336960, Note_on_c, 6, 55, 56
9, 337728, Note_on_c, 6, 55, 0
9, 337728, Note_on_c, 6, 67, 0
9, 353280, Note_on_c, 6, 63, 60
9, 353280, Note_on_c, 6, 75, 60
9, 353664, Note_on_c, 6, 75, 0
9, 353664, Note_on_c, 6, 63, 0
9, 353760, Note_on_c, 6, 75, 80
9, 353760, Note_on_c, 6, 63, 60
9, 354000, Note_on_c, 6, 63, 0
9, 354000, Note_on_c, 6, 75, 0
9, 354720, Note_on_c, 6, 75, 80
9, 354720, Note_on_c, 6, 63, 60
9, 354960, Note_on_c, 6, 63, 0
9, 354960, Note_on_c, 6, 75, 0
9, 355680, Note_on_c, 6, 75, 80
9, 355680, Note_on_c, 6, 63, 60
9, 355920, Note_on_c, 6, 63, 0
9, 355920, Note_on_c, 6, 75, 0
9, 356640, Note_on_c, 6, 75, 80
9, 356640, Note_on_c, 6, 63, 60
9, 356880, Note_on_c, 6, 63, 0
9, 356880, Note_on_c, 6, 75, 0
9, 357600, Note_on_c, 6, 75, 80
9, 357600, Note_on_c, 6, 63, 60
9, 357840, Note_on_c, 6, 63, 0
9, 357840, Note_on_c, 6, 75, 0
9, 358560, Note_on_c, 6, 75, 80
9, 358560, Note_on_c, 6, 63, 60
9, 358800, Note_on_c, 6, 63, 0
9, 358800, Note_on_c, 6, 75, 0
9, 359520, Note_on_c, 6, 75, 80
9, 359520, Note_on_c, 6, 63, 60
9, 359760, Note_on_c, 6, 63, 0
9, 359760, Note_on_c, 6, 75, 0
9, 360480, Note_on_c, 6, 75, 80
9, 360480, Note_on_c, 6, 63, 60
9, 360720, Note_on_c, 6, 63, 0
9, 360720, Note_on_c, 6, 75, 0
9, 360960, Note_on_c, 6, 58, 60
9, 360960, Note_on_c, 6, 70, 80
9, 361200, Note_on_c, 6, 70, 0
9, 361200, Note_on_c, 6, 58, 0
9, 362880, Note_on_c, 6, 58, 60
9, 362880, Note_on_c, 6, 70, 80
9, 363120, Note_on_c, 6, 70, 0
9, 363120, Note_on_c, 6, 58, 0
9, 363360, Note_on_c, 6, 58, 60
9, 363360, Note_on_c, 6, 70, 80
9, 363600, Note_on_c, 6, 70, 0
9, 363600, Note_on_c, 6, 58, 0
9, 363840, Note_on_c, 6, 58, 60
9, 363840, Note_on_c, 6, 70, 80
9, 364080, Note_on_c, 6, 70, 0
9, 364080, Note_on_c, 6, 58, 0
9, 364320, Note_on_c, 6, 58, 60
9, 364320, Note_on_c, 6, 70, 80
9, 364560, Note_on_c, 6, 70, 0
9, 364560, Note_on_c, 6, 58, 0
9, 364800, Note_on_c, 6, 63, 60
9, 364800, Note_on_c, 6, 51, 60
9, 365184, Note_on_c, 6, 51, 0
9, 365184, Note_on_c, 6, 63, 0
9, 365280, Note_on_c, 6, 75, 80
9, 365280, Note_on_c, 6, 63, 60
9, 365520, Note_on_c, 6, 63, 0
9, 365520, Note_on_c, 6, 75, 0
9, 366240, Note_on_c, 6, 75, 80
9, 366240, Note_on_c, 6, 63, 60
9, 366480, Note_on_c, 6, 63, 0
9, 366480, Note_on_c, 6, 75, 0
9, 367200, Note_on_c, 6, 75, 80
9, 367200, Note_on_c, 6, 63, 60
9, 367440, Note_on_c, 6, 63, 0
9, 367440, Note_on_c, 6, 75, 0
9, 368160, Note_on_c, 6, 75, 80
9, 368160, Note_on_c, 6, 63, 60
9, 368400, Note_on_c, 6, 63, 0
9, 368400, Note_on_c, 6, 75, 0
9, 369120, Note_on_c, 6, 72, 80
9, 369120, Note_on_c, 6, 63, 60
9, 369360, Note_on_c, 6, 63, 0
9, 369360, Note_on_c, 6, 72, 0
9, 370080, Note_on_c, 6, 72, 80
9, 370080, Note_on_c, 6, 63, 60
9, 370320, Note_on_c, 6, 63, 0
9, 370320, Note_on_c, 6, 72, 0
9, 371040, Note_on_c, 6, 75, 80
9, 371040, Note_on_c, 6, 63, 60
9, 371280, Note_on_c, 6, 63, 0
9, 371280, Note_on_c, 6, 75, 0
9, 372000, Note_on_c, 6, 75, 80
9, 372000, Note_on_c, 6, 63, 60
9, 372240, Note_on_c, 6, 63, 0
9, 372240, Note_on_c, 6, 75, 0
9, 372960, Note_on_c, 6, 63, 60
9, 372960, Note_on_c, 6, 75, 80
9, 373200, Note_on_c, 6, 75, 0
9, 373200, Note_on_c, 6, 63, 0
9, 373920, Note_on_c, 6, 63, 60
9, 373920, Note_on_c, 6, 75, 80
9, 374160, Note_on_c, 6, 75, 0
9, 374160, Note_on_c, 6, 63, 0
9, 374880, Note_on_c, 6, 63, 60
9, 374880, Note_on_c, 6, 75, 80
9, 375120, Note_on_c, 6, 75, 0
9, 375120, Note_on_c, 6, 63, 0
9, 375840, Note_on_c, 6, 63, 60
9, 375840, Note_on_c, 6, 75, 80
9, 376080, Note_on_c, 6, 75, 0
9, 376080, Note_on_c, 6, 63, 0
9, 376800, Note_on_c, 6, 75, 80
9, 376800, Note_on_c, 6, 63, 60
9, 377040, Note_on_c, 6, 63, 0
9, 377040, Note_on_c, 6, 75, 0
9, 377760, Note_on_c, 6, 75, 80
9, 377760, Note_on_c, 6, 63, 60
9, 378000, Note_on_c, 6, 63, 0
9, 378000, Note_on_c, 6, 75, 0
9, 378720, Note_on_c, 6, 63, 60
9, 378720, Note_on_c, 6, 75, 80
9, 378960, Note_on_c, 6, 75, 0
9, 378960, Note_on_c, 6, 63, 0
9, 379680, Note_on_c, 6, 63, 60
9, 379680, Note_on_c, 6, 75, 80
9, 379920, Note_on_c, 6, 75, 0
9, 379920, Note_on_c, 6, 63, 0
9, 380640, Note_on_c, 6, 58, 60
9, 380640, Note_on_c, 6, 70, 80
9, 380880, Note_on_c, 6, 70, 0
9, 380880, Note_on_c, 6, 58, 0
9, 381600, Note_on_c, 6, 58, 60
9, 381600, Note_on_c, 6, 70, 80
9, 381840, Note_on_c, 6, 70, 0
9, 381840, Note_on_c, 6, 58, 0
9, 382560, Note_on_c, 6, 58, 60
9, 382560, Note_on_c, 6, 70, 80
9, 382800, Note_on_c, 6, 70, 0
9, 382800, Note_on_c, 6, 58, 0
9, 383520, Note_on_c, 6, 70, 80
9, 383520, Note_on_c, 6, 58, 60
9, 383760, Note_on_c, 6, 58, 0
9, 383760, Note_on_c, 6, 70, 0
9, 384480, Note_on_c, 6, 58, 60
9, 384480, Note_on_c, 6, 70, 80
9, 384720, Note_on_c, 6, 70, 0
9, 384720, Note_on_c, 6, 58, 0
9, 385440, Note_on_c, 6, 58, 60
9, 385440, Note_on_c, 6, 70, 80
9, 385680, Note_on_c, 6, 70, 0
9, 385680, Note_on_c, 6, 58, 0
9, 385920, Note_on_c, 6, 58, 60
9, 385920, Note_on_c, 6, 70, 80
9, 386160, Note_on_c, 6, 70, 0
9, 386160, Note_on_c, 6, 58, 0
9, 386400, Note_on_c, 6, 70, 80
9, 386400, Note_on_c, 6, 58, 60
9, 386640, Note_on_c, 6, 58, 0
9, 386640, Note_on_c, 6, 70, 0
9, 386880, Note_on_c, 6, 70, 80
9, 386880, Note_on_c, 6, 58, 60
9, 387120, Note_on_c, 6, 58, 0
9, 387120, Note_on_c, 6, 70, 0
9, 387360, Note_on_c, 6, 70, 80
9, 387360, Note_on_c, 6, 58, 60
9, 387600, Note_on_c, 6, 58, 0
9, 387600, Note_on_c, 6, 70, 0
9, 387840, Note_on_c, 6, 58, 60
9, 387840, Note_on_c, 6, 70, 80
9, 389760, Note_on_c, 6, 70, 0
9, 389760, Note_on_c, 6, 58, 0
9, 417120, Note_on_c, 6, 75, 120
9, 417120, Note_on_c, 6, 63, 120
9, 418500, Note_on_c, 6, 63, 0
9, 418500, Note_on_c, 6, 75, 0
9, 418560, Note_on_c, 6, 58, 120
9, 418560, Note_on_c, 6, 70, 120
9, 418944, Note_on_c, 6, 70, 0
9, 418944, Note_on_c, 6, 58, 0
9, 420000, Note_on_c, 6, 58, 120
9, 420000, Note_on_c, 6, 70, 120
9, 420120, Note_on_c, 6, 70, 0
9, 420120, Note_on_c, 6, 58, 0
9, 420240, Note_on_c, 6, 70, 120
9, 420240, Note_on_c, 6, 58, 120
9, 420360, Note_on_c, 6, 58, 0
9, 420360, Note_on_c, 6, 70, 0
9, 420480, Note_on_c, 6, 63, 120
9, 420480, Note_on_c, 6, 75, 120
9, 420720, Note_on_c, 6, 75, 0
9, 420720, Note_on_c, 6, 63, 0
9, 421920, Note_on_c, 6, 70, 120
9, 421920, Note_on_c, 6, 58, 120
9, 422040, Note_on_c, 6, 58, 0
9, 422040, Note_on_c, 6, 70, 0
9, 422160, Note_on_c, 6, 70, 120
9, 422160, Note_on_c, 6, 58, 120
9, 422280, Note_on_c, 6, 58, 0
9, 422280, Note_on_c, 6, 70, 0
9, 422400, Note_on_c, 6, 63, 120
9, 422400, Note_on_c, 6, 75, 120
9, 422640, Note_on_c, 6, 75, 0
9, 422640, Note_on_c, 6, 63, 0
9, 423840, Note_on_c, 6, 58, 120
9, 423840, Note_on_c, 6, 70, 120
9, 423960, Note_on_c, 6, 70, 0
9, 423960, Note_on_c, 6, 58, 0
9, 424080, Note_on_c, 6, 70, 120
9, 424080, Note_on_c, 6, 58, 120
9, 424200, Note_on_c, 6, 58, 0
9, 424200, Note_on_c, 6, 70, 0
9, 424320, Note_on_c, 6, 63, 120
9, 424320, Note_on_c, 6, 75, 120
9, 424560, Note_on_c, 6, 75, 0
9, 424560, Note_on_c, 6, 63, 0
9, 425760, Note_on_c, 6, 58, 120
9, 425760, Note_on_c, 6, 70, 120
9, 425880, Note_on_c, 6, 70, 0
9, 425880, Note_on_c, 6, 58, 0
9, 426000, Note_on_c, 6, 70, 120
9, 426000, Note_on_c, 6, 58, 120
9, 426120, Note_on_c, 6, 58, 0
9, 426120, Note_on_c, 6, 70, 0
9, 426240, Note_on_c, 6, 63, 120
9, 426240, Note_on_c, 6, 75, 120
9, 426480, Note_on_c, 6, 75, 0
9, 426480, Note_on_c, 6, 63, 0
9, 427680, Note_on_c, 6, 58, 120
9, 427680, Note_on_c, 6, 70, 120
9, 427800, Note_on_c, 6, 70, 0
9, 427800, Note_on_c, 6, 58, 0
9, 427920, Note_on_c, 6, 70, 120
9, 427920, Note_on_c, 6, 58, 120
9, 428040, Note_on_c, 6, 58, 0
9, 428040, Note_on_c, 6, 70, 0
9, 428160, Note_on_c, 6, 63, 68
9, 428160, Note_on_c, 6, 75, 68
9, 428400, Note_on_c, 6, 75, 0
9, 428400, Note_on_c, 6, 63, 0
9, 429120, Note_on_c, 6, 63, 68
9, 429120, Note_on_c, 6, 75, 68
9, 430020, Note_on_c, 6, 75, 0
9, 430020, Note_on_c, 6, 63, 0
9, 430080, Note_on_c, 6, 63, 68
9, 430080, Note_on_c, 6, 75, 68
9, 430320, Note_on_c, 6, 75, 0
9, 430320, Note_on_c, 6, 63, 0
9, 431040, Note_on_c, 6, 63, 68
9, 431040, Note_on_c, 6, 75, 68
9, 431940, Note_on_c, 6, 75, 0
9, 431940, Note_on_c, 6, 63, 0
9, 432000, Note_on_c, 6, 63, 68
9, 432000, Note_on_c, 6, 75, 99
9, 432120, Note_on_c, 6, 75, 0
9, 432120, Note_on_c, 6, 63, 0
9, 432240, Note_on_c, 6, 75, 68
9, 432240, Note_on_c, 6, 63, 68
9, 432360, Note_on_c, 6, 63, 0
9, 432360, Note_on_c, 6, 75, 0
9, 432480, Note_on_c, 6, 75, 68
9, 432480, Note_on_c, 6, 63, 68
9, 432600, Note_on_c, 6, 63, 0
9, 432600, Note_on_c, 6, 75, 0
9, 432960, Note_on_c, 6, 63, 68
9, 432960, Note_on_c, 6, 75, 99
9, 433080, Note_on_c, 6, 75, 0
9, 433080, Note_on_c, 6, 63, 0
9, 433200, Note_on_c, 6, 63, 68
9, 433200, Note_on_c, 6, 75, 68
9, 433320, Note_on_c, 6, 75, 0
9, 433320, Note_on_c, 6, 63, 0
9, 433440, Note_on_c, 6, 63, 68
9, 433440, Note_on_c, 6, 75, 68
9, 433560, Note_on_c, 6, 75, 0
9, 433560, Note_on_c, 6, 63, 0
9, 433920, Note_on_c, 6, 58, 68
9, 433920, Note_on_c, 6, 70, 99
9, 434040, Note_on_c, 6, 70, 0
9, 434040, Note_on_c, 6, 58, 0
9, 434160, Note_on_c, 6, 58, 68
9, 434160, Note_on_c, 6, 70, 68
9, 434280, Note_on_c, 6, 70, 0
9, 434280, Note_on_c, 6, 58, 0
9, 434400, Note_on_c, 6, 70, 68
9, 434400, Note_on_c, 6, 58, 68
9, 434520, Note_on_c, 6, 58, 0
9, 434520, Note_on_c, 6, 70, 0
9, 434880, Note_on_c, 6, 58, 68
9, 434880, Note_on_c, 6, 70, 99
9, 435000, Note_on_c, 6, 70, 0
9, 435000, Note_on_c, 6, 58, 0
9, 435120, Note_on_c, 6, 58, 68
9, 435120, Note_on_c, 6, 70, 68
9, 435240, Note_on_c, 6, 70, 0
9, 435240, Note_on_c, 6, 58, 0
9, 435360, Note_on_c, 6, 58, 68
9, 435360, Note_on_c, 6, 70, 68
9, 435480, Note_on_c, 6, 70, 0
9, 435480, Note_on_c, 6, 58, 0
9, 435840, Note_on_c, 6, 75, 68
9, 435840, Note_on_c, 6, 63, 68
9, 436080, Note_on_c, 6, 63, 0
9, 436080, Note_on_c, 6, 75, 0
9, 436800, Note_on_c, 6, 63, 68
9, 436800, Note_on_c, 6, 75, 68
9, 437700, Note_on_c, 6, 75, 0
9, 437700, Note_on_c, 6, 63, 0
9, 437760, Note_on_c, 6, 63, 68
9, 437760, Note_on_c, 6, 75, 68
9, 438000, Note_on_c, 6, 75, 0
9, 438000, Note_on_c, 6, 63, 0
9, 438720, Note_on_c, 6, 63, 68
9, 438720, Note_on_c, 6, 75, 68
9, 439620, Note_on_c, 6, 75, 0
9, 439620, Note_on_c, 6, 63, 0
9, 439680, Note_on_c, 6, 63, 68
9, 439680, Note_on_c, 6, 75, 99
9, 439800, Note_on_c, 6, 75, 0
9, 439800, Note_on_c, 6, 63, 0
9, 439920, Note_on_c, 6, 75, 68
9, 439920, Note_on_c, 6, 63, 68
9, 440040, Note_on_c, 6, 63, 0
9, 440040, Note_on_c, 6, 75, 0
9, 440160, Note_on_c, 6, 75, 68
9, 440160, Note_on_c, 6, 63, 68
9, 440280, Note_on_c, 6, 63, 0
9, 440280, Note_on_c, 6, 75, 0
9, 440640, Note_on_c, 6, 63, 68
9, 440640, Note_on_c, 6, 75, 99
9, 440760, Note_on_c, 6, 75, 0
9, 440760, Note_on_c, 6, 63, 0
9, 440880, Note_on_c, 6, 63, 68
9, 440880, Note_on_c, 6, 75, 68
9, 441000, Note_on_c, 6, 75, 0
9, 441000, Note_on_c, 6, 63, 0
9, 441120, Note_on_c, 6, 63, 68
9, 441120, Note_on_c, 6, 75, 68
9, 441240, Note_on_c, 6, 75, 0
9, 441240, Note_on_c, 6, 63, 0
9, 441600, Note_on_c, 6, 58, 68
9, 441600, Note_on_c, 6, 70, 99
9, 441720, Note_on_c, 6, 70, 0
9, 441720, Note_on_c, 6, 58, 0
9, 441840, Note_on_c, 6, 58, 68
9, 441840, Note_on_c, 6, 70, 68
9, 441960, Note_on_c, 6, 70, 0
9, 441960, Note_on_c, 6, 58, 0
9, 442080, Note_on_c, 6, 70, 68
9, 442080, Note_on_c, 6, 58, 68
9, 442200, Note_on_c, 6, 58, 0
9, 442200, Note_on_c, 6, 70, 0
9, 442560, Note_on_c, 6, 58, 68
9, 442560, Note_on_c, 6, 70, 99
9, 442680, Note_on_c, 6, 70, 0
9, 442680, Note_on_c, 6, 58, 0
9, 442800, Note_on_c, 6, 58, 68
9, 442800, Note_on_c, 6, 70, 68
9, 442920, Note_on_c, 6, 70, 0
9, 442920, Note_on_c, 6, 58, 0
9, 443040, Note_on_c, 6, 58, 68
9, 443040, Note_on_c, 6, 70, 68
9, 443160, Note_on_c, 6, 70, 0
9, 443160, Note_on_c, 6, 58, 0
9, 443520, Note_on_c, 6, 63, 96
9, 443520, Note_on_c, 6, 75, 96
9, 443760, Note_on_c, 6, 75, 0
9, 443760, Note_on_c, 6, 63, 0
9, 446400, Note_on_c, 6, 70, 96
9, 446400, Note_on_c, 6, 58, 96
9, 446640, Note_on_c, 6, 58, 0
9, 446640, Note_on_c, 6, 70, 0
9, 446880, Note_on_c, 6, 70, 96
9, 446880, Note_on_c, 6, 58, 96
9, 447000, Note_on_c, 6, 58, 0
9, 447000, Note_on_c, 6, 70, 0
9, 447120, Note_on_c, 6, 70, 96
9, 447120, Note_on_c, 6, 58, 96
9, 447240, Note_on_c, 6, 58, 0
9, 447240, Note_on_c, 6, 70, 0
9, 447360, Note_on_c, 6, 63, 96
9, 447360, Note_on_c, 6, 75, 96
9, 447600, Note_on_c, 6, 75, 0
9, 447600, Note_on_c, 6, 63, 0
9, 450240, Note_on_c, 6, 70, 96
9, 450240, Note_on_c, 6, 58, 96
9, 450480, Note_on_c, 6, 58, 0
9, 450480, Note_on_c, 6, 70, 0
9, 450720, Note_on_c, 6, 70, 96
9, 450720, Note_on_c, 6, 58, 96
9, 450840, Note_on_c, 6, 58, 0
9, 450840, Note_on_c, 6, 70, 0
9, 450960, Note_on_c, 6, 70, 96
9, 450960, Note_on_c, 6, 58, 96
9, 451080, Note_on_c, 6, 58, 0
9, 451080, Note_on_c, 6, 70, 0
9, 451200, Note_on_c, 6, 63, 96
9, 451200, Note_on_c, 6, 75, 96
9, 451440, Note_on_c, 6, 75, 0
9, 451440, Note_on_c, 6, 63, 0
9, 454080, Note_on_c, 6, 70, 96
9, 454080, Note_on_c, 6, 58, 96
9, 454320, Note_on_c, 6, 58, 0
9, 454320, Note_on_c, 6, 70, 0
9, 454560, Note_on_c, 6, 70, 96
9, 454560, Note_on_c, 6, 58, 96
9, 454680, Note_on_c, 6, 58, 0
9, 454680, Note_on_c, 6, 70, 0
9, 454800, Note_on_c, 6, 70, 96
9, 454800, Note_on_c, 6, 58, 96
9, 454920, Note_on_c, 6, 58, 0
9, 454920, Note_on_c, 6, 70, 0
9, 455040, Note_on_c, 6, 63, 96
9, 455040, Note_on_c, 6, 75, 96
9, 455280, Note_on_c, 6, 75, 0
9, 455280, Note_on_c, 6, 63, 0
9, 457920, Note_on_c, 6, 70, 96
9, 457920, Note_on_c, 6, 58, 96
9, 458160, Note_on_c, 6, 58, 0
9, 458160, Note_on_c, 6, 70, 0
9, 458400, Note_on_c, 6, 70, 96
9, 458400, Note_on_c, 6, 58, 96
9, 458520, Note_on_c, 6, 58, 0
9, 458520, Note_on_c, 6, 70, 0
9, 458640, Note_on_c, 6, 70, 96
9, 458640, Note_on_c, 6, 58, 96
9, 458760, Note_on_c, 6, 58, 0
9, 458760, Note_on_c, 6, 70, 0
9, 458880, Note_on_c, 6, 63, 80
9, 459264, Note_on_c, 6, 63, 0
9, 460800, Note_on_c, 6, 63, 80
9, 460992, Note_on_c, 6, 63, 0
9, 461280, Note_on_c, 6, 67, 80
9, 461472, Note_on_c, 6, 67, 0
9, 461760, Note_on_c, 6, 70, 80
9, 461952, Note_on_c, 6, 70, 0
9, 462240, Note_on_c, 6, 75, 80
9, 462432, Note_on_c, 6, 75, 0
9, 462720, Note_on_c, 6, 79, 96
9, 462912, Note_on_c, 6, 79, 0
9, 463200, Note_on_c, 6, 75, 96
9, 463392, Note_on_c, 6, 75, 0
9, 463680, Note_on_c, 6, 70, 96
9, 463872, Note_on_c, 6, 70, 0
9, 464160, Note_on_c, 6, 67, 96
9, 464352, Note_on_c, 6, 67, 0
9, 464640, Note_on_c, 6, 63, 96
9, 464832, Note_on_c, 6, 63, 0
9, 465120, Note_on_c, 6, 67, 96
9, 465312, Note_on_c, 6, 67, 0
9, 465600, Note_on_c, 6, 70, 96
9, 465792, Note_on_c, 6, 70, 0
9, 466080, Note_on_c, 6, 75, 96
9, 466272, Note_on_c, 6, 75, 0
9, 466560, Note_on_c, 6, 79, 115
9, 466752, Note_on_c, 6, 79, 0
9, 467040, Note_on_c, 6, 75, 115
9, 467232, Note_on_c, 6, 75, 0
9, 467520, Note_on_c, 6, 70, 115
9, 467712, Note_on_c, 6, 70, 0
9, 468000, Note_on_c, 6, 67, 115
9, 468192, Note_on_c, 6, 67, 0
9, 468480, Note_on_c, 6, 63, 115
9, 468672, Note_on_c, 6, 63, 0
9, 468960, Note_on_c, 6, 67, 115
9, 469152, Note_on_c, 6, 67, 0
9, 469440, Note_on_c, 6, 70, 115
9, 469632, Note_on_c, 6, 70, 0
9, 469920, Note_on_c, 6, 75, 115
9, 470112, Note_on_c, 6, 75, 0
9, 470400, Note_on_c, 6, 67, 127
9, 470592, Note_on_c, 6, 67, 0
9, 470880, Note_on_c, 6, 70, 127
9, 471072, Note_on_c, 6, 70, 0
9, 471360, Note_on_c, 6, 75, 127
9, 471360, Note_on_c, 6, 63, 127
9, 471552, Note_on_c, 6, 63, 0
9, 471552, Note_on_c, 6, 75, 0
9, 471840, Note_on_c, 6, 67, 127
9, 471840, Note_on_c, 6, 79, 127
9, 472032, Note_on_c, 6, 79, 0
9, 472032, Note_on_c, 6, 67, 0
9, 472320, Note_on_c, 6, 75, 127
9, 472320, Note_on_c, 6, 63, 127
9, 472512, Note_on_c, 6, 63, 0
9, 472512, Note_on_c, 6, 75, 0
9, 472800, Note_on_c, 6, 82, 127
9, 472800, Note_on_c, 6, 70, 127
9, 472992, Note_on_c, 6, 70, 0
9, 472992, Note_on_c, 6, 82, 0
9, 473280, Note_on_c, 6, 79, 127
9, 473280, Note_on_c, 6, 67, 127
9, 473472, Note_on_c, 6, 67, 0
9, 473472, Note_on_c, 6, 79, 0
9, 473760, Note_on_c, 6, 75, 127
9, 473760, Note_on_c, 6, 63, 127
9, 473952, Note_on_c, 6, 63, 0
9, 473952, Note_on_c, 6, 75, 0
9, 474240, Note_on_c, 6, 70, 80
9, 474240, Note_on_c, 6, 82, 80
9, 474336, Note_on_c, 6, 82, 0
9, 474336, Note_on_c, 6, 70, 0
9, 474480, Note_on_c, 6, 82, 80
9, 474480, Note_on_c, 6, 70, 80
9, 474864, Note_on_c, 6, 70, 0
9, 474864, Note_on_c, 6, 82, 0
9, 474960, Note_on_c, 6, 82, 80
9, 474960, Note_on_c, 6, 70, 80
9, 475056, Note_on_c, 6, 70, 0
9, 475056, Note_on_c, 6, 82, 0
9, 475200, Note_on_c, 6, 70, 80
9, 475200, Note_on_c, 6, 82, 80
9, 475968, Note_on_c, 6, 82, 0
9, 475968, Note_on_c, 6, 70, 0
9, 478320, Note_on_c, 6, 82, 80
9, 478320, Note_on_c, 6, 70, 80
9, 478416, Note_on_c, 6, 70, 0
9, 478416, Note_on_c, 6, 82, 0
9, 478560, Note_on_c, 6, 70, 80
9, 478560, Note_on_c, 6, 82, 80
9, 478944, Note_on_c, 6, 82, 0
9, 478944, Note_on_c, 6, 70, 0
9, 479040, Note_on_c, 6, 70, 80
9, 479040, Note_on_c, 6, 82, 80
9, 479136, Note_on_c, 6, 82, 0
9, 479136, Note_on_c, 6, 70, 0
9, 479280, Note_on_c, 6, 82, 80
9, 479280, Note_on_c, 6, 70, 80
9, 480048, Note_on_c, 6, 70, 0
9, 480048, Note_on_c, 6, 82, 0
9, 482400, Note_on_c, 6, 70, 80
9, 482400, Note_on_c, 6, 77, 80
9, 482784, Note_on_c, 6, 77, 0
9, 482784, Note_on_c, 6, 70, 0
9, 483360, Note_on_c, 6, 70, 80
9, 483360, Note_on_c, 6, 77, 80
9, 483744, Note_on_c, 6, 77, 0
9, 483744, Note_on_c, 6, 70, 0
9, 484320, Note_on_c, 6, 70, 80
9, 484320, Note_on_c, 6, 77, 80
9, 484704, Note_on_c, 6, 77, 0
9, 484704, Note_on_c, 6, 70, 0
9, 485280, Note_on_c, 6, 70, 80
9, 485280, Note_on_c, 6, 77, 80
9, 485664, Note_on_c, 6, 77, 0
9, 485664, Note_on_c, 6, 70, 0
9, 486240, Note_on_c, 6, 63, 127
9, 486240, Note_on_c, 6, 75, 127
9, 486384, Note_on_c, 6, 75, 0
9, 486384, Note_on_c, 6, 63, 0
9, 486720, Note_on_c, 6, 75, 127
9, 486720, Note_on_c, 6, 63, 127
9, 486864, Note_on_c, 6, 63, 0
9, 486864, Note_on_c, 6, 75, 0
9, 487200, Note_on_c, 6, 63, 127
9, 487200, Note_on_c, 6, 75, 127
9, 487344, Note_on_c, 6, 75, 0
9, 487344, Note_on_c, 6, 63, 0
9, 487680, Note_on_c, 6, 75, 127
9, 487680, Note_on_c, 6, 63, 127
9, 487824, Note_on_c, 6, 63, 0
9, 487824, Note_on_c, 6, 75, 0
9, 488160, Note_on_c, 6, 75, 127
9, 488160, Note_on_c, 6, 63, 127
9, 488304, Note_on_c, 6, 63, 0
9, 488304, Note_on_c, 6, 75, 0
9, 488640, Note_on_c, 6, 63, 127
9, 488640, Note_on_c, 6, 75, 127
9, 488784, Note_on_c, 6, 75, 0
9, 488784, Note_on_c, 6, 63, 0
9, 489120, Note_on_c, 6, 75, 127
9, 489120, Note_on_c, 6, 63, 127
9, 489264, Note_on_c, 6, 63, 0
9, 489264, Note_on_c, 6, 75, 0
9, 489600, Note_on_c, 6, 63, 127
9, 489600, Note_on_c, 6, 75, 127
9, 489744, Note_on_c, 6, 75, 0
9, 489744, Note_on_c, 6, 63, 0
9, 490080, Note_on_c, 6, 75, 127
9, 490080, Note_on_c, 6, 63, 127
9, 490224, Note_on_c, 6, 63, 0
9, 490224, Note_on_c, 6, 75, 0
9, 492000, Note_on_c, 6, 75, 127
9, 492000, Note_on_c, 6, 63, 127
9, 492144, Note_on_c, 6, 63, 0
9, 492144, Note_on_c, 6, 75, 0
9, 493920, Note_on_c, 6, 63, 127
9, 493920, Note_on_c, 6, 75, 127
9, 494064, Note_on_c, 6, 75, 0
9, 494064, Note_on_c, 6, 63, 0
9, 495000, Note_on_c, 6, 79, 127
9, 495000, Note_on_c, 6, 75, 127
9, 495144, Note_on_c, 6, 75, 0
9, 495144, Note_on_c, 6, 79, 0
9, 496080, Note_on_c, 6, 63, 127
9, 496080, Note_on_c, 6, 75, 127
9, 496224, Note_on_c, 6, 75, 0
9, 496224, Note_on_c, 6, 63, 0
9, 497160, Note_on_c, 6, 75, 127
9, 497160, Note_on_c, 6, 79, 127
9, 497304, Note_on_c, 6, 79, 0
9, 497304, Note_on_c, 6, 75, 0
9, 498360, Note_on_c, 6, 75, 127
9, 498360, Note_on_c, 6, 63, 127
9, 498504, Note_on_c, 6, 63, 0
9, 498504, Note_on_c, 6, 75, 0
9, 498504, End_track
10, 0, Start_track
10, 0, Title_t, "Timpani             "
10, 0, Program_c, 12, 47
10, 0, Control_c, 12, 7, 90
10, 0, Control_c, 12, 10, 64
10, 2880, Control_c, 12, 93, 100
10, 2880, Control_c, 12, 91, 100
10, 8640, Control_c, 12, 10, 20
10, 27840, Note_on_c, 12, 46, 110
10, 27880, Note_on_c, 12, 46, 0
10, 27880, Note_on_c, 12, 46, 110
10, 27920, Note_on_c, 12, 46, 0
10, 27920, Note_on_c, 12, 46, 110
10, 27960, Note_on_c, 12, 46, 0
10, 27960, Note_on_c, 12, 46, 110
10, 28000, Note_on_c, 12, 46, 0
10, 28000, Note_on_c, 12, 46, 110
10, 28040, Note_on_c, 12, 46, 0
10, 28040, Note_on_c, 12, 46, 110
10, 28080, Note_on_c, 12, 46, 0
10, 28080, Note_on_c, 12, 46, 110
10, 28120, Note_on_c, 12, 46, 0
10, 28120, Note_on_c, 12, 46, 110
10, 28160, Note_on_c, 12, 46, 0
10, 28160, Note_on_c, 12, 46, 110
10, 28200, Note_on_c, 12, 46, 0
10, 28200, Note_on_c, 12, 46, 110
10, 28240, Note_on_c, 12, 46, 0
10, 28240, Note_on_c, 12, 46, 110
10, 28280, Note_on_c, 12, 46, 0
10, 28280, Note_on_c, 12, 46, 110
10, 28320, Note_on_c, 12, 46, 0
10, 28320, Note_on_c, 12, 46, 110
10, 28360, Note_on_c, 12, 46, 0
10, 28360, Note_on_c, 12, 46, 110
10, 28400, Note_on_c, 12, 46, 0
10, 28400, Note_on_c, 12, 46, 110
10, 28440, Note_on_c, 12, 46, 0
10, 28440, Note_on_c, 12, 46, 110
10, 28480, Note_on_c, 12, 46, 0
10, 28480, Note_on_c, 12, 46, 110
10, 28520, Note_on_c, 12, 46, 0
10, 28520, Note_on_c, 12, 46, 110
10, 28560, Note_on_c, 12, 46, 0
10, 28560, Note_on_c, 12, 46, 110
10, 28600, Note_on_c, 12, 46, 0
10, 28600, Note_on_c, 12, 46, 110
10, 28640, Note_on_c, 12, 46, 0
10, 28640, Note_on_c, 12, 46, 110
10, 28680, Note_on_c, 12, 46, 0
10, 28680, Note_on_c, 12, 46, 110
10, 28720, Note_on_c, 12, 46, 0
10, 28720, Note_on_c, 12, 46, 110
10, 28760, Note_on_c, 12, 46, 0
10, 28800, Note_on_c, 12, 46, 110
10, 28840, Note_on_c, 12, 46, 0
10, 28840, Note_on_c, 12, 46, 110
10, 28880, Note_on_c, 12, 46, 0
10, 28880, Note_on_c, 12, 46, 110
10, 28920, Note_on_c, 12, 46, 0
10, 28920, Note_on_c, 12, 46, 110
10, 28960, Note_on_c, 12, 46, 0
10, 28960, Note_on_c, 12, 46, 110
10, 29000, Note_on_c, 12, 46, 0
10, 29000, Note_on_c, 12, 46, 110
10, 29040, Note_on_c, 12, 46, 0
10, 29040, Note_on_c, 12, 46, 110
10, 29080, Note_on_c, 12, 46, 0
10, 29080, Note_on_c, 12, 46, 110
10, 29120, Note_on_c, 12, 46, 0
10, 29120, Note_on_c, 12, 46, 110
10, 29160, Note_on_c, 12, 46, 0
10, 29160, Note_on_c, 12, 46, 110
10, 29200, Note_on_c, 12, 46, 0
10, 29200, Note_on_c, 12, 46, 110
10, 29240, Note_on_c, 12, 46, 0
10, 29240, Note_on_c, 12, 46, 110
10, 29280, Note_on_c, 12, 46, 0
10, 29280, Note_on_c, 12, 46, 110
10, 29320, Note_on_c, 12, 46, 0
10, 29320, Note_on_c, 12, 46, 110
10, 29360, Note_on_c, 12, 46, 0
10, 29360, Note_on_c, 12, 46, 110
10, 29400, Note_on_c, 12, 46, 0
10, 29400, Note_on_c, 12, 46, 110
10, 29440, Note_on_c, 12, 46, 0
10, 29440, Note_on_c, 12, 46, 110
10, 29480, Note_on_c, 12, 46, 0
10, 29480, Note_on_c, 12, 46, 127
10, 29520, Note_on_c, 12, 46, 0
10, 81360, Note_on_c, 12, 46, 120
10, 81552, Note_on_c, 12, 46, 0
10, 81600, Note_on_c, 12, 46, 120
10, 81792, Note_on_c, 12, 46, 0
10, 81840, Note_on_c, 12, 46, 120
10, 82032, Note_on_c, 12, 46, 0
10, 82080, Note_on_c, 12, 46, 120
10, 82272, Note_on_c, 12, 46, 0
10, 82320, Note_on_c, 12, 46, 120
10, 82512, Note_on_c, 12, 46, 0
10, 82560, Note_on_c, 12, 46, 120
10, 82752, Note_on_c, 12, 46, 0
10, 82800, Note_on_c, 12, 46, 120
10, 82992, Note_on_c, 12, 46, 0
10, 83040, Note_on_c, 12, 46, 120
10, 83232, Note_on_c, 12, 46, 0
10, 83280, Note_on_c, 12, 46, 120
10, 83472, Note_on_c, 12, 46, 0
10, 83520, Note_on_c, 12, 46, 120
10, 83712, Note_on_c, 12, 46, 0
10, 83760, Note_on_c, 12, 46, 120
10, 83952, Note_on_c, 12, 46, 0
10, 84000, Note_on_c, 12, 46, 120
10, 84192, Note_on_c, 12, 46, 0
10, 84240, Note_on_c, 12, 46, 120
10, 84432, Note_on_c, 12, 46, 0
10, 84480, Note_on_c, 12, 46, 120
10, 84672, Note_on_c, 12, 46, 0
10, 84720, Note_on_c, 12, 46, 120
10, 84912, Note_on_c, 12, 46, 0
10, 84960, Note_on_c, 12, 46, 120
10, 85152, Note_on_c, 12, 46, 0
10, 85200, Note_on_c, 12, 51, 120
10, 85392, Note_on_c, 12, 51, 0
10, 85440, Note_on_c, 12, 51, 120
10, 85632, Note_on_c, 12, 51, 0
10, 85680, Note_on_c, 12, 51, 120
10, 85872, Note_on_c, 12, 51, 0
10, 85920, Note_on_c, 12, 51, 120
10, 86112, Note_on_c, 12, 51, 0
10, 86160, Note_on_c, 12, 51, 120
10, 86544, Note_on_c, 12, 51, 0
10, 87120, Note_on_c, 12, 51, 120
10, 87312, Note_on_c, 12, 51, 0
10, 87360, Note_on_c, 12, 51, 120
10, 87552, Note_on_c, 12, 51, 0
10, 87600, Note_on_c, 12, 51, 120
10, 87792, Note_on_c, 12, 51, 0
10, 87840, Note_on_c, 12, 51, 120
10, 88032, Note_on_c, 12, 51, 0
10, 88080, Note_on_c, 12, 51, 120
10, 88464, Note_on_c, 12, 51, 0
10, 89040, Note_on_c, 12, 51, 120
10, 89424, Note_on_c, 12, 51, 0
10, 89520, Note_on_c, 12, 51, 120
10, 89712, Note_on_c, 12, 51, 0
10, 89760, Note_on_c, 12, 51, 120
10, 89952, Note_on_c, 12, 51, 0
10, 90000, Note_on_c, 12, 51, 120
10, 90384, Note_on_c, 12, 51, 0
10, 90480, Note_on_c, 12, 51, 120
10, 90672, Note_on_c, 12, 51, 0
10, 90720, Note_on_c, 12, 51, 120
10, 90912, Note_on_c, 12, 51, 0
10, 90960, Note_on_c, 12, 51, 120
10, 91344, Note_on_c, 12, 51, 0
10, 91440, Note_on_c, 12, 51, 120
10, 91632, Note_on_c, 12, 51, 0
10, 91680, Note_on_c, 12, 51, 120
10, 91872, Note_on_c, 12, 51, 0
10, 91920, Note_on_c, 12, 51, 120
10, 92304, Note_on_c, 12, 51, 0
10, 92880, Note_on_c, 12, 51, 120
10, 93264, Note_on_c, 12, 51, 0
10, 93360, Note_on_c, 12, 51, 120
10, 93552, Note_on_c, 12, 51, 0
10, 93600, Note_on_c, 12, 51, 120
10, 93792, Note_on_c, 12, 51, 0
10, 93840, Note_on_c, 12, 51, 120
10, 94224, Note_on_c, 12, 51, 0
10, 94320, Note_on_c, 12, 51, 120
10, 94512, Note_on_c, 12, 51, 0
10, 94560, Note_on_c, 12, 51, 120
10, 94752, Note_on_c, 12, 51, 0
10, 94800, Note_on_c, 12, 51, 120
10, 95184, Note_on_c, 12, 51, 0
10, 95280, Note_on_c, 12, 51, 120
10, 95472, Note_on_c, 12, 51, 0
10, 95520, Note_on_c, 12, 51, 120
10, 95712, Note_on_c, 12, 51, 0
10, 95760, Note_on_c, 12, 51, 120
10, 96144, Note_on_c, 12, 51, 0
10, 96720, Note_on_c, 12, 51, 120
10, 97104, Note_on_c, 12, 51, 0
10, 100560, Note_on_c, 12, 46, 120
10, 100944, Note_on_c, 12, 46, 0
10, 101520, Note_on_c, 12, 46, 120
10, 101904, Note_on_c, 12, 46, 0
10, 104400, Note_on_c, 12, 51, 120
10, 104784, Note_on_c, 12, 51, 0
10, 105360, Note_on_c, 12, 51, 120
10, 105744, Note_on_c, 12, 51, 0
10, 106320, Note_on_c, 12, 51, 120
10, 106704, Note_on_c, 12, 51, 0
10, 107280, Note_on_c, 12, 46, 120
10, 107664, Note_on_c, 12, 46, 0
10, 107760, Note_on_c, 12, 46, 120
10, 108144, Note_on_c, 12, 46, 0
10, 108240, Note_on_c, 12, 51, 120
10, 108624, Note_on_c, 12, 51, 0
10, 108720, Note_on_c, 12, 51, 120
10, 109104, Note_on_c, 12, 51, 0
10, 109200, Note_on_c, 12, 46, 120
10, 109584, Note_on_c, 12, 46, 0
10, 109680, Note_on_c, 12, 46, 120
10, 110064, Note_on_c, 12, 46, 0
10, 110160, Note_on_c, 12, 46, 120
10, 110544, Note_on_c, 12, 46, 0
10, 110640, Note_on_c, 12, 46, 120
10, 111024, Note_on_c, 12, 46, 0
10, 111120, Note_on_c, 12, 46, 120
10, 111504, Note_on_c, 12, 46, 0
10, 111600, Note_on_c, 12, 46, 120
10, 111984, Note_on_c, 12, 46, 0
10, 112080, Note_on_c, 12, 51, 120
10, 112464, Note_on_c, 12, 51, 0
10, 112560, Note_on_c, 12, 51, 120
10, 112944, Note_on_c, 12, 51, 0
10, 113040, Note_on_c, 12, 46, 120
10, 113424, Note_on_c, 12, 46, 0
10, 113520, Note_on_c, 12, 46, 120
10, 113904, Note_on_c, 12, 46, 0
10, 114000, Note_on_c, 12, 46, 120
10, 114384, Note_on_c, 12, 46, 0
10, 114480, Note_on_c, 12, 46, 120
10, 114864, Note_on_c, 12, 46, 0
10, 114960, Note_on_c, 12, 46, 120
10, 115344, Note_on_c, 12, 46, 0
10, 161040, Note_on_c, 12, 46, 80
10, 161424, Note_on_c, 12, 46, 0
10, 161520, Note_on_c, 12, 46, 100
10, 161904, Note_on_c, 12, 46, 0
10, 162480, Note_on_c, 12, 46, 100
10, 162864, Note_on_c, 12, 46, 0
10, 163440, Note_on_c, 12, 46, 100
10, 163824, Note_on_c, 12, 46, 0
10, 164400, Note_on_c, 12, 46, 100
10, 164784, Note_on_c, 12, 46, 0
10, 165360, Note_on_c, 12, 46, 100
10, 165744, Note_on_c, 12, 46, 0
10, 166320, Note_on_c, 12, 46, 100
10, 166704, Note_on_c, 12, 46, 0
10, 167280, Note_on_c, 12, 46, 100
10, 167664, Note_on_c, 12, 46, 0
10, 168240, Note_on_c, 12, 46, 100
10, 168624, Note_on_c, 12, 46, 0
10, 168720, Note_on_c, 12, 46, 100
10, 169104, Note_on_c, 12, 46, 0
10, 172560, Note_on_c, 12, 46, 80
10, 172944, Note_on_c, 12, 46, 0
10, 173040, Note_on_c, 12, 46, 100
10, 173424, Note_on_c, 12, 46, 0
10, 174000, Note_on_c, 12, 46, 100
10, 174384, Note_on_c, 12, 46, 0
10, 174960, Note_on_c, 12, 46, 100
10, 175344, Note_on_c, 12, 46, 0
10, 175920, Note_on_c, 12, 46, 100
10, 176304, Note_on_c, 12, 46, 0
10, 176880, Note_on_c, 12, 46, 100
10, 177264, Note_on_c, 12, 46, 0
10, 177840, Note_on_c, 12, 46, 100
10, 178224, Note_on_c, 12, 46, 0
10, 178800, Note_on_c, 12, 46, 100
10, 179184, Note_on_c, 12, 46, 0
10, 179760, Note_on_c, 12, 46, 100
10, 180144, Note_on_c, 12, 46, 0
10, 180240, Note_on_c, 12, 46, 100
10, 180624, Note_on_c, 12, 46, 0
10, 184080, Note_on_c, 12, 46, 100
10, 184464, Note_on_c, 12, 46, 0
10, 186000, Note_on_c, 12, 46, 100
10, 186384, Note_on_c, 12, 46, 0
10, 187920, Note_on_c, 12, 46, 100
10, 188304, Note_on_c, 12, 46, 0
10, 189840, Note_on_c, 12, 46, 100
10, 190224, Note_on_c, 12, 46, 0
10, 191760, Note_on_c, 12, 46, 100
10, 192144, Note_on_c, 12, 46, 0
10, 192720, Note_on_c, 12, 46, 100
10, 193104, Note_on_c, 12, 46, 0
10, 193680, Note_on_c, 12, 46, 100
10, 194064, Note_on_c, 12, 46, 0
10, 194640, Note_on_c, 12, 46, 100
10, 195024, Note_on_c, 12, 46, 0
10, 195600, Note_on_c, 12, 46, 100
10, 195984, Note_on_c, 12, 46, 0
10, 196080, Note_on_c, 12, 46, 100
10, 196464, Note_on_c, 12, 46, 0
10, 196560, Note_on_c, 12, 46, 100
10, 196944, Note_on_c, 12, 46, 0
10, 197040, Note_on_c, 12, 46, 100
10, 197424, Note_on_c, 12, 46, 0
10, 197520, Note_on_c, 12, 46, 100
10, 197904, Note_on_c, 12, 46, 0
10, 228240, Note_on_c, 12, 46, 40
10, 228432, Note_on_c, 12, 46, 0
10, 228480, Note_on_c, 12, 46, 40
10, 228672, Note_on_c, 12, 46, 0
10, 228720, Note_on_c, 12, 46, 40
10, 228912, Note_on_c, 12, 46, 0
10, 228960, Note_on_c, 12, 46, 40
10, 229152, Note_on_c, 12, 46, 0
10, 229200, Note_on_c, 12, 46, 40
10, 229392, Note_on_c, 12, 46, 0
10, 229440, Note_on_c, 12, 46, 46
10, 229632, Note_on_c, 12, 46, 0
10, 229680, Note_on_c, 12, 46, 46
10, 229872, Note_on_c, 12, 46, 0
10, 229920, Note_on_c, 12, 46, 53
10, 230112, Note_on_c, 12, 46, 0
10, 230160, Note_on_c, 12, 46, 53
10, 230256, Note_on_c, 12, 46, 0
10, 230280, Note_on_c, 12, 46, 53
10, 230376, Note_on_c, 12, 46, 0
10, 230400, Note_on_c, 12, 46, 48
10, 230448, Note_on_c, 12, 46, 0
10, 230520, Note_on_c, 12, 46, 51
10, 230568, Note_on_c, 12, 46, 0
10, 230640, Note_on_c, 12, 46, 53
10, 230688, Note_on_c, 12, 46, 0
10, 230760, Note_on_c, 12, 46, 56
10, 230808, Note_on_c, 12, 46, 0
10, 230880, Note_on_c, 12, 46, 48
10, 230928, Note_on_c, 12, 46, 0
10, 231000, Note_on_c, 12, 46, 51
10, 231048, Note_on_c, 12, 46, 0
10, 231120, Note_on_c, 12, 46, 53
10, 231168, Note_on_c, 12, 46, 0
10, 231240, Note_on_c, 12, 46, 56
10, 231288, Note_on_c, 12, 46, 0
10, 231360, Note_on_c, 12, 46, 55
10, 231408, Note_on_c, 12, 46, 0
10, 231480, Note_on_c, 12, 46, 59
10, 231528, Note_on_c, 12, 46, 0
10, 231600, Note_on_c, 12, 46, 61
10, 231648, Note_on_c, 12, 46, 0
10, 231720, Note_on_c, 12, 46, 64
10, 231768, Note_on_c, 12, 46, 0
10, 231840, Note_on_c, 12, 46, 55
10, 231888, Note_on_c, 12, 46, 0
10, 231960, Note_on_c, 12, 46, 59
10, 232008, Note_on_c, 12, 46, 0
10, 232080, Note_on_c, 12, 46, 61
10, 232128, Note_on_c, 12, 46, 0
10, 232200, Note_on_c, 12, 46, 64
10, 232248, Note_on_c, 12, 46, 0
10, 232320, Note_on_c, 12, 46, 63
10, 232368, Note_on_c, 12, 46, 0
10, 232440, Note_on_c, 12, 46, 68
10, 232488, Note_on_c, 12, 46, 0
10, 232560, Note_on_c, 12, 46, 70
10, 232608, Note_on_c, 12, 46, 0
10, 232680, Note_on_c, 12, 46, 74
10, 232728, Note_on_c, 12, 46, 0
10, 232800, Note_on_c, 12, 46, 63
10, 232848, Note_on_c, 12, 46, 0
10, 232920, Note_on_c, 12, 46, 68
10, 232968, Note_on_c, 12, 46, 0
10, 233040, Note_on_c, 12, 46, 70
10, 233088, Note_on_c, 12, 46, 0
10, 233160, Note_on_c, 12, 46, 74
10, 233208, Note_on_c, 12, 46, 0
10, 233280, Note_on_c, 12, 46, 86
10, 233328, Note_on_c, 12, 46, 0
10, 233400, Note_on_c, 12, 46, 94
10, 233448, Note_on_c, 12, 46, 0
10, 233520, Note_on_c, 12, 46, 97
10, 233568, Note_on_c, 12, 46, 0
10, 233640, Note_on_c, 12, 46, 102
10, 233688, Note_on_c, 12, 46, 0
10, 233760, Note_on_c, 12, 46, 86
10, 233808, Note_on_c, 12, 46, 0
10, 233880, Note_on_c, 12, 46, 94
10, 233928, Note_on_c, 12, 46, 0
10, 234000, Note_on_c, 12, 46, 97
10, 234048, Note_on_c, 12, 46, 0
10, 234120, Note_on_c, 12, 46, 102
10, 234168, Note_on_c, 12, 46, 0
10, 234240, Note_on_c, 12, 46, 125
10, 234288, Note_on_c, 12, 46, 0
10, 234360, Note_on_c, 12, 46, 127
10, 234408, Note_on_c, 12, 46, 0
10, 234480, Note_on_c, 12, 46, 127
10, 234528, Note_on_c, 12, 46, 0
10, 234600, Note_on_c, 12, 46, 127
10, 234648, Note_on_c, 12, 46, 0
10, 234720, Note_on_c, 12, 46, 125
10, 234768, Note_on_c, 12, 46, 0
10, 234840, Note_on_c, 12, 46, 127
10, 234888, Note_on_c, 12, 46, 0
10, 234960, Note_on_c, 12, 46, 127
10, 235008, Note_on_c, 12, 46, 0
10, 235080, Note_on_c, 12, 46, 127
10, 235128, Note_on_c, 12, 46, 0
10, 273600, Note_on_c, 12, 46, 120
10, 273792, Note_on_c, 12, 46, 0
10, 273840, Note_on_c, 12, 46, 120
10, 274032, Note_on_c, 12, 46, 0
10, 274080, Note_on_c, 12, 46, 120
10, 274272, Note_on_c, 12, 46, 0
10, 274320, Note_on_c, 12, 46, 120
10, 274512, Note_on_c, 12, 46, 0
10, 274560, Note_on_c, 12, 46, 120
10, 274752, Note_on_c, 12, 46, 0
10, 274800, Note_on_c, 12, 46, 120
10, 274992, Note_on_c, 12, 46, 0
10, 275040, Note_on_c, 12, 46, 120
10, 275232, Note_on_c, 12, 46, 0
10, 275280, Note_on_c, 12, 46, 120
10, 275472, Note_on_c, 12, 46, 0
10, 275520, Note_on_c, 12, 46, 120
10, 275712, Note_on_c, 12, 46, 0
10, 275760, Note_on_c, 12, 46, 120
10, 275952, Note_on_c, 12, 46, 0
10, 276000, Note_on_c, 12, 46, 120
10, 276192, Note_on_c, 12, 46, 0
10, 276240, Note_on_c, 12, 46, 120
10, 276432, Note_on_c, 12, 46, 0
10, 276480, Note_on_c, 12, 46, 120
10, 276672, Note_on_c, 12, 46, 0
10, 276720, Note_on_c, 12, 46, 120
10, 276912, Note_on_c, 12, 46, 0
10, 276960, Note_on_c, 12, 46, 120
10, 277152, Note_on_c, 12, 46, 0
10, 277200, Note_on_c, 12, 46, 120
10, 277392, Note_on_c, 12, 46, 0
10, 277440, Note_on_c, 12, 51, 120
10, 277632, Note_on_c, 12, 51, 0
10, 277680, Note_on_c, 12, 51, 120
10, 277872, Note_on_c, 12, 51, 0
10, 277920, Note_on_c, 12, 51, 120
10, 278112, Note_on_c, 12, 51, 0
10, 278160, Note_on_c, 12, 51, 120
10, 278352, Note_on_c, 12, 51, 0
10, 278400, Note_on_c, 12, 51, 120
10, 278784, Note_on_c, 12, 51, 0
10, 279360, Note_on_c, 12, 51, 120
10, 279552, Note_on_c, 12, 51, 0
10, 279600, Note_on_c, 12, 51, 120
10, 279792, Note_on_c, 12, 51, 0
10, 279840, Note_on_c, 12, 51, 120
10, 280032, Note_on_c, 12, 51, 0
10, 280080, Note_on_c, 12, 51, 120
10, 280272, Note_on_c, 12, 51, 0
10, 280320, Note_on_c, 12, 51, 120
10, 280704, Note_on_c, 12, 51, 0
10, 281280, Note_on_c, 12, 51, 120
10, 281664, Note_on_c, 12, 51, 0
10, 281760, Note_on_c, 12, 51, 120
10, 281952, Note_on_c, 12, 51, 0
10, 282000, Note_on_c, 12, 51, 120
10, 282192, Note_on_c, 12, 51, 0
10, 282240, Note_on_c, 12, 51, 120
10, 282624, Note_on_c, 12, 51, 0
10, 282720, Note_on_c, 12, 51, 120
10, 282912, Note_on_c, 12, 51, 0
10, 282960, Note_on_c, 12, 51, 120
10, 283152, Note_on_c, 12, 51, 0
10, 283200, Note_on_c, 12, 51, 120
10, 283584, Note_on_c, 12, 51, 0
10, 283680, Note_on_c, 12, 51, 120
10, 283872, Note_on_c, 12, 51, 0
10, 283920, Note_on_c, 12, 51, 120
10, 284112, Note_on_c, 12, 51, 0
10, 284160, Note_on_c, 12, 51, 120
10, 284544, Note_on_c, 12, 51, 0
10, 285120, Note_on_c, 12, 51, 120
10, 285504, Note_on_c, 12, 51, 0
10, 285600, Note_on_c, 12, 51, 120
10, 285792, Note_on_c, 12, 51, 0
10, 285840, Note_on_c, 12, 51, 120
10, 286032, Note_on_c, 12, 51, 0
10, 286080, Note_on_c, 12, 51, 120
10, 286464, Note_on_c, 12, 51, 0
10, 286560, Note_on_c, 12, 51, 120
10, 286752, Note_on_c, 12, 51, 0
10, 286800, Note_on_c, 12, 51, 120
10, 286992, Note_on_c, 12, 51, 0
10, 287040, Note_on_c, 12, 51, 120
10, 287424, Note_on_c, 12, 51, 0
10, 287520, Note_on_c, 12, 51, 120
10, 287712, Note_on_c, 12, 51, 0
10, 287760, Note_on_c, 12, 51, 120
10, 287952, Note_on_c, 12, 51, 0
10, 288000, Note_on_c, 12, 51, 120
10, 288384, Note_on_c, 12, 51, 0
10, 288960, Note_on_c, 12, 51, 120
10, 289344, Note_on_c, 12, 51, 0
10, 292800, Note_on_c, 12, 46, 120
10, 293184, Note_on_c, 12, 46, 0
10, 293760, Note_on_c, 12, 46, 120
10, 294144, Note_on_c, 12, 46, 0
10, 296640, Note_on_c, 12, 51, 120
10, 297024, Note_on_c, 12, 51, 0
10, 297600, Note_on_c, 12, 51, 120
10, 297984, Note_on_c, 12, 51, 0
10, 298560, Note_on_c, 12, 51, 120
10, 298944, Note_on_c, 12, 51, 0
10, 299520, Note_on_c, 12, 46, 120
10, 299904, Note_on_c, 12, 46, 0
10, 300000, Note_on_c, 12, 46, 120
10, 300384, Note_on_c, 12, 46, 0
10, 300480, Note_on_c, 12, 51, 120
10, 300864, Note_on_c, 12, 51, 0
10, 300960, Note_on_c, 12, 51, 120
10, 301344, Note_on_c, 12, 51, 0
10, 301440, Note_on_c, 12, 46, 120
10, 301824, Note_on_c, 12, 46, 0
10, 301920, Note_on_c, 12, 46, 120
10, 302304, Note_on_c, 12, 46, 0
10, 302400, Note_on_c, 12, 46, 120
10, 302784, Note_on_c, 12, 46, 0
10, 302880, Note_on_c, 12, 46, 120
10, 303264, Note_on_c, 12, 46, 0
10, 303360, Note_on_c, 12, 46, 120
10, 303744, Note_on_c, 12, 46, 0
10, 303840, Note_on_c, 12, 46, 120
10, 304224, Note_on_c, 12, 46, 0
10, 304320, Note_on_c, 12, 51, 120
10, 304704, Note_on_c, 12, 51, 0
10, 304800, Note_on_c, 12, 51, 120
10, 305184, Note_on_c, 12, 51, 0
10, 305280, Note_on_c, 12, 46, 120
10, 305664, Note_on_c, 12, 46, 0
10, 305760, Note_on_c, 12, 46, 120
10, 306144, Note_on_c, 12, 46, 0
10, 306240, Note_on_c, 12, 46, 120
10, 306624, Note_on_c, 12, 46, 0
10, 306720, Note_on_c, 12, 46, 120
10, 307104, Note_on_c, 12, 46, 0
10, 307200, Note_on_c, 12, 46, 120
10, 307584, Note_on_c, 12, 46, 0
10, 331680, Note_on_c, 12, 46, 80
10, 332064, Note_on_c, 12, 46, 0
10, 332160, Note_on_c, 12, 46, 80
10, 332544, Note_on_c, 12, 46, 0
10, 332640, Note_on_c, 12, 46, 80
10, 333024, Note_on_c, 12, 46, 0
10, 333120, Note_on_c, 12, 46, 80
10, 333504, Note_on_c, 12, 46, 0
10, 334080, Note_on_c, 12, 51, 80
10, 334464, Note_on_c, 12, 51, 0
10, 335040, Note_on_c, 12, 46, 80
10, 335424, Note_on_c, 12, 46, 0
10, 353280, Note_on_c, 12, 51, 80
10, 353664, Note_on_c, 12, 51, 0
10, 353760, Note_on_c, 12, 51, 100
10, 354144, Note_on_c, 12, 51, 0
10, 354720, Note_on_c, 12, 51, 100
10, 355104, Note_on_c, 12, 51, 0
10, 355680, Note_on_c, 12, 51, 100
10, 356064, Note_on_c, 12, 51, 0
10, 356640, Note_on_c, 12, 51, 100
10, 357024, Note_on_c, 12, 51, 0
10, 357600, Note_on_c, 12, 51, 100
10, 357984, Note_on_c, 12, 51, 0
10, 358560, Note_on_c, 12, 51, 100
10, 358944, Note_on_c, 12, 51, 0
10, 359520, Note_on_c, 12, 51, 100
10, 359904, Note_on_c, 12, 51, 0
10, 360480, Note_on_c, 12, 51, 100
10, 360864, Note_on_c, 12, 51, 0
10, 360960, Note_on_c, 12, 46, 100
10, 361344, Note_on_c, 12, 46, 0
10, 362880, Note_on_c, 12, 46, 120
10, 363264, Note_on_c, 12, 46, 0
10, 363360, Note_on_c, 12, 46, 120
10, 363744, Note_on_c, 12, 46, 0
10, 363840, Note_on_c, 12, 46, 120
10, 364224, Note_on_c, 12, 46, 0
10, 364320, Note_on_c, 12, 46, 120
10, 364704, Note_on_c, 12, 46, 0
10, 364800, Note_on_c, 12, 51, 80
10, 365184, Note_on_c, 12, 51, 0
10, 365280, Note_on_c, 12, 51, 100
10, 365664, Note_on_c, 12, 51, 0
10, 366240, Note_on_c, 12, 51, 100
10, 366624, Note_on_c, 12, 51, 0
10, 367200, Note_on_c, 12, 51, 100
10, 367584, Note_on_c, 12, 51, 0
10, 368160, Note_on_c, 12, 51, 100
10, 368544, Note_on_c, 12, 51, 0
10, 369120, Note_on_c, 12, 51, 100
10, 369504, Note_on_c, 12, 51, 0
10, 370080, Note_on_c, 12, 51, 100
10, 370464, Note_on_c, 12, 51, 0
10, 371040, Note_on_c, 12, 51, 100
10, 371424, Note_on_c, 12, 51, 0
10, 372000, Note_on_c, 12, 51, 100
10, 372384, Note_on_c, 12, 51, 0
10, 372960, Note_on_c, 12, 51, 100
10, 373344, Note_on_c, 12, 51, 0
10, 373920, Note_on_c, 12, 51, 100
10, 374304, Note_on_c, 12, 51, 0
10, 374880, Note_on_c, 12, 51, 100
10, 375264, Note_on_c, 12, 51, 0
10, 375840, Note_on_c, 12, 51, 100
10, 376224, Note_on_c, 12, 51, 0
10, 376800, Note_on_c, 12, 51, 100
10, 377184, Note_on_c, 12, 51, 0
10, 377760, Note_on_c, 12, 51, 100
10, 378144, Note_on_c, 12, 51, 0
10, 378720, Note_on_c, 12, 51, 100
10, 379104, Note_on_c, 12, 51, 0
10, 379680, Note_on_c, 12, 51, 100
10, 380064, Note_on_c, 12, 51, 0
10, 380640, Note_on_c, 12, 46, 100
10, 381024, Note_on_c, 12, 46, 0
10, 381600, Note_on_c, 12, 46, 100
10, 381984, Note_on_c, 12, 46, 0
10, 382560, Note_on_c, 12, 46, 100
10, 382944, Note_on_c, 12, 46, 0
10, 383520, Note_on_c, 12, 46, 100
10, 383904, Note_on_c, 12, 46, 0
10, 384480, Note_on_c, 12, 46, 100
10, 384864, Note_on_c, 12, 46, 0
10, 385440, Note_on_c, 12, 46, 100
10, 385824, Note_on_c, 12, 46, 0
10, 385920, Note_on_c, 12, 46, 100
10, 386304, Note_on_c, 12, 46, 0
10, 386400, Note_on_c, 12, 46, 100
10, 386784, Note_on_c, 12, 46, 0
10, 386880, Note_on_c, 12, 46, 100
10, 387264, Note_on_c, 12, 46, 0
10, 387360, Note_on_c, 12, 46, 100
10, 387744, Note_on_c, 12, 46, 0
10, 387840, Note_on_c, 12, 46, 127
10, 387898, Note_on_c, 12, 46, 0
10, 387900, Note_on_c, 12, 46, 127
10, 387958, Note_on_c, 12, 46, 0
10, 387960, Note_on_c, 12, 46, 127
10, 388018, Note_on_c, 12, 46, 0
10, 388020, Note_on_c, 12, 46, 127
10, 388078, Note_on_c, 12, 46, 0
10, 388080, Note_on_c, 12, 46, 127
10, 388138, Note_on_c, 12, 46, 0
10, 388140, Note_on_c, 12, 46, 127
10, 388198, Note_on_c, 12, 46, 0
10, 388200, Note_on_c, 12, 46, 127
10, 388258, Note_on_c, 12, 46, 0
10, 388260, Note_on_c, 12, 46, 127
10, 388318, Note_on_c, 12, 46, 0
10, 388320, Note_on_c, 12, 46, 127
10, 388378, Note_on_c, 12, 46, 0
10, 388380, Note_on_c, 12, 46, 127
10, 388438, Note_on_c, 12, 46, 0
10, 388440, Note_on_c, 12, 46, 127
10, 388498, Note_on_c, 12, 46, 0
10, 388500, Note_on_c, 12, 46, 127
10, 388558, Note_on_c, 12, 46, 0
10, 388560, Note_on_c, 12, 46, 127
10, 388618, Note_on_c, 12, 46, 0
10, 388620, Note_on_c, 12, 46, 127
10, 388678, Note_on_c, 12, 46, 0
10, 388680, Note_on_c, 12, 46, 127
10, 388738, Note_on_c, 12, 46, 0
10, 388740, Note_on_c, 12, 46, 127
10, 388798, Note_on_c, 12, 46, 0
10, 388800, Note_on_c, 12, 46, 127
10, 388858, Note_on_c, 12, 46, 0
10, 388860, Note_on_c, 12, 46, 127
10, 388918, Note_on_c, 12, 46, 0
10, 388920, Note_on_c, 12, 46, 127
10, 388978, Note_on_c, 12, 46, 0
10, 388980, Note_on_c, 12, 46, 127
10, 389038, Note_on_c, 12, 46, 0
10, 389040, Note_on_c, 12, 46, 127
10, 389098, Note_on_c, 12, 46, 0
10, 389100, Note_on_c, 12, 46, 127
10, 389158, Note_on_c, 12, 46, 0
10, 389160, Note_on_c, 12, 46, 127
10, 389218, Note_on_c, 12, 46, 0
10, 389220, Note_on_c, 12, 46, 127
10, 389278, Note_on_c, 12, 46, 0
10, 389280, Note_on_c, 12, 46, 127
10, 389338, Note_on_c, 12, 46, 0
10, 389340, Note_on_c, 12, 46, 127
10, 389398, Note_on_c, 12, 46, 0
10, 389400, Note_on_c, 12, 46, 127
10, 389458, Note_on_c, 12, 46, 0
10, 389460, Note_on_c, 12, 46, 127
10, 389518, Note_on_c, 12, 46, 0
10, 389520, Note_on_c, 12, 46, 127
10, 389578, Note_on_c, 12, 46, 0
10, 389580, Note_on_c, 12, 46, 127
10, 389638, Note_on_c, 12, 46, 0
10, 389640, Note_on_c, 12, 46, 127
10, 389698, Note_on_c, 12, 46, 0
10, 389700, Note_on_c, 12, 46, 127
10, 389758, Note_on_c, 12, 46, 0
10, 416480, Control_c, 12, 7, 120
10, 417120, Note_on_c, 12, 51, 127
10, 417216, Note_on_c, 12, 51, 0
10, 417240, Note_on_c, 12, 51, 127
10, 417336, Note_on_c, 12, 51, 0
10, 417360, Note_on_c, 12, 51, 127
10, 417456, Note_on_c, 12, 51, 0
10, 417480, Note_on_c, 12, 51, 127
10, 417576, Note_on_c, 12, 51, 0
10, 417600, Note_on_c, 12, 51, 127
10, 417696, Note_on_c, 12, 51, 0
10, 417720, Note_on_c, 12, 51, 127
10, 417816, Note_on_c, 12, 51, 0
10, 417840, Note_on_c, 12, 51, 127
10, 417936, Note_on_c, 12, 51, 0
10, 417960, Note_on_c, 12, 51, 127
10, 418056, Note_on_c, 12, 51, 0
10, 418080, Note_on_c, 12, 51, 127
10, 418176, Note_on_c, 12, 51, 0
10, 418200, Note_on_c, 12, 51, 127
10, 418296, Note_on_c, 12, 51, 0
10, 418320, Note_on_c, 12, 51, 127
10, 418416, Note_on_c, 12, 51, 0
10, 418440, Note_on_c, 12, 51, 127
10, 418536, Note_on_c, 12, 51, 0
10, 418560, Note_on_c, 12, 46, 127
10, 418944, Note_on_c, 12, 46, 0
10, 420000, Note_on_c, 12, 46, 120
10, 420120, Note_on_c, 12, 46, 0
10, 420240, Note_on_c, 12, 46, 120
10, 420360, Note_on_c, 12, 46, 0
10, 420480, Note_on_c, 12, 51, 120
10, 420720, Note_on_c, 12, 51, 0
10, 421920, Note_on_c, 12, 46, 120
10, 422040, Note_on_c, 12, 46, 0
10, 422160, Note_on_c, 12, 46, 120
10, 422280, Note_on_c, 12, 46, 0
10, 422400, Note_on_c, 12, 51, 120
10, 422640, Note_on_c, 12, 51, 0
10, 423840, Note_on_c, 12, 46, 120
10, 423960, Note_on_c, 12, 46, 0
10, 424080, Note_on_c, 12, 46, 120
10, 424200, Note_on_c, 12, 46, 0
10, 424320, Note_on_c, 12, 51, 120
10, 424560, Note_on_c, 12, 51, 0
10, 425760, Note_on_c, 12, 46, 120
10, 425880, Note_on_c, 12, 46, 0
10, 426000, Note_on_c, 12, 46, 120
10, 426120, Note_on_c, 12, 46, 0
10, 426240, Note_on_c, 12, 51, 120
10, 426480, Note_on_c, 12, 51, 0
10, 427680, Note_on_c, 12, 46, 120
10, 427800, Note_on_c, 12, 46, 0
10, 427920, Note_on_c, 12, 46, 120
10, 428040, Note_on_c, 12, 46, 0
10, 428160, Note_on_c, 12, 51, 96
10, 428400, Note_on_c, 12, 51, 0
10, 429120, Note_on_c, 12, 51, 96
10, 429360, Note_on_c, 12, 51, 0
10, 430080, Note_on_c, 12, 51, 96
10, 430320, Note_on_c, 12, 51, 0
10, 431040, Note_on_c, 12, 51, 96
10, 431280, Note_on_c, 12, 51, 0
10, 432000, Note_on_c, 12, 51, 127
10, 432120, Note_on_c, 12, 51, 0
10, 432240, Note_on_c, 12, 51, 96
10, 432360, Note_on_c, 12, 51, 0
10, 432480, Note_on_c, 12, 51, 96
10, 432600, Note_on_c, 12, 51, 0
10, 432960, Note_on_c, 12, 51, 127
10, 433080, Note_on_c, 12, 51, 0
10, 433200, Note_on_c, 12, 51, 96
10, 433320, Note_on_c, 12, 51, 0
10, 433440, Note_on_c, 12, 51, 96
10, 433560, Note_on_c, 12, 51, 0
10, 433920, Note_on_c, 12, 46, 127
10, 434040, Note_on_c, 12, 46, 0
10, 434160, Note_on_c, 12, 46, 96
10, 434280, Note_on_c, 12, 46, 0
10, 434400, Note_on_c, 12, 46, 96
10, 434520, Note_on_c, 12, 46, 0
10, 434880, Note_on_c, 12, 46, 127
10, 435000, Note_on_c, 12, 46, 0
10, 435120, Note_on_c, 12, 46, 96
10, 435240, Note_on_c, 12, 46, 0
10, 435360, Note_on_c, 12, 46, 96
10, 435480, Note_on_c, 12, 46, 0
10, 435840, Note_on_c, 12, 51, 96
10, 436080, Note_on_c, 12, 51, 0
10, 436800, Note_on_c, 12, 51, 96
10, 437040, Note_on_c, 12, 51, 0
10, 437760, Note_on_c, 12, 51, 96
10, 438000, Note_on_c, 12, 51, 0
10, 438720, Note_on_c, 12, 51, 96
10, 438960, Note_on_c, 12, 51, 0
10, 439680, Note_on_c, 12, 51, 127
10, 439800, Note_on_c, 12, 51, 0
10, 439920, Note_on_c, 12, 51, 96
10, 440040, Note_on_c, 12, 51, 0
10, 440160, Note_on_c, 12, 51, 96
10, 440280, Note_on_c, 12, 51, 0
10, 440640, Note_on_c, 12, 51, 127
10, 440760, Note_on_c, 12, 51, 0
10, 440880, Note_on_c, 12, 51, 96
10, 441000, Note_on_c, 12, 51, 0
10, 441120, Note_on_c, 12, 51, 96
10, 441240, Note_on_c, 12, 51, 0
10, 441600, Note_on_c, 12, 46, 127
10, 441720, Note_on_c, 12, 46, 0
10, 441840, Note_on_c, 12, 46, 96
10, 441960, Note_on_c, 12, 46, 0
10, 442080, Note_on_c, 12, 46, 96
10, 442200, Note_on_c, 12, 46, 0
10, 442560, Note_on_c, 12, 46, 127
10, 442680, Note_on_c, 12, 46, 0
10, 442800, Note_on_c, 12, 46, 96
10, 442920, Note_on_c, 12, 46, 0
10, 443040, Note_on_c, 12, 46, 96
10, 443160, Note_on_c, 12, 46, 0
10, 443520, Note_on_c, 12, 51, 96
10, 443760, Note_on_c, 12, 51, 0
10, 446400, Note_on_c, 12, 46, 96
10, 446640, Note_on_c, 12, 46, 0
10, 446880, Note_on_c, 12, 46, 96
10, 447000, Note_on_c, 12, 46, 0
10, 447120, Note_on_c, 12, 46, 96
10, 447240, Note_on_c, 12, 46, 0
10, 447360, Note_on_c, 12, 51, 96
10, 447600, Note_on_c, 12, 51, 0
10, 450240, Note_on_c, 12, 46, 96
10, 450480, Note_on_c, 12, 46, 0
10, 450720, Note_on_c, 12, 46, 96
10, 450840, Note_on_c, 12, 46, 0
10, 450960, Note_on_c, 12, 46, 96
10, 451080, Note_on_c, 12, 46, 0
10, 451200, Note_on_c, 12, 51, 96
10, 451440, Note_on_c, 12, 51, 0
10, 454080, Note_on_c, 12, 46, 96
10, 454320, Note_on_c, 12, 46, 0
10, 454560, Note_on_c, 12, 46, 96
10, 454680, Note_on_c, 12, 46, 0
10, 454800, Note_on_c, 12, 46, 96
10, 454920, Note_on_c, 12, 46, 0
10, 455040, Note_on_c, 12, 51, 96
10, 455280, Note_on_c, 12, 51, 0
10, 457920, Note_on_c, 12, 46, 96
10, 458160, Note_on_c, 12, 46, 0
10, 458400, Note_on_c, 12, 46, 96
10, 458520, Note_on_c, 12, 46, 0
10, 458640, Note_on_c, 12, 46, 96
10, 458760, Note_on_c, 12, 46, 0
10, 458880, Note_on_c, 12, 51, 56
10, 459264, Note_on_c, 12, 51, 0
10, 462720, Note_on_c, 12, 51, 67
10, 463104, Note_on_c, 12, 51, 0
10, 466560, Note_on_c, 12, 51, 80
10, 466944, Note_on_c, 12, 51, 0
10, 471360, Note_on_c, 12, 51, 96
10, 471744, Note_on_c, 12, 51, 0
10, 471840, Note_on_c, 12, 46, 96
10, 472224, Note_on_c, 12, 46, 0
10, 472320, Note_on_c, 12, 51, 96
10, 472704, Note_on_c, 12, 51, 0
10, 472800, Note_on_c, 12, 46, 96
10, 473184, Note_on_c, 12, 46, 0
10, 473280, Note_on_c, 12, 51, 96
10, 473664, Note_on_c, 12, 51, 0
10, 473760, Note_on_c, 12, 51, 96
10, 474144, Note_on_c, 12, 51, 0
10, 474240, Note_on_c, 12, 46, 80
10, 474432, Note_on_c, 12, 46, 0
10, 474480, Note_on_c, 12, 46, 80
10, 474672, Note_on_c, 12, 46, 0
10, 474720, Note_on_c, 12, 46, 80
10, 474912, Note_on_c, 12, 46, 0
10, 474960, Note_on_c, 12, 46, 80
10, 475152, Note_on_c, 12, 46, 0
10, 475200, Note_on_c, 12, 46, 80
10, 475584, Note_on_c, 12, 46, 0
10, 478320, Note_on_c, 12, 46, 80
10, 478512, Note_on_c, 12, 46, 0
10, 478560, Note_on_c, 12, 46, 80
10, 478752, Note_on_c, 12, 46, 0
10, 478800, Note_on_c, 12, 46, 80
10, 478992, Note_on_c, 12, 46, 0
10, 479040, Note_on_c, 12, 46, 80
10, 479232, Note_on_c, 12, 46, 0
10, 479280, Note_on_c, 12, 46, 80
10, 479664, Note_on_c, 12, 46, 0
10, 482400, Note_on_c, 12, 46, 80
10, 482784, Note_on_c, 12, 46, 0
10, 483360, Note_on_c, 12, 46, 80
10, 483744, Note_on_c, 12, 46, 0
10, 484320, Note_on_c, 12, 46, 80
10, 484704, Note_on_c, 12, 46, 0
10, 485280, Note_on_c, 12, 46, 80
10, 485664, Note_on_c, 12, 46, 0
10, 486240, Note_on_c, 12, 51, 127
10, 486384, Note_on_c, 12, 51, 0
10, 486720, Note_on_c, 12, 51, 127
10, 486864, Note_on_c, 12, 51, 0
10, 487200, Note_on_c, 12, 51, 127
10, 487344, Note_on_c, 12, 51, 0
10, 487680, Note_on_c, 12, 51, 127
10, 487824, Note_on_c, 12, 51, 0
10, 488160, Note_on_c, 12, 51, 127
10, 488304, Note_on_c, 12, 51, 0
10, 488640, Note_on_c, 12, 51, 127
10, 488784, Note_on_c, 12, 51, 0
10, 489120, Note_on_c, 12, 51, 127
10, 489264, Note_on_c, 12, 51, 0
10, 489600, Note_on_c, 12, 51, 127
10, 489744, Note_on_c, 12, 51, 0
10, 490080, Note_on_c, 12, 51, 127
10, 490200, Note_on_c, 12, 51, 0
10, 490200, Note_on_c, 12, 51, 80
10, 490320, Note_on_c, 12, 51, 0
10, 490320, Note_on_c, 12, 51, 80
10, 490440, Note_on_c, 12, 51, 0
10, 490440, Note_on_c, 12, 51, 80
10, 490560, Note_on_c, 12, 51, 0
10, 490560, Note_on_c, 12, 51, 80
10, 490680, Note_on_c, 12, 51, 0
10, 490680, Note_on_c, 12, 51, 80
10, 490800, Note_on_c, 12, 51, 0
10, 490800, Note_on_c, 12, 51, 80
10, 490920, Note_on_c, 12, 51, 0
10, 490920, Note_on_c, 12, 51, 80
10, 491040, Note_on_c, 12, 51, 0
10, 491040, Note_on_c, 12, 51, 80
10, 491160, Note_on_c, 12, 51, 0
10, 491160, Note_on_c, 12, 51, 80
10, 491280, Note_on_c, 12, 51, 0
10, 491280, Note_on_c, 12, 51, 80
10, 491400, Note_on_c, 12, 51, 0
10, 491400, Note_on_c, 12, 51, 80
10, 491520, Note_on_c, 12, 51, 0
10, 491520, Note_on_c, 12, 51, 80
10, 491640, Note_on_c, 12, 51, 0
10, 491640, Note_on_c, 12, 51, 80
10, 491760, Note_on_c, 12, 51, 0
10, 491760, Note_on_c, 12, 51, 80
10, 491880, Note_on_c, 12, 51, 0
10, 491880, Note_on_c, 12, 51, 80
10, 492000, Note_on_c, 12, 51, 0
10, 492000, Note_on_c, 12, 51, 127
10, 492120, Note_on_c, 12, 51, 0
10, 492120, Note_on_c, 12, 51, 80
10, 492240, Note_on_c, 12, 51, 0
10, 492240, Note_on_c, 12, 51, 80
10, 492360, Note_on_c, 12, 51, 0
10, 492360, Note_on_c, 12, 51, 80
10, 492480, Note_on_c, 12, 51, 0
10, 492480, Note_on_c, 12, 51, 80
10, 492600, Note_on_c, 12, 51, 0
10, 492600, Note_on_c, 12, 51, 80
10, 492720, Note_on_c, 12, 51, 0
10, 492720, Note_on_c, 12, 51, 80
10, 492840, Note_on_c, 12, 51, 0
10, 492840, Note_on_c, 12, 51, 80
10, 492960, Note_on_c, 12, 51, 0
10, 492960, Note_on_c, 12, 51, 80
10, 493080, Note_on_c, 12, 51, 0
10, 493080, Note_on_c, 12, 51, 80
10, 493200, Note_on_c, 12, 51, 0
10, 493200, Note_on_c, 12, 51, 80
10, 493320, Note_on_c, 12, 51, 0
10, 493320, Note_on_c, 12, 51, 80
10, 493440, Note_on_c, 12, 51, 0
10, 493440, Note_on_c, 12, 51, 80
10, 493560, Note_on_c, 12, 51, 0
10, 493560, Note_on_c, 12, 51, 80
10, 493680, Note_on_c, 12, 51, 0
10, 493680, Note_on_c, 12, 51, 80
10, 493800, Note_on_c, 12, 51, 0
10, 493800, Note_on_c, 12, 51, 80
10, 493920, Note_on_c, 12, 51, 0
10, 493920, Note_on_c, 12, 51, 127
10, 494064, Note_on_c, 12, 51, 0
10, 495000, Note_on_c, 12, 51, 127
10, 495144, Note_on_c, 12, 51, 0
10, 496080, Note_on_c, 12, 51, 127
10, 496224, Note_on_c, 12, 51, 0
10, 497160, Note_on_c, 12, 51, 127
10, 497304, Note_on_c, 12, 51, 0
10, 498360, Note_on_c, 12, 51, 127
10, 498504, Note_on_c, 12, 51, 0
10, 498504, End_track
11, 0, Start_track
11, 0, Title_t, "Violin 1            "
11, 0, Program_c, 10, 48
11, 0, Control_c, 10, 7, 90
11, 0, Control_c, 10, 10, 25
11, 2880, Control_c, 10, 93, 100
11, 2880, Control_c, 10, 91, 100
11, 7680, Control_c, 10, 10, 40
11, 9600, Note_on_c, 10, 65, 81
11, 11342, Note_on_c, 10, 65, 0
11, 11520, Note_on_c, 10, 60, 127
11, 13210, Note_on_c, 10, 60, 0
11, 16800, Note_on_c, 10, 73, 14
11, 16848, Note_on_c, 10, 73, 0
11, 16860, Note_on_c, 10, 70, 28
11, 16908, Note_on_c, 10, 70, 0
11, 16920, Note_on_c, 10, 73, 33
11, 16968, Note_on_c, 10, 73, 0
11, 16980, Note_on_c, 10, 70, 28
11, 17028, Note_on_c, 10, 70, 0
11, 17040, Note_on_c, 10, 73, 33
11, 17088, Note_on_c, 10, 73, 0
11, 17100, Note_on_c, 10, 70, 31
11, 17148, Note_on_c, 10, 70, 0
11, 17160, Note_on_c, 10, 73, 33
11, 17208, Note_on_c, 10, 73, 0
11, 17220, Note_on_c, 10, 70, 31
11, 17268, Note_on_c, 10, 70, 0
11, 17280, Note_on_c, 10, 73, 33
11, 17328, Note_on_c, 10, 73, 0
11, 17340, Note_on_c, 10, 70, 33
11, 17388, Note_on_c, 10, 70, 0
11, 17400, Note_on_c, 10, 73, 31
11, 17448, Note_on_c, 10, 73, 0
11, 17460, Note_on_c, 10, 70, 31
11, 17508, Note_on_c, 10, 70, 0
11, 17520, Note_on_c, 10, 73, 31
11, 17568, Note_on_c, 10, 73, 0
11, 17580, Note_on_c, 10, 70, 28
11, 17628, Note_on_c, 10, 70, 0
11, 17640, Note_on_c, 10, 73, 31
11, 17688, Note_on_c, 10, 73, 0
11, 17700, Note_on_c, 10, 70, 31
11, 17748, Note_on_c, 10, 70, 0
11, 17760, Note_on_c, 10, 70, 26
11, 17760, Note_on_c, 10, 73, 26
11, 17786, Note_on_c, 10, 70, 0
11, 17930, Note_on_c, 10, 73, 0
11, 20640, Note_on_c, 10, 72, 40
11, 20700, Note_on_c, 10, 72, 0
11, 20700, Note_on_c, 10, 68, 38
11, 20760, Note_on_c, 10, 68, 0
11, 20760, Note_on_c, 10, 72, 37
11, 20820, Note_on_c, 10, 72, 0
11, 20820, Note_on_c, 10, 68, 35
11, 20880, Note_on_c, 10, 68, 0
11, 20880, Note_on_c, 10, 72, 34
11, 20940, Note_on_c, 10, 72, 0
11, 20940, Note_on_c, 10, 68, 32
11, 21000, Note_on_c, 10, 68, 0
11, 21000, Note_on_c, 10, 72, 31
11, 21060, Note_on_c, 10, 72, 0
11, 21060, Note_on_c, 10, 68, 29
11, 21120, Note_on_c, 10, 68, 0
11, 21120, Note_on_c, 10, 72, 28
11, 21180, Note_on_c, 10, 72, 0
11, 21180, Note_on_c, 10, 68, 26
11, 21240, Note_on_c, 10, 68, 0
11, 21240, Note_on_c, 10, 72, 25
11, 21300, Note_on_c, 10, 72, 0
11, 21300, Note_on_c, 10, 68, 23
11, 21360, Note_on_c, 10, 68, 0
11, 21360, Note_on_c, 10, 72, 22
11, 21420, Note_on_c, 10, 72, 0
11, 21420, Note_on_c, 10, 68, 20
11, 21480, Note_on_c, 10, 68, 0
11, 21480, Note_on_c, 10, 72, 19
11, 21540, Note_on_c, 10, 72, 0
11, 21540, Note_on_c, 10, 68, 17
11, 21600, Note_on_c, 10, 68, 0
11, 25920, Note_on_c, 10, 67, 81
11, 27662, Note_on_c, 10, 67, 0
11, 27840, Note_on_c, 10, 62, 98
11, 29530, Note_on_c, 10, 62, 0
11, 36240, Note_on_c, 10, 74, 38
11, 36360, Note_on_c, 10, 74, 0
11, 36360, Note_on_c, 10, 75, 38
11, 36480, Note_on_c, 10, 75, 0
11, 36480, Note_on_c, 10, 77, 48
11, 36600, Note_on_c, 10, 77, 0
11, 36600, Note_on_c, 10, 75, 48
11, 36720, Note_on_c, 10, 75, 0
11, 36720, Note_on_c, 10, 74, 38
11, 36912, Note_on_c, 10, 74, 0
11, 44880, Control_c, 10, 7, 100
11, 45840, Note_on_c, 10, 58, 89
11, 45840, Note_on_c, 10, 67, 89
11, 46020, Note_on_c, 10, 67, 0
11, 46020, Note_on_c, 10, 58, 0
11, 47760, Note_on_c, 10, 58, 89
11, 47760, Note_on_c, 10, 67, 89
11, 47940, Note_on_c, 10, 67, 0
11, 47940, Note_on_c, 10, 58, 0
11, 64080, Control_c, 10, 7, 100
11, 65040, Note_on_c, 10, 67, 45
11, 65102, Note_on_c, 10, 67, 0
11, 65280, Note_on_c, 10, 79, 47
11, 65646, Note_on_c, 10, 79, 0
11, 65760, Note_on_c, 10, 82, 50
11, 66130, Note_on_c, 10, 82, 0
11, 66240, Note_on_c, 10, 80, 53
11, 66634, Note_on_c, 10, 80, 0
11, 66720, Note_on_c, 10, 77, 56
11, 67034, Note_on_c, 10, 77, 0
11, 67200, Note_on_c, 10, 79, 59
11, 67516, Note_on_c, 10, 79, 0
11, 67680, Note_on_c, 10, 75, 63
11, 68034, Note_on_c, 10, 75, 0
11, 68160, Note_on_c, 10, 77, 66
11, 68514, Note_on_c, 10, 77, 0
11, 68640, Note_on_c, 10, 70, 69
11, 68984, Note_on_c, 10, 70, 0
11, 69120, Note_on_c, 10, 79, 72
11, 69464, Note_on_c, 10, 79, 0
11, 69600, Note_on_c, 10, 82, 75
11, 69970, Note_on_c, 10, 82, 0
11, 70080, Note_on_c, 10, 80, 78
11, 70434, Note_on_c, 10, 80, 0
11, 70560, Note_on_c, 10, 77, 83
11, 70912, Note_on_c, 10, 77, 0
11, 71040, Note_on_c, 10, 79, 86
11, 71414, Note_on_c, 10, 79, 0
11, 71520, Note_on_c, 10, 82, 89
11, 71856, Note_on_c, 10, 82, 0
11, 72000, Note_on_c, 10, 84, 92
11, 72332, Note_on_c, 10, 84, 0
11, 72480, Note_on_c, 10, 80, 95
11, 72890, Note_on_c, 10, 80, 0
11, 72960, Note_on_c, 10, 82, 102
11, 73282, Note_on_c, 10, 82, 0
11, 73440, Note_on_c, 10, 86, 102
11, 73740, Note_on_c, 10, 86, 0
11, 73920, Note_on_c, 10, 87, 102
11, 74202, Note_on_c, 10, 87, 0
11, 74400, Note_on_c, 10, 72, 102
11, 74712, Note_on_c, 10, 72, 0
11, 74880, Note_on_c, 10, 74, 102
11, 75204, Note_on_c, 10, 74, 0
11, 75360, Note_on_c, 10, 77, 102
11, 75670, Note_on_c, 10, 77, 0
11, 75840, Note_on_c, 10, 79, 127
11, 76150, Note_on_c, 10, 79, 0
11, 76320, Note_on_c, 10, 75, 127
11, 76500, Note_on_c, 10, 75, 0
11, 76560, Note_on_c, 10, 79, 127
11, 76680, Note_on_c, 10, 79, 0
11, 76800, Note_on_c, 10, 79, 127
11, 77252, Note_on_c, 10, 79, 0
11, 77280, Note_on_c, 10, 76, 127
11, 77376, Note_on_c, 10, 76, 0
11, 77520, Note_on_c, 10, 92, 127
11, 77646, Note_on_c, 10, 92, 0
11, 77760, Note_on_c, 10, 89, 127
11, 77880, Note_on_c, 10, 89, 0
11, 78000, Note_on_c, 10, 86, 127
11, 78104, Note_on_c, 10, 86, 0
11, 78240, Note_on_c, 10, 82, 127
11, 78344, Note_on_c, 10, 82, 0
11, 78480, Note_on_c, 10, 80, 127
11, 78584, Note_on_c, 10, 80, 0
11, 78720, Note_on_c, 10, 77, 127
11, 78830, Note_on_c, 10, 77, 0
11, 78960, Note_on_c, 10, 74, 127
11, 79056, Note_on_c, 10, 74, 0
11, 79200, Note_on_c, 10, 70, 127
11, 79296, Note_on_c, 10, 70, 0
11, 79440, Note_on_c, 10, 74, 127
11, 79556, Note_on_c, 10, 74, 0
11, 79680, Note_on_c, 10, 77, 127
11, 79776, Note_on_c, 10, 77, 0
11, 79920, Note_on_c, 10, 80, 127
11, 80032, Note_on_c, 10, 80, 0
11, 80160, Note_on_c, 10, 82, 127
11, 80252, Note_on_c, 10, 82, 0
11, 80400, Note_on_c, 10, 86, 127
11, 80524, Note_on_c, 10, 86, 0
11, 80640, Note_on_c, 10, 89, 127
11, 80756, Note_on_c, 10, 89, 0
11, 80880, Note_on_c, 10, 92, 127
11, 81000, Note_on_c, 10, 92, 0
11, 81120, Note_on_c, 10, 94, 127
11, 81242, Note_on_c, 10, 94, 0
11, 81360, Note_on_c, 10, 92, 127
11, 81480, Note_on_c, 10, 92, 0
11, 81600, Note_on_c, 10, 89, 127
11, 81696, Note_on_c, 10, 89, 0
11, 81840, Note_on_c, 10, 86, 127
11, 81954, Note_on_c, 10, 86, 0
11, 82080, Note_on_c, 10, 82, 127
11, 82176, Note_on_c, 10, 82, 0
11, 82320, Note_on_c, 10, 80, 127
11, 82414, Note_on_c, 10, 80, 0
11, 82560, Note_on_c, 10, 77, 127
11, 82670, Note_on_c, 10, 77, 0
11, 82800, Note_on_c, 10, 74, 127
11, 82896, Note_on_c, 10, 74, 0
11, 83040, Note_on_c, 10, 70, 127
11, 83130, Note_on_c, 10, 70, 0
11, 83280, Note_on_c, 10, 74, 127
11, 83386, Note_on_c, 10, 74, 0
11, 83520, Note_on_c, 10, 77, 127
11, 83616, Note_on_c, 10, 77, 0
11, 83760, Note_on_c, 10, 80, 127
11, 83874, Note_on_c, 10, 80, 0
11, 84000, Note_on_c, 10, 82, 127
11, 84084, Note_on_c, 10, 82, 0
11, 84240, Note_on_c, 10, 86, 127
11, 84366, Note_on_c, 10, 86, 0
11, 84480, Note_on_c, 10, 89, 127
11, 84590, Note_on_c, 10, 89, 0
11, 84720, Note_on_c, 10, 89, 127
11, 84804, Note_on_c, 10, 89, 0
11, 84960, Note_on_c, 10, 92, 127
11, 85056, Note_on_c, 10, 92, 0
11, 85200, Note_on_c, 10, 91, 127
11, 85304, Note_on_c, 10, 91, 0
11, 85440, Note_on_c, 10, 91, 127
11, 85764, Note_on_c, 10, 91, 0
11, 85920, Note_on_c, 10, 87, 127
11, 86004, Note_on_c, 10, 87, 0
11, 86160, Note_on_c, 10, 82, 127
11, 86974, Note_on_c, 10, 82, 0
11, 87120, Note_on_c, 10, 91, 127
11, 87236, Note_on_c, 10, 91, 0
11, 87360, Note_on_c, 10, 91, 127
11, 87682, Note_on_c, 10, 91, 0
11, 87840, Note_on_c, 10, 87, 127
11, 87930, Note_on_c, 10, 87, 0
11, 88080, Note_on_c, 10, 82, 127
11, 88886, Note_on_c, 10, 82, 0
11, 88920, Note_on_c, 10, 87, 127
11, 88978, Note_on_c, 10, 87, 0
11, 88980, Note_on_c, 10, 89, 127
11, 89038, Note_on_c, 10, 89, 0
11, 89040, Note_on_c, 10, 91, 127
11, 89380, Note_on_c, 10, 91, 0
11, 89520, Note_on_c, 10, 87, 127
11, 89612, Note_on_c, 10, 87, 0
11, 89760, Note_on_c, 10, 86, 127
11, 89870, Note_on_c, 10, 86, 0
11, 90000, Note_on_c, 10, 84, 127
11, 90340, Note_on_c, 10, 84, 0
11, 90480, Note_on_c, 10, 84, 127
11, 90584, Note_on_c, 10, 84, 0
11, 90720, Note_on_c, 10, 84, 127
11, 90826, Note_on_c, 10, 84, 0
11, 90960, Note_on_c, 10, 86, 127
11, 91304, Note_on_c, 10, 86, 0
11, 91440, Note_on_c, 10, 86, 127
11, 91536, Note_on_c, 10, 86, 0
11, 91680, Note_on_c, 10, 86, 127
11, 91774, Note_on_c, 10, 86, 0
11, 91920, Note_on_c, 10, 87, 127
11, 92204, Note_on_c, 10, 87, 0
11, 92760, Note_on_c, 10, 87, 127
11, 92818, Note_on_c, 10, 87, 0
11, 92820, Note_on_c, 10, 89, 127
11, 92878, Note_on_c, 10, 89, 0
11, 92880, Note_on_c, 10, 91, 127
11, 93230, Note_on_c, 10, 91, 0
11, 93360, Note_on_c, 10, 87, 127
11, 93462, Note_on_c, 10, 87, 0
11, 93600, Note_on_c, 10, 86, 127
11, 93714, Note_on_c, 10, 86, 0
11, 93840, Note_on_c, 10, 84, 127
11, 94160, Note_on_c, 10, 84, 0
11, 94320, Note_on_c, 10, 84, 127
11, 94406, Note_on_c, 10, 84, 0
11, 94560, Note_on_c, 10, 84, 127
11, 94664, Note_on_c, 10, 84, 0
11, 94800, Note_on_c, 10, 86, 127
11, 95150, Note_on_c, 10, 86, 0
11, 95280, Note_on_c, 10, 86, 127
11, 95376, Note_on_c, 10, 86, 0
11, 95520, Note_on_c, 10, 86, 127
11, 95636, Note_on_c, 10, 86, 0
11, 95760, Note_on_c, 10, 87, 112
11, 95920, Note_on_c, 10, 87, 0
11, 95920, Note_on_c, 10, 87, 106
11, 96080, Note_on_c, 10, 87, 0
11, 96080, Note_on_c, 10, 87, 112
11, 96240, Note_on_c, 10, 87, 0
11, 96240, Note_on_c, 10, 91, 90
11, 96400, Note_on_c, 10, 91, 0
11, 96400, Note_on_c, 10, 91, 98
11, 96560, Note_on_c, 10, 91, 0
11, 96560, Note_on_c, 10, 91, 92
11, 96720, Note_on_c, 10, 91, 0
11, 96720, Note_on_c, 10, 84, 120
11, 96880, Note_on_c, 10, 84, 0
11, 96880, Note_on_c, 10, 84, 127
11, 97040, Note_on_c, 10, 84, 0
11, 97040, Note_on_c, 10, 84, 127
11, 97200, Note_on_c, 10, 84, 0
11, 97200, Note_on_c, 10, 87, 102
11, 97360, Note_on_c, 10, 87, 0
11, 97360, Note_on_c, 10, 87, 106
11, 97520, Note_on_c, 10, 87, 0
11, 97520, Note_on_c, 10, 87, 96
11, 97680, Note_on_c, 10, 87, 0
11, 97680, Note_on_c, 10, 80, 116
11, 97840, Note_on_c, 10, 80, 0
11, 97840, Note_on_c, 10, 80, 116
11, 98000, Note_on_c, 10, 80, 0
11, 98000, Note_on_c, 10, 80, 108
11, 98160, Note_on_c, 10, 80, 0
11, 98160, Note_on_c, 10, 84, 110
11, 98320, Note_on_c, 10, 84, 0
11, 98320, Note_on_c, 10, 84, 120
11, 98480, Note_on_c, 10, 84, 0
11, 98480, Note_on_c, 10, 84, 110
11, 98640, Note_on_c, 10, 84, 0
11, 98640, Note_on_c, 10, 77, 127
11, 98762, Note_on_c, 10, 77, 0
11, 98880, Note_on_c, 10, 80, 127
11, 99002, Note_on_c, 10, 80, 0
11, 99120, Note_on_c, 10, 84, 127
11, 99230, Note_on_c, 10, 84, 0
11, 99360, Note_on_c, 10, 88, 127
11, 99454, Note_on_c, 10, 88, 0
11, 99600, Note_on_c, 10, 89, 112
11, 99760, Note_on_c, 10, 89, 0
11, 99760, Note_on_c, 10, 89, 112
11, 99920, Note_on_c, 10, 89, 0
11, 99920, Note_on_c, 10, 89, 80
11, 100080, Note_on_c, 10, 89, 0
11, 100080, Note_on_c, 10, 92, 90
11, 100240, Note_on_c, 10, 92, 0
11, 100240, Note_on_c, 10, 92, 96
11, 100400, Note_on_c, 10, 92, 0
11, 100400, Note_on_c, 10, 92, 112
11, 100560, Note_on_c, 10, 92, 0
11, 100560, Note_on_c, 10, 86, 114
11, 100720, Note_on_c, 10, 86, 0
11, 100720, Note_on_c, 10, 86, 127
11, 100880, Note_on_c, 10, 86, 0
11, 100880, Note_on_c, 10, 86, 118
11, 101040, Note_on_c, 10, 86, 0
11, 101040, Note_on_c, 10, 89, 106
11, 101200, Note_on_c, 10, 89, 0
11, 101200, Note_on_c, 10, 89, 98
11, 101360, Note_on_c, 10, 89, 0
11, 101360, Note_on_c, 10, 89, 94
11, 101520, Note_on_c, 10, 89, 0
11, 101520, Note_on_c, 10, 82, 118
11, 101680, Note_on_c, 10, 82, 0
11, 101680, Note_on_c, 10, 82, 106
11, 101840, Note_on_c, 10, 82, 0
11, 101840, Note_on_c, 10, 82, 92
11, 102000, Note_on_c, 10, 82, 0
11, 102000, Note_on_c, 10, 86, 72
11, 102160, Note_on_c, 10, 86, 0
11, 102160, Note_on_c, 10, 86, 76
11, 102320, Note_on_c, 10, 86, 0
11, 102320, Note_on_c, 10, 86, 82
11, 102480, Note_on_c, 10, 86, 0
11, 102480, Note_on_c, 10, 79, 127
11, 102642, Note_on_c, 10, 79, 0
11, 102720, Note_on_c, 10, 82, 127
11, 102864, Note_on_c, 10, 82, 0
11, 102960, Note_on_c, 10, 86, 127
11, 103076, Note_on_c, 10, 86, 0
11, 103200, Note_on_c, 10, 90, 127
11, 103302, Note_on_c, 10, 90, 0
11, 103440, Note_on_c, 10, 91, 114
11, 103600, Note_on_c, 10, 91, 0
11, 103600, Note_on_c, 10, 91, 122
11, 103760, Note_on_c, 10, 91, 0
11, 103760, Note_on_c, 10, 91, 122
11, 103920, Note_on_c, 10, 91, 0
11, 103920, Note_on_c, 10, 94, 127
11, 104080, Note_on_c, 10, 94, 0
11, 104080, Note_on_c, 10, 94, 127
11, 104240, Note_on_c, 10, 94, 0
11, 104240, Note_on_c, 10, 94, 127
11, 104400, Note_on_c, 10, 94, 0
11, 104400, Note_on_c, 10, 87, 127
11, 104560, Note_on_c, 10, 87, 0
11, 104560, Note_on_c, 10, 87, 127
11, 104720, Note_on_c, 10, 87, 0
11, 104720, Note_on_c, 10, 87, 127
11, 104880, Note_on_c, 10, 87, 0
11, 104880, Note_on_c, 10, 91, 127
11, 105040, Note_on_c, 10, 91, 0
11, 105040, Note_on_c, 10, 91, 127
11, 105200, Note_on_c, 10, 91, 0
11, 105200, Note_on_c, 10, 91, 127
11, 105360, Note_on_c, 10, 91, 0
11, 105360, Note_on_c, 10, 84, 127
11, 105520, Note_on_c, 10, 84, 0
11, 105520, Note_on_c, 10, 84, 127
11, 105680, Note_on_c, 10, 84, 0
11, 105680, Note_on_c, 10, 84, 127
11, 105840, Note_on_c, 10, 84, 0
11, 105840, Note_on_c, 10, 87, 127
11, 106000, Note_on_c, 10, 87, 0
11, 106000, Note_on_c, 10, 87, 127
11, 106160, Note_on_c, 10, 87, 0
11, 106160, Note_on_c, 10, 87, 127
11, 106320, Note_on_c, 10, 87, 0
11, 106320, Note_on_c, 10, 81, 127
11, 106480, Note_on_c, 10, 81, 0
11, 106480, Note_on_c, 10, 81, 127
11, 106640, Note_on_c, 10, 81, 0
11, 106640, Note_on_c, 10, 81, 122
11, 106800, Note_on_c, 10, 81, 0
11, 106800, Note_on_c, 10, 84, 127
11, 106960, Note_on_c, 10, 84, 0
11, 106960, Note_on_c, 10, 84, 127
11, 107120, Note_on_c, 10, 84, 0
11, 107120, Note_on_c, 10, 84, 127
11, 107280, Note_on_c, 10, 84, 0
11, 107280, Note_on_c, 10, 70, 80
11, 107520, Note_on_c, 10, 70, 0
11, 107520, Note_on_c, 10, 82, 127
11, 107610, Note_on_c, 10, 82, 0
11, 107760, Note_on_c, 10, 82, 127
11, 107850, Note_on_c, 10, 82, 0
11, 108000, Note_on_c, 10, 82, 127
11, 108086, Note_on_c, 10, 82, 0
11, 108240, Note_on_c, 10, 84, 127
11, 108480, Note_on_c, 10, 82, 127
11, 108526, Note_on_c, 10, 84, 0
11, 108576, Note_on_c, 10, 82, 0
11, 108720, Note_on_c, 10, 87, 127
11, 108816, Note_on_c, 10, 87, 0
11, 108960, Note_on_c, 10, 91, 127
11, 109066, Note_on_c, 10, 91, 0
11, 109200, Note_on_c, 10, 89, 127
11, 109270, Note_on_c, 10, 89, 0
11, 109440, Note_on_c, 10, 70, 127
11, 109502, Note_on_c, 10, 70, 0
11, 109680, Note_on_c, 10, 70, 127
11, 109754, Note_on_c, 10, 70, 0
11, 109920, Note_on_c, 10, 70, 127
11, 110000, Note_on_c, 10, 70, 0
11, 110160, Note_on_c, 10, 72, 127
11, 110400, Note_on_c, 10, 70, 127
11, 110454, Note_on_c, 10, 72, 0
11, 110484, Note_on_c, 10, 70, 0
11, 110640, Note_on_c, 10, 67, 127
11, 110730, Note_on_c, 10, 67, 0
11, 110880, Note_on_c, 10, 63, 127
11, 110952, Note_on_c, 10, 63, 0
11, 111120, Note_on_c, 10, 58, 127
11, 111182, Note_on_c, 10, 58, 0
11, 111360, Note_on_c, 10, 82, 127
11, 111424, Note_on_c, 10, 82, 0
11, 111600, Note_on_c, 10, 82, 127
11, 111672, Note_on_c, 10, 82, 0
11, 111840, Note_on_c, 10, 82, 127
11, 111930, Note_on_c, 10, 82, 0
11, 112080, Note_on_c, 10, 84, 127
11, 112320, Note_on_c, 10, 82, 127
11, 112376, Note_on_c, 10, 84, 0
11, 112420, Note_on_c, 10, 82, 0
11, 112560, Note_on_c, 10, 87, 127
11, 112646, Note_on_c, 10, 87, 0
11, 112800, Note_on_c, 10, 91, 127
11, 112912, Note_on_c, 10, 91, 0
11, 113040, Note_on_c, 10, 89, 127
11, 113100, Note_on_c, 10, 89, 0
11, 113280, Note_on_c, 10, 70, 127
11, 113346, Note_on_c, 10, 70, 0
11, 113520, Note_on_c, 10, 70, 127
11, 113594, Note_on_c, 10, 70, 0
11, 113760, Note_on_c, 10, 70, 127
11, 113844, Note_on_c, 10, 70, 0
11, 114000, Note_on_c, 10, 72, 127
11, 114240, Note_on_c, 10, 70, 127
11, 114284, Note_on_c, 10, 72, 0
11, 114340, Note_on_c, 10, 70, 0
11, 114480, Note_on_c, 10, 67, 127
11, 114576, Note_on_c, 10, 67, 0
11, 114720, Note_on_c, 10, 63, 127
11, 114794, Note_on_c, 10, 63, 0
11, 114960, Note_on_c, 10, 58, 127
11, 115034, Note_on_c, 10, 58, 0
11, 134160, Note_on_c, 10, 74, 84
11, 134160, Note_on_c, 10, 70, 77
11, 134372, Note_on_c, 10, 70, 0
11, 134400, Note_on_c, 10, 75, 72
11, 134400, Note_on_c, 10, 72, 75
11, 134426, Note_on_c, 10, 74, 0
11, 134484, Note_on_c, 10, 72, 0
11, 134490, Note_on_c, 10, 75, 0
11, 134640, Note_on_c, 10, 77, 83
11, 134640, Note_on_c, 10, 74, 80
11, 134720, Note_on_c, 10, 74, 0
11, 134722, Note_on_c, 10, 77, 0
11, 134880, Note_on_c, 10, 74, 80
11, 134880, Note_on_c, 10, 77, 80
11, 134956, Note_on_c, 10, 74, 0
11, 134962, Note_on_c, 10, 77, 0
11, 135120, Note_on_c, 10, 77, 90
11, 135120, Note_on_c, 10, 74, 89
11, 135360, Note_on_c, 10, 74, 0
11, 135360, Note_on_c, 10, 77, 0
11, 135360, Note_on_c, 10, 75, 75
11, 135360, Note_on_c, 10, 72, 77
11, 135600, Note_on_c, 10, 72, 0
11, 135600, Note_on_c, 10, 75, 0
11, 135600, Note_on_c, 10, 70, 75
11, 135600, Note_on_c, 10, 74, 83
11, 135840, Note_on_c, 10, 74, 0
11, 135840, Note_on_c, 10, 70, 0
11, 135840, Note_on_c, 10, 72, 84
11, 135840, Note_on_c, 10, 69, 71
11, 136080, Note_on_c, 10, 69, 0
11, 136080, Note_on_c, 10, 72, 0
11, 136080, Note_on_c, 10, 67, 71
11, 136080, Note_on_c, 10, 70, 89
11, 136320, Note_on_c, 10, 70, 0
11, 136320, Note_on_c, 10, 67, 0
11, 136320, Note_on_c, 10, 69, 74
11, 136320, Note_on_c, 10, 72, 84
11, 136560, Note_on_c, 10, 72, 0
11, 136560, Note_on_c, 10, 69, 0
11, 136560, Note_on_c, 10, 74, 80
11, 136560, Note_on_c, 10, 70, 75
11, 136626, Note_on_c, 10, 70, 0
11, 136646, Note_on_c, 10, 74, 0
11, 136800, Note_on_c, 10, 74, 80
11, 136800, Note_on_c, 10, 70, 83
11, 136874, Note_on_c, 10, 70, 0
11, 136874, Note_on_c, 10, 74, 0
11, 137040, Note_on_c, 10, 70, 83
11, 137040, Note_on_c, 10, 74, 90
11, 137280, Note_on_c, 10, 72, 71
11, 137280, Note_on_c, 10, 69, 71
11, 137330, Note_on_c, 10, 74, 0
11, 137336, Note_on_c, 10, 70, 0
11, 137520, Note_on_c, 10, 72, 0
11, 137520, Note_on_c, 10, 69, 0
11, 137520, Note_on_c, 10, 67, 66
11, 137520, Note_on_c, 10, 70, 72
11, 137760, Note_on_c, 10, 70, 0
11, 137760, Note_on_c, 10, 67, 0
11, 137760, Note_on_c, 10, 69, 78
11, 137760, Note_on_c, 10, 65, 66
11, 138000, Note_on_c, 10, 65, 0
11, 138000, Note_on_c, 10, 69, 0
11, 138000, Note_on_c, 10, 63, 50
11, 138000, Note_on_c, 10, 67, 50
11, 138240, Note_on_c, 10, 67, 0
11, 138240, Note_on_c, 10, 63, 0
11, 138240, Note_on_c, 10, 69, 55
11, 138240, Note_on_c, 10, 65, 55
11, 138480, Note_on_c, 10, 65, 0
11, 138480, Note_on_c, 10, 69, 0
11, 138480, Note_on_c, 10, 67, 60
11, 138480, Note_on_c, 10, 70, 60
11, 138720, Note_on_c, 10, 70, 0
11, 138720, Note_on_c, 10, 67, 0
11, 138720, Note_on_c, 10, 72, 65
11, 138720, Note_on_c, 10, 69, 65
11, 138960, Note_on_c, 10, 69, 0
11, 138960, Note_on_c, 10, 72, 0
11, 138960, Note_on_c, 10, 74, 71
11, 138960, Note_on_c, 10, 70, 71
11, 139200, Note_on_c, 10, 70, 0
11, 139200, Note_on_c, 10, 74, 0
11, 139200, Note_on_c, 10, 75, 76
11, 139200, Note_on_c, 10, 72, 76
11, 139440, Note_on_c, 10, 72, 0
11, 139440, Note_on_c, 10, 75, 0
11, 139440, Note_on_c, 10, 77, 81
11, 139440, Note_on_c, 10, 74, 81
11, 139680, Note_on_c, 10, 74, 0
11, 139680, Note_on_c, 10, 77, 0
11, 139680, Note_on_c, 10, 79, 86
11, 139680, Note_on_c, 10, 75, 86
11, 139822, Note_on_c, 10, 75, 0
11, 139830, Note_on_c, 10, 79, 0
11, 139920, Note_on_c, 10, 75, 95
11, 139920, Note_on_c, 10, 79, 90
11, 140136, Note_on_c, 10, 79, 0
11, 140160, Note_on_c, 10, 74, 77
11, 140160, Note_on_c, 10, 77, 68
11, 140190, Note_on_c, 10, 75, 0
11, 140250, Note_on_c, 10, 77, 0
11, 140260, Note_on_c, 10, 74, 0
11, 140400, Note_on_c, 10, 72, 77
11, 140400, Note_on_c, 10, 75, 83
11, 140482, Note_on_c, 10, 75, 0
11, 140496, Note_on_c, 10, 72, 0
11, 140640, Note_on_c, 10, 74, 74
11, 140640, Note_on_c, 10, 70, 56
11, 140722, Note_on_c, 10, 70, 0
11, 140732, Note_on_c, 10, 74, 0
11, 140880, Note_on_c, 10, 69, 57
11, 140880, Note_on_c, 10, 72, 66
11, 141082, Note_on_c, 10, 69, 0
11, 141100, Note_on_c, 10, 72, 0
11, 141840, Note_on_c, 10, 74, 126
11, 141840, Note_on_c, 10, 70, 116
11, 142052, Note_on_c, 10, 70, 0
11, 142080, Note_on_c, 10, 72, 113
11, 142080, Note_on_c, 10, 75, 108
11, 142106, Note_on_c, 10, 74, 0
11, 142164, Note_on_c, 10, 72, 0
11, 142170, Note_on_c, 10, 75, 0
11, 142320, Note_on_c, 10, 77, 125
11, 142320, Note_on_c, 10, 74, 120
11, 142400, Note_on_c, 10, 74, 0
11, 142402, Note_on_c, 10, 77, 0
11, 142560, Note_on_c, 10, 77, 120
11, 142560, Note_on_c, 10, 74, 120
11, 142636, Note_on_c, 10, 74, 0
11, 142642, Note_on_c, 10, 77, 0
11, 142800, Note_on_c, 10, 77, 127
11, 142800, Note_on_c, 10, 74, 127
11, 143040, Note_on_c, 10, 74, 0
11, 143040, Note_on_c, 10, 77, 0
11, 143040, Note_on_c, 10, 72, 116
11, 143040, Note_on_c, 10, 75, 113
11, 143280, Note_on_c, 10, 75, 0
11, 143280, Note_on_c, 10, 72, 0
11, 143280, Note_on_c, 10, 70, 113
11, 143280, Note_on_c, 10, 74, 125
11, 143520, Note_on_c, 10, 74, 0
11, 143520, Note_on_c, 10, 70, 0
11, 143520, Note_on_c, 10, 69, 107
11, 143520, Note_on_c, 10, 72, 126
11, 143760, Note_on_c, 10, 72, 0
11, 143760, Note_on_c, 10, 69, 0
11, 143760, Note_on_c, 10, 67, 107
11, 143760, Note_on_c, 10, 70, 127
11, 144000, Note_on_c, 10, 70, 0
11, 144000, Note_on_c, 10, 67, 0
11, 144000, Note_on_c, 10, 72, 126
11, 144000, Note_on_c, 10, 69, 111
11, 144240, Note_on_c, 10, 69, 0
11, 144240, Note_on_c, 10, 72, 0
11, 144240, Note_on_c, 10, 74, 120
11, 144240, Note_on_c, 10, 70, 113
11, 144306, Note_on_c, 10, 70, 0
11, 144326, Note_on_c, 10, 74, 0
11, 144480, Note_on_c, 10, 70, 125
11, 144480, Note_on_c, 10, 74, 120
11, 144554, Note_on_c, 10, 74, 0
11, 144554, Note_on_c, 10, 70, 0
11, 144720, Note_on_c, 10, 70, 125
11, 144720, Note_on_c, 10, 74, 127
11, 144960, Note_on_c, 10, 69, 107
11, 144960, Note_on_c, 10, 72, 107
11, 145010, Note_on_c, 10, 74, 0
11, 145016, Note_on_c, 10, 70, 0
11, 145200, Note_on_c, 10, 69, 0
11, 145200, Note_on_c, 10, 72, 0
11, 145200, Note_on_c, 10, 67, 99
11, 145200, Note_on_c, 10, 70, 108
11, 145440, Note_on_c, 10, 70, 0
11, 145440, Note_on_c, 10, 67, 0
11, 145440, Note_on_c, 10, 65, 99
11, 145440, Note_on_c, 10, 69, 117
11, 145680, Note_on_c, 10, 69, 0
11, 145680, Note_on_c, 10, 65, 0
11, 145680, Note_on_c, 10, 67, 48
11, 145776, Note_on_c, 10, 67, 0
11, 145920, Note_on_c, 10, 69, 48
11, 146016, Note_on_c, 10, 69, 0
11, 146160, Note_on_c, 10, 70, 48
11, 146256, Note_on_c, 10, 70, 0
11, 146400, Note_on_c, 10, 70, 48
11, 146496, Note_on_c, 10, 70, 0
11, 146640, Note_on_c, 10, 72, 48
11, 146736, Note_on_c, 10, 72, 0
11, 146880, Note_on_c, 10, 70, 48
11, 146976, Note_on_c, 10, 70, 0
11, 147120, Note_on_c, 10, 69, 48
11, 147216, Note_on_c, 10, 69, 0
11, 147360, Note_on_c, 10, 67, 48
11, 147456, Note_on_c, 10, 67, 0
11, 147600, Note_on_c, 10, 66, 53
11, 147696, Note_on_c, 10, 66, 0
11, 147840, Note_on_c, 10, 69, 53
11, 147936, Note_on_c, 10, 69, 0
11, 148080, Note_on_c, 10, 74, 53
11, 148176, Note_on_c, 10, 74, 0
11, 148320, Note_on_c, 10, 72, 53
11, 148416, Note_on_c, 10, 72, 0
11, 148560, Note_on_c, 10, 70, 53
11, 148656, Note_on_c, 10, 70, 0
11, 148800, Note_on_c, 10, 69, 53
11, 148896, Note_on_c, 10, 69, 0
11, 149040, Note_on_c, 10, 67, 53
11, 149136, Note_on_c, 10, 67, 0
11, 149280, Note_on_c, 10, 66, 53
11, 149376, Note_on_c, 10, 66, 0
11, 149520, Note_on_c, 10, 67, 53
11, 149616, Note_on_c, 10, 67, 0
11, 149760, Note_on_c, 10, 70, 53
11, 149856, Note_on_c, 10, 70, 0
11, 150000, Note_on_c, 10, 75, 53
11, 150096, Note_on_c, 10, 75, 0
11, 150240, Note_on_c, 10, 74, 53
11, 150336, Note_on_c, 10, 74, 0
11, 150480, Note_on_c, 10, 72, 53
11, 150576, Note_on_c, 10, 72, 0
11, 150720, Note_on_c, 10, 70, 53
11, 150816, Note_on_c, 10, 70, 0
11, 150960, Note_on_c, 10, 69, 53
11, 151056, Note_on_c, 10, 69, 0
11, 151200, Note_on_c, 10, 67, 53
11, 151296, Note_on_c, 10, 67, 0
11, 151440, Note_on_c, 10, 66, 53
11, 151536, Note_on_c, 10, 66, 0
11, 151680, Note_on_c, 10, 69, 53
11, 151776, Note_on_c, 10, 69, 0
11, 151920, Note_on_c, 10, 74, 53
11, 152016, Note_on_c, 10, 74, 0
11, 152160, Note_on_c, 10, 72, 53
11, 152256, Note_on_c, 10, 72, 0
11, 152400, Note_on_c, 10, 70, 53
11, 152496, Note_on_c, 10, 70, 0
11, 152640, Note_on_c, 10, 69, 53
11, 152736, Note_on_c, 10, 69, 0
11, 152880, Note_on_c, 10, 67, 53
11, 152976, Note_on_c, 10, 67, 0
11, 153120, Note_on_c, 10, 66, 53
11, 153216, Note_on_c, 10, 66, 0
11, 153360, Note_on_c, 10, 67, 53
11, 153552, Note_on_c, 10, 67, 0
11, 153840, Note_on_c, 10, 79, 99
11, 153936, Note_on_c, 10, 79, 0
11, 154080, Note_on_c, 10, 81, 99
11, 154176, Note_on_c, 10, 81, 0
11, 154320, Note_on_c, 10, 82, 99
11, 154416, Note_on_c, 10, 82, 0
11, 154560, Note_on_c, 10, 84, 99
11, 154656, Note_on_c, 10, 84, 0
11, 154800, Note_on_c, 10, 86, 99
11, 154896, Note_on_c, 10, 86, 0
11, 155040, Note_on_c, 10, 88, 99
11, 155136, Note_on_c, 10, 88, 0
11, 155280, Note_on_c, 10, 89, 99
11, 155472, Note_on_c, 10, 89, 0
11, 155760, Note_on_c, 10, 81, 83
11, 155856, Note_on_c, 10, 81, 0
11, 156000, Note_on_c, 10, 82, 90
11, 156096, Note_on_c, 10, 82, 0
11, 156240, Note_on_c, 10, 84, 98
11, 156336, Note_on_c, 10, 84, 0
11, 156480, Note_on_c, 10, 86, 106
11, 156576, Note_on_c, 10, 86, 0
11, 156720, Note_on_c, 10, 87, 114
11, 156816, Note_on_c, 10, 87, 0
11, 156960, Note_on_c, 10, 89, 121
11, 157056, Note_on_c, 10, 89, 0
11, 157680, Note_on_c, 10, 82, 82
11, 157776, Note_on_c, 10, 82, 0
11, 157920, Note_on_c, 10, 84, 90
11, 158016, Note_on_c, 10, 84, 0
11, 158160, Note_on_c, 10, 86, 97
11, 158256, Note_on_c, 10, 86, 0
11, 158400, Note_on_c, 10, 87, 105
11, 158496, Note_on_c, 10, 87, 0
11, 158640, Note_on_c, 10, 89, 112
11, 158736, Note_on_c, 10, 89, 0
11, 158880, Note_on_c, 10, 91, 120
11, 158976, Note_on_c, 10, 91, 0
11, 159600, Note_on_c, 10, 81, 84
11, 159696, Note_on_c, 10, 81, 0
11, 159840, Note_on_c, 10, 82, 91
11, 159936, Note_on_c, 10, 82, 0
11, 160080, Note_on_c, 10, 84, 98
11, 160176, Note_on_c, 10, 84, 0
11, 160320, Note_on_c, 10, 86, 105
11, 160416, Note_on_c, 10, 86, 0
11, 160560, Note_on_c, 10, 87, 112
11, 160656, Note_on_c, 10, 87, 0
11, 160800, Note_on_c, 10, 89, 119
11, 160896, Note_on_c, 10, 89, 0
11, 161040, Note_on_c, 10, 89, 127
11, 161168, Note_on_c, 10, 89, 0
11, 161200, Note_on_c, 10, 89, 127
11, 161328, Note_on_c, 10, 89, 0
11, 161360, Note_on_c, 10, 89, 127
11, 161488, Note_on_c, 10, 89, 0
11, 161520, Note_on_c, 10, 89, 127
11, 161648, Note_on_c, 10, 89, 0
11, 161680, Note_on_c, 10, 89, 127
11, 161808, Note_on_c, 10, 89, 0
11, 161840, Note_on_c, 10, 89, 127
11, 161968, Note_on_c, 10, 89, 0
11, 162000, Note_on_c, 10, 87, 127
11, 162128, Note_on_c, 10, 87, 0
11, 162160, Note_on_c, 10, 87, 127
11, 162288, Note_on_c, 10, 87, 0
11, 162320, Note_on_c, 10, 87, 127
11, 162448, Note_on_c, 10, 87, 0
11, 162480, Note_on_c, 10, 86, 127
11, 162608, Note_on_c, 10, 86, 0
11, 162640, Note_on_c, 10, 86, 127
11, 162768, Note_on_c, 10, 86, 0
11, 162800, Note_on_c, 10, 86, 127
11, 162928, Note_on_c, 10, 86, 0
11, 162960, Note_on_c, 10, 84, 127
11, 163088, Note_on_c, 10, 84, 0
11, 163120, Note_on_c, 10, 84, 127
11, 163248, Note_on_c, 10, 84, 0
11, 163280, Note_on_c, 10, 84, 127
11, 163408, Note_on_c, 10, 84, 0
11, 163440, Note_on_c, 10, 82, 127
11, 163568, Note_on_c, 10, 82, 0
11, 163600, Note_on_c, 10, 82, 127
11, 163728, Note_on_c, 10, 82, 0
11, 163760, Note_on_c, 10, 82, 127
11, 163888, Note_on_c, 10, 82, 0
11, 163920, Note_on_c, 10, 81, 127
11, 164048, Note_on_c, 10, 81, 0
11, 164080, Note_on_c, 10, 81, 127
11, 164208, Note_on_c, 10, 81, 0
11, 164240, Note_on_c, 10, 81, 127
11, 164368, Note_on_c, 10, 81, 0
11, 164400, Note_on_c, 10, 82, 127
11, 164528, Note_on_c, 10, 82, 0
11, 164560, Note_on_c, 10, 82, 127
11, 164688, Note_on_c, 10, 82, 0
11, 164720, Note_on_c, 10, 82, 127
11, 164848, Note_on_c, 10, 82, 0
11, 164880, Note_on_c, 10, 84, 127
11, 165008, Note_on_c, 10, 84, 0
11, 165040, Note_on_c, 10, 84, 127
11, 165168, Note_on_c, 10, 84, 0
11, 165200, Note_on_c, 10, 84, 127
11, 165328, Note_on_c, 10, 84, 0
11, 165360, Note_on_c, 10, 82, 127
11, 165488, Note_on_c, 10, 82, 0
11, 165520, Note_on_c, 10, 82, 127
11, 165648, Note_on_c, 10, 82, 0
11, 165680, Note_on_c, 10, 82, 127
11, 165808, Note_on_c, 10, 82, 0
11, 165840, Note_on_c, 10, 81, 127
11, 165968, Note_on_c, 10, 81, 0
11, 166000, Note_on_c, 10, 81, 127
11, 166128, Note_on_c, 10, 81, 0
11, 166160, Note_on_c, 10, 81, 127
11, 166288, Note_on_c, 10, 81, 0
11, 166320, Note_on_c, 10, 79, 127
11, 166448, Note_on_c, 10, 79, 0
11, 166480, Note_on_c, 10, 79, 127
11, 166608, Note_on_c, 10, 79, 0
11, 166640, Note_on_c, 10, 79, 127
11, 166768, Note_on_c, 10, 79, 0
11, 166800, Note_on_c, 10, 77, 127
11, 166928, Note_on_c, 10, 77, 0
11, 166960, Note_on_c, 10, 77, 127
11, 167088, Note_on_c, 10, 77, 0
11, 167120, Note_on_c, 10, 77, 127
11, 167248, Note_on_c, 10, 77, 0
11, 167280, Note_on_c, 10, 75, 127
11, 167408, Note_on_c, 10, 75, 0
11, 167440, Note_on_c, 10, 75, 127
11, 167568, Note_on_c, 10, 75, 0
11, 167600, Note_on_c, 10, 75, 127
11, 167728, Note_on_c, 10, 75, 0
11, 167760, Note_on_c, 10, 74, 127
11, 167888, Note_on_c, 10, 74, 0
11, 167920, Note_on_c, 10, 74, 127
11, 168048, Note_on_c, 10, 74, 0
11, 168080, Note_on_c, 10, 74, 127
11, 168208, Note_on_c, 10, 74, 0
11, 168240, Note_on_c, 10, 72, 127
11, 168368, Note_on_c, 10, 72, 0
11, 168400, Note_on_c, 10, 72, 127
11, 168528, Note_on_c, 10, 72, 0
11, 168560, Note_on_c, 10, 72, 127
11, 168688, Note_on_c, 10, 72, 0
11, 168720, Note_on_c, 10, 70, 127
11, 168848, Note_on_c, 10, 70, 0
11, 168880, Note_on_c, 10, 70, 127
11, 169008, Note_on_c, 10, 70, 0
11, 169040, Note_on_c, 10, 70, 127
11, 169168, Note_on_c, 10, 70, 0
11, 169200, Note_on_c, 10, 74, 127
11, 169328, Note_on_c, 10, 74, 0
11, 169360, Note_on_c, 10, 74, 127
11, 169488, Note_on_c, 10, 74, 0
11, 169520, Note_on_c, 10, 74, 127
11, 169648, Note_on_c, 10, 74, 0
11, 169680, Note_on_c, 10, 77, 127
11, 169808, Note_on_c, 10, 77, 0
11, 169840, Note_on_c, 10, 77, 127
11, 169968, Note_on_c, 10, 77, 0
11, 170000, Note_on_c, 10, 77, 127
11, 170128, Note_on_c, 10, 77, 0
11, 170160, Note_on_c, 10, 82, 127
11, 170288, Note_on_c, 10, 82, 0
11, 170320, Note_on_c, 10, 82, 127
11, 170448, Note_on_c, 10, 82, 0
11, 170480, Note_on_c, 10, 82, 127
11, 170608, Note_on_c, 10, 82, 0
11, 170640, Note_on_c, 10, 86, 127
11, 170768, Note_on_c, 10, 86, 0
11, 170800, Note_on_c, 10, 86, 127
11, 170928, Note_on_c, 10, 86, 0
11, 170960, Note_on_c, 10, 86, 127
11, 171088, Note_on_c, 10, 86, 0
11, 171120, Note_on_c, 10, 89, 127
11, 171248, Note_on_c, 10, 89, 0
11, 171280, Note_on_c, 10, 89, 127
11, 171408, Note_on_c, 10, 89, 0
11, 171440, Note_on_c, 10, 89, 127
11, 171568, Note_on_c, 10, 89, 0
11, 171600, Note_on_c, 10, 89, 127
11, 171728, Note_on_c, 10, 89, 0
11, 171760, Note_on_c, 10, 89, 127
11, 171888, Note_on_c, 10, 89, 0
11, 171920, Note_on_c, 10, 89, 127
11, 172048, Note_on_c, 10, 89, 0
11, 172080, Note_on_c, 10, 89, 127
11, 172208, Note_on_c, 10, 89, 0
11, 172240, Note_on_c, 10, 89, 127
11, 172368, Note_on_c, 10, 89, 0
11, 172400, Note_on_c, 10, 89, 127
11, 172528, Note_on_c, 10, 89, 0
11, 172560, Note_on_c, 10, 89, 127
11, 172688, Note_on_c, 10, 89, 0
11, 172720, Note_on_c, 10, 89, 127
11, 172848, Note_on_c, 10, 89, 0
11, 172880, Note_on_c, 10, 89, 127
11, 173008, Note_on_c, 10, 89, 0
11, 173040, Note_on_c, 10, 89, 127
11, 173168, Note_on_c, 10, 89, 0
11, 173200, Note_on_c, 10, 89, 127
11, 173328, Note_on_c, 10, 89, 0
11, 173360, Note_on_c, 10, 89, 127
11, 173488, Note_on_c, 10, 89, 0
11, 173520, Note_on_c, 10, 87, 127
11, 173648, Note_on_c, 10, 87, 0
11, 173680, Note_on_c, 10, 87, 127
11, 173808, Note_on_c, 10, 87, 0
11, 173840, Note_on_c, 10, 87, 127
11, 173968, Note_on_c, 10, 87, 0
11, 174000, Note_on_c, 10, 86, 127
11, 174128, Note_on_c, 10, 86, 0
11, 174160, Note_on_c, 10, 86, 127
11, 174288, Note_on_c, 10, 86, 0
11, 174320, Note_on_c, 10, 86, 127
11, 174448, Note_on_c, 10, 86, 0
11, 174480, Note_on_c, 10, 84, 127
11, 174608, Note_on_c, 10, 84, 0
11, 174640, Note_on_c, 10, 84, 127
11, 174768, Note_on_c, 10, 84, 0
11, 174800, Note_on_c, 10, 84, 127
11, 174928, Note_on_c, 10, 84, 0
11, 174960, Note_on_c, 10, 82, 127
11, 175088, Note_on_c, 10, 82, 0
11, 175120, Note_on_c, 10, 82, 127
11, 175248, Note_on_c, 10, 82, 0
11, 175280, Note_on_c, 10, 82, 127
11, 175408, Note_on_c, 10, 82, 0
11, 175440, Note_on_c, 10, 81, 127
11, 175568, Note_on_c, 10, 81, 0
11, 175600, Note_on_c, 10, 81, 127
11, 175728, Note_on_c, 10, 81, 0
11, 175760, Note_on_c, 10, 81, 127
11, 175888, Note_on_c, 10, 81, 0
11, 175920, Note_on_c, 10, 82, 127
11, 176048, Note_on_c, 10, 82, 0
11, 176080, Note_on_c, 10, 82, 127
11, 176208, Note_on_c, 10, 82, 0
11, 176240, Note_on_c, 10, 82, 127
11, 176368, Note_on_c, 10, 82, 0
11, 176400, Note_on_c, 10, 84, 127
11, 176528, Note_on_c, 10, 84, 0
11, 176560, Note_on_c, 10, 84, 127
11, 176688, Note_on_c, 10, 84, 0
11, 176720, Note_on_c, 10, 84, 127
11, 176848, Note_on_c, 10, 84, 0
11, 176880, Note_on_c, 10, 82, 127
11, 177008, Note_on_c, 10, 82, 0
11, 177040, Note_on_c, 10, 82, 127
11, 177168, Note_on_c, 10, 82, 0
11, 177200, Note_on_c, 10, 82, 127
11, 177328, Note_on_c, 10, 82, 0
11, 177360, Note_on_c, 10, 81, 127
11, 177488, Note_on_c, 10, 81, 0
11, 177520, Note_on_c, 10, 81, 127
11, 177648, Note_on_c, 10, 81, 0
11, 177680, Note_on_c, 10, 81, 127
11, 177808, Note_on_c, 10, 81, 0
11, 177840, Note_on_c, 10, 79, 127
11, 177968, Note_on_c, 10, 79, 0
11, 178000, Note_on_c, 10, 79, 127
11, 178128, Note_on_c, 10, 79, 0
11, 178160, Note_on_c, 10, 79, 127
11, 178288, Note_on_c, 10, 79, 0
11, 178320, Note_on_c, 10, 77, 127
11, 178448, Note_on_c, 10, 77, 0
11, 178480, Note_on_c, 10, 77, 127
11, 178608, Note_on_c, 10, 77, 0
11, 178640, Note_on_c, 10, 77, 127
11, 178768, Note_on_c, 10, 77, 0
11, 178800, Note_on_c, 10, 75, 127
11, 178928, Note_on_c, 10, 75, 0
11, 178960, Note_on_c, 10, 75, 127
11, 179088, Note_on_c, 10, 75, 0
11, 179120, Note_on_c, 10, 75, 127
11, 179248, Note_on_c, 10, 75, 0
11, 179280, Note_on_c, 10, 74, 127
11, 179408, Note_on_c, 10, 74, 0
11, 179440, Note_on_c, 10, 74, 127
11, 179568, Note_on_c, 10, 74, 0
11, 179600, Note_on_c, 10, 74, 127
11, 179728, Note_on_c, 10, 74, 0
11, 179760, Note_on_c, 10, 72, 127
11, 179888, Note_on_c, 10, 72, 0
11, 179920, Note_on_c, 10, 72, 127
11, 180048, Note_on_c, 10, 72, 0
11, 180080, Note_on_c, 10, 72, 127
11, 180208, Note_on_c, 10, 72, 0
11, 180240, Note_on_c, 10, 70, 127
11, 180368, Note_on_c, 10, 70, 0
11, 180400, Note_on_c, 10, 70, 127
11, 180528, Note_on_c, 10, 70, 0
11, 180560, Note_on_c, 10, 70, 127
11, 180688, Note_on_c, 10, 70, 0
11, 180720, Note_on_c, 10, 74, 127
11, 180848, Note_on_c, 10, 74, 0
11, 180880, Note_on_c, 10, 74, 127
11, 181008, Note_on_c, 10, 74, 0
11, 181040, Note_on_c, 10, 74, 127
11, 181168, Note_on_c, 10, 74, 0
11, 181200, Note_on_c, 10, 77, 127
11, 181328, Note_on_c, 10, 77, 0
11, 181360, Note_on_c, 10, 77, 127
11, 181488, Note_on_c, 10, 77, 0
11, 181520, Note_on_c, 10, 77, 127
11, 181648, Note_on_c, 10, 77, 0
11, 181680, Note_on_c, 10, 82, 127
11, 181808, Note_on_c, 10, 82, 0
11, 181840, Note_on_c, 10, 82, 127
11, 181968, Note_on_c, 10, 82, 0
11, 182000, Note_on_c, 10, 82, 127
11, 182128, Note_on_c, 10, 82, 0
11, 182160, Note_on_c, 10, 86, 127
11, 182288, Note_on_c, 10, 86, 0
11, 182320, Note_on_c, 10, 86, 127
11, 182448, Note_on_c, 10, 86, 0
11, 182480, Note_on_c, 10, 86, 127
11, 182608, Note_on_c, 10, 86, 0
11, 182640, Note_on_c, 10, 89, 127
11, 182768, Note_on_c, 10, 89, 0
11, 182800, Note_on_c, 10, 89, 127
11, 182928, Note_on_c, 10, 89, 0
11, 182960, Note_on_c, 10, 89, 127
11, 183088, Note_on_c, 10, 89, 0
11, 183120, Note_on_c, 10, 89, 127
11, 183248, Note_on_c, 10, 89, 0
11, 183280, Note_on_c, 10, 89, 127
11, 183408, Note_on_c, 10, 89, 0
11, 183440, Note_on_c, 10, 89, 127
11, 183568, Note_on_c, 10, 89, 0
11, 183600, Note_on_c, 10, 89, 127
11, 183728, Note_on_c, 10, 89, 0
11, 183760, Note_on_c, 10, 89, 127
11, 183888, Note_on_c, 10, 89, 0
11, 183920, Note_on_c, 10, 89, 127
11, 184048, Note_on_c, 10, 89, 0
11, 184080, Note_on_c, 10, 89, 120
11, 184200, Note_on_c, 10, 89, 0
11, 184320, Note_on_c, 10, 86, 120
11, 184704, Note_on_c, 10, 86, 0
11, 184800, Note_on_c, 10, 82, 120
11, 184920, Note_on_c, 10, 82, 0
11, 185040, Note_on_c, 10, 77, 120
11, 185160, Note_on_c, 10, 77, 0
11, 185280, Note_on_c, 10, 87, 120
11, 185664, Note_on_c, 10, 87, 0
11, 185760, Note_on_c, 10, 84, 120
11, 185880, Note_on_c, 10, 84, 0
11, 186000, Note_on_c, 10, 77, 120
11, 186120, Note_on_c, 10, 77, 0
11, 186240, Note_on_c, 10, 86, 120
11, 186624, Note_on_c, 10, 86, 0
11, 186720, Note_on_c, 10, 82, 120
11, 186840, Note_on_c, 10, 82, 0
11, 186960, Note_on_c, 10, 77, 120
11, 187080, Note_on_c, 10, 77, 0
11, 187200, Note_on_c, 10, 84, 120
11, 187584, Note_on_c, 10, 84, 0
11, 187680, Note_on_c, 10, 81, 120
11, 187800, Note_on_c, 10, 81, 0
11, 187920, Note_on_c, 10, 82, 120
11, 188040, Note_on_c, 10, 82, 0
11, 188160, Note_on_c, 10, 86, 120
11, 188544, Note_on_c, 10, 86, 0
11, 188640, Note_on_c, 10, 82, 120
11, 188760, Note_on_c, 10, 82, 0
11, 188880, Note_on_c, 10, 77, 120
11, 189000, Note_on_c, 10, 77, 0
11, 189120, Note_on_c, 10, 87, 120
11, 189504, Note_on_c, 10, 87, 0
11, 189600, Note_on_c, 10, 84, 120
11, 189720, Note_on_c, 10, 84, 0
11, 189840, Note_on_c, 10, 77, 120
11, 189960, Note_on_c, 10, 77, 0
11, 190080, Note_on_c, 10, 86, 120
11, 190464, Note_on_c, 10, 86, 0
11, 190560, Note_on_c, 10, 82, 120
11, 190680, Note_on_c, 10, 82, 0
11, 190800, Note_on_c, 10, 77, 120
11, 190920, Note_on_c, 10, 77, 0
11, 191040, Note_on_c, 10, 84, 120
11, 191424, Note_on_c, 10, 84, 0
11, 191520, Note_on_c, 10, 81, 120
11, 191640, Note_on_c, 10, 81, 0
11, 191760, Note_on_c, 10, 82, 120
11, 191880, Note_on_c, 10, 82, 0
11, 192000, Note_on_c, 10, 77, 120
11, 192384, Note_on_c, 10, 77, 0
11, 192480, Note_on_c, 10, 74, 120
11, 192600, Note_on_c, 10, 74, 0
11, 192720, Note_on_c, 10, 70, 120
11, 192840, Note_on_c, 10, 70, 0
11, 192960, Note_on_c, 10, 65, 120
11, 193344, Note_on_c, 10, 65, 0
11, 193440, Note_on_c, 10, 62, 120
11, 193560, Note_on_c, 10, 62, 0
11, 193680, Note_on_c, 10, 58, 120
11, 193800, Note_on_c, 10, 58, 0
11, 193920, Note_on_c, 10, 62, 120
11, 194304, Note_on_c, 10, 62, 0
11, 194400, Note_on_c, 10, 58, 120
11, 194760, Note_on_c, 10, 58, 0
11, 194880, Note_on_c, 10, 62, 120
11, 195264, Note_on_c, 10, 62, 0
11, 195360, Note_on_c, 10, 58, 120
11, 195480, Note_on_c, 10, 58, 0
11, 195600, Note_on_c, 10, 58, 127
11, 195744, Note_on_c, 10, 58, 0
11, 196080, Note_on_c, 10, 58, 127
11, 196342, Note_on_c, 10, 58, 0
11, 196560, Note_on_c, 10, 58, 127
11, 196744, Note_on_c, 10, 58, 0
11, 197040, Note_on_c, 10, 58, 127
11, 197196, Note_on_c, 10, 58, 0
11, 197520, Note_on_c, 10, 58, 127
11, 197676, Note_on_c, 10, 58, 0
11, 201840, Note_on_c, 10, 60, 89
11, 203606, Note_on_c, 10, 60, 0
11, 203996, Control_c, 10, 7, 107
11, 204000, Note_on_c, 10, 55, 127
11, 204036, Control_c, 10, 7, 106
11, 204076, Control_c, 10, 7, 105
11, 204116, Control_c, 10, 7, 104
11, 204144, Control_c, 10, 7, 103
11, 204184, Control_c, 10, 7, 102
11, 204224, Control_c, 10, 7, 101
11, 204248, Control_c, 10, 7, 100
11, 204288, Control_c, 10, 7, 99
11, 204328, Control_c, 10, 7, 98
11, 204368, Control_c, 10, 7, 97
11, 204396, Control_c, 10, 7, 96
11, 204436, Control_c, 10, 7, 95
11, 204476, Control_c, 10, 7, 94
11, 204504, Control_c, 10, 7, 93
11, 204544, Control_c, 10, 7, 92
11, 204584, Control_c, 10, 7, 91
11, 204608, Control_c, 10, 7, 90
11, 204648, Control_c, 10, 7, 89
11, 204688, Control_c, 10, 7, 88
11, 204728, Control_c, 10, 7, 87
11, 204756, Control_c, 10, 7, 86
11, 204796, Control_c, 10, 7, 85
11, 204836, Control_c, 10, 7, 84
11, 204864, Control_c, 10, 7, 83
11, 204904, Control_c, 10, 7, 82
11, 204944, Control_c, 10, 7, 81
11, 204968, Control_c, 10, 7, 80
11, 205008, Control_c, 10, 7, 79
11, 205048, Control_c, 10, 7, 78
11, 205088, Control_c, 10, 7, 77
11, 205116, Control_c, 10, 7, 76
11, 205156, Control_c, 10, 7, 75
11, 205196, Control_c, 10, 7, 74
11, 205224, Control_c, 10, 7, 73
11, 205264, Control_c, 10, 7, 72
11, 205304, Control_c, 10, 7, 71
11, 205328, Control_c, 10, 7, 70
11, 205368, Control_c, 10, 7, 69
11, 205408, Control_c, 10, 7, 68
11, 205448, Control_c, 10, 7, 67
11, 205476, Control_c, 10, 7, 66
11, 205516, Control_c, 10, 7, 65
11, 205556, Control_c, 10, 7, 64
11, 205584, Control_c, 10, 7, 63
11, 205624, Control_c, 10, 7, 62
11, 205664, Control_c, 10, 7, 61
11, 205688, Control_c, 10, 7, 60
11, 205728, Control_c, 10, 7, 59
11, 205768, Control_c, 10, 7, 58
11, 205808, Control_c, 10, 7, 57
11, 205836, Control_c, 10, 7, 56
11, 205876, Control_c, 10, 7, 55
11, 205916, Control_c, 10, 7, 54
11, 205944, Control_c, 10, 7, 53
11, 205984, Control_c, 10, 7, 52
11, 206024, Control_c, 10, 7, 51
11, 206048, Control_c, 10, 7, 50
11, 206088, Control_c, 10, 7, 49
11, 206128, Control_c, 10, 7, 48
11, 206168, Control_c, 10, 7, 47
11, 206196, Control_c, 10, 7, 46
11, 206236, Control_c, 10, 7, 45
11, 206276, Control_c, 10, 7, 44
11, 206304, Control_c, 10, 7, 43
11, 206344, Control_c, 10, 7, 42
11, 206384, Control_c, 10, 7, 41
11, 206408, Control_c, 10, 7, 40
11, 206448, Control_c, 10, 7, 39
11, 206488, Control_c, 10, 7, 38
11, 206528, Control_c, 10, 7, 37
11, 206556, Control_c, 10, 7, 36
11, 206596, Control_c, 10, 7, 35
11, 206636, Control_c, 10, 7, 34
11, 206664, Control_c, 10, 7, 33
11, 206704, Control_c, 10, 7, 32
11, 206744, Control_c, 10, 7, 31
11, 206768, Control_c, 10, 7, 30
11, 206808, Control_c, 10, 7, 29
11, 206848, Control_c, 10, 7, 28
11, 206888, Control_c, 10, 7, 27
11, 206916, Control_c, 10, 7, 26
11, 206956, Control_c, 10, 7, 25
11, 206996, Control_c, 10, 7, 24
11, 207024, Control_c, 10, 7, 23
11, 207064, Control_c, 10, 7, 22
11, 207104, Control_c, 10, 7, 21
11, 207128, Control_c, 10, 7, 20
11, 207168, Control_c, 10, 7, 19
11, 207208, Control_c, 10, 7, 18
11, 207248, Control_c, 10, 7, 17
11, 207276, Control_c, 10, 7, 16
11, 207316, Control_c, 10, 7, 15
11, 207356, Control_c, 10, 7, 14
11, 207384, Control_c, 10, 7, 13
11, 207424, Control_c, 10, 7, 12
11, 207464, Control_c, 10, 7, 11
11, 207488, Control_c, 10, 7, 10
11, 207528, Control_c, 10, 7, 9
11, 207568, Control_c, 10, 7, 8
11, 207608, Control_c, 10, 7, 7
11, 207636, Control_c, 10, 7, 6
11, 207676, Control_c, 10, 7, 5
11, 207716, Control_c, 10, 7, 4
11, 207744, Control_c, 10, 7, 3
11, 207780, Note_on_c, 10, 55, 0
11, 207784, Control_c, 10, 7, 2
11, 207824, Control_c, 10, 7, 1
11, 207848, Control_c, 10, 7, 0
11, 207864, Control_c, 10, 7, 6
11, 207876, Control_c, 10, 7, 14
11, 207888, Control_c, 10, 7, 22
11, 207904, Control_c, 10, 7, 30
11, 207916, Control_c, 10, 7, 38
11, 207928, Control_c, 10, 7, 46
11, 207944, Control_c, 10, 7, 54
11, 207956, Control_c, 10, 7, 61
11, 207968, Control_c, 10, 7, 69
11, 207984, Control_c, 10, 7, 77
11, 207996, Control_c, 10, 7, 85
11, 208008, Control_c, 10, 7, 93
11, 208024, Control_c, 10, 7, 101
11, 208036, Control_c, 10, 7, 109
11, 213120, Note_on_c, 10, 72, 14
11, 213168, Note_on_c, 10, 72, 0
11, 213180, Note_on_c, 10, 69, 28
11, 213228, Note_on_c, 10, 69, 0
11, 213240, Note_on_c, 10, 72, 33
11, 213288, Note_on_c, 10, 72, 0
11, 213300, Note_on_c, 10, 69, 28
11, 213348, Note_on_c, 10, 69, 0
11, 213360, Note_on_c, 10, 72, 33
11, 213408, Note_on_c, 10, 72, 0
11, 213420, Note_on_c, 10, 69, 31
11, 213468, Note_on_c, 10, 69, 0
11, 213480, Note_on_c, 10, 72, 33
11, 213528, Note_on_c, 10, 72, 0
11, 213540, Note_on_c, 10, 69, 31
11, 213588, Note_on_c, 10, 69, 0
11, 213600, Note_on_c, 10, 72, 33
11, 213648, Note_on_c, 10, 72, 0
11, 213660, Note_on_c, 10, 69, 33
11, 213708, Note_on_c, 10, 69, 0
11, 213720, Note_on_c, 10, 72, 31
11, 213768, Note_on_c, 10, 72, 0
11, 213780, Note_on_c, 10, 69, 31
11, 213828, Note_on_c, 10, 69, 0
11, 213840, Note_on_c, 10, 72, 31
11, 213888, Note_on_c, 10, 72, 0
11, 213900, Note_on_c, 10, 69, 28
11, 213948, Note_on_c, 10, 69, 0
11, 213960, Note_on_c, 10, 72, 31
11, 214008, Note_on_c, 10, 72, 0
11, 214020, Note_on_c, 10, 69, 31
11, 214068, Note_on_c, 10, 69, 0
11, 214080, Note_on_c, 10, 72, 26
11, 214080, Note_on_c, 10, 69, 26
11, 214106, Note_on_c, 10, 69, 0
11, 214250, Note_on_c, 10, 72, 0
11, 223920, Note_on_c, 10, 74, 32
11, 223956, Note_on_c, 10, 74, 0
11, 224040, Note_on_c, 10, 75, 32
11, 224076, Note_on_c, 10, 75, 0
11, 224160, Note_on_c, 10, 77, 32
11, 224196, Note_on_c, 10, 77, 0
11, 224280, Note_on_c, 10, 74, 32
11, 224316, Note_on_c, 10, 74, 0
11, 224880, Note_on_c, 10, 75, 32
11, 224916, Note_on_c, 10, 75, 0
11, 225000, Note_on_c, 10, 77, 32
11, 225036, Note_on_c, 10, 77, 0
11, 225120, Note_on_c, 10, 78, 32
11, 225156, Note_on_c, 10, 78, 0
11, 225240, Note_on_c, 10, 75, 32
11, 225276, Note_on_c, 10, 75, 0
11, 225840, Note_on_c, 10, 74, 32
11, 225876, Note_on_c, 10, 74, 0
11, 225960, Note_on_c, 10, 75, 32
11, 225996, Note_on_c, 10, 75, 0
11, 226080, Note_on_c, 10, 77, 32
11, 226116, Note_on_c, 10, 77, 0
11, 226200, Note_on_c, 10, 74, 32
11, 226236, Note_on_c, 10, 74, 0
11, 226800, Note_on_c, 10, 74, 35
11, 226836, Note_on_c, 10, 74, 0
11, 226920, Note_on_c, 10, 77, 35
11, 226956, Note_on_c, 10, 77, 0
11, 227280, Note_on_c, 10, 77, 39
11, 227316, Note_on_c, 10, 77, 0
11, 227400, Note_on_c, 10, 82, 39
11, 227436, Note_on_c, 10, 82, 0
11, 227760, Note_on_c, 10, 82, 43
11, 227796, Note_on_c, 10, 82, 0
11, 227880, Note_on_c, 10, 86, 43
11, 227916, Note_on_c, 10, 86, 0
11, 228000, Note_on_c, 10, 89, 43
11, 228036, Note_on_c, 10, 89, 0
11, 228720, Note_on_c, 10, 74, 50
11, 228756, Note_on_c, 10, 74, 0
11, 228840, Note_on_c, 10, 77, 50
11, 228876, Note_on_c, 10, 77, 0
11, 229200, Note_on_c, 10, 77, 56
11, 229236, Note_on_c, 10, 77, 0
11, 229320, Note_on_c, 10, 82, 56
11, 229356, Note_on_c, 10, 82, 0
11, 229680, Note_on_c, 10, 82, 62
11, 229716, Note_on_c, 10, 82, 0
11, 229800, Note_on_c, 10, 86, 62
11, 229836, Note_on_c, 10, 86, 0
11, 229920, Note_on_c, 10, 89, 62
11, 229956, Note_on_c, 10, 89, 0
11, 230640, Note_on_c, 10, 74, 74
11, 230676, Note_on_c, 10, 74, 0
11, 230760, Note_on_c, 10, 77, 74
11, 230796, Note_on_c, 10, 77, 0
11, 230880, Note_on_c, 10, 82, 74
11, 230916, Note_on_c, 10, 82, 0
11, 231000, Note_on_c, 10, 82, 74
11, 231036, Note_on_c, 10, 82, 0
11, 231120, Note_on_c, 10, 82, 74
11, 231156, Note_on_c, 10, 82, 0
11, 231240, Note_on_c, 10, 82, 74
11, 231276, Note_on_c, 10, 82, 0
11, 231360, Note_on_c, 10, 82, 85
11, 231396, Note_on_c, 10, 82, 0
11, 231480, Note_on_c, 10, 89, 85
11, 231516, Note_on_c, 10, 89, 0
11, 231600, Note_on_c, 10, 89, 85
11, 231636, Note_on_c, 10, 89, 0
11, 231720, Note_on_c, 10, 89, 85
11, 231756, Note_on_c, 10, 89, 0
11, 231840, Note_on_c, 10, 89, 102
11, 231876, Note_on_c, 10, 89, 0
11, 231960, Note_on_c, 10, 89, 102
11, 231996, Note_on_c, 10, 89, 0
11, 232080, Note_on_c, 10, 89, 102
11, 232116, Note_on_c, 10, 89, 0
11, 232200, Note_on_c, 10, 89, 102
11, 232236, Note_on_c, 10, 89, 0
11, 232320, Note_on_c, 10, 89, 127
11, 232356, Note_on_c, 10, 89, 0
11, 232440, Note_on_c, 10, 89, 127
11, 232476, Note_on_c, 10, 89, 0
11, 232560, Note_on_c, 10, 89, 127
11, 232596, Note_on_c, 10, 89, 0
11, 232680, Note_on_c, 10, 89, 127
11, 232716, Note_on_c, 10, 89, 0
11, 232800, Note_on_c, 10, 89, 127
11, 232836, Note_on_c, 10, 89, 0
11, 232920, Note_on_c, 10, 89, 127
11, 232956, Note_on_c, 10, 89, 0
11, 233040, Note_on_c, 10, 91, 127
11, 233076, Note_on_c, 10, 91, 0
11, 233160, Note_on_c, 10, 91, 127
11, 233196, Note_on_c, 10, 91, 0
11, 233280, Note_on_c, 10, 92, 127
11, 233316, Note_on_c, 10, 92, 0
11, 233400, Note_on_c, 10, 77, 127
11, 233436, Note_on_c, 10, 77, 0
11, 233520, Note_on_c, 10, 77, 127
11, 233556, Note_on_c, 10, 77, 0
11, 233640, Note_on_c, 10, 77, 127
11, 233676, Note_on_c, 10, 77, 0
11, 233760, Note_on_c, 10, 77, 127
11, 233796, Note_on_c, 10, 77, 0
11, 233880, Note_on_c, 10, 77, 127
11, 233916, Note_on_c, 10, 77, 0
11, 234000, Note_on_c, 10, 77, 127
11, 234036, Note_on_c, 10, 77, 0
11, 234120, Note_on_c, 10, 77, 127
11, 234156, Note_on_c, 10, 77, 0
11, 234240, Note_on_c, 10, 78, 127
11, 234276, Note_on_c, 10, 78, 0
11, 234360, Note_on_c, 10, 78, 127
11, 234396, Note_on_c, 10, 78, 0
11, 234480, Note_on_c, 10, 78, 127
11, 234516, Note_on_c, 10, 78, 0
11, 234600, Note_on_c, 10, 78, 127
11, 234636, Note_on_c, 10, 78, 0
11, 234720, Note_on_c, 10, 78, 127
11, 234756, Note_on_c, 10, 78, 0
11, 234840, Note_on_c, 10, 78, 127
11, 234876, Note_on_c, 10, 78, 0
11, 234960, Note_on_c, 10, 78, 127
11, 234996, Note_on_c, 10, 78, 0
11, 235080, Note_on_c, 10, 78, 127
11, 235116, Note_on_c, 10, 78, 0
11, 238080, Note_on_c, 10, 58, 89
11, 238080, Note_on_c, 10, 67, 89
11, 238260, Note_on_c, 10, 67, 0
11, 238260, Note_on_c, 10, 58, 0
11, 240000, Note_on_c, 10, 58, 89
11, 240000, Note_on_c, 10, 67, 89
11, 240180, Note_on_c, 10, 67, 0
11, 240180, Note_on_c, 10, 58, 0
11, 256320, Control_c, 10, 7, 100
11, 257280, Note_on_c, 10, 67, 45
11, 257342, Note_on_c, 10, 67, 0
11, 257520, Note_on_c, 10, 79, 47
11, 257886, Note_on_c, 10, 79, 0
11, 258000, Note_on_c, 10, 82, 50
11, 258370, Note_on_c, 10, 82, 0
11, 258480, Note_on_c, 10, 80, 53
11, 258874, Note_on_c, 10, 80, 0
11, 258960, Note_on_c, 10, 77, 56
11, 259274, Note_on_c, 10, 77, 0
11, 259440, Note_on_c, 10, 79, 59
11, 259756, Note_on_c, 10, 79, 0
11, 259920, Note_on_c, 10, 75, 63
11, 260274, Note_on_c, 10, 75, 0
11, 260400, Note_on_c, 10, 77, 66
11, 260754, Note_on_c, 10, 77, 0
11, 260880, Note_on_c, 10, 70, 69
11, 261224, Note_on_c, 10, 70, 0
11, 261360, Note_on_c, 10, 79, 72
11, 261704, Note_on_c, 10, 79, 0
11, 261840, Note_on_c, 10, 82, 75
11, 262210, Note_on_c, 10, 82, 0
11, 262320, Note_on_c, 10, 80, 78
11, 262674, Note_on_c, 10, 80, 0
11, 262800, Note_on_c, 10, 77, 83
11, 263152, Note_on_c, 10, 77, 0
11, 263280, Note_on_c, 10, 79, 86
11, 263654, Note_on_c, 10, 79, 0
11, 263760, Note_on_c, 10, 82, 89
11, 264096, Note_on_c, 10, 82, 0
11, 264240, Note_on_c, 10, 84, 92
11, 264572, Note_on_c, 10, 84, 0
11, 264720, Note_on_c, 10, 80, 95
11, 265130, Note_on_c, 10, 80, 0
11, 265200, Note_on_c, 10, 82, 102
11, 265522, Note_on_c, 10, 82, 0
11, 265680, Note_on_c, 10, 86, 102
11, 265980, Note_on_c, 10, 86, 0
11, 266160, Note_on_c, 10, 87, 102
11, 266442, Note_on_c, 10, 87, 0
11, 266640, Note_on_c, 10, 72, 102
11, 266952, Note_on_c, 10, 72, 0
11, 267120, Note_on_c, 10, 74, 102
11, 267444, Note_on_c, 10, 74, 0
11, 267600, Note_on_c, 10, 77, 102
11, 267910, Note_on_c, 10, 77, 0
11, 268080, Note_on_c, 10, 79, 127
11, 268390, Note_on_c, 10, 79, 0
11, 268560, Note_on_c, 10, 75, 127
11, 268740, Note_on_c, 10, 75, 0
11, 268800, Note_on_c, 10, 79, 127
11, 268920, Note_on_c, 10, 79, 0
11, 269040, Note_on_c, 10, 79, 127
11, 269492, Note_on_c, 10, 79, 0
11, 269520, Note_on_c, 10, 76, 127
11, 269616, Note_on_c, 10, 76, 0
11, 269760, Note_on_c, 10, 92, 127
11, 269886, Note_on_c, 10, 92, 0
11, 270000, Note_on_c, 10, 89, 127
11, 270120, Note_on_c, 10, 89, 0
11, 270240, Note_on_c, 10, 86, 127
11, 270344, Note_on_c, 10, 86, 0
11, 270480, Note_on_c, 10, 82, 127
11, 270584, Note_on_c, 10, 82, 0
11, 270720, Note_on_c, 10, 80, 127
11, 270824, Note_on_c, 10, 80, 0
11, 270960, Note_on_c, 10, 77, 127
11, 271070, Note_on_c, 10, 77, 0
11, 271200, Note_on_c, 10, 74, 127
11, 271296, Note_on_c, 10, 74, 0
11, 271440, Note_on_c, 10, 70, 127
11, 271536, Note_on_c, 10, 70, 0
11, 271680, Note_on_c, 10, 74, 127
11, 271796, Note_on_c, 10, 74, 0
11, 271920, Note_on_c, 10, 77, 127
11, 272016, Note_on_c, 10, 77, 0
11, 272160, Note_on_c, 10, 80, 127
11, 272272, Note_on_c, 10, 80, 0
11, 272400, Note_on_c, 10, 82, 127
11, 272492, Note_on_c, 10, 82, 0
11, 272640, Note_on_c, 10, 86, 127
11, 272764, Note_on_c, 10, 86, 0
11, 272880, Note_on_c, 10, 89, 127
11, 272996, Note_on_c, 10, 89, 0
11, 273120, Note_on_c, 10, 92, 127
11, 273240, Note_on_c, 10, 92, 0
11, 273360, Note_on_c, 10, 94, 127
11, 273482, Note_on_c, 10, 94, 0
11, 273600, Note_on_c, 10, 92, 127
11, 273720, Note_on_c, 10, 92, 0
11, 273840, Note_on_c, 10, 89, 127
11, 273936, Note_on_c, 10, 89, 0
11, 274080, Note_on_c, 10, 86, 127
11, 274194, Note_on_c, 10, 86, 0
11, 274320, Note_on_c, 10, 82, 127
11, 274416, Note_on_c, 10, 82, 0
11, 274560, Note_on_c, 10, 80, 127
11, 274654, Note_on_c, 10, 80, 0
11, 274800, Note_on_c, 10, 77, 127
11, 274910, Note_on_c, 10, 77, 0
11, 275040, Note_on_c, 10, 74, 127
11, 275136, Note_on_c, 10, 74, 0
11, 275280, Note_on_c, 10, 70, 127
11, 275370, Note_on_c, 10, 70, 0
11, 275520, Note_on_c, 10, 74, 127
11, 275626, Note_on_c, 10, 74, 0
11, 275760, Note_on_c, 10, 77, 127
11, 275856, Note_on_c, 10, 77, 0
11, 276000, Note_on_c, 10, 80, 127
11, 276114, Note_on_c, 10, 80, 0
11, 276240, Note_on_c, 10, 82, 127
11, 276324, Note_on_c, 10, 82, 0
11, 276480, Note_on_c, 10, 86, 127
11, 276606, Note_on_c, 10, 86, 0
11, 276720, Note_on_c, 10, 89, 127
11, 276830, Note_on_c, 10, 89, 0
11, 276960, Note_on_c, 10, 89, 127
11, 277044, Note_on_c, 10, 89, 0
11, 277200, Note_on_c, 10, 92, 127
11, 277296, Note_on_c, 10, 92, 0
11, 277440, Note_on_c, 10, 91, 127
11, 277544, Note_on_c, 10, 91, 0
11, 277680, Note_on_c, 10, 91, 127
11, 278004, Note_on_c, 10, 91, 0
11, 278160, Note_on_c, 10, 87, 127
11, 278244, Note_on_c, 10, 87, 0
11, 278400, Note_on_c, 10, 82, 127
11, 279214, Note_on_c, 10, 82, 0
11, 279360, Note_on_c, 10, 91, 127
11, 279476, Note_on_c, 10, 91, 0
11, 279600, Note_on_c, 10, 91, 127
11, 279922, Note_on_c, 10, 91, 0
11, 280080, Note_on_c, 10, 87, 127
11, 280170, Note_on_c, 10, 87, 0
11, 280320, Note_on_c, 10, 82, 127
11, 281126, Note_on_c, 10, 82, 0
11, 281160, Note_on_c, 10, 87, 127
11, 281218, Note_on_c, 10, 87, 0
11, 281220, Note_on_c, 10, 89, 127
11, 281278, Note_on_c, 10, 89, 0
11, 281280, Note_on_c, 10, 91, 127
11, 281620, Note_on_c, 10, 91, 0
11, 281760, Note_on_c, 10, 87, 127
11, 281852, Note_on_c, 10, 87, 0
11, 282000, Note_on_c, 10, 86, 127
11, 282110, Note_on_c, 10, 86, 0
11, 282240, Note_on_c, 10, 84, 127
11, 282580, Note_on_c, 10, 84, 0
11, 282720, Note_on_c, 10, 84, 127
11, 282824, Note_on_c, 10, 84, 0
11, 282960, Note_on_c, 10, 84, 127
11, 283066, Note_on_c, 10, 84, 0
11, 283200, Note_on_c, 10, 86, 127
11, 283544, Note_on_c, 10, 86, 0
11, 283680, Note_on_c, 10, 86, 127
11, 283776, Note_on_c, 10, 86, 0
11, 283920, Note_on_c, 10, 86, 127
11, 284014, Note_on_c, 10, 86, 0
11, 284160, Note_on_c, 10, 87, 127
11, 284444, Note_on_c, 10, 87, 0
11, 285000, Note_on_c, 10, 87, 127
11, 285058, Note_on_c, 10, 87, 0
11, 285060, Note_on_c, 10, 89, 127
11, 285118, Note_on_c, 10, 89, 0
11, 285120, Note_on_c, 10, 91, 127
11, 285470, Note_on_c, 10, 91, 0
11, 285600, Note_on_c, 10, 87, 127
11, 285702, Note_on_c, 10, 87, 0
11, 285840, Note_on_c, 10, 86, 127
11, 285954, Note_on_c, 10, 86, 0
11, 286080, Note_on_c, 10, 84, 127
11, 286400, Note_on_c, 10, 84, 0
11, 286560, Note_on_c, 10, 84, 127
11, 286646, Note_on_c, 10, 84, 0
11, 286800, Note_on_c, 10, 84, 127
11, 286904, Note_on_c, 10, 84, 0
11, 287040, Note_on_c, 10, 86, 127
11, 287390, Note_on_c, 10, 86, 0
11, 287520, Note_on_c, 10, 86, 127
11, 287616, Note_on_c, 10, 86, 0
11, 287760, Note_on_c, 10, 86, 127
11, 287876, Note_on_c, 10, 86, 0
11, 288000, Note_on_c, 10, 87, 112
11, 288160, Note_on_c, 10, 87, 0
11, 288160, Note_on_c, 10, 87, 106
11, 288320, Note_on_c, 10, 87, 0
11, 288320, Note_on_c, 10, 87, 112
11, 288480, Note_on_c, 10, 87, 0
11, 288480, Note_on_c, 10, 91, 90
11, 288640, Note_on_c, 10, 91, 0
11, 288640, Note_on_c, 10, 91, 98
11, 288800, Note_on_c, 10, 91, 0
11, 288800, Note_on_c, 10, 91, 92
11, 288960, Note_on_c, 10, 91, 0
11, 288960, Note_on_c, 10, 84, 120
11, 289120, Note_on_c, 10, 84, 0
11, 289120, Note_on_c, 10, 84, 127
11, 289280, Note_on_c, 10, 84, 0
11, 289280, Note_on_c, 10, 84, 127
11, 289440, Note_on_c, 10, 84, 0
11, 289440, Note_on_c, 10, 87, 102
11, 289600, Note_on_c, 10, 87, 0
11, 289600, Note_on_c, 10, 87, 106
11, 289760, Note_on_c, 10, 87, 0
11, 289760, Note_on_c, 10, 87, 96
11, 289920, Note_on_c, 10, 87, 0
11, 289920, Note_on_c, 10, 80, 116
11, 290080, Note_on_c, 10, 80, 0
11, 290080, Note_on_c, 10, 80, 116
11, 290240, Note_on_c, 10, 80, 0
11, 290240, Note_on_c, 10, 80, 108
11, 290400, Note_on_c, 10, 80, 0
11, 290400, Note_on_c, 10, 84, 110
11, 290560, Note_on_c, 10, 84, 0
11, 290560, Note_on_c, 10, 84, 120
11, 290720, Note_on_c, 10, 84, 0
11, 290720, Note_on_c, 10, 84, 110
11, 290880, Note_on_c, 10, 84, 0
11, 290880, Note_on_c, 10, 77, 127
11, 291002, Note_on_c, 10, 77, 0
11, 291120, Note_on_c, 10, 80, 127
11, 291242, Note_on_c, 10, 80, 0
11, 291360, Note_on_c, 10, 84, 127
11, 291470, Note_on_c, 10, 84, 0
11, 291600, Note_on_c, 10, 88, 127
11, 291694, Note_on_c, 10, 88, 0
11, 291840, Note_on_c, 10, 89, 112
11, 292000, Note_on_c, 10, 89, 0
11, 292000, Note_on_c, 10, 89, 112
11, 292160, Note_on_c, 10, 89, 0
11, 292160, Note_on_c, 10, 89, 80
11, 292320, Note_on_c, 10, 89, 0
11, 292320, Note_on_c, 10, 92, 90
11, 292480, Note_on_c, 10, 92, 0
11, 292480, Note_on_c, 10, 92, 96
11, 292640, Note_on_c, 10, 92, 0
11, 292640, Note_on_c, 10, 92, 112
11, 292800, Note_on_c, 10, 92, 0
11, 292800, Note_on_c, 10, 86, 114
11, 292960, Note_on_c, 10, 86, 0
11, 292960, Note_on_c, 10, 86, 127
11, 293120, Note_on_c, 10, 86, 0
11, 293120, Note_on_c, 10, 86, 118
11, 293280, Note_on_c, 10, 86, 0
11, 293280, Note_on_c, 10, 89, 106
11, 293440, Note_on_c, 10, 89, 0
11, 293440, Note_on_c, 10, 89, 98
11, 293600, Note_on_c, 10, 89, 0
11, 293600, Note_on_c, 10, 89, 94
11, 293760, Note_on_c, 10, 89, 0
11, 293760, Note_on_c, 10, 82, 118
11, 293920, Note_on_c, 10, 82, 0
11, 293920, Note_on_c, 10, 82, 106
11, 294080, Note_on_c, 10, 82, 0
11, 294080, Note_on_c, 10, 82, 92
11, 294240, Note_on_c, 10, 82, 0
11, 294240, Note_on_c, 10, 86, 72
11, 294400, Note_on_c, 10, 86, 0
11, 294400, Note_on_c, 10, 86, 76
11, 294560, Note_on_c, 10, 86, 0
11, 294560, Note_on_c, 10, 86, 82
11, 294720, Note_on_c, 10, 86, 0
11, 294720, Note_on_c, 10, 79, 127
11, 294882, Note_on_c, 10, 79, 0
11, 294960, Note_on_c, 10, 82, 127
11, 295104, Note_on_c, 10, 82, 0
11, 295200, Note_on_c, 10, 86, 127
11, 295316, Note_on_c, 10, 86, 0
11, 295440, Note_on_c, 10, 90, 127
11, 295542, Note_on_c, 10, 90, 0
11, 295680, Note_on_c, 10, 91, 114
11, 295840, Note_on_c, 10, 91, 0
11, 295840, Note_on_c, 10, 91, 122
11, 296000, Note_on_c, 10, 91, 0
11, 296000, Note_on_c, 10, 91, 122
11, 296160, Note_on_c, 10, 91, 0
11, 296160, Note_on_c, 10, 94, 127
11, 296320, Note_on_c, 10, 94, 0
11, 296320, Note_on_c, 10, 94, 127
11, 296480, Note_on_c, 10, 94, 0
11, 296480, Note_on_c, 10, 94, 127
11, 296640, Note_on_c, 10, 94, 0
11, 296640, Note_on_c, 10, 87, 127
11, 296800, Note_on_c, 10, 87, 0
11, 296800, Note_on_c, 10, 87, 127
11, 296960, Note_on_c, 10, 87, 0
11, 296960, Note_on_c, 10, 87, 127
11, 297120, Note_on_c, 10, 87, 0
11, 297120, Note_on_c, 10, 91, 127
11, 297280, Note_on_c, 10, 91, 0
11, 297280, Note_on_c, 10, 91, 127
11, 297440, Note_on_c, 10, 91, 0
11, 297440, Note_on_c, 10, 91, 127
11, 297600, Note_on_c, 10, 91, 0
11, 297600, Note_on_c, 10, 84, 127
11, 297760, Note_on_c, 10, 84, 0
11, 297760, Note_on_c, 10, 84, 127
11, 297920, Note_on_c, 10, 84, 0
11, 297920, Note_on_c, 10, 84, 127
11, 298080, Note_on_c, 10, 84, 0
11, 298080, Note_on_c, 10, 87, 127
11, 298240, Note_on_c, 10, 87, 0
11, 298240, Note_on_c, 10, 87, 127
11, 298400, Note_on_c, 10, 87, 0
11, 298400, Note_on_c, 10, 87, 127
11, 298560, Note_on_c, 10, 87, 0
11, 298560, Note_on_c, 10, 81, 127
11, 298720, Note_on_c, 10, 81, 0
11, 298720, Note_on_c, 10, 81, 127
11, 298880, Note_on_c, 10, 81, 0
11, 298880, Note_on_c, 10, 81, 122
11, 299040, Note_on_c, 10, 81, 0
11, 299040, Note_on_c, 10, 84, 127
11, 299200, Note_on_c, 10, 84, 0
11, 299200, Note_on_c, 10, 84, 127
11, 299360, Note_on_c, 10, 84, 0
11, 299360, Note_on_c, 10, 84, 127
11, 299520, Note_on_c, 10, 84, 0
11, 299520, Note_on_c, 10, 70, 80
11, 299760, Note_on_c, 10, 70, 0
11, 299760, Note_on_c, 10, 82, 127
11, 299850, Note_on_c, 10, 82, 0
11, 300000, Note_on_c, 10, 82, 127
11, 300090, Note_on_c, 10, 82, 0
11, 300240, Note_on_c, 10, 82, 127
11, 300326, Note_on_c, 10, 82, 0
11, 300480, Note_on_c, 10, 84, 127
11, 300720, Note_on_c, 10, 82, 127
11, 300766, Note_on_c, 10, 84, 0
11, 300816, Note_on_c, 10, 82, 0
11, 300960, Note_on_c, 10, 87, 127
11, 301056, Note_on_c, 10, 87, 0
11, 301200, Note_on_c, 10, 91, 127
11, 301306, Note_on_c, 10, 91, 0
11, 301440, Note_on_c, 10, 89, 127
11, 301510, Note_on_c, 10, 89, 0
11, 301680, Note_on_c, 10, 70, 127
11, 301742, Note_on_c, 10, 70, 0
11, 301920, Note_on_c, 10, 70, 127
11, 301994, Note_on_c, 10, 70, 0
11, 302160, Note_on_c, 10, 70, 127
11, 302240, Note_on_c, 10, 70, 0
11, 302400, Note_on_c, 10, 72, 127
11, 302640, Note_on_c, 10, 70, 127
11, 302694, Note_on_c, 10, 72, 0
11, 302724, Note_on_c, 10, 70, 0
11, 302880, Note_on_c, 10, 67, 127
11, 302970, Note_on_c, 10, 67, 0
11, 303120, Note_on_c, 10, 63, 127
11, 303192, Note_on_c, 10, 63, 0
11, 303360, Note_on_c, 10, 58, 127
11, 303422, Note_on_c, 10, 58, 0
11, 303600, Note_on_c, 10, 82, 127
11, 303664, Note_on_c, 10, 82, 0
11, 303840, Note_on_c, 10, 82, 127
11, 303912, Note_on_c, 10, 82, 0
11, 304080, Note_on_c, 10, 82, 127
11, 304170, Note_on_c, 10, 82, 0
11, 304320, Note_on_c, 10, 84, 127
11, 304560, Note_on_c, 10, 82, 127
11, 304616, Note_on_c, 10, 84, 0
11, 304660, Note_on_c, 10, 82, 0
11, 304800, Note_on_c, 10, 87, 127
11, 304886, Note_on_c, 10, 87, 0
11, 305040, Note_on_c, 10, 91, 127
11, 305152, Note_on_c, 10, 91, 0
11, 305280, Note_on_c, 10, 89, 127
11, 305340, Note_on_c, 10, 89, 0
11, 305520, Note_on_c, 10, 70, 127
11, 305586, Note_on_c, 10, 70, 0
11, 305760, Note_on_c, 10, 70, 127
11, 305834, Note_on_c, 10, 70, 0
11, 306000, Note_on_c, 10, 70, 127
11, 306084, Note_on_c, 10, 70, 0
11, 306240, Note_on_c, 10, 72, 127
11, 306480, Note_on_c, 10, 70, 127
11, 306524, Note_on_c, 10, 72, 0
11, 306580, Note_on_c, 10, 70, 0
11, 306720, Note_on_c, 10, 67, 127
11, 306816, Note_on_c, 10, 67, 0
11, 306960, Note_on_c, 10, 63, 127
11, 307034, Note_on_c, 10, 63, 0
11, 307200, Note_on_c, 10, 58, 127
11, 307274, Note_on_c, 10, 58, 0
11, 326400, Note_on_c, 10, 79, 84
11, 326400, Note_on_c, 10, 75, 77
11, 326612, Note_on_c, 10, 75, 0
11, 326640, Note_on_c, 10, 77, 75
11, 326640, Note_on_c, 10, 80, 72
11, 326666, Note_on_c, 10, 79, 0
11, 326724, Note_on_c, 10, 77, 0
11, 326730, Note_on_c, 10, 80, 0
11, 326880, Note_on_c, 10, 82, 83
11, 326880, Note_on_c, 10, 79, 80
11, 326960, Note_on_c, 10, 79, 0
11, 326962, Note_on_c, 10, 82, 0
11, 327120, Note_on_c, 10, 79, 80
11, 327120, Note_on_c, 10, 82, 80
11, 327196, Note_on_c, 10, 79, 0
11, 327202, Note_on_c, 10, 82, 0
11, 327360, Note_on_c, 10, 82, 90
11, 327360, Note_on_c, 10, 79, 89
11, 327600, Note_on_c, 10, 79, 0
11, 327600, Note_on_c, 10, 82, 0
11, 327600, Note_on_c, 10, 77, 77
11, 327600, Note_on_c, 10, 80, 75
11, 327840, Note_on_c, 10, 80, 0
11, 327840, Note_on_c, 10, 77, 0
11, 327840, Note_on_c, 10, 75, 75
11, 327840, Note_on_c, 10, 79, 83
11, 328080, Note_on_c, 10, 79, 0
11, 328080, Note_on_c, 10, 75, 0
11, 328080, Note_on_c, 10, 77, 84
11, 328080, Note_on_c, 10, 74, 71
11, 328320, Note_on_c, 10, 74, 0
11, 328320, Note_on_c, 10, 77, 0
11, 328320, Note_on_c, 10, 72, 71
11, 328320, Note_on_c, 10, 75, 89
11, 328560, Note_on_c, 10, 75, 0
11, 328560, Note_on_c, 10, 72, 0
11, 328560, Note_on_c, 10, 77, 84
11, 328560, Note_on_c, 10, 74, 74
11, 328800, Note_on_c, 10, 74, 0
11, 328800, Note_on_c, 10, 77, 0
11, 328800, Note_on_c, 10, 79, 80
11, 328800, Note_on_c, 10, 75, 75
11, 328866, Note_on_c, 10, 75, 0
11, 328886, Note_on_c, 10, 79, 0
11, 329040, Note_on_c, 10, 79, 80
11, 329040, Note_on_c, 10, 75, 83
11, 329114, Note_on_c, 10, 75, 0
11, 329114, Note_on_c, 10, 79, 0
11, 329280, Note_on_c, 10, 75, 83
11, 329280, Note_on_c, 10, 79, 90
11, 329520, Note_on_c, 10, 74, 71
11, 329520, Note_on_c, 10, 77, 71
11, 329570, Note_on_c, 10, 79, 0
11, 329576, Note_on_c, 10, 75, 0
11, 329760, Note_on_c, 10, 74, 0
11, 329760, Note_on_c, 10, 77, 0
11, 329760, Note_on_c, 10, 72, 66
11, 329760, Note_on_c, 10, 75, 72
11, 330000, Note_on_c, 10, 75, 0
11, 330000, Note_on_c, 10, 72, 0
11, 330000, Note_on_c, 10, 74, 78
11, 330000, Note_on_c, 10, 70, 66
11, 330240, Note_on_c, 10, 70, 0
11, 330240, Note_on_c, 10, 74, 0
11, 330240, Note_on_c, 10, 68, 50
11, 330240, Note_on_c, 10, 72, 50
11, 330480, Note_on_c, 10, 72, 0
11, 330480, Note_on_c, 10, 68, 0
11, 330480, Note_on_c, 10, 74, 55
11, 330480, Note_on_c, 10, 70, 55
11, 330720, Note_on_c, 10, 70, 0
11, 330720, Note_on_c, 10, 74, 0
11, 330720, Note_on_c, 10, 75, 60
11, 330720, Note_on_c, 10, 72, 60
11, 330960, Note_on_c, 10, 72, 0
11, 330960, Note_on_c, 10, 75, 0
11, 330960, Note_on_c, 10, 74, 65
11, 330960, Note_on_c, 10, 77, 65
11, 331200, Note_on_c, 10, 77, 0
11, 331200, Note_on_c, 10, 74, 0
11, 331200, Note_on_c, 10, 79, 71
11, 331200, Note_on_c, 10, 75, 71
11, 331440, Note_on_c, 10, 75, 0
11, 331440, Note_on_c, 10, 79, 0
11, 331440, Note_on_c, 10, 80, 76
11, 331440, Note_on_c, 10, 77, 76
11, 331680, Note_on_c, 10, 77, 0
11, 331680, Note_on_c, 10, 80, 0
11, 331680, Note_on_c, 10, 79, 81
11, 331680, Note_on_c, 10, 82, 81
11, 331920, Note_on_c, 10, 82, 0
11, 331920, Note_on_c, 10, 79, 0
11, 331920, Note_on_c, 10, 80, 86
11, 331920, Note_on_c, 10, 84, 86
11, 332062, Note_on_c, 10, 80, 0
11, 332070, Note_on_c, 10, 84, 0
11, 332160, Note_on_c, 10, 80, 95
11, 332160, Note_on_c, 10, 84, 90
11, 332376, Note_on_c, 10, 84, 0
11, 332400, Note_on_c, 10, 79, 77
11, 332400, Note_on_c, 10, 82, 68
11, 332430, Note_on_c, 10, 80, 0
11, 332490, Note_on_c, 10, 82, 0
11, 332500, Note_on_c, 10, 79, 0
11, 332640, Note_on_c, 10, 77, 77
11, 332640, Note_on_c, 10, 80, 83
11, 332722, Note_on_c, 10, 80, 0
11, 332736, Note_on_c, 10, 77, 0
11, 332880, Note_on_c, 10, 79, 74
11, 332880, Note_on_c, 10, 75, 56
11, 332962, Note_on_c, 10, 75, 0
11, 332972, Note_on_c, 10, 79, 0
11, 333120, Note_on_c, 10, 77, 66
11, 333120, Note_on_c, 10, 74, 57
11, 333322, Note_on_c, 10, 74, 0
11, 333340, Note_on_c, 10, 77, 0
11, 334080, Note_on_c, 10, 67, 126
11, 334080, Note_on_c, 10, 63, 116
11, 334292, Note_on_c, 10, 63, 0
11, 334320, Note_on_c, 10, 65, 113
11, 334320, Note_on_c, 10, 68, 108
11, 334346, Note_on_c, 10, 67, 0
11, 334404, Note_on_c, 10, 65, 0
11, 334410, Note_on_c, 10, 68, 0
11, 334560, Note_on_c, 10, 67, 120
11, 334560, Note_on_c, 10, 70, 125
11, 334640, Note_on_c, 10, 67, 0
11, 334642, Note_on_c, 10, 70, 0
11, 334800, Note_on_c, 10, 70, 120
11, 334800, Note_on_c, 10, 67, 120
11, 334876, Note_on_c, 10, 67, 0
11, 334882, Note_on_c, 10, 70, 0
11, 335040, Note_on_c, 10, 70, 127
11, 335040, Note_on_c, 10, 67, 127
11, 335280, Note_on_c, 10, 67, 0
11, 335280, Note_on_c, 10, 70, 0
11, 335280, Note_on_c, 10, 65, 116
11, 335280, Note_on_c, 10, 68, 113
11, 335520, Note_on_c, 10, 68, 0
11, 335520, Note_on_c, 10, 65, 0
11, 335520, Note_on_c, 10, 63, 113
11, 335520, Note_on_c, 10, 67, 125
11, 335760, Note_on_c, 10, 67, 0
11, 335760, Note_on_c, 10, 63, 0
11, 335760, Note_on_c, 10, 65, 126
11, 335760, Note_on_c, 10, 62, 107
11, 336000, Note_on_c, 10, 62, 0
11, 336000, Note_on_c, 10, 65, 0
11, 336000, Note_on_c, 10, 60, 107
11, 336000, Note_on_c, 10, 63, 127
11, 336240, Note_on_c, 10, 63, 0
11, 336240, Note_on_c, 10, 60, 0
11, 336240, Note_on_c, 10, 62, 111
11, 336240, Note_on_c, 10, 65, 126
11, 336480, Note_on_c, 10, 65, 0
11, 336480, Note_on_c, 10, 62, 0
11, 336480, Note_on_c, 10, 67, 120
11, 336480, Note_on_c, 10, 63, 113
11, 336546, Note_on_c, 10, 63, 0
11, 336566, Note_on_c, 10, 67, 0
11, 336720, Note_on_c, 10, 67, 120
11, 336720, Note_on_c, 10, 63, 125
11, 336794, Note_on_c, 10, 63, 0
11, 336794, Note_on_c, 10, 67, 0
11, 336960, Note_on_c, 10, 67, 127
11, 336960, Note_on_c, 10, 63, 125
11, 337200, Note_on_c, 10, 65, 107
11, 337200, Note_on_c, 10, 62, 107
11, 337250, Note_on_c, 10, 67, 0
11, 337256, Note_on_c, 10, 63, 0
11, 337440, Note_on_c, 10, 65, 0
11, 337440, Note_on_c, 10, 62, 0
11, 337440, Note_on_c, 10, 60, 99
11, 337440, Note_on_c, 10, 63, 108
11, 337680, Note_on_c, 10, 63, 0
11, 337680, Note_on_c, 10, 60, 0
11, 337680, Note_on_c, 10, 58, 99
11, 337680, Note_on_c, 10, 62, 117
11, 337920, Note_on_c, 10, 62, 0
11, 337920, Note_on_c, 10, 58, 0
11, 337920, Note_on_c, 10, 60, 48
11, 338016, Note_on_c, 10, 60, 0
11, 338160, Note_on_c, 10, 62, 48
11, 338256, Note_on_c, 10, 62, 0
11, 338400, Note_on_c, 10, 63, 48
11, 338496, Note_on_c, 10, 63, 0
11, 338640, Note_on_c, 10, 63, 48
11, 338736, Note_on_c, 10, 63, 0
11, 338880, Note_on_c, 10, 65, 48
11, 338976, Note_on_c, 10, 65, 0
11, 339120, Note_on_c, 10, 63, 48
11, 339216, Note_on_c, 10, 63, 0
11, 339360, Note_on_c, 10, 62, 48
11, 339456, Note_on_c, 10, 62, 0
11, 339600, Note_on_c, 10, 60, 48
11, 339696, Note_on_c, 10, 60, 0
11, 339840, Note_on_c, 10, 59, 53
11, 339936, Note_on_c, 10, 59, 0
11, 340080, Note_on_c, 10, 62, 53
11, 340176, Note_on_c, 10, 62, 0
11, 340320, Note_on_c, 10, 67, 53
11, 340416, Note_on_c, 10, 67, 0
11, 340560, Note_on_c, 10, 65, 53
11, 340656, Note_on_c, 10, 65, 0
11, 340800, Note_on_c, 10, 63, 53
11, 340896, Note_on_c, 10, 63, 0
11, 341040, Note_on_c, 10, 62, 53
11, 341136, Note_on_c, 10, 62, 0
11, 341280, Note_on_c, 10, 60, 53
11, 341376, Note_on_c, 10, 60, 0
11, 341520, Note_on_c, 10, 59, 53
11, 341616, Note_on_c, 10, 59, 0
11, 341760, Note_on_c, 10, 60, 53
11, 341856, Note_on_c, 10, 60, 0
11, 342000, Note_on_c, 10, 63, 53
11, 342096, Note_on_c, 10, 63, 0
11, 342240, Note_on_c, 10, 68, 53
11, 342336, Note_on_c, 10, 68, 0
11, 342480, Note_on_c, 10, 67, 53
11, 342576, Note_on_c, 10, 67, 0
11, 342720, Note_on_c, 10, 65, 53
11, 342816, Note_on_c, 10, 65, 0
11, 342960, Note_on_c, 10, 63, 53
11, 343056, Note_on_c, 10, 63, 0
11, 343200, Note_on_c, 10, 62, 53
11, 343296, Note_on_c, 10, 62, 0
11, 343440, Note_on_c, 10, 60, 53
11, 343536, Note_on_c, 10, 60, 0
11, 343680, Note_on_c, 10, 59, 53
11, 343776, Note_on_c, 10, 59, 0
11, 343920, Note_on_c, 10, 62, 53
11, 344016, Note_on_c, 10, 62, 0
11, 344160, Note_on_c, 10, 67, 53
11, 344256, Note_on_c, 10, 67, 0
11, 344400, Note_on_c, 10, 65, 53
11, 344496, Note_on_c, 10, 65, 0
11, 344640, Note_on_c, 10, 63, 53
11, 344736, Note_on_c, 10, 63, 0
11, 344880, Note_on_c, 10, 62, 53
11, 344976, Note_on_c, 10, 62, 0
11, 345120, Note_on_c, 10, 60, 53
11, 345216, Note_on_c, 10, 60, 0
11, 345360, Note_on_c, 10, 59, 53
11, 345456, Note_on_c, 10, 59, 0
11, 345600, Note_on_c, 10, 60, 53
11, 345792, Note_on_c, 10, 60, 0
11, 346080, Note_on_c, 10, 72, 99
11, 346176, Note_on_c, 10, 72, 0
11, 346320, Note_on_c, 10, 74, 99
11, 346416, Note_on_c, 10, 74, 0
11, 346560, Note_on_c, 10, 75, 99
11, 346656, Note_on_c, 10, 75, 0
11, 346800, Note_on_c, 10, 77, 99
11, 346896, Note_on_c, 10, 77, 0
11, 347040, Note_on_c, 10, 79, 99
11, 347136, Note_on_c, 10, 79, 0
11, 347280, Note_on_c, 10, 81, 99
11, 347376, Note_on_c, 10, 81, 0
11, 347520, Note_on_c, 10, 82, 99
11, 347712, Note_on_c, 10, 82, 0
11, 348000, Note_on_c, 10, 74, 83
11, 348096, Note_on_c, 10, 74, 0
11, 348240, Note_on_c, 10, 75, 90
11, 348336, Note_on_c, 10, 75, 0
11, 348480, Note_on_c, 10, 77, 98
11, 348576, Note_on_c, 10, 77, 0
11, 348720, Note_on_c, 10, 79, 106
11, 348816, Note_on_c, 10, 79, 0
11, 348960, Note_on_c, 10, 80, 114
11, 349056, Note_on_c, 10, 80, 0
11, 349200, Note_on_c, 10, 82, 121
11, 349296, Note_on_c, 10, 82, 0
11, 349920, Note_on_c, 10, 75, 82
11, 350016, Note_on_c, 10, 75, 0
11, 350160, Note_on_c, 10, 77, 90
11, 350256, Note_on_c, 10, 77, 0
11, 350400, Note_on_c, 10, 79, 97
11, 350496, Note_on_c, 10, 79, 0
11, 350640, Note_on_c, 10, 80, 105
11, 350736, Note_on_c, 10, 80, 0
11, 350880, Note_on_c, 10, 82, 112
11, 350976, Note_on_c, 10, 82, 0
11, 351120, Note_on_c, 10, 84, 120
11, 351216, Note_on_c, 10, 84, 0
11, 351840, Note_on_c, 10, 74, 84
11, 351936, Note_on_c, 10, 74, 0
11, 352080, Note_on_c, 10, 75, 91
11, 352176, Note_on_c, 10, 75, 0
11, 352320, Note_on_c, 10, 77, 98
11, 352416, Note_on_c, 10, 77, 0
11, 352560, Note_on_c, 10, 79, 105
11, 352656, Note_on_c, 10, 79, 0
11, 352800, Note_on_c, 10, 80, 112
11, 352896, Note_on_c, 10, 80, 0
11, 353040, Note_on_c, 10, 82, 119
11, 353136, Note_on_c, 10, 82, 0
11, 353280, Note_on_c, 10, 82, 127
11, 353408, Note_on_c, 10, 82, 0
11, 353440, Note_on_c, 10, 82, 127
11, 353568, Note_on_c, 10, 82, 0
11, 353600, Note_on_c, 10, 82, 127
11, 353728, Note_on_c, 10, 82, 0
11, 353760, Note_on_c, 10, 82, 127
11, 353888, Note_on_c, 10, 82, 0
11, 353920, Note_on_c, 10, 82, 127
11, 354048, Note_on_c, 10, 82, 0
11, 354080, Note_on_c, 10, 82, 127
11, 354208, Note_on_c, 10, 82, 0
11, 354240, Note_on_c, 10, 80, 127
11, 354368, Note_on_c, 10, 80, 0
11, 354400, Note_on_c, 10, 80, 127
11, 354528, Note_on_c, 10, 80, 0
11, 354560, Note_on_c, 10, 80, 127
11, 354688, Note_on_c, 10, 80, 0
11, 354720, Note_on_c, 10, 79, 127
11, 354848, Note_on_c, 10, 79, 0
11, 354880, Note_on_c, 10, 79, 127
11, 355008, Note_on_c, 10, 79, 0
11, 355040, Note_on_c, 10, 79, 127
11, 355168, Note_on_c, 10, 79, 0
11, 355200, Note_on_c, 10, 77, 127
11, 355328, Note_on_c, 10, 77, 0
11, 355360, Note_on_c, 10, 77, 127
11, 355488, Note_on_c, 10, 77, 0
11, 355520, Note_on_c, 10, 77, 127
11, 355648, Note_on_c, 10, 77, 0
11, 355680, Note_on_c, 10, 75, 127
11, 355808, Note_on_c, 10, 75, 0
11, 355840, Note_on_c, 10, 75, 127
11, 355968, Note_on_c, 10, 75, 0
11, 356000, Note_on_c, 10, 75, 127
11, 356128, Note_on_c, 10, 75, 0
11, 356160, Note_on_c, 10, 74, 127
11, 356288, Note_on_c, 10, 74, 0
11, 356320, Note_on_c, 10, 74, 127
11, 356448, Note_on_c, 10, 74, 0
11, 356480, Note_on_c, 10, 74, 127
11, 356608, Note_on_c, 10, 74, 0
11, 356640, Note_on_c, 10, 75, 127
11, 356768, Note_on_c, 10, 75, 0
11, 356800, Note_on_c, 10, 75, 127
11, 356928, Note_on_c, 10, 75, 0
11, 356960, Note_on_c, 10, 75, 127
11, 357088, Note_on_c, 10, 75, 0
11, 357120, Note_on_c, 10, 77, 127
11, 357248, Note_on_c, 10, 77, 0
11, 357280, Note_on_c, 10, 89, 127
11, 357408, Note_on_c, 10, 89, 0
11, 357440, Note_on_c, 10, 89, 127
11, 357568, Note_on_c, 10, 89, 0
11, 357600, Note_on_c, 10, 87, 127
11, 357728, Note_on_c, 10, 87, 0
11, 357760, Note_on_c, 10, 87, 127
11, 357888, Note_on_c, 10, 87, 0
11, 357920, Note_on_c, 10, 87, 127
11, 358048, Note_on_c, 10, 87, 0
11, 358080, Note_on_c, 10, 86, 127
11, 358208, Note_on_c, 10, 86, 0
11, 358240, Note_on_c, 10, 86, 127
11, 358368, Note_on_c, 10, 86, 0
11, 358400, Note_on_c, 10, 86, 127
11, 358528, Note_on_c, 10, 86, 0
11, 358560, Note_on_c, 10, 84, 127
11, 358688, Note_on_c, 10, 84, 0
11, 358720, Note_on_c, 10, 84, 127
11, 358848, Note_on_c, 10, 84, 0
11, 358880, Note_on_c, 10, 84, 127
11, 359008, Note_on_c, 10, 84, 0
11, 359040, Note_on_c, 10, 82, 127
11, 359168, Note_on_c, 10, 82, 0
11, 359200, Note_on_c, 10, 82, 127
11, 359328, Note_on_c, 10, 82, 0
11, 359360, Note_on_c, 10, 82, 127
11, 359488, Note_on_c, 10, 82, 0
11, 359520, Note_on_c, 10, 80, 127
11, 359648, Note_on_c, 10, 80, 0
11, 359680, Note_on_c, 10, 80, 127
11, 359808, Note_on_c, 10, 80, 0
11, 359840, Note_on_c, 10, 80, 127
11, 359968, Note_on_c, 10, 80, 0
11, 360000, Note_on_c, 10, 79, 127
11, 360128, Note_on_c, 10, 79, 0
11, 360160, Note_on_c, 10, 79, 127
11, 360288, Note_on_c, 10, 79, 0
11, 360320, Note_on_c, 10, 79, 127
11, 360448, Note_on_c, 10, 79, 0
11, 360480, Note_on_c, 10, 77, 127
11, 360608, Note_on_c, 10, 77, 0
11, 360640, Note_on_c, 10, 77, 127
11, 360768, Note_on_c, 10, 77, 0
11, 360800, Note_on_c, 10, 77, 127
11, 360928, Note_on_c, 10, 77, 0
11, 360960, Note_on_c, 10, 82, 127
11, 361088, Note_on_c, 10, 82, 0
11, 361120, Note_on_c, 10, 82, 127
11, 361248, Note_on_c, 10, 82, 0
11, 361280, Note_on_c, 10, 82, 127
11, 361408, Note_on_c, 10, 82, 0
11, 361440, Note_on_c, 10, 82, 127
11, 361568, Note_on_c, 10, 82, 0
11, 361600, Note_on_c, 10, 82, 127
11, 361728, Note_on_c, 10, 82, 0
11, 361760, Note_on_c, 10, 82, 127
11, 361888, Note_on_c, 10, 82, 0
11, 361920, Note_on_c, 10, 87, 127
11, 362048, Note_on_c, 10, 87, 0
11, 362080, Note_on_c, 10, 87, 127
11, 362208, Note_on_c, 10, 87, 0
11, 362240, Note_on_c, 10, 87, 127
11, 362368, Note_on_c, 10, 87, 0
11, 362400, Note_on_c, 10, 91, 127
11, 362528, Note_on_c, 10, 91, 0
11, 362560, Note_on_c, 10, 91, 127
11, 362688, Note_on_c, 10, 91, 0
11, 362720, Note_on_c, 10, 91, 127
11, 362848, Note_on_c, 10, 91, 0
11, 362880, Note_on_c, 10, 94, 127
11, 363008, Note_on_c, 10, 94, 0
11, 363040, Note_on_c, 10, 94, 127
11, 363168, Note_on_c, 10, 94, 0
11, 363200, Note_on_c, 10, 94, 127
11, 363328, Note_on_c, 10, 94, 0
11, 363360, Note_on_c, 10, 94, 127
11, 363488, Note_on_c, 10, 94, 0
11, 363520, Note_on_c, 10, 94, 127
11, 363648, Note_on_c, 10, 94, 0
11, 363680, Note_on_c, 10, 94, 127
11, 363808, Note_on_c, 10, 94, 0
11, 363840, Note_on_c, 10, 94, 127
11, 363968, Note_on_c, 10, 94, 0
11, 364000, Note_on_c, 10, 94, 127
11, 364128, Note_on_c, 10, 94, 0
11, 364160, Note_on_c, 10, 94, 127
11, 364288, Note_on_c, 10, 94, 0
11, 364320, Note_on_c, 10, 94, 127
11, 364448, Note_on_c, 10, 94, 0
11, 364480, Note_on_c, 10, 94, 127
11, 364608, Note_on_c, 10, 94, 0
11, 364640, Note_on_c, 10, 94, 127
11, 364768, Note_on_c, 10, 94, 0
11, 364800, Note_on_c, 10, 94, 127
11, 364928, Note_on_c, 10, 94, 0
11, 364960, Note_on_c, 10, 94, 127
11, 365088, Note_on_c, 10, 94, 0
11, 365120, Note_on_c, 10, 94, 127
11, 365248, Note_on_c, 10, 94, 0
11, 365280, Note_on_c, 10, 82, 108
11, 365408, Note_on_c, 10, 82, 0
11, 365440, Note_on_c, 10, 82, 108
11, 365568, Note_on_c, 10, 82, 0
11, 365600, Note_on_c, 10, 82, 108
11, 365728, Note_on_c, 10, 82, 0
11, 365760, Note_on_c, 10, 80, 127
11, 365888, Note_on_c, 10, 80, 0
11, 365920, Note_on_c, 10, 80, 127
11, 366048, Note_on_c, 10, 80, 0
11, 366080, Note_on_c, 10, 80, 127
11, 366208, Note_on_c, 10, 80, 0
11, 366240, Note_on_c, 10, 79, 127
11, 366368, Note_on_c, 10, 79, 0
11, 366400, Note_on_c, 10, 79, 127
11, 366528, Note_on_c, 10, 79, 0
11, 366560, Note_on_c, 10, 79, 127
11, 366688, Note_on_c, 10, 79, 0
11, 366720, Note_on_c, 10, 77, 127
11, 366848, Note_on_c, 10, 77, 0
11, 366880, Note_on_c, 10, 77, 127
11, 367008, Note_on_c, 10, 77, 0
11, 367040, Note_on_c, 10, 77, 127
11, 367168, Note_on_c, 10, 77, 0
11, 367200, Note_on_c, 10, 75, 127
11, 367328, Note_on_c, 10, 75, 0
11, 367360, Note_on_c, 10, 75, 127
11, 367488, Note_on_c, 10, 75, 0
11, 367520, Note_on_c, 10, 75, 127
11, 367648, Note_on_c, 10, 75, 0
11, 367680, Note_on_c, 10, 74, 127
11, 367808, Note_on_c, 10, 74, 0
11, 367840, Note_on_c, 10, 74, 127
11, 367968, Note_on_c, 10, 74, 0
11, 368000, Note_on_c, 10, 74, 127
11, 368128, Note_on_c, 10, 74, 0
11, 368160, Note_on_c, 10, 75, 127
11, 368288, Note_on_c, 10, 75, 0
11, 368320, Note_on_c, 10, 75, 127
11, 368448, Note_on_c, 10, 75, 0
11, 368480, Note_on_c, 10, 75, 127
11, 368608, Note_on_c, 10, 75, 0
11, 368640, Note_on_c, 10, 77, 127
11, 368768, Note_on_c, 10, 77, 0
11, 368800, Note_on_c, 10, 77, 127
11, 368928, Note_on_c, 10, 77, 0
11, 368960, Note_on_c, 10, 77, 127
11, 369088, Note_on_c, 10, 77, 0
11, 369120, Note_on_c, 10, 75, 127
11, 369248, Note_on_c, 10, 75, 0
11, 369280, Note_on_c, 10, 75, 127
11, 369408, Note_on_c, 10, 75, 0
11, 369440, Note_on_c, 10, 75, 127
11, 369568, Note_on_c, 10, 75, 0
11, 369600, Note_on_c, 10, 74, 127
11, 369728, Note_on_c, 10, 74, 0
11, 369760, Note_on_c, 10, 74, 127
11, 369888, Note_on_c, 10, 74, 0
11, 369920, Note_on_c, 10, 74, 127
11, 370048, Note_on_c, 10, 74, 0
11, 370080, Note_on_c, 10, 72, 127
11, 370208, Note_on_c, 10, 72, 0
11, 370240, Note_on_c, 10, 72, 127
11, 370368, Note_on_c, 10, 72, 0
11, 370400, Note_on_c, 10, 72, 127
11, 370528, Note_on_c, 10, 72, 0
11, 370560, Note_on_c, 10, 70, 127
11, 370688, Note_on_c, 10, 70, 0
11, 370720, Note_on_c, 10, 70, 127
11, 370848, Note_on_c, 10, 70, 0
11, 370880, Note_on_c, 10, 70, 127
11, 371008, Note_on_c, 10, 70, 0
11, 371040, Note_on_c, 10, 68, 127
11, 371168, Note_on_c, 10, 68, 0
11, 371200, Note_on_c, 10, 68, 127
11, 371328, Note_on_c, 10, 68, 0
11, 371360, Note_on_c, 10, 68, 127
11, 371488, Note_on_c, 10, 68, 0
11, 371520, Note_on_c, 10, 67, 127
11, 371648, Note_on_c, 10, 67, 0
11, 371680, Note_on_c, 10, 67, 127
11, 371808, Note_on_c, 10, 67, 0
11, 371840, Note_on_c, 10, 67, 127
11, 371968, Note_on_c, 10, 67, 0
11, 372000, Note_on_c, 10, 65, 127
11, 372128, Note_on_c, 10, 65, 0
11, 372160, Note_on_c, 10, 65, 127
11, 372288, Note_on_c, 10, 65, 0
11, 372320, Note_on_c, 10, 65, 127
11, 372448, Note_on_c, 10, 65, 0
11, 372480, Note_on_c, 10, 77, 127
11, 372608, Note_on_c, 10, 77, 0
11, 372640, Note_on_c, 10, 77, 127
11, 372768, Note_on_c, 10, 77, 0
11, 372800, Note_on_c, 10, 77, 127
11, 372928, Note_on_c, 10, 77, 0
11, 372960, Note_on_c, 10, 75, 127
11, 373088, Note_on_c, 10, 75, 0
11, 373120, Note_on_c, 10, 75, 127
11, 373248, Note_on_c, 10, 75, 0
11, 373280, Note_on_c, 10, 75, 127
11, 373408, Note_on_c, 10, 75, 0
11, 373440, Note_on_c, 10, 73, 127
11, 373568, Note_on_c, 10, 73, 0
11, 373600, Note_on_c, 10, 73, 127
11, 373728, Note_on_c, 10, 73, 0
11, 373760, Note_on_c, 10, 73, 127
11, 373888, Note_on_c, 10, 73, 0
11, 373920, Note_on_c, 10, 72, 127
11, 374048, Note_on_c, 10, 72, 0
11, 374080, Note_on_c, 10, 72, 127
11, 374208, Note_on_c, 10, 72, 0
11, 374240, Note_on_c, 10, 72, 127
11, 374368, Note_on_c, 10, 72, 0
11, 374400, Note_on_c, 10, 70, 127
11, 374528, Note_on_c, 10, 70, 0
11, 374560, Note_on_c, 10, 70, 127
11, 374688, Note_on_c, 10, 70, 0
11, 374720, Note_on_c, 10, 70, 127
11, 374848, Note_on_c, 10, 70, 0
11, 374880, Note_on_c, 10, 68, 127
11, 375008, Note_on_c, 10, 68, 0
11, 375040, Note_on_c, 10, 68, 127
11, 375168, Note_on_c, 10, 68, 0
11, 375200, Note_on_c, 10, 68, 127
11, 375328, Note_on_c, 10, 68, 0
11, 375360, Note_on_c, 10, 67, 127
11, 375488, Note_on_c, 10, 67, 0
11, 375520, Note_on_c, 10, 67, 127
11, 375648, Note_on_c, 10, 67, 0
11, 375680, Note_on_c, 10, 67, 127
11, 375808, Note_on_c, 10, 67, 0
11, 375840, Note_on_c, 10, 75, 127
11, 375968, Note_on_c, 10, 75, 0
11, 376000, Note_on_c, 10, 75, 127
11, 376128, Note_on_c, 10, 75, 0
11, 376160, Note_on_c, 10, 75, 127
11, 376288, Note_on_c, 10, 75, 0
11, 376320, Note_on_c, 10, 77, 127
11, 376448, Note_on_c, 10, 77, 0
11, 376480, Note_on_c, 10, 77, 127
11, 376608, Note_on_c, 10, 77, 0
11, 376640, Note_on_c, 10, 77, 127
11, 376768, Note_on_c, 10, 77, 0
11, 376800, Note_on_c, 10, 75, 127
11, 376928, Note_on_c, 10, 75, 0
11, 376960, Note_on_c, 10, 75, 127
11, 377088, Note_on_c, 10, 75, 0
11, 377120, Note_on_c, 10, 75, 127
11, 377248, Note_on_c, 10, 75, 0
11, 377280, Note_on_c, 10, 73, 127
11, 377408, Note_on_c, 10, 73, 0
11, 377440, Note_on_c, 10, 73, 127
11, 377568, Note_on_c, 10, 73, 0
11, 377600, Note_on_c, 10, 73, 127
11, 377728, Note_on_c, 10, 73, 0
11, 377760, Note_on_c, 10, 72, 127
11, 377888, Note_on_c, 10, 72, 0
11, 377920, Note_on_c, 10, 72, 127
11, 378048, Note_on_c, 10, 72, 0
11, 378080, Note_on_c, 10, 72, 127
11, 378208, Note_on_c, 10, 72, 0
11, 378240, Note_on_c, 10, 70, 127
11, 378368, Note_on_c, 10, 70, 0
11, 378400, Note_on_c, 10, 70, 127
11, 378528, Note_on_c, 10, 70, 0
11, 378560, Note_on_c, 10, 70, 127
11, 378688, Note_on_c, 10, 70, 0
11, 378720, Note_on_c, 10, 69, 127
11, 378848, Note_on_c, 10, 69, 0
11, 378880, Note_on_c, 10, 69, 127
11, 379008, Note_on_c, 10, 69, 0
11, 379040, Note_on_c, 10, 69, 127
11, 379168, Note_on_c, 10, 69, 0
11, 379200, Note_on_c, 10, 76, 127
11, 379328, Note_on_c, 10, 76, 0
11, 379360, Note_on_c, 10, 76, 127
11, 379488, Note_on_c, 10, 76, 0
11, 379520, Note_on_c, 10, 76, 127
11, 379648, Note_on_c, 10, 76, 0
11, 379680, Note_on_c, 10, 77, 127
11, 379808, Note_on_c, 10, 77, 0
11, 379840, Note_on_c, 10, 77, 127
11, 379968, Note_on_c, 10, 77, 0
11, 380000, Note_on_c, 10, 77, 127
11, 380128, Note_on_c, 10, 77, 0
11, 380160, Note_on_c, 10, 79, 127
11, 380288, Note_on_c, 10, 79, 0
11, 380320, Note_on_c, 10, 79, 127
11, 380448, Note_on_c, 10, 79, 0
11, 380480, Note_on_c, 10, 79, 127
11, 380608, Note_on_c, 10, 79, 0
11, 380640, Note_on_c, 10, 77, 127
11, 380768, Note_on_c, 10, 77, 0
11, 380800, Note_on_c, 10, 77, 127
11, 380928, Note_on_c, 10, 77, 0
11, 380960, Note_on_c, 10, 77, 127
11, 381088, Note_on_c, 10, 77, 0
11, 381120, Note_on_c, 10, 75, 127
11, 381248, Note_on_c, 10, 75, 0
11, 381280, Note_on_c, 10, 75, 127
11, 381408, Note_on_c, 10, 75, 0
11, 381440, Note_on_c, 10, 75, 127
11, 381568, Note_on_c, 10, 75, 0
11, 381600, Note_on_c, 10, 74, 127
11, 381728, Note_on_c, 10, 74, 0
11, 381760, Note_on_c, 10, 74, 127
11, 381888, Note_on_c, 10, 74, 0
11, 381920, Note_on_c, 10, 74, 127
11, 382048, Note_on_c, 10, 74, 0
11, 382080, Note_on_c, 10, 72, 127
11, 382208, Note_on_c, 10, 72, 0
11, 382240, Note_on_c, 10, 72, 127
11, 382368, Note_on_c, 10, 72, 0
11, 382400, Note_on_c, 10, 72, 127
11, 382528, Note_on_c, 10, 72, 0
11, 382560, Note_on_c, 10, 70, 127
11, 382688, Note_on_c, 10, 70, 0
11, 382720, Note_on_c, 10, 70, 127
11, 382848, Note_on_c, 10, 70, 0
11, 382880, Note_on_c, 10, 70, 127
11, 383008, Note_on_c, 10, 70, 0
11, 383040, Note_on_c, 10, 74, 127
11, 383168, Note_on_c, 10, 74, 0
11, 383200, Note_on_c, 10, 74, 127
11, 383328, Note_on_c, 10, 74, 0
11, 383360, Note_on_c, 10, 74, 127
11, 383488, Note_on_c, 10, 74, 0
11, 383520, Note_on_c, 10, 77, 127
11, 383648, Note_on_c, 10, 77, 0
11, 383680, Note_on_c, 10, 77, 127
11, 383808, Note_on_c, 10, 77, 0
11, 383840, Note_on_c, 10, 77, 127
11, 383968, Note_on_c, 10, 77, 0
11, 384000, Note_on_c, 10, 80, 127
11, 384128, Note_on_c, 10, 80, 0
11, 384160, Note_on_c, 10, 80, 127
11, 384288, Note_on_c, 10, 80, 0
11, 384320, Note_on_c, 10, 80, 127
11, 384448, Note_on_c, 10, 80, 0
11, 384480, Note_on_c, 10, 82, 127
11, 384608, Note_on_c, 10, 82, 0
11, 384640, Note_on_c, 10, 82, 127
11, 384768, Note_on_c, 10, 82, 0
11, 384800, Note_on_c, 10, 82, 127
11, 384928, Note_on_c, 10, 82, 0
11, 384960, Note_on_c, 10, 86, 127
11, 385088, Note_on_c, 10, 86, 0
11, 385120, Note_on_c, 10, 86, 127
11, 385248, Note_on_c, 10, 86, 0
11, 385280, Note_on_c, 10, 86, 127
11, 385408, Note_on_c, 10, 86, 0
11, 385440, Note_on_c, 10, 89, 127
11, 385568, Note_on_c, 10, 89, 0
11, 385600, Note_on_c, 10, 89, 127
11, 385728, Note_on_c, 10, 89, 0
11, 385760, Note_on_c, 10, 89, 127
11, 385888, Note_on_c, 10, 89, 0
11, 385920, Note_on_c, 10, 92, 127
11, 386048, Note_on_c, 10, 92, 0
11, 386080, Note_on_c, 10, 92, 127
11, 386208, Note_on_c, 10, 92, 0
11, 386240, Note_on_c, 10, 92, 127
11, 386368, Note_on_c, 10, 92, 0
11, 386400, Note_on_c, 10, 92, 127
11, 386528, Note_on_c, 10, 92, 0
11, 386560, Note_on_c, 10, 92, 127
11, 386688, Note_on_c, 10, 92, 0
11, 386720, Note_on_c, 10, 92, 127
11, 386848, Note_on_c, 10, 92, 0
11, 386880, Note_on_c, 10, 92, 127
11, 387008, Note_on_c, 10, 92, 0
11, 387040, Note_on_c, 10, 92, 127
11, 387168, Note_on_c, 10, 92, 0
11, 387200, Note_on_c, 10, 92, 127
11, 387328, Note_on_c, 10, 92, 0
11, 387360, Note_on_c, 10, 92, 127
11, 387488, Note_on_c, 10, 92, 0
11, 387520, Note_on_c, 10, 92, 127
11, 387648, Note_on_c, 10, 92, 0
11, 387680, Note_on_c, 10, 92, 127
11, 387808, Note_on_c, 10, 92, 0
11, 387840, Note_on_c, 10, 92, 127
11, 389760, Note_on_c, 10, 92, 0
11, 394800, Note_on_c, 10, 70, 20
11, 394872, Note_on_c, 10, 70, 0
11, 395040, Note_on_c, 10, 70, 20
11, 395112, Note_on_c, 10, 70, 0
11, 396000, Note_on_c, 10, 70, 20
11, 396072, Note_on_c, 10, 70, 0
11, 396960, Note_on_c, 10, 70, 22
11, 397032, Note_on_c, 10, 70, 0
11, 397920, Note_on_c, 10, 70, 24
11, 397992, Note_on_c, 10, 70, 0
11, 398880, Note_on_c, 10, 70, 26
11, 398952, Note_on_c, 10, 70, 0
11, 401280, Note_on_c, 10, 63, 65
11, 401352, Note_on_c, 10, 63, 0
11, 401520, Note_on_c, 10, 62, 67
11, 401592, Note_on_c, 10, 62, 0
11, 401760, Note_on_c, 10, 60, 68
11, 401832, Note_on_c, 10, 60, 0
11, 402000, Note_on_c, 10, 62, 70
11, 402072, Note_on_c, 10, 62, 0
11, 402240, Note_on_c, 10, 63, 72
11, 402312, Note_on_c, 10, 63, 0
11, 402480, Note_on_c, 10, 65, 74
11, 402552, Note_on_c, 10, 65, 0
11, 402720, Note_on_c, 10, 67, 75
11, 402792, Note_on_c, 10, 67, 0
11, 402960, Note_on_c, 10, 69, 77
11, 403032, Note_on_c, 10, 69, 0
11, 403200, Note_on_c, 10, 70, 79
11, 403272, Note_on_c, 10, 70, 0
11, 403440, Note_on_c, 10, 68, 80
11, 403512, Note_on_c, 10, 68, 0
11, 403680, Note_on_c, 10, 67, 82
11, 403752, Note_on_c, 10, 67, 0
11, 403920, Note_on_c, 10, 68, 84
11, 403992, Note_on_c, 10, 68, 0
11, 404160, Note_on_c, 10, 70, 86
11, 404232, Note_on_c, 10, 70, 0
11, 404400, Note_on_c, 10, 72, 87
11, 404472, Note_on_c, 10, 72, 0
11, 404640, Note_on_c, 10, 74, 89
11, 404712, Note_on_c, 10, 74, 0
11, 404880, Note_on_c, 10, 76, 91
11, 404952, Note_on_c, 10, 76, 0
11, 405120, Note_on_c, 10, 77, 93
11, 405192, Note_on_c, 10, 77, 0
11, 405360, Note_on_c, 10, 75, 94
11, 405432, Note_on_c, 10, 75, 0
11, 405600, Note_on_c, 10, 74, 96
11, 405672, Note_on_c, 10, 74, 0
11, 405840, Note_on_c, 10, 75, 98
11, 405912, Note_on_c, 10, 75, 0
11, 406080, Note_on_c, 10, 77, 99
11, 406152, Note_on_c, 10, 77, 0
11, 406320, Note_on_c, 10, 79, 101
11, 406392, Note_on_c, 10, 79, 0
11, 406560, Note_on_c, 10, 81, 103
11, 406632, Note_on_c, 10, 81, 0
11, 406800, Note_on_c, 10, 83, 105
11, 406872, Note_on_c, 10, 83, 0
11, 407040, Note_on_c, 10, 84, 106
11, 407112, Note_on_c, 10, 84, 0
11, 407280, Note_on_c, 10, 86, 108
11, 407352, Note_on_c, 10, 86, 0
11, 407520, Note_on_c, 10, 87, 110
11, 407592, Note_on_c, 10, 87, 0
11, 407760, Note_on_c, 10, 89, 111
11, 407832, Note_on_c, 10, 89, 0
11, 408000, Note_on_c, 10, 91, 113
11, 408072, Note_on_c, 10, 91, 0
11, 408240, Note_on_c, 10, 91, 115
11, 408312, Note_on_c, 10, 91, 0
11, 408480, Note_on_c, 10, 91, 117
11, 408552, Note_on_c, 10, 91, 0
11, 408720, Note_on_c, 10, 91, 118
11, 408792, Note_on_c, 10, 91, 0
11, 408960, Note_on_c, 10, 91, 80
11, 409088, Note_on_c, 10, 91, 0
11, 409120, Note_on_c, 10, 91, 64
11, 409248, Note_on_c, 10, 91, 0
11, 409280, Note_on_c, 10, 91, 64
11, 409408, Note_on_c, 10, 91, 0
11, 409440, Note_on_c, 10, 91, 64
11, 409568, Note_on_c, 10, 91, 0
11, 409600, Note_on_c, 10, 91, 64
11, 409728, Note_on_c, 10, 91, 0
11, 409760, Note_on_c, 10, 91, 64
11, 409888, Note_on_c, 10, 91, 0
11, 409920, Note_on_c, 10, 91, 64
11, 410048, Note_on_c, 10, 91, 0
11, 410080, Note_on_c, 10, 91, 64
11, 410208, Note_on_c, 10, 91, 0
11, 410240, Note_on_c, 10, 91, 64
11, 410368, Note_on_c, 10, 91, 0
11, 410400, Note_on_c, 10, 91, 64
11, 410528, Note_on_c, 10, 91, 0
11, 410560, Note_on_c, 10, 91, 64
11, 410688, Note_on_c, 10, 91, 0
11, 410720, Note_on_c, 10, 91, 64
11, 410848, Note_on_c, 10, 91, 0
11, 410880, Note_on_c, 10, 91, 64
11, 411008, Note_on_c, 10, 91, 0
11, 411040, Note_on_c, 10, 91, 64
11, 411168, Note_on_c, 10, 91, 0
11, 411200, Note_on_c, 10, 91, 64
11, 411328, Note_on_c, 10, 91, 0
11, 411360, Note_on_c, 10, 91, 64
11, 411488, Note_on_c, 10, 91, 0
11, 411520, Note_on_c, 10, 91, 64
11, 411648, Note_on_c, 10, 91, 0
11, 411680, Note_on_c, 10, 91, 64
11, 411808, Note_on_c, 10, 91, 0
11, 411840, Note_on_c, 10, 91, 80
11, 411968, Note_on_c, 10, 91, 0
11, 412000, Note_on_c, 10, 91, 80
11, 412128, Note_on_c, 10, 91, 0
11, 412160, Note_on_c, 10, 91, 80
11, 412288, Note_on_c, 10, 91, 0
11, 412320, Note_on_c, 10, 91, 80
11, 412448, Note_on_c, 10, 91, 0
11, 412480, Note_on_c, 10, 91, 80
11, 412608, Note_on_c, 10, 91, 0
11, 412640, Note_on_c, 10, 91, 80
11, 412768, Note_on_c, 10, 91, 0
11, 412800, Note_on_c, 10, 91, 80
11, 412928, Note_on_c, 10, 91, 0
11, 412960, Note_on_c, 10, 91, 80
11, 413088, Note_on_c, 10, 91, 0
11, 413120, Note_on_c, 10, 91, 80
11, 413248, Note_on_c, 10, 91, 0
11, 413280, Note_on_c, 10, 91, 80
11, 413408, Note_on_c, 10, 91, 0
11, 413440, Note_on_c, 10, 91, 80
11, 413568, Note_on_c, 10, 91, 0
11, 413600, Note_on_c, 10, 91, 80
11, 413728, Note_on_c, 10, 91, 0
11, 413760, Note_on_c, 10, 91, 80
11, 413888, Note_on_c, 10, 91, 0
11, 413920, Note_on_c, 10, 91, 80
11, 414048, Note_on_c, 10, 91, 0
11, 414080, Note_on_c, 10, 91, 80
11, 414208, Note_on_c, 10, 91, 0
11, 414240, Note_on_c, 10, 91, 80
11, 414368, Note_on_c, 10, 91, 0
11, 414400, Note_on_c, 10, 91, 80
11, 414528, Note_on_c, 10, 91, 0
11, 414560, Note_on_c, 10, 91, 80
11, 414688, Note_on_c, 10, 91, 0
11, 414720, Note_on_c, 10, 91, 80
11, 414848, Note_on_c, 10, 91, 0
11, 414880, Note_on_c, 10, 91, 80
11, 415008, Note_on_c, 10, 91, 0
11, 415040, Note_on_c, 10, 91, 80
11, 415168, Note_on_c, 10, 91, 0
11, 415200, Note_on_c, 10, 91, 80
11, 415328, Note_on_c, 10, 91, 0
11, 415360, Note_on_c, 10, 91, 80
11, 415488, Note_on_c, 10, 91, 0
11, 415520, Note_on_c, 10, 91, 80
11, 415648, Note_on_c, 10, 91, 0
11, 415680, Note_on_c, 10, 91, 80
11, 415808, Note_on_c, 10, 91, 0
11, 415840, Note_on_c, 10, 91, 80
11, 415968, Note_on_c, 10, 91, 0
11, 416000, Note_on_c, 10, 91, 80
11, 416128, Note_on_c, 10, 91, 0
11, 416160, Note_on_c, 10, 91, 80
11, 416288, Note_on_c, 10, 91, 0
11, 416320, Note_on_c, 10, 91, 80
11, 416448, Note_on_c, 10, 91, 0
11, 416480, Note_on_c, 10, 91, 80
11, 416608, Note_on_c, 10, 91, 0
11, 416640, Note_on_c, 10, 91, 80
11, 416768, Note_on_c, 10, 91, 0
11, 416800, Note_on_c, 10, 91, 80
11, 416928, Note_on_c, 10, 91, 0
11, 416960, Note_on_c, 10, 91, 80
11, 417088, Note_on_c, 10, 91, 0
11, 417120, Note_on_c, 10, 79, 120
11, 417248, Note_on_c, 10, 79, 0
11, 417280, Note_on_c, 10, 79, 120
11, 417408, Note_on_c, 10, 79, 0
11, 417440, Note_on_c, 10, 79, 120
11, 417568, Note_on_c, 10, 79, 0
11, 417600, Note_on_c, 10, 79, 120
11, 417728, Note_on_c, 10, 79, 0
11, 417760, Note_on_c, 10, 79, 120
11, 417888, Note_on_c, 10, 79, 0
11, 417920, Note_on_c, 10, 79, 120
11, 418048, Note_on_c, 10, 79, 0
11, 418080, Note_on_c, 10, 81, 120
11, 418208, Note_on_c, 10, 81, 0
11, 418240, Note_on_c, 10, 81, 120
11, 418368, Note_on_c, 10, 81, 0
11, 418400, Note_on_c, 10, 81, 120
11, 418528, Note_on_c, 10, 81, 0
11, 418560, Note_on_c, 10, 82, 120
11, 418688, Note_on_c, 10, 82, 0
11, 418720, Note_on_c, 10, 82, 120
11, 418848, Note_on_c, 10, 82, 0
11, 418880, Note_on_c, 10, 82, 120
11, 419008, Note_on_c, 10, 82, 0
11, 419040, Note_on_c, 10, 82, 120
11, 419168, Note_on_c, 10, 82, 0
11, 419200, Note_on_c, 10, 82, 120
11, 419328, Note_on_c, 10, 82, 0
11, 419360, Note_on_c, 10, 82, 120
11, 419488, Note_on_c, 10, 82, 0
11, 419520, Note_on_c, 10, 82, 120
11, 419648, Note_on_c, 10, 82, 0
11, 419680, Note_on_c, 10, 82, 120
11, 419808, Note_on_c, 10, 82, 0
11, 419840, Note_on_c, 10, 82, 120
11, 419968, Note_on_c, 10, 82, 0
11, 420000, Note_on_c, 10, 82, 80
11, 420128, Note_on_c, 10, 82, 0
11, 420160, Note_on_c, 10, 82, 80
11, 420288, Note_on_c, 10, 82, 0
11, 420320, Note_on_c, 10, 82, 80
11, 420448, Note_on_c, 10, 82, 0
11, 420480, Note_on_c, 10, 82, 80
11, 420608, Note_on_c, 10, 82, 0
11, 420640, Note_on_c, 10, 82, 80
11, 420768, Note_on_c, 10, 82, 0
11, 420800, Note_on_c, 10, 82, 80
11, 420928, Note_on_c, 10, 82, 0
11, 420960, Note_on_c, 10, 82, 80
11, 421088, Note_on_c, 10, 82, 0
11, 421120, Note_on_c, 10, 82, 80
11, 421248, Note_on_c, 10, 82, 0
11, 421280, Note_on_c, 10, 82, 80
11, 421408, Note_on_c, 10, 82, 0
11, 421440, Note_on_c, 10, 82, 80
11, 421568, Note_on_c, 10, 82, 0
11, 421600, Note_on_c, 10, 82, 80
11, 421728, Note_on_c, 10, 82, 0
11, 421760, Note_on_c, 10, 82, 80
11, 421888, Note_on_c, 10, 82, 0
11, 421920, Note_on_c, 10, 82, 80
11, 422048, Note_on_c, 10, 82, 0
11, 422080, Note_on_c, 10, 82, 80
11, 422208, Note_on_c, 10, 82, 0
11, 422240, Note_on_c, 10, 82, 80
11, 422368, Note_on_c, 10, 82, 0
11, 422400, Note_on_c, 10, 82, 80
11, 422528, Note_on_c, 10, 82, 0
11, 422560, Note_on_c, 10, 82, 80
11, 422688, Note_on_c, 10, 82, 0
11, 422720, Note_on_c, 10, 82, 80
11, 422848, Note_on_c, 10, 82, 0
11, 422880, Note_on_c, 10, 82, 80
11, 423008, Note_on_c, 10, 82, 0
11, 423040, Note_on_c, 10, 82, 80
11, 423168, Note_on_c, 10, 82, 0
11, 423200, Note_on_c, 10, 82, 80
11, 423328, Note_on_c, 10, 82, 0
11, 423360, Note_on_c, 10, 82, 80
11, 423488, Note_on_c, 10, 82, 0
11, 423520, Note_on_c, 10, 82, 80
11, 423648, Note_on_c, 10, 82, 0
11, 423680, Note_on_c, 10, 82, 80
11, 423808, Note_on_c, 10, 82, 0
11, 423840, Note_on_c, 10, 82, 80
11, 423968, Note_on_c, 10, 82, 0
11, 424000, Note_on_c, 10, 82, 80
11, 424128, Note_on_c, 10, 82, 0
11, 424160, Note_on_c, 10, 82, 80
11, 424288, Note_on_c, 10, 82, 0
11, 424320, Note_on_c, 10, 82, 80
11, 424448, Note_on_c, 10, 82, 0
11, 424480, Note_on_c, 10, 82, 80
11, 424608, Note_on_c, 10, 82, 0
11, 424640, Note_on_c, 10, 82, 80
11, 424768, Note_on_c, 10, 82, 0
11, 424800, Note_on_c, 10, 82, 80
11, 424928, Note_on_c, 10, 82, 0
11, 424960, Note_on_c, 10, 82, 80
11, 425088, Note_on_c, 10, 82, 0
11, 425120, Note_on_c, 10, 82, 80
11, 425248, Note_on_c, 10, 82, 0
11, 425280, Note_on_c, 10, 82, 80
11, 425408, Note_on_c, 10, 82, 0
11, 425440, Note_on_c, 10, 82, 80
11, 425568, Note_on_c, 10, 82, 0
11, 425600, Note_on_c, 10, 82, 80
11, 425728, Note_on_c, 10, 82, 0
11, 425760, Note_on_c, 10, 82, 80
11, 425888, Note_on_c, 10, 82, 0
11, 425920, Note_on_c, 10, 82, 80
11, 426048, Note_on_c, 10, 82, 0
11, 426080, Note_on_c, 10, 82, 80
11, 426208, Note_on_c, 10, 82, 0
11, 426240, Note_on_c, 10, 82, 80
11, 426368, Note_on_c, 10, 82, 0
11, 426400, Note_on_c, 10, 82, 80
11, 426528, Note_on_c, 10, 82, 0
11, 426560, Note_on_c, 10, 82, 80
11, 426688, Note_on_c, 10, 82, 0
11, 426720, Note_on_c, 10, 82, 80
11, 426848, Note_on_c, 10, 82, 0
11, 426880, Note_on_c, 10, 82, 80
11, 427008, Note_on_c, 10, 82, 0
11, 427040, Note_on_c, 10, 82, 80
11, 427168, Note_on_c, 10, 82, 0
11, 427200, Note_on_c, 10, 82, 80
11, 427328, Note_on_c, 10, 82, 0
11, 427360, Note_on_c, 10, 82, 80
11, 427488, Note_on_c, 10, 82, 0
11, 427520, Note_on_c, 10, 82, 80
11, 427648, Note_on_c, 10, 82, 0
11, 427680, Note_on_c, 10, 82, 80
11, 427808, Note_on_c, 10, 82, 0
11, 427840, Note_on_c, 10, 82, 80
11, 427968, Note_on_c, 10, 82, 0
11, 428000, Note_on_c, 10, 82, 80
11, 428128, Note_on_c, 10, 82, 0
11, 428160, Note_on_c, 10, 82, 127
11, 428264, Note_on_c, 10, 82, 0
11, 428400, Note_on_c, 10, 82, 127
11, 428724, Note_on_c, 10, 82, 0
11, 428880, Note_on_c, 10, 79, 127
11, 429048, Note_on_c, 10, 79, 0
11, 429120, Note_on_c, 10, 75, 127
11, 429934, Note_on_c, 10, 75, 0
11, 430080, Note_on_c, 10, 84, 127
11, 430184, Note_on_c, 10, 84, 0
11, 430320, Note_on_c, 10, 84, 127
11, 430644, Note_on_c, 10, 84, 0
11, 430800, Note_on_c, 10, 80, 127
11, 430968, Note_on_c, 10, 80, 0
11, 431040, Note_on_c, 10, 75, 127
11, 431854, Note_on_c, 10, 75, 0
11, 432000, Note_on_c, 10, 84, 127
11, 432240, Note_on_c, 10, 84, 0
11, 432240, Note_on_c, 10, 81, 127
11, 432360, Note_on_c, 10, 81, 0
11, 432480, Note_on_c, 10, 81, 127
11, 432600, Note_on_c, 10, 81, 0
11, 432720, Note_on_c, 10, 81, 127
11, 432840, Note_on_c, 10, 81, 0
11, 432960, Note_on_c, 10, 84, 127
11, 433200, Note_on_c, 10, 84, 0
11, 433200, Note_on_c, 10, 81, 127
11, 433320, Note_on_c, 10, 81, 0
11, 433440, Note_on_c, 10, 81, 127
11, 433560, Note_on_c, 10, 81, 0
11, 433680, Note_on_c, 10, 81, 127
11, 433800, Note_on_c, 10, 81, 0
11, 433920, Note_on_c, 10, 82, 127
11, 434160, Note_on_c, 10, 82, 0
11, 434160, Note_on_c, 10, 79, 127
11, 434280, Note_on_c, 10, 79, 0
11, 434400, Note_on_c, 10, 79, 127
11, 434520, Note_on_c, 10, 79, 0
11, 434640, Note_on_c, 10, 79, 127
11, 434760, Note_on_c, 10, 79, 0
11, 434880, Note_on_c, 10, 82, 127
11, 435120, Note_on_c, 10, 82, 0
11, 435120, Note_on_c, 10, 77, 127
11, 435240, Note_on_c, 10, 77, 0
11, 435360, Note_on_c, 10, 77, 127
11, 435480, Note_on_c, 10, 77, 0
11, 435600, Note_on_c, 10, 77, 127
11, 435720, Note_on_c, 10, 77, 0
11, 435840, Note_on_c, 10, 82, 127
11, 435944, Note_on_c, 10, 82, 0
11, 436080, Note_on_c, 10, 82, 127
11, 436404, Note_on_c, 10, 82, 0
11, 436560, Note_on_c, 10, 79, 127
11, 436728, Note_on_c, 10, 79, 0
11, 436800, Note_on_c, 10, 75, 127
11, 437614, Note_on_c, 10, 75, 0
11, 437760, Note_on_c, 10, 84, 127
11, 437864, Note_on_c, 10, 84, 0
11, 438000, Note_on_c, 10, 84, 127
11, 438324, Note_on_c, 10, 84, 0
11, 438480, Note_on_c, 10, 80, 127
11, 438648, Note_on_c, 10, 80, 0
11, 438720, Note_on_c, 10, 75, 127
11, 439534, Note_on_c, 10, 75, 0
11, 439680, Note_on_c, 10, 84, 127
11, 439920, Note_on_c, 10, 84, 0
11, 439920, Note_on_c, 10, 81, 127
11, 440040, Note_on_c, 10, 81, 0
11, 440160, Note_on_c, 10, 81, 127
11, 440280, Note_on_c, 10, 81, 0
11, 440400, Note_on_c, 10, 81, 127
11, 440520, Note_on_c, 10, 81, 0
11, 440640, Note_on_c, 10, 84, 127
11, 440880, Note_on_c, 10, 84, 0
11, 440880, Note_on_c, 10, 81, 127
11, 441000, Note_on_c, 10, 81, 0
11, 441120, Note_on_c, 10, 81, 127
11, 441240, Note_on_c, 10, 81, 0
11, 441360, Note_on_c, 10, 81, 127
11, 441480, Note_on_c, 10, 81, 0
11, 441600, Note_on_c, 10, 82, 127
11, 441840, Note_on_c, 10, 82, 0
11, 441840, Note_on_c, 10, 79, 127
11, 441960, Note_on_c, 10, 79, 0
11, 442080, Note_on_c, 10, 79, 127
11, 442200, Note_on_c, 10, 79, 0
11, 442320, Note_on_c, 10, 79, 127
11, 442440, Note_on_c, 10, 79, 0
11, 442560, Note_on_c, 10, 82, 127
11, 442800, Note_on_c, 10, 82, 0
11, 442800, Note_on_c, 10, 77, 127
11, 442920, Note_on_c, 10, 77, 0
11, 443040, Note_on_c, 10, 77, 127
11, 443160, Note_on_c, 10, 77, 0
11, 443280, Note_on_c, 10, 77, 127
11, 443400, Note_on_c, 10, 77, 0
11, 443520, Note_on_c, 10, 79, 120
11, 443712, Note_on_c, 10, 79, 0
11, 443760, Note_on_c, 10, 91, 120
11, 444144, Note_on_c, 10, 91, 0
11, 444240, Note_on_c, 10, 87, 120
11, 444432, Note_on_c, 10, 87, 0
11, 444480, Note_on_c, 10, 82, 120
11, 444672, Note_on_c, 10, 82, 0
11, 444720, Note_on_c, 10, 79, 120
11, 445104, Note_on_c, 10, 79, 0
11, 445200, Note_on_c, 10, 75, 120
11, 445392, Note_on_c, 10, 75, 0
11, 445440, Note_on_c, 10, 70, 120
11, 445632, Note_on_c, 10, 70, 0
11, 445680, Note_on_c, 10, 67, 120
11, 446064, Note_on_c, 10, 67, 0
11, 446160, Note_on_c, 10, 63, 120
11, 446352, Note_on_c, 10, 63, 0
11, 446400, Note_on_c, 10, 58, 120
11, 446592, Note_on_c, 10, 58, 0
11, 446640, Note_on_c, 10, 80, 127
11, 447024, Note_on_c, 10, 80, 0
11, 447120, Note_on_c, 10, 77, 120
11, 447312, Note_on_c, 10, 77, 0
11, 447360, Note_on_c, 10, 79, 120
11, 447552, Note_on_c, 10, 79, 0
11, 447600, Note_on_c, 10, 91, 120
11, 447984, Note_on_c, 10, 91, 0
11, 448080, Note_on_c, 10, 87, 120
11, 448272, Note_on_c, 10, 87, 0
11, 448320, Note_on_c, 10, 82, 120
11, 448512, Note_on_c, 10, 82, 0
11, 448560, Note_on_c, 10, 79, 120
11, 448944, Note_on_c, 10, 79, 0
11, 449040, Note_on_c, 10, 75, 120
11, 449232, Note_on_c, 10, 75, 0
11, 449280, Note_on_c, 10, 70, 120
11, 449472, Note_on_c, 10, 70, 0
11, 449520, Note_on_c, 10, 67, 120
11, 449904, Note_on_c, 10, 67, 0
11, 450000, Note_on_c, 10, 63, 120
11, 450192, Note_on_c, 10, 63, 0
11, 450240, Note_on_c, 10, 58, 120
11, 450432, Note_on_c, 10, 58, 0
11, 450480, Note_on_c, 10, 80, 127
11, 450864, Note_on_c, 10, 80, 0
11, 450960, Note_on_c, 10, 77, 120
11, 451152, Note_on_c, 10, 77, 0
11, 451200, Note_on_c, 10, 79, 120
11, 451392, Note_on_c, 10, 79, 0
11, 451440, Note_on_c, 10, 91, 120
11, 451824, Note_on_c, 10, 91, 0
11, 451920, Note_on_c, 10, 87, 120
11, 452112, Note_on_c, 10, 87, 0
11, 452160, Note_on_c, 10, 82, 120
11, 452352, Note_on_c, 10, 82, 0
11, 452400, Note_on_c, 10, 79, 120
11, 452784, Note_on_c, 10, 79, 0
11, 452880, Note_on_c, 10, 75, 120
11, 453072, Note_on_c, 10, 75, 0
11, 453120, Note_on_c, 10, 70, 120
11, 453312, Note_on_c, 10, 70, 0
11, 453360, Note_on_c, 10, 67, 120
11, 453744, Note_on_c, 10, 67, 0
11, 453840, Note_on_c, 10, 63, 120
11, 454032, Note_on_c, 10, 63, 0
11, 454080, Note_on_c, 10, 58, 120
11, 454272, Note_on_c, 10, 58, 0
11, 454320, Note_on_c, 10, 80, 127
11, 454704, Note_on_c, 10, 80, 0
11, 454800, Note_on_c, 10, 77, 120
11, 454992, Note_on_c, 10, 77, 0
11, 455040, Note_on_c, 10, 79, 120
11, 455232, Note_on_c, 10, 79, 0
11, 455280, Note_on_c, 10, 91, 120
11, 455664, Note_on_c, 10, 91, 0
11, 455760, Note_on_c, 10, 87, 120
11, 455952, Note_on_c, 10, 87, 0
11, 456000, Note_on_c, 10, 82, 120
11, 456192, Note_on_c, 10, 82, 0
11, 456240, Note_on_c, 10, 79, 120
11, 456624, Note_on_c, 10, 79, 0
11, 456720, Note_on_c, 10, 75, 120
11, 456912, Note_on_c, 10, 75, 0
11, 456960, Note_on_c, 10, 70, 120
11, 457152, Note_on_c, 10, 70, 0
11, 457200, Note_on_c, 10, 67, 120
11, 457584, Note_on_c, 10, 67, 0
11, 457680, Note_on_c, 10, 63, 120
11, 457872, Note_on_c, 10, 63, 0
11, 457920, Note_on_c, 10, 58, 120
11, 458112, Note_on_c, 10, 58, 0
11, 458160, Note_on_c, 10, 80, 127
11, 458544, Note_on_c, 10, 80, 0
11, 458640, Note_on_c, 10, 77, 120
11, 458832, Note_on_c, 10, 77, 0
11, 458880, Note_on_c, 10, 79, 80
11, 459008, Note_on_c, 10, 79, 0
11, 459040, Note_on_c, 10, 79, 80
11, 459168, Note_on_c, 10, 79, 0
11, 459200, Note_on_c, 10, 79, 80
11, 459328, Note_on_c, 10, 79, 0
11, 459360, Note_on_c, 10, 79, 80
11, 459488, Note_on_c, 10, 79, 0
11, 459520, Note_on_c, 10, 79, 80
11, 459648, Note_on_c, 10, 79, 0
11, 459680, Note_on_c, 10, 79, 80
11, 459808, Note_on_c, 10, 79, 0
11, 459840, Note_on_c, 10, 79, 80
11, 459968, Note_on_c, 10, 79, 0
11, 460000, Note_on_c, 10, 79, 80
11, 460128, Note_on_c, 10, 79, 0
11, 460160, Note_on_c, 10, 79, 80
11, 460288, Note_on_c, 10, 79, 0
11, 460320, Note_on_c, 10, 79, 80
11, 460448, Note_on_c, 10, 79, 0
11, 460480, Note_on_c, 10, 79, 80
11, 460608, Note_on_c, 10, 79, 0
11, 460640, Note_on_c, 10, 79, 80
11, 460768, Note_on_c, 10, 79, 0
11, 460800, Note_on_c, 10, 79, 80
11, 460928, Note_on_c, 10, 79, 0
11, 460960, Note_on_c, 10, 79, 80
11, 461088, Note_on_c, 10, 79, 0
11, 461120, Note_on_c, 10, 79, 80
11, 461248, Note_on_c, 10, 79, 0
11, 461280, Note_on_c, 10, 79, 80
11, 461408, Note_on_c, 10, 79, 0
11, 461440, Note_on_c, 10, 79, 80
11, 461568, Note_on_c, 10, 79, 0
11, 461600, Note_on_c, 10, 79, 80
11, 461728, Note_on_c, 10, 79, 0
11, 461760, Note_on_c, 10, 79, 80
11, 461888, Note_on_c, 10, 79, 0
11, 461920, Note_on_c, 10, 79, 80
11, 462048, Note_on_c, 10, 79, 0
11, 462080, Note_on_c, 10, 79, 80
11, 462208, Note_on_c, 10, 79, 0
11, 462240, Note_on_c, 10, 79, 80
11, 462368, Note_on_c, 10, 79, 0
11, 462400, Note_on_c, 10, 79, 80
11, 462528, Note_on_c, 10, 79, 0
11, 462560, Note_on_c, 10, 79, 80
11, 462688, Note_on_c, 10, 79, 0
11, 462720, Note_on_c, 10, 79, 96
11, 462848, Note_on_c, 10, 79, 0
11, 462880, Note_on_c, 10, 82, 96
11, 463008, Note_on_c, 10, 82, 0
11, 463040, Note_on_c, 10, 82, 96
11, 463168, Note_on_c, 10, 82, 0
11, 463200, Note_on_c, 10, 82, 96
11, 463328, Note_on_c, 10, 82, 0
11, 463360, Note_on_c, 10, 82, 96
11, 463488, Note_on_c, 10, 82, 0
11, 463520, Note_on_c, 10, 82, 96
11, 463648, Note_on_c, 10, 82, 0
11, 463680, Note_on_c, 10, 82, 96
11, 463808, Note_on_c, 10, 82, 0
11, 463840, Note_on_c, 10, 82, 96
11, 463968, Note_on_c, 10, 82, 0
11, 464000, Note_on_c, 10, 82, 96
11, 464128, Note_on_c, 10, 82, 0
11, 464160, Note_on_c, 10, 82, 96
11, 464288, Note_on_c, 10, 82, 0
11, 464320, Note_on_c, 10, 82, 96
11, 464448, Note_on_c, 10, 82, 0
11, 464480, Note_on_c, 10, 82, 96
11, 464608, Note_on_c, 10, 82, 0
11, 464640, Note_on_c, 10, 82, 96
11, 464768, Note_on_c, 10, 82, 0
11, 464800, Note_on_c, 10, 82, 96
11, 464928, Note_on_c, 10, 82, 0
11, 464960, Note_on_c, 10, 82, 96
11, 465088, Note_on_c, 10, 82, 0
11, 465120, Note_on_c, 10, 82, 96
11, 465248, Note_on_c, 10, 82, 0
11, 465280, Note_on_c, 10, 82, 96
11, 465408, Note_on_c, 10, 82, 0
11, 465440, Note_on_c, 10, 82, 96
11, 465568, Note_on_c, 10, 82, 0
11, 465600, Note_on_c, 10, 82, 96
11, 465728, Note_on_c, 10, 82, 0
11, 465760, Note_on_c, 10, 82, 96
11, 465888, Note_on_c, 10, 82, 0
11, 465920, Note_on_c, 10, 82, 96
11, 466048, Note_on_c, 10, 82, 0
11, 466080, Note_on_c, 10, 82, 96
11, 466208, Note_on_c, 10, 82, 0
11, 466240, Note_on_c, 10, 82, 96
11, 466368, Note_on_c, 10, 82, 0
11, 466400, Note_on_c, 10, 82, 96
11, 466528, Note_on_c, 10, 82, 0
11, 466560, Note_on_c, 10, 82, 115
11, 466688, Note_on_c, 10, 82, 0
11, 466720, Note_on_c, 10, 87, 115
11, 466848, Note_on_c, 10, 87, 0
11, 466880, Note_on_c, 10, 87, 115
11, 467008, Note_on_c, 10, 87, 0
11, 467040, Note_on_c, 10, 87, 115
11, 467168, Note_on_c, 10, 87, 0
11, 467200, Note_on_c, 10, 87, 115
11, 467328, Note_on_c, 10, 87, 0
11, 467360, Note_on_c, 10, 87, 115
11, 467488, Note_on_c, 10, 87, 0
11, 467520, Note_on_c, 10, 87, 115
11, 467648, Note_on_c, 10, 87, 0
11, 467680, Note_on_c, 10, 87, 115
11, 467808, Note_on_c, 10, 87, 0
11, 467840, Note_on_c, 10, 87, 115
11, 467968, Note_on_c, 10, 87, 0
11, 468000, Note_on_c, 10, 87, 115
11, 468128, Note_on_c, 10, 87, 0
11, 468160, Note_on_c, 10, 87, 115
11, 468288, Note_on_c, 10, 87, 0
11, 468320, Note_on_c, 10, 87, 115
11, 468448, Note_on_c, 10, 87, 0
11, 468480, Note_on_c, 10, 87, 115
11, 468608, Note_on_c, 10, 87, 0
11, 468640, Note_on_c, 10, 87, 115
11, 468768, Note_on_c, 10, 87, 0
11, 468800, Note_on_c, 10, 87, 115
11, 468928, Note_on_c, 10, 87, 0
11, 468960, Note_on_c, 10, 87, 115
11, 469088, Note_on_c, 10, 87, 0
11, 469120, Note_on_c, 10, 87, 115
11, 469248, Note_on_c, 10, 87, 0
11, 469280, Note_on_c, 10, 87, 115
11, 469408, Note_on_c, 10, 87, 0
11, 469440, Note_on_c, 10, 87, 115
11, 469568, Note_on_c, 10, 87, 0
11, 469600, Note_on_c, 10, 87, 115
11, 469728, Note_on_c, 10, 87, 0
11, 469760, Note_on_c, 10, 87, 115
11, 469888, Note_on_c, 10, 87, 0
11, 469920, Note_on_c, 10, 87, 115
11, 470048, Note_on_c, 10, 87, 0
11, 470080, Note_on_c, 10, 87, 115
11, 470208, Note_on_c, 10, 87, 0
11, 470240, Note_on_c, 10, 87, 115
11, 470368, Note_on_c, 10, 87, 0
11, 470400, Note_on_c, 10, 87, 127
11, 470528, Note_on_c, 10, 87, 0
11, 470560, Note_on_c, 10, 91, 127
11, 470688, Note_on_c, 10, 91, 0
11, 470720, Note_on_c, 10, 91, 127
11, 470848, Note_on_c, 10, 91, 0
11, 470880, Note_on_c, 10, 91, 127
11, 471008, Note_on_c, 10, 91, 0
11, 471040, Note_on_c, 10, 91, 127
11, 471168, Note_on_c, 10, 91, 0
11, 471200, Note_on_c, 10, 91, 127
11, 471328, Note_on_c, 10, 91, 0
11, 471360, Note_on_c, 10, 91, 127
11, 471488, Note_on_c, 10, 91, 0
11, 471520, Note_on_c, 10, 91, 127
11, 471648, Note_on_c, 10, 91, 0
11, 471680, Note_on_c, 10, 91, 127
11, 471808, Note_on_c, 10, 91, 0
11, 471840, Note_on_c, 10, 91, 127
11, 471968, Note_on_c, 10, 91, 0
11, 472000, Note_on_c, 10, 91, 127
11, 472128, Note_on_c, 10, 91, 0
11, 472160, Note_on_c, 10, 91, 127
11, 472288, Note_on_c, 10, 91, 0
11, 472320, Note_on_c, 10, 91, 127
11, 472448, Note_on_c, 10, 91, 0
11, 472480, Note_on_c, 10, 91, 127
11, 472608, Note_on_c, 10, 91, 0
11, 472640, Note_on_c, 10, 91, 127
11, 472768, Note_on_c, 10, 91, 0
11, 472800, Note_on_c, 10, 91, 127
11, 472928, Note_on_c, 10, 91, 0
11, 472960, Note_on_c, 10, 91, 127
11, 473088, Note_on_c, 10, 91, 0
11, 473120, Note_on_c, 10, 91, 127
11, 473248, Note_on_c, 10, 91, 0
11, 473280, Note_on_c, 10, 91, 127
11, 473408, Note_on_c, 10, 91, 0
11, 473440, Note_on_c, 10, 91, 127
11, 473568, Note_on_c, 10, 91, 0
11, 473600, Note_on_c, 10, 91, 127
11, 473728, Note_on_c, 10, 91, 0
11, 473760, Note_on_c, 10, 91, 127
11, 473888, Note_on_c, 10, 91, 0
11, 473920, Note_on_c, 10, 91, 127
11, 474048, Note_on_c, 10, 91, 0
11, 474080, Note_on_c, 10, 91, 127
11, 474208, Note_on_c, 10, 91, 0
11, 474240, Note_on_c, 10, 92, 127
11, 474344, Note_on_c, 10, 92, 0
11, 474480, Note_on_c, 10, 92, 127
11, 474804, Note_on_c, 10, 92, 0
11, 474960, Note_on_c, 10, 89, 127
11, 475044, Note_on_c, 10, 89, 0
11, 475200, Note_on_c, 10, 82, 127
11, 476014, Note_on_c, 10, 82, 0
11, 478320, Note_on_c, 10, 92, 127
11, 478424, Note_on_c, 10, 92, 0
11, 478560, Note_on_c, 10, 92, 127
11, 478884, Note_on_c, 10, 92, 0
11, 479040, Note_on_c, 10, 89, 127
11, 479124, Note_on_c, 10, 89, 0
11, 479280, Note_on_c, 10, 82, 127
11, 480094, Note_on_c, 10, 82, 0
11, 481440, Control_c, 10, 7, 120
11, 482400, Note_on_c, 10, 92, 127
11, 482504, Note_on_c, 10, 92, 0
11, 482640, Note_on_c, 10, 92, 102
11, 482724, Note_on_c, 10, 92, 0
11, 482880, Note_on_c, 10, 92, 102
11, 482964, Note_on_c, 10, 92, 0
11, 483120, Note_on_c, 10, 89, 102
11, 483204, Note_on_c, 10, 89, 0
11, 483360, Note_on_c, 10, 92, 127
11, 483464, Note_on_c, 10, 92, 0
11, 483600, Note_on_c, 10, 92, 102
11, 483684, Note_on_c, 10, 92, 0
11, 483840, Note_on_c, 10, 92, 102
11, 483924, Note_on_c, 10, 92, 0
11, 484080, Note_on_c, 10, 89, 102
11, 484164, Note_on_c, 10, 89, 0
11, 484320, Note_on_c, 10, 92, 127
11, 484424, Note_on_c, 10, 92, 0
11, 484560, Note_on_c, 10, 92, 102
11, 484644, Note_on_c, 10, 92, 0
11, 484800, Note_on_c, 10, 92, 102
11, 484884, Note_on_c, 10, 92, 0
11, 485040, Note_on_c, 10, 89, 102
11, 485124, Note_on_c, 10, 89, 0
11, 485280, Note_on_c, 10, 92, 127
11, 485384, Note_on_c, 10, 92, 0
11, 485520, Note_on_c, 10, 92, 102
11, 485604, Note_on_c, 10, 92, 0
11, 485760, Note_on_c, 10, 92, 102
11, 485844, Note_on_c, 10, 92, 0
11, 486000, Note_on_c, 10, 89, 102
11, 486084, Note_on_c, 10, 89, 0
11, 486240, Note_on_c, 10, 79, 127
11, 486240, Note_on_c, 10, 91, 127
11, 486456, Note_on_c, 10, 91, 0
11, 486456, Note_on_c, 10, 79, 0
11, 486720, Note_on_c, 10, 91, 127
11, 486720, Note_on_c, 10, 79, 127
11, 486936, Note_on_c, 10, 79, 0
11, 486936, Note_on_c, 10, 91, 0
11, 487200, Note_on_c, 10, 91, 127
11, 487200, Note_on_c, 10, 79, 127
11, 487416, Note_on_c, 10, 79, 0
11, 487416, Note_on_c, 10, 91, 0
11, 487680, Note_on_c, 10, 91, 127
11, 487680, Note_on_c, 10, 79, 127
11, 487896, Note_on_c, 10, 79, 0
11, 487896, Note_on_c, 10, 91, 0
11, 488160, Note_on_c, 10, 91, 127
11, 488160, Note_on_c, 10, 79, 127
11, 488376, Note_on_c, 10, 79, 0
11, 488376, Note_on_c, 10, 91, 0
11, 488640, Note_on_c, 10, 91, 127
11, 488640, Note_on_c, 10, 79, 127
11, 488856, Note_on_c, 10, 79, 0
11, 488856, Note_on_c, 10, 91, 0
11, 489120, Note_on_c, 10, 91, 127
11, 489120, Note_on_c, 10, 79, 127
11, 489336, Note_on_c, 10, 79, 0
11, 489336, Note_on_c, 10, 91, 0
11, 489600, Note_on_c, 10, 91, 127
11, 489600, Note_on_c, 10, 79, 127
11, 489816, Note_on_c, 10, 79, 0
11, 489816, Note_on_c, 10, 91, 0
11, 490080, Note_on_c, 10, 79, 127
11, 490080, Note_on_c, 10, 91, 127
11, 490296, Note_on_c, 10, 91, 0
11, 490296, Note_on_c, 10, 79, 0
11, 492000, Note_on_c, 10, 63, 127
11, 492000, Note_on_c, 10, 75, 127
11, 492216, Note_on_c, 10, 75, 0
11, 492216, Note_on_c, 10, 63, 0
11, 493920, Note_on_c, 10, 63, 127
11, 494136, Note_on_c, 10, 63, 0
11, 495000, Note_on_c, 10, 63, 127
11, 495000, Note_on_c, 10, 75, 127
11, 495216, Note_on_c, 10, 75, 0
11, 495216, Note_on_c, 10, 63, 0
11, 496080, Note_on_c, 10, 63, 127
11, 496296, Note_on_c, 10, 63, 0
11, 497160, Note_on_c, 10, 63, 127
11, 497160, Note_on_c, 10, 75, 127
11, 497376, Note_on_c, 10, 75, 0
11, 497376, Note_on_c, 10, 63, 0
11, 498360, Note_on_c, 10, 63, 127
11, 498576, Note_on_c, 10, 63, 0
11, 498576, End_track
12, 0, Start_track
12, 0, Title_t, "Violin 2            "
12, 0, Program_c, 10, 48
12, 0, Control_c, 10, 7, 90
12, 0, Control_c, 10, 10, 103
12, 2880, Control_c, 10, 91, 100
12, 2880, Control_c, 10, 93, 100
12, 7680, Control_c, 10, 10, 33
12, 36240, Note_on_c, 10, 62, 38
12, 36360, Note_on_c, 10, 62, 0
12, 36360, Note_on_c, 10, 63, 38
12, 36480, Note_on_c, 10, 63, 0
12, 36480, Note_on_c, 10, 65, 48
12, 36600, Note_on_c, 10, 65, 0
12, 36600, Note_on_c, 10, 63, 48
12, 36720, Note_on_c, 10, 63, 0
12, 36720, Note_on_c, 10, 62, 38
12, 36912, Note_on_c, 10, 62, 0
12, 45840, Note_on_c, 10, 63, 89
12, 46020, Note_on_c, 10, 63, 0
12, 47760, Note_on_c, 10, 63, 89
12, 47940, Note_on_c, 10, 63, 0
12, 64080, Control_c, 10, 7, 100
12, 65040, Note_on_c, 10, 55, 45
12, 65102, Note_on_c, 10, 55, 0
12, 65280, Note_on_c, 10, 67, 47
12, 65646, Note_on_c, 10, 67, 0
12, 65760, Note_on_c, 10, 70, 50
12, 66130, Note_on_c, 10, 70, 0
12, 66240, Note_on_c, 10, 68, 53
12, 66634, Note_on_c, 10, 68, 0
12, 66720, Note_on_c, 10, 65, 56
12, 67034, Note_on_c, 10, 65, 0
12, 67200, Note_on_c, 10, 67, 59
12, 67516, Note_on_c, 10, 67, 0
12, 67680, Note_on_c, 10, 63, 63
12, 68034, Note_on_c, 10, 63, 0
12, 68160, Note_on_c, 10, 65, 66
12, 68514, Note_on_c, 10, 65, 0
12, 68640, Note_on_c, 10, 58, 69
12, 68984, Note_on_c, 10, 58, 0
12, 69120, Note_on_c, 10, 67, 72
12, 69464, Note_on_c, 10, 67, 0
12, 69600, Note_on_c, 10, 70, 75
12, 69970, Note_on_c, 10, 70, 0
12, 70080, Note_on_c, 10, 68, 78
12, 70434, Note_on_c, 10, 68, 0
12, 70560, Note_on_c, 10, 65, 83
12, 70912, Note_on_c, 10, 65, 0
12, 71040, Note_on_c, 10, 67, 86
12, 71414, Note_on_c, 10, 67, 0
12, 71520, Note_on_c, 10, 70, 89
12, 71856, Note_on_c, 10, 70, 0
12, 72000, Note_on_c, 10, 72, 92
12, 72332, Note_on_c, 10, 72, 0
12, 72480, Note_on_c, 10, 68, 95
12, 72890, Note_on_c, 10, 68, 0
12, 72960, Note_on_c, 10, 58, 102
12, 73282, Note_on_c, 10, 58, 0
12, 73440, Note_on_c, 10, 62, 102
12, 73740, Note_on_c, 10, 62, 0
12, 73920, Note_on_c, 10, 63, 102
12, 74202, Note_on_c, 10, 63, 0
12, 74400, Note_on_c, 10, 60, 102
12, 74712, Note_on_c, 10, 60, 0
12, 74880, Note_on_c, 10, 62, 102
12, 75204, Note_on_c, 10, 62, 0
12, 75360, Note_on_c, 10, 65, 102
12, 75670, Note_on_c, 10, 65, 0
12, 75840, Note_on_c, 10, 67, 127
12, 76150, Note_on_c, 10, 67, 0
12, 76320, Note_on_c, 10, 63, 127
12, 76500, Note_on_c, 10, 63, 0
12, 76560, Note_on_c, 10, 67, 127
12, 76680, Note_on_c, 10, 67, 0
12, 76800, Note_on_c, 10, 67, 127
12, 77252, Note_on_c, 10, 67, 0
12, 77280, Note_on_c, 10, 64, 127
12, 77376, Note_on_c, 10, 64, 0
12, 77520, Note_on_c, 10, 80, 127
12, 77646, Note_on_c, 10, 80, 0
12, 77760, Note_on_c, 10, 77, 127
12, 77880, Note_on_c, 10, 77, 0
12, 78000, Note_on_c, 10, 74, 127
12, 78104, Note_on_c, 10, 74, 0
12, 78240, Note_on_c, 10, 70, 127
12, 78344, Note_on_c, 10, 70, 0
12, 78480, Note_on_c, 10, 68, 127
12, 78584, Note_on_c, 10, 68, 0
12, 78720, Note_on_c, 10, 65, 127
12, 78830, Note_on_c, 10, 65, 0
12, 78960, Note_on_c, 10, 62, 127
12, 79056, Note_on_c, 10, 62, 0
12, 79200, Note_on_c, 10, 58, 127
12, 79296, Note_on_c, 10, 58, 0
12, 79440, Note_on_c, 10, 62, 127
12, 79556, Note_on_c, 10, 62, 0
12, 79680, Note_on_c, 10, 65, 127
12, 79776, Note_on_c, 10, 65, 0
12, 79920, Note_on_c, 10, 68, 127
12, 80032, Note_on_c, 10, 68, 0
12, 80160, Note_on_c, 10, 70, 127
12, 80252, Note_on_c, 10, 70, 0
12, 80400, Note_on_c, 10, 74, 127
12, 80524, Note_on_c, 10, 74, 0
12, 80640, Note_on_c, 10, 77, 127
12, 80756, Note_on_c, 10, 77, 0
12, 80880, Note_on_c, 10, 80, 127
12, 81000, Note_on_c, 10, 80, 0
12, 81120, Note_on_c, 10, 82, 127
12, 81242, Note_on_c, 10, 82, 0
12, 81360, Note_on_c, 10, 80, 127
12, 81480, Note_on_c, 10, 80, 0
12, 81600, Note_on_c, 10, 77, 127
12, 81696, Note_on_c, 10, 77, 0
12, 81840, Note_on_c, 10, 74, 127
12, 81954, Note_on_c, 10, 74, 0
12, 82080, Note_on_c, 10, 70, 127
12, 82176, Note_on_c, 10, 70, 0
12, 82320, Note_on_c, 10, 68, 127
12, 82414, Note_on_c, 10, 68, 0
12, 82560, Note_on_c, 10, 65, 127
12, 82670, Note_on_c, 10, 65, 0
12, 82800, Note_on_c, 10, 62, 127
12, 82896, Note_on_c, 10, 62, 0
12, 83040, Note_on_c, 10, 58, 127
12, 83130, Note_on_c, 10, 58, 0
12, 83280, Note_on_c, 10, 62, 127
12, 83386, Note_on_c, 10, 62, 0
12, 83520, Note_on_c, 10, 65, 127
12, 83616, Note_on_c, 10, 65, 0
12, 83760, Note_on_c, 10, 68, 127
12, 83874, Note_on_c, 10, 68, 0
12, 84000, Note_on_c, 10, 70, 127
12, 84084, Note_on_c, 10, 70, 0
12, 84240, Note_on_c, 10, 74, 127
12, 84366, Note_on_c, 10, 74, 0
12, 84480, Note_on_c, 10, 77, 127
12, 84590, Note_on_c, 10, 77, 0
12, 84720, Note_on_c, 10, 77, 127
12, 84804, Note_on_c, 10, 77, 0
12, 84960, Note_on_c, 10, 80, 127
12, 85056, Note_on_c, 10, 80, 0
12, 85200, Note_on_c, 10, 79, 127
12, 85304, Note_on_c, 10, 79, 0
12, 85440, Note_on_c, 10, 79, 127
12, 85764, Note_on_c, 10, 79, 0
12, 85920, Note_on_c, 10, 75, 127
12, 86004, Note_on_c, 10, 75, 0
12, 86160, Note_on_c, 10, 70, 127
12, 86974, Note_on_c, 10, 70, 0
12, 87120, Note_on_c, 10, 79, 127
12, 87236, Note_on_c, 10, 79, 0
12, 87360, Note_on_c, 10, 79, 127
12, 87682, Note_on_c, 10, 79, 0
12, 87840, Note_on_c, 10, 75, 127
12, 87930, Note_on_c, 10, 75, 0
12, 88080, Note_on_c, 10, 70, 127
12, 88886, Note_on_c, 10, 70, 0
12, 88920, Note_on_c, 10, 75, 127
12, 88978, Note_on_c, 10, 75, 0
12, 88980, Note_on_c, 10, 77, 127
12, 89038, Note_on_c, 10, 77, 0
12, 89040, Note_on_c, 10, 79, 127
12, 89380, Note_on_c, 10, 79, 0
12, 89520, Note_on_c, 10, 75, 127
12, 89612, Note_on_c, 10, 75, 0
12, 89760, Note_on_c, 10, 74, 127
12, 89870, Note_on_c, 10, 74, 0
12, 90000, Note_on_c, 10, 72, 127
12, 90340, Note_on_c, 10, 72, 0
12, 90480, Note_on_c, 10, 72, 127
12, 90584, Note_on_c, 10, 72, 0
12, 90720, Note_on_c, 10, 72, 127
12, 90826, Note_on_c, 10, 72, 0
12, 90960, Note_on_c, 10, 74, 127
12, 91304, Note_on_c, 10, 74, 0
12, 91440, Note_on_c, 10, 74, 127
12, 91536, Note_on_c, 10, 74, 0
12, 91680, Note_on_c, 10, 74, 127
12, 91774, Note_on_c, 10, 74, 0
12, 91920, Note_on_c, 10, 75, 127
12, 92204, Note_on_c, 10, 75, 0
12, 92760, Note_on_c, 10, 75, 127
12, 92818, Note_on_c, 10, 75, 0
12, 92820, Note_on_c, 10, 77, 127
12, 92878, Note_on_c, 10, 77, 0
12, 92880, Note_on_c, 10, 79, 127
12, 93230, Note_on_c, 10, 79, 0
12, 93360, Note_on_c, 10, 75, 127
12, 93462, Note_on_c, 10, 75, 0
12, 93600, Note_on_c, 10, 74, 127
12, 93714, Note_on_c, 10, 74, 0
12, 93840, Note_on_c, 10, 72, 127
12, 94160, Note_on_c, 10, 72, 0
12, 94320, Note_on_c, 10, 72, 127
12, 94406, Note_on_c, 10, 72, 0
12, 94560, Note_on_c, 10, 72, 127
12, 94664, Note_on_c, 10, 72, 0
12, 94800, Note_on_c, 10, 74, 127
12, 95150, Note_on_c, 10, 74, 0
12, 95280, Note_on_c, 10, 74, 127
12, 95376, Note_on_c, 10, 74, 0
12, 95520, Note_on_c, 10, 74, 127
12, 95636, Note_on_c, 10, 74, 0
12, 95760, Note_on_c, 10, 75, 112
12, 95920, Note_on_c, 10, 75, 0
12, 95920, Note_on_c, 10, 75, 106
12, 96080, Note_on_c, 10, 75, 0
12, 96080, Note_on_c, 10, 75, 112
12, 96240, Note_on_c, 10, 75, 0
12, 96240, Note_on_c, 10, 79, 90
12, 96400, Note_on_c, 10, 79, 0
12, 96400, Note_on_c, 10, 79, 98
12, 96560, Note_on_c, 10, 79, 0
12, 96560, Note_on_c, 10, 79, 92
12, 96720, Note_on_c, 10, 79, 0
12, 96720, Note_on_c, 10, 72, 120
12, 96880, Note_on_c, 10, 72, 0
12, 96880, Note_on_c, 10, 72, 127
12, 97040, Note_on_c, 10, 72, 0
12, 97040, Note_on_c, 10, 72, 127
12, 97200, Note_on_c, 10, 72, 0
12, 97200, Note_on_c, 10, 75, 102
12, 97360, Note_on_c, 10, 75, 0
12, 97360, Note_on_c, 10, 75, 106
12, 97520, Note_on_c, 10, 75, 0
12, 97520, Note_on_c, 10, 75, 96
12, 97680, Note_on_c, 10, 75, 0
12, 97680, Note_on_c, 10, 68, 116
12, 97840, Note_on_c, 10, 68, 0
12, 97840, Note_on_c, 10, 68, 116
12, 98000, Note_on_c, 10, 68, 0
12, 98000, Note_on_c, 10, 68, 108
12, 98160, Note_on_c, 10, 68, 0
12, 98160, Note_on_c, 10, 72, 110
12, 98320, Note_on_c, 10, 72, 0
12, 98320, Note_on_c, 10, 72, 120
12, 98480, Note_on_c, 10, 72, 0
12, 98480, Note_on_c, 10, 72, 110
12, 98640, Note_on_c, 10, 72, 0
12, 98640, Note_on_c, 10, 65, 127
12, 98762, Note_on_c, 10, 65, 0
12, 98880, Note_on_c, 10, 68, 127
12, 99002, Note_on_c, 10, 68, 0
12, 99120, Note_on_c, 10, 72, 127
12, 99230, Note_on_c, 10, 72, 0
12, 99360, Note_on_c, 10, 76, 127
12, 99454, Note_on_c, 10, 76, 0
12, 99600, Note_on_c, 10, 77, 112
12, 99760, Note_on_c, 10, 77, 0
12, 99760, Note_on_c, 10, 77, 112
12, 99920, Note_on_c, 10, 77, 0
12, 99920, Note_on_c, 10, 77, 80
12, 100080, Note_on_c, 10, 77, 0
12, 100080, Note_on_c, 10, 80, 90
12, 100240, Note_on_c, 10, 80, 0
12, 100240, Note_on_c, 10, 80, 96
12, 100400, Note_on_c, 10, 80, 0
12, 100400, Note_on_c, 10, 80, 112
12, 100560, Note_on_c, 10, 80, 0
12, 100560, Note_on_c, 10, 74, 114
12, 100720, Note_on_c, 10, 74, 0
12, 100720, Note_on_c, 10, 74, 127
12, 100880, Note_on_c, 10, 74, 0
12, 100880, Note_on_c, 10, 74, 118
12, 101040, Note_on_c, 10, 74, 0
12, 101040, Note_on_c, 10, 77, 106
12, 101200, Note_on_c, 10, 77, 0
12, 101200, Note_on_c, 10, 77, 98
12, 101360, Note_on_c, 10, 77, 0
12, 101360, Note_on_c, 10, 77, 94
12, 101520, Note_on_c, 10, 77, 0
12, 101520, Note_on_c, 10, 70, 118
12, 101680, Note_on_c, 10, 70, 0
12, 101680, Note_on_c, 10, 70, 106
12, 101840, Note_on_c, 10, 70, 0
12, 101840, Note_on_c, 10, 70, 92
12, 102000, Note_on_c, 10, 70, 0
12, 102000, Note_on_c, 10, 74, 72
12, 102160, Note_on_c, 10, 74, 0
12, 102160, Note_on_c, 10, 74, 76
12, 102320, Note_on_c, 10, 74, 0
12, 102320, Note_on_c, 10, 74, 82
12, 102480, Note_on_c, 10, 74, 0
12, 102480, Note_on_c, 10, 67, 127
12, 102642, Note_on_c, 10, 67, 0
12, 102720, Note_on_c, 10, 70, 127
12, 102864, Note_on_c, 10, 70, 0
12, 102960, Note_on_c, 10, 74, 127
12, 103076, Note_on_c, 10, 74, 0
12, 103200, Note_on_c, 10, 78, 127
12, 103302, Note_on_c, 10, 78, 0
12, 103440, Note_on_c, 10, 79, 114
12, 103600, Note_on_c, 10, 79, 0
12, 103600, Note_on_c, 10, 79, 122
12, 103760, Note_on_c, 10, 79, 0
12, 103760, Note_on_c, 10, 79, 122
12, 103920, Note_on_c, 10, 79, 0
12, 103920, Note_on_c, 10, 82, 127
12, 104080, Note_on_c, 10, 82, 0
12, 104080, Note_on_c, 10, 82, 127
12, 104240, Note_on_c, 10, 82, 0
12, 104240, Note_on_c, 10, 82, 127
12, 104400, Note_on_c, 10, 82, 0
12, 104400, Note_on_c, 10, 75, 127
12, 104560, Note_on_c, 10, 75, 0
12, 104560, Note_on_c, 10, 75, 127
12, 104720, Note_on_c, 10, 75, 0
12, 104720, Note_on_c, 10, 75, 127
12, 104880, Note_on_c, 10, 75, 0
12, 104880, Note_on_c, 10, 79, 127
12, 105040, Note_on_c, 10, 79, 0
12, 105040, Note_on_c, 10, 79, 127
12, 105200, Note_on_c, 10, 79, 0
12, 105200, Note_on_c, 10, 79, 127
12, 105360, Note_on_c, 10, 79, 0
12, 105360, Note_on_c, 10, 72, 127
12, 105520, Note_on_c, 10, 72, 0
12, 105520, Note_on_c, 10, 72, 127
12, 105680, Note_on_c, 10, 72, 0
12, 105680, Note_on_c, 10, 72, 127
12, 105840, Note_on_c, 10, 72, 0
12, 105840, Note_on_c, 10, 75, 127
12, 106000, Note_on_c, 10, 75, 0
12, 106000, Note_on_c, 10, 75, 127
12, 106160, Note_on_c, 10, 75, 0
12, 106160, Note_on_c, 10, 75, 127
12, 106320, Note_on_c, 10, 75, 0
12, 106320, Note_on_c, 10, 69, 127
12, 106480, Note_on_c, 10, 69, 0
12, 106480, Note_on_c, 10, 69, 127
12, 106640, Note_on_c, 10, 69, 0
12, 106640, Note_on_c, 10, 69, 122
12, 106800, Note_on_c, 10, 69, 0
12, 106800, Note_on_c, 10, 72, 127
12, 106960, Note_on_c, 10, 72, 0
12, 106960, Note_on_c, 10, 72, 127
12, 107120, Note_on_c, 10, 72, 0
12, 107120, Note_on_c, 10, 72, 127
12, 107280, Note_on_c, 10, 72, 0
12, 107280, Note_on_c, 10, 70, 99
12, 107424, Note_on_c, 10, 70, 0
12, 107520, Note_on_c, 10, 58, 99
12, 107520, Note_on_c, 10, 65, 99
12, 107664, Note_on_c, 10, 65, 0
12, 107664, Note_on_c, 10, 58, 0
12, 107760, Note_on_c, 10, 65, 99
12, 107760, Note_on_c, 10, 58, 99
12, 107904, Note_on_c, 10, 58, 0
12, 107904, Note_on_c, 10, 65, 0
12, 108000, Note_on_c, 10, 58, 99
12, 108000, Note_on_c, 10, 65, 99
12, 108144, Note_on_c, 10, 65, 0
12, 108144, Note_on_c, 10, 58, 0
12, 108240, Note_on_c, 10, 67, 99
12, 108240, Note_on_c, 10, 58, 99
12, 108384, Note_on_c, 10, 58, 0
12, 108384, Note_on_c, 10, 67, 0
12, 108480, Note_on_c, 10, 58, 99
12, 108480, Note_on_c, 10, 67, 99
12, 108624, Note_on_c, 10, 67, 0
12, 108624, Note_on_c, 10, 58, 0
12, 108720, Note_on_c, 10, 58, 99
12, 108720, Note_on_c, 10, 67, 99
12, 108864, Note_on_c, 10, 67, 0
12, 108864, Note_on_c, 10, 58, 0
12, 108960, Note_on_c, 10, 58, 99
12, 108960, Note_on_c, 10, 67, 99
12, 109104, Note_on_c, 10, 67, 0
12, 109104, Note_on_c, 10, 58, 0
12, 109200, Note_on_c, 10, 65, 99
12, 109200, Note_on_c, 10, 58, 99
12, 109344, Note_on_c, 10, 58, 0
12, 109344, Note_on_c, 10, 65, 0
12, 109440, Note_on_c, 10, 65, 99
12, 109440, Note_on_c, 10, 58, 99
12, 109584, Note_on_c, 10, 58, 0
12, 109584, Note_on_c, 10, 65, 0
12, 109680, Note_on_c, 10, 65, 99
12, 109680, Note_on_c, 10, 58, 99
12, 109824, Note_on_c, 10, 58, 0
12, 109824, Note_on_c, 10, 65, 0
12, 109920, Note_on_c, 10, 65, 99
12, 109920, Note_on_c, 10, 58, 99
12, 110064, Note_on_c, 10, 58, 0
12, 110064, Note_on_c, 10, 65, 0
12, 110160, Note_on_c, 10, 63, 99
12, 110160, Note_on_c, 10, 55, 99
12, 110304, Note_on_c, 10, 55, 0
12, 110304, Note_on_c, 10, 63, 0
12, 110400, Note_on_c, 10, 55, 99
12, 110400, Note_on_c, 10, 63, 99
12, 110544, Note_on_c, 10, 63, 0
12, 110544, Note_on_c, 10, 55, 0
12, 110640, Note_on_c, 10, 67, 99
12, 110640, Note_on_c, 10, 58, 99
12, 110784, Note_on_c, 10, 58, 0
12, 110784, Note_on_c, 10, 67, 0
12, 110880, Note_on_c, 10, 67, 99
12, 110880, Note_on_c, 10, 58, 99
12, 111024, Note_on_c, 10, 58, 0
12, 111024, Note_on_c, 10, 67, 0
12, 111120, Note_on_c, 10, 65, 99
12, 111120, Note_on_c, 10, 58, 99
12, 111264, Note_on_c, 10, 58, 0
12, 111264, Note_on_c, 10, 65, 0
12, 111360, Note_on_c, 10, 58, 99
12, 111360, Note_on_c, 10, 65, 99
12, 111504, Note_on_c, 10, 65, 0
12, 111504, Note_on_c, 10, 58, 0
12, 111600, Note_on_c, 10, 65, 99
12, 111600, Note_on_c, 10, 58, 99
12, 111744, Note_on_c, 10, 58, 0
12, 111744, Note_on_c, 10, 65, 0
12, 111840, Note_on_c, 10, 58, 99
12, 111840, Note_on_c, 10, 65, 99
12, 111984, Note_on_c, 10, 65, 0
12, 111984, Note_on_c, 10, 58, 0
12, 112080, Note_on_c, 10, 67, 99
12, 112080, Note_on_c, 10, 58, 99
12, 112224, Note_on_c, 10, 58, 0
12, 112224, Note_on_c, 10, 67, 0
12, 112320, Note_on_c, 10, 58, 99
12, 112320, Note_on_c, 10, 67, 99
12, 112464, Note_on_c, 10, 67, 0
12, 112464, Note_on_c, 10, 58, 0
12, 112560, Note_on_c, 10, 67, 99
12, 112560, Note_on_c, 10, 58, 99
12, 112704, Note_on_c, 10, 58, 0
12, 112704, Note_on_c, 10, 67, 0
12, 112800, Note_on_c, 10, 58, 99
12, 112800, Note_on_c, 10, 67, 99
12, 112944, Note_on_c, 10, 67, 0
12, 112944, Note_on_c, 10, 58, 0
12, 113040, Note_on_c, 10, 65, 99
12, 113040, Note_on_c, 10, 58, 99
12, 113184, Note_on_c, 10, 58, 0
12, 113184, Note_on_c, 10, 65, 0
12, 113280, Note_on_c, 10, 65, 99
12, 113280, Note_on_c, 10, 58, 99
12, 113424, Note_on_c, 10, 58, 0
12, 113424, Note_on_c, 10, 65, 0
12, 113520, Note_on_c, 10, 58, 99
12, 113520, Note_on_c, 10, 65, 99
12, 113664, Note_on_c, 10, 65, 0
12, 113664, Note_on_c, 10, 58, 0
12, 113760, Note_on_c, 10, 58, 99
12, 113760, Note_on_c, 10, 65, 99
12, 113904, Note_on_c, 10, 65, 0
12, 113904, Note_on_c, 10, 58, 0
12, 114000, Note_on_c, 10, 63, 99
12, 114000, Note_on_c, 10, 58, 99
12, 114144, Note_on_c, 10, 58, 0
12, 114144, Note_on_c, 10, 63, 0
12, 114240, Note_on_c, 10, 63, 99
12, 114240, Note_on_c, 10, 58, 99
12, 114384, Note_on_c, 10, 58, 0
12, 114384, Note_on_c, 10, 63, 0
12, 153840, Note_on_c, 10, 67, 99
12, 153936, Note_on_c, 10, 67, 0
12, 154080, Note_on_c, 10, 69, 99
12, 154176, Note_on_c, 10, 69, 0
12, 154320, Note_on_c, 10, 70, 99
12, 154416, Note_on_c, 10, 70, 0
12, 154560, Note_on_c, 10, 72, 99
12, 154656, Note_on_c, 10, 72, 0
12, 154800, Note_on_c, 10, 74, 99
12, 154896, Note_on_c, 10, 74, 0
12, 155040, Note_on_c, 10, 76, 99
12, 155136, Note_on_c, 10, 76, 0
12, 155280, Note_on_c, 10, 77, 99
12, 155472, Note_on_c, 10, 77, 0
12, 155760, Note_on_c, 10, 69, 83
12, 155856, Note_on_c, 10, 69, 0
12, 156000, Note_on_c, 10, 70, 90
12, 156096, Note_on_c, 10, 70, 0
12, 156240, Note_on_c, 10, 72, 98
12, 156336, Note_on_c, 10, 72, 0
12, 156480, Note_on_c, 10, 74, 106
12, 156576, Note_on_c, 10, 74, 0
12, 156720, Note_on_c, 10, 75, 114
12, 156816, Note_on_c, 10, 75, 0
12, 156960, Note_on_c, 10, 77, 121
12, 157056, Note_on_c, 10, 77, 0
12, 157680, Note_on_c, 10, 70, 82
12, 157776, Note_on_c, 10, 70, 0
12, 157920, Note_on_c, 10, 72, 90
12, 158016, Note_on_c, 10, 72, 0
12, 158160, Note_on_c, 10, 74, 97
12, 158256, Note_on_c, 10, 74, 0
12, 158400, Note_on_c, 10, 75, 105
12, 158496, Note_on_c, 10, 75, 0
12, 158640, Note_on_c, 10, 77, 112
12, 158736, Note_on_c, 10, 77, 0
12, 158880, Note_on_c, 10, 79, 120
12, 158976, Note_on_c, 10, 79, 0
12, 159600, Note_on_c, 10, 69, 84
12, 159696, Note_on_c, 10, 69, 0
12, 159840, Note_on_c, 10, 70, 91
12, 159936, Note_on_c, 10, 70, 0
12, 160080, Note_on_c, 10, 72, 98
12, 160176, Note_on_c, 10, 72, 0
12, 160320, Note_on_c, 10, 74, 105
12, 160416, Note_on_c, 10, 74, 0
12, 160560, Note_on_c, 10, 75, 112
12, 160656, Note_on_c, 10, 75, 0
12, 160800, Note_on_c, 10, 77, 119
12, 160896, Note_on_c, 10, 77, 0
12, 161040, Note_on_c, 10, 77, 127
12, 161168, Note_on_c, 10, 77, 0
12, 161200, Note_on_c, 10, 77, 127
12, 161328, Note_on_c, 10, 77, 0
12, 161360, Note_on_c, 10, 77, 127
12, 161488, Note_on_c, 10, 77, 0
12, 161520, Note_on_c, 10, 65, 62
12, 161520, Note_on_c, 10, 62, 62
12, 161648, Note_on_c, 10, 62, 0
12, 161648, Note_on_c, 10, 65, 0
12, 161680, Note_on_c, 10, 62, 62
12, 161680, Note_on_c, 10, 65, 62
12, 161808, Note_on_c, 10, 65, 0
12, 161808, Note_on_c, 10, 62, 0
12, 161840, Note_on_c, 10, 65, 62
12, 161840, Note_on_c, 10, 62, 62
12, 161968, Note_on_c, 10, 62, 0
12, 161968, Note_on_c, 10, 65, 0
12, 162000, Note_on_c, 10, 62, 62
12, 162000, Note_on_c, 10, 65, 62
12, 162128, Note_on_c, 10, 65, 0
12, 162128, Note_on_c, 10, 62, 0
12, 162160, Note_on_c, 10, 62, 62
12, 162160, Note_on_c, 10, 65, 62
12, 162288, Note_on_c, 10, 65, 0
12, 162288, Note_on_c, 10, 62, 0
12, 162320, Note_on_c, 10, 62, 62
12, 162320, Note_on_c, 10, 65, 62
12, 162448, Note_on_c, 10, 65, 0
12, 162448, Note_on_c, 10, 62, 0
12, 162480, Note_on_c, 10, 65, 62
12, 162480, Note_on_c, 10, 62, 62
12, 162608, Note_on_c, 10, 62, 0
12, 162608, Note_on_c, 10, 65, 0
12, 162640, Note_on_c, 10, 62, 62
12, 162640, Note_on_c, 10, 65, 62
12, 162768, Note_on_c, 10, 65, 0
12, 162768, Note_on_c, 10, 62, 0
12, 162800, Note_on_c, 10, 62, 62
12, 162800, Note_on_c, 10, 65, 62
12, 162928, Note_on_c, 10, 65, 0
12, 162928, Note_on_c, 10, 62, 0
12, 162960, Note_on_c, 10, 65, 62
12, 162960, Note_on_c, 10, 62, 62
12, 163088, Note_on_c, 10, 62, 0
12, 163088, Note_on_c, 10, 65, 0
12, 163120, Note_on_c, 10, 65, 62
12, 163120, Note_on_c, 10, 62, 62
12, 163248, Note_on_c, 10, 62, 0
12, 163248, Note_on_c, 10, 65, 0
12, 163280, Note_on_c, 10, 65, 62
12, 163280, Note_on_c, 10, 62, 62
12, 163408, Note_on_c, 10, 62, 0
12, 163408, Note_on_c, 10, 65, 0
12, 163440, Note_on_c, 10, 65, 62
12, 163440, Note_on_c, 10, 62, 62
12, 163568, Note_on_c, 10, 62, 0
12, 163568, Note_on_c, 10, 65, 0
12, 163600, Note_on_c, 10, 62, 62
12, 163600, Note_on_c, 10, 65, 62
12, 163728, Note_on_c, 10, 65, 0
12, 163728, Note_on_c, 10, 62, 0
12, 163760, Note_on_c, 10, 65, 62
12, 163760, Note_on_c, 10, 62, 62
12, 163888, Note_on_c, 10, 62, 0
12, 163888, Note_on_c, 10, 65, 0
12, 163920, Note_on_c, 10, 65, 62
12, 163920, Note_on_c, 10, 62, 62
12, 164048, Note_on_c, 10, 62, 0
12, 164048, Note_on_c, 10, 65, 0
12, 164080, Note_on_c, 10, 65, 62
12, 164080, Note_on_c, 10, 62, 62
12, 164208, Note_on_c, 10, 62, 0
12, 164208, Note_on_c, 10, 65, 0
12, 164240, Note_on_c, 10, 65, 62
12, 164240, Note_on_c, 10, 62, 62
12, 164368, Note_on_c, 10, 62, 0
12, 164368, Note_on_c, 10, 65, 0
12, 164400, Note_on_c, 10, 62, 62
12, 164400, Note_on_c, 10, 65, 62
12, 164528, Note_on_c, 10, 65, 0
12, 164528, Note_on_c, 10, 62, 0
12, 164560, Note_on_c, 10, 65, 62
12, 164560, Note_on_c, 10, 62, 62
12, 164688, Note_on_c, 10, 62, 0
12, 164688, Note_on_c, 10, 65, 0
12, 164720, Note_on_c, 10, 65, 62
12, 164720, Note_on_c, 10, 62, 62
12, 164848, Note_on_c, 10, 62, 0
12, 164848, Note_on_c, 10, 65, 0
12, 164880, Note_on_c, 10, 67, 62
12, 164880, Note_on_c, 10, 58, 62
12, 165008, Note_on_c, 10, 58, 0
12, 165008, Note_on_c, 10, 67, 0
12, 165040, Note_on_c, 10, 58, 62
12, 165040, Note_on_c, 10, 67, 62
12, 165168, Note_on_c, 10, 67, 0
12, 165168, Note_on_c, 10, 58, 0
12, 165200, Note_on_c, 10, 67, 62
12, 165200, Note_on_c, 10, 58, 62
12, 165328, Note_on_c, 10, 58, 0
12, 165328, Note_on_c, 10, 67, 0
12, 165360, Note_on_c, 10, 58, 62
12, 165360, Note_on_c, 10, 67, 62
12, 165488, Note_on_c, 10, 67, 0
12, 165488, Note_on_c, 10, 58, 0
12, 165520, Note_on_c, 10, 58, 62
12, 165520, Note_on_c, 10, 67, 62
12, 165648, Note_on_c, 10, 67, 0
12, 165648, Note_on_c, 10, 58, 0
12, 165680, Note_on_c, 10, 67, 62
12, 165680, Note_on_c, 10, 58, 62
12, 165808, Note_on_c, 10, 58, 0
12, 165808, Note_on_c, 10, 67, 0
12, 165840, Note_on_c, 10, 58, 62
12, 165840, Note_on_c, 10, 67, 62
12, 165968, Note_on_c, 10, 67, 0
12, 165968, Note_on_c, 10, 58, 0
12, 166000, Note_on_c, 10, 67, 62
12, 166000, Note_on_c, 10, 58, 62
12, 166128, Note_on_c, 10, 58, 0
12, 166128, Note_on_c, 10, 67, 0
12, 166160, Note_on_c, 10, 58, 62
12, 166160, Note_on_c, 10, 67, 62
12, 166288, Note_on_c, 10, 67, 0
12, 166288, Note_on_c, 10, 58, 0
12, 166320, Note_on_c, 10, 58, 62
12, 166320, Note_on_c, 10, 67, 62
12, 166448, Note_on_c, 10, 67, 0
12, 166448, Note_on_c, 10, 58, 0
12, 166480, Note_on_c, 10, 58, 62
12, 166480, Note_on_c, 10, 67, 62
12, 166608, Note_on_c, 10, 67, 0
12, 166608, Note_on_c, 10, 58, 0
12, 166640, Note_on_c, 10, 58, 62
12, 166640, Note_on_c, 10, 67, 62
12, 166768, Note_on_c, 10, 67, 0
12, 166768, Note_on_c, 10, 58, 0
12, 166800, Note_on_c, 10, 58, 62
12, 166800, Note_on_c, 10, 67, 62
12, 166928, Note_on_c, 10, 67, 0
12, 166928, Note_on_c, 10, 58, 0
12, 166960, Note_on_c, 10, 58, 62
12, 166960, Note_on_c, 10, 67, 62
12, 167088, Note_on_c, 10, 67, 0
12, 167088, Note_on_c, 10, 58, 0
12, 167120, Note_on_c, 10, 67, 62
12, 167120, Note_on_c, 10, 58, 62
12, 167248, Note_on_c, 10, 58, 0
12, 167248, Note_on_c, 10, 67, 0
12, 167280, Note_on_c, 10, 58, 62
12, 167280, Note_on_c, 10, 67, 62
12, 167408, Note_on_c, 10, 67, 0
12, 167408, Note_on_c, 10, 58, 0
12, 167440, Note_on_c, 10, 58, 62
12, 167440, Note_on_c, 10, 67, 62
12, 167568, Note_on_c, 10, 67, 0
12, 167568, Note_on_c, 10, 58, 0
12, 167600, Note_on_c, 10, 58, 62
12, 167600, Note_on_c, 10, 67, 62
12, 167728, Note_on_c, 10, 67, 0
12, 167728, Note_on_c, 10, 58, 0
12, 167760, Note_on_c, 10, 67, 62
12, 167760, Note_on_c, 10, 58, 62
12, 167888, Note_on_c, 10, 58, 0
12, 167888, Note_on_c, 10, 67, 0
12, 167920, Note_on_c, 10, 67, 62
12, 167920, Note_on_c, 10, 58, 62
12, 168048, Note_on_c, 10, 58, 0
12, 168048, Note_on_c, 10, 67, 0
12, 168080, Note_on_c, 10, 58, 62
12, 168080, Note_on_c, 10, 67, 62
12, 168208, Note_on_c, 10, 67, 0
12, 168208, Note_on_c, 10, 58, 0
12, 168240, Note_on_c, 10, 58, 62
12, 168240, Note_on_c, 10, 67, 62
12, 168368, Note_on_c, 10, 67, 0
12, 168368, Note_on_c, 10, 58, 0
12, 168400, Note_on_c, 10, 67, 62
12, 168400, Note_on_c, 10, 58, 62
12, 168528, Note_on_c, 10, 58, 0
12, 168528, Note_on_c, 10, 67, 0
12, 168560, Note_on_c, 10, 67, 62
12, 168560, Note_on_c, 10, 58, 62
12, 168688, Note_on_c, 10, 58, 0
12, 168688, Note_on_c, 10, 67, 0
12, 168720, Note_on_c, 10, 65, 62
12, 168720, Note_on_c, 10, 62, 62
12, 168848, Note_on_c, 10, 62, 0
12, 168848, Note_on_c, 10, 65, 0
12, 168880, Note_on_c, 10, 62, 62
12, 168880, Note_on_c, 10, 65, 62
12, 169008, Note_on_c, 10, 65, 0
12, 169008, Note_on_c, 10, 62, 0
12, 169040, Note_on_c, 10, 65, 62
12, 169040, Note_on_c, 10, 62, 62
12, 169168, Note_on_c, 10, 62, 0
12, 169168, Note_on_c, 10, 65, 0
12, 169200, Note_on_c, 10, 65, 62
12, 169200, Note_on_c, 10, 62, 62
12, 169328, Note_on_c, 10, 62, 0
12, 169328, Note_on_c, 10, 65, 0
12, 169360, Note_on_c, 10, 65, 62
12, 169360, Note_on_c, 10, 62, 62
12, 169488, Note_on_c, 10, 62, 0
12, 169488, Note_on_c, 10, 65, 0
12, 169520, Note_on_c, 10, 65, 62
12, 169520, Note_on_c, 10, 62, 62
12, 169648, Note_on_c, 10, 62, 0
12, 169648, Note_on_c, 10, 65, 0
12, 169680, Note_on_c, 10, 65, 62
12, 169680, Note_on_c, 10, 62, 62
12, 169808, Note_on_c, 10, 62, 0
12, 169808, Note_on_c, 10, 65, 0
12, 169840, Note_on_c, 10, 65, 62
12, 169840, Note_on_c, 10, 62, 62
12, 169968, Note_on_c, 10, 62, 0
12, 169968, Note_on_c, 10, 65, 0
12, 170000, Note_on_c, 10, 62, 62
12, 170000, Note_on_c, 10, 65, 62
12, 170128, Note_on_c, 10, 65, 0
12, 170128, Note_on_c, 10, 62, 0
12, 170160, Note_on_c, 10, 65, 62
12, 170160, Note_on_c, 10, 62, 62
12, 170288, Note_on_c, 10, 62, 0
12, 170288, Note_on_c, 10, 65, 0
12, 170320, Note_on_c, 10, 65, 62
12, 170320, Note_on_c, 10, 62, 62
12, 170448, Note_on_c, 10, 62, 0
12, 170448, Note_on_c, 10, 65, 0
12, 170480, Note_on_c, 10, 65, 62
12, 170480, Note_on_c, 10, 62, 62
12, 170608, Note_on_c, 10, 62, 0
12, 170608, Note_on_c, 10, 65, 0
12, 170640, Note_on_c, 10, 65, 62
12, 170640, Note_on_c, 10, 62, 62
12, 170768, Note_on_c, 10, 62, 0
12, 170768, Note_on_c, 10, 65, 0
12, 170800, Note_on_c, 10, 65, 62
12, 170800, Note_on_c, 10, 62, 62
12, 170928, Note_on_c, 10, 62, 0
12, 170928, Note_on_c, 10, 65, 0
12, 170960, Note_on_c, 10, 62, 62
12, 170960, Note_on_c, 10, 65, 62
12, 171088, Note_on_c, 10, 65, 0
12, 171088, Note_on_c, 10, 62, 0
12, 171120, Note_on_c, 10, 65, 62
12, 171120, Note_on_c, 10, 62, 62
12, 171248, Note_on_c, 10, 62, 0
12, 171248, Note_on_c, 10, 65, 0
12, 171280, Note_on_c, 10, 65, 62
12, 171280, Note_on_c, 10, 62, 62
12, 171408, Note_on_c, 10, 62, 0
12, 171408, Note_on_c, 10, 65, 0
12, 171440, Note_on_c, 10, 62, 62
12, 171440, Note_on_c, 10, 65, 62
12, 171568, Note_on_c, 10, 65, 0
12, 171568, Note_on_c, 10, 62, 0
12, 171600, Note_on_c, 10, 60, 62
12, 171600, Note_on_c, 10, 65, 62
12, 171728, Note_on_c, 10, 65, 0
12, 171728, Note_on_c, 10, 60, 0
12, 171760, Note_on_c, 10, 65, 62
12, 171760, Note_on_c, 10, 60, 62
12, 171888, Note_on_c, 10, 60, 0
12, 171888, Note_on_c, 10, 65, 0
12, 171920, Note_on_c, 10, 60, 62
12, 171920, Note_on_c, 10, 65, 62
12, 172048, Note_on_c, 10, 65, 0
12, 172048, Note_on_c, 10, 60, 0
12, 172080, Note_on_c, 10, 65, 62
12, 172080, Note_on_c, 10, 60, 62
12, 172208, Note_on_c, 10, 60, 0
12, 172208, Note_on_c, 10, 65, 0
12, 172240, Note_on_c, 10, 65, 62
12, 172240, Note_on_c, 10, 60, 62
12, 172368, Note_on_c, 10, 60, 0
12, 172368, Note_on_c, 10, 65, 0
12, 172400, Note_on_c, 10, 65, 62
12, 172400, Note_on_c, 10, 60, 62
12, 172528, Note_on_c, 10, 60, 0
12, 172528, Note_on_c, 10, 65, 0
12, 172560, Note_on_c, 10, 65, 127
12, 172560, Note_on_c, 10, 62, 127
12, 172688, Note_on_c, 10, 62, 0
12, 172688, Note_on_c, 10, 65, 0
12, 172720, Note_on_c, 10, 65, 95
12, 172720, Note_on_c, 10, 62, 95
12, 172848, Note_on_c, 10, 62, 0
12, 172848, Note_on_c, 10, 65, 0
12, 172880, Note_on_c, 10, 65, 95
12, 172880, Note_on_c, 10, 62, 95
12, 173008, Note_on_c, 10, 62, 0
12, 173008, Note_on_c, 10, 65, 0
12, 173040, Note_on_c, 10, 62, 62
12, 173040, Note_on_c, 10, 65, 62
12, 173168, Note_on_c, 10, 65, 0
12, 173168, Note_on_c, 10, 62, 0
12, 173200, Note_on_c, 10, 65, 62
12, 173200, Note_on_c, 10, 62, 62
12, 173328, Note_on_c, 10, 62, 0
12, 173328, Note_on_c, 10, 65, 0
12, 173360, Note_on_c, 10, 65, 62
12, 173360, Note_on_c, 10, 62, 62
12, 173488, Note_on_c, 10, 62, 0
12, 173488, Note_on_c, 10, 65, 0
12, 173520, Note_on_c, 10, 62, 62
12, 173520, Note_on_c, 10, 65, 62
12, 173648, Note_on_c, 10, 65, 0
12, 173648, Note_on_c, 10, 62, 0
12, 173680, Note_on_c, 10, 65, 62
12, 173680, Note_on_c, 10, 62, 62
12, 173808, Note_on_c, 10, 62, 0
12, 173808, Note_on_c, 10, 65, 0
12, 173840, Note_on_c, 10, 62, 62
12, 173840, Note_on_c, 10, 65, 62
12, 173968, Note_on_c, 10, 65, 0
12, 173968, Note_on_c, 10, 62, 0
12, 174000, Note_on_c, 10, 65, 62
12, 174000, Note_on_c, 10, 62, 62
12, 174128, Note_on_c, 10, 62, 0
12, 174128, Note_on_c, 10, 65, 0
12, 174160, Note_on_c, 10, 62, 62
12, 174160, Note_on_c, 10, 65, 62
12, 174288, Note_on_c, 10, 65, 0
12, 174288, Note_on_c, 10, 62, 0
12, 174320, Note_on_c, 10, 62, 62
12, 174320, Note_on_c, 10, 65, 62
12, 174448, Note_on_c, 10, 65, 0
12, 174448, Note_on_c, 10, 62, 0
12, 174480, Note_on_c, 10, 62, 62
12, 174480, Note_on_c, 10, 65, 62
12, 174608, Note_on_c, 10, 65, 0
12, 174608, Note_on_c, 10, 62, 0
12, 174640, Note_on_c, 10, 65, 62
12, 174640, Note_on_c, 10, 62, 62
12, 174768, Note_on_c, 10, 62, 0
12, 174768, Note_on_c, 10, 65, 0
12, 174800, Note_on_c, 10, 62, 62
12, 174800, Note_on_c, 10, 65, 62
12, 174928, Note_on_c, 10, 65, 0
12, 174928, Note_on_c, 10, 62, 0
12, 174960, Note_on_c, 10, 65, 62
12, 174960, Note_on_c, 10, 62, 62
12, 175088, Note_on_c, 10, 62, 0
12, 175088, Note_on_c, 10, 65, 0
12, 175120, Note_on_c, 10, 62, 62
12, 175120, Note_on_c, 10, 65, 62
12, 175248, Note_on_c, 10, 65, 0
12, 175248, Note_on_c, 10, 62, 0
12, 175280, Note_on_c, 10, 62, 62
12, 175280, Note_on_c, 10, 65, 62
12, 175408, Note_on_c, 10, 65, 0
12, 175408, Note_on_c, 10, 62, 0
12, 175440, Note_on_c, 10, 62, 62
12, 175440, Note_on_c, 10, 65, 62
12, 175568, Note_on_c, 10, 65, 0
12, 175568, Note_on_c, 10, 62, 0
12, 175600, Note_on_c, 10, 65, 62
12, 175600, Note_on_c, 10, 62, 62
12, 175728, Note_on_c, 10, 62, 0
12, 175728, Note_on_c, 10, 65, 0
12, 175760, Note_on_c, 10, 62, 62
12, 175760, Note_on_c, 10, 65, 62
12, 175888, Note_on_c, 10, 65, 0
12, 175888, Note_on_c, 10, 62, 0
12, 175920, Note_on_c, 10, 65, 62
12, 175920, Note_on_c, 10, 62, 62
12, 176048, Note_on_c, 10, 62, 0
12, 176048, Note_on_c, 10, 65, 0
12, 176080, Note_on_c, 10, 62, 62
12, 176080, Note_on_c, 10, 65, 62
12, 176208, Note_on_c, 10, 65, 0
12, 176208, Note_on_c, 10, 62, 0
12, 176240, Note_on_c, 10, 65, 62
12, 176240, Note_on_c, 10, 62, 62
12, 176368, Note_on_c, 10, 62, 0
12, 176368, Note_on_c, 10, 65, 0
12, 176400, Note_on_c, 10, 58, 62
12, 176400, Note_on_c, 10, 67, 62
12, 176528, Note_on_c, 10, 67, 0
12, 176528, Note_on_c, 10, 58, 0
12, 176560, Note_on_c, 10, 67, 62
12, 176560, Note_on_c, 10, 58, 62
12, 176688, Note_on_c, 10, 58, 0
12, 176688, Note_on_c, 10, 67, 0
12, 176720, Note_on_c, 10, 67, 62
12, 176720, Note_on_c, 10, 58, 62
12, 176848, Note_on_c, 10, 58, 0
12, 176848, Note_on_c, 10, 67, 0
12, 176880, Note_on_c, 10, 67, 62
12, 176880, Note_on_c, 10, 58, 62
12, 177008, Note_on_c, 10, 58, 0
12, 177008, Note_on_c, 10, 67, 0
12, 177040, Note_on_c, 10, 67, 62
12, 177040, Note_on_c, 10, 58, 62
12, 177168, Note_on_c, 10, 58, 0
12, 177168, Note_on_c, 10, 67, 0
12, 177200, Note_on_c, 10, 67, 62
12, 177200, Note_on_c, 10, 58, 62
12, 177328, Note_on_c, 10, 58, 0
12, 177328, Note_on_c, 10, 67, 0
12, 177360, Note_on_c, 10, 58, 62
12, 177360, Note_on_c, 10, 67, 62
12, 177488, Note_on_c, 10, 67, 0
12, 177488, Note_on_c, 10, 58, 0
12, 177520, Note_on_c, 10, 58, 62
12, 177520, Note_on_c, 10, 67, 62
12, 177648, Note_on_c, 10, 67, 0
12, 177648, Note_on_c, 10, 58, 0
12, 177680, Note_on_c, 10, 67, 62
12, 177680, Note_on_c, 10, 58, 62
12, 177808, Note_on_c, 10, 58, 0
12, 177808, Note_on_c, 10, 67, 0
12, 177840, Note_on_c, 10, 67, 62
12, 177840, Note_on_c, 10, 58, 62
12, 177968, Note_on_c, 10, 58, 0
12, 177968, Note_on_c, 10, 67, 0
12, 178000, Note_on_c, 10, 67, 62
12, 178000, Note_on_c, 10, 58, 62
12, 178128, Note_on_c, 10, 58, 0
12, 178128, Note_on_c, 10, 67, 0
12, 178160, Note_on_c, 10, 67, 62
12, 178160, Note_on_c, 10, 58, 62
12, 178288, Note_on_c, 10, 58, 0
12, 178288, Note_on_c, 10, 67, 0
12, 178320, Note_on_c, 10, 58, 62
12, 178320, Note_on_c, 10, 67, 62
12, 178448, Note_on_c, 10, 67, 0
12, 178448, Note_on_c, 10, 58, 0
12, 178480, Note_on_c, 10, 58, 62
12, 178480, Note_on_c, 10, 67, 62
12, 178608, Note_on_c, 10, 67, 0
12, 178608, Note_on_c, 10, 58, 0
12, 178640, Note_on_c, 10, 67, 62
12, 178640, Note_on_c, 10, 58, 62
12, 178768, Note_on_c, 10, 58, 0
12, 178768, Note_on_c, 10, 67, 0
12, 178800, Note_on_c, 10, 67, 62
12, 178800, Note_on_c, 10, 58, 62
12, 178928, Note_on_c, 10, 58, 0
12, 178928, Note_on_c, 10, 67, 0
12, 178960, Note_on_c, 10, 67, 62
12, 178960, Note_on_c, 10, 58, 62
12, 179088, Note_on_c, 10, 58, 0
12, 179088, Note_on_c, 10, 67, 0
12, 179120, Note_on_c, 10, 67, 62
12, 179120, Note_on_c, 10, 58, 62
12, 179248, Note_on_c, 10, 58, 0
12, 179248, Note_on_c, 10, 67, 0
12, 179280, Note_on_c, 10, 58, 62
12, 179280, Note_on_c, 10, 67, 62
12, 179408, Note_on_c, 10, 67, 0
12, 179408, Note_on_c, 10, 58, 0
12, 179440, Note_on_c, 10, 58, 62
12, 179440, Note_on_c, 10, 67, 62
12, 179568, Note_on_c, 10, 67, 0
12, 179568, Note_on_c, 10, 58, 0
12, 179600, Note_on_c, 10, 67, 62
12, 179600, Note_on_c, 10, 58, 62
12, 179728, Note_on_c, 10, 58, 0
12, 179728, Note_on_c, 10, 67, 0
12, 179760, Note_on_c, 10, 67, 62
12, 179760, Note_on_c, 10, 58, 62
12, 179888, Note_on_c, 10, 58, 0
12, 179888, Note_on_c, 10, 67, 0
12, 179920, Note_on_c, 10, 67, 62
12, 179920, Note_on_c, 10, 58, 62
12, 180048, Note_on_c, 10, 58, 0
12, 180048, Note_on_c, 10, 67, 0
12, 180080, Note_on_c, 10, 67, 62
12, 180080, Note_on_c, 10, 58, 62
12, 180208, Note_on_c, 10, 58, 0
12, 180208, Note_on_c, 10, 67, 0
12, 180240, Note_on_c, 10, 65, 62
12, 180240, Note_on_c, 10, 62, 62
12, 180368, Note_on_c, 10, 62, 0
12, 180368, Note_on_c, 10, 65, 0
12, 180400, Note_on_c, 10, 62, 62
12, 180400, Note_on_c, 10, 65, 62
12, 180528, Note_on_c, 10, 65, 0
12, 180528, Note_on_c, 10, 62, 0
12, 180560, Note_on_c, 10, 62, 62
12, 180560, Note_on_c, 10, 65, 62
12, 180688, Note_on_c, 10, 65, 0
12, 180688, Note_on_c, 10, 62, 0
12, 180720, Note_on_c, 10, 65, 62
12, 180720, Note_on_c, 10, 62, 62
12, 180848, Note_on_c, 10, 62, 0
12, 180848, Note_on_c, 10, 65, 0
12, 180880, Note_on_c, 10, 65, 62
12, 180880, Note_on_c, 10, 62, 62
12, 181008, Note_on_c, 10, 62, 0
12, 181008, Note_on_c, 10, 65, 0
12, 181040, Note_on_c, 10, 62, 62
12, 181040, Note_on_c, 10, 65, 62
12, 181168, Note_on_c, 10, 65, 0
12, 181168, Note_on_c, 10, 62, 0
12, 181200, Note_on_c, 10, 65, 62
12, 181200, Note_on_c, 10, 62, 62
12, 181328, Note_on_c, 10, 62, 0
12, 181328, Note_on_c, 10, 65, 0
12, 181360, Note_on_c, 10, 62, 62
12, 181360, Note_on_c, 10, 65, 62
12, 181488, Note_on_c, 10, 65, 0
12, 181488, Note_on_c, 10, 62, 0
12, 181520, Note_on_c, 10, 65, 62
12, 181520, Note_on_c, 10, 62, 62
12, 181648, Note_on_c, 10, 62, 0
12, 181648, Note_on_c, 10, 65, 0
12, 181680, Note_on_c, 10, 65, 62
12, 181680, Note_on_c, 10, 62, 62
12, 181808, Note_on_c, 10, 62, 0
12, 181808, Note_on_c, 10, 65, 0
12, 181840, Note_on_c, 10, 65, 62
12, 181840, Note_on_c, 10, 62, 62
12, 181968, Note_on_c, 10, 62, 0
12, 181968, Note_on_c, 10, 65, 0
12, 182000, Note_on_c, 10, 65, 62
12, 182000, Note_on_c, 10, 62, 62
12, 182128, Note_on_c, 10, 62, 0
12, 182128, Note_on_c, 10, 65, 0
12, 182160, Note_on_c, 10, 65, 62
12, 182160, Note_on_c, 10, 62, 62
12, 182288, Note_on_c, 10, 62, 0
12, 182288, Note_on_c, 10, 65, 0
12, 182320, Note_on_c, 10, 62, 62
12, 182320, Note_on_c, 10, 65, 62
12, 182448, Note_on_c, 10, 65, 0
12, 182448, Note_on_c, 10, 62, 0
12, 182480, Note_on_c, 10, 62, 62
12, 182480, Note_on_c, 10, 65, 62
12, 182608, Note_on_c, 10, 65, 0
12, 182608, Note_on_c, 10, 62, 0
12, 182640, Note_on_c, 10, 65, 62
12, 182640, Note_on_c, 10, 62, 62
12, 182768, Note_on_c, 10, 62, 0
12, 182768, Note_on_c, 10, 65, 0
12, 182800, Note_on_c, 10, 62, 62
12, 182800, Note_on_c, 10, 65, 62
12, 182928, Note_on_c, 10, 65, 0
12, 182928, Note_on_c, 10, 62, 0
12, 182960, Note_on_c, 10, 65, 62
12, 182960, Note_on_c, 10, 62, 62
12, 183088, Note_on_c, 10, 62, 0
12, 183088, Note_on_c, 10, 65, 0
12, 183120, Note_on_c, 10, 65, 62
12, 183120, Note_on_c, 10, 60, 62
12, 183248, Note_on_c, 10, 60, 0
12, 183248, Note_on_c, 10, 65, 0
12, 183280, Note_on_c, 10, 60, 62
12, 183280, Note_on_c, 10, 65, 62
12, 183408, Note_on_c, 10, 65, 0
12, 183408, Note_on_c, 10, 60, 0
12, 183440, Note_on_c, 10, 60, 62
12, 183440, Note_on_c, 10, 65, 62
12, 183568, Note_on_c, 10, 65, 0
12, 183568, Note_on_c, 10, 60, 0
12, 183600, Note_on_c, 10, 65, 62
12, 183600, Note_on_c, 10, 60, 62
12, 183728, Note_on_c, 10, 60, 0
12, 183728, Note_on_c, 10, 65, 0
12, 183760, Note_on_c, 10, 60, 62
12, 183760, Note_on_c, 10, 65, 62
12, 183888, Note_on_c, 10, 65, 0
12, 183888, Note_on_c, 10, 60, 0
12, 183920, Note_on_c, 10, 65, 62
12, 183920, Note_on_c, 10, 60, 62
12, 184048, Note_on_c, 10, 60, 0
12, 184048, Note_on_c, 10, 65, 0
12, 184080, Note_on_c, 10, 62, 120
12, 184080, Note_on_c, 10, 65, 120
12, 184200, Note_on_c, 10, 65, 0
12, 184200, Note_on_c, 10, 62, 0
12, 184320, Note_on_c, 10, 74, 120
12, 184704, Note_on_c, 10, 74, 0
12, 184800, Note_on_c, 10, 70, 120
12, 184920, Note_on_c, 10, 70, 0
12, 185040, Note_on_c, 10, 65, 120
12, 185160, Note_on_c, 10, 65, 0
12, 185280, Note_on_c, 10, 75, 120
12, 185664, Note_on_c, 10, 75, 0
12, 185760, Note_on_c, 10, 72, 120
12, 185880, Note_on_c, 10, 72, 0
12, 186000, Note_on_c, 10, 65, 120
12, 186120, Note_on_c, 10, 65, 0
12, 186240, Note_on_c, 10, 74, 120
12, 186624, Note_on_c, 10, 74, 0
12, 186720, Note_on_c, 10, 70, 120
12, 186840, Note_on_c, 10, 70, 0
12, 186960, Note_on_c, 10, 65, 120
12, 187080, Note_on_c, 10, 65, 0
12, 187200, Note_on_c, 10, 72, 120
12, 187584, Note_on_c, 10, 72, 0
12, 187680, Note_on_c, 10, 69, 120
12, 187800, Note_on_c, 10, 69, 0
12, 187920, Note_on_c, 10, 70, 120
12, 188040, Note_on_c, 10, 70, 0
12, 188160, Note_on_c, 10, 74, 120
12, 188544, Note_on_c, 10, 74, 0
12, 188640, Note_on_c, 10, 70, 120
12, 188760, Note_on_c, 10, 70, 0
12, 188880, Note_on_c, 10, 65, 120
12, 189000, Note_on_c, 10, 65, 0
12, 189120, Note_on_c, 10, 75, 120
12, 189504, Note_on_c, 10, 75, 0
12, 189600, Note_on_c, 10, 72, 120
12, 189720, Note_on_c, 10, 72, 0
12, 189840, Note_on_c, 10, 65, 120
12, 189960, Note_on_c, 10, 65, 0
12, 190080, Note_on_c, 10, 74, 120
12, 190464, Note_on_c, 10, 74, 0
12, 190560, Note_on_c, 10, 70, 120
12, 190680, Note_on_c, 10, 70, 0
12, 190800, Note_on_c, 10, 65, 120
12, 190920, Note_on_c, 10, 65, 0
12, 191040, Note_on_c, 10, 72, 120
12, 191424, Note_on_c, 10, 72, 0
12, 191520, Note_on_c, 10, 69, 120
12, 191640, Note_on_c, 10, 69, 0
12, 191760, Note_on_c, 10, 74, 120
12, 191880, Note_on_c, 10, 74, 0
12, 192000, Note_on_c, 10, 65, 120
12, 192384, Note_on_c, 10, 65, 0
12, 192480, Note_on_c, 10, 62, 120
12, 192600, Note_on_c, 10, 62, 0
12, 223920, Note_on_c, 10, 62, 32
12, 223956, Note_on_c, 10, 62, 0
12, 224040, Note_on_c, 10, 63, 32
12, 224076, Note_on_c, 10, 63, 0
12, 224160, Note_on_c, 10, 65, 32
12, 224196, Note_on_c, 10, 65, 0
12, 224280, Note_on_c, 10, 62, 32
12, 224316, Note_on_c, 10, 62, 0
12, 224880, Note_on_c, 10, 63, 32
12, 224916, Note_on_c, 10, 63, 0
12, 225000, Note_on_c, 10, 65, 32
12, 225036, Note_on_c, 10, 65, 0
12, 225120, Note_on_c, 10, 66, 32
12, 225156, Note_on_c, 10, 66, 0
12, 225240, Note_on_c, 10, 63, 32
12, 225276, Note_on_c, 10, 63, 0
12, 225840, Note_on_c, 10, 62, 32
12, 225876, Note_on_c, 10, 62, 0
12, 225960, Note_on_c, 10, 63, 32
12, 225996, Note_on_c, 10, 63, 0
12, 226080, Note_on_c, 10, 65, 32
12, 226116, Note_on_c, 10, 65, 0
12, 226200, Note_on_c, 10, 62, 32
12, 226236, Note_on_c, 10, 62, 0
12, 226800, Note_on_c, 10, 62, 35
12, 226836, Note_on_c, 10, 62, 0
12, 226920, Note_on_c, 10, 65, 35
12, 226956, Note_on_c, 10, 65, 0
12, 227280, Note_on_c, 10, 65, 39
12, 227316, Note_on_c, 10, 65, 0
12, 227400, Note_on_c, 10, 70, 39
12, 227436, Note_on_c, 10, 70, 0
12, 227760, Note_on_c, 10, 70, 43
12, 227796, Note_on_c, 10, 70, 0
12, 227880, Note_on_c, 10, 74, 43
12, 227916, Note_on_c, 10, 74, 0
12, 228000, Note_on_c, 10, 77, 43
12, 228036, Note_on_c, 10, 77, 0
12, 228720, Note_on_c, 10, 62, 50
12, 228756, Note_on_c, 10, 62, 0
12, 228840, Note_on_c, 10, 65, 50
12, 228876, Note_on_c, 10, 65, 0
12, 229200, Note_on_c, 10, 65, 56
12, 229236, Note_on_c, 10, 65, 0
12, 229320, Note_on_c, 10, 70, 56
12, 229356, Note_on_c, 10, 70, 0
12, 229680, Note_on_c, 10, 70, 62
12, 229716, Note_on_c, 10, 70, 0
12, 229800, Note_on_c, 10, 74, 62
12, 229836, Note_on_c, 10, 74, 0
12, 229920, Note_on_c, 10, 77, 62
12, 229956, Note_on_c, 10, 77, 0
12, 230640, Note_on_c, 10, 62, 74
12, 230676, Note_on_c, 10, 62, 0
12, 230760, Note_on_c, 10, 65, 74
12, 230796, Note_on_c, 10, 65, 0
12, 230880, Note_on_c, 10, 70, 74
12, 230916, Note_on_c, 10, 70, 0
12, 231000, Note_on_c, 10, 70, 74
12, 231036, Note_on_c, 10, 70, 0
12, 231120, Note_on_c, 10, 68, 74
12, 231156, Note_on_c, 10, 68, 0
12, 231240, Note_on_c, 10, 67, 74
12, 231276, Note_on_c, 10, 67, 0
12, 231360, Note_on_c, 10, 65, 74
12, 231396, Note_on_c, 10, 65, 0
12, 231480, Note_on_c, 10, 63, 74
12, 231516, Note_on_c, 10, 63, 0
12, 231600, Note_on_c, 10, 65, 74
12, 231636, Note_on_c, 10, 65, 0
12, 231720, Note_on_c, 10, 63, 74
12, 231756, Note_on_c, 10, 63, 0
12, 231840, Note_on_c, 10, 62, 89
12, 231876, Note_on_c, 10, 62, 0
12, 231960, Note_on_c, 10, 63, 89
12, 231996, Note_on_c, 10, 63, 0
12, 232080, Note_on_c, 10, 65, 89
12, 232116, Note_on_c, 10, 65, 0
12, 232200, Note_on_c, 10, 67, 89
12, 232236, Note_on_c, 10, 67, 0
12, 232320, Note_on_c, 10, 68, 107
12, 232356, Note_on_c, 10, 68, 0
12, 232440, Note_on_c, 10, 70, 107
12, 232476, Note_on_c, 10, 70, 0
12, 232560, Note_on_c, 10, 72, 107
12, 232596, Note_on_c, 10, 72, 0
12, 232680, Note_on_c, 10, 74, 107
12, 232716, Note_on_c, 10, 74, 0
12, 232800, Note_on_c, 10, 75, 127
12, 232836, Note_on_c, 10, 75, 0
12, 232920, Note_on_c, 10, 77, 127
12, 232956, Note_on_c, 10, 77, 0
12, 233040, Note_on_c, 10, 79, 127
12, 233076, Note_on_c, 10, 79, 0
12, 233160, Note_on_c, 10, 79, 127
12, 233196, Note_on_c, 10, 79, 0
12, 233280, Note_on_c, 10, 80, 127
12, 233316, Note_on_c, 10, 80, 0
12, 233400, Note_on_c, 10, 65, 127
12, 233436, Note_on_c, 10, 65, 0
12, 233520, Note_on_c, 10, 62, 127
12, 233556, Note_on_c, 10, 62, 0
12, 233640, Note_on_c, 10, 65, 127
12, 233676, Note_on_c, 10, 65, 0
12, 233760, Note_on_c, 10, 62, 127
12, 233796, Note_on_c, 10, 62, 0
12, 233880, Note_on_c, 10, 65, 127
12, 233916, Note_on_c, 10, 65, 0
12, 234000, Note_on_c, 10, 62, 127
12, 234036, Note_on_c, 10, 62, 0
12, 234120, Note_on_c, 10, 65, 127
12, 234156, Note_on_c, 10, 65, 0
12, 234240, Note_on_c, 10, 62, 127
12, 234276, Note_on_c, 10, 62, 0
12, 234360, Note_on_c, 10, 74, 127
12, 234396, Note_on_c, 10, 74, 0
12, 234480, Note_on_c, 10, 62, 127
12, 234516, Note_on_c, 10, 62, 0
12, 234600, Note_on_c, 10, 74, 127
12, 234636, Note_on_c, 10, 74, 0
12, 234720, Note_on_c, 10, 62, 127
12, 234756, Note_on_c, 10, 62, 0
12, 234840, Note_on_c, 10, 74, 127
12, 234876, Note_on_c, 10, 74, 0
12, 234960, Note_on_c, 10, 62, 127
12, 234996, Note_on_c, 10, 62, 0
12, 235080, Note_on_c, 10, 74, 127
12, 235116, Note_on_c, 10, 74, 0
12, 238080, Note_on_c, 10, 63, 89
12, 238260, Note_on_c, 10, 63, 0
12, 240000, Note_on_c, 10, 63, 89
12, 240180, Note_on_c, 10, 63, 0
12, 256320, Control_c, 10, 7, 100
12, 257280, Note_on_c, 10, 55, 45
12, 257342, Note_on_c, 10, 55, 0
12, 257520, Note_on_c, 10, 67, 47
12, 257886, Note_on_c, 10, 67, 0
12, 258000, Note_on_c, 10, 70, 50
12, 258370, Note_on_c, 10, 70, 0
12, 258480, Note_on_c, 10, 68, 53
12, 258874, Note_on_c, 10, 68, 0
12, 258960, Note_on_c, 10, 65, 56
12, 259274, Note_on_c, 10, 65, 0
12, 259440, Note_on_c, 10, 67, 59
12, 259756, Note_on_c, 10, 67, 0
12, 259920, Note_on_c, 10, 63, 63
12, 260274, Note_on_c, 10, 63, 0
12, 260400, Note_on_c, 10, 65, 66
12, 260754, Note_on_c, 10, 65, 0
12, 260880, Note_on_c, 10, 58, 69
12, 261224, Note_on_c, 10, 58, 0
12, 261360, Note_on_c, 10, 67, 72
12, 261704, Note_on_c, 10, 67, 0
12, 261840, Note_on_c, 10, 70, 75
12, 262210, Note_on_c, 10, 70, 0
12, 262320, Note_on_c, 10, 68, 78
12, 262674, Note_on_c, 10, 68, 0
12, 262800, Note_on_c, 10, 65, 83
12, 263152, Note_on_c, 10, 65, 0
12, 263280, Note_on_c, 10, 67, 86
12, 263654, Note_on_c, 10, 67, 0
12, 263760, Note_on_c, 10, 70, 89
12, 264096, Note_on_c, 10, 70, 0
12, 264240, Note_on_c, 10, 72, 92
12, 264572, Note_on_c, 10, 72, 0
12, 264720, Note_on_c, 10, 68, 95
12, 265130, Note_on_c, 10, 68, 0
12, 265200, Note_on_c, 10, 58, 102
12, 265522, Note_on_c, 10, 58, 0
12, 265680, Note_on_c, 10, 62, 102
12, 265980, Note_on_c, 10, 62, 0
12, 266160, Note_on_c, 10, 63, 102
12, 266442, Note_on_c, 10, 63, 0
12, 266640, Note_on_c, 10, 60, 102
12, 266952, Note_on_c, 10, 60, 0
12, 267120, Note_on_c, 10, 62, 102
12, 267444, Note_on_c, 10, 62, 0
12, 267600, Note_on_c, 10, 65, 102
12, 267910, Note_on_c, 10, 65, 0
12, 268080, Note_on_c, 10, 67, 127
12, 268390, Note_on_c, 10, 67, 0
12, 268560, Note_on_c, 10, 63, 127
12, 268740, Note_on_c, 10, 63, 0
12, 268800, Note_on_c, 10, 67, 127
12, 268920, Note_on_c, 10, 67, 0
12, 269040, Note_on_c, 10, 67, 127
12, 269492, Note_on_c, 10, 67, 0
12, 269520, Note_on_c, 10, 64, 127
12, 269616, Note_on_c, 10, 64, 0
12, 269760, Note_on_c, 10, 80, 127
12, 269886, Note_on_c, 10, 80, 0
12, 270000, Note_on_c, 10, 77, 127
12, 270120, Note_on_c, 10, 77, 0
12, 270240, Note_on_c, 10, 74, 127
12, 270344, Note_on_c, 10, 74, 0
12, 270480, Note_on_c, 10, 70, 127
12, 270584, Note_on_c, 10, 70, 0
12, 270720, Note_on_c, 10, 68, 127
12, 270824, Note_on_c, 10, 68, 0
12, 270960, Note_on_c, 10, 65, 127
12, 271070, Note_on_c, 10, 65, 0
12, 271200, Note_on_c, 10, 62, 127
12, 271296, Note_on_c, 10, 62, 0
12, 271440, Note_on_c, 10, 58, 127
12, 271536, Note_on_c, 10, 58, 0
12, 271680, Note_on_c, 10, 62, 127
12, 271796, Note_on_c, 10, 62, 0
12, 271920, Note_on_c, 10, 65, 127
12, 272016, Note_on_c, 10, 65, 0
12, 272160, Note_on_c, 10, 68, 127
12, 272272, Note_on_c, 10, 68, 0
12, 272400, Note_on_c, 10, 70, 127
12, 272492, Note_on_c, 10, 70, 0
12, 272640, Note_on_c, 10, 74, 127
12, 272764, Note_on_c, 10, 74, 0
12, 272880, Note_on_c, 10, 77, 127
12, 272996, Note_on_c, 10, 77, 0
12, 273120, Note_on_c, 10, 80, 127
12, 273240, Note_on_c, 10, 80, 0
12, 273360, Note_on_c, 10, 82, 127
12, 273482, Note_on_c, 10, 82, 0
12, 273600, Note_on_c, 10, 80, 127
12, 273720, Note_on_c, 10, 80, 0
12, 273840, Note_on_c, 10, 77, 127
12, 273936, Note_on_c, 10, 77, 0
12, 274080, Note_on_c, 10, 74, 127
12, 274194, Note_on_c, 10, 74, 0
12, 274320, Note_on_c, 10, 70, 127
12, 274416, Note_on_c, 10, 70, 0
12, 274560, Note_on_c, 10, 68, 127
12, 274654, Note_on_c, 10, 68, 0
12, 274800, Note_on_c, 10, 65, 127
12, 274910, Note_on_c, 10, 65, 0
12, 275040, Note_on_c, 10, 62, 127
12, 275136, Note_on_c, 10, 62, 0
12, 275280, Note_on_c, 10, 58, 127
12, 275370, Note_on_c, 10, 58, 0
12, 275520, Note_on_c, 10, 62, 127
12, 275626, Note_on_c, 10, 62, 0
12, 275760, Note_on_c, 10, 65, 127
12, 275856, Note_on_c, 10, 65, 0
12, 276000, Note_on_c, 10, 68, 127
12, 276114, Note_on_c, 10, 68, 0
12, 276240, Note_on_c, 10, 70, 127
12, 276324, Note_on_c, 10, 70, 0
12, 276480, Note_on_c, 10, 74, 127
12, 276606, Note_on_c, 10, 74, 0
12, 276720, Note_on_c, 10, 77, 127
12, 276830, Note_on_c, 10, 77, 0
12, 276960, Note_on_c, 10, 77, 127
12, 277044, Note_on_c, 10, 77, 0
12, 277200, Note_on_c, 10, 80, 127
12, 277296, Note_on_c, 10, 80, 0
12, 277440, Note_on_c, 10, 79, 127
12, 277544, Note_on_c, 10, 79, 0
12, 277680, Note_on_c, 10, 79, 127
12, 278004, Note_on_c, 10, 79, 0
12, 278160, Note_on_c, 10, 75, 127
12, 278244, Note_on_c, 10, 75, 0
12, 278400, Note_on_c, 10, 70, 127
12, 279214, Note_on_c, 10, 70, 0
12, 279360, Note_on_c, 10, 79, 127
12, 279476, Note_on_c, 10, 79, 0
12, 279600, Note_on_c, 10, 79, 127
12, 279922, Note_on_c, 10, 79, 0
12, 280080, Note_on_c, 10, 75, 127
12, 280170, Note_on_c, 10, 75, 0
12, 280320, Note_on_c, 10, 70, 127
12, 281126, Note_on_c, 10, 70, 0
12, 281160, Note_on_c, 10, 75, 127
12, 281218, Note_on_c, 10, 75, 0
12, 281220, Note_on_c, 10, 77, 127
12, 281278, Note_on_c, 10, 77, 0
12, 281280, Note_on_c, 10, 79, 127
12, 281620, Note_on_c, 10, 79, 0
12, 281760, Note_on_c, 10, 75, 127
12, 281852, Note_on_c, 10, 75, 0
12, 282000, Note_on_c, 10, 74, 127
12, 282110, Note_on_c, 10, 74, 0
12, 282240, Note_on_c, 10, 72, 127
12, 282580, Note_on_c, 10, 72, 0
12, 282720, Note_on_c, 10, 72, 127
12, 282824, Note_on_c, 10, 72, 0
12, 282960, Note_on_c, 10, 72, 127
12, 283066, Note_on_c, 10, 72, 0
12, 283200, Note_on_c, 10, 74, 127
12, 283544, Note_on_c, 10, 74, 0
12, 283680, Note_on_c, 10, 74, 127
12, 283776, Note_on_c, 10, 74, 0
12, 283920, Note_on_c, 10, 74, 127
12, 284014, Note_on_c, 10, 74, 0
12, 284160, Note_on_c, 10, 75, 127
12, 284444, Note_on_c, 10, 75, 0
12, 285000, Note_on_c, 10, 75, 127
12, 285058, Note_on_c, 10, 75, 0
12, 285060, Note_on_c, 10, 77, 127
12, 285118, Note_on_c, 10, 77, 0
12, 285120, Note_on_c, 10, 79, 127
12, 285470, Note_on_c, 10, 79, 0
12, 285600, Note_on_c, 10, 75, 127
12, 285702, Note_on_c, 10, 75, 0
12, 285840, Note_on_c, 10, 74, 127
12, 285954, Note_on_c, 10, 74, 0
12, 286080, Note_on_c, 10, 72, 127
12, 286400, Note_on_c, 10, 72, 0
12, 286560, Note_on_c, 10, 72, 127
12, 286646, Note_on_c, 10, 72, 0
12, 286800, Note_on_c, 10, 72, 127
12, 286904, Note_on_c, 10, 72, 0
12, 287040, Note_on_c, 10, 74, 127
12, 287390, Note_on_c, 10, 74, 0
12, 287520, Note_on_c, 10, 74, 127
12, 287616, Note_on_c, 10, 74, 0
12, 287760, Note_on_c, 10, 74, 127
12, 287876, Note_on_c, 10, 74, 0
12, 288000, Note_on_c, 10, 75, 112
12, 288160, Note_on_c, 10, 75, 0
12, 288160, Note_on_c, 10, 75, 106
12, 288320, Note_on_c, 10, 75, 0
12, 288320, Note_on_c, 10, 75, 112
12, 288480, Note_on_c, 10, 75, 0
12, 288480, Note_on_c, 10, 79, 90
12, 288640, Note_on_c, 10, 79, 0
12, 288640, Note_on_c, 10, 79, 98
12, 288800, Note_on_c, 10, 79, 0
12, 288800, Note_on_c, 10, 79, 92
12, 288960, Note_on_c, 10, 79, 0
12, 288960, Note_on_c, 10, 72, 120
12, 289120, Note_on_c, 10, 72, 0
12, 289120, Note_on_c, 10, 72, 127
12, 289280, Note_on_c, 10, 72, 0
12, 289280, Note_on_c, 10, 72, 127
12, 289440, Note_on_c, 10, 72, 0
12, 289440, Note_on_c, 10, 75, 102
12, 289600, Note_on_c, 10, 75, 0
12, 289600, Note_on_c, 10, 75, 106
12, 289760, Note_on_c, 10, 75, 0
12, 289760, Note_on_c, 10, 75, 96
12, 289920, Note_on_c, 10, 75, 0
12, 289920, Note_on_c, 10, 68, 116
12, 290080, Note_on_c, 10, 68, 0
12, 290080, Note_on_c, 10, 68, 116
12, 290240, Note_on_c, 10, 68, 0
12, 290240, Note_on_c, 10, 68, 108
12, 290400, Note_on_c, 10, 68, 0
12, 290400, Note_on_c, 10, 72, 110
12, 290560, Note_on_c, 10, 72, 0
12, 290560, Note_on_c, 10, 72, 120
12, 290720, Note_on_c, 10, 72, 0
12, 290720, Note_on_c, 10, 72, 110
12, 290880, Note_on_c, 10, 72, 0
12, 290880, Note_on_c, 10, 65, 127
12, 291002, Note_on_c, 10, 65, 0
12, 291120, Note_on_c, 10, 68, 127
12, 291242, Note_on_c, 10, 68, 0
12, 291360, Note_on_c, 10, 72, 127
12, 291470, Note_on_c, 10, 72, 0
12, 291600, Note_on_c, 10, 76, 127
12, 291694, Note_on_c, 10, 76, 0
12, 291840, Note_on_c, 10, 77, 112
12, 292000, Note_on_c, 10, 77, 0
12, 292000, Note_on_c, 10, 77, 112
12, 292160, Note_on_c, 10, 77, 0
12, 292160, Note_on_c, 10, 77, 80
12, 292320, Note_on_c, 10, 77, 0
12, 292320, Note_on_c, 10, 80, 90
12, 292480, Note_on_c, 10, 80, 0
12, 292480, Note_on_c, 10, 80, 96
12, 292640, Note_on_c, 10, 80, 0
12, 292640, Note_on_c, 10, 80, 112
12, 292800, Note_on_c, 10, 80, 0
12, 292800, Note_on_c, 10, 74, 114
12, 292960, Note_on_c, 10, 74, 0
12, 292960, Note_on_c, 10, 74, 127
12, 293120, Note_on_c, 10, 74, 0
12, 293120, Note_on_c, 10, 74, 118
12, 293280, Note_on_c, 10, 74, 0
12, 293280, Note_on_c, 10, 77, 106
12, 293440, Note_on_c, 10, 77, 0
12, 293440, Note_on_c, 10, 77, 98
12, 293600, Note_on_c, 10, 77, 0
12, 293600, Note_on_c, 10, 77, 94
12, 293760, Note_on_c, 10, 77, 0
12, 293760, Note_on_c, 10, 70, 118
12, 293920, Note_on_c, 10, 70, 0
12, 293920, Note_on_c, 10, 70, 106
12, 294080, Note_on_c, 10, 70, 0
12, 294080, Note_on_c, 10, 70, 92
12, 294240, Note_on_c, 10, 70, 0
12, 294240, Note_on_c, 10, 74, 72
12, 294400, Note_on_c, 10, 74, 0
12, 294400, Note_on_c, 10, 74, 76
12, 294560, Note_on_c, 10, 74, 0
12, 294560, Note_on_c, 10, 74, 82
12, 294720, Note_on_c, 10, 74, 0
12, 294720, Note_on_c, 10, 67, 127
12, 294882, Note_on_c, 10, 67, 0
12, 294960, Note_on_c, 10, 70, 127
12, 295104, Note_on_c, 10, 70, 0
12, 295200, Note_on_c, 10, 74, 127
12, 295316, Note_on_c, 10, 74, 0
12, 295440, Note_on_c, 10, 78, 127
12, 295542, Note_on_c, 10, 78, 0
12, 295680, Note_on_c, 10, 79, 114
12, 295840, Note_on_c, 10, 79, 0
12, 295840, Note_on_c, 10, 79, 122
12, 296000, Note_on_c, 10, 79, 0
12, 296000, Note_on_c, 10, 79, 122
12, 296160, Note_on_c, 10, 79, 0
12, 296160, Note_on_c, 10, 82, 127
12, 296320, Note_on_c, 10, 82, 0
12, 296320, Note_on_c, 10, 82, 127
12, 296480, Note_on_c, 10, 82, 0
12, 296480, Note_on_c, 10, 82, 127
12, 296640, Note_on_c, 10, 82, 0
12, 296640, Note_on_c, 10, 75, 127
12, 296800, Note_on_c, 10, 75, 0
12, 296800, Note_on_c, 10, 75, 127
12, 296960, Note_on_c, 10, 75, 0
12, 296960, Note_on_c, 10, 75, 127
12, 297120, Note_on_c, 10, 75, 0
12, 297120, Note_on_c, 10, 79, 127
12, 297280, Note_on_c, 10, 79, 0
12, 297280, Note_on_c, 10, 79, 127
12, 297440, Note_on_c, 10, 79, 0
12, 297440, Note_on_c, 10, 79, 127
12, 297600, Note_on_c, 10, 79, 0
12, 297600, Note_on_c, 10, 72, 127
12, 297760, Note_on_c, 10, 72, 0
12, 297760, Note_on_c, 10, 72, 127
12, 297920, Note_on_c, 10, 72, 0
12, 297920, Note_on_c, 10, 72, 127
12, 298080, Note_on_c, 10, 72, 0
12, 298080, Note_on_c, 10, 75, 127
12, 298240, Note_on_c, 10, 75, 0
12, 298240, Note_on_c, 10, 75, 127
12, 298400, Note_on_c, 10, 75, 0
12, 298400, Note_on_c, 10, 75, 127
12, 298560, Note_on_c, 10, 75, 0
12, 298560, Note_on_c, 10, 69, 127
12, 298720, Note_on_c, 10, 69, 0
12, 298720, Note_on_c, 10, 69, 127
12, 298880, Note_on_c, 10, 69, 0
12, 298880, Note_on_c, 10, 69, 122
12, 299040, Note_on_c, 10, 69, 0
12, 299040, Note_on_c, 10, 72, 127
12, 299200, Note_on_c, 10, 72, 0
12, 299200, Note_on_c, 10, 72, 127
12, 299360, Note_on_c, 10, 72, 0
12, 299360, Note_on_c, 10, 72, 127
12, 299520, Note_on_c, 10, 72, 0
12, 299520, Note_on_c, 10, 70, 99
12, 299664, Note_on_c, 10, 70, 0
12, 299760, Note_on_c, 10, 58, 99
12, 299760, Note_on_c, 10, 65, 99
12, 299904, Note_on_c, 10, 65, 0
12, 299904, Note_on_c, 10, 58, 0
12, 300000, Note_on_c, 10, 65, 99
12, 300000, Note_on_c, 10, 58, 99
12, 300144, Note_on_c, 10, 58, 0
12, 300144, Note_on_c, 10, 65, 0
12, 300240, Note_on_c, 10, 58, 99
12, 300240, Note_on_c, 10, 65, 99
12, 300384, Note_on_c, 10, 65, 0
12, 300384, Note_on_c, 10, 58, 0
12, 300480, Note_on_c, 10, 67, 99
12, 300480, Note_on_c, 10, 58, 99
12, 300624, Note_on_c, 10, 58, 0
12, 300624, Note_on_c, 10, 67, 0
12, 300720, Note_on_c, 10, 58, 99
12, 300720, Note_on_c, 10, 67, 99
12, 300864, Note_on_c, 10, 67, 0
12, 300864, Note_on_c, 10, 58, 0
12, 300960, Note_on_c, 10, 58, 99
12, 300960, Note_on_c, 10, 67, 99
12, 301104, Note_on_c, 10, 67, 0
12, 301104, Note_on_c, 10, 58, 0
12, 301200, Note_on_c, 10, 58, 99
12, 301200, Note_on_c, 10, 67, 99
12, 301344, Note_on_c, 10, 67, 0
12, 301344, Note_on_c, 10, 58, 0
12, 301440, Note_on_c, 10, 65, 99
12, 301440, Note_on_c, 10, 58, 99
12, 301584, Note_on_c, 10, 58, 0
12, 301584, Note_on_c, 10, 65, 0
12, 301680, Note_on_c, 10, 65, 99
12, 301680, Note_on_c, 10, 58, 99
12, 301824, Note_on_c, 10, 58, 0
12, 301824, Note_on_c, 10, 65, 0
12, 301920, Note_on_c, 10, 65, 99
12, 301920, Note_on_c, 10, 58, 99
12, 302064, Note_on_c, 10, 58, 0
12, 302064, Note_on_c, 10, 65, 0
12, 302160, Note_on_c, 10, 65, 99
12, 302160, Note_on_c, 10, 58, 99
12, 302304, Note_on_c, 10, 58, 0
12, 302304, Note_on_c, 10, 65, 0
12, 302400, Note_on_c, 10, 63, 99
12, 302400, Note_on_c, 10, 55, 99
12, 302544, Note_on_c, 10, 55, 0
12, 302544, Note_on_c, 10, 63, 0
12, 302640, Note_on_c, 10, 55, 99
12, 302640, Note_on_c, 10, 63, 99
12, 302784, Note_on_c, 10, 63, 0
12, 302784, Note_on_c, 10, 55, 0
12, 302880, Note_on_c, 10, 67, 99
12, 302880, Note_on_c, 10, 58, 99
12, 303024, Note_on_c, 10, 58, 0
12, 303024, Note_on_c, 10, 67, 0
12, 303120, Note_on_c, 10, 67, 99
12, 303120, Note_on_c, 10, 58, 99
12, 303264, Note_on_c, 10, 58, 0
12, 303264, Note_on_c, 10, 67, 0
12, 303360, Note_on_c, 10, 65, 99
12, 303360, Note_on_c, 10, 58, 99
12, 303504, Note_on_c, 10, 58, 0
12, 303504, Note_on_c, 10, 65, 0
12, 303600, Note_on_c, 10, 58, 99
12, 303600, Note_on_c, 10, 65, 99
12, 303744, Note_on_c, 10, 65, 0
12, 303744, Note_on_c, 10, 58, 0
12, 303840, Note_on_c, 10, 65, 99
12, 303840, Note_on_c, 10, 58, 99
12, 303984, Note_on_c, 10, 58, 0
12, 303984, Note_on_c, 10, 65, 0
12, 304080, Note_on_c, 10, 58, 99
12, 304080, Note_on_c, 10, 65, 99
12, 304224, Note_on_c, 10, 65, 0
12, 304224, Note_on_c, 10, 58, 0
12, 304320, Note_on_c, 10, 67, 99
12, 304320, Note_on_c, 10, 58, 99
12, 304464, Note_on_c, 10, 58, 0
12, 304464, Note_on_c, 10, 67, 0
12, 304560, Note_on_c, 10, 58, 99
12, 304560, Note_on_c, 10, 67, 99
12, 304704, Note_on_c, 10, 67, 0
12, 304704, Note_on_c, 10, 58, 0
12, 304800, Note_on_c, 10, 67, 99
12, 304800, Note_on_c, 10, 58, 99
12, 304944, Note_on_c, 10, 58, 0
12, 304944, Note_on_c, 10, 67, 0
12, 305040, Note_on_c, 10, 58, 99
12, 305040, Note_on_c, 10, 67, 99
12, 305184, Note_on_c, 10, 67, 0
12, 305184, Note_on_c, 10, 58, 0
12, 305280, Note_on_c, 10, 65, 99
12, 305280, Note_on_c, 10, 58, 99
12, 305424, Note_on_c, 10, 58, 0
12, 305424, Note_on_c, 10, 65, 0
12, 305520, Note_on_c, 10, 65, 99
12, 305520, Note_on_c, 10, 58, 99
12, 305664, Note_on_c, 10, 58, 0
12, 305664, Note_on_c, 10, 65, 0
12, 305760, Note_on_c, 10, 58, 99
12, 305760, Note_on_c, 10, 65, 99
12, 305904, Note_on_c, 10, 65, 0
12, 305904, Note_on_c, 10, 58, 0
12, 306000, Note_on_c, 10, 58, 99
12, 306000, Note_on_c, 10, 65, 99
12, 306144, Note_on_c, 10, 65, 0
12, 306144, Note_on_c, 10, 58, 0
12, 306240, Note_on_c, 10, 63, 99
12, 306240, Note_on_c, 10, 58, 99
12, 306384, Note_on_c, 10, 58, 0
12, 306384, Note_on_c, 10, 63, 0
12, 306480, Note_on_c, 10, 63, 99
12, 306480, Note_on_c, 10, 58, 99
12, 306624, Note_on_c, 10, 58, 0
12, 306624, Note_on_c, 10, 63, 0
12, 346080, Note_on_c, 10, 60, 99
12, 346176, Note_on_c, 10, 60, 0
12, 346320, Note_on_c, 10, 62, 99
12, 346416, Note_on_c, 10, 62, 0
12, 346560, Note_on_c, 10, 63, 99
12, 346656, Note_on_c, 10, 63, 0
12, 346800, Note_on_c, 10, 65, 99
12, 346896, Note_on_c, 10, 65, 0
12, 347040, Note_on_c, 10, 67, 99
12, 347136, Note_on_c, 10, 67, 0
12, 347280, Note_on_c, 10, 69, 99
12, 347376, Note_on_c, 10, 69, 0
12, 347520, Note_on_c, 10, 70, 99
12, 347712, Note_on_c, 10, 70, 0
12, 348000, Note_on_c, 10, 62, 83
12, 348096, Note_on_c, 10, 62, 0
12, 348240, Note_on_c, 10, 63, 90
12, 348336, Note_on_c, 10, 63, 0
12, 348480, Note_on_c, 10, 65, 98
12, 348576, Note_on_c, 10, 65, 0
12, 348720, Note_on_c, 10, 67, 106
12, 348816, Note_on_c, 10, 67, 0
12, 348960, Note_on_c, 10, 68, 114
12, 349056, Note_on_c, 10, 68, 0
12, 349200, Note_on_c, 10, 70, 121
12, 349296, Note_on_c, 10, 70, 0
12, 349920, Note_on_c, 10, 63, 82
12, 350016, Note_on_c, 10, 63, 0
12, 350160, Note_on_c, 10, 65, 90
12, 350256, Note_on_c, 10, 65, 0
12, 350400, Note_on_c, 10, 67, 97
12, 350496, Note_on_c, 10, 67, 0
12, 350640, Note_on_c, 10, 68, 105
12, 350736, Note_on_c, 10, 68, 0
12, 350880, Note_on_c, 10, 70, 112
12, 350976, Note_on_c, 10, 70, 0
12, 351120, Note_on_c, 10, 72, 120
12, 351216, Note_on_c, 10, 72, 0
12, 351840, Note_on_c, 10, 62, 84
12, 351936, Note_on_c, 10, 62, 0
12, 352080, Note_on_c, 10, 63, 91
12, 352176, Note_on_c, 10, 63, 0
12, 352320, Note_on_c, 10, 65, 98
12, 352416, Note_on_c, 10, 65, 0
12, 352560, Note_on_c, 10, 67, 105
12, 352656, Note_on_c, 10, 67, 0
12, 352800, Note_on_c, 10, 68, 112
12, 352896, Note_on_c, 10, 68, 0
12, 353040, Note_on_c, 10, 70, 119
12, 353136, Note_on_c, 10, 70, 0
12, 353280, Note_on_c, 10, 70, 127
12, 353408, Note_on_c, 10, 70, 0
12, 353440, Note_on_c, 10, 70, 127
12, 353568, Note_on_c, 10, 70, 0
12, 353600, Note_on_c, 10, 70, 127
12, 353728, Note_on_c, 10, 70, 0
12, 353760, Note_on_c, 10, 58, 62
12, 353760, Note_on_c, 10, 63, 62
12, 353888, Note_on_c, 10, 63, 0
12, 353888, Note_on_c, 10, 58, 0
12, 353920, Note_on_c, 10, 63, 62
12, 353920, Note_on_c, 10, 58, 62
12, 354048, Note_on_c, 10, 58, 0
12, 354048, Note_on_c, 10, 63, 0
12, 354080, Note_on_c, 10, 58, 62
12, 354080, Note_on_c, 10, 63, 62
12, 354208, Note_on_c, 10, 63, 0
12, 354208, Note_on_c, 10, 58, 0
12, 354240, Note_on_c, 10, 63, 62
12, 354240, Note_on_c, 10, 58, 62
12, 354368, Note_on_c, 10, 58, 0
12, 354368, Note_on_c, 10, 63, 0
12, 354400, Note_on_c, 10, 63, 62
12, 354400, Note_on_c, 10, 58, 62
12, 354528, Note_on_c, 10, 58, 0
12, 354528, Note_on_c, 10, 63, 0
12, 354560, Note_on_c, 10, 63, 62
12, 354560, Note_on_c, 10, 58, 62
12, 354688, Note_on_c, 10, 58, 0
12, 354688, Note_on_c, 10, 63, 0
12, 354720, Note_on_c, 10, 63, 62
12, 354720, Note_on_c, 10, 58, 62
12, 354848, Note_on_c, 10, 58, 0
12, 354848, Note_on_c, 10, 63, 0
12, 354880, Note_on_c, 10, 58, 62
12, 354880, Note_on_c, 10, 63, 62
12, 355008, Note_on_c, 10, 63, 0
12, 355008, Note_on_c, 10, 58, 0
12, 355040, Note_on_c, 10, 58, 62
12, 355040, Note_on_c, 10, 63, 62
12, 355168, Note_on_c, 10, 63, 0
12, 355168, Note_on_c, 10, 58, 0
12, 355200, Note_on_c, 10, 58, 62
12, 355200, Note_on_c, 10, 63, 62
12, 355328, Note_on_c, 10, 63, 0
12, 355328, Note_on_c, 10, 58, 0
12, 355360, Note_on_c, 10, 63, 62
12, 355360, Note_on_c, 10, 58, 62
12, 355488, Note_on_c, 10, 58, 0
12, 355488, Note_on_c, 10, 63, 0
12, 355520, Note_on_c, 10, 63, 62
12, 355520, Note_on_c, 10, 58, 62
12, 355648, Note_on_c, 10, 58, 0
12, 355648, Note_on_c, 10, 63, 0
12, 355680, Note_on_c, 10, 58, 62
12, 355680, Note_on_c, 10, 63, 62
12, 355808, Note_on_c, 10, 63, 0
12, 355808, Note_on_c, 10, 58, 0
12, 355840, Note_on_c, 10, 58, 62
12, 355840, Note_on_c, 10, 63, 62
12, 355968, Note_on_c, 10, 63, 0
12, 355968, Note_on_c, 10, 58, 0
12, 356000, Note_on_c, 10, 63, 62
12, 356000, Note_on_c, 10, 58, 62
12, 356128, Note_on_c, 10, 58, 0
12, 356128, Note_on_c, 10, 63, 0
12, 356160, Note_on_c, 10, 58, 62
12, 356160, Note_on_c, 10, 63, 62
12, 356288, Note_on_c, 10, 63, 0
12, 356288, Note_on_c, 10, 58, 0
12, 356320, Note_on_c, 10, 63, 62
12, 356320, Note_on_c, 10, 58, 62
12, 356448, Note_on_c, 10, 58, 0
12, 356448, Note_on_c, 10, 63, 0
12, 356480, Note_on_c, 10, 63, 62
12, 356480, Note_on_c, 10, 58, 62
12, 356608, Note_on_c, 10, 58, 0
12, 356608, Note_on_c, 10, 63, 0
12, 356640, Note_on_c, 10, 63, 62
12, 356640, Note_on_c, 10, 58, 62
12, 356768, Note_on_c, 10, 58, 0
12, 356768, Note_on_c, 10, 63, 0
12, 356800, Note_on_c, 10, 63, 62
12, 356800, Note_on_c, 10, 58, 62
12, 356928, Note_on_c, 10, 58, 0
12, 356928, Note_on_c, 10, 63, 0
12, 356960, Note_on_c, 10, 63, 62
12, 356960, Note_on_c, 10, 58, 62
12, 357088, Note_on_c, 10, 58, 0
12, 357088, Note_on_c, 10, 63, 0
12, 357120, Note_on_c, 10, 63, 62
12, 357120, Note_on_c, 10, 56, 62
12, 357248, Note_on_c, 10, 56, 0
12, 357248, Note_on_c, 10, 63, 0
12, 357280, Note_on_c, 10, 63, 62
12, 357280, Note_on_c, 10, 60, 62
12, 357408, Note_on_c, 10, 60, 0
12, 357408, Note_on_c, 10, 63, 0
12, 357440, Note_on_c, 10, 60, 62
12, 357440, Note_on_c, 10, 63, 62
12, 357568, Note_on_c, 10, 63, 0
12, 357568, Note_on_c, 10, 60, 0
12, 357600, Note_on_c, 10, 60, 62
12, 357600, Note_on_c, 10, 63, 62
12, 357728, Note_on_c, 10, 63, 0
12, 357728, Note_on_c, 10, 60, 0
12, 357760, Note_on_c, 10, 60, 62
12, 357760, Note_on_c, 10, 63, 62
12, 357888, Note_on_c, 10, 63, 0
12, 357888, Note_on_c, 10, 60, 0
12, 357920, Note_on_c, 10, 60, 62
12, 357920, Note_on_c, 10, 63, 62
12, 358048, Note_on_c, 10, 63, 0
12, 358048, Note_on_c, 10, 60, 0
12, 358080, Note_on_c, 10, 60, 62
12, 358080, Note_on_c, 10, 63, 62
12, 358208, Note_on_c, 10, 63, 0
12, 358208, Note_on_c, 10, 60, 0
12, 358240, Note_on_c, 10, 60, 62
12, 358240, Note_on_c, 10, 63, 62
12, 358368, Note_on_c, 10, 63, 0
12, 358368, Note_on_c, 10, 60, 0
12, 358400, Note_on_c, 10, 63, 62
12, 358400, Note_on_c, 10, 60, 62
12, 358528, Note_on_c, 10, 60, 0
12, 358528, Note_on_c, 10, 63, 0
12, 358560, Note_on_c, 10, 60, 62
12, 358560, Note_on_c, 10, 63, 62
12, 358688, Note_on_c, 10, 63, 0
12, 358688, Note_on_c, 10, 60, 0
12, 358720, Note_on_c, 10, 60, 62
12, 358720, Note_on_c, 10, 63, 62
12, 358848, Note_on_c, 10, 63, 0
12, 358848, Note_on_c, 10, 60, 0
12, 358880, Note_on_c, 10, 63, 62
12, 358880, Note_on_c, 10, 60, 62
12, 359008, Note_on_c, 10, 60, 0
12, 359008, Note_on_c, 10, 63, 0
12, 359040, Note_on_c, 10, 63, 62
12, 359040, Note_on_c, 10, 60, 62
12, 359168, Note_on_c, 10, 60, 0
12, 359168, Note_on_c, 10, 63, 0
12, 359200, Note_on_c, 10, 63, 62
12, 359200, Note_on_c, 10, 60, 62
12, 359328, Note_on_c, 10, 60, 0
12, 359328, Note_on_c, 10, 63, 0
12, 359360, Note_on_c, 10, 60, 62
12, 359360, Note_on_c, 10, 63, 62
12, 359488, Note_on_c, 10, 63, 0
12, 359488, Note_on_c, 10, 60, 0
12, 359520, Note_on_c, 10, 60, 62
12, 359520, Note_on_c, 10, 63, 62
12, 359648, Note_on_c, 10, 63, 0
12, 359648, Note_on_c, 10, 60, 0
12, 359680, Note_on_c, 10, 63, 62
12, 359680, Note_on_c, 10, 60, 62
12, 359808, Note_on_c, 10, 60, 0
12, 359808, Note_on_c, 10, 63, 0
12, 359840, Note_on_c, 10, 63, 62
12, 359840, Note_on_c, 10, 60, 62
12, 359968, Note_on_c, 10, 60, 0
12, 359968, Note_on_c, 10, 63, 0
12, 360000, Note_on_c, 10, 63, 62
12, 360000, Note_on_c, 10, 72, 62
12, 360128, Note_on_c, 10, 72, 0
12, 360128, Note_on_c, 10, 63, 0
12, 360160, Note_on_c, 10, 72, 62
12, 360160, Note_on_c, 10, 63, 62
12, 360288, Note_on_c, 10, 63, 0
12, 360288, Note_on_c, 10, 72, 0
12, 360320, Note_on_c, 10, 63, 62
12, 360320, Note_on_c, 10, 72, 62
12, 360448, Note_on_c, 10, 72, 0
12, 360448, Note_on_c, 10, 63, 0
12, 360480, Note_on_c, 10, 72, 62
12, 360480, Note_on_c, 10, 63, 62
12, 360608, Note_on_c, 10, 63, 0
12, 360608, Note_on_c, 10, 72, 0
12, 360640, Note_on_c, 10, 63, 62
12, 360640, Note_on_c, 10, 72, 62
12, 360768, Note_on_c, 10, 72, 0
12, 360768, Note_on_c, 10, 63, 0
12, 360800, Note_on_c, 10, 72, 62
12, 360800, Note_on_c, 10, 63, 62
12, 360928, Note_on_c, 10, 63, 0
12, 360928, Note_on_c, 10, 72, 0
12, 360960, Note_on_c, 10, 58, 62
12, 360960, Note_on_c, 10, 63, 62
12, 361088, Note_on_c, 10, 63, 0
12, 361088, Note_on_c, 10, 58, 0
12, 361120, Note_on_c, 10, 63, 62
12, 361120, Note_on_c, 10, 58, 62
12, 361248, Note_on_c, 10, 58, 0
12, 361248, Note_on_c, 10, 63, 0
12, 361280, Note_on_c, 10, 58, 62
12, 361280, Note_on_c, 10, 63, 62
12, 361408, Note_on_c, 10, 63, 0
12, 361408, Note_on_c, 10, 58, 0
12, 361440, Note_on_c, 10, 58, 62
12, 361440, Note_on_c, 10, 63, 62
12, 361568, Note_on_c, 10, 63, 0
12, 361568, Note_on_c, 10, 58, 0
12, 361600, Note_on_c, 10, 58, 62
12, 361600, Note_on_c, 10, 63, 62
12, 361728, Note_on_c, 10, 63, 0
12, 361728, Note_on_c, 10, 58, 0
12, 361760, Note_on_c, 10, 63, 62
12, 361760, Note_on_c, 10, 58, 62
12, 361888, Note_on_c, 10, 58, 0
12, 361888, Note_on_c, 10, 63, 0
12, 361920, Note_on_c, 10, 58, 62
12, 361920, Note_on_c, 10, 63, 62
12, 362048, Note_on_c, 10, 63, 0
12, 362048, Note_on_c, 10, 58, 0
12, 362080, Note_on_c, 10, 63, 62
12, 362080, Note_on_c, 10, 58, 62
12, 362208, Note_on_c, 10, 58, 0
12, 362208, Note_on_c, 10, 63, 0
12, 362240, Note_on_c, 10, 58, 62
12, 362240, Note_on_c, 10, 63, 62
12, 362368, Note_on_c, 10, 63, 0
12, 362368, Note_on_c, 10, 58, 0
12, 362400, Note_on_c, 10, 63, 62
12, 362400, Note_on_c, 10, 58, 62
12, 362528, Note_on_c, 10, 58, 0
12, 362528, Note_on_c, 10, 63, 0
12, 362560, Note_on_c, 10, 58, 62
12, 362560, Note_on_c, 10, 63, 62
12, 362688, Note_on_c, 10, 63, 0
12, 362688, Note_on_c, 10, 58, 0
12, 362720, Note_on_c, 10, 63, 62
12, 362720, Note_on_c, 10, 58, 62
12, 362848, Note_on_c, 10, 58, 0
12, 362848, Note_on_c, 10, 63, 0
12, 362880, Note_on_c, 10, 67, 62
12, 362880, Note_on_c, 10, 70, 62
12, 363008, Note_on_c, 10, 70, 0
12, 363008, Note_on_c, 10, 67, 0
12, 363040, Note_on_c, 10, 70, 62
12, 363040, Note_on_c, 10, 67, 62
12, 363168, Note_on_c, 10, 67, 0
12, 363168, Note_on_c, 10, 70, 0
12, 363200, Note_on_c, 10, 67, 62
12, 363200, Note_on_c, 10, 70, 62
12, 363328, Note_on_c, 10, 70, 0
12, 363328, Note_on_c, 10, 67, 0
12, 363360, Note_on_c, 10, 67, 62
12, 363360, Note_on_c, 10, 70, 62
12, 363488, Note_on_c, 10, 70, 0
12, 363488, Note_on_c, 10, 67, 0
12, 363520, Note_on_c, 10, 70, 62
12, 363520, Note_on_c, 10, 67, 62
12, 363648, Note_on_c, 10, 67, 0
12, 363648, Note_on_c, 10, 70, 0
12, 363680, Note_on_c, 10, 67, 62
12, 363680, Note_on_c, 10, 70, 62
12, 363808, Note_on_c, 10, 70, 0
12, 363808, Note_on_c, 10, 67, 0
12, 363840, Note_on_c, 10, 65, 62
12, 363840, Note_on_c, 10, 70, 62
12, 363968, Note_on_c, 10, 70, 0
12, 363968, Note_on_c, 10, 65, 0
12, 364000, Note_on_c, 10, 65, 62
12, 364000, Note_on_c, 10, 70, 62
12, 364128, Note_on_c, 10, 70, 0
12, 364128, Note_on_c, 10, 65, 0
12, 364160, Note_on_c, 10, 65, 62
12, 364160, Note_on_c, 10, 70, 62
12, 364288, Note_on_c, 10, 70, 0
12, 364288, Note_on_c, 10, 65, 0
12, 364320, Note_on_c, 10, 65, 62
12, 364320, Note_on_c, 10, 70, 62
12, 364448, Note_on_c, 10, 70, 0
12, 364448, Note_on_c, 10, 65, 0
12, 364480, Note_on_c, 10, 65, 62
12, 364480, Note_on_c, 10, 70, 62
12, 364608, Note_on_c, 10, 70, 0
12, 364608, Note_on_c, 10, 65, 0
12, 364640, Note_on_c, 10, 65, 62
12, 364640, Note_on_c, 10, 70, 62
12, 364768, Note_on_c, 10, 70, 0
12, 364768, Note_on_c, 10, 65, 0
12, 364800, Note_on_c, 10, 67, 127
12, 364800, Note_on_c, 10, 70, 127
12, 364928, Note_on_c, 10, 70, 0
12, 364928, Note_on_c, 10, 67, 0
12, 364960, Note_on_c, 10, 58, 95
12, 364960, Note_on_c, 10, 63, 95
12, 365088, Note_on_c, 10, 63, 0
12, 365088, Note_on_c, 10, 58, 0
12, 365120, Note_on_c, 10, 58, 95
12, 365120, Note_on_c, 10, 63, 95
12, 365248, Note_on_c, 10, 63, 0
12, 365248, Note_on_c, 10, 58, 0
12, 365280, Note_on_c, 10, 63, 62
12, 365280, Note_on_c, 10, 58, 62
12, 365408, Note_on_c, 10, 58, 0
12, 365408, Note_on_c, 10, 63, 0
12, 365440, Note_on_c, 10, 63, 62
12, 365440, Note_on_c, 10, 58, 62
12, 365568, Note_on_c, 10, 58, 0
12, 365568, Note_on_c, 10, 63, 0
12, 365600, Note_on_c, 10, 58, 62
12, 365600, Note_on_c, 10, 63, 62
12, 365728, Note_on_c, 10, 63, 0
12, 365728, Note_on_c, 10, 58, 0
12, 365760, Note_on_c, 10, 63, 62
12, 365760, Note_on_c, 10, 58, 62
12, 365888, Note_on_c, 10, 58, 0
12, 365888, Note_on_c, 10, 63, 0
12, 365920, Note_on_c, 10, 63, 62
12, 365920, Note_on_c, 10, 58, 62
12, 366048, Note_on_c, 10, 58, 0
12, 366048, Note_on_c, 10, 63, 0
12, 366080, Note_on_c, 10, 58, 62
12, 366080, Note_on_c, 10, 63, 62
12, 366208, Note_on_c, 10, 63, 0
12, 366208, Note_on_c, 10, 58, 0
12, 366240, Note_on_c, 10, 58, 62
12, 366240, Note_on_c, 10, 63, 62
12, 366368, Note_on_c, 10, 63, 0
12, 366368, Note_on_c, 10, 58, 0
12, 366400, Note_on_c, 10, 63, 62
12, 366400, Note_on_c, 10, 58, 62
12, 366528, Note_on_c, 10, 58, 0
12, 366528, Note_on_c, 10, 63, 0
12, 366560, Note_on_c, 10, 58, 62
12, 366560, Note_on_c, 10, 63, 62
12, 366688, Note_on_c, 10, 63, 0
12, 366688, Note_on_c, 10, 58, 0
12, 366720, Note_on_c, 10, 58, 62
12, 366720, Note_on_c, 10, 63, 62
12, 366848, Note_on_c, 10, 63, 0
12, 366848, Note_on_c, 10, 58, 0
12, 366880, Note_on_c, 10, 63, 62
12, 366880, Note_on_c, 10, 58, 62
12, 367008, Note_on_c, 10, 58, 0
12, 367008, Note_on_c, 10, 63, 0
12, 367040, Note_on_c, 10, 58, 62
12, 367040, Note_on_c, 10, 63, 62
12, 367168, Note_on_c, 10, 63, 0
12, 367168, Note_on_c, 10, 58, 0
12, 367200, Note_on_c, 10, 58, 62
12, 367200, Note_on_c, 10, 63, 62
12, 367328, Note_on_c, 10, 63, 0
12, 367328, Note_on_c, 10, 58, 0
12, 367360, Note_on_c, 10, 63, 62
12, 367360, Note_on_c, 10, 58, 62
12, 367488, Note_on_c, 10, 58, 0
12, 367488, Note_on_c, 10, 63, 0
12, 367520, Note_on_c, 10, 58, 62
12, 367520, Note_on_c, 10, 63, 62
12, 367648, Note_on_c, 10, 63, 0
12, 367648, Note_on_c, 10, 58, 0
12, 367680, Note_on_c, 10, 63, 62
12, 367680, Note_on_c, 10, 58, 62
12, 367808, Note_on_c, 10, 58, 0
12, 367808, Note_on_c, 10, 63, 0
12, 367840, Note_on_c, 10, 58, 62
12, 367840, Note_on_c, 10, 63, 62
12, 367968, Note_on_c, 10, 63, 0
12, 367968, Note_on_c, 10, 58, 0
12, 368000, Note_on_c, 10, 63, 62
12, 368000, Note_on_c, 10, 58, 62
12, 368128, Note_on_c, 10, 58, 0
12, 368128, Note_on_c, 10, 63, 0
12, 368160, Note_on_c, 10, 63, 62
12, 368160, Note_on_c, 10, 58, 62
12, 368288, Note_on_c, 10, 58, 0
12, 368288, Note_on_c, 10, 63, 0
12, 368320, Note_on_c, 10, 58, 62
12, 368320, Note_on_c, 10, 63, 62
12, 368448, Note_on_c, 10, 63, 0
12, 368448, Note_on_c, 10, 58, 0
12, 368480, Note_on_c, 10, 58, 62
12, 368480, Note_on_c, 10, 63, 62
12, 368608, Note_on_c, 10, 63, 0
12, 368608, Note_on_c, 10, 58, 0
12, 368640, Note_on_c, 10, 56, 62
12, 368640, Note_on_c, 10, 63, 62
12, 368768, Note_on_c, 10, 63, 0
12, 368768, Note_on_c, 10, 56, 0
12, 368800, Note_on_c, 10, 60, 62
12, 368800, Note_on_c, 10, 63, 62
12, 368928, Note_on_c, 10, 63, 0
12, 368928, Note_on_c, 10, 60, 0
12, 368960, Note_on_c, 10, 63, 62
12, 368960, Note_on_c, 10, 60, 62
12, 369088, Note_on_c, 10, 60, 0
12, 369088, Note_on_c, 10, 63, 0
12, 369120, Note_on_c, 10, 63, 62
12, 369120, Note_on_c, 10, 60, 62
12, 369248, Note_on_c, 10, 60, 0
12, 369248, Note_on_c, 10, 63, 0
12, 369280, Note_on_c, 10, 60, 62
12, 369280, Note_on_c, 10, 63, 62
12, 369408, Note_on_c, 10, 63, 0
12, 369408, Note_on_c, 10, 60, 0
12, 369440, Note_on_c, 10, 60, 62
12, 369440, Note_on_c, 10, 63, 62
12, 369568, Note_on_c, 10, 63, 0
12, 369568, Note_on_c, 10, 60, 0
12, 369600, Note_on_c, 10, 60, 62
12, 369600, Note_on_c, 10, 63, 62
12, 369728, Note_on_c, 10, 63, 0
12, 369728, Note_on_c, 10, 60, 0
12, 369760, Note_on_c, 10, 63, 62
12, 369760, Note_on_c, 10, 60, 62
12, 369888, Note_on_c, 10, 60, 0
12, 369888, Note_on_c, 10, 63, 0
12, 369920, Note_on_c, 10, 60, 62
12, 369920, Note_on_c, 10, 63, 62
12, 370048, Note_on_c, 10, 63, 0
12, 370048, Note_on_c, 10, 60, 0
12, 370080, Note_on_c, 10, 60, 62
12, 370080, Note_on_c, 10, 63, 62
12, 370208, Note_on_c, 10, 63, 0
12, 370208, Note_on_c, 10, 60, 0
12, 370240, Note_on_c, 10, 63, 62
12, 370240, Note_on_c, 10, 60, 62
12, 370368, Note_on_c, 10, 60, 0
12, 370368, Note_on_c, 10, 63, 0
12, 370400, Note_on_c, 10, 60, 62
12, 370400, Note_on_c, 10, 63, 62
12, 370528, Note_on_c, 10, 63, 0
12, 370528, Note_on_c, 10, 60, 0
12, 370560, Note_on_c, 10, 63, 62
12, 370560, Note_on_c, 10, 60, 62
12, 370688, Note_on_c, 10, 60, 0
12, 370688, Note_on_c, 10, 63, 0
12, 370720, Note_on_c, 10, 63, 62
12, 370720, Note_on_c, 10, 60, 62
12, 370848, Note_on_c, 10, 60, 0
12, 370848, Note_on_c, 10, 63, 0
12, 370880, Note_on_c, 10, 63, 62
12, 370880, Note_on_c, 10, 60, 62
12, 371008, Note_on_c, 10, 60, 0
12, 371008, Note_on_c, 10, 63, 0
12, 371040, Note_on_c, 10, 63, 62
12, 371040, Note_on_c, 10, 60, 62
12, 371168, Note_on_c, 10, 60, 0
12, 371168, Note_on_c, 10, 63, 0
12, 371200, Note_on_c, 10, 60, 62
12, 371200, Note_on_c, 10, 63, 62
12, 371328, Note_on_c, 10, 63, 0
12, 371328, Note_on_c, 10, 60, 0
12, 371360, Note_on_c, 10, 60, 62
12, 371360, Note_on_c, 10, 63, 62
12, 371488, Note_on_c, 10, 63, 0
12, 371488, Note_on_c, 10, 60, 0
12, 371520, Note_on_c, 10, 63, 62
12, 371520, Note_on_c, 10, 60, 62
12, 371648, Note_on_c, 10, 60, 0
12, 371648, Note_on_c, 10, 63, 0
12, 371680, Note_on_c, 10, 63, 62
12, 371680, Note_on_c, 10, 60, 62
12, 371808, Note_on_c, 10, 60, 0
12, 371808, Note_on_c, 10, 63, 0
12, 371840, Note_on_c, 10, 63, 62
12, 371840, Note_on_c, 10, 60, 62
12, 371968, Note_on_c, 10, 60, 0
12, 371968, Note_on_c, 10, 63, 0
12, 372000, Note_on_c, 10, 63, 62
12, 372000, Note_on_c, 10, 60, 62
12, 372128, Note_on_c, 10, 60, 0
12, 372128, Note_on_c, 10, 63, 0
12, 372160, Note_on_c, 10, 63, 62
12, 372160, Note_on_c, 10, 60, 62
12, 372288, Note_on_c, 10, 60, 0
12, 372288, Note_on_c, 10, 63, 0
12, 372320, Note_on_c, 10, 60, 62
12, 372320, Note_on_c, 10, 63, 62
12, 372448, Note_on_c, 10, 63, 0
12, 372448, Note_on_c, 10, 60, 0
12, 372480, Note_on_c, 10, 63, 102
12, 372480, Note_on_c, 10, 55, 62
12, 372608, Note_on_c, 10, 55, 0
12, 372608, Note_on_c, 10, 63, 0
12, 372640, Note_on_c, 10, 63, 62
12, 372640, Note_on_c, 10, 61, 62
12, 372768, Note_on_c, 10, 61, 0
12, 372768, Note_on_c, 10, 63, 0
12, 372800, Note_on_c, 10, 61, 62
12, 372800, Note_on_c, 10, 63, 62
12, 372928, Note_on_c, 10, 63, 0
12, 372928, Note_on_c, 10, 61, 0
12, 372960, Note_on_c, 10, 61, 62
12, 372960, Note_on_c, 10, 63, 62
12, 373088, Note_on_c, 10, 63, 0
12, 373088, Note_on_c, 10, 61, 0
12, 373120, Note_on_c, 10, 61, 62
12, 373120, Note_on_c, 10, 63, 62
12, 373248, Note_on_c, 10, 63, 0
12, 373248, Note_on_c, 10, 61, 0
12, 373280, Note_on_c, 10, 63, 62
12, 373280, Note_on_c, 10, 61, 62
12, 373408, Note_on_c, 10, 61, 0
12, 373408, Note_on_c, 10, 63, 0
12, 373440, Note_on_c, 10, 63, 62
12, 373440, Note_on_c, 10, 61, 62
12, 373568, Note_on_c, 10, 61, 0
12, 373568, Note_on_c, 10, 63, 0
12, 373600, Note_on_c, 10, 63, 62
12, 373600, Note_on_c, 10, 61, 62
12, 373728, Note_on_c, 10, 61, 0
12, 373728, Note_on_c, 10, 63, 0
12, 373760, Note_on_c, 10, 63, 62
12, 373760, Note_on_c, 10, 61, 62
12, 373888, Note_on_c, 10, 61, 0
12, 373888, Note_on_c, 10, 63, 0
12, 373920, Note_on_c, 10, 61, 62
12, 373920, Note_on_c, 10, 63, 62
12, 374048, Note_on_c, 10, 63, 0
12, 374048, Note_on_c, 10, 61, 0
12, 374080, Note_on_c, 10, 61, 62
12, 374080, Note_on_c, 10, 63, 62
12, 374208, Note_on_c, 10, 63, 0
12, 374208, Note_on_c, 10, 61, 0
12, 374240, Note_on_c, 10, 63, 62
12, 374240, Note_on_c, 10, 61, 62
12, 374368, Note_on_c, 10, 61, 0
12, 374368, Note_on_c, 10, 63, 0
12, 374400, Note_on_c, 10, 63, 62
12, 374400, Note_on_c, 10, 61, 62
12, 374528, Note_on_c, 10, 61, 0
12, 374528, Note_on_c, 10, 63, 0
12, 374560, Note_on_c, 10, 61, 62
12, 374560, Note_on_c, 10, 63, 62
12, 374688, Note_on_c, 10, 63, 0
12, 374688, Note_on_c, 10, 61, 0
12, 374720, Note_on_c, 10, 61, 62
12, 374720, Note_on_c, 10, 63, 62
12, 374848, Note_on_c, 10, 63, 0
12, 374848, Note_on_c, 10, 61, 0
12, 374880, Note_on_c, 10, 63, 62
12, 374880, Note_on_c, 10, 61, 62
12, 375008, Note_on_c, 10, 61, 0
12, 375008, Note_on_c, 10, 63, 0
12, 375040, Note_on_c, 10, 63, 62
12, 375040, Note_on_c, 10, 61, 62
12, 375168, Note_on_c, 10, 61, 0
12, 375168, Note_on_c, 10, 63, 0
12, 375200, Note_on_c, 10, 63, 62
12, 375200, Note_on_c, 10, 61, 62
12, 375328, Note_on_c, 10, 61, 0
12, 375328, Note_on_c, 10, 63, 0
12, 375360, Note_on_c, 10, 61, 62
12, 375360, Note_on_c, 10, 63, 62
12, 375488, Note_on_c, 10, 63, 0
12, 375488, Note_on_c, 10, 61, 0
12, 375520, Note_on_c, 10, 63, 62
12, 375520, Note_on_c, 10, 61, 62
12, 375648, Note_on_c, 10, 61, 0
12, 375648, Note_on_c, 10, 63, 0
12, 375680, Note_on_c, 10, 61, 62
12, 375680, Note_on_c, 10, 63, 62
12, 375808, Note_on_c, 10, 63, 0
12, 375808, Note_on_c, 10, 61, 0
12, 375840, Note_on_c, 10, 61, 62
12, 375840, Note_on_c, 10, 63, 62
12, 375968, Note_on_c, 10, 63, 0
12, 375968, Note_on_c, 10, 61, 0
12, 376000, Note_on_c, 10, 63, 62
12, 376000, Note_on_c, 10, 61, 62
12, 376128, Note_on_c, 10, 61, 0
12, 376128, Note_on_c, 10, 63, 0
12, 376160, Note_on_c, 10, 61, 62
12, 376160, Note_on_c, 10, 63, 62
12, 376288, Note_on_c, 10, 63, 0
12, 376288, Note_on_c, 10, 61, 0
12, 376320, Note_on_c, 10, 60, 62
12, 376320, Note_on_c, 10, 63, 102
12, 376448, Note_on_c, 10, 63, 0
12, 376448, Note_on_c, 10, 60, 0
12, 376480, Note_on_c, 10, 63, 62
12, 376480, Note_on_c, 10, 60, 62
12, 376608, Note_on_c, 10, 60, 0
12, 376608, Note_on_c, 10, 63, 0
12, 376640, Note_on_c, 10, 60, 62
12, 376640, Note_on_c, 10, 63, 62
12, 376768, Note_on_c, 10, 63, 0
12, 376768, Note_on_c, 10, 60, 0
12, 376800, Note_on_c, 10, 63, 62
12, 376800, Note_on_c, 10, 60, 62
12, 376928, Note_on_c, 10, 60, 0
12, 376928, Note_on_c, 10, 63, 0
12, 376960, Note_on_c, 10, 60, 62
12, 376960, Note_on_c, 10, 63, 62
12, 377088, Note_on_c, 10, 63, 0
12, 377088, Note_on_c, 10, 60, 0
12, 377120, Note_on_c, 10, 63, 62
12, 377120, Note_on_c, 10, 60, 62
12, 377248, Note_on_c, 10, 60, 0
12, 377248, Note_on_c, 10, 63, 0
12, 377280, Note_on_c, 10, 60, 62
12, 377280, Note_on_c, 10, 63, 62
12, 377408, Note_on_c, 10, 63, 0
12, 377408, Note_on_c, 10, 60, 0
12, 377440, Note_on_c, 10, 63, 62
12, 377440, Note_on_c, 10, 60, 62
12, 377568, Note_on_c, 10, 60, 0
12, 377568, Note_on_c, 10, 63, 0
12, 377600, Note_on_c, 10, 63, 62
12, 377600, Note_on_c, 10, 60, 62
12, 377728, Note_on_c, 10, 60, 0
12, 377728, Note_on_c, 10, 63, 0
12, 377760, Note_on_c, 10, 63, 62
12, 377760, Note_on_c, 10, 60, 62
12, 377888, Note_on_c, 10, 60, 0
12, 377888, Note_on_c, 10, 63, 0
12, 377920, Note_on_c, 10, 60, 62
12, 377920, Note_on_c, 10, 63, 62
12, 378048, Note_on_c, 10, 63, 0
12, 378048, Note_on_c, 10, 60, 0
12, 378080, Note_on_c, 10, 63, 62
12, 378080, Note_on_c, 10, 60, 62
12, 378208, Note_on_c, 10, 60, 0
12, 378208, Note_on_c, 10, 63, 0
12, 378240, Note_on_c, 10, 63, 62
12, 378240, Note_on_c, 10, 65, 62
12, 378368, Note_on_c, 10, 65, 0
12, 378368, Note_on_c, 10, 63, 0
12, 378400, Note_on_c, 10, 65, 62
12, 378400, Note_on_c, 10, 63, 62
12, 378528, Note_on_c, 10, 63, 0
12, 378528, Note_on_c, 10, 65, 0
12, 378560, Note_on_c, 10, 63, 62
12, 378560, Note_on_c, 10, 65, 62
12, 378688, Note_on_c, 10, 65, 0
12, 378688, Note_on_c, 10, 63, 0
12, 378720, Note_on_c, 10, 63, 62
12, 378720, Note_on_c, 10, 65, 62
12, 378848, Note_on_c, 10, 65, 0
12, 378848, Note_on_c, 10, 63, 0
12, 378880, Note_on_c, 10, 63, 62
12, 378880, Note_on_c, 10, 65, 62
12, 379008, Note_on_c, 10, 65, 0
12, 379008, Note_on_c, 10, 63, 0
12, 379040, Note_on_c, 10, 65, 62
12, 379040, Note_on_c, 10, 63, 62
12, 379168, Note_on_c, 10, 63, 0
12, 379168, Note_on_c, 10, 65, 0
12, 379200, Note_on_c, 10, 65, 62
12, 379200, Note_on_c, 10, 63, 62
12, 379328, Note_on_c, 10, 63, 0
12, 379328, Note_on_c, 10, 65, 0
12, 379360, Note_on_c, 10, 65, 62
12, 379360, Note_on_c, 10, 63, 62
12, 379488, Note_on_c, 10, 63, 0
12, 379488, Note_on_c, 10, 65, 0
12, 379520, Note_on_c, 10, 65, 62
12, 379520, Note_on_c, 10, 63, 62
12, 379648, Note_on_c, 10, 63, 0
12, 379648, Note_on_c, 10, 65, 0
12, 379680, Note_on_c, 10, 65, 62
12, 379680, Note_on_c, 10, 63, 62
12, 379808, Note_on_c, 10, 63, 0
12, 379808, Note_on_c, 10, 65, 0
12, 379840, Note_on_c, 10, 63, 62
12, 379840, Note_on_c, 10, 65, 62
12, 379968, Note_on_c, 10, 65, 0
12, 379968, Note_on_c, 10, 63, 0
12, 380000, Note_on_c, 10, 63, 62
12, 380000, Note_on_c, 10, 65, 62
12, 380128, Note_on_c, 10, 65, 0
12, 380128, Note_on_c, 10, 63, 0
12, 380160, Note_on_c, 10, 62, 62
12, 380160, Note_on_c, 10, 65, 102
12, 380288, Note_on_c, 10, 65, 0
12, 380288, Note_on_c, 10, 62, 0
12, 380320, Note_on_c, 10, 62, 62
12, 380320, Note_on_c, 10, 65, 62
12, 380448, Note_on_c, 10, 65, 0
12, 380448, Note_on_c, 10, 62, 0
12, 380480, Note_on_c, 10, 62, 62
12, 380480, Note_on_c, 10, 65, 62
12, 380608, Note_on_c, 10, 65, 0
12, 380608, Note_on_c, 10, 62, 0
12, 380640, Note_on_c, 10, 62, 62
12, 380640, Note_on_c, 10, 65, 62
12, 380768, Note_on_c, 10, 65, 0
12, 380768, Note_on_c, 10, 62, 0
12, 380800, Note_on_c, 10, 62, 62
12, 380800, Note_on_c, 10, 65, 62
12, 380928, Note_on_c, 10, 65, 0
12, 380928, Note_on_c, 10, 62, 0
12, 380960, Note_on_c, 10, 62, 62
12, 380960, Note_on_c, 10, 65, 62
12, 381088, Note_on_c, 10, 65, 0
12, 381088, Note_on_c, 10, 62, 0
12, 381120, Note_on_c, 10, 62, 62
12, 381120, Note_on_c, 10, 65, 62
12, 381248, Note_on_c, 10, 65, 0
12, 381248, Note_on_c, 10, 62, 0
12, 381280, Note_on_c, 10, 62, 62
12, 381280, Note_on_c, 10, 65, 62
12, 381408, Note_on_c, 10, 65, 0
12, 381408, Note_on_c, 10, 62, 0
12, 381440, Note_on_c, 10, 65, 62
12, 381440, Note_on_c, 10, 62, 62
12, 381568, Note_on_c, 10, 62, 0
12, 381568, Note_on_c, 10, 65, 0
12, 381600, Note_on_c, 10, 62, 62
12, 381600, Note_on_c, 10, 65, 62
12, 381728, Note_on_c, 10, 65, 0
12, 381728, Note_on_c, 10, 62, 0
12, 381760, Note_on_c, 10, 62, 62
12, 381760, Note_on_c, 10, 65, 62
12, 381888, Note_on_c, 10, 65, 0
12, 381888, Note_on_c, 10, 62, 0
12, 381920, Note_on_c, 10, 62, 62
12, 381920, Note_on_c, 10, 65, 62
12, 382048, Note_on_c, 10, 65, 0
12, 382048, Note_on_c, 10, 62, 0
12, 382080, Note_on_c, 10, 65, 62
12, 382080, Note_on_c, 10, 62, 62
12, 382208, Note_on_c, 10, 62, 0
12, 382208, Note_on_c, 10, 65, 0
12, 382240, Note_on_c, 10, 62, 62
12, 382240, Note_on_c, 10, 65, 62
12, 382368, Note_on_c, 10, 65, 0
12, 382368, Note_on_c, 10, 62, 0
12, 382400, Note_on_c, 10, 65, 62
12, 382400, Note_on_c, 10, 62, 62
12, 382528, Note_on_c, 10, 62, 0
12, 382528, Note_on_c, 10, 65, 0
12, 382560, Note_on_c, 10, 62, 62
12, 382560, Note_on_c, 10, 65, 62
12, 382688, Note_on_c, 10, 65, 0
12, 382688, Note_on_c, 10, 62, 0
12, 382720, Note_on_c, 10, 62, 62
12, 382720, Note_on_c, 10, 65, 62
12, 382848, Note_on_c, 10, 65, 0
12, 382848, Note_on_c, 10, 62, 0
12, 382880, Note_on_c, 10, 62, 62
12, 382880, Note_on_c, 10, 65, 62
12, 383008, Note_on_c, 10, 65, 0
12, 383008, Note_on_c, 10, 62, 0
12, 383040, Note_on_c, 10, 62, 62
12, 383040, Note_on_c, 10, 65, 62
12, 383168, Note_on_c, 10, 65, 0
12, 383168, Note_on_c, 10, 62, 0
12, 383200, Note_on_c, 10, 65, 62
12, 383200, Note_on_c, 10, 62, 62
12, 383328, Note_on_c, 10, 62, 0
12, 383328, Note_on_c, 10, 65, 0
12, 383360, Note_on_c, 10, 62, 62
12, 383360, Note_on_c, 10, 65, 62
12, 383488, Note_on_c, 10, 65, 0
12, 383488, Note_on_c, 10, 62, 0
12, 383520, Note_on_c, 10, 65, 62
12, 383520, Note_on_c, 10, 62, 62
12, 383648, Note_on_c, 10, 62, 0
12, 383648, Note_on_c, 10, 65, 0
12, 383680, Note_on_c, 10, 65, 62
12, 383680, Note_on_c, 10, 62, 62
12, 383808, Note_on_c, 10, 62, 0
12, 383808, Note_on_c, 10, 65, 0
12, 383840, Note_on_c, 10, 62, 62
12, 383840, Note_on_c, 10, 65, 62
12, 383968, Note_on_c, 10, 65, 0
12, 383968, Note_on_c, 10, 62, 0
12, 384000, Note_on_c, 10, 58, 62
12, 384000, Note_on_c, 10, 68, 62
12, 384128, Note_on_c, 10, 68, 0
12, 384128, Note_on_c, 10, 58, 0
12, 384160, Note_on_c, 10, 80, 62
12, 384160, Note_on_c, 10, 68, 62
12, 384288, Note_on_c, 10, 68, 0
12, 384288, Note_on_c, 10, 80, 0
12, 384320, Note_on_c, 10, 80, 62
12, 384320, Note_on_c, 10, 68, 62
12, 384448, Note_on_c, 10, 68, 0
12, 384448, Note_on_c, 10, 80, 0
12, 384480, Note_on_c, 10, 80, 62
12, 384480, Note_on_c, 10, 74, 62
12, 384608, Note_on_c, 10, 74, 0
12, 384608, Note_on_c, 10, 80, 0
12, 384640, Note_on_c, 10, 80, 62
12, 384640, Note_on_c, 10, 74, 62
12, 384768, Note_on_c, 10, 74, 0
12, 384768, Note_on_c, 10, 80, 0
12, 384800, Note_on_c, 10, 80, 62
12, 384800, Note_on_c, 10, 74, 62
12, 384928, Note_on_c, 10, 74, 0
12, 384928, Note_on_c, 10, 80, 0
12, 384960, Note_on_c, 10, 80, 62
12, 384960, Note_on_c, 10, 74, 62
12, 385088, Note_on_c, 10, 74, 0
12, 385088, Note_on_c, 10, 80, 0
12, 385120, Note_on_c, 10, 80, 62
12, 385120, Note_on_c, 10, 74, 62
12, 385248, Note_on_c, 10, 74, 0
12, 385248, Note_on_c, 10, 80, 0
12, 385280, Note_on_c, 10, 80, 62
12, 385280, Note_on_c, 10, 74, 62
12, 385408, Note_on_c, 10, 74, 0
12, 385408, Note_on_c, 10, 80, 0
12, 385440, Note_on_c, 10, 80, 62
12, 385440, Note_on_c, 10, 74, 62
12, 385568, Note_on_c, 10, 74, 0
12, 385568, Note_on_c, 10, 80, 0
12, 385600, Note_on_c, 10, 80, 62
12, 385600, Note_on_c, 10, 74, 62
12, 385728, Note_on_c, 10, 74, 0
12, 385728, Note_on_c, 10, 80, 0
12, 385760, Note_on_c, 10, 80, 62
12, 385760, Note_on_c, 10, 74, 62
12, 385888, Note_on_c, 10, 74, 0
12, 385888, Note_on_c, 10, 80, 0
12, 385920, Note_on_c, 10, 80, 62
12, 385920, Note_on_c, 10, 70, 62
12, 386048, Note_on_c, 10, 70, 0
12, 386048, Note_on_c, 10, 80, 0
12, 386080, Note_on_c, 10, 80, 62
12, 386080, Note_on_c, 10, 86, 62
12, 386208, Note_on_c, 10, 86, 0
12, 386208, Note_on_c, 10, 80, 0
12, 386240, Note_on_c, 10, 86, 62
12, 386240, Note_on_c, 10, 80, 62
12, 386368, Note_on_c, 10, 80, 0
12, 386368, Note_on_c, 10, 86, 0
12, 386400, Note_on_c, 10, 86, 62
12, 386400, Note_on_c, 10, 80, 62
12, 386528, Note_on_c, 10, 80, 0
12, 386528, Note_on_c, 10, 86, 0
12, 386560, Note_on_c, 10, 80, 62
12, 386560, Note_on_c, 10, 86, 62
12, 386688, Note_on_c, 10, 86, 0
12, 386688, Note_on_c, 10, 80, 0
12, 386720, Note_on_c, 10, 80, 62
12, 386720, Note_on_c, 10, 86, 62
12, 386848, Note_on_c, 10, 86, 0
12, 386848, Note_on_c, 10, 80, 0
12, 386880, Note_on_c, 10, 86, 62
12, 386880, Note_on_c, 10, 80, 62
12, 387008, Note_on_c, 10, 80, 0
12, 387008, Note_on_c, 10, 86, 0
12, 387040, Note_on_c, 10, 80, 62
12, 387040, Note_on_c, 10, 86, 62
12, 387168, Note_on_c, 10, 86, 0
12, 387168, Note_on_c, 10, 80, 0
12, 387200, Note_on_c, 10, 80, 62
12, 387200, Note_on_c, 10, 86, 62
12, 387328, Note_on_c, 10, 86, 0
12, 387328, Note_on_c, 10, 80, 0
12, 387360, Note_on_c, 10, 86, 62
12, 387360, Note_on_c, 10, 80, 62
12, 387488, Note_on_c, 10, 80, 0
12, 387488, Note_on_c, 10, 86, 0
12, 387520, Note_on_c, 10, 86, 62
12, 387520, Note_on_c, 10, 80, 62
12, 387648, Note_on_c, 10, 80, 0
12, 387648, Note_on_c, 10, 86, 0
12, 387680, Note_on_c, 10, 86, 62
12, 387680, Note_on_c, 10, 80, 62
12, 387808, Note_on_c, 10, 80, 0
12, 387808, Note_on_c, 10, 86, 0
12, 387840, Note_on_c, 10, 86, 62
12, 387840, Note_on_c, 10, 80, 62
12, 389760, Note_on_c, 10, 80, 0
12, 389760, Note_on_c, 10, 86, 0
12, 394800, Note_on_c, 10, 58, 20
12, 394872, Note_on_c, 10, 58, 0
12, 395040, Note_on_c, 10, 58, 20
12, 395112, Note_on_c, 10, 58, 0
12, 396000, Note_on_c, 10, 58, 20
12, 396000, Note_on_c, 10, 68, 20
12, 396072, Note_on_c, 10, 68, 0
12, 396072, Note_on_c, 10, 58, 0
12, 396960, Note_on_c, 10, 58, 22
12, 396960, Note_on_c, 10, 68, 22
12, 397032, Note_on_c, 10, 68, 0
12, 397032, Note_on_c, 10, 58, 0
12, 397920, Note_on_c, 10, 58, 24
12, 397920, Note_on_c, 10, 68, 24
12, 397992, Note_on_c, 10, 68, 0
12, 397992, Note_on_c, 10, 58, 0
12, 398880, Note_on_c, 10, 58, 26
12, 398880, Note_on_c, 10, 68, 26
12, 398952, Note_on_c, 10, 68, 0
12, 398952, Note_on_c, 10, 58, 0
12, 403200, Note_on_c, 10, 58, 79
12, 403272, Note_on_c, 10, 58, 0
12, 403440, Note_on_c, 10, 56, 80
12, 403512, Note_on_c, 10, 56, 0
12, 403680, Note_on_c, 10, 55, 82
12, 403752, Note_on_c, 10, 55, 0
12, 403920, Note_on_c, 10, 56, 84
12, 403992, Note_on_c, 10, 56, 0
12, 404160, Note_on_c, 10, 58, 86
12, 404232, Note_on_c, 10, 58, 0
12, 404400, Note_on_c, 10, 60, 87
12, 404472, Note_on_c, 10, 60, 0
12, 404640, Note_on_c, 10, 62, 89
12, 404712, Note_on_c, 10, 62, 0
12, 404880, Note_on_c, 10, 64, 91
12, 404952, Note_on_c, 10, 64, 0
12, 405120, Note_on_c, 10, 65, 93
12, 405192, Note_on_c, 10, 65, 0
12, 405360, Note_on_c, 10, 63, 94
12, 405432, Note_on_c, 10, 63, 0
12, 405600, Note_on_c, 10, 62, 96
12, 405672, Note_on_c, 10, 62, 0
12, 405840, Note_on_c, 10, 63, 98
12, 405912, Note_on_c, 10, 63, 0
12, 406080, Note_on_c, 10, 65, 99
12, 406152, Note_on_c, 10, 65, 0
12, 406320, Note_on_c, 10, 67, 101
12, 406392, Note_on_c, 10, 67, 0
12, 406560, Note_on_c, 10, 69, 103
12, 406632, Note_on_c, 10, 69, 0
12, 406800, Note_on_c, 10, 71, 105
12, 406872, Note_on_c, 10, 71, 0
12, 407040, Note_on_c, 10, 72, 106
12, 407112, Note_on_c, 10, 72, 0
12, 407280, Note_on_c, 10, 74, 108
12, 407352, Note_on_c, 10, 74, 0
12, 407520, Note_on_c, 10, 75, 110
12, 407592, Note_on_c, 10, 75, 0
12, 407760, Note_on_c, 10, 77, 111
12, 407832, Note_on_c, 10, 77, 0
12, 408000, Note_on_c, 10, 79, 113
12, 408072, Note_on_c, 10, 79, 0
12, 408240, Note_on_c, 10, 79, 115
12, 408312, Note_on_c, 10, 79, 0
12, 408480, Note_on_c, 10, 79, 117
12, 408552, Note_on_c, 10, 79, 0
12, 408720, Note_on_c, 10, 79, 118
12, 408792, Note_on_c, 10, 79, 0
12, 408960, Note_on_c, 10, 79, 80
12, 409088, Note_on_c, 10, 79, 0
12, 409120, Note_on_c, 10, 79, 64
12, 409248, Note_on_c, 10, 79, 0
12, 409280, Note_on_c, 10, 79, 64
12, 409408, Note_on_c, 10, 79, 0
12, 409440, Note_on_c, 10, 79, 64
12, 409568, Note_on_c, 10, 79, 0
12, 409600, Note_on_c, 10, 79, 64
12, 409728, Note_on_c, 10, 79, 0
12, 409760, Note_on_c, 10, 79, 64
12, 409888, Note_on_c, 10, 79, 0
12, 409920, Note_on_c, 10, 79, 64
12, 410048, Note_on_c, 10, 79, 0
12, 410080, Note_on_c, 10, 79, 64
12, 410208, Note_on_c, 10, 79, 0
12, 410240, Note_on_c, 10, 79, 64
12, 410368, Note_on_c, 10, 79, 0
12, 410400, Note_on_c, 10, 79, 64
12, 410528, Note_on_c, 10, 79, 0
12, 410560, Note_on_c, 10, 79, 64
12, 410688, Note_on_c, 10, 79, 0
12, 410720, Note_on_c, 10, 79, 64
12, 410848, Note_on_c, 10, 79, 0
12, 410880, Note_on_c, 10, 79, 64
12, 411008, Note_on_c, 10, 79, 0
12, 411040, Note_on_c, 10, 79, 64
12, 411168, Note_on_c, 10, 79, 0
12, 411200, Note_on_c, 10, 79, 64
12, 411328, Note_on_c, 10, 79, 0
12, 411360, Note_on_c, 10, 79, 64
12, 411488, Note_on_c, 10, 79, 0
12, 411520, Note_on_c, 10, 79, 64
12, 411648, Note_on_c, 10, 79, 0
12, 411680, Note_on_c, 10, 79, 64
12, 411808, Note_on_c, 10, 79, 0
12, 411840, Note_on_c, 10, 79, 80
12, 411968, Note_on_c, 10, 79, 0
12, 412000, Note_on_c, 10, 79, 80
12, 412128, Note_on_c, 10, 79, 0
12, 412160, Note_on_c, 10, 79, 80
12, 412288, Note_on_c, 10, 79, 0
12, 412320, Note_on_c, 10, 79, 80
12, 412448, Note_on_c, 10, 79, 0
12, 412480, Note_on_c, 10, 79, 80
12, 412608, Note_on_c, 10, 79, 0
12, 412640, Note_on_c, 10, 79, 80
12, 412768, Note_on_c, 10, 79, 0
12, 412800, Note_on_c, 10, 79, 80
12, 412928, Note_on_c, 10, 79, 0
12, 412960, Note_on_c, 10, 79, 80
12, 413088, Note_on_c, 10, 79, 0
12, 413120, Note_on_c, 10, 79, 80
12, 413248, Note_on_c, 10, 79, 0
12, 413280, Note_on_c, 10, 79, 80
12, 413408, Note_on_c, 10, 79, 0
12, 413440, Note_on_c, 10, 79, 80
12, 413568, Note_on_c, 10, 79, 0
12, 413600, Note_on_c, 10, 79, 80
12, 413728, Note_on_c, 10, 79, 0
12, 413760, Note_on_c, 10, 79, 80
12, 413888, Note_on_c, 10, 79, 0
12, 413920, Note_on_c, 10, 79, 80
12, 414048, Note_on_c, 10, 79, 0
12, 414080, Note_on_c, 10, 79, 80
12, 414208, Note_on_c, 10, 79, 0
12, 414240, Note_on_c, 10, 79, 80
12, 414368, Note_on_c, 10, 79, 0
12, 414400, Note_on_c, 10, 79, 80
12, 414528, Note_on_c, 10, 79, 0
12, 414560, Note_on_c, 10, 79, 80
12, 414688, Note_on_c, 10, 79, 0
12, 414720, Note_on_c, 10, 79, 80
12, 414848, Note_on_c, 10, 79, 0
12, 414880, Note_on_c, 10, 79, 80
12, 415008, Note_on_c, 10, 79, 0
12, 415040, Note_on_c, 10, 79, 80
12, 415168, Note_on_c, 10, 79, 0
12, 415200, Note_on_c, 10, 79, 80
12, 415328, Note_on_c, 10, 79, 0
12, 415360, Note_on_c, 10, 79, 80
12, 415488, Note_on_c, 10, 79, 0
12, 415520, Note_on_c, 10, 79, 80
12, 415648, Note_on_c, 10, 79, 0
12, 415680, Note_on_c, 10, 79, 80
12, 415808, Note_on_c, 10, 79, 0
12, 415840, Note_on_c, 10, 79, 80
12, 415968, Note_on_c, 10, 79, 0
12, 416000, Note_on_c, 10, 79, 80
12, 416128, Note_on_c, 10, 79, 0
12, 416160, Note_on_c, 10, 79, 80
12, 416288, Note_on_c, 10, 79, 0
12, 416320, Note_on_c, 10, 79, 80
12, 416448, Note_on_c, 10, 79, 0
12, 416480, Note_on_c, 10, 79, 80
12, 416608, Note_on_c, 10, 79, 0
12, 416640, Note_on_c, 10, 79, 80
12, 416768, Note_on_c, 10, 79, 0
12, 416800, Note_on_c, 10, 79, 80
12, 416928, Note_on_c, 10, 79, 0
12, 416960, Note_on_c, 10, 79, 80
12, 417088, Note_on_c, 10, 79, 0
12, 417120, Note_on_c, 10, 67, 120
12, 417248, Note_on_c, 10, 67, 0
12, 417280, Note_on_c, 10, 67, 120
12, 417408, Note_on_c, 10, 67, 0
12, 417440, Note_on_c, 10, 67, 120
12, 417568, Note_on_c, 10, 67, 0
12, 417600, Note_on_c, 10, 67, 120
12, 417728, Note_on_c, 10, 67, 0
12, 417760, Note_on_c, 10, 67, 120
12, 417888, Note_on_c, 10, 67, 0
12, 417920, Note_on_c, 10, 67, 120
12, 418048, Note_on_c, 10, 67, 0
12, 418080, Note_on_c, 10, 69, 120
12, 418208, Note_on_c, 10, 69, 0
12, 418240, Note_on_c, 10, 69, 120
12, 418368, Note_on_c, 10, 69, 0
12, 418400, Note_on_c, 10, 69, 120
12, 418528, Note_on_c, 10, 69, 0
12, 418560, Note_on_c, 10, 70, 120
12, 418688, Note_on_c, 10, 70, 0
12, 418720, Note_on_c, 10, 70, 120
12, 418848, Note_on_c, 10, 70, 0
12, 418880, Note_on_c, 10, 70, 120
12, 419008, Note_on_c, 10, 70, 0
12, 419040, Note_on_c, 10, 70, 120
12, 419168, Note_on_c, 10, 70, 0
12, 419200, Note_on_c, 10, 70, 120
12, 419328, Note_on_c, 10, 70, 0
12, 419360, Note_on_c, 10, 70, 120
12, 419488, Note_on_c, 10, 70, 0
12, 419520, Note_on_c, 10, 70, 120
12, 419648, Note_on_c, 10, 70, 0
12, 419680, Note_on_c, 10, 70, 120
12, 419808, Note_on_c, 10, 70, 0
12, 419840, Note_on_c, 10, 70, 120
12, 419968, Note_on_c, 10, 70, 0
12, 420000, Note_on_c, 10, 70, 80
12, 420128, Note_on_c, 10, 70, 0
12, 420160, Note_on_c, 10, 70, 80
12, 420288, Note_on_c, 10, 70, 0
12, 420320, Note_on_c, 10, 70, 80
12, 420448, Note_on_c, 10, 70, 0
12, 420480, Note_on_c, 10, 70, 80
12, 420608, Note_on_c, 10, 70, 0
12, 420640, Note_on_c, 10, 70, 80
12, 420768, Note_on_c, 10, 70, 0
12, 420800, Note_on_c, 10, 70, 80
12, 420928, Note_on_c, 10, 70, 0
12, 420960, Note_on_c, 10, 70, 80
12, 421088, Note_on_c, 10, 70, 0
12, 421120, Note_on_c, 10, 70, 80
12, 421248, Note_on_c, 10, 70, 0
12, 421280, Note_on_c, 10, 70, 80
12, 421408, Note_on_c, 10, 70, 0
12, 421440, Note_on_c, 10, 70, 80
12, 421568, Note_on_c, 10, 70, 0
12, 421600, Note_on_c, 10, 70, 80
12, 421728, Note_on_c, 10, 70, 0
12, 421760, Note_on_c, 10, 70, 80
12, 421888, Note_on_c, 10, 70, 0
12, 421920, Note_on_c, 10, 70, 80
12, 422048, Note_on_c, 10, 70, 0
12, 422080, Note_on_c, 10, 70, 80
12, 422208, Note_on_c, 10, 70, 0
12, 422240, Note_on_c, 10, 70, 80
12, 422368, Note_on_c, 10, 70, 0
12, 422400, Note_on_c, 10, 70, 80
12, 422528, Note_on_c, 10, 70, 0
12, 422560, Note_on_c, 10, 70, 80
12, 422688, Note_on_c, 10, 70, 0
12, 422720, Note_on_c, 10, 70, 80
12, 422848, Note_on_c, 10, 70, 0
12, 422880, Note_on_c, 10, 70, 80
12, 423008, Note_on_c, 10, 70, 0
12, 423040, Note_on_c, 10, 70, 80
12, 423168, Note_on_c, 10, 70, 0
12, 423200, Note_on_c, 10, 70, 80
12, 423328, Note_on_c, 10, 70, 0
12, 423360, Note_on_c, 10, 70, 80
12, 423488, Note_on_c, 10, 70, 0
12, 423520, Note_on_c, 10, 70, 80
12, 423648, Note_on_c, 10, 70, 0
12, 423680, Note_on_c, 10, 70, 80
12, 423808, Note_on_c, 10, 70, 0
12, 423840, Note_on_c, 10, 70, 80
12, 423968, Note_on_c, 10, 70, 0
12, 424000, Note_on_c, 10, 70, 80
12, 424128, Note_on_c, 10, 70, 0
12, 424160, Note_on_c, 10, 70, 80
12, 424288, Note_on_c, 10, 70, 0
12, 424320, Note_on_c, 10, 70, 80
12, 424448, Note_on_c, 10, 70, 0
12, 424480, Note_on_c, 10, 70, 80
12, 424608, Note_on_c, 10, 70, 0
12, 424640, Note_on_c, 10, 70, 80
12, 424768, Note_on_c, 10, 70, 0
12, 424800, Note_on_c, 10, 70, 80
12, 424928, Note_on_c, 10, 70, 0
12, 424960, Note_on_c, 10, 70, 80
12, 425088, Note_on_c, 10, 70, 0
12, 425120, Note_on_c, 10, 70, 80
12, 425248, Note_on_c, 10, 70, 0
12, 425280, Note_on_c, 10, 70, 80
12, 425408, Note_on_c, 10, 70, 0
12, 425440, Note_on_c, 10, 70, 80
12, 425568, Note_on_c, 10, 70, 0
12, 425600, Note_on_c, 10, 70, 80
12, 425728, Note_on_c, 10, 70, 0
12, 425760, Note_on_c, 10, 70, 80
12, 425888, Note_on_c, 10, 70, 0
12, 425920, Note_on_c, 10, 70, 80
12, 426048, Note_on_c, 10, 70, 0
12, 426080, Note_on_c, 10, 70, 80
12, 426208, Note_on_c, 10, 70, 0
12, 426240, Note_on_c, 10, 70, 80
12, 426368, Note_on_c, 10, 70, 0
12, 426400, Note_on_c, 10, 70, 80
12, 426528, Note_on_c, 10, 70, 0
12, 426560, Note_on_c, 10, 70, 80
12, 426688, Note_on_c, 10, 70, 0
12, 426720, Note_on_c, 10, 70, 80
12, 426848, Note_on_c, 10, 70, 0
12, 426880, Note_on_c, 10, 70, 80
12, 427008, Note_on_c, 10, 70, 0
12, 427040, Note_on_c, 10, 70, 80
12, 427168, Note_on_c, 10, 70, 0
12, 427200, Note_on_c, 10, 70, 80
12, 427328, Note_on_c, 10, 70, 0
12, 427360, Note_on_c, 10, 70, 80
12, 427488, Note_on_c, 10, 70, 0
12, 427520, Note_on_c, 10, 70, 80
12, 427648, Note_on_c, 10, 70, 0
12, 427680, Note_on_c, 10, 70, 80
12, 427808, Note_on_c, 10, 70, 0
12, 427840, Note_on_c, 10, 70, 80
12, 427968, Note_on_c, 10, 70, 0
12, 428000, Note_on_c, 10, 70, 80
12, 428128, Note_on_c, 10, 70, 0
12, 428160, Note_on_c, 10, 67, 127
12, 428264, Note_on_c, 10, 67, 0
12, 428400, Note_on_c, 10, 79, 127
12, 428724, Note_on_c, 10, 79, 0
12, 428880, Note_on_c, 10, 75, 127
12, 429048, Note_on_c, 10, 75, 0
12, 429120, Note_on_c, 10, 70, 127
12, 429934, Note_on_c, 10, 70, 0
12, 430080, Note_on_c, 10, 80, 127
12, 430184, Note_on_c, 10, 80, 0
12, 430320, Note_on_c, 10, 80, 127
12, 430644, Note_on_c, 10, 80, 0
12, 430800, Note_on_c, 10, 75, 127
12, 430968, Note_on_c, 10, 75, 0
12, 431040, Note_on_c, 10, 72, 127
12, 431854, Note_on_c, 10, 72, 0
12, 432000, Note_on_c, 10, 75, 127
12, 432240, Note_on_c, 10, 75, 0
12, 432240, Note_on_c, 10, 72, 127
12, 432360, Note_on_c, 10, 72, 0
12, 432480, Note_on_c, 10, 72, 127
12, 432600, Note_on_c, 10, 72, 0
12, 432720, Note_on_c, 10, 72, 127
12, 432840, Note_on_c, 10, 72, 0
12, 432960, Note_on_c, 10, 75, 127
12, 433200, Note_on_c, 10, 75, 0
12, 433200, Note_on_c, 10, 72, 127
12, 433320, Note_on_c, 10, 72, 0
12, 433440, Note_on_c, 10, 72, 127
12, 433560, Note_on_c, 10, 72, 0
12, 433680, Note_on_c, 10, 72, 127
12, 433800, Note_on_c, 10, 72, 0
12, 433920, Note_on_c, 10, 79, 127
12, 434160, Note_on_c, 10, 79, 0
12, 434160, Note_on_c, 10, 70, 127
12, 434280, Note_on_c, 10, 70, 0
12, 434400, Note_on_c, 10, 70, 127
12, 434520, Note_on_c, 10, 70, 0
12, 434640, Note_on_c, 10, 70, 127
12, 434760, Note_on_c, 10, 70, 0
12, 434880, Note_on_c, 10, 77, 127
12, 435120, Note_on_c, 10, 77, 0
12, 435120, Note_on_c, 10, 74, 127
12, 435240, Note_on_c, 10, 74, 0
12, 435360, Note_on_c, 10, 74, 127
12, 435480, Note_on_c, 10, 74, 0
12, 435600, Note_on_c, 10, 74, 127
12, 435720, Note_on_c, 10, 74, 0
12, 435840, Note_on_c, 10, 67, 127
12, 435944, Note_on_c, 10, 67, 0
12, 436080, Note_on_c, 10, 79, 127
12, 436404, Note_on_c, 10, 79, 0
12, 436560, Note_on_c, 10, 75, 127
12, 436728, Note_on_c, 10, 75, 0
12, 436800, Note_on_c, 10, 70, 127
12, 437614, Note_on_c, 10, 70, 0
12, 437760, Note_on_c, 10, 80, 127
12, 437864, Note_on_c, 10, 80, 0
12, 438000, Note_on_c, 10, 80, 127
12, 438324, Note_on_c, 10, 80, 0
12, 438480, Note_on_c, 10, 75, 127
12, 438648, Note_on_c, 10, 75, 0
12, 438720, Note_on_c, 10, 72, 127
12, 439534, Note_on_c, 10, 72, 0
12, 439680, Note_on_c, 10, 75, 127
12, 439920, Note_on_c, 10, 75, 0
12, 439920, Note_on_c, 10, 72, 127
12, 440040, Note_on_c, 10, 72, 0
12, 440160, Note_on_c, 10, 72, 127
12, 440280, Note_on_c, 10, 72, 0
12, 440400, Note_on_c, 10, 72, 127
12, 440520, Note_on_c, 10, 72, 0
12, 440640, Note_on_c, 10, 75, 127
12, 440880, Note_on_c, 10, 75, 0
12, 440880, Note_on_c, 10, 72, 127
12, 441000, Note_on_c, 10, 72, 0
12, 441120, Note_on_c, 10, 72, 127
12, 441240, Note_on_c, 10, 72, 0
12, 441360, Note_on_c, 10, 72, 127
12, 441480, Note_on_c, 10, 72, 0
12, 441600, Note_on_c, 10, 79, 127
12, 441840, Note_on_c, 10, 79, 0
12, 441840, Note_on_c, 10, 70, 127
12, 441960, Note_on_c, 10, 70, 0
12, 442080, Note_on_c, 10, 70, 127
12, 442200, Note_on_c, 10, 70, 0
12, 442320, Note_on_c, 10, 70, 127
12, 442440, Note_on_c, 10, 70, 0
12, 442560, Note_on_c, 10, 77, 127
12, 442800, Note_on_c, 10, 77, 0
12, 442800, Note_on_c, 10, 74, 127
12, 442920, Note_on_c, 10, 74, 0
12, 443040, Note_on_c, 10, 74, 127
12, 443160, Note_on_c, 10, 74, 0
12, 443280, Note_on_c, 10, 74, 127
12, 443400, Note_on_c, 10, 74, 0
12, 443520, Note_on_c, 10, 58, 95
12, 443520, Note_on_c, 10, 67, 95
12, 443712, Note_on_c, 10, 67, 0
12, 443712, Note_on_c, 10, 58, 0
12, 443760, Note_on_c, 10, 67, 95
12, 443760, Note_on_c, 10, 58, 95
12, 443952, Note_on_c, 10, 58, 0
12, 443952, Note_on_c, 10, 67, 0
12, 444000, Note_on_c, 10, 67, 95
12, 444000, Note_on_c, 10, 58, 95
12, 444192, Note_on_c, 10, 58, 0
12, 444192, Note_on_c, 10, 67, 0
12, 444240, Note_on_c, 10, 58, 95
12, 444240, Note_on_c, 10, 67, 95
12, 444432, Note_on_c, 10, 67, 0
12, 444432, Note_on_c, 10, 58, 0
12, 444480, Note_on_c, 10, 58, 95
12, 444480, Note_on_c, 10, 67, 95
12, 444672, Note_on_c, 10, 67, 0
12, 444672, Note_on_c, 10, 58, 0
12, 444720, Note_on_c, 10, 67, 95
12, 444720, Note_on_c, 10, 58, 95
12, 444912, Note_on_c, 10, 58, 0
12, 444912, Note_on_c, 10, 67, 0
12, 444960, Note_on_c, 10, 58, 95
12, 444960, Note_on_c, 10, 67, 95
12, 445152, Note_on_c, 10, 67, 0
12, 445152, Note_on_c, 10, 58, 0
12, 445200, Note_on_c, 10, 58, 95
12, 445200, Note_on_c, 10, 67, 95
12, 445392, Note_on_c, 10, 67, 0
12, 445392, Note_on_c, 10, 58, 0
12, 445440, Note_on_c, 10, 58, 95
12, 445440, Note_on_c, 10, 67, 95
12, 445632, Note_on_c, 10, 67, 0
12, 445632, Note_on_c, 10, 58, 0
12, 445680, Note_on_c, 10, 67, 95
12, 445680, Note_on_c, 10, 58, 95
12, 445872, Note_on_c, 10, 58, 0
12, 445872, Note_on_c, 10, 67, 0
12, 445920, Note_on_c, 10, 58, 95
12, 445920, Note_on_c, 10, 67, 95
12, 446112, Note_on_c, 10, 67, 0
12, 446112, Note_on_c, 10, 58, 0
12, 446160, Note_on_c, 10, 58, 95
12, 446160, Note_on_c, 10, 67, 95
12, 446352, Note_on_c, 10, 67, 0
12, 446352, Note_on_c, 10, 58, 0
12, 446400, Note_on_c, 10, 68, 127
12, 446400, Note_on_c, 10, 58, 95
12, 446592, Note_on_c, 10, 58, 0
12, 446592, Note_on_c, 10, 68, 0
12, 446640, Note_on_c, 10, 68, 95
12, 446640, Note_on_c, 10, 58, 95
12, 446832, Note_on_c, 10, 58, 0
12, 446832, Note_on_c, 10, 68, 0
12, 446880, Note_on_c, 10, 65, 95
12, 446880, Note_on_c, 10, 58, 95
12, 447072, Note_on_c, 10, 58, 0
12, 447072, Note_on_c, 10, 65, 0
12, 447120, Note_on_c, 10, 58, 95
12, 447120, Note_on_c, 10, 65, 95
12, 447312, Note_on_c, 10, 65, 0
12, 447312, Note_on_c, 10, 58, 0
12, 447360, Note_on_c, 10, 58, 95
12, 447360, Note_on_c, 10, 67, 95
12, 447552, Note_on_c, 10, 67, 0
12, 447552, Note_on_c, 10, 58, 0
12, 447600, Note_on_c, 10, 67, 95
12, 447600, Note_on_c, 10, 58, 95
12, 447792, Note_on_c, 10, 58, 0
12, 447792, Note_on_c, 10, 67, 0
12, 447840, Note_on_c, 10, 67, 95
12, 447840, Note_on_c, 10, 58, 95
12, 448032, Note_on_c, 10, 58, 0
12, 448032, Note_on_c, 10, 67, 0
12, 448080, Note_on_c, 10, 58, 95
12, 448080, Note_on_c, 10, 67, 95
12, 448272, Note_on_c, 10, 67, 0
12, 448272, Note_on_c, 10, 58, 0
12, 448320, Note_on_c, 10, 58, 95
12, 448320, Note_on_c, 10, 67, 95
12, 448512, Note_on_c, 10, 67, 0
12, 448512, Note_on_c, 10, 58, 0
12, 448560, Note_on_c, 10, 67, 95
12, 448560, Note_on_c, 10, 58, 95
12, 448752, Note_on_c, 10, 58, 0
12, 448752, Note_on_c, 10, 67, 0
12, 448800, Note_on_c, 10, 58, 95
12, 448800, Note_on_c, 10, 67, 95
12, 448992, Note_on_c, 10, 67, 0
12, 448992, Note_on_c, 10, 58, 0
12, 449040, Note_on_c, 10, 58, 95
12, 449040, Note_on_c, 10, 67, 95
12, 449232, Note_on_c, 10, 67, 0
12, 449232, Note_on_c, 10, 58, 0
12, 449280, Note_on_c, 10, 58, 95
12, 449280, Note_on_c, 10, 67, 95
12, 449472, Note_on_c, 10, 67, 0
12, 449472, Note_on_c, 10, 58, 0
12, 449520, Note_on_c, 10, 67, 95
12, 449520, Note_on_c, 10, 58, 95
12, 449712, Note_on_c, 10, 58, 0
12, 449712, Note_on_c, 10, 67, 0
12, 449760, Note_on_c, 10, 58, 95
12, 449760, Note_on_c, 10, 67, 95
12, 449952, Note_on_c, 10, 67, 0
12, 449952, Note_on_c, 10, 58, 0
12, 450000, Note_on_c, 10, 58, 95
12, 450000, Note_on_c, 10, 67, 95
12, 450192, Note_on_c, 10, 67, 0
12, 450192, Note_on_c, 10, 58, 0
12, 450240, Note_on_c, 10, 58, 95
12, 450240, Note_on_c, 10, 68, 127
12, 450432, Note_on_c, 10, 68, 0
12, 450432, Note_on_c, 10, 58, 0
12, 450480, Note_on_c, 10, 68, 95
12, 450480, Note_on_c, 10, 58, 95
12, 450672, Note_on_c, 10, 58, 0
12, 450672, Note_on_c, 10, 68, 0
12, 450720, Note_on_c, 10, 65, 95
12, 450720, Note_on_c, 10, 58, 95
12, 450912, Note_on_c, 10, 58, 0
12, 450912, Note_on_c, 10, 65, 0
12, 450960, Note_on_c, 10, 58, 95
12, 450960, Note_on_c, 10, 65, 95
12, 451152, Note_on_c, 10, 65, 0
12, 451152, Note_on_c, 10, 58, 0
12, 451200, Note_on_c, 10, 58, 95
12, 451200, Note_on_c, 10, 67, 95
12, 451392, Note_on_c, 10, 67, 0
12, 451392, Note_on_c, 10, 58, 0
12, 451440, Note_on_c, 10, 67, 95
12, 451440, Note_on_c, 10, 58, 95
12, 451632, Note_on_c, 10, 58, 0
12, 451632, Note_on_c, 10, 67, 0
12, 451680, Note_on_c, 10, 67, 95
12, 451680, Note_on_c, 10, 58, 95
12, 451872, Note_on_c, 10, 58, 0
12, 451872, Note_on_c, 10, 67, 0
12, 451920, Note_on_c, 10, 58, 95
12, 451920, Note_on_c, 10, 67, 95
12, 452112, Note_on_c, 10, 67, 0
12, 452112, Note_on_c, 10, 58, 0
12, 452160, Note_on_c, 10, 58, 95
12, 452160, Note_on_c, 10, 67, 95
12, 452352, Note_on_c, 10, 67, 0
12, 452352, Note_on_c, 10, 58, 0
12, 452400, Note_on_c, 10, 67, 95
12, 452400, Note_on_c, 10, 58, 95
12, 452592, Note_on_c, 10, 58, 0
12, 452592, Note_on_c, 10, 67, 0
12, 452640, Note_on_c, 10, 58, 95
12, 452640, Note_on_c, 10, 67, 95
12, 452832, Note_on_c, 10, 67, 0
12, 452832, Note_on_c, 10, 58, 0
12, 452880, Note_on_c, 10, 58, 95
12, 452880, Note_on_c, 10, 67, 95
12, 453072, Note_on_c, 10, 67, 0
12, 453072, Note_on_c, 10, 58, 0
12, 453120, Note_on_c, 10, 58, 95
12, 453120, Note_on_c, 10, 67, 95
12, 453312, Note_on_c, 10, 67, 0
12, 453312, Note_on_c, 10, 58, 0
12, 453360, Note_on_c, 10, 67, 95
12, 453360, Note_on_c, 10, 58, 95
12, 453552, Note_on_c, 10, 58, 0
12, 453552, Note_on_c, 10, 67, 0
12, 453600, Note_on_c, 10, 58, 95
12, 453600, Note_on_c, 10, 67, 95
12, 453792, Note_on_c, 10, 67, 0
12, 453792, Note_on_c, 10, 58, 0
12, 453840, Note_on_c, 10, 58, 95
12, 453840, Note_on_c, 10, 67, 95
12, 454032, Note_on_c, 10, 67, 0
12, 454032, Note_on_c, 10, 58, 0
12, 454080, Note_on_c, 10, 58, 95
12, 454080, Note_on_c, 10, 68, 127
12, 454272, Note_on_c, 10, 68, 0
12, 454272, Note_on_c, 10, 58, 0
12, 454320, Note_on_c, 10, 68, 95
12, 454320, Note_on_c, 10, 58, 95
12, 454512, Note_on_c, 10, 58, 0
12, 454512, Note_on_c, 10, 68, 0
12, 454560, Note_on_c, 10, 65, 95
12, 454560, Note_on_c, 10, 58, 95
12, 454752, Note_on_c, 10, 58, 0
12, 454752, Note_on_c, 10, 65, 0
12, 454800, Note_on_c, 10, 58, 95
12, 454800, Note_on_c, 10, 65, 95
12, 454992, Note_on_c, 10, 65, 0
12, 454992, Note_on_c, 10, 58, 0
12, 455040, Note_on_c, 10, 58, 95
12, 455040, Note_on_c, 10, 67, 95
12, 455232, Note_on_c, 10, 67, 0
12, 455232, Note_on_c, 10, 58, 0
12, 455280, Note_on_c, 10, 67, 95
12, 455280, Note_on_c, 10, 58, 95
12, 455472, Note_on_c, 10, 58, 0
12, 455472, Note_on_c, 10, 67, 0
12, 455520, Note_on_c, 10, 67, 95
12, 455520, Note_on_c, 10, 58, 95
12, 455712, Note_on_c, 10, 58, 0
12, 455712, Note_on_c, 10, 67, 0
12, 455760, Note_on_c, 10, 58, 95
12, 455760, Note_on_c, 10, 67, 95
12, 455952, Note_on_c, 10, 67, 0
12, 455952, Note_on_c, 10, 58, 0
12, 456000, Note_on_c, 10, 58, 95
12, 456000, Note_on_c, 10, 67, 95
12, 456192, Note_on_c, 10, 67, 0
12, 456192, Note_on_c, 10, 58, 0
12, 456240, Note_on_c, 10, 67, 95
12, 456240, Note_on_c, 10, 58, 95
12, 456432, Note_on_c, 10, 58, 0
12, 456432, Note_on_c, 10, 67, 0
12, 456480, Note_on_c, 10, 58, 95
12, 456480, Note_on_c, 10, 67, 95
12, 456672, Note_on_c, 10, 67, 0
12, 456672, Note_on_c, 10, 58, 0
12, 456720, Note_on_c, 10, 58, 95
12, 456720, Note_on_c, 10, 67, 95
12, 456912, Note_on_c, 10, 67, 0
12, 456912, Note_on_c, 10, 58, 0
12, 456960, Note_on_c, 10, 58, 95
12, 456960, Note_on_c, 10, 67, 95
12, 457152, Note_on_c, 10, 67, 0
12, 457152, Note_on_c, 10, 58, 0
12, 457200, Note_on_c, 10, 67, 95
12, 457200, Note_on_c, 10, 58, 95
12, 457392, Note_on_c, 10, 58, 0
12, 457392, Note_on_c, 10, 67, 0
12, 457440, Note_on_c, 10, 58, 95
12, 457440, Note_on_c, 10, 67, 95
12, 457632, Note_on_c, 10, 67, 0
12, 457632, Note_on_c, 10, 58, 0
12, 457680, Note_on_c, 10, 58, 95
12, 457680, Note_on_c, 10, 67, 95
12, 457872, Note_on_c, 10, 67, 0
12, 457872, Note_on_c, 10, 58, 0
12, 457920, Note_on_c, 10, 58, 95
12, 457920, Note_on_c, 10, 68, 127
12, 458112, Note_on_c, 10, 68, 0
12, 458112, Note_on_c, 10, 58, 0
12, 458160, Note_on_c, 10, 68, 95
12, 458160, Note_on_c, 10, 58, 95
12, 458352, Note_on_c, 10, 58, 0
12, 458352, Note_on_c, 10, 68, 0
12, 458400, Note_on_c, 10, 65, 95
12, 458400, Note_on_c, 10, 58, 95
12, 458592, Note_on_c, 10, 58, 0
12, 458592, Note_on_c, 10, 65, 0
12, 458640, Note_on_c, 10, 58, 95
12, 458640, Note_on_c, 10, 65, 95
12, 458832, Note_on_c, 10, 65, 0
12, 458832, Note_on_c, 10, 58, 0
12, 458880, Note_on_c, 10, 58, 80
12, 458880, Note_on_c, 10, 67, 80
12, 459008, Note_on_c, 10, 67, 0
12, 459008, Note_on_c, 10, 58, 0
12, 459040, Note_on_c, 10, 75, 80
12, 459168, Note_on_c, 10, 75, 0
12, 459200, Note_on_c, 10, 75, 80
12, 459328, Note_on_c, 10, 75, 0
12, 459360, Note_on_c, 10, 75, 80
12, 459488, Note_on_c, 10, 75, 0
12, 459520, Note_on_c, 10, 75, 80
12, 459648, Note_on_c, 10, 75, 0
12, 459680, Note_on_c, 10, 75, 80
12, 459808, Note_on_c, 10, 75, 0
12, 459840, Note_on_c, 10, 75, 80
12, 459968, Note_on_c, 10, 75, 0
12, 460000, Note_on_c, 10, 75, 80
12, 460128, Note_on_c, 10, 75, 0
12, 460160, Note_on_c, 10, 75, 80
12, 460288, Note_on_c, 10, 75, 0
12, 460320, Note_on_c, 10, 75, 80
12, 460448, Note_on_c, 10, 75, 0
12, 460480, Note_on_c, 10, 75, 80
12, 460608, Note_on_c, 10, 75, 0
12, 460640, Note_on_c, 10, 75, 80
12, 460768, Note_on_c, 10, 75, 0
12, 460800, Note_on_c, 10, 75, 80
12, 460928, Note_on_c, 10, 75, 0
12, 460960, Note_on_c, 10, 75, 80
12, 461088, Note_on_c, 10, 75, 0
12, 461120, Note_on_c, 10, 75, 80
12, 461248, Note_on_c, 10, 75, 0
12, 461280, Note_on_c, 10, 75, 80
12, 461408, Note_on_c, 10, 75, 0
12, 461440, Note_on_c, 10, 75, 80
12, 461568, Note_on_c, 10, 75, 0
12, 461600, Note_on_c, 10, 75, 80
12, 461728, Note_on_c, 10, 75, 0
12, 461760, Note_on_c, 10, 75, 80
12, 461888, Note_on_c, 10, 75, 0
12, 461920, Note_on_c, 10, 75, 80
12, 462048, Note_on_c, 10, 75, 0
12, 462080, Note_on_c, 10, 75, 80
12, 462208, Note_on_c, 10, 75, 0
12, 462240, Note_on_c, 10, 75, 80
12, 462368, Note_on_c, 10, 75, 0
12, 462400, Note_on_c, 10, 75, 80
12, 462528, Note_on_c, 10, 75, 0
12, 462560, Note_on_c, 10, 75, 80
12, 462688, Note_on_c, 10, 75, 0
12, 462720, Note_on_c, 10, 75, 96
12, 462848, Note_on_c, 10, 75, 0
12, 462880, Note_on_c, 10, 79, 96
12, 462880, Note_on_c, 10, 75, 96
12, 463008, Note_on_c, 10, 75, 0
12, 463008, Note_on_c, 10, 79, 0
12, 463040, Note_on_c, 10, 79, 96
12, 463040, Note_on_c, 10, 75, 96
12, 463168, Note_on_c, 10, 75, 0
12, 463168, Note_on_c, 10, 79, 0
12, 463200, Note_on_c, 10, 75, 96
12, 463200, Note_on_c, 10, 79, 96
12, 463328, Note_on_c, 10, 79, 0
12, 463328, Note_on_c, 10, 75, 0
12, 463360, Note_on_c, 10, 79, 96
12, 463360, Note_on_c, 10, 75, 96
12, 463488, Note_on_c, 10, 75, 0
12, 463488, Note_on_c, 10, 79, 0
12, 463520, Note_on_c, 10, 79, 96
12, 463520, Note_on_c, 10, 75, 96
12, 463648, Note_on_c, 10, 75, 0
12, 463648, Note_on_c, 10, 79, 0
12, 463680, Note_on_c, 10, 79, 96
12, 463680, Note_on_c, 10, 75, 96
12, 463808, Note_on_c, 10, 75, 0
12, 463808, Note_on_c, 10, 79, 0
12, 463840, Note_on_c, 10, 75, 96
12, 463840, Note_on_c, 10, 79, 96
12, 463968, Note_on_c, 10, 79, 0
12, 463968, Note_on_c, 10, 75, 0
12, 464000, Note_on_c, 10, 75, 96
12, 464000, Note_on_c, 10, 79, 96
12, 464128, Note_on_c, 10, 79, 0
12, 464128, Note_on_c, 10, 75, 0
12, 464160, Note_on_c, 10, 79, 96
12, 464160, Note_on_c, 10, 75, 96
12, 464288, Note_on_c, 10, 75, 0
12, 464288, Note_on_c, 10, 79, 0
12, 464320, Note_on_c, 10, 79, 96
12, 464320, Note_on_c, 10, 75, 96
12, 464448, Note_on_c, 10, 75, 0
12, 464448, Note_on_c, 10, 79, 0
12, 464480, Note_on_c, 10, 79, 96
12, 464480, Note_on_c, 10, 75, 96
12, 464608, Note_on_c, 10, 75, 0
12, 464608, Note_on_c, 10, 79, 0
12, 464640, Note_on_c, 10, 75, 96
12, 464640, Note_on_c, 10, 79, 96
12, 464768, Note_on_c, 10, 79, 0
12, 464768, Note_on_c, 10, 75, 0
12, 464800, Note_on_c, 10, 75, 96
12, 464800, Note_on_c, 10, 79, 96
12, 464928, Note_on_c, 10, 79, 0
12, 464928, Note_on_c, 10, 75, 0
12, 464960, Note_on_c, 10, 75, 96
12, 464960, Note_on_c, 10, 79, 96
12, 465088, Note_on_c, 10, 79, 0
12, 465088, Note_on_c, 10, 75, 0
12, 465120, Note_on_c, 10, 75, 96
12, 465120, Note_on_c, 10, 79, 96
12, 465248, Note_on_c, 10, 79, 0
12, 465248, Note_on_c, 10, 75, 0
12, 465280, Note_on_c, 10, 75, 96
12, 465280, Note_on_c, 10, 79, 96
12, 465408, Note_on_c, 10, 79, 0
12, 465408, Note_on_c, 10, 75, 0
12, 465440, Note_on_c, 10, 75, 96
12, 465440, Note_on_c, 10, 79, 96
12, 465568, Note_on_c, 10, 79, 0
12, 465568, Note_on_c, 10, 75, 0
12, 465600, Note_on_c, 10, 75, 96
12, 465600, Note_on_c, 10, 79, 96
12, 465728, Note_on_c, 10, 79, 0
12, 465728, Note_on_c, 10, 75, 0
12, 465760, Note_on_c, 10, 75, 96
12, 465760, Note_on_c, 10, 79, 96
12, 465888, Note_on_c, 10, 79, 0
12, 465888, Note_on_c, 10, 75, 0
12, 465920, Note_on_c, 10, 75, 96
12, 465920, Note_on_c, 10, 79, 96
12, 466048, Note_on_c, 10, 79, 0
12, 466048, Note_on_c, 10, 75, 0
12, 466080, Note_on_c, 10, 75, 96
12, 466080, Note_on_c, 10, 79, 96
12, 466208, Note_on_c, 10, 79, 0
12, 466208, Note_on_c, 10, 75, 0
12, 466240, Note_on_c, 10, 79, 96
12, 466240, Note_on_c, 10, 75, 96
12, 466368, Note_on_c, 10, 75, 0
12, 466368, Note_on_c, 10, 79, 0
12, 466400, Note_on_c, 10, 79, 96
12, 466400, Note_on_c, 10, 75, 96
12, 466528, Note_on_c, 10, 75, 0
12, 466528, Note_on_c, 10, 79, 0
12, 466560, Note_on_c, 10, 75, 115
12, 466560, Note_on_c, 10, 79, 115
12, 466688, Note_on_c, 10, 79, 0
12, 466688, Note_on_c, 10, 75, 0
12, 466720, Note_on_c, 10, 75, 115
12, 466720, Note_on_c, 10, 79, 115
12, 466848, Note_on_c, 10, 79, 0
12, 466848, Note_on_c, 10, 75, 0
12, 466880, Note_on_c, 10, 75, 115
12, 466880, Note_on_c, 10, 79, 115
12, 467008, Note_on_c, 10, 79, 0
12, 467008, Note_on_c, 10, 75, 0
12, 467040, Note_on_c, 10, 75, 115
12, 467040, Note_on_c, 10, 79, 115
12, 467168, Note_on_c, 10, 79, 0
12, 467168, Note_on_c, 10, 75, 0
12, 467200, Note_on_c, 10, 79, 115
12, 467200, Note_on_c, 10, 75, 115
12, 467328, Note_on_c, 10, 75, 0
12, 467328, Note_on_c, 10, 79, 0
12, 467360, Note_on_c, 10, 79, 115
12, 467360, Note_on_c, 10, 75, 115
12, 467488, Note_on_c, 10, 75, 0
12, 467488, Note_on_c, 10, 79, 0
12, 467520, Note_on_c, 10, 79, 115
12, 467520, Note_on_c, 10, 75, 115
12, 467648, Note_on_c, 10, 75, 0
12, 467648, Note_on_c, 10, 79, 0
12, 467680, Note_on_c, 10, 75, 115
12, 467680, Note_on_c, 10, 79, 115
12, 467808, Note_on_c, 10, 79, 0
12, 467808, Note_on_c, 10, 75, 0
12, 467840, Note_on_c, 10, 75, 115
12, 467840, Note_on_c, 10, 79, 115
12, 467968, Note_on_c, 10, 79, 0
12, 467968, Note_on_c, 10, 75, 0
12, 468000, Note_on_c, 10, 75, 115
12, 468000, Note_on_c, 10, 79, 115
12, 468128, Note_on_c, 10, 79, 0
12, 468128, Note_on_c, 10, 75, 0
12, 468160, Note_on_c, 10, 79, 115
12, 468160, Note_on_c, 10, 75, 115
12, 468288, Note_on_c, 10, 75, 0
12, 468288, Note_on_c, 10, 79, 0
12, 468320, Note_on_c, 10, 75, 115
12, 468320, Note_on_c, 10, 79, 115
12, 468448, Note_on_c, 10, 79, 0
12, 468448, Note_on_c, 10, 75, 0
12, 468480, Note_on_c, 10, 79, 115
12, 468480, Note_on_c, 10, 75, 115
12, 468608, Note_on_c, 10, 75, 0
12, 468608, Note_on_c, 10, 79, 0
12, 468640, Note_on_c, 10, 75, 115
12, 468640, Note_on_c, 10, 79, 115
12, 468768, Note_on_c, 10, 79, 0
12, 468768, Note_on_c, 10, 75, 0
12, 468800, Note_on_c, 10, 75, 115
12, 468800, Note_on_c, 10, 79, 115
12, 468928, Note_on_c, 10, 79, 0
12, 468928, Note_on_c, 10, 75, 0
12, 468960, Note_on_c, 10, 79, 115
12, 468960, Note_on_c, 10, 75, 115
12, 469088, Note_on_c, 10, 75, 0
12, 469088, Note_on_c, 10, 79, 0
12, 469120, Note_on_c, 10, 79, 115
12, 469120, Note_on_c, 10, 75, 115
12, 469248, Note_on_c, 10, 75, 0
12, 469248, Note_on_c, 10, 79, 0
12, 469280, Note_on_c, 10, 75, 115
12, 469280, Note_on_c, 10, 79, 115
12, 469408, Note_on_c, 10, 79, 0
12, 469408, Note_on_c, 10, 75, 0
12, 469440, Note_on_c, 10, 75, 115
12, 469440, Note_on_c, 10, 79, 115
12, 469568, Note_on_c, 10, 79, 0
12, 469568, Note_on_c, 10, 75, 0
12, 469600, Note_on_c, 10, 75, 115
12, 469600, Note_on_c, 10, 79, 115
12, 469728, Note_on_c, 10, 79, 0
12, 469728, Note_on_c, 10, 75, 0
12, 469760, Note_on_c, 10, 75, 115
12, 469760, Note_on_c, 10, 79, 115
12, 469888, Note_on_c, 10, 79, 0
12, 469888, Note_on_c, 10, 75, 0
12, 469920, Note_on_c, 10, 75, 115
12, 469920, Note_on_c, 10, 79, 115
12, 470048, Note_on_c, 10, 79, 0
12, 470048, Note_on_c, 10, 75, 0
12, 470080, Note_on_c, 10, 79, 115
12, 470080, Note_on_c, 10, 75, 115
12, 470208, Note_on_c, 10, 75, 0
12, 470208, Note_on_c, 10, 79, 0
12, 470240, Note_on_c, 10, 79, 115
12, 470240, Note_on_c, 10, 75, 115
12, 470368, Note_on_c, 10, 75, 0
12, 470368, Note_on_c, 10, 79, 0
12, 470400, Note_on_c, 10, 75, 127
12, 470400, Note_on_c, 10, 79, 127
12, 470528, Note_on_c, 10, 79, 0
12, 470528, Note_on_c, 10, 75, 0
12, 470560, Note_on_c, 10, 87, 127
12, 470560, Note_on_c, 10, 79, 127
12, 470688, Note_on_c, 10, 79, 0
12, 470688, Note_on_c, 10, 87, 0
12, 470720, Note_on_c, 10, 87, 127
12, 470720, Note_on_c, 10, 79, 127
12, 470848, Note_on_c, 10, 79, 0
12, 470848, Note_on_c, 10, 87, 0
12, 470880, Note_on_c, 10, 79, 127
12, 470880, Note_on_c, 10, 87, 127
12, 471008, Note_on_c, 10, 87, 0
12, 471008, Note_on_c, 10, 79, 0
12, 471040, Note_on_c, 10, 79, 127
12, 471040, Note_on_c, 10, 87, 127
12, 471168, Note_on_c, 10, 87, 0
12, 471168, Note_on_c, 10, 79, 0
12, 471200, Note_on_c, 10, 79, 127
12, 471200, Note_on_c, 10, 87, 127
12, 471328, Note_on_c, 10, 87, 0
12, 471328, Note_on_c, 10, 79, 0
12, 471360, Note_on_c, 10, 87, 127
12, 471360, Note_on_c, 10, 79, 127
12, 471488, Note_on_c, 10, 79, 0
12, 471488, Note_on_c, 10, 87, 0
12, 471520, Note_on_c, 10, 87, 127
12, 471520, Note_on_c, 10, 79, 127
12, 471648, Note_on_c, 10, 79, 0
12, 471648, Note_on_c, 10, 87, 0
12, 471680, Note_on_c, 10, 79, 127
12, 471680, Note_on_c, 10, 87, 127
12, 471808, Note_on_c, 10, 87, 0
12, 471808, Note_on_c, 10, 79, 0
12, 471840, Note_on_c, 10, 87, 127
12, 471840, Note_on_c, 10, 79, 127
12, 471968, Note_on_c, 10, 79, 0
12, 471968, Note_on_c, 10, 87, 0
12, 472000, Note_on_c, 10, 87, 127
12, 472000, Note_on_c, 10, 79, 127
12, 472128, Note_on_c, 10, 79, 0
12, 472128, Note_on_c, 10, 87, 0
12, 472160, Note_on_c, 10, 79, 127
12, 472160, Note_on_c, 10, 87, 127
12, 472288, Note_on_c, 10, 87, 0
12, 472288, Note_on_c, 10, 79, 0
12, 472320, Note_on_c, 10, 87, 127
12, 472320, Note_on_c, 10, 79, 127
12, 472448, Note_on_c, 10, 79, 0
12, 472448, Note_on_c, 10, 87, 0
12, 472480, Note_on_c, 10, 87, 127
12, 472480, Note_on_c, 10, 79, 127
12, 472608, Note_on_c, 10, 79, 0
12, 472608, Note_on_c, 10, 87, 0
12, 472640, Note_on_c, 10, 87, 127
12, 472640, Note_on_c, 10, 79, 127
12, 472768, Note_on_c, 10, 79, 0
12, 472768, Note_on_c, 10, 87, 0
12, 472800, Note_on_c, 10, 79, 127
12, 472800, Note_on_c, 10, 87, 127
12, 472928, Note_on_c, 10, 87, 0
12, 472928, Note_on_c, 10, 79, 0
12, 472960, Note_on_c, 10, 87, 127
12, 472960, Note_on_c, 10, 79, 127
12, 473088, Note_on_c, 10, 79, 0
12, 473088, Note_on_c, 10, 87, 0
12, 473120, Note_on_c, 10, 79, 127
12, 473120, Note_on_c, 10, 87, 127
12, 473248, Note_on_c, 10, 87, 0
12, 473248, Note_on_c, 10, 79, 0
12, 473280, Note_on_c, 10, 87, 127
12, 473280, Note_on_c, 10, 79, 127
12, 473408, Note_on_c, 10, 79, 0
12, 473408, Note_on_c, 10, 87, 0
12, 473440, Note_on_c, 10, 87, 127
12, 473440, Note_on_c, 10, 79, 127
12, 473568, Note_on_c, 10, 79, 0
12, 473568, Note_on_c, 10, 87, 0
12, 473600, Note_on_c, 10, 87, 127
12, 473600, Note_on_c, 10, 79, 127
12, 473728, Note_on_c, 10, 79, 0
12, 473728, Note_on_c, 10, 87, 0
12, 473760, Note_on_c, 10, 87, 127
12, 473760, Note_on_c, 10, 79, 127
12, 473888, Note_on_c, 10, 79, 0
12, 473888, Note_on_c, 10, 87, 0
12, 473920, Note_on_c, 10, 79, 127
12, 473920, Note_on_c, 10, 87, 127
12, 474048, Note_on_c, 10, 87, 0
12, 474048, Note_on_c, 10, 79, 0
12, 474080, Note_on_c, 10, 79, 127
12, 474080, Note_on_c, 10, 87, 127
12, 474208, Note_on_c, 10, 87, 0
12, 474208, Note_on_c, 10, 79, 0
12, 474240, Note_on_c, 10, 77, 127
12, 474344, Note_on_c, 10, 77, 0
12, 474480, Note_on_c, 10, 80, 127
12, 474804, Note_on_c, 10, 80, 0
12, 474960, Note_on_c, 10, 77, 127
12, 475044, Note_on_c, 10, 77, 0
12, 475200, Note_on_c, 10, 70, 127
12, 476014, Note_on_c, 10, 70, 0
12, 478320, Note_on_c, 10, 77, 127
12, 478424, Note_on_c, 10, 77, 0
12, 478560, Note_on_c, 10, 80, 127
12, 478884, Note_on_c, 10, 80, 0
12, 479040, Note_on_c, 10, 77, 127
12, 479124, Note_on_c, 10, 77, 0
12, 479280, Note_on_c, 10, 70, 127
12, 480094, Note_on_c, 10, 70, 0
12, 481440, Control_c, 10, 7, 120
12, 482400, Note_on_c, 10, 77, 127
12, 482504, Note_on_c, 10, 77, 0
12, 482640, Note_on_c, 10, 89, 102
12, 482724, Note_on_c, 10, 89, 0
12, 482880, Note_on_c, 10, 89, 102
12, 482964, Note_on_c, 10, 89, 0
12, 483120, Note_on_c, 10, 86, 102
12, 483204, Note_on_c, 10, 86, 0
12, 483360, Note_on_c, 10, 77, 127
12, 483464, Note_on_c, 10, 77, 0
12, 483600, Note_on_c, 10, 89, 102
12, 483684, Note_on_c, 10, 89, 0
12, 483840, Note_on_c, 10, 89, 102
12, 483924, Note_on_c, 10, 89, 0
12, 484080, Note_on_c, 10, 86, 102
12, 484164, Note_on_c, 10, 86, 0
12, 484320, Note_on_c, 10, 77, 127
12, 484424, Note_on_c, 10, 77, 0
12, 484560, Note_on_c, 10, 89, 102
12, 484644, Note_on_c, 10, 89, 0
12, 484800, Note_on_c, 10, 89, 102
12, 484884, Note_on_c, 10, 89, 0
12, 485040, Note_on_c, 10, 86, 102
12, 485124, Note_on_c, 10, 86, 0
12, 485280, Note_on_c, 10, 77, 127
12, 485384, Note_on_c, 10, 77, 0
12, 485520, Note_on_c, 10, 89, 102
12, 485604, Note_on_c, 10, 89, 0
12, 485760, Note_on_c, 10, 89, 102
12, 485844, Note_on_c, 10, 89, 0
12, 486000, Note_on_c, 10, 86, 102
12, 486084, Note_on_c, 10, 86, 0
12, 486240, Note_on_c, 10, 87, 127
12, 486456, Note_on_c, 10, 87, 0
12, 486720, Note_on_c, 10, 87, 127
12, 486936, Note_on_c, 10, 87, 0
12, 487200, Note_on_c, 10, 87, 127
12, 487416, Note_on_c, 10, 87, 0
12, 487680, Note_on_c, 10, 87, 127
12, 487896, Note_on_c, 10, 87, 0
12, 488160, Note_on_c, 10, 87, 127
12, 488376, Note_on_c, 10, 87, 0
12, 488640, Note_on_c, 10, 87, 127
12, 488856, Note_on_c, 10, 87, 0
12, 489120, Note_on_c, 10, 87, 127
12, 489336, Note_on_c, 10, 87, 0
12, 489600, Note_on_c, 10, 87, 127
12, 489816, Note_on_c, 10, 87, 0
12, 490080, Note_on_c, 10, 87, 127
12, 490296, Note_on_c, 10, 87, 0
12, 492000, Note_on_c, 10, 55, 127
12, 492216, Note_on_c, 10, 55, 0
12, 493920, Note_on_c, 10, 55, 127
12, 494136, Note_on_c, 10, 55, 0
12, 495000, Note_on_c, 10, 55, 127
12, 495216, Note_on_c, 10, 55, 0
12, 496080, Note_on_c, 10, 55, 127
12, 496296, Note_on_c, 10, 55, 0
12, 497160, Note_on_c, 10, 55, 127
12, 497376, Note_on_c, 10, 55, 0
12, 498360, Note_on_c, 10, 55, 127
12, 498576, Note_on_c, 10, 55, 0
12, 498576, End_track
13, 0, Start_track
13, 0, Title_t, "Violas              "
13, 0, Program_c, 11, 48
13, 0, Control_c, 11, 7, 100
13, 0, Control_c, 11, 10, 41
13, 2880, Control_c, 11, 93, 100
13, 2880, Control_c, 11, 91, 100
13, 9600, Note_on_c, 11, 53, 81
13, 11342, Note_on_c, 11, 53, 0
13, 11520, Note_on_c, 11, 48, 127
13, 13210, Note_on_c, 11, 48, 0
13, 25920, Note_on_c, 11, 55, 81
13, 27662, Note_on_c, 11, 55, 0
13, 27840, Note_on_c, 11, 50, 98
13, 29530, Note_on_c, 11, 50, 0
13, 44880, Control_c, 11, 7, 100
13, 45840, Note_on_c, 11, 51, 89
13, 45840, Note_on_c, 11, 55, 89
13, 45990, Note_on_c, 11, 55, 0
13, 45990, Note_on_c, 11, 51, 0
13, 47760, Note_on_c, 11, 51, 89
13, 47760, Note_on_c, 11, 55, 89
13, 47910, Note_on_c, 11, 55, 0
13, 47910, Note_on_c, 11, 51, 0
13, 64080, Control_c, 11, 7, 100
13, 65040, Note_on_c, 11, 63, 50
13, 65184, Note_on_c, 11, 63, 0
13, 65280, Note_on_c, 11, 58, 50
13, 65424, Note_on_c, 11, 58, 0
13, 65520, Note_on_c, 11, 58, 50
13, 65664, Note_on_c, 11, 58, 0
13, 65760, Note_on_c, 11, 58, 50
13, 65904, Note_on_c, 11, 58, 0
13, 66000, Note_on_c, 11, 56, 50
13, 66144, Note_on_c, 11, 56, 0
13, 66240, Note_on_c, 11, 62, 50
13, 66384, Note_on_c, 11, 62, 0
13, 66480, Note_on_c, 11, 62, 50
13, 66624, Note_on_c, 11, 62, 0
13, 66720, Note_on_c, 11, 62, 50
13, 66864, Note_on_c, 11, 62, 0
13, 66960, Note_on_c, 11, 63, 50
13, 67104, Note_on_c, 11, 63, 0
13, 67200, Note_on_c, 11, 51, 50
13, 67344, Note_on_c, 11, 51, 0
13, 67440, Note_on_c, 11, 51, 50
13, 67584, Note_on_c, 11, 51, 0
13, 67680, Note_on_c, 11, 51, 50
13, 67824, Note_on_c, 11, 51, 0
13, 67920, Note_on_c, 11, 53, 50
13, 68064, Note_on_c, 11, 53, 0
13, 68160, Note_on_c, 11, 62, 50
13, 68304, Note_on_c, 11, 62, 0
13, 68400, Note_on_c, 11, 62, 50
13, 68544, Note_on_c, 11, 62, 0
13, 68640, Note_on_c, 11, 62, 50
13, 68784, Note_on_c, 11, 62, 0
13, 68880, Note_on_c, 11, 63, 60
13, 69024, Note_on_c, 11, 63, 0
13, 69120, Note_on_c, 11, 58, 60
13, 69264, Note_on_c, 11, 58, 0
13, 69360, Note_on_c, 11, 58, 60
13, 69504, Note_on_c, 11, 58, 0
13, 69600, Note_on_c, 11, 58, 60
13, 69744, Note_on_c, 11, 58, 0
13, 69840, Note_on_c, 11, 56, 60
13, 69984, Note_on_c, 11, 56, 0
13, 70080, Note_on_c, 11, 62, 60
13, 70224, Note_on_c, 11, 62, 0
13, 70320, Note_on_c, 11, 62, 60
13, 70464, Note_on_c, 11, 62, 0
13, 70560, Note_on_c, 11, 62, 60
13, 70704, Note_on_c, 11, 62, 0
13, 70800, Note_on_c, 11, 63, 60
13, 70944, Note_on_c, 11, 63, 0
13, 71040, Note_on_c, 11, 58, 60
13, 71184, Note_on_c, 11, 58, 0
13, 71280, Note_on_c, 11, 58, 60
13, 71424, Note_on_c, 11, 58, 0
13, 71520, Note_on_c, 11, 58, 60
13, 71664, Note_on_c, 11, 58, 0
13, 71760, Note_on_c, 11, 60, 60
13, 71904, Note_on_c, 11, 60, 0
13, 72000, Note_on_c, 11, 68, 60
13, 72144, Note_on_c, 11, 68, 0
13, 72240, Note_on_c, 11, 56, 60
13, 72384, Note_on_c, 11, 56, 0
13, 72480, Note_on_c, 11, 56, 60
13, 72624, Note_on_c, 11, 56, 0
13, 72720, Note_on_c, 11, 70, 91
13, 72864, Note_on_c, 11, 70, 0
13, 72960, Note_on_c, 11, 55, 91
13, 73104, Note_on_c, 11, 55, 0
13, 73200, Note_on_c, 11, 58, 91
13, 73344, Note_on_c, 11, 58, 0
13, 73440, Note_on_c, 11, 70, 91
13, 73584, Note_on_c, 11, 70, 0
13, 73680, Note_on_c, 11, 72, 91
13, 73824, Note_on_c, 11, 72, 0
13, 73920, Note_on_c, 11, 48, 91
13, 74064, Note_on_c, 11, 48, 0
13, 74160, Note_on_c, 11, 60, 91
13, 74304, Note_on_c, 11, 60, 0
13, 74400, Note_on_c, 11, 60, 91
13, 74544, Note_on_c, 11, 60, 0
13, 74640, Note_on_c, 11, 50, 91
13, 74784, Note_on_c, 11, 50, 0
13, 74880, Note_on_c, 11, 62, 91
13, 75024, Note_on_c, 11, 62, 0
13, 75120, Note_on_c, 11, 58, 91
13, 75264, Note_on_c, 11, 58, 0
13, 75360, Note_on_c, 11, 58, 91
13, 75504, Note_on_c, 11, 58, 0
13, 75600, Note_on_c, 11, 51, 91
13, 75744, Note_on_c, 11, 51, 0
13, 75840, Note_on_c, 11, 63, 91
13, 75984, Note_on_c, 11, 63, 0
13, 76080, Note_on_c, 11, 58, 91
13, 76224, Note_on_c, 11, 58, 0
13, 76320, Note_on_c, 11, 58, 91
13, 76464, Note_on_c, 11, 58, 0
13, 76560, Note_on_c, 11, 52, 91
13, 76704, Note_on_c, 11, 52, 0
13, 76800, Note_on_c, 11, 64, 91
13, 76944, Note_on_c, 11, 64, 0
13, 77040, Note_on_c, 11, 58, 91
13, 77184, Note_on_c, 11, 58, 0
13, 77280, Note_on_c, 11, 58, 91
13, 77424, Note_on_c, 11, 58, 0
13, 77520, Note_on_c, 11, 58, 114
13, 77664, Note_on_c, 11, 58, 0
13, 77760, Note_on_c, 11, 62, 114
13, 77904, Note_on_c, 11, 62, 0
13, 78000, Note_on_c, 11, 65, 114
13, 78144, Note_on_c, 11, 65, 0
13, 78240, Note_on_c, 11, 68, 114
13, 78384, Note_on_c, 11, 68, 0
13, 78480, Note_on_c, 11, 56, 94
13, 78600, Note_on_c, 11, 56, 0
13, 78720, Note_on_c, 11, 58, 94
13, 78840, Note_on_c, 11, 58, 0
13, 78960, Note_on_c, 11, 62, 94
13, 79080, Note_on_c, 11, 62, 0
13, 79200, Note_on_c, 11, 65, 94
13, 79320, Note_on_c, 11, 65, 0
13, 79440, Note_on_c, 11, 53, 94
13, 79560, Note_on_c, 11, 53, 0
13, 79680, Note_on_c, 11, 56, 94
13, 79800, Note_on_c, 11, 56, 0
13, 79920, Note_on_c, 11, 58, 94
13, 80040, Note_on_c, 11, 58, 0
13, 80160, Note_on_c, 11, 62, 94
13, 80280, Note_on_c, 11, 62, 0
13, 80400, Note_on_c, 11, 50, 94
13, 80520, Note_on_c, 11, 50, 0
13, 80640, Note_on_c, 11, 53, 94
13, 80760, Note_on_c, 11, 53, 0
13, 80880, Note_on_c, 11, 56, 94
13, 81000, Note_on_c, 11, 56, 0
13, 81120, Note_on_c, 11, 58, 94
13, 81240, Note_on_c, 11, 58, 0
13, 81360, Note_on_c, 11, 53, 94
13, 81480, Note_on_c, 11, 53, 0
13, 81600, Note_on_c, 11, 56, 94
13, 81720, Note_on_c, 11, 56, 0
13, 81840, Note_on_c, 11, 53, 94
13, 81960, Note_on_c, 11, 53, 0
13, 82080, Note_on_c, 11, 56, 94
13, 82200, Note_on_c, 11, 56, 0
13, 82320, Note_on_c, 11, 53, 94
13, 82440, Note_on_c, 11, 53, 0
13, 82560, Note_on_c, 11, 56, 94
13, 82680, Note_on_c, 11, 56, 0
13, 82800, Note_on_c, 11, 53, 94
13, 82920, Note_on_c, 11, 53, 0
13, 83040, Note_on_c, 11, 56, 94
13, 83160, Note_on_c, 11, 56, 0
13, 83280, Note_on_c, 11, 53, 94
13, 83400, Note_on_c, 11, 53, 0
13, 83520, Note_on_c, 11, 56, 94
13, 83640, Note_on_c, 11, 56, 0
13, 83760, Note_on_c, 11, 53, 94
13, 83880, Note_on_c, 11, 53, 0
13, 84000, Note_on_c, 11, 56, 94
13, 84120, Note_on_c, 11, 56, 0
13, 84240, Note_on_c, 11, 56, 75
13, 84240, Note_on_c, 11, 53, 75
13, 84384, Note_on_c, 11, 53, 0
13, 84384, Note_on_c, 11, 56, 0
13, 84480, Note_on_c, 11, 56, 75
13, 84480, Note_on_c, 11, 53, 75
13, 84624, Note_on_c, 11, 53, 0
13, 84624, Note_on_c, 11, 56, 0
13, 84720, Note_on_c, 11, 53, 75
13, 84720, Note_on_c, 11, 56, 75
13, 84864, Note_on_c, 11, 56, 0
13, 84864, Note_on_c, 11, 53, 0
13, 84960, Note_on_c, 11, 53, 75
13, 84960, Note_on_c, 11, 56, 75
13, 85104, Note_on_c, 11, 56, 0
13, 85104, Note_on_c, 11, 53, 0
13, 85200, Note_on_c, 11, 55, 94
13, 85200, Note_on_c, 11, 51, 94
13, 85344, Note_on_c, 11, 51, 0
13, 85344, Note_on_c, 11, 55, 0
13, 85440, Note_on_c, 11, 63, 94
13, 85440, Note_on_c, 11, 55, 94
13, 85584, Note_on_c, 11, 55, 0
13, 85584, Note_on_c, 11, 63, 0
13, 85680, Note_on_c, 11, 63, 94
13, 85680, Note_on_c, 11, 55, 94
13, 85824, Note_on_c, 11, 55, 0
13, 85824, Note_on_c, 11, 63, 0
13, 85920, Note_on_c, 11, 63, 94
13, 85920, Note_on_c, 11, 55, 94
13, 86064, Note_on_c, 11, 55, 0
13, 86064, Note_on_c, 11, 63, 0
13, 86160, Note_on_c, 11, 55, 94
13, 86160, Note_on_c, 11, 63, 94
13, 86304, Note_on_c, 11, 63, 0
13, 86304, Note_on_c, 11, 55, 0
13, 86400, Note_on_c, 11, 55, 94
13, 86400, Note_on_c, 11, 63, 94
13, 86544, Note_on_c, 11, 63, 0
13, 86544, Note_on_c, 11, 55, 0
13, 86640, Note_on_c, 11, 63, 94
13, 86640, Note_on_c, 11, 55, 94
13, 86784, Note_on_c, 11, 55, 0
13, 86784, Note_on_c, 11, 63, 0
13, 86880, Note_on_c, 11, 63, 94
13, 86880, Note_on_c, 11, 55, 94
13, 87024, Note_on_c, 11, 55, 0
13, 87024, Note_on_c, 11, 63, 0
13, 87120, Note_on_c, 11, 55, 94
13, 87120, Note_on_c, 11, 63, 94
13, 87264, Note_on_c, 11, 63, 0
13, 87264, Note_on_c, 11, 55, 0
13, 87360, Note_on_c, 11, 55, 94
13, 87360, Note_on_c, 11, 63, 94
13, 87504, Note_on_c, 11, 63, 0
13, 87504, Note_on_c, 11, 55, 0
13, 87600, Note_on_c, 11, 55, 94
13, 87600, Note_on_c, 11, 63, 94
13, 87744, Note_on_c, 11, 63, 0
13, 87744, Note_on_c, 11, 55, 0
13, 87840, Note_on_c, 11, 63, 94
13, 87840, Note_on_c, 11, 55, 94
13, 87984, Note_on_c, 11, 55, 0
13, 87984, Note_on_c, 11, 63, 0
13, 88080, Note_on_c, 11, 63, 94
13, 88080, Note_on_c, 11, 55, 94
13, 88224, Note_on_c, 11, 55, 0
13, 88224, Note_on_c, 11, 63, 0
13, 88320, Note_on_c, 11, 55, 94
13, 88320, Note_on_c, 11, 63, 94
13, 88464, Note_on_c, 11, 63, 0
13, 88464, Note_on_c, 11, 55, 0
13, 88560, Note_on_c, 11, 55, 94
13, 88560, Note_on_c, 11, 63, 94
13, 88704, Note_on_c, 11, 63, 0
13, 88704, Note_on_c, 11, 55, 0
13, 88800, Note_on_c, 11, 55, 94
13, 88800, Note_on_c, 11, 63, 94
13, 88944, Note_on_c, 11, 63, 0
13, 88944, Note_on_c, 11, 55, 0
13, 89040, Note_on_c, 11, 70, 114
13, 89184, Note_on_c, 11, 70, 0
13, 89280, Note_on_c, 11, 55, 94
13, 89424, Note_on_c, 11, 55, 0
13, 89520, Note_on_c, 11, 55, 94
13, 89664, Note_on_c, 11, 55, 0
13, 89760, Note_on_c, 11, 55, 94
13, 89904, Note_on_c, 11, 55, 0
13, 90000, Note_on_c, 11, 56, 94
13, 90144, Note_on_c, 11, 56, 0
13, 90240, Note_on_c, 11, 56, 94
13, 90384, Note_on_c, 11, 56, 0
13, 90480, Note_on_c, 11, 56, 94
13, 90624, Note_on_c, 11, 56, 0
13, 90720, Note_on_c, 11, 56, 94
13, 90864, Note_on_c, 11, 56, 0
13, 90960, Note_on_c, 11, 56, 94
13, 90960, Note_on_c, 11, 53, 94
13, 91104, Note_on_c, 11, 53, 0
13, 91104, Note_on_c, 11, 56, 0
13, 91200, Note_on_c, 11, 53, 94
13, 91200, Note_on_c, 11, 56, 94
13, 91344, Note_on_c, 11, 56, 0
13, 91344, Note_on_c, 11, 53, 0
13, 91440, Note_on_c, 11, 56, 94
13, 91440, Note_on_c, 11, 53, 94
13, 91584, Note_on_c, 11, 53, 0
13, 91584, Note_on_c, 11, 56, 0
13, 91680, Note_on_c, 11, 53, 94
13, 91680, Note_on_c, 11, 56, 94
13, 91824, Note_on_c, 11, 56, 0
13, 91824, Note_on_c, 11, 53, 0
13, 91920, Note_on_c, 11, 55, 94
13, 92064, Note_on_c, 11, 55, 0
13, 92160, Note_on_c, 11, 58, 94
13, 92160, Note_on_c, 11, 67, 94
13, 92304, Note_on_c, 11, 67, 0
13, 92304, Note_on_c, 11, 58, 0
13, 92400, Note_on_c, 11, 67, 94
13, 92400, Note_on_c, 11, 58, 94
13, 92544, Note_on_c, 11, 58, 0
13, 92544, Note_on_c, 11, 67, 0
13, 92640, Note_on_c, 11, 67, 94
13, 92640, Note_on_c, 11, 58, 94
13, 92784, Note_on_c, 11, 58, 0
13, 92784, Note_on_c, 11, 67, 0
13, 92880, Note_on_c, 11, 70, 114
13, 93024, Note_on_c, 11, 70, 0
13, 93120, Note_on_c, 11, 55, 94
13, 93264, Note_on_c, 11, 55, 0
13, 93360, Note_on_c, 11, 55, 94
13, 93504, Note_on_c, 11, 55, 0
13, 93600, Note_on_c, 11, 55, 94
13, 93744, Note_on_c, 11, 55, 0
13, 93840, Note_on_c, 11, 56, 94
13, 93984, Note_on_c, 11, 56, 0
13, 94080, Note_on_c, 11, 56, 94
13, 94224, Note_on_c, 11, 56, 0
13, 94320, Note_on_c, 11, 56, 94
13, 94464, Note_on_c, 11, 56, 0
13, 94560, Note_on_c, 11, 56, 94
13, 94704, Note_on_c, 11, 56, 0
13, 94800, Note_on_c, 11, 53, 94
13, 94800, Note_on_c, 11, 56, 94
13, 94944, Note_on_c, 11, 56, 0
13, 94944, Note_on_c, 11, 53, 0
13, 95040, Note_on_c, 11, 53, 94
13, 95040, Note_on_c, 11, 56, 94
13, 95184, Note_on_c, 11, 56, 0
13, 95184, Note_on_c, 11, 53, 0
13, 95280, Note_on_c, 11, 56, 94
13, 95280, Note_on_c, 11, 53, 94
13, 95424, Note_on_c, 11, 53, 0
13, 95424, Note_on_c, 11, 56, 0
13, 95520, Note_on_c, 11, 56, 94
13, 95520, Note_on_c, 11, 53, 94
13, 95664, Note_on_c, 11, 53, 0
13, 95664, Note_on_c, 11, 56, 0
13, 95760, Note_on_c, 11, 55, 75
13, 95760, Note_on_c, 11, 51, 75
13, 96048, Note_on_c, 11, 51, 0
13, 96048, Note_on_c, 11, 55, 0
13, 96240, Note_on_c, 11, 67, 90
13, 96400, Note_on_c, 11, 67, 0
13, 96400, Note_on_c, 11, 67, 98
13, 96560, Note_on_c, 11, 67, 0
13, 96560, Note_on_c, 11, 67, 92
13, 96720, Note_on_c, 11, 67, 0
13, 96720, Note_on_c, 11, 60, 120
13, 96880, Note_on_c, 11, 60, 0
13, 96880, Note_on_c, 11, 60, 127
13, 97040, Note_on_c, 11, 60, 0
13, 97040, Note_on_c, 11, 60, 127
13, 97200, Note_on_c, 11, 60, 0
13, 97200, Note_on_c, 11, 63, 102
13, 97360, Note_on_c, 11, 63, 0
13, 97360, Note_on_c, 11, 63, 106
13, 97520, Note_on_c, 11, 63, 0
13, 97520, Note_on_c, 11, 63, 96
13, 97680, Note_on_c, 11, 63, 0
13, 97680, Note_on_c, 11, 56, 116
13, 97840, Note_on_c, 11, 56, 0
13, 97840, Note_on_c, 11, 56, 116
13, 98000, Note_on_c, 11, 56, 0
13, 98000, Note_on_c, 11, 56, 108
13, 98160, Note_on_c, 11, 56, 0
13, 98160, Note_on_c, 11, 60, 110
13, 98320, Note_on_c, 11, 60, 0
13, 98320, Note_on_c, 11, 60, 120
13, 98480, Note_on_c, 11, 60, 0
13, 98480, Note_on_c, 11, 60, 110
13, 98640, Note_on_c, 11, 60, 0
13, 98640, Note_on_c, 11, 53, 127
13, 98762, Note_on_c, 11, 53, 0
13, 98880, Note_on_c, 11, 56, 127
13, 99002, Note_on_c, 11, 56, 0
13, 99120, Note_on_c, 11, 60, 127
13, 99230, Note_on_c, 11, 60, 0
13, 99360, Note_on_c, 11, 64, 127
13, 99454, Note_on_c, 11, 64, 0
13, 99600, Note_on_c, 11, 65, 112
13, 99760, Note_on_c, 11, 65, 0
13, 99760, Note_on_c, 11, 65, 112
13, 99920, Note_on_c, 11, 65, 0
13, 99920, Note_on_c, 11, 65, 80
13, 100080, Note_on_c, 11, 65, 0
13, 100080, Note_on_c, 11, 68, 90
13, 100240, Note_on_c, 11, 68, 0
13, 100240, Note_on_c, 11, 68, 96
13, 100400, Note_on_c, 11, 68, 0
13, 100400, Note_on_c, 11, 68, 112
13, 100560, Note_on_c, 11, 68, 0
13, 100560, Note_on_c, 11, 62, 114
13, 100720, Note_on_c, 11, 62, 0
13, 100720, Note_on_c, 11, 62, 127
13, 100880, Note_on_c, 11, 62, 0
13, 100880, Note_on_c, 11, 62, 118
13, 101040, Note_on_c, 11, 62, 0
13, 101040, Note_on_c, 11, 65, 106
13, 101200, Note_on_c, 11, 65, 0
13, 101200, Note_on_c, 11, 65, 98
13, 101360, Note_on_c, 11, 65, 0
13, 101360, Note_on_c, 11, 65, 94
13, 101520, Note_on_c, 11, 65, 0
13, 101520, Note_on_c, 11, 58, 118
13, 101680, Note_on_c, 11, 58, 0
13, 101680, Note_on_c, 11, 58, 106
13, 101840, Note_on_c, 11, 58, 0
13, 101840, Note_on_c, 11, 58, 92
13, 102000, Note_on_c, 11, 58, 0
13, 102000, Note_on_c, 11, 62, 72
13, 102160, Note_on_c, 11, 62, 0
13, 102160, Note_on_c, 11, 62, 76
13, 102320, Note_on_c, 11, 62, 0
13, 102320, Note_on_c, 11, 62, 82
13, 102480, Note_on_c, 11, 62, 0
13, 102480, Note_on_c, 11, 55, 127
13, 102642, Note_on_c, 11, 55, 0
13, 102720, Note_on_c, 11, 58, 127
13, 102864, Note_on_c, 11, 58, 0
13, 102960, Note_on_c, 11, 62, 127
13, 103076, Note_on_c, 11, 62, 0
13, 103200, Note_on_c, 11, 66, 127
13, 103302, Note_on_c, 11, 66, 0
13, 103440, Note_on_c, 11, 67, 114
13, 103600, Note_on_c, 11, 67, 0
13, 103600, Note_on_c, 11, 67, 122
13, 103760, Note_on_c, 11, 67, 0
13, 103760, Note_on_c, 11, 67, 122
13, 103920, Note_on_c, 11, 67, 0
13, 103920, Note_on_c, 11, 70, 127
13, 104080, Note_on_c, 11, 70, 0
13, 104080, Note_on_c, 11, 70, 127
13, 104240, Note_on_c, 11, 70, 0
13, 104240, Note_on_c, 11, 70, 127
13, 104400, Note_on_c, 11, 70, 0
13, 104400, Note_on_c, 11, 63, 127
13, 104560, Note_on_c, 11, 63, 0
13, 104560, Note_on_c, 11, 63, 127
13, 104720, Note_on_c, 11, 63, 0
13, 104720, Note_on_c, 11, 63, 127
13, 104880, Note_on_c, 11, 63, 0
13, 104880, Note_on_c, 11, 67, 127
13, 105040, Note_on_c, 11, 67, 0
13, 105040, Note_on_c, 11, 67, 127
13, 105200, Note_on_c, 11, 67, 0
13, 105200, Note_on_c, 11, 67, 127
13, 105360, Note_on_c, 11, 67, 0
13, 105360, Note_on_c, 11, 60, 127
13, 105520, Note_on_c, 11, 60, 0
13, 105520, Note_on_c, 11, 60, 127
13, 105680, Note_on_c, 11, 60, 0
13, 105680, Note_on_c, 11, 60, 127
13, 105840, Note_on_c, 11, 60, 0
13, 105840, Note_on_c, 11, 63, 127
13, 106000, Note_on_c, 11, 63, 0
13, 106000, Note_on_c, 11, 63, 127
13, 106160, Note_on_c, 11, 63, 0
13, 106160, Note_on_c, 11, 63, 127
13, 106320, Note_on_c, 11, 63, 0
13, 106320, Note_on_c, 11, 57, 127
13, 106480, Note_on_c, 11, 57, 0
13, 106480, Note_on_c, 11, 57, 127
13, 106640, Note_on_c, 11, 57, 0
13, 106640, Note_on_c, 11, 57, 122
13, 106800, Note_on_c, 11, 57, 0
13, 106800, Note_on_c, 11, 60, 127
13, 106960, Note_on_c, 11, 60, 0
13, 106960, Note_on_c, 11, 60, 127
13, 107120, Note_on_c, 11, 60, 0
13, 107120, Note_on_c, 11, 60, 127
13, 107280, Note_on_c, 11, 60, 0
13, 107280, Note_on_c, 11, 58, 99
13, 107424, Note_on_c, 11, 58, 0
13, 107520, Note_on_c, 11, 62, 99
13, 107664, Note_on_c, 11, 62, 0
13, 107760, Note_on_c, 11, 62, 99
13, 107904, Note_on_c, 11, 62, 0
13, 108000, Note_on_c, 11, 62, 99
13, 108144, Note_on_c, 11, 62, 0
13, 108240, Note_on_c, 11, 63, 99
13, 108384, Note_on_c, 11, 63, 0
13, 108480, Note_on_c, 11, 63, 99
13, 108624, Note_on_c, 11, 63, 0
13, 108720, Note_on_c, 11, 63, 99
13, 108864, Note_on_c, 11, 63, 0
13, 108960, Note_on_c, 11, 63, 99
13, 109104, Note_on_c, 11, 63, 0
13, 109200, Note_on_c, 11, 62, 99
13, 109344, Note_on_c, 11, 62, 0
13, 109440, Note_on_c, 11, 62, 99
13, 109584, Note_on_c, 11, 62, 0
13, 109680, Note_on_c, 11, 62, 99
13, 109824, Note_on_c, 11, 62, 0
13, 109920, Note_on_c, 11, 62, 99
13, 110064, Note_on_c, 11, 62, 0
13, 110160, Note_on_c, 11, 58, 99
13, 110304, Note_on_c, 11, 58, 0
13, 110400, Note_on_c, 11, 58, 99
13, 110544, Note_on_c, 11, 58, 0
13, 110640, Note_on_c, 11, 63, 99
13, 110784, Note_on_c, 11, 63, 0
13, 110880, Note_on_c, 11, 63, 99
13, 111024, Note_on_c, 11, 63, 0
13, 111120, Note_on_c, 11, 62, 99
13, 111264, Note_on_c, 11, 62, 0
13, 111360, Note_on_c, 11, 62, 99
13, 111504, Note_on_c, 11, 62, 0
13, 111600, Note_on_c, 11, 62, 99
13, 111744, Note_on_c, 11, 62, 0
13, 111840, Note_on_c, 11, 62, 99
13, 111984, Note_on_c, 11, 62, 0
13, 112080, Note_on_c, 11, 63, 99
13, 112224, Note_on_c, 11, 63, 0
13, 112320, Note_on_c, 11, 63, 99
13, 112464, Note_on_c, 11, 63, 0
13, 112560, Note_on_c, 11, 63, 99
13, 112704, Note_on_c, 11, 63, 0
13, 112800, Note_on_c, 11, 63, 99
13, 112944, Note_on_c, 11, 63, 0
13, 113040, Note_on_c, 11, 62, 99
13, 113184, Note_on_c, 11, 62, 0
13, 113280, Note_on_c, 11, 62, 99
13, 113424, Note_on_c, 11, 62, 0
13, 113520, Note_on_c, 11, 62, 99
13, 113664, Note_on_c, 11, 62, 0
13, 113760, Note_on_c, 11, 62, 99
13, 113904, Note_on_c, 11, 62, 0
13, 114000, Note_on_c, 11, 63, 99
13, 114000, Note_on_c, 11, 55, 99
13, 114144, Note_on_c, 11, 55, 0
13, 114144, Note_on_c, 11, 63, 0
13, 114240, Note_on_c, 11, 63, 99
13, 114240, Note_on_c, 11, 55, 99
13, 114384, Note_on_c, 11, 55, 0
13, 114384, Note_on_c, 11, 63, 0
13, 134160, Note_on_c, 11, 58, 62
13, 134160, Note_on_c, 11, 62, 86
13, 134394, Note_on_c, 11, 58, 0
13, 134400, Note_on_c, 11, 60, 66
13, 134400, Note_on_c, 11, 63, 62
13, 134430, Note_on_c, 11, 62, 0
13, 134496, Note_on_c, 11, 60, 0
13, 134526, Note_on_c, 11, 63, 0
13, 134640, Note_on_c, 11, 65, 80
13, 134640, Note_on_c, 11, 62, 84
13, 134706, Note_on_c, 11, 65, 0
13, 134712, Note_on_c, 11, 62, 0
13, 134880, Note_on_c, 11, 65, 80
13, 134880, Note_on_c, 11, 62, 87
13, 134944, Note_on_c, 11, 65, 0
13, 134950, Note_on_c, 11, 62, 0
13, 135120, Note_on_c, 11, 62, 90
13, 135120, Note_on_c, 11, 65, 92
13, 135360, Note_on_c, 11, 65, 0
13, 135360, Note_on_c, 11, 62, 0
13, 135360, Note_on_c, 11, 63, 84
13, 135360, Note_on_c, 11, 60, 65
13, 135600, Note_on_c, 11, 60, 0
13, 135600, Note_on_c, 11, 63, 0
13, 135600, Note_on_c, 11, 58, 66
13, 135600, Note_on_c, 11, 62, 81
13, 135840, Note_on_c, 11, 62, 0
13, 135840, Note_on_c, 11, 58, 0
13, 135840, Note_on_c, 11, 60, 77
13, 135840, Note_on_c, 11, 57, 60
13, 136080, Note_on_c, 11, 57, 0
13, 136080, Note_on_c, 11, 60, 0
13, 136080, Note_on_c, 11, 55, 75
13, 136080, Note_on_c, 11, 58, 74
13, 136320, Note_on_c, 11, 58, 0
13, 136320, Note_on_c, 11, 55, 0
13, 136320, Note_on_c, 11, 57, 72
13, 136320, Note_on_c, 11, 60, 80
13, 136560, Note_on_c, 11, 60, 0
13, 136560, Note_on_c, 11, 57, 0
13, 136560, Note_on_c, 11, 58, 75
13, 136560, Note_on_c, 11, 62, 89
13, 136620, Note_on_c, 11, 58, 0
13, 136632, Note_on_c, 11, 62, 0
13, 136800, Note_on_c, 11, 62, 80
13, 136800, Note_on_c, 11, 58, 71
13, 136852, Note_on_c, 11, 62, 0
13, 136872, Note_on_c, 11, 58, 0
13, 137040, Note_on_c, 11, 62, 107
13, 137040, Note_on_c, 11, 58, 102
13, 137280, Note_on_c, 11, 60, 74
13, 137280, Note_on_c, 11, 57, 65
13, 137290, Note_on_c, 11, 62, 0
13, 137292, Note_on_c, 11, 58, 0
13, 137520, Note_on_c, 11, 60, 0
13, 137520, Note_on_c, 11, 57, 0
13, 137520, Note_on_c, 11, 58, 75
13, 137520, Note_on_c, 11, 55, 71
13, 137760, Note_on_c, 11, 55, 0
13, 137760, Note_on_c, 11, 58, 0
13, 137760, Note_on_c, 11, 53, 69
13, 137760, Note_on_c, 11, 57, 68
13, 138000, Note_on_c, 11, 57, 0
13, 138000, Note_on_c, 11, 53, 0
13, 138000, Note_on_c, 11, 51, 50
13, 138000, Note_on_c, 11, 55, 50
13, 138240, Note_on_c, 11, 55, 0
13, 138240, Note_on_c, 11, 51, 0
13, 138240, Note_on_c, 11, 57, 55
13, 138240, Note_on_c, 11, 53, 55
13, 138480, Note_on_c, 11, 53, 0
13, 138480, Note_on_c, 11, 57, 0
13, 138480, Note_on_c, 11, 58, 60
13, 138480, Note_on_c, 11, 55, 60
13, 138720, Note_on_c, 11, 55, 0
13, 138720, Note_on_c, 11, 58, 0
13, 138720, Note_on_c, 11, 57, 65
13, 138720, Note_on_c, 11, 60, 65
13, 138960, Note_on_c, 11, 60, 0
13, 138960, Note_on_c, 11, 57, 0
13, 138960, Note_on_c, 11, 58, 71
13, 138960, Note_on_c, 11, 62, 71
13, 139200, Note_on_c, 11, 62, 0
13, 139200, Note_on_c, 11, 58, 0
13, 139200, Note_on_c, 11, 60, 76
13, 139200, Note_on_c, 11, 63, 76
13, 139440, Note_on_c, 11, 63, 0
13, 139440, Note_on_c, 11, 60, 0
13, 139440, Note_on_c, 11, 65, 81
13, 139440, Note_on_c, 11, 62, 81
13, 139680, Note_on_c, 11, 62, 0
13, 139680, Note_on_c, 11, 65, 0
13, 139680, Note_on_c, 11, 67, 86
13, 139680, Note_on_c, 11, 63, 86
13, 139774, Note_on_c, 11, 63, 0
13, 139820, Note_on_c, 11, 67, 0
13, 139920, Note_on_c, 11, 63, 81
13, 139920, Note_on_c, 11, 67, 80
13, 140112, Note_on_c, 11, 67, 0
13, 140144, Note_on_c, 11, 63, 0
13, 140160, Note_on_c, 11, 65, 83
13, 140160, Note_on_c, 11, 62, 83
13, 140274, Note_on_c, 11, 62, 0
13, 140274, Note_on_c, 11, 65, 0
13, 140400, Note_on_c, 11, 63, 102
13, 140400, Note_on_c, 11, 60, 59
13, 140484, Note_on_c, 11, 60, 0
13, 140484, Note_on_c, 11, 63, 0
13, 140640, Note_on_c, 11, 62, 84
13, 140640, Note_on_c, 11, 58, 80
13, 140716, Note_on_c, 11, 58, 0
13, 140726, Note_on_c, 11, 62, 0
13, 140880, Note_on_c, 11, 60, 60
13, 140880, Note_on_c, 11, 57, 53
13, 141186, Note_on_c, 11, 57, 0
13, 141212, Note_on_c, 11, 60, 0
13, 141840, Note_on_c, 11, 58, 93
13, 141840, Note_on_c, 11, 62, 127
13, 142074, Note_on_c, 11, 58, 0
13, 142080, Note_on_c, 11, 63, 93
13, 142080, Note_on_c, 11, 60, 99
13, 142110, Note_on_c, 11, 62, 0
13, 142176, Note_on_c, 11, 60, 0
13, 142206, Note_on_c, 11, 63, 0
13, 142320, Note_on_c, 11, 62, 126
13, 142320, Note_on_c, 11, 65, 120
13, 142386, Note_on_c, 11, 65, 0
13, 142392, Note_on_c, 11, 62, 0
13, 142560, Note_on_c, 11, 62, 127
13, 142560, Note_on_c, 11, 65, 120
13, 142624, Note_on_c, 11, 65, 0
13, 142630, Note_on_c, 11, 62, 0
13, 142800, Note_on_c, 11, 62, 127
13, 142800, Note_on_c, 11, 65, 127
13, 143040, Note_on_c, 11, 65, 0
13, 143040, Note_on_c, 11, 62, 0
13, 143040, Note_on_c, 11, 60, 98
13, 143040, Note_on_c, 11, 63, 126
13, 143280, Note_on_c, 11, 63, 0
13, 143280, Note_on_c, 11, 60, 0
13, 143280, Note_on_c, 11, 62, 122
13, 143280, Note_on_c, 11, 58, 99
13, 143520, Note_on_c, 11, 58, 0
13, 143520, Note_on_c, 11, 62, 0
13, 143520, Note_on_c, 11, 57, 90
13, 143520, Note_on_c, 11, 60, 116
13, 143760, Note_on_c, 11, 60, 0
13, 143760, Note_on_c, 11, 57, 0
13, 143760, Note_on_c, 11, 55, 113
13, 143760, Note_on_c, 11, 58, 111
13, 144000, Note_on_c, 11, 58, 0
13, 144000, Note_on_c, 11, 55, 0
13, 144000, Note_on_c, 11, 60, 120
13, 144000, Note_on_c, 11, 57, 108
13, 144240, Note_on_c, 11, 57, 0
13, 144240, Note_on_c, 11, 60, 0
13, 144240, Note_on_c, 11, 62, 127
13, 144240, Note_on_c, 11, 58, 113
13, 144300, Note_on_c, 11, 58, 0
13, 144312, Note_on_c, 11, 62, 0
13, 144480, Note_on_c, 11, 58, 107
13, 144480, Note_on_c, 11, 62, 120
13, 144532, Note_on_c, 11, 62, 0
13, 144552, Note_on_c, 11, 58, 0
13, 144720, Note_on_c, 11, 62, 127
13, 144720, Note_on_c, 11, 58, 127
13, 144960, Note_on_c, 11, 60, 111
13, 144960, Note_on_c, 11, 57, 98
13, 144970, Note_on_c, 11, 62, 0
13, 144972, Note_on_c, 11, 58, 0
13, 145200, Note_on_c, 11, 60, 0
13, 145200, Note_on_c, 11, 57, 0
13, 145200, Note_on_c, 11, 55, 107
13, 145200, Note_on_c, 11, 58, 113
13, 145440, Note_on_c, 11, 58, 0
13, 145440, Note_on_c, 11, 55, 0
13, 145440, Note_on_c, 11, 53, 104
13, 145440, Note_on_c, 11, 57, 102
13, 145680, Note_on_c, 11, 57, 0
13, 145680, Note_on_c, 11, 53, 0
13, 145680, Note_on_c, 11, 55, 48
13, 145776, Note_on_c, 11, 55, 0
13, 145920, Note_on_c, 11, 57, 48
13, 146016, Note_on_c, 11, 57, 0
13, 146160, Note_on_c, 11, 58, 48
13, 146256, Note_on_c, 11, 58, 0
13, 146400, Note_on_c, 11, 58, 48
13, 146496, Note_on_c, 11, 58, 0
13, 146640, Note_on_c, 11, 60, 48
13, 146736, Note_on_c, 11, 60, 0
13, 146880, Note_on_c, 11, 58, 48
13, 146976, Note_on_c, 11, 58, 0
13, 147120, Note_on_c, 11, 57, 48
13, 147216, Note_on_c, 11, 57, 0
13, 147360, Note_on_c, 11, 55, 48
13, 147456, Note_on_c, 11, 55, 0
13, 147600, Note_on_c, 11, 54, 53
13, 147696, Note_on_c, 11, 54, 0
13, 147840, Note_on_c, 11, 57, 53
13, 147936, Note_on_c, 11, 57, 0
13, 148080, Note_on_c, 11, 62, 53
13, 148176, Note_on_c, 11, 62, 0
13, 148320, Note_on_c, 11, 60, 53
13, 148416, Note_on_c, 11, 60, 0
13, 148560, Note_on_c, 11, 58, 53
13, 148656, Note_on_c, 11, 58, 0
13, 148800, Note_on_c, 11, 57, 53
13, 148896, Note_on_c, 11, 57, 0
13, 149040, Note_on_c, 11, 55, 53
13, 149136, Note_on_c, 11, 55, 0
13, 149280, Note_on_c, 11, 54, 53
13, 149376, Note_on_c, 11, 54, 0
13, 149520, Note_on_c, 11, 55, 53
13, 149616, Note_on_c, 11, 55, 0
13, 149760, Note_on_c, 11, 58, 53
13, 149856, Note_on_c, 11, 58, 0
13, 150000, Note_on_c, 11, 63, 53
13, 150096, Note_on_c, 11, 63, 0
13, 150240, Note_on_c, 11, 62, 53
13, 150336, Note_on_c, 11, 62, 0
13, 150480, Note_on_c, 11, 60, 53
13, 150576, Note_on_c, 11, 60, 0
13, 150720, Note_on_c, 11, 58, 53
13, 150816, Note_on_c, 11, 58, 0
13, 150960, Note_on_c, 11, 57, 53
13, 151056, Note_on_c, 11, 57, 0
13, 151200, Note_on_c, 11, 55, 53
13, 151296, Note_on_c, 11, 55, 0
13, 151440, Note_on_c, 11, 54, 53
13, 151536, Note_on_c, 11, 54, 0
13, 151680, Note_on_c, 11, 57, 53
13, 151776, Note_on_c, 11, 57, 0
13, 151920, Note_on_c, 11, 62, 53
13, 152016, Note_on_c, 11, 62, 0
13, 152160, Note_on_c, 11, 60, 53
13, 152256, Note_on_c, 11, 60, 0
13, 152400, Note_on_c, 11, 58, 53
13, 152496, Note_on_c, 11, 58, 0
13, 152640, Note_on_c, 11, 57, 53
13, 152736, Note_on_c, 11, 57, 0
13, 152880, Note_on_c, 11, 55, 53
13, 152976, Note_on_c, 11, 55, 0
13, 153120, Note_on_c, 11, 54, 53
13, 153216, Note_on_c, 11, 54, 0
13, 153360, Note_on_c, 11, 55, 60
13, 153464, Note_on_c, 11, 55, 0
13, 153600, Note_on_c, 11, 58, 67
13, 153684, Note_on_c, 11, 58, 0
13, 153840, Note_on_c, 11, 63, 67
13, 153934, Note_on_c, 11, 63, 0
13, 154080, Note_on_c, 11, 62, 67
13, 154190, Note_on_c, 11, 62, 0
13, 161040, Note_on_c, 11, 62, 127
13, 161168, Note_on_c, 11, 62, 0
13, 161200, Note_on_c, 11, 62, 127
13, 161328, Note_on_c, 11, 62, 0
13, 161360, Note_on_c, 11, 62, 127
13, 161488, Note_on_c, 11, 62, 0
13, 161520, Note_on_c, 11, 58, 62
13, 161520, Note_on_c, 11, 53, 62
13, 161648, Note_on_c, 11, 53, 0
13, 161648, Note_on_c, 11, 58, 0
13, 161680, Note_on_c, 11, 53, 62
13, 161680, Note_on_c, 11, 58, 62
13, 161808, Note_on_c, 11, 58, 0
13, 161808, Note_on_c, 11, 53, 0
13, 161840, Note_on_c, 11, 58, 62
13, 161840, Note_on_c, 11, 53, 62
13, 161968, Note_on_c, 11, 53, 0
13, 161968, Note_on_c, 11, 58, 0
13, 162000, Note_on_c, 11, 53, 62
13, 162000, Note_on_c, 11, 58, 62
13, 162128, Note_on_c, 11, 58, 0
13, 162128, Note_on_c, 11, 53, 0
13, 162160, Note_on_c, 11, 53, 62
13, 162160, Note_on_c, 11, 58, 62
13, 162288, Note_on_c, 11, 58, 0
13, 162288, Note_on_c, 11, 53, 0
13, 162320, Note_on_c, 11, 58, 62
13, 162320, Note_on_c, 11, 53, 62
13, 162448, Note_on_c, 11, 53, 0
13, 162448, Note_on_c, 11, 58, 0
13, 162480, Note_on_c, 11, 58, 62
13, 162480, Note_on_c, 11, 53, 62
13, 162608, Note_on_c, 11, 53, 0
13, 162608, Note_on_c, 11, 58, 0
13, 162640, Note_on_c, 11, 58, 62
13, 162640, Note_on_c, 11, 53, 62
13, 162768, Note_on_c, 11, 53, 0
13, 162768, Note_on_c, 11, 58, 0
13, 162800, Note_on_c, 11, 53, 62
13, 162800, Note_on_c, 11, 58, 62
13, 162928, Note_on_c, 11, 58, 0
13, 162928, Note_on_c, 11, 53, 0
13, 162960, Note_on_c, 11, 53, 62
13, 162960, Note_on_c, 11, 58, 62
13, 163088, Note_on_c, 11, 58, 0
13, 163088, Note_on_c, 11, 53, 0
13, 163120, Note_on_c, 11, 53, 62
13, 163120, Note_on_c, 11, 58, 62
13, 163248, Note_on_c, 11, 58, 0
13, 163248, Note_on_c, 11, 53, 0
13, 163280, Note_on_c, 11, 58, 62
13, 163280, Note_on_c, 11, 53, 62
13, 163408, Note_on_c, 11, 53, 0
13, 163408, Note_on_c, 11, 58, 0
13, 163440, Note_on_c, 11, 58, 62
13, 163440, Note_on_c, 11, 53, 62
13, 163568, Note_on_c, 11, 53, 0
13, 163568, Note_on_c, 11, 58, 0
13, 163600, Note_on_c, 11, 58, 62
13, 163600, Note_on_c, 11, 53, 62
13, 163728, Note_on_c, 11, 53, 0
13, 163728, Note_on_c, 11, 58, 0
13, 163760, Note_on_c, 11, 58, 62
13, 163760, Note_on_c, 11, 53, 62
13, 163888, Note_on_c, 11, 53, 0
13, 163888, Note_on_c, 11, 58, 0
13, 163920, Note_on_c, 11, 53, 62
13, 163920, Note_on_c, 11, 58, 62
13, 164048, Note_on_c, 11, 58, 0
13, 164048, Note_on_c, 11, 53, 0
13, 164080, Note_on_c, 11, 53, 62
13, 164080, Note_on_c, 11, 58, 62
13, 164208, Note_on_c, 11, 58, 0
13, 164208, Note_on_c, 11, 53, 0
13, 164240, Note_on_c, 11, 58, 62
13, 164240, Note_on_c, 11, 53, 62
13, 164368, Note_on_c, 11, 53, 0
13, 164368, Note_on_c, 11, 58, 0
13, 164400, Note_on_c, 11, 58, 62
13, 164400, Note_on_c, 11, 53, 62
13, 164528, Note_on_c, 11, 53, 0
13, 164528, Note_on_c, 11, 58, 0
13, 164560, Note_on_c, 11, 58, 62
13, 164560, Note_on_c, 11, 53, 62
13, 164688, Note_on_c, 11, 53, 0
13, 164688, Note_on_c, 11, 58, 0
13, 164720, Note_on_c, 11, 53, 62
13, 164720, Note_on_c, 11, 58, 62
13, 164848, Note_on_c, 11, 58, 0
13, 164848, Note_on_c, 11, 53, 0
13, 164880, Note_on_c, 11, 60, 62
13, 164880, Note_on_c, 11, 63, 62
13, 165008, Note_on_c, 11, 63, 0
13, 165008, Note_on_c, 11, 60, 0
13, 165040, Note_on_c, 11, 60, 62
13, 165040, Note_on_c, 11, 63, 62
13, 165168, Note_on_c, 11, 63, 0
13, 165168, Note_on_c, 11, 60, 0
13, 165200, Note_on_c, 11, 63, 62
13, 165200, Note_on_c, 11, 60, 62
13, 165328, Note_on_c, 11, 60, 0
13, 165328, Note_on_c, 11, 63, 0
13, 165360, Note_on_c, 11, 60, 62
13, 165360, Note_on_c, 11, 63, 62
13, 165488, Note_on_c, 11, 63, 0
13, 165488, Note_on_c, 11, 60, 0
13, 165520, Note_on_c, 11, 63, 62
13, 165520, Note_on_c, 11, 60, 62
13, 165648, Note_on_c, 11, 60, 0
13, 165648, Note_on_c, 11, 63, 0
13, 165680, Note_on_c, 11, 60, 62
13, 165680, Note_on_c, 11, 63, 62
13, 165808, Note_on_c, 11, 63, 0
13, 165808, Note_on_c, 11, 60, 0
13, 165840, Note_on_c, 11, 63, 62
13, 165840, Note_on_c, 11, 60, 62
13, 165968, Note_on_c, 11, 60, 0
13, 165968, Note_on_c, 11, 63, 0
13, 166000, Note_on_c, 11, 60, 62
13, 166000, Note_on_c, 11, 63, 62
13, 166128, Note_on_c, 11, 63, 0
13, 166128, Note_on_c, 11, 60, 0
13, 166160, Note_on_c, 11, 63, 62
13, 166160, Note_on_c, 11, 60, 62
13, 166288, Note_on_c, 11, 60, 0
13, 166288, Note_on_c, 11, 63, 0
13, 166320, Note_on_c, 11, 60, 62
13, 166320, Note_on_c, 11, 63, 62
13, 166448, Note_on_c, 11, 63, 0
13, 166448, Note_on_c, 11, 60, 0
13, 166480, Note_on_c, 11, 63, 62
13, 166480, Note_on_c, 11, 60, 62
13, 166608, Note_on_c, 11, 60, 0
13, 166608, Note_on_c, 11, 63, 0
13, 166640, Note_on_c, 11, 63, 62
13, 166640, Note_on_c, 11, 60, 62
13, 166768, Note_on_c, 11, 60, 0
13, 166768, Note_on_c, 11, 63, 0
13, 166800, Note_on_c, 11, 63, 62
13, 166800, Note_on_c, 11, 60, 62
13, 166928, Note_on_c, 11, 60, 0
13, 166928, Note_on_c, 11, 63, 0
13, 166960, Note_on_c, 11, 63, 62
13, 166960, Note_on_c, 11, 60, 62
13, 167088, Note_on_c, 11, 60, 0
13, 167088, Note_on_c, 11, 63, 0
13, 167120, Note_on_c, 11, 60, 62
13, 167120, Note_on_c, 11, 63, 62
13, 167248, Note_on_c, 11, 63, 0
13, 167248, Note_on_c, 11, 60, 0
13, 167280, Note_on_c, 11, 63, 62
13, 167280, Note_on_c, 11, 60, 62
13, 167408, Note_on_c, 11, 60, 0
13, 167408, Note_on_c, 11, 63, 0
13, 167440, Note_on_c, 11, 60, 62
13, 167440, Note_on_c, 11, 63, 62
13, 167568, Note_on_c, 11, 63, 0
13, 167568, Note_on_c, 11, 60, 0
13, 167600, Note_on_c, 11, 60, 62
13, 167600, Note_on_c, 11, 63, 62
13, 167728, Note_on_c, 11, 63, 0
13, 167728, Note_on_c, 11, 60, 0
13, 167760, Note_on_c, 11, 63, 62
13, 167760, Note_on_c, 11, 60, 62
13, 167888, Note_on_c, 11, 60, 0
13, 167888, Note_on_c, 11, 63, 0
13, 167920, Note_on_c, 11, 60, 62
13, 167920, Note_on_c, 11, 63, 62
13, 168048, Note_on_c, 11, 63, 0
13, 168048, Note_on_c, 11, 60, 0
13, 168080, Note_on_c, 11, 63, 62
13, 168080, Note_on_c, 11, 60, 62
13, 168208, Note_on_c, 11, 60, 0
13, 168208, Note_on_c, 11, 63, 0
13, 168240, Note_on_c, 11, 60, 62
13, 168240, Note_on_c, 11, 63, 62
13, 168368, Note_on_c, 11, 63, 0
13, 168368, Note_on_c, 11, 60, 0
13, 168400, Note_on_c, 11, 60, 62
13, 168400, Note_on_c, 11, 63, 62
13, 168528, Note_on_c, 11, 63, 0
13, 168528, Note_on_c, 11, 60, 0
13, 168560, Note_on_c, 11, 60, 62
13, 168560, Note_on_c, 11, 63, 62
13, 168688, Note_on_c, 11, 63, 0
13, 168688, Note_on_c, 11, 60, 0
13, 168720, Note_on_c, 11, 58, 62
13, 168720, Note_on_c, 11, 53, 62
13, 168848, Note_on_c, 11, 53, 0
13, 168848, Note_on_c, 11, 58, 0
13, 168880, Note_on_c, 11, 58, 62
13, 168880, Note_on_c, 11, 53, 62
13, 169008, Note_on_c, 11, 53, 0
13, 169008, Note_on_c, 11, 58, 0
13, 169040, Note_on_c, 11, 58, 62
13, 169040, Note_on_c, 11, 53, 62
13, 169168, Note_on_c, 11, 53, 0
13, 169168, Note_on_c, 11, 58, 0
13, 169200, Note_on_c, 11, 58, 62
13, 169200, Note_on_c, 11, 53, 62
13, 169328, Note_on_c, 11, 53, 0
13, 169328, Note_on_c, 11, 58, 0
13, 169360, Note_on_c, 11, 58, 62
13, 169360, Note_on_c, 11, 53, 62
13, 169488, Note_on_c, 11, 53, 0
13, 169488, Note_on_c, 11, 58, 0
13, 169520, Note_on_c, 11, 58, 62
13, 169520, Note_on_c, 11, 53, 62
13, 169648, Note_on_c, 11, 53, 0
13, 169648, Note_on_c, 11, 58, 0
13, 169680, Note_on_c, 11, 58, 62
13, 169680, Note_on_c, 11, 53, 62
13, 169808, Note_on_c, 11, 53, 0
13, 169808, Note_on_c, 11, 58, 0
13, 169840, Note_on_c, 11, 58, 62
13, 169840, Note_on_c, 11, 53, 62
13, 169968, Note_on_c, 11, 53, 0
13, 169968, Note_on_c, 11, 58, 0
13, 170000, Note_on_c, 11, 58, 62
13, 170000, Note_on_c, 11, 53, 62
13, 170128, Note_on_c, 11, 53, 0
13, 170128, Note_on_c, 11, 58, 0
13, 170160, Note_on_c, 11, 53, 62
13, 170160, Note_on_c, 11, 58, 62
13, 170288, Note_on_c, 11, 58, 0
13, 170288, Note_on_c, 11, 53, 0
13, 170320, Note_on_c, 11, 58, 62
13, 170320, Note_on_c, 11, 53, 62
13, 170448, Note_on_c, 11, 53, 0
13, 170448, Note_on_c, 11, 58, 0
13, 170480, Note_on_c, 11, 53, 62
13, 170480, Note_on_c, 11, 58, 62
13, 170608, Note_on_c, 11, 58, 0
13, 170608, Note_on_c, 11, 53, 0
13, 170640, Note_on_c, 11, 58, 62
13, 170640, Note_on_c, 11, 53, 62
13, 170768, Note_on_c, 11, 53, 0
13, 170768, Note_on_c, 11, 58, 0
13, 170800, Note_on_c, 11, 53, 62
13, 170800, Note_on_c, 11, 58, 62
13, 170928, Note_on_c, 11, 58, 0
13, 170928, Note_on_c, 11, 53, 0
13, 170960, Note_on_c, 11, 58, 62
13, 170960, Note_on_c, 11, 53, 62
13, 171088, Note_on_c, 11, 53, 0
13, 171088, Note_on_c, 11, 58, 0
13, 171120, Note_on_c, 11, 53, 62
13, 171120, Note_on_c, 11, 58, 62
13, 171248, Note_on_c, 11, 58, 0
13, 171248, Note_on_c, 11, 53, 0
13, 171280, Note_on_c, 11, 53, 62
13, 171280, Note_on_c, 11, 58, 62
13, 171408, Note_on_c, 11, 58, 0
13, 171408, Note_on_c, 11, 53, 0
13, 171440, Note_on_c, 11, 53, 62
13, 171440, Note_on_c, 11, 58, 62
13, 171568, Note_on_c, 11, 58, 0
13, 171568, Note_on_c, 11, 53, 0
13, 171600, Note_on_c, 11, 57, 62
13, 171600, Note_on_c, 11, 53, 62
13, 171728, Note_on_c, 11, 53, 0
13, 171728, Note_on_c, 11, 57, 0
13, 171760, Note_on_c, 11, 57, 62
13, 171760, Note_on_c, 11, 53, 62
13, 171888, Note_on_c, 11, 53, 0
13, 171888, Note_on_c, 11, 57, 0
13, 171920, Note_on_c, 11, 53, 62
13, 171920, Note_on_c, 11, 57, 62
13, 172048, Note_on_c, 11, 57, 0
13, 172048, Note_on_c, 11, 53, 0
13, 172080, Note_on_c, 11, 53, 62
13, 172080, Note_on_c, 11, 57, 62
13, 172208, Note_on_c, 11, 57, 0
13, 172208, Note_on_c, 11, 53, 0
13, 172240, Note_on_c, 11, 57, 62
13, 172240, Note_on_c, 11, 53, 62
13, 172368, Note_on_c, 11, 53, 0
13, 172368, Note_on_c, 11, 57, 0
13, 172400, Note_on_c, 11, 53, 62
13, 172400, Note_on_c, 11, 57, 62
13, 172528, Note_on_c, 11, 57, 0
13, 172528, Note_on_c, 11, 53, 0
13, 172560, Note_on_c, 11, 53, 127
13, 172560, Note_on_c, 11, 58, 127
13, 172688, Note_on_c, 11, 58, 0
13, 172688, Note_on_c, 11, 53, 0
13, 172720, Note_on_c, 11, 53, 95
13, 172720, Note_on_c, 11, 58, 95
13, 172848, Note_on_c, 11, 58, 0
13, 172848, Note_on_c, 11, 53, 0
13, 172880, Note_on_c, 11, 58, 95
13, 172880, Note_on_c, 11, 53, 95
13, 173008, Note_on_c, 11, 53, 0
13, 173008, Note_on_c, 11, 58, 0
13, 173040, Note_on_c, 11, 53, 62
13, 173040, Note_on_c, 11, 58, 62
13, 173168, Note_on_c, 11, 58, 0
13, 173168, Note_on_c, 11, 53, 0
13, 173200, Note_on_c, 11, 58, 62
13, 173200, Note_on_c, 11, 53, 62
13, 173328, Note_on_c, 11, 53, 0
13, 173328, Note_on_c, 11, 58, 0
13, 173360, Note_on_c, 11, 53, 62
13, 173360, Note_on_c, 11, 58, 62
13, 173488, Note_on_c, 11, 58, 0
13, 173488, Note_on_c, 11, 53, 0
13, 173520, Note_on_c, 11, 53, 62
13, 173520, Note_on_c, 11, 58, 62
13, 173648, Note_on_c, 11, 58, 0
13, 173648, Note_on_c, 11, 53, 0
13, 173680, Note_on_c, 11, 53, 62
13, 173680, Note_on_c, 11, 58, 62
13, 173808, Note_on_c, 11, 58, 0
13, 173808, Note_on_c, 11, 53, 0
13, 173840, Note_on_c, 11, 53, 62
13, 173840, Note_on_c, 11, 58, 62
13, 173968, Note_on_c, 11, 58, 0
13, 173968, Note_on_c, 11, 53, 0
13, 174000, Note_on_c, 11, 53, 62
13, 174000, Note_on_c, 11, 58, 62
13, 174128, Note_on_c, 11, 58, 0
13, 174128, Note_on_c, 11, 53, 0
13, 174160, Note_on_c, 11, 58, 62
13, 174160, Note_on_c, 11, 53, 62
13, 174288, Note_on_c, 11, 53, 0
13, 174288, Note_on_c, 11, 58, 0
13, 174320, Note_on_c, 11, 53, 62
13, 174320, Note_on_c, 11, 58, 62
13, 174448, Note_on_c, 11, 58, 0
13, 174448, Note_on_c, 11, 53, 0
13, 174480, Note_on_c, 11, 53, 62
13, 174480, Note_on_c, 11, 58, 62
13, 174608, Note_on_c, 11, 58, 0
13, 174608, Note_on_c, 11, 53, 0
13, 174640, Note_on_c, 11, 53, 62
13, 174640, Note_on_c, 11, 58, 62
13, 174768, Note_on_c, 11, 58, 0
13, 174768, Note_on_c, 11, 53, 0
13, 174800, Note_on_c, 11, 53, 62
13, 174800, Note_on_c, 11, 58, 62
13, 174928, Note_on_c, 11, 58, 0
13, 174928, Note_on_c, 11, 53, 0
13, 174960, Note_on_c, 11, 53, 62
13, 174960, Note_on_c, 11, 58, 62
13, 175088, Note_on_c, 11, 58, 0
13, 175088, Note_on_c, 11, 53, 0
13, 175120, Note_on_c, 11, 58, 62
13, 175120, Note_on_c, 11, 53, 62
13, 175248, Note_on_c, 11, 53, 0
13, 175248, Note_on_c, 11, 58, 0
13, 175280, Note_on_c, 11, 53, 62
13, 175280, Note_on_c, 11, 58, 62
13, 175408, Note_on_c, 11, 58, 0
13, 175408, Note_on_c, 11, 53, 0
13, 175440, Note_on_c, 11, 53, 62
13, 175440, Note_on_c, 11, 58, 62
13, 175568, Note_on_c, 11, 58, 0
13, 175568, Note_on_c, 11, 53, 0
13, 175600, Note_on_c, 11, 53, 62
13, 175600, Note_on_c, 11, 58, 62
13, 175728, Note_on_c, 11, 58, 0
13, 175728, Note_on_c, 11, 53, 0
13, 175760, Note_on_c, 11, 53, 62
13, 175760, Note_on_c, 11, 58, 62
13, 175888, Note_on_c, 11, 58, 0
13, 175888, Note_on_c, 11, 53, 0
13, 175920, Note_on_c, 11, 53, 62
13, 175920, Note_on_c, 11, 58, 62
13, 176048, Note_on_c, 11, 58, 0
13, 176048, Note_on_c, 11, 53, 0
13, 176080, Note_on_c, 11, 58, 62
13, 176080, Note_on_c, 11, 53, 62
13, 176208, Note_on_c, 11, 53, 0
13, 176208, Note_on_c, 11, 58, 0
13, 176240, Note_on_c, 11, 53, 62
13, 176240, Note_on_c, 11, 58, 62
13, 176368, Note_on_c, 11, 58, 0
13, 176368, Note_on_c, 11, 53, 0
13, 176400, Note_on_c, 11, 63, 62
13, 176400, Note_on_c, 11, 60, 62
13, 176528, Note_on_c, 11, 60, 0
13, 176528, Note_on_c, 11, 63, 0
13, 176560, Note_on_c, 11, 60, 62
13, 176560, Note_on_c, 11, 63, 62
13, 176688, Note_on_c, 11, 63, 0
13, 176688, Note_on_c, 11, 60, 0
13, 176720, Note_on_c, 11, 63, 62
13, 176720, Note_on_c, 11, 60, 62
13, 176848, Note_on_c, 11, 60, 0
13, 176848, Note_on_c, 11, 63, 0
13, 176880, Note_on_c, 11, 60, 62
13, 176880, Note_on_c, 11, 63, 62
13, 177008, Note_on_c, 11, 63, 0
13, 177008, Note_on_c, 11, 60, 0
13, 177040, Note_on_c, 11, 60, 62
13, 177040, Note_on_c, 11, 63, 62
13, 177168, Note_on_c, 11, 63, 0
13, 177168, Note_on_c, 11, 60, 0
13, 177200, Note_on_c, 11, 60, 62
13, 177200, Note_on_c, 11, 63, 62
13, 177328, Note_on_c, 11, 63, 0
13, 177328, Note_on_c, 11, 60, 0
13, 177360, Note_on_c, 11, 60, 62
13, 177360, Note_on_c, 11, 63, 62
13, 177488, Note_on_c, 11, 63, 0
13, 177488, Note_on_c, 11, 60, 0
13, 177520, Note_on_c, 11, 63, 62
13, 177520, Note_on_c, 11, 60, 62
13, 177648, Note_on_c, 11, 60, 0
13, 177648, Note_on_c, 11, 63, 0
13, 177680, Note_on_c, 11, 63, 62
13, 177680, Note_on_c, 11, 60, 62
13, 177808, Note_on_c, 11, 60, 0
13, 177808, Note_on_c, 11, 63, 0
13, 177840, Note_on_c, 11, 60, 62
13, 177840, Note_on_c, 11, 63, 62
13, 177968, Note_on_c, 11, 63, 0
13, 177968, Note_on_c, 11, 60, 0
13, 178000, Note_on_c, 11, 60, 62
13, 178000, Note_on_c, 11, 63, 62
13, 178128, Note_on_c, 11, 63, 0
13, 178128, Note_on_c, 11, 60, 0
13, 178160, Note_on_c, 11, 60, 62
13, 178160, Note_on_c, 11, 63, 62
13, 178288, Note_on_c, 11, 63, 0
13, 178288, Note_on_c, 11, 60, 0
13, 178320, Note_on_c, 11, 60, 62
13, 178320, Note_on_c, 11, 63, 62
13, 178448, Note_on_c, 11, 63, 0
13, 178448, Note_on_c, 11, 60, 0
13, 178480, Note_on_c, 11, 60, 62
13, 178480, Note_on_c, 11, 63, 62
13, 178608, Note_on_c, 11, 63, 0
13, 178608, Note_on_c, 11, 60, 0
13, 178640, Note_on_c, 11, 60, 62
13, 178640, Note_on_c, 11, 63, 62
13, 178768, Note_on_c, 11, 63, 0
13, 178768, Note_on_c, 11, 60, 0
13, 178800, Note_on_c, 11, 60, 62
13, 178800, Note_on_c, 11, 63, 62
13, 178928, Note_on_c, 11, 63, 0
13, 178928, Note_on_c, 11, 60, 0
13, 178960, Note_on_c, 11, 63, 62
13, 178960, Note_on_c, 11, 60, 62
13, 179088, Note_on_c, 11, 60, 0
13, 179088, Note_on_c, 11, 63, 0
13, 179120, Note_on_c, 11, 60, 62
13, 179120, Note_on_c, 11, 63, 62
13, 179248, Note_on_c, 11, 63, 0
13, 179248, Note_on_c, 11, 60, 0
13, 179280, Note_on_c, 11, 63, 62
13, 179280, Note_on_c, 11, 60, 62
13, 179408, Note_on_c, 11, 60, 0
13, 179408, Note_on_c, 11, 63, 0
13, 179440, Note_on_c, 11, 60, 62
13, 179440, Note_on_c, 11, 63, 62
13, 179568, Note_on_c, 11, 63, 0
13, 179568, Note_on_c, 11, 60, 0
13, 179600, Note_on_c, 11, 60, 62
13, 179600, Note_on_c, 11, 63, 62
13, 179728, Note_on_c, 11, 63, 0
13, 179728, Note_on_c, 11, 60, 0
13, 179760, Note_on_c, 11, 60, 62
13, 179760, Note_on_c, 11, 63, 62
13, 179888, Note_on_c, 11, 63, 0
13, 179888, Note_on_c, 11, 60, 0
13, 179920, Note_on_c, 11, 60, 62
13, 179920, Note_on_c, 11, 63, 62
13, 180048, Note_on_c, 11, 63, 0
13, 180048, Note_on_c, 11, 60, 0
13, 180080, Note_on_c, 11, 60, 62
13, 180080, Note_on_c, 11, 63, 62
13, 180208, Note_on_c, 11, 63, 0
13, 180208, Note_on_c, 11, 60, 0
13, 180240, Note_on_c, 11, 53, 62
13, 180240, Note_on_c, 11, 58, 62
13, 180368, Note_on_c, 11, 58, 0
13, 180368, Note_on_c, 11, 53, 0
13, 180400, Note_on_c, 11, 58, 62
13, 180400, Note_on_c, 11, 53, 62
13, 180528, Note_on_c, 11, 53, 0
13, 180528, Note_on_c, 11, 58, 0
13, 180560, Note_on_c, 11, 53, 62
13, 180560, Note_on_c, 11, 58, 62
13, 180688, Note_on_c, 11, 58, 0
13, 180688, Note_on_c, 11, 53, 0
13, 180720, Note_on_c, 11, 58, 62
13, 180720, Note_on_c, 11, 53, 62
13, 180848, Note_on_c, 11, 53, 0
13, 180848, Note_on_c, 11, 58, 0
13, 180880, Note_on_c, 11, 58, 62
13, 180880, Note_on_c, 11, 53, 62
13, 181008, Note_on_c, 11, 53, 0
13, 181008, Note_on_c, 11, 58, 0
13, 181040, Note_on_c, 11, 53, 62
13, 181040, Note_on_c, 11, 58, 62
13, 181168, Note_on_c, 11, 58, 0
13, 181168, Note_on_c, 11, 53, 0
13, 181200, Note_on_c, 11, 53, 62
13, 181200, Note_on_c, 11, 58, 62
13, 181328, Note_on_c, 11, 58, 0
13, 181328, Note_on_c, 11, 53, 0
13, 181360, Note_on_c, 11, 53, 62
13, 181360, Note_on_c, 11, 58, 62
13, 181488, Note_on_c, 11, 58, 0
13, 181488, Note_on_c, 11, 53, 0
13, 181520, Note_on_c, 11, 53, 62
13, 181520, Note_on_c, 11, 58, 62
13, 181648, Note_on_c, 11, 58, 0
13, 181648, Note_on_c, 11, 53, 0
13, 181680, Note_on_c, 11, 58, 62
13, 181680, Note_on_c, 11, 53, 62
13, 181808, Note_on_c, 11, 53, 0
13, 181808, Note_on_c, 11, 58, 0
13, 181840, Note_on_c, 11, 58, 62
13, 181840, Note_on_c, 11, 53, 62
13, 181968, Note_on_c, 11, 53, 0
13, 181968, Note_on_c, 11, 58, 0
13, 182000, Note_on_c, 11, 53, 62
13, 182000, Note_on_c, 11, 58, 62
13, 182128, Note_on_c, 11, 58, 0
13, 182128, Note_on_c, 11, 53, 0
13, 182160, Note_on_c, 11, 53, 62
13, 182160, Note_on_c, 11, 58, 62
13, 182288, Note_on_c, 11, 58, 0
13, 182288, Note_on_c, 11, 53, 0
13, 182320, Note_on_c, 11, 58, 62
13, 182320, Note_on_c, 11, 53, 62
13, 182448, Note_on_c, 11, 53, 0
13, 182448, Note_on_c, 11, 58, 0
13, 182480, Note_on_c, 11, 53, 62
13, 182480, Note_on_c, 11, 58, 62
13, 182608, Note_on_c, 11, 58, 0
13, 182608, Note_on_c, 11, 53, 0
13, 182640, Note_on_c, 11, 58, 62
13, 182640, Note_on_c, 11, 53, 62
13, 182768, Note_on_c, 11, 53, 0
13, 182768, Note_on_c, 11, 58, 0
13, 182800, Note_on_c, 11, 58, 62
13, 182800, Note_on_c, 11, 53, 62
13, 182928, Note_on_c, 11, 53, 0
13, 182928, Note_on_c, 11, 58, 0
13, 182960, Note_on_c, 11, 53, 62
13, 182960, Note_on_c, 11, 58, 62
13, 183088, Note_on_c, 11, 58, 0
13, 183088, Note_on_c, 11, 53, 0
13, 183120, Note_on_c, 11, 53, 62
13, 183120, Note_on_c, 11, 57, 62
13, 183248, Note_on_c, 11, 57, 0
13, 183248, Note_on_c, 11, 53, 0
13, 183280, Note_on_c, 11, 57, 62
13, 183280, Note_on_c, 11, 53, 62
13, 183408, Note_on_c, 11, 53, 0
13, 183408, Note_on_c, 11, 57, 0
13, 183440, Note_on_c, 11, 57, 62
13, 183440, Note_on_c, 11, 53, 62
13, 183568, Note_on_c, 11, 53, 0
13, 183568, Note_on_c, 11, 57, 0
13, 183600, Note_on_c, 11, 57, 62
13, 183600, Note_on_c, 11, 53, 62
13, 183728, Note_on_c, 11, 53, 0
13, 183728, Note_on_c, 11, 57, 0
13, 183760, Note_on_c, 11, 57, 62
13, 183760, Note_on_c, 11, 53, 62
13, 183888, Note_on_c, 11, 53, 0
13, 183888, Note_on_c, 11, 57, 0
13, 183920, Note_on_c, 11, 53, 62
13, 183920, Note_on_c, 11, 57, 62
13, 184048, Note_on_c, 11, 57, 0
13, 184048, Note_on_c, 11, 53, 0
13, 184080, Note_on_c, 11, 58, 120
13, 184200, Note_on_c, 11, 58, 0
13, 184320, Note_on_c, 11, 53, 90
13, 184704, Note_on_c, 11, 53, 0
13, 184800, Note_on_c, 11, 53, 90
13, 185160, Note_on_c, 11, 53, 0
13, 185280, Note_on_c, 11, 53, 90
13, 185664, Note_on_c, 11, 53, 0
13, 185760, Note_on_c, 11, 53, 90
13, 186120, Note_on_c, 11, 53, 0
13, 186240, Note_on_c, 11, 53, 90
13, 186624, Note_on_c, 11, 53, 0
13, 186720, Note_on_c, 11, 53, 90
13, 187080, Note_on_c, 11, 53, 0
13, 187200, Note_on_c, 11, 53, 90
13, 187584, Note_on_c, 11, 53, 0
13, 187680, Note_on_c, 11, 53, 90
13, 188040, Note_on_c, 11, 53, 0
13, 188160, Note_on_c, 11, 53, 90
13, 188544, Note_on_c, 11, 53, 0
13, 188640, Note_on_c, 11, 53, 90
13, 189000, Note_on_c, 11, 53, 0
13, 189120, Note_on_c, 11, 53, 90
13, 189504, Note_on_c, 11, 53, 0
13, 189600, Note_on_c, 11, 53, 90
13, 189960, Note_on_c, 11, 53, 0
13, 190080, Note_on_c, 11, 53, 90
13, 190464, Note_on_c, 11, 53, 0
13, 190560, Note_on_c, 11, 53, 90
13, 190920, Note_on_c, 11, 53, 0
13, 191040, Note_on_c, 11, 53, 90
13, 191424, Note_on_c, 11, 53, 0
13, 191520, Note_on_c, 11, 53, 90
13, 191640, Note_on_c, 11, 53, 0
13, 192720, Note_on_c, 11, 58, 120
13, 192840, Note_on_c, 11, 58, 0
13, 192960, Note_on_c, 11, 53, 120
13, 193344, Note_on_c, 11, 53, 0
13, 193440, Note_on_c, 11, 50, 120
13, 193560, Note_on_c, 11, 50, 0
13, 193680, Note_on_c, 11, 58, 120
13, 193800, Note_on_c, 11, 58, 0
13, 193920, Note_on_c, 11, 50, 120
13, 194304, Note_on_c, 11, 50, 0
13, 194400, Note_on_c, 11, 50, 120
13, 194760, Note_on_c, 11, 50, 0
13, 194880, Note_on_c, 11, 50, 120
13, 195264, Note_on_c, 11, 50, 0
13, 195360, Note_on_c, 11, 50, 120
13, 195480, Note_on_c, 11, 50, 0
13, 223440, Note_on_c, 11, 53, 32
13, 223476, Note_on_c, 11, 53, 0
13, 223560, Note_on_c, 11, 51, 32
13, 223596, Note_on_c, 11, 51, 0
13, 223680, Note_on_c, 11, 50, 32
13, 223716, Note_on_c, 11, 50, 0
13, 223800, Note_on_c, 11, 51, 32
13, 223836, Note_on_c, 11, 51, 0
13, 223920, Note_on_c, 11, 53, 32
13, 223956, Note_on_c, 11, 53, 0
13, 224400, Note_on_c, 11, 54, 32
13, 224436, Note_on_c, 11, 54, 0
13, 224520, Note_on_c, 11, 53, 32
13, 224556, Note_on_c, 11, 53, 0
13, 224640, Note_on_c, 11, 51, 32
13, 224676, Note_on_c, 11, 51, 0
13, 224760, Note_on_c, 11, 53, 32
13, 224796, Note_on_c, 11, 53, 0
13, 224880, Note_on_c, 11, 54, 32
13, 224916, Note_on_c, 11, 54, 0
13, 225360, Note_on_c, 11, 50, 32
13, 225396, Note_on_c, 11, 50, 0
13, 225480, Note_on_c, 11, 51, 32
13, 225516, Note_on_c, 11, 51, 0
13, 225600, Note_on_c, 11, 50, 48
13, 225636, Note_on_c, 11, 50, 0
13, 225720, Note_on_c, 11, 51, 48
13, 225756, Note_on_c, 11, 51, 0
13, 225840, Note_on_c, 11, 53, 48
13, 225876, Note_on_c, 11, 53, 0
13, 226320, Note_on_c, 11, 53, 48
13, 226356, Note_on_c, 11, 53, 0
13, 226440, Note_on_c, 11, 51, 48
13, 226476, Note_on_c, 11, 51, 0
13, 226560, Note_on_c, 11, 50, 48
13, 226596, Note_on_c, 11, 50, 0
13, 226680, Note_on_c, 11, 51, 48
13, 226716, Note_on_c, 11, 51, 0
13, 226800, Note_on_c, 11, 53, 48
13, 226836, Note_on_c, 11, 53, 0
13, 227040, Note_on_c, 11, 53, 48
13, 227076, Note_on_c, 11, 53, 0
13, 227160, Note_on_c, 11, 58, 48
13, 227196, Note_on_c, 11, 58, 0
13, 227280, Note_on_c, 11, 62, 48
13, 227316, Note_on_c, 11, 62, 0
13, 227520, Note_on_c, 11, 58, 48
13, 227556, Note_on_c, 11, 58, 0
13, 227640, Note_on_c, 11, 62, 48
13, 227676, Note_on_c, 11, 62, 0
13, 227760, Note_on_c, 11, 65, 48
13, 227796, Note_on_c, 11, 65, 0
13, 228240, Note_on_c, 11, 53, 48
13, 228276, Note_on_c, 11, 53, 0
13, 228360, Note_on_c, 11, 51, 48
13, 228396, Note_on_c, 11, 51, 0
13, 228480, Note_on_c, 11, 50, 45
13, 228516, Note_on_c, 11, 50, 0
13, 228600, Note_on_c, 11, 51, 46
13, 228636, Note_on_c, 11, 51, 0
13, 228720, Note_on_c, 11, 53, 48
13, 228756, Note_on_c, 11, 53, 0
13, 228960, Note_on_c, 11, 53, 50
13, 228996, Note_on_c, 11, 53, 0
13, 229080, Note_on_c, 11, 58, 52
13, 229116, Note_on_c, 11, 58, 0
13, 229200, Note_on_c, 11, 62, 53
13, 229236, Note_on_c, 11, 62, 0
13, 229440, Note_on_c, 11, 58, 56
13, 229476, Note_on_c, 11, 58, 0
13, 229560, Note_on_c, 11, 62, 57
13, 229596, Note_on_c, 11, 62, 0
13, 229680, Note_on_c, 11, 65, 58
13, 229716, Note_on_c, 11, 65, 0
13, 230160, Note_on_c, 11, 53, 64
13, 230196, Note_on_c, 11, 53, 0
13, 230280, Note_on_c, 11, 55, 65
13, 230316, Note_on_c, 11, 55, 0
13, 230400, Note_on_c, 11, 56, 66
13, 230436, Note_on_c, 11, 56, 0
13, 230520, Note_on_c, 11, 55, 68
13, 230556, Note_on_c, 11, 55, 0
13, 230640, Note_on_c, 11, 56, 69
13, 230676, Note_on_c, 11, 56, 0
13, 230760, Note_on_c, 11, 55, 70
13, 230796, Note_on_c, 11, 55, 0
13, 230880, Note_on_c, 11, 53, 72
13, 230916, Note_on_c, 11, 53, 0
13, 231000, Note_on_c, 11, 51, 73
13, 231036, Note_on_c, 11, 51, 0
13, 231120, Note_on_c, 11, 53, 74
13, 231156, Note_on_c, 11, 53, 0
13, 231240, Note_on_c, 11, 51, 76
13, 231276, Note_on_c, 11, 51, 0
13, 231360, Note_on_c, 11, 50, 77
13, 231396, Note_on_c, 11, 50, 0
13, 231480, Note_on_c, 11, 48, 78
13, 231516, Note_on_c, 11, 48, 0
13, 231600, Note_on_c, 11, 50, 80
13, 231636, Note_on_c, 11, 50, 0
13, 231720, Note_on_c, 11, 48, 81
13, 231756, Note_on_c, 11, 48, 0
13, 231840, Note_on_c, 11, 46, 82
13, 231876, Note_on_c, 11, 46, 0
13, 231960, Note_on_c, 11, 48, 84
13, 231996, Note_on_c, 11, 48, 0
13, 232080, Note_on_c, 11, 50, 85
13, 232116, Note_on_c, 11, 50, 0
13, 232200, Note_on_c, 11, 51, 86
13, 232236, Note_on_c, 11, 51, 0
13, 232320, Note_on_c, 11, 53, 88
13, 232356, Note_on_c, 11, 53, 0
13, 232440, Note_on_c, 11, 55, 89
13, 232476, Note_on_c, 11, 55, 0
13, 232560, Note_on_c, 11, 56, 90
13, 232596, Note_on_c, 11, 56, 0
13, 232680, Note_on_c, 11, 58, 92
13, 232716, Note_on_c, 11, 58, 0
13, 232800, Note_on_c, 11, 60, 93
13, 232836, Note_on_c, 11, 60, 0
13, 232920, Note_on_c, 11, 62, 94
13, 232956, Note_on_c, 11, 62, 0
13, 233040, Note_on_c, 11, 63, 96
13, 233076, Note_on_c, 11, 63, 0
13, 233160, Note_on_c, 11, 64, 97
13, 233196, Note_on_c, 11, 64, 0
13, 233280, Note_on_c, 11, 65, 127
13, 233316, Note_on_c, 11, 65, 0
13, 233400, Note_on_c, 11, 58, 127
13, 233436, Note_on_c, 11, 58, 0
13, 233520, Note_on_c, 11, 62, 127
13, 233556, Note_on_c, 11, 62, 0
13, 233640, Note_on_c, 11, 58, 127
13, 233676, Note_on_c, 11, 58, 0
13, 233760, Note_on_c, 11, 62, 127
13, 233796, Note_on_c, 11, 62, 0
13, 233880, Note_on_c, 11, 58, 127
13, 233916, Note_on_c, 11, 58, 0
13, 234000, Note_on_c, 11, 62, 127
13, 234036, Note_on_c, 11, 62, 0
13, 234120, Note_on_c, 11, 58, 127
13, 234156, Note_on_c, 11, 58, 0
13, 234240, Note_on_c, 11, 62, 127
13, 234276, Note_on_c, 11, 62, 0
13, 234360, Note_on_c, 11, 58, 127
13, 234396, Note_on_c, 11, 58, 0
13, 234480, Note_on_c, 11, 50, 127
13, 234516, Note_on_c, 11, 50, 0
13, 234600, Note_on_c, 11, 58, 127
13, 234636, Note_on_c, 11, 58, 0
13, 234720, Note_on_c, 11, 62, 127
13, 234756, Note_on_c, 11, 62, 0
13, 234840, Note_on_c, 11, 58, 127
13, 234876, Note_on_c, 11, 58, 0
13, 234960, Note_on_c, 11, 50, 127
13, 234996, Note_on_c, 11, 50, 0
13, 235080, Note_on_c, 11, 58, 127
13, 235116, Note_on_c, 11, 58, 0
13, 238080, Note_on_c, 11, 51, 89
13, 238080, Note_on_c, 11, 55, 89
13, 238230, Note_on_c, 11, 55, 0
13, 238230, Note_on_c, 11, 51, 0
13, 240000, Note_on_c, 11, 51, 89
13, 240000, Note_on_c, 11, 55, 89
13, 240150, Note_on_c, 11, 55, 0
13, 240150, Note_on_c, 11, 51, 0
13, 256320, Control_c, 11, 7, 100
13, 257280, Note_on_c, 11, 63, 50
13, 257424, Note_on_c, 11, 63, 0
13, 257520, Note_on_c, 11, 58, 50
13, 257664, Note_on_c, 11, 58, 0
13, 257760, Note_on_c, 11, 58, 50
13, 257904, Note_on_c, 11, 58, 0
13, 258000, Note_on_c, 11, 58, 50
13, 258144, Note_on_c, 11, 58, 0
13, 258240, Note_on_c, 11, 56, 50
13, 258384, Note_on_c, 11, 56, 0
13, 258480, Note_on_c, 11, 62, 50
13, 258624, Note_on_c, 11, 62, 0
13, 258720, Note_on_c, 11, 62, 50
13, 258864, Note_on_c, 11, 62, 0
13, 258960, Note_on_c, 11, 62, 50
13, 259104, Note_on_c, 11, 62, 0
13, 259200, Note_on_c, 11, 63, 50
13, 259344, Note_on_c, 11, 63, 0
13, 259440, Note_on_c, 11, 51, 50
13, 259584, Note_on_c, 11, 51, 0
13, 259680, Note_on_c, 11, 51, 50
13, 259824, Note_on_c, 11, 51, 0
13, 259920, Note_on_c, 11, 51, 50
13, 260064, Note_on_c, 11, 51, 0
13, 260160, Note_on_c, 11, 53, 50
13, 260304, Note_on_c, 11, 53, 0
13, 260400, Note_on_c, 11, 62, 50
13, 260544, Note_on_c, 11, 62, 0
13, 260640, Note_on_c, 11, 62, 50
13, 260784, Note_on_c, 11, 62, 0
13, 260880, Note_on_c, 11, 62, 50
13, 261024, Note_on_c, 11, 62, 0
13, 261120, Note_on_c, 11, 63, 60
13, 261264, Note_on_c, 11, 63, 0
13, 261360, Note_on_c, 11, 58, 60
13, 261504, Note_on_c, 11, 58, 0
13, 261600, Note_on_c, 11, 58, 60
13, 261744, Note_on_c, 11, 58, 0
13, 261840, Note_on_c, 11, 58, 60
13, 261984, Note_on_c, 11, 58, 0
13, 262080, Note_on_c, 11, 56, 60
13, 262224, Note_on_c, 11, 56, 0
13, 262320, Note_on_c, 11, 62, 60
13, 262464, Note_on_c, 11, 62, 0
13, 262560, Note_on_c, 11, 62, 60
13, 262704, Note_on_c, 11, 62, 0
13, 262800, Note_on_c, 11, 62, 60
13, 262944, Note_on_c, 11, 62, 0
13, 263040, Note_on_c, 11, 63, 60
13, 263184, Note_on_c, 11, 63, 0
13, 263280, Note_on_c, 11, 58, 60
13, 263424, Note_on_c, 11, 58, 0
13, 263520, Note_on_c, 11, 58, 60
13, 263664, Note_on_c, 11, 58, 0
13, 263760, Note_on_c, 11, 58, 60
13, 263904, Note_on_c, 11, 58, 0
13, 264000, Note_on_c, 11, 60, 60
13, 264144, Note_on_c, 11, 60, 0
13, 264240, Note_on_c, 11, 68, 60
13, 264384, Note_on_c, 11, 68, 0
13, 264480, Note_on_c, 11, 56, 60
13, 264624, Note_on_c, 11, 56, 0
13, 264720, Note_on_c, 11, 56, 60
13, 264864, Note_on_c, 11, 56, 0
13, 264960, Note_on_c, 11, 70, 91
13, 265104, Note_on_c, 11, 70, 0
13, 265200, Note_on_c, 11, 55, 91
13, 265344, Note_on_c, 11, 55, 0
13, 265440, Note_on_c, 11, 58, 91
13, 265584, Note_on_c, 11, 58, 0
13, 265680, Note_on_c, 11, 70, 91
13, 265824, Note_on_c, 11, 70, 0
13, 265920, Note_on_c, 11, 72, 91
13, 266064, Note_on_c, 11, 72, 0
13, 266160, Note_on_c, 11, 48, 91
13, 266304, Note_on_c, 11, 48, 0
13, 266400, Note_on_c, 11, 60, 91
13, 266544, Note_on_c, 11, 60, 0
13, 266640, Note_on_c, 11, 60, 91
13, 266784, Note_on_c, 11, 60, 0
13, 266880, Note_on_c, 11, 50, 91
13, 267024, Note_on_c, 11, 50, 0
13, 267120, Note_on_c, 11, 62, 91
13, 267264, Note_on_c, 11, 62, 0
13, 267360, Note_on_c, 11, 58, 91
13, 267504, Note_on_c, 11, 58, 0
13, 267600, Note_on_c, 11, 58, 91
13, 267744, Note_on_c, 11, 58, 0
13, 267840, Note_on_c, 11, 51, 91
13, 267984, Note_on_c, 11, 51, 0
13, 268080, Note_on_c, 11, 63, 91
13, 268224, Note_on_c, 11, 63, 0
13, 268320, Note_on_c, 11, 58, 91
13, 268464, Note_on_c, 11, 58, 0
13, 268560, Note_on_c, 11, 58, 91
13, 268704, Note_on_c, 11, 58, 0
13, 268800, Note_on_c, 11, 52, 91
13, 268944, Note_on_c, 11, 52, 0
13, 269040, Note_on_c, 11, 64, 91
13, 269184, Note_on_c, 11, 64, 0
13, 269280, Note_on_c, 11, 58, 91
13, 269424, Note_on_c, 11, 58, 0
13, 269520, Note_on_c, 11, 58, 91
13, 269664, Note_on_c, 11, 58, 0
13, 269760, Note_on_c, 11, 58, 114
13, 269904, Note_on_c, 11, 58, 0
13, 270000, Note_on_c, 11, 62, 114
13, 270144, Note_on_c, 11, 62, 0
13, 270240, Note_on_c, 11, 65, 114
13, 270384, Note_on_c, 11, 65, 0
13, 270480, Note_on_c, 11, 68, 114
13, 270624, Note_on_c, 11, 68, 0
13, 270720, Note_on_c, 11, 56, 94
13, 270840, Note_on_c, 11, 56, 0
13, 270960, Note_on_c, 11, 58, 94
13, 271080, Note_on_c, 11, 58, 0
13, 271200, Note_on_c, 11, 62, 94
13, 271320, Note_on_c, 11, 62, 0
13, 271440, Note_on_c, 11, 65, 94
13, 271560, Note_on_c, 11, 65, 0
13, 271680, Note_on_c, 11, 53, 94
13, 271800, Note_on_c, 11, 53, 0
13, 271920, Note_on_c, 11, 56, 94
13, 272040, Note_on_c, 11, 56, 0
13, 272160, Note_on_c, 11, 58, 94
13, 272280, Note_on_c, 11, 58, 0
13, 272400, Note_on_c, 11, 62, 94
13, 272520, Note_on_c, 11, 62, 0
13, 272640, Note_on_c, 11, 50, 94
13, 272760, Note_on_c, 11, 50, 0
13, 272880, Note_on_c, 11, 53, 94
13, 273000, Note_on_c, 11, 53, 0
13, 273120, Note_on_c, 11, 56, 94
13, 273240, Note_on_c, 11, 56, 0
13, 273360, Note_on_c, 11, 58, 94
13, 273480, Note_on_c, 11, 58, 0
13, 273600, Note_on_c, 11, 53, 94
13, 273720, Note_on_c, 11, 53, 0
13, 273840, Note_on_c, 11, 56, 94
13, 273960, Note_on_c, 11, 56, 0
13, 274080, Note_on_c, 11, 53, 94
13, 274200, Note_on_c, 11, 53, 0
13, 274320, Note_on_c, 11, 56, 94
13, 274440, Note_on_c, 11, 56, 0
13, 274560, Note_on_c, 11, 53, 94
13, 274680, Note_on_c, 11, 53, 0
13, 274800, Note_on_c, 11, 56, 94
13, 274920, Note_on_c, 11, 56, 0
13, 275040, Note_on_c, 11, 53, 94
13, 275160, Note_on_c, 11, 53, 0
13, 275280, Note_on_c, 11, 56, 94
13, 275400, Note_on_c, 11, 56, 0
13, 275520, Note_on_c, 11, 53, 94
13, 275640, Note_on_c, 11, 53, 0
13, 275760, Note_on_c, 11, 56, 94
13, 275880, Note_on_c, 11, 56, 0
13, 276000, Note_on_c, 11, 53, 94
13, 276120, Note_on_c, 11, 53, 0
13, 276240, Note_on_c, 11, 56, 94
13, 276360, Note_on_c, 11, 56, 0
13, 276480, Note_on_c, 11, 56, 75
13, 276480, Note_on_c, 11, 53, 75
13, 276624, Note_on_c, 11, 53, 0
13, 276624, Note_on_c, 11, 56, 0
13, 276720, Note_on_c, 11, 56, 75
13, 276720, Note_on_c, 11, 53, 75
13, 276864, Note_on_c, 11, 53, 0
13, 276864, Note_on_c, 11, 56, 0
13, 276960, Note_on_c, 11, 53, 75
13, 276960, Note_on_c, 11, 56, 75
13, 277104, Note_on_c, 11, 56, 0
13, 277104, Note_on_c, 11, 53, 0
13, 277200, Note_on_c, 11, 53, 75
13, 277200, Note_on_c, 11, 56, 75
13, 277344, Note_on_c, 11, 56, 0
13, 277344, Note_on_c, 11, 53, 0
13, 277440, Note_on_c, 11, 55, 94
13, 277440, Note_on_c, 11, 51, 94
13, 277584, Note_on_c, 11, 51, 0
13, 277584, Note_on_c, 11, 55, 0
13, 277680, Note_on_c, 11, 63, 94
13, 277680, Note_on_c, 11, 55, 94
13, 277824, Note_on_c, 11, 55, 0
13, 277824, Note_on_c, 11, 63, 0
13, 277920, Note_on_c, 11, 63, 94
13, 277920, Note_on_c, 11, 55, 94
13, 278064, Note_on_c, 11, 55, 0
13, 278064, Note_on_c, 11, 63, 0
13, 278160, Note_on_c, 11, 63, 94
13, 278160, Note_on_c, 11, 55, 94
13, 278304, Note_on_c, 11, 55, 0
13, 278304, Note_on_c, 11, 63, 0
13, 278400, Note_on_c, 11, 55, 94
13, 278400, Note_on_c, 11, 63, 94
13, 278544, Note_on_c, 11, 63, 0
13, 278544, Note_on_c, 11, 55, 0
13, 278640, Note_on_c, 11, 55, 94
13, 278640, Note_on_c, 11, 63, 94
13, 278784, Note_on_c, 11, 63, 0
13, 278784, Note_on_c, 11, 55, 0
13, 278880, Note_on_c, 11, 63, 94
13, 278880, Note_on_c, 11, 55, 94
13, 279024, Note_on_c, 11, 55, 0
13, 279024, Note_on_c, 11, 63, 0
13, 279120, Note_on_c, 11, 63, 94
13, 279120, Note_on_c, 11, 55, 94
13, 279264, Note_on_c, 11, 55, 0
13, 279264, Note_on_c, 11, 63, 0
13, 279360, Note_on_c, 11, 55, 94
13, 279360, Note_on_c, 11, 63, 94
13, 279504, Note_on_c, 11, 63, 0
13, 279504, Note_on_c, 11, 55, 0
13, 279600, Note_on_c, 11, 55, 94
13, 279600, Note_on_c, 11, 63, 94
13, 279744, Note_on_c, 11, 63, 0
13, 279744, Note_on_c, 11, 55, 0
13, 279840, Note_on_c, 11, 55, 94
13, 279840, Note_on_c, 11, 63, 94
13, 279984, Note_on_c, 11, 63, 0
13, 279984, Note_on_c, 11, 55, 0
13, 280080, Note_on_c, 11, 63, 94
13, 280080, Note_on_c, 11, 55, 94
13, 280224, Note_on_c, 11, 55, 0
13, 280224, Note_on_c, 11, 63, 0
13, 280320, Note_on_c, 11, 63, 94
13, 280320, Note_on_c, 11, 55, 94
13, 280464, Note_on_c, 11, 55, 0
13, 280464, Note_on_c, 11, 63, 0
13, 280560, Note_on_c, 11, 55, 94
13, 280560, Note_on_c, 11, 63, 94
13, 280704, Note_on_c, 11, 63, 0
13, 280704, Note_on_c, 11, 55, 0
13, 280800, Note_on_c, 11, 55, 94
13, 280800, Note_on_c, 11, 63, 94
13, 280944, Note_on_c, 11, 63, 0
13, 280944, Note_on_c, 11, 55, 0
13, 281040, Note_on_c, 11, 55, 94
13, 281040, Note_on_c, 11, 63, 94
13, 281184, Note_on_c, 11, 63, 0
13, 281184, Note_on_c, 11, 55, 0
13, 281280, Note_on_c, 11, 70, 114
13, 281424, Note_on_c, 11, 70, 0
13, 281520, Note_on_c, 11, 55, 94
13, 281664, Note_on_c, 11, 55, 0
13, 281760, Note_on_c, 11, 55, 94
13, 281904, Note_on_c, 11, 55, 0
13, 282000, Note_on_c, 11, 55, 94
13, 282144, Note_on_c, 11, 55, 0
13, 282240, Note_on_c, 11, 56, 94
13, 282384, Note_on_c, 11, 56, 0
13, 282480, Note_on_c, 11, 56, 94
13, 282624, Note_on_c, 11, 56, 0
13, 282720, Note_on_c, 11, 56, 94
13, 282864, Note_on_c, 11, 56, 0
13, 282960, Note_on_c, 11, 56, 94
13, 283104, Note_on_c, 11, 56, 0
13, 283200, Note_on_c, 11, 56, 94
13, 283200, Note_on_c, 11, 53, 94
13, 283344, Note_on_c, 11, 53, 0
13, 283344, Note_on_c, 11, 56, 0
13, 283440, Note_on_c, 11, 53, 94
13, 283440, Note_on_c, 11, 56, 94
13, 283584, Note_on_c, 11, 56, 0
13, 283584, Note_on_c, 11, 53, 0
13, 283680, Note_on_c, 11, 56, 94
13, 283680, Note_on_c, 11, 53, 94
13, 283824, Note_on_c, 11, 53, 0
13, 283824, Note_on_c, 11, 56, 0
13, 283920, Note_on_c, 11, 53, 94
13, 283920, Note_on_c, 11, 56, 94
13, 284064, Note_on_c, 11, 56, 0
13, 284064, Note_on_c, 11, 53, 0
13, 284160, Note_on_c, 11, 55, 94
13, 284304, Note_on_c, 11, 55, 0
13, 284400, Note_on_c, 11, 58, 94
13, 284400, Note_on_c, 11, 67, 94
13, 284544, Note_on_c, 11, 67, 0
13, 284544, Note_on_c, 11, 58, 0
13, 284640, Note_on_c, 11, 67, 94
13, 284640, Note_on_c, 11, 58, 94
13, 284784, Note_on_c, 11, 58, 0
13, 284784, Note_on_c, 11, 67, 0
13, 284880, Note_on_c, 11, 67, 94
13, 284880, Note_on_c, 11, 58, 94
13, 285024, Note_on_c, 11, 58, 0
13, 285024, Note_on_c, 11, 67, 0
13, 285120, Note_on_c, 11, 70, 114
13, 285264, Note_on_c, 11, 70, 0
13, 285360, Note_on_c, 11, 55, 94
13, 285504, Note_on_c, 11, 55, 0
13, 285600, Note_on_c, 11, 55, 94
13, 285744, Note_on_c, 11, 55, 0
13, 285840, Note_on_c, 11, 55, 94
13, 285984, Note_on_c, 11, 55, 0
13, 286080, Note_on_c, 11, 56, 94
13, 286224, Note_on_c, 11, 56, 0
13, 286320, Note_on_c, 11, 56, 94
13, 286464, Note_on_c, 11, 56, 0
13, 286560, Note_on_c, 11, 56, 94
13, 286704, Note_on_c, 11, 56, 0
13, 286800, Note_on_c, 11, 56, 94
13, 286944, Note_on_c, 11, 56, 0
13, 287040, Note_on_c, 11, 53, 94
13, 287040, Note_on_c, 11, 56, 94
13, 287184, Note_on_c, 11, 56, 0
13, 287184, Note_on_c, 11, 53, 0
13, 287280, Note_on_c, 11, 53, 94
13, 287280, Note_on_c, 11, 56, 94
13, 287424, Note_on_c, 11, 56, 0
13, 287424, Note_on_c, 11, 53, 0
13, 287520, Note_on_c, 11, 56, 94
13, 287520, Note_on_c, 11, 53, 94
13, 287664, Note_on_c, 11, 53, 0
13, 287664, Note_on_c, 11, 56, 0
13, 287760, Note_on_c, 11, 56, 94
13, 287760, Note_on_c, 11, 53, 94
13, 287904, Note_on_c, 11, 53, 0
13, 287904, Note_on_c, 11, 56, 0
13, 288000, Note_on_c, 11, 55, 75
13, 288000, Note_on_c, 11, 51, 75
13, 288288, Note_on_c, 11, 51, 0
13, 288288, Note_on_c, 11, 55, 0
13, 288480, Note_on_c, 11, 67, 90
13, 288640, Note_on_c, 11, 67, 0
13, 288640, Note_on_c, 11, 67, 98
13, 288800, Note_on_c, 11, 67, 0
13, 288800, Note_on_c, 11, 67, 92
13, 288960, Note_on_c, 11, 67, 0
13, 288960, Note_on_c, 11, 60, 120
13, 289120, Note_on_c, 11, 60, 0
13, 289120, Note_on_c, 11, 60, 127
13, 289280, Note_on_c, 11, 60, 0
13, 289280, Note_on_c, 11, 60, 127
13, 289440, Note_on_c, 11, 60, 0
13, 289440, Note_on_c, 11, 63, 102
13, 289600, Note_on_c, 11, 63, 0
13, 289600, Note_on_c, 11, 63, 106
13, 289760, Note_on_c, 11, 63, 0
13, 289760, Note_on_c, 11, 63, 96
13, 289920, Note_on_c, 11, 63, 0
13, 289920, Note_on_c, 11, 56, 116
13, 290080, Note_on_c, 11, 56, 0
13, 290080, Note_on_c, 11, 56, 116
13, 290240, Note_on_c, 11, 56, 0
13, 290240, Note_on_c, 11, 56, 108
13, 290400, Note_on_c, 11, 56, 0
13, 290400, Note_on_c, 11, 60, 110
13, 290560, Note_on_c, 11, 60, 0
13, 290560, Note_on_c, 11, 60, 120
13, 290720, Note_on_c, 11, 60, 0
13, 290720, Note_on_c, 11, 60, 110
13, 290880, Note_on_c, 11, 60, 0
13, 290880, Note_on_c, 11, 53, 127
13, 291002, Note_on_c, 11, 53, 0
13, 291120, Note_on_c, 11, 56, 127
13, 291242, Note_on_c, 11, 56, 0
13, 291360, Note_on_c, 11, 60, 127
13, 291470, Note_on_c, 11, 60, 0
13, 291600, Note_on_c, 11, 64, 127
13, 291694, Note_on_c, 11, 64, 0
13, 291840, Note_on_c, 11, 65, 112
13, 292000, Note_on_c, 11, 65, 0
13, 292000, Note_on_c, 11, 65, 112
13, 292160, Note_on_c, 11, 65, 0
13, 292160, Note_on_c, 11, 65, 80
13, 292320, Note_on_c, 11, 65, 0
13, 292320, Note_on_c, 11, 68, 90
13, 292480, Note_on_c, 11, 68, 0
13, 292480, Note_on_c, 11, 68, 96
13, 292640, Note_on_c, 11, 68, 0
13, 292640, Note_on_c, 11, 68, 112
13, 292800, Note_on_c, 11, 68, 0
13, 292800, Note_on_c, 11, 62, 114
13, 292960, Note_on_c, 11, 62, 0
13, 292960, Note_on_c, 11, 62, 127
13, 293120, Note_on_c, 11, 62, 0
13, 293120, Note_on_c, 11, 62, 118
13, 293280, Note_on_c, 11, 62, 0
13, 293280, Note_on_c, 11, 65, 106
13, 293440, Note_on_c, 11, 65, 0
13, 293440, Note_on_c, 11, 65, 98
13, 293600, Note_on_c, 11, 65, 0
13, 293600, Note_on_c, 11, 65, 94
13, 293760, Note_on_c, 11, 65, 0
13, 293760, Note_on_c, 11, 58, 118
13, 293920, Note_on_c, 11, 58, 0
13, 293920, Note_on_c, 11, 58, 106
13, 294080, Note_on_c, 11, 58, 0
13, 294080, Note_on_c, 11, 58, 92
13, 294240, Note_on_c, 11, 58, 0
13, 294240, Note_on_c, 11, 62, 72
13, 294400, Note_on_c, 11, 62, 0
13, 294400, Note_on_c, 11, 62, 76
13, 294560, Note_on_c, 11, 62, 0
13, 294560, Note_on_c, 11, 62, 82
13, 294720, Note_on_c, 11, 62, 0
13, 294720, Note_on_c, 11, 55, 127
13, 294882, Note_on_c, 11, 55, 0
13, 294960, Note_on_c, 11, 58, 127
13, 295104, Note_on_c, 11, 58, 0
13, 295200, Note_on_c, 11, 62, 127
13, 295316, Note_on_c, 11, 62, 0
13, 295440, Note_on_c, 11, 66, 127
13, 295542, Note_on_c, 11, 66, 0
13, 295680, Note_on_c, 11, 67, 114
13, 295840, Note_on_c, 11, 67, 0
13, 295840, Note_on_c, 11, 67, 122
13, 296000, Note_on_c, 11, 67, 0
13, 296000, Note_on_c, 11, 67, 122
13, 296160, Note_on_c, 11, 67, 0
13, 296160, Note_on_c, 11, 70, 127
13, 296320, Note_on_c, 11, 70, 0
13, 296320, Note_on_c, 11, 70, 127
13, 296480, Note_on_c, 11, 70, 0
13, 296480, Note_on_c, 11, 70, 127
13, 296640, Note_on_c, 11, 70, 0
13, 296640, Note_on_c, 11, 63, 127
13, 296800, Note_on_c, 11, 63, 0
13, 296800, Note_on_c, 11, 63, 127
13, 296960, Note_on_c, 11, 63, 0
13, 296960, Note_on_c, 11, 63, 127
13, 297120, Note_on_c, 11, 63, 0
13, 297120, Note_on_c, 11, 67, 127
13, 297280, Note_on_c, 11, 67, 0
13, 297280, Note_on_c, 11, 67, 127
13, 297440, Note_on_c, 11, 67, 0
13, 297440, Note_on_c, 11, 67, 127
13, 297600, Note_on_c, 11, 67, 0
13, 297600, Note_on_c, 11, 60, 127
13, 297760, Note_on_c, 11, 60, 0
13, 297760, Note_on_c, 11, 60, 127
13, 297920, Note_on_c, 11, 60, 0
13, 297920, Note_on_c, 11, 60, 127
13, 298080, Note_on_c, 11, 60, 0
13, 298080, Note_on_c, 11, 63, 127
13, 298240, Note_on_c, 11, 63, 0
13, 298240, Note_on_c, 11, 63, 127
13, 298400, Note_on_c, 11, 63, 0
13, 298400, Note_on_c, 11, 63, 127
13, 298560, Note_on_c, 11, 63, 0
13, 298560, Note_on_c, 11, 57, 127
13, 298720, Note_on_c, 11, 57, 0
13, 298720, Note_on_c, 11, 57, 127
13, 298880, Note_on_c, 11, 57, 0
13, 298880, Note_on_c, 11, 57, 122
13, 299040, Note_on_c, 11, 57, 0
13, 299040, Note_on_c, 11, 60, 127
13, 299200, Note_on_c, 11, 60, 0
13, 299200, Note_on_c, 11, 60, 127
13, 299360, Note_on_c, 11, 60, 0
13, 299360, Note_on_c, 11, 60, 127
13, 299520, Note_on_c, 11, 60, 0
13, 299520, Note_on_c, 11, 58, 99
13, 299664, Note_on_c, 11, 58, 0
13, 299760, Note_on_c, 11, 62, 99
13, 299904, Note_on_c, 11, 62, 0
13, 300000, Note_on_c, 11, 62, 99
13, 300144, Note_on_c, 11, 62, 0
13, 300240, Note_on_c, 11, 62, 99
13, 300384, Note_on_c, 11, 62, 0
13, 300480, Note_on_c, 11, 63, 99
13, 300624, Note_on_c, 11, 63, 0
13, 300720, Note_on_c, 11, 63, 99
13, 300864, Note_on_c, 11, 63, 0
13, 300960, Note_on_c, 11, 63, 99
13, 301104, Note_on_c, 11, 63, 0
13, 301200, Note_on_c, 11, 63, 99
13, 301344, Note_on_c, 11, 63, 0
13, 301440, Note_on_c, 11, 62, 99
13, 301584, Note_on_c, 11, 62, 0
13, 301680, Note_on_c, 11, 62, 99
13, 301824, Note_on_c, 11, 62, 0
13, 301920, Note_on_c, 11, 62, 99
13, 302064, Note_on_c, 11, 62, 0
13, 302160, Note_on_c, 11, 62, 99
13, 302304, Note_on_c, 11, 62, 0
13, 302400, Note_on_c, 11, 58, 99
13, 302544, Note_on_c, 11, 58, 0
13, 302640, Note_on_c, 11, 58, 99
13, 302784, Note_on_c, 11, 58, 0
13, 302880, Note_on_c, 11, 63, 99
13, 303024, Note_on_c, 11, 63, 0
13, 303120, Note_on_c, 11, 63, 99
13, 303264, Note_on_c, 11, 63, 0
13, 303360, Note_on_c, 11, 62, 99
13, 303504, Note_on_c, 11, 62, 0
13, 303600, Note_on_c, 11, 62, 99
13, 303744, Note_on_c, 11, 62, 0
13, 303840, Note_on_c, 11, 62, 99
13, 303984, Note_on_c, 11, 62, 0
13, 304080, Note_on_c, 11, 62, 99
13, 304224, Note_on_c, 11, 62, 0
13, 304320, Note_on_c, 11, 63, 99
13, 304464, Note_on_c, 11, 63, 0
13, 304560, Note_on_c, 11, 63, 99
13, 304704, Note_on_c, 11, 63, 0
13, 304800, Note_on_c, 11, 63, 99
13, 304944, Note_on_c, 11, 63, 0
13, 305040, Note_on_c, 11, 63, 99
13, 305184, Note_on_c, 11, 63, 0
13, 305280, Note_on_c, 11, 62, 99
13, 305424, Note_on_c, 11, 62, 0
13, 305520, Note_on_c, 11, 62, 99
13, 305664, Note_on_c, 11, 62, 0
13, 305760, Note_on_c, 11, 62, 99
13, 305904, Note_on_c, 11, 62, 0
13, 306000, Note_on_c, 11, 62, 99
13, 306144, Note_on_c, 11, 62, 0
13, 306240, Note_on_c, 11, 63, 99
13, 306240, Note_on_c, 11, 55, 99
13, 306384, Note_on_c, 11, 55, 0
13, 306384, Note_on_c, 11, 63, 0
13, 306480, Note_on_c, 11, 63, 99
13, 306480, Note_on_c, 11, 55, 99
13, 306624, Note_on_c, 11, 55, 0
13, 306624, Note_on_c, 11, 63, 0
13, 326400, Note_on_c, 11, 63, 62
13, 326400, Note_on_c, 11, 67, 86
13, 326634, Note_on_c, 11, 63, 0
13, 326640, Note_on_c, 11, 68, 62
13, 326640, Note_on_c, 11, 65, 66
13, 326670, Note_on_c, 11, 67, 0
13, 326736, Note_on_c, 11, 65, 0
13, 326766, Note_on_c, 11, 68, 0
13, 326880, Note_on_c, 11, 70, 80
13, 326880, Note_on_c, 11, 67, 84
13, 326946, Note_on_c, 11, 70, 0
13, 326952, Note_on_c, 11, 67, 0
13, 327120, Note_on_c, 11, 70, 80
13, 327120, Note_on_c, 11, 67, 87
13, 327184, Note_on_c, 11, 70, 0
13, 327190, Note_on_c, 11, 67, 0
13, 327360, Note_on_c, 11, 67, 90
13, 327360, Note_on_c, 11, 70, 92
13, 327600, Note_on_c, 11, 70, 0
13, 327600, Note_on_c, 11, 67, 0
13, 327600, Note_on_c, 11, 65, 65
13, 327600, Note_on_c, 11, 68, 84
13, 327840, Note_on_c, 11, 68, 0
13, 327840, Note_on_c, 11, 65, 0
13, 327840, Note_on_c, 11, 63, 66
13, 327840, Note_on_c, 11, 67, 81
13, 328080, Note_on_c, 11, 67, 0
13, 328080, Note_on_c, 11, 63, 0
13, 328080, Note_on_c, 11, 65, 77
13, 328080, Note_on_c, 11, 62, 60
13, 328320, Note_on_c, 11, 62, 0
13, 328320, Note_on_c, 11, 65, 0
13, 328320, Note_on_c, 11, 60, 75
13, 328320, Note_on_c, 11, 63, 74
13, 328560, Note_on_c, 11, 63, 0
13, 328560, Note_on_c, 11, 60, 0
13, 328560, Note_on_c, 11, 65, 80
13, 328560, Note_on_c, 11, 62, 72
13, 328800, Note_on_c, 11, 62, 0
13, 328800, Note_on_c, 11, 65, 0
13, 328800, Note_on_c, 11, 63, 75
13, 328800, Note_on_c, 11, 67, 89
13, 328860, Note_on_c, 11, 63, 0
13, 328872, Note_on_c, 11, 67, 0
13, 329040, Note_on_c, 11, 67, 80
13, 329040, Note_on_c, 11, 63, 71
13, 329092, Note_on_c, 11, 67, 0
13, 329112, Note_on_c, 11, 63, 0
13, 329280, Note_on_c, 11, 67, 107
13, 329280, Note_on_c, 11, 63, 102
13, 329520, Note_on_c, 11, 62, 65
13, 329520, Note_on_c, 11, 65, 74
13, 329530, Note_on_c, 11, 67, 0
13, 329532, Note_on_c, 11, 63, 0
13, 329760, Note_on_c, 11, 62, 0
13, 329760, Note_on_c, 11, 65, 0
13, 329760, Note_on_c, 11, 63, 75
13, 329760, Note_on_c, 11, 60, 71
13, 330000, Note_on_c, 11, 60, 0
13, 330000, Note_on_c, 11, 63, 0
13, 330000, Note_on_c, 11, 58, 69
13, 330000, Note_on_c, 11, 62, 68
13, 330240, Note_on_c, 11, 62, 0
13, 330240, Note_on_c, 11, 58, 0
13, 330240, Note_on_c, 11, 56, 50
13, 330240, Note_on_c, 11, 60, 50
13, 330480, Note_on_c, 11, 60, 0
13, 330480, Note_on_c, 11, 56, 0
13, 330480, Note_on_c, 11, 58, 55
13, 330480, Note_on_c, 11, 62, 55
13, 330720, Note_on_c, 11, 62, 0
13, 330720, Note_on_c, 11, 58, 0
13, 330720, Note_on_c, 11, 63, 60
13, 330720, Note_on_c, 11, 60, 60
13, 330960, Note_on_c, 11, 60, 0
13, 330960, Note_on_c, 11, 63, 0
13, 330960, Note_on_c, 11, 62, 65
13, 330960, Note_on_c, 11, 65, 65
13, 331200, Note_on_c, 11, 65, 0
13, 331200, Note_on_c, 11, 62, 0
13, 331200, Note_on_c, 11, 63, 71
13, 331200, Note_on_c, 11, 67, 71
13, 331440, Note_on_c, 11, 67, 0
13, 331440, Note_on_c, 11, 63, 0
13, 331440, Note_on_c, 11, 68, 76
13, 331440, Note_on_c, 11, 65, 76
13, 331680, Note_on_c, 11, 65, 0
13, 331680, Note_on_c, 11, 68, 0
13, 331680, Note_on_c, 11, 70, 81
13, 331680, Note_on_c, 11, 67, 81
13, 331920, Note_on_c, 11, 67, 0
13, 331920, Note_on_c, 11, 70, 0
13, 331920, Note_on_c, 11, 72, 86
13, 331920, Note_on_c, 11, 68, 86
13, 332014, Note_on_c, 11, 68, 0
13, 332060, Note_on_c, 11, 72, 0
13, 332160, Note_on_c, 11, 68, 81
13, 332160, Note_on_c, 11, 72, 80
13, 332352, Note_on_c, 11, 72, 0
13, 332384, Note_on_c, 11, 68, 0
13, 332400, Note_on_c, 11, 67, 83
13, 332400, Note_on_c, 11, 70, 83
13, 332514, Note_on_c, 11, 70, 0
13, 332514, Note_on_c, 11, 67, 0
13, 332640, Note_on_c, 11, 68, 102
13, 332640, Note_on_c, 11, 65, 59
13, 332724, Note_on_c, 11, 65, 0
13, 332724, Note_on_c, 11, 68, 0
13, 332880, Note_on_c, 11, 63, 80
13, 332880, Note_on_c, 11, 67, 84
13, 332956, Note_on_c, 11, 63, 0
13, 332966, Note_on_c, 11, 67, 0
13, 333120, Note_on_c, 11, 62, 53
13, 333120, Note_on_c, 11, 65, 60
13, 333426, Note_on_c, 11, 62, 0
13, 333452, Note_on_c, 11, 65, 0
13, 337440, Note_on_c, 11, 55, 127
13, 337560, Note_on_c, 11, 55, 0
13, 337920, Note_on_c, 11, 48, 48
13, 338016, Note_on_c, 11, 48, 0
13, 338160, Note_on_c, 11, 50, 48
13, 338256, Note_on_c, 11, 50, 0
13, 338400, Note_on_c, 11, 51, 48
13, 338496, Note_on_c, 11, 51, 0
13, 338640, Note_on_c, 11, 51, 48
13, 338736, Note_on_c, 11, 51, 0
13, 338880, Note_on_c, 11, 53, 48
13, 338976, Note_on_c, 11, 53, 0
13, 339120, Note_on_c, 11, 51, 48
13, 339216, Note_on_c, 11, 51, 0
13, 339360, Note_on_c, 11, 50, 48
13, 339456, Note_on_c, 11, 50, 0
13, 339600, Note_on_c, 11, 48, 48
13, 339696, Note_on_c, 11, 48, 0
13, 339840, Note_on_c, 11, 47, 53
13, 339936, Note_on_c, 11, 47, 0
13, 340080, Note_on_c, 11, 50, 53
13, 340176, Note_on_c, 11, 50, 0
13, 340320, Note_on_c, 11, 55, 53
13, 340416, Note_on_c, 11, 55, 0
13, 340560, Note_on_c, 11, 53, 53
13, 340656, Note_on_c, 11, 53, 0
13, 340800, Note_on_c, 11, 51, 53
13, 340896, Note_on_c, 11, 51, 0
13, 341040, Note_on_c, 11, 50, 53
13, 341136, Note_on_c, 11, 50, 0
13, 341280, Note_on_c, 11, 48, 53
13, 341376, Note_on_c, 11, 48, 0
13, 341520, Note_on_c, 11, 47, 53
13, 341616, Note_on_c, 11, 47, 0
13, 341760, Note_on_c, 11, 48, 53
13, 341856, Note_on_c, 11, 48, 0
13, 342000, Note_on_c, 11, 51, 53
13, 342096, Note_on_c, 11, 51, 0
13, 342240, Note_on_c, 11, 56, 53
13, 342336, Note_on_c, 11, 56, 0
13, 342480, Note_on_c, 11, 55, 53
13, 342576, Note_on_c, 11, 55, 0
13, 342720, Note_on_c, 11, 53, 53
13, 342816, Note_on_c, 11, 53, 0
13, 342960, Note_on_c, 11, 51, 53
13, 343056, Note_on_c, 11, 51, 0
13, 343200, Note_on_c, 11, 50, 53
13, 343296, Note_on_c, 11, 50, 0
13, 343440, Note_on_c, 11, 48, 53
13, 343536, Note_on_c, 11, 48, 0
13, 343680, Note_on_c, 11, 47, 53
13, 343776, Note_on_c, 11, 47, 0
13, 343920, Note_on_c, 11, 50, 53
13, 344016, Note_on_c, 11, 50, 0
13, 344160, Note_on_c, 11, 55, 53
13, 344256, Note_on_c, 11, 55, 0
13, 344400, Note_on_c, 11, 53, 53
13, 344496, Note_on_c, 11, 53, 0
13, 344640, Note_on_c, 11, 51, 53
13, 344736, Note_on_c, 11, 51, 0
13, 344880, Note_on_c, 11, 50, 53
13, 344976, Note_on_c, 11, 50, 0
13, 345120, Note_on_c, 11, 48, 53
13, 345216, Note_on_c, 11, 48, 0
13, 345360, Note_on_c, 11, 47, 53
13, 345456, Note_on_c, 11, 47, 0
13, 347760, Note_on_c, 11, 58, 80
13, 347856, Note_on_c, 11, 58, 0
13, 348000, Note_on_c, 11, 58, 80
13, 348096, Note_on_c, 11, 58, 0
13, 348240, Note_on_c, 11, 58, 80
13, 348336, Note_on_c, 11, 58, 0
13, 348720, Note_on_c, 11, 58, 80
13, 348816, Note_on_c, 11, 58, 0
13, 348960, Note_on_c, 11, 58, 80
13, 349056, Note_on_c, 11, 58, 0
13, 349200, Note_on_c, 11, 58, 80
13, 349296, Note_on_c, 11, 58, 0
13, 349680, Note_on_c, 11, 58, 80
13, 349776, Note_on_c, 11, 58, 0
13, 349920, Note_on_c, 11, 58, 80
13, 350016, Note_on_c, 11, 58, 0
13, 350160, Note_on_c, 11, 58, 80
13, 350256, Note_on_c, 11, 58, 0
13, 350640, Note_on_c, 11, 58, 80
13, 350736, Note_on_c, 11, 58, 0
13, 350880, Note_on_c, 11, 58, 80
13, 350976, Note_on_c, 11, 58, 0
13, 351120, Note_on_c, 11, 58, 80
13, 351216, Note_on_c, 11, 58, 0
13, 351600, Note_on_c, 11, 58, 80
13, 351696, Note_on_c, 11, 58, 0
13, 351840, Note_on_c, 11, 58, 80
13, 351936, Note_on_c, 11, 58, 0
13, 352080, Note_on_c, 11, 58, 80
13, 352176, Note_on_c, 11, 58, 0
13, 352560, Note_on_c, 11, 58, 80
13, 352656, Note_on_c, 11, 58, 0
13, 352800, Note_on_c, 11, 58, 80
13, 352896, Note_on_c, 11, 58, 0
13, 353040, Note_on_c, 11, 58, 80
13, 353136, Note_on_c, 11, 58, 0
13, 353280, Note_on_c, 11, 55, 127
13, 353408, Note_on_c, 11, 55, 0
13, 353440, Note_on_c, 11, 55, 127
13, 353568, Note_on_c, 11, 55, 0
13, 353600, Note_on_c, 11, 55, 127
13, 353728, Note_on_c, 11, 55, 0
13, 353760, Note_on_c, 11, 51, 62
13, 353760, Note_on_c, 11, 55, 62
13, 353888, Note_on_c, 11, 55, 0
13, 353888, Note_on_c, 11, 51, 0
13, 353920, Note_on_c, 11, 55, 62
13, 353920, Note_on_c, 11, 51, 62
13, 354048, Note_on_c, 11, 51, 0
13, 354048, Note_on_c, 11, 55, 0
13, 354080, Note_on_c, 11, 55, 62
13, 354080, Note_on_c, 11, 51, 62
13, 354208, Note_on_c, 11, 51, 0
13, 354208, Note_on_c, 11, 55, 0
13, 354240, Note_on_c, 11, 55, 62
13, 354240, Note_on_c, 11, 51, 62
13, 354368, Note_on_c, 11, 51, 0
13, 354368, Note_on_c, 11, 55, 0
13, 354400, Note_on_c, 11, 51, 62
13, 354400, Note_on_c, 11, 55, 62
13, 354528, Note_on_c, 11, 55, 0
13, 354528, Note_on_c, 11, 51, 0
13, 354560, Note_on_c, 11, 51, 62
13, 354560, Note_on_c, 11, 55, 62
13, 354688, Note_on_c, 11, 55, 0
13, 354688, Note_on_c, 11, 51, 0
13, 354720, Note_on_c, 11, 51, 62
13, 354720, Note_on_c, 11, 55, 62
13, 354848, Note_on_c, 11, 55, 0
13, 354848, Note_on_c, 11, 51, 0
13, 354880, Note_on_c, 11, 51, 62
13, 354880, Note_on_c, 11, 55, 62
13, 355008, Note_on_c, 11, 55, 0
13, 355008, Note_on_c, 11, 51, 0
13, 355040, Note_on_c, 11, 51, 62
13, 355040, Note_on_c, 11, 55, 62
13, 355168, Note_on_c, 11, 55, 0
13, 355168, Note_on_c, 11, 51, 0
13, 355200, Note_on_c, 11, 55, 62
13, 355200, Note_on_c, 11, 51, 62
13, 355328, Note_on_c, 11, 51, 0
13, 355328, Note_on_c, 11, 55, 0
13, 355360, Note_on_c, 11, 51, 62
13, 355360, Note_on_c, 11, 55, 62
13, 355488, Note_on_c, 11, 55, 0
13, 355488, Note_on_c, 11, 51, 0
13, 355520, Note_on_c, 11, 55, 62
13, 355520, Note_on_c, 11, 51, 62
13, 355648, Note_on_c, 11, 51, 0
13, 355648, Note_on_c, 11, 55, 0
13, 355680, Note_on_c, 11, 51, 62
13, 355680, Note_on_c, 11, 55, 62
13, 355808, Note_on_c, 11, 55, 0
13, 355808, Note_on_c, 11, 51, 0
13, 355840, Note_on_c, 11, 55, 62
13, 355840, Note_on_c, 11, 51, 62
13, 355968, Note_on_c, 11, 51, 0
13, 355968, Note_on_c, 11, 55, 0
13, 356000, Note_on_c, 11, 55, 62
13, 356000, Note_on_c, 11, 51, 62
13, 356128, Note_on_c, 11, 51, 0
13, 356128, Note_on_c, 11, 55, 0
13, 356160, Note_on_c, 11, 55, 62
13, 356160, Note_on_c, 11, 51, 62
13, 356288, Note_on_c, 11, 51, 0
13, 356288, Note_on_c, 11, 55, 0
13, 356320, Note_on_c, 11, 51, 62
13, 356320, Note_on_c, 11, 55, 62
13, 356448, Note_on_c, 11, 55, 0
13, 356448, Note_on_c, 11, 51, 0
13, 356480, Note_on_c, 11, 55, 62
13, 356480, Note_on_c, 11, 51, 62
13, 356608, Note_on_c, 11, 51, 0
13, 356608, Note_on_c, 11, 55, 0
13, 356640, Note_on_c, 11, 51, 62
13, 356640, Note_on_c, 11, 55, 62
13, 356768, Note_on_c, 11, 55, 0
13, 356768, Note_on_c, 11, 51, 0
13, 356800, Note_on_c, 11, 51, 62
13, 356800, Note_on_c, 11, 55, 62
13, 356928, Note_on_c, 11, 55, 0
13, 356928, Note_on_c, 11, 51, 0
13, 356960, Note_on_c, 11, 51, 62
13, 356960, Note_on_c, 11, 55, 62
13, 357088, Note_on_c, 11, 55, 0
13, 357088, Note_on_c, 11, 51, 0
13, 357120, Note_on_c, 11, 53, 62
13, 357120, Note_on_c, 11, 51, 62
13, 357248, Note_on_c, 11, 51, 0
13, 357248, Note_on_c, 11, 53, 0
13, 357280, Note_on_c, 11, 51, 62
13, 357280, Note_on_c, 11, 53, 62
13, 357408, Note_on_c, 11, 53, 0
13, 357408, Note_on_c, 11, 51, 0
13, 357440, Note_on_c, 11, 53, 62
13, 357440, Note_on_c, 11, 51, 62
13, 357568, Note_on_c, 11, 51, 0
13, 357568, Note_on_c, 11, 53, 0
13, 357600, Note_on_c, 11, 53, 62
13, 357600, Note_on_c, 11, 51, 62
13, 357728, Note_on_c, 11, 51, 0
13, 357728, Note_on_c, 11, 53, 0
13, 357760, Note_on_c, 11, 53, 62
13, 357760, Note_on_c, 11, 51, 62
13, 357888, Note_on_c, 11, 51, 0
13, 357888, Note_on_c, 11, 53, 0
13, 357920, Note_on_c, 11, 51, 62
13, 357920, Note_on_c, 11, 53, 62
13, 358048, Note_on_c, 11, 53, 0
13, 358048, Note_on_c, 11, 51, 0
13, 358080, Note_on_c, 11, 53, 62
13, 358080, Note_on_c, 11, 51, 62
13, 358208, Note_on_c, 11, 51, 0
13, 358208, Note_on_c, 11, 53, 0
13, 358240, Note_on_c, 11, 51, 62
13, 358240, Note_on_c, 11, 53, 62
13, 358368, Note_on_c, 11, 53, 0
13, 358368, Note_on_c, 11, 51, 0
13, 358400, Note_on_c, 11, 53, 62
13, 358400, Note_on_c, 11, 51, 62
13, 358528, Note_on_c, 11, 51, 0
13, 358528, Note_on_c, 11, 53, 0
13, 358560, Note_on_c, 11, 53, 62
13, 358560, Note_on_c, 11, 51, 62
13, 358688, Note_on_c, 11, 51, 0
13, 358688, Note_on_c, 11, 53, 0
13, 358720, Note_on_c, 11, 53, 62
13, 358720, Note_on_c, 11, 51, 62
13, 358848, Note_on_c, 11, 51, 0
13, 358848, Note_on_c, 11, 53, 0
13, 358880, Note_on_c, 11, 53, 62
13, 358880, Note_on_c, 11, 51, 62
13, 359008, Note_on_c, 11, 51, 0
13, 359008, Note_on_c, 11, 53, 0
13, 359040, Note_on_c, 11, 51, 62
13, 359040, Note_on_c, 11, 53, 62
13, 359168, Note_on_c, 11, 53, 0
13, 359168, Note_on_c, 11, 51, 0
13, 359200, Note_on_c, 11, 53, 62
13, 359200, Note_on_c, 11, 51, 62
13, 359328, Note_on_c, 11, 51, 0
13, 359328, Note_on_c, 11, 53, 0
13, 359360, Note_on_c, 11, 51, 62
13, 359360, Note_on_c, 11, 53, 62
13, 359488, Note_on_c, 11, 53, 0
13, 359488, Note_on_c, 11, 51, 0
13, 359520, Note_on_c, 11, 51, 62
13, 359520, Note_on_c, 11, 53, 62
13, 359648, Note_on_c, 11, 53, 0
13, 359648, Note_on_c, 11, 51, 0
13, 359680, Note_on_c, 11, 51, 62
13, 359680, Note_on_c, 11, 53, 62
13, 359808, Note_on_c, 11, 53, 0
13, 359808, Note_on_c, 11, 51, 0
13, 359840, Note_on_c, 11, 51, 62
13, 359840, Note_on_c, 11, 53, 62
13, 359968, Note_on_c, 11, 53, 0
13, 359968, Note_on_c, 11, 51, 0
13, 360000, Note_on_c, 11, 68, 62
13, 360000, Note_on_c, 11, 65, 62
13, 360128, Note_on_c, 11, 65, 0
13, 360128, Note_on_c, 11, 68, 0
13, 360160, Note_on_c, 11, 65, 62
13, 360160, Note_on_c, 11, 68, 62
13, 360288, Note_on_c, 11, 68, 0
13, 360288, Note_on_c, 11, 65, 0
13, 360320, Note_on_c, 11, 68, 62
13, 360320, Note_on_c, 11, 65, 62
13, 360448, Note_on_c, 11, 65, 0
13, 360448, Note_on_c, 11, 68, 0
13, 360480, Note_on_c, 11, 68, 62
13, 360480, Note_on_c, 11, 65, 62
13, 360608, Note_on_c, 11, 65, 0
13, 360608, Note_on_c, 11, 68, 0
13, 360640, Note_on_c, 11, 65, 62
13, 360640, Note_on_c, 11, 68, 62
13, 360768, Note_on_c, 11, 68, 0
13, 360768, Note_on_c, 11, 65, 0
13, 360800, Note_on_c, 11, 65, 62
13, 360800, Note_on_c, 11, 68, 62
13, 360928, Note_on_c, 11, 68, 0
13, 360928, Note_on_c, 11, 65, 0
13, 360960, Note_on_c, 11, 51, 62
13, 360960, Note_on_c, 11, 55, 62
13, 361088, Note_on_c, 11, 55, 0
13, 361088, Note_on_c, 11, 51, 0
13, 361120, Note_on_c, 11, 55, 62
13, 361120, Note_on_c, 11, 51, 62
13, 361248, Note_on_c, 11, 51, 0
13, 361248, Note_on_c, 11, 55, 0
13, 361280, Note_on_c, 11, 51, 62
13, 361280, Note_on_c, 11, 55, 62
13, 361408, Note_on_c, 11, 55, 0
13, 361408, Note_on_c, 11, 51, 0
13, 361440, Note_on_c, 11, 55, 62
13, 361440, Note_on_c, 11, 51, 62
13, 361568, Note_on_c, 11, 51, 0
13, 361568, Note_on_c, 11, 55, 0
13, 361600, Note_on_c, 11, 51, 62
13, 361600, Note_on_c, 11, 55, 62
13, 361728, Note_on_c, 11, 55, 0
13, 361728, Note_on_c, 11, 51, 0
13, 361760, Note_on_c, 11, 55, 62
13, 361760, Note_on_c, 11, 51, 62
13, 361888, Note_on_c, 11, 51, 0
13, 361888, Note_on_c, 11, 55, 0
13, 361920, Note_on_c, 11, 51, 62
13, 361920, Note_on_c, 11, 55, 62
13, 362048, Note_on_c, 11, 55, 0
13, 362048, Note_on_c, 11, 51, 0
13, 362080, Note_on_c, 11, 55, 62
13, 362080, Note_on_c, 11, 51, 62
13, 362208, Note_on_c, 11, 51, 0
13, 362208, Note_on_c, 11, 55, 0
13, 362240, Note_on_c, 11, 51, 62
13, 362240, Note_on_c, 11, 55, 62
13, 362368, Note_on_c, 11, 55, 0
13, 362368, Note_on_c, 11, 51, 0
13, 362400, Note_on_c, 11, 51, 62
13, 362400, Note_on_c, 11, 55, 62
13, 362528, Note_on_c, 11, 55, 0
13, 362528, Note_on_c, 11, 51, 0
13, 362560, Note_on_c, 11, 51, 62
13, 362560, Note_on_c, 11, 55, 62
13, 362688, Note_on_c, 11, 55, 0
13, 362688, Note_on_c, 11, 51, 0
13, 362720, Note_on_c, 11, 51, 62
13, 362720, Note_on_c, 11, 55, 62
13, 362848, Note_on_c, 11, 55, 0
13, 362848, Note_on_c, 11, 51, 0
13, 362880, Note_on_c, 11, 58, 62
13, 362880, Note_on_c, 11, 63, 62
13, 363008, Note_on_c, 11, 63, 0
13, 363008, Note_on_c, 11, 58, 0
13, 363040, Note_on_c, 11, 58, 62
13, 363040, Note_on_c, 11, 63, 62
13, 363168, Note_on_c, 11, 63, 0
13, 363168, Note_on_c, 11, 58, 0
13, 363200, Note_on_c, 11, 58, 62
13, 363200, Note_on_c, 11, 63, 62
13, 363328, Note_on_c, 11, 63, 0
13, 363328, Note_on_c, 11, 58, 0
13, 363360, Note_on_c, 11, 63, 62
13, 363360, Note_on_c, 11, 58, 62
13, 363488, Note_on_c, 11, 58, 0
13, 363488, Note_on_c, 11, 63, 0
13, 363520, Note_on_c, 11, 58, 62
13, 363520, Note_on_c, 11, 63, 62
13, 363648, Note_on_c, 11, 63, 0
13, 363648, Note_on_c, 11, 58, 0
13, 363680, Note_on_c, 11, 63, 62
13, 363680, Note_on_c, 11, 58, 62
13, 363808, Note_on_c, 11, 58, 0
13, 363808, Note_on_c, 11, 63, 0
13, 363840, Note_on_c, 11, 58, 62
13, 363840, Note_on_c, 11, 62, 62
13, 363968, Note_on_c, 11, 62, 0
13, 363968, Note_on_c, 11, 58, 0
13, 364000, Note_on_c, 11, 62, 62
13, 364000, Note_on_c, 11, 58, 62
13, 364128, Note_on_c, 11, 58, 0
13, 364128, Note_on_c, 11, 62, 0
13, 364160, Note_on_c, 11, 62, 62
13, 364160, Note_on_c, 11, 58, 62
13, 364288, Note_on_c, 11, 58, 0
13, 364288, Note_on_c, 11, 62, 0
13, 364320, Note_on_c, 11, 62, 62
13, 364320, Note_on_c, 11, 58, 62
13, 364448, Note_on_c, 11, 58, 0
13, 364448, Note_on_c, 11, 62, 0
13, 364480, Note_on_c, 11, 58, 62
13, 364480, Note_on_c, 11, 62, 62
13, 364608, Note_on_c, 11, 62, 0
13, 364608, Note_on_c, 11, 58, 0
13, 364640, Note_on_c, 11, 58, 62
13, 364640, Note_on_c, 11, 62, 62
13, 364768, Note_on_c, 11, 62, 0
13, 364768, Note_on_c, 11, 58, 0
13, 364800, Note_on_c, 11, 58, 127
13, 364800, Note_on_c, 11, 63, 127
13, 364928, Note_on_c, 11, 63, 0
13, 364928, Note_on_c, 11, 58, 0
13, 364960, Note_on_c, 11, 55, 95
13, 364960, Note_on_c, 11, 51, 95
13, 365088, Note_on_c, 11, 51, 0
13, 365088, Note_on_c, 11, 55, 0
13, 365120, Note_on_c, 11, 55, 95
13, 365120, Note_on_c, 11, 51, 95
13, 365248, Note_on_c, 11, 51, 0
13, 365248, Note_on_c, 11, 55, 0
13, 365280, Note_on_c, 11, 55, 62
13, 365280, Note_on_c, 11, 51, 62
13, 365408, Note_on_c, 11, 51, 0
13, 365408, Note_on_c, 11, 55, 0
13, 365440, Note_on_c, 11, 51, 62
13, 365440, Note_on_c, 11, 55, 62
13, 365568, Note_on_c, 11, 55, 0
13, 365568, Note_on_c, 11, 51, 0
13, 365600, Note_on_c, 11, 51, 62
13, 365600, Note_on_c, 11, 55, 62
13, 365728, Note_on_c, 11, 55, 0
13, 365728, Note_on_c, 11, 51, 0
13, 365760, Note_on_c, 11, 55, 62
13, 365760, Note_on_c, 11, 51, 62
13, 365888, Note_on_c, 11, 51, 0
13, 365888, Note_on_c, 11, 55, 0
13, 365920, Note_on_c, 11, 55, 62
13, 365920, Note_on_c, 11, 51, 62
13, 366048, Note_on_c, 11, 51, 0
13, 366048, Note_on_c, 11, 55, 0
13, 366080, Note_on_c, 11, 55, 62
13, 366080, Note_on_c, 11, 51, 62
13, 366208, Note_on_c, 11, 51, 0
13, 366208, Note_on_c, 11, 55, 0
13, 366240, Note_on_c, 11, 55, 62
13, 366240, Note_on_c, 11, 51, 62
13, 366368, Note_on_c, 11, 51, 0
13, 366368, Note_on_c, 11, 55, 0
13, 366400, Note_on_c, 11, 55, 62
13, 366400, Note_on_c, 11, 51, 62
13, 366528, Note_on_c, 11, 51, 0
13, 366528, Note_on_c, 11, 55, 0
13, 366560, Note_on_c, 11, 51, 62
13, 366560, Note_on_c, 11, 55, 62
13, 366688, Note_on_c, 11, 55, 0
13, 366688, Note_on_c, 11, 51, 0
13, 366720, Note_on_c, 11, 51, 62
13, 366720, Note_on_c, 11, 55, 62
13, 366848, Note_on_c, 11, 55, 0
13, 366848, Note_on_c, 11, 51, 0
13, 366880, Note_on_c, 11, 55, 62
13, 366880, Note_on_c, 11, 51, 62
13, 367008, Note_on_c, 11, 51, 0
13, 367008, Note_on_c, 11, 55, 0
13, 367040, Note_on_c, 11, 55, 62
13, 367040, Note_on_c, 11, 51, 62
13, 367168, Note_on_c, 11, 51, 0
13, 367168, Note_on_c, 11, 55, 0
13, 367200, Note_on_c, 11, 55, 62
13, 367200, Note_on_c, 11, 51, 62
13, 367328, Note_on_c, 11, 51, 0
13, 367328, Note_on_c, 11, 55, 0
13, 367360, Note_on_c, 11, 55, 62
13, 367360, Note_on_c, 11, 51, 62
13, 367488, Note_on_c, 11, 51, 0
13, 367488, Note_on_c, 11, 55, 0
13, 367520, Note_on_c, 11, 51, 62
13, 367520, Note_on_c, 11, 55, 62
13, 367648, Note_on_c, 11, 55, 0
13, 367648, Note_on_c, 11, 51, 0
13, 367680, Note_on_c, 11, 51, 62
13, 367680, Note_on_c, 11, 55, 62
13, 367808, Note_on_c, 11, 55, 0
13, 367808, Note_on_c, 11, 51, 0
13, 367840, Note_on_c, 11, 55, 62
13, 367840, Note_on_c, 11, 51, 62
13, 367968, Note_on_c, 11, 51, 0
13, 367968, Note_on_c, 11, 55, 0
13, 368000, Note_on_c, 11, 51, 62
13, 368000, Note_on_c, 11, 55, 62
13, 368128, Note_on_c, 11, 55, 0
13, 368128, Note_on_c, 11, 51, 0
13, 368160, Note_on_c, 11, 55, 62
13, 368160, Note_on_c, 11, 51, 62
13, 368288, Note_on_c, 11, 51, 0
13, 368288, Note_on_c, 11, 55, 0
13, 368320, Note_on_c, 11, 55, 62
13, 368320, Note_on_c, 11, 51, 62
13, 368448, Note_on_c, 11, 51, 0
13, 368448, Note_on_c, 11, 55, 0
13, 368480, Note_on_c, 11, 51, 62
13, 368480, Note_on_c, 11, 55, 62
13, 368608, Note_on_c, 11, 55, 0
13, 368608, Note_on_c, 11, 51, 0
13, 368640, Note_on_c, 11, 51, 62
13, 368640, Note_on_c, 11, 53, 62
13, 368768, Note_on_c, 11, 53, 0
13, 368768, Note_on_c, 11, 51, 0
13, 368800, Note_on_c, 11, 51, 62
13, 368800, Note_on_c, 11, 53, 62
13, 368928, Note_on_c, 11, 53, 0
13, 368928, Note_on_c, 11, 51, 0
13, 368960, Note_on_c, 11, 51, 62
13, 368960, Note_on_c, 11, 53, 62
13, 369088, Note_on_c, 11, 53, 0
13, 369088, Note_on_c, 11, 51, 0
13, 369120, Note_on_c, 11, 51, 62
13, 369120, Note_on_c, 11, 53, 62
13, 369248, Note_on_c, 11, 53, 0
13, 369248, Note_on_c, 11, 51, 0
13, 369280, Note_on_c, 11, 51, 62
13, 369280, Note_on_c, 11, 53, 62
13, 369408, Note_on_c, 11, 53, 0
13, 369408, Note_on_c, 11, 51, 0
13, 369440, Note_on_c, 11, 53, 62
13, 369440, Note_on_c, 11, 51, 62
13, 369568, Note_on_c, 11, 51, 0
13, 369568, Note_on_c, 11, 53, 0
13, 369600, Note_on_c, 11, 53, 62
13, 369600, Note_on_c, 11, 51, 62
13, 369728, Note_on_c, 11, 51, 0
13, 369728, Note_on_c, 11, 53, 0
13, 369760, Note_on_c, 11, 51, 62
13, 369760, Note_on_c, 11, 53, 62
13, 369888, Note_on_c, 11, 53, 0
13, 369888, Note_on_c, 11, 51, 0
13, 369920, Note_on_c, 11, 53, 62
13, 369920, Note_on_c, 11, 51, 62
13, 370048, Note_on_c, 11, 51, 0
13, 370048, Note_on_c, 11, 53, 0
13, 370080, Note_on_c, 11, 51, 62
13, 370080, Note_on_c, 11, 53, 62
13, 370208, Note_on_c, 11, 53, 0
13, 370208, Note_on_c, 11, 51, 0
13, 370240, Note_on_c, 11, 51, 62
13, 370240, Note_on_c, 11, 53, 62
13, 370368, Note_on_c, 11, 53, 0
13, 370368, Note_on_c, 11, 51, 0
13, 370400, Note_on_c, 11, 53, 62
13, 370400, Note_on_c, 11, 51, 62
13, 370528, Note_on_c, 11, 51, 0
13, 370528, Note_on_c, 11, 53, 0
13, 370560, Note_on_c, 11, 53, 62
13, 370560, Note_on_c, 11, 51, 62
13, 370688, Note_on_c, 11, 51, 0
13, 370688, Note_on_c, 11, 53, 0
13, 370720, Note_on_c, 11, 53, 62
13, 370720, Note_on_c, 11, 51, 62
13, 370848, Note_on_c, 11, 51, 0
13, 370848, Note_on_c, 11, 53, 0
13, 370880, Note_on_c, 11, 53, 62
13, 370880, Note_on_c, 11, 51, 62
13, 371008, Note_on_c, 11, 51, 0
13, 371008, Note_on_c, 11, 53, 0
13, 371040, Note_on_c, 11, 51, 62
13, 371040, Note_on_c, 11, 53, 62
13, 371168, Note_on_c, 11, 53, 0
13, 371168, Note_on_c, 11, 51, 0
13, 371200, Note_on_c, 11, 53, 62
13, 371200, Note_on_c, 11, 51, 62
13, 371328, Note_on_c, 11, 51, 0
13, 371328, Note_on_c, 11, 53, 0
13, 371360, Note_on_c, 11, 51, 62
13, 371360, Note_on_c, 11, 53, 62
13, 371488, Note_on_c, 11, 53, 0
13, 371488, Note_on_c, 11, 51, 0
13, 371520, Note_on_c, 11, 53, 62
13, 371520, Note_on_c, 11, 51, 62
13, 371648, Note_on_c, 11, 51, 0
13, 371648, Note_on_c, 11, 53, 0
13, 371680, Note_on_c, 11, 53, 62
13, 371680, Note_on_c, 11, 51, 62
13, 371808, Note_on_c, 11, 51, 0
13, 371808, Note_on_c, 11, 53, 0
13, 371840, Note_on_c, 11, 51, 62
13, 371840, Note_on_c, 11, 53, 62
13, 371968, Note_on_c, 11, 53, 0
13, 371968, Note_on_c, 11, 51, 0
13, 372000, Note_on_c, 11, 51, 62
13, 372000, Note_on_c, 11, 53, 62
13, 372128, Note_on_c, 11, 53, 0
13, 372128, Note_on_c, 11, 51, 0
13, 372160, Note_on_c, 11, 53, 62
13, 372160, Note_on_c, 11, 51, 62
13, 372288, Note_on_c, 11, 51, 0
13, 372288, Note_on_c, 11, 53, 0
13, 372320, Note_on_c, 11, 53, 62
13, 372320, Note_on_c, 11, 51, 62
13, 372448, Note_on_c, 11, 51, 0
13, 372448, Note_on_c, 11, 53, 0
13, 372480, Note_on_c, 11, 55, 102
13, 372480, Note_on_c, 11, 51, 62
13, 372608, Note_on_c, 11, 51, 0
13, 372608, Note_on_c, 11, 55, 0
13, 372640, Note_on_c, 11, 55, 62
13, 372640, Note_on_c, 11, 51, 62
13, 372768, Note_on_c, 11, 51, 0
13, 372768, Note_on_c, 11, 55, 0
13, 372800, Note_on_c, 11, 55, 62
13, 372800, Note_on_c, 11, 51, 62
13, 372928, Note_on_c, 11, 51, 0
13, 372928, Note_on_c, 11, 55, 0
13, 372960, Note_on_c, 11, 51, 62
13, 372960, Note_on_c, 11, 55, 62
13, 373088, Note_on_c, 11, 55, 0
13, 373088, Note_on_c, 11, 51, 0
13, 373120, Note_on_c, 11, 55, 62
13, 373120, Note_on_c, 11, 51, 62
13, 373248, Note_on_c, 11, 51, 0
13, 373248, Note_on_c, 11, 55, 0
13, 373280, Note_on_c, 11, 55, 62
13, 373280, Note_on_c, 11, 51, 62
13, 373408, Note_on_c, 11, 51, 0
13, 373408, Note_on_c, 11, 55, 0
13, 373440, Note_on_c, 11, 55, 62
13, 373440, Note_on_c, 11, 51, 62
13, 373568, Note_on_c, 11, 51, 0
13, 373568, Note_on_c, 11, 55, 0
13, 373600, Note_on_c, 11, 51, 62
13, 373600, Note_on_c, 11, 55, 62
13, 373728, Note_on_c, 11, 55, 0
13, 373728, Note_on_c, 11, 51, 0
13, 373760, Note_on_c, 11, 55, 62
13, 373760, Note_on_c, 11, 51, 62
13, 373888, Note_on_c, 11, 51, 0
13, 373888, Note_on_c, 11, 55, 0
13, 373920, Note_on_c, 11, 51, 62
13, 373920, Note_on_c, 11, 55, 62
13, 374048, Note_on_c, 11, 55, 0
13, 374048, Note_on_c, 11, 51, 0
13, 374080, Note_on_c, 11, 55, 62
13, 374080, Note_on_c, 11, 51, 62
13, 374208, Note_on_c, 11, 51, 0
13, 374208, Note_on_c, 11, 55, 0
13, 374240, Note_on_c, 11, 55, 62
13, 374240, Note_on_c, 11, 51, 62
13, 374368, Note_on_c, 11, 51, 0
13, 374368, Note_on_c, 11, 55, 0
13, 374400, Note_on_c, 11, 55, 62
13, 374400, Note_on_c, 11, 51, 62
13, 374528, Note_on_c, 11, 51, 0
13, 374528, Note_on_c, 11, 55, 0
13, 374560, Note_on_c, 11, 55, 62
13, 374560, Note_on_c, 11, 51, 62
13, 374688, Note_on_c, 11, 51, 0
13, 374688, Note_on_c, 11, 55, 0
13, 374720, Note_on_c, 11, 51, 62
13, 374720, Note_on_c, 11, 55, 62
13, 374848, Note_on_c, 11, 55, 0
13, 374848, Note_on_c, 11, 51, 0
13, 374880, Note_on_c, 11, 51, 62
13, 374880, Note_on_c, 11, 55, 62
13, 375008, Note_on_c, 11, 55, 0
13, 375008, Note_on_c, 11, 51, 0
13, 375040, Note_on_c, 11, 51, 62
13, 375040, Note_on_c, 11, 55, 62
13, 375168, Note_on_c, 11, 55, 0
13, 375168, Note_on_c, 11, 51, 0
13, 375200, Note_on_c, 11, 51, 62
13, 375200, Note_on_c, 11, 55, 62
13, 375328, Note_on_c, 11, 55, 0
13, 375328, Note_on_c, 11, 51, 0
13, 375360, Note_on_c, 11, 55, 62
13, 375360, Note_on_c, 11, 51, 62
13, 375488, Note_on_c, 11, 51, 0
13, 375488, Note_on_c, 11, 55, 0
13, 375520, Note_on_c, 11, 51, 62
13, 375520, Note_on_c, 11, 55, 62
13, 375648, Note_on_c, 11, 55, 0
13, 375648, Note_on_c, 11, 51, 0
13, 375680, Note_on_c, 11, 55, 62
13, 375680, Note_on_c, 11, 51, 62
13, 375808, Note_on_c, 11, 51, 0
13, 375808, Note_on_c, 11, 55, 0
13, 375840, Note_on_c, 11, 51, 62
13, 375840, Note_on_c, 11, 55, 62
13, 375968, Note_on_c, 11, 55, 0
13, 375968, Note_on_c, 11, 51, 0
13, 376000, Note_on_c, 11, 55, 62
13, 376000, Note_on_c, 11, 51, 62
13, 376128, Note_on_c, 11, 51, 0
13, 376128, Note_on_c, 11, 55, 0
13, 376160, Note_on_c, 11, 55, 62
13, 376160, Note_on_c, 11, 51, 62
13, 376288, Note_on_c, 11, 51, 0
13, 376288, Note_on_c, 11, 55, 0
13, 376320, Note_on_c, 11, 51, 62
13, 376320, Note_on_c, 11, 56, 102
13, 376448, Note_on_c, 11, 56, 0
13, 376448, Note_on_c, 11, 51, 0
13, 376480, Note_on_c, 11, 56, 62
13, 376480, Note_on_c, 11, 51, 62
13, 376608, Note_on_c, 11, 51, 0
13, 376608, Note_on_c, 11, 56, 0
13, 376640, Note_on_c, 11, 56, 62
13, 376640, Note_on_c, 11, 51, 62
13, 376768, Note_on_c, 11, 51, 0
13, 376768, Note_on_c, 11, 56, 0
13, 376800, Note_on_c, 11, 56, 62
13, 376800, Note_on_c, 11, 51, 62
13, 376928, Note_on_c, 11, 51, 0
13, 376928, Note_on_c, 11, 56, 0
13, 376960, Note_on_c, 11, 51, 62
13, 376960, Note_on_c, 11, 56, 62
13, 377088, Note_on_c, 11, 56, 0
13, 377088, Note_on_c, 11, 51, 0
13, 377120, Note_on_c, 11, 56, 62
13, 377120, Note_on_c, 11, 51, 62
13, 377248, Note_on_c, 11, 51, 0
13, 377248, Note_on_c, 11, 56, 0
13, 377280, Note_on_c, 11, 51, 62
13, 377280, Note_on_c, 11, 56, 62
13, 377408, Note_on_c, 11, 56, 0
13, 377408, Note_on_c, 11, 51, 0
13, 377440, Note_on_c, 11, 51, 62
13, 377440, Note_on_c, 11, 56, 62
13, 377568, Note_on_c, 11, 56, 0
13, 377568, Note_on_c, 11, 51, 0
13, 377600, Note_on_c, 11, 56, 62
13, 377600, Note_on_c, 11, 51, 62
13, 377728, Note_on_c, 11, 51, 0
13, 377728, Note_on_c, 11, 56, 0
13, 377760, Note_on_c, 11, 56, 62
13, 377760, Note_on_c, 11, 51, 62
13, 377888, Note_on_c, 11, 51, 0
13, 377888, Note_on_c, 11, 56, 0
13, 377920, Note_on_c, 11, 51, 62
13, 377920, Note_on_c, 11, 56, 62
13, 378048, Note_on_c, 11, 56, 0
13, 378048, Note_on_c, 11, 51, 0
13, 378080, Note_on_c, 11, 56, 62
13, 378080, Note_on_c, 11, 51, 62
13, 378208, Note_on_c, 11, 51, 0
13, 378208, Note_on_c, 11, 56, 0
13, 378240, Note_on_c, 11, 53, 62
13, 378240, Note_on_c, 11, 57, 62
13, 378368, Note_on_c, 11, 57, 0
13, 378368, Note_on_c, 11, 53, 0
13, 378400, Note_on_c, 11, 53, 62
13, 378400, Note_on_c, 11, 57, 62
13, 378528, Note_on_c, 11, 57, 0
13, 378528, Note_on_c, 11, 53, 0
13, 378560, Note_on_c, 11, 57, 62
13, 378560, Note_on_c, 11, 53, 62
13, 378688, Note_on_c, 11, 53, 0
13, 378688, Note_on_c, 11, 57, 0
13, 378720, Note_on_c, 11, 53, 62
13, 378720, Note_on_c, 11, 57, 62
13, 378848, Note_on_c, 11, 57, 0
13, 378848, Note_on_c, 11, 53, 0
13, 378880, Note_on_c, 11, 57, 62
13, 378880, Note_on_c, 11, 53, 62
13, 379008, Note_on_c, 11, 53, 0
13, 379008, Note_on_c, 11, 57, 0
13, 379040, Note_on_c, 11, 57, 62
13, 379040, Note_on_c, 11, 53, 62
13, 379168, Note_on_c, 11, 53, 0
13, 379168, Note_on_c, 11, 57, 0
13, 379200, Note_on_c, 11, 53, 62
13, 379200, Note_on_c, 11, 57, 62
13, 379328, Note_on_c, 11, 57, 0
13, 379328, Note_on_c, 11, 53, 0
13, 379360, Note_on_c, 11, 57, 62
13, 379360, Note_on_c, 11, 53, 62
13, 379488, Note_on_c, 11, 53, 0
13, 379488, Note_on_c, 11, 57, 0
13, 379520, Note_on_c, 11, 57, 62
13, 379520, Note_on_c, 11, 53, 62
13, 379648, Note_on_c, 11, 53, 0
13, 379648, Note_on_c, 11, 57, 0
13, 379680, Note_on_c, 11, 57, 62
13, 379680, Note_on_c, 11, 53, 62
13, 379808, Note_on_c, 11, 53, 0
13, 379808, Note_on_c, 11, 57, 0
13, 379840, Note_on_c, 11, 53, 62
13, 379840, Note_on_c, 11, 57, 62
13, 379968, Note_on_c, 11, 57, 0
13, 379968, Note_on_c, 11, 53, 0
13, 380000, Note_on_c, 11, 53, 62
13, 380000, Note_on_c, 11, 57, 62
13, 380128, Note_on_c, 11, 57, 0
13, 380128, Note_on_c, 11, 53, 0
13, 380160, Note_on_c, 11, 53, 62
13, 380160, Note_on_c, 11, 58, 102
13, 380288, Note_on_c, 11, 58, 0
13, 380288, Note_on_c, 11, 53, 0
13, 380320, Note_on_c, 11, 53, 62
13, 380320, Note_on_c, 11, 58, 62
13, 380448, Note_on_c, 11, 58, 0
13, 380448, Note_on_c, 11, 53, 0
13, 380480, Note_on_c, 11, 58, 62
13, 380480, Note_on_c, 11, 53, 62
13, 380608, Note_on_c, 11, 53, 0
13, 380608, Note_on_c, 11, 58, 0
13, 380640, Note_on_c, 11, 53, 62
13, 380640, Note_on_c, 11, 58, 62
13, 380768, Note_on_c, 11, 58, 0
13, 380768, Note_on_c, 11, 53, 0
13, 380800, Note_on_c, 11, 53, 62
13, 380800, Note_on_c, 11, 58, 62
13, 380928, Note_on_c, 11, 58, 0
13, 380928, Note_on_c, 11, 53, 0
13, 380960, Note_on_c, 11, 53, 62
13, 380960, Note_on_c, 11, 58, 62
13, 381088, Note_on_c, 11, 58, 0
13, 381088, Note_on_c, 11, 53, 0
13, 381120, Note_on_c, 11, 53, 62
13, 381120, Note_on_c, 11, 58, 62
13, 381248, Note_on_c, 11, 58, 0
13, 381248, Note_on_c, 11, 53, 0
13, 381280, Note_on_c, 11, 58, 62
13, 381280, Note_on_c, 11, 53, 62
13, 381408, Note_on_c, 11, 53, 0
13, 381408, Note_on_c, 11, 58, 0
13, 381440, Note_on_c, 11, 58, 62
13, 381440, Note_on_c, 11, 53, 62
13, 381568, Note_on_c, 11, 53, 0
13, 381568, Note_on_c, 11, 58, 0
13, 381600, Note_on_c, 11, 53, 62
13, 381600, Note_on_c, 11, 58, 62
13, 381728, Note_on_c, 11, 58, 0
13, 381728, Note_on_c, 11, 53, 0
13, 381760, Note_on_c, 11, 53, 62
13, 381760, Note_on_c, 11, 58, 62
13, 381888, Note_on_c, 11, 58, 0
13, 381888, Note_on_c, 11, 53, 0
13, 381920, Note_on_c, 11, 53, 62
13, 381920, Note_on_c, 11, 58, 62
13, 382048, Note_on_c, 11, 58, 0
13, 382048, Note_on_c, 11, 53, 0
13, 382080, Note_on_c, 11, 53, 62
13, 382080, Note_on_c, 11, 58, 62
13, 382208, Note_on_c, 11, 58, 0
13, 382208, Note_on_c, 11, 53, 0
13, 382240, Note_on_c, 11, 53, 62
13, 382240, Note_on_c, 11, 58, 62
13, 382368, Note_on_c, 11, 58, 0
13, 382368, Note_on_c, 11, 53, 0
13, 382400, Note_on_c, 11, 53, 62
13, 382400, Note_on_c, 11, 58, 62
13, 382528, Note_on_c, 11, 58, 0
13, 382528, Note_on_c, 11, 53, 0
13, 382560, Note_on_c, 11, 58, 62
13, 382560, Note_on_c, 11, 53, 62
13, 382688, Note_on_c, 11, 53, 0
13, 382688, Note_on_c, 11, 58, 0
13, 382720, Note_on_c, 11, 53, 62
13, 382720, Note_on_c, 11, 58, 62
13, 382848, Note_on_c, 11, 58, 0
13, 382848, Note_on_c, 11, 53, 0
13, 382880, Note_on_c, 11, 58, 62
13, 382880, Note_on_c, 11, 53, 62
13, 383008, Note_on_c, 11, 53, 0
13, 383008, Note_on_c, 11, 58, 0
13, 383040, Note_on_c, 11, 53, 62
13, 383040, Note_on_c, 11, 58, 62
13, 383168, Note_on_c, 11, 58, 0
13, 383168, Note_on_c, 11, 53, 0
13, 383200, Note_on_c, 11, 53, 62
13, 383200, Note_on_c, 11, 58, 62
13, 383328, Note_on_c, 11, 58, 0
13, 383328, Note_on_c, 11, 53, 0
13, 383360, Note_on_c, 11, 53, 62
13, 383360, Note_on_c, 11, 58, 62
13, 383488, Note_on_c, 11, 58, 0
13, 383488, Note_on_c, 11, 53, 0
13, 383520, Note_on_c, 11, 53, 62
13, 383520, Note_on_c, 11, 58, 62
13, 383648, Note_on_c, 11, 58, 0
13, 383648, Note_on_c, 11, 53, 0
13, 383680, Note_on_c, 11, 53, 62
13, 383680, Note_on_c, 11, 58, 62
13, 383808, Note_on_c, 11, 58, 0
13, 383808, Note_on_c, 11, 53, 0
13, 383840, Note_on_c, 11, 58, 62
13, 383840, Note_on_c, 11, 53, 62
13, 383968, Note_on_c, 11, 53, 0
13, 383968, Note_on_c, 11, 58, 0
13, 384000, Note_on_c, 11, 58, 62
13, 384000, Note_on_c, 11, 53, 62
13, 384128, Note_on_c, 11, 53, 0
13, 384128, Note_on_c, 11, 58, 0
13, 384160, Note_on_c, 11, 65, 62
13, 384160, Note_on_c, 11, 68, 62
13, 384288, Note_on_c, 11, 68, 0
13, 384288, Note_on_c, 11, 65, 0
13, 384320, Note_on_c, 11, 68, 62
13, 384320, Note_on_c, 11, 65, 62
13, 384448, Note_on_c, 11, 65, 0
13, 384448, Note_on_c, 11, 68, 0
13, 384480, Note_on_c, 11, 68, 62
13, 384480, Note_on_c, 11, 65, 62
13, 384608, Note_on_c, 11, 65, 0
13, 384608, Note_on_c, 11, 68, 0
13, 384640, Note_on_c, 11, 65, 62
13, 384640, Note_on_c, 11, 68, 62
13, 384768, Note_on_c, 11, 68, 0
13, 384768, Note_on_c, 11, 65, 0
13, 384800, Note_on_c, 11, 65, 62
13, 384800, Note_on_c, 11, 68, 62
13, 384928, Note_on_c, 11, 68, 0
13, 384928, Note_on_c, 11, 65, 0
13, 384960, Note_on_c, 11, 68, 62
13, 384960, Note_on_c, 11, 65, 62
13, 385088, Note_on_c, 11, 65, 0
13, 385088, Note_on_c, 11, 68, 0
13, 385120, Note_on_c, 11, 68, 62
13, 385120, Note_on_c, 11, 65, 62
13, 385248, Note_on_c, 11, 65, 0
13, 385248, Note_on_c, 11, 68, 0
13, 385280, Note_on_c, 11, 65, 62
13, 385280, Note_on_c, 11, 68, 62
13, 385408, Note_on_c, 11, 68, 0
13, 385408, Note_on_c, 11, 65, 0
13, 385440, Note_on_c, 11, 68, 62
13, 385440, Note_on_c, 11, 65, 62
13, 385568, Note_on_c, 11, 65, 0
13, 385568, Note_on_c, 11, 68, 0
13, 385600, Note_on_c, 11, 65, 62
13, 385600, Note_on_c, 11, 68, 62
13, 385728, Note_on_c, 11, 68, 0
13, 385728, Note_on_c, 11, 65, 0
13, 385760, Note_on_c, 11, 65, 62
13, 385760, Note_on_c, 11, 68, 62
13, 385888, Note_on_c, 11, 68, 0
13, 385888, Note_on_c, 11, 65, 0
13, 385920, Note_on_c, 11, 68, 62
13, 385920, Note_on_c, 11, 65, 62
13, 386048, Note_on_c, 11, 65, 0
13, 386048, Note_on_c, 11, 68, 0
13, 386080, Note_on_c, 11, 58, 62
13, 386080, Note_on_c, 11, 70, 62
13, 386208, Note_on_c, 11, 70, 0
13, 386208, Note_on_c, 11, 58, 0
13, 386240, Note_on_c, 11, 58, 62
13, 386240, Note_on_c, 11, 70, 62
13, 386368, Note_on_c, 11, 70, 0
13, 386368, Note_on_c, 11, 58, 0
13, 386400, Note_on_c, 11, 58, 62
13, 386400, Note_on_c, 11, 70, 62
13, 386528, Note_on_c, 11, 70, 0
13, 386528, Note_on_c, 11, 58, 0
13, 386560, Note_on_c, 11, 58, 62
13, 386560, Note_on_c, 11, 70, 62
13, 386688, Note_on_c, 11, 70, 0
13, 386688, Note_on_c, 11, 58, 0
13, 386720, Note_on_c, 11, 70, 62
13, 386720, Note_on_c, 11, 58, 62
13, 386848, Note_on_c, 11, 58, 0
13, 386848, Note_on_c, 11, 70, 0
13, 386880, Note_on_c, 11, 58, 62
13, 386880, Note_on_c, 11, 70, 62
13, 387008, Note_on_c, 11, 70, 0
13, 387008, Note_on_c, 11, 58, 0
13, 387040, Note_on_c, 11, 58, 62
13, 387040, Note_on_c, 11, 70, 62
13, 387168, Note_on_c, 11, 70, 0
13, 387168, Note_on_c, 11, 58, 0
13, 387200, Note_on_c, 11, 70, 62
13, 387200, Note_on_c, 11, 58, 62
13, 387328, Note_on_c, 11, 58, 0
13, 387328, Note_on_c, 11, 70, 0
13, 387360, Note_on_c, 11, 58, 62
13, 387360, Note_on_c, 11, 70, 62
13, 387488, Note_on_c, 11, 70, 0
13, 387488, Note_on_c, 11, 58, 0
13, 387520, Note_on_c, 11, 70, 62
13, 387520, Note_on_c, 11, 58, 62
13, 387648, Note_on_c, 11, 58, 0
13, 387648, Note_on_c, 11, 70, 0
13, 387680, Note_on_c, 11, 58, 62
13, 387680, Note_on_c, 11, 70, 62
13, 387808, Note_on_c, 11, 70, 0
13, 387808, Note_on_c, 11, 58, 0
13, 387840, Note_on_c, 11, 58, 62
13, 387840, Note_on_c, 11, 70, 62
13, 389760, Note_on_c, 11, 70, 0
13, 389760, Note_on_c, 11, 58, 0
13, 394800, Note_on_c, 11, 62, 20
13, 394872, Note_on_c, 11, 62, 0
13, 395040, Note_on_c, 11, 62, 20
13, 395112, Note_on_c, 11, 62, 0
13, 396000, Note_on_c, 11, 62, 20
13, 396000, Note_on_c, 11, 58, 20
13, 396072, Note_on_c, 11, 58, 0
13, 396072, Note_on_c, 11, 62, 0
13, 396960, Note_on_c, 11, 62, 22
13, 396960, Note_on_c, 11, 58, 22
13, 397032, Note_on_c, 11, 58, 0
13, 397032, Note_on_c, 11, 62, 0
13, 397920, Note_on_c, 11, 62, 24
13, 397920, Note_on_c, 11, 58, 24
13, 397992, Note_on_c, 11, 58, 0
13, 397992, Note_on_c, 11, 62, 0
13, 398880, Note_on_c, 11, 62, 26
13, 398880, Note_on_c, 11, 58, 26
13, 398952, Note_on_c, 11, 58, 0
13, 398952, Note_on_c, 11, 62, 0
13, 401280, Note_on_c, 11, 51, 65
13, 401352, Note_on_c, 11, 51, 0
13, 401520, Note_on_c, 11, 50, 67
13, 401592, Note_on_c, 11, 50, 0
13, 401760, Note_on_c, 11, 48, 68
13, 401832, Note_on_c, 11, 48, 0
13, 402000, Note_on_c, 11, 50, 70
13, 402072, Note_on_c, 11, 50, 0
13, 402240, Note_on_c, 11, 51, 72
13, 402312, Note_on_c, 11, 51, 0
13, 402480, Note_on_c, 11, 53, 74
13, 402552, Note_on_c, 11, 53, 0
13, 402720, Note_on_c, 11, 55, 75
13, 402792, Note_on_c, 11, 55, 0
13, 402960, Note_on_c, 11, 57, 77
13, 403032, Note_on_c, 11, 57, 0
13, 403200, Note_on_c, 11, 58, 79
13, 403968, Note_on_c, 11, 58, 0
13, 404160, Note_on_c, 11, 58, 86
13, 404928, Note_on_c, 11, 58, 0
13, 405120, Note_on_c, 11, 56, 93
13, 405192, Note_on_c, 11, 56, 0
13, 405360, Note_on_c, 11, 68, 94
13, 405432, Note_on_c, 11, 68, 0
13, 405600, Note_on_c, 11, 68, 96
13, 405672, Note_on_c, 11, 68, 0
13, 405840, Note_on_c, 11, 68, 98
13, 405912, Note_on_c, 11, 68, 0
13, 406080, Note_on_c, 11, 53, 99
13, 406152, Note_on_c, 11, 53, 0
13, 406320, Note_on_c, 11, 65, 101
13, 406392, Note_on_c, 11, 65, 0
13, 406560, Note_on_c, 11, 65, 103
13, 406632, Note_on_c, 11, 65, 0
13, 406800, Note_on_c, 11, 65, 105
13, 406872, Note_on_c, 11, 65, 0
13, 407040, Note_on_c, 11, 51, 106
13, 407112, Note_on_c, 11, 51, 0
13, 407280, Note_on_c, 11, 63, 108
13, 407352, Note_on_c, 11, 63, 0
13, 407520, Note_on_c, 11, 60, 110
13, 407592, Note_on_c, 11, 60, 0
13, 407760, Note_on_c, 11, 60, 111
13, 407832, Note_on_c, 11, 60, 0
13, 408000, Note_on_c, 11, 59, 113
13, 408072, Note_on_c, 11, 59, 0
13, 408240, Note_on_c, 11, 55, 115
13, 408312, Note_on_c, 11, 55, 0
13, 408480, Note_on_c, 11, 67, 117
13, 408552, Note_on_c, 11, 67, 0
13, 408720, Note_on_c, 11, 67, 118
13, 408792, Note_on_c, 11, 67, 0
13, 408960, Note_on_c, 11, 67, 80
13, 409088, Note_on_c, 11, 67, 0
13, 409120, Note_on_c, 11, 67, 64
13, 409248, Note_on_c, 11, 67, 0
13, 409280, Note_on_c, 11, 67, 64
13, 409408, Note_on_c, 11, 67, 0
13, 409440, Note_on_c, 11, 67, 64
13, 409568, Note_on_c, 11, 67, 0
13, 409600, Note_on_c, 11, 67, 64
13, 409728, Note_on_c, 11, 67, 0
13, 409760, Note_on_c, 11, 67, 64
13, 409888, Note_on_c, 11, 67, 0
13, 409920, Note_on_c, 11, 67, 64
13, 410048, Note_on_c, 11, 67, 0
13, 410080, Note_on_c, 11, 67, 64
13, 410208, Note_on_c, 11, 67, 0
13, 410240, Note_on_c, 11, 67, 64
13, 410368, Note_on_c, 11, 67, 0
13, 410400, Note_on_c, 11, 67, 64
13, 410528, Note_on_c, 11, 67, 0
13, 410560, Note_on_c, 11, 67, 64
13, 410688, Note_on_c, 11, 67, 0
13, 410720, Note_on_c, 11, 67, 64
13, 410848, Note_on_c, 11, 67, 0
13, 410880, Note_on_c, 11, 67, 64
13, 411008, Note_on_c, 11, 67, 0
13, 411040, Note_on_c, 11, 67, 64
13, 411168, Note_on_c, 11, 67, 0
13, 411200, Note_on_c, 11, 67, 64
13, 411328, Note_on_c, 11, 67, 0
13, 411360, Note_on_c, 11, 67, 64
13, 411488, Note_on_c, 11, 67, 0
13, 411520, Note_on_c, 11, 67, 64
13, 411648, Note_on_c, 11, 67, 0
13, 411680, Note_on_c, 11, 67, 64
13, 411808, Note_on_c, 11, 67, 0
13, 411840, Note_on_c, 11, 67, 80
13, 411968, Note_on_c, 11, 67, 0
13, 412000, Note_on_c, 11, 67, 80
13, 412128, Note_on_c, 11, 67, 0
13, 412160, Note_on_c, 11, 67, 80
13, 412288, Note_on_c, 11, 67, 0
13, 412320, Note_on_c, 11, 67, 80
13, 412448, Note_on_c, 11, 67, 0
13, 412480, Note_on_c, 11, 67, 80
13, 412608, Note_on_c, 11, 67, 0
13, 412640, Note_on_c, 11, 67, 80
13, 412768, Note_on_c, 11, 67, 0
13, 412800, Note_on_c, 11, 67, 80
13, 412928, Note_on_c, 11, 67, 0
13, 412960, Note_on_c, 11, 67, 80
13, 413088, Note_on_c, 11, 67, 0
13, 413120, Note_on_c, 11, 67, 80
13, 413248, Note_on_c, 11, 67, 0
13, 413280, Note_on_c, 11, 67, 80
13, 413408, Note_on_c, 11, 67, 0
13, 413440, Note_on_c, 11, 67, 80
13, 413568, Note_on_c, 11, 67, 0
13, 413600, Note_on_c, 11, 67, 80
13, 413728, Note_on_c, 11, 67, 0
13, 413760, Note_on_c, 11, 67, 80
13, 413888, Note_on_c, 11, 67, 0
13, 413920, Note_on_c, 11, 67, 80
13, 414048, Note_on_c, 11, 67, 0
13, 414080, Note_on_c, 11, 67, 80
13, 414208, Note_on_c, 11, 67, 0
13, 414240, Note_on_c, 11, 67, 80
13, 414368, Note_on_c, 11, 67, 0
13, 414400, Note_on_c, 11, 67, 80
13, 414528, Note_on_c, 11, 67, 0
13, 414560, Note_on_c, 11, 67, 80
13, 414688, Note_on_c, 11, 67, 0
13, 414720, Note_on_c, 11, 67, 80
13, 414848, Note_on_c, 11, 67, 0
13, 414880, Note_on_c, 11, 67, 80
13, 415008, Note_on_c, 11, 67, 0
13, 415040, Note_on_c, 11, 67, 80
13, 415168, Note_on_c, 11, 67, 0
13, 415200, Note_on_c, 11, 67, 80
13, 415328, Note_on_c, 11, 67, 0
13, 415360, Note_on_c, 11, 67, 80
13, 415488, Note_on_c, 11, 67, 0
13, 415520, Note_on_c, 11, 67, 80
13, 415648, Note_on_c, 11, 67, 0
13, 415680, Note_on_c, 11, 67, 80
13, 415808, Note_on_c, 11, 67, 0
13, 415840, Note_on_c, 11, 67, 80
13, 415968, Note_on_c, 11, 67, 0
13, 416000, Note_on_c, 11, 67, 80
13, 416128, Note_on_c, 11, 67, 0
13, 416160, Note_on_c, 11, 67, 80
13, 416288, Note_on_c, 11, 67, 0
13, 416320, Note_on_c, 11, 67, 80
13, 416448, Note_on_c, 11, 67, 0
13, 416480, Note_on_c, 11, 67, 80
13, 416608, Note_on_c, 11, 67, 0
13, 416640, Note_on_c, 11, 67, 80
13, 416768, Note_on_c, 11, 67, 0
13, 416800, Note_on_c, 11, 67, 80
13, 416928, Note_on_c, 11, 67, 0
13, 416960, Note_on_c, 11, 67, 80
13, 417088, Note_on_c, 11, 67, 0
13, 417120, Note_on_c, 11, 51, 120
13, 417248, Note_on_c, 11, 51, 0
13, 417280, Note_on_c, 11, 51, 120
13, 417408, Note_on_c, 11, 51, 0
13, 417440, Note_on_c, 11, 51, 120
13, 417568, Note_on_c, 11, 51, 0
13, 417600, Note_on_c, 11, 63, 120
13, 417728, Note_on_c, 11, 63, 0
13, 417760, Note_on_c, 11, 63, 120
13, 417888, Note_on_c, 11, 63, 0
13, 417920, Note_on_c, 11, 63, 120
13, 418048, Note_on_c, 11, 63, 0
13, 418080, Note_on_c, 11, 63, 120
13, 418208, Note_on_c, 11, 63, 0
13, 418240, Note_on_c, 11, 63, 120
13, 418368, Note_on_c, 11, 63, 0
13, 418400, Note_on_c, 11, 63, 120
13, 418528, Note_on_c, 11, 63, 0
13, 418560, Note_on_c, 11, 62, 120
13, 418688, Note_on_c, 11, 62, 0
13, 418720, Note_on_c, 11, 58, 120
13, 418848, Note_on_c, 11, 58, 0
13, 418880, Note_on_c, 11, 58, 120
13, 419008, Note_on_c, 11, 58, 0
13, 419040, Note_on_c, 11, 58, 120
13, 419168, Note_on_c, 11, 58, 0
13, 419200, Note_on_c, 11, 58, 120
13, 419328, Note_on_c, 11, 58, 0
13, 419360, Note_on_c, 11, 58, 120
13, 419488, Note_on_c, 11, 58, 0
13, 419520, Note_on_c, 11, 58, 120
13, 419648, Note_on_c, 11, 58, 0
13, 419680, Note_on_c, 11, 58, 120
13, 419808, Note_on_c, 11, 58, 0
13, 419840, Note_on_c, 11, 58, 120
13, 419968, Note_on_c, 11, 58, 0
13, 420000, Note_on_c, 11, 58, 80
13, 420128, Note_on_c, 11, 58, 0
13, 420160, Note_on_c, 11, 58, 80
13, 420288, Note_on_c, 11, 58, 0
13, 420320, Note_on_c, 11, 58, 80
13, 420448, Note_on_c, 11, 58, 0
13, 420480, Note_on_c, 11, 58, 80
13, 420608, Note_on_c, 11, 58, 0
13, 420640, Note_on_c, 11, 58, 80
13, 420768, Note_on_c, 11, 58, 0
13, 420800, Note_on_c, 11, 58, 80
13, 420928, Note_on_c, 11, 58, 0
13, 420960, Note_on_c, 11, 58, 80
13, 421088, Note_on_c, 11, 58, 0
13, 421120, Note_on_c, 11, 58, 80
13, 421248, Note_on_c, 11, 58, 0
13, 421280, Note_on_c, 11, 58, 80
13, 421408, Note_on_c, 11, 58, 0
13, 421440, Note_on_c, 11, 58, 80
13, 421568, Note_on_c, 11, 58, 0
13, 421600, Note_on_c, 11, 58, 80
13, 421728, Note_on_c, 11, 58, 0
13, 421760, Note_on_c, 11, 58, 80
13, 421888, Note_on_c, 11, 58, 0
13, 421920, Note_on_c, 11, 58, 80
13, 422048, Note_on_c, 11, 58, 0
13, 422080, Note_on_c, 11, 58, 80
13, 422208, Note_on_c, 11, 58, 0
13, 422240, Note_on_c, 11, 58, 80
13, 422368, Note_on_c, 11, 58, 0
13, 422400, Note_on_c, 11, 58, 80
13, 422528, Note_on_c, 11, 58, 0
13, 422560, Note_on_c, 11, 58, 80
13, 422688, Note_on_c, 11, 58, 0
13, 422720, Note_on_c, 11, 58, 80
13, 422848, Note_on_c, 11, 58, 0
13, 422880, Note_on_c, 11, 58, 80
13, 423008, Note_on_c, 11, 58, 0
13, 423040, Note_on_c, 11, 58, 80
13, 423168, Note_on_c, 11, 58, 0
13, 423200, Note_on_c, 11, 58, 80
13, 423328, Note_on_c, 11, 58, 0
13, 423360, Note_on_c, 11, 58, 80
13, 423488, Note_on_c, 11, 58, 0
13, 423520, Note_on_c, 11, 58, 80
13, 423648, Note_on_c, 11, 58, 0
13, 423680, Note_on_c, 11, 58, 80
13, 423808, Note_on_c, 11, 58, 0
13, 423840, Note_on_c, 11, 58, 80
13, 423968, Note_on_c, 11, 58, 0
13, 424000, Note_on_c, 11, 58, 80
13, 424128, Note_on_c, 11, 58, 0
13, 424160, Note_on_c, 11, 58, 80
13, 424288, Note_on_c, 11, 58, 0
13, 424320, Note_on_c, 11, 58, 80
13, 424448, Note_on_c, 11, 58, 0
13, 424480, Note_on_c, 11, 58, 80
13, 424608, Note_on_c, 11, 58, 0
13, 424640, Note_on_c, 11, 58, 80
13, 424768, Note_on_c, 11, 58, 0
13, 424800, Note_on_c, 11, 58, 80
13, 424928, Note_on_c, 11, 58, 0
13, 424960, Note_on_c, 11, 58, 80
13, 425088, Note_on_c, 11, 58, 0
13, 425120, Note_on_c, 11, 58, 80
13, 425248, Note_on_c, 11, 58, 0
13, 425280, Note_on_c, 11, 58, 80
13, 425408, Note_on_c, 11, 58, 0
13, 425440, Note_on_c, 11, 58, 80
13, 425568, Note_on_c, 11, 58, 0
13, 425600, Note_on_c, 11, 58, 80
13, 425728, Note_on_c, 11, 58, 0
13, 425760, Note_on_c, 11, 58, 80
13, 425888, Note_on_c, 11, 58, 0
13, 425920, Note_on_c, 11, 58, 80
13, 426048, Note_on_c, 11, 58, 0
13, 426080, Note_on_c, 11, 58, 80
13, 426208, Note_on_c, 11, 58, 0
13, 426240, Note_on_c, 11, 58, 80
13, 426368, Note_on_c, 11, 58, 0
13, 426400, Note_on_c, 11, 58, 80
13, 426528, Note_on_c, 11, 58, 0
13, 426560, Note_on_c, 11, 58, 80
13, 426688, Note_on_c, 11, 58, 0
13, 426720, Note_on_c, 11, 58, 80
13, 426848, Note_on_c, 11, 58, 0
13, 426880, Note_on_c, 11, 58, 80
13, 427008, Note_on_c, 11, 58, 0
13, 427040, Note_on_c, 11, 58, 80
13, 427168, Note_on_c, 11, 58, 0
13, 427200, Note_on_c, 11, 58, 80
13, 427328, Note_on_c, 11, 58, 0
13, 427360, Note_on_c, 11, 58, 80
13, 427488, Note_on_c, 11, 58, 0
13, 427520, Note_on_c, 11, 58, 80
13, 427648, Note_on_c, 11, 58, 0
13, 427680, Note_on_c, 11, 58, 80
13, 427808, Note_on_c, 11, 58, 0
13, 427840, Note_on_c, 11, 58, 80
13, 427968, Note_on_c, 11, 58, 0
13, 428000, Note_on_c, 11, 58, 80
13, 428128, Note_on_c, 11, 58, 0
13, 428160, Note_on_c, 11, 58, 127
13, 428264, Note_on_c, 11, 58, 0
13, 428400, Note_on_c, 11, 51, 127
13, 428724, Note_on_c, 11, 51, 0
13, 428880, Note_on_c, 11, 63, 127
13, 429048, Note_on_c, 11, 63, 0
13, 429120, Note_on_c, 11, 67, 127
13, 429934, Note_on_c, 11, 67, 0
13, 430080, Note_on_c, 11, 48, 127
13, 430184, Note_on_c, 11, 48, 0
13, 430320, Note_on_c, 11, 60, 127
13, 430644, Note_on_c, 11, 60, 0
13, 430800, Note_on_c, 11, 63, 127
13, 430968, Note_on_c, 11, 63, 0
13, 431040, Note_on_c, 11, 68, 127
13, 431854, Note_on_c, 11, 68, 0
13, 432000, Note_on_c, 11, 63, 127
13, 432240, Note_on_c, 11, 63, 0
13, 432240, Note_on_c, 11, 69, 127
13, 432360, Note_on_c, 11, 69, 0
13, 432480, Note_on_c, 11, 69, 127
13, 432600, Note_on_c, 11, 69, 0
13, 432720, Note_on_c, 11, 69, 127
13, 432840, Note_on_c, 11, 69, 0
13, 432960, Note_on_c, 11, 63, 127
13, 433200, Note_on_c, 11, 63, 0
13, 433200, Note_on_c, 11, 69, 127
13, 433320, Note_on_c, 11, 69, 0
13, 433440, Note_on_c, 11, 69, 127
13, 433560, Note_on_c, 11, 69, 0
13, 433680, Note_on_c, 11, 69, 127
13, 433800, Note_on_c, 11, 69, 0
13, 433920, Note_on_c, 11, 63, 127
13, 434160, Note_on_c, 11, 63, 0
13, 434160, Note_on_c, 11, 67, 127
13, 434280, Note_on_c, 11, 67, 0
13, 434400, Note_on_c, 11, 63, 127
13, 434520, Note_on_c, 11, 63, 0
13, 434640, Note_on_c, 11, 63, 127
13, 434760, Note_on_c, 11, 63, 0
13, 434880, Note_on_c, 11, 62, 127
13, 435120, Note_on_c, 11, 62, 0
13, 435120, Note_on_c, 11, 65, 127
13, 435240, Note_on_c, 11, 65, 0
13, 435360, Note_on_c, 11, 70, 127
13, 435480, Note_on_c, 11, 70, 0
13, 435600, Note_on_c, 11, 70, 127
13, 435720, Note_on_c, 11, 70, 0
13, 435840, Note_on_c, 11, 58, 127
13, 435944, Note_on_c, 11, 58, 0
13, 436080, Note_on_c, 11, 51, 127
13, 436404, Note_on_c, 11, 51, 0
13, 436560, Note_on_c, 11, 63, 127
13, 436728, Note_on_c, 11, 63, 0
13, 436800, Note_on_c, 11, 67, 127
13, 437614, Note_on_c, 11, 67, 0
13, 437760, Note_on_c, 11, 48, 127
13, 437864, Note_on_c, 11, 48, 0
13, 438000, Note_on_c, 11, 60, 127
13, 438324, Note_on_c, 11, 60, 0
13, 438480, Note_on_c, 11, 63, 127
13, 438648, Note_on_c, 11, 63, 0
13, 438720, Note_on_c, 11, 68, 127
13, 439534, Note_on_c, 11, 68, 0
13, 439680, Note_on_c, 11, 63, 127
13, 439920, Note_on_c, 11, 63, 0
13, 439920, Note_on_c, 11, 69, 127
13, 440040, Note_on_c, 11, 69, 0
13, 440160, Note_on_c, 11, 69, 127
13, 440280, Note_on_c, 11, 69, 0
13, 440400, Note_on_c, 11, 69, 127
13, 440520, Note_on_c, 11, 69, 0
13, 440640, Note_on_c, 11, 63, 127
13, 440880, Note_on_c, 11, 63, 0
13, 440880, Note_on_c, 11, 69, 127
13, 441000, Note_on_c, 11, 69, 0
13, 441120, Note_on_c, 11, 69, 127
13, 441240, Note_on_c, 11, 69, 0
13, 441360, Note_on_c, 11, 69, 127
13, 441480, Note_on_c, 11, 69, 0
13, 441600, Note_on_c, 11, 63, 127
13, 441840, Note_on_c, 11, 63, 0
13, 441840, Note_on_c, 11, 67, 127
13, 441960, Note_on_c, 11, 67, 0
13, 442080, Note_on_c, 11, 63, 127
13, 442200, Note_on_c, 11, 63, 0
13, 442320, Note_on_c, 11, 63, 127
13, 442440, Note_on_c, 11, 63, 0
13, 442560, Note_on_c, 11, 62, 127
13, 442800, Note_on_c, 11, 62, 0
13, 442800, Note_on_c, 11, 65, 127
13, 442920, Note_on_c, 11, 65, 0
13, 443040, Note_on_c, 11, 70, 127
13, 443160, Note_on_c, 11, 70, 0
13, 443280, Note_on_c, 11, 70, 127
13, 443400, Note_on_c, 11, 70, 0
13, 443520, Note_on_c, 11, 63, 95
13, 443712, Note_on_c, 11, 63, 0
13, 443760, Note_on_c, 11, 63, 95
13, 443952, Note_on_c, 11, 63, 0
13, 444000, Note_on_c, 11, 63, 95
13, 444192, Note_on_c, 11, 63, 0
13, 444240, Note_on_c, 11, 63, 95
13, 444432, Note_on_c, 11, 63, 0
13, 444480, Note_on_c, 11, 63, 95
13, 444672, Note_on_c, 11, 63, 0
13, 444720, Note_on_c, 11, 63, 95
13, 444912, Note_on_c, 11, 63, 0
13, 444960, Note_on_c, 11, 63, 95
13, 445152, Note_on_c, 11, 63, 0
13, 445200, Note_on_c, 11, 63, 95
13, 445392, Note_on_c, 11, 63, 0
13, 445440, Note_on_c, 11, 63, 95
13, 445632, Note_on_c, 11, 63, 0
13, 445680, Note_on_c, 11, 63, 95
13, 445872, Note_on_c, 11, 63, 0
13, 445920, Note_on_c, 11, 63, 95
13, 446112, Note_on_c, 11, 63, 0
13, 446160, Note_on_c, 11, 63, 95
13, 446352, Note_on_c, 11, 63, 0
13, 446400, Note_on_c, 11, 65, 127
13, 446592, Note_on_c, 11, 65, 0
13, 446640, Note_on_c, 11, 65, 95
13, 446832, Note_on_c, 11, 65, 0
13, 446880, Note_on_c, 11, 62, 95
13, 447072, Note_on_c, 11, 62, 0
13, 447120, Note_on_c, 11, 62, 95
13, 447312, Note_on_c, 11, 62, 0
13, 447360, Note_on_c, 11, 63, 95
13, 447552, Note_on_c, 11, 63, 0
13, 447600, Note_on_c, 11, 63, 95
13, 447792, Note_on_c, 11, 63, 0
13, 447840, Note_on_c, 11, 63, 95
13, 448032, Note_on_c, 11, 63, 0
13, 448080, Note_on_c, 11, 63, 95
13, 448272, Note_on_c, 11, 63, 0
13, 448320, Note_on_c, 11, 63, 95
13, 448512, Note_on_c, 11, 63, 0
13, 448560, Note_on_c, 11, 63, 95
13, 448752, Note_on_c, 11, 63, 0
13, 448800, Note_on_c, 11, 63, 95
13, 448992, Note_on_c, 11, 63, 0
13, 449040, Note_on_c, 11, 63, 95
13, 449232, Note_on_c, 11, 63, 0
13, 449280, Note_on_c, 11, 63, 95
13, 449472, Note_on_c, 11, 63, 0
13, 449520, Note_on_c, 11, 63, 95
13, 449712, Note_on_c, 11, 63, 0
13, 449760, Note_on_c, 11, 63, 95
13, 449952, Note_on_c, 11, 63, 0
13, 450000, Note_on_c, 11, 63, 95
13, 450192, Note_on_c, 11, 63, 0
13, 450240, Note_on_c, 11, 65, 127
13, 450432, Note_on_c, 11, 65, 0
13, 450480, Note_on_c, 11, 65, 95
13, 450672, Note_on_c, 11, 65, 0
13, 450720, Note_on_c, 11, 62, 95
13, 450912, Note_on_c, 11, 62, 0
13, 450960, Note_on_c, 11, 62, 95
13, 451152, Note_on_c, 11, 62, 0
13, 451200, Note_on_c, 11, 63, 95
13, 451392, Note_on_c, 11, 63, 0
13, 451440, Note_on_c, 11, 63, 95
13, 451632, Note_on_c, 11, 63, 0
13, 451680, Note_on_c, 11, 63, 95
13, 451872, Note_on_c, 11, 63, 0
13, 451920, Note_on_c, 11, 63, 95
13, 452112, Note_on_c, 11, 63, 0
13, 452160, Note_on_c, 11, 63, 95
13, 452352, Note_on_c, 11, 63, 0
13, 452400, Note_on_c, 11, 63, 95
13, 452592, Note_on_c, 11, 63, 0
13, 452640, Note_on_c, 11, 63, 95
13, 452832, Note_on_c, 11, 63, 0
13, 452880, Note_on_c, 11, 63, 95
13, 453072, Note_on_c, 11, 63, 0
13, 453120, Note_on_c, 11, 63, 95
13, 453312, Note_on_c, 11, 63, 0
13, 453360, Note_on_c, 11, 63, 95
13, 453552, Note_on_c, 11, 63, 0
13, 453600, Note_on_c, 11, 63, 95
13, 453792, Note_on_c, 11, 63, 0
13, 453840, Note_on_c, 11, 63, 95
13, 454032, Note_on_c, 11, 63, 0
13, 454080, Note_on_c, 11, 65, 127
13, 454272, Note_on_c, 11, 65, 0
13, 454320, Note_on_c, 11, 65, 95
13, 454512, Note_on_c, 11, 65, 0
13, 454560, Note_on_c, 11, 62, 95
13, 454752, Note_on_c, 11, 62, 0
13, 454800, Note_on_c, 11, 62, 95
13, 454992, Note_on_c, 11, 62, 0
13, 455040, Note_on_c, 11, 63, 95
13, 455232, Note_on_c, 11, 63, 0
13, 455280, Note_on_c, 11, 63, 95
13, 455472, Note_on_c, 11, 63, 0
13, 455520, Note_on_c, 11, 63, 95
13, 455712, Note_on_c, 11, 63, 0
13, 455760, Note_on_c, 11, 63, 95
13, 455952, Note_on_c, 11, 63, 0
13, 456000, Note_on_c, 11, 63, 95
13, 456192, Note_on_c, 11, 63, 0
13, 456240, Note_on_c, 11, 63, 95
13, 456432, Note_on_c, 11, 63, 0
13, 456480, Note_on_c, 11, 63, 95
13, 456672, Note_on_c, 11, 63, 0
13, 456720, Note_on_c, 11, 63, 95
13, 456912, Note_on_c, 11, 63, 0
13, 456960, Note_on_c, 11, 63, 95
13, 457152, Note_on_c, 11, 63, 0
13, 457200, Note_on_c, 11, 63, 95
13, 457392, Note_on_c, 11, 63, 0
13, 457440, Note_on_c, 11, 63, 95
13, 457632, Note_on_c, 11, 63, 0
13, 457680, Note_on_c, 11, 63, 95
13, 457872, Note_on_c, 11, 63, 0
13, 457920, Note_on_c, 11, 65, 127
13, 458112, Note_on_c, 11, 65, 0
13, 458160, Note_on_c, 11, 65, 95
13, 458352, Note_on_c, 11, 65, 0
13, 458400, Note_on_c, 11, 62, 95
13, 458592, Note_on_c, 11, 62, 0
13, 458640, Note_on_c, 11, 62, 95
13, 458832, Note_on_c, 11, 62, 0
13, 458880, Note_on_c, 11, 63, 80
13, 459008, Note_on_c, 11, 63, 0
13, 459040, Note_on_c, 11, 67, 80
13, 459040, Note_on_c, 11, 63, 80
13, 459168, Note_on_c, 11, 63, 0
13, 459168, Note_on_c, 11, 67, 0
13, 459200, Note_on_c, 11, 67, 80
13, 459200, Note_on_c, 11, 63, 80
13, 459328, Note_on_c, 11, 63, 0
13, 459328, Note_on_c, 11, 67, 0
13, 459360, Note_on_c, 11, 63, 80
13, 459360, Note_on_c, 11, 67, 80
13, 459488, Note_on_c, 11, 67, 0
13, 459488, Note_on_c, 11, 63, 0
13, 459520, Note_on_c, 11, 67, 80
13, 459520, Note_on_c, 11, 63, 80
13, 459648, Note_on_c, 11, 63, 0
13, 459648, Note_on_c, 11, 67, 0
13, 459680, Note_on_c, 11, 67, 80
13, 459680, Note_on_c, 11, 63, 80
13, 459808, Note_on_c, 11, 63, 0
13, 459808, Note_on_c, 11, 67, 0
13, 459840, Note_on_c, 11, 67, 80
13, 459840, Note_on_c, 11, 63, 80
13, 459968, Note_on_c, 11, 63, 0
13, 459968, Note_on_c, 11, 67, 0
13, 460000, Note_on_c, 11, 67, 80
13, 460000, Note_on_c, 11, 63, 80
13, 460128, Note_on_c, 11, 63, 0
13, 460128, Note_on_c, 11, 67, 0
13, 460160, Note_on_c, 11, 63, 80
13, 460160, Note_on_c, 11, 67, 80
13, 460288, Note_on_c, 11, 67, 0
13, 460288, Note_on_c, 11, 63, 0
13, 460320, Note_on_c, 11, 67, 80
13, 460320, Note_on_c, 11, 63, 80
13, 460448, Note_on_c, 11, 63, 0
13, 460448, Note_on_c, 11, 67, 0
13, 460480, Note_on_c, 11, 63, 80
13, 460480, Note_on_c, 11, 67, 80
13, 460608, Note_on_c, 11, 67, 0
13, 460608, Note_on_c, 11, 63, 0
13, 460640, Note_on_c, 11, 67, 80
13, 460640, Note_on_c, 11, 63, 80
13, 460768, Note_on_c, 11, 63, 0
13, 460768, Note_on_c, 11, 67, 0
13, 460800, Note_on_c, 11, 67, 80
13, 460800, Note_on_c, 11, 63, 80
13, 460928, Note_on_c, 11, 63, 0
13, 460928, Note_on_c, 11, 67, 0
13, 460960, Note_on_c, 11, 67, 80
13, 460960, Note_on_c, 11, 63, 80
13, 461088, Note_on_c, 11, 63, 0
13, 461088, Note_on_c, 11, 67, 0
13, 461120, Note_on_c, 11, 63, 80
13, 461120, Note_on_c, 11, 67, 80
13, 461248, Note_on_c, 11, 67, 0
13, 461248, Note_on_c, 11, 63, 0
13, 461280, Note_on_c, 11, 67, 80
13, 461280, Note_on_c, 11, 63, 80
13, 461408, Note_on_c, 11, 63, 0
13, 461408, Note_on_c, 11, 67, 0
13, 461440, Note_on_c, 11, 67, 80
13, 461440, Note_on_c, 11, 63, 80
13, 461568, Note_on_c, 11, 63, 0
13, 461568, Note_on_c, 11, 67, 0
13, 461600, Note_on_c, 11, 67, 80
13, 461600, Note_on_c, 11, 63, 80
13, 461728, Note_on_c, 11, 63, 0
13, 461728, Note_on_c, 11, 67, 0
13, 461760, Note_on_c, 11, 67, 80
13, 461760, Note_on_c, 11, 63, 80
13, 461888, Note_on_c, 11, 63, 0
13, 461888, Note_on_c, 11, 67, 0
13, 461920, Note_on_c, 11, 67, 80
13, 461920, Note_on_c, 11, 63, 80
13, 462048, Note_on_c, 11, 63, 0
13, 462048, Note_on_c, 11, 67, 0
13, 462080, Note_on_c, 11, 63, 80
13, 462080, Note_on_c, 11, 67, 80
13, 462208, Note_on_c, 11, 67, 0
13, 462208, Note_on_c, 11, 63, 0
13, 462240, Note_on_c, 11, 67, 80
13, 462240, Note_on_c, 11, 63, 80
13, 462368, Note_on_c, 11, 63, 0
13, 462368, Note_on_c, 11, 67, 0
13, 462400, Note_on_c, 11, 67, 80
13, 462400, Note_on_c, 11, 63, 80
13, 462528, Note_on_c, 11, 63, 0
13, 462528, Note_on_c, 11, 67, 0
13, 462560, Note_on_c, 11, 67, 80
13, 462560, Note_on_c, 11, 63, 80
13, 462688, Note_on_c, 11, 63, 0
13, 462688, Note_on_c, 11, 67, 0
13, 462720, Note_on_c, 11, 67, 96
13, 462720, Note_on_c, 11, 63, 96
13, 462848, Note_on_c, 11, 63, 0
13, 462848, Note_on_c, 11, 67, 0
13, 462880, Note_on_c, 11, 67, 96
13, 462880, Note_on_c, 11, 70, 96
13, 463008, Note_on_c, 11, 70, 0
13, 463008, Note_on_c, 11, 67, 0
13, 463040, Note_on_c, 11, 70, 96
13, 463040, Note_on_c, 11, 67, 96
13, 463168, Note_on_c, 11, 67, 0
13, 463168, Note_on_c, 11, 70, 0
13, 463200, Note_on_c, 11, 70, 96
13, 463200, Note_on_c, 11, 67, 96
13, 463328, Note_on_c, 11, 67, 0
13, 463328, Note_on_c, 11, 70, 0
13, 463360, Note_on_c, 11, 67, 96
13, 463360, Note_on_c, 11, 70, 96
13, 463488, Note_on_c, 11, 70, 0
13, 463488, Note_on_c, 11, 67, 0
13, 463520, Note_on_c, 11, 67, 96
13, 463520, Note_on_c, 11, 70, 96
13, 463648, Note_on_c, 11, 70, 0
13, 463648, Note_on_c, 11, 67, 0
13, 463680, Note_on_c, 11, 70, 96
13, 463680, Note_on_c, 11, 67, 96
13, 463808, Note_on_c, 11, 67, 0
13, 463808, Note_on_c, 11, 70, 0
13, 463840, Note_on_c, 11, 70, 96
13, 463840, Note_on_c, 11, 67, 96
13, 463968, Note_on_c, 11, 67, 0
13, 463968, Note_on_c, 11, 70, 0
13, 464000, Note_on_c, 11, 70, 96
13, 464000, Note_on_c, 11, 67, 96
13, 464128, Note_on_c, 11, 67, 0
13, 464128, Note_on_c, 11, 70, 0
13, 464160, Note_on_c, 11, 67, 96
13, 464160, Note_on_c, 11, 70, 96
13, 464288, Note_on_c, 11, 70, 0
13, 464288, Note_on_c, 11, 67, 0
13, 464320, Note_on_c, 11, 67, 96
13, 464320, Note_on_c, 11, 70, 96
13, 464448, Note_on_c, 11, 70, 0
13, 464448, Note_on_c, 11, 67, 0
13, 464480, Note_on_c, 11, 67, 96
13, 464480, Note_on_c, 11, 70, 96
13, 464608, Note_on_c, 11, 70, 0
13, 464608, Note_on_c, 11, 67, 0
13, 464640, Note_on_c, 11, 70, 96
13, 464640, Note_on_c, 11, 67, 96
13, 464768, Note_on_c, 11, 67, 0
13, 464768, Note_on_c, 11, 70, 0
13, 464800, Note_on_c, 11, 70, 96
13, 464800, Note_on_c, 11, 67, 96
13, 464928, Note_on_c, 11, 67, 0
13, 464928, Note_on_c, 11, 70, 0
13, 464960, Note_on_c, 11, 70, 96
13, 464960, Note_on_c, 11, 67, 96
13, 465088, Note_on_c, 11, 67, 0
13, 465088, Note_on_c, 11, 70, 0
13, 465120, Note_on_c, 11, 70, 96
13, 465120, Note_on_c, 11, 67, 96
13, 465248, Note_on_c, 11, 67, 0
13, 465248, Note_on_c, 11, 70, 0
13, 465280, Note_on_c, 11, 67, 96
13, 465280, Note_on_c, 11, 70, 96
13, 465408, Note_on_c, 11, 70, 0
13, 465408, Note_on_c, 11, 67, 0
13, 465440, Note_on_c, 11, 70, 96
13, 465440, Note_on_c, 11, 67, 96
13, 465568, Note_on_c, 11, 67, 0
13, 465568, Note_on_c, 11, 70, 0
13, 465600, Note_on_c, 11, 67, 96
13, 465600, Note_on_c, 11, 70, 96
13, 465728, Note_on_c, 11, 70, 0
13, 465728, Note_on_c, 11, 67, 0
13, 465760, Note_on_c, 11, 70, 96
13, 465760, Note_on_c, 11, 67, 96
13, 465888, Note_on_c, 11, 67, 0
13, 465888, Note_on_c, 11, 70, 0
13, 465920, Note_on_c, 11, 70, 96
13, 465920, Note_on_c, 11, 67, 96
13, 466048, Note_on_c, 11, 67, 0
13, 466048, Note_on_c, 11, 70, 0
13, 466080, Note_on_c, 11, 67, 96
13, 466080, Note_on_c, 11, 70, 96
13, 466208, Note_on_c, 11, 70, 0
13, 466208, Note_on_c, 11, 67, 0
13, 466240, Note_on_c, 11, 67, 96
13, 466240, Note_on_c, 11, 70, 96
13, 466368, Note_on_c, 11, 70, 0
13, 466368, Note_on_c, 11, 67, 0
13, 466400, Note_on_c, 11, 70, 96
13, 466400, Note_on_c, 11, 67, 96
13, 466528, Note_on_c, 11, 67, 0
13, 466528, Note_on_c, 11, 70, 0
13, 466560, Note_on_c, 11, 70, 115
13, 466560, Note_on_c, 11, 67, 115
13, 466688, Note_on_c, 11, 67, 0
13, 466688, Note_on_c, 11, 70, 0
13, 466720, Note_on_c, 11, 70, 115
13, 466720, Note_on_c, 11, 67, 115
13, 466848, Note_on_c, 11, 67, 0
13, 466848, Note_on_c, 11, 70, 0
13, 466880, Note_on_c, 11, 70, 115
13, 466880, Note_on_c, 11, 67, 115
13, 467008, Note_on_c, 11, 67, 0
13, 467008, Note_on_c, 11, 70, 0
13, 467040, Note_on_c, 11, 70, 115
13, 467040, Note_on_c, 11, 67, 115
13, 467168, Note_on_c, 11, 67, 0
13, 467168, Note_on_c, 11, 70, 0
13, 467200, Note_on_c, 11, 67, 115
13, 467200, Note_on_c, 11, 70, 115
13, 467328, Note_on_c, 11, 70, 0
13, 467328, Note_on_c, 11, 67, 0
13, 467360, Note_on_c, 11, 70, 115
13, 467360, Note_on_c, 11, 67, 115
13, 467488, Note_on_c, 11, 67, 0
13, 467488, Note_on_c, 11, 70, 0
13, 467520, Note_on_c, 11, 67, 115
13, 467520, Note_on_c, 11, 70, 115
13, 467648, Note_on_c, 11, 70, 0
13, 467648, Note_on_c, 11, 67, 0
13, 467680, Note_on_c, 11, 70, 115
13, 467680, Note_on_c, 11, 67, 115
13, 467808, Note_on_c, 11, 67, 0
13, 467808, Note_on_c, 11, 70, 0
13, 467840, Note_on_c, 11, 70, 115
13, 467840, Note_on_c, 11, 67, 115
13, 467968, Note_on_c, 11, 67, 0
13, 467968, Note_on_c, 11, 70, 0
13, 468000, Note_on_c, 11, 67, 115
13, 468000, Note_on_c, 11, 70, 115
13, 468128, Note_on_c, 11, 70, 0
13, 468128, Note_on_c, 11, 67, 0
13, 468160, Note_on_c, 11, 70, 115
13, 468160, Note_on_c, 11, 67, 115
13, 468288, Note_on_c, 11, 67, 0
13, 468288, Note_on_c, 11, 70, 0
13, 468320, Note_on_c, 11, 70, 115
13, 468320, Note_on_c, 11, 67, 115
13, 468448, Note_on_c, 11, 67, 0
13, 468448, Note_on_c, 11, 70, 0
13, 468480, Note_on_c, 11, 67, 115
13, 468480, Note_on_c, 11, 75, 115
13, 468608, Note_on_c, 11, 75, 0
13, 468608, Note_on_c, 11, 67, 0
13, 468640, Note_on_c, 11, 75, 115
13, 468640, Note_on_c, 11, 67, 115
13, 468768, Note_on_c, 11, 67, 0
13, 468768, Note_on_c, 11, 75, 0
13, 468800, Note_on_c, 11, 75, 115
13, 468800, Note_on_c, 11, 67, 115
13, 468928, Note_on_c, 11, 67, 0
13, 468928, Note_on_c, 11, 75, 0
13, 468960, Note_on_c, 11, 67, 115
13, 468960, Note_on_c, 11, 75, 115
13, 469088, Note_on_c, 11, 75, 0
13, 469088, Note_on_c, 11, 67, 0
13, 469120, Note_on_c, 11, 75, 115
13, 469120, Note_on_c, 11, 67, 115
13, 469248, Note_on_c, 11, 67, 0
13, 469248, Note_on_c, 11, 75, 0
13, 469280, Note_on_c, 11, 75, 115
13, 469280, Note_on_c, 11, 67, 115
13, 469408, Note_on_c, 11, 67, 0
13, 469408, Note_on_c, 11, 75, 0
13, 469440, Note_on_c, 11, 67, 115
13, 469440, Note_on_c, 11, 75, 115
13, 469568, Note_on_c, 11, 75, 0
13, 469568, Note_on_c, 11, 67, 0
13, 469600, Note_on_c, 11, 75, 115
13, 469600, Note_on_c, 11, 67, 115
13, 469728, Note_on_c, 11, 67, 0
13, 469728, Note_on_c, 11, 75, 0
13, 469760, Note_on_c, 11, 75, 115
13, 469760, Note_on_c, 11, 67, 115
13, 469888, Note_on_c, 11, 67, 0
13, 469888, Note_on_c, 11, 75, 0
13, 469920, Note_on_c, 11, 67, 115
13, 469920, Note_on_c, 11, 75, 115
13, 470048, Note_on_c, 11, 75, 0
13, 470048, Note_on_c, 11, 67, 0
13, 470080, Note_on_c, 11, 67, 115
13, 470080, Note_on_c, 11, 75, 115
13, 470208, Note_on_c, 11, 75, 0
13, 470208, Note_on_c, 11, 67, 0
13, 470240, Note_on_c, 11, 75, 115
13, 470240, Note_on_c, 11, 67, 115
13, 470368, Note_on_c, 11, 67, 0
13, 470368, Note_on_c, 11, 75, 0
13, 470400, Note_on_c, 11, 67, 127
13, 470400, Note_on_c, 11, 75, 127
13, 470528, Note_on_c, 11, 75, 0
13, 470528, Note_on_c, 11, 67, 0
13, 470560, Note_on_c, 11, 67, 127
13, 470560, Note_on_c, 11, 75, 127
13, 470688, Note_on_c, 11, 75, 0
13, 470688, Note_on_c, 11, 67, 0
13, 470720, Note_on_c, 11, 75, 127
13, 470720, Note_on_c, 11, 67, 127
13, 470848, Note_on_c, 11, 67, 0
13, 470848, Note_on_c, 11, 75, 0
13, 470880, Note_on_c, 11, 67, 127
13, 470880, Note_on_c, 11, 75, 127
13, 471008, Note_on_c, 11, 75, 0
13, 471008, Note_on_c, 11, 67, 0
13, 471040, Note_on_c, 11, 67, 127
13, 471040, Note_on_c, 11, 75, 127
13, 471168, Note_on_c, 11, 75, 0
13, 471168, Note_on_c, 11, 67, 0
13, 471200, Note_on_c, 11, 75, 127
13, 471200, Note_on_c, 11, 67, 127
13, 471328, Note_on_c, 11, 67, 0
13, 471328, Note_on_c, 11, 75, 0
13, 471360, Note_on_c, 11, 67, 127
13, 471360, Note_on_c, 11, 75, 127
13, 471488, Note_on_c, 11, 75, 0
13, 471488, Note_on_c, 11, 67, 0
13, 471520, Note_on_c, 11, 75, 127
13, 471520, Note_on_c, 11, 67, 127
13, 471648, Note_on_c, 11, 67, 0
13, 471648, Note_on_c, 11, 75, 0
13, 471680, Note_on_c, 11, 75, 127
13, 471680, Note_on_c, 11, 67, 127
13, 471808, Note_on_c, 11, 67, 0
13, 471808, Note_on_c, 11, 75, 0
13, 471840, Note_on_c, 11, 75, 127
13, 471840, Note_on_c, 11, 67, 127
13, 471968, Note_on_c, 11, 67, 0
13, 471968, Note_on_c, 11, 75, 0
13, 472000, Note_on_c, 11, 67, 127
13, 472000, Note_on_c, 11, 75, 127
13, 472128, Note_on_c, 11, 75, 0
13, 472128, Note_on_c, 11, 67, 0
13, 472160, Note_on_c, 11, 75, 127
13, 472160, Note_on_c, 11, 67, 127
13, 472288, Note_on_c, 11, 67, 0
13, 472288, Note_on_c, 11, 75, 0
13, 472320, Note_on_c, 11, 67, 127
13, 472320, Note_on_c, 11, 75, 127
13, 472448, Note_on_c, 11, 75, 0
13, 472448, Note_on_c, 11, 67, 0
13, 472480, Note_on_c, 11, 67, 127
13, 472480, Note_on_c, 11, 75, 127
13, 472608, Note_on_c, 11, 75, 0
13, 472608, Note_on_c, 11, 67, 0
13, 472640, Note_on_c, 11, 75, 127
13, 472640, Note_on_c, 11, 67, 127
13, 472768, Note_on_c, 11, 67, 0
13, 472768, Note_on_c, 11, 75, 0
13, 472800, Note_on_c, 11, 75, 127
13, 472800, Note_on_c, 11, 67, 127
13, 472928, Note_on_c, 11, 67, 0
13, 472928, Note_on_c, 11, 75, 0
13, 472960, Note_on_c, 11, 67, 127
13, 472960, Note_on_c, 11, 75, 127
13, 473088, Note_on_c, 11, 75, 0
13, 473088, Note_on_c, 11, 67, 0
13, 473120, Note_on_c, 11, 75, 127
13, 473120, Note_on_c, 11, 67, 127
13, 473248, Note_on_c, 11, 67, 0
13, 473248, Note_on_c, 11, 75, 0
13, 473280, Note_on_c, 11, 67, 127
13, 473280, Note_on_c, 11, 75, 127
13, 473408, Note_on_c, 11, 75, 0
13, 473408, Note_on_c, 11, 67, 0
13, 473440, Note_on_c, 11, 67, 127
13, 473440, Note_on_c, 11, 75, 127
13, 473568, Note_on_c, 11, 75, 0
13, 473568, Note_on_c, 11, 67, 0
13, 473600, Note_on_c, 11, 75, 127
13, 473600, Note_on_c, 11, 67, 127
13, 473728, Note_on_c, 11, 67, 0
13, 473728, Note_on_c, 11, 75, 0
13, 473760, Note_on_c, 11, 67, 127
13, 473760, Note_on_c, 11, 75, 127
13, 473888, Note_on_c, 11, 75, 0
13, 473888, Note_on_c, 11, 67, 0
13, 473920, Note_on_c, 11, 75, 127
13, 473920, Note_on_c, 11, 67, 127
13, 474048, Note_on_c, 11, 67, 0
13, 474048, Note_on_c, 11, 75, 0
13, 474080, Note_on_c, 11, 67, 127
13, 474080, Note_on_c, 11, 75, 127
13, 474208, Note_on_c, 11, 75, 0
13, 474208, Note_on_c, 11, 67, 0
13, 474240, Note_on_c, 11, 62, 127
13, 474344, Note_on_c, 11, 62, 0
13, 474480, Note_on_c, 11, 65, 127
13, 474804, Note_on_c, 11, 65, 0
13, 474960, Note_on_c, 11, 62, 127
13, 475044, Note_on_c, 11, 62, 0
13, 475200, Note_on_c, 11, 58, 127
13, 476014, Note_on_c, 11, 58, 0
13, 478320, Note_on_c, 11, 62, 127
13, 478424, Note_on_c, 11, 62, 0
13, 478560, Note_on_c, 11, 65, 127
13, 478884, Note_on_c, 11, 65, 0
13, 479040, Note_on_c, 11, 62, 127
13, 479124, Note_on_c, 11, 62, 0
13, 479280, Note_on_c, 11, 58, 127
13, 480094, Note_on_c, 11, 58, 0
13, 481440, Control_c, 11, 7, 120
13, 482400, Note_on_c, 11, 70, 127
13, 482504, Note_on_c, 11, 70, 0
13, 482640, Note_on_c, 11, 70, 102
13, 482724, Note_on_c, 11, 70, 0
13, 482880, Note_on_c, 11, 70, 102
13, 482964, Note_on_c, 11, 70, 0
13, 483120, Note_on_c, 11, 58, 102
13, 483204, Note_on_c, 11, 58, 0
13, 483360, Note_on_c, 11, 70, 127
13, 483464, Note_on_c, 11, 70, 0
13, 483600, Note_on_c, 11, 70, 102
13, 483684, Note_on_c, 11, 70, 0
13, 483840, Note_on_c, 11, 70, 102
13, 483924, Note_on_c, 11, 70, 0
13, 484080, Note_on_c, 11, 58, 102
13, 484164, Note_on_c, 11, 58, 0
13, 484320, Note_on_c, 11, 70, 127
13, 484424, Note_on_c, 11, 70, 0
13, 484560, Note_on_c, 11, 70, 102
13, 484644, Note_on_c, 11, 70, 0
13, 484800, Note_on_c, 11, 70, 102
13, 484884, Note_on_c, 11, 70, 0
13, 485040, Note_on_c, 11, 58, 102
13, 485124, Note_on_c, 11, 58, 0
13, 485280, Note_on_c, 11, 70, 127
13, 485384, Note_on_c, 11, 70, 0
13, 485520, Note_on_c, 11, 70, 102
13, 485604, Note_on_c, 11, 70, 0
13, 485760, Note_on_c, 11, 70, 102
13, 485844, Note_on_c, 11, 70, 0
13, 486000, Note_on_c, 11, 58, 102
13, 486084, Note_on_c, 11, 58, 0
13, 486240, Note_on_c, 11, 75, 127
13, 486240, Note_on_c, 11, 67, 127
13, 486456, Note_on_c, 11, 67, 0
13, 486456, Note_on_c, 11, 75, 0
13, 486720, Note_on_c, 11, 67, 127
13, 486720, Note_on_c, 11, 75, 127
13, 486936, Note_on_c, 11, 75, 0
13, 486936, Note_on_c, 11, 67, 0
13, 487200, Note_on_c, 11, 67, 127
13, 487200, Note_on_c, 11, 75, 127
13, 487416, Note_on_c, 11, 75, 0
13, 487416, Note_on_c, 11, 67, 0
13, 487680, Note_on_c, 11, 67, 127
13, 487680, Note_on_c, 11, 75, 127
13, 487896, Note_on_c, 11, 75, 0
13, 487896, Note_on_c, 11, 67, 0
13, 488160, Note_on_c, 11, 67, 127
13, 488160, Note_on_c, 11, 75, 127
13, 488376, Note_on_c, 11, 75, 0
13, 488376, Note_on_c, 11, 67, 0
13, 488640, Note_on_c, 11, 67, 127
13, 488640, Note_on_c, 11, 75, 127
13, 488856, Note_on_c, 11, 75, 0
13, 488856, Note_on_c, 11, 67, 0
13, 489120, Note_on_c, 11, 67, 127
13, 489120, Note_on_c, 11, 75, 127
13, 489336, Note_on_c, 11, 75, 0
13, 489336, Note_on_c, 11, 67, 0
13, 489600, Note_on_c, 11, 67, 127
13, 489600, Note_on_c, 11, 75, 127
13, 489816, Note_on_c, 11, 75, 0
13, 489816, Note_on_c, 11, 67, 0
13, 490080, Note_on_c, 11, 67, 127
13, 490080, Note_on_c, 11, 75, 127
13, 490296, Note_on_c, 11, 75, 0
13, 490296, Note_on_c, 11, 67, 0
13, 492000, Note_on_c, 11, 63, 127
13, 492000, Note_on_c, 11, 67, 127
13, 492216, Note_on_c, 11, 67, 0
13, 492216, Note_on_c, 11, 63, 0
13, 493920, Note_on_c, 11, 63, 127
13, 493920, Note_on_c, 11, 55, 127
13, 494136, Note_on_c, 11, 55, 0
13, 494136, Note_on_c, 11, 63, 0
13, 495000, Note_on_c, 11, 63, 127
13, 495000, Note_on_c, 11, 67, 127
13, 495216, Note_on_c, 11, 67, 0
13, 495216, Note_on_c, 11, 63, 0
13, 496080, Note_on_c, 11, 63, 127
13, 496080, Note_on_c, 11, 55, 127
13, 496296, Note_on_c, 11, 55, 0
13, 496296, Note_on_c, 11, 63, 0
13, 497160, Note_on_c, 11, 63, 127
13, 497160, Note_on_c, 11, 55, 127
13, 497376, Note_on_c, 11, 55, 0
13, 497376, Note_on_c, 11, 63, 0
13, 498360, Note_on_c, 11, 55, 127
13, 498360, Note_on_c, 11, 63, 127
13, 498576, Note_on_c, 11, 63, 0
13, 498576, Note_on_c, 11, 55, 0
13, 498576, End_track
14, 0, Start_track
14, 0, Title_t, "Cello               "
14, 0, Program_c, 13, 48
14, 0, Control_c, 13, 7, 107
14, 0, Control_c, 13, 10, 82
14, 2880, Control_c, 13, 93, 100
14, 2880, Control_c, 13, 91, 100
14, 5760, Control_c, 13, 10, 85
14, 9600, Note_on_c, 13, 41, 81
14, 11342, Note_on_c, 13, 41, 0
14, 11520, Note_on_c, 13, 36, 127
14, 13210, Note_on_c, 13, 36, 0
14, 25920, Note_on_c, 13, 43, 81
14, 27662, Note_on_c, 13, 43, 0
14, 27840, Note_on_c, 13, 38, 98
14, 29530, Note_on_c, 13, 38, 0
14, 35760, Note_on_c, 13, 41, 37
14, 35880, Note_on_c, 13, 42, 36
14, 35892, Note_on_c, 13, 41, 0
14, 36000, Note_on_c, 13, 44, 53
14, 36012, Note_on_c, 13, 42, 0
14, 36120, Note_on_c, 13, 42, 61
14, 36122, Note_on_c, 13, 44, 0
14, 36240, Note_on_c, 13, 42, 0
14, 36240, Note_on_c, 13, 41, 36
14, 36564, Note_on_c, 13, 41, 0
14, 36720, Note_on_c, 13, 41, 35
14, 36840, Note_on_c, 13, 43, 40
14, 36844, Note_on_c, 13, 41, 0
14, 36960, Note_on_c, 13, 44, 54
14, 36962, Note_on_c, 13, 43, 0
14, 37080, Note_on_c, 13, 43, 61
14, 37092, Note_on_c, 13, 44, 0
14, 37200, Note_on_c, 13, 41, 56
14, 37206, Note_on_c, 13, 43, 0
14, 37444, Note_on_c, 13, 41, 0
14, 37680, Note_on_c, 13, 53, 40
14, 37800, Note_on_c, 13, 55, 43
14, 37804, Note_on_c, 13, 53, 0
14, 37920, Note_on_c, 13, 56, 50
14, 37936, Note_on_c, 13, 55, 0
14, 38040, Note_on_c, 13, 55, 57
14, 38060, Note_on_c, 13, 56, 0
14, 38160, Note_on_c, 13, 55, 0
14, 38160, Note_on_c, 13, 53, 42
14, 38240, Note_on_c, 13, 53, 0
14, 38400, Note_on_c, 13, 53, 60
14, 38520, Note_on_c, 13, 51, 53
14, 38532, Note_on_c, 13, 53, 0
14, 38640, Note_on_c, 13, 50, 48
14, 38656, Note_on_c, 13, 51, 0
14, 38700, Note_on_c, 13, 50, 0
14, 38880, Note_on_c, 13, 50, 66
14, 38984, Note_on_c, 13, 50, 0
14, 39000, Note_on_c, 13, 48, 39
14, 39120, Note_on_c, 13, 48, 0
14, 39120, Note_on_c, 13, 46, 38
14, 39180, Note_on_c, 13, 46, 0
14, 39600, Note_on_c, 13, 53, 41
14, 39720, Note_on_c, 13, 53, 0
14, 39720, Note_on_c, 13, 55, 41
14, 39840, Note_on_c, 13, 56, 56
14, 39852, Note_on_c, 13, 55, 0
14, 39960, Note_on_c, 13, 56, 0
14, 39960, Note_on_c, 13, 55, 39
14, 40074, Note_on_c, 13, 55, 0
14, 40080, Note_on_c, 13, 53, 43
14, 40144, Note_on_c, 13, 53, 0
14, 40320, Note_on_c, 13, 53, 66
14, 40440, Note_on_c, 13, 51, 40
14, 40450, Note_on_c, 13, 53, 0
14, 40560, Note_on_c, 13, 50, 49
14, 40572, Note_on_c, 13, 51, 0
14, 40622, Note_on_c, 13, 50, 0
14, 40800, Note_on_c, 13, 50, 68
14, 40912, Note_on_c, 13, 50, 0
14, 40920, Note_on_c, 13, 48, 41
14, 41040, Note_on_c, 13, 46, 39
14, 41046, Note_on_c, 13, 48, 0
14, 41104, Note_on_c, 13, 46, 0
14, 44880, Control_c, 13, 7, 100
14, 45840, Note_on_c, 13, 51, 89
14, 45990, Note_on_c, 13, 51, 0
14, 47760, Note_on_c, 13, 51, 89
14, 47910, Note_on_c, 13, 51, 0
14, 64080, Control_c, 13, 7, 100
14, 65040, Note_on_c, 13, 51, 71
14, 65162, Note_on_c, 13, 51, 0
14, 65520, Note_on_c, 13, 55, 71
14, 65662, Note_on_c, 13, 55, 0
14, 66000, Note_on_c, 13, 53, 71
14, 66140, Note_on_c, 13, 53, 0
14, 66480, Note_on_c, 13, 46, 71
14, 66600, Note_on_c, 13, 46, 0
14, 66960, Note_on_c, 13, 51, 95
14, 67090, Note_on_c, 13, 51, 0
14, 67440, Note_on_c, 13, 55, 95
14, 67550, Note_on_c, 13, 55, 0
14, 67920, Note_on_c, 13, 58, 95
14, 68004, Note_on_c, 13, 58, 0
14, 68400, Note_on_c, 13, 46, 95
14, 68500, Note_on_c, 13, 46, 0
14, 68880, Note_on_c, 13, 51, 95
14, 69004, Note_on_c, 13, 51, 0
14, 69360, Note_on_c, 13, 55, 95
14, 69534, Note_on_c, 13, 55, 0
14, 69840, Note_on_c, 13, 53, 95
14, 69982, Note_on_c, 13, 53, 0
14, 70320, Note_on_c, 13, 46, 95
14, 70460, Note_on_c, 13, 46, 0
14, 70800, Note_on_c, 13, 51, 95
14, 70940, Note_on_c, 13, 51, 0
14, 71280, Note_on_c, 13, 55, 95
14, 71430, Note_on_c, 13, 55, 0
14, 71760, Note_on_c, 13, 56, 95
14, 71900, Note_on_c, 13, 56, 0
14, 72240, Note_on_c, 13, 53, 95
14, 72356, Note_on_c, 13, 53, 0
14, 72720, Note_on_c, 13, 55, 127
14, 72860, Note_on_c, 13, 55, 0
14, 73200, Note_on_c, 13, 58, 127
14, 73316, Note_on_c, 13, 58, 0
14, 73680, Note_on_c, 13, 60, 127
14, 73804, Note_on_c, 13, 60, 0
14, 74160, Note_on_c, 13, 44, 127
14, 74282, Note_on_c, 13, 44, 0
14, 74640, Note_on_c, 13, 46, 127
14, 74750, Note_on_c, 13, 46, 0
14, 75120, Note_on_c, 13, 50, 127
14, 75250, Note_on_c, 13, 50, 0
14, 75600, Note_on_c, 13, 51, 127
14, 75722, Note_on_c, 13, 51, 0
14, 76080, Note_on_c, 13, 46, 127
14, 76196, Note_on_c, 13, 46, 0
14, 76560, Note_on_c, 13, 52, 127
14, 76696, Note_on_c, 13, 52, 0
14, 77040, Note_on_c, 13, 46, 127
14, 77160, Note_on_c, 13, 46, 0
14, 77520, Note_on_c, 13, 53, 127
14, 77652, Note_on_c, 13, 53, 0
14, 78000, Note_on_c, 13, 46, 127
14, 78082, Note_on_c, 13, 46, 0
14, 78480, Note_on_c, 13, 56, 127
14, 78610, Note_on_c, 13, 56, 0
14, 78960, Note_on_c, 13, 46, 127
14, 79060, Note_on_c, 13, 46, 0
14, 79440, Note_on_c, 13, 58, 127
14, 79572, Note_on_c, 13, 58, 0
14, 79920, Note_on_c, 13, 46, 127
14, 80016, Note_on_c, 13, 46, 0
14, 80400, Note_on_c, 13, 62, 127
14, 80532, Note_on_c, 13, 62, 0
14, 80880, Note_on_c, 13, 46, 127
14, 80996, Note_on_c, 13, 46, 0
14, 81360, Note_on_c, 13, 65, 127
14, 81454, Note_on_c, 13, 65, 0
14, 81600, Note_on_c, 13, 46, 127
14, 81702, Note_on_c, 13, 46, 0
14, 81840, Note_on_c, 13, 46, 127
14, 81916, Note_on_c, 13, 46, 0
14, 82080, Note_on_c, 13, 46, 127
14, 82152, Note_on_c, 13, 46, 0
14, 82320, Note_on_c, 13, 46, 127
14, 82416, Note_on_c, 13, 46, 0
14, 82560, Note_on_c, 13, 46, 127
14, 82652, Note_on_c, 13, 46, 0
14, 82800, Note_on_c, 13, 46, 127
14, 82884, Note_on_c, 13, 46, 0
14, 83040, Note_on_c, 13, 46, 127
14, 83120, Note_on_c, 13, 46, 0
14, 83280, Note_on_c, 13, 46, 127
14, 83362, Note_on_c, 13, 46, 0
14, 83520, Note_on_c, 13, 46, 127
14, 83616, Note_on_c, 13, 46, 0
14, 83760, Note_on_c, 13, 46, 127
14, 83846, Note_on_c, 13, 46, 0
14, 84000, Note_on_c, 13, 46, 127
14, 84080, Note_on_c, 13, 46, 0
14, 84240, Note_on_c, 13, 46, 127
14, 84324, Note_on_c, 13, 46, 0
14, 84480, Note_on_c, 13, 46, 127
14, 84556, Note_on_c, 13, 46, 0
14, 84720, Note_on_c, 13, 46, 127
14, 84790, Note_on_c, 13, 46, 0
14, 84960, Note_on_c, 13, 46, 127
14, 85030, Note_on_c, 13, 46, 0
14, 85200, Note_on_c, 13, 51, 127
14, 85310, Note_on_c, 13, 51, 0
14, 85440, Note_on_c, 13, 51, 127
14, 85536, Note_on_c, 13, 51, 0
14, 85680, Note_on_c, 13, 51, 127
14, 85782, Note_on_c, 13, 51, 0
14, 85920, Note_on_c, 13, 51, 127
14, 86022, Note_on_c, 13, 51, 0
14, 86160, Note_on_c, 13, 51, 127
14, 86256, Note_on_c, 13, 51, 0
14, 86400, Note_on_c, 13, 51, 127
14, 86490, Note_on_c, 13, 51, 0
14, 86640, Note_on_c, 13, 51, 127
14, 86760, Note_on_c, 13, 51, 0
14, 86880, Note_on_c, 13, 51, 127
14, 86966, Note_on_c, 13, 51, 0
14, 87120, Note_on_c, 13, 51, 127
14, 87206, Note_on_c, 13, 51, 0
14, 87360, Note_on_c, 13, 51, 127
14, 87450, Note_on_c, 13, 51, 0
14, 87600, Note_on_c, 13, 51, 127
14, 87674, Note_on_c, 13, 51, 0
14, 87840, Note_on_c, 13, 51, 127
14, 87926, Note_on_c, 13, 51, 0
14, 88080, Note_on_c, 13, 51, 127
14, 88172, Note_on_c, 13, 51, 0
14, 88320, Note_on_c, 13, 51, 118
14, 88394, Note_on_c, 13, 51, 0
14, 88560, Note_on_c, 13, 51, 126
14, 88630, Note_on_c, 13, 51, 0
14, 88800, Note_on_c, 13, 51, 116
14, 88870, Note_on_c, 13, 51, 0
14, 89040, Note_on_c, 13, 51, 127
14, 89132, Note_on_c, 13, 51, 0
14, 89280, Note_on_c, 13, 51, 127
14, 89354, Note_on_c, 13, 51, 0
14, 89520, Note_on_c, 13, 51, 127
14, 89602, Note_on_c, 13, 51, 0
14, 89760, Note_on_c, 13, 51, 127
14, 89832, Note_on_c, 13, 51, 0
14, 90000, Note_on_c, 13, 51, 127
14, 90092, Note_on_c, 13, 51, 0
14, 90240, Note_on_c, 13, 51, 127
14, 90316, Note_on_c, 13, 51, 0
14, 90480, Note_on_c, 13, 51, 122
14, 90554, Note_on_c, 13, 51, 0
14, 90720, Note_on_c, 13, 51, 120
14, 90800, Note_on_c, 13, 51, 0
14, 90960, Note_on_c, 13, 51, 127
14, 91070, Note_on_c, 13, 51, 0
14, 91200, Note_on_c, 13, 51, 124
14, 91280, Note_on_c, 13, 51, 0
14, 91440, Note_on_c, 13, 51, 114
14, 91520, Note_on_c, 13, 51, 0
14, 91680, Note_on_c, 13, 51, 116
14, 91754, Note_on_c, 13, 51, 0
14, 91920, Note_on_c, 13, 51, 127
14, 91992, Note_on_c, 13, 51, 0
14, 92160, Note_on_c, 13, 51, 127
14, 92236, Note_on_c, 13, 51, 0
14, 92400, Note_on_c, 13, 51, 127
14, 92480, Note_on_c, 13, 51, 0
14, 92640, Note_on_c, 13, 51, 127
14, 92712, Note_on_c, 13, 51, 0
14, 92880, Note_on_c, 13, 51, 127
14, 93014, Note_on_c, 13, 51, 0
14, 93120, Note_on_c, 13, 51, 116
14, 93202, Note_on_c, 13, 51, 0
14, 93360, Note_on_c, 13, 51, 122
14, 93432, Note_on_c, 13, 51, 0
14, 93600, Note_on_c, 13, 51, 127
14, 93680, Note_on_c, 13, 51, 0
14, 93840, Note_on_c, 13, 51, 127
14, 93962, Note_on_c, 13, 51, 0
14, 94080, Note_on_c, 13, 51, 122
14, 94162, Note_on_c, 13, 51, 0
14, 94320, Note_on_c, 13, 51, 116
14, 94400, Note_on_c, 13, 51, 0
14, 94560, Note_on_c, 13, 51, 122
14, 94642, Note_on_c, 13, 51, 0
14, 94800, Note_on_c, 13, 51, 127
14, 94912, Note_on_c, 13, 51, 0
14, 95040, Note_on_c, 13, 51, 127
14, 95124, Note_on_c, 13, 51, 0
14, 95280, Note_on_c, 13, 51, 127
14, 95366, Note_on_c, 13, 51, 0
14, 95520, Note_on_c, 13, 51, 127
14, 95614, Note_on_c, 13, 51, 0
14, 95760, Note_on_c, 13, 51, 127
14, 95920, Note_on_c, 13, 51, 0
14, 96240, Note_on_c, 13, 55, 127
14, 96374, Note_on_c, 13, 55, 0
14, 96720, Note_on_c, 13, 48, 127
14, 96872, Note_on_c, 13, 48, 0
14, 97200, Note_on_c, 13, 51, 127
14, 97314, Note_on_c, 13, 51, 0
14, 97680, Note_on_c, 13, 44, 127
14, 97780, Note_on_c, 13, 44, 0
14, 98160, Note_on_c, 13, 48, 127
14, 98300, Note_on_c, 13, 48, 0
14, 98640, Note_on_c, 13, 41, 127
14, 98904, Note_on_c, 13, 41, 0
14, 99600, Note_on_c, 13, 53, 127
14, 99756, Note_on_c, 13, 53, 0
14, 100080, Note_on_c, 13, 56, 127
14, 100166, Note_on_c, 13, 56, 0
14, 100560, Note_on_c, 13, 50, 127
14, 100646, Note_on_c, 13, 50, 0
14, 101040, Note_on_c, 13, 53, 127
14, 101196, Note_on_c, 13, 53, 0
14, 101520, Note_on_c, 13, 46, 127
14, 101644, Note_on_c, 13, 46, 0
14, 102000, Note_on_c, 13, 50, 127
14, 102114, Note_on_c, 13, 50, 0
14, 102480, Note_on_c, 13, 43, 127
14, 102732, Note_on_c, 13, 43, 0
14, 103440, Note_on_c, 13, 55, 127
14, 103562, Note_on_c, 13, 55, 0
14, 103920, Note_on_c, 13, 58, 127
14, 104022, Note_on_c, 13, 58, 0
14, 104400, Note_on_c, 13, 51, 127
14, 104536, Note_on_c, 13, 51, 0
14, 104880, Note_on_c, 13, 55, 127
14, 105016, Note_on_c, 13, 55, 0
14, 105360, Note_on_c, 13, 48, 127
14, 105512, Note_on_c, 13, 48, 0
14, 105840, Note_on_c, 13, 51, 127
14, 105976, Note_on_c, 13, 51, 0
14, 106320, Note_on_c, 13, 45, 127
14, 106446, Note_on_c, 13, 45, 0
14, 106800, Note_on_c, 13, 48, 127
14, 106922, Note_on_c, 13, 48, 0
14, 107280, Note_on_c, 13, 46, 127
14, 107426, Note_on_c, 13, 46, 0
14, 107760, Note_on_c, 13, 46, 127
14, 107912, Note_on_c, 13, 46, 0
14, 108240, Note_on_c, 13, 51, 127
14, 108396, Note_on_c, 13, 51, 0
14, 108720, Note_on_c, 13, 51, 127
14, 108870, Note_on_c, 13, 51, 0
14, 109200, Note_on_c, 13, 46, 127
14, 109396, Note_on_c, 13, 46, 0
14, 109440, Note_on_c, 13, 58, 127
14, 109522, Note_on_c, 13, 58, 0
14, 109680, Note_on_c, 13, 58, 127
14, 109760, Note_on_c, 13, 58, 0
14, 109920, Note_on_c, 13, 58, 127
14, 110016, Note_on_c, 13, 58, 0
14, 110160, Note_on_c, 13, 60, 127
14, 110400, Note_on_c, 13, 58, 127
14, 110404, Note_on_c, 13, 60, 0
14, 110496, Note_on_c, 13, 58, 0
14, 110640, Note_on_c, 13, 55, 127
14, 110746, Note_on_c, 13, 55, 0
14, 110880, Note_on_c, 13, 51, 127
14, 110986, Note_on_c, 13, 51, 0
14, 111120, Note_on_c, 13, 46, 127
14, 111396, Note_on_c, 13, 46, 0
14, 111600, Note_on_c, 13, 46, 127
14, 111834, Note_on_c, 13, 46, 0
14, 112080, Note_on_c, 13, 51, 127
14, 112292, Note_on_c, 13, 51, 0
14, 112560, Note_on_c, 13, 51, 127
14, 112770, Note_on_c, 13, 51, 0
14, 113040, Note_on_c, 13, 46, 127
14, 113206, Note_on_c, 13, 46, 0
14, 113280, Note_on_c, 13, 58, 124
14, 113362, Note_on_c, 13, 58, 0
14, 113520, Note_on_c, 13, 58, 127
14, 113586, Note_on_c, 13, 58, 0
14, 113760, Note_on_c, 13, 58, 127
14, 113846, Note_on_c, 13, 58, 0
14, 114000, Note_on_c, 13, 60, 127
14, 114234, Note_on_c, 13, 60, 0
14, 114240, Note_on_c, 13, 58, 127
14, 114336, Note_on_c, 13, 58, 0
14, 114480, Note_on_c, 13, 55, 127
14, 114586, Note_on_c, 13, 55, 0
14, 114720, Note_on_c, 13, 51, 127
14, 114830, Note_on_c, 13, 51, 0
14, 114960, Note_on_c, 13, 46, 127
14, 115204, Note_on_c, 13, 46, 0
14, 134160, Note_on_c, 13, 58, 77
14, 135014, Note_on_c, 13, 58, 0
14, 135120, Note_on_c, 13, 53, 77
14, 135936, Note_on_c, 13, 53, 0
14, 136080, Note_on_c, 13, 55, 77
14, 136944, Note_on_c, 13, 55, 0
14, 137040, Note_on_c, 13, 50, 77
14, 137914, Note_on_c, 13, 50, 0
14, 138000, Note_on_c, 13, 51, 71
14, 138134, Note_on_c, 13, 51, 0
14, 138480, Note_on_c, 13, 50, 71
14, 138610, Note_on_c, 13, 50, 0
14, 138960, Note_on_c, 13, 48, 71
14, 139086, Note_on_c, 13, 48, 0
14, 139440, Note_on_c, 13, 46, 71
14, 139572, Note_on_c, 13, 46, 0
14, 139920, Note_on_c, 13, 45, 71
14, 140040, Note_on_c, 13, 45, 0
14, 140400, Note_on_c, 13, 46, 71
14, 140500, Note_on_c, 13, 46, 0
14, 140880, Note_on_c, 13, 53, 71
14, 141004, Note_on_c, 13, 53, 0
14, 141360, Note_on_c, 13, 41, 71
14, 141460, Note_on_c, 13, 41, 0
14, 141840, Note_on_c, 13, 46, 127
14, 141944, Note_on_c, 13, 46, 0
14, 142320, Note_on_c, 13, 58, 127
14, 142452, Note_on_c, 13, 58, 0
14, 142800, Note_on_c, 13, 53, 127
14, 142926, Note_on_c, 13, 53, 0
14, 143280, Note_on_c, 13, 41, 118
14, 143416, Note_on_c, 13, 41, 0
14, 143760, Note_on_c, 13, 43, 127
14, 143892, Note_on_c, 13, 43, 0
14, 144240, Note_on_c, 13, 55, 127
14, 144330, Note_on_c, 13, 55, 0
14, 144720, Note_on_c, 13, 50, 127
14, 144840, Note_on_c, 13, 50, 0
14, 145200, Note_on_c, 13, 38, 127
14, 145332, Note_on_c, 13, 38, 0
14, 145680, Note_on_c, 13, 39, 45
14, 145896, Note_on_c, 13, 39, 0
14, 146160, Note_on_c, 13, 51, 45
14, 146376, Note_on_c, 13, 51, 0
14, 146640, Note_on_c, 13, 51, 45
14, 146856, Note_on_c, 13, 51, 0
14, 147120, Note_on_c, 13, 51, 45
14, 147336, Note_on_c, 13, 51, 0
14, 147600, Note_on_c, 13, 38, 45
14, 147744, Note_on_c, 13, 38, 0
14, 148080, Note_on_c, 13, 50, 45
14, 148224, Note_on_c, 13, 50, 0
14, 148560, Note_on_c, 13, 50, 45
14, 148704, Note_on_c, 13, 50, 0
14, 149040, Note_on_c, 13, 50, 45
14, 149184, Note_on_c, 13, 50, 0
14, 149520, Note_on_c, 13, 38, 45
14, 149664, Note_on_c, 13, 38, 0
14, 150000, Note_on_c, 13, 50, 45
14, 150144, Note_on_c, 13, 50, 0
14, 150480, Note_on_c, 13, 50, 45
14, 150624, Note_on_c, 13, 50, 0
14, 150960, Note_on_c, 13, 50, 45
14, 151104, Note_on_c, 13, 50, 0
14, 151440, Note_on_c, 13, 38, 45
14, 151584, Note_on_c, 13, 38, 0
14, 151920, Note_on_c, 13, 50, 45
14, 152064, Note_on_c, 13, 50, 0
14, 152400, Note_on_c, 13, 50, 45
14, 152544, Note_on_c, 13, 50, 0
14, 152880, Note_on_c, 13, 50, 45
14, 153024, Note_on_c, 13, 50, 0
14, 153360, Note_on_c, 13, 43, 67
14, 153464, Note_on_c, 13, 43, 0
14, 153600, Note_on_c, 13, 46, 67
14, 153684, Note_on_c, 13, 46, 0
14, 153840, Note_on_c, 13, 51, 67
14, 153934, Note_on_c, 13, 51, 0
14, 154080, Note_on_c, 13, 50, 67
14, 154190, Note_on_c, 13, 50, 0
14, 154320, Note_on_c, 13, 48, 67
14, 154426, Note_on_c, 13, 48, 0
14, 154560, Note_on_c, 13, 46, 67
14, 154652, Note_on_c, 13, 46, 0
14, 154800, Note_on_c, 13, 45, 67
14, 154910, Note_on_c, 13, 45, 0
14, 155040, Note_on_c, 13, 43, 67
14, 155132, Note_on_c, 13, 43, 0
14, 155280, Note_on_c, 13, 45, 76
14, 155394, Note_on_c, 13, 45, 0
14, 155520, Note_on_c, 13, 48, 76
14, 155626, Note_on_c, 13, 48, 0
14, 155760, Note_on_c, 13, 53, 76
14, 155876, Note_on_c, 13, 53, 0
14, 156000, Note_on_c, 13, 51, 76
14, 156106, Note_on_c, 13, 51, 0
14, 156240, Note_on_c, 13, 50, 76
14, 156356, Note_on_c, 13, 50, 0
14, 156480, Note_on_c, 13, 48, 76
14, 156600, Note_on_c, 13, 48, 0
14, 156720, Note_on_c, 13, 46, 76
14, 156820, Note_on_c, 13, 46, 0
14, 156960, Note_on_c, 13, 45, 76
14, 157082, Note_on_c, 13, 45, 0
14, 157200, Note_on_c, 13, 46, 86
14, 157292, Note_on_c, 13, 46, 0
14, 157440, Note_on_c, 13, 50, 86
14, 157534, Note_on_c, 13, 50, 0
14, 157680, Note_on_c, 13, 55, 86
14, 157786, Note_on_c, 13, 55, 0
14, 157920, Note_on_c, 13, 53, 86
14, 158020, Note_on_c, 13, 53, 0
14, 158160, Note_on_c, 13, 51, 114
14, 158244, Note_on_c, 13, 51, 0
14, 158400, Note_on_c, 13, 50, 103
14, 158512, Note_on_c, 13, 50, 0
14, 158640, Note_on_c, 13, 48, 114
14, 158746, Note_on_c, 13, 48, 0
14, 158880, Note_on_c, 13, 46, 114
14, 158974, Note_on_c, 13, 46, 0
14, 159120, Note_on_c, 13, 45, 127
14, 159234, Note_on_c, 13, 45, 0
14, 159360, Note_on_c, 13, 48, 127
14, 159452, Note_on_c, 13, 48, 0
14, 159600, Note_on_c, 13, 53, 127
14, 159720, Note_on_c, 13, 53, 0
14, 159840, Note_on_c, 13, 51, 127
14, 159936, Note_on_c, 13, 51, 0
14, 160080, Note_on_c, 13, 50, 127
14, 160196, Note_on_c, 13, 50, 0
14, 160320, Note_on_c, 13, 48, 127
14, 160422, Note_on_c, 13, 48, 0
14, 160560, Note_on_c, 13, 46, 127
14, 160652, Note_on_c, 13, 46, 0
14, 160800, Note_on_c, 13, 45, 127
14, 160924, Note_on_c, 13, 45, 0
14, 161040, Note_on_c, 13, 46, 82
14, 161490, Note_on_c, 13, 46, 0
14, 161520, Note_on_c, 13, 50, 80
14, 161760, Note_on_c, 13, 50, 0
14, 161760, Note_on_c, 13, 51, 80
14, 162000, Note_on_c, 13, 51, 0
14, 162000, Note_on_c, 13, 53, 80
14, 162480, Note_on_c, 13, 53, 0
14, 162480, Note_on_c, 13, 55, 80
14, 162960, Note_on_c, 13, 55, 0
14, 162960, Note_on_c, 13, 57, 80
14, 163440, Note_on_c, 13, 57, 0
14, 163440, Note_on_c, 13, 58, 80
14, 163920, Note_on_c, 13, 58, 0
14, 163920, Note_on_c, 13, 60, 80
14, 164400, Note_on_c, 13, 60, 0
14, 164400, Note_on_c, 13, 62, 80
14, 164784, Note_on_c, 13, 62, 0
14, 164880, Note_on_c, 13, 51, 63
14, 165360, Note_on_c, 13, 53, 61
14, 165372, Note_on_c, 13, 51, 0
14, 165840, Note_on_c, 13, 55, 61
14, 165864, Note_on_c, 13, 53, 0
14, 166320, Note_on_c, 13, 57, 48
14, 166340, Note_on_c, 13, 55, 0
14, 166704, Note_on_c, 13, 57, 0
14, 166800, Note_on_c, 13, 58, 60
14, 167280, Note_on_c, 13, 58, 0
14, 167280, Note_on_c, 13, 60, 59
14, 167760, Note_on_c, 13, 60, 0
14, 167760, Note_on_c, 13, 62, 73
14, 168240, Note_on_c, 13, 62, 0
14, 168240, Note_on_c, 13, 63, 68
14, 168590, Note_on_c, 13, 63, 0
14, 168720, Note_on_c, 13, 65, 72
14, 169200, Note_on_c, 13, 62, 79
14, 169204, Note_on_c, 13, 65, 0
14, 169680, Note_on_c, 13, 62, 0
14, 169680, Note_on_c, 13, 58, 61
14, 170160, Note_on_c, 13, 62, 74
14, 170176, Note_on_c, 13, 58, 0
14, 170404, Note_on_c, 13, 62, 0
14, 170640, Note_on_c, 13, 53, 68
14, 171120, Note_on_c, 13, 58, 67
14, 171154, Note_on_c, 13, 53, 0
14, 171600, Note_on_c, 13, 51, 67
14, 171612, Note_on_c, 13, 58, 0
14, 172080, Note_on_c, 13, 57, 67
14, 172134, Note_on_c, 13, 51, 0
14, 172534, Note_on_c, 13, 57, 0
14, 172560, Note_on_c, 13, 50, 77
14, 172792, Note_on_c, 13, 50, 0
14, 173040, Note_on_c, 13, 50, 76
14, 173262, Note_on_c, 13, 50, 0
14, 173280, Note_on_c, 13, 51, 73
14, 173520, Note_on_c, 13, 51, 0
14, 173520, Note_on_c, 13, 53, 66
14, 174000, Note_on_c, 13, 55, 54
14, 174012, Note_on_c, 13, 53, 0
14, 174480, Note_on_c, 13, 55, 0
14, 174480, Note_on_c, 13, 57, 70
14, 174960, Note_on_c, 13, 57, 0
14, 174960, Note_on_c, 13, 58, 65
14, 175440, Note_on_c, 13, 60, 44
14, 175472, Note_on_c, 13, 58, 0
14, 175920, Note_on_c, 13, 62, 60
14, 175954, Note_on_c, 13, 60, 0
14, 176184, Note_on_c, 13, 62, 0
14, 176400, Note_on_c, 13, 51, 81
14, 176880, Note_on_c, 13, 53, 60
14, 176904, Note_on_c, 13, 51, 0
14, 177360, Note_on_c, 13, 55, 54
14, 177366, Note_on_c, 13, 53, 0
14, 177840, Note_on_c, 13, 57, 50
14, 177882, Note_on_c, 13, 55, 0
14, 178320, Note_on_c, 13, 58, 46
14, 178376, Note_on_c, 13, 57, 0
14, 178800, Note_on_c, 13, 58, 0
14, 178800, Note_on_c, 13, 60, 57
14, 179280, Note_on_c, 13, 60, 0
14, 179280, Note_on_c, 13, 62, 70
14, 179760, Note_on_c, 13, 62, 0
14, 179760, Note_on_c, 13, 63, 59
14, 180210, Note_on_c, 13, 63, 0
14, 180240, Note_on_c, 13, 65, 72
14, 180712, Note_on_c, 13, 65, 0
14, 180720, Note_on_c, 13, 62, 68
14, 181200, Note_on_c, 13, 58, 54
14, 181236, Note_on_c, 13, 62, 0
14, 181662, Note_on_c, 13, 58, 0
14, 181680, Note_on_c, 13, 53, 51
14, 182160, Note_on_c, 13, 41, 73
14, 182210, Note_on_c, 13, 53, 0
14, 182640, Note_on_c, 13, 53, 66
14, 182674, Note_on_c, 13, 41, 0
14, 183120, Note_on_c, 13, 41, 76
14, 183156, Note_on_c, 13, 53, 0
14, 183600, Note_on_c, 13, 41, 0
14, 183600, Note_on_c, 13, 53, 72
14, 183990, Note_on_c, 13, 53, 0
14, 184080, Note_on_c, 13, 46, 95
14, 184206, Note_on_c, 13, 46, 0
14, 184560, Note_on_c, 13, 53, 95
14, 184690, Note_on_c, 13, 53, 0
14, 185040, Note_on_c, 13, 45, 95
14, 185172, Note_on_c, 13, 45, 0
14, 185520, Note_on_c, 13, 53, 95
14, 185654, Note_on_c, 13, 53, 0
14, 186000, Note_on_c, 13, 46, 95
14, 186122, Note_on_c, 13, 46, 0
14, 186480, Note_on_c, 13, 53, 95
14, 186616, Note_on_c, 13, 53, 0
14, 186960, Note_on_c, 13, 41, 95
14, 187094, Note_on_c, 13, 41, 0
14, 187440, Note_on_c, 13, 53, 95
14, 187586, Note_on_c, 13, 53, 0
14, 187920, Note_on_c, 13, 46, 95
14, 188056, Note_on_c, 13, 46, 0
14, 188400, Note_on_c, 13, 53, 95
14, 188546, Note_on_c, 13, 53, 0
14, 188880, Note_on_c, 13, 45, 95
14, 189030, Note_on_c, 13, 45, 0
14, 189360, Note_on_c, 13, 53, 95
14, 189500, Note_on_c, 13, 53, 0
14, 189840, Note_on_c, 13, 46, 95
14, 189972, Note_on_c, 13, 46, 0
14, 190320, Note_on_c, 13, 53, 95
14, 190476, Note_on_c, 13, 53, 0
14, 190800, Note_on_c, 13, 41, 95
14, 190930, Note_on_c, 13, 41, 0
14, 191280, Note_on_c, 13, 53, 95
14, 191394, Note_on_c, 13, 53, 0
14, 191760, Note_on_c, 13, 46, 127
14, 191866, Note_on_c, 13, 46, 0
14, 192240, Note_on_c, 13, 58, 127
14, 192390, Note_on_c, 13, 58, 0
14, 192720, Note_on_c, 13, 53, 127
14, 192860, Note_on_c, 13, 53, 0
14, 193200, Note_on_c, 13, 50, 127
14, 193332, Note_on_c, 13, 50, 0
14, 193680, Note_on_c, 13, 46, 127
14, 193846, Note_on_c, 13, 46, 0
14, 194160, Note_on_c, 13, 50, 127
14, 194282, Note_on_c, 13, 50, 0
14, 194640, Note_on_c, 13, 46, 127
14, 194776, Note_on_c, 13, 46, 0
14, 195120, Note_on_c, 13, 50, 127
14, 195244, Note_on_c, 13, 50, 0
14, 195600, Note_on_c, 13, 46, 127
14, 195744, Note_on_c, 13, 46, 0
14, 196080, Note_on_c, 13, 46, 127
14, 196342, Note_on_c, 13, 46, 0
14, 196560, Note_on_c, 13, 46, 127
14, 196744, Note_on_c, 13, 46, 0
14, 197040, Note_on_c, 13, 46, 127
14, 197196, Note_on_c, 13, 46, 0
14, 197520, Note_on_c, 13, 46, 127
14, 197764, Note_on_c, 13, 46, 0
14, 201840, Note_on_c, 13, 48, 89
14, 203606, Note_on_c, 13, 48, 0
14, 204000, Note_on_c, 13, 43, 127
14, 204004, Control_c, 13, 7, 106
14, 204044, Control_c, 13, 7, 105
14, 204084, Control_c, 13, 7, 104
14, 204124, Control_c, 13, 7, 103
14, 204164, Control_c, 13, 7, 102
14, 204204, Control_c, 13, 7, 101
14, 204244, Control_c, 13, 7, 100
14, 204284, Control_c, 13, 7, 99
14, 204324, Control_c, 13, 7, 98
14, 204364, Control_c, 13, 7, 97
14, 204404, Control_c, 13, 7, 96
14, 204444, Control_c, 13, 7, 95
14, 204484, Control_c, 13, 7, 94
14, 204524, Control_c, 13, 7, 93
14, 204564, Control_c, 13, 7, 92
14, 204604, Control_c, 13, 7, 91
14, 204644, Control_c, 13, 7, 90
14, 204684, Control_c, 13, 7, 89
14, 204724, Control_c, 13, 7, 88
14, 204764, Control_c, 13, 7, 87
14, 204804, Control_c, 13, 7, 86
14, 204844, Control_c, 13, 7, 85
14, 204884, Control_c, 13, 7, 84
14, 204924, Control_c, 13, 7, 83
14, 204964, Control_c, 13, 7, 82
14, 205004, Control_c, 13, 7, 81
14, 205044, Control_c, 13, 7, 80
14, 205084, Control_c, 13, 7, 79
14, 205124, Control_c, 13, 7, 78
14, 205164, Control_c, 13, 7, 77
14, 205204, Control_c, 13, 7, 76
14, 205244, Control_c, 13, 7, 75
14, 205284, Control_c, 13, 7, 74
14, 205324, Control_c, 13, 7, 73
14, 205364, Control_c, 13, 7, 72
14, 205404, Control_c, 13, 7, 71
14, 205444, Control_c, 13, 7, 70
14, 205484, Control_c, 13, 7, 69
14, 205524, Control_c, 13, 7, 68
14, 205564, Control_c, 13, 7, 67
14, 205604, Control_c, 13, 7, 66
14, 205644, Control_c, 13, 7, 65
14, 205684, Control_c, 13, 7, 64
14, 205724, Control_c, 13, 7, 63
14, 205764, Control_c, 13, 7, 62
14, 205804, Control_c, 13, 7, 61
14, 205844, Control_c, 13, 7, 60
14, 205884, Control_c, 13, 7, 59
14, 205924, Control_c, 13, 7, 58
14, 205964, Control_c, 13, 7, 57
14, 206004, Control_c, 13, 7, 56
14, 206044, Control_c, 13, 7, 55
14, 206084, Control_c, 13, 7, 54
14, 206124, Control_c, 13, 7, 53
14, 206164, Control_c, 13, 7, 52
14, 206204, Control_c, 13, 7, 51
14, 206244, Control_c, 13, 7, 50
14, 206284, Control_c, 13, 7, 49
14, 206324, Control_c, 13, 7, 48
14, 206364, Control_c, 13, 7, 47
14, 206404, Control_c, 13, 7, 46
14, 206444, Control_c, 13, 7, 45
14, 206484, Control_c, 13, 7, 44
14, 206524, Control_c, 13, 7, 43
14, 206564, Control_c, 13, 7, 42
14, 206604, Control_c, 13, 7, 41
14, 206644, Control_c, 13, 7, 40
14, 206684, Control_c, 13, 7, 39
14, 206724, Control_c, 13, 7, 38
14, 206764, Control_c, 13, 7, 37
14, 206804, Control_c, 13, 7, 36
14, 206844, Control_c, 13, 7, 35
14, 206884, Control_c, 13, 7, 34
14, 206924, Control_c, 13, 7, 33
14, 206964, Control_c, 13, 7, 32
14, 207004, Control_c, 13, 7, 31
14, 207044, Control_c, 13, 7, 30
14, 207084, Control_c, 13, 7, 29
14, 207124, Control_c, 13, 7, 28
14, 207164, Control_c, 13, 7, 27
14, 207204, Control_c, 13, 7, 26
14, 207244, Control_c, 13, 7, 25
14, 207284, Control_c, 13, 7, 24
14, 207324, Control_c, 13, 7, 23
14, 207364, Control_c, 13, 7, 22
14, 207404, Control_c, 13, 7, 21
14, 207444, Control_c, 13, 7, 20
14, 207484, Control_c, 13, 7, 19
14, 207524, Control_c, 13, 7, 18
14, 207564, Control_c, 13, 7, 17
14, 207604, Control_c, 13, 7, 16
14, 207644, Control_c, 13, 7, 15
14, 207684, Control_c, 13, 7, 14
14, 207724, Control_c, 13, 7, 13
14, 207764, Control_c, 13, 7, 12
14, 207780, Note_on_c, 13, 43, 0
14, 207804, Control_c, 13, 7, 11
14, 207832, Control_c, 13, 7, 10
14, 207844, Control_c, 13, 7, 11
14, 207860, Control_c, 13, 7, 13
14, 207872, Control_c, 13, 7, 16
14, 207884, Control_c, 13, 7, 18
14, 207900, Control_c, 13, 7, 21
14, 207912, Control_c, 13, 7, 24
14, 207924, Control_c, 13, 7, 26
14, 207940, Control_c, 13, 7, 29
14, 207952, Control_c, 13, 7, 31
14, 207964, Control_c, 13, 7, 34
14, 207980, Control_c, 13, 7, 37
14, 207992, Control_c, 13, 7, 39
14, 208004, Control_c, 13, 7, 42
14, 208020, Control_c, 13, 7, 44
14, 208032, Control_c, 13, 7, 47
14, 208044, Control_c, 13, 7, 50
14, 208060, Control_c, 13, 7, 52
14, 208072, Control_c, 13, 7, 55
14, 208084, Control_c, 13, 7, 58
14, 208100, Control_c, 13, 7, 60
14, 208112, Control_c, 13, 7, 63
14, 208124, Control_c, 13, 7, 65
14, 208140, Control_c, 13, 7, 68
14, 208152, Control_c, 13, 7, 71
14, 208164, Control_c, 13, 7, 73
14, 208180, Control_c, 13, 7, 76
14, 208192, Control_c, 13, 7, 78
14, 208204, Control_c, 13, 7, 81
14, 208220, Control_c, 13, 7, 84
14, 208232, Control_c, 13, 7, 86
14, 208244, Control_c, 13, 7, 89
14, 208260, Control_c, 13, 7, 91
14, 208272, Control_c, 13, 7, 94
14, 208284, Control_c, 13, 7, 97
14, 208300, Control_c, 13, 7, 99
14, 208312, Control_c, 13, 7, 102
14, 208324, Control_c, 13, 7, 105
14, 223440, Note_on_c, 13, 41, 48
14, 223476, Note_on_c, 13, 41, 0
14, 223560, Note_on_c, 13, 42, 48
14, 223596, Note_on_c, 13, 42, 0
14, 223680, Note_on_c, 13, 44, 48
14, 223716, Note_on_c, 13, 44, 0
14, 223800, Note_on_c, 13, 42, 48
14, 223836, Note_on_c, 13, 42, 0
14, 223920, Note_on_c, 13, 41, 48
14, 223956, Note_on_c, 13, 41, 0
14, 224400, Note_on_c, 13, 39, 48
14, 224436, Note_on_c, 13, 39, 0
14, 224520, Note_on_c, 13, 41, 48
14, 224556, Note_on_c, 13, 41, 0
14, 224640, Note_on_c, 13, 42, 48
14, 224676, Note_on_c, 13, 42, 0
14, 224760, Note_on_c, 13, 41, 48
14, 224796, Note_on_c, 13, 41, 0
14, 224880, Note_on_c, 13, 39, 48
14, 224916, Note_on_c, 13, 39, 0
14, 225360, Note_on_c, 13, 41, 48
14, 225396, Note_on_c, 13, 41, 0
14, 225480, Note_on_c, 13, 42, 48
14, 225516, Note_on_c, 13, 42, 0
14, 225600, Note_on_c, 13, 44, 48
14, 225636, Note_on_c, 13, 44, 0
14, 225720, Note_on_c, 13, 42, 48
14, 225756, Note_on_c, 13, 42, 0
14, 225840, Note_on_c, 13, 41, 48
14, 225876, Note_on_c, 13, 41, 0
14, 226320, Note_on_c, 13, 53, 48
14, 226356, Note_on_c, 13, 53, 0
14, 226440, Note_on_c, 13, 54, 48
14, 226476, Note_on_c, 13, 54, 0
14, 226560, Note_on_c, 13, 56, 48
14, 226596, Note_on_c, 13, 56, 0
14, 226680, Note_on_c, 13, 54, 48
14, 226716, Note_on_c, 13, 54, 0
14, 226800, Note_on_c, 13, 53, 48
14, 226836, Note_on_c, 13, 53, 0
14, 227040, Note_on_c, 13, 53, 48
14, 227076, Note_on_c, 13, 53, 0
14, 227160, Note_on_c, 13, 51, 48
14, 227196, Note_on_c, 13, 51, 0
14, 227280, Note_on_c, 13, 50, 48
14, 227316, Note_on_c, 13, 50, 0
14, 227520, Note_on_c, 13, 50, 48
14, 227556, Note_on_c, 13, 50, 0
14, 227640, Note_on_c, 13, 48, 48
14, 227676, Note_on_c, 13, 48, 0
14, 227760, Note_on_c, 13, 46, 48
14, 227796, Note_on_c, 13, 46, 0
14, 228240, Note_on_c, 13, 53, 48
14, 228276, Note_on_c, 13, 53, 0
14, 228360, Note_on_c, 13, 55, 48
14, 228396, Note_on_c, 13, 55, 0
14, 228480, Note_on_c, 13, 56, 45
14, 228516, Note_on_c, 13, 56, 0
14, 228600, Note_on_c, 13, 55, 46
14, 228636, Note_on_c, 13, 55, 0
14, 228720, Note_on_c, 13, 53, 48
14, 228756, Note_on_c, 13, 53, 0
14, 228960, Note_on_c, 13, 53, 50
14, 228996, Note_on_c, 13, 53, 0
14, 229080, Note_on_c, 13, 51, 52
14, 229116, Note_on_c, 13, 51, 0
14, 229200, Note_on_c, 13, 50, 53
14, 229236, Note_on_c, 13, 50, 0
14, 229440, Note_on_c, 13, 50, 56
14, 229476, Note_on_c, 13, 50, 0
14, 229560, Note_on_c, 13, 48, 57
14, 229596, Note_on_c, 13, 48, 0
14, 229680, Note_on_c, 13, 46, 58
14, 229716, Note_on_c, 13, 46, 0
14, 230160, Note_on_c, 13, 53, 64
14, 230196, Note_on_c, 13, 53, 0
14, 230280, Note_on_c, 13, 55, 65
14, 230316, Note_on_c, 13, 55, 0
14, 230400, Note_on_c, 13, 56, 66
14, 230436, Note_on_c, 13, 56, 0
14, 230520, Note_on_c, 13, 55, 68
14, 230556, Note_on_c, 13, 55, 0
14, 230640, Note_on_c, 13, 56, 69
14, 230676, Note_on_c, 13, 56, 0
14, 230760, Note_on_c, 13, 55, 70
14, 230796, Note_on_c, 13, 55, 0
14, 230880, Note_on_c, 13, 53, 72
14, 230916, Note_on_c, 13, 53, 0
14, 231000, Note_on_c, 13, 51, 73
14, 231036, Note_on_c, 13, 51, 0
14, 231120, Note_on_c, 13, 53, 74
14, 231156, Note_on_c, 13, 53, 0
14, 231240, Note_on_c, 13, 51, 76
14, 231276, Note_on_c, 13, 51, 0
14, 231360, Note_on_c, 13, 50, 77
14, 231396, Note_on_c, 13, 50, 0
14, 231480, Note_on_c, 13, 48, 78
14, 231516, Note_on_c, 13, 48, 0
14, 231600, Note_on_c, 13, 50, 80
14, 231636, Note_on_c, 13, 50, 0
14, 231720, Note_on_c, 13, 48, 81
14, 231756, Note_on_c, 13, 48, 0
14, 231840, Note_on_c, 13, 46, 82
14, 231876, Note_on_c, 13, 46, 0
14, 231960, Note_on_c, 13, 48, 84
14, 231996, Note_on_c, 13, 48, 0
14, 232080, Note_on_c, 13, 50, 85
14, 232116, Note_on_c, 13, 50, 0
14, 232200, Note_on_c, 13, 51, 86
14, 232236, Note_on_c, 13, 51, 0
14, 232320, Note_on_c, 13, 53, 88
14, 232356, Note_on_c, 13, 53, 0
14, 232440, Note_on_c, 13, 55, 89
14, 232476, Note_on_c, 13, 55, 0
14, 232560, Note_on_c, 13, 56, 90
14, 232596, Note_on_c, 13, 56, 0
14, 232680, Note_on_c, 13, 58, 92
14, 232716, Note_on_c, 13, 58, 0
14, 232800, Note_on_c, 13, 60, 93
14, 232836, Note_on_c, 13, 60, 0
14, 232920, Note_on_c, 13, 62, 94
14, 232956, Note_on_c, 13, 62, 0
14, 233040, Note_on_c, 13, 63, 96
14, 233076, Note_on_c, 13, 63, 0
14, 233160, Note_on_c, 13, 64, 97
14, 233196, Note_on_c, 13, 64, 0
14, 233280, Note_on_c, 13, 65, 127
14, 233316, Note_on_c, 13, 65, 0
14, 233400, Note_on_c, 13, 58, 127
14, 233436, Note_on_c, 13, 58, 0
14, 233520, Note_on_c, 13, 62, 127
14, 233556, Note_on_c, 13, 62, 0
14, 233640, Note_on_c, 13, 58, 127
14, 233676, Note_on_c, 13, 58, 0
14, 233760, Note_on_c, 13, 62, 127
14, 233796, Note_on_c, 13, 62, 0
14, 233880, Note_on_c, 13, 58, 127
14, 233916, Note_on_c, 13, 58, 0
14, 234000, Note_on_c, 13, 62, 127
14, 234036, Note_on_c, 13, 62, 0
14, 234120, Note_on_c, 13, 58, 127
14, 234156, Note_on_c, 13, 58, 0
14, 234240, Note_on_c, 13, 62, 127
14, 234276, Note_on_c, 13, 62, 0
14, 234360, Note_on_c, 13, 46, 127
14, 234396, Note_on_c, 13, 46, 0
14, 234480, Note_on_c, 13, 50, 127
14, 234516, Note_on_c, 13, 50, 0
14, 234600, Note_on_c, 13, 46, 127
14, 234636, Note_on_c, 13, 46, 0
14, 234720, Note_on_c, 13, 50, 127
14, 234756, Note_on_c, 13, 50, 0
14, 234840, Note_on_c, 13, 46, 127
14, 234876, Note_on_c, 13, 46, 0
14, 234960, Note_on_c, 13, 50, 127
14, 234996, Note_on_c, 13, 50, 0
14, 235080, Note_on_c, 13, 46, 127
14, 235116, Note_on_c, 13, 46, 0
14, 238080, Note_on_c, 13, 51, 89
14, 238230, Note_on_c, 13, 51, 0
14, 240000, Note_on_c, 13, 51, 89
14, 240150, Note_on_c, 13, 51, 0
14, 256320, Control_c, 13, 7, 100
14, 257280, Note_on_c, 13, 51, 71
14, 257402, Note_on_c, 13, 51, 0
14, 257760, Note_on_c, 13, 55, 71
14, 257902, Note_on_c, 13, 55, 0
14, 258240, Note_on_c, 13, 53, 71
14, 258380, Note_on_c, 13, 53, 0
14, 258720, Note_on_c, 13, 46, 71
14, 258840, Note_on_c, 13, 46, 0
14, 259200, Note_on_c, 13, 51, 95
14, 259330, Note_on_c, 13, 51, 0
14, 259680, Note_on_c, 13, 55, 95
14, 259790, Note_on_c, 13, 55, 0
14, 260160, Note_on_c, 13, 58, 95
14, 260244, Note_on_c, 13, 58, 0
14, 260640, Note_on_c, 13, 46, 95
14, 260740, Note_on_c, 13, 46, 0
14, 261120, Note_on_c, 13, 51, 95
14, 261244, Note_on_c, 13, 51, 0
14, 261600, Note_on_c, 13, 55, 95
14, 261774, Note_on_c, 13, 55, 0
14, 262080, Note_on_c, 13, 53, 95
14, 262222, Note_on_c, 13, 53, 0
14, 262560, Note_on_c, 13, 46, 95
14, 262700, Note_on_c, 13, 46, 0
14, 263040, Note_on_c, 13, 51, 95
14, 263180, Note_on_c, 13, 51, 0
14, 263520, Note_on_c, 13, 55, 95
14, 263670, Note_on_c, 13, 55, 0
14, 264000, Note_on_c, 13, 56, 95
14, 264140, Note_on_c, 13, 56, 0
14, 264480, Note_on_c, 13, 53, 95
14, 264596, Note_on_c, 13, 53, 0
14, 264960, Note_on_c, 13, 55, 127
14, 265100, Note_on_c, 13, 55, 0
14, 265440, Note_on_c, 13, 58, 127
14, 265556, Note_on_c, 13, 58, 0
14, 265920, Note_on_c, 13, 60, 127
14, 266044, Note_on_c, 13, 60, 0
14, 266400, Note_on_c, 13, 44, 127
14, 266522, Note_on_c, 13, 44, 0
14, 266880, Note_on_c, 13, 46, 127
14, 266990, Note_on_c, 13, 46, 0
14, 267360, Note_on_c, 13, 50, 127
14, 267490, Note_on_c, 13, 50, 0
14, 267840, Note_on_c, 13, 51, 127
14, 267962, Note_on_c, 13, 51, 0
14, 268320, Note_on_c, 13, 46, 127
14, 268436, Note_on_c, 13, 46, 0
14, 268800, Note_on_c, 13, 52, 127
14, 268936, Note_on_c, 13, 52, 0
14, 269280, Note_on_c, 13, 46, 127
14, 269400, Note_on_c, 13, 46, 0
14, 269760, Note_on_c, 13, 53, 127
14, 269892, Note_on_c, 13, 53, 0
14, 270240, Note_on_c, 13, 46, 127
14, 270322, Note_on_c, 13, 46, 0
14, 270720, Note_on_c, 13, 56, 127
14, 270850, Note_on_c, 13, 56, 0
14, 271200, Note_on_c, 13, 46, 127
14, 271300, Note_on_c, 13, 46, 0
14, 271680, Note_on_c, 13, 58, 127
14, 271812, Note_on_c, 13, 58, 0
14, 272160, Note_on_c, 13, 46, 127
14, 272256, Note_on_c, 13, 46, 0
14, 272640, Note_on_c, 13, 62, 127
14, 272772, Note_on_c, 13, 62, 0
14, 273120, Note_on_c, 13, 46, 127
14, 273236, Note_on_c, 13, 46, 0
14, 273600, Note_on_c, 13, 65, 127
14, 273694, Note_on_c, 13, 65, 0
14, 273840, Note_on_c, 13, 46, 127
14, 273942, Note_on_c, 13, 46, 0
14, 274080, Note_on_c, 13, 46, 127
14, 274156, Note_on_c, 13, 46, 0
14, 274320, Note_on_c, 13, 46, 127
14, 274392, Note_on_c, 13, 46, 0
14, 274560, Note_on_c, 13, 46, 127
14, 274656, Note_on_c, 13, 46, 0
14, 274800, Note_on_c, 13, 46, 127
14, 274892, Note_on_c, 13, 46, 0
14, 275040, Note_on_c, 13, 46, 127
14, 275124, Note_on_c, 13, 46, 0
14, 275280, Note_on_c, 13, 46, 127
14, 275360, Note_on_c, 13, 46, 0
14, 275520, Note_on_c, 13, 46, 127
14, 275602, Note_on_c, 13, 46, 0
14, 275760, Note_on_c, 13, 46, 127
14, 275856, Note_on_c, 13, 46, 0
14, 276000, Note_on_c, 13, 46, 127
14, 276086, Note_on_c, 13, 46, 0
14, 276240, Note_on_c, 13, 46, 127
14, 276320, Note_on_c, 13, 46, 0
14, 276480, Note_on_c, 13, 46, 127
14, 276564, Note_on_c, 13, 46, 0
14, 276720, Note_on_c, 13, 46, 127
14, 276796, Note_on_c, 13, 46, 0
14, 276960, Note_on_c, 13, 46, 127
14, 277030, Note_on_c, 13, 46, 0
14, 277200, Note_on_c, 13, 46, 127
14, 277270, Note_on_c, 13, 46, 0
14, 277440, Note_on_c, 13, 51, 127
14, 277550, Note_on_c, 13, 51, 0
14, 277680, Note_on_c, 13, 51, 127
14, 277776, Note_on_c, 13, 51, 0
14, 277920, Note_on_c, 13, 51, 127
14, 278022, Note_on_c, 13, 51, 0
14, 278160, Note_on_c, 13, 51, 127
14, 278262, Note_on_c, 13, 51, 0
14, 278400, Note_on_c, 13, 51, 127
14, 278496, Note_on_c, 13, 51, 0
14, 278640, Note_on_c, 13, 51, 127
14, 278730, Note_on_c, 13, 51, 0
14, 278880, Note_on_c, 13, 51, 127
14, 279000, Note_on_c, 13, 51, 0
14, 279120, Note_on_c, 13, 51, 127
14, 279206, Note_on_c, 13, 51, 0
14, 279360, Note_on_c, 13, 51, 127
14, 279446, Note_on_c, 13, 51, 0
14, 279600, Note_on_c, 13, 51, 127
14, 279690, Note_on_c, 13, 51, 0
14, 279840, Note_on_c, 13, 51, 127
14, 279914, Note_on_c, 13, 51, 0
14, 280080, Note_on_c, 13, 51, 127
14, 280166, Note_on_c, 13, 51, 0
14, 280320, Note_on_c, 13, 51, 127
14, 280412, Note_on_c, 13, 51, 0
14, 280560, Note_on_c, 13, 51, 118
14, 280634, Note_on_c, 13, 51, 0
14, 280800, Note_on_c, 13, 51, 126
14, 280870, Note_on_c, 13, 51, 0
14, 281040, Note_on_c, 13, 51, 116
14, 281110, Note_on_c, 13, 51, 0
14, 281280, Note_on_c, 13, 51, 127
14, 281372, Note_on_c, 13, 51, 0
14, 281520, Note_on_c, 13, 51, 127
14, 281594, Note_on_c, 13, 51, 0
14, 281760, Note_on_c, 13, 51, 127
14, 281842, Note_on_c, 13, 51, 0
14, 282000, Note_on_c, 13, 51, 127
14, 282072, Note_on_c, 13, 51, 0
14, 282240, Note_on_c, 13, 51, 127
14, 282332, Note_on_c, 13, 51, 0
14, 282480, Note_on_c, 13, 51, 127
14, 282556, Note_on_c, 13, 51, 0
14, 282720, Note_on_c, 13, 51, 122
14, 282794, Note_on_c, 13, 51, 0
14, 282960, Note_on_c, 13, 51, 120
14, 283040, Note_on_c, 13, 51, 0
14, 283200, Note_on_c, 13, 51, 127
14, 283310, Note_on_c, 13, 51, 0
14, 283440, Note_on_c, 13, 51, 124
14, 283520, Note_on_c, 13, 51, 0
14, 283680, Note_on_c, 13, 51, 114
14, 283760, Note_on_c, 13, 51, 0
14, 283920, Note_on_c, 13, 51, 116
14, 283994, Note_on_c, 13, 51, 0
14, 284160, Note_on_c, 13, 51, 127
14, 284232, Note_on_c, 13, 51, 0
14, 284400, Note_on_c, 13, 51, 127
14, 284476, Note_on_c, 13, 51, 0
14, 284640, Note_on_c, 13, 51, 127
14, 284720, Note_on_c, 13, 51, 0
14, 284880, Note_on_c, 13, 51, 127
14, 284952, Note_on_c, 13, 51, 0
14, 285120, Note_on_c, 13, 51, 127
14, 285254, Note_on_c, 13, 51, 0
14, 285360, Note_on_c, 13, 51, 116
14, 285442, Note_on_c, 13, 51, 0
14, 285600, Note_on_c, 13, 51, 122
14, 285672, Note_on_c, 13, 51, 0
14, 285840, Note_on_c, 13, 51, 127
14, 285920, Note_on_c, 13, 51, 0
14, 286080, Note_on_c, 13, 51, 127
14, 286202, Note_on_c, 13, 51, 0
14, 286320, Note_on_c, 13, 51, 122
14, 286402, Note_on_c, 13, 51, 0
14, 286560, Note_on_c, 13, 51, 116
14, 286640, Note_on_c, 13, 51, 0
14, 286800, Note_on_c, 13, 51, 122
14, 286882, Note_on_c, 13, 51, 0
14, 287040, Note_on_c, 13, 51, 127
14, 287152, Note_on_c, 13, 51, 0
14, 287280, Note_on_c, 13, 51, 127
14, 287364, Note_on_c, 13, 51, 0
14, 287520, Note_on_c, 13, 51, 127
14, 287606, Note_on_c, 13, 51, 0
14, 287760, Note_on_c, 13, 51, 127
14, 287854, Note_on_c, 13, 51, 0
14, 288000, Note_on_c, 13, 51, 127
14, 288160, Note_on_c, 13, 51, 0
14, 288480, Note_on_c, 13, 55, 127
14, 288614, Note_on_c, 13, 55, 0
14, 288960, Note_on_c, 13, 48, 127
14, 289112, Note_on_c, 13, 48, 0
14, 289440, Note_on_c, 13, 51, 127
14, 289554, Note_on_c, 13, 51, 0
14, 289920, Note_on_c, 13, 44, 127
14, 290020, Note_on_c, 13, 44, 0
14, 290400, Note_on_c, 13, 48, 127
14, 290540, Note_on_c, 13, 48, 0
14, 290880, Note_on_c, 13, 41, 127
14, 291144, Note_on_c, 13, 41, 0
14, 291840, Note_on_c, 13, 53, 127
14, 291996, Note_on_c, 13, 53, 0
14, 292320, Note_on_c, 13, 56, 127
14, 292406, Note_on_c, 13, 56, 0
14, 292800, Note_on_c, 13, 50, 127
14, 292886, Note_on_c, 13, 50, 0
14, 293280, Note_on_c, 13, 53, 127
14, 293436, Note_on_c, 13, 53, 0
14, 293760, Note_on_c, 13, 46, 127
14, 293884, Note_on_c, 13, 46, 0
14, 294240, Note_on_c, 13, 50, 127
14, 294354, Note_on_c, 13, 50, 0
14, 294720, Note_on_c, 13, 43, 127
14, 294972, Note_on_c, 13, 43, 0
14, 295680, Note_on_c, 13, 55, 127
14, 295802, Note_on_c, 13, 55, 0
14, 296160, Note_on_c, 13, 58, 127
14, 296262, Note_on_c, 13, 58, 0
14, 296640, Note_on_c, 13, 51, 127
14, 296776, Note_on_c, 13, 51, 0
14, 297120, Note_on_c, 13, 55, 127
14, 297256, Note_on_c, 13, 55, 0
14, 297600, Note_on_c, 13, 48, 127
14, 297752, Note_on_c, 13, 48, 0
14, 298080, Note_on_c, 13, 51, 127
14, 298216, Note_on_c, 13, 51, 0
14, 298560, Note_on_c, 13, 45, 127
14, 298686, Note_on_c, 13, 45, 0
14, 299040, Note_on_c, 13, 48, 127
14, 299162, Note_on_c, 13, 48, 0
14, 299520, Note_on_c, 13, 46, 127
14, 299666, Note_on_c, 13, 46, 0
14, 300000, Note_on_c, 13, 46, 127
14, 300152, Note_on_c, 13, 46, 0
14, 300480, Note_on_c, 13, 51, 127
14, 300636, Note_on_c, 13, 51, 0
14, 300960, Note_on_c, 13, 51, 127
14, 301110, Note_on_c, 13, 51, 0
14, 301440, Note_on_c, 13, 46, 127
14, 301636, Note_on_c, 13, 46, 0
14, 301680, Note_on_c, 13, 58, 127
14, 301762, Note_on_c, 13, 58, 0
14, 301920, Note_on_c, 13, 58, 127
14, 302000, Note_on_c, 13, 58, 0
14, 302160, Note_on_c, 13, 58, 127
14, 302256, Note_on_c, 13, 58, 0
14, 302400, Note_on_c, 13, 60, 127
14, 302640, Note_on_c, 13, 58, 127
14, 302644, Note_on_c, 13, 60, 0
14, 302736, Note_on_c, 13, 58, 0
14, 302880, Note_on_c, 13, 55, 127
14, 302986, Note_on_c, 13, 55, 0
14, 303120, Note_on_c, 13, 51, 127
14, 303226, Note_on_c, 13, 51, 0
14, 303360, Note_on_c, 13, 46, 127
14, 303636, Note_on_c, 13, 46, 0
14, 303840, Note_on_c, 13, 46, 127
14, 304074, Note_on_c, 13, 46, 0
14, 304320, Note_on_c, 13, 51, 127
14, 304532, Note_on_c, 13, 51, 0
14, 304800, Note_on_c, 13, 51, 127
14, 305010, Note_on_c, 13, 51, 0
14, 305280, Note_on_c, 13, 46, 127
14, 305446, Note_on_c, 13, 46, 0
14, 305520, Note_on_c, 13, 58, 124
14, 305602, Note_on_c, 13, 58, 0
14, 305760, Note_on_c, 13, 58, 127
14, 305826, Note_on_c, 13, 58, 0
14, 306000, Note_on_c, 13, 58, 127
14, 306086, Note_on_c, 13, 58, 0
14, 306240, Note_on_c, 13, 60, 127
14, 306474, Note_on_c, 13, 60, 0
14, 306480, Note_on_c, 13, 58, 127
14, 306576, Note_on_c, 13, 58, 0
14, 306720, Note_on_c, 13, 55, 127
14, 306826, Note_on_c, 13, 55, 0
14, 306960, Note_on_c, 13, 51, 127
14, 307070, Note_on_c, 13, 51, 0
14, 307200, Note_on_c, 13, 46, 127
14, 307444, Note_on_c, 13, 46, 0
14, 326400, Note_on_c, 13, 63, 77
14, 327254, Note_on_c, 13, 63, 0
14, 327360, Note_on_c, 13, 58, 77
14, 328176, Note_on_c, 13, 58, 0
14, 328320, Note_on_c, 13, 60, 77
14, 329184, Note_on_c, 13, 60, 0
14, 329280, Note_on_c, 13, 55, 77
14, 330154, Note_on_c, 13, 55, 0
14, 330240, Note_on_c, 13, 56, 71
14, 330374, Note_on_c, 13, 56, 0
14, 330720, Note_on_c, 13, 55, 71
14, 330850, Note_on_c, 13, 55, 0
14, 331200, Note_on_c, 13, 53, 71
14, 331326, Note_on_c, 13, 53, 0
14, 331680, Note_on_c, 13, 51, 71
14, 331812, Note_on_c, 13, 51, 0
14, 332160, Note_on_c, 13, 50, 71
14, 332280, Note_on_c, 13, 50, 0
14, 332640, Note_on_c, 13, 51, 71
14, 332740, Note_on_c, 13, 51, 0
14, 333120, Note_on_c, 13, 58, 71
14, 333244, Note_on_c, 13, 58, 0
14, 333600, Note_on_c, 13, 46, 71
14, 333700, Note_on_c, 13, 46, 0
14, 334080, Note_on_c, 13, 51, 127
14, 334184, Note_on_c, 13, 51, 0
14, 334560, Note_on_c, 13, 63, 127
14, 334692, Note_on_c, 13, 63, 0
14, 335040, Note_on_c, 13, 58, 127
14, 335166, Note_on_c, 13, 58, 0
14, 335520, Note_on_c, 13, 46, 118
14, 335656, Note_on_c, 13, 46, 0
14, 336000, Note_on_c, 13, 48, 127
14, 336132, Note_on_c, 13, 48, 0
14, 336480, Note_on_c, 13, 60, 127
14, 336570, Note_on_c, 13, 60, 0
14, 336960, Note_on_c, 13, 55, 127
14, 337080, Note_on_c, 13, 55, 0
14, 337440, Note_on_c, 13, 43, 127
14, 337572, Note_on_c, 13, 43, 0
14, 337920, Note_on_c, 13, 44, 45
14, 338136, Note_on_c, 13, 44, 0
14, 338400, Note_on_c, 13, 56, 45
14, 338616, Note_on_c, 13, 56, 0
14, 338880, Note_on_c, 13, 44, 45
14, 339096, Note_on_c, 13, 44, 0
14, 339360, Note_on_c, 13, 44, 45
14, 339576, Note_on_c, 13, 44, 0
14, 339840, Note_on_c, 13, 43, 45
14, 339984, Note_on_c, 13, 43, 0
14, 340320, Note_on_c, 13, 55, 45
14, 340464, Note_on_c, 13, 55, 0
14, 340800, Note_on_c, 13, 43, 45
14, 340944, Note_on_c, 13, 43, 0
14, 341280, Note_on_c, 13, 43, 45
14, 341424, Note_on_c, 13, 43, 0
14, 341760, Note_on_c, 13, 43, 45
14, 341904, Note_on_c, 13, 43, 0
14, 342240, Note_on_c, 13, 55, 45
14, 342384, Note_on_c, 13, 55, 0
14, 342720, Note_on_c, 13, 43, 45
14, 342864, Note_on_c, 13, 43, 0
14, 343200, Note_on_c, 13, 43, 45
14, 343344, Note_on_c, 13, 43, 0
14, 343680, Note_on_c, 13, 43, 45
14, 343824, Note_on_c, 13, 43, 0
14, 344160, Note_on_c, 13, 55, 45
14, 344304, Note_on_c, 13, 55, 0
14, 344640, Note_on_c, 13, 43, 45
14, 344784, Note_on_c, 13, 43, 0
14, 345120, Note_on_c, 13, 43, 45
14, 345264, Note_on_c, 13, 43, 0
14, 345600, Note_on_c, 13, 48, 67
14, 345704, Note_on_c, 13, 48, 0
14, 345840, Note_on_c, 13, 51, 67
14, 345924, Note_on_c, 13, 51, 0
14, 346080, Note_on_c, 13, 56, 67
14, 346174, Note_on_c, 13, 56, 0
14, 346320, Note_on_c, 13, 55, 67
14, 346430, Note_on_c, 13, 55, 0
14, 346560, Note_on_c, 13, 53, 67
14, 346666, Note_on_c, 13, 53, 0
14, 346800, Note_on_c, 13, 51, 67
14, 346892, Note_on_c, 13, 51, 0
14, 347040, Note_on_c, 13, 50, 67
14, 347150, Note_on_c, 13, 50, 0
14, 347280, Note_on_c, 13, 48, 67
14, 347372, Note_on_c, 13, 48, 0
14, 347520, Note_on_c, 13, 50, 76
14, 347634, Note_on_c, 13, 50, 0
14, 347760, Note_on_c, 13, 53, 76
14, 347866, Note_on_c, 13, 53, 0
14, 348000, Note_on_c, 13, 58, 76
14, 348116, Note_on_c, 13, 58, 0
14, 348240, Note_on_c, 13, 56, 76
14, 348346, Note_on_c, 13, 56, 0
14, 348480, Note_on_c, 13, 55, 76
14, 348596, Note_on_c, 13, 55, 0
14, 348720, Note_on_c, 13, 53, 76
14, 348840, Note_on_c, 13, 53, 0
14, 348960, Note_on_c, 13, 51, 76
14, 349060, Note_on_c, 13, 51, 0
14, 349200, Note_on_c, 13, 50, 76
14, 349322, Note_on_c, 13, 50, 0
14, 349440, Note_on_c, 13, 51, 86
14, 349532, Note_on_c, 13, 51, 0
14, 349680, Note_on_c, 13, 55, 86
14, 349774, Note_on_c, 13, 55, 0
14, 349920, Note_on_c, 13, 60, 86
14, 350026, Note_on_c, 13, 60, 0
14, 350160, Note_on_c, 13, 58, 86
14, 350260, Note_on_c, 13, 58, 0
14, 350400, Note_on_c, 13, 56, 114
14, 350484, Note_on_c, 13, 56, 0
14, 350640, Note_on_c, 13, 55, 103
14, 350752, Note_on_c, 13, 55, 0
14, 350880, Note_on_c, 13, 53, 114
14, 350986, Note_on_c, 13, 53, 0
14, 351120, Note_on_c, 13, 51, 114
14, 351214, Note_on_c, 13, 51, 0
14, 351360, Note_on_c, 13, 50, 127
14, 351474, Note_on_c, 13, 50, 0
14, 351600, Note_on_c, 13, 53, 127
14, 351692, Note_on_c, 13, 53, 0
14, 351840, Note_on_c, 13, 58, 127
14, 351960, Note_on_c, 13, 58, 0
14, 352080, Note_on_c, 13, 56, 127
14, 352176, Note_on_c, 13, 56, 0
14, 352320, Note_on_c, 13, 55, 127
14, 352436, Note_on_c, 13, 55, 0
14, 352560, Note_on_c, 13, 53, 127
14, 352662, Note_on_c, 13, 53, 0
14, 352800, Note_on_c, 13, 51, 127
14, 352892, Note_on_c, 13, 51, 0
14, 353040, Note_on_c, 13, 50, 127
14, 353164, Note_on_c, 13, 50, 0
14, 353280, Note_on_c, 13, 51, 82
14, 353730, Note_on_c, 13, 51, 0
14, 353760, Note_on_c, 13, 43, 80
14, 354000, Note_on_c, 13, 43, 0
14, 354000, Note_on_c, 13, 44, 80
14, 354240, Note_on_c, 13, 44, 0
14, 354240, Note_on_c, 13, 46, 80
14, 354720, Note_on_c, 13, 46, 0
14, 354720, Note_on_c, 13, 48, 80
14, 355200, Note_on_c, 13, 48, 0
14, 355200, Note_on_c, 13, 50, 80
14, 355680, Note_on_c, 13, 50, 0
14, 355680, Note_on_c, 13, 51, 80
14, 356160, Note_on_c, 13, 51, 0
14, 356160, Note_on_c, 13, 53, 80
14, 356640, Note_on_c, 13, 53, 0
14, 356640, Note_on_c, 13, 55, 80
14, 357024, Note_on_c, 13, 55, 0
14, 357120, Note_on_c, 13, 44, 63
14, 357600, Note_on_c, 13, 46, 61
14, 357612, Note_on_c, 13, 44, 0
14, 358080, Note_on_c, 13, 48, 61
14, 358104, Note_on_c, 13, 46, 0
14, 358560, Note_on_c, 13, 50, 48
14, 358580, Note_on_c, 13, 48, 0
14, 358944, Note_on_c, 13, 50, 0
14, 359040, Note_on_c, 13, 51, 60
14, 359520, Note_on_c, 13, 51, 0
14, 359520, Note_on_c, 13, 53, 59
14, 360000, Note_on_c, 13, 53, 0
14, 360000, Note_on_c, 13, 55, 73
14, 360480, Note_on_c, 13, 55, 0
14, 360480, Note_on_c, 13, 56, 68
14, 360830, Note_on_c, 13, 56, 0
14, 360960, Note_on_c, 13, 58, 72
14, 361440, Note_on_c, 13, 55, 79
14, 361444, Note_on_c, 13, 58, 0
14, 361920, Note_on_c, 13, 55, 0
14, 361920, Note_on_c, 13, 51, 61
14, 362400, Note_on_c, 13, 55, 74
14, 362416, Note_on_c, 13, 51, 0
14, 362644, Note_on_c, 13, 55, 0
14, 362880, Note_on_c, 13, 58, 68
14, 363360, Note_on_c, 13, 63, 67
14, 363394, Note_on_c, 13, 58, 0
14, 363840, Note_on_c, 13, 56, 67
14, 363852, Note_on_c, 13, 63, 0
14, 364320, Note_on_c, 13, 62, 67
14, 364374, Note_on_c, 13, 56, 0
14, 364774, Note_on_c, 13, 62, 0
14, 364800, Note_on_c, 13, 55, 77
14, 365032, Note_on_c, 13, 55, 0
14, 365280, Note_on_c, 13, 55, 76
14, 365502, Note_on_c, 13, 55, 0
14, 365520, Note_on_c, 13, 56, 73
14, 365760, Note_on_c, 13, 56, 0
14, 365760, Note_on_c, 13, 58, 66
14, 366240, Note_on_c, 13, 60, 54
14, 366252, Note_on_c, 13, 58, 0
14, 366720, Note_on_c, 13, 60, 0
14, 366720, Note_on_c, 13, 62, 70
14, 367200, Note_on_c, 13, 62, 0
14, 367200, Note_on_c, 13, 63, 65
14, 367680, Note_on_c, 13, 65, 44
14, 367712, Note_on_c, 13, 63, 0
14, 368160, Note_on_c, 13, 67, 60
14, 368194, Note_on_c, 13, 65, 0
14, 368424, Note_on_c, 13, 67, 0
14, 368640, Note_on_c, 13, 44, 81
14, 369120, Note_on_c, 13, 46, 60
14, 369144, Note_on_c, 13, 44, 0
14, 369600, Note_on_c, 13, 48, 54
14, 369606, Note_on_c, 13, 46, 0
14, 370080, Note_on_c, 13, 50, 50
14, 370122, Note_on_c, 13, 48, 0
14, 370560, Note_on_c, 13, 50, 0
14, 370560, Note_on_c, 13, 51, 46
14, 371040, Note_on_c, 13, 51, 0
14, 371040, Note_on_c, 13, 53, 57
14, 371520, Note_on_c, 13, 53, 0
14, 371520, Note_on_c, 13, 55, 70
14, 372000, Note_on_c, 13, 55, 0
14, 372000, Note_on_c, 13, 56, 59
14, 372450, Note_on_c, 13, 56, 0
14, 372480, Note_on_c, 13, 46, 121
14, 372960, Note_on_c, 13, 46, 0
14, 372960, Note_on_c, 13, 48, 60
14, 373440, Note_on_c, 13, 48, 0
14, 373440, Note_on_c, 13, 49, 54
14, 373920, Note_on_c, 13, 49, 0
14, 373920, Note_on_c, 13, 51, 50
14, 374400, Note_on_c, 13, 51, 0
14, 374400, Note_on_c, 13, 53, 46
14, 374880, Note_on_c, 13, 53, 0
14, 374880, Note_on_c, 13, 55, 57
14, 375120, Note_on_c, 13, 55, 0
14, 375120, Note_on_c, 13, 56, 57
14, 375360, Note_on_c, 13, 56, 0
14, 375360, Note_on_c, 13, 58, 70
14, 375840, Note_on_c, 13, 58, 0
14, 375840, Note_on_c, 13, 46, 59
14, 376290, Note_on_c, 13, 46, 0
14, 376320, Note_on_c, 13, 48, 46
14, 376800, Note_on_c, 13, 48, 0
14, 376800, Note_on_c, 13, 49, 57
14, 377280, Note_on_c, 13, 49, 0
14, 377280, Note_on_c, 13, 51, 70
14, 377760, Note_on_c, 13, 51, 0
14, 377760, Note_on_c, 13, 53, 59
14, 378210, Note_on_c, 13, 53, 0
14, 378240, Note_on_c, 13, 55, 46
14, 378720, Note_on_c, 13, 55, 0
14, 378720, Note_on_c, 13, 57, 57
14, 378960, Note_on_c, 13, 57, 0
14, 378960, Note_on_c, 13, 58, 57
14, 379200, Note_on_c, 13, 58, 0
14, 379200, Note_on_c, 13, 60, 70
14, 379680, Note_on_c, 13, 60, 0
14, 379680, Note_on_c, 13, 48, 59
14, 380130, Note_on_c, 13, 48, 0
14, 380160, Note_on_c, 13, 50, 58
14, 380640, Note_on_c, 13, 50, 0
14, 380640, Note_on_c, 13, 51, 71
14, 381120, Note_on_c, 13, 51, 0
14, 381120, Note_on_c, 13, 53, 88
14, 381600, Note_on_c, 13, 53, 0
14, 381600, Note_on_c, 13, 55, 74
14, 382050, Note_on_c, 13, 55, 0
14, 382080, Note_on_c, 13, 56, 58
14, 382560, Note_on_c, 13, 56, 0
14, 382560, Note_on_c, 13, 58, 71
14, 382800, Note_on_c, 13, 58, 0
14, 382800, Note_on_c, 13, 60, 71
14, 383040, Note_on_c, 13, 60, 0
14, 383040, Note_on_c, 13, 62, 88
14, 383520, Note_on_c, 13, 62, 0
14, 383520, Note_on_c, 13, 58, 74
14, 383970, Note_on_c, 13, 58, 0
14, 384000, Note_on_c, 13, 56, 88
14, 384480, Note_on_c, 13, 56, 0
14, 384480, Note_on_c, 13, 53, 74
14, 384930, Note_on_c, 13, 53, 0
14, 384960, Note_on_c, 13, 50, 88
14, 385440, Note_on_c, 13, 50, 0
14, 385440, Note_on_c, 13, 46, 74
14, 385890, Note_on_c, 13, 46, 0
14, 385920, Note_on_c, 13, 41, 74
14, 386370, Note_on_c, 13, 41, 0
14, 386400, Note_on_c, 13, 50, 74
14, 386850, Note_on_c, 13, 50, 0
14, 386880, Note_on_c, 13, 50, 74
14, 387330, Note_on_c, 13, 50, 0
14, 387360, Note_on_c, 13, 50, 74
14, 387810, Note_on_c, 13, 50, 0
14, 387840, Note_on_c, 13, 50, 74
14, 389760, Note_on_c, 13, 50, 0
14, 394320, Note_on_c, 13, 41, 40
14, 394368, Note_on_c, 13, 41, 0
14, 394440, Note_on_c, 13, 43, 40
14, 394488, Note_on_c, 13, 43, 0
14, 394560, Note_on_c, 13, 44, 40
14, 394608, Note_on_c, 13, 44, 0
14, 394680, Note_on_c, 13, 43, 40
14, 394728, Note_on_c, 13, 43, 0
14, 394800, Note_on_c, 13, 41, 40
14, 394848, Note_on_c, 13, 41, 0
14, 395280, Note_on_c, 13, 41, 40
14, 395328, Note_on_c, 13, 41, 0
14, 395400, Note_on_c, 13, 43, 40
14, 395448, Note_on_c, 13, 43, 0
14, 395520, Note_on_c, 13, 44, 40
14, 395592, Note_on_c, 13, 44, 0
14, 395760, Note_on_c, 13, 43, 40
14, 395832, Note_on_c, 13, 43, 0
14, 396000, Note_on_c, 13, 41, 40
14, 396072, Note_on_c, 13, 41, 0
14, 396480, Note_on_c, 13, 44, 44
14, 396552, Note_on_c, 13, 44, 0
14, 396720, Note_on_c, 13, 43, 44
14, 396792, Note_on_c, 13, 43, 0
14, 396960, Note_on_c, 13, 41, 44
14, 397032, Note_on_c, 13, 41, 0
14, 397440, Note_on_c, 13, 44, 48
14, 397512, Note_on_c, 13, 44, 0
14, 397680, Note_on_c, 13, 43, 48
14, 397752, Note_on_c, 13, 43, 0
14, 397920, Note_on_c, 13, 41, 48
14, 397992, Note_on_c, 13, 41, 0
14, 398400, Note_on_c, 13, 44, 53
14, 398472, Note_on_c, 13, 44, 0
14, 398640, Note_on_c, 13, 43, 53
14, 398712, Note_on_c, 13, 43, 0
14, 398880, Note_on_c, 13, 41, 53
14, 398952, Note_on_c, 13, 41, 0
14, 399360, Note_on_c, 13, 44, 53
14, 399432, Note_on_c, 13, 44, 0
14, 399600, Note_on_c, 13, 43, 53
14, 399672, Note_on_c, 13, 43, 0
14, 399840, Note_on_c, 13, 41, 53
14, 399912, Note_on_c, 13, 41, 0
14, 400080, Note_on_c, 13, 43, 53
14, 400152, Note_on_c, 13, 43, 0
14, 400320, Note_on_c, 13, 44, 61
14, 400392, Note_on_c, 13, 44, 0
14, 400560, Note_on_c, 13, 46, 61
14, 400632, Note_on_c, 13, 46, 0
14, 400800, Note_on_c, 13, 48, 61
14, 400872, Note_on_c, 13, 48, 0
14, 401040, Note_on_c, 13, 50, 61
14, 401112, Note_on_c, 13, 50, 0
14, 401280, Note_on_c, 13, 51, 35
14, 402048, Note_on_c, 13, 51, 0
14, 402240, Note_on_c, 13, 48, 46
14, 403008, Note_on_c, 13, 48, 0
14, 403200, Note_on_c, 13, 46, 50
14, 403968, Note_on_c, 13, 46, 0
14, 404160, Note_on_c, 13, 55, 60
14, 404928, Note_on_c, 13, 55, 0
14, 405120, Note_on_c, 13, 53, 70
14, 405888, Note_on_c, 13, 53, 0
14, 406080, Note_on_c, 13, 50, 80
14, 406848, Note_on_c, 13, 50, 0
14, 407040, Note_on_c, 13, 48, 90
14, 407136, Note_on_c, 13, 48, 0
14, 407280, Note_on_c, 13, 48, 93
14, 407376, Note_on_c, 13, 48, 0
14, 407520, Note_on_c, 13, 44, 95
14, 407616, Note_on_c, 13, 44, 0
14, 407760, Note_on_c, 13, 44, 98
14, 407856, Note_on_c, 13, 44, 0
14, 408000, Note_on_c, 13, 43, 100
14, 408096, Note_on_c, 13, 43, 0
14, 408240, Note_on_c, 13, 55, 103
14, 408336, Note_on_c, 13, 55, 0
14, 408480, Note_on_c, 13, 55, 105
14, 408576, Note_on_c, 13, 55, 0
14, 408720, Note_on_c, 13, 55, 108
14, 408816, Note_on_c, 13, 55, 0
14, 408960, Note_on_c, 13, 55, 105
14, 409056, Note_on_c, 13, 55, 0
14, 409200, Note_on_c, 13, 55, 108
14, 409296, Note_on_c, 13, 55, 0
14, 409440, Note_on_c, 13, 55, 105
14, 409536, Note_on_c, 13, 55, 0
14, 409680, Note_on_c, 13, 55, 108
14, 409776, Note_on_c, 13, 55, 0
14, 409920, Note_on_c, 13, 55, 105
14, 410016, Note_on_c, 13, 55, 0
14, 410160, Note_on_c, 13, 55, 108
14, 410256, Note_on_c, 13, 55, 0
14, 410400, Note_on_c, 13, 43, 105
14, 410496, Note_on_c, 13, 43, 0
14, 410640, Note_on_c, 13, 43, 108
14, 410736, Note_on_c, 13, 43, 0
14, 410880, Note_on_c, 13, 48, 80
14, 412290, Note_on_c, 13, 48, 0
14, 412320, Note_on_c, 13, 43, 80
14, 412416, Note_on_c, 13, 43, 0
14, 412560, Note_on_c, 13, 43, 80
14, 412656, Note_on_c, 13, 43, 0
14, 412800, Note_on_c, 13, 48, 80
14, 414210, Note_on_c, 13, 48, 0
14, 414240, Note_on_c, 13, 43, 80
14, 414336, Note_on_c, 13, 43, 0
14, 414480, Note_on_c, 13, 43, 80
14, 414576, Note_on_c, 13, 43, 0
14, 414720, Note_on_c, 13, 48, 80
14, 416130, Note_on_c, 13, 48, 0
14, 416160, Note_on_c, 13, 43, 80
14, 416256, Note_on_c, 13, 43, 0
14, 416400, Note_on_c, 13, 43, 80
14, 416496, Note_on_c, 13, 43, 0
14, 416640, Note_on_c, 13, 48, 80
14, 416736, Note_on_c, 13, 48, 0
14, 416880, Note_on_c, 13, 48, 80
14, 416976, Note_on_c, 13, 48, 0
14, 417120, Note_on_c, 13, 48, 120
14, 417216, Note_on_c, 13, 48, 0
14, 417360, Note_on_c, 13, 48, 120
14, 417456, Note_on_c, 13, 48, 0
14, 417600, Note_on_c, 13, 48, 120
14, 417696, Note_on_c, 13, 48, 0
14, 417840, Note_on_c, 13, 48, 120
14, 417936, Note_on_c, 13, 48, 0
14, 418080, Note_on_c, 13, 48, 120
14, 418176, Note_on_c, 13, 48, 0
14, 418320, Note_on_c, 13, 48, 120
14, 418416, Note_on_c, 13, 48, 0
14, 418560, Note_on_c, 13, 46, 120
14, 419970, Note_on_c, 13, 46, 0
14, 420000, Note_on_c, 13, 46, 80
14, 420096, Note_on_c, 13, 46, 0
14, 420240, Note_on_c, 13, 46, 80
14, 420336, Note_on_c, 13, 46, 0
14, 420480, Note_on_c, 13, 51, 80
14, 421890, Note_on_c, 13, 51, 0
14, 421920, Note_on_c, 13, 46, 80
14, 422016, Note_on_c, 13, 46, 0
14, 422160, Note_on_c, 13, 46, 80
14, 422256, Note_on_c, 13, 46, 0
14, 422400, Note_on_c, 13, 51, 80
14, 423810, Note_on_c, 13, 51, 0
14, 423840, Note_on_c, 13, 46, 80
14, 423936, Note_on_c, 13, 46, 0
14, 424080, Note_on_c, 13, 46, 80
14, 424176, Note_on_c, 13, 46, 0
14, 424320, Note_on_c, 13, 51, 80
14, 425730, Note_on_c, 13, 51, 0
14, 425760, Note_on_c, 13, 46, 80
14, 425856, Note_on_c, 13, 46, 0
14, 426000, Note_on_c, 13, 46, 80
14, 426096, Note_on_c, 13, 46, 0
14, 426240, Note_on_c, 13, 51, 80
14, 427650, Note_on_c, 13, 51, 0
14, 427680, Note_on_c, 13, 46, 80
14, 427776, Note_on_c, 13, 46, 0
14, 427920, Note_on_c, 13, 46, 80
14, 428016, Note_on_c, 13, 46, 0
14, 428160, Note_on_c, 13, 51, 127
14, 428264, Note_on_c, 13, 51, 0
14, 428400, Note_on_c, 13, 51, 127
14, 428724, Note_on_c, 13, 51, 0
14, 428880, Note_on_c, 13, 51, 127
14, 429048, Note_on_c, 13, 51, 0
14, 429120, Note_on_c, 13, 51, 127
14, 429934, Note_on_c, 13, 51, 0
14, 430080, Note_on_c, 13, 44, 127
14, 430184, Note_on_c, 13, 44, 0
14, 430320, Note_on_c, 13, 44, 127
14, 430644, Note_on_c, 13, 44, 0
14, 430800, Note_on_c, 13, 44, 127
14, 430968, Note_on_c, 13, 44, 0
14, 431040, Note_on_c, 13, 44, 127
14, 431854, Note_on_c, 13, 44, 0
14, 432000, Note_on_c, 13, 41, 127
14, 432240, Note_on_c, 13, 41, 0
14, 432240, Note_on_c, 13, 41, 127
14, 432360, Note_on_c, 13, 41, 0
14, 432480, Note_on_c, 13, 41, 127
14, 432840, Note_on_c, 13, 41, 0
14, 432960, Note_on_c, 13, 41, 127
14, 433200, Note_on_c, 13, 41, 0
14, 433200, Note_on_c, 13, 41, 127
14, 433320, Note_on_c, 13, 41, 0
14, 433440, Note_on_c, 13, 41, 127
14, 433800, Note_on_c, 13, 41, 0
14, 433920, Note_on_c, 13, 46, 127
14, 434160, Note_on_c, 13, 46, 0
14, 434160, Note_on_c, 13, 46, 127
14, 434280, Note_on_c, 13, 46, 0
14, 434400, Note_on_c, 13, 46, 127
14, 434760, Note_on_c, 13, 46, 0
14, 434880, Note_on_c, 13, 46, 127
14, 435120, Note_on_c, 13, 46, 0
14, 435120, Note_on_c, 13, 46, 127
14, 435240, Note_on_c, 13, 46, 0
14, 435360, Note_on_c, 13, 46, 127
14, 435720, Note_on_c, 13, 46, 0
14, 435840, Note_on_c, 13, 51, 127
14, 435944, Note_on_c, 13, 51, 0
14, 436080, Note_on_c, 13, 51, 127
14, 436404, Note_on_c, 13, 51, 0
14, 436560, Note_on_c, 13, 51, 127
14, 436728, Note_on_c, 13, 51, 0
14, 436800, Note_on_c, 13, 51, 127
14, 437614, Note_on_c, 13, 51, 0
14, 437760, Note_on_c, 13, 44, 127
14, 437864, Note_on_c, 13, 44, 0
14, 438000, Note_on_c, 13, 44, 127
14, 438324, Note_on_c, 13, 44, 0
14, 438480, Note_on_c, 13, 44, 127
14, 438648, Note_on_c, 13, 44, 0
14, 438720, Note_on_c, 13, 44, 127
14, 439534, Note_on_c, 13, 44, 0
14, 439680, Note_on_c, 13, 41, 127
14, 439920, Note_on_c, 13, 41, 0
14, 439920, Note_on_c, 13, 41, 127
14, 440040, Note_on_c, 13, 41, 0
14, 440160, Note_on_c, 13, 41, 127
14, 440520, Note_on_c, 13, 41, 0
14, 440640, Note_on_c, 13, 41, 127
14, 440880, Note_on_c, 13, 41, 0
14, 440880, Note_on_c, 13, 41, 127
14, 441000, Note_on_c, 13, 41, 0
14, 441120, Note_on_c, 13, 41, 127
14, 441480, Note_on_c, 13, 41, 0
14, 441600, Note_on_c, 13, 46, 127
14, 441840, Note_on_c, 13, 46, 0
14, 441840, Note_on_c, 13, 46, 127
14, 441960, Note_on_c, 13, 46, 0
14, 442080, Note_on_c, 13, 46, 127
14, 442440, Note_on_c, 13, 46, 0
14, 442560, Note_on_c, 13, 46, 127
14, 442800, Note_on_c, 13, 46, 0
14, 442800, Note_on_c, 13, 46, 127
14, 442920, Note_on_c, 13, 46, 0
14, 443040, Note_on_c, 13, 46, 127
14, 443400, Note_on_c, 13, 46, 0
14, 443520, Note_on_c, 13, 51, 95
14, 443712, Note_on_c, 13, 51, 0
14, 444000, Note_on_c, 13, 58, 95
14, 444192, Note_on_c, 13, 58, 0
14, 444480, Note_on_c, 13, 55, 95
14, 444672, Note_on_c, 13, 55, 0
14, 444960, Note_on_c, 13, 58, 95
14, 445152, Note_on_c, 13, 58, 0
14, 445440, Note_on_c, 13, 51, 95
14, 445632, Note_on_c, 13, 51, 0
14, 445920, Note_on_c, 13, 58, 95
14, 446112, Note_on_c, 13, 58, 0
14, 446400, Note_on_c, 13, 46, 127
14, 446592, Note_on_c, 13, 46, 0
14, 446880, Note_on_c, 13, 58, 95
14, 447072, Note_on_c, 13, 58, 0
14, 447360, Note_on_c, 13, 51, 95
14, 447552, Note_on_c, 13, 51, 0
14, 447840, Note_on_c, 13, 58, 95
14, 448032, Note_on_c, 13, 58, 0
14, 448320, Note_on_c, 13, 55, 95
14, 448512, Note_on_c, 13, 55, 0
14, 448800, Note_on_c, 13, 58, 95
14, 448992, Note_on_c, 13, 58, 0
14, 449280, Note_on_c, 13, 51, 95
14, 449472, Note_on_c, 13, 51, 0
14, 449760, Note_on_c, 13, 58, 95
14, 449952, Note_on_c, 13, 58, 0
14, 450240, Note_on_c, 13, 46, 127
14, 450432, Note_on_c, 13, 46, 0
14, 450720, Note_on_c, 13, 58, 95
14, 450912, Note_on_c, 13, 58, 0
14, 451200, Note_on_c, 13, 51, 95
14, 451392, Note_on_c, 13, 51, 0
14, 451680, Note_on_c, 13, 58, 95
14, 451872, Note_on_c, 13, 58, 0
14, 452160, Note_on_c, 13, 55, 95
14, 452352, Note_on_c, 13, 55, 0
14, 452640, Note_on_c, 13, 58, 95
14, 452832, Note_on_c, 13, 58, 0
14, 453120, Note_on_c, 13, 51, 95
14, 453312, Note_on_c, 13, 51, 0
14, 453600, Note_on_c, 13, 58, 95
14, 453792, Note_on_c, 13, 58, 0
14, 454080, Note_on_c, 13, 46, 127
14, 454272, Note_on_c, 13, 46, 0
14, 454560, Note_on_c, 13, 58, 95
14, 454752, Note_on_c, 13, 58, 0
14, 455040, Note_on_c, 13, 51, 95
14, 455232, Note_on_c, 13, 51, 0
14, 455520, Note_on_c, 13, 58, 95
14, 455712, Note_on_c, 13, 58, 0
14, 456000, Note_on_c, 13, 55, 95
14, 456192, Note_on_c, 13, 55, 0
14, 456480, Note_on_c, 13, 58, 95
14, 456672, Note_on_c, 13, 58, 0
14, 456960, Note_on_c, 13, 51, 95
14, 457152, Note_on_c, 13, 51, 0
14, 457440, Note_on_c, 13, 58, 95
14, 457632, Note_on_c, 13, 58, 0
14, 457920, Note_on_c, 13, 46, 127
14, 458112, Note_on_c, 13, 46, 0
14, 458400, Note_on_c, 13, 58, 95
14, 458592, Note_on_c, 13, 58, 0
14, 458880, Note_on_c, 13, 51, 80
14, 459072, Note_on_c, 13, 51, 0
14, 459360, Note_on_c, 13, 55, 80
14, 459552, Note_on_c, 13, 55, 0
14, 459840, Note_on_c, 13, 58, 80
14, 460032, Note_on_c, 13, 58, 0
14, 460320, Note_on_c, 13, 63, 80
14, 460512, Note_on_c, 13, 63, 0
14, 460800, Note_on_c, 13, 67, 80
14, 460992, Note_on_c, 13, 67, 0
14, 461280, Note_on_c, 13, 63, 80
14, 461472, Note_on_c, 13, 63, 0
14, 461760, Note_on_c, 13, 58, 80
14, 461952, Note_on_c, 13, 58, 0
14, 462240, Note_on_c, 13, 55, 80
14, 462432, Note_on_c, 13, 55, 0
14, 462720, Note_on_c, 13, 51, 96
14, 462912, Note_on_c, 13, 51, 0
14, 463200, Note_on_c, 13, 55, 96
14, 463392, Note_on_c, 13, 55, 0
14, 463680, Note_on_c, 13, 58, 96
14, 463872, Note_on_c, 13, 58, 0
14, 464160, Note_on_c, 13, 63, 96
14, 464352, Note_on_c, 13, 63, 0
14, 464640, Note_on_c, 13, 67, 96
14, 464832, Note_on_c, 13, 67, 0
14, 465120, Note_on_c, 13, 63, 96
14, 465312, Note_on_c, 13, 63, 0
14, 465600, Note_on_c, 13, 58, 96
14, 465792, Note_on_c, 13, 58, 0
14, 466080, Note_on_c, 13, 55, 96
14, 466272, Note_on_c, 13, 55, 0
14, 466560, Note_on_c, 13, 51, 115
14, 466752, Note_on_c, 13, 51, 0
14, 467040, Note_on_c, 13, 55, 115
14, 467232, Note_on_c, 13, 55, 0
14, 467520, Note_on_c, 13, 58, 115
14, 467712, Note_on_c, 13, 58, 0
14, 468000, Note_on_c, 13, 63, 115
14, 468192, Note_on_c, 13, 63, 0
14, 468480, Note_on_c, 13, 67, 115
14, 468672, Note_on_c, 13, 67, 0
14, 468960, Note_on_c, 13, 63, 115
14, 469152, Note_on_c, 13, 63, 0
14, 469440, Note_on_c, 13, 58, 115
14, 469632, Note_on_c, 13, 58, 0
14, 469920, Note_on_c, 13, 55, 115
14, 470112, Note_on_c, 13, 55, 0
14, 470400, Note_on_c, 13, 58, 127
14, 470592, Note_on_c, 13, 58, 0
14, 470880, Note_on_c, 13, 55, 127
14, 471072, Note_on_c, 13, 55, 0
14, 471360, Note_on_c, 13, 51, 127
14, 471552, Note_on_c, 13, 51, 0
14, 471840, Note_on_c, 13, 46, 127
14, 472032, Note_on_c, 13, 46, 0
14, 472320, Note_on_c, 13, 51, 127
14, 472512, Note_on_c, 13, 51, 0
14, 472800, Note_on_c, 13, 46, 127
14, 472992, Note_on_c, 13, 46, 0
14, 473280, Note_on_c, 13, 43, 127
14, 473472, Note_on_c, 13, 43, 0
14, 473760, Note_on_c, 13, 39, 127
14, 473952, Note_on_c, 13, 39, 0
14, 474240, Note_on_c, 13, 46, 127
14, 474344, Note_on_c, 13, 46, 0
14, 474480, Note_on_c, 13, 46, 127
14, 474804, Note_on_c, 13, 46, 0
14, 474960, Note_on_c, 13, 46, 127
14, 475044, Note_on_c, 13, 46, 0
14, 475200, Note_on_c, 13, 46, 127
14, 476014, Note_on_c, 13, 46, 0
14, 478320, Note_on_c, 13, 46, 127
14, 478424, Note_on_c, 13, 46, 0
14, 478560, Note_on_c, 13, 46, 127
14, 478884, Note_on_c, 13, 46, 0
14, 479040, Note_on_c, 13, 46, 127
14, 479124, Note_on_c, 13, 46, 0
14, 479280, Note_on_c, 13, 46, 127
14, 480094, Note_on_c, 13, 46, 0
14, 481440, Control_c, 13, 7, 120
14, 482400, Note_on_c, 13, 46, 127
14, 482504, Note_on_c, 13, 46, 0
14, 482640, Note_on_c, 13, 46, 102
14, 482724, Note_on_c, 13, 46, 0
14, 482880, Note_on_c, 13, 46, 102
14, 482964, Note_on_c, 13, 46, 0
14, 483120, Note_on_c, 13, 46, 102
14, 483204, Note_on_c, 13, 46, 0
14, 483360, Note_on_c, 13, 46, 127
14, 483464, Note_on_c, 13, 46, 0
14, 483600, Note_on_c, 13, 46, 102
14, 483684, Note_on_c, 13, 46, 0
14, 483840, Note_on_c, 13, 46, 102
14, 483924, Note_on_c, 13, 46, 0
14, 484080, Note_on_c, 13, 46, 102
14, 484164, Note_on_c, 13, 46, 0
14, 484320, Note_on_c, 13, 46, 127
14, 484424, Note_on_c, 13, 46, 0
14, 484560, Note_on_c, 13, 46, 102
14, 484644, Note_on_c, 13, 46, 0
14, 484800, Note_on_c, 13, 46, 102
14, 484884, Note_on_c, 13, 46, 0
14, 485040, Note_on_c, 13, 46, 102
14, 485124, Note_on_c, 13, 46, 0
14, 485280, Note_on_c, 13, 46, 127
14, 485384, Note_on_c, 13, 46, 0
14, 485520, Note_on_c, 13, 46, 102
14, 485604, Note_on_c, 13, 46, 0
14, 485760, Note_on_c, 13, 46, 102
14, 485844, Note_on_c, 13, 46, 0
14, 486000, Note_on_c, 13, 46, 102
14, 486084, Note_on_c, 13, 46, 0
14, 486240, Note_on_c, 13, 51, 127
14, 486456, Note_on_c, 13, 51, 0
14, 486720, Note_on_c, 13, 51, 127
14, 486936, Note_on_c, 13, 51, 0
14, 487200, Note_on_c, 13, 51, 127
14, 487416, Note_on_c, 13, 51, 0
14, 487680, Note_on_c, 13, 51, 127
14, 487896, Note_on_c, 13, 51, 0
14, 488160, Note_on_c, 13, 51, 127
14, 488376, Note_on_c, 13, 51, 0
14, 488640, Note_on_c, 13, 51, 127
14, 488856, Note_on_c, 13, 51, 0
14, 489120, Note_on_c, 13, 51, 127
14, 489336, Note_on_c, 13, 51, 0
14, 489600, Note_on_c, 13, 51, 127
14, 489816, Note_on_c, 13, 51, 0
14, 490080, Note_on_c, 13, 51, 127
14, 490296, Note_on_c, 13, 51, 0
14, 492000, Note_on_c, 13, 51, 127
14, 492216, Note_on_c, 13, 51, 0
14, 493920, Note_on_c, 13, 51, 127
14, 494136, Note_on_c, 13, 51, 0
14, 495000, Note_on_c, 13, 51, 127
14, 495216, Note_on_c, 13, 51, 0
14, 496080, Note_on_c, 13, 51, 127
14, 496296, Note_on_c, 13, 51, 0
14, 497160, Note_on_c, 13, 51, 127
14, 497376, Note_on_c, 13, 51, 0
14, 498360, Note_on_c, 13, 51, 127
14, 498576, Note_on_c, 13, 51, 0
14, 498576, End_track
15, 0, Start_track
15, 0, Title_t, "Bass                "
15, 0, Program_c, 14, 48
15, 0, Control_c, 14, 7, 116
15, 0, Control_c, 14, 10, 64
15, 2880, Control_c, 14, 10, 95
15, 2880, Control_c, 14, 91, 100
15, 2880, Control_c, 14, 93, 100
15, 9600, Note_on_c, 14, 41, 81
15, 11342, Note_on_c, 14, 41, 0
15, 11520, Note_on_c, 14, 36, 127
15, 13210, Note_on_c, 14, 36, 0
15, 25920, Note_on_c, 14, 31, 81
15, 27662, Note_on_c, 14, 31, 0
15, 27840, Note_on_c, 14, 26, 98
15, 29530, Note_on_c, 14, 26, 0
15, 35760, Note_on_c, 14, 29, 37
15, 35880, Note_on_c, 14, 30, 36
15, 35892, Note_on_c, 14, 29, 0
15, 36000, Note_on_c, 14, 32, 53
15, 36012, Note_on_c, 14, 30, 0
15, 36120, Note_on_c, 14, 30, 61
15, 36122, Note_on_c, 14, 32, 0
15, 36240, Note_on_c, 14, 30, 0
15, 36240, Note_on_c, 14, 29, 36
15, 36564, Note_on_c, 14, 29, 0
15, 36720, Note_on_c, 14, 29, 35
15, 36840, Note_on_c, 14, 31, 40
15, 36844, Note_on_c, 14, 29, 0
15, 36960, Note_on_c, 14, 32, 54
15, 36962, Note_on_c, 14, 31, 0
15, 37080, Note_on_c, 14, 31, 61
15, 37092, Note_on_c, 14, 32, 0
15, 37200, Note_on_c, 14, 29, 56
15, 37206, Note_on_c, 14, 31, 0
15, 37444, Note_on_c, 14, 29, 0
15, 37680, Note_on_c, 14, 41, 40
15, 37800, Note_on_c, 14, 43, 43
15, 37804, Note_on_c, 14, 41, 0
15, 37920, Note_on_c, 14, 44, 50
15, 37936, Note_on_c, 14, 43, 0
15, 38040, Note_on_c, 14, 43, 57
15, 38060, Note_on_c, 14, 44, 0
15, 38160, Note_on_c, 14, 43, 0
15, 38160, Note_on_c, 14, 41, 42
15, 38240, Note_on_c, 14, 41, 0
15, 38400, Note_on_c, 14, 41, 60
15, 38520, Note_on_c, 14, 39, 53
15, 38532, Note_on_c, 14, 41, 0
15, 38640, Note_on_c, 14, 38, 48
15, 38656, Note_on_c, 14, 39, 0
15, 38700, Note_on_c, 14, 38, 0
15, 38880, Note_on_c, 14, 38, 66
15, 38984, Note_on_c, 14, 38, 0
15, 39000, Note_on_c, 14, 36, 39
15, 39120, Note_on_c, 14, 36, 0
15, 39120, Note_on_c, 14, 34, 38
15, 39180, Note_on_c, 14, 34, 0
15, 39600, Note_on_c, 14, 41, 41
15, 39720, Note_on_c, 14, 41, 0
15, 39720, Note_on_c, 14, 43, 41
15, 39840, Note_on_c, 14, 44, 56
15, 39852, Note_on_c, 14, 43, 0
15, 39960, Note_on_c, 14, 44, 0
15, 39960, Note_on_c, 14, 43, 39
15, 40074, Note_on_c, 14, 43, 0
15, 40080, Note_on_c, 14, 41, 43
15, 40144, Note_on_c, 14, 41, 0
15, 40320, Note_on_c, 14, 41, 66
15, 40440, Note_on_c, 14, 39, 40
15, 40450, Note_on_c, 14, 41, 0
15, 40560, Note_on_c, 14, 38, 49
15, 40572, Note_on_c, 14, 39, 0
15, 40622, Note_on_c, 14, 38, 0
15, 40800, Note_on_c, 14, 38, 68
15, 40912, Note_on_c, 14, 38, 0
15, 40920, Note_on_c, 14, 36, 41
15, 41040, Note_on_c, 14, 34, 39
15, 41046, Note_on_c, 14, 36, 0
15, 41104, Note_on_c, 14, 34, 0
15, 44880, Control_c, 14, 7, 100
15, 64080, Control_c, 14, 7, 100
15, 65040, Note_on_c, 14, 39, 71
15, 65162, Note_on_c, 14, 39, 0
15, 65520, Note_on_c, 14, 43, 71
15, 65662, Note_on_c, 14, 43, 0
15, 66000, Note_on_c, 14, 41, 71
15, 66140, Note_on_c, 14, 41, 0
15, 66480, Note_on_c, 14, 34, 71
15, 66600, Note_on_c, 14, 34, 0
15, 66960, Note_on_c, 14, 39, 95
15, 67090, Note_on_c, 14, 39, 0
15, 67440, Note_on_c, 14, 43, 95
15, 67550, Note_on_c, 14, 43, 0
15, 67920, Note_on_c, 14, 46, 95
15, 68004, Note_on_c, 14, 46, 0
15, 68400, Note_on_c, 14, 34, 95
15, 68500, Note_on_c, 14, 34, 0
15, 68880, Note_on_c, 14, 39, 95
15, 69004, Note_on_c, 14, 39, 0
15, 69360, Note_on_c, 14, 43, 95
15, 69534, Note_on_c, 14, 43, 0
15, 69840, Note_on_c, 14, 41, 95
15, 69982, Note_on_c, 14, 41, 0
15, 70320, Note_on_c, 14, 34, 95
15, 70460, Note_on_c, 14, 34, 0
15, 70800, Note_on_c, 14, 39, 95
15, 70940, Note_on_c, 14, 39, 0
15, 71280, Note_on_c, 14, 43, 95
15, 71430, Note_on_c, 14, 43, 0
15, 71760, Note_on_c, 14, 44, 95
15, 71900, Note_on_c, 14, 44, 0
15, 72240, Note_on_c, 14, 41, 95
15, 72356, Note_on_c, 14, 41, 0
15, 72720, Note_on_c, 14, 43, 127
15, 72860, Note_on_c, 14, 43, 0
15, 73200, Note_on_c, 14, 46, 127
15, 73316, Note_on_c, 14, 46, 0
15, 73680, Note_on_c, 14, 48, 127
15, 73804, Note_on_c, 14, 48, 0
15, 74160, Note_on_c, 14, 32, 127
15, 74282, Note_on_c, 14, 32, 0
15, 74640, Note_on_c, 14, 34, 127
15, 74750, Note_on_c, 14, 34, 0
15, 75120, Note_on_c, 14, 38, 127
15, 75250, Note_on_c, 14, 38, 0
15, 75600, Note_on_c, 14, 39, 127
15, 75722, Note_on_c, 14, 39, 0
15, 76080, Note_on_c, 14, 34, 127
15, 76196, Note_on_c, 14, 34, 0
15, 76560, Note_on_c, 14, 40, 127
15, 76696, Note_on_c, 14, 40, 0
15, 77040, Note_on_c, 14, 34, 127
15, 77160, Note_on_c, 14, 34, 0
15, 77520, Note_on_c, 14, 41, 127
15, 77652, Note_on_c, 14, 41, 0
15, 78000, Note_on_c, 14, 34, 127
15, 78082, Note_on_c, 14, 34, 0
15, 78480, Note_on_c, 14, 44, 127
15, 78610, Note_on_c, 14, 44, 0
15, 78960, Note_on_c, 14, 34, 127
15, 79060, Note_on_c, 14, 34, 0
15, 79440, Note_on_c, 14, 46, 127
15, 79572, Note_on_c, 14, 46, 0
15, 79920, Note_on_c, 14, 34, 127
15, 80016, Note_on_c, 14, 34, 0
15, 80400, Note_on_c, 14, 50, 127
15, 80532, Note_on_c, 14, 50, 0
15, 80880, Note_on_c, 14, 34, 127
15, 80996, Note_on_c, 14, 34, 0
15, 81360, Note_on_c, 14, 53, 127
15, 81454, Note_on_c, 14, 53, 0
15, 81600, Note_on_c, 14, 34, 127
15, 81702, Note_on_c, 14, 34, 0
15, 81840, Note_on_c, 14, 34, 127
15, 81916, Note_on_c, 14, 34, 0
15, 82080, Note_on_c, 14, 34, 127
15, 82152, Note_on_c, 14, 34, 0
15, 82320, Note_on_c, 14, 34, 127
15, 82416, Note_on_c, 14, 34, 0
15, 82560, Note_on_c, 14, 34, 127
15, 82652, Note_on_c, 14, 34, 0
15, 82800, Note_on_c, 14, 34, 127
15, 82884, Note_on_c, 14, 34, 0
15, 83040, Note_on_c, 14, 34, 127
15, 83120, Note_on_c, 14, 34, 0
15, 83280, Note_on_c, 14, 34, 127
15, 83362, Note_on_c, 14, 34, 0
15, 83520, Note_on_c, 14, 34, 127
15, 83616, Note_on_c, 14, 34, 0
15, 83760, Note_on_c, 14, 34, 127
15, 83846, Note_on_c, 14, 34, 0
15, 84000, Note_on_c, 14, 34, 127
15, 84080, Note_on_c, 14, 34, 0
15, 84240, Note_on_c, 14, 34, 127
15, 84324, Note_on_c, 14, 34, 0
15, 84480, Note_on_c, 14, 34, 127
15, 84556, Note_on_c, 14, 34, 0
15, 84720, Note_on_c, 14, 34, 127
15, 84790, Note_on_c, 14, 34, 0
15, 84960, Note_on_c, 14, 34, 127
15, 85030, Note_on_c, 14, 34, 0
15, 85200, Note_on_c, 14, 39, 127
15, 85310, Note_on_c, 14, 39, 0
15, 85440, Note_on_c, 14, 39, 127
15, 85536, Note_on_c, 14, 39, 0
15, 85680, Note_on_c, 14, 39, 127
15, 85782, Note_on_c, 14, 39, 0
15, 85920, Note_on_c, 14, 39, 127
15, 86022, Note_on_c, 14, 39, 0
15, 86160, Note_on_c, 14, 39, 127
15, 86256, Note_on_c, 14, 39, 0
15, 86400, Note_on_c, 14, 39, 127
15, 86490, Note_on_c, 14, 39, 0
15, 86640, Note_on_c, 14, 39, 127
15, 86760, Note_on_c, 14, 39, 0
15, 86880, Note_on_c, 14, 39, 127
15, 86966, Note_on_c, 14, 39, 0
15, 87120, Note_on_c, 14, 39, 127
15, 87206, Note_on_c, 14, 39, 0
15, 87360, Note_on_c, 14, 39, 127
15, 87450, Note_on_c, 14, 39, 0
15, 87600, Note_on_c, 14, 39, 127
15, 87674, Note_on_c, 14, 39, 0
15, 87840, Note_on_c, 14, 39, 127
15, 87926, Note_on_c, 14, 39, 0
15, 88080, Note_on_c, 14, 39, 127
15, 88172, Note_on_c, 14, 39, 0
15, 88320, Note_on_c, 14, 39, 118
15, 88394, Note_on_c, 14, 39, 0
15, 88560, Note_on_c, 14, 39, 126
15, 88630, Note_on_c, 14, 39, 0
15, 88800, Note_on_c, 14, 39, 116
15, 88870, Note_on_c, 14, 39, 0
15, 89040, Note_on_c, 14, 39, 127
15, 89132, Note_on_c, 14, 39, 0
15, 89280, Note_on_c, 14, 39, 127
15, 89354, Note_on_c, 14, 39, 0
15, 89520, Note_on_c, 14, 39, 127
15, 89602, Note_on_c, 14, 39, 0
15, 89760, Note_on_c, 14, 39, 127
15, 89832, Note_on_c, 14, 39, 0
15, 90000, Note_on_c, 14, 39, 127
15, 90092, Note_on_c, 14, 39, 0
15, 90240, Note_on_c, 14, 39, 127
15, 90316, Note_on_c, 14, 39, 0
15, 90480, Note_on_c, 14, 39, 122
15, 90554, Note_on_c, 14, 39, 0
15, 90720, Note_on_c, 14, 39, 120
15, 90800, Note_on_c, 14, 39, 0
15, 90960, Note_on_c, 14, 39, 127
15, 91070, Note_on_c, 14, 39, 0
15, 91200, Note_on_c, 14, 39, 124
15, 91280, Note_on_c, 14, 39, 0
15, 91440, Note_on_c, 14, 39, 114
15, 91520, Note_on_c, 14, 39, 0
15, 91680, Note_on_c, 14, 39, 116
15, 91754, Note_on_c, 14, 39, 0
15, 91920, Note_on_c, 14, 39, 127
15, 91992, Note_on_c, 14, 39, 0
15, 92160, Note_on_c, 14, 39, 127
15, 92236, Note_on_c, 14, 39, 0
15, 92400, Note_on_c, 14, 39, 127
15, 92480, Note_on_c, 14, 39, 0
15, 92640, Note_on_c, 14, 39, 127
15, 92712, Note_on_c, 14, 39, 0
15, 92880, Note_on_c, 14, 39, 127
15, 93014, Note_on_c, 14, 39, 0
15, 93120, Note_on_c, 14, 39, 116
15, 93202, Note_on_c, 14, 39, 0
15, 93360, Note_on_c, 14, 39, 122
15, 93432, Note_on_c, 14, 39, 0
15, 93600, Note_on_c, 14, 39, 127
15, 93680, Note_on_c, 14, 39, 0
15, 93840, Note_on_c, 14, 39, 127
15, 93962, Note_on_c, 14, 39, 0
15, 94080, Note_on_c, 14, 39, 122
15, 94162, Note_on_c, 14, 39, 0
15, 94320, Note_on_c, 14, 39, 116
15, 94400, Note_on_c, 14, 39, 0
15, 94560, Note_on_c, 14, 39, 122
15, 94642, Note_on_c, 14, 39, 0
15, 94800, Note_on_c, 14, 39, 127
15, 94912, Note_on_c, 14, 39, 0
15, 95040, Note_on_c, 14, 39, 127
15, 95124, Note_on_c, 14, 39, 0
15, 95280, Note_on_c, 14, 39, 127
15, 95366, Note_on_c, 14, 39, 0
15, 95520, Note_on_c, 14, 39, 127
15, 95614, Note_on_c, 14, 39, 0
15, 95760, Note_on_c, 14, 39, 127
15, 95920, Note_on_c, 14, 39, 0
15, 96240, Note_on_c, 14, 43, 127
15, 96374, Note_on_c, 14, 43, 0
15, 96720, Note_on_c, 14, 36, 127
15, 96872, Note_on_c, 14, 36, 0
15, 97200, Note_on_c, 14, 39, 127
15, 97314, Note_on_c, 14, 39, 0
15, 97680, Note_on_c, 14, 32, 127
15, 97780, Note_on_c, 14, 32, 0
15, 98160, Note_on_c, 14, 36, 127
15, 98300, Note_on_c, 14, 36, 0
15, 98640, Note_on_c, 14, 29, 127
15, 98904, Note_on_c, 14, 29, 0
15, 99600, Note_on_c, 14, 41, 127
15, 99756, Note_on_c, 14, 41, 0
15, 100080, Note_on_c, 14, 44, 127
15, 100166, Note_on_c, 14, 44, 0
15, 100560, Note_on_c, 14, 38, 127
15, 100646, Note_on_c, 14, 38, 0
15, 101040, Note_on_c, 14, 41, 127
15, 101196, Note_on_c, 14, 41, 0
15, 101520, Note_on_c, 14, 34, 127
15, 101644, Note_on_c, 14, 34, 0
15, 102000, Note_on_c, 14, 38, 127
15, 102114, Note_on_c, 14, 38, 0
15, 102480, Note_on_c, 14, 31, 127
15, 102732, Note_on_c, 14, 31, 0
15, 103440, Note_on_c, 14, 43, 127
15, 103562, Note_on_c, 14, 43, 0
15, 103920, Note_on_c, 14, 46, 127
15, 104022, Note_on_c, 14, 46, 0
15, 104400, Note_on_c, 14, 39, 127
15, 104536, Note_on_c, 14, 39, 0
15, 104880, Note_on_c, 14, 43, 127
15, 105016, Note_on_c, 14, 43, 0
15, 105360, Note_on_c, 14, 36, 127
15, 105512, Note_on_c, 14, 36, 0
15, 105840, Note_on_c, 14, 39, 127
15, 105976, Note_on_c, 14, 39, 0
15, 106320, Note_on_c, 14, 33, 127
15, 106446, Note_on_c, 14, 33, 0
15, 106800, Note_on_c, 14, 36, 127
15, 106922, Note_on_c, 14, 36, 0
15, 107280, Note_on_c, 14, 34, 127
15, 107426, Note_on_c, 14, 34, 0
15, 107760, Note_on_c, 14, 34, 127
15, 107912, Note_on_c, 14, 34, 0
15, 108240, Note_on_c, 14, 39, 127
15, 108396, Note_on_c, 14, 39, 0
15, 108720, Note_on_c, 14, 39, 127
15, 108870, Note_on_c, 14, 39, 0
15, 109200, Note_on_c, 14, 34, 127
15, 109396, Note_on_c, 14, 34, 0
15, 109440, Note_on_c, 14, 46, 127
15, 109522, Note_on_c, 14, 46, 0
15, 109680, Note_on_c, 14, 46, 127
15, 109760, Note_on_c, 14, 46, 0
15, 109920, Note_on_c, 14, 46, 127
15, 110016, Note_on_c, 14, 46, 0
15, 110160, Note_on_c, 14, 48, 127
15, 110400, Note_on_c, 14, 46, 127
15, 110404, Note_on_c, 14, 48, 0
15, 110496, Note_on_c, 14, 46, 0
15, 110640, Note_on_c, 14, 43, 127
15, 110746, Note_on_c, 14, 43, 0
15, 110880, Note_on_c, 14, 39, 127
15, 110986, Note_on_c, 14, 39, 0
15, 111120, Note_on_c, 14, 34, 127
15, 111396, Note_on_c, 14, 34, 0
15, 111600, Note_on_c, 14, 34, 127
15, 111834, Note_on_c, 14, 34, 0
15, 112080, Note_on_c, 14, 39, 127
15, 112292, Note_on_c, 14, 39, 0
15, 112560, Note_on_c, 14, 39, 127
15, 112770, Note_on_c, 14, 39, 0
15, 113040, Note_on_c, 14, 34, 127
15, 113206, Note_on_c, 14, 34, 0
15, 113280, Note_on_c, 14, 46, 124
15, 113362, Note_on_c, 14, 46, 0
15, 113520, Note_on_c, 14, 46, 127
15, 113586, Note_on_c, 14, 46, 0
15, 113760, Note_on_c, 14, 46, 127
15, 113846, Note_on_c, 14, 46, 0
15, 114000, Note_on_c, 14, 48, 127
15, 114234, Note_on_c, 14, 48, 0
15, 114240, Note_on_c, 14, 46, 127
15, 114336, Note_on_c, 14, 46, 0
15, 114480, Note_on_c, 14, 43, 127
15, 114586, Note_on_c, 14, 43, 0
15, 114720, Note_on_c, 14, 39, 127
15, 114830, Note_on_c, 14, 39, 0
15, 114960, Note_on_c, 14, 34, 127
15, 115204, Note_on_c, 14, 34, 0
15, 134160, Note_on_c, 14, 46, 77
15, 135014, Note_on_c, 14, 46, 0
15, 135120, Note_on_c, 14, 41, 77
15, 135936, Note_on_c, 14, 41, 0
15, 136080, Note_on_c, 14, 43, 77
15, 136944, Note_on_c, 14, 43, 0
15, 137040, Note_on_c, 14, 38, 77
15, 137914, Note_on_c, 14, 38, 0
15, 138000, Note_on_c, 14, 39, 71
15, 138134, Note_on_c, 14, 39, 0
15, 138480, Note_on_c, 14, 38, 71
15, 138610, Note_on_c, 14, 38, 0
15, 138960, Note_on_c, 14, 36, 71
15, 139086, Note_on_c, 14, 36, 0
15, 139440, Note_on_c, 14, 34, 71
15, 139572, Note_on_c, 14, 34, 0
15, 139920, Note_on_c, 14, 33, 71
15, 140040, Note_on_c, 14, 33, 0
15, 140400, Note_on_c, 14, 34, 71
15, 140500, Note_on_c, 14, 34, 0
15, 140880, Note_on_c, 14, 41, 71
15, 141004, Note_on_c, 14, 41, 0
15, 141360, Note_on_c, 14, 29, 71
15, 141460, Note_on_c, 14, 29, 0
15, 141840, Note_on_c, 14, 34, 127
15, 141944, Note_on_c, 14, 34, 0
15, 142320, Note_on_c, 14, 46, 127
15, 142452, Note_on_c, 14, 46, 0
15, 142800, Note_on_c, 14, 41, 127
15, 142926, Note_on_c, 14, 41, 0
15, 143280, Note_on_c, 14, 29, 118
15, 143416, Note_on_c, 14, 29, 0
15, 143760, Note_on_c, 14, 31, 127
15, 143892, Note_on_c, 14, 31, 0
15, 144240, Note_on_c, 14, 43, 127
15, 144330, Note_on_c, 14, 43, 0
15, 144720, Note_on_c, 14, 38, 127
15, 144840, Note_on_c, 14, 38, 0
15, 145200, Note_on_c, 14, 26, 127
15, 145332, Note_on_c, 14, 26, 0
15, 145680, Note_on_c, 14, 27, 45
15, 145896, Note_on_c, 14, 27, 0
15, 146160, Note_on_c, 14, 39, 45
15, 146376, Note_on_c, 14, 39, 0
15, 146640, Note_on_c, 14, 39, 45
15, 146856, Note_on_c, 14, 39, 0
15, 147120, Note_on_c, 14, 39, 45
15, 147336, Note_on_c, 14, 39, 0
15, 147600, Note_on_c, 14, 26, 45
15, 147744, Note_on_c, 14, 26, 0
15, 148080, Note_on_c, 14, 38, 45
15, 148224, Note_on_c, 14, 38, 0
15, 148560, Note_on_c, 14, 38, 45
15, 148704, Note_on_c, 14, 38, 0
15, 149040, Note_on_c, 14, 38, 45
15, 149184, Note_on_c, 14, 38, 0
15, 149520, Note_on_c, 14, 26, 45
15, 149664, Note_on_c, 14, 26, 0
15, 150000, Note_on_c, 14, 38, 45
15, 150144, Note_on_c, 14, 38, 0
15, 150480, Note_on_c, 14, 38, 45
15, 150624, Note_on_c, 14, 38, 0
15, 150960, Note_on_c, 14, 38, 45
15, 151104, Note_on_c, 14, 38, 0
15, 151440, Note_on_c, 14, 26, 45
15, 151584, Note_on_c, 14, 26, 0
15, 151920, Note_on_c, 14, 38, 45
15, 152064, Note_on_c, 14, 38, 0
15, 152400, Note_on_c, 14, 38, 45
15, 152544, Note_on_c, 14, 38, 0
15, 152880, Note_on_c, 14, 38, 45
15, 153024, Note_on_c, 14, 38, 0
15, 153360, Note_on_c, 14, 31, 67
15, 153464, Note_on_c, 14, 31, 0
15, 153600, Note_on_c, 14, 34, 67
15, 153684, Note_on_c, 14, 34, 0
15, 153840, Note_on_c, 14, 39, 67
15, 153934, Note_on_c, 14, 39, 0
15, 154080, Note_on_c, 14, 38, 67
15, 154190, Note_on_c, 14, 38, 0
15, 154320, Note_on_c, 14, 36, 67
15, 154426, Note_on_c, 14, 36, 0
15, 154560, Note_on_c, 14, 34, 67
15, 154652, Note_on_c, 14, 34, 0
15, 154800, Note_on_c, 14, 33, 67
15, 154910, Note_on_c, 14, 33, 0
15, 155040, Note_on_c, 14, 31, 67
15, 155132, Note_on_c, 14, 31, 0
15, 155280, Note_on_c, 14, 33, 76
15, 155394, Note_on_c, 14, 33, 0
15, 155520, Note_on_c, 14, 36, 76
15, 155626, Note_on_c, 14, 36, 0
15, 155760, Note_on_c, 14, 41, 76
15, 155876, Note_on_c, 14, 41, 0
15, 156000, Note_on_c, 14, 39, 76
15, 156106, Note_on_c, 14, 39, 0
15, 156240, Note_on_c, 14, 38, 76
15, 156356, Note_on_c, 14, 38, 0
15, 156480, Note_on_c, 14, 36, 76
15, 156600, Note_on_c, 14, 36, 0
15, 156720, Note_on_c, 14, 34, 76
15, 156820, Note_on_c, 14, 34, 0
15, 156960, Note_on_c, 14, 33, 76
15, 157082, Note_on_c, 14, 33, 0
15, 157200, Note_on_c, 14, 34, 86
15, 157292, Note_on_c, 14, 34, 0
15, 157440, Note_on_c, 14, 38, 86
15, 157534, Note_on_c, 14, 38, 0
15, 157680, Note_on_c, 14, 43, 86
15, 157786, Note_on_c, 14, 43, 0
15, 157920, Note_on_c, 14, 41, 86
15, 158020, Note_on_c, 14, 41, 0
15, 158160, Note_on_c, 14, 39, 114
15, 158244, Note_on_c, 14, 39, 0
15, 158400, Note_on_c, 14, 38, 103
15, 158512, Note_on_c, 14, 38, 0
15, 158640, Note_on_c, 14, 36, 114
15, 158746, Note_on_c, 14, 36, 0
15, 158880, Note_on_c, 14, 34, 114
15, 158974, Note_on_c, 14, 34, 0
15, 159120, Note_on_c, 14, 33, 127
15, 159234, Note_on_c, 14, 33, 0
15, 159360, Note_on_c, 14, 36, 127
15, 159452, Note_on_c, 14, 36, 0
15, 159600, Note_on_c, 14, 41, 127
15, 159720, Note_on_c, 14, 41, 0
15, 159840, Note_on_c, 14, 39, 127
15, 159936, Note_on_c, 14, 39, 0
15, 160080, Note_on_c, 14, 38, 127
15, 160196, Note_on_c, 14, 38, 0
15, 160320, Note_on_c, 14, 36, 127
15, 160422, Note_on_c, 14, 36, 0
15, 160560, Note_on_c, 14, 34, 127
15, 160652, Note_on_c, 14, 34, 0
15, 160800, Note_on_c, 14, 33, 127
15, 160924, Note_on_c, 14, 33, 0
15, 161040, Note_on_c, 14, 34, 127
15, 161224, Note_on_c, 14, 34, 0
15, 161520, Note_on_c, 14, 38, 95
15, 161672, Note_on_c, 14, 38, 0
15, 162480, Note_on_c, 14, 38, 95
15, 162616, Note_on_c, 14, 38, 0
15, 163440, Note_on_c, 14, 38, 95
15, 163590, Note_on_c, 14, 38, 0
15, 164400, Note_on_c, 14, 38, 95
15, 164564, Note_on_c, 14, 38, 0
15, 165360, Note_on_c, 14, 39, 95
15, 165500, Note_on_c, 14, 39, 0
15, 166320, Note_on_c, 14, 39, 95
15, 166452, Note_on_c, 14, 39, 0
15, 167280, Note_on_c, 14, 39, 95
15, 167386, Note_on_c, 14, 39, 0
15, 168240, Note_on_c, 14, 39, 95
15, 168356, Note_on_c, 14, 39, 0
15, 168720, Note_on_c, 14, 29, 95
15, 168830, Note_on_c, 14, 29, 0
15, 169200, Note_on_c, 14, 41, 95
15, 169336, Note_on_c, 14, 41, 0
15, 169680, Note_on_c, 14, 41, 95
15, 169814, Note_on_c, 14, 41, 0
15, 170160, Note_on_c, 14, 41, 95
15, 170304, Note_on_c, 14, 41, 0
15, 170640, Note_on_c, 14, 41, 95
15, 170782, Note_on_c, 14, 41, 0
15, 171120, Note_on_c, 14, 41, 95
15, 171270, Note_on_c, 14, 41, 0
15, 171600, Note_on_c, 14, 39, 95
15, 171742, Note_on_c, 14, 39, 0
15, 172080, Note_on_c, 14, 39, 95
15, 172222, Note_on_c, 14, 39, 0
15, 172560, Note_on_c, 14, 38, 95
15, 172680, Note_on_c, 14, 38, 0
15, 173040, Note_on_c, 14, 38, 95
15, 173200, Note_on_c, 14, 38, 0
15, 174000, Note_on_c, 14, 38, 95
15, 174130, Note_on_c, 14, 38, 0
15, 174960, Note_on_c, 14, 38, 95
15, 175096, Note_on_c, 14, 38, 0
15, 175920, Note_on_c, 14, 38, 95
15, 176060, Note_on_c, 14, 38, 0
15, 176880, Note_on_c, 14, 39, 95
15, 177026, Note_on_c, 14, 39, 0
15, 177840, Note_on_c, 14, 39, 95
15, 177976, Note_on_c, 14, 39, 0
15, 178800, Note_on_c, 14, 39, 95
15, 178922, Note_on_c, 14, 39, 0
15, 179760, Note_on_c, 14, 39, 95
15, 179870, Note_on_c, 14, 39, 0
15, 180240, Note_on_c, 14, 29, 95
15, 180366, Note_on_c, 14, 29, 0
15, 180720, Note_on_c, 14, 41, 95
15, 180872, Note_on_c, 14, 41, 0
15, 181200, Note_on_c, 14, 41, 95
15, 181340, Note_on_c, 14, 41, 0
15, 181680, Note_on_c, 14, 41, 95
15, 181826, Note_on_c, 14, 41, 0
15, 182160, Note_on_c, 14, 41, 95
15, 182300, Note_on_c, 14, 41, 0
15, 182640, Note_on_c, 14, 41, 95
15, 182772, Note_on_c, 14, 41, 0
15, 183120, Note_on_c, 14, 41, 95
15, 183262, Note_on_c, 14, 41, 0
15, 183600, Note_on_c, 14, 41, 95
15, 183756, Note_on_c, 14, 41, 0
15, 184080, Note_on_c, 14, 34, 95
15, 184206, Note_on_c, 14, 34, 0
15, 184560, Note_on_c, 14, 41, 95
15, 184690, Note_on_c, 14, 41, 0
15, 185040, Note_on_c, 14, 33, 95
15, 185172, Note_on_c, 14, 33, 0
15, 185520, Note_on_c, 14, 41, 95
15, 185654, Note_on_c, 14, 41, 0
15, 186000, Note_on_c, 14, 34, 95
15, 186122, Note_on_c, 14, 34, 0
15, 186480, Note_on_c, 14, 41, 95
15, 186616, Note_on_c, 14, 41, 0
15, 186960, Note_on_c, 14, 29, 95
15, 187094, Note_on_c, 14, 29, 0
15, 187440, Note_on_c, 14, 41, 95
15, 187586, Note_on_c, 14, 41, 0
15, 187920, Note_on_c, 14, 34, 95
15, 188056, Note_on_c, 14, 34, 0
15, 188400, Note_on_c, 14, 41, 95
15, 188546, Note_on_c, 14, 41, 0
15, 188880, Note_on_c, 14, 33, 95
15, 189030, Note_on_c, 14, 33, 0
15, 189360, Note_on_c, 14, 41, 95
15, 189500, Note_on_c, 14, 41, 0
15, 189840, Note_on_c, 14, 34, 95
15, 189972, Note_on_c, 14, 34, 0
15, 190320, Note_on_c, 14, 41, 95
15, 190476, Note_on_c, 14, 41, 0
15, 190800, Note_on_c, 14, 29, 95
15, 190930, Note_on_c, 14, 29, 0
15, 191280, Note_on_c, 14, 41, 95
15, 191394, Note_on_c, 14, 41, 0
15, 191760, Note_on_c, 14, 34, 127
15, 191866, Note_on_c, 14, 34, 0
15, 192240, Note_on_c, 14, 46, 127
15, 192390, Note_on_c, 14, 46, 0
15, 192720, Note_on_c, 14, 41, 127
15, 192860, Note_on_c, 14, 41, 0
15, 193200, Note_on_c, 14, 38, 127
15, 193332, Note_on_c, 14, 38, 0
15, 193680, Note_on_c, 14, 34, 127
15, 193846, Note_on_c, 14, 34, 0
15, 194160, Note_on_c, 14, 38, 127
15, 194282, Note_on_c, 14, 38, 0
15, 194640, Note_on_c, 14, 34, 127
15, 194776, Note_on_c, 14, 34, 0
15, 195120, Note_on_c, 14, 38, 127
15, 195244, Note_on_c, 14, 38, 0
15, 195600, Note_on_c, 14, 34, 127
15, 195744, Note_on_c, 14, 34, 0
15, 196080, Note_on_c, 14, 34, 127
15, 196342, Note_on_c, 14, 34, 0
15, 196560, Note_on_c, 14, 34, 127
15, 196744, Note_on_c, 14, 34, 0
15, 197040, Note_on_c, 14, 34, 127
15, 197196, Note_on_c, 14, 34, 0
15, 197520, Note_on_c, 14, 34, 127
15, 197764, Note_on_c, 14, 34, 0
15, 201840, Note_on_c, 14, 48, 89
15, 203606, Note_on_c, 14, 48, 0
15, 203988, Control_c, 14, 7, 106
15, 204000, Note_on_c, 14, 43, 127
15, 204004, Control_c, 14, 7, 105
15, 204068, Control_c, 14, 7, 103
15, 204256, Control_c, 14, 7, 97
15, 204324, Control_c, 14, 7, 96
15, 204388, Control_c, 14, 7, 97
15, 204416, Control_c, 14, 7, 95
15, 204444, Control_c, 14, 7, 94
15, 204468, Control_c, 14, 7, 93
15, 204588, Control_c, 14, 7, 91
15, 204656, Control_c, 14, 7, 90
15, 204724, Control_c, 14, 7, 88
15, 204736, Control_c, 14, 7, 87
15, 204764, Control_c, 14, 7, 82
15, 204828, Control_c, 14, 7, 77
15, 204896, Control_c, 14, 7, 76
15, 205016, Control_c, 14, 7, 66
15, 205084, Control_c, 14, 7, 65
15, 205284, Control_c, 14, 7, 64
15, 205348, Control_c, 14, 7, 63
15, 205364, Control_c, 14, 7, 62
15, 205388, Control_c, 14, 7, 57
15, 205456, Control_c, 14, 7, 55
15, 205524, Control_c, 14, 7, 56
15, 205548, Control_c, 14, 7, 55
15, 205564, Control_c, 14, 7, 54
15, 205588, Control_c, 14, 7, 53
15, 205724, Control_c, 14, 7, 48
15, 205736, Control_c, 14, 7, 47
15, 205804, Control_c, 14, 7, 46
15, 205868, Control_c, 14, 7, 47
15, 205936, Control_c, 14, 7, 42
15, 206188, Control_c, 14, 7, 41
15, 206324, Control_c, 14, 7, 36
15, 206444, Control_c, 14, 7, 35
15, 206508, Control_c, 14, 7, 30
15, 206548, Control_c, 14, 7, 29
15, 206564, Control_c, 14, 7, 24
15, 206644, Control_c, 14, 7, 22
15, 206708, Control_c, 14, 7, 17
15, 206776, Control_c, 14, 7, 16
15, 206964, Control_c, 14, 7, 11
15, 207096, Control_c, 14, 7, 10
15, 207404, Control_c, 14, 7, 9
15, 207428, Control_c, 14, 7, 8
15, 207576, Control_c, 14, 7, 7
15, 207644, Control_c, 14, 7, 4
15, 207656, Control_c, 14, 7, 5
15, 207668, Control_c, 14, 7, 0
15, 207780, Note_on_c, 14, 43, 0
15, 207804, Control_c, 14, 7, 11
15, 207816, Control_c, 14, 7, 76
15, 207828, Control_c, 14, 7, 102
15, 207844, Control_c, 14, 7, 99
15, 207856, Control_c, 14, 7, 98
15, 207908, Control_c, 14, 7, 92
15, 223440, Note_on_c, 14, 29, 48
15, 223476, Note_on_c, 14, 29, 0
15, 223560, Note_on_c, 14, 30, 48
15, 223596, Note_on_c, 14, 30, 0
15, 223680, Note_on_c, 14, 32, 48
15, 223716, Note_on_c, 14, 32, 0
15, 223800, Note_on_c, 14, 30, 48
15, 223836, Note_on_c, 14, 30, 0
15, 223920, Note_on_c, 14, 29, 48
15, 223956, Note_on_c, 14, 29, 0
15, 224400, Note_on_c, 14, 27, 48
15, 224436, Note_on_c, 14, 27, 0
15, 224520, Note_on_c, 14, 29, 48
15, 224556, Note_on_c, 14, 29, 0
15, 224640, Note_on_c, 14, 30, 48
15, 224676, Note_on_c, 14, 30, 0
15, 224760, Note_on_c, 14, 29, 48
15, 224796, Note_on_c, 14, 29, 0
15, 224880, Note_on_c, 14, 27, 48
15, 224916, Note_on_c, 14, 27, 0
15, 225360, Note_on_c, 14, 29, 48
15, 225396, Note_on_c, 14, 29, 0
15, 225480, Note_on_c, 14, 30, 48
15, 225516, Note_on_c, 14, 30, 0
15, 225600, Note_on_c, 14, 32, 48
15, 225636, Note_on_c, 14, 32, 0
15, 225720, Note_on_c, 14, 30, 48
15, 225756, Note_on_c, 14, 30, 0
15, 225840, Note_on_c, 14, 29, 48
15, 225876, Note_on_c, 14, 29, 0
15, 226320, Note_on_c, 14, 41, 48
15, 226356, Note_on_c, 14, 41, 0
15, 226440, Note_on_c, 14, 42, 48
15, 226476, Note_on_c, 14, 42, 0
15, 226560, Note_on_c, 14, 44, 48
15, 226596, Note_on_c, 14, 44, 0
15, 226680, Note_on_c, 14, 42, 48
15, 226716, Note_on_c, 14, 42, 0
15, 226800, Note_on_c, 14, 41, 48
15, 226836, Note_on_c, 14, 41, 0
15, 227040, Note_on_c, 14, 41, 48
15, 227076, Note_on_c, 14, 41, 0
15, 227160, Note_on_c, 14, 39, 48
15, 227196, Note_on_c, 14, 39, 0
15, 227280, Note_on_c, 14, 38, 48
15, 227316, Note_on_c, 14, 38, 0
15, 227520, Note_on_c, 14, 38, 48
15, 227556, Note_on_c, 14, 38, 0
15, 227640, Note_on_c, 14, 36, 48
15, 227676, Note_on_c, 14, 36, 0
15, 227760, Note_on_c, 14, 34, 48
15, 227796, Note_on_c, 14, 34, 0
15, 228240, Note_on_c, 14, 41, 48
15, 228276, Note_on_c, 14, 41, 0
15, 228360, Note_on_c, 14, 43, 48
15, 228396, Note_on_c, 14, 43, 0
15, 228480, Note_on_c, 14, 44, 45
15, 228516, Note_on_c, 14, 44, 0
15, 228600, Note_on_c, 14, 43, 46
15, 228636, Note_on_c, 14, 43, 0
15, 228720, Note_on_c, 14, 41, 48
15, 228756, Note_on_c, 14, 41, 0
15, 228960, Note_on_c, 14, 41, 50
15, 228996, Note_on_c, 14, 41, 0
15, 229080, Note_on_c, 14, 39, 52
15, 229116, Note_on_c, 14, 39, 0
15, 229200, Note_on_c, 14, 38, 53
15, 229236, Note_on_c, 14, 38, 0
15, 229440, Note_on_c, 14, 38, 56
15, 229476, Note_on_c, 14, 38, 0
15, 229560, Note_on_c, 14, 36, 57
15, 229596, Note_on_c, 14, 36, 0
15, 229680, Note_on_c, 14, 34, 58
15, 229716, Note_on_c, 14, 34, 0
15, 230160, Note_on_c, 14, 41, 64
15, 230196, Note_on_c, 14, 41, 0
15, 230280, Note_on_c, 14, 43, 65
15, 230316, Note_on_c, 14, 43, 0
15, 230400, Note_on_c, 14, 44, 66
15, 230436, Note_on_c, 14, 44, 0
15, 230520, Note_on_c, 14, 43, 68
15, 230556, Note_on_c, 14, 43, 0
15, 230640, Note_on_c, 14, 44, 69
15, 230676, Note_on_c, 14, 44, 0
15, 230760, Note_on_c, 14, 43, 70
15, 230796, Note_on_c, 14, 43, 0
15, 230880, Note_on_c, 14, 41, 72
15, 230916, Note_on_c, 14, 41, 0
15, 231000, Note_on_c, 14, 39, 73
15, 231036, Note_on_c, 14, 39, 0
15, 231120, Note_on_c, 14, 41, 74
15, 231156, Note_on_c, 14, 41, 0
15, 231240, Note_on_c, 14, 39, 76
15, 231276, Note_on_c, 14, 39, 0
15, 231360, Note_on_c, 14, 38, 77
15, 231396, Note_on_c, 14, 38, 0
15, 231480, Note_on_c, 14, 36, 78
15, 231516, Note_on_c, 14, 36, 0
15, 231600, Note_on_c, 14, 38, 80
15, 231636, Note_on_c, 14, 38, 0
15, 231720, Note_on_c, 14, 36, 81
15, 231756, Note_on_c, 14, 36, 0
15, 231840, Note_on_c, 14, 34, 82
15, 231876, Note_on_c, 14, 34, 0
15, 231960, Note_on_c, 14, 36, 84
15, 231996, Note_on_c, 14, 36, 0
15, 232080, Note_on_c, 14, 38, 85
15, 232116, Note_on_c, 14, 38, 0
15, 232200, Note_on_c, 14, 39, 86
15, 232236, Note_on_c, 14, 39, 0
15, 232320, Note_on_c, 14, 41, 88
15, 232356, Note_on_c, 14, 41, 0
15, 232440, Note_on_c, 14, 43, 89
15, 232476, Note_on_c, 14, 43, 0
15, 232560, Note_on_c, 14, 44, 90
15, 232596, Note_on_c, 14, 44, 0
15, 232680, Note_on_c, 14, 46, 92
15, 232716, Note_on_c, 14, 46, 0
15, 232800, Note_on_c, 14, 48, 93
15, 232836, Note_on_c, 14, 48, 0
15, 232920, Note_on_c, 14, 50, 94
15, 232956, Note_on_c, 14, 50, 0
15, 233040, Note_on_c, 14, 51, 96
15, 233076, Note_on_c, 14, 51, 0
15, 233160, Note_on_c, 14, 52, 97
15, 233196, Note_on_c, 14, 52, 0
15, 233280, Note_on_c, 14, 53, 127
15, 233316, Note_on_c, 14, 53, 0
15, 233400, Note_on_c, 14, 46, 127
15, 233436, Note_on_c, 14, 46, 0
15, 233520, Note_on_c, 14, 50, 127
15, 233556, Note_on_c, 14, 50, 0
15, 233640, Note_on_c, 14, 46, 127
15, 233676, Note_on_c, 14, 46, 0
15, 233760, Note_on_c, 14, 50, 127
15, 233796, Note_on_c, 14, 50, 0
15, 233880, Note_on_c, 14, 46, 127
15, 233916, Note_on_c, 14, 46, 0
15, 234000, Note_on_c, 14, 50, 127
15, 234036, Note_on_c, 14, 50, 0
15, 234120, Note_on_c, 14, 46, 127
15, 234156, Note_on_c, 14, 46, 0
15, 234240, Note_on_c, 14, 50, 127
15, 234276, Note_on_c, 14, 50, 0
15, 234360, Note_on_c, 14, 34, 127
15, 234396, Note_on_c, 14, 34, 0
15, 234480, Note_on_c, 14, 38, 127
15, 234516, Note_on_c, 14, 38, 0
15, 234600, Note_on_c, 14, 34, 127
15, 234636, Note_on_c, 14, 34, 0
15, 234720, Note_on_c, 14, 38, 127
15, 234756, Note_on_c, 14, 38, 0
15, 234840, Note_on_c, 14, 34, 127
15, 234876, Note_on_c, 14, 34, 0
15, 234960, Note_on_c, 14, 38, 127
15, 234996, Note_on_c, 14, 38, 0
15, 235080, Note_on_c, 14, 34, 127
15, 235116, Note_on_c, 14, 34, 0
15, 256320, Control_c, 14, 7, 100
15, 257280, Note_on_c, 14, 39, 71
15, 257402, Note_on_c, 14, 39, 0
15, 257760, Note_on_c, 14, 43, 71
15, 257902, Note_on_c, 14, 43, 0
15, 258240, Note_on_c, 14, 41, 71
15, 258380, Note_on_c, 14, 41, 0
15, 258720, Note_on_c, 14, 34, 71
15, 258840, Note_on_c, 14, 34, 0
15, 259200, Note_on_c, 14, 39, 95
15, 259330, Note_on_c, 14, 39, 0
15, 259680, Note_on_c, 14, 43, 95
15, 259790, Note_on_c, 14, 43, 0
15, 260160, Note_on_c, 14, 46, 95
15, 260244, Note_on_c, 14, 46, 0
15, 260640, Note_on_c, 14, 34, 95
15, 260740, Note_on_c, 14, 34, 0
15, 261120, Note_on_c, 14, 39, 95
15, 261244, Note_on_c, 14, 39, 0
15, 261600, Note_on_c, 14, 43, 95
15, 261774, Note_on_c, 14, 43, 0
15, 262080, Note_on_c, 14, 41, 95
15, 262222, Note_on_c, 14, 41, 0
15, 262560, Note_on_c, 14, 34, 95
15, 262700, Note_on_c, 14, 34, 0
15, 263040, Note_on_c, 14, 39, 95
15, 263180, Note_on_c, 14, 39, 0
15, 263520, Note_on_c, 14, 43, 95
15, 263670, Note_on_c, 14, 43, 0
15, 264000, Note_on_c, 14, 44, 95
15, 264140, Note_on_c, 14, 44, 0
15, 264480, Note_on_c, 14, 41, 95
15, 264596, Note_on_c, 14, 41, 0
15, 264960, Note_on_c, 14, 43, 127
15, 265100, Note_on_c, 14, 43, 0
15, 265440, Note_on_c, 14, 46, 127
15, 265556, Note_on_c, 14, 46, 0
15, 265920, Note_on_c, 14, 48, 127
15, 266044, Note_on_c, 14, 48, 0
15, 266400, Note_on_c, 14, 32, 127
15, 266522, Note_on_c, 14, 32, 0
15, 266880, Note_on_c, 14, 34, 127
15, 266990, Note_on_c, 14, 34, 0
15, 267360, Note_on_c, 14, 38, 127
15, 267490, Note_on_c, 14, 38, 0
15, 267840, Note_on_c, 14, 39, 127
15, 267962, Note_on_c, 14, 39, 0
15, 268320, Note_on_c, 14, 34, 127
15, 268436, Note_on_c, 14, 34, 0
15, 268800, Note_on_c, 14, 40, 127
15, 268936, Note_on_c, 14, 40, 0
15, 269280, Note_on_c, 14, 34, 127
15, 269400, Note_on_c, 14, 34, 0
15, 269760, Note_on_c, 14, 41, 127
15, 269892, Note_on_c, 14, 41, 0
15, 270240, Note_on_c, 14, 34, 127
15, 270322, Note_on_c, 14, 34, 0
15, 270720, Note_on_c, 14, 44, 127
15, 270850, Note_on_c, 14, 44, 0
15, 271200, Note_on_c, 14, 34, 127
15, 271300, Note_on_c, 14, 34, 0
15, 271680, Note_on_c, 14, 46, 127
15, 271812, Note_on_c, 14, 46, 0
15, 272160, Note_on_c, 14, 34, 127
15, 272256, Note_on_c, 14, 34, 0
15, 272640, Note_on_c, 14, 50, 127
15, 272772, Note_on_c, 14, 50, 0
15, 273120, Note_on_c, 14, 34, 127
15, 273236, Note_on_c, 14, 34, 0
15, 273600, Note_on_c, 14, 53, 127
15, 273694, Note_on_c, 14, 53, 0
15, 273840, Note_on_c, 14, 34, 127
15, 273942, Note_on_c, 14, 34, 0
15, 274080, Note_on_c, 14, 34, 127
15, 274156, Note_on_c, 14, 34, 0
15, 274320, Note_on_c, 14, 34, 127
15, 274392, Note_on_c, 14, 34, 0
15, 274560, Note_on_c, 14, 34, 127
15, 274656, Note_on_c, 14, 34, 0
15, 274800, Note_on_c, 14, 34, 127
15, 274892, Note_on_c, 14, 34, 0
15, 275040, Note_on_c, 14, 34, 127
15, 275124, Note_on_c, 14, 34, 0
15, 275280, Note_on_c, 14, 34, 127
15, 275360, Note_on_c, 14, 34, 0
15, 275520, Note_on_c, 14, 34, 127
15, 275602, Note_on_c, 14, 34, 0
15, 275760, Note_on_c, 14, 34, 127
15, 275856, Note_on_c, 14, 34, 0
15, 276000, Note_on_c, 14, 34, 127
15, 276086, Note_on_c, 14, 34, 0
15, 276240, Note_on_c, 14, 34, 127
15, 276320, Note_on_c, 14, 34, 0
15, 276480, Note_on_c, 14, 34, 127
15, 276564, Note_on_c, 14, 34, 0
15, 276720, Note_on_c, 14, 34, 127
15, 276796, Note_on_c, 14, 34, 0
15, 276960, Note_on_c, 14, 34, 127
15, 277030, Note_on_c, 14, 34, 0
15, 277200, Note_on_c, 14, 34, 127
15, 277270, Note_on_c, 14, 34, 0
15, 277440, Note_on_c, 14, 39, 127
15, 277550, Note_on_c, 14, 39, 0
15, 277680, Note_on_c, 14, 39, 127
15, 277776, Note_on_c, 14, 39, 0
15, 277920, Note_on_c, 14, 39, 127
15, 278022, Note_on_c, 14, 39, 0
15, 278160, Note_on_c, 14, 39, 127
15, 278262, Note_on_c, 14, 39, 0
15, 278400, Note_on_c, 14, 39, 127
15, 278496, Note_on_c, 14, 39, 0
15, 278640, Note_on_c, 14, 39, 127
15, 278730, Note_on_c, 14, 39, 0
15, 278880, Note_on_c, 14, 39, 127
15, 279000, Note_on_c, 14, 39, 0
15, 279120, Note_on_c, 14, 39, 127
15, 279206, Note_on_c, 14, 39, 0
15, 279360, Note_on_c, 14, 39, 127
15, 279446, Note_on_c, 14, 39, 0
15, 279600, Note_on_c, 14, 39, 127
15, 279690, Note_on_c, 14, 39, 0
15, 279840, Note_on_c, 14, 39, 127
15, 279914, Note_on_c, 14, 39, 0
15, 280080, Note_on_c, 14, 39, 127
15, 280166, Note_on_c, 14, 39, 0
15, 280320, Note_on_c, 14, 39, 127
15, 280412, Note_on_c, 14, 39, 0
15, 280560, Note_on_c, 14, 39, 118
15, 280634, Note_on_c, 14, 39, 0
15, 280800, Note_on_c, 14, 39, 126
15, 280870, Note_on_c, 14, 39, 0
15, 281040, Note_on_c, 14, 39, 116
15, 281110, Note_on_c, 14, 39, 0
15, 281280, Note_on_c, 14, 39, 127
15, 281372, Note_on_c, 14, 39, 0
15, 281520, Note_on_c, 14, 39, 127
15, 281594, Note_on_c, 14, 39, 0
15, 281760, Note_on_c, 14, 39, 127
15, 281842, Note_on_c, 14, 39, 0
15, 282000, Note_on_c, 14, 39, 127
15, 282072, Note_on_c, 14, 39, 0
15, 282240, Note_on_c, 14, 39, 127
15, 282332, Note_on_c, 14, 39, 0
15, 282480, Note_on_c, 14, 39, 127
15, 282556, Note_on_c, 14, 39, 0
15, 282720, Note_on_c, 14, 39, 122
15, 282794, Note_on_c, 14, 39, 0
15, 282960, Note_on_c, 14, 39, 120
15, 283040, Note_on_c, 14, 39, 0
15, 283200, Note_on_c, 14, 39, 127
15, 283310, Note_on_c, 14, 39, 0
15, 283440, Note_on_c, 14, 39, 124
15, 283520, Note_on_c, 14, 39, 0
15, 283680, Note_on_c, 14, 39, 114
15, 283760, Note_on_c, 14, 39, 0
15, 283920, Note_on_c, 14, 39, 116
15, 283994, Note_on_c, 14, 39, 0
15, 284160, Note_on_c, 14, 39, 127
15, 284232, Note_on_c, 14, 39, 0
15, 284400, Note_on_c, 14, 39, 127
15, 284476, Note_on_c, 14, 39, 0
15, 284640, Note_on_c, 14, 39, 127
15, 284720, Note_on_c, 14, 39, 0
15, 284880, Note_on_c, 14, 39, 127
15, 284952, Note_on_c, 14, 39, 0
15, 285120, Note_on_c, 14, 39, 127
15, 285254, Note_on_c, 14, 39, 0
15, 285360, Note_on_c, 14, 39, 116
15, 285442, Note_on_c, 14, 39, 0
15, 285600, Note_on_c, 14, 39, 122
15, 285672, Note_on_c, 14, 39, 0
15, 285840, Note_on_c, 14, 39, 127
15, 285920, Note_on_c, 14, 39, 0
15, 286080, Note_on_c, 14, 39, 127
15, 286202, Note_on_c, 14, 39, 0
15, 286320, Note_on_c, 14, 39, 122
15, 286402, Note_on_c, 14, 39, 0
15, 286560, Note_on_c, 14, 39, 116
15, 286640, Note_on_c, 14, 39, 0
15, 286800, Note_on_c, 14, 39, 122
15, 286882, Note_on_c, 14, 39, 0
15, 287040, Note_on_c, 14, 39, 127
15, 287152, Note_on_c, 14, 39, 0
15, 287280, Note_on_c, 14, 39, 127
15, 287364, Note_on_c, 14, 39, 0
15, 287520, Note_on_c, 14, 39, 127
15, 287606, Note_on_c, 14, 39, 0
15, 287760, Note_on_c, 14, 39, 127
15, 287854, Note_on_c, 14, 39, 0
15, 288000, Note_on_c, 14, 39, 127
15, 288160, Note_on_c, 14, 39, 0
15, 288480, Note_on_c, 14, 43, 127
15, 288614, Note_on_c, 14, 43, 0
15, 288960, Note_on_c, 14, 36, 127
15, 289112, Note_on_c, 14, 36, 0
15, 289440, Note_on_c, 14, 39, 127
15, 289554, Note_on_c, 14, 39, 0
15, 289920, Note_on_c, 14, 32, 127
15, 290020, Note_on_c, 14, 32, 0
15, 290400, Note_on_c, 14, 36, 127
15, 290540, Note_on_c, 14, 36, 0
15, 290880, Note_on_c, 14, 29, 127
15, 291144, Note_on_c, 14, 29, 0
15, 291840, Note_on_c, 14, 41, 127
15, 291996, Note_on_c, 14, 41, 0
15, 292320, Note_on_c, 14, 44, 127
15, 292406, Note_on_c, 14, 44, 0
15, 292800, Note_on_c, 14, 38, 127
15, 292886, Note_on_c, 14, 38, 0
15, 293280, Note_on_c, 14, 41, 127
15, 293436, Note_on_c, 14, 41, 0
15, 293760, Note_on_c, 14, 34, 127
15, 293884, Note_on_c, 14, 34, 0
15, 294240, Note_on_c, 14, 38, 127
15, 294354, Note_on_c, 14, 38, 0
15, 294720, Note_on_c, 14, 31, 127
15, 294972, Note_on_c, 14, 31, 0
15, 295680, Note_on_c, 14, 43, 127
15, 295802, Note_on_c, 14, 43, 0
15, 296160, Note_on_c, 14, 46, 127
15, 296262, Note_on_c, 14, 46, 0
15, 296640, Note_on_c, 14, 39, 127
15, 296776, Note_on_c, 14, 39, 0
15, 297120, Note_on_c, 14, 43, 127
15, 297256, Note_on_c, 14, 43, 0
15, 297600, Note_on_c, 14, 36, 127
15, 297752, Note_on_c, 14, 36, 0
15, 298080, Note_on_c, 14, 39, 127
15, 298216, Note_on_c, 14, 39, 0
15, 298560, Note_on_c, 14, 33, 127
15, 298686, Note_on_c, 14, 33, 0
15, 299040, Note_on_c, 14, 36, 127
15, 299162, Note_on_c, 14, 36, 0
15, 299520, Note_on_c, 14, 34, 127
15, 299666, Note_on_c, 14, 34, 0
15, 300000, Note_on_c, 14, 34, 127
15, 300152, Note_on_c, 14, 34, 0
15, 300480, Note_on_c, 14, 39, 127
15, 300636, Note_on_c, 14, 39, 0
15, 300960, Note_on_c, 14, 39, 127
15, 301110, Note_on_c, 14, 39, 0
15, 301440, Note_on_c, 14, 34, 127
15, 301636, Note_on_c, 14, 34, 0
15, 301680, Note_on_c, 14, 46, 127
15, 301762, Note_on_c, 14, 46, 0
15, 301920, Note_on_c, 14, 46, 127
15, 302000, Note_on_c, 14, 46, 0
15, 302160, Note_on_c, 14, 46, 127
15, 302256, Note_on_c, 14, 46, 0
15, 302400, Note_on_c, 14, 48, 127
15, 302640, Note_on_c, 14, 46, 127
15, 302644, Note_on_c, 14, 48, 0
15, 302736, Note_on_c, 14, 46, 0
15, 302880, Note_on_c, 14, 43, 127
15, 302986, Note_on_c, 14, 43, 0
15, 303120, Note_on_c, 14, 39, 127
15, 303226, Note_on_c, 14, 39, 0
15, 303360, Note_on_c, 14, 34, 127
15, 303636, Note_on_c, 14, 34, 0
15, 303840, Note_on_c, 14, 34, 127
15, 304074, Note_on_c, 14, 34, 0
15, 304320, Note_on_c, 14, 39, 127
15, 304532, Note_on_c, 14, 39, 0
15, 304800, Note_on_c, 14, 39, 127
15, 305010, Note_on_c, 14, 39, 0
15, 305280, Note_on_c, 14, 34, 127
15, 305446, Note_on_c, 14, 34, 0
15, 305520, Note_on_c, 14, 46, 124
15, 305602, Note_on_c, 14, 46, 0
15, 305760, Note_on_c, 14, 46, 127
15, 305826, Note_on_c, 14, 46, 0
15, 306000, Note_on_c, 14, 46, 127
15, 306086, Note_on_c, 14, 46, 0
15, 306240, Note_on_c, 14, 48, 127
15, 306474, Note_on_c, 14, 48, 0
15, 306480, Note_on_c, 14, 46, 127
15, 306576, Note_on_c, 14, 46, 0
15, 306720, Note_on_c, 14, 43, 127
15, 306826, Note_on_c, 14, 43, 0
15, 306960, Note_on_c, 14, 39, 127
15, 307070, Note_on_c, 14, 39, 0
15, 307200, Note_on_c, 14, 34, 127
15, 307444, Note_on_c, 14, 34, 0
15, 326400, Note_on_c, 14, 51, 77
15, 327254, Note_on_c, 14, 51, 0
15, 327360, Note_on_c, 14, 46, 77
15, 328176, Note_on_c, 14, 46, 0
15, 328320, Note_on_c, 14, 48, 77
15, 329184, Note_on_c, 14, 48, 0
15, 329280, Note_on_c, 14, 43, 77
15, 330154, Note_on_c, 14, 43, 0
15, 330240, Note_on_c, 14, 44, 71
15, 330374, Note_on_c, 14, 44, 0
15, 330720, Note_on_c, 14, 43, 71
15, 330850, Note_on_c, 14, 43, 0
15, 331200, Note_on_c, 14, 41, 71
15, 331326, Note_on_c, 14, 41, 0
15, 331680, Note_on_c, 14, 39, 71
15, 331812, Note_on_c, 14, 39, 0
15, 332160, Note_on_c, 14, 38, 71
15, 332280, Note_on_c, 14, 38, 0
15, 332640, Note_on_c, 14, 39, 71
15, 332740, Note_on_c, 14, 39, 0
15, 333120, Note_on_c, 14, 46, 71
15, 333244, Note_on_c, 14, 46, 0
15, 333600, Note_on_c, 14, 34, 71
15, 333700, Note_on_c, 14, 34, 0
15, 334080, Note_on_c, 14, 39, 127
15, 334184, Note_on_c, 14, 39, 0
15, 334560, Note_on_c, 14, 51, 127
15, 334692, Note_on_c, 14, 51, 0
15, 335040, Note_on_c, 14, 46, 127
15, 335166, Note_on_c, 14, 46, 0
15, 335520, Note_on_c, 14, 34, 118
15, 335656, Note_on_c, 14, 34, 0
15, 336000, Note_on_c, 14, 36, 127
15, 336132, Note_on_c, 14, 36, 0
15, 336480, Note_on_c, 14, 48, 127
15, 336570, Note_on_c, 14, 48, 0
15, 336960, Note_on_c, 14, 43, 127
15, 337080, Note_on_c, 14, 43, 0
15, 337440, Note_on_c, 14, 31, 127
15, 337572, Note_on_c, 14, 31, 0
15, 337920, Note_on_c, 14, 32, 45
15, 338136, Note_on_c, 14, 32, 0
15, 338400, Note_on_c, 14, 44, 45
15, 338616, Note_on_c, 14, 44, 0
15, 338880, Note_on_c, 14, 32, 45
15, 339096, Note_on_c, 14, 32, 0
15, 339360, Note_on_c, 14, 32, 45
15, 339576, Note_on_c, 14, 32, 0
15, 339840, Note_on_c, 14, 31, 45
15, 339984, Note_on_c, 14, 31, 0
15, 340320, Note_on_c, 14, 43, 45
15, 340464, Note_on_c, 14, 43, 0
15, 340800, Note_on_c, 14, 31, 45
15, 340944, Note_on_c, 14, 31, 0
15, 341280, Note_on_c, 14, 31, 45
15, 341424, Note_on_c, 14, 31, 0
15, 341760, Note_on_c, 14, 31, 45
15, 341904, Note_on_c, 14, 31, 0
15, 342240, Note_on_c, 14, 43, 45
15, 342384, Note_on_c, 14, 43, 0
15, 342720, Note_on_c, 14, 31, 45
15, 342864, Note_on_c, 14, 31, 0
15, 343200, Note_on_c, 14, 31, 45
15, 343344, Note_on_c, 14, 31, 0
15, 343680, Note_on_c, 14, 31, 45
15, 343824, Note_on_c, 14, 31, 0
15, 344160, Note_on_c, 14, 43, 45
15, 344304, Note_on_c, 14, 43, 0
15, 344640, Note_on_c, 14, 31, 45
15, 344784, Note_on_c, 14, 31, 0
15, 345120, Note_on_c, 14, 31, 45
15, 345264, Note_on_c, 14, 31, 0
15, 345600, Note_on_c, 14, 36, 67
15, 345704, Note_on_c, 14, 36, 0
15, 345840, Note_on_c, 14, 39, 67
15, 345924, Note_on_c, 14, 39, 0
15, 346080, Note_on_c, 14, 44, 67
15, 346174, Note_on_c, 14, 44, 0
15, 346320, Note_on_c, 14, 43, 67
15, 346430, Note_on_c, 14, 43, 0
15, 346560, Note_on_c, 14, 41, 67
15, 346666, Note_on_c, 14, 41, 0
15, 346800, Note_on_c, 14, 39, 67
15, 346892, Note_on_c, 14, 39, 0
15, 347040, Note_on_c, 14, 38, 67
15, 347150, Note_on_c, 14, 38, 0
15, 347280, Note_on_c, 14, 36, 67
15, 347372, Note_on_c, 14, 36, 0
15, 347520, Note_on_c, 14, 38, 76
15, 347634, Note_on_c, 14, 38, 0
15, 347760, Note_on_c, 14, 41, 76
15, 347866, Note_on_c, 14, 41, 0
15, 348000, Note_on_c, 14, 46, 76
15, 348116, Note_on_c, 14, 46, 0
15, 348240, Note_on_c, 14, 44, 76
15, 348346, Note_on_c, 14, 44, 0
15, 348480, Note_on_c, 14, 43, 76
15, 348596, Note_on_c, 14, 43, 0
15, 348720, Note_on_c, 14, 41, 76
15, 348840, Note_on_c, 14, 41, 0
15, 348960, Note_on_c, 14, 39, 76
15, 349060, Note_on_c, 14, 39, 0
15, 349200, Note_on_c, 14, 38, 76
15, 349322, Note_on_c, 14, 38, 0
15, 349440, Note_on_c, 14, 39, 86
15, 349532, Note_on_c, 14, 39, 0
15, 349680, Note_on_c, 14, 43, 86
15, 349774, Note_on_c, 14, 43, 0
15, 349920, Note_on_c, 14, 48, 86
15, 350026, Note_on_c, 14, 48, 0
15, 350160, Note_on_c, 14, 46, 86
15, 350260, Note_on_c, 14, 46, 0
15, 350400, Note_on_c, 14, 44, 114
15, 350484, Note_on_c, 14, 44, 0
15, 350640, Note_on_c, 14, 43, 103
15, 350752, Note_on_c, 14, 43, 0
15, 350880, Note_on_c, 14, 41, 114
15, 350986, Note_on_c, 14, 41, 0
15, 351120, Note_on_c, 14, 39, 114
15, 351214, Note_on_c, 14, 39, 0
15, 351360, Note_on_c, 14, 38, 127
15, 351474, Note_on_c, 14, 38, 0
15, 351600, Note_on_c, 14, 41, 127
15, 351692, Note_on_c, 14, 41, 0
15, 351840, Note_on_c, 14, 46, 127
15, 351960, Note_on_c, 14, 46, 0
15, 352080, Note_on_c, 14, 44, 127
15, 352176, Note_on_c, 14, 44, 0
15, 352320, Note_on_c, 14, 43, 127
15, 352436, Note_on_c, 14, 43, 0
15, 352560, Note_on_c, 14, 41, 127
15, 352662, Note_on_c, 14, 41, 0
15, 352800, Note_on_c, 14, 39, 127
15, 352892, Note_on_c, 14, 39, 0
15, 353040, Note_on_c, 14, 38, 127
15, 353164, Note_on_c, 14, 38, 0
15, 353280, Note_on_c, 14, 39, 127
15, 353464, Note_on_c, 14, 39, 0
15, 353760, Note_on_c, 14, 31, 127
15, 353912, Note_on_c, 14, 31, 0
15, 354720, Note_on_c, 14, 31, 127
15, 354856, Note_on_c, 14, 31, 0
15, 355680, Note_on_c, 14, 31, 127
15, 355830, Note_on_c, 14, 31, 0
15, 356640, Note_on_c, 14, 31, 127
15, 356804, Note_on_c, 14, 31, 0
15, 357600, Note_on_c, 14, 32, 127
15, 357740, Note_on_c, 14, 32, 0
15, 358560, Note_on_c, 14, 32, 127
15, 358692, Note_on_c, 14, 32, 0
15, 359520, Note_on_c, 14, 32, 127
15, 359626, Note_on_c, 14, 32, 0
15, 360480, Note_on_c, 14, 32, 127
15, 360596, Note_on_c, 14, 32, 0
15, 360960, Note_on_c, 14, 34, 95
15, 361070, Note_on_c, 14, 34, 0
15, 361440, Note_on_c, 14, 46, 95
15, 361576, Note_on_c, 14, 46, 0
15, 361920, Note_on_c, 14, 46, 95
15, 362054, Note_on_c, 14, 46, 0
15, 362400, Note_on_c, 14, 46, 95
15, 362544, Note_on_c, 14, 46, 0
15, 362880, Note_on_c, 14, 46, 95
15, 363022, Note_on_c, 14, 46, 0
15, 363360, Note_on_c, 14, 46, 95
15, 363510, Note_on_c, 14, 46, 0
15, 363840, Note_on_c, 14, 44, 95
15, 363982, Note_on_c, 14, 44, 0
15, 364320, Note_on_c, 14, 44, 95
15, 364462, Note_on_c, 14, 44, 0
15, 364800, Note_on_c, 14, 43, 95
15, 364920, Note_on_c, 14, 43, 0
15, 365280, Note_on_c, 14, 31, 95
15, 365440, Note_on_c, 14, 31, 0
15, 366240, Note_on_c, 14, 31, 95
15, 366370, Note_on_c, 14, 31, 0
15, 367200, Note_on_c, 14, 31, 95
15, 367336, Note_on_c, 14, 31, 0
15, 368160, Note_on_c, 14, 31, 95
15, 368300, Note_on_c, 14, 31, 0
15, 369120, Note_on_c, 14, 32, 95
15, 369266, Note_on_c, 14, 32, 0
15, 370080, Note_on_c, 14, 32, 95
15, 370216, Note_on_c, 14, 32, 0
15, 371040, Note_on_c, 14, 32, 95
15, 371162, Note_on_c, 14, 32, 0
15, 372000, Note_on_c, 14, 32, 95
15, 372110, Note_on_c, 14, 32, 0
15, 372960, Note_on_c, 14, 34, 95
15, 373106, Note_on_c, 14, 34, 0
15, 373920, Note_on_c, 14, 34, 95
15, 374056, Note_on_c, 14, 34, 0
15, 374880, Note_on_c, 14, 34, 95
15, 375002, Note_on_c, 14, 34, 0
15, 375840, Note_on_c, 14, 34, 95
15, 375950, Note_on_c, 14, 34, 0
15, 376800, Note_on_c, 14, 36, 95
15, 376922, Note_on_c, 14, 36, 0
15, 377760, Note_on_c, 14, 36, 95
15, 377870, Note_on_c, 14, 36, 0
15, 378720, Note_on_c, 14, 36, 95
15, 378842, Note_on_c, 14, 36, 0
15, 379680, Note_on_c, 14, 36, 95
15, 379790, Note_on_c, 14, 36, 0
15, 380640, Note_on_c, 14, 38, 95
15, 380762, Note_on_c, 14, 38, 0
15, 381600, Note_on_c, 14, 38, 95
15, 381710, Note_on_c, 14, 38, 0
15, 382560, Note_on_c, 14, 38, 95
15, 382682, Note_on_c, 14, 38, 0
15, 383520, Note_on_c, 14, 38, 95
15, 383630, Note_on_c, 14, 38, 0
15, 384480, Note_on_c, 14, 38, 95
15, 384590, Note_on_c, 14, 38, 0
15, 385440, Note_on_c, 14, 38, 95
15, 385550, Note_on_c, 14, 38, 0
15, 385920, Note_on_c, 14, 38, 95
15, 386030, Note_on_c, 14, 38, 0
15, 386400, Note_on_c, 14, 38, 95
15, 386510, Note_on_c, 14, 38, 0
15, 386880, Note_on_c, 14, 38, 95
15, 386990, Note_on_c, 14, 38, 0
15, 387360, Note_on_c, 14, 38, 95
15, 387470, Note_on_c, 14, 38, 0
15, 387840, Note_on_c, 14, 38, 95
15, 389760, Note_on_c, 14, 38, 0
15, 394320, Note_on_c, 14, 29, 40
15, 394368, Note_on_c, 14, 29, 0
15, 394440, Note_on_c, 14, 31, 40
15, 394488, Note_on_c, 14, 31, 0
15, 394560, Note_on_c, 14, 32, 40
15, 394608, Note_on_c, 14, 32, 0
15, 394680, Note_on_c, 14, 31, 40
15, 394728, Note_on_c, 14, 31, 0
15, 394800, Note_on_c, 14, 29, 40
15, 394848, Note_on_c, 14, 29, 0
15, 395280, Note_on_c, 14, 29, 40
15, 395328, Note_on_c, 14, 29, 0
15, 395400, Note_on_c, 14, 31, 40
15, 395448, Note_on_c, 14, 31, 0
15, 395520, Note_on_c, 14, 32, 40
15, 395592, Note_on_c, 14, 32, 0
15, 395760, Note_on_c, 14, 31, 40
15, 395832, Note_on_c, 14, 31, 0
15, 396000, Note_on_c, 14, 29, 40
15, 396072, Note_on_c, 14, 29, 0
15, 396480, Note_on_c, 14, 32, 44
15, 396552, Note_on_c, 14, 32, 0
15, 396720, Note_on_c, 14, 31, 44
15, 396792, Note_on_c, 14, 31, 0
15, 396960, Note_on_c, 14, 29, 44
15, 397032, Note_on_c, 14, 29, 0
15, 397440, Note_on_c, 14, 32, 48
15, 397512, Note_on_c, 14, 32, 0
15, 397680, Note_on_c, 14, 31, 48
15, 397752, Note_on_c, 14, 31, 0
15, 397920, Note_on_c, 14, 29, 48
15, 397992, Note_on_c, 14, 29, 0
15, 398400, Note_on_c, 14, 32, 53
15, 398472, Note_on_c, 14, 32, 0
15, 398640, Note_on_c, 14, 31, 53
15, 398712, Note_on_c, 14, 31, 0
15, 398880, Note_on_c, 14, 29, 53
15, 398952, Note_on_c, 14, 29, 0
15, 399360, Note_on_c, 14, 32, 53
15, 399432, Note_on_c, 14, 32, 0
15, 399600, Note_on_c, 14, 31, 53
15, 399672, Note_on_c, 14, 31, 0
15, 399840, Note_on_c, 14, 29, 53
15, 399912, Note_on_c, 14, 29, 0
15, 400080, Note_on_c, 14, 31, 53
15, 400152, Note_on_c, 14, 31, 0
15, 400320, Note_on_c, 14, 32, 61
15, 400392, Note_on_c, 14, 32, 0
15, 400560, Note_on_c, 14, 34, 61
15, 400632, Note_on_c, 14, 34, 0
15, 400800, Note_on_c, 14, 36, 61
15, 400872, Note_on_c, 14, 36, 0
15, 401040, Note_on_c, 14, 38, 61
15, 401112, Note_on_c, 14, 38, 0
15, 401280, Note_on_c, 14, 39, 35
15, 402048, Note_on_c, 14, 39, 0
15, 402240, Note_on_c, 14, 36, 46
15, 403008, Note_on_c, 14, 36, 0
15, 403200, Note_on_c, 14, 34, 50
15, 403968, Note_on_c, 14, 34, 0
15, 404160, Note_on_c, 14, 43, 60
15, 404928, Note_on_c, 14, 43, 0
15, 405120, Note_on_c, 14, 41, 70
15, 405888, Note_on_c, 14, 41, 0
15, 406080, Note_on_c, 14, 38, 80
15, 406848, Note_on_c, 14, 38, 0
15, 407040, Note_on_c, 14, 36, 90
15, 407136, Note_on_c, 14, 36, 0
15, 407280, Note_on_c, 14, 36, 93
15, 407376, Note_on_c, 14, 36, 0
15, 407520, Note_on_c, 14, 32, 95
15, 407616, Note_on_c, 14, 32, 0
15, 407760, Note_on_c, 14, 32, 98
15, 407856, Note_on_c, 14, 32, 0
15, 408000, Note_on_c, 14, 31, 100
15, 408096, Note_on_c, 14, 31, 0
15, 408240, Note_on_c, 14, 43, 103
15, 408336, Note_on_c, 14, 43, 0
15, 408480, Note_on_c, 14, 43, 105
15, 408576, Note_on_c, 14, 43, 0
15, 408720, Note_on_c, 14, 43, 108
15, 408816, Note_on_c, 14, 43, 0
15, 408960, Note_on_c, 14, 43, 105
15, 409056, Note_on_c, 14, 43, 0
15, 409200, Note_on_c, 14, 43, 108
15, 409296, Note_on_c, 14, 43, 0
15, 409440, Note_on_c, 14, 43, 105
15, 409536, Note_on_c, 14, 43, 0
15, 409680, Note_on_c, 14, 43, 108
15, 409776, Note_on_c, 14, 43, 0
15, 409920, Note_on_c, 14, 43, 105
15, 410016, Note_on_c, 14, 43, 0
15, 410160, Note_on_c, 14, 43, 108
15, 410256, Note_on_c, 14, 43, 0
15, 410400, Note_on_c, 14, 31, 105
15, 410496, Note_on_c, 14, 31, 0
15, 410640, Note_on_c, 14, 31, 108
15, 410736, Note_on_c, 14, 31, 0
15, 410880, Note_on_c, 14, 36, 80
15, 412290, Note_on_c, 14, 36, 0
15, 412320, Note_on_c, 14, 31, 80
15, 412416, Note_on_c, 14, 31, 0
15, 412560, Note_on_c, 14, 31, 80
15, 412656, Note_on_c, 14, 31, 0
15, 412800, Note_on_c, 14, 36, 80
15, 414210, Note_on_c, 14, 36, 0
15, 414240, Note_on_c, 14, 31, 80
15, 414336, Note_on_c, 14, 31, 0
15, 414480, Note_on_c, 14, 31, 80
15, 414576, Note_on_c, 14, 31, 0
15, 414720, Note_on_c, 14, 36, 80
15, 416130, Note_on_c, 14, 36, 0
15, 416160, Note_on_c, 14, 31, 80
15, 416256, Note_on_c, 14, 31, 0
15, 416400, Note_on_c, 14, 31, 80
15, 416496, Note_on_c, 14, 31, 0
15, 416640, Note_on_c, 14, 36, 80
15, 416736, Note_on_c, 14, 36, 0
15, 416880, Note_on_c, 14, 36, 80
15, 416976, Note_on_c, 14, 36, 0
15, 417120, Note_on_c, 14, 36, 120
15, 417216, Note_on_c, 14, 36, 0
15, 417360, Note_on_c, 14, 36, 120
15, 417456, Note_on_c, 14, 36, 0
15, 417600, Note_on_c, 14, 36, 120
15, 417696, Note_on_c, 14, 36, 0
15, 417840, Note_on_c, 14, 36, 120
15, 417936, Note_on_c, 14, 36, 0
15, 418080, Note_on_c, 14, 36, 120
15, 418176, Note_on_c, 14, 36, 0
15, 418320, Note_on_c, 14, 36, 120
15, 418416, Note_on_c, 14, 36, 0
15, 418560, Note_on_c, 14, 34, 120
15, 419970, Note_on_c, 14, 34, 0
15, 420000, Note_on_c, 14, 34, 80
15, 420096, Note_on_c, 14, 34, 0
15, 420240, Note_on_c, 14, 34, 80
15, 420336, Note_on_c, 14, 34, 0
15, 420480, Note_on_c, 14, 39, 80
15, 421890, Note_on_c, 14, 39, 0
15, 421920, Note_on_c, 14, 34, 80
15, 422016, Note_on_c, 14, 34, 0
15, 422160, Note_on_c, 14, 34, 80
15, 422256, Note_on_c, 14, 34, 0
15, 422400, Note_on_c, 14, 39, 80
15, 423810, Note_on_c, 14, 39, 0
15, 423840, Note_on_c, 14, 34, 80
15, 423936, Note_on_c, 14, 34, 0
15, 424080, Note_on_c, 14, 34, 80
15, 424176, Note_on_c, 14, 34, 0
15, 424320, Note_on_c, 14, 39, 80
15, 425730, Note_on_c, 14, 39, 0
15, 425760, Note_on_c, 14, 34, 80
15, 425856, Note_on_c, 14, 34, 0
15, 426000, Note_on_c, 14, 34, 80
15, 426096, Note_on_c, 14, 34, 0
15, 426240, Note_on_c, 14, 39, 80
15, 427650, Note_on_c, 14, 39, 0
15, 427680, Note_on_c, 14, 34, 80
15, 427776, Note_on_c, 14, 34, 0
15, 427920, Note_on_c, 14, 34, 80
15, 428016, Note_on_c, 14, 34, 0
15, 428160, Note_on_c, 14, 39, 127
15, 428264, Note_on_c, 14, 39, 0
15, 428400, Note_on_c, 14, 39, 127
15, 428724, Note_on_c, 14, 39, 0
15, 428880, Note_on_c, 14, 39, 127
15, 429048, Note_on_c, 14, 39, 0
15, 429120, Note_on_c, 14, 39, 127
15, 429934, Note_on_c, 14, 39, 0
15, 430080, Note_on_c, 14, 32, 127
15, 430184, Note_on_c, 14, 32, 0
15, 430320, Note_on_c, 14, 32, 127
15, 430644, Note_on_c, 14, 32, 0
15, 430800, Note_on_c, 14, 32, 127
15, 430968, Note_on_c, 14, 32, 0
15, 431040, Note_on_c, 14, 32, 127
15, 431854, Note_on_c, 14, 32, 0
15, 432000, Note_on_c, 14, 29, 127
15, 432240, Note_on_c, 14, 29, 0
15, 432240, Note_on_c, 14, 29, 127
15, 432360, Note_on_c, 14, 29, 0
15, 432480, Note_on_c, 14, 29, 127
15, 432840, Note_on_c, 14, 29, 0
15, 432960, Note_on_c, 14, 29, 127
15, 433200, Note_on_c, 14, 29, 0
15, 433200, Note_on_c, 14, 29, 127
15, 433320, Note_on_c, 14, 29, 0
15, 433440, Note_on_c, 14, 29, 127
15, 433800, Note_on_c, 14, 29, 0
15, 433920, Note_on_c, 14, 34, 127
15, 434160, Note_on_c, 14, 34, 0
15, 434160, Note_on_c, 14, 34, 127
15, 434280, Note_on_c, 14, 34, 0
15, 434400, Note_on_c, 14, 34, 127
15, 434760, Note_on_c, 14, 34, 0
15, 434880, Note_on_c, 14, 34, 127
15, 435120, Note_on_c, 14, 34, 0
15, 435120, Note_on_c, 14, 34, 127
15, 435240, Note_on_c, 14, 34, 0
15, 435360, Note_on_c, 14, 34, 127
15, 435720, Note_on_c, 14, 34, 0
15, 435840, Note_on_c, 14, 39, 127
15, 435944, Note_on_c, 14, 39, 0
15, 436080, Note_on_c, 14, 39, 127
15, 436404, Note_on_c, 14, 39, 0
15, 436560, Note_on_c, 14, 39, 127
15, 436728, Note_on_c, 14, 39, 0
15, 436800, Note_on_c, 14, 39, 127
15, 437614, Note_on_c, 14, 39, 0
15, 437760, Note_on_c, 14, 32, 127
15, 437864, Note_on_c, 14, 32, 0
15, 438000, Note_on_c, 14, 32, 127
15, 438324, Note_on_c, 14, 32, 0
15, 438480, Note_on_c, 14, 32, 127
15, 438648, Note_on_c, 14, 32, 0
15, 438720, Note_on_c, 14, 32, 127
15, 439534, Note_on_c, 14, 32, 0
15, 439680, Note_on_c, 14, 29, 127
15, 439920, Note_on_c, 14, 29, 0
15, 439920, Note_on_c, 14, 29, 127
15, 440040, Note_on_c, 14, 29, 0
15, 440160, Note_on_c, 14, 29, 127
15, 440520, Note_on_c, 14, 29, 0
15, 440640, Note_on_c, 14, 29, 127
15, 440880, Note_on_c, 14, 29, 0
15, 440880, Note_on_c, 14, 29, 127
15, 441000, Note_on_c, 14, 29, 0
15, 441120, Note_on_c, 14, 29, 127
15, 441480, Note_on_c, 14, 29, 0
15, 441600, Note_on_c, 14, 34, 127
15, 441840, Note_on_c, 14, 34, 0
15, 441840, Note_on_c, 14, 34, 127
15, 441960, Note_on_c, 14, 34, 0
15, 442080, Note_on_c, 14, 34, 127
15, 442440, Note_on_c, 14, 34, 0
15, 442560, Note_on_c, 14, 34, 127
15, 442800, Note_on_c, 14, 34, 0
15, 442800, Note_on_c, 14, 34, 127
15, 442920, Note_on_c, 14, 34, 0
15, 443040, Note_on_c, 14, 34, 127
15, 443400, Note_on_c, 14, 34, 0
15, 443520, Note_on_c, 14, 39, 95
15, 443712, Note_on_c, 14, 39, 0
15, 444000, Note_on_c, 14, 46, 95
15, 444192, Note_on_c, 14, 46, 0
15, 444480, Note_on_c, 14, 43, 95
15, 444672, Note_on_c, 14, 43, 0
15, 444960, Note_on_c, 14, 46, 95
15, 445152, Note_on_c, 14, 46, 0
15, 445440, Note_on_c, 14, 39, 95
15, 445632, Note_on_c, 14, 39, 0
15, 445920, Note_on_c, 14, 46, 95
15, 446112, Note_on_c, 14, 46, 0
15, 446400, Note_on_c, 14, 34, 127
15, 446592, Note_on_c, 14, 34, 0
15, 446880, Note_on_c, 14, 46, 95
15, 447072, Note_on_c, 14, 46, 0
15, 447360, Note_on_c, 14, 39, 95
15, 447552, Note_on_c, 14, 39, 0
15, 447840, Note_on_c, 14, 46, 95
15, 448032, Note_on_c, 14, 46, 0
15, 448320, Note_on_c, 14, 43, 95
15, 448512, Note_on_c, 14, 43, 0
15, 448800, Note_on_c, 14, 46, 95
15, 448992, Note_on_c, 14, 46, 0
15, 449280, Note_on_c, 14, 39, 95
15, 449472, Note_on_c, 14, 39, 0
15, 449760, Note_on_c, 14, 46, 95
15, 449952, Note_on_c, 14, 46, 0
15, 450240, Note_on_c, 14, 34, 127
15, 450432, Note_on_c, 14, 34, 0
15, 450720, Note_on_c, 14, 46, 95
15, 450912, Note_on_c, 14, 46, 0
15, 451200, Note_on_c, 14, 39, 95
15, 451392, Note_on_c, 14, 39, 0
15, 451680, Note_on_c, 14, 46, 95
15, 451872, Note_on_c, 14, 46, 0
15, 452160, Note_on_c, 14, 43, 95
15, 452352, Note_on_c, 14, 43, 0
15, 452640, Note_on_c, 14, 46, 95
15, 452832, Note_on_c, 14, 46, 0
15, 453120, Note_on_c, 14, 39, 95
15, 453312, Note_on_c, 14, 39, 0
15, 453600, Note_on_c, 14, 46, 95
15, 453792, Note_on_c, 14, 46, 0
15, 454080, Note_on_c, 14, 34, 127
15, 454272, Note_on_c, 14, 34, 0
15, 454560, Note_on_c, 14, 46, 95
15, 454752, Note_on_c, 14, 46, 0
15, 455040, Note_on_c, 14, 39, 95
15, 455232, Note_on_c, 14, 39, 0
15, 455520, Note_on_c, 14, 46, 95
15, 455712, Note_on_c, 14, 46, 0
15, 456000, Note_on_c, 14, 43, 95
15, 456192, Note_on_c, 14, 43, 0
15, 456480, Note_on_c, 14, 46, 95
15, 456672, Note_on_c, 14, 46, 0
15, 456960, Note_on_c, 14, 39, 95
15, 457152, Note_on_c, 14, 39, 0
15, 457440, Note_on_c, 14, 46, 95
15, 457632, Note_on_c, 14, 46, 0
15, 457920, Note_on_c, 14, 34, 127
15, 458112, Note_on_c, 14, 34, 0
15, 458400, Note_on_c, 14, 46, 95
15, 458592, Note_on_c, 14, 46, 0
15, 458880, Note_on_c, 14, 39, 80
15, 459072, Note_on_c, 14, 39, 0
15, 459360, Note_on_c, 14, 43, 80
15, 459552, Note_on_c, 14, 43, 0
15, 459840, Note_on_c, 14, 46, 80
15, 460032, Note_on_c, 14, 46, 0
15, 460320, Note_on_c, 14, 51, 80
15, 460512, Note_on_c, 14, 51, 0
15, 460800, Note_on_c, 14, 55, 80
15, 460992, Note_on_c, 14, 55, 0
15, 461280, Note_on_c, 14, 51, 80
15, 461472, Note_on_c, 14, 51, 0
15, 461760, Note_on_c, 14, 46, 80
15, 461952, Note_on_c, 14, 46, 0
15, 462240, Note_on_c, 14, 43, 80
15, 462432, Note_on_c, 14, 43, 0
15, 462720, Note_on_c, 14, 39, 96
15, 462912, Note_on_c, 14, 39, 0
15, 463200, Note_on_c, 14, 43, 96
15, 463392, Note_on_c, 14, 43, 0
15, 463680, Note_on_c, 14, 46, 96
15, 463872, Note_on_c, 14, 46, 0
15, 464160, Note_on_c, 14, 51, 96
15, 464352, Note_on_c, 14, 51, 0
15, 464640, Note_on_c, 14, 55, 96
15, 464832, Note_on_c, 14, 55, 0
15, 465120, Note_on_c, 14, 51, 96
15, 465312, Note_on_c, 14, 51, 0
15, 465600, Note_on_c, 14, 46, 96
15, 465792, Note_on_c, 14, 46, 0
15, 466080, Note_on_c, 14, 43, 96
15, 466272, Note_on_c, 14, 43, 0
15, 466560, Note_on_c, 14, 39, 115
15, 466752, Note_on_c, 14, 39, 0
15, 467040, Note_on_c, 14, 43, 115
15, 467232, Note_on_c, 14, 43, 0
15, 467520, Note_on_c, 14, 46, 115
15, 467712, Note_on_c, 14, 46, 0
15, 468000, Note_on_c, 14, 51, 115
15, 468192, Note_on_c, 14, 51, 0
15, 468480, Note_on_c, 14, 55, 115
15, 468672, Note_on_c, 14, 55, 0
15, 468960, Note_on_c, 14, 51, 115
15, 469152, Note_on_c, 14, 51, 0
15, 469440, Note_on_c, 14, 46, 115
15, 469632, Note_on_c, 14, 46, 0
15, 469920, Note_on_c, 14, 43, 115
15, 470112, Note_on_c, 14, 43, 0
15, 470400, Note_on_c, 14, 46, 127
15, 470592, Note_on_c, 14, 46, 0
15, 470880, Note_on_c, 14, 43, 127
15, 471072, Note_on_c, 14, 43, 0
15, 471360, Note_on_c, 14, 39, 127
15, 471552, Note_on_c, 14, 39, 0
15, 471840, Note_on_c, 14, 34, 127
15, 472032, Note_on_c, 14, 34, 0
15, 472320, Note_on_c, 14, 39, 127
15, 472512, Note_on_c, 14, 39, 0
15, 472800, Note_on_c, 14, 34, 127
15, 472992, Note_on_c, 14, 34, 0
15, 473280, Note_on_c, 14, 31, 127
15, 473472, Note_on_c, 14, 31, 0
15, 473760, Note_on_c, 14, 27, 127
15, 473952, Note_on_c, 14, 27, 0
15, 474240, Note_on_c, 14, 34, 127
15, 474344, Note_on_c, 14, 34, 0
15, 474480, Note_on_c, 14, 34, 127
15, 474804, Note_on_c, 14, 34, 0
15, 474960, Note_on_c, 14, 34, 127
15, 475044, Note_on_c, 14, 34, 0
15, 475200, Note_on_c, 14, 34, 127
15, 476014, Note_on_c, 14, 34, 0
15, 478320, Note_on_c, 14, 34, 127
15, 478424, Note_on_c, 14, 34, 0
15, 478560, Note_on_c, 14, 34, 127
15, 478884, Note_on_c, 14, 34, 0
15, 479040, Note_on_c, 14, 34, 127
15, 479124, Note_on_c, 14, 34, 0
15, 479280, Note_on_c, 14, 34, 127
15, 480094, Note_on_c, 14, 34, 0
15, 481440, Control_c, 14, 7, 120
15, 482400, Note_on_c, 14, 34, 127
15, 482504, Note_on_c, 14, 34, 0
15, 482640, Note_on_c, 14, 34, 102
15, 482724, Note_on_c, 14, 34, 0
15, 482880, Note_on_c, 14, 34, 102
15, 482964, Note_on_c, 14, 34, 0
15, 483120, Note_on_c, 14, 34, 102
15, 483204, Note_on_c, 14, 34, 0
15, 483360, Note_on_c, 14, 34, 127
15, 483464, Note_on_c, 14, 34, 0
15, 483600, Note_on_c, 14, 34, 102
15, 483684, Note_on_c, 14, 34, 0
15, 483840, Note_on_c, 14, 34, 102
15, 483924, Note_on_c, 14, 34, 0
15, 484080, Note_on_c, 14, 34, 102
15, 484164, Note_on_c, 14, 34, 0
15, 484320, Note_on_c, 14, 34, 127
15, 484424, Note_on_c, 14, 34, 0
15, 484560, Note_on_c, 14, 34, 102
15, 484644, Note_on_c, 14, 34, 0
15, 484800, Note_on_c, 14, 34, 102
15, 484884, Note_on_c, 14, 34, 0
15, 485040, Note_on_c, 14, 34, 102
15, 485124, Note_on_c, 14, 34, 0
15, 485280, Note_on_c, 14, 34, 127
15, 485384, Note_on_c, 14, 34, 0
15, 485520, Note_on_c, 14, 34, 102
15, 485604, Note_on_c, 14, 34, 0
15, 485760, Note_on_c, 14, 34, 102
15, 485844, Note_on_c, 14, 34, 0
15, 486000, Note_on_c, 14, 34, 102
15, 486084, Note_on_c, 14, 34, 0
15, 486240, Note_on_c, 14, 39, 127
15, 486456, Note_on_c, 14, 39, 0
15, 486720, Note_on_c, 14, 39, 127
15, 486936, Note_on_c, 14, 39, 0
15, 487200, Note_on_c, 14, 39, 127
15, 487416, Note_on_c, 14, 39, 0
15, 487680, Note_on_c, 14, 39, 127
15, 487896, Note_on_c, 14, 39, 0
15, 488160, Note_on_c, 14, 39, 127
15, 488376, Note_on_c, 14, 39, 0
15, 488640, Note_on_c, 14, 39, 127
15, 488856, Note_on_c, 14, 39, 0
15, 489120, Note_on_c, 14, 39, 127
15, 489336, Note_on_c, 14, 39, 0
15, 489600, Note_on_c, 14, 39, 127
15, 489816, Note_on_c, 14, 39, 0
15, 490080, Note_on_c, 14, 39, 127
15, 490296, Note_on_c, 14, 39, 0
15, 492000, Note_on_c, 14, 39, 127
15, 492216, Note_on_c, 14, 39, 0
15, 493920, Note_on_c, 14, 39, 127
15, 494136, Note_on_c, 14, 39, 0
15, 495000, Note_on_c, 14, 39, 127
15, 495216, Note_on_c, 14, 39, 0
15, 496080, Note_on_c, 14, 39, 127
15, 496296, Note_on_c, 14, 39, 0
15, 497160, Note_on_c, 14, 39, 127
15, 497376, Note_on_c, 14, 39, 0
15, 498360, Note_on_c, 14, 39, 127
15, 498576, Note_on_c, 14, 39, 0
15, 498576, End_track
16, 0, Start_track
16, 0, Title_t, "Violin2 pizz        "
16, 0, Program_c, 15, 45
16, 0, Control_c, 15, 7, 90
16, 0, Control_c, 15, 10, 64
16, 2880, Control_c, 15, 91, 100
16, 2880, Control_c, 15, 93, 100
16, 8640, Control_c, 15, 10, 33
16, 13920, Note_on_c, 15, 72, 26
16, 13980, Note_on_c, 15, 72, 0
16, 14160, Note_on_c, 15, 75, 26
16, 14186, Note_on_c, 15, 75, 0
16, 14400, Note_on_c, 15, 75, 26
16, 14434, Note_on_c, 15, 75, 0
16, 14640, Note_on_c, 15, 72, 26
16, 14682, Note_on_c, 15, 72, 0
16, 14880, Note_on_c, 15, 72, 26
16, 14924, Note_on_c, 15, 72, 0
16, 15120, Note_on_c, 15, 75, 26
16, 15154, Note_on_c, 15, 75, 0
16, 15360, Note_on_c, 15, 75, 26
16, 15400, Note_on_c, 15, 75, 0
16, 15600, Note_on_c, 15, 72, 26
16, 15644, Note_on_c, 15, 72, 0
16, 15840, Note_on_c, 15, 72, 26
16, 15892, Note_on_c, 15, 72, 0
16, 16080, Note_on_c, 15, 75, 26
16, 16122, Note_on_c, 15, 75, 0
16, 16320, Note_on_c, 15, 75, 26
16, 16366, Note_on_c, 15, 75, 0
16, 16560, Note_on_c, 15, 72, 26
16, 16614, Note_on_c, 15, 72, 0
16, 16800, Note_on_c, 15, 70, 30
16, 16842, Note_on_c, 15, 70, 0
16, 17040, Note_on_c, 15, 75, 30
16, 17086, Note_on_c, 15, 75, 0
16, 17280, Note_on_c, 15, 75, 30
16, 17330, Note_on_c, 15, 75, 0
16, 17520, Note_on_c, 15, 70, 30
16, 17562, Note_on_c, 15, 70, 0
16, 17760, Note_on_c, 15, 70, 30
16, 17796, Note_on_c, 15, 70, 0
16, 18000, Note_on_c, 15, 75, 30
16, 18052, Note_on_c, 15, 75, 0
16, 18240, Note_on_c, 15, 75, 30
16, 18292, Note_on_c, 15, 75, 0
16, 18480, Note_on_c, 15, 70, 30
16, 18522, Note_on_c, 15, 70, 0
16, 18720, Note_on_c, 15, 72, 30
16, 18776, Note_on_c, 15, 72, 0
16, 18960, Note_on_c, 15, 75, 30
16, 19002, Note_on_c, 15, 75, 0
16, 19200, Note_on_c, 15, 75, 30
16, 19244, Note_on_c, 15, 75, 0
16, 19440, Note_on_c, 15, 72, 30
16, 19500, Note_on_c, 15, 72, 0
16, 19680, Note_on_c, 15, 73, 30
16, 19730, Note_on_c, 15, 73, 0
16, 19920, Note_on_c, 15, 75, 30
16, 19970, Note_on_c, 15, 75, 0
16, 20160, Note_on_c, 15, 75, 30
16, 20204, Note_on_c, 15, 75, 0
16, 20400, Note_on_c, 15, 73, 30
16, 20440, Note_on_c, 15, 73, 0
16, 20640, Note_on_c, 15, 72, 30
16, 20696, Note_on_c, 15, 72, 0
16, 20880, Note_on_c, 15, 75, 30
16, 20924, Note_on_c, 15, 75, 0
16, 21120, Note_on_c, 15, 75, 30
16, 21166, Note_on_c, 15, 75, 0
16, 21360, Note_on_c, 15, 72, 30
16, 21406, Note_on_c, 15, 72, 0
16, 30240, Note_on_c, 15, 68, 33
16, 30294, Note_on_c, 15, 68, 0
16, 30480, Note_on_c, 15, 70, 31
16, 30522, Note_on_c, 15, 70, 0
16, 30720, Note_on_c, 15, 70, 29
16, 30764, Note_on_c, 15, 70, 0
16, 30960, Note_on_c, 15, 68, 30
16, 31006, Note_on_c, 15, 68, 0
16, 31200, Note_on_c, 15, 67, 29
16, 31242, Note_on_c, 15, 67, 0
16, 31440, Note_on_c, 15, 70, 29
16, 31480, Note_on_c, 15, 70, 0
16, 31680, Note_on_c, 15, 70, 31
16, 31722, Note_on_c, 15, 70, 0
16, 31920, Note_on_c, 15, 67, 29
16, 31976, Note_on_c, 15, 67, 0
16, 32160, Note_on_c, 15, 68, 33
16, 32200, Note_on_c, 15, 68, 0
16, 32400, Note_on_c, 15, 70, 29
16, 32442, Note_on_c, 15, 70, 0
16, 32640, Note_on_c, 15, 70, 30
16, 32686, Note_on_c, 15, 70, 0
16, 32880, Note_on_c, 15, 68, 30
16, 32934, Note_on_c, 15, 68, 0
16, 33120, Note_on_c, 15, 67, 40
16, 33146, Note_on_c, 15, 67, 0
16, 33360, Note_on_c, 15, 70, 40
16, 33404, Note_on_c, 15, 70, 0
16, 33600, Note_on_c, 15, 70, 42
16, 33650, Note_on_c, 15, 70, 0
16, 33840, Note_on_c, 15, 66, 44
16, 33886, Note_on_c, 15, 66, 0
16, 34080, Note_on_c, 15, 68, 43
16, 34122, Note_on_c, 15, 68, 0
16, 34320, Note_on_c, 15, 70, 41
16, 34364, Note_on_c, 15, 70, 0
16, 34560, Note_on_c, 15, 70, 40
16, 34606, Note_on_c, 15, 70, 0
16, 34800, Note_on_c, 15, 68, 40
16, 34852, Note_on_c, 15, 68, 0
16, 35040, Note_on_c, 15, 66, 49
16, 35062, Note_on_c, 15, 66, 0
16, 35280, Note_on_c, 15, 70, 40
16, 35330, Note_on_c, 15, 70, 0
16, 35520, Note_on_c, 15, 70, 46
16, 35574, Note_on_c, 15, 70, 0
16, 45360, Note_on_c, 15, 58, 70
16, 45360, Note_on_c, 15, 66, 76
16, 45360, Note_on_c, 15, 62, 73
16, 45480, Note_on_c, 15, 62, 0
16, 45480, Note_on_c, 15, 66, 0
16, 45480, Note_on_c, 15, 58, 0
16, 126480, Note_on_c, 15, 70, 40
16, 126864, Note_on_c, 15, 70, 0
16, 127440, Note_on_c, 15, 65, 40
16, 127824, Note_on_c, 15, 65, 0
16, 128400, Note_on_c, 15, 67, 40
16, 128784, Note_on_c, 15, 67, 0
16, 129360, Note_on_c, 15, 62, 40
16, 129744, Note_on_c, 15, 62, 0
16, 130320, Note_on_c, 15, 63, 40
16, 130704, Note_on_c, 15, 63, 0
16, 130800, Note_on_c, 15, 62, 40
16, 131184, Note_on_c, 15, 62, 0
16, 131280, Note_on_c, 15, 60, 40
16, 131664, Note_on_c, 15, 60, 0
16, 131760, Note_on_c, 15, 58, 40
16, 132144, Note_on_c, 15, 58, 0
16, 132240, Note_on_c, 15, 57, 40
16, 132624, Note_on_c, 15, 57, 0
16, 132720, Note_on_c, 15, 58, 40
16, 133104, Note_on_c, 15, 58, 0
16, 133200, Note_on_c, 15, 65, 40
16, 133584, Note_on_c, 15, 65, 0
16, 210240, Note_on_c, 15, 71, 26
16, 210300, Note_on_c, 15, 71, 0
16, 210480, Note_on_c, 15, 74, 26
16, 210506, Note_on_c, 15, 74, 0
16, 210720, Note_on_c, 15, 74, 26
16, 210754, Note_on_c, 15, 74, 0
16, 210960, Note_on_c, 15, 71, 26
16, 211002, Note_on_c, 15, 71, 0
16, 211200, Note_on_c, 15, 71, 26
16, 211244, Note_on_c, 15, 71, 0
16, 211440, Note_on_c, 15, 74, 26
16, 211474, Note_on_c, 15, 74, 0
16, 211680, Note_on_c, 15, 74, 26
16, 211720, Note_on_c, 15, 74, 0
16, 211920, Note_on_c, 15, 71, 26
16, 211964, Note_on_c, 15, 71, 0
16, 212160, Note_on_c, 15, 71, 26
16, 212212, Note_on_c, 15, 71, 0
16, 212400, Note_on_c, 15, 74, 26
16, 212442, Note_on_c, 15, 74, 0
16, 212640, Note_on_c, 15, 74, 26
16, 212686, Note_on_c, 15, 74, 0
16, 212880, Note_on_c, 15, 71, 26
16, 212934, Note_on_c, 15, 71, 0
16, 213120, Note_on_c, 15, 69, 30
16, 213162, Note_on_c, 15, 69, 0
16, 213360, Note_on_c, 15, 74, 30
16, 213406, Note_on_c, 15, 74, 0
16, 213600, Note_on_c, 15, 74, 30
16, 213650, Note_on_c, 15, 74, 0
16, 213840, Note_on_c, 15, 69, 30
16, 213882, Note_on_c, 15, 69, 0
16, 214080, Note_on_c, 15, 69, 30
16, 214116, Note_on_c, 15, 69, 0
16, 214320, Note_on_c, 15, 74, 30
16, 214372, Note_on_c, 15, 74, 0
16, 214560, Note_on_c, 15, 74, 30
16, 214612, Note_on_c, 15, 74, 0
16, 214800, Note_on_c, 15, 69, 30
16, 214842, Note_on_c, 15, 69, 0
16, 215040, Note_on_c, 15, 71, 30
16, 215096, Note_on_c, 15, 71, 0
16, 215280, Note_on_c, 15, 74, 30
16, 215322, Note_on_c, 15, 74, 0
16, 215520, Note_on_c, 15, 74, 30
16, 215564, Note_on_c, 15, 74, 0
16, 215760, Note_on_c, 15, 71, 30
16, 215820, Note_on_c, 15, 71, 0
16, 216000, Note_on_c, 15, 72, 30
16, 216050, Note_on_c, 15, 72, 0
16, 216240, Note_on_c, 15, 74, 30
16, 216290, Note_on_c, 15, 74, 0
16, 216480, Note_on_c, 15, 74, 30
16, 216524, Note_on_c, 15, 74, 0
16, 216720, Note_on_c, 15, 72, 30
16, 216760, Note_on_c, 15, 72, 0
16, 216960, Note_on_c, 15, 70, 24
16, 217016, Note_on_c, 15, 70, 0
16, 217200, Note_on_c, 15, 74, 24
16, 217244, Note_on_c, 15, 74, 0
16, 217440, Note_on_c, 15, 74, 24
16, 217486, Note_on_c, 15, 74, 0
16, 217680, Note_on_c, 15, 70, 24
16, 217726, Note_on_c, 15, 70, 0
16, 217920, Note_on_c, 15, 69, 24
16, 217976, Note_on_c, 15, 69, 0
16, 218160, Note_on_c, 15, 74, 24
16, 218204, Note_on_c, 15, 74, 0
16, 218400, Note_on_c, 15, 74, 24
16, 218446, Note_on_c, 15, 74, 0
16, 218640, Note_on_c, 15, 69, 24
16, 218686, Note_on_c, 15, 69, 0
16, 218880, Note_on_c, 15, 70, 24
16, 218936, Note_on_c, 15, 70, 0
16, 219120, Note_on_c, 15, 74, 34
16, 219164, Note_on_c, 15, 74, 0
16, 219360, Note_on_c, 15, 74, 46
16, 219406, Note_on_c, 15, 74, 0
16, 219600, Note_on_c, 15, 70, 51
16, 219646, Note_on_c, 15, 70, 0
16, 219840, Note_on_c, 15, 68, 35
16, 219840, Note_on_c, 15, 70, 35
16, 219896, Note_on_c, 15, 70, 0
16, 219896, Note_on_c, 15, 68, 0
16, 220080, Note_on_c, 15, 74, 35
16, 220080, Note_on_c, 15, 70, 35
16, 220124, Note_on_c, 15, 70, 0
16, 220124, Note_on_c, 15, 74, 0
16, 220320, Note_on_c, 15, 70, 35
16, 220320, Note_on_c, 15, 74, 35
16, 220366, Note_on_c, 15, 74, 0
16, 220366, Note_on_c, 15, 70, 0
16, 220560, Note_on_c, 15, 68, 35
16, 220560, Note_on_c, 15, 70, 35
16, 220606, Note_on_c, 15, 70, 0
16, 220606, Note_on_c, 15, 68, 0
16, 220800, Note_on_c, 15, 67, 35
16, 220800, Note_on_c, 15, 70, 35
16, 220856, Note_on_c, 15, 70, 0
16, 220856, Note_on_c, 15, 67, 0
16, 221040, Note_on_c, 15, 70, 35
16, 221040, Note_on_c, 15, 75, 35
16, 221084, Note_on_c, 15, 75, 0
16, 221084, Note_on_c, 15, 70, 0
16, 221280, Note_on_c, 15, 75, 35
16, 221280, Note_on_c, 15, 70, 35
16, 221326, Note_on_c, 15, 70, 0
16, 221326, Note_on_c, 15, 75, 0
16, 221520, Note_on_c, 15, 67, 35
16, 221520, Note_on_c, 15, 70, 35
16, 221566, Note_on_c, 15, 70, 0
16, 221566, Note_on_c, 15, 67, 0
16, 221760, Note_on_c, 15, 68, 35
16, 221760, Note_on_c, 15, 70, 35
16, 221816, Note_on_c, 15, 70, 0
16, 221816, Note_on_c, 15, 68, 0
16, 222000, Note_on_c, 15, 70, 35
16, 222000, Note_on_c, 15, 74, 35
16, 222044, Note_on_c, 15, 74, 0
16, 222044, Note_on_c, 15, 70, 0
16, 222240, Note_on_c, 15, 74, 35
16, 222240, Note_on_c, 15, 70, 35
16, 222286, Note_on_c, 15, 70, 0
16, 222286, Note_on_c, 15, 74, 0
16, 222480, Note_on_c, 15, 70, 35
16, 222480, Note_on_c, 15, 68, 35
16, 222526, Note_on_c, 15, 68, 0
16, 222526, Note_on_c, 15, 70, 0
16, 222720, Note_on_c, 15, 70, 35
16, 222720, Note_on_c, 15, 67, 35
16, 222776, Note_on_c, 15, 67, 0
16, 222776, Note_on_c, 15, 70, 0
16, 222960, Note_on_c, 15, 70, 35
16, 222960, Note_on_c, 15, 75, 35
16, 223004, Note_on_c, 15, 75, 0
16, 223004, Note_on_c, 15, 70, 0
16, 223200, Note_on_c, 15, 70, 35
16, 223200, Note_on_c, 15, 67, 35
16, 223246, Note_on_c, 15, 67, 0
16, 223246, Note_on_c, 15, 70, 0
16, 318720, Note_on_c, 15, 63, 40
16, 319104, Note_on_c, 15, 63, 0
16, 319680, Note_on_c, 15, 58, 40
16, 320064, Note_on_c, 15, 58, 0
16, 320640, Note_on_c, 15, 60, 40
16, 321024, Note_on_c, 15, 60, 0
16, 321600, Note_on_c, 15, 55, 40
16, 321984, Note_on_c, 15, 55, 0
16, 322560, Note_on_c, 15, 56, 40
16, 322944, Note_on_c, 15, 56, 0
16, 323040, Note_on_c, 15, 55, 40
16, 323040, Note_on_c, 15, 67, 40
16, 323424, Note_on_c, 15, 67, 0
16, 323424, Note_on_c, 15, 55, 0
16, 323520, Note_on_c, 15, 65, 40
16, 323520, Note_on_c, 15, 53, 40
16, 323904, Note_on_c, 15, 53, 0
16, 323904, Note_on_c, 15, 65, 0
16, 324000, Note_on_c, 15, 51, 40
16, 324000, Note_on_c, 15, 63, 40
16, 324384, Note_on_c, 15, 63, 0
16, 324384, Note_on_c, 15, 51, 0
16, 324480, Note_on_c, 15, 62, 40
16, 324480, Note_on_c, 15, 50, 40
16, 324864, Note_on_c, 15, 50, 0
16, 324864, Note_on_c, 15, 62, 0
16, 324960, Note_on_c, 15, 51, 40
16, 324960, Note_on_c, 15, 63, 40
16, 325344, Note_on_c, 15, 63, 0
16, 325344, Note_on_c, 15, 51, 0
16, 325440, Note_on_c, 15, 58, 40
16, 325440, Note_on_c, 15, 70, 40
16, 325824, Note_on_c, 15, 70, 0
16, 325824, Note_on_c, 15, 58, 0
16, 391680, Note_on_c, 15, 68, 30
16, 391680, Note_on_c, 15, 58, 30
16, 391716, Note_on_c, 15, 58, 0
16, 391716, Note_on_c, 15, 68, 0
16, 392640, Note_on_c, 15, 67, 30
16, 392640, Note_on_c, 15, 58, 30
16, 392696, Note_on_c, 15, 58, 0
16, 392696, Note_on_c, 15, 67, 0
16, 392696, End_track
17, 0, Start_track
17, 0, Title_t, "Viola pizz          "
17, 0, Program_c, 15, 45
17, 0, Control_c, 15, 7, 90
17, 0, Control_c, 15, 10, 64
17, 2880, Control_c, 15, 91, 100
17, 2880, Control_c, 15, 93, 100
17, 14160, Note_on_c, 15, 72, 26
17, 14196, Note_on_c, 15, 72, 0
17, 14400, Note_on_c, 15, 72, 26
17, 14436, Note_on_c, 15, 72, 0
17, 14640, Note_on_c, 15, 68, 26
17, 14684, Note_on_c, 15, 68, 0
17, 14880, Note_on_c, 15, 68, 26
17, 14926, Note_on_c, 15, 68, 0
17, 15120, Note_on_c, 15, 72, 26
17, 15162, Note_on_c, 15, 72, 0
17, 15360, Note_on_c, 15, 72, 26
17, 15404, Note_on_c, 15, 72, 0
17, 15600, Note_on_c, 15, 68, 26
17, 15640, Note_on_c, 15, 68, 0
17, 15840, Note_on_c, 15, 68, 26
17, 15886, Note_on_c, 15, 68, 0
17, 16080, Note_on_c, 15, 72, 26
17, 16130, Note_on_c, 15, 72, 0
17, 16320, Note_on_c, 15, 72, 26
17, 16370, Note_on_c, 15, 72, 0
17, 16560, Note_on_c, 15, 68, 26
17, 16610, Note_on_c, 15, 68, 0
17, 16800, Note_on_c, 15, 67, 30
17, 16862, Note_on_c, 15, 67, 0
17, 17040, Note_on_c, 15, 70, 30
17, 17084, Note_on_c, 15, 70, 0
17, 17280, Note_on_c, 15, 70, 30
17, 17330, Note_on_c, 15, 70, 0
17, 17520, Note_on_c, 15, 67, 30
17, 17570, Note_on_c, 15, 67, 0
17, 17760, Note_on_c, 15, 67, 30
17, 17812, Note_on_c, 15, 67, 0
17, 18000, Note_on_c, 15, 70, 30
17, 18046, Note_on_c, 15, 70, 0
17, 18240, Note_on_c, 15, 70, 30
17, 18286, Note_on_c, 15, 70, 0
17, 18480, Note_on_c, 15, 67, 30
17, 18536, Note_on_c, 15, 67, 0
17, 18720, Note_on_c, 15, 68, 30
17, 18774, Note_on_c, 15, 68, 0
17, 18960, Note_on_c, 15, 72, 30
17, 19004, Note_on_c, 15, 72, 0
17, 19200, Note_on_c, 15, 72, 30
17, 19244, Note_on_c, 15, 72, 0
17, 19440, Note_on_c, 15, 68, 30
17, 19486, Note_on_c, 15, 68, 0
17, 19680, Note_on_c, 15, 70, 30
17, 19726, Note_on_c, 15, 70, 0
17, 19920, Note_on_c, 15, 73, 30
17, 19970, Note_on_c, 15, 73, 0
17, 20160, Note_on_c, 15, 73, 30
17, 20206, Note_on_c, 15, 73, 0
17, 20400, Note_on_c, 15, 70, 30
17, 20444, Note_on_c, 15, 70, 0
17, 20640, Note_on_c, 15, 68, 30
17, 20690, Note_on_c, 15, 68, 0
17, 20880, Note_on_c, 15, 72, 30
17, 20934, Note_on_c, 15, 72, 0
17, 21120, Note_on_c, 15, 72, 30
17, 21166, Note_on_c, 15, 72, 0
17, 21360, Note_on_c, 15, 68, 30
17, 21396, Note_on_c, 15, 68, 0
17, 30240, Note_on_c, 15, 58, 30
17, 30466, Note_on_c, 15, 58, 0
17, 30480, Note_on_c, 15, 68, 33
17, 30534, Note_on_c, 15, 68, 0
17, 30720, Note_on_c, 15, 68, 33
17, 30770, Note_on_c, 15, 68, 0
17, 30960, Note_on_c, 15, 58, 25
17, 31012, Note_on_c, 15, 58, 0
17, 31200, Note_on_c, 15, 58, 25
17, 31236, Note_on_c, 15, 58, 0
17, 31440, Note_on_c, 15, 67, 35
17, 31490, Note_on_c, 15, 67, 0
17, 31680, Note_on_c, 15, 67, 35
17, 31730, Note_on_c, 15, 67, 0
17, 31920, Note_on_c, 15, 58, 24
17, 31972, Note_on_c, 15, 58, 0
17, 32160, Note_on_c, 15, 58, 25
17, 32196, Note_on_c, 15, 58, 0
17, 32400, Note_on_c, 15, 68, 28
17, 32450, Note_on_c, 15, 68, 0
17, 32640, Note_on_c, 15, 68, 31
17, 32700, Note_on_c, 15, 68, 0
17, 32880, Note_on_c, 15, 65, 31
17, 32924, Note_on_c, 15, 65, 0
17, 33120, Note_on_c, 15, 58, 30
17, 33164, Note_on_c, 15, 58, 0
17, 33360, Note_on_c, 15, 67, 45
17, 33396, Note_on_c, 15, 67, 0
17, 33600, Note_on_c, 15, 70, 49
17, 33640, Note_on_c, 15, 70, 0
17, 33840, Note_on_c, 15, 58, 46
17, 33876, Note_on_c, 15, 58, 0
17, 34080, Note_on_c, 15, 58, 47
17, 34102, Note_on_c, 15, 58, 0
17, 34320, Note_on_c, 15, 68, 43
17, 34380, Note_on_c, 15, 68, 0
17, 34560, Note_on_c, 15, 68, 45
17, 34612, Note_on_c, 15, 68, 0
17, 34800, Note_on_c, 15, 58, 41
17, 34840, Note_on_c, 15, 58, 0
17, 35040, Note_on_c, 15, 58, 39
17, 35052, Note_on_c, 15, 58, 0
17, 35280, Note_on_c, 15, 66, 46
17, 35322, Note_on_c, 15, 66, 0
17, 35520, Note_on_c, 15, 66, 47
17, 35570, Note_on_c, 15, 66, 0
17, 35760, Note_on_c, 15, 70, 40
17, 35806, Note_on_c, 15, 70, 0
17, 36000, Note_on_c, 15, 70, 45
17, 36040, Note_on_c, 15, 70, 0
17, 36240, Note_on_c, 15, 70, 47
17, 36280, Note_on_c, 15, 70, 0
17, 36480, Note_on_c, 15, 70, 49
17, 36522, Note_on_c, 15, 70, 0
17, 36720, Note_on_c, 15, 70, 47
17, 36762, Note_on_c, 15, 70, 0
17, 36960, Note_on_c, 15, 70, 46
17, 36986, Note_on_c, 15, 70, 0
17, 37200, Note_on_c, 15, 70, 40
17, 37252, Note_on_c, 15, 70, 0
17, 37440, Note_on_c, 15, 70, 36
17, 37492, Note_on_c, 15, 70, 0
17, 37680, Note_on_c, 15, 70, 40
17, 37724, Note_on_c, 15, 70, 0
17, 37920, Note_on_c, 15, 70, 37
17, 37940, Note_on_c, 15, 70, 0
17, 38160, Note_on_c, 15, 70, 41
17, 38210, Note_on_c, 15, 70, 0
17, 38400, Note_on_c, 15, 70, 42
17, 38442, Note_on_c, 15, 70, 0
17, 38640, Note_on_c, 15, 70, 38
17, 38686, Note_on_c, 15, 70, 0
17, 38880, Note_on_c, 15, 70, 38
17, 38902, Note_on_c, 15, 70, 0
17, 39120, Note_on_c, 15, 70, 40
17, 39162, Note_on_c, 15, 70, 0
17, 39360, Note_on_c, 15, 70, 40
17, 39402, Note_on_c, 15, 70, 0
17, 39600, Note_on_c, 15, 70, 40
17, 39644, Note_on_c, 15, 70, 0
17, 39840, Note_on_c, 15, 70, 44
17, 39870, Note_on_c, 15, 70, 0
17, 40080, Note_on_c, 15, 70, 40
17, 40114, Note_on_c, 15, 70, 0
17, 40320, Note_on_c, 15, 70, 42
17, 40360, Note_on_c, 15, 70, 0
17, 40560, Note_on_c, 15, 70, 47
17, 40604, Note_on_c, 15, 70, 0
17, 40800, Note_on_c, 15, 70, 47
17, 40832, Note_on_c, 15, 70, 0
17, 41040, Note_on_c, 15, 70, 50
17, 41080, Note_on_c, 15, 70, 0
17, 41280, Note_on_c, 15, 70, 52
17, 41320, Note_on_c, 15, 70, 0
17, 45360, Note_on_c, 15, 58, 76
17, 45450, Note_on_c, 15, 58, 0
17, 133200, Note_on_c, 15, 53, 40
17, 133584, Note_on_c, 15, 53, 0
17, 210240, Note_on_c, 15, 67, 32
17, 210480, Note_on_c, 15, 67, 0
17, 210480, Note_on_c, 15, 71, 26
17, 210516, Note_on_c, 15, 71, 0
17, 210720, Note_on_c, 15, 71, 26
17, 210756, Note_on_c, 15, 71, 0
17, 210960, Note_on_c, 15, 67, 26
17, 211004, Note_on_c, 15, 67, 0
17, 211200, Note_on_c, 15, 67, 26
17, 211246, Note_on_c, 15, 67, 0
17, 211440, Note_on_c, 15, 71, 26
17, 211482, Note_on_c, 15, 71, 0
17, 211680, Note_on_c, 15, 71, 26
17, 211724, Note_on_c, 15, 71, 0
17, 211920, Note_on_c, 15, 67, 26
17, 211960, Note_on_c, 15, 67, 0
17, 212160, Note_on_c, 15, 67, 26
17, 212206, Note_on_c, 15, 67, 0
17, 212400, Note_on_c, 15, 71, 26
17, 212450, Note_on_c, 15, 71, 0
17, 212640, Note_on_c, 15, 71, 26
17, 212690, Note_on_c, 15, 71, 0
17, 212880, Note_on_c, 15, 67, 26
17, 212930, Note_on_c, 15, 67, 0
17, 213120, Note_on_c, 15, 66, 30
17, 213182, Note_on_c, 15, 66, 0
17, 213360, Note_on_c, 15, 69, 30
17, 213404, Note_on_c, 15, 69, 0
17, 213600, Note_on_c, 15, 69, 30
17, 213650, Note_on_c, 15, 69, 0
17, 213840, Note_on_c, 15, 66, 30
17, 213890, Note_on_c, 15, 66, 0
17, 214080, Note_on_c, 15, 66, 30
17, 214132, Note_on_c, 15, 66, 0
17, 214320, Note_on_c, 15, 69, 30
17, 214366, Note_on_c, 15, 69, 0
17, 214560, Note_on_c, 15, 69, 30
17, 214606, Note_on_c, 15, 69, 0
17, 214800, Note_on_c, 15, 66, 30
17, 214856, Note_on_c, 15, 66, 0
17, 215040, Note_on_c, 15, 67, 30
17, 215094, Note_on_c, 15, 67, 0
17, 215280, Note_on_c, 15, 71, 30
17, 215324, Note_on_c, 15, 71, 0
17, 215520, Note_on_c, 15, 71, 30
17, 215564, Note_on_c, 15, 71, 0
17, 215760, Note_on_c, 15, 67, 30
17, 215806, Note_on_c, 15, 67, 0
17, 216000, Note_on_c, 15, 69, 30
17, 216046, Note_on_c, 15, 69, 0
17, 216240, Note_on_c, 15, 72, 30
17, 216290, Note_on_c, 15, 72, 0
17, 216480, Note_on_c, 15, 72, 30
17, 216526, Note_on_c, 15, 72, 0
17, 216720, Note_on_c, 15, 69, 30
17, 216764, Note_on_c, 15, 69, 0
17, 216960, Note_on_c, 15, 67, 24
17, 217010, Note_on_c, 15, 67, 0
17, 217200, Note_on_c, 15, 70, 24
17, 217254, Note_on_c, 15, 70, 0
17, 217440, Note_on_c, 15, 70, 24
17, 217486, Note_on_c, 15, 70, 0
17, 217680, Note_on_c, 15, 67, 24
17, 217716, Note_on_c, 15, 67, 0
17, 217920, Note_on_c, 15, 62, 24
17, 217920, Note_on_c, 15, 66, 24
17, 217970, Note_on_c, 15, 66, 0
17, 217970, Note_on_c, 15, 62, 0
17, 218160, Note_on_c, 15, 66, 24
17, 218160, Note_on_c, 15, 69, 24
17, 218214, Note_on_c, 15, 69, 0
17, 218214, Note_on_c, 15, 66, 0
17, 218400, Note_on_c, 15, 66, 24
17, 218400, Note_on_c, 15, 69, 24
17, 218446, Note_on_c, 15, 69, 0
17, 218446, Note_on_c, 15, 66, 0
17, 218640, Note_on_c, 15, 62, 24
17, 218640, Note_on_c, 15, 66, 24
17, 218676, Note_on_c, 15, 66, 0
17, 218676, Note_on_c, 15, 62, 0
17, 218880, Note_on_c, 15, 67, 24
17, 218880, Note_on_c, 15, 62, 24
17, 218930, Note_on_c, 15, 62, 0
17, 218930, Note_on_c, 15, 67, 0
17, 219120, Note_on_c, 15, 67, 34
17, 219120, Note_on_c, 15, 70, 34
17, 219174, Note_on_c, 15, 70, 0
17, 219174, Note_on_c, 15, 67, 0
17, 219360, Note_on_c, 15, 70, 46
17, 219360, Note_on_c, 15, 67, 46
17, 219406, Note_on_c, 15, 67, 0
17, 219406, Note_on_c, 15, 70, 0
17, 219600, Note_on_c, 15, 62, 51
17, 219600, Note_on_c, 15, 67, 51
17, 219636, Note_on_c, 15, 67, 0
17, 219636, Note_on_c, 15, 62, 0
17, 219840, Note_on_c, 15, 62, 35
17, 219890, Note_on_c, 15, 62, 0
17, 220080, Note_on_c, 15, 68, 35
17, 220134, Note_on_c, 15, 68, 0
17, 220320, Note_on_c, 15, 68, 35
17, 220366, Note_on_c, 15, 68, 0
17, 220560, Note_on_c, 15, 62, 35
17, 220596, Note_on_c, 15, 62, 0
17, 220800, Note_on_c, 15, 63, 35
17, 220850, Note_on_c, 15, 63, 0
17, 221040, Note_on_c, 15, 67, 35
17, 221094, Note_on_c, 15, 67, 0
17, 221280, Note_on_c, 15, 67, 35
17, 221326, Note_on_c, 15, 67, 0
17, 221520, Note_on_c, 15, 63, 35
17, 221556, Note_on_c, 15, 63, 0
17, 221760, Note_on_c, 15, 62, 35
17, 221810, Note_on_c, 15, 62, 0
17, 222000, Note_on_c, 15, 68, 35
17, 222054, Note_on_c, 15, 68, 0
17, 222240, Note_on_c, 15, 68, 35
17, 222286, Note_on_c, 15, 68, 0
17, 222480, Note_on_c, 15, 62, 35
17, 222516, Note_on_c, 15, 62, 0
17, 222720, Note_on_c, 15, 63, 35
17, 222770, Note_on_c, 15, 63, 0
17, 222960, Note_on_c, 15, 67, 35
17, 223014, Note_on_c, 15, 67, 0
17, 223200, Note_on_c, 15, 63, 35
17, 223236, Note_on_c, 15, 63, 0
17, 391680, Note_on_c, 15, 62, 30
17, 391680, Note_on_c, 15, 58, 30
17, 391732, Note_on_c, 15, 58, 0
17, 391732, Note_on_c, 15, 62, 0
17, 391920, Note_on_c, 15, 62, 30
17, 391920, Note_on_c, 15, 65, 30
17, 391966, Note_on_c, 15, 65, 0
17, 391966, Note_on_c, 15, 62, 0
17, 392160, Note_on_c, 15, 65, 30
17, 392160, Note_on_c, 15, 62, 30
17, 392206, Note_on_c, 15, 62, 0
17, 392206, Note_on_c, 15, 65, 0
17, 392400, Note_on_c, 15, 62, 30
17, 392400, Note_on_c, 15, 58, 30
17, 392456, Note_on_c, 15, 58, 0
17, 392456, Note_on_c, 15, 62, 0
17, 392640, Note_on_c, 15, 63, 30
17, 392640, Note_on_c, 15, 58, 30
17, 392694, Note_on_c, 15, 58, 0
17, 392694, Note_on_c, 15, 63, 0
17, 392880, Note_on_c, 15, 67, 30
17, 392880, Note_on_c, 15, 63, 30
17, 392924, Note_on_c, 15, 63, 0
17, 392924, Note_on_c, 15, 67, 0
17, 393120, Note_on_c, 15, 63, 26
17, 393120, Note_on_c, 15, 67, 26
17, 393164, Note_on_c, 15, 67, 0
17, 393164, Note_on_c, 15, 63, 0
17, 393164, End_track
18, 0, Start_track
18, 0, Title_t, "Cello pizz          "
18, 0, Program_c, 7, 45
18, 0, Control_c, 7, 7, 90
18, 0, Control_c, 7, 10, 64
18, 2880, Control_c, 7, 91, 100
18, 2880, Control_c, 7, 93, 100
18, 3840, Control_c, 7, 10, 95
18, 8640, Control_c, 7, 10, 90
18, 13920, Note_on_c, 7, 44, 40
18, 13972, Note_on_c, 7, 44, 0
18, 14880, Note_on_c, 7, 44, 40
18, 14936, Note_on_c, 7, 44, 0
18, 15840, Note_on_c, 7, 44, 40
18, 15902, Note_on_c, 7, 44, 0
18, 16800, Note_on_c, 7, 51, 40
18, 16856, Note_on_c, 7, 51, 0
18, 17760, Note_on_c, 7, 51, 40
18, 17820, Note_on_c, 7, 51, 0
18, 18720, Note_on_c, 7, 44, 40
18, 18762, Note_on_c, 7, 44, 0
18, 19680, Note_on_c, 7, 51, 40
18, 19726, Note_on_c, 7, 51, 0
18, 20160, Note_on_c, 7, 51, 40
18, 20206, Note_on_c, 7, 51, 0
18, 20640, Note_on_c, 7, 44, 40
18, 20700, Note_on_c, 7, 44, 0
18, 30240, Note_on_c, 7, 46, 30
18, 30240, Note_on_c, 7, 34, 39
18, 30280, Note_on_c, 7, 46, 0
18, 30286, Note_on_c, 7, 34, 0
18, 31200, Note_on_c, 7, 46, 30
18, 31200, Note_on_c, 7, 34, 36
18, 31244, Note_on_c, 7, 46, 0
18, 31256, Note_on_c, 7, 34, 0
18, 32160, Note_on_c, 7, 46, 28
18, 32160, Note_on_c, 7, 34, 35
18, 32212, Note_on_c, 7, 46, 0
18, 32216, Note_on_c, 7, 34, 0
18, 33120, Note_on_c, 7, 46, 39
18, 33120, Note_on_c, 7, 34, 47
18, 33144, Note_on_c, 7, 46, 0
18, 33150, Note_on_c, 7, 34, 0
18, 34080, Note_on_c, 7, 46, 38
18, 34080, Note_on_c, 7, 34, 47
18, 34132, Note_on_c, 7, 46, 0
18, 34136, Note_on_c, 7, 34, 0
18, 35040, Note_on_c, 7, 34, 53
18, 35040, Note_on_c, 7, 46, 47
18, 35076, Note_on_c, 7, 34, 0
18, 35080, Note_on_c, 7, 46, 0
18, 45360, Note_on_c, 7, 58, 74
18, 45480, Note_on_c, 7, 58, 0
18, 126480, Note_on_c, 7, 58, 40
18, 126864, Note_on_c, 7, 58, 0
18, 127440, Note_on_c, 7, 53, 40
18, 127824, Note_on_c, 7, 53, 0
18, 128400, Note_on_c, 7, 55, 40
18, 128784, Note_on_c, 7, 55, 0
18, 129360, Note_on_c, 7, 50, 40
18, 129744, Note_on_c, 7, 50, 0
18, 130320, Note_on_c, 7, 51, 40
18, 130704, Note_on_c, 7, 51, 0
18, 130800, Note_on_c, 7, 50, 40
18, 131184, Note_on_c, 7, 50, 0
18, 131280, Note_on_c, 7, 48, 40
18, 131664, Note_on_c, 7, 48, 0
18, 131760, Note_on_c, 7, 46, 40
18, 132144, Note_on_c, 7, 46, 0
18, 132240, Note_on_c, 7, 45, 40
18, 132624, Note_on_c, 7, 45, 0
18, 132720, Note_on_c, 7, 46, 40
18, 133104, Note_on_c, 7, 46, 0
18, 133200, Note_on_c, 7, 41, 40
18, 133584, Note_on_c, 7, 41, 0
18, 210240, Note_on_c, 7, 43, 40
18, 210292, Note_on_c, 7, 43, 0
18, 211200, Note_on_c, 7, 43, 40
18, 211256, Note_on_c, 7, 43, 0
18, 212160, Note_on_c, 7, 43, 40
18, 212222, Note_on_c, 7, 43, 0
18, 213120, Note_on_c, 7, 50, 40
18, 213176, Note_on_c, 7, 50, 0
18, 214080, Note_on_c, 7, 50, 40
18, 214140, Note_on_c, 7, 50, 0
18, 215040, Note_on_c, 7, 43, 40
18, 215082, Note_on_c, 7, 43, 0
18, 216000, Note_on_c, 7, 50, 40
18, 216046, Note_on_c, 7, 50, 0
18, 216480, Note_on_c, 7, 50, 40
18, 216526, Note_on_c, 7, 50, 0
18, 216960, Note_on_c, 7, 43, 32
18, 217020, Note_on_c, 7, 43, 0
18, 217920, Note_on_c, 7, 50, 32
18, 217920, Note_on_c, 7, 38, 32
18, 217980, Note_on_c, 7, 38, 0
18, 217980, Note_on_c, 7, 50, 0
18, 218880, Note_on_c, 7, 43, 32
18, 218880, Note_on_c, 7, 55, 32
18, 218940, Note_on_c, 7, 55, 0
18, 218940, Note_on_c, 7, 43, 0
18, 219600, Note_on_c, 7, 43, 38
18, 219600, Note_on_c, 7, 55, 38
18, 219792, Note_on_c, 7, 55, 0
18, 219792, Note_on_c, 7, 43, 0
18, 219840, Note_on_c, 7, 53, 35
18, 219840, Note_on_c, 7, 41, 35
18, 219890, Note_on_c, 7, 41, 0
18, 219890, Note_on_c, 7, 53, 0
18, 220080, Note_on_c, 7, 46, 35
18, 220080, Note_on_c, 7, 58, 35
18, 220134, Note_on_c, 7, 58, 0
18, 220134, Note_on_c, 7, 46, 0
18, 220320, Note_on_c, 7, 46, 35
18, 220320, Note_on_c, 7, 58, 35
18, 220366, Note_on_c, 7, 58, 0
18, 220366, Note_on_c, 7, 46, 0
18, 220560, Note_on_c, 7, 34, 35
18, 220560, Note_on_c, 7, 46, 35
18, 220596, Note_on_c, 7, 46, 0
18, 220596, Note_on_c, 7, 34, 0
18, 220800, Note_on_c, 7, 34, 35
18, 220800, Note_on_c, 7, 46, 35
18, 220850, Note_on_c, 7, 46, 0
18, 220850, Note_on_c, 7, 34, 0
18, 221040, Note_on_c, 7, 58, 35
18, 221040, Note_on_c, 7, 46, 35
18, 221094, Note_on_c, 7, 46, 0
18, 221094, Note_on_c, 7, 58, 0
18, 221280, Note_on_c, 7, 58, 35
18, 221280, Note_on_c, 7, 46, 35
18, 221326, Note_on_c, 7, 46, 0
18, 221326, Note_on_c, 7, 58, 0
18, 221520, Note_on_c, 7, 34, 35
18, 221520, Note_on_c, 7, 46, 35
18, 221556, Note_on_c, 7, 46, 0
18, 221556, Note_on_c, 7, 34, 0
18, 221760, Note_on_c, 7, 34, 35
18, 221760, Note_on_c, 7, 46, 35
18, 221810, Note_on_c, 7, 46, 0
18, 221810, Note_on_c, 7, 34, 0
18, 222000, Note_on_c, 7, 46, 35
18, 222000, Note_on_c, 7, 58, 35
18, 222054, Note_on_c, 7, 58, 0
18, 222054, Note_on_c, 7, 46, 0
18, 222240, Note_on_c, 7, 46, 35
18, 222240, Note_on_c, 7, 58, 35
18, 222286, Note_on_c, 7, 58, 0
18, 222286, Note_on_c, 7, 46, 0
18, 222480, Note_on_c, 7, 46, 35
18, 222480, Note_on_c, 7, 34, 35
18, 222516, Note_on_c, 7, 34, 0
18, 222516, Note_on_c, 7, 46, 0
18, 222720, Note_on_c, 7, 34, 35
18, 222720, Note_on_c, 7, 46, 35
18, 222770, Note_on_c, 7, 46, 0
18, 222770, Note_on_c, 7, 34, 0
18, 222960, Note_on_c, 7, 58, 35
18, 222960, Note_on_c, 7, 46, 35
18, 223014, Note_on_c, 7, 46, 0
18, 223014, Note_on_c, 7, 58, 0
18, 318720, Note_on_c, 7, 51, 40
18, 319104, Note_on_c, 7, 51, 0
18, 319680, Note_on_c, 7, 46, 40
18, 320064, Note_on_c, 7, 46, 0
18, 320640, Note_on_c, 7, 48, 40
18, 321024, Note_on_c, 7, 48, 0
18, 321600, Note_on_c, 7, 43, 40
18, 321984, Note_on_c, 7, 43, 0
18, 322560, Note_on_c, 7, 44, 40
18, 322944, Note_on_c, 7, 44, 0
18, 323040, Note_on_c, 7, 43, 40
18, 323424, Note_on_c, 7, 43, 0
18, 323520, Note_on_c, 7, 41, 40
18, 323904, Note_on_c, 7, 41, 0
18, 324000, Note_on_c, 7, 39, 40
18, 324384, Note_on_c, 7, 39, 0
18, 324480, Note_on_c, 7, 38, 40
18, 324864, Note_on_c, 7, 38, 0
18, 324960, Note_on_c, 7, 39, 40
18, 325344, Note_on_c, 7, 39, 0
18, 325440, Note_on_c, 7, 46, 40
18, 325824, Note_on_c, 7, 46, 0
18, 391680, Note_on_c, 7, 46, 40
18, 391680, Note_on_c, 7, 34, 40
18, 391740, Note_on_c, 7, 34, 0
18, 391740, Note_on_c, 7, 46, 0
18, 392640, Note_on_c, 7, 46, 40
18, 392640, Note_on_c, 7, 34, 40
18, 392682, Note_on_c, 7, 34, 0
18, 392682, Note_on_c, 7, 46, 0
18, 392682, End_track
19, 0, Start_track
19, 0, End_track
0, 0, End_of_file